<?xml version="1.0" encoding="utf-8"?>
<!-- Generator: Adobe Illustrator 24.2.3, SVG Export Plug-In . SVG Version: 6.00 Build 0)  -->
<svg version="1.1" id="Layer_1" xmlns="http://www.w3.org/2000/svg" xmlns:xlink="http://www.w3.org/1999/xlink" x="0px" y="0px"
	 viewBox="0 0 320 100" style="enable-background:new 0 0 320 100;" xml:space="preserve">
<style type="text/css">
	.st0{fill:#E82D8A;}
	.st1{fill:#EDF4FD;}
</style>
<g>
	<rect x="249.64" y="0.47" class="st0" width="70.12" height="100.01"/>
</g>
<g>
	<path class="st1" d="M262.31,68.08c0-0.12-0.04-0.22-0.12-0.3c-0.08-0.08-0.22-0.16-0.42-0.22c-0.28-0.08-0.48-0.19-0.6-0.33
		c-0.13-0.14-0.19-0.31-0.19-0.52c0-0.21,0.06-0.39,0.19-0.52c0.12-0.14,0.29-0.22,0.51-0.24v-0.42h0.29v0.43
		c0.22,0.03,0.39,0.12,0.51,0.27c0.12,0.15,0.18,0.36,0.18,0.63h-0.36c0-0.18-0.04-0.33-0.13-0.44s-0.2-0.16-0.35-0.16
		c-0.15,0-0.27,0.04-0.35,0.12c-0.08,0.08-0.12,0.19-0.12,0.33c0,0.13,0.04,0.24,0.13,0.32c0.09,0.08,0.23,0.15,0.43,0.21
		c0.2,0.06,0.35,0.13,0.46,0.21s0.19,0.17,0.25,0.27c0.05,0.1,0.08,0.22,0.08,0.36c0,0.22-0.07,0.39-0.2,0.53
		c-0.13,0.13-0.32,0.21-0.55,0.24v0.37h-0.29v-0.37c-0.24-0.02-0.43-0.11-0.57-0.26c-0.14-0.15-0.21-0.35-0.21-0.61h0.36
		c0,0.18,0.05,0.32,0.14,0.42c0.09,0.1,0.23,0.15,0.4,0.15c0.17,0,0.3-0.04,0.4-0.12C262.26,68.34,262.31,68.23,262.31,68.08z"/>
	<path class="st1" d="M264.3,68.81h-0.36v-2.39l-0.72,0.27v-0.33l1.03-0.39h0.06V68.81z"/>
	<path class="st1" d="M266.86,66.2v0.51h0.39v0.28h-0.39v1.3c0,0.08,0.02,0.15,0.05,0.19c0.04,0.04,0.09,0.06,0.18,0.06
		c0.04,0,0.1-0.01,0.17-0.02v0.29c-0.09,0.03-0.19,0.04-0.28,0.04c-0.16,0-0.28-0.05-0.36-0.15c-0.08-0.1-0.12-0.24-0.12-0.41v-1.3
		h-0.38v-0.28h0.38V66.2H266.86z"/>
	<path class="st1" d="M268.69,67.03c-0.05-0.01-0.11-0.01-0.18-0.01c-0.24,0-0.4,0.1-0.48,0.3v1.49h-0.36v-2.1h0.35l0.01,0.24
		c0.12-0.19,0.29-0.28,0.5-0.28c0.07,0,0.12,0.01,0.16,0.03V67.03z"/>
	<path class="st1" d="M269.02,66.15c0-0.06,0.02-0.11,0.05-0.15s0.09-0.06,0.16-0.06s0.12,0.02,0.16,0.06
		c0.04,0.04,0.05,0.09,0.05,0.15s-0.02,0.11-0.05,0.15c-0.04,0.04-0.09,0.06-0.16,0.06s-0.12-0.02-0.16-0.06
		S269.02,66.21,269.02,66.15z M269.41,68.81h-0.36v-2.1h0.36V68.81z"/>
	<path class="st1" d="M271.28,68.81c-0.02-0.04-0.04-0.12-0.05-0.22c-0.17,0.17-0.37,0.26-0.6,0.26c-0.21,0-0.38-0.06-0.51-0.18
		s-0.2-0.27-0.2-0.45c0-0.22,0.08-0.39,0.25-0.51c0.17-0.12,0.4-0.18,0.7-0.18h0.35v-0.17c0-0.13-0.04-0.23-0.11-0.3
		c-0.07-0.08-0.19-0.11-0.33-0.11c-0.13,0-0.24,0.03-0.32,0.1c-0.09,0.06-0.13,0.14-0.13,0.23h-0.36c0-0.1,0.04-0.21,0.11-0.3
		c0.07-0.1,0.17-0.17,0.3-0.23c0.13-0.06,0.27-0.08,0.42-0.08c0.24,0,0.43,0.06,0.57,0.18c0.14,0.12,0.21,0.29,0.21,0.5v0.97
		c0,0.19,0.02,0.35,0.07,0.46v0.03H271.28z M270.68,68.54c0.11,0,0.22-0.03,0.32-0.09c0.1-0.06,0.17-0.13,0.22-0.23v-0.43h-0.28
		c-0.44,0-0.66,0.13-0.66,0.39c0,0.11,0.04,0.2,0.11,0.26C270.47,68.51,270.57,68.54,270.68,68.54z"/>
	<path class="st1" d="M272.54,68.81h-0.36v-2.98h0.36V68.81z"/>
	<path class="st1" d="M274.27,68.81v-1.82h-0.33v-0.28h0.33V66.5c0-0.23,0.06-0.4,0.18-0.52s0.29-0.18,0.51-0.18
		c0.08,0,0.17,0.01,0.25,0.03l-0.02,0.29c-0.06-0.01-0.12-0.02-0.19-0.02c-0.12,0-0.21,0.03-0.27,0.1s-0.09,0.17-0.09,0.29v0.22
		h0.45v0.28h-0.45v1.82H274.27z"/>
	<path class="st1" d="M275.38,67.74c0-0.21,0.04-0.39,0.12-0.56c0.08-0.17,0.19-0.29,0.34-0.38c0.14-0.09,0.31-0.13,0.49-0.13
		c0.29,0,0.52,0.1,0.69,0.3c0.18,0.2,0.27,0.46,0.27,0.79v0.03c0,0.21-0.04,0.39-0.12,0.55c-0.08,0.16-0.19,0.29-0.34,0.38
		c-0.15,0.09-0.31,0.14-0.5,0.14c-0.29,0-0.52-0.1-0.69-0.3c-0.18-0.2-0.26-0.46-0.26-0.79V67.74z M275.74,67.79
		c0,0.23,0.05,0.42,0.16,0.56c0.11,0.14,0.25,0.21,0.43,0.21s0.33-0.07,0.43-0.21c0.11-0.14,0.16-0.34,0.16-0.6
		c0-0.23-0.05-0.42-0.16-0.56c-0.11-0.14-0.25-0.21-0.44-0.21c-0.18,0-0.32,0.07-0.43,0.21C275.8,67.32,275.74,67.52,275.74,67.79z"
		/>
	<path class="st1" d="M278.76,67.03c-0.05-0.01-0.11-0.01-0.18-0.01c-0.24,0-0.4,0.1-0.48,0.3v1.49h-0.36v-2.1h0.35l0.01,0.24
		c0.12-0.19,0.28-0.28,0.5-0.28c0.07,0,0.12,0.01,0.16,0.03V67.03z"/>
	<path class="st1" d="M280.56,66.2v0.51h0.39v0.28h-0.39v1.3c0,0.08,0.02,0.15,0.05,0.19s0.09,0.06,0.18,0.06
		c0.04,0,0.1-0.01,0.17-0.02v0.29c-0.09,0.03-0.19,0.04-0.28,0.04c-0.16,0-0.28-0.05-0.36-0.15c-0.08-0.1-0.12-0.24-0.12-0.41v-1.3
		h-0.38v-0.28h0.38V66.2H280.56z"/>
	<path class="st1" d="M281.73,66.97c0.16-0.2,0.37-0.29,0.62-0.29c0.44,0,0.67,0.25,0.67,0.75v1.39h-0.36v-1.39
		c0-0.15-0.04-0.26-0.1-0.34c-0.07-0.07-0.17-0.11-0.32-0.11c-0.12,0-0.22,0.03-0.31,0.09c-0.09,0.06-0.16,0.14-0.21,0.24v1.5h-0.36
		v-2.98h0.36V66.97z"/>
	<path class="st1" d="M284.44,68.85c-0.29,0-0.52-0.09-0.7-0.28c-0.18-0.19-0.27-0.44-0.27-0.75v-0.07c0-0.21,0.04-0.39,0.12-0.56
		s0.19-0.29,0.33-0.38s0.3-0.14,0.46-0.14c0.27,0,0.49,0.09,0.64,0.27c0.15,0.18,0.23,0.44,0.23,0.77v0.15h-1.42
		c0,0.21,0.06,0.37,0.18,0.5c0.12,0.13,0.26,0.19,0.44,0.19c0.13,0,0.23-0.03,0.32-0.08s0.17-0.12,0.23-0.21l0.22,0.17
		C285.05,68.72,284.79,68.85,284.44,68.85z M284.39,66.97c-0.14,0-0.27,0.05-0.37,0.16c-0.1,0.11-0.16,0.25-0.18,0.44h1.05v-0.03
		c-0.01-0.18-0.06-0.32-0.15-0.42C284.66,67.02,284.54,66.97,284.39,66.97z"/>
	<path class="st1" d="M286.83,68.81v-1.82h-0.33v-0.28h0.33V66.5c0-0.23,0.06-0.4,0.18-0.52c0.12-0.12,0.29-0.18,0.51-0.18
		c0.08,0,0.16,0.01,0.25,0.03l-0.02,0.29c-0.06-0.01-0.12-0.02-0.19-0.02c-0.12,0-0.21,0.03-0.27,0.1
		c-0.06,0.07-0.09,0.17-0.09,0.29v0.22h0.45v0.28h-0.45v1.82H286.83z"/>
	<path class="st1" d="M288.04,66.15c0-0.06,0.02-0.11,0.05-0.15s0.09-0.06,0.16-0.06s0.12,0.02,0.16,0.06
		c0.04,0.04,0.05,0.09,0.05,0.15s-0.02,0.11-0.05,0.15c-0.04,0.04-0.09,0.06-0.16,0.06s-0.12-0.02-0.16-0.06
		S288.04,66.21,288.04,66.15z M288.43,68.81h-0.36v-2.1h0.36V68.81z"/>
	<path class="st1" d="M290.02,67.03c-0.05-0.01-0.11-0.01-0.18-0.01c-0.24,0-0.4,0.1-0.48,0.3v1.49H289v-2.1h0.35l0.01,0.24
		c0.12-0.19,0.28-0.28,0.5-0.28c0.07,0,0.12,0.01,0.16,0.03V67.03z"/>
	<path class="st1" d="M291.57,68.26c0-0.1-0.04-0.17-0.11-0.23c-0.07-0.05-0.2-0.1-0.38-0.14c-0.18-0.04-0.33-0.09-0.43-0.14
		c-0.11-0.05-0.19-0.12-0.24-0.19c-0.05-0.08-0.08-0.17-0.08-0.27c0-0.17,0.07-0.32,0.22-0.44c0.15-0.12,0.33-0.18,0.56-0.18
		c0.24,0,0.43,0.06,0.58,0.18s0.22,0.28,0.22,0.47h-0.36c0-0.1-0.04-0.18-0.12-0.25c-0.08-0.07-0.19-0.11-0.32-0.11
		c-0.13,0-0.23,0.03-0.31,0.09c-0.07,0.06-0.11,0.13-0.11,0.22c0,0.09,0.03,0.15,0.1,0.2s0.19,0.09,0.37,0.13
		c0.18,0.04,0.33,0.09,0.44,0.14s0.19,0.12,0.25,0.2c0.05,0.08,0.08,0.17,0.08,0.29c0,0.19-0.08,0.34-0.23,0.45
		c-0.15,0.11-0.34,0.17-0.58,0.17c-0.17,0-0.32-0.03-0.45-0.09s-0.23-0.14-0.3-0.25c-0.07-0.11-0.11-0.22-0.11-0.35h0.36
		c0.01,0.12,0.05,0.22,0.14,0.29c0.09,0.07,0.21,0.11,0.36,0.11c0.14,0,0.25-0.03,0.33-0.08C291.53,68.42,291.57,68.35,291.57,68.26
		z"/>
	<path class="st1" d="M292.89,66.2v0.51h0.39v0.28h-0.39v1.3c0,0.08,0.02,0.15,0.05,0.19c0.04,0.04,0.09,0.06,0.18,0.06
		c0.04,0,0.1-0.01,0.17-0.02v0.29c-0.09,0.03-0.19,0.04-0.28,0.04c-0.16,0-0.28-0.05-0.36-0.15c-0.08-0.1-0.12-0.24-0.12-0.41v-1.3
		h-0.38v-0.28h0.38V66.2H292.89z"/>
	<path class="st1" d="M295.97,68.81h-0.56v-2.16l-0.67,0.21V66.4l1.17-0.42h0.06V68.81z"/>
	<path class="st1" d="M298.54,67.75h0.32v0.45h-0.32v0.61h-0.56V68.2h-1.16l-0.02-0.35l1.18-1.86h0.57V67.75z M297.36,67.75h0.62v-1
		l-0.04,0.06L297.36,67.75z"/>
	<path class="st1" d="M300.09,67.75c0-0.33,0.07-0.59,0.22-0.78s0.35-0.29,0.6-0.29c0.21,0,0.37,0.08,0.51,0.23v-1.07h0.56v2.98
		h-0.51l-0.03-0.22c-0.14,0.17-0.32,0.26-0.54,0.26c-0.25,0-0.45-0.1-0.59-0.29C300.17,68.36,300.09,68.09,300.09,67.75z
		 M300.65,67.79c0,0.2,0.03,0.35,0.1,0.45c0.07,0.11,0.17,0.16,0.3,0.16c0.17,0,0.29-0.07,0.37-0.22v-0.83
		c-0.07-0.15-0.19-0.22-0.36-0.22C300.79,67.13,300.65,67.35,300.65,67.79z"/>
	<path class="st1" d="M303.64,68.81c-0.03-0.05-0.04-0.11-0.06-0.19c-0.14,0.15-0.31,0.23-0.53,0.23c-0.21,0-0.38-0.06-0.51-0.18
		c-0.14-0.12-0.2-0.27-0.2-0.45c0-0.22,0.08-0.39,0.25-0.51c0.16-0.12,0.4-0.18,0.71-0.18h0.26v-0.12c0-0.1-0.02-0.17-0.07-0.23
		s-0.13-0.09-0.24-0.09c-0.09,0-0.17,0.02-0.22,0.07c-0.05,0.04-0.08,0.11-0.08,0.19h-0.56c0-0.12,0.04-0.23,0.11-0.34
		s0.18-0.18,0.32-0.24c0.14-0.06,0.29-0.09,0.46-0.09c0.26,0,0.46,0.06,0.62,0.2c0.15,0.13,0.23,0.31,0.23,0.55v0.91
		c0,0.2,0.03,0.35,0.08,0.45v0.03H303.64z M303.17,68.42c0.08,0,0.16-0.02,0.23-0.06c0.07-0.04,0.12-0.09,0.15-0.15v-0.36h-0.21
		c-0.28,0-0.43,0.1-0.45,0.29l0,0.03c0,0.07,0.03,0.13,0.07,0.17S303.09,68.42,303.17,68.42z"/>
	<path class="st1" d="M305.34,68.02l0.39-1.31h0.6l-0.84,2.43l-0.05,0.11c-0.13,0.27-0.33,0.41-0.62,0.41
		c-0.08,0-0.16-0.01-0.25-0.04V69.2l0.09,0c0.11,0,0.19-0.02,0.24-0.05s0.09-0.09,0.12-0.16l0.07-0.17l-0.74-2.11h0.6L305.34,68.02z
		"/>
	<path class="st1" d="M307.69,68.23c0-0.07-0.03-0.12-0.1-0.16c-0.07-0.04-0.18-0.08-0.33-0.11c-0.5-0.1-0.75-0.32-0.75-0.64
		c0-0.19,0.08-0.34,0.23-0.47s0.36-0.19,0.61-0.19c0.27,0,0.48,0.06,0.64,0.19c0.16,0.12,0.24,0.29,0.24,0.49h-0.56
		c0-0.08-0.03-0.15-0.08-0.2s-0.13-0.08-0.24-0.08c-0.09,0-0.17,0.02-0.22,0.06s-0.08,0.1-0.08,0.16c0,0.06,0.03,0.11,0.09,0.15
		c0.06,0.04,0.16,0.07,0.3,0.1c0.14,0.03,0.26,0.06,0.35,0.09c0.3,0.11,0.45,0.3,0.45,0.57c0,0.19-0.08,0.35-0.25,0.46
		c-0.17,0.12-0.38,0.18-0.64,0.18c-0.18,0-0.33-0.03-0.47-0.09c-0.14-0.06-0.24-0.15-0.32-0.26s-0.12-0.23-0.12-0.35h0.53
		c0.01,0.1,0.04,0.18,0.11,0.23c0.07,0.05,0.16,0.08,0.28,0.08c0.11,0,0.19-0.02,0.24-0.06C307.66,68.35,307.69,68.3,307.69,68.23z"
		/>
	<path class="st1" d="M308.64,69.38l-0.2-0.14c0.12-0.17,0.19-0.34,0.19-0.52v-0.32h0.35v0.28c0,0.13-0.03,0.26-0.1,0.39
		C308.82,69.19,308.74,69.3,308.64,69.38z"/>
	<path class="st1" d="M260.49,72.56c0,0.32-0.07,0.58-0.22,0.77c-0.15,0.2-0.34,0.29-0.59,0.29c-0.25,0-0.46-0.08-0.6-0.24v1.01
		h-0.36v-2.91h0.33l0.02,0.23c0.15-0.18,0.35-0.27,0.61-0.27c0.25,0,0.45,0.09,0.6,0.29s0.22,0.46,0.22,0.79V72.56z M260.13,72.52
		c0-0.24-0.05-0.42-0.15-0.56c-0.1-0.14-0.24-0.21-0.42-0.21c-0.22,0-0.38,0.1-0.49,0.29v1c0.11,0.19,0.27,0.29,0.49,0.29
		c0.17,0,0.31-0.07,0.41-0.21S260.13,72.79,260.13,72.52z"/>
	<path class="st1" d="M261.34,73.58h-0.36V70.6h0.36V73.58z"/>
	<path class="st1" d="M263.21,73.58c-0.02-0.04-0.04-0.12-0.05-0.22c-0.17,0.17-0.37,0.26-0.6,0.26c-0.21,0-0.38-0.06-0.51-0.18
		s-0.2-0.27-0.2-0.45c0-0.22,0.08-0.39,0.25-0.51c0.17-0.12,0.4-0.18,0.7-0.18h0.35v-0.17c0-0.13-0.04-0.23-0.11-0.3
		c-0.07-0.08-0.19-0.11-0.33-0.11c-0.13,0-0.23,0.03-0.32,0.1c-0.09,0.06-0.13,0.14-0.13,0.23h-0.36c0-0.1,0.04-0.21,0.11-0.3
		s0.18-0.17,0.3-0.23c0.13-0.06,0.27-0.08,0.42-0.08c0.24,0,0.43,0.06,0.57,0.18s0.21,0.29,0.21,0.5v0.97
		c0,0.19,0.02,0.35,0.07,0.46v0.03H263.21z M262.61,73.31c0.11,0,0.22-0.03,0.32-0.09c0.1-0.06,0.17-0.13,0.22-0.23v-0.43h-0.28
		c-0.44,0-0.66,0.13-0.66,0.39c0,0.11,0.04,0.2,0.11,0.26S262.49,73.31,262.61,73.31z"/>
	<path class="st1" d="M264.42,71.48l0.01,0.26c0.16-0.2,0.37-0.3,0.63-0.3c0.44,0,0.67,0.25,0.67,0.75v1.39h-0.36v-1.39
		c0-0.15-0.04-0.26-0.1-0.34c-0.07-0.07-0.17-0.11-0.32-0.11c-0.12,0-0.22,0.03-0.31,0.09c-0.09,0.06-0.16,0.14-0.21,0.24v1.5h-0.36
		v-2.1H264.42z"/>
	<path class="st1" d="M267.49,73.03c0-0.1-0.04-0.17-0.11-0.23c-0.07-0.05-0.2-0.1-0.38-0.14c-0.18-0.04-0.33-0.09-0.43-0.14
		c-0.11-0.05-0.19-0.12-0.24-0.19c-0.05-0.08-0.08-0.17-0.08-0.27c0-0.17,0.07-0.32,0.22-0.44c0.15-0.12,0.33-0.18,0.56-0.18
		c0.24,0,0.43,0.06,0.58,0.18s0.22,0.28,0.22,0.47h-0.36c0-0.1-0.04-0.18-0.13-0.25c-0.08-0.07-0.19-0.11-0.31-0.11
		c-0.13,0-0.23,0.03-0.31,0.09c-0.07,0.06-0.11,0.13-0.11,0.22c0,0.09,0.03,0.15,0.1,0.2c0.07,0.04,0.19,0.09,0.37,0.13
		c0.18,0.04,0.32,0.09,0.44,0.14s0.19,0.12,0.25,0.2c0.05,0.08,0.08,0.17,0.08,0.29c0,0.19-0.07,0.34-0.22,0.45
		s-0.35,0.17-0.58,0.17c-0.17,0-0.32-0.03-0.45-0.09s-0.23-0.14-0.3-0.25s-0.11-0.22-0.11-0.35h0.36c0.01,0.12,0.05,0.22,0.14,0.29
		c0.09,0.07,0.21,0.11,0.36,0.11c0.13,0,0.24-0.03,0.33-0.08C267.45,73.19,267.49,73.12,267.49,73.03z"/>
	<path class="st1" d="M270.53,73.03c0-0.1-0.04-0.17-0.11-0.23c-0.07-0.05-0.2-0.1-0.38-0.14c-0.18-0.04-0.33-0.09-0.43-0.14
		c-0.11-0.05-0.19-0.12-0.24-0.19c-0.05-0.08-0.08-0.17-0.08-0.27c0-0.17,0.07-0.32,0.22-0.44c0.15-0.12,0.33-0.18,0.56-0.18
		c0.24,0,0.43,0.06,0.58,0.18s0.22,0.28,0.22,0.47h-0.36c0-0.1-0.04-0.18-0.13-0.25c-0.08-0.07-0.19-0.11-0.31-0.11
		c-0.13,0-0.23,0.03-0.31,0.09c-0.07,0.06-0.11,0.13-0.11,0.22c0,0.09,0.03,0.15,0.1,0.2c0.07,0.04,0.19,0.09,0.37,0.13
		c0.18,0.04,0.32,0.09,0.44,0.14s0.19,0.12,0.25,0.2c0.05,0.08,0.08,0.17,0.08,0.29c0,0.19-0.07,0.34-0.22,0.45
		s-0.35,0.17-0.58,0.17c-0.17,0-0.32-0.03-0.45-0.09s-0.23-0.14-0.3-0.25s-0.11-0.22-0.11-0.35h0.36c0.01,0.12,0.05,0.22,0.14,0.29
		c0.09,0.07,0.21,0.11,0.36,0.11c0.13,0,0.24-0.03,0.33-0.08C270.49,73.19,270.53,73.12,270.53,73.03z"/>
	<path class="st1" d="M271.84,70.98v0.51h0.39v0.28h-0.39v1.3c0,0.08,0.02,0.15,0.05,0.19c0.04,0.04,0.1,0.06,0.18,0.06
		c0.04,0,0.1-0.01,0.17-0.02v0.29c-0.09,0.03-0.19,0.04-0.28,0.04c-0.16,0-0.28-0.05-0.36-0.15c-0.08-0.1-0.12-0.24-0.12-0.41v-1.3
		h-0.38v-0.28h0.38v-0.51H271.84z"/>
	<path class="st1" d="M273.95,73.58c-0.02-0.04-0.04-0.12-0.05-0.22c-0.17,0.17-0.37,0.26-0.6,0.26c-0.21,0-0.38-0.06-0.51-0.18
		s-0.2-0.27-0.2-0.45c0-0.22,0.08-0.39,0.25-0.51s0.4-0.18,0.7-0.18h0.35v-0.17c0-0.13-0.04-0.23-0.11-0.3
		c-0.08-0.08-0.19-0.11-0.33-0.11c-0.13,0-0.24,0.03-0.32,0.1c-0.09,0.06-0.13,0.14-0.13,0.23h-0.36c0-0.1,0.04-0.21,0.11-0.3
		s0.18-0.17,0.3-0.23c0.13-0.06,0.27-0.08,0.42-0.08c0.24,0,0.43,0.06,0.57,0.18c0.14,0.12,0.21,0.29,0.21,0.5v0.97
		c0,0.19,0.03,0.35,0.07,0.46v0.03H273.95z M273.36,73.31c0.11,0,0.22-0.03,0.32-0.09c0.1-0.06,0.17-0.13,0.22-0.23v-0.43h-0.28
		c-0.44,0-0.66,0.13-0.66,0.39c0,0.11,0.04,0.2,0.11,0.26C273.14,73.28,273.24,73.31,273.36,73.31z"/>
	<path class="st1" d="M275.83,71.81c-0.05-0.01-0.11-0.01-0.18-0.01c-0.24,0-0.39,0.1-0.48,0.3v1.49h-0.36v-2.1h0.35l0.01,0.24
		c0.12-0.19,0.28-0.28,0.5-0.28c0.07,0,0.12,0.01,0.16,0.03V71.81z"/>
	<path class="st1" d="M276.75,70.98v0.51h0.39v0.28h-0.39v1.3c0,0.08,0.02,0.15,0.05,0.19s0.09,0.06,0.18,0.06
		c0.04,0,0.1-0.01,0.17-0.02v0.29c-0.09,0.03-0.19,0.04-0.28,0.04c-0.16,0-0.28-0.05-0.36-0.15c-0.08-0.1-0.12-0.24-0.12-0.41v-1.3
		h-0.38v-0.28h0.38v-0.51H276.75z"/>
	<path class="st1" d="M277.56,70.93c0-0.06,0.02-0.11,0.05-0.15s0.09-0.06,0.16-0.06s0.12,0.02,0.16,0.06s0.05,0.09,0.05,0.15
		s-0.02,0.11-0.05,0.15s-0.09,0.06-0.16,0.06s-0.12-0.02-0.16-0.06S277.56,70.99,277.56,70.93z M277.95,73.58h-0.36v-2.1h0.36V73.58
		z"/>
	<path class="st1" d="M278.87,71.48l0.01,0.26c0.16-0.2,0.37-0.3,0.63-0.3c0.44,0,0.67,0.25,0.67,0.75v1.39h-0.36v-1.39
		c0-0.15-0.04-0.26-0.1-0.34c-0.07-0.07-0.17-0.11-0.32-0.11c-0.12,0-0.22,0.03-0.31,0.09c-0.09,0.06-0.16,0.14-0.21,0.24v1.5h-0.36
		v-2.1H278.87z"/>
	<path class="st1" d="M280.63,72.52c0-0.33,0.08-0.59,0.23-0.78c0.15-0.19,0.35-0.29,0.6-0.29c0.26,0,0.46,0.09,0.6,0.27l0.02-0.23
		h0.33v2.05c0,0.27-0.08,0.49-0.24,0.64c-0.16,0.16-0.38,0.23-0.65,0.23c-0.15,0-0.3-0.03-0.45-0.1c-0.14-0.06-0.26-0.15-0.33-0.27
		l0.19-0.22c0.15,0.19,0.34,0.29,0.57,0.29c0.17,0,0.31-0.05,0.41-0.15s0.15-0.24,0.15-0.42v-0.18c-0.14,0.17-0.34,0.25-0.59,0.25
		c-0.25,0-0.45-0.1-0.6-0.3C280.71,73.13,280.63,72.86,280.63,72.52z M281,72.56c0,0.24,0.05,0.42,0.15,0.56
		c0.1,0.14,0.23,0.2,0.41,0.2c0.23,0,0.39-0.1,0.5-0.31v-0.96c-0.11-0.2-0.27-0.3-0.49-0.3c-0.18,0-0.31,0.07-0.41,0.2
		C281.04,72.09,281,72.29,281,72.56z"/>
	<path class="st1" d="M285.23,73.58c-0.02-0.04-0.04-0.12-0.05-0.22c-0.17,0.17-0.37,0.26-0.6,0.26c-0.21,0-0.38-0.06-0.51-0.18
		s-0.2-0.27-0.2-0.45c0-0.22,0.08-0.39,0.25-0.51c0.17-0.12,0.4-0.18,0.7-0.18h0.35v-0.17c0-0.13-0.04-0.23-0.11-0.3
		c-0.07-0.08-0.19-0.11-0.33-0.11c-0.13,0-0.23,0.03-0.32,0.1c-0.09,0.06-0.13,0.14-0.13,0.23h-0.36c0-0.1,0.04-0.21,0.11-0.3
		s0.18-0.17,0.3-0.23c0.13-0.06,0.27-0.08,0.42-0.08c0.24,0,0.43,0.06,0.57,0.18s0.21,0.29,0.21,0.5v0.97
		c0,0.19,0.02,0.35,0.07,0.46v0.03H285.23z M284.64,73.31c0.11,0,0.22-0.03,0.32-0.09c0.1-0.06,0.17-0.13,0.22-0.23v-0.43h-0.28
		c-0.44,0-0.66,0.13-0.66,0.39c0,0.11,0.04,0.2,0.11,0.26S284.52,73.31,284.64,73.31z"/>
	<path class="st1" d="M286.59,70.98v0.51h0.39v0.28h-0.39v1.3c0,0.08,0.02,0.15,0.05,0.19s0.09,0.06,0.18,0.06
		c0.04,0,0.1-0.01,0.17-0.02v0.29c-0.09,0.03-0.19,0.04-0.28,0.04c-0.16,0-0.28-0.05-0.36-0.15c-0.08-0.1-0.12-0.24-0.12-0.41v-1.3
		h-0.38v-0.28h0.38v-0.51H286.59z"/>
	<path class="st1" d="M289.64,72.84c0-0.11-0.03-0.19-0.09-0.25c-0.06-0.06-0.16-0.12-0.3-0.17c-0.14-0.05-0.26-0.11-0.37-0.16
		c-0.1-0.05-0.19-0.11-0.26-0.18c-0.07-0.07-0.13-0.15-0.17-0.24c-0.04-0.09-0.06-0.2-0.06-0.33c0-0.22,0.07-0.4,0.21-0.54
		c0.14-0.14,0.33-0.22,0.56-0.25v-0.42h0.31v0.42c0.23,0.03,0.41,0.13,0.54,0.29c0.13,0.16,0.19,0.36,0.19,0.62h-0.56
		c0-0.16-0.03-0.27-0.1-0.35c-0.06-0.08-0.15-0.12-0.26-0.12c-0.11,0-0.19,0.03-0.25,0.09c-0.06,0.06-0.09,0.14-0.09,0.25
		c0,0.1,0.03,0.18,0.09,0.24c0.06,0.06,0.16,0.12,0.32,0.18c0.16,0.06,0.28,0.12,0.38,0.18s0.18,0.12,0.25,0.19s0.12,0.15,0.16,0.24
		c0.04,0.09,0.05,0.19,0.05,0.31c0,0.22-0.07,0.4-0.21,0.54c-0.14,0.14-0.33,0.22-0.57,0.24V74h-0.31v-0.38
		c-0.27-0.03-0.47-0.12-0.62-0.28c-0.15-0.16-0.22-0.37-0.22-0.64h0.56c0,0.15,0.04,0.27,0.11,0.35c0.07,0.08,0.18,0.12,0.32,0.12
		c0.11,0,0.2-0.03,0.27-0.09C289.61,73.03,289.64,72.94,289.64,72.84z"/>
	<path class="st1" d="M291.9,72.46c-0.15,0.14-0.32,0.22-0.51,0.22c-0.25,0-0.45-0.09-0.6-0.26c-0.15-0.17-0.23-0.4-0.23-0.69
		c0-0.18,0.04-0.35,0.12-0.51c0.08-0.15,0.19-0.27,0.34-0.36c0.14-0.09,0.31-0.13,0.49-0.13c0.19,0,0.35,0.05,0.5,0.14
		c0.14,0.09,0.26,0.23,0.34,0.4s0.12,0.38,0.12,0.6v0.21c0,0.47-0.12,0.84-0.35,1.11c-0.23,0.27-0.57,0.41-1,0.43l-0.14,0v-0.47
		l0.12,0C291.59,73.12,291.86,72.89,291.9,72.46z M291.52,72.24c0.09,0,0.17-0.02,0.23-0.07c0.07-0.05,0.12-0.1,0.15-0.17v-0.23
		c0-0.19-0.04-0.34-0.11-0.44c-0.07-0.11-0.17-0.16-0.29-0.16c-0.11,0-0.21,0.05-0.28,0.16c-0.07,0.1-0.11,0.23-0.11,0.39
		c0,0.15,0.04,0.28,0.11,0.38S291.39,72.24,291.52,72.24z"/>
	<path class="st1" d="M292.92,73.31c0-0.09,0.03-0.16,0.09-0.22s0.14-0.08,0.23-0.08c0.09,0,0.17,0.03,0.23,0.08
		s0.09,0.13,0.09,0.22c0,0.09-0.03,0.16-0.09,0.21c-0.06,0.05-0.14,0.08-0.23,0.08c-0.09,0-0.17-0.03-0.23-0.08
		C292.95,73.47,292.92,73.4,292.92,73.31z"/>
	<path class="st1" d="M295.33,72.46c-0.15,0.14-0.32,0.22-0.51,0.22c-0.25,0-0.45-0.09-0.6-0.26c-0.15-0.17-0.22-0.4-0.22-0.69
		c0-0.18,0.04-0.35,0.12-0.51c0.08-0.15,0.19-0.27,0.34-0.36c0.14-0.09,0.31-0.13,0.49-0.13c0.19,0,0.35,0.05,0.5,0.14
		c0.14,0.09,0.26,0.23,0.34,0.4s0.12,0.38,0.12,0.6v0.21c0,0.47-0.12,0.84-0.35,1.11c-0.23,0.27-0.57,0.41-1,0.43l-0.14,0v-0.47
		l0.12,0C295.03,73.12,295.29,72.89,295.33,72.46z M294.96,72.24c0.09,0,0.17-0.02,0.23-0.07c0.07-0.05,0.12-0.1,0.15-0.17v-0.23
		c0-0.19-0.04-0.34-0.11-0.44c-0.07-0.11-0.17-0.16-0.29-0.16c-0.11,0-0.21,0.05-0.28,0.16c-0.07,0.1-0.11,0.23-0.11,0.39
		c0,0.15,0.04,0.28,0.11,0.38C294.73,72.19,294.83,72.24,294.96,72.24z"/>
	<path class="st1" d="M297.62,72.46c-0.15,0.14-0.32,0.22-0.51,0.22c-0.25,0-0.45-0.09-0.6-0.26c-0.15-0.17-0.23-0.4-0.23-0.69
		c0-0.18,0.04-0.35,0.12-0.51c0.08-0.15,0.19-0.27,0.34-0.36c0.14-0.09,0.31-0.13,0.49-0.13c0.19,0,0.35,0.05,0.5,0.14
		c0.14,0.09,0.26,0.23,0.34,0.4s0.12,0.38,0.12,0.6v0.21c0,0.47-0.12,0.84-0.35,1.11c-0.23,0.27-0.57,0.41-1,0.43l-0.14,0v-0.47
		l0.12,0C297.31,73.12,297.58,72.89,297.62,72.46z M297.24,72.24c0.09,0,0.17-0.02,0.23-0.07c0.07-0.05,0.12-0.1,0.15-0.17v-0.23
		c0-0.19-0.04-0.34-0.11-0.44c-0.07-0.11-0.17-0.16-0.29-0.16c-0.11,0-0.21,0.05-0.28,0.16c-0.07,0.1-0.11,0.23-0.11,0.39
		c0,0.15,0.04,0.28,0.11,0.38S297.11,72.24,297.24,72.24z"/>
	<path class="st1" d="M298.79,73.83h-0.42l1.04-3.07h0.42L298.79,73.83z"/>
	<path class="st1" d="M300.62,71.48l0.02,0.23c0.15-0.18,0.35-0.27,0.6-0.27c0.27,0,0.46,0.11,0.56,0.32
		c0.15-0.21,0.36-0.32,0.63-0.32c0.23,0,0.4,0.07,0.51,0.2s0.17,0.33,0.17,0.6v1.34h-0.56v-1.34c0-0.12-0.02-0.21-0.07-0.26
		c-0.05-0.06-0.13-0.08-0.25-0.08c-0.17,0-0.29,0.08-0.35,0.24l0,1.44h-0.56v-1.34c0-0.12-0.02-0.21-0.07-0.26
		c-0.05-0.05-0.13-0.08-0.25-0.08c-0.16,0-0.27,0.07-0.35,0.2v1.49h-0.56v-2.1H300.62z"/>
	<path class="st1" d="M303.45,72.52c0-0.21,0.04-0.39,0.12-0.56s0.2-0.29,0.35-0.38c0.15-0.09,0.33-0.13,0.53-0.13
		c0.28,0,0.52,0.09,0.7,0.26c0.18,0.17,0.28,0.41,0.3,0.71l0,0.14c0,0.32-0.09,0.58-0.27,0.78c-0.18,0.19-0.42,0.29-0.72,0.29
		s-0.54-0.1-0.72-0.29c-0.18-0.19-0.27-0.46-0.27-0.79V72.52z M304.01,72.55c0,0.2,0.04,0.35,0.11,0.46
		c0.08,0.11,0.18,0.16,0.32,0.16c0.14,0,0.24-0.05,0.32-0.16s0.12-0.27,0.12-0.5c0-0.2-0.04-0.35-0.12-0.46
		c-0.08-0.11-0.18-0.16-0.32-0.16c-0.14,0-0.24,0.05-0.32,0.16C304.05,72.17,304.01,72.33,304.01,72.55z"/>
	<path class="st1" d="M306.3,71.48l0.02,0.24c0.15-0.19,0.35-0.28,0.6-0.28c0.22,0,0.39,0.07,0.5,0.2s0.17,0.33,0.17,0.59v1.36
		h-0.56v-1.34c0-0.12-0.03-0.21-0.08-0.26s-0.14-0.08-0.26-0.08c-0.16,0-0.28,0.07-0.36,0.2v1.48h-0.56v-2.1H306.3z"/>
	<path class="st1" d="M308.69,70.97v0.52h0.36v0.41h-0.36v1.05c0,0.08,0.01,0.13,0.04,0.17c0.03,0.03,0.09,0.05,0.17,0.05
		c0.06,0,0.12,0,0.17-0.01v0.42c-0.11,0.03-0.22,0.05-0.34,0.05c-0.39,0-0.59-0.2-0.6-0.6V71.9h-0.31v-0.41h0.31v-0.52H308.69z"/>
	<path class="st1" d="M309.9,71.71c0.15-0.18,0.34-0.27,0.56-0.27c0.46,0,0.69,0.26,0.69,0.79v1.35h-0.56v-1.33
		c0-0.12-0.03-0.21-0.08-0.27s-0.14-0.09-0.26-0.09c-0.16,0-0.28,0.06-0.36,0.19v1.49h-0.56V70.6h0.56V71.71z"/>
</g>
</svg>
