<?xml version="1.0" encoding="utf-8"?>
<!-- Generator: Adobe Illustrator 24.2.3, SVG Export Plug-In . SVG Version: 6.00 Build 0)  -->
<svg version="1.1" id="Layer_1" xmlns="http://www.w3.org/2000/svg" xmlns:xlink="http://www.w3.org/1999/xlink" x="0px" y="0px"
	 viewBox="0 0 320 100" style="enable-background:new 0 0 320 100;" xml:space="preserve">
<style type="text/css">
	.st0{fill:#E82D8A;}
</style>
<g>
	<path class="st0" d="M137.31,29.66h-2.06v2.13h-1.08v-5.22h3.4v0.87h-2.32v1.35h2.06V29.66z"/>
	<path class="st0" d="M140.21,28.89c-0.14-0.02-0.26-0.03-0.37-0.03c-0.39,0-0.65,0.13-0.77,0.4v2.54h-1.04v-3.88H139l0.03,0.46
		c0.21-0.36,0.5-0.53,0.86-0.53c0.11,0,0.22,0.02,0.32,0.05L140.21,28.89z"/>
	<path class="st0" d="M142.49,31.87c-0.57,0-1.03-0.17-1.39-0.52c-0.36-0.35-0.54-0.81-0.54-1.39v-0.1c0-0.39,0.08-0.74,0.23-1.04
		c0.15-0.31,0.36-0.54,0.64-0.71s0.59-0.25,0.95-0.25c0.53,0,0.95,0.17,1.25,0.5c0.3,0.33,0.46,0.81,0.46,1.42v0.42h-2.47
		c0.03,0.25,0.13,0.46,0.3,0.61c0.17,0.15,0.38,0.23,0.64,0.23c0.4,0,0.71-0.14,0.94-0.43l0.51,0.57c-0.16,0.22-0.37,0.39-0.63,0.51
		S142.81,31.87,142.49,31.87z M142.37,28.68c-0.21,0-0.37,0.07-0.5,0.21s-0.21,0.34-0.25,0.6h1.44V29.4c0-0.23-0.07-0.41-0.19-0.53
		C142.76,28.74,142.59,28.68,142.37,28.68z"/>
	<path class="st0" d="M146.46,31.87c-0.57,0-1.03-0.17-1.39-0.52c-0.36-0.35-0.54-0.81-0.54-1.39v-0.1c0-0.39,0.08-0.74,0.23-1.04
		c0.15-0.31,0.36-0.54,0.64-0.71s0.59-0.25,0.95-0.25c0.53,0,0.95,0.17,1.25,0.5c0.3,0.33,0.46,0.81,0.46,1.42v0.42h-2.47
		c0.03,0.25,0.13,0.46,0.3,0.61c0.17,0.15,0.38,0.23,0.64,0.23c0.4,0,0.71-0.14,0.94-0.43l0.51,0.57c-0.16,0.22-0.37,0.39-0.63,0.51
		S146.78,31.87,146.46,31.87z M146.34,28.68c-0.21,0-0.37,0.07-0.5,0.21s-0.21,0.34-0.25,0.6h1.44V29.4c0-0.23-0.07-0.41-0.19-0.53
		C146.73,28.74,146.56,28.68,146.34,28.68z"/>
	<path class="st0" d="M150.9,31.79v-3.37h-0.61v-0.51h0.61v-0.4c0-0.42,0.11-0.74,0.33-0.96c0.22-0.23,0.54-0.34,0.94-0.34
		c0.15,0,0.3,0.02,0.46,0.06l-0.04,0.54c-0.11-0.02-0.23-0.03-0.36-0.03c-0.22,0-0.38,0.06-0.5,0.19s-0.18,0.31-0.18,0.54v0.41h0.83
		v0.51h-0.83v3.37H150.9z"/>
	<path class="st0" d="M152.95,29.82c0-0.38,0.07-0.72,0.22-1.03c0.15-0.3,0.36-0.54,0.62-0.7s0.57-0.25,0.91-0.25
		c0.53,0,0.96,0.18,1.28,0.55c0.33,0.37,0.49,0.85,0.49,1.46v0.05c0,0.38-0.07,0.72-0.22,1.02s-0.35,0.53-0.62,0.7
		c-0.27,0.17-0.58,0.25-0.93,0.25c-0.53,0-0.95-0.18-1.28-0.55s-0.49-0.85-0.49-1.45V29.82z M153.62,29.9c0,0.43,0.1,0.78,0.3,1.04
		c0.2,0.26,0.47,0.39,0.8,0.39c0.34,0,0.6-0.13,0.8-0.4c0.2-0.26,0.3-0.63,0.3-1.11c0-0.42-0.1-0.77-0.3-1.03
		c-0.2-0.26-0.47-0.4-0.81-0.4c-0.33,0-0.59,0.13-0.79,0.39S153.62,29.41,153.62,29.9z"/>
	<path class="st0" d="M159.19,28.51c-0.1-0.02-0.21-0.02-0.33-0.02c-0.44,0-0.73,0.18-0.89,0.56v2.75h-0.66v-3.88h0.65l0.01,0.45
		c0.22-0.35,0.53-0.52,0.92-0.52c0.13,0,0.23,0.02,0.29,0.05V28.51z"/>
	<path class="st0" d="M162.41,29.75v2.04h-0.69v-5.22h1.92c0.57,0,1.02,0.15,1.34,0.44s0.49,0.68,0.49,1.16
		c0,0.51-0.16,0.9-0.47,1.17c-0.32,0.27-0.77,0.41-1.36,0.41H162.41z M162.41,29.19h1.24c0.37,0,0.65-0.09,0.85-0.26
		c0.2-0.17,0.29-0.42,0.29-0.75c0-0.31-0.1-0.56-0.29-0.75c-0.2-0.19-0.46-0.28-0.81-0.29h-1.28V29.19z"/>
	<path class="st0" d="M168.12,28.51c-0.1-0.02-0.21-0.02-0.33-0.02c-0.43,0-0.73,0.18-0.89,0.56v2.75h-0.66v-3.88h0.65l0.01,0.45
		c0.22-0.35,0.53-0.52,0.92-0.52c0.13,0,0.23,0.02,0.29,0.05V28.51z"/>
	<path class="st0" d="M168.73,26.88c0-0.11,0.03-0.2,0.1-0.27c0.07-0.07,0.16-0.11,0.29-0.11s0.23,0.04,0.29,0.11
		c0.07,0.07,0.1,0.17,0.1,0.27c0,0.11-0.03,0.2-0.1,0.27c-0.07,0.07-0.17,0.11-0.29,0.11s-0.23-0.04-0.29-0.11
		C168.77,27.08,168.73,26.99,168.73,26.88z M169.45,31.79h-0.66v-3.88h0.66V31.79z"/>
	<path class="st0" d="M171.79,30.89l0.96-2.98h0.68l-1.39,3.88h-0.51l-1.41-3.88h0.68L171.79,30.89z"/>
	<path class="st0" d="M176.41,31.79c-0.04-0.08-0.07-0.21-0.09-0.41c-0.31,0.32-0.68,0.48-1.1,0.48c-0.38,0-0.7-0.11-0.94-0.33
		c-0.25-0.22-0.37-0.49-0.37-0.82c0-0.4,0.15-0.72,0.46-0.94c0.31-0.22,0.74-0.33,1.3-0.33h0.65v-0.3c0-0.23-0.07-0.42-0.21-0.55
		c-0.14-0.14-0.34-0.21-0.61-0.21c-0.24,0-0.44,0.06-0.6,0.18c-0.16,0.12-0.24,0.26-0.24,0.43h-0.67c0-0.19,0.07-0.38,0.21-0.56
		c0.14-0.18,0.32-0.32,0.56-0.43c0.24-0.11,0.49-0.16,0.78-0.16c0.45,0,0.8,0.11,1.05,0.33c0.25,0.22,0.38,0.53,0.39,0.92v1.79
		c0,0.36,0.04,0.64,0.14,0.85v0.06H176.41z M175.31,31.29c0.21,0,0.41-0.05,0.59-0.16c0.19-0.11,0.32-0.25,0.41-0.42v-0.8h-0.52
		c-0.81,0-1.22,0.24-1.22,0.71c0,0.21,0.07,0.37,0.21,0.49S175.09,31.29,175.31,31.29z"/>
	<path class="st0" d="M179.56,31.32c0.24,0,0.44-0.07,0.62-0.21c0.18-0.14,0.27-0.32,0.29-0.54h0.63c-0.01,0.22-0.09,0.43-0.23,0.63
		c-0.14,0.2-0.33,0.36-0.56,0.48s-0.48,0.18-0.75,0.18c-0.53,0-0.95-0.18-1.26-0.53s-0.47-0.83-0.47-1.45v-0.11
		c0-0.38,0.07-0.71,0.21-1.01s0.34-0.52,0.6-0.68c0.26-0.16,0.57-0.24,0.92-0.24c0.43,0,0.8,0.13,1.08,0.39s0.44,0.6,0.46,1.01
		h-0.63c-0.02-0.25-0.11-0.46-0.29-0.62c-0.17-0.16-0.38-0.24-0.63-0.24c-0.34,0-0.6,0.12-0.78,0.36c-0.19,0.24-0.28,0.59-0.28,1.05
		v0.12c0,0.45,0.09,0.79,0.28,1.03C178.96,31.2,179.22,31.32,179.56,31.32z"/>
	<path class="st0" d="M183.12,30.82l0.9-2.91h0.71l-1.56,4.48c-0.24,0.65-0.62,0.97-1.15,0.97l-0.13-0.01l-0.25-0.05v-0.54
		l0.18,0.01c0.22,0,0.4-0.05,0.53-0.14c0.12-0.09,0.23-0.26,0.31-0.5l0.15-0.39l-1.38-3.84h0.72L183.12,30.82z"/>
	<path class="st0" d="M189.28,31.11c-0.18,0.25-0.42,0.44-0.74,0.57c-0.32,0.12-0.69,0.19-1.11,0.19c-0.43,0-0.8-0.1-1.13-0.3
		c-0.33-0.2-0.58-0.48-0.76-0.85c-0.18-0.37-0.27-0.79-0.28-1.28v-0.46c0-0.79,0.18-1.4,0.55-1.83c0.37-0.43,0.88-0.65,1.55-0.65
		c0.54,0,0.98,0.14,1.32,0.42s0.54,0.67,0.61,1.19h-0.69c-0.13-0.69-0.54-1.04-1.23-1.04c-0.46,0-0.81,0.16-1.05,0.49
		c-0.24,0.32-0.36,0.79-0.36,1.41v0.43c0,0.59,0.13,1.05,0.4,1.4s0.63,0.52,1.09,0.52c0.26,0,0.48-0.03,0.68-0.09
		c0.19-0.06,0.35-0.15,0.48-0.29v-1.17h-1.21v-0.56h1.89V31.11z"/>
	<path class="st0" d="M192.72,31.41c-0.26,0.3-0.64,0.46-1.14,0.46c-0.41,0-0.73-0.12-0.95-0.36c-0.22-0.24-0.33-0.6-0.33-1.07
		v-2.52h0.66v2.51c0,0.59,0.24,0.88,0.72,0.88c0.51,0,0.84-0.19,1.01-0.57v-2.82h0.66v3.88h-0.63L192.72,31.41z"/>
	<path class="st0" d="M196.77,31.79c-0.04-0.08-0.07-0.21-0.09-0.41c-0.31,0.32-0.68,0.48-1.1,0.48c-0.38,0-0.7-0.11-0.94-0.33
		c-0.25-0.22-0.37-0.49-0.37-0.82c0-0.4,0.15-0.72,0.46-0.94c0.31-0.22,0.74-0.33,1.3-0.33h0.65v-0.3c0-0.23-0.07-0.42-0.21-0.55
		c-0.14-0.14-0.34-0.21-0.61-0.21c-0.24,0-0.43,0.06-0.59,0.18c-0.16,0.12-0.24,0.26-0.24,0.43h-0.67c0-0.19,0.07-0.38,0.21-0.56
		s0.32-0.32,0.56-0.43s0.49-0.16,0.78-0.16c0.45,0,0.8,0.11,1.05,0.33c0.25,0.22,0.38,0.53,0.39,0.92v1.79
		c0,0.36,0.05,0.64,0.14,0.85v0.06H196.77z M195.67,31.29c0.21,0,0.4-0.05,0.59-0.16c0.19-0.11,0.32-0.25,0.41-0.42v-0.8h-0.52
		c-0.81,0-1.22,0.24-1.22,0.71c0,0.21,0.07,0.37,0.21,0.49C195.27,31.23,195.45,31.29,195.67,31.29z"/>
	<path class="st0" d="M200.24,28.51c-0.1-0.02-0.21-0.02-0.33-0.02c-0.44,0-0.73,0.18-0.89,0.56v2.75h-0.66v-3.88h0.65l0.01,0.45
		c0.22-0.35,0.53-0.52,0.92-0.52c0.13,0,0.23,0.02,0.29,0.05V28.51z"/>
	<path class="st0" d="M200.69,29.82c0-0.59,0.14-1.07,0.42-1.44c0.28-0.36,0.65-0.54,1.11-0.54c0.45,0,0.81,0.16,1.08,0.47v-2.02
		h0.66v5.51h-0.61l-0.03-0.42c-0.27,0.33-0.63,0.49-1.11,0.49c-0.45,0-0.82-0.18-1.1-0.55s-0.42-0.85-0.42-1.44V29.82z M201.35,29.9
		c0,0.44,0.09,0.78,0.27,1.03c0.18,0.25,0.43,0.37,0.75,0.37c0.42,0,0.73-0.19,0.92-0.57v-1.78c-0.2-0.37-0.5-0.55-0.91-0.55
		c-0.33,0-0.58,0.12-0.76,0.38S201.35,29.4,201.35,29.9z"/>
	<path class="st0" d="M207.43,27.91l0.02,0.43c0.29-0.33,0.67-0.5,1.15-0.5c0.54,0,0.91,0.21,1.11,0.62c0.13-0.19,0.3-0.34,0.5-0.45
		c0.21-0.12,0.45-0.17,0.73-0.17c0.85,0,1.28,0.45,1.3,1.35v2.6h-0.66v-2.56c0-0.28-0.06-0.48-0.19-0.62s-0.34-0.21-0.64-0.21
		c-0.25,0-0.45,0.07-0.61,0.22c-0.16,0.15-0.26,0.34-0.28,0.59v2.57h-0.67v-2.54c0-0.56-0.28-0.85-0.83-0.85
		c-0.44,0-0.73,0.19-0.89,0.56v2.83h-0.66v-3.88H207.43z"/>
	<path class="st0" d="M214.86,31.87c-0.53,0-0.95-0.17-1.28-0.52c-0.33-0.34-0.49-0.81-0.49-1.39v-0.12c0-0.38,0.07-0.73,0.22-1.03
		c0.15-0.3,0.35-0.54,0.62-0.71c0.26-0.17,0.55-0.26,0.86-0.26c0.5,0,0.9,0.17,1.18,0.5c0.28,0.33,0.42,0.81,0.42,1.43v0.28h-2.63
		c0.01,0.38,0.12,0.69,0.33,0.93s0.49,0.35,0.82,0.35c0.23,0,0.43-0.05,0.6-0.14c0.16-0.09,0.3-0.22,0.43-0.38l0.4,0.32
		C215.99,31.62,215.51,31.87,214.86,31.87z M214.77,28.39c-0.27,0-0.49,0.1-0.67,0.29c-0.18,0.19-0.29,0.47-0.34,0.82h1.94v-0.05
		c-0.02-0.34-0.11-0.6-0.27-0.78C215.27,28.48,215.05,28.39,214.77,28.39z"/>
	<path class="st0" d="M217.76,27.91l0.02,0.43c0.29-0.33,0.67-0.5,1.15-0.5c0.54,0,0.91,0.21,1.11,0.62c0.13-0.19,0.3-0.34,0.5-0.45
		c0.21-0.12,0.45-0.17,0.73-0.17c0.85,0,1.28,0.45,1.3,1.35v2.6h-0.66v-2.56c0-0.28-0.06-0.48-0.19-0.62s-0.34-0.21-0.64-0.21
		c-0.25,0-0.45,0.07-0.61,0.22c-0.16,0.15-0.26,0.34-0.28,0.59v2.57h-0.67v-2.54c0-0.56-0.28-0.85-0.83-0.85
		c-0.44,0-0.73,0.19-0.89,0.56v2.83h-0.66v-3.88H217.76z"/>
	<path class="st0" d="M226.86,29.9c0,0.59-0.14,1.07-0.41,1.43c-0.27,0.36-0.64,0.54-1.1,0.54c-0.49,0-0.87-0.17-1.14-0.52
		l-0.03,0.45h-0.61v-5.51h0.66v2.05c0.27-0.33,0.64-0.5,1.11-0.5s0.84,0.18,1.11,0.53c0.27,0.36,0.4,0.84,0.4,1.46V29.9z
		 M226.19,29.82c0-0.45-0.09-0.8-0.26-1.05c-0.17-0.25-0.43-0.37-0.75-0.37c-0.44,0-0.75,0.2-0.94,0.61v1.68
		c0.2,0.41,0.52,0.61,0.95,0.61c0.32,0,0.57-0.12,0.74-0.37S226.19,30.32,226.19,29.82z"/>
	<path class="st0" d="M229.3,31.87c-0.53,0-0.95-0.17-1.28-0.52c-0.33-0.34-0.49-0.81-0.49-1.39v-0.12c0-0.38,0.07-0.73,0.22-1.03
		c0.15-0.3,0.35-0.54,0.62-0.71c0.26-0.17,0.55-0.26,0.86-0.26c0.5,0,0.9,0.17,1.18,0.5c0.28,0.33,0.42,0.81,0.42,1.43v0.28h-2.63
		c0.01,0.38,0.12,0.69,0.33,0.93s0.49,0.35,0.82,0.35c0.23,0,0.43-0.05,0.6-0.14c0.16-0.09,0.3-0.22,0.43-0.38l0.4,0.32
		C230.44,31.62,229.95,31.87,229.3,31.87z M229.22,28.39c-0.27,0-0.49,0.1-0.67,0.29c-0.18,0.19-0.29,0.47-0.34,0.82h1.94v-0.05
		c-0.02-0.34-0.11-0.6-0.27-0.78C229.71,28.48,229.5,28.39,229.22,28.39z"/>
	<path class="st0" d="M233.46,28.51c-0.1-0.02-0.21-0.02-0.33-0.02c-0.43,0-0.73,0.18-0.89,0.56v2.75h-0.66v-3.88h0.65l0.01,0.45
		c0.22-0.35,0.53-0.52,0.92-0.52c0.13,0,0.23,0.02,0.29,0.05V28.51z"/>
	<path class="st0" d="M236.32,30.76c0-0.18-0.07-0.32-0.2-0.42s-0.37-0.18-0.71-0.26c-0.34-0.07-0.6-0.16-0.8-0.26
		s-0.34-0.22-0.44-0.36c-0.09-0.14-0.14-0.3-0.14-0.5c0-0.32,0.13-0.59,0.4-0.81c0.27-0.22,0.61-0.33,1.03-0.33
		c0.44,0,0.8,0.11,1.07,0.34c0.27,0.23,0.41,0.52,0.41,0.87h-0.67c0-0.18-0.08-0.34-0.23-0.47c-0.15-0.13-0.35-0.2-0.58-0.2
		c-0.24,0-0.43,0.05-0.57,0.16c-0.14,0.11-0.2,0.24-0.2,0.41c0,0.16,0.06,0.28,0.19,0.36s0.36,0.16,0.69,0.23s0.6,0.16,0.8,0.26
		c0.21,0.1,0.36,0.23,0.46,0.37c0.1,0.15,0.15,0.32,0.15,0.53c0,0.35-0.14,0.62-0.42,0.83c-0.28,0.21-0.64,0.31-1.08,0.31
		c-0.31,0-0.59-0.06-0.83-0.17c-0.24-0.11-0.43-0.26-0.56-0.46s-0.2-0.41-0.2-0.64h0.66c0.01,0.22,0.1,0.4,0.27,0.53
		c0.17,0.13,0.39,0.2,0.66,0.2c0.25,0,0.45-0.05,0.6-0.15C236.25,31.07,236.32,30.93,236.32,30.76z"/>
	<path class="st0" d="M237.87,31.45c0-0.11,0.03-0.21,0.1-0.29c0.07-0.08,0.17-0.11,0.31-0.11c0.14,0,0.24,0.04,0.31,0.11
		c0.07,0.08,0.11,0.17,0.11,0.29c0,0.11-0.04,0.2-0.11,0.28s-0.17,0.11-0.31,0.11c-0.14,0-0.24-0.04-0.31-0.11
		C237.9,31.65,237.87,31.56,237.87,31.45z"/>
</g>
</svg>
