<?xml version="1.0" encoding="utf-8"?>
<!-- Generator: Adobe Illustrator 25.2.1, SVG Export Plug-In . SVG Version: 6.00 Build 0)  -->
<svg version="1.1" id="Layer_1" xmlns="http://www.w3.org/2000/svg" xmlns:xlink="http://www.w3.org/1999/xlink" x="0px" y="0px"
	 viewBox="0 0 728 90" style="enable-background:new 0 0 728 90;" xml:space="preserve">
<style type="text/css">
	.st0{fill:#021D8B;stroke:url(#SVGID_1_);stroke-width:2;stroke-miterlimit:10;}
	.st1{fill:#FFFFFF;}
</style>
<linearGradient id="SVGID_1_" gradientUnits="userSpaceOnUse" x1="391.1137" y1="45.677" x2="478.155" y2="45.677">
	<stop  offset="0" style="stop-color:#18B9FB"/>
	<stop  offset="0.5" style="stop-color:#782EEB"/>
	<stop  offset="1" style="stop-color:#E82D8A"/>
</linearGradient>
<path class="st0" d="M462.87,59.97H406.4c-7.89,0-14.29-6.4-14.29-14.29v0c0-7.89,6.4-14.29,14.29-14.29h56.46
	c7.89,0,14.29,6.4,14.29,14.29v0C477.15,53.57,470.76,59.97,462.87,59.97z"/>
<g>
	<path class="st1" d="M405.9,47.75h3.22v1.22h-4.74V41.6h1.52V47.75z"/>
	<path class="st1" d="M414.42,45.78h-2.91v1.97h3.42v1.22h-4.94V41.6h4.92v1.23h-3.41v1.75h2.91V45.78z"/>
	<path class="st1" d="M419.97,47.45h-2.66l-0.51,1.52h-1.61l2.74-7.36h1.41l2.76,7.36h-1.61L419.97,47.45z M417.72,46.22h1.84
		l-0.93-2.76L417.72,46.22z"/>
	<path class="st1" d="M425.51,46.27h-1.21v2.7h-1.52V41.6h2.74c0.87,0,1.54,0.19,2.01,0.58s0.71,0.94,0.71,1.64
		c0,0.5-0.11,0.92-0.33,1.26s-0.55,0.6-0.99,0.8l1.59,3.01v0.07h-1.63L425.51,46.27z M424.3,45.04h1.22c0.38,0,0.68-0.1,0.89-0.29
		s0.31-0.46,0.31-0.8c0-0.35-0.1-0.62-0.3-0.82c-0.2-0.2-0.5-0.3-0.91-0.3h-1.22V45.04z"/>
	<path class="st1" d="M435.38,48.97h-1.52l-2.95-4.84v4.84h-1.52V41.6h1.52l2.96,4.85V41.6h1.51V48.97z"/>
	<path class="st1" d="M441.26,41.6l1.89,5.34l1.88-5.34h1.99v7.36h-1.52v-2.01l0.15-3.47l-1.99,5.49h-1.04l-1.98-5.48l0.15,3.47
		v2.01h-1.52V41.6H441.26z"/>
	<path class="st1" d="M454.4,45.45c0,0.72-0.13,1.36-0.38,1.91c-0.26,0.55-0.62,0.97-1.1,1.26c-0.48,0.3-1.02,0.45-1.64,0.45
		c-0.61,0-1.15-0.15-1.63-0.44c-0.48-0.29-0.85-0.71-1.11-1.26c-0.26-0.54-0.4-1.17-0.4-1.88v-0.36c0-0.72,0.13-1.36,0.39-1.91
		c0.26-0.55,0.63-0.97,1.11-1.27c0.48-0.29,1.02-0.44,1.64-0.44c0.61,0,1.16,0.15,1.64,0.44c0.48,0.29,0.85,0.72,1.11,1.27
		c0.26,0.55,0.39,1.19,0.39,1.91V45.45z M452.86,45.12c0-0.77-0.14-1.36-0.42-1.76c-0.28-0.4-0.67-0.6-1.18-0.6
		c-0.51,0-0.9,0.2-1.18,0.59s-0.42,0.98-0.42,1.74v0.36c0,0.75,0.14,1.33,0.42,1.75c0.28,0.42,0.67,0.62,1.19,0.62
		c0.51,0,0.9-0.2,1.17-0.6c0.27-0.4,0.41-0.98,0.42-1.75V45.12z"/>
	<path class="st1" d="M458.23,46.27h-1.21v2.7h-1.52V41.6h2.74c0.87,0,1.54,0.19,2.01,0.58s0.71,0.94,0.71,1.64
		c0,0.5-0.11,0.92-0.33,1.26s-0.55,0.6-0.99,0.8l1.59,3.01v0.07h-1.63L458.23,46.27z M457.02,45.04h1.22c0.38,0,0.68-0.1,0.89-0.29
		s0.31-0.46,0.31-0.8c0-0.35-0.1-0.62-0.3-0.82c-0.2-0.2-0.5-0.3-0.91-0.3h-1.22V45.04z"/>
	<path class="st1" d="M466.54,45.78h-2.91v1.97h3.42v1.22h-4.94V41.6h4.92v1.23h-3.41v1.75h2.91V45.78z"/>
</g>
</svg>
