<?xml version="1.0" encoding="utf-8"?>
<!-- Generator: Adobe Illustrator 25.2.1, SVG Export Plug-In . SVG Version: 6.00 Build 0)  -->
<svg version="1.1" id="Layer_1" xmlns="http://www.w3.org/2000/svg" xmlns:xlink="http://www.w3.org/1999/xlink" x="0px" y="0px"
	 viewBox="0 0 728 90" style="enable-background:new 0 0 728 90;" xml:space="preserve">
<style type="text/css">
	.st0{fill:#021D8B;}
</style>
<g>
	<path class="st0" d="M498.19,35.02c0-0.22-0.08-0.4-0.23-0.55c-0.15-0.15-0.41-0.28-0.77-0.4c-0.5-0.15-0.87-0.35-1.1-0.6
		c-0.23-0.25-0.34-0.56-0.34-0.94c0-0.39,0.11-0.7,0.34-0.95c0.23-0.25,0.54-0.4,0.93-0.44v-0.78h0.53v0.78
		c0.4,0.05,0.71,0.22,0.93,0.5c0.22,0.28,0.33,0.66,0.33,1.14h-0.65c0-0.33-0.08-0.6-0.24-0.8c-0.16-0.2-0.37-0.29-0.64-0.29
		c-0.28,0-0.5,0.07-0.64,0.22c-0.15,0.15-0.22,0.35-0.22,0.61c0,0.24,0.08,0.43,0.24,0.58s0.42,0.27,0.78,0.39s0.64,0.25,0.84,0.39
		s0.35,0.3,0.45,0.49c0.1,0.19,0.14,0.41,0.14,0.66c0,0.4-0.12,0.72-0.36,0.96c-0.24,0.24-0.58,0.39-1.01,0.43v0.68h-0.52v-0.68
		c-0.44-0.04-0.78-0.2-1.03-0.47c-0.25-0.27-0.37-0.64-0.37-1.11h0.66c0,0.33,0.09,0.58,0.26,0.76c0.17,0.18,0.42,0.27,0.73,0.27
		c0.31,0,0.55-0.07,0.73-0.22C498.1,35.48,498.19,35.28,498.19,35.02z"/>
	<path class="st0" d="M501.81,36.35h-0.66v-4.37l-1.32,0.49v-0.59l1.88-0.7h0.1V36.35z"/>
	<path class="st0" d="M506.48,31.59v0.93h0.71v0.51h-0.71v2.38c0,0.15,0.03,0.27,0.1,0.35c0.06,0.08,0.17,0.11,0.33,0.11
		c0.08,0,0.18-0.01,0.31-0.04v0.53c-0.17,0.05-0.34,0.07-0.5,0.07c-0.29,0-0.51-0.09-0.66-0.27c-0.15-0.18-0.22-0.43-0.22-0.75
		v-2.38h-0.7v-0.51h0.7v-0.93H506.48z"/>
	<path class="st0" d="M509.82,33.1c-0.1-0.02-0.21-0.02-0.32-0.02c-0.43,0-0.72,0.18-0.88,0.55v2.72h-0.65v-3.83h0.64l0.01,0.44
		c0.21-0.34,0.52-0.51,0.91-0.51c0.13,0,0.22,0.02,0.29,0.05V33.1z"/>
	<path class="st0" d="M510.42,31.5c0-0.11,0.03-0.2,0.1-0.27c0.06-0.07,0.16-0.11,0.29-0.11c0.13,0,0.22,0.04,0.29,0.11
		c0.07,0.07,0.1,0.16,0.1,0.27c0,0.11-0.03,0.19-0.1,0.27c-0.07,0.07-0.16,0.11-0.29,0.11c-0.13,0-0.22-0.04-0.29-0.11
		C510.45,31.7,510.42,31.61,510.42,31.5z M511.13,36.35h-0.65v-3.83h0.65V36.35z"/>
	<path class="st0" d="M514.54,36.35c-0.04-0.08-0.07-0.21-0.09-0.4c-0.3,0.32-0.67,0.47-1.09,0.47c-0.38,0-0.69-0.11-0.93-0.32
		c-0.24-0.21-0.36-0.48-0.36-0.81c0-0.4,0.15-0.71,0.46-0.93c0.3-0.22,0.73-0.33,1.28-0.33h0.64v-0.3c0-0.23-0.07-0.41-0.21-0.55
		s-0.34-0.2-0.61-0.2c-0.23,0-0.43,0.06-0.59,0.18c-0.16,0.12-0.24,0.26-0.24,0.43h-0.66c0-0.19,0.07-0.38,0.2-0.55
		s0.32-0.32,0.55-0.42c0.23-0.1,0.49-0.16,0.77-0.16c0.44,0,0.79,0.11,1.04,0.33c0.25,0.22,0.38,0.52,0.39,0.91v1.76
		c0,0.35,0.04,0.63,0.13,0.84v0.06H514.54z M513.46,35.85c0.21,0,0.4-0.05,0.58-0.16c0.18-0.11,0.32-0.24,0.4-0.41v-0.79h-0.51
		c-0.8,0-1.2,0.23-1.2,0.7c0,0.21,0.07,0.37,0.21,0.48S513.24,35.85,513.46,35.85z"/>
	<path class="st0" d="M516.83,36.35h-0.65v-5.44h0.65V36.35z"/>
	<path class="st0" d="M520,36.35v-3.33h-0.61v-0.51H520v-0.39c0-0.41,0.11-0.73,0.33-0.95s0.53-0.34,0.93-0.34
		c0.15,0,0.3,0.02,0.45,0.06l-0.04,0.53c-0.11-0.02-0.23-0.03-0.35-0.03c-0.21,0-0.38,0.06-0.49,0.19c-0.12,0.12-0.17,0.3-0.17,0.53
		v0.4h0.82v0.51h-0.82v3.33H520z"/>
	<path class="st0" d="M522.02,34.4c0-0.38,0.07-0.71,0.22-1.01c0.15-0.3,0.35-0.53,0.62-0.69c0.26-0.16,0.56-0.24,0.9-0.24
		c0.52,0,0.94,0.18,1.27,0.54s0.48,0.84,0.48,1.44v0.05c0,0.37-0.07,0.71-0.21,1c-0.14,0.3-0.35,0.53-0.61,0.69
		c-0.27,0.17-0.57,0.25-0.92,0.25c-0.52,0-0.94-0.18-1.26-0.54c-0.32-0.36-0.48-0.84-0.48-1.43V34.4z M522.68,34.48
		c0,0.42,0.1,0.77,0.3,1.02s0.46,0.39,0.79,0.39c0.33,0,0.6-0.13,0.79-0.39c0.2-0.26,0.29-0.63,0.29-1.1c0-0.42-0.1-0.76-0.3-1.02
		c-0.2-0.26-0.46-0.39-0.79-0.39c-0.32,0-0.58,0.13-0.78,0.39S522.68,34,522.68,34.48z"/>
	<path class="st0" d="M528.18,33.1c-0.1-0.02-0.21-0.02-0.32-0.02c-0.43,0-0.72,0.18-0.88,0.55v2.72h-0.65v-3.83h0.64l0.01,0.44
		c0.21-0.34,0.52-0.51,0.91-0.51c0.13,0,0.22,0.02,0.29,0.05V33.1z"/>
	<path class="st0" d="M531.47,31.59v0.93h0.71v0.51h-0.71v2.38c0,0.15,0.03,0.27,0.1,0.35c0.06,0.08,0.17,0.11,0.33,0.11
		c0.08,0,0.18-0.01,0.31-0.04v0.53c-0.17,0.05-0.34,0.07-0.5,0.07c-0.29,0-0.51-0.09-0.66-0.27c-0.15-0.18-0.22-0.43-0.22-0.75
		v-2.38h-0.7v-0.51h0.7v-0.93H531.47z"/>
	<path class="st0" d="M533.6,32.98c0.29-0.36,0.67-0.53,1.13-0.53c0.81,0,1.22,0.46,1.22,1.37v2.53h-0.65v-2.54
		c0-0.28-0.07-0.48-0.19-0.61c-0.12-0.13-0.32-0.2-0.58-0.2c-0.21,0-0.4,0.06-0.56,0.17c-0.16,0.11-0.29,0.26-0.38,0.45v2.73h-0.65
		v-5.44h0.65V32.98z"/>
	<path class="st0" d="M538.53,36.42c-0.52,0-0.94-0.17-1.27-0.51c-0.33-0.34-0.49-0.8-0.49-1.37v-0.12c0-0.38,0.07-0.72,0.22-1.02
		c0.15-0.3,0.35-0.53,0.61-0.7s0.54-0.25,0.85-0.25c0.5,0,0.89,0.16,1.16,0.49c0.28,0.33,0.41,0.8,0.41,1.41v0.27h-2.6
		c0.01,0.38,0.12,0.68,0.33,0.92s0.48,0.35,0.81,0.35c0.23,0,0.43-0.05,0.59-0.14c0.16-0.09,0.3-0.22,0.42-0.38l0.4,0.31
		C539.66,36.17,539.17,36.42,538.53,36.42z M538.45,32.98c-0.26,0-0.49,0.1-0.67,0.29c-0.18,0.19-0.29,0.46-0.33,0.81h1.92v-0.05
		c-0.02-0.33-0.11-0.59-0.27-0.77C538.94,33.08,538.72,32.98,538.45,32.98z"/>
	<path class="st0" d="M542.9,36.35v-3.33h-0.61v-0.51h0.61v-0.39c0-0.41,0.11-0.73,0.33-0.95s0.53-0.34,0.93-0.34
		c0.15,0,0.3,0.02,0.45,0.06l-0.04,0.53c-0.11-0.02-0.23-0.03-0.35-0.03c-0.21,0-0.38,0.06-0.49,0.19c-0.12,0.12-0.17,0.3-0.17,0.53
		v0.4h0.82v0.51h-0.82v3.33H542.9z"/>
	<path class="st0" d="M545.1,31.5c0-0.11,0.03-0.2,0.1-0.27c0.06-0.07,0.16-0.11,0.29-0.11c0.13,0,0.22,0.04,0.29,0.11
		c0.07,0.07,0.1,0.16,0.1,0.27c0,0.11-0.03,0.19-0.1,0.27c-0.07,0.07-0.16,0.11-0.29,0.11c-0.13,0-0.22-0.04-0.29-0.11
		C545.13,31.7,545.1,31.61,545.1,31.5z M545.81,36.35h-0.65v-3.83h0.65V36.35z"/>
	<path class="st0" d="M548.71,33.1c-0.1-0.02-0.21-0.02-0.32-0.02c-0.43,0-0.72,0.18-0.88,0.55v2.72h-0.65v-3.83h0.64l0.01,0.44
		c0.21-0.34,0.52-0.51,0.91-0.51c0.13,0,0.22,0.02,0.29,0.05V33.1z"/>
	<path class="st0" d="M551.54,35.33c0-0.18-0.07-0.31-0.2-0.41c-0.13-0.1-0.37-0.18-0.7-0.25c-0.33-0.07-0.59-0.16-0.79-0.25
		c-0.19-0.1-0.34-0.22-0.43-0.35c-0.09-0.14-0.14-0.3-0.14-0.49c0-0.31,0.13-0.58,0.4-0.8c0.26-0.22,0.6-0.33,1.02-0.33
		c0.43,0,0.79,0.11,1.06,0.34c0.27,0.22,0.41,0.51,0.41,0.86h-0.66c0-0.18-0.08-0.33-0.23-0.46s-0.34-0.19-0.58-0.19
		c-0.24,0-0.42,0.05-0.56,0.16s-0.2,0.24-0.2,0.41c0,0.16,0.06,0.28,0.19,0.36c0.12,0.08,0.35,0.16,0.68,0.23
		c0.33,0.07,0.59,0.16,0.79,0.26s0.35,0.22,0.45,0.37c0.1,0.14,0.15,0.32,0.15,0.52c0,0.34-0.14,0.62-0.41,0.82
		c-0.27,0.21-0.63,0.31-1.07,0.31c-0.31,0-0.58-0.05-0.81-0.16c-0.24-0.11-0.42-0.26-0.55-0.45c-0.13-0.19-0.2-0.41-0.2-0.63h0.66
		c0.01,0.22,0.1,0.39,0.26,0.52c0.16,0.13,0.38,0.19,0.65,0.19c0.25,0,0.45-0.05,0.6-0.15C551.47,35.63,551.54,35.5,551.54,35.33z"
		/>
	<path class="st0" d="M553.94,31.59v0.93h0.71v0.51h-0.71v2.38c0,0.15,0.03,0.27,0.1,0.35c0.06,0.08,0.17,0.11,0.33,0.11
		c0.08,0,0.18-0.01,0.31-0.04v0.53c-0.17,0.05-0.34,0.07-0.5,0.07c-0.29,0-0.51-0.09-0.66-0.27c-0.15-0.18-0.22-0.43-0.22-0.75
		v-2.38h-0.7v-0.51h0.7v-0.93H553.94z"/>
	<path class="st0" d="M559.68,36.35h-1.2v-3.81l-1.18,0.34v-0.91l2.26-0.78h0.11V36.35z"/>
	<path class="st0" d="M564.38,34.33h0.52v0.92h-0.52v1.09h-1.19v-1.09h-1.99l-0.07-0.73l2.06-3.32v-0.01h1.19V34.33z M562.26,34.33
		h0.93v-1.59l-0.07,0.12L562.26,34.33z"/>
	<path class="st0" d="M567.11,34.4c0-0.61,0.13-1.08,0.39-1.43c0.26-0.35,0.63-0.52,1.1-0.52c0.34,0,0.63,0.13,0.86,0.4v-1.94h1.2
		v5.44h-1.07l-0.06-0.41c-0.25,0.32-0.56,0.48-0.93,0.48c-0.46,0-0.82-0.17-1.08-0.52C567.24,35.55,567.11,35.05,567.11,34.4z
		 M568.3,34.48c0,0.68,0.2,1.02,0.6,1.02c0.26,0,0.45-0.11,0.57-0.33v-1.46c-0.11-0.23-0.29-0.34-0.56-0.34
		c-0.37,0-0.57,0.3-0.6,0.89L568.3,34.48z"/>
	<path class="st0" d="M573.5,36.35c-0.04-0.08-0.08-0.19-0.11-0.34c-0.22,0.28-0.53,0.41-0.92,0.41c-0.36,0-0.67-0.11-0.92-0.33
		s-0.38-0.49-0.38-0.82c0-0.42,0.15-0.73,0.46-0.94c0.31-0.21,0.75-0.32,1.34-0.32h0.37v-0.2c0-0.35-0.15-0.53-0.46-0.53
		c-0.28,0-0.42,0.14-0.42,0.42h-1.19c0-0.37,0.16-0.67,0.47-0.9c0.31-0.23,0.72-0.35,1.21-0.35c0.49,0,0.88,0.12,1.16,0.36
		s0.43,0.57,0.44,0.98v1.7c0,0.35,0.06,0.62,0.16,0.81v0.06H573.5z M572.75,35.57c0.15,0,0.27-0.03,0.37-0.1
		c0.1-0.06,0.17-0.14,0.21-0.22v-0.61h-0.35c-0.42,0-0.62,0.19-0.62,0.56c0,0.11,0.04,0.2,0.11,0.26S572.64,35.57,572.75,35.57z"/>
	<path class="st0" d="M576.72,34.68l0.64-2.16h1.28l-1.56,4.47L577,37.15c-0.22,0.5-0.61,0.74-1.18,0.74
		c-0.16,0-0.32-0.02-0.49-0.07v-0.85h0.16c0.17,0,0.3-0.02,0.38-0.07c0.09-0.05,0.15-0.14,0.2-0.26l0.1-0.25l-1.33-3.87h1.28
		L576.72,34.68z"/>
	<path class="st0" d="M580.95,35.27c0-0.1-0.05-0.18-0.16-0.24c-0.11-0.06-0.31-0.12-0.61-0.19c-0.3-0.07-0.54-0.15-0.74-0.26
		c-0.19-0.11-0.34-0.24-0.44-0.39s-0.15-0.33-0.15-0.53c0-0.35,0.15-0.64,0.44-0.87c0.29-0.23,0.67-0.34,1.14-0.34
		c0.5,0,0.91,0.11,1.22,0.34s0.46,0.53,0.46,0.9h-1.2c0-0.31-0.16-0.46-0.49-0.46c-0.12,0-0.23,0.04-0.32,0.1
		c-0.08,0.07-0.13,0.16-0.13,0.26c0,0.11,0.05,0.19,0.16,0.26c0.1,0.07,0.27,0.12,0.5,0.16s0.43,0.09,0.6,0.15
		c0.58,0.2,0.86,0.55,0.86,1.07c0,0.35-0.16,0.63-0.47,0.85c-0.31,0.22-0.71,0.33-1.21,0.33c-0.33,0-0.62-0.06-0.88-0.18
		c-0.26-0.12-0.46-0.28-0.6-0.48c-0.14-0.2-0.22-0.42-0.22-0.64h1.12c0,0.18,0.06,0.31,0.18,0.39c0.11,0.08,0.26,0.12,0.44,0.12
		c0.16,0,0.29-0.03,0.37-0.1C580.91,35.46,580.95,35.38,580.95,35.27z"/>
	<path class="st0" d="M582.8,37.38l-0.37-0.25c0.22-0.31,0.34-0.63,0.35-0.96v-0.59h0.64v0.51c0,0.24-0.06,0.48-0.18,0.72
		C583.12,37.04,582.97,37.23,582.8,37.38z"/>
	<path class="st0" d="M496.44,45.78v2.02h-0.68v-5.16h1.9c0.56,0,1.01,0.14,1.33,0.43c0.32,0.29,0.48,0.67,0.48,1.14
		c0,0.5-0.16,0.89-0.47,1.16c-0.31,0.27-0.76,0.41-1.34,0.41H496.44z M496.44,45.22h1.22c0.36,0,0.64-0.09,0.84-0.26
		c0.19-0.17,0.29-0.42,0.29-0.74c0-0.31-0.1-0.55-0.29-0.74c-0.19-0.18-0.46-0.28-0.8-0.29h-1.26V45.22z"/>
	<path class="st0" d="M500.94,47.8h-0.65v-5.44h0.65V47.8z"/>
	<path class="st0" d="M504.36,47.8c-0.04-0.08-0.07-0.21-0.09-0.4c-0.3,0.32-0.67,0.47-1.09,0.47c-0.38,0-0.69-0.11-0.93-0.32
		c-0.24-0.21-0.36-0.48-0.36-0.81c0-0.4,0.15-0.71,0.46-0.93c0.3-0.22,0.73-0.33,1.28-0.33h0.64v-0.3c0-0.23-0.07-0.41-0.21-0.55
		s-0.34-0.2-0.61-0.2c-0.23,0-0.43,0.06-0.59,0.18c-0.16,0.12-0.24,0.26-0.24,0.43h-0.66c0-0.19,0.07-0.38,0.2-0.55
		s0.32-0.32,0.55-0.42c0.23-0.1,0.49-0.16,0.77-0.16c0.44,0,0.79,0.11,1.04,0.33c0.25,0.22,0.38,0.52,0.39,0.91v1.76
		c0,0.35,0.04,0.63,0.13,0.84v0.06H504.36z M503.27,47.3c0.21,0,0.4-0.05,0.58-0.16c0.18-0.11,0.32-0.24,0.4-0.41v-0.79h-0.51
		c-0.8,0-1.2,0.23-1.2,0.71c0,0.21,0.07,0.37,0.21,0.48C502.88,47.24,503.05,47.3,503.27,47.3z"/>
	<path class="st0" d="M506.55,43.96l0.02,0.48c0.29-0.37,0.67-0.55,1.15-0.55c0.81,0,1.22,0.46,1.22,1.37v2.53h-0.65v-2.54
		c0-0.28-0.07-0.48-0.19-0.61c-0.12-0.13-0.32-0.2-0.58-0.2c-0.21,0-0.4,0.06-0.56,0.17c-0.16,0.11-0.29,0.26-0.38,0.45v2.73h-0.65
		v-3.83H506.55z"/>
	<path class="st0" d="M512.17,46.78c0-0.18-0.07-0.31-0.2-0.41c-0.13-0.1-0.37-0.18-0.7-0.25c-0.33-0.07-0.59-0.16-0.79-0.25
		c-0.19-0.1-0.34-0.22-0.43-0.35c-0.09-0.14-0.14-0.3-0.14-0.49c0-0.31,0.13-0.58,0.4-0.8c0.26-0.22,0.6-0.33,1.02-0.33
		c0.43,0,0.79,0.11,1.06,0.34c0.27,0.22,0.41,0.51,0.41,0.86h-0.66c0-0.18-0.08-0.33-0.23-0.46s-0.34-0.19-0.58-0.19
		c-0.24,0-0.42,0.05-0.56,0.16s-0.2,0.24-0.2,0.41c0,0.16,0.06,0.28,0.19,0.36c0.12,0.08,0.35,0.16,0.68,0.23
		c0.33,0.07,0.59,0.16,0.79,0.26s0.35,0.22,0.45,0.37c0.1,0.14,0.15,0.32,0.15,0.52c0,0.34-0.14,0.62-0.41,0.82
		c-0.27,0.21-0.63,0.31-1.07,0.31c-0.31,0-0.58-0.05-0.81-0.16c-0.24-0.11-0.42-0.26-0.55-0.45c-0.13-0.2-0.2-0.41-0.2-0.63h0.66
		c0.01,0.22,0.1,0.39,0.26,0.52c0.16,0.13,0.38,0.19,0.65,0.19c0.25,0,0.45-0.05,0.6-0.15C512.09,47.08,512.17,46.95,512.17,46.78z"
		/>
	<path class="st0" d="M517.7,46.78c0-0.18-0.07-0.31-0.2-0.41c-0.13-0.1-0.37-0.18-0.7-0.25c-0.33-0.07-0.59-0.16-0.79-0.25
		c-0.19-0.1-0.34-0.22-0.43-0.35c-0.09-0.14-0.14-0.3-0.14-0.49c0-0.31,0.13-0.58,0.4-0.8c0.26-0.22,0.6-0.33,1.02-0.33
		c0.43,0,0.79,0.11,1.06,0.34c0.27,0.22,0.41,0.51,0.41,0.86h-0.66c0-0.18-0.08-0.33-0.23-0.46s-0.34-0.19-0.58-0.19
		c-0.24,0-0.42,0.05-0.56,0.16s-0.2,0.24-0.2,0.41c0,0.16,0.06,0.28,0.19,0.36c0.12,0.08,0.35,0.16,0.68,0.23
		c0.33,0.07,0.59,0.16,0.79,0.26s0.35,0.22,0.45,0.37c0.1,0.14,0.15,0.32,0.15,0.52c0,0.34-0.14,0.62-0.41,0.82
		c-0.27,0.21-0.63,0.31-1.07,0.31c-0.31,0-0.58-0.05-0.81-0.16c-0.24-0.11-0.42-0.26-0.55-0.45c-0.13-0.2-0.2-0.41-0.2-0.63h0.66
		c0.01,0.22,0.1,0.39,0.26,0.52c0.16,0.13,0.38,0.19,0.65,0.19c0.25,0,0.45-0.05,0.6-0.15C517.63,47.08,517.7,46.95,517.7,46.78z"/>
	<path class="st0" d="M520.1,43.04v0.93h0.71v0.51h-0.71v2.38c0,0.15,0.03,0.27,0.1,0.35c0.06,0.08,0.17,0.11,0.33,0.11
		c0.08,0,0.18-0.01,0.31-0.04v0.53c-0.17,0.05-0.34,0.07-0.5,0.07c-0.29,0-0.51-0.09-0.66-0.27c-0.15-0.18-0.22-0.43-0.22-0.75
		v-2.38h-0.7v-0.51h0.7v-0.93H520.1z"/>
	<path class="st0" d="M523.94,47.8c-0.04-0.08-0.07-0.21-0.09-0.4c-0.3,0.32-0.67,0.47-1.09,0.47c-0.38,0-0.69-0.11-0.93-0.32
		c-0.24-0.21-0.36-0.48-0.36-0.81c0-0.4,0.15-0.71,0.46-0.93c0.3-0.22,0.73-0.33,1.28-0.33h0.64v-0.3c0-0.23-0.07-0.41-0.21-0.55
		s-0.34-0.2-0.61-0.2c-0.23,0-0.43,0.06-0.59,0.18c-0.16,0.12-0.24,0.26-0.24,0.43h-0.66c0-0.19,0.07-0.38,0.2-0.55
		s0.32-0.32,0.55-0.42c0.23-0.1,0.49-0.16,0.77-0.16c0.44,0,0.79,0.11,1.04,0.33c0.25,0.22,0.38,0.52,0.39,0.91v1.76
		c0,0.35,0.04,0.63,0.13,0.84v0.06H523.94z M522.86,47.3c0.21,0,0.4-0.05,0.58-0.16c0.18-0.11,0.32-0.24,0.4-0.41v-0.79h-0.51
		c-0.8,0-1.2,0.23-1.2,0.71c0,0.21,0.07,0.37,0.21,0.48C522.46,47.24,522.64,47.3,522.86,47.3z"/>
	<path class="st0" d="M527.38,44.55c-0.1-0.02-0.21-0.02-0.32-0.02c-0.43,0-0.72,0.18-0.88,0.55v2.72h-0.65v-3.83h0.64l0.01,0.44
		c0.21-0.34,0.52-0.51,0.91-0.51c0.13,0,0.22,0.02,0.29,0.05V44.55z"/>
	<path class="st0" d="M529.04,43.04v0.93h0.71v0.51h-0.71v2.38c0,0.15,0.03,0.27,0.1,0.35c0.06,0.08,0.17,0.11,0.33,0.11
		c0.08,0,0.18-0.01,0.31-0.04v0.53c-0.17,0.05-0.34,0.07-0.5,0.07c-0.29,0-0.51-0.09-0.66-0.27c-0.15-0.18-0.22-0.43-0.22-0.75
		v-2.38h-0.7v-0.51h0.7v-0.93H529.04z"/>
	<path class="st0" d="M530.53,42.95c0-0.11,0.03-0.2,0.1-0.27c0.06-0.07,0.16-0.11,0.29-0.11c0.13,0,0.22,0.04,0.29,0.11
		c0.07,0.07,0.1,0.16,0.1,0.27c0,0.11-0.03,0.19-0.1,0.27c-0.07,0.07-0.16,0.11-0.29,0.11c-0.13,0-0.22-0.04-0.29-0.11
		C530.56,43.14,530.53,43.06,530.53,42.95z M531.23,47.8h-0.65v-3.83h0.65V47.8z"/>
	<path class="st0" d="M532.9,43.96l0.02,0.48c0.29-0.37,0.67-0.55,1.15-0.55c0.81,0,1.22,0.46,1.22,1.37v2.53h-0.65v-2.54
		c0-0.28-0.07-0.48-0.19-0.61c-0.12-0.13-0.32-0.2-0.58-0.2c-0.21,0-0.4,0.06-0.56,0.17c-0.16,0.11-0.29,0.26-0.38,0.45v2.73h-0.65
		v-3.83H532.9z"/>
	<path class="st0" d="M536.13,45.85c0-0.6,0.14-1.07,0.41-1.42c0.28-0.35,0.64-0.53,1.1-0.53c0.47,0,0.83,0.17,1.09,0.5l0.03-0.43
		h0.6v3.74c0,0.5-0.15,0.89-0.44,1.17c-0.29,0.29-0.69,0.43-1.18,0.43c-0.28,0-0.55-0.06-0.81-0.18c-0.26-0.12-0.47-0.28-0.61-0.49
		l0.34-0.39c0.28,0.35,0.62,0.52,1.03,0.52c0.32,0,0.57-0.09,0.75-0.27c0.18-0.18,0.27-0.43,0.27-0.76v-0.33
		c-0.26,0.3-0.62,0.45-1.07,0.45c-0.45,0-0.81-0.18-1.09-0.54C536.27,46.96,536.13,46.47,536.13,45.85z M536.79,45.92
		c0,0.43,0.09,0.77,0.26,1.02c0.18,0.25,0.43,0.37,0.74,0.37c0.41,0,0.72-0.19,0.91-0.56V45c-0.2-0.37-0.5-0.55-0.9-0.55
		c-0.32,0-0.57,0.12-0.75,0.37C536.88,45.07,536.79,45.44,536.79,45.92z"/>
	<path class="st0" d="M544.51,47.8c-0.04-0.08-0.07-0.21-0.09-0.4c-0.3,0.32-0.67,0.47-1.09,0.47c-0.38,0-0.69-0.11-0.93-0.32
		c-0.24-0.21-0.36-0.48-0.36-0.81c0-0.4,0.15-0.71,0.46-0.93c0.3-0.22,0.73-0.33,1.28-0.33h0.64v-0.3c0-0.23-0.07-0.41-0.21-0.55
		s-0.34-0.2-0.61-0.2c-0.23,0-0.43,0.06-0.59,0.18c-0.16,0.12-0.24,0.26-0.24,0.43h-0.66c0-0.19,0.07-0.38,0.2-0.55
		s0.32-0.32,0.55-0.42c0.23-0.1,0.49-0.16,0.77-0.16c0.44,0,0.79,0.11,1.04,0.33c0.25,0.22,0.38,0.52,0.39,0.91v1.76
		c0,0.35,0.04,0.63,0.13,0.84v0.06H544.51z M543.43,47.3c0.21,0,0.4-0.05,0.58-0.16c0.18-0.11,0.32-0.24,0.4-0.41v-0.79h-0.51
		c-0.8,0-1.2,0.23-1.2,0.71c0,0.21,0.07,0.37,0.21,0.48C543.03,47.24,543.21,47.3,543.43,47.3z"/>
	<path class="st0" d="M546.98,43.04v0.93h0.71v0.51h-0.71v2.38c0,0.15,0.03,0.27,0.1,0.35c0.06,0.08,0.17,0.11,0.33,0.11
		c0.08,0,0.18-0.01,0.31-0.04v0.53c-0.17,0.05-0.34,0.07-0.5,0.07c-0.29,0-0.51-0.09-0.66-0.27c-0.15-0.18-0.22-0.43-0.22-0.75
		v-2.38h-0.7v-0.51h0.7v-0.93H546.98z"/>
	<path class="st0" d="M552.45,46.43c0-0.19-0.05-0.33-0.14-0.44c-0.09-0.11-0.25-0.21-0.48-0.3c-0.23-0.09-0.45-0.19-0.64-0.29
		c-0.2-0.1-0.36-0.21-0.51-0.34s-0.25-0.27-0.33-0.44c-0.08-0.17-0.11-0.37-0.11-0.61c0-0.4,0.13-0.73,0.4-0.99
		c0.27-0.26,0.63-0.41,1.08-0.45v-0.75h0.56v0.76c0.43,0.06,0.77,0.24,1.02,0.53c0.25,0.29,0.37,0.66,0.37,1.11h-1.2
		c0-0.25-0.05-0.43-0.14-0.57c-0.09-0.13-0.23-0.2-0.4-0.2c-0.16,0-0.28,0.05-0.36,0.15c-0.09,0.1-0.13,0.23-0.13,0.41
		c0,0.17,0.05,0.31,0.15,0.42c0.1,0.1,0.26,0.2,0.48,0.29c0.22,0.09,0.43,0.19,0.62,0.29c0.19,0.1,0.36,0.21,0.5,0.34
		c0.14,0.13,0.25,0.28,0.33,0.45c0.08,0.17,0.12,0.37,0.12,0.61c0,0.4-0.13,0.73-0.38,0.99c-0.26,0.26-0.6,0.4-1.05,0.45v0.71h-0.56
		v-0.71c-0.51-0.05-0.91-0.23-1.18-0.53c-0.27-0.3-0.41-0.69-0.41-1.18h1.19c0,0.27,0.06,0.47,0.18,0.62
		c0.12,0.14,0.29,0.21,0.51,0.21c0.16,0,0.29-0.05,0.38-0.14C552.41,46.73,552.45,46.6,552.45,46.43z"/>
	<path class="st0" d="M556.63,45.8c-0.26,0.23-0.54,0.35-0.86,0.35c-0.47,0-0.84-0.16-1.11-0.48s-0.41-0.74-0.41-1.27
		c0-0.33,0.08-0.64,0.23-0.92c0.15-0.28,0.37-0.51,0.65-0.67c0.28-0.17,0.58-0.25,0.92-0.25c0.34,0,0.65,0.09,0.92,0.26
		c0.28,0.17,0.49,0.41,0.64,0.73c0.15,0.31,0.23,0.67,0.24,1.08v0.46c0,0.57-0.11,1.06-0.33,1.48c-0.22,0.42-0.54,0.74-0.95,0.96
		c-0.41,0.22-0.9,0.34-1.45,0.34h-0.07v-0.96l0.23,0C556.08,46.87,556.53,46.5,556.63,45.8z M556.08,45.29
		c0.26,0,0.45-0.11,0.56-0.34v-0.5c0-0.33-0.05-0.57-0.17-0.73c-0.11-0.16-0.26-0.24-0.45-0.24c-0.17,0-0.31,0.09-0.42,0.27
		c-0.11,0.18-0.17,0.4-0.17,0.65c0,0.27,0.06,0.48,0.17,0.64C555.73,45.21,555.88,45.29,556.08,45.29z"/>
	<path class="st0" d="M559.23,46.64c0.19,0,0.35,0.06,0.47,0.17c0.12,0.11,0.19,0.26,0.19,0.43c0,0.18-0.06,0.32-0.19,0.43
		s-0.28,0.17-0.47,0.17c-0.19,0-0.35-0.06-0.47-0.17s-0.19-0.26-0.19-0.43c0-0.17,0.06-0.31,0.19-0.43S559.04,46.64,559.23,46.64z"
		/>
	<path class="st0" d="M563.02,45.8c-0.26,0.23-0.54,0.35-0.86,0.35c-0.47,0-0.84-0.16-1.11-0.48s-0.41-0.74-0.41-1.27
		c0-0.33,0.08-0.64,0.23-0.92c0.15-0.28,0.37-0.51,0.65-0.67c0.28-0.17,0.58-0.25,0.92-0.25c0.34,0,0.65,0.09,0.92,0.26
		c0.28,0.17,0.49,0.41,0.64,0.73c0.15,0.31,0.23,0.67,0.24,1.08v0.46c0,0.57-0.11,1.06-0.33,1.48c-0.22,0.42-0.54,0.74-0.95,0.96
		c-0.41,0.22-0.9,0.34-1.45,0.34h-0.07v-0.96l0.23,0C562.47,46.87,562.93,46.5,563.02,45.8z M562.48,45.29
		c0.26,0,0.45-0.11,0.56-0.34v-0.5c0-0.33-0.05-0.57-0.17-0.73c-0.11-0.16-0.26-0.24-0.45-0.24c-0.17,0-0.31,0.09-0.42,0.27
		c-0.11,0.18-0.17,0.4-0.17,0.65c0,0.27,0.06,0.48,0.17,0.64C562.12,45.21,562.28,45.29,562.48,45.29z"/>
	<path class="st0" d="M567.22,45.8c-0.26,0.23-0.54,0.35-0.86,0.35c-0.47,0-0.84-0.16-1.11-0.48s-0.41-0.74-0.41-1.27
		c0-0.33,0.08-0.64,0.23-0.92c0.15-0.28,0.37-0.51,0.65-0.67c0.28-0.17,0.58-0.25,0.92-0.25c0.34,0,0.65,0.09,0.92,0.26
		c0.28,0.17,0.49,0.41,0.64,0.73c0.15,0.31,0.23,0.67,0.24,1.08v0.46c0,0.57-0.11,1.06-0.33,1.48c-0.22,0.42-0.54,0.74-0.95,0.96
		c-0.41,0.22-0.9,0.34-1.45,0.34h-0.07v-0.96l0.23,0C566.67,46.87,567.12,46.5,567.22,45.8z M566.68,45.29
		c0.26,0,0.45-0.11,0.56-0.34v-0.5c0-0.33-0.05-0.57-0.17-0.73c-0.11-0.16-0.26-0.24-0.45-0.24c-0.17,0-0.31,0.09-0.42,0.27
		c-0.11,0.18-0.17,0.4-0.17,0.65c0,0.27,0.06,0.48,0.17,0.64C566.32,45.21,566.47,45.29,566.68,45.29z"/>
	<path class="st0" d="M496.54,54.49v0.93h0.72v0.51h-0.72v2.38c0,0.15,0.03,0.27,0.1,0.35c0.06,0.08,0.17,0.12,0.33,0.12
		c0.08,0,0.18-0.01,0.31-0.04v0.53c-0.17,0.05-0.34,0.07-0.5,0.07c-0.29,0-0.51-0.09-0.66-0.27s-0.22-0.43-0.22-0.75v-2.38h-0.7
		v-0.51h0.7v-0.93H496.54z"/>
	<path class="st0" d="M497.78,57.29c0-0.38,0.07-0.71,0.22-1.01s0.35-0.53,0.62-0.69c0.26-0.16,0.56-0.24,0.9-0.24
		c0.52,0,0.94,0.18,1.27,0.54s0.48,0.84,0.48,1.44v0.04c0,0.37-0.07,0.71-0.21,1c-0.14,0.3-0.35,0.53-0.61,0.69
		s-0.57,0.25-0.92,0.25c-0.52,0-0.94-0.18-1.26-0.54s-0.48-0.84-0.48-1.43V57.29z M498.44,57.37c0,0.43,0.1,0.77,0.3,1.02
		c0.2,0.26,0.46,0.39,0.79,0.39c0.33,0,0.6-0.13,0.79-0.39c0.2-0.26,0.29-0.63,0.29-1.1c0-0.42-0.1-0.76-0.3-1.02
		s-0.46-0.39-0.79-0.39c-0.32,0-0.58,0.13-0.78,0.39C498.54,56.52,498.44,56.89,498.44,57.37z"/>
	<path class="st0" d="M506.18,57.89c0-0.19-0.05-0.35-0.16-0.46s-0.29-0.22-0.55-0.32c-0.26-0.1-0.48-0.19-0.67-0.29
		s-0.35-0.21-0.48-0.33c-0.13-0.12-0.24-0.27-0.31-0.44s-0.11-0.37-0.11-0.6c0-0.4,0.13-0.73,0.38-0.98s0.59-0.4,1.02-0.45v-0.76
		h0.57v0.77c0.42,0.06,0.74,0.23,0.98,0.52s0.35,0.66,0.35,1.12h-1.02c0-0.28-0.06-0.5-0.17-0.64c-0.12-0.14-0.27-0.21-0.47-0.21
		c-0.19,0-0.34,0.06-0.45,0.17c-0.11,0.11-0.16,0.26-0.16,0.46c0,0.18,0.05,0.32,0.16,0.43c0.1,0.11,0.3,0.22,0.58,0.33
		s0.51,0.22,0.7,0.32c0.18,0.1,0.33,0.21,0.46,0.34c0.12,0.13,0.22,0.27,0.29,0.43c0.07,0.16,0.1,0.35,0.1,0.57
		c0,0.4-0.12,0.73-0.38,0.98c-0.25,0.25-0.59,0.4-1.03,0.44v0.71h-0.56v-0.7c-0.48-0.05-0.86-0.22-1.12-0.52
		c-0.27-0.29-0.4-0.68-0.4-1.16h1.02c0,0.28,0.07,0.5,0.2,0.65c0.13,0.15,0.33,0.22,0.58,0.22c0.21,0,0.37-0.05,0.49-0.17
		S506.18,58.08,506.18,57.89z"/>
	<path class="st0" d="M511.43,59.24h-3.53v-0.7l1.67-1.78c0.23-0.25,0.4-0.47,0.51-0.66c0.11-0.19,0.16-0.36,0.16-0.53
		c0-0.23-0.06-0.41-0.17-0.54c-0.12-0.13-0.28-0.2-0.5-0.2c-0.23,0-0.41,0.08-0.55,0.24c-0.13,0.16-0.2,0.37-0.2,0.63h-1.03
		c0-0.31,0.07-0.6,0.22-0.86c0.15-0.26,0.36-0.46,0.64-0.61c0.27-0.15,0.58-0.22,0.93-0.22c0.53,0,0.94,0.13,1.24,0.38
		s0.44,0.61,0.44,1.08c0,0.25-0.07,0.51-0.2,0.78c-0.13,0.26-0.36,0.57-0.68,0.92l-1.17,1.24h2.22V59.24z"/>
	<path class="st0" d="M515.08,57.3h0.58v0.82h-0.58v1.12h-1.02v-1.12h-2.11l-0.05-0.64l2.15-3.39h1.03V57.3z M512.92,57.3h1.14
		v-1.82l-0.07,0.12L512.92,57.3z"/>
	<path class="st0" d="M516.31,58.74c0-0.16,0.05-0.29,0.16-0.4c0.11-0.1,0.25-0.15,0.41-0.15c0.17,0,0.31,0.05,0.42,0.15
		c0.11,0.1,0.16,0.23,0.16,0.4c0,0.16-0.05,0.29-0.16,0.39c-0.11,0.1-0.25,0.15-0.42,0.15c-0.17,0-0.31-0.05-0.41-0.15
		C516.37,59.03,516.31,58.9,516.31,58.74z"/>
	<path class="st0" d="M520.72,57.18c-0.27,0.26-0.58,0.39-0.93,0.39c-0.46,0-0.82-0.16-1.09-0.47c-0.27-0.31-0.41-0.73-0.41-1.27
		c0-0.34,0.07-0.65,0.22-0.93s0.35-0.5,0.62-0.66c0.26-0.16,0.56-0.23,0.89-0.23c0.34,0,0.64,0.08,0.91,0.25
		c0.26,0.17,0.47,0.42,0.62,0.73c0.15,0.32,0.22,0.68,0.22,1.09v0.38c0,0.86-0.21,1.53-0.64,2.03c-0.43,0.49-1.03,0.75-1.82,0.79
		l-0.25,0v-0.85l0.23,0C520.16,58.4,520.64,57.98,520.72,57.18z M520.03,56.79c0.17,0,0.31-0.04,0.43-0.13
		c0.12-0.09,0.21-0.19,0.27-0.31v-0.42c0-0.35-0.07-0.62-0.2-0.81s-0.31-0.29-0.53-0.29c-0.21,0-0.37,0.09-0.51,0.28
		c-0.13,0.19-0.2,0.42-0.2,0.71c0,0.28,0.06,0.51,0.19,0.69C519.62,56.71,519.8,56.79,520.03,56.79z"/>
	<path class="st0" d="M524.88,57.18c-0.27,0.26-0.58,0.39-0.93,0.39c-0.46,0-0.82-0.16-1.09-0.47c-0.27-0.31-0.41-0.73-0.41-1.27
		c0-0.34,0.07-0.65,0.22-0.93s0.35-0.5,0.62-0.66c0.26-0.16,0.56-0.23,0.89-0.23c0.34,0,0.64,0.08,0.91,0.25
		c0.26,0.17,0.47,0.42,0.62,0.73c0.15,0.32,0.22,0.68,0.22,1.09v0.38c0,0.86-0.21,1.53-0.64,2.03c-0.43,0.49-1.03,0.75-1.82,0.79
		l-0.25,0v-0.85l0.23,0C524.32,58.4,524.8,57.98,524.88,57.18z M524.19,56.79c0.17,0,0.31-0.04,0.43-0.13
		c0.12-0.09,0.21-0.19,0.27-0.31v-0.42c0-0.35-0.07-0.62-0.2-0.81s-0.31-0.29-0.53-0.29c-0.21,0-0.37,0.09-0.51,0.28
		c-0.13,0.19-0.2,0.42-0.2,0.71c0,0.28,0.06,0.51,0.19,0.69C523.78,56.71,523.96,56.79,524.19,56.79z"/>
	<path class="st0" d="M526.92,59.69h-0.56l2.15-5.6h0.56L526.92,59.69z"/>
	<path class="st0" d="M530.39,55.41l0.02,0.42c0.28-0.33,0.66-0.5,1.14-0.5c0.54,0,0.9,0.21,1.09,0.62c0.13-0.18,0.29-0.33,0.5-0.45
		s0.45-0.17,0.72-0.17c0.84,0,1.27,0.44,1.28,1.33v2.57h-0.65v-2.53c0-0.27-0.06-0.48-0.19-0.61s-0.34-0.2-0.63-0.2
		c-0.24,0-0.44,0.07-0.61,0.22c-0.16,0.14-0.25,0.34-0.28,0.59v2.54h-0.66v-2.51c0-0.56-0.27-0.84-0.82-0.84
		c-0.43,0-0.72,0.18-0.88,0.55v2.8h-0.66v-3.83H530.39z"/>
	<path class="st0" d="M535.96,57.29c0-0.38,0.07-0.71,0.22-1.01s0.35-0.53,0.62-0.69c0.26-0.16,0.56-0.24,0.9-0.24
		c0.52,0,0.94,0.18,1.27,0.54s0.48,0.84,0.48,1.44v0.04c0,0.37-0.07,0.71-0.21,1c-0.14,0.3-0.35,0.53-0.61,0.69
		s-0.57,0.25-0.92,0.25c-0.52,0-0.94-0.18-1.26-0.54s-0.48-0.84-0.48-1.43V57.29z M536.62,57.37c0,0.43,0.1,0.77,0.3,1.02
		c0.2,0.26,0.46,0.39,0.79,0.39c0.33,0,0.6-0.13,0.79-0.39c0.2-0.26,0.29-0.63,0.29-1.1c0-0.42-0.1-0.76-0.3-1.02
		s-0.46-0.39-0.79-0.39c-0.32,0-0.58,0.13-0.78,0.39C536.72,56.52,536.62,56.89,536.62,57.37z"/>
	<path class="st0" d="M540.89,55.41l0.02,0.48c0.29-0.37,0.67-0.55,1.15-0.55c0.81,0,1.22,0.46,1.23,1.37v2.53h-0.66v-2.53
		c0-0.28-0.07-0.48-0.19-0.61c-0.12-0.13-0.32-0.2-0.58-0.2c-0.21,0-0.4,0.06-0.56,0.17c-0.16,0.11-0.29,0.26-0.38,0.45v2.73h-0.65
		v-3.83H540.89z"/>
	<path class="st0" d="M545.16,54.49v0.93h0.72v0.51h-0.72v2.38c0,0.15,0.03,0.27,0.1,0.35c0.06,0.08,0.17,0.12,0.33,0.12
		c0.08,0,0.18-0.01,0.31-0.04v0.53c-0.17,0.05-0.34,0.07-0.5,0.07c-0.29,0-0.51-0.09-0.66-0.27s-0.22-0.43-0.22-0.75v-2.38h-0.7
		v-0.51h0.7v-0.93H545.16z"/>
	<path class="st0" d="M547.29,55.88c0.29-0.36,0.67-0.53,1.13-0.53c0.81,0,1.22,0.46,1.23,1.37v2.53h-0.66v-2.53
		c0-0.28-0.07-0.48-0.19-0.61c-0.12-0.13-0.32-0.2-0.58-0.2c-0.21,0-0.4,0.06-0.56,0.17c-0.16,0.11-0.29,0.26-0.38,0.45v2.73h-0.65
		v-5.44h0.65V55.88z"/>
</g>
</svg>
