<svg id="Layer_1" xmlns="http://www.w3.org/2000/svg" viewBox="0 0 300 600"><style>.st0{fill:#021d8b}.st1{fill:#e82d8a}</style><path class="st0" d="M60.01 404l2.12-11.59h4.42l-3.92 18.48H58l-2.48-10.54-2.42 10.55h-4.6l-3.94-18.48h4.43L51.11 404l2.54-11.59h3.78L60.01 404zM74.74 411.15c-2.11 0-3.81-.63-5.12-1.89s-1.96-2.89-1.96-4.91V404c0-1.41.26-2.65.78-3.72a5.7 5.7 0 0 1 2.28-2.5c1-.59 2.18-.88 3.55-.88 1.93 0 3.45.6 4.57 1.8 1.12 1.2 1.68 2.87 1.68 5.01v1.66h-8.51c.15.77.49 1.38 1 1.82.52.44 1.18.66 2.01.66 1.35 0 2.41-.47 3.17-1.42l1.96 2.31c-.53.74-1.29 1.32-2.27 1.76-.96.43-2.02.65-3.14.65zm-.49-10.94c-1.25 0-2 .83-2.23 2.49h4.32v-.33c.02-.69-.16-1.22-.52-1.59-.37-.39-.89-.57-1.57-.57zM84.46 393.45l-.42 5.24h-2.63v-7.3h3.05v2.06zM90.59 410.9H86.3v-19.5h4.29v19.5zM97.74 410.9h-4.29v-19.5h4.29v19.5zM110.89 397.16l.14 1.61c.97-1.24 2.28-1.87 3.92-1.87 1.74 0 2.91.69 3.52 2.07.93-1.38 2.28-2.07 4.04-2.07 2.78 0 4.21 1.68 4.29 5.05v8.94h-4.29v-8.67c0-.7-.12-1.21-.36-1.54-.24-.32-.67-.48-1.29-.48-.85 0-1.48.38-1.89 1.13l.01.18v9.38h-4.29v-8.65c0-.72-.11-1.24-.34-1.56-.23-.32-.66-.48-1.31-.48-.82 0-1.45.38-1.88 1.13v9.56h-4.28v-13.74h4.01zM128.71 403.9c0-1.37.27-2.59.8-3.66.53-1.07 1.3-1.89 2.3-2.47 1-.58 2.17-.86 3.52-.86 2.06 0 3.68.64 4.86 1.91 1.18 1.27 1.78 3.01 1.78 5.2v.15c0 2.14-.59 3.84-1.78 5.1-1.19 1.26-2.8 1.89-4.83 1.89-1.96 0-3.53-.59-4.71-1.76-1.18-1.17-1.82-2.76-1.92-4.77l-.02-.73zm4.27.27c0 1.27.2 2.2.6 2.79.4.59.99.89 1.76.89 1.52 0 2.3-1.17 2.34-3.52v-.43c0-2.46-.79-3.69-2.36-3.69-1.43 0-2.21 1.06-2.32 3.19l-.02.77zM147.77 397.16l.14 1.61c.95-1.24 2.26-1.87 3.92-1.87 1.43 0 2.5.43 3.21 1.28.71.85 1.07 2.14 1.1 3.86v8.85h-4.29v-8.67c0-.69-.14-1.2-.42-1.53-.28-.33-.79-.49-1.52-.49-.84 0-1.46.33-1.87.99v9.7h-4.28v-13.74h4.01zM158.48 393.62c0-.61.22-1.11.66-1.5.44-.39 1.01-.58 1.71-.58s1.27.19 1.71.58c.44.39.66.89.66 1.5s-.22 1.11-.66 1.5c-.44.39-1.01.58-1.71.58s-1.27-.2-1.71-.58c-.44-.39-.66-.89-.66-1.5zm4.54 17.28h-4.29v-13.74h4.29v13.74zM170.64 393.74v3.42h2.26v2.97h-2.26v6.28c0 .52.09.88.28 1.08s.55.3 1.1.3c.42 0 .78-.03 1.07-.08v3.06c-.77.25-1.57.37-2.41.37-1.47 0-2.56-.35-3.26-1.04-.7-.69-1.05-1.75-1.05-3.16v-6.82h-1.75v-2.97h1.75v-3.42h4.27zM173.66 403.9c0-1.37.27-2.59.8-3.66.53-1.07 1.3-1.89 2.3-2.47 1-.58 2.17-.86 3.52-.86 2.06 0 3.68.64 4.86 1.91 1.18 1.27 1.78 3.01 1.78 5.2v.15c0 2.14-.59 3.84-1.78 5.1-1.19 1.26-2.8 1.89-4.83 1.89-1.96 0-3.53-.59-4.71-1.76-1.18-1.17-1.82-2.76-1.92-4.77l-.02-.73zm4.28.27c0 1.27.2 2.2.6 2.79.4.59.99.89 1.76.89 1.52 0 2.3-1.17 2.34-3.52v-.43c0-2.46-.79-3.69-2.36-3.69-1.43 0-2.21 1.06-2.32 3.19l-.02.77zM197.11 401.03l-1.41-.1c-1.35 0-2.21.42-2.59 1.27v8.7h-4.28v-13.74h4.01l.14 1.76c.72-1.35 1.72-2.02 3.01-2.02.46 0 .85.05 1.19.15l-.07 3.98zM210.62 404.9l2.29-7.74h4.58l-5.6 16.03-.24.58c-.8 1.78-2.2 2.67-4.21 2.67-.56 0-1.15-.08-1.76-.25v-3.05h.56c.6 0 1.06-.09 1.38-.26.32-.17.55-.49.7-.93l.34-.92-4.77-13.87h4.57l2.16 7.74zM218.05 403.9c0-1.37.27-2.59.8-3.66.53-1.07 1.3-1.89 2.3-2.47 1-.58 2.17-.86 3.52-.86 2.06 0 3.68.64 4.86 1.91 1.18 1.27 1.78 3.01 1.78 5.2v.15c0 2.14-.59 3.84-1.78 5.1-1.19 1.26-2.8 1.89-4.83 1.89-1.96 0-3.53-.59-4.71-1.76-1.18-1.17-1.82-2.76-1.92-4.77l-.02-.73zm4.28.27c0 1.27.2 2.2.6 2.79.4.59.99.89 1.76.89 1.52 0 2.3-1.17 2.34-3.52v-.43c0-2.46-.79-3.69-2.36-3.69-1.43 0-2.21 1.06-2.32 3.19l-.02.77zM241.38 409.41c-.91 1.16-2.13 1.74-3.67 1.74-1.51 0-2.65-.44-3.42-1.31-.77-.88-1.16-2.13-1.16-3.78v-8.9h4.28v8.92c0 1.18.57 1.76 1.71 1.76.98 0 1.68-.35 2.09-1.05v-9.64h4.3v13.74h-4.01l-.12-1.48zM256.17 401.03l-1.41-.1c-1.35 0-2.21.42-2.59 1.27v8.7h-4.28v-13.74h4.01l.14 1.76c.72-1.35 1.72-2.02 3.01-2.02.46 0 .85.05 1.19.15l-.07 3.98z"/><path class="st1" d="M78.96 435.34c0 2.25-.47 3.98-1.4 5.19-.93 1.21-2.24 1.82-3.94 1.82-1.4 0-2.52-.55-3.38-1.66l-.18 1.41h-3.83v-19.5h4.28v6.87c.8-.91 1.82-1.36 3.08-1.36 1.71 0 3.03.61 3.96 1.84.93 1.23 1.4 2.95 1.4 5.18v.21zm-4.29-.27c0-1.32-.18-2.26-.53-2.82-.35-.56-.89-.84-1.62-.84-.96 0-1.63.37-2.01 1.1v5.45c.36.73 1.04 1.09 2.03 1.09 1.01 0 1.65-.49 1.92-1.47.15-.48.21-1.32.21-2.51zM88.59 442.1c-.15-.28-.29-.69-.41-1.23-.79.99-1.89 1.49-3.3 1.49-1.29 0-2.4-.39-3.3-1.17-.91-.78-1.36-1.77-1.36-2.95 0-1.49.55-2.62 1.65-3.38s2.7-1.14 4.8-1.14h1.32v-.73c0-1.27-.55-1.9-1.64-1.9-1.02 0-1.52.5-1.52 1.5h-4.28c0-1.33.57-2.4 1.69-3.23 1.13-.83 2.57-1.24 4.32-1.24s3.14.43 4.15 1.28c1.02.85 1.54 2.03 1.56 3.52V439c.02 1.26.21 2.23.58 2.89v.22h-4.26zm-2.68-2.8c.53 0 .98-.11 1.33-.34.35-.23.6-.49.75-.77v-2.2h-1.24c-1.49 0-2.23.67-2.23 2.01 0 .39.13.7.39.95s.59.35 1 .35zM98.58 428.36l.14 1.61c.95-1.24 2.26-1.87 3.92-1.87 1.43 0 2.5.43 3.21 1.28.71.85 1.07 2.14 1.1 3.86v8.85h-4.29v-8.67c0-.69-.14-1.2-.42-1.53-.28-.33-.79-.49-1.52-.49-.84 0-1.46.33-1.87.99v9.7h-4.28v-13.74h4.01zM114.83 436.98l-1.21 1.21v3.91h-4.28v-19.51h4.28v10.36l.43-.57 3.22-4.01h5.13l-4.81 5.65 5.13 8.09h-4.9l-2.99-5.13zM137.74 442.1c-.15-.28-.29-.69-.41-1.23-.79.99-1.89 1.49-3.3 1.49-1.29 0-2.4-.39-3.3-1.17-.91-.78-1.36-1.77-1.36-2.95 0-1.49.55-2.62 1.65-3.38s2.7-1.14 4.8-1.14h1.32v-.73c0-1.27-.55-1.9-1.64-1.9-1.02 0-1.52.5-1.52 1.5h-4.28c0-1.33.57-2.4 1.69-3.23 1.13-.83 2.57-1.24 4.32-1.24s3.14.43 4.15 1.28c1.02.85 1.54 2.03 1.56 3.52V439c.02 1.26.21 2.23.58 2.89v.22h-4.26zm-2.67-2.8c.53 0 .98-.11 1.33-.34.35-.23.6-.49.75-.77v-2.2h-1.24c-1.49 0-2.23.67-2.23 2.01 0 .39.13.7.39.95s.59.35 1 .35zM149.61 439.05c.6 0 1.07-.16 1.4-.49.33-.33.49-.78.48-1.36h4.01c0 1.51-.54 2.74-1.62 3.71-1.08.96-2.47 1.45-4.17 1.45-2 0-3.57-.63-4.72-1.88s-1.73-2.99-1.73-5.21v-.18c0-1.39.26-2.61.77-3.68.51-1.06 1.25-1.88 2.22-2.45s2.11-.86 3.43-.86c1.79 0 3.2.5 4.25 1.49s1.57 2.33 1.57 4.02h-4.01c0-.71-.17-1.26-.52-1.64s-.81-.57-1.4-.57c-1.11 0-1.76.71-1.94 2.12-.06.45-.09 1.07-.09 1.85 0 1.38.17 2.34.5 2.87s.85.81 1.57.81zM163.12 439.05c.6 0 1.07-.16 1.4-.49.33-.33.49-.78.48-1.36h4.01c0 1.51-.54 2.74-1.62 3.71-1.08.96-2.47 1.45-4.17 1.45-2 0-3.57-.63-4.72-1.88s-1.73-2.99-1.73-5.21v-.18c0-1.39.26-2.61.77-3.68.51-1.06 1.25-1.88 2.22-2.45s2.11-.86 3.43-.86c1.79 0 3.2.5 4.25 1.49s1.57 2.33 1.57 4.02H165c0-.71-.17-1.26-.52-1.64s-.81-.57-1.4-.57c-1.11 0-1.76.71-1.94 2.12-.06.45-.09 1.07-.09 1.85 0 1.38.17 2.34.5 2.87s.85.81 1.57.81zM170.28 435.1c0-1.37.27-2.59.8-3.66.53-1.07 1.3-1.89 2.3-2.47 1-.58 2.17-.86 3.52-.86 2.06 0 3.68.64 4.86 1.91 1.18 1.27 1.78 3.01 1.78 5.2v.15c0 2.14-.59 3.84-1.78 5.1-1.19 1.26-2.8 1.89-4.83 1.89-1.96 0-3.53-.59-4.71-1.76-1.18-1.17-1.82-2.76-1.92-4.77l-.02-.73zm4.28.27c0 1.27.2 2.2.6 2.79.4.59.99.89 1.76.89 1.52 0 2.3-1.17 2.34-3.52v-.43c0-2.46-.79-3.69-2.36-3.69-1.43 0-2.21 1.06-2.32 3.19l-.02.77zM193.6 440.61c-.91 1.16-2.13 1.74-3.67 1.74-1.51 0-2.65-.44-3.42-1.31-.77-.88-1.16-2.13-1.16-3.78v-8.9h4.28v8.92c0 1.18.57 1.76 1.71 1.76.98 0 1.68-.35 2.09-1.05v-9.64h4.3v13.74h-4.01l-.12-1.48zM204.01 428.36l.14 1.61c.95-1.24 2.26-1.87 3.92-1.87 1.43 0 2.5.43 3.21 1.28.71.85 1.07 2.14 1.1 3.86v8.85h-4.29v-8.67c0-.69-.14-1.2-.42-1.53-.28-.33-.79-.49-1.52-.49-.84 0-1.46.33-1.87.99v9.7H200v-13.74h4.01zM219.73 424.94v3.42h2.26v2.97h-2.26v6.28c0 .52.09.88.28 1.08s.55.3 1.1.3c.42 0 .78-.03 1.07-.08v3.06c-.77.25-1.57.37-2.41.37-1.47 0-2.56-.35-3.26-1.04-.7-.69-1.05-1.75-1.05-3.16v-6.82h-1.75v-2.97h1.75v-3.42h4.27zM230.86 438.24c0-.36-.19-.66-.57-.88-.38-.22-1.1-.45-2.17-.69-1.07-.24-1.95-.55-2.64-.93-.69-.38-1.22-.85-1.59-1.4a3.38 3.38 0 0 1-.55-1.89c0-1.26.52-2.3 1.56-3.12 1.04-.82 2.4-1.22 4.09-1.22 1.81 0 3.27.41 4.37 1.23 1.1.82 1.65 1.9 1.65 3.24h-4.29c0-1.1-.58-1.65-1.74-1.65-.45 0-.83.12-1.13.37-.3.25-.46.56-.46.93 0 .38.19.69.56.93.37.24.97.43 1.78.58.82.15 1.53.33 2.15.55 2.07.71 3.1 1.98 3.1 3.82 0 1.25-.56 2.27-1.67 3.06-1.11.79-2.55 1.18-4.32 1.18-1.18 0-2.23-.21-3.15-.63-.92-.42-1.64-1-2.16-1.73-.52-.73-.77-1.49-.77-2.3h4c.02.63.23 1.1.63 1.39s.93.44 1.56.44c.58 0 1.02-.12 1.31-.36.31-.23.45-.54.45-.92z"/></svg>