<svg id="Layer_1" xmlns="http://www.w3.org/2000/svg" viewBox="0 0 160 600"><style>.st0{fill:#021d8b}</style><path class="st0" d="M23.33 221.34h-3.76V205.7h3.76v15.64zM25.33 215.44c0-1.84.4-3.29 1.19-4.35.79-1.06 1.91-1.59 3.33-1.59 1.04 0 1.91.41 2.62 1.22v-5.89h3.63v16.5h-3.25l-.18-1.25c-.75.97-1.69 1.46-2.84 1.46-1.38 0-2.48-.53-3.29-1.59-.81-1.04-1.21-2.55-1.21-4.51zm3.62.23c0 2.06.6 3.09 1.8 3.09.8 0 1.38-.34 1.72-1.01v-4.43c-.33-.69-.9-1.03-1.7-1.03-1.12 0-1.72.9-1.82 2.71v.67zM43.78 221.56c-1.78 0-3.23-.53-4.33-1.6s-1.65-2.45-1.65-4.15v-.3c0-1.19.22-2.24.66-3.15.44-.91 1.08-1.61 1.93-2.11.84-.5 1.85-.75 3.01-.75 1.63 0 2.92.51 3.87 1.52.95 1.01 1.42 2.43 1.42 4.24v1.41h-7.2c.13.65.41 1.16.85 1.54.44.37 1 .56 1.7.56 1.15 0 2.04-.4 2.69-1.2l1.65 1.96c-.45.62-1.09 1.12-1.92 1.49-.83.35-1.72.54-2.68.54zm-.4-9.26c-1.06 0-1.69.7-1.89 2.11h3.65v-.28c.01-.58-.13-1.03-.44-1.35-.31-.32-.75-.48-1.32-.48zM53.46 209.72l.12 1.36c.8-1.05 1.91-1.58 3.32-1.58 1.21 0 2.11.36 2.71 1.08.6.72.91 1.81.93 3.27v7.49h-3.63V214c0-.59-.12-1.02-.35-1.29-.24-.28-.67-.41-1.29-.41-.71 0-1.24.28-1.58.84v8.21h-3.62v-11.62h3.39zM66.76 206.83v2.89h1.91v2.51h-1.91v5.32c0 .44.08.74.24.91s.47.26.93.26c.36 0 .66-.02.9-.06v2.59c-.65.21-1.33.31-2.04.31-1.25 0-2.17-.29-2.76-.88-.59-.59-.89-1.48-.89-2.67v-5.77h-1.48v-2.51h1.48v-2.89h3.62zM70.07 206.72c0-.52.19-.94.56-1.27.37-.33.86-.49 1.45-.49s1.08.17 1.45.49c.37.33.56.75.56 1.27s-.19.94-.56 1.27c-.37.33-.86.49-1.45.49s-1.08-.16-1.45-.49c-.37-.33-.56-.75-.56-1.27zm3.85 14.62h-3.63v-11.62h3.63v11.62zM80.36 206.83v2.89h1.91v2.51h-1.91v5.32c0 .44.08.74.24.91s.47.26.94.26c.36 0 .66-.02.9-.06v2.59c-.65.21-1.33.31-2.04.31-1.25 0-2.17-.29-2.76-.88-.59-.59-.89-1.48-.89-2.67v-5.77h-1.48v-2.51h1.48v-2.89h3.61zM88.34 216.27l1.93-6.55h3.88l-4.74 13.57-.2.49c-.67 1.5-1.86 2.26-3.57 2.26-.47 0-.97-.07-1.49-.21v-2.58h.47c.51 0 .9-.07 1.17-.22.27-.15.47-.41.6-.79l.29-.77-4.04-11.74h3.87l1.83 6.54zM104.79 206.83v2.89h1.91v2.51h-1.91v5.32c0 .44.08.74.24.91s.47.26.93.26c.36 0 .66-.02.9-.06v2.59c-.65.21-1.33.31-2.04.31-1.25 0-2.17-.29-2.76-.88-.59-.59-.89-1.48-.89-2.67v-5.77h-1.48v-2.51h1.48v-2.89h3.62zM111.67 210.97c.77-.97 1.76-1.46 2.96-1.46 1.28 0 2.25.38 2.9 1.14.65.76.98 1.88 1 3.36v7.34h-3.63v-7.25c0-.62-.12-1.07-.38-1.36s-.68-.44-1.28-.44c-.75 0-1.27.24-1.58.71v8.34h-3.62v-16.5h3.62v6.12zM126.17 221.56c-1.78 0-3.23-.53-4.33-1.6s-1.65-2.45-1.65-4.15v-.3c0-1.19.22-2.24.66-3.15.44-.91 1.08-1.61 1.93-2.11.84-.5 1.85-.75 3.01-.75 1.63 0 2.92.51 3.87 1.52.95 1.01 1.42 2.43 1.42 4.24v1.41h-7.2c.13.65.41 1.16.85 1.54.44.37 1 .56 1.7.56 1.15 0 2.04-.4 2.69-1.2l1.65 1.96c-.45.62-1.09 1.12-1.92 1.49-.84.35-1.73.54-2.68.54zm-.41-9.26c-1.06 0-1.69.7-1.89 2.11h3.65v-.28c.01-.58-.13-1.03-.44-1.35-.31-.32-.75-.48-1.32-.48zM133.32 221.34v-9.11h-1.69v-2.51h1.69v-.92c0-1.32.39-2.35 1.17-3.08s1.88-1.1 3.29-1.1c.52 0 1.08.08 1.7.23l.01 2.66c-.22-.06-.52-.1-.89-.1-1.1 0-1.64.47-1.64 1.42v.89h2.27v2.51h-2.27v9.11h-3.64zM144.71 206.83v2.89h1.91v2.51h-1.91v5.32c0 .44.08.74.24.91s.47.26.93.26c.36 0 .66-.02.9-.06v2.59c-.65.21-1.33.31-2.04.31-1.25 0-2.17-.29-2.76-.88-.59-.59-.89-1.48-.89-2.67v-5.77h-1.48v-2.51h1.48v-2.89h3.62zM43.38 242.02c0 1.8-.41 3.25-1.22 4.32-.81 1.08-1.91 1.62-3.29 1.62-1.07 0-1.94-.39-2.63-1.17v5.42h-3.62v-16.09H36l.11 1.07c.69-.86 1.61-1.29 2.74-1.29 1.43 0 2.55.53 3.34 1.58.79 1.06 1.19 2.51 1.19 4.36v.18zm-3.62-.23c0-2.06-.6-3.09-1.8-3.09-.86 0-1.43.31-1.72.92v4.58c.32.64.9.97 1.74.97 1.15 0 1.75-1 1.78-2.99v-.39zM52.01 239.4l-1.19-.09c-1.14 0-1.87.36-2.19 1.07v7.36H45v-11.62h3.39l.12 1.49c.61-1.14 1.46-1.71 2.55-1.71.39 0 .72.04 1.01.13l-.06 3.37zM52.47 241.82c0-1.16.23-2.19.68-3.1.45-.91 1.1-1.6 1.94-2.09.84-.49 1.84-.73 2.98-.73 1.74 0 3.11.54 4.11 1.62 1 1.08 1.5 2.54 1.5 4.4v.13c0 1.81-.5 3.25-1.51 4.31-1.01 1.06-2.37 1.6-4.09 1.6-1.65 0-2.98-.5-3.99-1.49-1-.99-1.54-2.34-1.62-4.03v-.62zm3.62.23c0 1.07.17 1.86.5 2.36.34.5.83.75 1.49.75 1.29 0 1.95-.99 1.98-2.98v-.37c0-2.08-.67-3.13-2-3.13-1.21 0-1.87.9-1.97 2.7v.67zM69.5 233.23v2.89h1.91v2.51H69.5v5.32c0 .44.08.74.24.91s.47.26.93.26c.36 0 .66-.02.9-.06v2.59c-.65.21-1.33.31-2.04.31-1.25 0-2.17-.29-2.76-.88-.59-.59-.89-1.48-.89-2.67v-5.77H64.4v-2.51h1.48v-2.89h3.62zM78.46 247.96c-1.78 0-3.23-.53-4.33-1.6s-1.65-2.45-1.65-4.15v-.3c0-1.19.22-2.24.66-3.15.44-.91 1.08-1.61 1.93-2.11.84-.5 1.85-.75 3.01-.75 1.63 0 2.92.51 3.87 1.52.95 1.01 1.42 2.43 1.42 4.24v1.41h-7.2c.13.65.41 1.16.85 1.54.44.37 1 .56 1.7.56 1.15 0 2.04-.4 2.69-1.2l1.65 1.96c-.45.62-1.09 1.12-1.92 1.49-.84.35-1.73.54-2.68.54zm-.41-9.26c-1.06 0-1.69.7-1.89 2.11h3.65v-.28c.01-.58-.13-1.03-.44-1.35-.31-.32-.75-.48-1.32-.48zM89.72 245.16c.51 0 .9-.14 1.18-.41.28-.28.42-.66.41-1.15h3.39c0 1.27-.46 2.32-1.37 3.14-.91.82-2.09 1.22-3.53 1.22-1.69 0-3.02-.53-4-1.59-.97-1.06-1.46-2.53-1.46-4.4v-.15c0-1.17.22-2.21.65-3.11.43-.9 1.06-1.59 1.87-2.07s1.78-.73 2.9-.73c1.51 0 2.71.42 3.6 1.26s1.33 1.97 1.33 3.41H91.3c0-.6-.15-1.06-.44-1.39s-.69-.48-1.18-.48c-.94 0-1.49.6-1.64 1.79-.05.38-.08.9-.08 1.57 0 1.17.14 1.98.42 2.43s.74.66 1.34.66zM100.46 233.23v2.89h1.91v2.51h-1.91v5.32c0 .44.08.74.24.91s.47.26.93.26c.36 0 .66-.02.9-.06v2.59c-.65.21-1.33.31-2.04.31-1.25 0-2.17-.29-2.76-.88-.59-.59-.89-1.48-.89-2.67v-5.77h-1.48v-2.51h1.48v-2.89h3.62zM103.76 233.12c0-.52.19-.94.56-1.27.37-.33.86-.49 1.45-.49s1.08.17 1.45.49c.37.33.56.75.56 1.27s-.19.94-.56 1.27c-.37.33-.86.49-1.45.49s-1.08-.16-1.45-.49c-.37-.33-.56-.75-.56-1.27zm3.85 14.62h-3.63v-11.62h3.63v11.62zM109.38 241.82c0-1.16.23-2.19.68-3.1.45-.91 1.1-1.6 1.94-2.09.84-.49 1.84-.73 2.98-.73 1.74 0 3.11.54 4.11 1.62 1 1.08 1.5 2.54 1.5 4.4v.13c0 1.81-.5 3.25-1.51 4.31-1.01 1.06-2.37 1.6-4.09 1.6-1.65 0-2.98-.5-3.99-1.49-1-.99-1.54-2.34-1.62-4.03v-.62zm3.62.23c0 1.07.17 1.86.5 2.36.34.5.83.75 1.49.75 1.29 0 1.95-.99 1.98-2.98v-.37c0-2.08-.67-3.13-2-3.13-1.21 0-1.87.9-1.97 2.7v.67zM125.52 236.12l.12 1.36c.8-1.05 1.91-1.58 3.32-1.58 1.21 0 2.11.36 2.71 1.08.6.72.91 1.81.93 3.27v7.49h-3.63v-7.34c0-.59-.12-1.02-.35-1.29-.24-.28-.67-.41-1.29-.41-.71 0-1.24.28-1.58.84v8.21h-3.62v-11.62h3.39zM55.54 274.14c-.13-.24-.24-.58-.34-1.04-.67.84-1.6 1.26-2.79 1.26-1.1 0-2.03-.33-2.79-.99-.77-.66-1.15-1.49-1.15-2.5 0-1.26.47-2.21 1.4-2.86s2.28-.97 4.06-.97h1.12v-.62c0-1.07-.46-1.61-1.39-1.61-.86 0-1.29.42-1.29 1.27h-3.62c0-1.12.48-2.04 1.43-2.74.96-.7 2.17-1.05 3.66-1.05s2.65.36 3.51 1.08c.86.72 1.3 1.72 1.32 2.98v5.15c.01 1.07.18 1.88.49 2.45v.18h-3.62zm-2.26-2.36c.45 0 .83-.1 1.12-.29.3-.19.51-.41.64-.66v-1.86h-1.05c-1.26 0-1.89.57-1.89 1.7 0 .33.11.6.33.8s.5.31.85.31zM64.89 259.63v2.89h1.91v2.51h-1.91v5.32c0 .44.08.74.24.91s.47.26.93.26c.36 0 .66-.02.9-.06v2.59c-.65.21-1.33.31-2.04.31-1.25 0-2.17-.29-2.76-.88-.59-.59-.89-1.48-.89-2.67v-5.77h-1.48v-2.51h1.48v-2.89h3.62zM78.35 269.07l1.93-6.55h3.88l-4.74 13.57-.2.49c-.67 1.5-1.86 2.26-3.57 2.26-.47 0-.97-.07-1.49-.21v-2.58h.47c.51 0 .9-.07 1.17-.22.27-.15.47-.41.6-.79l.29-.77-4.04-11.74h3.87l1.83 6.54zM84.64 268.22c0-1.16.23-2.19.68-3.1.45-.91 1.1-1.6 1.94-2.09.84-.49 1.84-.73 2.98-.73 1.74 0 3.11.54 4.11 1.62 1 1.08 1.5 2.54 1.5 4.4v.13c0 1.81-.5 3.25-1.51 4.31-1.01 1.06-2.37 1.6-4.09 1.6-1.65 0-2.98-.5-3.99-1.49-1-.99-1.54-2.34-1.62-4.03v-.62zm3.62.23c0 1.07.17 1.86.5 2.36.34.5.83.75 1.49.75 1.29 0 1.95-.99 1.98-2.98v-.37c0-2.08-.67-3.13-2-3.13-1.21 0-1.87.9-1.97 2.7v.67zM104.38 272.89c-.77.98-1.8 1.47-3.1 1.47-1.27 0-2.24-.37-2.89-1.11-.66-.74-.98-1.81-.98-3.2v-7.53h3.62v7.55c0 1 .48 1.49 1.45 1.49.83 0 1.42-.3 1.77-.89v-8.15h3.64v11.62h-3.39l-.12-1.25zM116.89 265.8l-1.19-.09c-1.14 0-1.87.36-2.19 1.07v7.36h-3.62v-11.62h3.39l.12 1.49c.61-1.14 1.46-1.71 2.55-1.71.39 0 .72.04 1.01.13l-.07 3.37zM30.2 300.54v-9.11h-1.69v-2.51h1.69V288c0-1.32.39-2.35 1.17-3.08s1.88-1.1 3.29-1.1c.52 0 1.08.08 1.7.23l.01 2.66c-.22-.06-.52-.1-.89-.1-1.1 0-1.64.47-1.64 1.42v.89h2.27v2.51h-2.27v9.11H30.2zM37.35 285.92c0-.52.19-.94.56-1.27.37-.33.86-.49 1.45-.49s1.08.17 1.45.49c.37.33.56.75.56 1.27s-.19.94-.56 1.27c-.37.33-.86.49-1.45.49s-1.08-.16-1.45-.49c-.38-.33-.56-.75-.56-1.27zm3.84 14.62h-3.63v-11.62h3.63v11.62zM46.74 288.92l.12 1.36c.8-1.05 1.91-1.58 3.32-1.58 1.21 0 2.11.36 2.71 1.08.6.72.91 1.81.93 3.27v7.49h-3.63v-7.34c0-.59-.12-1.02-.35-1.29-.24-.28-.67-.41-1.29-.41-.71 0-1.24.28-1.58.84v8.21h-3.62v-11.62h3.39zM55.4 294.65c0-1.17.19-2.21.58-3.12s.94-1.6 1.67-2.09c.72-.49 1.56-.74 2.52-.74 1.21 0 2.16.41 2.84 1.22l.13-1.01h3.29v11.18c0 1.02-.24 1.91-.71 2.67-.48.75-1.17 1.33-2.07 1.74-.9.4-1.95.61-3.14.61-.85 0-1.68-.16-2.48-.48-.8-.32-1.41-.74-1.83-1.26l1.51-2.13c.67.79 1.56 1.19 2.66 1.19 1.6 0 2.41-.82 2.41-2.47v-.37c-.69.77-1.57 1.15-2.63 1.15-1.42 0-2.56-.54-3.44-1.63s-1.31-2.54-1.31-4.36v-.1zm3.63.22c0 .95.18 1.71.54 2.26.36.56.86.83 1.5.83.78 0 1.35-.26 1.71-.78v-4.89c-.35-.53-.91-.79-1.69-.79-.64 0-1.15.29-1.51.86-.36.58-.55 1.41-.55 2.51zM74.1 300.76c-1.78 0-3.23-.53-4.33-1.6s-1.65-2.45-1.65-4.15v-.3c0-1.19.22-2.24.66-3.15.44-.91 1.08-1.61 1.93-2.11.84-.5 1.85-.75 3.01-.75 1.63 0 2.92.51 3.87 1.52.95 1.01 1.42 2.43 1.42 4.24v1.41h-7.2c.13.65.41 1.16.85 1.54.44.37 1 .56 1.7.56 1.15 0 2.04-.4 2.69-1.2l1.65 1.96c-.45.62-1.09 1.12-1.92 1.49-.83.35-1.72.54-2.68.54zm-.4-9.26c-1.06 0-1.69.7-1.89 2.11h3.65v-.28c.01-.58-.13-1.03-.44-1.35-.31-.32-.75-.48-1.32-.48zM87.49 292.2l-1.19-.09c-1.14 0-1.87.36-2.19 1.07v7.36h-3.62v-11.62h3.4l.12 1.49c.61-1.14 1.46-1.71 2.55-1.71.39 0 .72.04 1.01.13l-.08 3.37zM93.55 286.03v2.89h1.91v2.51h-1.91v5.32c0 .44.08.74.24.91s.47.26.93.26c.36 0 .66-.02.9-.06v2.59c-.65.21-1.33.31-2.04.31-1.25 0-2.17-.29-2.76-.88-.59-.59-.89-1.48-.89-2.67v-5.77h-1.48v-2.51h1.48v-2.89h3.62zM96.86 285.92c0-.52.19-.94.56-1.27.37-.33.86-.49 1.45-.49s1.08.17 1.45.49c.37.33.56.75.56 1.27s-.19.94-.56 1.27c-.37.33-.86.49-1.45.49s-1.08-.16-1.45-.49c-.38-.33-.56-.75-.56-1.27zm3.84 14.62h-3.63v-11.62h3.63v11.62zM113.72 294.82c0 1.8-.41 3.25-1.22 4.32-.81 1.08-1.91 1.62-3.29 1.62-1.07 0-1.94-.39-2.63-1.17v5.42h-3.62v-16.09h3.38l.11 1.07c.69-.86 1.61-1.29 2.74-1.29 1.43 0 2.55.53 3.34 1.58.79 1.06 1.19 2.51 1.19 4.36v.18zm-3.62-.23c0-2.06-.6-3.09-1.8-3.09-.86 0-1.43.31-1.72.92V297c.32.64.9.97 1.74.97 1.15 0 1.75-1 1.78-2.99v-.39zM121.4 297.28c0-.31-.16-.55-.48-.74-.32-.19-.93-.38-1.84-.58-.9-.2-1.65-.46-2.23-.79-.59-.33-1.04-.72-1.34-1.19-.31-.47-.46-1-.46-1.6 0-1.07.44-1.95 1.32-2.64.88-.69 2.03-1.04 3.46-1.04 1.53 0 2.76.35 3.7 1.04.93.69 1.4 1.61 1.4 2.74h-3.63c0-.93-.49-1.4-1.47-1.4-.38 0-.7.11-.96.32a.97.97 0 0 0-.39.79c0 .32.16.58.47.78.32.2.82.37 1.51.49.69.13 1.3.28 1.82.46 1.75.6 2.62 1.68 2.62 3.23 0 1.06-.47 1.92-1.41 2.59-.94.67-2.16 1-3.66 1-1 0-1.88-.18-2.66-.54s-1.39-.84-1.83-1.46c-.44-.62-.66-1.26-.66-1.94h3.38c.01.54.19.93.54 1.18s.78.37 1.32.37c.49 0 .86-.1 1.11-.3.25-.19.37-.45.37-.77zM129.27 295.59c0-1.05.12-1.87.35-2.48.24-.6.62-1.13 1.15-1.57.53-.44.93-.85 1.21-1.22.28-.37.41-.77.41-1.22 0-1.08-.47-1.62-1.4-1.62-.43 0-.78.16-1.04.47-.26.32-.4.74-.42 1.28h-3.63c.01-1.43.47-2.55 1.35-3.35.89-.8 2.13-1.2 3.74-1.2 1.6 0 2.83.37 3.71 1.11.88.74 1.32 1.79 1.32 3.15 0 .59-.12 1.14-.35 1.62-.24.49-.62.98-1.14 1.49l-1.24 1.15c-.35.34-.59.68-.73 1.04s-.21.8-.23 1.35h-3.06zm-.44 3.27c0-.53.19-.96.58-1.31.38-.34.86-.51 1.43-.51s1.05.17 1.43.51c.38.34.58.78.58 1.31s-.19.97-.58 1.31c-.38.34-.86.51-1.43.51s-1.05-.17-1.43-.51c-.39-.35-.58-.78-.58-1.31z"/></svg>