<svg id="Layer_1" xmlns="http://www.w3.org/2000/svg" viewBox="0 0 160 600"><style>.st0{fill:#021d8b}</style><path class="st0" d="M22.65 210.62v-12.94h4.17c1.14 0 2.17.26 3.08.78.91.52 1.62 1.25 2.14 2.19.51.94.77 2 .78 3.18v.6c0 1.18-.25 2.25-.75 3.19s-1.21 1.67-2.11 2.2c-.91.53-1.92.8-3.04.8h-4.27zm3.12-10.53v8.13h1.08c.89 0 1.58-.32 2.06-.96.48-.64.72-1.58.72-2.84v-.56c0-1.25-.24-2.19-.72-2.83-.48-.63-1.18-.95-2.1-.95h-1.04zM33.9 205.72c0-.96.19-1.81.56-2.56.37-.75.91-1.33 1.61-1.73.7-.4 1.52-.6 2.46-.6 1.44 0 2.57.45 3.4 1.34.83.89 1.24 2.1 1.24 3.64v.11c0 1.5-.42 2.69-1.25 3.57-.83.88-1.96 1.32-3.38 1.32-1.37 0-2.47-.41-3.3-1.23-.83-.82-1.28-1.93-1.34-3.34v-.52zm3 .19c0 .89.14 1.54.42 1.95s.69.62 1.23.62c1.07 0 1.61-.82 1.64-2.46v-.3c0-1.72-.55-2.59-1.65-2.59-1 0-1.54.74-1.63 2.23l-.01.55zM52.8 206.67l.97-5.67h2.87l-2.27 9.61h-2.53l-1.59-5.7-1.6 5.7h-2.53L43.85 201h2.87l.95 5.8 1.53-5.8h2.09l1.51 5.67zM60.46 201l.1 1.13c.66-.87 1.58-1.31 2.75-1.31 1 0 1.75.3 2.24.9.49.6.75 1.5.77 2.7v6.19h-3v-6.07c0-.49-.1-.84-.29-1.07-.2-.23-.55-.34-1.07-.34-.59 0-1.02.23-1.31.69v6.79h-2.99V201h2.8zM71.13 210.62h-3v-13.65h3v13.65zM72.6 205.72c0-.96.19-1.81.56-2.56.37-.75.91-1.33 1.61-1.73.7-.4 1.52-.6 2.46-.6 1.44 0 2.57.45 3.4 1.34.83.89 1.24 2.1 1.24 3.64v.11c0 1.5-.42 2.69-1.25 3.57-.83.88-1.96 1.32-3.38 1.32-1.37 0-2.47-.41-3.3-1.23-.83-.82-1.28-1.93-1.34-3.34v-.52zm2.99.19c0 .89.14 1.54.42 1.95s.69.62 1.23.62c1.07 0 1.61-.82 1.64-2.46v-.3c0-1.72-.55-2.59-1.65-2.59-1 0-1.54.74-1.63 2.23l-.01.55zM88.61 210.62c-.11-.2-.2-.48-.28-.86-.55.69-1.32 1.04-2.31 1.04-.91 0-1.68-.27-2.31-.82s-.95-1.24-.95-2.07c0-1.04.38-1.83 1.16-2.36.77-.53 1.89-.8 3.36-.8h.92v-.51c0-.89-.38-1.33-1.15-1.33-.71 0-1.07.35-1.07 1.05h-2.99c0-.93.4-1.68 1.19-2.26.79-.58 1.8-.87 3.03-.87 1.23 0 2.2.3 2.91.9.71.6 1.08 1.42 1.09 2.46v4.26c.01.88.15 1.56.41 2.03v.15h-3.01zm-1.88-1.96c.37 0 .68-.08.93-.24.25-.16.42-.34.53-.54v-1.54h-.87c-1.04 0-1.56.47-1.56 1.4 0 .27.09.49.28.66.18.18.41.26.69.26zM92.47 205.74c0-1.52.33-2.72.99-3.6s1.58-1.31 2.75-1.31c.86 0 1.58.34 2.17 1.01v-4.87h3v13.65h-2.69l-.15-1.03c-.62.81-1.4 1.21-2.35 1.21-1.14 0-2.05-.44-2.72-1.31-.66-.89-1-2.14-1-3.75zm3 .18c0 1.71.5 2.56 1.49 2.56.66 0 1.14-.28 1.42-.84v-3.66c-.27-.57-.74-.85-1.4-.85-.92 0-1.42.75-1.5 2.24l-.01.55zM111.11 198.61V201h1.58v2.08h-1.58v4.4c0 .36.07.61.2.76.13.14.39.21.77.21.3 0 .54-.02.75-.05v2.14c-.54.17-1.1.26-1.69.26-1.03 0-1.79-.24-2.28-.73s-.74-1.22-.74-2.21v-4.77h-1.23V201h1.23v-2.39h2.99zM116.79 202.03c.64-.81 1.46-1.21 2.45-1.21 1.06 0 1.86.31 2.4.94.54.63.81 1.55.83 2.78v6.07h-3v-6c0-.51-.1-.88-.31-1.12s-.56-.36-1.06-.36c-.62 0-1.05.2-1.31.59v6.9h-2.99v-13.65h2.99v5.06zM128.79 210.79c-1.47 0-2.67-.44-3.58-1.32-.91-.88-1.37-2.02-1.37-3.43v-.25c0-.98.18-1.85.55-2.6.36-.75.9-1.33 1.59-1.75.7-.41 1.53-.62 2.49-.62 1.35 0 2.42.42 3.2 1.26.78.84 1.17 2.01 1.17 3.5v1.16h-5.95c.11.54.34.96.7 1.27.36.31.83.46 1.4.46.95 0 1.69-.33 2.22-1l1.37 1.62c-.37.52-.9.93-1.59 1.23-.68.32-1.41.47-2.2.47zm-.34-7.66c-.88 0-1.4.58-1.56 1.74h3.02v-.23c.01-.48-.11-.85-.36-1.12s-.63-.39-1.1-.39zM26.03 228.06v4.39h-3.12v-12.94h5.16c.99 0 1.86.18 2.63.55s1.35.88 1.77 1.56c.42.67.63 1.43.63 2.29 0 1.26-.45 2.27-1.35 3.03-.9.76-2.14 1.13-3.72 1.13h-2zm0-2.41h2.04c.6 0 1.06-.15 1.38-.45s.48-.73.48-1.28c0-.6-.16-1.09-.49-1.45-.33-.36-.77-.54-1.33-.55h-2.08v3.73zM40.44 225.55l-.99-.07c-.94 0-1.55.3-1.81.89v6.09h-2.99v-9.61h2.81l.1 1.23c.5-.94 1.21-1.41 2.11-1.41.32 0 .6.04.84.11l-.07 2.77zM41.5 220.36c0-.43.15-.78.46-1.05.31-.27.71-.41 1.2-.41s.89.14 1.2.41c.31.27.46.62.46 1.05 0 .43-.15.78-.46 1.05-.31.27-.71.41-1.2.41s-.89-.14-1.2-.41-.46-.62-.46-1.05zm3.18 12.09h-3v-9.61h3v9.61zM50.35 228.89l1.52-6.05h3.15l-3.14 9.61h-3.06l-3.14-9.61h3.16l1.51 6.05zM61.2 232.45c-.11-.2-.2-.48-.28-.86-.55.69-1.32 1.04-2.31 1.04-.91 0-1.68-.27-2.31-.82s-.95-1.24-.95-2.07c0-1.04.38-1.83 1.15-2.36.77-.53 1.89-.8 3.36-.8h.92v-.51c0-.89-.38-1.33-1.15-1.33-.71 0-1.07.35-1.07 1.05h-2.99c0-.93.4-1.68 1.19-2.26.79-.58 1.8-.87 3.03-.87 1.23 0 2.19.3 2.91.9.71.6 1.08 1.42 1.09 2.46v4.26c.01.88.15 1.56.41 2.03v.15h-3zm-1.87-1.95c.37 0 .68-.08.93-.24.25-.16.42-.34.53-.54v-1.54h-.87c-1.04 0-1.56.47-1.56 1.4 0 .27.09.49.28.66.17.17.4.26.69.26zM69.51 230.32c.42 0 .75-.11.98-.34.23-.23.34-.55.34-.96h2.81c0 1.05-.38 1.92-1.13 2.59s-1.73 1.01-2.92 1.01c-1.4 0-2.5-.44-3.31-1.31s-1.21-2.09-1.21-3.64v-.12c0-.97.18-1.83.54-2.57.36-.74.88-1.31 1.55-1.71s1.47-.6 2.4-.6c1.25 0 2.24.35 2.98 1.04.73.69 1.1 1.63 1.1 2.82h-2.81c0-.5-.12-.88-.36-1.15-.24-.27-.57-.4-.98-.4-.78 0-1.23.49-1.36 1.48-.04.31-.06.75-.06 1.3 0 .97.12 1.63.35 2.01.22.36.59.55 1.09.55zM78.74 228.26l1.6-5.42h3.21l-3.92 11.22-.17.41c-.56 1.24-1.54 1.87-2.95 1.87-.39 0-.8-.06-1.23-.18v-2.13h.39c.42 0 .74-.06.96-.18.22-.12.39-.34.49-.65l.24-.64-3.34-9.71h3.2l1.52 5.41zM95.06 230.85c-.48.53-1.18.96-2.11 1.29s-1.94.49-3.04.49c-1.69 0-3.05-.52-4.06-1.56-1.01-1.04-1.55-2.48-1.63-4.33l-.01-1.12c0-1.27.23-2.39.68-3.34.45-.95 1.09-1.68 1.93-2.19.84-.51 1.81-.77 2.91-.77 1.61 0 2.86.37 3.75 1.11.89.74 1.41 1.84 1.56 3.3h-3c-.11-.72-.34-1.24-.69-1.55-.35-.31-.86-.46-1.51-.46-.78 0-1.39.33-1.81 1-.43.66-.64 1.61-.65 2.84v.78c0 1.29.22 2.26.66 2.91.44.65 1.14.97 2.08.97.81 0 1.42-.18 1.81-.54v-2.01h-2.17v-2.14h5.29v5.32zM102.46 231.41c-.63.81-1.49 1.22-2.57 1.22-1.05 0-1.85-.31-2.39-.92-.54-.61-.81-1.49-.81-2.64v-6.23h2.99v6.25c0 .82.4 1.24 1.2 1.24.69 0 1.18-.25 1.47-.74v-6.74h3.01v9.61h-2.81l-.09-1.05zM112.41 232.45c-.11-.2-.2-.48-.28-.86-.55.69-1.32 1.04-2.31 1.04-.91 0-1.68-.27-2.31-.82s-.95-1.24-.95-2.07c0-1.04.38-1.83 1.16-2.36.77-.53 1.89-.8 3.36-.8h.92v-.51c0-.89-.38-1.33-1.15-1.33-.71 0-1.07.35-1.07 1.05h-2.99c0-.93.4-1.68 1.19-2.26.79-.58 1.8-.87 3.03-.87 1.23 0 2.19.3 2.91.9.71.6 1.08 1.42 1.09 2.46v4.26c.01.88.15 1.56.41 2.03v.15h-3.01zm-1.88-1.95c.37 0 .68-.08.93-.24.25-.16.42-.34.53-.54v-1.54h-.87c-1.04 0-1.56.47-1.56 1.4 0 .27.09.49.28.66s.41.26.69.26zM122.47 225.55l-.99-.07c-.94 0-1.55.3-1.81.89v6.09h-2.99v-9.61h2.81l.1 1.23c.5-.94 1.21-1.41 2.11-1.41.32 0 .6.04.83.11l-.06 2.77zM123.17 227.57c0-1.52.33-2.72.99-3.6s1.58-1.31 2.75-1.31c.86 0 1.58.34 2.17 1.01v-4.87h3v13.65h-2.69l-.15-1.03c-.62.81-1.4 1.21-2.35 1.21-1.14 0-2.05-.44-2.72-1.31-.67-.88-1-2.13-1-3.75zm2.99.19c0 1.71.5 2.56 1.49 2.56.66 0 1.14-.28 1.42-.84v-3.66c-.27-.57-.74-.85-1.4-.85-.92 0-1.42.75-1.5 2.24l-.01.55zM45.86 254.29c-.11-.2-.2-.48-.28-.86-.55.69-1.32 1.04-2.31 1.04-.91 0-1.68-.27-2.31-.82s-.95-1.24-.95-2.07c0-1.04.38-1.83 1.15-2.36s1.89-.8 3.36-.8h.92v-.51c0-.89-.38-1.33-1.15-1.33-.71 0-1.07.35-1.07 1.05h-2.99c0-.93.4-1.68 1.19-2.26.79-.58 1.8-.87 3.03-.87 1.23 0 2.19.3 2.91.9.71.6 1.08 1.42 1.09 2.46v4.26c.01.88.15 1.56.41 2.03v.15h-3zm-1.87-1.96c.37 0 .68-.08.93-.24.25-.16.42-.34.53-.54v-1.54h-.87c-1.04 0-1.56.47-1.56 1.4 0 .27.09.49.28.66.17.18.4.26.69.26zM59.03 249.55c0 1.49-.34 2.69-1.01 3.58s-1.58 1.34-2.72 1.34c-.88 0-1.61-.32-2.18-.97v4.49h-2.99v-13.31h2.8l.09.89c.57-.71 1.33-1.07 2.27-1.07 1.19 0 2.11.44 2.76 1.31.66.87.99 2.08.99 3.6v.14zm-2.99-.18c0-1.71-.5-2.56-1.49-2.56-.71 0-1.18.25-1.42.76v3.79c.26.53.74.8 1.44.8.95 0 1.45-.82 1.48-2.47v-.32zM69.28 249.55c0 1.49-.34 2.69-1.01 3.58s-1.58 1.34-2.72 1.34c-.88 0-1.61-.32-2.18-.97v4.49h-2.99v-13.31h2.8l.09.89c.57-.71 1.33-1.07 2.27-1.07 1.19 0 2.11.44 2.76 1.31.66.87.99 2.08.99 3.6v.14zm-3-.18c0-1.71-.5-2.56-1.49-2.56-.71 0-1.18.25-1.42.76v3.79c.26.53.74.8 1.44.8.95 0 1.45-.82 1.48-2.47v-.32zM78.61 242.29v2.39h1.58v2.08h-1.58v4.4c0 .36.06.61.2.76.13.14.39.21.77.21.3 0 .54-.02.75-.05v2.14c-.54.17-1.1.26-1.69.26-1.03 0-1.79-.24-2.28-.73s-.74-1.22-.74-2.21v-4.77h-1.23v-2.08h1.23v-2.39h2.99zM80.73 249.39c0-.96.19-1.81.56-2.56.37-.75.91-1.33 1.61-1.73.7-.4 1.52-.6 2.46-.6 1.44 0 2.57.45 3.4 1.34.83.89 1.24 2.1 1.24 3.64v.11c0 1.5-.42 2.69-1.25 3.57s-1.96 1.32-3.38 1.32c-1.37 0-2.47-.41-3.3-1.23-.83-.82-1.28-1.93-1.34-3.34v-.52zm2.99.19c0 .89.14 1.54.42 1.95.28.42.69.62 1.24.62 1.07 0 1.61-.82 1.63-2.46v-.3c0-1.72-.55-2.59-1.65-2.59-1 0-1.54.74-1.63 2.23l-.01.55zM90.95 249.41c0-1.52.33-2.72.99-3.6s1.58-1.32 2.75-1.32c.86 0 1.58.34 2.17 1.01v-4.87h3v13.65h-2.69l-.15-1.03c-.62.81-1.4 1.21-2.35 1.21-1.14 0-2.05-.44-2.72-1.32-.67-.86-1-2.11-1-3.73zm2.99.19c0 1.71.5 2.56 1.49 2.56.66 0 1.14-.28 1.42-.83v-3.66c-.27-.57-.74-.85-1.4-.85-.92 0-1.42.75-1.5 2.24l-.01.54zM106.98 254.29c-.11-.2-.2-.48-.29-.86-.55.69-1.32 1.04-2.31 1.04-.91 0-1.68-.27-2.31-.82s-.95-1.24-.95-2.07c0-1.04.38-1.83 1.15-2.36.77-.53 1.89-.8 3.36-.8h.92v-.51c0-.89-.38-1.33-1.15-1.33-.71 0-1.07.35-1.07 1.05h-2.99c0-.93.4-1.68 1.19-2.26s1.8-.87 3.03-.87 2.19.3 2.91.9c.71.6 1.08 1.42 1.09 2.46v4.26c.01.88.15 1.56.41 2.03v.15h-2.99zm-1.88-1.96c.37 0 .68-.08.93-.24.25-.16.42-.34.53-.54v-1.54h-.87c-1.04 0-1.56.47-1.56 1.4 0 .27.09.49.28.66s.41.26.69.26zM115.06 250.09l1.6-5.42h3.21l-3.92 11.22-.17.41c-.56 1.24-1.54 1.87-2.95 1.87-.39 0-.8-.06-1.23-.18v-2.13h.39c.42 0 .74-.06.96-.18.22-.12.39-.34.49-.65l.24-.64-3.34-9.71h3.2l1.52 5.41z"/></svg>