<?xml version="1.0" encoding="utf-8"?>
<!-- Generator: Adobe Illustrator 24.3.0, SVG Export Plug-In . SVG Version: 6.00 Build 0)  -->
<svg version="1.1" id="Layer_1" xmlns="http://www.w3.org/2000/svg" xmlns:xlink="http://www.w3.org/1999/xlink" x="0px" y="0px"
	 viewBox="0 0 160 600" style="enable-background:new 0 0 160 600;" xml:space="preserve">
<style type="text/css">
	.st0{fill:#E72F8A;}
	.st1{fill:#EEF4FB;}
</style>
<g>
	<rect x="0" y="493.3" class="st0" width="160" height="106.7"/>
</g>
<g>
	<path class="st1" d="M35.8,536.1c0-0.4-0.1-0.7-0.4-0.9s-0.7-0.5-1.3-0.7c-0.8-0.3-1.4-0.6-1.8-1s-0.6-0.9-0.6-1.6
		c0-0.6,0.2-1.2,0.6-1.6s0.9-0.7,1.5-0.7v-1.3h0.9v1.3c0.7,0.1,1.2,0.4,1.5,0.8s0.5,1.1,0.5,1.9h-1.1c0-0.6-0.1-1-0.4-1.3
		s-0.6-0.5-1.1-0.5c-0.5,0-0.8,0.1-1.1,0.4s-0.4,0.6-0.4,1c0,0.4,0.1,0.7,0.4,1c0.3,0.2,0.7,0.5,1.3,0.6c0.6,0.2,1.1,0.4,1.4,0.6
		s0.6,0.5,0.7,0.8s0.2,0.7,0.2,1.1c0,0.7-0.2,1.2-0.6,1.6s-1,0.6-1.7,0.7v1.1h-0.9v-1.1c-0.7-0.1-1.3-0.3-1.7-0.8s-0.6-1.1-0.6-1.8
		h1.1c0,0.5,0.1,1,0.4,1.3s0.7,0.4,1.2,0.4c0.5,0,0.9-0.1,1.2-0.4S35.8,536.5,35.8,536.1z"/>
	<path class="st1" d="M41.8,538.3h-1.1V531l-2.2,0.8v-1l3.1-1.2h0.2V538.3z"/>
	<path class="st1" d="M49.5,530.4v1.5h1.2v0.8h-1.2v3.9c0,0.3,0.1,0.4,0.2,0.6s0.3,0.2,0.5,0.2c0.1,0,0.3,0,0.5-0.1v0.9
		c-0.3,0.1-0.6,0.1-0.8,0.1c-0.5,0-0.8-0.1-1.1-0.4s-0.4-0.7-0.4-1.2v-3.9h-1.2v-0.8h1.2v-1.5H49.5z"/>
	<path class="st1" d="M55,532.9c-0.2,0-0.3,0-0.5,0c-0.7,0-1.2,0.3-1.4,0.9v4.5h-1.1v-6.3H53l0,0.7c0.4-0.6,0.9-0.8,1.5-0.8
		c0.2,0,0.4,0,0.5,0.1V532.9z"/>
	<path class="st1" d="M56,530.2c0-0.2,0.1-0.3,0.2-0.4s0.3-0.2,0.5-0.2s0.4,0.1,0.5,0.2s0.2,0.3,0.2,0.4s-0.1,0.3-0.2,0.4
		s-0.3,0.2-0.5,0.2s-0.4-0.1-0.5-0.2S56,530.4,56,530.2z M57.2,538.3h-1.1v-6.3h1.1V538.3z"/>
	<path class="st1" d="M62.8,538.3c-0.1-0.1-0.1-0.3-0.2-0.7c-0.5,0.5-1.1,0.8-1.8,0.8c-0.6,0-1.1-0.2-1.5-0.5s-0.6-0.8-0.6-1.3
		c0-0.7,0.3-1.2,0.8-1.5s1.2-0.5,2.1-0.5h1.1v-0.5c0-0.4-0.1-0.7-0.3-0.9s-0.6-0.3-1-0.3c-0.4,0-0.7,0.1-1,0.3s-0.4,0.4-0.4,0.7
		h-1.1c0-0.3,0.1-0.6,0.3-0.9s0.5-0.5,0.9-0.7s0.8-0.3,1.3-0.3c0.7,0,1.3,0.2,1.7,0.5s0.6,0.9,0.6,1.5v2.9c0,0.6,0.1,1,0.2,1.4v0.1
		H62.8z M61,537.4c0.3,0,0.7-0.1,1-0.3s0.5-0.4,0.7-0.7v-1.3h-0.8c-1.3,0-2,0.4-2,1.2c0,0.3,0.1,0.6,0.3,0.8S60.7,537.4,61,537.4z"
		/>
	<path class="st1" d="M66.6,538.3h-1.1v-9h1.1V538.3z"/>
	<path class="st1" d="M71.9,538.3v-5.5h-1v-0.8h1v-0.7c0-0.7,0.2-1.2,0.5-1.6s0.9-0.6,1.5-0.6c0.2,0,0.5,0,0.7,0.1l-0.1,0.9
		c-0.2,0-0.4-0.1-0.6-0.1c-0.4,0-0.6,0.1-0.8,0.3c-0.2,0.2-0.3,0.5-0.3,0.9v0.7h1.4v0.8h-1.4v5.5H71.9z"/>
	<path class="st1" d="M75.2,535c0-0.6,0.1-1.2,0.4-1.7s0.6-0.9,1-1.1s0.9-0.4,1.5-0.4c0.9,0,1.6,0.3,2.1,0.9s0.8,1.4,0.8,2.4v0.1
		c0,0.6-0.1,1.2-0.4,1.7s-0.6,0.9-1,1.1s-0.9,0.4-1.5,0.4c-0.9,0-1.6-0.3-2.1-0.9S75.2,536.1,75.2,535L75.2,535z M76.3,535.2
		c0,0.7,0.2,1.3,0.5,1.7s0.8,0.6,1.3,0.6c0.6,0,1-0.2,1.3-0.6s0.5-1,0.5-1.8c0-0.7-0.2-1.3-0.5-1.7s-0.8-0.6-1.3-0.6
		c-0.5,0-1,0.2-1.3,0.6S76.3,534.4,76.3,535.2z"/>
	<path class="st1" d="M85.4,532.9c-0.2,0-0.3,0-0.5,0c-0.7,0-1.2,0.3-1.4,0.9v4.5h-1.1v-6.3h1.1l0,0.7c0.4-0.6,0.9-0.8,1.5-0.8
		c0.2,0,0.4,0,0.5,0.1V532.9z"/>
	<path class="st1" d="M90.8,530.4v1.5H92v0.8h-1.2v3.9c0,0.3,0.1,0.4,0.2,0.6s0.3,0.2,0.5,0.2c0.1,0,0.3,0,0.5-0.1v0.9
		c-0.3,0.1-0.6,0.1-0.8,0.1c-0.5,0-0.8-0.1-1.1-0.4s-0.4-0.7-0.4-1.2v-3.9h-1.2v-0.8h1.2v-1.5H90.8z"/>
	<path class="st1" d="M94.4,532.7c0.5-0.6,1.1-0.9,1.9-0.9c1.3,0,2,0.8,2,2.3v4.2h-1.1v-4.2c0-0.5-0.1-0.8-0.3-1s-0.5-0.3-1-0.3
		c-0.4,0-0.7,0.1-0.9,0.3s-0.5,0.4-0.6,0.7v4.5h-1.1v-9h1.1V532.7z"/>
	<path class="st1" d="M102.5,538.4c-0.9,0-1.6-0.3-2.1-0.8s-0.8-1.3-0.8-2.3v-0.2c0-0.6,0.1-1.2,0.4-1.7s0.6-0.9,1-1.2
		s0.9-0.4,1.4-0.4c0.8,0,1.5,0.3,1.9,0.8s0.7,1.3,0.7,2.3v0.5h-4.3c0,0.6,0.2,1.1,0.5,1.5s0.8,0.6,1.3,0.6c0.4,0,0.7-0.1,1-0.2
		s0.5-0.4,0.7-0.6l0.7,0.5C104.4,538,103.6,538.4,102.5,538.4z M102.4,532.7c-0.4,0-0.8,0.2-1.1,0.5s-0.5,0.8-0.6,1.3h3.2v-0.1
		c0-0.6-0.2-1-0.4-1.3S102.8,532.7,102.4,532.7z"/>
	<path class="st1" d="M109.8,538.3v-5.5h-1v-0.8h1v-0.7c0-0.7,0.2-1.2,0.5-1.6s0.9-0.6,1.5-0.6c0.2,0,0.5,0,0.7,0.1l-0.1,0.9
		c-0.2,0-0.4-0.1-0.6-0.1c-0.4,0-0.6,0.1-0.8,0.3c-0.2,0.2-0.3,0.5-0.3,0.9v0.7h1.4v0.8h-1.4v5.5H109.8z"/>
	<path class="st1" d="M113.4,530.2c0-0.2,0.1-0.3,0.2-0.4s0.3-0.2,0.5-0.2s0.4,0.1,0.5,0.2s0.2,0.3,0.2,0.4s-0.1,0.3-0.2,0.4
		s-0.3,0.2-0.5,0.2s-0.4-0.1-0.5-0.2S113.4,530.4,113.4,530.2z M114.6,538.3h-1.1v-6.3h1.1V538.3z"/>
	<path class="st1" d="M119.4,532.9c-0.2,0-0.3,0-0.5,0c-0.7,0-1.2,0.3-1.4,0.9v4.5h-1.1v-6.3h1.1l0,0.7c0.4-0.6,0.9-0.8,1.5-0.8
		c0.2,0,0.4,0,0.5,0.1V532.9z"/>
	<path class="st1" d="M124.1,536.6c0-0.3-0.1-0.5-0.3-0.7s-0.6-0.3-1.2-0.4s-1-0.3-1.3-0.4s-0.6-0.4-0.7-0.6s-0.2-0.5-0.2-0.8
		c0-0.5,0.2-1,0.7-1.3s1-0.5,1.7-0.5c0.7,0,1.3,0.2,1.7,0.6s0.7,0.8,0.7,1.4H124c0-0.3-0.1-0.6-0.4-0.8s-0.6-0.3-1-0.3
		c-0.4,0-0.7,0.1-0.9,0.3s-0.3,0.4-0.3,0.7c0,0.3,0.1,0.5,0.3,0.6s0.6,0.3,1.1,0.4s1,0.3,1.3,0.4s0.6,0.4,0.7,0.6s0.2,0.5,0.2,0.9
		c0,0.6-0.2,1-0.7,1.4s-1,0.5-1.8,0.5c-0.5,0-1-0.1-1.3-0.3s-0.7-0.4-0.9-0.8s-0.3-0.7-0.3-1h1.1c0,0.4,0.2,0.7,0.4,0.9
		s0.6,0.3,1.1,0.3c0.4,0,0.7-0.1,1-0.2S124.1,536.9,124.1,536.6z"/>
	<path class="st1" d="M128,530.4v1.5h1.2v0.8H128v3.9c0,0.3,0.1,0.4,0.2,0.6s0.3,0.2,0.5,0.2c0.1,0,0.3,0,0.5-0.1v0.9
		c-0.3,0.1-0.6,0.1-0.8,0.1c-0.5,0-0.8-0.1-1.1-0.4s-0.4-0.7-0.4-1.2v-3.9h-1.2v-0.8h1.2v-1.5H128z"/>
	<path class="st1" d="M24.6,552.7h-1.7v-6.5l-2,0.6v-1.4l3.5-1.3h0.2V552.7z"/>
	<path class="st1" d="M32.4,549.5h1v1.4h-1v1.8h-1.7v-1.8h-3.5l-0.1-1.1l3.6-5.6h1.7V549.5z M28.8,549.5h1.9v-3l-0.1,0.2L28.8,549.5
		z"/>
	<path class="st1" d="M37.1,549.5c0-1,0.2-1.8,0.7-2.4s1-0.9,1.8-0.9c0.6,0,1.1,0.2,1.5,0.7v-3.2h1.7v9h-1.5l-0.1-0.7
		c-0.4,0.5-1,0.8-1.6,0.8c-0.7,0-1.3-0.3-1.8-0.9S37.1,550.5,37.1,549.5z M38.7,549.6c0,0.6,0.1,1.1,0.3,1.4
		c0.2,0.3,0.5,0.5,0.9,0.5c0.5,0,0.9-0.2,1.1-0.7v-2.5c-0.2-0.4-0.6-0.7-1.1-0.7C39.2,547.6,38.7,548.2,38.7,549.6z"/>
	<path class="st1" d="M47.8,552.7c-0.1-0.2-0.1-0.3-0.2-0.6c-0.4,0.5-0.9,0.7-1.6,0.7c-0.6,0-1.1-0.2-1.5-0.5s-0.6-0.8-0.6-1.4
		c0-0.7,0.2-1.2,0.7-1.5s1.2-0.5,2.2-0.5h0.8v-0.4c0-0.3-0.1-0.5-0.2-0.7s-0.4-0.3-0.7-0.3c-0.3,0-0.5,0.1-0.7,0.2s-0.2,0.3-0.2,0.6
		H44c0-0.4,0.1-0.7,0.3-1s0.5-0.6,1-0.7s0.9-0.3,1.4-0.3c0.8,0,1.4,0.2,1.9,0.6s0.7,0.9,0.7,1.7v2.7c0,0.6,0.1,1.1,0.3,1.4v0.1H47.8
		z M46.4,551.5c0.2,0,0.5-0.1,0.7-0.2s0.4-0.3,0.5-0.4v-1.1h-0.6c-0.8,0-1.3,0.3-1.4,0.9l0,0.1c0,0.2,0.1,0.4,0.2,0.5
		S46.1,551.5,46.4,551.5z"/>
	<path class="st1" d="M52.9,550.3l1.2-3.9h1.8l-2.5,7.3l-0.1,0.3c-0.4,0.8-1,1.2-1.9,1.2c-0.2,0-0.5,0-0.8-0.1v-1.3l0.3,0
		c0.3,0,0.6,0,0.7-0.1s0.3-0.3,0.4-0.5l0.2-0.5l-2.2-6.4h1.8L52.9,550.3z"/>
	<path class="st1" d="M60,550.9c0-0.2-0.1-0.4-0.3-0.5s-0.5-0.2-1-0.3c-1.5-0.3-2.3-1-2.3-1.9c0-0.6,0.2-1,0.7-1.4s1.1-0.6,1.8-0.6
		c0.8,0,1.4,0.2,1.9,0.6s0.7,0.9,0.7,1.5h-1.7c0-0.2-0.1-0.4-0.2-0.6s-0.4-0.2-0.7-0.2c-0.3,0-0.5,0.1-0.7,0.2s-0.2,0.3-0.2,0.5
		c0,0.2,0.1,0.3,0.3,0.5s0.5,0.2,0.9,0.3s0.8,0.2,1.1,0.3c0.9,0.3,1.3,0.9,1.3,1.7c0,0.6-0.2,1-0.7,1.4s-1.1,0.5-1.9,0.5
		c-0.5,0-1-0.1-1.4-0.3s-0.7-0.4-1-0.8s-0.4-0.7-0.4-1.1h1.6c0,0.3,0.1,0.5,0.3,0.7s0.5,0.2,0.8,0.2c0.3,0,0.6-0.1,0.7-0.2
		S60,551.1,60,550.9z"/>
	<path class="st1" d="M62.8,554.4l-0.6-0.4c0.4-0.5,0.6-1,0.6-1.6v-1h1.1v0.8c0,0.4-0.1,0.8-0.3,1.2S63.1,554.1,62.8,554.4z"/>
	<path class="st1" d="M73.6,549.6c0,1-0.2,1.7-0.7,2.3s-1,0.9-1.8,0.9c-0.8,0-1.4-0.2-1.8-0.7v3.1h-1.1v-8.8h1l0.1,0.7
		c0.4-0.5,1.1-0.8,1.8-0.8c0.8,0,1.4,0.3,1.8,0.9S73.6,548.4,73.6,549.6L73.6,549.6z M72.5,549.4c0-0.7-0.2-1.3-0.5-1.7
		s-0.7-0.6-1.3-0.6c-0.7,0-1.1,0.3-1.5,0.9v3c0.3,0.6,0.8,0.9,1.5,0.9c0.5,0,0.9-0.2,1.2-0.6S72.5,550.3,72.5,549.4z"/>
	<path class="st1" d="M76.1,552.7H75v-9h1.1V552.7z"/>
	<path class="st1" d="M81.8,552.7c-0.1-0.1-0.1-0.3-0.2-0.7c-0.5,0.5-1.1,0.8-1.8,0.8c-0.6,0-1.1-0.2-1.5-0.5s-0.6-0.8-0.6-1.3
		c0-0.7,0.3-1.2,0.8-1.5s1.2-0.5,2.1-0.5h1.1v-0.5c0-0.4-0.1-0.7-0.3-0.9s-0.6-0.3-1-0.3c-0.4,0-0.7,0.1-1,0.3s-0.4,0.4-0.4,0.7
		h-1.1c0-0.3,0.1-0.6,0.3-0.9s0.5-0.5,0.9-0.7s0.8-0.3,1.3-0.3c0.7,0,1.3,0.2,1.7,0.5s0.6,0.9,0.6,1.5v2.9c0,0.6,0.1,1,0.2,1.4v0.1
		H81.8z M80,551.8c0.3,0,0.7-0.1,1-0.3s0.5-0.4,0.7-0.7v-1.3h-0.8c-1.3,0-2,0.4-2,1.2c0,0.3,0.1,0.6,0.3,0.8S79.6,551.8,80,551.8z"
		/>
	<path class="st1" d="M85.4,546.3l0,0.8c0.5-0.6,1.1-0.9,1.9-0.9c1.3,0,2,0.8,2,2.3v4.2h-1.1v-4.2c0-0.5-0.1-0.8-0.3-1
		s-0.5-0.3-1-0.3c-0.4,0-0.7,0.1-0.9,0.3s-0.5,0.4-0.6,0.7v4.5h-1.1v-6.3H85.4z"/>
	<path class="st1" d="M94.7,551c0-0.3-0.1-0.5-0.3-0.7s-0.6-0.3-1.2-0.4s-1-0.3-1.3-0.4s-0.6-0.4-0.7-0.6s-0.2-0.5-0.2-0.8
		c0-0.5,0.2-1,0.7-1.3s1-0.5,1.7-0.5c0.7,0,1.3,0.2,1.7,0.6s0.7,0.8,0.7,1.4h-1.1c0-0.3-0.1-0.6-0.4-0.8s-0.6-0.3-1-0.3
		c-0.4,0-0.7,0.1-0.9,0.3S92,547.8,92,548c0,0.3,0.1,0.5,0.3,0.6s0.6,0.3,1.1,0.4s1,0.3,1.3,0.4s0.6,0.4,0.7,0.6s0.2,0.5,0.2,0.9
		c0,0.6-0.2,1-0.7,1.4s-1,0.5-1.8,0.5c-0.5,0-1-0.1-1.3-0.3s-0.7-0.4-0.9-0.8s-0.3-0.7-0.3-1h1.1c0,0.4,0.2,0.7,0.4,0.9
		s0.6,0.3,1.1,0.3c0.4,0,0.7-0.1,1-0.2S94.7,551.3,94.7,551z"/>
	<path class="st1" d="M103.8,551c0-0.3-0.1-0.5-0.3-0.7s-0.6-0.3-1.2-0.4s-1-0.3-1.3-0.4s-0.6-0.4-0.7-0.6s-0.2-0.5-0.2-0.8
		c0-0.5,0.2-1,0.7-1.3s1-0.5,1.7-0.5c0.7,0,1.3,0.2,1.7,0.6s0.7,0.8,0.7,1.4h-1.1c0-0.3-0.1-0.6-0.4-0.8s-0.6-0.3-1-0.3
		c-0.4,0-0.7,0.1-0.9,0.3s-0.3,0.4-0.3,0.7c0,0.3,0.1,0.5,0.3,0.6s0.6,0.3,1.1,0.4s1,0.3,1.3,0.4s0.6,0.4,0.7,0.6s0.2,0.5,0.2,0.9
		c0,0.6-0.2,1-0.7,1.4s-1,0.5-1.8,0.5c-0.5,0-1-0.1-1.3-0.3s-0.7-0.4-0.9-0.8s-0.3-0.7-0.3-1h1.1c0,0.4,0.2,0.7,0.4,0.9
		s0.6,0.3,1.1,0.3c0.4,0,0.7-0.1,1-0.2S103.8,551.3,103.8,551z"/>
	<path class="st1" d="M107.8,544.8v1.5h1.2v0.8h-1.2v3.9c0,0.3,0.1,0.4,0.2,0.6c0.1,0.1,0.3,0.2,0.5,0.2c0.1,0,0.3,0,0.5-0.1v0.9
		c-0.3,0.1-0.6,0.1-0.8,0.1c-0.5,0-0.8-0.1-1.1-0.4s-0.4-0.7-0.4-1.2v-3.9h-1.2v-0.8h1.2v-1.5H107.8z"/>
	<path class="st1" d="M114.2,552.7c-0.1-0.1-0.1-0.3-0.2-0.7c-0.5,0.5-1.1,0.8-1.8,0.8c-0.6,0-1.1-0.2-1.5-0.5s-0.6-0.8-0.6-1.3
		c0-0.7,0.3-1.2,0.8-1.5s1.2-0.5,2.1-0.5h1.1v-0.5c0-0.4-0.1-0.7-0.3-0.9s-0.6-0.3-1-0.3c-0.4,0-0.7,0.1-1,0.3s-0.4,0.4-0.4,0.7
		h-1.1c0-0.3,0.1-0.6,0.3-0.9s0.5-0.5,0.9-0.7s0.8-0.3,1.3-0.3c0.7,0,1.3,0.2,1.7,0.5s0.6,0.9,0.6,1.5v2.9c0,0.6,0.1,1,0.2,1.4v0.1
		H114.2z M112.4,551.8c0.3,0,0.7-0.1,1-0.3s0.5-0.4,0.7-0.7v-1.3h-0.8c-1.3,0-2,0.4-2,1.2c0,0.3,0.1,0.6,0.3,0.8
		S112,551.8,112.4,551.8z"/>
	<path class="st1" d="M119.9,547.3c-0.2,0-0.3,0-0.5,0c-0.7,0-1.2,0.3-1.4,0.9v4.5h-1.1v-6.3h1.1l0,0.7c0.4-0.6,0.9-0.8,1.5-0.8
		c0.2,0,0.4,0,0.5,0.1V547.3z"/>
	<path class="st1" d="M122.6,544.8v1.5h1.2v0.8h-1.2v3.9c0,0.3,0.1,0.4,0.2,0.6c0.1,0.1,0.3,0.2,0.5,0.2c0.1,0,0.3,0,0.5-0.1v0.9
		c-0.3,0.1-0.6,0.1-0.8,0.1c-0.5,0-0.8-0.1-1.1-0.4s-0.4-0.7-0.4-1.2v-3.9h-1.2v-0.8h1.2v-1.5H122.6z"/>
	<path class="st1" d="M125.1,544.6c0-0.2,0.1-0.3,0.2-0.4s0.3-0.2,0.5-0.2s0.4,0.1,0.5,0.2s0.2,0.3,0.2,0.4s-0.1,0.3-0.2,0.4
		s-0.3,0.2-0.5,0.2s-0.4-0.1-0.5-0.2S125.1,544.8,125.1,544.6z M126.2,552.7h-1.1v-6.3h1.1V552.7z"/>
	<path class="st1" d="M129,546.3l0,0.8c0.5-0.6,1.1-0.9,1.9-0.9c1.3,0,2,0.8,2,2.3v4.2h-1.1v-4.2c0-0.5-0.1-0.8-0.3-1
		s-0.5-0.3-1-0.3c-0.4,0-0.7,0.1-0.9,0.3s-0.5,0.4-0.6,0.7v4.5H128v-6.3H129z"/>
	<path class="st1" d="M134.3,549.4c0-1,0.2-1.8,0.7-2.4s1.1-0.9,1.8-0.9c0.8,0,1.4,0.3,1.8,0.8l0.1-0.7h1v6.2c0,0.8-0.2,1.5-0.7,1.9
		s-1.1,0.7-2,0.7c-0.5,0-0.9-0.1-1.3-0.3s-0.8-0.5-1-0.8l0.6-0.7c0.5,0.6,1,0.9,1.7,0.9c0.5,0,0.9-0.1,1.2-0.4s0.4-0.7,0.4-1.3V552
		c-0.4,0.5-1,0.8-1.8,0.8c-0.7,0-1.3-0.3-1.8-0.9S134.3,550.5,134.3,549.4z M135.4,549.6c0,0.7,0.1,1.3,0.4,1.7s0.7,0.6,1.2,0.6
		c0.7,0,1.2-0.3,1.5-0.9V548c-0.3-0.6-0.8-0.9-1.5-0.9c-0.5,0-0.9,0.2-1.2,0.6S135.4,548.8,135.4,549.6z"/>
	<path class="st1" d="M43.1,567.1c-0.1-0.1-0.1-0.3-0.2-0.7c-0.5,0.5-1.1,0.8-1.8,0.8c-0.6,0-1.1-0.2-1.5-0.5s-0.6-0.8-0.6-1.3
		c0-0.7,0.3-1.2,0.8-1.5s1.2-0.5,2.1-0.5H43v-0.5c0-0.4-0.1-0.7-0.3-0.9s-0.6-0.3-1-0.3c-0.4,0-0.7,0.1-1,0.3s-0.4,0.4-0.4,0.7h-1.1
		c0-0.3,0.1-0.6,0.3-0.9s0.5-0.5,0.9-0.7s0.8-0.3,1.3-0.3c0.7,0,1.3,0.2,1.7,0.5s0.6,0.9,0.6,1.5v2.9c0,0.6,0.1,1,0.2,1.4v0.1H43.1z
		 M41.3,566.2c0.3,0,0.7-0.1,1-0.3s0.5-0.4,0.7-0.7V564h-0.8c-1.3,0-2,0.4-2,1.2c0,0.3,0.1,0.6,0.3,0.8S41,566.2,41.3,566.2z"/>
	<path class="st1" d="M47.2,559.2v1.5h1.2v0.8h-1.2v3.9c0,0.3,0.1,0.4,0.2,0.6s0.3,0.2,0.5,0.2c0.1,0,0.3,0,0.5-0.1v0.9
		c-0.3,0.1-0.6,0.1-0.8,0.1c-0.5,0-0.8-0.1-1.1-0.4s-0.4-0.7-0.4-1.2v-3.9H45v-0.8h1.2v-1.5H47.2z"/>
	<path class="st1" d="M56.5,564.8c0-0.3-0.1-0.6-0.3-0.8s-0.5-0.4-0.9-0.5s-0.8-0.3-1.1-0.5s-0.6-0.3-0.8-0.5s-0.4-0.4-0.5-0.7
		s-0.2-0.6-0.2-1c0-0.7,0.2-1.2,0.6-1.6s1-0.7,1.7-0.7v-1.3h0.9v1.3c0.7,0.1,1.2,0.4,1.6,0.9s0.6,1.1,0.6,1.9h-1.7
		c0-0.5-0.1-0.8-0.3-1.1s-0.5-0.3-0.8-0.3c-0.3,0-0.6,0.1-0.7,0.3s-0.3,0.4-0.3,0.8c0,0.3,0.1,0.5,0.3,0.7s0.5,0.4,1,0.6
		s0.9,0.4,1.2,0.5s0.6,0.4,0.8,0.6s0.4,0.4,0.5,0.7s0.2,0.6,0.2,0.9c0,0.7-0.2,1.2-0.6,1.6s-1,0.7-1.7,0.7v1.2h-0.9v-1.2
		c-0.8-0.1-1.4-0.4-1.9-0.9s-0.7-1.1-0.7-1.9h1.7c0,0.5,0.1,0.8,0.3,1.1s0.5,0.4,1,0.4c0.3,0,0.6-0.1,0.8-0.3S56.5,565.1,56.5,564.8
		z"/>
	<path class="st1" d="M63.3,563.7c-0.4,0.4-1,0.7-1.5,0.7c-0.8,0-1.4-0.3-1.8-0.8s-0.7-1.2-0.7-2.1c0-0.6,0.1-1.1,0.4-1.5
		s0.6-0.8,1-1.1s0.9-0.4,1.5-0.4c0.6,0,1.1,0.1,1.5,0.4s0.8,0.7,1,1.2s0.4,1.1,0.4,1.8v0.6c0,1.4-0.4,2.5-1.1,3.4s-1.7,1.2-3,1.3
		l-0.4,0v-1.4l0.4,0C62.3,565.7,63.1,565,63.3,563.7z M62.1,563c0.3,0,0.5-0.1,0.7-0.2s0.3-0.3,0.4-0.5v-0.7c0-0.6-0.1-1-0.3-1.3
		s-0.5-0.5-0.9-0.5c-0.3,0-0.6,0.2-0.8,0.5s-0.3,0.7-0.3,1.2c0,0.5,0.1,0.8,0.3,1.1S61.7,563,62.1,563z"/>
	<path class="st1" d="M66.3,566.2c0-0.3,0.1-0.5,0.3-0.7s0.4-0.3,0.7-0.3c0.3,0,0.5,0.1,0.7,0.3s0.3,0.4,0.3,0.7
		c0,0.3-0.1,0.5-0.3,0.6s-0.4,0.2-0.7,0.2c-0.3,0-0.5-0.1-0.7-0.2S66.3,566.5,66.3,566.2z"/>
	<path class="st1" d="M73.6,563.7c-0.4,0.4-1,0.7-1.5,0.7c-0.8,0-1.4-0.3-1.8-0.8s-0.7-1.2-0.7-2.1c0-0.6,0.1-1.1,0.4-1.5
		s0.6-0.8,1-1.1s0.9-0.4,1.5-0.4c0.6,0,1.1,0.1,1.5,0.4s0.8,0.7,1,1.2s0.4,1.1,0.4,1.8v0.6c0,1.4-0.4,2.5-1.1,3.4s-1.7,1.2-3,1.3
		l-0.4,0v-1.4l0.4,0C72.7,565.7,73.5,565,73.6,563.7z M72.5,563c0.3,0,0.5-0.1,0.7-0.2s0.3-0.3,0.4-0.5v-0.7c0-0.6-0.1-1-0.3-1.3
		s-0.5-0.5-0.9-0.5c-0.3,0-0.6,0.2-0.8,0.5s-0.3,0.7-0.3,1.2c0,0.5,0.1,0.8,0.3,1.1S72.1,563,72.5,563z"/>
	<path class="st1" d="M80.5,563.7c-0.4,0.4-1,0.7-1.5,0.7c-0.8,0-1.4-0.3-1.8-0.8s-0.7-1.2-0.7-2.1c0-0.6,0.1-1.1,0.4-1.5
		s0.6-0.8,1-1.1s0.9-0.4,1.5-0.4c0.6,0,1.1,0.1,1.5,0.4s0.8,0.7,1,1.2s0.4,1.1,0.4,1.8v0.6c0,1.4-0.4,2.5-1.1,3.4s-1.7,1.2-3,1.3
		l-0.4,0v-1.4l0.4,0C79.6,565.7,80.4,565,80.5,563.7z M79.4,563c0.3,0,0.5-0.1,0.7-0.2s0.3-0.3,0.4-0.5v-0.7c0-0.6-0.1-1-0.3-1.3
		s-0.5-0.5-0.9-0.5c-0.3,0-0.6,0.2-0.8,0.5s-0.3,0.7-0.3,1.2c0,0.5,0.1,0.8,0.3,1.1S79,563,79.4,563z"/>
	<path class="st1" d="M84,567.8h-1.3l3.1-9.3h1.3L84,567.8z"/>
	<path class="st1" d="M89.6,560.7l0.1,0.7c0.4-0.6,1.1-0.8,1.8-0.8c0.8,0,1.4,0.3,1.7,1c0.4-0.6,1.1-1,1.9-1c0.7,0,1.2,0.2,1.5,0.6
		s0.5,1,0.5,1.8v4h-1.7v-4c0-0.4-0.1-0.6-0.2-0.8s-0.4-0.2-0.7-0.2c-0.5,0-0.9,0.2-1.1,0.7l0,4.4h-1.7v-4c0-0.4-0.1-0.6-0.2-0.8
		s-0.4-0.2-0.7-0.2c-0.5,0-0.8,0.2-1,0.6v4.5H88v-6.3H89.6z"/>
	<path class="st1" d="M98.1,563.8c0-0.6,0.1-1.2,0.4-1.7s0.6-0.9,1-1.1s1-0.4,1.6-0.4c0.9,0,1.6,0.3,2.1,0.8s0.8,1.2,0.9,2.1l0,0.4
		c0,1-0.3,1.8-0.8,2.3s-1.3,0.9-2.2,0.9s-1.6-0.3-2.2-0.9S98.1,564.9,98.1,563.8L98.1,563.8z M99.8,564c0,0.6,0.1,1.1,0.3,1.4
		c0.2,0.3,0.6,0.5,1,0.5c0.4,0,0.7-0.2,1-0.5c0.2-0.3,0.3-0.8,0.3-1.5c0-0.6-0.1-1-0.3-1.4c-0.2-0.3-0.6-0.5-1-0.5
		c-0.4,0-0.7,0.2-1,0.5C99.9,562.8,99.8,563.3,99.8,564z"/>
	<path class="st1" d="M106.7,560.7l0.1,0.7c0.5-0.6,1.1-0.8,1.8-0.8c0.7,0,1.2,0.2,1.5,0.6s0.5,1,0.5,1.8v4.1h-1.7V563
		c0-0.4-0.1-0.6-0.2-0.8s-0.4-0.2-0.8-0.2c-0.5,0-0.8,0.2-1.1,0.6v4.5h-1.7v-6.3H106.7z"/>
	<path class="st1" d="M113.9,559.2v1.6h1.1v1.2h-1.1v3.2c0,0.2,0,0.4,0.1,0.5s0.3,0.2,0.5,0.2c0.2,0,0.4,0,0.5,0v1.3
		c-0.3,0.1-0.7,0.2-1,0.2c-1.2,0-1.8-0.6-1.8-1.8V562h-0.9v-1.2h0.9v-1.6H113.9z"/>
	<path class="st1" d="M117.6,561.4c0.4-0.5,1-0.8,1.7-0.8c1.4,0,2.1,0.8,2.1,2.4v4.1h-1.7v-4c0-0.4-0.1-0.6-0.2-0.8
		s-0.4-0.3-0.8-0.3c-0.5,0-0.9,0.2-1.1,0.6v4.5h-1.7v-9h1.7V561.4z"/>
</g>
</svg>
