<?xml version="1.0" encoding="utf-8"?>
<!-- Generator: Adobe Illustrator 24.2.3, SVG Export Plug-In . SVG Version: 6.00 Build 0)  -->
<svg version="1.1" id="Layer_1" xmlns="http://www.w3.org/2000/svg" xmlns:xlink="http://www.w3.org/1999/xlink" x="0px" y="0px"
	 viewBox="0 0 160 600" style="enable-background:new 0 0 160 600;" xml:space="preserve">
<style type="text/css">
	.st0{fill:url(#SVGID_1_);}
</style>
<linearGradient id="SVGID_1_" gradientUnits="userSpaceOnUse" x1="27.959" y1="263.0105" x2="133.457" y2="263.0105">
	<stop  offset="0" style="stop-color:#18B9FB"/>
	<stop  offset="0.5" style="stop-color:#782EEB"/>
	<stop  offset="1" style="stop-color:#E82D8A"/>
</linearGradient>
<path class="st0" d="M35.88,212.49H33.1v7.54h-5.14v-21.33h8.39c2.53,0,4.51,0.56,5.93,1.68s2.14,2.71,2.14,4.76
	c0,1.48-0.3,2.71-0.9,3.69c-0.6,0.98-1.54,1.77-2.82,2.37l4.45,8.61v0.22h-5.51L35.88,212.49z M33.1,208.53h3.25
	c0.98,0,1.71-0.26,2.2-0.77c0.49-0.51,0.74-1.23,0.74-2.15c0-0.92-0.25-1.64-0.75-2.17c-0.5-0.52-1.23-0.79-2.2-0.79H33.1V208.53z
	 M54.97,220.33c-2.43,0-4.4-0.72-5.9-2.18c-1.5-1.45-2.26-3.34-2.26-5.66v-0.41c0-1.62,0.3-3.05,0.9-4.29
	c0.6-1.24,1.48-2.2,2.63-2.88c1.15-0.68,2.52-1.02,4.1-1.02c2.23,0,3.98,0.69,5.27,2.07c1.29,1.38,1.93,3.31,1.93,5.78v1.92h-9.81
	c0.18,0.89,0.56,1.59,1.16,2.09s1.37,0.76,2.31,0.76c1.56,0,2.78-0.55,3.66-1.64l2.26,2.67c-0.62,0.85-1.49,1.53-2.61,2.03
	C57.48,220.07,56.27,220.33,54.97,220.33z M54.41,207.7c-1.45,0-2.3,0.96-2.58,2.87h4.98v-0.38c0.02-0.79-0.18-1.4-0.6-1.84
	S55.2,207.7,54.41,207.7z M70.34,216.52c0.69,0,1.23-0.19,1.61-0.56c0.38-0.38,0.57-0.9,0.56-1.57h4.63c0,1.74-0.62,3.16-1.87,4.28
	c-1.25,1.11-2.85,1.67-4.81,1.67c-2.3,0-4.12-0.72-5.45-2.17s-1.99-3.45-1.99-6.01v-0.21c0-1.6,0.29-3.01,0.89-4.24
	c0.59-1.23,1.44-2.17,2.56-2.83c1.11-0.66,2.43-0.99,3.96-0.99c2.06,0,3.7,0.57,4.91,1.71s1.82,2.69,1.82,4.64H72.5
	c0-0.82-0.2-1.45-0.6-1.89s-0.94-0.66-1.61-0.66c-1.28,0-2.03,0.82-2.24,2.45c-0.07,0.52-0.1,1.23-0.1,2.14
	c0,1.59,0.19,2.7,0.57,3.31S69.51,216.52,70.34,216.52z M86.89,220.33c-2.43,0-4.4-0.72-5.9-2.18c-1.5-1.45-2.26-3.34-2.26-5.66
	v-0.41c0-1.62,0.3-3.05,0.9-4.29c0.6-1.24,1.48-2.2,2.63-2.88c1.15-0.68,2.52-1.02,4.1-1.02c2.23,0,3.98,0.69,5.27,2.07
	c1.29,1.38,1.93,3.31,1.93,5.78v1.92h-9.81c0.18,0.89,0.56,1.59,1.16,2.09s1.37,0.76,2.31,0.76c1.56,0,2.78-0.55,3.66-1.64
	l2.26,2.67c-0.62,0.85-1.49,1.53-2.61,2.03C89.4,220.07,88.19,220.33,86.89,220.33z M86.33,207.7c-1.45,0-2.3,0.96-2.58,2.87h4.98
	v-0.38c0.02-0.79-0.18-1.4-0.6-1.84S87.11,207.7,86.33,207.7z M95.52,200.1c0-0.7,0.25-1.28,0.76-1.73s1.17-0.67,1.98-0.67
	s1.47,0.22,1.98,0.67s0.76,1.03,0.76,1.73s-0.25,1.28-0.76,1.73s-1.17,0.67-1.98,0.67s-1.47-0.22-1.98-0.67S95.52,200.8,95.52,200.1
	z M100.76,220.03h-4.95v-15.85h4.95V220.03z M110.12,214.16l2.5-9.98h5.2l-5.17,15.85h-5.04l-5.17-15.85h5.21L110.12,214.16z
	 M126.78,220.33c-2.43,0-4.4-0.72-5.9-2.18c-1.5-1.45-2.26-3.34-2.26-5.66v-0.41c0-1.62,0.3-3.05,0.9-4.29
	c0.6-1.24,1.48-2.2,2.63-2.88c1.15-0.68,2.52-1.02,4.1-1.02c2.23,0,3.98,0.69,5.27,2.07c1.29,1.38,1.93,3.31,1.93,5.78v1.92h-9.81
	c0.18,0.89,0.56,1.59,1.16,2.09s1.37,0.76,2.31,0.76c1.56,0,2.78-0.55,3.66-1.64l2.26,2.67c-0.62,0.85-1.49,1.53-2.61,2.03
	C129.29,220.07,128.08,220.33,126.78,220.33z M126.22,207.7c-1.45,0-2.3,0.96-2.58,2.87h4.98v-0.38c0.02-0.79-0.18-1.4-0.6-1.84
	S127,207.7,126.22,207.7z M30.17,236.1c0-0.7,0.25-1.28,0.76-1.73s1.17-0.67,1.98-0.67s1.47,0.22,1.98,0.67s0.76,1.03,0.76,1.73
	s-0.25,1.28-0.76,1.73s-1.17,0.67-1.98,0.67s-1.47-0.22-1.98-0.67S30.17,236.8,30.17,236.1z M35.42,256.03h-4.95v-15.85h4.95V256.03
	z M37.83,247.99c0-2.51,0.54-4.49,1.63-5.93c1.08-1.44,2.6-2.17,4.54-2.17c1.42,0,2.61,0.56,3.57,1.67v-8.03h4.95v22.5h-4.44
	l-0.25-1.7c-1.02,1.33-2.3,1.99-3.87,1.99c-1.88,0-3.38-0.72-4.48-2.17S37.83,250.66,37.83,247.99z M42.77,248.3
	c0,2.81,0.82,4.22,2.46,4.22c1.09,0,1.88-0.46,2.34-1.38v-6.04c-0.45-0.94-1.22-1.41-2.31-1.41c-1.52,0-2.35,1.23-2.48,3.69
	L42.77,248.3z M63,256.33c-2.43,0-4.4-0.72-5.9-2.18c-1.5-1.45-2.26-3.34-2.26-5.66v-0.41c0-1.62,0.3-3.05,0.9-4.29
	c0.6-1.24,1.48-2.2,2.63-2.88c1.15-0.68,2.52-1.02,4.1-1.02c2.23,0,3.98,0.69,5.27,2.07c1.29,1.38,1.93,3.31,1.93,5.78v1.92h-9.81
	c0.18,0.89,0.56,1.59,1.16,2.09s1.37,0.76,2.31,0.76c1.56,0,2.78-0.55,3.66-1.64l2.26,2.67c-0.62,0.85-1.49,1.53-2.61,2.03
	C65.51,256.07,64.3,256.33,63,256.33z M62.44,243.7c-1.45,0-2.3,0.96-2.58,2.87h4.98v-0.38c0.02-0.79-0.18-1.4-0.6-1.84
	S63.22,243.7,62.44,243.7z M76.2,240.18l0.16,1.86c1.09-1.44,2.6-2.15,4.53-2.15c1.65,0,2.88,0.49,3.7,1.48
	c0.81,0.99,1.24,2.47,1.27,4.45v10.21H80.9v-10c0-0.8-0.16-1.39-0.48-1.76s-0.91-0.56-1.76-0.56c-0.97,0-1.68,0.38-2.15,1.14v11.19
	h-4.94v-15.85H76.2z M94.33,236.24v3.94h2.61v3.43h-2.61v7.25c0,0.6,0.11,1.01,0.32,1.25s0.64,0.35,1.27,0.35
	c0.49,0,0.9-0.03,1.23-0.09v3.53c-0.89,0.28-1.82,0.42-2.78,0.42c-1.7,0-2.95-0.4-3.76-1.2s-1.22-2.02-1.22-3.65v-7.87h-2.02v-3.43
	h2.02v-3.94H94.33z M98.84,236.1c0-0.7,0.25-1.28,0.76-1.73s1.17-0.67,1.98-0.67s1.47,0.22,1.98,0.67s0.76,1.03,0.76,1.73
	s-0.25,1.28-0.76,1.73s-1.17,0.67-1.98,0.67s-1.47-0.22-1.98-0.67S98.84,236.8,98.84,236.1z M104.09,256.03h-4.95v-15.85h4.95
	V256.03z M112.88,236.24v3.94h2.61v3.43h-2.61v7.25c0,0.6,0.11,1.01,0.32,1.25s0.64,0.35,1.27,0.35c0.49,0,0.9-0.03,1.23-0.09v3.53
	c-0.89,0.28-1.82,0.42-2.78,0.42c-1.7,0-2.95-0.4-3.76-1.2s-1.22-2.02-1.22-3.65v-7.87h-2.02v-3.43h2.02v-3.94H112.88z
	 M123.76,249.12l2.64-8.94h5.29l-6.46,18.5l-0.28,0.67c-0.92,2.05-2.54,3.08-4.86,3.08c-0.64,0-1.32-0.1-2.04-0.29v-3.52h0.64
	c0.69,0,1.22-0.1,1.59-0.3c0.37-0.2,0.64-0.56,0.81-1.08l0.4-1.06l-5.51-16.01h5.27L123.76,249.12z M54.97,272.24v3.94h2.61v3.43
	h-2.61v7.25c0,0.6,0.11,1.01,0.32,1.25s0.64,0.35,1.27,0.35c0.49,0,0.9-0.03,1.23-0.09v3.53c-0.89,0.28-1.82,0.42-2.78,0.42
	c-1.7,0-2.95-0.4-3.76-1.2s-1.22-2.02-1.22-3.65v-7.87h-2.02v-3.43h2.02v-3.94H54.97z M64.35,277.88c1.05-1.33,2.4-1.99,4.04-1.99
	c1.75,0,3.07,0.52,3.96,1.55s1.34,2.56,1.36,4.58v10h-4.95v-9.89c0-0.84-0.17-1.46-0.51-1.85c-0.34-0.4-0.92-0.59-1.74-0.59
	c-1.02,0-1.73,0.32-2.15,0.97v11.37h-4.94v-22.5h4.94V277.88z M84.12,292.33c-2.43,0-4.4-0.72-5.9-2.18
	c-1.5-1.45-2.26-3.34-2.26-5.66v-0.41c0-1.62,0.3-3.05,0.9-4.29c0.6-1.24,1.48-2.2,2.63-2.88c1.15-0.68,2.52-1.02,4.1-1.02
	c2.23,0,3.98,0.69,5.27,2.07c1.29,1.38,1.93,3.31,1.93,5.78v1.92h-9.81c0.18,0.89,0.56,1.59,1.16,2.09s1.37,0.76,2.31,0.76
	c1.56,0,2.78-0.55,3.66-1.64l2.26,2.67c-0.62,0.85-1.49,1.53-2.61,2.03C86.63,292.07,85.42,292.33,84.12,292.33z M83.57,279.7
	c-1.45,0-2.3,0.96-2.58,2.87h4.98v-0.38c0.02-0.79-0.18-1.4-0.6-1.84S84.35,279.7,83.57,279.7z M93.88,292.03v-12.42h-2.3v-3.43h2.3
	v-1.26c0-1.81,0.53-3.21,1.6-4.2s2.56-1.49,4.48-1.49c0.7,0,1.47,0.1,2.31,0.31l0.01,3.63c-0.3-0.09-0.71-0.13-1.22-0.13
	c-1.49,0-2.24,0.64-2.24,1.93v1.22h3.09v3.43h-3.09v12.42H93.88z M109.41,272.24v3.94h2.61v3.43h-2.61v7.25
	c0,0.6,0.11,1.01,0.32,1.25s0.64,0.35,1.27,0.35c0.49,0,0.9-0.03,1.23-0.09v3.53c-0.89,0.28-1.82,0.42-2.78,0.42
	c-1.7,0-2.95-0.4-3.76-1.2s-1.22-2.02-1.22-3.65v-7.87h-2.02v-3.43h2.02v-3.94H109.41z M51.38,328.03c-0.18-0.32-0.33-0.8-0.47-1.42
	c-0.91,1.14-2.18,1.71-3.81,1.71c-1.49,0-2.76-0.45-3.81-1.36c-1.04-0.9-1.57-2.04-1.57-3.41c0-1.72,0.63-3.02,1.9-3.9
	s3.12-1.32,5.54-1.32h1.52v-0.84c0-1.46-0.63-2.19-1.89-2.19c-1.17,0-1.76,0.58-1.76,1.74h-4.94c0-1.53,0.65-2.78,1.96-3.73
	c1.3-0.96,2.97-1.43,4.99-1.43s3.62,0.49,4.79,1.48s1.77,2.34,1.8,4.06v7.02c0.02,1.46,0.24,2.57,0.67,3.34v0.25H51.38z
	 M48.29,324.81c0.62,0,1.12-0.13,1.53-0.4s0.7-0.56,0.87-0.89v-2.53h-1.44c-1.72,0-2.58,0.77-2.58,2.31c0,0.45,0.15,0.81,0.45,1.09
	C47.44,324.67,47.82,324.81,48.29,324.81z M63.58,328.03h-4.95v-22.5h4.95V328.03z M74.29,328.33c-2.43,0-4.4-0.72-5.9-2.18
	c-1.5-1.45-2.26-3.34-2.26-5.66v-0.41c0-1.62,0.3-3.05,0.9-4.29c0.6-1.24,1.48-2.2,2.63-2.88c1.15-0.68,2.52-1.02,4.1-1.02
	c2.23,0,3.98,0.69,5.27,2.07c1.29,1.38,1.93,3.31,1.93,5.78v1.92h-9.81c0.18,0.89,0.56,1.59,1.16,2.09s1.37,0.76,2.31,0.76
	c1.56,0,2.78-0.55,3.66-1.64l2.26,2.67c-0.62,0.85-1.49,1.53-2.61,2.03C76.8,328.07,75.59,328.33,74.29,328.33z M73.74,315.7
	c-1.45,0-2.3,0.96-2.58,2.87h4.98v-0.38c0.02-0.79-0.18-1.4-0.6-1.84S74.52,315.7,73.74,315.7z M92.54,316.65l-1.63-0.12
	c-1.55,0-2.55,0.49-2.99,1.46v10.03h-4.94v-15.85h4.63l0.16,2.04c0.83-1.55,1.99-2.33,3.47-2.33c0.53,0,0.99,0.06,1.38,0.18
	L92.54,316.65z M100.81,308.24v3.94h2.61v3.43h-2.61v7.25c0,0.6,0.11,1.01,0.32,1.25s0.64,0.35,1.27,0.35c0.49,0,0.9-0.03,1.23-0.09
	v3.53c-0.89,0.28-1.82,0.42-2.78,0.42c-1.7,0-2.95-0.4-3.76-1.2s-1.22-2.02-1.22-3.65v-7.87h-2.02v-3.43h2.02v-3.94H100.81z
	 M113.65,323.58c0-0.42-0.22-0.76-0.66-1.01s-1.27-0.52-2.5-0.79s-2.25-0.63-3.05-1.08c-0.8-0.44-1.41-0.98-1.83-1.62
	s-0.63-1.36-0.63-2.18c0-1.46,0.6-2.65,1.8-3.6s2.77-1.41,4.72-1.41c2.09,0,3.77,0.47,5.04,1.42s1.9,2.19,1.9,3.74h-4.95
	c0-1.27-0.67-1.9-2.01-1.9c-0.52,0-0.95,0.14-1.3,0.43c-0.35,0.29-0.53,0.65-0.53,1.08c0,0.44,0.21,0.8,0.64,1.07
	s1.12,0.5,2.06,0.67c0.94,0.18,1.77,0.39,2.48,0.63c2.38,0.82,3.57,2.29,3.57,4.41c0,1.45-0.64,2.62-1.93,3.53
	c-1.29,0.91-2.95,1.36-4.99,1.36c-1.36,0-2.57-0.24-3.63-0.73s-1.89-1.15-2.49-1.99s-0.89-1.72-0.89-2.65h4.61
	c0.02,0.73,0.26,1.27,0.73,1.6c0.47,0.34,1.07,0.5,1.8,0.5c0.67,0,1.18-0.14,1.52-0.41C113.48,324.38,113.65,324.02,113.65,323.58z"
	/>
</svg>
