<?xml version="1.0" encoding="utf-8"?>
<!-- Generator: Adobe Illustrator 24.2.3, SVG Export Plug-In . SVG Version: 6.00 Build 0)  -->
<svg version="1.1" id="Layer_1" xmlns="http://www.w3.org/2000/svg" xmlns:xlink="http://www.w3.org/1999/xlink" x="0px" y="0px"
	 viewBox="0 0 160 600" style="enable-background:new 0 0 160 600;" xml:space="preserve">
<style type="text/css">
	.st0{fill:#021D8B;stroke:url(#SVGID_1_);stroke-width:2;stroke-miterlimit:10;}
	.st1{fill:#FFFFFF;}
</style>
<linearGradient id="SVGID_1_" gradientUnits="userSpaceOnUse" x1="18" y1="352.5197" x2="142" y2="352.5197">
	<stop  offset="0" style="stop-color:#18B9FB"/>
	<stop  offset="0.5" style="stop-color:#782EEB"/>
	<stop  offset="1" style="stop-color:#E82D8A"/>
</linearGradient>
<path class="st0" d="M120.5,373.02h-81c-11.32,0-20.5-9.18-20.5-20.5v0c0-11.32,9.18-20.5,20.5-20.5h81c11.32,0,20.5,9.18,20.5,20.5
	v0C141,363.84,131.82,373.02,120.5,373.02z"/>
<g>
	<path class="st1" d="M37.62,355.45h5.6v2.12h-8.24v-12.8h2.64V355.45z"/>
	<path class="st1" d="M48.94,357.74c-1.39,0-2.53-0.43-3.41-1.28s-1.31-2-1.31-3.42v-0.25c0-0.96,0.18-1.81,0.55-2.56
		s0.89-1.33,1.57-1.74s1.45-0.61,2.32-0.61c1.3,0,2.32,0.41,3.07,1.23s1.12,1.98,1.12,3.49v1.04H46.8c0.08,0.62,0.33,1.12,0.74,1.49
		s0.94,0.56,1.57,0.56c0.98,0,1.74-0.35,2.29-1.06l1.25,1.4c-0.38,0.54-0.9,0.96-1.55,1.26S49.73,357.74,48.94,357.74z
		 M48.65,349.93c-0.5,0-0.91,0.17-1.23,0.51c-0.31,0.34-0.51,0.83-0.6,1.47h3.53v-0.2c-0.01-0.57-0.16-1-0.46-1.31
		C49.61,350.08,49.19,349.93,48.65,349.93z"/>
	<path class="st1" d="M59.81,357.57c-0.12-0.23-0.2-0.51-0.25-0.85c-0.62,0.69-1.42,1.03-2.4,1.03c-0.93,0-1.7-0.27-2.32-0.81
		s-0.92-1.22-0.92-2.04c0-1.01,0.37-1.78,1.12-2.32s1.83-0.81,3.24-0.82h1.17v-0.54c0-0.44-0.11-0.79-0.34-1.05s-0.58-0.4-1.07-0.4
		c-0.43,0-0.76,0.1-1.01,0.31s-0.36,0.49-0.36,0.84h-2.54c0-0.55,0.17-1.06,0.51-1.53s0.82-0.84,1.44-1.1s1.32-0.4,2.09-0.4
		c1.17,0,2.1,0.29,2.79,0.88s1.03,1.42,1.03,2.48v4.12c0.01,0.9,0.13,1.58,0.38,2.05v0.15H59.81z M57.71,355.8
		c0.38,0,0.72-0.08,1.04-0.25s0.55-0.39,0.7-0.67v-1.63H58.5c-1.27,0-1.95,0.44-2.03,1.32l-0.01,0.15c0,0.32,0.11,0.58,0.33,0.78
		S57.32,355.8,57.71,355.8z"/>
	<path class="st1" d="M69.29,350.44c-0.35-0.05-0.65-0.07-0.91-0.07c-0.96,0-1.59,0.33-1.89,0.98v6.22h-2.54v-9.51h2.4l0.07,1.13
		c0.51-0.87,1.22-1.31,2.12-1.31c0.28,0,0.54,0.04,0.79,0.11L69.29,350.44z"/>
	<path class="st1" d="M72.85,348.06l0.08,1.1c0.68-0.85,1.59-1.27,2.73-1.27c1.01,0,1.76,0.3,2.25,0.89s0.74,1.48,0.76,2.65v6.14
		h-2.54v-6.08c0-0.54-0.12-0.93-0.35-1.17s-0.62-0.36-1.17-0.36c-0.71,0-1.25,0.3-1.61,0.91v6.71h-2.54v-9.51H72.85z"/>
	<path class="st1" d="M87.46,348.06l0.08,1.06c0.67-0.83,1.58-1.24,2.73-1.24c1.22,0,2.07,0.48,2.52,1.45
		c0.67-0.97,1.62-1.45,2.86-1.45c1.03,0,1.8,0.3,2.3,0.9s0.76,1.5,0.76,2.71v6.07h-2.55v-6.06c0-0.54-0.11-0.93-0.32-1.18
		s-0.58-0.37-1.12-0.37c-0.76,0-1.29,0.36-1.58,1.09l0.01,6.53h-2.54v-6.06c0-0.55-0.11-0.95-0.33-1.2s-0.59-0.37-1.11-0.37
		c-0.72,0-1.24,0.3-1.56,0.9v6.72h-2.54v-9.51H87.46z"/>
	<path class="st1" d="M100.26,352.73c0-0.94,0.18-1.78,0.54-2.52s0.89-1.31,1.57-1.71s1.47-0.61,2.38-0.61
		c1.28,0,2.33,0.39,3.14,1.18s1.26,1.85,1.36,3.2l0.02,0.65c0,1.46-0.41,2.63-1.22,3.51s-1.91,1.32-3.28,1.32s-2.46-0.44-3.28-1.32
		s-1.23-2.07-1.23-3.59V352.73z M102.8,352.91c0,0.9,0.17,1.59,0.51,2.07s0.83,0.72,1.46,0.72c0.62,0,1.1-0.24,1.44-0.71
		s0.52-1.23,0.52-2.27c0-0.89-0.17-1.57-0.52-2.06s-0.83-0.73-1.46-0.73c-0.62,0-1.1,0.24-1.44,0.73
		C102.97,351.14,102.8,351.89,102.8,352.91z"/>
	<path class="st1" d="M116.18,350.44c-0.35-0.05-0.65-0.07-0.91-0.07c-0.96,0-1.59,0.33-1.89,0.98v6.22h-2.54v-9.51h2.4l0.07,1.13
		c0.51-0.87,1.21-1.31,2.12-1.31c0.28,0,0.54,0.04,0.79,0.11L116.18,350.44z"/>
	<path class="st1" d="M121.78,357.74c-1.39,0-2.53-0.43-3.41-1.28s-1.31-2-1.31-3.42v-0.25c0-0.96,0.19-1.81,0.55-2.56
		s0.89-1.33,1.57-1.74s1.45-0.61,2.32-0.61c1.3,0,2.32,0.41,3.07,1.23s1.12,1.98,1.12,3.49v1.04h-6.05
		c0.08,0.62,0.33,1.12,0.74,1.49s0.94,0.56,1.57,0.56c0.98,0,1.74-0.35,2.29-1.06l1.25,1.4c-0.38,0.54-0.9,0.96-1.55,1.26
		S122.57,357.74,121.78,357.74z M121.49,349.93c-0.5,0-0.91,0.17-1.23,0.51c-0.31,0.34-0.51,0.83-0.6,1.47h3.53v-0.2
		c-0.01-0.57-0.16-1-0.46-1.31C122.44,350.08,122.03,349.93,121.49,349.93z"/>
</g>
</svg>
