<svg id="Layer_1" xmlns="http://www.w3.org/2000/svg" viewBox="0 0 300 250"><style>.st0{fill:#021d8b}.st1{fill:#782eeb}</style><g id="Tis_the_season_26_"><path class="st0" d="M172.51 173.32l1.01-5.51h2.1l-1.86 8.79h-2.2l-1.18-5.01-1.15 5.01h-2.19l-1.87-8.79h2.11l1.01 5.51 1.21-5.51h1.8l1.21 5.51zM179.32 176.72c-1 0-1.81-.3-2.43-.9-.62-.6-.93-1.38-.93-2.33v-.17c0-.67.12-1.26.37-1.77s.61-.91 1.08-1.19c.47-.28 1.04-.42 1.69-.42.92 0 1.64.28 2.17.85s.8 1.36.8 2.38v.79h-4.04c.07.37.23.65.48.86.25.21.56.31.95.31.64 0 1.15-.23 1.51-.68l.93 1.1c-.25.35-.61.63-1.08.84-.46.22-.96.33-1.5.33zm-.23-5.21c-.6 0-.95.39-1.06 1.18h2.05v-.16c.01-.33-.07-.58-.25-.76-.17-.17-.42-.26-.74-.26zM183.94 168.3l-.2 2.49h-1.25v-3.47h1.45v.98zM186.86 176.59h-2.04v-9.27h2.04v9.27zM190.26 176.59h-2.04v-9.27h2.04v9.27zM196.51 170.06l.07.77c.46-.59 1.08-.89 1.86-.89.82 0 1.38.33 1.67.98.44-.66 1.08-.98 1.92-.98 1.32 0 2 .8 2.04 2.4v4.25h-2.04v-4.12c0-.33-.06-.58-.17-.73s-.32-.23-.62-.23c-.4 0-.7.18-.9.54l.01.08v4.46h-2.04v-4.11c0-.34-.05-.59-.16-.74-.11-.15-.32-.23-.62-.23-.39 0-.69.18-.89.54v4.54h-2.03v-6.53h1.9zM204.98 173.27c0-.65.13-1.23.38-1.74s.62-.9 1.09-1.17c.47-.27 1.03-.41 1.67-.41.98 0 1.75.3 2.31.91.56.61.84 1.43.84 2.47v.07c0 1.02-.28 1.83-.85 2.42-.57.6-1.33.9-2.3.9-.93 0-1.68-.28-2.24-.84s-.87-1.31-.91-2.27l.01-.34zm2.03.13c0 .6.09 1.05.28 1.33.19.28.47.42.84.42.72 0 1.09-.56 1.11-1.67v-.21c0-1.17-.37-1.76-1.12-1.76-.68 0-1.05.5-1.1 1.51l-.01.38zM214.04 170.06l.07.77c.45-.59 1.07-.89 1.86-.89.68 0 1.19.2 1.52.61.34.41.51 1.02.52 1.83v4.21h-2.04v-4.12c0-.33-.07-.57-.2-.73-.13-.15-.37-.23-.72-.23-.4 0-.69.16-.89.47v4.61h-2.03v-6.53h1.91zM219.13 168.38c0-.29.1-.53.31-.71.21-.19.48-.28.81-.28.33 0 .61.09.81.28.21.18.31.42.31.71s-.1.53-.31.71c-.21.19-.48.28-.81.28-.33 0-.61-.09-.81-.28a.89.89 0 0 1-.31-.71zm2.16 8.21h-2.04v-6.53h2.04v6.53zM224.91 168.44v1.62h1.07v1.41h-1.07v2.99c0 .25.04.42.13.51.09.1.26.14.53.14.2 0 .37-.01.51-.04v1.45c-.37.12-.75.18-1.15.18-.7 0-1.22-.17-1.55-.49-.33-.33-.5-.83-.5-1.5v-3.24h-.83v-1.41h.83v-1.62h2.03zM226.35 173.27c0-.65.13-1.23.38-1.74s.62-.9 1.09-1.17c.47-.27 1.03-.41 1.67-.41.98 0 1.75.3 2.31.91.56.61.84 1.43.84 2.47v.07c0 1.02-.28 1.83-.85 2.42-.57.6-1.33.9-2.3.9-.93 0-1.68-.28-2.24-.84s-.87-1.31-.91-2.27l.01-.34zm2.03.13c0 .6.09 1.05.28 1.33.19.28.47.42.84.42.72 0 1.09-.56 1.11-1.67v-.21c0-1.17-.37-1.76-1.12-1.76-.68 0-1.05.5-1.1 1.51l-.01.38zM237.49 171.91l-.67-.05c-.64 0-1.05.2-1.23.6v4.13h-2.03v-6.53h1.91l.07.84c.34-.64.82-.96 1.43-.96.22 0 .41.02.57.07l-.05 1.9zM243.92 173.75l1.09-3.68h2.18l-2.66 7.62-.11.28c-.38.84-1.05 1.27-2 1.27-.27 0-.55-.04-.84-.12v-1.45h.27c.29 0 .5-.04.66-.12.15-.08.26-.23.33-.44l.16-.43-2.27-6.6h2.17l1.02 3.67zM247.36 173.27c0-.65.13-1.23.38-1.74s.62-.9 1.09-1.17c.47-.27 1.03-.41 1.67-.41.98 0 1.75.3 2.31.91.56.61.84 1.43.84 2.47v.07c0 1.02-.28 1.83-.85 2.42-.57.6-1.33.9-2.3.9-.93 0-1.68-.28-2.24-.84s-.87-1.31-.91-2.27l.01-.34zm2.04.13c0 .6.09 1.05.28 1.33.19.28.47.42.84.42.72 0 1.09-.56 1.11-1.67v-.21c0-1.17-.37-1.76-1.12-1.76-.68 0-1.05.5-1.1 1.51l-.01.38zM258.45 175.89c-.43.55-1.01.83-1.74.83-.72 0-1.26-.21-1.63-.62-.37-.42-.55-1.01-.55-1.8v-4.23h2.03v4.24c0 .56.27.84.81.84.47 0 .8-.17 1-.5v-4.58h2.05v6.53h-1.91l-.06-.71zM265.48 171.91l-.67-.05c-.64 0-1.05.2-1.23.6v4.13h-2.03v-6.53h1.91l.07.84c.34-.64.82-.96 1.43-.96.22 0 .41.02.57.07l-.05 1.9z"/><path class="st1" d="M168.37 189.98c.29 0 .51-.08.66-.23.16-.15.23-.37.23-.65h1.91c0 .72-.26 1.3-.77 1.76-.51.46-1.17.69-1.98.69-.95 0-1.7-.3-2.25-.89-.55-.6-.82-1.42-.82-2.47v-.08c0-.66.12-1.24.36-1.75.24-.5.59-.89 1.05-1.16.46-.27 1-.41 1.63-.41.85 0 1.52.24 2.02.71s.75 1.11.75 1.91h-1.91c0-.34-.08-.6-.25-.78-.16-.18-.39-.27-.66-.27-.53 0-.83.34-.92 1.01-.03.21-.04.51-.04.88 0 .66.08 1.11.24 1.36.16.24.41.37.75.37zM175.98 186.74l-.67-.05c-.64 0-1.05.2-1.23.6v4.13h-2.03v-6.53h1.91l.07.84c.34-.64.82-.96 1.43-.96.22 0 .41.02.57.07l-.05 1.9zM179.76 191.55c-1 0-1.81-.3-2.43-.9-.62-.6-.93-1.38-.93-2.33v-.17c0-.67.12-1.26.37-1.77s.61-.91 1.08-1.19c.47-.28 1.04-.42 1.69-.42.92 0 1.64.28 2.17.85s.8 1.36.8 2.38v.79h-4.04c.07.37.23.65.48.86.25.21.56.31.95.31.64 0 1.15-.23 1.51-.68l.93 1.1c-.25.35-.61.63-1.08.84-.47.22-.97.33-1.5.33zm-.23-5.21c-.6 0-.95.39-1.06 1.18h2.05v-.16c.01-.33-.07-.58-.25-.76-.17-.17-.42-.26-.74-.26zM183.07 188.11c0-1.03.22-1.85.67-2.44.45-.6 1.07-.89 1.87-.89.58 0 1.07.23 1.47.69v-3.31h2.04v9.27h-1.83l-.1-.7c-.42.55-.95.82-1.59.82-.78 0-1.39-.3-1.85-.89-.45-.6-.68-1.45-.68-2.55zm2.03.13c0 1.16.34 1.74 1.01 1.74.45 0 .77-.19.97-.57v-2.49c-.19-.39-.5-.58-.95-.58-.63 0-.97.51-1.02 1.52l-.01.38zM190.26 183.21c0-.29.1-.53.31-.71.21-.18.48-.28.81-.28s.61.09.81.28c.21.18.31.42.31.71s-.1.53-.31.71c-.21.18-.48.28-.81.28s-.61-.09-.81-.28a.922.922 0 0 1-.31-.71zm2.16 8.22h-2.04v-6.53h2.04v6.53zM196.04 183.27v1.62h1.07v1.41h-1.07v2.99c0 .25.04.42.13.51s.26.14.53.14c.2 0 .37-.01.51-.04v1.45c-.37.12-.75.18-1.15.18-.7 0-1.22-.17-1.55-.49-.33-.33-.5-.83-.5-1.5v-3.24h-.83v-1.41h.83v-1.62h2.03zM203.76 189.98c.29 0 .51-.08.66-.23.16-.15.23-.37.23-.65h1.91c0 .72-.26 1.3-.77 1.76-.51.46-1.17.69-1.98.69-.95 0-1.7-.3-2.25-.89-.55-.6-.82-1.42-.82-2.47v-.08c0-.66.12-1.24.36-1.75.24-.5.59-.89 1.05-1.16.46-.27 1-.41 1.63-.41.85 0 1.52.24 2.02.71s.75 1.11.75 1.91h-1.91c0-.34-.08-.6-.25-.78-.16-.18-.39-.27-.66-.27-.53 0-.83.34-.92 1.01-.03.21-.04.51-.04.88 0 .66.08 1.11.24 1.36.16.24.41.37.75.37zM211.1 191.43c-.07-.13-.14-.33-.19-.59-.37.47-.9.71-1.57.71-.62 0-1.14-.19-1.57-.56-.43-.37-.65-.84-.65-1.4 0-.71.26-1.24.78-1.61.52-.36 1.28-.54 2.28-.54h.63v-.35c0-.6-.26-.9-.78-.9-.48 0-.72.24-.72.72h-2.03c0-.63.27-1.14.81-1.54.54-.39 1.22-.59 2.06-.59s1.49.2 1.97.61.73.96.74 1.67v2.89c.01.6.1 1.06.28 1.38v.1h-2.04zm-1.28-1.33c.25 0 .46-.05.63-.16.17-.11.29-.23.36-.37v-1.04h-.59c-.71 0-1.06.32-1.06.95 0 .19.06.33.19.45s.28.17.47.17zM217.93 186.74l-.67-.05c-.64 0-1.05.2-1.23.6v4.13H214v-6.53h1.91l.07.84c.34-.64.82-.96 1.43-.96.22 0 .41.02.57.07l-.05 1.9zM218.29 188.11c0-1.03.22-1.85.67-2.44.45-.6 1.07-.89 1.87-.89.58 0 1.07.23 1.47.69v-3.31h2.04v9.27h-1.83l-.1-.7c-.42.55-.95.82-1.59.82-.78 0-1.39-.3-1.85-.89-.45-.6-.68-1.45-.68-2.55zm2.03.13c0 1.16.34 1.74 1.01 1.74.45 0 .77-.19.97-.57v-2.49c-.19-.39-.5-.58-.95-.58-.63 0-.97.51-1.02 1.52l-.01.38zM228.92 189.59c0-.17-.09-.31-.27-.42-.18-.1-.53-.21-1.03-.33-.51-.11-.93-.26-1.26-.44-.33-.18-.58-.41-.75-.67a1.61 1.61 0 0 1-.26-.9c0-.6.25-1.09.74-1.48s1.14-.58 1.94-.58c.86 0 1.55.2 2.08.59.52.39.78.9.78 1.54h-2.04c0-.52-.28-.78-.83-.78-.21 0-.39.06-.54.18-.14.12-.22.27-.22.44 0 .18.09.33.27.44.18.11.46.21.85.28.39.07.73.16 1.02.26.98.34 1.47.94 1.47 1.82 0 .6-.26 1.08-.79 1.45-.53.37-1.21.56-2.05.56-.56 0-1.06-.1-1.5-.3-.44-.2-.78-.47-1.03-.82s-.37-.71-.37-1.09h1.9c.01.3.11.52.3.66s.44.21.74.21c.28 0 .49-.06.62-.17.16-.12.23-.27.23-.45z"/></g></svg>