<svg id="Layer_1" xmlns="http://www.w3.org/2000/svg" viewBox="0 0 300 250"><style>.st0{fill:#021d8b;stroke:url(#SVGID_1_);stroke-miterlimit:10}.st1{fill:#fff}</style><linearGradient id="SVGID_1_" gradientUnits="userSpaceOnUse" x1="242.93" y1="236.622" x2="294.604" y2="236.622"><stop offset="0" stop-color="#18b9fb"/><stop offset=".5" stop-color="#782eeb"/><stop offset="1" stop-color="#e82d8a"/></linearGradient><path class="st0" d="M285.59 245.14h-33.64a8.51 8.51 0 1 1 0-17.02h33.64c4.7 0 8.51 3.81 8.51 8.51 0 4.69-3.81 8.51-8.51 8.51z"/><path class="st1" d="M251.64 237.86h1.92v.73h-2.82v-4.39h.9v3.66zM256.72 236.68h-1.74v1.17h2.04v.73h-2.94v-4.39h2.93v.73h-2.03v1.04h1.74v.72zM260.03 237.68h-1.58l-.3.9h-.96l1.63-4.39h.84l1.64 4.39h-.96l-.31-.9zm-1.34-.73h1.1l-.55-1.64-.55 1.64zM263.33 236.98h-.72v1.61h-.9v-4.39h1.63c.52 0 .92.12 1.2.35.28.23.42.56.42.98 0 .3-.06.55-.19.75s-.33.36-.59.48l.95 1.79v.04h-.97l-.83-1.61zm-.72-.74h.73c.23 0 .4-.06.53-.17a.64.64 0 0 0 .19-.48c0-.21-.06-.37-.18-.49s-.3-.18-.54-.18h-.73v1.32zM269.21 238.58h-.9l-1.76-2.89v2.89h-.9v-4.39h.9l1.76 2.89v-2.89h.9v4.39zM272.72 234.2l1.13 3.18 1.12-3.18h1.19v4.39h-.91v-1.2l.09-2.07-1.18 3.27h-.62l-1.18-3.27.09 2.07v1.2h-.9v-4.39h1.17zM280.54 236.49c0 .43-.08.81-.23 1.14-.15.33-.37.58-.66.75s-.61.27-.98.27c-.36 0-.69-.09-.97-.26s-.51-.42-.66-.75c-.16-.33-.24-.7-.24-1.12v-.22c0-.43.08-.81.23-1.14.16-.33.38-.58.66-.76s.61-.26.97-.26c.37 0 .69.09.97.26s.5.43.66.76c.16.33.23.71.23 1.14v.19zm-.91-.2c0-.46-.08-.81-.25-1.05-.16-.24-.4-.36-.71-.36-.3 0-.54.12-.7.35-.16.24-.25.58-.25 1.04v.21c0 .45.08.79.25 1.04.17.25.4.37.71.37.3 0 .54-.12.7-.36.16-.24.25-.58.25-1.04v-.2zM282.83 236.98h-.72v1.61h-.9v-4.39h1.63c.52 0 .92.12 1.2.35.28.23.42.56.42.98 0 .3-.06.55-.19.75s-.33.36-.59.48l.95 1.79v.04h-.97l-.83-1.61zm-.72-.74h.73c.23 0 .4-.06.53-.17a.64.64 0 0 0 .19-.48c0-.21-.06-.37-.18-.49s-.3-.18-.54-.18h-.73v1.32zM287.78 236.68h-1.74v1.17h2.04v.73h-2.94v-4.39h2.93v.73h-2.03v1.04h1.74v.72z"/></svg>