<?xml version="1.0" encoding="utf-8"?>
<!-- Generator: Adobe Illustrator 24.3.0, SVG Export Plug-In . SVG Version: 6.00 Build 0)  -->
<svg version="1.1" id="Layer_1" xmlns="http://www.w3.org/2000/svg" xmlns:xlink="http://www.w3.org/1999/xlink" x="0px" y="0px"
	 viewBox="0 0 300 250" style="enable-background:new 0 0 300 250;" xml:space="preserve">
<style type="text/css">
	.st0{fill:url(#SVGID_1_);}
	.st1{fill:url(#SVGID_2_);}
	.st2{fill:url(#SVGID_3_);}
	.st3{fill:url(#SVGID_4_);}
	.st4{fill:url(#SVGID_5_);}
</style>
<g id="Receive">
	<linearGradient id="SVGID_1_" gradientUnits="userSpaceOnUse" x1="-259.9351" y1="116.0269" x2="-124.1323" y2="116.0269">
		<stop  offset="0" style="stop-color:#41B5E8"/>
		<stop  offset="0.5" style="stop-color:#6A53A3"/>
		<stop  offset="1" style="stop-color:#E72E8A"/>
	</linearGradient>
	<path class="st0" d="M-228.7,47.6h-2.6v7h-4.8V34.7h7.8c2.4,0,4.2,0.5,5.5,1.6c1.3,1,2,2.5,2,4.4c0,1.4-0.3,2.5-0.8,3.4
		c-0.6,0.9-1.4,1.6-2.6,2.2l4.2,8v0.2h-5.1L-228.7,47.6z M-231.3,43.9h3c0.9,0,1.6-0.2,2.1-0.7c0.5-0.5,0.7-1.1,0.7-2
		c0-0.9-0.2-1.5-0.7-2c-0.5-0.5-1.1-0.7-2.1-0.7h-3V43.9z M-210.9,54.9c-2.3,0-4.1-0.7-5.5-2s-2.1-3.1-2.1-5.3v-0.4
		c0-1.5,0.3-2.8,0.8-4s1.4-2.1,2.5-2.7s2.4-1,3.8-1c2.1,0,3.7,0.6,4.9,1.9s1.8,3.1,1.8,5.4v1.8h-9.2c0.2,0.8,0.5,1.5,1.1,2
		s1.3,0.7,2.2,0.7c1.5,0,2.6-0.5,3.4-1.5l2.1,2.5c-0.6,0.8-1.4,1.4-2.4,1.9S-209.6,54.9-210.9,54.9z M-211.4,43.1
		c-1.3,0-2.2,0.9-2.4,2.7h4.6v-0.4c0-0.7-0.2-1.3-0.6-1.7S-210.6,43.1-211.4,43.1z M-197,49.1l2.3-9.3h4.9l-4.8,14.8h-4.7l-4.8-14.8
		h4.9L-197,49.1z M-188.5,36c0-0.7,0.2-1.2,0.7-1.6s1.1-0.6,1.8-0.6s1.4,0.2,1.8,0.6s0.7,1,0.7,1.6s-0.2,1.2-0.7,1.6
		s-1.1,0.6-1.8,0.6s-1.4-0.2-1.8-0.6S-188.5,36.7-188.5,36z M-183.6,54.6h-4.6V39.8h4.6V54.6z M-173.6,54.9c-2.3,0-4.1-0.7-5.5-2
		s-2.1-3.1-2.1-5.3v-0.4c0-1.5,0.3-2.8,0.8-4s1.4-2.1,2.5-2.7s2.4-1,3.8-1c2.1,0,3.7,0.6,4.9,1.9s1.8,3.1,1.8,5.4v1.8h-9.2
		c0.2,0.8,0.5,1.5,1.1,2s1.3,0.7,2.2,0.7c1.5,0,2.6-0.5,3.4-1.5l2.1,2.5c-0.6,0.8-1.4,1.4-2.4,1.9S-172.4,54.9-173.6,54.9z
		 M-174.1,43.1c-1.3,0-2.2,0.9-2.4,2.7h4.6v-0.4c0-0.7-0.2-1.3-0.6-1.7S-173.4,43.1-174.1,43.1z M-152.8,48.5l1.5-8.7h4.4l-3.5,14.8
		h-3.9l-2.4-8.8l-2.5,8.8h-3.9l-3.5-14.8h4.4l1.5,8.9l2.4-8.9h3.2L-152.8,48.5z M-221.1,84.9c0.6,0,1.1-0.2,1.5-0.5s0.5-0.8,0.5-1.5
		h4.3c0,1.6-0.6,3-1.7,4s-2.7,1.6-4.5,1.6c-2.2,0-3.8-0.7-5.1-2s-1.9-3.2-1.9-5.6v-0.2c0-1.5,0.3-2.8,0.8-4s1.3-2,2.4-2.6
		s2.3-0.9,3.7-0.9c1.9,0,3.5,0.5,4.6,1.6s1.7,2.5,1.7,4.3h-4.3c0-0.8-0.2-1.4-0.6-1.8s-0.9-0.6-1.5-0.6c-1.2,0-1.9,0.8-2.1,2.3
		c-0.1,0.5-0.1,1.1-0.1,2c0,1.5,0.2,2.5,0.5,3.1S-221.9,84.9-221.1,84.9z M-203.8,77.6l-1.5-0.1c-1.4,0-2.4,0.5-2.8,1.4v9.4h-4.6
		V73.4h4.3l0.2,1.9c0.8-1.4,1.9-2.2,3.2-2.2c0.5,0,0.9,0.1,1.3,0.2L-203.8,77.6z M-195.3,88.5c-2.3,0-4.1-0.7-5.5-2
		s-2.1-3.1-2.1-5.3v-0.4c0-1.5,0.3-2.8,0.8-4s1.4-2.1,2.5-2.7s2.4-1,3.8-1c2.1,0,3.7,0.6,4.9,1.9s1.8,3.1,1.8,5.4v1.8h-9.2
		c0.2,0.8,0.5,1.5,1.1,2s1.3,0.7,2.2,0.7c1.5,0,2.6-0.5,3.4-1.5l2.1,2.5c-0.6,0.8-1.4,1.4-2.4,1.9S-194.1,88.5-195.3,88.5z
		 M-195.8,76.7c-1.3,0-2.2,0.9-2.4,2.7h4.6V79c0-0.7-0.2-1.3-0.6-1.7S-195.1,76.7-195.8,76.7z M-187.8,80.7c0-2.3,0.5-4.2,1.5-5.5
		s2.4-2,4.2-2c1.3,0,2.4,0.5,3.3,1.6v-7.5h4.6v21h-4.1l-0.2-1.6c-0.9,1.2-2.2,1.9-3.6,1.9c-1.8,0-3.2-0.7-4.2-2
		S-187.8,83.2-187.8,80.7z M-183.2,81c0,2.6,0.8,3.9,2.3,3.9c1,0,1.8-0.4,2.2-1.3V78c-0.4-0.9-1.1-1.3-2.2-1.3
		c-1.4,0-2.2,1.1-2.3,3.4L-183.2,81z M-171.5,69.6c0-0.7,0.2-1.2,0.7-1.6s1.1-0.6,1.8-0.6s1.4,0.2,1.8,0.6s0.7,1,0.7,1.6
		s-0.2,1.2-0.7,1.6s-1.1,0.6-1.8,0.6s-1.4-0.2-1.8-0.6S-171.5,70.3-171.5,69.6z M-166.6,88.2h-4.6V73.4h4.6V88.2z M-158.4,69.7v3.7
		h2.4v3.2h-2.4v6.8c0,0.6,0.1,0.9,0.3,1.2s0.6,0.3,1.2,0.3c0.5,0,0.8,0,1.1-0.1v3.3c-0.8,0.3-1.7,0.4-2.6,0.4
		c-1.6,0-2.8-0.4-3.5-1.1s-1.1-1.9-1.1-3.4v-7.3h-1.9v-3.2h1.9v-3.7H-158.4z M-255.6,107l0.2,1.7c1-1.3,2.5-2,4.2-2
		c1.9,0,3.1,0.7,3.8,2.2c1-1.5,2.5-2.2,4.3-2.2c3,0,4.5,1.8,4.6,5.4v9.6h-4.6v-9.3c0-0.8-0.1-1.3-0.4-1.7s-0.7-0.5-1.4-0.5
		c-0.9,0-1.6,0.4-2,1.2l0,0.2v10.1h-4.6v-9.3c0-0.8-0.1-1.3-0.4-1.7s-0.7-0.5-1.4-0.5c-0.9,0-1.6,0.4-2,1.2v10.3h-4.6V107H-255.6z
		 M-236.4,114.3c0-1.5,0.3-2.8,0.9-3.9s1.4-2,2.5-2.7s2.3-0.9,3.8-0.9c2.2,0,4,0.7,5.2,2.1s1.9,3.2,1.9,5.6v0.2
		c0,2.3-0.6,4.1-1.9,5.5s-3,2-5.2,2c-2.1,0-3.8-0.6-5.1-1.9s-2-3-2.1-5.1L-236.4,114.3z M-231.8,114.6c0,1.4,0.2,2.4,0.6,3
		s1.1,1,1.9,1c1.6,0,2.5-1.3,2.5-3.8v-0.5c0-2.7-0.8-4-2.5-4c-1.5,0-2.4,1.1-2.5,3.4L-231.8,114.6z M-215.9,107l0.2,1.7
		c1-1.3,2.4-2,4.2-2c1.5,0,2.7,0.5,3.5,1.4s1.2,2.3,1.2,4.2v9.5h-4.6v-9.3c0-0.7-0.2-1.3-0.5-1.6s-0.8-0.5-1.6-0.5
		c-0.9,0-1.6,0.4-2,1.1v10.4h-4.6V107H-215.9z M-204.4,103.2c0-0.7,0.2-1.2,0.7-1.6s1.1-0.6,1.8-0.6s1.4,0.2,1.8,0.6s0.7,1,0.7,1.6
		s-0.2,1.2-0.7,1.6s-1.1,0.6-1.8,0.6s-1.4-0.2-1.8-0.6S-204.4,103.9-204.4,103.2z M-199.5,121.8h-4.6V107h4.6V121.8z M-191.3,103.3
		v3.7h2.4v3.2h-2.4v6.8c0,0.6,0.1,0.9,0.3,1.2s0.6,0.3,1.2,0.3c0.5,0,0.8,0,1.1-0.1v3.3c-0.8,0.3-1.7,0.4-2.6,0.4
		c-1.6,0-2.8-0.4-3.5-1.1s-1.1-1.9-1.1-3.4v-7.3h-1.9V107h1.9v-3.7H-191.3z M-188,114.3c0-1.5,0.3-2.8,0.9-3.9s1.4-2,2.5-2.7
		s2.3-0.9,3.8-0.9c2.2,0,4,0.7,5.2,2.1s1.9,3.2,1.9,5.6v0.2c0,2.3-0.6,4.1-1.9,5.5s-3,2-5.2,2c-2.1,0-3.8-0.6-5.1-1.9s-2-3-2.1-5.1
		L-188,114.3z M-183.4,114.6c0,1.4,0.2,2.4,0.6,3s1.1,1,1.9,1c1.6,0,2.5-1.3,2.5-3.8v-0.5c0-2.7-0.8-4-2.5-4c-1.5,0-2.4,1.1-2.5,3.4
		L-183.4,114.6z M-162.8,111.2l-1.5-0.1c-1.4,0-2.4,0.5-2.8,1.4v9.4h-4.6V107h4.3l0.2,1.9c0.8-1.4,1.9-2.2,3.2-2.2
		c0.5,0,0.9,0.1,1.3,0.2L-162.8,111.2z M-161.1,103.2c0-0.7,0.2-1.2,0.7-1.6s1.1-0.6,1.8-0.6s1.4,0.2,1.8,0.6s0.7,1,0.7,1.6
		s-0.2,1.2-0.7,1.6s-1.1,0.6-1.8,0.6s-1.4-0.2-1.8-0.6S-161.1,103.9-161.1,103.2z M-156.2,121.8h-4.6V107h4.6V121.8z M-149.2,107
		l0.2,1.7c1-1.3,2.4-2,4.2-2c1.5,0,2.7,0.5,3.5,1.4s1.2,2.3,1.2,4.2v9.5h-4.6v-9.3c0-0.7-0.2-1.3-0.5-1.6s-0.8-0.5-1.6-0.5
		c-0.9,0-1.6,0.4-2,1.1v10.4h-4.6V107H-149.2z M-138.2,114.3c0-1.5,0.2-2.8,0.7-4s1.2-2,2.1-2.7s2-0.9,3.2-0.9
		c1.5,0,2.7,0.5,3.6,1.6l0.2-1.3h4.2v14.2c0,1.3-0.3,2.4-0.9,3.4s-1.5,1.7-2.6,2.2s-2.5,0.8-4,0.8c-1.1,0-2.1-0.2-3.2-0.6
		s-1.8-0.9-2.3-1.6l1.9-2.7c0.9,1,2,1.5,3.4,1.5c2,0,3.1-1,3.1-3.1v-0.5c-0.9,1-2,1.5-3.3,1.5c-1.8,0-3.3-0.7-4.4-2.1
		s-1.7-3.2-1.7-5.5V114.3z M-133.5,114.6c0,1.2,0.2,2.2,0.7,2.9s1.1,1.1,1.9,1.1c1,0,1.7-0.3,2.2-1v-6.2c-0.4-0.7-1.2-1-2.1-1
		c-0.8,0-1.5,0.4-1.9,1.1S-133.5,113.2-133.5,114.6z M-222.7,155.4c-0.2-0.3-0.3-0.7-0.4-1.3c-0.8,1.1-2,1.6-3.6,1.6
		c-1.4,0-2.6-0.4-3.6-1.3s-1.5-1.9-1.5-3.2c0-1.6,0.6-2.8,1.8-3.6s2.9-1.2,5.2-1.2h1.4v-0.8c0-1.4-0.6-2-1.8-2
		c-1.1,0-1.6,0.5-1.6,1.6h-4.6c0-1.4,0.6-2.6,1.8-3.5c1.2-0.9,2.8-1.3,4.7-1.3s3.4,0.5,4.5,1.4s1.7,2.2,1.7,3.8v6.5
		c0,1.4,0.2,2.4,0.6,3.1v0.2H-222.7z M-225.6,152.4c0.6,0,1.1-0.1,1.4-0.4s0.6-0.5,0.8-0.8v-2.4h-1.3c-1.6,0-2.4,0.7-2.4,2.2
		c0,0.4,0.1,0.8,0.4,1S-226,152.4-225.6,152.4z M-211.3,155.4h-4.6v-21h4.6V155.4z M-201.3,155.7c-2.3,0-4.1-0.7-5.5-2
		s-2.1-3.1-2.1-5.3V148c0-1.5,0.3-2.8,0.8-4s1.4-2.1,2.5-2.7s2.4-1,3.8-1c2.1,0,3.7,0.6,4.9,1.9s1.8,3.1,1.8,5.4v1.8h-9.2
		c0.2,0.8,0.5,1.5,1.1,2s1.3,0.7,2.2,0.7c1.5,0,2.6-0.5,3.4-1.5l2.1,2.5c-0.6,0.8-1.4,1.4-2.4,1.9S-200.1,155.7-201.3,155.7z
		 M-201.8,143.9c-1.3,0-2.2,0.9-2.4,2.7h4.6v-0.4c0-0.7-0.2-1.3-0.6-1.7S-201.1,143.9-201.8,143.9z M-184.3,144.8l-1.5-0.1
		c-1.4,0-2.4,0.5-2.8,1.4v9.4h-4.6v-14.8h4.3l0.2,1.9c0.8-1.4,1.9-2.2,3.2-2.2c0.5,0,0.9,0.1,1.3,0.2L-184.3,144.8z M-176.6,136.9
		v3.7h2.4v3.2h-2.4v6.8c0,0.6,0.1,0.9,0.3,1.2s0.6,0.3,1.2,0.3c0.5,0,0.8,0,1.1-0.1v3.3c-0.8,0.3-1.7,0.4-2.6,0.4
		c-1.6,0-2.8-0.4-3.5-1.1s-1.1-1.9-1.1-3.4v-7.3h-1.9v-3.2h1.9v-3.7H-176.6z M-164.6,151.3c0-0.4-0.2-0.7-0.6-0.9s-1.2-0.5-2.3-0.7
		s-2.1-0.6-2.8-1s-1.3-0.9-1.7-1.5s-0.6-1.3-0.6-2c0-1.4,0.6-2.5,1.7-3.4s2.6-1.3,4.4-1.3c2,0,3.5,0.4,4.7,1.3s1.8,2,1.8,3.5h-4.6
		c0-1.2-0.6-1.8-1.9-1.8c-0.5,0-0.9,0.1-1.2,0.4s-0.5,0.6-0.5,1c0,0.4,0.2,0.7,0.6,1s1,0.5,1.9,0.6s1.7,0.4,2.3,0.6
		c2.2,0.8,3.3,2.1,3.3,4.1c0,1.3-0.6,2.4-1.8,3.3s-2.8,1.3-4.7,1.3c-1.3,0-2.4-0.2-3.4-0.7s-1.8-1.1-2.3-1.9s-0.8-1.6-0.8-2.5h4.3
		c0,0.7,0.2,1.2,0.7,1.5s1,0.5,1.7,0.5c0.6,0,1.1-0.1,1.4-0.4S-164.6,151.7-164.6,151.3z M-156.4,160.8l-2.3-1.1l0.5-0.9
		c0.6-1.2,1-2.3,1-3.4v-3.4h3.7l0,3c0,1-0.3,2.1-0.8,3.2S-155.6,160.1-156.4,160.8z M-209.2,196.2h-16.9v-3.7l7.8-8.2
		c1.9-2.2,2.9-3.9,2.9-5.2c0-1-0.2-1.8-0.7-2.4s-1.1-0.8-2-0.8c-0.9,0-1.5,0.4-2.1,1.1c-0.5,0.7-0.8,1.6-0.8,2.7h-5.6
		c0-1.5,0.4-2.9,1.1-4.1c0.7-1.3,1.8-2.2,3.1-2.9s2.8-1.1,4.4-1.1c2.6,0,4.6,0.6,6,1.8c1.4,1.2,2.1,2.9,2.1,5.2c0,1-0.2,1.9-0.5,2.8
		c-0.4,0.9-0.9,1.8-1.7,2.8c-0.7,1-2,2.3-3.6,4l-3.1,3.6h9.5V196.2z M-191.6,186.8h2.5v4.3h-2.5v5.1h-5.6v-5.1h-9.3l-0.3-3.4
		l9.7-15.6v0h5.6V186.8z M-201.5,186.8h4.3v-7.4l-0.3,0.6L-201.5,186.8z M-184.7,198.3h-4l8.3-26.2h4L-184.7,198.3z M-157.9,175
		l-9,21.2h-5.9l9-19.9h-11.5V172h17.4V175z"/>
	<linearGradient id="SVGID_2_" gradientUnits="userSpaceOnUse" x1="-38.5415" y1="-287.0814" x2="212.4868" y2="-287.0814">
		<stop  offset="0" style="stop-color:#41B5E8"/>
		<stop  offset="0.5" style="stop-color:#6A53A3"/>
		<stop  offset="1" style="stop-color:#E72E8A"/>
	</linearGradient>
	<path class="st1" d="M-32.1-300.6h-2v5.5h-3.7v-15.4h6.1c1.8,0,3.3,0.4,4.3,1.2c1,0.8,1.5,2,1.5,3.4c0,1.1-0.2,2-0.7,2.7
		c-0.4,0.7-1.1,1.3-2,1.7l3.2,6.2v0.2h-4L-32.1-300.6z M-34.1-303.4h2.4c0.7,0,1.2-0.2,1.6-0.6c0.4-0.4,0.5-0.9,0.5-1.6
		c0-0.7-0.2-1.2-0.5-1.6c-0.4-0.4-0.9-0.6-1.6-0.6h-2.4V-303.4z M-18.3-294.9c-1.8,0-3.2-0.5-4.3-1.6c-1.1-1-1.6-2.4-1.6-4.1v-0.3
		c0-1.2,0.2-2.2,0.7-3.1c0.4-0.9,1.1-1.6,1.9-2.1c0.8-0.5,1.8-0.7,3-0.7c1.6,0,2.9,0.5,3.8,1.5s1.4,2.4,1.4,4.2v1.4h-7.1
		c0.1,0.6,0.4,1.1,0.8,1.5c0.4,0.4,1,0.6,1.7,0.6c1.1,0,2-0.4,2.6-1.2l1.6,1.9c-0.4,0.6-1.1,1.1-1.9,1.5
		C-16.5-295.1-17.4-294.9-18.3-294.9z M-18.7-304c-1,0-1.7,0.7-1.9,2.1h3.6v-0.3c0-0.6-0.1-1-0.4-1.3C-17.7-303.9-18.2-304-18.7-304
		z M-7.2-297.7c0.5,0,0.9-0.1,1.2-0.4s0.4-0.7,0.4-1.1h3.3c0,1.3-0.4,2.3-1.3,3.1s-2.1,1.2-3.5,1.2c-1.7,0-3-0.5-3.9-1.6
		s-1.4-2.5-1.4-4.3v-0.1c0-1.2,0.2-2.2,0.6-3.1c0.4-0.9,1-1.6,1.8-2c0.8-0.5,1.8-0.7,2.9-0.7c1.5,0,2.7,0.4,3.5,1.2s1.3,1.9,1.3,3.4
		h-3.3c0-0.6-0.1-1-0.4-1.4c-0.3-0.3-0.7-0.5-1.2-0.5c-0.9,0-1.5,0.6-1.6,1.8c0,0.4-0.1,0.9-0.1,1.5c0,1.2,0.1,1.9,0.4,2.4
		C-8.3-297.9-7.8-297.7-7.2-297.7z M4.7-294.9c-1.8,0-3.2-0.5-4.3-1.6s-1.6-2.4-1.6-4.1v-0.3c0-1.2,0.2-2.2,0.7-3.1
		c0.4-0.9,1.1-1.6,1.9-2.1c0.8-0.5,1.8-0.7,3-0.7c1.6,0,2.9,0.5,3.8,1.5c0.9,1,1.4,2.4,1.4,4.2v1.4H2.5c0.1,0.6,0.4,1.1,0.8,1.5
		c0.4,0.4,1,0.6,1.7,0.6c1.1,0,2-0.4,2.6-1.2l1.6,1.9c-0.4,0.6-1.1,1.1-1.9,1.5C6.6-295.1,5.7-294.9,4.7-294.9z M4.3-304
		c-1,0-1.7,0.7-1.9,2.1h3.6v-0.3c0-0.6-0.1-1-0.4-1.3S4.9-304,4.3-304z M11-309.5c0-0.5,0.2-0.9,0.6-1.2s0.8-0.5,1.4-0.5
		c0.6,0,1.1,0.2,1.4,0.5s0.6,0.7,0.6,1.2c0,0.5-0.2,0.9-0.6,1.2s-0.8,0.5-1.4,0.5c-0.6,0-1.1-0.2-1.4-0.5S11-309,11-309.5z
		 M14.8-295.1h-3.6v-11.5h3.6V-295.1z M21.5-299.4l1.8-7.2h3.8l-3.7,11.5h-3.6L16-306.6h3.8L21.5-299.4z M33.6-294.9
		c-1.8,0-3.2-0.5-4.3-1.6s-1.6-2.4-1.6-4.1v-0.3c0-1.2,0.2-2.2,0.7-3.1c0.4-0.9,1.1-1.6,1.9-2.1c0.8-0.5,1.8-0.7,3-0.7
		c1.6,0,2.9,0.5,3.8,1.5c0.9,1,1.4,2.4,1.4,4.2v1.4h-7.1c0.1,0.6,0.4,1.1,0.8,1.5c0.4,0.4,1,0.6,1.7,0.6c1.1,0,2-0.4,2.6-1.2
		l1.6,1.9c-0.4,0.6-1.1,1.1-1.9,1.5C35.4-295.1,34.5-294.9,33.6-294.9z M33.2-304c-1,0-1.7,0.7-1.9,2.1h3.6v-0.3
		c0-0.6-0.1-1-0.4-1.3C34.2-303.9,33.7-304,33.2-304z M50.1-297.7c0.5,0,0.9-0.1,1.2-0.4s0.4-0.7,0.4-1.1H55c0,1.3-0.4,2.3-1.3,3.1
		s-2.1,1.2-3.5,1.2c-1.7,0-3-0.5-3.9-1.6s-1.4-2.5-1.4-4.3v-0.1c0-1.2,0.2-2.2,0.6-3.1c0.4-0.9,1-1.6,1.8-2c0.8-0.5,1.8-0.7,2.9-0.7
		c1.5,0,2.7,0.4,3.5,1.2c0.9,0.8,1.3,1.9,1.3,3.4h-3.3c0-0.6-0.1-1-0.4-1.4S50.5-304,50-304c-0.9,0-1.5,0.6-1.6,1.8
		c0,0.4-0.1,0.9-0.1,1.5c0,1.2,0.1,1.9,0.4,2.4S49.5-297.7,50.1-297.7z M63.4-303.3l-1.2-0.1c-1.1,0-1.8,0.4-2.2,1.1v7.3h-3.6v-11.5
		h3.3l0.1,1.5c0.6-1.1,1.4-1.7,2.5-1.7c0.4,0,0.7,0,1,0.1L63.4-303.3z M70-294.9c-1.8,0-3.2-0.5-4.3-1.6c-1.1-1-1.6-2.4-1.6-4.1
		v-0.3c0-1.2,0.2-2.2,0.7-3.1c0.4-0.9,1.1-1.6,1.9-2.1c0.8-0.5,1.8-0.7,3-0.7c1.6,0,2.9,0.5,3.8,1.5s1.4,2.4,1.4,4.2v1.4h-7.1
		c0.1,0.6,0.4,1.1,0.8,1.5c0.4,0.4,1,0.6,1.7,0.6c1.1,0,2-0.4,2.6-1.2l1.6,1.9c-0.4,0.6-1.1,1.1-1.9,1.5
		C71.9-295.1,71-294.9,70-294.9z M69.6-304c-1,0-1.7,0.7-1.9,2.1h3.6v-0.3c0-0.6-0.1-1-0.4-1.3S70.2-304,69.6-304z M75.9-300.9
		c0-1.8,0.4-3.2,1.2-4.3c0.8-1,1.9-1.6,3.3-1.6c1,0,1.9,0.4,2.6,1.2v-5.8h3.6v16.3h-3.2l-0.2-1.2c-0.7,1-1.7,1.4-2.8,1.4
		c-1.4,0-2.4-0.5-3.2-1.6C76.3-297.5,75.9-299,75.9-300.9z M79.4-300.7c0,2,0.6,3,1.8,3c0.8,0,1.4-0.3,1.7-1v-4.4
		c-0.3-0.7-0.9-1-1.7-1c-1.1,0-1.7,0.9-1.8,2.7L79.4-300.7z M88.5-309.5c0-0.5,0.2-0.9,0.6-1.2c0.4-0.3,0.8-0.5,1.4-0.5
		c0.6,0,1.1,0.2,1.4,0.5c0.4,0.3,0.6,0.7,0.6,1.2c0,0.5-0.2,0.9-0.6,1.2c-0.4,0.3-0.8,0.5-1.4,0.5c-0.6,0-1.1-0.2-1.4-0.5
		C88.7-308.6,88.5-309,88.5-309.5z M92.3-295.1h-3.6v-11.5h3.6V-295.1z M98.6-309.4v2.8h1.9v2.5h-1.9v5.2c0,0.4,0.1,0.7,0.2,0.9
		c0.2,0.2,0.5,0.3,0.9,0.3c0.4,0,0.6,0,0.9-0.1v2.6c-0.6,0.2-1.3,0.3-2,0.3c-1.2,0-2.1-0.3-2.7-0.9c-0.6-0.6-0.9-1.5-0.9-2.6v-5.7
		h-1.5v-2.5h1.5v-2.8H98.6z M110.7-306.6l0.1,1.3c0.8-1,1.9-1.6,3.3-1.6c1.4,0,2.4,0.6,2.9,1.7c0.8-1.2,1.9-1.7,3.4-1.7
		c2.3,0,3.5,1.4,3.6,4.2v7.5h-3.6v-7.2c0-0.6-0.1-1-0.3-1.3c-0.2-0.3-0.6-0.4-1.1-0.4c-0.7,0-1.2,0.3-1.6,0.9l0,0.1v7.8h-3.6v-7.2
		c0-0.6-0.1-1-0.3-1.3c-0.2-0.3-0.6-0.4-1.1-0.4c-0.7,0-1.2,0.3-1.6,0.9v8h-3.6v-11.5H110.7z M125.5-301c0-1.1,0.2-2.2,0.7-3.1
		s1.1-1.6,1.9-2.1c0.8-0.5,1.8-0.7,2.9-0.7c1.7,0,3.1,0.5,4.1,1.6s1.5,2.5,1.5,4.3v0.1c0,1.8-0.5,3.2-1.5,4.3s-2.3,1.6-4,1.6
		c-1.6,0-2.9-0.5-3.9-1.5c-1-1-1.5-2.3-1.6-4L125.5-301z M129.1-300.7c0,1.1,0.2,1.8,0.5,2.3c0.3,0.5,0.8,0.7,1.5,0.7
		c1.3,0,1.9-1,1.9-2.9v-0.4c0-2.1-0.7-3.1-2-3.1c-1.2,0-1.8,0.9-1.9,2.7L129.1-300.7z M141.4-306.6l0.1,1.3c0.8-1,1.9-1.6,3.3-1.6
		c1.2,0,2.1,0.4,2.7,1.1c0.6,0.7,0.9,1.8,0.9,3.2v7.4h-3.6v-7.2c0-0.6-0.1-1-0.3-1.3c-0.2-0.3-0.7-0.4-1.3-0.4
		c-0.7,0-1.2,0.3-1.6,0.8v8.1h-3.6v-11.5H141.4z M150.4-309.5c0-0.5,0.2-0.9,0.6-1.2s0.8-0.5,1.4-0.5s1.1,0.2,1.4,0.5
		s0.6,0.7,0.6,1.2c0,0.5-0.2,0.9-0.6,1.2s-0.8,0.5-1.4,0.5s-1.1-0.2-1.4-0.5S150.4-309,150.4-309.5z M154.1-295.1h-3.6v-11.5h3.6
		V-295.1z M160.5-309.4v2.8h1.9v2.5h-1.9v5.2c0,0.4,0.1,0.7,0.2,0.9c0.2,0.2,0.5,0.3,0.9,0.3c0.4,0,0.6,0,0.9-0.1v2.6
		c-0.6,0.2-1.3,0.3-2,0.3c-1.2,0-2.1-0.3-2.7-0.9c-0.6-0.6-0.9-1.5-0.9-2.6v-5.7h-1.5v-2.5h1.5v-2.8H160.5z M163-301
		c0-1.1,0.2-2.2,0.7-3.1c0.4-0.9,1.1-1.6,1.9-2.1c0.8-0.5,1.8-0.7,2.9-0.7c1.7,0,3.1,0.5,4.1,1.6c1,1.1,1.5,2.5,1.5,4.3v0.1
		c0,1.8-0.5,3.2-1.5,4.3s-2.3,1.6-4,1.6c-1.6,0-2.9-0.5-3.9-1.5s-1.5-2.3-1.6-4L163-301z M166.6-300.7c0,1.1,0.2,1.8,0.5,2.3
		c0.3,0.5,0.8,0.7,1.5,0.7c1.3,0,1.9-1,1.9-2.9v-0.4c0-2.1-0.7-3.1-2-3.1c-1.2,0-1.8,0.9-1.9,2.7L166.6-300.7z M182.6-303.3
		l-1.2-0.1c-1.1,0-1.8,0.4-2.2,1.1v7.3h-3.6v-11.5h3.3l0.1,1.5c0.6-1.1,1.4-1.7,2.5-1.7c0.4,0,0.7,0,1,0.1L182.6-303.3z
		 M183.8-309.5c0-0.5,0.2-0.9,0.6-1.2s0.8-0.5,1.4-0.5s1.1,0.2,1.4,0.5s0.6,0.7,0.6,1.2c0,0.5-0.2,0.9-0.6,1.2s-0.8,0.5-1.4,0.5
		s-1.1-0.2-1.4-0.5S183.8-309,183.8-309.5z M187.6-295.1H184v-11.5h3.6V-295.1z M193.1-306.6l0.1,1.3c0.8-1,1.9-1.6,3.3-1.6
		c1.2,0,2.1,0.4,2.7,1.1c0.6,0.7,0.9,1.8,0.9,3.2v7.4h-3.6v-7.2c0-0.6-0.1-1-0.3-1.3c-0.2-0.3-0.7-0.4-1.3-0.4
		c-0.7,0-1.2,0.3-1.6,0.8v8.1h-3.6v-11.5H193.1z M201.6-300.9c0-1.2,0.2-2.2,0.6-3.1c0.4-0.9,0.9-1.6,1.6-2.1
		c0.7-0.5,1.5-0.7,2.5-0.7c1.2,0,2.1,0.4,2.8,1.2l0.1-1h3.2v11c0,1-0.2,1.9-0.7,2.6c-0.5,0.7-1.1,1.3-2,1.7s-1.9,0.6-3.1,0.6
		c-0.8,0-1.7-0.2-2.4-0.5s-1.4-0.7-1.8-1.2l1.5-2.1c0.7,0.8,1.5,1.2,2.6,1.2c1.6,0,2.4-0.8,2.4-2.4v-0.4c-0.7,0.8-1.5,1.1-2.6,1.1
		c-1.4,0-2.5-0.5-3.4-1.6s-1.3-2.5-1.3-4.3V-300.9z M205.2-300.7c0,0.9,0.2,1.7,0.5,2.2c0.4,0.5,0.8,0.8,1.5,0.8
		c0.8,0,1.3-0.3,1.7-0.8v-4.8c-0.3-0.5-0.9-0.8-1.7-0.8c-0.6,0-1.1,0.3-1.5,0.9C205.4-302.6,205.2-301.8,205.2-300.7z M-31.6-266.9
		c-0.1-0.2-0.2-0.6-0.3-1c-0.7,0.8-1.6,1.2-2.8,1.2c-1.1,0-2-0.3-2.8-1c-0.8-0.7-1.1-1.5-1.1-2.5c0-1.2,0.5-2.2,1.4-2.8s2.3-1,4-1
		h1.1v-0.6c0-1.1-0.5-1.6-1.4-1.6c-0.8,0-1.3,0.4-1.3,1.3h-3.6c0-1.1,0.5-2,1.4-2.7c0.9-0.7,2.1-1,3.6-1c1.5,0,2.6,0.4,3.5,1.1
		c0.8,0.7,1.3,1.7,1.3,2.9v5.1c0,1.1,0.2,1.9,0.5,2.4v0.2H-31.6z M-33.8-269.3c0.4,0,0.8-0.1,1.1-0.3s0.5-0.4,0.6-0.6v-1.8h-1
		c-1.2,0-1.9,0.6-1.9,1.7c0,0.3,0.1,0.6,0.3,0.8C-34.4-269.4-34.1-269.3-33.8-269.3z M-22.7-266.9h-3.6v-16.3h3.6V-266.9z
		 M-15-266.7c-1.8,0-3.2-0.5-4.3-1.6s-1.6-2.4-1.6-4.1v-0.3c0-1.2,0.2-2.2,0.7-3.1c0.4-0.9,1.1-1.6,1.9-2.1c0.8-0.5,1.8-0.7,3-0.7
		c1.6,0,2.9,0.5,3.8,1.5c0.9,1,1.4,2.4,1.4,4.2v1.4h-7.1c0.1,0.6,0.4,1.1,0.8,1.5c0.4,0.4,1,0.6,1.7,0.6c1.1,0,2-0.4,2.6-1.2
		l1.6,1.9c-0.4,0.6-1.1,1.1-1.9,1.5S-14.1-266.7-15-266.7z M-15.4-275.8c-1,0-1.7,0.7-1.9,2.1h3.6v-0.3c0-0.6-0.1-1-0.4-1.3
		S-14.8-275.8-15.4-275.8z M-1.8-275.2l-1.2-0.1c-1.1,0-1.8,0.4-2.2,1.1v7.3h-3.6v-11.5h3.3l0.1,1.5c0.6-1.1,1.4-1.7,2.5-1.7
		c0.4,0,0.7,0,1,0.1L-1.8-275.2z M4.2-281.2v2.8H6v2.5H4.2v5.2c0,0.4,0.1,0.7,0.2,0.9c0.2,0.2,0.5,0.3,0.9,0.3c0.4,0,0.6,0,0.9-0.1
		v2.6c-0.6,0.2-1.3,0.3-2,0.3c-1.2,0-2.1-0.3-2.7-0.9c-0.6-0.6-0.9-1.5-0.9-2.6v-5.7h-1.5v-2.5h1.5v-2.8H4.2z M13.4-270.2
		c0-0.3-0.2-0.5-0.5-0.7c-0.3-0.2-0.9-0.4-1.8-0.6c-0.9-0.2-1.6-0.5-2.2-0.8s-1-0.7-1.3-1.2c-0.3-0.5-0.5-1-0.5-1.6
		c0-1.1,0.4-1.9,1.3-2.6c0.9-0.7,2-1,3.4-1c1.5,0,2.7,0.3,3.6,1c0.9,0.7,1.4,1.6,1.4,2.7h-3.6c0-0.9-0.5-1.4-1.5-1.4
		c-0.4,0-0.7,0.1-0.9,0.3c-0.3,0.2-0.4,0.5-0.4,0.8c0,0.3,0.2,0.6,0.5,0.8s0.8,0.4,1.5,0.5s1.3,0.3,1.8,0.5c1.7,0.6,2.6,1.7,2.6,3.2
		c0,1-0.5,1.9-1.4,2.6s-2.1,1-3.6,1c-1,0-1.9-0.2-2.6-0.5c-0.8-0.4-1.4-0.8-1.8-1.4c-0.4-0.6-0.6-1.2-0.6-1.9h3.3
		c0,0.5,0.2,0.9,0.5,1.2c0.3,0.2,0.8,0.4,1.3,0.4c0.5,0,0.9-0.1,1.1-0.3C13.3-269.6,13.4-269.8,13.4-270.2z M19.8-262.8l-1.8-0.8
		l0.4-0.7c0.5-0.9,0.8-1.8,0.8-2.6v-2.6H22l0,2.3c0,0.8-0.2,1.6-0.6,2.5C20.9-264,20.4-263.3,19.8-262.8z M44-266.9H30v-3l6.4-6.8
		c1.6-1.8,2.4-3.2,2.4-4.3c0-0.9-0.2-1.5-0.6-2c-0.4-0.4-0.9-0.7-1.6-0.7c-0.7,0-1.3,0.3-1.7,0.9c-0.4,0.6-0.7,1.4-0.7,2.3h-4.7
		c0-1.2,0.3-2.4,0.9-3.4c0.6-1,1.5-1.9,2.6-2.4c1.1-0.6,2.3-0.9,3.7-0.9c2.2,0,3.8,0.5,5,1.5c1.2,1,1.8,2.4,1.8,4.3
		c0,0.8-0.1,1.6-0.4,2.3c-0.3,0.7-0.8,1.5-1.4,2.4c-0.6,0.8-1.6,1.9-3,3.3l-2.6,3H44V-266.9z M58.6-274.8h2v3.6h-2v4.3h-4.6v-4.3
		h-7.7l-0.3-2.8l8-12.9v0h4.6V-274.8z M50.3-274.8h3.6v-6.2l-0.3,0.5L50.3-274.8z M64.3-265.2H61l6.8-21.8h3.3L64.3-265.2z
		 M86.5-284.5L79-266.9h-4.9l7.5-16.5H72v-3.6h14.4V-284.5z"/>
	<linearGradient id="SVGID_3_" gradientUnits="userSpaceOnUse" x1="62.5103" y1="110.6191" x2="237.6401" y2="110.6191">
		<stop  offset="0" style="stop-color:#41B5E8"/>
		<stop  offset="0.5" style="stop-color:#6A53A3"/>
		<stop  offset="1" style="stop-color:#E72E8A"/>
	</linearGradient>
	<path class="st2" d="M86.3,82.5h-2V88h-3.8V72.4h6.2c1.9,0,3.3,0.4,4.4,1.2c1,0.8,1.6,2,1.6,3.5c0,1.1-0.2,2-0.7,2.7
		c-0.4,0.7-1.1,1.3-2.1,1.7l3.3,6.3V88h-4L86.3,82.5z M84.2,79.6h2.4c0.7,0,1.3-0.2,1.6-0.6c0.4-0.4,0.5-0.9,0.5-1.6
		c0-0.7-0.2-1.2-0.5-1.6s-0.9-0.6-1.6-0.6h-2.4V79.6z M100.3,88.2c-1.8,0-3.2-0.5-4.3-1.6c-1.1-1.1-1.7-2.4-1.7-4.2v-0.3
		c0-1.2,0.2-2.2,0.7-3.1c0.4-0.9,1.1-1.6,1.9-2.1c0.8-0.5,1.8-0.7,3-0.7c1.6,0,2.9,0.5,3.9,1.5c0.9,1,1.4,2.4,1.4,4.2v1.4H98
		c0.1,0.7,0.4,1.2,0.8,1.5s1,0.6,1.7,0.6c1.1,0,2-0.4,2.7-1.2l1.7,2c-0.5,0.6-1.1,1.1-1.9,1.5C102.1,88,101.2,88.2,100.3,88.2z
		 M99.9,79c-1.1,0-1.7,0.7-1.9,2.1h3.7v-0.3c0-0.6-0.1-1-0.4-1.3C100.9,79.1,100.4,79,99.9,79z M111.5,85.4c0.5,0,0.9-0.1,1.2-0.4
		c0.3-0.3,0.4-0.7,0.4-1.2h3.4c0,1.3-0.5,2.3-1.4,3.1c-0.9,0.8-2.1,1.2-3.5,1.2c-1.7,0-3-0.5-4-1.6s-1.5-2.5-1.5-4.4v-0.2
		c0-1.2,0.2-2.2,0.7-3.1c0.4-0.9,1.1-1.6,1.9-2.1c0.8-0.5,1.8-0.7,2.9-0.7c1.5,0,2.7,0.4,3.6,1.3s1.3,2,1.3,3.4h-3.4
		c0-0.6-0.1-1.1-0.4-1.4S112,79,111.5,79c-0.9,0-1.5,0.6-1.6,1.8c0,0.4-0.1,0.9-0.1,1.6c0,1.2,0.1,2,0.4,2.4S110.9,85.4,111.5,85.4z
		 M123.7,88.2c-1.8,0-3.2-0.5-4.3-1.6c-1.1-1.1-1.7-2.4-1.7-4.2v-0.3c0-1.2,0.2-2.2,0.7-3.1c0.4-0.9,1.1-1.6,1.9-2.1
		c0.8-0.5,1.8-0.7,3-0.7c1.6,0,2.9,0.5,3.9,1.5c0.9,1,1.4,2.4,1.4,4.2v1.4h-7.2c0.1,0.7,0.4,1.2,0.8,1.5s1,0.6,1.7,0.6
		c1.1,0,2-0.4,2.7-1.2l1.7,2c-0.5,0.6-1.1,1.1-1.9,1.5C125.5,88,124.6,88.2,123.7,88.2z M123.3,79c-1.1,0-1.7,0.7-1.9,2.1h3.7v-0.3
		c0-0.6-0.1-1-0.4-1.3C124.3,79.1,123.8,79,123.3,79z M130,73.4c0-0.5,0.2-0.9,0.6-1.3s0.9-0.5,1.5-0.5s1.1,0.2,1.5,0.5
		s0.6,0.8,0.6,1.3s-0.2,0.9-0.6,1.3s-0.9,0.5-1.5,0.5s-1.1-0.2-1.5-0.5S130,73.9,130,73.4z M133.8,88h-3.6V76.4h3.6V88z M140.7,83.7
		l1.8-7.3h3.8L142.6,88h-3.7l-3.8-11.6h3.8L140.7,83.7z M152.9,88.2c-1.8,0-3.2-0.5-4.3-1.6c-1.1-1.1-1.7-2.4-1.7-4.2v-0.3
		c0-1.2,0.2-2.2,0.7-3.1c0.4-0.9,1.1-1.6,1.9-2.1c0.8-0.5,1.8-0.7,3-0.7c1.6,0,2.9,0.5,3.9,1.5c0.9,1,1.4,2.4,1.4,4.2v1.4h-7.2
		c0.1,0.7,0.4,1.2,0.8,1.5s1,0.6,1.7,0.6c1.1,0,2-0.4,2.7-1.2l1.7,2c-0.5,0.6-1.1,1.1-1.9,1.5C154.8,88,153.9,88.2,152.9,88.2z
		 M152.5,79c-1.1,0-1.7,0.7-1.9,2.1h3.7v-0.3c0-0.6-0.1-1-0.4-1.3C153.5,79.1,153.1,79,152.5,79z M169.7,85.4c0.5,0,0.9-0.1,1.2-0.4
		c0.3-0.3,0.4-0.7,0.4-1.2h3.4c0,1.3-0.5,2.3-1.4,3.1c-0.9,0.8-2.1,1.2-3.5,1.2c-1.7,0-3-0.5-4-1.6s-1.5-2.5-1.5-4.4v-0.2
		c0-1.2,0.2-2.2,0.7-3.1c0.4-0.9,1.1-1.6,1.9-2.1c0.8-0.5,1.8-0.7,2.9-0.7c1.5,0,2.7,0.4,3.6,1.3s1.3,2,1.3,3.4h-3.4
		c0-0.6-0.1-1.1-0.4-1.4s-0.7-0.5-1.2-0.5c-0.9,0-1.5,0.6-1.6,1.8c0,0.4-0.1,0.9-0.1,1.6c0,1.2,0.1,2,0.4,2.4S169.1,85.4,169.7,85.4
		z M183.2,79.7l-1.2-0.1c-1.1,0-1.9,0.4-2.2,1.1V88h-3.6V76.4h3.4l0.1,1.5c0.6-1.1,1.5-1.7,2.5-1.7c0.4,0,0.7,0,1,0.1L183.2,79.7z
		 M189.9,88.2c-1.8,0-3.2-0.5-4.3-1.6c-1.1-1.1-1.7-2.4-1.7-4.2v-0.3c0-1.2,0.2-2.2,0.7-3.1c0.4-0.9,1.1-1.6,1.9-2.1
		c0.8-0.5,1.8-0.7,3-0.7c1.6,0,2.9,0.5,3.9,1.5c0.9,1,1.4,2.4,1.4,4.2v1.4h-7.2c0.1,0.7,0.4,1.2,0.8,1.5s1,0.6,1.7,0.6
		c1.1,0,2-0.4,2.7-1.2l1.7,2c-0.5,0.6-1.1,1.1-1.9,1.5C191.8,88,190.9,88.2,189.9,88.2z M189.5,79c-1.1,0-1.7,0.7-1.9,2.1h3.7v-0.3
		c0-0.6-0.1-1-0.4-1.3C190.5,79.1,190.1,79,189.5,79z M195.8,82.1c0-1.8,0.4-3.3,1.2-4.4s1.9-1.6,3.3-1.6c1,0,1.9,0.4,2.6,1.2v-5.9
		h3.6V88h-3.3l-0.2-1.2c-0.7,1-1.7,1.5-2.8,1.5c-1.4,0-2.5-0.5-3.3-1.6S195.8,84.1,195.8,82.1z M199.5,82.3c0,2.1,0.6,3.1,1.8,3.1
		c0.8,0,1.4-0.3,1.7-1V80c-0.3-0.7-0.9-1-1.7-1c-1.1,0-1.7,0.9-1.8,2.7L199.5,82.3z M208.6,73.4c0-0.5,0.2-0.9,0.6-1.3
		s0.9-0.5,1.5-0.5s1.1,0.2,1.5,0.5s0.6,0.8,0.6,1.3s-0.2,0.9-0.6,1.3s-0.9,0.5-1.5,0.5s-1.1-0.2-1.5-0.5S208.6,73.9,208.6,73.4z
		 M212.5,88h-3.6V76.4h3.6V88z M218.9,73.5v2.9h1.9v2.5h-1.9v5.3c0,0.4,0.1,0.7,0.2,0.9c0.2,0.2,0.5,0.3,0.9,0.3
		c0.4,0,0.7,0,0.9-0.1v2.6c-0.7,0.2-1.3,0.3-2,0.3c-1.2,0-2.2-0.3-2.8-0.9s-0.9-1.5-0.9-2.7v-5.8h-1.5v-2.5h1.5v-2.9H218.9z
		 M65.9,102.8l0.1,1.4c0.8-1.1,1.9-1.6,3.3-1.6c1.5,0,2.5,0.6,3,1.8c0.8-1.2,1.9-1.8,3.4-1.8c2.4,0,3.6,1.4,3.6,4.3v7.6h-3.6v-7.3
		c0-0.6-0.1-1-0.3-1.3s-0.6-0.4-1.1-0.4c-0.7,0-1.2,0.3-1.6,1l0,0.2v7.9h-3.6v-7.3c0-0.6-0.1-1-0.3-1.3s-0.6-0.4-1.1-0.4
		c-0.7,0-1.2,0.3-1.6,1v8.1h-3.6v-11.6H65.9z M81,108.5c0-1.2,0.2-2.2,0.7-3.1c0.5-0.9,1.1-1.6,1.9-2.1s1.8-0.7,3-0.7
		c1.7,0,3.1,0.5,4.1,1.6c1,1.1,1.5,2.5,1.5,4.4v0.1c0,1.8-0.5,3.2-1.5,4.3c-1,1.1-2.4,1.6-4.1,1.6c-1.7,0-3-0.5-4-1.5
		c-1-1-1.5-2.3-1.6-4L81,108.5z M84.6,108.7c0,1.1,0.2,1.9,0.5,2.4s0.8,0.8,1.5,0.8c1.3,0,1.9-1,2-3v-0.4c0-2.1-0.7-3.1-2-3.1
		c-1.2,0-1.9,0.9-2,2.7L84.6,108.7z M97.1,102.8l0.1,1.4c0.8-1.1,1.9-1.6,3.3-1.6c1.2,0,2.1,0.4,2.7,1.1c0.6,0.7,0.9,1.8,0.9,3.3
		v7.5h-3.6v-7.3c0-0.6-0.1-1-0.4-1.3c-0.2-0.3-0.7-0.4-1.3-0.4c-0.7,0-1.2,0.3-1.6,0.8v8.2h-3.6v-11.6H97.1z M106.2,99.8
		c0-0.5,0.2-0.9,0.6-1.3s0.9-0.5,1.5-0.5s1.1,0.2,1.5,0.5s0.6,0.8,0.6,1.3s-0.2,0.9-0.6,1.3s-0.9,0.5-1.5,0.5s-1.1-0.2-1.5-0.5
		S106.2,100.3,106.2,99.8z M110,114.4h-3.6v-11.6h3.6V114.4z M116.5,99.9v2.9h1.9v2.5h-1.9v5.3c0,0.4,0.1,0.7,0.2,0.9
		s0.5,0.3,0.9,0.3c0.4,0,0.7,0,0.9-0.1v2.6c-0.7,0.2-1.3,0.3-2,0.3c-1.2,0-2.2-0.3-2.8-0.9s-0.9-1.5-0.9-2.7v-5.8h-1.5v-2.5h1.5
		v-2.9H116.5z M119,108.5c0-1.2,0.2-2.2,0.7-3.1c0.5-0.9,1.1-1.6,1.9-2.1s1.8-0.7,3-0.7c1.7,0,3.1,0.5,4.1,1.6
		c1,1.1,1.5,2.5,1.5,4.4v0.1c0,1.8-0.5,3.2-1.5,4.3c-1,1.1-2.4,1.6-4.1,1.6c-1.7,0-3-0.5-4-1.5c-1-1-1.5-2.3-1.6-4L119,108.5z
		 M122.6,108.7c0,1.1,0.2,1.9,0.5,2.4s0.8,0.8,1.5,0.8c1.3,0,1.9-1,2-3v-0.4c0-2.1-0.7-3.1-2-3.1c-1.2,0-1.9,0.9-2,2.7L122.6,108.7z
		 M138.9,106.1l-1.2-0.1c-1.1,0-1.9,0.4-2.2,1.1v7.4h-3.6v-11.6h3.4l0.1,1.5c0.6-1.1,1.5-1.7,2.5-1.7c0.4,0,0.7,0,1,0.1L138.9,106.1
		z M140.1,99.8c0-0.5,0.2-0.9,0.6-1.3s0.9-0.5,1.5-0.5s1.1,0.2,1.5,0.5s0.6,0.8,0.6,1.3s-0.2,0.9-0.6,1.3s-0.9,0.5-1.5,0.5
		s-1.1-0.2-1.5-0.5S140.1,100.3,140.1,99.8z M144,114.4h-3.6v-11.6h3.6V114.4z M149.5,102.8l0.1,1.4c0.8-1.1,1.9-1.6,3.3-1.6
		c1.2,0,2.1,0.4,2.7,1.1c0.6,0.7,0.9,1.8,0.9,3.3v7.5H153v-7.3c0-0.6-0.1-1-0.4-1.3c-0.2-0.3-0.7-0.4-1.3-0.4
		c-0.7,0-1.2,0.3-1.6,0.8v8.2h-3.6v-11.6H149.5z M158.2,108.5c0-1.2,0.2-2.2,0.6-3.1s0.9-1.6,1.7-2.1c0.7-0.5,1.6-0.7,2.5-0.7
		c1.2,0,2.2,0.4,2.8,1.2l0.1-1h3.3V114c0,1-0.2,1.9-0.7,2.7c-0.5,0.8-1.2,1.3-2.1,1.7c-0.9,0.4-1.9,0.6-3.1,0.6
		c-0.9,0-1.7-0.2-2.5-0.5c-0.8-0.3-1.4-0.7-1.8-1.3l1.5-2.1c0.7,0.8,1.6,1.2,2.7,1.2c1.6,0,2.4-0.8,2.4-2.5v-0.4
		c-0.7,0.8-1.6,1.1-2.6,1.1c-1.4,0-2.6-0.5-3.4-1.6c-0.9-1.1-1.3-2.5-1.3-4.4V108.5z M161.8,108.7c0,1,0.2,1.7,0.5,2.3
		c0.4,0.6,0.9,0.8,1.5,0.8c0.8,0,1.3-0.3,1.7-0.8v-4.9c-0.4-0.5-0.9-0.8-1.7-0.8c-0.6,0-1.1,0.3-1.5,0.9
		C162,106.8,161.8,107.6,161.8,108.7z M183.3,114.4c-0.1-0.2-0.2-0.6-0.3-1c-0.7,0.8-1.6,1.3-2.8,1.3c-1.1,0-2-0.3-2.8-1
		c-0.8-0.7-1.1-1.5-1.1-2.5c0-1.3,0.5-2.2,1.4-2.9s2.3-1,4.1-1h1.1v-0.6c0-1.1-0.5-1.6-1.4-1.6c-0.9,0-1.3,0.4-1.3,1.3h-3.6
		c0-1.1,0.5-2,1.4-2.7c1-0.7,2.2-1.1,3.7-1.1s2.7,0.4,3.5,1.1s1.3,1.7,1.3,3v5.1c0,1.1,0.2,1.9,0.5,2.4v0.2H183.3z M181,112.1
		c0.5,0,0.8-0.1,1.1-0.3c0.3-0.2,0.5-0.4,0.6-0.7v-1.9h-1.1c-1.3,0-1.9,0.6-1.9,1.7c0,0.3,0.1,0.6,0.3,0.8
		C180.4,111.9,180.7,112.1,181,112.1z M192.2,114.4h-3.6V97.9h3.6V114.4z M200.1,114.6c-1.8,0-3.2-0.5-4.3-1.6
		c-1.1-1.1-1.7-2.4-1.7-4.2v-0.3c0-1.2,0.2-2.2,0.7-3.1c0.4-0.9,1.1-1.6,1.9-2.1c0.8-0.5,1.8-0.7,3-0.7c1.6,0,2.9,0.5,3.9,1.5
		c0.9,1,1.4,2.4,1.4,4.2v1.4h-7.2c0.1,0.7,0.4,1.2,0.8,1.5s1,0.6,1.7,0.6c1.1,0,2-0.4,2.7-1.2l1.7,2c-0.5,0.6-1.1,1.1-1.9,1.5
		C201.9,114.4,201,114.6,200.1,114.6z M199.7,105.4c-1.1,0-1.7,0.7-1.9,2.1h3.7v-0.3c0-0.6-0.1-1-0.4-1.3
		C200.7,105.5,200.3,105.4,199.7,105.4z M213.5,106.1l-1.2-0.1c-1.1,0-1.9,0.4-2.2,1.1v7.4h-3.6v-11.6h3.4l0.1,1.5
		c0.6-1.1,1.5-1.7,2.5-1.7c0.4,0,0.7,0,1,0.1L213.5,106.1z M219.5,99.9v2.9h1.9v2.5h-1.9v5.3c0,0.4,0.1,0.7,0.2,0.9s0.5,0.3,0.9,0.3
		c0.4,0,0.7,0,0.9-0.1v2.6c-0.7,0.2-1.3,0.3-2,0.3c-1.2,0-2.2-0.3-2.8-0.9s-0.9-1.5-0.9-2.7v-5.8h-1.5v-2.5h1.5v-2.9H219.5z
		 M229,111.1c0-0.3-0.2-0.6-0.5-0.7s-0.9-0.4-1.8-0.6s-1.6-0.5-2.2-0.8c-0.6-0.3-1-0.7-1.3-1.2s-0.5-1-0.5-1.6
		c0-1.1,0.4-1.9,1.3-2.6c0.9-0.7,2-1,3.5-1c1.5,0,2.8,0.3,3.7,1s1.4,1.6,1.4,2.7h-3.6c0-0.9-0.5-1.4-1.5-1.4c-0.4,0-0.7,0.1-1,0.3
		c-0.3,0.2-0.4,0.5-0.4,0.8c0,0.3,0.2,0.6,0.5,0.8s0.8,0.4,1.5,0.5c0.7,0.1,1.3,0.3,1.8,0.5c1.7,0.6,2.6,1.7,2.6,3.2
		c0,1.1-0.5,1.9-1.4,2.6c-0.9,0.7-2.2,1-3.7,1c-1,0-1.9-0.2-2.7-0.5s-1.4-0.8-1.8-1.5s-0.7-1.3-0.7-1.9h3.4c0,0.5,0.2,0.9,0.5,1.2
		c0.3,0.2,0.8,0.4,1.3,0.4c0.5,0,0.9-0.1,1.1-0.3C228.8,111.7,229,111.5,229,111.1z M235.4,118.6l-1.8-0.9l0.4-0.7
		c0.5-0.9,0.8-1.8,0.8-2.7v-2.7h2.9l0,2.3c0,0.8-0.2,1.7-0.6,2.5S236.1,118.1,235.4,118.6z M136.1,148h-13.9v-3l6.4-6.7
		c1.6-1.8,2.4-3.2,2.4-4.3c0-0.9-0.2-1.5-0.6-2s-0.9-0.7-1.6-0.7c-0.7,0-1.3,0.3-1.7,0.9s-0.7,1.3-0.7,2.2h-4.6
		c0-1.2,0.3-2.3,0.9-3.4s1.5-1.8,2.5-2.4s2.3-0.9,3.6-0.9c2.2,0,3.8,0.5,5,1.5s1.7,2.4,1.7,4.3c0,0.8-0.1,1.5-0.4,2.3
		s-0.7,1.5-1.4,2.3s-1.6,1.9-3,3.3l-2.6,3h7.8V148z M150.6,140.2h2v3.6h-2v4.2H146v-4.2h-7.7L138,141l8-12.8v0h4.6V140.2z
		 M142.4,140.2h3.6v-6.1l-0.3,0.5L142.4,140.2z M156.3,149.7h-3.3l6.8-21.6h3.3L156.3,149.7z M178.3,130.6l-7.4,17.4H166l7.5-16.4
		H164v-3.6h14.3V130.6z"/>
	<linearGradient id="SVGID_4_" gradientUnits="userSpaceOnUse" x1="420.2007" y1="108.8223" x2="674.9351" y2="108.8223">
		<stop  offset="0" style="stop-color:#41B5E8"/>
		<stop  offset="0.5" style="stop-color:#6A53A3"/>
		<stop  offset="1" style="stop-color:#E72E8A"/>
	</linearGradient>
	<path class="st3" d="M454.8,68.4h-3v8h-5.5V53.7h9c2.7,0,4.8,0.6,6.3,1.8c1.5,1.2,2.3,2.9,2.3,5.1c0,1.6-0.3,2.9-1,3.9
		c-0.6,1-1.6,1.9-3,2.5l4.8,9.2v0.2h-5.9L454.8,68.4z M451.8,64.1h3.5c1,0,1.8-0.3,2.4-0.8c0.5-0.5,0.8-1.3,0.8-2.3
		s-0.3-1.8-0.8-2.3s-1.3-0.8-2.3-0.8h-3.5V64.1z M475.1,76.7c-2.6,0-4.7-0.8-6.3-2.3c-1.6-1.5-2.4-3.6-2.4-6v-0.4
		c0-1.7,0.3-3.3,1-4.6c0.6-1.3,1.6-2.3,2.8-3.1c1.2-0.7,2.7-1.1,4.4-1.1c2.4,0,4.2,0.7,5.6,2.2c1.4,1.5,2.1,3.5,2.1,6.2v2h-10.5
		c0.2,0.9,0.6,1.7,1.2,2.2c0.6,0.5,1.5,0.8,2.5,0.8c1.7,0,3-0.6,3.9-1.8l2.4,2.8c-0.7,0.9-1.6,1.6-2.8,2.2
		C477.8,76.4,476.5,76.7,475.1,76.7z M474.5,63.2c-1.5,0-2.5,1-2.8,3.1h5.3v-0.4c0-0.8-0.2-1.5-0.6-2
		C476,63.5,475.4,63.2,474.5,63.2z M491.5,72.7c0.7,0,1.3-0.2,1.7-0.6c0.4-0.4,0.6-1,0.6-1.7h4.9c0,1.9-0.7,3.4-2,4.6
		s-3,1.8-5.1,1.8c-2.5,0-4.4-0.8-5.8-2.3c-1.4-1.5-2.1-3.7-2.1-6.4v-0.2c0-1.7,0.3-3.2,0.9-4.5c0.6-1.3,1.5-2.3,2.7-3
		s2.6-1.1,4.2-1.1c2.2,0,3.9,0.6,5.2,1.8c1.3,1.2,1.9,2.9,1.9,5h-4.9c0-0.9-0.2-1.5-0.6-2c-0.4-0.5-1-0.7-1.7-0.7
		c-1.4,0-2.2,0.9-2.4,2.6c-0.1,0.6-0.1,1.3-0.1,2.3c0,1.7,0.2,2.9,0.6,3.5S490.6,72.7,491.5,72.7z M509.2,76.7
		c-2.6,0-4.7-0.8-6.3-2.3c-1.6-1.5-2.4-3.6-2.4-6v-0.4c0-1.7,0.3-3.3,1-4.6c0.6-1.3,1.6-2.3,2.8-3.1c1.2-0.7,2.7-1.1,4.4-1.1
		c2.4,0,4.2,0.7,5.6,2.2c1.4,1.5,2.1,3.5,2.1,6.2v2h-10.5c0.2,0.9,0.6,1.7,1.2,2.2c0.6,0.5,1.5,0.8,2.5,0.8c1.7,0,3-0.6,3.9-1.8
		l2.4,2.8c-0.7,0.9-1.6,1.6-2.8,2.2S510.5,76.7,509.2,76.7z M508.6,63.2c-1.5,0-2.5,1-2.8,3.1h5.3v-0.4c0-0.8-0.2-1.5-0.6-2
		C510,63.5,509.4,63.2,508.6,63.2z M518.4,55.1c0-0.8,0.3-1.4,0.8-1.8c0.5-0.5,1.2-0.7,2.1-0.7c0.9,0,1.6,0.2,2.1,0.7
		c0.5,0.5,0.8,1.1,0.8,1.8s-0.3,1.4-0.8,1.8c-0.5,0.5-1.2,0.7-2.1,0.7c-0.9,0-1.6-0.2-2.1-0.7C518.6,56.5,518.4,55.9,518.4,55.1z
		 M524,76.4h-5.3V59.5h5.3V76.4z M533.9,70.1l2.7-10.6h5.5l-5.5,16.9h-5.4l-5.5-16.9h5.6L533.9,70.1z M551.7,76.7
		c-2.6,0-4.7-0.8-6.3-2.3c-1.6-1.5-2.4-3.6-2.4-6v-0.4c0-1.7,0.3-3.3,1-4.6c0.6-1.3,1.6-2.3,2.8-3.1c1.2-0.7,2.7-1.1,4.4-1.1
		c2.4,0,4.2,0.7,5.6,2.2c1.4,1.5,2.1,3.5,2.1,6.2v2h-10.5c0.2,0.9,0.6,1.7,1.2,2.2c0.6,0.5,1.5,0.8,2.5,0.8c1.7,0,3-0.6,3.9-1.8
		l2.4,2.8c-0.7,0.9-1.6,1.6-2.8,2.2S553.1,76.7,551.7,76.7z M551.1,63.2c-1.5,0-2.5,1-2.8,3.1h5.3v-0.4c0-0.8-0.2-1.5-0.6-2
		C552.6,63.5,551.9,63.2,551.1,63.2z M576.1,72.7c0.7,0,1.3-0.2,1.7-0.6c0.4-0.4,0.6-1,0.6-1.7h4.9c0,1.9-0.7,3.4-2,4.6
		s-3,1.8-5.1,1.8c-2.5,0-4.4-0.8-5.8-2.3c-1.4-1.5-2.1-3.7-2.1-6.4v-0.2c0-1.7,0.3-3.2,0.9-4.5c0.6-1.3,1.5-2.3,2.7-3
		s2.6-1.1,4.2-1.1c2.2,0,3.9,0.6,5.2,1.8c1.3,1.2,1.9,2.9,1.9,5h-4.9c0-0.9-0.2-1.5-0.6-2c-0.4-0.5-1-0.7-1.7-0.7
		c-1.4,0-2.2,0.9-2.4,2.6c-0.1,0.6-0.1,1.3-0.1,2.3c0,1.7,0.2,2.9,0.6,3.5S575.2,72.7,576.1,72.7z M595.8,64.3l-1.7-0.1
		c-1.7,0-2.7,0.5-3.2,1.6v10.7h-5.3V59.5h4.9l0.2,2.2c0.9-1.7,2.1-2.5,3.7-2.5c0.6,0,1.1,0.1,1.5,0.2L595.8,64.3z M605.6,76.7
		c-2.6,0-4.7-0.8-6.3-2.3c-1.6-1.5-2.4-3.6-2.4-6v-0.4c0-1.7,0.3-3.3,1-4.6c0.6-1.3,1.6-2.3,2.8-3.1c1.2-0.7,2.7-1.1,4.4-1.1
		c2.4,0,4.2,0.7,5.6,2.2c1.4,1.5,2.1,3.5,2.1,6.2v2h-10.5c0.2,0.9,0.6,1.7,1.2,2.2c0.6,0.5,1.5,0.8,2.5,0.8c1.7,0,3-0.6,3.9-1.8
		l2.4,2.8c-0.7,0.9-1.6,1.6-2.8,2.2S606.9,76.7,605.6,76.7z M605,63.2c-1.5,0-2.5,1-2.8,3.1h5.3v-0.4c0-0.8-0.2-1.5-0.6-2
		C606.4,63.5,605.8,63.2,605,63.2z M614.1,67.8c0-2.7,0.6-4.8,1.7-6.3c1.2-1.5,2.8-2.3,4.8-2.3c1.5,0,2.8,0.6,3.8,1.8v-8.6h5.3v24
		h-4.7l-0.3-1.8c-1.1,1.4-2.5,2.1-4.1,2.1c-2,0-3.6-0.8-4.8-2.3C614.7,72.9,614.1,70.7,614.1,67.8z M619.4,68.2c0,3,0.9,4.5,2.6,4.5
		c1.2,0,2-0.5,2.5-1.5v-6.4c-0.5-1-1.3-1.5-2.5-1.5c-1.6,0-2.5,1.3-2.6,3.9L619.4,68.2z M632.8,55.1c0-0.8,0.3-1.4,0.8-1.8
		c0.5-0.5,1.2-0.7,2.1-0.7c0.9,0,1.6,0.2,2.1,0.7c0.5,0.5,0.8,1.1,0.8,1.8s-0.3,1.4-0.8,1.8c-0.5,0.5-1.2,0.7-2.1,0.7
		c-0.9,0-1.6-0.2-2.1-0.7C633,56.5,632.8,55.9,632.8,55.1z M638.3,76.4h-5.3V59.5h5.3V76.4z M647.7,55.3v4.2h2.8v3.7h-2.8v7.7
		c0,0.6,0.1,1.1,0.3,1.3c0.2,0.2,0.7,0.4,1.4,0.4c0.5,0,1,0,1.3-0.1v3.8c-0.9,0.3-1.9,0.5-3,0.5c-1.8,0-3.2-0.4-4-1.3
		c-0.9-0.9-1.3-2.2-1.3-3.9v-8.4h-2.2v-3.7h2.2v-4.2H647.7z M425.1,97.9l0.2,2c1.2-1.5,2.8-2.3,4.8-2.3c2.1,0,3.6,0.8,4.3,2.5
		c1.1-1.7,2.8-2.5,5-2.5c3.4,0,5.2,2.1,5.3,6.2v11h-5.3v-10.7c0-0.9-0.1-1.5-0.4-1.9c-0.3-0.4-0.8-0.6-1.6-0.6c-1,0-1.8,0.5-2.3,1.4
		l0,0.2v11.5h-5.3v-10.6c0-0.9-0.1-1.5-0.4-1.9c-0.3-0.4-0.8-0.6-1.6-0.6c-1,0-1.8,0.5-2.3,1.4v11.8h-5.3V97.9H425.1z M447.1,106.2
		c0-1.7,0.3-3.2,1-4.5c0.7-1.3,1.6-2.3,2.8-3c1.2-0.7,2.7-1.1,4.3-1.1c2.5,0,4.5,0.8,6,2.4c1.5,1.6,2.2,3.7,2.2,6.4v0.2
		c0,2.6-0.7,4.7-2.2,6.3c-1.5,1.5-3.4,2.3-5.9,2.3c-2.4,0-4.3-0.7-5.8-2.2c-1.5-1.4-2.2-3.4-2.4-5.9L447.1,106.2z M452.3,106.5
		c0,1.6,0.2,2.7,0.7,3.4c0.5,0.7,1.2,1.1,2.2,1.1c1.9,0,2.8-1.4,2.9-4.3v-0.5c0-3-1-4.5-2.9-4.5c-1.8,0-2.7,1.3-2.9,3.9L452.3,106.5
		z M470.5,97.9l0.2,2c1.2-1.5,2.8-2.3,4.8-2.3c1.8,0,3.1,0.5,3.9,1.6c0.9,1.1,1.3,2.6,1.4,4.8v10.9h-5.3v-10.7
		c0-0.9-0.2-1.5-0.5-1.9c-0.3-0.4-1-0.6-1.9-0.6c-1,0-1.8,0.4-2.3,1.2v11.9h-5.3V97.9H470.5z M483.7,93.5c0-0.8,0.3-1.4,0.8-1.8
		c0.5-0.5,1.2-0.7,2.1-0.7c0.9,0,1.6,0.2,2.1,0.7c0.5,0.5,0.8,1.1,0.8,1.8c0,0.7-0.3,1.4-0.8,1.8c-0.5,0.5-1.2,0.7-2.1,0.7
		c-0.9,0-1.6-0.2-2.1-0.7C484,94.9,483.7,94.3,483.7,93.5z M489.3,114.8H484V97.9h5.3V114.8z M498.7,93.7v4.2h2.8v3.7h-2.8v7.7
		c0,0.6,0.1,1.1,0.3,1.3c0.2,0.2,0.7,0.4,1.4,0.4c0.5,0,1,0,1.3-0.1v3.8c-0.9,0.3-1.9,0.5-3,0.5c-1.8,0-3.2-0.4-4-1.3
		c-0.9-0.9-1.3-2.2-1.3-3.9v-8.4h-2.2v-3.7h2.2v-4.2H498.7z M502.4,106.2c0-1.7,0.3-3.2,1-4.5c0.7-1.3,1.6-2.3,2.8-3
		c1.2-0.7,2.7-1.1,4.3-1.1c2.5,0,4.5,0.8,6,2.4c1.5,1.6,2.2,3.7,2.2,6.4v0.2c0,2.6-0.7,4.7-2.2,6.3c-1.5,1.5-3.4,2.3-5.9,2.3
		c-2.4,0-4.3-0.7-5.8-2.2c-1.5-1.4-2.2-3.4-2.4-5.9L502.4,106.2z M507.7,106.5c0,1.6,0.2,2.7,0.7,3.4c0.5,0.7,1.2,1.1,2.2,1.1
		c1.9,0,2.8-1.4,2.9-4.3v-0.5c0-3-1-4.5-2.9-4.5c-1.8,0-2.7,1.3-2.9,3.9L507.7,106.5z M531.2,102.7l-1.7-0.1c-1.7,0-2.7,0.5-3.2,1.6
		v10.7h-5.3V97.9h4.9l0.2,2.2c0.9-1.7,2.1-2.5,3.7-2.5c0.6,0,1.1,0.1,1.5,0.2L531.2,102.7z M533.1,93.5c0-0.8,0.3-1.4,0.8-1.8
		c0.5-0.5,1.2-0.7,2.1-0.7c0.9,0,1.6,0.2,2.1,0.7c0.5,0.5,0.8,1.1,0.8,1.8c0,0.7-0.3,1.4-0.8,1.8c-0.5,0.5-1.2,0.7-2.1,0.7
		c-0.9,0-1.6-0.2-2.1-0.7C533.4,94.9,533.1,94.3,533.1,93.5z M538.7,114.8h-5.3V97.9h5.3V114.8z M546.8,97.9l0.2,2
		c1.2-1.5,2.8-2.3,4.8-2.3c1.8,0,3.1,0.5,3.9,1.6c0.9,1.1,1.3,2.6,1.4,4.8v10.9h-5.3v-10.7c0-0.9-0.2-1.5-0.5-1.9
		c-0.3-0.4-1-0.6-1.9-0.6c-1,0-1.8,0.4-2.3,1.2v11.9h-5.3V97.9H546.8z M559.4,106.2c0-1.7,0.3-3.2,0.8-4.5s1.4-2.3,2.4-3
		c1.1-0.7,2.3-1.1,3.7-1.1c1.8,0,3.1,0.6,4.1,1.8l0.2-1.5h4.8v16.3c0,1.5-0.3,2.8-1,3.9c-0.7,1.1-1.7,1.9-3,2.5
		c-1.3,0.6-2.8,0.9-4.6,0.9c-1.2,0-2.4-0.2-3.6-0.7c-1.2-0.5-2-1.1-2.7-1.8l2.2-3.1c1,1.2,2.3,1.7,3.9,1.7c2.3,0,3.5-1.2,3.5-3.6
		v-0.5c-1,1.1-2.3,1.7-3.8,1.7c-2.1,0-3.7-0.8-5-2.4c-1.3-1.6-1.9-3.7-1.9-6.3V106.2z M564.7,106.6c0,1.4,0.3,2.5,0.8,3.3
		c0.5,0.8,1.2,1.2,2.2,1.2c1.1,0,2-0.4,2.5-1.1v-7.1c-0.5-0.8-1.3-1.2-2.5-1.2c-0.9,0-1.7,0.4-2.2,1.3
		C564.9,103.7,564.7,105,564.7,106.6z M595.9,114.8c-0.2-0.3-0.4-0.8-0.5-1.5c-1,1.2-2.3,1.8-4.1,1.8c-1.6,0-2.9-0.5-4.1-1.4
		c-1.1-1-1.7-2.2-1.7-3.6c0-1.8,0.7-3.2,2-4.2c1.4-0.9,3.3-1.4,5.9-1.4h1.6v-0.9c0-1.6-0.7-2.3-2-2.3c-1.2,0-1.9,0.6-1.9,1.9H586
		c0-1.6,0.7-3,2.1-4s3.2-1.5,5.3-1.5s3.9,0.5,5.1,1.6c1.2,1.1,1.9,2.5,1.9,4.3v7.5c0,1.6,0.3,2.7,0.7,3.6v0.3H595.9z M592.6,111.4
		c0.7,0,1.2-0.1,1.6-0.4c0.4-0.3,0.7-0.6,0.9-1v-2.7h-1.5c-1.8,0-2.8,0.8-2.8,2.5c0,0.5,0.2,0.9,0.5,1.2
		C591.7,111.2,592.1,111.4,592.6,111.4z M608.9,114.8h-5.3v-24h5.3V114.8z M620.3,115.1c-2.6,0-4.7-0.8-6.3-2.3
		c-1.6-1.5-2.4-3.6-2.4-6v-0.4c0-1.7,0.3-3.3,1-4.6c0.6-1.3,1.6-2.3,2.8-3.1c1.2-0.7,2.7-1.1,4.4-1.1c2.4,0,4.2,0.7,5.6,2.2
		c1.4,1.5,2.1,3.5,2.1,6.2v2H617c0.2,0.9,0.6,1.7,1.2,2.2c0.6,0.5,1.5,0.8,2.5,0.8c1.7,0,3-0.6,3.9-1.8l2.4,2.8
		c-0.7,0.9-1.6,1.6-2.8,2.2S621.7,115.1,620.3,115.1z M619.7,101.6c-1.5,0-2.5,1-2.8,3.1h5.3v-0.4c0-0.8-0.2-1.5-0.6-2
		C621.2,101.9,620.6,101.6,619.7,101.6z M639.8,102.7l-1.7-0.1c-1.7,0-2.7,0.5-3.2,1.6v10.7h-5.3V97.9h4.9l0.2,2.2
		c0.9-1.7,2.1-2.5,3.7-2.5c0.6,0,1.1,0.1,1.5,0.2L639.8,102.7z M648.6,93.7v4.2h2.8v3.7h-2.8v7.7c0,0.6,0.1,1.1,0.3,1.3
		c0.2,0.2,0.7,0.4,1.4,0.4c0.5,0,1,0,1.3-0.1v3.8c-0.9,0.3-1.9,0.5-3,0.5c-1.8,0-3.2-0.4-4-1.3c-0.9-0.9-1.3-2.2-1.3-3.9v-8.4h-2.2
		v-3.7h2.2v-4.2H648.6z M662.3,110.1c0-0.4-0.2-0.8-0.7-1.1c-0.5-0.3-1.4-0.6-2.7-0.8c-1.3-0.3-2.4-0.7-3.2-1.1
		c-0.9-0.5-1.5-1-2-1.7c-0.4-0.7-0.7-1.5-0.7-2.3c0-1.6,0.6-2.8,1.9-3.8c1.3-1,3-1.5,5-1.5c2.2,0,4,0.5,5.4,1.5c1.4,1,2,2.3,2,4
		h-5.3c0-1.4-0.7-2-2.1-2c-0.6,0-1,0.2-1.4,0.5c-0.4,0.3-0.6,0.7-0.6,1.1c0,0.5,0.2,0.8,0.7,1.1c0.5,0.3,1.2,0.5,2.2,0.7
		c1,0.2,1.9,0.4,2.6,0.7c2.5,0.9,3.8,2.4,3.8,4.7c0,1.5-0.7,2.8-2.1,3.8c-1.4,1-3.1,1.5-5.3,1.5c-1.4,0-2.7-0.3-3.9-0.8
		c-1.1-0.5-2-1.2-2.7-2.1c-0.6-0.9-1-1.8-1-2.8h4.9c0,0.8,0.3,1.4,0.8,1.7s1.1,0.5,1.9,0.5c0.7,0,1.3-0.1,1.6-0.4
		C662.1,110.9,662.3,110.5,662.3,110.1z M671.7,120.9l-2.7-1.2l0.5-1.1c0.7-1.4,1.1-2.6,1.1-3.9v-3.9h4.2l0,3.4
		c0,1.2-0.3,2.4-0.9,3.7C673.4,119.1,672.6,120.1,671.7,120.9z M527.7,162.8h-19.8v-4.3l9.1-9.6c2.3-2.6,3.4-4.6,3.4-6.1
		c0-1.2-0.3-2.2-0.8-2.8s-1.3-1-2.3-1c-1,0-1.8,0.4-2.4,1.3s-0.9,1.9-0.9,3.2h-6.6c0-1.7,0.4-3.4,1.3-4.8s2.1-2.6,3.6-3.5
		s3.3-1.2,5.2-1.2c3.1,0,5.4,0.7,7.1,2.1s2.5,3.5,2.5,6.1c0,1.1-0.2,2.2-0.6,3.3s-1.1,2.2-1.9,3.3s-2.3,2.7-4.2,4.7l-3.7,4.2h11.2
		V162.8z M548.4,151.7h2.9v5.1h-2.9v6h-6.6v-6h-11l-0.4-4l11.4-18.3v-0.1h6.6V151.7z M536.7,151.7h5.1v-8.8l-0.4,0.7L536.7,151.7z
		 M556.5,165.2h-4.7l9.7-30.9h4.7L556.5,165.2z M587.9,137.9l-10.6,24.9h-7l10.6-23.4h-13.6v-5.1h20.5V137.9z"/>
	<linearGradient id="SVGID_5_" gradientUnits="userSpaceOnUse" x1="-104.3169" y1="720.7517" x2="358.8081" y2="720.7517">
		<stop  offset="0" style="stop-color:#41B5E8"/>
		<stop  offset="0.5" style="stop-color:#6A53A3"/>
		<stop  offset="1" style="stop-color:#E72E8A"/>
	</linearGradient>
	<path class="st4" d="M-92.5,693.1h-3.7v10.1h-6.9v-28.4h11.2c3.4,0,6,0.7,7.9,2.2c1.9,1.5,2.9,3.6,2.9,6.3c0,2-0.4,3.6-1.2,4.9
		s-2.1,2.4-3.8,3.2l5.9,11.5v0.3h-7.3L-92.5,693.1z M-96.2,687.8h4.3c1.3,0,2.3-0.3,2.9-1c0.7-0.7,1-1.6,1-2.9c0-1.2-0.3-2.2-1-2.9
		s-1.6-1-2.9-1h-4.3V687.8z M-67,703.5c-3.2,0-5.9-1-7.9-2.9s-3-4.5-3-7.5v-0.5c0-2.2,0.4-4.1,1.2-5.7s2-2.9,3.5-3.8
		s3.4-1.4,5.5-1.4c3,0,5.3,0.9,7,2.8s2.6,4.4,2.6,7.7v2.6h-13.1c0.2,1.2,0.7,2.1,1.5,2.8s1.8,1,3.1,1c2.1,0,3.7-0.7,4.9-2.2l3,3.6
		c-0.8,1.1-2,2-3.5,2.7C-63.7,703.2-65.3,703.5-67,703.5z M-67.8,686.7c-1.9,0-3.1,1.3-3.4,3.8h6.6V690c0-1.1-0.2-1.9-0.8-2.5
		S-66.7,686.7-67.8,686.7z M-46.5,698.4c0.9,0,1.6-0.3,2.1-0.8s0.8-1.2,0.7-2.1h6.2c0,2.3-0.8,4.2-2.5,5.7s-3.8,2.2-6.4,2.2
		c-3.1,0-5.5-1-7.3-2.9s-2.7-4.6-2.7-8v-0.3c0-2.1,0.4-4,1.2-5.7s1.9-2.9,3.4-3.8s3.2-1.3,5.3-1.3c2.7,0,4.9,0.8,6.5,2.3
		s2.4,3.6,2.4,6.2h-6.2c0-1.1-0.3-1.9-0.8-2.5s-1.2-0.9-2.1-0.9c-1.7,0-2.7,1.1-3,3.3c-0.1,0.7-0.1,1.6-0.1,2.9
		c0,2.1,0.3,3.6,0.8,4.4S-47.6,698.4-46.5,698.4z M-24.5,703.5c-3.2,0-5.9-1-7.9-2.9s-3-4.5-3-7.5v-0.5c0-2.2,0.4-4.1,1.2-5.7
		s2-2.9,3.5-3.8s3.4-1.4,5.5-1.4c3,0,5.3,0.9,7,2.8s2.6,4.4,2.6,7.7v2.6h-13.1c0.2,1.2,0.7,2.1,1.5,2.8s1.8,1,3.1,1
		c2.1,0,3.7-0.7,4.9-2.2l3,3.6c-0.8,1.1-2,2-3.5,2.7S-22.7,703.5-24.5,703.5z M-25.2,686.7c-1.9,0-3.1,1.3-3.4,3.8h6.6V690
		c0-1.1-0.2-1.9-0.8-2.5S-24.2,686.7-25.2,686.7z M-13,676.5c0-0.9,0.3-1.7,1-2.3s1.6-0.9,2.6-0.9s2,0.3,2.6,0.9s1,1.4,1,2.3
		s-0.3,1.7-1,2.3s-1.6,0.9-2.6,0.9s-2-0.3-2.6-0.9S-13,677.5-13,676.5z M-6,703.1h-6.6V682H-6V703.1z M6.5,695.3L9.8,682h6.9
		l-6.9,21.1H3.2L-3.7,682h7L6.5,695.3z M28.7,703.5c-3.2,0-5.9-1-7.9-2.9s-3-4.5-3-7.5v-0.5c0-2.2,0.4-4.1,1.2-5.7s2-2.9,3.5-3.8
		s3.4-1.4,5.5-1.4c3,0,5.3,0.9,7,2.8s2.6,4.4,2.6,7.7v2.6H24.5c0.2,1.2,0.7,2.1,1.5,2.8s1.8,1,3.1,1c2.1,0,3.7-0.7,4.9-2.2l3,3.6
		c-0.8,1.1-2,2-3.5,2.7S30.4,703.5,28.7,703.5z M28,686.7c-1.9,0-3.1,1.3-3.4,3.8h6.6V690c0-1.1-0.2-1.9-0.8-2.5S29,686.7,28,686.7z
		 M59.2,698.4c0.9,0,1.6-0.3,2.1-0.8s0.8-1.2,0.7-2.1h6.2c0,2.3-0.8,4.2-2.5,5.7s-3.8,2.2-6.4,2.2c-3.1,0-5.5-1-7.3-2.9
		s-2.7-4.6-2.7-8v-0.3c0-2.1,0.4-4,1.2-5.7c0.8-1.6,1.9-2.9,3.4-3.8s3.2-1.3,5.3-1.3c2.7,0,4.9,0.8,6.5,2.3s2.4,3.6,2.4,6.2h-6.2
		c0-1.1-0.3-1.9-0.8-2.5s-1.2-0.9-2.1-0.9c-1.7,0-2.7,1.1-3,3.3c-0.1,0.7-0.1,1.6-0.1,2.9c0,2.1,0.3,3.6,0.8,4.4
		S58.1,698.4,59.2,698.4z M83.8,687.9l-2.2-0.2c-2.1,0-3.4,0.7-4,2v13.4h-6.6V682h6.2l0.2,2.7c1.1-2.1,2.6-3.1,4.6-3.1
		c0.7,0,1.3,0.1,1.8,0.2L83.8,687.9z M96,703.5c-3.2,0-5.9-1-7.9-2.9s-3-4.5-3-7.5v-0.5c0-2.2,0.4-4.1,1.2-5.7s2-2.9,3.5-3.8
		s3.4-1.4,5.5-1.4c3,0,5.3,0.9,7,2.8s2.6,4.4,2.6,7.7v2.6H91.8c0.2,1.2,0.7,2.1,1.5,2.8s1.8,1,3.1,1c2.1,0,3.7-0.7,4.9-2.2l3,3.6
		c-0.8,1.1-2,2-3.5,2.7S97.7,703.5,96,703.5z M95.3,686.7c-1.9,0-3.1,1.3-3.4,3.8h6.6V690c0-1.1-0.2-1.9-0.8-2.5
		S96.3,686.7,95.3,686.7z M106.7,692.4c0-3.3,0.7-6,2.2-7.9s3.5-2.9,6.1-2.9c1.9,0,3.5,0.7,4.8,2.2v-10.7h6.6v30h-5.9l-0.3-2.3
		c-1.4,1.8-3.1,2.7-5.2,2.7c-2.5,0-4.5-1-6-2.9S106.7,696,106.7,692.4z M113.3,692.8c0,3.8,1.1,5.6,3.3,5.6c1.5,0,2.5-0.6,3.1-1.8
		v-8c-0.6-1.2-1.6-1.9-3.1-1.9c-2,0-3.1,1.6-3.3,4.9L113.3,692.8z M130,676.5c0-0.9,0.3-1.7,1-2.3s1.6-0.9,2.6-0.9s2,0.3,2.6,0.9
		s1,1.4,1,2.3s-0.3,1.7-1,2.3s-1.6,0.9-2.6,0.9s-2-0.3-2.6-0.9S130,677.5,130,676.5z M137,703.1h-6.6V682h6.6V703.1z M148.7,676.7
		v5.3h3.5v4.6h-3.5v9.7c0,0.8,0.1,1.3,0.4,1.7s0.9,0.5,1.7,0.5c0.7,0,1.2,0,1.6-0.1v4.7c-1.2,0.4-2.4,0.6-3.7,0.6
		c-2.3,0-3.9-0.5-5-1.6s-1.6-2.7-1.6-4.9v-10.5h-2.7V682h2.7v-5.3H148.7z M171,682l0.2,2.5c1.5-1.9,3.5-2.9,6-2.9
		c2.7,0,4.5,1.1,5.4,3.2c1.4-2.1,3.5-3.2,6.2-3.2c4.3,0,6.5,2.6,6.6,7.8v13.8h-6.6v-13.3c0-1.1-0.2-1.9-0.5-2.4s-1-0.7-2-0.7
		c-1.3,0-2.3,0.6-2.9,1.7l0,0.3v14.4h-6.6v-13.3c0-1.1-0.2-1.9-0.5-2.4s-1-0.7-2-0.7c-1.3,0-2.2,0.6-2.9,1.7v14.7h-6.6V682H171z
		 M198.4,692.4c0-2.1,0.4-4,1.2-5.6s2-2.9,3.5-3.8s3.3-1.3,5.4-1.3c3.2,0,5.7,1,7.5,2.9s2.7,4.6,2.7,8v0.2c0,3.3-0.9,5.9-2.7,7.8
		s-4.3,2.9-7.4,2.9c-3,0-5.4-0.9-7.2-2.7s-2.8-4.2-2.9-7.3L198.4,692.4z M205,692.8c0,2,0.3,3.4,0.9,4.3s1.5,1.4,2.7,1.4
		c2.3,0,3.5-1.8,3.6-5.4v-0.7c0-3.8-1.2-5.7-3.6-5.7c-2.2,0-3.4,1.6-3.6,4.9L205,692.8z M227.7,682l0.2,2.5c1.5-1.9,3.5-2.9,6-2.9
		c2.2,0,3.8,0.7,4.9,2s1.7,3.3,1.7,5.9v13.6H234v-13.3c0-1.1-0.2-1.9-0.6-2.4s-1.2-0.8-2.3-0.8c-1.3,0-2.2,0.5-2.9,1.5v14.9h-6.6
		V682H227.7z M244.2,676.5c0-0.9,0.3-1.7,1-2.3s1.6-0.9,2.6-0.9s2,0.3,2.6,0.9s1,1.4,1,2.3s-0.3,1.7-1,2.3s-1.6,0.9-2.6,0.9
		s-2-0.3-2.6-0.9S244.2,677.5,244.2,676.5z M251.2,703.1h-6.6V682h6.6V703.1z M262.9,676.7v5.3h3.5v4.6h-3.5v9.7
		c0,0.8,0.1,1.3,0.4,1.7s0.9,0.5,1.7,0.5c0.7,0,1.2,0,1.6-0.1v4.7c-1.2,0.4-2.4,0.6-3.7,0.6c-2.3,0-3.9-0.5-5-1.6s-1.6-2.7-1.6-4.9
		v-10.5h-2.7V682h2.7v-5.3H262.9z M267.5,692.4c0-2.1,0.4-4,1.2-5.6s2-2.9,3.5-3.8s3.3-1.3,5.4-1.3c3.2,0,5.7,1,7.5,2.9
		s2.7,4.6,2.7,8v0.2c0,3.3-0.9,5.9-2.7,7.8s-4.3,2.9-7.4,2.9c-3,0-5.4-0.9-7.2-2.7s-2.8-4.2-2.9-7.3L267.5,692.4z M274.1,692.8
		c0,2,0.3,3.4,0.9,4.3s1.5,1.4,2.7,1.4c2.3,0,3.5-1.8,3.6-5.4v-0.7c0-3.8-1.2-5.7-3.6-5.7c-2.2,0-3.4,1.6-3.6,4.9L274.1,692.8z
		 M303.6,687.9l-2.2-0.2c-2.1,0-3.4,0.7-4,2v13.4h-6.6V682h6.2l0.2,2.7c1.1-2.1,2.6-3.1,4.6-3.1c0.7,0,1.3,0.1,1.8,0.2L303.6,687.9z
		 M305.9,676.5c0-0.9,0.3-1.7,1-2.3s1.6-0.9,2.6-0.9s2,0.3,2.6,0.9s1,1.4,1,2.3s-0.3,1.7-1,2.3s-1.6,0.9-2.6,0.9s-2-0.3-2.6-0.9
		S305.9,677.5,305.9,676.5z M312.9,703.1h-6.6V682h6.6V703.1z M323,682l0.2,2.5c1.5-1.9,3.5-2.9,6-2.9c2.2,0,3.8,0.7,4.9,2
		s1.7,3.3,1.7,5.9v13.6h-6.6v-13.3c0-1.1-0.2-1.9-0.6-2.4s-1.2-0.8-2.3-0.8c-1.3,0-2.2,0.5-2.9,1.5v14.9h-6.6V682H323z M338.8,692.4
		c0-2.1,0.4-4,1.1-5.7s1.7-2.9,3-3.8s2.8-1.3,4.6-1.3c2.2,0,3.9,0.7,5.2,2.2l0.2-1.8h6v20.3c0,1.9-0.4,3.5-1.3,4.9s-2.1,2.4-3.8,3.2
		s-3.5,1.1-5.7,1.1c-1.5,0-3-0.3-4.5-0.9s-2.6-1.3-3.3-2.3l2.8-3.9c1.2,1.4,2.8,2.2,4.8,2.2c2.9,0,4.4-1.5,4.4-4.5v-0.7
		c-1.3,1.4-2.9,2.1-4.8,2.1c-2.6,0-4.7-1-6.2-3s-2.4-4.6-2.4-7.9V692.4z M345.4,692.8c0,1.7,0.3,3.1,1,4.1s1.6,1.5,2.7,1.5
		c1.4,0,2.5-0.5,3.1-1.4v-8.9c-0.6-1-1.7-1.4-3.1-1.4c-1.2,0-2.1,0.5-2.8,1.6S345.4,690.8,345.4,692.8z M-91.4,760.7
		c-0.2-0.4-0.4-1.1-0.6-1.9c-1.2,1.5-2.9,2.3-5.1,2.3c-2,0-3.7-0.6-5.1-1.8s-2.1-2.7-2.1-4.5c0-2.3,0.8-4,2.5-5.2s4.2-1.8,7.4-1.8h2
		v-1.1c0-1.9-0.8-2.9-2.5-2.9c-1.6,0-2.3,0.8-2.3,2.3h-6.6c0-2,0.9-3.7,2.6-5s4-1.9,6.7-1.9s4.8,0.7,6.4,2s2.4,3.1,2.4,5.4v9.4
		c0,1.9,0.3,3.4,0.9,4.5v0.3H-91.4z M-95.6,756.4c0.8,0,1.5-0.2,2-0.5s0.9-0.7,1.2-1.2v-3.4h-1.9c-2.3,0-3.4,1-3.4,3.1
		c0,0.6,0.2,1.1,0.6,1.5S-96.2,756.4-95.6,756.4z M-75.2,760.7h-6.6v-30h6.6V760.7z M-60.9,761.1c-3.2,0-5.9-1-7.9-2.9s-3-4.5-3-7.5
		v-0.5c0-2.2,0.4-4.1,1.2-5.7s2-2.9,3.5-3.8s3.4-1.4,5.5-1.4c3,0,5.3,0.9,7,2.8s2.6,4.4,2.6,7.7v2.6h-13.1c0.2,1.2,0.7,2.1,1.5,2.8
		s1.8,1,3.1,1c2.1,0,3.7-0.7,4.9-2.2l3,3.6c-0.8,1.1-2,2-3.5,2.7C-57.5,760.8-59.2,761.1-60.9,761.1z M-61.6,744.3
		c-1.9,0-3.1,1.3-3.4,3.8h6.6v-0.5c0-1.1-0.2-1.9-0.8-2.5S-60.6,744.3-61.6,744.3z M-36.6,745.5l-2.2-0.2c-2.1,0-3.4,0.7-4,2v13.4
		h-6.6v-21.1h6.2l0.2,2.7c1.1-2.1,2.6-3.1,4.6-3.1c0.7,0,1.3,0.1,1.8,0.2L-36.6,745.5z M-25.5,734.3v5.3h3.5v4.6h-3.5v9.7
		c0,0.8,0.1,1.3,0.4,1.7s0.9,0.5,1.7,0.5c0.7,0,1.2,0,1.6-0.1v4.7c-1.2,0.4-2.4,0.6-3.7,0.6c-2.3,0-3.9-0.5-5-1.6s-1.6-2.7-1.6-4.9
		v-10.5h-2.7v-4.6h2.7v-5.3H-25.5z M-8.4,754.8c0-0.6-0.3-1-0.9-1.3s-1.7-0.7-3.3-1.1s-3-0.8-4.1-1.4s-1.9-1.3-2.4-2.2
		s-0.8-1.8-0.8-2.9c0-1.9,0.8-3.5,2.4-4.8s3.7-1.9,6.3-1.9c2.8,0,5,0.6,6.7,1.9s2.5,2.9,2.5,5h-6.6c0-1.7-0.9-2.5-2.7-2.5
		c-0.7,0-1.3,0.2-1.7,0.6s-0.7,0.9-0.7,1.4c0,0.6,0.3,1.1,0.9,1.4s1.5,0.7,2.7,0.9s2.4,0.5,3.3,0.8c3.2,1.1,4.8,3.1,4.8,5.9
		c0,1.9-0.9,3.5-2.6,4.7s-3.9,1.8-6.7,1.8c-1.8,0-3.4-0.3-4.8-1s-2.5-1.5-3.3-2.7s-1.2-2.3-1.2-3.5h6.2c0,1,0.4,1.7,1,2.1
		s1.4,0.7,2.4,0.7c0.9,0,1.6-0.2,2-0.5S-8.4,755.4-8.4,754.8z M3.3,768.4L0,766.8l0.7-1.3c0.9-1.7,1.4-3.3,1.4-4.8v-4.9h5.3l0,4.2
		c0,1.5-0.4,3-1.2,4.6S4.5,767.4,3.3,768.4z M45.8,760.7H22v-5.2L33,744c2.7-3.1,4.1-5.5,4.1-7.3c0-1.5-0.3-2.6-1-3.4
		s-1.6-1.1-2.8-1.1c-1.2,0-2.2,0.5-2.9,1.5s-1.1,2.3-1.1,3.8h-7.9c0-2.1,0.5-4,1.6-5.8s2.5-3.2,4.4-4.2s3.9-1.5,6.2-1.5
		c3.7,0,6.5,0.9,8.5,2.6s3,4.1,3,7.3c0,1.3-0.2,2.7-0.8,3.9s-1.3,2.6-2.3,4s-2.8,3.3-5.1,5.6l-4.4,5.1h13.4V760.7z M70.6,747.4h3.5
		v6.1h-3.5v7.2h-7.9v-7.2H49.6l-0.5-4.8l13.7-22v-0.1h7.9V747.4z M56.6,747.4h6.1v-10.5l-0.5,0.8L56.6,747.4z M80.4,763.7h-5.6
		l11.6-37.1h5.6L80.4,763.7z M118.2,730.8l-12.8,29.9h-8.3l12.8-28H93.6v-6.1h24.6V730.8z"/>
</g>
</svg>
