<?xml version="1.0" encoding="utf-8"?>
<!-- Generator: Adobe Illustrator 24.2.3, SVG Export Plug-In . SVG Version: 6.00 Build 0)  -->
<svg version="1.1" id="Layer_1" xmlns="http://www.w3.org/2000/svg" xmlns:xlink="http://www.w3.org/1999/xlink" x="0px" y="0px"
	 viewBox="0 0 300 250" style="enable-background:new 0 0 300 250;" xml:space="preserve">
<style type="text/css">
	.st0{fill:url(#SVGID_1_);}
</style>
<linearGradient id="SVGID_1_" gradientUnits="userSpaceOnUse" x1="18.9492" y1="111.3455" x2="280.7578" y2="111.3455">
	<stop  offset="0" style="stop-color:#18B9FB"/>
	<stop  offset="0.5" style="stop-color:#782EEB"/>
	<stop  offset="1" style="stop-color:#E82D8A"/>
</linearGradient>
<path class="st0" d="M33.21,91.95h-5.12v13.89h-4.11V91.95h-5.03v-3.18h14.26V91.95z M41.67,96.73l-1.3-0.09
	c-1.24,0-2.04,0.39-2.39,1.17v8.03h-3.95V93.15h3.7l0.13,1.63c0.66-1.24,1.59-1.86,2.78-1.86c0.42,0,0.79,0.05,1.1,0.14L41.67,96.73
	z M49.89,105.83c-0.14-0.26-0.27-0.64-0.38-1.14c-0.73,0.91-1.74,1.37-3.05,1.37c-1.2,0-2.21-0.36-3.05-1.08s-1.25-1.63-1.25-2.72
	c0-1.38,0.51-2.41,1.52-3.12c1.02-0.7,2.49-1.05,4.43-1.05h1.22v-0.67c0-1.17-0.5-1.75-1.51-1.75c-0.94,0-1.41,0.46-1.41,1.39h-3.95
	c0-1.22,0.52-2.22,1.56-2.98c1.04-0.76,2.37-1.15,3.99-1.15s2.89,0.39,3.83,1.18c0.94,0.79,1.42,1.87,1.44,3.25v5.61
	c0.02,1.16,0.2,2.05,0.54,2.67v0.2H49.89z M47.41,103.26c0.49,0,0.9-0.11,1.22-0.32s0.56-0.45,0.7-0.71v-2.03h-1.15
	c-1.38,0-2.06,0.62-2.06,1.85c0,0.36,0.12,0.65,0.36,0.87S47.04,103.26,47.41,103.26z M60.84,103.02c0.55,0,0.98-0.15,1.29-0.45
	c0.3-0.3,0.45-0.72,0.45-1.26h3.7c0,1.39-0.5,2.53-1.49,3.42s-2.28,1.34-3.85,1.34c-1.84,0-3.3-0.58-4.36-1.73s-1.59-2.76-1.59-4.8
	v-0.16c0-1.28,0.24-2.41,0.71-3.39s1.15-1.73,2.04-2.26c0.89-0.53,1.95-0.79,3.16-0.79c1.65,0,2.96,0.46,3.93,1.37
	c0.97,0.91,1.45,2.15,1.45,3.71h-3.7c0-0.66-0.16-1.16-0.48-1.51s-0.75-0.53-1.29-0.53c-1.02,0-1.62,0.65-1.79,1.96
	c-0.05,0.41-0.08,0.98-0.08,1.71c0,1.27,0.15,2.16,0.46,2.65S60.18,103.02,60.84,103.02z M73.04,101.11l-1.11,1.11v3.61h-3.95V87.82
	h3.95v9.56l0.4-0.53l2.98-3.7h4.73l-4.44,5.21l4.73,7.46h-4.52L73.04,101.11z M92.12,100.3l2.11-7.15h4.23l-5.17,14.8l-0.22,0.54
	c-0.73,1.64-2.03,2.46-3.89,2.46c-0.52,0-1.06-0.08-1.63-0.23v-2.81h0.52c0.55,0,0.98-0.08,1.27-0.24s0.51-0.45,0.65-0.86l0.32-0.84
	L85.9,93.15h4.22L92.12,100.3z M98.81,99.38c0-1.27,0.25-2.39,0.74-3.38s1.2-1.75,2.12-2.28c0.92-0.53,2-0.8,3.25-0.8
	c1.9,0,3.39,0.59,4.49,1.76c1.09,1.18,1.64,2.78,1.64,4.8v0.14c0,1.98-0.55,3.54-1.65,4.71s-2.58,1.74-4.46,1.74
	c-1.8,0-3.25-0.54-4.35-1.62c-1.09-1.08-1.68-2.55-1.77-4.4L98.81,99.38z M102.76,99.62c0,1.17,0.18,2.03,0.55,2.58
	c0.37,0.55,0.91,0.82,1.63,0.82c1.41,0,2.12-1.08,2.16-3.25v-0.4c0-2.27-0.73-3.41-2.18-3.41c-1.32,0-2.04,0.98-2.14,2.94
	L102.76,99.62z M120.34,104.46c-0.84,1.07-1.96,1.61-3.39,1.61c-1.39,0-2.44-0.4-3.16-1.21s-1.07-1.97-1.07-3.49v-8.21h3.95v8.24
	c0,1.09,0.53,1.63,1.58,1.63c0.91,0,1.55-0.32,1.93-0.97v-8.89h3.97v12.68h-3.7L120.34,104.46z M133.99,96.73l-1.3-0.09
	c-1.24,0-2.04,0.39-2.39,1.17v8.03h-3.95V93.15h3.7l0.13,1.63c0.66-1.24,1.59-1.86,2.78-1.86c0.42,0,0.79,0.05,1.1,0.14
	L133.99,96.73z M146.75,103.02c0.55,0,0.98-0.15,1.29-0.45s0.45-0.72,0.45-1.26h3.7c0,1.39-0.5,2.53-1.49,3.42s-2.28,1.34-3.85,1.34
	c-1.84,0-3.3-0.58-4.36-1.73s-1.59-2.76-1.59-4.8v-0.16c0-1.28,0.24-2.41,0.71-3.39s1.15-1.73,2.04-2.26
	c0.89-0.53,1.95-0.79,3.16-0.79c1.65,0,2.96,0.46,3.93,1.37c0.97,0.91,1.45,2.15,1.45,3.71h-3.7c0-0.66-0.16-1.16-0.48-1.51
	c-0.32-0.35-0.75-0.53-1.29-0.53c-1.02,0-1.62,0.65-1.79,1.96c-0.05,0.41-0.08,0.98-0.08,1.71c0,1.27,0.15,2.16,0.46,2.65
	S146.09,103.02,146.75,103.02z M161.53,96.73l-1.3-0.09c-1.24,0-2.04,0.39-2.39,1.17v8.03h-3.95V93.15h3.7l0.13,1.63
	c0.66-1.24,1.59-1.86,2.78-1.86c0.42,0,0.79,0.05,1.1,0.14L161.53,96.73z M168.87,106.07c-1.95,0-3.52-0.58-4.72-1.74
	s-1.8-2.67-1.8-4.53v-0.33c0-1.3,0.24-2.44,0.72-3.43s1.18-1.76,2.1-2.3c0.92-0.54,2.02-0.81,3.28-0.81c1.78,0,3.19,0.55,4.22,1.66
	c1.03,1.11,1.55,2.65,1.55,4.62v1.54h-7.85c0.14,0.71,0.45,1.27,0.93,1.68s1.09,0.61,1.85,0.61c1.25,0,2.23-0.44,2.93-1.31l1.8,2.13
	c-0.49,0.68-1.19,1.22-2.09,1.62S169.91,106.07,168.87,106.07z M168.42,95.97c-1.16,0-1.84,0.77-2.06,2.3h3.98v-0.3
	c0.02-0.63-0.14-1.12-0.48-1.47S169.05,95.97,168.42,95.97z M175.3,99.4c0-2.01,0.43-3.59,1.3-4.75c0.87-1.16,2.08-1.73,3.63-1.73
	c1.13,0,2.09,0.45,2.86,1.34v-6.42h3.96v18h-3.55l-0.2-1.36c-0.81,1.06-1.84,1.59-3.09,1.59c-1.51,0-2.7-0.58-3.59-1.73
	S175.3,101.53,175.3,99.4z M179.25,99.65c0,2.25,0.66,3.38,1.97,3.38c0.88,0,1.5-0.37,1.88-1.1v-4.83
	c-0.36-0.75-0.98-1.12-1.85-1.12c-1.22,0-1.88,0.98-1.98,2.95L179.25,99.65z M189.27,89.89c0-0.56,0.2-1.02,0.61-1.38
	s0.93-0.54,1.58-0.54c0.65,0,1.18,0.18,1.58,0.54s0.61,0.82,0.61,1.38s-0.2,1.02-0.61,1.38s-0.93,0.54-1.58,0.54
	c-0.65,0-1.18-0.18-1.58-0.54S189.27,90.45,189.27,89.89z M193.46,105.83h-3.96V93.15h3.96V105.83z M200.5,90v3.15h2.09v2.74h-2.09
	v5.8c0,0.48,0.09,0.81,0.26,1s0.51,0.28,1.02,0.28c0.39,0,0.72-0.02,0.98-0.07v2.82c-0.71,0.23-1.45,0.34-2.23,0.34
	c-1.36,0-2.36-0.32-3.01-0.96s-0.97-1.61-0.97-2.92V95.9h-1.62v-2.74h1.62V90H200.5z M216.75,102.27c0-0.34-0.18-0.61-0.53-0.81
	s-1.02-0.41-2-0.63s-1.8-0.51-2.44-0.86s-1.13-0.79-1.46-1.29s-0.5-1.09-0.5-1.75c0-1.16,0.48-2.12,1.44-2.88
	c0.96-0.75,2.22-1.13,3.77-1.13c1.67,0,3.02,0.38,4.03,1.14c1.02,0.76,1.52,1.75,1.52,2.99h-3.96c0-1.02-0.54-1.52-1.61-1.52
	c-0.41,0-0.76,0.12-1.04,0.35s-0.42,0.52-0.42,0.86c0,0.35,0.17,0.64,0.52,0.86s0.89,0.4,1.65,0.54s1.42,0.31,1.99,0.5
	c1.91,0.66,2.86,1.83,2.86,3.53c0,1.16-0.51,2.1-1.54,2.82s-2.36,1.09-3.99,1.09c-1.09,0-2.05-0.2-2.91-0.59s-1.52-0.92-1.99-1.59
	s-0.71-1.38-0.71-2.12h3.69c0.02,0.59,0.21,1.01,0.59,1.28s0.86,0.4,1.44,0.4c0.54,0,0.94-0.11,1.21-0.33
	S216.75,102.62,216.75,102.27z M227.77,103.02c0.55,0,0.98-0.15,1.29-0.45s0.45-0.72,0.45-1.26h3.7c0,1.39-0.5,2.53-1.49,3.42
	s-2.28,1.34-3.85,1.34c-1.84,0-3.3-0.58-4.36-1.73c-1.06-1.16-1.59-2.76-1.59-4.8v-0.16c0-1.28,0.24-2.41,0.71-3.39
	s1.15-1.73,2.04-2.26c0.89-0.53,1.95-0.79,3.16-0.79c1.65,0,2.96,0.46,3.93,1.37c0.97,0.91,1.45,2.15,1.45,3.71h-3.7
	c0-0.66-0.16-1.16-0.48-1.51s-0.75-0.53-1.29-0.53c-1.02,0-1.62,0.65-1.79,1.96c-0.05,0.41-0.08,0.98-0.08,1.71
	c0,1.27,0.15,2.16,0.46,2.65C226.62,102.78,227.1,103.02,227.77,103.02z M234.38,99.38c0-1.27,0.25-2.39,0.74-3.38
	s1.2-1.75,2.12-2.28c0.92-0.53,2-0.8,3.25-0.8c1.9,0,3.39,0.59,4.49,1.76c1.09,1.18,1.64,2.78,1.64,4.8v0.14
	c0,1.98-0.55,3.54-1.65,4.71s-2.58,1.74-4.46,1.74c-1.8,0-3.25-0.54-4.35-1.62c-1.09-1.08-1.68-2.55-1.77-4.4L234.38,99.38z
	 M238.32,99.62c0,1.17,0.18,2.03,0.55,2.58s0.91,0.82,1.63,0.82c1.41,0,2.12-1.08,2.16-3.25v-0.4c0-2.27-0.73-3.41-2.18-3.41
	c-1.32,0-2.04,0.98-2.14,2.94L238.32,99.62z M256.02,96.73l-1.3-0.09c-1.24,0-2.04,0.39-2.39,1.17v8.03h-3.95V93.15h3.7l0.13,1.63
	c0.66-1.24,1.59-1.86,2.78-1.86c0.42,0,0.79,0.05,1.1,0.14L256.02,96.73z M263.36,106.07c-1.95,0-3.52-0.58-4.72-1.74
	s-1.8-2.67-1.8-4.53v-0.33c0-1.3,0.24-2.44,0.72-3.43s1.18-1.76,2.1-2.3c0.92-0.54,2.02-0.81,3.28-0.81c1.78,0,3.19,0.55,4.22,1.66
	c1.03,1.11,1.55,2.65,1.55,4.62v1.54h-7.85c0.14,0.71,0.45,1.27,0.93,1.68s1.09,0.61,1.85,0.61c1.25,0,2.23-0.44,2.93-1.31l1.8,2.13
	c-0.49,0.68-1.19,1.22-2.09,1.62S264.39,106.07,263.36,106.07z M262.91,95.97c-1.16,0-1.84,0.77-2.06,2.3h3.98v-0.3
	c0.02-0.63-0.14-1.12-0.48-1.47S263.54,95.97,262.91,95.97z M276.93,102.27c0-0.34-0.18-0.61-0.53-0.81s-1.02-0.41-2-0.63
	s-1.8-0.51-2.44-0.86s-1.13-0.79-1.46-1.29s-0.5-1.09-0.5-1.75c0-1.16,0.48-2.12,1.44-2.88c0.96-0.75,2.22-1.13,3.77-1.13
	c1.67,0,3.02,0.38,4.03,1.14c1.02,0.76,1.52,1.75,1.52,2.99h-3.96c0-1.02-0.54-1.52-1.61-1.52c-0.41,0-0.76,0.12-1.04,0.35
	s-0.42,0.52-0.42,0.86c0,0.35,0.17,0.64,0.52,0.86s0.89,0.4,1.65,0.54s1.42,0.31,1.99,0.5c1.91,0.66,2.86,1.83,2.86,3.53
	c0,1.16-0.51,2.1-1.54,2.82s-2.36,1.09-3.99,1.09c-1.09,0-2.05-0.2-2.91-0.59s-1.52-0.92-1.99-1.59s-0.71-1.38-0.71-2.12h3.69
	c0.02,0.59,0.21,1.01,0.59,1.28s0.86,0.4,1.44,0.4c0.54,0,0.94-0.11,1.21-0.33S276.93,102.62,276.93,102.27z M93.61,134.87
	c-1.95,0-3.52-0.58-4.72-1.74s-1.8-2.67-1.8-4.53v-0.33c0-1.3,0.24-2.44,0.72-3.43s1.18-1.76,2.1-2.3s2.02-0.81,3.28-0.81
	c1.78,0,3.19,0.55,4.22,1.66c1.03,1.11,1.55,2.65,1.55,4.62v1.54H91.1c0.14,0.71,0.45,1.27,0.93,1.68s1.09,0.61,1.85,0.61
	c1.25,0,2.23-0.44,2.93-1.31l1.8,2.13c-0.49,0.68-1.19,1.22-2.09,1.62S94.65,134.87,93.61,134.87z M93.16,124.77
	c-1.16,0-1.84,0.77-2.06,2.3h3.98v-0.3c0.02-0.63-0.14-1.12-0.48-1.47S93.79,124.77,93.16,124.77z M107.68,134.63
	c-0.14-0.26-0.27-0.64-0.38-1.14c-0.73,0.91-1.74,1.37-3.05,1.37c-1.2,0-2.21-0.36-3.05-1.08s-1.25-1.63-1.25-2.72
	c0-1.38,0.51-2.41,1.52-3.12s2.49-1.05,4.43-1.05h1.22v-0.67c0-1.17-0.5-1.75-1.51-1.75c-0.94,0-1.41,0.46-1.41,1.39h-3.95
	c0-1.22,0.52-2.22,1.56-2.98s2.37-1.15,3.99-1.15c1.62,0,2.89,0.39,3.83,1.18s1.42,1.87,1.44,3.25v5.61
	c0.02,1.16,0.2,2.05,0.54,2.67v0.2H107.68z M105.21,132.06c0.49,0,0.9-0.11,1.22-0.32s0.56-0.45,0.7-0.71V129h-1.15
	c-1.38,0-2.06,0.62-2.06,1.85c0,0.36,0.12,0.65,0.36,0.87S104.84,132.06,105.21,132.06z M118.64,131.82c0.55,0,0.98-0.15,1.29-0.45
	s0.45-0.72,0.45-1.26h3.7c0,1.39-0.5,2.53-1.49,3.42s-2.28,1.34-3.85,1.34c-1.84,0-3.3-0.58-4.36-1.73
	c-1.06-1.16-1.59-2.76-1.59-4.8v-0.16c0-1.28,0.24-2.41,0.71-3.39s1.15-1.73,2.04-2.26s1.95-0.79,3.16-0.79
	c1.65,0,2.96,0.46,3.93,1.37s1.45,2.15,1.45,3.71h-3.7c0-0.66-0.16-1.16-0.48-1.51s-0.75-0.53-1.29-0.53
	c-1.02,0-1.62,0.65-1.79,1.96c-0.05,0.41-0.08,0.98-0.08,1.71c0,1.27,0.15,2.16,0.46,2.65
	C117.49,131.58,117.98,131.82,118.64,131.82z M129.61,123.31c0.84-1.06,1.92-1.59,3.23-1.59c1.4,0,2.45,0.41,3.16,1.24
	s1.07,2.05,1.09,3.67v8h-3.96v-7.91c0-0.67-0.14-1.17-0.41-1.48s-0.74-0.47-1.39-0.47c-0.81,0-1.39,0.26-1.72,0.77v9.09h-3.95v-18
	h3.95V123.31z M149,121.95l0.13,1.49c0.9-1.15,2.11-1.72,3.62-1.72c1.6,0,2.68,0.64,3.25,1.91c0.86-1.27,2.1-1.91,3.73-1.91
	c2.57,0,3.89,1.55,3.96,4.66v8.25h-3.96v-8c0-0.65-0.11-1.12-0.33-1.42s-0.62-0.45-1.2-0.45c-0.78,0-1.36,0.35-1.75,1.04l0.01,0.16
	v8.66h-3.96v-7.98c0-0.66-0.11-1.14-0.32-1.44s-0.61-0.45-1.21-0.45c-0.76,0-1.34,0.35-1.73,1.04v8.82h-3.95v-12.68H149z
	 M165.45,128.18c0-1.27,0.25-2.39,0.74-3.38s1.2-1.75,2.12-2.28s2-0.8,3.25-0.8c1.9,0,3.39,0.59,4.49,1.76s1.64,2.78,1.64,4.8v0.14
	c0,1.98-0.55,3.54-1.65,4.71s-2.58,1.74-4.46,1.74c-1.8,0-3.25-0.54-4.35-1.62s-1.68-2.55-1.77-4.4L165.45,128.18z M169.39,128.42
	c0,1.17,0.18,2.03,0.55,2.58c0.37,0.55,0.91,0.82,1.63,0.82c1.41,0,2.12-1.08,2.16-3.25v-0.4c0-2.27-0.73-3.41-2.18-3.41
	c-1.32,0-2.04,0.98-2.14,2.94L169.39,128.42z M183.05,121.95l0.13,1.49c0.88-1.15,2.08-1.72,3.62-1.72c1.32,0,2.31,0.39,2.96,1.18
	s0.99,1.98,1.01,3.56v8.17h-3.96v-8c0-0.64-0.13-1.11-0.39-1.41s-0.73-0.45-1.41-0.45c-0.77,0-1.35,0.3-1.72,0.91v8.95h-3.95v-12.68
	H183.05z M197.55,118.8v3.15h2.09v2.74h-2.09v5.8c0,0.48,0.09,0.81,0.26,1c0.17,0.19,0.51,0.28,1.02,0.28
	c0.39,0,0.72-0.02,0.98-0.07v2.82c-0.71,0.23-1.45,0.34-2.23,0.34c-1.36,0-2.36-0.32-3.01-0.96s-0.97-1.61-0.97-2.92v-6.29h-1.62
	v-2.74h1.62v-3.15H197.55z M205.05,123.31c0.84-1.06,1.92-1.59,3.23-1.59c1.4,0,2.45,0.41,3.16,1.24s1.07,2.05,1.09,3.67v8h-3.96
	v-7.91c0-0.67-0.14-1.17-0.41-1.48s-0.74-0.47-1.39-0.47c-0.81,0-1.39,0.26-1.72,0.77v9.09h-3.95v-18h3.95V123.31z"/>
</svg>
