<?xml version="1.0" encoding="utf-8"?>
<!-- Generator: Adobe Illustrator 26.3.1, SVG Export Plug-In . SVG Version: 6.00 Build 0)  -->
<svg version="1.1" id="Layer_1" xmlns="http://www.w3.org/2000/svg" xmlns:xlink="http://www.w3.org/1999/xlink" x="0px" y="0px"
	 viewBox="0 0 160 600" style="enable-background:new 0 0 160 600;" xml:space="preserve">
<style type="text/css">
	.st0{fill:#EDF4FD;}
</style>
<g>
	<path class="st0" d="M27.2,131v-17.1h5.2c1.5,0,2.8,0.3,4,1s2.1,1.6,2.8,2.9s1,2.7,1,4.2v0.8c0,1.6-0.3,3-1,4.2s-1.6,2.2-2.8,2.9
		s-2.5,1-4,1H27.2z M30.8,116.8v11.4h1.7c1.4,0,2.4-0.4,3.2-1.3s1.1-2.2,1.1-3.9v-0.9c0-1.7-0.4-3-1.1-3.9s-1.8-1.3-3.2-1.3H30.8z"
		/>
	<path class="st0" d="M42.1,124.5c0-1.3,0.2-2.4,0.7-3.4s1.2-1.7,2.1-2.3s2-0.8,3.2-0.8c1.7,0,3.1,0.5,4.2,1.6s1.7,2.5,1.8,4.3
		l0,0.9c0,1.9-0.5,3.5-1.6,4.7s-2.5,1.8-4.4,1.8s-3.3-0.6-4.4-1.8s-1.6-2.8-1.6-4.8V124.5z M45.5,124.8c0,1.2,0.2,2.1,0.7,2.8
		s1.1,1,1.9,1c0.8,0,1.5-0.3,1.9-0.9s0.7-1.6,0.7-3c0-1.2-0.2-2.1-0.7-2.7s-1.1-1-1.9-1c-0.8,0-1.5,0.3-1.9,1S45.5,123.4,45.5,124.8
		z"/>
	<path class="st0" d="M67.2,126.4l1.7-8.1h3.3L68.9,131h-2.8l-2.4-8l-2.4,8h-2.8l-3.2-12.7h3.3l1.7,8.1l2.3-8.1h2.4L67.2,126.4z"/>
	<path class="st0" d="M76.9,118.3l0.1,1.5c0.9-1.1,2.1-1.7,3.6-1.7c1.3,0,2.3,0.4,3,1.2s1,2,1,3.5v8.2h-3.4v-8.1
		c0-0.7-0.2-1.2-0.5-1.6s-0.8-0.5-1.6-0.5c-1,0-1.7,0.4-2.1,1.2v8.9h-3.4v-12.7H76.9z"/>
	<path class="st0" d="M90.8,131h-3.4v-18h3.4V131z"/>
	<path class="st0" d="M93.1,124.5c0-1.3,0.2-2.4,0.7-3.4s1.2-1.7,2.1-2.3s2-0.8,3.2-0.8c1.7,0,3.1,0.5,4.2,1.6s1.7,2.5,1.8,4.3
		l0,0.9c0,1.9-0.5,3.5-1.6,4.7s-2.5,1.8-4.4,1.8s-3.3-0.6-4.4-1.8s-1.6-2.8-1.6-4.8V124.5z M96.5,124.8c0,1.2,0.2,2.1,0.7,2.8
		s1.1,1,1.9,1c0.8,0,1.5-0.3,1.9-0.9s0.7-1.6,0.7-3c0-1.2-0.2-2.1-0.7-2.7s-1.1-1-1.9-1c-0.8,0-1.5,0.3-1.9,1S96.5,123.4,96.5,124.8
		z"/>
	<path class="st0" d="M114.6,131c-0.2-0.3-0.3-0.7-0.3-1.1c-0.8,0.9-1.9,1.4-3.2,1.4c-1.2,0-2.3-0.4-3.1-1.1s-1.2-1.6-1.2-2.7
		c0-1.3,0.5-2.4,1.5-3.1s2.4-1.1,4.3-1.1h1.6v-0.7c0-0.6-0.2-1.1-0.5-1.4s-0.8-0.5-1.4-0.5c-0.6,0-1,0.1-1.3,0.4s-0.5,0.6-0.5,1.1
		H107c0-0.7,0.2-1.4,0.7-2s1.1-1.1,1.9-1.5s1.8-0.5,2.8-0.5c1.6,0,2.8,0.4,3.7,1.2s1.4,1.9,1.4,3.3v5.5c0,1.2,0.2,2.1,0.5,2.7v0.2
		H114.6z M111.8,128.6c0.5,0,1-0.1,1.4-0.3s0.7-0.5,0.9-0.9v-2.2h-1.3c-1.7,0-2.6,0.6-2.7,1.8l0,0.2c0,0.4,0.1,0.8,0.4,1
		S111.2,128.6,111.8,128.6z"/>
	<path class="st0" d="M119.5,124.6c0-2,0.4-3.6,1.3-4.7s2.1-1.8,3.6-1.8c1.2,0,2.3,0.5,3.1,1.4V113h3.4v18h-3.1l-0.2-1.3
		c-0.8,1.1-1.9,1.6-3.3,1.6c-1.5,0-2.7-0.6-3.6-1.8S119.5,126.7,119.5,124.6z M122.9,124.8c0,1.2,0.2,2.1,0.6,2.7s1,1,1.8,1
		c1,0,1.8-0.4,2.2-1.3v-5c-0.4-0.9-1.2-1.3-2.2-1.3C123.8,120.8,122.9,122.2,122.9,124.8z"/>
	<path class="st0" d="M72.8,144.8h-5.2V159H64v-14.2h-5.2v-2.8h13.9V144.8z"/>
	<path class="st0" d="M77.8,147.7c0.9-1.1,2-1.6,3.4-1.6c2.8,0,4.1,1.6,4.2,4.8v8.1H82v-8c0-0.7-0.2-1.3-0.5-1.6s-0.8-0.5-1.6-0.5
		c-1,0-1.7,0.4-2.2,1.1v9h-3.4v-18h3.4V147.7z"/>
	<path class="st0" d="M93.8,159.2c-1.9,0-3.4-0.6-4.5-1.7s-1.8-2.7-1.8-4.6v-0.3c0-1.3,0.2-2.4,0.7-3.4s1.2-1.8,2.1-2.3
		s1.9-0.8,3.1-0.8c1.7,0,3.1,0.5,4.1,1.6s1.5,2.6,1.5,4.7v1.4h-8.1c0.1,0.8,0.4,1.5,1,2s1.2,0.8,2.1,0.8c1.3,0,2.3-0.5,3.1-1.4
		l1.7,1.9c-0.5,0.7-1.2,1.3-2.1,1.7S94.9,159.2,93.8,159.2z M93.4,148.8c-0.7,0-1.2,0.2-1.6,0.7c-0.4,0.5-0.7,1.1-0.8,2h4.7v-0.3
		c0-0.8-0.2-1.3-0.6-1.7C94.7,149,94.1,148.8,93.4,148.8z"/>
	<path class="st0" d="M11.6,181v6H8.1v-17.1h6.7c1.3,0,2.4,0.2,3.4,0.7s1.7,1.1,2.2,2s0.8,1.8,0.8,2.9c0,1.7-0.6,3-1.7,4
		s-2.7,1.4-4.8,1.4H11.6z M11.6,178.1h3.1c0.9,0,1.6-0.2,2.1-0.7s0.7-1.1,0.7-1.9c0-0.8-0.2-1.5-0.7-2s-1.2-0.8-2-0.8h-3.2V178.1z"
		/>
	<path class="st0" d="M30.5,177.5c-0.5-0.1-0.9-0.1-1.2-0.1c-1.3,0-2.1,0.4-2.5,1.3v8.3h-3.4v-12.7h3.2l0.1,1.5
		c0.7-1.2,1.6-1.7,2.8-1.7c0.4,0,0.7,0.1,1.1,0.2L30.5,177.5z"/>
	<path class="st0" d="M32.1,171c0-0.5,0.2-0.9,0.5-1.3s0.8-0.5,1.4-0.5c0.6,0,1,0.2,1.4,0.5s0.5,0.7,0.5,1.3c0,0.5-0.2,0.9-0.5,1.3
		s-0.8,0.5-1.4,0.5s-1-0.2-1.4-0.5S32.1,171.6,32.1,171z M35.7,187h-3.4v-12.7h3.4V187z"/>
	<path class="st0" d="M43.2,182.9l2.4-8.5h3.5L44.8,187h-3.2l-4.3-12.7h3.5L43.2,182.9z"/>
	<path class="st0" d="M57.8,187c-0.2-0.3-0.3-0.7-0.3-1.1c-0.8,0.9-1.9,1.4-3.2,1.4c-1.2,0-2.3-0.4-3.1-1.1s-1.2-1.6-1.2-2.7
		c0-1.3,0.5-2.4,1.5-3.1s2.4-1.1,4.3-1.1h1.6v-0.7c0-0.6-0.2-1.1-0.5-1.4s-0.8-0.5-1.4-0.5c-0.6,0-1,0.1-1.3,0.4s-0.5,0.6-0.5,1.1
		h-3.4c0-0.7,0.2-1.4,0.7-2s1.1-1.1,1.9-1.5s1.8-0.5,2.8-0.5c1.6,0,2.8,0.4,3.7,1.2s1.4,1.9,1.4,3.3v5.5c0,1.2,0.2,2.1,0.5,2.7v0.2
		H57.8z M55,184.6c0.5,0,1-0.1,1.4-0.3s0.7-0.5,0.9-0.9v-2.2H56c-1.7,0-2.6,0.6-2.7,1.8l0,0.2c0,0.4,0.1,0.8,0.4,1
		S54.4,184.6,55,184.6z"/>
	<path class="st0" d="M68.6,184.5c0.6,0,1.1-0.2,1.5-0.5s0.6-0.8,0.6-1.4h3.2c0,0.9-0.2,1.6-0.7,2.4s-1.1,1.3-1.9,1.7
		s-1.7,0.6-2.7,0.6c-1.8,0-3.2-0.6-4.3-1.7s-1.6-2.7-1.6-4.8v-0.2c0-2,0.5-3.5,1.6-4.7s2.5-1.7,4.3-1.7c1.6,0,2.9,0.5,3.8,1.4
		s1.4,2.1,1.5,3.6h-3.2c0-0.7-0.2-1.2-0.6-1.6c-0.4-0.4-0.9-0.6-1.5-0.6c-0.8,0-1.4,0.3-1.8,0.9c-0.4,0.6-0.6,1.5-0.6,2.8v0.4
		c0,1.3,0.2,2.2,0.6,2.8C67.1,184.2,67.7,184.5,68.6,184.5z"/>
	<path class="st0" d="M80.5,182.2l2.3-7.9h3.6L81.4,189l-0.3,0.7c-0.8,1.7-2,2.5-3.8,2.5c-0.5,0-1-0.1-1.5-0.2v-2.6l0.5,0
		c0.6,0,1.1-0.1,1.4-0.3s0.6-0.5,0.7-1l0.4-1l-4.4-12.7h3.6L80.5,182.2z"/>
	<path class="st0" d="M101.6,184.8c-0.6,0.8-1.5,1.3-2.7,1.8s-2.4,0.6-3.8,0.6c-1.5,0-2.8-0.3-3.9-1s-2-1.6-2.6-2.8
		s-0.9-2.7-0.9-4.3V178c0-1.7,0.3-3.2,0.9-4.4s1.4-2.2,2.5-2.9s2.3-1,3.8-1c2,0,3.6,0.5,4.7,1.4s1.8,2.4,2,4.2h-3.4
		c-0.2-1-0.5-1.7-1-2.1s-1.3-0.7-2.2-0.7c-1.2,0-2.1,0.4-2.7,1.3s-0.9,2.2-0.9,4v1.1c0,1.8,0.3,3.1,1,4.1s1.7,1.4,3,1.4
		c1.3,0,2.3-0.3,2.8-0.8v-2.9h-3.2V178h6.7V184.8z"/>
	<path class="st0" d="M111.8,185.7c-0.8,1-2,1.5-3.5,1.5c-1.4,0-2.4-0.4-3.1-1.2s-1.1-1.9-1.1-3.4v-8.3h3.4v8.2c0,1.3,0.6,2,1.8,2
		c1.1,0,1.9-0.4,2.4-1.2v-9h3.4V187h-3.2L111.8,185.7z"/>
	<path class="st0" d="M125,187c-0.2-0.3-0.3-0.7-0.3-1.1c-0.8,0.9-1.9,1.4-3.2,1.4c-1.2,0-2.3-0.4-3.1-1.1s-1.2-1.6-1.2-2.7
		c0-1.3,0.5-2.4,1.5-3.1s2.4-1.1,4.3-1.1h1.6v-0.7c0-0.6-0.2-1.1-0.5-1.4s-0.8-0.5-1.4-0.5c-0.6,0-1,0.1-1.3,0.4s-0.5,0.6-0.5,1.1
		h-3.4c0-0.7,0.2-1.4,0.7-2s1.1-1.1,1.9-1.5s1.8-0.5,2.8-0.5c1.6,0,2.8,0.4,3.7,1.2s1.4,1.9,1.4,3.3v5.5c0,1.2,0.2,2.1,0.5,2.7v0.2
		H125z M122.2,184.6c0.5,0,1-0.1,1.4-0.3s0.7-0.5,0.9-0.9v-2.2h-1.3c-1.7,0-2.6,0.6-2.7,1.8l0,0.2c0,0.4,0.1,0.8,0.4,1
		S121.7,184.6,122.2,184.6z"/>
	<path class="st0" d="M137.6,177.5c-0.5-0.1-0.9-0.1-1.2-0.1c-1.3,0-2.1,0.4-2.5,1.3v8.3h-3.4v-12.7h3.2l0.1,1.5
		c0.7-1.2,1.6-1.7,2.8-1.7c0.4,0,0.7,0.1,1.1,0.2L137.6,177.5z"/>
	<path class="st0" d="M138.7,180.6c0-2,0.4-3.6,1.3-4.7s2.1-1.8,3.6-1.8c1.2,0,2.3,0.5,3.1,1.4V169h3.4v18h-3.1l-0.2-1.3
		c-0.8,1.1-1.9,1.6-3.3,1.6c-1.5,0-2.7-0.6-3.6-1.8S138.7,182.7,138.7,180.6z M142.1,180.8c0,1.2,0.2,2.1,0.6,2.7s1,1,1.8,1
		c1,0,1.8-0.4,2.2-1.3v-5c-0.4-0.9-1.2-1.3-2.2-1.3C142.9,176.8,142.1,178.2,142.1,180.8z"/>
	<path class="st0" d="M54.9,211.5h-6.2l-1.2,3.5h-3.7l6.4-17.1h3.3l6.4,17.1h-3.7L54.9,211.5z M49.7,208.6H54l-2.1-6.4L49.7,208.6z"
		/>
	<path class="st0" d="M72.6,208.8c0,2-0.4,3.5-1.3,4.7s-2.1,1.8-3.6,1.8c-1.3,0-2.3-0.4-3.1-1.3v6h-3.4v-17.6h3.1l0.1,1.2
		c0.8-1,1.9-1.5,3.2-1.5c1.6,0,2.8,0.6,3.6,1.7s1.3,2.8,1.3,4.8V208.8z M69.2,208.5c0-1.2-0.2-2.1-0.6-2.7s-1-1-1.8-1
		c-1.1,0-1.8,0.4-2.2,1.2v5.2c0.4,0.8,1.2,1.3,2.2,1.3C68.4,212.5,69.2,211.2,69.2,208.5z"/>
	<path class="st0" d="M86.1,208.8c0,2-0.4,3.5-1.3,4.7s-2.1,1.8-3.6,1.8c-1.3,0-2.3-0.4-3.1-1.3v6h-3.4v-17.6h3.1l0.1,1.2
		c0.8-1,1.9-1.5,3.2-1.5c1.6,0,2.8,0.6,3.6,1.7s1.3,2.8,1.3,4.8V208.8z M82.8,208.5c0-1.2-0.2-2.1-0.6-2.7s-1-1-1.8-1
		c-1.1,0-1.8,0.4-2.2,1.2v5.2c0.4,0.8,1.2,1.3,2.2,1.3C82,212.5,82.8,211.2,82.8,208.5z"/>
	<path class="st0" d="M98.3,199.2v3.1h2.2v2.5h-2.2v6.3c0,0.5,0.1,0.8,0.3,1s0.5,0.3,1,0.3c0.4,0,0.7,0,1-0.1v2.6
		c-0.7,0.2-1.3,0.3-2.1,0.3c-2.4,0-3.6-1.2-3.6-3.6v-6.8H93v-2.5h1.9v-3.1H98.3z"/>
	<path class="st0" d="M101.5,208.5c0-1.3,0.2-2.4,0.7-3.4s1.2-1.7,2.1-2.3s2-0.8,3.2-0.8c1.7,0,3.1,0.5,4.2,1.6s1.7,2.5,1.8,4.3
		l0,0.9c0,1.9-0.5,3.5-1.6,4.7s-2.5,1.8-4.4,1.8s-3.3-0.6-4.4-1.8s-1.6-2.8-1.6-4.8V208.5z M104.8,208.8c0,1.2,0.2,2.1,0.7,2.8
		c0.5,0.6,1.1,1,1.9,1c0.8,0,1.5-0.3,1.9-0.9c0.5-0.6,0.7-1.6,0.7-3c0-1.2-0.2-2.1-0.7-2.7s-1.1-1-1.9-1c-0.8,0-1.5,0.3-1.9,1
		S104.8,207.4,104.8,208.8z"/>
	<path class="st0" d="M18.9,231.7c0.9-1.1,2-1.6,3.4-1.6c2.8,0,4.1,1.6,4.2,4.8v8.1h-3.4v-8c0-0.7-0.2-1.3-0.5-1.6s-0.8-0.5-1.6-0.5
		c-1,0-1.7,0.4-2.2,1.1v9h-3.4v-18h3.4V231.7z"/>
	<path class="st0" d="M34.9,243.2c-1.9,0-3.4-0.6-4.5-1.7s-1.8-2.7-1.8-4.6v-0.3c0-1.3,0.2-2.4,0.7-3.4s1.2-1.8,2.1-2.3
		s1.9-0.8,3.1-0.8c1.7,0,3.1,0.5,4.1,1.6s1.5,2.6,1.5,4.7v1.4H32c0.1,0.8,0.4,1.5,1,2s1.2,0.8,2.1,0.8c1.3,0,2.3-0.5,3.1-1.4
		l1.7,1.9c-0.5,0.7-1.2,1.3-2.1,1.7S35.9,243.2,34.9,243.2z M34.5,232.8c-0.7,0-1.2,0.2-1.6,0.7s-0.7,1.1-0.8,2h4.7v-0.3
		c0-0.8-0.2-1.3-0.6-1.7S35.2,232.8,34.5,232.8z"/>
	<path class="st0" d="M45.6,243h-3.4v-18h3.4V243z"/>
	<path class="st0" d="M59.8,236.8c0,2-0.4,3.5-1.3,4.7s-2.1,1.8-3.6,1.8c-1.3,0-2.3-0.4-3.1-1.3v6h-3.4v-17.6h3.1l0.1,1.2
		c0.8-1,1.9-1.5,3.2-1.5c1.6,0,2.8,0.6,3.6,1.7s1.3,2.8,1.3,4.8V236.8z M56.4,236.5c0-1.2-0.2-2.1-0.6-2.7s-1-1-1.8-1
		c-1.1,0-1.8,0.4-2.2,1.2v5.2c0.4,0.8,1.2,1.3,2.2,1.3C55.6,240.5,56.4,239.2,56.4,236.5z"/>
	<path class="st0" d="M79.3,236.8c0,2-0.4,3.5-1.3,4.7s-2.1,1.8-3.6,1.8c-1.3,0-2.3-0.4-3.1-1.3v6h-3.4v-17.6H71l0.1,1.2
		c0.8-1,1.9-1.5,3.2-1.5c1.6,0,2.8,0.6,3.6,1.7s1.3,2.8,1.3,4.8V236.8z M75.9,236.5c0-1.2-0.2-2.1-0.6-2.7s-1-1-1.8-1
		c-1.1,0-1.8,0.4-2.2,1.2v5.2c0.4,0.8,1.2,1.3,2.2,1.3C75.1,240.5,75.9,239.2,75.9,236.5z"/>
	<path class="st0" d="M88.5,233.5c-0.5-0.1-0.9-0.1-1.2-0.1c-1.3,0-2.1,0.4-2.5,1.3v8.3h-3.4v-12.7h3.2l0.1,1.5
		c0.7-1.2,1.6-1.7,2.8-1.7c0.4,0,0.7,0.1,1.1,0.2L88.5,233.5z"/>
	<path class="st0" d="M89.2,236.5c0-1.3,0.2-2.4,0.7-3.4s1.2-1.7,2.1-2.3s2-0.8,3.2-0.8c1.7,0,3.1,0.5,4.2,1.6s1.7,2.5,1.8,4.3
		l0,0.9c0,1.9-0.5,3.5-1.6,4.7s-2.5,1.8-4.4,1.8s-3.3-0.6-4.4-1.8s-1.6-2.8-1.6-4.8V236.5z M92.6,236.8c0,1.2,0.2,2.1,0.7,2.8
		c0.5,0.6,1.1,1,1.9,1c0.8,0,1.5-0.3,1.9-0.9c0.5-0.6,0.7-1.6,0.7-3c0-1.2-0.2-2.1-0.7-2.7s-1.1-1-1.9-1c-0.8,0-1.5,0.3-1.9,1
		S92.6,235.4,92.6,236.8z"/>
	<path class="st0" d="M107.3,227.2v3.1h2.2v2.5h-2.2v6.3c0,0.5,0.1,0.8,0.3,1s0.5,0.3,1,0.3c0.4,0,0.7,0,1-0.1v2.6
		c-0.7,0.2-1.3,0.3-2.1,0.3c-2.4,0-3.6-1.2-3.6-3.6v-6.8h-1.9v-2.5h1.9v-3.1H107.3z"/>
	<path class="st0" d="M117.2,243.2c-1.9,0-3.4-0.6-4.5-1.7s-1.8-2.7-1.8-4.6v-0.3c0-1.3,0.2-2.4,0.7-3.4s1.2-1.8,2.1-2.3
		s1.9-0.8,3.1-0.8c1.7,0,3.1,0.5,4.1,1.6s1.5,2.6,1.5,4.7v1.4h-8.1c0.1,0.8,0.4,1.5,1,2s1.2,0.8,2.1,0.8c1.3,0,2.3-0.5,3.1-1.4
		l1.7,1.9c-0.5,0.7-1.2,1.3-2.1,1.7S118.3,243.2,117.2,243.2z M116.9,232.8c-0.7,0-1.2,0.2-1.6,0.7s-0.7,1.1-0.8,2h4.7v-0.3
		c0-0.8-0.2-1.3-0.6-1.7S117.6,232.8,116.9,232.8z"/>
	<path class="st0" d="M129.6,240.5c0.6,0,1.1-0.2,1.5-0.5s0.6-0.8,0.6-1.4h3.2c0,0.9-0.2,1.6-0.7,2.4s-1.1,1.3-1.9,1.7
		s-1.7,0.6-2.7,0.6c-1.8,0-3.2-0.6-4.3-1.7s-1.6-2.7-1.6-4.8v-0.2c0-2,0.5-3.5,1.6-4.7s2.5-1.7,4.3-1.7c1.6,0,2.9,0.5,3.8,1.4
		s1.4,2.1,1.5,3.6h-3.2c0-0.7-0.2-1.2-0.6-1.6c-0.4-0.4-0.9-0.6-1.5-0.6c-0.8,0-1.4,0.3-1.8,0.9c-0.4,0.6-0.6,1.5-0.6,2.8v0.4
		c0,1.3,0.2,2.2,0.6,2.8S128.8,240.5,129.6,240.5z"/>
	<path class="st0" d="M140.9,227.2v3.1h2.2v2.5h-2.2v6.3c0,0.5,0.1,0.8,0.3,1s0.5,0.3,1,0.3c0.4,0,0.7,0,1-0.1v2.6
		c-0.7,0.2-1.3,0.3-2.1,0.3c-2.4,0-3.6-1.2-3.6-3.6v-6.8h-1.9v-2.5h1.9v-3.1H140.9z"/>
	<path class="st0" d="M47.8,271c-0.2-0.3-0.3-0.7-0.3-1.1c-0.8,0.9-1.9,1.4-3.2,1.4c-1.2,0-2.3-0.4-3.1-1.1s-1.2-1.6-1.2-2.7
		c0-1.3,0.5-2.4,1.5-3.1s2.4-1.1,4.3-1.1h1.6v-0.7c0-0.6-0.2-1.1-0.5-1.4s-0.8-0.5-1.4-0.5c-0.6,0-1,0.1-1.3,0.4s-0.5,0.6-0.5,1.1
		h-3.4c0-0.7,0.2-1.4,0.7-2s1.1-1.1,1.9-1.5s1.8-0.5,2.8-0.5c1.6,0,2.8,0.4,3.7,1.2s1.4,1.9,1.4,3.3v5.5c0,1.2,0.2,2.1,0.5,2.7v0.2
		H47.8z M45,268.6c0.5,0,1-0.1,1.4-0.3s0.7-0.5,0.9-0.9v-2.2h-1.3c-1.7,0-2.6,0.6-2.7,1.8l0,0.2c0,0.4,0.1,0.8,0.4,1
		S44.5,268.6,45,268.6z"/>
	<path class="st0" d="M52.8,264.6c0-1.9,0.5-3.5,1.4-4.7s2.2-1.8,3.7-1.8c1.4,0,2.5,0.5,3.2,1.4l0.1-1.2h3.1v12.3
		c0,1.1-0.3,2.1-0.8,2.9s-1.2,1.4-2.1,1.9s-2,0.6-3.2,0.6c-0.9,0-1.8-0.2-2.7-0.6s-1.6-0.8-2-1.4l1.5-2.1c0.8,0.9,1.9,1.4,3.1,1.4
		c0.9,0,1.6-0.2,2.1-0.7s0.8-1.2,0.8-2v-0.7c-0.8,0.9-1.8,1.3-3.1,1.3c-1.5,0-2.8-0.6-3.7-1.8s-1.4-2.8-1.4-4.7V264.6z M56.2,264.8
		c0,1.2,0.2,2.1,0.7,2.7c0.5,0.7,1.1,1,1.9,1c1,0,1.8-0.4,2.2-1.2V262c-0.5-0.8-1.2-1.2-2.2-1.2c-0.8,0-1.5,0.3-1.9,1
		S56.2,263.5,56.2,264.8z"/>
	<path class="st0" d="M74.4,271c-0.2-0.3-0.3-0.7-0.3-1.1c-0.8,0.9-1.9,1.4-3.2,1.4c-1.2,0-2.3-0.4-3.1-1.1s-1.2-1.6-1.2-2.7
		c0-1.3,0.5-2.4,1.5-3.1s2.4-1.1,4.3-1.1h1.6v-0.7c0-0.6-0.2-1.1-0.5-1.4s-0.8-0.5-1.4-0.5c-0.6,0-1,0.1-1.3,0.4s-0.5,0.6-0.5,1.1
		h-3.4c0-0.7,0.2-1.4,0.7-2s1.1-1.1,1.9-1.5s1.8-0.5,2.8-0.5c1.6,0,2.8,0.4,3.7,1.2s1.4,1.9,1.4,3.3v5.5c0,1.2,0.2,2.1,0.5,2.7v0.2
		H74.4z M71.6,268.6c0.5,0,1-0.1,1.4-0.3s0.7-0.5,0.9-0.9v-2.2h-1.3c-1.7,0-2.6,0.6-2.7,1.8l0,0.2c0,0.4,0.1,0.8,0.4,1
		S71.1,268.6,71.6,268.6z"/>
	<path class="st0" d="M79.9,255c0-0.5,0.2-0.9,0.5-1.3s0.8-0.5,1.4-0.5c0.6,0,1,0.2,1.4,0.5s0.5,0.7,0.5,1.3c0,0.5-0.2,0.9-0.5,1.3
		s-0.8,0.5-1.4,0.5s-1-0.2-1.4-0.5S79.9,255.6,79.9,255z M83.5,271h-3.4v-12.7h3.4V271z"/>
	<path class="st0" d="M89.4,258.3l0.1,1.5c0.9-1.1,2.1-1.7,3.6-1.7c1.3,0,2.3,0.4,3,1.2s1,2,1,3.5v8.2h-3.4v-8.1
		c0-0.7-0.2-1.2-0.5-1.6s-0.8-0.5-1.6-0.5c-1,0-1.7,0.4-2.1,1.2v8.9h-3.4v-12.7H89.4z"/>
	<path class="st0" d="M106.6,267.5c0-0.4-0.2-0.7-0.6-1s-1.1-0.5-2-0.6c-3-0.6-4.5-1.9-4.5-3.8c0-1.1,0.5-2.1,1.4-2.8
		s2.2-1.1,3.7-1.1c1.6,0,2.9,0.4,3.9,1.1s1.4,1.7,1.4,3h-3.4c0-0.5-0.2-0.9-0.5-1.2s-0.8-0.5-1.5-0.5c-0.6,0-1,0.1-1.3,0.4
		s-0.5,0.6-0.5,1c0,0.4,0.2,0.7,0.5,0.9s1,0.4,1.8,0.6s1.6,0.4,2.1,0.6c1.8,0.7,2.7,1.8,2.7,3.4c0,1.2-0.5,2.1-1.5,2.8
		s-2.3,1.1-3.8,1.1c-1.1,0-2-0.2-2.8-0.6s-1.5-0.9-1.9-1.6s-0.7-1.4-0.7-2.1h3.2c0,0.6,0.3,1.1,0.7,1.4s1,0.5,1.7,0.5
		c0.6,0,1.1-0.1,1.5-0.4S106.6,267.9,106.6,267.5z"/>
	<path class="st0" d="M116.1,255.2v3.1h2.2v2.5h-2.2v6.3c0,0.5,0.1,0.8,0.3,1s0.5,0.3,1,0.3c0.4,0,0.7,0,1-0.1v2.6
		c-0.7,0.2-1.3,0.3-2.1,0.3c-2.4,0-3.6-1.2-3.6-3.6v-6.8h-1.9v-2.5h1.9v-3.1H116.1z"/>
	<path class="st0" d="M11.2,283c0-0.5,0.2-0.9,0.5-1.3s0.8-0.5,1.4-0.5c0.6,0,1,0.2,1.4,0.5s0.5,0.7,0.5,1.3c0,0.5-0.2,0.9-0.5,1.3
		s-0.8,0.5-1.4,0.5s-1-0.2-1.4-0.5S11.2,283.6,11.2,283z M14.8,299h-3.4v-12.7h3.4V299z"/>
	<path class="st0" d="M17.1,292.6c0-2,0.4-3.6,1.3-4.7s2.1-1.8,3.6-1.8c1.2,0,2.3,0.5,3.1,1.4V281h3.4v18h-3.1l-0.2-1.3
		c-0.8,1.1-1.9,1.6-3.3,1.6c-1.5,0-2.7-0.6-3.6-1.8S17.1,294.7,17.1,292.6z M20.5,292.8c0,1.2,0.2,2.1,0.6,2.7c0.4,0.6,1,1,1.8,1
		c1,0,1.8-0.4,2.2-1.3v-5c-0.4-0.9-1.2-1.3-2.2-1.3C21.3,288.8,20.5,290.2,20.5,292.8z"/>
	<path class="st0" d="M37,299.2c-1.9,0-3.4-0.6-4.5-1.7s-1.8-2.7-1.8-4.6v-0.3c0-1.3,0.2-2.4,0.7-3.4s1.2-1.8,2.1-2.3
		s1.9-0.8,3.1-0.8c1.7,0,3.1,0.5,4.1,1.6s1.5,2.6,1.5,4.7v1.4h-8.1c0.1,0.8,0.4,1.5,1,2s1.2,0.8,2.1,0.8c1.3,0,2.3-0.5,3.1-1.4
		l1.7,1.9c-0.5,0.7-1.2,1.3-2.1,1.7S38,299.2,37,299.2z M36.6,288.8c-0.7,0-1.2,0.2-1.6,0.7s-0.7,1.1-0.8,2h4.7v-0.3
		c0-0.8-0.2-1.3-0.6-1.7S37.3,288.8,36.6,288.8z"/>
	<path class="st0" d="M47.2,286.3l0.1,1.5c0.9-1.1,2.1-1.7,3.6-1.7c1.3,0,2.3,0.4,3,1.2s1,2,1,3.5v8.2h-3.4v-8.1
		c0-0.7-0.2-1.2-0.5-1.6s-0.8-0.5-1.6-0.5c-1,0-1.7,0.4-2.1,1.2v8.9H44v-12.7H47.2z"/>
	<path class="st0" d="M61.6,283.2v3.1h2.2v2.5h-2.2v6.3c0,0.5,0.1,0.8,0.3,1s0.5,0.3,1,0.3c0.4,0,0.7,0,1-0.1v2.6
		c-0.7,0.2-1.3,0.3-2.1,0.3c-2.4,0-3.6-1.2-3.6-3.6v-6.8h-1.9v-2.5h1.9v-3.1H61.6z"/>
	<path class="st0" d="M65.6,283c0-0.5,0.2-0.9,0.5-1.3s0.8-0.5,1.4-0.5c0.6,0,1,0.2,1.4,0.5s0.5,0.7,0.5,1.3c0,0.5-0.2,0.9-0.5,1.3
		s-0.8,0.5-1.4,0.5s-1-0.2-1.4-0.5S65.6,283.6,65.6,283z M69.2,299h-3.4v-12.7h3.4V299z"/>
	<path class="st0" d="M76.1,283.2v3.1h2.2v2.5h-2.2v6.3c0,0.5,0.1,0.8,0.3,1s0.5,0.3,1,0.3c0.4,0,0.7,0,1-0.1v2.6
		c-0.7,0.2-1.3,0.3-2.1,0.3c-2.4,0-3.6-1.2-3.6-3.6v-6.8h-1.9v-2.5h1.9v-3.1H76.1z"/>
	<path class="st0" d="M84.9,294.2l2.3-7.9h3.6L85.7,301l-0.3,0.7c-0.8,1.7-2,2.5-3.8,2.5c-0.5,0-1-0.1-1.5-0.2v-2.6l0.5,0
		c0.6,0,1.1-0.1,1.4-0.3s0.6-0.5,0.7-1l0.4-1l-4.4-12.7h3.6L84.9,294.2z"/>
	<path class="st0" d="M102.2,283.2v3.1h2.2v2.5h-2.2v6.3c0,0.5,0.1,0.8,0.3,1s0.5,0.3,1,0.3c0.4,0,0.7,0,1-0.1v2.6
		c-0.7,0.2-1.3,0.3-2.1,0.3c-2.4,0-3.6-1.2-3.6-3.6v-6.8H97v-2.5h1.9v-3.1H102.2z"/>
	<path class="st0" d="M109.6,287.7c0.9-1.1,2-1.6,3.4-1.6c2.8,0,4.1,1.6,4.2,4.8v8.1h-3.4v-8c0-0.7-0.2-1.3-0.5-1.6
		s-0.8-0.5-1.6-0.5c-1,0-1.7,0.4-2.2,1.1v9h-3.4v-18h3.4V287.7z"/>
	<path class="st0" d="M125.5,299.2c-1.9,0-3.4-0.6-4.5-1.7s-1.8-2.7-1.8-4.6v-0.3c0-1.3,0.2-2.4,0.7-3.4s1.2-1.8,2.1-2.3
		s1.9-0.8,3.1-0.8c1.7,0,3.1,0.5,4.1,1.6s1.5,2.6,1.5,4.7v1.4h-8.1c0.1,0.8,0.4,1.5,1,2s1.2,0.8,2.1,0.8c1.3,0,2.3-0.5,3.1-1.4
		l1.7,1.9c-0.5,0.7-1.2,1.3-2.1,1.7S126.6,299.2,125.5,299.2z M125.1,288.8c-0.7,0-1.2,0.2-1.6,0.7s-0.7,1.1-0.8,2h4.7v-0.3
		c0-0.8-0.2-1.3-0.6-1.7S125.9,288.8,125.1,288.8z"/>
	<path class="st0" d="M133.6,299v-10.2h-1.9v-2.5h1.9v-1.1c0-1.4,0.4-2.5,1.2-3.3s2-1.2,3.4-1.2c0.5,0,1,0.1,1.7,0.2l0,2.6
		c-0.3-0.1-0.6-0.1-1-0.1c-1.3,0-1.9,0.6-1.9,1.8v1h2.5v2.5H137V299H133.6z"/>
	<path class="st0" d="M145.3,283.2v3.1h2.2v2.5h-2.2v6.3c0,0.5,0.1,0.8,0.3,1s0.5,0.3,1,0.3c0.4,0,0.7,0,1-0.1v2.6
		c-0.7,0.2-1.3,0.3-2.1,0.3c-2.4,0-3.6-1.2-3.6-3.6v-6.8h-1.9v-2.5h1.9v-3.1H145.3z"/>
	<path class="st0" d="M54,311.2v3.1h2.2v2.5H54v6.3c0,0.5,0.1,0.8,0.3,1s0.5,0.3,1,0.3c0.4,0,0.7,0,1-0.1v2.6
		c-0.7,0.2-1.3,0.3-2.1,0.3c-2.4,0-3.6-1.2-3.6-3.6v-6.8h-1.9v-2.5h1.9v-3.1H54z"/>
	<path class="st0" d="M57.2,320.5c0-1.3,0.2-2.4,0.7-3.4s1.2-1.7,2.1-2.3s2-0.8,3.2-0.8c1.7,0,3.1,0.5,4.2,1.6s1.7,2.5,1.8,4.3
		l0,0.9c0,1.9-0.5,3.5-1.6,4.7s-2.5,1.8-4.4,1.8s-3.3-0.6-4.4-1.8s-1.6-2.8-1.6-4.8V320.5z M60.5,320.8c0,1.2,0.2,2.1,0.7,2.8
		c0.5,0.6,1.1,1,1.9,1c0.8,0,1.5-0.3,1.9-0.9c0.5-0.6,0.7-1.6,0.7-3c0-1.2-0.2-2.1-0.7-2.7s-1.1-1-1.9-1c-0.8,0-1.5,0.3-1.9,1
		S60.5,319.4,60.5,320.8z"/>
	<path class="st0" d="M70.7,320.6c0-2,0.4-3.6,1.3-4.7s2.1-1.8,3.6-1.8c1.2,0,2.3,0.5,3.1,1.4V309h3.4v18h-3.1l-0.2-1.3
		c-0.8,1.1-1.9,1.6-3.3,1.6c-1.5,0-2.7-0.6-3.6-1.8S70.7,322.7,70.7,320.6z M74.1,320.8c0,1.2,0.2,2.1,0.6,2.7c0.4,0.6,1,1,1.8,1
		c1,0,1.8-0.4,2.2-1.3v-5c-0.4-0.9-1.2-1.3-2.2-1.3C74.9,316.8,74.1,318.2,74.1,320.8z"/>
	<path class="st0" d="M92.1,327c-0.2-0.3-0.3-0.7-0.3-1.1c-0.8,0.9-1.9,1.4-3.2,1.4c-1.2,0-2.3-0.4-3.1-1.1s-1.2-1.6-1.2-2.7
		c0-1.3,0.5-2.4,1.5-3.1s2.4-1.1,4.3-1.1h1.6v-0.7c0-0.6-0.2-1.1-0.5-1.4s-0.8-0.5-1.4-0.5c-0.6,0-1,0.1-1.3,0.4s-0.5,0.6-0.5,1.1
		h-3.4c0-0.7,0.2-1.4,0.7-2s1.1-1.1,1.9-1.5s1.8-0.5,2.8-0.5c1.6,0,2.8,0.4,3.7,1.2s1.4,1.9,1.4,3.3v5.5c0,1.2,0.2,2.1,0.5,2.7v0.2
		H92.1z M89.3,324.6c0.5,0,1-0.1,1.4-0.3s0.7-0.5,0.9-0.9v-2.2h-1.3c-1.7,0-2.6,0.6-2.7,1.8l0,0.2c0,0.4,0.1,0.8,0.4,1
		S88.8,324.6,89.3,324.6z"/>
	<path class="st0" d="M102.4,322.2l2.3-7.9h3.6l-5.1,14.6l-0.3,0.7c-0.8,1.7-2,2.5-3.8,2.5c-0.5,0-1-0.1-1.5-0.2v-2.6l0.5,0
		c0.6,0,1.1-0.1,1.4-0.3s0.6-0.5,0.7-1l0.4-1l-4.4-12.7h3.6L102.4,322.2z"/>
	<path class="st0" d="M109.9,325.3c0-0.5,0.2-1,0.5-1.3s0.8-0.5,1.4-0.5c0.6,0,1,0.2,1.4,0.5s0.5,0.8,0.5,1.3c0,0.5-0.2,1-0.5,1.3
		s-0.8,0.5-1.4,0.5c-0.6,0-1-0.2-1.4-0.5S109.9,325.9,109.9,325.3z"/>
</g>
<g>
	<path class="st0" d="M30.7,471.3c0-0.4-0.1-0.7-0.3-0.9c-0.2-0.2-0.6-0.4-1.1-0.6s-0.9-0.4-1.2-0.5c-1-0.5-1.5-1.3-1.5-2.3
		c0-0.7,0.2-1.3,0.6-1.7s1-0.7,1.7-0.8V463h1v1.4c0.7,0.1,1.3,0.4,1.7,0.9s0.6,1.2,0.6,2h-1.5c0-0.5-0.1-1-0.4-1.3
		c-0.2-0.3-0.6-0.5-1-0.5c-0.4,0-0.7,0.1-1,0.3s-0.3,0.5-0.3,0.9c0,0.4,0.1,0.7,0.3,0.9c0.2,0.2,0.6,0.4,1.2,0.6s1,0.4,1.3,0.6
		c0.3,0.2,0.6,0.4,0.8,0.6s0.4,0.5,0.5,0.8c0.1,0.3,0.2,0.6,0.2,1c0,0.7-0.2,1.3-0.7,1.7c-0.4,0.4-1,0.7-1.8,0.8v1.2h-1v-1.2
		c-0.8-0.1-1.5-0.4-1.9-0.9c-0.5-0.5-0.7-1.2-0.7-2h1.5c0,0.5,0.1,0.9,0.4,1.2c0.3,0.3,0.6,0.4,1.1,0.4c0.5,0,0.8-0.1,1.1-0.3
		C30.6,472,30.7,471.7,30.7,471.3z"/>
	<path class="st0" d="M37.8,473.7h-1.5v-7.4L34,467v-1.3l3.6-1.3h0.2V473.7z"/>
	<path class="st0" d="M46.3,465.2v1.7h1.2v1.1h-1.2v3.8c0,0.3,0.1,0.5,0.2,0.6c0.1,0.1,0.3,0.2,0.6,0.2c0.2,0,0.4,0,0.5-0.1v1.2
		c-0.4,0.1-0.7,0.1-1,0.1c-1.2,0-1.8-0.7-1.8-2V468h-1.1v-1.1h1.1v-1.7H46.3z"/>
	<path class="st0" d="M52.3,468.2c-0.2,0-0.4-0.1-0.6-0.1c-0.7,0-1.2,0.3-1.4,0.8v4.7h-1.5v-6.9h1.5l0,0.8c0.4-0.6,0.9-0.9,1.5-0.9
		c0.2,0,0.4,0,0.5,0.1L52.3,468.2z"/>
	<path class="st0" d="M53.2,465c0-0.2,0.1-0.4,0.2-0.6c0.2-0.2,0.4-0.2,0.6-0.2s0.5,0.1,0.6,0.2s0.2,0.4,0.2,0.6
		c0,0.2-0.1,0.4-0.2,0.6s-0.4,0.2-0.6,0.2s-0.5-0.1-0.6-0.2C53.3,465.5,53.2,465.3,53.2,465z M54.9,473.7h-1.5v-6.9h1.5V473.7z"/>
	<path class="st0" d="M60.7,473.7c-0.1-0.1-0.1-0.3-0.2-0.6c-0.5,0.5-1.1,0.8-1.8,0.8c-0.7,0-1.3-0.2-1.7-0.6
		c-0.4-0.4-0.7-0.9-0.7-1.5c0-0.7,0.3-1.3,0.8-1.7c0.5-0.4,1.3-0.6,2.3-0.6h0.9V469c0-0.4-0.1-0.6-0.3-0.9s-0.5-0.3-0.9-0.3
		c-0.4,0-0.6,0.1-0.9,0.3s-0.3,0.4-0.3,0.7h-1.5c0-0.4,0.1-0.7,0.4-1.1s0.6-0.6,1-0.8c0.4-0.2,0.9-0.3,1.4-0.3
		c0.8,0,1.4,0.2,1.9,0.6s0.7,1,0.7,1.7v3.1c0,0.6,0.1,1.1,0.3,1.5v0.1H60.7z M59,472.6c0.3,0,0.6-0.1,0.9-0.2
		c0.3-0.1,0.5-0.3,0.6-0.6v-1.3h-0.8c-0.6,0-1,0.1-1.3,0.3c-0.3,0.2-0.4,0.5-0.4,0.8c0,0.3,0.1,0.5,0.3,0.7
		C58.4,472.5,58.6,472.6,59,472.6z"/>
	<path class="st0" d="M65.2,473.7h-1.5v-9.8h1.5V473.7z"/>
	<path class="st0" d="M70.7,473.7V468h-1v-1.1h1v-0.6c0-0.8,0.2-1.4,0.6-1.8c0.4-0.4,1-0.6,1.8-0.6c0.3,0,0.6,0,0.9,0.1l0,1.2
		c-0.2,0-0.4-0.1-0.6-0.1c-0.7,0-1.1,0.4-1.1,1.1v0.6h1.4v1.1h-1.4v5.7H70.7z"/>
	<path class="st0" d="M74.5,470.2c0-0.7,0.1-1.3,0.4-1.8c0.3-0.5,0.6-1,1.1-1.2s1-0.4,1.7-0.4c0.9,0,1.7,0.3,2.3,0.9
		c0.6,0.6,0.9,1.4,0.9,2.4l0,0.4c0,0.7-0.1,1.3-0.4,1.8c-0.3,0.5-0.6,0.9-1.1,1.2c-0.5,0.3-1,0.4-1.7,0.4c-1,0-1.7-0.3-2.3-1
		C74.8,472.2,74.5,471.3,74.5,470.2L74.5,470.2z M76,470.3c0,0.7,0.1,1.3,0.4,1.7c0.3,0.4,0.7,0.6,1.2,0.6s0.9-0.2,1.2-0.6
		c0.3-0.4,0.4-1,0.4-1.8c0-0.7-0.1-1.2-0.4-1.7c-0.3-0.4-0.7-0.6-1.2-0.6c-0.5,0-0.9,0.2-1.2,0.6C76.2,468.9,76,469.5,76,470.3z"/>
	<path class="st0" d="M85.8,468.2c-0.2,0-0.4-0.1-0.6-0.1c-0.7,0-1.2,0.3-1.4,0.8v4.7h-1.5v-6.9h1.5l0,0.8c0.4-0.6,0.9-0.9,1.5-0.9
		c0.2,0,0.4,0,0.5,0.1L85.8,468.2z"/>
	<path class="st0" d="M91.9,465.2v1.7h1.2v1.1h-1.2v3.8c0,0.3,0.1,0.5,0.2,0.6c0.1,0.1,0.3,0.2,0.6,0.2c0.2,0,0.4,0,0.5-0.1v1.2
		c-0.4,0.1-0.7,0.1-1,0.1c-1.2,0-1.8-0.7-1.8-2V468h-1.1v-1.1h1.1v-1.7H91.9z"/>
	<path class="st0" d="M95.8,467.6c0.5-0.6,1.1-0.9,1.9-0.9c1.5,0,2.2,0.8,2.2,2.5v4.5h-1.5v-4.4c0-0.5-0.1-0.8-0.3-1
		c-0.2-0.2-0.5-0.3-0.9-0.3c-0.6,0-1.1,0.3-1.4,0.8v4.9h-1.5v-9.8h1.5V467.6z"/>
	<path class="st0" d="M104.5,473.8c-1,0-1.8-0.3-2.4-0.9c-0.6-0.6-0.9-1.4-0.9-2.5v-0.2c0-0.7,0.1-1.3,0.4-1.8
		c0.3-0.5,0.6-1,1.1-1.3c0.5-0.3,1-0.5,1.6-0.5c0.9,0,1.7,0.3,2.2,0.9c0.5,0.6,0.8,1.4,0.8,2.5v0.6h-4.5c0,0.6,0.2,1,0.6,1.3
		c0.3,0.3,0.8,0.5,1.3,0.5c0.7,0,1.3-0.3,1.7-0.9l0.8,0.8c-0.3,0.4-0.6,0.7-1.1,1S105.1,473.8,104.5,473.8z M104.3,467.9
		c-0.4,0-0.8,0.1-1,0.4c-0.3,0.3-0.4,0.7-0.5,1.2h2.9v-0.1c0-0.5-0.2-0.9-0.4-1.2S104.8,467.9,104.3,467.9z"/>
	<path class="st0" d="M112.3,473.7V468h-1v-1.1h1v-0.6c0-0.8,0.2-1.4,0.6-1.8c0.4-0.4,1-0.6,1.8-0.6c0.3,0,0.6,0,0.9,0.1l0,1.2
		c-0.2,0-0.4-0.1-0.6-0.1c-0.7,0-1.1,0.4-1.1,1.1v0.6h1.4v1.1h-1.4v5.7H112.3z"/>
	<path class="st0" d="M116.3,465c0-0.2,0.1-0.4,0.2-0.6c0.2-0.2,0.4-0.2,0.6-0.2s0.5,0.1,0.6,0.2s0.2,0.4,0.2,0.6
		c0,0.2-0.1,0.4-0.2,0.6s-0.4,0.2-0.6,0.2s-0.5-0.1-0.6-0.2C116.4,465.5,116.3,465.3,116.3,465z M118,473.7h-1.5v-6.9h1.5V473.7z"/>
	<path class="st0" d="M123.2,468.2c-0.2,0-0.4-0.1-0.6-0.1c-0.7,0-1.2,0.3-1.4,0.8v4.7h-1.5v-6.9h1.5l0,0.8c0.4-0.6,0.9-0.9,1.5-0.9
		c0.2,0,0.4,0,0.5,0.1L123.2,468.2z"/>
	<path class="st0" d="M128.1,471.8c0-0.3-0.1-0.5-0.3-0.6c-0.2-0.1-0.6-0.3-1.1-0.4c-0.5-0.1-1-0.2-1.3-0.4
		c-0.8-0.4-1.2-0.9-1.2-1.6c0-0.6,0.2-1.1,0.7-1.5c0.5-0.4,1.1-0.6,1.9-0.6c0.8,0,1.5,0.2,2,0.6s0.8,0.9,0.8,1.6H128
		c0-0.3-0.1-0.5-0.3-0.7c-0.2-0.2-0.5-0.3-0.9-0.3c-0.3,0-0.6,0.1-0.8,0.2c-0.2,0.2-0.3,0.4-0.3,0.6c0,0.2,0.1,0.4,0.3,0.6
		c0.2,0.1,0.6,0.3,1.2,0.4c0.6,0.1,1.1,0.3,1.4,0.5c0.3,0.2,0.6,0.4,0.8,0.7c0.2,0.3,0.3,0.6,0.3,0.9c0,0.6-0.3,1.1-0.8,1.5
		c-0.5,0.4-1.2,0.6-2,0.6c-0.6,0-1.1-0.1-1.5-0.3c-0.4-0.2-0.8-0.5-1-0.8c-0.2-0.4-0.4-0.7-0.4-1.1h1.5c0,0.4,0.2,0.6,0.4,0.8
		c0.3,0.2,0.6,0.3,1,0.3c0.4,0,0.7-0.1,0.9-0.2C128,472.3,128.1,472.1,128.1,471.8z"/>
	<path class="st0" d="M132.9,465.2v1.7h1.2v1.1h-1.2v3.8c0,0.3,0.1,0.5,0.2,0.6s0.3,0.2,0.6,0.2c0.2,0,0.4,0,0.5-0.1v1.2
		c-0.4,0.1-0.7,0.1-1,0.1c-1.2,0-1.8-0.7-1.8-2V468h-1.1v-1.1h1.1v-1.7H132.9z"/>
	<path class="st0" d="M60.3,489.3h-1.5v-7.4l-2.3,0.8v-1.3l3.6-1.3h0.2V489.3z"/>
	<path class="st0" d="M68.8,486h1.1v1.2h-1.1v2.1h-1.5v-2.1h-4l0-0.9l4-6.2h1.6V486z M64.8,486h2.4v-3.9l-0.1,0.2L64.8,486z"/>
	<path class="st0" d="M74,485.8c0-1.1,0.2-1.9,0.7-2.5c0.5-0.6,1.1-1,2-1c0.7,0,1.3,0.3,1.8,0.8v-3.5H80v9.8h-1.4l-0.1-0.7
		c-0.5,0.6-1.1,0.8-1.8,0.8c-0.8,0-1.5-0.3-2-1C74.2,487.8,74,486.9,74,485.8z M75.5,485.9c0,0.7,0.1,1.2,0.4,1.6
		c0.3,0.4,0.7,0.6,1.1,0.6c0.6,0,1.1-0.3,1.4-0.8v-2.9c-0.3-0.6-0.7-0.8-1.4-0.8c-0.5,0-0.9,0.2-1.2,0.6S75.5,485.1,75.5,485.9z"/>
	<path class="st0" d="M85.7,489.3c-0.1-0.1-0.1-0.3-0.2-0.6c-0.5,0.5-1.1,0.8-1.8,0.8c-0.7,0-1.3-0.2-1.7-0.6
		c-0.4-0.4-0.7-0.9-0.7-1.5c0-0.7,0.3-1.3,0.8-1.7c0.5-0.4,1.3-0.6,2.3-0.6h0.9v-0.5c0-0.4-0.1-0.6-0.3-0.9
		c-0.2-0.2-0.5-0.3-0.9-0.3c-0.4,0-0.6,0.1-0.9,0.3c-0.2,0.2-0.3,0.4-0.3,0.7h-1.5c0-0.4,0.1-0.7,0.4-1.1c0.2-0.3,0.6-0.6,1-0.8
		c0.4-0.2,0.9-0.3,1.4-0.3c0.8,0,1.4,0.2,1.9,0.6c0.5,0.4,0.7,1,0.7,1.7v3.1c0,0.6,0.1,1.1,0.3,1.5v0.1H85.7z M84,488.2
		c0.3,0,0.6-0.1,0.9-0.2s0.5-0.3,0.6-0.6v-1.3h-0.8c-0.6,0-1,0.1-1.3,0.3c-0.3,0.2-0.4,0.5-0.4,0.8c0,0.3,0.1,0.5,0.3,0.7
		C83.4,488.1,83.7,488.2,84,488.2z"/>
	<path class="st0" d="M91.1,487.1l1.4-4.7h1.6l-2.7,7.9c-0.4,1.2-1.1,1.7-2.1,1.7c-0.2,0-0.5,0-0.7-0.1v-1.2l0.3,0
		c0.4,0,0.7-0.1,0.9-0.2c0.2-0.1,0.4-0.4,0.5-0.7l0.2-0.6l-2.4-6.8h1.7L91.1,487.1z"/>
	<path class="st0" d="M98.8,487.4c0-0.3-0.1-0.5-0.3-0.6c-0.2-0.1-0.6-0.3-1.1-0.4c-0.5-0.1-1-0.2-1.3-0.4c-0.8-0.4-1.2-0.9-1.2-1.6
		c0-0.6,0.2-1.1,0.7-1.5c0.5-0.4,1.1-0.6,1.9-0.6c0.8,0,1.5,0.2,2,0.6s0.8,0.9,0.8,1.6h-1.5c0-0.3-0.1-0.5-0.3-0.7
		c-0.2-0.2-0.5-0.3-0.9-0.3c-0.3,0-0.6,0.1-0.8,0.2c-0.2,0.2-0.3,0.4-0.3,0.6c0,0.2,0.1,0.4,0.3,0.6c0.2,0.1,0.6,0.3,1.2,0.4
		c0.6,0.1,1.1,0.3,1.4,0.5c0.3,0.2,0.6,0.4,0.8,0.7c0.2,0.3,0.3,0.6,0.3,0.9c0,0.6-0.3,1.1-0.8,1.5c-0.5,0.4-1.2,0.6-2,0.6
		c-0.6,0-1.1-0.1-1.5-0.3c-0.4-0.2-0.8-0.5-1-0.8c-0.2-0.4-0.4-0.7-0.4-1.1h1.5c0,0.4,0.2,0.6,0.4,0.8c0.3,0.2,0.6,0.3,1,0.3
		c0.4,0,0.7-0.1,0.9-0.2C98.7,487.9,98.8,487.7,98.8,487.4z"/>
	<path class="st0" d="M102.6,487.7c0.3,0,0.5,0.1,0.7,0.2c0.2,0.2,0.2,0.4,0.2,0.6c0,0.2-0.1,0.4-0.2,0.6c-0.2,0.2-0.4,0.2-0.7,0.2
		c-0.3,0-0.5-0.1-0.7-0.2c-0.2-0.2-0.2-0.4-0.2-0.6c0-0.2,0.1-0.5,0.2-0.6C102.1,487.7,102.4,487.7,102.6,487.7z"/>
	<path class="st0" d="M34.7,501.5v3.4h-1.6v-9.2h3.5c1,0,1.9,0.3,2.5,0.8c0.6,0.5,0.9,1.2,0.9,2.1c0,0.9-0.3,1.6-0.9,2.1
		c-0.6,0.5-1.4,0.8-2.5,0.8H34.7z M34.7,500.2h1.9c0.6,0,1-0.1,1.3-0.4s0.5-0.7,0.5-1.2c0-0.5-0.2-0.9-0.5-1.2
		c-0.3-0.3-0.7-0.5-1.3-0.5h-2V500.2z"/>
	<path class="st0" d="M42.9,504.9h-1.5v-9.8h1.5V504.9z"/>
	<path class="st0" d="M48.7,504.9c-0.1-0.1-0.1-0.3-0.2-0.6c-0.5,0.5-1.1,0.8-1.8,0.8c-0.7,0-1.3-0.2-1.7-0.6
		c-0.4-0.4-0.7-0.9-0.7-1.5c0-0.7,0.3-1.3,0.8-1.7c0.5-0.4,1.3-0.6,2.3-0.6h0.9v-0.5c0-0.4-0.1-0.6-0.3-0.9s-0.5-0.3-0.9-0.3
		c-0.4,0-0.6,0.1-0.9,0.3s-0.3,0.4-0.3,0.7h-1.5c0-0.4,0.1-0.7,0.4-1.1s0.6-0.6,1-0.8c0.4-0.2,0.9-0.3,1.4-0.3
		c0.8,0,1.4,0.2,1.9,0.6s0.7,1,0.7,1.7v3.1c0,0.6,0.1,1.1,0.3,1.5v0.1H48.7z M47,503.8c0.3,0,0.6-0.1,0.9-0.2
		c0.3-0.1,0.5-0.3,0.6-0.6v-1.3h-0.8c-0.6,0-1,0.1-1.3,0.3c-0.3,0.2-0.4,0.5-0.4,0.8c0,0.3,0.1,0.5,0.3,0.7
		C46.4,503.7,46.7,503.8,47,503.8z"/>
	<path class="st0" d="M53.1,498l0,0.8c0.5-0.6,1.2-0.9,2-0.9c1.4,0,2.2,0.8,2.2,2.5v4.5h-1.5v-4.4c0-0.4-0.1-0.8-0.3-1
		c-0.2-0.2-0.5-0.3-0.9-0.3c-0.6,0-1.1,0.3-1.4,0.8v4.9h-1.5V498H53.1z"/>
	<path class="st0" d="M62.7,503c0-0.3-0.1-0.5-0.3-0.6c-0.2-0.1-0.6-0.3-1.1-0.4c-0.5-0.1-1-0.2-1.3-0.4c-0.8-0.4-1.2-0.9-1.2-1.6
		c0-0.6,0.2-1.1,0.7-1.5s1.1-0.6,1.9-0.6c0.8,0,1.5,0.2,2,0.6c0.5,0.4,0.8,0.9,0.8,1.6h-1.5c0-0.3-0.1-0.5-0.3-0.7
		c-0.2-0.2-0.5-0.3-0.9-0.3c-0.3,0-0.6,0.1-0.8,0.2c-0.2,0.2-0.3,0.4-0.3,0.6c0,0.2,0.1,0.4,0.3,0.6c0.2,0.1,0.6,0.3,1.2,0.4
		c0.6,0.1,1.1,0.3,1.4,0.5c0.3,0.2,0.6,0.4,0.8,0.7c0.2,0.3,0.3,0.6,0.3,0.9c0,0.6-0.3,1.1-0.8,1.5s-1.2,0.6-2,0.6
		c-0.6,0-1.1-0.1-1.5-0.3s-0.8-0.5-1-0.8s-0.4-0.7-0.4-1.1h1.5c0,0.4,0.2,0.6,0.4,0.8c0.3,0.2,0.6,0.3,1,0.3c0.4,0,0.7-0.1,0.9-0.2
		S62.7,503.3,62.7,503z"/>
	<path class="st0" d="M72.7,503c0-0.3-0.1-0.5-0.3-0.6c-0.2-0.1-0.6-0.3-1.1-0.4c-0.5-0.1-1-0.2-1.3-0.4c-0.8-0.4-1.2-0.9-1.2-1.6
		c0-0.6,0.2-1.1,0.7-1.5s1.1-0.6,1.9-0.6c0.8,0,1.5,0.2,2,0.6c0.5,0.4,0.8,0.9,0.8,1.6h-1.5c0-0.3-0.1-0.5-0.3-0.7
		c-0.2-0.2-0.5-0.3-0.9-0.3c-0.3,0-0.6,0.1-0.8,0.2c-0.2,0.2-0.3,0.4-0.3,0.6c0,0.2,0.1,0.4,0.3,0.6c0.2,0.1,0.6,0.3,1.2,0.4
		c0.6,0.1,1.1,0.3,1.4,0.5c0.3,0.2,0.6,0.4,0.8,0.7c0.2,0.3,0.3,0.6,0.3,0.9c0,0.6-0.3,1.1-0.8,1.5s-1.2,0.6-2,0.6
		c-0.6,0-1.1-0.1-1.5-0.3s-0.8-0.5-1-0.8s-0.4-0.7-0.4-1.1H70c0,0.4,0.2,0.6,0.4,0.8c0.3,0.2,0.6,0.3,1,0.3c0.4,0,0.7-0.1,0.9-0.2
		S72.7,503.3,72.7,503z"/>
	<path class="st0" d="M77.5,496.4v1.7h1.2v1.1h-1.2v3.8c0,0.3,0.1,0.5,0.2,0.6c0.1,0.1,0.3,0.2,0.6,0.2c0.2,0,0.4,0,0.5-0.1v1.2
		c-0.4,0.1-0.7,0.1-1,0.1c-1.2,0-1.8-0.7-1.8-2v-3.9h-1.1V498h1.1v-1.7H77.5z"/>
	<path class="st0" d="M84,504.9c-0.1-0.1-0.1-0.3-0.2-0.6c-0.5,0.5-1.1,0.8-1.8,0.8c-0.7,0-1.3-0.2-1.7-0.6
		c-0.4-0.4-0.7-0.9-0.7-1.5c0-0.7,0.3-1.3,0.8-1.7c0.5-0.4,1.3-0.6,2.3-0.6h0.9v-0.5c0-0.4-0.1-0.6-0.3-0.9
		c-0.2-0.2-0.5-0.3-0.9-0.3c-0.4,0-0.6,0.1-0.9,0.3c-0.2,0.2-0.3,0.4-0.3,0.7h-1.5c0-0.4,0.1-0.7,0.4-1.1s0.6-0.6,1-0.8
		c0.4-0.2,0.9-0.3,1.4-0.3c0.8,0,1.4,0.2,1.9,0.6c0.5,0.4,0.7,1,0.7,1.7v3.1c0,0.6,0.1,1.1,0.3,1.5v0.1H84z M82.3,503.8
		c0.3,0,0.6-0.1,0.9-0.2s0.5-0.3,0.6-0.6v-1.3h-0.8c-0.6,0-1,0.1-1.3,0.3c-0.3,0.2-0.4,0.5-0.4,0.8c0,0.3,0.1,0.5,0.3,0.7
		C81.7,503.7,81.9,503.8,82.3,503.8z"/>
	<path class="st0" d="M90.5,499.4c-0.2,0-0.4-0.1-0.6-0.1c-0.7,0-1.2,0.3-1.4,0.8v4.7h-1.5V498h1.5l0,0.8c0.4-0.6,0.9-0.9,1.5-0.9
		c0.2,0,0.4,0,0.5,0.1L90.5,499.4z"/>
	<path class="st0" d="M93.7,496.4v1.7h1.2v1.1h-1.2v3.8c0,0.3,0.1,0.5,0.2,0.6s0.3,0.2,0.6,0.2c0.2,0,0.4,0,0.5-0.1v1.2
		c-0.4,0.1-0.7,0.1-1,0.1c-1.2,0-1.8-0.7-1.8-2v-3.9H91V498h1.1v-1.7H93.7z"/>
	<path class="st0" d="M96.1,496.2c0-0.2,0.1-0.4,0.2-0.6s0.4-0.2,0.6-0.2s0.5,0.1,0.6,0.2s0.2,0.4,0.2,0.6c0,0.2-0.1,0.4-0.2,0.6
		s-0.4,0.2-0.6,0.2s-0.5-0.1-0.6-0.2S96.1,496.5,96.1,496.2z M97.7,504.9h-1.5V498h1.5V504.9z"/>
	<path class="st0" d="M100.8,498l0,0.8c0.5-0.6,1.2-0.9,2-0.9c1.4,0,2.2,0.8,2.2,2.5v4.5h-1.5v-4.4c0-0.4-0.1-0.8-0.3-1
		c-0.2-0.2-0.5-0.3-0.9-0.3c-0.6,0-1.1,0.3-1.4,0.8v4.9h-1.5V498H100.8z"/>
	<path class="st0" d="M106.4,501.4c0-1.1,0.3-1.9,0.8-2.6c0.5-0.6,1.2-1,2-1c0.8,0,1.4,0.3,1.8,0.8l0.1-0.7h1.4v6.7
		c0,0.9-0.3,1.6-0.8,2.1c-0.6,0.5-1.3,0.8-2.3,0.8c-0.5,0-1-0.1-1.5-0.3c-0.5-0.2-0.8-0.5-1.1-0.8l0.7-0.9c0.5,0.6,1.1,0.8,1.8,0.8
		c0.5,0,0.9-0.1,1.2-0.4c0.3-0.3,0.4-0.7,0.4-1.2v-0.5c-0.4,0.5-1,0.7-1.8,0.7c-0.8,0-1.5-0.3-2-1
		C106.6,503.4,106.4,502.5,106.4,501.4z M107.9,501.5c0,0.7,0.1,1.2,0.4,1.6s0.7,0.6,1.2,0.6c0.6,0,1.1-0.3,1.4-0.8v-3
		c-0.3-0.5-0.7-0.8-1.4-0.8c-0.5,0-0.9,0.2-1.2,0.6S107.9,500.8,107.9,501.5z"/>
	<path class="st0" d="M121.4,504.9c-0.1-0.1-0.1-0.3-0.2-0.6c-0.5,0.5-1.1,0.8-1.8,0.8c-0.7,0-1.3-0.2-1.7-0.6
		c-0.4-0.4-0.7-0.9-0.7-1.5c0-0.7,0.3-1.3,0.8-1.7c0.5-0.4,1.3-0.6,2.3-0.6h0.9v-0.5c0-0.4-0.1-0.6-0.3-0.9
		c-0.2-0.2-0.5-0.3-0.9-0.3c-0.4,0-0.6,0.1-0.9,0.3c-0.2,0.2-0.3,0.4-0.3,0.7h-1.5c0-0.4,0.1-0.7,0.4-1.1c0.2-0.3,0.6-0.6,1-0.8
		c0.4-0.2,0.9-0.3,1.4-0.3c0.8,0,1.4,0.2,1.9,0.6c0.5,0.4,0.7,1,0.7,1.7v3.1c0,0.6,0.1,1.1,0.3,1.5v0.1H121.4z M119.7,503.8
		c0.3,0,0.6-0.1,0.9-0.2s0.5-0.3,0.6-0.6v-1.3h-0.8c-0.6,0-1,0.1-1.3,0.3c-0.3,0.2-0.4,0.5-0.4,0.8c0,0.3,0.1,0.5,0.3,0.7
		C119.1,503.7,119.3,503.8,119.7,503.8z"/>
	<path class="st0" d="M126.2,496.4v1.7h1.2v1.1h-1.2v3.8c0,0.3,0.1,0.5,0.2,0.6s0.3,0.2,0.6,0.2c0.2,0,0.4,0,0.5-0.1v1.2
		c-0.4,0.1-0.7,0.1-1,0.1c-1.2,0-1.8-0.7-1.8-2v-3.9h-1.1V498h1.1v-1.7H126.2z"/>
	<path class="st0" d="M61.2,518.1c0-0.4-0.1-0.7-0.3-0.9c-0.2-0.2-0.6-0.4-1.1-0.6s-0.9-0.4-1.2-0.5c-1-0.5-1.5-1.3-1.5-2.3
		c0-0.7,0.2-1.3,0.6-1.7s1-0.7,1.7-0.8v-1.4h1v1.4c0.7,0.1,1.3,0.4,1.7,0.9s0.6,1.2,0.6,2h-1.5c0-0.5-0.1-1-0.4-1.3
		c-0.2-0.3-0.6-0.5-1-0.5c-0.4,0-0.7,0.1-1,0.3s-0.3,0.5-0.3,0.9c0,0.4,0.1,0.7,0.3,0.9c0.2,0.2,0.6,0.4,1.2,0.6s1,0.4,1.3,0.6
		c0.3,0.2,0.6,0.4,0.8,0.6s0.4,0.5,0.5,0.8c0.1,0.3,0.2,0.6,0.2,1c0,0.7-0.2,1.3-0.7,1.7c-0.4,0.4-1,0.7-1.8,0.8v1.2h-1v-1.2
		c-0.8-0.1-1.5-0.4-1.9-0.9c-0.5-0.5-0.7-1.2-0.7-2h1.5c0,0.5,0.1,0.9,0.4,1.2c0.3,0.3,0.6,0.4,1.1,0.4c0.5,0,0.8-0.1,1.1-0.3
		C61.1,518.8,61.2,518.5,61.2,518.1z"/>
	<path class="st0" d="M68.5,516.6c-0.5,0.5-1.1,0.8-1.8,0.8c-0.8,0-1.5-0.3-1.9-0.9s-0.7-1.3-0.7-2.2c0-0.6,0.1-1.2,0.4-1.7
		c0.2-0.5,0.6-0.9,1-1.2c0.5-0.3,1-0.4,1.6-0.4c0.9,0,1.7,0.3,2.2,1s0.8,1.6,0.8,2.8v0.4c0,1.7-0.4,2.9-1.1,3.8s-1.9,1.3-3.4,1.3
		h-0.2v-1.3h0.2c0.9,0,1.6-0.2,2.1-0.7C68.1,518.2,68.4,517.5,68.5,516.6z M67,516.2c0.3,0,0.6-0.1,0.9-0.3s0.5-0.4,0.6-0.7v-0.6
		c0-0.7-0.1-1.2-0.4-1.6s-0.6-0.6-1.1-0.6s-0.8,0.2-1.1,0.5c-0.3,0.4-0.4,0.8-0.4,1.4c0,0.6,0.1,1,0.4,1.4S66.5,516.2,67,516.2z"/>
	<path class="st0" d="M72.6,518.9c0.3,0,0.5,0.1,0.7,0.2s0.2,0.4,0.2,0.6c0,0.2-0.1,0.4-0.2,0.6c-0.2,0.2-0.4,0.2-0.7,0.2
		c-0.3,0-0.5-0.1-0.7-0.2s-0.2-0.4-0.2-0.6c0-0.2,0.1-0.5,0.2-0.6S72.3,518.9,72.6,518.9z"/>
	<path class="st0" d="M79.5,516.6c-0.5,0.5-1.1,0.8-1.8,0.8c-0.8,0-1.5-0.3-1.9-0.9s-0.7-1.3-0.7-2.2c0-0.6,0.1-1.2,0.4-1.7
		c0.2-0.5,0.6-0.9,1-1.2c0.5-0.3,1-0.4,1.6-0.4c0.9,0,1.7,0.3,2.2,1s0.8,1.6,0.8,2.8v0.4c0,1.7-0.4,2.9-1.1,3.8s-1.9,1.3-3.4,1.3
		h-0.2v-1.3h0.2c0.9,0,1.6-0.2,2.1-0.7C79.2,518.2,79.4,517.5,79.5,516.6z M78,516.2c0.3,0,0.6-0.1,0.9-0.3s0.5-0.4,0.6-0.7v-0.6
		c0-0.7-0.1-1.2-0.4-1.6s-0.6-0.6-1.1-0.6s-0.8,0.2-1.1,0.5c-0.3,0.4-0.4,0.8-0.4,1.4c0,0.6,0.1,1,0.4,1.4S77.6,516.2,78,516.2z"/>
	<path class="st0" d="M86.9,516.6c-0.5,0.5-1.1,0.8-1.8,0.8c-0.8,0-1.5-0.3-1.9-0.9s-0.7-1.3-0.7-2.2c0-0.6,0.1-1.2,0.4-1.7
		c0.2-0.5,0.6-0.9,1-1.2c0.5-0.3,1-0.4,1.6-0.4c0.9,0,1.7,0.3,2.2,1s0.8,1.6,0.8,2.8v0.4c0,1.7-0.4,2.9-1.1,3.8
		c-0.8,0.9-1.9,1.3-3.4,1.3h-0.2v-1.3H84c0.9,0,1.6-0.2,2.1-0.7C86.6,518.2,86.8,517.5,86.9,516.6z M85.4,516.2
		c0.3,0,0.6-0.1,0.9-0.3c0.3-0.2,0.5-0.4,0.6-0.7v-0.6c0-0.7-0.1-1.2-0.4-1.6s-0.6-0.6-1.1-0.6s-0.8,0.2-1.1,0.5s-0.4,0.8-0.4,1.4
		c0,0.6,0.1,1,0.4,1.4S85,516.2,85.4,516.2z"/>
	<path class="st0" d="M95.2,512v1.7h1.2v1.1h-1.2v3.8c0,0.3,0.1,0.5,0.2,0.6s0.3,0.2,0.6,0.2c0.2,0,0.4,0,0.5-0.1v1.2
		c-0.4,0.1-0.7,0.1-1,0.1c-1.2,0-1.8-0.7-1.8-2v-3.9h-1.1v-1.1h1.1V512H95.2z"/>
	<path class="st0" d="M97.1,517c0-0.7,0.1-1.3,0.4-1.8c0.3-0.5,0.6-1,1.1-1.2s1-0.4,1.7-0.4c0.9,0,1.7,0.3,2.3,0.9
		c0.6,0.6,0.9,1.4,0.9,2.4l0,0.4c0,0.7-0.1,1.3-0.4,1.8c-0.3,0.5-0.6,0.9-1.1,1.2c-0.5,0.3-1,0.4-1.7,0.4c-1,0-1.7-0.3-2.3-1
		S97.1,518.1,97.1,517L97.1,517z M98.6,517.1c0,0.7,0.1,1.3,0.4,1.7c0.3,0.4,0.7,0.6,1.2,0.6s0.9-0.2,1.2-0.6s0.4-1,0.4-1.8
		c0-0.7-0.1-1.2-0.4-1.7c-0.3-0.4-0.7-0.6-1.2-0.6c-0.5,0-0.9,0.2-1.2,0.6C98.8,515.7,98.6,516.3,98.6,517.1z"/>
	<path class="st0" d="M41.8,533.7c0-0.4-0.1-0.7-0.3-0.9c-0.2-0.2-0.6-0.4-1.1-0.6s-0.9-0.4-1.2-0.5c-1-0.5-1.5-1.3-1.5-2.3
		c0-0.7,0.2-1.3,0.6-1.7s1-0.7,1.7-0.8v-1.4h1v1.4c0.7,0.1,1.3,0.4,1.7,0.9s0.6,1.2,0.6,2h-1.5c0-0.5-0.1-1-0.4-1.3
		c-0.2-0.3-0.6-0.5-1-0.5c-0.4,0-0.7,0.1-1,0.3s-0.3,0.5-0.3,0.9c0,0.4,0.1,0.7,0.3,0.9c0.2,0.2,0.6,0.4,1.2,0.6s1,0.4,1.3,0.6
		c0.3,0.2,0.6,0.4,0.8,0.6s0.4,0.5,0.5,0.8c0.1,0.3,0.2,0.6,0.2,1c0,0.7-0.2,1.3-0.7,1.7c-0.4,0.4-1,0.7-1.8,0.8v1.2h-1v-1.2
		c-0.8-0.1-1.5-0.4-1.9-0.9c-0.5-0.5-0.7-1.2-0.7-2h1.5c0,0.5,0.1,0.9,0.4,1.2c0.3,0.3,0.6,0.4,1.1,0.4c0.5,0,0.8-0.1,1.1-0.3
		C41.7,534.4,41.8,534.1,41.8,533.7z"/>
	<path class="st0" d="M50.9,536.1h-6.2V535l3.1-3.4c0.4-0.5,0.8-0.9,0.9-1.2c0.2-0.3,0.3-0.7,0.3-1c0-0.4-0.1-0.8-0.4-1.1
		c-0.2-0.3-0.6-0.4-1-0.4c-0.5,0-0.9,0.2-1.2,0.5s-0.4,0.7-0.4,1.2h-1.5c0-0.6,0.1-1.1,0.4-1.5c0.3-0.5,0.6-0.8,1.1-1
		c0.5-0.2,1-0.4,1.6-0.4c0.9,0,1.6,0.2,2.1,0.7c0.5,0.5,0.8,1.1,0.8,1.9c0,0.5-0.1,0.9-0.4,1.5c-0.3,0.5-0.7,1.1-1.3,1.7l-2.3,2.4
		h4.3V536.1z"/>
	<path class="st0" d="M57.3,532.8h1.1v1.2h-1.1v2.1h-1.5V534h-4l0-0.9l4-6.2h1.6V532.8z M53.3,532.8h2.4v-3.9l-0.1,0.2L53.3,532.8z"
		/>
	<path class="st0" d="M60.5,534.5c0.3,0,0.5,0.1,0.7,0.2s0.2,0.4,0.2,0.6c0,0.2-0.1,0.4-0.2,0.6c-0.2,0.2-0.4,0.2-0.7,0.2
		c-0.3,0-0.5-0.1-0.7-0.2s-0.2-0.4-0.2-0.6c0-0.2,0.1-0.5,0.2-0.6S60.2,534.5,60.5,534.5z"/>
	<path class="st0" d="M67.4,532.2c-0.5,0.5-1.1,0.8-1.8,0.8c-0.8,0-1.5-0.3-1.9-0.9s-0.7-1.3-0.7-2.2c0-0.6,0.1-1.2,0.4-1.7
		c0.2-0.5,0.6-0.9,1-1.2c0.5-0.3,1-0.4,1.6-0.4c0.9,0,1.7,0.3,2.2,1s0.8,1.6,0.8,2.8v0.4c0,1.7-0.4,2.9-1.1,3.8s-1.9,1.3-3.4,1.3
		h-0.2v-1.3h0.2c0.9,0,1.6-0.2,2.1-0.7C67.1,533.8,67.4,533.1,67.4,532.2z M66,531.8c0.3,0,0.6-0.1,0.9-0.3s0.5-0.4,0.6-0.7v-0.6
		c0-0.7-0.1-1.2-0.4-1.6S66.4,528,66,528s-0.8,0.2-1.1,0.5c-0.3,0.4-0.4,0.8-0.4,1.4c0,0.6,0.1,1,0.4,1.4S65.5,531.8,66,531.8z"/>
	<path class="st0" d="M74.8,532.2c-0.5,0.5-1.1,0.8-1.8,0.8c-0.8,0-1.5-0.3-1.9-0.9s-0.7-1.3-0.7-2.2c0-0.6,0.1-1.2,0.4-1.7
		c0.2-0.5,0.6-0.9,1-1.2c0.5-0.3,1-0.4,1.6-0.4c0.9,0,1.7,0.3,2.2,1s0.8,1.6,0.8,2.8v0.4c0,1.7-0.4,2.9-1.1,3.8s-1.9,1.3-3.4,1.3
		h-0.2v-1.3h0.2c0.9,0,1.6-0.2,2.1-0.7C74.5,533.8,74.8,533.1,74.8,532.2z M73.4,531.8c0.3,0,0.6-0.1,0.9-0.3s0.5-0.4,0.6-0.7v-0.6
		c0-0.7-0.1-1.2-0.4-1.6s-0.6-0.6-1.1-0.6s-0.8,0.2-1.1,0.5c-0.3,0.4-0.4,0.8-0.4,1.4c0,0.6,0.1,1,0.4,1.4S72.9,531.8,73.4,531.8z"
		/>
	<path class="st0" d="M78.4,536.9h-1.2l3.6-10H82L78.4,536.9z"/>
	<path class="st0" d="M84.5,529.2l0,0.7c0.5-0.6,1.1-0.8,2-0.8c0.9,0,1.5,0.4,1.9,1.1c0.5-0.7,1.2-1.1,2.1-1.1
		c0.8,0,1.3,0.2,1.7,0.6c0.4,0.4,0.6,1,0.6,1.9v4.5h-1.5v-4.5c0-0.4-0.1-0.8-0.3-1s-0.5-0.3-0.9-0.3c-0.4,0-0.6,0.1-0.9,0.3
		c-0.2,0.2-0.4,0.4-0.5,0.7l0,4.7h-1.5v-4.5c0-0.8-0.4-1.2-1.2-1.2c-0.6,0-1.1,0.3-1.3,0.8v5h-1.5v-6.9H84.5z"/>
	<path class="st0" d="M94.1,532.6c0-0.7,0.1-1.3,0.4-1.8c0.3-0.5,0.6-1,1.1-1.2s1-0.4,1.7-0.4c0.9,0,1.7,0.3,2.3,0.9
		c0.6,0.6,0.9,1.4,0.9,2.4l0,0.4c0,0.7-0.1,1.3-0.4,1.8c-0.3,0.5-0.6,0.9-1.1,1.2c-0.5,0.3-1,0.4-1.7,0.4c-1,0-1.7-0.3-2.3-1
		C94.4,534.6,94.1,533.7,94.1,532.6L94.1,532.6z M95.7,532.7c0,0.7,0.1,1.3,0.4,1.7c0.3,0.4,0.7,0.6,1.2,0.6s0.9-0.2,1.2-0.6
		c0.3-0.4,0.4-1,0.4-1.8c0-0.7-0.1-1.2-0.4-1.7c-0.3-0.4-0.7-0.6-1.2-0.6c-0.5,0-0.9,0.2-1.2,0.6C95.8,531.3,95.7,531.9,95.7,532.7z
		"/>
	<path class="st0" d="M103.2,529.2l0,0.8c0.5-0.6,1.2-0.9,2-0.9c1.4,0,2.2,0.8,2.2,2.5v4.5h-1.5v-4.4c0-0.4-0.1-0.8-0.3-1
		c-0.2-0.2-0.5-0.3-0.9-0.3c-0.6,0-1.1,0.3-1.4,0.8v4.9h-1.5v-6.9H103.2z"/>
	<path class="st0" d="M111,527.6v1.7h1.2v1.1H111v3.8c0,0.3,0.1,0.5,0.2,0.6c0.1,0.1,0.3,0.2,0.6,0.2c0.2,0,0.4,0,0.5-0.1v1.2
		c-0.4,0.1-0.7,0.1-1,0.1c-1.2,0-1.8-0.7-1.8-2v-3.9h-1.1v-1.1h1.1v-1.7H111z"/>
	<path class="st0" d="M114.9,530c0.5-0.6,1.1-0.9,1.9-0.9c1.5,0,2.2,0.8,2.2,2.5v4.5h-1.5v-4.4c0-0.5-0.1-0.8-0.3-1
		c-0.2-0.2-0.5-0.3-0.9-0.3c-0.6,0-1.1,0.3-1.4,0.8v4.9h-1.5v-9.8h1.5V530z"/>
	<path class="st0" d="M121.5,534.5c0.3,0,0.5,0.1,0.7,0.2c0.2,0.2,0.2,0.4,0.2,0.6c0,0.2-0.1,0.4-0.2,0.6c-0.2,0.2-0.4,0.2-0.7,0.2
		c-0.3,0-0.5-0.1-0.7-0.2c-0.2-0.2-0.2-0.4-0.2-0.6c0-0.2,0.1-0.5,0.2-0.6C121,534.5,121.3,534.5,121.5,534.5z"/>
</g>
</svg>
