<svg id="Layer_1" xmlns="http://www.w3.org/2000/svg" viewBox="0 0 300 600"><style>.st0{fill:#fff}</style><path class="st0" d="M87.48 282.21c0-.82-.2-1.47-.61-1.94s-1.12-.91-2.14-1.33c-1.02-.42-1.96-.84-2.83-1.27-.87-.43-1.61-.92-2.23-1.48s-1.1-1.21-1.44-1.95c-.33-.74-.5-1.63-.5-2.69 0-1.76.59-3.21 1.78-4.35s2.77-1.8 4.75-1.99v-3.3h2.48v3.36c1.91.28 3.4 1.07 4.49 2.35 1.09 1.29 1.63 2.92 1.63 4.9h-5.28c0-1.08-.21-1.92-.62-2.5-.42-.58-1.01-.88-1.78-.88-.69 0-1.22.22-1.6.65-.38.43-.57 1.03-.57 1.79 0 .77.22 1.38.66 1.84s1.14.89 2.11 1.3c.97.41 1.88.84 2.74 1.28.86.44 1.6.95 2.23 1.51s1.11 1.22 1.47 1.97c.35.75.53 1.65.53 2.7 0 1.78-.57 3.23-1.7 4.36-1.13 1.12-2.67 1.78-4.62 1.97v3.14h-2.48v-3.16c-2.27-.24-4.01-1.02-5.23-2.34-1.21-1.32-1.82-3.05-1.82-5.21h5.27c0 1.19.26 2.09.79 2.71.53.62 1.27.93 2.24.93.71 0 1.27-.21 1.67-.63s.61-1 .61-1.74zM109.44 279.35h2.31v4.06h-2.31v4.83h-5.27v-4.83h-8.8l-.31-3.22 9.11-14.66v-.05h5.27v13.87zm-9.36 0h4.09v-7l-.33.53-3.76 6.47zM118.88 274.67h2.48c1.97 0 2.95-.96 2.95-2.89 0-.75-.23-1.36-.7-1.84-.47-.47-1.13-.71-1.98-.71-.7 0-1.3.2-1.82.61s-.77.91-.77 1.52h-5.27c0-1.2.33-2.27 1-3.2.67-.94 1.59-1.67 2.77-2.2 1.18-.53 2.48-.79 3.9-.79 2.53 0 4.52.58 5.97 1.73 1.45 1.16 2.17 2.75 2.17 4.77 0 .98-.3 1.9-.9 2.77-.6.87-1.47 1.58-2.62 2.12 1.21.44 2.16 1.1 2.84 1.99s1.03 1.99 1.03 3.3c0 2.03-.78 3.66-2.34 4.88s-3.62 1.83-6.16 1.83c-1.49 0-2.87-.28-4.15-.85-1.28-.57-2.24-1.35-2.9-2.36-.66-1-.98-2.15-.98-3.43h5.3c0 .7.28 1.3.84 1.81.56.51 1.25.77 2.08.77.93 0 1.67-.26 2.22-.77.55-.52.83-1.17.83-1.98 0-1.15-.29-1.96-.86-2.44-.57-.48-1.37-.72-2.38-.72h-2.56v-3.92zM156.34 279.93c0 2.77-.57 4.9-1.72 6.39-1.15 1.49-2.76 2.23-4.84 2.23-1.72 0-3.1-.68-4.16-2.05l-.22 1.73h-4.72v-24h5.27v8.45c.98-1.11 2.24-1.67 3.8-1.67 2.1 0 3.73.76 4.88 2.27s1.72 3.64 1.72 6.38v.27zm-5.28-.33c0-1.62-.22-2.78-.65-3.47-.43-.69-1.1-1.04-1.99-1.04-1.19 0-2.01.45-2.47 1.36v6.71c.45.89 1.28 1.34 2.5 1.34 1.24 0 2.03-.6 2.36-1.81.17-.6.25-1.63.25-3.09zM158.62 266.98c0-.75.27-1.36.81-1.84s1.24-.72 2.11-.72c.86 0 1.57.24 2.11.72.54.48.81 1.09.81 1.84s-.27 1.37-.81 1.84c-.54.48-1.25.72-2.11.72-.87 0-1.57-.24-2.11-.72a2.38 2.38 0 0 1-.81-1.84zm5.6 21.26h-5.28v-16.91h5.28v16.91zM173.02 288.24h-5.28v-24h5.28v24zM181.81 288.24h-5.28v-24h5.28v24zM185.02 266.98c0-.75.27-1.36.81-1.84s1.24-.72 2.11-.72c.86 0 1.57.24 2.11.72.54.48.81 1.09.81 1.84s-.27 1.37-.81 1.84c-.54.48-1.25.72-2.11.72-.87 0-1.57-.24-2.11-.72-.54-.48-.81-1.09-.81-1.84zm5.59 21.26h-5.28v-16.91h5.28v16.91zM193.19 279.64c0-1.69.33-3.19.98-4.51.66-1.32 1.6-2.33 2.83-3.04s2.67-1.06 4.33-1.06c2.53 0 4.53.78 5.98 2.35 1.46 1.57 2.19 3.7 2.19 6.4v.19c0 2.64-.73 4.73-2.2 6.27-1.46 1.55-3.45 2.32-5.95 2.32-2.41 0-4.34-.72-5.8-2.16-1.46-1.44-2.25-3.4-2.36-5.87v-.89zm5.26.32c0 1.56.24 2.71.73 3.44s1.21 1.09 2.17 1.09c1.88 0 2.83-1.44 2.88-4.33v-.53c0-3.03-.97-4.55-2.91-4.55-1.76 0-2.71 1.31-2.86 3.92l-.01.96zM216.66 271.34l.17 1.98c1.17-1.53 2.78-2.3 4.83-2.3 1.76 0 3.08.53 3.95 1.58.87 1.05 1.32 2.64 1.35 4.75v10.89h-5.28v-10.67c0-.85-.17-1.48-.52-1.88-.34-.4-.97-.6-1.88-.6-1.03 0-1.8.41-2.3 1.22v11.94h-5.27v-16.91h4.95zM65.09 316.17c0-1.58.31-2.99.92-4.23s1.5-2.19 2.65-2.85 2.5-1 4.06-1c2.37 0 4.24.74 5.61 2.21s2.05 3.47 2.05 6v.18c0 2.47-.69 4.43-2.06 5.88-1.37 1.45-3.23 2.18-5.57 2.18-2.26 0-4.07-.68-5.43-2.03-1.37-1.35-2.1-3.19-2.21-5.5l-.02-.84zm4.94.31c0 1.46.23 2.54.69 3.22s1.14 1.03 2.04 1.03c1.76 0 2.66-1.35 2.7-4.06v-.5c0-2.84-.91-4.26-2.72-4.26-1.65 0-2.54 1.23-2.68 3.68l-.03.89zM83.65 324.25v-12.42h-2.3v-3.43h2.3v-1.26c0-1.81.53-3.21 1.6-4.2s2.56-1.49 4.48-1.49c.7 0 1.47.1 2.31.31l.01 3.63c-.3-.09-.71-.13-1.22-.13-1.49 0-2.24.64-2.24 1.93v1.22h3.09v3.43H88.6v12.42h-4.95zM106.65 304.46v3.94h2.61v3.43h-2.61v7.25c0 .6.11 1.01.32 1.25s.64.35 1.27.35c.49 0 .9-.03 1.23-.09v3.53c-.89.28-1.82.42-2.78.42-1.7 0-2.95-.4-3.76-1.2s-1.22-2.02-1.22-3.65v-7.87h-2.02v-3.43h2.02v-3.94h4.94zM110.13 316.17c0-1.58.31-2.99.92-4.23s1.5-2.19 2.65-2.85 2.5-1 4.06-1c2.37 0 4.24.74 5.61 2.21s2.05 3.47 2.05 6v.18c0 2.47-.69 4.43-2.06 5.88-1.37 1.45-3.23 2.18-5.57 2.18-2.26 0-4.07-.68-5.43-2.03-1.37-1.35-2.1-3.19-2.21-5.5l-.02-.84zm4.94.31c0 1.46.23 2.54.69 3.22s1.14 1.03 2.04 1.03c1.76 0 2.66-1.35 2.7-4.06v-.5c0-2.84-.91-4.26-2.72-4.26-1.65 0-2.54 1.23-2.68 3.68l-.03.89zM133.35 304.46v3.94h2.61v3.43h-2.61v7.25c0 .6.11 1.01.32 1.25s.64.35 1.27.35c.49 0 .9-.03 1.23-.09v3.53c-.89.28-1.82.42-2.78.42-1.7 0-2.95-.4-3.76-1.2s-1.22-2.02-1.22-3.65v-7.87h-2.02v-3.43h2.02v-3.94h4.94zM146.83 324.25c-.18-.32-.33-.8-.47-1.42-.91 1.14-2.18 1.71-3.81 1.71-1.49 0-2.76-.45-3.81-1.36-1.04-.9-1.57-2.04-1.57-3.41 0-1.72.63-3.02 1.9-3.9s3.12-1.32 5.54-1.32h1.52v-.84c0-1.46-.63-2.19-1.89-2.19-1.17 0-1.76.58-1.76 1.74h-4.94c0-1.53.65-2.78 1.96-3.73 1.3-.96 2.97-1.43 4.99-1.43s3.62.49 4.79 1.48 1.77 2.34 1.8 4.06v7.02c.02 1.46.24 2.57.67 3.34v.25h-4.92zm-3.09-3.23c.62 0 1.12-.13 1.53-.4s.7-.56.87-.89v-2.53h-1.44c-1.72 0-2.58.77-2.58 2.31 0 .45.15.81.45 1.09.31.28.7.42 1.17.42zM159.03 324.25h-4.95v-22.5h4.95v22.5zM170.63 324.25v-12.42h-2.3v-3.43h2.3v-1.26c0-1.81.53-3.21 1.6-4.2s2.56-1.49 4.48-1.49c.7 0 1.47.1 2.31.31l.01 3.63c-.3-.09-.71-.13-1.22-.13-1.49 0-2.24.64-2.24 1.93v1.22h3.09v3.43h-3.09v12.42h-4.94zM190 312.86l-1.63-.12c-1.55 0-2.55.49-2.99 1.46v10.03h-4.94V308.4h4.63l.16 2.04c.83-1.55 1.99-2.33 3.47-2.33.53 0 .99.06 1.38.18l-.08 4.57zM200.27 324.25c-.18-.32-.33-.8-.47-1.42-.91 1.14-2.18 1.71-3.81 1.71-1.49 0-2.76-.45-3.81-1.36-1.04-.9-1.57-2.04-1.57-3.41 0-1.72.63-3.02 1.9-3.9s3.12-1.32 5.54-1.32h1.52v-.84c0-1.46-.63-2.19-1.89-2.19-1.17 0-1.76.58-1.76 1.74h-4.94c0-1.53.65-2.78 1.96-3.73 1.3-.96 2.97-1.43 4.99-1.43s3.62.49 4.79 1.48 1.77 2.34 1.8 4.06v7.02c.02 1.46.24 2.57.67 3.34v.25h-4.92zm-3.09-3.23c.62 0 1.12-.13 1.53-.4s.7-.56.87-.89v-2.53h-1.44c-1.72 0-2.58.77-2.58 2.31 0 .45.15.81.45 1.09.31.28.7.42 1.17.42zM216.7 322.53c-1.04 1.34-2.46 2.01-4.23 2.01-1.74 0-3.05-.51-3.95-1.52-.89-1.01-1.34-2.46-1.34-4.36V308.4h4.94v10.3c0 1.36.66 2.04 1.98 2.04 1.13 0 1.94-.41 2.42-1.22V308.4h4.97v15.85h-4.63l-.16-1.72zM223.56 316.2c0-2.51.54-4.49 1.63-5.93s2.6-2.17 4.54-2.17c1.42 0 2.61.56 3.57 1.67v-8.03h4.95v22.5h-4.44l-.25-1.7c-1.02 1.33-2.3 1.99-3.87 1.99-1.88 0-3.38-.72-4.48-2.17s-1.65-3.49-1.65-6.16zm4.93.31c0 2.81.82 4.22 2.46 4.22 1.09 0 1.88-.46 2.34-1.38v-6.04c-.45-.94-1.22-1.41-2.31-1.41-1.52 0-2.35 1.23-2.48 3.69l-.01.92zM55.5 360.25h-4.95v-22.5h4.95v22.5zM57.91 352.17c0-1.58.31-2.99.92-4.23s1.5-2.19 2.65-2.85 2.5-1 4.06-1c2.37 0 4.24.74 5.61 2.21s2.05 3.47 2.05 6v.18c0 2.47-.69 4.43-2.06 5.88-1.37 1.45-3.23 2.18-5.57 2.18-2.26 0-4.07-.68-5.43-2.03-1.37-1.35-2.1-3.19-2.21-5.5l-.02-.84zm4.94.31c0 1.46.23 2.54.69 3.22s1.14 1.03 2.04 1.03c1.76 0 2.66-1.35 2.7-4.06v-.5c0-2.84-.91-4.26-2.72-4.26-1.65 0-2.54 1.23-2.68 3.68l-.03.89zM83.68 355.79c0-.42-.22-.76-.66-1.01s-1.27-.52-2.5-.79-2.25-.63-3.05-1.08c-.8-.44-1.41-.98-1.83-1.62s-.63-1.36-.63-2.18c0-1.46.6-2.65 1.8-3.6s2.77-1.41 4.72-1.41c2.09 0 3.77.47 5.04 1.42s1.9 2.19 1.9 3.74h-4.95c0-1.27-.67-1.9-2.01-1.9-.52 0-.95.14-1.3.43-.35.29-.53.65-.53 1.08 0 .44.21.8.64 1.07s1.12.5 2.06.67c.94.18 1.77.39 2.48.63 2.38.82 3.57 2.29 3.57 4.41 0 1.45-.64 2.62-1.93 3.53-1.29.91-2.95 1.36-4.99 1.36-1.36 0-2.57-.24-3.63-.73s-1.89-1.15-2.49-1.99-.89-1.72-.89-2.65h4.61c.02.73.26 1.27.73 1.6.47.34 1.07.5 1.8.5.67 0 1.18-.14 1.52-.41.35-.27.52-.63.52-1.07zM99.05 355.79c0-.42-.22-.76-.66-1.01s-1.27-.52-2.5-.79-2.25-.63-3.05-1.08c-.8-.44-1.41-.98-1.83-1.62s-.63-1.36-.63-2.18c0-1.46.6-2.65 1.8-3.6s2.77-1.41 4.72-1.41c2.09 0 3.77.47 5.04 1.42s1.9 2.19 1.9 3.74h-4.95c0-1.27-.67-1.9-2.01-1.9-.52 0-.95.14-1.3.43-.35.29-.53.65-.53 1.08 0 .44.21.8.64 1.07s1.12.5 2.06.67c.94.18 1.77.39 2.48.63 2.38.82 3.57 2.29 3.57 4.41 0 1.45-.64 2.62-1.93 3.53-1.29.91-2.95 1.36-4.99 1.36-1.36 0-2.57-.24-3.63-.73s-1.89-1.15-2.49-1.99-.89-1.72-.89-2.65h4.61c.02.73.26 1.27.73 1.6.47.34 1.07.5 1.8.5.67 0 1.18-.14 1.52-.41.35-.27.52-.63.52-1.07zM113.78 360.54c-2.43 0-4.4-.72-5.9-2.18-1.5-1.45-2.26-3.34-2.26-5.66v-.41c0-1.62.3-3.05.9-4.29.6-1.24 1.48-2.2 2.63-2.88 1.15-.68 2.52-1.02 4.1-1.02 2.23 0 3.98.69 5.27 2.07 1.29 1.38 1.93 3.31 1.93 5.78v1.92h-9.81c.18.89.56 1.59 1.16 2.09s1.37.76 2.31.76c1.56 0 2.78-.55 3.66-1.64l2.26 2.67c-.62.85-1.49 1.53-2.61 2.03-1.13.51-2.34.76-3.64.76zm-.55-12.63c-1.45 0-2.3.96-2.58 2.87h4.98v-.38c.02-.79-.18-1.4-.6-1.84s-1.02-.65-1.8-.65zM130.75 355.79c0-.42-.22-.76-.66-1.01s-1.27-.52-2.5-.79-2.25-.63-3.05-1.08c-.8-.44-1.41-.98-1.83-1.62s-.63-1.36-.63-2.18c0-1.46.6-2.65 1.8-3.6s2.77-1.41 4.72-1.41c2.09 0 3.77.47 5.04 1.42s1.9 2.19 1.9 3.74h-4.95c0-1.27-.67-1.9-2.01-1.9-.52 0-.95.14-1.3.43-.35.29-.53.65-.53 1.08 0 .44.21.8.64 1.07s1.12.5 2.06.67c.94.18 1.77.39 2.48.63 2.38.82 3.57 2.29 3.57 4.41 0 1.45-.64 2.62-1.93 3.53-1.29.91-2.95 1.36-4.99 1.36-1.36 0-2.57-.24-3.63-.73s-1.89-1.15-2.49-1.99-.89-1.72-.89-2.65h4.61c.02.73.26 1.27.73 1.6.47.34 1.07.5 1.8.5.67 0 1.18-.14 1.52-.41.35-.27.52-.63.52-1.07zM145.25 340.31c0-.7.25-1.28.76-1.73s1.17-.67 1.98-.67 1.47.22 1.98.67.76 1.03.76 1.73-.25 1.28-.76 1.73-1.17.67-1.98.67-1.47-.22-1.98-.67-.76-1.03-.76-1.73zm5.24 19.94h-4.95V344.4h4.95v15.85zM158.06 344.4l.16 1.86c1.09-1.44 2.6-2.15 4.53-2.15 1.65 0 2.88.49 3.7 1.48.81.99 1.24 2.47 1.27 4.45v10.21h-4.95v-10c0-.8-.16-1.39-.48-1.76s-.91-.56-1.76-.56c-.97 0-1.68.38-2.15 1.14v11.19h-4.94V344.4h4.62zM192.72 360.25h-14.88v-3.22l6.86-7.21c1.69-1.92 2.53-3.45 2.53-4.58 0-.92-.2-1.62-.6-2.09s-.98-.72-1.74-.72c-.75 0-1.36.32-1.83.96s-.7 1.44-.7 2.39h-4.95c0-1.31.33-2.52.98-3.62s1.56-1.98 2.72-2.6 2.46-.94 3.9-.94c2.3 0 4.08.53 5.32 1.6 1.25 1.06 1.87 2.59 1.87 4.58 0 .84-.16 1.66-.47 2.45s-.8 1.63-1.46 2.5c-.66.88-1.72 2.04-3.19 3.51l-2.75 3.18h8.39v3.81zM210.02 351.53c0 2.88-.65 5.1-1.94 6.67s-3.12 2.34-5.47 2.34c-2.37 0-4.21-.79-5.51-2.36s-1.95-3.79-1.95-6.65v-3.9c0-2.88.65-5.1 1.94-6.67s3.12-2.34 5.49-2.34 4.19.79 5.49 2.36 1.95 3.79 1.95 6.67v3.88zm-4.93-4.53c0-1.53-.2-2.68-.6-3.44-.4-.76-1.04-1.13-1.9-1.13-.85 0-1.47.35-1.85 1.05s-.59 1.77-.62 3.19v5.45c0 1.59.2 2.76.6 3.49s1.04 1.11 1.9 1.11c.84 0 1.46-.36 1.86-1.08.4-.72.61-1.84.62-3.38V347zM227.47 360.25h-14.88v-3.22l6.86-7.21c1.69-1.92 2.53-3.45 2.53-4.58 0-.92-.2-1.62-.6-2.09s-.98-.72-1.74-.72c-.75 0-1.36.32-1.83.96s-.7 1.44-.7 2.39h-4.95c0-1.31.33-2.52.98-3.62s1.56-1.98 2.72-2.6 2.46-.94 3.9-.94c2.3 0 4.08.53 5.32 1.6 1.25 1.06 1.87 2.59 1.87 4.58 0 .84-.16 1.66-.47 2.45s-.8 1.63-1.46 2.5c-.66.88-1.72 2.04-3.19 3.51l-2.75 3.18h8.39v3.81zM244.77 351.53c0 2.88-.65 5.1-1.94 6.67s-3.12 2.34-5.47 2.34c-2.37 0-4.21-.79-5.51-2.36s-1.95-3.79-1.95-6.65v-3.9c0-2.88.65-5.1 1.94-6.67s3.12-2.34 5.49-2.34 4.19.79 5.49 2.36 1.95 3.79 1.95 6.67v3.88zm-4.94-4.53c0-1.53-.2-2.68-.6-3.44-.4-.76-1.04-1.13-1.9-1.13-.85 0-1.47.35-1.85 1.05s-.59 1.77-.62 3.19v5.45c0 1.59.2 2.76.6 3.49s1.04 1.11 1.9 1.11c.84 0 1.46-.36 1.86-1.08.4-.72.61-1.84.62-3.38V347zM250.47 355.46c.78 0 1.43.23 1.95.7s.78 1.06.78 1.78-.26 1.32-.78 1.78c-.52.46-1.17.7-1.95.7-.79 0-1.44-.23-1.96-.7-.51-.47-.77-1.06-.77-1.77s.26-1.3.77-1.77c.51-.49 1.17-.72 1.96-.72z"/></svg>