<svg id="Layer_1" xmlns="http://www.w3.org/2000/svg" viewBox="0 0 300 600"><style>.st0{fill:#fff}</style><path class="st0" d="M64.68 404.09c0-.45-.16-.83-.47-1.14-.31-.31-.85-.59-1.59-.83-1.04-.32-1.8-.73-2.27-1.24-.48-.51-.71-1.16-.71-1.94 0-.8.23-1.46.7-1.97s1.11-.82 1.92-.92v-1.6h1.09v1.61c.82.11 1.46.46 1.92 1.03.46.58.68 1.36.68 2.37H64.6c0-.69-.16-1.24-.49-1.65-.33-.41-.77-.61-1.33-.61-.58 0-1.03.15-1.33.45s-.46.72-.46 1.26c0 .5.16.9.49 1.19.33.3.86.56 1.6.81.74.24 1.33.51 1.74.8.42.29.72.63.92 1.01.2.39.3.84.3 1.35 0 .83-.25 1.49-.74 1.99-.5.5-1.19.8-2.08.89v1.4h-1.08v-1.4c-.91-.08-1.62-.41-2.13-.97-.51-.56-.77-1.33-.77-2.3h1.35c0 .68.18 1.2.54 1.57.36.37.86.55 1.52.55.64 0 1.14-.15 1.51-.46.34-.3.52-.72.52-1.25zM72.17 406.83h-1.36v-9.03l-2.73 1v-1.23l3.88-1.46h.21v10.72zM81.83 396.99v1.92h1.48v1.05h-1.48v4.92c0 .32.07.56.2.72.13.16.36.24.67.24.16 0 .37-.03.64-.09v1.09c-.36.1-.7.15-1.04.15-.61 0-1.06-.18-1.37-.55-.31-.37-.46-.89-.46-1.56v-4.91h-1.44v-1.05h1.44V397h1.36zM88.73 400.13c-.21-.03-.43-.05-.67-.05-.89 0-1.49.38-1.81 1.13v5.62H84.9v-7.92h1.32l.02.92c.44-.71 1.07-1.06 1.89-1.06.26 0 .46.03.6.1v1.26zM89.98 396.81c0-.22.07-.4.2-.56.13-.15.33-.23.6-.23s.46.08.6.23c.14.15.21.34.21.56 0 .22-.07.4-.21.55s-.34.22-.6.22-.46-.07-.6-.22a.763.763 0 0 1-.2-.55zm1.46 10.02h-1.36v-7.92h1.36v7.92zM98.5 406.83c-.08-.16-.14-.43-.19-.83-.63.65-1.38.98-2.26.98-.78 0-1.42-.22-1.92-.66-.5-.44-.75-1-.75-1.68 0-.83.31-1.47.94-1.92.63-.46 1.51-.68 2.65-.68h1.32v-.62c0-.47-.14-.85-.42-1.13-.28-.28-.7-.42-1.25-.42-.48 0-.89.12-1.22.37s-.49.54-.49.89h-1.36c0-.4.14-.78.42-1.15.28-.37.66-.66 1.14-.88.48-.21 1.01-.32 1.59-.32.91 0 1.63.23 2.15.68.52.46.79 1.09.81 1.89V405c0 .73.09 1.31.28 1.74v.12H98.5zm-2.24-1.03c.42 0 .83-.11 1.21-.33s.66-.5.83-.86v-1.63h-1.06c-1.66 0-2.49.49-2.49 1.46 0 .42.14.76.42 1s.64.36 1.09.36zM103.24 406.83h-1.36v-11.25h1.36v11.25zM109.79 406.83v-6.88h-1.25v-1.05h1.25v-.81c0-.85.23-1.51.68-1.97s1.1-.7 1.93-.7c.31 0 .62.04.93.12l-.07 1.09c-.23-.04-.47-.07-.73-.07-.44 0-.78.13-1.02.39s-.36.63-.36 1.11v.84h1.69v1.05h-1.69v6.88h-1.36zM113.97 402.8c0-.78.15-1.47.46-2.1.31-.62.73-1.1 1.27-1.44.54-.34 1.17-.5 1.86-.5 1.08 0 1.95.37 2.62 1.12.67.75 1 1.74 1 2.98v.09c0 .77-.15 1.46-.44 2.08-.29.61-.72 1.09-1.27 1.43-.55.34-1.18.51-1.89.51-1.07 0-1.94-.37-2.61-1.12-.67-.75-1-1.74-1-2.97v-.08zm1.37.16c0 .88.2 1.58.61 2.12.41.53.95.8 1.64.8s1.24-.27 1.64-.81c.41-.54.61-1.29.61-2.27 0-.87-.21-1.57-.62-2.11-.41-.54-.96-.81-1.64-.81-.67 0-1.21.27-1.62.8-.42.53-.62 1.29-.62 2.28zM126.72 400.13c-.21-.03-.43-.05-.67-.05-.89 0-1.49.38-1.81 1.13v5.62h-1.36v-7.92h1.32l.02.92c.44-.71 1.07-1.06 1.89-1.06.26 0 .46.03.6.1v1.26zM133.51 396.99v1.92h1.48v1.05h-1.48v4.92c0 .32.07.56.2.72.13.16.36.24.67.24.16 0 .37-.03.64-.09v1.09c-.36.1-.7.15-1.04.15-.61 0-1.06-.18-1.37-.55-.31-.37-.46-.89-.46-1.56v-4.91h-1.44v-1.05h1.44V397h1.36zM137.93 399.87c.6-.74 1.38-1.11 2.34-1.11 1.67 0 2.52.94 2.53 2.83v5.24h-1.35v-5.24c0-.57-.14-.99-.39-1.27-.26-.27-.66-.41-1.2-.41-.44 0-.83.12-1.16.35s-.59.54-.78.92v5.65h-1.36v-11.25h1.36v4.29zM148.13 406.98c-1.08 0-1.95-.35-2.62-1.06-.67-.71-1.01-1.65-1.01-2.83v-.25c0-.79.15-1.49.45-2.11.3-.62.72-1.1 1.26-1.45.54-.35 1.12-.52 1.75-.52 1.03 0 1.83.34 2.4 1.02s.86 1.65.86 2.91v.56h-5.37c.02.78.25 1.41.68 1.89.44.48.99.72 1.67.72.48 0 .88-.1 1.22-.29.33-.2.62-.46.87-.78l.83.64c-.67 1.04-1.67 1.55-2.99 1.55zm-.17-7.1c-.55 0-1.01.2-1.38.6-.37.4-.6.96-.69 1.67h3.97v-.1c-.04-.69-.22-1.22-.56-1.6-.33-.38-.78-.57-1.34-.57zM157.16 406.83v-6.88h-1.25v-1.05h1.25v-.81c0-.85.23-1.51.68-1.97s1.1-.7 1.93-.7c.31 0 .62.04.93.12l-.07 1.09c-.23-.04-.47-.07-.73-.07-.44 0-.78.13-1.02.39s-.36.63-.36 1.11v.84h1.69v1.05h-1.69v6.88h-1.36zM161.71 396.81c0-.22.07-.4.2-.56.13-.15.33-.23.6-.23s.46.08.6.23c.14.15.21.34.21.56 0 .22-.07.4-.21.55s-.34.22-.6.22-.46-.07-.6-.22a.808.808 0 0 1-.2-.55zm1.47 10.02h-1.36v-7.92h1.36v7.92zM169.17 400.13c-.21-.03-.43-.05-.67-.05-.89 0-1.49.38-1.81 1.13v5.62h-1.36v-7.92h1.32l.02.92c.44-.71 1.07-1.06 1.89-1.06.26 0 .46.03.6.1v1.26zM175.03 404.73c0-.37-.14-.65-.41-.85-.28-.2-.76-.38-1.44-.52-.69-.15-1.23-.32-1.63-.53-.4-.21-.7-.45-.89-.73-.19-.28-.29-.62-.29-1.01 0-.65.27-1.2.82-1.65.55-.45 1.25-.67 2.11-.67.9 0 1.63.23 2.19.7.56.46.84 1.06.84 1.78h-1.36c0-.37-.16-.69-.47-.96-.32-.27-.71-.4-1.19-.4-.49 0-.88.11-1.16.32s-.42.5-.42.84c0 .33.13.57.39.74s.73.33 1.4.48c.68.15 1.22.33 1.64.54s.73.46.93.76c.2.29.3.66.3 1.08 0 .71-.28 1.28-.85 1.7-.57.43-1.3.64-2.2.64-.63 0-1.2-.11-1.68-.34s-.87-.54-1.15-.94c-.28-.4-.41-.84-.41-1.31h1.36c.02.46.21.81.55 1.08.34.27.79.4 1.34.4.51 0 .92-.1 1.23-.31.3-.21.45-.49.45-.84zM179.99 396.99v1.92h1.48v1.05h-1.48v4.92c0 .32.07.56.2.72.13.16.36.24.67.24.16 0 .37-.03.64-.09v1.09c-.36.1-.7.15-1.04.15-.61 0-1.06-.18-1.37-.55-.31-.37-.46-.89-.46-1.56v-4.91h-1.44v-1.05h1.44V397h1.36zM191.87 406.83h-2.48v-7.88l-2.43.71v-1.88l4.68-1.62h.23v10.67zM201.6 402.67h1.08v1.9h-1.08v2.26h-2.47v-2.26h-4.12l-.15-1.51 4.27-6.87v-.02h2.47v6.5zm-4.39 0h1.92v-3.28l-.15.25-1.77 3.03zM207.23 402.81c0-1.25.27-2.24.81-2.97.54-.72 1.3-1.08 2.27-1.08.71 0 1.3.28 1.79.83v-4.01h2.47v11.25h-2.22l-.12-.85c-.51.66-1.15 1-1.93 1-.94 0-1.69-.36-2.24-1.08-.55-.73-.83-1.75-.83-3.09zm2.47.16c0 1.41.41 2.11 1.23 2.11.55 0 .94-.23 1.17-.69v-3.02c-.23-.47-.61-.7-1.16-.7-.76 0-1.17.62-1.24 1.85v.45zM220.45 406.83c-.09-.16-.17-.4-.23-.71-.45.57-1.09.86-1.9.86-.75 0-1.38-.23-1.9-.68-.52-.45-.78-1.02-.78-1.7 0-.86.32-1.51.95-1.95s1.56-.66 2.77-.66h.76v-.42c0-.73-.32-1.1-.95-1.1-.59 0-.88.29-.88.87h-2.47c0-.77.33-1.39.98-1.87.65-.48 1.48-.72 2.49-.72 1.01 0 1.81.25 2.39.74.59.49.89 1.17.9 2.03v3.51c.01.73.12 1.29.34 1.67v.12h-2.47zm-1.55-1.61c.31 0 .56-.07.76-.2.2-.13.35-.28.44-.45v-1.27h-.72c-.86 0-1.29.39-1.29 1.16 0 .22.08.41.23.54.15.15.35.22.58.22zM227.11 403.38l1.32-4.47h2.64l-3.23 9.25-.14.34c-.46 1.03-1.27 1.54-2.43 1.54-.32 0-.66-.05-1.02-.15v-1.76h.32c.35 0 .61-.05.79-.15.18-.1.32-.28.41-.54l.2-.53-2.75-8h2.64l1.25 4.47zM235.86 404.61c0-.21-.11-.38-.33-.51-.22-.13-.64-.26-1.25-.39s-1.12-.32-1.52-.54c-.4-.22-.71-.49-.92-.81s-.31-.68-.31-1.09c0-.73.3-1.33.9-1.8.6-.47 1.39-.71 2.36-.71 1.04 0 1.88.24 2.52.71.63.47.95 1.1.95 1.87h-2.48c0-.63-.33-.95-1-.95-.26 0-.48.07-.65.22-.18.14-.26.32-.26.54 0 .22.11.4.32.54s.56.25 1.03.34c.47.09.88.19 1.24.32 1.19.41 1.79 1.14 1.79 2.2 0 .72-.32 1.31-.96 1.76-.64.46-1.47.68-2.49.68-.68 0-1.28-.12-1.82-.37s-.95-.58-1.25-1-.45-.86-.45-1.33h2.31c.01.37.13.63.37.8.23.17.54.25.9.25.34 0 .59-.07.76-.21.16-.12.24-.3.24-.52zM239.77 408.96l-.77-.53c.46-.64.7-1.3.72-1.98v-1.22h1.33v1.06c0 .49-.12.99-.36 1.48-.25.5-.55.89-.92 1.19zm-.25-9.3c0-.23.07-.43.21-.59.14-.16.35-.23.63-.23s.49.08.63.23c.14.16.22.35.22.59 0 .22-.07.41-.22.56-.14.15-.36.23-.63.23-.28 0-.49-.08-.63-.23a.795.795 0 0 1-.21-.56zM41.48 424.66v4.17h-1.41v-10.66H44c1.17 0 2.08.3 2.74.89.66.6.99 1.38.99 2.37 0 1.04-.32 1.83-.97 2.39-.65.56-1.57.84-2.78.84h-2.5zm0-1.15h2.53c.75 0 1.33-.18 1.73-.53s.6-.87.6-1.54c0-.64-.2-1.14-.6-1.53s-.95-.58-1.65-.59h-2.61v4.19zM50.8 428.83h-1.36v-11.25h1.36v11.25zM57.86 428.83c-.08-.16-.14-.43-.19-.83-.63.65-1.38.98-2.26.98-.78 0-1.42-.22-1.92-.66-.5-.44-.75-1-.75-1.68 0-.83.31-1.47.94-1.92.63-.46 1.51-.68 2.65-.68h1.32v-.62c0-.47-.14-.85-.42-1.13-.28-.28-.7-.42-1.25-.42-.48 0-.89.12-1.22.37s-.49.54-.49.89H52.9c0-.4.14-.78.42-1.15.28-.37.66-.66 1.14-.88.48-.21 1.01-.32 1.59-.32.91 0 1.63.23 2.15.68.52.46.79 1.09.81 1.89V427c0 .73.09 1.31.28 1.74v.12h-1.43zm-2.25-1.03c.42 0 .83-.11 1.21-.33s.66-.5.83-.86v-1.63h-1.06c-1.66 0-2.49.49-2.49 1.46 0 .42.14.76.42 1s.64.36 1.09.36zM62.41 420.91l.04 1c.6-.76 1.4-1.14 2.37-1.14 1.67 0 2.52.94 2.53 2.83v5.24H66v-5.24c0-.57-.14-.99-.39-1.27-.26-.27-.66-.41-1.2-.41-.44 0-.83.12-1.16.35s-.59.54-.78.92v5.65h-1.36v-7.92h1.3zM74.01 426.73c0-.37-.14-.65-.41-.85-.28-.2-.76-.38-1.44-.52-.69-.15-1.23-.32-1.63-.53-.4-.21-.7-.45-.89-.73-.19-.28-.29-.62-.29-1.01 0-.65.27-1.2.82-1.65.55-.45 1.25-.67 2.11-.67.9 0 1.63.23 2.19.7.56.46.84 1.06.84 1.78h-1.36c0-.37-.16-.69-.47-.96-.32-.27-.71-.4-1.19-.4-.49 0-.88.11-1.16.32s-.42.5-.42.84c0 .33.13.57.39.74s.73.33 1.4.48c.68.15 1.22.33 1.64.54s.73.46.93.76c.2.29.3.66.3 1.08 0 .71-.28 1.28-.85 1.7-.57.43-1.3.64-2.2.64-.63 0-1.2-.11-1.68-.34s-.87-.54-1.15-.94c-.28-.4-.41-.84-.41-1.31h1.36c.02.46.21.81.55 1.08.34.27.79.4 1.34.4.51 0 .92-.1 1.23-.31.3-.21.45-.49.45-.84zM85.74 428.83c-.08-.16-.14-.43-.19-.83-.63.65-1.38.98-2.26.98-.78 0-1.42-.22-1.92-.66-.5-.44-.75-1-.75-1.68 0-.83.31-1.47.94-1.92.63-.46 1.51-.68 2.65-.68h1.32v-.62c0-.47-.14-.85-.42-1.13-.28-.28-.7-.42-1.25-.42-.48 0-.89.12-1.22.37s-.49.54-.49.89h-1.36c0-.4.14-.78.42-1.15.28-.37.66-.66 1.14-.88.48-.21 1.01-.32 1.59-.32.91 0 1.63.23 2.15.68.52.46.79 1.09.81 1.89V427c0 .73.09 1.31.28 1.74v.12h-1.44zm-2.25-1.03c.42 0 .83-.11 1.21-.33s.66-.5.83-.86v-1.63h-1.06c-1.66 0-2.49.49-2.49 1.46 0 .42.14.76.42 1s.65.36 1.09.36zM92.84 422.13c-.21-.03-.43-.05-.67-.05-.89 0-1.49.38-1.81 1.13v5.62H89v-7.92h1.32l.02.92c.44-.71 1.07-1.06 1.89-1.06.26 0 .46.03.6.1v1.26zM97.37 428.98c-1.08 0-1.95-.35-2.62-1.06-.67-.71-1.01-1.65-1.01-2.83v-.25c0-.79.15-1.49.45-2.11.3-.62.72-1.1 1.26-1.45.54-.35 1.12-.52 1.75-.52 1.03 0 1.83.34 2.4 1.02s.86 1.65.86 2.91v.56h-5.37c.02.78.25 1.41.68 1.89.44.48.99.72 1.67.72.48 0 .88-.1 1.22-.29.33-.2.62-.46.87-.78l.83.64c-.66 1.04-1.66 1.55-2.99 1.55zm-.17-7.1c-.55 0-1.01.2-1.38.6-.37.4-.6.96-.69 1.67h3.97v-.1c-.04-.69-.22-1.22-.56-1.6-.32-.38-.77-.57-1.34-.57zM110.29 426.01c0-.39-.1-.69-.29-.91-.19-.22-.53-.43-1-.62s-.92-.39-1.33-.59-.75-.43-1.05-.7-.52-.57-.67-.92-.23-.77-.23-1.26c0-.83.28-1.5.83-2.04.56-.53 1.3-.85 2.23-.93v-1.55h1.17v1.58c.89.13 1.59.5 2.11 1.1.51.6.77 1.37.77 2.3h-2.48c0-.51-.1-.9-.29-1.17s-.47-.41-.83-.41c-.32 0-.57.1-.75.3-.18.2-.27.48-.27.84s.1.65.31.86c.21.21.54.42.99.61.46.19.88.39 1.29.6.4.21.75.44 1.04.71s.52.57.69.92.25.77.25 1.27c0 .83-.27 1.52-.79 2.04-.53.53-1.25.84-2.16.92v1.47h-1.17v-1.48c-1.06-.11-1.88-.48-2.45-1.09-.57-.62-.85-1.43-.85-2.44h2.47c0 .56.12.98.37 1.27.25.29.6.44 1.05.44.33 0 .59-.1.78-.3.16-.2.26-.48.26-.82zM118.92 424.71c-.53.48-1.13.72-1.79.72-.97 0-1.73-.33-2.3-.98s-.85-1.53-.85-2.62c0-.68.16-1.32.48-1.9s.76-1.05 1.34-1.39c.57-.34 1.21-.51 1.9-.51.7 0 1.34.18 1.91.53.57.35 1.01.85 1.33 1.5.32.65.48 1.39.49 2.24v.94c0 1.18-.23 2.2-.69 3.06-.46.86-1.12 1.53-1.97 1.99s-1.85.7-2.99.7h-.15V427l.47-.01c1.68-.08 2.63-.84 2.82-2.28zm-1.12-1.06c.54 0 .92-.23 1.16-.7v-1.03c0-.68-.12-1.19-.34-1.52s-.54-.49-.93-.49c-.35 0-.64.19-.87.56-.23.37-.35.82-.35 1.35 0 .56.12 1 .36 1.33.23.33.55.5.97.5zM124.31 426.44c.39 0 .72.12.97.35.26.23.39.53.39.89s-.13.66-.39.89c-.26.23-.58.35-.97.35s-.72-.12-.98-.35c-.26-.23-.38-.53-.38-.89s.13-.65.38-.89c.26-.23.59-.35.98-.35zM132.14 424.71c-.53.48-1.13.72-1.79.72-.97 0-1.73-.33-2.3-.98s-.85-1.53-.85-2.62c0-.68.16-1.32.48-1.9s.76-1.05 1.34-1.39c.57-.34 1.21-.51 1.9-.51.7 0 1.34.18 1.91.53.57.35 1.01.85 1.33 1.5.32.65.48 1.39.49 2.24v.94c0 1.18-.23 2.2-.69 3.06-.46.86-1.12 1.53-1.97 1.99s-1.85.7-2.99.7h-.15V427l.47-.01c1.68-.08 2.63-.84 2.82-2.28zm-1.12-1.06c.54 0 .92-.23 1.16-.7v-1.03c0-.68-.12-1.19-.34-1.52s-.54-.49-.93-.49c-.35 0-.64.19-.87.56-.23.37-.35.82-.35 1.35 0 .56.12 1 .36 1.33.23.33.55.5.97.5zM140.83 424.71c-.53.48-1.13.72-1.79.72-.97 0-1.73-.33-2.3-.98s-.85-1.53-.85-2.62c0-.68.16-1.32.48-1.9s.76-1.05 1.34-1.39c.57-.34 1.21-.51 1.9-.51.7 0 1.34.18 1.91.53.57.35 1.01.85 1.33 1.5.32.65.48 1.39.49 2.24v.94c0 1.18-.23 2.2-.69 3.06-.46.86-1.12 1.53-1.97 1.99s-1.85.7-2.99.7h-.15V427l.47-.01c1.68-.08 2.63-.84 2.82-2.28zm-1.12-1.06c.54 0 .92-.23 1.16-.7v-1.03c0-.68-.12-1.19-.34-1.52s-.54-.49-.93-.49c-.35 0-.64.19-.87.56-.23.37-.35.82-.35 1.35 0 .56.12 1 .36 1.33.22.33.55.5.97.5zM150.6 418.99v1.92h1.48v1.05h-1.48v4.92c0 .32.07.56.2.72.13.16.36.24.67.24.16 0 .37-.03.64-.09v1.09c-.36.1-.7.15-1.04.15-.61 0-1.06-.18-1.37-.55-.31-.37-.46-.89-.46-1.56v-4.91h-1.44v-1.05h1.44V419h1.36zM153.15 424.8c0-.78.15-1.47.46-2.1.31-.62.73-1.1 1.27-1.44.54-.34 1.17-.5 1.86-.5 1.08 0 1.95.37 2.62 1.12.67.75 1 1.74 1 2.98v.09c0 .77-.15 1.46-.44 2.08-.29.61-.72 1.09-1.27 1.43-.55.34-1.18.51-1.89.51-1.07 0-1.94-.37-2.61-1.12-.67-.75-1-1.74-1-2.97v-.08zm1.37.16c0 .88.2 1.58.61 2.12.41.53.95.8 1.64.8s1.24-.27 1.64-.81c.41-.54.61-1.29.61-2.27 0-.87-.21-1.57-.62-2.11-.41-.54-.96-.81-1.64-.81-.67 0-1.21.27-1.62.8-.42.53-.62 1.29-.62 2.28zM170.34 426.01c0-.39-.1-.69-.29-.91-.19-.22-.53-.43-1-.62s-.92-.39-1.33-.59-.75-.43-1.05-.7-.52-.57-.67-.92-.23-.77-.23-1.26c0-.83.28-1.5.83-2.04.56-.53 1.3-.85 2.23-.93v-1.55H170v1.58c.89.13 1.59.5 2.11 1.1.51.6.77 1.37.77 2.3h-2.48c0-.51-.1-.9-.29-1.17s-.47-.41-.83-.41c-.32 0-.57.1-.75.3-.18.2-.27.48-.27.84s.1.65.31.86c.21.21.54.42.99.61.46.19.88.39 1.29.6.4.21.75.44 1.04.71s.52.57.69.92.25.77.25 1.27c0 .83-.27 1.52-.79 2.04-.53.53-1.25.84-2.16.92v1.47h-1.17v-1.48c-1.06-.11-1.88-.48-2.45-1.09-.57-.62-.85-1.43-.85-2.44h2.47c0 .56.12.98.37 1.27.25.29.6.44 1.05.44.33 0 .59-.1.78-.3.17-.2.26-.48.26-.82zM181.56 428.83h-7.44v-1.61l3.43-3.6c.84-.96 1.27-1.73 1.27-2.29 0-.46-.1-.81-.3-1.05-.2-.24-.49-.36-.87-.36s-.68.16-.92.48c-.23.32-.35.72-.35 1.2h-2.48c0-.65.16-1.26.49-1.81.33-.55.78-.99 1.36-1.3.58-.31 1.23-.47 1.95-.47 1.15 0 2.04.27 2.66.8.62.53.93 1.3.93 2.29 0 .42-.08.83-.23 1.23-.16.4-.4.82-.73 1.25-.33.44-.86 1.02-1.59 1.75l-1.38 1.59h4.2v1.9zM189.32 424.67h1.08v1.9h-1.08v2.26h-2.47v-2.26h-4.12l-.15-1.51 4.27-6.87v-.02h2.47v6.5zm-4.39 0h1.92v-3.28l-.15.25-1.77 3.03zM193.05 426.44c.39 0 .72.12.97.35.26.23.39.53.39.89s-.13.66-.39.89c-.26.23-.58.35-.97.35s-.72-.12-.98-.35c-.26-.23-.38-.53-.38-.89s.13-.65.38-.89c.26-.23.59-.35.98-.35zM200.89 424.71c-.53.48-1.13.72-1.79.72-.97 0-1.73-.33-2.3-.98s-.85-1.53-.85-2.62c0-.68.16-1.32.48-1.9s.76-1.05 1.34-1.39c.57-.34 1.21-.51 1.9-.51.7 0 1.34.18 1.91.53.57.35 1.01.85 1.33 1.5.32.65.48 1.39.49 2.24v.94c0 1.18-.23 2.2-.69 3.06-.46.86-1.12 1.53-1.97 1.99s-1.85.7-2.99.7h-.15V427l.47-.01c1.68-.08 2.62-.84 2.82-2.28zm-1.13-1.06c.54 0 .92-.23 1.16-.7v-1.03c0-.68-.12-1.19-.34-1.52s-.54-.49-.93-.49c-.35 0-.64.19-.87.56-.23.37-.35.82-.35 1.35 0 .56.12 1 .36 1.33.23.33.56.5.97.5zM209.57 424.71c-.53.48-1.13.72-1.79.72-.97 0-1.73-.33-2.3-.98s-.85-1.53-.85-2.62c0-.68.16-1.32.48-1.9s.76-1.05 1.34-1.39c.57-.34 1.21-.51 1.9-.51.7 0 1.34.18 1.91.53.57.35 1.01.85 1.33 1.5.32.65.48 1.39.49 2.24v.94c0 1.18-.23 2.2-.69 3.06-.46.86-1.12 1.53-1.97 1.99s-1.85.7-2.99.7h-.15V427l.47-.01c1.69-.08 2.63-.84 2.82-2.28zm-1.12-1.06c.54 0 .92-.23 1.16-.7v-1.03c0-.68-.12-1.19-.34-1.52s-.54-.49-.93-.49c-.35 0-.64.19-.87.56-.23.37-.35.82-.35 1.35 0 .56.12 1 .36 1.33.23.33.56.5.97.5zM214.28 429.75h-1.75l3.64-11.58h1.76l-3.65 11.58zM221.04 420.91l.08.93c.56-.72 1.32-1.08 2.26-1.08 1 0 1.68.4 2.03 1.19.54-.8 1.31-1.19 2.33-1.19 1.61 0 2.43.97 2.48 2.92v5.16h-2.48v-5c0-.41-.07-.7-.21-.89s-.39-.28-.75-.28c-.49 0-.85.22-1.09.65l.01.1v5.41h-2.48v-4.99c0-.41-.07-.71-.2-.9-.13-.19-.38-.28-.75-.28-.47 0-.83.22-1.08.65v5.52h-2.47v-7.92h2.32zM231.31 424.8c0-.79.15-1.5.46-2.11.31-.62.75-1.09 1.33-1.42s1.25-.5 2.03-.5c1.19 0 2.12.37 2.8 1.1.68.73 1.03 1.73 1.03 3v.09c0 1.24-.34 2.22-1.03 2.94-.69.73-1.62 1.09-2.79 1.09-1.13 0-2.03-.34-2.72-1.01-.68-.68-1.05-1.59-1.11-2.75v-.43zm2.47.15c0 .73.11 1.27.34 1.61s.57.51 1.02.51c.88 0 1.33-.68 1.35-2.03v-.25c0-1.42-.45-2.13-1.36-2.13-.83 0-1.27.61-1.34 1.84l-.01.45zM242.31 420.91l.08.93c.55-.72 1.3-1.08 2.26-1.08.83 0 1.44.25 1.85.74.41.49.62 1.24.63 2.23v5.11h-2.47v-5c0-.4-.08-.7-.24-.88-.16-.19-.45-.28-.88-.28-.48 0-.84.19-1.08.57v5.6H240v-7.92h2.31zM251.38 418.94v1.97h1.3v1.71h-1.3v3.62c0 .3.05.51.16.62.11.12.32.18.64.18.24 0 .45-.01.62-.04v1.76c-.44.14-.91.21-1.39.21-.85 0-1.48-.2-1.88-.6-.41-.4-.61-1.01-.61-1.82v-3.93h-1.01v-1.71h1.01v-1.97h2.46zM256.07 421.76c.53-.66 1.2-1 2.02-1 .87 0 1.53.26 1.98.78s.67 1.28.68 2.29v5h-2.47v-4.94c0-.42-.09-.73-.26-.93-.17-.2-.46-.3-.87-.3-.51 0-.87.16-1.08.48v5.68h-2.47v-11.25h2.47v4.19z"/></svg>