<svg id="Layer_1" xmlns="http://www.w3.org/2000/svg" viewBox="0 0 728 90"><style>.st0{fill:#edf4fd}</style><path class="st0" d="M569.3 62.9c0-.2-.1-.4-.2-.5s-.4-.3-.7-.4-.5-.2-.7-.3c-.6-.3-.9-.8-.9-1.4 0-.4.1-.7.4-1 .2-.3.6-.4 1-.5V58h.6v.8c.4.1.8.2 1 .5.2.3.3.7.3 1.2h-.9c0-.3-.1-.5-.2-.7-.1-.2-.3-.3-.6-.3-.2 0-.4.1-.5.2s-.2.3-.2.5.1.4.2.5c.1.1.4.2.7.4.3.1.6.2.7.3.2.1.3.2.5.3.1.1.2.3.3.4.1.2.1.4.1.6 0 .4-.1.7-.4 1s-.6.4-1.1.5v.8h-.6v-.7c-.5-.1-.9-.2-1.1-.5s-.4-.7-.4-1.2h.9c0 .3.1.5.2.7s.4.3.7.3c.3 0 .5-.1.6-.2.3-.1.3-.3.3-.5zM573.4 64.2h-.9V60l-1.3.4v-.7l2.1-.8h.1v5.3zM578.3 59.3v1h.7v.7h-.7v2.2c0 .2 0 .3.1.3s.2.1.3.1h.3v.7c-.2.1-.4.1-.6.1-.7 0-1-.4-1-1.1v-2.2h-.7v-.7h.7v-1h.9zM581.8 61.1h-.4c-.4 0-.7.2-.8.5v2.7h-.9v-4h.8v.4c.2-.3.5-.5.9-.5.1 0 .2 0 .3.1l.1.8zM582.3 59.3c0-.1 0-.2.1-.3.1-.1.2-.1.4-.1s.3 0 .4.1c.1.1.1.2.1.3 0 .1 0 .2-.1.3s-.2.1-.4.1-.3 0-.4-.1c0-.1-.1-.2-.1-.3zm1 4.9h-.9v-4h.9v4zM586.6 64.2c0-.1-.1-.2-.1-.4-.3.3-.6.4-1 .4s-.7-.1-1-.3c-.3-.2-.4-.5-.4-.8 0-.4.2-.7.5-1s.8-.3 1.3-.3h.5v-.3c0-.2-.1-.4-.2-.5-.1-.1-.3-.2-.5-.2s-.4.1-.5.2c-.1.1-.2.2-.2.4h-.9c0-.2.1-.4.2-.6.1-.2.3-.3.6-.4.2-.1.5-.2.8-.2.5 0 .8.1 1.1.3.3.2.4.6.4 1v1.8c0 .4 0 .6.2.9v.1h-.8zm-1-.6c.2 0 .3 0 .5-.1s.3-.2.3-.3v-.7h-.4c-.3 0-.6.1-.7.2-.2.1-.2.3-.2.5s.1.3.2.4.1 0 .3 0zM589.2 64.2h-.9v-5.6h.9v5.6zM592.4 64.2v-3.3h-.6v-.7h.6v-.4c0-.4.1-.8.4-1s.6-.4 1-.4c.2 0 .3 0 .5.1v.7h-.3c-.4 0-.6.2-.6.7v.4h.8v.7h-.8v3.3h-1zM594.6 62.2c0-.4.1-.7.2-1 .2-.3.4-.5.6-.7.3-.2.6-.2 1-.2.5 0 1 .2 1.3.5.3.3.5.8.5 1.4v.2c0 .4-.1.7-.2 1s-.4.5-.6.7c-.3.2-.6.3-1 .3-.6 0-1-.2-1.3-.6-.4-.4-.5-.9-.5-1.6zm.9.1c0 .4.1.7.3 1 .2.2.4.3.7.3.3 0 .5-.1.7-.4s.3-.6.3-1-.1-.7-.3-1c-.2-.2-.4-.4-.7-.4-.3 0-.5.1-.7.3s-.3.7-.3 1.2zM601.1 61.1h-.4c-.4 0-.7.2-.8.5v2.7h-.9v-4h.8v.4c.2-.3.5-.5.9-.5.1 0 .2 0 .3.1l.1.8zM604.6 59.3v1h.7v.7h-.7v2.2c0 .2 0 .3.1.3.1.1.2.1.3.1h.3v.7c-.2.1-.4.1-.6.1-.7 0-1-.4-1-1.1v-2.2h-.7v-.7h.7v-1h.9zM606.9 60.7c.3-.3.7-.5 1.1-.5.8 0 1.3.5 1.3 1.4v2.6h-.9v-2.6c0-.3-.1-.5-.2-.6-.1-.1-.3-.2-.5-.2-.4 0-.6.2-.8.5v2.8h-.9v-5.6h.9v2.2zM611.9 64.3c-.6 0-1-.2-1.4-.5-.4-.4-.5-.8-.5-1.4v-.1c0-.4.1-.7.2-1.1.2-.3.4-.6.6-.7.3-.2.6-.3.9-.3.5 0 1 .2 1.2.5.3.3.4.8.4 1.5v.4h-2.6c0 .3.1.6.3.8.2.2.4.3.7.3.4 0 .7-.2 1-.5l.5.5-.6.6h-.7zm-.1-3.4c-.2 0-.4.1-.6.3s-.2.4-.3.7h1.7v-.1c0-.3-.1-.5-.2-.7-.2-.1-.4-.2-.6-.2zM616.4 64.2v-3.3h-.6v-.7h.6v-.4c0-.4.1-.8.4-1s.6-.4 1-.4c.2 0 .3 0 .5.1v.7h-.3c-.4 0-.6.2-.6.7v.4h.8v.7h-.8v3.3h-1zM618.7 59.3c0-.1 0-.2.1-.3.1-.1.2-.1.4-.1s.3 0 .4.1c.1.1.1.2.1.3 0 .1 0 .2-.1.3s-.2.1-.4.1-.3 0-.4-.1c0-.1-.1-.2-.1-.3zm1 4.9h-.9v-4h.9v4zM622.7 61.1h-.4c-.4 0-.7.2-.8.5v2.7h-.9v-4h.8v.4c.2-.3.5-.5.9-.5.1 0 .2 0 .3.1l.1.8zM625.5 63.2c0-.2-.1-.3-.2-.4-.1-.1-.3-.2-.6-.2s-.6-.1-.8-.2c-.4-.2-.7-.5-.7-.9 0-.3.1-.6.4-.9.3-.2.7-.3 1.1-.3.5 0 .9.1 1.1.4s.4.5.4.9h-.9c0-.2-.1-.3-.2-.4-.1-.1-.3-.2-.5-.2s-.4 0-.5.1c-.1.1-.2.2-.2.4 0 .1.1.2.2.3.1.1.3.2.7.2.3.1.6.2.8.3.2.1.3.2.4.4.1.1.1.3.1.5 0 .4-.1.6-.4.9-.3.2-.7.3-1.2.3-.3 0-.6-.1-.9-.2s-.5-.3-.6-.5c-.1-.2-.2-.4-.2-.7h.9c0 .2.1.4.2.5s.3.2.6.2c.2 0 .4 0 .5-.1.4-.2.5-.3.5-.4zM628.2 59.3v1h.7v.7h-.7v2.2c0 .2 0 .3.1.3.1.1.2.1.3.1h.3v.7c-.2.1-.4.1-.6.1-.7 0-1-.4-1-1.1v-2.2h-.7v-.7h.7v-1h.9zM633.8 64.2h-.8V60l-1.3.4v-.7l2.1-.8h.1v5.3zM638.7 62.3h.7v.7h-.7v1.2h-.9V63h-2.3v-.5l2.3-3.6h.9v3.4zm-2.3 0h1.4v-2.2l-.1.1-1.3 2.1zM641.7 62.2c0-.6.1-1.1.4-1.5.3-.4.7-.6 1.1-.6.4 0 .8.1 1 .4v-2h.9v5.6h-.8v-.4c-.3.3-.6.5-1.1.5-.5 0-.8-.2-1.1-.6-.2-.2-.4-.7-.4-1.4zm.9.1c0 .4.1.7.2.9.2.2.4.3.7.3.4 0 .6-.2.8-.5v-1.7c-.2-.3-.4-.5-.8-.5-.3 0-.5.1-.7.3-.1.4-.2.8-.2 1.2zM648.5 64.2c0-.1-.1-.2-.1-.4-.3.3-.6.4-1 .4s-.7-.1-1-.3c-.3-.2-.4-.5-.4-.8 0-.4.2-.7.5-1s.8-.3 1.3-.3h.5v-.3c0-.2-.1-.4-.2-.5-.1-.1-.3-.2-.5-.2s-.4.1-.5.2c-.1.1-.2.2-.2.4h-.9c0-.2.1-.4.2-.6.1-.2.3-.3.6-.4.2-.1.5-.2.8-.2.5 0 .8.1 1.1.3.3.2.4.6.4 1v1.8c0 .4 0 .6.1.9v.1h-.7zm-1-.6c.2 0 .3 0 .5-.1s.3-.2.3-.3v-.7h-.5c-.3 0-.6.1-.7.2-.2.1-.2.3-.2.5s.1.3.2.4.2 0 .4 0zM651.6 63l.8-2.7h.9l-1.6 4.6c-.2.7-.7 1-1.2 1-.1 0-.3 0-.4-.1v-.7h.2c.2 0 .4 0 .5-.1.1-.1.2-.2.3-.4l.1-.3-1.4-3.9h1l.8 2.6zM656.1 63.2c0-.2-.1-.3-.2-.4-.1-.1-.3-.2-.7-.2s-.6-.1-.8-.2c-.4-.2-.7-.5-.7-.9 0-.3.1-.6.4-.9s.7-.3 1.1-.3c.5 0 .9.1 1.1.4.3.2.4.5.4.9h-.7c0-.2-.1-.3-.2-.4-.1-.1-.3-.2-.5-.2s-.4 0-.5.1c-.1.1-.2.2-.2.4 0 .1.1.2.2.3.1.1.3.2.7.2.3.1.6.2.8.3.2.1.3.2.4.4.1.1.1.3.1.5 0 .4-.1.6-.4.9-.3.2-.7.3-1.2.3-.3 0-.6-.1-.9-.2s-.5-.3-.6-.5-.2-.4-.2-.7h.9c0 .2.1.4.2.5s.3.2.6.2c.2 0 .4 0 .5-.1.3-.2.4-.3.4-.4zM658.3 63.3c.2 0 .3 0 .4.1.1.1.1.2.1.4 0 .1 0 .3-.1.3-.1.1-.2.1-.4.1s-.3 0-.4-.1c-.1-.1-.1-.2-.1-.3s0-.3.1-.4c.1 0 .2-.1.4-.1zM546 71.3v2h-1V68h2c.6 0 1.1.2 1.4.5s.5.7.5 1.2-.2.9-.5 1.2c-.3.3-.8.4-1.4.4h-1zm0-.8h1.1c.3 0 .6-.1.8-.2.2-.2.3-.4.3-.7 0-.3-.1-.5-.3-.7s-.4-.3-.7-.3H546v1.9zM550.7 73.2h-.9v-5.6h.9v5.6zM554 73.2c0-.1-.1-.2-.1-.4-.3.3-.6.4-1 .4s-.7-.1-1-.3c-.3-.2-.4-.5-.4-.8 0-.4.2-.7.5-1s.8-.3 1.3-.3h.5v-.3c0-.2-.1-.4-.2-.5-.1-.1-.3-.2-.5-.2s-.4.1-.5.2c-.1.1-.2.2-.2.4h-.9c0-.2.1-.4.2-.6.1-.2.3-.3.6-.4.2-.1.5-.2.8-.2.5 0 .8.1 1.1.3.3.2.4.6.4 1v1.8c0 .4 0 .6.2.9v.1h-.8zm-.9-.6c.2 0 .3 0 .5-.1s.3-.2.3-.3v-.7h-.5c-.3 0-.6.1-.7.2-.2.1-.2.3-.2.5s.1.3.2.4.2 0 .4 0zM556.6 69.3v.5c.3-.4.7-.5 1.2-.5.8 0 1.2.5 1.3 1.4v2.6h-.9v-2.6c0-.3-.1-.4-.2-.6-.1-.1-.3-.2-.5-.2-.4 0-.6.2-.8.5v2.8h-.9v-4h.8zM562.1 72.2c0-.2-.1-.3-.2-.4-.1-.1-.3-.2-.6-.2s-.6-.1-.8-.2c-.4-.2-.7-.5-.7-.9 0-.3.1-.6.4-.9.3-.2.7-.3 1.1-.3.5 0 .9.1 1.1.4s.4.5.4.9h-.9c0-.2-.1-.3-.2-.4-.1-.1-.3-.2-.5-.2s-.4 0-.5.1c-.1.1-.2.2-.2.4 0 .1.1.2.2.3.1.1.3.2.7.2.3.1.6.2.8.3.2.1.3.2.4.4.1.1.1.3.1.5 0 .4-.1.6-.4.9-.3.2-.7.3-1.2.3-.3 0-.6-.1-.9-.2s-.5-.3-.6-.5c-.1-.2-.2-.4-.2-.7h.9c0 .2.1.4.2.5s.3.2.6.2c.2 0 .4 0 .5-.1.5-.2.5-.3.5-.4zM567.9 72.2c0-.2-.1-.3-.2-.4s-.3-.2-.7-.2-.6-.1-.8-.2c-.4-.2-.7-.5-.7-.9 0-.3.1-.6.4-.9s.7-.3 1.1-.3c.5 0 .9.1 1.1.4.3.2.4.5.4.9h-.9c0-.2-.1-.3-.2-.4-.1-.1-.3-.2-.5-.2s-.4 0-.5.1c-.1.1-.2.2-.2.4 0 .1.1.2.2.3.1.1.3.2.7.2.3.1.6.2.8.3s.3.2.4.4c.1.1.1.3.1.5 0 .4-.1.6-.4.9-.3.2-.7.3-1.2.3-.3 0-.6-.1-.9-.2s-.5-.3-.6-.5-.2-.4-.2-.7h.9c0 .2.1.4.2.5s.3.2.6.2c.2 0 .4 0 .5-.1.5-.2.6-.3.6-.4zM570.6 68.3v1h.7v.7h-.7v2.2c0 .2 0 .3.1.3.1.1.2.1.3.1h.3v.7c-.2.1-.4.1-.6.1-.7 0-1-.4-1-1.1v-2.2h-.7v-.7h.7v-1h.9zM574.4 73.2c0-.1-.1-.2-.1-.4-.3.3-.6.4-1 .4s-.7-.1-1-.3c-.3-.2-.4-.5-.4-.8 0-.4.2-.7.5-1s.8-.3 1.3-.3h.5v-.3c0-.2-.1-.4-.2-.5-.1-.1-.3-.2-.5-.2s-.4.1-.5.2c-.1.1-.2.2-.2.4h-.8c0-.2.1-.4.2-.6.1-.2.3-.3.6-.4.2-.1.5-.2.8-.2.5 0 .8.1 1.1.3.3.2.4.6.4 1v1.8c0 .4 0 .6.2.9v.1h-.9zm-1-.6c.2 0 .3 0 .5-.1s.3-.2.3-.3v-.7h-.5c-.3 0-.6.1-.7.2-.2.1-.2.3-.2.5s.1.3.2.4.2 0 .4 0zM578.1 70.1h-.4c-.4 0-.7.2-.8.5v2.7h-.9v-4h.8v.4c.2-.3.5-.5.9-.5.1 0 .2 0 .3.1l.1.8zM580 68.3v1h.7v.7h-.7v2.2c0 .2 0 .3.1.3s.2.1.3.1h.3v.7c-.2.1-.4.1-.6.1-.7 0-1-.4-1-1.1v-2.2h-.7v-.7h.7v-1h.9zM581.4 68.3c0-.1 0-.2.1-.3.1-.1.2-.1.4-.1s.3 0 .4.1c.1.1.1.2.1.3 0 .1 0 .2-.1.3s-.2.1-.4.1-.3 0-.4-.1-.1-.2-.1-.3zm.9 4.9h-.9v-4h.9v4zM584.1 69.3v.5c.3-.4.7-.5 1.2-.5.8 0 1.2.5 1.3 1.4v2.6h-.9v-2.6c0-.3-.1-.4-.2-.6-.1-.1-.3-.2-.5-.2-.4 0-.6.2-.8.5v2.8h-.9v-4h.8zM587.3 71.2c0-.6.1-1.1.4-1.5s.7-.6 1.2-.6.8.2 1.1.5v-.4h.8V73c0 .5-.2.9-.5 1.2-.3.3-.8.5-1.3.5-.3 0-.6-.1-.9-.2s-.5-.3-.6-.5l.4-.5c.3.3.6.5 1 .5.3 0 .5-.1.7-.2s.3-.4.3-.7v-.3c-.3.3-.6.4-1 .4-.5 0-.8-.2-1.1-.6-.4-.2-.5-.7-.5-1.4zm.9.1c0 .4.1.7.2.9.2.2.4.3.7.3.4 0 .6-.2.8-.5v-1.7c-.2-.3-.4-.5-.8-.5-.3 0-.5.1-.7.3-.1.4-.2.8-.2 1.2zM595.9 73.2c0-.1-.1-.2-.1-.4-.3.3-.6.4-1 .4s-.7-.1-1-.3c-.3-.2-.4-.5-.4-.8 0-.4.2-.7.5-1s.8-.3 1.3-.3h.5v-.3c0-.2-.1-.4-.2-.5-.1-.1-.3-.2-.5-.2s-.4.1-.5.2c-.1.1-.2.2-.2.4h-.9c0-.2.1-.4.2-.6.1-.2.3-.3.6-.4.2-.1.5-.2.8-.2.5 0 .8.1 1.1.3.3.2.4.6.4 1v1.8c0 .4 0 .6.2.9v.1h-.8zm-.9-.6c.2 0 .3 0 .5-.1s.3-.2.3-.3v-.7h-.5c-.3 0-.6.1-.7.2-.2.1-.2.3-.2.5s.1.3.2.4.2 0 .4 0zM598.8 68.3v1h.7v.7h-.7v2.2c0 .2 0 .3.1.3.1.1.2.1.3.1h.3v.7c-.2.1-.4.1-.6.1-.7 0-1-.4-1-1.1v-2.2h-.7v-.7h.7v-1h.9zM604.5 71.9c0-.2-.1-.4-.2-.5s-.4-.3-.7-.4-.5-.2-.7-.3c-.6-.3-.9-.8-.9-1.4 0-.4.1-.7.4-1 .2-.3.6-.4 1-.5V67h.6v.8c.4.1.8.2 1 .5.2.3.3.7.3 1.2h-.9c0-.3-.1-.5-.2-.7-.1-.2-.3-.3-.6-.3-.2 0-.4.1-.5.2s-.2.3-.2.5.1.4.2.5c.1.1.4.2.7.4.3.1.6.2.7.3.2.1.3.2.5.3.1.1.2.3.3.4.1.2.1.4.1.6 0 .4-.1.7-.4 1s-.6.4-1.1.5v.8h-.6v-.7c-.5-.1-.9-.2-1.1-.5s-.4-.7-.4-1.2h.9c0 .3.1.5.2.7s.4.3.7.3c.3 0 .5-.1.6-.2.3-.1.3-.3.3-.5zM608.7 71c-.3.3-.6.5-1 .5-.5 0-.8-.2-1.1-.5-.3-.3-.4-.8-.4-1.3 0-.4.1-.7.2-1 .1-.3.3-.5.6-.7.3-.2.6-.2.9-.2.5 0 1 .2 1.3.6.3.4.5.9.5 1.6v.2c0 1-.2 1.7-.7 2.2s-1.1.8-1.9.8h-.1v-.7h.1c.5 0 .9-.1 1.2-.4.2-.2.4-.6.4-1.1zm-.8-.2c.2 0 .3-.1.5-.2s.3-.2.4-.4v-.3c0-.4-.1-.7-.2-.9s-.4-.4-.6-.4c-.3 0-.5.1-.6.3-.2.2-.2.5-.2.8 0 .3.1.6.2.8 0 .2.2.3.5.3zM611.1 72.3c.2 0 .3 0 .4.1.1.1.1.2.1.4 0 .1 0 .3-.1.3-.1.1-.2.1-.4.1s-.3 0-.4-.1c-.1-.1-.1-.2-.1-.3s0-.3.1-.4c.1 0 .2-.1.4-.1zM615.1 71c-.3.3-.6.5-1 .5-.5 0-.8-.2-1.1-.5-.3-.3-.4-.8-.4-1.3 0-.4.1-.7.2-1 .1-.3.3-.5.6-.7.3-.2.6-.2.9-.2.5 0 1 .2 1.3.6.3.4.5.9.5 1.6v.2c0 1-.2 1.7-.7 2.2s-1.1.8-1.9.8h-.1v-.7h.1c.5 0 .9-.1 1.2-.4.2-.2.3-.6.4-1.1zm-.9-.2c.2 0 .3-.1.5-.2s.3-.2.4-.4v-.3c0-.4-.1-.7-.2-.9s-.4-.4-.6-.4c-.3 0-.5.1-.6.3-.2.2-.2.5-.2.8 0 .3.1.6.2.8.1.2.3.3.5.3zM619.3 71c-.3.3-.6.5-1 .5-.5 0-.8-.2-1.1-.5-.3-.3-.4-.8-.4-1.3 0-.4.1-.7.2-1 .1-.3.3-.5.6-.7.3-.2.6-.2.9-.2.5 0 1 .2 1.3.6.3.4.5.9.5 1.6v.2c0 1-.2 1.7-.7 2.2s-1.1.8-1.9.8h-.1v-.7h.1c.5 0 .9-.1 1.2-.4.3-.2.4-.6.4-1.1zm-.8-.2c.2 0 .3-.1.5-.2s.3-.2.4-.4v-.3c0-.4-.1-.7-.2-.9s-.4-.4-.6-.4c-.3 0-.5.1-.6.3-.2.2-.2.5-.2.8 0 .3.1.6.2.8 0 .2.2.3.5.3zM624.1 68.3v1h.7v.7h-.7v2.2c0 .2 0 .3.1.3s.2.1.3.1h.3v.7c-.2.1-.4.1-.6.1-.7 0-1-.4-1-1.1v-2.2h-.7v-.7h.7v-1h.9zM625.2 71.2c0-.4.1-.7.2-1 .2-.3.4-.5.6-.7.3-.2.6-.2 1-.2.5 0 1 .2 1.3.5.3.3.5.8.5 1.4v.2c0 .4-.1.7-.2 1s-.4.5-.6.7c-.3.2-.6.3-1 .3-.6 0-1-.2-1.3-.6-.3-.4-.5-.9-.5-1.6zm.9.1c0 .4.1.7.3 1 .2.2.4.3.7.3.3 0 .5-.1.7-.4s.3-.6.3-1-.1-.7-.3-1c-.2-.2-.4-.4-.7-.4-.3 0-.5.1-.7.3s-.3.7-.3 1.2zM634.1 71.9c0-.2-.1-.4-.2-.5s-.4-.3-.7-.4-.5-.2-.7-.3c-.6-.3-.9-.8-.9-1.4 0-.4.1-.7.4-1 .2-.3.6-.4 1-.5V67h.6v.8c.4.1.8.2 1 .5.2.3.3.7.3 1.2h-.9c0-.3-.1-.5-.2-.7-.1-.2-.3-.3-.6-.3-.2 0-.4.1-.5.2s-.2.3-.2.5.1.4.2.5c.1.1.4.2.7.4.3.1.6.2.7.3.2.1.3.2.5.3.1.1.2.3.3.4.1.2.1.4.1.6 0 .4-.1.7-.4 1s-.6.4-1.1.5v.8h-.6v-.7c-.5-.1-.9-.2-1.1-.5s-.4-.7-.4-1.2h.9c0 .3.1.5.2.7s.4.3.7.3c.3 0 .5-.1.6-.2.2-.1.3-.3.3-.5zM639.3 73.2h-3.6v-.6l1.8-1.9c.3-.3.4-.5.5-.7s.2-.4.2-.6c0-.3-.1-.5-.2-.6-.1-.2-.3-.2-.6-.2s-.5.1-.7.3c-.2.2-.2.4-.2.7h-.9c0-.3.1-.6.2-.9.1-.3.4-.5.6-.6.3-.1.6-.2 1-.2.5 0 .9.1 1.2.4.3.3.4.6.4 1.1 0 .3-.1.5-.2.8-.1.3-.4.6-.7 1l-1.3 1.4h2.5v.6zM643 71.3h.7v.7h-.7v1.2h-.9V72h-2.3v-.5l2.3-3.6h.9v3.4zm-2.3 0h1.4v-2.2l-.1.1-1.3 2.1zM644.9 72.3c.2 0 .3 0 .4.1.1.1.1.2.1.4 0 .1 0 .3-.1.3-.1.1-.2.1-.4.1s-.3 0-.4-.1c-.1-.1-.1-.2-.1-.3s0-.3.1-.4c.1 0 .2-.1.4-.1zM648.9 71c-.3.3-.6.5-1 .5-.5 0-.8-.2-1.1-.5-.3-.3-.4-.8-.4-1.3 0-.4.1-.7.2-1 .1-.3.3-.5.6-.7.3-.2.6-.2.9-.2.5 0 1 .2 1.3.6.3.4.5.9.5 1.6v.2c0 1-.2 1.7-.7 2.2s-1.1.8-1.9.8h-.1v-.7h.1c.5 0 .9-.1 1.2-.4.2-.2.3-.6.4-1.1zm-.9-.2c.2 0 .3-.1.5-.2s.3-.2.4-.4v-.3c0-.4-.1-.7-.2-.9-.2-.2-.4-.4-.6-.4-.3 0-.5.1-.6.3-.2.2-.2.5-.2.8 0 .3.1.6.2.8s.3.3.5.3zM653.1 71c-.3.3-.6.5-1 .5-.5 0-.8-.2-1.1-.5-.3-.3-.4-.8-.4-1.3 0-.4.1-.7.2-1 .1-.3.3-.5.6-.7.3-.2.6-.2.9-.2.5 0 1 .2 1.3.6.3.4.5.9.5 1.6v.2c0 1-.2 1.7-.7 2.2s-1.1.8-1.9.8h-.1v-.7h.1c.5 0 .9-.1 1.2-.4.3-.2.4-.6.4-1.1zm-.8-.2c.2 0 .3-.1.5-.2s.3-.2.4-.4v-.3c0-.4-.1-.7-.2-.9-.2-.2-.4-.4-.6-.4-.3 0-.5.1-.6.3-.2.2-.2.5-.2.8 0 .3.1.6.2.8s.2.3.5.3zM655.2 73.7h-.7l2.1-5.8h.7l-2.1 5.8zM658.7 69.3v.4c.3-.3.7-.5 1.1-.5.5 0 .9.2 1.1.6.3-.4.7-.6 1.2-.6.4 0 .8.1 1 .4.2.2.3.6.3 1.1v2.6h-.9v-2.6c0-.3-.1-.4-.2-.6-.1-.1-.3-.2-.5-.2s-.4.1-.5.2c-.1.1-.2.3-.3.4v2.7h-.9v-2.6c0-.5-.3-.7-.7-.7-.4 0-.6.1-.8.4v2.9h-.9v-4h1zM664.3 71.2c0-.4.1-.7.2-1 .2-.3.4-.5.6-.7.3-.2.6-.2 1-.2.5 0 1 .2 1.3.5.3.3.5.8.5 1.4v.2c0 .4-.1.7-.2 1s-.4.5-.6.7c-.3.2-.6.3-1 .3-.6 0-1-.2-1.3-.6s-.5-.9-.5-1.6zm.9.1c0 .4.1.7.3 1 .2.2.4.3.7.3.3 0 .5-.1.7-.4.2-.2.3-.6.3-1s-.1-.7-.3-1-.4-.4-.7-.4c-.3 0-.5.1-.7.3s-.3.7-.3 1.2zM669.5 69.3v.5c.3-.4.7-.5 1.2-.5.8 0 1.2.5 1.3 1.4v2.6h-.9v-2.6c0-.3-.1-.4-.2-.6-.1-.1-.3-.2-.5-.2-.4 0-.6.2-.8.5v2.8h-.9v-4h.8zM674 68.3v1h.7v.7h-.7v2.2c0 .2 0 .3.1.3.1.1.2.1.3.1h.3v.7c-.2.1-.4.1-.6.1-.7 0-1-.4-1-1.1v-2.2h-.7v-.7h.7v-1h.9zM676.2 69.7c.3-.3.7-.5 1.1-.5.8 0 1.3.5 1.3 1.4v2.6h-.9v-2.6c0-.3-.1-.5-.2-.6s-.3-.2-.5-.2c-.4 0-.6.2-.8.5v2.8h-.9v-5.6h.9v2.2zM680.1 72.3c.2 0 .3 0 .4.1.1.1.1.2.1.4 0 .1 0 .3-.1.3-.1.1-.2.1-.4.1s-.3 0-.4-.1c-.1-.1-.1-.2-.1-.3s0-.3.1-.4c.1 0 .2-.1.4-.1z"/></svg>