<svg id="Layer_1" xmlns="http://www.w3.org/2000/svg" viewBox="0 0 728 90"><style>.st0{fill:#fff}</style><path class="st0" d="M112 42.7c0-.2.1-.3.2-.4.1-.1.3-.2.4-.2.2 0 .3.1.4.2.1.1.2.3.2.4v6.5c0 .2-.1.3-.2.4-.1.1-.3.2-.4.2-.2 0-.3-.1-.4-.2-.1-.1-.2-.3-.2-.4v-6.5zM79.1 53c-.5.4-1 .5-1.7.5-.4 0-.6-.1-.9-.1l-.6-.3c-.2-.1-.3-.3-.3-.5s.1-.3.2-.4c.1-.1.3-.2.4-.2.1 0 .3 0 .4.1.3.1.5.2.8.2.2 0 .4 0 .6-.1.2-.1.4-.2.5-.3.1-.1.3-.3.3-.5.1-.2.1-.4.1-.6v-4.4c0-.2.1-.3.2-.4.1-.1.3-.2.4-.2.2 0 .3.1.4.2.1.1.2.3.2.4v4.4c.2.9-.2 1.7-1 2.2zM52.7 40.1c0-.2.1-.3.2-.4.1-.1.3-.2.4-.2.2 0 .3.1.4.2.1.1.2.3.2.4v.4c0 .2-.1.3-.2.4-.1.1-.3.2-.4.2-.2 0-.3-.1-.4-.2-.1-.1-.2-.3-.2-.4v-.4zm0 2.7c0-.2.1-.3.2-.4.1-.1.3-.2.4-.2.2 0 .3.1.4.2.1.1.2.3.2.4v6.5c0 .2-.1.3-.2.4-.1.1-.3.2-.4.2-.2 0-.3-.1-.4-.2-.1-.1-.2-.3-.2-.4v-6.5zM47.6 42.9c0-.2.1-.3.2-.4.1-.1.2-.2.4-.2.1 0 .2 0 .4.1.1.1.2.2.2.3.5-.4 1-.5 1.7-.5.4 0 .6.1.8.1.2.1.4.1.6.3.2.1.3.3.3.5s-.1.3-.2.4c-.1.1-.2.2-.4.2-.1 0-.2 0-.3-.1-.3-.1-.5-.2-.8-.2-.2 0-.4 0-.6.1-.2.1-.4.2-.5.3-.1.1-.3.3-.3.5-.1.2-.1.4-.1.6v4.3c0 .2-.1.3-.2.4-.1.1-.2.2-.4.2s-.3-.1-.4-.2c-.1-.1-.2-.2-.2-.4V42.9zM54.7 43v-.2c0-.1.1-.3.2-.4.1-.1.2-.2.4-.2.1 0 .2 0 .3.1.1.1.2.1.2.3l2.3 5.3 2.3-5.3c.1-.2.3-.4.5-.4s.3.1.4.2c.1.1.2.3.2.4v.2l-2.8 6.5c-.1.2-.3.4-.5.4-.3 0-.4-.1-.5-.4l-3-6.5zM61.6 44.9c0-.4.1-.7.2-1.1.1-.3.3-.6.6-.9.3-.3.6-.4.9-.6.3-.1.7-.2 1.1-.2.4 0 .7.1 1.1.2.3.1.6.3.9.6.3.3.5.5.6.9.1.3.2.7.2 1.1v4.3c0 .2-.1.3-.2.4-.1.1-.3.2-.4.2-.1 0-.3 0-.4-.1-.1-.1-.2-.2-.2-.3-.5.3-1 .5-1.6.5-.4 0-.7-.1-1.1-.2-.3-.1-.6-.3-.9-.6-.3-.3-.5-.5-.6-.9-.1-.3-.2-.7-.2-1.1v-2.2zm1.2 2.2c0 .2 0 .4.1.6.1.2.2.4.3.5.1.1.3.3.5.3.2.1.4.1.6.1.2 0 .4 0 .6-.1.2-.1.4-.2.5-.3.1-.1.3-.3.3-.5.1-.2.1-.4.1-.6v-2.3c0-.2 0-.4-.1-.6-.1-.2-.2-.4-.3-.5-.1-.1-.3-.3-.5-.3-.2-.1-.4-.1-.6-.1-.2 0-.4 0-.6.1-.2.1-.4.2-.5.3-.1.1-.3.3-.3.5-.1.2-.1.4-.1.6v2.3zM68.2 44.9c0-.4.1-.8.2-1.1.1-.3.4-.6.6-.9l.9-.6c.3-.1.7-.2 1.1-.2h.4c.2 0 .4.1.7.2.3.1.5.3.8.5.3.2.5.6.6 1v.2c0 .2-.1.3-.2.4-.1.1-.3.2-.4.2-.1 0-.2 0-.3-.1-.1-.1-.2-.2-.2-.3-.1-.3-.3-.5-.6-.7-.3-.2-.6-.3-.9-.3-.2 0-.4 0-.6.1-.2.1-.4.2-.5.3-.1.1-.3.3-.3.5-.1.2-.1.4-.1.6v2.2c0 .2 0 .4.1.6.1.2.2.4.3.5.1.1.3.3.5.3.2.1.4.1.6.1.3 0 .6-.1.9-.3.3-.2.5-.4.6-.7.1-.1.1-.2.2-.3.1-.1.2-.1.3-.1.2 0 .3.1.4.2.1.1.2.3.2.4v.2c-.2.5-.5.8-.7 1-.3.2-.6.4-.8.5-.3.1-.5.2-.7.2H71c-.4 0-.7-.1-1.1-.2-.3-.1-.6-.3-.9-.6-.3-.3-.5-.5-.6-.9-.1-.3-.2-.7-.2-1.1v-1.8zM89.5 42.8c0-.2.1-.3.2-.4.1-.1.3-.2.4-.2.2 0 .3.1.4.2.1.1.2.3.2.4v4.3c0 .2 0 .4.1.6.1.2.2.4.3.5.1.1.3.3.5.3.2.1.4.1.6.1.2 0 .4 0 .6-.1.2-.1.4-.2.5-.3.1-.1.3-.3.3-.5.1-.2.1-.4.1-.6v-4.3c0-.2.1-.3.2-.4.1-.1.3-.2.4-.2.2 0 .3.1.4.2.1.1.2.3.2.4v4.3c0 .4-.1.7-.2 1.1-.1.3-.3.6-.6.9-.3.3-.5.4-.9.6-.3.1-.7.2-1.1.2-.4 0-.8-.1-1.1-.2-.3-.1-.6-.3-.9-.6-.3-.3-.5-.5-.6-.9-.1-.3-.2-.7-.2-1.1v-4.3zM96.1 44.9c0-.4.1-.7.2-1.1.1-.3.3-.6.6-.9.3-.3.6-.4.9-.6.3-.1.7-.2 1.1-.2.4 0 .7.1 1.1.2.3.1.6.3.9.6.3.3.5.5.6.9.1.3.2.7.2 1.1v4.3c0 .2-.1.3-.2.4-.1.1-.3.2-.4.2-.1 0-.3 0-.4-.1-.1-.1-.2-.2-.2-.3-.5.3-1 .5-1.6.5-.4 0-.7-.1-1.1-.2-.3-.1-.6-.3-.9-.6-.3-.3-.5-.5-.6-.9-.1-.3-.2-.7-.2-1.1v-2.2zm1.2 2.2c0 .2 0 .4.1.6.1.2.2.4.3.5.1.1.3.3.5.3.2.1.4.1.6.1.2 0 .4 0 .6-.1.2-.1.4-.2.5-.3.1-.1.3-.3.3-.5.1-.2.1-.4.1-.6v-2.3c0-.2 0-.4-.1-.6-.1-.2-.2-.4-.3-.5-.1-.1-.3-.3-.5-.3-.2-.1-.4-.1-.6-.1-.2 0-.4 0-.6.1-.2.1-.4.2-.5.3-.1.1-.3.3-.3.5-.1.2-.1.4-.1.6v2.3zM102.8 42.9c0-.2.1-.3.2-.4.1-.1.2-.2.4-.2.1 0 .2 0 .4.1.1.1.2.2.2.3.5-.4 1-.5 1.7-.5.4 0 .6.1.8.1.2.1.4.1.6.3.2.1.3.3.3.5s-.1.3-.2.4c-.1.1-.2.2-.4.2-.1 0-.2 0-.3-.1-.3-.1-.5-.2-.8-.2-.2 0-.4 0-.6.1-.2.1-.4.2-.5.3-.1.1-.3.3-.3.5-.1.2-.1.4-.1.6v4.3c0 .2-.1.3-.2.4-.1.1-.2.2-.4.2s-.3-.1-.4-.2c-.1-.1-.2-.2-.2-.4V42.9z"/><path class="st0" d="M112 40.1c0-.2.1-.3.2-.4.1-.1.3-.2.4-.2.2 0 .3.1.4.2.1.1.2.3.2.4v7.1c0 .4-.1.7-.2 1.1-.1.3-.3.6-.6.9-.3.3-.5.4-.9.6-.3.1-.7.2-1.1.2-.4 0-.8-.1-1.1-.2-.3-.1-.6-.3-.9-.6-.3-.3-.5-.5-.6-.9-.1-.3-.2-.7-.2-1.1V45c0-.4.1-.7.2-1.1.1-.3.3-.6.6-.9.3-.3.5-.4.9-.6.3-.1.7-.2 1.1-.2.3 0 .6 0 .9.1.3.1.5.2.8.4v-2.6zm-3.2 7c0 .2 0 .4.1.6.1.2.2.4.3.5.1.1.3.3.5.3.2.1.4.1.6.1.2 0 .4 0 .6-.1.2-.1.4-.2.5-.3.1-.1.3-.3.3-.5.1-.2.1-.4.1-.6v-2.2c0-.2 0-.4-.1-.6-.1-.2-.2-.4-.3-.5-.1-.1-.3-.3-.5-.3-.2-.1-.4-.1-.6-.1-.2 0-.4 0-.6.1-.2.1-.4.2-.5.3-.1.1-.3.3-.3.5-.1.2-.1.4-.1.6v2.2zM74.7 42.8c0-.2.1-.3.2-.4.1-.1.3-.2.4-.2.2 0 .3.1.4.2.1.1.2.3.2.4v4.3c0 .2 0 .4.1.6.1.2.2.4.3.5.1.1.3.3.5.3.2.1.4.1.6.1.2 0 .4 0 .6-.1.2-.1.4-.2.5-.3.1-.1.3-.3.3-.5.1-.2.1-.4.1-.6v-4.3c0-.2.1-.3.2-.4.1-.1.3-.2.4-.2.2 0 .3.1.4.2.1.1.2.3.2.4v4.3c0 .4-.1.7-.2 1.1-.1.3-.3.6-.6.9-.3.3-.5.4-.9.6-.3.1-.7.2-1.1.2-.4 0-.8-.1-1.1-.2-.3-.1-.6-.3-.9-.6-.3-.3-.5-.5-.6-.9-.1-.3-.2-.7-.2-1.1v-4.3zM87.8 44.7h-2.4c-.3 0-.6.2-.6.6 0 .3.3.6.6.6h1.9v.9c0 1.3-1.1 2.2-2.3 2.2-1.3 0-2.4-.9-2.4-2.4V43c0-1.4 1.1-2.4 2.4-2.4 1.1 0 2 .7 2.3 1.7.1.2.3.3.5.3.5 0 .7-.4.5-.9-.4-1.1-1.5-2.3-3.4-2.3-2.1 0-3.6 1.7-3.6 3.6v3.7c0 1.9 1.5 3.6 3.6 3.6 1.9 0 3.5-1.5 3.5-3.2v-1.8c0-.4-.3-.6-.6-.6z"/><path class="st0" d="M112 42.8c0-.2.1-.3.2-.4.1-.1.3-.2.4-.2.2 0 .3.1.4.2.1.1.2.3.2.4v6.5c0 .2-.1.3-.2.4-.1.1-.3.2-.4.2-.2 0-.3-.1-.4-.2-.1-.1-.2-.3-.2-.4v-6.5z"/><g><path class="st0" d="M40.2 40.5c0-.2.1-.3.2-.4.1-.1.2-.2.4-.2h2.3c.5 0 1 .1 1.4.3.4.2.8.4 1.1.8.3.3.6.7.8 1.1.2.4.3.9.3 1.4 0 .5-.1 1-.3 1.4-.2.4-.4.8-.8 1.1-.3.3-.7.6-1.1.8-.4.2-.9.3-1.4.3h-1.7v2.3c0 .2-.1.3-.2.4-.1.1-.2.2-.4.2s-.3-.1-.4-.2c-.1-.1-.2-.2-.2-.4v-8.9zm1.2.5v4.8h1.7c.3 0 .7-.1 1-.2.3-.1.6-.3.8-.5.2-.2.4-.5.5-.8.1-.3.2-.6.2-.9 0-.3-.1-.6-.2-.9-.1-.3-.3-.5-.5-.8-.2-.2-.5-.4-.8-.5-.3-.1-.6-.2-.9-.2h-1.8z"/></g><g><path class="st0" d="M114 39.7h-.2v-.2h.6v.2h-.2v.7h-.2v-.7zM115.2 40.1v-.3c0 .1-.1.2-.1.3l-.1.3h-.1l-.1-.3c0-.1-.1-.2-.1-.3v.6h-.2l.1-.8h.2l.1.3c0 .1.1.2.1.3 0-.1.1-.2.1-.3l.1-.3h.2v.8h-.2v-.3z"/></g></svg>