<svg id="Layer_1" xmlns="http://www.w3.org/2000/svg" viewBox="0 0 320 100"><style>.st0{fill:#edf4fd}.st1{fill:#021d8b}</style><g id="Button_1_"><path class="st0" d="M93.95 66.33h-50.1c-10.51 0-19.04-8.52-19.04-19.04 0-10.51 8.52-19.04 19.04-19.04h50.1c10.51 0 19.04 8.52 19.04 19.04-.01 10.52-8.53 19.04-19.04 19.04z"/><path class="st1" d="M49.17 41.76c0 1.15-.25 2.05-.74 2.7-.49.65-1.18.97-2.06.97-.78 0-1.4-.3-1.87-.9l-.09.77h-1.73V35.08h1.92v3.67c.44-.52 1.03-.78 1.75-.78.88 0 1.57.32 2.07.97s.75 1.55.75 2.73v.09zm-1.92-.14c0-.73-.12-1.26-.35-1.59-.23-.33-.57-.5-1.03-.5-.61 0-1.03.25-1.26.75v2.84c.23.51.66.76 1.28.76s1.03-.31 1.22-.92c.09-.29.14-.74.14-1.34zM54.67 44.56c-.47.58-1.13.87-1.97.87-.77 0-1.36-.22-1.77-.67-.41-.44-.61-1.09-.62-1.95V38.1h1.92v4.66c0 .75.34 1.13 1.02 1.13.65 0 1.1-.23 1.34-.68v-5.1h1.93v7.2h-1.81l-.04-.75zM57.97 36.23c0-.29.1-.53.29-.71.19-.19.46-.28.79-.28s.59.09.79.28c.2.19.29.42.29.71s-.1.53-.3.72-.46.28-.78.28-.58-.09-.78-.28c-.2-.18-.3-.42-.3-.72zm2.04 9.07h-1.93v-7.2h1.93v7.2zM63.63 45.3H61.7V35.08h1.93V45.3zM64.91 41.64c0-1.12.25-2.02.76-2.68.5-.67 1.19-1 2.07-1 .7 0 1.28.26 1.74.79v-3.67h1.93V45.3h-1.74l-.09-.77c-.48.6-1.1.9-1.85.9-.85 0-1.53-.33-2.04-1-.52-.67-.78-1.6-.78-2.79zm1.92.15c0 .68.12 1.19.35 1.55.23.36.58.54 1.02.54.59 0 1.01-.25 1.26-.75v-2.85c-.24-.5-.65-.75-1.24-.75-.92 0-1.39.75-1.39 2.26zM75.98 41.63c0-.71.14-1.35.41-1.91.28-.56.67-.99 1.19-1.3.52-.31 1.12-.46 1.8-.46.97 0 1.76.3 2.38.89.61.59.96 1.4 1.03 2.42l.01.49c0 1.1-.31 1.99-.93 2.66-.62.67-1.44 1-2.48 1s-1.87-.33-2.49-1c-.62-.67-.93-1.57-.93-2.71v-.08zm1.93.14c0 .68.13 1.21.39 1.57.26.36.63.54 1.1.54.47 0 .83-.18 1.09-.54.26-.36.39-.93.39-1.72 0-.67-.13-1.19-.39-1.56-.26-.37-.63-.55-1.1-.55-.47 0-.83.18-1.09.55-.27.37-.39.94-.39 1.71zM88.3 44.56c-.47.58-1.13.87-1.97.87-.77 0-1.36-.22-1.77-.67-.41-.44-.61-1.09-.62-1.95V38.1h1.92v4.66c0 .75.34 1.13 1.02 1.13.65 0 1.1-.23 1.34-.68v-5.1h1.93v7.2h-1.81l-.04-.75zM95.66 39.9c-.26-.04-.49-.05-.69-.05-.73 0-1.2.25-1.43.74v4.71h-1.92v-7.2h1.82l.05.86c.39-.66.92-.99 1.6-.99.21 0 .41.03.6.09l-.03 1.84zM51.69 60.29V54.5h-1.07v-1.41h1.07v-.61c0-.81.23-1.43.7-1.88.46-.45 1.11-.67 1.95-.67.27 0 .59.04.98.13l-.02 1.49c-.16-.04-.35-.06-.59-.06-.72 0-1.08.34-1.08 1.02v.58h1.43v1.41h-1.43v5.79h-1.94zM60.36 59.55c-.47.58-1.13.87-1.97.87-.77 0-1.36-.22-1.77-.67-.41-.44-.61-1.09-.62-1.95v-4.72h1.92v4.66c0 .75.34 1.13 1.02 1.13.65 0 1.1-.23 1.34-.68v-5.1h1.93v7.2H60.4l-.04-.74zM65.97 51.32v1.77h1.23v1.41h-1.23v3.59c0 .27.05.46.15.57s.3.17.59.17c.21 0 .4-.02.57-.05v1.46c-.38.12-.77.17-1.16.17-1.35 0-2.04-.68-2.06-2.04V54.5H63v-1.41h1.05v-1.77h1.92zM72.59 59.55c-.47.58-1.13.87-1.97.87-.77 0-1.36-.22-1.77-.67-.41-.44-.61-1.09-.62-1.95v-4.72h1.92v4.66c0 .75.34 1.13 1.02 1.13.65 0 1.1-.23 1.34-.68v-5.1h1.93v7.2h-1.81l-.04-.74zM79.94 54.89c-.26-.04-.49-.05-.69-.05-.73 0-1.2.25-1.43.74v4.71H75.9v-7.2h1.82l.05.86c.39-.66.92-.99 1.6-.99.21 0 .41.03.6.09l-.03 1.84zM84.06 60.42c-1.06 0-1.92-.32-2.58-.97-.66-.65-.99-1.51-.99-2.59v-.19c0-.72.14-1.37.42-1.94.28-.57.68-1.01 1.19-1.32.51-.31 1.1-.46 1.75-.46.98 0 1.76.31 2.33.93s.85 1.5.85 2.64v.79h-4.58c.06.47.25.85.56 1.13.31.28.71.43 1.19.43.74 0 1.32-.27 1.74-.81l.94 1.06c-.29.41-.68.73-1.17.96-.51.23-1.05.34-1.65.34zm-.22-5.92c-.38 0-.69.13-.93.39-.24.26-.39.63-.46 1.11h2.67v-.15c-.01-.43-.12-.76-.35-.99-.21-.24-.52-.36-.93-.36z"/></g></svg>