<?xml version="1.0" encoding="utf-8"?>
<!-- Generator: Adobe Illustrator 25.2.1, SVG Export Plug-In . SVG Version: 6.00 Build 0)  -->
<svg version="1.1" id="Layer_1" xmlns="http://www.w3.org/2000/svg" xmlns:xlink="http://www.w3.org/1999/xlink" x="0px" y="0px"
	 viewBox="0 0 300 250" style="enable-background:new 0 0 300 250;" xml:space="preserve">
<style type="text/css">
	.st0{fill:#782EEB;}
</style>
<path class="st0" d="M168.37,189.98c0.29,0,0.51-0.08,0.66-0.23c0.16-0.15,0.23-0.37,0.23-0.65h1.91c0,0.72-0.26,1.3-0.77,1.76
	c-0.51,0.46-1.17,0.69-1.98,0.69c-0.95,0-1.7-0.3-2.25-0.89c-0.55-0.6-0.82-1.42-0.82-2.47v-0.08c0-0.66,0.12-1.24,0.36-1.75
	c0.24-0.5,0.59-0.89,1.05-1.16c0.46-0.27,1-0.41,1.63-0.41c0.85,0,1.52,0.24,2.02,0.71c0.5,0.47,0.75,1.11,0.75,1.91h-1.91
	c0-0.34-0.08-0.6-0.25-0.78c-0.16-0.18-0.39-0.27-0.66-0.27c-0.53,0-0.83,0.34-0.92,1.01c-0.03,0.21-0.04,0.51-0.04,0.88
	c0,0.66,0.08,1.11,0.24,1.36C167.78,189.85,168.03,189.98,168.37,189.98z"/>
<path class="st0" d="M175.98,186.74l-0.67-0.05c-0.64,0-1.05,0.2-1.23,0.6v4.13h-2.03v-6.53h1.91l0.07,0.84
	c0.34-0.64,0.82-0.96,1.43-0.96c0.22,0,0.41,0.02,0.57,0.07L175.98,186.74z"/>
<path class="st0" d="M179.76,191.55c-1,0-1.81-0.3-2.43-0.9c-0.62-0.6-0.93-1.38-0.93-2.33v-0.17c0-0.67,0.12-1.26,0.37-1.77
	c0.25-0.51,0.61-0.91,1.08-1.19c0.47-0.28,1.04-0.42,1.69-0.42c0.92,0,1.64,0.28,2.17,0.85c0.53,0.57,0.8,1.36,0.8,2.38v0.79h-4.04
	c0.07,0.37,0.23,0.65,0.48,0.86c0.25,0.21,0.56,0.31,0.95,0.31c0.64,0,1.15-0.23,1.51-0.68l0.93,1.1c-0.25,0.35-0.61,0.63-1.08,0.84
	C180.79,191.44,180.29,191.55,179.76,191.55z M179.53,186.34c-0.6,0-0.95,0.39-1.06,1.18h2.05v-0.16c0.01-0.33-0.07-0.58-0.25-0.76
	C180.1,186.43,179.85,186.34,179.53,186.34z"/>
<path class="st0" d="M183.07,188.11c0-1.03,0.22-1.85,0.67-2.44c0.45-0.6,1.07-0.89,1.87-0.89c0.58,0,1.07,0.23,1.47,0.69v-3.31
	h2.04v9.27h-1.83l-0.1-0.7c-0.42,0.55-0.95,0.82-1.59,0.82c-0.78,0-1.39-0.3-1.85-0.89C183.3,190.06,183.07,189.21,183.07,188.11z
	 M185.1,188.24c0,1.16,0.34,1.74,1.01,1.74c0.45,0,0.77-0.19,0.97-0.57v-2.49c-0.19-0.39-0.5-0.58-0.95-0.58
	c-0.63,0-0.97,0.51-1.02,1.52L185.1,188.24z"/>
<path class="st0" d="M190.26,183.21c0-0.29,0.1-0.53,0.31-0.71c0.21-0.18,0.48-0.28,0.81-0.28s0.61,0.09,0.81,0.28
	c0.21,0.18,0.31,0.42,0.31,0.71c0,0.29-0.1,0.53-0.31,0.71c-0.21,0.18-0.48,0.28-0.81,0.28s-0.61-0.09-0.81-0.28
	C190.37,183.74,190.26,183.5,190.26,183.21z M192.42,191.43h-2.04v-6.53h2.04V191.43z"/>
<path class="st0" d="M196.04,183.27v1.62h1.07v1.41h-1.07v2.99c0,0.25,0.04,0.42,0.13,0.51s0.26,0.14,0.53,0.14
	c0.2,0,0.37-0.01,0.51-0.04v1.45c-0.37,0.12-0.75,0.18-1.15,0.18c-0.7,0-1.22-0.17-1.55-0.49c-0.33-0.33-0.5-0.83-0.5-1.5v-3.24
	h-0.83v-1.41h0.83v-1.62H196.04z"/>
<path class="st0" d="M203.76,189.98c0.29,0,0.51-0.08,0.66-0.23c0.16-0.15,0.23-0.37,0.23-0.65h1.91c0,0.72-0.26,1.3-0.77,1.76
	c-0.51,0.46-1.17,0.69-1.98,0.69c-0.95,0-1.7-0.3-2.25-0.89c-0.55-0.6-0.82-1.42-0.82-2.47v-0.08c0-0.66,0.12-1.24,0.36-1.75
	c0.24-0.5,0.59-0.89,1.05-1.16c0.46-0.27,1-0.41,1.63-0.41c0.85,0,1.52,0.24,2.02,0.71c0.5,0.47,0.75,1.11,0.75,1.91h-1.91
	c0-0.34-0.08-0.6-0.25-0.78c-0.16-0.18-0.39-0.27-0.66-0.27c-0.53,0-0.83,0.34-0.92,1.01c-0.03,0.21-0.04,0.51-0.04,0.88
	c0,0.66,0.08,1.11,0.24,1.36C203.17,189.85,203.42,189.98,203.76,189.98z"/>
<path class="st0" d="M211.1,191.43c-0.07-0.13-0.14-0.33-0.19-0.59c-0.37,0.47-0.9,0.71-1.57,0.71c-0.62,0-1.14-0.19-1.57-0.56
	c-0.43-0.37-0.65-0.84-0.65-1.4c0-0.71,0.26-1.24,0.78-1.61c0.52-0.36,1.28-0.54,2.28-0.54h0.63v-0.35c0-0.6-0.26-0.9-0.78-0.9
	c-0.48,0-0.72,0.24-0.72,0.72h-2.03c0-0.63,0.27-1.14,0.81-1.54c0.54-0.39,1.22-0.59,2.06-0.59s1.49,0.2,1.97,0.61
	s0.73,0.96,0.74,1.67v2.89c0.01,0.6,0.1,1.06,0.28,1.38v0.1H211.1z M209.82,190.1c0.25,0,0.46-0.05,0.63-0.16
	c0.17-0.11,0.29-0.23,0.36-0.37v-1.04h-0.59c-0.71,0-1.06,0.32-1.06,0.95c0,0.19,0.06,0.33,0.19,0.45S209.63,190.1,209.82,190.1z"/>
<path class="st0" d="M217.93,186.74l-0.67-0.05c-0.64,0-1.05,0.2-1.23,0.6v4.13h-2.03v-6.53h1.91l0.07,0.84
	c0.34-0.64,0.82-0.96,1.43-0.96c0.22,0,0.41,0.02,0.57,0.07L217.93,186.74z"/>
<path class="st0" d="M218.29,188.11c0-1.03,0.22-1.85,0.67-2.44c0.45-0.6,1.07-0.89,1.87-0.89c0.58,0,1.07,0.23,1.47,0.69v-3.31
	h2.04v9.27h-1.83l-0.1-0.7c-0.42,0.55-0.95,0.82-1.59,0.82c-0.78,0-1.39-0.3-1.85-0.89C218.52,190.06,218.29,189.21,218.29,188.11z
	 M220.32,188.24c0,1.16,0.34,1.74,1.01,1.74c0.45,0,0.77-0.19,0.97-0.57v-2.49c-0.19-0.39-0.5-0.58-0.95-0.58
	c-0.63,0-0.97,0.51-1.02,1.52L220.32,188.24z"/>
<path class="st0" d="M228.92,189.59c0-0.17-0.09-0.31-0.27-0.42c-0.18-0.1-0.53-0.21-1.03-0.33c-0.51-0.11-0.93-0.26-1.26-0.44
	c-0.33-0.18-0.58-0.41-0.75-0.67c-0.17-0.26-0.26-0.56-0.26-0.9c0-0.6,0.25-1.09,0.74-1.48s1.14-0.58,1.94-0.58
	c0.86,0,1.55,0.2,2.08,0.59c0.52,0.39,0.78,0.9,0.78,1.54h-2.04c0-0.52-0.28-0.78-0.83-0.78c-0.21,0-0.39,0.06-0.54,0.18
	c-0.14,0.12-0.22,0.27-0.22,0.44c0,0.18,0.09,0.33,0.27,0.44c0.18,0.11,0.46,0.21,0.85,0.28c0.39,0.07,0.73,0.16,1.02,0.26
	c0.98,0.34,1.47,0.94,1.47,1.82c0,0.6-0.26,1.08-0.79,1.45c-0.53,0.37-1.21,0.56-2.05,0.56c-0.56,0-1.06-0.1-1.5-0.3
	c-0.44-0.2-0.78-0.47-1.03-0.82c-0.25-0.35-0.37-0.71-0.37-1.09h1.9c0.01,0.3,0.11,0.52,0.3,0.66s0.44,0.21,0.74,0.21
	c0.28,0,0.49-0.06,0.62-0.17C228.85,189.92,228.92,189.77,228.92,189.59z"/>
</svg>
