<?xml version="1.0" encoding="utf-8"?>
<!-- Generator: Adobe Illustrator 25.2.1, SVG Export Plug-In . SVG Version: 6.00 Build 0)  -->
<svg version="1.1" id="Layer_1" xmlns="http://www.w3.org/2000/svg" xmlns:xlink="http://www.w3.org/1999/xlink" x="0px" y="0px"
	 viewBox="0 0 300 250" style="enable-background:new 0 0 300 250;" xml:space="preserve">
<style type="text/css">
	.st0{fill:#021D8B;}
</style>
<g>
	<path class="st0" d="M92.95,172.48v-12.94h4.17c1.14,0,2.17,0.26,3.08,0.78c0.91,0.52,1.62,1.25,2.14,2.2
		c0.51,0.94,0.77,2,0.78,3.18v0.6c0,1.18-0.25,2.25-0.75,3.19c-0.5,0.94-1.21,1.67-2.11,2.2c-0.91,0.53-1.92,0.8-3.04,0.8H92.95z
		 M96.07,161.96v8.13h1.08c0.89,0,1.58-0.32,2.06-0.96c0.48-0.64,0.72-1.58,0.72-2.84v-0.56c0-1.25-0.24-2.19-0.72-2.83
		c-0.48-0.63-1.18-0.95-2.1-0.95H96.07z"/>
	<path class="st0" d="M104.2,167.59c0-0.96,0.19-1.81,0.56-2.56c0.37-0.75,0.91-1.33,1.61-1.73c0.7-0.4,1.52-0.6,2.46-0.6
		c1.44,0,2.57,0.45,3.4,1.34c0.83,0.89,1.24,2.1,1.24,3.64v0.11c0,1.5-0.42,2.69-1.25,3.57c-0.83,0.88-1.96,1.32-3.38,1.32
		c-1.37,0-2.47-0.41-3.3-1.23c-0.83-0.82-1.28-1.93-1.34-3.34L104.2,167.59z M107.19,167.78c0,0.89,0.14,1.54,0.42,1.95
		c0.28,0.42,0.69,0.62,1.23,0.62c1.07,0,1.61-0.82,1.64-2.46v-0.3c0-1.72-0.55-2.58-1.65-2.58c-1,0-1.54,0.74-1.63,2.23
		L107.19,167.78z"/>
	<path class="st0" d="M123.1,168.54l0.97-5.67h2.87l-2.27,9.61h-2.53l-1.59-5.71l-1.6,5.71h-2.53l-2.27-9.61h2.87l0.95,5.8l1.53-5.8
		h2.09L123.1,168.54z"/>
	<path class="st0" d="M130.76,162.87l0.1,1.13c0.66-0.87,1.58-1.31,2.75-1.31c1,0,1.75,0.3,2.24,0.9s0.75,1.5,0.77,2.7v6.19h-3
		v-6.07c0-0.49-0.1-0.84-0.29-1.07c-0.2-0.23-0.55-0.34-1.07-0.34c-0.59,0-1.02,0.23-1.31,0.69v6.79h-2.99v-9.61H130.76z"/>
	<path class="st0" d="M141.43,172.48h-3v-13.65h3V172.48z"/>
	<path class="st0" d="M142.89,167.59c0-0.96,0.19-1.81,0.56-2.56c0.37-0.75,0.91-1.33,1.61-1.73c0.7-0.4,1.52-0.6,2.46-0.6
		c1.44,0,2.57,0.45,3.4,1.34c0.83,0.89,1.24,2.1,1.24,3.64v0.11c0,1.5-0.42,2.69-1.25,3.57c-0.83,0.88-1.96,1.32-3.38,1.32
		c-1.37,0-2.47-0.41-3.3-1.23c-0.83-0.82-1.28-1.93-1.34-3.34L142.89,167.59z M145.89,167.78c0,0.89,0.14,1.54,0.42,1.95
		c0.28,0.42,0.69,0.62,1.23,0.62c1.07,0,1.61-0.82,1.64-2.46v-0.3c0-1.72-0.55-2.58-1.65-2.58c-1,0-1.54,0.74-1.63,2.23
		L145.89,167.78z"/>
	<path class="st0" d="M158.9,172.48c-0.11-0.2-0.2-0.48-0.28-0.86c-0.55,0.69-1.32,1.04-2.31,1.04c-0.91,0-1.68-0.27-2.31-0.82
		s-0.95-1.24-0.95-2.07c0-1.04,0.38-1.83,1.16-2.36c0.77-0.53,1.89-0.8,3.36-0.8h0.92v-0.51c0-0.89-0.38-1.33-1.15-1.33
		c-0.71,0-1.07,0.35-1.07,1.05h-2.99c0-0.93,0.4-1.68,1.19-2.26c0.79-0.58,1.8-0.87,3.03-0.87c1.23,0,2.2,0.3,2.91,0.9
		s1.08,1.42,1.09,2.46v4.26c0.01,0.88,0.15,1.56,0.41,2.03v0.15H158.9z M157.03,170.53c0.37,0,0.68-0.08,0.93-0.24
		c0.25-0.16,0.42-0.34,0.53-0.54v-1.54h-0.87c-1.04,0-1.56,0.47-1.56,1.4c0,0.27,0.09,0.49,0.28,0.66
		C156.51,170.45,156.75,170.53,157.03,170.53z"/>
	<path class="st0" d="M162.77,167.61c0-1.52,0.33-2.72,0.99-3.6c0.66-0.88,1.58-1.32,2.75-1.32c0.86,0,1.58,0.34,2.17,1.01v-4.87h3
		v13.65h-2.69l-0.15-1.03c-0.62,0.81-1.4,1.21-2.35,1.21c-1.14,0-2.05-0.44-2.72-1.32C163.1,170.47,162.77,169.22,162.77,167.61z
		 M165.76,167.79c0,1.71,0.5,2.56,1.49,2.56c0.66,0,1.14-0.28,1.42-0.83v-3.66c-0.27-0.57-0.74-0.85-1.4-0.85
		c-0.92,0-1.42,0.75-1.5,2.24L165.76,167.79z"/>
	<path class="st0" d="M181.4,160.48v2.39h1.58v2.08h-1.58v4.4c0,0.36,0.07,0.61,0.2,0.75c0.13,0.14,0.39,0.21,0.77,0.21
		c0.3,0,0.54-0.02,0.75-0.05v2.14c-0.54,0.17-1.1,0.26-1.69,0.26c-1.03,0-1.79-0.24-2.28-0.73c-0.49-0.49-0.74-1.22-0.74-2.21v-4.77
		h-1.23v-2.08h1.23v-2.39H181.4z"/>
	<path class="st0" d="M187.09,163.9c0.64-0.81,1.46-1.21,2.45-1.21c1.06,0,1.86,0.31,2.4,0.94c0.54,0.63,0.81,1.55,0.83,2.78v6.07
		h-3v-6c0-0.51-0.1-0.88-0.31-1.12c-0.21-0.24-0.56-0.36-1.06-0.36c-0.62,0-1.05,0.2-1.31,0.59v6.9h-2.99v-13.65h2.99V163.9z"/>
	<path class="st0" d="M199.08,172.66c-1.47,0-2.67-0.44-3.58-1.32c-0.91-0.88-1.37-2.02-1.37-3.43v-0.25c0-0.98,0.18-1.85,0.55-2.6
		c0.36-0.75,0.9-1.33,1.59-1.75c0.7-0.41,1.53-0.62,2.49-0.62c1.35,0,2.42,0.42,3.2,1.26c0.78,0.84,1.17,2.01,1.17,3.5v1.16h-5.95
		c0.11,0.54,0.34,0.96,0.7,1.27s0.83,0.46,1.4,0.46c0.95,0,1.69-0.33,2.22-1l1.37,1.62c-0.37,0.52-0.9,0.93-1.59,1.23
		C200.61,172.51,199.87,172.66,199.08,172.66z M198.75,165c-0.88,0-1.4,0.58-1.56,1.74h3.02v-0.23c0.01-0.48-0.11-0.85-0.36-1.12
		S199.22,165,198.75,165z"/>
	<path class="st0" d="M56.23,189.93v4.39h-3.12v-12.94h5.16c0.99,0,1.86,0.18,2.63,0.55s1.35,0.88,1.77,1.56
		c0.42,0.67,0.63,1.43,0.63,2.29c0,1.26-0.45,2.27-1.35,3.03c-0.9,0.76-2.14,1.13-3.72,1.13H56.23z M56.23,187.52h2.04
		c0.6,0,1.06-0.15,1.38-0.45c0.32-0.3,0.48-0.73,0.48-1.28c0-0.6-0.16-1.09-0.49-1.45c-0.33-0.36-0.77-0.54-1.33-0.55h-2.08V187.52z
		"/>
	<path class="st0" d="M70.63,187.42l-0.99-0.07c-0.94,0-1.55,0.3-1.81,0.89v6.09h-2.99v-9.61h2.81l0.1,1.23
		c0.5-0.94,1.21-1.41,2.11-1.41c0.32,0,0.6,0.04,0.84,0.11L70.63,187.42z"/>
	<path class="st0" d="M71.69,182.23c0-0.43,0.15-0.78,0.46-1.05c0.31-0.27,0.71-0.41,1.2-0.41s0.89,0.14,1.2,0.41
		c0.31,0.27,0.46,0.62,0.46,1.05s-0.15,0.78-0.46,1.05c-0.31,0.27-0.71,0.41-1.2,0.41s-0.89-0.14-1.2-0.41
		S71.69,182.65,71.69,182.23z M74.87,194.32h-3v-9.61h3V194.32z"/>
	<path class="st0" d="M80.55,190.76l1.52-6.05h3.15l-3.14,9.61h-3.06l-3.14-9.61h3.16L80.55,190.76z"/>
	<path class="st0" d="M91.4,194.32c-0.11-0.2-0.2-0.48-0.28-0.86c-0.55,0.69-1.32,1.04-2.31,1.04c-0.91,0-1.68-0.27-2.31-0.82
		s-0.95-1.24-0.95-2.07c0-1.04,0.38-1.83,1.15-2.36s1.89-0.8,3.36-0.8h0.92v-0.51c0-0.89-0.38-1.33-1.15-1.33
		c-0.71,0-1.07,0.35-1.07,1.05h-2.99c0-0.93,0.4-1.68,1.19-2.26c0.79-0.58,1.8-0.87,3.03-0.87c1.23,0,2.19,0.3,2.91,0.9
		c0.71,0.6,1.08,1.42,1.09,2.46v4.26c0.01,0.88,0.15,1.56,0.41,2.03v0.15H91.4z M89.52,192.37c0.37,0,0.68-0.08,0.93-0.24
		c0.25-0.16,0.42-0.34,0.53-0.54v-1.54h-0.87c-1.04,0-1.56,0.47-1.56,1.4c0,0.27,0.09,0.49,0.28,0.66
		C89,192.28,89.24,192.37,89.52,192.37z"/>
	<path class="st0" d="M99.71,192.19c0.42,0,0.75-0.11,0.98-0.34c0.23-0.23,0.34-0.55,0.34-0.96h2.81c0,1.05-0.38,1.92-1.13,2.59
		c-0.76,0.67-1.73,1.01-2.92,1.01c-1.4,0-2.5-0.44-3.31-1.31c-0.81-0.88-1.21-2.09-1.21-3.64v-0.12c0-0.97,0.18-1.83,0.54-2.57
		s0.88-1.32,1.55-1.71c0.68-0.4,1.47-0.6,2.4-0.6c1.25,0,2.24,0.35,2.98,1.04c0.73,0.69,1.1,1.63,1.1,2.82h-2.81
		c0-0.5-0.12-0.88-0.36-1.15c-0.24-0.27-0.57-0.4-0.98-0.4c-0.78,0-1.23,0.5-1.36,1.48c-0.04,0.31-0.06,0.75-0.06,1.3
		c0,0.97,0.12,1.63,0.35,2.01C98.84,192,99.2,192.19,99.71,192.19z"/>
	<path class="st0" d="M108.94,190.13l1.6-5.42h3.21l-3.92,11.22l-0.17,0.41c-0.56,1.24-1.54,1.87-2.95,1.87
		c-0.39,0-0.8-0.06-1.23-0.18v-2.13h0.39c0.42,0,0.74-0.06,0.96-0.18c0.22-0.12,0.39-0.34,0.49-0.65l0.24-0.64l-3.34-9.71h3.2
		L108.94,190.13z"/>
	<path class="st0" d="M125.25,192.72c-0.48,0.53-1.18,0.96-2.11,1.29c-0.92,0.33-1.94,0.49-3.04,0.49c-1.69,0-3.05-0.52-4.06-1.55
		c-1.01-1.04-1.55-2.48-1.63-4.33l-0.01-1.12c0-1.27,0.23-2.39,0.68-3.34s1.09-1.68,1.93-2.19c0.84-0.51,1.81-0.77,2.91-0.77
		c1.61,0,2.86,0.37,3.75,1.11c0.89,0.74,1.41,1.84,1.56,3.3h-3c-0.11-0.72-0.34-1.24-0.69-1.55c-0.35-0.31-0.86-0.46-1.51-0.46
		c-0.78,0-1.39,0.33-1.81,1c-0.43,0.66-0.64,1.61-0.65,2.84v0.78c0,1.29,0.22,2.26,0.66,2.91c0.44,0.65,1.14,0.97,2.08,0.97
		c0.81,0,1.42-0.18,1.81-0.54v-2.01h-2.17v-2.14h5.29V192.72z"/>
	<path class="st0" d="M132.65,193.28c-0.63,0.81-1.49,1.22-2.57,1.22c-1.05,0-1.85-0.31-2.39-0.92c-0.54-0.61-0.81-1.49-0.81-2.64
		v-6.23h2.99v6.25c0,0.82,0.4,1.24,1.2,1.24c0.69,0,1.18-0.25,1.47-0.74v-6.74h3.01v9.61h-2.81L132.65,193.28z"/>
	<path class="st0" d="M142.6,194.32c-0.11-0.2-0.2-0.48-0.28-0.86c-0.55,0.69-1.32,1.04-2.31,1.04c-0.91,0-1.68-0.27-2.31-0.82
		s-0.95-1.24-0.95-2.07c0-1.04,0.38-1.83,1.15-2.36s1.89-0.8,3.36-0.8h0.92v-0.51c0-0.89-0.38-1.33-1.15-1.33
		c-0.71,0-1.07,0.35-1.07,1.05h-2.99c0-0.93,0.4-1.68,1.19-2.26c0.79-0.58,1.8-0.87,3.03-0.87c1.23,0,2.19,0.3,2.91,0.9
		c0.71,0.6,1.08,1.42,1.09,2.46v4.26c0.01,0.88,0.15,1.56,0.41,2.03v0.15H142.6z M140.73,192.37c0.37,0,0.68-0.08,0.93-0.24
		c0.25-0.16,0.42-0.34,0.53-0.54v-1.54h-0.87c-1.04,0-1.56,0.47-1.56,1.4c0,0.27,0.09,0.49,0.28,0.66
		C140.21,192.28,140.45,192.37,140.73,192.37z"/>
	<path class="st0" d="M152.66,187.42l-0.99-0.07c-0.94,0-1.55,0.3-1.81,0.89v6.09h-2.99v-9.61h2.81l0.1,1.23
		c0.5-0.94,1.21-1.41,2.11-1.41c0.32,0,0.6,0.04,0.83,0.11L152.66,187.42z"/>
	<path class="st0" d="M153.36,189.44c0-1.52,0.33-2.72,0.99-3.6c0.66-0.88,1.58-1.31,2.75-1.31c0.86,0,1.58,0.34,2.17,1.01v-4.87h3
		v13.65h-2.69l-0.15-1.03c-0.62,0.81-1.4,1.21-2.35,1.21c-1.14,0-2.05-0.44-2.72-1.31C153.7,192.31,153.36,191.06,153.36,189.44z
		 M156.36,189.63c0,1.71,0.5,2.56,1.49,2.56c0.66,0,1.14-0.28,1.42-0.84v-3.66c-0.27-0.57-0.74-0.85-1.4-0.85
		c-0.92,0-1.42,0.75-1.5,2.24L156.36,189.63z"/>
	<path class="st0" d="M173.92,194.32c-0.11-0.2-0.2-0.48-0.28-0.86c-0.55,0.69-1.32,1.04-2.31,1.04c-0.91,0-1.68-0.27-2.31-0.82
		s-0.95-1.24-0.95-2.07c0-1.04,0.38-1.83,1.16-2.36c0.77-0.53,1.89-0.8,3.36-0.8h0.92v-0.51c0-0.89-0.38-1.33-1.15-1.33
		c-0.71,0-1.07,0.35-1.07,1.05h-2.99c0-0.93,0.4-1.68,1.19-2.26c0.79-0.58,1.8-0.87,3.03-0.87c1.23,0,2.2,0.3,2.91,0.9
		c0.71,0.6,1.08,1.42,1.09,2.46v4.26c0.01,0.88,0.15,1.56,0.41,2.03v0.15H173.92z M172.05,192.37c0.37,0,0.68-0.08,0.93-0.24
		s0.42-0.34,0.53-0.54v-1.54h-0.87c-1.04,0-1.56,0.47-1.56,1.4c0,0.27,0.09,0.49,0.28,0.66
		C171.53,192.28,171.77,192.37,172.05,192.37z"/>
	<path class="st0" d="M187.09,189.58c0,1.49-0.34,2.68-1.01,3.58c-0.67,0.89-1.58,1.34-2.72,1.34c-0.88,0-1.61-0.32-2.18-0.97v4.49
		h-3v-13.31h2.8l0.09,0.89c0.57-0.71,1.33-1.07,2.27-1.07c1.18,0,2.11,0.44,2.76,1.31c0.66,0.87,0.99,2.07,0.99,3.6V189.58z
		 M184.1,189.4c0-1.71-0.5-2.56-1.49-2.56c-0.71,0-1.19,0.25-1.42,0.76v3.79c0.26,0.53,0.74,0.8,1.44,0.8
		c0.95,0,1.45-0.82,1.47-2.47V189.4z"/>
	<path class="st0" d="M197.34,189.58c0,1.49-0.34,2.68-1.01,3.58c-0.67,0.89-1.58,1.34-2.72,1.34c-0.88,0-1.61-0.32-2.18-0.97v4.49
		h-2.99v-13.31h2.8l0.09,0.89c0.57-0.71,1.33-1.07,2.27-1.07c1.18,0,2.11,0.44,2.76,1.31c0.66,0.87,0.99,2.07,0.99,3.6V189.58z
		 M194.34,189.4c0-1.71-0.5-2.56-1.49-2.56c-0.71,0-1.19,0.25-1.42,0.76v3.79c0.26,0.53,0.74,0.8,1.44,0.8
		c0.95,0,1.45-0.82,1.47-2.47V189.4z"/>
	<path class="st0" d="M206.68,182.32v2.39h1.58v2.08h-1.58v4.4c0,0.36,0.07,0.61,0.2,0.76c0.13,0.14,0.39,0.21,0.77,0.21
		c0.3,0,0.54-0.02,0.75-0.05v2.14c-0.54,0.17-1.1,0.26-1.69,0.26c-1.03,0-1.79-0.24-2.28-0.73c-0.49-0.49-0.74-1.22-0.74-2.21v-4.77
		h-1.23v-2.08h1.23v-2.39H206.68z"/>
	<path class="st0" d="M208.79,189.42c0-0.96,0.19-1.81,0.56-2.56s0.91-1.33,1.61-1.73c0.7-0.4,1.52-0.6,2.46-0.6
		c1.44,0,2.57,0.45,3.4,1.34s1.24,2.1,1.24,3.64v0.11c0,1.5-0.42,2.69-1.25,3.57c-0.83,0.88-1.96,1.32-3.38,1.32
		c-1.37,0-2.47-0.41-3.3-1.23s-1.28-1.93-1.34-3.34L208.79,189.42z M211.79,189.61c0,0.89,0.14,1.54,0.42,1.96
		c0.28,0.41,0.69,0.62,1.24,0.62c1.07,0,1.61-0.82,1.63-2.46v-0.3c0-1.72-0.55-2.59-1.65-2.59c-1,0-1.54,0.74-1.63,2.23
		L211.79,189.61z"/>
	<path class="st0" d="M219.01,189.44c0-1.52,0.33-2.72,0.99-3.6c0.66-0.88,1.58-1.31,2.75-1.31c0.86,0,1.58,0.34,2.17,1.01v-4.87h3
		v13.65h-2.69l-0.15-1.03c-0.62,0.81-1.4,1.21-2.35,1.21c-1.14,0-2.05-0.44-2.72-1.31C219.34,192.31,219.01,191.06,219.01,189.44z
		 M222,189.63c0,1.71,0.5,2.56,1.49,2.56c0.66,0,1.14-0.28,1.42-0.84v-3.66c-0.27-0.57-0.74-0.85-1.4-0.85
		c-0.92,0-1.42,0.75-1.5,2.24L222,189.63z"/>
	<path class="st0" d="M235.04,194.32c-0.11-0.2-0.2-0.48-0.28-0.86c-0.55,0.69-1.32,1.04-2.31,1.04c-0.91,0-1.68-0.27-2.31-0.82
		s-0.95-1.24-0.95-2.07c0-1.04,0.39-1.83,1.16-2.36c0.77-0.53,1.89-0.8,3.36-0.8h0.92v-0.51c0-0.89-0.38-1.33-1.15-1.33
		c-0.71,0-1.07,0.35-1.07,1.05h-2.99c0-0.93,0.4-1.68,1.19-2.26c0.79-0.58,1.8-0.87,3.03-0.87c1.23,0,2.19,0.3,2.91,0.9
		c0.71,0.6,1.08,1.42,1.09,2.46v4.26c0.01,0.88,0.15,1.56,0.41,2.03v0.15H235.04z M233.16,192.37c0.37,0,0.68-0.08,0.93-0.24
		c0.25-0.16,0.42-0.34,0.53-0.54v-1.54h-0.87c-1.04,0-1.56,0.47-1.56,1.4c0,0.27,0.09,0.49,0.28,0.66S232.88,192.37,233.16,192.37z"
		/>
	<path class="st0" d="M243.12,190.13l1.6-5.42h3.21l-3.92,11.22l-0.17,0.41c-0.56,1.24-1.54,1.87-2.95,1.87
		c-0.39,0-0.8-0.06-1.23-0.18v-2.13h0.39c0.42,0,0.74-0.06,0.96-0.18c0.22-0.12,0.39-0.34,0.49-0.65l0.24-0.64l-3.34-9.71h3.2
		L243.12,190.13z"/>
</g>
</svg>
