<?xml version="1.0" encoding="utf-8"?>
<!-- Generator: Adobe Illustrator 25.2.1, SVG Export Plug-In . SVG Version: 6.00 Build 0)  -->
<svg version="1.1" id="Layer_1" xmlns="http://www.w3.org/2000/svg" xmlns:xlink="http://www.w3.org/1999/xlink" x="0px" y="0px"
	 viewBox="0 0 300 250" style="enable-background:new 0 0 300 250;" xml:space="preserve">
<style type="text/css">
	.st0{fill:#021D8B;}
</style>
<g>
	<path class="st0" d="M172.33,173.33l1.01-5.54h2.11l-1.87,8.83h-2.21l-1.18-5.03l-1.16,5.03h-2.2l-1.88-8.83h2.12l1.01,5.54
		l1.21-5.54h1.81L172.33,173.33z"/>
</g>
<g>
	<path class="st0" d="M179.18,176.75c-1.01,0-1.82-0.3-2.44-0.9s-0.93-1.38-0.93-2.34v-0.17c0-0.67,0.12-1.26,0.37-1.78
		c0.25-0.51,0.61-0.91,1.09-1.19c0.48-0.28,1.04-0.42,1.7-0.42c0.92,0,1.65,0.29,2.18,0.86c0.53,0.57,0.8,1.37,0.8,2.39v0.79h-4.06
		c0.07,0.37,0.23,0.66,0.48,0.87c0.25,0.21,0.57,0.32,0.96,0.32c0.65,0,1.15-0.23,1.52-0.68l0.93,1.1
		c-0.25,0.35-0.62,0.63-1.08,0.84C180.22,176.64,179.72,176.75,179.18,176.75z M178.95,171.52c-0.6,0-0.95,0.4-1.07,1.19h2.06v-0.16
		c0.01-0.33-0.07-0.58-0.25-0.76C179.52,171.61,179.27,171.52,178.95,171.52z"/>
</g>
<g>
	<path class="st0" d="M183.83,168.29l-0.2,2.51h-1.26v-3.49h1.46V168.29z"/>
</g>
<g>
	<path class="st0" d="M186.76,176.62h-2.05v-9.32h2.05V176.62z"/>
</g>
<g>
	<path class="st0" d="M190.17,176.62h-2.05v-9.32h2.05V176.62z"/>
</g>
<g>
	<path class="st0" d="M196.46,170.06l0.07,0.77c0.47-0.59,1.09-0.89,1.87-0.89c0.83,0,1.39,0.33,1.68,0.99
		c0.44-0.66,1.09-0.99,1.93-0.99c1.33,0,2.01,0.8,2.05,2.41v4.27h-2.05v-4.14c0-0.34-0.06-0.58-0.17-0.73
		c-0.11-0.15-0.32-0.23-0.62-0.23c-0.4,0-0.71,0.18-0.9,0.54l0.01,0.08v4.48h-2.05v-4.13c0-0.34-0.05-0.59-0.16-0.75
		c-0.11-0.15-0.32-0.23-0.62-0.23c-0.39,0-0.69,0.18-0.9,0.54v4.57h-2.04v-6.56H196.46z"/>
</g>
<g>
	<path class="st0" d="M204.97,173.28c0-0.66,0.13-1.24,0.38-1.75c0.25-0.51,0.62-0.9,1.1-1.18c0.48-0.28,1.04-0.41,1.68-0.41
		c0.98,0,1.76,0.3,2.32,0.91c0.57,0.61,0.85,1.44,0.85,2.48v0.07c0,1.02-0.28,1.83-0.85,2.44c-0.57,0.6-1.34,0.9-2.31,0.9
		c-0.93,0-1.68-0.28-2.25-0.84s-0.87-1.32-0.92-2.28L204.97,173.28z M207.01,173.41c0,0.61,0.1,1.05,0.29,1.33s0.47,0.42,0.84,0.42
		c0.73,0,1.1-0.56,1.12-1.68v-0.21c0-1.18-0.38-1.77-1.13-1.77c-0.68,0-1.05,0.51-1.11,1.52L207.01,173.41z"/>
</g>
<g>
	<path class="st0" d="M214.08,170.06l0.07,0.77c0.45-0.59,1.08-0.89,1.87-0.89c0.68,0,1.19,0.2,1.53,0.61
		c0.34,0.41,0.51,1.02,0.52,1.84v4.23h-2.05v-4.14c0-0.33-0.07-0.58-0.2-0.73c-0.13-0.16-0.38-0.23-0.73-0.23
		c-0.4,0-0.7,0.16-0.89,0.47v4.63h-2.04v-6.56H214.08z"/>
</g>
<g>
	<path class="st0" d="M219.19,168.37c0-0.29,0.1-0.53,0.32-0.72c0.21-0.19,0.48-0.28,0.82-0.28s0.61,0.09,0.82,0.28
		c0.21,0.19,0.32,0.42,0.32,0.72s-0.1,0.53-0.32,0.72c-0.21,0.19-0.48,0.28-0.82,0.28s-0.61-0.09-0.82-0.28
		C219.3,168.9,219.19,168.66,219.19,168.37z M221.36,176.62h-2.05v-6.56h2.05V176.62z"/>
</g>
<g>
	<path class="st0" d="M225,168.43v1.63h1.08v1.42H225v3c0,0.25,0.04,0.42,0.13,0.52c0.09,0.1,0.27,0.15,0.53,0.15
		c0.2,0,0.37-0.01,0.51-0.04v1.46c-0.37,0.12-0.75,0.18-1.15,0.18c-0.7,0-1.22-0.17-1.56-0.5s-0.5-0.83-0.5-1.51v-3.26h-0.84v-1.42
		h0.84v-1.63H225z"/>
</g>
<g>
	<path class="st0" d="M226.45,173.28c0-0.66,0.13-1.24,0.38-1.75s0.62-0.9,1.1-1.18s1.04-0.41,1.68-0.41c0.98,0,1.76,0.3,2.32,0.91
		c0.57,0.61,0.85,1.44,0.85,2.48v0.07c0,1.02-0.28,1.83-0.85,2.44c-0.57,0.6-1.34,0.9-2.31,0.9c-0.93,0-1.68-0.28-2.25-0.84
		s-0.87-1.32-0.92-2.28L226.45,173.28z M228.49,173.41c0,0.61,0.1,1.05,0.29,1.33c0.19,0.28,0.47,0.42,0.84,0.42
		c0.73,0,1.1-0.56,1.12-1.68v-0.21c0-1.18-0.38-1.77-1.13-1.77c-0.68,0-1.05,0.51-1.11,1.52L228.49,173.41z"/>
</g>
<g>
	<path class="st0" d="M237.65,171.91l-0.67-0.05c-0.64,0-1.06,0.2-1.24,0.61v4.16h-2.04v-6.56h1.92l0.07,0.84
		c0.34-0.64,0.82-0.96,1.44-0.96c0.22,0,0.41,0.02,0.57,0.07L237.65,171.91z"/>
</g>
<g>
	<path class="st0" d="M244.1,173.76l1.09-3.7h2.19l-2.68,7.66L244.6,178c-0.38,0.85-1.05,1.27-2.01,1.27
		c-0.27,0-0.55-0.04-0.84-0.12v-1.46H242c0.29,0,0.51-0.04,0.66-0.12c0.15-0.08,0.26-0.23,0.34-0.45l0.16-0.44l-2.28-6.63h2.18
		L244.1,173.76z"/>
</g>
<g>
	<path class="st0" d="M247.57,173.28c0-0.66,0.13-1.24,0.38-1.75c0.25-0.51,0.62-0.9,1.1-1.18s1.04-0.41,1.68-0.41
		c0.98,0,1.76,0.3,2.32,0.91c0.57,0.61,0.85,1.44,0.85,2.48v0.07c0,1.02-0.28,1.83-0.85,2.44c-0.57,0.6-1.34,0.9-2.31,0.9
		c-0.93,0-1.68-0.28-2.25-0.84s-0.87-1.32-0.92-2.28L247.57,173.28z M249.61,173.41c0,0.61,0.1,1.05,0.29,1.33s0.47,0.42,0.84,0.42
		c0.73,0,1.1-0.56,1.12-1.68v-0.21c0-1.18-0.38-1.77-1.13-1.77c-0.68,0-1.05,0.51-1.11,1.52L249.61,173.41z"/>
</g>
<g>
	<path class="st0" d="M258.71,175.91c-0.43,0.55-1.02,0.83-1.75,0.83c-0.72,0-1.26-0.21-1.64-0.63c-0.37-0.42-0.55-1.02-0.55-1.8
		v-4.25h2.04v4.26c0,0.56,0.27,0.84,0.82,0.84c0.47,0,0.8-0.17,1-0.5v-4.6h2.06v6.56h-1.92L258.71,175.91z"/>
</g>
<g>
	<path class="st0" d="M265.78,171.91l-0.67-0.05c-0.64,0-1.06,0.2-1.24,0.61v4.16h-2.04v-6.56h1.92l0.07,0.84
		c0.34-0.64,0.82-0.96,1.44-0.96c0.22,0,0.41,0.02,0.57,0.07L265.78,171.91z"/>
</g>
</svg>
