<?xml version="1.0" encoding="utf-8"?>
<!-- Generator: Adobe Illustrator 25.2.1, SVG Export Plug-In . SVG Version: 6.00 Build 0)  -->
<svg version="1.1" id="Layer_1" xmlns="http://www.w3.org/2000/svg" xmlns:xlink="http://www.w3.org/1999/xlink" x="0px" y="0px"
	 viewBox="0 0 300 250" style="enable-background:new 0 0 300 250;" xml:space="preserve">
<style type="text/css">
	.st0{fill:#021D8B;}
</style>
<g>
	<path class="st0" d="M108.88,212.88c0-0.22-0.08-0.4-0.23-0.55c-0.15-0.15-0.41-0.28-0.77-0.4c-0.5-0.15-0.87-0.35-1.1-0.6
		c-0.23-0.25-0.35-0.56-0.35-0.94c0-0.39,0.11-0.71,0.34-0.95c0.23-0.25,0.54-0.4,0.93-0.44v-0.78h0.53v0.78
		c0.4,0.05,0.71,0.22,0.93,0.5c0.22,0.28,0.33,0.66,0.33,1.15h-0.65c0-0.33-0.08-0.6-0.24-0.8c-0.16-0.2-0.37-0.3-0.64-0.3
		c-0.28,0-0.5,0.07-0.65,0.22s-0.22,0.35-0.22,0.61c0,0.24,0.08,0.43,0.24,0.58c0.16,0.14,0.42,0.27,0.78,0.39s0.64,0.25,0.84,0.39
		c0.2,0.14,0.35,0.31,0.45,0.49c0.1,0.19,0.14,0.41,0.14,0.66c0,0.4-0.12,0.72-0.36,0.97c-0.24,0.24-0.58,0.39-1.01,0.43v0.68h-0.53
		v-0.68c-0.44-0.04-0.79-0.2-1.03-0.47c-0.25-0.27-0.37-0.64-0.37-1.11h0.66c0,0.33,0.09,0.58,0.26,0.76
		c0.17,0.18,0.42,0.27,0.73,0.27c0.31,0,0.55-0.07,0.73-0.22C108.79,213.34,108.88,213.14,108.88,212.88z"/>
	<path class="st0" d="M112.51,214.21h-0.66v-4.38l-1.32,0.49v-0.6l1.88-0.71h0.1V214.21z"/>
	<path class="st0" d="M117.2,209.44v0.93h0.72v0.51h-0.72v2.39c0,0.15,0.03,0.27,0.1,0.35s0.17,0.12,0.33,0.12
		c0.08,0,0.18-0.01,0.31-0.04v0.53c-0.17,0.05-0.34,0.07-0.5,0.07c-0.29,0-0.51-0.09-0.66-0.27c-0.15-0.18-0.22-0.43-0.22-0.76
		v-2.38h-0.7v-0.51h0.7v-0.93H117.2z"/>
	<path class="st0" d="M120.54,210.96c-0.1-0.02-0.21-0.02-0.32-0.02c-0.43,0-0.72,0.18-0.88,0.55v2.73h-0.66v-3.84h0.64l0.01,0.44
		c0.22-0.34,0.52-0.51,0.92-0.51c0.13,0,0.23,0.02,0.29,0.05V210.96z"/>
	<path class="st0" d="M121.14,209.35c0-0.11,0.03-0.2,0.1-0.27s0.16-0.11,0.29-0.11c0.13,0,0.22,0.04,0.29,0.11s0.1,0.16,0.1,0.27
		s-0.03,0.2-0.1,0.27s-0.16,0.11-0.29,0.11c-0.13,0-0.22-0.04-0.29-0.11S121.14,209.46,121.14,209.35z M121.85,214.21h-0.66v-3.84
		h0.66V214.21z"/>
	<path class="st0" d="M125.28,214.21c-0.04-0.08-0.07-0.21-0.09-0.4c-0.31,0.32-0.67,0.48-1.09,0.48c-0.38,0-0.69-0.11-0.93-0.32
		c-0.24-0.21-0.36-0.49-0.36-0.82c0-0.4,0.15-0.71,0.46-0.93c0.3-0.22,0.73-0.33,1.28-0.33h0.64v-0.3c0-0.23-0.07-0.41-0.21-0.55
		c-0.14-0.14-0.34-0.2-0.61-0.2c-0.23,0-0.43,0.06-0.59,0.18c-0.16,0.12-0.24,0.26-0.24,0.43h-0.66c0-0.19,0.07-0.38,0.2-0.56
		c0.14-0.18,0.32-0.32,0.55-0.42c0.23-0.1,0.49-0.16,0.77-0.16c0.44,0,0.79,0.11,1.04,0.33c0.25,0.22,0.38,0.53,0.39,0.91v1.77
		c0,0.35,0.04,0.63,0.13,0.84v0.06H125.28z M124.19,213.71c0.21,0,0.4-0.05,0.59-0.16s0.32-0.25,0.4-0.42v-0.79h-0.51
		c-0.8,0-1.21,0.24-1.21,0.71c0,0.21,0.07,0.37,0.21,0.48C123.8,213.65,123.97,213.71,124.19,213.71z"/>
	<path class="st0" d="M127.57,214.21h-0.66v-5.45h0.66V214.21z"/>
	<path class="st0" d="M130.75,214.21v-3.33h-0.61v-0.51h0.61v-0.39c0-0.41,0.11-0.73,0.33-0.96c0.22-0.22,0.53-0.34,0.93-0.34
		c0.15,0,0.3,0.02,0.45,0.06l-0.04,0.53c-0.11-0.02-0.23-0.03-0.36-0.03c-0.21,0-0.38,0.06-0.49,0.19c-0.12,0.12-0.17,0.3-0.17,0.54
		v0.41h0.82v0.51h-0.82v3.33H130.75z"/>
	<path class="st0" d="M132.78,212.25c0-0.38,0.07-0.71,0.22-1.02s0.35-0.53,0.62-0.7c0.26-0.16,0.56-0.25,0.9-0.25
		c0.52,0,0.95,0.18,1.27,0.54c0.32,0.36,0.48,0.84,0.48,1.45v0.05c0,0.37-0.07,0.71-0.21,1.01c-0.14,0.3-0.35,0.53-0.61,0.69
		c-0.27,0.17-0.57,0.25-0.92,0.25c-0.52,0-0.94-0.18-1.27-0.54c-0.32-0.36-0.48-0.84-0.48-1.44V212.25z M133.44,212.33
		c0,0.43,0.1,0.77,0.3,1.03c0.2,0.26,0.46,0.39,0.79,0.39c0.33,0,0.6-0.13,0.8-0.39c0.2-0.26,0.29-0.63,0.29-1.1
		c0-0.42-0.1-0.76-0.3-1.02c-0.2-0.26-0.47-0.39-0.8-0.39c-0.32,0-0.59,0.13-0.78,0.39S133.44,211.85,133.44,212.33z"/>
	<path class="st0" d="M138.95,210.96c-0.1-0.02-0.21-0.02-0.32-0.02c-0.43,0-0.72,0.18-0.88,0.55v2.73h-0.66v-3.84h0.64l0.01,0.44
		c0.22-0.34,0.52-0.51,0.92-0.51c0.13,0,0.23,0.02,0.29,0.05V210.96z"/>
	<path class="st0" d="M142.25,209.44v0.93h0.72v0.51h-0.72v2.39c0,0.15,0.03,0.27,0.1,0.35s0.17,0.12,0.33,0.12
		c0.08,0,0.18-0.01,0.31-0.04v0.53c-0.17,0.05-0.34,0.07-0.5,0.07c-0.29,0-0.51-0.09-0.66-0.27c-0.15-0.18-0.22-0.43-0.22-0.76
		v-2.38h-0.7v-0.51h0.7v-0.93H142.25z"/>
	<path class="st0" d="M144.39,210.83c0.29-0.36,0.67-0.54,1.14-0.54c0.81,0,1.22,0.46,1.23,1.37v2.54h-0.66v-2.54
		c0-0.28-0.07-0.48-0.19-0.61c-0.12-0.13-0.32-0.2-0.58-0.2c-0.21,0-0.4,0.06-0.56,0.17c-0.16,0.11-0.29,0.26-0.38,0.45v2.74h-0.66
		v-5.45h0.66V210.83z"/>
	<path class="st0" d="M149.33,214.28c-0.52,0-0.94-0.17-1.27-0.51c-0.33-0.34-0.49-0.8-0.49-1.37v-0.12c0-0.38,0.07-0.72,0.22-1.02
		c0.15-0.3,0.35-0.53,0.61-0.7c0.26-0.17,0.54-0.25,0.85-0.25c0.5,0,0.89,0.16,1.16,0.49s0.42,0.8,0.42,1.41v0.27h-2.6
		c0.01,0.38,0.12,0.68,0.33,0.92c0.21,0.23,0.48,0.35,0.81,0.35c0.23,0,0.43-0.05,0.59-0.14s0.3-0.22,0.42-0.38l0.4,0.31
		C150.46,214.03,149.97,214.28,149.33,214.28z M149.25,210.84c-0.27,0-0.49,0.1-0.67,0.29c-0.18,0.19-0.29,0.46-0.33,0.81h1.92
		v-0.05c-0.02-0.33-0.11-0.59-0.27-0.78S149.52,210.84,149.25,210.84z"/>
	<path class="st0" d="M153.71,214.21v-3.33h-0.61v-0.51h0.61v-0.39c0-0.41,0.11-0.73,0.33-0.96s0.53-0.34,0.93-0.34
		c0.15,0,0.3,0.02,0.45,0.06l-0.04,0.53c-0.11-0.02-0.23-0.03-0.36-0.03c-0.21,0-0.38,0.06-0.49,0.19c-0.12,0.12-0.17,0.3-0.17,0.54
		v0.41h0.82v0.51h-0.82v3.33H153.71z"/>
	<path class="st0" d="M155.91,209.35c0-0.11,0.03-0.2,0.1-0.27c0.07-0.07,0.16-0.11,0.29-0.11c0.13,0,0.22,0.04,0.29,0.11
		s0.1,0.16,0.1,0.27s-0.03,0.2-0.1,0.27s-0.16,0.11-0.29,0.11c-0.13,0-0.22-0.04-0.29-0.11
		C155.95,209.55,155.91,209.46,155.91,209.35z M156.62,214.21h-0.66v-3.84h0.66V214.21z"/>
	<path class="st0" d="M159.53,210.96c-0.1-0.02-0.21-0.02-0.32-0.02c-0.43,0-0.72,0.18-0.88,0.55v2.73h-0.66v-3.84h0.64l0.01,0.44
		c0.21-0.34,0.52-0.51,0.92-0.51c0.13,0,0.22,0.02,0.29,0.05V210.96z"/>
	<path class="st0" d="M162.37,213.19c0-0.18-0.07-0.32-0.2-0.41c-0.13-0.1-0.37-0.18-0.7-0.25c-0.33-0.07-0.6-0.16-0.79-0.26
		c-0.2-0.1-0.34-0.22-0.43-0.35s-0.14-0.3-0.14-0.49c0-0.31,0.13-0.58,0.4-0.8c0.27-0.22,0.61-0.33,1.02-0.33
		c0.44,0,0.79,0.11,1.06,0.34c0.27,0.22,0.41,0.51,0.41,0.86h-0.66c0-0.18-0.08-0.33-0.23-0.47c-0.15-0.13-0.34-0.2-0.58-0.2
		c-0.24,0-0.43,0.05-0.56,0.16c-0.13,0.1-0.2,0.24-0.2,0.41c0,0.16,0.06,0.28,0.19,0.36c0.12,0.08,0.35,0.16,0.68,0.23
		s0.59,0.16,0.8,0.26c0.2,0.1,0.35,0.22,0.45,0.37c0.1,0.14,0.15,0.32,0.15,0.52c0,0.34-0.14,0.62-0.41,0.83s-0.63,0.31-1.07,0.31
		c-0.31,0-0.58-0.05-0.82-0.16c-0.24-0.11-0.42-0.26-0.55-0.46c-0.13-0.2-0.2-0.41-0.2-0.63h0.66c0.01,0.22,0.1,0.4,0.26,0.52
		c0.17,0.13,0.38,0.19,0.65,0.19c0.25,0,0.45-0.05,0.6-0.15S162.37,213.36,162.37,213.19z"/>
	<path class="st0" d="M164.78,209.44v0.93h0.72v0.51h-0.72v2.39c0,0.15,0.03,0.27,0.1,0.35c0.06,0.08,0.17,0.12,0.33,0.12
		c0.08,0,0.18-0.01,0.31-0.04v0.53c-0.17,0.05-0.34,0.07-0.5,0.07c-0.29,0-0.51-0.09-0.66-0.27c-0.15-0.18-0.22-0.43-0.22-0.76
		v-2.38h-0.7v-0.51h0.7v-0.93H164.78z"/>
	<path class="st0" d="M170.53,214.21h-1.2v-3.82l-1.18,0.34v-0.91l2.27-0.78h0.11V214.21z"/>
	<path class="st0" d="M175.25,212.19h0.53v0.92h-0.53v1.1h-1.2v-1.1h-2l-0.07-0.73l2.07-3.33v-0.01h1.2V212.19z M173.12,212.19h0.93
		v-1.59l-0.07,0.12L173.12,212.19z"/>
	<path class="st0" d="M177.98,212.26c0-0.61,0.13-1.09,0.39-1.44s0.63-0.53,1.1-0.53c0.34,0,0.63,0.13,0.87,0.4v-1.95h1.2v5.45
		h-1.08l-0.06-0.41c-0.25,0.32-0.56,0.48-0.94,0.48c-0.46,0-0.82-0.18-1.09-0.53C178.11,213.41,177.98,212.91,177.98,212.26z
		 M179.17,212.34c0,0.68,0.2,1.02,0.6,1.02c0.26,0,0.45-0.11,0.57-0.33v-1.46c-0.11-0.23-0.3-0.34-0.56-0.34
		c-0.37,0-0.57,0.3-0.6,0.89L179.17,212.34z"/>
	<path class="st0" d="M184.38,214.21c-0.04-0.08-0.08-0.19-0.11-0.34c-0.22,0.28-0.53,0.42-0.92,0.42c-0.36,0-0.67-0.11-0.92-0.33
		c-0.25-0.22-0.38-0.49-0.38-0.83c0-0.42,0.15-0.73,0.46-0.94s0.75-0.32,1.34-0.32h0.37v-0.2c0-0.35-0.15-0.53-0.46-0.53
		c-0.28,0-0.43,0.14-0.43,0.42h-1.2c0-0.37,0.16-0.67,0.47-0.9c0.32-0.23,0.72-0.35,1.21-0.35s0.88,0.12,1.16,0.36
		s0.43,0.57,0.44,0.98v1.7c0,0.35,0.06,0.62,0.16,0.81v0.06H184.38z M183.63,213.43c0.15,0,0.27-0.03,0.37-0.1
		c0.1-0.06,0.17-0.14,0.21-0.22v-0.61h-0.35c-0.42,0-0.62,0.19-0.62,0.56c0,0.11,0.04,0.2,0.11,0.26S183.52,213.43,183.63,213.43z"
		/>
	<path class="st0" d="M187.61,212.54l0.64-2.17h1.28l-1.57,4.48l-0.07,0.16c-0.22,0.5-0.62,0.75-1.18,0.75
		c-0.16,0-0.32-0.02-0.49-0.07v-0.85h0.16c0.17,0,0.3-0.02,0.39-0.07s0.15-0.14,0.2-0.26l0.1-0.25l-1.33-3.88h1.28L187.61,212.54z"
		/>
	<path class="st0" d="M191.86,213.13c0-0.1-0.05-0.18-0.16-0.25s-0.31-0.12-0.61-0.19s-0.54-0.15-0.74-0.26
		c-0.19-0.11-0.34-0.24-0.44-0.39c-0.1-0.15-0.15-0.33-0.15-0.53c0-0.35,0.15-0.64,0.44-0.87s0.67-0.34,1.14-0.34
		c0.51,0,0.91,0.11,1.22,0.34c0.31,0.23,0.46,0.53,0.46,0.91h-1.2c0-0.31-0.16-0.46-0.49-0.46c-0.12,0-0.23,0.04-0.32,0.1
		c-0.09,0.07-0.13,0.16-0.13,0.26c0,0.11,0.05,0.19,0.16,0.26c0.1,0.07,0.27,0.12,0.5,0.16c0.23,0.04,0.43,0.09,0.6,0.15
		c0.58,0.2,0.87,0.56,0.87,1.07c0,0.35-0.16,0.63-0.47,0.86c-0.31,0.22-0.71,0.33-1.21,0.33c-0.33,0-0.62-0.06-0.88-0.18
		s-0.46-0.28-0.6-0.48c-0.14-0.2-0.22-0.42-0.22-0.64h1.12c0,0.18,0.06,0.31,0.18,0.39c0.11,0.08,0.26,0.12,0.44,0.12
		c0.16,0,0.29-0.03,0.37-0.1C191.81,213.32,191.86,213.24,191.86,213.13z"/>
	<path class="st0" d="M193.71,215.24l-0.37-0.25c0.22-0.31,0.34-0.63,0.35-0.96v-0.59h0.64v0.51c0,0.24-0.06,0.48-0.18,0.72
		C194.03,214.9,193.89,215.1,193.71,215.24z"/>
	<path class="st0" d="M114.64,223.67v2.02h-0.68v-5.17h1.91c0.57,0,1.01,0.14,1.33,0.43c0.32,0.29,0.48,0.67,0.48,1.15
		c0,0.5-0.16,0.89-0.47,1.16c-0.31,0.27-0.76,0.41-1.35,0.41H114.64z M114.64,223.11h1.22c0.36,0,0.64-0.09,0.84-0.26
		c0.19-0.17,0.29-0.42,0.29-0.75c0-0.31-0.1-0.55-0.29-0.74c-0.19-0.19-0.46-0.28-0.8-0.29h-1.26V223.11z"/>
	<path class="st0" d="M119.16,225.69h-0.66v-5.45h0.66V225.69z"/>
	<path class="st0" d="M122.58,225.69c-0.04-0.08-0.07-0.21-0.09-0.4c-0.31,0.32-0.67,0.48-1.09,0.48c-0.38,0-0.69-0.11-0.93-0.32
		c-0.24-0.21-0.36-0.49-0.36-0.82c0-0.4,0.15-0.71,0.46-0.93c0.3-0.22,0.73-0.33,1.28-0.33h0.64v-0.3c0-0.23-0.07-0.41-0.21-0.55
		c-0.14-0.14-0.34-0.2-0.61-0.2c-0.23,0-0.43,0.06-0.59,0.18c-0.16,0.12-0.24,0.26-0.24,0.43h-0.66c0-0.19,0.07-0.38,0.2-0.56
		c0.14-0.18,0.32-0.32,0.55-0.42c0.23-0.1,0.49-0.16,0.77-0.16c0.44,0,0.79,0.11,1.04,0.33c0.25,0.22,0.38,0.53,0.39,0.91v1.77
		c0,0.35,0.04,0.63,0.13,0.84v0.06H122.58z M121.49,225.19c0.21,0,0.4-0.05,0.59-0.16s0.32-0.25,0.4-0.42v-0.79h-0.51
		c-0.8,0-1.21,0.24-1.21,0.71c0,0.21,0.07,0.37,0.21,0.48C121.1,225.13,121.28,225.19,121.49,225.19z"/>
	<path class="st0" d="M124.79,221.85l0.02,0.48c0.29-0.37,0.68-0.55,1.15-0.55c0.81,0,1.22,0.46,1.23,1.37v2.54h-0.66v-2.54
		c0-0.28-0.07-0.48-0.19-0.61c-0.12-0.13-0.32-0.2-0.58-0.2c-0.21,0-0.4,0.06-0.56,0.17c-0.16,0.11-0.29,0.26-0.38,0.45v2.74h-0.66
		v-3.84H124.79z"/>
	<path class="st0" d="M130.41,224.67c0-0.18-0.07-0.32-0.2-0.41c-0.13-0.1-0.37-0.18-0.7-0.25c-0.33-0.07-0.6-0.16-0.79-0.26
		c-0.2-0.1-0.34-0.22-0.43-0.35c-0.09-0.14-0.14-0.3-0.14-0.49c0-0.31,0.13-0.58,0.4-0.8c0.27-0.22,0.61-0.33,1.02-0.33
		c0.44,0,0.79,0.11,1.06,0.34s0.41,0.51,0.41,0.86h-0.66c0-0.18-0.08-0.33-0.23-0.47c-0.15-0.13-0.34-0.2-0.58-0.2
		c-0.24,0-0.43,0.05-0.56,0.16c-0.13,0.1-0.2,0.24-0.2,0.41c0,0.16,0.06,0.28,0.19,0.36c0.13,0.08,0.35,0.16,0.68,0.23
		c0.33,0.07,0.59,0.16,0.8,0.26s0.35,0.22,0.45,0.37c0.1,0.14,0.15,0.32,0.15,0.52c0,0.34-0.14,0.62-0.41,0.83s-0.63,0.31-1.07,0.31
		c-0.31,0-0.58-0.05-0.82-0.16c-0.24-0.11-0.42-0.26-0.56-0.46c-0.13-0.2-0.2-0.41-0.2-0.63h0.66c0.01,0.22,0.1,0.4,0.26,0.52
		s0.38,0.19,0.65,0.19c0.25,0,0.45-0.05,0.6-0.15C130.34,224.97,130.41,224.84,130.41,224.67z"/>
	<path class="st0" d="M135.96,224.67c0-0.18-0.07-0.32-0.2-0.41c-0.13-0.1-0.37-0.18-0.7-0.25c-0.33-0.07-0.6-0.16-0.79-0.26
		c-0.2-0.1-0.34-0.22-0.43-0.35c-0.09-0.14-0.14-0.3-0.14-0.49c0-0.31,0.13-0.58,0.4-0.8c0.27-0.22,0.61-0.33,1.02-0.33
		c0.44,0,0.79,0.11,1.06,0.34s0.41,0.51,0.41,0.86h-0.66c0-0.18-0.08-0.33-0.23-0.47c-0.15-0.13-0.34-0.2-0.58-0.2
		c-0.24,0-0.43,0.05-0.56,0.16c-0.13,0.1-0.2,0.24-0.2,0.41c0,0.16,0.06,0.28,0.19,0.36c0.13,0.08,0.35,0.16,0.68,0.23
		c0.33,0.07,0.59,0.16,0.8,0.26s0.35,0.22,0.45,0.37c0.1,0.14,0.15,0.32,0.15,0.52c0,0.34-0.14,0.62-0.41,0.83s-0.63,0.31-1.07,0.31
		c-0.31,0-0.58-0.05-0.82-0.16c-0.24-0.11-0.42-0.26-0.56-0.46c-0.13-0.2-0.2-0.41-0.2-0.63h0.66c0.01,0.22,0.1,0.4,0.26,0.52
		s0.38,0.19,0.65,0.19c0.25,0,0.45-0.05,0.6-0.15C135.89,224.97,135.96,224.84,135.96,224.67z"/>
	<path class="st0" d="M138.36,220.92v0.93h0.72v0.51h-0.72v2.39c0,0.15,0.03,0.27,0.1,0.35s0.17,0.12,0.33,0.12
		c0.08,0,0.18-0.01,0.31-0.04v0.53c-0.17,0.05-0.34,0.07-0.5,0.07c-0.29,0-0.51-0.09-0.66-0.27c-0.15-0.18-0.22-0.43-0.22-0.76
		v-2.38h-0.7v-0.51h0.7v-0.93H138.36z"/>
	<path class="st0" d="M142.22,225.69c-0.04-0.08-0.07-0.21-0.09-0.4c-0.31,0.32-0.67,0.48-1.09,0.48c-0.38,0-0.69-0.11-0.93-0.32
		c-0.24-0.21-0.36-0.49-0.36-0.82c0-0.4,0.15-0.71,0.46-0.93c0.3-0.22,0.73-0.33,1.28-0.33h0.64v-0.3c0-0.23-0.07-0.41-0.21-0.55
		c-0.14-0.14-0.34-0.2-0.61-0.2c-0.23,0-0.43,0.06-0.59,0.18c-0.16,0.12-0.24,0.26-0.24,0.43h-0.66c0-0.19,0.07-0.38,0.2-0.56
		c0.14-0.18,0.32-0.32,0.55-0.42c0.23-0.1,0.49-0.16,0.77-0.16c0.44,0,0.79,0.11,1.04,0.33c0.25,0.22,0.38,0.53,0.39,0.91v1.77
		c0,0.35,0.04,0.63,0.13,0.84v0.06H142.22z M141.13,225.19c0.21,0,0.4-0.05,0.59-0.16s0.32-0.25,0.4-0.42v-0.79h-0.51
		c-0.8,0-1.21,0.24-1.21,0.71c0,0.21,0.07,0.37,0.21,0.48C140.74,225.13,140.91,225.19,141.13,225.19z"/>
	<path class="st0" d="M145.66,222.44c-0.1-0.02-0.21-0.02-0.32-0.02c-0.43,0-0.72,0.18-0.88,0.55v2.73h-0.66v-3.84h0.64l0.01,0.44
		c0.22-0.34,0.52-0.51,0.92-0.51c0.13,0,0.23,0.02,0.29,0.05V222.44z"/>
	<path class="st0" d="M147.33,220.92v0.93h0.72v0.51h-0.72v2.39c0,0.15,0.03,0.27,0.1,0.35s0.17,0.12,0.33,0.12
		c0.08,0,0.18-0.01,0.31-0.04v0.53c-0.17,0.05-0.34,0.07-0.5,0.07c-0.29,0-0.51-0.09-0.66-0.27c-0.15-0.18-0.22-0.43-0.22-0.76
		v-2.38h-0.7v-0.51h0.7v-0.93H147.33z"/>
	<path class="st0" d="M148.82,220.83c0-0.11,0.03-0.2,0.1-0.27s0.16-0.11,0.29-0.11c0.13,0,0.22,0.04,0.29,0.11s0.1,0.16,0.1,0.27
		s-0.03,0.2-0.1,0.27s-0.16,0.11-0.29,0.11c-0.13,0-0.22-0.04-0.29-0.11S148.82,220.93,148.82,220.83z M149.53,225.69h-0.66v-3.84
		h0.66V225.69z"/>
	<path class="st0" d="M151.2,221.85l0.02,0.48c0.29-0.37,0.68-0.55,1.15-0.55c0.81,0,1.22,0.46,1.23,1.37v2.54h-0.66v-2.54
		c0-0.28-0.07-0.48-0.19-0.61c-0.12-0.13-0.32-0.2-0.58-0.2c-0.21,0-0.4,0.06-0.56,0.17c-0.16,0.11-0.29,0.26-0.38,0.45v2.74h-0.66
		v-3.84H151.2z"/>
	<path class="st0" d="M154.44,223.74c0-0.6,0.14-1.08,0.42-1.43c0.28-0.35,0.64-0.53,1.1-0.53c0.47,0,0.83,0.17,1.1,0.5l0.03-0.43
		h0.6v3.75c0,0.5-0.15,0.89-0.44,1.18c-0.29,0.29-0.69,0.43-1.19,0.43c-0.28,0-0.55-0.06-0.81-0.18c-0.27-0.12-0.47-0.28-0.61-0.49
		l0.34-0.39c0.28,0.35,0.63,0.52,1.03,0.52c0.32,0,0.57-0.09,0.75-0.27c0.18-0.18,0.27-0.43,0.27-0.76v-0.33
		c-0.26,0.3-0.62,0.46-1.08,0.46c-0.45,0-0.81-0.18-1.09-0.54C154.58,224.85,154.44,224.36,154.44,223.74z M155.1,223.81
		c0,0.43,0.09,0.77,0.27,1.02s0.43,0.37,0.75,0.37c0.42,0,0.72-0.19,0.91-0.56v-1.75c-0.2-0.37-0.5-0.55-0.91-0.55
		c-0.32,0-0.57,0.12-0.75,0.37C155.19,222.96,155.1,223.32,155.1,223.81z"/>
	<path class="st0" d="M162.84,225.69c-0.04-0.08-0.07-0.21-0.09-0.4c-0.31,0.32-0.67,0.48-1.09,0.48c-0.38,0-0.69-0.11-0.93-0.32
		c-0.24-0.21-0.36-0.49-0.36-0.82c0-0.4,0.15-0.71,0.46-0.93c0.3-0.22,0.73-0.33,1.28-0.33h0.64v-0.3c0-0.23-0.07-0.41-0.21-0.55
		c-0.14-0.14-0.34-0.2-0.61-0.2c-0.23,0-0.43,0.06-0.59,0.18c-0.16,0.12-0.24,0.26-0.24,0.43h-0.66c0-0.19,0.07-0.38,0.2-0.56
		s0.32-0.32,0.55-0.42c0.23-0.1,0.49-0.16,0.77-0.16c0.44,0,0.79,0.11,1.04,0.33c0.25,0.22,0.38,0.53,0.39,0.91v1.77
		c0,0.35,0.04,0.63,0.13,0.84v0.06H162.84z M161.75,225.19c0.21,0,0.4-0.05,0.59-0.16s0.32-0.25,0.4-0.42v-0.79h-0.51
		c-0.8,0-1.21,0.24-1.21,0.71c0,0.21,0.07,0.37,0.21,0.48C161.36,225.13,161.54,225.19,161.75,225.19z"/>
	<path class="st0" d="M165.32,220.92v0.93h0.72v0.51h-0.72v2.39c0,0.15,0.03,0.27,0.1,0.35c0.06,0.08,0.17,0.12,0.33,0.12
		c0.08,0,0.18-0.01,0.31-0.04v0.53c-0.17,0.05-0.34,0.07-0.5,0.07c-0.29,0-0.51-0.09-0.66-0.27s-0.22-0.43-0.22-0.76v-2.38h-0.7
		v-0.51h0.7v-0.93H165.32z"/>
	<path class="st0" d="M170.8,224.32c0-0.19-0.05-0.33-0.14-0.44c-0.09-0.11-0.25-0.21-0.49-0.3c-0.23-0.09-0.45-0.19-0.64-0.29
		c-0.2-0.1-0.37-0.21-0.51-0.34c-0.14-0.13-0.25-0.28-0.33-0.44s-0.11-0.37-0.11-0.61c0-0.4,0.13-0.73,0.4-0.99s0.63-0.41,1.08-0.45
		v-0.75h0.56v0.76c0.43,0.06,0.77,0.24,1.02,0.53c0.25,0.29,0.37,0.66,0.37,1.11h-1.2c0-0.25-0.05-0.44-0.14-0.57
		c-0.09-0.13-0.23-0.2-0.4-0.2c-0.16,0-0.28,0.05-0.36,0.15c-0.09,0.1-0.13,0.23-0.13,0.41c0,0.17,0.05,0.31,0.15,0.42
		c0.1,0.1,0.26,0.2,0.48,0.29c0.22,0.09,0.43,0.19,0.62,0.29s0.36,0.21,0.51,0.34c0.14,0.13,0.25,0.28,0.33,0.45
		c0.08,0.17,0.12,0.38,0.12,0.61c0,0.41-0.13,0.74-0.38,0.99c-0.26,0.25-0.61,0.4-1.05,0.45v0.71H170v-0.72
		c-0.52-0.05-0.91-0.23-1.19-0.53c-0.28-0.3-0.41-0.69-0.41-1.18h1.2c0,0.27,0.06,0.48,0.18,0.62c0.12,0.14,0.29,0.21,0.51,0.21
		c0.16,0,0.29-0.05,0.38-0.14C170.76,224.62,170.8,224.49,170.8,224.32z"/>
	<path class="st0" d="M174.99,223.69c-0.26,0.23-0.55,0.35-0.87,0.35c-0.47,0-0.84-0.16-1.11-0.48c-0.28-0.32-0.41-0.74-0.41-1.27
		c0-0.33,0.08-0.64,0.23-0.92c0.15-0.28,0.37-0.51,0.65-0.67c0.28-0.17,0.58-0.25,0.92-0.25c0.34,0,0.65,0.08,0.92,0.26
		s0.49,0.41,0.64,0.73c0.15,0.31,0.23,0.68,0.24,1.08v0.46c0,0.57-0.11,1.07-0.33,1.48s-0.54,0.74-0.96,0.96
		c-0.41,0.23-0.9,0.34-1.45,0.34h-0.07v-0.96l0.23,0C174.44,224.76,174.9,224.39,174.99,223.69z M174.44,223.17
		c0.26,0,0.45-0.11,0.56-0.34v-0.5c0-0.33-0.06-0.58-0.17-0.74c-0.11-0.16-0.26-0.24-0.45-0.24c-0.17,0-0.31,0.09-0.42,0.27
		c-0.11,0.18-0.17,0.4-0.17,0.65c0,0.27,0.06,0.48,0.17,0.64C174.08,223.09,174.24,223.17,174.44,223.17z"/>
	<path class="st0" d="M177.6,224.53c0.19,0,0.35,0.06,0.47,0.17c0.13,0.11,0.19,0.26,0.19,0.43c0,0.17-0.06,0.32-0.19,0.43
		c-0.12,0.11-0.28,0.17-0.47,0.17c-0.19,0-0.35-0.06-0.47-0.17c-0.12-0.11-0.19-0.26-0.19-0.43s0.06-0.32,0.19-0.43
		C177.25,224.58,177.41,224.53,177.6,224.53z"/>
	<path class="st0" d="M181.4,223.69c-0.26,0.23-0.55,0.35-0.87,0.35c-0.47,0-0.84-0.16-1.11-0.48c-0.28-0.32-0.41-0.74-0.41-1.27
		c0-0.33,0.08-0.64,0.23-0.92c0.15-0.28,0.37-0.51,0.65-0.67c0.28-0.17,0.58-0.25,0.92-0.25c0.34,0,0.65,0.08,0.92,0.26
		s0.49,0.41,0.64,0.73c0.15,0.31,0.23,0.68,0.24,1.08v0.46c0,0.57-0.11,1.07-0.33,1.48s-0.54,0.74-0.96,0.96
		c-0.41,0.23-0.9,0.34-1.45,0.34h-0.07v-0.96l0.23,0C180.85,224.76,181.3,224.39,181.4,223.69z M180.85,223.17
		c0.26,0,0.45-0.11,0.56-0.34v-0.5c0-0.33-0.06-0.58-0.17-0.74c-0.11-0.16-0.26-0.24-0.45-0.24c-0.17,0-0.31,0.09-0.42,0.27
		c-0.11,0.18-0.17,0.4-0.17,0.65c0,0.27,0.06,0.48,0.17,0.64C180.49,223.09,180.65,223.17,180.85,223.17z"/>
	<path class="st0" d="M185.61,223.69c-0.26,0.23-0.55,0.35-0.87,0.35c-0.47,0-0.84-0.16-1.12-0.48c-0.27-0.32-0.41-0.74-0.41-1.27
		c0-0.33,0.08-0.64,0.23-0.92c0.15-0.28,0.37-0.51,0.65-0.67s0.58-0.25,0.92-0.25c0.34,0,0.65,0.08,0.92,0.26
		c0.28,0.17,0.49,0.41,0.64,0.73c0.15,0.31,0.23,0.68,0.24,1.08v0.46c0,0.57-0.11,1.07-0.34,1.48s-0.54,0.74-0.96,0.96
		c-0.41,0.23-0.9,0.34-1.45,0.34H184v-0.96l0.23,0C185.06,224.76,185.51,224.39,185.61,223.69z M185.06,223.17
		c0.26,0,0.45-0.11,0.56-0.34v-0.5c0-0.33-0.06-0.58-0.17-0.74c-0.11-0.16-0.26-0.24-0.45-0.24c-0.17,0-0.31,0.09-0.42,0.27
		c-0.11,0.18-0.17,0.4-0.17,0.65c0,0.27,0.06,0.48,0.17,0.64C184.7,223.09,184.86,223.17,185.06,223.17z"/>
	<path class="st0" d="M124.08,232.4v0.93h0.72v0.51h-0.72v2.38c0,0.15,0.03,0.27,0.1,0.35c0.06,0.08,0.17,0.12,0.33,0.12
		c0.08,0,0.18-0.01,0.31-0.04v0.53c-0.17,0.05-0.34,0.07-0.5,0.07c-0.29,0-0.51-0.09-0.66-0.27c-0.15-0.18-0.22-0.43-0.22-0.76
		v-2.38h-0.7v-0.51h0.7v-0.93H124.08z"/>
	<path class="st0" d="M125.32,235.21c0-0.38,0.07-0.71,0.22-1.01s0.35-0.53,0.62-0.7c0.26-0.16,0.56-0.24,0.9-0.24
		c0.52,0,0.95,0.18,1.27,0.54c0.32,0.36,0.48,0.84,0.48,1.44v0.05c0,0.37-0.07,0.71-0.21,1.01s-0.35,0.53-0.61,0.69
		c-0.27,0.17-0.57,0.25-0.92,0.25c-0.52,0-0.94-0.18-1.27-0.54c-0.32-0.36-0.48-0.84-0.48-1.44V235.21z M125.98,235.29
		c0,0.43,0.1,0.77,0.3,1.03c0.2,0.26,0.46,0.39,0.79,0.39c0.33,0,0.6-0.13,0.8-0.39c0.2-0.26,0.29-0.63,0.29-1.1
		c0-0.42-0.1-0.76-0.3-1.02c-0.2-0.26-0.47-0.39-0.8-0.39c-0.32,0-0.59,0.13-0.78,0.39S125.98,234.81,125.98,235.29z"/>
	<path class="st0" d="M133.75,235.81c0-0.19-0.05-0.35-0.16-0.46c-0.11-0.12-0.29-0.22-0.55-0.32c-0.26-0.1-0.48-0.19-0.67-0.29
		s-0.35-0.21-0.48-0.33s-0.24-0.27-0.31-0.44c-0.07-0.17-0.11-0.37-0.11-0.6c0-0.4,0.13-0.73,0.38-0.98
		c0.26-0.26,0.59-0.4,1.02-0.45v-0.76h0.57v0.77c0.42,0.06,0.75,0.23,0.98,0.52c0.24,0.29,0.35,0.67,0.35,1.13h-1.03
		c0-0.28-0.06-0.5-0.18-0.64s-0.27-0.21-0.47-0.21c-0.19,0-0.34,0.06-0.45,0.17c-0.11,0.11-0.16,0.26-0.16,0.46
		c0,0.18,0.05,0.32,0.16,0.43s0.3,0.22,0.58,0.33c0.28,0.11,0.52,0.22,0.7,0.32s0.34,0.21,0.46,0.34c0.13,0.13,0.22,0.27,0.29,0.43
		s0.1,0.35,0.1,0.57c0,0.4-0.13,0.73-0.38,0.98s-0.6,0.4-1.04,0.44v0.71h-0.56v-0.7c-0.49-0.05-0.86-0.22-1.13-0.52
		c-0.27-0.29-0.4-0.68-0.4-1.17h1.03c0,0.28,0.07,0.5,0.2,0.65s0.33,0.23,0.58,0.23c0.21,0,0.37-0.05,0.49-0.17
		S133.75,235.99,133.75,235.81z"/>
	<path class="st0" d="M139.01,237.17h-3.54v-0.7l1.67-1.78c0.23-0.25,0.4-0.47,0.51-0.66c0.11-0.19,0.17-0.36,0.17-0.53
		c0-0.23-0.06-0.41-0.17-0.54c-0.12-0.13-0.28-0.2-0.5-0.2c-0.23,0-0.42,0.08-0.55,0.24c-0.13,0.16-0.2,0.37-0.2,0.63h-1.03
		c0-0.32,0.08-0.6,0.23-0.86c0.15-0.26,0.36-0.46,0.64-0.61c0.27-0.15,0.59-0.22,0.93-0.22c0.53,0,0.95,0.13,1.24,0.38
		c0.29,0.25,0.44,0.62,0.44,1.08c0,0.26-0.07,0.52-0.2,0.78c-0.13,0.26-0.36,0.57-0.68,0.93l-1.17,1.24h2.22V237.17z"/>
	<path class="st0" d="M142.67,235.22h0.59v0.83h-0.59v1.12h-1.03v-1.12h-2.12l-0.05-0.65l2.15-3.4h1.04V235.22z M140.5,235.22h1.14
		v-1.82l-0.07,0.12L140.5,235.22z"/>
	<path class="st0" d="M143.9,236.66c0-0.16,0.06-0.3,0.17-0.4s0.25-0.15,0.41-0.15c0.17,0,0.31,0.05,0.42,0.15s0.17,0.23,0.17,0.4
		c0,0.16-0.05,0.29-0.16,0.39c-0.11,0.1-0.25,0.15-0.42,0.15c-0.17,0-0.31-0.05-0.42-0.15S143.9,236.82,143.9,236.66z"/>
	<path class="st0" d="M148.32,235.1c-0.27,0.26-0.58,0.39-0.94,0.39c-0.46,0-0.82-0.16-1.1-0.47c-0.27-0.31-0.41-0.74-0.41-1.27
		c0-0.34,0.07-0.65,0.22-0.93c0.15-0.28,0.35-0.5,0.62-0.66s0.56-0.24,0.89-0.24c0.34,0,0.64,0.08,0.91,0.26
		c0.27,0.17,0.47,0.42,0.62,0.73c0.15,0.32,0.22,0.69,0.22,1.1v0.38c0,0.86-0.21,1.54-0.64,2.03s-1.04,0.75-1.82,0.79l-0.25,0v-0.86
		l0.23,0C147.76,236.32,148.24,235.9,148.32,235.1z M147.63,234.71c0.17,0,0.31-0.04,0.43-0.13c0.12-0.08,0.21-0.19,0.27-0.31v-0.42
		c0-0.35-0.07-0.62-0.2-0.81c-0.13-0.19-0.31-0.29-0.53-0.29c-0.21,0-0.38,0.09-0.51,0.28c-0.13,0.19-0.2,0.42-0.2,0.71
		c0,0.28,0.06,0.51,0.19,0.69C147.22,234.62,147.4,234.71,147.63,234.71z"/>
	<path class="st0" d="M152.49,235.1c-0.27,0.26-0.58,0.39-0.94,0.39c-0.46,0-0.82-0.16-1.1-0.47c-0.27-0.31-0.41-0.74-0.41-1.27
		c0-0.34,0.07-0.65,0.22-0.93c0.15-0.28,0.35-0.5,0.62-0.66s0.56-0.24,0.89-0.24c0.34,0,0.64,0.08,0.91,0.26
		c0.26,0.17,0.47,0.42,0.62,0.73s0.22,0.69,0.22,1.1v0.38c0,0.86-0.21,1.54-0.64,2.03c-0.43,0.49-1.04,0.75-1.82,0.79l-0.25,0v-0.86
		l0.23,0C151.93,236.32,152.42,235.9,152.49,235.1z M151.8,234.71c0.17,0,0.31-0.04,0.43-0.13c0.12-0.08,0.21-0.19,0.27-0.31v-0.42
		c0-0.35-0.07-0.62-0.2-0.81c-0.13-0.19-0.31-0.29-0.53-0.29c-0.21,0-0.38,0.09-0.51,0.28s-0.2,0.42-0.2,0.71
		c0,0.28,0.06,0.51,0.19,0.69C151.39,234.62,151.57,234.71,151.8,234.71z"/>
	<path class="st0" d="M154.54,237.61h-0.56l2.16-5.61h0.56L154.54,237.61z"/>
	<path class="st0" d="M158.02,233.33l0.02,0.43c0.28-0.33,0.66-0.5,1.14-0.5c0.54,0,0.9,0.21,1.1,0.62c0.13-0.18,0.29-0.33,0.5-0.45
		c0.2-0.11,0.45-0.17,0.73-0.17c0.84,0,1.27,0.45,1.29,1.34v2.57h-0.66v-2.53c0-0.27-0.06-0.48-0.19-0.62
		c-0.13-0.14-0.34-0.2-0.63-0.2c-0.24,0-0.45,0.07-0.61,0.22s-0.25,0.34-0.28,0.59v2.55h-0.66v-2.52c0-0.56-0.27-0.84-0.82-0.84
		c-0.43,0-0.72,0.18-0.88,0.55v2.8h-0.66v-3.84H158.02z"/>
	<path class="st0" d="M163.6,235.21c0-0.38,0.07-0.71,0.22-1.01c0.15-0.3,0.35-0.53,0.62-0.7c0.26-0.16,0.56-0.24,0.9-0.24
		c0.52,0,0.95,0.18,1.27,0.54c0.32,0.36,0.48,0.84,0.48,1.44v0.05c0,0.37-0.07,0.71-0.21,1.01c-0.14,0.3-0.35,0.53-0.61,0.69
		c-0.27,0.17-0.57,0.25-0.92,0.25c-0.52,0-0.94-0.18-1.27-0.54c-0.32-0.36-0.48-0.84-0.48-1.44V235.21z M164.26,235.29
		c0,0.43,0.1,0.77,0.3,1.03c0.2,0.26,0.46,0.39,0.79,0.39c0.33,0,0.6-0.13,0.79-0.39c0.2-0.26,0.29-0.63,0.29-1.1
		c0-0.42-0.1-0.76-0.3-1.02c-0.2-0.26-0.47-0.39-0.8-0.39c-0.32,0-0.59,0.13-0.79,0.39C164.36,234.44,164.26,234.81,164.26,235.29z"
		/>
	<path class="st0" d="M168.54,233.33l0.02,0.48c0.29-0.37,0.68-0.55,1.15-0.55c0.81,0,1.22,0.46,1.23,1.37v2.54h-0.66v-2.54
		c0-0.28-0.07-0.48-0.19-0.61c-0.12-0.13-0.32-0.2-0.58-0.2c-0.21,0-0.4,0.06-0.56,0.17c-0.16,0.11-0.29,0.26-0.38,0.45v2.74h-0.66
		v-3.84H168.54z"/>
	<path class="st0" d="M172.82,232.4v0.93h0.72v0.51h-0.72v2.38c0,0.15,0.03,0.27,0.1,0.35s0.17,0.12,0.33,0.12
		c0.08,0,0.18-0.01,0.31-0.04v0.53c-0.17,0.05-0.34,0.07-0.5,0.07c-0.29,0-0.51-0.09-0.66-0.27c-0.15-0.18-0.22-0.43-0.22-0.76
		v-2.38h-0.7v-0.51h0.7v-0.93H172.82z"/>
	<path class="st0" d="M174.96,233.79c0.29-0.36,0.67-0.54,1.14-0.54c0.81,0,1.22,0.46,1.23,1.37v2.54h-0.66v-2.54
		c0-0.28-0.07-0.48-0.19-0.61c-0.12-0.13-0.32-0.2-0.58-0.2c-0.21,0-0.4,0.06-0.56,0.17c-0.16,0.11-0.29,0.26-0.38,0.45v2.74h-0.66
		v-5.45h0.66V233.79z"/>
</g>
</svg>
