<svg id="Layer_1" xmlns="http://www.w3.org/2000/svg" viewBox="0 0 320 100"><style>.st0{fill:url(#SVGID_1_)}</style><linearGradient id="SVGID_1_" gradientUnits="userSpaceOnUse" x1="16.657" y1="71.524" x2="234.7" y2="71.524"><stop offset="0" stop-color="#18b9fb"/><stop offset=".5" stop-color="#782eeb"/><stop offset="1" stop-color="#e82d8a"/></linearGradient><path class="st0" d="M21.04 62.78h-1.39v3.77h-2.57V55.88h4.2c1.26 0 2.25.28 2.97.84.71.56 1.07 1.35 1.07 2.38 0 .74-.15 1.36-.45 1.84-.3.49-.77.88-1.41 1.19l2.23 4.31v.11h-2.75l-1.9-3.77zm-1.39-1.98h1.62c.49 0 .86-.13 1.1-.38.25-.26.37-.62.37-1.08s-.12-.82-.37-1.08c-.25-.26-.62-.39-1.1-.39h-1.62v2.93zm10.94 5.89c-1.22 0-2.2-.36-2.95-1.09-.75-.72-1.13-1.67-1.13-2.83v-.21c0-.81.15-1.53.45-2.15.3-.62.74-1.1 1.31-1.44.58-.34 1.26-.51 2.05-.51 1.11 0 1.99.35 2.64 1.04.64.69.97 1.65.97 2.89v.96h-4.91c.09.44.28.79.58 1.05s.68.38 1.16.38c.78 0 1.39-.27 1.83-.82l1.13 1.33c-.31.42-.74.76-1.31 1.01-.57.27-1.17.39-1.82.39zm-.28-6.31c-.72 0-1.15.48-1.29 1.44h2.49v-.19c.01-.4-.09-.7-.3-.92-.21-.22-.51-.33-.9-.33zm7.68 3.23l1.25-4.99h2.6l-2.59 7.92h-2.52l-2.58-7.92h2.61l1.23 4.99zm4.57-7.03c0-.35.13-.64.38-.86s.58-.34.99-.34.74.11.99.34.38.51.38.86-.13.64-.38.87-.58.34-.99.34-.73-.11-.99-.34-.38-.52-.38-.87zm2.62 9.97H42.7v-7.92h2.48v7.92zm5.35.14c-1.22 0-2.2-.36-2.95-1.09-.75-.72-1.13-1.67-1.13-2.83v-.21c0-.81.15-1.53.45-2.15.3-.62.74-1.1 1.31-1.44.58-.34 1.26-.51 2.05-.51 1.11 0 1.99.35 2.64 1.04.64.69.97 1.65.97 2.89v.96h-4.91c.09.44.28.79.58 1.05s.68.38 1.16.38c.78 0 1.39-.27 1.83-.82l1.13 1.33c-.31.42-.74.76-1.31 1.01-.56.27-1.17.39-1.82.39zm-.28-6.31c-.72 0-1.15.48-1.29 1.44h2.49v-.19c.01-.4-.09-.7-.3-.92-.21-.22-.51-.33-.9-.33zm11.46 2.92l.8-4.67h2.37l-1.87 7.92h-2.09l-1.31-4.7-1.32 4.7H56.2l-1.87-7.92h2.37l.78 4.78 1.26-4.78h1.72l1.25 4.67zm10.95-.21l1.32-4.47h2.64l-3.23 9.25-.14.34c-.46 1.03-1.27 1.54-2.43 1.54-.32 0-.66-.05-1.02-.15v-1.76h.32c.35 0 .61-.05.79-.15.18-.1.32-.28.41-.54l.2-.53-2.75-8h2.64l1.25 4.47zm4.18-.58c0-.79.15-1.5.46-2.11.31-.62.75-1.09 1.33-1.42s1.25-.5 2.03-.5c1.19 0 2.12.37 2.8 1.1.68.73 1.03 1.73 1.03 3v.09c0 1.24-.34 2.22-1.03 2.94-.69.73-1.62 1.09-2.79 1.09-1.13 0-2.03-.34-2.72-1.01-.68-.68-1.05-1.59-1.11-2.75v-.43zm2.47.16c0 .73.11 1.27.34 1.61.23.34.57.51 1.02.51.88 0 1.33-.68 1.35-2.03v-.25c0-1.42-.45-2.13-1.36-2.13-.83 0-1.27.61-1.34 1.84l-.01.45zm10.98 3.02c-.52.67-1.23 1-2.12 1-.87 0-1.53-.25-1.97-.76-.45-.51-.67-1.23-.67-2.18v-5.13H88v5.15c0 .68.33 1.02.99 1.02.57 0 .97-.2 1.21-.61v-5.56h2.48v7.92h-2.31l-.08-.85zm8.54-4.83l-.81-.06c-.78 0-1.27.25-1.49.73v5.02h-2.47v-7.92h2.31l.08 1.02c.42-.78.99-1.17 1.74-1.17.26 0 .49.03.69.09l-.05 2.29zm7.5-4.21v1.97h1.3v1.71h-1.3v3.62c0 .3.05.51.16.62.11.12.32.18.64.18.24 0 .45-.01.62-.04v1.76c-.44.14-.91.21-1.39.21-.85 0-1.48-.2-1.88-.6-.41-.4-.61-1.01-.61-1.82v-3.93h-1.01v-1.71h1.01v-1.97h2.46zm7.07 4.21l-.81-.06c-.78 0-1.27.25-1.49.73v5.02h-2.47v-7.92h2.31l.08 1.02c.42-.78.99-1.17 1.74-1.17.26 0 .49.03.69.09l-.05 2.29zm.87-4.28c0-.35.13-.64.38-.86s.58-.34.99-.34.74.11.99.34.38.51.38.86-.13.64-.38.87-.58.34-.99.34-.73-.11-.99-.34-.38-.52-.38-.87zm2.62 9.97h-2.48v-7.92h2.48v7.92zm8.88-3.91c0 1.23-.28 2.21-.83 2.95-.55.74-1.3 1.1-2.25 1.1-.73 0-1.33-.27-1.79-.8v3.7h-2.47V58.62h2.31l.07.73c.47-.59 1.1-.88 1.87-.88.98 0 1.74.36 2.28 1.08.54.72.81 1.71.81 2.97v.12zm-2.47-.15c0-1.41-.41-2.11-1.23-2.11-.59 0-.98.21-1.17.63v3.12c.21.44.61.66 1.19.66.79 0 1.19-.68 1.22-2.04v-.26zm6.16 4.06h-2.48V55.3h2.48v11.25zm5.35.14c-1.22 0-2.2-.36-2.95-1.09-.75-.72-1.13-1.67-1.13-2.83v-.21c0-.81.15-1.53.45-2.15.3-.62.74-1.1 1.31-1.44.58-.34 1.26-.51 2.05-.51 1.11 0 1.99.35 2.64 1.04.64.69.97 1.65.97 2.89v.96h-4.91c.09.44.28.79.58 1.05s.68.38 1.16.38c.78 0 1.39-.27 1.83-.82l1.13 1.33c-.31.42-.74.76-1.31 1.01-.56.27-1.17.39-1.82.39zm-.28-6.31c-.72 0-1.15.48-1.29 1.44h2.49v-.19c.01-.4-.09-.7-.3-.92-.21-.22-.51-.33-.9-.33zm9.44 2.52h-4.4V61h4.4v1.9zm9.28-.25c0 1.3-.27 2.3-.8 3-.54.7-1.29 1.05-2.27 1.05-.8 0-1.46-.32-1.95-.96l-.1.81h-2.21V55.3h2.47v3.96c.46-.52 1.05-.78 1.78-.78.99 0 1.75.35 2.29 1.06.54.71.8 1.71.8 2.99v.12zm-2.48-.16c0-.76-.1-1.3-.3-1.63-.2-.32-.51-.49-.93-.49-.56 0-.94.21-1.16.64v3.14c.21.42.6.63 1.17.63.58 0 .95-.28 1.11-.85.07-.27.11-.75.11-1.44zm8.28 3.2c-.52.67-1.23 1-2.12 1-.87 0-1.53-.25-1.97-.76-.45-.51-.67-1.23-.67-2.18v-5.13h2.47v5.15c0 .68.33 1.02.99 1.02.57 0 .97-.2 1.21-.61v-5.56h2.48v7.92h-2.31l-.08-.85zm8.54-4.83l-.81-.06c-.78 0-1.27.25-1.49.73v5.02h-2.47v-7.92h2.31l.08 1.02c.42-.78.99-1.17 1.74-1.17.26 0 .49.03.69.09l-.05 2.29zm4.58 5.83c-1.22 0-2.2-.36-2.95-1.09-.75-.72-1.13-1.67-1.13-2.83v-.21c0-.81.15-1.53.45-2.15.3-.62.74-1.1 1.31-1.44.58-.34 1.26-.51 2.05-.51 1.11 0 1.99.35 2.64 1.04.64.69.97 1.65.97 2.89v.96h-4.91c.09.44.28.79.58 1.05s.68.38 1.16.38c.78 0 1.39-.27 1.83-.82l1.13 1.33c-.31.42-.74.76-1.31 1.01-.56.27-1.17.39-1.82.39zm-.28-6.31c-.72 0-1.15.48-1.29 1.44h2.49v-.19c.01-.4-.09-.7-.3-.92-.21-.22-.51-.33-.9-.33zm9.08 6.17c-.09-.16-.17-.4-.23-.71-.45.57-1.09.86-1.9.86-.75 0-1.38-.23-1.9-.68-.52-.45-.78-1.02-.78-1.7 0-.86.32-1.51.95-1.95s1.56-.66 2.77-.66h.76v-.42c0-.73-.32-1.1-.95-1.1-.59 0-.88.29-.88.87h-2.47c0-.77.33-1.39.98-1.87.65-.48 1.48-.72 2.49-.72 1.01 0 1.81.25 2.39.74.59.49.89 1.17.9 2.03v3.51c.01.73.12 1.29.34 1.67v.12h-2.47zm-1.55-1.61c.31 0 .56-.07.76-.2.2-.13.35-.28.44-.45v-1.27h-.72c-.86 0-1.29.39-1.29 1.16 0 .22.08.41.23.54.16.15.35.22.58.22zm9.77.75c-.52.67-1.23 1-2.12 1-.87 0-1.53-.25-1.97-.76-.45-.51-.67-1.23-.67-2.18v-5.13h2.47v5.15c0 .68.33 1.02.99 1.02.57 0 .97-.2 1.21-.61v-5.56h2.48v7.92h-2.31l-.08-.85zM20.32 82.79c.35 0 .62-.09.81-.28.19-.19.28-.45.28-.79h2.31c0 .87-.31 1.58-.93 2.14-.62.56-1.42.83-2.41.83-1.15 0-2.06-.36-2.72-1.08s-1-1.72-1-3v-.1c0-.8.15-1.51.44-2.12.29-.61.72-1.08 1.28-1.41.56-.33 1.22-.49 1.98-.49 1.03 0 1.85.29 2.45.86.61.57.91 1.35.91 2.32H21.4c0-.41-.1-.72-.3-.95-.2-.22-.47-.33-.8-.33-.64 0-1.01.41-1.12 1.22-.03.26-.05.62-.05 1.07 0 .8.09 1.35.29 1.66.18.3.48.45.9.45zm9.24-3.93l-.81-.06c-.78 0-1.27.25-1.49.73v5.02h-2.47v-7.92h2.31l.08 1.02c.42-.78.99-1.17 1.74-1.17.26 0 .49.03.69.09l-.05 2.29zm4.58 5.83c-1.22 0-2.2-.36-2.95-1.09-.75-.72-1.13-1.67-1.13-2.83v-.21c0-.81.15-1.53.45-2.15.3-.62.74-1.1 1.31-1.44.58-.34 1.26-.51 2.05-.51 1.11 0 1.99.35 2.64 1.04.64.69.97 1.65.97 2.89v.96h-4.91c.09.44.28.79.58 1.05s.68.38 1.16.38c.78 0 1.39-.27 1.83-.82l1.13 1.33c-.31.42-.74.76-1.31 1.01-.56.27-1.17.39-1.82.39zm-.28-6.31c-.72 0-1.15.48-1.29 1.44h2.49v-.19c.01-.4-.09-.7-.3-.92-.21-.22-.51-.33-.9-.33zm4.3 2.15c0-1.25.27-2.24.81-2.97.54-.72 1.3-1.08 2.27-1.08.71 0 1.3.28 1.79.83V73.3h2.47v11.25h-2.22l-.12-.85c-.51.66-1.15 1-1.93 1-.94 0-1.69-.36-2.24-1.08-.55-.73-.83-1.76-.83-3.09zm2.47.15c0 1.41.41 2.11 1.23 2.11.55 0 .94-.23 1.17-.69v-3.02c-.23-.47-.61-.7-1.16-.7-.76 0-1.17.62-1.24 1.85v.45zm6.26-6.1c0-.35.13-.64.38-.86s.58-.34.99-.34.74.11.99.34.38.51.38.86-.13.64-.38.87-.58.34-.99.34-.73-.11-.99-.34-.38-.52-.38-.87zm2.62 9.97h-2.48v-7.92h2.48v7.92zm4.4-9.9v1.97h1.3v1.71h-1.3v3.62c0 .3.05.51.16.62.11.12.32.18.64.18.24 0 .45-.01.62-.04v1.76c-.44.14-.91.21-1.39.21-.85 0-1.48-.2-1.88-.6-.41-.4-.61-1.01-.61-1.82v-3.93h-1.01v-1.71h1.01v-1.97h2.46zm10.8 4.21l-.81-.06c-.78 0-1.27.25-1.49.73v5.02h-2.47v-7.92h2.31l.08 1.02c.42-.78.99-1.17 1.74-1.17.26 0 .49.03.69.09l-.05 2.29zm4.59 5.83c-1.22 0-2.2-.36-2.95-1.09-.75-.72-1.13-1.67-1.13-2.83v-.21c0-.81.15-1.53.45-2.15.3-.62.74-1.1 1.31-1.44.58-.34 1.26-.51 2.05-.51 1.11 0 1.99.35 2.64 1.04.64.69.97 1.65.97 2.89v.96h-4.91c.09.44.28.79.58 1.05s.68.38 1.16.38c.78 0 1.39-.27 1.83-.82l1.13 1.33c-.31.42-.74.76-1.31 1.01-.57.27-1.17.39-1.82.39zm-.28-6.31c-.72 0-1.15.48-1.29 1.44h2.49v-.19c.01-.4-.09-.7-.3-.92-.21-.22-.51-.33-.9-.33zm11.97 2.26c0 1.23-.28 2.21-.83 2.95-.55.74-1.3 1.1-2.25 1.1-.73 0-1.33-.27-1.79-.8v3.7h-2.47V76.62h2.31l.07.73c.47-.59 1.1-.88 1.87-.88.98 0 1.74.36 2.28 1.08.54.72.81 1.71.81 2.97v.12zm-2.47-.15c0-1.41-.41-2.11-1.23-2.11-.59 0-.98.21-1.17.63v3.12c.21.44.61.66 1.19.66.79 0 1.19-.68 1.22-2.04v-.26zm3.24.02c0-.79.15-1.5.46-2.11.31-.62.75-1.09 1.33-1.42s1.25-.5 2.03-.5c1.19 0 2.12.37 2.8 1.1.68.73 1.03 1.73 1.03 3v.09c0 1.24-.34 2.22-1.03 2.94-.69.73-1.62 1.09-2.79 1.09-1.13 0-2.03-.34-2.72-1.01-.68-.68-1.05-1.59-1.11-2.75v-.43zm2.47.16c0 .73.11 1.27.34 1.61s.57.51 1.02.51c.88 0 1.33-.68 1.35-2.03v-.25c0-1.42-.45-2.13-1.36-2.13-.83 0-1.27.61-1.34 1.84l-.01.45zm11.06-1.81l-.81-.06c-.78 0-1.27.25-1.49.73v5.02h-2.47v-7.92h2.31l.08 1.02c.42-.78.99-1.17 1.74-1.17.26 0 .49.03.69.09l-.05 2.29zm4.13-4.21v1.97h1.3v1.71h-1.3v3.62c0 .3.05.51.16.62.11.12.32.18.64.18.24 0 .45-.01.62-.04v1.76c-.44.14-.91.21-1.39.21-.85 0-1.48-.2-1.88-.6-.41-.4-.61-1.01-.61-1.82v-3.93h-1.01v-1.71h1.01v-1.97h2.46zm6.42 7.67c0-.21-.11-.38-.33-.51-.22-.13-.64-.26-1.25-.39s-1.12-.32-1.52-.54c-.4-.22-.71-.49-.92-.81s-.31-.68-.31-1.09c0-.73.3-1.33.9-1.8.6-.47 1.39-.71 2.36-.71 1.04 0 1.88.24 2.52.71.63.47.95 1.1.95 1.87h-2.48c0-.63-.33-.95-1-.95-.26 0-.48.07-.65.22-.18.14-.26.32-.26.54 0 .22.11.4.32.54s.56.25 1.03.34c.47.09.88.19 1.24.32 1.19.41 1.79 1.14 1.79 2.2 0 .72-.32 1.31-.96 1.76-.64.46-1.47.68-2.49.68-.68 0-1.28-.12-1.82-.37s-.95-.58-1.25-1-.45-.86-.45-1.33h2.31c.01.37.13.63.37.8.23.17.54.25.9.25.34 0 .59-.07.76-.21.16-.12.24-.3.24-.52zm8.86-3.39c-.29-.41-.51-.8-.68-1.17-.16-.37-.25-.75-.25-1.15 0-.86.28-1.55.83-2.08.56-.53 1.28-.79 2.18-.79.8 0 1.47.25 2 .74s.79 1.1.79 1.83c0 .91-.5 1.71-1.5 2.42l-.56.39 1.64 1.88c.27-.54.4-1.13.4-1.77h2.07c0 1.44-.33 2.6-1 3.46l1.63 1.87h-2.75L119 84c-.41.25-.83.43-1.26.54-.43.12-.91.18-1.45.18-1.05 0-1.9-.28-2.53-.83-.63-.55-.95-1.28-.95-2.19 0-.49.13-.94.38-1.34.25-.4.74-.87 1.47-1.4l.04-.03zm1.78 3.87c.43 0 .84-.1 1.23-.3l-1.92-2.18-.07.04c-.28.34-.42.73-.42 1.16 0 .36.11.66.34.91s.51.37.84.37zm-.57-6.22c0 .34.19.76.56 1.25l.49-.31c.22-.15.39-.3.49-.45s.15-.35.15-.59c0-.22-.08-.42-.23-.59s-.35-.25-.58-.25c-.27 0-.49.09-.64.26-.16.17-.24.4-.24.68zm15.2 5.74c0-.21-.11-.38-.33-.51-.22-.13-.64-.26-1.25-.39s-1.12-.32-1.52-.54c-.4-.22-.71-.49-.92-.81s-.31-.68-.31-1.09c0-.73.3-1.33.9-1.8.6-.47 1.39-.71 2.36-.71 1.04 0 1.88.24 2.52.71.63.47.95 1.1.95 1.87h-2.48c0-.63-.33-.95-1-.95-.26 0-.48.07-.65.22-.18.14-.26.32-.26.54 0 .22.11.4.32.54s.56.25 1.03.34c.47.09.88.19 1.24.32 1.19.41 1.79 1.14 1.79 2.2 0 .72-.32 1.31-.96 1.76-.64.46-1.47.68-2.49.68-.68 0-1.28-.12-1.82-.37-.53-.24-.95-.58-1.25-1s-.45-.86-.45-1.33h2.31c.01.37.13.63.37.8.23.17.54.25.9.25.34 0 .59-.07.76-.21.15-.12.24-.3.24-.52zm6.88.47c.35 0 .62-.09.81-.28.19-.19.28-.45.28-.79h2.31c0 .87-.31 1.58-.93 2.14-.62.56-1.42.83-2.41.83-1.15 0-2.06-.36-2.72-1.08s-1-1.72-1-3v-.1c0-.8.15-1.51.44-2.12.29-.61.72-1.08 1.28-1.41.56-.33 1.22-.49 1.98-.49 1.03 0 1.85.29 2.45.86.61.57.91 1.35.91 2.32h-2.31c0-.41-.1-.72-.3-.95-.2-.22-.47-.33-.8-.33-.64 0-1.01.41-1.12 1.22-.03.26-.05.62-.05 1.07 0 .8.09 1.35.29 1.66.17.3.48.45.89.45zm4.13-2.28c0-.79.15-1.5.46-2.11.31-.62.75-1.09 1.33-1.42s1.25-.5 2.03-.5c1.19 0 2.12.37 2.8 1.1.68.73 1.03 1.73 1.03 3v.09c0 1.24-.34 2.22-1.03 2.94-.69.73-1.62 1.09-2.79 1.09-1.13 0-2.03-.34-2.72-1.01-.68-.68-1.05-1.59-1.11-2.75v-.43zm2.47.16c0 .73.11 1.27.34 1.61s.57.51 1.02.51c.88 0 1.33-.68 1.35-2.03v-.25c0-1.42-.45-2.13-1.36-2.13-.83 0-1.27.61-1.34 1.84l-.01.45zm11.06-1.81l-.81-.06c-.78 0-1.27.25-1.49.73v5.02h-2.47v-7.92h2.31l.08 1.02c.42-.78.99-1.17 1.74-1.17.26 0 .49.03.69.09l-.05 2.29zm4.58 5.83c-1.22 0-2.2-.36-2.95-1.09-.75-.72-1.13-1.67-1.13-2.83v-.21c0-.81.15-1.53.45-2.15.3-.62.74-1.1 1.31-1.44.58-.34 1.26-.51 2.05-.51 1.11 0 1.99.35 2.64 1.04.64.69.97 1.65.97 2.89v.96h-4.91c.09.44.28.79.58 1.05s.68.38 1.16.38c.78 0 1.39-.27 1.83-.82l1.13 1.33c-.31.42-.74.76-1.31 1.01-.56.27-1.17.39-1.82.39zm-.27-6.31c-.72 0-1.15.48-1.29 1.44h2.49v-.19c.01-.4-.09-.7-.3-.92-.21-.22-.51-.33-.9-.33zm8.76 3.94c0-.21-.11-.38-.33-.51-.22-.13-.64-.26-1.25-.39s-1.12-.32-1.52-.54c-.4-.22-.71-.49-.92-.81s-.31-.68-.31-1.09c0-.73.3-1.33.9-1.8.6-.47 1.39-.71 2.36-.71 1.04 0 1.88.24 2.52.71.63.47.95 1.1.95 1.87h-2.48c0-.63-.33-.95-1-.95-.26 0-.48.07-.65.22-.18.14-.26.32-.26.54 0 .22.11.4.32.54s.56.25 1.03.34c.47.09.88.19 1.24.32 1.19.41 1.79 1.14 1.79 2.2 0 .72-.32 1.31-.96 1.76-.64.46-1.47.68-2.49.68-.68 0-1.28-.12-1.82-.37s-.95-.58-1.25-1-.45-.86-.45-1.33h2.31c.01.37.13.63.37.8.23.17.54.25.9.25.34 0 .59-.07.76-.21.15-.12.24-.3.24-.52zm4.4 5.1l-1.25-.59.25-.5c.34-.63.52-1.24.53-1.82v-1.83h1.98l-.01 1.59c0 .56-.15 1.13-.43 1.71-.28.59-.64 1.07-1.07 1.44zm9.24-10.8l.08.93c.56-.72 1.32-1.08 2.26-1.08 1 0 1.68.4 2.03 1.19.54-.8 1.31-1.19 2.33-1.19 1.61 0 2.43.97 2.48 2.92v5.16h-2.48v-5c0-.41-.07-.7-.21-.89s-.39-.28-.75-.28c-.49 0-.85.22-1.09.65l.01.1v5.41h-2.48v-4.99c0-.41-.07-.71-.2-.9-.13-.19-.38-.28-.75-.28-.47 0-.83.22-1.08.65v5.52h-2.47v-7.92h2.32zm10.28 3.89c0-.79.15-1.5.46-2.11.31-.62.75-1.09 1.33-1.42s1.25-.5 2.03-.5c1.19 0 2.12.37 2.8 1.1.68.73 1.03 1.73 1.03 3v.09c0 1.24-.34 2.22-1.03 2.94-.69.73-1.62 1.09-2.79 1.09-1.13 0-2.03-.34-2.72-1.01-.68-.68-1.05-1.59-1.11-2.75v-.43zm2.46.16c0 .73.11 1.27.34 1.61s.57.51 1.02.51c.88 0 1.33-.68 1.35-2.03v-.25c0-1.42-.45-2.13-1.36-2.13-.83 0-1.27.61-1.34 1.84l-.01.45zm8.54-4.05l.08.93c.55-.72 1.3-1.08 2.26-1.08.83 0 1.44.25 1.85.74.41.49.62 1.24.63 2.23v5.11h-2.47v-5c0-.4-.08-.7-.24-.88-.16-.19-.45-.28-.88-.28-.48 0-.84.19-1.08.57v5.6h-2.47v-7.92h2.32zm9.06-1.97v1.97h1.3v1.71h-1.3v3.62c0 .3.05.51.16.62.11.12.32.18.64.18.24 0 .45-.01.62-.04v1.76c-.44.14-.91.21-1.39.21-.85 0-1.48-.2-1.88-.6-.41-.4-.61-1.01-.61-1.82v-3.93h-1.01v-1.71h1.01v-1.97h2.46zm4.69 2.82c.53-.66 1.2-1 2.02-1 .87 0 1.53.26 1.98.78s.67 1.28.68 2.29v5h-2.47V79.6c0-.42-.09-.73-.26-.93-.17-.2-.46-.3-.87-.3-.51 0-.87.16-1.08.48v5.68h-2.47V73.3h2.47v4.17zm8.66 7.08h-2.48V73.3h2.48v11.25zm4.69-3.46l1.32-4.47h2.64l-3.23 9.25-.14.34c-.46 1.03-1.27 1.54-2.43 1.54-.32 0-.66-.05-1.02-.15v-1.76h.32c.35 0 .61-.05.79-.15.18-.1.32-.28.41-.54l.2-.53-2.75-8h2.64l1.25 4.47z"/></svg>