<svg id="Layer_1" xmlns="http://www.w3.org/2000/svg" viewBox="0 0 320 100"><style>.st0{fill:#e82d8a}</style><path class="st0" d="M143.76 25.59c0-.22-.08-.41-.24-.57-.16-.15-.42-.29-.8-.42-.52-.16-.9-.37-1.14-.62-.24-.26-.36-.58-.36-.97 0-.4.12-.73.35-.99.23-.26.55-.41.96-.46v-.8h.55v.81c.41.06.73.23.96.52.23.29.34.68.34 1.18h-.67c0-.35-.08-.62-.25-.82a.807.807 0 0 0-.66-.31c-.29 0-.51.08-.67.23s-.23.36-.23.63c0 .25.08.45.24.6.16.15.43.28.8.4.37.12.66.25.87.4.21.15.36.31.46.51.1.19.15.42.15.68 0 .41-.12.75-.37 1s-.59.4-1.04.45v.7h-.54v-.7c-.45-.04-.81-.2-1.07-.49-.26-.28-.39-.67-.39-1.15h.68c0 .34.09.6.27.78.18.18.43.27.76.27.32 0 .57-.08.75-.23a.76.76 0 0 0 .29-.63zM147.5 26.97h-.68v-4.52l-1.37.5v-.62l1.94-.73h.11v5.37zM152.33 22.04V23h.74v.52h-.74v2.46c0 .16.03.28.1.36.07.08.18.12.34.12.08 0 .19-.01.32-.04v.55c-.18.05-.35.07-.52.07-.3 0-.53-.09-.68-.27-.15-.18-.23-.44-.23-.78v-2.46h-.72V23h.72v-.96h.67zM155.78 23.61c-.1-.02-.21-.03-.33-.03-.44 0-.75.19-.9.57v2.81h-.68V23h.66l.01.46c.22-.35.54-.53.95-.53.13 0 .23.02.3.05v.63zM156.4 21.95c0-.11.03-.2.1-.28.07-.08.17-.11.3-.11s.23.04.3.11c.07.08.1.17.1.28 0 .11-.03.2-.1.27s-.17.11-.3.11-.23-.04-.3-.11a.406.406 0 0 1-.1-.27zm.74 5.02h-.68V23h.68v3.97zM160.67 26.97c-.04-.08-.07-.22-.1-.42-.31.33-.69.49-1.13.49-.39 0-.71-.11-.96-.33-.25-.22-.38-.5-.38-.84 0-.41.16-.73.47-.96.31-.23.75-.34 1.32-.34h.66v-.31c0-.24-.07-.43-.21-.57-.14-.14-.35-.21-.63-.21-.24 0-.44.06-.61.18s-.25.27-.25.44h-.68c0-.2.07-.39.21-.57.14-.18.33-.33.57-.44.24-.11.5-.16.79-.16.46 0 .81.11 1.07.34.26.23.39.54.4.94v1.82c0 .36.05.65.14.87v.06h-.68zm-1.13-.52c.21 0 .41-.05.6-.16s.33-.25.41-.43v-.81h-.53c-.83 0-1.25.24-1.25.73 0 .21.07.38.21.5s.34.17.56.17zM163.04 26.97h-.68v-5.62h.68v5.62zM166.31 26.97v-3.44h-.63V23h.63v-.4c0-.42.11-.75.34-.98.23-.23.55-.35.96-.35.16 0 .31.02.46.06l-.04.55c-.12-.02-.24-.03-.37-.03-.22 0-.39.06-.51.19s-.18.31-.18.55V23h.85v.52h-.85v3.44h-.66zM168.4 24.95c0-.39.08-.74.23-1.05.15-.31.37-.55.64-.72.27-.17.58-.25.93-.25.54 0 .98.19 1.31.56.33.37.5.87.5 1.49v.05c0 .39-.07.73-.22 1.04-.15.31-.36.54-.63.72-.28.17-.59.26-.95.26-.54 0-.97-.19-1.31-.56-.33-.37-.5-.87-.5-1.48v-.06zm.68.08c0 .44.1.79.31 1.06s.48.4.82.4c.34 0 .62-.14.82-.4.2-.27.3-.65.3-1.13 0-.43-.1-.79-.31-1.06a.982.982 0 0 0-.82-.4c-.33 0-.6.13-.81.4-.2.25-.31.63-.31 1.13zM174.77 23.61c-.1-.02-.21-.03-.33-.03-.44 0-.75.19-.9.57v2.81h-.68V23h.66l.01.46c.22-.35.54-.53.95-.53.13 0 .23.02.3.05v.63zM178.17 22.04V23h.74v.52h-.74v2.46c0 .16.03.28.1.36.07.08.18.12.34.12.08 0 .19-.01.32-.04v.55c-.18.05-.35.07-.52.07-.3 0-.53-.09-.68-.27-.15-.18-.23-.44-.23-.78v-2.46h-.72V23h.72v-.96h.67zM180.38 23.48c.3-.37.69-.55 1.17-.55.84 0 1.26.47 1.27 1.42v2.62h-.68v-2.62c0-.29-.07-.5-.2-.63-.13-.14-.33-.21-.6-.21-.22 0-.41.06-.58.18s-.3.27-.39.46v2.82h-.68v-5.62h.68v2.13zM185.48 27.04c-.54 0-.97-.18-1.31-.53-.34-.35-.5-.82-.5-1.42v-.12c0-.39.07-.74.22-1.05.15-.31.36-.55.63-.73.27-.17.56-.26.88-.26.52 0 .92.17 1.2.51.29.34.43.83.43 1.46v.28h-2.68c.01.39.12.71.34.95.22.24.5.36.83.36.24 0 .44-.05.61-.15.17-.1.31-.23.44-.39l.41.32c-.34.51-.84.77-1.5.77zm-.09-3.55c-.27 0-.5.1-.69.3-.19.2-.3.48-.34.84h1.98v-.05c-.02-.34-.11-.61-.28-.8-.16-.2-.38-.29-.67-.29zM190 26.97v-3.44h-.63V23h.63v-.4c0-.42.11-.75.34-.98.23-.23.55-.35.96-.35.16 0 .31.02.46.06l-.04.55c-.12-.02-.24-.03-.37-.03-.22 0-.39.06-.51.19s-.18.31-.18.55V23h.85v.52h-.85v3.44H190zM192.27 21.95c0-.11.03-.2.1-.28.07-.08.17-.11.3-.11s.23.04.3.11c.07.08.1.17.1.28 0 .11-.03.2-.1.27s-.17.11-.3.11-.23-.04-.3-.11-.1-.16-.1-.27zm.73 5.02h-.68V23h.68v3.97zM196 23.61c-.1-.02-.21-.03-.33-.03-.44 0-.75.19-.9.57v2.81h-.68V23h.66l.01.46c.22-.35.54-.53.95-.53.13 0 .23.02.3.05v.63zM198.93 25.92c0-.18-.07-.33-.21-.43-.14-.1-.38-.19-.72-.26s-.62-.16-.82-.26-.35-.22-.45-.37c-.1-.14-.14-.31-.14-.51 0-.32.14-.6.41-.82s.63-.34 1.05-.34c.45 0 .81.12 1.09.35.28.23.42.53.42.89h-.68c0-.19-.08-.35-.24-.48a.924.924 0 0 0-.6-.2c-.25 0-.44.05-.58.16-.14.11-.21.25-.21.42 0 .16.06.29.19.37.13.08.36.16.7.24.34.08.61.17.82.27s.37.23.47.38c.1.15.15.33.15.54 0 .35-.14.64-.42.85-.28.21-.65.32-1.1.32-.32 0-.6-.06-.84-.17s-.43-.27-.57-.47c-.14-.2-.21-.42-.21-.65h.68c.01.23.1.41.27.54.17.13.39.2.67.2.26 0 .46-.05.62-.16.17-.1.25-.24.25-.41zM201.41 22.04V23h.74v.52h-.74v2.46c0 .16.03.28.1.36.07.08.18.12.34.12.08 0 .19-.01.32-.04v.55c-.18.05-.35.07-.52.07-.3 0-.53-.09-.68-.27-.15-.18-.23-.44-.23-.78v-2.46h-.72V23h.72v-.96h.67zM207.22 26.97h-1.06v-4.08l-1.26.39v-.86l2.21-.79h.11v5.34zM212.08 24.96h.6v.85h-.6v1.15h-1.06v-1.15h-2.19l-.05-.67 2.22-3.51h1.07v3.33zm-2.23 0h1.18v-1.88l-.07.12-1.11 1.76zM215 24.96c0-.62.14-1.11.42-1.48.28-.37.66-.55 1.14-.55.39 0 .7.14.96.43v-2.02h1.06v5.62h-.96l-.05-.42c-.26.33-.6.49-1.02.49-.47 0-.84-.18-1.12-.55-.29-.36-.43-.87-.43-1.52zm1.06.07c0 .37.07.66.19.85.13.2.32.3.56.3.33 0 .56-.14.69-.41V24.2c-.13-.28-.36-.41-.68-.41-.5 0-.76.42-.76 1.24zM221.69 26.97c-.05-.1-.08-.21-.11-.36-.26.29-.59.43-1 .43-.39 0-.71-.11-.96-.34s-.38-.51-.38-.85c0-.42.16-.74.47-.97.31-.22.76-.34 1.35-.34h.49v-.23c0-.18-.05-.33-.14-.44-.09-.11-.24-.17-.45-.17-.18 0-.32.04-.42.13-.1.09-.15.2-.15.35h-1.06c0-.23.07-.44.21-.64s.34-.35.6-.46c.26-.11.55-.17.87-.17.49 0 .88.12 1.16.37.29.25.43.59.43 1.03v1.72c0 .38.06.66.16.85v.06h-1.07zm-.88-.74c.16 0 .3-.03.43-.1s.23-.16.29-.28v-.68h-.4c-.53 0-.81.18-.85.55v.06c0 .13.05.24.14.33s.23.12.39.12zM224.89 25.47l.73-2.46h1.14l-1.59 4.58-.09.21c-.24.52-.63.78-1.17.78-.15 0-.31-.02-.47-.07v-.8h.16c.2 0 .35-.03.45-.09s.18-.16.23-.3l.12-.33-1.38-3.99h1.14l.73 2.47zM229.32 25.87c0-.13-.06-.23-.19-.31-.13-.07-.33-.14-.62-.2-.94-.2-1.41-.6-1.41-1.2 0-.35.15-.65.44-.88.29-.24.67-.35 1.14-.35.5 0 .91.12 1.21.35.3.24.45.54.45.92h-1.06a.52.52 0 0 0-.15-.38c-.1-.1-.25-.15-.46-.15-.18 0-.32.04-.41.12-.1.08-.15.18-.15.31 0 .12.06.21.17.28.11.07.3.13.56.19.26.05.49.11.67.18.56.21.84.56.84 1.07 0 .36-.16.65-.47.88-.31.22-.71.33-1.2.33-.33 0-.63-.06-.88-.18-.26-.12-.46-.28-.61-.49a1.12 1.12 0 0 1-.22-.67h1c.01.19.08.33.21.43.13.1.3.15.52.15.2 0 .36-.04.46-.12.11-.05.16-.15.16-.28zM231.12 28.03l-.38-.26c.23-.32.35-.65.36-.99v-.61h.66v.53c0 .25-.06.49-.18.74-.13.24-.28.44-.46.59zM140.32 34.03c0 .6-.14 1.09-.41 1.46-.28.37-.65.55-1.12.55-.48 0-.86-.15-1.13-.46v1.91h-.68V32h.62l.03.44c.28-.34.66-.51 1.15-.51.48 0 .85.18 1.13.54.28.36.42.86.42 1.5v.06zm-.68-.08c0-.45-.1-.8-.29-1.06s-.45-.39-.78-.39c-.41 0-.72.18-.92.55v1.89c.2.36.51.54.93.54.32 0 .58-.13.77-.39.19-.25.29-.63.29-1.14zM141.92 35.97h-.68v-5.62h.68v5.62zM145.45 35.97c-.04-.08-.07-.22-.1-.42-.31.33-.69.49-1.13.49-.39 0-.71-.11-.96-.33-.25-.22-.38-.5-.38-.84 0-.41.16-.73.47-.96.31-.23.75-.34 1.32-.34h.66v-.31c0-.24-.07-.43-.21-.57-.14-.14-.35-.21-.63-.21-.24 0-.44.06-.61.18s-.25.27-.25.44h-.68c0-.2.07-.39.21-.57.14-.18.33-.33.57-.44.24-.11.5-.16.79-.16.46 0 .81.11 1.07.34.26.23.39.54.4.94v1.82c0 .36.05.65.14.87v.06h-.68zm-1.13-.52c.21 0 .41-.05.6-.16s.33-.25.41-.43v-.81h-.53c-.83 0-1.25.24-1.25.73 0 .21.07.38.21.5s.34.17.56.17zM147.72 32l.02.5c.3-.38.7-.57 1.19-.57.84 0 1.26.47 1.27 1.42v2.62h-.68v-2.62c0-.29-.07-.5-.2-.63-.13-.14-.33-.21-.6-.21-.22 0-.41.06-.58.18s-.3.27-.39.46v2.82h-.68V32h.65zM153.52 34.92c0-.18-.07-.33-.21-.43-.14-.1-.38-.19-.72-.26-.34-.07-.62-.16-.82-.26-.2-.1-.35-.22-.45-.37-.1-.14-.14-.31-.14-.51 0-.32.14-.6.41-.82.27-.22.63-.34 1.05-.34.45 0 .81.12 1.09.35.28.23.42.53.42.89h-.68c0-.19-.08-.35-.24-.48a.924.924 0 0 0-.6-.2c-.25 0-.44.05-.58.16s-.21.25-.21.42c0 .16.06.29.19.37s.36.16.7.24c.34.08.61.17.82.27s.37.23.47.38c.1.15.15.33.15.54 0 .35-.14.64-.42.85-.28.21-.65.32-1.1.32-.32 0-.6-.06-.84-.17s-.44-.27-.57-.47c-.14-.2-.21-.42-.21-.65h.68c.01.23.1.41.27.54.17.13.39.2.67.2.26 0 .46-.05.62-.16.18-.1.25-.24.25-.41zM159.25 34.92c0-.18-.07-.33-.21-.43-.14-.1-.38-.19-.72-.26-.34-.07-.62-.16-.82-.26-.2-.1-.35-.22-.45-.37-.1-.14-.14-.31-.14-.51 0-.32.14-.6.41-.82.27-.22.63-.34 1.05-.34.45 0 .81.12 1.09.35.28.23.42.53.42.89h-.68c0-.19-.08-.35-.24-.48a.924.924 0 0 0-.6-.2c-.25 0-.44.05-.58.16s-.21.25-.21.42c0 .16.06.29.19.37s.36.16.7.24c.34.08.61.17.82.27s.37.23.47.38c.1.15.15.33.15.54 0 .35-.14.64-.42.85-.28.21-.65.32-1.1.32-.32 0-.6-.06-.84-.17s-.44-.27-.57-.47c-.14-.2-.21-.42-.21-.65h.68c.01.23.1.41.27.54.17.13.39.2.67.2.26 0 .46-.05.62-.16.17-.1.25-.24.25-.41zM161.73 31.04V32h.74v.52h-.74v2.46c0 .16.03.28.1.36.07.08.18.12.34.12.08 0 .19-.01.32-.04v.55c-.18.05-.35.07-.52.07-.3 0-.53-.09-.68-.27-.15-.18-.23-.44-.23-.78v-2.46h-.72V32h.72v-.96h.67zM165.7 35.97c-.04-.08-.07-.22-.09-.42-.32.33-.69.49-1.13.49-.39 0-.71-.11-.96-.33-.25-.22-.38-.5-.38-.84 0-.41.16-.73.47-.96.31-.23.75-.34 1.32-.34h.66v-.31c0-.24-.07-.43-.21-.57-.14-.14-.35-.21-.63-.21-.24 0-.44.06-.61.18-.16.12-.25.27-.25.44h-.68c0-.2.07-.39.21-.57.14-.18.33-.33.57-.44s.5-.16.79-.16c.46 0 .81.11 1.07.34.26.23.39.54.4.94v1.82c0 .36.05.65.14.87v.06h-.69zm-1.12-.52c.21 0 .41-.05.6-.16s.33-.25.41-.43v-.81h-.53c-.83 0-1.25.24-1.25.73 0 .21.07.38.21.5s.34.17.56.17zM169.25 32.61c-.1-.02-.21-.03-.33-.03-.44 0-.75.19-.9.57v2.81h-.68V32h.66l.01.46c.22-.35.54-.53.95-.53.13 0 .23.02.3.05v.63zM170.98 31.04V32h.74v.52h-.74v2.46c0 .16.03.28.1.36.07.08.18.12.34.12.08 0 .19-.01.32-.04v.55c-.18.05-.35.07-.52.07-.3 0-.53-.09-.68-.27-.15-.18-.23-.44-.23-.78v-2.46h-.72V32h.72v-.96h.67zM172.51 30.95c0-.11.03-.2.1-.28.07-.08.17-.11.3-.11s.23.04.3.11c.07.08.1.17.1.28 0 .11-.03.2-.1.27s-.17.11-.3.11-.23-.04-.3-.11a.406.406 0 0 1-.1-.27zm.74 5.02h-.68V32h.68v3.97zM174.97 32l.02.5c.3-.38.7-.57 1.19-.57.84 0 1.26.47 1.27 1.42v2.62h-.68v-2.62c0-.29-.07-.5-.2-.63-.13-.14-.33-.21-.6-.21-.22 0-.41.06-.58.18s-.29.27-.39.46v2.82h-.68V32h.65zM178.31 33.95c0-.62.14-1.11.43-1.47.29-.36.66-.55 1.13-.55.48 0 .86.17 1.13.51l.03-.44h.62v3.87c0 .51-.15.92-.46 1.21-.3.29-.71.44-1.23.44-.29 0-.56-.06-.84-.18s-.48-.29-.63-.5l.35-.41c.29.36.65.54 1.07.54.33 0 .59-.09.77-.28s.28-.45.28-.78v-.34c-.27.31-.64.47-1.11.47-.46 0-.84-.19-1.13-.56-.27-.37-.41-.88-.41-1.53zm.68.08c0 .45.09.8.27 1.05a.9.9 0 0 0 .77.38c.43 0 .74-.19.94-.58v-1.81c-.21-.38-.52-.57-.93-.57-.33 0-.59.13-.77.38s-.28.65-.28 1.15zM186.98 35.97c-.04-.08-.07-.22-.09-.42-.32.33-.69.49-1.13.49-.39 0-.71-.11-.96-.33-.25-.22-.38-.5-.38-.84 0-.41.16-.73.47-.96.31-.23.75-.34 1.32-.34h.66v-.31c0-.24-.07-.43-.21-.57-.14-.14-.35-.21-.63-.21-.24 0-.44.06-.61.18-.16.12-.25.27-.25.44h-.68c0-.2.07-.39.21-.57.14-.18.33-.33.57-.44s.5-.16.79-.16c.46 0 .81.11 1.07.34.26.23.39.54.4.94v1.82c0 .36.05.65.14.87v.06h-.69zm-1.13-.52c.21 0 .41-.05.6-.16s.33-.25.41-.43v-.81h-.53c-.83 0-1.25.24-1.25.73 0 .21.07.38.21.5s.34.17.56.17zM189.53 31.04V32h.74v.52h-.74v2.46c0 .16.03.28.1.36.07.08.18.12.34.12.08 0 .19-.01.32-.04v.55c-.18.05-.35.07-.52.07-.3 0-.53-.09-.68-.27-.15-.18-.23-.44-.23-.78v-2.46h-.72V32h.72v-.96h.67zM195.3 34.56c0-.2-.06-.36-.17-.48-.11-.12-.3-.23-.57-.33-.27-.1-.5-.2-.69-.3-.19-.1-.36-.21-.5-.34-.14-.13-.25-.28-.32-.45-.08-.17-.12-.38-.12-.62 0-.41.13-.75.4-1.01s.61-.42 1.05-.46v-.78h.59v.79c.43.06.77.24 1.01.54.24.3.37.69.37 1.16h-1.06c0-.29-.06-.51-.18-.66a.586.586 0 0 0-.49-.22c-.2 0-.36.06-.46.17-.11.11-.17.27-.17.47 0 .19.05.33.16.45s.31.23.6.34c.29.12.53.23.72.33.19.1.35.22.48.35.13.13.23.28.3.45.07.17.1.36.1.58 0 .42-.13.75-.39 1.01s-.62.41-1.07.46v.73h-.58v-.72c-.5-.05-.89-.23-1.16-.53-.27-.3-.41-.7-.41-1.2h1.06c0 .29.07.51.21.67.14.16.34.23.59.23.21 0 .38-.06.51-.17.13-.11.19-.26.19-.46zM199.55 33.83c-.28.27-.6.41-.97.41-.47 0-.85-.16-1.13-.49-.28-.32-.42-.76-.42-1.31 0-.35.08-.67.23-.96.15-.29.37-.52.64-.68.27-.16.58-.24.92-.24.35 0 .66.09.94.26s.49.43.64.76c.15.33.23.71.23 1.13v.39c0 .89-.22 1.59-.66 2.09-.44.51-1.07.78-1.88.81h-.26v-.88h.23c.91-.03 1.41-.46 1.49-1.29zm-.71-.4c.17 0 .32-.04.44-.13s.22-.19.28-.32v-.44c0-.36-.07-.64-.21-.83s-.32-.3-.55-.3c-.21 0-.39.1-.52.29-.14.19-.21.44-.21.73s.07.53.2.72c.14.19.33.28.57.28zM201.47 35.45c0-.17.06-.31.17-.41s.26-.16.43-.16c.17 0 .32.05.43.16.11.1.17.24.17.41 0 .17-.06.3-.17.4-.11.1-.26.16-.43.16-.17 0-.32-.05-.43-.16a.528.528 0 0 1-.17-.4zM206.03 33.83c-.28.27-.6.41-.97.41-.47 0-.85-.16-1.13-.49-.28-.32-.42-.76-.42-1.31 0-.35.08-.67.23-.96.15-.29.37-.52.64-.68.27-.16.58-.24.92-.24.35 0 .66.09.94.26s.49.43.64.76c.15.33.23.71.23 1.13v.39c0 .89-.22 1.59-.66 2.09-.44.51-1.07.78-1.88.81h-.26v-.88h.23c.91-.03 1.41-.46 1.49-1.29zm-.71-.4c.17 0 .32-.04.44-.13s.22-.19.28-.32v-.44c0-.36-.07-.64-.21-.83s-.32-.3-.55-.3c-.21 0-.39.1-.52.29-.14.19-.21.44-.21.73s.07.53.2.72c.14.19.33.28.57.28zM210.33 33.83c-.28.27-.6.41-.97.41-.47 0-.85-.16-1.13-.49-.28-.32-.42-.76-.42-1.31 0-.35.08-.67.23-.96.15-.29.37-.52.64-.68.27-.16.58-.24.92-.24.35 0 .66.09.94.26s.49.43.64.76c.15.33.23.71.23 1.13v.39c0 .89-.22 1.59-.66 2.09-.44.51-1.07.78-1.88.81h-.26v-.88h.23c.92-.03 1.41-.46 1.49-1.29zm-.71-.4c.17 0 .32-.04.44-.13s.22-.19.28-.32v-.44c0-.36-.07-.64-.21-.83s-.32-.3-.55-.3c-.21 0-.39.1-.52.29-.14.19-.21.44-.21.73s.07.53.2.72c.14.19.33.28.57.28zM212.54 36.42h-.79l1.96-5.79h.79l-1.96 5.79zM216 32l.03.44c.28-.34.66-.52 1.14-.52.51 0 .86.2 1.05.6.28-.4.67-.6 1.19-.6.43 0 .75.12.96.38.21.25.32.63.32 1.13v2.53h-1.06v-2.53c0-.22-.04-.39-.13-.49-.09-.1-.24-.16-.46-.16-.32 0-.54.15-.66.45v2.72h-1.06v-2.52c0-.23-.04-.4-.14-.5-.09-.1-.24-.15-.46-.15-.3 0-.52.12-.65.37v2.8H215V32h1zM221.33 33.95c0-.39.08-.74.23-1.05s.37-.55.65-.71c.28-.17.61-.25.99-.25.53 0 .97.16 1.31.49.34.33.53.77.57 1.33l.01.27c0 .61-.17 1.1-.51 1.46-.34.37-.79.55-1.37.55s-1.03-.18-1.37-.55-.51-.86-.51-1.49v-.05zm1.06.07c0 .38.07.66.21.86s.34.3.61.3c.26 0 .46-.1.6-.29.14-.2.22-.51.22-.94 0-.37-.07-.66-.22-.86-.14-.2-.35-.3-.61-.3s-.46.1-.6.3-.21.51-.21.93zM226.71 32l.03.46c.28-.35.66-.53 1.14-.53.42 0 .73.12.94.37.21.25.31.62.31 1.11v2.56h-1.06v-2.53c0-.22-.05-.39-.15-.49-.1-.1-.26-.15-.49-.15-.3 0-.52.13-.67.38v2.79h-1.06V32h1.01zM231.21 31.03V32h.68v.78h-.68v1.98c0 .15.03.25.08.31.06.06.16.1.32.1.12 0 .22-.01.31-.03v.8c-.21.06-.42.1-.64.1-.74 0-1.12-.37-1.14-1.12v-2.14h-.58V32h.58v-.97h1.07zM233.5 32.44c.28-.34.63-.51 1.06-.51.86 0 1.29.5 1.31 1.5v2.54h-1.06v-2.51c0-.23-.05-.39-.15-.5-.1-.11-.26-.16-.49-.16-.31 0-.54.12-.67.36v2.82h-1.06v-5.62h1.06v2.08z"/></svg>