<svg id="Layer_1" xmlns="http://www.w3.org/2000/svg" viewBox="0 0 320 100"><style>.st0{fill:url(#SVGID_1_)}</style><linearGradient id="SVGID_1_" gradientUnits="userSpaceOnUse" x1="15.881" y1="70.576" x2="201.174" y2="70.576"><stop offset="0" stop-color="#18b9fb"/><stop offset=".5" stop-color="#782eeb"/><stop offset="1" stop-color="#e82d8a"/></linearGradient><path class="st0" d="M25.97 56.85h-3.62v9.83h-2.91v-9.83h-3.56V54.6h10.09v2.25zm5.99 3.38l-.92-.07c-.88 0-1.44.28-1.69.83v5.68h-2.8V57.7h2.62l.09 1.15c.47-.88 1.13-1.32 1.97-1.32.3 0 .56.03.78.1l-.05 2.6zm5.82 6.45c-.1-.18-.19-.45-.27-.8-.51.65-1.23.97-2.16.97-.85 0-1.56-.26-2.16-.77-.59-.51-.89-1.15-.89-1.93 0-.97.36-1.71 1.08-2.21.72-.5 1.76-.75 3.13-.75h.86v-.48c0-.83-.36-1.24-1.07-1.24-.66 0-1 .33-1 .98h-2.79c0-.87.37-1.57 1.11-2.11.74-.54 1.68-.81 2.82-.81s2.05.28 2.71.84c.66.56 1 1.32 1.02 2.3v3.97c.01.82.14 1.45.38 1.89v.14h-2.77zm-1.75-1.83c.35 0 .64-.07.87-.22.23-.15.39-.32.49-.51v-1.43h-.81c-.97 0-1.46.44-1.46 1.31 0 .25.09.46.26.62.16.15.38.23.65.23zm9.5-.17c.39 0 .7-.11.91-.32s.32-.51.32-.89h2.62c0 .98-.35 1.79-1.06 2.42-.7.63-1.61.95-2.72.95-1.31 0-2.33-.41-3.09-1.23-.75-.82-1.13-1.95-1.13-3.4v-.11c0-.91.17-1.71.5-2.4.33-.69.82-1.23 1.45-1.6.63-.37 1.38-.56 2.24-.56 1.17 0 2.09.32 2.78.97.69.65 1.03 1.52 1.03 2.63h-2.62c0-.46-.11-.82-.34-1.07-.23-.25-.53-.37-.91-.37-.72 0-1.15.46-1.27 1.38-.04.29-.06.7-.06 1.21 0 .9.11 1.53.32 1.87.22.35.56.52 1.03.52zm8.64-1.35l-.79.79v2.55h-2.8V53.93h2.8v6.77l.28-.37 2.11-2.62h3.35l-3.14 3.69 3.35 5.28h-3.2l-1.96-3.35zm13.5-.57l1.49-5.06h2.99L68.5 68.18l-.16.38c-.52 1.16-1.44 1.74-2.75 1.74-.36 0-.75-.06-1.15-.17v-1.99h.36c.39 0 .69-.06.9-.17.21-.11.36-.32.46-.61l.22-.6-3.12-9.06h2.99l1.42 5.06zm4.73-.65c0-.9.17-1.69.52-2.39.35-.7.85-1.24 1.5-1.61.65-.38 1.42-.56 2.3-.56 1.34 0 2.4.42 3.18 1.25.77.83 1.16 1.96 1.16 3.4v.1c0 1.4-.39 2.51-1.17 3.33-.78.82-1.83 1.23-3.16 1.23-1.28 0-2.3-.38-3.08-1.15-.77-.77-1.19-1.8-1.25-3.11v-.49zm2.8.17c0 .83.13 1.44.39 1.82.26.39.64.58 1.15.58 1 0 1.5-.77 1.53-2.3v-.28c0-1.61-.51-2.41-1.54-2.41-.93 0-1.44.69-1.52 2.08l-.01.51zm12.44 3.43c-.59.76-1.39 1.14-2.4 1.14-.98 0-1.73-.29-2.24-.86-.51-.57-.76-1.39-.76-2.47V57.7h2.8v5.83c0 .77.37 1.15 1.12 1.15.64 0 1.1-.23 1.37-.69V57.7h2.81v8.97h-2.62l-.08-.96zm9.66-5.48l-.92-.07c-.88 0-1.44.28-1.69.83v5.68h-2.8V57.7h2.62l.09 1.15c.47-.88 1.13-1.32 1.97-1.32.3 0 .56.03.78.1l-.05 2.6zm9.03 4.45c.39 0 .7-.11.91-.32.22-.21.32-.51.32-.89h2.62c0 .98-.35 1.79-1.06 2.42-.7.63-1.61.95-2.72.95-1.31 0-2.33-.41-3.09-1.23-.75-.82-1.13-1.95-1.13-3.4v-.11c0-.91.17-1.71.5-2.4.33-.69.82-1.23 1.45-1.6.63-.37 1.38-.56 2.24-.56 1.17 0 2.09.32 2.78.97.69.65 1.03 1.52 1.03 2.63h-2.62c0-.46-.11-.82-.34-1.07-.23-.25-.53-.37-.91-.37-.72 0-1.15.46-1.27 1.38-.04.29-.06.7-.06 1.21 0 .9.11 1.53.32 1.87.22.35.56.52 1.03.52zm10.46-4.45l-.92-.07c-.88 0-1.44.28-1.69.83v5.68h-2.8V57.7H114l.09 1.15c.47-.88 1.13-1.32 1.97-1.32.3 0 .56.03.78.1l-.05 2.6zm5.19 6.61c-1.38 0-2.49-.41-3.34-1.23-.85-.82-1.28-1.89-1.28-3.21v-.23c0-.92.17-1.73.51-2.43.34-.7.84-1.25 1.49-1.63.65-.38 1.43-.58 2.32-.58 1.26 0 2.26.39 2.99 1.17.73.78 1.09 1.87 1.09 3.27v1.09h-5.56c.1.5.32.9.66 1.19.34.29.77.43 1.31.43.88 0 1.58-.31 2.07-.93l1.28 1.51c-.35.48-.84.86-1.48 1.15-.63.29-1.32.43-2.06.43zm-.31-7.15c-.82 0-1.31.54-1.46 1.63h2.82v-.22c.01-.45-.1-.79-.34-1.04-.24-.25-.58-.37-1.02-.37zm4.87 2.43c0-1.42.31-2.54.92-3.36.61-.82 1.47-1.23 2.57-1.23.8 0 1.48.32 2.02.95v-4.55h2.8v12.74h-2.51l-.14-.96c-.58.75-1.31 1.13-2.19 1.13-1.07 0-1.91-.41-2.54-1.23-.62-.81-.93-1.98-.93-3.49zm2.79.18c0 1.59.46 2.39 1.39 2.39.62 0 1.06-.26 1.33-.78v-3.42c-.25-.53-.69-.8-1.31-.8-.86 0-1.33.7-1.4 2.09l-.01.52zm7.09-6.91c0-.4.14-.72.43-.98.29-.25.66-.38 1.12-.38.46 0 .83.13 1.12.38.29.25.43.58.43.98s-.14.72-.43.98c-.29.25-.66.38-1.12.38-.46 0-.83-.13-1.12-.38a1.28 1.28 0 0 1-.43-.98zm2.97 11.29h-2.8V57.7h2.8v8.98zm4.98-11.21v2.23h1.48v1.94h-1.48v4.11c0 .34.06.57.18.7s.36.2.72.2c.28 0 .51-.02.7-.05v2c-.5.16-1.03.24-1.58.24-.96 0-1.67-.23-2.13-.68-.46-.45-.69-1.14-.69-2.07v-4.45h-1.14V57.7h1.14v-2.23h2.8zm11.5 8.68c0-.24-.12-.43-.37-.57-.25-.14-.72-.29-1.42-.45-.7-.15-1.27-.36-1.73-.61-.45-.25-.8-.56-1.04-.92s-.36-.77-.36-1.24c0-.82.34-1.5 1.02-2.04.68-.53 1.57-.8 2.67-.8 1.18 0 2.13.27 2.85.8.72.54 1.08 1.24 1.08 2.11h-2.8c0-.72-.38-1.08-1.14-1.08-.29 0-.54.08-.74.24-.2.16-.3.37-.3.61 0 .25.12.45.36.61.24.15.63.28 1.17.38.53.1 1 .22 1.41.36 1.35.46 2.02 1.3 2.02 2.5 0 .82-.36 1.48-1.09 2-.73.51-1.67.77-2.82.77-.77 0-1.45-.14-2.06-.41-.6-.28-1.07-.65-1.41-1.13-.34-.48-.51-.98-.51-1.5h2.61c.01.42.15.72.41.91.27.19.61.29 1.02.29.38 0 .67-.08.86-.23.22-.15.31-.35.31-.6zm7.8.53c.39 0 .7-.11.91-.32.22-.21.32-.51.32-.89h2.62c0 .98-.35 1.79-1.06 2.42-.7.63-1.61.95-2.72.95-1.31 0-2.33-.41-3.09-1.23-.75-.82-1.13-1.95-1.13-3.4v-.11c0-.91.17-1.71.5-2.4.33-.69.82-1.23 1.45-1.6.63-.37 1.38-.56 2.24-.56 1.17 0 2.09.32 2.78.97.69.65 1.03 1.52 1.03 2.63h-2.62c0-.46-.11-.82-.34-1.07-.23-.25-.53-.37-.91-.37-.72 0-1.15.46-1.27 1.38-.04.29-.06.7-.06 1.21 0 .9.11 1.53.32 1.87.22.35.56.52 1.03.52zm4.68-2.57c0-.9.17-1.69.52-2.39.35-.7.85-1.24 1.5-1.61.65-.38 1.42-.56 2.3-.56 1.34 0 2.4.42 3.18 1.25.77.83 1.16 1.96 1.16 3.4v.1c0 1.4-.39 2.51-1.17 3.33-.78.82-1.83 1.23-3.16 1.23-1.28 0-2.3-.38-3.08-1.15-.77-.77-1.19-1.8-1.25-3.11v-.49zm2.79.17c0 .83.13 1.44.39 1.82.26.39.64.58 1.15.58 1 0 1.5-.77 1.53-2.3v-.28c0-1.61-.51-2.41-1.54-2.41-.93 0-1.44.69-1.52 2.08l-.01.51zm12.53-2.05l-.92-.07c-.88 0-1.44.28-1.69.83v5.68h-2.8V57.7h2.62l.09 1.15c.47-.88 1.13-1.32 1.97-1.32.3 0 .56.03.78.1l-.05 2.6zm5.19 6.61c-1.38 0-2.49-.41-3.34-1.23-.85-.82-1.28-1.89-1.28-3.21v-.23c0-.92.17-1.73.51-2.43.34-.7.84-1.25 1.49-1.63.65-.38 1.43-.58 2.32-.58 1.26 0 2.26.39 2.99 1.17s1.09 1.87 1.09 3.27v1.09h-5.56c.1.5.32.9.66 1.19.34.29.77.43 1.31.43.88 0 1.58-.31 2.07-.93l1.28 1.51c-.35.48-.84.86-1.48 1.15-.64.29-1.33.43-2.06.43zm-.32-7.15c-.82 0-1.31.54-1.46 1.63h2.82v-.22c.01-.45-.1-.79-.34-1.04-.23-.25-.57-.37-1.02-.37zm9.92 4.46c0-.24-.12-.43-.37-.57-.25-.14-.72-.29-1.42-.45-.7-.15-1.27-.36-1.73-.61-.45-.25-.8-.56-1.04-.92s-.36-.77-.36-1.24c0-.82.34-1.5 1.02-2.04.68-.53 1.57-.8 2.67-.8 1.18 0 2.13.27 2.85.8.72.54 1.08 1.24 1.08 2.11h-2.8c0-.72-.38-1.08-1.14-1.08-.29 0-.54.08-.74.24-.2.16-.3.37-.3.61 0 .25.12.45.36.61.24.15.63.28 1.17.38.53.1 1 .22 1.41.36 1.35.46 2.02 1.3 2.02 2.5 0 .82-.36 1.48-1.09 2-.73.51-1.67.77-2.82.77-.77 0-1.45-.14-2.06-.41-.6-.28-1.07-.65-1.41-1.13-.34-.48-.51-.98-.51-1.5h2.61c.01.42.15.72.41.91.27.19.61.29 1.02.29.38 0 .67-.08.86-.23.22-.15.31-.35.31-.6zM20.71 87.22c-1.38 0-2.49-.41-3.34-1.23-.85-.82-1.28-1.89-1.28-3.21v-.23c0-.92.17-1.73.51-2.43.34-.7.84-1.25 1.49-1.63.65-.38 1.43-.58 2.32-.58 1.26 0 2.26.39 2.99 1.17s1.09 1.87 1.09 3.27v1.09h-5.56c.1.5.32.9.66 1.19.34.29.77.43 1.31.43.88 0 1.58-.31 2.07-.93l1.28 1.51c-.35.48-.84.86-1.48 1.15-.64.29-1.33.43-2.06.43zm-.32-7.15c-.82 0-1.31.54-1.46 1.63h2.82v-.22c.01-.45-.1-.79-.34-1.04-.23-.24-.57-.37-1.02-.37zm10.28 6.99c-.1-.18-.19-.45-.27-.8-.51.65-1.23.97-2.16.97-.85 0-1.56-.26-2.16-.77-.59-.51-.89-1.15-.89-1.93 0-.97.36-1.71 1.08-2.21.72-.5 1.76-.75 3.13-.75h.86v-.47c0-.83-.36-1.24-1.07-1.24-.66 0-1 .33-1 .98H25.4c0-.87.37-1.57 1.11-2.11.74-.54 1.68-.81 2.82-.81s2.05.28 2.71.84c.66.56 1 1.32 1.02 2.3v3.97c.01.82.14 1.45.38 1.89v.14h-2.77zm-1.75-1.83c.35 0 .64-.07.87-.22.23-.15.39-.32.49-.51v-1.43h-.81c-.97 0-1.46.44-1.46 1.31 0 .25.09.46.26.62.17.15.38.23.65.23zm9.5-.16c.39 0 .7-.11.91-.32.22-.21.32-.51.32-.89h2.62c0 .98-.35 1.79-1.06 2.42-.7.63-1.61.95-2.72.95-1.31 0-2.33-.41-3.09-1.23-.75-.82-1.13-1.95-1.13-3.4v-.12c0-.91.17-1.71.5-2.4.33-.69.82-1.23 1.45-1.6.63-.37 1.38-.56 2.24-.56 1.17 0 2.09.32 2.78.97.69.65 1.03 1.52 1.03 2.63h-2.62c0-.46-.11-.82-.34-1.07-.23-.25-.53-.37-.91-.37-.72 0-1.15.46-1.27 1.38-.04.29-.06.7-.06 1.21 0 .9.11 1.53.32 1.87.22.35.56.53 1.03.53zm7.77-6.02c.6-.75 1.36-1.13 2.29-1.13.99 0 1.74.29 2.24.88.5.59.76 1.45.77 2.6v5.66h-2.8v-5.6c0-.48-.1-.82-.29-1.05-.19-.22-.52-.34-.99-.34-.58 0-.98.18-1.22.55v6.44H43.4V74.32h2.79v4.73zm13.72-.97l.09 1.06c.64-.81 1.49-1.22 2.56-1.22 1.13 0 1.9.45 2.3 1.35.61-.9 1.49-1.35 2.64-1.35 1.82 0 2.75 1.1 2.8 3.3v5.84h-2.8V81.4c0-.46-.08-.79-.23-1-.15-.21-.44-.32-.85-.32-.55 0-.96.25-1.24.74l.01.12v6.13h-2.8v-5.65c0-.47-.07-.81-.22-1.02-.15-.21-.43-.32-.85-.32-.54 0-.95.25-1.23.74v6.25h-2.8V78.1h2.62zm11.64 4.41c0-.9.17-1.69.52-2.39.35-.7.85-1.24 1.5-1.61.65-.38 1.42-.56 2.3-.56 1.34 0 2.4.42 3.18 1.25.77.83 1.16 1.96 1.16 3.4v.1c0 1.4-.39 2.51-1.17 3.33-.78.82-1.83 1.23-3.16 1.23-1.28 0-2.3-.38-3.08-1.15-.77-.77-1.19-1.8-1.25-3.11v-.49zm2.79.17c0 .83.13 1.44.39 1.82.26.39.64.58 1.15.58 1 0 1.5-.77 1.53-2.3v-.28c0-1.61-.51-2.41-1.54-2.41-.93 0-1.44.69-1.52 2.08l-.01.51zm9.67-4.58l.09 1.05c.62-.81 1.47-1.22 2.56-1.22.93 0 1.63.28 2.09.84.46.56.7 1.4.72 2.52v5.78h-2.8v-5.66c0-.45-.09-.79-.27-1-.18-.21-.51-.32-1-.32-.55 0-.95.22-1.22.65v6.34h-2.79v-8.97h2.62zm10.26-2.23v2.23h1.48v1.94h-1.48v4.11c0 .34.06.57.18.7s.36.2.72.2c.28 0 .51-.02.7-.05v2c-.5.16-1.03.24-1.58.24-.96 0-1.67-.23-2.13-.68-.46-.45-.69-1.14-.69-2.07v-4.45h-1.14v-1.94h1.14v-2.23h2.8zm5.31 3.2c.6-.75 1.36-1.13 2.29-1.13.99 0 1.74.29 2.24.88.5.59.76 1.45.77 2.6v5.66h-2.8v-5.6c0-.48-.1-.82-.29-1.05-.19-.22-.52-.34-.99-.34-.58 0-.98.18-1.22.55v6.44h-2.79V74.32h2.79v4.73z"/></svg>