<svg id="Layer_1" xmlns="http://www.w3.org/2000/svg" viewBox="0 0 320 468"><style>.st0{fill:url(#SVGID_1_)}</style><linearGradient id="SVGID_1_" gradientUnits="userSpaceOnUse" x1="25.1" y1="224.567" x2="293.743" y2="224.567"><stop offset="0" stop-color="#18b9fb"/><stop offset=".5" stop-color="#782eeb"/><stop offset="1" stop-color="#e82d8a"/></linearGradient><path class="st0" d="M78.11 175.76l4.01-14.67h5.42l-6.78 20.14h-5.31l-6.72-20.14h5.38l4 14.67zm10.65-13.35c0-.66.24-1.21.72-1.63.48-.42 1.1-.64 1.87-.64s1.39.21 1.87.64c.48.42.72.97.72 1.63s-.24 1.21-.72 1.63c-.48.42-1.1.64-1.87.64s-1.39-.21-1.87-.64c-.48-.42-.72-.96-.72-1.63zm4.96 18.83h-4.68v-14.97h4.68v14.97zm10.11.28c-2.3 0-4.16-.69-5.58-2.05-1.42-1.37-2.13-3.15-2.13-5.35v-.39c0-1.53.28-2.88.85-4.05s1.39-2.08 2.48-2.72c1.09-.64 2.38-.96 3.87-.96 2.1 0 3.76.65 4.98 1.96s1.83 3.12 1.83 5.46v1.81h-9.27c.17.84.53 1.5 1.09 1.98s1.29.72 2.19.72c1.48 0 2.63-.52 3.46-1.55l2.13 2.52c-.58.8-1.4 1.44-2.47 1.92-1.06.46-2.2.7-3.43.7zm-.52-11.93c-1.37 0-2.18.9-2.43 2.71h4.7v-.36c.02-.75-.17-1.33-.57-1.74-.4-.4-.97-.61-1.7-.61zm21.63 5.51l1.51-8.83h4.47l-3.53 14.97h-3.94l-2.48-8.88-2.49 8.88h-3.94l-3.53-14.97h4.47l1.48 9.03 2.38-9.03h3.25l2.35 8.83zm28.6-1.23c0 2.32-.52 4.18-1.57 5.57-1.05 1.39-2.46 2.08-4.24 2.08-1.38 0-2.5-.5-3.39-1.51V187h-4.66v-20.73h4.36l.14 1.38c.89-1.11 2.07-1.66 3.53-1.66 1.84 0 3.28.68 4.3 2.04 1.02 1.36 1.54 3.23 1.54 5.61v.23zm-4.66-.29c0-2.66-.78-3.98-2.32-3.98-1.11 0-1.85.4-2.21 1.19v5.89c.41.83 1.15 1.25 2.24 1.25 1.48 0 2.25-1.28 2.3-3.85v-.5zm13.96 7.94c-2.3 0-4.16-.69-5.58-2.05-1.42-1.37-2.13-3.15-2.13-5.35v-.39c0-1.53.28-2.88.85-4.05s1.39-2.08 2.48-2.72c1.09-.64 2.38-.96 3.87-.96 2.1 0 3.76.65 4.98 1.96s1.83 3.12 1.83 5.46v1.81h-9.27c.17.84.53 1.5 1.09 1.98s1.29.72 2.19.72c1.48 0 2.63-.52 3.46-1.55l2.13 2.52c-.58.8-1.4 1.44-2.47 1.92-1.06.46-2.2.7-3.43.7zm-.53-11.93c-1.37 0-2.18.9-2.43 2.71h4.7v-.36c.02-.75-.17-1.33-.57-1.74-.39-.4-.96-.61-1.7-.61zm17.77.9l-1.54-.11c-1.47 0-2.41.46-2.82 1.38v9.48h-4.66v-14.97h4.37l.15 1.92c.78-1.47 1.88-2.2 3.28-2.2.5 0 .93.06 1.3.17l-.08 4.33zm9.52 6.55c0-.4-.21-.71-.62-.95s-1.2-.49-2.37-.75-2.12-.6-2.88-1.02c-.76-.42-1.33-.93-1.73-1.53s-.59-1.29-.59-2.06c0-1.37.57-2.51 1.7-3.4s2.62-1.33 4.46-1.33c1.97 0 3.56.45 4.76 1.34 1.2.9 1.8 2.07 1.8 3.53h-4.68c0-1.2-.63-1.8-1.9-1.8-.49 0-.9.14-1.23.41s-.5.61-.5 1.02c0 .42.2.75.61 1.01s1.05.47 1.94.64c.89.17 1.67.36 2.34.6 2.25.77 3.38 2.16 3.38 4.16 0 1.37-.61 2.48-1.82 3.33-1.21.86-2.78 1.29-4.71 1.29-1.28 0-2.43-.23-3.43-.69-1.01-.46-1.79-1.09-2.35-1.88-.56-.79-.84-1.63-.84-2.5h4.36c.02.69.25 1.2.69 1.51.44.32 1.01.48 1.7.48.64 0 1.11-.13 1.43-.39s.48-.61.48-1.02zm6.09-3.42c0-1.49.29-2.82.87-3.99s1.42-2.06 2.5-2.69c1.09-.63 2.37-.94 3.83-.94 2.24 0 4.01.69 5.3 2.08s1.94 3.28 1.94 5.67v.17c0 2.33-.65 4.19-1.94 5.56s-3.05 2.05-5.26 2.05c-2.13 0-3.84-.64-5.13-1.92-1.29-1.28-1.99-3.01-2.09-5.2l-.02-.79zm4.66.29c0 1.38.22 2.4.65 3.04.43.65 1.07.97 1.92.97 1.66 0 2.51-1.28 2.55-3.83v-.47c0-2.68-.86-4.03-2.57-4.03-1.56 0-2.4 1.16-2.53 3.47l-.02.85zm16.12-7.64l.15 1.76c1.03-1.36 2.46-2.03 4.27-2.03 1.56 0 2.72.47 3.49 1.4.77.93 1.17 2.33 1.2 4.21v9.64h-4.68v-9.45c0-.76-.15-1.31-.46-1.67s-.86-.53-1.66-.53c-.91 0-1.59.36-2.03 1.08v10.57h-4.66v-14.97h4.38zm20.13 14.97c-.17-.3-.31-.75-.44-1.34-.86 1.08-2.06 1.62-3.6 1.62-1.41 0-2.61-.43-3.6-1.28-.99-.85-1.48-1.93-1.48-3.22 0-1.62.6-2.85 1.8-3.68 1.2-.83 2.94-1.25 5.23-1.25h1.44v-.79c0-1.38-.59-2.07-1.79-2.07-1.11 0-1.66.55-1.66 1.64h-4.66c0-1.45.62-2.62 1.85-3.52 1.23-.9 2.8-1.35 4.71-1.35s3.42.47 4.52 1.4c1.11.93 1.67 2.21 1.7 3.83v6.63c.02 1.37.23 2.43.64 3.15v.24h-4.66zm-2.92-3.04c.58 0 1.06-.12 1.45-.37s.66-.53.82-.84v-2.39h-1.36c-1.62 0-2.44.73-2.44 2.19 0 .42.14.77.43 1.03.29.25.66.38 1.1.38zm14.44 3.04h-4.68v-21.25h4.68v21.25zM25.1 196.42c0-.66.24-1.21.72-1.63.48-.42 1.1-.64 1.87-.64s1.39.21 1.87.64c.48.42.72.97.72 1.63s-.24 1.21-.72 1.63c-.48.42-1.1.64-1.87.64s-1.39-.21-1.87-.64c-.48-.43-.72-.97-.72-1.63zm4.95 18.83h-4.68v-14.97h4.68v14.97zm2.29-7.6c0-2.37.51-4.24 1.54-5.6 1.02-1.36 2.45-2.05 4.29-2.05 1.34 0 2.46.53 3.38 1.58V194h4.68v21.25h-4.19l-.24-1.6c-.96 1.25-2.18 1.88-3.65 1.88-1.78 0-3.19-.68-4.23-2.05-1.06-1.37-1.58-3.31-1.58-5.83zm4.66.29c0 2.66.78 3.98 2.32 3.98 1.03 0 1.77-.43 2.21-1.3v-5.7c-.42-.89-1.15-1.33-2.19-1.33-1.44 0-2.22 1.16-2.34 3.49v.86zm19.11 7.58c-2.3 0-4.16-.69-5.58-2.05-1.42-1.37-2.13-3.15-2.13-5.35v-.39c0-1.53.28-2.88.85-4.05s1.39-2.08 2.48-2.72c1.09-.64 2.38-.96 3.87-.96 2.1 0 3.76.65 4.98 1.96s1.83 3.12 1.83 5.46v1.81h-9.27c.17.84.53 1.5 1.09 1.98s1.29.72 2.19.72c1.48 0 2.63-.52 3.46-1.55l2.13 2.52c-.58.8-1.4 1.44-2.47 1.92-1.06.46-2.21.7-3.43.7zm-.53-11.92c-1.37 0-2.18.9-2.43 2.71h4.7v-.36c.02-.75-.17-1.33-.57-1.74-.39-.41-.96-.61-1.7-.61zm12.99-3.32l.15 1.76c1.03-1.36 2.46-2.03 4.27-2.03 1.56 0 2.72.47 3.49 1.4.77.93 1.17 2.33 1.2 4.21v9.64H73v-9.45c0-.76-.15-1.31-.46-1.67s-.86-.53-1.66-.53c-.91 0-1.59.36-2.03 1.08v10.57H64.2v-14.97h4.37zm17.13-3.73v3.72h2.46v3.24H85.7v6.85c0 .56.1.95.3 1.18.2.22.6.33 1.2.33.46 0 .85-.03 1.16-.08v3.33c-.84.27-1.72.4-2.63.4-1.6 0-2.79-.38-3.56-1.13-.77-.76-1.15-1.9-1.15-3.44v-7.43h-1.91v-3.24h1.91v-3.72h4.68zm4.26-.13c0-.66.24-1.21.72-1.63.48-.42 1.1-.64 1.87-.64s1.39.21 1.87.64c.48.42.72.97.72 1.63s-.24 1.21-.72 1.63c-.48.42-1.1.64-1.87.64s-1.39-.21-1.87-.64c-.48-.43-.72-.97-.72-1.63zm4.95 18.83h-4.68v-14.97h4.68v14.97zm8.31-18.7v3.72h2.46v3.24h-2.46v6.85c0 .56.1.95.3 1.18.2.22.6.33 1.2.33.46 0 .85-.03 1.16-.08v3.33c-.84.27-1.72.4-2.63.4-1.6 0-2.79-.38-3.56-1.13-.77-.76-1.15-1.9-1.15-3.44v-7.43h-1.91v-3.24h1.91v-3.72h4.68zm10.28 12.17l2.49-8.44h5l-6.1 17.47-.26.64c-.87 1.94-2.4 2.91-4.59 2.91-.61 0-1.25-.09-1.92-.28v-3.32h.61c.66 0 1.16-.09 1.5-.28.35-.19.6-.53.77-1.02l.37-1-5.2-15.12h4.98l2.35 8.44zm21.18-12.17v3.72h2.46v3.24h-2.46v6.85c0 .56.1.95.3 1.18.2.22.6.33 1.2.33.46 0 .85-.03 1.16-.08v3.33c-.84.27-1.72.4-2.63.4-1.6 0-2.79-.38-3.56-1.13-.77-.76-1.15-1.9-1.15-3.44v-7.43h-1.91v-3.24H130v-3.72h4.68zm8.85 5.33c1-1.25 2.27-1.88 3.82-1.88 1.65 0 2.9.49 3.74 1.47.84.98 1.27 2.42 1.29 4.33v9.45h-4.68v-9.34c0-.79-.16-1.38-.48-1.75-.32-.37-.87-.56-1.65-.56-.96 0-1.64.3-2.03.91v10.74h-4.66V194h4.66v7.88zm18.68 13.64c-2.3 0-4.16-.69-5.58-2.05-1.42-1.37-2.13-3.15-2.13-5.35v-.39c0-1.53.28-2.88.85-4.05s1.39-2.08 2.48-2.72c1.09-.64 2.38-.96 3.87-.96 2.1 0 3.76.65 4.98 1.96s1.83 3.12 1.83 5.46v1.81h-9.27c.17.84.53 1.5 1.09 1.98s1.29.72 2.19.72c1.48 0 2.63-.52 3.46-1.55l2.13 2.52c-.58.8-1.4 1.44-2.47 1.92-1.06.46-2.2.7-3.43.7zm-.52-11.92c-1.37 0-2.18.9-2.43 2.71h4.7v-.36c.02-.75-.17-1.33-.57-1.74-.4-.41-.97-.61-1.7-.61zm9.73 11.65v-11.73h-2.17v-3.24h2.17v-1.19c0-1.71.5-3.03 1.51-3.97 1-.94 2.42-1.41 4.23-1.41.66 0 1.39.1 2.19.29l.01 3.43c-.29-.08-.67-.12-1.15-.12-1.41 0-2.12.61-2.12 1.83v1.15h2.92v3.24h-2.92v11.73h-4.67zm14.67-18.7v3.72h2.46v3.24h-2.46v6.85c0 .56.1.95.3 1.18.2.22.6.33 1.2.33.46 0 .85-.03 1.16-.08v3.33c-.84.27-1.72.4-2.63.4-1.6 0-2.79-.38-3.56-1.13-.77-.76-1.15-1.9-1.15-3.44v-7.43h-1.91v-3.24h1.91v-3.72h4.68zm19.79 18.7c-.17-.3-.31-.75-.44-1.34-.86 1.08-2.06 1.62-3.6 1.62-1.41 0-2.61-.43-3.6-1.28-.99-.85-1.48-1.93-1.48-3.22 0-1.62.6-2.85 1.8-3.68 1.2-.83 2.94-1.25 5.23-1.25h1.44v-.79c0-1.38-.59-2.07-1.79-2.07-1.11 0-1.66.55-1.66 1.64h-4.66c0-1.45.62-2.62 1.85-3.52 1.23-.9 2.8-1.35 4.71-1.35s3.42.47 4.52 1.4c1.11.93 1.67 2.21 1.7 3.83v6.63c.02 1.37.23 2.43.64 3.15v.24h-4.66zm-2.92-3.05c.58 0 1.06-.12 1.45-.37s.66-.53.82-.84v-2.39h-1.36c-1.62 0-2.44.73-2.44 2.19 0 .42.14.77.43 1.03.29.25.65.38 1.1.38zm14.44 3.05h-4.68V194h4.68v21.25zm10.12.27c-2.3 0-4.16-.69-5.58-2.05-1.42-1.37-2.13-3.15-2.13-5.35v-.39c0-1.53.28-2.88.85-4.05s1.39-2.08 2.48-2.72c1.09-.64 2.38-.96 3.87-.96 2.1 0 3.76.65 4.98 1.96s1.83 3.12 1.83 5.46v1.81h-9.27c.17.84.53 1.5 1.09 1.98s1.29.72 2.19.72c1.48 0 2.63-.52 3.46-1.55l2.13 2.52c-.58.8-1.4 1.44-2.47 1.92-1.06.46-2.21.7-3.43.7zm-.53-11.92c-1.37 0-2.18.9-2.43 2.71h4.7v-.36c.02-.75-.17-1.33-.57-1.74-.4-.41-.96-.61-1.7-.61zm17.76.9l-1.54-.11c-1.47 0-2.41.46-2.82 1.38v9.48h-4.66v-14.97h4.37l.15 1.92c.78-1.47 1.88-2.2 3.28-2.2.5 0 .93.06 1.3.17l-.08 4.33zm7.81-7.95v3.72h2.46v3.24h-2.46v6.85c0 .56.1.95.3 1.18.2.22.6.33 1.2.33.46 0 .85-.03 1.16-.08v3.33c-.84.27-1.72.4-2.63.4-1.6 0-2.79-.38-3.56-1.13-.77-.76-1.15-1.9-1.15-3.44v-7.43h-1.91v-3.24h1.91v-3.72h4.68zm12.13 14.49c0-.4-.21-.71-.62-.95s-1.2-.49-2.37-.75-2.12-.6-2.88-1.02c-.76-.42-1.33-.93-1.73-1.53s-.59-1.29-.59-2.06c0-1.37.57-2.51 1.7-3.4s2.62-1.33 4.46-1.33c1.97 0 3.56.45 4.76 1.34 1.2.9 1.8 2.07 1.8 3.53h-4.68c0-1.2-.63-1.8-1.9-1.8-.49 0-.9.14-1.23.41s-.5.61-.5 1.02c0 .42.2.75.61 1.01s1.05.47 1.94.64c.89.17 1.67.36 2.34.6 2.25.77 3.38 2.16 3.38 4.16 0 1.37-.61 2.48-1.82 3.33-1.21.86-2.78 1.29-4.71 1.29-1.28 0-2.43-.23-3.43-.69-1.01-.46-1.79-1.09-2.35-1.88-.56-.79-.84-1.63-.84-2.5h4.36c.02.69.25 1.2.69 1.51.44.32 1.01.48 1.7.48.64 0 1.11-.13 1.43-.39s.48-.61.48-1.02zm29.05-3.79h-14.59v-3.65h14.59v3.65zm-239.07 42H40.61v-3.04l6.47-6.81c1.6-1.82 2.39-3.26 2.39-4.33 0-.87-.19-1.53-.57-1.98-.38-.45-.93-.68-1.65-.68-.71 0-1.29.3-1.73.91-.44.6-.66 1.36-.66 2.26h-4.68c0-1.24.31-2.38.93-3.42s1.48-1.87 2.57-2.46c1.1-.59 2.32-.89 3.68-.89 2.18 0 3.85.5 5.03 1.51 1.18 1.01 1.76 2.45 1.76 4.33 0 .79-.15 1.57-.44 2.32-.3.75-.75 1.54-1.38 2.37-.62.83-1.63 1.93-3.01 3.31l-2.6 3h7.93v3.6zm14.66-7.88h2.05v3.6h-2.05v4.28h-4.66v-4.28h-7.79l-.28-2.85 8.07-12.98v-.04h4.66v12.27zm-8.28 0h3.62v-6.2l-.29.47-3.33 5.73zm14.05 9.61h-3.3l6.88-21.87H82l-6.9 21.87zm22.28-19.39l-7.53 17.65h-4.92l7.54-16.55h-9.6v-3.6h14.51v2.5zm14.61 10.82v6.83h-4.86V229.1h8.04c1.54 0 2.9.28 4.09.85s2.1 1.37 2.75 2.42c.65 1.05.97 2.23.97 3.56 0 1.96-.7 3.53-2.11 4.71-1.41 1.18-3.34 1.76-5.79 1.76h-3.09zm0-3.75h3.18c.94 0 1.66-.24 2.15-.71s.74-1.13.74-1.99c0-.94-.25-1.69-.76-2.25s-1.2-.85-2.08-.86h-3.24v5.81zm22.29 8.97c-.99 1.26-2.32 1.9-4 1.9-1.64 0-2.88-.48-3.73-1.43s-1.27-2.33-1.27-4.12v-9.7h4.66V244c0 1.28.62 1.92 1.87 1.92 1.07 0 1.83-.38 2.28-1.15v-10.5h4.69v14.97h-4.37l-.13-1.61zm20.96-5.74c0 2.45-.51 4.34-1.52 5.66s-2.44 1.98-4.29 1.98c-1.52 0-2.75-.6-3.68-1.81l-.19 1.54h-4.18V228h4.66v7.48c.87-.99 1.99-1.48 3.36-1.48 1.86 0 3.3.67 4.32 2.01s1.52 3.22 1.52 5.65v.23zm-4.68-.3c0-1.44-.19-2.46-.57-3.07-.38-.61-.97-.92-1.76-.92-1.05 0-1.78.4-2.19 1.2v5.94c.4.79 1.13 1.19 2.21 1.19 1.1 0 1.79-.53 2.09-1.6.15-.53.22-1.44.22-2.74zm11.65 7.66h-4.68V228h4.68v21.25zm2.84-18.83c0-.66.24-1.21.72-1.63.48-.42 1.1-.64 1.87-.64s1.39.21 1.87.64c.48.42.72.97.72 1.63s-.24 1.21-.72 1.63c-.48.42-1.1.64-1.87.64s-1.39-.21-1.87-.64c-.48-.42-.72-.97-.72-1.63zm4.95 18.83h-4.68v-14.97H170v14.97zm9.2-3.32c.65 0 1.16-.18 1.52-.53s.54-.85.53-1.49h4.37c0 1.64-.59 2.99-1.76 4.04-1.18 1.05-2.69 1.58-4.54 1.58-2.18 0-3.89-.68-5.15-2.05-1.25-1.36-1.88-3.26-1.88-5.67v-.19c0-1.51.28-2.85.84-4.01.56-1.16 1.36-2.05 2.41-2.67s2.3-.93 3.74-.93c1.95 0 3.49.54 4.63 1.62 1.14 1.08 1.72 2.54 1.72 4.39h-4.37c0-.77-.19-1.37-.57-1.78-.38-.42-.88-.62-1.52-.62-1.21 0-1.91.77-2.12 2.31-.06.49-.1 1.16-.1 2.02 0 1.5.18 2.55.54 3.13.35.56.93.85 1.71.85zm18.44-7.29c-.54-.77-.97-1.51-1.28-2.21-.31-.7-.46-1.42-.46-2.17 0-1.62.53-2.94 1.58-3.94s2.43-1.5 4.12-1.5c1.52 0 2.78.46 3.78 1.39 1 .93 1.49 2.08 1.49 3.45 0 1.72-.95 3.24-2.84 4.57l-1.05.73 3.1 3.56c.51-1.01.76-2.13.76-3.33h3.92c0 2.72-.63 4.9-1.88 6.54l3.07 3.53h-5.2l-.94-1.07c-.77.46-1.57.8-2.37 1.02-.81.22-1.72.33-2.73.33-1.99 0-3.59-.52-4.79-1.57s-1.8-2.42-1.8-4.13c0-.93.24-1.78.71-2.53.47-.76 1.4-1.64 2.77-2.64l.04-.03zm3.37 7.3c.81 0 1.59-.19 2.32-.57l-3.62-4.12-.12.08c-.53.65-.79 1.37-.79 2.19 0 .67.21 1.25.64 1.72.41.47.94.7 1.57.7zm-1.08-11.75c0 .65.35 1.43 1.05 2.35l.93-.58c.42-.28.73-.56.93-.86.19-.29.29-.67.29-1.12 0-.42-.15-.79-.44-1.11-.29-.31-.66-.47-1.09-.47-.52 0-.92.16-1.22.49-.31.34-.45.77-.45 1.3zm21.08 15.06V229.1h6.49c1.78 0 3.38.4 4.8 1.21 1.42.81 2.53 1.95 3.33 3.42s1.2 3.12 1.21 4.95v.93c0 1.85-.39 3.5-1.17 4.96s-1.88 2.61-3.29 3.43c-1.42.83-3 1.24-4.74 1.25h-6.63zm4.86-16.4v12.66h1.69c1.39 0 2.46-.5 3.21-1.49s1.12-2.46 1.12-4.42v-.87c0-1.95-.37-3.41-1.12-4.4s-1.84-1.48-3.27-1.48h-1.63zm21.68 16.4c-.17-.3-.31-.75-.44-1.34-.86 1.08-2.06 1.62-3.6 1.62-1.41 0-2.61-.43-3.6-1.28-.99-.85-1.48-1.93-1.48-3.22 0-1.62.6-2.85 1.8-3.68 1.2-.83 2.94-1.25 5.23-1.25h1.44v-.79c0-1.38-.59-2.07-1.79-2.07-1.11 0-1.66.55-1.66 1.64h-4.66c0-1.45.62-2.62 1.85-3.52 1.23-.9 2.8-1.35 4.71-1.35s3.42.47 4.52 1.4c1.11.93 1.67 2.21 1.7 3.83v6.63c.02 1.37.23 2.43.64 3.15v.24h-4.66zm-2.92-3.05c.58 0 1.06-.12 1.45-.37s.66-.53.82-.84v-2.39h-1.36c-1.62 0-2.44.73-2.44 2.19 0 .42.14.77.43 1.03.29.25.66.38 1.1.38zm18.58-7.7l-1.54-.11c-1.47 0-2.41.46-2.82 1.38v9.48h-4.66v-14.97h4.37l.15 1.92c.78-1.47 1.88-2.2 3.28-2.2.5 0 .93.06 1.3.17l-.08 4.33zm7.69 5.17l-1.31 1.31v4.26h-4.66v-21.27h4.66v11.29l.47-.62 3.51-4.37h5.59l-5.24 6.16 5.59 8.81h-5.34l-3.27-5.57zM85.28 275.74l2.31-12.63h4.82l-4.28 20.14h-5.04l-2.7-11.48-2.64 11.48h-5.02l-4.29-20.14h4.83l2.31 12.63 2.77-12.63h4.12l2.81 12.63zm15.62 7.79c-2.3 0-4.16-.68-5.58-2.05-1.42-1.37-2.13-3.15-2.13-5.35v-.39c0-1.53.28-2.88.85-4.05s1.39-2.08 2.48-2.72c1.09-.64 2.38-.96 3.87-.96 2.1 0 3.76.65 4.98 1.96s1.83 3.12 1.83 5.46v1.81h-9.27c.17.84.53 1.5 1.09 1.98s1.29.72 2.19.72c1.48 0 2.63-.52 3.46-1.55l2.13 2.52c-.58.8-1.4 1.44-2.47 1.92-1.06.46-2.2.7-3.43.7zm-.53-11.93c-1.37 0-2.18.9-2.43 2.71h4.7v-.36c.02-.75-.17-1.32-.57-1.74-.39-.41-.96-.61-1.7-.61zm22.61 4.29c0 2.45-.51 4.34-1.52 5.66-1.01 1.32-2.44 1.98-4.29 1.98-1.52 0-2.75-.6-3.68-1.81l-.19 1.54h-4.18V262h4.66v7.48c.87-.99 1.99-1.48 3.36-1.48 1.86 0 3.3.67 4.32 2.01 1.01 1.34 1.52 3.22 1.52 5.64v.24zm-4.68-.3c0-1.44-.19-2.46-.57-3.07-.38-.61-.97-.92-1.76-.92-1.05 0-1.78.4-2.19 1.2v5.94c.4.79 1.13 1.19 2.21 1.19 1.1 0 1.79-.54 2.09-1.6.15-.53.22-1.44.22-2.74zm24.4 2.3c0-.71-.25-1.26-.75-1.66s-1.39-.81-2.65-1.23-2.3-.84-3.1-1.23c-2.61-1.28-3.92-3.04-3.92-5.29 0-1.12.33-2.1.98-2.95s1.57-1.52 2.76-1.99c1.19-.47 2.53-.71 4.01-.71 1.45 0 2.75.26 3.89.78 1.15.52 2.04 1.25 2.68 2.21.64.95.95 2.04.95 3.27h-4.84c0-.82-.25-1.46-.75-1.91-.5-.45-1.18-.68-2.04-.68-.87 0-1.55.19-2.05.57-.5.38-.75.87-.75 1.46 0 .52.28.98.83 1.4.55.42 1.53.85 2.92 1.3 1.39.45 2.54.93 3.43 1.45 2.18 1.25 3.26 2.98 3.26 5.19 0 1.76-.66 3.15-1.99 4.15-1.33 1.01-3.15 1.51-5.46 1.51-1.63 0-3.11-.29-4.43-.88s-2.32-1.39-2.99-2.41-1-2.19-1-3.52h4.87c0 1.08.28 1.88.84 2.39.56.51 1.46.77 2.72.77.8 0 1.44-.17 1.9-.52s.68-.84.68-1.47zm13.46 2.04c.65 0 1.16-.18 1.52-.53s.54-.85.53-1.49h4.37c0 1.64-.59 2.99-1.76 4.04s-2.69 1.58-4.54 1.58c-2.18 0-3.89-.68-5.15-2.05-1.25-1.37-1.88-3.26-1.88-5.67v-.2c0-1.51.28-2.85.84-4 .56-1.16 1.36-2.05 2.41-2.67 1.05-.62 2.3-.94 3.74-.94 1.95 0 3.49.54 4.63 1.62 1.14 1.08 1.72 2.54 1.72 4.39h-4.37c0-.78-.19-1.37-.57-1.79-.38-.42-.88-.62-1.52-.62-1.21 0-1.91.77-2.12 2.31-.06.49-.1 1.16-.1 2.02 0 1.5.18 2.55.54 3.13.35.58.92.87 1.71.87zm16.82 3.32c-.17-.3-.31-.75-.44-1.34-.86 1.08-2.06 1.62-3.6 1.62-1.41 0-2.61-.43-3.6-1.28-.99-.85-1.48-1.93-1.48-3.22 0-1.62.6-2.85 1.8-3.68s2.94-1.25 5.23-1.25h1.44v-.79c0-1.38-.59-2.07-1.79-2.07-1.11 0-1.66.55-1.66 1.64h-4.66c0-1.45.62-2.62 1.85-3.52s2.8-1.36 4.71-1.36 3.42.47 4.52 1.4c1.11.93 1.67 2.21 1.7 3.83v6.63c.02 1.38.23 2.43.64 3.15v.24h-4.66zm-2.92-3.04c.58 0 1.06-.12 1.45-.37.38-.25.66-.53.82-.84v-2.39h-1.36c-1.62 0-2.44.73-2.44 2.19 0 .42.14.77.43 1.03.3.24.66.38 1.1.38zm13.81-11.93l.15 1.76c1.03-1.36 2.46-2.04 4.27-2.04 1.56 0 2.72.47 3.49 1.4.77.93 1.17 2.33 1.2 4.21v9.64h-4.68v-9.45c0-.76-.15-1.31-.46-1.67s-.86-.53-1.66-.53c-.91 0-1.59.36-2.03 1.08v10.57h-4.66v-14.97h4.38zm15.98 0l.15 1.76c1.03-1.36 2.46-2.04 4.27-2.04 1.56 0 2.72.47 3.49 1.4.77.93 1.17 2.33 1.2 4.21v9.64h-4.68v-9.45c0-.76-.15-1.31-.46-1.67s-.86-.53-1.66-.53c-.91 0-1.59.36-2.03 1.08v10.57h-4.66v-14.97h4.38zm11.66-3.86c0-.66.24-1.21.72-1.63s1.1-.64 1.87-.64 1.39.21 1.87.64.72.97.72 1.63-.24 1.21-.72 1.63c-.48.42-1.1.63-1.87.63s-1.39-.21-1.87-.63c-.48-.42-.72-.97-.72-1.63zm4.96 18.83h-4.68v-14.97h4.68v14.97zm7.15-14.97l.15 1.76c1.03-1.36 2.46-2.04 4.27-2.04 1.56 0 2.72.47 3.49 1.4.77.93 1.17 2.33 1.2 4.21v9.64h-4.68v-9.45c0-.76-.15-1.31-.46-1.67s-.86-.53-1.66-.53c-.91 0-1.59.36-2.03 1.08v10.57h-4.66v-14.97h4.38zm11.15 7.37c0-1.51.25-2.85.75-4.01s1.21-2.06 2.14-2.69c.93-.63 2.02-.95 3.25-.95 1.56 0 2.78.53 3.65 1.58l.17-1.3h4.23v14.4c0 1.32-.31 2.46-.92 3.44-.61.97-1.5 1.72-2.66 2.24s-2.51.78-4.04.78c-1.1 0-2.16-.21-3.19-.62-1.03-.42-1.81-.96-2.36-1.62l1.95-2.74c.87 1.02 2.01 1.54 3.43 1.54 2.07 0 3.1-1.06 3.1-3.18v-.47c-.89.99-2.02 1.48-3.39 1.48-1.83 0-3.3-.7-4.43-2.1-1.13-1.4-1.69-3.27-1.69-5.61v-.17zm4.68.3c0 1.23.23 2.2.69 2.91s1.11 1.07 1.94 1.07c1 0 1.74-.34 2.2-1.01v-6.3c-.45-.68-1.18-1.02-2.17-1.02-.83 0-1.48.37-1.95 1.11-.48.75-.71 1.82-.71 3.24z"/></svg>