<svg id="Layer_1" xmlns="http://www.w3.org/2000/svg" viewBox="0 0 320 468"><style>.st0{fill:#021d8b}</style><path class="st0" d="M150.25 20.99h-2.66v7.34h-1.47v-7.34h-2.64v-1.2h6.77v1.2zM152.64 22.68c.46-.54 1.05-.81 1.76-.81 1.35 0 2.04.77 2.06 2.31v4.14h-1.42v-4.09c0-.44-.09-.75-.28-.93s-.47-.27-.83-.27c-.57 0-1 .25-1.28.76v4.53h-1.42v-9h1.42v3.36zM160.69 28.44c-.9 0-1.63-.28-2.19-.85s-.84-1.33-.84-2.27v-.18c0-.63.12-1.2.37-1.7s.59-.89 1.03-1.16.93-.42 1.48-.42c.86 0 1.53.28 2 .83s.71 1.33.71 2.34v.57h-4.14c.04.52.22.94.52 1.24s.69.46 1.16.46c.65 0 1.18-.26 1.59-.79l.77.73c-.25.38-.59.67-1.02.88s-.91.32-1.44.32zm-.17-5.43c-.39 0-.71.14-.95.41s-.39.65-.46 1.14h2.71v-.11c-.03-.48-.16-.84-.38-1.08s-.52-.36-.92-.36z"/><g><path class="st0" d="M146.26 62.57c-.06-.12-.12-.32-.16-.59-.45.47-1.01.71-1.66.71-.64 0-1.16-.18-1.56-.54s-.6-.81-.6-1.35c0-.68.25-1.19.75-1.56s1.22-.54 2.15-.54h.87v-.42c0-.33-.09-.59-.28-.79s-.46-.3-.84-.3c-.32 0-.59.08-.8.24s-.31.37-.31.62h-1.42c0-.35.12-.67.35-.98s.54-.54.94-.71.84-.26 1.33-.26c.74 0 1.33.19 1.78.56s.67.9.68 1.57v2.86c0 .57.08 1.03.24 1.37v.1h-1.46zm-1.57-1.02c.28 0 .55-.07.79-.21s.43-.32.56-.55v-1.2h-.77c-.53 0-.92.09-1.19.28s-.4.44-.4.78c0 .27.09.49.27.65s.44.25.74.25zM154.51 59.47c0 .98-.22 1.76-.67 2.35s-1.04.88-1.79.88c-.7 0-1.25-.23-1.67-.69v3.01h-1.42v-8.78h1.31l.06.64c.42-.51.99-.76 1.71-.76.77 0 1.38.29 1.82.86s.66 1.38.66 2.4v.09zm-1.42-.12c0-.63-.13-1.13-.38-1.51s-.61-.56-1.08-.56c-.58 0-1 .24-1.25.72v2.81c.26.49.68.74 1.27.74.45 0 .81-.18 1.06-.55s.38-.91.38-1.65zM161.27 59.47c0 .98-.22 1.76-.67 2.35s-1.04.88-1.79.88c-.7 0-1.25-.23-1.67-.69v3.01h-1.42v-8.78h1.31l.06.64c.42-.51.99-.76 1.71-.76.77 0 1.38.29 1.82.86s.66 1.38.66 2.4v.09zm-1.42-.12c0-.63-.13-1.13-.38-1.51s-.61-.56-1.08-.56c-.58 0-1 .24-1.25.72v2.81c.26.49.68.74 1.27.74.45 0 .81-.18 1.06-.55s.38-.91.38-1.65zM163.36 61.07c.27 0 .47.08.62.23s.22.34.22.57c0 .22-.07.41-.22.55s-.35.22-.62.22c-.25 0-.46-.07-.6-.22s-.22-.33-.22-.56.07-.42.22-.57.34-.22.6-.22z"/></g><g id="PG_x5F_Logo_x5F_Full_3_"><path class="st0" d="M227.67 39.85c0-.19.07-.35.2-.48s.29-.2.48-.2c.18 0 .34.07.47.2.14.13.21.29.21.48v7.51c0 .19-.07.35-.2.48s-.29.2-.48.2a.65.65 0 0 1-.47-.2.63.63 0 0 1-.21-.48v-7.51zM189.75 51.7c-.56.41-1.21.62-1.95.62a6.01 6.01 0 0 1-.99-.16 2.4 2.4 0 0 1-.67-.31c-.2-.14-.3-.33-.3-.58a.663.663 0 0 1 .68-.68c.15 0 .29.04.41.12.3.17.61.25.94.25a1.886 1.886 0 0 0 1.71-1.08c.09-.21.15-.44.16-.69v-5.08c0-.19.07-.35.2-.48s.29-.2.48-.2c.18 0 .33.06.47.2.14.13.2.29.2.48v5.13c-.01.98-.49 1.85-1.34 2.46zM159.29 36.78c0-.19.06-.35.2-.48a.668.668 0 0 1 .95 0c.14.13.2.29.2.48v.51c0 .19-.07.35-.2.48s-.29.2-.48.2c-.18 0-.33-.06-.47-.2a.62.62 0 0 1-.2-.48v-.51zm0 3.13c0-.19.06-.35.2-.48a.668.668 0 0 1 .95 0c.14.13.2.29.2.48v7.46c0 .19-.07.35-.2.48s-.29.2-.48.2c-.18 0-.33-.06-.47-.2a.62.62 0 0 1-.2-.48v-7.46zM153.42 40.09c0-.18.06-.34.19-.47.13-.13.28-.19.47-.19.15 0 .29.05.41.15.12.1.2.23.23.39.54-.41 1.18-.61 1.91-.61.41.03.73.09.96.16.24.07.45.17.65.3.2.13.3.32.3.56 0 .2-.06.36-.19.48s-.28.18-.47.18c-.15 0-.28-.04-.4-.12-.29-.16-.6-.24-.92-.24-.25 0-.49.05-.7.14a2 2 0 0 0-.57.37c-.17.16-.3.34-.39.55-.09.21-.14.43-.16.68v4.97c0 .19-.06.34-.19.47-.13.13-.28.19-.47.19-.17 0-.33-.06-.46-.19a.634.634 0 0 1-.2-.47V40.09zM161.57 40.16a.592.592 0 0 1-.05-.27c0-.17.06-.32.18-.46a.6.6 0 0 1 .48-.21.696.696 0 0 1 .62.41l2.63 6.13 2.63-6.13c.12-.27.33-.41.62-.41.2 0 .36.07.48.21.12.14.18.3.18.46 0 .09-.02.18-.05.27l-3.23 7.55c-.13.27-.34.41-.62.41-.31 0-.51-.14-.62-.41l-3.25-7.55zM169.54 42.36c0-.44.08-.85.25-1.24.17-.39.4-.73.69-1.02.3-.29.64-.52 1.02-.68.38-.17.8-.25 1.25-.25.44 0 .85.08 1.24.25.39.17.73.39 1.02.68.29.29.52.63.69 1.02.17.39.26.81.26 1.24v5.01c0 .19-.07.35-.2.48-.14.13-.29.2-.47.2a.69.69 0 0 1-.44-.15c-.12-.1-.2-.23-.22-.38-.54.4-1.17.6-1.88.6-.44 0-.85-.08-1.24-.25-.39-.17-.73-.39-1.02-.68-.29-.29-.52-.63-.69-1.02-.17-.39-.26-.8-.26-1.24v-2.57zm1.35 2.55c0 .25.05.49.15.71.1.22.23.42.4.59.17.17.36.3.59.4a1.963 1.963 0 0 0 1.43.01c.22-.09.42-.21.59-.37a1.851 1.851 0 0 0 .57-1.25v-2.65c0-.25-.05-.49-.15-.71-.1-.22-.23-.42-.4-.59-.17-.17-.36-.3-.59-.4a1.963 1.963 0 0 0-1.45 0c-.23.09-.42.23-.59.4-.17.17-.3.37-.4.59-.09.23-.14.46-.14.71v2.56zM177.21 42.36c0-.45.09-.87.26-1.26s.41-.73.71-1.01.65-.51 1.05-.67c.4-.17.82-.25 1.27-.25.08 0 .25.02.49.04.24.03.51.11.81.24.3.13.59.33.88.59.29.27.53.64.72 1.11.04.09.05.18.05.25 0 .19-.07.35-.2.48s-.29.2-.48.2c-.14 0-.27-.04-.38-.12a.671.671 0 0 1-.24-.31c-.17-.35-.4-.63-.71-.83-.31-.2-.65-.3-1.01-.3-.26 0-.5.05-.73.14-.23.09-.42.23-.59.4-.17.17-.3.37-.4.59-.09.23-.14.46-.14.71v2.56c0 .25.05.49.15.71.1.22.23.42.4.59.17.17.36.3.59.4.23.09.47.14.72.14.38 0 .72-.1 1.03-.3.31-.2.54-.48.69-.83.06-.13.14-.23.25-.31a.657.657 0 0 1 .85.08c.13.14.2.29.2.47 0 .08-.02.17-.05.25-.24.52-.52.92-.85 1.19-.33.27-.65.47-.97.59-.31.12-.58.18-.8.2-.22.01-.33.02-.35.02-.44 0-.85-.08-1.24-.25-.39-.17-.73-.39-1.02-.68-.29-.29-.52-.63-.69-1.02-.17-.39-.26-.8-.26-1.24v-2.57zM201.67 39.91c0-.19.06-.35.2-.48a.668.668 0 0 1 .95 0c.14.13.2.29.2.48v5.01a1.814 1.814 0 0 0 .54 1.3c.17.17.37.3.59.4a1.937 1.937 0 0 0 1.45 0c.23-.09.43-.23.59-.4.17-.17.3-.37.4-.59.1-.22.15-.46.15-.71v-5.01c0-.19.06-.35.2-.48a.668.668 0 0 1 .95 0c.14.13.2.29.2.48v5.01c0 .44-.09.85-.26 1.24s-.4.73-.69 1.02c-.29.29-.63.52-1.02.68-.39.17-.81.25-1.24.25-.45 0-.87-.08-1.25-.25-.38-.17-.73-.39-1.02-.68-.3-.29-.53-.63-.69-1.02-.17-.39-.25-.8-.25-1.24v-5.01zM209.36 42.36c0-.44.08-.85.25-1.24.17-.39.4-.73.69-1.02.3-.29.64-.52 1.02-.68.38-.17.8-.25 1.25-.25.44 0 .85.08 1.24.25.39.17.73.39 1.02.68.29.29.52.63.69 1.02.17.39.26.81.26 1.24v5.01c0 .19-.07.35-.2.48-.14.13-.29.2-.47.2a.69.69 0 0 1-.44-.15c-.12-.1-.2-.23-.22-.38-.54.4-1.17.6-1.88.6-.44 0-.85-.08-1.24-.25-.39-.17-.73-.39-1.02-.68-.29-.29-.52-.63-.69-1.02-.17-.39-.26-.8-.26-1.24v-2.57zm1.35 2.55c0 .25.05.49.15.71.1.22.23.42.4.59.17.17.36.3.59.4a1.963 1.963 0 0 0 1.43.01c.22-.09.42-.21.59-.37a1.851 1.851 0 0 0 .57-1.25v-2.65c0-.25-.05-.49-.15-.71-.1-.22-.23-.42-.4-.59-.17-.17-.36-.3-.59-.4a1.963 1.963 0 0 0-1.45 0c-.23.09-.42.23-.59.4-.17.17-.3.37-.4.59-.09.23-.14.46-.14.71v2.56zM217.1 40.09c0-.18.06-.34.19-.47.13-.13.28-.19.47-.19.15 0 .29.05.41.15.12.1.2.23.23.39.54-.41 1.18-.61 1.91-.61.41.03.73.09.96.16.24.07.45.17.65.3.2.13.3.32.3.56 0 .2-.06.36-.19.48s-.28.18-.47.18c-.15 0-.28-.04-.4-.12-.29-.16-.6-.24-.92-.24-.25 0-.49.05-.7.14a2 2 0 0 0-.57.37c-.17.16-.3.34-.39.55-.09.21-.14.43-.16.68v4.97c0 .19-.06.34-.19.47-.13.13-.28.19-.47.19-.17 0-.33-.06-.46-.19a.634.634 0 0 1-.2-.47V40.09z"/><path class="st0" d="M227.69 36.78c0-.19.06-.35.2-.48a.668.668 0 0 1 .95 0c.14.13.2.29.2.48v8.13c0 .44-.09.85-.26 1.24s-.4.73-.69 1.02c-.29.29-.63.52-1.02.68-.39.17-.81.25-1.24.25-.45 0-.87-.08-1.25-.25-.38-.17-.73-.39-1.02-.68-.3-.29-.53-.63-.69-1.02-.17-.39-.25-.8-.25-1.24v-2.56c0-.44.09-.85.26-1.24s.4-.73.69-1.02c.29-.29.63-.52 1.02-.68.39-.17.8-.25 1.24-.25.34 0 .67.05.99.16.31.11.61.25.88.44v-2.98zm-3.73 8.13a1.814 1.814 0 0 0 .54 1.3c.17.17.37.3.59.4a1.937 1.937 0 0 0 1.45 0c.23-.09.43-.23.59-.4.17-.17.3-.37.4-.59.1-.22.15-.46.15-.71v-2.56a1.814 1.814 0 0 0-.54-1.3c-.17-.17-.37-.3-.59-.4a1.937 1.937 0 0 0-1.45 0c-.23.09-.43.23-.59.4-.17.17-.3.37-.4.59-.1.23-.15.46-.15.71v2.56zM184.66 39.91c0-.19.06-.35.2-.48a.668.668 0 0 1 .95 0c.14.13.2.29.2.48v5.01a1.814 1.814 0 0 0 .54 1.3c.17.17.37.3.59.4a1.937 1.937 0 0 0 1.45 0c.23-.09.43-.23.59-.4.17-.17.3-.37.4-.59.1-.22.15-.46.15-.71v-5.01c0-.19.06-.35.2-.48a.668.668 0 0 1 .95 0c.14.13.2.29.2.48v5.01c0 .44-.09.85-.26 1.24s-.4.73-.69 1.02c-.29.29-.63.52-1.02.68-.39.17-.81.25-1.24.25-.45 0-.87-.08-1.25-.25-.38-.17-.73-.39-1.02-.68-.3-.29-.53-.63-.69-1.02-.17-.39-.25-.8-.25-1.24v-5.01zM199.78 42.09h-2.81c-.38 0-.68.29-.68.65 0 .38.3.68.68.68h2.24v1.06c0 1.45-1.31 2.54-2.69 2.54-1.53 0-2.82-1.04-2.82-2.82v-4.05c0-1.65 1.24-2.82 2.77-2.82 1.29 0 2.28.86 2.66 1.93.13.22.3.36.61.36.53 0 .86-.42.6-1.03-.43-1.3-1.76-2.64-3.87-2.64-2.42 0-4.17 1.92-4.17 4.12v4.21c0 2.22 1.75 4.13 4.17 4.13 2.18 0 4.03-1.71 4.03-3.65v-2.03c0-.39-.34-.64-.72-.64z"/><path class="st0" d="M227.69 39.91c0-.19.06-.35.2-.48a.668.668 0 0 1 .95 0c.14.13.2.29.2.48v7.46c0 .19-.07.35-.2.48s-.29.2-.48.2c-.18 0-.33-.06-.47-.2a.62.62 0 0 1-.2-.48v-7.46z"/><g><path class="st0" d="M144.87 37.24c0-.18.06-.34.19-.47.13-.13.28-.19.47-.19h2.68c.57 0 1.1.11 1.6.32.5.21.93.5 1.31.87a4.022 4.022 0 0 1 1.22 2.89c0 .57-.11 1.1-.33 1.59-.22.49-.52.92-.89 1.29s-.81.66-1.31.88c-.5.21-1.04.32-1.61.32h-2.02v2.64c0 .19-.06.34-.19.47-.13.13-.28.19-.47.19-.17 0-.33-.06-.46-.19a.634.634 0 0 1-.2-.47V37.24zm1.32.66v5.52h2.02c.39 0 .76-.07 1.1-.22.34-.14.64-.34.89-.59.25-.25.45-.54.6-.88.14-.34.22-.69.22-1.08 0-.38-.08-.74-.23-1.08-.15-.34-.35-.63-.61-.88-.25-.25-.55-.45-.89-.59-.34-.14-.7-.22-1.09-.22h-2.01z"/></g><g><path class="st0" d="M229.96 36.38h-.25v-.18h.71v.18h-.25v.75h-.21v-.75zM231.31 36.77c0-.11-.01-.25-.01-.38-.03.12-.07.25-.1.36l-.11.36h-.16l-.1-.36a3.8 3.8 0 0 1-.08-.36c-.01.13-.01.27-.02.38l-.02.35h-.19l.06-.93h.28l.09.31c.03.11.06.22.08.33.03-.11.06-.23.09-.33l.1-.31h.27l.05.93h-.21l-.02-.35z"/></g></g></svg>