<?xml version="1.0" encoding="utf-8"?>
<!-- Generator: Adobe Illustrator 25.3.1, SVG Export Plug-In . SVG Version: 6.00 Build 0)  -->
<svg version="1.1" id="Layer_1" xmlns="http://www.w3.org/2000/svg" xmlns:xlink="http://www.w3.org/1999/xlink" x="0px" y="0px"
	 viewBox="0 0 160 600" style="enable-background:new 0 0 160 600;" xml:space="preserve">
<style type="text/css">
	.st0{fill:#FFFFFF;}
</style>
<g>
	<path class="st0" d="M29.91,169.23v-12.8h4.12c1.13,0,2.15,0.26,3.05,0.77s1.61,1.24,2.11,2.17s0.76,1.98,0.77,3.14v0.59
		c0,1.17-0.25,2.22-0.74,3.15s-1.19,1.66-2.09,2.18s-1.9,0.79-3.01,0.8H29.91z M33,158.81v8.04h1.07c0.88,0,1.56-0.31,2.04-0.94
		s0.71-1.57,0.71-2.81v-0.55c0-1.24-0.24-2.17-0.71-2.79s-1.17-0.94-2.07-0.94H33z"/>
	<path class="st0" d="M41.04,164.38c0-0.95,0.18-1.79,0.55-2.54s0.9-1.31,1.59-1.71s1.5-0.6,2.43-0.6c1.42,0,2.55,0.44,3.37,1.32
		s1.23,2.08,1.23,3.6v0.11c0,1.48-0.41,2.66-1.23,3.53s-1.94,1.31-3.34,1.31c-1.35,0-2.44-0.41-3.26-1.22s-1.26-1.91-1.33-3.3
		L41.04,164.38z M44,164.57c0,0.88,0.14,1.52,0.41,1.93s0.68,0.62,1.22,0.62c1.05,0,1.59-0.81,1.62-2.43v-0.3
		c0-1.71-0.54-2.56-1.63-2.56c-0.99,0-1.53,0.74-1.61,2.21L44,164.57z"/>
	<path class="st0" d="M54.24,159.72l0.1,1.12c0.66-0.86,1.56-1.29,2.72-1.29c0.99,0,1.73,0.3,2.22,0.89s0.74,1.48,0.76,2.67v6.13
		h-2.97v-6c0-0.48-0.1-0.83-0.29-1.06s-0.54-0.34-1.05-0.34c-0.58,0-1.01,0.23-1.29,0.69v6.71h-2.96v-9.51H54.24z"/>
	<path class="st0" d="M62.63,157.15l-0.29,3.63h-1.82v-5.05h2.11V157.15z"/>
	<path class="st0" d="M67.2,157.35v2.36h1.56v2.06H67.2v4.35c0,0.36,0.06,0.61,0.19,0.75s0.38,0.21,0.76,0.21
		c0.29,0,0.54-0.02,0.74-0.05v2.12c-0.53,0.17-1.09,0.25-1.67,0.25c-1.02,0-1.77-0.24-2.26-0.72s-0.73-1.21-0.73-2.19v-4.72h-1.21
		v-2.06h1.21v-2.36H67.2z"/>
	<path class="st0" d="M83.24,164.55c0,1.56-0.32,2.76-0.97,3.59s-1.55,1.26-2.72,1.26c-0.97,0-1.75-0.38-2.34-1.15l-0.12,0.98h-2.65
		v-13.5h2.96v4.75c0.55-0.63,1.26-0.94,2.14-0.94c1.18,0,2.1,0.42,2.74,1.27s0.97,2.04,0.97,3.59V164.55z M80.27,164.36
		c0-0.91-0.12-1.56-0.36-1.95c-0.24-0.39-0.62-0.58-1.12-0.58c-0.67,0-1.13,0.25-1.39,0.76v3.77c0.25,0.5,0.72,0.75,1.41,0.75
		c0.7,0,1.14-0.34,1.33-1.02C80.22,165.76,80.27,165.19,80.27,164.36z"/>
	<path class="st0" d="M89.14,169.4c-1.46,0-2.64-0.44-3.54-1.31s-1.35-2-1.35-3.4v-0.25c0-0.97,0.18-1.83,0.54-2.58
		s0.89-1.32,1.58-1.73s1.51-0.61,2.46-0.61c1.34,0,2.39,0.41,3.16,1.24s1.16,1.98,1.16,3.47v1.15h-5.89
		c0.11,0.53,0.34,0.95,0.69,1.26s0.82,0.46,1.39,0.46c0.94,0,1.67-0.33,2.2-0.98l1.35,1.6c-0.37,0.51-0.89,0.92-1.57,1.22
		S89.92,169.4,89.14,169.4z M88.81,161.83c-0.87,0-1.38,0.57-1.55,1.72h2.99v-0.23c0.01-0.47-0.11-0.84-0.36-1.1
		S89.28,161.83,88.81,161.83z"/>
	<path class="st0" d="M107.65,164.54c0,1.48-0.33,2.66-1,3.54s-1.56,1.32-2.69,1.32c-0.87,0-1.59-0.32-2.15-0.96v4.44h-2.96v-13.17
		h2.77l0.09,0.88c0.57-0.7,1.32-1.05,2.24-1.05c1.17,0,2.08,0.43,2.73,1.3s0.98,2.05,0.98,3.56V164.54z M104.69,164.36
		c0-1.69-0.49-2.53-1.48-2.53c-0.7,0-1.17,0.25-1.41,0.76v3.74c0.26,0.53,0.73,0.79,1.42,0.79c0.94,0,1.43-0.81,1.46-2.44V164.36z"
		/>
	<path class="st0" d="M114.32,169.23c-0.11-0.19-0.2-0.48-0.28-0.85c-0.54,0.69-1.31,1.03-2.29,1.03c-0.9,0-1.66-0.27-2.29-0.81
		s-0.94-1.22-0.94-2.04c0-1.03,0.38-1.81,1.14-2.34s1.87-0.79,3.32-0.79h0.91v-0.5c0-0.88-0.38-1.32-1.13-1.32
		c-0.7,0-1.05,0.35-1.05,1.04h-2.96c0-0.92,0.39-1.66,1.17-2.24c0.78-0.57,1.78-0.86,2.99-0.86s2.17,0.3,2.87,0.89
		s1.06,1.4,1.08,2.43v4.21c0.01,0.87,0.15,1.54,0.4,2v0.15H114.32z M112.46,167.29c0.37,0,0.67-0.08,0.92-0.24s0.42-0.34,0.52-0.54
		V165h-0.86c-1.03,0-1.55,0.46-1.55,1.39c0,0.27,0.09,0.49,0.27,0.65S112.18,167.29,112.46,167.29z"/>
	<path class="st0" d="M124.26,162.4l-0.98-0.07c-0.93,0-1.53,0.29-1.79,0.88v6.02h-2.96v-9.51h2.78l0.1,1.22
		c0.5-0.93,1.19-1.4,2.08-1.4c0.32,0,0.59,0.04,0.83,0.11L124.26,162.4z"/>
	<path class="st0" d="M129.22,157.35v2.36h1.56v2.06h-1.56v4.35c0,0.36,0.06,0.61,0.19,0.75s0.38,0.21,0.76,0.21
		c0.29,0,0.54-0.02,0.74-0.05v2.12c-0.53,0.17-1.09,0.25-1.67,0.25c-1.02,0-1.77-0.24-2.26-0.72s-0.73-1.21-0.73-2.19v-4.72h-1.21
		v-2.06h1.21v-2.36H129.22z"/>
	<path class="st0" d="M27.35,185.98c0-0.95,0.18-1.79,0.55-2.54c0.37-0.74,0.9-1.31,1.59-1.71s1.5-0.6,2.43-0.6
		c1.42,0,2.55,0.44,3.37,1.32c0.82,0.88,1.23,2.08,1.23,3.6v0.11c0,1.48-0.41,2.66-1.23,3.53c-0.82,0.87-1.94,1.3-3.34,1.3
		c-1.35,0-2.44-0.41-3.26-1.22s-1.26-1.91-1.33-3.3L27.35,185.98z M30.31,186.17c0,0.88,0.14,1.52,0.41,1.93s0.68,0.62,1.22,0.62
		c1.05,0,1.59-0.81,1.62-2.43v-0.3c0-1.71-0.54-2.56-1.63-2.56c-0.99,0-1.53,0.74-1.61,2.21L30.31,186.17z"/>
	<path class="st0" d="M38.48,190.83v-7.45H37.1v-2.06h1.38v-0.76c0-1.08,0.32-1.92,0.96-2.52s1.54-0.9,2.69-0.9
		c0.42,0,0.88,0.06,1.39,0.18l0.01,2.18c-0.18-0.05-0.42-0.08-0.73-0.08c-0.9,0-1.34,0.39-1.34,1.16v0.73h1.85v2.06h-1.85v7.45
		H38.48z"/>
	<path class="st0" d="M52.28,178.95v2.36h1.56v2.06h-1.56v4.35c0,0.36,0.06,0.61,0.19,0.75s0.38,0.21,0.76,0.21
		c0.29,0,0.54-0.02,0.74-0.05v2.12c-0.53,0.17-1.09,0.25-1.67,0.25c-1.02,0-1.77-0.24-2.26-0.72s-0.73-1.21-0.73-2.19v-4.72h-1.21
		v-2.06h1.21v-2.36H52.28z"/>
	<path class="st0" d="M57.91,182.34c0.63-0.8,1.44-1.2,2.43-1.2c1.05,0,1.84,0.31,2.37,0.93s0.81,1.54,0.82,2.75v6h-2.97v-5.93
		c0-0.5-0.1-0.87-0.31-1.11c-0.21-0.24-0.55-0.36-1.05-0.36c-0.61,0-1.04,0.19-1.29,0.58v6.82h-2.96v-13.5h2.96V182.34z"/>
	<path class="st0" d="M65.15,178.86c0-0.42,0.15-0.77,0.46-1.04s0.7-0.4,1.19-0.4s0.88,0.13,1.19,0.4s0.46,0.62,0.46,1.04
		s-0.15,0.77-0.46,1.04s-0.7,0.4-1.19,0.4s-0.88-0.13-1.19-0.4S65.15,179.29,65.15,178.86z M68.3,190.83h-2.97v-9.51h2.97V190.83z"
		/>
	<path class="st0" d="M75.1,188.15c0-0.25-0.13-0.45-0.4-0.61s-0.76-0.31-1.5-0.47s-1.35-0.38-1.83-0.65s-0.85-0.59-1.1-0.97
		s-0.38-0.82-0.38-1.31c0-0.87,0.36-1.59,1.08-2.16c0.72-0.56,1.66-0.85,2.83-0.85c1.25,0,2.26,0.28,3.02,0.85s1.14,1.32,1.14,2.24
		H75c0-0.76-0.4-1.14-1.2-1.14c-0.31,0-0.57,0.09-0.78,0.26s-0.32,0.39-0.32,0.65c0,0.26,0.13,0.48,0.39,0.64s0.67,0.3,1.23,0.4
		s1.06,0.23,1.49,0.38c1.43,0.49,2.14,1.37,2.14,2.65c0,0.87-0.39,1.57-1.16,2.12S75.03,191,73.81,191c-0.81,0-1.54-0.15-2.18-0.44
		s-1.14-0.69-1.49-1.2s-0.54-1.03-0.54-1.59h2.77c0.01,0.44,0.16,0.76,0.44,0.96c0.28,0.2,0.64,0.3,1.08,0.3
		c0.4,0,0.71-0.08,0.91-0.25S75.1,188.42,75.1,188.15z"/>
	<path class="st0" d="M92.65,186.15c0,1.56-0.32,2.76-0.97,3.59S90.13,191,88.96,191c-0.97,0-1.75-0.38-2.34-1.15l-0.12,0.98h-2.65
		v-13.5h2.96v4.75c0.55-0.63,1.26-0.94,2.14-0.94c1.18,0,2.1,0.42,2.74,1.27s0.97,2.04,0.97,3.59V186.15z M89.68,185.96
		c0-0.91-0.12-1.56-0.37-1.95c-0.24-0.39-0.62-0.58-1.12-0.58c-0.67,0-1.13,0.25-1.39,0.76v3.77c0.25,0.5,0.72,0.75,1.41,0.75
		c0.7,0,1.14-0.34,1.33-1.02C89.63,187.36,89.68,186.79,89.68,185.96z"/>
	<path class="st0" d="M93.93,178.86c0-0.42,0.15-0.77,0.46-1.04s0.7-0.4,1.19-0.4s0.88,0.13,1.19,0.4s0.46,0.62,0.46,1.04
		s-0.15,0.77-0.46,1.04s-0.7,0.4-1.19,0.4s-0.88-0.13-1.19-0.4S93.93,179.29,93.93,178.86z M97.08,190.83h-2.97v-9.51h2.97V190.83z"
		/>
	<path class="st0" d="M102.03,190.83h-2.97v-13.5h2.97V190.83z"/>
	<path class="st0" d="M106.98,190.83h-2.97v-13.5h2.97V190.83z"/>
	<path class="st0" d="M108.78,178.86c0-0.42,0.15-0.77,0.46-1.04s0.7-0.4,1.19-0.4s0.88,0.13,1.19,0.4s0.46,0.62,0.46,1.04
		s-0.15,0.77-0.46,1.04s-0.7,0.4-1.19,0.4s-0.88-0.13-1.19-0.4S108.78,179.29,108.78,178.86z M111.92,190.83h-2.97v-9.51h2.97
		V190.83z"/>
	<path class="st0" d="M113.38,185.98c0-0.95,0.18-1.79,0.55-2.54c0.37-0.74,0.9-1.31,1.59-1.71s1.5-0.6,2.43-0.6
		c1.42,0,2.55,0.44,3.37,1.32c0.82,0.88,1.23,2.08,1.23,3.6v0.11c0,1.48-0.41,2.66-1.24,3.53c-0.82,0.87-1.94,1.3-3.34,1.3
		c-1.35,0-2.44-0.41-3.26-1.22s-1.26-1.91-1.33-3.3L113.38,185.98z M116.34,186.17c0,0.88,0.14,1.52,0.41,1.93s0.68,0.62,1.22,0.62
		c1.05,0,1.59-0.81,1.62-2.43v-0.3c0-1.71-0.54-2.56-1.63-2.56c-0.99,0-1.53,0.74-1.61,2.21L116.34,186.17z"/>
	<path class="st0" d="M126.58,181.32l0.1,1.12c0.66-0.86,1.56-1.29,2.72-1.29c0.99,0,1.73,0.3,2.22,0.89s0.74,1.48,0.76,2.67v6.13
		h-2.97v-6c0-0.48-0.1-0.83-0.29-1.06c-0.19-0.22-0.54-0.34-1.05-0.34c-0.58,0-1.01,0.23-1.29,0.69v6.71h-2.96v-9.51H126.58z"/>
	<path class="st0" d="M34.99,207.6c0-1.51,0.33-2.69,0.98-3.56s1.56-1.3,2.72-1.3c0.85,0,1.56,0.33,2.14,1v-4.82h2.97v13.5h-2.66
		l-0.15-1.02c-0.61,0.8-1.38,1.2-2.32,1.2c-1.13,0-2.03-0.43-2.69-1.3S34.99,209.2,34.99,207.6z M37.95,207.78
		c0,1.69,0.49,2.53,1.48,2.53c0.66,0,1.12-0.28,1.41-0.83v-3.62c-0.27-0.56-0.73-0.84-1.39-0.84c-0.91,0-1.41,0.74-1.49,2.21
		L37.95,207.78z"/>
	<path class="st0" d="M45.11,207.58c0-0.95,0.18-1.79,0.55-2.54c0.37-0.74,0.9-1.31,1.59-1.71s1.5-0.6,2.43-0.6
		c1.42,0,2.55,0.44,3.37,1.32c0.82,0.88,1.23,2.08,1.23,3.6v0.11c0,1.48-0.41,2.66-1.23,3.53c-0.82,0.87-1.94,1.3-3.34,1.3
		c-1.35,0-2.44-0.41-3.26-1.22s-1.26-1.91-1.33-3.3L45.11,207.58z M48.07,207.77c0,0.88,0.14,1.52,0.41,1.93s0.68,0.62,1.22,0.62
		c1.05,0,1.59-0.81,1.62-2.43v-0.3c0-1.71-0.54-2.56-1.63-2.56c-0.99,0-1.53,0.74-1.61,2.21L48.07,207.77z"/>
	<path class="st0" d="M58.72,212.43h-2.97v-13.5h2.97V212.43z"/>
	<path class="st0" d="M63.66,212.43h-2.97v-13.5h2.97V212.43z"/>
	<path class="st0" d="M70.84,212.43c-0.11-0.19-0.2-0.48-0.28-0.85c-0.54,0.69-1.31,1.03-2.29,1.03c-0.9,0-1.66-0.27-2.29-0.81
		s-0.94-1.22-0.94-2.04c0-1.03,0.38-1.81,1.14-2.34s1.87-0.79,3.32-0.79h0.91v-0.5c0-0.88-0.38-1.32-1.13-1.32
		c-0.7,0-1.05,0.35-1.05,1.04h-2.96c0-0.92,0.39-1.67,1.17-2.24s1.78-0.86,2.99-0.86s2.17,0.3,2.87,0.89s1.06,1.4,1.08,2.43v4.21
		c0.01,0.87,0.15,1.54,0.4,2v0.15H70.84z M68.99,210.49c0.37,0,0.68-0.08,0.92-0.24s0.42-0.34,0.52-0.54v-1.52h-0.86
		c-1.03,0-1.55,0.46-1.55,1.39c0,0.27,0.09,0.49,0.27,0.66C68.48,210.41,68.71,210.49,68.99,210.49z"/>
	<path class="st0" d="M80.79,205.6l-0.98-0.07c-0.93,0-1.53,0.29-1.79,0.88v6.02h-2.96v-9.51h2.78l0.1,1.22
		c0.5-0.93,1.19-1.4,2.08-1.4c0.32,0,0.59,0.04,0.83,0.11L80.79,205.6z"/>
	<path class="st0" d="M90.37,210.32c0.42,0,0.74-0.11,0.97-0.34s0.34-0.54,0.33-0.95h2.78c0,1.04-0.37,1.9-1.12,2.57s-1.71,1-2.89,1
		c-1.38,0-2.47-0.43-3.27-1.3s-1.2-2.07-1.2-3.6v-0.12c0-0.96,0.18-1.81,0.53-2.54c0.35-0.73,0.87-1.3,1.53-1.7
		c0.67-0.4,1.46-0.59,2.37-0.59c1.24,0,2.22,0.34,2.94,1.03s1.09,1.61,1.09,2.79h-2.78c0-0.49-0.12-0.87-0.36-1.13
		s-0.56-0.4-0.97-0.4c-0.77,0-1.22,0.49-1.34,1.47c-0.04,0.31-0.06,0.74-0.06,1.28c0,0.96,0.11,1.62,0.34,1.99
		S89.87,210.32,90.37,210.32z"/>
	<path class="st0" d="M98.82,212.43h-2.97v-13.5h2.97V212.43z"/>
	<path class="st0" d="M106.31,211.4c-0.63,0.8-1.47,1.2-2.54,1.2c-1.04,0-1.83-0.3-2.37-0.91c-0.54-0.61-0.8-1.48-0.8-2.61v-6.16
		h2.96v6.18c0,0.81,0.4,1.22,1.19,1.22c0.68,0,1.16-0.24,1.45-0.73v-6.67h2.98v9.51h-2.78L106.31,211.4z"/>
	<path class="st0" d="M119.62,207.75c0,1.56-0.32,2.76-0.97,3.59s-1.55,1.26-2.72,1.26c-0.97,0-1.75-0.38-2.34-1.15l-0.12,0.98
		h-2.65v-13.5h2.96v4.75c0.55-0.63,1.26-0.94,2.14-0.94c1.18,0,2.1,0.42,2.74,1.27s0.97,2.04,0.97,3.59V207.75z M116.65,207.56
		c0-0.91-0.12-1.56-0.37-1.95c-0.24-0.39-0.62-0.58-1.12-0.58c-0.67,0-1.13,0.25-1.39,0.76v3.77c0.25,0.5,0.72,0.75,1.41,0.75
		c0.7,0,1.14-0.34,1.33-1.02C116.61,208.96,116.65,208.39,116.65,207.56z"/>
	<path class="st0" d="M122.76,209.55c0.47,0,0.86,0.14,1.17,0.42c0.31,0.28,0.47,0.63,0.47,1.07s-0.16,0.79-0.47,1.07
		s-0.7,0.42-1.17,0.42c-0.47,0-0.87-0.14-1.17-0.42s-0.46-0.64-0.46-1.06s0.15-0.78,0.46-1.06S122.29,209.55,122.76,209.55z"/>
</g>
</svg>
