<?xml version="1.0" encoding="utf-8"?>
<!-- Generator: Adobe Illustrator 25.3.1, SVG Export Plug-In . SVG Version: 6.00 Build 0)  -->
<svg version="1.1" id="Layer_1" xmlns="http://www.w3.org/2000/svg" xmlns:xlink="http://www.w3.org/1999/xlink" x="0px" y="0px"
	 viewBox="0 0 160 600" style="enable-background:new 0 0 160 600;" xml:space="preserve">
<style type="text/css">
	.st0{fill:#FFFFFF;}
</style>
<g>
	<path class="st0" d="M68.99,201.26h-3.84v10.42h-3.08v-10.42h-3.77v-2.38h10.7V201.26z"/>
	<path class="st0" d="M67.95,206.83c0-0.95,0.18-1.79,0.55-2.54c0.37-0.74,0.9-1.31,1.59-1.71s1.5-0.6,2.43-0.6
		c1.42,0,2.55,0.44,3.37,1.32c0.82,0.88,1.23,2.08,1.23,3.6v0.11c0,1.48-0.41,2.66-1.23,3.53c-0.82,0.87-1.94,1.3-3.34,1.3
		c-1.35,0-2.44-0.41-3.26-1.22s-1.26-1.91-1.33-3.3L67.95,206.83z M70.91,207.02c0,0.88,0.14,1.52,0.41,1.93s0.68,0.62,1.22,0.62
		c1.05,0,1.59-0.81,1.62-2.43v-0.3c0-1.71-0.54-2.56-1.63-2.56c-0.99,0-1.53,0.74-1.61,2.21L70.91,207.02z"/>
	<path class="st0" d="M81.88,199.8v2.36h1.56v2.06h-1.56v4.35c0,0.36,0.06,0.61,0.19,0.75s0.38,0.21,0.76,0.21
		c0.29,0,0.54-0.02,0.74-0.05v2.12c-0.53,0.17-1.09,0.25-1.67,0.25c-1.02,0-1.77-0.24-2.26-0.72s-0.73-1.21-0.73-2.19v-4.72H77.7
		v-2.06h1.21v-2.36H81.88z"/>
	<path class="st0" d="M89.96,211.68c-0.11-0.19-0.2-0.48-0.28-0.85c-0.54,0.69-1.31,1.03-2.29,1.03c-0.9,0-1.66-0.27-2.29-0.81
		s-0.94-1.22-0.94-2.04c0-1.03,0.38-1.81,1.14-2.34s1.87-0.79,3.32-0.79h0.91v-0.5c0-0.88-0.38-1.32-1.13-1.32
		c-0.7,0-1.05,0.35-1.05,1.04H84.4c0-0.92,0.39-1.67,1.17-2.24s1.78-0.86,2.99-0.86s2.17,0.3,2.87,0.89s1.06,1.4,1.08,2.43v4.21
		c0.01,0.87,0.15,1.54,0.4,2v0.15H89.96z M88.11,209.74c0.37,0,0.68-0.08,0.92-0.24s0.42-0.34,0.52-0.54v-1.52h-0.86
		c-1.03,0-1.55,0.46-1.55,1.39c0,0.27,0.09,0.49,0.27,0.66C87.6,209.66,87.83,209.74,88.11,209.74z"/>
	<path class="st0" d="M97.29,211.68h-2.97v-13.5h2.97V211.68z"/>
	<path class="st0" d="M42.92,233.57c0.42,0,0.74-0.11,0.97-0.34s0.34-0.54,0.33-0.95H47c0,1.04-0.37,1.9-1.12,2.57s-1.71,1-2.89,1
		c-1.38,0-2.47-0.43-3.27-1.3s-1.2-2.07-1.2-3.6v-0.12c0-0.96,0.18-1.81,0.53-2.54c0.35-0.73,0.87-1.3,1.53-1.7
		c0.67-0.4,1.46-0.59,2.37-0.59c1.24,0,2.22,0.34,2.94,1.03S47,228.63,47,229.8h-2.78c0-0.49-0.12-0.87-0.36-1.13
		s-0.56-0.4-0.97-0.4c-0.77,0-1.22,0.49-1.34,1.47c-0.04,0.31-0.06,0.74-0.06,1.28c0,0.96,0.11,1.62,0.34,1.99
		S42.42,233.57,42.92,233.57z"/>
	<path class="st0" d="M47.87,230.83c0-0.95,0.18-1.79,0.55-2.54c0.37-0.74,0.9-1.31,1.59-1.71s1.5-0.6,2.43-0.6
		c1.42,0,2.55,0.44,3.37,1.32c0.82,0.88,1.23,2.08,1.23,3.6v0.11c0,1.48-0.41,2.66-1.23,3.53c-0.82,0.87-1.94,1.3-3.34,1.3
		c-1.35,0-2.44-0.41-3.26-1.22s-1.26-1.91-1.33-3.3L47.87,230.83z M50.84,231.02c0,0.88,0.14,1.52,0.41,1.93s0.68,0.62,1.22,0.62
		c1.05,0,1.59-0.81,1.62-2.43v-0.3c0-1.71-0.54-2.56-1.63-2.56c-0.99,0-1.53,0.74-1.61,2.21L50.84,231.02z"/>
	<path class="st0" d="M61.15,226.17l0.1,1.12c0.67-0.86,1.58-1.29,2.72-1.29c1.2,0,2.01,0.48,2.43,1.43
		c0.64-0.96,1.58-1.43,2.79-1.43c1.93,0,2.92,1.17,2.97,3.5v6.19H69.2v-6c0-0.49-0.08-0.84-0.25-1.06s-0.46-0.33-0.9-0.33
		c-0.59,0-1.02,0.26-1.31,0.78l0.01,0.12v6.5h-2.97v-5.99c0-0.5-0.08-0.86-0.24-1.08s-0.46-0.33-0.91-0.33c-0.57,0-1,0.26-1.3,0.78
		v6.62h-2.96v-9.51H61.15z"/>
	<path class="st0" d="M82.69,231c0,1.56-0.32,2.76-0.97,3.59s-1.55,1.26-2.72,1.26c-0.97,0-1.75-0.38-2.34-1.15l-0.12,0.98h-2.65
		v-13.5h2.96v4.75c0.55-0.63,1.26-0.94,2.14-0.94c1.18,0,2.1,0.42,2.74,1.27s0.97,2.04,0.97,3.59V231z M79.72,230.81
		c0-0.91-0.12-1.56-0.36-1.95c-0.24-0.39-0.62-0.58-1.12-0.58c-0.67,0-1.13,0.25-1.39,0.76v3.77c0.25,0.5,0.72,0.75,1.41,0.75
		c0.7,0,1.14-0.34,1.33-1.02C79.67,232.21,79.72,231.64,79.72,230.81z"/>
	<path class="st0" d="M83.97,223.71c0-0.42,0.15-0.77,0.46-1.04s0.7-0.4,1.19-0.4s0.88,0.13,1.19,0.4s0.46,0.62,0.46,1.04
		s-0.15,0.77-0.46,1.04s-0.7,0.4-1.19,0.4s-0.88-0.13-1.19-0.4S83.97,224.14,83.97,223.71z M87.12,235.68h-2.97v-9.51h2.97V235.68z"
		/>
	<path class="st0" d="M91.66,226.17l0.1,1.12c0.66-0.86,1.56-1.29,2.72-1.29c0.99,0,1.73,0.3,2.22,0.89s0.74,1.48,0.76,2.67v6.13
		h-2.97v-6c0-0.48-0.1-0.83-0.29-1.06c-0.19-0.22-0.54-0.34-1.05-0.34c-0.58,0-1.01,0.23-1.29,0.69v6.71h-2.96v-9.51H91.66z"/>
	<path class="st0" d="M103.69,235.85c-1.46,0-2.64-0.44-3.54-1.3c-0.9-0.87-1.35-2-1.35-3.4v-0.25c0-0.97,0.18-1.83,0.54-2.58
		s0.89-1.32,1.58-1.73s1.51-0.61,2.46-0.61c1.34,0,2.39,0.42,3.16,1.24s1.16,1.98,1.16,3.47v1.15h-5.89
		c0.11,0.53,0.34,0.95,0.69,1.26s0.82,0.46,1.39,0.46c0.94,0,1.67-0.33,2.2-0.98l1.35,1.6c-0.37,0.51-0.89,0.92-1.57,1.22
		C105.2,235.7,104.47,235.85,103.69,235.85z M103.36,228.28c-0.87,0-1.38,0.57-1.55,1.72h2.99v-0.23c0.01-0.47-0.11-0.84-0.36-1.1
		C104.19,228.41,103.83,228.28,103.36,228.28z"/>
	<path class="st0" d="M108.52,230.85c0-1.51,0.33-2.69,0.98-3.56s1.56-1.3,2.72-1.3c0.85,0,1.56,0.33,2.14,1v-4.82h2.97v13.5h-2.66
		l-0.15-1.02c-0.61,0.8-1.38,1.2-2.32,1.2c-1.13,0-2.03-0.43-2.69-1.3S108.52,232.45,108.52,230.85z M111.48,231.04
		c0,1.69,0.49,2.53,1.48,2.53c0.66,0,1.12-0.28,1.41-0.83v-3.62c-0.27-0.56-0.73-0.84-1.39-0.84c-0.91,0-1.41,0.74-1.49,2.21
		L111.48,231.04z"/>
	<path class="st0" d="M29.66,259.68v-7.45h-1.38v-2.06h1.38v-0.76c0-1.08,0.32-1.92,0.96-2.52s1.54-0.9,2.69-0.9
		c0.42,0,0.88,0.06,1.39,0.18l0.01,2.18c-0.18-0.05-0.42-0.08-0.73-0.08c-0.9,0-1.34,0.39-1.34,1.16v0.73h1.85v2.06h-1.85v7.45
		H29.66z"/>
	<path class="st0" d="M41.28,252.85l-0.98-0.07c-0.93,0-1.53,0.29-1.79,0.88v6.02h-2.96v-9.51h2.78l0.1,1.22
		c0.5-0.93,1.19-1.4,2.08-1.4c0.32,0,0.59,0.04,0.83,0.11L41.28,252.85z"/>
	<path class="st0" d="M47.44,259.68c-0.11-0.19-0.2-0.48-0.28-0.85c-0.54,0.69-1.31,1.03-2.29,1.03c-0.9,0-1.66-0.27-2.29-0.81
		s-0.94-1.22-0.94-2.04c0-1.03,0.38-1.81,1.14-2.34s1.87-0.79,3.32-0.79h0.91v-0.5c0-0.88-0.38-1.32-1.13-1.32
		c-0.7,0-1.05,0.35-1.05,1.04h-2.96c0-0.92,0.39-1.67,1.17-2.24s1.78-0.86,2.99-0.86s2.17,0.3,2.87,0.89s1.06,1.4,1.08,2.43v4.21
		c0.01,0.87,0.15,1.54,0.4,2v0.15H47.44z M45.58,257.74c0.37,0,0.68-0.08,0.92-0.24s0.42-0.34,0.52-0.54v-1.52h-0.86
		c-1.03,0-1.55,0.46-1.55,1.39c0,0.27,0.09,0.49,0.27,0.66C45.07,257.66,45.3,257.74,45.58,257.74z"/>
	<path class="st0" d="M57.3,258.65c-0.63,0.8-1.47,1.2-2.54,1.2c-1.04,0-1.83-0.3-2.37-0.91c-0.54-0.61-0.8-1.48-0.8-2.61v-6.16
		h2.96v6.18c0,0.81,0.4,1.22,1.19,1.22c0.68,0,1.16-0.24,1.45-0.73v-6.67h2.98v9.51h-2.78L57.3,258.65z"/>
	<path class="st0" d="M61.41,254.85c0-1.51,0.33-2.69,0.98-3.56s1.56-1.3,2.72-1.3c0.85,0,1.56,0.33,2.14,1v-4.82h2.97v13.5h-2.66
		l-0.15-1.02c-0.61,0.8-1.38,1.2-2.32,1.2c-1.13,0-2.03-0.43-2.69-1.3S61.41,256.45,61.41,254.85z M64.38,255.04
		c0,1.69,0.49,2.53,1.48,2.53c0.66,0,1.12-0.28,1.41-0.83v-3.62c-0.27-0.56-0.73-0.84-1.39-0.84c-0.91,0-1.41,0.74-1.49,2.21
		L64.38,255.04z"/>
	<path class="st0" d="M79.52,259.68h-2.97v-13.5h2.97V259.68z"/>
	<path class="st0" d="M80.97,254.83c0-0.95,0.19-1.79,0.55-2.54c0.37-0.74,0.9-1.31,1.59-1.71s1.5-0.6,2.43-0.6
		c1.42,0,2.55,0.44,3.37,1.32c0.82,0.88,1.23,2.08,1.23,3.6v0.11c0,1.48-0.41,2.66-1.24,3.53c-0.82,0.87-1.94,1.3-3.34,1.3
		c-1.35,0-2.44-0.41-3.26-1.22s-1.26-1.91-1.33-3.3L80.97,254.83z M83.93,255.02c0,0.88,0.14,1.52,0.41,1.93s0.68,0.62,1.22,0.62
		c1.05,0,1.59-0.81,1.62-2.43v-0.3c0-1.71-0.54-2.56-1.63-2.56c-0.99,0-1.53,0.74-1.61,2.21L83.93,255.02z"/>
	<path class="st0" d="M96.43,257c0-0.25-0.13-0.45-0.4-0.61s-0.76-0.31-1.5-0.47s-1.35-0.38-1.83-0.65s-0.85-0.59-1.1-0.97
		s-0.38-0.82-0.38-1.31c0-0.87,0.36-1.59,1.08-2.16c0.72-0.56,1.66-0.85,2.83-0.85c1.25,0,2.26,0.28,3.02,0.85s1.14,1.32,1.14,2.24
		h-2.97c0-0.76-0.4-1.14-1.2-1.14c-0.31,0-0.57,0.09-0.78,0.26s-0.32,0.39-0.32,0.65c0,0.26,0.13,0.48,0.39,0.64s0.67,0.3,1.23,0.4
		s1.06,0.23,1.49,0.38c1.43,0.49,2.14,1.37,2.14,2.65c0,0.87-0.39,1.57-1.16,2.12s-1.77,0.82-2.99,0.82c-0.81,0-1.54-0.15-2.18-0.44
		s-1.14-0.69-1.49-1.2s-0.54-1.03-0.54-1.59h2.77c0.01,0.44,0.16,0.76,0.44,0.96c0.28,0.2,0.64,0.3,1.08,0.3
		c0.4,0,0.71-0.08,0.91-0.25S96.43,257.27,96.43,257z"/>
	<path class="st0" d="M105.65,257c0-0.25-0.13-0.45-0.4-0.61s-0.76-0.31-1.5-0.47s-1.35-0.38-1.83-0.65s-0.85-0.59-1.1-0.97
		s-0.38-0.82-0.38-1.31c0-0.87,0.36-1.59,1.08-2.16c0.72-0.56,1.66-0.85,2.83-0.85c1.25,0,2.26,0.28,3.02,0.85s1.14,1.32,1.14,2.24
		h-2.97c0-0.76-0.4-1.14-1.2-1.14c-0.31,0-0.57,0.09-0.78,0.26s-0.32,0.39-0.32,0.65c0,0.26,0.13,0.48,0.39,0.64s0.67,0.3,1.23,0.4
		s1.06,0.23,1.49,0.38c1.43,0.49,2.14,1.37,2.14,2.65c0,0.87-0.39,1.57-1.16,2.12s-1.77,0.82-2.99,0.82c-0.81,0-1.54-0.15-2.18-0.44
		s-1.14-0.69-1.49-1.2s-0.54-1.03-0.54-1.59h2.77c0.01,0.44,0.16,0.76,0.44,0.96c0.28,0.2,0.64,0.3,1.08,0.3
		c0.4,0,0.71-0.08,0.91-0.25S105.65,257.27,105.65,257z"/>
	<path class="st0" d="M114.49,259.85c-1.46,0-2.64-0.44-3.54-1.3c-0.9-0.87-1.35-2-1.35-3.4v-0.25c0-0.97,0.18-1.83,0.54-2.58
		c0.36-0.74,0.89-1.32,1.58-1.73s1.51-0.61,2.46-0.61c1.34,0,2.39,0.42,3.16,1.24s1.16,1.98,1.16,3.47v1.15h-5.89
		c0.11,0.53,0.34,0.95,0.69,1.26s0.82,0.46,1.39,0.46c0.94,0,1.67-0.33,2.2-0.98l1.35,1.6c-0.37,0.51-0.89,0.92-1.57,1.22
		C116,259.7,115.27,259.85,114.49,259.85z M114.16,252.28c-0.87,0-1.38,0.57-1.55,1.72h2.99v-0.23c0.01-0.47-0.11-0.84-0.36-1.1
		C114.99,252.41,114.62,252.28,114.16,252.28z"/>
	<path class="st0" d="M124.67,257c0-0.25-0.13-0.45-0.4-0.61s-0.76-0.31-1.5-0.47s-1.35-0.38-1.83-0.65s-0.85-0.59-1.1-0.97
		s-0.38-0.82-0.38-1.31c0-0.87,0.36-1.59,1.08-2.16c0.72-0.56,1.66-0.85,2.83-0.85c1.25,0,2.26,0.28,3.02,0.85s1.14,1.32,1.14,2.24
		h-2.97c0-0.76-0.4-1.14-1.2-1.14c-0.31,0-0.57,0.09-0.78,0.26s-0.32,0.39-0.32,0.65c0,0.26,0.13,0.48,0.39,0.64s0.67,0.3,1.23,0.4
		s1.06,0.23,1.49,0.38c1.43,0.49,2.14,1.37,2.14,2.65c0,0.87-0.39,1.57-1.16,2.12s-1.77,0.82-2.99,0.82c-0.81,0-1.54-0.15-2.18-0.44
		s-1.14-0.69-1.49-1.2s-0.54-1.03-0.54-1.59h2.77c0.01,0.44,0.16,0.76,0.44,0.96c0.28,0.2,0.64,0.3,1.08,0.3
		c0.4,0,0.71-0.08,0.91-0.25C124.57,257.48,124.67,257.27,124.67,257z"/>
	<path class="st0" d="M42.56,281.57c0.42,0,0.74-0.11,0.97-0.34s0.34-0.54,0.33-0.95h2.78c0,1.04-0.37,1.9-1.12,2.57s-1.71,1-2.89,1
		c-1.38,0-2.47-0.43-3.27-1.3s-1.2-2.07-1.2-3.6v-0.12c0-0.96,0.18-1.81,0.53-2.54c0.35-0.73,0.87-1.3,1.53-1.7
		c0.67-0.4,1.46-0.59,2.37-0.59c1.24,0,2.22,0.34,2.94,1.03s1.09,1.61,1.09,2.79h-2.78c0-0.49-0.12-0.87-0.36-1.13
		s-0.56-0.4-0.97-0.4c-0.77,0-1.22,0.49-1.34,1.47c-0.04,0.31-0.06,0.74-0.06,1.28c0,0.96,0.11,1.62,0.34,1.99
		S42.06,281.57,42.56,281.57z"/>
	<path class="st0" d="M51.02,283.68h-2.97v-13.5h2.97V283.68z"/>
	<path class="st0" d="M52.82,271.71c0-0.42,0.15-0.77,0.46-1.04s0.7-0.4,1.19-0.4s0.88,0.13,1.19,0.4s0.46,0.62,0.46,1.04
		s-0.15,0.77-0.46,1.04s-0.7,0.4-1.19,0.4s-0.88-0.13-1.19-0.4S52.82,272.14,52.82,271.71z M55.96,283.68h-2.97v-9.51h2.97V283.68z"
		/>
	<path class="st0" d="M60.59,274.17l0.1,1.12c0.67-0.86,1.58-1.29,2.72-1.29c1.2,0,2.01,0.48,2.43,1.43
		c0.64-0.96,1.58-1.43,2.79-1.43c1.93,0,2.92,1.17,2.97,3.5v6.19h-2.97v-6c0-0.49-0.08-0.84-0.25-1.06s-0.46-0.33-0.9-0.33
		c-0.59,0-1.02,0.26-1.31,0.78l0.01,0.12v6.5h-2.97v-5.99c0-0.5-0.08-0.86-0.24-1.08s-0.46-0.33-0.91-0.33c-0.57,0-1,0.26-1.3,0.78
		v6.62h-2.96v-9.51H60.59z"/>
	<path class="st0" d="M82.12,279c0,1.56-0.32,2.76-0.97,3.59c-0.65,0.84-1.55,1.26-2.73,1.26c-0.97,0-1.75-0.38-2.34-1.15
		l-0.12,0.98h-2.65v-13.5h2.96v4.75c0.55-0.63,1.26-0.94,2.14-0.94c1.18,0,2.1,0.42,2.74,1.27c0.64,0.85,0.97,2.04,0.97,3.59V279z
		 M79.15,278.81c0-0.91-0.12-1.56-0.36-1.95c-0.24-0.39-0.62-0.58-1.12-0.58c-0.67,0-1.13,0.25-1.39,0.76v3.77
		c0.25,0.5,0.72,0.75,1.41,0.75c0.7,0,1.14-0.34,1.33-1.02C79.1,280.21,79.15,279.64,79.15,278.81z"/>
	<path class="st0" d="M88.03,283.85c-1.46,0-2.64-0.44-3.54-1.3c-0.9-0.87-1.35-2-1.35-3.4v-0.25c0-0.97,0.18-1.83,0.54-2.58
		s0.89-1.32,1.58-1.73s1.51-0.61,2.46-0.61c1.34,0,2.39,0.42,3.16,1.24s1.16,1.98,1.16,3.47v1.15h-5.89
		c0.11,0.53,0.34,0.95,0.69,1.26s0.82,0.46,1.39,0.46c0.94,0,1.67-0.33,2.2-0.98l1.35,1.6c-0.37,0.51-0.89,0.92-1.57,1.22
		C89.53,283.7,88.81,283.85,88.03,283.85z M87.69,276.28c-0.87,0-1.38,0.57-1.55,1.72h2.99v-0.23c0.01-0.47-0.11-0.84-0.36-1.1
		C88.52,276.41,88.16,276.28,87.69,276.28z"/>
	<path class="st0" d="M92.85,278.85c0-1.51,0.33-2.69,0.98-3.56s1.56-1.3,2.72-1.3c0.85,0,1.56,0.33,2.14,1v-4.82h2.97v13.5H99
		l-0.15-1.02c-0.61,0.8-1.38,1.2-2.32,1.2c-1.13,0-2.03-0.43-2.69-1.3S92.85,280.45,92.85,278.85z M95.81,279.04
		c0,1.69,0.49,2.53,1.48,2.53c0.66,0,1.12-0.28,1.41-0.83v-3.62c-0.27-0.56-0.73-0.84-1.39-0.84c-0.91,0-1.41,0.74-1.49,2.21
		L95.81,279.04z"/>
	<path class="st0" d="M111.28,271.8v2.36h1.56v2.06h-1.56v4.35c0,0.36,0.06,0.61,0.19,0.75s0.38,0.21,0.76,0.21
		c0.29,0,0.54-0.02,0.74-0.05v2.12c-0.53,0.17-1.09,0.25-1.67,0.25c-1.02,0-1.77-0.24-2.26-0.72s-0.73-1.21-0.73-2.19v-4.72h-1.21
		v-2.06h1.21v-2.36H111.28z"/>
	<path class="st0" d="M113.38,278.83c0-0.95,0.18-1.79,0.55-2.54c0.37-0.74,0.9-1.31,1.59-1.71s1.5-0.6,2.43-0.6
		c1.42,0,2.55,0.44,3.37,1.32c0.82,0.88,1.23,2.08,1.23,3.6v0.11c0,1.48-0.41,2.66-1.23,3.53c-0.82,0.87-1.94,1.3-3.34,1.3
		c-1.35,0-2.44-0.41-3.26-1.22s-1.26-1.91-1.33-3.3L113.38,278.83z M116.34,279.02c0,0.88,0.14,1.52,0.41,1.93s0.68,0.62,1.22,0.62
		c1.05,0,1.59-0.81,1.62-2.43v-0.3c0-1.71-0.54-2.56-1.63-2.56c-0.99,0-1.53,0.74-1.61,2.21L116.34,279.02z"/>
</g>
</svg>
