<?xml version="1.0" encoding="utf-8"?>
<!-- Generator: Adobe Illustrator 25.3.1, SVG Export Plug-In . SVG Version: 6.00 Build 0)  -->
<svg version="1.1" id="Layer_1" xmlns="http://www.w3.org/2000/svg" xmlns:xlink="http://www.w3.org/1999/xlink" x="0px" y="0px"
	 viewBox="0 0 160 600" style="enable-background:new 0 0 160 600;" xml:space="preserve">
<style type="text/css">
	.st0{fill:#021D8B;stroke:url(#SVGID_1_);stroke-width:2;stroke-miterlimit:10;}
	.st1{fill:#FFFFFF;}
</style>
<linearGradient id="SVGID_1_" gradientUnits="userSpaceOnUse" x1="8.4094" y1="303.8313" x2="151.658" y2="303.8313">
	<stop  offset="0" style="stop-color:#18B9FB"/>
	<stop  offset="0.5" style="stop-color:#782EEB"/>
	<stop  offset="1" style="stop-color:#E82D8A"/>
</linearGradient>
<path class="st0" d="M133.86,335.66H26.21c-9.28,0-16.8-7.52-16.8-16.8V288.8c0-9.28,7.52-16.8,16.8-16.8h107.64
	c9.28,0,16.8,7.52,16.8,16.8v30.06C150.66,328.14,143.14,335.66,133.86,335.66z"/>
<g>
	<path class="st1" d="M21.13,297.5h4.58v1.73h-6.73v-10.46h2.16V297.5z"/>
	<path class="st1" d="M30.39,299.38c-1.14,0-2.07-0.35-2.78-1.05c-0.72-0.7-1.07-1.63-1.07-2.79v-0.2c0-0.78,0.15-1.48,0.45-2.09
		c0.3-0.62,0.73-1.09,1.28-1.42c0.55-0.33,1.18-0.5,1.89-0.5c1.06,0,1.9,0.34,2.51,1.01c0.61,0.67,0.92,1.62,0.92,2.85v0.85h-4.95
		c0.07,0.51,0.27,0.92,0.61,1.22c0.34,0.31,0.77,0.46,1.28,0.46c0.8,0,1.42-0.29,1.88-0.87l1.02,1.14
		c-0.31,0.44-0.73,0.79-1.26,1.03C31.62,299.25,31.04,299.38,30.39,299.38z M30.15,292.99c-0.41,0-0.75,0.14-1,0.42
		s-0.42,0.68-0.49,1.2h2.89v-0.17c-0.01-0.46-0.13-0.82-0.37-1.07C30.93,293.11,30.59,292.99,30.15,292.99z"/>
	<path class="st1" d="M39.27,299.23c-0.1-0.19-0.17-0.42-0.21-0.7c-0.5,0.56-1.16,0.84-1.96,0.84c-0.76,0-1.39-0.22-1.89-0.66
		c-0.5-0.44-0.75-1-0.75-1.67c0-0.82,0.31-1.46,0.92-1.9s1.49-0.66,2.65-0.67h0.96v-0.45c0-0.36-0.09-0.65-0.28-0.86
		c-0.18-0.22-0.48-0.32-0.87-0.32c-0.35,0-0.62,0.08-0.82,0.25s-0.3,0.4-0.3,0.69h-2.08c0-0.45,0.14-0.87,0.42-1.25
		c0.28-0.38,0.67-0.68,1.18-0.9c0.51-0.22,1.08-0.33,1.71-0.33c0.96,0,1.72,0.24,2.28,0.72c0.56,0.48,0.84,1.16,0.84,2.03v3.37
		c0,0.74,0.11,1.3,0.31,1.67v0.12H39.27z M37.55,297.79c0.31,0,0.59-0.07,0.85-0.21c0.26-0.14,0.45-0.32,0.57-0.55v-1.34H38.2
		c-1.04,0-1.59,0.36-1.66,1.08l-0.01,0.12c0,0.26,0.09,0.47,0.27,0.64C36.99,297.7,37.24,297.79,37.55,297.79z"/>
	<path class="st1" d="M47.02,293.4c-0.28-0.04-0.53-0.06-0.75-0.06c-0.79,0-1.3,0.27-1.54,0.8v5.09h-2.08v-7.77h1.96l0.06,0.93
		c0.42-0.71,0.99-1.07,1.73-1.07c0.23,0,0.45,0.03,0.65,0.09L47.02,293.4z"/>
	<path class="st1" d="M49.93,291.46l0.06,0.9c0.56-0.69,1.3-1.04,2.23-1.04c0.82,0,1.44,0.24,1.84,0.73
		c0.4,0.48,0.61,1.21,0.62,2.17v5.02h-2.08v-4.97c0-0.44-0.1-0.76-0.29-0.96c-0.19-0.2-0.51-0.3-0.96-0.3
		c-0.58,0-1.02,0.25-1.31,0.75v5.48h-2.08v-7.77H49.93z"/>
	<path class="st1" d="M68.58,299.23h-2.16v-4.48h-4.2v4.48h-2.16v-10.46h2.16v4.24h4.2v-4.24h2.16V299.23z"/>
	<path class="st1" d="M70,295.27c0-0.77,0.15-1.46,0.45-2.06c0.3-0.6,0.72-1.07,1.28-1.4c0.56-0.33,1.21-0.5,1.94-0.5
		c1.05,0,1.91,0.32,2.57,0.96s1.03,1.51,1.11,2.62l0.01,0.53c0,1.19-0.33,2.15-1,2.87c-0.67,0.72-1.56,1.08-2.68,1.08
		c-1.12,0-2.02-0.36-2.68-1.08c-0.67-0.72-1-1.7-1-2.93V295.27z M72.08,295.42c0,0.74,0.14,1.3,0.42,1.69
		c0.28,0.39,0.68,0.59,1.19,0.59c0.5,0,0.9-0.19,1.18-0.58c0.28-0.39,0.42-1,0.42-1.85c0-0.72-0.14-1.29-0.42-1.68
		s-0.68-0.6-1.19-0.6c-0.51,0-0.9,0.2-1.18,0.59C72.22,293.98,72.08,294.59,72.08,295.42z"/>
	<path class="st1" d="M85.4,296.41l1.02-4.95h2l-1.98,7.77h-1.74l-1.47-4.89l-1.47,4.89h-1.73l-1.98-7.77h2l1.01,4.94l1.42-4.94h1.5
		L85.4,296.41z"/>
	<path class="st1" d="M100.7,290.52h-3.2v8.72h-2.16v-8.72h-3.16v-1.75h8.52V290.52z"/>
	<path class="st1" d="M99.98,295.27c0-0.77,0.15-1.46,0.45-2.06c0.3-0.6,0.72-1.07,1.28-1.4c0.56-0.33,1.21-0.5,1.94-0.5
		c1.05,0,1.91,0.32,2.57,0.96c0.66,0.64,1.03,1.51,1.11,2.62l0.01,0.53c0,1.19-0.33,2.15-1,2.87c-0.67,0.72-1.56,1.08-2.68,1.08
		s-2.02-0.36-2.68-1.08c-0.67-0.72-1-1.7-1-2.93V295.27z M102.05,295.42c0,0.74,0.14,1.3,0.42,1.69c0.28,0.39,0.67,0.59,1.19,0.59
		c0.5,0,0.9-0.19,1.18-0.58c0.28-0.39,0.42-1,0.42-1.85c0-0.72-0.14-1.29-0.42-1.68c-0.28-0.4-0.68-0.6-1.19-0.6
		c-0.51,0-0.9,0.2-1.18,0.59C102.19,293.98,102.05,294.59,102.05,295.42z"/>
	<path class="st1" d="M120.93,299.23h-2.16v-4.48h-4.2v4.48h-2.16v-10.46h2.16v4.24h4.2v-4.24h2.16V299.23z"/>
	<path class="st1" d="M126.26,299.38c-1.14,0-2.07-0.35-2.78-1.05c-0.72-0.7-1.07-1.63-1.07-2.79v-0.2c0-0.78,0.15-1.48,0.45-2.09
		c0.3-0.62,0.73-1.09,1.28-1.42c0.55-0.33,1.18-0.5,1.89-0.5c1.06,0,1.9,0.34,2.51,1.01c0.61,0.67,0.92,1.62,0.92,2.85v0.85h-4.95
		c0.07,0.51,0.27,0.92,0.61,1.22s0.77,0.46,1.28,0.46c0.8,0,1.43-0.29,1.88-0.87l1.02,1.14c-0.31,0.44-0.73,0.79-1.26,1.03
		C127.49,299.25,126.9,299.38,126.26,299.38z M126.02,292.99c-0.41,0-0.75,0.14-1,0.42c-0.26,0.28-0.42,0.68-0.49,1.2h2.89v-0.17
		c-0.01-0.46-0.13-0.82-0.37-1.07C126.8,293.11,126.46,292.99,126.02,292.99z"/>
	<path class="st1" d="M132.83,299.23h-2.08V288.2h2.08V299.23z"/>
	<path class="st1" d="M141.53,295.42c0,1.2-0.27,2.16-0.82,2.88c-0.54,0.72-1.28,1.08-2.2,1.08c-0.79,0-1.42-0.27-1.9-0.82v3.67
		h-2.08v-10.76h1.92l0.07,0.76c0.5-0.6,1.16-0.91,1.97-0.91c0.96,0,1.7,0.35,2.23,1.06c0.53,0.71,0.8,1.69,0.8,2.93V295.42z
		 M139.46,295.27c0-0.72-0.13-1.28-0.38-1.67c-0.26-0.39-0.63-0.59-1.12-0.59c-0.65,0-1.1,0.25-1.34,0.75v3.18
		c0.25,0.51,0.71,0.77,1.36,0.77C138.96,297.7,139.46,296.89,139.46,295.27z"/>
	<path class="st1" d="M29.42,313.37v3.69h-2.16v-10.46h4.08c0.79,0,1.48,0.14,2.07,0.43c0.6,0.29,1.06,0.7,1.38,1.22
		c0.32,0.53,0.48,1.13,0.48,1.81c0,1.03-0.35,1.83-1.05,2.42s-1.67,0.89-2.91,0.89H29.42z M29.42,311.62h1.93c0.57,0,1-0.13,1.3-0.4
		s0.45-0.65,0.45-1.15c0-0.51-0.15-0.93-0.45-1.24c-0.3-0.32-0.72-0.48-1.25-0.49h-1.98V311.62z"/>
	<path class="st1" d="M40.99,311.23c-0.28-0.04-0.53-0.06-0.75-0.06c-0.79,0-1.3,0.27-1.54,0.8v5.09h-2.08v-7.77h1.96l0.06,0.93
		c0.42-0.71,0.99-1.07,1.73-1.07c0.23,0,0.45,0.03,0.65,0.09L40.99,311.23z"/>
	<path class="st1" d="M41.41,313.1c0-0.77,0.15-1.46,0.45-2.06c0.3-0.6,0.72-1.07,1.28-1.4c0.56-0.33,1.21-0.5,1.94-0.5
		c1.05,0,1.91,0.32,2.57,0.96s1.03,1.51,1.11,2.62l0.01,0.53c0,1.19-0.33,2.15-1,2.87c-0.67,0.72-1.56,1.08-2.68,1.08
		c-1.12,0-2.02-0.36-2.68-1.08c-0.67-0.72-1-1.7-1-2.93V313.1z M43.48,313.24c0,0.74,0.14,1.3,0.42,1.69
		c0.28,0.39,0.68,0.59,1.19,0.59c0.5,0,0.9-0.19,1.18-0.58c0.28-0.39,0.42-1,0.42-1.85c0-0.72-0.14-1.29-0.42-1.68
		s-0.68-0.6-1.19-0.6c-0.51,0-0.9,0.2-1.18,0.59C43.62,311.8,43.48,312.41,43.48,313.24z"/>
	<path class="st1" d="M52.54,307.37v1.91h1.33v1.52h-1.33v3.88c0,0.29,0.05,0.49,0.17,0.62c0.11,0.12,0.32,0.19,0.63,0.19
		c0.23,0,0.43-0.02,0.61-0.05v1.57c-0.41,0.12-0.83,0.19-1.26,0.19c-1.46,0-2.2-0.74-2.23-2.21v-4.19h-1.14v-1.52h1.14v-1.91H52.54z
		"/>
	<path class="st1" d="M58.6,317.2c-1.14,0-2.07-0.35-2.78-1.05c-0.72-0.7-1.07-1.63-1.07-2.79v-0.2c0-0.78,0.15-1.48,0.45-2.09
		c0.3-0.62,0.73-1.09,1.28-1.42c0.55-0.33,1.18-0.5,1.89-0.5c1.06,0,1.9,0.34,2.51,1.01c0.61,0.67,0.92,1.62,0.92,2.85v0.85h-4.95
		c0.07,0.51,0.27,0.92,0.61,1.22c0.34,0.31,0.77,0.46,1.28,0.46c0.8,0,1.42-0.29,1.88-0.87l1.02,1.14
		c-0.31,0.44-0.73,0.79-1.26,1.03C59.84,317.08,59.25,317.2,58.6,317.2z M58.36,310.81c-0.41,0-0.75,0.14-1,0.42
		s-0.42,0.68-0.49,1.2h2.89v-0.17c-0.01-0.46-0.13-0.82-0.37-1.07C59.14,310.94,58.8,310.81,58.36,310.81z"/>
	<path class="st1" d="M66.21,315.53c0.38,0,0.69-0.11,0.93-0.32c0.24-0.21,0.36-0.49,0.37-0.84h1.95c0,0.53-0.15,1.01-0.43,1.45
		s-0.67,0.78-1.16,1.02c-0.49,0.24-1.03,0.36-1.63,0.36c-1.11,0-1.99-0.35-2.63-1.06c-0.64-0.71-0.96-1.68-0.96-2.93v-0.14
		c0-1.2,0.32-2.15,0.96-2.87c0.64-0.71,1.51-1.07,2.62-1.07c0.97,0,1.75,0.28,2.34,0.83c0.59,0.55,0.88,1.29,0.89,2.21h-1.95
		c-0.01-0.4-0.13-0.73-0.37-0.99c-0.24-0.25-0.56-0.38-0.95-0.38c-0.48,0-0.85,0.18-1.1,0.53c-0.25,0.35-0.37,0.92-0.37,1.72v0.22
		c0,0.8,0.12,1.38,0.37,1.73C65.34,315.35,65.71,315.53,66.21,315.53z"/>
	<path class="st1" d="M73.14,307.37v1.91h1.33v1.52h-1.33v3.88c0,0.29,0.05,0.49,0.17,0.62c0.11,0.12,0.32,0.19,0.63,0.19
		c0.23,0,0.43-0.02,0.61-0.05v1.57c-0.41,0.12-0.83,0.19-1.26,0.19c-1.46,0-2.2-0.74-2.23-2.21v-4.19h-1.14v-1.52h1.14v-1.91H73.14z
		"/>
	<path class="st1" d="M83.03,311.31l2.18-4.71h2.36l-3.43,6.67v3.79h-2.19v-3.79l-3.43-6.67h2.36L83.03,311.31z"/>
	<path class="st1" d="M87.59,313.1c0-0.77,0.15-1.46,0.45-2.06c0.3-0.6,0.72-1.07,1.28-1.4c0.56-0.33,1.21-0.5,1.94-0.5
		c1.05,0,1.91,0.32,2.57,0.96c0.66,0.64,1.03,1.51,1.11,2.62l0.01,0.53c0,1.19-0.33,2.15-1,2.87c-0.67,0.72-1.56,1.08-2.68,1.08
		s-2.02-0.36-2.68-1.08c-0.67-0.72-1-1.7-1-2.93V313.1z M89.67,313.24c0,0.74,0.14,1.3,0.42,1.69c0.28,0.39,0.67,0.59,1.19,0.59
		c0.5,0,0.9-0.19,1.18-0.58c0.28-0.39,0.42-1,0.42-1.85c0-0.72-0.14-1.29-0.42-1.68c-0.28-0.4-0.68-0.6-1.19-0.6
		c-0.51,0-0.9,0.2-1.18,0.59C89.81,311.8,89.67,312.41,89.67,313.24z"/>
	<path class="st1" d="M100.89,316.27c-0.51,0.62-1.22,0.93-2.13,0.93c-0.83,0-1.47-0.24-1.91-0.72c-0.44-0.48-0.66-1.18-0.67-2.1
		v-5.09h2.08v5.03c0,0.81,0.37,1.22,1.11,1.22c0.7,0,1.19-0.25,1.45-0.73v-5.51h2.08v7.77h-1.96L100.89,316.27z"/>
	<path class="st1" d="M108.84,311.23c-0.28-0.04-0.53-0.06-0.75-0.06c-0.79,0-1.3,0.27-1.54,0.8v5.09h-2.08v-7.77h1.96l0.06,0.93
		c0.42-0.71,0.99-1.07,1.73-1.07c0.23,0,0.45,0.03,0.65,0.09L108.84,311.23z"/>
	<path class="st1" d="M114.05,314.91c0-0.25-0.13-0.45-0.38-0.6c-0.25-0.15-0.66-0.28-1.21-0.39c-1.85-0.39-2.77-1.17-2.77-2.36
		c0-0.69,0.29-1.27,0.86-1.73c0.57-0.46,1.32-0.69,2.25-0.69c0.99,0,1.78,0.23,2.37,0.7s0.89,1.07,0.89,1.81h-2.08
		c0-0.3-0.1-0.54-0.29-0.74c-0.19-0.19-0.49-0.29-0.9-0.29c-0.35,0-0.62,0.08-0.81,0.24c-0.19,0.16-0.29,0.36-0.29,0.6
		c0,0.23,0.11,0.42,0.33,0.56c0.22,0.14,0.59,0.26,1.1,0.37c0.52,0.1,0.95,0.22,1.31,0.35c1.1,0.4,1.65,1.1,1.65,2.09
		c0,0.71-0.3,1.28-0.91,1.72c-0.61,0.44-1.39,0.66-2.36,0.66c-0.65,0-1.23-0.12-1.74-0.35c-0.5-0.23-0.9-0.55-1.19-0.96
		c-0.29-0.41-0.43-0.84-0.43-1.31h1.97c0.02,0.37,0.15,0.65,0.41,0.85s0.59,0.29,1.02,0.29c0.4,0,0.7-0.08,0.9-0.23
		C113.95,315.35,114.05,315.15,114.05,314.91z"/>
	<path class="st1" d="M120.98,317.2c-1.14,0-2.07-0.35-2.78-1.05c-0.72-0.7-1.07-1.63-1.07-2.79v-0.2c0-0.78,0.15-1.48,0.45-2.09
		c0.3-0.62,0.73-1.09,1.28-1.42c0.55-0.33,1.18-0.5,1.89-0.5c1.06,0,1.9,0.34,2.51,1.01c0.61,0.67,0.92,1.62,0.92,2.85v0.85h-4.95
		c0.07,0.51,0.27,0.92,0.61,1.22s0.77,0.46,1.28,0.46c0.8,0,1.43-0.29,1.88-0.87l1.02,1.14c-0.31,0.44-0.73,0.79-1.26,1.03
		C122.22,317.08,121.63,317.2,120.98,317.2z M120.74,310.81c-0.41,0-0.75,0.14-1,0.42c-0.26,0.28-0.42,0.68-0.49,1.2h2.89v-0.17
		c-0.01-0.46-0.13-0.82-0.37-1.07C121.52,310.94,121.18,310.81,120.74,310.81z"/>
	<path class="st1" d="M127.55,317.06h-2.08v-11.04h2.08V317.06z"/>
	<path class="st1" d="M129.83,317.06v-6.25h-1.16v-1.52h1.16v-0.66c0-0.87,0.25-1.55,0.75-2.03c0.5-0.48,1.2-0.72,2.1-0.72
		c0.29,0,0.64,0.05,1.06,0.14l-0.02,1.61c-0.17-0.04-0.38-0.07-0.63-0.07c-0.78,0-1.17,0.37-1.17,1.1v0.62h1.54v1.52h-1.54v6.25
		H129.83z"/>
</g>
</svg>
