<?xml version="1.0" encoding="utf-8"?>
<!-- Generator: Adobe Illustrator 25.3.1, SVG Export Plug-In . SVG Version: 6.00 Build 0)  -->
<svg version="1.1" id="Layer_1" xmlns="http://www.w3.org/2000/svg" xmlns:xlink="http://www.w3.org/1999/xlink" x="0px" y="0px"
	 viewBox="0 0 160 600" style="enable-background:new 0 0 160 600;" xml:space="preserve">
<style type="text/css">
	.st0{fill:#FFFFFF;}
</style>
<g>
	<path class="st0" d="M46.52,403.14c0-0.33-0.12-0.61-0.35-0.83c-0.23-0.23-0.62-0.43-1.17-0.61c-0.76-0.23-1.32-0.54-1.67-0.91
		c-0.35-0.37-0.52-0.85-0.52-1.43c0-0.59,0.17-1.07,0.51-1.45c0.34-0.38,0.81-0.6,1.41-0.67v-1.18h0.8v1.18
		c0.6,0.08,1.07,0.33,1.4,0.76c0.33,0.42,0.5,1,0.5,1.73h-0.99c0-0.51-0.12-0.91-0.36-1.21s-0.56-0.45-0.97-0.45
		c-0.43,0-0.75,0.11-0.98,0.33s-0.34,0.53-0.34,0.92c0,0.37,0.12,0.66,0.36,0.87c0.24,0.22,0.63,0.41,1.18,0.59
		c0.55,0.18,0.97,0.37,1.28,0.59c0.31,0.21,0.53,0.46,0.68,0.74c0.14,0.28,0.22,0.61,0.22,0.99c0,0.61-0.18,1.09-0.55,1.46
		c-0.36,0.37-0.87,0.59-1.53,0.66v1.03h-0.79v-1.03c-0.67-0.06-1.19-0.3-1.57-0.71c-0.38-0.41-0.57-0.98-0.57-1.68h0.99
		c0,0.5,0.13,0.88,0.39,1.15c0.26,0.27,0.63,0.4,1.11,0.4c0.47,0,0.84-0.11,1.11-0.34C46.39,403.84,46.52,403.53,46.52,403.14z"/>
	<path class="st0" d="M52.02,405.16h-1v-6.62l-2,0.74v-0.9l2.85-1.07h0.16V405.16z"/>
	<path class="st0" d="M59.1,397.94v1.41h1.08v0.77H59.1v3.61c0,0.23,0.05,0.41,0.15,0.52c0.1,0.12,0.26,0.17,0.49,0.17
		c0.11,0,0.27-0.02,0.47-0.06v0.8c-0.26,0.07-0.52,0.11-0.76,0.11c-0.44,0-0.78-0.13-1-0.4c-0.23-0.27-0.34-0.65-0.34-1.14v-3.6
		h-1.06v-0.77h1.06v-1.41H59.1z"/>
	<path class="st0" d="M64.16,400.24c-0.15-0.03-0.31-0.04-0.49-0.04c-0.65,0-1.09,0.28-1.33,0.83v4.12h-0.99v-5.81h0.97l0.02,0.67
		c0.33-0.52,0.79-0.78,1.39-0.78c0.19,0,0.34,0.03,0.44,0.08V400.24z"/>
	<path class="st0" d="M65.08,397.8c0-0.16,0.05-0.3,0.15-0.41c0.1-0.11,0.24-0.17,0.44-0.17s0.34,0.06,0.44,0.17
		c0.1,0.11,0.15,0.25,0.15,0.41c0,0.16-0.05,0.3-0.15,0.4s-0.25,0.16-0.44,0.16s-0.34-0.05-0.44-0.16
		C65.13,398.1,65.08,397.96,65.08,397.8z M66.15,405.16h-0.99v-5.81h0.99V405.16z"/>
	<path class="st0" d="M71.33,405.16c-0.06-0.11-0.1-0.32-0.14-0.61c-0.46,0.48-1.01,0.72-1.65,0.72c-0.57,0-1.04-0.16-1.41-0.49
		c-0.37-0.32-0.55-0.73-0.55-1.23c0-0.61,0.23-1.08,0.69-1.41c0.46-0.33,1.11-0.5,1.94-0.5h0.97v-0.46c0-0.35-0.1-0.62-0.31-0.83
		s-0.51-0.31-0.92-0.31c-0.35,0-0.65,0.09-0.89,0.27c-0.24,0.18-0.36,0.4-0.36,0.65h-1c0-0.29,0.1-0.57,0.31-0.84
		c0.21-0.27,0.48-0.48,0.84-0.64c0.35-0.16,0.74-0.24,1.16-0.24c0.67,0,1.19,0.17,1.57,0.5s0.58,0.8,0.59,1.38v2.67
		c0,0.53,0.07,0.96,0.2,1.27v0.09H71.33z M69.68,404.4c0.31,0,0.61-0.08,0.89-0.24s0.48-0.37,0.61-0.63v-1.19h-0.78
		c-1.22,0-1.83,0.36-1.83,1.07c0,0.31,0.1,0.55,0.31,0.73S69.35,404.4,69.68,404.4z"/>
	<path class="st0" d="M74.8,405.16h-0.99v-8.25h0.99V405.16z"/>
	<path class="st0" d="M79.6,405.16v-5.04h-0.92v-0.77h0.92v-0.6c0-0.62,0.17-1.1,0.5-1.44s0.8-0.51,1.41-0.51
		c0.23,0,0.46,0.03,0.68,0.09l-0.05,0.8c-0.17-0.03-0.35-0.05-0.54-0.05c-0.32,0-0.57,0.09-0.75,0.28s-0.26,0.46-0.26,0.81v0.61
		h1.24v0.77H80.6v5.04H79.6z"/>
	<path class="st0" d="M82.67,402.2c0-0.57,0.11-1.08,0.34-1.54c0.22-0.45,0.54-0.8,0.93-1.05c0.4-0.25,0.85-0.37,1.37-0.37
		c0.79,0,1.43,0.27,1.92,0.82c0.49,0.55,0.73,1.28,0.73,2.19v0.07c0,0.57-0.11,1.07-0.33,1.52s-0.53,0.8-0.93,1.05
		c-0.4,0.25-0.87,0.38-1.39,0.38c-0.79,0-1.43-0.27-1.92-0.82c-0.49-0.55-0.73-1.27-0.73-2.17V402.2z M83.67,402.31
		c0,0.64,0.15,1.16,0.45,1.55c0.3,0.39,0.7,0.59,1.2,0.59c0.5,0,0.91-0.2,1.2-0.59c0.3-0.4,0.45-0.95,0.45-1.66
		c0-0.64-0.15-1.15-0.45-1.55c-0.3-0.4-0.71-0.59-1.21-0.59c-0.49,0-0.89,0.2-1.19,0.58C83.82,401.03,83.67,401.59,83.67,402.31z"/>
	<path class="st0" d="M92.02,400.24c-0.15-0.03-0.31-0.04-0.49-0.04c-0.65,0-1.09,0.28-1.33,0.83v4.12h-0.99v-5.81h0.97l0.02,0.67
		c0.33-0.52,0.79-0.78,1.39-0.78c0.19,0,0.34,0.03,0.44,0.08V400.24z"/>
	<path class="st0" d="M97,397.94v1.41h1.08v0.77H97v3.61c0,0.23,0.05,0.41,0.15,0.52c0.1,0.12,0.26,0.17,0.49,0.17
		c0.11,0,0.27-0.02,0.47-0.06v0.8c-0.26,0.07-0.52,0.11-0.76,0.11c-0.44,0-0.78-0.13-1-0.4c-0.23-0.27-0.34-0.65-0.34-1.14v-3.6
		h-1.06v-0.77h1.06v-1.41H97z"/>
	<path class="st0" d="M100.24,400.05c0.44-0.54,1.01-0.81,1.72-0.81c1.23,0,1.85,0.69,1.86,2.08v3.84h-0.99v-3.85
		c0-0.42-0.1-0.73-0.29-0.93c-0.19-0.2-0.48-0.3-0.88-0.3c-0.32,0-0.61,0.09-0.85,0.26c-0.24,0.17-0.43,0.4-0.57,0.68v4.14h-0.99
		v-8.25h0.99V400.05z"/>
	<path class="st0" d="M107.72,405.26c-0.79,0-1.43-0.26-1.92-0.78s-0.74-1.21-0.74-2.08v-0.18c0-0.58,0.11-1.09,0.33-1.54
		c0.22-0.45,0.53-0.81,0.92-1.06s0.82-0.38,1.29-0.38c0.76,0,1.34,0.25,1.76,0.75c0.42,0.5,0.63,1.21,0.63,2.14v0.41h-3.94
		c0.01,0.57,0.18,1.04,0.5,1.39s0.73,0.53,1.22,0.53c0.35,0,0.65-0.07,0.89-0.21c0.24-0.14,0.46-0.33,0.64-0.57l0.61,0.47
		C109.42,404.89,108.69,405.26,107.72,405.26z M107.59,400.05c-0.4,0-0.74,0.15-1.01,0.44s-0.44,0.7-0.5,1.23h2.91v-0.08
		c-0.03-0.5-0.17-0.9-0.41-1.17S108.01,400.05,107.59,400.05z"/>
	<path class="st0" d="M47.07,423.16v-5.04h-0.92v-0.77h0.92v-0.6c0-0.62,0.17-1.1,0.5-1.44s0.8-0.51,1.41-0.51
		c0.23,0,0.46,0.03,0.68,0.09l-0.05,0.8c-0.17-0.03-0.35-0.05-0.54-0.05c-0.32,0-0.57,0.09-0.75,0.28s-0.26,0.46-0.26,0.81v0.61
		h1.24v0.77h-1.24v5.04H47.07z"/>
	<path class="st0" d="M50.41,415.8c0-0.16,0.05-0.3,0.15-0.41c0.1-0.11,0.24-0.17,0.44-0.17s0.34,0.06,0.44,0.17
		c0.1,0.11,0.15,0.25,0.15,0.41c0,0.16-0.05,0.3-0.15,0.4s-0.25,0.16-0.44,0.16s-0.34-0.05-0.44-0.16
		C50.46,416.1,50.41,415.96,50.41,415.8z M51.48,423.16h-0.99v-5.81h0.99V423.16z"/>
	<path class="st0" d="M55.88,418.24c-0.15-0.03-0.31-0.04-0.49-0.04c-0.65,0-1.09,0.28-1.33,0.83v4.12h-0.99v-5.81h0.97l0.02,0.67
		c0.33-0.52,0.79-0.78,1.39-0.78c0.19,0,0.34,0.03,0.44,0.08V418.24z"/>
	<path class="st0" d="M60.18,421.61c0-0.27-0.1-0.48-0.3-0.63c-0.2-0.15-0.55-0.28-1.06-0.38c-0.5-0.11-0.9-0.24-1.2-0.39
		c-0.29-0.15-0.51-0.33-0.66-0.54c-0.14-0.21-0.21-0.46-0.21-0.74c0-0.48,0.2-0.88,0.6-1.21c0.4-0.33,0.92-0.49,1.54-0.49
		c0.66,0,1.19,0.17,1.6,0.51c0.41,0.34,0.61,0.77,0.61,1.3h-1c0-0.27-0.12-0.51-0.35-0.7c-0.23-0.2-0.52-0.3-0.87-0.3
		c-0.36,0-0.64,0.08-0.85,0.24s-0.31,0.36-0.31,0.62c0,0.24,0.09,0.42,0.28,0.54s0.53,0.24,1.03,0.35c0.5,0.11,0.9,0.24,1.21,0.4
		c0.31,0.15,0.54,0.34,0.68,0.56c0.15,0.22,0.22,0.48,0.22,0.79c0,0.52-0.21,0.94-0.62,1.25s-0.95,0.47-1.62,0.47
		c-0.47,0-0.88-0.08-1.24-0.25s-0.64-0.39-0.84-0.69c-0.2-0.29-0.3-0.62-0.3-0.96h0.99c0.02,0.33,0.15,0.6,0.4,0.79
		c0.25,0.2,0.58,0.29,0.99,0.29c0.38,0,0.68-0.08,0.91-0.23C60.07,422.07,60.18,421.87,60.18,421.61z"/>
	<path class="st0" d="M63.82,415.94v1.41h1.08v0.77h-1.08v3.61c0,0.23,0.05,0.41,0.15,0.52c0.1,0.12,0.26,0.17,0.49,0.17
		c0.11,0,0.27-0.02,0.47-0.06v0.8c-0.26,0.07-0.52,0.11-0.76,0.11c-0.44,0-0.78-0.13-1-0.4c-0.23-0.27-0.34-0.65-0.34-1.14v-3.6
		h-1.06v-0.77h1.06v-1.41H63.82z"/>
	<path class="st0" d="M72.52,423.16h-1.82v-5.78l-1.78,0.52v-1.38l3.43-1.19h0.17V423.16z"/>
	<path class="st0" d="M79.66,420.1h0.79v1.4h-0.79v1.66h-1.81v-1.66h-3.02l-0.11-1.11l3.13-5.04v-0.02h1.81V420.1z M76.44,420.1
		h1.41v-2.41l-0.11,0.18L76.44,420.1z"/>
	<path class="st0" d="M83.79,420.21c0-0.92,0.2-1.64,0.6-2.17s0.95-0.79,1.67-0.79c0.52,0,0.96,0.2,1.31,0.61v-2.94h1.82v8.25h-1.63
		l-0.09-0.62c-0.37,0.49-0.84,0.73-1.42,0.73c-0.69,0-1.24-0.26-1.64-0.79C83.99,421.94,83.79,421.18,83.79,420.21z M85.6,420.32
		c0,1.03,0.3,1.55,0.9,1.55c0.4,0,0.69-0.17,0.86-0.5v-2.21c-0.16-0.34-0.45-0.52-0.85-0.52c-0.56,0-0.86,0.45-0.91,1.35
		L85.6,420.32z"/>
	<path class="st0" d="M93.48,423.16c-0.06-0.12-0.12-0.29-0.17-0.52c-0.33,0.42-0.8,0.63-1.4,0.63c-0.55,0-1.01-0.17-1.4-0.5
		c-0.38-0.33-0.58-0.75-0.58-1.25c0-0.63,0.23-1.11,0.7-1.43c0.47-0.32,1.14-0.48,2.03-0.48h0.56v-0.31c0-0.54-0.23-0.8-0.69-0.8
		c-0.43,0-0.64,0.21-0.64,0.64h-1.81c0-0.56,0.24-1.02,0.72-1.37c0.48-0.35,1.09-0.53,1.83-0.53s1.33,0.18,1.76,0.54
		c0.43,0.36,0.65,0.86,0.66,1.49v2.57c0.01,0.53,0.09,0.94,0.25,1.22v0.09H93.48z M92.35,421.97c0.23,0,0.41-0.05,0.56-0.14
		c0.15-0.1,0.25-0.21,0.32-0.33v-0.93H92.7c-0.63,0-0.95,0.28-0.95,0.85c0,0.16,0.06,0.3,0.17,0.4
		C92.03,421.92,92.18,421.97,92.35,421.97z"/>
	<path class="st0" d="M98.37,420.62l0.97-3.28h1.94l-2.37,6.78l-0.1,0.25c-0.34,0.75-0.93,1.13-1.78,1.13
		c-0.24,0-0.49-0.04-0.75-0.11v-1.29h0.24c0.25,0,0.45-0.04,0.58-0.11c0.13-0.07,0.23-0.21,0.3-0.4l0.14-0.39l-2.02-5.87h1.93
		L98.37,420.62z"/>
	<path class="st0" d="M104.79,421.52c0-0.15-0.08-0.28-0.24-0.37c-0.16-0.09-0.47-0.19-0.92-0.29c-0.45-0.1-0.82-0.23-1.12-0.4
		c-0.29-0.16-0.52-0.36-0.67-0.59c-0.15-0.23-0.23-0.5-0.23-0.8c0-0.53,0.22-0.97,0.66-1.32s1.02-0.52,1.73-0.52
		c0.77,0,1.38,0.17,1.85,0.52c0.47,0.35,0.7,0.8,0.7,1.37h-1.82c0-0.47-0.24-0.7-0.74-0.7c-0.19,0-0.35,0.05-0.48,0.16
		s-0.19,0.24-0.19,0.39c0,0.16,0.08,0.29,0.24,0.39c0.16,0.1,0.41,0.18,0.75,0.25s0.65,0.14,0.91,0.23c0.88,0.3,1.31,0.84,1.31,1.62
		c0,0.53-0.23,0.96-0.71,1.29c-0.47,0.33-1.08,0.5-1.83,0.5c-0.5,0-0.94-0.09-1.33-0.27c-0.39-0.18-0.7-0.42-0.91-0.73
		c-0.22-0.31-0.33-0.63-0.33-0.97h1.69c0.01,0.27,0.1,0.46,0.27,0.59c0.17,0.12,0.39,0.19,0.66,0.19c0.25,0,0.43-0.05,0.56-0.15
		C104.73,421.81,104.79,421.68,104.79,421.52z"/>
	<path class="st0" d="M107.66,424.71l-0.56-0.39c0.34-0.47,0.51-0.95,0.53-1.45v-0.9h0.97v0.78c0,0.36-0.09,0.72-0.27,1.08
		C108.15,424.2,107.92,424.49,107.66,424.71z M107.47,417.89c0-0.17,0.05-0.32,0.15-0.43c0.1-0.11,0.25-0.17,0.46-0.17
		c0.2,0,0.36,0.06,0.46,0.17s0.16,0.26,0.16,0.43c0,0.17-0.05,0.3-0.16,0.41c-0.11,0.11-0.26,0.17-0.46,0.17
		c-0.21,0-0.36-0.06-0.46-0.17C107.52,418.19,107.47,418.06,107.47,417.89z"/>
	<path class="st0" d="M39.53,438.09v3.06h-1.03v-7.82h2.88c0.86,0,1.53,0.22,2.01,0.66c0.48,0.44,0.73,1.01,0.73,1.74
		c0,0.76-0.24,1.34-0.71,1.75c-0.47,0.41-1.15,0.62-2.04,0.62H39.53z M39.53,437.25h1.85c0.55,0,0.97-0.13,1.27-0.39
		s0.44-0.64,0.44-1.13c0-0.47-0.15-0.84-0.44-1.12c-0.29-0.28-0.7-0.43-1.21-0.44h-1.91V437.25z"/>
	<path class="st0" d="M46.36,441.16h-0.99v-8.25h0.99V441.16z"/>
	<path class="st0" d="M51.54,441.16c-0.06-0.11-0.1-0.32-0.14-0.61c-0.46,0.48-1.01,0.72-1.65,0.72c-0.57,0-1.04-0.16-1.41-0.49
		c-0.37-0.32-0.55-0.73-0.55-1.23c0-0.61,0.23-1.08,0.69-1.41c0.46-0.33,1.11-0.5,1.94-0.5h0.97v-0.46c0-0.35-0.1-0.62-0.31-0.83
		s-0.51-0.31-0.92-0.31c-0.35,0-0.65,0.09-0.89,0.27c-0.24,0.18-0.36,0.4-0.36,0.65h-1c0-0.29,0.1-0.57,0.31-0.84
		c0.21-0.27,0.48-0.48,0.84-0.64c0.35-0.16,0.74-0.24,1.16-0.24c0.67,0,1.19,0.17,1.57,0.5s0.58,0.8,0.59,1.38v2.67
		c0,0.53,0.07,0.96,0.2,1.27v0.09H51.54z M49.89,440.4c0.31,0,0.61-0.08,0.89-0.24s0.48-0.37,0.61-0.63v-1.19H50.6
		c-1.22,0-1.83,0.36-1.83,1.07c0,0.31,0.1,0.55,0.31,0.73S49.56,440.4,49.89,440.4z"/>
	<path class="st0" d="M54.87,435.34l0.03,0.73c0.44-0.56,1.02-0.84,1.74-0.84c1.23,0,1.85,0.69,1.86,2.08v3.84h-0.99v-3.85
		c0-0.42-0.1-0.73-0.29-0.93c-0.19-0.2-0.48-0.3-0.88-0.3c-0.32,0-0.6,0.09-0.85,0.26s-0.43,0.4-0.57,0.68v4.14h-0.99v-5.81H54.87z"
		/>
	<path class="st0" d="M63.38,439.61c0-0.27-0.1-0.48-0.3-0.63c-0.2-0.15-0.55-0.28-1.06-0.38c-0.5-0.11-0.9-0.24-1.2-0.39
		c-0.29-0.15-0.51-0.33-0.66-0.54c-0.14-0.21-0.21-0.46-0.21-0.74c0-0.48,0.2-0.88,0.6-1.21c0.4-0.33,0.92-0.49,1.54-0.49
		c0.66,0,1.19,0.17,1.6,0.51c0.41,0.34,0.61,0.77,0.61,1.3h-1c0-0.27-0.12-0.51-0.35-0.7c-0.23-0.2-0.52-0.3-0.87-0.3
		c-0.36,0-0.64,0.08-0.85,0.24s-0.31,0.36-0.31,0.62c0,0.24,0.09,0.42,0.28,0.54s0.53,0.24,1.03,0.35c0.5,0.11,0.9,0.24,1.21,0.4
		c0.31,0.15,0.54,0.34,0.68,0.56c0.15,0.22,0.22,0.48,0.22,0.79c0,0.52-0.21,0.94-0.62,1.25s-0.95,0.47-1.62,0.47
		c-0.47,0-0.88-0.08-1.24-0.25s-0.64-0.39-0.84-0.69c-0.2-0.29-0.3-0.62-0.3-0.96h0.99c0.02,0.33,0.15,0.6,0.4,0.79
		c0.25,0.2,0.58,0.29,0.99,0.29c0.38,0,0.68-0.08,0.91-0.23C63.27,440.07,63.38,439.87,63.38,439.61z"/>
	<path class="st0" d="M71.98,441.16c-0.06-0.11-0.1-0.32-0.14-0.61c-0.46,0.48-1.01,0.72-1.65,0.72c-0.57,0-1.04-0.16-1.41-0.49
		c-0.37-0.32-0.55-0.73-0.55-1.23c0-0.61,0.23-1.08,0.69-1.41c0.46-0.33,1.11-0.5,1.94-0.5h0.97v-0.46c0-0.35-0.1-0.62-0.31-0.83
		s-0.51-0.31-0.92-0.31c-0.35,0-0.65,0.09-0.89,0.27c-0.24,0.18-0.36,0.4-0.36,0.65h-1c0-0.29,0.1-0.57,0.31-0.84
		c0.21-0.27,0.48-0.48,0.84-0.64c0.35-0.16,0.74-0.24,1.16-0.24c0.67,0,1.19,0.17,1.57,0.5s0.58,0.8,0.59,1.38v2.67
		c0,0.53,0.07,0.96,0.2,1.27v0.09H71.98z M70.33,440.4c0.31,0,0.61-0.08,0.89-0.24s0.48-0.37,0.61-0.63v-1.19h-0.78
		c-1.22,0-1.83,0.36-1.83,1.07c0,0.31,0.1,0.55,0.31,0.73S70.01,440.4,70.33,440.4z"/>
	<path class="st0" d="M77.19,436.24c-0.15-0.03-0.31-0.04-0.49-0.04c-0.65,0-1.09,0.28-1.33,0.83v4.12h-0.99v-5.81h0.97l0.02,0.67
		c0.33-0.52,0.79-0.78,1.39-0.78c0.19,0,0.34,0.03,0.44,0.08V436.24z"/>
	<path class="st0" d="M80.51,441.26c-0.79,0-1.43-0.26-1.92-0.78s-0.74-1.21-0.74-2.08v-0.18c0-0.58,0.11-1.09,0.33-1.54
		c0.22-0.45,0.53-0.81,0.92-1.06c0.4-0.26,0.82-0.38,1.29-0.38c0.76,0,1.34,0.25,1.76,0.75c0.42,0.5,0.63,1.21,0.63,2.14v0.41h-3.94
		c0.01,0.57,0.18,1.04,0.5,1.39c0.32,0.35,0.73,0.53,1.22,0.53c0.35,0,0.65-0.07,0.89-0.21c0.24-0.14,0.46-0.33,0.64-0.57l0.61,0.47
		C82.22,440.89,81.49,441.26,80.51,441.26z M80.39,436.05c-0.4,0-0.74,0.15-1.01,0.44s-0.44,0.7-0.5,1.23h2.91v-0.08
		c-0.03-0.5-0.17-0.9-0.41-1.17C81.13,436.19,80.8,436.05,80.39,436.05z"/>
	<path class="st0" d="M89.98,439.08c0-0.28-0.07-0.5-0.21-0.67s-0.38-0.31-0.74-0.46c-0.35-0.14-0.67-0.29-0.97-0.44
		c-0.3-0.15-0.55-0.32-0.77-0.51s-0.38-0.42-0.49-0.67c-0.12-0.25-0.17-0.56-0.17-0.92c0-0.61,0.2-1.1,0.61-1.5
		c0.41-0.39,0.95-0.62,1.63-0.68v-1.13h0.85v1.16c0.66,0.1,1.17,0.37,1.54,0.81c0.37,0.44,0.56,1,0.56,1.68h-1.82
		c0-0.37-0.07-0.66-0.21-0.86c-0.14-0.2-0.35-0.3-0.61-0.3c-0.24,0-0.42,0.07-0.55,0.22c-0.13,0.15-0.2,0.35-0.2,0.62
		c0,0.26,0.08,0.48,0.23,0.63c0.15,0.16,0.39,0.3,0.72,0.45s0.65,0.29,0.94,0.44c0.29,0.15,0.55,0.33,0.76,0.52s0.38,0.42,0.5,0.68
		c0.12,0.26,0.18,0.57,0.18,0.93c0,0.61-0.19,1.11-0.58,1.5c-0.39,0.39-0.92,0.61-1.59,0.68v1.08h-0.85v-1.08
		c-0.78-0.08-1.38-0.35-1.8-0.8s-0.63-1.05-0.63-1.79h1.81c0,0.41,0.09,0.72,0.27,0.93c0.18,0.21,0.44,0.32,0.77,0.32
		c0.24,0,0.43-0.07,0.57-0.22C89.91,439.54,89.98,439.34,89.98,439.08z"/>
	<path class="st0" d="M96.31,438.13c-0.39,0.35-0.83,0.53-1.31,0.53c-0.71,0-1.27-0.24-1.69-0.72c-0.42-0.48-0.62-1.12-0.62-1.92
		c0-0.5,0.12-0.97,0.35-1.4c0.23-0.43,0.56-0.77,0.98-1.02c0.42-0.25,0.88-0.38,1.39-0.38c0.52,0,0.98,0.13,1.4,0.39
		c0.42,0.26,0.74,0.63,0.97,1.1c0.23,0.47,0.35,1.02,0.36,1.64v0.69c0,0.86-0.17,1.61-0.51,2.25c-0.34,0.63-0.82,1.12-1.45,1.46
		c-0.63,0.34-1.36,0.51-2.19,0.51h-0.11v-1.45l0.34,0C95.48,439.75,96.17,439.19,96.31,438.13z M95.49,437.35
		c0.39,0,0.68-0.17,0.85-0.51v-0.75c0-0.5-0.08-0.87-0.25-1.11c-0.17-0.24-0.4-0.36-0.68-0.36c-0.25,0-0.47,0.14-0.64,0.41
		c-0.17,0.27-0.26,0.6-0.26,0.99c0,0.41,0.09,0.73,0.26,0.98C94.95,437.23,95.19,437.35,95.49,437.35z"/>
	<path class="st0" d="M100.27,439.4c0.29,0,0.52,0.08,0.71,0.25c0.19,0.17,0.28,0.39,0.28,0.65s-0.09,0.48-0.28,0.65
		c-0.19,0.17-0.43,0.25-0.71,0.25c-0.29,0-0.53-0.09-0.72-0.26c-0.19-0.17-0.28-0.39-0.28-0.65s0.09-0.48,0.28-0.65
		C99.74,439.49,99.98,439.4,100.27,439.4z"/>
	<path class="st0" d="M106.01,438.13c-0.39,0.35-0.83,0.53-1.31,0.53c-0.71,0-1.27-0.24-1.69-0.72c-0.42-0.48-0.62-1.12-0.62-1.92
		c0-0.5,0.12-0.97,0.35-1.4c0.23-0.43,0.56-0.77,0.98-1.02c0.42-0.25,0.88-0.38,1.39-0.38c0.52,0,0.98,0.13,1.4,0.39
		s0.74,0.63,0.97,1.1s0.35,1.02,0.36,1.64v0.69c0,0.86-0.17,1.61-0.51,2.25c-0.34,0.63-0.82,1.12-1.45,1.46
		c-0.63,0.34-1.36,0.51-2.19,0.51h-0.11v-1.45l0.34,0C105.18,439.75,105.87,439.19,106.01,438.13z M105.19,437.35
		c0.39,0,0.68-0.17,0.85-0.51v-0.75c0-0.5-0.08-0.87-0.25-1.11c-0.17-0.24-0.4-0.36-0.68-0.36c-0.25,0-0.47,0.14-0.64,0.41
		c-0.17,0.27-0.26,0.6-0.26,0.99c0,0.41,0.09,0.73,0.26,0.98C104.64,437.23,104.88,437.35,105.19,437.35z"/>
	<path class="st0" d="M112.38,438.13c-0.39,0.35-0.83,0.53-1.31,0.53c-0.71,0-1.27-0.24-1.69-0.72c-0.42-0.48-0.62-1.12-0.62-1.92
		c0-0.5,0.12-0.97,0.35-1.4s0.56-0.77,0.98-1.02c0.42-0.25,0.88-0.38,1.39-0.38c0.52,0,0.98,0.13,1.4,0.39s0.74,0.63,0.97,1.1
		s0.35,1.02,0.36,1.64v0.69c0,0.86-0.17,1.61-0.51,2.25c-0.34,0.63-0.82,1.12-1.45,1.46c-0.63,0.34-1.36,0.51-2.19,0.51h-0.11v-1.45
		l0.34,0C111.55,439.75,112.24,439.19,112.38,438.13z M111.56,437.35c0.39,0,0.68-0.17,0.85-0.51v-0.75c0-0.5-0.08-0.87-0.25-1.11
		c-0.17-0.24-0.4-0.36-0.68-0.36c-0.25,0-0.47,0.14-0.64,0.41c-0.17,0.27-0.26,0.6-0.26,0.99c0,0.41,0.09,0.73,0.26,0.98
		C111.01,437.23,111.25,437.35,111.56,437.35z"/>
	<path class="st0" d="M37.93,451.94v1.41h1.08v0.77h-1.08v3.61c0,0.23,0.05,0.41,0.15,0.52c0.1,0.12,0.26,0.17,0.49,0.17
		c0.11,0,0.27-0.02,0.47-0.06v0.8c-0.26,0.07-0.52,0.11-0.76,0.11c-0.44,0-0.78-0.13-1-0.4c-0.23-0.27-0.34-0.65-0.34-1.14v-3.6
		h-1.06v-0.77h1.06v-1.41H37.93z"/>
	<path class="st0" d="M39.8,456.2c0-0.57,0.11-1.08,0.34-1.54c0.22-0.45,0.54-0.8,0.93-1.05c0.4-0.25,0.85-0.37,1.37-0.37
		c0.79,0,1.43,0.27,1.92,0.82c0.49,0.55,0.73,1.28,0.73,2.19v0.07c0,0.57-0.11,1.07-0.33,1.52c-0.22,0.45-0.53,0.8-0.93,1.05
		c-0.4,0.25-0.87,0.38-1.39,0.38c-0.79,0-1.43-0.27-1.92-0.82c-0.49-0.55-0.73-1.27-0.73-2.17V456.2z M40.8,456.31
		c0,0.64,0.15,1.16,0.45,1.55c0.3,0.39,0.7,0.59,1.2,0.59c0.5,0,0.91-0.2,1.2-0.59s0.45-0.95,0.45-1.66c0-0.64-0.15-1.15-0.45-1.55
		c-0.3-0.4-0.7-0.59-1.21-0.59c-0.49,0-0.89,0.2-1.19,0.58C40.95,455.03,40.8,455.59,40.8,456.31z"/>
	<path class="st0" d="M52.41,457.08c0-0.28-0.07-0.5-0.21-0.67s-0.38-0.31-0.74-0.46c-0.35-0.14-0.67-0.29-0.97-0.44
		s-0.55-0.32-0.77-0.51s-0.38-0.42-0.49-0.67s-0.17-0.56-0.17-0.92c0-0.61,0.2-1.1,0.61-1.5c0.41-0.39,0.95-0.62,1.63-0.68v-1.13
		h0.85v1.16c0.66,0.1,1.17,0.37,1.54,0.81c0.37,0.44,0.56,1,0.56,1.68h-1.82c0-0.37-0.07-0.66-0.21-0.86s-0.35-0.3-0.61-0.3
		c-0.24,0-0.42,0.07-0.55,0.22c-0.13,0.15-0.2,0.35-0.2,0.62c0,0.26,0.08,0.48,0.23,0.63c0.15,0.16,0.39,0.3,0.73,0.45
		s0.65,0.29,0.94,0.44c0.29,0.15,0.55,0.33,0.77,0.52s0.38,0.42,0.5,0.68s0.18,0.57,0.18,0.93c0,0.61-0.19,1.11-0.58,1.5
		c-0.39,0.39-0.92,0.61-1.59,0.68v1.08h-0.85v-1.08c-0.78-0.08-1.38-0.35-1.8-0.8c-0.42-0.45-0.63-1.05-0.63-1.79h1.81
		c0,0.41,0.09,0.72,0.27,0.93c0.18,0.21,0.44,0.32,0.77,0.32c0.24,0,0.44-0.07,0.57-0.22C52.34,457.54,52.41,457.34,52.41,457.08z"
		/>
	<path class="st0" d="M60.63,459.16h-5.46v-1.18l2.51-2.64c0.62-0.71,0.93-1.27,0.93-1.68c0-0.34-0.07-0.59-0.22-0.77
		s-0.36-0.26-0.64-0.26c-0.28,0-0.5,0.12-0.67,0.35s-0.26,0.53-0.26,0.88h-1.82c0-0.48,0.12-0.92,0.36-1.33s0.57-0.72,1-0.95
		c0.43-0.23,0.9-0.34,1.43-0.34c0.85,0,1.5,0.2,1.95,0.59c0.46,0.39,0.69,0.95,0.69,1.68c0,0.31-0.06,0.61-0.17,0.9
		s-0.29,0.6-0.53,0.92c-0.24,0.32-0.63,0.75-1.17,1.29l-1.01,1.17h3.08V459.16z"/>
	<path class="st0" d="M66.33,456.1h0.79v1.4h-0.79v1.66h-1.81v-1.66h-3.02l-0.11-1.11l3.13-5.04v-0.02h1.81V456.1z M63.11,456.1
		h1.41v-2.41l-0.11,0.18L63.11,456.1z"/>
	<path class="st0" d="M69.06,457.4c0.29,0,0.52,0.08,0.71,0.25s0.28,0.39,0.28,0.65s-0.09,0.48-0.28,0.65s-0.43,0.25-0.71,0.25
		c-0.29,0-0.53-0.09-0.72-0.26c-0.19-0.17-0.28-0.39-0.28-0.65s0.09-0.48,0.28-0.65C68.54,457.49,68.77,457.4,69.06,457.4z"/>
	<path class="st0" d="M74.81,456.13c-0.39,0.35-0.83,0.53-1.31,0.53c-0.71,0-1.27-0.24-1.69-0.72c-0.42-0.48-0.62-1.12-0.62-1.92
		c0-0.5,0.12-0.97,0.35-1.4s0.56-0.77,0.98-1.02c0.42-0.25,0.89-0.38,1.39-0.38c0.52,0,0.98,0.13,1.4,0.39
		c0.42,0.26,0.74,0.63,0.97,1.1s0.35,1.02,0.36,1.64v0.69c0,0.86-0.17,1.61-0.51,2.25c-0.34,0.63-0.82,1.12-1.45,1.46
		c-0.63,0.34-1.36,0.51-2.19,0.51h-0.11v-1.45l0.34,0C73.97,457.75,74.67,457.19,74.81,456.13z M73.98,455.35
		c0.39,0,0.68-0.17,0.85-0.51v-0.75c0-0.5-0.08-0.87-0.25-1.11s-0.4-0.36-0.68-0.36c-0.25,0-0.47,0.14-0.64,0.41
		c-0.17,0.27-0.26,0.6-0.26,0.99c0,0.41,0.09,0.73,0.26,0.98C73.44,455.23,73.68,455.35,73.98,455.35z"/>
	<path class="st0" d="M81.18,456.13c-0.39,0.35-0.83,0.53-1.31,0.53c-0.71,0-1.27-0.24-1.69-0.72c-0.42-0.48-0.62-1.12-0.62-1.92
		c0-0.5,0.12-0.97,0.35-1.4s0.56-0.77,0.98-1.02c0.42-0.25,0.89-0.38,1.39-0.38c0.52,0,0.98,0.13,1.4,0.39s0.74,0.63,0.97,1.1
		c0.23,0.47,0.35,1.02,0.36,1.64v0.69c0,0.86-0.17,1.61-0.51,2.25c-0.34,0.63-0.82,1.12-1.45,1.46c-0.63,0.34-1.36,0.51-2.19,0.51
		h-0.11v-1.45l0.34,0C80.34,457.75,81.04,457.19,81.18,456.13z M80.35,455.35c0.39,0,0.68-0.17,0.85-0.51v-0.75
		c0-0.5-0.08-0.87-0.25-1.11s-0.4-0.36-0.68-0.36c-0.25,0-0.47,0.14-0.64,0.41c-0.17,0.27-0.26,0.6-0.26,0.99
		c0,0.41,0.09,0.73,0.26,0.98C79.81,455.23,80.05,455.35,80.35,455.35z"/>
	<path class="st0" d="M84.63,459.83h-1.28l2.67-8.49h1.29L84.63,459.83z"/>
	<path class="st0" d="M89.58,453.34l0.06,0.68c0.41-0.53,0.96-0.79,1.66-0.79c0.73,0,1.23,0.29,1.49,0.88
		c0.39-0.58,0.96-0.88,1.71-0.88c1.18,0,1.78,0.71,1.82,2.14v3.78H94.5v-3.67c0-0.3-0.05-0.51-0.15-0.65
		c-0.1-0.14-0.28-0.2-0.55-0.2c-0.36,0-0.62,0.16-0.8,0.48l0.01,0.08v3.97h-1.82v-3.66c0-0.3-0.05-0.52-0.15-0.66
		s-0.28-0.2-0.55-0.2c-0.35,0-0.61,0.16-0.79,0.48v4.04h-1.81v-5.81H89.58z"/>
	<path class="st0" d="M97.12,456.2c0-0.58,0.11-1.1,0.34-1.55s0.55-0.8,0.97-1.04c0.42-0.24,0.92-0.37,1.49-0.37
		c0.87,0,1.56,0.27,2.06,0.81c0.5,0.54,0.75,1.27,0.75,2.2v0.06c0,0.91-0.25,1.62-0.75,2.16c-0.5,0.53-1.18,0.8-2.04,0.8
		c-0.83,0-1.49-0.25-1.99-0.74c-0.5-0.5-0.77-1.17-0.81-2.02L97.12,456.2z M98.93,456.31c0,0.54,0.08,0.93,0.25,1.18
		c0.17,0.25,0.42,0.38,0.75,0.38c0.64,0,0.97-0.5,0.99-1.49v-0.18c0-1.04-0.33-1.56-1-1.56c-0.6,0-0.93,0.45-0.98,1.35L98.93,456.31
		z"/>
	<path class="st0" d="M105.18,453.34l0.06,0.68c0.4-0.53,0.96-0.79,1.66-0.79c0.61,0,1.06,0.18,1.36,0.54
		c0.3,0.36,0.45,0.91,0.46,1.63v3.74h-1.81v-3.67c0-0.29-0.06-0.51-0.18-0.65c-0.12-0.14-0.33-0.21-0.64-0.21
		c-0.35,0-0.62,0.14-0.79,0.42v4.1h-1.81v-5.81H105.18z"/>
	<path class="st0" d="M111.83,451.9v1.44h0.96v1.26h-0.96v2.66c0,0.22,0.04,0.37,0.12,0.46c0.08,0.09,0.23,0.13,0.47,0.13
		c0.18,0,0.33-0.01,0.45-0.03v1.29c-0.33,0.1-0.67,0.16-1.02,0.16c-0.62,0-1.08-0.15-1.38-0.44c-0.3-0.29-0.45-0.74-0.45-1.34v-2.88
		h-0.74v-1.26h0.74v-1.44H111.83z"/>
	<path class="st0" d="M115.27,453.97c0.39-0.49,0.88-0.73,1.48-0.73c0.64,0,1.12,0.19,1.45,0.57s0.49,0.94,0.5,1.68v3.67h-1.81
		v-3.62c0-0.31-0.06-0.54-0.19-0.68c-0.12-0.15-0.34-0.22-0.64-0.22c-0.37,0-0.63,0.12-0.79,0.35v4.17h-1.81v-8.25h1.81V453.97z"/>
</g>
</svg>
