<?xml version="1.0" encoding="utf-8"?>
<!-- Generator: Adobe Illustrator 24.2.3, SVG Export Plug-In . SVG Version: 6.00 Build 0)  -->
<svg version="1.1" id="Layer_1" xmlns="http://www.w3.org/2000/svg" xmlns:xlink="http://www.w3.org/1999/xlink" x="0px" y="0px"
	 viewBox="0 0 300 600" style="enable-background:new 0 0 300 600;" xml:space="preserve">
<style type="text/css">
	.st0{fill:#E82D8A;}
</style>
<g>
	<path class="st0" d="M84.84,92.27h-3.86v3.99h-2.01V86.5h6.36v1.63h-4.34v2.52h3.86V92.27z"/>
	<path class="st0" d="M90.26,90.82c-0.26-0.04-0.5-0.05-0.7-0.05c-0.73,0-1.21,0.25-1.44,0.74v4.75h-1.94V89h1.83l0.05,0.86
		c0.39-0.67,0.93-1,1.62-1c0.21,0,0.42,0.03,0.6,0.09L90.26,90.82z"/>
	<path class="st0" d="M94.53,96.39c-1.06,0-1.93-0.33-2.6-0.98c-0.67-0.65-1-1.52-1-2.61v-0.19c0-0.73,0.14-1.38,0.42-1.95
		c0.28-0.57,0.68-1.02,1.2-1.33c0.52-0.31,1.1-0.47,1.77-0.47c0.99,0,1.77,0.31,2.34,0.94c0.57,0.63,0.85,1.51,0.85,2.66v0.79h-4.62
		c0.06,0.47,0.25,0.85,0.57,1.14c0.32,0.29,0.71,0.43,1.2,0.43c0.75,0,1.33-0.27,1.75-0.81l0.95,1.07
		c-0.29,0.41-0.68,0.73-1.18,0.96C95.68,96.28,95.13,96.39,94.53,96.39z M94.31,90.43c-0.38,0-0.7,0.13-0.94,0.39
		s-0.39,0.63-0.46,1.12h2.69v-0.15c-0.01-0.43-0.12-0.76-0.35-1C95.04,90.55,94.72,90.43,94.31,90.43z"/>
	<path class="st0" d="M101.95,96.39c-1.06,0-1.93-0.33-2.6-0.98c-0.67-0.65-1-1.52-1-2.61v-0.19c0-0.73,0.14-1.38,0.42-1.95
		c0.28-0.57,0.68-1.02,1.2-1.33c0.52-0.31,1.1-0.47,1.77-0.47c0.99,0,1.77,0.31,2.34,0.94c0.57,0.63,0.85,1.51,0.85,2.66v0.79h-4.62
		c0.06,0.47,0.25,0.85,0.57,1.14c0.32,0.29,0.71,0.43,1.2,0.43c0.75,0,1.33-0.27,1.75-0.81l0.95,1.07
		c-0.29,0.41-0.68,0.73-1.18,0.96C103.1,96.28,102.55,96.39,101.95,96.39z M101.73,90.43c-0.38,0-0.7,0.13-0.94,0.39
		s-0.39,0.63-0.46,1.12h2.69v-0.15c-0.01-0.43-0.12-0.76-0.35-1C102.46,90.55,102.14,90.43,101.73,90.43z"/>
	<path class="st0" d="M110.25,96.26v-6.29h-1.15V89h1.15v-0.74c0-0.78,0.21-1.38,0.62-1.8c0.42-0.42,1-0.64,1.76-0.64
		c0.29,0,0.57,0.04,0.85,0.11l-0.07,1c-0.21-0.04-0.43-0.06-0.67-0.06c-0.4,0-0.71,0.12-0.93,0.35s-0.33,0.57-0.33,1.01V89h1.55
		v0.96h-1.55v6.29H110.25z"/>
	<path class="st0" d="M114.08,92.56c0-0.71,0.14-1.35,0.42-1.92c0.28-0.57,0.67-1.01,1.17-1.31c0.5-0.31,1.07-0.46,1.71-0.46
		c0.99,0,1.79,0.34,2.4,1.03c0.61,0.68,0.92,1.59,0.92,2.73v0.09c0,0.71-0.14,1.34-0.41,1.9c-0.27,0.56-0.66,1-1.16,1.31
		c-0.5,0.31-1.08,0.47-1.73,0.47c-0.98,0-1.78-0.34-2.39-1.03c-0.61-0.68-0.92-1.59-0.92-2.71V92.56z M115.33,92.71
		c0,0.8,0.19,1.45,0.56,1.94c0.37,0.49,0.87,0.73,1.5,0.73c0.63,0,1.13-0.25,1.5-0.74c0.37-0.49,0.56-1.19,0.56-2.07
		c0-0.8-0.19-1.44-0.57-1.93c-0.38-0.49-0.88-0.74-1.5-0.74c-0.61,0-1.11,0.24-1.48,0.73C115.52,91.11,115.33,91.8,115.33,92.71z"/>
	<path class="st0" d="M125.75,90.12c-0.19-0.03-0.39-0.05-0.61-0.05c-0.81,0-1.37,0.35-1.66,1.04v5.15h-1.24V89h1.21l0.02,0.84
		c0.41-0.65,0.98-0.97,1.73-0.97c0.24,0,0.42,0.03,0.55,0.09V90.12z"/>
	<path class="st0" d="M131.77,92.44v3.82h-1.29V86.5h3.6c1.07,0,1.91,0.27,2.51,0.82c0.61,0.55,0.91,1.27,0.91,2.17
		c0,0.95-0.3,1.68-0.89,2.19c-0.59,0.51-1.44,0.77-2.54,0.77H131.77z M131.77,91.38h2.31c0.69,0,1.22-0.16,1.58-0.49
		c0.37-0.32,0.55-0.79,0.55-1.41c0-0.58-0.18-1.05-0.55-1.4s-0.87-0.53-1.51-0.54h-2.39V91.38z"/>
	<path class="st0" d="M142.45,90.12c-0.19-0.03-0.39-0.05-0.61-0.05c-0.81,0-1.37,0.35-1.66,1.04v5.15h-1.24V89h1.21l0.02,0.84
		c0.41-0.65,0.98-0.97,1.73-0.97c0.24,0,0.42,0.03,0.55,0.09V90.12z"/>
	<path class="st0" d="M143.6,87.08c0-0.2,0.06-0.37,0.18-0.51c0.12-0.14,0.3-0.21,0.55-0.21s0.42,0.07,0.55,0.21
		c0.12,0.14,0.19,0.31,0.19,0.51s-0.06,0.37-0.19,0.5c-0.12,0.13-0.31,0.2-0.55,0.2s-0.42-0.07-0.55-0.2
		C143.66,87.45,143.6,87.28,143.6,87.08z M144.94,96.26h-1.24V89h1.24V96.26z"/>
	<path class="st0" d="M149.31,94.58l1.8-5.57h1.27l-2.6,7.25h-0.95L146.21,89h1.27L149.31,94.58z"/>
	<path class="st0" d="M157.95,96.26c-0.07-0.14-0.13-0.4-0.17-0.76c-0.58,0.6-1.26,0.9-2.06,0.9c-0.72,0-1.3-0.2-1.76-0.61
		c-0.46-0.4-0.69-0.92-0.69-1.54c0-0.76,0.29-1.34,0.86-1.76s1.38-0.63,2.42-0.63h1.21v-0.57c0-0.43-0.13-0.78-0.39-1.04
		c-0.26-0.26-0.64-0.39-1.15-0.39c-0.44,0-0.81,0.11-1.11,0.33c-0.3,0.22-0.45,0.49-0.45,0.81h-1.25c0-0.36,0.13-0.71,0.39-1.05
		s0.61-0.6,1.05-0.8c0.44-0.2,0.92-0.29,1.45-0.29c0.83,0,1.49,0.21,1.96,0.63s0.72,0.99,0.74,1.73v3.34c0,0.67,0.08,1.2,0.25,1.59
		v0.11H157.95z M155.89,95.31c0.39,0,0.76-0.1,1.11-0.3c0.35-0.2,0.6-0.46,0.76-0.78v-1.49h-0.97c-1.52,0-2.28,0.44-2.28,1.33
		c0,0.39,0.13,0.69,0.39,0.91C155.15,95.2,155.48,95.31,155.89,95.31z"/>
	<path class="st0" d="M163.85,95.38c0.44,0,0.83-0.13,1.16-0.4c0.33-0.27,0.51-0.6,0.55-1.01h1.17c-0.02,0.42-0.17,0.81-0.43,1.19
		c-0.26,0.38-0.62,0.67-1.06,0.9c-0.44,0.22-0.91,0.34-1.4,0.34c-0.99,0-1.77-0.33-2.36-0.99s-0.87-1.56-0.87-2.71v-0.21
		c0-0.71,0.13-1.33,0.39-1.88c0.26-0.55,0.63-0.98,1.12-1.28c0.49-0.3,1.06-0.46,1.72-0.46c0.81,0,1.49,0.24,2.03,0.73
		c0.54,0.49,0.83,1.12,0.86,1.9h-1.17c-0.04-0.47-0.21-0.85-0.53-1.16c-0.32-0.3-0.71-0.45-1.18-0.45c-0.63,0-1.12,0.23-1.46,0.68
		c-0.35,0.45-0.52,1.11-0.52,1.97v0.23c0,0.84,0.17,1.48,0.52,1.93C162.72,95.15,163.21,95.38,163.85,95.38z"/>
	<path class="st0" d="M170.5,94.44l1.69-5.44h1.33l-2.92,8.37c-0.45,1.21-1.17,1.81-2.15,1.81l-0.23-0.02l-0.46-0.09v-1.01
		l0.33,0.03c0.42,0,0.75-0.08,0.98-0.25c0.24-0.17,0.43-0.48,0.58-0.93l0.28-0.74L167.33,89h1.35L170.5,94.44z"/>
	<path class="st0" d="M182.02,94.98c-0.33,0.47-0.79,0.83-1.38,1.06c-0.59,0.23-1.28,0.35-2.07,0.35c-0.8,0-1.5-0.19-2.12-0.56
		c-0.62-0.37-1.09-0.9-1.43-1.59c-0.34-0.69-0.51-1.49-0.52-2.39V91c0-1.47,0.34-2.61,1.03-3.42s1.65-1.21,2.89-1.21
		c1.02,0,1.84,0.26,2.46,0.78c0.62,0.52,1,1.26,1.14,2.22h-1.29c-0.24-1.3-1.01-1.94-2.31-1.94c-0.86,0-1.52,0.3-1.96,0.91
		s-0.67,1.48-0.67,2.63v0.8c0,1.1,0.25,1.97,0.75,2.61c0.5,0.65,1.18,0.97,2.03,0.97c0.48,0,0.9-0.05,1.27-0.16
		c0.36-0.11,0.66-0.29,0.9-0.54v-2.19h-2.26V91.4h3.54V94.98z"/>
	<path class="st0" d="M188.45,95.54c-0.48,0.57-1.19,0.85-2.12,0.85c-0.77,0-1.36-0.22-1.77-0.67c-0.41-0.45-0.61-1.11-0.61-1.99V89
		h1.24v4.69c0,1.1,0.45,1.65,1.34,1.65c0.95,0,1.58-0.35,1.89-1.06V89h1.24v7.25h-1.18L188.45,95.54z"/>
	<path class="st0" d="M196.02,96.26c-0.07-0.14-0.13-0.4-0.17-0.76c-0.58,0.6-1.26,0.9-2.06,0.9c-0.72,0-1.3-0.2-1.76-0.61
		c-0.46-0.4-0.69-0.92-0.69-1.54c0-0.76,0.29-1.34,0.86-1.76s1.38-0.63,2.42-0.63h1.21v-0.57c0-0.43-0.13-0.78-0.39-1.04
		c-0.26-0.26-0.64-0.39-1.15-0.39c-0.44,0-0.81,0.11-1.11,0.33c-0.3,0.22-0.45,0.49-0.45,0.81h-1.25c0-0.36,0.13-0.71,0.39-1.05
		s0.61-0.6,1.05-0.8c0.44-0.2,0.92-0.29,1.45-0.29c0.83,0,1.49,0.21,1.96,0.63s0.72,0.99,0.74,1.73v3.34c0,0.67,0.08,1.2,0.25,1.59
		v0.11H196.02z M193.96,95.31c0.39,0,0.76-0.1,1.11-0.3c0.35-0.2,0.6-0.46,0.76-0.78v-1.49h-0.97c-1.52,0-2.28,0.44-2.28,1.33
		c0,0.39,0.13,0.69,0.39,0.91C193.22,95.2,193.55,95.31,193.96,95.31z"/>
	<path class="st0" d="M202.51,90.12c-0.19-0.03-0.39-0.05-0.61-0.05c-0.81,0-1.37,0.35-1.66,1.04v5.15h-1.24V89h1.21l0.02,0.84
		c0.41-0.65,0.98-0.97,1.73-0.97c0.24,0,0.42,0.03,0.55,0.09V90.12z"/>
	<path class="st0" d="M203.35,92.57c0-1.11,0.26-2.01,0.79-2.68c0.53-0.68,1.22-1.02,2.07-1.02c0.85,0,1.52,0.29,2.02,0.87v-3.78
		h1.24v10.3h-1.14l-0.06-0.78c-0.5,0.61-1.19,0.91-2.07,0.91c-0.84,0-1.52-0.34-2.05-1.03c-0.53-0.69-0.79-1.59-0.79-2.69V92.57z
		 M204.59,92.71c0,0.82,0.17,1.47,0.51,1.93c0.34,0.46,0.81,0.7,1.41,0.7c0.79,0,1.36-0.35,1.72-1.06v-3.33
		c-0.37-0.68-0.94-1.03-1.71-1.03c-0.61,0-1.08,0.23-1.42,0.7C204.76,91.1,204.59,91.79,204.59,92.71z"/>
	<path class="st0" d="M215.96,89l0.03,0.8c0.53-0.63,1.25-0.94,2.15-0.94c1.01,0,1.71,0.39,2.07,1.17c0.24-0.35,0.56-0.63,0.94-0.84
		c0.39-0.21,0.84-0.32,1.37-0.32c1.59,0,2.4,0.84,2.43,2.53v4.86h-1.24v-4.79c0-0.52-0.12-0.91-0.36-1.16
		c-0.24-0.26-0.63-0.39-1.19-0.39c-0.46,0-0.84,0.14-1.15,0.41s-0.48,0.64-0.53,1.11v4.81h-1.25v-4.75c0-1.05-0.52-1.58-1.55-1.58
		c-0.81,0-1.37,0.35-1.67,1.04v5.3h-1.24V89H215.96z"/>
	<path class="st0" d="M229.83,96.39c-0.98,0-1.78-0.32-2.4-0.97c-0.62-0.65-0.93-1.51-0.93-2.59V92.6c0-0.72,0.14-1.36,0.41-1.93
		c0.27-0.56,0.66-1.01,1.15-1.33s1.03-0.48,1.61-0.48c0.94,0,1.68,0.31,2.2,0.93c0.52,0.62,0.78,1.51,0.78,2.67v0.52h-4.91
		c0.02,0.71,0.23,1.29,0.63,1.73c0.4,0.44,0.91,0.66,1.53,0.66c0.44,0,0.81-0.09,1.11-0.27c0.3-0.18,0.57-0.42,0.8-0.71l0.76,0.59
		C231.96,95.92,231.05,96.39,229.83,96.39z M229.68,89.89c-0.5,0-0.92,0.18-1.26,0.55c-0.34,0.36-0.55,0.88-0.63,1.53h3.63v-0.09
		c-0.04-0.63-0.21-1.12-0.51-1.46S230.2,89.89,229.68,89.89z"/>
	<path class="st0" d="M235.26,89l0.03,0.8c0.53-0.63,1.25-0.94,2.15-0.94c1.01,0,1.71,0.39,2.07,1.17c0.24-0.35,0.56-0.63,0.94-0.84
		c0.39-0.21,0.84-0.32,1.37-0.32c1.59,0,2.4,0.84,2.43,2.53v4.86h-1.24v-4.79c0-0.52-0.12-0.91-0.36-1.16
		c-0.24-0.26-0.63-0.39-1.19-0.39c-0.46,0-0.84,0.14-1.15,0.41s-0.48,0.64-0.53,1.11v4.81h-1.25v-4.75c0-1.05-0.52-1.58-1.55-1.58
		c-0.81,0-1.37,0.35-1.67,1.04v5.3h-1.24V89H235.26z"/>
	<path class="st0" d="M252.27,92.71c0,1.11-0.25,2-0.76,2.67c-0.51,0.67-1.19,1.01-2.05,1.01c-0.92,0-1.62-0.32-2.12-0.97
		l-0.06,0.84h-1.14v-10.3h1.24v3.84c0.5-0.62,1.19-0.93,2.07-0.93c0.88,0,1.57,0.33,2.07,1c0.5,0.67,0.75,1.58,0.75,2.73V92.71z
		 M251.03,92.57c0-0.84-0.16-1.5-0.49-1.96c-0.33-0.46-0.8-0.69-1.41-0.69c-0.82,0-1.41,0.38-1.76,1.14v3.14
		c0.38,0.76,0.97,1.14,1.78,1.14c0.59,0,1.06-0.23,1.39-0.69C250.86,94.19,251.03,93.5,251.03,92.57z"/>
	<path class="st0" d="M256.84,96.39c-0.98,0-1.78-0.32-2.4-0.97c-0.62-0.65-0.93-1.51-0.93-2.59V92.6c0-0.72,0.14-1.36,0.41-1.93
		c0.27-0.56,0.66-1.01,1.15-1.33s1.03-0.48,1.61-0.48c0.94,0,1.68,0.31,2.2,0.93c0.52,0.62,0.78,1.51,0.78,2.67v0.52h-4.91
		c0.02,0.71,0.23,1.29,0.63,1.73c0.4,0.44,0.91,0.66,1.53,0.66c0.44,0,0.81-0.09,1.11-0.27c0.3-0.18,0.57-0.42,0.8-0.71l0.76,0.59
		C258.97,95.92,258.06,96.39,256.84,96.39z M256.69,89.89c-0.5,0-0.92,0.18-1.26,0.55c-0.34,0.36-0.55,0.88-0.63,1.53h3.63v-0.09
		c-0.04-0.63-0.21-1.12-0.51-1.46S257.21,89.89,256.69,89.89z"/>
	<path class="st0" d="M264.61,90.12c-0.19-0.03-0.39-0.05-0.61-0.05c-0.81,0-1.37,0.35-1.66,1.04v5.15h-1.24V89h1.21l0.02,0.84
		c0.41-0.65,0.98-0.97,1.73-0.97c0.24,0,0.42,0.03,0.55,0.09V90.12z"/>
	<path class="st0" d="M269.97,94.33c0-0.33-0.13-0.6-0.38-0.78c-0.25-0.19-0.69-0.35-1.32-0.48c-0.63-0.13-1.13-0.29-1.49-0.48
		c-0.37-0.19-0.64-0.41-0.82-0.67s-0.26-0.57-0.26-0.93c0-0.59,0.25-1.1,0.75-1.51c0.5-0.41,1.15-0.62,1.93-0.62
		c0.82,0,1.49,0.21,2,0.64c0.51,0.42,0.77,0.97,0.77,1.63h-1.25c0-0.34-0.14-0.63-0.43-0.88c-0.29-0.25-0.65-0.37-1.09-0.37
		c-0.45,0-0.8,0.1-1.06,0.29c-0.25,0.2-0.38,0.45-0.38,0.77c0,0.3,0.12,0.52,0.36,0.68c0.24,0.15,0.66,0.3,1.28,0.44
		s1.12,0.3,1.5,0.5c0.38,0.19,0.67,0.42,0.85,0.69c0.19,0.27,0.28,0.6,0.28,0.99c0,0.65-0.26,1.17-0.78,1.56
		c-0.52,0.39-1.19,0.59-2.02,0.59c-0.58,0-1.09-0.1-1.54-0.31c-0.45-0.21-0.8-0.49-1.05-0.86c-0.25-0.37-0.38-0.77-0.38-1.2h1.24
		c0.02,0.42,0.19,0.75,0.5,0.99c0.31,0.24,0.72,0.37,1.23,0.37c0.47,0,0.85-0.1,1.13-0.29C269.83,94.9,269.97,94.65,269.97,94.33z"
		/>
	<path class="st0" d="M272.86,95.61c0-0.21,0.06-0.39,0.19-0.54s0.32-0.21,0.57-0.21s0.45,0.07,0.58,0.21s0.2,0.32,0.2,0.54
		c0,0.21-0.07,0.38-0.2,0.52c-0.13,0.14-0.33,0.21-0.58,0.21s-0.45-0.07-0.57-0.21C272.92,95.99,272.86,95.81,272.86,95.61z"/>
</g>
</svg>
