<?xml version="1.0" encoding="utf-8"?>
<!-- Generator: Adobe Illustrator 24.2.3, SVG Export Plug-In . SVG Version: 6.00 Build 0)  -->
<svg version="1.1" id="Layer_1" xmlns="http://www.w3.org/2000/svg" xmlns:xlink="http://www.w3.org/1999/xlink" x="0px" y="0px"
	 viewBox="0 0 300 600" style="enable-background:new 0 0 300 600;" xml:space="preserve">
<style type="text/css">
	.st0{fill:url(#SVGID_1_);}
</style>
<linearGradient id="SVGID_1_" gradientUnits="userSpaceOnUse" x1="37.5078" y1="254.4021" x2="261.6328" y2="254.4021">
	<stop  offset="0" style="stop-color:#18B9FB"/>
	<stop  offset="0.5" style="stop-color:#782EEB"/>
	<stop  offset="1" style="stop-color:#E82D8A"/>
</linearGradient>
<path class="st0" d="M90.09,222.97h-7.52l-1.31,4.25h-5.86l8.34-22.75h5.16l8.41,22.75h-5.89L90.09,222.97z M83.89,218.74h4.89
	l-2.45-7.89L83.89,218.74z M105.88,223.47c0.74,0,1.31-0.2,1.72-0.6c0.41-0.4,0.6-0.96,0.59-1.68h4.94c0,1.85-0.66,3.38-1.99,4.56
	s-3.04,1.78-5.13,1.78c-2.46,0-4.4-0.77-5.81-2.31c-1.42-1.54-2.12-3.68-2.12-6.41v-0.22c0-1.71,0.31-3.22,0.95-4.52
	c0.63-1.31,1.54-2.31,2.73-3.02s2.59-1.05,4.22-1.05c2.2,0,3.94,0.61,5.23,1.83c1.29,1.22,1.94,2.87,1.94,4.95h-4.94
	c0-0.88-0.21-1.55-0.64-2.02c-0.43-0.47-1-0.7-1.72-0.7c-1.37,0-2.16,0.87-2.39,2.61c-0.07,0.55-0.11,1.31-0.11,2.28
	c0,1.7,0.2,2.88,0.61,3.53C104.34,223.14,104.99,223.47,105.88,223.47z M122.5,223.47c0.74,0,1.31-0.2,1.72-0.6
	c0.41-0.4,0.6-0.96,0.59-1.68h4.94c0,1.85-0.66,3.38-1.99,4.56s-3.04,1.78-5.13,1.78c-2.46,0-4.4-0.77-5.81-2.31
	c-1.42-1.54-2.12-3.68-2.12-6.41v-0.22c0-1.71,0.31-3.22,0.95-4.52c0.63-1.31,1.54-2.31,2.73-3.02s2.59-1.05,4.22-1.05
	c2.2,0,3.94,0.61,5.23,1.83c1.29,1.22,1.94,2.87,1.94,4.95h-4.94c0-0.88-0.21-1.55-0.64-2.02c-0.43-0.47-1-0.7-1.72-0.7
	c-1.37,0-2.16,0.87-2.39,2.61c-0.07,0.55-0.11,1.31-0.11,2.28c0,1.7,0.2,2.88,0.61,3.53C120.97,223.14,121.61,223.47,122.5,223.47z
	 M140.16,227.53c-2.59,0-4.69-0.77-6.3-2.32c-1.6-1.55-2.41-3.56-2.41-6.04v-0.44c0-1.73,0.32-3.25,0.96-4.58
	c0.64-1.32,1.58-2.35,2.8-3.07c1.23-0.72,2.69-1.09,4.38-1.09c2.38,0,4.25,0.74,5.62,2.21c1.38,1.47,2.06,3.53,2.06,6.16v2.05
	h-10.47c0.19,0.95,0.6,1.69,1.23,2.23c0.63,0.54,1.46,0.81,2.47,0.81c1.67,0,2.97-0.58,3.91-1.75l2.41,2.84
	c-0.66,0.91-1.59,1.63-2.79,2.16S141.54,227.53,140.16,227.53z M139.56,214.06c-1.54,0-2.46,1.02-2.75,3.06h5.31v-0.41
	c0.02-0.84-0.19-1.5-0.64-1.96C141.04,214.3,140.4,214.06,139.56,214.06z M158.25,222.47c0-0.45-0.23-0.81-0.7-1.08
	c-0.47-0.27-1.36-0.55-2.67-0.84c-1.31-0.29-2.4-0.67-3.25-1.15c-0.85-0.47-1.51-1.05-1.95-1.73c-0.45-0.68-0.67-1.45-0.67-2.33
	c0-1.55,0.64-2.83,1.92-3.84c1.28-1,2.96-1.51,5.03-1.51c2.23,0,4.02,0.51,5.38,1.52c1.35,1.01,2.03,2.34,2.03,3.98h-5.28
	c0-1.35-0.71-2.03-2.14-2.03c-0.55,0-1.02,0.15-1.39,0.46c-0.38,0.31-0.56,0.69-0.56,1.15c0,0.47,0.23,0.85,0.69,1.14
	c0.46,0.29,1.19,0.53,2.2,0.72c1,0.19,1.89,0.41,2.65,0.67c2.54,0.88,3.81,2.44,3.81,4.7c0,1.54-0.69,2.8-2.05,3.77
	c-1.37,0.97-3.14,1.45-5.32,1.45c-1.45,0-2.74-0.26-3.88-0.78c-1.14-0.52-2.02-1.23-2.66-2.12c-0.64-0.9-0.95-1.84-0.95-2.83h4.92
	c0.02,0.78,0.28,1.35,0.78,1.71s1.14,0.54,1.92,0.54c0.72,0,1.26-0.15,1.62-0.44C158.07,223.32,158.25,222.94,158.25,222.47z
	 M174.64,222.47c0-0.45-0.23-0.81-0.7-1.08c-0.47-0.27-1.36-0.55-2.67-0.84c-1.31-0.29-2.4-0.67-3.25-1.15
	c-0.85-0.47-1.51-1.05-1.95-1.73c-0.45-0.68-0.67-1.45-0.67-2.33c0-1.55,0.64-2.83,1.92-3.84c1.28-1,2.96-1.51,5.03-1.51
	c2.23,0,4.02,0.51,5.38,1.52c1.35,1.01,2.03,2.34,2.03,3.98h-5.28c0-1.35-0.71-2.03-2.14-2.03c-0.55,0-1.02,0.15-1.39,0.46
	c-0.38,0.31-0.56,0.69-0.56,1.15c0,0.47,0.23,0.85,0.69,1.14c0.46,0.29,1.19,0.53,2.2,0.72c1,0.19,1.89,0.41,2.65,0.67
	c2.54,0.88,3.81,2.44,3.81,4.7c0,1.54-0.69,2.8-2.05,3.77c-1.37,0.97-3.14,1.45-5.32,1.45c-1.45,0-2.74-0.26-3.88-0.78
	c-1.14-0.52-2.02-1.23-2.66-2.12c-0.64-0.9-0.95-1.84-0.95-2.83h4.92c0.02,0.78,0.28,1.35,0.78,1.71s1.14,0.54,1.92,0.54
	c0.72,0,1.26-0.15,1.62-0.44C174.46,223.32,174.64,222.94,174.64,222.47z M199.67,227.22c-0.19-0.34-0.35-0.85-0.5-1.52
	c-0.97,1.22-2.32,1.83-4.06,1.83c-1.59,0-2.95-0.48-4.06-1.45c-1.12-0.96-1.67-2.17-1.67-3.63c0-1.83,0.68-3.22,2.03-4.16
	c1.35-0.94,3.32-1.41,5.91-1.41h1.62V216c0-1.56-0.67-2.34-2.02-2.34c-1.25,0-1.88,0.62-1.88,1.85h-5.27c0-1.63,0.7-2.96,2.09-3.98
	s3.16-1.53,5.32-1.53c2.16,0,3.86,0.53,5.11,1.58c1.25,1.05,1.89,2.5,1.92,4.33v7.48c0.02,1.55,0.26,2.74,0.72,3.56v0.27H199.67z
	 M196.38,223.78c0.66,0,1.2-0.14,1.63-0.42c0.43-0.28,0.74-0.6,0.93-0.95v-2.7h-1.53c-1.83,0-2.75,0.82-2.75,2.47
	c0,0.48,0.16,0.87,0.48,1.16C195.46,223.64,195.88,223.78,196.38,223.78z M211.97,210.31l0.17,1.98c1.17-1.53,2.78-2.3,4.83-2.3
	c1.76,0,3.08,0.53,3.95,1.58c0.87,1.05,1.32,2.64,1.35,4.75v10.89h-5.28v-10.67c0-0.85-0.17-1.48-0.52-1.88
	c-0.34-0.4-0.97-0.6-1.88-0.6c-1.03,0-1.8,0.41-2.3,1.22v11.94h-5.27v-16.91H211.97z M53.18,265.62c-0.19-0.34-0.35-0.85-0.5-1.52
	c-0.97,1.22-2.32,1.83-4.06,1.83c-1.59,0-2.95-0.48-4.06-1.45c-1.12-0.96-1.67-2.17-1.67-3.63c0-1.83,0.68-3.22,2.03-4.16
	c1.35-0.94,3.32-1.41,5.91-1.41h1.62v-0.89c0-1.56-0.67-2.34-2.02-2.34c-1.25,0-1.88,0.62-1.88,1.85h-5.27
	c0-1.63,0.7-2.96,2.09-3.98s3.16-1.53,5.32-1.53s3.86,0.53,5.11,1.58c1.25,1.05,1.89,2.5,1.92,4.33v7.48
	c0.02,1.55,0.26,2.74,0.72,3.56v0.27H53.18z M49.88,262.18c0.66,0,1.2-0.14,1.63-0.42c0.43-0.28,0.74-0.6,0.93-0.95v-2.7h-1.53
	c-1.83,0-2.75,0.82-2.75,2.47c0,0.48,0.16,0.87,0.48,1.16C48.97,262.04,49.38,262.18,49.88,262.18z M75.24,258.68l1.7-9.97h5.05
	l-3.98,16.91h-4.45l-2.8-10.03l-2.81,10.03h-4.45l-3.98-16.91h5.05l1.67,10.2l2.69-10.2h3.67L75.24,258.68z M93.4,265.62
	c-0.19-0.34-0.35-0.85-0.5-1.52c-0.97,1.22-2.32,1.83-4.06,1.83c-1.59,0-2.95-0.48-4.06-1.45c-1.12-0.96-1.67-2.17-1.67-3.63
	c0-1.83,0.68-3.22,2.03-4.16c1.35-0.94,3.32-1.41,5.91-1.41h1.62v-0.89c0-1.56-0.67-2.34-2.02-2.34c-1.25,0-1.88,0.62-1.88,1.85
	h-5.27c0-1.63,0.7-2.96,2.09-3.98s3.16-1.53,5.32-1.53s3.86,0.53,5.11,1.58c1.25,1.05,1.89,2.5,1.92,4.33v7.48
	c0.02,1.55,0.26,2.74,0.72,3.56v0.27H93.4z M90.1,262.18c0.66,0,1.2-0.14,1.63-0.42c0.43-0.28,0.74-0.6,0.93-0.95v-2.7h-1.53
	c-1.83,0-2.75,0.82-2.75,2.47c0,0.48,0.16,0.87,0.48,1.16C89.19,262.04,89.6,262.18,90.1,262.18z M111.09,253.48l-1.73-0.12
	c-1.66,0-2.72,0.52-3.19,1.56v10.7h-5.27v-16.91h4.94l0.17,2.17c0.88-1.66,2.12-2.48,3.7-2.48c0.56,0,1.05,0.06,1.47,0.19
	L111.09,253.48z M112.02,257.04c0-2.68,0.58-4.79,1.73-6.33c1.16-1.54,2.77-2.31,4.84-2.31c1.51,0,2.78,0.59,3.81,1.78v-8.56h5.28
	v24h-4.73l-0.27-1.81c-1.08,1.42-2.46,2.12-4.12,2.12c-2.01,0-3.6-0.77-4.78-2.31C112.61,262.08,112.02,259.89,112.02,257.04z
	 M117.29,257.37c0,3,0.88,4.5,2.62,4.5c1.17,0,2-0.49,2.5-1.47v-6.44c-0.48-1-1.3-1.5-2.47-1.5c-1.62,0-2.51,1.31-2.64,3.94
	L117.29,257.37z M140.98,257.84h-9.39v-4.06h9.39V257.84z M159.68,258.68l1.7-9.97h5.05l-3.98,16.91h-4.45l-2.8-10.03l-2.81,10.03
	h-4.45l-3.98-16.91h5.05l1.67,10.2l2.69-10.2h3.67L159.68,258.68z M168.27,244.36c0-0.75,0.27-1.36,0.81-1.84
	c0.54-0.48,1.24-0.72,2.11-0.72c0.86,0,1.57,0.24,2.11,0.72c0.54,0.48,0.81,1.09,0.81,1.84s-0.27,1.37-0.81,1.84
	c-0.54,0.48-1.25,0.72-2.11,0.72c-0.87,0-1.57-0.24-2.11-0.72C168.54,245.72,168.27,245.11,168.27,244.36z M173.87,265.62h-5.28
	v-16.91h5.28V265.62z M181.95,248.72l0.17,1.98c1.17-1.53,2.78-2.3,4.83-2.3c1.76,0,3.08,0.53,3.95,1.58
	c0.87,1.05,1.32,2.64,1.35,4.75v10.89h-5.28v-10.67c0-0.85-0.17-1.48-0.52-1.88c-0.34-0.4-0.97-0.6-1.88-0.6
	c-1.03,0-1.8,0.41-2.3,1.22v11.94h-5.27v-16.91H181.95z M199.99,248.72l0.17,1.98c1.17-1.53,2.78-2.3,4.83-2.3
	c1.76,0,3.08,0.53,3.95,1.58c0.87,1.05,1.32,2.64,1.35,4.75v10.89h-5.28v-10.67c0-0.85-0.17-1.48-0.52-1.88
	c-0.34-0.4-0.97-0.6-1.88-0.6c-1.03,0-1.8,0.41-2.3,1.22v11.94h-5.27v-16.91H199.99z M213.16,244.36c0-0.75,0.27-1.36,0.81-1.84
	c0.54-0.48,1.24-0.72,2.11-0.72c0.86,0,1.57,0.24,2.11,0.72c0.54,0.48,0.81,1.09,0.81,1.84s-0.27,1.37-0.81,1.84
	c-0.54,0.48-1.25,0.72-2.11,0.72c-0.87,0-1.57-0.24-2.11-0.72C213.43,245.72,213.16,245.11,213.16,244.36z M218.76,265.62h-5.28
	v-16.91h5.28V265.62z M226.84,248.72l0.17,1.98c1.17-1.53,2.78-2.3,4.83-2.3c1.76,0,3.08,0.53,3.95,1.58
	c0.87,1.05,1.32,2.64,1.35,4.75v10.89h-5.28v-10.67c0-0.85-0.17-1.48-0.52-1.88c-0.34-0.4-0.97-0.6-1.88-0.6
	c-1.03,0-1.8,0.41-2.3,1.22v11.94h-5.27v-16.91H226.84z M239.43,257.04c0-1.71,0.28-3.22,0.84-4.53s1.37-2.33,2.42-3.04
	c1.05-0.71,2.28-1.07,3.67-1.07c1.76,0,3.13,0.59,4.12,1.78l0.19-1.47h4.78v16.27c0,1.49-0.35,2.78-1.04,3.88
	c-0.69,1.1-1.7,1.94-3.01,2.53c-1.31,0.59-2.83,0.88-4.56,0.88c-1.24,0-2.44-0.23-3.6-0.7c-1.16-0.47-2.05-1.08-2.66-1.83l2.2-3.09
	c0.98,1.16,2.27,1.73,3.88,1.73c2.33,0,3.5-1.2,3.5-3.59v-0.53c-1.01,1.12-2.29,1.67-3.83,1.67c-2.06,0-3.73-0.79-5-2.37
	c-1.27-1.58-1.91-3.69-1.91-6.34V257.04z M244.71,257.37c0,1.39,0.26,2.48,0.78,3.29c0.52,0.81,1.25,1.21,2.19,1.21
	c1.13,0,1.96-0.38,2.48-1.14v-7.11c-0.51-0.77-1.33-1.16-2.45-1.16c-0.94,0-1.67,0.42-2.2,1.26
	C244.98,254.56,244.71,255.78,244.71,257.37z M47.7,291.88l-1.73-0.12c-1.66,0-2.72,0.52-3.19,1.56v10.7h-5.27v-16.91h4.94
	l0.17,2.17c0.88-1.66,2.12-2.48,3.7-2.48c0.56,0,1.05,0.06,1.47,0.19L47.7,291.88z M57.48,304.33c-2.59,0-4.69-0.77-6.3-2.32
	c-1.6-1.55-2.41-3.56-2.41-6.04v-0.44c0-1.73,0.32-3.25,0.96-4.58c0.64-1.32,1.58-2.35,2.8-3.07c1.23-0.72,2.69-1.09,4.38-1.09
	c2.38,0,4.25,0.74,5.62,2.21c1.38,1.47,2.06,3.53,2.06,6.16v2.05H54.13c0.19,0.95,0.6,1.69,1.23,2.23c0.63,0.54,1.46,0.81,2.47,0.81
	c1.67,0,2.97-0.58,3.91-1.75l2.41,2.84c-0.66,0.91-1.59,1.63-2.79,2.16C60.16,304.06,58.86,304.33,57.48,304.33z M56.88,290.86
	c-1.54,0-2.46,1.02-2.75,3.06h5.31v-0.41c0.02-0.84-0.19-1.5-0.64-1.96C58.36,291.1,57.72,290.86,56.88,290.86z M75.57,299.27
	c0-0.45-0.23-0.81-0.7-1.08c-0.47-0.27-1.36-0.55-2.67-0.84c-1.31-0.29-2.4-0.67-3.25-1.15c-0.85-0.47-1.51-1.05-1.95-1.73
	c-0.45-0.68-0.67-1.45-0.67-2.33c0-1.55,0.64-2.83,1.92-3.84c1.28-1,2.96-1.51,5.03-1.51c2.23,0,4.02,0.51,5.38,1.52
	c1.35,1.01,2.03,2.34,2.03,3.98H75.4c0-1.35-0.71-2.03-2.14-2.03c-0.55,0-1.02,0.15-1.39,0.46c-0.38,0.31-0.56,0.69-0.56,1.15
	c0,0.47,0.23,0.85,0.69,1.14c0.46,0.29,1.19,0.53,2.2,0.72c1,0.19,1.89,0.41,2.65,0.67c2.54,0.88,3.81,2.44,3.81,4.7
	c0,1.54-0.69,2.8-2.05,3.77c-1.37,0.97-3.14,1.45-5.32,1.45c-1.45,0-2.74-0.26-3.88-0.78c-1.14-0.52-2.02-1.23-2.66-2.12
	c-0.64-0.9-0.95-1.84-0.95-2.83h4.92c0.02,0.78,0.28,1.35,0.78,1.71s1.14,0.54,1.92,0.54c0.72,0,1.26-0.15,1.62-0.44
	C75.39,300.12,75.57,299.74,75.57,299.27z M82.45,295.41c0-1.69,0.33-3.19,0.98-4.51c0.66-1.32,1.6-2.33,2.83-3.04
	c1.23-0.71,2.67-1.06,4.33-1.06c2.53,0,4.53,0.78,5.98,2.35c1.46,1.57,2.19,3.7,2.19,6.4v0.19c0,2.64-0.73,4.73-2.2,6.27
	c-1.46,1.55-3.45,2.32-5.95,2.32c-2.41,0-4.34-0.72-5.8-2.16c-1.46-1.44-2.25-3.4-2.36-5.87L82.45,295.41z M87.71,295.74
	c0,1.56,0.24,2.71,0.73,3.44c0.49,0.73,1.21,1.09,2.17,1.09c1.88,0,2.83-1.44,2.88-4.33v-0.53c0-3.03-0.97-4.55-2.91-4.55
	c-1.76,0-2.71,1.31-2.86,3.92L87.71,295.74z M106.63,304.02h-5.28v-24h5.28V304.02z M119.95,302.19c-1.12,1.43-2.62,2.14-4.52,2.14
	c-1.85,0-3.26-0.54-4.21-1.62s-1.43-2.63-1.43-4.65v-10.95h5.27v10.98c0,1.45,0.7,2.17,2.11,2.17c1.21,0,2.07-0.43,2.58-1.3v-11.86
	h5.3v16.91h-4.94L119.95,302.19z M134.05,282.91v4.2h2.78v3.66h-2.78v7.73c0,0.64,0.11,1.08,0.34,1.33
	c0.23,0.25,0.68,0.38,1.36,0.38c0.52,0,0.96-0.03,1.31-0.09v3.77c-0.95,0.3-1.94,0.45-2.97,0.45c-1.81,0-3.15-0.43-4.02-1.28
	c-0.87-0.85-1.3-2.15-1.3-3.89v-8.39h-2.16v-3.66h2.16v-4.2H134.05z M138.87,282.75c0-0.75,0.27-1.36,0.81-1.84
	c0.54-0.48,1.24-0.72,2.11-0.72c0.86,0,1.57,0.24,2.11,0.72c0.54,0.48,0.81,1.09,0.81,1.84s-0.27,1.37-0.81,1.84
	c-0.54,0.48-1.25,0.72-2.11,0.72c-0.87,0-1.57-0.24-2.11-0.72C139.14,284.12,138.87,283.5,138.87,282.75z M144.46,304.02h-5.28
	v-16.91h5.28V304.02z M147.04,295.41c0-1.69,0.33-3.19,0.98-4.51c0.66-1.32,1.6-2.33,2.83-3.04c1.23-0.71,2.67-1.06,4.33-1.06
	c2.53,0,4.53,0.78,5.98,2.35c1.46,1.57,2.19,3.7,2.19,6.4v0.19c0,2.64-0.73,4.73-2.2,6.27c-1.46,1.55-3.45,2.32-5.95,2.32
	c-2.41,0-4.34-0.72-5.8-2.16c-1.46-1.44-2.25-3.4-2.36-5.87L147.04,295.41z M152.3,295.74c0,1.56,0.24,2.71,0.73,3.44
	c0.49,0.73,1.21,1.09,2.17,1.09c1.88,0,2.83-1.44,2.88-4.33v-0.53c0-3.03-0.97-4.55-2.91-4.55c-1.76,0-2.71,1.31-2.86,3.92
	L152.3,295.74z M170.51,287.11l0.17,1.98c1.17-1.53,2.78-2.3,4.83-2.3c1.76,0,3.08,0.53,3.95,1.58c0.87,1.05,1.32,2.64,1.35,4.75
	v10.89h-5.28v-10.67c0-0.85-0.17-1.48-0.52-1.88c-0.34-0.4-0.97-0.6-1.88-0.6c-1.03,0-1.8,0.41-2.3,1.22v11.94h-5.27v-16.91H170.51z
	 M197.82,282.91v4.2h2.78v3.66h-2.78v7.73c0,0.64,0.11,1.08,0.34,1.33c0.23,0.25,0.68,0.38,1.36,0.38c0.52,0,0.96-0.03,1.31-0.09
	v3.77c-0.95,0.3-1.94,0.45-2.97,0.45c-1.81,0-3.15-0.43-4.02-1.28c-0.87-0.85-1.3-2.15-1.3-3.89v-8.39h-2.16v-3.66h2.16v-4.2H197.82
	z M210.85,304.33c-2.59,0-4.69-0.77-6.3-2.32c-1.6-1.55-2.41-3.56-2.41-6.04v-0.44c0-1.73,0.32-3.25,0.96-4.58
	c0.64-1.32,1.58-2.35,2.8-3.07c1.23-0.72,2.69-1.09,4.38-1.09c2.38,0,4.25,0.74,5.62,2.21c1.38,1.47,2.06,3.53,2.06,6.16v2.05
	h-10.47c0.19,0.95,0.6,1.69,1.23,2.23c0.63,0.54,1.46,0.81,2.47,0.81c1.67,0,2.97-0.58,3.91-1.75l2.41,2.84
	c-0.66,0.91-1.59,1.63-2.79,2.16C213.53,304.06,212.24,304.33,210.85,304.33z M210.26,290.86c-1.54,0-2.46,1.02-2.75,3.06h5.31
	v-0.41c0.02-0.84-0.19-1.5-0.64-1.96C211.73,291.1,211.09,290.86,210.26,290.86z M229.62,304.02c-0.19-0.34-0.35-0.85-0.5-1.52
	c-0.97,1.22-2.32,1.83-4.06,1.83c-1.59,0-2.95-0.48-4.06-1.45c-1.12-0.96-1.67-2.17-1.67-3.63c0-1.83,0.68-3.22,2.03-4.16
	c1.35-0.94,3.32-1.41,5.91-1.41h1.62v-0.89c0-1.56-0.67-2.34-2.02-2.34c-1.25,0-1.88,0.62-1.88,1.85h-5.27
	c0-1.63,0.7-2.96,2.09-3.98c1.39-1.02,3.16-1.53,5.32-1.53s3.86,0.53,5.11,1.58c1.25,1.05,1.89,2.5,1.92,4.33v7.48
	c0.02,1.55,0.26,2.74,0.72,3.56v0.27H229.62z M226.32,300.58c0.66,0,1.2-0.14,1.63-0.42c0.43-0.28,0.74-0.6,0.93-0.95v-2.7h-1.53
	c-1.83,0-2.75,0.82-2.75,2.47c0,0.48,0.16,0.87,0.48,1.16C225.41,300.43,225.82,300.58,226.32,300.58z M242.05,287.11l0.17,1.98
	c1.2-1.53,2.81-2.3,4.83-2.3c2.13,0,3.58,0.85,4.33,2.55c1.15-1.7,2.8-2.55,4.97-2.55c3.43,0,5.19,2.07,5.28,6.22v11h-5.28v-10.67
	c0-0.86-0.15-1.49-0.44-1.89c-0.29-0.4-0.82-0.59-1.59-0.59c-1.04,0-1.82,0.46-2.33,1.39l0.02,0.22v11.55h-5.28v-10.64
	c0-0.88-0.14-1.53-0.42-1.92c-0.28-0.4-0.82-0.59-1.61-0.59c-1.01,0-1.78,0.46-2.31,1.39v11.77h-5.27v-16.91H242.05z"/>
</svg>
