<?xml version="1.0" encoding="utf-8"?>
<!-- Generator: Adobe Illustrator 24.2.3, SVG Export Plug-In . SVG Version: 6.00 Build 0)  -->
<svg version="1.1" id="Layer_1" xmlns="http://www.w3.org/2000/svg" xmlns:xlink="http://www.w3.org/1999/xlink" x="0px" y="0px"
	 viewBox="0 0 320 100" style="enable-background:new 0 0 320 100;" xml:space="preserve">
<style type="text/css">
	.st0{fill:#FFFFFF;}
	.st1{fill:#021D8B;}
	.st2{fill:#EDF4FD;}
</style>
<g id="PG_x5F_Logo_x5F_W_2_">
	<path class="st0" d="M101.35,81.41c0-0.12,0.04-0.22,0.12-0.3c0.08-0.08,0.18-0.12,0.31-0.12c0.11,0,0.21,0.04,0.3,0.12
		c0.09,0.08,0.13,0.18,0.13,0.3v4.75c0,0.12-0.04,0.22-0.12,0.31c-0.08,0.08-0.18,0.12-0.31,0.12c-0.11,0-0.21-0.04-0.3-0.12
		c-0.09-0.08-0.13-0.18-0.13-0.31V81.41z"/>
	<g>
		<g>
			<g>
				<path class="st0" d="M77.39,88.89c-0.35,0.26-0.76,0.39-1.23,0.39c-0.26-0.02-0.47-0.06-0.62-0.1c-0.15-0.04-0.29-0.11-0.42-0.2
					c-0.13-0.09-0.19-0.21-0.19-0.36c0-0.13,0.04-0.23,0.12-0.31c0.08-0.08,0.18-0.12,0.3-0.12c0.1,0,0.18,0.03,0.26,0.08
					c0.19,0.1,0.39,0.16,0.59,0.16c0.16,0,0.32-0.03,0.45-0.09c0.14-0.06,0.26-0.14,0.37-0.24c0.11-0.1,0.19-0.22,0.25-0.35
					c0.06-0.13,0.09-0.28,0.1-0.44v-3.21c0-0.12,0.04-0.22,0.12-0.3c0.08-0.08,0.18-0.12,0.3-0.12c0.11,0,0.21,0.04,0.3,0.12
					c0.09,0.08,0.13,0.18,0.13,0.3c0,0,0,2.66,0,3.24C78.24,87.96,77.93,88.51,77.39,88.89z"/>
				<path class="st0" d="M58.16,79.48c0-0.12,0.04-0.22,0.12-0.3c0.08-0.08,0.18-0.12,0.3-0.12c0.11,0,0.21,0.04,0.3,0.12
					c0.09,0.08,0.13,0.18,0.13,0.3v0.33c0,0.12-0.04,0.22-0.12,0.3c-0.08,0.08-0.18,0.12-0.3,0.12c-0.11,0-0.21-0.04-0.3-0.12
					c-0.09-0.08-0.13-0.18-0.13-0.3V79.48z M58.16,81.45c0-0.12,0.04-0.22,0.12-0.3c0.08-0.08,0.18-0.12,0.3-0.12
					c0.11,0,0.21,0.04,0.3,0.12c0.09,0.08,0.13,0.18,0.13,0.3v4.71c0,0.12-0.04,0.22-0.12,0.3c-0.08,0.08-0.18,0.12-0.3,0.12
					c-0.11,0-0.21-0.04-0.3-0.12c-0.09-0.08-0.13-0.18-0.13-0.3V81.45z"/>
				<g>
					<path class="st0" d="M54.44,81.56c0-0.12,0.04-0.22,0.12-0.3c0.08-0.08,0.18-0.12,0.3-0.12c0.09,0,0.18,0.03,0.26,0.09
						c0.08,0.06,0.13,0.14,0.15,0.25c0.34-0.26,0.75-0.38,1.21-0.38c0.26,0.02,0.46,0.05,0.61,0.1c0.15,0.04,0.29,0.11,0.41,0.19
						c0.12,0.08,0.19,0.2,0.19,0.36c0,0.12-0.04,0.22-0.12,0.3c-0.08,0.08-0.18,0.12-0.3,0.12c-0.1,0-0.18-0.03-0.25-0.08
						c-0.18-0.1-0.38-0.15-0.58-0.15c-0.16,0-0.31,0.03-0.44,0.09c-0.14,0.06-0.26,0.14-0.36,0.24c-0.11,0.1-0.19,0.21-0.25,0.35
						c-0.06,0.13-0.09,0.27-0.1,0.43v3.14c0,0.12-0.04,0.22-0.12,0.3c-0.08,0.08-0.18,0.12-0.3,0.12c-0.11,0-0.21-0.04-0.29-0.12
						c-0.08-0.08-0.13-0.18-0.13-0.3V83V81.56z"/>
				</g>
				<path class="st0" d="M59.59,81.61c-0.02-0.05-0.03-0.11-0.03-0.17c0-0.1,0.04-0.2,0.11-0.29c0.07-0.09,0.18-0.13,0.3-0.13
					c0.08,0,0.16,0.02,0.23,0.07c0.07,0.04,0.13,0.11,0.16,0.19l1.66,3.87l1.66-3.87c0.07-0.17,0.21-0.26,0.39-0.26
					c0.13,0,0.23,0.04,0.3,0.13c0.07,0.09,0.11,0.19,0.11,0.29c0,0.06-0.01,0.12-0.03,0.17l-2.04,4.77
					c-0.08,0.17-0.21,0.26-0.39,0.26c-0.19,0-0.33-0.09-0.39-0.26L59.59,81.61z"/>
				<path class="st0" d="M64.63,83c0-0.28,0.05-0.54,0.16-0.79c0.1-0.25,0.25-0.46,0.44-0.64c0.19-0.18,0.4-0.33,0.64-0.43
					c0.24-0.1,0.51-0.16,0.79-0.16c0.28,0,0.54,0.05,0.78,0.16c0.25,0.1,0.46,0.25,0.64,0.43c0.18,0.18,0.33,0.4,0.44,0.64
					c0.11,0.25,0.16,0.51,0.16,0.79v3.16c0,0.12-0.04,0.22-0.13,0.3c-0.09,0.08-0.19,0.12-0.3,0.12c-0.1,0-0.2-0.03-0.27-0.1
					c-0.08-0.06-0.13-0.14-0.14-0.24c-0.34,0.25-0.74,0.38-1.19,0.38c-0.28,0-0.54-0.05-0.79-0.16c-0.25-0.1-0.46-0.25-0.64-0.43
					c-0.18-0.18-0.33-0.4-0.44-0.64c-0.11-0.25-0.16-0.51-0.16-0.78V83z M65.48,84.61c0,0.16,0.03,0.31,0.1,0.45
					c0.06,0.14,0.15,0.27,0.25,0.38c0.1,0.11,0.23,0.19,0.38,0.25c0.15,0.06,0.3,0.09,0.45,0.09c0.16,0,0.31-0.03,0.45-0.08
					c0.14-0.06,0.27-0.13,0.37-0.24c0.1-0.1,0.19-0.22,0.25-0.35c0.06-0.13,0.1-0.28,0.11-0.44V83c0-0.16-0.03-0.31-0.1-0.45
					c-0.06-0.14-0.15-0.27-0.25-0.38c-0.1-0.11-0.23-0.19-0.38-0.25c-0.15-0.06-0.3-0.09-0.45-0.09c-0.16,0-0.32,0.03-0.46,0.09
					c-0.14,0.06-0.27,0.14-0.38,0.25c-0.11,0.11-0.19,0.23-0.25,0.38c-0.06,0.14-0.09,0.29-0.09,0.45V84.61z"/>
				<path class="st0" d="M69.47,83c0-0.28,0.05-0.55,0.16-0.8c0.11-0.25,0.26-0.46,0.45-0.64c0.19-0.18,0.41-0.32,0.66-0.43
					c0.25-0.1,0.52-0.16,0.8-0.16c0.05,0,0.16,0.01,0.31,0.03c0.15,0.02,0.32,0.07,0.51,0.15c0.19,0.08,0.37,0.21,0.56,0.38
					c0.18,0.17,0.33,0.4,0.45,0.7c0.02,0.06,0.03,0.11,0.03,0.16c0,0.12-0.04,0.22-0.12,0.3c-0.08,0.08-0.18,0.12-0.3,0.12
					c-0.09,0-0.17-0.02-0.24-0.07c-0.07-0.05-0.12-0.11-0.15-0.2c-0.1-0.22-0.25-0.4-0.45-0.53c-0.19-0.13-0.41-0.19-0.64-0.19
					c-0.16,0-0.32,0.03-0.46,0.09c-0.14,0.06-0.27,0.14-0.38,0.25c-0.11,0.11-0.19,0.23-0.25,0.38c-0.06,0.14-0.09,0.29-0.09,0.45
					v1.61c0,0.16,0.03,0.31,0.1,0.45c0.06,0.14,0.15,0.27,0.25,0.38c0.1,0.11,0.23,0.19,0.38,0.25c0.15,0.06,0.3,0.09,0.45,0.09
					c0.24,0,0.46-0.06,0.65-0.19c0.19-0.13,0.34-0.3,0.44-0.53c0.04-0.08,0.09-0.15,0.16-0.2c0.07-0.05,0.15-0.07,0.24-0.07
					c0.12,0,0.22,0.04,0.3,0.13c0.08,0.09,0.12,0.19,0.12,0.3c0,0.05-0.01,0.1-0.03,0.16c-0.15,0.33-0.33,0.58-0.54,0.75
					c-0.21,0.17-0.41,0.3-0.61,0.37c-0.2,0.07-0.37,0.12-0.5,0.12c-0.14,0.01-0.21,0.01-0.22,0.01c-0.28,0-0.54-0.05-0.79-0.16
					c-0.25-0.1-0.46-0.25-0.64-0.43c-0.18-0.18-0.33-0.4-0.44-0.64c-0.11-0.25-0.16-0.51-0.16-0.78V83z"/>
				<path class="st0" d="M84.92,81.45c0-0.12,0.04-0.22,0.12-0.3c0.08-0.08,0.18-0.12,0.3-0.12c0.11,0,0.21,0.04,0.3,0.12
					c0.09,0.08,0.13,0.18,0.13,0.3v3.16c0,0.16,0.03,0.31,0.09,0.45c0.06,0.14,0.14,0.27,0.25,0.38c0.11,0.11,0.23,0.19,0.38,0.25
					c0.14,0.06,0.3,0.09,0.46,0.09c0.16,0,0.31-0.03,0.45-0.09c0.15-0.06,0.27-0.14,0.38-0.25c0.1-0.11,0.19-0.23,0.25-0.38
					c0.06-0.14,0.1-0.29,0.1-0.45v-3.16c0-0.12,0.04-0.22,0.12-0.3c0.08-0.08,0.18-0.12,0.3-0.12c0.11,0,0.21,0.04,0.3,0.12
					c0.09,0.08,0.13,0.18,0.13,0.3v3.16c0,0.28-0.05,0.54-0.16,0.78c-0.11,0.25-0.25,0.46-0.44,0.64c-0.18,0.18-0.4,0.33-0.64,0.43
					c-0.25,0.1-0.51,0.16-0.79,0.16c-0.28,0-0.55-0.05-0.79-0.16c-0.24-0.1-0.46-0.25-0.64-0.43c-0.19-0.18-0.33-0.4-0.44-0.64
					c-0.1-0.25-0.16-0.51-0.16-0.78V81.45z"/>
				<path class="st0" d="M89.78,83c0-0.28,0.05-0.54,0.16-0.79c0.1-0.25,0.25-0.46,0.44-0.64c0.19-0.18,0.4-0.33,0.64-0.43
					c0.24-0.1,0.51-0.16,0.79-0.16c0.28,0,0.54,0.05,0.78,0.16c0.25,0.1,0.46,0.25,0.64,0.43c0.18,0.18,0.33,0.4,0.44,0.64
					c0.11,0.25,0.16,0.51,0.16,0.79v3.16c0,0.12-0.04,0.22-0.13,0.3c-0.09,0.08-0.19,0.12-0.3,0.12c-0.1,0-0.2-0.03-0.27-0.1
					c-0.08-0.06-0.13-0.14-0.14-0.24c-0.34,0.25-0.74,0.38-1.19,0.38c-0.28,0-0.54-0.05-0.79-0.16c-0.25-0.1-0.46-0.25-0.64-0.43
					c-0.18-0.18-0.33-0.4-0.44-0.64c-0.11-0.25-0.16-0.51-0.16-0.78V83z M90.63,84.61c0,0.16,0.03,0.31,0.1,0.45
					c0.06,0.14,0.15,0.27,0.25,0.38c0.1,0.11,0.23,0.19,0.38,0.25c0.15,0.06,0.3,0.09,0.45,0.09c0.16,0,0.31-0.03,0.45-0.08
					c0.14-0.06,0.27-0.13,0.37-0.24c0.1-0.1,0.19-0.22,0.25-0.35c0.06-0.13,0.1-0.28,0.11-0.44V83c0-0.16-0.03-0.31-0.1-0.45
					c-0.06-0.14-0.15-0.27-0.25-0.38c-0.1-0.11-0.23-0.19-0.38-0.25c-0.15-0.06-0.3-0.09-0.45-0.09c-0.16,0-0.32,0.03-0.46,0.09
					c-0.14,0.06-0.27,0.14-0.38,0.25c-0.11,0.11-0.19,0.23-0.25,0.38c-0.06,0.14-0.09,0.29-0.09,0.45V84.61z"/>
				<g>
					<path class="st0" d="M94.67,81.56c0-0.12,0.04-0.22,0.12-0.3c0.08-0.08,0.18-0.12,0.3-0.12c0.09,0,0.18,0.03,0.26,0.09
						c0.08,0.06,0.13,0.14,0.15,0.25c0.34-0.26,0.75-0.38,1.21-0.38c0.26,0.02,0.46,0.05,0.61,0.1c0.15,0.04,0.29,0.11,0.41,0.19
						c0.12,0.08,0.19,0.2,0.19,0.36c0,0.12-0.04,0.22-0.12,0.3c-0.08,0.08-0.18,0.12-0.3,0.12c-0.1,0-0.18-0.03-0.25-0.08
						c-0.18-0.1-0.38-0.15-0.58-0.15c-0.16,0-0.31,0.03-0.44,0.09c-0.14,0.06-0.26,0.14-0.36,0.24c-0.11,0.1-0.19,0.21-0.25,0.35
						c-0.06,0.13-0.09,0.27-0.1,0.43v3.14c0,0.12-0.04,0.22-0.12,0.3c-0.08,0.08-0.18,0.12-0.3,0.12c-0.11,0-0.21-0.04-0.29-0.12
						c-0.08-0.08-0.13-0.18-0.13-0.3V83V81.56z"/>
				</g>
				<path class="st0" d="M101.35,79.48c0-0.12,0.04-0.22,0.12-0.3c0.08-0.08,0.18-0.12,0.3-0.12c0.11,0,0.21,0.04,0.3,0.12
					c0.09,0.08,0.13,0.18,0.13,0.3v5.14c0,0.28-0.05,0.54-0.16,0.78c-0.11,0.25-0.25,0.46-0.44,0.64c-0.18,0.18-0.4,0.33-0.64,0.43
					c-0.25,0.1-0.51,0.16-0.78,0.16c-0.28,0-0.55-0.05-0.79-0.16c-0.24-0.1-0.46-0.25-0.64-0.43c-0.19-0.18-0.33-0.4-0.44-0.64
					c-0.1-0.25-0.16-0.51-0.16-0.78V83c0-0.28,0.05-0.54,0.16-0.79c0.11-0.25,0.25-0.46,0.44-0.64c0.18-0.18,0.4-0.33,0.64-0.43
					c0.25-0.1,0.51-0.16,0.79-0.16c0.22,0,0.42,0.03,0.62,0.1c0.2,0.07,0.38,0.16,0.56,0.28V79.48z M99,84.61
					c0,0.16,0.03,0.31,0.09,0.45c0.06,0.14,0.14,0.27,0.25,0.38c0.11,0.11,0.23,0.19,0.38,0.25c0.14,0.06,0.3,0.09,0.46,0.09
					c0.16,0,0.31-0.03,0.45-0.09c0.15-0.06,0.27-0.14,0.38-0.25c0.1-0.11,0.19-0.23,0.25-0.38c0.06-0.14,0.1-0.29,0.1-0.45V83
					c0-0.16-0.03-0.31-0.09-0.45c-0.06-0.14-0.14-0.27-0.25-0.38c-0.11-0.11-0.23-0.19-0.38-0.25c-0.14-0.06-0.3-0.09-0.46-0.09
					c-0.16,0-0.31,0.03-0.45,0.09c-0.15,0.06-0.27,0.14-0.38,0.25c-0.1,0.11-0.19,0.23-0.25,0.38C99.03,82.69,99,82.84,99,83V84.61z
					"/>
				<path class="st0" d="M74.18,81.45c0-0.12,0.04-0.22,0.12-0.3c0.08-0.08,0.18-0.12,0.3-0.12c0.11,0,0.21,0.04,0.3,0.12
					c0.09,0.08,0.13,0.18,0.13,0.3v3.16c0,0.16,0.03,0.31,0.09,0.45c0.06,0.14,0.14,0.27,0.25,0.38c0.11,0.11,0.23,0.19,0.38,0.25
					c0.14,0.06,0.3,0.09,0.46,0.09c0.16,0,0.31-0.03,0.45-0.09c0.15-0.06,0.27-0.14,0.38-0.25c0.1-0.11,0.19-0.23,0.25-0.38
					c0.06-0.14,0.1-0.29,0.1-0.45v-3.16c0-0.12,0.04-0.22,0.12-0.3c0.08-0.08,0.18-0.12,0.3-0.12c0.11,0,0.21,0.04,0.3,0.12
					c0.09,0.08,0.13,0.18,0.13,0.3v3.16c0,0.28-0.05,0.54-0.16,0.78c-0.11,0.25-0.25,0.46-0.44,0.64c-0.18,0.18-0.4,0.33-0.64,0.43
					c-0.25,0.1-0.51,0.16-0.79,0.16c-0.28,0-0.55-0.05-0.79-0.16c-0.24-0.1-0.46-0.25-0.64-0.43c-0.19-0.18-0.33-0.4-0.44-0.64
					c-0.1-0.25-0.16-0.51-0.16-0.78V81.45z"/>
				<path class="st0" d="M83.73,82.83h-1.78c-0.24,0-0.43,0.18-0.43,0.41c0,0.24,0.19,0.43,0.43,0.43h1.42v0.67
					c0,0.91-0.83,1.6-1.7,1.6c-0.97,0-1.78-0.66-1.78-1.78V81.6c0-1.04,0.79-1.78,1.75-1.78c0.82,0,1.44,0.54,1.68,1.22
					c0.08,0.14,0.19,0.23,0.38,0.23c0.33,0,0.54-0.27,0.38-0.65c-0.27-0.82-1.11-1.67-2.45-1.67c-1.53,0-2.63,1.21-2.63,2.6v2.66
					c0,1.4,1.11,2.61,2.63,2.61c1.38,0,2.54-1.08,2.54-2.31v-1.28C84.18,82.98,83.97,82.83,83.73,82.83z"/>
			</g>
		</g>
		<path class="st0" d="M101.35,81.45c0-0.12,0.04-0.22,0.12-0.3c0.08-0.08,0.18-0.12,0.3-0.12c0.11,0,0.21,0.04,0.3,0.12
			c0.09,0.08,0.13,0.18,0.13,0.3v4.71c0,0.12-0.04,0.22-0.12,0.3c-0.08,0.08-0.18,0.12-0.3,0.12c-0.11,0-0.21-0.04-0.3-0.12
			c-0.09-0.08-0.13-0.18-0.13-0.3V81.45z"/>
		<g>
			<path class="st0" d="M49.05,79.76c0-0.12,0.04-0.22,0.12-0.3c0.08-0.08,0.18-0.12,0.3-0.12h1.68h0.01c0.36,0,0.69,0.07,1.01,0.2
				c0.31,0.14,0.59,0.32,0.83,0.55c0.24,0.23,0.43,0.5,0.56,0.82c0.14,0.31,0.21,0.65,0.21,1.01c0,0.36-0.07,0.69-0.21,1
				c-0.14,0.31-0.33,0.58-0.56,0.82c-0.23,0.23-0.51,0.42-0.83,0.55c-0.32,0.14-0.66,0.2-1.01,0.2h-1.27v1.67
				c0,0.12-0.04,0.22-0.12,0.3c-0.08,0.08-0.18,0.12-0.3,0.12c-0.11,0-0.21-0.04-0.29-0.12c-0.08-0.08-0.13-0.18-0.13-0.3V79.76z
				 M49.88,80.18v3.49h1.27c0.25,0,0.48-0.05,0.7-0.14c0.22-0.09,0.4-0.22,0.56-0.37c0.16-0.16,0.29-0.34,0.38-0.55
				c0.09-0.21,0.14-0.44,0.14-0.68c0-0.24-0.05-0.47-0.14-0.68c-0.1-0.21-0.22-0.4-0.38-0.55c-0.16-0.16-0.35-0.28-0.56-0.37
				c-0.22-0.09-0.44-0.14-0.69-0.14H49.88z"/>
		</g>
	</g>
	<path class="st0" d="M40.74,86.86v0.87c0,0.68-0.56,1.24-1.24,1.24c-0.22,0-0.43-0.06-0.62-0.17c-0.2-0.12-0.27-0.38-0.15-0.58
		c0.12-0.2,0.38-0.27,0.58-0.15c0.06,0.04,0.13,0.05,0.2,0.05c0.22,0,0.39-0.18,0.39-0.39v-0.87c0-0.23,0.19-0.42,0.42-0.42
		C40.55,86.43,40.74,86.62,40.74,86.86z M37.89,88.55c-0.11-0.21-0.36-0.29-0.57-0.18c-0.21,0.11-0.29,0.36-0.18,0.57
		c0.46,0.89,1.36,1.44,2.36,1.44c1.46,0,2.66-1.19,2.66-2.66v-0.87c0-0.23-0.19-0.42-0.42-0.42s-0.42,0.19-0.42,0.42v0.87
		c0,1-0.81,1.81-1.81,1.81C38.82,89.54,38.21,89.16,37.89,88.55z M39.38,74.52c-2.18,0.06-3.95,1.93-3.95,4.15v9.05
		c0,1.11,0.44,2.15,1.24,2.92c0.77,0.75,1.77,1.15,2.83,1.15c0.04,0,0.08,0,0.12,0c2.18-0.06,3.95-1.93,3.95-4.15v-0.69
		c0-1.07-0.87-1.94-1.94-1.94h-1.31c-0.23,0-0.42,0.19-0.42,0.42c0,0.23,0.19,0.42,0.42,0.42h1.31c0.6,0,1.09,0.49,1.09,1.09v0.69
		c0,1.77-1.4,3.25-3.13,3.3c-0.88,0.03-1.71-0.3-2.34-0.91c-0.63-0.61-0.98-1.44-0.98-2.31v-9.05c0-1.77,1.4-3.25,3.13-3.3
		c0.88-0.03,1.71,0.3,2.34,0.91c0.63,0.61,0.98,1.44,0.98,2.31v5.32c0,0.23,0.19,0.42,0.42,0.42s0.42-0.19,0.42-0.42v-5.32
		c0-1.11-0.44-2.15-1.24-2.92C41.54,74.9,40.49,74.49,39.38,74.52z M42.16,81.78v-3.19c0-1.46-1.19-2.66-2.66-2.66
		c-1.46,0-2.66,1.19-2.66,2.66v0.49c0,0.23,0.19,0.42,0.42,0.42c0.23,0,0.42-0.19,0.42-0.42v-0.49c0-1,0.81-1.81,1.81-1.81
		c1,0,1.81,0.81,1.81,1.81v3.19c0,1-0.81,1.81-1.81,1.81c-0.23,0-0.45-0.04-0.66-0.13c-0.13-0.05-0.28-0.04-0.39,0.04
		c-0.12,0.08-0.19,0.21-0.19,0.35v2.89c0,0.16-0.13,0.28-0.28,0.28c-0.16,0-0.28-0.13-0.28-0.28v-6.23c0-0.23-0.19-0.42-0.42-0.42
		c-0.23,0-0.42,0.19-0.42,0.42v6.23c0,0.62,0.51,1.13,1.13,1.13c0.62,0,1.13-0.51,1.13-1.13l0-2.34c0.13,0.02,0.26,0.03,0.39,0.03
		C40.97,84.44,42.16,83.25,42.16,81.78z M44.99,78.69v6.69v0.11v2.24c0,1.49-0.59,2.88-1.66,3.93c-1.04,1.01-2.39,1.56-3.83,1.56
		c-0.04,0-0.09,0-0.13,0c-2.95-0.07-5.36-2.57-5.36-5.58v-9.04c0-1.49,0.59-2.88,1.66-3.92c1.07-1.04,2.48-1.6,3.96-1.56
		C42.59,73.18,44.99,75.68,44.99,78.69z M44.14,85.48v-0.11v-6.69c0-2.55-2.03-4.68-4.53-4.73c-1.26-0.03-2.45,0.44-3.35,1.32
		c-0.9,0.88-1.4,2.06-1.4,3.32v9.04c0,2.55,2.03,4.68,4.53,4.73c1.26,0.03,2.45-0.44,3.35-1.32c0.9-0.88,1.4-2.06,1.4-3.32V85.48z
		 M38.26,81.78v-3.19c0-0.68,0.56-1.24,1.24-1.24c0.68,0,1.24,0.56,1.24,1.24v3.19c0,0.68-0.56,1.24-1.24,1.24
		C38.82,83.02,38.26,82.47,38.26,81.78z M39.11,81.78c0,0.22,0.18,0.39,0.39,0.39c0.22,0,0.39-0.18,0.39-0.39v-3.19
		c0-0.22-0.18-0.39-0.39-0.39c-0.22,0-0.39,0.18-0.39,0.39V81.78z"/>
	<g>
		<path class="st0" d="M102.79,79.22h-0.16v-0.11h0.45v0.11h-0.16v0.47h-0.13V79.22z"/>
		<path class="st0" d="M103.64,79.47c0-0.07-0.01-0.16-0.01-0.24h0c-0.02,0.07-0.04,0.16-0.07,0.23l-0.07,0.23h-0.1l-0.06-0.23
			c-0.02-0.07-0.04-0.15-0.05-0.23h0c0,0.08-0.01,0.17-0.01,0.24l-0.01,0.22h-0.12l0.04-0.59h0.18l0.06,0.2
			c0.02,0.07,0.04,0.14,0.05,0.21h0c0.02-0.07,0.04-0.15,0.06-0.21l0.06-0.19h0.17l0.03,0.59h-0.13L103.64,79.47z"/>
	</g>
</g>
<path class="st1" d="M138.22,84.78V17.35c0-0.55-0.45-1-1-1l0,0c-0.55,0-1,0.45-1,1v67.42c0,0.55,0.45,1,1,1l0,0
	C137.78,85.78,138.22,85.33,138.22,84.78z"/>
<g>
	<path class="st2" d="M165.65,26.2c-0.1,1.32-0.58,2.36-1.46,3.12s-2.04,1.14-3.48,1.14c-1.58,0-2.82-0.53-3.72-1.59
		c-0.9-1.06-1.35-2.52-1.35-4.37v-0.75c0-1.18,0.21-2.22,0.62-3.12c0.42-0.9,1.01-1.59,1.79-2.07c0.77-0.48,1.67-0.72,2.7-0.72
		c1.42,0,2.56,0.38,3.43,1.14c0.87,0.76,1.37,1.83,1.5,3.2h-2.53c-0.06-0.79-0.28-1.37-0.66-1.73s-0.96-0.54-1.73-0.54
		c-0.84,0-1.48,0.3-1.9,0.91c-0.42,0.6-0.63,1.54-0.65,2.82v0.93c0,1.33,0.2,2.3,0.6,2.91s1.04,0.92,1.9,0.92
		c0.78,0,1.37-0.18,1.75-0.54c0.39-0.36,0.61-0.91,0.66-1.66H165.65z"/>
	<path class="st2" d="M169.73,30.29h-2.45V17.33h2.45V30.29z"/>
	<path class="st2" d="M171.72,18.79c0-0.37,0.12-0.67,0.37-0.9c0.25-0.24,0.58-0.35,1-0.35c0.42,0,0.75,0.12,1,0.35
		s0.37,0.54,0.37,0.9c0,0.37-0.13,0.68-0.38,0.91s-0.58,0.35-0.99,0.35s-0.74-0.12-0.99-0.35
		C171.84,19.47,171.72,19.17,171.72,18.79z M174.31,30.29h-2.45v-9.13h2.45V30.29z"/>
	<path class="st2" d="M180.12,28.49c0.45,0,0.82-0.12,1.1-0.37c0.28-0.25,0.43-0.58,0.44-0.99h2.29c-0.01,0.62-0.17,1.19-0.51,1.7
		c-0.33,0.51-0.79,0.91-1.36,1.2c-0.58,0.28-1.21,0.43-1.91,0.43c-1.31,0-2.34-0.42-3.09-1.25c-0.75-0.83-1.13-1.98-1.13-3.44v-0.16
		c0-1.41,0.37-2.53,1.12-3.37s1.78-1.26,3.08-1.26c1.14,0,2.06,0.32,2.75,0.98c0.69,0.65,1.04,1.52,1.05,2.6h-2.29
		c-0.01-0.48-0.16-0.86-0.44-1.16c-0.28-0.3-0.65-0.45-1.11-0.45c-0.57,0-1,0.21-1.29,0.62c-0.29,0.41-0.44,1.09-0.44,2.02v0.25
		c0,0.94,0.14,1.62,0.43,2.03S179.53,28.49,180.12,28.49z"/>
	<path class="st2" d="M188.65,26.63l-0.88,0.88v2.79h-2.44V17.33h2.44v7.18l0.47-0.61l2.34-2.74h2.93l-3.3,3.81l3.59,5.33H191
		L188.65,26.63z"/>
	<path class="st2" d="M201.8,18.91v2.25h1.56v1.79h-1.56v4.56c0,0.34,0.06,0.58,0.19,0.73s0.38,0.22,0.74,0.22
		c0.27,0,0.51-0.02,0.72-0.06v1.85c-0.48,0.15-0.97,0.22-1.48,0.22c-1.71,0-2.58-0.86-2.62-2.59v-4.92h-1.33v-1.79h1.33v-2.25H201.8
		z"/>
	<path class="st2" d="M204.08,25.64c0-0.91,0.17-1.71,0.52-2.42c0.35-0.71,0.85-1.26,1.51-1.65c0.66-0.39,1.42-0.58,2.28-0.58
		c1.23,0,2.24,0.38,3.02,1.13c0.78,0.75,1.21,1.78,1.3,3.07l0.02,0.62c0,1.4-0.39,2.53-1.17,3.37s-1.83,1.27-3.15,1.27
		s-2.37-0.42-3.15-1.27c-0.79-0.84-1.18-1.99-1.18-3.44V25.64z M206.52,25.81c0,0.87,0.16,1.53,0.49,1.99
		c0.33,0.46,0.79,0.69,1.4,0.69c0.59,0,1.05-0.23,1.38-0.68s0.5-1.18,0.5-2.18c0-0.85-0.17-1.51-0.5-1.98s-0.8-0.7-1.4-0.7
		c-0.6,0-1.06,0.23-1.38,0.7C206.69,24.12,206.52,24.84,206.52,25.81z"/>
	<path class="st2" d="M221.12,30.29h-2.45V17.33h2.45V30.29z"/>
	<path class="st2" d="M227.33,30.46c-1.34,0-2.43-0.41-3.27-1.23s-1.26-1.92-1.26-3.28v-0.24c0-0.92,0.18-1.74,0.53-2.46
		s0.86-1.28,1.51-1.67s1.39-0.59,2.22-0.59c1.25,0,2.23,0.39,2.95,1.18c0.72,0.79,1.08,1.9,1.08,3.35v1h-5.82
		c0.08,0.6,0.32,1.08,0.71,1.44c0.4,0.36,0.9,0.54,1.51,0.54c0.94,0,1.67-0.34,2.2-1.02l1.2,1.34c-0.37,0.52-0.86,0.92-1.49,1.21
		C228.78,30.32,228.09,30.46,227.33,30.46z M227.05,22.96c-0.48,0-0.88,0.16-1.18,0.49c-0.3,0.33-0.49,0.8-0.58,1.41h3.39v-0.2
		c-0.01-0.54-0.16-0.96-0.44-1.26C227.97,23.1,227.57,22.96,227.05,22.96z"/>
	<path class="st2" d="M237.76,30.29c-0.11-0.22-0.19-0.49-0.24-0.82c-0.59,0.66-1.36,0.99-2.3,0.99c-0.89,0-1.64-0.26-2.22-0.78
		c-0.59-0.52-0.88-1.17-0.88-1.96c0-0.97,0.36-1.71,1.08-2.23c0.72-0.52,1.75-0.78,3.11-0.79h1.12v-0.52c0-0.42-0.11-0.76-0.33-1.01
		c-0.22-0.25-0.56-0.38-1.03-0.38c-0.41,0-0.73,0.1-0.97,0.3c-0.23,0.2-0.35,0.47-0.35,0.81h-2.44c0-0.53,0.16-1.02,0.49-1.47
		s0.79-0.8,1.38-1.06c0.6-0.26,1.27-0.38,2.01-0.38c1.13,0,2.02,0.28,2.68,0.85c0.66,0.57,0.99,1.36,0.99,2.38v3.96
		c0.01,0.87,0.13,1.52,0.36,1.97v0.14H237.76z M235.75,28.6c0.36,0,0.69-0.08,1-0.24c0.3-0.16,0.53-0.38,0.68-0.65v-1.57h-0.91
		c-1.22,0-1.87,0.42-1.95,1.27l-0.01,0.14c0,0.3,0.11,0.55,0.32,0.75C235.08,28.5,235.38,28.6,235.75,28.6z"/>
	<path class="st2" d="M246.87,23.45c-0.33-0.05-0.62-0.07-0.88-0.07c-0.92,0-1.53,0.31-1.81,0.94v5.98h-2.44v-9.13h2.3l0.07,1.09
		c0.49-0.84,1.17-1.26,2.03-1.26c0.27,0,0.52,0.04,0.76,0.11L246.87,23.45z"/>
	<path class="st2" d="M250.29,21.16l0.08,1.06c0.65-0.82,1.53-1.22,2.63-1.22c0.97,0,1.69,0.28,2.16,0.85s0.71,1.42,0.73,2.55v5.9
		h-2.44v-5.84c0-0.52-0.11-0.89-0.34-1.13s-0.6-0.35-1.12-0.35c-0.69,0-1.2,0.29-1.54,0.88v6.44H248v-9.13H250.29z"/>
	<path class="st2" d="M264.32,21.16l0.08,1.02c0.65-0.79,1.52-1.19,2.62-1.19c1.18,0,1.98,0.46,2.42,1.39
		c0.64-0.93,1.56-1.39,2.74-1.39c0.99,0,1.73,0.29,2.21,0.87c0.48,0.58,0.73,1.44,0.73,2.6v5.83h-2.45v-5.82
		c0-0.52-0.1-0.9-0.3-1.14c-0.2-0.24-0.56-0.36-1.07-0.36c-0.73,0-1.24,0.35-1.52,1.05l0.01,6.27h-2.44v-5.82
		c0-0.53-0.1-0.91-0.31-1.15c-0.21-0.24-0.56-0.35-1.06-0.35c-0.69,0-1.19,0.29-1.5,0.86v6.46h-2.44v-9.13H264.32z"/>
	<path class="st2" d="M276.62,25.64c0-0.91,0.17-1.71,0.52-2.42c0.35-0.71,0.85-1.26,1.51-1.65c0.66-0.39,1.42-0.58,2.28-0.58
		c1.23,0,2.24,0.38,3.02,1.13c0.78,0.75,1.21,1.78,1.3,3.07l0.02,0.62c0,1.4-0.39,2.53-1.17,3.37s-1.83,1.27-3.15,1.27
		s-2.37-0.42-3.15-1.27c-0.79-0.84-1.18-1.99-1.18-3.44V25.64z M279.06,25.81c0,0.87,0.16,1.53,0.49,1.99
		c0.33,0.46,0.79,0.69,1.4,0.69c0.59,0,1.05-0.23,1.38-0.68s0.5-1.18,0.5-2.18c0-0.85-0.17-1.51-0.5-1.98s-0.8-0.7-1.4-0.7
		c-0.6,0-1.06,0.23-1.38,0.7C279.22,24.12,279.06,24.84,279.06,25.81z"/>
	<path class="st2" d="M291.91,23.45c-0.33-0.05-0.62-0.07-0.88-0.07c-0.92,0-1.53,0.31-1.81,0.94v5.98h-2.44v-9.13h2.3l0.07,1.09
		c0.49-0.84,1.17-1.26,2.03-1.26c0.27,0,0.52,0.04,0.76,0.11L291.91,23.45z"/>
	<path class="st2" d="M297.12,30.46c-1.34,0-2.43-0.41-3.27-1.23s-1.26-1.92-1.26-3.28v-0.24c0-0.92,0.18-1.74,0.53-2.46
		s0.86-1.28,1.51-1.67s1.39-0.59,2.22-0.59c1.25,0,2.23,0.39,2.95,1.18c0.72,0.79,1.08,1.9,1.08,3.35v1h-5.82
		c0.08,0.6,0.32,1.08,0.71,1.44c0.4,0.36,0.9,0.54,1.51,0.54c0.94,0,1.67-0.34,2.2-1.02l1.2,1.34c-0.37,0.52-0.86,0.92-1.49,1.21
		C298.58,30.32,297.88,30.46,297.12,30.46z M296.85,22.96c-0.48,0-0.88,0.16-1.18,0.49c-0.3,0.33-0.49,0.8-0.58,1.41h3.39v-0.2
		c-0.01-0.54-0.16-0.96-0.44-1.26C297.76,23.1,297.36,22.96,296.85,22.96z"/>
</g>
<g>
	<path class="st2" d="M160.28,45.91c-0.08-0.15-0.13-0.33-0.16-0.55c-0.39,0.44-0.91,0.66-1.54,0.66c-0.6,0-1.09-0.17-1.48-0.52
		s-0.59-0.78-0.59-1.31c0-0.65,0.24-1.14,0.72-1.49c0.48-0.35,1.17-0.52,2.07-0.52h0.75v-0.35c0-0.28-0.07-0.51-0.22-0.68
		s-0.37-0.25-0.68-0.25c-0.27,0-0.49,0.07-0.64,0.2s-0.23,0.31-0.23,0.54h-1.63c0-0.35,0.11-0.68,0.33-0.98
		c0.22-0.3,0.52-0.54,0.92-0.71c0.4-0.17,0.84-0.26,1.34-0.26c0.75,0,1.35,0.19,1.79,0.57c0.44,0.38,0.66,0.91,0.66,1.59v2.64
		c0,0.58,0.08,1.01,0.24,1.31v0.1H160.28z M158.94,44.78c0.24,0,0.46-0.05,0.66-0.16s0.35-0.25,0.45-0.43v-1.05h-0.61
		c-0.81,0-1.25,0.28-1.3,0.84l-0.01,0.1c0,0.2,0.07,0.37,0.21,0.5S158.69,44.78,158.94,44.78z"/>
	<path class="st2" d="M168.42,42.92c0,0.98-0.21,1.74-0.62,2.28s-1,0.82-1.74,0.82c-0.66,0-1.19-0.25-1.58-0.76l-0.07,0.65h-1.46
		v-8.64h1.63v3.1c0.38-0.44,0.87-0.66,1.48-0.66c0.74,0,1.33,0.27,1.75,0.82c0.42,0.55,0.63,1.31,0.63,2.3V42.92z M166.8,42.8
		c0-0.62-0.1-1.06-0.29-1.35c-0.19-0.28-0.49-0.42-0.87-0.42c-0.52,0-0.87,0.21-1.07,0.64v2.4c0.2,0.43,0.56,0.64,1.08,0.64
		c0.53,0,0.87-0.26,1.04-0.78C166.76,43.69,166.8,43.31,166.8,42.8z"/>
	<path class="st2" d="M169.17,42.81c0-0.6,0.12-1.14,0.35-1.62c0.23-0.47,0.57-0.84,1-1.1c0.44-0.26,0.94-0.39,1.52-0.39
		c0.82,0,1.49,0.25,2.01,0.75c0.52,0.5,0.81,1.19,0.87,2.05l0.01,0.42c0,0.93-0.26,1.68-0.78,2.25s-1.22,0.85-2.1,0.85
		s-1.58-0.28-2.1-0.84c-0.52-0.56-0.78-1.33-0.78-2.3V42.81z M170.8,42.92c0,0.58,0.11,1.02,0.33,1.33
		c0.22,0.31,0.53,0.46,0.93,0.46c0.39,0,0.7-0.15,0.92-0.45c0.22-0.3,0.33-0.79,0.33-1.45c0-0.57-0.11-1.01-0.33-1.32
		c-0.22-0.31-0.53-0.47-0.93-0.47c-0.4,0-0.71,0.15-0.92,0.46C170.91,41.79,170.8,42.27,170.8,42.92z"/>
	<path class="st2" d="M179.59,45.29c-0.4,0.49-0.96,0.73-1.67,0.73c-0.65,0-1.15-0.19-1.49-0.56s-0.52-0.92-0.53-1.65v-3.99h1.63
		v3.94c0,0.63,0.29,0.95,0.87,0.95c0.55,0,0.93-0.19,1.14-0.57v-4.32h1.63v6.09h-1.53L179.59,45.29z"/>
	<path class="st2" d="M184.34,38.32v1.5h1.04v1.19h-1.04v3.04c0,0.23,0.04,0.39,0.13,0.48s0.25,0.15,0.5,0.15
		c0.18,0,0.34-0.01,0.48-0.04v1.23c-0.32,0.1-0.65,0.15-0.98,0.15c-1.14,0-1.72-0.58-1.74-1.73v-3.28h-0.89v-1.19h0.89v-1.5H184.34z
		"/>
	<path class="st2" d="M188.9,42.81c0-0.6,0.12-1.14,0.35-1.62c0.23-0.47,0.57-0.84,1-1.1c0.44-0.26,0.94-0.39,1.52-0.39
		c0.82,0,1.49,0.25,2.01,0.75c0.52,0.5,0.81,1.19,0.87,2.05l0.01,0.42c0,0.93-0.26,1.68-0.78,2.25s-1.22,0.85-2.1,0.85
		s-1.58-0.28-2.1-0.84c-0.52-0.56-0.78-1.33-0.78-2.3V42.81z M190.53,42.92c0,0.58,0.11,1.02,0.33,1.33
		c0.22,0.31,0.53,0.46,0.93,0.46c0.39,0,0.7-0.15,0.92-0.45c0.22-0.3,0.33-0.79,0.33-1.45c0-0.57-0.11-1.01-0.33-1.32
		c-0.22-0.31-0.53-0.47-0.93-0.47c-0.4,0-0.71,0.15-0.92,0.46C190.64,41.79,190.53,42.27,190.53,42.92z"/>
	<path class="st2" d="M199.32,45.29c-0.4,0.49-0.96,0.73-1.67,0.73c-0.65,0-1.15-0.19-1.49-0.56s-0.52-0.92-0.53-1.65v-3.99h1.63
		v3.94c0,0.63,0.29,0.95,0.87,0.95c0.55,0,0.93-0.19,1.14-0.57v-4.32h1.63v6.09h-1.53L199.32,45.29z"/>
	<path class="st2" d="M205.54,41.35c-0.22-0.03-0.42-0.04-0.59-0.04c-0.62,0-1.02,0.21-1.21,0.62v3.98h-1.63v-6.09h1.54l0.04,0.73
		c0.33-0.56,0.78-0.84,1.36-0.84c0.18,0,0.35,0.02,0.51,0.07L205.54,41.35z"/>
	<path class="st2" d="M211.1,45.91h-1.69v-8.19h1.69V45.91z"/>
	<path class="st2" d="M212.3,42.82c0-0.95,0.21-1.71,0.64-2.27s1.01-0.84,1.75-0.84c0.59,0,1.08,0.22,1.47,0.66v-3.11h1.63v8.64
		h-1.47l-0.08-0.65c-0.4,0.51-0.93,0.76-1.56,0.76c-0.72,0-1.29-0.28-1.72-0.85C212.52,44.61,212.3,43.83,212.3,42.82z
		 M213.93,42.94c0,0.57,0.1,1.01,0.3,1.31c0.2,0.3,0.49,0.46,0.87,0.46c0.5,0,0.86-0.21,1.06-0.64v-2.41
		c-0.2-0.42-0.55-0.64-1.05-0.64C214.32,41.03,213.93,41.67,213.93,42.94z"/>
	<path class="st2" d="M221.85,46.02c-0.89,0-1.62-0.27-2.18-0.82c-0.56-0.55-0.84-1.28-0.84-2.19v-0.16c0-0.61,0.12-1.16,0.35-1.64
		c0.24-0.48,0.57-0.85,1-1.11c0.43-0.26,0.93-0.39,1.48-0.39c0.83,0,1.49,0.26,1.97,0.79s0.72,1.27,0.72,2.23v0.66h-3.88
		c0.05,0.4,0.21,0.72,0.48,0.96c0.26,0.24,0.6,0.36,1,0.36c0.63,0,1.12-0.23,1.47-0.68l0.8,0.89c-0.24,0.35-0.57,0.61-0.99,0.81
		S222.36,46.02,221.85,46.02z M221.66,41.02c-0.32,0-0.58,0.11-0.79,0.33s-0.33,0.53-0.39,0.94h2.26v-0.13
		c-0.01-0.36-0.1-0.64-0.29-0.84C222.28,41.12,222.01,41.02,221.66,41.02z"/>
	<path class="st2" d="M226.77,39.82l0.05,0.7c0.44-0.54,1.02-0.82,1.75-0.82c0.65,0,1.13,0.19,1.44,0.57
		c0.31,0.38,0.48,0.95,0.48,1.7v3.93h-1.63v-3.89c0-0.35-0.08-0.6-0.23-0.75s-0.4-0.23-0.75-0.23c-0.46,0-0.8,0.19-1.03,0.58v4.29
		h-1.63v-6.09H226.77z"/>
	<path class="st2" d="M233.68,38.32v1.5h1.04v1.19h-1.04v3.04c0,0.23,0.04,0.39,0.13,0.48s0.25,0.15,0.5,0.15
		c0.18,0,0.34-0.01,0.48-0.04v1.23c-0.32,0.1-0.65,0.15-0.98,0.15c-1.14,0-1.72-0.58-1.74-1.73v-3.28h-0.89v-1.19h0.89v-1.5H233.68z
		"/>
	<path class="st2" d="M235.61,38.24c0-0.24,0.08-0.44,0.25-0.6c0.16-0.16,0.39-0.24,0.67-0.24c0.28,0,0.5,0.08,0.66,0.24
		c0.17,0.16,0.25,0.36,0.25,0.6c0,0.25-0.08,0.45-0.25,0.61c-0.17,0.16-0.39,0.24-0.66,0.24s-0.49-0.08-0.66-0.24
		C235.7,38.69,235.61,38.49,235.61,38.24z M237.34,45.91h-1.63v-6.09h1.63V45.91z"/>
	<path class="st2" d="M240.63,38.32v1.5h1.04v1.19h-1.04v3.04c0,0.23,0.04,0.39,0.13,0.48s0.25,0.15,0.5,0.15
		c0.18,0,0.34-0.01,0.48-0.04v1.23c-0.32,0.1-0.65,0.15-0.98,0.15c-1.14,0-1.72-0.58-1.74-1.73v-3.28h-0.89v-1.19H239v-1.5H240.63z"
		/>
	<path class="st2" d="M244.85,43.61l1.13-3.79h1.74l-2.45,7.03l-0.14,0.32c-0.36,0.8-0.96,1.19-1.8,1.19
		c-0.24,0-0.48-0.04-0.72-0.11v-1.23l0.25,0.01c0.31,0,0.54-0.05,0.69-0.14s0.27-0.25,0.36-0.47l0.19-0.5l-2.13-6.11h1.75
		L244.85,43.61z"/>
	<path class="st2" d="M257.17,39.08h-2.51v6.83h-1.69v-6.83h-2.48v-1.37h6.67V39.08z"/>
	<path class="st2" d="M259.61,40.48c0.43-0.52,0.97-0.78,1.63-0.78c1.32,0,1.99,0.77,2.01,2.3v3.9h-1.63v-3.85
		c0-0.35-0.08-0.61-0.23-0.77c-0.15-0.17-0.4-0.25-0.75-0.25c-0.48,0-0.82,0.18-1.04,0.55v4.33h-1.63v-8.64h1.63V40.48z"/>
	<path class="st2" d="M267.28,46.02c-0.89,0-1.62-0.27-2.18-0.82c-0.56-0.55-0.84-1.28-0.84-2.19v-0.16c0-0.61,0.12-1.16,0.35-1.64
		c0.24-0.48,0.57-0.85,1-1.11c0.43-0.26,0.93-0.39,1.48-0.39c0.83,0,1.49,0.26,1.97,0.79s0.72,1.27,0.72,2.23v0.66h-3.88
		c0.05,0.4,0.21,0.72,0.48,0.96c0.26,0.24,0.6,0.36,1,0.36c0.63,0,1.12-0.23,1.47-0.68l0.8,0.89c-0.24,0.35-0.57,0.61-0.99,0.81
		S267.78,46.02,267.28,46.02z M267.09,41.02c-0.32,0-0.58,0.11-0.79,0.33s-0.33,0.53-0.39,0.94h2.26v-0.13
		c-0.01-0.36-0.1-0.64-0.29-0.84C267.7,41.12,267.43,41.02,267.09,41.02z"/>
	<path class="st2" d="M271.15,45.91v-4.9h-0.91v-1.19h0.91V39.3c0-0.68,0.2-1.21,0.59-1.59c0.39-0.38,0.94-0.57,1.65-0.57
		c0.23,0,0.5,0.04,0.83,0.11l-0.02,1.26c-0.14-0.03-0.3-0.05-0.5-0.05c-0.61,0-0.92,0.29-0.92,0.86v0.49h1.21v1.19h-1.21v4.9H271.15
		z"/>
	<path class="st2" d="M276.78,38.32v1.5h1.04v1.19h-1.04v3.04c0,0.23,0.04,0.39,0.13,0.48s0.25,0.15,0.5,0.15
		c0.18,0,0.34-0.01,0.48-0.04v1.23c-0.32,0.1-0.65,0.15-0.98,0.15c-1.14,0-1.72-0.58-1.74-1.73v-3.28h-0.89v-1.19h0.89v-1.5H276.78z
		"/>
	<path class="st2" d="M285.13,45.91c-0.08-0.15-0.13-0.33-0.16-0.55c-0.39,0.44-0.91,0.66-1.54,0.66c-0.6,0-1.09-0.17-1.48-0.52
		s-0.59-0.78-0.59-1.31c0-0.65,0.24-1.14,0.72-1.49c0.48-0.35,1.17-0.52,2.07-0.52h0.75v-0.35c0-0.28-0.07-0.51-0.22-0.68
		s-0.37-0.25-0.68-0.25c-0.27,0-0.49,0.07-0.64,0.2s-0.23,0.31-0.23,0.54h-1.63c0-0.35,0.11-0.68,0.33-0.98
		c0.22-0.3,0.52-0.54,0.92-0.71c0.4-0.17,0.84-0.26,1.34-0.26c0.75,0,1.35,0.19,1.79,0.57c0.44,0.38,0.66,0.91,0.66,1.59v2.64
		c0,0.58,0.08,1.01,0.24,1.31v0.1H285.13z M283.78,44.78c0.24,0,0.46-0.05,0.66-0.16s0.35-0.25,0.45-0.43v-1.05h-0.61
		c-0.81,0-1.25,0.28-1.3,0.84l-0.01,0.1c0,0.2,0.07,0.37,0.21,0.5S283.53,44.78,283.78,44.78z"/>
	<path class="st2" d="M289.27,39.82l0.05,0.7c0.44-0.54,1.02-0.82,1.75-0.82c0.65,0,1.13,0.19,1.44,0.57
		c0.31,0.38,0.48,0.95,0.48,1.7v3.93h-1.63v-3.89c0-0.35-0.08-0.6-0.23-0.75s-0.4-0.23-0.75-0.23c-0.46,0-0.8,0.19-1.03,0.58v4.29
		h-1.63v-6.09H289.27z"/>
	<path class="st2" d="M293.98,42.82c0-0.95,0.21-1.71,0.64-2.27s1.01-0.84,1.75-0.84c0.59,0,1.08,0.22,1.47,0.66v-3.11h1.63v8.64
		H298l-0.08-0.65c-0.4,0.51-0.93,0.76-1.56,0.76c-0.72,0-1.29-0.28-1.72-0.85C294.19,44.61,293.98,43.83,293.98,42.82z M295.6,42.94
		c0,0.57,0.1,1.01,0.3,1.31c0.2,0.3,0.49,0.46,0.87,0.46c0.5,0,0.86-0.21,1.06-0.64v-2.41c-0.2-0.42-0.55-0.64-1.05-0.64
		C296,41.03,295.6,41.67,295.6,42.94z"/>
	<path class="st2" d="M174.37,57.01c-0.06,0.88-0.39,1.58-0.98,2.08c-0.59,0.51-1.36,0.76-2.32,0.76c-1.05,0-1.88-0.35-2.48-1.06
		s-0.9-1.68-0.9-2.91v-0.5c0-0.79,0.14-1.48,0.42-2.08c0.28-0.6,0.67-1.06,1.19-1.38c0.52-0.32,1.11-0.48,1.8-0.48
		c0.95,0,1.71,0.25,2.28,0.76c0.58,0.51,0.91,1.22,1,2.13h-1.69c-0.04-0.53-0.19-0.91-0.44-1.15c-0.25-0.24-0.64-0.36-1.16-0.36
		c-0.56,0-0.98,0.2-1.26,0.6c-0.28,0.4-0.42,1.03-0.43,1.88v0.62c0,0.89,0.13,1.53,0.4,1.94c0.27,0.41,0.69,0.61,1.27,0.61
		c0.52,0,0.91-0.12,1.17-0.36c0.26-0.24,0.4-0.61,0.44-1.11H174.37z"/>
	<path class="st2" d="M178.8,55.18c-0.22-0.03-0.42-0.04-0.59-0.04c-0.62,0-1.02,0.21-1.21,0.62v3.98h-1.63v-6.09h1.54l0.04,0.73
		c0.33-0.56,0.78-0.84,1.36-0.84c0.18,0,0.35,0.02,0.51,0.07L178.8,55.18z"/>
	<path class="st2" d="M182.27,59.85c-0.89,0-1.62-0.27-2.18-0.82c-0.56-0.55-0.84-1.28-0.84-2.19v-0.16c0-0.61,0.12-1.16,0.35-1.64
		c0.24-0.48,0.57-0.85,1-1.11c0.43-0.26,0.93-0.39,1.48-0.39c0.83,0,1.49,0.26,1.97,0.79s0.72,1.27,0.72,2.23v0.66h-3.88
		c0.05,0.4,0.21,0.72,0.48,0.96c0.26,0.24,0.6,0.36,1,0.36c0.63,0,1.12-0.23,1.47-0.68l0.8,0.89c-0.24,0.35-0.57,0.61-0.99,0.81
		S182.78,59.85,182.27,59.85z M182.09,54.85c-0.32,0-0.58,0.11-0.79,0.33s-0.33,0.53-0.39,0.94h2.26v-0.13
		c-0.01-0.36-0.1-0.64-0.29-0.84C182.7,54.95,182.43,54.85,182.09,54.85z"/>
	<path class="st2" d="M185.45,56.65c0-0.95,0.21-1.71,0.64-2.27s1.01-0.84,1.75-0.84c0.59,0,1.08,0.22,1.47,0.66V51.1h1.63v8.64
		h-1.47l-0.08-0.65c-0.4,0.51-0.93,0.76-1.56,0.76c-0.72,0-1.29-0.28-1.72-0.85C185.66,58.44,185.45,57.66,185.45,56.65z
		 M187.07,56.77c0,0.57,0.1,1.01,0.3,1.31c0.2,0.3,0.49,0.46,0.87,0.46c0.5,0,0.86-0.21,1.06-0.64V55.5
		c-0.2-0.42-0.55-0.64-1.05-0.64C187.47,54.86,187.07,55.5,187.07,56.77z"/>
	<path class="st2" d="M192.18,52.07c0-0.24,0.08-0.44,0.25-0.6c0.16-0.16,0.39-0.24,0.67-0.24c0.28,0,0.5,0.08,0.66,0.24
		c0.17,0.16,0.25,0.36,0.25,0.6c0,0.25-0.08,0.45-0.25,0.61c-0.17,0.16-0.39,0.24-0.66,0.24s-0.49-0.08-0.66-0.24
		C192.27,52.52,192.18,52.32,192.18,52.07z M193.91,59.74h-1.63v-6.09h1.63V59.74z"/>
	<path class="st2" d="M197.2,52.15v1.5h1.04v1.19h-1.04v3.04c0,0.23,0.04,0.39,0.13,0.48s0.25,0.15,0.5,0.15
		c0.18,0,0.34-0.01,0.48-0.04v1.23c-0.32,0.1-0.65,0.15-0.98,0.15c-1.14,0-1.72-0.58-1.74-1.73v-3.28h-0.89v-1.19h0.89v-1.5H197.2z"
		/>
	<path class="st2" d="M204.33,51.55l2.1,5.94l2.09-5.94h2.22v8.19h-1.69V57.5l0.17-3.87l-2.21,6.11h-1.16l-2.21-6.1l0.17,3.86v2.24
		h-1.69v-8.19H204.33z"/>
	<path class="st2" d="M211.86,56.64c0-0.6,0.12-1.14,0.35-1.62c0.23-0.47,0.57-0.84,1-1.1c0.44-0.26,0.94-0.39,1.52-0.39
		c0.82,0,1.49,0.25,2.01,0.75c0.52,0.5,0.81,1.19,0.87,2.05l0.01,0.42c0,0.93-0.26,1.68-0.78,2.25s-1.22,0.85-2.1,0.85
		s-1.58-0.28-2.1-0.84c-0.52-0.56-0.78-1.33-0.78-2.3V56.64z M213.48,56.75c0,0.58,0.11,1.02,0.33,1.33
		c0.22,0.31,0.53,0.46,0.93,0.46c0.39,0,0.7-0.15,0.92-0.45c0.22-0.3,0.33-0.79,0.33-1.45c0-0.57-0.11-1.01-0.33-1.32
		c-0.22-0.31-0.53-0.47-0.93-0.47c-0.4,0-0.71,0.15-0.92,0.46C213.59,55.62,213.48,56.1,213.48,56.75z"/>
	<path class="st2" d="M220.13,53.65l0.05,0.7c0.44-0.54,1.02-0.82,1.75-0.82c0.65,0,1.13,0.19,1.44,0.57
		c0.31,0.38,0.48,0.95,0.48,1.7v3.93h-1.63v-3.89c0-0.35-0.08-0.6-0.23-0.75s-0.4-0.23-0.75-0.23c-0.46,0-0.8,0.19-1.03,0.58v4.29
		h-1.63v-6.09H220.13z"/>
	<path class="st2" d="M225.07,52.07c0-0.24,0.08-0.44,0.25-0.6c0.16-0.16,0.39-0.24,0.67-0.24c0.28,0,0.5,0.08,0.66,0.24
		c0.17,0.16,0.25,0.36,0.25,0.6c0,0.25-0.08,0.45-0.25,0.61c-0.17,0.16-0.39,0.24-0.66,0.24s-0.49-0.08-0.66-0.24
		C225.15,52.52,225.07,52.32,225.07,52.07z M226.8,59.74h-1.63v-6.09h1.63V59.74z"/>
	<path class="st2" d="M230.09,52.15v1.5h1.04v1.19h-1.04v3.04c0,0.23,0.04,0.39,0.13,0.48s0.25,0.15,0.5,0.15
		c0.18,0,0.34-0.01,0.48-0.04v1.23c-0.32,0.1-0.65,0.15-0.98,0.15c-1.14,0-1.72-0.58-1.74-1.73v-3.28h-0.89v-1.19h0.89v-1.5H230.09z
		"/>
	<path class="st2" d="M231.61,56.64c0-0.6,0.12-1.14,0.35-1.62c0.23-0.47,0.57-0.84,1-1.1c0.44-0.26,0.94-0.39,1.52-0.39
		c0.82,0,1.49,0.25,2.01,0.75c0.52,0.5,0.81,1.19,0.87,2.05l0.01,0.42c0,0.93-0.26,1.68-0.78,2.25s-1.22,0.85-2.1,0.85
		s-1.58-0.28-2.1-0.84c-0.52-0.56-0.78-1.33-0.78-2.3V56.64z M233.24,56.75c0,0.58,0.11,1.02,0.33,1.33
		c0.22,0.31,0.53,0.46,0.93,0.46c0.39,0,0.7-0.15,0.92-0.45c0.22-0.3,0.33-0.79,0.33-1.45c0-0.57-0.11-1.01-0.33-1.32
		c-0.22-0.31-0.53-0.47-0.93-0.47c-0.4,0-0.71,0.15-0.92,0.46C233.35,55.62,233.24,56.1,233.24,56.75z"/>
	<path class="st2" d="M241.8,55.18c-0.22-0.03-0.42-0.04-0.59-0.04c-0.62,0-1.02,0.21-1.21,0.62v3.98h-1.63v-6.09h1.54l0.04,0.73
		c0.33-0.56,0.78-0.84,1.36-0.84c0.18,0,0.35,0.02,0.51,0.07L241.8,55.18z"/>
	<path class="st2" d="M242.57,52.07c0-0.24,0.08-0.44,0.25-0.6c0.16-0.16,0.39-0.24,0.67-0.24c0.28,0,0.5,0.08,0.66,0.24
		c0.17,0.16,0.25,0.36,0.25,0.6c0,0.25-0.08,0.45-0.25,0.61c-0.17,0.16-0.39,0.24-0.66,0.24s-0.49-0.08-0.66-0.24
		C242.66,52.52,242.57,52.32,242.57,52.07z M244.3,59.74h-1.63v-6.09h1.63V59.74z"/>
	<path class="st2" d="M247.14,53.65l0.05,0.7c0.44-0.54,1.02-0.82,1.75-0.82c0.65,0,1.13,0.19,1.44,0.57
		c0.31,0.38,0.48,0.95,0.48,1.7v3.93h-1.63v-3.89c0-0.35-0.08-0.6-0.23-0.75s-0.4-0.23-0.75-0.23c-0.46,0-0.8,0.19-1.03,0.58v4.29
		h-1.63v-6.09H247.14z"/>
	<path class="st2" d="M251.86,56.65c0-0.93,0.22-1.69,0.67-2.26c0.44-0.57,1.04-0.86,1.8-0.86c0.67,0,1.19,0.23,1.56,0.69l0.07-0.57
		h1.47v5.89c0,0.53-0.12,1-0.36,1.39c-0.24,0.39-0.58,0.69-1.02,0.9c-0.44,0.21-0.95,0.31-1.54,0.31c-0.45,0-0.88-0.09-1.31-0.27
		c-0.42-0.18-0.75-0.41-0.96-0.69l0.72-0.99c0.41,0.45,0.9,0.68,1.47,0.68c0.43,0,0.77-0.12,1.01-0.35
		c0.24-0.23,0.36-0.56,0.36-0.98v-0.33c-0.38,0.42-0.87,0.64-1.48,0.64c-0.73,0-1.32-0.29-1.78-0.86s-0.68-1.33-0.68-2.28V56.65z
		 M253.48,56.77c0,0.55,0.11,0.99,0.33,1.3c0.22,0.31,0.53,0.47,0.91,0.47c0.5,0,0.85-0.19,1.06-0.56v-2.56
		c-0.22-0.37-0.57-0.56-1.05-0.56c-0.39,0-0.7,0.16-0.92,0.48S253.48,56.14,253.48,56.77z"/>
	<path class="st2" d="M267.02,56.75c0,0.94-0.21,1.69-0.64,2.25s-1,0.85-1.73,0.85c-0.62,0-1.11-0.21-1.49-0.64v2.87h-1.63v-8.43
		h1.51l0.06,0.6c0.39-0.47,0.91-0.71,1.54-0.71c0.75,0,1.33,0.28,1.75,0.83c0.42,0.56,0.62,1.32,0.62,2.3V56.75z M265.4,56.63
		c0-0.57-0.1-1-0.3-1.31s-0.49-0.46-0.88-0.46c-0.51,0-0.86,0.19-1.05,0.58v2.49c0.2,0.4,0.55,0.6,1.06,0.6
		C265.01,58.54,265.4,57.9,265.4,56.63z"/>
	<path class="st2" d="M269.75,59.74h-1.63V51.1h1.63V59.74z"/>
	<path class="st2" d="M274.62,59.74c-0.08-0.15-0.13-0.33-0.16-0.55c-0.39,0.44-0.91,0.66-1.54,0.66c-0.6,0-1.09-0.17-1.48-0.52
		s-0.59-0.78-0.59-1.31c0-0.65,0.24-1.14,0.72-1.49c0.48-0.35,1.17-0.52,2.07-0.52h0.75v-0.35c0-0.28-0.07-0.51-0.22-0.68
		s-0.37-0.25-0.68-0.25c-0.27,0-0.49,0.07-0.64,0.2s-0.23,0.31-0.23,0.54h-1.63c0-0.35,0.11-0.68,0.33-0.98
		c0.22-0.3,0.52-0.54,0.92-0.71c0.4-0.17,0.84-0.26,1.34-0.26c0.75,0,1.35,0.19,1.79,0.57c0.44,0.38,0.66,0.91,0.66,1.59v2.64
		c0,0.58,0.08,1.01,0.24,1.31v0.1H274.62z M273.27,58.61c0.24,0,0.46-0.05,0.66-0.16s0.35-0.25,0.45-0.43v-1.05h-0.61
		c-0.81,0-1.25,0.28-1.3,0.84l-0.01,0.1c0,0.2,0.07,0.37,0.21,0.5S273.02,58.61,273.27,58.61z"/>
	<path class="st2" d="M278.76,53.65l0.05,0.7c0.44-0.54,1.02-0.82,1.75-0.82c0.65,0,1.13,0.19,1.44,0.57
		c0.31,0.38,0.48,0.95,0.48,1.7v3.93h-1.63v-3.89c0-0.35-0.08-0.6-0.23-0.75s-0.4-0.23-0.75-0.23c-0.46,0-0.8,0.19-1.03,0.58v4.29
		h-1.63v-6.09H278.76z"/>
	<path class="st2" d="M287.02,58.06c0-0.2-0.1-0.36-0.3-0.47c-0.2-0.11-0.51-0.22-0.95-0.31c-1.45-0.3-2.17-0.92-2.17-1.85
		c0-0.54,0.22-0.99,0.67-1.35c0.45-0.36,1.03-0.54,1.76-0.54c0.77,0,1.39,0.18,1.85,0.55c0.46,0.36,0.69,0.84,0.69,1.42h-1.63
		c0-0.23-0.07-0.43-0.23-0.58c-0.15-0.15-0.38-0.23-0.7-0.23c-0.27,0-0.49,0.06-0.64,0.19c-0.15,0.12-0.23,0.28-0.23,0.47
		c0,0.18,0.09,0.33,0.26,0.44c0.17,0.11,0.46,0.21,0.86,0.29s0.75,0.17,1.02,0.27c0.86,0.31,1.29,0.86,1.29,1.64
		c0,0.56-0.24,1-0.71,1.35s-1.09,0.52-1.85,0.52c-0.51,0-0.96-0.09-1.36-0.27c-0.4-0.18-0.71-0.43-0.93-0.75
		c-0.23-0.32-0.34-0.66-0.34-1.03h1.54c0.02,0.29,0.12,0.51,0.32,0.66s0.47,0.23,0.8,0.23c0.31,0,0.55-0.06,0.71-0.18
		C286.94,58.4,287.02,58.25,287.02,58.06z"/>
</g>
<g>
	<path class="st2" d="M190.73,74.9c0-0.2-0.07-0.36-0.21-0.5c-0.14-0.13-0.37-0.26-0.7-0.37c-0.46-0.14-0.79-0.32-1-0.54
		c-0.21-0.22-0.31-0.51-0.31-0.85c0-0.35,0.1-0.64,0.31-0.86c0.21-0.23,0.49-0.36,0.84-0.4v-0.7h0.48v0.71
		c0.36,0.05,0.64,0.2,0.84,0.45c0.2,0.25,0.3,0.6,0.3,1.04h-0.59c0-0.3-0.07-0.54-0.22-0.72c-0.14-0.18-0.34-0.27-0.58-0.27
		c-0.25,0-0.45,0.07-0.58,0.2c-0.14,0.13-0.2,0.32-0.2,0.55c0,0.22,0.07,0.39,0.21,0.52s0.38,0.25,0.7,0.35
		c0.33,0.11,0.58,0.22,0.77,0.35c0.18,0.13,0.32,0.28,0.41,0.45c0.09,0.17,0.13,0.37,0.13,0.6c0,0.36-0.11,0.65-0.33,0.87
		c-0.22,0.22-0.52,0.35-0.92,0.39v0.61h-0.48v-0.61c-0.4-0.04-0.71-0.18-0.94-0.43c-0.23-0.25-0.34-0.58-0.34-1.01h0.6
		c0,0.3,0.08,0.53,0.23,0.69c0.16,0.16,0.38,0.24,0.67,0.24c0.28,0,0.5-0.07,0.66-0.2S190.73,75.13,190.73,74.9z"/>
	<path class="st2" d="M194.02,76.1h-0.6v-3.97l-1.2,0.44v-0.54l1.7-0.64h0.09V76.1z"/>
	<path class="st2" d="M198.26,71.78v0.84h0.65v0.46h-0.65v2.16c0,0.14,0.03,0.24,0.09,0.31c0.06,0.07,0.16,0.1,0.3,0.1
		c0.07,0,0.16-0.01,0.28-0.04v0.48c-0.16,0.04-0.31,0.06-0.46,0.06c-0.27,0-0.47-0.08-0.6-0.24c-0.14-0.16-0.2-0.39-0.2-0.69v-2.16
		h-0.63v-0.46h0.63v-0.84H198.26z"/>
	<path class="st2" d="M201.28,73.16c-0.09-0.02-0.19-0.02-0.29-0.02c-0.39,0-0.65,0.17-0.79,0.5v2.47h-0.6v-3.48h0.58l0.01,0.4
		c0.2-0.31,0.47-0.47,0.83-0.47c0.12,0,0.2,0.02,0.26,0.04V73.16z"/>
	<path class="st2" d="M201.83,71.7c0-0.1,0.03-0.18,0.09-0.24s0.15-0.1,0.26-0.1c0.12,0,0.2,0.03,0.26,0.1s0.09,0.15,0.09,0.24
		c0,0.1-0.03,0.18-0.09,0.24c-0.06,0.06-0.15,0.1-0.26,0.1c-0.12,0-0.2-0.03-0.26-0.1C201.86,71.88,201.83,71.8,201.83,71.7z
		 M202.48,76.1h-0.6v-3.48h0.6V76.1z"/>
	<path class="st2" d="M205.58,76.1c-0.03-0.07-0.06-0.19-0.08-0.37c-0.28,0.29-0.61,0.43-0.99,0.43c-0.34,0-0.62-0.1-0.84-0.29
		c-0.22-0.19-0.33-0.44-0.33-0.74c0-0.36,0.14-0.64,0.41-0.84c0.28-0.2,0.66-0.3,1.16-0.3h0.58v-0.27c0-0.21-0.06-0.37-0.19-0.5
		c-0.12-0.12-0.31-0.19-0.55-0.19c-0.21,0-0.39,0.05-0.53,0.16c-0.14,0.11-0.22,0.24-0.22,0.39h-0.6c0-0.17,0.06-0.34,0.19-0.5
		c0.12-0.16,0.29-0.29,0.5-0.38c0.21-0.09,0.44-0.14,0.7-0.14c0.4,0,0.71,0.1,0.94,0.3c0.23,0.2,0.35,0.48,0.35,0.83v1.6
		c0,0.32,0.04,0.57,0.12,0.76v0.05H205.58z M204.59,75.65c0.19,0,0.36-0.05,0.53-0.14c0.17-0.1,0.29-0.22,0.36-0.38v-0.71h-0.47
		c-0.73,0-1.09,0.21-1.09,0.64c0,0.19,0.06,0.33,0.19,0.44C204.23,75.6,204.39,75.65,204.59,75.65z"/>
	<path class="st2" d="M207.66,76.1h-0.6v-4.94h0.6V76.1z"/>
	<path class="st2" d="M210.53,76.1v-3.02h-0.55v-0.46h0.55v-0.36c0-0.37,0.1-0.66,0.3-0.87s0.48-0.31,0.85-0.31
		c0.14,0,0.27,0.02,0.41,0.05l-0.03,0.48c-0.1-0.02-0.21-0.03-0.32-0.03c-0.19,0-0.34,0.06-0.45,0.17
		c-0.11,0.11-0.16,0.27-0.16,0.49v0.37h0.74v0.46h-0.74v3.02H210.53z"/>
	<path class="st2" d="M212.37,74.33c0-0.34,0.07-0.65,0.2-0.92c0.13-0.27,0.32-0.48,0.56-0.63s0.51-0.22,0.82-0.22
		c0.47,0,0.86,0.16,1.15,0.49c0.29,0.33,0.44,0.76,0.44,1.31v0.04c0,0.34-0.06,0.64-0.19,0.91c-0.13,0.27-0.31,0.48-0.56,0.63
		c-0.24,0.15-0.52,0.23-0.83,0.23c-0.47,0-0.85-0.16-1.15-0.49c-0.29-0.33-0.44-0.76-0.44-1.3V74.33z M212.97,74.4
		c0,0.39,0.09,0.7,0.27,0.93c0.18,0.23,0.42,0.35,0.72,0.35c0.3,0,0.54-0.12,0.72-0.36c0.18-0.24,0.27-0.57,0.27-1
		c0-0.38-0.09-0.69-0.27-0.93s-0.42-0.36-0.72-0.36c-0.29,0-0.53,0.12-0.71,0.35C213.06,73.63,212.97,73.97,212.97,74.4z"/>
	<path class="st2" d="M217.96,73.16c-0.09-0.02-0.19-0.02-0.29-0.02c-0.39,0-0.65,0.17-0.79,0.5v2.47h-0.6v-3.48h0.58l0.01,0.4
		c0.2-0.31,0.47-0.47,0.83-0.47c0.12,0,0.2,0.02,0.26,0.04V73.16z"/>
	<path class="st2" d="M220.95,71.78v0.84h0.65v0.46h-0.65v2.16c0,0.14,0.03,0.24,0.09,0.31c0.06,0.07,0.16,0.1,0.3,0.1
		c0.07,0,0.16-0.01,0.28-0.04v0.48c-0.16,0.04-0.31,0.06-0.46,0.06c-0.27,0-0.47-0.08-0.6-0.24c-0.14-0.16-0.2-0.39-0.2-0.69v-2.16
		h-0.63v-0.46h0.63v-0.84H220.95z"/>
	<path class="st2" d="M222.89,73.05c0.26-0.32,0.61-0.49,1.03-0.49c0.74,0,1.11,0.42,1.11,1.24v2.3h-0.59v-2.3
		c0-0.25-0.06-0.44-0.17-0.56c-0.11-0.12-0.29-0.18-0.53-0.18c-0.19,0-0.36,0.05-0.51,0.15c-0.15,0.1-0.26,0.24-0.34,0.41v2.48h-0.6
		v-4.94h0.6V73.05z"/>
	<path class="st2" d="M227.36,76.17c-0.47,0-0.86-0.15-1.15-0.46c-0.3-0.31-0.44-0.72-0.44-1.24v-0.11c0-0.34,0.07-0.65,0.2-0.92
		c0.13-0.27,0.32-0.48,0.55-0.64c0.24-0.15,0.49-0.23,0.77-0.23c0.45,0,0.8,0.15,1.05,0.45c0.25,0.3,0.38,0.73,0.38,1.28v0.25h-2.36
		c0.01,0.34,0.11,0.62,0.3,0.83c0.19,0.21,0.44,0.32,0.73,0.32c0.21,0,0.39-0.04,0.53-0.13c0.15-0.09,0.27-0.2,0.38-0.34l0.36,0.28
		C228.39,75.94,227.95,76.17,227.36,76.17z M227.29,73.05c-0.24,0-0.44,0.09-0.6,0.26c-0.16,0.17-0.26,0.42-0.3,0.73h1.74V74
		c-0.02-0.3-0.1-0.54-0.24-0.7C227.74,73.13,227.54,73.05,227.29,73.05z"/>
	<path class="st2" d="M231.33,76.1v-3.02h-0.55v-0.46h0.55v-0.36c0-0.37,0.1-0.66,0.3-0.87s0.48-0.31,0.85-0.31
		c0.14,0,0.27,0.02,0.41,0.05l-0.03,0.48c-0.1-0.02-0.21-0.03-0.32-0.03c-0.19,0-0.34,0.06-0.45,0.17
		c-0.11,0.11-0.16,0.27-0.16,0.49v0.37h0.74v0.46h-0.74v3.02H231.33z"/>
	<path class="st2" d="M233.33,71.7c0-0.1,0.03-0.18,0.09-0.24s0.15-0.1,0.26-0.1c0.12,0,0.2,0.03,0.26,0.1s0.09,0.15,0.09,0.24
		c0,0.1-0.03,0.18-0.09,0.24c-0.06,0.06-0.15,0.1-0.26,0.1c-0.12,0-0.2-0.03-0.26-0.1C233.36,71.88,233.33,71.8,233.33,71.7z
		 M233.97,76.1h-0.6v-3.48h0.6V76.1z"/>
	<path class="st2" d="M236.61,73.16c-0.09-0.02-0.19-0.02-0.29-0.02c-0.39,0-0.65,0.17-0.79,0.5v2.47h-0.6v-3.48h0.58l0.01,0.4
		c0.2-0.31,0.47-0.47,0.83-0.47c0.12,0,0.2,0.02,0.26,0.04V73.16z"/>
	<path class="st2" d="M239.18,75.18c0-0.16-0.06-0.29-0.18-0.38c-0.12-0.09-0.33-0.17-0.63-0.23c-0.3-0.06-0.54-0.14-0.72-0.23
		c-0.18-0.09-0.31-0.2-0.39-0.32c-0.08-0.12-0.13-0.27-0.13-0.44c0-0.29,0.12-0.53,0.36-0.72s0.55-0.3,0.92-0.3
		c0.39,0,0.71,0.1,0.96,0.31c0.25,0.2,0.37,0.46,0.37,0.78h-0.6c0-0.16-0.07-0.3-0.21-0.42c-0.14-0.12-0.31-0.18-0.52-0.18
		c-0.22,0-0.39,0.05-0.51,0.14c-0.12,0.09-0.18,0.22-0.18,0.37c0,0.14,0.06,0.25,0.17,0.32c0.11,0.07,0.32,0.14,0.62,0.21
		s0.54,0.15,0.72,0.24c0.18,0.09,0.32,0.2,0.41,0.33c0.09,0.13,0.13,0.29,0.13,0.47c0,0.31-0.12,0.56-0.37,0.75
		c-0.25,0.19-0.57,0.28-0.97,0.28c-0.28,0-0.52-0.05-0.74-0.15c-0.21-0.1-0.38-0.24-0.5-0.41c-0.12-0.18-0.18-0.37-0.18-0.57h0.59
		c0.01,0.2,0.09,0.36,0.24,0.47c0.15,0.12,0.35,0.18,0.59,0.18c0.23,0,0.41-0.05,0.54-0.14C239.11,75.46,239.18,75.33,239.18,75.18z
		"/>
	<path class="st2" d="M241.36,71.78v0.84h0.65v0.46h-0.65v2.16c0,0.14,0.03,0.24,0.09,0.31c0.06,0.07,0.16,0.1,0.3,0.1
		c0.07,0,0.16-0.01,0.28-0.04v0.48c-0.16,0.04-0.31,0.06-0.46,0.06c-0.27,0-0.47-0.08-0.6-0.24c-0.14-0.16-0.2-0.39-0.2-0.69v-2.16
		h-0.63v-0.46h0.63v-0.84H241.36z"/>
	<path class="st2" d="M246.46,76.1h-0.93v-3.58l-1.11,0.34v-0.76l1.94-0.69h0.1V76.1z"/>
	<path class="st2" d="M250.73,74.34h0.53v0.75h-0.53v1.01h-0.93v-1.01h-1.92l-0.04-0.58l1.95-3.08h0.94V74.34z M248.76,74.34h1.04
		v-1.65l-0.06,0.11L248.76,74.34z"/>
	<path class="st2" d="M253.29,74.34c0-0.54,0.12-0.97,0.36-1.3c0.24-0.32,0.58-0.48,1-0.48c0.34,0,0.62,0.13,0.84,0.38v-1.78h0.93
		v4.94h-0.84l-0.04-0.37c-0.23,0.29-0.53,0.43-0.89,0.43c-0.41,0-0.74-0.16-0.99-0.48C253.42,75.36,253.29,74.91,253.29,74.34z
		 M254.22,74.41c0,0.33,0.06,0.58,0.17,0.75s0.28,0.26,0.5,0.26c0.29,0,0.49-0.12,0.61-0.36v-1.38c-0.12-0.24-0.32-0.36-0.6-0.36
		C254.45,73.32,254.22,73.68,254.22,74.41z"/>
	<path class="st2" d="M259.16,76.1c-0.04-0.08-0.07-0.19-0.09-0.31c-0.23,0.25-0.52,0.38-0.88,0.38c-0.34,0-0.62-0.1-0.85-0.3
		s-0.34-0.45-0.34-0.75c0-0.37,0.14-0.65,0.41-0.85c0.27-0.2,0.67-0.3,1.19-0.3h0.43v-0.2c0-0.16-0.04-0.29-0.12-0.39
		c-0.08-0.1-0.21-0.15-0.39-0.15c-0.16,0-0.28,0.04-0.37,0.11c-0.09,0.08-0.13,0.18-0.13,0.31h-0.93c0-0.2,0.06-0.39,0.19-0.56
		s0.3-0.31,0.53-0.4c0.23-0.1,0.48-0.15,0.77-0.15c0.43,0,0.77,0.11,1.02,0.32s0.38,0.52,0.38,0.91v1.51c0,0.33,0.05,0.58,0.14,0.75
		v0.05H259.16z M258.4,75.46c0.14,0,0.26-0.03,0.38-0.09c0.12-0.06,0.2-0.14,0.26-0.25v-0.6h-0.35c-0.47,0-0.71,0.16-0.74,0.48
		l0,0.05c0,0.12,0.04,0.21,0.12,0.29C258.14,75.42,258.25,75.46,258.4,75.46z"/>
	<path class="st2" d="M261.93,74.79l0.64-2.16h1l-1.4,4.02l-0.08,0.18c-0.21,0.45-0.55,0.68-1.03,0.68c-0.13,0-0.27-0.02-0.41-0.06
		v-0.7l0.14,0c0.18,0,0.31-0.03,0.39-0.08c0.09-0.05,0.15-0.14,0.2-0.27l0.11-0.29l-1.22-3.49h1L261.93,74.79z"/>
	<path class="st2" d="M265.82,75.14c0-0.11-0.06-0.2-0.17-0.27c-0.11-0.07-0.29-0.12-0.54-0.18c-0.83-0.17-1.24-0.53-1.24-1.06
		c0-0.31,0.13-0.57,0.38-0.77c0.26-0.21,0.59-0.31,1-0.31c0.44,0,0.79,0.1,1.06,0.31s0.4,0.48,0.4,0.81h-0.93
		c0-0.13-0.04-0.24-0.13-0.33c-0.09-0.09-0.22-0.13-0.4-0.13c-0.16,0-0.28,0.04-0.36,0.11c-0.09,0.07-0.13,0.16-0.13,0.27
		c0,0.1,0.05,0.19,0.15,0.25c0.1,0.06,0.26,0.12,0.49,0.16c0.23,0.05,0.43,0.1,0.59,0.16c0.49,0.18,0.74,0.49,0.74,0.94
		c0,0.32-0.14,0.57-0.41,0.77s-0.62,0.29-1.05,0.29c-0.29,0-0.55-0.05-0.78-0.16s-0.4-0.25-0.53-0.43s-0.19-0.38-0.19-0.59h0.88
		c0.01,0.17,0.07,0.29,0.18,0.38c0.11,0.09,0.27,0.13,0.46,0.13c0.18,0,0.31-0.03,0.4-0.1C265.78,75.34,265.82,75.25,265.82,75.14z"
		/>
	<path class="st2" d="M267.4,77.04l-0.34-0.23c0.2-0.28,0.31-0.57,0.31-0.87V75.4h0.58v0.47c0,0.22-0.05,0.43-0.16,0.65
		C267.69,76.73,267.56,76.91,267.4,77.04z"/>
	<path class="st2" d="M187.68,82.31c0,0.53-0.12,0.96-0.36,1.28c-0.24,0.32-0.57,0.49-0.98,0.49c-0.42,0-0.75-0.13-1-0.4v1.68h-0.6
		v-4.82h0.54l0.03,0.39c0.24-0.3,0.58-0.45,1.01-0.45c0.42,0,0.75,0.16,0.99,0.47c0.24,0.32,0.37,0.75,0.37,1.32V82.31z
		 M187.09,82.24c0-0.39-0.08-0.7-0.25-0.93c-0.17-0.23-0.4-0.34-0.69-0.34c-0.36,0-0.63,0.16-0.81,0.48v1.66
		c0.18,0.32,0.45,0.48,0.82,0.48c0.29,0,0.51-0.11,0.68-0.34C187,83.02,187.09,82.69,187.09,82.24z"/>
	<path class="st2" d="M189.09,84.01h-0.6v-4.94h0.6V84.01z"/>
	<path class="st2" d="M192.19,84.01c-0.03-0.07-0.06-0.19-0.08-0.37c-0.28,0.29-0.61,0.43-0.99,0.43c-0.34,0-0.62-0.1-0.84-0.29
		c-0.22-0.19-0.33-0.44-0.33-0.74c0-0.36,0.14-0.64,0.41-0.84c0.28-0.2,0.66-0.3,1.16-0.3h0.58v-0.27c0-0.21-0.06-0.37-0.19-0.5
		c-0.12-0.12-0.31-0.19-0.55-0.19c-0.21,0-0.39,0.05-0.53,0.16c-0.14,0.11-0.22,0.24-0.22,0.39h-0.6c0-0.17,0.06-0.34,0.19-0.5
		c0.12-0.16,0.29-0.29,0.5-0.38c0.21-0.09,0.44-0.14,0.7-0.14c0.4,0,0.71,0.1,0.94,0.3c0.23,0.2,0.35,0.48,0.35,0.83v1.6
		c0,0.32,0.04,0.57,0.12,0.76v0.05H192.19z M191.2,83.55c0.19,0,0.36-0.05,0.53-0.14c0.17-0.1,0.29-0.22,0.36-0.38v-0.71h-0.47
		c-0.73,0-1.09,0.21-1.09,0.64c0,0.19,0.06,0.33,0.19,0.44C190.84,83.5,191,83.55,191.2,83.55z"/>
	<path class="st2" d="M194.18,80.53l0.02,0.44c0.27-0.33,0.61-0.5,1.04-0.5c0.74,0,1.11,0.42,1.11,1.24v2.3h-0.59v-2.3
		c0-0.25-0.06-0.44-0.17-0.56c-0.11-0.12-0.29-0.18-0.53-0.18c-0.19,0-0.36,0.05-0.51,0.15c-0.15,0.1-0.26,0.24-0.34,0.41v2.48h-0.6
		v-3.48H194.18z"/>
	<path class="st2" d="M199.28,83.09c0-0.16-0.06-0.29-0.18-0.38c-0.12-0.09-0.33-0.17-0.63-0.23c-0.3-0.06-0.54-0.14-0.72-0.23
		c-0.18-0.09-0.31-0.2-0.39-0.32c-0.08-0.12-0.13-0.27-0.13-0.44c0-0.29,0.12-0.53,0.36-0.72s0.55-0.3,0.92-0.3
		c0.39,0,0.71,0.1,0.96,0.31c0.25,0.2,0.37,0.46,0.37,0.78h-0.6c0-0.16-0.07-0.3-0.21-0.42c-0.14-0.12-0.31-0.18-0.52-0.18
		c-0.22,0-0.39,0.05-0.51,0.14c-0.12,0.09-0.18,0.22-0.18,0.37c0,0.14,0.06,0.25,0.17,0.32c0.11,0.07,0.32,0.14,0.62,0.21
		s0.54,0.15,0.72,0.24c0.18,0.09,0.32,0.2,0.41,0.33c0.09,0.13,0.13,0.29,0.13,0.47c0,0.31-0.12,0.56-0.37,0.75
		c-0.25,0.19-0.57,0.28-0.97,0.28c-0.28,0-0.52-0.05-0.74-0.15c-0.21-0.1-0.38-0.24-0.5-0.41c-0.12-0.18-0.18-0.37-0.18-0.57h0.59
		c0.01,0.2,0.09,0.36,0.24,0.47c0.15,0.12,0.35,0.18,0.59,0.18c0.23,0,0.41-0.05,0.54-0.14C199.21,83.36,199.28,83.24,199.28,83.09z
		"/>
	<path class="st2" d="M204.31,83.09c0-0.16-0.06-0.29-0.18-0.38c-0.12-0.09-0.33-0.17-0.63-0.23c-0.3-0.06-0.54-0.14-0.72-0.23
		c-0.18-0.09-0.31-0.2-0.39-0.32c-0.08-0.12-0.13-0.27-0.13-0.44c0-0.29,0.12-0.53,0.36-0.72s0.55-0.3,0.92-0.3
		c0.39,0,0.71,0.1,0.96,0.31c0.25,0.2,0.37,0.46,0.37,0.78h-0.6c0-0.16-0.07-0.3-0.21-0.42c-0.14-0.12-0.31-0.18-0.52-0.18
		c-0.22,0-0.39,0.05-0.51,0.14c-0.12,0.09-0.18,0.22-0.18,0.37c0,0.14,0.06,0.25,0.17,0.32c0.11,0.07,0.32,0.14,0.62,0.21
		s0.54,0.15,0.72,0.24c0.18,0.09,0.32,0.2,0.41,0.33c0.09,0.13,0.13,0.29,0.13,0.47c0,0.31-0.12,0.56-0.37,0.75
		c-0.25,0.19-0.57,0.28-0.97,0.28c-0.28,0-0.52-0.05-0.74-0.15c-0.21-0.1-0.38-0.24-0.5-0.41c-0.12-0.18-0.18-0.37-0.18-0.57h0.59
		c0.01,0.2,0.09,0.36,0.24,0.47c0.15,0.12,0.35,0.18,0.59,0.18c0.23,0,0.41-0.05,0.54-0.14C204.24,83.36,204.31,83.24,204.31,83.09z
		"/>
	<path class="st2" d="M206.48,79.69v0.84h0.65v0.46h-0.65v2.16c0,0.14,0.03,0.24,0.09,0.31c0.06,0.07,0.16,0.1,0.3,0.1
		c0.07,0,0.16-0.01,0.28-0.04v0.48c-0.16,0.04-0.31,0.06-0.46,0.06c-0.27,0-0.47-0.08-0.6-0.24c-0.14-0.16-0.2-0.39-0.2-0.69v-2.16
		h-0.63v-0.46h0.63v-0.84H206.48z"/>
	<path class="st2" d="M209.98,84.01c-0.03-0.07-0.06-0.19-0.08-0.37c-0.28,0.29-0.61,0.43-0.99,0.43c-0.34,0-0.62-0.1-0.84-0.29
		c-0.22-0.19-0.33-0.44-0.33-0.74c0-0.36,0.14-0.64,0.41-0.84c0.28-0.2,0.66-0.3,1.16-0.3h0.58v-0.27c0-0.21-0.06-0.37-0.19-0.5
		c-0.12-0.12-0.31-0.19-0.55-0.19c-0.21,0-0.39,0.05-0.53,0.16c-0.14,0.11-0.22,0.24-0.22,0.39h-0.6c0-0.17,0.06-0.34,0.19-0.5
		c0.12-0.16,0.29-0.29,0.5-0.38c0.21-0.09,0.44-0.14,0.7-0.14c0.4,0,0.71,0.1,0.94,0.3c0.23,0.2,0.35,0.48,0.35,0.83v1.6
		c0,0.32,0.04,0.57,0.12,0.76v0.05H209.98z M208.99,83.55c0.19,0,0.36-0.05,0.53-0.14c0.17-0.1,0.29-0.22,0.36-0.38v-0.71h-0.47
		c-0.73,0-1.09,0.21-1.09,0.64c0,0.19,0.06,0.33,0.19,0.44C208.63,83.5,208.79,83.55,208.99,83.55z"/>
	<path class="st2" d="M213.09,81.06c-0.09-0.02-0.19-0.02-0.29-0.02c-0.39,0-0.65,0.17-0.79,0.5v2.47h-0.6v-3.48h0.58l0.01,0.4
		c0.2-0.31,0.47-0.47,0.83-0.47c0.12,0,0.2,0.02,0.26,0.04V81.06z"/>
	<path class="st2" d="M214.61,79.69v0.84h0.65v0.46h-0.65v2.16c0,0.14,0.03,0.24,0.09,0.31c0.06,0.07,0.16,0.1,0.3,0.1
		c0.07,0,0.16-0.01,0.28-0.04v0.48c-0.16,0.04-0.31,0.06-0.46,0.06c-0.27,0-0.47-0.08-0.6-0.24c-0.14-0.16-0.2-0.39-0.2-0.69v-2.16
		h-0.63v-0.46h0.63v-0.84H214.61z"/>
	<path class="st2" d="M215.95,79.61c0-0.1,0.03-0.18,0.09-0.24s0.15-0.1,0.26-0.1c0.12,0,0.2,0.03,0.26,0.1s0.09,0.15,0.09,0.24
		c0,0.1-0.03,0.18-0.09,0.24c-0.06,0.06-0.15,0.1-0.26,0.1c-0.12,0-0.2-0.03-0.26-0.1C215.98,79.78,215.95,79.7,215.95,79.61z
		 M216.6,84.01H216v-3.48h0.6V84.01z"/>
	<path class="st2" d="M218.11,80.53l0.02,0.44c0.27-0.33,0.61-0.5,1.04-0.5c0.74,0,1.11,0.42,1.11,1.24v2.3h-0.59v-2.3
		c0-0.25-0.06-0.44-0.17-0.56c-0.11-0.12-0.29-0.18-0.53-0.18c-0.19,0-0.36,0.05-0.51,0.15c-0.15,0.1-0.26,0.24-0.34,0.41v2.48h-0.6
		v-3.48H218.11z"/>
	<path class="st2" d="M221.04,82.24c0-0.54,0.13-0.97,0.38-1.29c0.25-0.32,0.58-0.48,1-0.48c0.42,0,0.76,0.15,0.99,0.45l0.03-0.39
		h0.54v3.4c0,0.45-0.13,0.8-0.4,1.06c-0.27,0.26-0.63,0.39-1.08,0.39c-0.25,0-0.5-0.05-0.74-0.16c-0.24-0.11-0.42-0.25-0.55-0.44
		l0.31-0.36c0.25,0.32,0.57,0.47,0.94,0.47c0.29,0,0.52-0.08,0.68-0.24c0.16-0.16,0.24-0.39,0.24-0.69v-0.3
		c-0.24,0.27-0.56,0.41-0.97,0.41c-0.41,0-0.74-0.16-0.99-0.49S221.04,82.81,221.04,82.24z M221.64,82.31c0,0.39,0.08,0.7,0.24,0.92
		c0.16,0.22,0.39,0.34,0.68,0.34c0.38,0,0.65-0.17,0.83-0.51v-1.59c-0.18-0.33-0.46-0.5-0.82-0.5c-0.29,0-0.52,0.11-0.68,0.34
		C221.72,81.53,221.64,81.87,221.64,82.31z"/>
	<path class="st2" d="M228.66,84.01c-0.03-0.07-0.06-0.19-0.08-0.37c-0.28,0.29-0.61,0.43-0.99,0.43c-0.34,0-0.62-0.1-0.84-0.29
		c-0.22-0.19-0.33-0.44-0.33-0.74c0-0.36,0.14-0.64,0.41-0.84c0.28-0.2,0.66-0.3,1.16-0.3h0.58v-0.27c0-0.21-0.06-0.37-0.19-0.5
		c-0.12-0.12-0.31-0.19-0.55-0.19c-0.21,0-0.39,0.05-0.53,0.16c-0.14,0.11-0.22,0.24-0.22,0.39h-0.6c0-0.17,0.06-0.34,0.19-0.5
		c0.12-0.16,0.29-0.29,0.5-0.38c0.21-0.09,0.44-0.14,0.7-0.14c0.4,0,0.71,0.1,0.94,0.3c0.23,0.2,0.35,0.48,0.35,0.83v1.6
		c0,0.32,0.04,0.57,0.12,0.76v0.05H228.66z M227.67,83.55c0.19,0,0.36-0.05,0.53-0.14c0.17-0.1,0.29-0.22,0.36-0.38v-0.71h-0.47
		c-0.73,0-1.09,0.21-1.09,0.64c0,0.19,0.06,0.33,0.19,0.44C227.32,83.5,227.48,83.55,227.67,83.55z"/>
	<path class="st2" d="M230.9,79.69v0.84h0.65v0.46h-0.65v2.16c0,0.14,0.03,0.24,0.09,0.31c0.06,0.07,0.16,0.1,0.3,0.1
		c0.07,0,0.16-0.01,0.28-0.04v0.48c-0.16,0.04-0.31,0.06-0.46,0.06c-0.27,0-0.47-0.08-0.6-0.24c-0.14-0.16-0.2-0.39-0.2-0.69v-2.16
		h-0.63v-0.46h0.63v-0.84H230.9z"/>
	<path class="st2" d="M235.96,82.78c0-0.18-0.05-0.32-0.15-0.42c-0.1-0.1-0.26-0.2-0.5-0.29c-0.23-0.09-0.44-0.17-0.6-0.26
		s-0.31-0.19-0.44-0.3c-0.12-0.11-0.22-0.24-0.28-0.4c-0.07-0.15-0.1-0.33-0.1-0.54c0-0.36,0.12-0.66,0.35-0.89
		c0.23-0.23,0.54-0.37,0.92-0.41v-0.69h0.51v0.7c0.38,0.05,0.68,0.21,0.89,0.47s0.32,0.6,0.32,1.02h-0.93
		c0-0.26-0.05-0.45-0.16-0.58c-0.11-0.13-0.25-0.19-0.43-0.19c-0.18,0-0.31,0.05-0.41,0.15s-0.14,0.24-0.14,0.41
		c0,0.16,0.05,0.29,0.14,0.39c0.09,0.1,0.27,0.2,0.53,0.3c0.26,0.1,0.47,0.2,0.63,0.29c0.17,0.09,0.3,0.19,0.42,0.31
		c0.11,0.11,0.2,0.25,0.26,0.39s0.09,0.32,0.09,0.51c0,0.36-0.11,0.66-0.34,0.89c-0.23,0.23-0.54,0.36-0.94,0.4v0.64h-0.51v-0.64
		c-0.44-0.05-0.78-0.2-1.02-0.47c-0.24-0.27-0.36-0.62-0.36-1.06h0.93c0,0.26,0.06,0.45,0.18,0.59c0.12,0.14,0.29,0.2,0.52,0.2
		c0.19,0,0.34-0.05,0.45-0.15S235.96,82.95,235.96,82.78z"/>
	<path class="st2" d="M239.69,82.14c-0.24,0.24-0.52,0.36-0.85,0.36c-0.41,0-0.75-0.14-0.99-0.43c-0.25-0.28-0.37-0.67-0.37-1.15
		c0-0.31,0.07-0.59,0.2-0.84c0.13-0.26,0.32-0.46,0.56-0.6c0.24-0.14,0.51-0.21,0.81-0.21c0.31,0,0.58,0.08,0.82,0.23
		s0.43,0.38,0.56,0.67s0.2,0.62,0.2,0.99v0.34c0,0.78-0.19,1.39-0.58,1.84c-0.39,0.45-0.94,0.68-1.65,0.71l-0.23,0v-0.77l0.21,0
		C239.19,83.24,239.63,82.86,239.69,82.14z M239.07,81.78c0.15,0,0.28-0.04,0.39-0.12s0.19-0.17,0.25-0.28V81
		c0-0.31-0.06-0.56-0.18-0.73c-0.12-0.17-0.28-0.26-0.48-0.26c-0.19,0-0.34,0.09-0.46,0.26s-0.18,0.38-0.18,0.64
		c0,0.25,0.06,0.46,0.18,0.63C238.7,81.7,238.86,81.78,239.07,81.78z"/>
	<path class="st2" d="M241.39,83.55c0-0.15,0.05-0.27,0.15-0.36s0.22-0.14,0.37-0.14c0.15,0,0.28,0.05,0.38,0.14
		c0.1,0.09,0.15,0.21,0.15,0.36c0,0.15-0.05,0.26-0.15,0.36c-0.1,0.09-0.23,0.14-0.38,0.14c-0.15,0-0.28-0.05-0.38-0.14
		C241.44,83.82,241.39,83.7,241.39,83.55z"/>
	<path class="st2" d="M245.39,82.14c-0.24,0.24-0.52,0.36-0.85,0.36c-0.41,0-0.75-0.14-0.99-0.43c-0.25-0.28-0.37-0.67-0.37-1.15
		c0-0.31,0.07-0.59,0.2-0.84c0.13-0.26,0.32-0.46,0.56-0.6c0.24-0.14,0.51-0.21,0.81-0.21c0.31,0,0.58,0.08,0.82,0.23
		s0.43,0.38,0.56,0.67s0.2,0.62,0.2,0.99v0.34c0,0.78-0.19,1.39-0.58,1.84c-0.39,0.45-0.94,0.68-1.65,0.71l-0.23,0v-0.77l0.21,0
		C244.88,83.24,245.32,82.86,245.39,82.14z M244.77,81.78c0.15,0,0.28-0.04,0.39-0.12s0.19-0.17,0.25-0.28V81
		c0-0.31-0.06-0.56-0.18-0.73c-0.12-0.17-0.28-0.26-0.48-0.26c-0.19,0-0.34,0.09-0.46,0.26s-0.18,0.38-0.18,0.64
		c0,0.25,0.06,0.46,0.18,0.63C244.39,81.7,244.55,81.78,244.77,81.78z"/>
	<path class="st2" d="M249.17,82.14c-0.24,0.24-0.52,0.36-0.85,0.36c-0.41,0-0.75-0.14-0.99-0.43c-0.25-0.28-0.37-0.67-0.37-1.15
		c0-0.31,0.07-0.59,0.2-0.84c0.13-0.26,0.32-0.46,0.56-0.6c0.24-0.14,0.51-0.21,0.81-0.21c0.31,0,0.58,0.08,0.82,0.23
		s0.43,0.38,0.56,0.67s0.2,0.62,0.2,0.99v0.34c0,0.78-0.19,1.39-0.58,1.84c-0.39,0.45-0.94,0.68-1.65,0.71l-0.23,0v-0.77l0.21,0
		C248.66,83.24,249.1,82.86,249.17,82.14z M248.54,81.78c0.15,0,0.28-0.04,0.39-0.12s0.19-0.17,0.25-0.28V81
		c0-0.31-0.06-0.56-0.18-0.73c-0.12-0.17-0.28-0.26-0.48-0.26c-0.19,0-0.34,0.09-0.46,0.26s-0.18,0.38-0.18,0.64
		c0,0.25,0.06,0.46,0.18,0.63C248.17,81.7,248.33,81.78,248.54,81.78z"/>
	<path class="st2" d="M251.1,84.41h-0.69l1.72-5.08h0.69L251.1,84.41z"/>
	<path class="st2" d="M254.14,80.53l0.03,0.39c0.25-0.3,0.58-0.45,1-0.45c0.45,0,0.76,0.18,0.92,0.53c0.24-0.35,0.59-0.53,1.04-0.53
		c0.38,0,0.66,0.11,0.84,0.33s0.28,0.55,0.28,0.99v2.22h-0.93v-2.22c0-0.2-0.04-0.34-0.12-0.43c-0.08-0.09-0.21-0.14-0.41-0.14
		c-0.28,0-0.47,0.13-0.58,0.4l0,2.39h-0.93v-2.22c0-0.2-0.04-0.35-0.12-0.44c-0.08-0.09-0.21-0.13-0.41-0.13
		c-0.26,0-0.45,0.11-0.57,0.33v2.46h-0.93v-3.48H254.14z"/>
	<path class="st2" d="M258.83,82.24c0-0.35,0.07-0.65,0.2-0.92c0.13-0.27,0.32-0.48,0.57-0.63c0.25-0.15,0.54-0.22,0.87-0.22
		c0.47,0,0.85,0.14,1.15,0.43c0.3,0.29,0.46,0.68,0.5,1.17l0.01,0.24c0,0.53-0.15,0.96-0.45,1.28c-0.3,0.32-0.7,0.48-1.2,0.48
		c-0.5,0-0.9-0.16-1.2-0.48c-0.3-0.32-0.45-0.76-0.45-1.31V82.24z M259.76,82.3c0,0.33,0.06,0.58,0.19,0.76
		c0.12,0.17,0.3,0.26,0.53,0.26c0.23,0,0.4-0.09,0.53-0.26c0.13-0.17,0.19-0.45,0.19-0.83c0-0.32-0.06-0.58-0.19-0.75
		c-0.13-0.18-0.3-0.27-0.53-0.27c-0.23,0-0.4,0.09-0.53,0.27S259.76,81.93,259.76,82.3z"/>
	<path class="st2" d="M263.55,80.53l0.03,0.4c0.25-0.31,0.58-0.47,1-0.47c0.37,0,0.64,0.11,0.82,0.32c0.18,0.22,0.27,0.54,0.28,0.97
		v2.25h-0.93v-2.23c0-0.2-0.04-0.34-0.13-0.43c-0.09-0.09-0.23-0.13-0.43-0.13c-0.26,0-0.46,0.11-0.59,0.33v2.45h-0.93v-3.48H263.55
		z"/>
	<path class="st2" d="M267.5,79.67v0.86h0.59v0.68h-0.59v1.74c0,0.13,0.02,0.22,0.07,0.28s0.14,0.08,0.28,0.08
		c0.1,0,0.19-0.01,0.27-0.02v0.7c-0.18,0.06-0.37,0.08-0.56,0.08c-0.65,0-0.98-0.33-1-0.99v-1.88h-0.51v-0.68h0.51v-0.86H267.5z"/>
	<path class="st2" d="M269.52,80.91c0.25-0.3,0.56-0.44,0.93-0.44c0.75,0,1.14,0.44,1.15,1.32v2.23h-0.93v-2.2
		c0-0.2-0.04-0.35-0.13-0.44c-0.09-0.1-0.23-0.14-0.43-0.14c-0.27,0-0.47,0.1-0.59,0.31v2.47h-0.93v-4.94h0.93V80.91z"/>
</g>
</svg>
