<?xml version="1.0" encoding="utf-8"?>
<!-- Generator: Adobe Illustrator 25.3.1, SVG Export Plug-In . SVG Version: 6.00 Build 0)  -->
<svg version="1.1" id="Layer_1" xmlns="http://www.w3.org/2000/svg" xmlns:xlink="http://www.w3.org/1999/xlink" x="0px" y="0px"
	 viewBox="0 0 300 600" style="enable-background:new 0 0 300 600;" xml:space="preserve">
<style type="text/css">
	.st0{fill:#FFFFFF;}
</style>
<g>
	<path class="st0" d="M64.73,151.95v-21.33h6.87c1.88,0,3.58,0.43,5.08,1.28s2.68,2.06,3.52,3.62c0.84,1.56,1.27,3.3,1.28,5.24v0.98
		c0,1.95-0.41,3.7-1.24,5.25c-0.83,1.55-1.99,2.76-3.49,3.63c-1.5,0.88-3.17,1.32-5.02,1.33H64.73z M69.87,134.59v13.4h1.79
		c1.47,0,2.61-0.52,3.4-1.57s1.19-2.61,1.19-4.68v-0.92c0-2.06-0.4-3.61-1.19-4.66s-1.94-1.57-3.46-1.57H69.87z"/>
	<path class="st0" d="M83.28,143.88c0-1.58,0.31-2.99,0.92-4.23s1.5-2.19,2.65-2.85s2.5-1,4.06-1c2.37,0,4.24,0.73,5.61,2.21
		c1.37,1.47,2.05,3.47,2.05,6v0.18c0,2.47-0.69,4.43-2.06,5.88c-1.37,1.45-3.23,2.18-5.57,2.18c-2.26,0-4.07-0.68-5.43-2.03
		c-1.37-1.35-2.1-3.19-2.21-5.5L83.28,143.88z M88.21,144.18c0,1.46,0.23,2.54,0.69,3.22s1.14,1.03,2.04,1.03
		c1.76,0,2.66-1.35,2.7-4.06v-0.5c0-2.84-0.91-4.26-2.72-4.26c-1.65,0-2.54,1.23-2.68,3.68L88.21,144.18z"/>
	<path class="st0" d="M105.28,136.1l0.16,1.86c1.09-1.44,2.6-2.15,4.53-2.15c1.65,0,2.88,0.49,3.7,1.48
		c0.81,0.99,1.24,2.47,1.27,4.45v10.21h-4.95v-10c0-0.8-0.16-1.39-0.48-1.76s-0.91-0.56-1.76-0.56c-0.97,0-1.68,0.38-2.15,1.14
		v11.19h-4.94V136.1H105.28z"/>
	<path class="st0" d="M119.25,131.82l-0.48,6.05h-3.03v-8.42h3.52V131.82z"/>
	<path class="st0" d="M126.87,132.16v3.94h2.61v3.43h-2.61v7.25c0,0.6,0.11,1.01,0.32,1.25s0.64,0.35,1.27,0.35
		c0.49,0,0.9-0.03,1.23-0.09v3.53c-0.89,0.28-1.82,0.42-2.78,0.42c-1.7,0-2.95-0.4-3.76-1.2s-1.22-2.02-1.22-3.65v-7.87h-2.02v-3.43
		h2.02v-3.94H126.87z"/>
	<path class="st0" d="M153.6,144.15c0,2.6-0.54,4.59-1.61,5.99s-2.59,2.09-4.54,2.09c-1.61,0-2.91-0.64-3.9-1.92l-0.21,1.63h-4.42
		v-22.5h4.94v7.92c0.92-1.04,2.1-1.57,3.56-1.57c1.97,0,3.5,0.71,4.57,2.12s1.61,3.41,1.61,5.98V144.15z M148.65,143.84
		c0-1.52-0.2-2.61-0.61-3.25s-1.03-0.97-1.87-0.97c-1.11,0-1.88,0.42-2.31,1.27v6.29c0.42,0.84,1.2,1.26,2.34,1.26
		c1.16,0,1.9-0.57,2.21-1.7C148.58,146.18,148.65,145.21,148.65,143.84z"/>
	<path class="st0" d="M163.45,152.24c-2.43,0-4.4-0.72-5.9-2.18c-1.5-1.45-2.26-3.34-2.26-5.66v-0.41c0-1.62,0.3-3.05,0.9-4.29
		c0.6-1.24,1.48-2.2,2.63-2.88s2.52-1.02,4.1-1.02c2.23,0,3.98,0.69,5.27,2.07c1.29,1.38,1.93,3.31,1.93,5.78v1.92h-9.81
		c0.18,0.89,0.56,1.59,1.16,2.09s1.37,0.76,2.31,0.76c1.56,0,2.78-0.55,3.66-1.64l2.26,2.67c-0.62,0.85-1.49,1.53-2.61,2.03
		C165.96,151.99,164.75,152.24,163.45,152.24z M162.89,139.61c-1.45,0-2.3,0.96-2.58,2.87h4.98v-0.38c0.02-0.79-0.18-1.4-0.6-1.84
		S163.67,139.61,162.89,139.61z"/>
	<path class="st0" d="M194.3,144.14c0,2.46-0.55,4.43-1.66,5.9c-1.11,1.47-2.6,2.21-4.49,2.21c-1.46,0-2.65-0.53-3.59-1.6v7.4h-4.94
		V136.1h4.61l0.15,1.46c0.95-1.17,2.19-1.76,3.74-1.76c1.95,0,3.47,0.72,4.56,2.16c1.08,1.44,1.63,3.42,1.63,5.94V144.14z
		 M189.36,143.83c0-2.81-0.82-4.22-2.46-4.22c-1.17,0-1.95,0.42-2.34,1.26v6.24c0.43,0.88,1.22,1.32,2.37,1.32
		c1.57,0,2.38-1.36,2.43-4.07V143.83z"/>
	<path class="st0" d="M205.4,151.95c-0.18-0.32-0.33-0.8-0.47-1.42c-0.91,1.14-2.18,1.71-3.81,1.71c-1.49,0-2.76-0.45-3.81-1.36
		c-1.04-0.9-1.57-2.04-1.57-3.41c0-1.72,0.63-3.02,1.9-3.9s3.12-1.32,5.54-1.32h1.52v-0.84c0-1.46-0.63-2.19-1.89-2.19
		c-1.17,0-1.76,0.58-1.76,1.74h-4.94c0-1.53,0.65-2.78,1.96-3.73c1.3-0.96,2.97-1.43,4.99-1.43s3.62,0.49,4.79,1.48
		s1.77,2.34,1.8,4.06v7.02c0.02,1.46,0.24,2.57,0.67,3.34v0.25H205.4z M202.31,148.72c0.62,0,1.12-0.13,1.53-0.4s0.7-0.56,0.87-0.89
		v-2.53h-1.44c-1.72,0-2.58,0.77-2.58,2.31c0,0.45,0.15,0.81,0.45,1.09C201.46,148.59,201.84,148.72,202.31,148.72z"/>
	<path class="st0" d="M221.98,140.57l-1.63-0.12c-1.55,0-2.55,0.49-2.99,1.46v10.03h-4.94V136.1h4.63l0.16,2.04
		c0.83-1.55,1.99-2.33,3.47-2.33c0.53,0,0.99,0.06,1.38,0.18L221.98,140.57z"/>
	<path class="st0" d="M230.25,132.16v3.94h2.61v3.43h-2.61v7.25c0,0.6,0.11,1.01,0.32,1.25s0.64,0.35,1.27,0.35
		c0.49,0,0.9-0.03,1.23-0.09v3.53c-0.89,0.28-1.82,0.42-2.78,0.42c-1.7,0-2.95-0.4-3.76-1.2s-1.22-2.02-1.22-3.65v-7.87h-2.02v-3.43
		h2.02v-3.94H230.25z"/>
	<path class="st0" d="M60.46,179.88c0-1.58,0.31-2.99,0.92-4.23s1.5-2.19,2.65-2.85s2.5-1,4.06-1c2.37,0,4.24,0.74,5.61,2.21
		s2.05,3.47,2.05,6v0.18c0,2.47-0.69,4.43-2.06,5.88c-1.37,1.45-3.23,2.18-5.57,2.18c-2.26,0-4.07-0.68-5.43-2.03
		c-1.37-1.35-2.1-3.19-2.21-5.5L60.46,179.88z M65.39,180.18c0,1.46,0.23,2.54,0.69,3.22s1.14,1.03,2.04,1.03
		c1.76,0,2.66-1.35,2.7-4.06v-0.5c0-2.84-0.91-4.26-2.72-4.26c-1.65,0-2.54,1.23-2.68,3.68L65.39,180.18z"/>
	<path class="st0" d="M79.01,187.95v-12.42h-2.3v-3.43h2.3v-1.26c0-1.81,0.53-3.21,1.6-4.2s2.56-1.49,4.48-1.49
		c0.7,0,1.47,0.1,2.31,0.31l0.01,3.63c-0.3-0.09-0.71-0.13-1.22-0.13c-1.49,0-2.24,0.64-2.24,1.93v1.22h3.09v3.43h-3.09v12.42H79.01
		z"/>
	<path class="st0" d="M102.01,168.16v3.94h2.61v3.43h-2.61v7.25c0,0.6,0.11,1.01,0.32,1.25s0.64,0.35,1.27,0.35
		c0.49,0,0.9-0.03,1.23-0.09v3.53c-0.89,0.28-1.82,0.42-2.78,0.42c-1.7,0-2.95-0.4-3.76-1.2s-1.22-2.02-1.22-3.65v-7.87h-2.02v-3.43
		h2.02v-3.94H102.01z"/>
	<path class="st0" d="M111.39,173.8c1.05-1.33,2.4-1.99,4.04-1.99c1.75,0,3.07,0.52,3.96,1.55s1.34,2.56,1.36,4.58v10h-4.95v-9.89
		c0-0.84-0.17-1.46-0.51-1.85c-0.34-0.4-0.92-0.59-1.74-0.59c-1.02,0-1.73,0.32-2.15,0.97v11.37h-4.94v-22.5h4.94V173.8z"/>
	<path class="st0" d="M123.46,168.01c0-0.7,0.25-1.28,0.76-1.73s1.17-0.67,1.98-0.67s1.47,0.22,1.98,0.67s0.76,1.03,0.76,1.73
		s-0.25,1.28-0.76,1.73s-1.17,0.67-1.98,0.67s-1.47-0.22-1.98-0.67S123.46,168.71,123.46,168.01z M128.7,187.95h-4.95V172.1h4.95
		V187.95z"/>
	<path class="st0" d="M140.04,183.49c0-0.42-0.22-0.76-0.66-1.01s-1.27-0.52-2.5-0.79s-2.25-0.63-3.05-1.08
		c-0.8-0.44-1.41-0.98-1.83-1.62s-0.63-1.36-0.63-2.18c0-1.46,0.6-2.65,1.8-3.6s2.77-1.41,4.72-1.41c2.09,0,3.77,0.47,5.04,1.42
		s1.9,2.19,1.9,3.74h-4.95c0-1.27-0.67-1.9-2.01-1.9c-0.52,0-0.95,0.14-1.3,0.43c-0.35,0.29-0.53,0.65-0.53,1.08
		c0,0.44,0.21,0.8,0.64,1.07s1.12,0.5,2.06,0.67c0.94,0.18,1.77,0.39,2.48,0.63c2.38,0.82,3.57,2.29,3.57,4.41
		c0,1.45-0.64,2.62-1.93,3.53c-1.29,0.91-2.95,1.36-4.99,1.36c-1.36,0-2.57-0.24-3.63-0.73s-1.89-1.15-2.49-1.99
		s-0.89-1.72-0.89-2.65h4.61c0.02,0.73,0.26,1.27,0.73,1.6c0.47,0.34,1.07,0.5,1.8,0.5c0.67,0,1.18-0.14,1.52-0.41
		C139.87,184.29,140.04,183.93,140.04,183.49z"/>
	<path class="st0" d="M169.29,180.15c0,2.6-0.54,4.59-1.61,5.99s-2.59,2.09-4.54,2.09c-1.61,0-2.91-0.64-3.9-1.92l-0.21,1.63h-4.42
		v-22.5h4.94v7.92c0.92-1.04,2.1-1.57,3.56-1.57c1.97,0,3.5,0.71,4.57,2.12s1.61,3.41,1.61,5.98V180.15z M164.34,179.84
		c0-1.52-0.2-2.61-0.61-3.25s-1.03-0.97-1.87-0.97c-1.11,0-1.88,0.42-2.31,1.27v6.29c0.42,0.84,1.2,1.26,2.34,1.26
		c1.16,0,1.9-0.57,2.21-1.7C164.26,182.18,164.34,181.21,164.34,179.84z"/>
	<path class="st0" d="M171.43,168.01c0-0.7,0.25-1.28,0.76-1.73s1.17-0.67,1.98-0.67s1.47,0.22,1.98,0.67s0.76,1.03,0.76,1.73
		s-0.25,1.28-0.76,1.73s-1.17,0.67-1.98,0.67s-1.47-0.22-1.98-0.67S171.43,168.71,171.43,168.01z M176.68,187.95h-4.95V172.1h4.95
		V187.95z"/>
	<path class="st0" d="M184.92,187.95h-4.95v-22.5h4.95V187.95z"/>
	<path class="st0" d="M193.17,187.95h-4.95v-22.5h4.95V187.95z"/>
	<path class="st0" d="M196.17,168.01c0-0.7,0.25-1.28,0.76-1.73s1.17-0.67,1.98-0.67s1.47,0.22,1.98,0.67s0.76,1.03,0.76,1.73
		s-0.25,1.28-0.76,1.73s-1.17,0.67-1.98,0.67s-1.47-0.22-1.98-0.67S196.17,168.71,196.17,168.01z M201.42,187.95h-4.95V172.1h4.95
		V187.95z"/>
	<path class="st0" d="M203.83,179.88c0-1.58,0.31-2.99,0.92-4.23s1.5-2.19,2.65-2.85s2.5-1,4.06-1c2.37,0,4.24,0.74,5.61,2.21
		s2.05,3.47,2.05,6v0.18c0,2.47-0.69,4.43-2.06,5.88c-1.37,1.45-3.23,2.18-5.57,2.18c-2.26,0-4.07-0.68-5.43-2.03
		c-1.37-1.35-2.1-3.19-2.21-5.5L203.83,179.88z M208.77,180.18c0,1.46,0.23,2.54,0.69,3.22s1.14,1.03,2.04,1.03
		c1.76,0,2.66-1.35,2.7-4.06v-0.5c0-2.84-0.91-4.26-2.72-4.26c-1.65,0-2.54,1.23-2.68,3.68L208.77,180.18z"/>
	<path class="st0" d="M225.84,172.1l0.16,1.86c1.09-1.44,2.6-2.15,4.53-2.15c1.65,0,2.88,0.49,3.7,1.48
		c0.81,0.99,1.24,2.47,1.27,4.45v10.21h-4.95v-10c0-0.8-0.16-1.39-0.48-1.76s-0.91-0.56-1.76-0.56c-0.97,0-1.68,0.38-2.15,1.14
		v11.19h-4.94V172.1H225.84z"/>
	<path class="st0" d="M76.92,215.91c0-2.51,0.54-4.49,1.63-5.93s2.6-2.17,4.54-2.17c1.42,0,2.61,0.56,3.57,1.67v-8.03h4.95v22.5
		h-4.44l-0.25-1.7c-1.02,1.33-2.3,1.99-3.87,1.99c-1.88,0-3.38-0.72-4.48-2.17S76.92,218.57,76.92,215.91z M81.86,216.21
		c0,2.81,0.82,4.22,2.46,4.22c1.09,0,1.88-0.46,2.34-1.38v-6.04c-0.45-0.94-1.22-1.41-2.31-1.41c-1.52,0-2.35,1.23-2.48,3.69
		L81.86,216.21z"/>
	<path class="st0" d="M93.79,215.88c0-1.58,0.31-2.99,0.92-4.23s1.5-2.19,2.65-2.85s2.5-1,4.06-1c2.37,0,4.24,0.74,5.61,2.21
		s2.05,3.47,2.05,6v0.18c0,2.47-0.69,4.43-2.06,5.88c-1.37,1.45-3.23,2.18-5.57,2.18c-2.26,0-4.07-0.68-5.43-2.03
		c-1.37-1.35-2.1-3.19-2.21-5.5L93.79,215.88z M98.73,216.18c0,1.46,0.23,2.54,0.69,3.22s1.14,1.03,2.04,1.03
		c1.76,0,2.66-1.35,2.7-4.06v-0.5c0-2.84-0.91-4.26-2.72-4.26c-1.65,0-2.54,1.23-2.68,3.68L98.73,216.18z"/>
	<path class="st0" d="M116.47,223.95h-4.95v-22.5h4.95V223.95z"/>
	<path class="st0" d="M124.72,223.95h-4.95v-22.5h4.95V223.95z"/>
	<path class="st0" d="M136.69,223.95c-0.18-0.32-0.33-0.8-0.47-1.42c-0.91,1.14-2.18,1.71-3.81,1.71c-1.49,0-2.76-0.45-3.81-1.36
		c-1.04-0.9-1.57-2.04-1.57-3.41c0-1.72,0.63-3.02,1.9-3.9s3.12-1.32,5.54-1.32H136v-0.84c0-1.46-0.63-2.19-1.89-2.19
		c-1.17,0-1.76,0.58-1.76,1.74h-4.94c0-1.53,0.65-2.78,1.96-3.73c1.3-0.96,2.97-1.43,4.99-1.43s3.62,0.49,4.79,1.48
		s1.77,2.34,1.8,4.06v7.02c0.02,1.46,0.24,2.57,0.67,3.34v0.25H136.69z M133.59,220.72c0.62,0,1.12-0.13,1.53-0.4
		s0.7-0.56,0.87-0.89v-2.53h-1.44c-1.72,0-2.58,0.77-2.58,2.31c0,0.45,0.15,0.81,0.45,1.09
		C132.74,220.59,133.13,220.72,133.59,220.72z"/>
	<path class="st0" d="M153.27,212.57l-1.63-0.12c-1.55,0-2.55,0.49-2.99,1.46v10.03h-4.94V208.1h4.63l0.16,2.04
		c0.83-1.55,1.99-2.33,3.47-2.33c0.53,0,0.99,0.06,1.38,0.18L153.27,212.57z"/>
	<path class="st0" d="M169.22,220.43c0.69,0,1.23-0.19,1.61-0.56c0.38-0.38,0.57-0.9,0.56-1.57h4.63c0,1.74-0.62,3.16-1.87,4.28
		c-1.25,1.11-2.85,1.67-4.81,1.67c-2.3,0-4.12-0.72-5.45-2.17s-1.99-3.45-1.99-6.01v-0.21c0-1.6,0.29-3.01,0.89-4.24
		c0.59-1.23,1.44-2.17,2.56-2.83c1.11-0.66,2.43-0.99,3.96-0.99c2.06,0,3.7,0.57,4.91,1.71s1.82,2.69,1.82,4.64h-4.63
		c0-0.82-0.2-1.45-0.6-1.89s-0.94-0.66-1.61-0.66c-1.28,0-2.03,0.82-2.24,2.45c-0.07,0.52-0.1,1.23-0.1,2.14
		c0,1.59,0.19,2.7,0.57,3.31S168.39,220.43,169.22,220.43z"/>
	<path class="st0" d="M183.31,223.95h-4.95v-22.5h4.95V223.95z"/>
	<path class="st0" d="M195.79,222.23c-1.04,1.34-2.46,2.01-4.23,2.01c-1.74,0-3.05-0.51-3.95-1.52c-0.89-1.01-1.34-2.46-1.34-4.36
		V208.1h4.94v10.3c0,1.36,0.66,2.04,1.98,2.04c1.13,0,1.94-0.41,2.42-1.22V208.1h4.97v15.85h-4.63L195.79,222.23z"/>
	<path class="st0" d="M217.98,216.15c0,2.6-0.54,4.59-1.61,5.99s-2.59,2.09-4.54,2.09c-1.61,0-2.91-0.64-3.9-1.92l-0.21,1.63h-4.42
		v-22.5h4.94v7.92c0.92-1.04,2.1-1.57,3.56-1.57c1.97,0,3.5,0.71,4.57,2.12s1.61,3.41,1.61,5.98V216.15z M213.03,215.84
		c0-1.52-0.2-2.61-0.61-3.25s-1.03-0.97-1.87-0.97c-1.11,0-1.88,0.42-2.31,1.27v6.29c0.42,0.84,1.2,1.26,2.34,1.26
		c1.16,0,1.9-0.57,2.21-1.7C212.96,218.18,213.03,217.21,213.03,215.84z"/>
	<path class="st0" d="M223.21,219.16c0.78,0,1.43,0.23,1.95,0.7s0.78,1.06,0.78,1.78s-0.26,1.32-0.78,1.78
		c-0.52,0.46-1.17,0.7-1.95,0.7c-0.79,0-1.44-0.23-1.96-0.7c-0.51-0.47-0.77-1.06-0.77-1.77s0.26-1.3,0.77-1.77
		C221.77,219.39,222.42,219.16,223.21,219.16z"/>
</g>
</svg>
