<?xml version="1.0" encoding="utf-8"?>
<!-- Generator: Adobe Illustrator 25.3.1, SVG Export Plug-In . SVG Version: 6.00 Build 0)  -->
<svg version="1.1" id="Layer_1" xmlns="http://www.w3.org/2000/svg" xmlns:xlink="http://www.w3.org/1999/xlink" x="0px" y="0px"
	 viewBox="0 0 300 600" style="enable-background:new 0 0 300 600;" xml:space="preserve">
<style type="text/css">
	.st0{fill:#FFFFFF;}
</style>
<g>
	<path class="st0" d="M87.48,282.21c0-0.82-0.2-1.47-0.61-1.94s-1.12-0.91-2.14-1.33c-1.02-0.42-1.96-0.84-2.83-1.27
		c-0.87-0.43-1.61-0.92-2.23-1.48s-1.1-1.21-1.44-1.95c-0.33-0.74-0.5-1.63-0.5-2.69c0-1.76,0.59-3.21,1.78-4.35s2.77-1.8,4.75-1.99
		v-3.3h2.48v3.36c1.91,0.28,3.4,1.07,4.49,2.35c1.09,1.29,1.63,2.92,1.63,4.9h-5.28c0-1.08-0.21-1.92-0.62-2.5
		c-0.42-0.58-1.01-0.88-1.78-0.88c-0.69,0-1.22,0.22-1.6,0.65c-0.38,0.43-0.57,1.03-0.57,1.79c0,0.77,0.22,1.38,0.66,1.84
		s1.14,0.89,2.11,1.3c0.97,0.41,1.88,0.84,2.74,1.28c0.86,0.44,1.6,0.95,2.23,1.51s1.11,1.22,1.47,1.97
		c0.35,0.75,0.53,1.65,0.53,2.7c0,1.78-0.57,3.23-1.7,4.36c-1.13,1.12-2.67,1.78-4.62,1.97v3.14h-2.48v-3.16
		c-2.27-0.24-4.01-1.02-5.23-2.34c-1.21-1.32-1.82-3.05-1.82-5.21h5.27c0,1.19,0.26,2.09,0.79,2.71c0.53,0.62,1.27,0.93,2.24,0.93
		c0.71,0,1.27-0.21,1.67-0.63S87.48,282.95,87.48,282.21z"/>
	<path class="st0" d="M109.44,279.35h2.31v4.06h-2.31v4.83h-5.27v-4.83h-8.8l-0.31-3.22l9.11-14.66v-0.05h5.27V279.35z
		 M100.08,279.35h4.09v-7l-0.33,0.53L100.08,279.35z"/>
	<path class="st0" d="M118.88,274.67h2.48c1.97,0,2.95-0.96,2.95-2.89c0-0.75-0.23-1.36-0.7-1.84c-0.47-0.47-1.13-0.71-1.98-0.71
		c-0.7,0-1.3,0.2-1.82,0.61s-0.77,0.91-0.77,1.52h-5.27c0-1.2,0.33-2.27,1-3.2c0.67-0.94,1.59-1.67,2.77-2.2
		c1.18-0.53,2.48-0.79,3.9-0.79c2.53,0,4.52,0.58,5.97,1.73c1.45,1.16,2.17,2.75,2.17,4.77c0,0.98-0.3,1.9-0.9,2.77
		c-0.6,0.87-1.47,1.58-2.62,2.12c1.21,0.44,2.16,1.1,2.84,1.99s1.03,1.99,1.03,3.3c0,2.03-0.78,3.66-2.34,4.88s-3.62,1.83-6.16,1.83
		c-1.49,0-2.87-0.28-4.15-0.85c-1.28-0.57-2.24-1.35-2.9-2.36c-0.66-1-0.98-2.15-0.98-3.43h5.3c0,0.7,0.28,1.3,0.84,1.81
		c0.56,0.51,1.25,0.77,2.08,0.77c0.93,0,1.67-0.26,2.22-0.77c0.55-0.52,0.83-1.17,0.83-1.98c0-1.15-0.29-1.96-0.86-2.44
		c-0.57-0.48-1.37-0.72-2.38-0.72h-2.56V274.67z"/>
	<path class="st0" d="M156.34,279.93c0,2.77-0.57,4.9-1.72,6.39c-1.15,1.49-2.76,2.23-4.84,2.23c-1.72,0-3.1-0.68-4.16-2.05
		l-0.22,1.73h-4.72v-24h5.27v8.45c0.98-1.11,2.24-1.67,3.8-1.67c2.1,0,3.73,0.76,4.88,2.27c1.15,1.51,1.72,3.64,1.72,6.38V279.93z
		 M151.06,279.6c0-1.62-0.22-2.78-0.65-3.47c-0.43-0.69-1.1-1.04-1.99-1.04c-1.19,0-2.01,0.45-2.47,1.36v6.71
		c0.45,0.89,1.28,1.34,2.5,1.34c1.24,0,2.03-0.6,2.36-1.81C150.98,282.09,151.06,281.06,151.06,279.6z"/>
	<path class="st0" d="M158.62,266.98c0-0.75,0.27-1.36,0.81-1.84c0.54-0.48,1.24-0.72,2.11-0.72c0.86,0,1.57,0.24,2.11,0.72
		c0.54,0.48,0.81,1.09,0.81,1.84s-0.27,1.37-0.81,1.84c-0.54,0.48-1.25,0.72-2.11,0.72c-0.87,0-1.57-0.24-2.11-0.72
		C158.9,268.34,158.62,267.73,158.62,266.98z M164.22,288.24h-5.28v-16.91h5.28V288.24z"/>
	<path class="st0" d="M173.02,288.24h-5.28v-24h5.28V288.24z"/>
	<path class="st0" d="M181.81,288.24h-5.28v-24h5.28V288.24z"/>
	<path class="st0" d="M185.02,266.98c0-0.75,0.27-1.36,0.81-1.84c0.54-0.48,1.24-0.72,2.11-0.72c0.86,0,1.57,0.24,2.11,0.72
		c0.54,0.48,0.81,1.09,0.81,1.84s-0.27,1.37-0.81,1.84c-0.54,0.48-1.25,0.72-2.11,0.72c-0.87,0-1.57-0.24-2.11-0.72
		C185.29,268.34,185.02,267.73,185.02,266.98z M190.61,288.24h-5.28v-16.91h5.28V288.24z"/>
	<path class="st0" d="M193.19,279.64c0-1.69,0.33-3.19,0.98-4.51c0.66-1.32,1.6-2.33,2.83-3.04c1.23-0.71,2.67-1.06,4.33-1.06
		c2.53,0,4.53,0.78,5.98,2.35c1.46,1.57,2.19,3.7,2.19,6.4v0.19c0,2.64-0.73,4.73-2.2,6.27c-1.46,1.55-3.45,2.32-5.95,2.32
		c-2.41,0-4.34-0.72-5.8-2.16c-1.46-1.44-2.25-3.4-2.36-5.87L193.19,279.64z M198.45,279.96c0,1.56,0.24,2.71,0.73,3.44
		c0.49,0.73,1.21,1.09,2.17,1.09c1.88,0,2.83-1.44,2.88-4.33v-0.53c0-3.03-0.97-4.55-2.91-4.55c-1.76,0-2.71,1.31-2.86,3.92
		L198.45,279.96z"/>
	<path class="st0" d="M216.66,271.34l0.17,1.98c1.17-1.53,2.78-2.3,4.83-2.3c1.76,0,3.08,0.53,3.95,1.58
		c0.87,1.05,1.32,2.64,1.35,4.75v10.89h-5.28v-10.67c0-0.85-0.17-1.48-0.52-1.88c-0.34-0.4-0.97-0.6-1.88-0.6
		c-1.03,0-1.8,0.41-2.3,1.22v11.94h-5.27v-16.91H216.66z"/>
	<path class="st0" d="M65.09,316.17c0-1.58,0.31-2.99,0.92-4.23s1.5-2.19,2.65-2.85s2.5-1,4.06-1c2.37,0,4.24,0.74,5.61,2.21
		s2.05,3.47,2.05,6v0.18c0,2.47-0.69,4.43-2.06,5.88c-1.37,1.45-3.23,2.18-5.57,2.18c-2.26,0-4.07-0.68-5.43-2.03
		c-1.37-1.35-2.1-3.19-2.21-5.5L65.09,316.17z M70.03,316.48c0,1.46,0.23,2.54,0.69,3.22s1.14,1.03,2.04,1.03
		c1.76,0,2.66-1.35,2.7-4.06v-0.5c0-2.84-0.91-4.26-2.72-4.26c-1.65,0-2.54,1.23-2.68,3.68L70.03,316.48z"/>
	<path class="st0" d="M83.65,324.25v-12.42h-2.3v-3.43h2.3v-1.26c0-1.81,0.53-3.21,1.6-4.2s2.56-1.49,4.48-1.49
		c0.7,0,1.47,0.1,2.31,0.31l0.01,3.63c-0.3-0.09-0.71-0.13-1.22-0.13c-1.49,0-2.24,0.64-2.24,1.93v1.22h3.09v3.43H88.6v12.42H83.65z
		"/>
	<path class="st0" d="M106.65,304.46v3.94h2.61v3.43h-2.61v7.25c0,0.6,0.11,1.01,0.32,1.25s0.64,0.35,1.27,0.35
		c0.49,0,0.9-0.03,1.23-0.09v3.53c-0.89,0.28-1.82,0.42-2.78,0.42c-1.7,0-2.95-0.4-3.76-1.2s-1.22-2.02-1.22-3.65v-7.87h-2.02v-3.43
		h2.02v-3.94H106.65z"/>
	<path class="st0" d="M110.13,316.17c0-1.58,0.31-2.99,0.92-4.23s1.5-2.19,2.65-2.85s2.5-1,4.06-1c2.37,0,4.24,0.74,5.61,2.21
		s2.05,3.47,2.05,6v0.18c0,2.47-0.69,4.43-2.06,5.88c-1.37,1.45-3.23,2.18-5.57,2.18c-2.26,0-4.07-0.68-5.43-2.03
		c-1.37-1.35-2.1-3.19-2.21-5.5L110.13,316.17z M115.07,316.48c0,1.46,0.23,2.54,0.69,3.22s1.14,1.03,2.04,1.03
		c1.76,0,2.66-1.35,2.7-4.06v-0.5c0-2.84-0.91-4.26-2.72-4.26c-1.65,0-2.54,1.23-2.68,3.68L115.07,316.48z"/>
	<path class="st0" d="M133.35,304.46v3.94h2.61v3.43h-2.61v7.25c0,0.6,0.11,1.01,0.32,1.25s0.64,0.35,1.27,0.35
		c0.49,0,0.9-0.03,1.23-0.09v3.53c-0.89,0.28-1.82,0.42-2.78,0.42c-1.7,0-2.95-0.4-3.76-1.2s-1.22-2.02-1.22-3.65v-7.87h-2.02v-3.43
		h2.02v-3.94H133.35z"/>
	<path class="st0" d="M146.83,324.25c-0.18-0.32-0.33-0.8-0.47-1.42c-0.91,1.14-2.18,1.71-3.81,1.71c-1.49,0-2.76-0.45-3.81-1.36
		c-1.04-0.9-1.57-2.04-1.57-3.41c0-1.72,0.63-3.02,1.9-3.9s3.12-1.32,5.54-1.32h1.52v-0.84c0-1.46-0.63-2.19-1.89-2.19
		c-1.17,0-1.76,0.58-1.76,1.74h-4.94c0-1.53,0.65-2.78,1.96-3.73c1.3-0.96,2.97-1.43,4.99-1.43s3.62,0.49,4.79,1.48
		s1.77,2.34,1.8,4.06v7.02c0.02,1.46,0.24,2.57,0.67,3.34v0.25H146.83z M143.74,321.02c0.62,0,1.12-0.13,1.53-0.4
		s0.7-0.56,0.87-0.89v-2.53h-1.44c-1.72,0-2.58,0.77-2.58,2.31c0,0.45,0.15,0.81,0.45,1.09
		C142.88,320.88,143.27,321.02,143.74,321.02z"/>
	<path class="st0" d="M159.03,324.25h-4.95v-22.5h4.95V324.25z"/>
	<path class="st0" d="M170.63,324.25v-12.42h-2.3v-3.43h2.3v-1.26c0-1.81,0.53-3.21,1.6-4.2s2.56-1.49,4.48-1.49
		c0.7,0,1.47,0.1,2.31,0.31l0.01,3.63c-0.3-0.09-0.71-0.13-1.22-0.13c-1.49,0-2.24,0.64-2.24,1.93v1.22h3.09v3.43h-3.09v12.42
		H170.63z"/>
	<path class="st0" d="M190,312.86l-1.63-0.12c-1.55,0-2.55,0.49-2.99,1.46v10.03h-4.94V308.4h4.63l0.16,2.04
		c0.83-1.55,1.99-2.33,3.47-2.33c0.53,0,0.99,0.06,1.38,0.18L190,312.86z"/>
	<path class="st0" d="M200.27,324.25c-0.18-0.32-0.33-0.8-0.47-1.42c-0.91,1.14-2.18,1.71-3.81,1.71c-1.49,0-2.76-0.45-3.81-1.36
		c-1.04-0.9-1.57-2.04-1.57-3.41c0-1.72,0.63-3.02,1.9-3.9s3.12-1.32,5.54-1.32h1.52v-0.84c0-1.46-0.63-2.19-1.89-2.19
		c-1.17,0-1.76,0.58-1.76,1.74h-4.94c0-1.53,0.65-2.78,1.96-3.73c1.3-0.96,2.97-1.43,4.99-1.43s3.62,0.49,4.79,1.48
		s1.77,2.34,1.8,4.06v7.02c0.02,1.46,0.24,2.57,0.67,3.34v0.25H200.27z M197.18,321.02c0.62,0,1.12-0.13,1.53-0.4
		s0.7-0.56,0.87-0.89v-2.53h-1.44c-1.72,0-2.58,0.77-2.58,2.31c0,0.45,0.15,0.81,0.45,1.09
		C196.32,320.88,196.71,321.02,197.18,321.02z"/>
	<path class="st0" d="M216.7,322.53c-1.04,1.34-2.46,2.01-4.23,2.01c-1.74,0-3.05-0.51-3.95-1.52c-0.89-1.01-1.34-2.46-1.34-4.36
		V308.4h4.94v10.3c0,1.36,0.66,2.04,1.98,2.04c1.13,0,1.94-0.41,2.42-1.22V308.4h4.97v15.85h-4.63L216.7,322.53z"/>
	<path class="st0" d="M223.56,316.2c0-2.51,0.54-4.49,1.63-5.93s2.6-2.17,4.54-2.17c1.42,0,2.61,0.56,3.57,1.67v-8.03h4.95v22.5
		h-4.44l-0.25-1.7c-1.02,1.33-2.3,1.99-3.87,1.99c-1.88,0-3.38-0.72-4.48-2.17S223.56,318.87,223.56,316.2z M228.49,316.51
		c0,2.81,0.82,4.22,2.46,4.22c1.09,0,1.88-0.46,2.34-1.38v-6.04c-0.45-0.94-1.22-1.41-2.31-1.41c-1.52,0-2.35,1.23-2.48,3.69
		L228.49,316.51z"/>
	<path class="st0" d="M55.5,360.25h-4.95v-22.5h4.95V360.25z"/>
	<path class="st0" d="M57.91,352.17c0-1.58,0.31-2.99,0.92-4.23s1.5-2.19,2.65-2.85s2.5-1,4.06-1c2.37,0,4.24,0.74,5.61,2.21
		s2.05,3.47,2.05,6v0.18c0,2.47-0.69,4.43-2.06,5.88c-1.37,1.45-3.23,2.18-5.57,2.18c-2.26,0-4.07-0.68-5.43-2.03
		c-1.37-1.35-2.1-3.19-2.21-5.5L57.91,352.17z M62.85,352.48c0,1.46,0.23,2.54,0.69,3.22s1.14,1.03,2.04,1.03
		c1.76,0,2.66-1.35,2.7-4.06v-0.5c0-2.84-0.91-4.26-2.72-4.26c-1.65,0-2.54,1.23-2.68,3.68L62.85,352.48z"/>
	<path class="st0" d="M83.68,355.79c0-0.42-0.22-0.76-0.66-1.01s-1.27-0.52-2.5-0.79s-2.25-0.63-3.05-1.08
		c-0.8-0.44-1.41-0.98-1.83-1.62s-0.63-1.36-0.63-2.18c0-1.46,0.6-2.65,1.8-3.6s2.77-1.41,4.72-1.41c2.09,0,3.77,0.47,5.04,1.42
		s1.9,2.19,1.9,3.74h-4.95c0-1.27-0.67-1.9-2.01-1.9c-0.52,0-0.95,0.14-1.3,0.43c-0.35,0.29-0.53,0.65-0.53,1.08
		c0,0.44,0.21,0.8,0.64,1.07s1.12,0.5,2.06,0.67c0.94,0.18,1.77,0.39,2.48,0.63c2.38,0.82,3.57,2.29,3.57,4.41
		c0,1.45-0.64,2.62-1.93,3.53c-1.29,0.91-2.95,1.36-4.99,1.36c-1.36,0-2.57-0.24-3.63-0.73s-1.89-1.15-2.49-1.99
		s-0.89-1.72-0.89-2.65h4.61c0.02,0.73,0.26,1.27,0.73,1.6c0.47,0.34,1.07,0.5,1.8,0.5c0.67,0,1.18-0.14,1.52-0.41
		C83.51,356.59,83.68,356.23,83.68,355.79z"/>
	<path class="st0" d="M99.05,355.79c0-0.42-0.22-0.76-0.66-1.01s-1.27-0.52-2.5-0.79s-2.25-0.63-3.05-1.08
		c-0.8-0.44-1.41-0.98-1.83-1.62s-0.63-1.36-0.63-2.18c0-1.46,0.6-2.65,1.8-3.6s2.77-1.41,4.72-1.41c2.09,0,3.77,0.47,5.04,1.42
		s1.9,2.19,1.9,3.74h-4.95c0-1.27-0.67-1.9-2.01-1.9c-0.52,0-0.95,0.14-1.3,0.43c-0.35,0.29-0.53,0.65-0.53,1.08
		c0,0.44,0.21,0.8,0.64,1.07s1.12,0.5,2.06,0.67c0.94,0.18,1.77,0.39,2.48,0.63c2.38,0.82,3.57,2.29,3.57,4.41
		c0,1.45-0.64,2.62-1.93,3.53c-1.29,0.91-2.95,1.36-4.99,1.36c-1.36,0-2.57-0.24-3.63-0.73s-1.89-1.15-2.49-1.99
		s-0.89-1.72-0.89-2.65h4.61c0.02,0.73,0.26,1.27,0.73,1.6c0.47,0.34,1.07,0.5,1.8,0.5c0.67,0,1.18-0.14,1.52-0.41
		C98.88,356.59,99.05,356.23,99.05,355.79z"/>
	<path class="st0" d="M113.78,360.54c-2.43,0-4.4-0.72-5.9-2.18c-1.5-1.45-2.26-3.34-2.26-5.66v-0.41c0-1.62,0.3-3.05,0.9-4.29
		c0.6-1.24,1.48-2.2,2.63-2.88c1.15-0.68,2.52-1.02,4.1-1.02c2.23,0,3.98,0.69,5.27,2.07c1.29,1.38,1.93,3.31,1.93,5.78v1.92h-9.81
		c0.18,0.89,0.56,1.59,1.16,2.09s1.37,0.76,2.31,0.76c1.56,0,2.78-0.55,3.66-1.64l2.26,2.67c-0.62,0.85-1.49,1.53-2.61,2.03
		C116.29,360.29,115.08,360.54,113.78,360.54z M113.23,347.91c-1.45,0-2.3,0.96-2.58,2.87h4.98v-0.38c0.02-0.79-0.18-1.4-0.6-1.84
		S114.01,347.91,113.23,347.91z"/>
	<path class="st0" d="M130.75,355.79c0-0.42-0.22-0.76-0.66-1.01s-1.27-0.52-2.5-0.79s-2.25-0.63-3.05-1.08
		c-0.8-0.44-1.41-0.98-1.83-1.62s-0.63-1.36-0.63-2.18c0-1.46,0.6-2.65,1.8-3.6s2.77-1.41,4.72-1.41c2.09,0,3.77,0.47,5.04,1.42
		s1.9,2.19,1.9,3.74h-4.95c0-1.27-0.67-1.9-2.01-1.9c-0.52,0-0.95,0.14-1.3,0.43c-0.35,0.29-0.53,0.65-0.53,1.08
		c0,0.44,0.21,0.8,0.64,1.07s1.12,0.5,2.06,0.67c0.94,0.18,1.77,0.39,2.48,0.63c2.38,0.82,3.57,2.29,3.57,4.41
		c0,1.45-0.64,2.62-1.93,3.53c-1.29,0.91-2.95,1.36-4.99,1.36c-1.36,0-2.57-0.24-3.63-0.73s-1.89-1.15-2.49-1.99
		s-0.89-1.72-0.89-2.65h4.61c0.02,0.73,0.26,1.27,0.73,1.6c0.47,0.34,1.07,0.5,1.8,0.5c0.67,0,1.18-0.14,1.52-0.41
		C130.58,356.59,130.75,356.23,130.75,355.79z"/>
	<path class="st0" d="M145.25,340.31c0-0.7,0.25-1.28,0.76-1.73s1.17-0.67,1.98-0.67s1.47,0.22,1.98,0.67s0.76,1.03,0.76,1.73
		s-0.25,1.28-0.76,1.73s-1.17,0.67-1.98,0.67s-1.47-0.22-1.98-0.67S145.25,341.01,145.25,340.31z M150.49,360.25h-4.95V344.4h4.95
		V360.25z"/>
	<path class="st0" d="M158.06,344.4l0.16,1.86c1.09-1.44,2.6-2.15,4.53-2.15c1.65,0,2.88,0.49,3.7,1.48
		c0.81,0.99,1.24,2.47,1.27,4.45v10.21h-4.95v-10c0-0.8-0.16-1.39-0.48-1.76s-0.91-0.56-1.76-0.56c-0.97,0-1.68,0.38-2.15,1.14
		v11.19h-4.94V344.4H158.06z"/>
	<path class="st0" d="M192.72,360.25h-14.88v-3.22l6.86-7.21c1.69-1.92,2.53-3.45,2.53-4.58c0-0.92-0.2-1.62-0.6-2.09
		s-0.98-0.72-1.74-0.72c-0.75,0-1.36,0.32-1.83,0.96s-0.7,1.44-0.7,2.39h-4.95c0-1.31,0.33-2.52,0.98-3.62s1.56-1.98,2.72-2.6
		s2.46-0.94,3.9-0.94c2.3,0,4.08,0.53,5.32,1.6c1.25,1.06,1.87,2.59,1.87,4.58c0,0.84-0.16,1.66-0.47,2.45s-0.8,1.63-1.46,2.5
		c-0.66,0.88-1.72,2.04-3.19,3.51l-2.75,3.18h8.39V360.25z"/>
	<path class="st0" d="M210.02,351.53c0,2.88-0.65,5.1-1.94,6.67s-3.12,2.34-5.47,2.34c-2.37,0-4.21-0.79-5.51-2.36
		s-1.95-3.79-1.95-6.65v-3.9c0-2.88,0.65-5.1,1.94-6.67s3.12-2.34,5.49-2.34s4.19,0.79,5.49,2.36s1.95,3.79,1.95,6.67V351.53z
		 M205.09,347c0-1.53-0.2-2.68-0.6-3.44c-0.4-0.76-1.04-1.13-1.9-1.13c-0.85,0-1.47,0.35-1.85,1.05s-0.59,1.77-0.62,3.19v5.45
		c0,1.59,0.2,2.76,0.6,3.49s1.04,1.11,1.9,1.11c0.84,0,1.46-0.36,1.86-1.08c0.4-0.72,0.61-1.84,0.62-3.38V347z"/>
	<path class="st0" d="M227.47,360.25h-14.88v-3.22l6.86-7.21c1.69-1.92,2.53-3.45,2.53-4.58c0-0.92-0.2-1.62-0.6-2.09
		s-0.98-0.72-1.74-0.72c-0.75,0-1.36,0.32-1.83,0.96s-0.7,1.44-0.7,2.39h-4.95c0-1.31,0.33-2.52,0.98-3.62s1.56-1.98,2.72-2.6
		s2.46-0.94,3.9-0.94c2.3,0,4.08,0.53,5.32,1.6c1.25,1.06,1.87,2.59,1.87,4.58c0,0.84-0.16,1.66-0.47,2.45s-0.8,1.63-1.46,2.5
		c-0.66,0.88-1.72,2.04-3.19,3.51l-2.75,3.18h8.39V360.25z"/>
	<path class="st0" d="M244.77,351.53c0,2.88-0.65,5.1-1.94,6.67s-3.12,2.34-5.47,2.34c-2.37,0-4.21-0.79-5.51-2.36
		s-1.95-3.79-1.95-6.65v-3.9c0-2.88,0.65-5.1,1.94-6.67s3.12-2.34,5.49-2.34s4.19,0.79,5.49,2.36s1.95,3.79,1.95,6.67V351.53z
		 M239.83,347c0-1.53-0.2-2.68-0.6-3.44c-0.4-0.76-1.04-1.13-1.9-1.13c-0.85,0-1.47,0.35-1.85,1.05s-0.59,1.77-0.62,3.19v5.45
		c0,1.59,0.2,2.76,0.6,3.49s1.04,1.11,1.9,1.11c0.84,0,1.46-0.36,1.86-1.08c0.4-0.72,0.61-1.84,0.62-3.38V347z"/>
	<path class="st0" d="M250.47,355.46c0.78,0,1.43,0.23,1.95,0.7s0.78,1.06,0.78,1.78s-0.26,1.32-0.78,1.78
		c-0.52,0.46-1.17,0.7-1.95,0.7c-0.79,0-1.44-0.23-1.96-0.7c-0.51-0.47-0.77-1.06-0.77-1.77s0.26-1.3,0.77-1.77
		C249.02,355.69,249.68,355.46,250.47,355.46z"/>
</g>
</svg>
