<?xml version="1.0" encoding="utf-8"?>
<!-- Generator: Adobe Illustrator 25.3.1, SVG Export Plug-In . SVG Version: 6.00 Build 0)  -->
<svg version="1.1" id="Layer_1" xmlns="http://www.w3.org/2000/svg" xmlns:xlink="http://www.w3.org/1999/xlink" x="0px" y="0px"
	 viewBox="0 0 300 600" style="enable-background:new 0 0 300 600;" xml:space="preserve">
<style type="text/css">
	.st0{fill:#021D8B;stroke:url(#SVGID_1_);stroke-width:2;stroke-miterlimit:10;}
	.st1{fill:#FFFFFF;}
</style>
<linearGradient id="SVGID_1_" gradientUnits="userSpaceOnUse" x1="50.827" y1="306.4638" x2="255.4621" y2="306.4638">
	<stop  offset="0" style="stop-color:#18B9FB"/>
	<stop  offset="0.5" style="stop-color:#782EEB"/>
	<stop  offset="1" style="stop-color:#E82D8A"/>
</linearGradient>
<path class="st0" d="M237.66,356.98H68.63c-9.28,0-16.8-7.52-16.8-16.8v-67.42c0-9.28,7.52-16.8,16.8-16.8h169.03
	c9.28,0,16.8,7.52,16.8,16.8v67.42C254.46,349.45,246.94,356.98,237.66,356.98z"/>
<g>
	<path class="st1" d="M64.14,295.88h6.84v2.59H60.91v-15.64h3.22V295.88z"/>
	<path class="st1" d="M77.97,298.69c-1.7,0-3.09-0.52-4.16-1.57c-1.07-1.05-1.61-2.44-1.61-4.18v-0.3c0-1.17,0.23-2.21,0.68-3.13
		c0.45-0.92,1.09-1.63,1.92-2.13c0.83-0.5,1.77-0.75,2.83-0.75c1.59,0,2.84,0.5,3.75,1.5c0.91,1,1.37,2.42,1.37,4.26v1.27h-7.4
		c0.1,0.76,0.4,1.37,0.91,1.83c0.51,0.46,1.14,0.69,1.92,0.69c1.2,0,2.13-0.43,2.8-1.3l1.53,1.71c-0.47,0.66-1.1,1.17-1.89,1.54
		C79.82,298.5,78.94,298.69,77.97,298.69z M77.62,289.14c-0.62,0-1.12,0.21-1.5,0.63c-0.38,0.42-0.63,1.01-0.74,1.79h4.32v-0.25
		c-0.01-0.69-0.2-1.22-0.56-1.6S78.28,289.14,77.62,289.14z"/>
	<path class="st1" d="M91.25,298.47c-0.14-0.28-0.25-0.63-0.31-1.04c-0.75,0.84-1.73,1.26-2.93,1.26c-1.14,0-2.08-0.33-2.83-0.99
		c-0.75-0.66-1.12-1.49-1.12-2.49c0-1.23,0.46-2.18,1.37-2.84c0.91-0.66,2.23-0.99,3.96-1h1.43v-0.67c0-0.54-0.14-0.97-0.41-1.29
		c-0.28-0.32-0.71-0.48-1.31-0.48c-0.52,0-0.93,0.12-1.23,0.38c-0.3,0.25-0.45,0.59-0.45,1.03h-3.1c0-0.67,0.21-1.3,0.62-1.87
		s1-1.02,1.76-1.35c0.76-0.33,1.61-0.49,2.56-0.49c1.43,0,2.57,0.36,3.41,1.08c0.84,0.72,1.26,1.73,1.26,3.03v5.04
		c0.01,1.1,0.16,1.94,0.46,2.5v0.18H91.25z M88.68,296.31c0.46,0,0.88-0.1,1.27-0.31c0.39-0.21,0.67-0.48,0.86-0.82v-2h-1.16
		c-1.55,0-2.38,0.54-2.48,1.61l-0.01,0.18c0,0.39,0.14,0.71,0.41,0.96S88.21,296.31,88.68,296.31z"/>
	<path class="st1" d="M102.84,289.76c-0.42-0.06-0.79-0.09-1.12-0.09c-1.17,0-1.94,0.4-2.31,1.19v7.61h-3.1v-11.62h2.93l0.09,1.39
		c0.62-1.07,1.49-1.6,2.59-1.6c0.34,0,0.67,0.05,0.97,0.14L102.84,289.76z"/>
	<path class="st1" d="M107.19,286.85l0.1,1.34c0.83-1.04,1.94-1.56,3.34-1.56c1.23,0,2.15,0.36,2.75,1.08s0.91,1.8,0.92,3.24v7.51
		h-3.1v-7.43c0-0.66-0.14-1.14-0.43-1.43c-0.29-0.3-0.76-0.45-1.43-0.45c-0.87,0-1.53,0.37-1.97,1.12v8.2h-3.1v-11.62H107.19z"/>
	<path class="st1" d="M135.07,298.47h-3.22v-6.7h-6.28v6.7h-3.22v-15.64h3.22v6.34h6.28v-6.34h3.22V298.47z"/>
	<path class="st1" d="M137.19,292.55c0-1.15,0.22-2.18,0.67-3.08s1.08-1.6,1.92-2.09c0.83-0.49,1.8-0.74,2.91-0.74
		c1.57,0,2.85,0.48,3.84,1.44c0.99,0.96,1.54,2.26,1.66,3.91l0.02,0.79c0,1.78-0.5,3.21-1.49,4.29c-1,1.08-2.33,1.62-4.01,1.62
		s-3.01-0.54-4.01-1.61c-1-1.07-1.5-2.54-1.5-4.38V292.55z M140.3,292.77c0,1.1,0.21,1.95,0.62,2.53c0.42,0.58,1.01,0.88,1.78,0.88
		c0.75,0,1.34-0.29,1.76-0.87s0.63-1.5,0.63-2.77c0-1.08-0.21-1.92-0.63-2.52c-0.42-0.59-1.02-0.89-1.78-0.89
		c-0.76,0-1.35,0.3-1.76,0.89S140.3,291.53,140.3,292.77z"/>
	<path class="st1" d="M160.23,294.25l1.53-7.4h3l-2.96,11.62h-2.6l-2.2-7.32l-2.2,7.32h-2.59l-2.96-11.62h3l1.51,7.39l2.13-7.39
		h2.25L160.23,294.25z"/>
	<path class="st1" d="M183.1,285.44h-4.79v13.03h-3.22v-13.03h-4.73v-2.61h12.74V285.44z"/>
	<path class="st1" d="M182.01,292.55c0-1.15,0.22-2.18,0.67-3.08s1.08-1.6,1.92-2.09c0.83-0.49,1.8-0.74,2.91-0.74
		c1.57,0,2.85,0.48,3.84,1.44c0.99,0.96,1.54,2.26,1.66,3.91l0.02,0.79c0,1.78-0.5,3.21-1.49,4.29c-1,1.08-2.33,1.62-4.01,1.62
		s-3.01-0.54-4.01-1.61c-1-1.07-1.5-2.54-1.5-4.38V292.55z M185.12,292.77c0,1.1,0.21,1.95,0.62,2.53c0.42,0.58,1.01,0.88,1.78,0.88
		c0.75,0,1.34-0.29,1.76-0.87s0.63-1.5,0.63-2.77c0-1.08-0.21-1.92-0.63-2.52c-0.42-0.59-1.02-0.89-1.78-0.89
		c-0.76,0-1.35,0.3-1.76,0.89S185.12,291.53,185.12,292.77z"/>
	<path class="st1" d="M213.35,298.47h-3.22v-6.7h-6.28v6.7h-3.22v-15.64h3.22v6.34h6.28v-6.34h3.22V298.47z"/>
	<path class="st1" d="M221.31,298.69c-1.7,0-3.09-0.52-4.16-1.57c-1.07-1.05-1.61-2.44-1.61-4.18v-0.3c0-1.17,0.23-2.21,0.68-3.13
		c0.45-0.92,1.09-1.63,1.92-2.13c0.83-0.5,1.77-0.75,2.83-0.75c1.59,0,2.84,0.5,3.75,1.5c0.91,1,1.37,2.42,1.37,4.26v1.27h-7.4
		c0.1,0.76,0.4,1.37,0.91,1.83c0.51,0.46,1.14,0.69,1.92,0.69c1.2,0,2.13-0.43,2.8-1.3l1.53,1.71c-0.47,0.66-1.1,1.17-1.89,1.54
		C223.15,298.5,222.27,298.69,221.31,298.69z M220.95,289.14c-0.62,0-1.12,0.21-1.5,0.63c-0.38,0.42-0.63,1.01-0.74,1.79h4.32v-0.25
		c-0.01-0.69-0.2-1.22-0.56-1.6S221.61,289.14,220.95,289.14z"/>
	<path class="st1" d="M231.12,298.47h-3.12v-16.5h3.12V298.47z"/>
	<path class="st1" d="M244.14,292.77c0,1.79-0.41,3.22-1.22,4.3c-0.81,1.08-1.91,1.62-3.29,1.62c-1.17,0-2.12-0.41-2.85-1.22v5.48
		h-3.1v-16.09h2.88l0.11,1.14c0.75-0.9,1.73-1.35,2.94-1.35c1.43,0,2.55,0.53,3.34,1.59s1.19,2.52,1.19,4.38V292.77z M241.04,292.54
		c0-1.08-0.19-1.92-0.57-2.5c-0.38-0.59-0.94-0.88-1.67-0.88c-0.97,0-1.64,0.37-2.01,1.12v4.76c0.38,0.77,1.06,1.15,2.03,1.15
		C240.3,296.18,241.04,294.97,241.04,292.54z"/>
	<path class="st1" d="M76.53,324.51v5.51h-3.22v-15.64h6.1c1.17,0,2.21,0.21,3.1,0.64c0.89,0.43,1.58,1.04,2.06,1.83
		c0.48,0.79,0.72,1.69,0.72,2.7c0,1.53-0.52,2.74-1.57,3.62c-1.05,0.88-2.5,1.33-4.36,1.33H76.53z M76.53,321.9h2.88
		c0.85,0,1.5-0.2,1.95-0.6c0.45-0.4,0.67-0.97,0.67-1.72c0-0.77-0.23-1.39-0.68-1.86s-1.07-0.72-1.87-0.73h-2.95V321.9z"/>
	<path class="st1" d="M93.82,321.3c-0.42-0.06-0.79-0.09-1.12-0.09c-1.17,0-1.94,0.4-2.31,1.19v7.61h-3.1v-11.62h2.93l0.09,1.39
		c0.62-1.07,1.49-1.6,2.59-1.6c0.34,0,0.67,0.05,0.97,0.14L93.82,321.3z"/>
	<path class="st1" d="M94.45,324.1c0-1.15,0.22-2.18,0.67-3.08s1.08-1.6,1.92-2.09c0.83-0.49,1.8-0.74,2.91-0.74
		c1.57,0,2.85,0.48,3.84,1.44c0.99,0.96,1.54,2.26,1.66,3.91l0.02,0.79c0,1.78-0.5,3.21-1.49,4.29c-1,1.08-2.33,1.62-4.01,1.62
		s-3.01-0.54-4.01-1.61c-1-1.07-1.5-2.54-1.5-4.38V324.1z M97.55,324.32c0,1.1,0.21,1.95,0.62,2.53c0.42,0.58,1.01,0.88,1.78,0.88
		c0.75,0,1.34-0.29,1.76-0.87s0.63-1.5,0.63-2.77c0-1.08-0.21-1.92-0.63-2.52c-0.42-0.59-1.02-0.89-1.78-0.89
		c-0.76,0-1.35,0.3-1.76,0.89S97.55,323.08,97.55,324.32z"/>
	<path class="st1" d="M111.09,315.54v2.86h1.99v2.28h-1.99v5.8c0,0.43,0.08,0.74,0.25,0.92s0.48,0.28,0.95,0.28
		c0.34,0,0.65-0.03,0.91-0.08v2.35c-0.61,0.19-1.24,0.28-1.88,0.28c-2.18,0-3.29-1.1-3.33-3.3v-6.26h-1.7v-2.28h1.7v-2.86H111.09z"
		/>
	<path class="st1" d="M120.15,330.23c-1.7,0-3.09-0.52-4.16-1.57c-1.07-1.05-1.61-2.44-1.61-4.18v-0.3c0-1.17,0.23-2.21,0.68-3.13
		c0.45-0.92,1.09-1.63,1.92-2.13c0.83-0.5,1.77-0.75,2.83-0.75c1.59,0,2.84,0.5,3.75,1.5c0.91,1,1.37,2.42,1.37,4.26v1.27h-7.4
		c0.1,0.76,0.4,1.37,0.91,1.83c0.51,0.46,1.14,0.69,1.92,0.69c1.2,0,2.13-0.43,2.8-1.3l1.53,1.71c-0.47,0.66-1.1,1.17-1.89,1.54
		C122,330.05,121.12,330.23,120.15,330.23z M119.8,320.68c-0.62,0-1.12,0.21-1.5,0.63c-0.38,0.42-0.63,1.01-0.74,1.79h4.32v-0.25
		c-0.01-0.69-0.2-1.22-0.56-1.6S120.46,320.68,119.8,320.68z"/>
	<path class="st1" d="M131.53,327.73c0.57,0,1.04-0.16,1.4-0.47s0.54-0.73,0.56-1.26h2.91c-0.01,0.79-0.22,1.51-0.64,2.16
		c-0.42,0.66-1,1.16-1.73,1.53c-0.73,0.36-1.55,0.54-2.43,0.54c-1.66,0-2.97-0.53-3.93-1.58c-0.96-1.06-1.44-2.52-1.44-4.38v-0.2
		c0-1.79,0.48-3.22,1.43-4.29s2.26-1.6,3.92-1.6c1.45,0,2.62,0.41,3.5,1.24c0.88,0.83,1.32,1.93,1.34,3.3h-2.91
		c-0.01-0.6-0.2-1.1-0.56-1.47s-0.83-0.57-1.42-0.57c-0.72,0-1.27,0.26-1.64,0.79c-0.37,0.53-0.55,1.38-0.55,2.57v0.32
		c0,1.2,0.18,2.06,0.55,2.58S130.78,327.73,131.53,327.73z"/>
	<path class="st1" d="M141.88,315.54v2.86h1.99v2.28h-1.99v5.8c0,0.43,0.08,0.74,0.25,0.92s0.48,0.28,0.95,0.28
		c0.34,0,0.65-0.03,0.91-0.08v2.35c-0.61,0.19-1.24,0.28-1.88,0.28c-2.18,0-3.29-1.1-3.33-3.3v-6.26h-1.7v-2.28h1.7v-2.86H141.88z"
		/>
	<path class="st1" d="M156.68,321.42l3.25-7.05h3.52l-5.13,9.97v5.67h-3.28v-5.67l-5.13-9.97h3.53L156.68,321.42z"/>
	<path class="st1" d="M163.5,324.1c0-1.15,0.22-2.18,0.67-3.08s1.08-1.6,1.92-2.09c0.83-0.49,1.8-0.74,2.91-0.74
		c1.57,0,2.85,0.48,3.84,1.44c0.99,0.96,1.54,2.26,1.66,3.91l0.02,0.79c0,1.78-0.5,3.21-1.49,4.29c-1,1.08-2.33,1.62-4.01,1.62
		s-3.01-0.54-4.01-1.61c-1-1.07-1.5-2.54-1.5-4.38V324.1z M166.6,324.32c0,1.1,0.21,1.95,0.62,2.53c0.42,0.58,1.01,0.88,1.78,0.88
		c0.75,0,1.34-0.29,1.76-0.87s0.63-1.5,0.63-2.77c0-1.08-0.21-1.92-0.63-2.52c-0.42-0.59-1.02-0.89-1.78-0.89
		c-0.76,0-1.35,0.3-1.76,0.89S166.6,323.08,166.6,324.32z"/>
	<path class="st1" d="M183.38,328.83c-0.77,0.93-1.83,1.4-3.18,1.4c-1.25,0-2.2-0.36-2.85-1.07c-0.65-0.72-0.99-1.77-1-3.15v-7.62
		h3.1v7.52c0,1.21,0.55,1.82,1.65,1.82c1.05,0,1.78-0.37,2.17-1.1v-8.24h3.12v11.62h-2.92L183.38,328.83z"/>
	<path class="st1" d="M195.26,321.3c-0.42-0.06-0.79-0.09-1.12-0.09c-1.17,0-1.94,0.4-2.31,1.19v7.61h-3.1v-11.62h2.93l0.09,1.39
		c0.62-1.07,1.49-1.6,2.59-1.6c0.34,0,0.67,0.05,0.97,0.14L195.26,321.3z"/>
	<path class="st1" d="M203.05,326.8c0-0.38-0.19-0.68-0.56-0.9c-0.38-0.22-0.98-0.41-1.81-0.58c-2.76-0.58-4.15-1.75-4.15-3.52
		c0-1.03,0.43-1.89,1.28-2.58c0.86-0.69,1.98-1.04,3.36-1.04c1.48,0,2.66,0.35,3.54,1.04c0.88,0.69,1.33,1.6,1.33,2.71h-3.1
		c0-0.44-0.14-0.81-0.43-1.1c-0.29-0.29-0.73-0.44-1.34-0.44c-0.52,0-0.93,0.12-1.21,0.35s-0.43,0.54-0.43,0.9
		c0,0.34,0.16,0.62,0.49,0.83c0.33,0.21,0.88,0.39,1.65,0.55c0.77,0.15,1.42,0.33,1.96,0.52c1.64,0.6,2.46,1.64,2.46,3.13
		c0,1.06-0.46,1.92-1.36,2.57c-0.91,0.65-2.08,0.98-3.52,0.98c-0.97,0-1.84-0.17-2.59-0.52c-0.75-0.35-1.35-0.82-1.78-1.43
		c-0.43-0.61-0.64-1.26-0.64-1.96h2.94c0.03,0.55,0.23,0.97,0.61,1.27s0.89,0.44,1.53,0.44c0.59,0,1.04-0.11,1.35-0.34
		C202.9,327.47,203.05,327.17,203.05,326.8z"/>
	<path class="st1" d="M213.42,330.23c-1.7,0-3.09-0.52-4.16-1.57c-1.07-1.05-1.61-2.44-1.61-4.18v-0.3c0-1.17,0.23-2.21,0.68-3.13
		c0.45-0.92,1.09-1.63,1.92-2.13c0.83-0.5,1.77-0.75,2.83-0.75c1.59,0,2.84,0.5,3.75,1.5c0.91,1,1.37,2.42,1.37,4.26v1.27h-7.4
		c0.1,0.76,0.4,1.37,0.91,1.83c0.51,0.46,1.14,0.69,1.92,0.69c1.2,0,2.13-0.43,2.8-1.3l1.53,1.71c-0.47,0.66-1.1,1.17-1.89,1.54
		C215.26,330.05,214.38,330.23,213.42,330.23z M213.06,320.68c-0.62,0-1.12,0.21-1.5,0.63c-0.38,0.42-0.63,1.01-0.74,1.79h4.32
		v-0.25c-0.01-0.69-0.2-1.22-0.56-1.6S213.72,320.68,213.06,320.68z"/>
	<path class="st1" d="M223.23,330.02h-3.12v-16.5h3.12V330.02z"/>
	<path class="st1" d="M226.64,330.02v-9.35h-1.73v-2.28h1.73v-0.99c0-1.3,0.37-2.31,1.12-3.04c0.75-0.72,1.79-1.08,3.14-1.08
		c0.43,0,0.96,0.07,1.58,0.21l-0.03,2.41c-0.26-0.06-0.57-0.1-0.95-0.1c-1.17,0-1.75,0.55-1.75,1.64v0.93h2.31v2.28h-2.31v9.35
		H226.64z"/>
</g>
</svg>
