<?xml version="1.0" encoding="utf-8"?>
<!-- Generator: Adobe Illustrator 25.3.1, SVG Export Plug-In . SVG Version: 6.00 Build 0)  -->
<svg version="1.1" id="Layer_1" xmlns="http://www.w3.org/2000/svg" xmlns:xlink="http://www.w3.org/1999/xlink" x="0px" y="0px"
	 viewBox="0 0 300 600" style="enable-background:new 0 0 300 600;" xml:space="preserve">
<style type="text/css">
	.st0{fill:#FFFFFF;}
</style>
<g>
	<path class="st0" d="M63.03,403.55H59.3v-0.52l1.97-2.19c0.29-0.33,0.49-0.6,0.6-0.81s0.17-0.42,0.17-0.64
		c0-0.3-0.09-0.54-0.27-0.73c-0.18-0.19-0.42-0.29-0.72-0.29c-0.36,0-0.64,0.1-0.84,0.31c-0.2,0.2-0.3,0.49-0.3,0.85h-0.72
		c0-0.52,0.17-0.95,0.51-1.27c0.34-0.32,0.79-0.48,1.35-0.48c0.53,0,0.95,0.14,1.25,0.42s0.46,0.65,0.46,1.11
		c0,0.56-0.36,1.23-1.07,2l-1.52,1.65h2.86V403.55z"/>
	<path class="st0" d="M67.36,401.13c0,0.85-0.14,1.47-0.43,1.89c-0.29,0.41-0.74,0.62-1.36,0.62c-0.61,0-1.06-0.2-1.35-0.6
		s-0.44-1-0.45-1.8v-0.96c0-0.84,0.14-1.46,0.43-1.86s0.74-0.61,1.36-0.61c0.61,0,1.06,0.2,1.35,0.59c0.29,0.39,0.44,1,0.45,1.81
		V401.13z M66.64,400.14c0-0.61-0.09-1.06-0.26-1.34c-0.17-0.28-0.44-0.42-0.82-0.42c-0.37,0-0.64,0.14-0.81,0.42
		c-0.17,0.28-0.26,0.71-0.26,1.29v1.16c0,0.61,0.09,1.07,0.27,1.36s0.45,0.44,0.81,0.44c0.36,0,0.62-0.14,0.79-0.41
		c0.17-0.28,0.26-0.71,0.27-1.3V400.14z"/>
	<path class="st0" d="M72.01,403.55h-3.73v-0.52l1.97-2.19c0.29-0.33,0.49-0.6,0.6-0.81s0.17-0.42,0.17-0.64
		c0-0.3-0.09-0.54-0.27-0.73c-0.18-0.19-0.42-0.29-0.72-0.29c-0.36,0-0.64,0.1-0.84,0.31c-0.2,0.2-0.3,0.49-0.3,0.85h-0.72
		c0-0.52,0.17-0.95,0.51-1.27c0.34-0.32,0.79-0.48,1.35-0.48c0.53,0,0.95,0.14,1.25,0.42s0.46,0.65,0.46,1.11
		c0,0.56-0.36,1.23-1.07,2l-1.52,1.65h2.86V403.55z"/>
	<path class="st0" d="M75.15,403.55h-0.73v-4.82l-1.46,0.54v-0.66l2.07-0.78h0.11V403.55z"/>
	<path class="st0" d="M80.24,403.55h-0.75v-5.69h0.75V403.55z"/>
	<path class="st0" d="M81.32,401.41c0-0.65,0.15-1.17,0.46-1.56s0.71-0.59,1.21-0.59c0.5,0,0.89,0.17,1.18,0.51v-2.2h0.72v6h-0.66
		l-0.04-0.45c-0.29,0.35-0.69,0.53-1.21,0.53c-0.49,0-0.89-0.2-1.2-0.6c-0.31-0.4-0.46-0.92-0.46-1.57V401.41z M82.05,401.49
		c0,0.48,0.1,0.85,0.3,1.12c0.2,0.27,0.47,0.41,0.82,0.41c0.46,0,0.79-0.21,1-0.62v-1.94c-0.22-0.4-0.55-0.6-1-0.6
		c-0.35,0-0.63,0.14-0.83,0.41S82.05,400.95,82.05,401.49z"/>
	<path class="st0" d="M87.77,403.63c-0.57,0-1.04-0.19-1.4-0.56c-0.36-0.38-0.54-0.88-0.54-1.51v-0.13c0-0.42,0.08-0.79,0.24-1.12
		c0.16-0.33,0.38-0.59,0.67-0.77c0.29-0.19,0.6-0.28,0.94-0.28c0.55,0,0.98,0.18,1.28,0.54c0.3,0.36,0.46,0.88,0.46,1.55v0.3h-2.86
		c0.01,0.42,0.13,0.75,0.37,1.01c0.23,0.26,0.53,0.38,0.89,0.38c0.25,0,0.47-0.05,0.65-0.16c0.18-0.1,0.33-0.24,0.46-0.41l0.44,0.34
		C89.01,403.36,88.47,403.63,87.77,403.63z M87.68,399.84c-0.29,0-0.54,0.11-0.73,0.32c-0.2,0.21-0.32,0.51-0.37,0.89h2.12V401
		c-0.02-0.37-0.12-0.65-0.3-0.85C88.22,399.94,87.98,399.84,87.68,399.84z"/>
	<path class="st0" d="M90.93,399.33l0.02,0.53c0.32-0.41,0.75-0.61,1.27-0.61c0.89,0,1.34,0.5,1.35,1.51v2.79h-0.72v-2.8
		c0-0.3-0.07-0.53-0.21-0.68c-0.14-0.15-0.35-0.22-0.64-0.22c-0.23,0-0.44,0.06-0.62,0.19s-0.32,0.29-0.41,0.49v3.01h-0.72v-4.23
		H90.93z"/>
	<path class="st0" d="M95.65,398.3v1.02h0.79v0.56h-0.79v2.62c0,0.17,0.04,0.3,0.11,0.38c0.07,0.08,0.19,0.13,0.36,0.13
		c0.08,0,0.2-0.02,0.34-0.05v0.58c-0.19,0.05-0.38,0.08-0.55,0.08c-0.32,0-0.57-0.1-0.73-0.29s-0.25-0.47-0.25-0.83v-2.62h-0.77
		v-0.56h0.77v-1.02H95.65z"/>
	<path class="st0" d="M97.28,398.21c0-0.12,0.04-0.22,0.11-0.3c0.07-0.08,0.18-0.12,0.32-0.12s0.25,0.04,0.32,0.12
		c0.07,0.08,0.11,0.18,0.11,0.3s-0.04,0.21-0.11,0.29s-0.18,0.12-0.32,0.12s-0.25-0.04-0.32-0.12S97.28,398.32,97.28,398.21z
		 M98.06,403.55h-0.72v-4.23h0.72V403.55z"/>
	<path class="st0" d="M100.2,398.3v1.02h0.79v0.56h-0.79v2.62c0,0.17,0.04,0.3,0.11,0.38c0.07,0.08,0.19,0.13,0.36,0.13
		c0.08,0,0.2-0.02,0.34-0.05v0.58c-0.19,0.05-0.38,0.08-0.55,0.08c-0.32,0-0.57-0.1-0.73-0.29s-0.25-0.47-0.25-0.83v-2.62h-0.77
		v-0.56h0.77v-1.02H100.2z"/>
	<path class="st0" d="M103.22,402.5l0.98-3.17h0.77l-1.7,4.88c-0.26,0.7-0.68,1.05-1.25,1.05l-0.14-0.01l-0.27-0.05v-0.59l0.2,0.02
		c0.25,0,0.44-0.05,0.57-0.15c0.14-0.1,0.25-0.28,0.34-0.54l0.16-0.43l-1.51-4.18h0.79L103.22,402.5z"/>
	<path class="st0" d="M110.85,401.04h-2.39v2.51h-0.75v-5.69h3.52v0.61h-2.77v1.95h2.39V401.04z"/>
	<path class="st0" d="M113.96,399.98c-0.11-0.02-0.23-0.03-0.36-0.03c-0.47,0-0.8,0.2-0.96,0.61v3h-0.72v-4.23h0.7l0.01,0.49
		c0.24-0.38,0.57-0.57,1.01-0.57c0.14,0,0.25,0.02,0.32,0.05V399.98z"/>
	<path class="st0" d="M117.08,403.55c-0.04-0.08-0.08-0.23-0.1-0.45c-0.34,0.35-0.74,0.52-1.2,0.52c-0.42,0-0.76-0.12-1.03-0.35
		c-0.27-0.24-0.4-0.54-0.4-0.9c0-0.44,0.17-0.78,0.5-1.03c0.33-0.24,0.81-0.37,1.41-0.37h0.7v-0.33c0-0.25-0.08-0.45-0.23-0.6
		c-0.15-0.15-0.37-0.22-0.67-0.22c-0.26,0-0.47,0.06-0.65,0.2c-0.17,0.13-0.26,0.29-0.26,0.47h-0.73c0-0.21,0.08-0.42,0.22-0.61
		c0.15-0.2,0.35-0.35,0.61-0.47c0.26-0.12,0.54-0.17,0.85-0.17c0.49,0,0.87,0.12,1.14,0.37c0.28,0.24,0.42,0.58,0.43,1.01v1.95
		c0,0.39,0.05,0.7,0.15,0.93v0.06H117.08z M115.88,403c0.23,0,0.44-0.06,0.64-0.18s0.35-0.27,0.44-0.46v-0.87h-0.57
		c-0.89,0-1.33,0.26-1.33,0.78c0,0.23,0.08,0.4,0.23,0.53C115.45,402.94,115.64,403,115.88,403z"/>
	<path class="st0" d="M121.43,403.14c-0.28,0.33-0.69,0.5-1.24,0.5c-0.45,0-0.79-0.13-1.03-0.39s-0.35-0.65-0.36-1.16v-2.75h0.72
		v2.73c0,0.64,0.26,0.96,0.78,0.96c0.55,0,0.92-0.21,1.1-0.62v-3.07h0.72v4.23h-0.69L121.43,403.14z"/>
	<path class="st0" d="M123.06,401.41c0-0.65,0.15-1.17,0.46-1.56s0.71-0.59,1.21-0.59c0.5,0,0.89,0.17,1.18,0.51v-2.2h0.72v6h-0.66
		l-0.04-0.45c-0.29,0.35-0.69,0.53-1.21,0.53c-0.49,0-0.89-0.2-1.2-0.6c-0.31-0.4-0.46-0.92-0.46-1.57V401.41z M123.78,401.49
		c0,0.48,0.1,0.85,0.3,1.12c0.2,0.27,0.47,0.41,0.82,0.41c0.46,0,0.79-0.21,1-0.62v-1.94c-0.22-0.4-0.55-0.6-1-0.6
		c-0.35,0-0.63,0.14-0.83,0.41S123.78,400.95,123.78,401.49z"/>
	<path class="st0" d="M131.51,401.02c-0.64-0.19-1.11-0.41-1.4-0.68s-0.44-0.6-0.44-1c0-0.45,0.18-0.82,0.54-1.11
		s0.82-0.44,1.4-0.44c0.39,0,0.74,0.08,1.04,0.23c0.31,0.15,0.54,0.36,0.71,0.62s0.25,0.56,0.25,0.87h-0.75
		c0-0.35-0.11-0.62-0.33-0.81s-0.53-0.29-0.93-0.29c-0.37,0-0.66,0.08-0.87,0.24s-0.31,0.39-0.31,0.68c0,0.23,0.1,0.43,0.29,0.59
		s0.53,0.31,1,0.44c0.47,0.13,0.84,0.28,1.11,0.44s0.46,0.35,0.59,0.56c0.13,0.21,0.19,0.46,0.19,0.75c0,0.46-0.18,0.83-0.54,1.11
		s-0.84,0.42-1.44,0.42c-0.39,0-0.75-0.08-1.09-0.22c-0.34-0.15-0.6-0.36-0.78-0.62c-0.18-0.26-0.28-0.56-0.28-0.89h0.75
		c0,0.34,0.13,0.62,0.38,0.81s0.59,0.3,1.02,0.3c0.4,0,0.7-0.08,0.91-0.24c0.21-0.16,0.32-0.38,0.32-0.66c0-0.28-0.1-0.49-0.29-0.65
		S132.02,401.17,131.51,401.02z"/>
	<path class="st0" d="M135.45,398.3v1.02h0.79v0.56h-0.79v2.62c0,0.17,0.04,0.3,0.11,0.38c0.07,0.08,0.19,0.13,0.36,0.13
		c0.08,0,0.2-0.02,0.34-0.05v0.58c-0.19,0.05-0.38,0.08-0.55,0.08c-0.32,0-0.57-0.1-0.73-0.29s-0.25-0.47-0.25-0.83v-2.62h-0.77
		v-0.56h0.77v-1.02H135.45z"/>
	<path class="st0" d="M139.69,403.14c-0.28,0.33-0.69,0.5-1.24,0.5c-0.45,0-0.79-0.13-1.03-0.39s-0.35-0.65-0.36-1.16v-2.75h0.72
		v2.73c0,0.64,0.26,0.96,0.78,0.96c0.55,0,0.92-0.21,1.1-0.62v-3.07h0.72v4.23h-0.69L139.69,403.14z"/>
	<path class="st0" d="M141.32,401.41c0-0.65,0.15-1.17,0.46-1.56s0.71-0.59,1.21-0.59c0.5,0,0.89,0.17,1.18,0.51v-2.2h0.72v6h-0.66
		l-0.04-0.45c-0.29,0.35-0.69,0.53-1.21,0.53c-0.49,0-0.89-0.2-1.2-0.6c-0.31-0.4-0.46-0.92-0.46-1.57V401.41z M142.04,401.49
		c0,0.48,0.1,0.85,0.3,1.12c0.2,0.27,0.47,0.41,0.82,0.41c0.46,0,0.79-0.21,1-0.62v-1.94c-0.22-0.4-0.55-0.6-1-0.6
		c-0.35,0-0.63,0.14-0.83,0.41S142.04,400.95,142.04,401.49z"/>
	<path class="st0" d="M147.39,402.5l0.98-3.17h0.77l-1.7,4.88c-0.26,0.7-0.68,1.05-1.25,1.05l-0.14-0.01l-0.27-0.05v-0.59l0.2,0.02
		c0.25,0,0.44-0.05,0.57-0.15c0.14-0.1,0.25-0.28,0.34-0.54l0.16-0.43l-1.51-4.18h0.79L147.39,402.5z"/>
	<path class="st0" d="M149.77,404.69l-0.41-0.28c0.25-0.34,0.37-0.69,0.38-1.05v-0.65h0.71v0.57c0,0.26-0.06,0.53-0.19,0.79
		C150.12,404.32,149.96,404.53,149.77,404.69z"/>
	<path class="st0" d="M155.84,397.87h0.75v4.03c0,0.54-0.16,0.97-0.49,1.28c-0.33,0.31-0.76,0.46-1.31,0.46
		c-0.57,0-1-0.14-1.32-0.43s-0.47-0.69-0.47-1.21h0.75c0,0.33,0.09,0.58,0.27,0.76c0.18,0.18,0.44,0.27,0.78,0.27
		c0.31,0,0.56-0.1,0.75-0.29s0.29-0.47,0.29-0.82V397.87z"/>
	<path class="st0" d="M160.36,403.55c-0.04-0.08-0.08-0.23-0.1-0.45c-0.34,0.35-0.74,0.52-1.2,0.52c-0.42,0-0.76-0.12-1.03-0.35
		c-0.27-0.24-0.4-0.54-0.4-0.9c0-0.44,0.17-0.78,0.5-1.03c0.33-0.24,0.81-0.37,1.41-0.37h0.7v-0.33c0-0.25-0.08-0.45-0.23-0.6
		c-0.15-0.15-0.37-0.22-0.67-0.22c-0.26,0-0.47,0.06-0.65,0.2c-0.17,0.13-0.26,0.29-0.26,0.47h-0.73c0-0.21,0.08-0.42,0.22-0.61
		c0.15-0.2,0.35-0.35,0.61-0.47c0.26-0.12,0.54-0.17,0.85-0.17c0.49,0,0.87,0.12,1.14,0.37c0.28,0.24,0.42,0.58,0.43,1.01v1.95
		c0,0.39,0.05,0.7,0.15,0.93v0.06H160.36z M159.17,403c0.23,0,0.44-0.06,0.64-0.18s0.35-0.27,0.44-0.46v-0.87h-0.57
		c-0.89,0-1.33,0.26-1.33,0.78c0,0.23,0.08,0.4,0.23,0.53C158.73,402.94,158.93,403,159.17,403z"/>
	<path class="st0" d="M163.44,402.57l1.05-3.25h0.74l-1.52,4.23h-0.55l-1.53-4.23h0.74L163.44,402.57z"/>
	<path class="st0" d="M167.68,403.63c-0.57,0-1.04-0.19-1.4-0.56c-0.36-0.38-0.54-0.88-0.54-1.51v-0.13c0-0.42,0.08-0.79,0.24-1.12
		c0.16-0.33,0.38-0.59,0.67-0.77c0.29-0.19,0.6-0.28,0.94-0.28c0.55,0,0.98,0.18,1.28,0.54c0.3,0.36,0.46,0.88,0.46,1.55v0.3h-2.86
		c0.01,0.42,0.13,0.75,0.37,1.01c0.23,0.26,0.53,0.38,0.89,0.38c0.25,0,0.47-0.05,0.65-0.16c0.18-0.1,0.33-0.24,0.46-0.41l0.44,0.34
		C168.92,403.36,168.38,403.63,167.68,403.63z M167.59,399.84c-0.29,0-0.54,0.11-0.73,0.32c-0.2,0.21-0.32,0.51-0.37,0.89h2.12V401
		c-0.02-0.37-0.12-0.65-0.3-0.85C168.13,399.94,167.89,399.84,167.59,399.84z"/>
	<path class="st0" d="M170.95,403.55h-0.72v-6h0.72V403.55z"/>
	<path class="st0" d="M172.11,398.21c0-0.12,0.04-0.22,0.11-0.3c0.07-0.08,0.18-0.12,0.32-0.12s0.25,0.04,0.32,0.12
		c0.07,0.08,0.11,0.18,0.11,0.3s-0.04,0.21-0.11,0.29s-0.18,0.12-0.32,0.12s-0.25-0.04-0.32-0.12S172.11,398.32,172.11,398.21z
		 M172.89,403.55h-0.72v-4.23h0.72V403.55z"/>
	<path class="st0" d="M174.73,399.33l0.02,0.53c0.32-0.41,0.75-0.61,1.27-0.61c0.89,0,1.34,0.5,1.35,1.51v2.79h-0.72v-2.8
		c0-0.3-0.07-0.53-0.21-0.68c-0.14-0.15-0.35-0.22-0.64-0.22c-0.23,0-0.44,0.06-0.62,0.19s-0.32,0.29-0.41,0.49v3.01h-0.72v-4.23
		H174.73z"/>
	<path class="st0" d="M182.23,401.02c-0.64-0.19-1.11-0.41-1.4-0.68s-0.44-0.6-0.44-1c0-0.45,0.18-0.82,0.54-1.11
		s0.82-0.44,1.4-0.44c0.39,0,0.74,0.08,1.04,0.23c0.31,0.15,0.54,0.36,0.71,0.62s0.25,0.56,0.25,0.87h-0.75
		c0-0.35-0.11-0.62-0.33-0.81s-0.53-0.29-0.93-0.29c-0.37,0-0.66,0.08-0.87,0.24s-0.31,0.39-0.31,0.68c0,0.23,0.1,0.43,0.29,0.59
		s0.53,0.31,1,0.44c0.47,0.13,0.84,0.28,1.11,0.44s0.46,0.35,0.59,0.56c0.13,0.21,0.19,0.46,0.19,0.75c0,0.46-0.18,0.83-0.54,1.11
		s-0.84,0.42-1.44,0.42c-0.39,0-0.75-0.08-1.09-0.22c-0.34-0.15-0.6-0.36-0.78-0.62c-0.18-0.26-0.28-0.56-0.28-0.89h0.75
		c0,0.34,0.13,0.62,0.38,0.81s0.59,0.3,1.02,0.3c0.4,0,0.7-0.08,0.91-0.24c0.21-0.16,0.32-0.38,0.32-0.66c0-0.28-0.1-0.49-0.29-0.65
		S182.74,401.17,182.23,401.02z"/>
	<path class="st0" d="M186.17,398.3v1.02h0.79v0.56h-0.79v2.62c0,0.17,0.04,0.3,0.11,0.38c0.07,0.08,0.19,0.13,0.36,0.13
		c0.08,0,0.2-0.02,0.34-0.05v0.58c-0.19,0.05-0.38,0.08-0.55,0.08c-0.32,0-0.57-0.1-0.73-0.29s-0.25-0.47-0.25-0.83v-2.62h-0.77
		v-0.56h0.77v-1.02H186.17z"/>
	<path class="st0" d="M189.84,399.98c-0.11-0.02-0.23-0.03-0.36-0.03c-0.47,0-0.8,0.2-0.96,0.61v3h-0.72v-4.23h0.7l0.01,0.49
		c0.24-0.38,0.57-0.57,1.01-0.57c0.14,0,0.25,0.02,0.32,0.05V399.98z"/>
	<path class="st0" d="M192.96,403.55c-0.04-0.08-0.08-0.23-0.1-0.45c-0.34,0.35-0.74,0.52-1.2,0.52c-0.42,0-0.76-0.12-1.03-0.35
		c-0.27-0.24-0.4-0.54-0.4-0.9c0-0.44,0.17-0.78,0.5-1.03c0.33-0.24,0.81-0.37,1.41-0.37h0.7v-0.33c0-0.25-0.08-0.45-0.23-0.6
		c-0.15-0.15-0.37-0.22-0.67-0.22c-0.26,0-0.47,0.06-0.65,0.2c-0.17,0.13-0.26,0.29-0.26,0.47h-0.73c0-0.21,0.08-0.42,0.22-0.61
		c0.15-0.2,0.35-0.35,0.61-0.47c0.26-0.12,0.54-0.17,0.85-0.17c0.49,0,0.87,0.12,1.14,0.37c0.28,0.24,0.42,0.58,0.43,1.01v1.95
		c0,0.39,0.05,0.7,0.15,0.93v0.06H192.96z M191.76,403c0.23,0,0.44-0.06,0.64-0.18s0.35-0.27,0.44-0.46v-0.87h-0.57
		c-0.89,0-1.33,0.26-1.33,0.78c0,0.23,0.08,0.4,0.23,0.53C191.33,402.94,191.52,403,191.76,403z"/>
	<path class="st0" d="M195.68,398.3v1.02h0.79v0.56h-0.79v2.62c0,0.17,0.04,0.3,0.11,0.38c0.07,0.08,0.19,0.13,0.36,0.13
		c0.08,0,0.2-0.02,0.34-0.05v0.58c-0.19,0.05-0.38,0.08-0.55,0.08c-0.32,0-0.57-0.1-0.73-0.29s-0.25-0.47-0.25-0.83v-2.62h-0.77
		v-0.56h0.77v-1.02H195.68z"/>
	<path class="st0" d="M199.07,403.63c-0.57,0-1.04-0.19-1.4-0.56c-0.36-0.38-0.54-0.88-0.54-1.51v-0.13c0-0.42,0.08-0.79,0.24-1.12
		c0.16-0.33,0.38-0.59,0.67-0.77c0.29-0.19,0.6-0.28,0.94-0.28c0.55,0,0.98,0.18,1.28,0.54c0.3,0.36,0.46,0.88,0.46,1.55v0.3h-2.86
		c0.01,0.42,0.13,0.75,0.37,1.01c0.23,0.26,0.53,0.38,0.89,0.38c0.25,0,0.47-0.05,0.65-0.16c0.18-0.1,0.33-0.24,0.46-0.41l0.44,0.34
		C200.31,403.36,199.78,403.63,199.07,403.63z M198.98,399.84c-0.29,0-0.54,0.11-0.73,0.32c-0.2,0.21-0.32,0.51-0.37,0.89h2.12V401
		c-0.02-0.37-0.12-0.65-0.3-0.85C199.52,399.94,199.28,399.84,198.98,399.84z"/>
	<path class="st0" d="M201.38,401.41c0-0.66,0.15-1.18,0.46-1.57c0.3-0.39,0.71-0.58,1.21-0.58c0.52,0,0.92,0.18,1.21,0.55
		l0.04-0.47h0.66v4.12c0,0.55-0.16,0.98-0.49,1.29c-0.32,0.31-0.76,0.47-1.31,0.47c-0.3,0-0.6-0.07-0.89-0.2
		c-0.29-0.13-0.51-0.31-0.67-0.54l0.38-0.43c0.31,0.38,0.69,0.57,1.14,0.57c0.35,0,0.63-0.1,0.82-0.3c0.2-0.2,0.29-0.48,0.29-0.84
		v-0.36c-0.29,0.33-0.68,0.5-1.18,0.5c-0.5,0-0.9-0.2-1.2-0.6S201.38,402.09,201.38,401.41z M202.11,401.49
		c0,0.48,0.1,0.85,0.29,1.12c0.2,0.27,0.47,0.41,0.82,0.41c0.46,0,0.79-0.21,1-0.62v-1.93c-0.22-0.4-0.55-0.61-1-0.61
		c-0.35,0-0.63,0.14-0.82,0.41S202.11,400.95,202.11,401.49z"/>
	<path class="st0" d="M207.42,402.5l0.98-3.17h0.77l-1.7,4.88c-0.26,0.7-0.68,1.05-1.25,1.05l-0.14-0.01l-0.27-0.05v-0.59l0.2,0.02
		c0.25,0,0.44-0.05,0.57-0.15c0.14-0.1,0.25-0.28,0.34-0.54l0.16-0.43l-1.51-4.18h0.79L207.42,402.5z"/>
	<path class="st0" d="M211.65,402.03c0-0.27,0.08-0.53,0.23-0.75c0.15-0.23,0.44-0.5,0.87-0.8c-0.25-0.31-0.42-0.55-0.51-0.74
		s-0.13-0.37-0.13-0.56c0-0.43,0.13-0.77,0.38-1.02c0.25-0.25,0.6-0.37,1.04-0.37c0.39,0,0.71,0.11,0.97,0.34
		c0.25,0.23,0.38,0.51,0.38,0.86c0,0.23-0.06,0.44-0.17,0.63c-0.12,0.19-0.32,0.4-0.61,0.61l-0.42,0.31l1.27,1.51
		c0.18-0.34,0.27-0.71,0.27-1.13h0.65c0,0.66-0.16,1.21-0.48,1.65l0.81,0.97h-0.87l-0.38-0.45c-0.19,0.17-0.42,0.3-0.68,0.39
		s-0.52,0.13-0.79,0.13c-0.55,0-1-0.15-1.34-0.44C211.82,402.9,211.65,402.51,211.65,402.03z M213.49,403.04
		c0.38,0,0.73-0.15,1.05-0.44l-1.39-1.66l-0.13,0.09c-0.43,0.32-0.65,0.65-0.65,0.99c0,0.31,0.1,0.55,0.3,0.74
		C212.87,402.95,213.15,403.04,213.49,403.04z M212.84,399.15c0,0.25,0.15,0.56,0.46,0.94l0.46-0.32c0.18-0.12,0.3-0.24,0.36-0.36
		s0.1-0.25,0.1-0.41c0-0.17-0.07-0.32-0.2-0.44c-0.13-0.12-0.29-0.17-0.49-0.17c-0.21,0-0.38,0.07-0.51,0.22
		S212.84,398.93,212.84,399.15z"/>
	<path class="st0" d="M220.96,401.25h-1.34v2.3h-0.75v-5.69h1.88c0.64,0,1.13,0.15,1.48,0.44c0.34,0.29,0.52,0.72,0.52,1.27
		c0,0.35-0.1,0.66-0.29,0.93c-0.19,0.26-0.46,0.46-0.8,0.59l1.34,2.41v0.05h-0.8L220.96,401.25z M219.62,400.64h1.15
		c0.37,0,0.67-0.1,0.89-0.29s0.33-0.45,0.33-0.77c0-0.35-0.1-0.62-0.31-0.81s-0.51-0.28-0.91-0.29h-1.15V400.64z"/>
	<path class="st0" d="M225.44,403.63c-0.57,0-1.04-0.19-1.4-0.56c-0.36-0.38-0.54-0.88-0.54-1.51v-0.13c0-0.42,0.08-0.79,0.24-1.12
		c0.16-0.33,0.38-0.59,0.67-0.77c0.29-0.19,0.6-0.28,0.94-0.28c0.55,0,0.98,0.18,1.28,0.54c0.3,0.36,0.46,0.88,0.46,1.55v0.3h-2.86
		c0.01,0.42,0.13,0.75,0.37,1.01c0.23,0.26,0.53,0.38,0.89,0.38c0.25,0,0.47-0.05,0.65-0.16c0.18-0.1,0.33-0.24,0.46-0.41l0.44,0.34
		C226.68,403.36,226.15,403.63,225.44,403.63z M225.35,399.84c-0.29,0-0.54,0.11-0.73,0.32c-0.2,0.21-0.32,0.51-0.37,0.89h2.12V401
		c-0.02-0.37-0.12-0.65-0.3-0.85C225.89,399.94,225.65,399.84,225.35,399.84z"/>
	<path class="st0" d="M230.38,402.43c0-0.2-0.07-0.35-0.22-0.46c-0.15-0.11-0.4-0.2-0.77-0.28s-0.66-0.17-0.87-0.28
		s-0.37-0.24-0.48-0.39c-0.1-0.15-0.15-0.33-0.15-0.54c0-0.35,0.15-0.64,0.44-0.88c0.29-0.24,0.67-0.36,1.12-0.36
		c0.48,0,0.87,0.12,1.17,0.37c0.3,0.25,0.45,0.56,0.45,0.95h-0.73c0-0.2-0.08-0.37-0.25-0.51c-0.17-0.14-0.38-0.21-0.63-0.21
		c-0.26,0-0.47,0.06-0.62,0.17c-0.15,0.11-0.22,0.26-0.22,0.45c0,0.17,0.07,0.31,0.21,0.39c0.14,0.09,0.39,0.17,0.75,0.25
		c0.36,0.08,0.65,0.18,0.88,0.29c0.22,0.11,0.39,0.25,0.5,0.4c0.11,0.16,0.16,0.35,0.16,0.58c0,0.38-0.15,0.68-0.45,0.91
		c-0.3,0.23-0.69,0.34-1.18,0.34c-0.34,0-0.64-0.06-0.9-0.18c-0.26-0.12-0.46-0.29-0.61-0.5s-0.22-0.45-0.22-0.7h0.72
		c0.01,0.24,0.11,0.43,0.29,0.58c0.18,0.14,0.42,0.21,0.72,0.21c0.27,0,0.49-0.06,0.66-0.17
		C230.3,402.77,230.38,402.62,230.38,402.43z"/>
	<path class="st0" d="M233.8,403.63c-0.57,0-1.04-0.19-1.4-0.56c-0.36-0.38-0.54-0.88-0.54-1.51v-0.13c0-0.42,0.08-0.79,0.24-1.12
		c0.16-0.33,0.38-0.59,0.67-0.77c0.29-0.19,0.6-0.28,0.94-0.28c0.55,0,0.98,0.18,1.28,0.54c0.3,0.36,0.46,0.88,0.46,1.55v0.3h-2.86
		c0.01,0.42,0.13,0.75,0.37,1.01c0.23,0.26,0.53,0.38,0.89,0.38c0.25,0,0.47-0.05,0.65-0.16c0.18-0.1,0.33-0.24,0.46-0.41l0.44,0.34
		C235.04,403.36,234.51,403.63,233.8,403.63z M233.71,399.84c-0.29,0-0.54,0.11-0.73,0.32c-0.2,0.21-0.32,0.51-0.37,0.89h2.12V401
		c-0.02-0.37-0.12-0.65-0.3-0.85C234.25,399.94,234.01,399.84,233.71,399.84z"/>
	<path class="st0" d="M238.9,403.55c-0.04-0.08-0.08-0.23-0.1-0.45c-0.34,0.35-0.74,0.52-1.2,0.52c-0.42,0-0.76-0.12-1.03-0.35
		c-0.27-0.24-0.4-0.54-0.4-0.9c0-0.44,0.17-0.78,0.5-1.03c0.33-0.24,0.81-0.37,1.41-0.37h0.7v-0.33c0-0.25-0.08-0.45-0.23-0.6
		c-0.15-0.15-0.37-0.22-0.67-0.22c-0.26,0-0.47,0.06-0.65,0.2c-0.17,0.13-0.26,0.29-0.26,0.47h-0.73c0-0.21,0.08-0.42,0.22-0.61
		c0.15-0.2,0.35-0.35,0.61-0.47c0.26-0.12,0.54-0.17,0.85-0.17c0.49,0,0.87,0.12,1.14,0.37c0.28,0.24,0.42,0.58,0.43,1.01v1.95
		c0,0.39,0.05,0.7,0.15,0.93v0.06H238.9z M237.7,403c0.23,0,0.44-0.06,0.64-0.18s0.35-0.27,0.44-0.46v-0.87h-0.57
		c-0.89,0-1.33,0.26-1.33,0.78c0,0.23,0.08,0.4,0.23,0.53C237.27,402.94,237.46,403,237.7,403z"/>
	<path class="st0" d="M242.68,399.98c-0.11-0.02-0.23-0.03-0.36-0.03c-0.47,0-0.8,0.2-0.96,0.61v3h-0.72v-4.23h0.7l0.01,0.49
		c0.24-0.38,0.57-0.57,1.01-0.57c0.14,0,0.25,0.02,0.32,0.05V399.98z"/>
	<path class="st0" d="M244.97,403.04c0.26,0,0.48-0.08,0.68-0.23s0.3-0.35,0.32-0.59h0.68c-0.01,0.24-0.1,0.47-0.25,0.69
		s-0.36,0.39-0.62,0.52c-0.26,0.13-0.53,0.2-0.81,0.2c-0.58,0-1.03-0.19-1.37-0.58c-0.34-0.38-0.51-0.91-0.51-1.58v-0.12
		c0-0.41,0.08-0.78,0.23-1.1s0.37-0.57,0.65-0.75c0.28-0.18,0.62-0.27,1-0.27c0.47,0,0.87,0.14,1.18,0.43
		c0.31,0.28,0.48,0.65,0.5,1.11h-0.68c-0.02-0.27-0.12-0.5-0.31-0.67s-0.42-0.26-0.69-0.26c-0.37,0-0.65,0.13-0.85,0.4
		c-0.2,0.26-0.3,0.65-0.3,1.15v0.14c0,0.49,0.1,0.86,0.3,1.12C244.31,402.91,244.59,403.04,244.97,403.04z"/>
	<path class="st0" d="M248.18,399.84c0.32-0.39,0.74-0.59,1.25-0.59c0.89,0,1.34,0.5,1.35,1.51v2.79h-0.72v-2.8
		c0-0.3-0.07-0.53-0.21-0.68c-0.14-0.15-0.35-0.22-0.64-0.22c-0.23,0-0.44,0.06-0.62,0.19s-0.32,0.29-0.41,0.49v3.01h-0.72v-6h0.72
		V399.84z"/>
</g>
</svg>
