<?xml version="1.0" encoding="utf-8"?>
<!-- Generator: Adobe Illustrator 25.3.1, SVG Export Plug-In . SVG Version: 6.00 Build 0)  -->
<svg version="1.1" id="Layer_1" xmlns="http://www.w3.org/2000/svg" xmlns:xlink="http://www.w3.org/1999/xlink" x="0px" y="0px"
	 viewBox="0 0 300 600" style="enable-background:new 0 0 300 600;" xml:space="preserve">
<style type="text/css">
	.st0{fill:#FFFFFF;}
</style>
<g>
	<path class="st0" d="M64.68,404.09c0-0.45-0.16-0.83-0.47-1.14c-0.31-0.31-0.85-0.59-1.59-0.83c-1.04-0.32-1.8-0.73-2.27-1.24
		c-0.48-0.51-0.71-1.16-0.71-1.94c0-0.8,0.23-1.46,0.7-1.97c0.47-0.51,1.11-0.82,1.92-0.92v-1.6h1.09v1.61
		c0.82,0.11,1.46,0.46,1.92,1.03c0.46,0.58,0.68,1.36,0.68,2.37h-1.35c0-0.69-0.16-1.24-0.49-1.65c-0.33-0.41-0.77-0.61-1.33-0.61
		c-0.58,0-1.03,0.15-1.33,0.45s-0.46,0.72-0.46,1.26c0,0.5,0.16,0.9,0.49,1.19c0.33,0.3,0.86,0.56,1.6,0.81
		c0.74,0.24,1.33,0.51,1.74,0.8c0.42,0.29,0.72,0.63,0.92,1.01c0.2,0.39,0.3,0.84,0.3,1.35c0,0.83-0.25,1.49-0.74,1.99
		c-0.5,0.5-1.19,0.8-2.08,0.89v1.4h-1.08v-1.4c-0.91-0.08-1.62-0.41-2.13-0.97c-0.51-0.56-0.77-1.33-0.77-2.3h1.35
		c0,0.68,0.18,1.2,0.54,1.57c0.36,0.37,0.86,0.55,1.52,0.55c0.64,0,1.14-0.15,1.51-0.46C64.5,405.04,64.68,404.62,64.68,404.09z"/>
	<path class="st0" d="M72.17,406.83h-1.36v-9.03l-2.73,1v-1.23l3.88-1.46h0.21V406.83z"/>
	<path class="st0" d="M81.83,396.99v1.92h1.48v1.05h-1.48v4.92c0,0.32,0.07,0.56,0.2,0.72c0.13,0.16,0.36,0.24,0.67,0.24
		c0.16,0,0.37-0.03,0.64-0.09v1.09c-0.36,0.1-0.7,0.15-1.04,0.15c-0.61,0-1.06-0.18-1.37-0.55c-0.31-0.37-0.46-0.89-0.46-1.56v-4.91
		h-1.44v-1.05h1.44v-1.92H81.83z"/>
	<path class="st0" d="M88.73,400.13c-0.21-0.03-0.43-0.05-0.67-0.05c-0.89,0-1.49,0.38-1.81,1.13v5.62H84.9v-7.92h1.32l0.02,0.92
		c0.44-0.71,1.07-1.06,1.89-1.06c0.26,0,0.46,0.03,0.6,0.1V400.13z"/>
	<path class="st0" d="M89.98,396.81c0-0.22,0.07-0.4,0.2-0.56c0.13-0.15,0.33-0.23,0.6-0.23s0.46,0.08,0.6,0.23
		c0.14,0.15,0.21,0.34,0.21,0.56c0,0.22-0.07,0.4-0.21,0.55s-0.34,0.22-0.6,0.22s-0.46-0.07-0.6-0.22
		C90.04,397.21,89.98,397.03,89.98,396.81z M91.44,406.83h-1.36v-7.92h1.36V406.83z"/>
	<path class="st0" d="M98.5,406.83c-0.08-0.16-0.14-0.43-0.19-0.83c-0.63,0.65-1.38,0.98-2.26,0.98c-0.78,0-1.42-0.22-1.92-0.66
		c-0.5-0.44-0.75-1-0.75-1.68c0-0.83,0.31-1.47,0.94-1.92c0.63-0.46,1.51-0.68,2.65-0.68h1.32v-0.62c0-0.47-0.14-0.85-0.42-1.13
		c-0.28-0.28-0.7-0.42-1.25-0.42c-0.48,0-0.89,0.12-1.22,0.37s-0.49,0.54-0.49,0.89h-1.36c0-0.4,0.14-0.78,0.42-1.15
		c0.28-0.37,0.66-0.66,1.14-0.88c0.48-0.21,1.01-0.32,1.59-0.32c0.91,0,1.63,0.23,2.15,0.68c0.52,0.46,0.79,1.09,0.81,1.89v3.65
		c0,0.73,0.09,1.31,0.28,1.74v0.12H98.5z M96.26,405.8c0.42,0,0.83-0.11,1.21-0.33s0.66-0.5,0.83-0.86v-1.63h-1.06
		c-1.66,0-2.49,0.49-2.49,1.46c0,0.42,0.14,0.76,0.42,1S95.81,405.8,96.26,405.8z"/>
	<path class="st0" d="M103.24,406.83h-1.36v-11.25h1.36V406.83z"/>
	<path class="st0" d="M109.79,406.83v-6.88h-1.25v-1.05h1.25v-0.81c0-0.85,0.23-1.51,0.68-1.97s1.1-0.7,1.93-0.7
		c0.31,0,0.62,0.04,0.93,0.12l-0.07,1.09c-0.23-0.04-0.47-0.07-0.73-0.07c-0.44,0-0.78,0.13-1.02,0.39
		c-0.24,0.26-0.36,0.63-0.36,1.11v0.84h1.69v1.05h-1.69v6.88H109.79z"/>
	<path class="st0" d="M113.97,402.8c0-0.78,0.15-1.47,0.46-2.1c0.31-0.62,0.73-1.1,1.27-1.44c0.54-0.34,1.17-0.5,1.86-0.5
		c1.08,0,1.95,0.37,2.62,1.12c0.67,0.75,1,1.74,1,2.98v0.09c0,0.77-0.15,1.46-0.44,2.08c-0.29,0.61-0.72,1.09-1.27,1.43
		c-0.55,0.34-1.18,0.51-1.89,0.51c-1.07,0-1.94-0.37-2.61-1.12c-0.67-0.75-1-1.74-1-2.97V402.8z M115.34,402.96
		c0,0.88,0.2,1.58,0.61,2.12c0.41,0.53,0.95,0.8,1.64,0.8c0.69,0,1.24-0.27,1.64-0.81c0.41-0.54,0.61-1.29,0.61-2.27
		c0-0.87-0.21-1.57-0.62-2.11c-0.41-0.54-0.96-0.81-1.64-0.81c-0.67,0-1.21,0.27-1.62,0.8
		C115.54,401.21,115.34,401.97,115.34,402.96z"/>
	<path class="st0" d="M126.72,400.13c-0.21-0.03-0.43-0.05-0.67-0.05c-0.89,0-1.49,0.38-1.81,1.13v5.62h-1.36v-7.92h1.32l0.02,0.92
		c0.44-0.71,1.07-1.06,1.89-1.06c0.26,0,0.46,0.03,0.6,0.1V400.13z"/>
	<path class="st0" d="M133.51,396.99v1.92h1.48v1.05h-1.48v4.92c0,0.32,0.07,0.56,0.2,0.72c0.13,0.16,0.36,0.24,0.67,0.24
		c0.16,0,0.37-0.03,0.64-0.09v1.09c-0.36,0.1-0.7,0.15-1.04,0.15c-0.61,0-1.06-0.18-1.37-0.55c-0.31-0.37-0.46-0.89-0.46-1.56v-4.91
		h-1.44v-1.05h1.44v-1.92H133.51z"/>
	<path class="st0" d="M137.93,399.87c0.6-0.74,1.38-1.11,2.34-1.11c1.67,0,2.52,0.94,2.53,2.83v5.24h-1.35v-5.24
		c0-0.57-0.14-0.99-0.39-1.27c-0.26-0.27-0.66-0.41-1.2-0.41c-0.44,0-0.83,0.12-1.16,0.35s-0.59,0.54-0.78,0.92v5.65h-1.36v-11.25
		h1.36V399.87z"/>
	<path class="st0" d="M148.13,406.98c-1.08,0-1.95-0.35-2.62-1.06c-0.67-0.71-1.01-1.65-1.01-2.83v-0.25c0-0.79,0.15-1.49,0.45-2.11
		c0.3-0.62,0.72-1.1,1.26-1.45c0.54-0.35,1.12-0.52,1.75-0.52c1.03,0,1.83,0.34,2.4,1.02s0.86,1.65,0.86,2.91v0.56h-5.37
		c0.02,0.78,0.25,1.41,0.68,1.89c0.44,0.48,0.99,0.72,1.67,0.72c0.48,0,0.88-0.1,1.22-0.29c0.33-0.2,0.62-0.46,0.87-0.78l0.83,0.64
		C150.45,406.47,149.45,406.98,148.13,406.98z M147.96,399.88c-0.55,0-1.01,0.2-1.38,0.6c-0.37,0.4-0.6,0.96-0.69,1.67h3.97v-0.1
		c-0.04-0.69-0.22-1.22-0.56-1.6C148.97,400.07,148.52,399.88,147.96,399.88z"/>
	<path class="st0" d="M157.16,406.83v-6.88h-1.25v-1.05h1.25v-0.81c0-0.85,0.23-1.51,0.68-1.97s1.1-0.7,1.93-0.7
		c0.31,0,0.62,0.04,0.93,0.12l-0.07,1.09c-0.23-0.04-0.47-0.07-0.73-0.07c-0.44,0-0.78,0.13-1.02,0.39
		c-0.24,0.26-0.36,0.63-0.36,1.11v0.84h1.69v1.05h-1.69v6.88H157.16z"/>
	<path class="st0" d="M161.71,396.81c0-0.22,0.07-0.4,0.2-0.56c0.13-0.15,0.33-0.23,0.6-0.23s0.46,0.08,0.6,0.23
		c0.14,0.15,0.21,0.34,0.21,0.56c0,0.22-0.07,0.4-0.21,0.55s-0.34,0.22-0.6,0.22s-0.46-0.07-0.6-0.22
		C161.78,397.21,161.71,397.03,161.71,396.81z M163.18,406.83h-1.36v-7.92h1.36V406.83z"/>
	<path class="st0" d="M169.17,400.13c-0.21-0.03-0.43-0.05-0.67-0.05c-0.89,0-1.49,0.38-1.81,1.13v5.62h-1.36v-7.92h1.32l0.02,0.92
		c0.44-0.71,1.07-1.06,1.89-1.06c0.26,0,0.46,0.03,0.6,0.1V400.13z"/>
	<path class="st0" d="M175.03,404.73c0-0.37-0.14-0.65-0.41-0.85c-0.28-0.2-0.76-0.38-1.44-0.52c-0.69-0.15-1.23-0.32-1.63-0.53
		c-0.4-0.21-0.7-0.45-0.89-0.73c-0.19-0.28-0.29-0.62-0.29-1.01c0-0.65,0.27-1.2,0.82-1.65c0.55-0.45,1.25-0.67,2.11-0.67
		c0.9,0,1.63,0.23,2.19,0.7c0.56,0.46,0.84,1.06,0.84,1.78h-1.36c0-0.37-0.16-0.69-0.47-0.96c-0.32-0.27-0.71-0.4-1.19-0.4
		c-0.49,0-0.88,0.11-1.16,0.32s-0.42,0.5-0.42,0.84c0,0.33,0.13,0.57,0.39,0.74s0.73,0.33,1.4,0.48c0.68,0.15,1.22,0.33,1.64,0.54
		s0.73,0.46,0.93,0.76c0.2,0.29,0.3,0.66,0.3,1.08c0,0.71-0.28,1.28-0.85,1.7c-0.57,0.43-1.3,0.64-2.2,0.64
		c-0.63,0-1.2-0.11-1.68-0.34s-0.87-0.54-1.15-0.94c-0.28-0.4-0.41-0.84-0.41-1.31h1.36c0.02,0.46,0.21,0.81,0.55,1.08
		c0.34,0.27,0.79,0.4,1.34,0.4c0.51,0,0.92-0.1,1.23-0.31C174.88,405.36,175.03,405.08,175.03,404.73z"/>
	<path class="st0" d="M179.99,396.99v1.92h1.48v1.05h-1.48v4.92c0,0.32,0.07,0.56,0.2,0.72c0.13,0.16,0.36,0.24,0.67,0.24
		c0.16,0,0.37-0.03,0.64-0.09v1.09c-0.36,0.1-0.7,0.15-1.04,0.15c-0.61,0-1.06-0.18-1.37-0.55c-0.31-0.37-0.46-0.89-0.46-1.56v-4.91
		h-1.44v-1.05h1.44v-1.92H179.99z"/>
	<path class="st0" d="M191.87,406.83h-2.48v-7.88l-2.43,0.71v-1.88l4.68-1.62h0.23V406.83z"/>
	<path class="st0" d="M201.6,402.67h1.08v1.9h-1.08v2.26h-2.47v-2.26h-4.12l-0.15-1.51l4.27-6.87v-0.02h2.47V402.67z M197.21,402.67
		h1.92v-3.28l-0.15,0.25L197.21,402.67z"/>
	<path class="st0" d="M207.23,402.81c0-1.25,0.27-2.24,0.81-2.97c0.54-0.72,1.3-1.08,2.27-1.08c0.71,0,1.3,0.28,1.79,0.83v-4.01
		h2.47v11.25h-2.22l-0.12-0.85c-0.51,0.66-1.15,1-1.93,1c-0.94,0-1.69-0.36-2.24-1.08C207.51,405.17,207.23,404.15,207.23,402.81z
		 M209.7,402.97c0,1.41,0.41,2.11,1.23,2.11c0.55,0,0.94-0.23,1.17-0.69v-3.02c-0.23-0.47-0.61-0.7-1.16-0.7
		c-0.76,0-1.17,0.62-1.24,1.85L209.7,402.97z"/>
	<path class="st0" d="M220.45,406.83c-0.09-0.16-0.17-0.4-0.23-0.71c-0.45,0.57-1.09,0.86-1.9,0.86c-0.75,0-1.38-0.23-1.9-0.68
		c-0.52-0.45-0.78-1.02-0.78-1.7c0-0.86,0.32-1.51,0.95-1.95s1.56-0.66,2.77-0.66h0.76v-0.42c0-0.73-0.32-1.1-0.95-1.1
		c-0.59,0-0.88,0.29-0.88,0.87h-2.47c0-0.77,0.33-1.39,0.98-1.87c0.65-0.48,1.48-0.72,2.49-0.72c1.01,0,1.81,0.25,2.39,0.74
		c0.59,0.49,0.89,1.17,0.9,2.03v3.51c0.01,0.73,0.12,1.29,0.34,1.67v0.12H220.45z M218.9,405.22c0.31,0,0.56-0.07,0.76-0.2
		c0.2-0.13,0.35-0.28,0.44-0.45v-1.27h-0.72c-0.86,0-1.29,0.39-1.29,1.16c0,0.22,0.08,0.41,0.23,0.54
		C218.47,405.15,218.67,405.22,218.9,405.22z"/>
	<path class="st0" d="M227.11,403.38l1.32-4.47h2.64l-3.23,9.25l-0.14,0.34c-0.46,1.03-1.27,1.54-2.43,1.54
		c-0.32,0-0.66-0.05-1.02-0.15v-1.76h0.32c0.35,0,0.61-0.05,0.79-0.15c0.18-0.1,0.32-0.28,0.41-0.54l0.2-0.53l-2.75-8h2.64
		L227.11,403.38z"/>
	<path class="st0" d="M235.86,404.61c0-0.21-0.11-0.38-0.33-0.51c-0.22-0.13-0.64-0.26-1.25-0.39s-1.12-0.32-1.52-0.54
		c-0.4-0.22-0.71-0.49-0.92-0.81s-0.31-0.68-0.31-1.09c0-0.73,0.3-1.33,0.9-1.8c0.6-0.47,1.39-0.71,2.36-0.71
		c1.04,0,1.88,0.24,2.52,0.71c0.63,0.47,0.95,1.1,0.95,1.87h-2.48c0-0.63-0.33-0.95-1-0.95c-0.26,0-0.48,0.07-0.65,0.22
		c-0.18,0.14-0.26,0.32-0.26,0.54c0,0.22,0.11,0.4,0.32,0.54s0.56,0.25,1.03,0.34c0.47,0.09,0.88,0.19,1.24,0.32
		c1.19,0.41,1.79,1.14,1.79,2.2c0,0.72-0.32,1.31-0.96,1.76c-0.64,0.46-1.47,0.68-2.49,0.68c-0.68,0-1.28-0.12-1.82-0.37
		s-0.95-0.58-1.25-1s-0.45-0.86-0.45-1.33h2.31c0.01,0.37,0.13,0.63,0.37,0.8c0.23,0.17,0.54,0.25,0.9,0.25
		c0.34,0,0.59-0.07,0.76-0.21C235.78,405.01,235.86,404.83,235.86,404.61z"/>
	<path class="st0" d="M239.77,408.96l-0.77-0.53c0.46-0.64,0.7-1.3,0.72-1.98v-1.22h1.33v1.06c0,0.49-0.12,0.99-0.36,1.48
		C240.44,408.27,240.14,408.66,239.77,408.96z M239.52,399.66c0-0.23,0.07-0.43,0.21-0.59c0.14-0.16,0.35-0.23,0.63-0.23
		c0.28,0,0.49,0.08,0.63,0.23c0.14,0.16,0.22,0.35,0.22,0.59c0,0.22-0.07,0.41-0.22,0.56c-0.14,0.15-0.36,0.23-0.63,0.23
		c-0.28,0-0.49-0.08-0.63-0.23C239.59,400.07,239.52,399.88,239.52,399.66z"/>
	<path class="st0" d="M41.48,424.66v4.17h-1.41v-10.66h3.93c1.17,0,2.08,0.3,2.74,0.89c0.66,0.6,0.99,1.38,0.99,2.37
		c0,1.04-0.32,1.83-0.97,2.39c-0.65,0.56-1.57,0.84-2.78,0.84H41.48z M41.48,423.51h2.53c0.75,0,1.33-0.18,1.73-0.53
		s0.6-0.87,0.6-1.54c0-0.64-0.2-1.14-0.6-1.53s-0.95-0.58-1.65-0.59h-2.61V423.51z"/>
	<path class="st0" d="M50.8,428.83h-1.36v-11.25h1.36V428.83z"/>
	<path class="st0" d="M57.86,428.83c-0.08-0.16-0.14-0.43-0.19-0.83c-0.63,0.65-1.38,0.98-2.26,0.98c-0.78,0-1.42-0.22-1.92-0.66
		c-0.5-0.44-0.75-1-0.75-1.68c0-0.83,0.31-1.47,0.94-1.92c0.63-0.46,1.51-0.68,2.65-0.68h1.32v-0.62c0-0.47-0.14-0.85-0.42-1.13
		c-0.28-0.28-0.7-0.42-1.25-0.42c-0.48,0-0.89,0.12-1.22,0.37s-0.49,0.54-0.49,0.89H52.9c0-0.4,0.14-0.78,0.42-1.15
		c0.28-0.37,0.66-0.66,1.14-0.88c0.48-0.21,1.01-0.32,1.59-0.32c0.91,0,1.63,0.23,2.15,0.68c0.52,0.46,0.79,1.09,0.81,1.89v3.65
		c0,0.73,0.09,1.31,0.28,1.74v0.12H57.86z M55.61,427.8c0.42,0,0.83-0.11,1.21-0.33s0.66-0.5,0.83-0.86v-1.63h-1.06
		c-1.66,0-2.49,0.49-2.49,1.46c0,0.42,0.14,0.76,0.42,1S55.16,427.8,55.61,427.8z"/>
	<path class="st0" d="M62.41,420.91l0.04,1c0.6-0.76,1.4-1.14,2.37-1.14c1.67,0,2.52,0.94,2.53,2.83v5.24H66v-5.24
		c0-0.57-0.14-0.99-0.39-1.27c-0.26-0.27-0.66-0.41-1.2-0.41c-0.44,0-0.83,0.12-1.16,0.35s-0.59,0.54-0.78,0.92v5.65h-1.36v-7.92
		H62.41z"/>
	<path class="st0" d="M74.01,426.73c0-0.37-0.14-0.65-0.41-0.85c-0.28-0.2-0.76-0.38-1.44-0.52c-0.69-0.15-1.23-0.32-1.63-0.53
		c-0.4-0.21-0.7-0.45-0.89-0.73c-0.19-0.28-0.29-0.62-0.29-1.01c0-0.65,0.27-1.2,0.82-1.65c0.55-0.45,1.25-0.67,2.11-0.67
		c0.9,0,1.63,0.23,2.19,0.7c0.56,0.46,0.84,1.06,0.84,1.78h-1.36c0-0.37-0.16-0.69-0.47-0.96c-0.32-0.27-0.71-0.4-1.19-0.4
		c-0.49,0-0.88,0.11-1.16,0.32s-0.42,0.5-0.42,0.84c0,0.33,0.13,0.57,0.39,0.74s0.73,0.33,1.4,0.48c0.68,0.15,1.22,0.33,1.64,0.54
		s0.73,0.46,0.93,0.76c0.2,0.29,0.3,0.66,0.3,1.08c0,0.71-0.28,1.28-0.85,1.7c-0.57,0.43-1.3,0.64-2.2,0.64
		c-0.63,0-1.2-0.11-1.68-0.34s-0.87-0.54-1.15-0.94c-0.28-0.4-0.41-0.84-0.41-1.31h1.36c0.02,0.46,0.21,0.81,0.55,1.08
		c0.34,0.27,0.79,0.4,1.34,0.4c0.51,0,0.92-0.1,1.23-0.31C73.86,427.36,74.01,427.08,74.01,426.73z"/>
	<path class="st0" d="M85.74,428.83c-0.08-0.16-0.14-0.43-0.19-0.83c-0.63,0.65-1.38,0.98-2.26,0.98c-0.78,0-1.42-0.22-1.92-0.66
		c-0.5-0.44-0.75-1-0.75-1.68c0-0.83,0.31-1.47,0.94-1.92c0.63-0.46,1.51-0.68,2.65-0.68h1.32v-0.62c0-0.47-0.14-0.85-0.42-1.13
		c-0.28-0.28-0.7-0.42-1.25-0.42c-0.48,0-0.89,0.12-1.22,0.37s-0.49,0.54-0.49,0.89h-1.36c0-0.4,0.14-0.78,0.42-1.15
		c0.28-0.37,0.66-0.66,1.14-0.88c0.48-0.21,1.01-0.32,1.59-0.32c0.91,0,1.63,0.23,2.15,0.68c0.52,0.46,0.79,1.09,0.81,1.89v3.65
		c0,0.73,0.09,1.31,0.28,1.74v0.12H85.74z M83.49,427.8c0.42,0,0.83-0.11,1.21-0.33s0.66-0.5,0.83-0.86v-1.63h-1.06
		c-1.66,0-2.49,0.49-2.49,1.46c0,0.42,0.14,0.76,0.42,1S83.05,427.8,83.49,427.8z"/>
	<path class="st0" d="M92.84,422.13c-0.21-0.03-0.43-0.05-0.67-0.05c-0.89,0-1.49,0.38-1.81,1.13v5.62h-1.36v-7.92h1.32l0.02,0.92
		c0.44-0.71,1.07-1.06,1.89-1.06c0.26,0,0.46,0.03,0.6,0.1V422.13z"/>
	<path class="st0" d="M97.37,428.98c-1.08,0-1.95-0.35-2.62-1.06c-0.67-0.71-1.01-1.65-1.01-2.83v-0.25c0-0.79,0.15-1.49,0.45-2.11
		c0.3-0.62,0.72-1.1,1.26-1.45c0.54-0.35,1.12-0.52,1.75-0.52c1.03,0,1.83,0.34,2.4,1.02s0.86,1.65,0.86,2.91v0.56h-5.37
		c0.02,0.78,0.25,1.41,0.68,1.89c0.44,0.48,0.99,0.72,1.67,0.72c0.48,0,0.88-0.1,1.22-0.29c0.33-0.2,0.62-0.46,0.87-0.78l0.83,0.64
		C99.7,428.47,98.7,428.98,97.37,428.98z M97.2,421.88c-0.55,0-1.01,0.2-1.38,0.6c-0.37,0.4-0.6,0.96-0.69,1.67h3.97v-0.1
		c-0.04-0.69-0.22-1.22-0.56-1.6C98.22,422.07,97.77,421.88,97.2,421.88z"/>
	<path class="st0" d="M110.29,426.01c0-0.39-0.1-0.69-0.29-0.91c-0.19-0.22-0.53-0.43-1-0.62s-0.92-0.39-1.33-0.59
		s-0.75-0.43-1.05-0.7s-0.52-0.57-0.67-0.92s-0.23-0.77-0.23-1.26c0-0.83,0.28-1.5,0.83-2.04c0.56-0.53,1.3-0.85,2.23-0.93v-1.55
		h1.17v1.58c0.89,0.13,1.59,0.5,2.11,1.1c0.51,0.6,0.77,1.37,0.77,2.3h-2.48c0-0.51-0.1-0.9-0.29-1.17s-0.47-0.41-0.83-0.41
		c-0.32,0-0.57,0.1-0.75,0.3c-0.18,0.2-0.27,0.48-0.27,0.84c0,0.36,0.1,0.65,0.31,0.86c0.21,0.21,0.54,0.42,0.99,0.61
		c0.46,0.19,0.88,0.39,1.29,0.6c0.4,0.21,0.75,0.44,1.04,0.71s0.52,0.57,0.69,0.92s0.25,0.77,0.25,1.27c0,0.83-0.27,1.52-0.79,2.04
		c-0.53,0.53-1.25,0.84-2.16,0.92v1.47h-1.17v-1.48c-1.06-0.11-1.88-0.48-2.45-1.09c-0.57-0.62-0.85-1.43-0.85-2.44h2.47
		c0,0.56,0.12,0.98,0.37,1.27c0.25,0.29,0.6,0.44,1.05,0.44c0.33,0,0.59-0.1,0.78-0.3C110.19,426.63,110.29,426.35,110.29,426.01z"
		/>
	<path class="st0" d="M118.92,424.71c-0.53,0.48-1.13,0.72-1.79,0.72c-0.97,0-1.73-0.33-2.3-0.98s-0.85-1.53-0.85-2.62
		c0-0.68,0.16-1.32,0.48-1.9s0.76-1.05,1.34-1.39c0.57-0.34,1.21-0.51,1.9-0.51c0.7,0,1.34,0.18,1.91,0.53
		c0.57,0.35,1.01,0.85,1.33,1.5c0.32,0.65,0.48,1.39,0.49,2.24v0.94c0,1.18-0.23,2.2-0.69,3.06c-0.46,0.86-1.12,1.53-1.97,1.99
		s-1.85,0.7-2.99,0.7h-0.15V427l0.47-0.01C117.78,426.91,118.73,426.15,118.92,424.71z M117.8,423.65c0.54,0,0.92-0.23,1.16-0.7
		v-1.03c0-0.68-0.12-1.19-0.34-1.52s-0.54-0.49-0.93-0.49c-0.35,0-0.64,0.19-0.87,0.56c-0.23,0.37-0.35,0.82-0.35,1.35
		c0,0.56,0.12,1,0.36,1.33C117.06,423.48,117.38,423.65,117.8,423.65z"/>
	<path class="st0" d="M124.31,426.44c0.39,0,0.72,0.12,0.97,0.35c0.26,0.23,0.39,0.53,0.39,0.89s-0.13,0.66-0.39,0.89
		c-0.26,0.23-0.58,0.35-0.97,0.35c-0.39,0-0.72-0.12-0.98-0.35c-0.26-0.23-0.38-0.53-0.38-0.89s0.13-0.65,0.38-0.89
		C123.59,426.56,123.92,426.44,124.31,426.44z"/>
	<path class="st0" d="M132.14,424.71c-0.53,0.48-1.13,0.72-1.79,0.72c-0.97,0-1.73-0.33-2.3-0.98s-0.85-1.53-0.85-2.62
		c0-0.68,0.16-1.32,0.48-1.9s0.76-1.05,1.34-1.39c0.57-0.34,1.21-0.51,1.9-0.51c0.7,0,1.34,0.18,1.91,0.53
		c0.57,0.35,1.01,0.85,1.33,1.5c0.32,0.65,0.48,1.39,0.49,2.24v0.94c0,1.18-0.23,2.2-0.69,3.06c-0.46,0.86-1.12,1.53-1.97,1.99
		s-1.85,0.7-2.99,0.7h-0.15V427l0.47-0.01C131,426.91,131.95,426.15,132.14,424.71z M131.02,423.65c0.54,0,0.92-0.23,1.16-0.7v-1.03
		c0-0.68-0.12-1.19-0.34-1.52s-0.54-0.49-0.93-0.49c-0.35,0-0.64,0.19-0.87,0.56c-0.23,0.37-0.35,0.82-0.35,1.35
		c0,0.56,0.12,1,0.36,1.33C130.28,423.48,130.6,423.65,131.02,423.65z"/>
	<path class="st0" d="M140.83,424.71c-0.53,0.48-1.13,0.72-1.79,0.72c-0.97,0-1.73-0.33-2.3-0.98s-0.85-1.53-0.85-2.62
		c0-0.68,0.16-1.32,0.48-1.9s0.76-1.05,1.34-1.39c0.57-0.34,1.21-0.51,1.9-0.51c0.7,0,1.34,0.18,1.91,0.53
		c0.57,0.35,1.01,0.85,1.33,1.5c0.32,0.65,0.48,1.39,0.49,2.24v0.94c0,1.18-0.23,2.2-0.69,3.06c-0.46,0.86-1.12,1.53-1.97,1.99
		s-1.85,0.7-2.99,0.7h-0.15V427l0.47-0.01C139.69,426.91,140.64,426.15,140.83,424.71z M139.71,423.65c0.54,0,0.92-0.23,1.16-0.7
		v-1.03c0-0.68-0.12-1.19-0.34-1.52s-0.54-0.49-0.93-0.49c-0.35,0-0.64,0.19-0.87,0.56c-0.23,0.37-0.35,0.82-0.35,1.35
		c0,0.56,0.12,1,0.36,1.33C138.96,423.48,139.29,423.65,139.71,423.65z"/>
	<path class="st0" d="M150.6,418.99v1.92h1.48v1.05h-1.48v4.92c0,0.32,0.07,0.56,0.2,0.72c0.13,0.16,0.36,0.24,0.67,0.24
		c0.16,0,0.37-0.03,0.64-0.09v1.09c-0.36,0.1-0.7,0.15-1.04,0.15c-0.61,0-1.06-0.18-1.37-0.55c-0.31-0.37-0.46-0.89-0.46-1.56v-4.91
		h-1.44v-1.05h1.44v-1.92H150.6z"/>
	<path class="st0" d="M153.15,424.8c0-0.78,0.15-1.47,0.46-2.1c0.31-0.62,0.73-1.1,1.27-1.44c0.54-0.34,1.17-0.5,1.86-0.5
		c1.08,0,1.95,0.37,2.62,1.12c0.67,0.75,1,1.74,1,2.98v0.09c0,0.77-0.15,1.46-0.44,2.08c-0.29,0.61-0.72,1.09-1.27,1.43
		c-0.55,0.34-1.18,0.51-1.89,0.51c-1.07,0-1.94-0.37-2.61-1.12c-0.67-0.75-1-1.74-1-2.97V424.8z M154.52,424.96
		c0,0.88,0.2,1.58,0.61,2.12c0.41,0.53,0.95,0.8,1.64,0.8c0.69,0,1.24-0.27,1.64-0.81c0.41-0.54,0.61-1.29,0.61-2.27
		c0-0.87-0.21-1.57-0.62-2.11c-0.41-0.54-0.96-0.81-1.64-0.81c-0.67,0-1.21,0.27-1.62,0.8
		C154.72,423.21,154.52,423.97,154.52,424.96z"/>
	<path class="st0" d="M170.34,426.01c0-0.39-0.1-0.69-0.29-0.91c-0.19-0.22-0.53-0.43-1-0.62s-0.92-0.39-1.33-0.59
		s-0.75-0.43-1.05-0.7s-0.52-0.57-0.67-0.92s-0.23-0.77-0.23-1.26c0-0.83,0.28-1.5,0.83-2.04c0.56-0.53,1.3-0.85,2.23-0.93v-1.55
		H170v1.58c0.89,0.13,1.59,0.5,2.11,1.1c0.51,0.6,0.77,1.37,0.77,2.3h-2.48c0-0.51-0.1-0.9-0.29-1.17s-0.47-0.41-0.83-0.41
		c-0.32,0-0.57,0.1-0.75,0.3c-0.18,0.2-0.27,0.48-0.27,0.84c0,0.36,0.1,0.65,0.31,0.86c0.21,0.21,0.54,0.42,0.99,0.61
		c0.46,0.19,0.88,0.39,1.29,0.6c0.4,0.21,0.75,0.44,1.04,0.71s0.52,0.57,0.69,0.92s0.25,0.77,0.25,1.27c0,0.83-0.27,1.52-0.79,2.04
		c-0.53,0.53-1.25,0.84-2.16,0.92v1.47h-1.17v-1.48c-1.06-0.11-1.88-0.48-2.45-1.09c-0.57-0.62-0.85-1.43-0.85-2.44h2.47
		c0,0.56,0.12,0.98,0.37,1.27c0.25,0.29,0.6,0.44,1.05,0.44c0.33,0,0.59-0.1,0.78-0.3C170.25,426.63,170.34,426.35,170.34,426.01z"
		/>
	<path class="st0" d="M181.56,428.83h-7.44v-1.61l3.43-3.6c0.84-0.96,1.27-1.73,1.27-2.29c0-0.46-0.1-0.81-0.3-1.05
		c-0.2-0.24-0.49-0.36-0.87-0.36c-0.38,0-0.68,0.16-0.92,0.48c-0.23,0.32-0.35,0.72-0.35,1.2h-2.48c0-0.65,0.16-1.26,0.49-1.81
		c0.33-0.55,0.78-0.99,1.36-1.3c0.58-0.31,1.23-0.47,1.95-0.47c1.15,0,2.04,0.27,2.66,0.8c0.62,0.53,0.93,1.3,0.93,2.29
		c0,0.42-0.08,0.83-0.23,1.23c-0.16,0.4-0.4,0.82-0.73,1.25c-0.33,0.44-0.86,1.02-1.59,1.75l-1.38,1.59h4.2V428.83z"/>
	<path class="st0" d="M189.32,424.67h1.08v1.9h-1.08v2.26h-2.47v-2.26h-4.12l-0.15-1.51l4.27-6.87v-0.02h2.47V424.67z
		 M184.93,424.67h1.92v-3.28l-0.15,0.25L184.93,424.67z"/>
	<path class="st0" d="M193.05,426.44c0.39,0,0.72,0.12,0.97,0.35c0.26,0.23,0.39,0.53,0.39,0.89s-0.13,0.66-0.39,0.89
		c-0.26,0.23-0.58,0.35-0.97,0.35c-0.39,0-0.72-0.12-0.98-0.35c-0.26-0.23-0.38-0.53-0.38-0.89s0.13-0.65,0.38-0.89
		C192.33,426.56,192.66,426.44,193.05,426.44z"/>
	<path class="st0" d="M200.89,424.71c-0.53,0.48-1.13,0.72-1.79,0.72c-0.97,0-1.73-0.33-2.3-0.98s-0.85-1.53-0.85-2.62
		c0-0.68,0.16-1.32,0.48-1.9s0.76-1.05,1.34-1.39c0.57-0.34,1.21-0.51,1.9-0.51c0.7,0,1.34,0.18,1.91,0.53
		c0.57,0.35,1.01,0.85,1.33,1.5c0.32,0.65,0.48,1.39,0.49,2.24v0.94c0,1.18-0.23,2.2-0.69,3.06c-0.46,0.86-1.12,1.53-1.97,1.99
		s-1.85,0.7-2.99,0.7h-0.15V427l0.47-0.01C199.75,426.91,200.69,426.15,200.89,424.71z M199.76,423.65c0.54,0,0.92-0.23,1.16-0.7
		v-1.03c0-0.68-0.12-1.19-0.34-1.52s-0.54-0.49-0.93-0.49c-0.35,0-0.64,0.19-0.87,0.56c-0.23,0.37-0.35,0.82-0.35,1.35
		c0,0.56,0.12,1,0.36,1.33C199.02,423.48,199.35,423.65,199.76,423.65z"/>
	<path class="st0" d="M209.57,424.71c-0.53,0.48-1.13,0.72-1.79,0.72c-0.97,0-1.73-0.33-2.3-0.98s-0.85-1.53-0.85-2.62
		c0-0.68,0.16-1.32,0.48-1.9s0.76-1.05,1.34-1.39c0.57-0.34,1.21-0.51,1.9-0.51c0.7,0,1.34,0.18,1.91,0.53
		c0.57,0.35,1.01,0.85,1.33,1.5c0.32,0.65,0.48,1.39,0.49,2.24v0.94c0,1.18-0.23,2.2-0.69,3.06c-0.46,0.86-1.12,1.53-1.97,1.99
		s-1.85,0.7-2.99,0.7h-0.15V427l0.47-0.01C208.44,426.91,209.38,426.15,209.57,424.71z M208.45,423.65c0.54,0,0.92-0.23,1.16-0.7
		v-1.03c0-0.68-0.12-1.19-0.34-1.52s-0.54-0.49-0.93-0.49c-0.35,0-0.64,0.19-0.87,0.56c-0.23,0.37-0.35,0.82-0.35,1.35
		c0,0.56,0.12,1,0.36,1.33C207.71,423.48,208.04,423.65,208.45,423.65z"/>
	<path class="st0" d="M214.28,429.75h-1.75l3.64-11.58h1.76L214.28,429.75z"/>
	<path class="st0" d="M221.04,420.91l0.08,0.93c0.56-0.72,1.32-1.08,2.26-1.08c1,0,1.68,0.4,2.03,1.19c0.54-0.8,1.31-1.19,2.33-1.19
		c1.61,0,2.43,0.97,2.48,2.92v5.16h-2.48v-5c0-0.41-0.07-0.7-0.21-0.89s-0.39-0.28-0.75-0.28c-0.49,0-0.85,0.22-1.09,0.65l0.01,0.1
		v5.41h-2.48v-4.99c0-0.41-0.07-0.71-0.2-0.9c-0.13-0.19-0.38-0.28-0.75-0.28c-0.47,0-0.83,0.22-1.08,0.65v5.52h-2.47v-7.92H221.04z
		"/>
	<path class="st0" d="M231.31,424.8c0-0.79,0.15-1.5,0.46-2.11c0.31-0.62,0.75-1.09,1.33-1.42s1.25-0.5,2.03-0.5
		c1.19,0,2.12,0.37,2.8,1.1c0.68,0.73,1.03,1.73,1.03,3v0.09c0,1.24-0.34,2.22-1.03,2.94c-0.69,0.73-1.62,1.09-2.79,1.09
		c-1.13,0-2.03-0.34-2.72-1.01c-0.68-0.68-1.05-1.59-1.11-2.75L231.31,424.8z M233.78,424.95c0,0.73,0.11,1.27,0.34,1.61
		s0.57,0.51,1.02,0.51c0.88,0,1.33-0.68,1.35-2.03v-0.25c0-1.42-0.45-2.13-1.36-2.13c-0.83,0-1.27,0.61-1.34,1.84L233.78,424.95z"/>
	<path class="st0" d="M242.31,420.91l0.08,0.93c0.55-0.72,1.3-1.08,2.26-1.08c0.83,0,1.44,0.25,1.85,0.74
		c0.41,0.49,0.62,1.24,0.63,2.23v5.11h-2.47v-5c0-0.4-0.08-0.7-0.24-0.88c-0.16-0.19-0.45-0.28-0.88-0.28
		c-0.48,0-0.84,0.19-1.08,0.57v5.6H240v-7.92H242.31z"/>
	<path class="st0" d="M251.38,418.94v1.97h1.3v1.71h-1.3v3.62c0,0.3,0.05,0.51,0.16,0.62c0.11,0.12,0.32,0.18,0.64,0.18
		c0.24,0,0.45-0.01,0.62-0.04v1.76c-0.44,0.14-0.91,0.21-1.39,0.21c-0.85,0-1.48-0.2-1.88-0.6c-0.41-0.4-0.61-1.01-0.61-1.82v-3.93
		h-1.01v-1.71h1.01v-1.97H251.38z"/>
	<path class="st0" d="M256.07,421.76c0.53-0.66,1.2-1,2.02-1c0.87,0,1.53,0.26,1.98,0.78s0.67,1.28,0.68,2.29v5h-2.47v-4.94
		c0-0.42-0.09-0.73-0.26-0.93c-0.17-0.2-0.46-0.3-0.87-0.3c-0.51,0-0.87,0.16-1.08,0.48v5.68h-2.47v-11.25h2.47V421.76z"/>
</g>
</svg>
