<svg id="Layer_1" xmlns="http://www.w3.org/2000/svg" xmlns:xlink="http://www.w3.org/1999/xlink" viewBox="0 0 320 50"><style>.st0{fill:#e82d8a}.st1{clip-path:url(#SVGID_2_)}.st2{fill:#ed5ba4}</style><g id="Background_2_"><path class="st0" d="M0 0h320v50H0z"/><defs><path id="SVGID_1_" d="M0 0h320v50H0z"/></defs><clipPath id="SVGID_2_"><use xlink:href="#SVGID_1_" overflow="visible"/></clipPath><g id="PG_x5F_Glyph_x5F_W_1_" class="st1"><path class="st2" d="M-30.05 49.38l-4.27 7.09c-3.36 5.58-10.64 7.39-16.23 4.03a11.79 11.79 0 0 1-4.26-4.44 4.04 4.04 0 0 1 1.6-5.48 4.04 4.04 0 0 1 5.48 1.6c.32.58.77 1.06 1.35 1.4 1.77 1.07 4.08.49 5.15-1.28l4.27-7.09c1.15-1.91 3.63-2.53 5.54-1.37s2.53 3.63 1.37 5.54zm-31.6-.15a4.033 4.033 0 0 0-3.77-4.29 4.033 4.033 0 0 0-4.29 3.77c-.62 9.51 4.06 18.46 12.2 23.37 11.96 7.21 27.55 3.34 34.76-8.62l4.27-7.09c1.15-1.91.54-4.39-1.37-5.54a4.034 4.034 0 0 0-5.54 1.37l-4.27 7.09c-4.91 8.15-15.53 10.78-23.67 5.87-5.56-3.35-8.74-9.45-8.32-15.93zM19.51-58.06c-18.1-10.18-41.72-3.7-52.65 14.44l-44.54 73.94c-5.46 9.06-6.97 19.69-4.27 29.94 2.6 9.86 8.79 18.11 17.47 23.34.34.2.68.4 1.03.6 18.1 10.18 41.72 3.7 52.65-14.44l3.41-5.66c5.26-8.74 2.44-20.13-6.3-25.39l-10.74-6.47a4.034 4.034 0 0 0-5.54 1.37 4.034 4.034 0 0 0 1.37 5.54l10.74 6.47c4.92 2.97 6.52 9.39 3.55 14.31l-3.41 5.66c-8.7 14.45-27.44 19.64-41.78 11.57-7.3-4.1-12.5-10.84-14.64-18.95-2.14-8.12-.94-16.54 3.38-23.71l44.54-73.94c8.7-14.45 27.44-19.64 41.78-11.57 7.31 4.1 12.51 10.84 14.65 18.96 2.14 8.12.95 16.54-3.37 23.71L.66 35.08c-1.15 1.91-.54 4.39 1.37 5.54s4.39.53 5.54-1.38L33.74-4.18c5.46-9.06 6.97-19.69 4.27-29.94-2.7-10.24-9.26-18.73-18.5-23.94zM6.49 14.91l15.7-26.05c7.21-11.96 3.34-27.55-8.62-34.76-11.97-7.21-27.56-3.34-34.77 8.62l-2.41 4.01a4.034 4.034 0 0 0 1.37 5.54c1.91 1.15 4.39.54 5.54-1.37l2.41-4.01c4.91-8.15 15.53-10.78 23.67-5.87 8.15 4.91 10.78 15.53 5.87 23.67L-.45 10.74c-4.91 8.15-15.53 10.78-23.67 5.87a16.994 16.994 0 0 1-4.78-4.27 4.055 4.055 0 0 0-3.43-1.58c-1.33.07-2.55.8-3.24 1.95l-14.22 23.6a2.704 2.704 0 0 1-3.72.92 2.713 2.713 0 0 1-.92-3.72l30.63-50.84c1.15-1.91.54-4.39-1.37-5.54a4.034 4.034 0 0 0-5.54 1.37l-30.63 50.84c-3.07 5.1-1.42 11.74 3.67 14.81 5.09 3.07 11.74 1.42 14.81-3.67l11.51-19.11c.96.79 1.99 1.52 3.07 2.17 11.97 7.19 27.56 3.33 34.77-8.63zM44.84 3.56L11.92 58.2l-.52.87L.38 77.36C-6.94 89.51-18.6 98-32.45 101.26c-13.43 3.16-27.21 1-38.97-6.08-.36-.22-.72-.44-1.08-.67-23.77-15.1-31.08-47.36-16.28-71.93l44.46-73.8c7.32-12.15 18.98-20.64 32.83-23.9 13.84-3.26 28.07-.85 40.06 6.75C52.33-53.26 59.64-21 44.84 3.56zM4.48 54.9l.52-.87L37.92-.6c12.55-20.84 6.41-48.18-13.69-60.94-10.13-6.47-22.17-8.47-33.87-5.72-11.71 2.76-21.57 9.94-27.76 20.21l-44.46 73.8c-12.55 20.84-6.41 48.18 13.69 60.94C-58.03 94.11-46 96.16-34.3 93.4c11.71-2.76 21.57-9.94 27.76-20.21L4.48 54.9zM-25.33-4.26l15.7-26.05c3.36-5.58 10.64-7.39 16.23-4.03 5.58 3.36 7.39 10.64 4.03 16.23L-5.08 7.94c-3.36 5.58-10.64 7.39-16.23 4.03-5.58-3.37-7.39-10.65-4.02-16.23zm6.92 4.17c-1.07 1.77-.49 4.08 1.28 5.15 1.77 1.07 4.08.49 5.15-1.28L3.7-22.28c1.07-1.77.49-4.08-1.28-5.15-1.77-1.07-4.08-.49-5.15 1.28L-18.41-.09z"/></g><g id="PG_x5F_Glyph_x5F_W_2_" class="st1"><path class="st2" d="M307.01 80.97l-4.27 7.09c-3.36 5.58-10.64 7.39-16.23 4.03a11.79 11.79 0 0 1-4.26-4.44 4.04 4.04 0 0 1 1.6-5.48 4.04 4.04 0 0 1 5.48 1.6c.32.58.77 1.06 1.35 1.4 1.77 1.07 4.08.49 5.15-1.28l4.27-7.09c1.15-1.91 3.63-2.53 5.54-1.37s2.52 3.63 1.37 5.54zm-31.61-.16a4.033 4.033 0 0 0-3.77-4.29 4.033 4.033 0 0 0-4.29 3.77c-.62 9.51 4.06 18.46 12.2 23.37 11.96 7.21 27.55 3.34 34.76-8.62l4.27-7.09c1.15-1.91.54-4.39-1.37-5.54s-4.39-.54-5.54 1.37l-4.27 7.09c-4.91 8.15-15.53 10.78-23.67 5.87-5.56-3.34-8.74-9.44-8.32-15.93zm81.16-107.28c-18.1-10.18-41.72-3.7-52.65 14.44l-44.54 73.94c-5.46 9.06-6.97 19.69-4.27 29.94 2.6 9.86 8.79 18.11 17.47 23.34.34.2.68.4 1.03.6 18.1 10.18 41.72 3.7 52.65-14.44l3.41-5.66c5.26-8.74 2.44-20.13-6.3-25.39l-10.74-6.47a4.034 4.034 0 0 0-5.54 1.37 4.034 4.034 0 0 0 1.37 5.54l10.74 6.47c4.92 2.97 6.52 9.39 3.55 14.31l-3.41 5.66c-8.7 14.45-27.44 19.64-41.78 11.57-7.3-4.11-12.51-10.85-14.65-18.96-2.14-8.12-.94-16.54 3.38-23.71l44.54-73.94c8.7-14.45 27.44-19.64 41.78-11.57 7.31 4.1 12.51 10.84 14.65 18.96 2.14 8.12.95 16.54-3.37 23.71l-26.16 43.43c-1.15 1.91-.54 4.39 1.37 5.54s4.39.53 5.54-1.38l26.16-43.43c5.46-9.06 6.97-19.69 4.27-29.94-2.7-10.24-9.26-18.73-18.5-23.93zm-13.02 72.96l15.7-26.05c7.21-11.96 3.34-27.55-8.62-34.76-11.96-7.21-27.55-3.34-34.76 8.62l-2.41 4.01a4.034 4.034 0 0 0 1.37 5.54c1.91 1.15 4.39.54 5.54-1.37l2.41-4.01c4.91-8.15 15.53-10.78 23.67-5.87 8.15 4.91 10.78 15.53 5.87 23.67l-15.7 26.05c-4.91 8.15-15.53 10.78-23.67 5.87a16.994 16.994 0 0 1-4.78-4.27 4.055 4.055 0 0 0-3.43-1.58c-1.33.07-2.55.8-3.24 1.95l-14.22 23.6a2.704 2.704 0 0 1-3.72.92 2.713 2.713 0 0 1-.92-3.72l30.63-50.84c1.15-1.91.54-4.39-1.37-5.54a4.034 4.034 0 0 0-5.54 1.37l-30.63 50.84c-3.07 5.1-1.42 11.74 3.67 14.81 5.09 3.07 11.74 1.42 14.81-3.67l11.51-19.11c.96.79 1.99 1.52 3.07 2.17 11.96 7.2 27.55 3.33 34.76-8.63zm38.35-11.34l-32.92 54.64-.52.87-11.02 18.29c-7.32 12.15-18.98 20.64-32.83 23.91-13.43 3.16-27.21 1-38.97-6.08-.36-.22-.72-.44-1.08-.67-23.77-15.1-31.08-47.36-16.28-71.93l44.46-73.8c7.32-12.15 18.98-20.64 32.83-23.9 13.84-3.26 28.07-.85 40.06 6.75 23.76 15.09 31.07 47.36 16.27 71.92zm-40.36 51.34l.52-.87 32.92-54.64c12.55-20.84 6.41-48.18-13.69-60.94-10.13-6.46-22.17-8.47-33.87-5.71-11.71 2.76-21.57 9.94-27.76 20.21l-44.46 73.8c-12.55 20.84-6.41 48.18 13.69 60.94 10.14 6.42 22.17 8.47 33.87 5.71 11.71-2.76 21.57-9.94 27.76-20.21l11.02-18.29zm-29.81-59.16l15.7-26.05c3.36-5.58 10.64-7.39 16.23-4.03 5.58 3.36 7.39 10.64 4.03 16.23l-15.7 26.05c-3.36 5.58-10.64 7.39-16.23 4.03-5.59-3.37-7.39-10.65-4.03-16.23zm6.92 4.16c-1.07 1.77-.49 4.08 1.28 5.15 1.77 1.07 4.08.49 5.15-1.28l15.7-26.05c1.07-1.77.49-4.08-1.28-5.15-1.77-1.07-4.08-.49-5.15 1.28l-15.7 26.05z"/></g></g></svg>