<svg id="Layer_1" xmlns="http://www.w3.org/2000/svg" viewBox="0 0 320 50"><style>.st0{fill:#edf4fd}.st1{fill:#021d8b}</style><g id="Button_6_"><path class="st0" d="M65.92 44.66H27.15c-7.16 0-12.97-5.81-12.97-12.97 0-7.16 5.81-12.97 12.97-12.97h38.77c7.16 0 12.97 5.81 12.97 12.97-.01 7.17-5.81 12.97-12.97 12.97z"/><path class="st1" d="M32.06 28.1c0 .85-.18 1.51-.54 1.98s-.87.71-1.51.71c-.57 0-1.03-.22-1.37-.66l-.06.56H27.3v-7.5h1.41v2.69c.33-.38.75-.57 1.28-.57.64 0 1.15.24 1.52.71s.55 1.14.55 2v.08zm-1.41-.11c0-.53-.08-.92-.25-1.17s-.42-.37-.76-.37c-.45 0-.76.18-.93.55v2.08c.17.37.48.56.94.56.46 0 .76-.22.9-.67.06-.21.1-.54.1-.98zM36.09 30.15c-.35.42-.83.63-1.45.63-.57 0-1-.16-1.3-.49s-.45-.8-.46-1.43V25.4h1.41v3.42c0 .55.25.83.75.83.48 0 .81-.17.99-.5v-3.74h1.42v5.28h-1.33l-.03-.54zM38.51 24.04c0-.21.07-.39.21-.52s.33-.21.58-.21c.24 0 .43.07.58.21s.21.31.21.52c0 .21-.07.39-.22.53s-.34.21-.57.21-.43-.07-.57-.21-.22-.32-.22-.53zm1.5 6.65H38.6v-5.28h1.42v5.28zM42.66 30.69h-1.42v-7.5h1.42v7.5zM43.61 28.01c0-.82.18-1.48.55-1.97s.88-.73 1.52-.73c.51 0 .94.19 1.27.58v-2.7h1.42v7.5H47.1l-.07-.56c-.35.44-.8.66-1.36.66-.62 0-1.12-.25-1.5-.73s-.56-1.18-.56-2.05zm1.41.1c0 .5.09.88.26 1.14s.42.4.75.4c.44 0 .74-.18.92-.55v-2.09c-.18-.37-.48-.55-.91-.55-.68 0-1.02.55-1.02 1.65zM51.73 28c0-.52.1-.99.3-1.4s.49-.73.87-.95.82-.34 1.32-.34c.71 0 1.29.22 1.75.65s.7 1.03.75 1.78l.01.36c0 .81-.23 1.46-.68 1.95s-1.06.73-1.82.73-1.37-.24-1.82-.73-.68-1.15-.68-1.99V28zm1.41.1c0 .5.09.89.28 1.15s.46.4.81.4c.34 0 .61-.13.8-.39.19-.26.29-.68.29-1.26 0-.49-.1-.87-.29-1.14s-.46-.41-.81-.41c-.35 0-.61.13-.8.4s-.28.69-.28 1.25zM60.77 30.15c-.35.42-.83.63-1.45.63-.57 0-1-.16-1.3-.49s-.45-.8-.46-1.43V25.4h1.41v3.42c0 .55.25.83.75.83.48 0 .81-.17.99-.5v-3.74h1.42v5.28H60.8l-.03-.54zM66.17 26.73a3.25 3.25 0 0 0-.51-.04c-.53 0-.88.18-1.05.54v3.46H63.2v-5.28h1.33l.04.63c.28-.48.68-.73 1.18-.73.16 0 .3.02.44.06l-.02 1.36zM33.9 41.69v-4.25h-.79V36.4h.79v-.45c0-.59.17-1.05.51-1.38s.82-.49 1.43-.49c.2 0 .43.03.72.1l-.01 1.09c-.12-.03-.26-.04-.43-.04-.53 0-.8.25-.8.75v.42h1.05v1.04h-1.05v4.25H33.9zM40.26 41.15c-.35.42-.83.63-1.45.63-.57 0-1-.16-1.3-.49s-.45-.8-.46-1.43V36.4h1.41v3.42c0 .55.25.83.75.83.48 0 .81-.17.99-.5v-3.74h1.42v5.28H40.3l-.04-.54zM44.39 35.11v1.3h.9v1.04h-.9v2.64c0 .2.04.34.11.42s.22.13.43.13c.16 0 .29-.01.42-.03v1.07c-.28.08-.56.13-.85.13-.99 0-1.49-.5-1.51-1.5v-2.85h-.79v-1.04h.77v-1.3h1.42zM49.24 41.15c-.35.42-.83.63-1.45.63-.57 0-1-.16-1.3-.49s-.45-.8-.46-1.43V36.4h1.41v3.42c0 .55.25.83.75.83.48 0 .81-.17.99-.5v-3.74h1.42v5.28h-1.33l-.03-.54zM54.64 37.73a3.25 3.25 0 0 0-.51-.04c-.53 0-.88.18-1.05.54v3.46h-1.41v-5.28H53l.04.63c.28-.48.68-.73 1.18-.73.16 0 .3.02.44.06l-.02 1.36zM57.66 41.79c-.77 0-1.41-.24-1.89-.71s-.73-1.11-.73-1.9v-.14c0-.53.1-1 .31-1.42s.5-.74.87-.97.8-.34 1.29-.34c.72 0 1.29.23 1.71.68s.62 1.1.62 1.94v.58h-3.36c.05.35.18.62.41.83s.52.31.87.31c.54 0 .97-.2 1.27-.59l.69.78c-.21.3-.5.53-.86.7s-.76.25-1.2.25zm-.16-4.34c-.28 0-.51.09-.68.28-.17.19-.29.46-.33.81h1.96v-.11c-.01-.31-.09-.56-.25-.73-.17-.17-.4-.25-.7-.25z"/></g></svg>