<?xml version="1.0" encoding="utf-8"?>
<!-- Generator: Adobe Illustrator 24.2.3, SVG Export Plug-In . SVG Version: 6.00 Build 0)  -->
<svg version="1.1" id="Layer_1" xmlns="http://www.w3.org/2000/svg" xmlns:xlink="http://www.w3.org/1999/xlink" x="0px" y="0px"
	 viewBox="0 0 970 250" style="enable-background:new 0 0 970 250;" xml:space="preserve">
<style type="text/css">
	.st0{fill:#021D8B;}
</style>
<g>
	<path class="st0" d="M473.31,80.31c0-0.82,0.27-1.48,0.8-2s1.23-0.77,2.09-0.77c0.88,0,1.58,0.25,2.11,0.75
		c0.53,0.5,0.8,1.15,0.81,1.96v0.48c0,0.82-0.26,1.48-0.79,1.98c-0.53,0.5-1.23,0.75-2.11,0.75c-0.86,0-1.56-0.25-2.09-0.74
		c-0.53-0.49-0.8-1.14-0.82-1.93V80.31z"/>
	<path class="st0" d="M496.19,84.62c0-0.59-0.21-1.05-0.62-1.38s-1.15-0.67-2.2-1.02c-1.05-0.35-1.91-0.69-2.57-1.02
		c-2.17-1.06-3.25-2.52-3.25-4.38c0-0.92,0.27-1.74,0.81-2.45c0.54-0.71,1.3-1.26,2.29-1.65c0.99-0.39,2.1-0.59,3.33-0.59
		c1.2,0,2.28,0.21,3.23,0.64s1.69,1.04,2.22,1.83c0.53,0.79,0.79,1.7,0.79,2.71h-4.02c0-0.68-0.21-1.21-0.62-1.58
		c-0.42-0.37-0.98-0.56-1.69-0.56c-0.72,0-1.29,0.16-1.7,0.48s-0.63,0.72-0.63,1.21c0,0.43,0.23,0.82,0.69,1.16
		c0.46,0.35,1.27,0.71,2.42,1.08c1.15,0.37,2.1,0.77,2.84,1.2c1.81,1.04,2.71,2.47,2.71,4.3c0,1.46-0.55,2.61-1.65,3.44
		c-1.1,0.83-2.61,1.25-4.53,1.25c-1.35,0-2.58-0.24-3.68-0.73s-1.92-1.15-2.48-2c-0.55-0.85-0.83-1.82-0.83-2.92h4.04
		c0,0.9,0.23,1.55,0.69,1.98c0.46,0.42,1.21,0.64,2.25,0.64c0.67,0,1.19-0.14,1.58-0.43C495.99,85.54,496.19,85.14,496.19,84.62z"/>
	<path class="st0" d="M508.11,89.29c-1.9,0-3.45-0.57-4.62-1.7s-1.77-2.61-1.77-4.43v-0.32c0-1.27,0.24-2.39,0.71-3.36
		c0.47-0.97,1.16-1.72,2.06-2.25c0.9-0.53,1.97-0.8,3.21-0.8c1.74,0,3.12,0.54,4.13,1.62c1.01,1.08,1.51,2.59,1.51,4.53v1.5h-7.69
		c0.14,0.7,0.44,1.24,0.91,1.64c0.47,0.4,1.07,0.6,1.81,0.6c1.22,0,2.18-0.43,2.87-1.29l1.77,2.09c-0.48,0.67-1.16,1.2-2.05,1.59
		S509.12,89.29,508.11,89.29z M507.67,79.4c-1.13,0-1.81,0.75-2.02,2.25h3.9v-0.3c0.01-0.62-0.14-1.1-0.47-1.44
		C508.75,79.57,508.28,79.4,507.67,79.4z"/>
	<path class="st0" d="M520.14,86.31c0.54,0,0.96-0.15,1.26-0.44c0.3-0.29,0.44-0.71,0.44-1.23h3.62c0,1.36-0.49,2.48-1.46,3.35
		c-0.97,0.87-2.23,1.31-3.77,1.31c-1.81,0-3.23-0.57-4.27-1.7s-1.56-2.7-1.56-4.7v-0.16c0-1.25,0.23-2.36,0.69-3.32s1.13-1.7,2-2.21
		c0.87-0.52,1.9-0.77,3.1-0.77c1.61,0,2.9,0.45,3.84,1.34c0.95,0.89,1.42,2.11,1.42,3.64h-3.62c0-0.64-0.16-1.14-0.47-1.48
		c-0.31-0.34-0.73-0.52-1.26-0.52c-1,0-1.59,0.64-1.75,1.92c-0.05,0.41-0.08,0.96-0.08,1.68c0,1.25,0.15,2.11,0.45,2.59
		C519.02,86.07,519.49,86.31,520.14,86.31z"/>
	<path class="st0" d="M534.5,87.72c-0.82,1.05-1.92,1.57-3.32,1.57c-1.36,0-2.39-0.4-3.09-1.19c-0.7-0.79-1.05-1.93-1.05-3.41v-8.04
		h3.87v8.07c0,1.06,0.52,1.59,1.55,1.59c0.89,0,1.52-0.32,1.89-0.95v-8.71h3.89v12.42h-3.63L534.5,87.72z"/>
	<path class="st0" d="M547.86,80.15l-1.27-0.09c-1.22,0-2,0.38-2.34,1.15v7.86h-3.87V76.65h3.62l0.13,1.59
		c0.65-1.22,1.56-1.82,2.72-1.82c0.41,0,0.77,0.05,1.08,0.14L547.86,80.15z"/>
	<path class="st0" d="M555.27,89.29c-1.9,0-3.45-0.57-4.62-1.7s-1.77-2.61-1.77-4.43v-0.32c0-1.27,0.24-2.39,0.71-3.36
		c0.47-0.97,1.16-1.72,2.06-2.25c0.9-0.53,1.97-0.8,3.21-0.8c1.74,0,3.12,0.54,4.13,1.62c1.01,1.08,1.51,2.59,1.51,4.53v1.5h-7.69
		c0.14,0.7,0.44,1.24,0.91,1.64c0.47,0.4,1.07,0.6,1.81,0.6c1.22,0,2.18-0.43,2.87-1.29l1.77,2.09c-0.48,0.67-1.16,1.2-2.05,1.59
		S556.28,89.29,555.27,89.29z M554.83,79.4c-1.13,0-1.81,0.75-2.02,2.25h3.9v-0.3c0.01-0.62-0.14-1.1-0.47-1.44
		C555.91,79.57,555.44,79.4,554.83,79.4z"/>
	<path class="st0" d="M568.08,89.06V72.35h6c2.15,0,3.79,0.39,4.91,1.18c1.12,0.79,1.68,1.93,1.68,3.43c0,0.86-0.2,1.6-0.6,2.21
		c-0.4,0.61-0.98,1.06-1.75,1.35c0.87,0.23,1.54,0.66,2.01,1.29c0.47,0.63,0.7,1.39,0.7,2.29c0,1.64-0.52,2.87-1.55,3.69
		c-1.04,0.82-2.57,1.24-4.61,1.26H568.08z M572.11,79.32h2.1c0.88-0.01,1.51-0.17,1.88-0.48c0.38-0.31,0.56-0.78,0.56-1.39
		c0-0.71-0.2-1.21-0.61-1.52c-0.41-0.31-1.06-0.47-1.96-0.47h-1.97V79.32z M572.11,81.96v4h2.64c0.73,0,1.29-0.17,1.67-0.5
		c0.39-0.33,0.58-0.8,0.58-1.41c0-1.39-0.69-2.09-2.08-2.1H572.11z"/>
	<path class="st0" d="M590.57,80.15l-1.27-0.09c-1.22,0-2,0.38-2.34,1.15v7.86h-3.87V76.65h3.62l0.13,1.59
		c0.65-1.22,1.56-1.82,2.72-1.82c0.41,0,0.77,0.05,1.08,0.14L590.57,80.15z"/>
	<path class="st0" d="M591.06,82.74c0-1.24,0.24-2.34,0.72-3.31c0.48-0.97,1.17-1.71,2.08-2.23c0.9-0.52,1.96-0.78,3.18-0.78
		c1.86,0,3.32,0.58,4.39,1.73c1.07,1.15,1.61,2.72,1.61,4.7v0.14c0,1.94-0.54,3.47-1.61,4.61c-1.07,1.14-2.53,1.7-4.37,1.7
		c-1.77,0-3.19-0.53-4.26-1.59c-1.07-1.06-1.65-2.5-1.73-4.31L591.06,82.74z M594.93,82.98c0,1.15,0.18,1.99,0.54,2.52
		c0.36,0.54,0.89,0.8,1.59,0.8c1.38,0,2.08-1.06,2.11-3.18v-0.39c0-2.23-0.71-3.34-2.13-3.34c-1.29,0-1.99,0.96-2.1,2.88
		L594.93,82.98z"/>
	<path class="st0" d="M615.47,83.97l1.25-7.32h3.71l-2.93,12.42h-3.27l-2.05-7.37l-2.07,7.37h-3.27l-2.93-12.42h3.71l1.23,7.49
		l1.97-7.49h2.7L615.47,83.97z"/>
	<path class="st0" d="M628.31,85.57c0-0.33-0.17-0.59-0.52-0.79c-0.34-0.2-1-0.41-1.96-0.62c-0.96-0.21-1.76-0.5-2.39-0.84
		c-0.63-0.35-1.11-0.77-1.43-1.27s-0.49-1.07-0.49-1.71c0-1.14,0.47-2.08,1.41-2.82c0.94-0.74,2.17-1.11,3.69-1.11
		c1.64,0,2.95,0.37,3.95,1.11s1.49,1.72,1.49,2.93h-3.88c0-0.99-0.52-1.49-1.57-1.49c-0.41,0-0.75,0.11-1.02,0.34
		s-0.41,0.51-0.41,0.84c0,0.34,0.17,0.62,0.5,0.84c0.34,0.21,0.87,0.39,1.61,0.53c0.74,0.14,1.39,0.3,1.95,0.49
		c1.87,0.64,2.8,1.79,2.8,3.45c0,1.13-0.5,2.05-1.51,2.76c-1.01,0.71-2.31,1.07-3.91,1.07c-1.06,0-2.01-0.19-2.85-0.57
		c-0.83-0.38-1.48-0.9-1.95-1.56c-0.47-0.66-0.7-1.35-0.7-2.08h3.61c0.02,0.57,0.21,0.99,0.57,1.26c0.37,0.26,0.84,0.4,1.41,0.4
		c0.53,0,0.92-0.11,1.19-0.32S628.31,85.92,628.31,85.57z"/>
	<path class="st0" d="M639.85,89.29c-1.9,0-3.45-0.57-4.62-1.7s-1.77-2.61-1.77-4.43v-0.32c0-1.27,0.24-2.39,0.71-3.36
		c0.47-0.97,1.16-1.72,2.06-2.25c0.9-0.53,1.97-0.8,3.21-0.8c1.74,0,3.12,0.54,4.13,1.62c1.01,1.08,1.51,2.59,1.51,4.53v1.5h-7.69
		c0.14,0.7,0.44,1.24,0.91,1.64c0.47,0.4,1.07,0.6,1.81,0.6c1.22,0,2.18-0.43,2.87-1.29l1.77,2.09c-0.48,0.67-1.16,1.2-2.05,1.59
		S640.87,89.29,639.85,89.29z M639.42,79.4c-1.13,0-1.81,0.75-2.02,2.25h3.9v-0.3c0.01-0.62-0.14-1.1-0.47-1.44
		C640.5,79.57,640.03,79.4,639.42,79.4z"/>
	<path class="st0" d="M654.15,80.15l-1.27-0.09c-1.22,0-2,0.38-2.34,1.15v7.86h-3.87V76.65h3.62l0.13,1.59
		c0.65-1.22,1.56-1.82,2.72-1.82c0.41,0,0.77,0.05,1.08,0.14L654.15,80.15z"/>
	<path class="st0" d="M667.7,80.31c0-0.82,0.27-1.48,0.8-2s1.23-0.77,2.09-0.77c0.88,0,1.58,0.25,2.11,0.75
		c0.53,0.5,0.8,1.15,0.81,1.96v0.48c0,0.82-0.26,1.48-0.79,1.98c-0.53,0.5-1.23,0.75-2.11,0.75c-0.86,0-1.56-0.25-2.09-0.74
		c-0.53-0.49-0.8-1.14-0.82-1.93V80.31z"/>
	<path class="st0" d="M690.58,84.62c0-0.59-0.21-1.05-0.62-1.38s-1.15-0.67-2.2-1.02c-1.05-0.35-1.91-0.69-2.57-1.02
		c-2.17-1.06-3.25-2.52-3.25-4.38c0-0.92,0.27-1.74,0.81-2.45c0.54-0.71,1.3-1.26,2.29-1.65c0.99-0.39,2.1-0.59,3.33-0.59
		c1.2,0,2.28,0.21,3.23,0.64s1.69,1.04,2.22,1.83c0.53,0.79,0.79,1.7,0.79,2.71h-4.02c0-0.68-0.21-1.21-0.62-1.58
		c-0.42-0.37-0.98-0.56-1.69-0.56c-0.72,0-1.29,0.16-1.7,0.48s-0.63,0.72-0.63,1.21c0,0.43,0.23,0.82,0.69,1.16
		c0.46,0.35,1.27,0.71,2.42,1.08c1.15,0.37,2.1,0.77,2.84,1.2c1.81,1.04,2.71,2.47,2.71,4.3c0,1.46-0.55,2.61-1.65,3.44
		c-1.1,0.83-2.61,1.25-4.53,1.25c-1.35,0-2.58-0.24-3.68-0.73s-1.92-1.15-2.48-2c-0.55-0.85-0.83-1.82-0.83-2.92h4.04
		c0,0.9,0.23,1.55,0.69,1.98c0.46,0.42,1.21,0.64,2.25,0.64c0.67,0,1.19-0.14,1.58-0.43C690.38,85.54,690.58,85.14,690.58,84.62z"/>
	<path class="st0" d="M702.5,89.29c-1.9,0-3.45-0.57-4.62-1.7s-1.77-2.61-1.77-4.43v-0.32c0-1.27,0.24-2.39,0.71-3.36
		c0.47-0.97,1.16-1.72,2.06-2.25c0.9-0.53,1.97-0.8,3.21-0.8c1.74,0,3.12,0.54,4.13,1.62c1.01,1.08,1.51,2.59,1.51,4.53v1.5h-7.69
		c0.14,0.7,0.44,1.24,0.91,1.64c0.47,0.4,1.07,0.6,1.81,0.6c1.22,0,2.18-0.43,2.87-1.29l1.77,2.09c-0.48,0.67-1.16,1.2-2.05,1.59
		S703.52,89.29,702.5,89.29z M702.06,79.4c-1.13,0-1.81,0.75-2.02,2.25h3.9v-0.3c0.01-0.62-0.14-1.1-0.47-1.44
		C703.15,79.57,702.67,79.4,702.06,79.4z"/>
	<path class="st0" d="M714.54,86.31c0.54,0,0.96-0.15,1.26-0.44c0.3-0.29,0.44-0.71,0.44-1.23h3.62c0,1.36-0.49,2.48-1.46,3.35
		c-0.97,0.87-2.23,1.31-3.77,1.31c-1.81,0-3.23-0.57-4.27-1.7s-1.56-2.7-1.56-4.7v-0.16c0-1.25,0.23-2.36,0.69-3.32s1.13-1.7,2-2.21
		c0.87-0.52,1.9-0.77,3.1-0.77c1.61,0,2.9,0.45,3.84,1.34c0.95,0.89,1.42,2.11,1.42,3.64h-3.62c0-0.64-0.16-1.14-0.47-1.48
		c-0.31-0.34-0.73-0.52-1.26-0.52c-1,0-1.59,0.64-1.75,1.92c-0.05,0.41-0.08,0.96-0.08,1.68c0,1.25,0.15,2.11,0.45,2.59
		C713.41,86.07,713.89,86.31,714.54,86.31z"/>
	<path class="st0" d="M728.89,87.72c-0.82,1.05-1.92,1.57-3.32,1.57c-1.36,0-2.39-0.4-3.09-1.19c-0.7-0.79-1.05-1.93-1.05-3.41
		v-8.04h3.87v8.07c0,1.06,0.52,1.59,1.55,1.59c0.89,0,1.52-0.32,1.89-0.95v-8.71h3.89v12.42H729L728.89,87.72z"/>
	<path class="st0" d="M742.26,80.15l-1.27-0.09c-1.22,0-2,0.38-2.34,1.15v7.86h-3.87V76.65h3.62l0.13,1.59
		c0.65-1.22,1.56-1.82,2.72-1.82c0.41,0,0.77,0.05,1.08,0.14L742.26,80.15z"/>
	<path class="st0" d="M749.66,89.29c-1.9,0-3.45-0.57-4.62-1.7s-1.77-2.61-1.77-4.43v-0.32c0-1.27,0.24-2.39,0.71-3.36
		c0.47-0.97,1.16-1.72,2.06-2.25c0.9-0.53,1.97-0.8,3.21-0.8c1.74,0,3.12,0.54,4.13,1.62c1.01,1.08,1.51,2.59,1.51,4.53v1.5h-7.69
		c0.14,0.7,0.44,1.24,0.91,1.64c0.47,0.4,1.07,0.6,1.81,0.6c1.22,0,2.18-0.43,2.87-1.29l1.77,2.09c-0.48,0.67-1.16,1.2-2.05,1.59
		S750.67,89.29,749.66,89.29z M749.22,79.4c-1.13,0-1.81,0.75-2.02,2.25h3.9v-0.3c0.01-0.62-0.14-1.1-0.47-1.44
		C750.3,79.57,749.83,79.4,749.22,79.4z"/>
	<path class="st0" d="M768.15,82.84l-1.65,1.81v4.41h-4.03V72.35h4.03v7.37l1.4-2.12l3.6-5.24h4.98l-5.64,7.39l5.64,9.32h-4.77
		L768.15,82.84z"/>
	<path class="st0" d="M783.33,89.29c-1.9,0-3.45-0.57-4.62-1.7s-1.77-2.61-1.77-4.43v-0.32c0-1.27,0.24-2.39,0.71-3.36
		c0.47-0.97,1.16-1.72,2.06-2.25c0.9-0.53,1.97-0.8,3.21-0.8c1.74,0,3.12,0.54,4.13,1.62c1.01,1.08,1.51,2.59,1.51,4.53v1.5h-7.69
		c0.14,0.7,0.44,1.24,0.91,1.64c0.47,0.4,1.07,0.6,1.81,0.6c1.22,0,2.18-0.43,2.87-1.29l1.77,2.09c-0.48,0.67-1.16,1.2-2.05,1.59
		S784.35,89.29,783.33,89.29z M782.9,79.4c-1.13,0-1.81,0.75-2.02,2.25h3.9v-0.3c0.01-0.62-0.14-1.1-0.47-1.44
		C783.98,79.57,783.51,79.4,782.9,79.4z"/>
	<path class="st0" d="M795.08,83.64l2.07-7h4.14l-5.06,14.49l-0.22,0.53c-0.72,1.61-1.99,2.41-3.81,2.41c-0.5,0-1.04-0.08-1.59-0.23
		v-2.75h0.5c0.54,0,0.96-0.08,1.24-0.24c0.29-0.16,0.5-0.44,0.64-0.84l0.31-0.83l-4.31-12.54h4.13L795.08,83.64z"/>
	<path class="st0" d="M813.82,82.96c0,2.04-0.42,3.6-1.26,4.69s-2.03,1.64-3.56,1.64c-1.26,0-2.28-0.5-3.05-1.5l-0.16,1.27h-3.46
		V71.44h3.87v6.21c0.72-0.82,1.65-1.23,2.79-1.23c1.54,0,2.74,0.55,3.58,1.66s1.26,2.67,1.26,4.68V82.96z M809.94,82.71
		c0-1.19-0.16-2.04-0.48-2.55s-0.81-0.76-1.46-0.76c-0.87,0-1.48,0.33-1.81,1v4.92c0.33,0.66,0.94,0.99,1.84,0.99
		c0.91,0,1.49-0.44,1.73-1.33C809.88,84.54,809.94,83.79,809.94,82.71z"/>
	<path class="st0" d="M815.04,82.74c0-1.24,0.24-2.34,0.72-3.31c0.48-0.97,1.17-1.71,2.08-2.23c0.9-0.52,1.96-0.78,3.18-0.78
		c1.86,0,3.32,0.58,4.39,1.73c1.07,1.15,1.61,2.72,1.61,4.7v0.14c0,1.94-0.54,3.47-1.61,4.61c-1.07,1.14-2.53,1.7-4.37,1.7
		c-1.77,0-3.19-0.53-4.26-1.59c-1.07-1.06-1.65-2.5-1.73-4.31L815.04,82.74z M818.9,82.98c0,1.15,0.18,1.99,0.54,2.52
		c0.36,0.54,0.89,0.8,1.59,0.8c1.38,0,2.08-1.06,2.11-3.18v-0.39c0-2.23-0.71-3.34-2.13-3.34c-1.29,0-1.99,0.96-2.1,2.88
		L818.9,82.98z"/>
	<path class="st0" d="M835.71,89.06c-0.14-0.25-0.26-0.62-0.37-1.11c-0.71,0.9-1.71,1.34-2.98,1.34c-1.17,0-2.17-0.35-2.98-1.06
		c-0.82-0.71-1.23-1.6-1.23-2.67c0-1.35,0.5-2.36,1.49-3.05s2.44-1.03,4.34-1.03h1.19v-0.66c0-1.15-0.49-1.72-1.48-1.72
		c-0.92,0-1.38,0.45-1.38,1.36h-3.87c0-1.2,0.51-2.17,1.53-2.92c1.02-0.75,2.32-1.12,3.91-1.12c1.58,0,2.83,0.39,3.75,1.16
		s1.39,1.83,1.41,3.18v5.5c0.01,1.14,0.19,2.01,0.53,2.62v0.2H835.71z M833.29,86.54c0.48,0,0.88-0.1,1.2-0.31
		c0.32-0.21,0.54-0.44,0.68-0.7v-1.98h-1.12c-1.35,0-2.02,0.6-2.02,1.81c0,0.35,0.12,0.64,0.36,0.85
		C832.62,86.43,832.92,86.54,833.29,86.54z"/>
	<path class="st0" d="M848.7,80.15l-1.27-0.09c-1.22,0-2,0.38-2.34,1.15v7.86h-3.87V76.65h3.62l0.13,1.59
		c0.65-1.22,1.56-1.82,2.72-1.82c0.41,0,0.77,0.05,1.08,0.14L848.7,80.15z"/>
	<path class="st0" d="M849.61,82.76c0-1.97,0.42-3.52,1.27-4.65c0.85-1.13,2.04-1.7,3.56-1.7c1.11,0,2.04,0.44,2.8,1.31v-6.29h3.88
		v17.62h-3.48l-0.2-1.33c-0.8,1.04-1.81,1.56-3.03,1.56c-1.48,0-2.65-0.57-3.51-1.7C850.04,86.46,849.61,84.85,849.61,82.76z
		 M853.47,83c0,2.2,0.64,3.3,1.93,3.3c0.86,0,1.47-0.36,1.84-1.08V80.5c-0.35-0.73-0.96-1.1-1.81-1.1c-1.19,0-1.84,0.96-1.94,2.89
		L853.47,83z"/>
</g>
</svg>
