<?xml version="1.0" encoding="utf-8"?>
<!-- Generator: Adobe Illustrator 24.2.3, SVG Export Plug-In . SVG Version: 6.00 Build 0)  -->
<svg version="1.1" id="Layer_1" xmlns="http://www.w3.org/2000/svg" xmlns:xlink="http://www.w3.org/1999/xlink" x="0px" y="0px"
	 viewBox="0 0 320 100" style="enable-background:new 0 0 320 100;" xml:space="preserve">
<style type="text/css">
	.st0{fill:url(#SVGID_1_);}
</style>
<linearGradient id="SVGID_1_" gradientUnits="userSpaceOnUse" x1="16.6575" y1="71.5237" x2="234.6995" y2="71.5237">
	<stop  offset="0" style="stop-color:#18B9FB"/>
	<stop  offset="0.5" style="stop-color:#782EEB"/>
	<stop  offset="1" style="stop-color:#E82D8A"/>
</linearGradient>
<path class="st0" d="M21.04,62.78h-1.39v3.77h-2.57V55.88h4.2c1.26,0,2.25,0.28,2.97,0.84c0.71,0.56,1.07,1.35,1.07,2.38
	c0,0.74-0.15,1.36-0.45,1.84c-0.3,0.49-0.77,0.88-1.41,1.19l2.23,4.31v0.11h-2.75L21.04,62.78z M19.65,60.8h1.62
	c0.49,0,0.86-0.13,1.1-0.38c0.25-0.26,0.37-0.62,0.37-1.08s-0.12-0.82-0.37-1.08c-0.25-0.26-0.62-0.39-1.1-0.39h-1.62V60.8z
	 M30.59,66.69c-1.22,0-2.2-0.36-2.95-1.09c-0.75-0.72-1.13-1.67-1.13-2.83v-0.21c0-0.81,0.15-1.53,0.45-2.15
	c0.3-0.62,0.74-1.1,1.31-1.44c0.58-0.34,1.26-0.51,2.05-0.51c1.11,0,1.99,0.35,2.64,1.04c0.64,0.69,0.97,1.65,0.97,2.89v0.96h-4.91
	c0.09,0.44,0.28,0.79,0.58,1.05s0.68,0.38,1.16,0.38c0.78,0,1.39-0.27,1.83-0.82l1.13,1.33c-0.31,0.42-0.74,0.76-1.31,1.01
	C31.84,66.57,31.24,66.69,30.59,66.69z M30.31,60.38c-0.72,0-1.15,0.48-1.29,1.44h2.49v-0.19c0.01-0.4-0.09-0.7-0.3-0.92
	C31,60.49,30.7,60.38,30.31,60.38z M37.99,63.61l1.25-4.99h2.6l-2.59,7.92h-2.52l-2.58-7.92h2.61L37.99,63.61z M42.56,56.58
	c0-0.35,0.13-0.64,0.38-0.86s0.58-0.34,0.99-0.34s0.74,0.11,0.99,0.34s0.38,0.51,0.38,0.86s-0.13,0.64-0.38,0.87
	s-0.58,0.34-0.99,0.34s-0.73-0.11-0.99-0.34S42.56,56.93,42.56,56.58z M45.18,66.55H42.7v-7.92h2.48V66.55z M50.53,66.69
	c-1.22,0-2.2-0.36-2.95-1.09c-0.75-0.72-1.13-1.67-1.13-2.83v-0.21c0-0.81,0.15-1.53,0.45-2.15c0.3-0.62,0.74-1.1,1.31-1.44
	c0.58-0.34,1.26-0.51,2.05-0.51c1.11,0,1.99,0.35,2.64,1.04c0.64,0.69,0.97,1.65,0.97,2.89v0.96h-4.91
	c0.09,0.44,0.28,0.79,0.58,1.05s0.68,0.38,1.16,0.38c0.78,0,1.39-0.27,1.83-0.82l1.13,1.33c-0.31,0.42-0.74,0.76-1.31,1.01
	C51.79,66.57,51.18,66.69,50.53,66.69z M50.25,60.38c-0.72,0-1.15,0.48-1.29,1.44h2.49v-0.19c0.01-0.4-0.09-0.7-0.3-0.92
	C50.94,60.49,50.64,60.38,50.25,60.38z M61.71,63.3l0.8-4.67h2.37l-1.87,7.92h-2.09l-1.31-4.7l-1.32,4.7H56.2l-1.87-7.92h2.37
	l0.78,4.78l1.26-4.78h1.72L61.71,63.3z M72.66,63.09l1.32-4.47h2.64l-3.23,9.25l-0.14,0.34c-0.46,1.03-1.27,1.54-2.43,1.54
	c-0.32,0-0.66-0.05-1.02-0.15v-1.76h0.32c0.35,0,0.61-0.05,0.79-0.15c0.18-0.1,0.32-0.28,0.41-0.54l0.2-0.53l-2.75-8h2.64
	L72.66,63.09z M76.84,62.51c0-0.79,0.15-1.5,0.46-2.11c0.31-0.62,0.75-1.09,1.33-1.42s1.25-0.5,2.03-0.5c1.19,0,2.12,0.37,2.8,1.1
	c0.68,0.73,1.03,1.73,1.03,3v0.09c0,1.24-0.34,2.22-1.03,2.94c-0.69,0.73-1.62,1.09-2.79,1.09c-1.13,0-2.03-0.34-2.72-1.01
	c-0.68-0.68-1.05-1.59-1.11-2.75L76.84,62.51z M79.31,62.67c0,0.73,0.11,1.27,0.34,1.61c0.23,0.34,0.57,0.51,1.02,0.51
	c0.88,0,1.33-0.68,1.35-2.03v-0.25c0-1.42-0.45-2.13-1.36-2.13c-0.83,0-1.27,0.61-1.34,1.84L79.31,62.67z M90.29,65.69
	c-0.52,0.67-1.23,1-2.12,1c-0.87,0-1.53-0.25-1.97-0.76c-0.45-0.51-0.67-1.23-0.67-2.18v-5.13H88v5.15c0,0.68,0.33,1.02,0.99,1.02
	c0.57,0,0.97-0.2,1.21-0.61v-5.56h2.48v7.92h-2.31L90.29,65.69z M98.83,60.86l-0.81-0.06c-0.78,0-1.27,0.25-1.49,0.73v5.02h-2.47
	v-7.92h2.31l0.08,1.02c0.42-0.78,0.99-1.17,1.74-1.17c0.26,0,0.49,0.03,0.69,0.09L98.83,60.86z M106.33,56.65v1.97h1.3v1.71h-1.3
	v3.62c0,0.3,0.05,0.51,0.16,0.62c0.11,0.12,0.32,0.18,0.64,0.18c0.24,0,0.45-0.01,0.62-0.04v1.76c-0.44,0.14-0.91,0.21-1.39,0.21
	c-0.85,0-1.48-0.2-1.88-0.6c-0.41-0.4-0.61-1.01-0.61-1.82v-3.93h-1.01v-1.71h1.01v-1.97H106.33z M113.4,60.86l-0.81-0.06
	c-0.78,0-1.27,0.25-1.49,0.73v5.02h-2.47v-7.92h2.31l0.08,1.02c0.42-0.78,0.99-1.17,1.74-1.17c0.26,0,0.49,0.03,0.69,0.09
	L113.4,60.86z M114.27,56.58c0-0.35,0.13-0.64,0.38-0.86s0.58-0.34,0.99-0.34s0.74,0.11,0.99,0.34s0.38,0.51,0.38,0.86
	s-0.13,0.64-0.38,0.87s-0.58,0.34-0.99,0.34s-0.73-0.11-0.99-0.34S114.27,56.93,114.27,56.58z M116.89,66.55h-2.48v-7.92h2.48V66.55
	z M125.77,62.64c0,1.23-0.28,2.21-0.83,2.95c-0.55,0.74-1.3,1.1-2.25,1.1c-0.73,0-1.33-0.27-1.79-0.8v3.7h-2.47V58.62h2.31
	l0.07,0.73c0.47-0.59,1.1-0.88,1.87-0.88c0.98,0,1.74,0.36,2.28,1.08c0.54,0.72,0.81,1.71,0.81,2.97V62.64z M123.3,62.49
	c0-1.41-0.41-2.11-1.23-2.11c-0.59,0-0.98,0.21-1.17,0.63v3.12c0.21,0.44,0.61,0.66,1.19,0.66c0.79,0,1.19-0.68,1.22-2.04V62.49z
	 M129.46,66.55h-2.48V55.3h2.48V66.55z M134.81,66.69c-1.22,0-2.2-0.36-2.95-1.09c-0.75-0.72-1.13-1.67-1.13-2.83v-0.21
	c0-0.81,0.15-1.53,0.45-2.15c0.3-0.62,0.74-1.1,1.31-1.44c0.58-0.34,1.26-0.51,2.05-0.51c1.11,0,1.99,0.35,2.64,1.04
	c0.64,0.69,0.97,1.65,0.97,2.89v0.96h-4.91c0.09,0.44,0.28,0.79,0.58,1.05s0.68,0.38,1.16,0.38c0.78,0,1.39-0.27,1.83-0.82
	l1.13,1.33c-0.31,0.42-0.74,0.76-1.31,1.01C136.07,66.57,135.46,66.69,134.81,66.69z M134.53,60.38c-0.72,0-1.15,0.48-1.29,1.44
	h2.49v-0.19c0.01-0.4-0.09-0.7-0.3-0.92C135.22,60.49,134.92,60.38,134.53,60.38z M143.97,62.9h-4.4V61h4.4V62.9z M153.25,62.65
	c0,1.3-0.27,2.3-0.8,3c-0.54,0.7-1.29,1.05-2.27,1.05c-0.8,0-1.46-0.32-1.95-0.96l-0.1,0.81h-2.21V55.3h2.47v3.96
	c0.46-0.52,1.05-0.78,1.78-0.78c0.99,0,1.75,0.35,2.29,1.06c0.54,0.71,0.8,1.71,0.8,2.99V62.65z M150.77,62.49
	c0-0.76-0.1-1.3-0.3-1.63c-0.2-0.32-0.51-0.49-0.93-0.49c-0.56,0-0.94,0.21-1.16,0.64v3.14c0.21,0.42,0.6,0.63,1.17,0.63
	c0.58,0,0.95-0.28,1.11-0.85C150.73,63.66,150.77,63.18,150.77,62.49z M159.05,65.69c-0.52,0.67-1.23,1-2.12,1
	c-0.87,0-1.53-0.25-1.97-0.76c-0.45-0.51-0.67-1.23-0.67-2.18v-5.13h2.47v5.15c0,0.68,0.33,1.02,0.99,1.02
	c0.57,0,0.97-0.2,1.21-0.61v-5.56h2.48v7.92h-2.31L159.05,65.69z M167.59,60.86l-0.81-0.06c-0.78,0-1.27,0.25-1.49,0.73v5.02h-2.47
	v-7.92h2.31l0.08,1.02c0.42-0.78,0.99-1.17,1.74-1.17c0.26,0,0.49,0.03,0.69,0.09L167.59,60.86z M172.17,66.69
	c-1.22,0-2.2-0.36-2.95-1.09c-0.75-0.72-1.13-1.67-1.13-2.83v-0.21c0-0.81,0.15-1.53,0.45-2.15c0.3-0.62,0.74-1.1,1.31-1.44
	c0.58-0.34,1.26-0.51,2.05-0.51c1.11,0,1.99,0.35,2.64,1.04c0.64,0.69,0.97,1.65,0.97,2.89v0.96h-4.91
	c0.09,0.44,0.28,0.79,0.58,1.05s0.68,0.38,1.16,0.38c0.78,0,1.39-0.27,1.83-0.82l1.13,1.33c-0.31,0.42-0.74,0.76-1.31,1.01
	C173.43,66.57,172.82,66.69,172.17,66.69z M171.89,60.38c-0.72,0-1.15,0.48-1.29,1.44h2.49v-0.19c0.01-0.4-0.09-0.7-0.3-0.92
	C172.58,60.49,172.28,60.38,171.89,60.38z M180.97,66.55c-0.09-0.16-0.17-0.4-0.23-0.71c-0.45,0.57-1.09,0.86-1.9,0.86
	c-0.75,0-1.38-0.23-1.9-0.68c-0.52-0.45-0.78-1.02-0.78-1.7c0-0.86,0.32-1.51,0.95-1.95s1.56-0.66,2.77-0.66h0.76v-0.42
	c0-0.73-0.32-1.1-0.95-1.1c-0.59,0-0.88,0.29-0.88,0.87h-2.47c0-0.77,0.33-1.39,0.98-1.87c0.65-0.48,1.48-0.72,2.49-0.72
	c1.01,0,1.81,0.25,2.39,0.74c0.59,0.49,0.89,1.17,0.9,2.03v3.51c0.01,0.73,0.12,1.29,0.34,1.67v0.12H180.97z M179.42,64.94
	c0.31,0,0.56-0.07,0.76-0.2c0.2-0.13,0.35-0.28,0.44-0.45v-1.27h-0.72c-0.86,0-1.29,0.39-1.29,1.16c0,0.22,0.08,0.41,0.23,0.54
	C179,64.87,179.19,64.94,179.42,64.94z M189.19,65.69c-0.52,0.67-1.23,1-2.12,1c-0.87,0-1.53-0.25-1.97-0.76
	c-0.45-0.51-0.67-1.23-0.67-2.18v-5.13h2.47v5.15c0,0.68,0.33,1.02,0.99,1.02c0.57,0,0.97-0.2,1.21-0.61v-5.56h2.48v7.92h-2.31
	L189.19,65.69z M20.32,82.79c0.35,0,0.62-0.09,0.81-0.28c0.19-0.19,0.28-0.45,0.28-0.79h2.31c0,0.87-0.31,1.58-0.93,2.14
	c-0.62,0.56-1.42,0.83-2.41,0.83c-1.15,0-2.06-0.36-2.72-1.08s-1-1.72-1-3v-0.1c0-0.8,0.15-1.51,0.44-2.12
	c0.29-0.61,0.72-1.08,1.28-1.41c0.56-0.33,1.22-0.49,1.98-0.49c1.03,0,1.85,0.29,2.45,0.86c0.61,0.57,0.91,1.35,0.91,2.32H21.4
	c0-0.41-0.1-0.72-0.3-0.95c-0.2-0.22-0.47-0.33-0.8-0.33c-0.64,0-1.01,0.41-1.12,1.22c-0.03,0.26-0.05,0.62-0.05,1.07
	c0,0.8,0.09,1.35,0.29,1.66C19.6,82.64,19.9,82.79,20.32,82.79z M29.56,78.86l-0.81-0.06c-0.78,0-1.27,0.25-1.49,0.73v5.02h-2.47
	v-7.92h2.31l0.08,1.02c0.42-0.78,0.99-1.17,1.74-1.17c0.26,0,0.49,0.03,0.69,0.09L29.56,78.86z M34.14,84.69
	c-1.22,0-2.2-0.36-2.95-1.09c-0.75-0.72-1.13-1.67-1.13-2.83v-0.21c0-0.81,0.15-1.53,0.45-2.15c0.3-0.62,0.74-1.1,1.31-1.44
	c0.58-0.34,1.26-0.51,2.05-0.51c1.11,0,1.99,0.35,2.64,1.04c0.64,0.69,0.97,1.65,0.97,2.89v0.96h-4.91
	c0.09,0.44,0.28,0.79,0.58,1.05s0.68,0.38,1.16,0.38c0.78,0,1.39-0.27,1.83-0.82l1.13,1.33c-0.31,0.42-0.74,0.76-1.31,1.01
	C35.4,84.57,34.79,84.69,34.14,84.69z M33.86,78.38c-0.72,0-1.15,0.48-1.29,1.44h2.49v-0.19c0.01-0.4-0.09-0.7-0.3-0.92
	C34.55,78.49,34.25,78.38,33.86,78.38z M38.16,80.53c0-1.25,0.27-2.24,0.81-2.97c0.54-0.72,1.3-1.08,2.27-1.08
	c0.71,0,1.3,0.28,1.79,0.83V73.3h2.47v11.25h-2.22l-0.12-0.85c-0.51,0.66-1.15,1-1.93,1c-0.94,0-1.69-0.36-2.24-1.08
	C38.44,82.89,38.16,81.86,38.16,80.53z M40.63,80.68c0,1.41,0.41,2.11,1.23,2.11c0.55,0,0.94-0.23,1.17-0.69v-3.02
	c-0.23-0.47-0.61-0.7-1.16-0.7c-0.76,0-1.17,0.62-1.24,1.85L40.63,80.68z M46.89,74.58c0-0.35,0.13-0.64,0.38-0.86
	s0.58-0.34,0.99-0.34s0.74,0.11,0.99,0.34s0.38,0.51,0.38,0.86s-0.13,0.64-0.38,0.87s-0.58,0.34-0.99,0.34s-0.73-0.11-0.99-0.34
	S46.89,74.93,46.89,74.58z M49.51,84.55h-2.48v-7.92h2.48V84.55z M53.91,74.65v1.97h1.3v1.71h-1.3v3.62c0,0.3,0.05,0.51,0.16,0.62
	c0.11,0.12,0.32,0.18,0.64,0.18c0.24,0,0.45-0.01,0.62-0.04v1.76c-0.44,0.14-0.91,0.21-1.39,0.21c-0.85,0-1.48-0.2-1.88-0.6
	c-0.41-0.4-0.61-1.01-0.61-1.82v-3.93h-1.01v-1.71h1.01v-1.97H53.91z M64.71,78.86L63.9,78.8c-0.78,0-1.27,0.25-1.49,0.73v5.02
	h-2.47v-7.92h2.31l0.08,1.02c0.42-0.78,0.99-1.17,1.74-1.17c0.26,0,0.49,0.03,0.69,0.09L64.71,78.86z M69.3,84.69
	c-1.22,0-2.2-0.36-2.95-1.09c-0.75-0.72-1.13-1.67-1.13-2.83v-0.21c0-0.81,0.15-1.53,0.45-2.15c0.3-0.62,0.74-1.1,1.31-1.44
	c0.58-0.34,1.26-0.51,2.05-0.51c1.11,0,1.99,0.35,2.64,1.04c0.64,0.69,0.97,1.65,0.97,2.89v0.96h-4.91
	c0.09,0.44,0.28,0.79,0.58,1.05s0.68,0.38,1.16,0.38c0.78,0,1.39-0.27,1.83-0.82l1.13,1.33c-0.31,0.42-0.74,0.76-1.31,1.01
	C70.55,84.57,69.95,84.69,69.3,84.69z M69.02,78.38c-0.72,0-1.15,0.48-1.29,1.44h2.49v-0.19c0.01-0.4-0.09-0.7-0.3-0.92
	C69.71,78.49,69.41,78.38,69.02,78.38z M80.99,80.64c0,1.23-0.28,2.21-0.83,2.95c-0.55,0.74-1.3,1.1-2.25,1.1
	c-0.73,0-1.33-0.27-1.79-0.8v3.7h-2.47V76.62h2.31l0.07,0.73c0.47-0.59,1.1-0.88,1.87-0.88c0.98,0,1.74,0.36,2.28,1.08
	c0.54,0.72,0.81,1.71,0.81,2.97V80.64z M78.52,80.49c0-1.41-0.41-2.11-1.23-2.11c-0.59,0-0.98,0.21-1.17,0.63v3.12
	c0.21,0.44,0.61,0.66,1.19,0.66c0.79,0,1.19-0.68,1.22-2.04V80.49z M81.76,80.51c0-0.79,0.15-1.5,0.46-2.11
	c0.31-0.62,0.75-1.09,1.33-1.42s1.25-0.5,2.03-0.5c1.19,0,2.12,0.37,2.8,1.1c0.68,0.73,1.03,1.73,1.03,3v0.09
	c0,1.24-0.34,2.22-1.03,2.94c-0.69,0.73-1.62,1.09-2.79,1.09c-1.13,0-2.03-0.34-2.72-1.01c-0.68-0.68-1.05-1.59-1.11-2.75
	L81.76,80.51z M84.23,80.67c0,0.73,0.11,1.27,0.34,1.61s0.57,0.51,1.02,0.51c0.88,0,1.33-0.68,1.35-2.03v-0.25
	c0-1.42-0.45-2.13-1.36-2.13c-0.83,0-1.27,0.61-1.34,1.84L84.23,80.67z M95.29,78.86l-0.81-0.06c-0.78,0-1.27,0.25-1.49,0.73v5.02
	h-2.47v-7.92h2.31l0.08,1.02c0.42-0.78,0.99-1.17,1.74-1.17c0.26,0,0.49,0.03,0.69,0.09L95.29,78.86z M99.42,74.65v1.97h1.3v1.71
	h-1.3v3.62c0,0.3,0.05,0.51,0.16,0.62c0.11,0.12,0.32,0.18,0.64,0.18c0.24,0,0.45-0.01,0.62-0.04v1.76
	c-0.44,0.14-0.91,0.21-1.39,0.21c-0.85,0-1.48-0.2-1.88-0.6c-0.41-0.4-0.61-1.01-0.61-1.82v-3.93h-1.01v-1.71h1.01v-1.97H99.42z
	 M105.84,82.32c0-0.21-0.11-0.38-0.33-0.51c-0.22-0.13-0.64-0.26-1.25-0.39s-1.12-0.32-1.52-0.54c-0.4-0.22-0.71-0.49-0.92-0.81
	s-0.31-0.68-0.31-1.09c0-0.73,0.3-1.33,0.9-1.8c0.6-0.47,1.39-0.71,2.36-0.71c1.04,0,1.88,0.24,2.52,0.71
	c0.63,0.47,0.95,1.1,0.95,1.87h-2.48c0-0.63-0.33-0.95-1-0.95c-0.26,0-0.48,0.07-0.65,0.22c-0.18,0.14-0.26,0.32-0.26,0.54
	c0,0.22,0.11,0.4,0.32,0.54s0.56,0.25,1.03,0.34c0.47,0.09,0.88,0.19,1.24,0.32c1.19,0.41,1.79,1.14,1.79,2.2
	c0,0.72-0.32,1.31-0.96,1.76c-0.64,0.46-1.47,0.68-2.49,0.68c-0.68,0-1.28-0.12-1.82-0.37s-0.95-0.58-1.25-1s-0.45-0.86-0.45-1.33
	h2.31c0.01,0.37,0.13,0.63,0.37,0.8c0.23,0.17,0.54,0.25,0.9,0.25c0.34,0,0.59-0.07,0.76-0.21
	C105.76,82.72,105.84,82.54,105.84,82.32z M114.7,78.93c-0.29-0.41-0.51-0.8-0.68-1.17c-0.16-0.37-0.25-0.75-0.25-1.15
	c0-0.86,0.28-1.55,0.83-2.08c0.56-0.53,1.28-0.79,2.18-0.79c0.8,0,1.47,0.25,2,0.74c0.53,0.49,0.79,1.1,0.79,1.83
	c0,0.91-0.5,1.71-1.5,2.42l-0.56,0.39l1.64,1.88c0.27-0.54,0.4-1.13,0.4-1.77h2.07c0,1.44-0.33,2.6-1,3.46l1.63,1.87h-2.75
	l-0.5-0.56c-0.41,0.25-0.83,0.43-1.26,0.54c-0.43,0.12-0.91,0.18-1.45,0.18c-1.05,0-1.9-0.28-2.53-0.83
	c-0.63-0.55-0.95-1.28-0.95-2.19c0-0.49,0.13-0.94,0.38-1.34c0.25-0.4,0.74-0.87,1.47-1.4L114.7,78.93z M116.48,82.8
	c0.43,0,0.84-0.1,1.23-0.3l-1.92-2.18l-0.07,0.04c-0.28,0.34-0.42,0.73-0.42,1.16c0,0.36,0.11,0.66,0.34,0.91
	S116.15,82.8,116.48,82.8z M115.91,76.58c0,0.34,0.19,0.76,0.56,1.25l0.49-0.31c0.22-0.15,0.39-0.3,0.49-0.45s0.15-0.35,0.15-0.59
	c0-0.22-0.08-0.42-0.23-0.59s-0.35-0.25-0.58-0.25c-0.27,0-0.49,0.09-0.64,0.26C115.99,76.07,115.91,76.3,115.91,76.58z
	 M131.11,82.32c0-0.21-0.11-0.38-0.33-0.51c-0.22-0.13-0.64-0.26-1.25-0.39s-1.12-0.32-1.52-0.54c-0.4-0.22-0.71-0.49-0.92-0.81
	s-0.31-0.68-0.31-1.09c0-0.73,0.3-1.33,0.9-1.8c0.6-0.47,1.39-0.71,2.36-0.71c1.04,0,1.88,0.24,2.52,0.71
	c0.63,0.47,0.95,1.1,0.95,1.87h-2.48c0-0.63-0.33-0.95-1-0.95c-0.26,0-0.48,0.07-0.65,0.22c-0.18,0.14-0.26,0.32-0.26,0.54
	c0,0.22,0.11,0.4,0.32,0.54s0.56,0.25,1.03,0.34c0.47,0.09,0.88,0.19,1.24,0.32c1.19,0.41,1.79,1.14,1.79,2.2
	c0,0.72-0.32,1.31-0.96,1.76c-0.64,0.46-1.47,0.68-2.49,0.68c-0.68,0-1.28-0.12-1.82-0.37c-0.53-0.24-0.95-0.58-1.25-1
	s-0.45-0.86-0.45-1.33h2.31c0.01,0.37,0.13,0.63,0.37,0.8c0.23,0.17,0.54,0.25,0.9,0.25c0.34,0,0.59-0.07,0.76-0.21
	C131.02,82.72,131.11,82.54,131.11,82.32z M137.99,82.79c0.35,0,0.62-0.09,0.81-0.28c0.19-0.19,0.28-0.45,0.28-0.79h2.31
	c0,0.87-0.31,1.58-0.93,2.14c-0.62,0.56-1.42,0.83-2.41,0.83c-1.15,0-2.06-0.36-2.72-1.08s-1-1.72-1-3v-0.1
	c0-0.8,0.15-1.51,0.44-2.12c0.29-0.61,0.72-1.08,1.28-1.41c0.56-0.33,1.22-0.49,1.98-0.49c1.03,0,1.85,0.29,2.45,0.86
	c0.61,0.57,0.91,1.35,0.91,2.32h-2.31c0-0.41-0.1-0.72-0.3-0.95c-0.2-0.22-0.47-0.33-0.8-0.33c-0.64,0-1.01,0.41-1.12,1.22
	c-0.03,0.26-0.05,0.62-0.05,1.07c0,0.8,0.09,1.35,0.29,1.66C137.27,82.64,137.58,82.79,137.99,82.79z M142.12,80.51
	c0-0.79,0.15-1.5,0.46-2.11c0.31-0.62,0.75-1.09,1.33-1.42s1.25-0.5,2.03-0.5c1.19,0,2.12,0.37,2.8,1.1c0.68,0.73,1.03,1.73,1.03,3
	v0.09c0,1.24-0.34,2.22-1.03,2.94c-0.69,0.73-1.62,1.09-2.79,1.09c-1.13,0-2.03-0.34-2.72-1.01c-0.68-0.68-1.05-1.59-1.11-2.75
	L142.12,80.51z M144.59,80.67c0,0.73,0.11,1.27,0.34,1.61s0.57,0.51,1.02,0.51c0.88,0,1.33-0.68,1.35-2.03v-0.25
	c0-1.42-0.45-2.13-1.36-2.13c-0.83,0-1.27,0.61-1.34,1.84L144.59,80.67z M155.65,78.86l-0.81-0.06c-0.78,0-1.27,0.25-1.49,0.73v5.02
	h-2.47v-7.92h2.31l0.08,1.02c0.42-0.78,0.99-1.17,1.74-1.17c0.26,0,0.49,0.03,0.69,0.09L155.65,78.86z M160.23,84.69
	c-1.22,0-2.2-0.36-2.95-1.09c-0.75-0.72-1.13-1.67-1.13-2.83v-0.21c0-0.81,0.15-1.53,0.45-2.15c0.3-0.62,0.74-1.1,1.31-1.44
	c0.58-0.34,1.26-0.51,2.05-0.51c1.11,0,1.99,0.35,2.64,1.04c0.64,0.69,0.97,1.65,0.97,2.89v0.96h-4.91
	c0.09,0.44,0.28,0.79,0.58,1.05s0.68,0.38,1.16,0.38c0.78,0,1.39-0.27,1.83-0.82l1.13,1.33c-0.31,0.42-0.74,0.76-1.31,1.01
	C161.49,84.57,160.88,84.69,160.23,84.69z M159.96,78.38c-0.72,0-1.15,0.48-1.29,1.44h2.49v-0.19c0.01-0.4-0.09-0.7-0.3-0.92
	C160.65,78.49,160.35,78.38,159.96,78.38z M168.72,82.32c0-0.21-0.11-0.38-0.33-0.51c-0.22-0.13-0.64-0.26-1.25-0.39
	s-1.12-0.32-1.52-0.54c-0.4-0.22-0.71-0.49-0.92-0.81s-0.31-0.68-0.31-1.09c0-0.73,0.3-1.33,0.9-1.8c0.6-0.47,1.39-0.71,2.36-0.71
	c1.04,0,1.88,0.24,2.52,0.71c0.63,0.47,0.95,1.1,0.95,1.87h-2.48c0-0.63-0.33-0.95-1-0.95c-0.26,0-0.48,0.07-0.65,0.22
	c-0.18,0.14-0.26,0.32-0.26,0.54c0,0.22,0.11,0.4,0.32,0.54s0.56,0.25,1.03,0.34c0.47,0.09,0.88,0.19,1.24,0.32
	c1.19,0.41,1.79,1.14,1.79,2.2c0,0.72-0.32,1.31-0.96,1.76c-0.64,0.46-1.47,0.68-2.49,0.68c-0.68,0-1.28-0.12-1.82-0.37
	s-0.95-0.58-1.25-1s-0.45-0.86-0.45-1.33h2.31c0.01,0.37,0.13,0.63,0.37,0.8c0.23,0.17,0.54,0.25,0.9,0.25
	c0.34,0,0.59-0.07,0.76-0.21C168.63,82.72,168.72,82.54,168.72,82.32z M173.12,87.42l-1.25-0.59l0.25-0.5
	c0.34-0.63,0.52-1.24,0.53-1.82v-1.83h1.98l-0.01,1.59c0,0.56-0.15,1.13-0.43,1.71C173.91,86.57,173.55,87.05,173.12,87.42z
	 M182.36,76.62l0.08,0.93c0.56-0.72,1.32-1.08,2.26-1.08c1,0,1.68,0.4,2.03,1.19c0.54-0.8,1.31-1.19,2.33-1.19
	c1.61,0,2.43,0.97,2.48,2.92v5.16h-2.48v-5c0-0.41-0.07-0.7-0.21-0.89s-0.39-0.28-0.75-0.28c-0.49,0-0.85,0.22-1.09,0.65l0.01,0.1
	v5.41h-2.48v-4.99c0-0.41-0.07-0.71-0.2-0.9c-0.13-0.19-0.38-0.28-0.75-0.28c-0.47,0-0.83,0.22-1.08,0.65v5.52h-2.47v-7.92H182.36z
	 M192.64,80.51c0-0.79,0.15-1.5,0.46-2.11c0.31-0.62,0.75-1.09,1.33-1.42s1.25-0.5,2.03-0.5c1.19,0,2.12,0.37,2.8,1.1
	c0.68,0.73,1.03,1.73,1.03,3v0.09c0,1.24-0.34,2.22-1.03,2.94c-0.69,0.73-1.62,1.09-2.79,1.09c-1.13,0-2.03-0.34-2.72-1.01
	c-0.68-0.68-1.05-1.59-1.11-2.75L192.64,80.51z M195.1,80.67c0,0.73,0.11,1.27,0.34,1.61s0.57,0.51,1.02,0.51
	c0.88,0,1.33-0.68,1.35-2.03v-0.25c0-1.42-0.45-2.13-1.36-2.13c-0.83,0-1.27,0.61-1.34,1.84L195.1,80.67z M203.64,76.62l0.08,0.93
	c0.55-0.72,1.3-1.08,2.26-1.08c0.83,0,1.44,0.25,1.85,0.74c0.41,0.49,0.62,1.24,0.63,2.23v5.11h-2.47v-5c0-0.4-0.08-0.7-0.24-0.88
	c-0.16-0.19-0.45-0.28-0.88-0.28c-0.48,0-0.84,0.19-1.08,0.57v5.6h-2.47v-7.92H203.64z M212.7,74.65v1.97h1.3v1.71h-1.3v3.62
	c0,0.3,0.05,0.51,0.16,0.62c0.11,0.12,0.32,0.18,0.64,0.18c0.24,0,0.45-0.01,0.62-0.04v1.76c-0.44,0.14-0.91,0.21-1.39,0.21
	c-0.85,0-1.48-0.2-1.88-0.6c-0.41-0.4-0.61-1.01-0.61-1.82v-3.93h-1.01v-1.71h1.01v-1.97H212.7z M217.39,77.47
	c0.53-0.66,1.2-1,2.02-1c0.87,0,1.53,0.26,1.98,0.78s0.67,1.28,0.68,2.29v5h-2.47V79.6c0-0.42-0.09-0.73-0.26-0.93
	c-0.17-0.2-0.46-0.3-0.87-0.3c-0.51,0-0.87,0.16-1.08,0.48v5.68h-2.47V73.3h2.47V77.47z M226.05,84.55h-2.48V73.3h2.48V84.55z
	 M230.74,81.09l1.32-4.47h2.64l-3.23,9.25l-0.14,0.34c-0.46,1.03-1.27,1.54-2.43,1.54c-0.32,0-0.66-0.05-1.02-0.15v-1.76h0.32
	c0.35,0,0.61-0.05,0.79-0.15c0.18-0.1,0.32-0.28,0.41-0.54l0.2-0.53l-2.75-8h2.64L230.74,81.09z"/>
</svg>
