<?xml version="1.0" encoding="utf-8"?>
<!-- Generator: Adobe Illustrator 24.2.3, SVG Export Plug-In . SVG Version: 6.00 Build 0)  -->
<svg version="1.1" id="Layer_1" xmlns="http://www.w3.org/2000/svg" xmlns:xlink="http://www.w3.org/1999/xlink" x="0px" y="0px"
	 viewBox="0 0 320 100" style="enable-background:new 0 0 320 100;" xml:space="preserve">
<style type="text/css">
	.st0{fill:#EDF4FD;}
	.st1{fill:#021D8B;}
</style>
<g>
	<path class="st0" d="M302.93,57.88h-35.88c-6.28,0-11.37-5.09-11.37-11.37v0c0-6.28,5.09-11.37,11.37-11.37h35.88
		c6.28,0,11.37,5.09,11.37,11.37v0C314.29,52.79,309.2,57.88,302.93,57.88z"/>
</g>
<g>
	<path class="st1" d="M276.45,43.88c-0.04,0.61-0.27,1.09-0.68,1.45c-0.41,0.35-0.95,0.53-1.61,0.53c-0.73,0-1.3-0.25-1.72-0.74
		s-0.63-1.16-0.63-2.02v-0.35c0-0.55,0.1-1.03,0.29-1.45c0.19-0.42,0.47-0.74,0.83-0.96c0.36-0.22,0.77-0.33,1.25-0.33
		c0.66,0,1.18,0.18,1.59,0.53c0.4,0.35,0.63,0.85,0.7,1.48h-1.17c-0.03-0.37-0.13-0.63-0.31-0.8s-0.44-0.25-0.8-0.25
		c-0.39,0-0.68,0.14-0.88,0.42c-0.19,0.28-0.29,0.71-0.3,1.3v0.43c0,0.61,0.09,1.06,0.28,1.35c0.19,0.28,0.48,0.43,0.88,0.43
		c0.36,0,0.63-0.08,0.81-0.25c0.18-0.17,0.28-0.42,0.31-0.77H276.45z"/>
	<path class="st1" d="M278.33,45.77h-1.13v-6h1.13V45.77z"/>
	<path class="st1" d="M279.26,40.45c0-0.17,0.06-0.31,0.17-0.42s0.27-0.16,0.46-0.16c0.19,0,0.35,0.05,0.46,0.16
		c0.11,0.11,0.17,0.25,0.17,0.42c0,0.17-0.06,0.31-0.17,0.42c-0.12,0.11-0.27,0.16-0.46,0.16c-0.19,0-0.34-0.05-0.46-0.16
		C279.31,40.76,279.26,40.62,279.26,40.45z M280.46,45.77h-1.13v-4.23h1.13V45.77z"/>
	<path class="st1" d="M283.14,44.94c0.21,0,0.38-0.06,0.51-0.17c0.13-0.11,0.2-0.27,0.2-0.46h1.06c0,0.29-0.08,0.55-0.23,0.79
		c-0.15,0.24-0.36,0.42-0.63,0.55c-0.27,0.13-0.56,0.2-0.88,0.2c-0.6,0-1.08-0.19-1.43-0.58c-0.35-0.38-0.52-0.91-0.52-1.59v-0.07
		c0-0.65,0.17-1.17,0.52-1.56c0.35-0.39,0.82-0.58,1.43-0.58c0.53,0,0.95,0.15,1.27,0.45c0.32,0.3,0.48,0.7,0.49,1.2h-1.06
		c-0.01-0.22-0.07-0.4-0.2-0.54c-0.13-0.14-0.3-0.21-0.52-0.21c-0.26,0-0.46,0.1-0.6,0.29c-0.13,0.19-0.2,0.5-0.2,0.93v0.12
		c0,0.44,0.07,0.75,0.2,0.94S282.87,44.94,283.14,44.94z"/>
	<path class="st1" d="M287.09,44.08l-0.41,0.41v1.29h-1.13v-6h1.13v3.32l0.22-0.28l1.08-1.27h1.36l-1.53,1.76l1.66,2.46h-1.3
		L287.09,44.08z"/>
	<path class="st1" d="M293.17,40.5v1.04h0.72v0.83h-0.72v2.11c0,0.16,0.03,0.27,0.09,0.34c0.06,0.07,0.17,0.1,0.34,0.1
		c0.12,0,0.24-0.01,0.33-0.03v0.86c-0.22,0.07-0.45,0.1-0.68,0.1c-0.79,0-1.2-0.4-1.21-1.2v-2.28h-0.62v-0.83h0.62V40.5H293.17z"/>
	<path class="st1" d="M294.23,43.62c0-0.42,0.08-0.79,0.24-1.12c0.16-0.33,0.39-0.58,0.7-0.76c0.3-0.18,0.66-0.27,1.06-0.27
		c0.57,0,1.04,0.17,1.4,0.52c0.36,0.35,0.56,0.82,0.6,1.42l0.01,0.29c0,0.65-0.18,1.17-0.54,1.56c-0.36,0.39-0.85,0.59-1.46,0.59
		s-1.1-0.2-1.46-0.59s-0.54-0.92-0.54-1.59V43.62z M295.36,43.7c0,0.4,0.08,0.71,0.23,0.92c0.15,0.21,0.37,0.32,0.65,0.32
		c0.27,0,0.49-0.1,0.64-0.31c0.15-0.21,0.23-0.55,0.23-1.01c0-0.39-0.08-0.7-0.23-0.92c-0.15-0.22-0.37-0.32-0.65-0.32
		c-0.28,0-0.49,0.11-0.64,0.32C295.44,42.91,295.36,43.25,295.36,43.7z"/>
	<path class="st1" d="M267.2,53.77h-1.13v-6h1.13V53.77z"/>
	<path class="st1" d="M270.08,53.85c-0.62,0-1.12-0.19-1.51-0.57c-0.39-0.38-0.58-0.89-0.58-1.52v-0.11c0-0.42,0.08-0.8,0.25-1.14
		s0.4-0.59,0.7-0.77s0.64-0.27,1.03-0.27c0.58,0,1.03,0.18,1.37,0.55s0.5,0.88,0.5,1.55v0.46h-2.69c0.04,0.28,0.15,0.5,0.33,0.66
		c0.18,0.17,0.42,0.25,0.7,0.25c0.43,0,0.77-0.16,1.02-0.47l0.55,0.62c-0.17,0.24-0.4,0.43-0.69,0.56
		C270.75,53.78,270.43,53.85,270.08,53.85z M269.95,50.38c-0.22,0-0.41,0.08-0.54,0.23c-0.14,0.15-0.23,0.37-0.27,0.65h1.57v-0.09
		c-0.01-0.25-0.07-0.44-0.2-0.58C270.37,50.44,270.19,50.38,269.95,50.38z"/>
	<path class="st1" d="M274.91,53.77c-0.05-0.1-0.09-0.23-0.11-0.38c-0.27,0.3-0.63,0.46-1.07,0.46c-0.41,0-0.76-0.12-1.03-0.36
		c-0.27-0.24-0.41-0.54-0.41-0.91c0-0.45,0.17-0.79,0.5-1.03c0.33-0.24,0.81-0.36,1.44-0.36h0.52v-0.24c0-0.2-0.05-0.35-0.15-0.47
		c-0.1-0.12-0.26-0.18-0.47-0.18c-0.19,0-0.34,0.05-0.45,0.14c-0.11,0.09-0.16,0.22-0.16,0.38h-1.13c0-0.24,0.08-0.47,0.23-0.68
		c0.15-0.21,0.36-0.37,0.64-0.49c0.28-0.12,0.59-0.18,0.93-0.18c0.52,0,0.93,0.13,1.24,0.39c0.31,0.26,0.46,0.63,0.46,1.1v1.83
		c0,0.4,0.06,0.7,0.17,0.91v0.07H274.91z M273.97,52.99c0.17,0,0.32-0.04,0.46-0.11s0.24-0.17,0.31-0.3v-0.73h-0.42
		c-0.57,0-0.87,0.2-0.9,0.59l0,0.07c0,0.14,0.05,0.26,0.15,0.35C273.67,52.94,273.8,52.99,273.97,52.99z"/>
	<path class="st1" d="M279.12,50.6c-0.15-0.02-0.29-0.03-0.41-0.03c-0.43,0-0.71,0.14-0.84,0.43v2.77h-1.13v-4.23h1.07l0.03,0.5
		c0.23-0.39,0.54-0.58,0.94-0.58c0.12,0,0.24,0.02,0.35,0.05L279.12,50.6z"/>
	<path class="st1" d="M280.7,49.54l0.04,0.49c0.3-0.38,0.71-0.57,1.21-0.57c0.45,0,0.78,0.13,1,0.39s0.33,0.66,0.34,1.18v2.73h-1.13
		v-2.7c0-0.24-0.05-0.41-0.16-0.52c-0.1-0.11-0.28-0.16-0.52-0.16c-0.32,0-0.56,0.14-0.71,0.41v2.98h-1.13v-4.23H280.7z"/>
	<path class="st1" d="M287.2,49.54l0.04,0.47c0.3-0.37,0.7-0.55,1.21-0.55c0.54,0,0.92,0.21,1.12,0.64c0.3-0.43,0.72-0.64,1.27-0.64
		c0.46,0,0.8,0.13,1.02,0.4c0.22,0.27,0.34,0.67,0.34,1.21v2.7h-1.13v-2.7c0-0.24-0.05-0.41-0.14-0.53s-0.26-0.17-0.5-0.17
		c-0.34,0-0.57,0.16-0.7,0.48l0,2.9h-1.13v-2.69c0-0.24-0.05-0.42-0.14-0.53c-0.1-0.11-0.26-0.16-0.49-0.16
		c-0.32,0-0.55,0.13-0.7,0.4v2.99h-1.13v-4.23H287.2z"/>
	<path class="st1" d="M292.89,51.62c0-0.42,0.08-0.79,0.24-1.12c0.16-0.33,0.39-0.58,0.7-0.76c0.3-0.18,0.66-0.27,1.06-0.27
		c0.57,0,1.04,0.17,1.4,0.52c0.36,0.35,0.56,0.82,0.6,1.42l0.01,0.29c0,0.65-0.18,1.17-0.54,1.56c-0.36,0.39-0.85,0.59-1.46,0.59
		s-1.1-0.2-1.46-0.59s-0.54-0.92-0.54-1.59V51.62z M294.02,51.7c0,0.4,0.08,0.71,0.23,0.92c0.15,0.21,0.37,0.32,0.65,0.32
		c0.27,0,0.49-0.11,0.64-0.32c0.15-0.21,0.23-0.55,0.23-1.01c0-0.39-0.08-0.7-0.23-0.92c-0.15-0.22-0.37-0.32-0.65-0.32
		c-0.28,0-0.49,0.11-0.64,0.32C294.09,50.91,294.02,51.25,294.02,51.7z"/>
	<path class="st1" d="M299.96,50.6c-0.15-0.02-0.29-0.03-0.41-0.03c-0.43,0-0.71,0.14-0.84,0.43v2.77h-1.13v-4.23h1.07l0.03,0.5
		c0.23-0.39,0.54-0.58,0.94-0.58c0.12,0,0.24,0.02,0.35,0.05L299.96,50.6z"/>
	<path class="st1" d="M302.45,53.85c-0.62,0-1.12-0.19-1.51-0.57c-0.39-0.38-0.58-0.89-0.58-1.52v-0.11c0-0.42,0.08-0.8,0.25-1.14
		s0.4-0.59,0.7-0.77s0.64-0.27,1.03-0.27c0.58,0,1.03,0.18,1.37,0.55s0.5,0.88,0.5,1.55v0.46h-2.69c0.04,0.28,0.15,0.5,0.33,0.66
		c0.18,0.17,0.42,0.25,0.7,0.25c0.43,0,0.77-0.16,1.02-0.47l0.55,0.62c-0.17,0.24-0.4,0.43-0.69,0.56
		C303.12,53.78,302.8,53.85,302.45,53.85z M302.32,50.38c-0.22,0-0.41,0.08-0.54,0.23c-0.14,0.15-0.23,0.37-0.27,0.65h1.57v-0.09
		c-0.01-0.25-0.07-0.44-0.2-0.58C302.75,50.44,302.56,50.38,302.32,50.38z"/>
</g>
</svg>
