<?xml version="1.0" encoding="utf-8"?>
<!-- Generator: Adobe Illustrator 24.2.3, SVG Export Plug-In . SVG Version: 6.00 Build 0)  -->
<svg version="1.1" id="Layer_1" xmlns="http://www.w3.org/2000/svg" xmlns:xlink="http://www.w3.org/1999/xlink" x="0px" y="0px"
	 viewBox="0 0 320 100" style="enable-background:new 0 0 320 100;" xml:space="preserve">
<style type="text/css">
	.st0{fill:#021D8B;}
</style>
<g>
	<path class="st0" d="M47.66,17.48h-1.64V22h-0.91v-4.53h-1.63v-0.74h4.18V17.48z"/>
	<path class="st0" d="M49.13,18.52c0.29-0.33,0.65-0.5,1.09-0.5c0.83,0,1.26,0.48,1.27,1.43V22h-0.88v-2.52
		c0-0.27-0.06-0.46-0.18-0.57c-0.12-0.11-0.29-0.17-0.52-0.17c-0.35,0-0.61,0.16-0.79,0.47V22h-0.88v-5.56h0.88V18.52z"/>
	<path class="st0" d="M54.1,22.08c-0.56,0-1.01-0.18-1.35-0.53c-0.35-0.35-0.52-0.82-0.52-1.4v-0.11c0-0.39,0.08-0.74,0.23-1.05
		c0.15-0.31,0.36-0.55,0.63-0.72c0.27-0.17,0.58-0.26,0.91-0.26c0.53,0,0.94,0.17,1.23,0.51s0.44,0.82,0.44,1.44v0.35h-2.56
		c0.03,0.32,0.13,0.58,0.32,0.77c0.19,0.19,0.43,0.28,0.71,0.28c0.4,0,0.73-0.16,0.98-0.49l0.47,0.45
		c-0.16,0.23-0.37,0.42-0.63,0.54S54.42,22.08,54.1,22.08z M53.99,18.72c-0.24,0-0.44,0.08-0.58,0.25c-0.15,0.17-0.24,0.4-0.28,0.71
		h1.67v-0.06c-0.02-0.29-0.1-0.52-0.23-0.67C54.43,18.8,54.24,18.72,53.99,18.72z"/>
</g>
<g>
	<path class="st0" d="M103.66,33.92c-0.04-0.07-0.07-0.2-0.1-0.37c-0.28,0.29-0.62,0.44-1.03,0.44c-0.39,0-0.71-0.11-0.96-0.34
		c-0.25-0.22-0.37-0.5-0.37-0.83c0-0.42,0.15-0.74,0.46-0.96c0.31-0.22,0.75-0.33,1.33-0.33h0.54v-0.26c0-0.2-0.06-0.36-0.17-0.49
		c-0.11-0.12-0.29-0.18-0.52-0.18c-0.2,0-0.36,0.05-0.49,0.15c-0.13,0.1-0.19,0.23-0.19,0.38h-0.88c0-0.21,0.07-0.42,0.21-0.6
		c0.14-0.19,0.34-0.33,0.58-0.44c0.24-0.11,0.52-0.16,0.82-0.16c0.46,0,0.82,0.12,1.1,0.35c0.27,0.23,0.41,0.55,0.42,0.97v1.76
		c0,0.35,0.05,0.63,0.15,0.84v0.06H103.66z M102.69,33.28c0.17,0,0.34-0.04,0.49-0.13c0.15-0.08,0.27-0.2,0.35-0.34v-0.74h-0.47
		c-0.33,0-0.57,0.06-0.73,0.17c-0.16,0.11-0.25,0.27-0.25,0.48c0,0.17,0.06,0.3,0.17,0.4C102.35,33.23,102.51,33.28,102.69,33.28z"
		/>
	<path class="st0" d="M108.75,32c0,0.61-0.14,1.09-0.41,1.45c-0.27,0.36-0.64,0.54-1.11,0.54c-0.43,0-0.77-0.14-1.03-0.42v1.85
		h-0.88V30h0.81l0.04,0.4c0.26-0.31,0.61-0.47,1.05-0.47c0.48,0,0.85,0.18,1.12,0.53c0.27,0.36,0.41,0.85,0.41,1.48V32z
		 M107.88,31.92c0-0.39-0.08-0.7-0.23-0.93c-0.16-0.23-0.38-0.34-0.67-0.34c-0.36,0-0.62,0.15-0.77,0.44v1.74
		c0.16,0.3,0.42,0.46,0.78,0.46c0.28,0,0.5-0.11,0.66-0.34C107.8,32.72,107.88,32.38,107.88,31.92z"/>
	<path class="st0" d="M112.92,32c0,0.61-0.14,1.09-0.41,1.45c-0.27,0.36-0.64,0.54-1.11,0.54c-0.43,0-0.77-0.14-1.03-0.42v1.85
		h-0.88V30h0.81l0.04,0.4c0.26-0.31,0.61-0.47,1.05-0.47c0.48,0,0.85,0.18,1.12,0.53c0.27,0.36,0.41,0.85,0.41,1.48V32z
		 M112.05,31.92c0-0.39-0.08-0.7-0.23-0.93c-0.16-0.23-0.38-0.34-0.67-0.34c-0.36,0-0.62,0.15-0.77,0.44v1.74
		c0.16,0.3,0.42,0.46,0.78,0.46c0.28,0,0.5-0.11,0.66-0.34C111.97,32.72,112.05,32.38,112.05,31.92z"/>
	<path class="st0" d="M114.22,32.99c0.16,0,0.29,0.05,0.38,0.14s0.13,0.21,0.13,0.35c0,0.14-0.04,0.25-0.13,0.34
		s-0.22,0.14-0.38,0.14c-0.16,0-0.28-0.04-0.37-0.13c-0.09-0.09-0.14-0.2-0.14-0.34c0-0.14,0.04-0.26,0.13-0.35
		S114.05,32.99,114.22,32.99z"/>
</g>
<g id="PG_x5F_Logo_x5F_Full_2_">
	<path class="st0" d="M95.44,29.12c0-0.12,0.04-0.22,0.12-0.3c0.08-0.08,0.18-0.12,0.3-0.12c0.11,0,0.21,0.04,0.29,0.12
		c0.08,0.08,0.13,0.18,0.13,0.3v4.64c0,0.12-0.04,0.22-0.12,0.3c-0.08,0.08-0.18,0.12-0.3,0.12c-0.11,0-0.21-0.04-0.29-0.12
		c-0.08-0.08-0.13-0.18-0.13-0.3V29.12z"/>
	<g>
		<g>
			<g>
				<path class="st0" d="M72.04,36.43c-0.34,0.26-0.75,0.38-1.21,0.38c-0.26-0.02-0.46-0.05-0.61-0.1
					c-0.15-0.04-0.29-0.11-0.41-0.19c-0.12-0.08-0.19-0.2-0.19-0.36c0-0.12,0.04-0.22,0.12-0.3c0.08-0.08,0.18-0.12,0.3-0.12
					c0.1,0,0.18,0.03,0.25,0.08c0.18,0.1,0.38,0.15,0.58,0.15c0.16,0,0.31-0.03,0.44-0.09c0.14-0.06,0.26-0.14,0.36-0.24
					c0.11-0.1,0.19-0.21,0.25-0.35c0.06-0.13,0.09-0.27,0.1-0.43v-3.13c0-0.12,0.04-0.22,0.12-0.3c0.08-0.08,0.18-0.12,0.3-0.12
					c0.11,0,0.21,0.04,0.29,0.12c0.08,0.08,0.13,0.18,0.13,0.3c0,0,0,2.6,0,3.17C72.86,35.52,72.56,36.06,72.04,36.43z"/>
				<path class="st0" d="M53.24,27.23c0-0.12,0.04-0.22,0.12-0.3c0.08-0.08,0.18-0.12,0.3-0.12c0.11,0,0.21,0.04,0.29,0.12
					c0.08,0.08,0.13,0.18,0.13,0.3v0.32c0,0.12-0.04,0.22-0.12,0.3c-0.08,0.08-0.18,0.12-0.3,0.12c-0.11,0-0.21-0.04-0.29-0.12
					c-0.08-0.08-0.13-0.18-0.13-0.3V27.23z M53.24,29.15c0-0.12,0.04-0.22,0.12-0.3c0.08-0.08,0.18-0.12,0.3-0.12
					c0.11,0,0.21,0.04,0.29,0.12c0.08,0.08,0.13,0.18,0.13,0.3v4.6c0,0.12-0.04,0.22-0.12,0.3c-0.08,0.08-0.18,0.12-0.3,0.12
					c-0.11,0-0.21-0.04-0.29-0.12c-0.08-0.08-0.13-0.18-0.13-0.3V29.15z"/>
				<g>
					<path class="st0" d="M49.61,29.26c0-0.11,0.04-0.21,0.12-0.29c0.08-0.08,0.18-0.12,0.29-0.12c0.09,0,0.18,0.03,0.25,0.09
						c0.07,0.06,0.12,0.14,0.14,0.24c0.34-0.25,0.73-0.38,1.18-0.38c0.25,0.02,0.45,0.05,0.59,0.1c0.15,0.04,0.28,0.11,0.4,0.19
						c0.12,0.08,0.18,0.2,0.18,0.35c0,0.12-0.04,0.22-0.12,0.29c-0.08,0.08-0.18,0.11-0.29,0.11c-0.09,0-0.18-0.03-0.25-0.08
						c-0.18-0.1-0.37-0.15-0.57-0.15c-0.16,0-0.3,0.03-0.43,0.09c-0.13,0.06-0.25,0.13-0.35,0.23c-0.1,0.1-0.18,0.21-0.24,0.34
						c-0.06,0.13-0.09,0.27-0.1,0.42v3.07c0,0.11-0.04,0.21-0.12,0.29c-0.08,0.08-0.18,0.12-0.29,0.12c-0.11,0-0.2-0.04-0.28-0.12
						c-0.08-0.08-0.12-0.18-0.12-0.29v-3.1V29.26z"/>
				</g>
				<path class="st0" d="M54.64,29.31c-0.02-0.05-0.03-0.11-0.03-0.16c0-0.1,0.04-0.2,0.11-0.28c0.07-0.09,0.17-0.13,0.3-0.13
					c0.08,0,0.16,0.02,0.22,0.07c0.07,0.04,0.12,0.11,0.16,0.19l1.62,3.78l1.62-3.78c0.07-0.17,0.2-0.25,0.38-0.25
					c0.12,0,0.22,0.04,0.3,0.13c0.07,0.09,0.11,0.18,0.11,0.28c0,0.06-0.01,0.11-0.03,0.16l-1.99,4.66
					c-0.08,0.17-0.21,0.25-0.38,0.25c-0.19,0-0.32-0.08-0.38-0.25L54.64,29.31z"/>
				<path class="st0" d="M59.56,30.67c0-0.27,0.05-0.53,0.15-0.77c0.1-0.24,0.24-0.45,0.43-0.63c0.18-0.18,0.39-0.32,0.63-0.42
					c0.24-0.1,0.49-0.15,0.77-0.15c0.27,0,0.53,0.05,0.77,0.15c0.24,0.1,0.45,0.24,0.63,0.42c0.18,0.18,0.32,0.39,0.43,0.63
					c0.11,0.24,0.16,0.5,0.16,0.77v3.09c0,0.12-0.04,0.22-0.13,0.3c-0.08,0.08-0.18,0.12-0.29,0.12c-0.1,0-0.19-0.03-0.27-0.09
					c-0.08-0.06-0.12-0.14-0.14-0.24c-0.34,0.25-0.72,0.37-1.16,0.37c-0.27,0-0.53-0.05-0.77-0.15c-0.24-0.1-0.45-0.24-0.63-0.42
					c-0.18-0.18-0.32-0.39-0.43-0.63c-0.11-0.24-0.16-0.5-0.16-0.77V30.67z M60.39,32.24c0,0.15,0.03,0.3,0.09,0.44
					c0.06,0.14,0.14,0.26,0.25,0.37c0.1,0.11,0.22,0.19,0.37,0.25c0.14,0.06,0.29,0.09,0.44,0.09c0.15,0,0.3-0.03,0.44-0.08
					c0.14-0.05,0.26-0.13,0.36-0.23c0.1-0.1,0.18-0.21,0.25-0.35c0.06-0.13,0.1-0.27,0.1-0.43v-1.63c0-0.15-0.03-0.3-0.09-0.44
					c-0.06-0.14-0.14-0.26-0.25-0.37c-0.1-0.11-0.22-0.19-0.37-0.25c-0.14-0.06-0.29-0.09-0.44-0.09c-0.16,0-0.31,0.03-0.45,0.09
					c-0.14,0.06-0.26,0.14-0.37,0.25c-0.11,0.11-0.19,0.23-0.25,0.37c-0.06,0.14-0.09,0.28-0.09,0.44V32.24z"/>
				<path class="st0" d="M64.29,30.67c0-0.28,0.05-0.54,0.16-0.78c0.11-0.24,0.25-0.45,0.44-0.62c0.19-0.18,0.4-0.31,0.65-0.42
					c0.24-0.1,0.51-0.15,0.78-0.15c0.05,0,0.15,0.01,0.3,0.03c0.15,0.02,0.32,0.07,0.5,0.15c0.18,0.08,0.36,0.2,0.54,0.37
					c0.18,0.16,0.33,0.39,0.44,0.68c0.02,0.06,0.03,0.11,0.03,0.15c0,0.12-0.04,0.22-0.12,0.3c-0.08,0.08-0.18,0.12-0.3,0.12
					c-0.09,0-0.17-0.02-0.24-0.07c-0.07-0.05-0.12-0.11-0.15-0.19c-0.1-0.22-0.25-0.39-0.44-0.52c-0.19-0.12-0.4-0.19-0.62-0.19
					c-0.16,0-0.31,0.03-0.45,0.09c-0.14,0.06-0.26,0.14-0.37,0.25c-0.11,0.11-0.19,0.23-0.25,0.37c-0.06,0.14-0.09,0.28-0.09,0.44
					v1.58c0,0.15,0.03,0.3,0.09,0.44c0.06,0.14,0.14,0.26,0.25,0.37c0.1,0.11,0.22,0.19,0.37,0.25c0.14,0.06,0.29,0.09,0.44,0.09
					c0.23,0,0.45-0.06,0.64-0.19c0.19-0.12,0.33-0.3,0.43-0.52c0.04-0.08,0.09-0.14,0.15-0.19c0.07-0.05,0.14-0.07,0.23-0.07
					c0.12,0,0.22,0.04,0.3,0.13c0.08,0.08,0.12,0.18,0.12,0.29c0,0.05-0.01,0.1-0.03,0.15c-0.15,0.32-0.32,0.57-0.53,0.73
					c-0.2,0.17-0.4,0.29-0.6,0.36c-0.19,0.07-0.36,0.11-0.49,0.12c-0.14,0.01-0.21,0.01-0.21,0.01c-0.27,0-0.53-0.05-0.77-0.15
					c-0.24-0.1-0.45-0.24-0.63-0.42c-0.18-0.18-0.32-0.39-0.43-0.63c-0.11-0.24-0.16-0.5-0.16-0.77V30.67z"/>
				<path class="st0" d="M79.39,29.15c0-0.12,0.04-0.22,0.12-0.3c0.08-0.08,0.18-0.12,0.3-0.12c0.11,0,0.21,0.04,0.29,0.12
					c0.08,0.08,0.13,0.18,0.13,0.3v3.09c0,0.15,0.03,0.3,0.09,0.44c0.06,0.14,0.14,0.26,0.25,0.37c0.11,0.11,0.23,0.19,0.37,0.25
					c0.14,0.06,0.29,0.09,0.45,0.09c0.15,0,0.3-0.03,0.44-0.09c0.14-0.06,0.26-0.14,0.37-0.25c0.1-0.11,0.18-0.23,0.25-0.37
					c0.06-0.14,0.09-0.28,0.09-0.44v-3.09c0-0.12,0.04-0.22,0.12-0.3c0.08-0.08,0.18-0.12,0.3-0.12c0.11,0,0.21,0.04,0.29,0.12
					c0.08,0.08,0.13,0.18,0.13,0.3v3.09c0,0.27-0.05,0.53-0.16,0.77c-0.11,0.24-0.25,0.45-0.43,0.63c-0.18,0.18-0.39,0.32-0.63,0.42
					c-0.24,0.1-0.5,0.15-0.77,0.15c-0.28,0-0.54-0.05-0.77-0.15c-0.24-0.1-0.45-0.24-0.63-0.42c-0.18-0.18-0.33-0.39-0.43-0.63
					c-0.1-0.24-0.15-0.5-0.15-0.77V29.15z"/>
				<path class="st0" d="M84.14,30.67c0-0.27,0.05-0.53,0.15-0.77c0.1-0.24,0.24-0.45,0.43-0.63c0.18-0.18,0.39-0.32,0.63-0.42
					c0.24-0.1,0.49-0.15,0.77-0.15c0.27,0,0.53,0.05,0.77,0.15c0.24,0.1,0.45,0.24,0.63,0.42c0.18,0.18,0.32,0.39,0.43,0.63
					c0.11,0.24,0.16,0.5,0.16,0.77v3.09c0,0.12-0.04,0.22-0.13,0.3c-0.08,0.08-0.18,0.12-0.29,0.12c-0.1,0-0.19-0.03-0.27-0.09
					c-0.08-0.06-0.12-0.14-0.14-0.24c-0.34,0.25-0.72,0.37-1.16,0.37c-0.27,0-0.53-0.05-0.77-0.15c-0.24-0.1-0.45-0.24-0.63-0.42
					c-0.18-0.18-0.32-0.39-0.43-0.63c-0.11-0.24-0.16-0.5-0.16-0.77V30.67z M84.97,32.24c0,0.15,0.03,0.3,0.09,0.44
					c0.06,0.14,0.14,0.26,0.25,0.37c0.1,0.11,0.22,0.19,0.37,0.25c0.14,0.06,0.29,0.09,0.44,0.09c0.15,0,0.3-0.03,0.44-0.08
					c0.14-0.05,0.26-0.13,0.36-0.23c0.1-0.1,0.18-0.21,0.25-0.35c0.06-0.13,0.1-0.27,0.1-0.43v-1.63c0-0.15-0.03-0.3-0.09-0.44
					c-0.06-0.14-0.14-0.26-0.25-0.37c-0.1-0.11-0.22-0.19-0.37-0.25c-0.14-0.06-0.29-0.09-0.44-0.09c-0.16,0-0.31,0.03-0.45,0.09
					c-0.14,0.06-0.26,0.14-0.37,0.25c-0.11,0.11-0.19,0.23-0.25,0.37c-0.06,0.14-0.09,0.28-0.09,0.44V32.24z"/>
				<g>
					<path class="st0" d="M88.92,29.26c0-0.11,0.04-0.21,0.12-0.29c0.08-0.08,0.18-0.12,0.29-0.12c0.09,0,0.18,0.03,0.25,0.09
						c0.07,0.06,0.12,0.14,0.14,0.24c0.34-0.25,0.73-0.38,1.18-0.38c0.25,0.02,0.45,0.05,0.59,0.1c0.15,0.04,0.28,0.11,0.4,0.19
						c0.12,0.08,0.18,0.2,0.18,0.35c0,0.12-0.04,0.22-0.12,0.29c-0.08,0.08-0.18,0.11-0.29,0.11c-0.09,0-0.18-0.03-0.25-0.08
						c-0.18-0.1-0.37-0.15-0.57-0.15c-0.16,0-0.3,0.03-0.43,0.09c-0.13,0.06-0.25,0.13-0.35,0.23c-0.1,0.1-0.18,0.21-0.24,0.34
						c-0.06,0.13-0.09,0.27-0.1,0.42v3.07c0,0.11-0.04,0.21-0.12,0.29c-0.08,0.08-0.18,0.12-0.29,0.12c-0.11,0-0.2-0.04-0.28-0.12
						c-0.08-0.08-0.12-0.18-0.12-0.29v-3.1V29.26z"/>
				</g>
				<path class="st0" d="M95.45,27.23c0-0.12,0.04-0.22,0.12-0.3c0.08-0.08,0.18-0.12,0.3-0.12c0.11,0,0.21,0.04,0.29,0.12
					c0.08,0.08,0.13,0.18,0.13,0.3v5.02c0,0.27-0.05,0.53-0.16,0.77c-0.11,0.24-0.25,0.45-0.43,0.63c-0.18,0.18-0.39,0.32-0.63,0.42
					c-0.24,0.1-0.5,0.15-0.77,0.15c-0.28,0-0.54-0.05-0.77-0.15c-0.24-0.1-0.45-0.24-0.63-0.42c-0.18-0.18-0.33-0.39-0.43-0.63
					c-0.1-0.24-0.15-0.5-0.15-0.77v-1.58c0-0.27,0.05-0.53,0.16-0.77c0.11-0.24,0.25-0.45,0.43-0.63c0.18-0.18,0.39-0.32,0.63-0.42
					c0.24-0.1,0.5-0.15,0.77-0.15c0.21,0,0.41,0.03,0.61,0.1c0.19,0.07,0.37,0.16,0.54,0.27V27.23z M93.15,32.24
					c0,0.15,0.03,0.3,0.09,0.44c0.06,0.14,0.14,0.26,0.25,0.37c0.11,0.11,0.23,0.19,0.37,0.25c0.14,0.06,0.29,0.09,0.45,0.09
					c0.15,0,0.3-0.03,0.44-0.09c0.14-0.06,0.26-0.14,0.37-0.25c0.1-0.11,0.18-0.23,0.25-0.37c0.06-0.14,0.09-0.28,0.09-0.44v-1.58
					c0-0.15-0.03-0.3-0.09-0.44c-0.06-0.14-0.14-0.26-0.25-0.37c-0.11-0.11-0.23-0.19-0.37-0.25c-0.14-0.06-0.29-0.09-0.45-0.09
					c-0.15,0-0.3,0.03-0.44,0.09c-0.14,0.06-0.26,0.14-0.37,0.25c-0.1,0.11-0.18,0.23-0.25,0.37c-0.06,0.14-0.09,0.28-0.09,0.44
					V32.24z"/>
				<path class="st0" d="M68.89,29.15c0-0.12,0.04-0.22,0.12-0.3c0.08-0.08,0.18-0.12,0.3-0.12c0.11,0,0.21,0.04,0.29,0.12
					c0.08,0.08,0.13,0.18,0.13,0.3v3.09c0,0.15,0.03,0.3,0.09,0.44c0.06,0.14,0.14,0.26,0.25,0.37c0.11,0.11,0.23,0.19,0.37,0.25
					c0.14,0.06,0.29,0.09,0.45,0.09c0.15,0,0.3-0.03,0.44-0.09c0.14-0.06,0.26-0.14,0.37-0.25c0.1-0.11,0.18-0.23,0.25-0.37
					c0.06-0.14,0.09-0.28,0.09-0.44v-3.09c0-0.12,0.04-0.22,0.12-0.3c0.08-0.08,0.18-0.12,0.3-0.12c0.11,0,0.21,0.04,0.29,0.12
					c0.08,0.08,0.13,0.18,0.13,0.3v3.09c0,0.27-0.05,0.53-0.16,0.77c-0.11,0.24-0.25,0.45-0.43,0.63c-0.18,0.18-0.39,0.32-0.63,0.42
					c-0.24,0.1-0.5,0.15-0.77,0.15c-0.28,0-0.54-0.05-0.77-0.15c-0.24-0.1-0.45-0.24-0.63-0.42c-0.18-0.18-0.33-0.39-0.43-0.63
					c-0.1-0.24-0.15-0.5-0.15-0.77V29.15z"/>
				<path class="st0" d="M78.22,30.5h-1.74c-0.23,0-0.42,0.18-0.42,0.4c0,0.23,0.19,0.42,0.42,0.42h1.38v0.65
					c0,0.89-0.81,1.56-1.66,1.56c-0.94,0-1.74-0.64-1.74-1.74v-2.5c0-1.02,0.77-1.74,1.71-1.74c0.8,0,1.41,0.53,1.64,1.19
					c0.08,0.14,0.19,0.22,0.38,0.22c0.32,0,0.53-0.26,0.37-0.64c-0.27-0.8-1.09-1.63-2.39-1.63c-1.5,0-2.57,1.18-2.57,2.54v2.6
					c0,1.37,1.08,2.55,2.57,2.55c1.35,0,2.49-1.05,2.49-2.25V30.9C78.67,30.65,78.46,30.5,78.22,30.5z"/>
			</g>
		</g>
		<path class="st0" d="M95.45,29.15c0-0.12,0.04-0.22,0.12-0.3c0.08-0.08,0.18-0.12,0.3-0.12c0.11,0,0.21,0.04,0.29,0.12
			c0.08,0.08,0.13,0.18,0.13,0.3v4.6c0,0.12-0.04,0.22-0.12,0.3c-0.08,0.08-0.18,0.12-0.3,0.12c-0.11,0-0.21-0.04-0.29-0.12
			c-0.08-0.08-0.13-0.18-0.13-0.3V29.15z"/>
		<g>
			<path class="st0" d="M44.34,27.51c0-0.11,0.04-0.21,0.12-0.29c0.08-0.08,0.18-0.12,0.29-0.12h1.64h0.01
				c0.35,0,0.68,0.07,0.99,0.2c0.31,0.13,0.58,0.31,0.81,0.54c0.23,0.23,0.42,0.49,0.55,0.8c0.14,0.31,0.2,0.64,0.2,0.99
				c0,0.35-0.07,0.68-0.2,0.98c-0.14,0.3-0.32,0.57-0.55,0.8c-0.23,0.23-0.5,0.41-0.81,0.54c-0.31,0.13-0.64,0.2-0.99,0.2h-1.24
				v1.63c0,0.11-0.04,0.21-0.12,0.29c-0.08,0.08-0.18,0.12-0.29,0.12c-0.11,0-0.2-0.04-0.28-0.12c-0.08-0.08-0.12-0.18-0.12-0.29
				V27.51z M45.15,27.91v3.41h1.24c0.24,0,0.47-0.04,0.68-0.13c0.21-0.09,0.39-0.21,0.55-0.36c0.16-0.15,0.28-0.33,0.37-0.54
				c0.09-0.21,0.13-0.43,0.13-0.66c0-0.24-0.05-0.46-0.14-0.66c-0.09-0.21-0.22-0.39-0.38-0.54c-0.16-0.15-0.34-0.27-0.55-0.36
				c-0.21-0.09-0.43-0.13-0.67-0.13H45.15z"/>
		</g>
	</g>
	<g>
		<path class="st0" d="M96.85,26.98H96.7v-0.11h0.44v0.11h-0.16v0.46h-0.13V26.98z"/>
		<path class="st0" d="M97.69,27.22c0-0.07-0.01-0.15-0.01-0.24h0c-0.02,0.07-0.04,0.15-0.06,0.22l-0.07,0.22h-0.1l-0.06-0.22
			c-0.02-0.07-0.04-0.15-0.05-0.22h0c0,0.08-0.01,0.17-0.01,0.24l-0.01,0.22h-0.12l0.04-0.57h0.17l0.06,0.19
			c0.02,0.07,0.04,0.14,0.05,0.2h0c0.02-0.07,0.04-0.14,0.05-0.21l0.06-0.19h0.17l0.03,0.57H97.7L97.69,27.22z"/>
	</g>
</g>
</svg>
