<svg id="Layer_1" xmlns="http://www.w3.org/2000/svg" viewBox="0 0 320 100"><style>.st0{fill:#021d8b}</style><path class="st0" d="M115.18 19.6c0-.35-.12-.62-.37-.82s-.68-.4-1.31-.61-1.13-.41-1.53-.61c-1.29-.63-1.93-1.5-1.93-2.61 0-.55.16-1.04.48-1.46s.78-.75 1.36-.98 1.25-.35 1.98-.35c.72 0 1.36.13 1.92.38s1.01.62 1.32 1.09.47 1.01.47 1.62h-2.39c0-.41-.12-.72-.37-.94s-.58-.33-1.01-.33c-.43 0-.77.09-1.02.28s-.37.43-.37.72c0 .26.14.49.41.69s.75.42 1.44.64 1.25.46 1.7.71c1.08.62 1.61 1.47 1.61 2.56 0 .87-.33 1.55-.98 2.05s-1.56.75-2.7.75c-.81 0-1.54-.14-2.19-.43s-1.15-.69-1.48-1.19-.5-1.08-.5-1.74h2.41c0 .53.14.93.41 1.18s.72.38 1.34.38c.4 0 .71-.09.94-.26s.36-.41.36-.72zM118.41 18.48c0-.74.14-1.4.43-1.97s.7-1.02 1.24-1.33 1.17-.46 1.89-.46c1.11 0 1.98.34 2.62 1.03s.96 1.62.96 2.8v.08c0 1.15-.32 2.07-.96 2.74s-1.51 1.02-2.6 1.02c-1.05 0-1.9-.32-2.54-.95s-.98-1.49-1.03-2.57l-.01-.39zm2.3.14c0 .68.11 1.19.32 1.5s.53.48.95.48c.82 0 1.24-.63 1.26-1.89v-.23c0-1.33-.42-1.99-1.27-1.99-.77 0-1.19.57-1.25 1.72l-.01.41zM133 19.02l1.23-4.17h2.47l-3.01 8.63-.13.31c-.43.96-1.19 1.44-2.27 1.44-.3 0-.62-.05-.95-.14v-1.64h.3c.32 0 .57-.05.74-.14.17-.09.3-.26.38-.5l.18-.49-2.57-7.47h2.46l1.17 4.17zM137.01 18.48c0-.74.14-1.4.43-1.97s.7-1.02 1.24-1.33 1.17-.46 1.89-.46c1.11 0 1.98.34 2.62 1.03s.96 1.62.96 2.8v.08c0 1.15-.32 2.07-.96 2.74s-1.51 1.02-2.6 1.02c-1.05 0-1.9-.32-2.54-.95s-.98-1.49-1.03-2.57l-.01-.39zm2.3.14c0 .68.11 1.19.32 1.5s.53.48.95.48c.82 0 1.24-.63 1.26-1.89v-.23c0-1.33-.42-1.99-1.27-1.99-.77 0-1.19.57-1.25 1.72l-.01.41zM149.57 21.45c-.49.62-1.15.94-1.98.94-.81 0-1.43-.24-1.84-.71s-.63-1.15-.63-2.03v-4.79h2.3v4.81c0 .63.31.95.92.95.53 0 .9-.19 1.13-.57v-5.19h2.32v7.4h-2.16l-.06-.81zM159.51 19.49l-.65.65v2.11h-2.3V11.74h2.3v5.58l.23-.31 1.74-2.16h2.76L161 17.89l2.76 4.35h-2.64l-1.61-2.75zM166.32 14.85l.08.87c.51-.67 1.21-1 2.11-1 .77 0 1.35.23 1.73.69.38.46.58 1.15.59 2.08v4.76h-2.31v-4.67c0-.37-.08-.65-.23-.82s-.42-.26-.82-.26c-.45 0-.79.18-1 .53v5.22h-2.3v-7.4h2.15zM171.8 18.48c0-.74.14-1.4.43-1.97s.7-1.02 1.24-1.33c.54-.31 1.17-.46 1.89-.46 1.11 0 1.98.34 2.62 1.03.64.69.96 1.62.96 2.8v.08c0 1.15-.32 2.07-.96 2.74-.64.68-1.51 1.02-2.6 1.02-1.05 0-1.9-.32-2.54-.95-.64-.63-.98-1.49-1.03-2.57l-.01-.39zm2.31.14c0 .68.11 1.19.32 1.5.21.32.53.48.95.48.82 0 1.24-.63 1.26-1.89v-.23c0-1.33-.42-1.99-1.27-1.99-.77 0-1.19.57-1.25 1.72l-.01.41zM186.34 19.21l.75-4.36h2.21l-1.74 7.4h-1.95l-1.22-4.39-1.23 4.39h-1.95l-1.74-7.4h2.21l.73 4.46 1.18-4.46h1.61l1.14 4.36zM200 19.21l.75-4.36h2.21l-1.74 7.4h-1.95l-1.22-4.39-1.23 4.39h-1.95l-1.74-7.4h2.21l.73 4.46 1.18-4.46h1.61l1.14 4.36zM206.03 15.64c.49-.62 1.12-.93 1.89-.93.82 0 1.43.24 1.85.72.41.48.63 1.2.64 2.14v4.67h-2.31v-4.61c0-.39-.08-.68-.24-.86-.16-.18-.43-.28-.81-.28-.47 0-.81.15-1 .45v5.3h-2.3v-10.5h2.3v3.9zM215.25 22.38c-1.13 0-2.05-.34-2.75-1.02-.7-.68-1.05-1.56-1.05-2.64v-.19c0-.76.14-1.42.42-2s.69-1.03 1.23-1.34c.54-.32 1.18-.48 1.91-.48 1.04 0 1.86.32 2.46.97s.9 1.54.9 2.7v.9h-4.58c.08.41.26.74.54.98s.64.36 1.08.36c.73 0 1.3-.26 1.71-.77l1.05 1.24c-.29.4-.69.71-1.22.95s-1.09.34-1.7.34zm-.26-5.89c-.67 0-1.08.45-1.2 1.34h2.32v-.18c.01-.37-.08-.66-.28-.86-.19-.2-.47-.3-.84-.3zM223.77 16.94l-.76-.05c-.72 0-1.19.23-1.39.68v4.68h-2.3v-7.4h2.16l.08.95c.39-.72.93-1.09 1.62-1.09.25 0 .46.03.64.08l-.05 2.15zM228.18 22.38c-1.13 0-2.05-.34-2.75-1.02-.7-.68-1.05-1.56-1.05-2.64v-.19c0-.76.14-1.42.42-2s.69-1.03 1.23-1.34c.54-.32 1.18-.48 1.91-.48 1.04 0 1.86.32 2.46.97s.9 1.54.9 2.7v.9h-4.58c.08.41.26.74.54.98s.64.36 1.08.36c.73 0 1.3-.26 1.71-.77l1.05 1.24c-.29.4-.69.71-1.22.95s-1.09.34-1.7.34zm-.26-5.89c-.67 0-1.08.45-1.2 1.34h2.32v-.18c.01-.37-.08-.66-.28-.86-.19-.2-.47-.3-.84-.3zM238.67 19.02l1.23-4.17h2.47l-3.01 8.63-.13.31c-.43.96-1.19 1.44-2.27 1.44-.3 0-.62-.05-.95-.14v-1.64h.3c.32 0 .57-.05.74-.14.17-.09.3-.26.38-.5l.18-.49-2.57-7.47h2.46l1.17 4.17zM242.67 18.48c0-.74.14-1.4.43-1.97s.7-1.02 1.24-1.33c.54-.31 1.17-.46 1.89-.46 1.11 0 1.98.34 2.62 1.03.64.69.96 1.62.96 2.8v.08c0 1.15-.32 2.07-.96 2.74-.64.68-1.51 1.02-2.6 1.02-1.05 0-1.9-.32-2.54-.95-.64-.63-.98-1.49-1.03-2.57l-.01-.39zm2.31.14c0 .68.11 1.19.32 1.5.21.32.53.48.95.48.82 0 1.24-.63 1.26-1.89v-.23c0-1.33-.42-1.99-1.27-1.99-.77 0-1.19.57-1.25 1.72l-.01.41zM255.23 21.45c-.49.62-1.15.94-1.98.94-.81 0-1.43-.24-1.84-.71s-.62-1.15-.62-2.03v-4.79h2.3v4.81c0 .63.31.95.92.95.53 0 .9-.19 1.13-.57v-5.19h2.32v7.4h-2.16l-.07-.81zM266.08 20.17c0-.2-.1-.35-.31-.47s-.59-.24-1.17-.37-1.05-.29-1.42-.5c-.37-.21-.66-.46-.85-.76-.2-.3-.29-.64-.29-1.02 0-.68.28-1.24.84-1.68s1.29-.66 2.2-.66c.97 0 1.76.22 2.35.66.59.44.89 1.02.89 1.74H266c0-.59-.31-.89-.94-.89-.24 0-.44.07-.61.2s-.25.3-.25.5c0 .21.1.37.3.5.2.13.52.23.96.31.44.08.83.18 1.16.29 1.11.38 1.67 1.07 1.67 2.06 0 .67-.3 1.22-.9 1.65-.6.42-1.38.64-2.33.64-.63 0-1.2-.11-1.7-.34-.5-.23-.88-.54-1.16-.93-.28-.39-.42-.8-.42-1.24h2.15c.01.34.12.59.34.75s.5.24.84.24c.31 0 .55-.06.71-.19s.26-.28.26-.49zM272.06 13.01v1.84h1.22v1.6h-1.22v3.38c0 .28.05.47.15.58.1.11.3.16.59.16.23 0 .42-.01.57-.04v1.65c-.42.13-.85.2-1.3.2-.79 0-1.38-.19-1.76-.56-.38-.37-.57-.94-.57-1.7v-3.67h-.94v-1.6h.94v-1.84h2.32zM278.35 22.25c-.08-.15-.16-.37-.22-.66-.42.53-1.02.8-1.78.8-.7 0-1.29-.21-1.78-.63a2 2 0 0 1-.73-1.59c0-.8.3-1.41.89-1.82.59-.41 1.45-.62 2.58-.62h.71v-.39c0-.68-.29-1.02-.88-1.02-.55 0-.82.27-.82.81h-2.3c0-.71.3-1.29.91-1.74.61-.45 1.38-.67 2.33-.67s1.69.23 2.24.69.83 1.09.84 1.89v3.27c.01.68.11 1.2.31 1.56v.12h-2.3zm-1.44-1.51c.29 0 .53-.06.71-.18.19-.12.33-.26.41-.42v-1.18h-.67c-.8 0-1.2.36-1.2 1.08 0 .21.07.38.21.51.14.13.32.19.54.19zM283.73 14.85l.08.87c.51-.67 1.21-1 2.11-1 .77 0 1.35.23 1.73.69.38.46.58 1.15.59 2.08v4.76h-2.31v-4.67c0-.37-.08-.65-.23-.82s-.42-.26-.82-.26c-.45 0-.79.18-1 .53v5.22h-2.3v-7.4h2.15zM289.22 18.5c0-1.17.25-2.09.76-2.77s1.21-1.01 2.12-1.01c.66 0 1.22.26 1.67.78v-3.75h2.31v10.5H294l-.12-.79c-.47.62-1.08.93-1.8.93-.88 0-1.58-.34-2.09-1.01-.51-.68-.77-1.64-.77-2.88zm2.3.14c0 1.31.38 1.97 1.15 1.97.51 0 .88-.21 1.09-.64v-2.82c-.21-.44-.57-.66-1.08-.66-.71 0-1.1.57-1.16 1.72v.43z"/></svg>