<svg id="Layer_1" xmlns="http://www.w3.org/2000/svg" viewBox="0 0 320 100"><style>.st0{fill:#021d8b}</style><g id="C1_-_O_2_"><path class="st0" d="M126.02 39.27v5.01h-2.93V30.06h5.55c1.07 0 2.01.2 2.82.59s1.43.95 1.87 1.67c.44.72.65 1.54.65 2.46 0 1.39-.48 2.49-1.43 3.3s-2.27 1.21-3.96 1.21h-2.57zm0-2.38h2.62c.77 0 1.37-.18 1.77-.55s.61-.89.61-1.56c0-.7-.21-1.26-.62-1.69s-.98-.65-1.7-.66h-2.69v4.46zM138.78 44.28h-2.83v-15h2.83v15zM147.23 44.28c-.13-.25-.22-.57-.28-.95-.68.76-1.57 1.14-2.67 1.14-1.04 0-1.89-.3-2.57-.9s-1.02-1.35-1.02-2.27c0-1.12.42-1.98 1.25-2.58s2.03-.9 3.6-.91h1.3v-.61c0-.49-.13-.88-.38-1.17s-.65-.44-1.19-.44c-.48 0-.85.11-1.12.34s-.41.54-.41.94h-2.82c0-.61.19-1.18.57-1.7s.91-.93 1.6-1.23 1.46-.44 2.32-.44c1.3 0 2.34.33 3.1.98s1.15 1.57 1.15 2.76v4.58c.01 1 .15 1.76.42 2.28v.17h-2.85zm-2.34-1.97c.42 0 .8-.09 1.15-.28s.61-.43.78-.75v-1.82h-1.05c-1.41 0-2.16.49-2.26 1.46l-.01.17c0 .35.12.64.37.87s.59.35 1.02.35zM154.42 33.71l.09 1.22c.76-.94 1.77-1.42 3.04-1.42 1.12 0 1.95.33 2.5.99s.83 1.64.84 2.95v6.83h-2.82v-6.76c0-.6-.13-1.03-.39-1.3s-.69-.41-1.3-.41c-.79 0-1.39.34-1.79 1.02v7.45h-2.82V33.71h2.65zM165.63 33.71l.09 1.22c.76-.94 1.77-1.42 3.04-1.42 1.12 0 1.95.33 2.5.99s.83 1.64.84 2.95v6.83h-2.82v-6.76c0-.6-.13-1.03-.39-1.3s-.69-.41-1.3-.41c-.79 0-1.39.34-1.79 1.02v7.45h-2.82V33.71h2.65zM174.21 30.98c0-.42.14-.77.42-1.04s.67-.41 1.16-.41c.48 0 .87.14 1.15.41s.43.62.43 1.04c0 .43-.15.78-.43 1.05-.29.27-.67.41-1.15.41s-.86-.14-1.15-.41c-.29-.27-.43-.62-.43-1.05zm3 13.3h-2.83V33.71h2.83v10.57zM182.13 33.71l.09 1.22c.76-.94 1.77-1.42 3.04-1.42 1.12 0 1.95.33 2.5.99s.83 1.64.84 2.95v6.83h-2.82v-6.76c0-.6-.13-1.03-.39-1.3s-.69-.41-1.3-.41c-.79 0-1.39.34-1.79 1.02v7.45h-2.82V33.71h2.65zM190.32 38.92c0-1.62.39-2.93 1.16-3.92s1.81-1.48 3.12-1.48c1.16 0 2.06.4 2.71 1.19l.12-1h2.56v10.21c0 .92-.21 1.73-.63 2.41s-1.01 1.2-1.77 1.56-1.65.54-2.68.54c-.77 0-1.53-.15-2.27-.46s-1.29-.71-1.67-1.2l1.25-1.72c.7.79 1.56 1.18 2.56 1.18.75 0 1.33-.2 1.75-.6s.62-.97.62-1.7v-.57c-.65.74-1.51 1.1-2.57 1.1-1.27 0-2.3-.5-3.08-1.49s-1.18-2.31-1.18-3.95v-.1zm2.82.21c0 .96.19 1.71.58 2.25.38.54.91.82 1.58.82.86 0 1.47-.32 1.85-.97v-4.45c-.38-.65-.99-.97-1.83-.97-.68 0-1.21.28-1.6.83s-.58 1.38-.58 2.49zM210.51 31.11v2.6h1.81v2.07h-1.81v5.27c0 .39.07.67.22.84s.44.25.86.25c.31 0 .59-.02.83-.07v2.14c-.55.17-1.12.25-1.71.25-1.98 0-2.99-1-3.03-3v-5.69h-1.54V33.7h1.54v-2.6h2.83zM213.15 38.9c0-1.05.2-1.98.61-2.8s.98-1.46 1.74-1.9 1.64-.67 2.64-.67c1.43 0 2.59.44 3.49 1.31s1.4 2.06 1.51 3.55l.02.72c0 1.62-.45 2.92-1.36 3.9s-2.12 1.47-3.64 1.47-2.74-.49-3.65-1.46-1.36-2.3-1.36-3.98v-.14zm2.83.2c0 1 .19 1.77.57 2.3.38.53.92.8 1.62.8.68 0 1.22-.26 1.6-.79.38-.53.58-1.36.58-2.52 0-.98-.19-1.75-.58-2.29-.38-.54-.92-.81-1.62-.81-.69 0-1.22.27-1.6.81-.38.54-.57 1.37-.57 2.5zM232.53 33.71l.09 1.18c.75-.92 1.76-1.38 3.04-1.38 1.36 0 2.29.54 2.8 1.61.74-1.07 1.8-1.61 3.17-1.61 1.15 0 2 .33 2.56 1s.84 1.67.84 3.01v6.75h-2.83v-6.74c0-.6-.12-1.04-.35-1.31s-.65-.42-1.24-.42c-.85 0-1.43.4-1.76 1.21l.01 7.26h-2.82v-6.73c0-.61-.12-1.05-.36-1.33s-.65-.41-1.23-.41c-.8 0-1.38.33-1.74 1v7.47h-2.82V33.71h2.64zM253.32 44.28c-.13-.25-.22-.57-.28-.95-.68.76-1.57 1.14-2.67 1.14-1.04 0-1.89-.3-2.57-.9s-1.02-1.35-1.02-2.27c0-1.12.42-1.98 1.25-2.58s2.03-.9 3.6-.91h1.3v-.61c0-.49-.13-.88-.38-1.17s-.65-.44-1.19-.44c-.48 0-.85.11-1.12.34s-.41.54-.41.94h-2.82c0-.61.19-1.18.57-1.7s.91-.93 1.6-1.23 1.46-.44 2.32-.44c1.3 0 2.34.33 3.1.98s1.15 1.57 1.15 2.76v4.58c.01 1 .15 1.76.42 2.28v.17h-2.85zm-2.33-1.97c.42 0 .8-.09 1.15-.28s.61-.43.78-.75v-1.82h-1.05c-1.41 0-2.16.49-2.26 1.46l-.01.17c0 .35.12.64.37.87s.59.35 1.02.35zM261.76 40.04l-1.02 1.02v3.22h-2.82v-15h2.82v8.31l.55-.7 2.71-3.17h3.39l-3.82 4.4 4.15 6.16h-3.24l-2.72-4.24zM273.27 44.47c-1.55 0-2.81-.48-3.78-1.43s-1.46-2.22-1.46-3.8v-.27c0-1.06.21-2.01.62-2.85s.99-1.48 1.74-1.93 1.61-.68 2.57-.68c1.45 0 2.58.46 3.41 1.37s1.25 2.2 1.25 3.88v1.15h-6.73c.09.69.37 1.24.83 1.66s1.04.62 1.74.62c1.09 0 1.94-.39 2.55-1.18l1.39 1.55c-.42.6-1 1.07-1.72 1.4s-1.53.51-2.41.51zm-.32-8.68c-.56 0-1.01.19-1.36.57s-.57.92-.67 1.63h3.93v-.23c-.01-.63-.18-1.11-.51-1.46s-.79-.51-1.39-.51zM136.38 68.28c-.13-.25-.22-.57-.28-.95-.68.76-1.57 1.14-2.67 1.14-1.04 0-1.89-.3-2.57-.9s-1.02-1.35-1.02-2.27c0-1.12.42-1.98 1.25-2.58s2.03-.9 3.6-.91h1.3v-.61c0-.49-.13-.88-.38-1.17s-.65-.44-1.19-.44c-.48 0-.85.11-1.12.34s-.41.54-.41.94h-2.82c0-.61.19-1.18.57-1.7s.91-.93 1.6-1.23 1.46-.44 2.32-.44c1.3 0 2.34.33 3.1.98s1.15 1.57 1.15 2.76v4.58c.01 1 .15 1.76.42 2.28v.17h-2.85zm-2.34-1.97c.42 0 .8-.09 1.15-.28s.61-.43.78-.75v-1.82h-1.05c-1.41 0-2.16.49-2.26 1.46l-.01.17c0 .35.12.64.37.87s.59.35 1.02.35zM155.48 63.09c0 1.69-.36 3.01-1.08 3.96s-1.73 1.42-3.03 1.42c-1.15 0-2.06-.44-2.74-1.32l-.13 1.12h-2.54v-15h2.82v5.38c.65-.76 1.51-1.14 2.57-1.14 1.29 0 2.3.47 3.03 1.42s1.1 2.28 1.1 4v.16zm-2.82-.2c0-1.07-.17-1.85-.51-2.34s-.84-.74-1.51-.74c-.9 0-1.52.37-1.86 1.1v4.17c.35.74.97 1.11 1.88 1.11.91 0 1.51-.45 1.8-1.35.13-.42.2-1.07.2-1.95zM157.2 54.98c0-.42.14-.77.42-1.04s.67-.41 1.16-.41c.48 0 .87.14 1.15.41s.43.62.43 1.04c0 .43-.15.78-.43 1.05s-.67.41-1.15.41-.86-.14-1.15-.41-.43-.62-.43-1.05zm3 13.3h-2.83V57.71h2.83v10.57zM162.11 62.92c0-1.62.39-2.93 1.16-3.92s1.81-1.48 3.12-1.48c1.16 0 2.06.4 2.71 1.19l.12-1h2.56v10.21c0 .92-.21 1.73-.63 2.41s-1.01 1.2-1.77 1.56-1.65.54-2.68.54c-.77 0-1.53-.15-2.27-.46s-1.29-.71-1.67-1.2l1.25-1.72c.7.79 1.56 1.18 2.56 1.18.75 0 1.33-.2 1.75-.6s.62-.97.62-1.7v-.57c-.65.74-1.51 1.1-2.57 1.1-1.27 0-2.3-.5-3.08-1.49s-1.18-2.31-1.18-3.95v-.1zm2.82.21c0 .96.19 1.71.58 2.25.38.54.91.82 1.58.82.86 0 1.47-.32 1.85-.97v-4.45c-.38-.65-.99-.97-1.83-.97-.68 0-1.21.28-1.6.83s-.58 1.38-.58 2.49zM188.43 63.09c0 1.63-.37 2.93-1.11 3.91s-1.74 1.47-2.99 1.47c-1.07 0-1.93-.37-2.59-1.11v4.98h-2.82V57.71h2.62l.1 1.04c.68-.82 1.58-1.23 2.68-1.23 1.3 0 2.31.48 3.04 1.45s1.08 2.29 1.08 3.98v.14zm-2.82-.2c0-.98-.17-1.74-.52-2.28s-.85-.8-1.52-.8c-.89 0-1.49.34-1.83 1.02v4.33c.35.7.96 1.04 1.85 1.04 1.34 0 2.02-1.11 2.02-3.31zM196.5 67.2c-.7.85-1.66 1.27-2.89 1.27-1.13 0-2-.33-2.59-.98s-.9-1.6-.91-2.86v-6.92h2.82v6.83c0 1.1.5 1.65 1.5 1.65.96 0 1.61-.33 1.97-1V57.7h2.83v10.57h-2.66l-.07-1.07zM207.3 60.36c-.38-.05-.72-.08-1.02-.08-1.07 0-1.77.36-2.1 1.08v6.91h-2.82V57.71h2.67l.08 1.26c.57-.97 1.35-1.46 2.35-1.46.31 0 .61.04.88.13l-.04 2.72zM212.87 66.2c.52 0 .94-.14 1.27-.43s.49-.67.51-1.14h2.65c-.01.72-.2 1.37-.59 1.97s-.91 1.06-1.58 1.39-1.4.49-2.21.49c-1.51 0-2.7-.48-3.57-1.44s-1.31-2.29-1.31-3.98v-.19c0-1.63.43-2.93 1.3-3.9s2.05-1.46 3.56-1.46c1.32 0 2.38.38 3.18 1.13s1.2 1.75 1.22 3h-2.65c-.01-.55-.18-1-.51-1.34-.33-.34-.76-.52-1.29-.52-.66 0-1.15.24-1.49.72-.34.48-.5 1.26-.5 2.33v.29c0 1.09.17 1.87.5 2.35s.83.73 1.51.73zM221.66 58.86c.75-.9 1.69-1.35 2.82-1.35 2.29 0 3.45 1.33 3.49 3.99v6.77h-2.82v-6.69c0-.61-.13-1.05-.39-1.34s-.69-.43-1.3-.43c-.83 0-1.43.32-1.8.96v7.51h-2.82v-15h2.82v5.58zM236.22 68.28c-.13-.25-.22-.57-.28-.95-.68.76-1.57 1.14-2.67 1.14-1.04 0-1.89-.3-2.57-.9s-1.02-1.35-1.02-2.27c0-1.12.42-1.98 1.25-2.58s2.03-.9 3.6-.91h1.3v-.61c0-.49-.13-.88-.38-1.17s-.65-.44-1.19-.44c-.48 0-.85.11-1.12.34s-.41.54-.41.94h-2.82c0-.61.19-1.18.57-1.7s.91-.93 1.6-1.23 1.46-.44 2.32-.44c1.3 0 2.34.33 3.1.98s1.15 1.57 1.15 2.76v4.58c.01 1 .15 1.76.42 2.28v.17h-2.85zm-2.33-1.97c.42 0 .8-.09 1.15-.28s.61-.43.78-.75v-1.82h-1.05c-1.41 0-2.16.49-2.26 1.46l-.01.17c0 .35.12.64.37.87s.59.35 1.02.35zM246.54 65.36c0-.35-.17-.62-.51-.82s-.89-.38-1.65-.53c-2.51-.53-3.77-1.6-3.77-3.2 0-.94.39-1.72 1.17-2.35s1.8-.94 3.05-.94c1.34 0 2.41.32 3.22.95s1.21 1.45 1.21 2.46h-2.82c0-.4-.13-.74-.39-1s-.67-.4-1.22-.4c-.48 0-.84.11-1.1.32s-.39.49-.39.82c0 .31.15.56.44.76s.8.36 1.5.5 1.3.3 1.78.47c1.49.55 2.24 1.49 2.24 2.84 0 .96-.41 1.74-1.24 2.34s-1.89.89-3.2.89c-.89 0-1.67-.16-2.36-.47s-1.23-.75-1.62-1.3-.59-1.14-.59-1.78h2.68c.03.5.21.89.56 1.15s.81.4 1.39.4c.54 0 .95-.1 1.23-.31s.39-.47.39-.8zM255.97 68.47c-1.55 0-2.81-.48-3.78-1.43s-1.46-2.22-1.46-3.8v-.27c0-1.06.21-2.01.62-2.85s.99-1.48 1.74-1.93 1.61-.68 2.57-.68c1.45 0 2.58.46 3.41 1.37s1.25 2.2 1.25 3.88v1.15h-6.73c.09.69.37 1.24.83 1.66s1.04.62 1.74.62c1.09 0 1.94-.39 2.55-1.18l1.39 1.55c-.42.6-1 1.07-1.72 1.4s-1.53.51-2.41.51zm-.33-8.68c-.56 0-1.01.19-1.36.57s-.57.92-.67 1.63h3.93v-.23c-.01-.63-.18-1.11-.51-1.46s-.79-.51-1.39-.51zM264.22 63.92c0-.91.11-1.64.33-2.18.22-.54.63-1.07 1.22-1.6.59-.52.98-.95 1.18-1.28.2-.33.29-.68.29-1.04 0-1.1-.51-1.65-1.52-1.65-.48 0-.87.15-1.16.45s-.44.71-.45 1.23h-2.83c.01-1.24.42-2.22 1.21-2.92s1.87-1.06 3.24-1.06c1.38 0 2.45.33 3.21 1s1.14 1.61 1.14 2.83c0 .55-.12 1.08-.37 1.57s-.68 1.04-1.3 1.64l-.79.75c-.49.48-.78 1.03-.85 1.67l-.04.6h-2.51zm-.28 3c0-.43.15-.79.44-1.08s.68-.42 1.14-.42.84.14 1.14.42.44.64.44 1.08c0 .43-.15.78-.43 1.06s-.67.42-1.15.42-.86-.14-1.15-.42-.43-.64-.43-1.06z"/></g></svg>