<svg id="Layer_1" xmlns="http://www.w3.org/2000/svg" viewBox="0 0 320 100"><style>.st0{fill:#021d8b;stroke:url(#SVGID_1_);stroke-width:2;stroke-miterlimit:10}.st1{fill:#fff}</style><linearGradient id="SVGID_1_" gradientUnits="userSpaceOnUse" x1="163.989" y1="43.598" x2="242.038" y2="43.598"><stop offset="0" stop-color="#18b9fb"/><stop offset=".5" stop-color="#782eeb"/><stop offset="1" stop-color="#e82d8a"/></linearGradient><path class="st0" d="M230.04 54.6h-54.05c-6.08 0-11-4.92-11-11s4.92-11 11-11h54.05c6.08 0 11 4.92 11 11 0 6.07-4.93 11-11 11z"/><path class="st1" d="M181.55 45.23h2.83v1.07h-4.17v-6.48h1.34v5.41zM187.29 46.4c-.71 0-1.28-.22-1.73-.65-.44-.43-.67-1.01-.67-1.73v-.12c0-.48.09-.92.28-1.3.19-.38.45-.68.79-.88.34-.21.73-.31 1.17-.31.66 0 1.18.21 1.56.62.38.42.57 1 .57 1.77v.53h-3.07c.04.31.17.57.38.76.21.19.47.28.79.28.5 0 .88-.18 1.16-.54l.63.71c-.19.27-.45.49-.78.64s-.68.22-1.08.22zm-.15-3.96c-.25 0-.46.09-.62.26-.16.17-.26.42-.3.74H188v-.1c-.01-.29-.08-.51-.23-.66-.15-.16-.36-.24-.63-.24zM192.79 46.31c-.06-.12-.1-.26-.13-.43-.31.35-.72.52-1.21.52-.47 0-.86-.14-1.17-.41a1.32 1.32 0 0 1-.47-1.03c0-.51.19-.9.57-1.18.38-.27.93-.41 1.64-.41h.59v-.28c0-.22-.06-.4-.17-.53-.11-.13-.29-.2-.54-.2-.22 0-.39.05-.51.16s-.18.25-.18.43h-1.29c0-.28.09-.54.26-.77s.42-.42.73-.56c.32-.14.67-.2 1.06-.2.59 0 1.06.15 1.41.45.35.3.52.72.52 1.26v2.09c0 .46.07.8.19 1.04v.08h-1.3zm-1.07-.9c.19 0 .36-.04.53-.13.16-.08.28-.2.36-.34v-.83h-.48c-.64 0-.99.22-1.03.67v.08c0 .16.06.29.17.4.1.1.26.15.45.15zM197.59 42.7c-.17-.02-.33-.04-.46-.04-.49 0-.81.16-.96.49v3.15h-1.29v-4.82h1.21l.04.57c.26-.44.62-.66 1.07-.66.14 0 .28.02.4.06l-.01 1.25zM199.39 41.49l.04.56c.34-.43.81-.65 1.38-.65.51 0 .89.15 1.14.45.25.3.38.75.38 1.34v3.11h-1.29v-3.08c0-.27-.06-.47-.18-.59s-.32-.19-.59-.19c-.36 0-.63.15-.81.46v3.4h-1.29v-4.82h1.22zM206.79 41.49l.04.54c.34-.42.8-.63 1.38-.63.62 0 1.05.25 1.28.73.34-.49.82-.73 1.45-.73.52 0 .91.15 1.17.46.25.3.38.76.38 1.37v3.08h-1.29v-3.07c0-.27-.05-.47-.16-.6s-.3-.19-.57-.19c-.39 0-.65.18-.8.55v3.31h-1.29v-3.07c0-.28-.06-.48-.17-.61-.11-.12-.3-.19-.56-.19-.37 0-.63.15-.79.45v3.41h-1.29v-4.82h1.22zM213.28 43.85c0-.48.09-.9.28-1.28.18-.37.45-.66.79-.87s.75-.31 1.2-.31c.65 0 1.18.2 1.59.6.41.4.64.94.69 1.62l.01.33c0 .74-.21 1.33-.62 1.78-.41.45-.97.67-1.66.67s-1.25-.22-1.66-.67c-.41-.45-.62-1.05-.62-1.82v-.05zm1.28.1c0 .46.09.81.26 1.05s.42.36.74.36c.31 0 .55-.12.73-.36.18-.24.26-.62.26-1.15 0-.45-.09-.8-.26-1.04-.17-.25-.42-.37-.74-.37-.31 0-.56.12-.73.37-.17.24-.26.62-.26 1.14zM221.34 42.7c-.17-.02-.33-.04-.46-.04-.49 0-.81.16-.96.49v3.15h-1.29v-4.82h1.21l.04.57c.26-.44.62-.66 1.07-.66.14 0 .28.02.4.06l-.01 1.25zM224.17 46.4c-.71 0-1.28-.22-1.73-.65-.44-.43-.67-1.01-.67-1.73v-.12c0-.48.09-.92.28-1.3.19-.38.45-.68.79-.88.34-.21.73-.31 1.17-.31.66 0 1.18.21 1.56.62.38.42.57 1 .57 1.77v.53h-3.07c.04.31.17.57.38.76.21.19.47.28.79.28.5 0 .88-.18 1.16-.54l.63.71c-.19.27-.45.49-.78.64s-.68.22-1.08.22zm-.14-3.96c-.25 0-.46.09-.62.26-.16.17-.26.42-.3.74h1.79v-.1c-.01-.29-.08-.51-.23-.66-.16-.16-.37-.24-.64-.24z"/></svg>