<?xml version="1.0" encoding="utf-8"?>
<!-- Generator: Adobe Illustrator 26.0.3, SVG Export Plug-In . SVG Version: 6.00 Build 0)  -->
<svg version="1.1" id="Layer_1" xmlns="http://www.w3.org/2000/svg" xmlns:xlink="http://www.w3.org/1999/xlink" x="0px" y="0px"
	 viewBox="0 0 970 250" style="enable-background:new 0 0 970 250;" xml:space="preserve">
<style type="text/css">
	.st0{fill:url(#SVGID_1_);}
	.st1{fill:#FFFFFF;}
</style>
<linearGradient id="SVGID_1_" gradientUnits="userSpaceOnUse" x1="426.5031" y1="94.6717" x2="545.22" y2="94.6717">
	<stop  offset="0" style="stop-color:#18B9FB"/>
	<stop  offset="0.5" style="stop-color:#782EEB"/>
	<stop  offset="1" style="stop-color:#E82D8A"/>
</linearGradient>
<path class="st0" d="M543.9,96H427.8c-0.7,0-1.3-0.6-1.3-1.3v0c0-0.7,0.6-1.3,1.3-1.3h116.1c0.7,0,1.3,0.6,1.3,1.3v0
	C545.2,95.4,544.6,96,543.9,96z"/>
<g>
	<path class="st1" d="M214.5,68.7V48.3h6.6c1.8,0,3.4,0.4,4.9,1.2s2.6,2,3.4,3.5s1.2,3.2,1.2,5v0.9c0,1.9-0.4,3.5-1.2,5
		c-0.8,1.5-1.9,2.6-3.3,3.5c-1.4,0.8-3,1.3-4.8,1.3H214.5z M219.4,52.1v12.8h1.7c1.4,0,2.5-0.5,3.2-1.5s1.1-2.5,1.1-4.5V58
		c0-2-0.4-3.4-1.1-4.4s-1.9-1.5-3.3-1.5H219.4z"/>
	<path class="st1" d="M232.2,61c0-1.5,0.3-2.9,0.9-4c0.6-1.2,1.4-2.1,2.5-2.7s2.4-1,3.9-1c2.3,0,4,0.7,5.4,2.1c1.3,1.4,2,3.3,2,5.7
		v0.2c0,2.4-0.7,4.2-2,5.6c-1.3,1.4-3.1,2.1-5.3,2.1c-2.2,0-3.9-0.6-5.2-1.9s-2-3-2.1-5.2L232.2,61z M236.9,61.3
		c0,1.4,0.2,2.4,0.7,3.1c0.4,0.7,1.1,1,1.9,1c1.7,0,2.5-1.3,2.6-3.9V61c0-2.7-0.9-4.1-2.6-4.1c-1.6,0-2.4,1.2-2.6,3.5L236.9,61.3z"
		/>
	<path class="st1" d="M262,62.5l1.5-8.9h4.5l-3.6,15.1h-4l-2.5-9l-2.5,9h-4l-3.6-15.1h4.5l1.5,9.1l2.4-9.1h3.3L262,62.5z"/>
	<path class="st1" d="M274,53.5l0.2,1.8c1-1.4,2.5-2.1,4.3-2.1c1.6,0,2.8,0.5,3.5,1.4s1.2,2.4,1.2,4.2v9.7h-4.7v-9.5
		c0-0.8-0.2-1.3-0.5-1.7c-0.3-0.4-0.9-0.5-1.7-0.5c-0.9,0-1.6,0.4-2.1,1.1v10.7h-4.7V53.5H274z"/>
	<path class="st1" d="M290.8,68.7h-4.7V47.2h4.7V68.7z"/>
	<path class="st1" d="M293.1,61c0-1.5,0.3-2.9,0.9-4c0.6-1.2,1.4-2.1,2.5-2.7s2.4-1,3.9-1c2.3,0,4,0.7,5.4,2.1c1.3,1.4,2,3.3,2,5.7
		v0.2c0,2.4-0.7,4.2-2,5.6c-1.3,1.4-3.1,2.1-5.3,2.1c-2.2,0-3.9-0.6-5.2-1.9s-2-3-2.1-5.2L293.1,61z M297.8,61.3
		c0,1.4,0.2,2.4,0.7,3.1c0.4,0.7,1.1,1,1.9,1c1.7,0,2.5-1.3,2.6-3.9V61c0-2.7-0.9-4.1-2.6-4.1c-1.6,0-2.4,1.2-2.6,3.5L297.8,61.3z"
		/>
	<path class="st1" d="M318.3,68.7c-0.2-0.3-0.3-0.8-0.4-1.4c-0.9,1.1-2.1,1.6-3.6,1.6c-1.4,0-2.6-0.4-3.6-1.3s-1.5-1.9-1.5-3.2
		c0-1.6,0.6-2.9,1.8-3.7s3-1.3,5.3-1.3h1.5v-0.8c0-1.4-0.6-2.1-1.8-2.1c-1.1,0-1.7,0.6-1.7,1.7h-4.7c0-1.5,0.6-2.6,1.9-3.6
		c1.2-0.9,2.8-1.4,4.8-1.4s3.5,0.5,4.6,1.4s1.7,2.2,1.7,3.9v6.7c0,1.4,0.2,2.5,0.6,3.2v0.2H318.3z M315.4,65.6
		c0.6,0,1.1-0.1,1.5-0.4c0.4-0.3,0.7-0.5,0.8-0.9v-2.4h-1.4c-1.6,0-2.5,0.7-2.5,2.2c0,0.4,0.1,0.8,0.4,1
		C314.5,65.5,314.9,65.6,315.4,65.6z"/>
	<path class="st1" d="M324.4,61c0-2.4,0.5-4.3,1.6-5.7c1-1.4,2.5-2.1,4.3-2.1c1.4,0,2.5,0.5,3.4,1.6v-7.7h4.7v21.5h-4.2l-0.2-1.6
		c-1,1.3-2.2,1.9-3.7,1.9c-1.8,0-3.2-0.7-4.3-2.1C324.9,65.5,324.4,63.5,324.4,61z M329.1,61.3c0,2.7,0.8,4,2.3,4
		c1,0,1.8-0.4,2.2-1.3v-5.8c-0.4-0.9-1.2-1.3-2.2-1.3c-1.5,0-2.2,1.2-2.4,3.5L329.1,61.3z"/>
	<path class="st1" d="M363.6,52.1h-6.1v16.6h-4.9V52.1h-6v-3.8h17V52.1z"/>
	<path class="st1" d="M370,55.2c1-1.3,2.3-1.9,3.9-1.9c1.7,0,2.9,0.5,3.8,1.5c0.8,1,1.3,2.4,1.3,4.4v9.5h-4.7v-9.4
		c0-0.8-0.2-1.4-0.5-1.8c-0.3-0.4-0.9-0.6-1.7-0.6c-1,0-1.7,0.3-2.1,0.9v10.8h-4.7V47.2h4.7V55.2z"/>
	<path class="st1" d="M388.9,68.9c-2.3,0-4.2-0.7-5.6-2.1c-1.4-1.4-2.2-3.2-2.2-5.4v-0.4c0-1.5,0.3-2.9,0.9-4.1s1.4-2.1,2.5-2.7
		c1.1-0.6,2.4-1,3.9-1c2.1,0,3.8,0.7,5,2s1.8,3.2,1.8,5.5v1.8h-9.4c0.2,0.8,0.5,1.5,1.1,2s1.3,0.7,2.2,0.7c1.5,0,2.7-0.5,3.5-1.6
		l2.2,2.5c-0.6,0.8-1.4,1.5-2.5,1.9C391.3,68.7,390.1,68.9,388.9,68.9z M388.4,56.9c-1.4,0-2.2,0.9-2.5,2.7h4.8v-0.4
		c0-0.8-0.2-1.3-0.6-1.8C389.7,57.1,389.1,56.9,388.4,56.9z"/>
	<path class="st1" d="M409.4,61.8v6.9h-4.9V48.3h8.1c1.6,0,2.9,0.3,4.1,0.9c1.2,0.6,2.1,1.4,2.8,2.4s1,2.3,1,3.6
		c0,2-0.7,3.6-2.1,4.8s-3.4,1.8-5.9,1.8H409.4z M409.4,58h3.2c1,0,1.7-0.2,2.2-0.7c0.5-0.5,0.7-1.1,0.7-2c0-1-0.3-1.7-0.8-2.3
		c-0.5-0.6-1.2-0.9-2.1-0.9h-3.3V58z"/>
	<path class="st1" d="M432.1,57.8l-1.6-0.1c-1.5,0-2.4,0.5-2.9,1.4v9.6H423V53.5h4.4l0.2,1.9c0.8-1.5,1.9-2.2,3.3-2.2
		c0.5,0,0.9,0.1,1.3,0.2L432.1,57.8z"/>
	<path class="st1" d="M433.8,49.6c0-0.7,0.2-1.2,0.7-1.7c0.5-0.4,1.1-0.6,1.9-0.6s1.4,0.2,1.9,0.6c0.5,0.4,0.7,1,0.7,1.7
		c0,0.7-0.2,1.2-0.7,1.6c-0.5,0.4-1.1,0.6-1.9,0.6s-1.4-0.2-1.9-0.6C434,50.9,433.8,50.3,433.8,49.6z M438.8,68.7H434V53.5h4.7V68.7
		z"/>
	<path class="st1" d="M447.7,63.1l2.4-9.5h5l-4.9,15.1h-4.8l-4.9-15.1h5L447.7,63.1z"/>
	<path class="st1" d="M464.8,68.7c-0.2-0.3-0.3-0.8-0.4-1.4c-0.9,1.1-2.1,1.6-3.6,1.6c-1.4,0-2.6-0.4-3.6-1.3s-1.5-1.9-1.5-3.2
		c0-1.6,0.6-2.9,1.8-3.7s3-1.3,5.3-1.3h1.5v-0.8c0-1.4-0.6-2.1-1.8-2.1c-1.1,0-1.7,0.6-1.7,1.7h-4.7c0-1.5,0.6-2.6,1.9-3.6
		c1.2-0.9,2.8-1.4,4.8-1.4s3.5,0.5,4.6,1.4s1.7,2.2,1.7,3.9v6.7c0,1.4,0.2,2.5,0.6,3.2v0.2H464.8z M461.8,65.6
		c0.6,0,1.1-0.1,1.5-0.4c0.4-0.3,0.7-0.5,0.8-0.9v-2.4h-1.4c-1.6,0-2.5,0.7-2.5,2.2c0,0.4,0.1,0.8,0.4,1
		C461,65.5,461.4,65.6,461.8,65.6z"/>
	<path class="st1" d="M477.8,65.3c0.7,0,1.2-0.2,1.5-0.5c0.4-0.4,0.5-0.9,0.5-1.5h4.4c0,1.7-0.6,3-1.8,4.1c-1.2,1.1-2.7,1.6-4.6,1.6
		c-2.2,0-3.9-0.7-5.2-2.1c-1.3-1.4-1.9-3.3-1.9-5.7v-0.2c0-1.5,0.3-2.9,0.8-4c0.6-1.2,1.4-2.1,2.4-2.7c1.1-0.6,2.3-0.9,3.8-0.9
		c2,0,3.5,0.5,4.7,1.6c1.2,1.1,1.7,2.6,1.7,4.4h-4.4c0-0.8-0.2-1.4-0.6-1.8c-0.4-0.4-0.9-0.6-1.5-0.6c-1.2,0-1.9,0.8-2.1,2.3
		c-0.1,0.5-0.1,1.2-0.1,2c0,1.5,0.2,2.6,0.5,3.2C476.5,65,477,65.3,477.8,65.3z"/>
	<path class="st1" d="M492.4,62.1l2.5-8.5h5l-6.2,17.7l-0.3,0.6c-0.9,2-2.4,2.9-4.6,2.9c-0.6,0-1.3-0.1-1.9-0.3v-3.4h0.6
		c0.7,0,1.2-0.1,1.5-0.3s0.6-0.5,0.8-1l0.4-1l-5.3-15.3h5L492.4,62.1z"/>
	<path class="st1" d="M518,66.1c-0.8,0.8-1.9,1.5-3.3,2s-3,0.8-4.8,0.8c-2.7,0-4.8-0.8-6.4-2.4s-2.4-3.9-2.6-6.8l0-1.8
		c0-2,0.4-3.8,1.1-5.2c0.7-1.5,1.7-2.6,3-3.5c1.3-0.8,2.8-1.2,4.6-1.2c2.5,0,4.5,0.6,5.9,1.7s2.2,2.9,2.5,5.2h-4.7
		c-0.2-1.1-0.5-1.9-1.1-2.4c-0.6-0.5-1.4-0.7-2.4-0.7c-1.2,0-2.2,0.5-2.9,1.6c-0.7,1-1,2.5-1,4.5v1.2c0,2,0.3,3.6,1,4.6
		s1.8,1.5,3.3,1.5c1.3,0,2.2-0.3,2.9-0.9v-3.2h-3.4v-3.4h8.3V66.1z"/>
	<path class="st1" d="M529.7,67c-1,1.3-2.3,1.9-4,1.9c-1.7,0-2.9-0.5-3.8-1.4c-0.9-1-1.3-2.4-1.3-4.2v-9.8h4.7v9.8
		c0,1.3,0.6,1.9,1.9,1.9c1.1,0,1.8-0.4,2.3-1.2V53.5h4.7v15.1h-4.4L529.7,67z"/>
	<path class="st1" d="M545.3,68.7c-0.2-0.3-0.3-0.8-0.4-1.4c-0.9,1.1-2.1,1.6-3.6,1.6c-1.4,0-2.6-0.4-3.6-1.3s-1.5-1.9-1.5-3.2
		c0-1.6,0.6-2.9,1.8-3.7s3-1.3,5.3-1.3h1.5v-0.8c0-1.4-0.6-2.1-1.8-2.1c-1.1,0-1.7,0.6-1.7,1.7h-4.7c0-1.5,0.6-2.6,1.9-3.6
		c1.2-0.9,2.8-1.4,4.8-1.4s3.5,0.5,4.6,1.4s1.7,2.2,1.7,3.9v6.7c0,1.4,0.2,2.5,0.6,3.2v0.2H545.3z M542.4,65.6
		c0.6,0,1.1-0.1,1.5-0.4c0.4-0.3,0.7-0.5,0.8-0.9v-2.4h-1.4c-1.6,0-2.5,0.7-2.5,2.2c0,0.4,0.1,0.8,0.4,1
		C541.6,65.5,541.9,65.6,542.4,65.6z"/>
	<path class="st1" d="M561.2,57.8l-1.6-0.1c-1.5,0-2.4,0.5-2.9,1.4v9.6H552V53.5h4.4l0.2,1.9c0.8-1.5,1.9-2.2,3.3-2.2
		c0.5,0,0.9,0.1,1.3,0.2L561.2,57.8z"/>
	<path class="st1" d="M562.3,61c0-2.4,0.5-4.3,1.6-5.7c1-1.4,2.5-2.1,4.3-2.1c1.4,0,2.5,0.5,3.4,1.6v-7.7h4.7v21.5H572l-0.2-1.6
		c-1,1.3-2.2,1.9-3.7,1.9c-1.8,0-3.2-0.7-4.3-2.1C562.8,65.5,562.3,63.5,562.3,61z M567,61.3c0,2.7,0.8,4,2.3,4c1,0,1.8-0.4,2.2-1.3
		v-5.8c-0.4-0.9-1.2-1.3-2.2-1.3c-1.5,0-2.2,1.2-2.4,3.5L567,61.3z"/>
	<path class="st1" d="M597.9,64.9h-6.7l-1.2,3.8h-5.2l7.5-20.4h4.6l7.5,20.4h-5.3L597.9,64.9z M592.3,61.1h4.4l-2.2-7.1L592.3,61.1z
		"/>
	<path class="st1" d="M619.6,61.2c0,2.3-0.5,4.2-1.6,5.6s-2.5,2.1-4.3,2.1c-1.4,0-2.5-0.5-3.4-1.5v7.1h-4.7V53.5h4.4l0.1,1.4
		c0.9-1.1,2.1-1.7,3.6-1.7c1.9,0,3.3,0.7,4.3,2.1c1,1.4,1.6,3.3,1.6,5.7V61.2z M614.9,60.9c0-2.7-0.8-4-2.3-4
		c-1.1,0-1.9,0.4-2.2,1.2v6c0.4,0.8,1.2,1.3,2.3,1.3c1.5,0,2.3-1.3,2.3-3.9V60.9z"/>
	<path class="st1" d="M635.8,61.2c0,2.3-0.5,4.2-1.6,5.6s-2.5,2.1-4.3,2.1c-1.4,0-2.5-0.5-3.4-1.5v7.1h-4.7V53.5h4.4l0.1,1.4
		c0.9-1.1,2.1-1.7,3.6-1.7c1.9,0,3.3,0.7,4.3,2.1c1,1.4,1.6,3.3,1.6,5.7V61.2z M631,60.9c0-2.7-0.8-4-2.3-4c-1.1,0-1.9,0.4-2.2,1.2
		v6c0.4,0.8,1.2,1.3,2.3,1.3c1.5,0,2.3-1.3,2.3-3.9V60.9z"/>
	<path class="st1" d="M653.5,68.7c-0.2-0.3-0.3-0.8-0.4-1.4c-0.9,1.1-2.1,1.6-3.6,1.6c-1.4,0-2.6-0.4-3.6-1.3s-1.5-1.9-1.5-3.2
		c0-1.6,0.6-2.9,1.8-3.7s3-1.3,5.3-1.3h1.5v-0.8c0-1.4-0.6-2.1-1.8-2.1c-1.1,0-1.7,0.6-1.7,1.7h-4.7c0-1.5,0.6-2.6,1.9-3.6
		c1.2-0.9,2.8-1.4,4.8-1.4s3.5,0.5,4.6,1.4s1.7,2.2,1.7,3.9v6.7c0,1.4,0.2,2.5,0.6,3.2v0.2H653.5z M650.5,65.6
		c0.6,0,1.1-0.1,1.5-0.4c0.4-0.3,0.7-0.5,0.8-0.9v-2.4h-1.4c-1.6,0-2.5,0.7-2.5,2.2c0,0.4,0.1,0.8,0.4,1
		C649.7,65.5,650.1,65.6,650.5,65.6z"/>
	<path class="st1" d="M664.5,53.5l0.2,1.8c1-1.4,2.5-2.1,4.3-2.1c1.6,0,2.8,0.5,3.5,1.4s1.2,2.4,1.2,4.2v9.7H669v-9.5
		c0-0.8-0.2-1.3-0.5-1.7c-0.3-0.4-0.9-0.5-1.7-0.5c-0.9,0-1.6,0.4-2.1,1.1v10.7h-4.7V53.5H664.5z"/>
	<path class="st1" d="M675.7,61c0-2.4,0.5-4.3,1.6-5.7c1-1.4,2.5-2.1,4.3-2.1c1.4,0,2.5,0.5,3.4,1.6v-7.7h4.7v21.5h-4.2l-0.2-1.6
		c-1,1.3-2.2,1.9-3.7,1.9c-1.8,0-3.2-0.7-4.3-2.1C676.2,65.5,675.7,63.5,675.7,61z M680.4,61.3c0,2.7,0.8,4,2.3,4
		c1,0,1.8-0.4,2.2-1.3v-5.8c-0.4-0.9-1.2-1.3-2.2-1.3c-1.5,0-2.2,1.2-2.4,3.5L680.4,61.3z"/>
	<path class="st1" d="M712.4,60h-7.7v4.9h9.1v3.8h-14V48.3h14v3.8h-9.1v4.3h7.7V60z"/>
	<path class="st1" d="M719.9,53.5l0.2,1.8c1-1.4,2.5-2.1,4.3-2.1c1.6,0,2.8,0.5,3.5,1.4s1.2,2.4,1.2,4.2v9.7h-4.7v-9.5
		c0-0.8-0.2-1.3-0.5-1.7c-0.3-0.4-0.9-0.5-1.7-0.5c-0.9,0-1.6,0.4-2.1,1.1v10.7h-4.7V53.5H719.9z"/>
	<path class="st1" d="M740.9,57.8l-1.6-0.1c-1.5,0-2.4,0.5-2.9,1.4v9.6h-4.7V53.5h4.4l0.2,1.9c0.8-1.5,1.9-2.2,3.3-2.2
		c0.5,0,0.9,0.1,1.3,0.2L740.9,57.8z"/>
	<path class="st1" d="M741.5,61c0-1.5,0.3-2.9,0.9-4c0.6-1.2,1.4-2.1,2.5-2.7s2.4-1,3.9-1c2.3,0,4,0.7,5.4,2.1c1.3,1.4,2,3.3,2,5.7
		v0.2c0,2.4-0.7,4.2-2,5.6c-1.3,1.4-3.1,2.1-5.3,2.1c-2.2,0-3.9-0.6-5.2-1.9s-2-3-2.1-5.2L741.5,61z M746.2,61.3
		c0,1.4,0.2,2.4,0.7,3.1c0.4,0.7,1.1,1,1.9,1c1.7,0,2.5-1.3,2.6-3.9V61c0-2.7-0.9-4.1-2.6-4.1c-1.6,0-2.4,1.2-2.6,3.5L746.2,61.3z"
		/>
	<path class="st1" d="M763.1,68.7h-4.7V47.2h4.7V68.7z"/>
	<path class="st1" d="M771,68.7h-4.7V47.2h4.7V68.7z"/>
	<path class="st1" d="M796.4,52.1h-6.1v16.6h-4.9V52.1h-6v-3.8h17V52.1z"/>
	<path class="st1" d="M794.7,61c0-1.5,0.3-2.9,0.9-4c0.6-1.2,1.4-2.1,2.5-2.7s2.4-1,3.9-1c2.3,0,4,0.7,5.4,2.1c1.3,1.4,2,3.3,2,5.7
		v0.2c0,2.4-0.7,4.2-2,5.6c-1.3,1.4-3.1,2.1-5.3,2.1c-2.2,0-3.9-0.6-5.2-1.9s-2-3-2.1-5.2L794.7,61z M799.4,61.3
		c0,1.4,0.2,2.4,0.7,3.1c0.4,0.7,1.1,1,1.9,1c1.7,0,2.5-1.3,2.6-3.9V61c0-2.7-0.9-4.1-2.6-4.1c-1.6,0-2.4,1.2-2.6,3.5L799.4,61.3z"
		/>
	<path class="st1" d="M810.8,61c0-2.4,0.5-4.3,1.6-5.7c1-1.4,2.5-2.1,4.3-2.1c1.4,0,2.5,0.5,3.4,1.6v-7.7h4.7v21.5h-4.2l-0.2-1.6
		c-1,1.3-2.2,1.9-3.7,1.9c-1.8,0-3.2-0.7-4.3-2.1C811.3,65.5,810.8,63.5,810.8,61z M815.5,61.3c0,2.7,0.8,4,2.3,4
		c1,0,1.8-0.4,2.2-1.3v-5.8c-0.4-0.9-1.2-1.3-2.2-1.3c-1.5,0-2.2,1.2-2.4,3.5L815.5,61.3z"/>
	<path class="st1" d="M836,68.7c-0.2-0.3-0.3-0.8-0.4-1.4c-0.9,1.1-2.1,1.6-3.6,1.6c-1.4,0-2.6-0.4-3.6-1.3s-1.5-1.9-1.5-3.2
		c0-1.6,0.6-2.9,1.8-3.7s3-1.3,5.3-1.3h1.5v-0.8c0-1.4-0.6-2.1-1.8-2.1c-1.1,0-1.7,0.6-1.7,1.7h-4.7c0-1.5,0.6-2.6,1.9-3.6
		c1.2-0.9,2.8-1.4,4.8-1.4s3.5,0.5,4.6,1.4s1.7,2.2,1.7,3.9v6.7c0,1.4,0.2,2.5,0.6,3.2v0.2H836z M833.1,65.6c0.6,0,1.1-0.1,1.5-0.4
		c0.4-0.3,0.7-0.5,0.8-0.9v-2.4H834c-1.6,0-2.5,0.7-2.5,2.2c0,0.4,0.1,0.8,0.4,1C832.2,65.5,832.6,65.6,833.1,65.6z"/>
	<path class="st1" d="M848.7,62.1l2.5-8.5h5l-6.2,17.7l-0.3,0.6c-0.9,2-2.4,2.9-4.6,2.9c-0.6,0-1.3-0.1-1.9-0.3v-3.4h0.6
		c0.7,0,1.2-0.1,1.5-0.3s0.6-0.5,0.8-1l0.4-1l-5.3-15.3h5L848.7,62.1z"/>
</g>
</svg>
