<?xml version="1.0" encoding="utf-8"?>
<!-- Generator: Adobe Illustrator 26.0.3, SVG Export Plug-In . SVG Version: 6.00 Build 0)  -->
<svg version="1.1" id="Layer_1" xmlns="http://www.w3.org/2000/svg" xmlns:xlink="http://www.w3.org/1999/xlink" x="0px" y="0px"
	 viewBox="0 0 970 250" style="enable-background:new 0 0 970 250;" xml:space="preserve">
<style type="text/css">
	.st0{fill:#FFFFFF;}
	.st1{fill:#021D8B;}
</style>
<path class="st0" d="M714,152.3H251.5c-14.2,0-25.8-11.6-25.8-25.8v0c0-14.2,11.6-25.8,25.8-25.8H714c14.2,0,25.8,11.6,25.8,25.8v0
	C739.8,140.7,728.2,152.3,714,152.3z"/>
<g>
	<path class="st0" d="M252.1,86.5h-3.9l-5.8-10.2v10.2h-3.9V70.2h3.9l5.8,10.2V70.2h3.9V86.5z"/>
	<path class="st0" d="M260.3,86.7c-1.9,0-3.4-0.6-4.5-1.7c-1.2-1.1-1.7-2.6-1.7-4.3v-0.3c0-1.2,0.2-2.3,0.7-3.3
		c0.5-0.9,1.1-1.7,2-2.2s1.9-0.8,3.1-0.8c1.7,0,3,0.5,4,1.6c1,1.1,1.5,2.5,1.5,4.4v1.5h-7.5c0.1,0.7,0.4,1.2,0.9,1.6s1,0.6,1.8,0.6
		c1.2,0,2.1-0.4,2.8-1.3l1.7,2c-0.5,0.7-1.1,1.2-2,1.6S261.3,86.7,260.3,86.7z M259.9,77.1c-1.1,0-1.8,0.7-2,2.2h3.8V79
		c0-0.6-0.1-1.1-0.5-1.4C260.9,77.2,260.5,77.1,259.9,77.1z"/>
	<path class="st0" d="M272.8,86.7c-1.9,0-3.4-0.6-4.5-1.7c-1.2-1.1-1.7-2.6-1.7-4.3v-0.3c0-1.2,0.2-2.3,0.7-3.3
		c0.5-0.9,1.1-1.7,2-2.2s1.9-0.8,3.1-0.8c1.7,0,3,0.5,4,1.6c1,1.1,1.5,2.5,1.5,4.4v1.5h-7.5c0.1,0.7,0.4,1.2,0.9,1.6s1,0.6,1.8,0.6
		c1.2,0,2.1-0.4,2.8-1.3l1.7,2c-0.5,0.7-1.1,1.2-2,1.6S273.8,86.7,272.8,86.7z M272.4,77.1c-1.1,0-1.8,0.7-2,2.2h3.8V79
		c0-0.6-0.1-1.1-0.5-1.4C273.4,77.2,273,77.1,272.4,77.1z"/>
	<path class="st0" d="M279,80.3c0-1.9,0.4-3.4,1.2-4.5c0.8-1.1,2-1.7,3.5-1.7c1.1,0,2,0.4,2.7,1.3v-6.1h3.8v17.2h-3.4l-0.2-1.3
		c-0.8,1-1.8,1.5-3,1.5c-1.4,0-2.6-0.6-3.4-1.7C279.4,84,279,82.4,279,80.3z M282.7,80.6c0,2.2,0.6,3.2,1.9,3.2
		c0.8,0,1.4-0.4,1.8-1.1v-4.6c-0.3-0.7-0.9-1.1-1.8-1.1c-1.2,0-1.8,0.9-1.9,2.8L282.7,80.6z"/>
	<path class="st0" d="M298.9,86.5V77h-1.8v-2.6h1.8v-1c0-1.4,0.4-2.5,1.2-3.2c0.8-0.8,2-1.1,3.4-1.1c0.5,0,1.1,0.1,1.8,0.2l0,2.8
		c-0.2-0.1-0.5-0.1-0.9-0.1c-1.1,0-1.7,0.5-1.7,1.5v0.9h2.4V77h-2.4v9.5H298.9z"/>
	<path class="st0" d="M313.2,86.5c-0.1-0.2-0.3-0.6-0.4-1.1c-0.7,0.9-1.7,1.3-2.9,1.3c-1.1,0-2.1-0.3-2.9-1s-1.2-1.6-1.2-2.6
		c0-1.3,0.5-2.3,1.5-3c1-0.7,2.4-1,4.2-1h1.2v-0.6c0-1.1-0.5-1.7-1.4-1.7c-0.9,0-1.3,0.4-1.3,1.3h-3.8c0-1.2,0.5-2.1,1.5-2.9
		s2.3-1.1,3.8-1.1s2.8,0.4,3.7,1.1s1.4,1.8,1.4,3.1v5.4c0,1.1,0.2,2,0.5,2.6v0.2H313.2z M310.9,84c0.5,0,0.9-0.1,1.2-0.3
		c0.3-0.2,0.5-0.4,0.7-0.7v-1.9h-1.1c-1.3,0-2,0.6-2,1.8c0,0.3,0.1,0.6,0.3,0.8S310.5,84,310.9,84z"/>
	<path class="st0" d="M324.9,83.1c0-0.3-0.2-0.6-0.5-0.8s-1-0.4-1.9-0.6c-0.9-0.2-1.7-0.5-2.3-0.8c-0.6-0.3-1.1-0.8-1.4-1.2
		c-0.3-0.5-0.5-1-0.5-1.7c0-1.1,0.5-2,1.4-2.8c0.9-0.7,2.1-1.1,3.6-1.1c1.6,0,2.9,0.4,3.9,1.1c1,0.7,1.5,1.7,1.5,2.9h-3.8
		c0-1-0.5-1.5-1.5-1.5c-0.4,0-0.7,0.1-1,0.3c-0.3,0.2-0.4,0.5-0.4,0.8c0,0.3,0.2,0.6,0.5,0.8c0.3,0.2,0.9,0.4,1.6,0.5
		c0.7,0.1,1.4,0.3,1.9,0.5c1.8,0.6,2.7,1.8,2.7,3.4c0,1.1-0.5,2-1.5,2.7s-2.3,1-3.8,1c-1,0-2-0.2-2.8-0.6c-0.8-0.4-1.5-0.9-1.9-1.5
		c-0.5-0.6-0.7-1.3-0.7-2h3.5c0,0.6,0.2,1,0.6,1.2c0.4,0.3,0.8,0.4,1.4,0.4c0.5,0,0.9-0.1,1.2-0.3S324.9,83.4,324.9,83.1z"/>
	<path class="st0" d="M334.7,71.4v3h2V77h-2v5.5c0,0.5,0.1,0.8,0.2,1c0.2,0.2,0.5,0.3,1,0.3c0.4,0,0.7,0,0.9-0.1v2.7
		c-0.7,0.2-1.4,0.3-2.1,0.3c-1.3,0-2.3-0.3-2.9-0.9c-0.6-0.6-0.9-1.5-0.9-2.8v-6h-1.5v-2.6h1.5v-3H334.7z"/>
	<path class="st0" d="M350.8,86.5c-0.1-0.2-0.3-0.6-0.4-1.1c-0.7,0.9-1.7,1.3-2.9,1.3c-1.1,0-2.1-0.3-2.9-1s-1.2-1.6-1.2-2.6
		c0-1.3,0.5-2.3,1.5-3c1-0.7,2.4-1,4.2-1h1.2v-0.6c0-1.1-0.5-1.7-1.4-1.7c-0.9,0-1.3,0.4-1.3,1.3h-3.8c0-1.2,0.5-2.1,1.5-2.9
		s2.3-1.1,3.8-1.1s2.8,0.4,3.7,1.1s1.4,1.8,1.4,3.1v5.4c0,1.1,0.2,2,0.5,2.6v0.2H350.8z M348.4,84c0.5,0,0.9-0.1,1.2-0.3
		c0.3-0.2,0.5-0.4,0.7-0.7v-1.9h-1.1c-1.3,0-2,0.6-2,1.8c0,0.3,0.1,0.6,0.3,0.8S348,84,348.4,84z"/>
	<path class="st0" d="M361.2,83.8c0.5,0,0.9-0.1,1.2-0.4c0.3-0.3,0.4-0.7,0.4-1.2h3.5c0,1.3-0.5,2.4-1.4,3.3c-1,0.9-2.2,1.3-3.7,1.3
		c-1.8,0-3.2-0.6-4.2-1.7c-1-1.1-1.5-2.6-1.5-4.6v-0.2c0-1.2,0.2-2.3,0.7-3.2c0.5-0.9,1.1-1.7,2-2.2c0.9-0.5,1.9-0.8,3-0.8
		c1.6,0,2.8,0.4,3.8,1.3c0.9,0.9,1.4,2.1,1.4,3.6h-3.5c0-0.6-0.2-1.1-0.5-1.4c-0.3-0.3-0.7-0.5-1.2-0.5c-1,0-1.6,0.6-1.7,1.9
		c-0.1,0.4-0.1,0.9-0.1,1.6c0,1.2,0.1,2.1,0.4,2.5C360.2,83.6,360.6,83.8,361.2,83.8z"/>
	<path class="st0" d="M373.2,83.8c0.5,0,0.9-0.1,1.2-0.4c0.3-0.3,0.4-0.7,0.4-1.2h3.5c0,1.3-0.5,2.4-1.4,3.3c-1,0.9-2.2,1.3-3.7,1.3
		c-1.8,0-3.2-0.6-4.2-1.7c-1-1.1-1.5-2.6-1.5-4.6v-0.2c0-1.2,0.2-2.3,0.7-3.2c0.5-0.9,1.1-1.7,2-2.2c0.9-0.5,1.9-0.8,3-0.8
		c1.6,0,2.8,0.4,3.8,1.3c0.9,0.9,1.4,2.1,1.4,3.6h-3.5c0-0.6-0.2-1.1-0.5-1.4c-0.3-0.3-0.7-0.5-1.2-0.5c-1,0-1.6,0.6-1.7,1.9
		c-0.1,0.4-0.1,0.9-0.1,1.6c0,1.2,0.1,2.1,0.4,2.5C372.1,83.6,372.5,83.8,373.2,83.8z"/>
	<path class="st0" d="M385.8,86.7c-1.9,0-3.4-0.6-4.5-1.7c-1.2-1.1-1.7-2.6-1.7-4.3v-0.3c0-1.2,0.2-2.3,0.7-3.3
		c0.5-0.9,1.1-1.7,2-2.2s1.9-0.8,3.1-0.8c1.7,0,3,0.5,4,1.6c1,1.1,1.5,2.5,1.5,4.4v1.5h-7.5c0.1,0.7,0.4,1.2,0.9,1.6s1,0.6,1.8,0.6
		c1.2,0,2.1-0.4,2.8-1.3l1.7,2c-0.5,0.7-1.1,1.2-2,1.6S386.8,86.7,385.8,86.7z M385.4,77.1c-1.1,0-1.8,0.7-2,2.2h3.8V79
		c0-0.6-0.1-1.1-0.5-1.4C386.5,77.2,386,77.1,385.4,77.1z"/>
	<path class="st0" d="M398.8,83.1c0-0.3-0.2-0.6-0.5-0.8s-1-0.4-1.9-0.6c-0.9-0.2-1.7-0.5-2.3-0.8c-0.6-0.3-1.1-0.8-1.4-1.2
		c-0.3-0.5-0.5-1-0.5-1.7c0-1.1,0.5-2,1.4-2.8c0.9-0.7,2.1-1.1,3.6-1.1c1.6,0,2.9,0.4,3.9,1.1c1,0.7,1.5,1.7,1.5,2.9h-3.8
		c0-1-0.5-1.5-1.5-1.5c-0.4,0-0.7,0.1-1,0.3c-0.3,0.2-0.4,0.5-0.4,0.8c0,0.3,0.2,0.6,0.5,0.8c0.3,0.2,0.9,0.4,1.6,0.5
		c0.7,0.1,1.4,0.3,1.9,0.5c1.8,0.6,2.7,1.8,2.7,3.4c0,1.1-0.5,2-1.5,2.7s-2.3,1-3.8,1c-1,0-2-0.2-2.8-0.6c-0.8-0.4-1.5-0.9-1.9-1.5
		c-0.5-0.6-0.7-1.3-0.7-2h3.5c0,0.6,0.2,1,0.6,1.2c0.4,0.3,0.8,0.4,1.4,0.4c0.5,0,0.9-0.1,1.2-0.3S398.8,83.4,398.8,83.1z"/>
	<path class="st0" d="M410.6,83.1c0-0.3-0.2-0.6-0.5-0.8s-1-0.4-1.9-0.6c-0.9-0.2-1.7-0.5-2.3-0.8c-0.6-0.3-1.1-0.8-1.4-1.2
		c-0.3-0.5-0.5-1-0.5-1.7c0-1.1,0.5-2,1.4-2.8c0.9-0.7,2.1-1.1,3.6-1.1c1.6,0,2.9,0.4,3.9,1.1c1,0.7,1.5,1.7,1.5,2.9h-3.8
		c0-1-0.5-1.5-1.5-1.5c-0.4,0-0.7,0.1-1,0.3c-0.3,0.2-0.4,0.5-0.4,0.8c0,0.3,0.2,0.6,0.5,0.8c0.3,0.2,0.9,0.4,1.6,0.5
		c0.7,0.1,1.4,0.3,1.9,0.5c1.8,0.6,2.7,1.8,2.7,3.4c0,1.1-0.5,2-1.5,2.7s-2.3,1-3.8,1c-1,0-2-0.2-2.8-0.6c-0.8-0.4-1.5-0.9-1.9-1.5
		c-0.5-0.6-0.7-1.3-0.7-2h3.5c0,0.6,0.2,1,0.6,1.2c0.4,0.3,0.8,0.4,1.4,0.4c0.5,0,0.9-0.1,1.2-0.3S410.6,83.4,410.6,83.1z"/>
	<path class="st0" d="M426.1,71.4v3h2V77h-2v5.5c0,0.5,0.1,0.8,0.2,1c0.2,0.2,0.5,0.3,1,0.3c0.4,0,0.7,0,0.9-0.1v2.7
		c-0.7,0.2-1.4,0.3-2.1,0.3c-1.3,0-2.3-0.3-2.9-0.9c-0.6-0.6-0.9-1.5-0.9-2.8v-6h-1.5v-2.6h1.5v-3H426.1z"/>
	<path class="st0" d="M428.8,80.3c0-1.2,0.2-2.3,0.7-3.2s1.1-1.7,2-2.2c0.9-0.5,1.9-0.8,3.1-0.8c1.8,0,3.2,0.6,4.3,1.7
		c1,1.1,1.6,2.7,1.6,4.6v0.1c0,1.9-0.5,3.4-1.6,4.5c-1.1,1.1-2.5,1.7-4.3,1.7c-1.7,0-3.1-0.5-4.2-1.6c-1-1-1.6-2.4-1.7-4.2
		L428.8,80.3z M432.6,80.6c0,1.1,0.2,1.9,0.5,2.5c0.4,0.5,0.9,0.8,1.6,0.8c1.3,0,2-1,2.1-3.1v-0.4c0-2.2-0.7-3.3-2.1-3.3
		c-1.3,0-1.9,0.9-2.1,2.8L432.6,80.6z"/>
	<path class="st0" d="M452.7,81.2l2-6.8h4l-4.9,14.2l-0.2,0.5c-0.7,1.6-1.9,2.4-3.7,2.4c-0.5,0-1-0.1-1.6-0.2v-2.7h0.5
		c0.5,0,0.9-0.1,1.2-0.2c0.3-0.2,0.5-0.4,0.6-0.8l0.3-0.8l-4.2-12.3h4L452.7,81.2z"/>
	<path class="st0" d="M459.3,80.3c0-1.2,0.2-2.3,0.7-3.2s1.1-1.7,2-2.2c0.9-0.5,1.9-0.8,3.1-0.8c1.8,0,3.2,0.6,4.3,1.7
		c1,1.1,1.6,2.7,1.6,4.6v0.1c0,1.9-0.5,3.4-1.6,4.5c-1.1,1.1-2.5,1.7-4.3,1.7c-1.7,0-3.1-0.5-4.2-1.6c-1-1-1.6-2.4-1.7-4.2
		L459.3,80.3z M463.1,80.6c0,1.1,0.2,1.9,0.5,2.5c0.4,0.5,0.9,0.8,1.6,0.8c1.3,0,2-1,2.1-3.1v-0.4c0-2.2-0.7-3.3-2.1-3.3
		c-1.3,0-1.9,0.9-2.1,2.8L463.1,80.6z"/>
	<path class="st0" d="M479.9,85.2c-0.8,1-1.9,1.5-3.2,1.5c-1.3,0-2.3-0.4-3-1.2c-0.7-0.8-1-1.9-1-3.3v-7.9h3.8v7.9
		c0,1,0.5,1.6,1.5,1.6c0.9,0,1.5-0.3,1.8-0.9v-8.5h3.8v12.1H480L479.9,85.2z"/>
	<path class="st0" d="M493,77.8l-1.2-0.1c-1.2,0-2,0.4-2.3,1.1v7.7h-3.8V74.4h3.5l0.1,1.6c0.6-1.2,1.5-1.8,2.7-1.8
		c0.4,0,0.8,0,1.1,0.1L493,77.8z"/>
	<path class="st0" d="M504.4,71.4v3h2V77h-2v5.5c0,0.5,0.1,0.8,0.2,1c0.2,0.2,0.5,0.3,1,0.3c0.4,0,0.7,0,0.9-0.1v2.7
		c-0.7,0.2-1.4,0.3-2.1,0.3c-1.3,0-2.3-0.3-2.9-0.9c-0.6-0.6-0.9-1.5-0.9-2.8v-6h-1.5v-2.6h1.5v-3H504.4z"/>
	<path class="st0" d="M515.3,77.8l-1.2-0.1c-1.2,0-2,0.4-2.3,1.1v7.7h-3.8V74.4h3.5l0.1,1.6c0.6-1.2,1.5-1.8,2.7-1.8
		c0.4,0,0.8,0,1.1,0.1L515.3,77.8z"/>
	<path class="st0" d="M516.6,71.2c0-0.5,0.2-1,0.6-1.3s0.9-0.5,1.5-0.5s1.1,0.2,1.5,0.5s0.6,0.8,0.6,1.3s-0.2,1-0.6,1.3
		s-0.9,0.5-1.5,0.5s-1.1-0.2-1.5-0.5S516.6,71.8,516.6,71.2z M520.6,86.5h-3.8V74.4h3.8V86.5z"/>
	<path class="st0" d="M534.2,80.5c0,1.9-0.4,3.4-1.3,4.5s-2,1.7-3.4,1.7c-1.1,0-2-0.4-2.7-1.2v5.7H523V74.4h3.5l0.1,1.1
		c0.7-0.9,1.7-1.3,2.9-1.3c1.5,0,2.7,0.6,3.5,1.7c0.8,1.1,1.2,2.6,1.2,4.5V80.5z M530.4,80.3c0-2.2-0.6-3.2-1.9-3.2
		c-0.9,0-1.5,0.3-1.8,1v4.8c0.3,0.7,0.9,1,1.8,1c1.2,0,1.8-1,1.9-3.1V80.3z"/>
	<path class="st0" d="M539.8,86.5H536V69.3h3.8V86.5z"/>
	<path class="st0" d="M548,86.7c-1.9,0-3.4-0.6-4.5-1.7c-1.2-1.1-1.7-2.6-1.7-4.3v-0.3c0-1.2,0.2-2.3,0.7-3.3c0.5-0.9,1.1-1.7,2-2.2
		s1.9-0.8,3.1-0.8c1.7,0,3,0.5,4,1.6c1,1.1,1.5,2.5,1.5,4.4v1.5h-7.5c0.1,0.7,0.4,1.2,0.9,1.6s1,0.6,1.8,0.6c1.2,0,2.1-0.4,2.8-1.3
		l1.7,2c-0.5,0.7-1.1,1.2-2,1.6S549,86.7,548,86.7z M547.6,77.1c-1.1,0-1.8,0.7-2,2.2h3.8V79c0-0.6-0.1-1.1-0.5-1.4
		C548.7,77.2,548.2,77.1,547.6,77.1z"/>
	<path class="st0" d="M562,80.9h-6.7V78h6.7V80.9z"/>
	<path class="st0" d="M576.3,80.5c0,2-0.4,3.5-1.2,4.6c-0.8,1.1-2,1.6-3.5,1.6c-1.2,0-2.2-0.5-3-1.5l-0.2,1.2H565V69.3h3.8v6.1
		c0.7-0.8,1.6-1.2,2.7-1.2c1.5,0,2.7,0.5,3.5,1.6s1.2,2.6,1.2,4.6V80.5z M572.5,80.3c0-1.2-0.2-2-0.5-2.5c-0.3-0.5-0.8-0.7-1.4-0.7
		c-0.9,0-1.4,0.3-1.8,1v4.8c0.3,0.6,0.9,1,1.8,1c0.9,0,1.5-0.4,1.7-1.3C572.4,82.1,572.5,81.3,572.5,80.3z"/>
	<path class="st0" d="M585.1,85.2c-0.8,1-1.9,1.5-3.2,1.5c-1.3,0-2.3-0.4-3-1.2c-0.7-0.8-1-1.9-1-3.3v-7.9h3.8v7.9
		c0,1,0.5,1.6,1.5,1.6c0.9,0,1.5-0.3,1.8-0.9v-8.5h3.8v12.1h-3.5L585.1,85.2z"/>
	<path class="st0" d="M598.2,77.8l-1.2-0.1c-1.2,0-2,0.4-2.3,1.1v7.7h-3.8V74.4h3.5l0.1,1.6c0.6-1.2,1.5-1.8,2.7-1.8
		c0.4,0,0.8,0,1.1,0.1L598.2,77.8z"/>
	<path class="st0" d="M605.4,86.7c-1.9,0-3.4-0.6-4.5-1.7c-1.2-1.1-1.7-2.6-1.7-4.3v-0.3c0-1.2,0.2-2.3,0.7-3.3
		c0.5-0.9,1.1-1.7,2-2.2s1.9-0.8,3.1-0.8c1.7,0,3,0.5,4,1.6c1,1.1,1.5,2.5,1.5,4.4v1.5H603c0.1,0.7,0.4,1.2,0.9,1.6s1,0.6,1.8,0.6
		c1.2,0,2.1-0.4,2.8-1.3l1.7,2c-0.5,0.7-1.1,1.2-2,1.6S606.4,86.7,605.4,86.7z M605,77.1c-1.1,0-1.8,0.7-2,2.2h3.8V79
		c0-0.6-0.1-1.1-0.5-1.4C606.1,77.2,605.6,77.1,605,77.1z"/>
	<path class="st0" d="M618.9,86.5c-0.1-0.2-0.3-0.6-0.4-1.1c-0.7,0.9-1.7,1.3-2.9,1.3c-1.1,0-2.1-0.3-2.9-1s-1.2-1.6-1.2-2.6
		c0-1.3,0.5-2.3,1.5-3c1-0.7,2.4-1,4.2-1h1.2v-0.6c0-1.1-0.5-1.7-1.4-1.7c-0.9,0-1.3,0.4-1.3,1.3h-3.8c0-1.2,0.5-2.1,1.5-2.9
		s2.3-1.1,3.8-1.1s2.8,0.4,3.7,1.1s1.4,1.8,1.4,3.1v5.4c0,1.1,0.2,2,0.5,2.6v0.2H618.9z M616.5,84c0.5,0,0.9-0.1,1.2-0.3
		c0.3-0.2,0.5-0.4,0.7-0.7v-1.9h-1.1c-1.3,0-2,0.6-2,1.8c0,0.3,0.1,0.6,0.3,0.8S616.2,84,616.5,84z"/>
	<path class="st0" d="M631.5,85.2c-0.8,1-1.9,1.5-3.2,1.5c-1.3,0-2.3-0.4-3-1.2c-0.7-0.8-1-1.9-1-3.3v-7.9h3.8v7.9
		c0,1,0.5,1.6,1.5,1.6c0.9,0,1.5-0.3,1.8-0.9v-8.5h3.8v12.1h-3.5L631.5,85.2z"/>
	<path class="st0" d="M646.5,74.4l0.1,1.4c0.9-1.1,2-1.6,3.5-1.6c1.5,0,2.6,0.6,3.1,1.8c0.8-1.2,2-1.8,3.6-1.8
		c2.5,0,3.7,1.5,3.8,4.5v7.9h-3.8v-7.7c0-0.6-0.1-1.1-0.3-1.4c-0.2-0.3-0.6-0.4-1.1-0.4c-0.7,0-1.3,0.3-1.7,1l0,0.2v8.3h-3.8v-7.6
		c0-0.6-0.1-1.1-0.3-1.4c-0.2-0.3-0.6-0.4-1.2-0.4c-0.7,0-1.3,0.3-1.7,1v8.4H643V74.4H646.5z"/>
	<path class="st0" d="M662.2,80.3c0-1.2,0.2-2.3,0.7-3.2s1.1-1.7,2-2.2c0.9-0.5,1.9-0.8,3.1-0.8c1.8,0,3.2,0.6,4.3,1.7
		c1,1.1,1.6,2.7,1.6,4.6v0.1c0,1.9-0.5,3.4-1.6,4.5c-1.1,1.1-2.5,1.7-4.3,1.7c-1.7,0-3.1-0.5-4.2-1.6c-1-1-1.6-2.4-1.7-4.2
		L662.2,80.3z M666,80.6c0,1.1,0.2,1.9,0.5,2.5c0.4,0.5,0.9,0.8,1.6,0.8c1.3,0,2-1,2.1-3.1v-0.4c0-2.2-0.7-3.3-2.1-3.3
		c-1.3,0-1.9,0.9-2.1,2.8L666,80.6z"/>
	<path class="st0" d="M679.1,74.4l0.1,1.4c0.8-1.1,2-1.6,3.5-1.6c1.3,0,2.2,0.4,2.8,1.1s0.9,1.9,1,3.4v7.8h-3.8v-7.7
		c0-0.6-0.1-1.1-0.4-1.4c-0.2-0.3-0.7-0.4-1.3-0.4c-0.7,0-1.3,0.3-1.6,0.9v8.6h-3.8V74.4H679.1z"/>
	<path class="st0" d="M692.9,71.4v3h2V77h-2v5.5c0,0.5,0.1,0.8,0.2,1c0.2,0.2,0.5,0.3,1,0.3c0.4,0,0.7,0,0.9-0.1v2.7
		c-0.7,0.2-1.4,0.3-2.1,0.3c-1.3,0-2.3-0.3-2.9-0.9c-0.6-0.6-0.9-1.5-0.9-2.8v-6h-1.5v-2.6h1.5v-3H692.9z"/>
	<path class="st0" d="M700.1,75.7c0.8-1,1.8-1.5,3.1-1.5c1.3,0,2.3,0.4,3,1.2c0.7,0.8,1,2,1,3.5v7.7h-3.8v-7.6
		c0-0.6-0.1-1.1-0.4-1.4c-0.3-0.3-0.7-0.5-1.3-0.5c-0.8,0-1.3,0.2-1.6,0.7v8.7h-3.8V69.3h3.8V75.7z"/>
	<path class="st0" d="M713.4,86.5h-3.8V69.3h3.8V86.5z"/>
	<path class="st0" d="M720.5,81.2l2-6.8h4l-4.9,14.2l-0.2,0.5c-0.7,1.6-1.9,2.4-3.7,2.4c-0.5,0-1-0.1-1.6-0.2v-2.7h0.5
		c0.5,0,0.9-0.1,1.2-0.2c0.3-0.2,0.5-0.4,0.6-0.8l0.3-0.8l-4.2-12.3h4L720.5,81.2z"/>
	<path class="st1" d="M250.4,133.9c1,0,1.7-0.3,2.3-0.8s0.8-1.3,0.8-2.2h6.5c0,2.4-0.9,4.5-2.6,6c-1.8,1.6-4,2.4-6.8,2.4
		c-3.2,0-5.8-1-7.7-3.1s-2.8-4.9-2.8-8.5v-0.3c0-2.3,0.4-4.2,1.2-6s2-3.1,3.6-4c1.6-0.9,3.4-1.4,5.6-1.4c2.9,0,5.2,0.8,6.9,2.4
		c1.7,1.6,2.6,3.8,2.6,6.5h-6.5c0-1.2-0.3-2-0.8-2.7c-0.6-0.6-1.3-0.9-2.3-0.9c-1.8,0-2.9,1.1-3.2,3.4c-0.1,0.7-0.1,1.7-0.1,3
		c0,2.2,0.3,3.8,0.8,4.7S249.2,133.9,250.4,133.9z"/>
	<path class="st1" d="M276.4,122.8l-2.3-0.2c-2.2,0-3.6,0.7-4.2,2.1v14.1h-7v-22.3h6.5l0.2,2.9c1.2-2.2,2.8-3.3,4.9-3.3
		c0.7,0,1.4,0.1,1.9,0.2L276.4,122.8z"/>
	<path class="st1" d="M289.7,139.3c-3.4,0-6.2-1-8.3-3.1c-2.1-2-3.2-4.7-3.2-8v-0.6c0-2.3,0.4-4.3,1.3-6c0.8-1.7,2.1-3.1,3.7-4.1
		c1.6-1,3.5-1.4,5.8-1.4c3.1,0,5.6,1,7.4,2.9c1.8,1.9,2.7,4.7,2.7,8.1v2.7h-13.8c0.2,1.3,0.8,2.2,1.6,2.9s1.9,1.1,3.3,1.1
		c2.2,0,3.9-0.8,5.2-2.3l3.2,3.8c-0.9,1.2-2.1,2.1-3.7,2.9C293.3,138.9,291.6,139.3,289.7,139.3z M288.9,121.5c-2,0-3.2,1.3-3.6,4h7
		V125c0-1.1-0.3-2-0.8-2.6C290.9,121.8,290,121.5,288.9,121.5z"/>
	<path class="st1" d="M301,127.5c0-3.5,0.8-6.3,2.3-8.4c1.5-2,3.7-3.1,6.4-3.1c2,0,3.7,0.8,5,2.4v-11.3h7v31.7h-6.3l-0.4-2.4
		c-1.4,1.9-3.2,2.8-5.4,2.8c-2.7,0-4.8-1-6.3-3.1C301.8,134.2,301,131.3,301,127.5z M308,128c0,4,1.2,5.9,3.5,5.9
		c1.5,0,2.6-0.6,3.3-1.9v-8.5c-0.6-1.3-1.7-2-3.3-2c-2.1,0-3.3,1.7-3.5,5.2L308,128z"/>
	<path class="st1" d="M325.6,110.8c0-1,0.4-1.8,1.1-2.4c0.7-0.6,1.6-0.9,2.8-0.9c1.1,0,2.1,0.3,2.8,0.9c0.7,0.6,1.1,1.4,1.1,2.4
		s-0.4,1.8-1.1,2.4c-0.7,0.6-1.6,0.9-2.8,0.9c-1.1,0-2.1-0.3-2.8-0.9C326,112.6,325.6,111.8,325.6,110.8z M333,138.8h-7v-22.3h7
		V138.8z"/>
	<path class="st1" d="M345.4,111v5.5h3.7v4.8h-3.7v10.2c0,0.8,0.2,1.4,0.5,1.8s0.9,0.5,1.8,0.5c0.7,0,1.3,0,1.7-0.1v5
		c-1.3,0.4-2.6,0.6-3.9,0.6c-2.4,0-4.2-0.6-5.3-1.7c-1.1-1.1-1.7-2.8-1.7-5.1v-11.1h-2.8v-4.8h2.8V111H345.4z"/>
	<path class="st1" d="M375.8,122.8l-2.3-0.2c-2.2,0-3.6,0.7-4.2,2.1v14.1h-7v-22.3h6.5l0.2,2.9c1.2-2.2,2.8-3.3,4.9-3.3
		c0.7,0,1.4,0.1,1.9,0.2L375.8,122.8z"/>
	<path class="st1" d="M389.1,139.3c-3.4,0-6.2-1-8.3-3.1c-2.1-2-3.2-4.7-3.2-8v-0.6c0-2.3,0.4-4.3,1.3-6c0.8-1.7,2.1-3.1,3.7-4.1
		c1.6-1,3.5-1.4,5.8-1.4c3.1,0,5.6,1,7.4,2.9c1.8,1.9,2.7,4.7,2.7,8.1v2.7h-13.8c0.2,1.3,0.8,2.2,1.6,2.9s1.9,1.1,3.3,1.1
		c2.2,0,3.9-0.8,5.2-2.3l3.2,3.8c-0.9,1.2-2.1,2.1-3.7,2.9C392.7,138.9,391,139.3,389.1,139.3z M388.3,121.5c-2,0-3.2,1.3-3.6,4h7
		V125c0-1.1-0.3-2-0.8-2.6C390.3,121.8,389.4,121.5,388.3,121.5z"/>
	<path class="st1" d="M422.1,127.9c0,3.5-0.8,6.2-2.3,8.3c-1.6,2.1-3.7,3.1-6.3,3.1c-2,0-3.7-0.7-5.1-2.2v10.4h-7v-30.9h6.5l0.2,2.1
		c1.3-1.7,3.1-2.5,5.3-2.5c2.8,0,4.9,1,6.4,3s2.3,4.8,2.3,8.4V127.9z M415.1,127.4c0-4-1.2-5.9-3.5-5.9c-1.7,0-2.8,0.6-3.3,1.8v8.8
		c0.6,1.2,1.7,1.9,3.3,1.9c2.2,0,3.4-1.9,3.4-5.7V127.4z"/>
	<path class="st1" d="M424.2,127.5c0-2.2,0.4-4.2,1.3-6c0.9-1.7,2.1-3.1,3.7-4c1.6-0.9,3.5-1.4,5.7-1.4c3.3,0,6,1,7.9,3.1
		c1.9,2.1,2.9,4.9,2.9,8.4v0.2c0,3.5-1,6.2-2.9,8.3s-4.5,3.1-7.8,3.1c-3.2,0-5.7-1-7.7-2.9c-1.9-1.9-3-4.5-3.1-7.7L424.2,127.5z
		 M431.2,127.9c0,2.1,0.3,3.6,1,4.5s1.6,1.4,2.9,1.4c2.5,0,3.7-1.9,3.8-5.7v-0.7c0-4-1.3-6-3.8-6c-2.3,0-3.6,1.7-3.8,5.2
		L431.2,127.9z"/>
	<path class="st1" d="M462.3,122.8l-2.3-0.2c-2.2,0-3.6,0.7-4.2,2.1v14.1h-7v-22.3h6.5l0.2,2.9c1.2-2.2,2.8-3.3,4.9-3.3
		c0.7,0,1.4,0.1,1.9,0.2L462.3,122.8z"/>
	<path class="st1" d="M474,111v5.5h3.7v4.8H474v10.2c0,0.8,0.2,1.4,0.5,1.8s0.9,0.5,1.8,0.5c0.7,0,1.3,0,1.7-0.1v5
		c-1.3,0.4-2.6,0.6-3.9,0.6c-2.4,0-4.2-0.6-5.3-1.7c-1.1-1.1-1.7-2.8-1.7-5.1v-11.1h-2.8v-4.8h2.8V111H474z"/>
	<path class="st1" d="M492.1,132.6c0-0.6-0.3-1.1-0.9-1.4c-0.6-0.4-1.8-0.7-3.5-1.1c-1.7-0.4-3.2-0.9-4.3-1.5
		c-1.1-0.6-2-1.4-2.6-2.3c-0.6-0.9-0.9-1.9-0.9-3.1c0-2,0.8-3.7,2.5-5.1s3.9-2,6.6-2c2.9,0,5.3,0.7,7.1,2c1.8,1.3,2.7,3.1,2.7,5.3
		h-7c0-1.8-0.9-2.7-2.8-2.7c-0.7,0-1.3,0.2-1.8,0.6s-0.7,0.9-0.7,1.5c0,0.6,0.3,1.1,0.9,1.5c0.6,0.4,1.6,0.7,2.9,0.9
		c1.3,0.2,2.5,0.5,3.5,0.9c3.4,1.2,5,3.2,5,6.2c0,2-0.9,3.7-2.7,5c-1.8,1.3-4.2,1.9-7,1.9c-1.9,0-3.6-0.3-5.1-1s-2.7-1.6-3.5-2.8
		s-1.3-2.4-1.3-3.7h6.5c0,1,0.4,1.8,1,2.3s1.5,0.7,2.5,0.7c0.9,0,1.7-0.2,2.1-0.6C491.8,133.7,492.1,133.2,492.1,132.6z"/>
	<path class="st1" d="M525.1,138.8c-0.2-0.5-0.5-1.1-0.7-2c-1.3,1.6-3.1,2.4-5.4,2.4c-2.1,0-3.9-0.6-5.4-1.9
		c-1.5-1.3-2.2-2.9-2.2-4.8c0-2.4,0.9-4.2,2.7-5.5c1.8-1.2,4.4-1.9,7.8-1.9h2.1V124c0-2.1-0.9-3.1-2.7-3.1c-1.7,0-2.5,0.8-2.5,2.4
		h-7c0-2.2,0.9-3.9,2.8-5.3s4.2-2,7-2s5.1,0.7,6.7,2.1c1.7,1.4,2.5,3.3,2.5,5.7v9.9c0,2,0.3,3.6,0.9,4.7v0.3H525.1z M520.8,134.3
		c0.9,0,1.6-0.2,2.2-0.6c0.6-0.4,1-0.8,1.2-1.3v-3.6h-2c-2.4,0-3.6,1.1-3.6,3.3c0,0.6,0.2,1.1,0.6,1.5
		C519.6,134.1,520.1,134.3,520.8,134.3z"/>
	<path class="st1" d="M541.4,116.5l0.2,2.6c1.5-2,3.7-3,6.4-3c2.3,0,4.1,0.7,5.2,2.1c1.1,1.4,1.7,3.5,1.8,6.3v14.4h-7v-14.1
		c0-1.1-0.2-2-0.7-2.5s-1.3-0.8-2.5-0.8c-1.4,0-2.4,0.5-3,1.6v15.8h-7v-22.3H541.4z"/>
	<path class="st1" d="M557.9,127.5c0-3.5,0.8-6.3,2.3-8.4c1.5-2,3.7-3.1,6.4-3.1c2,0,3.7,0.8,5,2.4v-11.3h7v31.7h-6.3l-0.4-2.4
		c-1.4,1.9-3.2,2.8-5.4,2.8c-2.7,0-4.8-1-6.3-3.1C558.7,134.2,557.9,131.3,557.9,127.5z M564.9,128c0,4,1.2,5.9,3.5,5.9
		c1.5,0,2.6-0.6,3.3-1.9v-8.5c-0.6-1.3-1.7-2-3.3-2c-2.1,0-3.3,1.7-3.5,5.2L564.9,128z"/>
	<path class="st1" d="M604.8,132.6c0-0.6-0.3-1.1-0.9-1.4c-0.6-0.4-1.8-0.7-3.5-1.1c-1.7-0.4-3.2-0.9-4.3-1.5
		c-1.1-0.6-2-1.4-2.6-2.3c-0.6-0.9-0.9-1.9-0.9-3.1c0-2,0.8-3.7,2.5-5.1s3.9-2,6.6-2c2.9,0,5.3,0.7,7.1,2c1.8,1.3,2.7,3.1,2.7,5.3
		h-7c0-1.8-0.9-2.7-2.8-2.7c-0.7,0-1.3,0.2-1.8,0.6s-0.7,0.9-0.7,1.5c0,0.6,0.3,1.1,0.9,1.5c0.6,0.4,1.6,0.7,2.9,0.9
		c1.3,0.2,2.5,0.5,3.5,0.9c3.4,1.2,5,3.2,5,6.2c0,2-0.9,3.7-2.7,5c-1.8,1.3-4.2,1.9-7,1.9c-1.9,0-3.6-0.3-5.1-1s-2.7-1.6-3.5-2.8
		s-1.3-2.4-1.3-3.7h6.5c0,1,0.4,1.8,1,2.3s1.5,0.7,2.5,0.7c0.9,0,1.7-0.2,2.1-0.6C604.5,133.7,604.8,133.2,604.8,132.6z"/>
	<path class="st1" d="M624.2,133.9c1,0,1.7-0.3,2.3-0.8s0.8-1.3,0.8-2.2h6.5c0,2.4-0.9,4.5-2.6,6c-1.8,1.6-4,2.4-6.8,2.4
		c-3.2,0-5.8-1-7.7-3.1s-2.8-4.9-2.8-8.5v-0.3c0-2.3,0.4-4.2,1.2-6s2-3.1,3.6-4c1.6-0.9,3.4-1.4,5.6-1.4c2.9,0,5.2,0.8,6.9,2.4
		c1.7,1.6,2.6,3.8,2.6,6.5h-6.5c0-1.2-0.3-2-0.8-2.7c-0.6-0.6-1.3-0.9-2.3-0.9c-1.8,0-2.9,1.1-3.2,3.4c-0.1,0.7-0.1,1.7-0.1,3
		c0,2.2,0.3,3.8,0.8,4.7S623,133.9,624.2,133.9z"/>
	<path class="st1" d="M635.8,127.5c0-2.2,0.4-4.2,1.3-6c0.9-1.7,2.1-3.1,3.7-4c1.6-0.9,3.5-1.4,5.7-1.4c3.3,0,6,1,7.9,3.1
		c1.9,2.1,2.9,4.9,2.9,8.4v0.2c0,3.5-1,6.2-2.9,8.3s-4.5,3.1-7.8,3.1c-3.2,0-5.7-1-7.7-2.9c-1.9-1.9-3-4.5-3.1-7.7L635.8,127.5z
		 M642.7,127.9c0,2.1,0.3,3.6,1,4.5s1.6,1.4,2.9,1.4c2.5,0,3.7-1.9,3.8-5.7v-0.7c0-4-1.3-6-3.8-6c-2.3,0-3.6,1.7-3.8,5.2
		L642.7,127.9z"/>
	<path class="st1" d="M673.9,122.8l-2.3-0.2c-2.2,0-3.6,0.7-4.2,2.1v14.1h-7v-22.3h6.5l0.2,2.9c1.2-2.2,2.8-3.3,4.9-3.3
		c0.7,0,1.4,0.1,1.9,0.2L673.9,122.8z"/>
	<path class="st1" d="M687.2,139.3c-3.4,0-6.2-1-8.3-3.1c-2.1-2-3.2-4.7-3.2-8v-0.6c0-2.3,0.4-4.3,1.3-6c0.8-1.7,2.1-3.1,3.7-4.1
		c1.6-1,3.5-1.4,5.8-1.4c3.1,0,5.6,1,7.4,2.9c1.8,1.9,2.7,4.7,2.7,8.1v2.7h-13.8c0.2,1.3,0.8,2.2,1.6,2.9s1.9,1.1,3.3,1.1
		c2.2,0,3.9-0.8,5.2-2.3l3.2,3.8c-0.9,1.2-2.1,2.1-3.7,2.9C690.7,138.9,689,139.3,687.2,139.3z M686.4,121.5c-2,0-3.2,1.3-3.6,4h7
		V125c0-1.1-0.3-2-0.8-2.6C688.4,121.8,687.5,121.5,686.4,121.5z"/>
	<path class="st1" d="M711.1,132.6c0-0.6-0.3-1.1-0.9-1.4c-0.6-0.4-1.8-0.7-3.5-1.1c-1.7-0.4-3.2-0.9-4.3-1.5
		c-1.1-0.6-2-1.4-2.6-2.3c-0.6-0.9-0.9-1.9-0.9-3.1c0-2,0.8-3.7,2.5-5.1s3.9-2,6.6-2c2.9,0,5.3,0.7,7.1,2c1.8,1.3,2.7,3.1,2.7,5.3
		h-7c0-1.8-0.9-2.7-2.8-2.7c-0.7,0-1.3,0.2-1.8,0.6s-0.7,0.9-0.7,1.5c0,0.6,0.3,1.1,0.9,1.5c0.6,0.4,1.6,0.7,2.9,0.9
		c1.3,0.2,2.5,0.5,3.5,0.9c3.4,1.2,5,3.2,5,6.2c0,2-0.9,3.7-2.7,5c-1.8,1.3-4.2,1.9-7,1.9c-1.9,0-3.6-0.3-5.1-1s-2.7-1.6-3.5-2.8
		s-1.3-2.4-1.3-3.7h6.5c0,1,0.4,1.8,1,2.3s1.5,0.7,2.5,0.7c0.9,0,1.7-0.2,2.1-0.6C710.9,133.7,711.1,133.2,711.1,132.6z"/>
	<path class="st1" d="M723.5,146.9l-3.5-1.7l0.7-1.4c1-1.8,1.5-3.5,1.5-5.1v-5.2h5.6l0,4.5c0,1.6-0.4,3.2-1.2,4.8
		C725.7,144.5,724.7,145.9,723.5,146.9z"/>
	<path class="st0" d="M409.1,176.5c-0.1-0.2-0.3-0.6-0.4-1.1c-0.7,0.9-1.7,1.3-2.9,1.3c-1.1,0-2.1-0.3-2.9-1s-1.2-1.6-1.2-2.6
		c0-1.3,0.5-2.3,1.5-3c1-0.7,2.4-1,4.2-1h1.2v-0.6c0-1.1-0.5-1.7-1.4-1.7c-0.9,0-1.3,0.4-1.3,1.3H402c0-1.2,0.5-2.1,1.5-2.9
		c1-0.7,2.3-1.1,3.8-1.1s2.8,0.4,3.7,1.1c0.9,0.8,1.4,1.8,1.4,3.1v5.4c0,1.1,0.2,2,0.5,2.6v0.2H409.1z M406.7,174
		c0.5,0,0.9-0.1,1.2-0.3c0.3-0.2,0.5-0.4,0.7-0.7v-1.9h-1.1c-1.3,0-2,0.6-2,1.8c0,0.3,0.1,0.6,0.3,0.8S406.4,174,406.7,174z"/>
	<path class="st0" d="M418.4,176.5h-3.8v-17.2h3.8V176.5z"/>
	<path class="st0" d="M424.7,176.5h-3.8v-17.2h3.8V176.5z"/>
	<path class="st0" d="M432.8,161.2c0-0.5,0.2-1,0.6-1.3s0.9-0.5,1.5-0.5s1.1,0.2,1.5,0.5s0.6,0.8,0.6,1.3c0,0.5-0.2,1-0.6,1.3
		s-0.9,0.5-1.5,0.5s-1.1-0.2-1.5-0.5S432.8,161.8,432.8,161.2z M436.8,176.5H433v-12.1h3.8V176.5z"/>
	<path class="st0" d="M442.6,164.4l0.1,1.4c0.8-1.1,2-1.6,3.5-1.6c1.3,0,2.2,0.4,2.8,1.1c0.6,0.8,0.9,1.9,1,3.4v7.8h-3.8v-7.7
		c0-0.6-0.1-1.1-0.4-1.4c-0.2-0.3-0.7-0.4-1.3-0.4c-0.7,0-1.3,0.3-1.6,0.9v8.6H439v-12.1H442.6z"/>
	<path class="st0" d="M457.3,170.3c0-1.2,0.2-2.3,0.7-3.2s1.1-1.7,2-2.2s1.9-0.8,3.1-0.8c1.8,0,3.2,0.6,4.3,1.7
		c1,1.1,1.6,2.7,1.6,4.6v0.1c0,1.9-0.5,3.4-1.6,4.5c-1.1,1.1-2.5,1.7-4.3,1.7c-1.7,0-3.1-0.5-4.2-1.6c-1-1-1.6-2.4-1.7-4.2
		L457.3,170.3z M461.1,170.6c0,1.1,0.2,1.9,0.5,2.5c0.4,0.5,0.9,0.8,1.6,0.8c1.3,0,2-1,2.1-3.1v-0.4c0-2.2-0.7-3.3-2.1-3.3
		c-1.3,0-1.9,0.9-2.1,2.8L461.1,170.6z"/>
	<path class="st0" d="M474.1,164.4l0.1,1.4c0.8-1.1,2-1.6,3.5-1.6c1.3,0,2.2,0.4,2.8,1.1c0.6,0.8,0.9,1.9,1,3.4v7.8h-3.8v-7.7
		c0-0.6-0.1-1.1-0.4-1.4c-0.2-0.3-0.7-0.4-1.3-0.4c-0.7,0-1.3,0.3-1.6,0.9v8.6h-3.8v-12.1H474.1z"/>
	<path class="st0" d="M489.5,176.7c-1.9,0-3.4-0.6-4.5-1.7c-1.2-1.1-1.7-2.6-1.7-4.3v-0.3c0-1.2,0.2-2.3,0.7-3.3
		c0.5-0.9,1.1-1.7,2-2.2c0.9-0.5,1.9-0.8,3.1-0.8c1.7,0,3,0.5,4,1.6c1,1.1,1.5,2.5,1.5,4.4v1.5h-7.5c0.1,0.7,0.4,1.2,0.9,1.6
		s1,0.6,1.8,0.6c1.2,0,2.1-0.4,2.8-1.3l1.7,2c-0.5,0.7-1.1,1.2-2,1.6S490.5,176.7,489.5,176.7z M489,167.1c-1.1,0-1.8,0.7-2,2.2h3.8
		V169c0-0.6-0.1-1.1-0.5-1.4C490.1,167.2,489.6,167.1,489,167.1z"/>
	<path class="st0" d="M513.1,170.5c0,1.9-0.4,3.4-1.3,4.5s-2,1.7-3.4,1.7c-1.1,0-2-0.4-2.7-1.2v5.7h-3.8v-16.8h3.5l0.1,1.1
		c0.7-0.9,1.7-1.3,2.9-1.3c1.5,0,2.7,0.6,3.5,1.7c0.8,1.1,1.2,2.6,1.2,4.5V170.5z M509.3,170.3c0-2.2-0.6-3.2-1.9-3.2
		c-0.9,0-1.5,0.3-1.8,1v4.8c0.3,0.7,0.9,1,1.8,1c1.2,0,1.8-1,1.9-3.1V170.3z"/>
	<path class="st0" d="M518.7,176.5h-3.8v-17.2h3.8V176.5z"/>
	<path class="st0" d="M527.9,176.5c-0.1-0.2-0.3-0.6-0.4-1.1c-0.7,0.9-1.7,1.3-2.9,1.3c-1.1,0-2.1-0.3-2.9-1s-1.2-1.6-1.2-2.6
		c0-1.3,0.5-2.3,1.5-3c1-0.7,2.4-1,4.2-1h1.2v-0.6c0-1.1-0.5-1.7-1.4-1.7c-0.9,0-1.3,0.4-1.3,1.3h-3.8c0-1.2,0.5-2.1,1.5-2.9
		c1-0.7,2.3-1.1,3.8-1.1s2.8,0.4,3.7,1.1c0.9,0.8,1.4,1.8,1.4,3.1v5.4c0,1.1,0.2,2,0.5,2.6v0.2H527.9z M525.5,174
		c0.5,0,0.9-0.1,1.2-0.3c0.3-0.2,0.5-0.4,0.7-0.7v-1.9h-1.1c-1.3,0-2,0.6-2,1.8c0,0.3,0.1,0.6,0.3,0.8S525.2,174,525.5,174z"/>
	<path class="st0" d="M538.4,173.8c0.5,0,0.9-0.1,1.2-0.4c0.3-0.3,0.4-0.7,0.4-1.2h3.5c0,1.3-0.5,2.4-1.4,3.3
		c-1,0.9-2.2,1.3-3.7,1.3c-1.8,0-3.2-0.6-4.2-1.7c-1-1.1-1.5-2.6-1.5-4.6v-0.2c0-1.2,0.2-2.3,0.7-3.2c0.5-0.9,1.1-1.7,2-2.2
		c0.9-0.5,1.9-0.8,3-0.8c1.6,0,2.8,0.4,3.8,1.3s1.4,2.1,1.4,3.6H540c0-0.6-0.2-1.1-0.5-1.4c-0.3-0.3-0.7-0.5-1.2-0.5
		c-1,0-1.6,0.6-1.7,1.9c-0.1,0.4-0.1,0.9-0.1,1.6c0,1.2,0.1,2.1,0.4,2.5C537.3,173.6,537.7,173.8,538.4,173.8z"/>
	<path class="st0" d="M551,176.7c-1.9,0-3.4-0.6-4.5-1.7c-1.2-1.1-1.7-2.6-1.7-4.3v-0.3c0-1.2,0.2-2.3,0.7-3.3
		c0.5-0.9,1.1-1.7,2-2.2s1.9-0.8,3.1-0.8c1.7,0,3,0.5,4,1.6c1,1.1,1.5,2.5,1.5,4.4v1.5h-7.5c0.1,0.7,0.4,1.2,0.9,1.6s1,0.6,1.8,0.6
		c1.2,0,2.1-0.4,2.8-1.3l1.7,2c-0.5,0.7-1.1,1.2-2,1.6S552,176.7,551,176.7z M550.6,167.1c-1.1,0-1.8,0.7-2,2.2h3.8V169
		c0-0.6-0.1-1.1-0.5-1.4C551.7,167.2,551.2,167.1,550.6,167.1z"/>
	<path class="st0" d="M560.5,171.3c0-1.1,0.1-2,0.4-2.6c0.2-0.6,0.6-1.2,1.2-1.6c0.6-0.5,1-0.9,1.3-1.3c0.3-0.4,0.4-0.8,0.4-1.3
		c0-1.1-0.5-1.7-1.5-1.7c-0.4,0-0.8,0.2-1.1,0.5c-0.3,0.3-0.4,0.8-0.4,1.3H557c0-1.5,0.5-2.7,1.4-3.5c0.9-0.8,2.2-1.2,3.9-1.2
		c1.7,0,3,0.4,3.9,1.2c0.9,0.8,1.4,1.9,1.4,3.3c0,0.6-0.1,1.2-0.4,1.7c-0.2,0.5-0.6,1-1.2,1.6l-1.3,1.2c-0.4,0.4-0.6,0.7-0.8,1.1
		c-0.1,0.4-0.2,0.8-0.2,1.4H560.5z M560,174.7c0-0.6,0.2-1,0.6-1.4c0.4-0.4,0.9-0.5,1.5-0.5c0.6,0,1.1,0.2,1.5,0.5
		c0.4,0.4,0.6,0.8,0.6,1.4s-0.2,1-0.6,1.4c-0.4,0.4-0.9,0.5-1.5,0.5c-0.6,0-1.1-0.2-1.5-0.5C560.2,175.8,560,175.3,560,174.7z"/>
</g>
</svg>
