<?xml version="1.0" encoding="utf-8"?>
<!-- Generator: Adobe Illustrator 26.0.3, SVG Export Plug-In . SVG Version: 6.00 Build 0)  -->
<svg version="1.1" id="Layer_1" xmlns="http://www.w3.org/2000/svg" xmlns:xlink="http://www.w3.org/1999/xlink" x="0px" y="0px"
	 viewBox="0 0 970 250" style="enable-background:new 0 0 970 250;" xml:space="preserve">
<style type="text/css">
	.st0{clip-path:url(#SVGID_00000069372365681667398040000006975218344905001881_);}
	.st1{clip-path:url(#SVGID_00000123425840110126581000000016685006855680603793_);fill:#FFFFFF;}
</style>
<g id="PG_x5F_Logo_x5F_W_00000109019340758854943510000013142328585255817392_">
	<defs>
		<rect id="SVGID_1_" x="797" y="102.6" width="153.9" height="44.3"/>
	</defs>
	<clipPath id="SVGID_00000116195814039706111820000007322414417064085178_">
		<use xlink:href="#SVGID_1_"  style="overflow:visible;"/>
	</clipPath>
	<g style="clip-path:url(#SVGID_00000116195814039706111820000007322414417064085178_);">
		<defs>
			<rect id="SVGID_00000096035712666163373690000003668689401096319162_" x="797" y="102.6" width="153.9" height="44.3"/>
		</defs>
		<clipPath id="SVGID_00000171718325375068472670000002088343019796765887_">
			<use xlink:href="#SVGID_00000096035712666163373690000003668689401096319162_"  style="overflow:visible;"/>
		</clipPath>
		<path style="clip-path:url(#SVGID_00000171718325375068472670000002088343019796765887_);fill:#FFFFFF;" d="M945.5,120.9
			c0-0.3,0.1-0.5,0.3-0.7c0.2-0.2,0.4-0.3,0.7-0.3c0.2,0,0.5,0.1,0.7,0.3c0.2,0.2,0.3,0.4,0.3,0.7v10.5c0,0.3-0.1,0.5-0.3,0.7
			c-0.2,0.2-0.4,0.3-0.7,0.3c-0.2,0-0.5-0.1-0.7-0.3c-0.2-0.2-0.3-0.4-0.3-0.7V120.9z"/>
		<path style="clip-path:url(#SVGID_00000171718325375068472670000002088343019796765887_);fill:#FFFFFF;" d="M892.7,137.4
			c-0.8,0.6-1.7,0.9-2.7,0.9c-0.6,0-1-0.1-1.4-0.2c-0.3-0.1-0.6-0.2-0.9-0.4c-0.3-0.2-0.4-0.5-0.4-0.8c0-0.3,0.1-0.5,0.3-0.7
			c0.2-0.2,0.4-0.3,0.7-0.3c0.2,0,0.4,0.1,0.6,0.2c0.4,0.2,0.8,0.3,1.3,0.3c0.4,0,0.7-0.1,1-0.2c0.3-0.1,0.6-0.3,0.8-0.5
			c0.2-0.2,0.4-0.5,0.6-0.8c0.1-0.3,0.2-0.6,0.2-1v-7.1c0-0.3,0.1-0.5,0.3-0.7c0.2-0.2,0.4-0.3,0.7-0.3c0.2,0,0.5,0.1,0.7,0.3
			c0.2,0.2,0.3,0.4,0.3,0.7v7.1C894.5,135.4,893.9,136.6,892.7,137.4"/>
		<path style="clip-path:url(#SVGID_00000171718325375068472670000002088343019796765887_);fill:#FFFFFF;" d="M850.3,116.7
			c0-0.3,0.1-0.5,0.3-0.7c0.2-0.2,0.4-0.3,0.7-0.3c0.2,0,0.5,0.1,0.7,0.3c0.2,0.2,0.3,0.4,0.3,0.7v0.7c0,0.3-0.1,0.5-0.3,0.7
			c-0.2,0.2-0.4,0.3-0.7,0.3c-0.2,0-0.5-0.1-0.7-0.3c-0.2-0.2-0.3-0.4-0.3-0.7V116.7z M850.3,121c0-0.3,0.1-0.5,0.3-0.7
			c0.2-0.2,0.4-0.3,0.7-0.3c0.2,0,0.5,0.1,0.7,0.3c0.2,0.2,0.3,0.4,0.3,0.7v10.4c0,0.3-0.1,0.5-0.3,0.7c-0.2,0.2-0.4,0.3-0.7,0.3
			c-0.2,0-0.5-0.1-0.7-0.3c-0.2-0.2-0.3-0.4-0.3-0.7V121z"/>
		<path style="clip-path:url(#SVGID_00000171718325375068472670000002088343019796765887_);fill:#FFFFFF;" d="M842.1,121.3
			c0-0.3,0.1-0.5,0.3-0.7c0.2-0.2,0.4-0.3,0.7-0.3c0.2,0,0.4,0.1,0.6,0.2c0.2,0.1,0.3,0.3,0.3,0.5c0.8-0.6,1.6-0.8,2.7-0.8
			c0.6,0,1,0.1,1.3,0.2c0.3,0.1,0.6,0.2,0.9,0.4c0.3,0.2,0.4,0.4,0.4,0.8c0,0.3-0.1,0.5-0.3,0.7c-0.2,0.2-0.4,0.3-0.7,0.3
			c-0.2,0-0.4-0.1-0.6-0.2c-0.4-0.2-0.8-0.3-1.3-0.3c-0.4,0-0.7,0.1-1,0.2c-0.3,0.1-0.6,0.3-0.8,0.5c-0.2,0.2-0.4,0.5-0.5,0.8
			c-0.1,0.3-0.2,0.6-0.2,0.9v6.9c0,0.3-0.1,0.5-0.3,0.7c-0.2,0.2-0.4,0.3-0.7,0.3c-0.2,0-0.5-0.1-0.6-0.3c-0.2-0.2-0.3-0.4-0.3-0.7
			v-7V121.3z"/>
		<path style="clip-path:url(#SVGID_00000171718325375068472670000002088343019796765887_);fill:#FFFFFF;" d="M853.4,121.4
			c0-0.1-0.1-0.2-0.1-0.4c0-0.2,0.1-0.4,0.2-0.6c0.2-0.2,0.4-0.3,0.7-0.3c0.2,0,0.4,0,0.5,0.1c0.2,0.1,0.3,0.2,0.4,0.4l3.7,8.5
			l3.7-8.5c0.2-0.4,0.5-0.6,0.9-0.6c0.3,0,0.5,0.1,0.7,0.3c0.2,0.2,0.2,0.4,0.2,0.6c0,0.1,0,0.3-0.1,0.4l-4.5,10.5
			c-0.2,0.4-0.5,0.6-0.9,0.6c-0.4,0-0.7-0.2-0.9-0.6L853.4,121.4z"/>
		<path style="clip-path:url(#SVGID_00000171718325375068472670000002088343019796765887_);fill:#FFFFFF;" d="M864.5,124.4
			c0-0.6,0.1-1.2,0.3-1.7c0.2-0.5,0.6-1,1-1.4c0.4-0.4,0.9-0.7,1.4-1c0.5-0.2,1.1-0.3,1.7-0.3c0.6,0,1.2,0.1,1.7,0.3
			c0.5,0.2,1,0.5,1.4,1c0.4,0.4,0.7,0.9,1,1.4s0.4,1.1,0.4,1.7v7c0,0.3-0.1,0.5-0.3,0.7c-0.2,0.2-0.4,0.3-0.7,0.3
			c-0.2,0-0.4-0.1-0.6-0.2c-0.2-0.1-0.3-0.3-0.3-0.5c-0.8,0.6-1.6,0.8-2.6,0.8c-0.6,0-1.2-0.1-1.7-0.3c-0.5-0.2-1-0.5-1.4-1
			c-0.4-0.4-0.7-0.9-1-1.4c-0.2-0.5-0.4-1.1-0.4-1.7V124.4z M866.4,128c0,0.3,0.1,0.7,0.2,1s0.3,0.6,0.6,0.8
			c0.2,0.2,0.5,0.4,0.8,0.6c0.3,0.1,0.7,0.2,1,0.2c0.3,0,0.7-0.1,1-0.2c0.3-0.1,0.6-0.3,0.8-0.5c0.2-0.2,0.4-0.5,0.6-0.8
			c0.1-0.3,0.2-0.6,0.2-1v-3.7c0-0.3-0.1-0.7-0.2-1c-0.1-0.3-0.3-0.6-0.6-0.8c-0.2-0.2-0.5-0.4-0.8-0.6c-0.3-0.1-0.7-0.2-1-0.2
			c-0.4,0-0.7,0.1-1,0.2c-0.3,0.1-0.6,0.3-0.8,0.6c-0.2,0.2-0.4,0.5-0.6,0.8c-0.1,0.3-0.2,0.6-0.2,1V128z"/>
		<path style="clip-path:url(#SVGID_00000171718325375068472670000002088343019796765887_);fill:#FFFFFF;" d="M875.2,124.4
			c0-0.6,0.1-1.2,0.4-1.8c0.2-0.5,0.6-1,1-1.4c0.4-0.4,0.9-0.7,1.5-0.9c0.6-0.2,1.1-0.3,1.8-0.3c0.1,0,0.3,0,0.7,0.1
			c0.3,0,0.7,0.2,1.1,0.3c0.4,0.2,0.8,0.5,1.2,0.8c0.4,0.4,0.7,0.9,1,1.5c0,0.1,0.1,0.2,0.1,0.3c0,0.3-0.1,0.5-0.3,0.7
			c-0.2,0.2-0.4,0.3-0.7,0.3c-0.2,0-0.4-0.1-0.5-0.2c-0.2-0.1-0.3-0.3-0.3-0.4c-0.2-0.5-0.6-0.9-1-1.2c-0.4-0.3-0.9-0.4-1.4-0.4
			c-0.4,0-0.7,0.1-1,0.2c-0.3,0.1-0.6,0.3-0.8,0.6c-0.2,0.2-0.4,0.5-0.6,0.8c-0.1,0.3-0.2,0.6-0.2,1v3.6c0,0.3,0.1,0.7,0.2,1
			c0.1,0.3,0.3,0.6,0.6,0.8c0.2,0.2,0.5,0.4,0.8,0.6c0.3,0.1,0.7,0.2,1,0.2c0.5,0,1-0.1,1.4-0.4c0.4-0.3,0.7-0.7,1-1.2
			c0.1-0.2,0.2-0.3,0.3-0.4c0.1-0.1,0.3-0.2,0.5-0.2c0.3,0,0.5,0.1,0.7,0.3c0.2,0.2,0.3,0.4,0.3,0.7c0,0.1,0,0.2-0.1,0.3
			c-0.3,0.7-0.7,1.3-1.2,1.7c-0.5,0.4-0.9,0.7-1.3,0.8c-0.4,0.2-0.8,0.3-1.1,0.3c-0.3,0-0.5,0-0.5,0c-0.6,0-1.2-0.1-1.7-0.3
			c-0.5-0.2-1-0.5-1.4-1c-0.4-0.4-0.7-0.9-1-1.4c-0.2-0.5-0.4-1.1-0.4-1.7V124.4z"/>
		<path style="clip-path:url(#SVGID_00000171718325375068472670000002088343019796765887_);fill:#FFFFFF;" d="M909.3,121
			c0-0.3,0.1-0.5,0.3-0.7c0.2-0.2,0.4-0.3,0.7-0.3c0.2,0,0.5,0.1,0.7,0.3c0.2,0.2,0.3,0.4,0.3,0.7v7c0,0.3,0.1,0.7,0.2,1
			c0.1,0.3,0.3,0.6,0.6,0.8c0.2,0.2,0.5,0.4,0.8,0.6c0.3,0.1,0.7,0.2,1,0.2c0.3,0,0.7-0.1,1-0.2c0.3-0.1,0.6-0.3,0.8-0.6
			c0.2-0.2,0.4-0.5,0.6-0.8c0.1-0.3,0.2-0.6,0.2-1v-7c0-0.3,0.1-0.5,0.3-0.7c0.2-0.2,0.4-0.3,0.7-0.3c0.2,0,0.5,0.1,0.7,0.3
			c0.2,0.2,0.3,0.4,0.3,0.7v7c0,0.6-0.1,1.2-0.4,1.7c-0.2,0.5-0.6,1-1,1.4c-0.4,0.4-0.9,0.7-1.4,1c-0.5,0.2-1.1,0.3-1.7,0.3
			c-0.6,0-1.2-0.1-1.7-0.3c-0.5-0.2-1-0.5-1.4-1c-0.4-0.4-0.7-0.9-1-1.4c-0.2-0.5-0.3-1.1-0.3-1.7V121z"/>
		<path style="clip-path:url(#SVGID_00000171718325375068472670000002088343019796765887_);fill:#FFFFFF;" d="M920,124.4
			c0-0.6,0.1-1.2,0.3-1.7c0.2-0.5,0.6-1,1-1.4s0.9-0.7,1.4-1c0.5-0.2,1.1-0.3,1.7-0.3c0.6,0,1.2,0.1,1.7,0.3c0.5,0.2,1,0.5,1.4,1
			c0.4,0.4,0.7,0.9,1,1.4c0.2,0.5,0.4,1.1,0.4,1.7v7c0,0.3-0.1,0.5-0.3,0.7c-0.2,0.2-0.4,0.3-0.7,0.3c-0.2,0-0.4-0.1-0.6-0.2
			c-0.2-0.1-0.3-0.3-0.3-0.5c-0.8,0.6-1.6,0.8-2.6,0.8c-0.6,0-1.2-0.1-1.7-0.3c-0.5-0.2-1-0.5-1.4-1c-0.4-0.4-0.7-0.9-1-1.4
			c-0.2-0.5-0.4-1.1-0.4-1.7V124.4z M921.9,128c0,0.3,0.1,0.7,0.2,1c0.1,0.3,0.3,0.6,0.6,0.8c0.2,0.2,0.5,0.4,0.8,0.6
			c0.3,0.1,0.7,0.2,1,0.2c0.3,0,0.7-0.1,1-0.2c0.3-0.1,0.6-0.3,0.8-0.5c0.2-0.2,0.4-0.5,0.6-0.8c0.1-0.3,0.2-0.6,0.2-1v-3.7
			c0-0.3-0.1-0.7-0.2-1c-0.1-0.3-0.3-0.6-0.6-0.8c-0.2-0.2-0.5-0.4-0.8-0.6c-0.3-0.1-0.7-0.2-1-0.2c-0.4,0-0.7,0.1-1,0.2
			c-0.3,0.1-0.6,0.3-0.8,0.6c-0.2,0.2-0.4,0.5-0.6,0.8c-0.1,0.3-0.2,0.6-0.2,1V128z"/>
		<path style="clip-path:url(#SVGID_00000171718325375068472670000002088343019796765887_);fill:#FFFFFF;" d="M930.8,121.3
			c0-0.3,0.1-0.5,0.3-0.7c0.2-0.2,0.4-0.3,0.7-0.3c0.2,0,0.4,0.1,0.6,0.2c0.2,0.1,0.3,0.3,0.3,0.5c0.8-0.6,1.6-0.8,2.7-0.8
			c0.6,0,1,0.1,1.3,0.2c0.3,0.1,0.6,0.2,0.9,0.4c0.3,0.2,0.4,0.4,0.4,0.8c0,0.3-0.1,0.5-0.3,0.7c-0.2,0.2-0.4,0.3-0.7,0.3
			c-0.2,0-0.4-0.1-0.6-0.2c-0.4-0.2-0.8-0.3-1.3-0.3c-0.4,0-0.7,0.1-1,0.2c-0.3,0.1-0.6,0.3-0.8,0.5c-0.2,0.2-0.4,0.5-0.5,0.8
			c-0.1,0.3-0.2,0.6-0.2,0.9v6.9c0,0.3-0.1,0.5-0.3,0.7c-0.2,0.2-0.4,0.3-0.7,0.3c-0.2,0-0.5-0.1-0.6-0.3c-0.2-0.2-0.3-0.4-0.3-0.7
			v-7V121.3z"/>
		<path style="clip-path:url(#SVGID_00000171718325375068472670000002088343019796765887_);fill:#FFFFFF;" d="M945.5,116.7
			c0-0.3,0.1-0.5,0.3-0.7c0.2-0.2,0.4-0.3,0.7-0.3c0.2,0,0.5,0.1,0.7,0.3c0.2,0.2,0.3,0.4,0.3,0.7V128c0,0.6-0.1,1.2-0.4,1.7
			c-0.2,0.5-0.6,1-1,1.4c-0.4,0.4-0.9,0.7-1.4,1c-0.5,0.2-1.1,0.3-1.7,0.3c-0.6,0-1.2-0.1-1.7-0.3c-0.5-0.2-1-0.5-1.4-1
			c-0.4-0.4-0.7-0.9-1-1.4c-0.2-0.5-0.3-1.1-0.3-1.7v-3.6c0-0.6,0.1-1.2,0.4-1.7c0.2-0.5,0.6-1,1-1.4c0.4-0.4,0.9-0.7,1.4-1
			c0.5-0.2,1.1-0.3,1.7-0.3c0.5,0,0.9,0.1,1.4,0.2c0.4,0.1,0.8,0.4,1.2,0.6V116.7z M940.3,128c0,0.3,0.1,0.7,0.2,1
			c0.1,0.3,0.3,0.6,0.6,0.8c0.2,0.2,0.5,0.4,0.8,0.6c0.3,0.1,0.7,0.2,1,0.2c0.3,0,0.7-0.1,1-0.2c0.3-0.1,0.6-0.3,0.8-0.6
			c0.2-0.2,0.4-0.5,0.6-0.8c0.1-0.3,0.2-0.6,0.2-1v-3.6c0-0.3-0.1-0.7-0.2-1c-0.1-0.3-0.3-0.6-0.6-0.8c-0.2-0.2-0.5-0.4-0.8-0.6
			c-0.3-0.1-0.7-0.2-1-0.2c-0.3,0-0.7,0.1-1,0.2c-0.3,0.1-0.6,0.3-0.8,0.6c-0.2,0.2-0.4,0.5-0.6,0.8c-0.1,0.3-0.2,0.6-0.2,1V128z"/>
		<path style="clip-path:url(#SVGID_00000171718325375068472670000002088343019796765887_);fill:#FFFFFF;" d="M885.6,121
			c0-0.3,0.1-0.5,0.3-0.7c0.2-0.2,0.4-0.3,0.7-0.3c0.2,0,0.5,0.1,0.7,0.3c0.2,0.2,0.3,0.4,0.3,0.7v7c0,0.3,0.1,0.7,0.2,1
			c0.1,0.3,0.3,0.6,0.6,0.8c0.2,0.2,0.5,0.4,0.8,0.6c0.3,0.1,0.7,0.2,1,0.2c0.3,0,0.7-0.1,1-0.2c0.3-0.1,0.6-0.3,0.8-0.6
			c0.2-0.2,0.4-0.5,0.6-0.8c0.1-0.3,0.2-0.6,0.2-1v-7c0-0.3,0.1-0.5,0.3-0.7c0.2-0.2,0.4-0.3,0.7-0.3c0.2,0,0.5,0.1,0.7,0.3
			c0.2,0.2,0.3,0.4,0.3,0.7v7c0,0.6-0.1,1.2-0.4,1.7c-0.2,0.5-0.6,1-1,1.4c-0.4,0.4-0.9,0.7-1.4,1c-0.5,0.2-1.1,0.3-1.7,0.3
			c-0.6,0-1.2-0.1-1.7-0.3c-0.5-0.2-1-0.5-1.4-1c-0.4-0.4-0.7-0.9-1-1.4c-0.2-0.5-0.3-1.1-0.3-1.7V121z"/>
		<path style="clip-path:url(#SVGID_00000171718325375068472670000002088343019796765887_);fill:#FFFFFF;" d="M906.6,124.1h-3.9
			c-0.5,0-1,0.4-1,0.9c0,0.5,0.4,1,1,1h3.1v1.5c0,2-1.8,3.5-3.7,3.5c-2.1,0-3.9-1.5-3.9-3.9v-5.6c0-2.3,1.7-3.9,3.9-3.9
			c1.8,0,3.2,1.2,3.7,2.7c0.2,0.3,0.4,0.5,0.8,0.5c0.7,0,1.2-0.6,0.8-1.4c-0.6-1.8-2.5-3.7-5.4-3.7c-3.4,0-5.8,2.7-5.8,5.7v5.9
			c0,3.1,2.4,5.8,5.8,5.8c3,0,5.6-2.4,5.6-5.1V125C907.6,124.4,907.2,124.1,906.6,124.1"/>
		<path style="clip-path:url(#SVGID_00000171718325375068472670000002088343019796765887_);fill:#FFFFFF;" d="M945.5,121
			c0-0.3,0.1-0.5,0.3-0.7c0.2-0.2,0.4-0.3,0.7-0.3c0.2,0,0.5,0.1,0.7,0.3c0.2,0.2,0.3,0.4,0.3,0.7v10.4c0,0.3-0.1,0.5-0.3,0.7
			c-0.2,0.2-0.4,0.3-0.7,0.3c-0.2,0-0.5-0.1-0.7-0.3c-0.2-0.2-0.3-0.4-0.3-0.7V121z"/>
		<path style="clip-path:url(#SVGID_00000171718325375068472670000002088343019796765887_);fill:#FFFFFF;" d="M830.2,117.3
			c0-0.3,0.1-0.5,0.3-0.7c0.2-0.2,0.4-0.3,0.7-0.3h3.7h0c0.8,0,1.5,0.1,2.2,0.4c0.7,0.3,1.3,0.7,1.8,1.2c0.5,0.5,0.9,1.1,1.2,1.8
			c0.3,0.7,0.5,1.4,0.5,2.2c0,0.8-0.2,1.5-0.5,2.2c-0.3,0.7-0.7,1.3-1.2,1.8c-0.5,0.5-1.1,0.9-1.8,1.2c-0.7,0.3-1.4,0.4-2.2,0.4H832
			v3.7c0,0.3-0.1,0.5-0.3,0.7c-0.2,0.2-0.4,0.3-0.7,0.3c-0.2,0-0.5-0.1-0.6-0.3c-0.2-0.2-0.3-0.4-0.3-0.7V117.3z M832,118.2v7.7h2.8
			c0.5,0,1.1-0.1,1.5-0.3c0.5-0.2,0.9-0.5,1.2-0.8c0.4-0.3,0.6-0.8,0.8-1.2c0.2-0.5,0.3-1,0.3-1.5c0-0.5-0.1-1-0.3-1.5
			c-0.2-0.5-0.5-0.9-0.8-1.2c-0.4-0.3-0.8-0.6-1.2-0.8c-0.5-0.2-1-0.3-1.5-0.3H832z"/>
		<path style="clip-path:url(#SVGID_00000171718325375068472670000002088343019796765887_);fill:#FFFFFF;" d="M811.9,132.9v1.9
			c0,1.5-1.2,2.7-2.7,2.7c-0.5,0-1-0.1-1.4-0.4c-0.4-0.3-0.6-0.8-0.3-1.3c0.3-0.4,0.8-0.6,1.3-0.3c0.1,0.1,0.3,0.1,0.4,0.1
			c0.5,0,0.9-0.4,0.9-0.9v-1.9c0-0.5,0.4-0.9,0.9-0.9C811.4,132,811.9,132.4,811.9,132.9 M805.6,136.7c-0.2-0.5-0.8-0.6-1.3-0.4
			c-0.5,0.2-0.6,0.8-0.4,1.3c1,2,3,3.2,5.2,3.2c3.2,0,5.9-2.6,5.9-5.9v-1.9c0-0.5-0.4-0.9-0.9-0.9c-0.5,0-0.9,0.4-0.9,0.9v1.9
			c0,2.2-1.8,4-4,4C807.6,138.9,806.3,138,805.6,136.7 M808.8,105.7c-4.8,0.1-8.7,4.2-8.7,9.1v20c0,2.4,1,4.7,2.7,6.4
			c1.7,1.6,3.9,2.5,6.2,2.5c0.1,0,0.2,0,0.3,0c4.8-0.1,8.7-4.2,8.7-9.1v-1.5c0-2.4-1.9-4.3-4.3-4.3h-2.9c-0.5,0-0.9,0.4-0.9,0.9
			s0.4,0.9,0.9,0.9h2.9c1.3,0,2.4,1.1,2.4,2.4v1.5c0,3.9-3.1,7.2-6.9,7.3c-1.9,0.1-3.8-0.7-5.2-2c-1.4-1.4-2.2-3.2-2.2-5.1v-20
			c0-3.9,3.1-7.2,6.9-7.3c1.9-0.1,3.8,0.7,5.2,2c1.4,1.4,2.2,3.2,2.2,5.1v11.7c0,0.5,0.4,0.9,0.9,0.9c0.5,0,0.9-0.4,0.9-0.9v-11.7
			c0-2.4-1-4.7-2.7-6.4C813.6,106.6,811.3,105.7,808.8,105.7 M815,121.8v-7c0-3.2-2.6-5.9-5.9-5.9c-3.2,0-5.9,2.6-5.9,5.9v1.1
			c0,0.5,0.4,0.9,0.9,0.9s0.9-0.4,0.9-0.9v-1.1c0-2.2,1.8-4,4-4c2.2,0,4,1.8,4,4v7c0,2.2-1.8,4-4,4c-0.5,0-1-0.1-1.5-0.3
			c-0.3-0.1-0.6-0.1-0.9,0.1c-0.3,0.2-0.4,0.5-0.4,0.8v6.4c0,0.3-0.3,0.6-0.6,0.6c-0.3,0-0.6-0.3-0.6-0.6V119c0-0.5-0.4-0.9-0.9-0.9
			s-0.9,0.4-0.9,0.9v13.7c0,1.4,1.1,2.5,2.5,2.5s2.5-1.1,2.5-2.5v-5.2c0.3,0,0.6,0.1,0.9,0.1C812.3,127.6,815,125,815,121.8
			 M821.2,114.9v14.8v0.2v4.9c0,3.3-1.3,6.4-3.7,8.7c-2.3,2.2-5.3,3.4-8.4,3.4c-0.1,0-0.2,0-0.3,0c-6.5-0.2-11.8-5.7-11.8-12.3
			v-19.9c0-3.3,1.3-6.4,3.7-8.7c2.4-2.3,5.5-3.5,8.7-3.4C815.9,102.8,821.2,108.3,821.2,114.9 M819.4,129.9v-0.2v-14.8
			c0-5.6-4.5-10.3-10-10.4c-2.8-0.1-5.4,1-7.4,2.9c-2,1.9-3.1,4.5-3.1,7.3v19.9c0,5.6,4.5,10.3,10,10.4c2.8,0.1,5.4-1,7.4-2.9
			c2-1.9,3.1-4.5,3.1-7.3V129.9z M806.4,121.8v-7c0-1.5,1.2-2.7,2.7-2.7c1.5,0,2.7,1.2,2.7,2.7v7c0,1.5-1.2,2.7-2.7,2.7
			C807.6,124.5,806.4,123.3,806.4,121.8 M808.3,121.8c0,0.5,0.4,0.9,0.9,0.9c0.5,0,0.9-0.4,0.9-0.9v-7c0-0.5-0.4-0.9-0.9-0.9
			c-0.5,0-0.9,0.4-0.9,0.9V121.8z"/>
		<polygon style="clip-path:url(#SVGID_00000171718325375068472670000002088343019796765887_);fill:#FFFFFF;" points="948.7,116.1 
			948.3,116.1 948.3,115.9 949.3,115.9 949.3,116.1 949,116.1 949,117.2 948.7,117.2 		"/>
		<path style="clip-path:url(#SVGID_00000171718325375068472670000002088343019796765887_);fill:#FFFFFF;" d="M950.6,116.7
			c0-0.2,0-0.3,0-0.5h0c0,0.2-0.1,0.3-0.1,0.5l-0.2,0.5H950l-0.1-0.5c0-0.2-0.1-0.3-0.1-0.5h0c0,0.2,0,0.4,0,0.5l0,0.5h-0.3l0.1-1.3
			h0.4l0.1,0.4c0,0.1,0.1,0.3,0.1,0.5h0c0-0.1,0.1-0.3,0.1-0.5l0.1-0.4h0.4l0.1,1.3h-0.3L950.6,116.7z"/>
	</g>
</g>
</svg>
