<?xml version="1.0" encoding="utf-8"?>
<!-- Generator: Adobe Illustrator 26.0.3, SVG Export Plug-In . SVG Version: 6.00 Build 0)  -->
<svg version="1.1" id="Layer_1" xmlns="http://www.w3.org/2000/svg" xmlns:xlink="http://www.w3.org/1999/xlink" x="0px" y="0px"
	 viewBox="0 0 728 90" style="enable-background:new 0 0 728 90;" xml:space="preserve">
<style type="text/css">
	.st0{fill:#021D8B;stroke:url(#SVGID_1_);stroke-width:1.0774;stroke-miterlimit:10;}
	.st1{fill:#FFFFFF;}
</style>
<linearGradient id="SVGID_1_" gradientUnits="userSpaceOnUse" x1="621.9046" y1="27.8867" x2="708.0919" y2="27.8867">
	<stop  offset="0" style="stop-color:#18B9FB"/>
	<stop  offset="0.5" style="stop-color:#782EEB"/>
	<stop  offset="1" style="stop-color:#E82D8A"/>
</linearGradient>
<path class="st0" d="M693.3,42.2h-56.5c-7.9,0-14.3-6.4-14.3-14.3v0c0-7.9,6.4-14.3,14.3-14.3h56.5c7.9,0,14.3,6.4,14.3,14.3v0
	C707.6,35.8,701.2,42.2,693.3,42.2z"/>
<g>
	<path class="st1" d="M637.1,30h3.7v1.4h-5.4V23h1.7V30z"/>
	<path class="st1" d="M644.5,31.5c-0.9,0-1.7-0.3-2.2-0.8c-0.6-0.6-0.9-1.3-0.9-2.3v-0.2c0-0.6,0.1-1.2,0.4-1.7
		c0.2-0.5,0.6-0.9,1-1.1c0.4-0.3,1-0.4,1.5-0.4c0.9,0,1.5,0.3,2,0.8c0.5,0.5,0.7,1.3,0.7,2.3v0.7h-4c0.1,0.4,0.2,0.7,0.5,1
		c0.3,0.2,0.6,0.4,1,0.4c0.6,0,1.1-0.2,1.5-0.7l0.8,0.9c-0.3,0.4-0.6,0.6-1,0.8C645.5,31.4,645.1,31.5,644.5,31.5z M644.4,26.4
		c-0.3,0-0.6,0.1-0.8,0.3c-0.2,0.2-0.3,0.5-0.4,1h2.3v-0.1c0-0.4-0.1-0.7-0.3-0.9C645,26.5,644.7,26.4,644.4,26.4z"/>
	<path class="st1" d="M651.7,31.4c-0.1-0.2-0.1-0.3-0.2-0.6c-0.4,0.5-0.9,0.7-1.6,0.7c-0.6,0-1.1-0.2-1.5-0.5s-0.6-0.8-0.6-1.3
		c0-0.7,0.2-1.2,0.7-1.5c0.5-0.4,1.2-0.5,2.1-0.5h0.8v-0.4c0-0.3-0.1-0.5-0.2-0.7c-0.1-0.2-0.4-0.3-0.7-0.3c-0.3,0-0.5,0.1-0.7,0.2
		c-0.2,0.1-0.2,0.3-0.2,0.6H648c0-0.4,0.1-0.7,0.3-1s0.5-0.6,0.9-0.7c0.4-0.2,0.9-0.3,1.4-0.3c0.8,0,1.4,0.2,1.8,0.6
		c0.5,0.4,0.7,0.9,0.7,1.6V30c0,0.6,0.1,1,0.2,1.3v0.1H651.7z M650.3,30.2c0.2,0,0.5-0.1,0.7-0.2c0.2-0.1,0.4-0.3,0.5-0.4v-1.1h-0.6
		c-0.8,0-1.3,0.3-1.3,0.9l0,0.1c0,0.2,0.1,0.4,0.2,0.5S650.1,30.2,650.3,30.2z"/>
	<path class="st1" d="M657.9,26.7c-0.2,0-0.4,0-0.6,0c-0.6,0-1,0.2-1.2,0.6v4.1h-1.7v-6.3h1.6l0,0.7c0.3-0.6,0.8-0.9,1.4-0.9
		c0.2,0,0.4,0,0.5,0.1L657.9,26.7z"/>
	<path class="st1" d="M660.3,25.1l0.1,0.7c0.4-0.6,1-0.8,1.8-0.8c0.7,0,1.2,0.2,1.5,0.6c0.3,0.4,0.5,1,0.5,1.7v4h-1.7v-4
		c0-0.4-0.1-0.6-0.2-0.8c-0.2-0.2-0.4-0.2-0.8-0.2c-0.5,0-0.8,0.2-1.1,0.6v4.4h-1.7v-6.3H660.3z"/>
	<path class="st1" d="M669.9,25.1l0.1,0.7c0.4-0.5,1-0.8,1.8-0.8c0.8,0,1.4,0.3,1.7,1c0.4-0.6,1.1-1,1.9-1c0.7,0,1.2,0.2,1.5,0.6
		s0.5,1,0.5,1.8v4h-1.7v-4c0-0.4-0.1-0.6-0.2-0.8s-0.4-0.2-0.7-0.2c-0.5,0-0.8,0.2-1,0.7l0,4.3H672v-4c0-0.4-0.1-0.6-0.2-0.8
		s-0.4-0.2-0.7-0.2c-0.5,0-0.8,0.2-1,0.6v4.4h-1.7v-6.3H669.9z"/>
	<path class="st1" d="M678.3,28.2c0-0.6,0.1-1.2,0.4-1.7c0.2-0.5,0.6-0.9,1-1.1s1-0.4,1.6-0.4c0.8,0,1.5,0.3,2.1,0.8
		c0.5,0.5,0.8,1.2,0.9,2.1l0,0.4c0,1-0.3,1.7-0.8,2.3c-0.5,0.6-1.3,0.9-2.2,0.9c-0.9,0-1.6-0.3-2.2-0.9S678.3,29.3,678.3,28.2
		L678.3,28.2z M680,28.3c0,0.6,0.1,1,0.3,1.4s0.5,0.5,1,0.5c0.4,0,0.7-0.2,0.9-0.5s0.3-0.8,0.3-1.5c0-0.6-0.1-1-0.3-1.4
		s-0.5-0.5-1-0.5c-0.4,0-0.7,0.2-0.9,0.5S680,27.7,680,28.3z"/>
	<path class="st1" d="M688.8,26.7c-0.2,0-0.4,0-0.6,0c-0.6,0-1,0.2-1.2,0.6v4.1h-1.7v-6.3h1.6l0,0.7c0.3-0.6,0.8-0.9,1.4-0.9
		c0.2,0,0.4,0,0.5,0.1L688.8,26.7z"/>
	<path class="st1" d="M692.5,31.5c-0.9,0-1.7-0.3-2.2-0.8c-0.6-0.6-0.9-1.3-0.9-2.3v-0.2c0-0.6,0.1-1.2,0.4-1.7
		c0.2-0.5,0.6-0.9,1-1.1c0.4-0.3,1-0.4,1.5-0.4c0.9,0,1.5,0.3,2,0.8c0.5,0.5,0.7,1.3,0.7,2.3v0.7h-4c0.1,0.4,0.2,0.7,0.5,1
		c0.3,0.2,0.6,0.4,1,0.4c0.6,0,1.1-0.2,1.5-0.7l0.8,0.9c-0.3,0.4-0.6,0.6-1,0.8C693.5,31.4,693,31.5,692.5,31.5z M692.3,26.4
		c-0.3,0-0.6,0.1-0.8,0.3c-0.2,0.2-0.3,0.5-0.4,1h2.3v-0.1c0-0.4-0.1-0.7-0.3-0.9C692.9,26.5,692.7,26.4,692.3,26.4z"/>
</g>
</svg>
