<svg id="Layer_1" xmlns="http://www.w3.org/2000/svg" viewBox="0 0 728 90"><style>.st0{fill:#fff}</style><path class="st0" d="M605.55 31.1l-1.46-.43.22-.73 1.46.54-.04-1.66h.74l-.05 1.68 1.43-.53.22.73-1.48.44.96 1.31-.6.45-.9-1.39-.87 1.36-.6-.44.97-1.33zM615.06 35.85h-4.6v-.64l2.43-2.7c.36-.41.61-.74.75-1s.21-.52.21-.79c0-.37-.11-.67-.33-.9-.22-.23-.52-.35-.89-.35-.44 0-.79.13-1.04.38s-.37.6-.37 1.05h-.89c0-.65.21-1.17.62-1.57.42-.4.97-.6 1.67-.6.65 0 1.17.17 1.55.51.38.34.57.8.57 1.37 0 .69-.44 1.52-1.32 2.47l-1.88 2.04h3.53v.73zM620.41 32.85c0 1.05-.18 1.82-.54 2.33-.36.51-.92.76-1.67.76-.75 0-1.3-.25-1.67-.75s-.55-1.24-.56-2.23v-1.19c0-1.03.18-1.8.54-2.3s.92-.75 1.68-.75c.76 0 1.31.24 1.67.73.36.48.54 1.23.55 2.24v1.16zm-.89-1.22c0-.76-.11-1.31-.32-1.65-.21-.35-.55-.52-1.01-.52-.46 0-.79.17-1 .52s-.32.87-.32 1.59V33c0 .76.11 1.32.33 1.68.22.36.55.54 1 .54.44 0 .77-.17.98-.51.21-.34.33-.88.34-1.61v-1.47zM626.16 35.85h-4.6v-.64l2.43-2.7c.36-.41.61-.74.75-1s.21-.52.21-.79c0-.37-.11-.67-.33-.9-.22-.23-.52-.35-.89-.35-.44 0-.79.13-1.04.38s-.37.6-.37 1.05h-.89c0-.65.21-1.17.62-1.57.42-.4.97-.6 1.67-.6.65 0 1.17.17 1.55.51.38.34.57.8.57 1.37 0 .69-.44 1.52-1.32 2.47l-1.88 2.04h3.53v.73zM631.51 32.85c0 1.05-.18 1.82-.54 2.33-.36.51-.92.76-1.67.76-.75 0-1.3-.25-1.67-.75s-.55-1.24-.56-2.23v-1.19c0-1.03.18-1.8.54-2.3s.92-.75 1.68-.75c.76 0 1.31.24 1.67.73.36.48.54 1.23.55 2.24v1.16zm-.89-1.22c0-.76-.11-1.31-.32-1.65-.21-.35-.55-.52-1.01-.52-.46 0-.79.17-1 .52s-.32.87-.32 1.59V33c0 .76.11 1.32.33 1.68.22.36.55.54 1 .54.44 0 .77-.17.98-.51.21-.34.33-.88.34-1.61v-1.47zM636.32 35.85h-.93v-7.03h.93v7.03zM637.66 33.2c0-.8.19-1.45.57-1.93.38-.49.88-.73 1.49-.73s1.1.21 1.45.63v-2.72h.89v7.41h-.82l-.04-.56c-.36.44-.85.66-1.49.66-.61 0-1.1-.25-1.48-.74-.38-.5-.57-1.14-.57-1.94v-.08zm.89.1c0 .59.12 1.06.37 1.39.25.33.58.5 1.01.5.57 0 .98-.25 1.24-.76v-2.4c-.27-.49-.68-.74-1.23-.74-.44 0-.78.17-1.02.51-.24.33-.37.84-.37 1.5zM645.62 35.95c-.71 0-1.28-.23-1.73-.7-.44-.46-.67-1.09-.67-1.87v-.16c0-.52.1-.98.3-1.39.2-.41.47-.73.83-.96.36-.23.74-.34 1.16-.34.68 0 1.21.22 1.58.67.38.45.56 1.09.56 1.92v.37h-3.54c.01.51.16.93.45 1.25s.65.48 1.1.48c.32 0 .58-.06.8-.19.22-.13.41-.3.57-.51l.54.42c-.42.67-1.07 1.01-1.95 1.01zm-.11-4.68c-.36 0-.66.13-.91.39s-.4.63-.45 1.1h2.62v-.07c-.03-.45-.15-.81-.37-1.05-.22-.25-.52-.37-.89-.37zM649.53 30.63l.03.66c.4-.5.92-.75 1.56-.75 1.1 0 1.66.62 1.67 1.87v3.45h-.89V32.4c0-.38-.09-.65-.26-.83s-.43-.27-.79-.27c-.29 0-.54.08-.76.23s-.39.36-.51.61v3.72h-.89v-5.22h.84zM655.35 29.36v1.26h.98v.69h-.98v3.24c0 .21.04.37.13.47.09.1.23.16.44.16.1 0 .25-.02.42-.06v.72c-.23.06-.46.1-.68.1-.4 0-.7-.12-.9-.36-.2-.24-.3-.58-.3-1.03v-3.24h-.95v-.69h.95v-1.26h.89zM657.38 29.24c0-.15.04-.27.13-.37.09-.1.22-.15.39-.15s.3.05.4.15c.09.1.13.22.13.37a.5.5 0 0 1-.13.36c-.09.1-.22.14-.4.14-.17 0-.31-.05-.39-.14a.484.484 0 0 1-.13-.36zm.96 6.61h-.89v-5.22h.89v5.22zM660.98 29.36v1.26h.98v.69h-.98v3.24c0 .21.04.37.13.47.09.1.23.16.44.16.1 0 .25-.02.42-.06v.72c-.23.06-.46.1-.68.1-.4 0-.7-.12-.9-.36-.2-.24-.3-.58-.3-1.03v-3.24h-.95v-.69h.95v-1.26h.89zM664.71 34.54l1.22-3.91h.96l-2.1 6.03c-.33.87-.84 1.3-1.55 1.3l-.17-.01-.33-.06v-.72l.24.02c.3 0 .54-.06.71-.18.17-.12.31-.35.42-.67l.2-.53-1.86-5.16h.97l1.29 3.89zM674.14 32.75h-2.95v3.1h-.93v-7.03h4.35v.76h-3.43v2.41h2.95v.76zM677.99 31.43c-.14-.02-.28-.03-.44-.03-.59 0-.98.25-1.19.75v3.71h-.89v-5.22h.87l.01.6c.29-.47.71-.7 1.25-.7.17 0 .31.02.4.07v.82zM681.84 35.85c-.05-.1-.09-.29-.12-.55-.42.43-.91.65-1.49.65-.52 0-.94-.15-1.27-.44-.33-.29-.49-.66-.49-1.11 0-.54.21-.97.62-1.27.41-.3 1-.45 1.74-.45h.87v-.41c0-.31-.09-.56-.28-.75s-.46-.28-.83-.28c-.32 0-.59.08-.8.24-.22.16-.32.36-.32.58h-.9c0-.26.09-.51.28-.76.18-.24.44-.44.75-.58.32-.14.67-.21 1.04-.21.6 0 1.07.15 1.41.45.34.3.52.71.53 1.24v2.4c0 .48.06.86.18 1.14v.08h-.92zm-1.49-.68c.28 0 .54-.07.8-.22.25-.15.43-.33.55-.56v-1.07h-.7c-1.09 0-1.64.32-1.64.96 0 .28.09.5.28.66.18.15.42.23.71.23zM687.21 35.33c-.35.41-.86.61-1.53.61-.56 0-.98-.16-1.27-.49-.29-.32-.44-.8-.44-1.44v-3.4h.89V34c0 .79.32 1.19.97 1.19.68 0 1.14-.25 1.36-.76v-3.8h.89v5.22h-.85l-.02-.52zM689.22 33.2c0-.8.19-1.45.57-1.93.38-.49.88-.73 1.49-.73s1.1.21 1.45.63v-2.72h.89v7.41h-.82l-.04-.56c-.36.44-.85.66-1.49.66-.61 0-1.1-.25-1.48-.74-.38-.5-.57-1.14-.57-1.94v-.08zm.89.1c0 .59.12 1.06.37 1.39.25.33.58.5 1.01.5.57 0 .98-.25 1.24-.76v-2.4c-.27-.49-.68-.74-1.23-.74-.44 0-.78.17-1.02.51-.24.33-.37.84-.37 1.5zM602.55 44.58c-.79-.23-1.37-.51-1.73-.84a1.6 1.6 0 0 1-.54-1.23c0-.55.22-1.01.66-1.37s1.02-.54 1.73-.54c.48 0 .91.09 1.29.28s.67.44.88.77c.21.33.31.69.31 1.08h-.93c0-.43-.13-.76-.41-1-.27-.24-.65-.37-1.14-.37-.46 0-.81.1-1.07.3-.26.2-.38.48-.38.84 0 .29.12.53.37.73.24.2.66.38 1.24.54s1.04.35 1.37.54c.33.2.57.43.73.69.16.26.24.57.24.93 0 .57-.22 1.03-.67 1.37s-1.04.51-1.78.51c-.48 0-.93-.09-1.35-.28-.42-.18-.74-.44-.97-.76a1.84 1.84 0 0 1-.34-1.1h.93c0 .42.16.76.47 1.01s.73.37 1.26.37c.49 0 .86-.1 1.12-.3s.39-.47.39-.82c0-.34-.12-.61-.36-.8-.25-.18-.69-.37-1.32-.55zM607.41 41.23v1.26h.98v.69h-.98v3.24c0 .21.04.37.13.47.09.11.23.16.44.16.1 0 .25-.02.42-.06v.72c-.23.06-.46.1-.68.1-.4 0-.7-.12-.9-.36-.2-.24-.3-.58-.3-1.03v-3.24h-.95v-.69h.95v-1.26h.89zM612.66 47.2c-.35.41-.86.61-1.53.61-.56 0-.98-.16-1.27-.49-.29-.32-.44-.8-.44-1.44v-3.4h.89v3.37c0 .79.32 1.19.97 1.19.68 0 1.14-.25 1.36-.76v-3.8h.89v5.22h-.85l-.02-.5zM614.66 45.06c0-.8.19-1.45.57-1.93.38-.49.88-.73 1.49-.73s1.1.21 1.45.63V40.3h.89v7.41h-.82l-.04-.56c-.36.44-.85.66-1.49.66-.61 0-1.1-.25-1.48-.74-.38-.5-.57-1.14-.57-1.94v-.07zm.9.1c0 .59.12 1.06.37 1.39.25.33.58.5 1.01.5.57 0 .98-.25 1.24-.76v-2.4c-.27-.49-.68-.74-1.23-.74-.44 0-.78.17-1.02.51-.25.34-.37.84-.37 1.5zM622.16 46.4l1.22-3.91h.96l-2.1 6.03c-.33.87-.84 1.3-1.55 1.3l-.17-.01-.33-.06v-.72l.24.02c.3 0 .54-.06.71-.18.17-.12.31-.35.42-.67l.2-.53-1.86-5.16h.97l1.29 3.89zM625.1 49.11l-.51-.35c.3-.42.46-.86.47-1.3v-.81h.87v.7c0 .32-.08.65-.24.97-.15.34-.35.6-.59.79zM632.6 40.69h.93v4.98c0 .67-.2 1.2-.61 1.58-.4.38-.94.57-1.61.57-.7 0-1.24-.18-1.63-.54-.39-.36-.58-.86-.58-1.5h.93c0 .4.11.72.33.94.22.23.54.34.96.34.38 0 .69-.12.93-.36.24-.24.36-.58.36-1.01v-5zM638.2 47.71c-.05-.1-.09-.29-.12-.55-.42.43-.91.65-1.49.65-.52 0-.94-.15-1.27-.44s-.49-.66-.49-1.11c0-.54.21-.97.62-1.27.41-.3 1-.45 1.74-.45h.87v-.41c0-.31-.09-.56-.28-.75s-.46-.28-.83-.28c-.32 0-.59.08-.8.24-.22.16-.32.36-.32.58h-.9c0-.26.09-.51.28-.76.18-.24.44-.44.75-.58.32-.14.67-.21 1.04-.21.6 0 1.07.15 1.41.45.34.3.52.71.53 1.24v2.4c0 .48.06.86.18 1.14v.08h-.92zm-1.48-.68c.28 0 .54-.07.8-.22s.43-.33.55-.56v-1.07h-.7c-1.09 0-1.64.32-1.64.96 0 .28.09.5.28.66.17.15.41.23.71.23zM642 46.5l1.29-4.01h.91l-1.87 5.22h-.68l-1.89-5.22h.91L642 46.5zM647.23 47.81c-.71 0-1.28-.23-1.73-.7-.44-.46-.67-1.09-.67-1.87v-.16c0-.52.1-.98.3-1.39.2-.41.47-.73.83-.96.36-.23.74-.34 1.16-.34.68 0 1.21.22 1.58.67.38.45.56 1.09.56 1.92v.37h-3.54c.01.51.16.93.45 1.25.29.32.65.48 1.1.48.32 0 .58-.06.8-.19s.41-.3.57-.51l.54.42c-.42.67-1.07 1.01-1.95 1.01zm-.11-4.68c-.36 0-.66.13-.91.39s-.4.63-.45 1.1h2.62v-.07c-.03-.45-.15-.81-.37-1.05-.22-.25-.52-.37-.89-.37zM651.27 47.71h-.89V40.3h.89v7.41zM652.71 41.11c0-.15.04-.27.13-.37.09-.1.22-.15.39-.15s.3.05.4.15c.09.1.13.22.13.37a.5.5 0 0 1-.13.36c-.09.1-.22.14-.4.14-.17 0-.31-.05-.39-.14a.515.515 0 0 1-.13-.36zm.96 6.6h-.89v-5.22h.89v5.22zM655.94 42.49l.03.66c.4-.5.92-.75 1.56-.75 1.1 0 1.66.62 1.67 1.87v3.45h-.89v-3.46c0-.38-.09-.65-.26-.83s-.43-.27-.79-.27c-.29 0-.54.08-.76.23s-.39.36-.51.61v3.72h-.89V42.5h.84zM665.21 44.58c-.79-.23-1.37-.51-1.73-.84a1.6 1.6 0 0 1-.54-1.23c0-.55.22-1.01.66-1.37s1.02-.54 1.73-.54c.48 0 .91.09 1.29.28s.67.44.88.77c.21.33.31.69.31 1.08h-.93c0-.43-.13-.76-.41-1-.27-.24-.65-.37-1.14-.37-.46 0-.81.1-1.07.3-.26.2-.38.48-.38.84 0 .29.12.53.37.73.24.2.66.38 1.24.54s1.04.35 1.37.54c.33.2.57.43.73.69.16.26.24.57.24.93 0 .57-.22 1.03-.67 1.37s-1.04.51-1.78.51c-.48 0-.93-.09-1.35-.28-.42-.18-.74-.44-.97-.76a1.84 1.84 0 0 1-.34-1.1h.93c0 .42.16.76.47 1.01s.73.37 1.26.37c.49 0 .86-.1 1.12-.3s.39-.47.39-.82c0-.34-.12-.61-.36-.8-.25-.18-.69-.37-1.32-.55zM670.08 41.23v1.26h.98v.69h-.98v3.24c0 .21.04.37.13.47.09.11.23.16.44.16.1 0 .25-.02.42-.06v.72c-.23.06-.46.1-.68.1-.4 0-.7-.12-.9-.36-.2-.24-.3-.58-.3-1.03v-3.24h-.95v-.69h.95v-1.26h.89zM674.62 43.29c-.14-.02-.28-.03-.44-.03-.59 0-.98.25-1.19.75v3.71h-.89V42.5h.87l.01.6c.29-.47.71-.7 1.25-.7.17 0 .31.02.4.07v.82zM678.47 47.71c-.05-.1-.09-.29-.12-.55-.42.43-.91.65-1.49.65-.52 0-.94-.15-1.27-.44s-.49-.66-.49-1.11c0-.54.21-.97.62-1.27.41-.3 1-.45 1.74-.45h.87v-.41c0-.31-.09-.56-.28-.75s-.46-.28-.83-.28c-.32 0-.59.08-.8.24-.22.16-.32.36-.32.58h-.9c0-.26.09-.51.28-.76.18-.24.44-.44.75-.58.32-.14.67-.21 1.04-.21.6 0 1.07.15 1.41.45.34.3.52.71.53 1.24v2.4c0 .48.06.86.18 1.14v.08h-.92zm-1.48-.68c.28 0 .54-.07.8-.22s.43-.33.55-.56v-1.07h-.7c-1.09 0-1.64.32-1.64.96 0 .28.09.5.28.66.17.15.41.23.71.23zM681.83 41.23v1.26h.98v.69h-.98v3.24c0 .21.04.37.13.47.09.11.23.16.44.16.1 0 .25-.02.42-.06v.72c-.23.06-.46.1-.68.1-.4 0-.7-.12-.9-.36-.2-.24-.3-.58-.3-1.03v-3.24h-.95v-.69h.95v-1.26h.89zM686.02 47.81c-.71 0-1.28-.23-1.73-.7-.44-.46-.67-1.09-.67-1.87v-.16c0-.52.1-.98.3-1.39.2-.41.47-.73.83-.96.36-.23.74-.34 1.16-.34.68 0 1.21.22 1.58.67.38.45.56 1.09.56 1.92v.37h-3.54c.01.51.16.93.45 1.25.29.32.65.48 1.1.48.32 0 .58-.06.8-.19s.41-.3.57-.51l.54.42c-.42.67-1.08 1.01-1.95 1.01zm-.12-4.68c-.36 0-.66.13-.91.39s-.4.63-.45 1.1h2.62v-.07c-.03-.45-.15-.81-.37-1.05-.22-.25-.51-.37-.89-.37zM688.87 45.06c0-.81.19-1.46.57-1.94.38-.48.88-.72 1.5-.72.64 0 1.13.23 1.49.68l.04-.58h.82v5.1c0 .68-.2 1.21-.6 1.6-.4.39-.94.58-1.61.58-.38 0-.75-.08-1.11-.24a1.97 1.97 0 0 1-.83-.66l.46-.54c.38.47.85.71 1.4.71.43 0 .77-.12 1.02-.37.24-.25.36-.59.36-1.03v-.45c-.36.41-.84.62-1.46.62-.61 0-1.11-.25-1.48-.74s-.57-1.17-.57-2.02zm.9.1c0 .59.12 1.05.36 1.39.24.34.58.5 1.01.5.56 0 .98-.26 1.24-.77V43.9c-.27-.5-.68-.75-1.23-.75-.43 0-.77.17-1.02.51-.24.34-.36.84-.36 1.5zM696.34 46.4l1.22-3.91h.96l-2.1 6.03c-.33.87-.84 1.3-1.55 1.3l-.17-.01-.33-.06v-.72l.24.02c.3 0 .54-.06.71-.18.17-.12.31-.35.42-.67l.2-.53-1.86-5.16h.97l1.29 3.89zM624.89 57.69c0-.34.09-.65.28-.93.19-.28.55-.61 1.08-.99-.31-.38-.52-.68-.63-.92a1.58 1.58 0 0 1-.16-.69c0-.53.16-.95.47-1.25.31-.3.74-.45 1.28-.45.48 0 .88.14 1.2.42.32.28.47.64.47 1.06 0 .28-.07.54-.21.78-.14.24-.39.49-.75.76l-.52.38 1.56 1.87c.22-.42.33-.88.33-1.39h.81c0 .82-.2 1.5-.59 2.04l1 1.2h-1.07l-.47-.56c-.24.21-.52.37-.84.49-.32.11-.65.17-.98.17-.69 0-1.24-.18-1.65-.55s-.61-.85-.61-1.44zm2.27 1.25c.47 0 .91-.18 1.3-.54l-1.71-2.05-.16.12c-.54.4-.81.8-.81 1.22 0 .38.12.68.37.91.25.23.58.34 1.01.34zm-.81-4.81c0 .31.19.7.57 1.16l.57-.4c.22-.15.37-.3.45-.44.08-.14.12-.31.12-.51 0-.21-.08-.39-.24-.54a.887.887 0 0 0-.61-.21c-.26 0-.47.09-.63.27s-.23.4-.23.67zM636.38 56.73h-1.65v2.84h-.93v-7.03h2.33c.79 0 1.4.18 1.83.54.43.36.64.88.64 1.57 0 .44-.12.82-.35 1.14-.24.33-.57.57-.99.73l1.65 2.98v.06h-.99l-1.54-2.83zm-1.65-.76h1.42c.46 0 .83-.12 1.1-.36.27-.24.41-.56.41-.96 0-.43-.13-.77-.39-1-.26-.23-.63-.35-1.12-.35h-1.42v2.67zM641.92 59.67c-.71 0-1.28-.23-1.73-.7-.44-.46-.67-1.09-.67-1.87v-.16c0-.52.1-.98.3-1.39.2-.41.47-.72.83-.96s.74-.34 1.16-.34c.68 0 1.21.22 1.58.67.38.45.56 1.09.56 1.92v.37h-3.54c.01.51.16.93.45 1.25.29.32.65.47 1.1.47.32 0 .58-.06.8-.19.22-.13.41-.3.57-.51l.54.42c-.42.68-1.08 1.02-1.95 1.02zm-.11-4.68c-.36 0-.66.13-.91.39-.24.26-.4.63-.45 1.1h2.62v-.07c-.03-.45-.15-.81-.37-1.05-.22-.25-.52-.37-.89-.37zM648.03 58.19c0-.24-.09-.43-.27-.56-.18-.13-.5-.25-.95-.35-.45-.1-.81-.21-1.08-.35-.27-.13-.46-.3-.59-.48-.13-.19-.19-.41-.19-.67 0-.43.18-.79.54-1.09.36-.3.83-.44 1.39-.44.59 0 1.07.15 1.44.46.37.31.55.7.55 1.17h-.9c0-.24-.1-.46-.31-.63-.21-.18-.47-.27-.78-.27-.33 0-.58.07-.76.21-.18.14-.27.33-.27.56 0 .21.08.38.26.49.17.11.48.21.92.31s.81.22 1.08.36c.28.14.48.3.62.5.13.2.2.43.2.71 0 .47-.19.84-.56 1.12-.37.28-.86.42-1.45.42-.42 0-.79-.07-1.11-.22-.32-.15-.57-.35-.75-.62s-.27-.55-.27-.86h.89c.02.3.14.54.36.71s.52.26.89.26c.34 0 .61-.07.81-.21.19-.12.29-.3.29-.53zM652.25 59.67c-.71 0-1.28-.23-1.73-.7-.44-.46-.67-1.09-.67-1.87v-.16c0-.52.1-.98.3-1.39.2-.41.47-.72.83-.96s.74-.34 1.16-.34c.68 0 1.21.22 1.58.67.38.45.56 1.09.56 1.92v.37h-3.54c.01.51.16.93.45 1.25.29.32.65.47 1.1.47.32 0 .58-.06.8-.19.22-.13.41-.3.57-.51l.54.42c-.42.68-1.07 1.02-1.95 1.02zm-.11-4.68c-.36 0-.66.13-.91.39-.24.26-.4.63-.45 1.1h2.62v-.07c-.03-.45-.15-.81-.37-1.05-.22-.25-.52-.37-.89-.37zM658.54 59.57c-.05-.1-.09-.29-.12-.55-.42.43-.91.65-1.49.65-.52 0-.94-.15-1.27-.44-.33-.29-.49-.66-.49-1.11 0-.54.21-.97.62-1.27.41-.3 1-.45 1.74-.45h.87V56c0-.31-.09-.56-.28-.75-.19-.18-.46-.28-.83-.28-.32 0-.59.08-.8.24-.22.16-.32.36-.32.58h-.9c0-.26.09-.51.28-.75.18-.24.44-.44.75-.58.32-.14.67-.21 1.04-.21.6 0 1.07.15 1.41.45.34.3.52.71.53 1.24v2.4c0 .48.06.86.18 1.14v.08h-.92zm-1.48-.68c.28 0 .54-.07.8-.22.25-.15.43-.33.55-.57v-1.07h-.7c-1.09 0-1.64.32-1.64.96 0 .28.09.5.28.66.18.16.42.24.71.24zM663.22 55.15c-.14-.02-.28-.03-.44-.03-.59 0-.98.25-1.19.75v3.71h-.89v-5.22h.87l.01.6c.29-.47.71-.7 1.25-.7.17 0 .31.02.4.07v.82zM666.04 58.94c.32 0 .6-.1.83-.29.24-.19.37-.43.4-.72h.84c-.02.3-.12.58-.31.85s-.44.49-.76.65c-.32.16-.65.24-1.01.24-.71 0-1.28-.24-1.7-.71s-.63-1.12-.63-1.95v-.15c0-.51.09-.96.28-1.36.19-.4.46-.7.8-.92.35-.22.76-.33 1.24-.33.58 0 1.07.17 1.46.53s.59.81.62 1.37h-.84c-.03-.34-.15-.62-.38-.83-.23-.22-.51-.33-.85-.33-.45 0-.81.16-1.05.49-.25.33-.37.8-.37 1.42v.17c0 .6.12 1.06.37 1.39.25.32.6.48 1.06.48zM670.02 54.98c.4-.49.91-.73 1.54-.73 1.1 0 1.66.62 1.67 1.87v3.45h-.89v-3.46c0-.38-.09-.65-.26-.83-.17-.18-.43-.27-.79-.27-.29 0-.54.08-.76.23s-.39.36-.51.61v3.72h-.89v-7.41h.89v2.82z"/></svg>