<svg id="Layer_1" xmlns="http://www.w3.org/2000/svg" viewBox="0 0 728 90"><style>.st0{fill:#021d8b}</style><path class="st0" d="M167.42 46.62c0-.57.19-1.03.56-1.38.37-.35.85-.53 1.45-.53.61 0 1.1.17 1.46.52s.55.8.57 1.36v.33c0 .57-.18 1.02-.55 1.37-.37.35-.85.52-1.46.52-.6 0-1.08-.17-1.45-.51-.37-.34-.56-.79-.57-1.34v-.34zM183.29 49.61c0-.41-.14-.73-.43-.96s-.8-.46-1.52-.71-1.32-.48-1.78-.71c-1.5-.74-2.25-1.75-2.25-3.04 0-.64.19-1.21.56-1.7.37-.49.9-.87 1.59-1.15.68-.27 1.45-.41 2.31-.41.83 0 1.58.15 2.24.45s1.17.72 1.54 1.27c.37.55.55 1.18.55 1.88h-2.79c0-.47-.14-.84-.43-1.1s-.68-.39-1.17-.39c-.5 0-.89.11-1.18.33-.29.22-.43.5-.43.84 0 .3.16.57.48.81s.88.49 1.68.75c.8.26 1.46.53 1.97.83 1.25.72 1.88 1.72 1.88 2.98 0 1.01-.38 1.81-1.15 2.39-.76.58-1.81.87-3.14.87-.94 0-1.79-.17-2.55-.51s-1.33-.8-1.72-1.38-.58-1.26-.58-2.03h2.8c0 .62.16 1.08.48 1.37.32.29.84.44 1.56.44.46 0 .83-.1 1.09-.3.25-.18.39-.46.39-.82zM191.55 52.85c-1.32 0-2.39-.39-3.21-1.18-.82-.79-1.23-1.81-1.23-3.08v-.22c0-.88.16-1.66.49-2.33.33-.67.8-1.19 1.43-1.56.62-.37 1.37-.55 2.23-.55 1.21 0 2.16.38 2.86 1.13s1.05 1.8 1.05 3.14v1.04h-5.33c.09.48.3.86.63 1.14.32.28.74.41 1.26.41.85 0 1.51-.3 1.99-.89l1.23 1.45c-.33.46-.81.83-1.42 1.1s-1.27.4-1.98.4zm-.3-6.86c-.79 0-1.25.52-1.4 1.56h2.71v-.21c.01-.43-.1-.76-.33-1-.23-.23-.56-.35-.98-.35zM199.9 50.78c.38 0 .67-.1.88-.31s.31-.49.3-.86h2.51c0 .94-.34 1.72-1.01 2.32-.68.6-1.55.91-2.61.91-1.25 0-2.24-.39-2.96-1.18-.72-.79-1.08-1.87-1.08-3.26v-.1c0-.87.16-1.64.48-2.3.32-.67.78-1.18 1.39-1.54.61-.36 1.32-.54 2.15-.54 1.12 0 2.01.31 2.67.93.66.62.99 1.46.99 2.52h-2.51c0-.45-.11-.79-.33-1.03-.22-.24-.51-.36-.88-.36-.7 0-1.1.44-1.22 1.33-.04.28-.06.67-.06 1.16 0 .86.1 1.46.31 1.8s.53.51.98.51zM209.85 51.76c-.57.73-1.33 1.09-2.3 1.09-.94 0-1.66-.27-2.14-.82-.49-.55-.73-1.34-.73-2.37v-5.58h2.68v5.59c0 .74.36 1.11 1.07 1.11.62 0 1.05-.22 1.31-.66v-6.04h2.7v8.61h-2.51l-.08-.93zM219.12 46.51l-.88-.06c-.84 0-1.38.27-1.62.8v5.45h-2.68v-8.61h2.51l.09 1.11c.45-.84 1.08-1.27 1.89-1.27.29 0 .54.03.75.1l-.06 2.48zM224.25 52.85c-1.32 0-2.39-.39-3.21-1.18-.82-.79-1.23-1.81-1.23-3.08v-.22c0-.88.16-1.66.49-2.33.33-.67.8-1.19 1.43-1.56.62-.37 1.37-.55 2.23-.55 1.21 0 2.16.38 2.86 1.13s1.05 1.8 1.05 3.14v1.04h-5.33c.09.48.3.86.63 1.14.32.28.74.41 1.26.41.85 0 1.51-.3 1.99-.89l1.23 1.45c-.33.46-.81.83-1.42 1.1s-1.27.4-1.98.4zm-.3-6.86c-.79 0-1.25.52-1.4 1.56h2.71v-.21c.01-.43-.1-.76-.33-1-.23-.23-.55-.35-.98-.35zM233.14 52.69V41.11h4.16c1.49 0 2.62.27 3.4.82.78.55 1.17 1.34 1.17 2.38 0 .6-.14 1.11-.41 1.54-.28.42-.68.74-1.22.94.6.16 1.07.46 1.39.89.32.43.49.96.49 1.59 0 1.14-.36 1.99-1.08 2.56s-1.78.86-3.2.87h-4.7zm2.8-6.75h1.46c.61 0 1.04-.12 1.3-.33.26-.22.39-.54.39-.97 0-.49-.14-.84-.42-1.06-.28-.22-.74-.32-1.36-.32h-1.37v2.68zm0 1.83v2.78h1.83c.5 0 .89-.12 1.16-.35.27-.23.41-.55.41-.97 0-.96-.48-1.45-1.44-1.46h-1.96zM248.74 46.51l-.88-.06c-.84 0-1.38.27-1.62.8v5.45h-2.68v-8.61h2.51l.09 1.11c.45-.84 1.08-1.27 1.89-1.27.29 0 .54.03.75.1l-.06 2.48zM249.08 48.31c0-.86.17-1.62.5-2.29s.81-1.19 1.44-1.55c.63-.36 1.36-.54 2.2-.54 1.29 0 2.3.4 3.05 1.2.74.8 1.11 1.88 1.11 3.26v.1c0 1.34-.37 2.41-1.12 3.19-.75.79-1.75 1.18-3.03 1.18-1.23 0-2.21-.37-2.95-1.1-.74-.73-1.14-1.73-1.2-2.99v-.46zm2.68.16c0 .79.12 1.38.37 1.75.25.37.62.56 1.11.56.96 0 1.44-.73 1.46-2.2v-.27c0-1.54-.49-2.32-1.48-2.32-.9 0-1.38.67-1.46 2v.48zM266 49.16l.87-5.08h2.57l-2.03 8.61h-2.27l-1.42-5.11-1.43 5.11h-2.27l-2.03-8.61h2.57l.85 5.2 1.37-5.2h1.87l1.35 5.08zM274.91 50.27c0-.23-.12-.41-.36-.55-.24-.14-.69-.28-1.36-.43-.67-.15-1.22-.34-1.66-.58s-.77-.53-.99-.88c-.23-.34-.34-.74-.34-1.19 0-.79.33-1.44.98-1.95.65-.51 1.51-.77 2.56-.77 1.13 0 2.05.26 2.74.77.69.51 1.03 1.19 1.03 2.03h-2.69c0-.69-.36-1.03-1.09-1.03-.28 0-.52.08-.71.23-.19.16-.29.35-.29.58 0 .24.12.43.35.58s.61.27 1.12.37c.51.09.96.21 1.35.34 1.29.45 1.94 1.24 1.94 2.39 0 .79-.35 1.42-1.05 1.92s-1.6.74-2.71.74c-.74 0-1.4-.13-1.97-.4-.58-.26-1.03-.63-1.35-1.08s-.49-.94-.49-1.44h2.51c.01.4.14.69.4.87.25.18.58.27.98.27.37 0 .64-.07.82-.22a.68.68 0 0 0 .28-.57zM282.91 52.85c-1.32 0-2.39-.39-3.21-1.18-.82-.79-1.23-1.81-1.23-3.08v-.22c0-.88.16-1.66.49-2.33.33-.67.8-1.19 1.43-1.56.62-.37 1.37-.55 2.23-.55 1.21 0 2.16.38 2.86 1.13s1.05 1.8 1.05 3.14v1.04h-5.33c.09.48.3.86.63 1.14.32.28.74.41 1.26.41.85 0 1.51-.3 1.99-.89l1.23 1.45c-.33.46-.81.83-1.42 1.1s-1.27.4-1.98.4zm-.3-6.86c-.79 0-1.25.52-1.4 1.56h2.71v-.21c.01-.43-.1-.76-.33-1-.23-.23-.56-.35-.98-.35zM292.82 46.51l-.88-.06c-.84 0-1.38.27-1.62.8v5.45h-2.68v-8.61h2.51l.09 1.11c.45-.84 1.08-1.27 1.89-1.27.29 0 .54.03.75.1l-.06 2.48zM302.22 46.62c0-.57.19-1.03.56-1.38.37-.35.85-.53 1.45-.53.61 0 1.1.17 1.46.52s.55.8.57 1.36v.33c0 .57-.18 1.02-.55 1.37-.37.35-.85.52-1.46.52-.6 0-1.08-.17-1.45-.51-.37-.34-.56-.79-.57-1.34v-.34zM318.09 49.61c0-.41-.14-.73-.43-.96s-.8-.46-1.52-.71-1.32-.48-1.78-.71c-1.5-.74-2.25-1.75-2.25-3.04 0-.64.19-1.21.56-1.7.37-.49.9-.87 1.59-1.15.68-.27 1.45-.41 2.31-.41.83 0 1.58.15 2.24.45s1.17.72 1.54 1.27c.37.55.55 1.18.55 1.88h-2.79c0-.47-.14-.84-.43-1.1s-.68-.39-1.17-.39c-.5 0-.89.11-1.18.33-.29.22-.43.5-.43.84 0 .3.16.57.48.81s.88.49 1.68.75c.8.26 1.46.53 1.97.83 1.25.72 1.88 1.72 1.88 2.98 0 1.01-.38 1.81-1.15 2.39-.76.58-1.81.87-3.14.87-.94 0-1.79-.17-2.55-.51s-1.33-.8-1.72-1.38-.58-1.26-.58-2.03h2.8c0 .62.16 1.08.48 1.37.32.29.84.44 1.56.44.46 0 .83-.1 1.09-.3.25-.18.39-.46.39-.82zM326.35 52.85c-1.32 0-2.39-.39-3.21-1.18-.82-.79-1.23-1.81-1.23-3.08v-.22c0-.88.16-1.66.49-2.33.33-.67.8-1.19 1.43-1.56.62-.37 1.37-.55 2.23-.55 1.21 0 2.16.38 2.86 1.13s1.05 1.8 1.05 3.14v1.04h-5.33c.09.48.3.86.63 1.14.32.28.74.41 1.26.41.85 0 1.51-.3 1.99-.89l1.23 1.45c-.33.46-.81.83-1.42 1.1s-1.27.4-1.98.4zm-.3-6.86c-.79 0-1.25.52-1.4 1.56h2.71v-.21c.01-.43-.1-.76-.33-1-.23-.23-.55-.35-.98-.35zM334.7 50.78c.38 0 .67-.1.88-.31s.31-.49.3-.86h2.51c0 .94-.34 1.72-1.01 2.32-.68.6-1.55.91-2.61.91-1.25 0-2.24-.39-2.96-1.18-.72-.79-1.08-1.87-1.08-3.26v-.1c0-.87.16-1.64.48-2.3.32-.67.78-1.18 1.39-1.54.61-.36 1.32-.54 2.15-.54 1.12 0 2.01.31 2.67.93.66.62.99 1.46.99 2.52h-2.51c0-.45-.11-.79-.33-1.03-.22-.24-.51-.36-.88-.36-.7 0-1.1.44-1.22 1.33-.04.28-.06.67-.06 1.16 0 .86.1 1.46.31 1.8s.53.51.98.51zM344.65 51.76c-.57.73-1.33 1.09-2.3 1.09-.94 0-1.66-.27-2.14-.82-.49-.55-.73-1.34-.73-2.37v-5.58h2.68v5.59c0 .74.36 1.11 1.07 1.11.62 0 1.05-.22 1.31-.66v-6.04h2.7v8.61h-2.51l-.08-.93zM353.92 46.51l-.88-.06c-.84 0-1.38.27-1.62.8v5.45h-2.68v-8.61h2.51l.09 1.11c.45-.84 1.08-1.27 1.89-1.27.29 0 .54.03.75.1l-.06 2.48zM359.06 52.85c-1.32 0-2.39-.39-3.21-1.18-.82-.79-1.23-1.81-1.23-3.08v-.22c0-.88.16-1.66.49-2.33.33-.67.8-1.19 1.43-1.56.62-.37 1.37-.55 2.23-.55 1.21 0 2.16.38 2.86 1.13s1.05 1.8 1.05 3.14v1.04h-5.33c.09.48.3.86.63 1.14.32.28.74.41 1.26.41.85 0 1.51-.3 1.99-.89l1.23 1.45c-.33.46-.81.83-1.42 1.1s-1.28.4-1.98.4zm-.31-6.86c-.79 0-1.25.52-1.4 1.56h2.71v-.21c.01-.43-.1-.76-.33-1-.23-.23-.55-.35-.98-.35zM371.88 48.38l-1.15 1.26v3.06h-2.79V41.11h2.79v5.11l.97-1.47 2.5-3.64h3.45l-3.91 5.12 3.91 6.46h-3.31l-2.46-4.31zM382.41 52.85c-1.32 0-2.39-.39-3.21-1.18-.82-.79-1.23-1.81-1.23-3.08v-.22c0-.88.16-1.66.49-2.33.33-.67.8-1.19 1.43-1.56.62-.37 1.37-.55 2.23-.55 1.21 0 2.16.38 2.86 1.13s1.05 1.8 1.05 3.14v1.04h-5.33c.09.48.3.86.63 1.14.32.28.74.41 1.26.41.85 0 1.51-.3 1.99-.89l1.23 1.45c-.33.46-.81.83-1.42 1.1s-1.28.4-1.98.4zm-.3-6.86c-.79 0-1.25.52-1.4 1.56h2.71v-.21c.01-.43-.1-.76-.33-1-.23-.23-.56-.35-.98-.35zM390.56 48.94l1.43-4.85h2.87l-3.51 10.05-.15.37c-.5 1.11-1.38 1.67-2.64 1.67-.35 0-.72-.05-1.11-.16V54.1h.35c.38 0 .66-.05.86-.16.2-.11.35-.3.44-.59l.21-.57-2.99-8.7h2.87l1.37 4.86zM403.55 48.46c0 1.41-.29 2.5-.88 3.25-.58.76-1.41 1.14-2.47 1.14-.88 0-1.58-.35-2.12-1.04l-.11.88h-2.4V40.47h2.68v4.3c.5-.57 1.14-.85 1.93-.85 1.07 0 1.9.38 2.48 1.15.58.77.88 1.85.88 3.25v.14zm-2.69-.17c0-.83-.11-1.42-.33-1.77-.22-.35-.56-.53-1.01-.53-.6 0-1.02.23-1.26.69v3.42c.23.46.65.68 1.27.68.63 0 1.03-.31 1.2-.92.09-.3.13-.83.13-1.57zM404.39 48.31c0-.86.17-1.62.5-2.29s.81-1.19 1.44-1.55c.63-.36 1.36-.54 2.2-.54 1.29 0 2.3.4 3.05 1.2.74.8 1.11 1.88 1.11 3.26v.1c0 1.34-.37 2.41-1.12 3.19-.75.79-1.75 1.18-3.03 1.18-1.23 0-2.21-.37-2.95-1.1-.74-.73-1.14-1.73-1.2-2.99v-.46zm2.68.16c0 .79.12 1.38.37 1.75.25.37.62.56 1.11.56.96 0 1.44-.73 1.46-2.2v-.27c0-1.54-.49-2.32-1.48-2.32-.9 0-1.38.67-1.46 2v.48zM418.73 52.69c-.1-.17-.18-.43-.25-.77-.49.62-1.18.93-2.07.93-.81 0-1.5-.25-2.07-.74-.57-.49-.85-1.11-.85-1.85 0-.93.34-1.64 1.03-2.12.69-.48 1.69-.72 3.01-.72h.83v-.46c0-.79-.34-1.19-1.03-1.19-.64 0-.96.31-.96.94h-2.68c0-.83.35-1.51 1.06-2.03.71-.52 1.61-.78 2.71-.78 1.1 0 1.97.27 2.6.8.64.54.96 1.27.98 2.2v3.81c.01.79.13 1.39.37 1.81v.14h-2.68zm-1.68-1.75c.33 0 .61-.07.83-.21.22-.14.38-.3.47-.49v-1.38h-.78c-.93 0-1.4.42-1.4 1.26 0 .24.08.44.25.59s.38.23.63.23zM427.74 46.51l-.88-.06c-.84 0-1.38.27-1.62.8v5.45h-2.68v-8.61h2.51l.09 1.11c.45-.84 1.08-1.27 1.89-1.27.29 0 .54.03.75.1l-.06 2.48zM428.37 48.32c0-1.36.29-2.44.88-3.22s1.41-1.18 2.47-1.18c.77 0 1.42.3 1.94.91v-4.36h2.69v12.22h-2.41l-.14-.92c-.55.72-1.25 1.08-2.1 1.08-1.02 0-1.84-.39-2.44-1.18s-.89-1.9-.89-3.35zm2.68.17c0 1.53.45 2.29 1.34 2.29.59 0 1.02-.25 1.27-.75v-3.28c-.24-.51-.66-.76-1.26-.76-.83 0-1.28.67-1.34 2.01l-.01.49z"/></svg>