<svg id="Layer_1" xmlns="http://www.w3.org/2000/svg" viewBox="0 0 728 90"><style>.st0{fill:#021d8b;stroke:url(#SVGID_1_);stroke-width:2;stroke-miterlimit:10}.st1{fill:#fff}</style><linearGradient id="SVGID_1_" gradientUnits="userSpaceOnUse" x1="471" y1="44.886" x2="572" y2="44.886"><stop offset="0" stop-color="#18b9fb"/><stop offset=".5" stop-color="#782eeb"/><stop offset="1" stop-color="#e82d8a"/></linearGradient><path class="st0" d="M554.36 61.52h-65.73c-9.19 0-16.64-7.45-16.64-16.64 0-9.19 7.45-16.64 16.64-16.64h65.73c9.19 0 16.64 7.45 16.64 16.64 0 9.19-7.45 16.64-16.64 16.64z"/><path class="st1" d="M488.05 47.3h3.75v1.42h-5.52v-8.57h1.77v7.15zM497.97 45h-3.39v2.3h3.98v1.42h-5.75v-8.57h5.73v1.43h-3.97v2.04h3.39V45zM504.43 46.95h-3.1l-.59 1.77h-1.88l3.19-8.57h1.64l3.21 8.57h-1.88l-.59-1.77zm-2.62-1.43h2.14l-1.08-3.21-1.06 3.21zM510.88 45.58h-1.41v3.14h-1.77v-8.57h3.18c1.01 0 1.79.23 2.34.68.55.45.82 1.09.82 1.91 0 .58-.13 1.07-.38 1.46-.25.39-.64.7-1.15.93l1.85 3.5v.08h-1.9l-1.58-3.13zm-1.41-1.43h1.42c.44 0 .79-.11 1.03-.34.24-.23.37-.54.37-.93 0-.4-.11-.72-.34-.95-.23-.23-.58-.35-1.06-.35h-1.42v2.57zM522.37 48.71h-1.77l-3.44-5.64v5.64h-1.77v-8.57h1.77l3.44 5.65v-5.65h1.76v8.57zM529.22 40.14l2.2 6.22 2.19-6.22h2.32v8.57h-1.77v-2.34l.18-4.04-2.31 6.39h-1.21l-2.31-6.38.18 4.04v2.34h-1.77v-8.57h2.3zM544.51 44.62c0 .84-.15 1.58-.45 2.22-.3.64-.73 1.13-1.28 1.47-.56.35-1.19.52-1.91.52-.71 0-1.34-.17-1.9-.51-.56-.34-.99-.83-1.29-1.46-.31-.63-.46-1.36-.47-2.19v-.42c0-.84.15-1.59.46-2.23.3-.64.73-1.13 1.29-1.48.55-.34 1.19-.52 1.9-.52s1.35.17 1.9.52c.55.34.98.84 1.29 1.48.3.64.46 1.38.46 2.22v.38zm-1.79-.38c0-.9-.16-1.58-.48-2.05-.32-.47-.78-.7-1.38-.7-.59 0-1.05.23-1.37.69-.32.46-.48 1.14-.49 2.03v.42c0 .88.16 1.55.48 2.04.32.48.79.72 1.39.72.59 0 1.05-.23 1.37-.7.32-.46.48-1.14.48-2.03v-.42zM548.97 45.58h-1.41v3.14h-1.77v-8.57h3.18c1.01 0 1.79.23 2.34.68.55.45.82 1.09.82 1.91 0 .58-.13 1.07-.38 1.46-.25.39-.64.7-1.15.93l1.85 3.5v.08h-1.9l-1.58-3.13zm-1.41-1.43h1.42c.44 0 .79-.11 1.03-.34.24-.23.37-.54.37-.93 0-.4-.11-.72-.34-.95-.23-.23-.58-.35-1.06-.35h-1.42v2.57zM558.64 45h-3.39v2.3h3.98v1.42h-5.75v-8.57h5.73v1.43h-3.97v2.04h3.39V45z"/></svg>