<?xml version="1.0" encoding="utf-8"?>
<!-- Generator: Adobe Illustrator 24.2.3, SVG Export Plug-In . SVG Version: 6.00 Build 0)  -->
<svg version="1.1" id="Layer_1" xmlns="http://www.w3.org/2000/svg" xmlns:xlink="http://www.w3.org/1999/xlink" x="0px" y="0px"
	 viewBox="0 0 728 90" style="enable-background:new 0 0 728 90;" xml:space="preserve">
<style type="text/css">
	.st0{fill:url(#SVGID_1_);}
</style>
<linearGradient id="SVGID_1_" gradientUnits="userSpaceOnUse" x1="237.7686" y1="46.7615" x2="507.8193" y2="46.7615">
	<stop  offset="0" style="stop-color:#18B9FB"/>
	<stop  offset="0.5" style="stop-color:#782EEB"/>
	<stop  offset="1" style="stop-color:#E82D8A"/>
</linearGradient>
<path class="st0" d="M244.67,32.25h-2.16v5.87h-4V21.53h6.53c1.97,0,3.5,0.44,4.61,1.31c1.11,0.87,1.66,2.1,1.66,3.7
	c0,1.15-0.23,2.11-0.7,2.87s-1.2,1.37-2.19,1.84l3.46,6.7v0.17h-4.28L244.67,32.25z M242.51,29.17h2.53c0.76,0,1.33-0.2,1.71-0.6
	c0.38-0.4,0.58-0.96,0.58-1.67c0-0.72-0.19-1.28-0.58-1.68c-0.39-0.41-0.96-0.61-1.71-0.61h-2.53V29.17z M259.51,38.34
	c-1.89,0-3.42-0.56-4.59-1.69c-1.17-1.13-1.75-2.59-1.75-4.4v-0.32c0-1.26,0.23-2.37,0.7-3.34c0.47-0.96,1.15-1.71,2.04-2.24
	c0.9-0.53,1.96-0.79,3.19-0.79c1.73,0,3.1,0.54,4.1,1.61c1,1.07,1.5,2.57,1.5,4.49v1.49h-7.63c0.14,0.69,0.44,1.23,0.9,1.63
	c0.46,0.4,1.06,0.59,1.8,0.59c1.21,0,2.16-0.42,2.85-1.28l1.75,2.07c-0.48,0.66-1.16,1.19-2.03,1.58
	C261.46,38.15,260.52,38.34,259.51,38.34z M259.08,28.53c-1.12,0-1.79,0.74-2,2.23h3.87v-0.3c0.01-0.61-0.14-1.09-0.47-1.43
	C260.15,28.69,259.68,28.53,259.08,28.53z M271.46,35.38c0.54,0,0.96-0.15,1.25-0.44c0.3-0.29,0.44-0.7,0.43-1.22h3.6
	c0,1.35-0.48,2.46-1.45,3.33c-0.97,0.87-2.21,1.3-3.74,1.3c-1.79,0-3.2-0.56-4.24-1.69c-1.03-1.12-1.55-2.68-1.55-4.67v-0.16
	c0-1.25,0.23-2.34,0.69-3.3c0.46-0.95,1.12-1.69,1.99-2.2s1.89-0.77,3.08-0.77c1.6,0,2.87,0.44,3.82,1.33
	c0.94,0.89,1.41,2.09,1.41,3.61h-3.6c0-0.64-0.16-1.13-0.47-1.47c-0.31-0.34-0.73-0.51-1.25-0.51c-0.99,0-1.58,0.63-1.74,1.9
	c-0.05,0.4-0.08,0.96-0.08,1.66c0,1.24,0.15,2.1,0.44,2.57C270.34,35.14,270.81,35.38,271.46,35.38z M284.33,38.34
	c-1.89,0-3.42-0.56-4.59-1.69c-1.17-1.13-1.75-2.59-1.75-4.4v-0.32c0-1.26,0.23-2.37,0.7-3.34c0.47-0.96,1.15-1.71,2.04-2.24
	c0.9-0.53,1.96-0.79,3.19-0.79c1.73,0,3.1,0.54,4.1,1.61c1,1.07,1.5,2.57,1.5,4.49v1.49h-7.63c0.14,0.69,0.44,1.23,0.9,1.63
	c0.46,0.4,1.06,0.59,1.8,0.59c1.21,0,2.16-0.42,2.85-1.28l1.75,2.07c-0.48,0.66-1.16,1.19-2.03,1.58
	C286.28,38.15,285.33,38.34,284.33,38.34z M283.89,28.53c-1.12,0-1.79,0.74-2,2.23h3.87v-0.3c0.01-0.61-0.14-1.09-0.47-1.43
	C284.97,28.69,284.5,28.53,283.89,28.53z M291.03,22.62c0-0.55,0.2-0.99,0.59-1.34c0.4-0.35,0.91-0.52,1.54-0.52
	c0.63,0,1.14,0.17,1.54,0.52c0.39,0.35,0.59,0.8,0.59,1.34c0,0.55-0.2,0.99-0.59,1.34s-0.91,0.52-1.54,0.52
	c-0.63,0-1.14-0.17-1.54-0.52C291.23,23.61,291.03,23.16,291.03,22.62z M295.11,38.12h-3.85V25.79h3.85V38.12z M302.39,33.55
	l1.95-7.76h4.04l-4.02,12.32h-3.92l-4.02-12.32h4.05L302.39,33.55z M315.34,38.34c-1.89,0-3.42-0.56-4.59-1.69
	c-1.17-1.13-1.75-2.59-1.75-4.4v-0.32c0-1.26,0.23-2.37,0.7-3.34c0.47-0.96,1.15-1.71,2.04-2.24c0.9-0.53,1.96-0.79,3.19-0.79
	c1.73,0,3.1,0.54,4.1,1.61c1,1.07,1.5,2.57,1.5,4.49v1.49h-7.63c0.14,0.69,0.44,1.23,0.9,1.63c0.46,0.4,1.06,0.59,1.8,0.59
	c1.21,0,2.16-0.42,2.85-1.28l1.75,2.07c-0.48,0.66-1.16,1.19-2.03,1.58C317.29,38.15,316.35,38.34,315.34,38.34z M314.9,28.53
	c-1.12,0-1.79,0.74-2,2.23h3.87v-0.3c0.01-0.61-0.14-1.09-0.47-1.43C315.98,28.69,315.51,28.53,314.9,28.53z M333.09,35.38
	c0.54,0,0.96-0.15,1.25-0.44c0.3-0.29,0.44-0.7,0.43-1.22h3.6c0,1.35-0.48,2.46-1.45,3.33c-0.97,0.87-2.21,1.3-3.74,1.3
	c-1.79,0-3.2-0.56-4.24-1.69c-1.03-1.12-1.55-2.68-1.55-4.67v-0.16c0-1.25,0.23-2.34,0.69-3.3c0.46-0.95,1.12-1.69,1.99-2.2
	s1.89-0.77,3.08-0.77c1.6,0,2.87,0.44,3.82,1.33c0.94,0.89,1.41,2.09,1.41,3.61h-3.6c0-0.64-0.16-1.13-0.47-1.47
	c-0.31-0.34-0.73-0.51-1.25-0.51c-0.99,0-1.58,0.63-1.74,1.9c-0.05,0.4-0.08,0.96-0.08,1.66c0,1.24,0.15,2.1,0.44,2.57
	C331.98,35.14,332.45,35.38,333.09,35.38z M347.45,29.27l-1.26-0.09c-1.21,0-1.98,0.38-2.32,1.14v7.8h-3.84V25.79h3.6l0.13,1.58
	c0.64-1.21,1.54-1.81,2.7-1.81c0.41,0,0.77,0.05,1.07,0.14L347.45,29.27z M354.58,38.34c-1.89,0-3.42-0.56-4.59-1.69
	c-1.17-1.13-1.75-2.59-1.75-4.4v-0.32c0-1.26,0.23-2.37,0.7-3.34c0.47-0.96,1.15-1.71,2.04-2.24c0.9-0.53,1.96-0.79,3.19-0.79
	c1.73,0,3.1,0.54,4.1,1.61c1,1.07,1.5,2.57,1.5,4.49v1.49h-7.63c0.14,0.69,0.44,1.23,0.9,1.63c0.46,0.4,1.06,0.59,1.8,0.59
	c1.21,0,2.16-0.42,2.85-1.28l1.75,2.07c-0.48,0.66-1.16,1.19-2.03,1.58C356.54,38.15,355.59,38.34,354.58,38.34z M354.15,28.53
	c-1.12,0-1.79,0.74-2,2.23h3.87v-0.3c0.01-0.61-0.14-1.09-0.47-1.43C355.22,28.69,354.76,28.53,354.15,28.53z M360.83,31.86
	c0-1.95,0.42-3.49,1.26-4.61s2.02-1.69,3.53-1.69c1.1,0,2.03,0.43,2.78,1.3v-6.24h3.85v17.49h-3.45l-0.19-1.32
	c-0.79,1.03-1.79,1.55-3.01,1.55c-1.47,0-2.63-0.56-3.49-1.69C361.26,35.53,360.83,33.94,360.83,31.86z M364.67,32.1
	c0,2.19,0.64,3.28,1.91,3.28c0.85,0,1.46-0.36,1.82-1.07v-4.69c-0.35-0.73-0.95-1.09-1.8-1.09c-1.18,0-1.83,0.96-1.92,2.87
	L364.67,32.1z M374.41,22.62c0-0.55,0.2-0.99,0.59-1.34c0.4-0.35,0.91-0.52,1.54-0.52c0.63,0,1.14,0.17,1.54,0.52
	c0.39,0.35,0.59,0.8,0.59,1.34c0,0.55-0.2,0.99-0.59,1.34s-0.91,0.52-1.54,0.52c-0.63,0-1.14-0.17-1.54-0.52
	C374.61,23.61,374.41,23.16,374.41,22.62z M378.49,38.12h-3.85V25.79h3.85V38.12z M385.32,22.73v3.06h2.03v2.67h-2.03v5.64
	c0,0.46,0.08,0.79,0.25,0.97s0.5,0.27,0.99,0.27c0.38,0,0.7-0.02,0.96-0.07v2.74c-0.69,0.22-1.41,0.33-2.16,0.33
	c-1.32,0-2.3-0.31-2.93-0.93c-0.63-0.62-0.95-1.57-0.95-2.84v-6.12h-1.57v-2.67h1.57v-3.06H385.32z M398.29,25.79l0.13,1.45
	c0.87-1.12,2.05-1.67,3.52-1.67c1.56,0,2.61,0.62,3.16,1.86c0.83-1.24,2.04-1.86,3.62-1.86c2.5,0,3.78,1.51,3.85,4.53v8.02h-3.85
	v-7.78c0-0.63-0.11-1.09-0.32-1.38c-0.21-0.29-0.6-0.43-1.16-0.43c-0.76,0-1.33,0.34-1.7,1.01l0.01,0.16v8.42h-3.85v-7.76
	c0-0.65-0.1-1.11-0.31-1.4c-0.21-0.29-0.6-0.43-1.17-0.43c-0.74,0-1.3,0.34-1.69,1.01v8.58h-3.84V25.79H398.29z M414.27,31.84
	c0-1.23,0.24-2.32,0.72-3.29c0.48-0.96,1.17-1.7,2.06-2.21s1.95-0.77,3.15-0.77c1.85,0,3.3,0.57,4.36,1.71
	c1.06,1.14,1.59,2.7,1.59,4.66v0.14c0,1.92-0.53,3.45-1.6,4.57s-2.51,1.69-4.33,1.69c-1.75,0-3.16-0.53-4.23-1.58
	c-1.06-1.05-1.64-2.48-1.72-4.28L414.27,31.84z M418.11,32.08c0,1.14,0.18,1.97,0.54,2.51c0.36,0.53,0.88,0.8,1.58,0.8
	c1.37,0,2.06-1.05,2.1-3.15v-0.39c0-2.21-0.71-3.31-2.12-3.31c-1.28,0-1.98,0.95-2.08,2.86L418.11,32.08z M431.38,25.79l0.13,1.45
	c0.85-1.12,2.02-1.67,3.52-1.67c1.28,0,2.24,0.38,2.88,1.15c0.63,0.77,0.96,1.92,0.99,3.46v7.94h-3.85v-7.78
	c0-0.62-0.12-1.08-0.38-1.37c-0.25-0.29-0.71-0.44-1.37-0.44c-0.75,0-1.31,0.3-1.67,0.89v8.7h-3.84V25.79H431.38z M440.98,22.62
	c0-0.55,0.2-0.99,0.59-1.34c0.4-0.35,0.91-0.52,1.54-0.52c0.63,0,1.14,0.17,1.54,0.52c0.39,0.35,0.59,0.8,0.59,1.34
	c0,0.55-0.2,0.99-0.59,1.34s-0.91,0.52-1.54,0.52c-0.63,0-1.14-0.17-1.54-0.52C441.18,23.61,440.98,23.16,440.98,22.62z
	 M445.06,38.12h-3.85V25.79h3.85V38.12z M451.89,22.73v3.06h2.03v2.67h-2.03v5.64c0,0.46,0.08,0.79,0.25,0.97s0.5,0.27,0.99,0.27
	c0.38,0,0.7-0.02,0.96-0.07v2.74c-0.69,0.22-1.41,0.33-2.16,0.33c-1.32,0-2.3-0.31-2.93-0.93c-0.63-0.62-0.95-1.57-0.95-2.84v-6.12
	h-1.57v-2.67h1.57v-3.06H451.89z M454.6,31.84c0-1.23,0.24-2.32,0.72-3.29c0.48-0.96,1.17-1.7,2.06-2.21s1.95-0.77,3.15-0.77
	c1.85,0,3.3,0.57,4.36,1.71c1.06,1.14,1.59,2.7,1.59,4.66v0.14c0,1.92-0.53,3.45-1.6,4.57s-2.51,1.69-4.33,1.69
	c-1.75,0-3.16-0.53-4.23-1.58c-1.06-1.05-1.64-2.48-1.72-4.28L454.6,31.84z M458.44,32.08c0,1.14,0.18,1.97,0.54,2.51
	c0.36,0.53,0.88,0.8,1.58,0.8c1.37,0,2.06-1.05,2.1-3.15v-0.39c0-2.21-0.71-3.31-2.12-3.31c-1.28,0-1.98,0.95-2.08,2.86
	L458.44,32.08z M475.63,29.27l-1.26-0.09c-1.21,0-1.98,0.38-2.32,1.14v7.8h-3.84V25.79h3.6l0.13,1.58c0.64-1.21,1.54-1.81,2.7-1.81
	c0.41,0,0.77,0.05,1.07,0.14L475.63,29.27z M476.99,22.62c0-0.55,0.2-0.99,0.59-1.34c0.4-0.35,0.91-0.52,1.54-0.52
	c0.63,0,1.14,0.17,1.54,0.52c0.39,0.35,0.59,0.8,0.59,1.34c0,0.55-0.2,0.99-0.59,1.34s-0.91,0.52-1.54,0.52
	c-0.63,0-1.14-0.17-1.54-0.52C477.19,23.61,476.99,23.16,476.99,22.62z M481.07,38.12h-3.85V25.79h3.85V38.12z M486.95,25.79
	l0.13,1.45c0.85-1.12,2.02-1.67,3.52-1.67c1.28,0,2.24,0.38,2.88,1.15c0.63,0.77,0.96,1.92,0.99,3.46v7.94h-3.85v-7.78
	c0-0.62-0.12-1.08-0.38-1.37c-0.25-0.29-0.71-0.44-1.37-0.44c-0.75,0-1.31,0.3-1.67,0.89v8.7h-3.84V25.79H486.95z M496.13,31.86
	c0-1.25,0.21-2.35,0.62-3.3s1-1.69,1.77-2.22c0.77-0.52,1.66-0.78,2.68-0.78c1.28,0,2.29,0.43,3.01,1.3l0.14-1.07h3.49v11.86
	c0,1.09-0.25,2.03-0.76,2.83c-0.5,0.8-1.24,1.42-2.19,1.84c-0.96,0.43-2.07,0.64-3.33,0.64c-0.9,0-1.78-0.17-2.62-0.51
	c-0.85-0.34-1.49-0.79-1.94-1.33l1.61-2.26c0.71,0.84,1.66,1.26,2.82,1.26c1.7,0,2.55-0.87,2.55-2.62v-0.39
	c-0.74,0.81-1.67,1.22-2.79,1.22c-1.5,0-2.72-0.57-3.64-1.73c-0.93-1.15-1.39-2.69-1.39-4.62V31.86z M499.98,32.1
	c0,1.01,0.19,1.81,0.57,2.4s0.91,0.88,1.59,0.88c0.83,0,1.43-0.28,1.81-0.83v-5.18c-0.37-0.56-0.97-0.84-1.79-0.84
	c-0.68,0-1.22,0.31-1.61,0.92C500.18,30.05,499.98,30.94,499.98,32.1z M245.27,68.44c-0.14-0.25-0.26-0.62-0.36-1.1
	c-0.71,0.89-1.69,1.33-2.96,1.33c-1.16,0-2.15-0.35-2.96-1.05c-0.81-0.7-1.22-1.58-1.22-2.65c0-1.34,0.49-2.35,1.48-3.03
	c0.99-0.68,2.42-1.02,4.3-1.02h1.18v-0.65c0-1.14-0.49-1.71-1.47-1.71c-0.91,0-1.37,0.45-1.37,1.35h-3.84c0-1.19,0.51-2.16,1.52-2.9
	s2.31-1.11,3.88-1.11c1.57,0,2.81,0.38,3.72,1.15c0.91,0.77,1.38,1.82,1.4,3.15v5.46c0.01,1.13,0.19,2,0.52,2.6v0.19H245.27z
	 M242.87,65.93c0.48,0,0.88-0.1,1.19-0.31s0.54-0.44,0.68-0.69v-1.97h-1.12c-1.34,0-2,0.6-2,1.8c0,0.35,0.12,0.63,0.35,0.85
	S242.51,65.93,242.87,65.93z M254.76,68.44h-3.85V50.94h3.85V68.44z M263.08,68.66c-1.89,0-3.42-0.56-4.59-1.69
	c-1.17-1.13-1.75-2.59-1.75-4.4v-0.32c0-1.26,0.23-2.37,0.7-3.34c0.47-0.96,1.15-1.71,2.04-2.24c0.9-0.53,1.96-0.79,3.19-0.79
	c1.73,0,3.1,0.54,4.1,1.61c1,1.07,1.5,2.57,1.5,4.49v1.49h-7.63c0.14,0.69,0.44,1.23,0.9,1.63c0.46,0.4,1.06,0.59,1.8,0.59
	c1.21,0,2.16-0.42,2.85-1.28l1.75,2.07c-0.48,0.66-1.16,1.19-2.03,1.58C265.04,68.47,264.09,68.66,263.08,68.66z M262.65,58.85
	c-1.12,0-1.79,0.74-2,2.23h3.87v-0.3c0.01-0.61-0.14-1.09-0.47-1.43C263.73,59.02,263.26,58.85,262.65,58.85z M277.28,59.59
	l-1.26-0.09c-1.21,0-1.98,0.38-2.32,1.14v7.8h-3.84V56.11h3.6l0.13,1.58c0.64-1.21,1.54-1.81,2.7-1.81c0.41,0,0.77,0.05,1.07,0.14
	L277.28,59.59z M283.7,53.05v3.06h2.03v2.67h-2.03v5.64c0,0.46,0.08,0.79,0.25,0.97s0.5,0.27,0.99,0.27c0.38,0,0.7-0.02,0.96-0.07
	v2.74c-0.69,0.22-1.41,0.33-2.16,0.33c-1.32,0-2.3-0.31-2.93-0.93c-0.63-0.62-0.95-1.57-0.95-2.84v-6.12h-1.57v-2.67h1.57v-3.06
	H283.7z M293.69,64.97c0-0.33-0.17-0.59-0.51-0.79c-0.34-0.2-0.99-0.4-1.95-0.61c-0.96-0.21-1.75-0.49-2.37-0.84
	c-0.62-0.35-1.1-0.76-1.42-1.26s-0.49-1.06-0.49-1.7c0-1.13,0.47-2.06,1.4-2.8c0.93-0.73,2.16-1.1,3.67-1.1
	c1.62,0,2.93,0.37,3.92,1.1c0.99,0.74,1.48,1.7,1.48,2.9h-3.85c0-0.99-0.52-1.48-1.56-1.48c-0.4,0-0.74,0.11-1.01,0.34
	s-0.41,0.5-0.41,0.84c0,0.34,0.17,0.62,0.5,0.83s0.87,0.39,1.6,0.52c0.73,0.14,1.38,0.3,1.93,0.49c1.85,0.64,2.78,1.78,2.78,3.43
	c0,1.12-0.5,2.04-1.5,2.74c-1,0.71-2.29,1.06-3.88,1.06c-1.05,0-2-0.19-2.82-0.57c-0.83-0.38-1.47-0.9-1.94-1.55
	c-0.46-0.65-0.7-1.34-0.7-2.06h3.59c0.01,0.57,0.21,0.99,0.57,1.25c0.36,0.26,0.83,0.39,1.4,0.39c0.52,0,0.92-0.11,1.18-0.32
	C293.56,65.59,293.69,65.32,293.69,64.97z M300.53,72.9l-1.94-0.91l0.39-0.77c0.53-0.99,0.81-1.93,0.83-2.82v-2.85h3.08l-0.01,2.47
	c-0.01,0.87-0.23,1.76-0.67,2.67C301.77,71.58,301.21,72.32,300.53,72.9z M326.56,68.44h-15.04v-3.26l6.93-7.28
	c1.71-1.94,2.56-3.49,2.56-4.63c0-0.93-0.2-1.63-0.61-2.12c-0.41-0.48-0.99-0.73-1.76-0.73c-0.76,0-1.38,0.32-1.85,0.97
	c-0.47,0.65-0.71,1.45-0.71,2.42h-5c0-1.32,0.33-2.54,0.99-3.66s1.58-2,2.75-2.63s2.49-0.95,3.94-0.95c2.33,0,4.12,0.54,5.38,1.61
	c1.26,1.08,1.89,2.62,1.89,4.63c0,0.85-0.16,1.68-0.47,2.48c-0.32,0.8-0.81,1.65-1.47,2.53s-1.74,2.06-3.22,3.55l-2.78,3.21h8.48
	V68.44z M342.25,60.01h2.19v3.85h-2.19v4.57h-4.99v-4.57h-8.33l-0.3-3.05l8.63-13.89v-0.04h4.99V60.01z M333.39,60.01h3.88v-6.63
	l-0.31,0.5L333.39,60.01z M348.43,70.29h-3.54l7.36-23.41h3.55L348.43,70.29z M372.27,49.54l-8.05,18.89h-5.27l8.07-17.71h-10.28
	v-3.85h15.53V49.54z"/>
</svg>
