<?xml version="1.0" encoding="utf-8"?>
<!-- Generator: Adobe Illustrator 24.2.3, SVG Export Plug-In . SVG Version: 6.00 Build 0)  -->
<svg version="1.1" id="Layer_1" xmlns="http://www.w3.org/2000/svg" xmlns:xlink="http://www.w3.org/1999/xlink" x="0px" y="0px"
	 viewBox="0 0 728 90" style="enable-background:new 0 0 728 90;" xml:space="preserve">
<style type="text/css">
	.st0{fill:url(#SVGID_1_);}
</style>
<linearGradient id="SVGID_1_" gradientUnits="userSpaceOnUse" x1="237.8351" y1="46.2406" x2="486.1418" y2="46.2406">
	<stop  offset="0" style="stop-color:#18B9FB"/>
	<stop  offset="0.5" style="stop-color:#782EEB"/>
	<stop  offset="1" style="stop-color:#E82D8A"/>
</linearGradient>
<path class="st0" d="M251.36,29.55h-4.86v13.17h-3.9V29.55h-4.77v-3.01h13.53V29.55z M259.39,34.08L258.15,34
	c-1.18,0-1.93,0.37-2.27,1.11v7.61h-3.75V30.69h3.51l0.12,1.54c0.63-1.18,1.51-1.77,2.63-1.77c0.4,0,0.75,0.04,1.04,0.13
	L259.39,34.08z M267.18,42.72c-0.13-0.24-0.25-0.6-0.36-1.08c-0.69,0.87-1.65,1.3-2.89,1.3c-1.13,0-2.1-0.34-2.89-1.03
	c-0.79-0.69-1.19-1.55-1.19-2.58c0-1.3,0.48-2.29,1.44-2.96s2.36-1,4.2-1h1.16v-0.64c0-1.11-0.48-1.66-1.43-1.66
	c-0.89,0-1.33,0.44-1.33,1.32h-3.75c0-1.16,0.49-2.11,1.48-2.83c0.99-0.73,2.25-1.09,3.78-1.09s2.75,0.37,3.63,1.12
	c0.89,0.75,1.34,1.77,1.37,3.08V40c0.01,1.1,0.19,1.95,0.51,2.53v0.19H267.18z M264.83,40.28c0.47,0,0.85-0.1,1.16-0.3
	c0.31-0.2,0.53-0.43,0.66-0.68v-1.92h-1.09c-1.3,0-1.96,0.59-1.96,1.76c0,0.34,0.11,0.62,0.34,0.83S264.48,40.28,264.83,40.28z
	 M277.57,40.05c0.53,0,0.93-0.14,1.22-0.43c0.29-0.29,0.43-0.68,0.42-1.19h3.51c0,1.32-0.47,2.4-1.42,3.25
	c-0.94,0.84-2.16,1.27-3.65,1.27c-1.75,0-3.13-0.55-4.13-1.64c-1.01-1.1-1.51-2.62-1.51-4.56v-0.16c0-1.21,0.22-2.29,0.67-3.22
	c0.45-0.93,1.09-1.64,1.94-2.15c0.84-0.5,1.84-0.75,3-0.75c1.56,0,2.8,0.43,3.72,1.3s1.38,2.04,1.38,3.52h-3.51
	c0-0.62-0.15-1.1-0.46-1.43c-0.3-0.33-0.71-0.5-1.22-0.5c-0.97,0-1.54,0.62-1.7,1.86c-0.05,0.39-0.08,0.93-0.08,1.62
	c0,1.21,0.14,2.05,0.43,2.51C276.48,39.82,276.94,40.05,277.57,40.05z M289.14,38.24l-1.06,1.06v3.42h-3.75V25.64h3.75v9.07
	l0.38-0.5l2.82-3.51h4.49l-4.21,4.95l4.49,7.08h-4.29L289.14,38.24z M307.23,37.47l2-6.78h4.01l-4.9,14.04l-0.21,0.51
	c-0.7,1.56-1.93,2.33-3.69,2.33c-0.49,0-1-0.07-1.54-0.22v-2.67h0.49c0.53,0,0.93-0.08,1.21-0.23c0.28-0.15,0.48-0.42,0.62-0.82
	l0.3-0.8l-4.18-12.15h4L307.23,37.47z M313.58,36.6c0-1.2,0.23-2.27,0.7-3.21c0.47-0.94,1.14-1.66,2.01-2.16
	c0.87-0.5,1.9-0.76,3.08-0.76c1.8,0,3.22,0.56,4.26,1.67c1.04,1.11,1.56,2.63,1.56,4.55v0.13c0,1.87-0.52,3.36-1.56,4.46
	c-1.04,1.1-2.45,1.65-4.23,1.65c-1.71,0-3.09-0.51-4.12-1.54c-1.04-1.03-1.6-2.42-1.68-4.17L313.58,36.6z M317.33,36.83
	c0,1.11,0.17,1.93,0.52,2.45c0.35,0.52,0.86,0.78,1.54,0.78c1.33,0,2.02-1.03,2.05-3.08V36.6c0-2.16-0.69-3.23-2.07-3.23
	c-1.25,0-1.93,0.93-2.03,2.79L317.33,36.83z M334,41.42c-0.79,1.01-1.86,1.52-3.21,1.52c-1.32,0-2.32-0.38-3-1.15
	c-0.68-0.77-1.02-1.87-1.02-3.31v-7.79h3.75v7.81c0,1.03,0.5,1.54,1.5,1.54c0.86,0,1.47-0.31,1.83-0.92v-8.44h3.77v12.03h-3.51
	L334,41.42z M346.95,34.08L345.71,34c-1.18,0-1.93,0.37-2.27,1.11v7.61h-3.75V30.69h3.51l0.12,1.54c0.63-1.18,1.51-1.77,2.63-1.77
	c0.4,0,0.75,0.04,1.04,0.13L346.95,34.08z M359.05,40.05c0.53,0,0.93-0.14,1.22-0.43s0.43-0.68,0.42-1.19h3.51
	c0,1.32-0.47,2.4-1.42,3.25c-0.94,0.84-2.16,1.27-3.65,1.27c-1.75,0-3.13-0.55-4.13-1.64c-1.01-1.1-1.51-2.62-1.51-4.56v-0.16
	c0-1.21,0.22-2.29,0.67-3.22c0.45-0.93,1.09-1.64,1.94-2.15c0.84-0.5,1.84-0.75,3-0.75c1.56,0,2.8,0.43,3.72,1.3
	c0.92,0.87,1.38,2.04,1.38,3.52h-3.51c0-0.62-0.15-1.1-0.46-1.43c-0.3-0.33-0.71-0.5-1.22-0.5c-0.97,0-1.54,0.62-1.7,1.86
	c-0.05,0.39-0.08,0.93-0.08,1.62c0,1.21,0.14,2.05,0.43,2.51C357.96,39.82,358.42,40.05,359.05,40.05z M373.06,34.08L371.83,34
	c-1.18,0-1.93,0.37-2.27,1.11v7.61h-3.75V30.69h3.51l0.12,1.54c0.63-1.18,1.51-1.77,2.63-1.77c0.4,0,0.75,0.04,1.04,0.13
	L373.06,34.08z M380.02,42.94c-1.84,0-3.34-0.55-4.48-1.65c-1.14-1.1-1.71-2.53-1.71-4.3v-0.31c0-1.23,0.23-2.32,0.68-3.26
	c0.46-0.94,1.12-1.67,2-2.18c0.87-0.51,1.91-0.77,3.11-0.77c1.69,0,3.02,0.52,4,1.57c0.98,1.05,1.47,2.51,1.47,4.38v1.46h-7.45
	c0.13,0.67,0.43,1.2,0.88,1.59c0.45,0.39,1.04,0.58,1.76,0.58c1.19,0,2.11-0.41,2.78-1.24l1.71,2.02c-0.47,0.64-1.13,1.16-1.98,1.54
	C381.93,42.75,381.01,42.94,380.02,42.94z M379.6,33.36c-1.1,0-1.75,0.73-1.96,2.18h3.78v-0.29c0.01-0.6-0.14-1.06-0.46-1.39
	C380.65,33.53,380.19,33.36,379.6,33.36z M386.12,36.62c0-1.9,0.41-3.4,1.23-4.5c0.82-1.1,1.97-1.64,3.45-1.64
	c1.07,0,1.98,0.42,2.71,1.27v-6.09h3.76v17.07h-3.37l-0.19-1.29c-0.77,1.01-1.75,1.51-2.93,1.51c-1.43,0-2.56-0.55-3.4-1.64
	C386.54,40.2,386.12,38.64,386.12,36.62z M389.87,36.85c0,2.13,0.62,3.2,1.87,3.2c0.83,0,1.42-0.35,1.78-1.04v-4.58
	c-0.34-0.71-0.93-1.07-1.76-1.07c-1.16,0-1.78,0.93-1.88,2.8L389.87,36.85z M399.37,27.59c0-0.53,0.19-0.97,0.58-1.31
	c0.39-0.34,0.89-0.51,1.5-0.51s1.11,0.17,1.5,0.51c0.39,0.34,0.58,0.78,0.58,1.31c0,0.53-0.19,0.97-0.58,1.31
	c-0.39,0.34-0.89,0.51-1.5,0.51s-1.11-0.17-1.5-0.51C399.56,28.56,399.37,28.13,399.37,27.59z M403.35,42.72h-3.76V30.69h3.76V42.72
	z M410.02,27.71v2.99H412v2.6h-1.98v5.5c0,0.45,0.08,0.77,0.24,0.94s0.49,0.27,0.97,0.27c0.37,0,0.68-0.02,0.93-0.07v2.68
	c-0.67,0.21-1.38,0.32-2.11,0.32c-1.29,0-2.24-0.3-2.86-0.91s-0.92-1.53-0.92-2.77V33.3h-1.53v-2.6h1.53v-2.99H410.02z
	 M425.43,39.34c0-0.32-0.17-0.57-0.5-0.77s-0.97-0.39-1.9-0.6c-0.93-0.21-1.7-0.48-2.31-0.82c-0.61-0.34-1.07-0.75-1.39-1.23
	c-0.32-0.48-0.48-1.03-0.48-1.66c0-1.1,0.46-2.01,1.37-2.73s2.1-1.07,3.58-1.07c1.59,0,2.86,0.36,3.82,1.08
	c0.96,0.72,1.44,1.66,1.44,2.83h-3.76c0-0.96-0.51-1.44-1.52-1.44c-0.39,0-0.72,0.11-0.99,0.33c-0.27,0.22-0.4,0.49-0.4,0.82
	c0,0.33,0.16,0.6,0.49,0.81s0.85,0.38,1.56,0.51c0.71,0.13,1.34,0.29,1.88,0.48c1.81,0.62,2.71,1.74,2.71,3.35
	c0,1.1-0.49,1.99-1.46,2.68c-0.97,0.69-2.24,1.03-3.78,1.03c-1.03,0-1.95-0.19-2.76-0.56s-1.44-0.87-1.89-1.51
	c-0.45-0.64-0.68-1.31-0.68-2.01h3.5c0.01,0.56,0.2,0.96,0.56,1.22c0.36,0.26,0.81,0.38,1.37,0.38c0.51,0,0.89-0.1,1.15-0.31
	C425.31,39.95,425.43,39.68,425.43,39.34z M435.88,40.05c0.53,0,0.93-0.14,1.22-0.43s0.43-0.68,0.42-1.19h3.51
	c0,1.32-0.47,2.4-1.42,3.25c-0.94,0.84-2.16,1.27-3.65,1.27c-1.75,0-3.13-0.55-4.13-1.64c-1.01-1.1-1.51-2.62-1.51-4.56v-0.16
	c0-1.21,0.22-2.29,0.67-3.22s1.09-1.64,1.94-2.15c0.84-0.5,1.85-0.75,3-0.75c1.56,0,2.8,0.43,3.72,1.3s1.38,2.04,1.38,3.52h-3.51
	c0-0.62-0.15-1.1-0.46-1.43c-0.3-0.33-0.71-0.5-1.22-0.5c-0.97,0-1.54,0.62-1.7,1.86c-0.05,0.39-0.08,0.93-0.08,1.62
	c0,1.21,0.14,2.05,0.43,2.51S435.25,40.05,435.88,40.05z M442.15,36.6c0-1.2,0.23-2.27,0.7-3.21c0.47-0.94,1.14-1.66,2.01-2.16
	c0.87-0.5,1.9-0.76,3.08-0.76c1.8,0,3.22,0.56,4.26,1.67c1.04,1.11,1.56,2.63,1.56,4.55v0.13c0,1.87-0.52,3.36-1.56,4.46
	c-1.04,1.1-2.45,1.65-4.23,1.65c-1.71,0-3.09-0.51-4.12-1.54c-1.04-1.03-1.6-2.42-1.68-4.17L442.15,36.6z M445.9,36.83
	c0,1.11,0.17,1.93,0.52,2.45c0.35,0.52,0.86,0.78,1.54,0.78c1.33,0,2.02-1.03,2.05-3.08V36.6c0-2.16-0.69-3.23-2.07-3.23
	c-1.25,0-1.93,0.93-2.03,2.79L445.9,36.83z M462.68,34.08L461.45,34c-1.18,0-1.93,0.37-2.27,1.11v7.61h-3.75V30.69h3.51l0.12,1.54
	c0.63-1.18,1.51-1.77,2.63-1.77c0.4,0,0.75,0.04,1.04,0.13L462.68,34.08z M469.64,42.94c-1.85,0-3.34-0.55-4.48-1.65
	c-1.14-1.1-1.71-2.53-1.71-4.3v-0.31c0-1.23,0.23-2.32,0.68-3.26c0.46-0.94,1.12-1.67,2-2.18s1.91-0.77,3.11-0.77
	c1.69,0,3.02,0.52,4,1.57c0.98,1.05,1.47,2.51,1.47,4.38v1.46h-7.45c0.13,0.67,0.43,1.2,0.88,1.59c0.45,0.39,1.04,0.58,1.76,0.58
	c1.19,0,2.11-0.41,2.78-1.24l1.71,2.02c-0.47,0.64-1.13,1.16-1.98,1.54C471.54,42.75,470.62,42.94,469.64,42.94z M469.21,33.36
	c-1.1,0-1.75,0.73-1.96,2.18h3.78v-0.29c0.01-0.6-0.14-1.06-0.46-1.39C470.26,33.53,469.81,33.36,469.21,33.36z M482.51,39.34
	c0-0.32-0.17-0.57-0.5-0.77s-0.97-0.39-1.9-0.6c-0.93-0.21-1.7-0.48-2.31-0.82c-0.61-0.34-1.07-0.75-1.39-1.23
	c-0.32-0.48-0.48-1.03-0.48-1.66c0-1.1,0.46-2.01,1.37-2.73s2.1-1.07,3.58-1.07c1.59,0,2.86,0.36,3.82,1.08s1.44,1.66,1.44,2.83
	h-3.76c0-0.96-0.51-1.44-1.52-1.44c-0.39,0-0.72,0.11-0.99,0.33s-0.4,0.49-0.4,0.82c0,0.33,0.16,0.6,0.49,0.81
	c0.33,0.21,0.85,0.38,1.56,0.51c0.71,0.13,1.34,0.29,1.88,0.48c1.81,0.62,2.71,1.74,2.71,3.35c0,1.1-0.49,1.99-1.46,2.68
	c-0.97,0.69-2.24,1.03-3.78,1.03c-1.03,0-1.95-0.19-2.76-0.56s-1.44-0.87-1.89-1.51c-0.45-0.64-0.68-1.31-0.68-2.01h3.5
	c0.01,0.56,0.2,0.96,0.56,1.22c0.36,0.26,0.81,0.38,1.37,0.38c0.51,0,0.89-0.1,1.15-0.31C482.38,39.95,482.51,39.68,482.51,39.34z
	 M244.3,66.84c-1.84,0-3.34-0.55-4.48-1.65c-1.14-1.1-1.71-2.53-1.71-4.3v-0.31c0-1.23,0.23-2.32,0.68-3.26
	c0.46-0.94,1.12-1.67,2-2.18c0.87-0.51,1.91-0.77,3.11-0.77c1.69,0,3.02,0.52,4,1.57c0.98,1.05,1.47,2.51,1.47,4.38v1.46h-7.45
	c0.13,0.67,0.43,1.2,0.88,1.59s1.04,0.58,1.76,0.58c1.19,0,2.11-0.41,2.78-1.24l1.71,2.02c-0.47,0.64-1.13,1.16-1.98,1.54
	C246.21,66.65,245.29,66.84,244.3,66.84z M243.88,57.26c-1.1,0-1.75,0.73-1.96,2.18h3.78v-0.29c0.01-0.6-0.14-1.06-0.46-1.39
	C244.93,57.43,244.47,57.26,243.88,57.26z M257.65,66.62c-0.13-0.24-0.25-0.6-0.36-1.08c-0.69,0.87-1.65,1.3-2.89,1.3
	c-1.13,0-2.1-0.34-2.89-1.03c-0.79-0.69-1.19-1.55-1.19-2.58c0-1.3,0.48-2.29,1.44-2.96s2.36-1,4.2-1h1.16v-0.64
	c0-1.11-0.48-1.66-1.43-1.66c-0.89,0-1.33,0.44-1.33,1.32h-3.75c0-1.16,0.49-2.11,1.48-2.83c0.99-0.73,2.25-1.09,3.78-1.09
	c1.53,0,2.75,0.37,3.63,1.12c0.89,0.75,1.34,1.77,1.37,3.08v5.32c0.01,1.1,0.19,1.95,0.51,2.53v0.19H257.65z M255.31,64.18
	c0.47,0,0.85-0.1,1.16-0.3c0.31-0.2,0.53-0.43,0.66-0.68v-1.92h-1.09c-1.3,0-1.96,0.59-1.96,1.76c0,0.34,0.11,0.62,0.34,0.83
	C254.66,64.07,254.95,64.18,255.31,64.18z M268.04,63.95c0.53,0,0.93-0.14,1.22-0.43c0.29-0.29,0.43-0.68,0.42-1.19h3.51
	c0,1.32-0.47,2.4-1.42,3.25c-0.94,0.84-2.16,1.27-3.65,1.27c-1.75,0-3.13-0.55-4.13-1.64s-1.51-2.62-1.51-4.56v-0.16
	c0-1.21,0.22-2.29,0.67-3.22s1.09-1.64,1.94-2.15c0.84-0.5,1.85-0.75,3-0.75c1.56,0,2.8,0.43,3.72,1.3
	c0.92,0.87,1.38,2.04,1.38,3.52h-3.51c0-0.62-0.15-1.1-0.46-1.43c-0.3-0.33-0.71-0.5-1.22-0.5c-0.97,0-1.54,0.62-1.7,1.86
	c-0.05,0.39-0.08,0.93-0.08,1.62c0,1.21,0.14,2.05,0.43,2.51S267.41,63.95,268.04,63.95z M278.45,55.88
	c0.8-1.01,1.82-1.51,3.07-1.51c1.33,0,2.33,0.39,3,1.18c0.67,0.79,1.02,1.95,1.03,3.48v7.59h-3.76v-7.5c0-0.64-0.13-1.11-0.39-1.41
	c-0.26-0.3-0.7-0.45-1.32-0.45c-0.77,0-1.31,0.24-1.63,0.73v8.62h-3.75V49.55h3.75V55.88z M296.84,54.6l0.12,1.41
	c0.85-1.09,2-1.63,3.43-1.63c1.52,0,2.55,0.6,3.08,1.81c0.81-1.21,1.99-1.81,3.53-1.81c2.44,0,3.69,1.47,3.76,4.42v7.82h-3.76v-7.59
	c0-0.61-0.1-1.06-0.31-1.34c-0.21-0.28-0.59-0.42-1.13-0.42c-0.74,0-1.29,0.33-1.66,0.99l0.01,0.16v8.21h-3.76v-7.57
	c0-0.63-0.1-1.09-0.3-1.37c-0.2-0.28-0.58-0.42-1.14-0.42c-0.72,0-1.27,0.33-1.64,0.99v8.37h-3.75V54.6H296.84z M312.43,60.5
	c0-1.2,0.23-2.27,0.7-3.21c0.47-0.94,1.14-1.66,2.01-2.16c0.87-0.5,1.9-0.76,3.08-0.76c1.8,0,3.22,0.56,4.26,1.67
	c1.04,1.11,1.56,2.63,1.56,4.55v0.13c0,1.88-0.52,3.36-1.56,4.46c-1.04,1.1-2.45,1.65-4.23,1.65c-1.71,0-3.09-0.51-4.12-1.54
	c-1.04-1.03-1.6-2.42-1.68-4.17L312.43,60.5z M316.18,60.73c0,1.11,0.17,1.93,0.52,2.45c0.35,0.52,0.86,0.78,1.54,0.78
	c1.33,0,2.02-1.03,2.05-3.08V60.5c0-2.16-0.69-3.23-2.07-3.23c-1.25,0-1.93,0.93-2.03,2.79L316.18,60.73z M329.13,54.6l0.12,1.41
	c0.83-1.09,1.98-1.63,3.43-1.63c1.25,0,2.19,0.37,2.81,1.12c0.62,0.75,0.94,1.88,0.96,3.38v7.75h-3.76v-7.59
	c0-0.61-0.12-1.05-0.37-1.34c-0.24-0.29-0.69-0.43-1.33-0.43c-0.73,0-1.28,0.29-1.63,0.87v8.49h-3.75V54.6H329.13z M342.89,51.61
	v2.99h1.98v2.6h-1.98v5.5c0,0.45,0.08,0.77,0.24,0.94c0.16,0.18,0.49,0.27,0.97,0.27c0.37,0,0.68-0.02,0.93-0.07v2.68
	c-0.67,0.21-1.38,0.32-2.11,0.32c-1.29,0-2.24-0.3-2.86-0.91s-0.92-1.53-0.92-2.77V57.2h-1.53v-2.6h1.53v-2.99H342.89z M350,55.88
	c0.8-1.01,1.82-1.51,3.07-1.51c1.33,0,2.33,0.39,3,1.18c0.67,0.79,1.02,1.95,1.03,3.48v7.59h-3.76v-7.5c0-0.64-0.13-1.11-0.39-1.41
	c-0.26-0.3-0.7-0.45-1.32-0.45c-0.77,0-1.31,0.24-1.63,0.73v8.62h-3.75V49.55H350V55.88z"/>
</svg>
