<?xml version="1.0" encoding="utf-8"?>
<!-- Generator: Adobe Illustrator 24.2.3, SVG Export Plug-In . SVG Version: 6.00 Build 0)  -->
<svg version="1.1" id="Layer_1" xmlns="http://www.w3.org/2000/svg" xmlns:xlink="http://www.w3.org/1999/xlink" x="0px" y="0px"
	 viewBox="0 0 728 90" style="enable-background:new 0 0 728 90;" xml:space="preserve">
<style type="text/css">
	.st0{fill:#EDF4FD;}
	.st1{fill:#021D8B;}
</style>
<g>
	<path class="st0" d="M689.75,41.2H600.9c-6.57,0-11.9-5.33-11.9-11.9v0c0-6.57,5.33-11.9,11.9-11.9h88.84
		c6.57,0,11.9,5.33,11.9,11.9v0C701.64,35.88,696.32,41.2,689.75,41.2z"/>
</g>
<g>
	<path class="st1" d="M609.75,30.86c-0.05,0.75-0.33,1.34-0.83,1.78s-1.16,0.65-1.98,0.65c-0.9,0-1.6-0.3-2.11-0.91
		c-0.51-0.6-0.77-1.43-0.77-2.48v-0.43c0-0.67,0.12-1.26,0.36-1.78c0.24-0.51,0.58-0.91,1.02-1.18c0.44-0.27,0.95-0.41,1.53-0.41
		c0.81,0,1.46,0.22,1.95,0.65c0.49,0.43,0.78,1.04,0.85,1.82h-1.44c-0.04-0.45-0.16-0.78-0.38-0.98c-0.22-0.2-0.54-0.3-0.99-0.3
		c-0.48,0-0.84,0.17-1.08,0.52c-0.24,0.34-0.36,0.88-0.37,1.6v0.53c0,0.76,0.12,1.31,0.34,1.66c0.23,0.35,0.59,0.52,1.08,0.52
		c0.45,0,0.78-0.1,1-0.3c0.22-0.2,0.34-0.52,0.38-0.94H609.75z"/>
	<path class="st1" d="M612.07,33.19h-1.39v-7.37h1.39V33.19z"/>
	<path class="st1" d="M613.21,26.65c0-0.21,0.07-0.38,0.21-0.51c0.14-0.13,0.33-0.2,0.57-0.2c0.24,0,0.43,0.07,0.57,0.2
		s0.21,0.31,0.21,0.51c0,0.21-0.07,0.38-0.21,0.52c-0.14,0.13-0.33,0.2-0.56,0.2s-0.42-0.07-0.56-0.2S613.21,26.86,613.21,26.65z
		 M614.68,33.19h-1.39V28h1.39V33.19z"/>
	<path class="st1" d="M617.98,32.17c0.26,0,0.46-0.07,0.62-0.21c0.16-0.14,0.24-0.33,0.25-0.56h1.3c0,0.35-0.1,0.67-0.29,0.97
		s-0.45,0.52-0.78,0.68s-0.69,0.24-1.09,0.24c-0.74,0-1.33-0.24-1.76-0.71c-0.43-0.47-0.64-1.12-0.64-1.96v-0.09
		c0-0.8,0.21-1.44,0.64-1.92c0.42-0.48,1.01-0.72,1.75-0.72c0.65,0,1.17,0.19,1.56,0.55c0.39,0.37,0.59,0.86,0.6,1.48h-1.3
		c-0.01-0.27-0.09-0.49-0.25-0.66s-0.37-0.25-0.63-0.25c-0.32,0-0.57,0.12-0.73,0.35c-0.17,0.24-0.25,0.62-0.25,1.15v0.14
		c0,0.54,0.08,0.92,0.25,1.15S617.65,32.17,617.98,32.17z"/>
	<path class="st1" d="M622.84,31.11l-0.5,0.5v1.58h-1.39v-7.37h1.39v4.09l0.27-0.35l1.33-1.56h1.67l-1.88,2.17l2.04,3.03h-1.59
		L622.84,31.11z"/>
	<path class="st1" d="M630.31,26.72V28h0.89v1.02h-0.89v2.59c0,0.19,0.04,0.33,0.11,0.41c0.07,0.08,0.21,0.12,0.42,0.12
		c0.15,0,0.29-0.01,0.41-0.03v1.05c-0.27,0.08-0.55,0.12-0.84,0.12c-0.97,0-1.47-0.49-1.49-1.47v-2.8h-0.76V28h0.76v-1.28H630.31z"
		/>
	<path class="st1" d="M631.61,30.55c0-0.52,0.1-0.97,0.3-1.38s0.48-0.72,0.86-0.94c0.37-0.22,0.81-0.33,1.3-0.33
		c0.7,0,1.27,0.21,1.72,0.64c0.44,0.43,0.69,1.01,0.74,1.75l0.01,0.35c0,0.8-0.22,1.44-0.67,1.92c-0.45,0.48-1.04,0.72-1.79,0.72
		s-1.35-0.24-1.79-0.72s-0.67-1.13-0.67-1.96V30.55z M633,30.64c0,0.49,0.09,0.87,0.28,1.13s0.45,0.39,0.8,0.39
		c0.34,0,0.6-0.13,0.79-0.39c0.19-0.26,0.28-0.67,0.28-1.24c0-0.48-0.09-0.86-0.28-1.13c-0.19-0.27-0.45-0.4-0.8-0.4
		c-0.34,0-0.6,0.13-0.79,0.4C633.09,29.68,633,30.09,633,30.64z"/>
	<path class="st1" d="M641.3,33.19h-1.39v-7.37h1.39V33.19z"/>
	<path class="st1" d="M644.83,33.29c-0.76,0-1.38-0.23-1.86-0.7s-0.72-1.09-0.72-1.87v-0.13c0-0.52,0.1-0.99,0.3-1.4
		c0.2-0.41,0.49-0.73,0.86-0.95c0.37-0.22,0.79-0.33,1.27-0.33c0.71,0,1.27,0.22,1.68,0.67c0.41,0.45,0.61,1.08,0.61,1.91v0.57
		h-3.31c0.04,0.34,0.18,0.61,0.41,0.82c0.23,0.2,0.51,0.31,0.86,0.31c0.54,0,0.95-0.19,1.25-0.58l0.68,0.76
		c-0.21,0.29-0.49,0.52-0.85,0.69C645.66,33.21,645.26,33.29,644.83,33.29z M644.67,29.02c-0.28,0-0.5,0.09-0.67,0.28
		s-0.28,0.45-0.33,0.8h1.93v-0.11c-0.01-0.31-0.09-0.55-0.25-0.72C645.2,29.1,644.97,29.02,644.67,29.02z"/>
	<path class="st1" d="M650.77,33.19c-0.06-0.12-0.11-0.28-0.14-0.47c-0.34,0.37-0.77,0.56-1.31,0.56c-0.51,0-0.93-0.15-1.26-0.44
		c-0.33-0.29-0.5-0.67-0.5-1.11c0-0.55,0.2-0.97,0.61-1.27c0.41-0.29,1-0.44,1.77-0.45h0.64v-0.3c0-0.24-0.06-0.43-0.18-0.58
		s-0.32-0.22-0.58-0.22c-0.23,0-0.42,0.06-0.55,0.17c-0.13,0.11-0.2,0.27-0.2,0.46h-1.39c0-0.3,0.09-0.58,0.28-0.83
		c0.19-0.26,0.45-0.46,0.79-0.6c0.34-0.15,0.72-0.22,1.14-0.22c0.64,0,1.15,0.16,1.52,0.48c0.38,0.32,0.56,0.77,0.56,1.36v2.25
		c0,0.49,0.07,0.87,0.21,1.12v0.08H650.77z M649.62,32.23c0.2,0,0.39-0.05,0.57-0.14c0.17-0.09,0.3-0.21,0.38-0.37v-0.89h-0.52
		c-0.69,0-1.06,0.24-1.11,0.72l0,0.08c0,0.17,0.06,0.31,0.18,0.43C649.24,32.17,649.41,32.23,649.62,32.23z"/>
	<path class="st1" d="M655.95,29.3c-0.19-0.03-0.35-0.04-0.5-0.04c-0.52,0-0.87,0.18-1.03,0.53v3.4h-1.39V28h1.31l0.04,0.62
		c0.28-0.48,0.66-0.72,1.16-0.72c0.15,0,0.3,0.02,0.43,0.06L655.95,29.3z"/>
	<path class="st1" d="M657.89,28l0.04,0.6c0.37-0.46,0.87-0.7,1.49-0.7c0.55,0,0.96,0.16,1.23,0.48c0.27,0.32,0.41,0.81,0.41,1.45
		v3.36h-1.39v-3.32c0-0.29-0.06-0.51-0.19-0.64s-0.34-0.2-0.64-0.2c-0.39,0-0.68,0.17-0.88,0.5v3.66h-1.39V28H657.89z"/>
	<path class="st1" d="M665.87,28l0.04,0.58c0.37-0.45,0.87-0.68,1.49-0.68c0.67,0,1.13,0.26,1.38,0.79
		c0.36-0.53,0.88-0.79,1.56-0.79c0.56,0,0.98,0.16,1.26,0.49s0.41,0.82,0.41,1.48v3.32h-1.39v-3.31c0-0.29-0.06-0.51-0.17-0.65
		c-0.12-0.14-0.32-0.2-0.61-0.2c-0.42,0-0.7,0.2-0.86,0.6l0,3.57h-1.39v-3.31c0-0.3-0.06-0.52-0.18-0.65
		c-0.12-0.13-0.32-0.2-0.61-0.2c-0.39,0-0.68,0.16-0.85,0.49v3.67h-1.39V28H665.87z"/>
	<path class="st1" d="M672.86,30.55c0-0.52,0.1-0.97,0.3-1.38s0.48-0.72,0.86-0.94c0.37-0.22,0.81-0.33,1.3-0.33
		c0.7,0,1.27,0.21,1.72,0.64c0.44,0.43,0.69,1.01,0.74,1.75l0.01,0.35c0,0.8-0.22,1.44-0.67,1.92c-0.45,0.48-1.04,0.72-1.79,0.72
		s-1.35-0.24-1.79-0.72s-0.67-1.13-0.67-1.96V30.55z M674.25,30.64c0,0.49,0.09,0.87,0.28,1.13s0.45,0.39,0.8,0.39
		c0.34,0,0.6-0.13,0.79-0.39c0.19-0.26,0.28-0.67,0.28-1.24c0-0.48-0.09-0.86-0.28-1.13c-0.19-0.27-0.45-0.4-0.8-0.4
		c-0.34,0-0.6,0.13-0.79,0.4C674.34,29.68,674.25,30.09,674.25,30.64z"/>
	<path class="st1" d="M681.56,29.3c-0.19-0.03-0.36-0.04-0.5-0.04c-0.53,0-0.87,0.18-1.03,0.53v3.4h-1.39V28h1.31l0.04,0.62
		c0.28-0.48,0.66-0.72,1.16-0.72c0.15,0,0.3,0.02,0.43,0.06L681.56,29.3z"/>
	<path class="st1" d="M684.62,33.29c-0.76,0-1.38-0.23-1.86-0.7s-0.72-1.09-0.72-1.87v-0.13c0-0.52,0.1-0.99,0.3-1.4
		c0.2-0.41,0.49-0.73,0.86-0.95c0.37-0.22,0.79-0.33,1.27-0.33c0.71,0,1.27,0.22,1.68,0.67c0.41,0.45,0.61,1.08,0.61,1.91v0.57
		h-3.31c0.04,0.34,0.18,0.61,0.41,0.82c0.23,0.2,0.51,0.31,0.86,0.31c0.54,0,0.95-0.19,1.25-0.58l0.68,0.76
		c-0.21,0.29-0.49,0.52-0.85,0.69C685.44,33.21,685.05,33.29,684.62,33.29z M684.46,29.02c-0.28,0-0.5,0.09-0.67,0.28
		s-0.28,0.45-0.33,0.8h1.93v-0.11c-0.01-0.31-0.09-0.55-0.25-0.72C684.98,29.1,684.75,29.02,684.46,29.02z"/>
</g>
</svg>
