<svg id="Layer_1" xmlns="http://www.w3.org/2000/svg" viewBox="0 0 970 250"><style>.st0{fill:#fff}</style><path class="st0" d="M303.84 159.15c0-1.18-.29-2.12-.88-2.79-.58-.67-1.61-1.31-3.08-1.91-1.47-.6-2.83-1.21-4.07-1.82-1.25-.62-2.32-1.33-3.22-2.14-.9-.81-1.59-1.75-2.07-2.81-.48-1.07-.72-2.36-.72-3.87 0-2.54.86-4.62 2.57-6.27 1.71-1.64 3.99-2.6 6.84-2.87v-4.75h3.58v4.84c2.75.41 4.9 1.53 6.47 3.39 1.57 1.85 2.35 4.21 2.35 7.06H304c0-1.56-.3-2.76-.9-3.6-.6-.84-1.46-1.26-2.57-1.26-.99 0-1.76.31-2.31.93-.55.62-.82 1.48-.82 2.58 0 1.11.32 1.99.95 2.64.63.65 1.64 1.28 3.04 1.87s2.71 1.21 3.95 1.84c1.24.64 2.31 1.36 3.21 2.17.9.81 1.61 1.76 2.12 2.84s.77 2.38.77 3.89c0 2.57-.81 4.66-2.44 6.28s-3.84 2.57-6.65 2.84v4.52h-3.58v-4.55c-3.27-.35-5.78-1.47-7.53-3.37-1.75-1.9-2.62-4.4-2.62-7.51h7.58c0 1.71.38 3.01 1.14 3.91s1.83 1.34 3.23 1.34c1.02 0 1.82-.3 2.41-.91.57-.61.86-1.44.86-2.51zM315.88 151.83l2-16.76h19.15v5.9h-12.99l-.74 6.51c.54-.32 1.25-.6 2.13-.84s1.74-.36 2.58-.36c3.26 0 5.76.96 7.51 2.89 1.75 1.93 2.62 4.63 2.62 8.11 0 2.1-.47 4-1.41 5.71-.94 1.7-2.25 3.01-3.95 3.93-1.7.92-3.7 1.37-6.01 1.37-2.06 0-3.98-.42-5.78-1.27-1.8-.85-3.21-2.01-4.23-3.49-1.02-1.48-1.52-3.14-1.51-5h7.61c.08 1.2.46 2.15 1.15 2.85.69.7 1.6 1.06 2.72 1.06 2.55 0 3.83-1.89 3.83-5.66 0-3.49-1.56-5.23-4.68-5.23-1.77 0-3.09.57-3.96 1.71l-6.04-1.43zM360.44 134.6v5.96h-.34c-2.84 0-5.17.68-6.99 2.04-1.82 1.36-2.94 3.24-3.36 5.66 1.71-1.68 3.87-2.52 6.48-2.52 2.84 0 5.09 1.04 6.77 3.11s2.52 4.79 2.52 8.15c0 2.08-.49 4-1.47 5.74-.98 1.74-2.36 3.1-4.12 4.08-1.76.98-3.72 1.47-5.86 1.47-2.33 0-4.4-.53-6.23-1.59s-3.26-2.57-4.28-4.54c-1.02-1.96-1.55-4.23-1.58-6.8v-3.04c0-3.38.72-6.41 2.17-9.1 1.45-2.69 3.51-4.8 6.2-6.34 2.69-1.53 5.66-2.29 8.93-2.29h1.16zm-6.84 16.95c-1.01 0-1.85.23-2.52.7-.67.46-1.18 1.04-1.51 1.71v2.27c0 4.14 1.43 6.21 4.3 6.21 1.16 0 2.12-.52 2.89-1.55.77-1.04 1.16-2.33 1.16-3.89 0-1.61-.39-2.92-1.18-3.93-.79-1.02-1.83-1.52-3.14-1.52zM403.03 155.87c0 3.99-.83 7.06-2.48 9.21-1.65 2.15-3.98 3.22-6.98 3.22-2.48 0-4.47-.98-5.99-2.95l-.32 2.5h-6.8v-34.57h7.58v12.18c1.41-1.61 3.23-2.41 5.47-2.41 3.03 0 5.37 1.09 7.02 3.26 1.65 2.18 2.48 5.24 2.48 9.18v.38zm-7.61-.49c0-2.34-.31-4-.93-5-.62-1-1.58-1.49-2.87-1.49-1.71 0-2.9.65-3.56 1.96v9.66c.64 1.29 1.85 1.93 3.6 1.93 1.79 0 2.92-.87 3.4-2.61.24-.85.36-2.33.36-4.45zM406.31 137.21c0-1.08.39-1.96 1.17-2.66.78-.69 1.79-1.04 3.04-1.04s2.26.34 3.04 1.04 1.17 1.58 1.17 2.66-.39 1.97-1.17 2.66c-.78.69-1.79 1.04-3.04 1.04s-2.26-.35-3.04-1.04c-.78-.7-1.17-1.58-1.17-2.66zm8.06 30.63h-7.61v-24.35h7.61v24.35zM427.04 167.84h-7.61v-34.57h7.61v34.57zM439.71 167.84h-7.61v-34.57h7.61v34.57zM444.32 137.21c0-1.08.39-1.96 1.17-2.66.78-.69 1.79-1.04 3.04-1.04s2.26.34 3.04 1.04 1.17 1.58 1.17 2.66-.39 1.97-1.17 2.66c-.78.69-1.79 1.04-3.04 1.04s-2.26-.35-3.04-1.04c-.77-.7-1.17-1.58-1.17-2.66zm8.06 30.63h-7.61v-24.35h7.61v24.35zM456.1 155.44c0-2.43.47-4.59 1.42-6.49s2.3-3.36 4.07-4.38c1.77-1.02 3.85-1.53 6.23-1.53 3.65 0 6.52 1.13 8.62 3.39 2.1 2.26 3.15 5.33 3.15 9.22v.27c0 3.8-1.05 6.81-3.16 9.04-2.11 2.23-4.96 3.34-8.56 3.34-3.47 0-6.25-1.04-8.35-3.12s-3.23-4.9-3.4-8.45l-.02-1.29zm7.58.47c0 2.25.35 3.9 1.06 4.95.71 1.05 1.75 1.58 3.13 1.58 2.7 0 4.08-2.08 4.14-6.23v-.76c0-4.37-1.4-6.55-4.19-6.55-2.54 0-3.91 1.88-4.12 5.65l-.02 1.36zM489.9 143.49l.25 2.86c1.68-2.21 4-3.31 6.95-3.31 2.54 0 4.43.76 5.68 2.27 1.25 1.52 1.9 3.8 1.95 6.84v15.69h-7.61v-15.37c0-1.23-.25-2.13-.74-2.71-.5-.58-1.4-.87-2.7-.87-1.49 0-2.59.58-3.31 1.76v17.19h-7.58v-24.35h7.11zM520.35 137.21c0-1.08.39-1.96 1.17-2.66.78-.69 1.79-1.04 3.04-1.04s2.26.34 3.04 1.04 1.17 1.58 1.17 2.66-.39 1.97-1.17 2.66c-.78.69-1.79 1.04-3.04 1.04s-2.26-.35-3.04-1.04c-.78-.7-1.17-1.58-1.17-2.66zm8.06 30.63h-7.61v-24.35h7.61v24.35zM540.04 143.49l.25 2.86c1.68-2.21 4-3.31 6.95-3.31 2.54 0 4.43.76 5.68 2.27 1.25 1.52 1.9 3.8 1.95 6.84v15.69h-7.61v-15.37c0-1.23-.25-2.13-.74-2.71-.5-.58-1.4-.87-2.7-.87-1.49 0-2.59.58-3.31 1.76v17.19h-7.58v-24.35h7.11zM593.29 167.84h-22.87v-4.95l10.53-11.07c2.6-2.96 3.89-5.3 3.89-7.04 0-1.41-.31-2.48-.92-3.22s-1.51-1.1-2.68-1.1c-1.16 0-2.09.49-2.81 1.47-.72.98-1.08 2.21-1.08 3.68h-7.61c0-2.01.5-3.87 1.51-5.57 1-1.7 2.4-3.03 4.19-3.99 1.79-.96 3.78-1.44 5.99-1.44 3.54 0 6.27.82 8.18 2.45s2.87 3.98 2.87 7.04c0 1.29-.24 2.55-.72 3.77-.48 1.22-1.23 2.51-2.24 3.85-1.01 1.34-2.64 3.14-4.9 5.39l-4.23 4.88h12.9v5.85zM619.87 154.45c0 4.43-.99 7.84-2.98 10.24s-4.79 3.6-8.41 3.6c-3.65 0-6.47-1.21-8.46-3.62-2-2.42-2.99-5.82-2.99-10.22v-5.99c0-4.43.99-7.84 2.98-10.24 1.99-2.4 4.8-3.6 8.43-3.6s6.44 1.21 8.44 3.62c2 2.42 2.99 5.83 2.99 10.24v5.97zm-7.58-6.96c0-2.36-.31-4.11-.92-5.28s-1.59-1.74-2.93-1.74c-1.3 0-2.25.54-2.85 1.62s-.91 2.72-.96 4.91v8.37c0 2.45.31 4.24.92 5.37s1.59 1.7 2.93 1.7c1.29 0 2.24-.55 2.86-1.65s.93-2.83.95-5.19v-8.11zM646.68 167.84h-22.87v-4.95l10.53-11.07c2.6-2.96 3.89-5.3 3.89-7.04 0-1.41-.31-2.48-.92-3.22s-1.51-1.1-2.68-1.1c-1.16 0-2.09.49-2.81 1.47-.72.98-1.08 2.21-1.08 3.68h-7.61c0-2.01.5-3.87 1.51-5.57 1-1.7 2.4-3.03 4.19-3.99 1.79-.96 3.78-1.44 5.99-1.44 3.54 0 6.27.82 8.18 2.45s2.87 3.98 2.87 7.04c0 1.29-.24 2.55-.72 3.77-.48 1.22-1.23 2.51-2.24 3.85-1.01 1.34-2.64 3.14-4.9 5.39l-4.23 4.88h12.9v5.85zM673.26 154.45c0 4.43-.99 7.84-2.98 10.24s-4.79 3.6-8.41 3.6c-3.65 0-6.47-1.21-8.46-3.62-2-2.42-2.99-5.82-2.99-10.22v-5.99c0-4.43.99-7.84 2.98-10.24 1.99-2.4 4.8-3.6 8.43-3.6s6.44 1.21 8.44 3.62c2 2.42 2.99 5.83 2.99 10.24v5.97zm-7.59-6.96c0-2.36-.31-4.11-.92-5.28s-1.59-1.74-2.93-1.74c-1.3 0-2.25.54-2.85 1.62s-.91 2.72-.96 4.91v8.37c0 2.45.31 4.24.92 5.37s1.59 1.7 2.93 1.7c1.29 0 2.24-.55 2.86-1.65s.93-2.83.95-5.19v-8.11zM679.81 139.94l-4.28-1.18.85-2.48 4.19 1.72-.33-4.61h2.81l-.34 4.71 4.07-1.68.85 2.5-4.33 1.18 2.87 3.48-2.27 1.55-2.4-3.86-2.42 3.73-2.27-1.48 3-3.58z"/></svg>