<svg id="Layer_1" xmlns="http://www.w3.org/2000/svg" viewBox="0 0 970 250"><style>.st0{fill:#fff}</style><path class="st0" d="M131 68.53h-9.22v22.86h-7.41V68.53h-9.05V63.3H131v5.23zM128.51 80.76c0-2.08.44-3.94 1.33-5.56a9.032 9.032 0 0 1 3.82-3.75c1.66-.88 3.61-1.31 5.85-1.31 3.42 0 6.11.97 8.08 2.9 1.97 1.94 2.95 4.57 2.95 7.9v.23c0 3.25-.99 5.83-2.97 7.75-1.98 1.91-4.65 2.86-8.03 2.86-3.25 0-5.86-.89-7.83-2.67-1.97-1.78-3.03-4.2-3.19-7.24l-.01-1.11zm7.11.41c0 1.93.33 3.34.99 4.24.66.9 1.64 1.35 2.93 1.35 2.53 0 3.83-1.78 3.88-5.34v-.66c0-3.74-1.31-5.61-3.93-5.61-2.38 0-3.67 1.61-3.86 4.84l-.01 1.18zM161.96 65.33v5.19h3.76v4.51h-3.76v9.55c0 .79.15 1.33.46 1.64s.92.46 1.84.46c.7 0 1.29-.04 1.77-.12v4.65c-1.28.37-2.62.56-4.01.56-2.45 0-4.26-.53-5.42-1.58-1.17-1.05-1.75-2.66-1.75-4.8V75.03h-2.91v-4.51h2.91v-5.19h7.11zM181.38 91.39c-.25-.42-.48-1.05-.67-1.87-1.31 1.5-3.14 2.26-5.49 2.26-2.15 0-3.98-.59-5.49-1.78-1.51-1.19-2.26-2.68-2.26-4.49 0-2.26.91-3.97 2.74-5.13s4.49-1.74 7.98-1.74h2.19v-1.1c0-1.93-.91-2.89-2.72-2.89-1.69 0-2.53.76-2.53 2.29h-7.11c0-2.02.94-3.65 2.82-4.91s4.27-1.89 7.19-1.89c2.91 0 5.21.65 6.9 1.95s2.55 3.08 2.6 5.34v9.24c.03 1.92.35 3.38.97 4.4v.33h-7.12zm-4.45-4.24c.89 0 1.62-.17 2.21-.52.58-.35 1-.74 1.26-1.18v-3.34h-2.07c-2.48 0-3.71 1.02-3.71 3.05 0 .59.22 1.07.65 1.44.43.37.98.55 1.66.55zM198.96 91.39h-7.13V61.76h7.13v29.63zM223.76 86.76c1 0 1.77-.25 2.32-.74.55-.5.82-1.19.8-2.07h6.67c0 2.29-.9 4.17-2.69 5.63s-4.11 2.2-6.93 2.2c-3.32 0-5.94-.95-7.85-2.85-1.91-1.9-2.87-4.54-2.87-7.91v-.27c0-2.11.42-3.97 1.28-5.58a8.86 8.86 0 0 1 3.68-3.72c1.6-.87 3.5-1.3 5.7-1.3 2.97 0 5.33.75 7.07 2.26 1.75 1.5 2.62 3.54 2.62 6.11h-6.67c0-1.08-.29-1.91-.87-2.49-.58-.58-1.35-.87-2.32-.87-1.84 0-2.92 1.07-3.23 3.22-.1.68-.15 1.62-.15 2.82 0 2.1.27 3.55.82 4.36s1.43 1.2 2.62 1.2zM235.67 80.76c0-2.08.44-3.94 1.33-5.56a9.032 9.032 0 0 1 3.82-3.75c1.66-.88 3.61-1.31 5.85-1.31 3.42 0 6.11.97 8.08 2.9 1.97 1.94 2.96 4.57 2.96 7.9v.23c0 3.25-.99 5.83-2.96 7.75-1.98 1.91-4.65 2.86-8.03 2.86-3.25 0-5.86-.89-7.83-2.67-1.97-1.78-3.03-4.2-3.19-7.24l-.03-1.11zm7.11.41c0 1.93.33 3.34.99 4.24s1.64 1.35 2.93 1.35c2.53 0 3.83-1.78 3.88-5.34v-.66c0-3.74-1.31-5.61-3.93-5.61-2.38 0-3.67 1.61-3.86 4.84l-.01 1.18zM267.56 70.52l.23 2.45c1.62-1.89 3.79-2.83 6.52-2.83 2.88 0 4.83 1.05 5.85 3.14 1.55-2.1 3.78-3.14 6.71-3.14 4.63 0 7.01 2.56 7.13 7.68V91.4h-7.13V78.22c0-1.07-.2-1.85-.59-2.33s-1.11-.73-2.15-.73c-1.41 0-2.46.57-3.15 1.72l.02.27V91.4h-7.13V78.26c0-1.09-.19-1.88-.57-2.37-.38-.49-1.11-.73-2.17-.73-1.36 0-2.41.57-3.12 1.72v14.53h-7.11V70.52h6.66zM319.27 81.13c0 3.42-.77 6.05-2.32 7.89-1.55 1.84-3.73 2.76-6.54 2.76-2.32 0-4.19-.84-5.61-2.53l-.3 2.14h-6.37V61.76h7.11V72.2c1.32-1.38 3.03-2.06 5.13-2.06 2.84 0 5.04.93 6.58 2.8 1.55 1.86 2.32 4.49 2.32 7.87v.32zm-7.14-.41c0-2-.29-3.43-.88-4.28s-1.48-1.28-2.69-1.28c-1.6 0-2.72.56-3.33 1.68v8.28c.6 1.1 1.73 1.66 3.38 1.66 1.67 0 2.74-.74 3.19-2.23.22-.75.33-2.02.33-3.83zM322.35 65.14c0-.93.37-1.68 1.1-2.28s1.68-.89 2.85-.89 2.12.3 2.85.89c.73.59 1.1 1.35 1.1 2.28 0 .93-.37 1.68-1.1 2.28-.73.59-1.68.89-2.85.89s-2.12-.3-2.85-.89c-.74-.6-1.1-1.36-1.1-2.28zm7.55 26.25h-7.13V70.52h7.13v20.87zM340.82 70.52l.23 2.45c1.58-1.89 3.75-2.83 6.52-2.83 2.38 0 4.15.65 5.33 1.95 1.17 1.3 1.78 3.25 1.83 5.86V91.4h-7.13V78.22c0-1.05-.23-1.83-.7-2.32-.46-.5-1.31-.74-2.53-.74-1.39 0-2.43.5-3.1 1.5V91.4h-7.11V70.52h6.66zM369.71 91.78c-3.5 0-6.34-.96-8.5-2.86-2.17-1.91-3.25-4.39-3.25-7.46v-.54c0-2.13.43-4.02 1.3-5.65.87-1.63 2.13-2.9 3.79-3.79 1.66-.89 3.63-1.34 5.91-1.34 3.21 0 5.74.91 7.6 2.73 1.86 1.82 2.79 4.36 2.79 7.61V83h-14.14c.25 1.17.81 2.09 1.67 2.76.86.67 1.97 1 3.33 1 2.25 0 4.01-.72 5.28-2.16l3.25 3.51c-.89 1.12-2.14 2.01-3.77 2.67s-3.39 1-5.26 1zm-.8-16.63c-2.08 0-3.32 1.26-3.71 3.78h7.18v-.5c.03-1.04-.26-1.85-.87-2.42-.61-.57-1.48-.86-2.6-.86zM381.3 80.8c0-3.3.78-5.91 2.34-7.81s3.74-2.85 6.54-2.85c2.04 0 3.76.73 5.15 2.2V61.76h7.13v29.63h-6.39l-.36-2.24c-1.46 1.75-3.32 2.62-5.57 2.62-2.71 0-4.87-.95-6.46-2.85s-2.38-4.61-2.38-8.12zm7.11.41c0 3.7 1.18 5.55 3.55 5.55 1.58 0 2.7-.6 3.38-1.81V77c-.65-1.23-1.76-1.85-3.33-1.85-2.19 0-3.38 1.62-3.57 4.86l-.03 1.2zM418.84 91.39V75.03h-3.31v-4.51h3.31v-1.66c0-2.38.77-4.22 2.3-5.54 1.53-1.31 3.69-1.97 6.46-1.97 1.01 0 2.12.13 3.33.41l.02 4.78c-.44-.12-1.02-.17-1.75-.17-2.15 0-3.23.85-3.23 2.55v1.6h4.45v4.51h-4.45v16.36h-7.13zM446.75 76.4l-2.34-.15c-2.24 0-3.67.64-4.31 1.93v13.21h-7.11V70.52h6.67l.23 2.68c1.2-2.04 2.86-3.07 5-3.07.76 0 1.42.08 1.98.23l-.12 6.04zM461.54 91.39c-.25-.42-.48-1.05-.67-1.87-1.31 1.5-3.14 2.26-5.49 2.26-2.15 0-3.98-.59-5.49-1.78s-2.26-2.68-2.26-4.49c0-2.26.91-3.97 2.74-5.13s4.49-1.74 7.98-1.74h2.19v-1.1c0-1.93-.91-2.89-2.72-2.89-1.69 0-2.53.76-2.53 2.29h-7.11c0-2.02.94-3.65 2.82-4.91 1.88-1.26 4.27-1.89 7.19-1.89 2.91 0 5.21.65 6.9 1.95s2.55 3.08 2.6 5.34v9.24c.03 1.92.35 3.38.97 4.4v.33h-7.12zm-4.45-4.24c.89 0 1.62-.17 2.21-.52.58-.35 1-.74 1.26-1.18v-3.34h-2.07c-2.48 0-3.71 1.02-3.71 3.05 0 .59.22 1.07.65 1.44.43.37.98.55 1.66.55zM485.22 89.14c-1.51 1.76-3.54 2.64-6.1 2.64-2.5 0-4.4-.67-5.69-2s-1.93-3.24-1.93-5.74V70.52h7.11v13.56c0 1.79.95 2.68 2.85 2.68 1.63 0 2.79-.53 3.48-1.6V70.52h7.15v20.87h-6.67l-.2-2.25zM495.1 80.8c0-3.3.78-5.91 2.34-7.81s3.74-2.85 6.54-2.85c2.04 0 3.76.73 5.15 2.2V61.76h7.13v29.63h-6.39l-.36-2.24c-1.46 1.75-3.32 2.62-5.57 2.62-2.71 0-4.87-.95-6.46-2.85s-2.38-4.61-2.38-8.12zm7.11.41c0 3.7 1.18 5.55 3.55 5.55 1.58 0 2.7-.6 3.38-1.81V77c-.65-1.23-1.76-1.85-3.33-1.85-2.19 0-3.38 1.62-3.57 4.86l-.03 1.2zM538.58 91.39h-7.13V61.76h7.13v29.63zM542.06 80.76c0-2.08.44-3.94 1.33-5.56a9.032 9.032 0 0 1 3.82-3.75c1.66-.88 3.61-1.31 5.85-1.31 3.42 0 6.11.97 8.08 2.9 1.97 1.94 2.96 4.57 2.96 7.9v.23c0 3.25-.99 5.83-2.96 7.75-1.98 1.91-4.65 2.86-8.03 2.86-3.25 0-5.86-.89-7.83-2.67-1.97-1.78-3.03-4.2-3.19-7.24l-.03-1.11zm7.11.41c0 1.93.33 3.34.99 4.24s1.64 1.35 2.93 1.35c2.53 0 3.83-1.78 3.88-5.34v-.66c0-3.74-1.31-5.61-3.93-5.61-2.38 0-3.67 1.61-3.86 4.84l-.01 1.18zM579.19 85.53c0-.55-.32-1-.95-1.33-.63-.33-1.84-.68-3.61-1.04-1.77-.36-3.24-.83-4.39-1.42s-2.03-1.3-2.64-2.13c-.61-.84-.91-1.79-.91-2.87 0-1.92.87-3.49 2.6-4.74 1.73-1.24 4-1.86 6.8-1.86 3.01 0 5.43.62 7.26 1.87s2.74 2.89 2.74 4.92h-7.13c0-1.67-.96-2.51-2.89-2.51-.75 0-1.37.19-1.88.57-.51.38-.76.85-.76 1.42 0 .58.31 1.05.93 1.41.62.36 1.61.66 2.96.89 1.36.23 2.55.51 3.58.83 3.43 1.08 5.15 3.02 5.15 5.81 0 1.9-.93 3.45-2.78 4.65-1.85 1.2-4.25 1.79-7.19 1.79-1.96 0-3.7-.32-5.23-.96-1.53-.64-2.73-1.52-3.59-2.62-.86-1.11-1.29-2.27-1.29-3.49h6.65c.03.96.38 1.67 1.06 2.11.68.44 1.54.67 2.6.67.97 0 1.7-.18 2.18-.54.48-.38.73-.85.73-1.43zM601.33 85.53c0-.55-.32-1-.95-1.33-.63-.33-1.84-.68-3.61-1.04-1.77-.36-3.24-.83-4.39-1.42s-2.03-1.3-2.64-2.13c-.61-.84-.91-1.79-.91-2.87 0-1.92.87-3.49 2.6-4.74 1.73-1.24 4-1.86 6.8-1.86 3.01 0 5.43.62 7.26 1.87s2.74 2.89 2.74 4.92h-7.13c0-1.67-.96-2.51-2.89-2.51-.75 0-1.37.19-1.88.57-.51.38-.76.85-.76 1.42 0 .58.31 1.05.93 1.41.62.36 1.61.66 2.96.89 1.36.23 2.55.51 3.58.83 3.43 1.08 5.15 3.02 5.15 5.81 0 1.9-.93 3.45-2.78 4.65-1.85 1.2-4.25 1.79-7.19 1.79-1.96 0-3.7-.32-5.23-.96-1.53-.64-2.73-1.52-3.59-2.62-.86-1.11-1.29-2.27-1.29-3.49h6.65c.03.96.38 1.67 1.06 2.11.68.44 1.54.67 2.6.67.97 0 1.7-.18 2.18-.54.48-.38.73-.85.73-1.43zM622.56 91.78c-3.5 0-6.34-.96-8.5-2.86-2.17-1.91-3.25-4.39-3.25-7.46v-.54c0-2.13.43-4.02 1.3-5.65.87-1.63 2.13-2.9 3.79-3.79 1.66-.89 3.63-1.34 5.91-1.34 3.21 0 5.74.91 7.6 2.73 1.86 1.82 2.79 4.36 2.79 7.61V83h-14.14c.25 1.17.81 2.09 1.67 2.76.86.67 1.97 1 3.33 1 2.25 0 4.01-.72 5.28-2.16l3.25 3.51c-.89 1.12-2.14 2.01-3.77 2.67s-3.39 1-5.26 1zm-.8-16.63c-2.08 0-3.32 1.26-3.71 3.78h7.18v-.5c.03-1.04-.26-1.85-.87-2.42-.61-.57-1.48-.86-2.6-.86zM647 85.53c0-.55-.32-1-.95-1.33-.63-.33-1.84-.68-3.61-1.04-1.77-.36-3.24-.83-4.39-1.42s-2.03-1.3-2.64-2.13c-.61-.84-.91-1.79-.91-2.87 0-1.92.87-3.49 2.6-4.74 1.73-1.24 4-1.86 6.8-1.86 3.01 0 5.43.62 7.26 1.87s2.74 2.89 2.74 4.92h-7.13c0-1.67-.96-2.51-2.89-2.51-.75 0-1.37.19-1.88.57-.51.38-.76.85-.76 1.42 0 .58.31 1.05.93 1.41.62.36 1.61.66 2.96.89 1.36.23 2.55.51 3.58.83 3.43 1.08 5.15 3.02 5.15 5.81 0 1.9-.93 3.45-2.78 4.65-1.85 1.2-4.25 1.79-7.19 1.79-1.96 0-3.7-.32-5.23-.96-1.53-.64-2.73-1.52-3.59-2.62-.86-1.11-1.29-2.27-1.29-3.49h6.65c.03.96.38 1.67 1.06 2.11.68.44 1.54.67 2.6.67.97 0 1.7-.18 2.18-.54.49-.38.73-.85.73-1.43zM677.6 86.76c1 0 1.77-.25 2.32-.74.55-.5.82-1.19.8-2.07h6.67c0 2.29-.9 4.17-2.69 5.63s-4.11 2.2-6.93 2.2c-3.32 0-5.94-.95-7.85-2.85-1.91-1.9-2.87-4.54-2.87-7.91v-.27c0-2.11.42-3.97 1.28-5.58a8.86 8.86 0 0 1 3.68-3.72c1.6-.87 3.5-1.3 5.7-1.3 2.97 0 5.33.75 7.07 2.26 1.75 1.5 2.62 3.54 2.62 6.11h-6.67c0-1.08-.29-1.91-.87-2.49-.58-.58-1.35-.87-2.32-.87-1.84 0-2.92 1.07-3.23 3.22-.1.68-.15 1.62-.15 2.82 0 2.1.27 3.55.82 4.36s1.43 1.2 2.62 1.2zM697.91 91.39h-7.13V61.76h7.13v29.63zM702.23 65.14c0-.93.37-1.68 1.1-2.28s1.68-.89 2.85-.89 2.12.3 2.85.89c.73.59 1.1 1.35 1.1 2.28 0 .93-.37 1.68-1.1 2.28-.73.59-1.68.89-2.85.89s-2.12-.3-2.85-.89c-.73-.6-1.1-1.36-1.1-2.28zm7.56 26.25h-7.13V70.52h7.13v20.87zM720.89 70.52l.23 2.45c1.62-1.89 3.79-2.83 6.52-2.83 2.88 0 4.83 1.05 5.85 3.14 1.55-2.1 3.78-3.14 6.71-3.14 4.63 0 7.01 2.56 7.13 7.68V91.4h-7.13V78.22c0-1.07-.2-1.85-.59-2.33s-1.11-.73-2.15-.73c-1.41 0-2.46.57-3.15 1.72l.02.27V91.4h-7.13V78.26c0-1.09-.19-1.88-.57-2.37-.38-.49-1.11-.73-2.17-.73-1.36 0-2.41.57-3.12 1.72v14.53h-7.11V70.52h6.66zM772.6 81.13c0 3.42-.77 6.05-2.32 7.89-1.55 1.84-3.73 2.76-6.54 2.76-2.32 0-4.19-.84-5.61-2.53l-.3 2.14h-6.37V61.76h7.11V72.2c1.32-1.38 3.03-2.06 5.13-2.06 2.84 0 5.04.93 6.58 2.8 1.55 1.86 2.32 4.49 2.32 7.87v.32zm-7.13-.41c0-2-.29-3.43-.88-4.28s-1.48-1.28-2.69-1.28c-1.6 0-2.72.56-3.33 1.68v8.28c.6 1.1 1.73 1.66 3.38 1.66 1.67 0 2.74-.74 3.19-2.23.21-.75.33-2.02.33-3.83zM786.78 91.78c-3.5 0-6.34-.96-8.5-2.86-2.17-1.91-3.25-4.39-3.25-7.46v-.54c0-2.13.43-4.02 1.3-5.65.87-1.63 2.13-2.9 3.79-3.79 1.66-.89 3.63-1.34 5.91-1.34 3.21 0 5.74.91 7.6 2.73 1.86 1.82 2.79 4.36 2.79 7.61V83h-14.14c.25 1.17.81 2.09 1.67 2.76.86.67 1.97 1 3.33 1 2.25 0 4.01-.72 5.28-2.16l3.25 3.51c-.89 1.12-2.14 2.01-3.77 2.67s-3.39 1-5.26 1zm-.8-16.63c-2.08 0-3.32 1.26-3.71 3.78h7.18v-.5c.03-1.04-.26-1.85-.87-2.42-.61-.57-1.47-.86-2.6-.86zM798.37 80.8c0-3.3.78-5.91 2.34-7.81s3.74-2.85 6.54-2.85c2.04 0 3.76.73 5.15 2.2V61.76h7.13v29.63h-6.39l-.36-2.24c-1.46 1.75-3.32 2.62-5.57 2.62-2.71 0-4.87-.95-6.46-2.85s-2.38-4.61-2.38-8.12zm7.11.41c0 3.7 1.18 5.55 3.55 5.55 1.58 0 2.7-.6 3.38-1.81V77c-.65-1.23-1.76-1.85-3.33-1.85-2.19 0-3.38 1.62-3.57 4.86l-.03 1.2zM842.63 65.33v5.19h3.76v4.51h-3.76v9.55c0 .79.16 1.33.46 1.64.31.31.92.46 1.84.46.7 0 1.29-.04 1.77-.12v4.65c-1.28.37-2.62.56-4.01.56-2.45 0-4.26-.53-5.42-1.58-1.17-1.05-1.75-2.66-1.75-4.8V75.03h-2.91v-4.51h2.91v-5.19h7.11zM847.65 80.76c0-2.08.44-3.94 1.33-5.56a9.032 9.032 0 0 1 3.82-3.75c1.66-.88 3.61-1.31 5.85-1.31 3.42 0 6.11.97 8.08 2.9 1.97 1.94 2.96 4.57 2.96 7.9v.23c0 3.25-.99 5.83-2.96 7.75-1.98 1.91-4.65 2.86-8.03 2.86-3.25 0-5.86-.89-7.83-2.67-1.97-1.78-3.03-4.2-3.19-7.24l-.03-1.11zm7.11.41c0 1.93.33 3.34.99 4.24s1.64 1.35 2.93 1.35c2.53 0 3.83-1.78 3.88-5.34v-.66c0-3.74-1.31-5.61-3.93-5.61-2.38 0-3.67 1.61-3.86 4.84l-.01 1.18z"/></svg>