<svg id="Layer_1" xmlns="http://www.w3.org/2000/svg" viewBox="0 0 970 250"><style>.st0{fill:#fff}</style><g id="PG_x5F_Logo_x5F_Full_4_"><path class="st0" d="M844.51 222.65v1.42c0 1.12-.91 2.03-2.03 2.03-.36 0-.71-.1-1.02-.28a.698.698 0 0 1-.25-.95c.19-.33.62-.44.95-.25.1.06.21.09.32.09.36 0 .65-.29.65-.65v-1.42c0-.38.31-.69.69-.69s.69.32.69.7zm-4.68 2.79a.707.707 0 0 0-.94-.3c-.34.18-.47.6-.3.94a4.337 4.337 0 0 0 3.87 2.36c2.4 0 4.36-1.95 4.36-4.36v-1.42c0-.38-.31-.69-.69-.69-.38 0-.69.31-.69.69v1.42a2.97 2.97 0 0 1-2.97 2.97c-1.11 0-2.12-.62-2.64-1.61zm2.44-23.02c-3.57.11-6.48 3.16-6.48 6.8v14.85c0 1.82.72 3.52 2.03 4.79a6.634 6.634 0 0 0 4.65 1.89h.2c3.57-.11 6.48-3.16 6.48-6.8v-1.14c0-1.76-1.43-3.18-3.18-3.18h-2.16c-.38 0-.69.31-.69.69 0 .38.31.69.69.69h2.16c.99 0 1.79.8 1.79 1.79v1.14c0 2.9-2.3 5.33-5.13 5.42-1.44.04-2.81-.49-3.84-1.49a5.234 5.234 0 0 1-1.61-3.79v-14.85c0-2.9 2.3-5.33 5.13-5.42 1.44-.05 2.81.49 3.84 1.49a5.234 5.234 0 0 1 1.61 3.79v8.72c0 .38.31.69.69.69.38 0 .69-.31.69-.69v-8.72c0-1.82-.72-3.52-2.03-4.79-1.29-1.27-3.02-1.93-4.84-1.88zm4.56 11.91v-5.23c0-2.4-1.95-4.36-4.36-4.36-2.4 0-4.36 1.95-4.36 4.36v.8c0 .38.31.69.69.69s.69-.31.69-.69v-.8a2.97 2.97 0 0 1 5.94 0v5.23a2.97 2.97 0 0 1-2.97 2.97c-.37 0-.74-.07-1.08-.21a.715.715 0 0 0-.65.07c-.19.13-.3.34-.3.57v4.74a.47.47 0 1 1-.94 0v-10.21c0-.38-.31-.69-.69-.69s-.69.31-.69.69v10.21c0 1.02.83 1.86 1.86 1.86 1.02 0 1.86-.83 1.86-1.86v-3.84c.21.03.43.05.65.05 2.4.01 4.35-1.95 4.35-4.35zm4.65-5.08v14.82c0 2.44-.96 4.73-2.72 6.44a8.917 8.917 0 0 1-6.28 2.56h-.22c-4.84-.11-8.79-4.22-8.79-9.16V209.1c0-2.44.96-4.73 2.72-6.44a8.92 8.92 0 0 1 6.5-2.56c4.84.11 8.79 4.22 8.79 9.15zm-1.39 11.15v-11.15c0-4.19-3.33-7.67-7.43-7.77-2.07-.05-4.02.72-5.5 2.17a7.564 7.564 0 0 0-2.3 5.44v14.82c0 4.19 3.33 7.67 7.43 7.77 2.07.05 4.02-.72 5.5-2.17a7.564 7.564 0 0 0 2.3-5.44v-3.67zm-9.65-6.07v-5.23c0-1.12.91-2.03 2.03-2.03 1.12 0 2.03.91 2.03 2.03v5.23c0 1.12-.91 2.03-2.03 2.03-1.12 0-2.03-.91-2.03-2.03zm1.39 0c0 .36.29.64.64.64.36 0 .65-.29.65-.64v-5.23c0-.36-.29-.65-.65-.65a.64.64 0 0 0-.64.65v5.23zM874.26 213.29c.14.13.21.3.21.5v7.73c0 .2-.07.36-.2.5-.14.14-.3.2-.5.2-.18 0-.35-.07-.49-.2a.657.657 0 0 1-.21-.5v-7.73a.686.686 0 0 1 .7-.7c.19-.01.35.06.49.2zm-.49-3.44c-.2 0-.36.07-.5.2-.13.14-.2.3-.2.5v.53c0 .2.07.36.21.5.14.14.3.2.49.2a.686.686 0 0 0 .7-.7v-.53c0-.2-.07-.36-.21-.5-.14-.14-.3-.2-.49-.2zm-2.46 3.52c-.25-.07-.58-.13-1-.16-.76 0-1.42.21-1.98.63a.676.676 0 0 0-.66-.55c-.19 0-.35.07-.49.2-.13.13-.2.29-.2.49V221.54c0 .19.07.35.21.49.14.13.3.2.48.2.19 0 .35-.07.49-.2.13-.13.2-.29.2-.49v-5.15c.01-.25.07-.49.16-.7.1-.22.23-.4.4-.57.17-.16.37-.29.59-.39.22-.1.46-.14.73-.14.34 0 .65.08.95.25.12.08.26.13.41.13a.663.663 0 0 0 .69-.68c0-.25-.1-.45-.31-.58-.2-.16-.42-.26-.67-.34zm11.48-.31c-.31 0-.52.14-.64.42l-2.72 6.35-2.72-6.35a.681.681 0 0 0-.27-.31.73.73 0 0 0-.38-.11c-.21 0-.37.07-.5.22-.12.15-.18.31-.18.48 0 .1.02.19.06.28l3.35 7.82c.11.28.32.42.64.42.29 0 .51-.14.64-.42l3.35-7.82c.04-.09.06-.18.06-.28 0-.17-.06-.33-.18-.48a.687.687 0 0 0-.51-.22zm7.29 1.97c.18.4.27.83.27 1.29v5.19c0 .2-.07.36-.21.5-.14.14-.3.2-.49.2-.17 0-.32-.05-.45-.16a.59.59 0 0 1-.23-.4c-.56.42-1.21.63-1.95.63a3.34 3.34 0 0 1-3.07-2.03c-.18-.4-.27-.83-.27-1.29v-2.65c0-.45.09-.88.26-1.29.17-.4.41-.76.72-1.06.31-.3.66-.54 1.06-.71.4-.17.83-.26 1.3-.26a3.34 3.34 0 0 1 2.35.97c.29.32.53.67.71 1.07zm-1.13 1.29c0-.26-.05-.5-.16-.74-.1-.23-.24-.44-.41-.62-.17-.18-.38-.32-.62-.41a1.919 1.919 0 0 0-1.49 0c-.23.1-.44.24-.62.41-.18.18-.32.38-.41.62-.1.23-.15.48-.15.74v2.65c0 .26.05.5.16.74.1.23.24.44.41.62.17.18.38.32.62.41.24.1.49.15.75.15s.5-.05.74-.14c.23-.09.44-.22.61-.39a1.902 1.902 0 0 0 .58-1.3v-2.74zm4.23-.74c.1-.23.24-.44.41-.62.18-.18.38-.32.62-.41.23-.1.48-.15.75-.15.38 0 .73.1 1.05.31.32.21.56.5.74.86.05.14.13.24.25.32.12.08.25.12.4.12a.686.686 0 0 0 .7-.7c0-.07-.02-.16-.06-.26-.2-.49-.44-.87-.75-1.15-.3-.28-.6-.48-.91-.62-.31-.13-.59-.22-.84-.25s-.42-.05-.51-.05c-.47 0-.9.09-1.32.26-.41.17-.77.4-1.09.7-.31.29-.56.64-.74 1.05-.18.4-.27.84-.27 1.31v2.65c0 .45.09.88.27 1.29.18.4.42.76.72 1.06.3.3.65.54 1.06.71.4.17.83.26 1.29.26.01 0 .13-.01.36-.02.23-.01.5-.08.83-.2.32-.12.66-.32 1-.61.34-.28.64-.69.88-1.23.04-.09.06-.17.06-.26 0-.18-.07-.35-.2-.49a.672.672 0 0 0-.5-.21c-.15 0-.28.04-.39.12-.11.08-.2.19-.26.32-.16.37-.4.66-.72.86-.32.21-.67.31-1.07.31-.26 0-.51-.05-.75-.15-.24-.1-.44-.24-.62-.41a2.03 2.03 0 0 1-.41-.62c-.1-.23-.16-.48-.16-.74v-2.65c.03-.23.08-.47.18-.71zm29.76-2.5c-.2 0-.36.07-.5.2s-.2.3-.2.5v5.19c0 .26-.05.5-.16.74-.1.23-.24.44-.41.62-.17.18-.38.32-.62.41-.24.1-.49.15-.75.15-.27 0-.52-.05-.75-.15-.23-.1-.44-.24-.62-.41-.18-.18-.32-.38-.41-.62-.1-.23-.15-.48-.15-.74v-5.19c0-.2-.07-.36-.21-.5-.14-.13-.3-.2-.49-.2-.2 0-.36.07-.5.2s-.2.3-.2.5v5.19c0 .45.09.88.26 1.29.17.4.41.76.72 1.06.31.3.66.54 1.06.71.4.17.83.26 1.3.26a3.34 3.34 0 0 0 3.07-2.03c.18-.4.27-.83.27-1.29v-5.19c0-.2-.07-.36-.21-.5a.738.738 0 0 0-.5-.2zm8.4 1.95c.18.4.27.83.27 1.29v5.19c0 .2-.07.36-.21.5-.14.14-.3.2-.49.2-.17 0-.32-.05-.45-.16a.59.59 0 0 1-.23-.4c-.56.42-1.21.63-1.95.63a3.34 3.34 0 0 1-3.07-2.03c-.18-.4-.27-.83-.27-1.29v-2.65c0-.45.09-.88.26-1.29.17-.4.41-.76.72-1.06.31-.3.66-.54 1.06-.71.4-.17.83-.26 1.3-.26a3.34 3.34 0 0 1 2.35.97c.29.32.53.67.71 1.07zm-1.13 1.29c0-.26-.05-.5-.16-.74-.1-.23-.24-.44-.41-.62-.17-.18-.38-.32-.62-.41a1.919 1.919 0 0 0-1.49 0c-.23.1-.44.24-.62.41-.18.18-.32.38-.41.62-.1.23-.15.48-.15.74v2.65c0 .26.05.5.16.74.1.23.24.44.41.62.17.18.38.32.62.41.24.1.49.15.75.15s.5-.05.74-.14c.23-.09.44-.22.61-.39a1.902 1.902 0 0 0 .58-1.3v-2.74zm7.08-2.95c-.25-.07-.58-.13-1-.16-.76 0-1.42.21-1.98.63a.676.676 0 0 0-.66-.55c-.19 0-.35.07-.49.2-.13.13-.2.29-.2.49V221.54c0 .19.07.35.21.49.14.13.3.2.48.2.19 0 .35-.07.49-.2.13-.13.2-.29.2-.49v-5.15c.01-.25.07-.49.16-.7.1-.22.23-.4.4-.57.17-.16.37-.29.59-.39.22-.1.46-.14.73-.14.34 0 .65.08.95.25.12.08.26.13.41.13a.663.663 0 0 0 .69-.68c0-.25-.1-.45-.31-.58-.19-.16-.42-.26-.67-.34zm7.83-3.32c.14.14.21.3.21.5V221.52c0 .2-.07.36-.2.5-.14.14-.3.2-.5.2-.19 0-.35-.07-.49-.2a.667.667 0 0 1-.19-.36c-.2.15-.42.28-.66.38-.4.17-.83.26-1.29.26-.47 0-.9-.09-1.3-.26s-.75-.41-1.06-.71c-.31-.3-.55-.65-.72-1.06-.17-.4-.26-.83-.26-1.29v-2.65c0-.45.09-.88.27-1.29.18-.4.42-.76.72-1.06.3-.3.65-.54 1.06-.71a3.267 3.267 0 0 1 2.31-.09c.32.11.63.26.91.46v-3.09a.686.686 0 0 1 .7-.7c.18 0 .35.06.49.2zm-1.34 9.66c.09-.2.13-.41.15-.63v-2.87c-.01-.21-.05-.42-.14-.62-.1-.23-.24-.44-.41-.62-.18-.18-.38-.32-.62-.41-.23-.1-.48-.15-.75-.15-.26 0-.51.05-.75.15-.24.1-.44.24-.62.41-.17.18-.31.38-.41.62-.1.23-.16.48-.16.74v2.65c0 .26.05.5.15.74.1.23.24.44.41.62.18.18.38.32.62.41.23.1.48.15.75.15.26 0 .51-.05.74-.15.24-.1.44-.24.62-.41.17-.2.31-.4.42-.63zm-38.47-6.63c-.2 0-.36.07-.5.2s-.2.3-.2.5v5.19c0 .26-.05.5-.16.74-.1.23-.24.44-.41.62-.17.18-.38.32-.62.41-.24.1-.49.15-.75.15-.27 0-.52-.05-.75-.15-.23-.1-.44-.24-.62-.41-.18-.18-.32-.38-.41-.62-.1-.23-.15-.48-.15-.74v-5.19c0-.2-.07-.36-.21-.5-.14-.13-.3-.2-.49-.2-.2 0-.36.07-.5.2s-.2.3-.2.5v5.19c0 .45.09.88.26 1.29.17.4.41.76.72 1.06.31.3.66.54 1.06.71.4.17.83.26 1.3.26.45 0 .88-.09 1.29-.26.23-.1.44-.23.64-.37v1.75a1.902 1.902 0 0 1-.58 1.3c-.18.17-.38.3-.61.4-.23.1-.48.15-.75.15-.34 0-.67-.09-.97-.26a.677.677 0 0 0-.42-.13c-.2 0-.36.06-.5.19-.13.13-.2.3-.2.51 0 .26.1.46.31.6.21.14.44.25.69.32.25.07.59.13 1.02.17.77 0 1.45-.21 2.02-.64.88-.62 1.38-1.53 1.38-2.54v-4.49-5.19c0-.2-.07-.36-.21-.5a.606.606 0 0 0-.48-.22zm9.71 2.96h-2.91c-.39 0-.71.3-.71.68 0 .39.32.71.71.71h2.32v1.1c0 1.5-1.36 2.63-2.79 2.63-1.59 0-2.92-1.08-2.92-2.92v-4.19c0-1.71 1.29-2.92 2.87-2.92 1.34 0 2.36.89 2.76 2 .13.23.32.37.63.37.54 0 .89-.44.62-1.07-.45-1.35-1.82-2.73-4.01-2.73-2.51 0-4.32 1.99-4.32 4.27v4.36c0 2.3 1.81 4.28 4.32 4.28 2.26 0 4.17-1.77 4.17-3.78v-2.1c0-.43-.34-.69-.74-.69zm-49.49-3.13c.23.52.34 1.07.34 1.65 0 .59-.11 1.14-.34 1.65a4.324 4.324 0 0 1-2.28 2.25c-.52.22-1.08.33-1.66.33h-2.09v2.73c0 .19-.07.35-.2.49a.69.69 0 0 1-.97 0 .635.635 0 0 1-.21-.49v-10.51c0-.19.07-.35.2-.49.13-.13.29-.2.49-.2h2.77c.59 0 1.14.11 1.66.33.52.22.97.52 1.36.9.39.39.7.84.93 1.36zm-1.02 1.65c0-.4-.08-.77-.23-1.12-.16-.35-.37-.65-.63-.91s-.57-.46-.93-.61c-.35-.15-.73-.22-1.12-.22h-2.09v5.72h2.09c.41 0 .79-.07 1.14-.22.35-.15.66-.35.93-.61.26-.26.47-.56.62-.91.14-.35.22-.72.22-1.12zm81.52-4.44h.26v.78h.22v-.78h.26v-.18h-.74v.18zm1.83-.18h-.28l-.1.32c-.03.11-.06.23-.09.35a4.18 4.18 0 0 0-.08-.34l-.09-.32h-.29l-.06.96h.2l.02-.37c.01-.12.01-.27.02-.4.02.13.06.26.09.38l.1.37h.17l.12-.38c.04-.11.08-.25.11-.37 0 .14 0 .28.01.4l.01.37h.21l-.07-.97z"/></g></svg>