<?xml version="1.0" encoding="utf-8"?>
<!-- Generator: Adobe Illustrator 24.2.3, SVG Export Plug-In . SVG Version: 6.00 Build 0)  -->
<svg version="1.1" id="Layer_1" xmlns="http://www.w3.org/2000/svg" xmlns:xlink="http://www.w3.org/1999/xlink" x="0px" y="0px"
	 viewBox="0 0 320 468" style="enable-background:new 0 0 320 468;" xml:space="preserve">
<style type="text/css">
	.st0{fill:#EDF4FD;}
</style>
<g>
	<path class="st0" d="M94.95,28.98l3.29,9.28l3.27-9.28h3.46v12.8h-2.65v-3.5l0.26-6.04l-3.45,9.54h-1.81l-3.45-9.53l0.26,6.03v3.5
		h-2.64v-12.8H94.95z"/>
	<path class="st0" d="M110.66,38.18l1.76-5.92h2.72l-3.82,10.99l-0.21,0.5c-0.57,1.24-1.51,1.86-2.81,1.86
		c-0.37,0-0.74-0.06-1.12-0.17v-1.92l0.39,0.01c0.48,0,0.84-0.07,1.08-0.22s0.42-0.39,0.56-0.73l0.3-0.78l-3.33-9.54h2.73
		L110.66,38.18z"/>
	<path class="st0" d="M120.61,29.81c0-0.38,0.13-0.69,0.38-0.94s0.6-0.37,1.04-0.37c0.43,0,0.78,0.12,1.04,0.37s0.39,0.56,0.39,0.94
		c0,0.39-0.13,0.7-0.39,0.95s-0.6,0.37-1.03,0.37S121.26,31,121,30.76S120.61,30.19,120.61,29.81z M123.31,41.78h-2.55v-9.51h2.55
		V41.78z"/>
	<path class="st0" d="M125,36.95c0-1.48,0.33-2.66,1-3.54s1.57-1.32,2.73-1.32c0.93,0,1.69,0.35,2.29,1.04v-4.85h2.55v13.5h-2.29
		l-0.12-1.01c-0.63,0.79-1.45,1.19-2.44,1.19c-1.12,0-2.02-0.44-2.69-1.32S125,38.52,125,36.95z M127.54,37.14
		c0,0.89,0.16,1.58,0.47,2.05c0.31,0.48,0.76,0.71,1.35,0.71c0.79,0,1.34-0.33,1.66-0.99v-3.76c-0.32-0.66-0.86-0.99-1.64-0.99
		C128.15,34.16,127.54,35.15,127.54,37.14z"/>
	<path class="st0" d="M139.92,41.95c-1.39,0-2.53-0.43-3.41-1.28s-1.31-2-1.31-3.42V37c0-0.96,0.18-1.81,0.55-2.56
		s0.89-1.33,1.57-1.74s1.45-0.61,2.32-0.61c1.3,0,2.32,0.41,3.07,1.23s1.12,1.98,1.12,3.49v1.04h-6.06
		c0.08,0.62,0.33,1.12,0.74,1.49s0.94,0.56,1.57,0.56c0.98,0,1.74-0.35,2.29-1.06l1.25,1.4c-0.38,0.54-0.9,0.96-1.55,1.26
		S140.71,41.95,139.92,41.95z M139.63,34.14c-0.5,0-0.91,0.17-1.23,0.51s-0.51,0.83-0.6,1.47h3.53v-0.2c-0.01-0.56-0.16-1-0.46-1.31
		S140.17,34.14,139.63,34.14z"/>
	<path class="st0" d="M147.61,32.27l0.08,1.1c0.68-0.85,1.59-1.27,2.73-1.27c1.01,0,1.76,0.3,2.25,0.89s0.74,1.48,0.76,2.65v6.14
		h-2.54V35.7c0-0.54-0.12-0.93-0.35-1.17s-0.62-0.36-1.17-0.36c-0.71,0-1.25,0.3-1.61,0.91v6.71h-2.54v-9.51H147.61z"/>
	<path class="st0" d="M158.39,29.93v2.34h1.63v1.86h-1.63v4.75c0,0.35,0.07,0.6,0.2,0.76s0.39,0.23,0.77,0.23
		c0.28,0,0.53-0.02,0.75-0.06v1.92c-0.5,0.15-1.01,0.23-1.54,0.23c-1.78,0-2.69-0.9-2.72-2.7v-5.12h-1.39v-1.86h1.39v-2.34H158.39z"
		/>
	<path class="st0" d="M161.41,29.81c0-0.38,0.13-0.69,0.38-0.94s0.6-0.37,1.04-0.37c0.43,0,0.78,0.12,1.04,0.37s0.39,0.56,0.39,0.94
		c0,0.39-0.13,0.7-0.39,0.95s-0.6,0.37-1.03,0.37s-0.77-0.12-1.03-0.37S161.41,30.19,161.41,29.81z M164.11,41.78h-2.55v-9.51h2.55
		V41.78z"/>
	<path class="st0" d="M169.25,29.93v2.34h1.63v1.86h-1.63v4.75c0,0.35,0.07,0.6,0.2,0.76s0.39,0.23,0.77,0.23
		c0.28,0,0.53-0.02,0.75-0.06v1.92c-0.5,0.15-1.01,0.23-1.54,0.23c-1.78,0-2.69-0.9-2.72-2.7v-5.12h-1.39v-1.86h1.39v-2.34H169.25z"
		/>
	<path class="st0" d="M175.84,38.18l1.76-5.92h2.72l-3.82,10.99l-0.21,0.5c-0.57,1.24-1.51,1.86-2.81,1.86
		c-0.37,0-0.74-0.06-1.12-0.17v-1.92l0.39,0.01c0.48,0,0.84-0.07,1.08-0.22s0.42-0.39,0.56-0.73l0.3-0.78l-3.33-9.54h2.73
		L175.84,38.18z"/>
	<path class="st0" d="M189.76,39.91c0.47,0,0.85-0.13,1.14-0.39s0.45-0.6,0.46-1.03h2.38c-0.01,0.64-0.18,1.23-0.53,1.77
		s-0.82,0.95-1.42,1.25s-1.26,0.44-1.99,0.44c-1.36,0-2.43-0.43-3.22-1.3s-1.18-2.06-1.18-3.58v-0.17c0-1.46,0.39-2.63,1.17-3.51
		s1.85-1.31,3.21-1.31c1.19,0,2.14,0.34,2.86,1.02s1.08,1.58,1.09,2.7h-2.38c-0.01-0.49-0.16-0.9-0.46-1.21s-0.68-0.46-1.16-0.46
		c-0.59,0-1.04,0.22-1.34,0.65s-0.45,1.13-0.45,2.1v0.26c0,0.98,0.15,1.68,0.45,2.11C188.7,39.69,189.15,39.91,189.76,39.91z"/>
	<path class="st0" d="M200.7,41.78c-0.12-0.23-0.2-0.51-0.25-0.85c-0.62,0.69-1.42,1.03-2.4,1.03c-0.93,0-1.7-0.27-2.32-0.81
		s-0.92-1.22-0.92-2.04c0-1.01,0.37-1.78,1.12-2.32s1.83-0.81,3.24-0.82h1.17v-0.54c0-0.44-0.11-0.79-0.34-1.05s-0.58-0.4-1.07-0.4
		c-0.43,0-0.76,0.1-1.01,0.31s-0.36,0.49-0.36,0.84h-2.54c0-0.55,0.17-1.06,0.51-1.53s0.82-0.84,1.44-1.1s1.32-0.4,2.09-0.4
		c1.17,0,2.1,0.29,2.79,0.88s1.03,1.42,1.03,2.48v4.12c0.01,0.9,0.13,1.58,0.38,2.05v0.15H200.7z M198.6,40.01
		c0.38,0,0.72-0.08,1.04-0.25s0.55-0.39,0.7-0.67v-1.63h-0.95c-1.27,0-1.95,0.44-2.03,1.32l-0.01,0.15c0,0.32,0.11,0.58,0.33,0.78
		S198.21,40.01,198.6,40.01z"/>
	<path class="st0" d="M207.18,32.27l0.08,1.1c0.68-0.85,1.59-1.27,2.73-1.27c1.01,0,1.76,0.3,2.25,0.89s0.74,1.48,0.76,2.65v6.14
		h-2.54V35.7c0-0.54-0.12-0.93-0.35-1.17s-0.62-0.36-1.17-0.36c-0.71,0-1.25,0.3-1.61,0.91v6.71h-2.54v-9.51H207.18z"/>
	<path class="st0" d="M215.05,40.53c0-0.4,0.14-0.73,0.41-0.98s0.61-0.38,1.02-0.38c0.42,0,0.76,0.13,1.03,0.38s0.41,0.58,0.41,0.98
		c0,0.4-0.13,0.72-0.4,0.97s-0.62,0.37-1.04,0.37c-0.42,0-0.76-0.12-1.03-0.37S215.05,40.93,215.05,40.53z"/>
	<path class="st0" d="M220.28,40.53c0-0.4,0.14-0.73,0.41-0.98s0.61-0.38,1.02-0.38c0.42,0,0.76,0.13,1.03,0.38s0.41,0.58,0.41,0.98
		c0,0.4-0.13,0.72-0.4,0.97s-0.62,0.37-1.04,0.37c-0.42,0-0.76-0.12-1.03-0.37S220.28,40.93,220.28,40.53z"/>
	<path class="st0" d="M225.51,40.53c0-0.4,0.14-0.73,0.41-0.98s0.61-0.38,1.02-0.38c0.42,0,0.76,0.13,1.03,0.38s0.41,0.58,0.41,0.98
		c0,0.4-0.13,0.72-0.4,0.97s-0.62,0.37-1.04,0.37c-0.42,0-0.76-0.12-1.03-0.37S225.51,40.93,225.51,40.53z"/>
</g>
</svg>
