<?xml version="1.0" encoding="utf-8"?>
<!-- Generator: Adobe Illustrator 24.2.3, SVG Export Plug-In . SVG Version: 6.00 Build 0)  -->
<svg version="1.1" id="Layer_1" xmlns="http://www.w3.org/2000/svg" xmlns:xlink="http://www.w3.org/1999/xlink" x="0px" y="0px"
	 viewBox="0 0 728 90" style="enable-background:new 0 0 728 90;" xml:space="preserve">
<style type="text/css">
	.st0{fill:#001B91;}
</style>
<g>
	<path class="st0" d="M315.52,24.51c-0.48,0.69-1.15,1.21-2.02,1.55s-1.87,0.51-3.01,0.51c-1.16,0-2.19-0.27-3.09-0.82
		s-1.59-1.32-2.08-2.32s-0.74-2.17-0.76-3.49v-1.24c0-2.14,0.5-3.8,1.5-4.98c1-1.18,2.4-1.77,4.21-1.77c1.48,0,2.68,0.38,3.58,1.14
		s1.46,1.83,1.66,3.23h-1.88c-0.35-1.89-1.47-2.83-3.36-2.83c-1.26,0-2.21,0.44-2.86,1.32s-0.98,2.16-0.98,3.84v1.16
		c0,1.6,0.36,2.87,1.09,3.81s1.72,1.41,2.96,1.41c0.7,0,1.32-0.08,1.85-0.23c0.53-0.16,0.96-0.42,1.31-0.79v-3.19h-3.29V19.3h5.16
		V24.51z"/>
	<path class="st0" d="M322.75,26.57c-1.43,0-2.6-0.47-3.5-1.41s-1.35-2.2-1.35-3.77v-0.33c0-1.05,0.2-1.98,0.6-2.81
		s0.96-1.47,1.68-1.93s1.5-0.7,2.34-0.7c1.37,0,2.44,0.45,3.2,1.36s1.14,2.2,1.14,3.89v0.75h-7.16c0.03,1.04,0.33,1.88,0.91,2.52
		s1.32,0.96,2.22,0.96c0.64,0,1.18-0.13,1.62-0.39s0.83-0.61,1.16-1.04l1.1,0.86C325.85,25.89,324.52,26.57,322.75,26.57z
		 M322.53,17.1c-0.73,0-1.34,0.27-1.84,0.8s-0.8,1.27-0.92,2.23h5.29v-0.14c-0.05-0.92-0.3-1.63-0.74-2.13S323.28,17.1,322.53,17.1z
		"/>
	<path class="st0" d="M331.41,13.25v2.56h1.97v1.4h-1.97v6.56c0,0.42,0.09,0.74,0.26,0.95s0.48,0.32,0.9,0.32
		c0.21,0,0.49-0.04,0.86-0.12v1.46c-0.48,0.13-0.94,0.19-1.39,0.19c-0.81,0-1.42-0.24-1.83-0.73s-0.62-1.18-0.62-2.08v-6.55h-1.92
		v-1.4h1.92v-2.56H331.41z"/>
	<path class="st0" d="M342.6,20.81v5.57h-1.88V12.16h5.24c1.56,0,2.77,0.4,3.66,1.19c0.88,0.79,1.32,1.85,1.32,3.15
		c0,1.38-0.43,2.44-1.29,3.19s-2.1,1.12-3.71,1.12H342.6z M342.6,19.28h3.37c1,0,1.77-0.24,2.3-0.71s0.8-1.16,0.8-2.05
		c0-0.85-0.27-1.53-0.8-2.04s-1.27-0.77-2.2-0.79h-3.48V19.28z"/>
	<path class="st0" d="M358.17,17.43c-0.27-0.05-0.57-0.07-0.89-0.07c-1.19,0-1.99,0.5-2.41,1.51v7.5h-1.81V15.81h1.76l0.03,1.22
		c0.59-0.94,1.43-1.42,2.52-1.42c0.35,0,0.62,0.05,0.8,0.14V17.43z"/>
	<path class="st0" d="M359.84,13.01c0-0.29,0.09-0.54,0.27-0.74s0.44-0.3,0.8-0.3s0.62,0.1,0.8,0.3s0.27,0.45,0.27,0.74
		s-0.09,0.54-0.27,0.73s-0.45,0.29-0.8,0.29s-0.62-0.1-0.8-0.29S359.84,13.3,359.84,13.01z M361.79,26.38h-1.81V15.81h1.81V26.38z"
		/>
	<path class="st0" d="M368.17,23.93l2.62-8.12h1.85l-3.79,10.57h-1.38l-3.83-10.57h1.85L368.17,23.93z"/>
	<path class="st0" d="M380.75,26.38c-0.1-0.21-0.19-0.58-0.25-1.11c-0.84,0.87-1.84,1.31-3.01,1.31c-1.04,0-1.9-0.29-2.56-0.88
		c-0.67-0.59-1-1.34-1-2.24c0-1.1,0.42-1.96,1.25-2.56c0.84-0.61,2.01-0.91,3.53-0.91h1.76v-0.83c0-0.63-0.19-1.13-0.57-1.51
		c-0.38-0.37-0.93-0.56-1.67-0.56c-0.64,0-1.19,0.16-1.62,0.49c-0.44,0.33-0.65,0.72-0.65,1.18h-1.82c0-0.53,0.19-1.04,0.56-1.53
		c0.37-0.49,0.88-0.88,1.52-1.17c0.64-0.29,1.35-0.43,2.11-0.43c1.22,0,2.17,0.3,2.86,0.91c0.69,0.61,1.05,1.45,1.07,2.51v4.86
		c0,0.97,0.12,1.74,0.37,2.31v0.16H380.75z M377.75,25c0.57,0,1.1-0.15,1.61-0.44s0.88-0.67,1.1-1.14v-2.17h-1.42
		c-2.21,0-3.32,0.65-3.32,1.94c0,0.57,0.19,1.01,0.57,1.33C376.67,24.84,377.16,25,377.75,25z"/>
	<path class="st0" d="M389.34,25.1c0.64,0,1.21-0.2,1.69-0.59c0.48-0.39,0.75-0.88,0.8-1.46h1.71c-0.03,0.61-0.24,1.18-0.62,1.73
		c-0.38,0.55-0.9,0.98-1.54,1.31c-0.64,0.33-1.32,0.49-2.04,0.49c-1.44,0-2.58-0.48-3.43-1.44s-1.27-2.27-1.27-3.94v-0.3
		c0-1.03,0.19-1.94,0.57-2.74c0.38-0.8,0.92-1.42,1.63-1.87c0.71-0.44,1.54-0.66,2.5-0.66c1.18,0,2.17,0.35,2.95,1.06
		c0.78,0.71,1.2,1.63,1.25,2.76h-1.71c-0.05-0.68-0.31-1.25-0.78-1.68c-0.47-0.44-1.04-0.66-1.72-0.66c-0.92,0-1.63,0.33-2.13,0.99
		c-0.5,0.66-0.76,1.62-0.76,2.87v0.34c0,1.22,0.25,2.16,0.75,2.81C387.7,24.77,388.41,25.1,389.34,25.1z"/>
	<path class="st0" d="M399.03,23.73l2.46-7.92h1.93l-4.25,12.2c-0.66,1.76-1.7,2.64-3.13,2.64l-0.34-0.03l-0.67-0.13v-1.46
		l0.49,0.04c0.61,0,1.09-0.12,1.43-0.37s0.62-0.7,0.85-1.36l0.4-1.07l-3.77-10.45h1.97L399.03,23.73z"/>
	<path class="st0" d="M415.82,24.51c-0.48,0.69-1.15,1.21-2.02,1.55s-1.87,0.51-3.01,0.51c-1.16,0-2.19-0.27-3.09-0.82
		s-1.59-1.32-2.08-2.32s-0.74-2.17-0.76-3.49v-1.24c0-2.14,0.5-3.8,1.5-4.98c1-1.18,2.4-1.77,4.21-1.77c1.48,0,2.68,0.38,3.58,1.14
		s1.46,1.83,1.66,3.23h-1.88c-0.35-1.89-1.47-2.83-3.36-2.83c-1.26,0-2.21,0.44-2.86,1.32s-0.97,2.16-0.98,3.84v1.16
		c0,1.6,0.36,2.87,1.09,3.81s1.72,1.41,2.96,1.41c0.7,0,1.32-0.08,1.85-0.23c0.53-0.16,0.96-0.42,1.31-0.79v-3.19h-3.29V19.3h5.16
		V24.51z"/>
	<path class="st0" d="M425.18,25.33c-0.7,0.83-1.74,1.24-3.1,1.24c-1.13,0-1.98-0.33-2.57-0.98s-0.89-1.62-0.89-2.91v-6.88h1.81
		v6.83c0,1.6,0.65,2.4,1.95,2.4c1.38,0,2.3-0.51,2.75-1.54v-7.69h1.81v10.57h-1.72L425.18,25.33z"/>
	<path class="st0" d="M436.21,26.38c-0.1-0.21-0.19-0.58-0.25-1.11c-0.84,0.87-1.84,1.31-3.01,1.31c-1.04,0-1.9-0.29-2.56-0.88
		s-1-1.34-1-2.24c0-1.1,0.42-1.96,1.25-2.56s2.01-0.91,3.53-0.91h1.76v-0.83c0-0.63-0.19-1.13-0.57-1.51s-0.93-0.56-1.67-0.56
		c-0.64,0-1.18,0.16-1.62,0.49s-0.65,0.72-0.65,1.18h-1.82c0-0.53,0.19-1.04,0.56-1.53s0.88-0.88,1.52-1.17s1.35-0.43,2.11-0.43
		c1.22,0,2.17,0.3,2.86,0.91s1.05,1.45,1.07,2.51v4.86c0,0.97,0.12,1.74,0.37,2.31v0.16H436.21z M433.21,25
		c0.57,0,1.1-0.15,1.61-0.44s0.88-0.67,1.1-1.14v-2.17h-1.42c-2.21,0-3.32,0.65-3.32,1.94c0,0.57,0.19,1.01,0.57,1.33
		S432.62,25,433.21,25z"/>
	<path class="st0" d="M445.67,17.43c-0.27-0.05-0.57-0.07-0.89-0.07c-1.18,0-1.99,0.5-2.41,1.51v7.5h-1.81V15.81h1.76l0.03,1.22
		c0.59-0.94,1.43-1.42,2.52-1.42c0.35,0,0.62,0.05,0.8,0.14V17.43z"/>
	<path class="st0" d="M446.89,21.01c0-1.62,0.38-2.92,1.15-3.91s1.77-1.48,3.02-1.48c1.24,0,2.22,0.42,2.94,1.27v-5.51h1.81v15
		h-1.66l-0.09-1.13c-0.72,0.89-1.73,1.33-3.02,1.33c-1.22,0-2.22-0.5-2.99-1.5s-1.16-2.31-1.16-3.93V21.01z M448.7,21.21
		c0,1.2,0.25,2.14,0.74,2.81s1.18,1.02,2.05,1.02c1.15,0,1.98-0.51,2.51-1.54v-4.85c-0.54-1-1.37-1.49-2.49-1.49
		c-0.89,0-1.58,0.34-2.07,1.03S448.7,19.87,448.7,21.21z"/>
	<path class="st0" d="M472.92,23.89l2.03-8.08h1.81l-3.08,10.57h-1.46l-2.57-8.01l-2.5,8.01h-1.46l-3.07-10.57h1.8l2.08,7.91
		l2.46-7.91h1.46L472.92,23.89z"/>
	<path class="st0" d="M478.6,13.01c0-0.29,0.09-0.54,0.27-0.74s0.44-0.3,0.8-0.3s0.62,0.1,0.8,0.3s0.27,0.45,0.27,0.74
		s-0.09,0.54-0.27,0.73s-0.45,0.29-0.8,0.29s-0.62-0.1-0.8-0.29S478.6,13.3,478.6,13.01z M480.55,26.38h-1.81V15.81h1.81V26.38z"/>
	<path class="st0" d="M485.9,13.25v2.56h1.97v1.4h-1.97v6.56c0,0.42,0.09,0.74,0.26,0.95s0.48,0.32,0.9,0.32
		c0.21,0,0.5-0.04,0.86-0.12v1.46c-0.48,0.13-0.94,0.19-1.39,0.19c-0.81,0-1.42-0.24-1.83-0.73s-0.62-1.18-0.62-2.08v-6.55h-1.92
		v-1.4h1.92v-2.56H485.9z"/>
	<path class="st0" d="M491.79,17.09c0.8-0.98,1.84-1.47,3.12-1.47c2.23,0,3.36,1.26,3.38,3.78v6.98h-1.81v-6.99
		c-0.01-0.76-0.18-1.33-0.52-1.69s-0.87-0.55-1.6-0.55c-0.59,0-1.1,0.16-1.54,0.47s-0.79,0.72-1.04,1.23v7.53h-1.81v-15h1.81V17.09z
		"/>
	<path class="st0" d="M309.09,39.81l0.09,1.18c0.75-0.92,1.76-1.38,3.04-1.38c1.36,0,2.29,0.54,2.8,1.61
		c0.74-1.07,1.8-1.61,3.17-1.61c1.15,0,2,0.33,2.56,1s0.84,1.67,0.84,3.01v6.75h-2.83v-6.74c0-0.6-0.12-1.04-0.35-1.31
		s-0.65-0.42-1.24-0.42c-0.85,0-1.43,0.4-1.76,1.21l0.01,7.26h-2.82v-6.73c0-0.61-0.12-1.05-0.36-1.33s-0.65-0.41-1.23-0.41
		c-0.8,0-1.38,0.33-1.74,1v7.47h-2.82V39.81H309.09z"/>
	<path class="st0" d="M323.32,45c0-1.05,0.2-1.98,0.61-2.8s0.98-1.46,1.74-1.9s1.64-0.67,2.64-0.67c1.43,0,2.59,0.44,3.49,1.31
		s1.4,2.06,1.51,3.55l0.02,0.72c0,1.62-0.45,2.92-1.36,3.9s-2.12,1.47-3.64,1.47s-2.74-0.49-3.65-1.46s-1.36-2.3-1.36-3.98V45z
		 M326.15,45.2c0,1,0.19,1.77,0.57,2.3s0.92,0.8,1.62,0.8c0.68,0,1.22-0.26,1.6-0.79c0.38-0.53,0.58-1.36,0.58-2.52
		c0-0.98-0.19-1.75-0.58-2.29s-0.92-0.81-1.62-0.81c-0.69,0-1.22,0.27-1.6,0.81S326.15,44.07,326.15,45.2z"/>
	<path class="st0" d="M337.67,39.81l0.09,1.22c0.76-0.94,1.77-1.42,3.04-1.42c1.12,0,1.95,0.33,2.5,0.99s0.83,1.64,0.84,2.95v6.83
		h-2.82v-6.76c0-0.6-0.13-1.03-0.39-1.3s-0.69-0.41-1.3-0.41c-0.79,0-1.39,0.34-1.79,1.02v7.45h-2.82V39.81H337.67z"/>
	<path class="st0" d="M349.65,37.21v2.6h1.81v2.07h-1.81v5.27c0,0.39,0.07,0.67,0.22,0.84s0.44,0.25,0.86,0.25
		c0.31,0,0.59-0.02,0.83-0.07v2.14c-0.55,0.17-1.12,0.25-1.71,0.25c-1.98,0-2.99-1-3.03-3v-5.69h-1.54v-2.07h1.54v-2.6H349.65z"/>
	<path class="st0" d="M355.78,40.96c0.75-0.9,1.69-1.35,2.82-1.35c2.29,0,3.45,1.33,3.49,3.99v6.77h-2.82v-6.69
		c0-0.61-0.13-1.05-0.39-1.34s-0.69-0.43-1.3-0.43c-0.83,0-1.43,0.32-1.8,0.96v7.51h-2.82v-15h2.82V40.96z"/>
	<path class="st0" d="M367.2,50.38h-2.83v-15h2.83V50.38z"/>
	<path class="st0" d="M373.47,46.38l1.95-6.57h3.03l-4.25,12.21l-0.23,0.56c-0.63,1.38-1.67,2.07-3.12,2.07
		c-0.41,0-0.83-0.06-1.25-0.19v-2.14l0.43,0.01c0.53,0,0.93-0.08,1.2-0.24s0.47-0.43,0.62-0.81l0.33-0.87l-3.7-10.6h3.04
		L373.47,46.38z"/>
	<path class="st0" d="M387.92,37.21v2.6h1.81v2.07h-1.81v5.27c0,0.39,0.07,0.67,0.22,0.84c0.15,0.17,0.44,0.25,0.86,0.25
		c0.31,0,0.59-0.02,0.83-0.07v2.14c-0.55,0.17-1.12,0.25-1.71,0.25c-1.98,0-2.99-1-3.03-3v-5.69h-1.54v-2.07h1.54v-2.6H387.92z"/>
	<path class="st0" d="M397.24,42.46c-0.38-0.05-0.72-0.08-1.02-0.08c-1.07,0-1.77,0.36-2.1,1.08v6.91h-2.82V39.81h2.67l0.08,1.26
		c0.57-0.97,1.35-1.46,2.35-1.46c0.31,0,0.61,0.04,0.88,0.13L397.24,42.46z"/>
	<path class="st0" d="M398.58,37.08c0-0.42,0.14-0.77,0.42-1.04s0.67-0.41,1.16-0.41c0.48,0,0.87,0.14,1.15,0.41
		s0.43,0.62,0.43,1.04c0,0.43-0.14,0.78-0.43,1.05s-0.67,0.41-1.15,0.41s-0.86-0.14-1.15-0.41S398.58,37.51,398.58,37.08z
		 M401.57,50.38h-2.83V39.81h2.83V50.38z"/>
	<path class="st0" d="M413.41,45.19c0,1.63-0.37,2.93-1.11,3.91s-1.74,1.47-2.99,1.47c-1.07,0-1.93-0.37-2.59-1.11v4.98h-2.82V39.81
		h2.62l0.1,1.04c0.68-0.82,1.58-1.23,2.68-1.23c1.3,0,2.31,0.48,3.04,1.45s1.08,2.29,1.08,3.98V45.19z M410.59,44.99
		c0-0.98-0.17-1.74-0.52-2.28s-0.85-0.8-1.52-0.8c-0.89,0-1.49,0.34-1.83,1.02v4.33c0.34,0.7,0.96,1.04,1.85,1.04
		C409.91,48.3,410.59,47.19,410.59,44.99z"/>
	<path class="st0" d="M418.14,50.38h-2.83v-15h2.83V50.38z"/>
	<path class="st0" d="M425.32,50.57c-1.55,0-2.81-0.48-3.78-1.43s-1.46-2.22-1.46-3.8v-0.27c0-1.06,0.21-2.01,0.62-2.85
		s0.99-1.48,1.74-1.93s1.61-0.68,2.57-0.68c1.45,0,2.58,0.46,3.41,1.37s1.25,2.2,1.25,3.88v1.15h-6.73
		c0.09,0.69,0.37,1.24,0.83,1.66s1.04,0.62,1.74,0.62c1.09,0,1.94-0.39,2.55-1.18l1.39,1.55c-0.42,0.6-1,1.07-1.72,1.4
		S426.2,50.57,425.32,50.57z M425,41.89c-0.56,0-1.01,0.19-1.36,0.57c-0.35,0.38-0.57,0.92-0.67,1.63h3.93v-0.23
		c-0.01-0.63-0.18-1.11-0.51-1.46C426.06,42.06,425.6,41.89,425,41.89z"/>
	<path class="st0" d="M445.77,45.19c0,1.69-0.36,3.01-1.08,3.96s-1.73,1.42-3.03,1.42c-1.15,0-2.06-0.44-2.74-1.32l-0.13,1.12h-2.54
		v-15h2.82v5.38c0.65-0.76,1.51-1.14,2.57-1.14c1.29,0,2.3,0.47,3.03,1.42s1.1,2.28,1.1,4V45.19z M442.95,44.99
		c0-1.07-0.17-1.85-0.51-2.34s-0.84-0.74-1.51-0.74c-0.9,0-1.52,0.37-1.86,1.1v4.17c0.34,0.74,0.97,1.11,1.88,1.11
		c0.91,0,1.51-0.45,1.8-1.35C442.88,46.52,442.95,45.86,442.95,44.99z"/>
	<path class="st0" d="M453.84,49.3c-0.7,0.85-1.66,1.27-2.89,1.27c-1.13,0-2-0.33-2.59-0.98s-0.9-1.6-0.91-2.86v-6.92h2.82v6.83
		c0,1.1,0.5,1.65,1.5,1.65c0.96,0,1.61-0.33,1.97-1v-7.49h2.83v10.57h-2.66L453.84,49.3z"/>
	<path class="st0" d="M464.64,42.46c-0.38-0.05-0.72-0.08-1.02-0.08c-1.07,0-1.77,0.36-2.1,1.08v6.91h-2.82V39.81h2.67l0.08,1.26
		c0.57-0.97,1.35-1.46,2.35-1.46c0.31,0,0.61,0.04,0.88,0.13L464.64,42.46z"/>
	<path class="st0" d="M470.86,50.57c-1.55,0-2.81-0.48-3.78-1.43s-1.46-2.22-1.46-3.8v-0.27c0-1.06,0.21-2.01,0.62-2.85
		s0.99-1.48,1.74-1.93s1.61-0.68,2.57-0.68c1.45,0,2.58,0.46,3.41,1.37s1.25,2.2,1.25,3.88v1.15h-6.73
		c0.09,0.69,0.37,1.24,0.83,1.66s1.04,0.62,1.74,0.62c1.09,0,1.94-0.39,2.55-1.18l1.39,1.55c-0.42,0.6-1,1.07-1.72,1.4
		S471.74,50.57,470.86,50.57z M470.54,41.89c-0.56,0-1.01,0.19-1.36,0.57c-0.35,0.38-0.57,0.92-0.67,1.63h3.93v-0.23
		c-0.01-0.63-0.18-1.11-0.51-1.46C471.6,42.06,471.14,41.89,470.54,41.89z"/>
	<path class="st0" d="M482.93,50.38c-0.13-0.25-0.22-0.57-0.28-0.95c-0.68,0.76-1.57,1.14-2.67,1.14c-1.04,0-1.89-0.3-2.57-0.9
		s-1.02-1.35-1.02-2.27c0-1.12,0.42-1.98,1.25-2.58s2.03-0.9,3.6-0.91h1.3v-0.61c0-0.49-0.12-0.88-0.38-1.17s-0.65-0.44-1.19-0.44
		c-0.48,0-0.85,0.11-1.12,0.34s-0.41,0.54-0.41,0.94h-2.82c0-0.61,0.19-1.18,0.57-1.7s0.91-0.93,1.6-1.23s1.46-0.44,2.32-0.44
		c1.3,0,2.34,0.33,3.1,0.98s1.15,1.57,1.15,2.76v4.58c0.01,1,0.15,1.76,0.42,2.28v0.17H482.93z M480.6,48.41
		c0.42,0,0.8-0.09,1.15-0.28s0.61-0.43,0.78-0.75v-1.82h-1.05c-1.41,0-2.17,0.49-2.26,1.46l-0.01,0.17c0,0.35,0.12,0.64,0.37,0.87
		S480.17,48.41,480.6,48.41z"/>
	<path class="st0" d="M493.86,49.3c-0.7,0.85-1.66,1.27-2.89,1.27c-1.13,0-2-0.33-2.59-0.98s-0.9-1.6-0.91-2.86v-6.92h2.82v6.83
		c0,1.1,0.5,1.65,1.5,1.65c0.96,0,1.61-0.33,1.97-1v-7.49h2.83v10.57h-2.66L493.86,49.3z"/>
	<path class="st0" d="M304.06,72.3c0.52,0,0.94-0.14,1.27-0.43s0.49-0.67,0.51-1.14h2.65c-0.01,0.72-0.2,1.37-0.59,1.97
		s-0.91,1.06-1.58,1.39s-1.4,0.49-2.21,0.49c-1.51,0-2.7-0.48-3.57-1.44s-1.31-2.29-1.31-3.98v-0.19c0-1.63,0.43-2.93,1.3-3.9
		s2.05-1.46,3.56-1.46c1.32,0,2.38,0.38,3.18,1.13s1.2,1.75,1.22,3h-2.65c-0.01-0.55-0.18-1-0.51-1.34s-0.76-0.52-1.29-0.52
		c-0.66,0-1.15,0.24-1.49,0.72s-0.5,1.26-0.5,2.33v0.29c0,1.09,0.17,1.87,0.5,2.35S303.38,72.3,304.06,72.3z"/>
	<path class="st0" d="M316.03,66.46c-0.38-0.05-0.72-0.08-1.02-0.08c-1.07,0-1.77,0.36-2.1,1.08v6.91h-2.82V63.81h2.67l0.08,1.26
		c0.57-0.97,1.35-1.46,2.35-1.46c0.31,0,0.61,0.04,0.88,0.13L316.03,66.46z"/>
	<path class="st0" d="M322.25,74.57c-1.55,0-2.81-0.48-3.78-1.43s-1.46-2.22-1.46-3.8v-0.27c0-1.06,0.21-2.01,0.62-2.85
		s0.99-1.48,1.74-1.93s1.61-0.68,2.57-0.68c1.45,0,2.58,0.46,3.41,1.37s1.25,2.2,1.25,3.88v1.15h-6.73
		c0.09,0.69,0.37,1.24,0.83,1.66s1.04,0.62,1.74,0.62c1.09,0,1.94-0.39,2.55-1.18l1.39,1.55c-0.42,0.6-1,1.07-1.72,1.4
		S323.13,74.57,322.25,74.57z M321.93,65.89c-0.56,0-1.01,0.19-1.36,0.57c-0.35,0.38-0.57,0.92-0.67,1.63h3.93v-0.23
		c-0.01-0.63-0.18-1.11-0.51-1.46C322.99,66.06,322.53,65.89,321.93,65.89z"/>
	<path class="st0" d="M327.76,69.01c0-1.65,0.37-2.96,1.11-3.94s1.75-1.46,3.03-1.46c1.03,0,1.88,0.38,2.55,1.15v-5.39h2.83v15
		h-2.55l-0.14-1.12c-0.7,0.88-1.61,1.32-2.71,1.32c-1.24,0-2.24-0.49-2.99-1.47S327.76,70.76,327.76,69.01z M330.58,69.22
		c0,0.99,0.17,1.75,0.52,2.28s0.85,0.79,1.5,0.79c0.87,0,1.49-0.37,1.85-1.11v-4.18c-0.35-0.74-0.96-1.11-1.83-1.11
		C331.26,65.91,330.58,67.01,330.58,69.22z"/>
	<path class="st0" d="M339.45,61.08c0-0.42,0.14-0.77,0.42-1.04s0.67-0.41,1.16-0.41c0.48,0,0.87,0.14,1.15,0.41
		s0.43,0.62,0.43,1.04c0,0.43-0.15,0.78-0.43,1.05s-0.67,0.41-1.15,0.41s-0.86-0.14-1.15-0.41S339.45,61.5,339.45,61.08z
		 M342.45,74.38h-2.83V63.81h2.83V74.38z"/>
	<path class="st0" d="M348.15,61.21v2.6h1.81v2.07h-1.81v5.27c0,0.39,0.07,0.67,0.22,0.84s0.44,0.25,0.86,0.25
		c0.31,0,0.59-0.02,0.83-0.07v2.14c-0.55,0.17-1.12,0.25-1.71,0.25c-1.98,0-2.99-1-3.03-3v-5.69h-1.54v-2.07h1.54v-2.6H348.15z"/>
	<path class="st0" d="M362.23,71.46c0-0.34-0.17-0.62-0.51-0.82s-0.89-0.38-1.65-0.53c-2.51-0.53-3.77-1.59-3.77-3.2
		c0-0.94,0.39-1.72,1.17-2.35s1.8-0.94,3.05-0.94c1.34,0,2.41,0.32,3.22,0.95s1.21,1.45,1.21,2.46h-2.82c0-0.4-0.13-0.74-0.39-1
		s-0.67-0.4-1.22-0.4c-0.48,0-0.84,0.11-1.1,0.32s-0.39,0.49-0.39,0.82c0,0.31,0.15,0.56,0.44,0.76s0.8,0.36,1.5,0.5
		s1.3,0.3,1.78,0.47c1.49,0.55,2.24,1.49,2.24,2.84c0,0.96-0.41,1.74-1.24,2.34s-1.89,0.89-3.2,0.89c-0.89,0-1.67-0.16-2.36-0.47
		s-1.23-0.75-1.62-1.3s-0.59-1.14-0.59-1.78h2.68c0.03,0.5,0.21,0.89,0.56,1.15s0.81,0.4,1.39,0.4c0.54,0,0.95-0.1,1.23-0.31
		S362.23,71.79,362.23,71.46z"/>
	<path class="st0" d="M371.19,72.3c0.52,0,0.94-0.14,1.27-0.43c0.33-0.29,0.49-0.67,0.51-1.14h2.65c-0.01,0.72-0.2,1.37-0.59,1.97
		c-0.38,0.6-0.91,1.06-1.58,1.39c-0.67,0.33-1.41,0.49-2.21,0.49c-1.51,0-2.7-0.48-3.57-1.44c-0.87-0.96-1.31-2.29-1.31-3.98v-0.19
		c0-1.63,0.43-2.93,1.3-3.9c0.87-0.97,2.05-1.46,3.56-1.46c1.32,0,2.38,0.38,3.18,1.13c0.8,0.75,1.2,1.75,1.22,3h-2.65
		c-0.01-0.55-0.18-1-0.51-1.34c-0.33-0.34-0.76-0.52-1.29-0.52c-0.66,0-1.15,0.24-1.49,0.72c-0.34,0.48-0.5,1.26-0.5,2.33v0.29
		c0,1.09,0.17,1.87,0.5,2.35S370.51,72.3,371.19,72.3z"/>
	<path class="st0" d="M376.79,69c0-1.05,0.2-1.98,0.61-2.8c0.4-0.82,0.98-1.46,1.74-1.9c0.76-0.45,1.64-0.67,2.64-0.67
		c1.43,0,2.59,0.44,3.49,1.31c0.9,0.87,1.4,2.06,1.51,3.55l0.02,0.72c0,1.62-0.45,2.92-1.36,3.9c-0.91,0.98-2.12,1.47-3.64,1.47
		s-2.74-0.49-3.65-1.46s-1.36-2.3-1.36-3.98V69z M379.61,69.2c0,1,0.19,1.77,0.57,2.3c0.38,0.53,0.92,0.8,1.62,0.8
		c0.68,0,1.22-0.26,1.6-0.79c0.38-0.53,0.58-1.36,0.58-2.52c0-0.98-0.19-1.75-0.58-2.29c-0.38-0.54-0.92-0.81-1.62-0.81
		c-0.69,0-1.22,0.27-1.6,0.81C379.8,67.23,379.61,68.07,379.61,69.2z"/>
	<path class="st0" d="M394.47,66.46c-0.38-0.05-0.72-0.08-1.02-0.08c-1.07,0-1.77,0.36-2.1,1.08v6.91h-2.82V63.81h2.67l0.08,1.26
		c0.57-0.97,1.35-1.46,2.35-1.46c0.31,0,0.61,0.04,0.88,0.13L394.47,66.46z"/>
	<path class="st0" d="M400.69,74.57c-1.55,0-2.81-0.48-3.78-1.43s-1.46-2.22-1.46-3.8v-0.27c0-1.06,0.21-2.01,0.62-2.85
		s0.99-1.48,1.74-1.93s1.61-0.68,2.57-0.68c1.45,0,2.58,0.46,3.41,1.37s1.25,2.2,1.25,3.88v1.15h-6.73
		c0.09,0.69,0.37,1.24,0.83,1.66s1.04,0.62,1.74,0.62c1.09,0,1.94-0.39,2.55-1.18l1.39,1.55c-0.42,0.6-1,1.07-1.72,1.4
		S401.57,74.57,400.69,74.57z M400.37,65.89c-0.56,0-1.01,0.19-1.36,0.57c-0.35,0.38-0.57,0.92-0.67,1.63h3.93v-0.23
		c-0.01-0.63-0.18-1.11-0.51-1.46C401.43,66.06,400.97,65.89,400.37,65.89z"/>
	<path class="st0" d="M412.36,71.46c0-0.34-0.17-0.62-0.51-0.82s-0.89-0.38-1.65-0.53c-2.51-0.53-3.77-1.59-3.77-3.2
		c0-0.94,0.39-1.72,1.17-2.35s1.79-0.94,3.05-0.94c1.34,0,2.41,0.32,3.22,0.95s1.21,1.45,1.21,2.46h-2.82c0-0.4-0.13-0.74-0.39-1
		s-0.67-0.4-1.22-0.4c-0.48,0-0.84,0.11-1.1,0.32s-0.39,0.49-0.39,0.82c0,0.31,0.15,0.56,0.44,0.76s0.8,0.36,1.5,0.5
		s1.3,0.3,1.78,0.47c1.49,0.55,2.24,1.49,2.24,2.84c0,0.96-0.41,1.74-1.24,2.34s-1.89,0.89-3.2,0.89c-0.89,0-1.67-0.16-2.36-0.47
		s-1.23-0.75-1.62-1.3s-0.59-1.14-0.59-1.78h2.68c0.03,0.5,0.21,0.89,0.56,1.15s0.81,0.4,1.39,0.4c0.54,0,0.95-0.1,1.23-0.31
		S412.36,71.79,412.36,71.46z"/>
	<path class="st0" d="M421.51,70.55c0-0.66,0.18-1.27,0.55-1.83s1.04-1.18,2.03-1.87c-0.42-0.57-0.75-1.1-1-1.6
		s-0.36-1.02-0.36-1.56c0-1.11,0.35-2.01,1.05-2.7s1.64-1.04,2.83-1.04c1.06,0,1.93,0.32,2.61,0.95s1.02,1.42,1.02,2.36
		c0,1.13-0.57,2.13-1.72,3l-1.09,0.79l2.45,2.85c0.38-0.75,0.58-1.59,0.58-2.5h2.4c0,1.85-0.43,3.35-1.28,4.49l2.13,2.47h-3.2
		l-0.73-0.84c-1.05,0.69-2.25,1.04-3.61,1.04c-1.41,0-2.53-0.37-3.38-1.11S421.51,71.75,421.51,70.55z M426.3,72.3
		c0.68,0,1.32-0.19,1.92-0.56l-2.8-3.23l-0.21,0.15c-0.58,0.49-0.87,1.07-0.87,1.74c0,0.57,0.18,1.02,0.54,1.38
		C425.25,72.12,425.72,72.3,426.3,72.3z M425.26,63.66c0,0.49,0.29,1.1,0.86,1.85l0.75-0.5c0.38-0.25,0.65-0.49,0.8-0.72
		s0.22-0.51,0.22-0.84s-0.12-0.61-0.36-0.85s-0.55-0.36-0.93-0.36c-0.4,0-0.73,0.13-0.97,0.39S425.26,63.23,425.26,63.66z"/>
	<path class="st0" d="M445.95,66.46c-0.38-0.05-0.72-0.08-1.02-0.08c-1.07,0-1.77,0.36-2.1,1.08v6.91h-2.82V63.81h2.67l0.08,1.26
		c0.57-0.97,1.35-1.46,2.35-1.46c0.31,0,0.61,0.04,0.88,0.13L445.95,66.46z"/>
	<path class="st0" d="M452.17,74.57c-1.55,0-2.81-0.48-3.78-1.43s-1.46-2.22-1.46-3.8v-0.27c0-1.06,0.21-2.01,0.62-2.85
		s0.99-1.48,1.74-1.93s1.61-0.68,2.57-0.68c1.45,0,2.58,0.46,3.41,1.37s1.25,2.2,1.25,3.88v1.15h-6.73
		c0.09,0.69,0.37,1.24,0.83,1.66s1.04,0.62,1.74,0.62c1.09,0,1.94-0.39,2.55-1.18l1.39,1.55c-0.42,0.6-1,1.07-1.72,1.4
		S453.04,74.57,452.17,74.57z M451.84,65.89c-0.56,0-1.01,0.19-1.36,0.57c-0.35,0.38-0.57,0.92-0.67,1.63h3.93v-0.23
		c-0.01-0.63-0.18-1.11-0.51-1.46C452.91,66.06,452.44,65.89,451.84,65.89z"/>
	<path class="st0" d="M467.62,69.19c0,1.63-0.37,2.93-1.11,3.91s-1.74,1.47-2.99,1.47c-1.07,0-1.93-0.37-2.59-1.11v4.98h-2.82V63.81
		h2.62l0.1,1.04c0.68-0.82,1.58-1.23,2.68-1.23c1.3,0,2.31,0.48,3.04,1.45s1.08,2.29,1.08,3.98V69.19z M464.8,68.99
		c0-0.98-0.17-1.74-0.52-2.28s-0.85-0.8-1.52-0.8c-0.89,0-1.49,0.34-1.83,1.02v4.33c0.34,0.7,0.96,1.04,1.85,1.04
		C464.13,72.3,464.8,71.19,464.8,68.99z"/>
	<path class="st0" d="M468.93,69c0-1.05,0.2-1.98,0.61-2.8s0.98-1.46,1.74-1.9s1.64-0.67,2.64-0.67c1.43,0,2.59,0.44,3.49,1.31
		s1.4,2.06,1.51,3.55l0.02,0.72c0,1.62-0.45,2.92-1.36,3.9s-2.12,1.47-3.64,1.47s-2.74-0.49-3.65-1.46s-1.36-2.3-1.36-3.98V69z
		 M471.76,69.2c0,1,0.19,1.77,0.57,2.3s0.92,0.8,1.62,0.8c0.68,0,1.22-0.26,1.6-0.79c0.38-0.53,0.58-1.36,0.58-2.52
		c0-0.98-0.19-1.75-0.58-2.29s-0.92-0.81-1.62-0.81c-0.69,0-1.22,0.27-1.6,0.81S471.76,68.07,471.76,69.2z"/>
	<path class="st0" d="M486.62,66.46c-0.38-0.05-0.72-0.08-1.02-0.08c-1.07,0-1.77,0.36-2.1,1.08v6.91h-2.82V63.81h2.67l0.08,1.26
		c0.57-0.97,1.35-1.46,2.35-1.46c0.31,0,0.61,0.04,0.88,0.13L486.62,66.46z"/>
	<path class="st0" d="M491.84,61.21v2.6h1.81v2.07h-1.81v5.27c0,0.39,0.08,0.67,0.22,0.84s0.44,0.25,0.86,0.25
		c0.31,0,0.59-0.02,0.83-0.07v2.14c-0.55,0.17-1.12,0.25-1.71,0.25c-1.98,0-2.99-1-3.03-3v-5.69h-1.54v-2.07h1.54v-2.6H491.84z"/>
	<path class="st0" d="M500.95,71.46c0-0.34-0.17-0.62-0.51-0.82s-0.89-0.38-1.65-0.53c-2.51-0.53-3.77-1.59-3.77-3.2
		c0-0.94,0.39-1.72,1.17-2.35s1.79-0.94,3.05-0.94c1.34,0,2.41,0.32,3.22,0.95s1.21,1.45,1.21,2.46h-2.82c0-0.4-0.13-0.74-0.39-1
		s-0.67-0.4-1.22-0.4c-0.48,0-0.84,0.11-1.1,0.32s-0.39,0.49-0.39,0.82c0,0.31,0.15,0.56,0.44,0.76s0.8,0.36,1.5,0.5
		s1.3,0.3,1.78,0.47c1.49,0.55,2.24,1.49,2.24,2.84c0,0.96-0.41,1.74-1.24,2.34s-1.89,0.89-3.2,0.89c-0.89,0-1.67-0.16-2.36-0.47
		s-1.23-0.75-1.62-1.3s-0.59-1.14-0.59-1.78h2.68c0.03,0.5,0.21,0.89,0.56,1.15s0.81,0.4,1.39,0.4c0.54,0,0.95-0.1,1.23-0.31
		S500.95,71.79,500.95,71.46z"/>
</g>
</svg>
