<?xml version="1.0" encoding="utf-8"?>
<!-- Generator: Adobe Illustrator 24.2.3, SVG Export Plug-In . SVG Version: 6.00 Build 0)  -->
<svg version="1.1" id="Layer_1" xmlns="http://www.w3.org/2000/svg" xmlns:xlink="http://www.w3.org/1999/xlink" x="0px" y="0px"
	 viewBox="0 0 728 90" style="enable-background:new 0 0 728 90;" xml:space="preserve">
<style type="text/css">
	.st0{fill:#021D8B;}
</style>
<g>
	<path class="st0" d="M599.67,31.3c0-0.36-0.13-0.66-0.38-0.91s-0.68-0.47-1.27-0.67c-0.83-0.25-1.44-0.58-1.82-0.99
		s-0.57-0.93-0.57-1.56c0-0.64,0.19-1.17,0.56-1.58s0.89-0.65,1.54-0.73v-1.28h0.87v1.29c0.66,0.09,1.17,0.37,1.53,0.83
		s0.55,1.09,0.55,1.89h-1.08c0-0.55-0.13-0.99-0.39-1.32c-0.26-0.33-0.62-0.49-1.06-0.49c-0.46,0-0.82,0.12-1.07,0.36
		c-0.25,0.24-0.37,0.58-0.37,1.01c0,0.4,0.13,0.72,0.39,0.95s0.69,0.45,1.28,0.65s1.06,0.41,1.39,0.64s0.58,0.5,0.74,0.81
		s0.24,0.67,0.24,1.08c0,0.66-0.2,1.19-0.59,1.59s-0.95,0.64-1.67,0.71v1.12h-0.87V33.6c-0.73-0.07-1.3-0.33-1.71-0.78
		s-0.62-1.06-0.62-1.84h1.08c0,0.54,0.14,0.96,0.43,1.25s0.69,0.44,1.21,0.44c0.51,0,0.91-0.12,1.21-0.37S599.67,31.73,599.67,31.3z
		"/>
	<path class="st0" d="M605.66,33.5h-1.09v-7.22l-2.19,0.8v-0.98l3.11-1.17h0.17V33.5z"/>
	<path class="st0" d="M613.39,25.62v1.54h1.18V28h-1.18v3.94c0,0.25,0.05,0.44,0.16,0.57c0.11,0.13,0.29,0.19,0.54,0.19
		c0.12,0,0.3-0.02,0.52-0.07v0.87c-0.29,0.08-0.56,0.12-0.83,0.12c-0.48,0-0.85-0.15-1.1-0.44s-0.37-0.71-0.37-1.25V28h-1.15v-0.84
		h1.15v-1.54H613.39z"/>
	<path class="st0" d="M618.9,28.13c-0.16-0.03-0.34-0.04-0.53-0.04c-0.71,0-1.19,0.3-1.45,0.91v4.5h-1.08v-6.34h1.05l0.02,0.73
		c0.36-0.57,0.86-0.85,1.51-0.85c0.21,0,0.37,0.03,0.48,0.08V28.13z"/>
	<path class="st0" d="M619.91,25.48c0-0.18,0.05-0.32,0.16-0.45s0.27-0.18,0.48-0.18s0.37,0.06,0.48,0.18s0.16,0.27,0.16,0.45
		s-0.05,0.32-0.16,0.44s-0.27,0.18-0.48,0.18s-0.37-0.06-0.48-0.18S619.91,25.65,619.91,25.48z M621.08,33.5h-1.08v-6.34h1.08V33.5z
		"/>
	<path class="st0" d="M626.73,33.5c-0.06-0.12-0.11-0.35-0.15-0.67c-0.5,0.52-1.11,0.79-1.8,0.79c-0.62,0-1.14-0.18-1.54-0.53
		s-0.6-0.8-0.6-1.34c0-0.66,0.25-1.17,0.75-1.54s1.21-0.55,2.12-0.55h1.05v-0.5c0-0.38-0.11-0.68-0.34-0.91s-0.56-0.34-1-0.34
		c-0.39,0-0.71,0.1-0.97,0.29s-0.39,0.43-0.39,0.71h-1.09c0-0.32,0.11-0.62,0.34-0.92s0.53-0.53,0.91-0.7s0.81-0.26,1.27-0.26
		c0.73,0,1.3,0.18,1.72,0.55s0.63,0.87,0.64,1.51v2.92c0,0.58,0.07,1.04,0.22,1.39v0.09H626.73z M624.93,32.67
		c0.34,0,0.66-0.09,0.97-0.26s0.53-0.4,0.66-0.69v-1.3h-0.85c-1.33,0-1.99,0.39-1.99,1.17c0,0.34,0.11,0.61,0.34,0.8
		S624.57,32.67,624.93,32.67z"/>
	<path class="st0" d="M630.52,33.5h-1.08v-9h1.08V33.5z"/>
	<path class="st0" d="M635.75,33.5V28h-1v-0.84h1v-0.65c0-0.68,0.18-1.21,0.54-1.58s0.88-0.56,1.54-0.56c0.25,0,0.5,0.03,0.74,0.1
		l-0.06,0.87c-0.18-0.04-0.38-0.05-0.59-0.05c-0.35,0-0.62,0.1-0.81,0.31s-0.29,0.5-0.29,0.88v0.67h1.35V28h-1.35v5.5H635.75z"/>
	<path class="st0" d="M639.1,30.27c0-0.62,0.12-1.18,0.37-1.68s0.58-0.88,1.02-1.15s0.93-0.4,1.49-0.4c0.86,0,1.56,0.3,2.09,0.9
		s0.8,1.39,0.8,2.38v0.08c0,0.62-0.12,1.17-0.35,1.66s-0.57,0.87-1.01,1.15s-0.94,0.41-1.51,0.41c-0.86,0-1.56-0.3-2.09-0.9
		s-0.8-1.39-0.8-2.37V30.27z M640.19,30.4c0,0.7,0.16,1.27,0.49,1.69s0.76,0.64,1.31,0.64c0.55,0,0.99-0.22,1.31-0.65
		s0.49-1.04,0.49-1.81c0-0.7-0.17-1.26-0.5-1.69s-0.77-0.65-1.32-0.65c-0.54,0-0.97,0.21-1.29,0.64S640.19,29.6,640.19,30.4z"/>
	<path class="st0" d="M649.3,28.13c-0.16-0.03-0.34-0.04-0.53-0.04c-0.71,0-1.19,0.3-1.45,0.91v4.5h-1.08v-6.34h1.05l0.02,0.73
		c0.36-0.57,0.86-0.85,1.51-0.85c0.21,0,0.37,0.03,0.48,0.08V28.13z"/>
	<path class="st0" d="M654.73,25.62v1.54h1.18V28h-1.18v3.94c0,0.25,0.05,0.44,0.16,0.57c0.11,0.13,0.29,0.19,0.54,0.19
		c0.12,0,0.3-0.02,0.52-0.07v0.87c-0.29,0.08-0.56,0.12-0.83,0.12c-0.48,0-0.85-0.15-1.1-0.44s-0.37-0.71-0.37-1.25V28h-1.15v-0.84
		h1.15v-1.54H654.73z"/>
	<path class="st0" d="M658.27,27.93c0.48-0.59,1.11-0.88,1.88-0.88c1.34,0,2.02,0.76,2.03,2.27v4.19h-1.08v-4.2
		c0-0.46-0.11-0.79-0.31-1.01s-0.52-0.33-0.96-0.33c-0.35,0-0.66,0.09-0.93,0.28s-0.47,0.43-0.62,0.74v4.52h-1.08v-9h1.08V27.93z"/>
	<path class="st0" d="M666.42,33.61c-0.86,0-1.56-0.28-2.1-0.85s-0.81-1.32-0.81-2.26v-0.2c0-0.63,0.12-1.19,0.36-1.68
		s0.58-0.88,1.01-1.16s0.9-0.42,1.4-0.42c0.82,0,1.46,0.27,1.92,0.81s0.69,1.32,0.69,2.33v0.45h-4.29c0.02,0.62,0.2,1.13,0.55,1.51
		s0.79,0.58,1.33,0.58c0.38,0,0.71-0.08,0.97-0.23s0.5-0.36,0.7-0.62l0.66,0.52C668.28,33.21,667.49,33.61,666.42,33.61z
		 M666.29,27.93c-0.44,0-0.8,0.16-1.1,0.48s-0.48,0.76-0.55,1.34h3.18v-0.08c-0.03-0.55-0.18-0.98-0.45-1.28
		S666.74,27.93,666.29,27.93z"/>
	<path class="st0" d="M673.65,33.5V28h-1v-0.84h1v-0.65c0-0.68,0.18-1.21,0.54-1.58s0.88-0.56,1.54-0.56c0.25,0,0.5,0.03,0.74,0.1
		l-0.06,0.87c-0.18-0.04-0.38-0.05-0.59-0.05c-0.35,0-0.62,0.1-0.81,0.31s-0.29,0.5-0.29,0.88v0.67h1.35V28h-1.35v5.5H673.65z"/>
	<path class="st0" d="M677.29,25.48c0-0.18,0.05-0.32,0.16-0.45s0.27-0.18,0.48-0.18s0.37,0.06,0.48,0.18s0.16,0.27,0.16,0.45
		s-0.05,0.32-0.16,0.44s-0.27,0.18-0.48,0.18s-0.37-0.06-0.48-0.18S677.29,25.65,677.29,25.48z M678.46,33.5h-1.08v-6.34h1.08V33.5z
		"/>
	<path class="st0" d="M683.26,28.13c-0.16-0.03-0.34-0.04-0.53-0.04c-0.71,0-1.19,0.3-1.45,0.91v4.5h-1.08v-6.34h1.05l0.02,0.73
		c0.36-0.57,0.86-0.85,1.51-0.85c0.21,0,0.37,0.03,0.48,0.08V28.13z"/>
	<path class="st0" d="M687.95,31.82c0-0.29-0.11-0.52-0.33-0.68s-0.61-0.3-1.15-0.42s-0.98-0.26-1.31-0.42s-0.56-0.36-0.71-0.59
		s-0.23-0.5-0.23-0.81c0-0.52,0.22-0.96,0.66-1.32s1-0.54,1.68-0.54c0.72,0,1.3,0.19,1.75,0.56s0.67,0.85,0.67,1.42h-1.09
		c0-0.3-0.13-0.55-0.38-0.77s-0.57-0.32-0.95-0.32c-0.39,0-0.7,0.09-0.93,0.26s-0.33,0.4-0.33,0.67c0,0.26,0.1,0.46,0.31,0.59
		s0.58,0.26,1.12,0.38s0.98,0.27,1.32,0.43s0.58,0.37,0.75,0.61s0.24,0.52,0.24,0.86c0,0.57-0.23,1.02-0.68,1.36
		s-1.04,0.51-1.76,0.51c-0.51,0-0.96-0.09-1.35-0.27s-0.7-0.43-0.92-0.75S684,31.92,684,31.55h1.08c0.02,0.36,0.17,0.65,0.44,0.86
		s0.63,0.32,1.08,0.32c0.41,0,0.74-0.08,0.99-0.25S687.95,32.09,687.95,31.82z"/>
	<path class="st0" d="M691.92,25.62v1.54h1.18V28h-1.18v3.94c0,0.25,0.05,0.44,0.16,0.57c0.11,0.13,0.29,0.19,0.54,0.19
		c0.12,0,0.3-0.02,0.52-0.07v0.87c-0.29,0.08-0.56,0.12-0.83,0.12c-0.48,0-0.85-0.15-1.1-0.44s-0.37-0.71-0.37-1.25V28h-1.15v-0.84
		h1.15v-1.54H691.92z"/>
	<path class="st0" d="M588.49,47.9h-1.69v-6.53L584.78,42v-1.38l3.53-1.27h0.18V47.9z"/>
	<path class="st0" d="M596.27,44.69h0.97v1.37h-0.97v1.85h-1.69v-1.85h-3.5l-0.08-1.07l3.56-5.62h1.71V44.69z M592.69,44.69h1.89
		v-3.01l-0.11,0.19L592.69,44.69z"/>
	<path class="st0" d="M600.94,44.68c0-0.99,0.22-1.78,0.67-2.36s1.05-0.88,1.82-0.88c0.62,0,1.13,0.23,1.53,0.69V38.9h1.7v9h-1.53
		l-0.08-0.67c-0.42,0.53-0.96,0.79-1.63,0.79c-0.75,0-1.34-0.29-1.8-0.88S600.94,45.73,600.94,44.68z M602.64,44.81
		c0,0.59,0.1,1.05,0.31,1.37c0.21,0.32,0.51,0.48,0.9,0.48c0.52,0,0.89-0.22,1.11-0.66v-2.51c-0.21-0.44-0.58-0.66-1.1-0.66
		C603.05,42.82,602.64,43.48,602.64,44.81z"/>
	<path class="st0" d="M611.64,47.9c-0.08-0.15-0.13-0.34-0.17-0.57c-0.41,0.46-0.94,0.69-1.6,0.69c-0.62,0-1.14-0.18-1.54-0.54
		s-0.61-0.81-0.61-1.36c0-0.67,0.25-1.19,0.75-1.55s1.22-0.54,2.16-0.54h0.78v-0.36c0-0.29-0.08-0.53-0.23-0.7s-0.39-0.26-0.71-0.26
		c-0.29,0-0.51,0.07-0.67,0.21s-0.24,0.32-0.24,0.56h-1.69c0-0.37,0.11-0.71,0.34-1.02s0.55-0.56,0.96-0.74s0.88-0.27,1.39-0.27
		c0.78,0,1.4,0.2,1.86,0.59s0.69,0.94,0.69,1.66v2.75c0,0.6,0.09,1.06,0.25,1.37v0.1H611.64z M610.24,46.72
		c0.25,0,0.48-0.06,0.69-0.17s0.37-0.26,0.47-0.45v-1.09h-0.63c-0.85,0-1.3,0.29-1.35,0.88l-0.01,0.1c0,0.21,0.07,0.38,0.22,0.52
		S609.99,46.72,610.24,46.72z"/>
	<path class="st0" d="M616.77,45.5l1.17-3.94h1.82l-2.55,7.32l-0.14,0.33c-0.38,0.83-1,1.24-1.88,1.24c-0.25,0-0.5-0.04-0.75-0.11
		v-1.28l0.26,0.01c0.32,0,0.56-0.05,0.72-0.15s0.28-0.26,0.37-0.49l0.2-0.52l-2.22-6.36h1.82L616.77,45.5z"/>
	<path class="st0" d="M623.86,46.15c0-0.21-0.1-0.37-0.31-0.49s-0.53-0.23-0.99-0.32c-1.51-0.32-2.26-0.96-2.26-1.92
		c0-0.56,0.23-1.03,0.7-1.41s1.08-0.57,1.83-0.57c0.8,0,1.45,0.19,1.93,0.57s0.72,0.87,0.72,1.48h-1.69c0-0.24-0.08-0.44-0.23-0.6
		s-0.4-0.24-0.73-0.24c-0.29,0-0.51,0.06-0.66,0.19s-0.23,0.29-0.23,0.49c0,0.19,0.09,0.34,0.27,0.45s0.48,0.21,0.9,0.3
		s0.78,0.18,1.07,0.28c0.89,0.33,1.34,0.9,1.34,1.71c0,0.58-0.25,1.05-0.74,1.4s-1.14,0.54-1.92,0.54c-0.53,0-1-0.09-1.42-0.28
		s-0.74-0.45-0.97-0.78s-0.35-0.69-0.35-1.07h1.61c0.02,0.3,0.13,0.53,0.33,0.69s0.48,0.24,0.83,0.24c0.32,0,0.57-0.06,0.74-0.18
		S623.86,46.34,623.86,46.15z"/>
	<path class="st0" d="M626.73,49.6l-0.62-0.42c0.37-0.51,0.56-1.04,0.57-1.58v-0.98h1.06v0.85c0,0.39-0.1,0.79-0.29,1.18
		S627.02,49.36,626.73,49.6z"/>
	<path class="st0" d="M637.45,44.8c0,0.96-0.22,1.74-0.66,2.33s-1.04,0.88-1.79,0.88c-0.77,0-1.38-0.24-1.82-0.73v3.05h-1.08v-8.78
		h0.99l0.05,0.7c0.44-0.55,1.05-0.82,1.84-0.82c0.76,0,1.36,0.29,1.81,0.86s0.67,1.37,0.67,2.4V44.8z M636.36,44.67
		c0-0.71-0.15-1.28-0.46-1.69s-0.72-0.62-1.25-0.62c-0.66,0-1.15,0.29-1.48,0.87v3.03c0.32,0.58,0.82,0.87,1.49,0.87
		c0.52,0,0.93-0.21,1.24-0.62S636.36,45.49,636.36,44.67z"/>
	<path class="st0" d="M640,47.9h-1.08v-9H640V47.9z"/>
	<path class="st0" d="M645.65,47.9c-0.06-0.12-0.11-0.35-0.15-0.67c-0.5,0.52-1.11,0.79-1.8,0.79c-0.62,0-1.14-0.18-1.54-0.53
		s-0.6-0.8-0.6-1.34c0-0.66,0.25-1.17,0.75-1.54s1.21-0.55,2.12-0.55h1.05v-0.5c0-0.38-0.11-0.68-0.34-0.91s-0.56-0.34-1-0.34
		c-0.39,0-0.71,0.1-0.97,0.29s-0.39,0.43-0.39,0.71h-1.09c0-0.32,0.11-0.62,0.34-0.92s0.53-0.53,0.91-0.7s0.81-0.26,1.27-0.26
		c0.73,0,1.3,0.18,1.72,0.55s0.63,0.87,0.64,1.51v2.92c0,0.58,0.07,1.04,0.22,1.39v0.09H645.65z M643.85,47.07
		c0.34,0,0.66-0.09,0.97-0.26s0.53-0.4,0.66-0.69v-1.3h-0.85c-1.33,0-1.99,0.39-1.99,1.17c0,0.34,0.11,0.61,0.34,0.8
		S643.5,47.07,643.85,47.07z"/>
	<path class="st0" d="M649.29,41.56l0.04,0.8c0.48-0.61,1.12-0.91,1.9-0.91c1.34,0,2.02,0.76,2.03,2.27v4.19h-1.08v-4.2
		c0-0.46-0.11-0.79-0.31-1.01s-0.52-0.33-0.96-0.33c-0.35,0-0.66,0.09-0.93,0.28s-0.47,0.43-0.62,0.74v4.52h-1.08v-6.34H649.29z"/>
	<path class="st0" d="M658.58,46.22c0-0.29-0.11-0.52-0.33-0.68s-0.61-0.3-1.15-0.42s-0.98-0.26-1.31-0.42s-0.56-0.36-0.71-0.59
		s-0.23-0.5-0.23-0.81c0-0.52,0.22-0.96,0.66-1.32s1-0.54,1.68-0.54c0.72,0,1.3,0.19,1.75,0.56s0.67,0.85,0.67,1.42h-1.09
		c0-0.3-0.13-0.55-0.38-0.77s-0.57-0.32-0.95-0.32c-0.39,0-0.7,0.09-0.93,0.26s-0.33,0.4-0.33,0.67c0,0.26,0.1,0.46,0.31,0.59
		s0.58,0.26,1.12,0.38s0.98,0.27,1.32,0.43s0.58,0.37,0.75,0.61s0.24,0.52,0.24,0.86c0,0.57-0.23,1.02-0.68,1.36
		s-1.04,0.51-1.76,0.51c-0.51,0-0.96-0.09-1.35-0.27s-0.7-0.43-0.92-0.75s-0.33-0.67-0.33-1.05h1.08c0.02,0.36,0.17,0.65,0.44,0.86
		s0.63,0.32,1.08,0.32c0.41,0,0.74-0.08,0.99-0.25S658.58,46.49,658.58,46.22z"/>
	<path class="st0" d="M667.74,46.22c0-0.29-0.11-0.52-0.33-0.68s-0.61-0.3-1.15-0.42s-0.98-0.26-1.31-0.42s-0.56-0.36-0.71-0.59
		S664,43.61,664,43.3c0-0.52,0.22-0.96,0.66-1.32s1-0.54,1.68-0.54c0.72,0,1.3,0.19,1.75,0.56s0.67,0.85,0.67,1.42h-1.09
		c0-0.3-0.13-0.55-0.38-0.77s-0.57-0.32-0.95-0.32c-0.39,0-0.7,0.09-0.93,0.26s-0.33,0.4-0.33,0.67c0,0.26,0.1,0.46,0.31,0.59
		s0.58,0.26,1.12,0.38s0.98,0.27,1.32,0.43s0.58,0.37,0.75,0.61s0.24,0.52,0.24,0.86c0,0.57-0.23,1.02-0.68,1.36
		s-1.04,0.51-1.76,0.51c-0.51,0-0.96-0.09-1.35-0.27s-0.7-0.43-0.92-0.75s-0.33-0.67-0.33-1.05h1.08c0.02,0.36,0.17,0.65,0.44,0.86
		s0.63,0.32,1.08,0.32c0.41,0,0.74-0.08,0.99-0.25S667.74,46.49,667.74,46.22z"/>
	<path class="st0" d="M671.7,40.02v1.54h1.18v0.84h-1.18v3.94c0,0.25,0.05,0.45,0.16,0.57s0.29,0.19,0.54,0.19
		c0.12,0,0.3-0.02,0.52-0.07v0.87c-0.29,0.08-0.56,0.12-0.83,0.12c-0.48,0-0.85-0.15-1.1-0.44s-0.37-0.71-0.37-1.25V42.4h-1.15
		v-0.84h1.15v-1.54H671.7z"/>
	<path class="st0" d="M678.07,47.9c-0.06-0.12-0.11-0.35-0.15-0.67c-0.5,0.52-1.11,0.79-1.8,0.79c-0.62,0-1.14-0.18-1.54-0.53
		s-0.6-0.8-0.6-1.34c0-0.66,0.25-1.17,0.75-1.54s1.21-0.55,2.12-0.55h1.05v-0.5c0-0.38-0.11-0.68-0.34-0.91s-0.56-0.34-1-0.34
		c-0.39,0-0.71,0.1-0.97,0.29s-0.39,0.43-0.39,0.71h-1.09c0-0.32,0.11-0.62,0.34-0.92s0.53-0.53,0.91-0.7s0.81-0.26,1.27-0.26
		c0.73,0,1.3,0.18,1.72,0.55s0.63,0.87,0.64,1.51v2.92c0,0.58,0.07,1.04,0.22,1.39v0.09H678.07z M676.27,47.07
		c0.34,0,0.66-0.09,0.97-0.26s0.53-0.4,0.66-0.69v-1.3h-0.85c-1.33,0-1.99,0.39-1.99,1.17c0,0.34,0.11,0.61,0.34,0.8
		S675.91,47.07,676.27,47.07z"/>
	<path class="st0" d="M683.74,42.53c-0.16-0.03-0.34-0.04-0.53-0.04c-0.71,0-1.19,0.3-1.45,0.91v4.5h-1.08v-6.34h1.05l0.02,0.73
		c0.36-0.57,0.86-0.85,1.51-0.85c0.21,0,0.37,0.03,0.48,0.08V42.53z"/>
	<path class="st0" d="M686.5,40.02v1.54h1.18v0.84h-1.18v3.94c0,0.25,0.05,0.45,0.16,0.57s0.29,0.19,0.54,0.19
		c0.12,0,0.3-0.02,0.52-0.07v0.87c-0.29,0.08-0.56,0.12-0.83,0.12c-0.48,0-0.85-0.15-1.1-0.44s-0.37-0.71-0.37-1.25V42.4h-1.15
		v-0.84h1.15v-1.54H686.5z"/>
	<path class="st0" d="M688.96,39.88c0-0.18,0.05-0.32,0.16-0.45s0.27-0.18,0.48-0.18s0.37,0.06,0.48,0.18s0.16,0.27,0.16,0.45
		s-0.05,0.32-0.16,0.44s-0.27,0.18-0.48,0.18s-0.37-0.06-0.48-0.18S688.96,40.05,688.96,39.88z M690.13,47.9h-1.08v-6.34h1.08V47.9z
		"/>
	<path class="st0" d="M692.89,41.56l0.04,0.8c0.48-0.61,1.12-0.91,1.9-0.91c1.34,0,2.02,0.76,2.03,2.27v4.19h-1.08v-4.2
		c0-0.46-0.11-0.79-0.31-1.01s-0.52-0.33-0.96-0.33c-0.35,0-0.66,0.09-0.93,0.28s-0.47,0.43-0.62,0.74v4.52h-1.08v-6.34H692.89z"/>
	<path class="st0" d="M698.23,44.67c0-0.99,0.23-1.77,0.69-2.36s1.06-0.88,1.82-0.88c0.77,0,1.38,0.27,1.81,0.82l0.05-0.7h0.99v6.19
		c0,0.82-0.24,1.47-0.73,1.94s-1.14,0.71-1.96,0.71c-0.46,0-0.9-0.1-1.34-0.29s-0.77-0.46-1-0.8l0.56-0.65
		c0.46,0.57,1.03,0.86,1.71,0.86c0.53,0,0.94-0.15,1.23-0.45s0.44-0.71,0.44-1.25v-0.54c-0.43,0.5-1.03,0.75-1.78,0.75
		c-0.74,0-1.34-0.3-1.8-0.9S698.23,45.71,698.23,44.67z M699.32,44.8c0,0.71,0.15,1.28,0.44,1.68s0.7,0.61,1.23,0.61
		c0.68,0,1.19-0.31,1.51-0.93v-2.89c-0.33-0.61-0.83-0.91-1.49-0.91c-0.53,0-0.94,0.21-1.24,0.62S699.32,43.99,699.32,44.8z"/>
	<path class="st0" d="M607.04,62.3c-0.06-0.12-0.11-0.35-0.15-0.67c-0.5,0.52-1.11,0.79-1.8,0.79c-0.62,0-1.14-0.18-1.54-0.53
		s-0.6-0.8-0.6-1.35c0-0.66,0.25-1.17,0.75-1.54s1.21-0.55,2.12-0.55h1.05v-0.5c0-0.38-0.11-0.68-0.34-0.9s-0.56-0.34-1-0.34
		c-0.39,0-0.71,0.1-0.97,0.29s-0.39,0.43-0.39,0.71h-1.09c0-0.32,0.11-0.62,0.34-0.92s0.53-0.53,0.91-0.7s0.81-0.26,1.27-0.26
		c0.73,0,1.3,0.18,1.72,0.55s0.63,0.87,0.64,1.51v2.92c0,0.58,0.07,1.04,0.22,1.39v0.09H607.04z M605.24,61.47
		c0.34,0,0.66-0.09,0.97-0.26s0.53-0.4,0.66-0.69v-1.3h-0.85c-1.33,0-1.99,0.39-1.99,1.17c0,0.34,0.11,0.61,0.34,0.8
		S604.88,61.47,605.24,61.47z"/>
	<path class="st0" d="M611.12,54.42v1.54h1.18v0.84h-1.18v3.94c0,0.25,0.05,0.44,0.16,0.57c0.11,0.13,0.29,0.19,0.54,0.19
		c0.12,0,0.3-0.02,0.52-0.07v0.88c-0.29,0.08-0.56,0.12-0.83,0.12c-0.48,0-0.85-0.15-1.1-0.44s-0.37-0.71-0.37-1.25v-3.93h-1.15
		v-0.84h1.15v-1.54H611.12z"/>
	<path class="st0" d="M620.35,60.05c0-0.32-0.09-0.57-0.27-0.76s-0.48-0.37-0.91-0.53s-0.79-0.32-1.1-0.48s-0.57-0.34-0.79-0.54
		s-0.39-0.45-0.52-0.72s-0.18-0.61-0.18-0.99c0-0.66,0.21-1.2,0.63-1.62s0.98-0.67,1.68-0.74v-1.25h0.94v1.27
		c0.69,0.1,1.23,0.39,1.62,0.87s0.59,1.1,0.59,1.86h-1.69c0-0.47-0.1-0.82-0.29-1.05s-0.45-0.35-0.78-0.35
		c-0.32,0-0.57,0.09-0.74,0.27s-0.26,0.43-0.26,0.75c0,0.3,0.09,0.54,0.26,0.71s0.49,0.36,0.96,0.55s0.85,0.37,1.15,0.53
		s0.55,0.35,0.76,0.56s0.37,0.45,0.47,0.71s0.16,0.58,0.16,0.93c0,0.66-0.21,1.2-0.62,1.62s-0.98,0.66-1.71,0.73v1.17h-0.93V62.4
		c-0.8-0.09-1.42-0.37-1.86-0.85s-0.66-1.12-0.66-1.93h1.69c0,0.46,0.11,0.82,0.33,1.07s0.54,0.37,0.95,0.37
		c0.34,0,0.62-0.09,0.81-0.27S620.35,60.36,620.35,60.05z"/>
	<path class="st0" d="M627.15,58.89c-0.44,0.43-0.96,0.65-1.55,0.65c-0.75,0-1.36-0.26-1.81-0.78s-0.68-1.22-0.68-2.1
		c0-0.56,0.12-1.07,0.37-1.54s0.58-0.83,1.02-1.09s0.93-0.39,1.48-0.39c0.56,0,1.06,0.14,1.5,0.42s0.78,0.69,1.02,1.21
		s0.37,1.13,0.37,1.81v0.63c0,1.42-0.35,2.54-1.06,3.35s-1.71,1.25-3.01,1.3l-0.42,0.01v-1.41l0.38-0.01
		C626.23,60.89,627.03,60.2,627.15,58.89z M626.02,58.24c0.27,0,0.51-0.07,0.71-0.21s0.35-0.31,0.45-0.51v-0.7
		c0-0.57-0.11-1.02-0.33-1.34s-0.51-0.47-0.88-0.47c-0.34,0-0.62,0.16-0.84,0.47s-0.33,0.7-0.33,1.17c0,0.46,0.11,0.85,0.32,1.15
		S625.63,58.24,626.02,58.24z"/>
	<path class="st0" d="M630.23,61.46c0-0.27,0.09-0.49,0.27-0.66s0.41-0.25,0.68-0.25c0.28,0,0.51,0.08,0.69,0.25
		s0.27,0.39,0.27,0.66c0,0.27-0.09,0.48-0.27,0.65s-0.41,0.25-0.69,0.25c-0.28,0-0.51-0.08-0.69-0.25S630.23,61.73,630.23,61.46z"/>
	<path class="st0" d="M637.52,58.89c-0.44,0.43-0.96,0.65-1.55,0.65c-0.75,0-1.36-0.26-1.81-0.78s-0.68-1.22-0.68-2.1
		c0-0.56,0.12-1.07,0.37-1.54s0.58-0.83,1.02-1.09s0.93-0.39,1.48-0.39c0.56,0,1.06,0.14,1.5,0.42s0.78,0.69,1.02,1.21
		s0.37,1.13,0.37,1.81v0.63c0,1.42-0.35,2.54-1.06,3.35s-1.71,1.25-3.01,1.3l-0.42,0.01v-1.41l0.38-0.01
		C636.6,60.89,637.4,60.2,637.52,58.89z M636.39,58.24c0.27,0,0.51-0.07,0.71-0.21s0.35-0.31,0.45-0.51v-0.7
		c0-0.57-0.11-1.02-0.33-1.34s-0.51-0.47-0.88-0.47c-0.34,0-0.62,0.16-0.84,0.47s-0.33,0.7-0.33,1.17c0,0.46,0.11,0.85,0.32,1.15
		S636,58.24,636.39,58.24z"/>
	<path class="st0" d="M644.4,58.89c-0.44,0.43-0.96,0.65-1.55,0.65c-0.75,0-1.36-0.26-1.81-0.78s-0.68-1.22-0.68-2.1
		c0-0.56,0.12-1.07,0.37-1.54s0.58-0.83,1.02-1.09s0.93-0.39,1.48-0.39c0.56,0,1.06,0.14,1.5,0.42s0.78,0.69,1.02,1.21
		s0.37,1.13,0.37,1.81v0.63c0,1.42-0.35,2.54-1.06,3.35s-1.71,1.25-3.01,1.3l-0.42,0.01v-1.41l0.38-0.01
		C643.49,60.89,644.28,60.2,644.4,58.89z M643.27,58.24c0.27,0,0.51-0.07,0.71-0.21s0.35-0.31,0.45-0.51v-0.7
		c0-0.57-0.11-1.02-0.33-1.34s-0.51-0.47-0.88-0.47c-0.34,0-0.62,0.16-0.84,0.47s-0.33,0.7-0.33,1.17c0,0.46,0.11,0.85,0.32,1.15
		S642.89,58.24,643.27,58.24z"/>
	<path class="st0" d="M647.93,63.03h-1.26l3.14-9.26h1.26L647.93,63.03z"/>
	<path class="st0" d="M653.47,55.96l0.05,0.71c0.45-0.55,1.06-0.83,1.82-0.83c0.82,0,1.38,0.32,1.68,0.97
		c0.45-0.64,1.08-0.97,1.9-0.97c0.69,0,1.2,0.2,1.54,0.6s0.5,1,0.5,1.81v4.05h-1.7v-4.04c0-0.36-0.07-0.62-0.21-0.79
		s-0.39-0.25-0.74-0.25c-0.51,0-0.86,0.24-1.05,0.73l0.01,4.35h-1.69v-4.04c0-0.37-0.07-0.63-0.22-0.8s-0.39-0.25-0.74-0.25
		c-0.48,0-0.83,0.2-1.04,0.6v4.48h-1.69v-6.34H653.47z"/>
	<path class="st0" d="M662,59.07c0-0.63,0.12-1.19,0.36-1.68s0.59-0.87,1.05-1.14s0.98-0.4,1.58-0.4c0.86,0,1.55,0.26,2.09,0.79
		s0.84,1.23,0.91,2.13l0.01,0.43c0,0.97-0.27,1.75-0.81,2.34s-1.27,0.88-2.19,0.88s-1.64-0.29-2.19-0.88S662,60.15,662,59.14V59.07z
		 M663.7,59.19c0,0.6,0.11,1.06,0.34,1.38c0.23,0.32,0.55,0.48,0.97,0.48c0.41,0,0.73-0.16,0.96-0.47c0.23-0.31,0.35-0.82,0.35-1.51
		c0-0.59-0.12-1.05-0.35-1.37c-0.23-0.33-0.55-0.49-0.97-0.49c-0.41,0-0.73,0.16-0.96,0.48C663.81,58.01,663.7,58.51,663.7,59.19z"
		/>
	<path class="st0" d="M670.61,55.96l0.05,0.73c0.45-0.57,1.06-0.85,1.82-0.85c0.67,0,1.17,0.2,1.5,0.59s0.5,0.98,0.5,1.77v4.1h-1.69
		v-4.05c0-0.36-0.08-0.62-0.23-0.78s-0.42-0.24-0.78-0.24c-0.48,0-0.83,0.2-1.07,0.61v4.47h-1.69v-6.34H670.61z"/>
	<path class="st0" d="M677.8,54.4v1.56h1.08v1.24h-1.08v3.16c0,0.23,0.04,0.4,0.13,0.5s0.26,0.15,0.52,0.15
		c0.19,0,0.35-0.01,0.5-0.04v1.28c-0.33,0.1-0.67,0.15-1.03,0.15c-1.19,0-1.79-0.6-1.82-1.8V57.2h-0.93v-1.24h0.93V54.4H677.8z"/>
	<path class="st0" d="M681.48,56.65c0.45-0.54,1.01-0.81,1.69-0.81c1.38,0,2.07,0.8,2.09,2.4v4.06h-1.69v-4.01
		c0-0.36-0.08-0.63-0.23-0.8s-0.42-0.26-0.78-0.26c-0.5,0-0.86,0.19-1.08,0.57v4.51h-1.69v-9h1.69V56.65z"/>
</g>
</svg>
