<?xml version="1.0" encoding="utf-8"?>
<!-- Generator: Adobe Illustrator 24.2.3, SVG Export Plug-In . SVG Version: 6.00 Build 0)  -->
<svg version="1.1" id="Layer_1" xmlns="http://www.w3.org/2000/svg" xmlns:xlink="http://www.w3.org/1999/xlink" x="0px" y="0px"
	 viewBox="0 0 728 90" style="enable-background:new 0 0 728 90;" xml:space="preserve">
<style type="text/css">
	.st0{fill:#021D8B;stroke:url(#SVGID_1_);stroke-width:2;stroke-miterlimit:10;}
	.st1{fill:#FFFFFF;}
</style>
<linearGradient id="SVGID_1_" gradientUnits="userSpaceOnUse" x1="428.0244" y1="44.652" x2="540.1326" y2="44.652">
	<stop  offset="0" style="stop-color:#18B9FB"/>
	<stop  offset="0.5" style="stop-color:#782EEB"/>
	<stop  offset="1" style="stop-color:#E82D8A"/>
</linearGradient>
<path class="st0" d="M523.77,60.02h-79.37c-8.49,0-15.37-6.88-15.37-15.37v0c0-8.49,6.88-15.37,15.37-15.37h79.37
	c8.49,0,15.37,6.88,15.37,15.37v0C539.13,53.14,532.25,60.02,523.77,60.02z"/>
<g>
	<path class="st1" d="M452.31,46.85h4.2v1.59h-6.17v-9.59h1.98V46.85z"/>
	<path class="st1" d="M460.8,48.57c-1.05,0-1.9-0.32-2.55-0.96c-0.66-0.64-0.98-1.5-0.98-2.56v-0.18c0-0.72,0.14-1.36,0.42-1.92
		c0.28-0.56,0.67-1,1.18-1.3s1.09-0.46,1.74-0.46c0.97,0,1.74,0.31,2.3,0.92c0.56,0.61,0.84,1.49,0.84,2.62v0.78h-4.54
		c0.06,0.47,0.25,0.84,0.56,1.12c0.31,0.28,0.7,0.42,1.18,0.42c0.73,0,1.31-0.27,1.72-0.8l0.93,1.05c-0.29,0.4-0.67,0.72-1.16,0.95
		C461.93,48.46,461.39,48.57,460.8,48.57z M460.58,42.71c-0.38,0-0.68,0.13-0.92,0.38c-0.24,0.26-0.39,0.62-0.45,1.1h2.65v-0.15
		c-0.01-0.42-0.12-0.75-0.34-0.98C461.3,42.83,460.99,42.71,460.58,42.71z"/>
	<path class="st1" d="M468.94,48.44c-0.09-0.17-0.15-0.38-0.19-0.64c-0.46,0.51-1.06,0.77-1.8,0.77c-0.7,0-1.28-0.2-1.74-0.61
		s-0.69-0.91-0.69-1.53c0-0.76,0.28-1.33,0.84-1.74c0.56-0.4,1.37-0.61,2.43-0.61h0.88v-0.41c0-0.33-0.08-0.59-0.25-0.79
		c-0.17-0.2-0.44-0.3-0.8-0.3c-0.32,0-0.57,0.08-0.75,0.23c-0.18,0.15-0.27,0.36-0.27,0.63h-1.9c0-0.41,0.13-0.79,0.38-1.15
		c0.25-0.35,0.62-0.63,1.08-0.83c0.47-0.2,0.99-0.3,1.57-0.3c0.88,0,1.58,0.22,2.09,0.66c0.52,0.44,0.77,1.06,0.77,1.86v3.09
		c0,0.68,0.1,1.19,0.28,1.54v0.11H468.94z M467.37,47.11c0.28,0,0.54-0.06,0.78-0.19c0.24-0.12,0.41-0.29,0.53-0.5V45.2h-0.71
		c-0.95,0-1.46,0.33-1.52,0.99l-0.01,0.11c0,0.24,0.08,0.43,0.25,0.59C466.85,47.04,467.08,47.11,467.37,47.11z"/>
	<path class="st1" d="M476.05,43.09c-0.26-0.03-0.49-0.05-0.69-0.05c-0.72,0-1.19,0.24-1.42,0.73v4.66h-1.9v-7.13h1.8l0.05,0.85
		c0.38-0.65,0.91-0.98,1.59-0.98c0.21,0,0.41,0.03,0.59,0.09L476.05,43.09z"/>
	<path class="st1" d="M478.72,41.31l0.06,0.82c0.51-0.64,1.19-0.96,2.05-0.96c0.76,0,1.32,0.22,1.69,0.67
		c0.37,0.44,0.56,1.11,0.57,1.99v4.6h-1.9v-4.56c0-0.4-0.09-0.7-0.26-0.88s-0.47-0.27-0.88-0.27c-0.54,0-0.94,0.23-1.21,0.69v5.03
		h-1.9v-7.13H478.72z"/>
	<path class="st1" d="M489.67,41.31l0.06,0.8c0.5-0.62,1.19-0.93,2.05-0.93c0.92,0,1.55,0.36,1.89,1.09
		c0.5-0.72,1.21-1.09,2.14-1.09c0.77,0,1.35,0.23,1.73,0.68s0.57,1.13,0.57,2.03v4.55h-1.91v-4.55c0-0.4-0.08-0.7-0.24-0.89
		c-0.16-0.19-0.44-0.28-0.84-0.28c-0.57,0-0.97,0.27-1.19,0.82l0.01,4.9h-1.9V43.9c0-0.41-0.08-0.71-0.24-0.9
		c-0.16-0.18-0.44-0.28-0.83-0.28c-0.54,0-0.93,0.22-1.17,0.67v5.04h-1.9v-7.13H489.67z"/>
	<path class="st1" d="M499.27,44.81c0-0.71,0.14-1.34,0.41-1.89c0.27-0.55,0.66-0.98,1.18-1.28s1.11-0.45,1.78-0.45
		c0.96,0,1.75,0.29,2.35,0.88c0.61,0.59,0.95,1.39,1.02,2.4l0.01,0.49c0,1.09-0.3,1.97-0.92,2.63c-0.61,0.66-1.43,0.99-2.46,0.99
		c-1.03,0-1.85-0.33-2.46-0.99c-0.61-0.66-0.92-1.55-0.92-2.69V44.81z M501.17,44.94c0,0.68,0.13,1.2,0.38,1.55s0.62,0.54,1.09,0.54
		c0.46,0,0.82-0.18,1.08-0.53c0.26-0.35,0.39-0.92,0.39-1.7c0-0.66-0.13-1.18-0.39-1.54c-0.26-0.36-0.62-0.55-1.09-0.55
		c-0.47,0-0.83,0.18-1.08,0.54S501.17,44.18,501.17,44.94z"/>
	<path class="st1" d="M511.2,43.09c-0.26-0.03-0.49-0.05-0.69-0.05c-0.72,0-1.19,0.24-1.42,0.73v4.66h-1.9v-7.13h1.8l0.05,0.85
		c0.38-0.65,0.91-0.98,1.59-0.98c0.21,0,0.41,0.03,0.59,0.09L511.2,43.09z"/>
	<path class="st1" d="M515.4,48.57c-1.05,0-1.9-0.32-2.55-0.96c-0.66-0.64-0.98-1.5-0.98-2.56v-0.18c0-0.72,0.14-1.36,0.42-1.92
		c0.28-0.56,0.67-1,1.18-1.3s1.09-0.46,1.74-0.46c0.97,0,1.74,0.31,2.3,0.92c0.56,0.61,0.84,1.49,0.84,2.62v0.78h-4.54
		c0.06,0.47,0.25,0.84,0.56,1.12c0.31,0.28,0.7,0.42,1.18,0.42c0.73,0,1.31-0.27,1.72-0.8l0.93,1.05c-0.29,0.4-0.67,0.72-1.16,0.95
		C516.53,48.46,515.99,48.57,515.4,48.57z M515.18,42.71c-0.38,0-0.68,0.13-0.92,0.38c-0.24,0.26-0.39,0.62-0.45,1.1h2.65v-0.15
		c-0.01-0.42-0.12-0.75-0.34-0.98C515.9,42.83,515.58,42.71,515.18,42.71z"/>
</g>
</svg>
