<?xml version="1.0" encoding="utf-8"?>
<!-- Generator: Adobe Illustrator 24.2.3, SVG Export Plug-In . SVG Version: 6.00 Build 0)  -->
<svg version="1.1" id="Layer_1" xmlns="http://www.w3.org/2000/svg" xmlns:xlink="http://www.w3.org/1999/xlink" x="0px" y="0px"
	 viewBox="0 0 728 90" style="enable-background:new 0 0 728 90;" xml:space="preserve">
<style type="text/css">
	.st0{fill:#001B91;}
</style>
<g>
	<path class="st0" d="M547.58,33.65l-1.68,1.8v4.47h-3.22V24.28h3.22v7.09l1.42-1.94l3.99-5.15h3.96l-5.55,6.95l5.71,8.69h-3.83
		L547.58,33.65z"/>
	<path class="st0" d="M559.3,28.3l0.1,1.34c0.83-1.04,1.94-1.56,3.34-1.56c1.23,0,2.15,0.36,2.75,1.08c0.6,0.72,0.91,1.8,0.92,3.24
		v7.51h-3.1v-7.43c0-0.66-0.14-1.14-0.43-1.43c-0.29-0.3-0.76-0.45-1.43-0.45c-0.87,0-1.53,0.37-1.97,1.12v8.2h-3.1V28.3H559.3z"/>
	<path class="st0" d="M568.28,34c0-1.15,0.22-2.18,0.67-3.08s1.08-1.6,1.92-2.09c0.83-0.49,1.8-0.74,2.91-0.74
		c1.57,0,2.85,0.48,3.84,1.44c0.99,0.96,1.54,2.26,1.66,3.91l0.02,0.79c0,1.78-0.5,3.21-1.49,4.29c-1,1.08-2.33,1.62-4.01,1.62
		s-3.01-0.54-4.01-1.61c-1-1.07-1.5-2.54-1.5-4.38V34z M571.38,34.22c0,1.1,0.21,1.95,0.62,2.53c0.42,0.58,1.01,0.88,1.78,0.88
		c0.75,0,1.34-0.29,1.76-0.87c0.42-0.58,0.63-1.5,0.63-2.77c0-1.08-0.21-1.92-0.63-2.52s-1.02-0.89-1.78-0.89
		c-0.76,0-1.35,0.3-1.76,0.89S571.38,32.98,571.38,34.22z"/>
	<path class="st0" d="M591.31,35.7l1.53-7.4h3l-2.96,11.62h-2.6l-2.2-7.32l-2.2,7.32h-2.59l-2.96-11.62h3l1.51,7.39l2.13-7.39h2.25
		L591.31,35.7z"/>
	<path class="st0" d="M613.32,34.22c0,1.86-0.4,3.31-1.19,4.36s-1.91,1.56-3.33,1.56c-1.26,0-2.27-0.48-3.02-1.45l-0.14,1.24h-2.79
		v-16.5h3.1v5.92c0.72-0.84,1.66-1.26,2.83-1.26c1.42,0,2.53,0.52,3.33,1.56c0.81,1.04,1.21,2.51,1.21,4.4V34.22z M610.21,33.99
		c0-1.17-0.19-2.03-0.56-2.57c-0.37-0.54-0.93-0.81-1.67-0.81c-0.99,0-1.67,0.4-2.04,1.21v4.59c0.38,0.82,1.07,1.22,2.06,1.22
		c1,0,1.66-0.49,1.98-1.48C610.14,35.68,610.21,34.96,610.21,33.99z"/>
	<path class="st0" d="M620.58,40.14c-1.7,0-3.09-0.52-4.16-1.57c-1.07-1.05-1.61-2.44-1.61-4.18v-0.3c0-1.17,0.23-2.21,0.68-3.13
		c0.45-0.92,1.09-1.63,1.92-2.13c0.83-0.5,1.77-0.75,2.83-0.75c1.59,0,2.84,0.5,3.75,1.5c0.91,1,1.37,2.42,1.37,4.26v1.27h-7.4
		c0.1,0.76,0.4,1.37,0.91,1.83c0.51,0.46,1.14,0.69,1.92,0.69c1.2,0,2.13-0.43,2.8-1.3l1.53,1.71c-0.47,0.66-1.1,1.17-1.89,1.54
		S621.55,40.14,620.58,40.14z M620.23,30.59c-0.62,0-1.12,0.21-1.5,0.63c-0.38,0.42-0.63,1.01-0.74,1.79h4.32v-0.25
		c-0.01-0.69-0.2-1.22-0.56-1.6C621.39,30.78,620.89,30.59,620.23,30.59z"/>
	<path class="st0" d="M627.97,39.92v-9.35h-1.73V28.3h1.73v-0.99c0-1.3,0.37-2.31,1.12-3.03c0.75-0.72,1.79-1.08,3.14-1.08
		c0.43,0,0.96,0.07,1.58,0.21l-0.03,2.41c-0.26-0.06-0.57-0.1-0.95-0.1c-1.17,0-1.75,0.55-1.75,1.64v0.93h2.31v2.28h-2.31v9.35
		H627.97z"/>
	<path class="st0" d="M634.52,34c0-1.15,0.22-2.18,0.67-3.08s1.08-1.6,1.92-2.09c0.83-0.49,1.8-0.74,2.91-0.74
		c1.57,0,2.85,0.48,3.84,1.44c0.99,0.96,1.54,2.26,1.66,3.91l0.02,0.79c0,1.78-0.5,3.21-1.49,4.29c-1,1.08-2.33,1.62-4.01,1.62
		s-3.01-0.54-4.01-1.61c-1-1.07-1.5-2.54-1.5-4.38V34z M637.63,34.22c0,1.1,0.21,1.95,0.62,2.53c0.42,0.58,1.01,0.88,1.78,0.88
		c0.75,0,1.34-0.29,1.76-0.87c0.42-0.58,0.63-1.5,0.63-2.77c0-1.08-0.21-1.92-0.63-2.52s-1.02-0.89-1.78-0.89
		c-0.76,0-1.35,0.3-1.76,0.89S637.63,32.98,637.63,34.22z"/>
	<path class="st0" d="M653.98,31.21c-0.42-0.06-0.79-0.09-1.12-0.09c-1.17,0-1.94,0.4-2.31,1.19v7.61h-3.1V28.3h2.93l0.09,1.39
		c0.62-1.07,1.49-1.6,2.59-1.6c0.34,0,0.67,0.05,0.97,0.14L653.98,31.21z"/>
	<path class="st0" d="M660.82,40.14c-1.7,0-3.09-0.52-4.16-1.57c-1.07-1.05-1.61-2.44-1.61-4.18v-0.3c0-1.17,0.23-2.21,0.68-3.13
		c0.45-0.92,1.09-1.63,1.92-2.13c0.83-0.5,1.77-0.75,2.83-0.75c1.59,0,2.84,0.5,3.75,1.5c0.91,1,1.37,2.42,1.37,4.26v1.27h-7.4
		c0.1,0.76,0.4,1.37,0.91,1.83c0.51,0.46,1.14,0.69,1.92,0.69c1.2,0,2.13-0.43,2.8-1.3l1.53,1.71c-0.47,0.66-1.1,1.17-1.89,1.54
		S661.79,40.14,660.82,40.14z M660.47,30.59c-0.62,0-1.12,0.21-1.5,0.63c-0.38,0.42-0.63,1.01-0.74,1.79h4.32v-0.25
		c-0.01-0.69-0.2-1.22-0.56-1.6C661.63,30.78,661.13,30.59,660.47,30.59z"/>
	<path class="st0" d="M572.93,61.93l2.15-7.23h3.33l-4.67,13.43l-0.26,0.61c-0.69,1.52-1.84,2.28-3.44,2.28
		c-0.45,0-0.91-0.07-1.38-0.2v-2.35l0.47,0.01c0.59,0,1.03-0.09,1.32-0.27c0.29-0.18,0.52-0.48,0.68-0.89l0.37-0.96l-4.07-11.66
		h3.34L572.93,61.93z"/>
	<path class="st0" d="M579.15,60.4c0-1.15,0.22-2.18,0.67-3.08s1.08-1.6,1.92-2.09c0.83-0.49,1.8-0.74,2.91-0.74
		c1.57,0,2.85,0.48,3.84,1.44c0.99,0.96,1.54,2.26,1.66,3.91l0.02,0.79c0,1.78-0.5,3.21-1.49,4.29s-2.33,1.62-4.01,1.62
		s-3.01-0.54-4.01-1.61c-1-1.07-1.5-2.54-1.5-4.38V60.4z M582.25,60.62c0,1.1,0.21,1.95,0.62,2.53c0.42,0.58,1.01,0.88,1.78,0.88
		c0.75,0,1.34-0.29,1.76-0.87c0.42-0.58,0.63-1.5,0.63-2.77c0-1.08-0.21-1.92-0.63-2.52c-0.42-0.6-1.02-0.89-1.78-0.89
		c-0.76,0-1.35,0.3-1.76,0.89S582.25,59.38,582.25,60.62z"/>
	<path class="st0" d="M599.03,65.14c-0.77,0.93-1.83,1.4-3.18,1.4c-1.25,0-2.2-0.36-2.85-1.07c-0.65-0.72-0.99-1.76-1-3.15V54.7h3.1
		v7.52c0,1.21,0.55,1.82,1.65,1.82c1.05,0,1.78-0.37,2.17-1.1V54.7h3.12v11.62h-2.92L599.03,65.14z"/>
	<path class="st0" d="M609.41,60.42c0-1.78,0.42-3.22,1.27-4.31c0.85-1.09,1.99-1.63,3.43-1.63c1.27,0,2.27,0.44,2.98,1.31l0.13-1.1
		h2.81v11.24c0,1.02-0.23,1.9-0.69,2.65c-0.46,0.75-1.11,1.33-1.95,1.72s-1.82,0.59-2.94,0.59c-0.85,0-1.68-0.17-2.49-0.51
		c-0.81-0.34-1.42-0.78-1.84-1.32l1.38-1.89c0.77,0.87,1.71,1.3,2.81,1.3c0.82,0,1.46-0.22,1.92-0.66s0.69-1.07,0.69-1.88v-0.62
		c-0.72,0.81-1.66,1.21-2.83,1.21c-1.4,0-2.53-0.55-3.39-1.64c-0.86-1.09-1.29-2.54-1.29-4.35V60.42z M612.51,60.66
		c0,1.05,0.21,1.88,0.63,2.48c0.42,0.6,1,0.9,1.74,0.9c0.95,0,1.62-0.35,2.03-1.06v-4.9c-0.42-0.71-1.08-1.07-2.01-1.07
		c-0.75,0-1.33,0.31-1.76,0.92C612.73,58.53,612.51,59.44,612.51,60.66z"/>
	<path class="st0" d="M621.93,60.4c0-1.15,0.22-2.18,0.67-3.08s1.08-1.6,1.92-2.09c0.83-0.49,1.8-0.74,2.91-0.74
		c1.57,0,2.85,0.48,3.84,1.44c0.99,0.96,1.54,2.26,1.66,3.91l0.02,0.79c0,1.78-0.5,3.21-1.49,4.29s-2.33,1.62-4.01,1.62
		s-3.01-0.54-4.01-1.61c-1-1.07-1.5-2.54-1.5-4.38V60.4z M625.04,60.62c0,1.1,0.21,1.95,0.62,2.53c0.42,0.58,1.01,0.88,1.78,0.88
		c0.75,0,1.34-0.29,1.76-0.87c0.42-0.58,0.63-1.5,0.63-2.77c0-1.08-0.21-1.92-0.63-2.52c-0.42-0.6-1.02-0.89-1.78-0.89
		c-0.76,0-1.35,0.3-1.76,0.89S625.04,59.38,625.04,60.62z"/>
	<path class="st0" d="M635.02,64.8c0-0.49,0.17-0.89,0.5-1.2c0.33-0.31,0.75-0.46,1.25-0.46c0.51,0,0.93,0.15,1.26,0.46
		c0.33,0.31,0.5,0.71,0.5,1.2c0,0.49-0.17,0.88-0.49,1.19s-0.75,0.46-1.27,0.46c-0.51,0-0.93-0.15-1.26-0.46
		S635.02,65.28,635.02,64.8z"/>
</g>
</svg>
