<svg id="Layer_1" xmlns="http://www.w3.org/2000/svg" viewBox="0 0 320 100"><style>.st0{fill:#edf4fd}</style><path class="st0" d="M27.23 12.39l2.24 6.32 2.23-6.32h2.36v8.72h-1.8v-2.38l.18-4.11-2.35 6.5h-1.23l-2.35-6.49.18 4.11v2.38h-1.8V12.4h2.34zM37.93 18.66l1.2-4.03h1.86l-2.6 7.49-.14.34c-.39.85-1.03 1.27-1.92 1.27-.25 0-.51-.04-.77-.11V22.3l.26.01c.33 0 .57-.05.73-.15.16-.1.29-.27.38-.5l.2-.53-2.27-6.5h1.86l1.21 4.03zM44.71 12.95c0-.26.09-.47.26-.64.17-.17.41-.25.71-.25s.53.08.71.25.26.38.26.64-.09.48-.27.65-.41.25-.7.25-.53-.08-.7-.25a.86.86 0 0 1-.27-.65zm1.84 8.16h-1.74v-6.48h1.74v6.48zM47.7 17.82c0-1.01.23-1.81.68-2.41.45-.6 1.07-.9 1.86-.9.63 0 1.15.24 1.56.71v-3.31h1.74v9.2h-1.56l-.08-.69c-.43.54-.99.81-1.67.81-.76 0-1.37-.3-1.84-.9-.46-.61-.69-1.44-.69-2.51zm1.73.13c0 .61.11 1.07.32 1.4.21.32.52.49.92.49.53 0 .91-.23 1.13-.68V16.6c-.22-.45-.59-.68-1.12-.68-.83-.01-1.25.67-1.25 2.03zM57.87 21.23c-.95 0-1.72-.29-2.32-.87-.6-.58-.9-1.36-.9-2.33v-.17c0-.65.13-1.23.38-1.75s.61-.91 1.07-1.19c.46-.28.99-.42 1.58-.42.89 0 1.58.28 2.09.84.51.56.76 1.35.76 2.38v.71H56.4c.06.42.22.76.51 1.02.28.26.64.38 1.07.38.67 0 1.19-.24 1.56-.72l.85.95c-.26.37-.61.65-1.05.86-.44.2-.94.31-1.47.31zm-.2-5.33c-.34 0-.62.12-.84.35-.21.23-.35.57-.41 1h2.41v-.14c-.01-.38-.11-.68-.31-.89-.2-.21-.48-.32-.85-.32zM63.11 14.63l.05.75c.46-.58 1.08-.87 1.86-.87.69 0 1.2.2 1.53.6.34.4.51 1.01.52 1.81v4.19h-1.73v-4.14c0-.37-.08-.63-.24-.8-.16-.17-.43-.25-.8-.25-.49 0-.85.21-1.1.62v4.57h-1.73v-6.48h1.64zM70.45 13.03v1.59h1.11v1.27h-1.11v3.23c0 .24.05.41.14.51.09.1.27.16.53.16.19 0 .36-.01.51-.04v1.31c-.34.1-.69.16-1.05.16-1.21 0-1.83-.61-1.86-1.84V15.9h-.95v-1.27h.95v-1.59h1.73zM72.51 12.95c0-.26.09-.47.26-.64.17-.17.41-.25.71-.25s.53.08.71.25.26.38.26.64-.09.48-.27.65-.41.25-.7.25-.53-.08-.7-.25a.86.86 0 0 1-.27-.65zm1.84 8.16h-1.74v-6.48h1.74v6.48zM77.85 13.03v1.59h1.11v1.27h-1.11v3.23c0 .24.05.41.14.51.09.1.27.16.53.16.19 0 .36-.01.51-.04v1.31c-.34.1-.69.16-1.05.16-1.21 0-1.83-.61-1.86-1.84V15.9h-.95v-1.27h.95v-1.59h1.73zM82.34 18.66l1.2-4.03h1.86l-2.6 7.49-.14.34c-.39.85-1.03 1.27-1.92 1.27-.25 0-.51-.04-.77-.11V22.3l.26.01c.33 0 .57-.05.73-.15.16-.1.29-.27.38-.5l.2-.53-2.27-6.5h1.86l1.21 4.03zM91.83 19.83c.32 0 .58-.09.78-.26s.3-.41.31-.7h1.62c0 .44-.12.84-.36 1.21s-.56.65-.97.85-.86.3-1.36.3c-.93 0-1.66-.29-2.19-.88s-.8-1.4-.8-2.44v-.11c0-1 .27-1.79.8-2.39.53-.6 1.26-.89 2.19-.89.81 0 1.46.23 1.95.69.49.46.74 1.07.75 1.84h-1.62c-.01-.34-.11-.61-.31-.82-.2-.21-.46-.32-.79-.32-.4 0-.71.15-.91.44-.21.29-.31.77-.31 1.43v.18c0 .67.1 1.15.31 1.44s.49.43.91.43zM99.28 21.11c-.08-.16-.14-.35-.17-.58-.42.47-.96.7-1.64.7-.63 0-1.16-.18-1.58-.55a1.77 1.77 0 0 1-.63-1.39c0-.69.25-1.21.76-1.58.51-.37 1.24-.55 2.21-.56h.8v-.37c0-.3-.08-.54-.23-.72-.15-.18-.4-.27-.73-.27-.29 0-.52.07-.69.21-.17.14-.25.33-.25.58H95.4c0-.38.12-.72.35-1.04.23-.32.56-.57.98-.75s.9-.27 1.43-.27c.8 0 1.43.2 1.9.6s.7.97.7 1.69v2.81c0 .61.09 1.08.26 1.4v.1h-1.74zm-1.43-1.21c.26 0 .49-.06.71-.17.22-.11.38-.27.48-.46v-1.11h-.65c-.87 0-1.33.3-1.38.9l-.01.1c0 .22.08.39.23.53.15.14.36.21.62.21zM103.7 14.63l.05.75c.46-.58 1.08-.87 1.86-.87.69 0 1.2.2 1.53.6.34.4.51 1.01.52 1.81v4.19h-1.73v-4.14c0-.37-.08-.63-.24-.8-.16-.17-.43-.25-.8-.25-.49 0-.85.21-1.1.62v4.57h-1.73v-6.48h1.64zM109.06 20.25c0-.28.09-.5.28-.67.19-.17.42-.26.7-.26.28 0 .52.09.7.26.19.17.28.4.28.67s-.09.49-.28.66c-.18.17-.42.25-.71.25-.28 0-.52-.08-.7-.25-.18-.16-.27-.38-.27-.66zM112.63 20.25c0-.28.09-.5.28-.67.19-.17.42-.26.7-.26.28 0 .52.09.7.26.19.17.28.4.28.67s-.09.49-.28.66c-.18.17-.42.25-.71.25-.28 0-.52-.08-.7-.25-.18-.16-.27-.38-.27-.66zM116.19 20.25c0-.28.09-.5.28-.67.19-.17.42-.26.7-.26.28 0 .52.09.7.26.19.17.28.4.28.67s-.09.49-.28.66c-.18.17-.42.25-.71.25-.28 0-.52-.08-.7-.25-.18-.16-.27-.38-.27-.66z"/></svg>