<?xml version="1.0" encoding="utf-8"?>
<!-- Generator: Adobe Illustrator 24.2.3, SVG Export Plug-In . SVG Version: 6.00 Build 0)  -->
<svg version="1.1" id="Layer_1" xmlns="http://www.w3.org/2000/svg" xmlns:xlink="http://www.w3.org/1999/xlink" x="0px" y="0px"
	 viewBox="0 0 300 250" style="enable-background:new 0 0 300 250;" xml:space="preserve">
<style type="text/css">
	.st0{fill:#021D8B;}
</style>
<g>
	<path class="st0" d="M32.16,155.19l1.48,0.8c-0.55,0.99-0.83,1.92-0.85,2.78v1.78h-2.47v-1.66c0.01-0.61,0.19-1.26,0.54-1.96
		C31.21,156.23,31.65,155.65,32.16,155.19z"/>
	<path class="st0" d="M46.93,159.11h-4.38V171h-3.52v-11.89h-4.3v-2.72h12.21V159.11z"/>
	<path class="st0" d="M48.24,157.34c0-0.48,0.17-0.88,0.52-1.18c0.35-0.31,0.8-0.46,1.35-0.46c0.56,0,1.01,0.15,1.35,0.46
		c0.35,0.31,0.52,0.7,0.52,1.18s-0.17,0.88-0.52,1.18c-0.35,0.31-0.8,0.46-1.35,0.46c-0.55,0-1.01-0.15-1.35-0.46
		C48.41,158.22,48.24,157.83,48.24,157.34z M51.83,171h-3.39v-10.86h3.39V171z"/>
	<path class="st0" d="M59.6,167.95c0-0.29-0.15-0.52-0.45-0.69s-0.87-0.35-1.72-0.54s-1.54-0.43-2.09-0.74s-0.97-0.67-1.25-1.11
		c-0.29-0.44-0.43-0.93-0.43-1.5c0-1,0.41-1.82,1.23-2.46c0.82-0.65,1.9-0.97,3.23-0.97c1.43,0,2.58,0.32,3.45,0.97
		c0.87,0.65,1.3,1.5,1.3,2.56h-3.39c0-0.87-0.46-1.3-1.37-1.3c-0.36,0-0.65,0.1-0.89,0.3c-0.24,0.2-0.36,0.44-0.36,0.74
		c0,0.3,0.15,0.54,0.44,0.73c0.29,0.19,0.76,0.34,1.41,0.46c0.65,0.12,1.21,0.26,1.7,0.43c1.63,0.56,2.45,1.57,2.45,3.02
		c0,0.99-0.44,1.8-1.32,2.42s-2.02,0.93-3.42,0.93c-0.93,0-1.76-0.17-2.49-0.5c-0.73-0.33-1.3-0.79-1.71-1.37
		c-0.41-0.57-0.61-1.18-0.61-1.82h3.16c0.01,0.5,0.18,0.87,0.5,1.1c0.32,0.23,0.73,0.35,1.23,0.35c0.46,0,0.81-0.09,1.04-0.28
		C59.48,168.5,59.6,168.25,59.6,167.95z"/>
	<path class="st0" d="M73.49,157.45v2.7h1.79v2.35h-1.79v4.97c0,0.41,0.07,0.69,0.22,0.85c0.15,0.16,0.44,0.24,0.87,0.24
		c0.33,0,0.62-0.02,0.84-0.06v2.42c-0.61,0.19-1.24,0.29-1.91,0.29c-1.16,0-2.02-0.27-2.58-0.82c-0.56-0.55-0.83-1.38-0.83-2.5
		v-5.39h-1.38v-2.35h1.38v-2.7H73.49z"/>
	<path class="st0" d="M79.91,161.31c0.72-0.91,1.65-1.36,2.77-1.36c1.2,0,2.1,0.35,2.71,1.06s0.92,1.76,0.93,3.14V171h-3.39v-6.77
		c0-0.58-0.12-1-0.35-1.27c-0.23-0.27-0.63-0.41-1.19-0.41c-0.7,0-1.19,0.22-1.48,0.66V171h-3.38v-15.41h3.38V161.31z"/>
	<path class="st0" d="M93.46,171.2c-1.67,0-3.01-0.5-4.04-1.49s-1.54-2.29-1.54-3.88v-0.28c0-1.11,0.21-2.09,0.62-2.94
		c0.41-0.85,1.01-1.51,1.8-1.97c0.79-0.46,1.73-0.7,2.81-0.7c1.52,0,2.73,0.47,3.61,1.42s1.32,2.27,1.32,3.96v1.31h-6.72
		c0.12,0.61,0.38,1.09,0.79,1.43c0.41,0.35,0.94,0.52,1.59,0.52c1.07,0,1.91-0.37,2.51-1.12l1.54,1.83
		c-0.42,0.58-1.02,1.05-1.79,1.39C95.18,171.03,94.35,171.2,93.46,171.2z M93.08,162.55c-0.99,0-1.58,0.66-1.77,1.97h3.41v-0.26
		c0.01-0.54-0.12-0.96-0.41-1.26C94.02,162.7,93.61,162.55,93.08,162.55z"/>
	<path class="st0" d="M110.19,167.95c0-0.29-0.15-0.52-0.45-0.69s-0.87-0.35-1.72-0.54s-1.54-0.43-2.09-0.74s-0.97-0.67-1.25-1.11
		c-0.29-0.44-0.43-0.93-0.43-1.5c0-1,0.41-1.82,1.23-2.46c0.82-0.65,1.9-0.97,3.23-0.97c1.43,0,2.58,0.32,3.45,0.97
		c0.87,0.65,1.3,1.5,1.3,2.56h-3.39c0-0.87-0.46-1.3-1.37-1.3c-0.36,0-0.65,0.1-0.89,0.3c-0.24,0.2-0.36,0.44-0.36,0.74
		c0,0.3,0.15,0.54,0.44,0.73c0.29,0.19,0.76,0.34,1.41,0.46c0.65,0.12,1.21,0.26,1.7,0.43c1.63,0.56,2.45,1.57,2.45,3.02
		c0,0.99-0.44,1.8-1.32,2.42s-2.02,0.93-3.42,0.93c-0.93,0-1.76-0.17-2.49-0.5c-0.73-0.33-1.3-0.79-1.71-1.37
		c-0.41-0.57-0.61-1.18-0.61-1.82h3.16c0.01,0.5,0.18,0.87,0.5,1.1c0.32,0.23,0.73,0.35,1.23,0.35c0.46,0,0.81-0.09,1.04-0.28
		C110.08,168.5,110.19,168.25,110.19,167.95z"/>
	<path class="st0" d="M120.29,171.2c-1.67,0-3.01-0.5-4.04-1.49s-1.54-2.29-1.54-3.88v-0.28c0-1.11,0.21-2.09,0.62-2.94
		c0.41-0.85,1.01-1.51,1.8-1.97c0.79-0.46,1.73-0.7,2.81-0.7c1.52,0,2.73,0.47,3.61,1.42s1.32,2.27,1.32,3.96v1.31h-6.72
		c0.12,0.61,0.38,1.09,0.79,1.43c0.41,0.35,0.94,0.52,1.59,0.52c1.07,0,1.91-0.37,2.51-1.12l1.54,1.83
		c-0.42,0.58-1.02,1.05-1.79,1.39C122.01,171.03,121.18,171.2,120.29,171.2z M119.91,162.55c-0.99,0-1.58,0.66-1.77,1.97h3.41v-0.26
		c0.01-0.54-0.12-0.96-0.41-1.26C120.85,162.7,120.44,162.55,119.91,162.55z"/>
	<path class="st0" d="M132.34,171c-0.12-0.22-0.23-0.54-0.32-0.97c-0.62,0.78-1.49,1.17-2.61,1.17c-1.02,0-1.89-0.31-2.61-0.93
		c-0.72-0.62-1.07-1.4-1.07-2.33c0-1.18,0.43-2.07,1.3-2.67c0.87-0.6,2.13-0.9,3.79-0.9h1.04v-0.58c0-1-0.43-1.5-1.29-1.5
		c-0.8,0-1.2,0.4-1.2,1.19h-3.38c0-1.05,0.45-1.9,1.34-2.55c0.89-0.66,2.03-0.98,3.42-0.98c1.38,0,2.48,0.34,3.28,1.01
		s1.21,1.6,1.23,2.78v4.81c0.01,1,0.17,1.76,0.46,2.29V171H132.34z M130.22,168.79c0.42,0,0.77-0.09,1.05-0.27
		c0.28-0.18,0.48-0.38,0.6-0.61v-1.74h-0.98c-1.18,0-1.77,0.53-1.77,1.58c0,0.31,0.1,0.56,0.31,0.75
		C129.64,168.7,129.9,168.79,130.22,168.79z"/>
	<path class="st0" d="M142.81,167.95c0-0.29-0.15-0.52-0.45-0.69s-0.87-0.35-1.72-0.54s-1.54-0.43-2.09-0.74s-0.97-0.67-1.25-1.11
		c-0.29-0.44-0.43-0.93-0.43-1.5c0-1,0.41-1.82,1.23-2.46c0.82-0.65,1.9-0.97,3.23-0.97c1.43,0,2.58,0.32,3.45,0.97
		c0.87,0.65,1.3,1.5,1.3,2.56h-3.39c0-0.87-0.46-1.3-1.37-1.3c-0.36,0-0.65,0.1-0.89,0.3c-0.24,0.2-0.36,0.44-0.36,0.74
		c0,0.3,0.15,0.54,0.44,0.73c0.29,0.19,0.76,0.34,1.41,0.46c0.65,0.12,1.21,0.26,1.7,0.43c1.63,0.56,2.45,1.57,2.45,3.02
		c0,0.99-0.44,1.8-1.32,2.42s-2.02,0.93-3.42,0.93c-0.93,0-1.76-0.17-2.49-0.5c-0.73-0.33-1.3-0.79-1.71-1.37
		c-0.41-0.57-0.61-1.18-0.61-1.82h3.16c0.01,0.5,0.18,0.87,0.5,1.1c0.32,0.23,0.73,0.35,1.23,0.35c0.46,0,0.81-0.09,1.04-0.28
		C142.7,168.5,142.81,168.25,142.81,167.95z"/>
	<path class="st0" d="M147.23,165.47c0-1.08,0.21-2.05,0.63-2.89c0.42-0.85,1.03-1.5,1.82-1.95c0.79-0.46,1.72-0.68,2.78-0.68
		c1.62,0,2.91,0.5,3.84,1.51s1.4,2.38,1.4,4.11v0.12c0,1.69-0.47,3.04-1.41,4.03s-2.21,1.49-3.82,1.49c-1.55,0-2.79-0.46-3.72-1.39
		c-0.94-0.93-1.44-2.18-1.51-3.77L147.23,165.47z M150.61,165.68c0,1,0.16,1.74,0.47,2.21c0.31,0.47,0.78,0.7,1.39,0.7
		c1.2,0,1.82-0.93,1.85-2.78v-0.34c0-1.95-0.62-2.92-1.87-2.92c-1.13,0-1.74,0.84-1.84,2.52L150.61,165.68z"/>
	<path class="st0" d="M162.3,160.14l0.11,1.27c0.75-0.98,1.78-1.47,3.1-1.47c1.13,0,1.98,0.34,2.53,1.01
		c0.56,0.68,0.85,1.69,0.87,3.05V171h-3.39v-6.85c0-0.55-0.11-0.95-0.33-1.21s-0.62-0.39-1.2-0.39c-0.66,0-1.15,0.26-1.48,0.78V171
		h-3.38v-10.86H162.3z"/>
	<path class="st0" d="M184.81,165.2H170.7v-2.65h14.11V165.2z"/>
	<path class="st0" d="M196.32,165.66c0,1.78-0.37,3.15-1.1,4.1c-0.74,0.96-1.77,1.43-3.11,1.43c-1.1,0-1.99-0.44-2.67-1.31
		L189.3,171h-3.03v-15.41h3.38v5.43c0.63-0.72,1.44-1.07,2.44-1.07c1.35,0,2.39,0.49,3.13,1.46s1.1,2.33,1.1,4.09V165.66z
		 M192.93,165.45c0-1.04-0.14-1.78-0.42-2.23c-0.28-0.44-0.7-0.67-1.28-0.67c-0.76,0-1.29,0.29-1.58,0.87v4.31
		c0.29,0.57,0.82,0.86,1.61,0.86c0.8,0,1.3-0.39,1.51-1.16C192.88,167.05,192.93,166.39,192.93,165.45z"/>
	<path class="st0" d="M204.28,169.83c-0.72,0.92-1.68,1.37-2.9,1.37c-1.19,0-2.09-0.35-2.7-1.04c-0.61-0.69-0.92-1.69-0.92-2.98
		v-7.03h3.38v7.05c0,0.93,0.45,1.39,1.35,1.39c0.78,0,1.33-0.28,1.66-0.83v-7.62h3.4V171h-3.17L204.28,169.83z"/>
	<path class="st0" d="M213.34,157.45v2.7h1.79v2.35h-1.79v4.97c0,0.41,0.07,0.69,0.22,0.85c0.15,0.16,0.44,0.24,0.87,0.24
		c0.33,0,0.62-0.02,0.84-0.06v2.42c-0.61,0.19-1.24,0.29-1.91,0.29c-1.16,0-2.02-0.27-2.58-0.82c-0.56-0.55-0.83-1.38-0.83-2.5
		v-5.39h-1.38v-2.35h1.38v-2.7H213.34z"/>
	<path class="st0" d="M224.67,160.14l0.11,1.27c0.75-0.98,1.78-1.47,3.1-1.47c1.13,0,1.98,0.34,2.53,1.01
		c0.56,0.68,0.85,1.69,0.87,3.05V171h-3.39v-6.85c0-0.55-0.11-0.95-0.33-1.21s-0.62-0.39-1.2-0.39c-0.66,0-1.15,0.26-1.48,0.78V171
		h-3.38v-10.86H224.67z"/>
	<path class="st0" d="M232.73,165.47c0-1.08,0.21-2.05,0.63-2.89c0.42-0.85,1.03-1.5,1.82-1.95c0.79-0.46,1.72-0.68,2.78-0.68
		c1.62,0,2.91,0.5,3.84,1.51s1.4,2.38,1.4,4.11v0.12c0,1.69-0.47,3.04-1.41,4.03s-2.21,1.49-3.82,1.49c-1.55,0-2.79-0.46-3.72-1.39
		c-0.94-0.93-1.44-2.18-1.51-3.77L232.73,165.47z M236.11,165.68c0,1,0.16,1.74,0.47,2.21c0.31,0.47,0.78,0.7,1.39,0.7
		c1.2,0,1.82-0.93,1.85-2.78v-0.34c0-1.95-0.62-2.92-1.87-2.92c-1.13,0-1.74,0.84-1.84,2.52L236.11,165.68z"/>
	<path class="st0" d="M248.63,157.45v2.7h1.79v2.35h-1.79v4.97c0,0.41,0.07,0.69,0.22,0.85c0.15,0.16,0.44,0.24,0.87,0.24
		c0.33,0,0.62-0.02,0.84-0.06v2.42c-0.61,0.19-1.24,0.29-1.91,0.29c-1.16,0-2.02-0.27-2.58-0.82c-0.56-0.55-0.83-1.38-0.83-2.5
		v-5.39h-1.38v-2.35h1.38v-2.7H248.63z"/>
	<path class="st0" d="M65.3,195.66v-8.51h-1.58v-2.35h1.58v-0.86c0-1.24,0.37-2.2,1.09-2.88c0.73-0.68,1.75-1.02,3.07-1.02
		c0.48,0,1.01,0.07,1.58,0.21l0.01,2.49c-0.21-0.06-0.49-0.09-0.83-0.09c-1.02,0-1.54,0.44-1.54,1.33v0.83h2.12v2.35H68.7v8.51H65.3
		z"/>
	<path class="st0" d="M71.58,190.13c0-1.08,0.21-2.05,0.63-2.89c0.42-0.85,1.03-1.5,1.82-1.95c0.79-0.46,1.72-0.68,2.78-0.68
		c1.62,0,2.91,0.5,3.84,1.51s1.4,2.38,1.4,4.11v0.12c0,1.69-0.47,3.04-1.41,4.03s-2.21,1.49-3.82,1.49c-1.55,0-2.79-0.46-3.72-1.39
		c-0.94-0.93-1.44-2.18-1.51-3.77L71.58,190.13z M74.96,190.34c0,1,0.16,1.74,0.47,2.21c0.31,0.47,0.78,0.7,1.39,0.7
		c1.2,0,1.82-0.93,1.85-2.78v-0.34c0-1.95-0.62-2.92-1.87-2.92c-1.13,0-1.74,0.84-1.84,2.52L74.96,190.34z"/>
	<path class="st0" d="M90.11,187.86l-1.11-0.08c-1.06,0-1.75,0.33-2.05,1v6.87h-3.38V184.8h3.17l0.11,1.4
		c0.57-1.06,1.36-1.6,2.38-1.6c0.36,0,0.68,0.04,0.94,0.12L90.11,187.86z"/>
	<path class="st0" d="M96.42,182c0-0.48,0.17-0.88,0.52-1.18c0.35-0.31,0.8-0.46,1.35-0.46c0.56,0,1.01,0.15,1.35,0.46
		c0.35,0.31,0.52,0.7,0.52,1.18s-0.17,0.88-0.52,1.18c-0.35,0.31-0.8,0.46-1.35,0.46c-0.55,0-1.01-0.15-1.35-0.46
		C96.59,182.88,96.42,182.48,96.42,182z M100.01,195.66h-3.39V184.8h3.39V195.66z"/>
	<path class="st0" d="M101.67,190.15c0-1.72,0.37-3.07,1.11-4.06c0.74-0.99,1.78-1.48,3.11-1.48c0.97,0,1.79,0.38,2.45,1.14v-5.5
		h3.39v15.41h-3.04l-0.17-1.16c-0.7,0.91-1.58,1.36-2.65,1.36c-1.29,0-2.31-0.49-3.07-1.48S101.67,191.98,101.67,190.15z
		 M105.05,190.36c0,1.93,0.56,2.89,1.69,2.89c0.75,0,1.28-0.31,1.61-0.94v-4.13c-0.31-0.64-0.84-0.96-1.59-0.96
		c-1.04,0-1.61,0.84-1.7,2.53L105.05,190.36z"/>
	<path class="st0" d="M118.9,195.86c-1.67,0-3.01-0.5-4.04-1.49s-1.54-2.29-1.54-3.88v-0.28c0-1.11,0.21-2.09,0.62-2.94
		c0.41-0.85,1.01-1.51,1.8-1.97c0.79-0.46,1.73-0.7,2.81-0.7c1.52,0,2.73,0.47,3.61,1.42s1.32,2.27,1.32,3.96v1.31h-6.72
		c0.12,0.61,0.38,1.09,0.79,1.43c0.41,0.35,0.94,0.52,1.59,0.52c1.07,0,1.91-0.37,2.51-1.12l1.54,1.83
		c-0.42,0.58-1.02,1.05-1.79,1.39C120.62,195.69,119.79,195.86,118.9,195.86z M118.52,187.21c-0.99,0-1.58,0.66-1.77,1.97h3.41
		v-0.26c0.01-0.54-0.12-0.96-0.41-1.26C119.47,187.36,119.06,187.21,118.52,187.21z"/>
	<path class="st0" d="M127.94,184.8l0.11,1.27c0.75-0.98,1.78-1.47,3.1-1.47c1.13,0,1.98,0.34,2.53,1.01
		c0.56,0.68,0.85,1.69,0.87,3.05v6.99h-3.39v-6.85c0-0.55-0.11-0.95-0.33-1.21s-0.62-0.39-1.2-0.39c-0.66,0-1.15,0.26-1.48,0.78
		v7.67h-3.38V184.8H127.94z"/>
	<path class="st0" d="M140.36,182.1v2.7h1.79v2.35h-1.79v4.97c0,0.41,0.07,0.69,0.22,0.85c0.15,0.16,0.44,0.24,0.87,0.24
		c0.33,0,0.62-0.02,0.84-0.06v2.42c-0.61,0.19-1.24,0.29-1.91,0.29c-1.16,0-2.02-0.27-2.58-0.82c-0.56-0.55-0.83-1.38-0.83-2.5
		v-5.39h-1.38v-2.35h1.38v-2.7H140.36z"/>
	<path class="st0" d="M143.45,182c0-0.48,0.17-0.88,0.52-1.18c0.35-0.31,0.8-0.46,1.35-0.46c0.56,0,1.01,0.15,1.35,0.46
		c0.35,0.31,0.52,0.7,0.52,1.18s-0.17,0.88-0.52,1.18c-0.35,0.31-0.8,0.46-1.35,0.46c-0.55,0-1.01-0.15-1.35-0.46
		C143.63,182.88,143.45,182.48,143.45,182z M147.05,195.66h-3.39V184.8h3.39V195.66z"/>
	<path class="st0" d="M153.07,182.1v2.7h1.79v2.35h-1.79v4.97c0,0.41,0.07,0.69,0.22,0.85c0.15,0.16,0.44,0.24,0.87,0.24
		c0.33,0,0.62-0.02,0.84-0.06v2.42c-0.61,0.19-1.24,0.29-1.91,0.29c-1.16,0-2.02-0.27-2.58-0.82c-0.56-0.55-0.83-1.38-0.83-2.5
		v-5.39h-1.38v-2.35h1.38v-2.7H153.07z"/>
	<path class="st0" d="M160.52,190.92l1.81-6.12h3.62l-4.42,12.67l-0.19,0.46c-0.63,1.41-1.74,2.11-3.33,2.11
		c-0.44,0-0.91-0.07-1.39-0.2v-2.41h0.44c0.47,0,0.84-0.07,1.09-0.21c0.25-0.14,0.44-0.38,0.56-0.74l0.27-0.72l-3.77-10.97h3.61
		L160.52,190.92z"/>
	<path class="st0" d="M175.88,182.1v2.7h1.79v2.35h-1.79v4.97c0,0.41,0.07,0.69,0.22,0.85c0.15,0.16,0.44,0.24,0.87,0.24
		c0.33,0,0.62-0.02,0.84-0.06v2.42c-0.61,0.19-1.24,0.29-1.91,0.29c-1.16,0-2.02-0.27-2.58-0.82c-0.56-0.55-0.83-1.38-0.83-2.5
		v-5.39h-1.38v-2.35h1.38v-2.7H175.88z"/>
	<path class="st0" d="M182.3,185.97c0.72-0.91,1.65-1.36,2.77-1.36c1.2,0,2.1,0.35,2.71,1.06s0.92,1.76,0.93,3.14v6.85h-3.39v-6.77
		c0-0.58-0.12-1-0.35-1.27c-0.23-0.27-0.63-0.41-1.19-0.41c-0.7,0-1.19,0.22-1.48,0.66v7.79h-3.38v-15.41h3.38V185.97z"/>
	<path class="st0" d="M195.85,195.86c-1.67,0-3.01-0.5-4.04-1.49s-1.54-2.29-1.54-3.88v-0.28c0-1.11,0.21-2.09,0.62-2.94
		c0.41-0.85,1.01-1.51,1.8-1.97c0.79-0.46,1.73-0.7,2.81-0.7c1.52,0,2.73,0.47,3.61,1.42s1.32,2.27,1.32,3.96v1.31h-6.72
		c0.12,0.61,0.38,1.09,0.79,1.43c0.41,0.35,0.94,0.52,1.59,0.52c1.07,0,1.91-0.37,2.51-1.12l1.54,1.83
		c-0.42,0.58-1.02,1.05-1.79,1.39C197.57,195.69,196.74,195.86,195.85,195.86z M195.47,187.21c-0.99,0-1.58,0.66-1.77,1.97h3.41
		v-0.26c0.01-0.54-0.12-0.96-0.41-1.26C196.41,187.36,196,187.21,195.47,187.21z"/>
	<path class="st0" d="M202.53,195.66v-8.51h-1.58v-2.35h1.58v-0.86c0-1.24,0.37-2.2,1.09-2.88c0.73-0.68,1.75-1.02,3.07-1.02
		c0.48,0,1.01,0.07,1.58,0.21l0.01,2.49c-0.21-0.06-0.49-0.09-0.83-0.09c-1.02,0-1.54,0.44-1.54,1.33v0.83h2.12v2.35h-2.12v8.51
		H202.53z"/>
	<path class="st0" d="M213.17,182.1v2.7h1.79v2.35h-1.79v4.97c0,0.41,0.07,0.69,0.22,0.85c0.15,0.16,0.44,0.24,0.87,0.24
		c0.33,0,0.62-0.02,0.84-0.06v2.42c-0.61,0.19-1.24,0.29-1.91,0.29c-1.16,0-2.02-0.27-2.58-0.82c-0.56-0.55-0.83-1.38-0.83-2.5
		v-5.39h-1.38v-2.35h1.38v-2.7H213.17z"/>
	<path class="st0" d="M218.37,192.38c0.54,0,0.98,0.16,1.33,0.48c0.35,0.32,0.53,0.72,0.53,1.22s-0.18,0.9-0.53,1.22
		c-0.36,0.32-0.8,0.48-1.33,0.48c-0.54,0-0.99-0.16-1.34-0.48c-0.35-0.32-0.53-0.73-0.53-1.21s0.18-0.89,0.53-1.21
		C217.38,192.54,217.83,192.38,218.37,192.38z"/>
</g>
</svg>
