<?xml version="1.0" encoding="utf-8"?>
<!-- Generator: Adobe Illustrator 24.2.3, SVG Export Plug-In . SVG Version: 6.00 Build 0)  -->
<svg version="1.1" id="Layer_1" xmlns="http://www.w3.org/2000/svg" xmlns:xlink="http://www.w3.org/1999/xlink" x="0px" y="0px"
	 viewBox="0 0 300 250" style="enable-background:new 0 0 300 250;" xml:space="preserve">
<style type="text/css">
	.st0{fill:#FFFFFF;}
	.st1{font-family:'Roboto-Bold';}
	.st2{font-size:14px;}
</style>
<g>
	<path class="st0" d="M125.15,102.79c-0.12,1.68-0.74,3.01-1.86,3.97c-1.12,0.97-2.6,1.45-4.43,1.45c-2,0-3.58-0.67-4.73-2.03
		c-1.15-1.35-1.72-3.2-1.72-5.56v-0.96c0-1.5,0.26-2.83,0.79-3.97c0.53-1.15,1.29-2.02,2.27-2.64c0.99-0.61,2.13-0.92,3.43-0.92
		c1.8,0,3.26,0.48,4.36,1.45s1.74,2.32,1.91,4.07h-3.22c-0.08-1.01-0.36-1.74-0.84-2.2c-0.48-0.45-1.22-0.68-2.21-0.68
		c-1.07,0-1.88,0.39-2.41,1.15c-0.53,0.77-0.81,1.96-0.82,3.58v1.18c0,1.69,0.26,2.93,0.77,3.71c0.51,0.78,1.32,1.17,2.42,1.17
		c1,0,1.74-0.23,2.23-0.68c0.49-0.45,0.77-1.16,0.84-2.11H125.15z"/>
	<path class="st0" d="M126.57,102.08c0-1.15,0.22-2.18,0.67-3.08s1.08-1.6,1.92-2.09c0.83-0.49,1.8-0.74,2.91-0.74
		c1.57,0,2.85,0.48,3.84,1.44c0.99,0.96,1.54,2.26,1.66,3.91l0.02,0.79c0,1.78-0.5,3.21-1.49,4.29c-1,1.08-2.33,1.62-4.01,1.62
		s-3.01-0.54-4.01-1.61c-1-1.07-1.5-2.54-1.5-4.38V102.08z M129.68,102.3c0,1.1,0.21,1.95,0.62,2.53c0.42,0.58,1.01,0.88,1.78,0.88
		c0.75,0,1.34-0.29,1.76-0.87s0.63-1.5,0.63-2.77c0-1.08-0.21-1.92-0.63-2.52s-1.02-0.89-1.78-0.89c-0.76,0-1.35,0.3-1.76,0.89
		S129.68,101.06,129.68,102.3z"/>
	<path class="st0" d="M142.35,96.38l0.1,1.34c0.83-1.04,1.94-1.56,3.34-1.56c1.23,0,2.15,0.36,2.75,1.08
		c0.6,0.72,0.91,1.8,0.92,3.24V108h-3.1v-7.43c0-0.66-0.14-1.14-0.43-1.43c-0.29-0.3-0.76-0.45-1.43-0.45
		c-0.87,0-1.53,0.37-1.97,1.12v8.2h-3.1V96.38H142.35z"/>
	<path class="st0" d="M158.11,104.79c0-0.38-0.19-0.68-0.56-0.9c-0.38-0.22-0.98-0.41-1.81-0.58c-2.76-0.58-4.15-1.75-4.15-3.52
		c0-1.03,0.43-1.89,1.28-2.58c0.86-0.69,1.98-1.04,3.36-1.04c1.48,0,2.66,0.35,3.54,1.04c0.88,0.69,1.33,1.6,1.33,2.71H158
		c0-0.44-0.14-0.81-0.43-1.1s-0.73-0.44-1.34-0.44c-0.52,0-0.93,0.12-1.21,0.35s-0.43,0.54-0.43,0.9c0,0.34,0.16,0.62,0.49,0.83
		c0.33,0.21,0.88,0.39,1.65,0.55c0.77,0.15,1.42,0.33,1.96,0.52c1.64,0.6,2.46,1.64,2.46,3.13c0,1.06-0.46,1.92-1.36,2.57
		c-0.91,0.65-2.08,0.98-3.52,0.98c-0.97,0-1.84-0.17-2.59-0.52c-0.75-0.35-1.35-0.82-1.78-1.43c-0.43-0.61-0.64-1.26-0.64-1.96h2.94
		c0.03,0.55,0.23,0.97,0.61,1.27s0.89,0.44,1.53,0.44c0.59,0,1.04-0.11,1.35-0.34C157.96,105.45,158.11,105.15,158.11,104.79z"/>
	<path class="st0" d="M170.09,106.82c-0.77,0.93-1.83,1.4-3.18,1.4c-1.25,0-2.2-0.36-2.85-1.07c-0.65-0.72-0.99-1.77-1-3.15v-7.62
		h3.1v7.52c0,1.21,0.55,1.82,1.65,1.82c1.05,0,1.78-0.37,2.17-1.1v-8.24h3.12V108h-2.92L170.09,106.82z"/>
	<path class="st0" d="M178.35,96.38l0.1,1.3c0.82-1.01,1.94-1.51,3.34-1.51c1.5,0,2.52,0.59,3.08,1.77
		c0.82-1.18,1.98-1.77,3.49-1.77c1.26,0,2.2,0.37,2.81,1.1c0.62,0.73,0.92,1.84,0.92,3.31V108h-3.12v-7.41
		c0-0.66-0.13-1.14-0.39-1.44c-0.26-0.3-0.71-0.46-1.36-0.46c-0.93,0-1.58,0.44-1.93,1.33l0.01,7.98h-3.1v-7.4
		c0-0.67-0.13-1.16-0.4-1.46s-0.72-0.45-1.35-0.45c-0.88,0-1.52,0.37-1.91,1.1V108h-3.1V96.38H178.35z"/>
	<path class="st0" d="M199.84,108.21c-1.7,0-3.09-0.52-4.16-1.57c-1.07-1.05-1.61-2.44-1.61-4.18v-0.3c0-1.17,0.23-2.21,0.68-3.13
		c0.45-0.92,1.09-1.63,1.92-2.13c0.83-0.5,1.77-0.75,2.83-0.75c1.59,0,2.84,0.5,3.75,1.5c0.91,1,1.37,2.42,1.37,4.26v1.27h-7.4
		c0.1,0.76,0.4,1.37,0.91,1.83c0.51,0.46,1.14,0.69,1.92,0.69c1.2,0,2.13-0.43,2.8-1.3l1.53,1.71c-0.47,0.66-1.1,1.17-1.89,1.54
		C201.68,108.03,200.8,108.21,199.84,108.21z M199.48,98.67c-0.62,0-1.12,0.21-1.5,0.63c-0.38,0.42-0.63,1.01-0.74,1.79h4.32v-0.25
		c-0.01-0.69-0.2-1.22-0.56-1.6C200.65,98.85,200.14,98.67,199.48,98.67z"/>
	<path class="st0" d="M212.91,99.29c-0.42-0.06-0.79-0.09-1.12-0.09c-1.17,0-1.94,0.4-2.31,1.19V108h-3.1V96.38h2.93l0.09,1.39
		c0.62-1.07,1.49-1.6,2.59-1.6c0.34,0,0.67,0.05,0.97,0.14L212.91,99.29z"/>
	<path class="st0" d="M220.7,104.79c0-0.38-0.19-0.68-0.56-0.9c-0.38-0.22-0.98-0.41-1.81-0.58c-2.76-0.58-4.15-1.75-4.15-3.52
		c0-1.03,0.43-1.89,1.28-2.58c0.86-0.69,1.98-1.04,3.36-1.04c1.48,0,2.66,0.35,3.54,1.04c0.88,0.69,1.33,1.6,1.33,2.71h-3.1
		c0-0.44-0.14-0.81-0.43-1.1s-0.73-0.44-1.34-0.44c-0.52,0-0.93,0.12-1.21,0.35s-0.43,0.54-0.43,0.9c0,0.34,0.16,0.62,0.49,0.83
		c0.33,0.21,0.88,0.39,1.65,0.55c0.77,0.15,1.42,0.33,1.96,0.52c1.64,0.6,2.46,1.64,2.46,3.13c0,1.06-0.46,1.92-1.36,2.57
		c-0.91,0.65-2.08,0.98-3.52,0.98c-0.97,0-1.84-0.17-2.59-0.52c-0.75-0.35-1.35-0.82-1.78-1.43c-0.43-0.61-0.64-1.26-0.64-1.96h2.94
		c0.03,0.55,0.23,0.97,0.61,1.27s0.89,0.44,1.53,0.44c0.59,0,1.04-0.11,1.35-0.34C220.54,105.45,220.7,105.15,220.7,104.79z"/>
	<path class="st0" d="M232.04,108v-9.35h-1.73v-2.28h1.73v-0.99c0-1.3,0.37-2.31,1.12-3.03c0.75-0.72,1.79-1.08,3.14-1.08
		c0.43,0,0.96,0.07,1.58,0.21l-0.03,2.41c-0.26-0.06-0.57-0.1-0.95-0.1c-1.17,0-1.75,0.55-1.75,1.64v0.93h2.31v2.28h-2.31V108
		H232.04z"/>
	<path class="st0" d="M245.81,108c-0.14-0.28-0.25-0.63-0.31-1.04c-0.75,0.84-1.73,1.26-2.93,1.26c-1.14,0-2.08-0.33-2.83-0.99
		c-0.75-0.66-1.12-1.49-1.12-2.49c0-1.23,0.46-2.18,1.37-2.84c0.91-0.66,2.23-0.99,3.96-1h1.43v-0.67c0-0.54-0.14-0.97-0.41-1.29
		c-0.28-0.32-0.71-0.48-1.31-0.48c-0.52,0-0.93,0.13-1.23,0.38c-0.3,0.25-0.45,0.59-0.45,1.03h-3.1c0-0.67,0.21-1.3,0.62-1.87
		c0.42-0.57,1-1.02,1.76-1.35c0.76-0.33,1.61-0.49,2.56-0.49c1.43,0,2.57,0.36,3.41,1.08c0.84,0.72,1.26,1.73,1.26,3.03v5.04
		c0.01,1.1,0.16,1.94,0.46,2.5V108H245.81z M243.25,105.84c0.46,0,0.88-0.1,1.27-0.31c0.39-0.21,0.67-0.48,0.86-0.82v-2h-1.16
		c-1.55,0-2.38,0.54-2.48,1.61l-0.01,0.18c0,0.39,0.14,0.71,0.41,0.96S242.77,105.84,243.25,105.84z"/>
	<path class="st0" d="M255.71,105.71c0.57,0,1.04-0.16,1.4-0.47s0.54-0.73,0.56-1.26h2.91c-0.01,0.79-0.22,1.51-0.64,2.16
		c-0.42,0.66-1,1.16-1.73,1.53c-0.73,0.36-1.55,0.54-2.43,0.54c-1.66,0-2.97-0.53-3.93-1.58c-0.96-1.06-1.44-2.52-1.44-4.38v-0.2
		c0-1.79,0.48-3.22,1.43-4.29c0.95-1.07,2.26-1.6,3.92-1.6c1.45,0,2.62,0.41,3.5,1.24c0.88,0.83,1.32,1.93,1.34,3.3h-2.91
		c-0.01-0.6-0.2-1.1-0.56-1.47s-0.83-0.57-1.42-0.57c-0.72,0-1.27,0.26-1.64,0.79c-0.37,0.53-0.55,1.38-0.55,2.57v0.32
		c0,1.2,0.18,2.06,0.55,2.58S254.96,105.71,255.71,105.71z"/>
	<path class="st0" d="M267.69,108.21c-1.7,0-3.09-0.52-4.16-1.57c-1.07-1.05-1.61-2.44-1.61-4.18v-0.3c0-1.17,0.23-2.21,0.68-3.13
		c0.45-0.92,1.09-1.63,1.92-2.13c0.83-0.5,1.77-0.75,2.83-0.75c1.59,0,2.84,0.5,3.75,1.5c0.91,1,1.37,2.42,1.37,4.26v1.27h-7.4
		c0.1,0.76,0.4,1.37,0.91,1.83c0.51,0.46,1.14,0.69,1.92,0.69c1.2,0,2.13-0.43,2.8-1.3l1.53,1.71c-0.47,0.66-1.1,1.17-1.89,1.54
		C269.54,108.03,268.66,108.21,267.69,108.21z M267.34,98.67c-0.62,0-1.12,0.21-1.5,0.63c-0.38,0.42-0.63,1.01-0.74,1.79h4.32v-0.25
		c-0.01-0.69-0.2-1.22-0.56-1.6C268.51,98.85,268,98.67,267.34,98.67z"/>
	<path class="st0" d="M273.75,102.1c0-1.81,0.41-3.25,1.22-4.33c0.81-1.07,1.92-1.61,3.34-1.61c1.13,0,2.07,0.42,2.8,1.27V91.5h3.12
		V108h-2.8l-0.15-1.24c-0.77,0.97-1.77,1.45-2.99,1.45c-1.37,0-2.46-0.54-3.29-1.62C274.17,105.52,273.75,104.02,273.75,102.1z
		 M276.86,102.33c0,1.09,0.19,1.93,0.57,2.51s0.93,0.87,1.65,0.87c0.96,0,1.64-0.41,2.03-1.22V99.9c-0.39-0.81-1.06-1.22-2.01-1.22
		C277.61,98.69,276.86,99.9,276.86,102.33z"/>
	<path class="st0" d="M121.86,136.32c0-0.72-0.18-1.29-0.53-1.7s-0.98-0.8-1.87-1.16s-1.72-0.73-2.47-1.11s-1.41-0.81-1.96-1.3
		s-0.97-1.06-1.26-1.71s-0.44-1.43-0.44-2.35c0-1.54,0.52-2.81,1.56-3.81s2.42-1.58,4.16-1.74v-2.88h2.17v2.94
		c1.67,0.25,2.98,0.93,3.93,2.06s1.43,2.55,1.43,4.29h-4.62c0-0.95-0.18-1.68-0.55-2.19s-0.88-0.77-1.56-0.77
		c-0.6,0-1.07,0.19-1.4,0.57s-0.5,0.9-0.5,1.57c0,0.67,0.19,1.21,0.57,1.61s1,0.77,1.85,1.13s1.65,0.73,2.4,1.12s1.4,0.83,1.95,1.32
		s0.98,1.07,1.29,1.72s0.46,1.44,0.46,2.37c0,1.56-0.49,2.83-1.48,3.81s-2.34,1.56-4.04,1.72v2.75h-2.17v-2.76
		c-1.99-0.21-3.51-0.89-4.57-2.04s-1.59-2.67-1.59-4.56h4.61c0,1.04,0.23,1.83,0.69,2.37s1.11,0.81,1.96,0.81
		c0.62,0,1.11-0.18,1.46-0.55S121.86,136.97,121.86,136.32z"/>
	<path class="st0" d="M133.11,129.72h2.17c1.72,0,2.58-0.84,2.58-2.53c0-0.66-0.21-1.19-0.62-1.61s-0.99-0.62-1.74-0.62
		c-0.61,0-1.14,0.18-1.59,0.53s-0.68,0.8-0.68,1.33h-4.61c0-1.05,0.29-1.98,0.88-2.8s1.39-1.46,2.43-1.92s2.17-0.69,3.41-0.69
		c2.21,0,3.96,0.51,5.22,1.52s1.9,2.4,1.9,4.17c0,0.86-0.26,1.67-0.79,2.43s-1.29,1.38-2.29,1.85c1.06,0.38,1.89,0.96,2.49,1.74
		s0.9,1.74,0.9,2.89c0,1.78-0.68,3.2-2.05,4.27s-3.16,1.6-5.39,1.6c-1.3,0-2.51-0.25-3.63-0.75s-1.96-1.18-2.54-2.06
		s-0.86-1.88-0.86-3h4.63c0,0.61,0.25,1.14,0.74,1.59s1.1,0.67,1.82,0.67c0.81,0,1.46-0.23,1.94-0.68s0.72-1.03,0.72-1.73
		c0-1-0.25-1.71-0.75-2.13s-1.19-0.63-2.08-0.63h-2.24V129.72z"/>
	<path class="st0" d="M148.04,137.13c0.73,0,1.33,0.22,1.82,0.65s0.72,0.99,0.72,1.66s-0.24,1.23-0.72,1.66s-1.09,0.65-1.82,0.65
		c-0.74,0-1.35-0.22-1.83-0.66s-0.72-0.99-0.72-1.65s0.24-1.22,0.72-1.65S147.3,137.13,148.04,137.13z"/>
	<path class="st0" d="M153.85,131.88l1.22-10.18h11.63v3.58h-7.89l-0.45,3.95c0.33-0.19,0.76-0.36,1.29-0.51s1.05-0.22,1.57-0.22
		c1.98,0,3.5,0.59,4.56,1.76s1.59,2.81,1.59,4.93c0,1.28-0.29,2.43-0.85,3.47s-1.37,1.83-2.4,2.39s-2.25,0.83-3.65,0.83
		c-1.25,0-2.42-0.26-3.51-0.77c-1.09-0.51-1.95-1.22-2.57-2.12c-0.62-0.9-0.92-1.91-0.92-3.04h4.62c0.05,0.73,0.28,1.31,0.7,1.73
		c0.42,0.43,0.97,0.64,1.65,0.64c1.55,0,2.32-1.15,2.32-3.44c0-2.12-0.95-3.18-2.84-3.18c-1.08,0-1.88,0.35-2.41,1.04L153.85,131.88
		z"/>
	<path class="st0" d="M190.58,134.33c0,2.42-0.5,4.29-1.5,5.59s-2.42,1.96-4.24,1.96c-1.5,0-2.72-0.6-3.64-1.79l-0.19,1.52h-4.13
		v-21h4.61v7.4c0.86-0.98,1.96-1.46,3.32-1.46c1.84,0,3.26,0.66,4.27,1.98s1.5,3.18,1.5,5.58V134.33z M185.96,134.03
		c0-1.42-0.19-2.43-0.57-3.04c-0.38-0.6-0.96-0.91-1.74-0.91c-1.04,0-1.76,0.4-2.16,1.19v5.87c0.39,0.78,1.12,1.17,2.19,1.17
		c1.08,0,1.77-0.53,2.06-1.58C185.88,136.22,185.96,135.32,185.96,134.03z"/>
	<path class="st0" d="M192.57,122.99c0-0.66,0.24-1.19,0.71-1.61s1.09-0.63,1.85-0.63s1.37,0.21,1.85,0.63s0.71,0.96,0.71,1.61
		s-0.24,1.19-0.71,1.61s-1.09,0.63-1.85,0.63s-1.37-0.21-1.85-0.63S192.57,123.65,192.57,122.99z M197.47,141.6h-4.62v-14.79h4.62
		V141.6z"/>
	<path class="st0" d="M205.16,141.6h-4.62v-21h4.62V141.6z"/>
	<path class="st0" d="M212.86,141.6h-4.62v-21h4.62V141.6z"/>
	<path class="st0" d="M215.66,122.99c0-0.66,0.24-1.19,0.71-1.61s1.09-0.63,1.85-0.63s1.37,0.21,1.85,0.63s0.71,0.96,0.71,1.61
		s-0.24,1.19-0.71,1.61s-1.09,0.63-1.85,0.63s-1.37-0.21-1.85-0.63S215.66,123.65,215.66,122.99z M220.56,141.6h-4.62v-14.79h4.62
		V141.6z"/>
	<path class="st0" d="M222.81,134.07c0-1.48,0.29-2.79,0.86-3.94s1.4-2.04,2.47-2.66s2.34-0.93,3.79-0.93
		c2.21,0,3.96,0.69,5.24,2.06s1.91,3.24,1.91,5.6v0.16c0,2.31-0.64,4.14-1.92,5.49s-3.01,2.03-5.2,2.03c-2.11,0-3.8-0.63-5.07-1.89
		s-1.96-2.97-2.06-5.13L222.81,134.07z M227.42,134.35c0,1.37,0.21,2.37,0.64,3.01s1.06,0.96,1.9,0.96c1.64,0,2.48-1.26,2.52-3.79
		v-0.46c0-2.65-0.85-3.98-2.54-3.98c-1.54,0-2.37,1.14-2.5,3.43L227.42,134.35z"/>
	<path class="st0" d="M243.35,126.81l0.15,1.74c1.02-1.34,2.43-2.01,4.22-2.01c1.54,0,2.69,0.46,3.45,1.38s1.16,2.31,1.18,4.16v9.53
		h-4.62v-9.34c0-0.75-0.15-1.3-0.45-1.65s-0.85-0.53-1.64-0.53c-0.9,0-1.57,0.36-2.01,1.07v10.45h-4.61v-14.79H243.35z"/>
	<path class="st0" d="M112.64,153.37c0-0.47,0.16-0.85,0.47-1.15c0.31-0.3,0.74-0.45,1.27-0.45c0.53,0,0.95,0.15,1.27,0.45
		s0.47,0.68,0.47,1.15c0,0.47-0.16,0.86-0.48,1.16c-0.32,0.3-0.74,0.45-1.26,0.45s-0.94-0.15-1.26-0.45
		C112.8,154.23,112.64,153.84,112.64,153.37z M115.94,168h-3.12v-11.62h3.12V168z"/>
	<path class="st0" d="M121.35,156.38l0.1,1.34c0.83-1.04,1.94-1.56,3.34-1.56c1.23,0,2.15,0.36,2.75,1.08s0.91,1.8,0.92,3.24V168
		h-3.1v-7.43c0-0.66-0.14-1.14-0.43-1.43c-0.29-0.3-0.76-0.45-1.43-0.45c-0.87,0-1.53,0.37-1.97,1.12v8.2h-3.1v-11.62H121.35z"/>
	<path class="st0" d="M135.81,162.08c0-1.15,0.22-2.18,0.67-3.08s1.08-1.6,1.92-2.09c0.83-0.49,1.8-0.74,2.91-0.74
		c1.57,0,2.85,0.48,3.84,1.44c0.99,0.96,1.54,2.26,1.66,3.91l0.02,0.79c0,1.78-0.5,3.21-1.49,4.29c-1,1.08-2.33,1.62-4.01,1.62
		s-3.01-0.54-4.01-1.61c-1-1.07-1.5-2.54-1.5-4.38V162.08z M138.92,162.3c0,1.1,0.21,1.95,0.62,2.53c0.42,0.58,1.01,0.88,1.78,0.88
		c0.75,0,1.34-0.29,1.76-0.87s0.63-1.5,0.63-2.77c0-1.08-0.21-1.92-0.63-2.52c-0.42-0.59-1.02-0.89-1.78-0.89
		c-0.76,0-1.35,0.3-1.76,0.89S138.92,161.06,138.92,162.3z"/>
	<path class="st0" d="M155.7,166.82c-0.77,0.93-1.83,1.4-3.18,1.4c-1.25,0-2.2-0.36-2.85-1.07c-0.65-0.72-0.99-1.77-1-3.15v-7.62
		h3.1v7.52c0,1.21,0.55,1.82,1.65,1.82c1.05,0,1.78-0.37,2.17-1.1v-8.24h3.12V168h-2.92L155.7,166.82z"/>
	<path class="st0" d="M164.76,153.52v2.86h1.99v2.28h-1.99v5.8c0,0.43,0.08,0.74,0.25,0.92s0.48,0.28,0.95,0.28
		c0.34,0,0.65-0.03,0.91-0.08v2.35c-0.61,0.19-1.24,0.28-1.88,0.28c-2.18,0-3.29-1.1-3.33-3.3v-6.26h-1.7v-2.28h1.7v-2.86H164.76z"
		/>
	<path class="st0" d="M174.52,162.55h-6.05v-2.5h6.05V162.55z"/>
	<path class="st0" d="M176.53,162.08c0-1.15,0.22-2.18,0.67-3.08s1.08-1.6,1.92-2.09c0.83-0.49,1.8-0.74,2.91-0.74
		c1.57,0,2.85,0.48,3.84,1.44c0.99,0.96,1.54,2.26,1.66,3.91l0.02,0.79c0,1.78-0.5,3.21-1.49,4.29c-1,1.08-2.33,1.62-4.01,1.62
		s-3.01-0.54-4.01-1.61c-1-1.07-1.5-2.54-1.5-4.38V162.08z M179.63,162.3c0,1.1,0.21,1.95,0.62,2.53c0.42,0.58,1.01,0.88,1.78,0.88
		c0.75,0,1.34-0.29,1.76-0.87s0.63-1.5,0.63-2.77c0-1.08-0.21-1.92-0.63-2.52c-0.42-0.59-1.02-0.89-1.78-0.89
		c-0.76,0-1.35,0.3-1.76,0.89S179.63,161.06,179.63,162.3z"/>
	<path class="st0" d="M190.3,168v-9.35h-1.73v-2.28h1.73v-0.99c0-1.3,0.37-2.31,1.12-3.04c0.75-0.72,1.79-1.08,3.14-1.08
		c0.43,0,0.96,0.07,1.58,0.21l-0.03,2.41c-0.26-0.06-0.57-0.1-0.95-0.1c-1.17,0-1.75,0.55-1.75,1.64v0.93h2.31v2.28h-2.31V168H190.3
		z"/>
	<path class="st0" d="M203.37,162.55h-6.05v-2.5h6.05V162.55z"/>
	<path class="st0" d="M216.33,162.3c0,1.79-0.41,3.22-1.22,4.3c-0.81,1.08-1.91,1.62-3.29,1.62c-1.17,0-2.12-0.41-2.85-1.22v5.48
		h-3.1v-16.09h2.88l0.11,1.14c0.75-0.9,1.73-1.35,2.94-1.35c1.43,0,2.55,0.53,3.34,1.59s1.19,2.52,1.19,4.38V162.3z M213.22,162.07
		c0-1.08-0.19-1.92-0.57-2.5c-0.38-0.59-0.94-0.88-1.67-0.88c-0.97,0-1.64,0.37-2.01,1.12v4.76c0.38,0.77,1.06,1.15,2.03,1.15
		C212.48,165.71,213.22,164.5,213.22,162.07z"/>
	<path class="st0" d="M217.76,162.08c0-1.15,0.22-2.18,0.67-3.08s1.08-1.6,1.92-2.09c0.83-0.49,1.8-0.74,2.91-0.74
		c1.57,0,2.85,0.48,3.84,1.44c0.99,0.96,1.54,2.26,1.66,3.91l0.02,0.79c0,1.78-0.5,3.21-1.49,4.29c-1,1.08-2.33,1.62-4.01,1.62
		s-3.01-0.54-4.01-1.61c-1-1.07-1.5-2.54-1.5-4.38V162.08z M220.87,162.3c0,1.1,0.21,1.95,0.62,2.53c0.42,0.58,1.01,0.88,1.78,0.88
		c0.75,0,1.34-0.29,1.76-0.87s0.63-1.5,0.63-2.77c0-1.08-0.21-1.92-0.63-2.52c-0.42-0.59-1.02-0.89-1.78-0.89
		c-0.76,0-1.35,0.3-1.76,0.89S220.87,161.06,220.87,162.3z"/>
	<path class="st0" d="M235.52,165.71c0.57,0,1.04-0.16,1.4-0.47s0.54-0.73,0.56-1.26h2.91c-0.01,0.79-0.22,1.51-0.64,2.16
		c-0.42,0.66-1,1.16-1.73,1.53c-0.73,0.36-1.55,0.54-2.43,0.54c-1.66,0-2.97-0.53-3.93-1.58c-0.96-1.06-1.44-2.52-1.44-4.38v-0.2
		c0-1.79,0.48-3.22,1.43-4.29s2.26-1.6,3.92-1.6c1.45,0,2.62,0.41,3.5,1.24c0.88,0.83,1.32,1.93,1.34,3.3h-2.91
		c-0.01-0.6-0.2-1.1-0.56-1.47s-0.83-0.57-1.42-0.57c-0.72,0-1.27,0.26-1.64,0.79c-0.37,0.53-0.55,1.38-0.55,2.57v0.32
		c0,1.2,0.18,2.06,0.55,2.58S234.78,165.71,235.52,165.71z"/>
	<path class="st0" d="M246.38,163.34l-1.12,1.12V168h-3.1v-16.5h3.1v9.14l0.6-0.77l2.98-3.49h3.73l-4.2,4.84l4.57,6.78h-3.57
		L246.38,163.34z"/>
	<path class="st0" d="M259.26,168.21c-1.7,0-3.09-0.52-4.16-1.57c-1.07-1.05-1.61-2.44-1.61-4.18v-0.3c0-1.17,0.23-2.21,0.68-3.13
		c0.45-0.92,1.09-1.63,1.92-2.13c0.83-0.5,1.77-0.75,2.83-0.75c1.59,0,2.84,0.5,3.75,1.5c0.91,1,1.37,2.42,1.37,4.26v1.27h-7.4
		c0.1,0.76,0.4,1.37,0.91,1.83c0.51,0.46,1.14,0.69,1.92,0.69c1.2,0,2.13-0.43,2.8-1.3l1.53,1.71c-0.47,0.66-1.1,1.17-1.89,1.54
		C261.11,168.03,260.23,168.21,259.26,168.21z M258.91,158.67c-0.62,0-1.12,0.21-1.5,0.63c-0.38,0.42-0.63,1.01-0.74,1.79h4.32
		v-0.25c-0.01-0.69-0.2-1.22-0.56-1.6S259.57,158.67,258.91,158.67z"/>
	<path class="st0" d="M269.52,153.52v2.86h1.99v2.28h-1.99v5.8c0,0.43,0.08,0.74,0.25,0.92s0.48,0.28,0.95,0.28
		c0.34,0,0.65-0.03,0.91-0.08v2.35c-0.61,0.19-1.24,0.28-1.88,0.28c-2.18,0-3.29-1.1-3.33-3.3v-6.26h-1.7v-2.28h1.7v-2.86H269.52z"
		/>
	<path class="st0" d="M113.51,194.4v-9.35h-1.73v-2.28h1.73v-0.99c0-1.3,0.37-2.31,1.12-3.04c0.75-0.72,1.79-1.08,3.14-1.08
		c0.43,0,0.96,0.07,1.58,0.21l-0.03,2.41c-0.26-0.06-0.57-0.1-0.95-0.1c-1.17,0-1.75,0.55-1.75,1.64v0.93h2.31v2.28h-2.31v9.35
		H113.51z"/>
	<path class="st0" d="M127.08,185.69c-0.42-0.06-0.79-0.09-1.12-0.09c-1.17,0-1.94,0.4-2.31,1.19v7.61h-3.1v-11.62h2.93l0.09,1.39
		c0.62-1.07,1.49-1.6,2.59-1.6c0.34,0,0.67,0.05,0.97,0.14L127.08,185.69z"/>
	<path class="st0" d="M134.99,194.4c-0.14-0.28-0.25-0.63-0.31-1.04c-0.75,0.84-1.73,1.26-2.93,1.26c-1.14,0-2.08-0.33-2.83-0.99
		c-0.75-0.66-1.12-1.49-1.12-2.49c0-1.23,0.46-2.18,1.37-2.84c0.91-0.66,2.23-0.99,3.96-1h1.43v-0.67c0-0.54-0.14-0.97-0.41-1.29
		c-0.28-0.32-0.71-0.48-1.31-0.48c-0.52,0-0.93,0.12-1.23,0.38c-0.3,0.25-0.45,0.59-0.45,1.03h-3.1c0-0.67,0.21-1.3,0.62-1.87
		s1-1.02,1.76-1.35c0.76-0.33,1.61-0.49,2.56-0.49c1.43,0,2.57,0.36,3.41,1.08c0.84,0.72,1.26,1.73,1.26,3.03v5.04
		c0.01,1.1,0.16,1.94,0.46,2.5v0.18H134.99z M132.42,192.24c0.46,0,0.88-0.1,1.27-0.31c0.39-0.21,0.67-0.48,0.86-0.82v-2h-1.16
		c-1.55,0-2.38,0.54-2.48,1.61l-0.01,0.18c0,0.39,0.14,0.71,0.41,0.96S131.95,192.24,132.42,192.24z"/>
	<path class="st0" d="M147.01,193.22c-0.77,0.93-1.83,1.4-3.18,1.4c-1.25,0-2.2-0.36-2.85-1.07c-0.65-0.72-0.99-1.77-1-3.15v-7.62
		h3.1v7.52c0,1.21,0.55,1.82,1.65,1.82c1.05,0,1.78-0.37,2.17-1.1v-8.24h3.12v11.62h-2.92L147.01,193.22z"/>
	<path class="st0" d="M151.87,188.5c0-1.81,0.41-3.25,1.22-4.33c0.81-1.07,1.92-1.61,3.34-1.61c1.13,0,2.07,0.42,2.8,1.27v-5.93
		h3.12v16.5h-2.8l-0.15-1.24c-0.77,0.97-1.77,1.45-2.99,1.45c-1.37,0-2.46-0.54-3.29-1.62C152.29,191.92,151.87,190.42,151.87,188.5
		z M154.98,188.73c0,1.09,0.19,1.93,0.57,2.51s0.93,0.87,1.65,0.87c0.96,0,1.64-0.41,2.03-1.22v-4.59
		c-0.39-0.81-1.06-1.22-2.01-1.22C155.72,185.09,154.98,186.3,154.98,188.73z"/>
	<path class="st0" d="M175.06,192.11c0.57,0,1.04-0.16,1.4-0.47s0.54-0.73,0.56-1.26h2.91c-0.01,0.79-0.22,1.51-0.64,2.16
		c-0.42,0.66-1,1.16-1.73,1.53c-0.73,0.36-1.55,0.54-2.43,0.54c-1.66,0-2.97-0.53-3.93-1.58c-0.96-1.06-1.44-2.52-1.44-4.38v-0.2
		c0-1.79,0.48-3.22,1.43-4.29s2.26-1.6,3.92-1.6c1.45,0,2.62,0.41,3.5,1.24c0.88,0.83,1.32,1.93,1.34,3.3h-2.91
		c-0.01-0.6-0.2-1.1-0.56-1.47s-0.83-0.57-1.42-0.57c-0.72,0-1.27,0.26-1.64,0.79c-0.37,0.53-0.55,1.38-0.55,2.57v0.32
		c0,1.2,0.18,2.06,0.55,2.58S174.32,192.11,175.06,192.11z"/>
	<path class="st0" d="M181.22,188.48c0-1.15,0.22-2.18,0.67-3.08s1.08-1.6,1.92-2.09c0.83-0.49,1.8-0.74,2.91-0.74
		c1.57,0,2.85,0.48,3.84,1.44c0.99,0.96,1.54,2.26,1.66,3.91l0.02,0.79c0,1.78-0.5,3.21-1.49,4.29c-1,1.08-2.33,1.62-4.01,1.62
		s-3.01-0.54-4.01-1.61c-1-1.07-1.5-2.54-1.5-4.38V188.48z M184.32,188.7c0,1.1,0.21,1.95,0.62,2.53c0.42,0.58,1.01,0.88,1.78,0.88
		c0.75,0,1.34-0.29,1.76-0.87s0.63-1.5,0.63-2.77c0-1.08-0.21-1.92-0.63-2.52c-0.42-0.59-1.02-0.89-1.78-0.89
		c-0.76,0-1.35,0.3-1.76,0.89S184.32,187.46,184.32,188.7z"/>
	<path class="st0" d="M200.44,191.19c0-0.38-0.19-0.68-0.56-0.9c-0.38-0.22-0.98-0.41-1.81-0.58c-2.76-0.58-4.15-1.75-4.15-3.52
		c0-1.03,0.43-1.89,1.28-2.58c0.86-0.69,1.98-1.04,3.36-1.04c1.48,0,2.66,0.35,3.54,1.04c0.88,0.69,1.33,1.6,1.33,2.71h-3.1
		c0-0.44-0.14-0.81-0.43-1.1c-0.29-0.29-0.73-0.44-1.34-0.44c-0.52,0-0.93,0.12-1.21,0.35s-0.43,0.54-0.43,0.9
		c0,0.34,0.16,0.62,0.49,0.83c0.33,0.21,0.88,0.39,1.65,0.55c0.77,0.15,1.42,0.33,1.96,0.52c1.64,0.6,2.46,1.64,2.46,3.13
		c0,1.06-0.46,1.92-1.36,2.57c-0.91,0.65-2.08,0.98-3.52,0.98c-0.97,0-1.84-0.17-2.59-0.52c-0.75-0.35-1.35-0.82-1.78-1.43
		c-0.43-0.61-0.64-1.26-0.64-1.96h2.94c0.03,0.55,0.23,0.97,0.61,1.27s0.89,0.44,1.53,0.44c0.59,0,1.04-0.11,1.35-0.34
		C200.29,191.85,200.44,191.55,200.44,191.19z"/>
	<path class="st0" d="M209.17,179.92v2.86h1.99v2.28h-1.99v5.8c0,0.43,0.08,0.74,0.25,0.92s0.48,0.28,0.95,0.28
		c0.34,0,0.65-0.03,0.91-0.08v2.35c-0.61,0.19-1.24,0.28-1.88,0.28c-2.18,0-3.29-1.1-3.33-3.3v-6.26h-1.7v-2.28h1.7v-2.86H209.17z"
		/>
	<path class="st0" d="M219.18,191.19c0-0.38-0.19-0.68-0.56-0.9c-0.38-0.22-0.98-0.41-1.81-0.58c-2.76-0.58-4.15-1.75-4.15-3.52
		c0-1.03,0.43-1.89,1.28-2.58c0.86-0.69,1.98-1.04,3.36-1.04c1.48,0,2.66,0.35,3.54,1.04c0.88,0.69,1.33,1.6,1.33,2.71h-3.1
		c0-0.44-0.14-0.81-0.43-1.1c-0.29-0.29-0.73-0.44-1.34-0.44c-0.52,0-0.93,0.12-1.21,0.35s-0.43,0.54-0.43,0.9
		c0,0.34,0.16,0.62,0.49,0.83c0.33,0.21,0.88,0.39,1.65,0.55c0.77,0.15,1.42,0.33,1.96,0.52c1.64,0.6,2.46,1.64,2.46,3.13
		c0,1.06-0.46,1.92-1.36,2.57c-0.91,0.65-2.08,0.98-3.52,0.98c-0.97,0-1.84-0.17-2.59-0.52c-0.75-0.35-1.35-0.82-1.78-1.43
		c-0.43-0.61-0.64-1.26-0.64-1.96h2.94c0.03,0.55,0.23,0.97,0.61,1.27s0.89,0.44,1.53,0.44c0.59,0,1.04-0.11,1.35-0.34
		C219.03,191.85,219.18,191.55,219.18,191.19z"/>
	<path class="st0" d="M224.36,192.88c0-0.49,0.17-0.9,0.5-1.2c0.33-0.31,0.75-0.46,1.25-0.46c0.51,0,0.93,0.15,1.26,0.46
		c0.33,0.31,0.5,0.71,0.5,1.2c0,0.49-0.17,0.88-0.49,1.19c-0.33,0.3-0.75,0.46-1.27,0.46c-0.51,0-0.93-0.15-1.26-0.46
		C224.53,193.76,224.36,193.36,224.36,192.88z"/>
</g>
<text transform="matrix(1 0 0 1 228.4828 190.0143)" class="st0 st1 st2">*</text>
</svg>
