<?xml version="1.0" encoding="utf-8"?>
<!-- Generator: Adobe Illustrator 24.2.3, SVG Export Plug-In . SVG Version: 6.00 Build 0)  -->
<svg version="1.1" id="Layer_1" xmlns="http://www.w3.org/2000/svg" xmlns:xlink="http://www.w3.org/1999/xlink" x="0px" y="0px"
	 viewBox="0 0 320 468" style="enable-background:new 0 0 320 468;" xml:space="preserve">
<style type="text/css">
	.st0{fill:url(#SVGID_1_);}
</style>
<linearGradient id="SVGID_1_" gradientUnits="userSpaceOnUse" x1="49.7571" y1="217.5548" x2="271.2073" y2="217.5548">
	<stop  offset="0" style="stop-color:#18B9FB"/>
	<stop  offset="0.5" style="stop-color:#782EEB"/>
	<stop  offset="1" style="stop-color:#E82D8A"/>
</linearGradient>
<path class="st0" d="M92.15,164.04h-8.11v21.99h-6.51v-21.99h-7.96v-5.03h22.58V164.04z M105.55,171.61l-2.06-0.15
	c-1.97,0-3.23,0.62-3.79,1.86v12.71h-6.25v-20.08h5.86l0.2,2.58c1.05-1.97,2.52-2.95,4.4-2.95c0.67,0,1.25,0.07,1.74,0.22
	L105.55,171.61z M118.56,186.03c-0.22-0.41-0.42-1.01-0.59-1.8c-1.15,1.45-2.76,2.17-4.82,2.17c-1.89,0-3.5-0.57-4.82-1.72
	c-1.32-1.14-1.99-2.58-1.99-4.31c0-2.18,0.8-3.82,2.41-4.94c1.61-1.11,3.95-1.67,7.01-1.67h1.93v-1.06c0-1.85-0.8-2.78-2.39-2.78
	c-1.48,0-2.23,0.73-2.23,2.2h-6.25c0-1.94,0.83-3.51,2.48-4.73c1.65-1.21,3.76-1.82,6.32-1.82s4.58,0.62,6.07,1.87
	c1.48,1.25,2.25,2.96,2.28,5.14v8.89c0.02,1.84,0.31,3.25,0.85,4.23v0.32H118.56z M114.64,181.95c0.78,0,1.43-0.17,1.94-0.5
	c0.51-0.33,0.88-0.71,1.1-1.13v-3.21h-1.82c-2.18,0-3.27,0.98-3.27,2.93c0,0.57,0.19,1.03,0.58,1.38
	C113.56,181.77,114.05,181.95,114.64,181.95z M135.91,181.58c0.88,0,1.56-0.24,2.04-0.71c0.48-0.48,0.72-1.14,0.71-1.99h5.86
	c0,2.2-0.79,4.01-2.37,5.42c-1.58,1.41-3.61,2.12-6.1,2.12c-2.92,0-5.22-0.92-6.9-2.75c-1.68-1.83-2.52-4.37-2.52-7.61v-0.26
	c0-2.03,0.37-3.82,1.12-5.37c0.75-1.55,1.83-2.75,3.24-3.58c1.41-0.83,3.08-1.25,5.01-1.25c2.61,0,4.68,0.72,6.22,2.17
	c1.53,1.45,2.3,3.41,2.3,5.88h-5.86c0-1.04-0.25-1.84-0.76-2.39c-0.51-0.56-1.19-0.83-2.04-0.83c-1.62,0-2.57,1.03-2.84,3.1
	c-0.09,0.66-0.13,1.56-0.13,2.71c0,2.02,0.24,3.41,0.72,4.19S134.85,181.58,135.91,181.58z M155.22,178.55l-1.76,1.76v5.71h-6.25
	v-28.52h6.25v15.14l0.63-0.83l4.71-5.86h7.5l-7.03,8.26l7.5,11.82h-7.16L155.22,178.55z M185.43,177.27l3.34-11.32h6.7l-8.18,23.43
	l-0.35,0.85c-1.16,2.6-3.22,3.9-6.16,3.9c-0.82,0-1.68-0.12-2.58-0.37v-4.45h0.82c0.88,0,1.55-0.13,2.01-0.38
	c0.46-0.25,0.81-0.71,1.03-1.36l0.5-1.34l-6.98-20.28h6.68L185.43,177.27z M196.02,175.81c0-2,0.39-3.79,1.17-5.35
	c0.78-1.57,1.9-2.77,3.36-3.61c1.46-0.84,3.17-1.26,5.14-1.26c3.01,0,5.37,0.93,7.11,2.79c1.73,1.86,2.6,4.39,2.6,7.6v0.22
	c0,3.13-0.87,5.61-2.61,7.45c-1.74,1.84-4.09,2.76-7.06,2.76c-2.86,0-5.15-0.86-6.88-2.57c-1.73-1.71-2.67-4.04-2.8-6.97
	L196.02,175.81z M202.28,176.19c0,1.86,0.29,3.22,0.87,4.08c0.58,0.87,1.44,1.3,2.58,1.3c2.23,0,3.36-1.71,3.41-5.14v-0.63
	c0-3.6-1.15-5.4-3.45-5.4c-2.09,0-3.22,1.55-3.4,4.66L202.28,176.19z M230.11,183.86c-1.32,1.7-3.11,2.54-5.36,2.54
	c-2.2,0-3.87-0.64-5-1.92c-1.13-1.28-1.7-3.12-1.7-5.52v-13.01h6.25V179c0,1.72,0.83,2.58,2.5,2.58c1.43,0,2.46-0.51,3.06-1.54
	v-14.08h6.29v20.08h-5.86L230.11,183.86z M251.72,171.61l-2.06-0.15c-1.97,0-3.23,0.62-3.79,1.86v12.71h-6.25v-20.08h5.86l0.2,2.58
	c1.05-1.97,2.52-2.95,4.4-2.95c0.67,0,1.25,0.07,1.74,0.22L251.72,171.61z M59.03,227.17c0.88,0,1.56-0.24,2.04-0.71
	c0.48-0.48,0.72-1.14,0.71-1.99h5.86c0,2.2-0.79,4.01-2.37,5.42c-1.58,1.41-3.61,2.12-6.1,2.12c-2.92,0-5.22-0.92-6.9-2.75
	c-1.68-1.83-2.52-4.37-2.52-7.61v-0.26c0-2.03,0.37-3.82,1.12-5.37c0.75-1.55,1.83-2.75,3.24-3.58c1.41-0.83,3.08-1.25,5.01-1.25
	c2.61,0,4.68,0.72,6.22,2.17c1.53,1.45,2.3,3.41,2.3,5.88h-5.86c0-1.04-0.25-1.84-0.76-2.39c-0.51-0.56-1.19-0.83-2.04-0.83
	c-1.62,0-2.57,1.03-2.84,3.1c-0.09,0.66-0.13,1.56-0.13,2.71c0,2.02,0.24,3.41,0.72,4.19S57.98,227.17,59.03,227.17z M82.43,217.21
	l-2.06-0.15c-1.97,0-3.23,0.62-3.79,1.86v12.71h-6.25v-20.08h5.86l0.2,2.58c1.05-1.97,2.52-2.95,4.4-2.95
	c0.67,0,1.25,0.07,1.74,0.22L82.43,217.21z M94.05,232c-3.08,0-5.57-0.92-7.48-2.76c-1.91-1.84-2.86-4.23-2.86-7.17v-0.52
	c0-2.05,0.38-3.87,1.14-5.44c0.76-1.57,1.87-2.79,3.33-3.65c1.46-0.86,3.19-1.29,5.2-1.29c2.82,0,5.05,0.88,6.68,2.62
	c1.63,1.75,2.45,4.19,2.45,7.32v2.43H90.08c0.22,1.13,0.71,2.01,1.47,2.65c0.75,0.64,1.73,0.96,2.93,0.96
	c1.98,0,3.53-0.69,4.64-2.08l2.86,3.38c-0.78,1.08-1.88,1.93-3.31,2.57C97.23,231.68,95.69,232,94.05,232z M93.34,216
	c-1.83,0-2.92,1.21-3.27,3.64h6.31v-0.48c0.02-1-0.23-1.78-0.76-2.33C95.09,216.28,94.33,216,93.34,216z M104.23,221.44
	c0-3.18,0.69-5.68,2.06-7.51c1.37-1.83,3.29-2.75,5.75-2.75c1.79,0,3.3,0.71,4.53,2.12v-10.17h6.27v28.5h-5.62l-0.32-2.15
	c-1.29,1.68-2.92,2.52-4.9,2.52c-2.39,0-4.28-0.92-5.68-2.75C104.93,227.42,104.23,224.82,104.23,221.44z M110.49,221.83
	c0,3.56,1.04,5.34,3.12,5.34c1.38,0,2.38-0.58,2.97-1.74v-7.64c-0.57-1.19-1.55-1.78-2.93-1.78c-1.93,0-2.98,1.56-3.14,4.68
	L110.49,221.83z M126.35,206.38c0-0.89,0.32-1.62,0.96-2.19c0.64-0.57,1.48-0.85,2.5-0.85c1.03,0,1.86,0.29,2.5,0.85
	c0.64,0.57,0.96,1.3,0.96,2.19s-0.32,1.62-0.96,2.19c-0.64,0.57-1.48,0.85-2.5,0.85c-1.03,0-1.86-0.28-2.5-0.85
	C126.67,208,126.35,207.27,126.35,206.38z M132.99,231.63h-6.27v-20.08h6.27V231.63z M144.13,206.56v4.99h3.3v4.34h-3.3v9.18
	c0,0.75,0.14,1.28,0.41,1.58c0.27,0.3,0.81,0.45,1.61,0.45c0.62,0,1.14-0.04,1.56-0.11v4.47c-1.13,0.36-2.3,0.54-3.53,0.54
	c-2.15,0-3.74-0.51-4.77-1.52c-1.03-1.01-1.54-2.55-1.54-4.62v-9.96h-2.56v-4.34h2.56v-4.99H144.13z M169.86,225.99
	c0-0.53-0.28-0.96-0.83-1.28c-0.56-0.32-1.61-0.66-3.17-1c-1.56-0.35-2.85-0.8-3.86-1.36c-1.01-0.56-1.79-1.25-2.32-2.05
	c-0.53-0.8-0.8-1.73-0.8-2.76c0-1.84,0.76-3.36,2.28-4.55c1.52-1.19,3.51-1.79,5.97-1.79c2.65,0,4.77,0.6,6.38,1.8
	c1.61,1.2,2.41,2.78,2.41,4.73h-6.27c0-1.61-0.85-2.41-2.54-2.41c-0.66,0-1.21,0.18-1.65,0.55c-0.45,0.37-0.67,0.82-0.67,1.36
	c0,0.56,0.27,1.01,0.82,1.35c0.54,0.35,1.41,0.63,2.61,0.85c1.19,0.22,2.24,0.49,3.14,0.8c3.02,1.04,4.53,2.9,4.53,5.58
	c0,1.83-0.81,3.32-2.44,4.47c-1.63,1.15-3.73,1.73-6.32,1.73c-1.72,0-3.25-0.31-4.6-0.93c-1.35-0.62-2.4-1.46-3.15-2.52
	c-0.75-1.06-1.13-2.18-1.13-3.36h5.84c0.02,0.93,0.33,1.6,0.93,2.03c0.59,0.43,1.35,0.64,2.28,0.64c0.85,0,1.49-0.17,1.92-0.52
	C169.65,227,169.86,226.54,169.86,225.99z M187.3,227.17c0.88,0,1.56-0.24,2.04-0.71c0.48-0.48,0.72-1.14,0.71-1.99h5.86
	c0,2.2-0.79,4.01-2.37,5.42c-1.58,1.41-3.61,2.12-6.1,2.12c-2.92,0-5.22-0.92-6.9-2.75c-1.68-1.83-2.52-4.37-2.52-7.61v-0.26
	c0-2.03,0.37-3.82,1.12-5.37c0.75-1.55,1.83-2.75,3.24-3.58c1.41-0.83,3.08-1.25,5.01-1.25c2.61,0,4.68,0.72,6.22,2.17
	c1.53,1.45,2.3,3.41,2.3,5.88h-5.86c0-1.04-0.25-1.84-0.76-2.39c-0.51-0.56-1.19-0.83-2.04-0.83c-1.62,0-2.57,1.03-2.84,3.1
	c-0.09,0.66-0.13,1.56-0.13,2.71c0,2.02,0.24,3.41,0.72,4.19S186.25,227.17,187.3,227.17z M197.77,221.4c0-2,0.39-3.79,1.17-5.35
	c0.78-1.57,1.9-2.77,3.36-3.61c1.46-0.84,3.17-1.26,5.14-1.26c3.01,0,5.37,0.93,7.11,2.79c1.73,1.86,2.6,4.39,2.6,7.6v0.22
	c0,3.13-0.87,5.61-2.61,7.45c-1.74,1.84-4.09,2.76-7.06,2.76c-2.86,0-5.15-0.86-6.88-2.57c-1.73-1.71-2.67-4.04-2.8-6.97
	L197.77,221.4z M204.02,221.79c0,1.86,0.29,3.22,0.87,4.08c0.58,0.87,1.44,1.3,2.58,1.3c2.23,0,3.36-1.71,3.41-5.14v-0.63
	c0-3.6-1.15-5.4-3.45-5.4c-2.09,0-3.22,1.55-3.4,4.66L204.02,221.79z M232.04,217.21l-2.06-0.15c-1.97,0-3.23,0.62-3.79,1.86v12.71
	h-6.25v-20.08h5.86l0.2,2.58c1.05-1.97,2.52-2.95,4.4-2.95c0.67,0,1.25,0.07,1.74,0.22L232.04,217.21z M243.65,232
	c-3.08,0-5.57-0.92-7.48-2.76c-1.91-1.84-2.86-4.23-2.86-7.17v-0.52c0-2.05,0.38-3.87,1.14-5.44c0.76-1.57,1.87-2.79,3.33-3.65
	c1.46-0.86,3.19-1.29,5.2-1.29c2.82,0,5.05,0.88,6.68,2.62c1.63,1.75,2.45,4.19,2.45,7.32v2.43h-12.43
	c0.22,1.13,0.71,2.01,1.47,2.65c0.75,0.64,1.73,0.96,2.93,0.96c1.98,0,3.53-0.69,4.64-2.08l2.86,3.38
	c-0.78,1.08-1.88,1.93-3.31,2.57C246.84,231.68,245.3,232,243.65,232z M242.95,216c-1.83,0-2.92,1.21-3.27,3.64h6.31v-0.48
	c0.02-1-0.23-1.78-0.76-2.33C244.7,216.28,243.94,216,242.95,216z M265.14,225.99c0-0.53-0.28-0.96-0.83-1.28
	c-0.56-0.32-1.61-0.66-3.17-1c-1.56-0.35-2.85-0.8-3.86-1.36c-1.01-0.56-1.79-1.25-2.32-2.05c-0.53-0.8-0.8-1.73-0.8-2.76
	c0-1.84,0.76-3.36,2.28-4.55c1.52-1.19,3.51-1.79,5.97-1.79c2.65,0,4.77,0.6,6.38,1.8c1.61,1.2,2.41,2.78,2.41,4.73h-6.27
	c0-1.61-0.85-2.41-2.54-2.41c-0.66,0-1.21,0.18-1.65,0.55c-0.45,0.37-0.67,0.82-0.67,1.36c0,0.56,0.27,1.01,0.82,1.35
	c0.54,0.35,1.41,0.63,2.61,0.85c1.19,0.22,2.24,0.49,3.14,0.8c3.02,1.04,4.53,2.9,4.53,5.58c0,1.83-0.81,3.32-2.44,4.47
	c-1.63,1.15-3.73,1.73-6.32,1.73c-1.72,0-3.25-0.31-4.6-0.93c-1.35-0.62-2.4-1.46-3.15-2.52c-0.75-1.06-1.13-2.18-1.13-3.36h5.84
	c0.02,0.93,0.33,1.6,0.93,2.03c0.59,0.43,1.35,0.64,2.28,0.64c0.85,0,1.49-0.17,1.92-0.52C264.93,227,265.14,226.54,265.14,225.99z
	 M71.28,277.6c-3.08,0-5.57-0.92-7.48-2.76c-1.91-1.84-2.86-4.23-2.86-7.17v-0.52c0-2.05,0.38-3.87,1.14-5.44
	c0.76-1.57,1.87-2.79,3.33-3.65c1.46-0.86,3.19-1.29,5.2-1.29c2.82,0,5.05,0.88,6.68,2.62c1.63,1.75,2.45,4.19,2.45,7.32v2.43H67.31
	c0.22,1.13,0.71,2.01,1.47,2.65c0.75,0.64,1.73,0.96,2.93,0.96c1.98,0,3.53-0.69,4.64-2.08l2.86,3.38
	c-0.78,1.08-1.88,1.93-3.31,2.57C74.46,277.28,72.93,277.6,71.28,277.6z M70.58,261.61c-1.83,0-2.92,1.21-3.27,3.64h6.31v-0.48
	c0.02-1-0.23-1.78-0.76-2.33C72.33,261.88,71.56,261.61,70.58,261.61z M93.56,277.23c-0.22-0.41-0.42-1.01-0.59-1.8
	c-1.15,1.45-2.76,2.17-4.82,2.17c-1.89,0-3.5-0.57-4.82-1.72c-1.32-1.14-1.99-2.58-1.99-4.31c0-2.18,0.8-3.82,2.41-4.94
	c1.61-1.11,3.95-1.67,7.01-1.67h1.93v-1.06c0-1.85-0.8-2.78-2.39-2.78c-1.48,0-2.23,0.73-2.23,2.2h-6.25c0-1.94,0.83-3.51,2.48-4.73
	c1.65-1.21,3.76-1.82,6.32-1.82c2.56,0,4.58,0.62,6.07,1.87c1.48,1.25,2.25,2.96,2.28,5.14v8.89c0.02,1.84,0.31,3.25,0.85,4.23v0.32
	H93.56z M89.65,273.15c0.78,0,1.43-0.17,1.94-0.5c0.51-0.33,0.88-0.71,1.1-1.13v-3.21h-1.82c-2.18,0-3.27,0.98-3.27,2.93
	c0,0.57,0.19,1.03,0.58,1.38C88.57,272.97,89.06,273.15,89.65,273.15z M110.91,272.78c0.88,0,1.56-0.24,2.04-0.71
	c0.48-0.48,0.72-1.14,0.71-1.99h5.86c0,2.2-0.79,4.01-2.37,5.42c-1.58,1.41-3.61,2.12-6.1,2.12c-2.92,0-5.22-0.92-6.9-2.75
	c-1.68-1.83-2.52-4.37-2.52-7.61v-0.26c0-2.03,0.37-3.82,1.12-5.37c0.75-1.55,1.83-2.75,3.24-3.58c1.41-0.83,3.08-1.25,5.01-1.25
	c2.61,0,4.68,0.72,6.22,2.17c1.53,1.45,2.3,3.41,2.3,5.88h-5.86c0-1.04-0.25-1.84-0.76-2.39c-0.51-0.56-1.19-0.83-2.04-0.83
	c-1.62,0-2.57,1.03-2.84,3.1c-0.09,0.66-0.13,1.56-0.13,2.71c0,2.02,0.24,3.41,0.72,4.19S109.86,272.78,110.91,272.78z
	 M128.28,259.3c1.34-1.68,3.04-2.52,5.12-2.52c2.21,0,3.88,0.66,5.01,1.97c1.12,1.31,1.7,3.25,1.73,5.81v12.67h-6.27V264.7
	c0-1.06-0.22-1.85-0.65-2.35c-0.43-0.5-1.17-0.75-2.21-0.75c-1.29,0-2.2,0.41-2.73,1.22v14.4h-6.25v-28.5h6.25V259.3z
	 M158.99,257.15l0.2,2.36c1.42-1.82,3.33-2.73,5.73-2.73c2.54,0,4.25,1.01,5.14,3.02c1.36-2.02,3.33-3.02,5.9-3.02
	c4.07,0,6.16,2.46,6.27,7.38v13.06h-6.27v-12.67c0-1.03-0.17-1.77-0.52-2.25c-0.35-0.47-0.98-0.71-1.89-0.71
	c-1.24,0-2.16,0.55-2.76,1.65l0.02,0.26v13.71h-6.27v-12.64c0-1.05-0.17-1.81-0.5-2.28c-0.33-0.47-0.97-0.71-1.91-0.71
	c-1.2,0-2.12,0.55-2.75,1.65v13.97h-6.25v-20.08H158.99z M185.02,267c0-2,0.39-3.79,1.17-5.35c0.78-1.57,1.9-2.77,3.36-3.61
	c1.46-0.84,3.17-1.26,5.14-1.26c3.01,0,5.37,0.93,7.11,2.79c1.73,1.86,2.6,4.39,2.6,7.6v0.22c0,3.13-0.87,5.61-2.61,7.45
	c-1.74,1.84-4.09,2.76-7.06,2.76c-2.86,0-5.15-0.86-6.88-2.57c-1.73-1.71-2.67-4.04-2.8-6.97L185.02,267z M191.27,267.39
	c0,1.86,0.29,3.22,0.87,4.08c0.58,0.87,1.44,1.3,2.58,1.3c2.23,0,3.36-1.71,3.41-5.14V267c0-3.6-1.15-5.4-3.45-5.4
	c-2.09,0-3.22,1.55-3.4,4.66L191.27,267.39z M212.89,257.15l0.2,2.36c1.38-1.82,3.3-2.73,5.73-2.73c2.09,0,3.65,0.62,4.69,1.87
	c1.03,1.25,1.57,3.13,1.6,5.64v12.93h-6.27v-12.67c0-1.01-0.2-1.76-0.61-2.24c-0.41-0.48-1.15-0.71-2.23-0.71
	c-1.22,0-2.13,0.48-2.73,1.45v14.18h-6.25v-20.08H212.89z M235.86,252.16v4.99h3.3v4.34h-3.3v9.18c0,0.75,0.14,1.28,0.41,1.58
	c0.27,0.3,0.81,0.45,1.61,0.45c0.62,0,1.14-0.04,1.56-0.11v4.47c-1.13,0.36-2.3,0.54-3.53,0.54c-2.15,0-3.74-0.51-4.77-1.52
	c-1.03-1.01-1.54-2.55-1.54-4.62v-9.96h-2.56v-4.34h2.56v-4.99H235.86z M247.74,259.3c1.34-1.68,3.04-2.52,5.12-2.52
	c2.21,0,3.88,0.66,5.01,1.97c1.12,1.31,1.7,3.25,1.73,5.81v12.67h-6.27V264.7c0-1.06-0.22-1.85-0.65-2.35
	c-0.43-0.5-1.17-0.75-2.21-0.75c-1.29,0-2.2,0.41-2.73,1.22v14.4h-6.25v-28.5h6.25V259.3z"/>
</svg>
