<?xml version="1.0" encoding="utf-8"?>
<!-- Generator: Adobe Illustrator 24.2.3, SVG Export Plug-In . SVG Version: 6.00 Build 0)  -->
<svg version="1.1" id="Layer_1" xmlns="http://www.w3.org/2000/svg" xmlns:xlink="http://www.w3.org/1999/xlink" x="0px" y="0px"
	 viewBox="0 0 320 468" style="enable-background:new 0 0 320 468;" xml:space="preserve">
<style type="text/css">
	.st0{fill:url(#SVGID_1_);}
</style>
<linearGradient id="SVGID_1_" gradientUnits="userSpaceOnUse" x1="29.6508" y1="223.4575" x2="289.6352" y2="223.4575">
	<stop  offset="0" style="stop-color:#18B9FB"/>
	<stop  offset="0.5" style="stop-color:#782EEB"/>
	<stop  offset="1" style="stop-color:#E82D8A"/>
</linearGradient>
<path class="st0" d="M81.06,166.31h-2.97v8.05H72.6v-22.75h8.95c2.7,0,4.81,0.6,6.33,1.79c1.52,1.2,2.28,2.89,2.28,5.07
	c0,1.58-0.32,2.89-0.96,3.93c-0.64,1.04-1.64,1.88-3.01,2.53l4.75,9.19v0.23h-5.88L81.06,166.31z M78.09,162.09h3.47
	c1.04,0,1.83-0.27,2.35-0.82c0.53-0.55,0.79-1.31,0.79-2.29s-0.27-1.75-0.8-2.31s-1.31-0.84-2.34-0.84h-3.47V162.09z M101.42,174.67
	c-2.59,0-4.69-0.77-6.3-2.32c-1.6-1.55-2.41-3.56-2.41-6.04v-0.44c0-1.73,0.32-3.25,0.96-4.58c0.64-1.32,1.58-2.35,2.8-3.07
	c1.23-0.72,2.69-1.09,4.38-1.09c2.38,0,4.25,0.74,5.62,2.21c1.38,1.47,2.06,3.53,2.06,6.16v2.05H98.07c0.19,0.95,0.6,1.69,1.23,2.23
	c0.63,0.54,1.46,0.81,2.47,0.81c1.67,0,2.97-0.58,3.91-1.75l2.41,2.84c-0.66,0.91-1.59,1.63-2.79,2.16S102.8,174.67,101.42,174.67z
	 M100.82,161.2c-1.54,0-2.46,1.02-2.75,3.06h5.31v-0.41c0.02-0.84-0.19-1.5-0.64-1.96C102.3,161.43,101.66,161.2,100.82,161.2z
	 M117.2,168.09l2.67-10.64h5.55l-5.52,16.91h-5.38l-5.52-16.91h5.56L117.2,168.09z M126.95,153.09c0-0.75,0.27-1.36,0.81-1.84
	c0.54-0.48,1.24-0.72,2.11-0.72c0.86,0,1.57,0.24,2.11,0.72c0.54,0.48,0.81,1.09,0.81,1.84s-0.27,1.37-0.81,1.84
	c-0.54,0.48-1.25,0.72-2.11,0.72c-0.87,0-1.57-0.24-2.11-0.72C127.22,154.46,126.95,153.84,126.95,153.09z M132.54,174.36h-5.28
	v-16.91h5.28V174.36z M143.96,174.67c-2.59,0-4.69-0.77-6.3-2.32c-1.6-1.55-2.41-3.56-2.41-6.04v-0.44c0-1.73,0.32-3.25,0.96-4.58
	c0.64-1.32,1.58-2.35,2.8-3.07c1.23-0.72,2.69-1.09,4.38-1.09c2.38,0,4.25,0.74,5.62,2.21c1.38,1.47,2.06,3.53,2.06,6.16v2.05
	h-10.47c0.19,0.95,0.6,1.69,1.23,2.23c0.63,0.54,1.46,0.81,2.47,0.81c1.67,0,2.97-0.58,3.91-1.75l2.41,2.84
	c-0.66,0.91-1.59,1.63-2.79,2.16S145.35,174.67,143.96,174.67z M143.37,161.2c-1.54,0-2.46,1.02-2.75,3.06h5.31v-0.41
	c0.02-0.84-0.19-1.5-0.64-1.96C144.84,161.43,144.2,161.2,143.37,161.2z M167.81,167.42l1.7-9.97h5.05l-3.98,16.91h-4.45l-2.8-10.03
	l-2.81,10.03h-4.45l-3.98-16.91h5.05l1.67,10.2l2.69-10.2h3.67L167.81,167.42z M191.17,166.98l2.81-9.53h5.64l-6.89,19.73l-0.3,0.72
	c-0.98,2.19-2.71,3.28-5.19,3.28c-0.69,0-1.41-0.1-2.17-0.31v-3.75h0.69c0.74,0,1.3-0.11,1.7-0.32c0.39-0.21,0.68-0.6,0.87-1.15
	l0.42-1.13l-5.88-17.08h5.62L191.17,166.98z M200.09,165.75c0-1.69,0.33-3.19,0.98-4.51c0.66-1.32,1.6-2.33,2.83-3.04
	c1.23-0.71,2.67-1.06,4.33-1.06c2.53,0,4.53,0.78,5.98,2.35c1.46,1.57,2.19,3.7,2.19,6.4v0.19c0,2.64-0.73,4.73-2.2,6.27
	c-1.46,1.55-3.45,2.32-5.95,2.32c-2.41,0-4.34-0.72-5.8-2.16c-1.46-1.44-2.25-3.4-2.36-5.87L200.09,165.75z M205.35,166.08
	c0,1.56,0.24,2.71,0.73,3.44c0.49,0.73,1.21,1.09,2.17,1.09c1.88,0,2.83-1.44,2.88-4.33v-0.53c0-3.03-0.97-4.55-2.91-4.55
	c-1.76,0-2.71,1.31-2.86,3.92L205.35,166.08z M228.79,172.53c-1.12,1.43-2.62,2.14-4.52,2.14c-1.85,0-3.26-0.54-4.21-1.62
	s-1.43-2.63-1.43-4.65v-10.95h5.27v10.98c0,1.45,0.7,2.17,2.11,2.17c1.21,0,2.07-0.43,2.58-1.3v-11.86h5.3v16.91h-4.94
	L228.79,172.53z M246.99,162.22l-1.73-0.12c-1.66,0-2.72,0.52-3.19,1.56v10.7h-5.27v-16.91h4.94l0.17,2.17
	c0.88-1.66,2.12-2.48,3.7-2.48c0.56,0,1.05,0.06,1.47,0.19L246.99,162.22z M71.32,191.65v4.2h2.78v3.66h-2.78v7.73
	c0,0.64,0.11,1.08,0.34,1.33c0.23,0.25,0.68,0.38,1.36,0.38c0.52,0,0.96-0.03,1.31-0.09v3.77c-0.95,0.3-1.94,0.45-2.97,0.45
	c-1.81,0-3.15-0.43-4.02-1.28c-0.87-0.85-1.3-2.15-1.3-3.89v-8.39H63.9v-3.66h2.16v-4.2H71.32z M86.4,200.62l-1.73-0.12
	c-1.66,0-2.72,0.52-3.19,1.56v10.7h-5.27v-16.91h4.94l0.17,2.17c0.88-1.66,2.12-2.48,3.7-2.48c0.56,0,1.05,0.06,1.47,0.19
	L86.4,200.62z M88.26,191.49c0-0.75,0.27-1.36,0.81-1.84c0.54-0.48,1.24-0.72,2.11-0.72c0.86,0,1.57,0.24,2.11,0.72
	c0.54,0.48,0.81,1.09,0.81,1.84s-0.27,1.37-0.81,1.84c-0.54,0.48-1.25,0.72-2.11,0.72c-0.87,0-1.57-0.24-2.11-0.72
	C88.53,192.86,88.26,192.24,88.26,191.49z M93.85,212.76h-5.28v-16.91h5.28V212.76z M112.79,204.43c0,2.62-0.59,4.72-1.77,6.29
	c-1.18,1.57-2.78,2.35-4.79,2.35c-1.55,0-2.83-0.57-3.83-1.7v7.89h-5.27v-23.41h4.92l0.16,1.56c1.01-1.25,2.34-1.88,3.98-1.88
	c2.08,0,3.7,0.77,4.86,2.3c1.16,1.54,1.73,3.65,1.73,6.34V204.43z M107.53,204.1c0-3-0.88-4.5-2.62-4.5c-1.25,0-2.08,0.45-2.5,1.34
	v6.66c0.46,0.94,1.3,1.41,2.53,1.41c1.68,0,2.54-1.45,2.59-4.34V204.1z M120.67,212.76h-5.28v-24h5.28V212.76z M132.09,213.07
	c-2.59,0-4.69-0.77-6.3-2.32c-1.6-1.55-2.41-3.56-2.41-6.04v-0.44c0-1.73,0.32-3.25,0.96-4.58c0.64-1.32,1.58-2.35,2.8-3.07
	c1.23-0.72,2.69-1.09,4.37-1.09c2.38,0,4.25,0.74,5.62,2.21c1.38,1.47,2.06,3.53,2.06,6.16v2.05h-10.47
	c0.19,0.95,0.6,1.69,1.23,2.23c0.63,0.54,1.46,0.81,2.47,0.81c1.67,0,2.97-0.58,3.91-1.75l2.41,2.84c-0.66,0.91-1.59,1.63-2.79,2.16
	C134.77,212.8,133.47,213.07,132.09,213.07z M131.49,199.6c-1.54,0-2.46,1.02-2.75,3.06h5.31v-0.41c0.02-0.84-0.19-1.5-0.64-1.96
	C132.97,199.83,132.33,199.6,131.49,199.6z M151.62,204.98h-9.39v-4.06h9.39V204.98z M171.42,204.45c0,2.77-0.57,4.9-1.72,6.39
	c-1.15,1.49-2.76,2.23-4.84,2.23c-1.72,0-3.1-0.68-4.16-2.05l-0.22,1.73h-4.72v-24h5.27v8.45c0.98-1.11,2.24-1.67,3.8-1.67
	c2.1,0,3.73,0.76,4.88,2.27c1.15,1.51,1.72,3.64,1.72,6.38V204.45z M166.14,204.11c0-1.62-0.22-2.78-0.65-3.47
	c-0.43-0.69-1.1-1.04-1.99-1.04c-1.19,0-2.01,0.45-2.47,1.36v6.71c0.45,0.89,1.28,1.34,2.5,1.34c1.24,0,2.03-0.6,2.36-1.81
	C166.05,206.61,166.14,205.58,166.14,204.11z M183.81,210.93c-1.12,1.43-2.62,2.14-4.52,2.14c-1.85,0-3.26-0.54-4.21-1.62
	c-0.95-1.08-1.43-2.63-1.43-4.65v-10.95h5.27v10.98c0,1.45,0.7,2.17,2.11,2.17c1.21,0,2.07-0.43,2.58-1.3v-11.86h5.3v16.91h-4.94
	L183.81,210.93z M202.01,200.62l-1.73-0.12c-1.66,0-2.72,0.52-3.19,1.56v10.7h-5.27v-16.91h4.94l0.17,2.17
	c0.88-1.66,2.12-2.48,3.7-2.48c0.56,0,1.05,0.06,1.47,0.19L202.01,200.62z M211.79,213.07c-2.59,0-4.69-0.77-6.3-2.32
	c-1.6-1.55-2.41-3.56-2.41-6.04v-0.44c0-1.73,0.32-3.25,0.96-4.58c0.64-1.32,1.58-2.35,2.8-3.07c1.23-0.72,2.69-1.09,4.38-1.09
	c2.38,0,4.25,0.74,5.62,2.21c1.38,1.47,2.06,3.53,2.06,6.16v2.05h-10.47c0.19,0.95,0.6,1.69,1.23,2.23
	c0.63,0.54,1.46,0.81,2.47,0.81c1.67,0,2.97-0.58,3.91-1.75l2.41,2.84c-0.66,0.91-1.59,1.63-2.79,2.16
	C214.47,212.8,213.18,213.07,211.79,213.07z M211.2,199.6c-1.54,0-2.46,1.02-2.75,3.06h5.31v-0.41c0.02-0.84-0.19-1.5-0.64-1.96
	C212.67,199.83,212.03,199.6,211.2,199.6z M230.56,212.76c-0.19-0.34-0.35-0.85-0.5-1.52c-0.97,1.22-2.32,1.83-4.06,1.83
	c-1.59,0-2.95-0.48-4.06-1.44c-1.12-0.96-1.67-2.17-1.67-3.63c0-1.83,0.68-3.22,2.03-4.16c1.35-0.94,3.32-1.41,5.91-1.41h1.62v-0.89
	c0-1.56-0.67-2.34-2.02-2.34c-1.25,0-1.88,0.62-1.88,1.85h-5.27c0-1.63,0.7-2.96,2.09-3.98s3.16-1.53,5.32-1.53s3.86,0.53,5.11,1.58
	c1.25,1.05,1.89,2.5,1.92,4.33v7.48c0.02,1.55,0.26,2.74,0.72,3.56v0.27H230.56z M227.26,209.32c0.66,0,1.2-0.14,1.63-0.42
	c0.43-0.28,0.74-0.6,0.93-0.95v-2.7h-1.53c-1.83,0-2.75,0.82-2.75,2.47c0,0.48,0.16,0.87,0.48,1.16
	C226.35,209.17,226.76,209.32,227.26,209.32z M248.09,210.93c-1.12,1.43-2.62,2.14-4.52,2.14c-1.85,0-3.26-0.54-4.21-1.62
	c-0.95-1.08-1.43-2.63-1.43-4.65v-10.95h5.27v10.98c0,1.45,0.7,2.17,2.11,2.17c1.21,0,2.07-0.43,2.58-1.3v-11.86h5.3v16.91h-4.94
	L248.09,210.93z M69.21,247.41c0.74,0,1.31-0.2,1.72-0.6c0.41-0.4,0.6-0.96,0.59-1.68h4.94c0,1.85-0.66,3.38-1.99,4.56
	c-1.33,1.19-3.04,1.78-5.13,1.78c-2.46,0-4.4-0.77-5.81-2.31c-1.42-1.54-2.12-3.68-2.12-6.41v-0.22c0-1.71,0.31-3.22,0.95-4.52
	c0.63-1.31,1.54-2.31,2.73-3.02c1.19-0.7,2.59-1.05,4.22-1.05c2.2,0,3.94,0.61,5.23,1.83c1.29,1.22,1.94,2.87,1.94,4.95h-4.94
	c0-0.88-0.21-1.55-0.64-2.02c-0.43-0.47-1-0.7-1.72-0.7c-1.37,0-2.16,0.87-2.39,2.61c-0.07,0.55-0.11,1.31-0.11,2.28
	c0,1.7,0.2,2.88,0.61,3.53S68.32,247.41,69.21,247.41z M88.91,239.02l-1.73-0.12c-1.66,0-2.72,0.52-3.19,1.56v10.7h-5.27v-16.91
	h4.94l0.17,2.17c0.88-1.66,2.12-2.48,3.7-2.48c0.56,0,1.05,0.06,1.47,0.19L88.91,239.02z M98.69,251.47c-2.59,0-4.69-0.77-6.3-2.32
	c-1.6-1.55-2.41-3.56-2.41-6.04v-0.44c0-1.73,0.32-3.25,0.96-4.58c0.64-1.32,1.58-2.35,2.8-3.07c1.23-0.72,2.69-1.09,4.38-1.09
	c2.38,0,4.25,0.74,5.62,2.21c1.38,1.47,2.06,3.53,2.06,6.16v2.05H95.35c0.19,0.95,0.6,1.69,1.23,2.23c0.63,0.54,1.46,0.81,2.47,0.81
	c1.67,0,2.97-0.58,3.91-1.75l2.41,2.84c-0.66,0.91-1.59,1.63-2.79,2.16S100.07,251.47,98.69,251.47z M98.1,238
	c-1.54,0-2.46,1.02-2.75,3.06h5.31v-0.41c0.02-0.84-0.19-1.5-0.64-1.96C99.57,238.23,98.93,238,98.1,238z M107.27,242.58
	c0-2.68,0.58-4.79,1.73-6.33c1.16-1.54,2.77-2.31,4.84-2.31c1.51,0,2.78,0.59,3.81,1.78v-8.56h5.28v24h-4.73l-0.27-1.81
	c-1.08,1.42-2.46,2.12-4.12,2.12c-2.01,0-3.6-0.77-4.78-2.31C107.86,247.62,107.27,245.42,107.27,242.58z M112.53,242.91
	c0,3,0.88,4.5,2.62,4.5c1.17,0,2-0.49,2.5-1.47v-6.44c-0.48-1-1.3-1.5-2.47-1.5c-1.62,0-2.51,1.31-2.64,3.94L112.53,242.91z
	 M125.89,229.89c0-0.75,0.27-1.36,0.81-1.84c0.54-0.48,1.24-0.72,2.11-0.72c0.86,0,1.57,0.24,2.11,0.72
	c0.54,0.48,0.81,1.09,0.81,1.84s-0.27,1.37-0.81,1.84c-0.54,0.48-1.25,0.72-2.11,0.72c-0.87,0-1.57-0.24-2.11-0.72
	C126.16,231.26,125.89,230.64,125.89,229.89z M131.49,251.16h-5.28v-16.91h5.28V251.16z M140.86,230.05v4.2h2.78v3.66h-2.78v7.73
	c0,0.64,0.11,1.08,0.34,1.33c0.23,0.25,0.68,0.38,1.36,0.38c0.52,0,0.96-0.03,1.31-0.09v3.77c-0.95,0.3-1.94,0.45-2.97,0.45
	c-1.81,0-3.15-0.43-4.02-1.28c-0.87-0.85-1.3-2.15-1.3-3.89v-8.39h-2.16v-3.66h2.16v-4.2H140.86z M163.91,239.02l-1.73-0.12
	c-1.66,0-2.72,0.52-3.19,1.56v10.7h-5.27v-16.91h4.94l0.17,2.17c0.88-1.66,2.12-2.48,3.7-2.48c0.56,0,1.05,0.06,1.47,0.19
	L163.91,239.02z M173.69,251.47c-2.59,0-4.69-0.77-6.3-2.32c-1.6-1.55-2.41-3.56-2.41-6.04v-0.44c0-1.73,0.32-3.25,0.96-4.58
	c0.64-1.32,1.58-2.35,2.8-3.07c1.23-0.72,2.69-1.09,4.38-1.09c2.38,0,4.25,0.74,5.62,2.21c1.38,1.47,2.06,3.53,2.06,6.16v2.05
	h-10.47c0.19,0.95,0.6,1.69,1.23,2.23c0.63,0.54,1.46,0.81,2.47,0.81c1.67,0,2.97-0.58,3.91-1.75l2.41,2.84
	c-0.66,0.91-1.59,1.63-2.79,2.16S175.07,251.47,173.69,251.47z M173.1,238c-1.54,0-2.46,1.02-2.75,3.06h5.31v-0.41
	c0.02-0.84-0.19-1.5-0.64-1.96C174.57,238.23,173.93,238,173.1,238z M198.63,242.83c0,2.62-0.59,4.72-1.77,6.29
	c-1.18,1.57-2.78,2.35-4.79,2.35c-1.55,0-2.83-0.57-3.83-1.7v7.89h-5.27v-23.41h4.92l0.16,1.56c1.01-1.25,2.34-1.88,3.98-1.88
	c2.08,0,3.7,0.77,4.86,2.3c1.16,1.54,1.73,3.65,1.73,6.34V242.83z M193.36,242.5c0-3-0.88-4.5-2.62-4.5c-1.25,0-2.08,0.45-2.5,1.34
	V246c0.46,0.94,1.3,1.41,2.53,1.41c1.68,0,2.54-1.45,2.59-4.34V242.5z M200.28,242.55c0-1.69,0.33-3.19,0.98-4.51
	c0.66-1.32,1.6-2.33,2.83-3.04c1.23-0.71,2.67-1.06,4.33-1.06c2.53,0,4.53,0.78,5.98,2.35c1.46,1.57,2.19,3.7,2.19,6.4v0.19
	c0,2.64-0.73,4.73-2.2,6.27c-1.46,1.55-3.45,2.32-5.95,2.32c-2.41,0-4.34-0.72-5.8-2.16c-1.46-1.44-2.25-3.4-2.36-5.87
	L200.28,242.55z M205.55,242.88c0,1.56,0.24,2.71,0.73,3.44c0.49,0.73,1.21,1.09,2.17,1.09c1.88,0,2.83-1.44,2.88-4.33v-0.53
	c0-3.03-0.97-4.55-2.91-4.55c-1.76,0-2.71,1.31-2.86,3.92L205.55,242.88z M229.14,239.02l-1.73-0.12c-1.66,0-2.72,0.52-3.19,1.56
	v10.7h-5.27v-16.91h4.94l0.17,2.17c0.88-1.66,2.12-2.48,3.7-2.48c0.56,0,1.05,0.06,1.47,0.19L229.14,239.02z M237.96,230.05v4.2
	h2.78v3.66h-2.78v7.73c0,0.64,0.11,1.08,0.34,1.33c0.23,0.25,0.68,0.38,1.36,0.38c0.52,0,0.96-0.03,1.31-0.09v3.77
	c-0.95,0.3-1.94,0.45-2.97,0.45c-1.81,0-3.15-0.43-4.02-1.28c-0.87-0.85-1.3-2.15-1.3-3.89v-8.39h-2.16v-3.66h2.16v-4.2H237.96z
	 M251.66,246.41c0-0.45-0.23-0.81-0.7-1.08c-0.47-0.27-1.36-0.55-2.67-0.84c-1.31-0.29-2.4-0.67-3.25-1.15
	c-0.85-0.47-1.51-1.05-1.95-1.73c-0.45-0.68-0.67-1.45-0.67-2.33c0-1.55,0.64-2.83,1.92-3.84c1.28-1,2.96-1.51,5.03-1.51
	c2.23,0,4.02,0.51,5.38,1.52c1.35,1.01,2.03,2.34,2.03,3.98h-5.28c0-1.35-0.71-2.03-2.14-2.03c-0.55,0-1.02,0.15-1.39,0.46
	c-0.38,0.31-0.56,0.69-0.56,1.15c0,0.47,0.23,0.85,0.69,1.14c0.46,0.29,1.19,0.53,2.2,0.72c1,0.19,1.89,0.41,2.65,0.67
	c2.54,0.88,3.81,2.44,3.81,4.7c0,1.54-0.69,2.8-2.05,3.77c-1.37,0.97-3.14,1.45-5.32,1.45c-1.45,0-2.74-0.26-3.88-0.78
	c-1.14-0.52-2.02-1.23-2.66-2.12c-0.64-0.9-0.95-1.84-0.95-2.83h4.92c0.02,0.78,0.28,1.35,0.78,1.71s1.14,0.54,1.92,0.54
	c0.72,0,1.26-0.15,1.62-0.44C251.48,247.26,251.66,246.88,251.66,246.41z M33.64,277.57c-0.62-0.88-1.1-1.71-1.45-2.5
	c-0.35-0.79-0.52-1.61-0.52-2.45c0-1.83,0.59-3.31,1.78-4.45c1.19-1.13,2.74-1.7,4.66-1.7c1.72,0,3.14,0.52,4.27,1.57
	s1.69,2.35,1.69,3.9c0,1.94-1.07,3.66-3.2,5.16l-1.19,0.83l3.5,4.02c0.57-1.15,0.86-2.4,0.86-3.77h4.42c0,3.07-0.71,5.54-2.12,7.39
	l3.47,3.98h-5.88l-1.06-1.2c-0.88,0.52-1.77,0.91-2.68,1.16c-0.91,0.25-1.94,0.38-3.09,0.38c-2.25,0-4.05-0.59-5.41-1.77
	c-1.35-1.18-2.03-2.74-2.03-4.66c0-1.05,0.27-2,0.8-2.86c0.54-0.85,1.58-1.85,3.13-2.98L33.64,277.57z M37.43,285.82
	c0.92,0,1.79-0.21,2.62-0.64l-4.09-4.66l-0.14,0.09c-0.59,0.73-0.89,1.55-0.89,2.47c0,0.76,0.24,1.41,0.72,1.94
	C36.13,285.56,36.72,285.82,37.43,285.82z M36.21,272.56c0,0.73,0.4,1.62,1.19,2.66l1.05-0.66c0.48-0.31,0.83-0.63,1.05-0.97
	c0.22-0.33,0.33-0.75,0.33-1.27c0-0.48-0.17-0.9-0.5-1.25c-0.33-0.35-0.75-0.53-1.23-0.53c-0.58,0-1.04,0.19-1.38,0.55
	C36.38,271.47,36.21,271.95,36.21,272.56z M68.64,284.81c0-0.45-0.23-0.81-0.7-1.08c-0.47-0.27-1.36-0.55-2.67-0.84
	c-1.31-0.29-2.4-0.67-3.25-1.15c-0.85-0.47-1.51-1.05-1.95-1.73c-0.45-0.68-0.67-1.45-0.67-2.33c0-1.55,0.64-2.83,1.92-3.84
	c1.28-1,2.96-1.51,5.03-1.51c2.23,0,4.02,0.51,5.38,1.52c1.35,1.01,2.03,2.34,2.03,3.98h-5.28c0-1.35-0.71-2.03-2.14-2.03
	c-0.55,0-1.02,0.15-1.39,0.46c-0.38,0.31-0.56,0.69-0.56,1.15c0,0.47,0.23,0.85,0.69,1.14c0.46,0.29,1.19,0.53,2.2,0.72
	c1,0.19,1.89,0.41,2.65,0.67c2.54,0.88,3.81,2.44,3.81,4.7c0,1.54-0.69,2.8-2.05,3.77c-1.37,0.97-3.14,1.45-5.32,1.45
	c-1.45,0-2.74-0.26-3.88-0.78c-1.14-0.52-2.02-1.23-2.66-2.12c-0.64-0.9-0.95-1.84-0.95-2.83h4.92c0.02,0.78,0.28,1.35,0.78,1.71
	s1.14,0.54,1.92,0.54c0.72,0,1.26-0.15,1.62-0.44C68.46,285.66,68.64,285.28,68.64,284.81z M83.32,285.81c0.74,0,1.31-0.2,1.72-0.6
	c0.41-0.4,0.6-0.96,0.59-1.68h4.94c0,1.85-0.66,3.38-1.99,4.56s-3.04,1.78-5.13,1.78c-2.46,0-4.4-0.77-5.81-2.31
	c-1.42-1.54-2.12-3.68-2.12-6.41v-0.22c0-1.71,0.31-3.22,0.95-4.52c0.63-1.31,1.54-2.31,2.73-3.02s2.59-1.05,4.22-1.05
	c2.2,0,3.94,0.61,5.23,1.83c1.29,1.22,1.94,2.87,1.94,4.95h-4.94c0-0.88-0.21-1.55-0.64-2.02c-0.43-0.47-1-0.7-1.72-0.7
	c-1.37,0-2.16,0.87-2.39,2.61c-0.07,0.55-0.11,1.31-0.11,2.28c0,1.7,0.2,2.88,0.61,3.53C81.79,285.48,82.44,285.81,83.32,285.81z
	 M92.14,280.95c0-1.69,0.33-3.19,0.98-4.51c0.66-1.32,1.6-2.33,2.83-3.04c1.23-0.71,2.67-1.06,4.33-1.06c2.53,0,4.53,0.78,5.98,2.35
	c1.46,1.57,2.19,3.7,2.19,6.4v0.19c0,2.64-0.73,4.73-2.2,6.27c-1.46,1.55-3.45,2.32-5.95,2.32c-2.41,0-4.34-0.72-5.8-2.16
	c-1.46-1.44-2.25-3.4-2.36-5.87L92.14,280.95z M97.4,281.28c0,1.56,0.24,2.71,0.73,3.44c0.49,0.73,1.21,1.09,2.17,1.09
	c1.88,0,2.83-1.44,2.88-4.33v-0.53c0-3.03-0.97-4.55-2.91-4.55c-1.76,0-2.71,1.31-2.86,3.92L97.4,281.28z M120.99,277.42l-1.73-0.12
	c-1.66,0-2.72,0.52-3.19,1.56v10.7h-5.27v-16.91h4.94l0.17,2.17c0.88-1.66,2.12-2.48,3.7-2.48c0.56,0,1.05,0.06,1.47,0.19
	L120.99,277.42z M130.78,289.87c-2.59,0-4.69-0.77-6.3-2.32c-1.6-1.55-2.41-3.56-2.41-6.04v-0.44c0-1.73,0.32-3.25,0.96-4.58
	c0.64-1.32,1.58-2.35,2.8-3.07c1.23-0.72,2.69-1.09,4.37-1.09c2.38,0,4.25,0.74,5.62,2.21c1.38,1.47,2.06,3.53,2.06,6.16v2.05
	h-10.47c0.19,0.95,0.6,1.69,1.23,2.23c0.63,0.54,1.46,0.81,2.47,0.81c1.67,0,2.97-0.58,3.91-1.75l2.41,2.84
	c-0.66,0.91-1.59,1.63-2.79,2.16S132.16,289.87,130.78,289.87z M130.18,276.4c-1.54,0-2.46,1.02-2.75,3.06h5.31v-0.41
	c0.02-0.84-0.19-1.5-0.64-1.96C131.66,276.63,131.02,276.4,130.18,276.4z M148.87,284.81c0-0.45-0.23-0.81-0.7-1.08
	c-0.47-0.27-1.36-0.55-2.67-0.84c-1.31-0.29-2.4-0.67-3.25-1.15c-0.85-0.47-1.51-1.05-1.95-1.73c-0.45-0.68-0.67-1.45-0.67-2.33
	c0-1.55,0.64-2.83,1.92-3.84c1.28-1,2.96-1.51,5.03-1.51c2.23,0,4.02,0.51,5.38,1.52c1.35,1.01,2.03,2.34,2.03,3.98h-5.28
	c0-1.35-0.71-2.03-2.14-2.03c-0.55,0-1.02,0.15-1.39,0.46c-0.38,0.31-0.56,0.69-0.56,1.15c0,0.47,0.23,0.85,0.69,1.14
	c0.46,0.29,1.19,0.53,2.2,0.72c1,0.19,1.89,0.41,2.65,0.67c2.54,0.88,3.81,2.44,3.81,4.7c0,1.54-0.69,2.8-2.05,3.77
	c-1.37,0.97-3.14,1.45-5.32,1.45c-1.45,0-2.74-0.26-3.88-0.78c-1.14-0.52-2.02-1.23-2.66-2.12c-0.64-0.9-0.95-1.84-0.95-2.83h4.92
	c0.02,0.78,0.28,1.35,0.78,1.71s1.14,0.54,1.92,0.54c0.72,0,1.26-0.15,1.62-0.44C148.69,285.66,148.87,285.28,148.87,284.81z
	 M158.26,295.68l-2.66-1.25l0.53-1.06c0.73-1.35,1.11-2.65,1.14-3.88v-3.91h4.22l-0.02,3.39c-0.01,1.2-0.32,2.42-0.92,3.66
	C159.95,293.87,159.19,294.89,158.26,295.68z M177.98,272.65l0.17,1.98c1.2-1.53,2.81-2.3,4.83-2.3c2.13,0,3.58,0.85,4.33,2.55
	c1.15-1.7,2.8-2.55,4.97-2.55c3.43,0,5.19,2.07,5.28,6.22v11h-5.28v-10.67c0-0.86-0.15-1.49-0.44-1.89
	c-0.29-0.4-0.82-0.59-1.59-0.59c-1.04,0-1.82,0.46-2.33,1.39l0.02,0.22v11.55h-5.28v-10.64c0-0.88-0.14-1.53-0.42-1.92
	c-0.28-0.4-0.82-0.59-1.61-0.59c-1.01,0-1.78,0.46-2.31,1.39v11.77h-5.27v-16.91H177.98z M199.9,280.95c0-1.69,0.33-3.19,0.98-4.51
	c0.66-1.32,1.6-2.33,2.83-3.04c1.23-0.71,2.67-1.06,4.33-1.06c2.53,0,4.53,0.78,5.98,2.35c1.46,1.57,2.19,3.7,2.19,6.4v0.19
	c0,2.64-0.73,4.73-2.2,6.27c-1.46,1.55-3.45,2.32-5.95,2.32c-2.41,0-4.34-0.72-5.8-2.16c-1.46-1.44-2.25-3.4-2.36-5.87L199.9,280.95
	z M205.17,281.28c0,1.56,0.24,2.71,0.73,3.44c0.49,0.73,1.21,1.09,2.17,1.09c1.88,0,2.83-1.44,2.88-4.33v-0.53
	c0-3.03-0.97-4.55-2.91-4.55c-1.76,0-2.71,1.31-2.86,3.92L205.17,281.28z M223.37,272.65l0.17,1.98c1.17-1.53,2.78-2.3,4.83-2.3
	c1.76,0,3.08,0.53,3.95,1.58c0.87,1.05,1.32,2.64,1.35,4.75v10.89h-5.28v-10.67c0-0.85-0.17-1.48-0.52-1.88
	c-0.34-0.4-0.97-0.6-1.88-0.6c-1.03,0-1.8,0.41-2.3,1.22v11.94h-5.27v-16.91H223.37z M242.71,268.45v4.2h2.78v3.66h-2.78v7.73
	c0,0.64,0.11,1.08,0.34,1.33c0.23,0.25,0.68,0.38,1.36,0.38c0.52,0,0.96-0.03,1.31-0.09v3.77c-0.95,0.3-1.94,0.45-2.97,0.45
	c-1.81,0-3.15-0.43-4.02-1.28c-0.87-0.85-1.3-2.15-1.3-3.89v-8.39h-2.16v-3.66h2.16v-4.2H242.71z M252.71,274.46
	c1.12-1.42,2.56-2.12,4.31-2.12c1.86,0,3.27,0.55,4.22,1.66c0.95,1.1,1.43,2.73,1.45,4.89v10.67h-5.28v-10.55
	c0-0.9-0.18-1.55-0.55-1.98c-0.37-0.42-0.98-0.63-1.86-0.63c-1.08,0-1.85,0.34-2.3,1.03v12.12h-5.27v-24h5.27V274.46z
	 M271.18,289.56h-5.28v-24h5.28V289.56z M281.18,282.18l2.81-9.53h5.64l-6.89,19.73l-0.3,0.72c-0.98,2.19-2.71,3.28-5.19,3.28
	c-0.69,0-1.41-0.1-2.17-0.31v-3.75h0.69c0.74,0,1.3-0.11,1.7-0.32c0.39-0.21,0.68-0.6,0.87-1.15l0.42-1.13l-5.88-17.08h5.62
	L281.18,282.18z"/>
</svg>
