<?xml version="1.0" encoding="utf-8"?>
<!-- Generator: Adobe Illustrator 24.2.3, SVG Export Plug-In . SVG Version: 6.00 Build 0)  -->
<svg version="1.1" id="Layer_1" xmlns="http://www.w3.org/2000/svg" xmlns:xlink="http://www.w3.org/1999/xlink" x="0px" y="0px"
	 viewBox="0 0 320 468" style="enable-background:new 0 0 320 468;" xml:space="preserve">
<style type="text/css">
	.st0{fill:#021D8B;}
	.st1{fill:#FFFFFF;}
</style>
<path class="st0" d="M196.72,357.18h-76.59c-12.77,0-23.12-10.35-23.12-23.12v0c0-12.77,10.35-23.12,23.12-23.12h76.59
	c12.77,0,23.12,10.35,23.12,23.12v0C219.84,346.83,209.49,357.18,196.72,357.18z"/>
<g>
	<path class="st1" d="M142.48,327.54c-0.08,1.07-0.47,1.91-1.19,2.53s-1.65,0.92-2.82,0.92c-1.28,0-2.28-0.43-3.01-1.29
		c-0.73-0.86-1.1-2.04-1.1-3.54v-0.61c0-0.96,0.17-1.8,0.51-2.53s0.82-1.29,1.45-1.68c0.63-0.39,1.35-0.58,2.18-0.58
		c1.15,0,2.07,0.31,2.78,0.92s1.11,1.48,1.22,2.59h-2.05c-0.05-0.64-0.23-1.11-0.54-1.4c-0.31-0.29-0.78-0.43-1.4-0.43
		c-0.68,0-1.2,0.25-1.53,0.73c-0.34,0.49-0.51,1.25-0.52,2.28v0.75c0,1.08,0.16,1.86,0.49,2.36s0.84,0.75,1.54,0.75
		c0.63,0,1.11-0.14,1.42-0.43c0.31-0.29,0.49-0.74,0.54-1.34H142.48z"/>
	<path class="st1" d="M145.78,330.86h-1.98v-10.5h1.98V330.86z"/>
	<path class="st1" d="M147.39,321.55c0-0.3,0.1-0.54,0.3-0.73s0.47-0.29,0.81-0.29c0.34,0,0.61,0.1,0.81,0.29s0.3,0.44,0.3,0.73
		c0,0.3-0.1,0.55-0.3,0.74s-0.47,0.29-0.8,0.29s-0.6-0.1-0.8-0.29S147.39,321.85,147.39,321.55z M149.49,330.86h-1.98v-7.4h1.98
		V330.86z"/>
	<path class="st1" d="M154.19,329.4c0.36,0,0.66-0.1,0.89-0.3s0.35-0.47,0.36-0.8h1.85c0,0.5-0.14,0.96-0.41,1.38
		c-0.27,0.42-0.64,0.74-1.1,0.97c-0.47,0.23-0.98,0.35-1.55,0.35c-1.06,0-1.89-0.34-2.5-1.01c-0.61-0.67-0.92-1.6-0.92-2.79v-0.13
		c0-1.14,0.3-2.05,0.91-2.73s1.44-1.02,2.5-1.02c0.93,0,1.67,0.26,2.23,0.79c0.56,0.53,0.84,1.23,0.85,2.1h-1.85
		c-0.01-0.38-0.13-0.7-0.36-0.94c-0.23-0.24-0.53-0.36-0.9-0.36c-0.46,0-0.81,0.17-1.04,0.5c-0.23,0.34-0.35,0.88-0.35,1.63v0.21
		c0,0.76,0.12,1.31,0.35,1.64S153.72,329.4,154.19,329.4z"/>
	<path class="st1" d="M161.1,327.89l-0.71,0.71v2.26h-1.98v-10.5h1.98v5.82l0.38-0.49l1.89-2.22h2.37l-2.67,3.08l2.91,4.31H163
		L161.1,327.89z"/>
	<path class="st1" d="M171.75,321.64v1.82h1.26v1.45h-1.26v3.69c0,0.27,0.05,0.47,0.16,0.59c0.11,0.12,0.31,0.18,0.6,0.18
		c0.22,0,0.41-0.02,0.58-0.05v1.5c-0.39,0.12-0.79,0.18-1.2,0.18c-1.38,0-2.09-0.7-2.12-2.1v-3.99h-1.08v-1.45h1.08v-1.82H171.75z"
		/>
	<path class="st1" d="M173.6,327.09c0-0.73,0.14-1.39,0.42-1.96c0.28-0.57,0.69-1.02,1.22-1.33c0.53-0.31,1.15-0.47,1.85-0.47
		c1,0,1.81,0.31,2.44,0.92c0.63,0.61,0.98,1.44,1.06,2.49l0.01,0.51c0,1.13-0.32,2.04-0.95,2.73c-0.63,0.69-1.48,1.03-2.55,1.03
		s-1.92-0.34-2.55-1.03s-0.95-1.61-0.95-2.79V327.09z M175.58,327.23c0,0.7,0.13,1.24,0.4,1.61c0.26,0.37,0.64,0.56,1.13,0.56
		c0.48,0,0.85-0.18,1.12-0.55c0.27-0.37,0.4-0.96,0.4-1.76c0-0.69-0.13-1.22-0.4-1.6c-0.27-0.38-0.65-0.57-1.13-0.57
		c-0.48,0-0.86,0.19-1.12,0.56C175.71,325.86,175.58,326.44,175.58,327.23z"/>
	<path class="st1" d="M126.3,347.66h-1.98v-10.5h1.98V347.66z"/>
	<path class="st1" d="M131.33,347.79c-1.08,0-1.97-0.33-2.65-1s-1.02-1.55-1.02-2.66v-0.19c0-0.74,0.14-1.41,0.43-1.99
		c0.29-0.58,0.69-1.04,1.22-1.35c0.53-0.32,1.13-0.47,1.8-0.47c1.01,0,1.81,0.32,2.39,0.96s0.87,1.54,0.87,2.71v0.81h-4.71
		c0.06,0.48,0.26,0.87,0.58,1.16s0.73,0.44,1.22,0.44c0.76,0,1.36-0.28,1.78-0.83l0.97,1.09c-0.3,0.42-0.7,0.75-1.2,0.98
		C132.51,347.68,131.95,347.79,131.33,347.79z M131.1,341.72c-0.39,0-0.71,0.13-0.95,0.4s-0.4,0.65-0.47,1.14h2.75v-0.16
		c-0.01-0.44-0.13-0.78-0.36-1.02S131.52,341.72,131.1,341.72z"/>
	<path class="st1" d="M139.78,347.66c-0.09-0.18-0.16-0.4-0.2-0.66c-0.48,0.53-1.1,0.8-1.87,0.8c-0.72,0-1.33-0.21-1.8-0.63
		s-0.71-0.95-0.71-1.59c0-0.78,0.29-1.39,0.87-1.8s1.42-0.63,2.52-0.64h0.91v-0.42c0-0.34-0.09-0.62-0.26-0.82s-0.45-0.31-0.83-0.31
		c-0.33,0-0.59,0.08-0.78,0.24s-0.28,0.38-0.28,0.66h-1.98c0-0.43,0.13-0.83,0.4-1.19s0.64-0.65,1.12-0.86
		c0.48-0.21,1.03-0.31,1.63-0.31c0.91,0,1.63,0.23,2.17,0.69c0.54,0.46,0.8,1.1,0.8,1.93v3.21c0,0.7,0.1,1.23,0.29,1.59v0.12H139.78
		z M138.15,346.28c0.29,0,0.56-0.07,0.81-0.19c0.25-0.13,0.43-0.3,0.55-0.52v-1.27h-0.74c-0.99,0-1.52,0.34-1.58,1.03l-0.01,0.12
		c0,0.25,0.09,0.45,0.26,0.61S137.85,346.28,138.15,346.28z"/>
	<path class="st1" d="M147.16,342.11c-0.27-0.04-0.51-0.05-0.71-0.05c-0.75,0-1.24,0.25-1.47,0.76v4.84H143v-7.4h1.87l0.05,0.88
		c0.4-0.68,0.95-1.02,1.65-1.02c0.22,0,0.42,0.03,0.62,0.09L147.16,342.11z"/>
	<path class="st1" d="M149.92,340.26l0.06,0.85c0.53-0.66,1.24-0.99,2.13-0.99c0.78,0,1.37,0.23,1.75,0.69s0.58,1.15,0.59,2.06v4.78
		h-1.98v-4.73c0-0.42-0.09-0.72-0.27-0.91c-0.18-0.19-0.49-0.28-0.91-0.28c-0.56,0-0.97,0.24-1.25,0.71v5.22h-1.98v-7.4H149.92z"/>
	<path class="st1" d="M161.29,340.26l0.06,0.83c0.52-0.64,1.23-0.96,2.13-0.96c0.95,0,1.61,0.38,1.96,1.13
		c0.52-0.75,1.26-1.13,2.22-1.13c0.8,0,1.4,0.23,1.79,0.7c0.39,0.47,0.59,1.17,0.59,2.11v4.72h-1.98v-4.72
		c0-0.42-0.08-0.73-0.25-0.92c-0.16-0.19-0.45-0.29-0.87-0.29c-0.59,0-1,0.28-1.23,0.85l0.01,5.08h-1.98v-4.71
		c0-0.43-0.08-0.74-0.25-0.93c-0.17-0.19-0.46-0.29-0.86-0.29c-0.56,0-0.97,0.23-1.22,0.7v5.23h-1.98v-7.4H161.29z"/>
	<path class="st1" d="M171.25,343.89c0-0.73,0.14-1.39,0.42-1.96c0.28-0.57,0.69-1.02,1.22-1.33c0.53-0.31,1.15-0.47,1.85-0.47
		c1,0,1.81,0.31,2.44,0.92c0.63,0.61,0.98,1.44,1.06,2.49l0.01,0.51c0,1.13-0.32,2.04-0.95,2.73c-0.63,0.69-1.48,1.03-2.55,1.03
		s-1.92-0.34-2.55-1.03s-0.95-1.61-0.95-2.79V343.89z M173.22,344.03c0,0.7,0.13,1.24,0.4,1.61c0.26,0.37,0.64,0.56,1.13,0.56
		c0.48,0,0.85-0.18,1.12-0.55c0.27-0.37,0.4-0.96,0.4-1.76c0-0.69-0.13-1.22-0.4-1.6c-0.27-0.38-0.65-0.57-1.13-0.57
		c-0.48,0-0.86,0.19-1.12,0.56C173.35,342.66,173.22,343.24,173.22,344.03z"/>
	<path class="st1" d="M183.63,342.11c-0.27-0.04-0.51-0.05-0.71-0.05c-0.75,0-1.24,0.25-1.47,0.76v4.84h-1.98v-7.4h1.87l0.05,0.88
		c0.4-0.68,0.95-1.02,1.65-1.02c0.22,0,0.42,0.03,0.62,0.09L183.63,342.11z"/>
	<path class="st1" d="M187.98,347.79c-1.08,0-1.97-0.33-2.65-1c-0.68-0.67-1.02-1.55-1.02-2.66v-0.19c0-0.74,0.14-1.41,0.43-1.99
		c0.29-0.58,0.69-1.04,1.22-1.35c0.53-0.32,1.13-0.47,1.8-0.47c1.01,0,1.81,0.32,2.39,0.96c0.58,0.64,0.87,1.54,0.87,2.71v0.81
		h-4.71c0.06,0.48,0.26,0.87,0.58,1.16s0.73,0.44,1.22,0.44c0.76,0,1.36-0.28,1.78-0.83l0.97,1.09c-0.3,0.42-0.7,0.75-1.2,0.98
		C189.16,347.68,188.6,347.79,187.98,347.79z M187.75,341.72c-0.39,0-0.71,0.13-0.95,0.4c-0.24,0.27-0.4,0.65-0.47,1.14h2.75v-0.16
		c-0.01-0.44-0.13-0.78-0.36-1.02S188.17,341.72,187.75,341.72z"/>
</g>
</svg>
