<?xml version="1.0" encoding="utf-8"?>
<!-- Generator: Adobe Illustrator 25.2.1, SVG Export Plug-In . SVG Version: 6.00 Build 0)  -->
<svg version="1.1" id="Layer_1" xmlns="http://www.w3.org/2000/svg" xmlns:xlink="http://www.w3.org/1999/xlink" x="0px" y="0px"
	 viewBox="0 0 160 600" style="enable-background:new 0 0 160 600;" xml:space="preserve">
<style type="text/css">
	.st0{fill:#021D8B;}
</style>
<path class="st0" d="M66.36,550.41c0.14,0.13,0.21,0.3,0.21,0.49v7.62c0,0.19-0.07,0.36-0.2,0.49c-0.13,0.13-0.3,0.2-0.49,0.2
	c-0.18,0-0.34-0.07-0.48-0.2c-0.14-0.13-0.21-0.3-0.21-0.49v-7.62c0-0.19,0.07-0.36,0.2-0.49c0.13-0.13,0.3-0.2,0.49-0.2
	C66.06,550.21,66.22,550.27,66.36,550.41z M65.88,547.01c-0.19,0-0.36,0.07-0.49,0.2c-0.13,0.13-0.2,0.3-0.2,0.49v0.53
	c0,0.19,0.07,0.36,0.21,0.49c0.14,0.13,0.3,0.2,0.48,0.2c0.19,0,0.36-0.07,0.49-0.2c0.13-0.13,0.2-0.3,0.2-0.49v-0.53
	c0-0.19-0.07-0.36-0.21-0.49C66.22,547.08,66.06,547.01,65.88,547.01z M63.45,550.49c-0.24-0.07-0.57-0.12-0.99-0.16
	c-0.75,0-1.4,0.21-1.95,0.62c-0.04-0.17-0.12-0.3-0.24-0.4c-0.12-0.1-0.26-0.15-0.42-0.15c-0.19,0-0.35,0.07-0.48,0.2
	c-0.13,0.13-0.2,0.29-0.2,0.48v2.33v5.13c0,0.19,0.07,0.35,0.2,0.48c0.14,0.13,0.29,0.2,0.47,0.2c0.19,0,0.35-0.07,0.48-0.2
	c0.13-0.13,0.2-0.29,0.2-0.48v-5.08c0.01-0.25,0.06-0.48,0.16-0.69c0.09-0.21,0.23-0.4,0.4-0.56c0.17-0.16,0.37-0.29,0.59-0.38
	c0.22-0.09,0.46-0.14,0.72-0.14c0.33,0,0.64,0.08,0.94,0.25c0.12,0.08,0.25,0.12,0.41,0.12c0.19,0,0.35-0.06,0.48-0.19
	c0.13-0.12,0.2-0.29,0.2-0.49c0-0.25-0.1-0.44-0.3-0.58C63.92,550.67,63.69,550.57,63.45,550.49z M74.78,550.19
	c-0.3,0-0.51,0.14-0.64,0.42l-2.69,6.26l-2.69-6.26c-0.06-0.13-0.15-0.24-0.26-0.31c-0.12-0.07-0.24-0.11-0.37-0.11
	c-0.21,0-0.37,0.07-0.49,0.22c-0.12,0.15-0.18,0.3-0.18,0.47c0,0.1,0.02,0.19,0.05,0.27l3.3,7.72c0.11,0.28,0.32,0.42,0.64,0.42
	c0.29,0,0.5-0.14,0.64-0.42l3.3-7.72c0.04-0.08,0.05-0.18,0.05-0.27c0-0.17-0.06-0.33-0.18-0.47
	C75.15,550.26,74.98,550.19,74.78,550.19z M81.98,552.13c0.18,0.4,0.26,0.82,0.26,1.27v5.12c0,0.19-0.07,0.36-0.21,0.49
	c-0.14,0.13-0.3,0.2-0.48,0.2c-0.17,0-0.32-0.05-0.44-0.15c-0.13-0.1-0.2-0.23-0.23-0.39c-0.56,0.41-1.2,0.62-1.92,0.62
	c-0.45,0-0.87-0.08-1.27-0.25c-0.4-0.17-0.75-0.4-1.04-0.7c-0.3-0.3-0.53-0.64-0.71-1.04c-0.18-0.4-0.26-0.82-0.26-1.27v-2.61
	c0-0.45,0.08-0.87,0.25-1.27c0.17-0.4,0.41-0.75,0.71-1.04c0.3-0.3,0.65-0.53,1.04-0.7c0.39-0.17,0.82-0.25,1.28-0.25
	c0.45,0,0.87,0.08,1.27,0.25c0.4,0.17,0.75,0.4,1.04,0.7C81.56,551.38,81.8,551.73,81.98,552.13z M80.86,553.4
	c0-0.25-0.05-0.5-0.15-0.73c-0.1-0.23-0.24-0.43-0.41-0.61c-0.17-0.18-0.37-0.31-0.61-0.41c-0.24-0.1-0.48-0.15-0.74-0.15
	c-0.27,0-0.51,0.05-0.74,0.15c-0.23,0.1-0.43,0.23-0.61,0.41c-0.18,0.18-0.31,0.38-0.41,0.61c-0.1,0.23-0.15,0.47-0.15,0.73v2.61
	c0,0.25,0.05,0.5,0.15,0.73c0.1,0.23,0.24,0.43,0.41,0.61c0.17,0.18,0.37,0.31,0.61,0.41c0.24,0.1,0.48,0.15,0.74,0.15
	c0.25,0,0.5-0.05,0.73-0.14c0.23-0.09,0.43-0.22,0.6-0.38c0.17-0.16,0.31-0.35,0.41-0.57c0.1-0.22,0.16-0.45,0.17-0.71V553.4z
	 M85.03,552.68c0.1-0.23,0.23-0.43,0.41-0.61c0.18-0.18,0.38-0.31,0.61-0.41c0.23-0.1,0.48-0.15,0.74-0.15
	c0.38,0,0.72,0.1,1.03,0.31c0.31,0.21,0.56,0.49,0.73,0.85c0.05,0.13,0.13,0.24,0.25,0.32c0.11,0.08,0.24,0.12,0.39,0.12
	c0.19,0,0.36-0.07,0.49-0.2c0.13-0.13,0.2-0.3,0.2-0.49c0-0.07-0.02-0.16-0.05-0.25c-0.19-0.48-0.44-0.86-0.74-1.13
	c-0.3-0.27-0.6-0.47-0.9-0.61c-0.3-0.13-0.58-0.21-0.83-0.24c-0.25-0.03-0.41-0.05-0.5-0.05c-0.46,0-0.89,0.08-1.3,0.25
	c-0.41,0.17-0.76,0.4-1.07,0.69c-0.31,0.29-0.55,0.64-0.73,1.03c-0.18,0.4-0.26,0.83-0.26,1.29v2.61c0,0.45,0.09,0.87,0.26,1.27
	c0.18,0.4,0.41,0.75,0.71,1.04c0.3,0.3,0.64,0.53,1.04,0.7c0.4,0.17,0.82,0.25,1.27,0.25c0.01,0,0.13-0.01,0.35-0.02
	c0.22-0.01,0.5-0.08,0.82-0.2c0.32-0.12,0.65-0.32,0.99-0.6c0.34-0.28,0.63-0.68,0.87-1.22c0.04-0.08,0.05-0.17,0.05-0.25
	c0-0.18-0.07-0.34-0.2-0.48c-0.13-0.14-0.3-0.21-0.49-0.21c-0.15,0-0.27,0.04-0.38,0.12c-0.11,0.08-0.19,0.18-0.25,0.32
	c-0.16,0.36-0.39,0.65-0.71,0.85c-0.31,0.21-0.67,0.31-1.05,0.31c-0.25,0-0.5-0.05-0.74-0.15c-0.24-0.1-0.44-0.23-0.61-0.41
	c-0.17-0.18-0.31-0.38-0.41-0.61c-0.1-0.23-0.15-0.47-0.15-0.73v-2.61C84.89,553.15,84.94,552.91,85.03,552.68z M114.41,550.21
	c-0.19,0-0.36,0.07-0.49,0.2c-0.13,0.13-0.2,0.3-0.2,0.49v5.12c0,0.25-0.05,0.5-0.15,0.73c-0.1,0.23-0.24,0.43-0.41,0.61
	c-0.17,0.18-0.37,0.31-0.61,0.41c-0.24,0.1-0.48,0.15-0.74,0.15c-0.27,0-0.51-0.05-0.74-0.15c-0.23-0.1-0.43-0.23-0.61-0.41
	c-0.18-0.18-0.31-0.38-0.41-0.61c-0.1-0.23-0.15-0.47-0.15-0.73v-5.12c0-0.19-0.07-0.36-0.21-0.49c-0.14-0.13-0.3-0.2-0.48-0.2
	c-0.19,0-0.36,0.07-0.49,0.2c-0.13,0.13-0.2,0.3-0.2,0.49v5.12c0,0.45,0.08,0.87,0.25,1.27c0.17,0.4,0.41,0.75,0.71,1.04
	c0.3,0.3,0.65,0.53,1.04,0.7c0.39,0.17,0.82,0.25,1.28,0.25c0.45,0,0.87-0.08,1.27-0.25c0.4-0.17,0.75-0.4,1.04-0.7
	c0.3-0.3,0.53-0.64,0.71-1.04c0.18-0.4,0.26-0.82,0.26-1.27v-5.12c0-0.19-0.07-0.36-0.21-0.49
	C114.75,550.27,114.59,550.21,114.41,550.21z M122.69,552.13c0.18,0.4,0.26,0.82,0.26,1.27v5.12c0,0.19-0.07,0.36-0.21,0.49
	c-0.14,0.13-0.3,0.2-0.48,0.2c-0.17,0-0.32-0.05-0.44-0.15c-0.13-0.1-0.2-0.23-0.23-0.39c-0.56,0.41-1.2,0.62-1.92,0.62
	c-0.45,0-0.87-0.08-1.27-0.25c-0.4-0.17-0.75-0.4-1.04-0.7c-0.3-0.3-0.53-0.64-0.71-1.04c-0.18-0.4-0.26-0.82-0.26-1.27v-2.61
	c0-0.45,0.08-0.87,0.25-1.27c0.17-0.4,0.41-0.75,0.71-1.04c0.3-0.3,0.65-0.53,1.04-0.7c0.39-0.17,0.82-0.25,1.28-0.25
	c0.45,0,0.87,0.08,1.27,0.25c0.4,0.17,0.75,0.4,1.04,0.7C122.28,551.38,122.52,551.73,122.69,552.13z M121.58,553.4
	c0-0.25-0.05-0.5-0.15-0.73c-0.1-0.23-0.24-0.43-0.41-0.61c-0.17-0.18-0.37-0.31-0.61-0.41c-0.24-0.1-0.48-0.15-0.74-0.15
	c-0.27,0-0.51,0.05-0.74,0.15c-0.23,0.1-0.43,0.23-0.61,0.41c-0.18,0.18-0.31,0.38-0.41,0.61c-0.1,0.23-0.15,0.47-0.15,0.73v2.61
	c0,0.25,0.05,0.5,0.15,0.73c0.1,0.23,0.24,0.43,0.41,0.61c0.17,0.18,0.37,0.31,0.61,0.41c0.24,0.1,0.48,0.15,0.74,0.15
	c0.25,0,0.5-0.05,0.73-0.14c0.23-0.09,0.43-0.22,0.6-0.38c0.17-0.16,0.31-0.35,0.41-0.57c0.1-0.22,0.16-0.45,0.17-0.71V553.4z
	 M128.57,550.49c-0.24-0.07-0.57-0.12-0.99-0.16c-0.75,0-1.4,0.21-1.95,0.62c-0.04-0.17-0.12-0.3-0.24-0.4
	c-0.12-0.1-0.26-0.15-0.42-0.15c-0.19,0-0.35,0.07-0.48,0.2c-0.13,0.13-0.2,0.29-0.2,0.48v2.33v5.13c0,0.19,0.07,0.35,0.2,0.48
	c0.14,0.13,0.29,0.2,0.47,0.2c0.19,0,0.35-0.07,0.48-0.2c0.13-0.13,0.2-0.29,0.2-0.48v-5.08c0.01-0.25,0.06-0.48,0.16-0.69
	c0.09-0.21,0.23-0.4,0.4-0.56c0.17-0.16,0.37-0.29,0.59-0.38c0.22-0.09,0.46-0.14,0.72-0.14c0.33,0,0.64,0.08,0.94,0.25
	c0.12,0.08,0.25,0.12,0.41,0.12c0.19,0,0.35-0.06,0.48-0.19c0.13-0.12,0.2-0.29,0.2-0.49c0-0.25-0.1-0.44-0.3-0.58
	C129.03,550.67,128.81,550.57,128.57,550.49z M136.29,547.21c0.14,0.13,0.21,0.3,0.21,0.49v3.19v5.12v2.51
	c0,0.19-0.07,0.36-0.2,0.49c0,0,0,0,0,0c0,0,0,0,0,0c-0.13,0.13-0.3,0.2-0.49,0.2c-0.18,0-0.34-0.07-0.48-0.2
	c-0.11-0.1-0.16-0.22-0.18-0.36c-0.2,0.15-0.41,0.28-0.65,0.38c-0.4,0.17-0.82,0.25-1.27,0.25c-0.46,0-0.89-0.08-1.28-0.25
	c-0.39-0.17-0.74-0.4-1.04-0.7c-0.3-0.3-0.54-0.64-0.71-1.04c-0.17-0.4-0.25-0.82-0.25-1.27v-2.61c0-0.45,0.09-0.87,0.26-1.27
	c0.18-0.4,0.41-0.75,0.71-1.04c0.3-0.3,0.64-0.53,1.04-0.7c0.4-0.17,0.82-0.25,1.27-0.25c0.35,0,0.69,0.05,1.01,0.16
	c0.32,0.11,0.62,0.26,0.9,0.45v-3.05c0-0.19,0.07-0.36,0.2-0.49c0.13-0.13,0.3-0.2,0.49-0.2
	C135.99,547.01,136.15,547.08,136.29,547.21z M134.96,556.74c0.09-0.2,0.13-0.4,0.14-0.62v-2.84c-0.01-0.21-0.05-0.42-0.13-0.61
	c-0.1-0.23-0.23-0.43-0.41-0.61c-0.18-0.18-0.38-0.31-0.61-0.41c-0.23-0.1-0.48-0.15-0.74-0.15c-0.25,0-0.5,0.05-0.74,0.15
	c-0.24,0.1-0.44,0.23-0.61,0.41c-0.17,0.18-0.31,0.38-0.41,0.61c-0.1,0.23-0.15,0.47-0.15,0.73v2.61c0,0.25,0.05,0.5,0.15,0.73
	c0.1,0.23,0.23,0.43,0.41,0.61c0.18,0.18,0.38,0.31,0.61,0.41c0.23,0.1,0.48,0.15,0.74,0.15c0.25,0,0.5-0.05,0.74-0.15
	c0.24-0.1,0.44-0.23,0.61-0.41C134.72,557.17,134.86,556.97,134.96,556.74z M97.01,550.21c-0.19,0-0.36,0.07-0.49,0.2
	c-0.13,0.13-0.2,0.3-0.2,0.49v5.12c0,0.25-0.05,0.5-0.15,0.73c-0.1,0.23-0.24,0.43-0.41,0.61c-0.17,0.18-0.37,0.31-0.61,0.41
	c-0.24,0.1-0.48,0.15-0.74,0.15c-0.27,0-0.51-0.05-0.74-0.15c-0.23-0.1-0.43-0.23-0.61-0.41c-0.18-0.18-0.31-0.38-0.41-0.61
	c-0.1-0.23-0.15-0.47-0.15-0.73v-5.12c0-0.19-0.07-0.36-0.21-0.49c-0.14-0.13-0.3-0.2-0.48-0.2c-0.19,0-0.36,0.07-0.49,0.2
	c-0.13,0.13-0.2,0.3-0.2,0.49v5.12c0,0.45,0.08,0.87,0.25,1.27c0.17,0.4,0.41,0.75,0.71,1.04c0.3,0.3,0.65,0.53,1.04,0.7
	c0.39,0.17,0.82,0.25,1.28,0.25c0.45,0,0.87-0.08,1.27-0.25c0.23-0.1,0.44-0.22,0.64-0.36v1.72c-0.01,0.25-0.07,0.49-0.16,0.71
	c-0.1,0.22-0.23,0.41-0.41,0.57c-0.18,0.16-0.38,0.29-0.6,0.39c-0.22,0.1-0.47,0.15-0.74,0.15c-0.34,0-0.66-0.08-0.96-0.25
	c-0.12-0.08-0.26-0.13-0.42-0.13c-0.19,0-0.36,0.06-0.49,0.19c-0.13,0.13-0.2,0.29-0.2,0.5c0,0.25,0.1,0.45,0.31,0.59
	c0.21,0.14,0.43,0.24,0.68,0.32c0.25,0.07,0.58,0.13,1.01,0.16c0.76,0,1.43-0.21,2-0.64c0.87-0.62,1.36-1.51,1.36-2.51
	c0-0.68,0-3.13,0-4.43c0-0.49,0-0.82,0-0.82v-4.3c0-0.19-0.07-0.36-0.21-0.49C97.35,550.27,97.19,550.21,97.01,550.21z
	 M106.58,553.13h-2.88c-0.39,0-0.7,0.29-0.7,0.67c0,0.39,0.31,0.7,0.7,0.7H106v1.08c0,1.48-1.34,2.59-2.75,2.59
	c-1.56,0-2.88-1.07-2.88-2.88v-4.14c0-1.69,1.27-2.88,2.84-2.88c1.32,0,2.33,0.88,2.72,1.97c0.13,0.23,0.31,0.37,0.62,0.37
	c0.54,0,0.88-0.43,0.61-1.06c-0.44-1.33-1.8-2.7-3.96-2.7c-2.48,0-4.26,1.96-4.26,4.21v4.31c0,2.27,1.79,4.22,4.26,4.22
	c2.23,0,4.12-1.74,4.12-3.73v-2.07C107.32,553.38,106.98,553.13,106.58,553.13z M57.75,550.03c0.22,0.51,0.34,1.05,0.34,1.63
	c0,0.58-0.11,1.12-0.34,1.62c-0.22,0.5-0.53,0.94-0.91,1.32c-0.38,0.38-0.83,0.68-1.34,0.9c-0.51,0.22-1.06,0.33-1.64,0.33H51.8v2.7
	c0,0.19-0.07,0.35-0.2,0.48c-0.13,0.13-0.29,0.2-0.48,0.2c-0.18,0-0.33-0.07-0.47-0.2c-0.14-0.13-0.2-0.29-0.2-0.48v-10.37
	c0-0.19,0.06-0.35,0.2-0.48c0.13-0.13,0.29-0.2,0.48-0.2h2.72h0.02c0.58,0,1.12,0.11,1.63,0.33c0.51,0.22,0.96,0.51,1.34,0.89
	C57.22,549.08,57.52,549.52,57.75,550.03z M56.74,551.67c0-0.39-0.08-0.76-0.23-1.1c-0.15-0.34-0.36-0.64-0.62-0.9
	c-0.26-0.25-0.57-0.46-0.91-0.6c-0.35-0.15-0.72-0.22-1.11-0.22H51.8v5.65h2.06c0.4,0,0.78-0.07,1.13-0.22
	c0.35-0.15,0.65-0.35,0.91-0.6c0.26-0.25,0.46-0.55,0.61-0.9C56.66,552.42,56.74,552.06,56.74,551.67z M137.19,547.29h0.25v0.77
	h0.22v-0.77h0.26v-0.18h-0.73V547.29z M139,547.11h-0.28l-0.1,0.32c-0.03,0.11-0.06,0.23-0.09,0.34h0
	c-0.02-0.11-0.05-0.23-0.08-0.34l-0.09-0.32h-0.29l-0.06,0.95h0.2l0.02-0.36c0.01-0.12,0.01-0.26,0.02-0.39h0
	c0.02,0.12,0.05,0.26,0.09,0.37l0.1,0.37h0.17l0.12-0.37c0.04-0.11,0.08-0.25,0.11-0.37h0c0,0.14,0,0.28,0.01,0.39l0.01,0.36h0.21
	L139,547.11z"/>
</svg>
