<?xml version="1.0" encoding="utf-8"?>
<!-- Generator: Adobe Illustrator 26.0.3, SVG Export Plug-In . SVG Version: 6.00 Build 0)  -->
<svg version="1.1" id="Layer_1" xmlns="http://www.w3.org/2000/svg" xmlns:xlink="http://www.w3.org/1999/xlink" x="0px" y="0px"
	 viewBox="0 0 300 250" style="enable-background:new 0 0 300 250;" xml:space="preserve">
<style type="text/css">
	.st0{fill:#FFFFFF;}
	.st1{fill:#021D8B;}
	.st2{clip-path:url(#SVGID_00000109745630025553188300000014407011415688669313_);}
	.st3{clip-path:url(#SVGID_00000057843350519004160740000000138070023868982146_);fill:#FFFFFF;}
</style>
<path class="st0" d="M279.8,112H95.1c-5.7,0-10.3-4.6-10.3-10.3v0c0-5.7,4.6-10.3,10.3-10.3h184.7c5.7,0,10.3,4.6,10.3,10.3v0
	C290.1,107.3,285.5,112,279.8,112z"/>
<g>
	<path class="st0" d="M102.7,64.1h-2.9l-4.2-7.4v7.4h-2.9V52.2h2.9l4.2,7.4v-7.4h2.9V64.1z"/>
	<path class="st0" d="M108.7,64.3c-1.4,0-2.5-0.4-3.3-1.2c-0.8-0.8-1.3-1.9-1.3-3.2v-0.2c0-0.9,0.2-1.7,0.5-2.4
		c0.3-0.7,0.8-1.2,1.5-1.6c0.6-0.4,1.4-0.6,2.3-0.6c1.2,0,2.2,0.4,2.9,1.2c0.7,0.8,1.1,1.9,1.1,3.2v1.1h-5.5
		c0.1,0.5,0.3,0.9,0.6,1.2c0.3,0.3,0.8,0.4,1.3,0.4c0.9,0,1.6-0.3,2-0.9l1.3,1.5c-0.3,0.5-0.8,0.9-1.5,1.1
		C110.1,64.1,109.4,64.3,108.7,64.3z M108.4,57.2c-0.8,0-1.3,0.5-1.4,1.6h2.8v-0.2c0-0.4-0.1-0.8-0.3-1
		C109.1,57.3,108.8,57.2,108.4,57.2z"/>
	<path class="st0" d="M117.8,64.3c-1.4,0-2.5-0.4-3.3-1.2c-0.8-0.8-1.3-1.9-1.3-3.2v-0.2c0-0.9,0.2-1.7,0.5-2.4
		c0.3-0.7,0.8-1.2,1.5-1.6c0.6-0.4,1.4-0.6,2.3-0.6c1.2,0,2.2,0.4,2.9,1.2c0.7,0.8,1.1,1.9,1.1,3.2v1.1H116c0.1,0.5,0.3,0.9,0.6,1.2
		c0.3,0.3,0.8,0.4,1.3,0.4c0.9,0,1.6-0.3,2-0.9l1.3,1.5c-0.3,0.5-0.8,0.9-1.5,1.1C119.2,64.1,118.5,64.3,117.8,64.3z M117.5,57.2
		c-0.8,0-1.3,0.5-1.4,1.6h2.8v-0.2c0-0.4-0.1-0.8-0.3-1C118.3,57.3,117.9,57.2,117.5,57.2z"/>
	<path class="st0" d="M122.3,59.6c0-1.4,0.3-2.5,0.9-3.3c0.6-0.8,1.5-1.2,2.5-1.2c0.8,0,1.5,0.3,2,0.9v-4.5h2.8v12.6H128l-0.1-1
		c-0.6,0.7-1.3,1.1-2.2,1.1c-1.1,0-1.9-0.4-2.5-1.2S122.3,61.1,122.3,59.6z M125.1,59.8c0,1.6,0.5,2.4,1.4,2.4c0.6,0,1-0.3,1.3-0.8
		V58c-0.3-0.5-0.7-0.8-1.3-0.8c-0.9,0-1.3,0.7-1.4,2.1L125.1,59.8z"/>
	<path class="st0" d="M136.9,64.1v-6.9h-1.3v-1.9h1.3v-0.7c0-1,0.3-1.8,0.9-2.4c0.6-0.6,1.4-0.8,2.5-0.8c0.4,0,0.8,0.1,1.3,0.2l0,2
		c-0.2,0-0.4-0.1-0.7-0.1c-0.8,0-1.3,0.4-1.3,1.1v0.7h1.7v1.9h-1.7v6.9H136.9z"/>
	<path class="st0" d="M147.3,64.1c-0.1-0.2-0.2-0.4-0.3-0.8c-0.5,0.6-1.2,1-2.1,1c-0.8,0-1.5-0.3-2.1-0.8c-0.6-0.5-0.9-1.1-0.9-1.9
		c0-1,0.4-1.7,1.1-2.2c0.7-0.5,1.7-0.7,3.1-0.7h0.9v-0.5c0-0.8-0.4-1.2-1.1-1.2c-0.7,0-1,0.3-1,1h-2.8c0-0.9,0.4-1.6,1.1-2.1
		c0.7-0.5,1.7-0.8,2.8-0.8c1.1,0,2,0.3,2.7,0.8c0.7,0.6,1,1.3,1,2.3v3.9c0,0.8,0.1,1.4,0.4,1.9v0.1H147.3z M145.6,62.3
		c0.3,0,0.6-0.1,0.9-0.2s0.4-0.3,0.5-0.5v-1.4h-0.8c-1,0-1.4,0.4-1.4,1.3c0,0.3,0.1,0.5,0.3,0.6C145.1,62.2,145.3,62.3,145.6,62.3z"
		/>
	<path class="st0" d="M155.9,61.6c0-0.2-0.1-0.4-0.4-0.6c-0.2-0.1-0.7-0.3-1.4-0.4c-0.7-0.2-1.3-0.4-1.7-0.6c-0.4-0.2-0.8-0.6-1-0.9
		c-0.2-0.4-0.4-0.8-0.4-1.2c0-0.8,0.3-1.5,1-2c0.7-0.5,1.6-0.8,2.6-0.8c1.2,0,2.1,0.3,2.8,0.8s1.1,1.2,1.1,2.1h-2.8
		c0-0.7-0.4-1.1-1.1-1.1c-0.3,0-0.5,0.1-0.7,0.2c-0.2,0.2-0.3,0.4-0.3,0.6c0,0.2,0.1,0.4,0.4,0.6c0.2,0.2,0.6,0.3,1.2,0.4
		c0.5,0.1,1,0.2,1.4,0.4c1.3,0.5,2,1.3,2,2.5c0,0.8-0.4,1.5-1.1,2c-0.7,0.5-1.6,0.8-2.8,0.8c-0.8,0-1.4-0.1-2-0.4
		c-0.6-0.3-1.1-0.6-1.4-1.1c-0.3-0.5-0.5-1-0.5-1.5h2.6c0,0.4,0.1,0.7,0.4,0.9c0.3,0.2,0.6,0.3,1,0.3c0.4,0,0.7-0.1,0.8-0.2
		S155.9,61.9,155.9,61.6z"/>
	<path class="st0" d="M163,53.1v2.2h1.5v1.9H163v4.1c0,0.3,0.1,0.6,0.2,0.7c0.1,0.1,0.4,0.2,0.7,0.2c0.3,0,0.5,0,0.7,0v2
		c-0.5,0.2-1,0.2-1.6,0.2c-1,0-1.7-0.2-2.1-0.7s-0.7-1.1-0.7-2v-4.4h-1.1v-1.9h1.1v-2.2H163z"/>
	<path class="st0" d="M174.8,64.1c-0.1-0.2-0.2-0.4-0.3-0.8c-0.5,0.6-1.2,1-2.1,1c-0.8,0-1.5-0.3-2.1-0.8c-0.6-0.5-0.9-1.1-0.9-1.9
		c0-1,0.4-1.7,1.1-2.2c0.7-0.5,1.7-0.7,3.1-0.7h0.9v-0.5c0-0.8-0.4-1.2-1.1-1.2c-0.7,0-1,0.3-1,1h-2.8c0-0.9,0.4-1.6,1.1-2.1
		c0.7-0.5,1.7-0.8,2.8-0.8c1.1,0,2,0.3,2.7,0.8c0.7,0.6,1,1.3,1,2.3v3.9c0,0.8,0.1,1.4,0.4,1.9v0.1H174.8z M173,62.3
		c0.3,0,0.6-0.1,0.9-0.2s0.4-0.3,0.5-0.5v-1.4h-0.8c-1,0-1.4,0.4-1.4,1.3c0,0.3,0.1,0.5,0.3,0.6C172.5,62.2,172.8,62.3,173,62.3z"/>
	<path class="st0" d="M182.4,62.2c0.4,0,0.7-0.1,0.9-0.3c0.2-0.2,0.3-0.5,0.3-0.9h2.6c0,1-0.3,1.8-1,2.4c-0.7,0.6-1.6,0.9-2.7,0.9
		c-1.3,0-2.3-0.4-3-1.2c-0.7-0.8-1.1-1.9-1.1-3.4v-0.1c0-0.9,0.2-1.7,0.5-2.4c0.3-0.7,0.8-1.2,1.4-1.6c0.6-0.4,1.4-0.6,2.2-0.6
		c1.2,0,2.1,0.3,2.7,1c0.7,0.6,1,1.5,1,2.6h-2.6c0-0.5-0.1-0.8-0.3-1.1c-0.2-0.2-0.5-0.4-0.9-0.4c-0.7,0-1.1,0.5-1.3,1.4
		c0,0.3-0.1,0.7-0.1,1.2c0,0.9,0.1,1.5,0.3,1.9S182,62.2,182.4,62.2z"/>
	<path class="st0" d="M191.1,62.2c0.4,0,0.7-0.1,0.9-0.3c0.2-0.2,0.3-0.5,0.3-0.9h2.6c0,1-0.3,1.8-1,2.4c-0.7,0.6-1.6,0.9-2.7,0.9
		c-1.3,0-2.3-0.4-3-1.2c-0.7-0.8-1.1-1.9-1.1-3.4v-0.1c0-0.9,0.2-1.7,0.5-2.4c0.3-0.7,0.8-1.2,1.4-1.6c0.6-0.4,1.4-0.6,2.2-0.6
		c1.2,0,2.1,0.3,2.7,1c0.7,0.6,1,1.5,1,2.6h-2.6c0-0.5-0.1-0.8-0.3-1.1c-0.2-0.2-0.5-0.4-0.9-0.4c-0.7,0-1.1,0.5-1.3,1.4
		c0,0.3-0.1,0.7-0.1,1.2c0,0.9,0.1,1.5,0.3,1.9S190.7,62.2,191.1,62.2z"/>
	<path class="st0" d="M200.4,64.3c-1.4,0-2.5-0.4-3.3-1.2c-0.8-0.8-1.3-1.9-1.3-3.2v-0.2c0-0.9,0.2-1.7,0.5-2.4
		c0.3-0.7,0.8-1.2,1.5-1.6c0.6-0.4,1.4-0.6,2.3-0.6c1.2,0,2.2,0.4,2.9,1.2c0.7,0.8,1.1,1.9,1.1,3.2v1.1h-5.5
		c0.1,0.5,0.3,0.9,0.6,1.2c0.3,0.3,0.8,0.4,1.3,0.4c0.9,0,1.6-0.3,2-0.9l1.3,1.5c-0.3,0.5-0.8,0.9-1.5,1.1
		C201.8,64.1,201.1,64.3,200.4,64.3z M200.1,57.2c-0.8,0-1.3,0.5-1.4,1.6h2.8v-0.2c0-0.4-0.1-0.8-0.3-1
		C200.8,57.3,200.5,57.2,200.1,57.2z"/>
	<path class="st0" d="M209.9,61.6c0-0.2-0.1-0.4-0.4-0.6c-0.2-0.1-0.7-0.3-1.4-0.4c-0.7-0.2-1.3-0.4-1.7-0.6c-0.4-0.2-0.8-0.6-1-0.9
		c-0.2-0.4-0.4-0.8-0.4-1.2c0-0.8,0.3-1.5,1-2c0.7-0.5,1.6-0.8,2.6-0.8c1.2,0,2.1,0.3,2.8,0.8s1.1,1.2,1.1,2.1h-2.8
		c0-0.7-0.4-1.1-1.1-1.1c-0.3,0-0.5,0.1-0.7,0.2c-0.2,0.2-0.3,0.4-0.3,0.6c0,0.2,0.1,0.4,0.4,0.6c0.2,0.2,0.6,0.3,1.2,0.4
		c0.5,0.1,1,0.2,1.4,0.4c1.3,0.5,2,1.3,2,2.5c0,0.8-0.4,1.5-1.1,2c-0.7,0.5-1.6,0.8-2.8,0.8c-0.8,0-1.4-0.1-2-0.4
		c-0.6-0.3-1.1-0.6-1.4-1.1c-0.3-0.5-0.5-1-0.5-1.5h2.6c0,0.4,0.1,0.7,0.4,0.9c0.3,0.2,0.6,0.3,1,0.3c0.4,0,0.7-0.1,0.8-0.2
		S209.9,61.9,209.9,61.6z"/>
	<path class="st0" d="M218.5,61.6c0-0.2-0.1-0.4-0.4-0.6c-0.2-0.1-0.7-0.3-1.4-0.4c-0.7-0.2-1.3-0.4-1.7-0.6c-0.4-0.2-0.8-0.6-1-0.9
		c-0.2-0.4-0.4-0.8-0.4-1.2c0-0.8,0.3-1.5,1-2c0.7-0.5,1.6-0.8,2.6-0.8c1.2,0,2.1,0.3,2.8,0.8s1.1,1.2,1.1,2.1h-2.8
		c0-0.7-0.4-1.1-1.1-1.1c-0.3,0-0.5,0.1-0.7,0.2c-0.2,0.2-0.3,0.4-0.3,0.6c0,0.2,0.1,0.4,0.4,0.6c0.2,0.2,0.6,0.3,1.2,0.4
		c0.5,0.1,1,0.2,1.4,0.4c1.3,0.5,2,1.3,2,2.5c0,0.8-0.4,1.5-1.1,2c-0.7,0.5-1.6,0.8-2.8,0.8c-0.8,0-1.4-0.1-2-0.4
		c-0.6-0.3-1.1-0.6-1.4-1.1c-0.3-0.5-0.5-1-0.5-1.5h2.6c0,0.4,0.1,0.7,0.4,0.9c0.3,0.2,0.6,0.3,1,0.3c0.4,0,0.7-0.1,0.8-0.2
		S218.5,61.9,218.5,61.6z"/>
	<path class="st0" d="M229.8,53.1v2.2h1.5v1.9h-1.5v4.1c0,0.3,0.1,0.6,0.2,0.7c0.1,0.1,0.4,0.2,0.7,0.2c0.3,0,0.5,0,0.7,0v2
		c-0.5,0.2-1,0.2-1.6,0.2c-1,0-1.7-0.2-2.1-0.7s-0.7-1.1-0.7-2v-4.4h-1.1v-1.9h1.1v-2.2H229.8z"/>
	<path class="st0" d="M231.8,59.6c0-0.9,0.2-1.7,0.5-2.4c0.3-0.7,0.8-1.2,1.5-1.6c0.6-0.4,1.4-0.6,2.3-0.6c1.3,0,2.4,0.4,3.1,1.2
		s1.1,1.9,1.1,3.4v0.1c0,1.4-0.4,2.5-1.2,3.3c-0.8,0.8-1.8,1.2-3.1,1.2c-1.3,0-2.3-0.4-3-1.1s-1.2-1.8-1.2-3.1L231.8,59.6z
		 M234.5,59.8c0,0.8,0.1,1.4,0.4,1.8s0.6,0.6,1.1,0.6c1,0,1.5-0.8,1.5-2.3v-0.3c0-1.6-0.5-2.4-1.5-2.4c-0.9,0-1.4,0.7-1.5,2.1
		L234.5,59.8z"/>
	<path class="st0" d="M249.2,60.3l1.5-5h3l-3.6,10.3l-0.2,0.4c-0.5,1.1-1.4,1.7-2.7,1.7c-0.4,0-0.7-0.1-1.1-0.2v-2h0.4
		c0.4,0,0.7-0.1,0.9-0.2c0.2-0.1,0.4-0.3,0.5-0.6l0.2-0.6l-3.1-9h2.9L249.2,60.3z"/>
	<path class="st0" d="M254,59.6c0-0.9,0.2-1.7,0.5-2.4c0.3-0.7,0.8-1.2,1.5-1.6c0.6-0.4,1.4-0.6,2.3-0.6c1.3,0,2.4,0.4,3.1,1.2
		s1.1,1.9,1.1,3.4v0.1c0,1.4-0.4,2.5-1.2,3.3c-0.8,0.8-1.8,1.2-3.1,1.2c-1.3,0-2.3-0.4-3-1.1s-1.2-1.8-1.2-3.1L254,59.6z
		 M256.8,59.8c0,0.8,0.1,1.4,0.4,1.8s0.6,0.6,1.1,0.6c1,0,1.5-0.8,1.5-2.3v-0.3c0-1.6-0.5-2.4-1.5-2.4c-0.9,0-1.4,0.7-1.5,2.1
		L256.8,59.8z"/>
	<path class="st0" d="M269.1,63.2c-0.6,0.7-1.4,1.1-2.4,1.1c-1,0-1.7-0.3-2.2-0.8c-0.5-0.6-0.7-1.4-0.7-2.4v-5.7h2.8V61
		c0,0.8,0.4,1.1,1.1,1.1c0.6,0,1.1-0.2,1.4-0.7v-6.2h2.8v8.9h-2.6L269.1,63.2z"/>
	<path class="st0" d="M278.6,57.8l-0.9-0.1c-0.9,0-1.4,0.3-1.7,0.8v5.6h-2.8v-8.9h2.6l0.1,1.1c0.5-0.9,1.1-1.3,1.9-1.3
		c0.3,0,0.6,0,0.8,0.1L278.6,57.8z"/>
	<path class="st0" d="M106.6,72.9v2.2h1.5V77h-1.5v4.1c0,0.3,0.1,0.6,0.2,0.7c0.1,0.1,0.4,0.2,0.7,0.2c0.3,0,0.5,0,0.7,0v2
		c-0.5,0.2-1,0.2-1.6,0.2c-1,0-1.7-0.2-2.1-0.7s-0.7-1.1-0.7-2V77h-1.1v-1.9h1.1v-2.2H106.6z"/>
	<path class="st0" d="M114.5,77.6l-0.9-0.1c-0.9,0-1.4,0.3-1.7,0.8V84h-2.8v-8.9h2.6l0.1,1.1c0.5-0.9,1.1-1.3,1.9-1.3
		c0.3,0,0.6,0,0.8,0.1L114.5,77.6z"/>
	<path class="st0" d="M115.5,72.8c0-0.4,0.1-0.7,0.4-1c0.3-0.3,0.7-0.4,1.1-0.4s0.8,0.1,1.1,0.4c0.3,0.3,0.4,0.6,0.4,1
		c0,0.4-0.1,0.7-0.4,1c-0.3,0.3-0.7,0.4-1.1,0.4s-0.8-0.1-1.1-0.4C115.6,73.5,115.5,73.2,115.5,72.8z M118.4,84h-2.8v-8.9h2.8V84z"
		/>
	<path class="st0" d="M128.3,79.6c0,1.4-0.3,2.5-0.9,3.3s-1.5,1.2-2.5,1.2c-0.8,0-1.5-0.3-2-0.9v4.1h-2.8V75.1h2.6l0.1,0.8
		c0.5-0.7,1.2-1,2.1-1c1.1,0,1.9,0.4,2.5,1.2s0.9,1.9,0.9,3.3V79.6z M125.6,79.4c0-1.6-0.5-2.4-1.4-2.4c-0.7,0-1.1,0.2-1.3,0.7v3.5
		c0.2,0.5,0.7,0.7,1.3,0.7c0.9,0,1.3-0.8,1.4-2.3V79.4z"/>
	<path class="st0" d="M132.5,84h-2.8V71.4h2.8V84z"/>
	<path class="st0" d="M138.5,84.1c-1.4,0-2.5-0.4-3.3-1.2c-0.8-0.8-1.3-1.9-1.3-3.2v-0.2c0-0.9,0.2-1.7,0.5-2.4
		c0.3-0.7,0.8-1.2,1.5-1.6c0.6-0.4,1.4-0.6,2.3-0.6c1.2,0,2.2,0.4,2.9,1.2c0.7,0.8,1.1,1.9,1.1,3.2v1.1h-5.5
		c0.1,0.5,0.3,0.9,0.6,1.2c0.3,0.3,0.8,0.4,1.3,0.4c0.9,0,1.6-0.3,2-0.9l1.3,1.5c-0.3,0.5-0.8,0.9-1.5,1.1
		C139.9,84,139.2,84.1,138.5,84.1z M138.1,77.1c-0.8,0-1.3,0.5-1.4,1.6h2.8v-0.2c0-0.4-0.1-0.8-0.3-1
		C138.9,77.2,138.6,77.1,138.1,77.1z"/>
	<path class="st0" d="M148.7,79.9h-4.9v-2.1h4.9V79.9z"/>
	<path class="st0" d="M159.1,79.6c0,1.5-0.3,2.6-0.9,3.4c-0.6,0.8-1.4,1.2-2.5,1.2c-0.9,0-1.6-0.4-2.2-1.1l-0.1,0.9h-2.5V71.4h2.8
		v4.4c0.5-0.6,1.2-0.9,2-0.9c1.1,0,2,0.4,2.6,1.2c0.6,0.8,0.9,1.9,0.9,3.3V79.6z M156.3,79.4c0-0.9-0.1-1.5-0.3-1.8
		c-0.2-0.4-0.6-0.5-1-0.5c-0.6,0-1.1,0.2-1.3,0.7v3.5c0.2,0.5,0.7,0.7,1.3,0.7c0.7,0,1.1-0.3,1.2-0.9
		C156.3,80.7,156.3,80.2,156.3,79.4z"/>
	<path class="st0" d="M165.6,83c-0.6,0.7-1.4,1.1-2.4,1.1c-1,0-1.7-0.3-2.2-0.8c-0.5-0.6-0.7-1.4-0.7-2.4v-5.7h2.8v5.8
		c0,0.8,0.4,1.1,1.1,1.1c0.6,0,1.1-0.2,1.4-0.7v-6.2h2.8V84h-2.6L165.6,83z"/>
	<path class="st0" d="M175.1,77.6l-0.9-0.1c-0.9,0-1.4,0.3-1.7,0.8V84h-2.8v-8.9h2.6l0.1,1.1c0.5-0.9,1.1-1.3,1.9-1.3
		c0.3,0,0.6,0,0.8,0.1L175.1,77.6z"/>
	<path class="st0" d="M180.4,84.1c-1.4,0-2.5-0.4-3.3-1.2c-0.8-0.8-1.3-1.9-1.3-3.2v-0.2c0-0.9,0.2-1.7,0.5-2.4
		c0.3-0.7,0.8-1.2,1.5-1.6c0.6-0.4,1.4-0.6,2.3-0.6c1.2,0,2.2,0.4,2.9,1.2c0.7,0.8,1.1,1.9,1.1,3.2v1.1h-5.5
		c0.1,0.5,0.3,0.9,0.6,1.2c0.3,0.3,0.8,0.4,1.3,0.4c0.9,0,1.6-0.3,2-0.9l1.3,1.5c-0.3,0.5-0.8,0.9-1.5,1.1
		C181.8,84,181.1,84.1,180.4,84.1z M180.1,77.1c-0.8,0-1.3,0.5-1.4,1.6h2.8v-0.2c0-0.4-0.1-0.8-0.3-1
		C180.9,77.2,180.5,77.1,180.1,77.1z"/>
	<path class="st0" d="M190.2,84c-0.1-0.2-0.2-0.4-0.3-0.8c-0.5,0.6-1.2,1-2.1,1c-0.8,0-1.5-0.3-2.1-0.8c-0.6-0.5-0.9-1.1-0.9-1.9
		c0-1,0.4-1.7,1.1-2.2c0.7-0.5,1.7-0.7,3.1-0.7h0.9v-0.5c0-0.8-0.4-1.2-1.1-1.2c-0.7,0-1,0.3-1,1H185c0-0.9,0.4-1.6,1.1-2.1
		c0.7-0.5,1.7-0.8,2.8-0.8c1.1,0,2,0.3,2.7,0.8c0.7,0.6,1,1.3,1,2.3v3.9c0,0.8,0.1,1.4,0.4,1.9V84H190.2z M188.5,82.1
		c0.3,0,0.6-0.1,0.9-0.2s0.4-0.3,0.5-0.5V80H189c-1,0-1.4,0.4-1.4,1.3c0,0.3,0.1,0.5,0.3,0.6C188,82.1,188.2,82.1,188.5,82.1z"/>
	<path class="st0" d="M199.4,83c-0.6,0.7-1.4,1.1-2.4,1.1c-1,0-1.7-0.3-2.2-0.8c-0.5-0.6-0.7-1.4-0.7-2.4v-5.7h2.8v5.8
		c0,0.8,0.4,1.1,1.1,1.1c0.6,0,1.1-0.2,1.4-0.7v-6.2h2.8V84h-2.6L199.4,83z"/>
	<path class="st0" d="M210.4,75.1l0.1,1c0.6-0.8,1.5-1.2,2.5-1.2c1.1,0,1.9,0.4,2.3,1.3c0.6-0.9,1.5-1.3,2.6-1.3
		c1.8,0,2.7,1.1,2.8,3.3V84h-2.8v-5.6c0-0.5-0.1-0.8-0.2-1c-0.2-0.2-0.4-0.3-0.8-0.3c-0.5,0-1,0.2-1.2,0.7l0,0.1V84h-2.8v-5.6
		c0-0.5-0.1-0.8-0.2-1c-0.1-0.2-0.4-0.3-0.8-0.3c-0.5,0-0.9,0.2-1.2,0.7V84h-2.8v-8.9H210.4z"/>
	<path class="st0" d="M221.9,79.4c0-0.9,0.2-1.7,0.5-2.4c0.3-0.7,0.8-1.2,1.5-1.6c0.6-0.4,1.4-0.6,2.3-0.6c1.3,0,2.4,0.4,3.1,1.2
		s1.1,1.9,1.1,3.4v0.1c0,1.4-0.4,2.5-1.2,3.3c-0.8,0.8-1.8,1.2-3.1,1.2c-1.3,0-2.3-0.4-3-1.1s-1.2-1.8-1.2-3.1L221.9,79.4z
		 M224.6,79.6c0,0.8,0.1,1.4,0.4,1.8s0.6,0.6,1.1,0.6c1,0,1.5-0.8,1.5-2.3v-0.3c0-1.6-0.5-2.4-1.5-2.4c-0.9,0-1.4,0.7-1.5,2.1
		L224.6,79.6z"/>
	<path class="st0" d="M234.2,75.1l0.1,1c0.6-0.8,1.5-1.2,2.5-1.2c0.9,0,1.6,0.3,2.1,0.8c0.5,0.6,0.7,1.4,0.7,2.5V84h-2.8v-5.6
		c0-0.4-0.1-0.8-0.3-1c-0.2-0.2-0.5-0.3-1-0.3c-0.5,0-0.9,0.2-1.2,0.6V84h-2.8v-8.9H234.2z"/>
	<path class="st0" d="M244.3,72.9v2.2h1.5V77h-1.5v4.1c0,0.3,0.1,0.6,0.2,0.7c0.1,0.1,0.4,0.2,0.7,0.2c0.3,0,0.5,0,0.7,0v2
		c-0.5,0.2-1,0.2-1.6,0.2c-1,0-1.7-0.2-2.1-0.7s-0.7-1.1-0.7-2V77h-1.1v-1.9h1.1v-2.2H244.3z"/>
	<path class="st0" d="M249.6,76c0.6-0.7,1.3-1.1,2.3-1.1c1,0,1.7,0.3,2.2,0.9c0.5,0.6,0.8,1.4,0.8,2.6V84H252v-5.5
		c0-0.5-0.1-0.8-0.3-1c-0.2-0.2-0.5-0.3-1-0.3c-0.6,0-1,0.2-1.2,0.5V84h-2.8V71.4h2.8V76z"/>
	<path class="st0" d="M259.2,84h-2.8V71.4h2.8V84z"/>
	<path class="st0" d="M264.5,80.1l1.5-5h3l-3.6,10.3l-0.2,0.4c-0.5,1.1-1.4,1.7-2.7,1.7c-0.4,0-0.7-0.1-1.1-0.2v-2h0.4
		c0.4,0,0.7-0.1,0.9-0.2c0.2-0.1,0.4-0.3,0.5-0.6l0.2-0.6l-3.1-9h2.9L264.5,80.1z"/>
	<path class="st1" d="M94.4,104.5c0.4,0,0.7-0.1,0.9-0.3s0.3-0.5,0.3-0.9h2.6c0,1-0.3,1.8-1,2.4c-0.7,0.6-1.6,0.9-2.7,0.9
		c-1.3,0-2.3-0.4-3-1.2c-0.7-0.8-1.1-1.9-1.1-3.4v-0.1c0-0.9,0.2-1.7,0.5-2.4c0.3-0.7,0.8-1.2,1.4-1.6c0.6-0.4,1.4-0.6,2.2-0.6
		c1.2,0,2.1,0.3,2.7,1c0.7,0.6,1,1.5,1,2.6h-2.6c0-0.5-0.1-0.8-0.3-1.1c-0.2-0.2-0.5-0.4-0.9-0.4c-0.7,0-1.1,0.5-1.3,1.4
		c0,0.3-0.1,0.7-0.1,1.2c0,0.9,0.1,1.5,0.3,1.9C93.6,104.3,93.9,104.5,94.4,104.5z"/>
	<path class="st1" d="M104.7,100.1l-0.9-0.1c-0.9,0-1.4,0.3-1.7,0.8v5.6h-2.8v-8.9h2.6l0.1,1.1c0.5-0.9,1.1-1.3,1.9-1.3
		c0.3,0,0.6,0,0.8,0.1L104.7,100.1z"/>
	<path class="st1" d="M110,106.6c-1.4,0-2.5-0.4-3.3-1.2c-0.8-0.8-1.3-1.9-1.3-3.2V102c0-0.9,0.2-1.7,0.5-2.4
		c0.3-0.7,0.8-1.2,1.5-1.6c0.6-0.4,1.4-0.6,2.3-0.6c1.2,0,2.2,0.4,2.9,1.2c0.7,0.8,1.1,1.8,1.1,3.2v1.1h-5.5
		c0.1,0.5,0.3,0.9,0.6,1.2s0.8,0.4,1.3,0.4c0.9,0,1.6-0.3,2-0.9l1.3,1.5c-0.3,0.5-0.8,0.9-1.5,1.1S110.7,106.6,110,106.6z
		 M109.7,99.6c-0.8,0-1.3,0.5-1.4,1.6h2.8V101c0-0.4-0.1-0.8-0.3-1C110.4,99.7,110.1,99.6,109.7,99.6z"/>
	<path class="st1" d="M114.5,102c0-1.4,0.3-2.5,0.9-3.3c0.6-0.8,1.5-1.2,2.5-1.2c0.8,0,1.5,0.3,2,0.9v-4.5h2.8v12.6h-2.5l-0.1-1
		c-0.6,0.7-1.3,1.1-2.2,1.1c-1.1,0-1.9-0.4-2.5-1.2C114.8,104.6,114.5,103.5,114.5,102z M117.2,102.1c0,1.6,0.5,2.4,1.4,2.4
		c0.6,0,1-0.3,1.3-0.8v-3.4c-0.3-0.5-0.7-0.8-1.3-0.8c-0.9,0-1.3,0.7-1.4,2.1L117.2,102.1z"/>
	<path class="st1" d="M124.2,95.3c0-0.4,0.1-0.7,0.4-1c0.3-0.3,0.7-0.4,1.1-0.4s0.8,0.1,1.1,0.4c0.3,0.3,0.4,0.6,0.4,1
		c0,0.4-0.1,0.7-0.4,1c-0.3,0.3-0.7,0.4-1.1,0.4s-0.8-0.1-1.1-0.4S124.2,95.7,124.2,95.3z M127.2,106.5h-2.8v-8.9h2.8V106.5z"/>
	<path class="st1" d="M132.1,95.4v2.2h1.5v1.9h-1.5v4.1c0,0.3,0.1,0.6,0.2,0.7s0.4,0.2,0.7,0.2c0.3,0,0.5,0,0.7,0v2
		c-0.5,0.2-1,0.2-1.6,0.2c-1,0-1.7-0.2-2.1-0.7c-0.5-0.4-0.7-1.1-0.7-2v-4.4h-1.1v-1.9h1.1v-2.2H132.1z"/>
	<path class="st1" d="M144.2,100.1l-0.9-0.1c-0.9,0-1.4,0.3-1.7,0.8v5.6h-2.8v-8.9h2.6l0.1,1.1c0.5-0.9,1.1-1.3,1.9-1.3
		c0.3,0,0.6,0,0.8,0.1L144.2,100.1z"/>
	<path class="st1" d="M149.5,106.6c-1.4,0-2.5-0.4-3.3-1.2c-0.8-0.8-1.3-1.9-1.3-3.2V102c0-0.9,0.2-1.7,0.5-2.4
		c0.3-0.7,0.8-1.2,1.5-1.6c0.6-0.4,1.4-0.6,2.3-0.6c1.2,0,2.2,0.4,2.9,1.2c0.7,0.8,1.1,1.8,1.1,3.2v1.1h-5.5
		c0.1,0.5,0.3,0.9,0.6,1.2s0.8,0.4,1.3,0.4c0.9,0,1.6-0.3,2-0.9l1.3,1.5c-0.3,0.5-0.8,0.9-1.5,1.1S150.2,106.6,149.5,106.6z
		 M149.2,99.6c-0.8,0-1.3,0.5-1.4,1.6h2.8V101c0-0.4-0.1-0.8-0.3-1C149.9,99.7,149.6,99.6,149.2,99.6z"/>
	<path class="st1" d="M162.5,102.1c0,1.4-0.3,2.5-0.9,3.3c-0.6,0.8-1.5,1.2-2.5,1.2c-0.8,0-1.5-0.3-2-0.9v4.1h-2.8V97.6h2.6l0.1,0.8
		c0.5-0.7,1.2-1,2.1-1c1.1,0,1.9,0.4,2.5,1.2s0.9,1.9,0.9,3.3V102.1z M159.8,101.9c0-1.6-0.5-2.4-1.4-2.4c-0.7,0-1.1,0.2-1.3,0.7
		v3.5c0.2,0.5,0.7,0.7,1.3,0.7c0.9,0,1.3-0.8,1.4-2.3V101.9z"/>
	<path class="st1" d="M163.4,101.9c0-0.9,0.2-1.7,0.5-2.4c0.3-0.7,0.8-1.2,1.5-1.6s1.4-0.6,2.3-0.6c1.3,0,2.4,0.4,3.1,1.2
		c0.8,0.8,1.1,1.9,1.1,3.4v0.1c0,1.4-0.4,2.5-1.2,3.3c-0.8,0.8-1.8,1.2-3.1,1.2c-1.3,0-2.3-0.4-3-1.1c-0.8-0.8-1.2-1.8-1.2-3.1
		L163.4,101.9z M166.2,102.1c0,0.8,0.1,1.4,0.4,1.8c0.3,0.4,0.6,0.6,1.1,0.6c1,0,1.5-0.8,1.5-2.3v-0.3c0-1.6-0.5-2.4-1.5-2.4
		c-0.9,0-1.4,0.7-1.5,2.1L166.2,102.1z"/>
	<path class="st1" d="M178.5,100.1l-0.9-0.1c-0.9,0-1.4,0.3-1.7,0.8v5.6h-2.8v-8.9h2.6l0.1,1.1c0.5-0.9,1.1-1.3,1.9-1.3
		c0.3,0,0.6,0,0.8,0.1L178.5,100.1z"/>
	<path class="st1" d="M183.2,95.4v2.2h1.5v1.9h-1.5v4.1c0,0.3,0.1,0.6,0.2,0.7s0.4,0.2,0.7,0.2c0.3,0,0.5,0,0.7,0v2
		c-0.5,0.2-1,0.2-1.6,0.2c-1,0-1.7-0.2-2.1-0.7c-0.5-0.4-0.7-1.1-0.7-2v-4.4h-1.1v-1.9h1.1v-2.2H183.2z"/>
	<path class="st1" d="M190.3,104c0-0.2-0.1-0.4-0.4-0.6c-0.2-0.1-0.7-0.3-1.4-0.4c-0.7-0.2-1.3-0.4-1.7-0.6c-0.4-0.2-0.8-0.5-1-0.9
		c-0.2-0.4-0.4-0.8-0.4-1.2c0-0.8,0.3-1.5,1-2c0.7-0.5,1.6-0.8,2.6-0.8c1.2,0,2.1,0.3,2.8,0.8c0.7,0.5,1.1,1.2,1.1,2.1h-2.8
		c0-0.7-0.4-1.1-1.1-1.1c-0.3,0-0.5,0.1-0.7,0.2c-0.2,0.2-0.3,0.4-0.3,0.6c0,0.2,0.1,0.4,0.4,0.6c0.2,0.2,0.6,0.3,1.2,0.4
		s1,0.2,1.4,0.4c1.3,0.5,2,1.3,2,2.5c0,0.8-0.4,1.5-1.1,2c-0.7,0.5-1.6,0.8-2.8,0.8c-0.8,0-1.4-0.1-2-0.4c-0.6-0.3-1.1-0.6-1.4-1.1
		s-0.5-1-0.5-1.5h2.6c0,0.4,0.1,0.7,0.4,0.9c0.3,0.2,0.6,0.3,1,0.3c0.4,0,0.7-0.1,0.8-0.2C190.2,104.4,190.3,104.2,190.3,104z"/>
	<path class="st1" d="M203.5,106.5c-0.1-0.2-0.2-0.4-0.3-0.8c-0.5,0.6-1.2,1-2.1,1c-0.8,0-1.5-0.3-2.1-0.8s-0.9-1.1-0.9-1.9
		c0-1,0.4-1.7,1.1-2.2c0.7-0.5,1.7-0.7,3.1-0.7h0.9v-0.5c0-0.8-0.4-1.2-1.1-1.2c-0.7,0-1,0.3-1,1h-2.8c0-0.9,0.4-1.6,1.1-2.1
		c0.7-0.5,1.7-0.8,2.8-0.8c1.1,0,2,0.3,2.7,0.8s1,1.3,1,2.3v3.9c0,0.8,0.1,1.4,0.4,1.9v0.1H203.5z M201.7,104.7
		c0.3,0,0.6-0.1,0.9-0.2s0.4-0.3,0.5-0.5v-1.4h-0.8c-1,0-1.4,0.4-1.4,1.3c0,0.3,0.1,0.5,0.3,0.6
		C201.3,104.6,201.5,104.7,201.7,104.7z"/>
	<path class="st1" d="M209.9,97.6l0.1,1c0.6-0.8,1.5-1.2,2.5-1.2c0.9,0,1.6,0.3,2.1,0.8c0.5,0.6,0.7,1.4,0.7,2.5v5.7h-2.8v-5.6
		c0-0.4-0.1-0.8-0.3-1c-0.2-0.2-0.5-0.3-1-0.3c-0.5,0-0.9,0.2-1.2,0.6v6.3h-2.8v-8.9H209.9z"/>
	<path class="st1" d="M216.5,102c0-1.4,0.3-2.5,0.9-3.3c0.6-0.8,1.5-1.2,2.5-1.2c0.8,0,1.5,0.3,2,0.9v-4.5h2.8v12.6h-2.5l-0.1-1
		c-0.6,0.7-1.3,1.1-2.2,1.1c-1.1,0-1.9-0.4-2.5-1.2C216.8,104.6,216.5,103.5,216.5,102z M219.2,102.1c0,1.6,0.5,2.4,1.4,2.4
		c0.6,0,1-0.3,1.3-0.8v-3.4c-0.3-0.5-0.7-0.8-1.3-0.8c-0.9,0-1.3,0.7-1.4,2.1L219.2,102.1z"/>
	<path class="st1" d="M235.1,104c0-0.2-0.1-0.4-0.4-0.6c-0.2-0.1-0.7-0.3-1.4-0.4c-0.7-0.2-1.3-0.4-1.7-0.6c-0.4-0.2-0.8-0.5-1-0.9
		c-0.2-0.4-0.4-0.8-0.4-1.2c0-0.8,0.3-1.5,1-2c0.7-0.5,1.6-0.8,2.6-0.8c1.2,0,2.1,0.3,2.8,0.8c0.7,0.5,1.1,1.2,1.1,2.1H235
		c0-0.7-0.4-1.1-1.1-1.1c-0.3,0-0.5,0.1-0.7,0.2c-0.2,0.2-0.3,0.4-0.3,0.6c0,0.2,0.1,0.4,0.4,0.6c0.2,0.2,0.6,0.3,1.2,0.4
		s1,0.2,1.4,0.4c1.3,0.5,2,1.3,2,2.5c0,0.8-0.4,1.5-1.1,2c-0.7,0.5-1.6,0.8-2.8,0.8c-0.8,0-1.4-0.1-2-0.4c-0.6-0.3-1.1-0.6-1.4-1.1
		s-0.5-1-0.5-1.5h2.6c0,0.4,0.1,0.7,0.4,0.9c0.3,0.2,0.6,0.3,1,0.3c0.4,0,0.7-0.1,0.8-0.2C235,104.4,235.1,104.2,235.1,104z"/>
	<path class="st1" d="M242.8,104.5c0.4,0,0.7-0.1,0.9-0.3s0.3-0.5,0.3-0.9h2.6c0,1-0.3,1.8-1,2.4c-0.7,0.6-1.6,0.9-2.7,0.9
		c-1.3,0-2.3-0.4-3-1.2c-0.7-0.8-1.1-1.9-1.1-3.4v-0.1c0-0.9,0.2-1.7,0.5-2.4c0.3-0.7,0.8-1.2,1.4-1.6c0.6-0.4,1.4-0.6,2.2-0.6
		c1.2,0,2.1,0.3,2.7,1c0.7,0.6,1,1.5,1,2.6H244c0-0.5-0.1-0.8-0.3-1.1c-0.2-0.2-0.5-0.4-0.9-0.4c-0.7,0-1.1,0.5-1.3,1.4
		c0,0.3-0.1,0.7-0.1,1.2c0,0.9,0.1,1.5,0.3,1.9C242,104.3,242.3,104.5,242.8,104.5z"/>
	<path class="st1" d="M247.4,101.9c0-0.9,0.2-1.7,0.5-2.4c0.3-0.7,0.8-1.2,1.5-1.6s1.4-0.6,2.3-0.6c1.3,0,2.4,0.4,3.1,1.2
		c0.8,0.8,1.1,1.9,1.1,3.4v0.1c0,1.4-0.4,2.5-1.2,3.3c-0.8,0.8-1.8,1.2-3.1,1.2c-1.3,0-2.3-0.4-3-1.1c-0.8-0.8-1.2-1.8-1.2-3.1
		L247.4,101.9z M250.2,102.1c0,0.8,0.1,1.4,0.4,1.8c0.3,0.4,0.6,0.6,1.1,0.6c1,0,1.5-0.8,1.5-2.3v-0.3c0-1.6-0.5-2.4-1.5-2.4
		c-0.9,0-1.4,0.7-1.5,2.1L250.2,102.1z"/>
	<path class="st1" d="M262.5,100.1l-0.9-0.1c-0.9,0-1.4,0.3-1.7,0.8v5.6h-2.8v-8.9h2.6l0.1,1.1c0.5-0.9,1.1-1.3,1.9-1.3
		c0.3,0,0.6,0,0.8,0.1L262.5,100.1z"/>
	<path class="st1" d="M267.8,106.6c-1.4,0-2.5-0.4-3.3-1.2c-0.8-0.8-1.3-1.9-1.3-3.2V102c0-0.9,0.2-1.7,0.5-2.4
		c0.3-0.7,0.8-1.2,1.5-1.6c0.6-0.4,1.4-0.6,2.3-0.6c1.2,0,2.2,0.4,2.9,1.2c0.7,0.8,1.1,1.8,1.1,3.2v1.1h-5.5
		c0.1,0.5,0.3,0.9,0.6,1.2s0.8,0.4,1.3,0.4c0.9,0,1.6-0.3,2-0.9l1.3,1.5c-0.3,0.5-0.8,0.9-1.5,1.1S268.5,106.6,267.8,106.6z
		 M267.5,99.6c-0.8,0-1.3,0.5-1.4,1.6h2.8V101c0-0.4-0.1-0.8-0.3-1C268.3,99.7,267.9,99.6,267.5,99.6z"/>
	<path class="st1" d="M277.3,104c0-0.2-0.1-0.4-0.4-0.6c-0.2-0.1-0.7-0.3-1.4-0.4c-0.7-0.2-1.3-0.4-1.7-0.6c-0.4-0.2-0.8-0.5-1-0.9
		c-0.2-0.4-0.4-0.8-0.4-1.2c0-0.8,0.3-1.5,1-2c0.7-0.5,1.6-0.8,2.6-0.8c1.2,0,2.1,0.3,2.8,0.8c0.7,0.5,1.1,1.2,1.1,2.1h-2.8
		c0-0.7-0.4-1.1-1.1-1.1c-0.3,0-0.5,0.1-0.7,0.2c-0.2,0.2-0.3,0.4-0.3,0.6c0,0.2,0.1,0.4,0.4,0.6c0.2,0.2,0.6,0.3,1.2,0.4
		s1,0.2,1.4,0.4c1.3,0.5,2,1.3,2,2.5c0,0.8-0.4,1.5-1.1,2c-0.7,0.5-1.6,0.8-2.8,0.8c-0.8,0-1.4-0.1-2-0.4c-0.6-0.3-1.1-0.6-1.4-1.1
		s-0.5-1-0.5-1.5h2.6c0,0.4,0.1,0.7,0.4,0.9c0.3,0.2,0.6,0.3,1,0.3c0.4,0,0.7-0.1,0.8-0.2C277.2,104.4,277.3,104.2,277.3,104z"/>
	<path class="st1" d="M282.2,109.7l-1.4-0.7l0.3-0.6c0.4-0.7,0.6-1.4,0.6-2v-2h2.2l0,1.8c0,0.6-0.2,1.3-0.5,1.9
		C283.1,108.7,282.7,109.3,282.2,109.7z"/>
	<path class="st0" d="M132.1,127.9c-0.1-0.2-0.2-0.4-0.3-0.8c-0.5,0.6-1.2,1-2.1,1c-0.8,0-1.5-0.3-2.1-0.8s-0.9-1.1-0.9-1.9
		c0-1,0.4-1.7,1.1-2.2c0.7-0.5,1.7-0.7,3.1-0.7h0.9V122c0-0.8-0.4-1.2-1.1-1.2c-0.7,0-1,0.3-1,1H127c0-0.9,0.4-1.6,1.1-2.1
		c0.7-0.5,1.7-0.8,2.8-0.8c1.1,0,2,0.3,2.7,0.8s1,1.3,1,2.3v3.9c0,0.8,0.1,1.4,0.4,1.9v0.1H132.1z M130.4,126.1
		c0.3,0,0.6-0.1,0.9-0.2s0.4-0.3,0.5-0.5V124H131c-1,0-1.4,0.4-1.4,1.3c0,0.3,0.1,0.5,0.3,0.6C129.9,126,130.2,126.1,130.4,126.1z"
		/>
	<path class="st0" d="M139,127.9h-2.8v-12.6h2.8V127.9z"/>
	<path class="st0" d="M143.6,127.9h-2.8v-12.6h2.8V127.9z"/>
	<path class="st0" d="M149.4,116.7c0-0.4,0.1-0.7,0.4-1c0.3-0.3,0.7-0.4,1.1-0.4s0.8,0.1,1.1,0.4c0.3,0.3,0.4,0.6,0.4,1
		c0,0.4-0.1,0.7-0.4,1c-0.3,0.3-0.7,0.4-1.1,0.4s-0.8-0.1-1.1-0.4S149.4,117.1,149.4,116.7z M152.4,127.9h-2.8V119h2.8V127.9z"/>
	<path class="st0" d="M156.6,119l0.1,1c0.6-0.8,1.5-1.2,2.5-1.2c0.9,0,1.6,0.3,2.1,0.8c0.5,0.6,0.7,1.4,0.7,2.5v5.7h-2.8v-5.6
		c0-0.4-0.1-0.8-0.3-1c-0.2-0.2-0.5-0.3-1-0.3c-0.5,0-0.9,0.2-1.2,0.6v6.3H154V119H156.6z"/>
	<path class="st0" d="M167.4,123.4c0-0.9,0.2-1.7,0.5-2.4c0.3-0.7,0.8-1.2,1.5-1.6s1.4-0.6,2.3-0.6c1.3,0,2.4,0.4,3.1,1.2
		c0.8,0.8,1.1,1.9,1.1,3.4v0.1c0,1.4-0.4,2.5-1.2,3.3c-0.8,0.8-1.8,1.2-3.1,1.2c-1.3,0-2.3-0.4-3-1.1c-0.8-0.8-1.2-1.8-1.2-3.1
		L167.4,123.4z M170.1,123.5c0,0.8,0.1,1.4,0.4,1.8c0.3,0.4,0.6,0.6,1.1,0.6c1,0,1.5-0.8,1.5-2.3v-0.3c0-1.6-0.5-2.4-1.5-2.4
		c-0.9,0-1.4,0.7-1.5,2.1L170.1,123.5z"/>
	<path class="st0" d="M179.7,119l0.1,1c0.6-0.8,1.5-1.2,2.5-1.2c0.9,0,1.6,0.3,2.1,0.8c0.5,0.6,0.7,1.4,0.7,2.5v5.7h-2.8v-5.6
		c0-0.4-0.1-0.8-0.3-1c-0.2-0.2-0.5-0.3-1-0.3c-0.5,0-0.9,0.2-1.2,0.6v6.3h-2.8V119H179.7z"/>
	<path class="st0" d="M190.9,128.1c-1.4,0-2.5-0.4-3.3-1.2c-0.8-0.8-1.3-1.9-1.3-3.2v-0.2c0-0.9,0.2-1.7,0.5-2.4
		c0.3-0.7,0.8-1.2,1.5-1.6c0.6-0.4,1.4-0.6,2.3-0.6c1.2,0,2.2,0.4,2.9,1.2c0.7,0.8,1.1,1.8,1.1,3.2v1.1h-5.5
		c0.1,0.5,0.3,0.9,0.6,1.2s0.8,0.4,1.3,0.4c0.9,0,1.6-0.3,2-0.9l1.3,1.5c-0.3,0.5-0.8,0.9-1.5,1.1S191.6,128.1,190.9,128.1z
		 M190.6,121c-0.8,0-1.3,0.5-1.4,1.6h2.8v-0.2c0-0.4-0.1-0.8-0.3-1C191.3,121.1,191,121,190.6,121z"/>
	<path class="st0" d="M208.1,123.5c0,1.4-0.3,2.5-0.9,3.3c-0.6,0.8-1.5,1.2-2.5,1.2c-0.8,0-1.5-0.3-2-0.9v4.1h-2.8V119h2.6l0.1,0.8
		c0.5-0.7,1.2-1,2.1-1c1.1,0,1.9,0.4,2.5,1.2s0.9,1.9,0.9,3.3V123.5z M205.4,123.4c0-1.6-0.5-2.4-1.4-2.4c-0.7,0-1.1,0.2-1.3,0.7
		v3.5c0.2,0.5,0.7,0.7,1.3,0.7c0.9,0,1.3-0.8,1.4-2.3V123.4z"/>
	<path class="st0" d="M212.3,127.9h-2.8v-12.6h2.8V127.9z"/>
	<path class="st0" d="M218.9,127.9c-0.1-0.2-0.2-0.4-0.3-0.8c-0.5,0.6-1.2,1-2.1,1c-0.8,0-1.5-0.3-2.1-0.8s-0.9-1.1-0.9-1.9
		c0-1,0.4-1.7,1.1-2.2c0.7-0.5,1.7-0.7,3.1-0.7h0.9V122c0-0.8-0.4-1.2-1.1-1.2c-0.7,0-1,0.3-1,1h-2.8c0-0.9,0.4-1.6,1.1-2.1
		c0.7-0.5,1.7-0.8,2.8-0.8c1.1,0,2,0.3,2.7,0.8s1,1.3,1,2.3v3.9c0,0.8,0.1,1.4,0.4,1.9v0.1H218.9z M217.2,126.1
		c0.3,0,0.6-0.1,0.9-0.2s0.4-0.3,0.5-0.5V124h-0.8c-1,0-1.4,0.4-1.4,1.3c0,0.3,0.1,0.5,0.3,0.6C216.7,126,217,126.1,217.2,126.1z"/>
	<path class="st0" d="M226.6,125.9c0.4,0,0.7-0.1,0.9-0.3s0.3-0.5,0.3-0.9h2.6c0,1-0.3,1.8-1,2.4c-0.7,0.6-1.6,0.9-2.7,0.9
		c-1.3,0-2.3-0.4-3-1.2c-0.7-0.8-1.1-1.9-1.1-3.4v-0.1c0-0.9,0.2-1.7,0.5-2.4c0.3-0.7,0.8-1.2,1.4-1.6c0.6-0.4,1.4-0.6,2.2-0.6
		c1.2,0,2.1,0.3,2.7,1c0.7,0.6,1,1.5,1,2.6h-2.6c0-0.5-0.1-0.8-0.3-1.1c-0.2-0.2-0.5-0.4-0.9-0.4c-0.7,0-1.1,0.5-1.3,1.4
		c0,0.3-0.1,0.7-0.1,1.2c0,0.9,0.1,1.5,0.3,1.9C225.8,125.8,226.1,125.9,226.6,125.9z"/>
	<path class="st0" d="M235.9,128.1c-1.4,0-2.5-0.4-3.3-1.2c-0.8-0.8-1.3-1.9-1.3-3.2v-0.2c0-0.9,0.2-1.7,0.5-2.4
		c0.3-0.7,0.8-1.2,1.5-1.6c0.6-0.4,1.4-0.6,2.3-0.6c1.2,0,2.2,0.4,2.9,1.2c0.7,0.8,1.1,1.8,1.1,3.2v1.1h-5.5
		c0.1,0.5,0.3,0.9,0.6,1.2s0.8,0.4,1.3,0.4c0.9,0,1.6-0.3,2-0.9l1.3,1.5c-0.3,0.5-0.8,0.9-1.5,1.1S236.6,128.1,235.9,128.1z
		 M235.6,121c-0.8,0-1.3,0.5-1.4,1.6h2.8v-0.2c0-0.4-0.1-0.8-0.3-1C236.3,121.1,236,121,235.6,121z"/>
	<path class="st0" d="M242.8,124.1c0-0.8,0.1-1.4,0.3-1.9c0.2-0.5,0.5-0.9,0.9-1.2c0.4-0.3,0.7-0.6,0.9-0.9s0.3-0.6,0.3-0.9
		c0-0.8-0.4-1.2-1.1-1.2c-0.3,0-0.6,0.1-0.8,0.4s-0.3,0.6-0.3,1h-2.8c0-1.1,0.4-1.9,1-2.6c0.7-0.6,1.6-0.9,2.9-0.9
		c1.2,0,2.2,0.3,2.8,0.8s1,1.4,1,2.4c0,0.5-0.1,0.9-0.3,1.2c-0.2,0.4-0.5,0.8-0.9,1.1l-0.9,0.9c-0.3,0.3-0.5,0.5-0.6,0.8
		c-0.1,0.3-0.2,0.6-0.2,1H242.8z M242.4,126.6c0-0.4,0.1-0.7,0.4-1s0.7-0.4,1.1-0.4s0.8,0.1,1.1,0.4s0.4,0.6,0.4,1s-0.1,0.7-0.4,1
		c-0.3,0.3-0.7,0.4-1.1,0.4s-0.8-0.1-1.1-0.4C242.6,127.3,242.4,127,242.4,126.6z"/>
</g>
<g id="PG_x5F_Logo_x5F_W_00000137124683417911367440000010117587184698312116_">
	<g>
		<defs>
			<rect id="SVGID_1_" x="209.4" y="215.4" width="76.9" height="22.2"/>
		</defs>
		<clipPath id="SVGID_00000160910633048516292430000008577799432596339360_">
			<use xlink:href="#SVGID_1_"  style="overflow:visible;"/>
		</clipPath>
		<g style="clip-path:url(#SVGID_00000160910633048516292430000008577799432596339360_);">
			<defs>
				<rect id="SVGID_00000045600648014450066760000002341873058963758492_" x="209.4" y="215.4" width="76.9" height="22.2"/>
			</defs>
			<clipPath id="SVGID_00000128459789499818840930000010834987619802860723_">
				<use xlink:href="#SVGID_00000045600648014450066760000002341873058963758492_"  style="overflow:visible;"/>
			</clipPath>
			<path style="clip-path:url(#SVGID_00000128459789499818840930000010834987619802860723_);fill:#FFFFFF;" d="M283.7,224.5
				c0-0.1,0-0.2,0.1-0.3c0.1-0.1,0.2-0.1,0.3-0.1c0.1,0,0.2,0,0.3,0.1c0.1,0.1,0.1,0.2,0.1,0.3v5.2c0,0.1,0,0.2-0.1,0.3
				c-0.1,0.1-0.2,0.1-0.3,0.1c-0.1,0-0.2,0-0.3-0.1c-0.1-0.1-0.1-0.2-0.1-0.3V224.5z"/>
			<path style="clip-path:url(#SVGID_00000128459789499818840930000010834987619802860723_);fill:#FFFFFF;" d="M257.3,232.8
				c-0.4,0.3-0.8,0.4-1.4,0.4c-0.3,0-0.5-0.1-0.7-0.1c-0.2,0-0.3-0.1-0.5-0.2c-0.1-0.1-0.2-0.2-0.2-0.4c0-0.1,0-0.3,0.1-0.3
				c0.1-0.1,0.2-0.1,0.3-0.1c0.1,0,0.2,0,0.3,0.1c0.2,0.1,0.4,0.2,0.7,0.2c0.2,0,0.3,0,0.5-0.1c0.2-0.1,0.3-0.2,0.4-0.3
				c0.1-0.1,0.2-0.2,0.3-0.4c0.1-0.1,0.1-0.3,0.1-0.5v-3.5c0-0.1,0-0.2,0.1-0.3c0.1-0.1,0.2-0.1,0.3-0.1c0.1,0,0.2,0,0.3,0.1
				s0.1,0.2,0.1,0.3v3.6C258.2,231.8,257.9,232.4,257.3,232.8"/>
			<path style="clip-path:url(#SVGID_00000128459789499818840930000010834987619802860723_);fill:#FFFFFF;" d="M236.1,222.4
				c0-0.1,0-0.2,0.1-0.3c0.1-0.1,0.2-0.1,0.3-0.1c0.1,0,0.2,0,0.3,0.1c0.1,0.1,0.1,0.2,0.1,0.3v0.4c0,0.1,0,0.2-0.1,0.3
				c-0.1,0.1-0.2,0.1-0.3,0.1c-0.1,0-0.2,0-0.3-0.1c-0.1-0.1-0.1-0.2-0.1-0.3V222.4z M236.1,224.6c0-0.1,0-0.2,0.1-0.3
				c0.1-0.1,0.2-0.1,0.3-0.1c0.1,0,0.2,0,0.3,0.1c0.1,0.1,0.1,0.2,0.1,0.3v5.2c0,0.1,0,0.2-0.1,0.3c-0.1,0.1-0.2,0.1-0.3,0.1
				c-0.1,0-0.2,0-0.3-0.1c-0.1-0.1-0.1-0.2-0.1-0.3V224.6z"/>
			<path style="clip-path:url(#SVGID_00000128459789499818840930000010834987619802860723_);fill:#FFFFFF;" d="M232,224.7
				c0-0.1,0-0.2,0.1-0.3c0.1-0.1,0.2-0.1,0.3-0.1c0.1,0,0.2,0,0.3,0.1c0.1,0.1,0.1,0.2,0.2,0.3c0.4-0.3,0.8-0.4,1.3-0.4
				c0.3,0,0.5,0.1,0.7,0.1c0.2,0,0.3,0.1,0.5,0.2c0.1,0.1,0.2,0.2,0.2,0.4c0,0.1,0,0.2-0.1,0.3c-0.1,0.1-0.2,0.1-0.3,0.1
				c-0.1,0-0.2,0-0.3-0.1c-0.2-0.1-0.4-0.2-0.6-0.2c-0.2,0-0.3,0-0.5,0.1c-0.1,0.1-0.3,0.2-0.4,0.3c-0.1,0.1-0.2,0.2-0.3,0.4
				c-0.1,0.1-0.1,0.3-0.1,0.5v3.5c0,0.1,0,0.2-0.1,0.3c-0.1,0.1-0.2,0.1-0.3,0.1c-0.1,0-0.2,0-0.3-0.1c-0.1-0.1-0.1-0.2-0.1-0.3
				v-3.5V224.7z"/>
			<path style="clip-path:url(#SVGID_00000128459789499818840930000010834987619802860723_);fill:#FFFFFF;" d="M237.6,224.7
				c0-0.1,0-0.1,0-0.2c0-0.1,0-0.2,0.1-0.3c0.1-0.1,0.2-0.1,0.3-0.1c0.1,0,0.2,0,0.3,0.1c0.1,0,0.1,0.1,0.2,0.2l1.8,4.3l1.8-4.3
				c0.1-0.2,0.2-0.3,0.4-0.3c0.1,0,0.3,0,0.3,0.1c0.1,0.1,0.1,0.2,0.1,0.3c0,0.1,0,0.1,0,0.2l-2.3,5.3c-0.1,0.2-0.2,0.3-0.4,0.3
				c-0.2,0-0.4-0.1-0.4-0.3L237.6,224.7z"/>
			<path style="clip-path:url(#SVGID_00000128459789499818840930000010834987619802860723_);fill:#FFFFFF;" d="M243.2,226.3
				c0-0.3,0.1-0.6,0.2-0.9c0.1-0.3,0.3-0.5,0.5-0.7c0.2-0.2,0.4-0.4,0.7-0.5c0.3-0.1,0.6-0.2,0.9-0.2c0.3,0,0.6,0.1,0.9,0.2
				c0.3,0.1,0.5,0.3,0.7,0.5c0.2,0.2,0.4,0.4,0.5,0.7c0.1,0.3,0.2,0.6,0.2,0.9v3.5c0,0.1,0,0.2-0.1,0.3c-0.1,0.1-0.2,0.1-0.3,0.1
				c-0.1,0-0.2,0-0.3-0.1c-0.1-0.1-0.1-0.2-0.2-0.3c-0.4,0.3-0.8,0.4-1.3,0.4c-0.3,0-0.6-0.1-0.9-0.2c-0.3-0.1-0.5-0.3-0.7-0.5
				c-0.2-0.2-0.4-0.4-0.5-0.7c-0.1-0.3-0.2-0.6-0.2-0.9V226.3z M244.1,228.1c0,0.2,0,0.3,0.1,0.5c0.1,0.2,0.2,0.3,0.3,0.4
				c0.1,0.1,0.3,0.2,0.4,0.3c0.2,0.1,0.3,0.1,0.5,0.1s0.3,0,0.5-0.1c0.2-0.1,0.3-0.1,0.4-0.3c0.1-0.1,0.2-0.2,0.3-0.4
				c0.1-0.1,0.1-0.3,0.1-0.5v-1.8c0-0.2,0-0.3-0.1-0.5c-0.1-0.2-0.2-0.3-0.3-0.4c-0.1-0.1-0.3-0.2-0.4-0.3c-0.2-0.1-0.3-0.1-0.5-0.1
				c-0.2,0-0.4,0-0.5,0.1c-0.2,0.1-0.3,0.2-0.4,0.3c-0.1,0.1-0.2,0.3-0.3,0.4c-0.1,0.2-0.1,0.3-0.1,0.5V228.1z"/>
			<path style="clip-path:url(#SVGID_00000128459789499818840930000010834987619802860723_);fill:#FFFFFF;" d="M248.5,226.3
				c0-0.3,0.1-0.6,0.2-0.9c0.1-0.3,0.3-0.5,0.5-0.7c0.2-0.2,0.5-0.4,0.7-0.5c0.3-0.1,0.6-0.2,0.9-0.2c0.1,0,0.2,0,0.3,0
				c0.2,0,0.4,0.1,0.6,0.2c0.2,0.1,0.4,0.2,0.6,0.4c0.2,0.2,0.4,0.4,0.5,0.8c0,0.1,0,0.1,0,0.2c0,0.1,0,0.2-0.1,0.3
				c-0.1,0.1-0.2,0.1-0.3,0.1c-0.1,0-0.2,0-0.3-0.1c-0.1-0.1-0.1-0.1-0.2-0.2c-0.1-0.2-0.3-0.4-0.5-0.6c-0.2-0.1-0.4-0.2-0.7-0.2
				c-0.2,0-0.4,0-0.5,0.1c-0.2,0.1-0.3,0.2-0.4,0.3c-0.1,0.1-0.2,0.3-0.3,0.4c-0.1,0.2-0.1,0.3-0.1,0.5v1.8c0,0.2,0,0.3,0.1,0.5
				c0.1,0.2,0.2,0.3,0.3,0.4c0.1,0.1,0.3,0.2,0.4,0.3c0.2,0.1,0.3,0.1,0.5,0.1c0.3,0,0.5-0.1,0.7-0.2c0.2-0.1,0.4-0.3,0.5-0.6
				c0-0.1,0.1-0.2,0.2-0.2c0.1-0.1,0.2-0.1,0.3-0.1c0.1,0,0.2,0,0.3,0.1c0.1,0.1,0.1,0.2,0.1,0.3c0,0.1,0,0.1,0,0.2
				c-0.2,0.4-0.4,0.6-0.6,0.8c-0.2,0.2-0.5,0.3-0.7,0.4c-0.2,0.1-0.4,0.1-0.6,0.1c-0.2,0-0.2,0-0.2,0c-0.3,0-0.6-0.1-0.9-0.2
				s-0.5-0.3-0.7-0.5c-0.2-0.2-0.4-0.4-0.5-0.7c-0.1-0.3-0.2-0.6-0.2-0.9V226.3z"/>
			<path style="clip-path:url(#SVGID_00000128459789499818840930000010834987619802860723_);fill:#FFFFFF;" d="M265.6,224.6
				c0-0.1,0-0.2,0.1-0.3c0.1-0.1,0.2-0.1,0.3-0.1c0.1,0,0.2,0,0.3,0.1c0.1,0.1,0.1,0.2,0.1,0.3v3.5c0,0.2,0,0.3,0.1,0.5
				c0.1,0.2,0.2,0.3,0.3,0.4c0.1,0.1,0.3,0.2,0.4,0.3c0.2,0.1,0.3,0.1,0.5,0.1c0.2,0,0.3,0,0.5-0.1c0.2-0.1,0.3-0.2,0.4-0.3
				c0.1-0.1,0.2-0.3,0.3-0.4c0.1-0.2,0.1-0.3,0.1-0.5v-3.5c0-0.1,0-0.2,0.1-0.3c0.1-0.1,0.2-0.1,0.3-0.1c0.1,0,0.2,0,0.3,0.1
				c0.1,0.1,0.1,0.2,0.1,0.3v3.5c0,0.3-0.1,0.6-0.2,0.9c-0.1,0.3-0.3,0.5-0.5,0.7c-0.2,0.2-0.4,0.4-0.7,0.5
				c-0.3,0.1-0.6,0.2-0.9,0.2c-0.3,0-0.6-0.1-0.9-0.2c-0.3-0.1-0.5-0.3-0.7-0.5c-0.2-0.2-0.4-0.4-0.5-0.7c-0.1-0.3-0.2-0.6-0.2-0.9
				V224.6z"/>
			<path style="clip-path:url(#SVGID_00000128459789499818840930000010834987619802860723_);fill:#FFFFFF;" d="M270.9,226.3
				c0-0.3,0.1-0.6,0.2-0.9c0.1-0.3,0.3-0.5,0.5-0.7c0.2-0.2,0.4-0.4,0.7-0.5c0.3-0.1,0.6-0.2,0.9-0.2c0.3,0,0.6,0.1,0.9,0.2
				c0.3,0.1,0.5,0.3,0.7,0.5c0.2,0.2,0.4,0.4,0.5,0.7c0.1,0.3,0.2,0.6,0.2,0.9v3.5c0,0.1,0,0.2-0.1,0.3c-0.1,0.1-0.2,0.1-0.3,0.1
				c-0.1,0-0.2,0-0.3-0.1c-0.1-0.1-0.1-0.2-0.2-0.3c-0.4,0.3-0.8,0.4-1.3,0.4c-0.3,0-0.6-0.1-0.9-0.2c-0.3-0.1-0.5-0.3-0.7-0.5
				c-0.2-0.2-0.4-0.4-0.5-0.7c-0.1-0.3-0.2-0.6-0.2-0.9V226.3z M271.9,228.1c0,0.2,0,0.3,0.1,0.5c0.1,0.2,0.2,0.3,0.3,0.4
				c0.1,0.1,0.3,0.2,0.4,0.3c0.2,0.1,0.3,0.1,0.5,0.1c0.2,0,0.3,0,0.5-0.1c0.2-0.1,0.3-0.1,0.4-0.3c0.1-0.1,0.2-0.2,0.3-0.4
				c0.1-0.1,0.1-0.3,0.1-0.5v-1.8c0-0.2,0-0.3-0.1-0.5c-0.1-0.2-0.2-0.3-0.3-0.4c-0.1-0.1-0.3-0.2-0.4-0.3c-0.2-0.1-0.3-0.1-0.5-0.1
				c-0.2,0-0.4,0-0.5,0.1c-0.2,0.1-0.3,0.2-0.4,0.3c-0.1,0.1-0.2,0.3-0.3,0.4c-0.1,0.2-0.1,0.3-0.1,0.5V228.1z"/>
			<path style="clip-path:url(#SVGID_00000128459789499818840930000010834987619802860723_);fill:#FFFFFF;" d="M276.3,224.7
				c0-0.1,0-0.2,0.1-0.3c0.1-0.1,0.2-0.1,0.3-0.1c0.1,0,0.2,0,0.3,0.1c0.1,0.1,0.1,0.2,0.2,0.3c0.4-0.3,0.8-0.4,1.3-0.4
				c0.3,0,0.5,0.1,0.7,0.1c0.2,0,0.3,0.1,0.5,0.2c0.1,0.1,0.2,0.2,0.2,0.4c0,0.1,0,0.2-0.1,0.3c-0.1,0.1-0.2,0.1-0.3,0.1
				c-0.1,0-0.2,0-0.3-0.1c-0.2-0.1-0.4-0.2-0.6-0.2c-0.2,0-0.3,0-0.5,0.1c-0.1,0.1-0.3,0.2-0.4,0.3c-0.1,0.1-0.2,0.2-0.3,0.4
				c-0.1,0.1-0.1,0.3-0.1,0.5v3.5c0,0.1,0,0.2-0.1,0.3c-0.1,0.1-0.2,0.1-0.3,0.1c-0.1,0-0.2,0-0.3-0.1c-0.1-0.1-0.1-0.2-0.1-0.3
				v-3.5V224.7z"/>
			<path style="clip-path:url(#SVGID_00000128459789499818840930000010834987619802860723_);fill:#FFFFFF;" d="M283.7,222.4
				c0-0.1,0-0.2,0.1-0.3c0.1-0.1,0.2-0.1,0.3-0.1c0.1,0,0.2,0,0.3,0.1c0.1,0.1,0.1,0.2,0.1,0.3v5.7c0,0.3-0.1,0.6-0.2,0.9
				c-0.1,0.3-0.3,0.5-0.5,0.7c-0.2,0.2-0.4,0.4-0.7,0.5c-0.3,0.1-0.6,0.2-0.9,0.2c-0.3,0-0.6-0.1-0.9-0.2c-0.3-0.1-0.5-0.3-0.7-0.5
				c-0.2-0.2-0.4-0.4-0.5-0.7c-0.1-0.3-0.2-0.6-0.2-0.9v-1.8c0-0.3,0.1-0.6,0.2-0.9c0.1-0.3,0.3-0.5,0.5-0.7
				c0.2-0.2,0.4-0.4,0.7-0.5c0.3-0.1,0.6-0.2,0.9-0.2c0.2,0,0.5,0,0.7,0.1c0.2,0.1,0.4,0.2,0.6,0.3V222.4z M281.1,228.1
				c0,0.2,0,0.3,0.1,0.5c0.1,0.2,0.2,0.3,0.3,0.4c0.1,0.1,0.3,0.2,0.4,0.3c0.2,0.1,0.3,0.1,0.5,0.1c0.2,0,0.3,0,0.5-0.1
				c0.2-0.1,0.3-0.2,0.4-0.3c0.1-0.1,0.2-0.3,0.3-0.4c0.1-0.2,0.1-0.3,0.1-0.5v-1.8c0-0.2,0-0.3-0.1-0.5c-0.1-0.2-0.2-0.3-0.3-0.4
				c-0.1-0.1-0.3-0.2-0.4-0.3c-0.2-0.1-0.3-0.1-0.5-0.1c-0.2,0-0.3,0-0.5,0.1c-0.2,0.1-0.3,0.2-0.4,0.3c-0.1,0.1-0.2,0.3-0.3,0.4
				c-0.1,0.2-0.1,0.3-0.1,0.5V228.1z"/>
			<path style="clip-path:url(#SVGID_00000128459789499818840930000010834987619802860723_);fill:#FFFFFF;" d="M253.7,224.6
				c0-0.1,0-0.2,0.1-0.3c0.1-0.1,0.2-0.1,0.3-0.1c0.1,0,0.2,0,0.3,0.1c0.1,0.1,0.1,0.2,0.1,0.3v3.5c0,0.2,0,0.3,0.1,0.5
				c0.1,0.2,0.2,0.3,0.3,0.4c0.1,0.1,0.3,0.2,0.4,0.3c0.2,0.1,0.3,0.1,0.5,0.1c0.2,0,0.3,0,0.5-0.1c0.2-0.1,0.3-0.2,0.4-0.3
				c0.1-0.1,0.2-0.3,0.3-0.4c0.1-0.2,0.1-0.3,0.1-0.5v-3.5c0-0.1,0-0.2,0.1-0.3c0.1-0.1,0.2-0.1,0.3-0.1c0.1,0,0.2,0,0.3,0.1
				c0.1,0.1,0.1,0.2,0.1,0.3v3.5c0,0.3-0.1,0.6-0.2,0.9c-0.1,0.3-0.3,0.5-0.5,0.7c-0.2,0.2-0.4,0.4-0.7,0.5
				c-0.3,0.1-0.6,0.2-0.9,0.2c-0.3,0-0.6-0.1-0.9-0.2c-0.3-0.1-0.5-0.3-0.7-0.5c-0.2-0.2-0.4-0.4-0.5-0.7c-0.1-0.3-0.2-0.6-0.2-0.9
				V224.6z"/>
			<path style="clip-path:url(#SVGID_00000128459789499818840930000010834987619802860723_);fill:#FFFFFF;" d="M264.2,226.1h-2
				c-0.3,0-0.5,0.2-0.5,0.5c0,0.3,0.2,0.5,0.5,0.5h1.6v0.7c0,1-0.9,1.8-1.9,1.8c-1.1,0-2-0.7-2-2v-2.8c0-1.1,0.9-2,1.9-2
				c0.9,0,1.6,0.6,1.9,1.3c0.1,0.2,0.2,0.3,0.4,0.3c0.4,0,0.6-0.3,0.4-0.7c-0.3-0.9-1.2-1.8-2.7-1.8c-1.7,0-2.9,1.3-2.9,2.9v2.9
				c0,1.5,1.2,2.9,2.9,2.9c1.5,0,2.8-1.2,2.8-2.5v-1.4C264.7,226.3,264.5,226.1,264.2,226.1"/>
			<path style="clip-path:url(#SVGID_00000128459789499818840930000010834987619802860723_);fill:#FFFFFF;" d="M283.7,224.6
				c0-0.1,0-0.2,0.1-0.3c0.1-0.1,0.2-0.1,0.3-0.1c0.1,0,0.2,0,0.3,0.1c0.1,0.1,0.1,0.2,0.1,0.3v5.2c0,0.1,0,0.2-0.1,0.3
				c-0.1,0.1-0.2,0.1-0.3,0.1c-0.1,0-0.2,0-0.3-0.1c-0.1-0.1-0.1-0.2-0.1-0.3V224.6z"/>
			<path style="clip-path:url(#SVGID_00000128459789499818840930000010834987619802860723_);fill:#FFFFFF;" d="M226,222.7
				c0-0.1,0-0.2,0.1-0.3c0.1-0.1,0.2-0.1,0.3-0.1h1.9h0c0.4,0,0.8,0.1,1.1,0.2c0.3,0.1,0.7,0.4,0.9,0.6c0.3,0.3,0.5,0.6,0.6,0.9
				c0.2,0.3,0.2,0.7,0.2,1.1c0,0.4-0.1,0.8-0.2,1.1c-0.2,0.3-0.4,0.6-0.6,0.9c-0.3,0.3-0.6,0.5-0.9,0.6c-0.4,0.1-0.7,0.2-1.1,0.2
				h-1.4v1.8c0,0.1,0,0.2-0.1,0.3c-0.1,0.1-0.2,0.1-0.3,0.1c-0.1,0-0.2,0-0.3-0.1c-0.1-0.1-0.1-0.2-0.1-0.3V222.7z M226.9,223.2v3.8
				h1.4c0.3,0,0.5-0.1,0.8-0.2c0.2-0.1,0.4-0.2,0.6-0.4c0.2-0.2,0.3-0.4,0.4-0.6c0.1-0.2,0.2-0.5,0.2-0.7c0-0.3-0.1-0.5-0.2-0.7
				c-0.1-0.2-0.2-0.4-0.4-0.6c-0.2-0.2-0.4-0.3-0.6-0.4c-0.2-0.1-0.5-0.2-0.8-0.2H226.9z"/>
			<path style="clip-path:url(#SVGID_00000128459789499818840930000010834987619802860723_);fill:#FFFFFF;" d="M216.9,230.5v1
				c0,0.8-0.6,1.4-1.4,1.4c-0.2,0-0.5-0.1-0.7-0.2c-0.2-0.1-0.3-0.4-0.2-0.6c0.1-0.2,0.4-0.3,0.6-0.2c0.1,0,0.1,0.1,0.2,0.1
				c0.2,0,0.4-0.2,0.4-0.4v-1c0-0.3,0.2-0.5,0.5-0.5C216.6,230.1,216.9,230.3,216.9,230.5 M213.7,232.4c-0.1-0.2-0.4-0.3-0.6-0.2
				c-0.2,0.1-0.3,0.4-0.2,0.6c0.5,1,1.5,1.6,2.6,1.6c1.6,0,2.9-1.3,2.9-2.9v-1c0-0.3-0.2-0.5-0.5-0.5s-0.5,0.2-0.5,0.5v1
				c0,1.1-0.9,2-2,2C214.7,233.5,214.1,233.1,213.7,232.4 M215.4,216.9c-2.4,0.1-4.4,2.1-4.4,4.6v10c0,1.2,0.5,2.4,1.4,3.2
				c0.8,0.8,2,1.3,3.1,1.3c0,0,0.1,0,0.1,0c2.4-0.1,4.4-2.1,4.4-4.6v-0.8c0-1.2-1-2.1-2.1-2.1h-1.4c-0.3,0-0.5,0.2-0.5,0.5
				s0.2,0.5,0.5,0.5h1.4c0.7,0,1.2,0.5,1.2,1.2v0.8c0,2-1.5,3.6-3.4,3.6c-1,0-1.9-0.3-2.6-1c-0.7-0.7-1.1-1.6-1.1-2.6v-10
				c0-2,1.5-3.6,3.4-3.6c1,0,1.9,0.3,2.6,1c0.7,0.7,1.1,1.6,1.1,2.6v5.9c0,0.3,0.2,0.5,0.5,0.5c0.3,0,0.5-0.2,0.5-0.5v-5.9
				c0-1.2-0.5-2.4-1.4-3.2C217.7,217.4,216.6,216.9,215.4,216.9 M218.4,224.9v-3.5c0-1.6-1.3-2.9-2.9-2.9c-1.6,0-2.9,1.3-2.9,2.9
				v0.5c0,0.3,0.2,0.5,0.5,0.5c0.3,0,0.5-0.2,0.5-0.5v-0.5c0-1.1,0.9-2,2-2c1.1,0,2,0.9,2,2v3.5c0,1.1-0.9,2-2,2
				c-0.3,0-0.5,0-0.7-0.1c-0.1-0.1-0.3,0-0.4,0c-0.1,0.1-0.2,0.2-0.2,0.4v3.2c0,0.2-0.1,0.3-0.3,0.3c-0.2,0-0.3-0.1-0.3-0.3v-6.9
				c0-0.3-0.2-0.5-0.5-0.5c-0.3,0-0.5,0.2-0.5,0.5v6.9c0,0.7,0.6,1.2,1.2,1.2s1.2-0.6,1.2-1.2v-2.6c0.1,0,0.3,0,0.4,0
				C217.1,227.9,218.4,226.6,218.4,224.9 M221.5,221.5v7.4v0.1v2.5c0,1.6-0.6,3.2-1.8,4.3c-1.1,1.1-2.6,1.7-4.2,1.7c0,0-0.1,0-0.1,0
				c-3.3-0.1-5.9-2.8-5.9-6.2v-10c0-1.6,0.6-3.2,1.8-4.3c1.2-1.1,2.7-1.8,4.4-1.7C218.9,215.5,221.5,218.2,221.5,221.5 M220.6,229
				v-0.1v-7.4c0-2.8-2.2-5.2-5-5.2c-1.4,0-2.7,0.5-3.7,1.5c-1,1-1.5,2.3-1.5,3.7v10c0,2.8,2.2,5.2,5,5.2c1.4,0,2.7-0.5,3.7-1.5
				c1-1,1.5-2.3,1.5-3.7V229z M214.1,224.9v-3.5c0-0.8,0.6-1.4,1.4-1.4c0.8,0,1.4,0.6,1.4,1.4v3.5c0,0.8-0.6,1.4-1.4,1.4
				C214.7,226.3,214.1,225.7,214.1,224.9 M215.1,224.9c0,0.2,0.2,0.4,0.4,0.4c0.2,0,0.4-0.2,0.4-0.4v-3.5c0-0.2-0.2-0.4-0.4-0.4
				c-0.2,0-0.4,0.2-0.4,0.4V224.9z"/>
			<polygon style="clip-path:url(#SVGID_00000128459789499818840930000010834987619802860723_);fill:#FFFFFF;" points="285.3,222.1 
				285.1,222.1 285.1,222 285.6,222 285.6,222.1 285.4,222.1 285.4,222.6 285.3,222.6 			"/>
			<path style="clip-path:url(#SVGID_00000128459789499818840930000010834987619802860723_);fill:#FFFFFF;" d="M286.2,222.4
				c0-0.1,0-0.2,0-0.3h0C286.2,222.2,286.2,222.3,286.2,222.4l-0.2,0.2h-0.1l-0.1-0.3c0-0.1,0-0.2-0.1-0.3h0c0,0.1,0,0.2,0,0.3
				l0,0.2h-0.1l0-0.6h0.2l0.1,0.2c0,0.1,0,0.2,0.1,0.2h0c0-0.1,0-0.2,0.1-0.2l0.1-0.2h0.2l0,0.6h-0.1L286.2,222.4z"/>
		</g>
	</g>
</g>
</svg>
