<?xml version="1.0" encoding="utf-8"?>
<!-- Generator: Adobe Illustrator 26.0.3, SVG Export Plug-In . SVG Version: 6.00 Build 0)  -->
<svg version="1.1" id="Layer_1" xmlns="http://www.w3.org/2000/svg" xmlns:xlink="http://www.w3.org/1999/xlink" x="0px" y="0px"
	 viewBox="0 0 300 250" style="enable-background:new 0 0 300 250;" xml:space="preserve">
<style type="text/css">
	.st0{fill:#021D8B;stroke:url(#SVGID_1_);stroke-width:1.1054;stroke-miterlimit:10;}
	.st1{fill:#FFFFFF;}
</style>
<linearGradient id="SVGID_1_" gradientUnits="userSpaceOnUse" x1="49.5942" y1="165.8495" x2="138.0198" y2="165.8495">
	<stop  offset="0" style="stop-color:#18B9FB"/>
	<stop  offset="0.5" style="stop-color:#782EEB"/>
	<stop  offset="1" style="stop-color:#E82D8A"/>
</linearGradient>
<path class="st0" d="M122.8,180.5h-58c-8.1,0-14.7-6.6-14.7-14.7v0c0-8.1,6.6-14.7,14.7-14.7h58c8.1,0,14.7,6.6,14.7,14.7v0
	C137.5,174,130.9,180.5,122.8,180.5z"/>
<g>
	<path class="st1" d="M65.2,168H69v1.4h-5.6v-8.6h1.8V168z"/>
	<path class="st1" d="M72.8,169.6c-0.9,0-1.7-0.3-2.3-0.9s-0.9-1.3-0.9-2.3v-0.2c0-0.6,0.1-1.2,0.4-1.7c0.2-0.5,0.6-0.9,1.1-1.2
		c0.5-0.3,1-0.4,1.6-0.4c0.9,0,1.6,0.3,2.1,0.8c0.5,0.6,0.8,1.3,0.8,2.4v0.7h-4.1c0.1,0.4,0.2,0.8,0.5,1s0.6,0.4,1.1,0.4
		c0.7,0,1.2-0.2,1.5-0.7l0.8,0.9c-0.3,0.4-0.6,0.6-1,0.9C73.8,169.5,73.4,169.6,72.8,169.6z M72.6,164.3c-0.3,0-0.6,0.1-0.8,0.3
		s-0.3,0.6-0.4,1h2.4v-0.1c0-0.4-0.1-0.7-0.3-0.9C73.3,164.4,73,164.3,72.6,164.3z"/>
	<path class="st1" d="M80.2,169.5c-0.1-0.2-0.1-0.3-0.2-0.6c-0.4,0.5-1,0.7-1.6,0.7c-0.6,0-1.2-0.2-1.6-0.5
		c-0.4-0.4-0.6-0.8-0.6-1.4c0-0.7,0.3-1.2,0.8-1.6c0.5-0.4,1.2-0.5,2.2-0.6h0.8v-0.4c0-0.3-0.1-0.5-0.2-0.7
		c-0.2-0.2-0.4-0.3-0.7-0.3c-0.3,0-0.5,0.1-0.7,0.2c-0.2,0.1-0.2,0.3-0.2,0.6h-1.7c0-0.4,0.1-0.7,0.3-1c0.2-0.3,0.6-0.6,1-0.7
		c0.4-0.2,0.9-0.3,1.4-0.3c0.8,0,1.4,0.2,1.9,0.6c0.5,0.4,0.7,1,0.7,1.7v2.8c0,0.6,0.1,1.1,0.3,1.4v0.1H80.2z M78.7,168.3
		c0.3,0,0.5-0.1,0.7-0.2c0.2-0.1,0.4-0.3,0.5-0.5v-1.1h-0.6c-0.9,0-1.3,0.3-1.4,0.9l0,0.1c0,0.2,0.1,0.4,0.2,0.5
		C78.3,168.2,78.5,168.3,78.7,168.3z"/>
	<path class="st1" d="M86.6,164.6c-0.2,0-0.4,0-0.6,0c-0.6,0-1.1,0.2-1.3,0.7v4.2H83V163h1.6l0,0.8c0.3-0.6,0.8-0.9,1.4-0.9
		c0.2,0,0.4,0,0.5,0.1L86.6,164.6z"/>
	<path class="st1" d="M89,163l0.1,0.7c0.5-0.6,1.1-0.9,1.8-0.9c0.7,0,1.2,0.2,1.5,0.6c0.3,0.4,0.5,1,0.5,1.8v4.2h-1.7v-4.1
		c0-0.4-0.1-0.6-0.2-0.8s-0.4-0.2-0.8-0.2c-0.5,0-0.8,0.2-1.1,0.6v4.5h-1.7V163H89z"/>
	<path class="st1" d="M98.8,163l0.1,0.7c0.5-0.6,1.1-0.8,1.8-0.8c0.8,0,1.4,0.3,1.7,1c0.5-0.7,1.1-1,1.9-1c0.7,0,1.2,0.2,1.6,0.6
		c0.3,0.4,0.5,1,0.5,1.8v4.1h-1.7v-4.1c0-0.4-0.1-0.6-0.2-0.8c-0.1-0.2-0.4-0.3-0.8-0.3c-0.5,0-0.9,0.2-1.1,0.7l0,4.4H101v-4.1
		c0-0.4-0.1-0.6-0.2-0.8s-0.4-0.2-0.7-0.2c-0.5,0-0.8,0.2-1.1,0.6v4.5h-1.7V163H98.8z"/>
	<path class="st1" d="M107.5,166.2c0-0.6,0.1-1.2,0.4-1.7s0.6-0.9,1.1-1.2c0.5-0.3,1-0.4,1.6-0.4c0.9,0,1.6,0.3,2.1,0.8
		c0.5,0.5,0.9,1.3,0.9,2.2l0,0.4c0,1-0.3,1.8-0.8,2.4s-1.3,0.9-2.2,0.9c-0.9,0-1.7-0.3-2.2-0.9C107.8,168.1,107.5,167.3,107.5,166.2
		L107.5,166.2z M109.2,166.3c0,0.6,0.1,1.1,0.3,1.4s0.6,0.5,1,0.5c0.4,0,0.7-0.2,1-0.5s0.4-0.8,0.4-1.5c0-0.6-0.1-1.1-0.4-1.4
		s-0.6-0.5-1-0.5c-0.4,0-0.7,0.2-1,0.5S109.2,165.6,109.2,166.3z"/>
	<path class="st1" d="M118.2,164.6c-0.2,0-0.4,0-0.6,0c-0.6,0-1.1,0.2-1.3,0.7v4.2h-1.7V163h1.6l0,0.8c0.3-0.6,0.8-0.9,1.4-0.9
		c0.2,0,0.4,0,0.5,0.1L118.2,164.6z"/>
	<path class="st1" d="M122,169.6c-0.9,0-1.7-0.3-2.3-0.9s-0.9-1.3-0.9-2.3v-0.2c0-0.6,0.1-1.2,0.4-1.7c0.2-0.5,0.6-0.9,1.1-1.2
		c0.5-0.3,1-0.4,1.6-0.4c0.9,0,1.6,0.3,2.1,0.8c0.5,0.6,0.8,1.3,0.8,2.4v0.7h-4.1c0.1,0.4,0.2,0.8,0.5,1s0.6,0.4,1.1,0.4
		c0.7,0,1.2-0.2,1.5-0.7l0.8,0.9c-0.3,0.4-0.6,0.6-1,0.9C123.1,169.5,122.6,169.6,122,169.6z M121.8,164.3c-0.3,0-0.6,0.1-0.8,0.3
		s-0.3,0.6-0.4,1h2.4v-0.1c0-0.4-0.1-0.7-0.3-0.9C122.5,164.4,122.2,164.3,121.8,164.3z"/>
</g>
</svg>
