<svg id="Layer_1" xmlns="http://www.w3.org/2000/svg" viewBox="0 0 728 90"><style>.st0{fill:#2a3380}.st1{fill:#e72e8a}</style><path class="st0" d="M127.1 36.3h-5.9v6.1h-3.1V27.5h9.7V30h-6.6v3.8h5.9v2.5zM129.4 28.5c0-.4.1-.8.4-1.1s.7-.4 1.2-.4.9.1 1.2.4c.3.3.5.7.5 1.1 0 .5-.2.8-.5 1.1s-.7.4-1.2.4-.9-.1-1.2-.4-.4-.7-.4-1.1zm3.2 13.9h-3V31.3h3v11.1zM137.7 31.3l.1 1.3c.8-1 1.9-1.5 3.2-1.5 1.2 0 2 .3 2.6 1 .6.7.9 1.7.9 3.1v7.2h-3v-7.1c0-.6-.1-1.1-.4-1.4-.3-.3-.7-.4-1.4-.4-.8 0-1.5.4-1.9 1.1v7.8h-3V31.3h2.9zM146.3 36.8c0-1.7.4-3.1 1.2-4.1.8-1 1.8-1.5 3.2-1.5 1.1 0 2 .4 2.7 1.2v-5.7h3v15.7h-2.7l-.1-1.2c-.7.9-1.7 1.4-2.8 1.4-1.3 0-2.3-.5-3.1-1.5-1-1.1-1.4-2.5-1.4-4.3zm2.9.2c0 1 .2 1.8.5 2.4.4.6.9.8 1.6.8.9 0 1.6-.4 1.9-1.2v-4.4c-.4-.8-1-1.2-1.9-1.2-1.3.1-2.1 1.3-2.1 3.6zM163.3 36.8c0-1.1.2-2.1.6-2.9.4-.9 1-1.5 1.8-2s1.7-.7 2.8-.7c1.5 0 2.7.5 3.7 1.4s1.5 2.2 1.6 3.7v.8c0 1.7-.5 3.1-1.4 4.1-.9 1-2.2 1.5-3.8 1.5-1.6 0-2.9-.5-3.8-1.5-1-1-1.4-2.4-1.4-4.2v-.2zm3 .2c0 1.1.2 1.9.6 2.4.4.6 1 .8 1.7.8s1.3-.3 1.7-.8c.4-.6.6-1.4.6-2.6 0-1-.2-1.8-.6-2.4-.4-.6-1-.9-1.7-.9s-1.3.3-1.7.8c-.4.6-.6 1.5-.6 2.7zM182.3 41.3c-.7.9-1.7 1.3-3 1.3-1.2 0-2.1-.3-2.7-1-.6-.7-.9-1.7-1-3v-7.3h3v7.2c0 1.2.5 1.7 1.6 1.7 1 0 1.7-.3 2.1-1v-7.9h3v11.1h-2.8l-.2-1.1zM190.9 28.6v2.7h1.9v2.2h-1.9V39c0 .4.1.7.2.9.2.2.5.3.9.3.3 0 .6 0 .9-.1v2.2c-.6.2-1.2.3-1.8.3-2.1 0-3.1-1-3.2-3.1v-6h-1.6v-2.2h1.6v-2.7h3zM199.7 28.5c0-.4.1-.8.4-1.1s.7-.4 1.2-.4.9.1 1.2.4c.3.3.5.7.5 1.1 0 .5-.2.8-.5 1.1s-.7.4-1.2.4-.9-.1-1.2-.4-.4-.7-.4-1.1zm3.1 13.9h-3V31.3h3v11.1zM206 42.4v-8.9h-1.6v-2.2h1.6v-.9c0-1.2.4-2.2 1.1-2.9s1.7-1 3-1c.4 0 .9.1 1.5.2V29c-.2-.1-.5-.1-.9-.1-1.1 0-1.7.5-1.7 1.6v.9h2.2v2.2H209v8.9h-3zM222.1 38.2l2-6.9h3.2l-4.5 12.8-.2.6c-.7 1.4-1.8 2.2-3.3 2.2-.4 0-.9-.1-1.3-.2v-2.2h.5c.6 0 1-.1 1.3-.3.3-.2.5-.5.7-.8l.3-.9-3.9-11.1h3.2l2 6.8zM228 36.8c0-1.1.2-2.1.6-2.9.4-.9 1-1.5 1.8-2s1.7-.7 2.8-.7c1.5 0 2.7.5 3.7 1.4s1.5 2.2 1.6 3.7v.8c0 1.7-.5 3.1-1.4 4.1-.9 1-2.2 1.5-3.8 1.5-1.6 0-2.9-.5-3.8-1.5-1-1-1.4-2.4-1.4-4.2v-.2zm3 .2c0 1.1.2 1.9.6 2.4.4.6 1 .8 1.7.8s1.3-.3 1.7-.8c.4-.6.6-1.4.6-2.6 0-1-.2-1.8-.6-2.4-.4-.6-1-.9-1.7-.9s-1.3.3-1.7.8c-.4.6-.6 1.5-.6 2.7zM247 41.3c-.7.9-1.7 1.3-3 1.3-1.2 0-2.1-.3-2.7-1-.6-.7-.9-1.7-1-3v-7.3h3v7.2c0 1.2.5 1.7 1.6 1.7 1 0 1.7-.3 2.1-1v-7.9h3v11.1h-2.8l-.2-1.1zM258.3 34.1c-.4-.1-.8-.1-1.1-.1-1.1 0-1.9.4-2.2 1.1v7.2h-3v-11h2.8l.1 1.3c.6-1 1.4-1.5 2.5-1.5.3 0 .6 0 .9.1v2.9z"/><path class="st1" d="M269.6 40.2c.5 0 1-.1 1.3-.5.3-.3.5-.7.5-1.2h2.8c0 .8-.2 1.4-.6 2.1-.4.6-1 1.1-1.7 1.5-.7.3-1.5.5-2.3.5-1.6 0-2.8-.5-3.7-1.5-.9-1-1.4-2.4-1.4-4.2v-.2c0-1.7.5-3.1 1.4-4.1.9-1 2.2-1.5 3.7-1.5 1.4 0 2.5.4 3.3 1.2.8.8 1.3 1.8 1.3 3.1h-2.8c0-.6-.2-1-.5-1.4-.3-.4-.8-.5-1.4-.5-.7 0-1.2.3-1.6.8s-.5 1.3-.5 2.4v.3c0 1.1.2 2 .5 2.5.4.5.9.7 1.7.7zM282.1 34.1c-.4-.1-.8-.1-1.1-.1-1.1 0-1.9.4-2.2 1.1v7.2h-3v-11h2.8l.1 1.3c.6-1 1.4-1.5 2.5-1.5.3 0 .6 0 .9.1v2.9zM288.6 42.6c-1.6 0-2.9-.5-4-1.5-1-1-1.5-2.3-1.5-4v-.3c0-1.1.2-2.1.6-3s1-1.6 1.8-2c.8-.5 1.7-.7 2.7-.7 1.5 0 2.7.5 3.6 1.4.9 1 1.3 2.3 1.3 4.1v1.2H286c.1.7.4 1.3.9 1.7.5.4 1.1.7 1.8.7 1.1 0 2-.4 2.7-1.2l1.5 1.6c-.4.6-1 1.1-1.8 1.5-.7.3-1.6.5-2.5.5zm-.3-9.1c-.6 0-1.1.2-1.4.6-.4.4-.6 1-.7 1.7h4.1v-.2c0-.7-.2-1.2-.5-1.5-.4-.4-.9-.6-1.5-.6zM294.4 36.8c0-1.7.4-3.1 1.2-4.1.8-1 1.8-1.5 3.2-1.5 1.1 0 2 .4 2.7 1.2v-5.7h3v15.7h-2.7l-.1-1.2c-.7.9-1.7 1.4-2.8 1.4-1.3 0-2.3-.5-3.1-1.5-1-1.1-1.4-2.5-1.4-4.3zm3 .2c0 1 .2 1.8.5 2.4.4.6.9.8 1.6.8.9 0 1.6-.4 1.9-1.2v-4.4c-.4-.8-1-1.2-1.9-1.2-1.4.1-2.1 1.3-2.1 3.6zM306.7 28.5c0-.4.1-.8.4-1.1s.7-.4 1.2-.4.9.1 1.2.4c.3.3.5.7.5 1.1 0 .5-.2.8-.5 1.1s-.7.4-1.2.4-.9-.1-1.2-.4-.4-.7-.4-1.1zm3.1 13.9h-3V31.3h3v11.1zM315.8 28.6v2.7h1.9v2.2h-1.9V39c0 .4.1.7.2.9.2.2.5.3.9.3.3 0 .6 0 .9-.1v2.2c-.6.2-1.2.3-1.8.3-2.1 0-3.1-1-3.2-3.1v-6h-1.6v-2.2h1.6v-2.7h3zM330.5 39.3c0-.4-.2-.6-.5-.9-.4-.2-.9-.4-1.7-.6-2.6-.6-4-1.7-4-3.4 0-1 .4-1.8 1.2-2.5s1.9-1 3.2-1c1.4 0 2.5.3 3.4 1 .8.7 1.3 1.5 1.3 2.6h-3c0-.4-.1-.8-.4-1-.3-.3-.7-.4-1.3-.4-.5 0-.9.1-1.2.3-.3.2-.4.5-.4.9 0 .3.2.6.5.8.3.2.8.4 1.6.5.7.1 1.4.3 1.9.5 1.6.6 2.3 1.6 2.3 3 0 1-.4 1.8-1.3 2.5-.9.6-2 .9-3.4.9-.9 0-1.8-.2-2.5-.5s-1.3-.8-1.7-1.4-.6-1.2-.6-1.9h2.8c0 .5.2.9.6 1.2.4.3.8.4 1.5.4.6 0 1-.1 1.3-.3s.4-.3.4-.7zM339.9 40.2c.5 0 1-.1 1.3-.5.3-.3.5-.7.5-1.2h2.8c0 .8-.2 1.4-.6 2.1-.4.6-1 1.1-1.7 1.5-.7.3-1.5.5-2.3.5-1.6 0-2.8-.5-3.7-1.5-.9-1-1.4-2.4-1.4-4.2v-.2c0-1.7.5-3.1 1.4-4.1.9-1 2.2-1.5 3.7-1.5 1.4 0 2.5.4 3.3 1.2.8.8 1.3 1.8 1.3 3.1h-2.8c0-.6-.2-1-.5-1.4-.3-.4-.8-.5-1.4-.5-.7 0-1.2.3-1.6.8s-.5 1.3-.5 2.4v.3c0 1.1.2 2 .5 2.5.5.5 1 .7 1.7.7zM345.8 36.8c0-1.1.2-2.1.6-2.9.4-.9 1-1.5 1.8-2s1.7-.7 2.8-.7c1.5 0 2.7.5 3.7 1.4s1.5 2.2 1.6 3.7v.8c0 1.7-.5 3.1-1.4 4.1-.9 1-2.2 1.5-3.8 1.5-1.6 0-2.9-.5-3.8-1.5-1-1-1.4-2.4-1.4-4.2v-.2zm2.9.2c0 1.1.2 1.9.6 2.4.4.6 1 .8 1.7.8s1.3-.3 1.7-.8c.4-.6.6-1.4.6-2.6 0-1-.2-1.8-.6-2.4-.4-.6-1-.9-1.7-.9s-1.3.3-1.7.8c-.4.6-.6 1.5-.6 2.7zM364.3 34.1c-.4-.1-.8-.1-1.1-.1-1.1 0-1.9.4-2.2 1.1v7.2h-3v-11h2.8l.1 1.3c.6-1 1.4-1.5 2.5-1.5.3 0 .6 0 .9.1v2.9zM370.9 42.6c-1.6 0-2.9-.5-4-1.5-1-1-1.5-2.3-1.5-4v-.3c0-1.1.2-2.1.6-3s1-1.6 1.8-2c.8-.5 1.7-.7 2.7-.7 1.5 0 2.7.5 3.6 1.4.9 1 1.3 2.3 1.3 4.1v1.2h-7.1c.1.7.4 1.3.9 1.7.5.4 1.1.7 1.8.7 1.1 0 2-.4 2.7-1.2l1.5 1.6c-.4.6-1 1.1-1.8 1.5-.8.3-1.6.5-2.5.5zm-.4-9.1c-.6 0-1.1.2-1.4.6-.4.4-.6 1-.7 1.7h4.1v-.2c0-.7-.2-1.2-.5-1.5-.4-.4-.9-.6-1.5-.6z"/><path class="st0" d="M120.8 57.7c.8-.9 1.8-1.4 3-1.4 2.4 0 3.6 1.4 3.7 4.2v7.1h-3v-7c0-.6-.1-1.1-.4-1.4-.3-.3-.7-.5-1.4-.5-.9 0-1.5.3-1.9 1v7.9h-3V51.8h3v5.9zM136.1 67.6c-.1-.3-.2-.6-.3-1-.7.8-1.6 1.2-2.8 1.2-1.1 0-2-.3-2.7-.9-.7-.6-1.1-1.4-1.1-2.4 0-1.2.4-2.1 1.3-2.7s2.1-.9 3.8-1h1.4v-.6c0-.5-.1-.9-.4-1.2-.3-.3-.7-.5-1.2-.5s-.9.1-1.2.4c-.3.2-.4.6-.4 1h-3c0-.6.2-1.2.6-1.8.4-.5 1-1 1.7-1.3.7-.3 1.5-.5 2.4-.5 1.4 0 2.4.3 3.2 1 .8.7 1.2 1.6 1.2 2.9V65c0 1.1.2 1.8.4 2.4v.2h-2.9zm-2.4-2.1c.4 0 .8-.1 1.2-.3.4-.2.6-.5.8-.8v-1.9h-1.1c-1.5 0-2.3.5-2.4 1.5v.2c0 .4.1.7.4.9.3.3.6.4 1.1.4zM146.9 64.5c0-.4-.2-.6-.5-.9-.4-.2-.9-.4-1.7-.6-2.6-.6-4-1.7-4-3.4 0-1 .4-1.8 1.2-2.5.8-.7 1.9-1 3.2-1 1.4 0 2.5.3 3.4 1s1.3 1.5 1.3 2.6h-3c0-.4-.1-.8-.4-1-.3-.3-.7-.4-1.3-.4-.5 0-.9.1-1.2.3-.3.2-.4.5-.4.9 0 .3.2.6.5.8.3.2.8.4 1.6.5s1.4.3 1.9.5c1.6.6 2.3 1.6 2.3 3 0 1-.4 1.8-1.3 2.5-.9.6-2 .9-3.4.9-.9 0-1.8-.2-2.5-.5s-1.3-.8-1.7-1.4c-.4-.6-.6-1.2-.6-1.9h2.8c0 .5.2.9.6 1.2.4.3.8.4 1.5.4.6 0 1-.1 1.3-.3s.4-.4.4-.7zM161.5 65.4c.5 0 1-.1 1.3-.5.3-.3.5-.7.5-1.2h2.8c0 .8-.2 1.4-.6 2.1-.4.6-1 1.1-1.7 1.5-.7.3-1.5.5-2.3.5-1.6 0-2.8-.5-3.7-1.5-.9-1-1.4-2.4-1.4-4.2v-.2c0-1.7.5-3.1 1.4-4.1s2.2-1.5 3.7-1.5c1.4 0 2.5.4 3.3 1.2.8.8 1.3 1.8 1.3 3.1h-2.8c0-.6-.2-1-.5-1.4-.3-.4-.8-.5-1.4-.5-.7 0-1.2.3-1.6.8-.4.5-.5 1.3-.5 2.4v.3c0 1.1.2 2 .5 2.5.5.4 1 .7 1.7.7zM170.8 57.7c.8-.9 1.8-1.4 3-1.4 2.4 0 3.6 1.4 3.7 4.2v7.1h-3v-7c0-.6-.1-1.1-.4-1.4-.3-.3-.7-.5-1.4-.5-.9 0-1.5.3-1.9 1v7.9h-3V51.8h3v5.9zM186 67.6c-.1-.3-.2-.6-.3-1-.7.8-1.6 1.2-2.8 1.2-1.1 0-2-.3-2.7-.9-.7-.6-1.1-1.4-1.1-2.4 0-1.2.4-2.1 1.3-2.7s2.1-.9 3.8-1h1.4v-.6c0-.5-.1-.9-.4-1.2-.3-.3-.7-.5-1.2-.5s-.9.1-1.2.4c-.3.2-.4.6-.4 1h-3c0-.6.2-1.2.6-1.8.4-.5 1-1 1.7-1.3.7-.3 1.5-.5 2.4-.5 1.4 0 2.4.3 3.2 1 .8.7 1.2 1.6 1.2 2.9V65c0 1.1.2 1.8.4 2.4v.2H186zm-2.4-2.1c.4 0 .8-.1 1.2-.3.4-.2.6-.5.8-.8v-1.9h-1.1c-1.5 0-2.3.5-2.4 1.5v.2c0 .4.1.7.4.9.3.3.6.4 1.1.4zM193.6 56.5l.1 1.3c.8-1 1.9-1.5 3.2-1.5 1.2 0 2 .3 2.6 1s.9 1.7.9 3.1v7.2h-3v-7.1c0-.6-.1-1.1-.4-1.4-.3-.3-.7-.4-1.4-.4-.8 0-1.5.4-1.9 1.1v7.8h-3V56.5h2.9zM202.2 61.9c0-1.7.4-3.1 1.2-4.1.8-1 1.9-1.6 3.3-1.6 1.2 0 2.2.4 2.8 1.2l.1-1h2.7v10.7c0 1-.2 1.8-.7 2.5s-1.1 1.3-1.9 1.6c-.8.4-1.7.6-2.8.6-.8 0-1.6-.2-2.4-.5-.8-.3-1.4-.7-1.8-1.3l1.3-1.8c.7.8 1.6 1.2 2.7 1.2.8 0 1.4-.2 1.8-.6.4-.4.7-1 .7-1.8v-.6c-.7.8-1.6 1.2-2.7 1.2-1.3 0-2.4-.5-3.2-1.6-.8-1-1.2-2.4-1.2-4.1zm2.9.3c0 1 .2 1.8.6 2.4.4.6 1 .9 1.7.9.9 0 1.5-.3 1.9-1v-4.7c-.4-.7-1-1-1.9-1-.7 0-1.3.3-1.7.9-.4.4-.6 1.3-.6 2.5zM219.6 67.8c-1.6 0-2.9-.5-4-1.5-1-1-1.5-2.3-1.5-4V62c0-1.1.2-2.1.6-3s1-1.6 1.8-2c.8-.5 1.7-.7 2.7-.7 1.5 0 2.7.5 3.6 1.4.9 1 1.3 2.3 1.3 4.1V63H217c.1.7.4 1.3.9 1.7.5.4 1.1.7 1.8.7 1.1 0 2-.4 2.7-1.2l1.5 1.6c-.4.6-1 1.1-1.8 1.5s-1.5.5-2.5.5zm-.3-9.1c-.6 0-1.1.2-1.4.6-.4.4-.6 1-.7 1.7h4.1v-.2c0-.7-.2-1.2-.5-1.5-.4-.5-.9-.6-1.5-.6zM225.4 61.9c0-1.7.4-3.1 1.2-4.1.8-1 1.8-1.5 3.2-1.5 1.1 0 2 .4 2.7 1.2v-5.7h3v15.7h-2.7l-.1-1.2c-.7.9-1.7 1.4-2.8 1.4-1.3 0-2.3-.5-3.1-1.5-1-1-1.4-2.4-1.4-4.3zm3 .3c0 1 .2 1.8.5 2.4s.9.8 1.6.8c.9 0 1.6-.4 1.9-1.2v-4.4c-.4-.8-1-1.2-1.9-1.2-1.4.1-2.1 1.2-2.1 3.6zM237.9 66.1c0-.5.2-.9.5-1.1.3-.3.7-.4 1.2-.4s.9.1 1.2.4c.3.3.5.7.5 1.1 0 .5-.2.8-.5 1.1-.3.3-.7.4-1.2.4s-.9-.1-1.2-.4-.5-.6-.5-1.1z"/></svg>