<svg id="Layer_1" xmlns="http://www.w3.org/2000/svg" viewBox="0 0 728 90"><style>.st0{fill:#2a3380}</style><path class="st0" d="M418.9 34.5h-4.3V38h5v1.1h-6.3v-10h6.3v1.1h-4.9v3.2h4.3v1.1zM422.2 31.8v.9c.6-.7 1.3-1.1 2.2-1.1 1.6 0 2.4.9 2.4 2.6v4.9h-1.3v-4.9c0-.5-.1-.9-.4-1.2-.2-.3-.6-.4-1.1-.4-.4 0-.8.1-1.1.3s-.6.5-.7.9v5.3H421v-7.4h1.2zM432.3 32.9h-.6c-.8 0-1.4.4-1.7 1.1v5.2h-1.3v-7.4h1.2v.9c.4-.7 1-1 1.8-1 .2 0 .4 0 .6.1v1.1zM433 35.4c0-.7.1-1.4.4-2 .3-.6.7-1 1.2-1.3.5-.3 1.1-.5 1.7-.5 1 0 1.8.3 2.4 1 .6.7.9 1.6.9 2.8v.1c0 .7-.1 1.4-.4 1.9-.3.6-.7 1-1.2 1.3-.5.3-1.1.5-1.8.5-1 0-1.8-.3-2.4-1-.5-.7-.8-1.6-.8-2.8zm1.3.1c0 .8.2 1.5.6 2 .4.5.9.7 1.5.7s1.2-.3 1.5-.8.6-1.2.6-2.1c0-.8-.2-1.5-.6-2-.4-.5-.9-.8-1.5-.8s-1.1.2-1.5.7-.6 1.4-.6 2.3zM442.7 39.1h-1.3V28.6h1.3v10.5zM446.1 39.1h-1.3V28.6h1.3v10.5zM451.6 29.8c0-.2.1-.4.2-.5.1-.1.3-.2.6-.2s.4.1.6.2.2.3.2.5-.1.4-.2.5-.3.2-.6.2-.4-.1-.6-.2c-.1-.1-.2-.3-.2-.5zm1.4 9.3h-1.3v-7.4h1.3v7.4zM456.2 31.8v.9c.6-.7 1.3-1.1 2.2-1.1 1.6 0 2.4.9 2.4 2.6v4.9h-1.3v-4.9c0-.5-.1-.9-.4-1.2-.2-.3-.6-.4-1.1-.4-.4 0-.8.1-1.1.3s-.6.5-.7.9v5.3H455v-7.4h1.2zM467.7 35.3v3.9h-1.3v-10h3.7c1.1 0 1.9.3 2.6.8.6.6.9 1.3.9 2.2 0 1-.3 1.7-.9 2.2-.6.5-1.5.8-2.6.8h-2.4zm0-1.1h2.4c.7 0 1.2-.2 1.6-.5.4-.3.6-.8.6-1.4 0-.6-.2-1.1-.6-1.4s-.9-.5-1.5-.6h-2.4v3.9zM478.6 32.9h-.6c-.8 0-1.4.4-1.7 1.1v5.2H475v-7.4h1.2v.9c.4-.7 1-1 1.8-1 .2 0 .4 0 .6.1v1.1zM479.8 29.8c0-.2.1-.4.2-.5.1-.1.3-.2.6-.2s.4.1.6.2.2.3.2.5-.1.4-.2.5-.3.2-.6.2-.4-.1-.6-.2c-.2-.1-.2-.3-.2-.5zm1.3 9.3h-1.3v-7.4h1.3v7.4zM485.6 37.4l1.8-5.7h1.3l-2.7 7.4h-1l-2.7-7.4h1.3l2 5.7zM494.4 39.1c-.1-.1-.1-.4-.2-.8-.6.6-1.3.9-2.1.9-.7 0-1.3-.2-1.8-.6-.5-.4-.7-.9-.7-1.6 0-.8.3-1.4.9-1.8.6-.4 1.4-.6 2.5-.6h1.2V34c0-.4-.1-.8-.4-1.1s-.7-.4-1.2-.4-.8.1-1.1.3-.5.5-.5.8h-1.3c0-.4.1-.7.4-1.1.3-.3.6-.6 1.1-.8.4-.2.9-.3 1.5-.3.9 0 1.5.2 2 .6s.7 1 .8 1.8v3.4c0 .7.1 1.2.3 1.6v.1h-1.4zm-2.1-.9c.4 0 .8-.1 1.1-.3s.6-.5.8-.8v-1.5h-1c-1.5 0-2.3.5-2.3 1.4 0 .4.1.7.4.9s.6.3 1 .3zM500.4 38.3c.5 0 .8-.1 1.2-.4s.5-.6.6-1h1.2c0 .4-.2.8-.4 1.2s-.6.7-1.1.9c-.4.2-.9.3-1.4.3-1 0-1.8-.3-2.4-1-.6-.7-.9-1.6-.9-2.8v-.2c0-.7.1-1.4.4-1.9s.6-1 1.1-1.3c.5-.3 1.1-.5 1.8-.5.8 0 1.5.2 2.1.7.5.5.8 1.1.9 1.9h-1.2c0-.5-.2-.9-.5-1.2-.3-.3-.7-.5-1.2-.5-.6 0-1.1.2-1.5.7-.4.5-.5 1.1-.5 2v.2c0 .9.2 1.5.5 2s.7.9 1.3.9zM507.2 37.3l1.7-5.5h1.4l-3 8.5c-.5 1.2-1.2 1.8-2.2 1.8h-.2l-.5-.1v-1h.3c.4 0 .8-.1 1-.3.2-.2.4-.5.6-1l.3-.8-2.6-7.3h1.4l1.8 5.7zM519 37.8c-.3.5-.8.8-1.4 1.1-.6.2-1.3.4-2.1.4s-1.5-.2-2.2-.6-1.1-.9-1.5-1.6c-.3-.7-.5-1.5-.5-2.4v-.9c0-1.5.3-2.7 1-3.5.7-.8 1.7-1.2 3-1.2 1 0 1.9.3 2.5.8s1 1.3 1.2 2.3h-1.3c-.2-1.3-1-2-2.4-2-.9 0-1.5.3-2 .9-.5.6-.7 1.5-.7 2.7v.8c0 1.1.3 2 .8 2.7.5.7 1.2 1 2.1 1 .5 0 .9-.1 1.3-.2s.7-.3.9-.6v-2.2h-2.3v-1.1h3.6v3.6zM525.5 38.4c-.5.6-1.2.9-2.2.9-.8 0-1.4-.2-1.8-.7-.4-.5-.6-1.1-.6-2v-4.8h1.3v4.8c0 1.1.5 1.7 1.4 1.7 1 0 1.6-.4 1.9-1.1v-5.4h1.3v7.4h-1.2l-.1-.8zM533.2 39.1c-.1-.1-.1-.4-.2-.8-.6.6-1.3.9-2.1.9-.7 0-1.3-.2-1.8-.6-.5-.4-.7-.9-.7-1.6 0-.8.3-1.4.9-1.8.6-.4 1.4-.6 2.5-.6h1.2V34c0-.4-.1-.8-.4-1.1s-.7-.4-1.2-.4-.8.1-1.1.3-.5.5-.5.8h-1.3c0-.4.1-.7.4-1.1.3-.3.6-.6 1.1-.8.4-.2.9-.3 1.5-.3.9 0 1.5.2 2 .6s.7 1 .8 1.8v3.4c0 .7.1 1.2.3 1.6v.1h-1.4zm-2.1-.9c.4 0 .8-.1 1.1-.3s.6-.5.8-.8v-1.5h-1c-1.5 0-2.3.5-2.3 1.4 0 .4.1.7.4.9s.6.3 1 .3zM539.9 32.9h-.6c-.8 0-1.4.4-1.7 1.1v5.2h-1.3v-7.4h1.2v.9c.4-.7 1-1 1.8-1 .2 0 .4 0 .6.1v1.1zM540.7 35.4c0-1.1.3-2 .8-2.7s1.2-1 2.1-1c.9 0 1.6.3 2.1.9v-3.9h1.3v10.5h-1.2l-.1-.8c-.5.6-1.2.9-2.1.9-.9 0-1.6-.4-2.1-1.1-.5-.7-.8-1.6-.8-2.8zm1.3.1c0 .8.2 1.5.5 2s.8.7 1.4.7c.8 0 1.4-.4 1.8-1.1v-3.4c-.4-.7-1-1-1.7-1-.6 0-1.1.2-1.4.7s-.6 1.2-.6 2.1zM553 39.1v-6.4h-1.2v-1h1.2V31c0-.8.2-1.4.6-1.8s1-.6 1.8-.6c.3 0 .6 0 .9.1l-.1 1c-.2 0-.4-.1-.7-.1-.4 0-.7.1-1 .4-.2.2-.3.6-.3 1v.8h1.6v1h-1.6v6.4H553zM556.9 35.4c0-.7.1-1.4.4-2 .3-.6.7-1 1.2-1.3.5-.3 1.1-.5 1.7-.5 1 0 1.8.3 2.4 1 .6.7.9 1.6.9 2.8v.1c0 .7-.1 1.4-.4 1.9-.3.6-.7 1-1.2 1.3-.5.3-1.1.5-1.8.5-1 0-1.8-.3-2.4-1-.5-.7-.8-1.6-.8-2.8zm1.3.1c0 .8.2 1.5.6 2 .4.5.9.7 1.5.7s1.2-.3 1.5-.8.6-1.2.6-2.1c0-.8-.2-1.5-.6-2-.4-.5-.9-.8-1.5-.8s-1.1.2-1.5.7-.6 1.4-.6 2.3zM568.8 32.9h-.6c-.8 0-1.4.4-1.7 1.1v5.2h-1.3v-7.4h1.2v.9c.4-.7 1-1 1.8-1 .2 0 .4 0 .6.1v1.1zM419.5 60.1H413v-.9l3.4-3.8c.5-.6.9-1 1.1-1.4.2-.4.3-.7.3-1.1 0-.5-.2-.9-.5-1.3-.3-.3-.7-.5-1.3-.5-.6 0-1.1.2-1.5.5-.3.4-.5.9-.5 1.5h-1.3c0-.9.3-1.7.9-2.2.6-.6 1.4-.8 2.4-.8.9 0 1.7.2 2.2.7s.8 1.1.8 1.9c0 1-.6 2.1-1.9 3.5l-2.7 2.9h5v1zM426.2 56.8h1.4v1h-1.4v2.3h-1.3v-2.3h-4.5v-.7l4.5-6.9h1.3v6.6zm-4.4 0h3.1v-4.9l-.2.3-2.9 4.6zM429.1 61H428l4.2-10.8h1.1L429.1 61zM440.9 50.9l-4.1 9.2h-1.3l4.1-8.9h-5.4v-1h6.7v.7zM448.9 59.3c.5 0 .8-.1 1.2-.4s.5-.6.6-1h1.2c0 .4-.2.8-.4 1.2s-.6.7-1.1.9c-.4.2-.9.3-1.4.3-1 0-1.8-.3-2.4-1-.6-.7-.9-1.6-.9-2.8v-.2c0-.7.1-1.4.4-1.9s.6-1 1.1-1.3c.5-.3 1.1-.5 1.8-.5.8 0 1.5.2 2.1.7.5.5.8 1.1.9 1.9h-1.2c0-.5-.2-.9-.5-1.2-.3-.3-.7-.5-1.2-.5-.6 0-1.1.2-1.5.7-.4.5-.5 1.1-.5 2v.2c0 .9.2 1.5.5 2 .1.6.6.9 1.3.9zM456.8 53.9h-.6c-.8 0-1.4.4-1.7 1.1v5.2h-1.3v-7.4h1.2v.9c.4-.7 1-1 1.8-1 .2 0 .4 0 .6.1v1.1zM461 60.3c-1 0-1.8-.3-2.4-1-.6-.7-.9-1.5-.9-2.6v-.2c0-.7.1-1.4.4-2 .3-.6.7-1 1.2-1.4.5-.3 1-.5 1.6-.5 1 0 1.7.3 2.2 1 .5.6.8 1.5.8 2.7v.5h-5c0 .7.2 1.3.6 1.8.4.4.9.7 1.6.7.4 0 .8-.1 1.1-.3.3-.2.6-.4.8-.7l.8.6c-.6.9-1.5 1.4-2.8 1.4zm-.1-6.6c-.5 0-.9.2-1.3.6-.3.4-.6.9-.6 1.6h3.7v-.1c0-.6-.2-1.1-.5-1.5-.4-.5-.8-.6-1.3-.6zM465.1 56.4c0-1.1.3-2 .8-2.7s1.2-1 2.1-1c.9 0 1.6.3 2.1.9v-3.9h1.3v10.5h-1.2l-.1-.8c-.5.6-1.2.9-2.1.9-.9 0-1.6-.4-2.1-1.1-.6-.7-.8-1.6-.8-2.8zm1.2.1c0 .8.2 1.5.5 2s.8.7 1.4.7c.8 0 1.4-.4 1.8-1.1v-3.4c-.4-.7-1-1-1.7-1-.6 0-1.1.2-1.4.7s-.6 1.2-.6 2.1zM473.3 50.8c0-.2.1-.4.2-.5.1-.1.3-.2.6-.2s.4.1.6.2c.1.1.2.3.2.5s-.1.4-.2.5-.3.2-.6.2-.4-.1-.6-.2c-.2-.1-.2-.3-.2-.5zm1.4 9.3h-1.3v-7.4h1.3v7.4zM478.4 51v1.8h1.4v1h-1.4v4.6c0 .3.1.5.2.7.1.1.3.2.6.2.1 0 .3 0 .6-.1v1c-.3.1-.7.1-1 .1-.6 0-1-.2-1.3-.5s-.4-.8-.4-1.5v-4.6h-1.3v-1h1.3V51h1.3zM485.9 52.8v.8c.5-.6 1.3-1 2.2-1 1 0 1.7.4 2.1 1.2.2-.4.6-.6 1-.9.4-.2.9-.3 1.4-.3 1.6 0 2.4.9 2.5 2.6v5h-1.3v-4.9c0-.5-.1-.9-.4-1.2-.2-.3-.6-.4-1.2-.4-.5 0-.9.1-1.2.4s-.5.7-.5 1.1v4.9h-1.3v-4.8c0-1.1-.5-1.6-1.6-1.6-.8 0-1.4.4-1.7 1.1v5.4h-1.3v-7.4h1.3zM496.6 56.4c0-.7.1-1.4.4-2 .3-.6.7-1 1.2-1.3.5-.3 1.1-.5 1.7-.5 1 0 1.8.3 2.4 1 .6.7.9 1.6.9 2.8v.1c0 .7-.1 1.4-.4 1.9-.3.6-.7 1-1.2 1.3-.5.3-1.1.5-1.8.5-1 0-1.8-.3-2.4-1-.4-.7-.8-1.6-.8-2.8zm1.3.1c0 .8.2 1.5.6 2 .4.5.9.7 1.5.7s1.2-.3 1.5-.8c.4-.5.6-1.2.6-2.1 0-.8-.2-1.5-.6-2-.4-.5-.9-.8-1.5-.8s-1.1.2-1.5.7c-.4.7-.6 1.4-.6 2.3zM506.2 52.8v.9c.6-.7 1.3-1.1 2.2-1.1 1.6 0 2.4.9 2.4 2.6v4.9h-1.3v-4.9c0-.5-.1-.9-.4-1.2-.2-.3-.6-.4-1.1-.4-.4 0-.8.1-1.1.3s-.6.5-.7.9v5.3H505v-7.4h1.2zM512.7 50.8c0-.2.1-.4.2-.5.1-.1.3-.2.6-.2s.4.1.6.2c.1.1.2.3.2.5s-.1.4-.2.5-.3.2-.6.2-.4-.1-.6-.2c-.1-.1-.2-.3-.2-.5zm1.4 9.3h-1.3v-7.4h1.3v7.4zM517.8 51v1.8h1.4v1h-1.4v4.6c0 .3.1.5.2.7.1.1.3.2.6.2.1 0 .3 0 .6-.1v1c-.3.1-.7.1-1 .1-.6 0-1-.2-1.3-.5s-.4-.8-.4-1.5v-4.6h-1.3v-1h1.3V51h1.3zM520.2 56.4c0-.7.1-1.4.4-2 .3-.6.7-1 1.2-1.3.5-.3 1.1-.5 1.7-.5 1 0 1.8.3 2.4 1 .6.7.9 1.6.9 2.8v.1c0 .7-.1 1.4-.4 1.9-.3.6-.7 1-1.2 1.3-.5.3-1.1.5-1.8.5-1 0-1.8-.3-2.4-1-.5-.7-.8-1.6-.8-2.8zm1.3.1c0 .8.2 1.5.6 2 .4.5.9.7 1.5.7s1.2-.3 1.5-.8c.4-.5.6-1.2.6-2.1 0-.8-.2-1.5-.6-2-.4-.5-.9-.8-1.5-.8s-1.1.2-1.5.7c-.4.7-.6 1.4-.6 2.3zM532.1 53.9h-.6c-.8 0-1.4.4-1.7 1.1v5.2h-1.3v-7.4h1.2v.9c.4-.7 1-1 1.8-1 .2 0 .4 0 .6.1v1.1zM533.3 50.8c0-.2.1-.4.2-.5.1-.1.3-.2.6-.2s.4.1.6.2c.1.1.2.3.2.5s-.1.4-.2.5-.3.2-.6.2-.4-.1-.6-.2c-.2-.1-.2-.3-.2-.5zm1.3 9.3h-1.3v-7.4h1.3v7.4zM537.8 52.8v.9c.6-.7 1.3-1.1 2.2-1.1 1.6 0 2.4.9 2.4 2.6v4.9h-1.3v-4.9c0-.5-.1-.9-.4-1.2-.2-.3-.6-.4-1.1-.4-.4 0-.8.1-1.1.3s-.6.5-.7.9v5.3h-1.3v-7.4h1.3zM544.1 56.4c0-1.2.3-2.1.8-2.8.5-.7 1.2-1 2.1-1 .9 0 1.6.3 2.1 1l.1-.8h1.2V60c0 1-.3 1.7-.9 2.3-.6.6-1.3.8-2.3.8-.5 0-1.1-.1-1.6-.3-.5-.2-.9-.5-1.2-.9l.7-.8c.5.7 1.2 1 2 1 .6 0 1.1-.2 1.4-.5.3-.3.5-.8.5-1.5v-.6c-.5.6-1.2.9-2.1.9-.9 0-1.6-.3-2.1-1-.5-.9-.7-1.8-.7-3zm1.2.1c0 .8.2 1.5.5 2s.8.7 1.4.7c.8 0 1.4-.4 1.8-1.1v-3.4c-.4-.7-1-1.1-1.7-1.1-.6 0-1.1.2-1.4.7s-.6 1.3-.6 2.2zM552.3 59.5c0-.2.1-.4.2-.5.1-.1.3-.2.6-.2s.5.1.6.2c.1.1.2.3.2.5s-.1.4-.2.5c-.1.1-.3.2-.6.2s-.5-.1-.6-.2c-.2-.1-.2-.3-.2-.5z"/></svg>