<svg id="Layer_1" xmlns="http://www.w3.org/2000/svg" viewBox="0 0 728 90"><style>.st0{fill:#e72f8a;stroke:url(#SVGID_1_);stroke-width:.9465;stroke-miterlimit:10}.st1{fill:#fff}</style><linearGradient id="SVGID_1_" gradientUnits="userSpaceOnUse" x1="618.525" y1="60.926" x2="686.481" y2="60.926"><stop offset="0" stop-color="#41b5e8"/><stop offset=".5" stop-color="#6a53a3"/><stop offset="1" stop-color="#e72e8a"/></linearGradient><path class="st0" d="M672.7 74.2h-40.4c-7.4 0-13.3-6-13.3-13.3 0-7.4 6-13.3 13.3-13.3h40.4c7.4 0 13.3 6 13.3 13.3 0 7.4-6 13.3-13.3 13.3z"/><path class="st1" d="M634.9 57.9h-2.5v6.7h-1.7v-6.7h-2.4v-1.4h6.6v1.4zM638.7 60.1h-.6c-.6 0-1 .2-1.2.6v3.9h-1.6v-6h1.5v.7c.3-.6.8-.8 1.3-.8.2 0 .3 0 .5.1l.1 1.5zM641.8 62.4l1.1-3.7h1.7l-2.4 6.9-.1.3c-.4.8-1 1.2-1.8 1.2-.2 0-.5 0-.7-.1v-1.2h.2c.3 0 .5 0 .7-.1.1-.1.3-.2.4-.5l.2-.5-2.1-6h1.7l1.1 3.7zM653.9 57.9h-2.5v6.7h-1.7v-6.7h-2.4v-1.4h6.6v1.4zM653.4 61.6c0-.6.1-1.1.3-1.6.2-.5.6-.8 1-1.1s.9-.4 1.5-.4c.8 0 1.5.2 2 .7.5.5.8 1.2.9 2v.4c0 .9-.3 1.7-.8 2.2-.5.6-1.2.8-2.1.8-.9 0-1.6-.3-2.1-.8s-.7-1.2-.7-2.2zm1.6.1c0 .6.1 1 .3 1.3s.5.5.9.5.7-.1.9-.4c.2-.3.3-.8.3-1.4 0-.6-.1-1-.3-1.3s-.5-.5-.9-.5-.7.2-.9.5c-.2.2-.3.6-.3 1.3zM659.8 61.6c0-.9.2-1.7.6-2.2.4-.6 1-.8 1.7-.8.6 0 1.1.2 1.5.7v-3.1h1.6v8.5h-1.5l-.1-.6c-.4.5-.9.8-1.5.8-.7 0-1.3-.3-1.7-.8s-.6-1.5-.6-2.5zm1.6.1c0 .6.1 1 .3 1.3s.5.5.9.5c.5 0 .8-.2 1-.6v-2.4c-.2-.4-.5-.6-1-.6-.8-.1-1.2.5-1.2 1.8zM669.9 64.6c-.1-.1-.1-.3-.2-.5-.4.4-.9.7-1.5.7s-1.1-.2-1.5-.5c-.4-.3-.6-.8-.6-1.3 0-.6.2-1.1.7-1.5.5-.3 1.2-.5 2-.5h.7v-.3c0-.3-.1-.5-.2-.7-.1-.2-.4-.2-.7-.2-.3 0-.5.1-.6.2-.2.1-.2.3-.2.5h-1.6c0-.3.1-.7.3-1 .2-.3.5-.5.9-.7.4-.2.8-.3 1.3-.3.7 0 1.3.2 1.8.6s.7.9.7 1.6v2.6c0 .6.1 1 .2 1.3v.1h-1.5zm-1.3-1.1c.2 0 .5-.1.7-.2.2-.1.3-.2.4-.4v-1h-.6c-.8 0-1.2.3-1.3.8v.1c0 .2.1.4.2.5.2.1.4.2.6.2zM674.8 62.4l1.1-3.7h1.7l-2.4 6.9-.1.3c-.4.8-1 1.2-1.8 1.2-.2 0-.5 0-.7-.1v-1.2h.2c.3 0 .5 0 .7-.1.1-.1.3-.2.4-.5l.2-.5-2.1-6h1.7l1.1 3.7z"/></svg>