<svg id="Layer_1" xmlns="http://www.w3.org/2000/svg" viewBox="0 0 160 600"><style>.st0{fill:#021d8b}</style><path class="st0" d="M30.63 266.8v5.51h-3.22v-15.64h6.1c1.17 0 2.21.21 3.1.64s1.58 1.04 2.06 1.83.72 1.69.72 2.7c0 1.53-.52 2.74-1.57 3.62-1.05.88-2.5 1.33-4.36 1.33h-2.83zm0-2.61h2.88c.85 0 1.5-.2 1.95-.6.45-.4.67-.97.67-1.72 0-.77-.23-1.39-.68-1.86s-1.07-.72-1.87-.73h-2.95v4.91zM44.67 272.32h-3.12v-16.5h3.12v16.5zM53.96 272.32c-.14-.28-.25-.63-.31-1.04-.75.84-1.73 1.26-2.93 1.26-1.14 0-2.08-.33-2.83-.99-.75-.66-1.12-1.49-1.12-2.49 0-1.23.46-2.18 1.37-2.84s2.23-.99 3.96-1h1.43v-.67c0-.54-.14-.97-.41-1.29-.28-.32-.71-.48-1.31-.48-.52 0-.93.12-1.23.38-.3.25-.45.59-.45 1.03h-3.1c0-.67.21-1.3.62-1.87.42-.57 1-1.02 1.76-1.35.76-.33 1.61-.49 2.56-.49 1.43 0 2.57.36 3.41 1.08.84.72 1.26 1.73 1.26 3.03v5.04c.01 1.1.16 1.94.46 2.5v.18h-3.14zm-2.56-2.16c.46 0 .88-.1 1.27-.31s.67-.48.86-.82v-2h-1.16c-1.55 0-2.38.54-2.48 1.61l-.01.18c0 .39.14.71.41.96.26.25.63.38 1.11.38zM61.88 260.69l.1 1.34c.83-1.04 1.94-1.56 3.34-1.56 1.23 0 2.15.36 2.75 1.08s.91 1.8.92 3.24v7.51h-3.1v-7.43c0-.66-.14-1.14-.43-1.43-.29-.3-.76-.45-1.43-.45-.87 0-1.53.37-1.97 1.12v8.2h-3.1v-11.62h2.92zM74.2 260.69l.1 1.34c.83-1.04 1.94-1.56 3.34-1.56 1.23 0 2.15.36 2.75 1.08s.91 1.8.92 3.24v7.51h-3.1v-7.43c0-.66-.14-1.14-.43-1.43-.29-.3-.76-.45-1.43-.45-.87 0-1.53.37-1.97 1.12v8.2h-3.1v-11.62h2.92zM83.64 257.68c0-.47.16-.85.47-1.15.31-.3.74-.45 1.27-.45s.95.15 1.27.45c.31.3.47.68.47 1.15 0 .47-.16.86-.48 1.16s-.74.45-1.26.45-.94-.15-1.26-.45c-.32-.3-.48-.68-.48-1.16zm3.3 14.64h-3.12V260.7h3.12v11.62zM92.36 260.69l.1 1.34c.83-1.04 1.94-1.56 3.34-1.56 1.23 0 2.15.36 2.75 1.08s.91 1.8.92 3.24v7.51h-3.1v-7.43c0-.66-.14-1.14-.43-1.43-.29-.3-.76-.45-1.43-.45-.87 0-1.53.37-1.97 1.12v8.2h-3.1v-11.62h2.92zM101.37 266.42c0-1.78.42-3.22 1.27-4.31.85-1.09 1.99-1.63 3.43-1.63 1.27 0 2.27.44 2.98 1.31l.13-1.1h2.81v11.24c0 1.02-.23 1.9-.69 2.65-.46.75-1.11 1.33-1.95 1.72s-1.82.59-2.94.59c-.85 0-1.68-.17-2.49-.51-.81-.34-1.42-.78-1.84-1.32l1.38-1.89c.77.87 1.71 1.3 2.81 1.3.82 0 1.46-.22 1.92-.66.46-.44.69-1.06.69-1.87v-.62c-.72.81-1.66 1.21-2.83 1.21-1.4 0-2.53-.55-3.39-1.64-.86-1.09-1.29-2.54-1.29-4.34v-.13zm3.1.23c0 1.05.21 1.88.63 2.48.42.6 1 .9 1.74.9.95 0 1.62-.36 2.03-1.07v-4.89c-.42-.71-1.08-1.07-2.01-1.07-.75 0-1.33.3-1.76.92-.41.61-.63 1.52-.63 2.73zM123.57 257.83v2.86h1.99v2.28h-1.99v5.8c0 .43.08.74.25.92s.48.28.95.28c.34 0 .65-.03.91-.08v2.35c-.61.19-1.24.28-1.88.28-2.18 0-3.29-1.1-3.33-3.3v-6.26h-1.7v-2.28h1.7v-2.86h3.1zM126.48 266.4c0-1.15.22-2.18.67-3.08s1.08-1.6 1.92-2.09c.83-.49 1.8-.74 2.91-.74 1.57 0 2.85.48 3.84 1.44.99.96 1.54 2.26 1.66 3.91l.02.79c0 1.78-.5 3.21-1.49 4.29-1 1.08-2.33 1.62-4.01 1.62s-3.01-.54-4.01-1.61-1.5-2.54-1.5-4.38v-.15zm3.11.22c0 1.1.21 1.95.62 2.53.42.58 1.01.88 1.78.88.75 0 1.34-.29 1.76-.87s.63-1.5.63-2.77c0-1.08-.21-1.92-.63-2.52-.42-.59-1.02-.89-1.78-.89s-1.35.3-1.76.89-.62 1.51-.62 2.75zM50.34 287.09l.1 1.3c.82-1.01 1.94-1.51 3.34-1.51 1.5 0 2.52.59 3.08 1.77.82-1.18 1.98-1.77 3.49-1.77 1.26 0 2.2.37 2.81 1.1.62.73.92 1.84.92 3.31v7.42h-3.12v-7.41c0-.66-.13-1.14-.39-1.45-.26-.3-.71-.46-1.36-.46-.93 0-1.58.44-1.93 1.33l.01 7.98h-3.1v-7.4c0-.67-.13-1.16-.4-1.46-.27-.3-.72-.45-1.35-.45-.88 0-1.52.37-1.91 1.1v8.22h-3.1v-11.62h2.91zM73.21 298.72c-.14-.28-.25-.63-.31-1.04-.75.84-1.73 1.26-2.93 1.26-1.14 0-2.08-.33-2.83-.99-.75-.66-1.12-1.49-1.12-2.49 0-1.23.46-2.18 1.37-2.84s2.23-.99 3.96-1h1.43v-.67c0-.54-.14-.97-.41-1.29-.28-.32-.71-.48-1.31-.48-.52 0-.93.12-1.23.38-.3.25-.45.59-.45 1.03h-3.1c0-.67.21-1.3.62-1.87.42-.57 1-1.02 1.76-1.35.76-.33 1.61-.49 2.56-.49 1.43 0 2.57.36 3.41 1.08.84.72 1.26 1.73 1.26 3.03v5.04c.01 1.1.16 1.94.46 2.5v.18h-3.14zm-2.57-2.16c.46 0 .88-.1 1.27-.31s.67-.48.86-.82v-2h-1.16c-1.55 0-2.38.54-2.48 1.61l-.01.18c0 .39.14.71.41.96.27.25.64.38 1.11.38zM82.49 294.05l-1.12 1.12v3.54h-3.1v-16.5h3.1v9.14l.6-.77 2.97-3.49h3.73l-4.2 4.84 4.57 6.78h-3.57l-2.98-4.66zM95.37 298.93c-1.7 0-3.09-.52-4.16-1.57s-1.61-2.44-1.61-4.18v-.3c0-1.17.22-2.21.68-3.13.45-.92 1.09-1.63 1.92-2.13.83-.5 1.77-.75 2.83-.75 1.59 0 2.84.5 3.75 1.5s1.37 2.42 1.37 4.26v1.27h-7.4c.1.76.4 1.37.91 1.83s1.14.69 1.92.69c1.2 0 2.13-.43 2.8-1.3l1.53 1.71c-.46.66-1.1 1.17-1.89 1.54-.8.38-1.68.56-2.65.56zm-.35-9.55c-.62 0-1.12.21-1.5.63-.38.42-.63 1.01-.74 1.79h4.32v-.25c-.02-.69-.2-1.22-.56-1.6-.36-.38-.87-.57-1.52-.57zM114.12 298.72c-.14-.28-.25-.63-.31-1.04-.75.84-1.73 1.26-2.93 1.26-1.14 0-2.08-.33-2.83-.99s-1.12-1.49-1.12-2.49c0-1.23.46-2.18 1.37-2.84s2.23-.99 3.96-1h1.43v-.67c0-.54-.14-.97-.41-1.29s-.71-.48-1.3-.48c-.52 0-.93.12-1.23.38s-.45.59-.45 1.03h-3.11c0-.67.21-1.3.62-1.87.42-.57 1-1.02 1.76-1.35.76-.33 1.61-.49 2.56-.49 1.43 0 2.57.36 3.41 1.08.84.72 1.26 1.73 1.26 3.03v5.04c.01 1.1.16 1.94.46 2.5v.18h-3.14zm-2.56-2.16c.46 0 .88-.1 1.27-.31s.67-.48.86-.82v-2h-1.16c-1.55 0-2.38.54-2.48 1.61l-.01.18c0 .39.13.71.41.96.26.25.64.38 1.11.38zM24.53 319.41c0 1.86-.4 3.31-1.19 4.36-.79 1.04-1.91 1.56-3.33 1.56-1.26 0-2.27-.48-3.02-1.45l-.14 1.24h-2.79v-16.5h3.1v5.92c.72-.84 1.66-1.26 2.83-1.26 1.42 0 2.53.52 3.34 1.56s1.21 2.51 1.21 4.4v.17zm-3.1-.22c0-1.17-.19-2.03-.56-2.57-.37-.54-.93-.81-1.67-.81-.99 0-1.67.4-2.04 1.21v4.59c.38.82 1.07 1.22 2.06 1.22 1 0 1.66-.49 1.98-1.48.15-.48.23-1.2.23-2.16zM26.42 310.48c0-.47.16-.85.47-1.15s.74-.45 1.27-.45.95.15 1.27.45c.31.3.47.68.47 1.15 0 .47-.16.86-.48 1.16-.32.3-.74.45-1.26.45s-.94-.15-1.26-.45c-.32-.3-.48-.68-.48-1.16zm3.3 14.64H26.6V313.5h3.12v11.62zM31.82 319.22c0-1.78.42-3.22 1.27-4.31s1.99-1.63 3.43-1.63c1.27 0 2.27.44 2.98 1.31l.13-1.1h2.81v11.24c0 1.02-.23 1.9-.69 2.65s-1.11 1.33-1.95 1.72-1.82.59-2.94.59c-.85 0-1.68-.17-2.49-.51-.81-.34-1.42-.78-1.84-1.32l1.38-1.89c.77.87 1.71 1.3 2.81 1.3.82 0 1.46-.22 1.92-.66.46-.44.69-1.06.69-1.87v-.62c-.72.81-1.66 1.21-2.83 1.21-1.4 0-2.53-.55-3.39-1.64-.86-1.09-1.29-2.54-1.29-4.34v-.13zm3.11.23c0 1.05.21 1.88.63 2.48.42.6 1 .9 1.74.9.95 0 1.62-.36 2.03-1.07v-4.89c-.42-.71-1.08-1.07-2.01-1.07-.75 0-1.33.3-1.76.92-.42.61-.63 1.52-.63 2.73zM60.77 319.41c0 1.79-.41 3.22-1.22 4.3-.81 1.08-1.91 1.62-3.29 1.62-1.17 0-2.12-.41-2.85-1.22v5.48h-3.1V313.5h2.88l.11 1.14c.75-.9 1.73-1.35 2.94-1.35 1.43 0 2.55.53 3.34 1.59s1.19 2.52 1.19 4.38v.15zm-3.1-.22c0-1.08-.19-1.92-.57-2.5-.38-.59-.94-.88-1.67-.88-.97 0-1.64.37-2.01 1.12v4.76c.38.77 1.06 1.15 2.03 1.15 1.48-.01 2.22-1.23 2.22-3.65zM69.66 323.93c-.77.93-1.83 1.4-3.18 1.4-1.25 0-2.2-.36-2.85-1.07s-.99-1.77-1-3.15v-7.62h3.1v7.52c0 1.21.55 1.82 1.65 1.82 1.05 0 1.78-.37 2.17-1.1v-8.24h3.12v11.62h-2.92l-.09-1.18zM81.54 316.4c-.42-.06-.79-.09-1.12-.09-1.17 0-1.94.4-2.31 1.19v7.61h-3.1v-11.62h2.93l.09 1.39c.62-1.07 1.49-1.6 2.59-1.6.34 0 .67.05.97.14l-.05 2.98zM87.66 322.83c.57 0 1.04-.16 1.4-.47.36-.32.54-.73.56-1.26h2.91a3.99 3.99 0 0 1-.64 2.16c-.42.66-1 1.16-1.74 1.53-.73.36-1.54.54-2.43.54-1.66 0-2.97-.53-3.93-1.58-.96-1.06-1.44-2.52-1.44-4.38v-.2c0-1.79.48-3.22 1.43-4.29.95-1.07 2.26-1.6 3.92-1.6 1.45 0 2.62.41 3.5 1.24.88.83 1.32 1.93 1.34 3.3h-2.91c-.01-.6-.2-1.1-.56-1.47-.36-.38-.83-.57-1.42-.57-.72 0-1.27.26-1.64.79s-.55 1.38-.55 2.57v.32c0 1.2.18 2.06.55 2.58s.91.79 1.65.79zM97.33 314.76c.82-.99 1.86-1.48 3.1-1.48 2.52 0 3.8 1.46 3.83 4.39v7.44h-3.1v-7.36c0-.67-.14-1.16-.43-1.48-.29-.32-.76-.48-1.43-.48-.91 0-1.57.35-1.98 1.05v8.26h-3.1v-16.5h3.1v6.16zM113.35 325.12c-.14-.28-.25-.63-.31-1.04-.75.84-1.73 1.26-2.93 1.26-1.14 0-2.08-.33-2.83-.99s-1.12-1.49-1.12-2.49c0-1.23.46-2.18 1.37-2.84.91-.66 2.23-.99 3.96-1h1.43v-.67c0-.54-.14-.97-.41-1.29-.28-.32-.71-.48-1.31-.48-.52 0-.93.12-1.23.38s-.45.59-.45 1.03h-3.1c0-.67.21-1.3.62-1.87s1-1.02 1.76-1.35c.76-.33 1.61-.49 2.56-.49 1.43 0 2.57.36 3.41 1.08.84.72 1.26 1.73 1.26 3.03v5.04c.01 1.1.16 1.94.46 2.5v.18h-3.14zm-2.57-2.16c.46 0 .88-.1 1.27-.31s.67-.48.86-.82v-2h-1.16c-1.55 0-2.38.54-2.48 1.61l-.01.18c0 .39.14.71.41.96.26.25.64.38 1.11.38zM124.7 321.9c0-.38-.19-.68-.56-.9-.38-.22-.98-.41-1.81-.58-2.76-.58-4.15-1.75-4.15-3.52 0-1.03.43-1.89 1.28-2.58.86-.69 1.98-1.04 3.36-1.04 1.48 0 2.66.35 3.54 1.04.88.69 1.33 1.6 1.33 2.71h-3.1c0-.44-.14-.81-.43-1.1-.29-.29-.73-.44-1.34-.44-.52 0-.93.12-1.21.35s-.43.54-.43.9c0 .34.16.62.49.83.33.21.88.39 1.65.55.77.15 1.42.33 1.96.52 1.64.6 2.46 1.64 2.46 3.13 0 1.06-.46 1.92-1.36 2.57-.91.65-2.08.98-3.52.98-.97 0-1.84-.17-2.59-.52-.75-.35-1.35-.82-1.78-1.43-.43-.61-.64-1.26-.64-1.96h2.94c.03.55.23.97.61 1.27s.89.44 1.53.44c.59 0 1.04-.11 1.35-.34.27-.22.42-.51.42-.88zM135.07 325.33c-1.7 0-3.09-.52-4.16-1.57-1.07-1.05-1.61-2.44-1.61-4.18v-.3c0-1.17.23-2.21.68-3.13.45-.92 1.09-1.63 1.92-2.13.83-.5 1.77-.75 2.83-.75 1.59 0 2.84.5 3.75 1.5.91 1 1.37 2.42 1.37 4.26v1.27h-7.4c.1.76.4 1.37.91 1.83.51.46 1.14.69 1.92.69 1.2 0 2.13-.43 2.8-1.3l1.53 1.71c-.47.66-1.1 1.17-1.89 1.54-.8.38-1.69.56-2.65.56zm-.36-9.55c-.62 0-1.12.21-1.5.63-.38.42-.63 1.01-.74 1.79h4.32v-.25c-.01-.69-.2-1.22-.56-1.6s-.86-.57-1.52-.57zM144.14 320.32c0-1 .12-1.8.37-2.4.24-.6.69-1.18 1.34-1.76.65-.58 1.08-1.05 1.29-1.41s.32-.74.32-1.15c0-1.21-.56-1.82-1.68-1.82-.53 0-.95.16-1.27.49-.32.33-.48.78-.5 1.35h-3.12c.01-1.37.46-2.44 1.33-3.21.87-.77 2.06-1.16 3.56-1.16 1.52 0 2.7.37 3.53 1.1.84.73 1.26 1.77 1.26 3.11 0 .61-.14 1.18-.41 1.73-.27.54-.75 1.14-1.43 1.8l-.87.83c-.54.52-.86 1.14-.93 1.84l-.04.66h-2.75zm-.31 3.3c0-.48.16-.87.49-1.18.33-.31.74-.47 1.25-.47s.93.16 1.25.47c.33.31.49.71.49 1.18s-.16.86-.48 1.17c-.32.31-.74.46-1.26.46s-.94-.15-1.26-.46c-.32-.31-.48-.7-.48-1.17z"/></svg>