<svg id="Layer_1" xmlns="http://www.w3.org/2000/svg" viewBox="0 0 320 50"><style>.st0{fill:#e82d8a}</style><path class="st0" d="M12.32 39.01h-1.58v1.63h-.82v-3.99h2.6v.67h-1.78v1.03h1.58v.66zM14.54 38.42c-.11-.01-.2-.02-.29-.02-.3 0-.5.1-.59.3v1.94h-.79v-2.97h.75l.02.35c.16-.27.38-.41.66-.41.09 0 .17.01.25.04l-.01.77zM16.29 40.7c-.44 0-.79-.13-1.06-.4s-.41-.62-.41-1.07v-.08c0-.3.06-.56.17-.8.12-.24.28-.42.49-.54.21-.13.45-.19.72-.19.41 0 .73.13.96.38s.35.62.35 1.09v.32h-1.89c.03.19.1.35.23.47s.29.17.49.17c.31 0 .54-.11.72-.33l.39.44c-.12.17-.28.3-.48.39-.21.1-.44.15-.68.15zm-.09-2.44c-.16 0-.28.05-.38.16s-.16.26-.19.46h1.1v-.06c0-.18-.05-.31-.14-.41-.09-.1-.22-.15-.39-.15zM19.32 40.7c-.44 0-.79-.13-1.06-.4s-.41-.62-.41-1.07v-.08c0-.3.06-.56.17-.8.12-.24.28-.42.49-.54.21-.13.45-.19.72-.19.41 0 .73.13.96.38s.35.62.35 1.09v.32h-1.89c.03.19.1.35.23.47s.29.17.49.17c.31 0 .54-.11.72-.33l.39.44c-.12.17-.28.3-.48.39-.21.1-.43.15-.68.15zm-.09-2.44c-.16 0-.28.05-.38.16s-.16.26-.19.46h1.1v-.06c0-.18-.05-.31-.14-.41-.09-.1-.22-.15-.39-.15zM22.72 40.64v-2.57h-.47v-.39h.47v-.3c0-.32.08-.56.25-.74s.41-.26.72-.26c.12 0 .23.02.35.05l-.03.41c-.09-.02-.18-.02-.27-.02-.16 0-.29.05-.38.14-.09.1-.13.23-.13.41v.31h.63v.39h-.63v2.57h-.51zM24.29 39.13c0-.29.06-.55.17-.78a1.268 1.268 0 0 1 1.18-.73c.4 0 .73.14.98.42s.37.65.37 1.12v.04c0 .29-.06.55-.17.78-.11.23-.27.41-.47.54-.21.13-.44.19-.71.19-.4 0-.73-.14-.98-.42s-.37-.65-.37-1.11v-.05zm.5.06c0 .33.08.59.23.79.15.2.36.3.61.3.26 0 .46-.1.61-.3.15-.2.23-.48.23-.85 0-.33-.08-.59-.23-.79-.15-.2-.36-.3-.62-.3-.25 0-.45.1-.61.3-.14.2-.22.48-.22.85zM29.06 38.13c-.08-.01-.16-.02-.25-.02-.33 0-.56.14-.68.42v2.11h-.51v-2.97h.49l.01.34c.17-.27.4-.4.71-.4.1 0 .17.01.23.04v.48zM31.52 39.08v1.56h-.53v-3.99h1.47c.44 0 .78.11 1.03.33.25.22.37.52.37.89 0 .39-.12.69-.36.9-.24.21-.59.31-1.04.31h-.94zm0-.43h.95c.28 0 .5-.07.65-.2.15-.13.22-.32.22-.58 0-.24-.07-.43-.22-.57-.15-.14-.36-.22-.62-.22h-.98v1.57zM35.89 38.13c-.08-.01-.16-.02-.25-.02-.33 0-.56.14-.68.42v2.11h-.51v-2.97h.49l.01.34c.17-.27.4-.4.71-.4.1 0 .17.01.23.04v.48zM36.36 36.89c0-.08.02-.15.08-.21s.12-.08.22-.08.17.03.22.08.08.13.08.21-.03.15-.08.21c-.05.05-.13.08-.22.08s-.17-.03-.22-.08a.278.278 0 0 1-.08-.21zm.54 3.75h-.5v-2.97h.51v2.97zM38.69 39.96l.73-2.28h.52l-1.06 2.97h-.38l-1.07-2.97h.52l.74 2.28zM42.23 40.64c-.03-.06-.05-.16-.07-.31-.24.25-.52.37-.84.37-.29 0-.53-.08-.72-.25a.807.807 0 0 1-.28-.63c0-.31.12-.55.35-.72s.57-.26.99-.26h.49v-.23c0-.18-.05-.32-.16-.42-.11-.1-.26-.16-.47-.16-.18 0-.33.05-.46.14-.12.09-.18.2-.18.33h-.51c0-.15.05-.29.16-.43s.25-.25.43-.33c.18-.08.38-.12.59-.12.34 0 .61.08.8.26s.29.41.3.71v1.37c0 .27.03.49.1.65v.04h-.52zm-.85-.38c.16 0 .31-.04.45-.12s.25-.19.31-.32v-.62h-.4c-.62 0-.93.18-.93.55 0 .16.05.28.16.37s.25.14.41.14zM44.64 40.28c.18 0 .34-.05.47-.16s.21-.25.23-.41h.48c-.01.17-.07.33-.18.49s-.25.28-.43.37c-.18.09-.37.14-.57.14-.4 0-.73-.13-.96-.4-.24-.27-.36-.64-.36-1.11v-.1c0-.29.05-.55.16-.77.11-.23.26-.4.46-.52s.43-.19.7-.19c.33 0 .61.1.83.3s.34.46.35.78h-.48a.675.675 0 0 0-.22-.47.69.69 0 0 0-.48-.19c-.26 0-.46.09-.6.28s-.21.45-.21.8v.1c0 .34.07.61.21.79.14.18.34.27.6.27zM47.36 39.9l.69-2.22h.54L47.4 41.1c-.18.49-.48.74-.88.74l-.1-.01-.19-.04v-.41l.14.01c.17 0 .31-.03.4-.1.1-.07.17-.2.24-.38l.11-.3-1.06-2.93h.55l.75 2.22zM52.07 40.12c-.14.19-.32.34-.57.43s-.52.14-.85.14c-.33 0-.61-.08-.87-.23-.25-.15-.45-.37-.59-.65s-.21-.61-.21-.98v-.35c0-.6.14-1.07.42-1.4.28-.33.67-.5 1.18-.5.42 0 .75.11 1.01.32s.41.51.47.91h-.53c-.1-.53-.41-.79-.94-.79-.35 0-.62.12-.8.37-.18.25-.27.61-.28 1.08v.33c0 .45.1.8.31 1.07.21.26.48.4.83.4.2 0 .37-.02.52-.07.15-.04.27-.12.37-.22v-.89h-.92v-.43h1.45v1.46zM54.7 40.35c-.2.23-.49.35-.87.35-.32 0-.56-.09-.72-.28-.17-.18-.25-.46-.25-.82v-1.93h.51v1.92c0 .45.18.67.55.67.39 0 .65-.14.77-.43v-2.16h.51v2.97h-.48l-.02-.29zM57.79 40.64c-.03-.06-.05-.16-.07-.31-.24.25-.52.37-.84.37-.29 0-.53-.08-.72-.25a.807.807 0 0 1-.28-.63c0-.31.12-.55.35-.72s.57-.26.99-.26h.49v-.23c0-.18-.05-.32-.16-.42-.11-.1-.26-.16-.47-.16-.18 0-.33.05-.46.14-.12.09-.18.2-.18.33h-.51c0-.15.05-.29.16-.43s.25-.25.43-.33c.18-.08.38-.12.59-.12.34 0 .61.08.8.26s.29.41.3.71v1.37c0 .27.03.49.1.65v.04h-.52zm-.84-.38c.16 0 .31-.04.45-.12s.25-.19.31-.32v-.62h-.4c-.62 0-.93.18-.93.55 0 .16.05.28.16.37s.25.14.41.14zM60.45 38.13c-.08-.01-.16-.02-.25-.02-.33 0-.56.14-.68.42v2.11h-.51v-2.97h.49l.01.34c.17-.27.4-.4.71-.4.1 0 .17.01.23.04v.48zM60.79 39.14c0-.46.11-.82.32-1.1.22-.28.5-.42.85-.42s.62.12.83.36v-1.55h.51v4.21h-.47l-.02-.32c-.2.25-.49.37-.85.37-.34 0-.62-.14-.84-.42-.22-.28-.33-.65-.33-1.1v-.03zm.51.05c0 .34.07.6.21.79.14.19.33.29.58.29.32 0 .56-.14.7-.43v-1.36a.74.74 0 0 0-.7-.42c-.25 0-.44.1-.58.29-.14.18-.21.47-.21.84zM65.95 37.68l.01.33c.22-.26.51-.38.88-.38.42 0 .7.16.85.48.1-.14.23-.26.39-.35s.35-.13.56-.13c.65 0 .98.34.99 1.03v1.99h-.51v-1.96c0-.21-.05-.37-.15-.48-.1-.11-.26-.16-.49-.16-.19 0-.34.06-.47.17-.12.11-.2.26-.22.45v1.97h-.51V38.7c0-.43-.21-.65-.63-.65-.33 0-.56.14-.68.42v2.17h-.51v-2.97h.49zM71.63 40.7c-.4 0-.73-.13-.98-.4-.25-.26-.38-.62-.38-1.06v-.09c0-.29.06-.56.17-.79.11-.23.27-.41.47-.54.2-.13.42-.2.66-.2.39 0 .69.13.9.38s.32.62.32 1.09v.21h-2.01c.01.29.09.53.26.71s.37.27.62.27c.18 0 .33-.04.46-.11.12-.07.23-.17.33-.29l.31.24c-.26.39-.64.58-1.13.58zm-.07-2.66c-.2 0-.38.08-.52.22-.14.15-.22.36-.26.63h1.49v-.04c-.01-.26-.08-.46-.21-.6s-.29-.21-.5-.21zM73.85 37.68l.01.33c.22-.26.51-.38.88-.38.42 0 .7.16.85.48.1-.14.23-.26.39-.35s.35-.13.56-.13c.65 0 .98.34.99 1.03v1.99h-.51v-1.96c0-.21-.05-.37-.15-.48-.1-.11-.26-.16-.49-.16-.19 0-.34.06-.47.17-.12.11-.2.26-.22.45v1.97h-.51V38.7c0-.43-.21-.65-.63-.65-.33 0-.56.14-.68.42v2.17h-.51v-2.97h.49zM80.8 39.19c0 .45-.1.82-.31 1.09s-.49.42-.84.42c-.37 0-.66-.13-.87-.4l-.02.34h-.47v-4.21h.51V38c.2-.25.49-.38.85-.38s.64.14.85.41c.21.27.31.65.31 1.12v.04zm-.51-.05c0-.35-.07-.61-.2-.8-.13-.19-.33-.28-.58-.28-.33 0-.57.16-.72.47v1.28c.16.31.4.47.73.47.24 0 .43-.09.57-.28.14-.2.2-.49.2-.86zM82.67 40.7c-.4 0-.73-.13-.98-.4-.25-.26-.38-.62-.38-1.06v-.09c0-.29.06-.56.17-.79.11-.23.27-.41.47-.54.2-.13.42-.2.66-.2.39 0 .69.13.9.38s.32.62.32 1.09v.21h-2.01c.01.29.09.53.26.71s.37.27.62.27c.18 0 .33-.04.46-.11.12-.07.23-.17.33-.29l.31.24c-.26.39-.63.58-1.13.58zm-.06-2.66c-.2 0-.38.08-.52.22-.14.15-.22.36-.26.63h1.49v-.04c-.01-.26-.08-.46-.21-.6s-.29-.21-.5-.21zM85.85 38.13c-.08-.01-.16-.02-.25-.02-.33 0-.56.14-.68.42v2.11h-.51v-2.97h.49l.01.34c.17-.27.4-.4.71-.4.1 0 .17.01.23.04v.48zM88.04 39.86a.38.38 0 0 0-.15-.32c-.1-.08-.28-.14-.54-.2s-.46-.12-.61-.2a.922.922 0 0 1-.33-.27.68.68 0 0 1-.11-.38c0-.24.1-.45.31-.62s.47-.25.79-.25c.34 0 .61.09.82.26s.31.4.31.67h-.51c0-.14-.06-.26-.18-.36a.68.68 0 0 0-.45-.15c-.18 0-.33.04-.43.12-.1.08-.16.19-.16.32 0 .12.05.21.15.28.1.06.27.12.53.18.25.06.46.12.62.2.16.08.27.17.35.28s.11.25.11.4c0 .26-.11.48-.32.64-.21.16-.49.24-.83.24-.24 0-.45-.04-.63-.13a.997.997 0 0 1-.43-.35.868.868 0 0 1-.16-.49h.51c.01.17.08.3.2.4.13.1.29.15.5.15.19 0 .35-.04.46-.12a.33.33 0 0 0 .18-.3zM89.22 40.38c0-.09.03-.16.08-.22s.13-.09.23-.09.18.03.24.09a.33.33 0 0 1 0 .43c-.05.06-.13.08-.24.08a.32.32 0 0 1-.23-.08.323.323 0 0 1-.08-.21z"/></svg>