<svg id="Layer_1" xmlns="http://www.w3.org/2000/svg" viewBox="0 0 320 50"><style>.st0{fill:url(#SVGID_1_)}</style><linearGradient id="SVGID_1_" gradientUnits="userSpaceOnUse" x1="102.03" y1="24.811" x2="241.102" y2="24.811"><stop offset="0" stop-color="#18b9fb"/><stop offset=".5" stop-color="#782eeb"/><stop offset="1" stop-color="#e82d8a"/></linearGradient><path class="st0" d="M104.31 16.38l1.43 4.45 1.42-4.45h2.03v6.4h-1.55v-1.49l.15-3.06-1.55 4.55h-1.02l-1.55-4.56.15 3.06v1.49h-1.54v-6.4h2.03zm5.61 3.98c0-.47.09-.9.28-1.27.18-.37.45-.66.8-.86.35-.2.75-.3 1.22-.3.71 0 1.27.22 1.68.66.41.44.62 1.04.62 1.8v.05c0 .74-.21 1.33-.62 1.77-.41.44-.97.65-1.67.65-.68 0-1.22-.2-1.63-.61-.41-.41-.63-.96-.66-1.65l-.02-.24zm1.48.09c0 .44.07.76.21.97s.34.31.61.31c.53 0 .8-.41.81-1.22v-.15c0-.85-.27-1.28-.82-1.28-.5 0-.76.37-.8 1.1l-.01.27zm5.13-2.42l.05.56c.33-.43.78-.65 1.36-.65.5 0 .87.15 1.11.44.24.3.37.74.38 1.34v3.06h-1.49v-3c0-.24-.05-.42-.15-.53-.1-.11-.27-.17-.53-.17-.29 0-.51.11-.65.34v3.36h-1.48v-4.76h1.4zm3.7-1.23c0-.21.08-.38.23-.52.15-.13.35-.2.59-.2s.44.07.59.2c.15.13.23.31.23.52 0 .21-.08.38-.23.52-.15.13-.35.2-.59.2s-.44-.07-.59-.2a.667.667 0 0 1-.23-.52zm1.58 5.99h-1.49v-4.76h1.49v4.76zm2.63-5.94v1.18h.78v1.03h-.78v2.18c0 .18.03.3.1.37s.19.11.38.11c.15 0 .27-.01.37-.03v1.06c-.27.09-.55.13-.84.13-.51 0-.89-.12-1.13-.36-.24-.24-.36-.61-.36-1.09v-2.36h-.61v-1.03h.61v-1.18h1.48zm1.05 3.51c0-.47.09-.9.28-1.27.18-.37.45-.66.8-.86.35-.2.75-.3 1.22-.3.71 0 1.27.22 1.68.66s.62 1.04.62 1.8v.05c0 .74-.21 1.33-.62 1.77-.41.44-.97.65-1.67.65-.68 0-1.22-.2-1.63-.61-.41-.41-.63-.96-.66-1.65l-.02-.24zm1.48.09c0 .44.07.76.21.97s.34.31.61.31c.53 0 .8-.41.81-1.22v-.15c0-.85-.27-1.28-.82-1.28-.5 0-.76.37-.8 1.1l-.01.27zm6.64-1.08l-.49-.04c-.47 0-.77.15-.9.44v3.01h-1.48v-4.76h1.39l.05.61c.25-.47.6-.7 1.04-.7.16 0 .3.02.41.05l-.02 1.39zm4.68 1.34l.79-2.68h1.59l-1.94 5.55-.08.2c-.28.62-.76.92-1.46.92-.19 0-.4-.03-.61-.09v-1.06h.19c.21 0 .37-.03.48-.09a.54.54 0 0 0 .24-.32l.12-.32-1.65-4.81h1.58l.75 2.7zm2.51-.35c0-.47.09-.9.28-1.27.18-.37.45-.66.8-.86.35-.2.75-.3 1.22-.3.71 0 1.27.22 1.68.66s.62 1.04.62 1.8v.05c0 .74-.21 1.33-.62 1.77-.41.44-.97.65-1.67.65-.68 0-1.22-.2-1.63-.61-.41-.41-.63-.96-.66-1.65l-.02-.24zm1.48.09c0 .44.07.76.21.97.14.21.34.31.61.31.53 0 .8-.41.81-1.22v-.15c0-.85-.27-1.28-.82-1.28-.5 0-.76.37-.8 1.1l-.01.27zm6.6 1.82c-.31.4-.74.6-1.27.6-.52 0-.92-.15-1.18-.45-.27-.3-.4-.74-.4-1.31v-3.08h1.48v3.09c0 .41.2.61.59.61.34 0 .58-.12.73-.36v-3.34h1.49v4.76h-1.39l-.05-.52zm5.12-2.9l-.49-.04c-.47 0-.77.15-.9.44v3.01h-1.48v-4.76h1.39l.05.61c.25-.47.6-.7 1.04-.7.16 0 .3.02.41.05l-.02 1.39zm7.19 1.07c0 .74-.17 1.33-.5 1.77-.33.44-.78.66-1.35.66-.44 0-.8-.16-1.08-.48v2.22h-1.48v-6.59h1.38l.04.44c.28-.35.66-.53 1.12-.53.59 0 1.04.22 1.37.65.33.43.49 1.03.49 1.78v.08zm-1.48-.09c0-.84-.25-1.27-.74-1.27-.35 0-.59.13-.7.38v1.87c.13.26.37.4.71.4.47 0 .72-.41.73-1.22v-.16zm4.44 2.52c-.73 0-1.32-.22-1.77-.65-.45-.43-.68-1-.68-1.7v-.12c0-.49.09-.92.27-1.29.18-.37.44-.66.79-.86.35-.2.76-.31 1.23-.31.67 0 1.2.21 1.58.62.39.42.58.99.58 1.73v.58h-2.95c.05.27.17.48.35.63.18.15.41.23.69.23.47 0 .84-.16 1.1-.49l.68.8c-.18.26-.45.46-.78.61-.34.15-.7.22-1.09.22zm-.17-3.79c-.43 0-.69.29-.77.86h1.49v-.11c.01-.24-.05-.42-.18-.55s-.31-.2-.54-.2zm5.65.29l-.49-.04c-.47 0-.77.15-.9.44v3.01h-1.48v-4.76h1.39l.05.61c.25-.47.6-.7 1.04-.7.16 0 .3.02.41.05l-.02 1.39zm3.02 2.08c0-.13-.07-.23-.2-.3-.13-.08-.38-.16-.75-.24s-.67-.19-.91-.32-.42-.3-.55-.49-.19-.41-.19-.66c0-.44.18-.8.54-1.08.36-.28.83-.42 1.42-.42.63 0 1.13.14 1.51.43.38.28.57.66.57 1.12h-1.49c0-.38-.2-.57-.6-.57-.16 0-.29.04-.39.13-.11.09-.16.19-.16.32s.06.24.19.32c.13.08.33.15.62.2.28.05.53.12.75.19.72.25 1.07.69 1.07 1.32 0 .43-.19.79-.58 1.06-.39.27-.88.41-1.5.41-.41 0-.77-.07-1.09-.22-.32-.15-.57-.35-.75-.6s-.27-.52-.27-.8h1.38c.01.22.08.38.22.48.14.1.32.15.54.15.2 0 .35-.04.46-.12.11-.07.16-.18.16-.31zm1.93-1.09c0-.47.09-.9.28-1.27.18-.37.45-.66.8-.86.35-.2.75-.3 1.22-.3.71 0 1.27.22 1.68.66.41.44.62 1.04.62 1.8v.05c0 .74-.21 1.33-.62 1.77-.41.44-.97.65-1.67.65-.68 0-1.22-.2-1.63-.61-.41-.41-.63-.96-.66-1.65l-.02-.24zm1.49.09c0 .44.07.76.21.97.14.21.34.31.61.31.53 0 .8-.41.81-1.22v-.15c0-.85-.27-1.28-.82-1.28-.5 0-.76.37-.8 1.1l-.01.27zm5.12-2.42l.05.56c.33-.43.78-.65 1.36-.65.5 0 .87.15 1.11.44.24.3.37.74.38 1.34v3.06h-1.49v-3c0-.24-.05-.42-.15-.53s-.27-.17-.53-.17c-.29 0-.51.11-.65.34v3.36h-1.48v-4.76h1.4zm6.4 4.76c-.05-.1-.1-.24-.14-.43-.27.34-.65.51-1.14.51-.45 0-.83-.14-1.14-.41a1.3 1.3 0 0 1-.47-1.02c0-.52.19-.91.57-1.17.38-.26.94-.4 1.66-.4h.46v-.25c0-.44-.19-.66-.57-.66-.35 0-.53.17-.53.52h-1.48c0-.46.2-.83.59-1.12.39-.29.89-.43 1.5-.43s1.09.15 1.44.44c.35.3.53.7.54 1.22v2.11c.01.44.07.77.2 1v.07h-1.49zm-.93-.97c.18 0 .34-.04.46-.12.12-.08.21-.17.26-.27v-.76h-.43c-.52 0-.77.23-.77.69 0 .13.05.24.14.33.08.09.2.13.34.13zm4.59.97h-1.49v-6.75h1.49v6.75zm3.14-5.99c0-.21.08-.38.23-.52.15-.13.35-.2.59-.2s.44.07.59.2c.15.13.23.31.23.52 0 .21-.08.38-.23.52-.15.13-.35.2-.59.2s-.44-.07-.59-.2a.667.667 0 0 1-.23-.52zm1.58 5.99h-1.49v-4.76h1.49v4.76zm2.27-4.76l.05.56c.33-.43.78-.65 1.36-.65.5 0 .87.15 1.11.44.24.3.37.74.38 1.34v3.06h-1.49v-3c0-.24-.05-.42-.15-.53s-.27-.17-.53-.17c-.29 0-.51.11-.65.34v3.36h-1.48v-4.76h1.4zm4.04 4.76v-3.73h-.69v-1.03h.69v-.38c0-.54.16-.96.48-1.26.32-.3.77-.45 1.35-.45.21 0 .44.03.69.09v1.09a1.19 1.19 0 0 0-.36-.04c-.45 0-.67.19-.67.58v.36h.93v1.03h-.93v3.73h-1.49zm2.75-2.43c0-.47.09-.9.28-1.27.18-.37.45-.66.8-.86.35-.2.75-.3 1.22-.3.71 0 1.27.22 1.68.66.41.44.62 1.04.62 1.8v.05c0 .74-.21 1.33-.62 1.77-.41.44-.97.65-1.67.65-.68 0-1.22-.2-1.63-.61-.41-.41-.63-.96-.66-1.65l-.02-.24zm1.48.09c0 .44.07.76.21.97.14.21.34.31.61.31.53 0 .8-.41.81-1.22v-.15c0-.85-.27-1.28-.82-1.28-.5 0-.76.37-.8 1.1l-.01.27zm6.64-1.08l-.49-.04c-.47 0-.77.15-.9.44v3.01h-1.48v-4.76h1.39l.05.61c.25-.47.6-.7 1.04-.7.16 0 .3.02.41.05l-.02 1.39zm1.94-1.34l.05.56c.34-.43.79-.65 1.36-.65.6 0 1.01.24 1.22.72.32-.48.79-.72 1.4-.72.96 0 1.46.58 1.49 1.75v3.1h-1.49v-3c0-.24-.04-.42-.12-.53-.08-.11-.23-.17-.45-.17a.72.72 0 0 0-.66.39v3.31h-1.49V19.8c0-.25-.04-.43-.12-.54-.08-.11-.23-.17-.45-.17-.28 0-.5.13-.65.39v3.31h-1.48v-4.76h1.39zm9.03 4.76c-.05-.1-.1-.24-.14-.43-.27.34-.65.51-1.14.51-.45 0-.83-.14-1.14-.41a1.3 1.3 0 0 1-.47-1.02c0-.52.19-.91.57-1.17s.94-.4 1.66-.4h.46v-.25c0-.44-.19-.66-.57-.66-.35 0-.53.17-.53.52h-1.48c0-.46.2-.83.59-1.12.39-.29.89-.43 1.5-.43s1.09.15 1.44.44c.35.3.53.7.54 1.22v2.11c.01.44.07.77.2 1v.07h-1.49zm-.93-.97c.18 0 .34-.04.46-.12.12-.08.21-.17.26-.27v-.76h-.43c-.52 0-.77.23-.77.69 0 .13.05.24.14.33.09.09.2.13.34.13zm4.76-4.97v1.18h.78v1.03h-.78v2.18c0 .18.03.3.1.37s.19.11.38.11c.15 0 .27-.01.37-.03v1.06c-.27.09-.55.13-.84.13-.51 0-.89-.12-1.13-.36s-.36-.61-.36-1.09v-2.36h-.61v-1.03h.61v-1.18h1.48zm1.35-.05c0-.21.08-.38.23-.52.15-.13.35-.2.59-.2s.44.07.59.2c.15.13.23.31.23.52 0 .21-.08.38-.23.52-.15.13-.35.2-.59.2s-.44-.07-.59-.2a.667.667 0 0 1-.23-.52zm1.58 5.99h-1.49v-4.76h1.49v4.76zm.72-2.43c0-.47.09-.9.28-1.27.18-.37.45-.66.8-.86.35-.2.75-.3 1.22-.3.71 0 1.27.22 1.68.66.41.44.62 1.04.62 1.8v.05c0 .74-.21 1.33-.62 1.77-.41.44-.97.65-1.67.65-.68 0-1.22-.2-1.63-.61-.41-.41-.63-.96-.66-1.65l-.02-.24zm1.48.09c0 .44.07.76.21.97.14.21.34.31.61.31.53 0 .8-.41.81-1.22v-.15c0-.85-.27-1.28-.82-1.28-.5 0-.76.37-.8 1.1l-.01.27zm5.12-2.42l.05.56c.33-.43.78-.65 1.36-.65.5 0 .87.15 1.11.44.24.3.37.74.38 1.34v3.06h-1.49v-3c0-.24-.05-.42-.15-.53s-.27-.17-.53-.17c-.29 0-.51.11-.65.34v3.36h-1.48v-4.76h1.4zM102.03 31.17c0-.47.09-.9.28-1.27s.45-.66.8-.86c.35-.2.75-.3 1.22-.3.71 0 1.27.22 1.68.66.41.44.62 1.04.62 1.8v.05c0 .74-.21 1.33-.62 1.77-.41.44-.97.65-1.67.65-.68 0-1.22-.2-1.63-.61-.41-.41-.63-.96-.66-1.65l-.02-.24zm1.48.09c0 .44.07.76.21.97.14.21.34.31.61.31.53 0 .8-.41.81-1.22v-.15c0-.85-.27-1.28-.82-1.28-.5 0-.76.37-.8 1.1l-.01.27zm5.12-2.43l.05.56c.33-.43.78-.65 1.36-.65.5 0 .87.15 1.11.44.24.3.37.74.38 1.34v3.06h-1.49v-3c0-.24-.05-.42-.15-.53-.1-.11-.27-.17-.53-.17-.29 0-.51.11-.65.34v3.36h-1.48v-4.76h1.4zm7.69-1.18v1.18h.78v1.03h-.78v2.18c0 .18.03.3.1.37s.19.11.38.11c.15 0 .27-.01.37-.03v1.06c-.27.09-.55.13-.84.13-.51 0-.89-.12-1.13-.36-.24-.24-.36-.61-.36-1.09v-2.36h-.61v-1.03h.61v-1.18h1.48zm2.81 1.69c.32-.4.72-.6 1.21-.6.52 0 .92.16 1.19.47.27.31.4.77.41 1.38v3h-1.49v-2.97c0-.25-.05-.44-.15-.56-.1-.12-.28-.18-.52-.18-.3 0-.52.1-.65.29v3.41h-1.48v-6.75h1.48v2.51zm5.94 4.34c-.73 0-1.32-.22-1.77-.65-.45-.43-.68-1-.68-1.7v-.13c0-.49.09-.92.27-1.29.18-.37.44-.66.79-.86.35-.2.76-.31 1.23-.31.67 0 1.2.21 1.58.62.39.42.58.99.58 1.73v.58h-2.95c.05.27.17.48.35.63.18.15.41.23.69.23.47 0 .84-.16 1.1-.49l.68.8c-.18.26-.45.46-.78.61-.34.15-.7.23-1.09.23zm-.17-3.79c-.43 0-.69.29-.77.86h1.49v-.11c.01-.24-.05-.42-.18-.55-.12-.14-.3-.2-.54-.2zm6.62 1.53v2.17h-1.54v-6.4h2.55c.49 0 .92.09 1.3.27.38.18.67.44.87.77.21.33.31.71.31 1.13 0 .62-.22 1.12-.67 1.5-.45.37-1.06.56-1.84.56h-.98zm0-1.19h1.01c.3 0 .53-.07.68-.22.16-.15.24-.36.24-.63 0-.3-.08-.54-.24-.72s-.38-.27-.66-.27h-1.03v1.84zm7.09 2.85c-.31.4-.74.6-1.27.6-.52 0-.92-.15-1.18-.45-.27-.3-.4-.74-.4-1.31v-3.08h1.48v3.09c0 .41.2.61.59.61.34 0 .58-.12.73-.36v-3.34h1.49v4.76h-1.39l-.05-.52zm6.66-1.83c0 .78-.16 1.38-.48 1.8-.32.42-.78.63-1.36.63-.48 0-.87-.19-1.17-.58l-.06.49h-1.33v-6.75h1.48v2.38c.28-.31.63-.47 1.07-.47.59 0 1.05.21 1.37.64.32.43.48 1.02.48 1.79v.07zm-1.49-.09c0-.46-.06-.78-.18-.98-.12-.19-.31-.29-.56-.29-.33 0-.57.13-.69.38v1.89c.13.25.36.38.7.38.35 0 .57-.17.66-.51.05-.17.07-.46.07-.87zm3.7 2.43H146v-6.75h1.49v6.75zm.9-5.98c0-.21.08-.38.23-.52s.35-.2.59-.2.44.07.59.2.23.31.23.52c0 .21-.08.38-.23.52s-.35.2-.59.2-.44-.07-.59-.2-.23-.31-.23-.52zm1.58 5.98h-1.49v-4.76h1.49v4.76zm2.92-1.05c.21 0 .37-.06.48-.17.11-.11.17-.27.17-.47h1.39c0 .52-.19.95-.56 1.28-.37.33-.86.5-1.44.5-.69 0-1.24-.22-1.64-.65s-.6-1.03-.6-1.8v-.06c0-.48.09-.9.27-1.27.18-.37.43-.65.77-.85.33-.2.73-.3 1.19-.3.62 0 1.11.17 1.47.51.36.34.55.81.55 1.39h-1.39c0-.25-.06-.44-.18-.57a.625.625 0 0 0-.48-.2c-.38 0-.61.24-.67.73-.02.16-.03.37-.03.64 0 .48.06.81.17.99s.28.3.53.3zm5.86-2.32c-.17-.25-.31-.48-.41-.7-.1-.22-.15-.45-.15-.69 0-.52.17-.93.5-1.25.33-.32.77-.48 1.31-.48.48 0 .88.15 1.2.44.32.29.47.66.47 1.1 0 .55-.3 1.03-.9 1.45l-.33.23.98 1.13c.16-.32.24-.68.24-1.06h1.24c0 .86-.2 1.56-.6 2.08l.98 1.12h-1.65l-.3-.34c-.25.15-.5.26-.75.33-.26.07-.55.11-.87.11-.63 0-1.14-.17-1.52-.5-.38-.33-.57-.77-.57-1.31 0-.3.08-.56.23-.8.15-.24.44-.52.88-.84l.02-.02zm1.07 2.32c.26 0 .5-.06.74-.18l-1.15-1.31-.04.03c-.17.21-.25.44-.25.69 0 .21.07.4.2.55.14.14.3.22.5.22zm-.34-3.73c0 .21.11.45.33.75l.29-.18c.13-.09.23-.18.29-.27s.09-.21.09-.36c0-.13-.05-.25-.14-.35s-.21-.15-.35-.15c-.16 0-.29.05-.39.16s-.12.23-.12.4zm6.7 4.78v-6.4h2.06c.57 0 1.07.13 1.53.38.45.26.8.62 1.06 1.09.25.47.38.99.38 1.57v.29c0 .59-.12 1.11-.37 1.58-.25.46-.6.83-1.05 1.09-.45.26-.95.4-1.51.4h-2.1zm1.54-5.21v4.02h.54c.44 0 .78-.16 1.02-.47.24-.32.36-.78.36-1.4v-.28c0-.62-.12-1.08-.36-1.4s-.58-.47-1.04-.47h-.52zm6.89 5.21c-.05-.1-.1-.24-.14-.43-.27.34-.65.51-1.14.51-.45 0-.83-.14-1.14-.41a1.3 1.3 0 0 1-.47-1.02c0-.52.19-.91.57-1.17s.94-.4 1.66-.4h.46v-.25c0-.44-.19-.66-.57-.66-.35 0-.53.17-.53.52h-1.48c0-.46.2-.83.59-1.12.39-.29.89-.43 1.5-.43s1.09.15 1.44.44c.35.3.53.7.54 1.22v2.11c.01.44.07.77.2 1v.07h-1.49zm-.93-.97c.18 0 .34-.04.46-.12s.21-.17.26-.27v-.76h-.43c-.52 0-.77.23-.77.69 0 .13.05.24.14.33.09.09.2.13.34.13zm5.91-2.45l-.49-.04c-.47 0-.77.15-.9.44v3.01h-1.48v-4.76h1.39l.05.61c.25-.47.6-.7 1.04-.7.16 0 .3.02.41.05l-.02 1.39zm2.44 1.65l-.42.42v1.35h-1.48v-6.76h1.48v3.59l.15-.2 1.12-1.39h1.78l-1.67 1.96 1.78 2.8h-1.7l-1.04-1.77zm10.29-.62l.73-4.01h1.53l-1.36 6.4h-1.6l-.86-3.65-.84 3.65h-1.6l-1.36-6.4h1.53l.73 4.01.88-4.01h1.31l.91 4.01zm4.96 2.48c-.73 0-1.32-.22-1.77-.65-.45-.43-.68-1-.68-1.7v-.13c0-.49.09-.92.27-1.29.18-.37.44-.66.79-.86.35-.2.76-.31 1.23-.31.67 0 1.2.21 1.58.62.39.42.58.99.58 1.73v.58h-2.95c.05.27.17.48.35.63.18.15.41.23.69.23.47 0 .84-.16 1.1-.49l.68.8c-.18.26-.45.46-.78.61-.33.15-.7.23-1.09.23zm-.17-3.79c-.43 0-.69.29-.77.86h1.49v-.11c.01-.24-.05-.42-.18-.55-.12-.14-.3-.2-.54-.2zm7.19 1.36c0 .78-.16 1.38-.48 1.8-.32.42-.78.63-1.36.63-.48 0-.87-.19-1.17-.58l-.06.49h-1.33v-6.75h1.48v2.38c.28-.31.63-.47 1.07-.47.59 0 1.05.21 1.37.64.32.43.48 1.02.48 1.79v.07zm-1.49-.09c0-.46-.06-.78-.18-.98-.12-.19-.31-.29-.56-.29-.33 0-.57.13-.69.38v1.89c.13.25.36.38.7.38.35 0 .57-.17.66-.51.05-.17.07-.46.07-.87z"/></svg>