<svg id="Layer_1" xmlns="http://www.w3.org/2000/svg" viewBox="0 0 320 50"><style>.st0{fill:url(#SVGID_1_)}</style><linearGradient id="SVGID_1_" gradientUnits="userSpaceOnUse" x1="104.713" y1="24.971" x2="202.858" y2="24.971"><stop offset="0" stop-color="#18b9fb"/><stop offset=".5" stop-color="#782eeb"/><stop offset="1" stop-color="#e82d8a"/></linearGradient><path class="st0" d="M108.31 18.36h-1.26v3.42h-2.33v-9.67h3.81c1.15 0 2.04.25 2.69.76.65.51.97 1.23.97 2.16 0 .67-.14 1.23-.41 1.67-.27.44-.7.8-1.28 1.08l2.02 3.91v.1h-2.5l-1.71-3.43zm-1.27-1.79h1.47c.44 0 .78-.12 1-.35.22-.23.34-.56.34-.98 0-.42-.11-.74-.34-.98s-.56-.36-1-.36h-1.47v2.67zm9.92 5.35c-1.1 0-2-.33-2.68-.99-.68-.66-1.02-1.51-1.02-2.57v-.19c0-.73.14-1.38.41-1.95.27-.56.67-1 1.19-1.31.52-.31 1.14-.46 1.86-.46 1.01 0 1.81.31 2.39.94.58.63.88 1.5.88 2.62v.87h-4.45c.08.4.25.72.52.95.27.23.62.35 1.05.35.71 0 1.26-.25 1.66-.74l1.02 1.21c-.28.39-.67.69-1.19.92-.5.23-1.05.35-1.64.35zm-.25-5.73c-.66 0-1.05.43-1.17 1.3h2.26v-.17c.01-.36-.08-.64-.27-.83-.19-.2-.47-.3-.82-.3zm7.22 4c.31 0 .56-.09.73-.26.17-.17.26-.41.25-.71h2.1c0 .79-.28 1.43-.85 1.94-.56.5-1.29.76-2.18.76-1.05 0-1.87-.33-2.47-.98-.6-.66-.9-1.56-.9-2.72v-.09c0-.73.13-1.37.4-1.92.27-.56.65-.98 1.16-1.28.5-.3 1.1-.45 1.79-.45.93 0 1.68.26 2.23.78s.82 1.22.82 2.11h-2.1c0-.37-.09-.66-.27-.86-.18-.2-.43-.3-.73-.3-.58 0-.92.37-1.02 1.11-.03.23-.05.56-.05.97 0 .72.09 1.22.26 1.5s.45.4.83.4zm7.51 1.73c-1.1 0-2-.33-2.68-.99-.68-.66-1.02-1.51-1.02-2.57v-.19c0-.73.14-1.38.41-1.95.27-.56.67-1 1.19-1.31.52-.31 1.14-.46 1.86-.46 1.01 0 1.81.31 2.39.94.58.63.88 1.5.88 2.62v.87h-4.45c.08.4.25.72.52.95.27.23.62.35 1.05.35.71 0 1.26-.25 1.66-.74l1.02 1.21c-.28.39-.67.69-1.19.92-.5.23-1.06.35-1.64.35zm-.26-5.73c-.66 0-1.05.43-1.17 1.3h2.26v-.17c.01-.36-.08-.64-.27-.83-.19-.2-.46-.3-.82-.3zm4.17-3.44c0-.32.12-.58.35-.78.23-.2.53-.31.9-.31s.67.1.9.31c.23.2.35.46.35.78s-.12.58-.35.78c-.23.2-.53.31-.9.31s-.67-.1-.9-.31a.972.972 0 0 1-.35-.78zm2.38 9.04h-2.25V14.6h2.25v7.19zm4.24-2.67l1.14-4.52h2.36l-2.34 7.19h-2.29l-2.34-7.19h2.36l1.11 4.52zm7.55 2.8c-1.1 0-2-.33-2.68-.99-.68-.66-1.02-1.51-1.02-2.57v-.19c0-.73.14-1.38.41-1.95.27-.56.67-1 1.19-1.31.52-.31 1.14-.46 1.86-.46 1.01 0 1.81.31 2.39.94.58.63.88 1.5.88 2.62v.87h-4.45c.08.4.25.72.52.95.27.23.62.35 1.05.35.71 0 1.26-.25 1.66-.74l1.02 1.21c-.28.39-.67.69-1.19.92-.5.23-1.05.35-1.64.35zm-.25-5.73c-.66 0-1.05.43-1.17 1.3h2.26v-.17c.01-.36-.08-.64-.27-.83-.19-.2-.46-.3-.82-.3zm7.55-3.44c0-.32.12-.58.35-.78.23-.2.53-.31.9-.31s.67.1.9.31c.23.2.35.46.35.78s-.12.58-.35.78c-.23.2-.53.31-.9.31s-.67-.1-.9-.31c-.23-.2-.35-.47-.35-.78zm2.38 9.04h-2.25V14.6h2.25v7.19zm1.1-3.65c0-1.14.25-2.03.74-2.69.49-.66 1.18-.98 2.06-.98.64 0 1.18.25 1.62.76v-3.64h2.25v10.2h-2.01l-.11-.77c-.46.6-1.05.9-1.75.9-.85 0-1.53-.33-2.03-.98-.52-.66-.77-1.59-.77-2.8zm2.24.14c0 1.28.37 1.91 1.12 1.91.5 0 .85-.21 1.06-.62v-2.74c-.2-.43-.55-.64-1.05-.64-.69 0-1.07.56-1.12 1.67l-.01.42zm9.17 3.64c-1.1 0-2-.33-2.68-.99-.68-.66-1.02-1.51-1.02-2.57v-.19c0-.73.14-1.38.41-1.95.27-.56.67-1 1.19-1.31.52-.31 1.14-.46 1.86-.46 1.01 0 1.81.31 2.39.94.58.63.88 1.5.88 2.62v.87h-4.45c.08.4.25.72.52.95.27.23.62.35 1.05.35.71 0 1.26-.25 1.66-.74l1.02 1.21c-.28.39-.67.69-1.19.92-.5.23-1.05.35-1.64.35zm-.25-5.73c-.66 0-1.05.43-1.17 1.3h2.26v-.17c.01-.36-.08-.64-.27-.83-.2-.2-.47-.3-.82-.3zm6.24-1.59l.07.84c.5-.65 1.18-.98 2.05-.98.75 0 1.31.22 1.68.67.37.45.56 1.12.57 2.02v4.63h-2.25v-4.54c0-.36-.07-.63-.22-.8-.15-.17-.41-.26-.8-.26-.44 0-.76.17-.98.52v5.07h-2.24V14.6h2.12zm8.22-1.79v1.79h1.18v1.55h-1.18v3.29c0 .27.05.46.15.56.1.11.29.16.58.16.22 0 .41-.01.56-.04v1.6c-.4.13-.82.19-1.26.19-.77 0-1.34-.18-1.71-.54-.37-.36-.55-.91-.55-1.65v-3.57h-.92V14.6h.92v-1.79h2.23zm2.04-.06c0-.32.12-.58.35-.78.23-.2.53-.31.9-.31s.67.1.9.31c.23.2.35.46.35.78s-.12.58-.35.78c-.23.2-.53.31-.9.31s-.67-.1-.9-.31c-.23-.2-.35-.47-.35-.78zm2.38 9.04h-2.25V14.6h2.25v7.19zm3.99-8.98v1.79h1.18v1.55h-1.18v3.29c0 .27.05.46.15.56.1.11.29.16.58.16.22 0 .41-.01.56-.04v1.6c-.4.13-.82.19-1.26.19-.77 0-1.34-.18-1.71-.54-.37-.36-.55-.91-.55-1.65v-3.57h-.92V14.6h.92v-1.79h2.23zm4.93 5.84l1.2-4.05h2.4l-2.93 8.39-.13.31c-.42.93-1.15 1.39-2.21 1.39-.29 0-.6-.04-.92-.13v-1.59h.29c.31 0 .55-.05.72-.14.17-.09.29-.25.37-.49l.18-.48-2.5-7.26h2.39l1.14 4.05zm-91.39 10.6v1.79h1.18v1.55h-1.18v3.29c0 .27.05.46.15.56.1.11.29.16.58.16.22 0 .41-.01.56-.04v1.6c-.4.13-.82.19-1.26.19-.77 0-1.34-.18-1.71-.54-.37-.36-.55-.91-.55-1.65v-3.57h-.92v-1.55h.92v-1.79h2.23zm4.25 2.56c.48-.6 1.09-.9 1.83-.9.79 0 1.39.23 1.79.7.4.47.61 1.16.62 2.08v4.54h-2.25v-4.48c0-.38-.08-.66-.23-.84-.16-.18-.42-.27-.79-.27-.46 0-.79.15-.98.44v5.15h-2.24v-10.2h2.24v3.78zm8.97 6.55c-1.1 0-2-.33-2.68-.99-.68-.66-1.02-1.51-1.02-2.57v-.19c0-.73.14-1.38.41-1.95.27-.56.67-1 1.19-1.31.52-.31 1.14-.46 1.86-.46 1.01 0 1.81.31 2.39.94.58.63.88 1.5.88 2.62v.87h-4.45c.08.4.25.72.52.95.27.23.62.35 1.05.35.71 0 1.26-.25 1.66-.74l1.02 1.21c-.28.39-.67.69-1.19.92-.5.24-1.05.35-1.64.35zm-.26-5.73c-.66 0-1.05.43-1.17 1.3h2.26v-.17c.01-.36-.08-.64-.27-.83-.19-.2-.46-.3-.82-.3zm4.68 5.6V32.6h-1.04v-1.55h1.04v-.57c0-.82.24-1.45.72-1.91.48-.45 1.16-.68 2.03-.68.32 0 .67.05 1.05.14l.01 1.65c-.14-.04-.32-.06-.55-.06-.68 0-1.02.29-1.02.88v.55h1.4v1.55h-1.4v5.63h-2.24zm7.04-8.98v1.79h1.18v1.55h-1.18v3.29c0 .27.05.46.15.56.1.11.29.16.58.16.22 0 .41-.01.56-.04v1.6c-.4.13-.82.19-1.26.19-.77 0-1.34-.18-1.71-.54-.37-.36-.55-.91-.55-1.65v-3.57h-.92v-1.55h.92v-1.79h2.23zm9.5 8.98c-.08-.15-.15-.36-.21-.64-.41.52-.99.78-1.73.78-.68 0-1.25-.2-1.73-.61-.47-.41-.71-.92-.71-1.54 0-.78.29-1.37.86-1.77.58-.4 1.41-.6 2.51-.6h.69v-.38c0-.66-.29-.99-.86-.99-.53 0-.8.26-.8.79h-2.24c0-.69.3-1.26.89-1.69.59-.43 1.34-.65 2.26-.65s1.64.22 2.17.67c.53.45.8 1.06.82 1.84v3.18c.01.66.11 1.16.31 1.51v.11h-2.23zm-1.4-1.46c.28 0 .51-.06.69-.18.18-.12.32-.25.4-.41v-1.15h-.65c-.78 0-1.17.35-1.17 1.05 0 .2.07.37.21.49.13.13.31.2.52.2zm6.93 1.46h-2.25v-10.2h2.25v10.2zm4.86.13c-1.1 0-2-.33-2.68-.99-.68-.66-1.02-1.51-1.02-2.57v-.19c0-.73.14-1.38.41-1.95.27-.56.67-1 1.19-1.31.52-.31 1.14-.46 1.86-.46 1.01 0 1.81.31 2.39.94.58.63.88 1.5.88 2.62v.87h-4.45c.08.4.25.72.52.95.27.23.62.35 1.05.35.71 0 1.26-.25 1.66-.74l1.02 1.21c-.28.39-.67.69-1.19.92-.5.24-1.05.35-1.64.35zm-.25-5.73c-.66 0-1.05.43-1.17 1.3h2.26v-.17c.01-.36-.08-.64-.27-.83-.2-.2-.47-.3-.82-.3zm8.53.44l-.74-.05c-.7 0-1.16.22-1.36.66v4.55h-2.24v-7.19h2.1l.07.92c.38-.7.9-1.06 1.57-1.06.24 0 .45.03.62.08l-.02 2.09zm3.74-3.82v1.79h1.18v1.55h-1.18v3.29c0 .27.05.46.15.56.1.11.29.16.58.16.22 0 .41-.01.56-.04v1.6c-.4.13-.82.19-1.26.19-.77 0-1.34-.18-1.71-.54-.37-.36-.55-.91-.55-1.65v-3.57h-.92v-1.55h.92v-1.79h2.23zm5.83 6.96c0-.19-.1-.34-.3-.46-.2-.12-.58-.23-1.14-.36-.56-.12-1.02-.29-1.38-.49-.36-.2-.64-.45-.83-.73a1.77 1.77 0 0 1-.29-.99c0-.66.27-1.2.82-1.63.54-.43 1.26-.64 2.14-.64.95 0 1.71.22 2.29.64.58.43.86.99.86 1.69h-2.25c0-.58-.3-.86-.91-.86-.23 0-.43.07-.59.2-.16.13-.24.29-.24.49s.1.36.29.48c.19.12.51.23.93.31.43.08.8.18 1.13.29 1.08.37 1.62 1.04 1.62 2 0 .66-.29 1.19-.87 1.6-.58.41-1.34.62-2.26.62-.62 0-1.16-.11-1.65-.33-.48-.22-.86-.52-1.13-.9-.27-.38-.41-.78-.41-1.2h2.09c.01.33.12.57.33.73.21.15.48.23.82.23.31 0 .53-.06.69-.19.16-.14.24-.3.24-.5z"/></svg>