<svg id="Layer_1" xmlns="http://www.w3.org/2000/svg" viewBox="0 0 320 50"><style>.st0{fill:url(#SVGID_1_)}</style><linearGradient id="SVGID_1_" gradientUnits="userSpaceOnUse" x1="102.612" y1="25" x2="240.612" y2="25"><stop offset="0" stop-color="#18b9fb"/><stop offset=".5" stop-color="#782eeb"/><stop offset="1" stop-color="#e82d8a"/></linearGradient><path class="st0" d="M108.1 20.67h-2.81l-.49 1.59h-2.19l3.12-8.5h1.93l3.14 8.5h-2.2l-.5-1.59zm-2.32-1.59h1.83l-.92-2.95-.91 2.95zm8.21 1.77c.28 0 .49-.07.64-.22.15-.15.23-.36.22-.63h1.84c0 .69-.25 1.26-.74 1.7s-1.13.67-1.92.67c-.92 0-1.64-.29-2.17-.86s-.79-1.37-.79-2.39v-.08c0-.64.12-1.2.35-1.69.24-.49.57-.86 1.02-1.13.44-.26.97-.39 1.58-.39.82 0 1.47.23 1.95.68.48.46.72 1.07.72 1.85h-1.84c0-.33-.08-.58-.24-.75-.16-.18-.37-.26-.64-.26-.51 0-.81.32-.89.97-.03.21-.04.49-.04.85 0 .63.08 1.07.23 1.32.15.24.39.36.72.36zm6.21 0c.28 0 .49-.07.64-.22.15-.15.23-.36.22-.63h1.84c0 .69-.25 1.26-.74 1.7s-1.13.67-1.92.67c-.92 0-1.64-.29-2.17-.86s-.79-1.37-.79-2.39v-.08c0-.64.12-1.2.35-1.69.24-.49.57-.86 1.02-1.13.44-.26.97-.39 1.58-.39.82 0 1.47.23 1.95.68.48.46.72 1.07.72 1.85h-1.84c0-.33-.08-.58-.24-.75-.16-.18-.37-.26-.64-.26-.51 0-.81.32-.89.97-.03.21-.04.49-.04.85 0 .63.08 1.07.23 1.32.15.24.39.36.72.36zm6.59 1.52c-.97 0-1.75-.29-2.35-.87-.6-.58-.9-1.33-.9-2.26v-.16c0-.65.12-1.22.36-1.71s.59-.88 1.05-1.15c.46-.27 1-.41 1.63-.41.89 0 1.59.28 2.1.83.51.55.77 1.32.77 2.3v.76h-3.91c.07.35.22.63.46.83.24.2.54.3.92.3.62 0 1.11-.22 1.46-.65l.9 1.06c-.25.34-.59.61-1.04.81s-.93.32-1.45.32zm-.22-5.03c-.58 0-.92.38-1.03 1.14h1.98v-.15c.01-.32-.07-.56-.24-.73s-.4-.26-.71-.26zm6.98 3.14c0-.17-.09-.3-.26-.4s-.51-.21-1-.32-.89-.25-1.21-.43-.56-.39-.73-.64-.25-.54-.25-.87c0-.58.24-1.06.72-1.43.48-.38 1.1-.56 1.88-.56.83 0 1.5.19 2.01.57.51.38.76.87.76 1.49h-1.97c0-.51-.27-.76-.8-.76-.21 0-.38.06-.52.17a.53.53 0 0 0-.21.43c0 .18.09.32.26.43s.44.2.82.27.71.15.99.25c.95.33 1.42.91 1.42 1.76 0 .58-.26 1.04-.77 1.41s-1.17.54-1.99.54c-.54 0-1.02-.1-1.45-.29-.42-.19-.75-.46-.99-.79s-.36-.69-.36-1.06h1.84c.01.29.11.5.29.64.19.13.43.2.72.2.27 0 .47-.05.6-.16s.2-.28.2-.45zm6.12 0c0-.17-.09-.3-.26-.4s-.51-.21-1-.32c-.49-.11-.89-.25-1.21-.43-.32-.18-.56-.39-.73-.64-.17-.25-.25-.54-.25-.87 0-.58.24-1.06.72-1.43s1.1-.56 1.88-.56c.83 0 1.5.19 2.01.57s.76.87.76 1.49h-1.97c0-.51-.27-.76-.8-.76-.21 0-.38.06-.52.17a.53.53 0 0 0-.21.43c0 .18.09.32.26.43.17.11.44.2.82.27s.71.15.99.25c.95.33 1.42.91 1.42 1.76 0 .58-.26 1.04-.77 1.41-.51.36-1.17.54-1.99.54-.54 0-1.02-.1-1.45-.29-.42-.19-.75-.46-.99-.79s-.36-.69-.36-1.06h1.84c.01.29.11.5.29.64.19.13.43.2.72.2.27 0 .47-.05.6-.16s.2-.28.2-.45zm9.35 1.77c-.07-.13-.13-.32-.19-.57-.36.46-.87.68-1.52.68-.6 0-1.1-.18-1.52-.54-.42-.36-.62-.81-.62-1.36 0-.68.25-1.2.76-1.55.51-.35 1.24-.53 2.21-.53h.61v-.33c0-.58-.25-.87-.75-.87-.47 0-.7.23-.7.69h-1.97c0-.61.26-1.11.78-1.49s1.18-.57 1.99-.57 1.44.2 1.91.59c.47.39.71.93.72 1.62v2.79c.01.58.1 1.02.27 1.33v.1h-1.98zm-1.23-1.28c.25 0 .45-.05.61-.16.16-.11.28-.22.35-.36v-1.01h-.57c-.68 0-1.03.31-1.03.92 0 .18.06.32.18.43.12.12.27.18.46.18zm5.82-5.03l.06.74c.44-.57 1.04-.86 1.8-.86.66 0 1.15.2 1.47.59.32.39.49.98.5 1.77v4.07h-1.97v-3.99c0-.32-.06-.55-.19-.7-.13-.15-.36-.22-.7-.22-.39 0-.67.15-.86.46v4.46h-1.97v-6.31h1.86zm11.46 6.31c-.07-.13-.13-.32-.19-.57-.36.46-.87.68-1.52.68-.6 0-1.1-.18-1.52-.54-.42-.36-.62-.81-.62-1.36 0-.68.25-1.2.76-1.55.51-.35 1.24-.53 2.21-.53h.61v-.33c0-.58-.25-.87-.75-.87-.47 0-.7.23-.7.69h-1.97c0-.61.26-1.11.78-1.49s1.18-.57 1.99-.57 1.44.2 1.91.59c.47.39.71.93.72 1.62v2.79c.01.58.1 1.02.27 1.33v.1h-1.98zm-1.23-1.28c.25 0 .45-.05.61-.16.16-.11.28-.22.35-.36v-1.01h-.57c-.68 0-1.03.31-1.03.92 0 .18.06.32.18.43.12.12.28.18.46.18zm9.47-1.31l.64-3.72h1.88l-1.49 6.31h-1.66l-1.04-3.75-1.05 3.75h-1.66l-1.49-6.31h1.88l.62 3.81 1-3.81h1.37l1 3.72zm6.78 2.59c-.07-.13-.13-.32-.19-.57-.36.46-.87.68-1.52.68-.6 0-1.1-.18-1.52-.54-.42-.36-.62-.81-.62-1.36 0-.68.25-1.2.76-1.55s1.24-.53 2.21-.53h.61v-.33c0-.58-.25-.87-.75-.87-.47 0-.7.23-.7.69h-1.97c0-.61.26-1.11.78-1.49s1.18-.57 1.99-.57 1.44.2 1.91.59c.47.39.71.93.72 1.62v2.79c.01.58.1 1.02.27 1.33v.1h-1.98zm-1.23-1.28c.25 0 .45-.05.61-.16.16-.11.28-.22.35-.36v-1.01h-.57c-.68 0-1.03.31-1.03.92 0 .18.06.32.18.43s.28.18.46.18zm7.84-3.25l-.65-.05c-.62 0-1.02.19-1.19.58v4h-1.97v-6.31h1.84l.06.81c.33-.62.79-.93 1.38-.93.21 0 .39.02.55.07l-.02 1.83zm.35 1.33c0-1 .22-1.79.65-2.36.43-.58 1.03-.86 1.81-.86.56 0 1.04.22 1.42.67v-3.2h1.97v8.96h-1.77l-.1-.68c-.4.53-.92.79-1.54.79-.75 0-1.35-.29-1.79-.86-.43-.58-.65-1.4-.65-2.46zm1.96.12c0 1.12.33 1.68.98 1.68.44 0 .75-.18.93-.55v-2.4c-.18-.37-.49-.56-.92-.56-.61 0-.94.49-.99 1.47v.36zm8.85.18h-3.51v-1.52h3.51v1.52zm6.98.31l.64-3.72h1.88l-1.49 6.31h-1.66l-1.04-3.75-1.05 3.75h-1.66l-1.49-6.31h1.88l.62 3.81 1-3.81h1.37l1 3.72zm3.21-5.35c0-.28.1-.51.3-.69.2-.18.46-.27.79-.27.32 0 .59.09.79.27.2.18.3.41.3.69 0 .28-.1.51-.3.69-.2.18-.46.27-.79.27-.32 0-.59-.09-.79-.27-.2-.18-.3-.41-.3-.69zm2.09 7.94h-1.97v-6.31h1.97v6.31zm3.02-6.31l.06.74c.44-.57 1.04-.86 1.8-.86.66 0 1.15.2 1.47.59.32.39.49.98.5 1.77v4.07h-1.97v-3.99c0-.32-.06-.55-.19-.7s-.36-.22-.7-.22c-.39 0-.67.15-.86.46v4.46h-1.97v-6.31h1.86zm6.74 0l.06.74c.44-.57 1.04-.86 1.8-.86.66 0 1.15.2 1.47.59.32.39.49.98.5 1.77v4.07h-1.97v-3.99c0-.32-.06-.55-.19-.7-.13-.15-.36-.22-.7-.22-.39 0-.67.15-.86.46v4.46h-1.97v-6.31h1.86zm4.92-1.63c0-.28.1-.51.3-.69.2-.18.46-.27.79-.27s.59.09.79.27c.2.18.3.41.3.69 0 .28-.1.51-.3.69-.2.18-.46.27-.79.27s-.59-.09-.79-.27c-.2-.18-.3-.41-.3-.69zm2.09 7.94h-1.97v-6.31h1.97v6.31zm3.01-6.31l.06.74c.44-.57 1.04-.86 1.8-.86.66 0 1.15.2 1.47.59.32.39.49.98.5 1.77v4.07h-1.97v-3.99c0-.32-.06-.55-.19-.7-.13-.15-.36-.22-.7-.22-.39 0-.67.15-.86.46v4.46h-1.97v-6.31h1.86zm4.71 3.11c0-.64.11-1.2.32-1.69.21-.49.51-.87.9-1.13s.85-.4 1.37-.4c.66 0 1.17.22 1.54.67l.07-.55h1.79v6.07c0 .56-.13 1.04-.39 1.45s-.63.73-1.12.95-1.06.33-1.7.33c-.46 0-.91-.09-1.34-.26-.43-.18-.77-.4-.99-.68l.82-1.16c.37.43.85.65 1.45.65.87 0 1.31-.45 1.31-1.34v-.2c-.38.42-.85.62-1.43.62-.77 0-1.39-.29-1.87-.88-.47-.59-.71-1.38-.71-2.37v-.08zm1.97.12c0 .52.1.93.29 1.23s.47.45.82.45c.42 0 .73-.14.93-.43v-2.65c-.19-.29-.5-.43-.92-.43-.35 0-.62.16-.82.47-.2.31-.3.77-.3 1.36zM107 32.06l-.65-.05c-.62 0-1.02.19-1.19.58v4h-1.97v-6.31h1.84l.06.81c.33-.62.79-.93 1.38-.93.21 0 .39.02.55.07l-.02 1.83zm3.65 4.65c-.97 0-1.75-.29-2.35-.87-.6-.58-.9-1.33-.9-2.26v-.16c0-.65.12-1.22.36-1.71s.59-.88 1.05-1.15c.46-.27 1-.41 1.63-.41.89 0 1.59.28 2.1.83.51.55.77 1.32.77 2.3v.76h-3.91c.07.35.22.63.46.83.24.2.54.3.92.3.62 0 1.11-.22 1.46-.65l.9 1.06c-.25.34-.59.61-1.04.81-.45.22-.93.32-1.45.32zm-.22-5.03c-.58 0-.92.38-1.03 1.14h1.98v-.15c.01-.32-.07-.56-.24-.73s-.4-.26-.71-.26zm6.98 3.14c0-.17-.09-.3-.26-.4-.18-.1-.51-.21-1-.32s-.89-.25-1.21-.43c-.32-.18-.56-.39-.73-.64s-.25-.54-.25-.87c0-.58.24-1.06.72-1.43.48-.38 1.1-.56 1.88-.56.83 0 1.5.19 2.01.57s.76.87.76 1.49h-1.97c0-.51-.27-.76-.8-.76-.21 0-.38.06-.52.17s-.21.26-.21.43c0 .18.09.32.26.43.17.11.44.2.82.27.38.07.71.15.99.25.95.33 1.42.91 1.42 1.76 0 .58-.26 1.04-.77 1.41-.51.36-1.17.54-1.99.54-.54 0-1.02-.1-1.45-.29-.42-.19-.75-.46-.99-.79s-.36-.69-.36-1.06h1.84c.01.29.11.5.29.64s.43.2.72.2c.27 0 .47-.05.6-.16.13-.13.2-.28.2-.45zm2.57-1.44c0-.63.12-1.19.37-1.68s.6-.87 1.06-1.13c.46-.26 1-.4 1.62-.4.95 0 1.69.29 2.23.88.54.59.82 1.38.82 2.39v.07c0 .98-.27 1.77-.82 2.34s-1.29.87-2.22.87c-.9 0-1.62-.27-2.16-.81s-.84-1.27-.88-2.19l-.02-.34zm1.96.12c0 .58.09 1.01.27 1.28s.45.41.81.41c.7 0 1.06-.54 1.07-1.62v-.2c0-1.13-.36-1.7-1.09-1.7-.66 0-1.01.49-1.07 1.46l.01.37zm7.07 3.09h-1.97v-8.96h1.97v8.96zm4.97-.68c-.42.53-.98.8-1.69.8-.69 0-1.22-.2-1.57-.6-.36-.4-.53-.98-.53-1.74v-4.09h1.97v4.1c0 .54.26.81.79.81.45 0 .77-.16.96-.48v-4.43h1.98v6.31h-1.84l-.07-.68zm5.27-7.2v1.57h1.04v1.37h-1.04v2.89c0 .24.04.4.13.5s.25.14.51.14c.19 0 .36-.01.49-.04v1.41c-.35.11-.72.17-1.11.17-.68 0-1.18-.16-1.5-.48-.32-.32-.48-.8-.48-1.45v-3.13h-.81v-1.37h.81v-1.57h1.96zm1.8-.06c0-.28.1-.51.3-.69s.46-.27.79-.27c.32 0 .59.09.79.27s.3.41.3.69-.1.51-.3.69c-.2.18-.46.27-.79.27-.32 0-.59-.09-.79-.27-.2-.18-.3-.41-.3-.69zm2.09 7.94h-1.97v-6.31h1.97v6.31zm.96-3.21c0-.63.12-1.19.37-1.68s.6-.87 1.06-1.13c.46-.26 1-.4 1.62-.4.95 0 1.69.29 2.23.88.54.59.82 1.38.82 2.39v.07c0 .98-.27 1.77-.82 2.34s-1.29.87-2.22.87c-.9 0-1.62-.27-2.16-.81s-.84-1.27-.88-2.19l-.02-.34zm1.96.12c0 .58.09 1.01.27 1.28s.45.41.81.41c.7 0 1.06-.54 1.07-1.62v-.2c0-1.13-.36-1.7-1.09-1.7-.66 0-1.01.49-1.07 1.46l.01.37zm6.8-3.22l.06.74c.44-.57 1.04-.86 1.8-.86.66 0 1.15.2 1.47.59.32.39.49.98.5 1.77v4.07h-1.97V32.6c0-.32-.06-.55-.19-.7s-.36-.22-.7-.22c-.39 0-.67.15-.86.46v4.46H151v-6.31h1.86zm10.2-1.57v1.57h1.04v1.37h-1.04v2.89c0 .24.04.4.13.5s.25.14.51.14c.19 0 .36-.01.49-.04v1.41c-.35.11-.72.17-1.11.17-.68 0-1.18-.16-1.5-.48-.32-.32-.48-.8-.48-1.45v-3.13h-.81v-1.37h.81v-1.57h1.96zm4.87 8c-.97 0-1.75-.29-2.35-.87-.6-.58-.9-1.33-.9-2.26v-.16c0-.65.12-1.22.36-1.71s.59-.88 1.05-1.15c.46-.27 1-.41 1.63-.41.89 0 1.59.28 2.1.83.51.55.77 1.32.77 2.3v.76h-3.91c.07.35.22.63.46.83.24.2.54.3.92.3.62 0 1.11-.22 1.46-.65l.9 1.06c-.25.34-.59.61-1.04.81-.45.22-.94.32-1.45.32zm-.22-5.03c-.58 0-.92.38-1.03 1.14h1.98v-.15c.01-.32-.07-.56-.24-.73-.16-.17-.4-.26-.71-.26zm7.23 4.91c-.07-.13-.13-.32-.19-.57-.36.46-.87.68-1.52.68-.6 0-1.1-.18-1.52-.54-.42-.36-.62-.81-.62-1.36 0-.68.25-1.2.76-1.55.51-.35 1.24-.53 2.21-.53h.61v-.32c0-.58-.25-.87-.75-.87-.47 0-.7.23-.7.69h-1.97c0-.61.26-1.11.78-1.49s1.18-.57 1.99-.57 1.44.2 1.91.59c.47.39.71.93.72 1.62v2.79c.01.58.1 1.02.27 1.33v.1h-1.98zm-1.24-1.28c.25 0 .45-.05.61-.16.16-.11.28-.22.35-.36v-1.01h-.57c-.68 0-1.03.31-1.03.92 0 .18.06.32.18.43.12.12.28.18.46.18zm5.88-5.03l.06.74c.45-.57 1.05-.86 1.8-.86.8 0 1.34.32 1.62.95.43-.63 1.05-.95 1.86-.95 1.28 0 1.94.77 1.97 2.32v4.11h-1.97V32.6c0-.32-.05-.56-.16-.71-.11-.15-.31-.22-.6-.22-.39 0-.68.17-.87.52l.01.08v4.31h-1.97v-3.97c0-.33-.05-.57-.16-.72s-.31-.22-.6-.22c-.38 0-.67.17-.86.52v4.39h-1.97v-6.31h1.84z"/></svg>