<svg id="Layer_1" xmlns="http://www.w3.org/2000/svg" viewBox="0 0 320 50"><style>.st0{fill:#021d8b}</style><path class="st0" d="M39.31 12.62h-1.26v3.47h-.7v-3.47H36.1v-.57h3.2v.57zM40.44 13.42c.22-.26.5-.38.83-.38.64 0 .96.37.97 1.09v1.96h-.67v-1.94c0-.21-.04-.35-.13-.44-.09-.09-.22-.13-.4-.13a.64.64 0 0 0-.6.36v2.14h-.67v-4.26h.67v1.6zM44.25 16.14c-.43 0-.77-.13-1.04-.4s-.4-.63-.4-1.07v-.08c0-.3.06-.57.17-.8a1.314 1.314 0 0 1 1.19-.75c.41 0 .72.13.95.39s.33.63.33 1.11v.27h-1.96c.02.25.1.44.25.59.15.14.33.22.55.22.31 0 .56-.12.75-.38l.36.35c-.12.18-.28.32-.48.42-.2.08-.42.13-.67.13zm-.08-2.57c-.18 0-.33.07-.45.19-.11.13-.19.31-.22.54h1.28v-.05c-.02-.23-.08-.4-.18-.51-.1-.11-.24-.17-.43-.17z"/><g><path class="st0" d="M82.25 25.22a.959.959 0 0 1-.08-.28c-.21.22-.48.34-.79.34-.3 0-.55-.09-.74-.26a.822.822 0 0 1-.29-.64c0-.32.12-.56.36-.74.24-.17.58-.26 1.02-.26h.41v-.2c0-.16-.04-.28-.13-.37-.09-.09-.22-.14-.4-.14-.15 0-.28.04-.38.12-.1.08-.15.17-.15.29h-.67c0-.16.05-.32.16-.46s.26-.26.44-.34c.19-.08.4-.12.63-.12.35 0 .63.09.84.26s.32.42.32.74v1.35c0 .27.04.49.11.65v.05h-.66zm-.74-.49c.13 0 .26-.03.38-.1.12-.06.21-.15.26-.26v-.57h-.36c-.25 0-.44.04-.56.13-.13.09-.19.21-.19.37 0 .13.04.23.13.31s.19.12.34.12zM86.16 23.75c0 .46-.11.83-.32 1.11-.21.28-.49.42-.85.42-.33 0-.59-.11-.79-.33v1.42h-.67v-4.15h.62l.03.3c.2-.24.47-.36.81-.36.37 0 .65.14.86.41.21.27.31.65.31 1.13v.05zm-.68-.06c0-.3-.06-.54-.18-.71a.57.57 0 0 0-.51-.26c-.28 0-.47.11-.59.34v1.33c.12.23.32.35.6.35.21 0 .38-.09.5-.26s.18-.44.18-.79zM89.35 23.75c0 .46-.11.83-.32 1.11-.21.28-.49.42-.85.42-.33 0-.59-.11-.79-.33v1.42h-.67v-4.15h.62l.03.3c.2-.24.47-.36.81-.36.37 0 .65.14.86.41.21.27.31.65.31 1.13v.05zm-.67-.06c0-.3-.06-.54-.18-.71a.57.57 0 0 0-.51-.26c-.28 0-.47.11-.59.34v1.33c.12.23.32.35.6.35.21 0 .38-.09.5-.26s.18-.44.18-.79zM90.34 24.51c.13 0 .22.04.29.11s.1.16.1.27c0 .11-.03.19-.1.26s-.17.1-.29.1c-.12 0-.22-.03-.29-.1-.07-.07-.1-.16-.1-.26s.03-.2.1-.27.17-.11.29-.11z"/></g><g id="PG_x5F_Logo_x5F_Full_1_"><path class="st0" d="M75.95 21.54c0-.09.03-.17.09-.23s.14-.09.23-.09a.326.326 0 0 1 .32.32v3.56c0 .09-.03.17-.09.23s-.14.09-.23.09a.326.326 0 0 1-.32-.32v-3.56zM58 27.15c-.26.2-.57.29-.92.29-.2-.02-.35-.04-.47-.08-.11-.03-.22-.08-.32-.15-.1-.06-.14-.16-.14-.27 0-.1.03-.17.09-.23s.14-.09.23-.09c.07 0 .14.02.19.06a.892.892 0 0 0 .79.05c.1-.04.2-.11.28-.18.08-.08.14-.16.19-.26.04-.1.07-.21.08-.33v-2.4c0-.09.03-.17.09-.23s.14-.09.23-.09a.326.326 0 0 1 .32.32v2.43c-.01.46-.24.87-.64 1.16zM43.59 20.09c0-.09.03-.17.09-.23s.14-.09.23-.09a.326.326 0 0 1 .32.32v.24c0 .09-.03.17-.09.23s-.14.09-.23.09a.326.326 0 0 1-.32-.32v-.24zm0 1.48c0-.09.03-.17.09-.23s.14-.09.23-.09a.326.326 0 0 1 .32.32v3.53c0 .09-.03.17-.09.23s-.14.09-.23.09a.326.326 0 0 1-.32-.32v-3.53zM40.81 21.65c0-.09.03-.16.09-.22s.13-.09.22-.09c.07 0 .14.02.19.07.06.05.09.11.11.18.26-.19.56-.29.9-.29.19.02.34.04.46.07.11.03.21.08.31.14.09.06.14.15.14.27 0 .09-.03.17-.09.23s-.13.09-.22.09a.33.33 0 0 1-.19-.06.856.856 0 0 0-1.04.13c-.08.07-.14.16-.18.26-.04.1-.07.21-.07.32v2.35c0 .09-.03.16-.09.22s-.13.09-.22.09c-.08 0-.15-.03-.22-.09a.294.294 0 0 1-.09-.22v-3.45zM44.66 21.69a.277.277 0 0 1-.03-.13c0-.08.03-.15.08-.22.06-.07.13-.1.23-.1.06 0 .12.02.17.05.05.03.09.08.12.14l1.24 2.9 1.24-2.9c.06-.13.15-.19.29-.19.1 0 .17.03.23.1s.08.14.08.22c0 .04-.01.09-.03.13l-1.53 3.57a.3.3 0 0 1-.29.19c-.15 0-.24-.06-.29-.19l-1.51-3.57zM48.44 22.73a1.482 1.482 0 0 1 .45-1.07c.14-.14.3-.24.48-.32.18-.08.38-.12.59-.12.21 0 .4.04.59.12.18.08.35.19.48.32.14.14.25.3.33.48.08.18.12.38.12.59v2.37c0 .09-.03.17-.1.23a.31.31 0 0 1-.22.09.314.314 0 0 1-.32-.25c-.26.19-.55.29-.89.29-.21 0-.4-.04-.59-.12-.18-.08-.35-.19-.48-.32-.14-.14-.25-.3-.33-.48-.08-.18-.12-.38-.12-.59v-1.22zm.64 1.21c0 .12.02.23.07.34.05.11.11.2.19.28.08.08.17.14.28.19.11.04.22.07.34.07.12 0 .23-.02.34-.06.11-.04.2-.1.28-.18.08-.08.14-.16.19-.26.05-.1.07-.21.08-.33v-1.25c0-.12-.02-.23-.07-.34a.923.923 0 0 0-.19-.28.923.923 0 0 0-.28-.19.983.983 0 0 0-.34-.07c-.12 0-.24.02-.34.07-.11.04-.2.11-.28.19-.08.08-.14.18-.19.28-.04.11-.07.22-.07.34v1.2zM52.07 22.73c0-.21.04-.41.12-.6.08-.18.19-.34.34-.48.14-.13.31-.24.5-.32.19-.08.39-.12.6-.12.04 0 .12.01.23.02.11.01.24.05.38.11s.28.16.42.28c.14.13.25.3.34.53.02.04.03.08.03.12 0 .09-.03.17-.09.23s-.14.09-.23.09c-.07 0-.13-.02-.18-.05a.327.327 0 0 1-.11-.15.867.867 0 0 0-.34-.39.84.84 0 0 0-.48-.14c-.12 0-.24.02-.34.07-.11.04-.2.11-.28.19-.08.08-.14.18-.19.28-.04.11-.07.22-.07.34v1.21c0 .12.02.23.07.34.05.11.11.2.19.28.08.08.17.14.28.19.11.04.22.07.34.07.18 0 .34-.05.49-.14.15-.1.25-.23.33-.39.03-.06.07-.11.12-.15.05-.04.11-.05.18-.05.09 0 .17.03.23.1.06.06.09.14.09.22 0 .04-.01.08-.03.12-.11.25-.25.43-.4.56-.16.13-.31.22-.46.28-.15.06-.27.09-.38.09-.1.01-.16.01-.16.01-.21 0-.4-.04-.59-.12-.18-.08-.35-.19-.48-.32-.14-.14-.25-.3-.33-.48-.08-.18-.12-.38-.12-.59v-1.24zM63.64 21.57c0-.09.03-.17.09-.23s.14-.09.23-.09a.326.326 0 0 1 .32.32v2.37c0 .12.02.23.07.34.04.11.11.2.19.28.08.08.18.14.28.19.11.04.22.07.34.07.12 0 .23-.02.34-.07.11-.04.2-.11.28-.19.08-.08.14-.18.19-.28.05-.11.07-.22.07-.34v-2.37c0-.09.03-.17.09-.23s.14-.09.23-.09a.326.326 0 0 1 .32.32v2.37a1.482 1.482 0 0 1-.45 1.07c-.14.14-.3.25-.48.32-.18.08-.38.12-.59.12-.21 0-.41-.04-.59-.12a1.75 1.75 0 0 1-.48-.32c-.14-.14-.25-.3-.33-.48-.08-.18-.12-.38-.12-.59v-2.37zM67.28 22.73a1.482 1.482 0 0 1 .45-1.07c.14-.14.3-.24.48-.32.18-.08.38-.12.59-.12.21 0 .4.04.59.12.18.08.35.19.48.32.14.14.25.3.33.48.08.18.12.38.12.59v2.37c0 .09-.03.17-.1.23a.31.31 0 0 1-.22.09.314.314 0 0 1-.32-.25c-.26.19-.55.29-.89.29-.21 0-.4-.04-.59-.12-.18-.08-.35-.19-.48-.32-.14-.14-.25-.3-.33-.48-.08-.18-.12-.38-.12-.59v-1.22zm.64 1.21c0 .12.02.23.07.34.05.11.11.2.19.28.08.08.17.14.28.19.11.04.22.07.34.07.12 0 .23-.02.34-.06.11-.04.2-.1.28-.18.08-.08.14-.16.19-.26.05-.1.07-.21.08-.33v-1.25c0-.12-.02-.23-.07-.34a.923.923 0 0 0-.19-.28.923.923 0 0 0-.28-.19.983.983 0 0 0-.34-.07c-.12 0-.24.02-.34.07-.11.04-.2.11-.28.19-.08.08-.14.18-.19.28-.04.11-.07.22-.07.34v1.2zM70.95 21.65c0-.09.03-.16.09-.22s.13-.09.22-.09c.07 0 .14.02.19.07.06.05.09.11.11.18.26-.19.56-.29.9-.29.19.02.34.04.46.07.11.03.21.08.31.14.09.06.14.15.14.27 0 .09-.03.17-.09.23s-.13.09-.22.09a.33.33 0 0 1-.19-.06.856.856 0 0 0-1.04.13c-.08.07-.14.16-.18.26-.04.1-.07.21-.07.32v2.35c0 .09-.03.16-.09.22s-.13.09-.22.09c-.08 0-.15-.03-.22-.09a.294.294 0 0 1-.09-.22v-3.45z"/><path class="st0" d="M75.95 20.09c0-.09.03-.17.09-.23s.14-.09.23-.09a.326.326 0 0 1 .32.32v3.85a1.482 1.482 0 0 1-.45 1.07c-.14.14-.3.25-.48.32-.18.08-.38.12-.59.12-.21 0-.41-.04-.59-.12a1.75 1.75 0 0 1-.48-.32c-.14-.14-.25-.3-.33-.48-.08-.18-.12-.38-.12-.59v-1.21a1.482 1.482 0 0 1 .45-1.07c.14-.14.3-.24.48-.32.18-.08.38-.12.59-.12.16 0 .32.03.47.08.15.05.29.12.42.21v-1.42zm-1.76 3.85c0 .12.02.23.07.34.04.11.11.2.19.28.08.08.17.14.28.19.11.04.22.07.34.07.12 0 .23-.02.34-.07.11-.04.2-.11.28-.19.08-.08.14-.18.19-.28.05-.11.07-.22.07-.34v-1.21c0-.12-.02-.23-.07-.34a.774.774 0 0 0-.19-.28c-.08-.08-.18-.14-.28-.19a.983.983 0 0 0-.34-.07c-.12 0-.23.02-.34.07-.11.04-.2.11-.28.19-.08.08-.14.18-.19.28-.05.11-.07.22-.07.34v1.21zM55.59 21.57c0-.09.03-.17.09-.23s.14-.09.23-.09a.326.326 0 0 1 .32.32v2.37c0 .12.02.23.07.34.04.11.11.2.19.28.08.08.18.14.28.19.11.04.22.07.34.07.12 0 .23-.02.34-.07.11-.04.2-.11.28-.19.08-.08.14-.18.19-.28.05-.11.07-.22.07-.34v-2.37c0-.09.03-.17.09-.23s.14-.09.23-.09a.326.326 0 0 1 .32.32v2.37a1.482 1.482 0 0 1-.45 1.07c-.14.14-.3.25-.48.32-.18.08-.38.12-.59.12-.21 0-.41-.04-.59-.12a1.75 1.75 0 0 1-.48-.32c-.14-.14-.25-.3-.33-.48-.08-.18-.12-.38-.12-.59v-2.37zM62.75 22.6h-1.33c-.18 0-.32.14-.32.31 0 .18.14.32.32.32h1.06v.5c0 .68-.62 1.2-1.27 1.2-.72 0-1.33-.49-1.33-1.34v-1.92c0-.78.59-1.33 1.31-1.33.61 0 1.08.41 1.26.91.06.1.14.17.29.17.25 0 .41-.2.28-.49-.21-.62-.83-1.25-1.83-1.25-1.15 0-1.97.91-1.97 1.95v1.99c0 1.05.83 1.95 1.97 1.95 1.03 0 1.91-.81 1.91-1.73v-.96c-.01-.16-.17-.28-.35-.28z"/><path class="st0" d="M75.95 21.57c0-.09.03-.17.09-.23s.14-.09.23-.09a.326.326 0 0 1 .32.32v3.53c0 .09-.03.17-.09.23s-.14.09-.23.09a.326.326 0 0 1-.32-.32v-3.53z"/><g><path class="st0" d="M36.76 20.31c0-.09.03-.16.09-.22s.13-.09.22-.09h1.27c.27 0 .52.05.76.15.24.1.44.24.62.41.18.17.32.38.42.61.1.24.16.49.16.76s-.05.52-.16.75c-.1.23-.24.44-.42.61-.18.18-.38.31-.62.41-.24.1-.49.15-.76.15h-.95v1.25c0 .09-.03.16-.09.22s-.13.09-.22.09c-.08 0-.15-.03-.22-.09a.294.294 0 0 1-.09-.22v-4.79zm.63.31v2.61h.95c.19 0 .36-.03.52-.1.16-.07.3-.16.42-.28.12-.12.21-.26.28-.41.07-.16.1-.33.1-.51s-.04-.35-.11-.51c-.07-.16-.17-.3-.29-.41-.12-.12-.26-.21-.42-.28-.16-.07-.33-.1-.51-.1h-.94z"/></g><g><path class="st0" d="M77.03 19.9h-.12v-.08h.34v.08h-.12v.36h-.1v-.36zM77.67 20.09v-.18c-.01.06-.03.12-.05.17l-.05.17h-.08l-.05-.17c-.01-.05-.03-.11-.04-.17 0 .06 0 .13-.01.18l-.01.17h-.09l.03-.44h.13l.04.15c.01.05.03.11.04.16.01-.05.03-.11.04-.16l.05-.15h.13l.02.44h-.1v-.17z"/></g></g></svg>