<svg id="Layer_1" xmlns="https://www.w3.org/2000/svg" viewBox="0 0 300 600"><style>.st0{fill:#fff}.st1{font-family:&apos;Roboto-Bold&apos;}.st2{font-size:28px}</style><path class="st0" d="M74.59 226.85H66.1v23.1h-5.71v-23.1h-8.38v-4.63h22.58v4.63zM82.86 231.59c1.46-1.75 3.29-2.63 5.5-2.63 4.47 0 6.73 2.6 6.8 7.79v13.2h-5.5v-13.04c0-1.18-.25-2.05-.76-2.62-.51-.56-1.35-.85-2.53-.85-1.61 0-2.78.62-3.5 1.87v14.64h-5.5V220.7h5.5v10.89zM108.79 250.33c-3.02 0-5.48-.93-7.38-2.78-1.9-1.85-2.85-4.32-2.85-7.41v-.53c0-2.07.4-3.92 1.2-5.55.8-1.63 1.93-2.89 3.4-3.77 1.47-.88 3.14-1.32 5.02-1.32 2.82 0 5.04.89 6.66 2.67 1.62 1.78 2.43 4.3 2.43 7.56v2.25h-13.12c.18 1.35.71 2.42 1.61 3.24.9.81 2.03 1.22 3.4 1.22 2.12 0 3.78-.77 4.97-2.3l2.7 3.03c-.83 1.17-1.94 2.08-3.35 2.73-1.41.63-2.97.96-4.69.96zm-.63-16.93c-1.09 0-1.98.37-2.66 1.11-.68.74-1.11 1.8-1.3 3.18h7.66v-.44c-.03-1.22-.36-2.17-.99-2.84s-1.54-1.01-2.71-1.01zM131.97 234.51c-.75-.1-1.41-.15-1.98-.15-2.08 0-3.45.7-4.09 2.11v13.48h-5.5v-20.6h5.2l.15 2.46c1.1-1.89 2.63-2.84 4.59-2.84.61 0 1.18.08 1.71.25l-.08 5.29zM144.1 250.33c-3.02 0-5.48-.93-7.38-2.78-1.9-1.85-2.85-4.32-2.85-7.41v-.53c0-2.07.4-3.92 1.2-5.55.8-1.63 1.93-2.89 3.4-3.77 1.47-.88 3.14-1.32 5.02-1.32 2.82 0 5.04.89 6.66 2.67 1.62 1.78 2.43 4.3 2.43 7.56v2.25h-13.12c.18 1.35.71 2.42 1.61 3.24.9.81 2.03 1.22 3.4 1.22 2.12 0 3.78-.77 4.97-2.3l2.7 3.03c-.83 1.17-1.94 2.08-3.35 2.73-1.42.63-2.98.96-4.69.96zm-.63-16.93c-1.09 0-1.98.37-2.66 1.11-.68.74-1.11 1.8-1.3 3.18h7.66v-.44c-.03-1.22-.36-2.17-.99-2.84s-1.54-1.01-2.71-1.01zM183.33 242.47l2.7-13.12h5.31l-5.26 20.6h-4.61l-3.9-12.97-3.9 12.97h-4.59l-5.26-20.6h5.31l2.69 13.1 3.77-13.1h3.98l3.76 13.12zM203.55 250.33c-3.02 0-5.48-.93-7.38-2.78-1.9-1.85-2.85-4.32-2.85-7.41v-.53c0-2.07.4-3.92 1.2-5.55.8-1.63 1.93-2.89 3.4-3.77 1.47-.88 3.14-1.32 5.02-1.32 2.82 0 5.04.89 6.66 2.67 1.62 1.78 2.43 4.3 2.43 7.56v2.25H198.9c.18 1.35.71 2.42 1.61 3.24.9.81 2.03 1.22 3.4 1.22 2.12 0 3.78-.77 4.97-2.3l2.7 3.03c-.83 1.17-1.94 2.08-3.35 2.73-1.4.63-2.97.96-4.68.96zm-.63-16.93c-1.09 0-1.98.37-2.66 1.11-.68.74-1.11 1.8-1.3 3.18h7.66v-.44c-.03-1.22-.36-2.17-.99-2.84s-1.54-1.01-2.71-1.01zM226.72 234.51c-.75-.1-1.41-.15-1.98-.15-2.08 0-3.45.7-4.09 2.11v13.48h-5.5v-20.6h5.2l.15 2.46c1.1-1.89 2.63-2.84 4.59-2.84.61 0 1.18.08 1.71.25l-.08 5.29zM238.85 250.33c-3.02 0-5.48-.93-7.38-2.78-1.9-1.85-2.85-4.32-2.85-7.41v-.53c0-2.07.4-3.92 1.2-5.55.8-1.63 1.93-2.89 3.4-3.77 1.47-.88 3.14-1.32 5.02-1.32 2.82 0 5.04.89 6.66 2.67 1.62 1.78 2.43 4.3 2.43 7.56v2.25h-13.12c.18 1.35.71 2.42 1.61 3.24.9.81 2.03 1.22 3.4 1.22 2.12 0 3.78-.77 4.97-2.3l2.7 3.03c-.83 1.17-1.94 2.08-3.35 2.73-1.41.63-2.97.96-4.69.96zm-.62-16.93c-1.09 0-1.98.37-2.66 1.11-.68.74-1.11 1.8-1.3 3.18h7.66v-.44c-.03-1.22-.36-2.17-.99-2.84s-1.55-1.01-2.71-1.01zM59.03 290.62h3.91c1.86 0 3.24-.47 4.14-1.4.9-.93 1.35-2.17 1.35-3.71 0-1.49-.44-2.65-1.33-3.48-.89-.83-2.11-1.24-3.67-1.24-1.41 0-2.58.39-3.53 1.16-.95.77-1.42 1.77-1.42 3.01h-7.34c0-1.93.52-3.66 1.56-5.19 1.04-1.53 2.5-2.73 4.37-3.59s3.93-1.29 6.18-1.29c3.91 0 6.97.94 9.19 2.81 2.22 1.87 3.33 4.45 3.33 7.73 0 1.69-.52 3.25-1.55 4.67s-2.39 2.51-4.06 3.28c2.08.75 3.63 1.86 4.66 3.35 1.02 1.49 1.54 3.25 1.54 5.28 0 3.28-1.2 5.92-3.59 7.9s-5.56 2.97-9.51 2.97c-3.69 0-6.71-.97-9.05-2.92-2.34-1.95-3.52-4.52-3.52-7.72h7.34c0 1.39.52 2.52 1.56 3.4 1.04.88 2.32 1.32 3.85 1.32 1.74 0 3.11-.46 4.1-1.38.99-.92 1.49-2.15 1.49-3.67 0-3.69-2.03-5.53-6.09-5.53h-3.88v-5.76zM101.54 284.88l.23 3.07c1.95-2.39 4.58-3.58 7.9-3.58 3.54 0 5.97 1.4 7.29 4.19 1.93-2.79 4.68-4.19 8.25-4.19 2.98 0 5.2.87 6.65 2.6 1.46 1.74 2.18 4.35 2.18 7.83v17.54h-7.36v-17.52c0-1.56-.3-2.7-.91-3.42-.61-.72-1.68-1.08-3.22-1.08-2.2 0-3.72 1.05-4.57 3.15l.03 18.86h-7.34v-17.49c0-1.59-.31-2.74-.94-3.45s-1.69-1.07-3.2-1.07c-2.08 0-3.59.86-4.52 2.59v19.42h-7.34v-27.47h6.87zM139.62 277.77c0-1.1.37-2.01 1.1-2.72s1.74-1.07 3.01-1.07c1.25 0 2.25.36 3 1.07s1.12 1.62 1.12 2.72c0 1.12-.38 2.03-1.13 2.74s-1.75 1.07-2.98 1.07-2.23-.36-2.98-1.07-1.14-1.62-1.14-2.74zm7.8 34.58h-7.36v-27.47h7.36v27.47zM161.21 312.35h-7.36v-39h7.36v39zM174.99 312.35h-7.36v-39h7.36v39zM180.99 277.77c0-1.1.37-2.01 1.1-2.72s1.74-1.07 3.01-1.07c1.25 0 2.25.36 3 1.07s1.12 1.62 1.12 2.72c0 1.12-.38 2.03-1.13 2.74s-1.75 1.07-2.98 1.07-2.23-.36-2.98-1.07-1.14-1.62-1.14-2.74zm7.79 34.58h-7.36v-27.47h7.36v27.47zM193.68 298.36c0-2.73.52-5.15 1.57-7.29s2.56-3.78 4.53-4.95 4.26-1.75 6.87-1.75c3.71 0 6.73 1.13 9.08 3.4 2.34 2.27 3.65 5.35 3.92 9.24l.05 1.88c0 4.21-1.18 7.6-3.53 10.14-2.35 2.55-5.51 3.82-9.47 3.82s-7.12-1.27-9.48-3.81-3.54-5.99-3.54-10.36v-.32zm7.34.52c0 2.61.49 4.61 1.47 5.99s2.39 2.07 4.21 2.07c1.78 0 3.17-.68 4.16-2.05 1-1.37 1.5-3.55 1.5-6.55 0-2.56-.5-4.54-1.5-5.95-1-1.41-2.4-2.11-4.21-2.11-1.79 0-3.18.7-4.16 2.1-.98 1.4-1.47 3.57-1.47 6.5zM230.98 284.88l.23 3.17c1.96-2.45 4.6-3.68 7.9-3.68 2.91 0 5.08.85 6.5 2.56s2.15 4.27 2.18 7.67v17.75h-7.34v-17.57c0-1.56-.34-2.69-1.02-3.39-.68-.7-1.8-1.05-3.38-1.05-2.07 0-3.61.88-4.65 2.64v19.37h-7.34v-27.47h6.92zM39.64 333.21c0-.83.28-1.5.83-2.04.55-.53 1.3-.8 2.26-.8.94 0 1.69.27 2.25.8s.84 1.21.84 2.04c0 .84-.28 1.52-.85 2.06-.57.53-1.31.8-2.24.8s-1.67-.27-2.24-.8c-.57-.53-.85-1.22-.85-2.06zm5.84 25.94h-5.52v-20.6h5.52v20.6zM49.16 348.7c0-3.21.72-5.77 2.16-7.67 1.44-1.9 3.41-2.86 5.91-2.86 2.01 0 3.66.75 4.97 2.25V329.9h5.52v29.25h-4.97l-.27-2.19c-1.37 1.71-3.14 2.57-5.29 2.57-2.42 0-4.37-.96-5.84-2.87-1.46-1.91-2.19-4.56-2.19-7.96zm5.5.41c0 1.93.34 3.41 1.01 4.44.67 1.03 1.65 1.54 2.93 1.54 1.7 0 2.9-.72 3.6-2.16v-8.14c-.69-1.44-1.87-2.16-3.56-2.16-2.65.01-3.98 2.16-3.98 6.48zM81.48 359.53c-3.02 0-5.48-.93-7.38-2.78-1.9-1.85-2.85-4.32-2.85-7.41v-.53c0-2.07.4-3.92 1.2-5.55.8-1.63 1.93-2.89 3.4-3.77 1.47-.88 3.14-1.32 5.02-1.32 2.82 0 5.04.89 6.66 2.67 1.62 1.78 2.43 4.3 2.43 7.56v2.25H76.83c.18 1.35.71 2.42 1.61 3.24.9.81 2.03 1.22 3.4 1.22 2.12 0 3.78-.77 4.97-2.3l2.7 3.03c-.83 1.17-1.94 2.08-3.35 2.73-1.41.63-2.97.96-4.68.96zm-.63-16.93c-1.09 0-1.98.37-2.66 1.11-.68.74-1.11 1.8-1.3 3.18h7.66v-.44c-.03-1.22-.36-2.17-.99-2.84-.64-.67-1.54-1.01-2.71-1.01zM98.14 338.55l.17 2.38c1.47-1.84 3.45-2.76 5.92-2.76 2.18 0 3.81.64 4.88 1.92s1.61 3.2 1.64 5.75v13.31h-5.5v-13.18c0-1.17-.25-2.02-.76-2.54-.51-.53-1.35-.79-2.53-.79-1.55 0-2.71.66-3.49 1.98v14.53h-5.5v-20.6h5.17zM121.5 333.48v5.07h3.52v4.04h-3.52v10.28c0 .76.15 1.31.44 1.64s.85.5 1.68.5c.61 0 1.15-.04 1.62-.13v4.17c-1.08.33-2.19.5-3.33.5-3.86 0-5.83-1.95-5.9-5.85v-11.1H113v-4.04h3v-5.07h5.5zM128.06 333.21c0-.83.28-1.5.83-2.04.55-.53 1.3-.8 2.26-.8.94 0 1.69.27 2.25.8s.84 1.21.84 2.04c0 .84-.28 1.52-.85 2.06-.57.53-1.31.8-2.24.8s-1.67-.27-2.24-.8c-.57-.53-.85-1.22-.85-2.06zm5.84 25.94h-5.52v-20.6h5.52v20.6zM145.02 333.48v5.07h3.52v4.04h-3.52v10.28c0 .76.15 1.31.44 1.64s.85.5 1.68.5c.61 0 1.15-.04 1.62-.13v4.17c-1.08.33-2.19.5-3.33.5-3.86 0-5.83-1.95-5.9-5.85v-11.1h-3.01v-4.04h3.01v-5.07h5.49zM159.3 351.36l3.81-12.82h5.9l-8.28 23.8-.46 1.08c-1.23 2.69-3.26 4.04-6.09 4.04-.8 0-1.61-.12-2.44-.36v-4.17l.84.02c1.04 0 1.82-.16 2.33-.48.51-.32.92-.84 1.21-1.58l.65-1.7-7.22-20.66h5.92l3.83 12.83zM187.49 333.48v5.07h3.52v4.04h-3.52v10.28c0 .76.15 1.31.44 1.64s.85.5 1.68.5c.61 0 1.15-.04 1.62-.13v4.17c-1.08.33-2.19.5-3.33.5-3.86 0-5.83-1.95-5.9-5.85v-11.1h-3.01v-4.04H182v-5.07h5.49zM199.45 340.79c1.46-1.75 3.29-2.63 5.5-2.63 4.47 0 6.73 2.6 6.8 7.79v13.2h-5.5v-13.04c0-1.18-.25-2.05-.76-2.62-.51-.56-1.35-.85-2.53-.85-1.61 0-2.78.62-3.5 1.87v14.64h-5.5V329.9h5.5v10.89zM225.38 359.53c-3.02 0-5.48-.93-7.38-2.78-1.9-1.85-2.85-4.32-2.85-7.41v-.53c0-2.07.4-3.92 1.2-5.55.8-1.63 1.93-2.89 3.4-3.77 1.47-.88 3.14-1.32 5.02-1.32 2.82 0 5.04.89 6.66 2.67 1.62 1.78 2.43 4.3 2.43 7.56v2.25h-13.12c.18 1.35.71 2.42 1.61 3.24.9.81 2.03 1.22 3.4 1.22 2.12 0 3.78-.77 4.97-2.3l2.7 3.03c-.83 1.17-1.94 2.08-3.35 2.73-1.41.63-2.97.96-4.69.96zm-.63-16.93c-1.09 0-1.98.37-2.66 1.11-.68.74-1.11 1.8-1.3 3.18h7.66v-.44c-.03-1.22-.36-2.17-.99-2.84-.64-.67-1.54-1.01-2.71-1.01zM238.48 359.15v-16.57h-3.07v-4.04h3.07v-1.75c0-2.31.66-4.1 1.99-5.38 1.33-1.28 3.18-1.91 5.57-1.91.76 0 1.7.13 2.8.38l-.06 4.27c-.46-.11-1.02-.17-1.68-.17-2.07 0-3.1.97-3.1 2.91v1.66h4.09v4.04H244v16.57h-5.52zM257.55 333.48v5.07h3.52v4.04h-3.52v10.28c0 .76.15 1.31.44 1.64s.85.5 1.68.5c.61 0 1.15-.04 1.62-.13v4.17c-1.08.33-2.19.5-3.33.5-3.86 0-5.83-1.95-5.9-5.85v-11.1h-3.01v-4.04h3.01v-5.07h5.49zM74.81 399.23l3.83-13.88h5.75l-6.95 20.6h-5.26l-6.95-20.6h5.75l3.83 13.88zM86.77 380.01c0-.83.28-1.5.83-2.04.55-.53 1.3-.8 2.26-.8.94 0 1.69.27 2.25.8s.84 1.21.84 2.04c0 .84-.28 1.52-.85 2.06-.57.53-1.31.8-2.24.8s-1.67-.27-2.24-.8c-.57-.53-.85-1.22-.85-2.06zm5.85 25.94H87.1v-20.6h5.52v20.6zM105.72 401.89c1.01 0 1.84-.28 2.47-.84s.96-1.3.99-2.23h5.16c-.01 1.4-.39 2.68-1.14 3.84-.75 1.16-1.77 2.06-3.08 2.7-1.3.64-2.74.96-4.31.96-2.95 0-5.27-.94-6.97-2.81-1.7-1.87-2.55-4.46-2.55-7.76v-.36c0-3.17.84-5.71 2.53-7.6s4.01-2.84 6.95-2.84c2.58 0 4.64.73 6.2 2.2 1.56 1.47 2.35 3.42 2.37 5.86h-5.16c-.03-1.07-.36-1.94-.99-2.61-.63-.67-1.47-1-2.51-1-1.28 0-2.25.47-2.9 1.4-.65.93-.98 2.45-.98 4.55v.57c0 2.12.32 3.65.97 4.58.64.93 1.63 1.39 2.95 1.39zM124.08 380.28v5.07h3.52v4.04h-3.52v10.28c0 .76.15 1.31.44 1.64s.85.5 1.68.5c.61 0 1.15-.04 1.62-.13v4.17c-1.08.33-2.19.5-3.33.5-3.86 0-5.83-1.95-5.9-5.85v-11.1h-3.01v-4.04h3.01v-5.07h5.49zM130.63 380.01c0-.83.28-1.5.83-2.04.55-.53 1.3-.8 2.26-.8.94 0 1.69.27 2.25.8s.84 1.21.84 2.04c0 .84-.28 1.52-.85 2.06-.57.53-1.31.8-2.24.8s-1.67-.27-2.24-.8c-.57-.53-.85-1.22-.85-2.06zm5.84 25.94h-5.52v-20.6h5.52v20.6zM146.16 385.35l.17 2.3c1.46-1.79 3.43-2.68 5.92-2.68 2.65 0 4.48 1.05 5.47 3.14 1.45-2.09 3.51-3.14 6.19-3.14 2.23 0 3.9.65 4.99 1.95 1.09 1.3 1.64 3.26 1.64 5.87v13.16h-5.52v-13.14c0-1.17-.23-2.02-.69-2.56-.46-.54-1.26-.81-2.42-.81-1.65 0-2.79.79-3.43 2.36l.02 14.15H153v-13.12c0-1.19-.24-2.06-.71-2.59s-1.27-.8-2.4-.8c-1.56 0-2.69.65-3.39 1.94v14.57H141v-20.6h5.16zM185.93 400.26c0-.67-.33-1.2-1-1.59-.67-.39-1.74-.73-3.21-1.04-4.9-1.03-7.35-3.11-7.35-6.25 0-1.83.76-3.35 2.28-4.58 1.52-1.23 3.5-1.84 5.95-1.84 2.62 0 4.71.62 6.27 1.85 1.57 1.23 2.35 2.83 2.35 4.8h-5.5c0-.79-.25-1.44-.76-1.95s-1.3-.77-2.38-.77c-.93 0-1.64.21-2.15.63s-.76.95-.76 1.6c0 .61.29 1.1.87 1.48.58.37 1.55.7 2.92.97 1.37.27 2.53.58 3.47.92 2.91 1.07 4.36 2.91 4.36 5.54 0 1.88-.81 3.4-2.42 4.56-1.61 1.16-3.69 1.74-6.25 1.74-1.73 0-3.26-.31-4.6-.92-1.34-.62-2.39-1.46-3.15-2.53-.76-1.07-1.14-2.23-1.14-3.48h5.22c.05.98.41 1.73 1.08 2.25s1.57.78 2.71.78c1.05 0 1.85-.2 2.39-.6.53-.4.8-.93.8-1.57zM204.49 380.01c0-.83.28-1.5.83-2.04.55-.53 1.3-.8 2.26-.8.94 0 1.69.27 2.25.8s.84 1.21.84 2.04c0 .84-.28 1.52-.85 2.06-.57.53-1.31.8-2.24.8s-1.67-.27-2.24-.8c-.56-.53-.85-1.22-.85-2.06zm5.85 25.94h-5.52v-20.6h5.52v20.6zM219.94 385.35l.17 2.38c1.47-1.84 3.45-2.76 5.92-2.76 2.18 0 3.81.64 4.88 1.92s1.61 3.2 1.64 5.75v13.31h-5.5v-13.18c0-1.17-.25-2.02-.76-2.54-.51-.53-1.35-.79-2.53-.79-1.55 0-2.71.66-3.49 1.98v14.53h-5.5v-20.6h5.17zM112.92 467.15H88.07v-4.93l11.73-12.5c1.61-1.76 2.8-3.3 3.57-4.61.77-1.31 1.16-2.56 1.16-3.74 0-1.61-.41-2.88-1.22-3.8-.81-.92-1.98-1.38-3.49-1.38-1.63 0-2.91.56-3.85 1.68-.94 1.12-1.41 2.59-1.41 4.42h-7.22c0-2.21.53-4.22 1.58-6.05s2.54-3.26 4.47-4.29c1.92-1.04 4.11-1.56 6.55-1.56 3.74 0 6.64.9 8.7 2.69 2.07 1.79 3.1 4.32 3.1 7.59 0 1.79-.46 3.62-1.39 5.48-.93 1.86-2.52 4.03-4.78 6.5l-8.24 8.69h15.59v5.81zM141.74 452.16c0 5.01-1.04 8.85-3.11 11.5s-5.11 3.98-9.11 3.98c-3.95 0-6.97-1.3-9.06-3.91-2.09-2.61-3.16-6.34-3.21-11.21v-6.67c0-5.06 1.05-8.91 3.15-11.53s5.13-3.93 9.08-3.93 6.97 1.3 9.06 3.9c2.09 2.6 3.16 6.33 3.21 11.19v6.68zm-7.2-7.34c0-3.01-.41-5.2-1.23-6.57-.82-1.37-2.1-2.06-3.85-2.06-1.69 0-2.94.65-3.75 1.96s-1.23 3.34-1.28 6.12v8.82c0 2.96.4 5.16 1.21 6.59.8 1.44 2.1 2.16 3.87 2.16 1.76 0 3.03-.69 3.81-2.07.78-1.38 1.19-3.49 1.22-6.33v-8.62zM164.07 467.15h-7.2v-27.74l-8.59 2.66v-5.85l15.02-5.38h.77v36.31zM192.68 452.66c-1.88 1.84-4.07 2.76-6.57 2.76-3.2 0-5.77-1.1-7.69-3.3-1.93-2.2-2.89-5.17-2.89-8.9 0-2.37.52-4.55 1.56-6.54 1.04-1.98 2.49-3.53 4.34-4.63 1.86-1.1 3.95-1.66 6.28-1.66 2.39 0 4.52.6 6.38 1.79s3.3 2.91 4.33 5.15c1.03 2.24 1.55 4.81 1.57 7.7v2.66c0 6.04-1.5 10.79-4.51 14.24-3 3.45-7.26 5.3-12.77 5.53l-1.77.03v-6l1.59-.02c6.25-.28 9.64-3.22 10.15-8.81zm-4.8-2.74c1.16 0 2.16-.3 3-.9.84-.6 1.47-1.32 1.9-2.17v-2.96c0-2.44-.46-4.33-1.39-5.68s-2.17-2.02-3.73-2.02c-1.45 0-2.63.66-3.56 1.98-.93 1.32-1.39 2.98-1.39 4.97 0 1.98.45 3.6 1.36 4.87.89 1.27 2.17 1.91 3.81 1.91zM205.04 464.45c0-.88.29-1.59.89-2.13.59-.55 1.33-.82 2.22-.82.9 0 1.65.27 2.24.82.59.55.89 1.26.89 2.13 0 .86-.29 1.56-.88 2.1-.58.54-1.33.81-2.25.81-.9 0-1.64-.27-2.23-.81-.58-.54-.88-1.24-.88-2.1z"/><text transform="translate(211.143 451.162)" class="st0 st1 st2">*</text></svg>