<svg id="Layer_1" xmlns="https://www.w3.org/2000/svg" viewBox="0 0 300 600"><style>.st0{fill:#fff}</style><path class="st0" d="M62.93 323.67v7.76h-4.54V309.4h8.6c1.66 0 3.11.3 4.37.91 1.26.61 2.22 1.47 2.9 2.58.68 1.11 1.01 2.38 1.01 3.81 0 2.16-.74 3.86-2.22 5.11-1.48 1.25-3.52 1.87-6.14 1.87h-3.98zm0-3.68h4.06c1.2 0 2.12-.28 2.75-.85.63-.56.95-1.37.95-2.42 0-1.08-.32-1.95-.95-2.62-.63-.67-1.51-1.01-2.63-1.03h-4.16v6.92zM87.3 319.16c-.59-.08-1.12-.12-1.57-.12-1.65 0-2.74.56-3.25 1.68v10.72H78.1v-16.38h4.13l.12 1.95c.88-1.5 2.09-2.25 3.65-2.25.48 0 .94.07 1.36.2l-.06 4.2zM89.37 310.82c0-.66.22-1.2.66-1.62.44-.42 1.04-.64 1.79-.64s1.34.21 1.79.64c.44.42.67.96.67 1.62 0 .67-.23 1.21-.67 1.63-.45.42-1.04.63-1.78.63s-1.33-.21-1.78-.63-.68-.96-.68-1.63zm4.65 20.62h-4.39v-16.38h4.39v16.38zM103.75 326.09l3.04-11.03h4.57l-5.52 16.38h-4.18l-5.52-16.38h4.57l3.04 11.03zM122.55 331.44c-.2-.39-.35-.88-.44-1.47-1.06 1.18-2.44 1.77-4.13 1.77-1.6 0-2.93-.46-3.99-1.39-1.05-.93-1.58-2.1-1.58-3.51 0-1.73.64-3.07 1.93-4 1.29-.93 3.15-1.4 5.58-1.41h2.01v-.94c0-.76-.2-1.36-.58-1.82-.39-.45-1-.68-1.84-.68-.74 0-1.32.18-1.73.53-.42.35-.63.84-.63 1.45h-4.38c0-.95.29-1.83.88-2.63.58-.81 1.41-1.44 2.48-1.9 1.07-.46 2.27-.69 3.6-.69 2.02 0 3.62.51 4.81 1.52 1.19 1.01 1.78 2.44 1.78 4.28v7.1c.01 1.55.23 2.73.65 3.53v.26h-4.42zm-3.62-3.04c.65 0 1.24-.14 1.79-.43.54-.29.95-.67 1.21-1.16v-2.82h-1.63c-2.19 0-3.36.76-3.5 2.27l-.01.26c0 .54.19.99.57 1.35.38.35.91.53 1.57.53zM136.49 328.21c.81 0 1.46-.22 1.97-.67.5-.44.77-1.03.79-1.77h4.1a5.565 5.565 0 0 1-.91 3.05c-.6.92-1.41 1.64-2.44 2.15-1.04.51-2.18.76-3.43.76-2.34 0-4.19-.74-5.54-2.23s-2.03-3.54-2.03-6.17v-.29c0-2.52.67-4.54 2.01-6.04 1.34-1.5 3.18-2.25 5.53-2.25 2.05 0 3.69.58 4.93 1.75s1.86 2.72 1.88 4.65h-4.1c-.02-.85-.28-1.54-.79-2.08-.5-.53-1.17-.8-2-.8-1.02 0-1.79.37-2.31 1.11-.52.74-.78 1.95-.78 3.62v.46c0 1.69.26 2.9.77 3.64s1.3 1.11 2.35 1.11zM151.96 325.25l3.03-10.19h4.69l-6.58 18.92-.36.86c-.98 2.14-2.59 3.21-4.84 3.21-.64 0-1.28-.1-1.94-.29v-3.32l.67.01c.83 0 1.45-.13 1.85-.38.41-.25.73-.67.96-1.26l.51-1.35-5.74-16.42h4.71l3.04 10.21zM179.13 328.65c-.82.98-1.97 1.74-3.47 2.28-1.49.54-3.15.81-4.96.81-1.91 0-3.58-.42-5.02-1.25-1.44-.83-2.55-2.04-3.33-3.62s-1.18-3.45-1.2-5.59v-1.5c0-2.2.37-4.11 1.11-5.71.74-1.61 1.81-2.84 3.21-3.69 1.4-.85 3.04-1.28 4.91-1.28 2.61 0 4.66.62 6.13 1.87 1.47 1.25 2.35 3.06 2.62 5.44h-4.42c-.2-1.26-.65-2.18-1.34-2.77-.69-.58-1.64-.88-2.85-.88-1.54 0-2.72.58-3.53 1.74s-1.22 2.89-1.23 5.18v1.41c0 2.31.44 4.06 1.32 5.24.88 1.18 2.17 1.77 3.86 1.77 1.71 0 2.92-.36 3.65-1.09v-3.8h-4.13v-3.34h8.67v8.78zM192.33 329.77c-1.08 1.31-2.57 1.97-4.48 1.97-1.76 0-3.09-.5-4.02-1.51-.92-1.01-1.39-2.49-1.42-4.43v-10.73h4.38v10.59c0 1.71.78 2.56 2.33 2.56 1.48 0 2.5-.51 3.06-1.55v-11.61h4.39v16.38h-4.12l-.12-1.67zM209.36 331.44c-.2-.39-.35-.88-.44-1.47-1.06 1.18-2.44 1.77-4.13 1.77-1.6 0-2.93-.46-3.99-1.39-1.05-.93-1.58-2.1-1.58-3.51 0-1.73.64-3.07 1.93-4 1.29-.93 3.15-1.4 5.58-1.41h2.01v-.94c0-.76-.2-1.36-.58-1.82-.39-.45-1-.68-1.84-.68-.74 0-1.32.18-1.73.53-.42.35-.63.84-.63 1.45h-4.38c0-.95.29-1.83.88-2.63.58-.81 1.41-1.44 2.48-1.9 1.07-.46 2.27-.69 3.6-.69 2.02 0 3.62.51 4.81 1.52 1.19 1.01 1.78 2.44 1.78 4.28v7.1c.01 1.55.23 2.73.65 3.53v.26h-4.42zm-3.62-3.04c.65 0 1.24-.14 1.79-.43.54-.29.95-.67 1.21-1.16v-2.82h-1.63c-2.19 0-3.36.76-3.5 2.27l-.01.26c0 .54.19.99.57 1.35.38.35.9.53 1.57.53zM225.69 319.16c-.59-.08-1.12-.12-1.57-.12-1.65 0-2.74.56-3.25 1.68v10.72h-4.38v-16.38h4.13l.12 1.95c.88-1.5 2.09-2.25 3.65-2.25.48 0 .94.07 1.36.2l-.06 4.2zM227.11 323.13c0-2.55.57-4.59 1.72-6.1s2.71-2.27 4.7-2.27c1.59 0 2.91.6 3.95 1.79v-8.36h4.39v23.25h-3.95l-.21-1.74c-1.09 1.36-2.49 2.04-4.21 2.04-1.93 0-3.47-.76-4.64-2.28-1.16-1.52-1.75-3.63-1.75-6.33zm4.38.32c0 1.54.27 2.71.8 3.53s1.31 1.23 2.33 1.23c1.35 0 2.31-.57 2.86-1.71v-6.47c-.54-1.14-1.49-1.71-2.83-1.71-2.11-.01-3.16 1.71-3.16 5.13zM47.63 366.66c1 0 1.87-.3 2.62-.91.75-.61 1.16-1.36 1.24-2.27h2.65c-.05.94-.37 1.83-.97 2.68s-1.39 1.52-2.38 2.03c-.99.5-2.05.76-3.16.76-2.23 0-4-.74-5.32-2.23-1.32-1.49-1.98-3.53-1.98-6.11v-.47c0-1.59.29-3.01.88-4.25s1.42-2.2 2.52-2.89c1.09-.69 2.39-1.03 3.88-1.03 1.84 0 3.36.55 4.58 1.65s1.86 2.53 1.95 4.28h-2.65c-.08-1.06-.48-1.93-1.2-2.61-.72-.68-1.61-1.02-2.67-1.02-1.42 0-2.53.51-3.31 1.54-.78 1.02-1.17 2.5-1.17 4.44v.53c0 1.89.39 3.34 1.17 4.36s1.88 1.52 3.32 1.52zM67.4 368.64c-.16-.32-.29-.9-.39-1.73-1.3 1.35-2.86 2.03-4.66 2.03-1.61 0-2.94-.46-3.97-1.37-1.03-.91-1.55-2.07-1.55-3.47 0-1.71.65-3.03 1.94-3.97 1.3-.94 3.12-1.41 5.47-1.41h2.72v-1.29c0-.98-.29-1.76-.88-2.34-.59-.58-1.45-.87-2.59-.87-1 0-1.84.25-2.51.76s-1.01 1.12-1.01 1.83h-2.82c0-.82.29-1.61.87-2.37.58-.76 1.37-1.36 2.36-1.81.99-.44 2.09-.67 3.28-.67 1.89 0 3.37.47 4.43 1.42s1.62 2.24 1.67 3.9v7.54c0 1.5.19 2.7.58 3.59v.24H67.4zm-4.65-2.14c.88 0 1.71-.23 2.5-.68.79-.45 1.36-1.04 1.71-1.77v-3.36h-2.19c-3.43 0-5.15 1-5.15 3.01 0 .88.29 1.56.88 2.06.58.5 1.33.74 2.25.74zM76.8 352.26l.09 2.06c1.25-1.57 2.89-2.36 4.9-2.36 3.46 0 5.21 1.95 5.24 5.86v10.82h-2.8V357.8c-.01-1.18-.28-2.05-.81-2.62-.53-.56-1.36-.85-2.47-.85-.91 0-1.71.24-2.39.73-.69.48-1.22 1.12-1.6 1.91v11.67h-2.8v-16.38h2.64zM101.73 354.24c1.24-1.52 2.86-2.29 4.84-2.29 3.46 0 5.21 1.95 5.24 5.86v10.82h-2.8V357.8c-.01-1.18-.28-2.05-.81-2.62-.53-.56-1.36-.85-2.47-.85-.91 0-1.71.24-2.39.73-.69.48-1.22 1.12-1.6 1.91v11.67h-2.8v-23.25h2.8v8.85zM122.8 368.94c-2.22 0-4.03-.73-5.42-2.19-1.39-1.46-2.09-3.41-2.09-5.85v-.51c0-1.62.31-3.08.93-4.35.62-1.28 1.49-2.28 2.6-3a6.53 6.53 0 0 1 3.62-1.08c2.13 0 3.78.7 4.96 2.1 1.18 1.4 1.77 3.41 1.77 6.02v1.17h-11.09c.04 1.61.51 2.92 1.42 3.91s2.05 1.49 3.44 1.49c.99 0 1.83-.2 2.51-.61.69-.4 1.29-.94 1.8-1.6l1.71 1.33c-1.36 2.12-3.42 3.17-6.16 3.17zm-.35-14.68c-1.13 0-2.08.41-2.85 1.23s-1.24 1.97-1.42 3.46h8.2v-.21c-.08-1.42-.46-2.53-1.15-3.31-.68-.78-1.61-1.17-2.78-1.17zM135.47 368.64h-2.8v-23.25h2.8v23.25zM153.79 360.63c0 2.49-.57 4.5-1.71 6.02-1.14 1.52-2.68 2.29-4.63 2.29-1.99 0-3.55-.63-4.69-1.89v7.89h-2.8v-22.68h2.56l.14 1.82c1.14-1.41 2.72-2.12 4.75-2.12 1.97 0 3.52.74 4.67 2.23 1.14 1.48 1.72 3.55 1.72 6.19v.25zm-2.8-.32c0-1.85-.39-3.3-1.18-4.37s-1.87-1.6-3.24-1.6c-1.7 0-2.97.75-3.81 2.26v7.83c.84 1.49 2.12 2.24 3.84 2.24 1.34 0 2.41-.53 3.2-1.6.79-1.08 1.19-2.66 1.19-4.76zM178.85 360.63c0 2.49-.57 4.5-1.71 6.02-1.14 1.52-2.68 2.29-4.63 2.29-1.99 0-3.55-.63-4.69-1.89v7.89h-2.8v-22.68h2.56l.14 1.82c1.14-1.41 2.72-2.12 4.75-2.12 1.97 0 3.52.74 4.67 2.23 1.14 1.48 1.72 3.55 1.72 6.19v.25zm-2.8-.32c0-1.85-.39-3.3-1.18-4.37s-1.87-1.6-3.24-1.6c-1.7 0-2.97.75-3.81 2.26v7.83c.84 1.49 2.12 2.24 3.84 2.24 1.34 0 2.41-.53 3.2-1.6.8-1.08 1.19-2.66 1.19-4.76zM190.33 354.77c-.42-.07-.88-.11-1.38-.11-1.84 0-3.08.78-3.74 2.35v11.62h-2.8v-16.38h2.72l.04 1.89c.92-1.46 2.22-2.2 3.91-2.2.54 0 .96.07 1.24.21v2.62zM191.85 360.3c0-1.6.32-3.05.95-4.33s1.51-2.27 2.63-2.97 2.41-1.04 3.85-1.04c2.23 0 4.03.77 5.41 2.32 1.38 1.54 2.07 3.6 2.07 6.16v.2c0 1.59-.31 3.03-.92 4.29-.61 1.27-1.48 2.25-2.62 2.96-1.14.71-2.44 1.06-3.91 1.06-2.22 0-4.02-.77-5.4-2.32-1.38-1.54-2.07-3.59-2.07-6.13v-.2zm2.82.33c0 1.82.42 3.28 1.26 4.38.84 1.1 1.97 1.65 3.38 1.65 1.42 0 2.55-.56 3.39-1.67s1.26-2.68 1.26-4.68c0-1.8-.43-3.25-1.28-4.37-.85-1.12-1.99-1.67-3.4-1.67-1.38 0-2.5.55-3.34 1.65s-1.27 2.66-1.27 4.71zM214.08 348.29v3.96h3.06v2.17h-3.06v10.17c0 .66.14 1.15.41 1.48s.74.49 1.39.49c.32 0 .77-.06 1.33-.18v2.26c-.74.2-1.45.3-2.15.3-1.25 0-2.2-.38-2.83-1.14-.64-.76-.95-1.83-.95-3.22v-10.16h-2.98v-2.17h2.98v-3.96h2.8zM227.2 368.94c-2.22 0-4.03-.73-5.42-2.19-1.39-1.46-2.09-3.41-2.09-5.85v-.51c0-1.62.31-3.08.93-4.35.62-1.28 1.49-2.28 2.6-3a6.53 6.53 0 0 1 3.62-1.08c2.13 0 3.78.7 4.96 2.1 1.18 1.4 1.77 3.41 1.77 6.02v1.17h-11.09c.04 1.61.51 2.92 1.42 3.91s2.05 1.49 3.44 1.49c.99 0 1.83-.2 2.51-.61.69-.4 1.29-.94 1.8-1.6l1.71 1.33c-1.36 2.12-3.42 3.17-6.16 3.17zm-.35-14.68c-1.13 0-2.08.41-2.85 1.23s-1.24 1.97-1.42 3.46h8.2v-.21c-.08-1.42-.46-2.53-1.15-3.31-.68-.78-1.61-1.17-2.78-1.17zM243.4 366.66c1 0 1.87-.3 2.62-.91.75-.61 1.16-1.36 1.24-2.27h2.65c-.05.94-.37 1.83-.97 2.68s-1.39 1.52-2.38 2.03c-.99.5-2.05.76-3.16.76-2.23 0-4-.74-5.32-2.23-1.32-1.49-1.98-3.53-1.98-6.11v-.47c0-1.59.29-3.01.88-4.25s1.42-2.2 2.52-2.89c1.09-.69 2.39-1.03 3.88-1.03 1.84 0 3.36.55 4.58 1.65s1.86 2.53 1.95 4.28h-2.65c-.08-1.06-.48-1.93-1.2-2.61-.72-.68-1.61-1.02-2.67-1.02-1.42 0-2.53.51-3.31 1.54-.78 1.02-1.17 2.5-1.17 4.44v.53c0 1.89.39 3.34 1.17 4.36s1.87 1.52 3.32 1.52zM256.85 348.29v3.96h3.06v2.17h-3.06v10.17c0 .66.14 1.15.41 1.48s.74.49 1.39.49c.32 0 .77-.06 1.33-.18v2.26c-.74.2-1.45.3-2.15.3-1.25 0-2.2-.38-2.83-1.14-.64-.76-.95-1.83-.95-3.22v-10.16h-2.98v-2.17h2.98v-3.96h2.8zM96.02 401.74l3.81-12.28h3l-6.58 18.91c-1.02 2.72-2.64 4.09-4.86 4.09l-.53-.05-1.04-.2v-2.27l.76.06c.95 0 1.69-.19 2.22-.57.53-.38.97-1.09 1.31-2.1l.62-1.67-5.84-16.2h3.06l4.07 12.28zM104.59 397.5c0-1.61.32-3.05.95-4.33.63-1.28 1.51-2.27 2.63-2.97 1.12-.7 2.41-1.04 3.85-1.04 2.23 0 4.03.77 5.41 2.32 1.38 1.54 2.07 3.6 2.07 6.16v.2c0 1.6-.31 3.03-.92 4.29s-1.48 2.25-2.62 2.96c-1.14.71-2.44 1.06-3.91 1.06-2.22 0-4.02-.77-5.4-2.32-1.38-1.54-2.07-3.59-2.07-6.13v-.2zm2.82.33c0 1.82.42 3.28 1.26 4.38.84 1.1 1.97 1.65 3.38 1.65 1.42 0 2.55-.56 3.39-1.67.84-1.12 1.26-2.68 1.26-4.68 0-1.8-.43-3.25-1.28-4.37-.85-1.12-1.99-1.67-3.4-1.67-1.38 0-2.5.55-3.34 1.65-.85 1.09-1.27 2.66-1.27 4.71zM133.12 404.22c-1.09 1.28-2.69 1.92-4.8 1.92-1.75 0-3.08-.51-3.99-1.52-.91-1.01-1.38-2.51-1.38-4.5v-10.66h2.8v10.58c0 2.48 1.01 3.72 3.03 3.72 2.14 0 3.56-.8 4.27-2.39v-11.91h2.8v16.38h-2.66l-.07-1.62zM149.15 405.84v-14.21h-2.59v-2.17h2.59v-1.68c0-1.76.47-3.11 1.41-4.07.94-.96 2.27-1.44 3.98-1.44.65 0 1.29.09 1.92.26l-.15 2.26c-.47-.09-.98-.14-1.51-.14-.91 0-1.61.27-2.1.8-.5.53-.74 1.29-.74 2.29v1.73h3.5v2.17h-3.5v14.21h-2.81zM166.45 391.97c-.42-.07-.88-.11-1.38-.11-1.84 0-3.08.78-3.74 2.35v11.62h-2.8v-16.38h2.72l.04 1.89c.92-1.46 2.22-2.19 3.91-2.19.54 0 .96.07 1.24.21v2.61zM167.98 397.5c0-1.61.32-3.05.95-4.33.63-1.28 1.51-2.27 2.63-2.97 1.12-.7 2.41-1.04 3.85-1.04 2.23 0 4.03.77 5.41 2.32 1.38 1.54 2.07 3.6 2.07 6.16v.2c0 1.6-.31 3.03-.92 4.29s-1.48 2.25-2.62 2.96c-1.14.71-2.44 1.06-3.91 1.06-2.22 0-4.02-.77-5.4-2.32-1.38-1.54-2.07-3.59-2.07-6.13v-.2zm2.82.33c0 1.82.42 3.28 1.26 4.38.84 1.1 1.97 1.65 3.38 1.65 1.42 0 2.55-.56 3.39-1.67.84-1.12 1.26-2.68 1.26-4.68 0-1.8-.43-3.25-1.28-4.37-.85-1.12-1.99-1.67-3.4-1.67-1.38 0-2.5.55-3.34 1.65-.85 1.09-1.27 2.66-1.27 4.71zM189.04 389.46l.08 1.82c1.2-1.41 2.82-2.12 4.86-2.12 2.29 0 3.85.88 4.68 2.63.54-.79 1.25-1.42 2.13-1.91s1.91-.73 3.1-.73c3.59 0 5.42 1.9 5.48 5.71v10.97h-2.8v-10.81c0-1.17-.27-2.05-.8-2.63s-1.43-.87-2.69-.87c-1.04 0-1.9.31-2.59.93-.69.62-1.08 1.46-1.2 2.5v10.87h-2.82v-10.73c0-2.38-1.17-3.57-3.5-3.57-1.84 0-3.09.78-3.77 2.35v11.96h-2.8v-16.38h2.64zM58.36 422.42c0-.66.22-1.2.66-1.62.44-.42 1.04-.64 1.79-.64s1.34.21 1.79.64c.44.42.67.96.67 1.62 0 .67-.23 1.21-.67 1.63-.45.42-1.04.64-1.78.64s-1.33-.21-1.78-.64-.68-.96-.68-1.63zm4.65 20.62h-4.39v-16.38h4.39v16.38zM65.93 434.73c0-2.55.57-4.59 1.72-6.1s2.71-2.27 4.7-2.27c1.59 0 2.91.6 3.95 1.79v-8.36h4.39v23.25h-3.95l-.21-1.74c-1.09 1.36-2.49 2.04-4.21 2.04-1.93 0-3.47-.76-4.64-2.28-1.17-1.52-1.75-3.63-1.75-6.33zm4.37.32c0 1.54.27 2.71.8 3.53s1.31 1.23 2.33 1.23c1.35 0 2.31-.57 2.86-1.71v-6.47c-.54-1.14-1.49-1.71-2.83-1.71-2.1-.01-3.16 1.71-3.16 5.13zM91.62 443.34c-2.4 0-4.36-.74-5.87-2.21-1.51-1.47-2.26-3.44-2.26-5.89v-.42c0-1.64.32-3.12.95-4.41.64-1.3 1.54-2.29 2.7-3 1.17-.7 2.5-1.05 3.99-1.05 2.24 0 4 .71 5.29 2.12 1.29 1.41 1.93 3.42 1.93 6.01v1.79H87.92c.14 1.07.57 1.93 1.28 2.57.71.65 1.61.97 2.7.97 1.69 0 3-.61 3.95-1.83L98 440.4c-.66.93-1.54 1.65-2.66 2.17-1.12.51-2.36.77-3.72.77zm-.5-13.46c-.87 0-1.57.29-2.11.88-.54.59-.89 1.43-1.04 2.52h6.08v-.35c-.02-.97-.28-1.73-.79-2.26s-1.21-.79-2.14-.79zM104.86 426.66l.14 1.89c1.17-1.46 2.74-2.2 4.71-2.2 1.74 0 3.03.51 3.88 1.53s1.28 2.54 1.3 4.57v10.58h-4.37v-10.47c0-.93-.2-1.6-.61-2.02-.4-.42-1.08-.63-2.01-.63-1.23 0-2.16.53-2.77 1.57v11.55h-4.37v-16.38h4.1zM123.44 422.63v4.03h2.8v3.21h-2.8v8.17c0 .61.12 1.04.35 1.3s.68.39 1.33.39c.48 0 .91-.04 1.29-.11v3.31c-.86.26-1.74.39-2.65.39-3.07 0-4.63-1.55-4.69-4.65v-8.82h-2.39v-3.21h2.39v-4.03h4.37zM128.64 422.42c0-.66.22-1.2.66-1.62.44-.42 1.04-.64 1.79-.64s1.34.21 1.79.64c.44.42.67.96.67 1.62 0 .67-.23 1.21-.67 1.63-.45.42-1.04.64-1.78.64s-1.33-.21-1.78-.64-.68-.96-.68-1.63zm4.65 20.62h-4.39v-16.38h4.39v16.38zM142.13 422.63v4.03h2.8v3.21h-2.8v8.17c0 .61.12 1.04.35 1.3s.68.39 1.33.39c.48 0 .91-.04 1.29-.11v3.31c-.86.26-1.74.39-2.65.39-3.07 0-4.63-1.55-4.69-4.65v-8.82h-2.39v-3.21h2.39v-4.03h4.37zM153.48 436.85l3.03-10.19h4.69l-6.58 18.92-.36.86c-.98 2.14-2.59 3.21-4.84 3.21-.64 0-1.28-.1-1.94-.29v-3.31l.67.01c.83 0 1.45-.13 1.85-.38.41-.25.73-.67.96-1.26l.51-1.35-5.74-16.42h4.71l3.04 10.2zM175.88 422.63v4.03h2.8v3.21h-2.8v8.17c0 .61.12 1.04.35 1.3s.68.39 1.33.39c.48 0 .91-.04 1.29-.11v3.31c-.86.26-1.74.39-2.65.39-3.07 0-4.63-1.55-4.69-4.65v-8.82h-2.39v-3.21h2.39v-4.03h4.37zM185.39 428.45c1.16-1.39 2.62-2.09 4.37-2.09 3.55 0 5.35 2.06 5.4 6.19v10.49h-4.37v-10.37c0-.94-.2-1.63-.61-2.08s-1.08-.67-2.01-.67c-1.28 0-2.21.5-2.79 1.48v11.64H181v-23.25h4.38v8.66zM206 443.34c-2.4 0-4.36-.74-5.87-2.21-1.51-1.47-2.26-3.44-2.26-5.89v-.42c0-1.64.32-3.12.95-4.41.64-1.3 1.54-2.29 2.7-3 1.17-.7 2.5-1.05 3.99-1.05 2.24 0 4 .71 5.29 2.12 1.29 1.41 1.93 3.42 1.93 6.01v1.79H202.3c.14 1.07.57 1.93 1.28 2.57.71.65 1.61.97 2.7.97 1.69 0 3-.61 3.95-1.83l2.15 2.41c-.66.93-1.54 1.65-2.66 2.17-1.11.51-2.35.77-3.72.77zm-.5-13.46c-.87 0-1.57.29-2.11.88-.54.59-.89 1.43-1.04 2.52h6.08v-.35c-.02-.97-.28-1.73-.79-2.26s-1.21-.79-2.14-.79zM216.42 443.04v-13.17h-2.44v-3.21h2.44v-1.39c0-1.84.53-3.26 1.58-4.28 1.05-1.01 2.53-1.52 4.43-1.52.61 0 1.35.1 2.23.3l-.05 3.39c-.36-.09-.81-.14-1.33-.14-1.64 0-2.47.77-2.47 2.32v1.32h3.25v3.21h-3.25v13.17h-4.39zM231.57 422.63v4.03h2.8v3.21h-2.8v8.17c0 .61.12 1.04.35 1.3s.68.39 1.33.39c.48 0 .91-.04 1.29-.11v3.31c-.86.26-1.74.39-2.65.39-3.07 0-4.63-1.55-4.69-4.65v-8.82h-2.39v-3.21h2.39v-4.03h4.37zM237.31 441.57c0-.48.14-.89.43-1.21.29-.32.72-.48 1.29-.48s1.01.16 1.31.48c.3.32.45.73.45 1.21 0 .46-.15.85-.45 1.17-.3.31-.73.47-1.31.47s-1.01-.16-1.29-.47c-.29-.32-.43-.71-.43-1.17z"/><g><path class="st0" d="M47.96 547.43c0-.54-.19-.99-.57-1.36-.38-.37-1.02-.7-1.91-1-1.25-.38-2.16-.88-2.73-1.49-.57-.61-.86-1.39-.86-2.33 0-.96.28-1.75.84-2.36.56-.62 1.33-.98 2.31-1.1v-1.92h1.31v1.93c.98.13 1.75.55 2.3 1.24s.82 1.64.82 2.84h-1.62c0-.83-.2-1.49-.59-1.98-.39-.49-.92-.73-1.59-.73-.7 0-1.23.18-1.6.54-.37.36-.55.86-.55 1.51 0 .6.19 1.08.58 1.43.39.35 1.03.68 1.92.97.89.29 1.59.61 2.09.96.5.35.87.75 1.11 1.22.24.46.36 1 .36 1.63 0 .99-.3 1.79-.89 2.39-.6.6-1.43.96-2.5 1.07v1.68h-1.3v-1.68c-1.09-.1-1.94-.49-2.56-1.17-.62-.68-.93-1.59-.93-2.75h1.63c0 .81.21 1.44.64 1.88s1.03.66 1.82.66c.77 0 1.37-.18 1.81-.55s.66-.89.66-1.53zM56.95 550.73h-1.63v-10.84l-3.28 1.2v-1.48l4.66-1.75h.25v12.87zM68.54 538.91v2.3h1.78v1.26h-1.78v5.9c0 .38.08.67.24.86s.43.29.81.29c.19 0 .45-.04.77-.11v1.31c-.43.12-.84.17-1.25.17-.73 0-1.27-.22-1.64-.66s-.55-1.06-.55-1.87v-5.9h-1.73v-1.26h1.73v-2.3h1.62zM76.81 542.67c-.25-.04-.51-.06-.8-.06-1.07 0-1.79.45-2.17 1.36v6.75h-1.63v-9.51h1.58l.03 1.1c.53-.85 1.29-1.27 2.27-1.27.32 0 .56.04.72.12v1.51zM78.31 538.69c0-.26.08-.49.24-.67s.4-.27.72-.27.56.09.72.27.25.4.25.67-.08.48-.25.66-.4.26-.72.26-.56-.09-.72-.26-.24-.39-.24-.66zm1.76 12.04h-1.63v-9.51h1.63v9.51zM88.54 550.73c-.09-.19-.17-.52-.23-1-.76.79-1.66 1.18-2.71 1.18-.94 0-1.71-.27-2.31-.8-.6-.53-.9-1.2-.9-2.02 0-.99.38-1.76 1.13-2.31.75-.55 1.81-.82 3.18-.82h1.58v-.75c0-.57-.17-1.02-.51-1.36s-.84-.5-1.5-.5c-.58 0-1.07.15-1.46.44s-.59.65-.59 1.06h-1.63c0-.47.17-.93.5-1.38s.79-.79 1.37-1.05 1.21-.39 1.9-.39c1.1 0 1.95.27 2.58.82s.94 1.3.97 2.26v4.38c0 .87.11 1.57.33 2.08v.14h-1.7zm-2.69-1.24c.51 0 .99-.13 1.45-.4s.79-.61.99-1.03v-1.95h-1.27c-1.99 0-2.99.58-2.99 1.75 0 .51.17.91.51 1.2s.77.43 1.31.43zM94.23 550.73H92.6v-13.5h1.63v13.5zM102.09 550.73v-8.25h-1.5v-1.26h1.5v-.98c0-1.02.27-1.81.82-2.36s1.32-.83 2.31-.83c.38 0 .75.05 1.12.15l-.09 1.31c-.28-.05-.57-.08-.88-.08-.53 0-.93.15-1.22.46s-.43.75-.43 1.33v1h2.03v1.26h-2.03v8.25h-1.63zM107.11 545.88c0-.93.18-1.77.55-2.51.37-.74.88-1.32 1.53-1.72.65-.4 1.4-.61 2.24-.61 1.29 0 2.34.45 3.14 1.34.8.9 1.2 2.09 1.2 3.58v.11c0 .93-.18 1.76-.53 2.49-.36.74-.86 1.31-1.52 1.72-.66.41-1.42.62-2.27.62-1.29 0-2.33-.45-3.13-1.34-.8-.9-1.2-2.08-1.2-3.56v-.12zm1.63.2c0 1.05.24 1.9.73 2.54s1.14.96 1.96.96c.83 0 1.48-.32 1.97-.97s.73-1.55.73-2.72c0-1.04-.25-1.89-.74-2.54s-1.15-.97-1.97-.97c-.8 0-1.45.32-1.94.96s-.74 1.55-.74 2.74zM122.4 542.67c-.25-.04-.51-.06-.8-.06-1.07 0-1.79.45-2.17 1.36v6.75h-1.63v-9.51h1.58l.03 1.1c.53-.85 1.29-1.27 2.27-1.27.32 0 .56.04.72.12v1.51zM130.56 538.91v2.3h1.78v1.26h-1.78v5.9c0 .38.08.67.24.86s.43.29.81.29c.19 0 .45-.04.77-.11v1.31c-.43.12-.84.17-1.25.17-.73 0-1.27-.22-1.64-.66s-.55-1.06-.55-1.87v-5.9h-1.73v-1.26h1.73v-2.3h1.62zM135.85 542.37c.72-.88 1.66-1.33 2.81-1.33 2.01 0 3.02 1.13 3.04 3.4v6.28h-1.63v-6.29c-.01-.69-.16-1.19-.47-1.52-.31-.33-.79-.49-1.44-.49-.53 0-.99.14-1.39.42s-.71.65-.93 1.11v6.78h-1.63v-13.5h1.63v5.14zM148.09 550.9c-1.29 0-2.34-.42-3.15-1.27s-1.21-1.98-1.21-3.4v-.3c0-.94.18-1.79.54-2.53.36-.74.86-1.32 1.51-1.74s1.35-.63 2.11-.63c1.24 0 2.2.41 2.88 1.22.69.81 1.03 1.98 1.03 3.5v.68h-6.44c.02.94.3 1.69.82 2.27.52.58 1.19.87 2 .87.57 0 1.06-.12 1.46-.35s.75-.54 1.05-.93l.99.77c-.8 1.23-2 1.84-3.59 1.84zm-.2-8.52c-.66 0-1.21.24-1.65.72s-.72 1.15-.83 2.01h4.76v-.12c-.05-.83-.27-1.47-.67-1.92s-.93-.69-1.61-.69zM158.93 550.73v-8.25h-1.5v-1.26h1.5v-.98c0-1.02.27-1.81.82-2.36s1.32-.83 2.31-.83c.38 0 .75.05 1.12.15l-.09 1.31c-.28-.05-.57-.08-.88-.08-.53 0-.93.15-1.22.46s-.43.75-.43 1.33v1h2.03v1.26h-2.03v8.25h-1.63zM164.39 538.69c0-.26.08-.49.24-.67s.4-.27.72-.27.56.09.72.27.25.4.25.67-.08.48-.25.66-.4.26-.72.26-.56-.09-.72-.26-.24-.39-.24-.66zm1.76 12.04h-1.63v-9.51h1.63v9.51zM173.35 542.67c-.25-.04-.51-.06-.8-.06-1.07 0-1.79.45-2.17 1.36v6.75h-1.63v-9.51h1.58l.03 1.1c.53-.85 1.29-1.27 2.27-1.27.32 0 .56.04.72.12v1.51zM180.38 548.2c0-.44-.17-.78-.5-1.02-.33-.24-.91-.45-1.73-.63s-1.48-.39-1.96-.63c-.48-.25-.84-.54-1.07-.88-.23-.34-.35-.74-.35-1.21 0-.78.33-1.44.99-1.98.66-.54 1.5-.81 2.53-.81 1.08 0 1.95.28 2.62.83s1.01 1.27 1.01 2.14h-1.63c0-.45-.19-.83-.57-1.15-.38-.32-.85-.48-1.43-.48-.59 0-1.05.13-1.39.39s-.5.59-.5 1.01c0 .39.16.69.47.89s.87.39 1.68.57c.81.18 1.47.4 1.97.65s.88.55 1.12.91c.24.35.36.79.36 1.3 0 .85-.34 1.53-1.02 2.04s-1.56.77-2.65.77c-.76 0-1.44-.13-2.02-.4s-1.04-.65-1.38-1.13c-.33-.48-.5-1.01-.5-1.57h1.63c.03.54.25.98.65 1.3s.95.48 1.61.48c.62 0 1.11-.12 1.48-.37s.58-.6.58-1.02zM186.33 538.91v2.3h1.78v1.26h-1.78v5.9c0 .38.08.67.24.86s.43.29.81.29c.19 0 .45-.04.77-.11v1.31c-.43.12-.84.17-1.25.17-.73 0-1.27-.22-1.64-.66s-.55-1.06-.55-1.87v-5.9h-1.73v-1.26h1.73v-2.3h1.62zM200.27 550.73h-2.54v-9.79l-3.03.94v-2.07l5.3-1.9h.27v12.82zM211.94 545.91h1.45v2.05h-1.45v2.77h-2.54v-2.77h-5.25l-.11-1.6 5.33-8.43h2.57v7.98zm-5.37 0h2.83v-4.52l-.17.29-2.66 4.23zM218.95 545.9c0-1.48.33-2.66 1-3.54.66-.88 1.57-1.32 2.73-1.32.93 0 1.69.35 2.29 1.04v-4.85h2.55v13.5h-2.29l-.12-1.01c-.63.79-1.45 1.19-2.44 1.19-1.12 0-2.02-.44-2.69-1.32-.7-.89-1.03-2.12-1.03-3.69zm2.54.19c0 .89.16 1.58.47 2.05.31.47.76.71 1.35.71.79 0 1.34-.33 1.66-1v-3.76c-.32-.66-.86-.99-1.64-.99-1.23.01-1.84 1-1.84 2.99zM235 550.73c-.12-.23-.2-.51-.25-.85-.62.69-1.42 1.03-2.4 1.03-.93 0-1.7-.27-2.32-.81s-.92-1.22-.92-2.04c0-1.01.37-1.78 1.12-2.32.75-.54 1.83-.81 3.24-.82h1.17v-.54c0-.44-.11-.79-.34-1.05s-.58-.4-1.07-.4c-.43 0-.76.1-1.01.31s-.36.49-.36.84h-2.54c0-.55.17-1.06.51-1.53s.82-.84 1.44-1.1 1.32-.4 2.09-.4c1.17 0 2.1.29 2.79.88.69.59 1.03 1.42 1.03 2.48v4.12c.01.9.13 1.58.38 2.05v.15H235zm-2.11-1.77c.38 0 .72-.08 1.04-.25s.55-.39.7-.67v-1.63h-.95c-1.27 0-1.95.44-2.03 1.32l-.01.15c0 .32.11.58.33.78s.54.3.92.3zM242.69 547.13l1.76-5.92h2.72l-3.82 10.99-.21.5c-.57 1.24-1.51 1.86-2.81 1.86-.37 0-.74-.06-1.12-.17v-1.92l.39.01c.48 0 .84-.07 1.08-.22.24-.15.42-.39.56-.73l.3-.78-3.33-9.54h2.73l1.75 5.92zM253.32 548.1c0-.31-.15-.56-.46-.73-.31-.18-.8-.34-1.48-.48-2.26-.47-3.39-1.44-3.39-2.88 0-.84.35-1.55 1.05-2.11.7-.57 1.62-.85 2.75-.85 1.21 0 2.17.28 2.9.85.72.57 1.08 1.31 1.08 2.21h-2.54c0-.36-.12-.66-.35-.9s-.6-.36-1.1-.36c-.43 0-.76.1-.99.29s-.35.44-.35.74c0 .28.13.51.4.68.27.17.72.32 1.35.45s1.17.27 1.6.43c1.34.49 2.01 1.34 2.01 2.56 0 .87-.37 1.57-1.12 2.1s-1.71.8-2.88.8c-.8 0-1.5-.14-2.12-.43-.62-.28-1.1-.67-1.46-1.17s-.53-1.03-.53-1.6h2.41c.02.45.19.8.5 1.04s.73.36 1.25.36c.49 0 .85-.09 1.1-.28s.37-.42.37-.72zM257.63 553.27l-.92-.63c.55-.77.84-1.56.86-2.37v-1.47h1.59v1.27c0 .59-.14 1.18-.44 1.78-.29.59-.65 1.07-1.09 1.42zM39.71 567.68c0 1.45-.33 2.61-.99 3.5s-1.56 1.33-2.69 1.33c-1.15 0-2.06-.37-2.72-1.1v4.58h-1.63v-13.17h1.49l.08 1.05c.66-.82 1.58-1.23 2.76-1.23 1.14 0 2.05.43 2.71 1.29s1 2.06 1 3.59v.16zm-1.63-.19c0-1.07-.23-1.92-.69-2.54s-1.08-.93-1.88-.93c-.98 0-1.72.44-2.21 1.31v4.54c.49.87 1.23 1.3 2.23 1.3.78 0 1.4-.31 1.86-.93s.69-1.53.69-2.75zM43.54 572.33h-1.63v-13.5h1.63v13.5zM52.01 572.33c-.09-.19-.17-.52-.23-1-.76.79-1.66 1.18-2.71 1.18-.94 0-1.71-.26-2.31-.79-.6-.53-.9-1.2-.9-2.02 0-.99.38-1.76 1.13-2.31.75-.55 1.81-.82 3.18-.82h1.58v-.75c0-.57-.17-1.02-.51-1.36s-.84-.51-1.5-.51c-.58 0-1.07.15-1.46.44s-.59.65-.59 1.06h-1.63c0-.47.17-.93.5-1.38s.79-.79 1.37-1.05 1.21-.39 1.9-.39c1.1 0 1.95.27 2.58.82s.94 1.3.97 2.26v4.38c0 .87.11 1.57.33 2.08v.14h-1.7zm-2.7-1.24c.51 0 .99-.13 1.45-.4s.79-.61.99-1.03v-1.95h-1.27c-1.99 0-2.99.58-2.99 1.75 0 .51.17.91.51 1.2s.78.43 1.31.43zM57.47 562.82l.05 1.2c.73-.91 1.68-1.37 2.85-1.37 2.01 0 3.02 1.13 3.04 3.4v6.28h-1.63v-6.29c-.01-.69-.16-1.19-.47-1.52-.31-.33-.79-.49-1.44-.49-.53 0-.99.14-1.39.42s-.71.65-.93 1.11v6.78h-1.63v-9.51h1.55zM71.4 569.8c0-.44-.17-.78-.5-1.02-.33-.24-.91-.45-1.73-.63s-1.48-.39-1.96-.63c-.48-.25-.84-.54-1.07-.88-.23-.34-.35-.74-.35-1.21 0-.78.33-1.44.99-1.98.66-.54 1.5-.81 2.53-.81 1.08 0 1.95.28 2.62.83s1.01 1.27 1.01 2.14H71.3c0-.45-.19-.83-.57-1.15-.38-.32-.85-.48-1.43-.48-.59 0-1.05.13-1.39.39s-.5.59-.5 1.01c0 .39.16.69.47.89s.87.39 1.68.57c.81.18 1.47.4 1.97.65s.88.56 1.12.91c.24.35.36.79.36 1.3 0 .85-.34 1.53-1.02 2.04s-1.56.77-2.65.77c-.76 0-1.44-.13-2.02-.4s-1.04-.65-1.38-1.13c-.33-.48-.5-1.01-.5-1.57h1.63c.03.54.25.98.65 1.3s.95.48 1.61.48c.62 0 1.11-.12 1.48-.37s.59-.6.59-1.02zM85.14 569.8c0-.44-.17-.78-.5-1.02-.33-.24-.91-.45-1.73-.63s-1.48-.39-1.96-.63c-.48-.25-.84-.54-1.07-.88-.23-.34-.35-.74-.35-1.21 0-.78.33-1.44.99-1.98.66-.54 1.5-.81 2.53-.81 1.08 0 1.95.28 2.62.83s1.01 1.27 1.01 2.14h-1.63c0-.45-.19-.83-.57-1.15-.38-.32-.85-.48-1.43-.48-.59 0-1.05.13-1.39.39s-.5.59-.5 1.01c0 .39.16.69.47.89s.87.39 1.68.57c.81.18 1.47.4 1.97.65s.88.56 1.12.91c.24.35.36.79.36 1.3 0 .85-.34 1.53-1.02 2.04s-1.56.77-2.65.77c-.76 0-1.44-.13-2.02-.4s-1.04-.65-1.38-1.13c-.33-.48-.5-1.01-.5-1.57h1.63c.03.54.25.98.65 1.3s.95.48 1.61.48c.62 0 1.11-.12 1.48-.37s.58-.6.58-1.02zM91.09 560.51v2.3h1.78v1.26h-1.78v5.91c0 .38.08.67.24.86.16.19.43.29.81.29.19 0 .45-.04.77-.11v1.31c-.43.12-.84.17-1.25.17-.73 0-1.27-.22-1.64-.66s-.55-1.06-.55-1.87v-5.9h-1.73v-1.26h1.73v-2.3h1.62zM100.63 572.33c-.09-.19-.17-.52-.23-1-.76.79-1.66 1.18-2.71 1.18-.94 0-1.71-.26-2.31-.79-.6-.53-.9-1.2-.9-2.02 0-.99.38-1.76 1.13-2.31.75-.55 1.81-.82 3.18-.82h1.58v-.75c0-.57-.17-1.02-.51-1.36s-.84-.51-1.5-.51c-.58 0-1.07.15-1.46.44s-.59.65-.59 1.06h-1.63c0-.47.17-.93.5-1.38s.79-.79 1.37-1.05 1.21-.39 1.9-.39c1.1 0 1.95.27 2.58.82s.94 1.3.97 2.26v4.38c0 .87.11 1.57.33 2.08v.14h-1.7zm-2.7-1.24c.51 0 .99-.13 1.45-.4s.79-.61.99-1.03v-1.95H99.1c-1.99 0-2.99.58-2.99 1.75 0 .51.17.91.51 1.2s.78.43 1.31.43zM109.15 564.27c-.25-.04-.51-.06-.8-.06-1.07 0-1.79.45-2.17 1.36v6.75h-1.63v-9.51h1.58l.03 1.1c.53-.85 1.29-1.27 2.27-1.27.32 0 .56.04.72.12v1.51zM113.29 560.51v2.3h1.78v1.26h-1.78v5.91c0 .38.08.67.24.86.16.19.43.29.81.29.19 0 .45-.04.77-.11v1.31c-.43.12-.84.17-1.25.17-.73 0-1.27-.22-1.64-.66s-.55-1.06-.55-1.87v-5.9h-1.73v-1.26h1.73v-2.3h1.62zM116.97 560.29c0-.26.08-.49.24-.67s.4-.27.72-.27.56.09.72.27.25.4.25.67-.08.48-.25.66-.4.26-.72.26-.56-.09-.72-.26-.24-.39-.24-.66zm1.76 12.04h-1.63v-9.51h1.63v9.51zM122.87 562.82l.05 1.2c.73-.91 1.68-1.37 2.85-1.37 2.01 0 3.02 1.13 3.04 3.4v6.28h-1.63v-6.29c-.01-.69-.16-1.19-.47-1.52-.31-.33-.79-.49-1.44-.49-.53 0-.99.14-1.39.42s-.71.65-.93 1.11v6.78h-1.63v-9.51h1.55zM130.88 567.49c0-1.48.34-2.66 1.03-3.54s1.59-1.31 2.72-1.31c1.16 0 2.07.41 2.72 1.23l.08-1.05h1.49v9.28c0 1.23-.37 2.2-1.09 2.91-.73.71-1.71 1.06-2.94 1.06-.69 0-1.36-.15-2.01-.44s-1.16-.69-1.5-1.2l.84-.98c.7.86 1.55 1.29 2.56 1.29.79 0 1.41-.22 1.85-.67s.66-1.07.66-1.88v-.82c-.65.75-1.54 1.12-2.66 1.12-1.11 0-2.01-.45-2.7-1.34-.71-.89-1.05-2.11-1.05-3.66zm1.63.19c0 1.07.22 1.92.66 2.53s1.05.92 1.85.92c1.03 0 1.78-.47 2.26-1.4v-4.34c-.5-.91-1.25-1.36-2.24-1.36-.79 0-1.41.31-1.85.92s-.68 1.52-.68 2.73zM151.69 572.33c-.09-.19-.17-.52-.23-1-.76.79-1.66 1.18-2.71 1.18-.94 0-1.71-.26-2.31-.79-.6-.53-.9-1.2-.9-2.02 0-.99.38-1.76 1.13-2.31.75-.55 1.81-.82 3.18-.82h1.58v-.75c0-.57-.17-1.02-.51-1.36-.34-.34-.84-.51-1.5-.51-.58 0-1.07.15-1.46.44s-.59.65-.59 1.06h-1.63c0-.47.17-.93.5-1.38s.79-.79 1.37-1.05 1.21-.39 1.9-.39c1.1 0 1.95.27 2.57.82s.94 1.3.97 2.26v4.38c0 .87.11 1.57.33 2.08v.14h-1.69zm-2.7-1.24c.51 0 .99-.13 1.45-.4s.79-.61.99-1.03v-1.95h-1.27c-1.99 0-2.99.58-2.99 1.75 0 .51.17.91.51 1.2s.78.43 1.31.43zM157.81 560.51v2.3h1.78v1.26h-1.78v5.91c0 .38.08.67.24.86.16.19.43.29.81.29.19 0 .45-.04.77-.11v1.31c-.43.12-.84.17-1.25.17-.73 0-1.27-.22-1.64-.66s-.55-1.06-.55-1.87v-5.9h-1.73v-1.26h1.73v-2.3h1.62zM171.66 568.96c0-.48-.13-.86-.4-1.15s-.72-.55-1.36-.79-1.19-.48-1.65-.72-.86-.51-1.19-.82-.59-.67-.77-1.09c-.18-.42-.28-.91-.28-1.49 0-.99.32-1.8.95-2.43s1.47-1 2.52-1.11v-1.88h1.41v1.91c1.04.15 1.85.58 2.43 1.3s.88 1.65.88 2.79h-2.54c0-.7-.14-1.23-.44-1.58-.29-.35-.68-.52-1.16-.52-.48 0-.85.14-1.12.41s-.4.65-.4 1.13c0 .45.13.8.39 1.07s.74.54 1.44.83c.7.28 1.28.55 1.73.8s.83.53 1.14.84.55.67.71 1.07.25.87.25 1.4c0 1-.31 1.8-.93 2.43s-1.48.99-2.57 1.1v1.75h-1.4v-1.74c-1.2-.13-2.13-.55-2.79-1.28-.66-.72-.99-1.69-.99-2.89h2.54c0 .7.17 1.23.5 1.6.33.37.81.56 1.43.56.52 0 .92-.14 1.22-.41s.45-.63.45-1.09zM181.85 567.21c-.66.65-1.44.98-2.32.98-1.13 0-2.04-.39-2.72-1.16s-1.02-1.82-1.02-3.14c0-.84.18-1.61.55-2.31s.88-1.25 1.53-1.63 1.39-.58 2.21-.58c.84 0 1.59.21 2.25.63s1.17 1.03 1.53 1.82.55 1.7.55 2.72v.94c0 2.13-.53 3.81-1.59 5.03s-2.56 1.87-4.51 1.95l-.62.01v-2.12l.56-.01c2.22-.12 3.42-1.16 3.6-3.13zm-1.69-.97c.41 0 .76-.11 1.06-.32s.52-.47.67-.76v-1.05c0-.86-.16-1.53-.49-2s-.77-.71-1.32-.71c-.51 0-.93.23-1.26.7s-.49 1.05-.49 1.75.16 1.27.48 1.72.77.67 1.35.67zM186.47 571.08c0-.4.14-.73.41-.98.27-.25.61-.38 1.02-.38.42 0 .76.13 1.03.38s.41.58.41.98-.13.72-.4.97-.62.37-1.04.37c-.42 0-.76-.12-1.03-.37s-.4-.57-.4-.97zM197.41 567.21c-.66.65-1.44.98-2.32.98-1.13 0-2.04-.39-2.72-1.16s-1.02-1.82-1.02-3.14c0-.84.18-1.61.55-2.31s.88-1.25 1.53-1.63 1.39-.58 2.21-.58c.84 0 1.59.21 2.25.63s1.17 1.03 1.53 1.82.55 1.7.55 2.72v.94c0 2.13-.53 3.81-1.59 5.03s-2.56 1.87-4.51 1.95l-.62.01v-2.12l.56-.01c2.22-.12 3.42-1.16 3.6-3.13zm-1.7-.97c.41 0 .76-.11 1.06-.32s.52-.47.67-.76v-1.05c0-.86-.16-1.53-.49-2s-.77-.71-1.32-.71c-.51 0-.93.23-1.26.7s-.49 1.05-.49 1.75.16 1.27.48 1.72.77.67 1.35.67zM207.74 567.21c-.66.65-1.44.98-2.32.98-1.13 0-2.04-.39-2.72-1.16s-1.02-1.82-1.02-3.14c0-.84.18-1.61.55-2.31s.88-1.25 1.53-1.63 1.39-.58 2.21-.58c.84 0 1.59.21 2.25.63s1.17 1.03 1.53 1.82.55 1.7.55 2.72v.94c0 2.13-.53 3.81-1.59 5.03s-2.56 1.87-4.51 1.95l-.62.01v-2.12l.56-.01c2.22-.12 3.41-1.16 3.6-3.13zm-1.7-.97c.41 0 .76-.11 1.06-.32s.52-.47.67-.76v-1.05c0-.86-.16-1.53-.49-2s-.77-.71-1.32-.71c-.51 0-.93.23-1.26.7s-.49 1.05-.49 1.75.16 1.27.48 1.72.77.67 1.35.67zM213.03 573.42h-1.89l4.71-13.9h1.89l-4.71 13.9zM221.33 562.82l.08 1.06c.67-.83 1.58-1.24 2.73-1.24 1.22 0 2.07.48 2.52 1.45.67-.97 1.62-1.45 2.86-1.45 1.03 0 1.8.3 2.3.9s.76 1.5.76 2.71v6.07h-2.55v-6.06c0-.54-.11-.93-.32-1.18s-.58-.37-1.12-.37c-.76 0-1.29.36-1.58 1.09l.01 6.53h-2.54v-6.06c0-.55-.11-.95-.33-1.2s-.59-.37-1.11-.37c-.72 0-1.24.3-1.56.9v6.72h-2.54v-9.51h2.39zM234.14 567.48c0-.94.18-1.78.54-2.52s.89-1.31 1.57-1.71 1.48-.61 2.38-.61c1.28 0 2.33.39 3.14 1.18s1.26 1.85 1.36 3.2l.02.65c0 1.46-.41 2.63-1.22 3.51s-1.91 1.32-3.28 1.32-2.47-.44-3.28-1.32c-.82-.88-1.23-2.07-1.23-3.59v-.11zm2.54.18c0 .9.17 1.59.51 2.07.34.48.83.72 1.46.72.62 0 1.1-.24 1.44-.71.35-.47.52-1.23.52-2.27 0-.89-.17-1.57-.52-2.06s-.83-.73-1.46-.73c-.62 0-1.1.24-1.44.73s-.51 1.24-.51 2.25zM247.05 562.82l.08 1.1c.68-.85 1.59-1.27 2.73-1.27 1.01 0 1.76.3 2.25.89s.74 1.48.76 2.65v6.14h-2.54v-6.08c0-.54-.12-.93-.35-1.17s-.62-.37-1.17-.37c-.71 0-1.25.3-1.61.91v6.71h-2.54v-9.51h2.39zM257.83 560.48v2.34h1.63v1.86h-1.63v4.75c0 .35.07.6.2.76s.39.23.77.23c.28 0 .53-.02.75-.06v1.92c-.5.15-1.01.23-1.54.23-1.78 0-2.69-.9-2.72-2.7v-5.12h-1.39v-1.86h1.39v-2.34h2.54zM263.35 563.85c.67-.81 1.52-1.21 2.54-1.21 2.06 0 3.11 1.2 3.14 3.59v6.09h-2.54v-6.02c0-.54-.12-.95-.35-1.21s-.62-.39-1.17-.39c-.74 0-1.28.29-1.62.86v6.76h-2.54v-13.5h2.54v5.03z"/></g></svg>