<svg id="Layer_1" xmlns="https://www.w3.org/2000/svg" viewBox="0 0 300 600"><style>.st0{fill:#fff}</style><path id="Logo_3_" class="st0" d="M128.85 43.12c.18.17.27.39.27.64v9.94c0 .25-.09.47-.26.64-.17.17-.39.26-.64.26-.24 0-.45-.09-.63-.26a.854.854 0 0 1-.27-.64v-9.94c0-.25.09-.47.26-.64.17-.17.39-.26.64-.26.24 0 .45.09.63.26zm-.63-4.42c-.25 0-.47.09-.64.26-.17.17-.26.39-.26.64v.69c0 .25.09.47.27.64.18.17.39.26.63.26.25 0 .47-.09.64-.26.17-.17.26-.39.26-.64v-.69c0-.25-.09-.47-.27-.64a.853.853 0 0 0-.63-.26zm-3.17 4.54c-.32-.09-.74-.16-1.29-.21-.97 0-1.82.27-2.55.81a.895.895 0 0 0-.31-.52.84.84 0 0 0-.54-.2.852.852 0 0 0-.88.88v9.72c0 .25.09.46.27.63.18.17.38.25.61.25a.852.852 0 0 0 .88-.88V47.1c.02-.32.08-.63.21-.9.12-.28.3-.52.52-.73.22-.21.48-.37.76-.5.29-.12.6-.19.94-.19.43 0 .84.11 1.23.32.15.11.33.16.53.16.25 0 .46-.08.63-.24.17-.16.25-.37.25-.64 0-.32-.13-.57-.39-.75-.26-.16-.55-.3-.87-.39zm14.77-.4c-.39 0-.67.18-.83.54l-3.5 8.17-3.5-8.17a.893.893 0 0 0-.83-.54c-.27 0-.48.09-.64.28a.93.93 0 0 0-.17.98l4.31 10.06c.14.36.42.54.83.54.38 0 .65-.18.83-.54l4.31-10.06c.05-.11.07-.23.07-.36a.95.95 0 0 0-.24-.62.817.817 0 0 0-.64-.28zm9.39 2.53c.23.52.34 1.07.34 1.66v6.68c0 .25-.09.47-.27.64-.18.17-.39.26-.63.26-.22 0-.41-.07-.58-.2a.793.793 0 0 1-.3-.51c-.73.54-1.56.8-2.51.8-.58 0-1.14-.11-1.66-.33-.52-.22-.97-.52-1.36-.91-.39-.39-.69-.84-.92-1.36-.23-.52-.34-1.07-.34-1.66v-3.41c0-.58.11-1.14.33-1.66.22-.52.53-.97.92-1.36.39-.39.85-.69 1.36-.91.51-.22 1.07-.33 1.67-.33.58 0 1.14.11 1.66.33.52.22.97.52 1.36.91.39.39.7.84.93 1.36zm-1.46 1.66c0-.33-.07-.65-.2-.95-.13-.3-.31-.56-.53-.79-.22-.23-.49-.41-.79-.53-.31-.13-.63-.19-.96-.19-.35 0-.67.06-.97.19-.3.13-.56.3-.79.53-.23.23-.41.49-.53.79-.13.3-.19.62-.19.95v3.41c0 .33.07.65.2.95.13.3.31.56.53.79.22.23.49.41.79.53.31.13.63.19.96.19.33 0 .65-.06.95-.18.3-.12.56-.28.78-.5.22-.21.4-.46.53-.75.13-.28.21-.59.23-.92v-3.52zm5.45-.95c.13-.3.3-.56.53-.79.23-.23.49-.41.79-.53.3-.13.62-.19.97-.19.49 0 .94.13 1.35.4.41.27.73.64.95 1.11.06.17.17.31.32.41.15.1.32.15.51.15.25 0 .47-.09.64-.26a.883.883 0 0 0 .19-.97c-.25-.63-.57-1.12-.96-1.48-.39-.36-.78-.62-1.17-.79-.39-.17-.75-.28-1.08-.32a6.51 6.51 0 0 0-.65-.06c-.6 0-1.16.11-1.69.33-.53.22-.99.52-1.4.9a4.103 4.103 0 0 0-1.29 3.03v3.41c0 .58.11 1.14.34 1.66.23.52.54.97.92 1.36.39.39.84.69 1.36.91.52.22 1.07.33 1.66.33.02 0 .17-.01.46-.02.29-.02.65-.1 1.07-.26.42-.16.85-.42 1.29-.78.44-.36.82-.89 1.14-1.59.05-.11.07-.22.07-.33 0-.24-.09-.45-.26-.63a.854.854 0 0 0-.64-.27c-.19 0-.36.05-.5.15-.14.1-.25.24-.33.41-.21.47-.51.84-.92 1.11-.41.27-.87.4-1.37.4-.33 0-.65-.06-.96-.19-.31-.13-.57-.3-.79-.53-.22-.23-.4-.49-.53-.79-.13-.3-.2-.62-.2-.95v-3.41c-.01-.31.05-.63.18-.93zm38.31-3.22c-.25 0-.47.09-.64.26-.17.17-.26.39-.26.64v6.68c0 .33-.07.65-.2.95-.13.3-.31.56-.53.79-.22.23-.49.41-.79.53-.31.13-.63.19-.96.19-.35 0-.67-.06-.97-.19-.3-.13-.56-.3-.79-.53-.23-.23-.41-.49-.53-.79-.13-.3-.19-.62-.19-.95v-6.68c0-.25-.09-.47-.27-.64a.894.894 0 0 0-.63-.26c-.25 0-.47.09-.64.26-.17.17-.26.39-.26.64v6.68c0 .58.11 1.14.33 1.66.22.52.53.97.92 1.36.39.39.85.69 1.36.91.51.22 1.07.33 1.67.33.58 0 1.14-.11 1.66-.33.52-.22.97-.52 1.36-.91.39-.39.69-.84.92-1.36.23-.52.34-1.07.34-1.66v-6.68c0-.25-.09-.47-.27-.64a.93.93 0 0 0-.63-.26zm10.81 2.51c.23.52.34 1.07.34 1.66v6.68c0 .25-.09.47-.27.64-.18.17-.39.26-.63.26-.22 0-.41-.07-.58-.2a.793.793 0 0 1-.3-.51c-.73.54-1.56.8-2.51.8-.58 0-1.14-.11-1.66-.33-.52-.22-.97-.52-1.36-.91-.39-.39-.69-.84-.92-1.36-.23-.52-.34-1.07-.34-1.66v-3.41c0-.58.11-1.14.33-1.66.22-.52.53-.97.92-1.36.39-.39.85-.69 1.36-.91.51-.22 1.07-.33 1.67-.33.58 0 1.14.11 1.66.33.52.22.97.52 1.36.91.39.39.7.84.93 1.36zm-1.46 1.66c0-.33-.07-.65-.2-.95-.13-.3-.31-.56-.53-.79-.22-.23-.49-.41-.79-.53-.31-.13-.63-.19-.96-.19-.35 0-.67.06-.97.19-.3.13-.56.3-.79.53-.23.23-.41.49-.53.79-.13.3-.19.62-.19.95v3.41c0 .33.07.65.2.95.13.3.31.56.53.79.22.23.49.41.79.53.31.13.63.19.96.19.33 0 .65-.06.95-.18.3-.12.56-.28.78-.5.22-.21.4-.46.53-.75.13-.28.21-.59.22-.92v-3.52zm9.12-3.79c-.32-.09-.74-.16-1.29-.21-.97 0-1.82.27-2.55.81a.895.895 0 0 0-.31-.52.84.84 0 0 0-.54-.2.852.852 0 0 0-.88.88v9.72c0 .25.09.46.27.63.18.17.38.25.61.25a.852.852 0 0 0 .88-.88V47.1c.02-.32.08-.63.21-.9.12-.28.3-.52.52-.73.22-.21.48-.37.76-.5.29-.12.6-.19.94-.19.43 0 .84.11 1.23.32.15.11.33.16.53.16.25 0 .46-.08.63-.24.17-.16.25-.37.25-.64 0-.32-.13-.57-.39-.75-.26-.16-.55-.3-.87-.39zm10.07-4.28c.18.17.27.39.27.64v14.12c0 .25-.09.47-.26.64a.86.86 0 0 1-.64.26c-.24 0-.45-.09-.63-.26a.792.792 0 0 1-.24-.47c-.26.19-.54.36-.85.49-.52.22-1.07.33-1.66.33-.6 0-1.16-.11-1.67-.33a4.33 4.33 0 0 1-1.36-.91 4.204 4.204 0 0 1-1.25-3.02v-3.41c0-.58.11-1.14.34-1.66.23-.52.54-.97.92-1.36.39-.39.84-.69 1.36-.91.52-.22 1.07-.33 1.66-.33.46 0 .9.07 1.31.21.42.14.81.34 1.17.59V39.6c0-.25.09-.47.26-.64.17-.17.39-.26.64-.26.24 0 .45.08.63.26zm-1.73 12.43c.11-.26.17-.53.19-.81v-3.7c-.02-.28-.07-.54-.17-.8-.13-.3-.3-.56-.53-.79-.23-.23-.49-.41-.79-.53-.3-.13-.62-.19-.97-.19-.33 0-.65.06-.96.19-.31.13-.57.3-.79.53-.22.23-.4.49-.53.79-.13.3-.2.62-.2.95v3.41c0 .33.06.65.19.95.13.3.3.56.53.79.23.23.49.41.79.53.3.13.62.19.97.19.33 0 .65-.06.96-.19.31-.13.57-.3.79-.53.21-.23.39-.49.52-.79zm-49.51-8.53c-.25 0-.47.09-.64.26-.17.17-.26.39-.26.64v6.68c0 .33-.07.65-.2.95-.13.3-.31.56-.53.79-.22.23-.49.41-.79.53-.31.13-.63.19-.96.19-.35 0-.67-.06-.97-.19-.3-.13-.56-.3-.79-.53-.23-.23-.41-.49-.53-.79-.13-.3-.19-.62-.19-.95v-6.68c0-.25-.09-.47-.27-.64a.894.894 0 0 0-.63-.26c-.25 0-.47.09-.64.26-.17.17-.26.39-.26.64v6.68c0 .58.11 1.14.33 1.66.22.52.53.97.92 1.36.39.39.85.69 1.36.91.51.22 1.07.33 1.67.33.58 0 1.14-.11 1.66-.33.3-.13.57-.29.83-.47v2.25c-.02.33-.09.64-.21.92-.13.28-.3.53-.53.75-.23.21-.49.38-.78.51-.29.13-.61.19-.96.19-.44 0-.86-.11-1.25-.33a.935.935 0 0 0-.54-.17c-.25 0-.47.08-.64.25-.17.17-.26.38-.26.65 0 .33.13.59.4.77.27.18.56.32.89.41.32.09.76.17 1.31.21.99 0 1.86-.28 2.6-.83 1.13-.8 1.78-1.96 1.78-3.27v-5.78V43.75c0-.25-.09-.47-.27-.64-.2-.16-.41-.25-.65-.25zm12.5 3.81h-3.75c-.5 0-.91.38-.91.87 0 .5.41.91.91.91h2.99v1.41c0 1.93-1.75 3.38-3.59 3.38-2.04 0-3.76-1.39-3.76-3.76v-5.4c0-2.2 1.66-3.76 3.7-3.76 1.72 0 3.04 1.14 3.55 2.57.17.29.41.48.81.48.7 0 1.14-.57.8-1.38-.58-1.73-2.35-3.52-5.16-3.52-3.23 0-5.56 2.56-5.56 5.5v5.62c0 2.96 2.34 5.51 5.56 5.51 2.91 0 5.37-2.27 5.37-4.87v-2.7c-.01-.53-.45-.86-.96-.86zm-63.7-4.03c.29.66.44 1.37.44 2.13 0 .76-.15 1.46-.44 2.12-.29.66-.69 1.23-1.18 1.72s-1.08.88-1.75 1.17c-.67.29-1.39.43-2.14.43h-2.69v3.52a.852.852 0 0 1-.88.88c-.23 0-.44-.08-.61-.25a.832.832 0 0 1-.27-.63V40.21a.852.852 0 0 1 .88-.88h3.57c.76 0 1.47.14 2.13.43.66.29 1.25.67 1.75 1.16.5.48.9 1.05 1.19 1.72zm-1.32 2.13c0-.51-.1-.99-.3-1.44-.2-.45-.47-.84-.81-1.17-.34-.33-.74-.59-1.19-.79-.46-.19-.94-.29-1.45-.29h-2.69v7.36h2.69a3.75 3.75 0 0 0 2.66-1.08c.34-.33.61-.72.8-1.17.2-.43.29-.91.29-1.42zm-22.75-.3v-6.74a5.62 5.62 0 0 0-5.61-5.61 5.62 5.62 0 0 0-5.61 5.61v1.04c0 .49.4.89.89.89s.89-.4.89-.89v-1.04a3.82 3.82 0 1 1 7.64 0v6.74a3.82 3.82 0 0 1-3.82 3.82c-.48 0-.95-.09-1.4-.26a.903.903 0 0 0-.83.09c-.24.17-.39.44-.39.74v6.1c0 .33-.27.6-.6.6-.33 0-.6-.27-.6-.6V41.81c0-.49-.4-.89-.89-.89s-.89.4-.89.89v13.14a2.39 2.39 0 1 0 4.78 0v-4.94c.27.04.55.06.83.06 3.1.01 5.61-2.51 5.61-5.6zm-9 14.3a.895.895 0 0 0-1.21-.38c-.44.23-.61.77-.38 1.21a5.603 5.603 0 0 0 4.98 3.04 5.62 5.62 0 0 0 5.61-5.61V55.2c0-.49-.4-.89-.89-.89s-.89.4-.89.89v1.83a3.82 3.82 0 0 1-3.82 3.82 3.851 3.851 0 0 1-3.4-2.08zm5.12-4.48c-.49 0-.89.4-.89.89v1.83c0 .46-.37.83-.83.83-.15 0-.29-.04-.42-.11a.894.894 0 0 0-1.22.32c-.25.43-.1.97.32 1.22.4.23.85.36 1.32.36 1.44 0 2.62-1.17 2.62-2.62v-1.83a.907.907 0 0 0-.9-.89zm-1.99-25.15c-4.6.14-8.34 4.07-8.34 8.76v19.12c0 2.34.93 4.53 2.61 6.17a8.545 8.545 0 0 0 5.98 2.43h.26c4.6-.14 8.34-4.07 8.34-8.76V55.4c0-2.26-1.84-4.1-4.1-4.1h-2.78c-.49 0-.89.4-.89.89s.4.89.89.89h2.78c1.27 0 2.31 1.04 2.31 2.31v1.46c0 3.74-2.96 6.86-6.6 6.97-1.85.06-3.61-.63-4.95-1.92a6.778 6.778 0 0 1-2.07-4.88V37.9c0-3.74 2.96-6.86 6.6-6.97 1.86-.06 3.61.63 4.95 1.92a6.778 6.778 0 0 1 2.07 4.88v11.23c0 .49.4.89.89.89s.89-.4.89-.89V37.73c0-2.34-.93-4.53-2.61-6.17-1.66-1.63-3.88-2.49-6.23-2.42zm-2.35 15.33v-6.74c0-1.44 1.17-2.62 2.62-2.62 1.44 0 2.62 1.17 2.62 2.62v6.74c0 1.44-1.17 2.62-2.62 2.62-1.45 0-2.62-1.18-2.62-2.62zm1.78 0c0 .46.37.83.83.83.46 0 .83-.37.83-.83v-6.74c0-.46-.37-.83-.83-.83-.46 0-.83.37-.83.83v6.74zm12.42-6.54V57.01c0 3.14-1.24 6.09-3.5 8.29-2.19 2.13-5.05 3.3-8.09 3.3h-.28c-6.24-.15-11.31-5.43-11.31-11.78V37.73c0-3.14 1.24-6.09 3.5-8.29 2.25-2.2 5.23-3.37 8.37-3.3 6.24.16 11.31 5.44 11.31 11.79zm-1.79 0c0-5.39-4.29-9.87-9.56-10-2.66-.07-5.17.93-7.08 2.79a9.709 9.709 0 0 0-2.96 7.01v19.08c0 5.39 4.29 9.87 9.56 10 2.66.06 5.17-.93 7.08-2.79a9.709 9.709 0 0 0 2.96-7.01V37.93zm123.49 1.13h.33v1h.28v-1h.34v-.24h-.95v.24zm2.36-.24h-.37l-.13.41c-.04.14-.08.3-.12.44h-.01c-.03-.15-.07-.3-.1-.44l-.12-.41h-.37l-.08 1.24h.26l.02-.47c.01-.15.01-.35.02-.51.03.16.07.34.11.48l.13.48h.22l.15-.48c.05-.15.1-.32.14-.48h.01c0 .18.01.36.01.51l.02.47h.27l-.06-1.24z"/></svg>