<?xml version="1.0" encoding="utf-8"?>
<!-- Generator: Adobe Illustrator 25.2.1, SVG Export Plug-In . SVG Version: 6.00 Build 0)  -->
<svg version="1.1" id="Layer_1" xmlns="http://www.w3.org/2000/svg" xmlns:xlink="http://www.w3.org/1999/xlink" x="0px" y="0px"
	 viewBox="0 0 300 600" style="enable-background:new 0 0 300 600;" xml:space="preserve">
<style type="text/css">
	.st0{fill:#021D8B;}
</style>
<path class="st0" d="M60.01,404l2.12-11.59h4.42l-3.92,18.48H58l-2.48-10.54L53.1,410.9H48.5l-3.94-18.48h4.43L51.11,404l2.54-11.59
	h3.78L60.01,404z"/>
<path class="st0" d="M74.74,411.15c-2.11,0-3.81-0.63-5.12-1.89s-1.96-2.89-1.96-4.91V404c0-1.41,0.26-2.65,0.78-3.72
	c0.52-1.08,1.28-1.91,2.28-2.5c1-0.59,2.18-0.88,3.55-0.88c1.93,0,3.45,0.6,4.57,1.8c1.12,1.2,1.68,2.87,1.68,5.01v1.66h-8.51
	c0.15,0.77,0.49,1.38,1,1.82c0.52,0.44,1.18,0.66,2.01,0.66c1.35,0,2.41-0.47,3.17-1.42l1.96,2.31c-0.53,0.74-1.29,1.32-2.27,1.76
	C76.92,410.93,75.86,411.15,74.74,411.15z M74.25,400.21c-1.25,0-2,0.83-2.23,2.49h4.32v-0.33c0.02-0.69-0.16-1.22-0.52-1.59
	C75.45,400.39,74.93,400.21,74.25,400.21z"/>
<path class="st0" d="M84.46,393.45l-0.42,5.24h-2.63v-7.3h3.05V393.45z"/>
<path class="st0" d="M90.59,410.9H86.3v-19.5h4.29V410.9z"/>
<path class="st0" d="M97.74,410.9h-4.29v-19.5h4.29V410.9z"/>
<path class="st0" d="M110.89,397.16l0.14,1.61c0.97-1.24,2.28-1.87,3.92-1.87c1.74,0,2.91,0.69,3.52,2.07
	c0.93-1.38,2.28-2.07,4.04-2.07c2.78,0,4.21,1.68,4.29,5.05v8.94h-4.29v-8.67c0-0.7-0.12-1.21-0.36-1.54
	c-0.24-0.32-0.67-0.48-1.29-0.48c-0.85,0-1.48,0.38-1.89,1.13l0.01,0.18v9.38h-4.29v-8.65c0-0.72-0.11-1.24-0.34-1.56
	c-0.23-0.32-0.66-0.48-1.31-0.48c-0.82,0-1.45,0.38-1.88,1.13v9.56h-4.28v-13.74H110.89z"/>
<path class="st0" d="M128.71,403.9c0-1.37,0.27-2.59,0.8-3.66c0.53-1.07,1.3-1.89,2.3-2.47c1-0.58,2.17-0.86,3.52-0.86
	c2.06,0,3.68,0.64,4.86,1.91c1.18,1.27,1.78,3.01,1.78,5.2v0.15c0,2.14-0.59,3.84-1.78,5.1c-1.19,1.26-2.8,1.89-4.83,1.89
	c-1.96,0-3.53-0.59-4.71-1.76c-1.18-1.17-1.82-2.76-1.92-4.77L128.71,403.9z M132.98,404.17c0,1.27,0.2,2.2,0.6,2.79
	c0.4,0.59,0.99,0.89,1.76,0.89c1.52,0,2.3-1.17,2.34-3.52v-0.43c0-2.46-0.79-3.69-2.36-3.69c-1.43,0-2.21,1.06-2.32,3.19
	L132.98,404.17z"/>
<path class="st0" d="M147.77,397.16l0.14,1.61c0.95-1.24,2.26-1.87,3.92-1.87c1.43,0,2.5,0.43,3.21,1.28
	c0.71,0.85,1.07,2.14,1.1,3.86v8.85h-4.29v-8.67c0-0.69-0.14-1.2-0.42-1.53c-0.28-0.33-0.79-0.49-1.52-0.49
	c-0.84,0-1.46,0.33-1.87,0.99v9.7h-4.28v-13.74H147.77z"/>
<path class="st0" d="M158.48,393.62c0-0.61,0.22-1.11,0.66-1.5c0.44-0.39,1.01-0.58,1.71-0.58s1.27,0.19,1.71,0.58
	c0.44,0.39,0.66,0.89,0.66,1.5s-0.22,1.11-0.66,1.5c-0.44,0.39-1.01,0.58-1.71,0.58s-1.27-0.2-1.71-0.58
	C158.7,394.73,158.48,394.23,158.48,393.62z M163.02,410.9h-4.29v-13.74h4.29V410.9z"/>
<path class="st0" d="M170.64,393.74v3.42h2.26v2.97h-2.26v6.28c0,0.52,0.09,0.88,0.28,1.08s0.55,0.3,1.1,0.3
	c0.42,0,0.78-0.03,1.07-0.08v3.06c-0.77,0.25-1.57,0.37-2.41,0.37c-1.47,0-2.56-0.35-3.26-1.04c-0.7-0.69-1.05-1.75-1.05-3.16v-6.82
	h-1.75v-2.97h1.75v-3.42H170.64z"/>
<path class="st0" d="M173.66,403.9c0-1.37,0.27-2.59,0.8-3.66c0.53-1.07,1.3-1.89,2.3-2.47c1-0.58,2.17-0.86,3.52-0.86
	c2.06,0,3.68,0.64,4.86,1.91c1.18,1.27,1.78,3.01,1.78,5.2v0.15c0,2.14-0.59,3.84-1.78,5.1c-1.19,1.26-2.8,1.89-4.83,1.89
	c-1.96,0-3.53-0.59-4.71-1.76c-1.18-1.17-1.82-2.76-1.92-4.77L173.66,403.9z M177.94,404.17c0,1.27,0.2,2.2,0.6,2.79
	c0.4,0.59,0.99,0.89,1.76,0.89c1.52,0,2.3-1.17,2.34-3.52v-0.43c0-2.46-0.79-3.69-2.36-3.69c-1.43,0-2.21,1.06-2.32,3.19
	L177.94,404.17z"/>
<path class="st0" d="M197.11,401.03l-1.41-0.1c-1.35,0-2.21,0.42-2.59,1.27v8.7h-4.28v-13.74h4.01l0.14,1.76
	c0.72-1.35,1.72-2.02,3.01-2.02c0.46,0,0.85,0.05,1.19,0.15L197.11,401.03z"/>
<path class="st0" d="M210.62,404.9l2.29-7.74h4.58l-5.6,16.03l-0.24,0.58c-0.8,1.78-2.2,2.67-4.21,2.67c-0.56,0-1.15-0.08-1.76-0.25
	v-3.05h0.56c0.6,0,1.06-0.09,1.38-0.26c0.32-0.17,0.55-0.49,0.7-0.93l0.34-0.92l-4.77-13.87h4.57L210.62,404.9z"/>
<path class="st0" d="M218.05,403.9c0-1.37,0.27-2.59,0.8-3.66c0.53-1.07,1.3-1.89,2.3-2.47c1-0.58,2.17-0.86,3.52-0.86
	c2.06,0,3.68,0.64,4.86,1.91c1.18,1.27,1.78,3.01,1.78,5.2v0.15c0,2.14-0.59,3.84-1.78,5.1c-1.19,1.26-2.8,1.89-4.83,1.89
	c-1.96,0-3.53-0.59-4.71-1.76c-1.18-1.17-1.82-2.76-1.92-4.77L218.05,403.9z M222.33,404.17c0,1.27,0.2,2.2,0.6,2.79
	c0.4,0.59,0.99,0.89,1.76,0.89c1.52,0,2.3-1.17,2.34-3.52v-0.43c0-2.46-0.79-3.69-2.36-3.69c-1.43,0-2.21,1.06-2.32,3.19
	L222.33,404.17z"/>
<path class="st0" d="M241.38,409.41c-0.91,1.16-2.13,1.74-3.67,1.74c-1.51,0-2.65-0.44-3.42-1.31c-0.77-0.88-1.16-2.13-1.16-3.78
	v-8.9h4.28v8.92c0,1.18,0.57,1.76,1.71,1.76c0.98,0,1.68-0.35,2.09-1.05v-9.64h4.3v13.74h-4.01L241.38,409.41z"/>
<path class="st0" d="M256.17,401.03l-1.41-0.1c-1.35,0-2.21,0.42-2.59,1.27v8.7h-4.28v-13.74h4.01l0.14,1.76
	c0.72-1.35,1.72-2.02,3.01-2.02c0.46,0,0.85,0.05,1.19,0.15L256.17,401.03z"/>
</svg>
