<?xml version="1.0" encoding="utf-8"?>
<!-- Generator: Adobe Illustrator 25.2.1, SVG Export Plug-In . SVG Version: 6.00 Build 0)  -->
<svg version="1.1" id="Layer_1" xmlns="http://www.w3.org/2000/svg" xmlns:xlink="http://www.w3.org/1999/xlink" x="0px" y="0px"
	 viewBox="0 0 300 600" style="enable-background:new 0 0 300 600;" xml:space="preserve">
<style type="text/css">
	.st0{fill:#021D8B;}
</style>
<g>
	<path class="st0" d="M73.99,263.08h-4.79v-19.91h4.79V263.08z"/>
	<path class="st0" d="M76.54,255.58c0-2.34,0.51-4.19,1.52-5.54c1.01-1.35,2.42-2.02,4.24-2.02c1.32,0,2.43,0.52,3.34,1.56v-7.49
		h4.62v21h-4.14l-0.23-1.59c-0.95,1.24-2.15,1.86-3.61,1.86c-1.76,0-3.15-0.67-4.18-2.02C77.05,259.99,76.54,258.07,76.54,255.58z
		 M81.14,255.87c0,2.62,0.77,3.94,2.3,3.94c1.02,0,1.75-0.43,2.19-1.29v-5.63c-0.42-0.88-1.14-1.31-2.16-1.31
		c-1.42,0-2.19,1.15-2.31,3.45L81.14,255.87z"/>
	<path class="st0" d="M100.03,263.36c-2.27,0-4.11-0.68-5.51-2.03s-2.11-3.11-2.11-5.28v-0.38c0-1.51,0.28-2.85,0.84-4.01
		c0.56-1.16,1.38-2.05,2.45-2.69c1.08-0.63,2.35-0.95,3.83-0.95c2.08,0,3.72,0.65,4.92,1.93c1.2,1.29,1.8,3.09,1.8,5.39v1.79H97.1
		c0.16,0.83,0.52,1.48,1.08,1.96c0.56,0.47,1.28,0.71,2.16,0.71c1.46,0,2.6-0.51,3.42-1.53l2.11,2.49
		c-0.57,0.79-1.39,1.42-2.44,1.89S101.24,263.36,100.03,263.36z M99.51,251.57c-1.35,0-2.15,0.89-2.41,2.68h4.65v-0.36
		c0.02-0.74-0.17-1.31-0.56-1.72C100.8,251.78,100.24,251.57,99.51,251.57z"/>
	<path class="st0" d="M112.34,248.29l0.15,1.74c1.02-1.34,2.43-2.01,4.22-2.01c1.54,0,2.69,0.46,3.45,1.38
		c0.76,0.92,1.16,2.31,1.18,4.16v9.53h-4.62v-9.34c0-0.75-0.15-1.3-0.45-1.65c-0.3-0.35-0.85-0.53-1.64-0.53
		c-0.9,0-1.57,0.36-2.01,1.07v10.45h-4.61v-14.79H112.34z"/>
	<path class="st0" d="M129.27,244.61v3.68h2.43v3.2h-2.43v6.77c0,0.56,0.1,0.94,0.3,1.16s0.6,0.33,1.19,0.33
		c0.46,0,0.84-0.03,1.15-0.08v3.29c-0.83,0.26-1.7,0.4-2.6,0.4c-1.59,0-2.76-0.37-3.51-1.12c-0.76-0.75-1.13-1.88-1.13-3.4v-7.34
		h-1.89v-3.2h1.89v-3.68H129.27z"/>
	<path class="st0" d="M133.48,244.48c0-0.66,0.24-1.19,0.71-1.61c0.47-0.42,1.09-0.63,1.85-0.63s1.37,0.21,1.85,0.63
		c0.47,0.42,0.71,0.96,0.71,1.61s-0.24,1.19-0.71,1.61c-0.47,0.42-1.09,0.63-1.85,0.63s-1.37-0.21-1.85-0.63
		C133.72,245.67,133.48,245.13,133.48,244.48z M138.38,263.08h-4.62v-14.79h4.62V263.08z"/>
	<path class="st0" d="M146.58,244.61v3.68h2.43v3.2h-2.43v6.77c0,0.56,0.1,0.94,0.3,1.16s0.6,0.33,1.19,0.33
		c0.46,0,0.84-0.03,1.15-0.08v3.29c-0.83,0.26-1.7,0.4-2.6,0.4c-1.59,0-2.76-0.37-3.51-1.12c-0.76-0.75-1.13-1.88-1.13-3.4v-7.34
		h-1.89v-3.2h1.89v-3.68H146.58z"/>
	<path class="st0" d="M156.74,256.63l2.46-8.34h4.94l-6.03,17.27l-0.26,0.63c-0.86,1.91-2.37,2.87-4.54,2.87
		c-0.6,0-1.24-0.09-1.9-0.27v-3.28h0.6c0.65,0,1.14-0.09,1.48-0.28c0.34-0.19,0.59-0.52,0.76-1.01l0.37-0.99l-5.14-14.94h4.92
		L156.74,256.63z"/>
	<path class="st0" d="M177.67,244.61v3.68h2.43v3.2h-2.43v6.77c0,0.56,0.1,0.94,0.3,1.16s0.6,0.33,1.19,0.33
		c0.46,0,0.84-0.03,1.15-0.08v3.29c-0.83,0.26-1.7,0.4-2.6,0.4c-1.59,0-2.76-0.37-3.51-1.12c-0.76-0.75-1.13-1.88-1.13-3.4v-7.34
		h-1.89v-3.2h1.89v-3.68H177.67z"/>
	<path class="st0" d="M186.42,249.88c0.98-1.24,2.24-1.86,3.77-1.86c1.63,0,2.86,0.48,3.69,1.45c0.83,0.97,1.25,2.39,1.27,4.28v9.34
		h-4.62v-9.23c0-0.78-0.16-1.36-0.48-1.73s-0.86-0.55-1.63-0.55c-0.95,0-1.62,0.3-2.01,0.9v10.61h-4.61v-21h4.61V249.88z"/>
	<path class="st0" d="M204.88,263.36c-2.27,0-4.11-0.68-5.51-2.03s-2.11-3.11-2.11-5.28v-0.38c0-1.51,0.28-2.85,0.84-4.01
		c0.56-1.16,1.38-2.05,2.45-2.69c1.08-0.63,2.35-0.95,3.83-0.95c2.08,0,3.72,0.65,4.92,1.93c1.2,1.29,1.8,3.09,1.8,5.39v1.79h-9.16
		c0.16,0.83,0.52,1.48,1.08,1.96c0.56,0.47,1.28,0.71,2.16,0.71c1.46,0,2.6-0.51,3.42-1.53l2.11,2.49
		c-0.57,0.79-1.39,1.42-2.44,1.89S206.09,263.36,204.88,263.36z M204.36,251.57c-1.35,0-2.15,0.89-2.41,2.68h4.65v-0.36
		c0.02-0.74-0.17-1.31-0.56-1.72C205.65,251.78,205.08,251.57,204.36,251.57z"/>
	<path class="st0" d="M213.98,263.08v-11.59h-2.15v-3.2h2.15v-1.18c0-1.69,0.5-2.99,1.49-3.92s2.39-1.39,4.18-1.39
		c0.66,0,1.38,0.1,2.16,0.29l0.01,3.39c-0.28-0.08-0.66-0.12-1.13-0.12c-1.39,0-2.09,0.6-2.09,1.8v1.13h2.88v3.2h-2.88v11.59H213.98
		z"/>
	<path class="st0" d="M228.47,244.61v3.68h2.43v3.2h-2.43v6.77c0,0.56,0.1,0.94,0.3,1.16s0.6,0.33,1.19,0.33
		c0.46,0,0.84-0.03,1.15-0.08v3.29c-0.83,0.26-1.7,0.4-2.6,0.4c-1.59,0-2.76-0.37-3.51-1.12c-0.76-0.75-1.13-1.88-1.13-3.4v-7.34
		h-1.89v-3.2h1.89v-3.68H228.47z"/>
	<path class="st0" d="M51.99,289.4c0,2.3-0.52,4.13-1.55,5.5c-1.03,1.37-2.43,2.06-4.19,2.06c-1.36,0-2.47-0.5-3.35-1.49v6.9h-4.61
		v-20.48h4.31l0.14,1.37c0.88-1.09,2.05-1.64,3.49-1.64c1.82,0,3.24,0.67,4.25,2.02c1.01,1.34,1.52,3.19,1.52,5.54V289.4z
		 M47.38,289.11c0-2.62-0.77-3.94-2.3-3.94c-1.09,0-1.82,0.39-2.19,1.18v5.82c0.4,0.82,1.14,1.23,2.21,1.23
		c1.47,0,2.22-1.27,2.27-3.8V289.11z"/>
	<path class="st0" d="M62.97,286.06l-1.52-0.11c-1.45,0-2.38,0.46-2.79,1.37v9.37h-4.61v-14.79h4.32l0.15,1.9
		c0.77-1.45,1.85-2.17,3.24-2.17c0.49,0,0.92,0.05,1.29,0.16L62.97,286.06z"/>
	<path class="st0" d="M63.55,289.15c0-1.48,0.29-2.79,0.86-3.94c0.57-1.15,1.4-2.04,2.47-2.66c1.08-0.62,2.34-0.93,3.79-0.93
		c2.21,0,3.96,0.69,5.24,2.06c1.28,1.37,1.91,3.24,1.91,5.6v0.16c0,2.31-0.64,4.14-1.92,5.49s-3.01,2.03-5.2,2.03
		c-2.11,0-3.8-0.63-5.07-1.89c-1.28-1.26-1.96-2.97-2.06-5.13L63.55,289.15z M68.16,289.44c0,1.37,0.21,2.37,0.64,3.01
		c0.43,0.64,1.06,0.96,1.9,0.96c1.64,0,2.48-1.26,2.52-3.79v-0.46c0-2.65-0.85-3.98-2.54-3.98c-1.54,0-2.37,1.14-2.5,3.43
		L68.16,289.44z"/>
	<path class="st0" d="M85.22,278.21v3.68h2.43v3.2h-2.43v6.77c0,0.56,0.1,0.94,0.3,1.16s0.6,0.33,1.19,0.33
		c0.46,0,0.84-0.03,1.15-0.08v3.29c-0.83,0.26-1.7,0.4-2.6,0.4c-1.59,0-2.76-0.37-3.51-1.12c-0.76-0.75-1.13-1.88-1.13-3.4v-7.34
		h-1.89v-3.2h1.89v-3.68H85.22z"/>
	<path class="st0" d="M96.63,296.96c-2.27,0-4.11-0.68-5.51-2.03s-2.11-3.11-2.11-5.28v-0.38c0-1.51,0.28-2.85,0.84-4.01
		c0.56-1.16,1.38-2.05,2.45-2.69c1.08-0.63,2.35-0.95,3.83-0.95c2.08,0,3.72,0.65,4.92,1.93c1.2,1.29,1.8,3.09,1.8,5.39v1.79H93.7
		c0.16,0.83,0.52,1.48,1.08,1.96c0.56,0.47,1.28,0.71,2.16,0.71c1.46,0,2.6-0.51,3.42-1.53l2.11,2.49
		c-0.57,0.79-1.39,1.42-2.44,1.89S97.84,296.96,96.63,296.96z M96.11,285.17c-1.35,0-2.15,0.89-2.41,2.68h4.65v-0.36
		c0.02-0.74-0.17-1.31-0.56-1.72C97.4,285.38,96.84,285.17,96.11,285.17z"/>
	<path class="st0" d="M110.97,293.4c0.65,0,1.15-0.18,1.5-0.53c0.36-0.35,0.53-0.84,0.52-1.47h4.32c0,1.62-0.58,2.95-1.74,3.99
		s-2.66,1.56-4.49,1.56c-2.15,0-3.85-0.67-5.09-2.02c-1.24-1.35-1.86-3.22-1.86-5.61v-0.19c0-1.49,0.28-2.81,0.83-3.96
		c0.55-1.14,1.35-2.02,2.39-2.64s2.27-0.92,3.69-0.92c1.92,0,3.45,0.53,4.58,1.6s1.7,2.51,1.7,4.33h-4.32
		c0-0.77-0.19-1.35-0.56-1.76s-0.88-0.62-1.5-0.62c-1.19,0-1.89,0.76-2.09,2.28c-0.06,0.48-0.1,1.15-0.1,2
		c0,1.49,0.18,2.52,0.53,3.09S110.19,293.4,110.97,293.4z"/>
	<path class="st0" d="M124.63,278.21v3.68h2.43v3.2h-2.43v6.77c0,0.56,0.1,0.94,0.3,1.16s0.6,0.33,1.19,0.33
		c0.46,0,0.84-0.03,1.15-0.08v3.29c-0.83,0.26-1.7,0.4-2.6,0.4c-1.59,0-2.76-0.37-3.51-1.12c-0.76-0.75-1.13-1.88-1.13-3.4v-7.34
		h-1.89v-3.2h1.89v-3.68H124.63z"/>
	<path class="st0" d="M128.84,278.08c0-0.66,0.24-1.19,0.71-1.61c0.47-0.42,1.09-0.63,1.85-0.63s1.37,0.21,1.85,0.63
		c0.47,0.42,0.71,0.96,0.71,1.61s-0.24,1.19-0.71,1.61c-0.47,0.42-1.09,0.63-1.85,0.63s-1.37-0.21-1.85-0.63
		C129.08,279.27,128.84,278.73,128.84,278.08z M133.73,296.68h-4.62v-14.79h4.62V296.68z"/>
	<path class="st0" d="M135.99,289.15c0-1.48,0.29-2.79,0.86-3.94c0.57-1.15,1.4-2.04,2.47-2.66c1.08-0.62,2.34-0.93,3.79-0.93
		c2.21,0,3.96,0.69,5.24,2.06c1.28,1.37,1.91,3.24,1.91,5.6v0.16c0,2.31-0.64,4.14-1.92,5.49s-3.01,2.03-5.2,2.03
		c-2.11,0-3.8-0.63-5.07-1.89c-1.28-1.26-1.96-2.97-2.06-5.13L135.99,289.15z M140.6,289.44c0,1.37,0.21,2.37,0.64,3.01
		c0.43,0.64,1.06,0.96,1.9,0.96c1.64,0,2.48-1.26,2.52-3.79v-0.46c0-2.65-0.85-3.98-2.54-3.98c-1.54,0-2.37,1.14-2.5,3.43
		L140.6,289.44z"/>
	<path class="st0" d="M156.52,281.89l0.15,1.74c1.02-1.34,2.43-2.01,4.22-2.01c1.54,0,2.69,0.46,3.45,1.38
		c0.76,0.92,1.16,2.31,1.18,4.16v9.53h-4.62v-9.34c0-0.75-0.15-1.3-0.45-1.65c-0.3-0.35-0.85-0.53-1.64-0.53
		c-0.9,0-1.57,0.36-2.01,1.07v10.45h-4.61v-14.79H156.52z"/>
	<path class="st0" d="M183.39,296.68c-0.16-0.3-0.31-0.74-0.44-1.33c-0.85,1.07-2.03,1.6-3.55,1.6c-1.39,0-2.58-0.42-3.55-1.26
		c-0.98-0.84-1.46-1.9-1.46-3.18c0-1.6,0.59-2.82,1.78-3.64s2.91-1.23,5.17-1.23h1.42v-0.78c0-1.36-0.59-2.05-1.76-2.05
		c-1.09,0-1.64,0.54-1.64,1.62h-4.61c0-1.43,0.61-2.59,1.83-3.48s2.77-1.34,4.66-1.34s3.38,0.46,4.47,1.38
		c1.09,0.92,1.65,2.18,1.68,3.79v6.55c0.02,1.36,0.23,2.4,0.63,3.12v0.23H183.39z M180.5,293.68c0.57,0,1.05-0.12,1.43-0.37
		s0.65-0.52,0.81-0.83v-2.37h-1.34c-1.6,0-2.41,0.72-2.41,2.16c0,0.42,0.14,0.76,0.42,1.02S180.07,293.68,180.5,293.68z"/>
	<path class="st0" d="M195.28,278.21v3.68h2.43v3.2h-2.43v6.77c0,0.56,0.1,0.94,0.3,1.16s0.6,0.33,1.19,0.33
		c0.46,0,0.84-0.03,1.15-0.08v3.29c-0.83,0.26-1.7,0.4-2.6,0.4c-1.59,0-2.76-0.37-3.51-1.12c-0.76-0.75-1.13-1.88-1.13-3.4v-7.34
		h-1.89v-3.2h1.89v-3.68H195.28z"/>
	<path class="st0" d="M212.41,290.23l2.46-8.34h4.94l-6.03,17.27l-0.26,0.63c-0.86,1.91-2.37,2.87-4.54,2.87
		c-0.6,0-1.24-0.09-1.9-0.27v-3.28h0.6c0.65,0,1.14-0.09,1.48-0.28c0.34-0.19,0.59-0.52,0.76-1.01l0.37-0.99l-5.14-14.94h4.92
		L212.41,290.23z"/>
	<path class="st0" d="M220.43,289.15c0-1.48,0.29-2.79,0.86-3.94c0.57-1.15,1.4-2.04,2.47-2.66c1.08-0.62,2.34-0.93,3.79-0.93
		c2.21,0,3.96,0.69,5.24,2.06c1.28,1.37,1.91,3.24,1.91,5.6v0.16c0,2.31-0.64,4.14-1.92,5.49s-3.01,2.03-5.2,2.03
		c-2.11,0-3.8-0.63-5.07-1.89c-1.28-1.26-1.96-2.97-2.06-5.13L220.43,289.15z M225.03,289.44c0,1.37,0.21,2.37,0.64,3.01
		c0.43,0.64,1.06,0.96,1.9,0.96c1.64,0,2.48-1.26,2.52-3.79v-0.46c0-2.65-0.85-3.98-2.54-3.98c-1.54,0-2.37,1.14-2.5,3.43
		L225.03,289.44z"/>
	<path class="st0" d="M245.54,295.08c-0.98,1.25-2.29,1.87-3.95,1.87c-1.62,0-2.85-0.47-3.68-1.42s-1.25-2.3-1.25-4.07v-9.58h4.61
		v9.61c0,1.27,0.62,1.9,1.85,1.9c1.06,0,1.81-0.38,2.26-1.13v-10.38H250v14.79h-4.32L245.54,295.08z"/>
	<path class="st0" d="M261.47,286.06l-1.52-0.11c-1.45,0-2.38,0.46-2.79,1.37v9.37h-4.61v-14.79h4.32l0.15,1.9
		c0.77-1.45,1.85-2.17,3.24-2.17c0.49,0,0.92,0.05,1.29,0.16L261.47,286.06z"/>
	<path class="st0" d="M82.74,330.28v-11.59h-2.15v-3.2h2.15v-1.18c0-1.69,0.5-2.99,1.49-3.92s2.39-1.39,4.18-1.39
		c0.66,0,1.38,0.1,2.16,0.29l0.01,3.39c-0.28-0.08-0.66-0.12-1.13-0.12c-1.39,0-2.09,0.6-2.09,1.8v1.13h2.88v3.2h-2.88v11.59H82.74z
		"/>
	<path class="st0" d="M91.83,311.68c0-0.66,0.24-1.19,0.71-1.61c0.47-0.42,1.09-0.63,1.85-0.63s1.37,0.21,1.85,0.63
		c0.47,0.42,0.71,0.96,0.71,1.61s-0.24,1.19-0.71,1.61c-0.47,0.42-1.09,0.63-1.85,0.63s-1.37-0.21-1.85-0.63
		C92.07,312.87,91.83,312.33,91.83,311.68z M96.72,330.28H92.1v-14.79h4.62V330.28z"/>
	<path class="st0" d="M103.79,315.49l0.15,1.74c1.02-1.34,2.43-2.01,4.22-2.01c1.54,0,2.69,0.46,3.45,1.38
		c0.76,0.92,1.16,2.31,1.18,4.16v9.53h-4.62v-9.34c0-0.75-0.15-1.3-0.45-1.65c-0.3-0.35-0.85-0.53-1.64-0.53
		c-0.9,0-1.57,0.36-2.01,1.07v10.45h-4.61v-14.79H103.79z"/>
	<path class="st0" d="M114.81,322.78c0-1.49,0.25-2.82,0.74-3.96s1.2-2.03,2.12-2.66c0.92-0.62,1.99-0.94,3.21-0.94
		c1.54,0,2.74,0.52,3.61,1.56l0.16-1.29h4.18v14.23c0,1.3-0.3,2.44-0.91,3.4s-1.48,1.7-2.63,2.21s-2.48,0.77-3.99,0.77
		c-1.08,0-2.13-0.21-3.15-0.62s-1.79-0.94-2.33-1.6l1.93-2.71c0.86,1.01,1.99,1.52,3.39,1.52c2.04,0,3.06-1.05,3.06-3.14v-0.46
		c-0.88,0.98-2,1.46-3.35,1.46c-1.8,0-3.26-0.69-4.38-2.07s-1.67-3.23-1.67-5.54V322.78z M119.43,323.07c0,1.21,0.23,2.17,0.68,2.88
		c0.46,0.71,1.09,1.06,1.91,1.06c0.99,0,1.72-0.33,2.17-1v-6.22c-0.45-0.67-1.16-1.01-2.15-1.01c-0.82,0-1.46,0.37-1.93,1.1
		C119.66,320.61,119.43,321.67,119.43,323.07z"/>
	<path class="st0" d="M138.61,330.56c-2.27,0-4.11-0.68-5.51-2.03s-2.11-3.11-2.11-5.28v-0.38c0-1.51,0.28-2.85,0.84-4.01
		c0.56-1.16,1.38-2.05,2.45-2.69c1.08-0.63,2.35-0.95,3.83-0.95c2.08,0,3.72,0.65,4.92,1.93c1.2,1.29,1.8,3.09,1.8,5.39v1.79h-9.16
		c0.16,0.83,0.52,1.48,1.08,1.96c0.56,0.47,1.28,0.71,2.16,0.71c1.46,0,2.6-0.51,3.42-1.53l2.11,2.49
		c-0.57,0.79-1.39,1.42-2.44,1.89C140.96,330.32,139.83,330.56,138.61,330.56z M138.09,318.77c-1.35,0-2.15,0.89-2.41,2.68h4.65
		v-0.36c0.02-0.74-0.17-1.31-0.56-1.72C139.38,318.98,138.82,318.77,138.09,318.77z"/>
	<path class="st0" d="M155.65,319.66l-1.52-0.11c-1.45,0-2.38,0.46-2.79,1.37v9.37h-4.61v-14.79h4.32l0.15,1.9
		c0.77-1.45,1.85-2.17,3.24-2.17c0.49,0,0.92,0.05,1.29,0.16L155.65,319.66z"/>
	<path class="st0" d="M163.36,311.81v3.68h2.43v3.2h-2.43v6.77c0,0.56,0.1,0.94,0.3,1.16s0.6,0.33,1.19,0.33
		c0.46,0,0.84-0.03,1.15-0.08v3.29c-0.83,0.26-1.7,0.4-2.6,0.4c-1.59,0-2.76-0.37-3.51-1.12c-0.76-0.75-1.13-1.88-1.13-3.4v-7.34
		h-1.89v-3.2h1.89v-3.68H163.36z"/>
	<path class="st0" d="M167.57,311.68c0-0.66,0.24-1.19,0.71-1.61c0.47-0.42,1.09-0.63,1.85-0.63s1.37,0.21,1.85,0.63
		c0.47,0.42,0.71,0.96,0.71,1.61s-0.24,1.19-0.71,1.61c-0.47,0.42-1.09,0.63-1.85,0.63s-1.37-0.21-1.85-0.63
		C167.81,312.87,167.57,312.33,167.57,311.68z M172.46,330.28h-4.62v-14.79h4.62V330.28z"/>
	<path class="st0" d="M189.04,323c0,2.3-0.52,4.13-1.55,5.5c-1.03,1.37-2.43,2.06-4.19,2.06c-1.36,0-2.47-0.5-3.35-1.49v6.9h-4.61
		v-20.48h4.31l0.14,1.37c0.88-1.09,2.05-1.64,3.49-1.64c1.82,0,3.24,0.67,4.25,2.02c1.01,1.34,1.52,3.19,1.52,5.54V323z
		 M184.43,322.71c0-2.62-0.77-3.94-2.3-3.94c-1.09,0-1.82,0.39-2.19,1.18v5.82c0.4,0.82,1.14,1.23,2.21,1.23
		c1.47,0,2.22-1.27,2.27-3.8V322.71z"/>
	<path class="st0" d="M198.81,326.13c0-0.39-0.21-0.71-0.62-0.94c-0.41-0.24-1.19-0.48-2.34-0.74c-1.15-0.25-2.1-0.59-2.84-1
		c-0.75-0.41-1.32-0.92-1.71-1.51c-0.39-0.59-0.59-1.27-0.59-2.04c0-1.36,0.56-2.48,1.68-3.36c1.12-0.88,2.59-1.32,4.4-1.32
		c1.95,0,3.52,0.44,4.7,1.33c1.18,0.88,1.78,2.05,1.78,3.49h-4.62c0-1.18-0.62-1.78-1.87-1.78c-0.48,0-0.89,0.13-1.22,0.4
		c-0.33,0.27-0.49,0.6-0.49,1c0,0.41,0.2,0.74,0.6,1c0.4,0.26,1.04,0.46,1.92,0.63s1.65,0.36,2.32,0.59
		c2.22,0.77,3.34,2.14,3.34,4.12c0,1.35-0.6,2.45-1.8,3.29s-2.75,1.27-4.66,1.27c-1.27,0-2.4-0.23-3.39-0.68
		c-0.99-0.46-1.77-1.08-2.32-1.86c-0.56-0.78-0.83-1.61-0.83-2.47h4.31c0.02,0.68,0.25,1.18,0.68,1.5s1,0.47,1.68,0.47
		c0.63,0,1.1-0.13,1.42-0.38C198.65,326.87,198.81,326.54,198.81,326.13z"/>
	<path class="st0" d="M208.82,323.98c0-1.33,0.15-2.38,0.45-3.15c0.3-0.77,0.79-1.44,1.46-2c0.67-0.56,1.19-1.08,1.54-1.55
		c0.35-0.47,0.53-0.99,0.53-1.55c0-1.38-0.59-2.06-1.78-2.06c-0.55,0-0.99,0.2-1.33,0.6c-0.34,0.4-0.51,0.94-0.53,1.63h-4.62
		c0.02-1.82,0.59-3.24,1.72-4.26c1.13-1.02,2.72-1.52,4.76-1.52c2.03,0,3.61,0.47,4.72,1.41c1.12,0.94,1.67,2.27,1.67,4.01
		c0,0.76-0.15,1.45-0.45,2.06c-0.3,0.62-0.78,1.25-1.45,1.9l-1.57,1.46c-0.45,0.43-0.76,0.87-0.93,1.32s-0.27,1.02-0.29,1.72H208.82
		z M208.26,328.14c0-0.67,0.24-1.23,0.73-1.66c0.49-0.43,1.1-0.65,1.83-0.65s1.34,0.22,1.83,0.65c0.49,0.43,0.73,0.99,0.73,1.66
		c0,0.67-0.24,1.23-0.73,1.66c-0.49,0.43-1.1,0.65-1.83,0.65s-1.34-0.22-1.83-0.65C208.5,329.37,208.26,328.81,208.26,328.14z"/>
</g>
</svg>
