<?xml version="1.0" encoding="utf-8"?>
<!-- Generator: Adobe Illustrator 25.2.1, SVG Export Plug-In . SVG Version: 6.00 Build 0)  -->
<svg version="1.1" id="Layer_1" xmlns="http://www.w3.org/2000/svg" xmlns:xlink="http://www.w3.org/1999/xlink" x="0px" y="0px"
	 viewBox="0 0 300 600" style="enable-background:new 0 0 300 600;" xml:space="preserve">
<style type="text/css">
	.st0{fill:#021D8B;}
</style>
<g>
	<path class="st0" d="M52.28,454.9c0-0.51-0.18-0.94-0.54-1.29c-0.36-0.35-0.96-0.67-1.82-0.95c-1.19-0.36-2.05-0.83-2.59-1.42
		c-0.54-0.58-0.81-1.32-0.81-2.22c0-0.91,0.27-1.66,0.8-2.25c0.53-0.58,1.26-0.93,2.19-1.04v-1.83h1.24v1.84
		c0.94,0.13,1.66,0.52,2.18,1.18s0.78,1.56,0.78,2.7h-1.54c0-0.79-0.19-1.41-0.56-1.88c-0.37-0.46-0.88-0.7-1.51-0.7
		c-0.66,0-1.17,0.17-1.52,0.51s-0.53,0.82-0.53,1.43c0,0.57,0.18,1.02,0.55,1.36c0.37,0.34,0.98,0.64,1.83,0.92s1.51,0.58,1.99,0.91
		c0.48,0.33,0.83,0.72,1.05,1.16s0.34,0.96,0.34,1.54c0,0.94-0.28,1.7-0.85,2.27s-1.36,0.91-2.38,1.02v1.6h-1.24v-1.6
		c-1.04-0.09-1.85-0.46-2.43-1.11c-0.59-0.64-0.88-1.52-0.88-2.62h1.54c0,0.77,0.2,1.37,0.61,1.79c0.41,0.42,0.98,0.63,1.73,0.63
		c0.73,0,1.3-0.18,1.72-0.53C52.07,455.98,52.28,455.5,52.28,454.9z"/>
	<path class="st0" d="M60.82,458.03h-1.55v-10.3l-3.11,1.14v-1.4l4.43-1.66h0.24V458.03z"/>
	<path class="st0" d="M71.84,446.8v2.19h1.69v1.19h-1.69v5.61c0,0.36,0.08,0.63,0.23,0.82c0.15,0.18,0.41,0.27,0.77,0.27
		c0.18,0,0.42-0.03,0.74-0.1v1.25c-0.41,0.11-0.8,0.17-1.19,0.17c-0.69,0-1.21-0.21-1.56-0.63c-0.35-0.42-0.53-1.01-0.53-1.78v-5.6
		h-1.65v-1.19h1.65v-2.19H71.84z"/>
	<path class="st0" d="M79.7,450.38c-0.23-0.04-0.49-0.06-0.76-0.06c-1.01,0-1.7,0.43-2.06,1.29v6.41h-1.54v-9.04h1.5l0.03,1.04
		c0.51-0.81,1.22-1.21,2.15-1.21c0.3,0,0.53,0.04,0.69,0.12V450.38z"/>
	<path class="st0" d="M81.12,446.6c0-0.25,0.08-0.46,0.23-0.63s0.38-0.26,0.68-0.26s0.53,0.09,0.68,0.26s0.23,0.38,0.23,0.63
		s-0.08,0.46-0.23,0.63s-0.38,0.25-0.68,0.25s-0.53-0.08-0.68-0.25S81.12,446.85,81.12,446.6z M82.79,458.03h-1.54v-9.04h1.54
		V458.03z"/>
	<path class="st0" d="M90.84,458.03c-0.09-0.18-0.16-0.5-0.22-0.95c-0.72,0.75-1.58,1.12-2.57,1.12c-0.89,0-1.62-0.25-2.19-0.76
		c-0.57-0.5-0.86-1.14-0.86-1.92c0-0.94,0.36-1.67,1.07-2.19c0.71-0.52,1.72-0.78,3.02-0.78h1.5v-0.71c0-0.54-0.16-0.97-0.48-1.29
		c-0.32-0.32-0.8-0.48-1.43-0.48c-0.55,0-1.01,0.14-1.39,0.42s-0.56,0.62-0.56,1.01h-1.55c0-0.45,0.16-0.89,0.48-1.31
		c0.32-0.42,0.75-0.75,1.3-1c0.55-0.24,1.15-0.37,1.81-0.37c1.04,0,1.86,0.26,2.45,0.78s0.9,1.24,0.92,2.15v4.16
		c0,0.83,0.11,1.49,0.32,1.98v0.13H90.84z M88.28,456.85c0.48,0,0.94-0.12,1.38-0.38c0.43-0.25,0.75-0.58,0.94-0.98v-1.85h-1.21
		c-1.89,0-2.84,0.55-2.84,1.66c0,0.48,0.16,0.86,0.48,1.14C87.36,456.71,87.77,456.85,88.28,456.85z"/>
	<path class="st0" d="M96.25,458.03H94.7V445.2h1.54V458.03z"/>
	<path class="st0" d="M103.71,458.03v-7.84h-1.43v-1.19h1.43v-0.93c0-0.97,0.26-1.72,0.78-2.25c0.52-0.53,1.25-0.79,2.2-0.79
		c0.36,0,0.71,0.05,1.06,0.14l-0.08,1.25c-0.26-0.05-0.54-0.08-0.83-0.08c-0.5,0-0.89,0.15-1.16,0.44
		c-0.27,0.29-0.41,0.71-0.41,1.26v0.96h1.93v1.19h-1.93v7.84H103.71z"/>
	<path class="st0" d="M108.48,453.43c0-0.88,0.17-1.68,0.52-2.39c0.35-0.71,0.83-1.25,1.45-1.64c0.62-0.38,1.33-0.58,2.12-0.58
		c1.23,0,2.23,0.43,2.99,1.28c0.76,0.85,1.14,1.98,1.14,3.4v0.11c0,0.88-0.17,1.67-0.5,2.37c-0.34,0.7-0.82,1.24-1.44,1.63
		c-0.63,0.39-1.35,0.58-2.16,0.58c-1.22,0-2.22-0.43-2.98-1.28c-0.76-0.85-1.14-1.98-1.14-3.38V453.43z M110.04,453.61
		c0,1,0.23,1.81,0.7,2.41c0.46,0.61,1.09,0.91,1.87,0.91c0.79,0,1.41-0.31,1.87-0.92c0.46-0.62,0.69-1.48,0.69-2.58
		c0-0.99-0.23-1.79-0.71-2.41s-1.1-0.92-1.88-0.92c-0.76,0-1.38,0.3-1.85,0.91C110.27,451.61,110.04,452.48,110.04,453.61z"/>
	<path class="st0" d="M123.01,450.38c-0.23-0.04-0.49-0.06-0.76-0.06c-1.01,0-1.7,0.43-2.06,1.29v6.41h-1.54v-9.04h1.5l0.03,1.04
		c0.51-0.81,1.22-1.21,2.15-1.21c0.3,0,0.53,0.04,0.69,0.12V450.38z"/>
	<path class="st0" d="M130.76,446.8v2.19h1.69v1.19h-1.69v5.61c0,0.36,0.08,0.63,0.23,0.82c0.15,0.18,0.41,0.27,0.77,0.27
		c0.18,0,0.42-0.03,0.74-0.1v1.25c-0.41,0.11-0.8,0.17-1.19,0.17c-0.69,0-1.21-0.21-1.56-0.63c-0.35-0.42-0.53-1.01-0.53-1.78v-5.6
		h-1.65v-1.19h1.65v-2.19H130.76z"/>
	<path class="st0" d="M135.8,450.09c0.68-0.84,1.58-1.26,2.67-1.26c1.91,0,2.87,1.08,2.89,3.23v5.97h-1.54v-5.98
		c-0.01-0.65-0.16-1.13-0.45-1.44c-0.29-0.31-0.75-0.47-1.37-0.47c-0.5,0-0.94,0.13-1.32,0.4c-0.38,0.27-0.67,0.62-0.89,1.05v6.44
		h-1.54V445.2h1.54V450.09z"/>
	<path class="st0" d="M147.42,458.2c-1.22,0-2.22-0.4-2.99-1.21c-0.77-0.8-1.15-1.88-1.15-3.23v-0.28c0-0.9,0.17-1.7,0.51-2.4
		c0.34-0.7,0.82-1.26,1.44-1.65c0.62-0.4,1.28-0.6,2-0.6c1.17,0,2.09,0.39,2.74,1.16s0.98,1.88,0.98,3.32v0.64h-6.12
		c0.02,0.89,0.28,1.61,0.78,2.16c0.5,0.55,1.13,0.82,1.9,0.82c0.55,0,1.01-0.11,1.39-0.33s0.71-0.52,0.99-0.89l0.94,0.74
		C150.07,457.61,148.94,458.2,147.42,458.2z M147.23,450.09c-0.62,0-1.15,0.23-1.57,0.68c-0.42,0.45-0.68,1.09-0.78,1.91h4.53v-0.12
		c-0.04-0.79-0.26-1.39-0.63-1.82C148.39,450.31,147.88,450.09,147.23,450.09z"/>
	<path class="st0" d="M157.73,458.03v-7.84h-1.43v-1.19h1.43v-0.93c0-0.97,0.26-1.72,0.78-2.25c0.52-0.53,1.25-0.79,2.2-0.79
		c0.36,0,0.71,0.05,1.06,0.14l-0.08,1.25c-0.26-0.05-0.54-0.08-0.83-0.08c-0.5,0-0.89,0.15-1.16,0.44
		c-0.27,0.29-0.41,0.71-0.41,1.26v0.96h1.93v1.19h-1.93v7.84H157.73z"/>
	<path class="st0" d="M162.91,446.6c0-0.25,0.08-0.46,0.23-0.63s0.38-0.26,0.68-0.26s0.53,0.09,0.68,0.26s0.23,0.38,0.23,0.63
		s-0.08,0.46-0.23,0.63s-0.38,0.25-0.68,0.25s-0.53-0.08-0.68-0.25S162.91,446.85,162.91,446.6z M164.58,458.03h-1.54v-9.04h1.54
		V458.03z"/>
	<path class="st0" d="M171.42,450.38c-0.23-0.04-0.49-0.06-0.76-0.06c-1.01,0-1.7,0.43-2.06,1.29v6.41h-1.54v-9.04h1.5l0.03,1.04
		c0.51-0.81,1.22-1.21,2.15-1.21c0.3,0,0.53,0.04,0.69,0.12V450.38z"/>
	<path class="st0" d="M178.1,455.63c0-0.42-0.16-0.74-0.47-0.97c-0.32-0.23-0.86-0.43-1.65-0.6s-1.4-0.37-1.86-0.6
		c-0.46-0.23-0.8-0.51-1.02-0.83c-0.22-0.32-0.33-0.71-0.33-1.15c0-0.74,0.31-1.37,0.94-1.88c0.63-0.51,1.43-0.77,2.4-0.77
		c1.02,0,1.86,0.26,2.49,0.79c0.64,0.53,0.96,1.21,0.96,2.03h-1.55c0-0.42-0.18-0.79-0.54-1.09c-0.36-0.31-0.81-0.46-1.36-0.46
		c-0.56,0-1,0.12-1.32,0.37c-0.32,0.25-0.48,0.57-0.48,0.96c0,0.37,0.15,0.65,0.44,0.84c0.29,0.19,0.83,0.37,1.6,0.54
		c0.77,0.17,1.4,0.38,1.88,0.62c0.48,0.24,0.83,0.53,1.06,0.86c0.23,0.34,0.35,0.75,0.35,1.23c0,0.81-0.32,1.45-0.97,1.94
		c-0.65,0.49-1.48,0.73-2.51,0.73c-0.72,0-1.36-0.13-1.92-0.38s-0.99-0.61-1.31-1.07c-0.32-0.46-0.47-0.96-0.47-1.49h1.54
		c0.03,0.52,0.24,0.93,0.62,1.23c0.39,0.3,0.9,0.46,1.53,0.46c0.58,0,1.05-0.12,1.41-0.36C177.93,456.34,178.1,456.03,178.1,455.63z
		"/>
	<path class="st0" d="M183.76,446.8v2.19h1.69v1.19h-1.69v5.61c0,0.36,0.08,0.63,0.23,0.82c0.15,0.18,0.41,0.27,0.77,0.27
		c0.18,0,0.42-0.03,0.74-0.1v1.25c-0.41,0.11-0.8,0.17-1.19,0.17c-0.69,0-1.21-0.21-1.56-0.63c-0.35-0.42-0.53-1.01-0.53-1.78v-5.6
		h-1.65v-1.19h1.65v-2.19H183.76z"/>
	<path class="st0" d="M197.29,458.03h-2.82v-8.99l-2.77,0.81v-2.14l5.34-1.85h0.26V458.03z"/>
	<path class="st0" d="M208.39,453.28h1.24v2.17h-1.24v2.58h-2.81v-2.58h-4.7l-0.17-1.72l4.87-7.83v-0.03h2.81V453.28z
		 M203.39,453.28h2.19v-3.74l-0.18,0.28L203.39,453.28z"/>
	<path class="st0" d="M214.82,453.44c0-1.43,0.31-2.56,0.93-3.38s1.48-1.24,2.59-1.24c0.81,0,1.49,0.32,2.04,0.95v-4.58h2.82v12.83
		h-2.53l-0.14-0.97c-0.58,0.76-1.31,1.14-2.2,1.14c-1.08,0-1.93-0.41-2.56-1.24C215.13,456.14,214.82,454.96,214.82,453.44z
		 M217.63,453.62c0,1.6,0.47,2.41,1.4,2.41c0.62,0,1.07-0.26,1.34-0.79v-3.44c-0.26-0.54-0.7-0.8-1.32-0.8
		c-0.87,0-1.34,0.7-1.41,2.1L217.63,453.62z"/>
	<path class="st0" d="M229.88,458.03c-0.1-0.18-0.19-0.45-0.27-0.81c-0.52,0.65-1.24,0.98-2.17,0.98c-0.85,0-1.58-0.26-2.17-0.77
		s-0.89-1.16-0.89-1.94c0-0.98,0.36-1.72,1.09-2.22c0.72-0.5,1.78-0.75,3.16-0.75h0.87v-0.48c0-0.83-0.36-1.25-1.08-1.25
		c-0.67,0-1,0.33-1,0.99h-2.81c0-0.87,0.37-1.58,1.12-2.13s1.69-0.82,2.84-0.82c1.15,0,2.06,0.28,2.73,0.84s1.01,1.33,1.03,2.31v4
		c0.01,0.83,0.14,1.46,0.38,1.9v0.14H229.88z M228.12,456.19c0.35,0,0.64-0.08,0.87-0.23c0.23-0.15,0.4-0.32,0.5-0.51v-1.44h-0.82
		c-0.98,0-1.47,0.44-1.47,1.32c0,0.26,0.09,0.46,0.26,0.62C227.63,456.11,227.85,456.19,228.12,456.19z"/>
	<path class="st0" d="M237.48,454.09l1.5-5.09H242l-3.68,10.55l-0.16,0.38c-0.52,1.17-1.45,1.75-2.77,1.75
		c-0.37,0-0.75-0.06-1.16-0.17v-2h0.37c0.4,0,0.7-0.06,0.91-0.17c0.21-0.11,0.36-0.32,0.46-0.61l0.23-0.6l-3.14-9.13h3.01
		L237.48,454.09z"/>
	<path class="st0" d="M247.46,455.49c0-0.24-0.13-0.43-0.38-0.58c-0.25-0.14-0.73-0.29-1.43-0.45c-0.7-0.16-1.28-0.36-1.74-0.61
		c-0.46-0.25-0.8-0.56-1.04-0.92s-0.36-0.78-0.36-1.24c0-0.83,0.34-1.51,1.03-2.05c0.68-0.54,1.58-0.81,2.69-0.81
		c1.19,0,2.15,0.27,2.87,0.81s1.09,1.25,1.09,2.13h-2.82c0-0.72-0.38-1.08-1.14-1.08c-0.29,0-0.54,0.08-0.74,0.25
		s-0.3,0.37-0.3,0.61c0,0.25,0.12,0.45,0.37,0.61c0.25,0.16,0.64,0.28,1.17,0.38s1.01,0.22,1.42,0.36c1.36,0.47,2.04,1.31,2.04,2.51
		c0,0.82-0.37,1.5-1.1,2.01c-0.73,0.52-1.68,0.78-2.84,0.78c-0.77,0-1.46-0.14-2.07-0.42c-0.61-0.28-1.08-0.66-1.42-1.14
		c-0.34-0.48-0.51-0.98-0.51-1.51h2.63c0.01,0.42,0.15,0.72,0.42,0.91c0.27,0.19,0.61,0.29,1.03,0.29c0.38,0,0.67-0.08,0.87-0.23
		C247.36,455.94,247.46,455.74,247.46,455.49z"/>
	<path class="st0" d="M251.82,460.45l-0.88-0.6c0.52-0.73,0.8-1.48,0.82-2.25v-1.39h1.51v1.21c0,0.56-0.14,1.12-0.41,1.69
		C252.58,459.66,252.24,460.11,251.82,460.45z"/>
	<path class="st0" d="M65.83,480.27v4.76h-1.6v-12.16h4.48c1.33,0,2.37,0.34,3.13,1.02c0.75,0.68,1.13,1.58,1.13,2.7
		c0,1.18-0.37,2.09-1.11,2.73c-0.74,0.64-1.79,0.96-3.17,0.96H65.83z M65.83,478.96h2.88c0.86,0,1.51-0.2,1.97-0.61
		c0.46-0.4,0.68-0.99,0.68-1.75c0-0.72-0.23-1.3-0.68-1.74c-0.46-0.43-1.08-0.66-1.88-0.68h-2.97V478.96z"/>
	<path class="st0" d="M76.45,485.03h-1.54V472.2h1.54V485.03z"/>
	<path class="st0" d="M84.5,485.03c-0.09-0.18-0.16-0.5-0.22-0.95c-0.72,0.75-1.58,1.12-2.57,1.12c-0.89,0-1.62-0.25-2.19-0.76
		c-0.57-0.5-0.86-1.14-0.86-1.92c0-0.94,0.36-1.67,1.07-2.19c0.71-0.52,1.72-0.78,3.02-0.78h1.5v-0.71c0-0.54-0.16-0.97-0.48-1.29
		c-0.32-0.32-0.8-0.48-1.43-0.48c-0.55,0-1.01,0.14-1.39,0.42s-0.56,0.62-0.56,1.01h-1.55c0-0.45,0.16-0.89,0.48-1.31
		c0.32-0.42,0.75-0.75,1.3-1c0.55-0.24,1.15-0.37,1.81-0.37c1.04,0,1.86,0.26,2.45,0.78s0.9,1.24,0.92,2.15v4.16
		c0,0.83,0.11,1.49,0.32,1.98v0.13H84.5z M81.94,483.85c0.48,0,0.94-0.12,1.38-0.38c0.43-0.25,0.75-0.58,0.94-0.98v-1.85h-1.21
		c-1.89,0-2.84,0.55-2.84,1.66c0,0.48,0.16,0.86,0.48,1.14C81.02,483.71,81.43,483.85,81.94,483.85z"/>
	<path class="st0" d="M89.69,475.99l0.05,1.14c0.69-0.87,1.59-1.3,2.71-1.3c1.91,0,2.87,1.08,2.89,3.23v5.97h-1.54v-5.98
		c-0.01-0.65-0.16-1.13-0.45-1.44c-0.29-0.31-0.75-0.47-1.37-0.47c-0.5,0-0.94,0.13-1.32,0.4c-0.38,0.27-0.67,0.62-0.89,1.05v6.44
		h-1.54v-9.04H89.69z"/>
	<path class="st0" d="M102.92,482.63c0-0.42-0.16-0.74-0.47-0.97c-0.32-0.23-0.86-0.43-1.65-0.6s-1.4-0.37-1.86-0.6
		c-0.46-0.23-0.8-0.51-1.02-0.83c-0.22-0.32-0.33-0.71-0.33-1.15c0-0.74,0.31-1.37,0.94-1.88c0.63-0.51,1.43-0.77,2.4-0.77
		c1.02,0,1.86,0.26,2.49,0.79c0.64,0.53,0.96,1.21,0.96,2.03h-1.55c0-0.42-0.18-0.79-0.54-1.09c-0.36-0.31-0.81-0.46-1.36-0.46
		c-0.56,0-1,0.12-1.32,0.37c-0.32,0.25-0.48,0.57-0.48,0.96c0,0.37,0.15,0.65,0.44,0.84c0.29,0.19,0.83,0.37,1.6,0.54
		c0.77,0.17,1.4,0.38,1.88,0.62c0.48,0.24,0.83,0.53,1.06,0.86c0.23,0.34,0.35,0.75,0.35,1.23c0,0.81-0.32,1.45-0.97,1.94
		c-0.65,0.49-1.48,0.73-2.51,0.73c-0.72,0-1.36-0.13-1.92-0.38s-0.99-0.61-1.31-1.07c-0.32-0.46-0.47-0.96-0.47-1.49h1.54
		c0.03,0.52,0.24,0.93,0.62,1.23c0.39,0.3,0.9,0.46,1.53,0.46c0.58,0,1.05-0.12,1.41-0.36
		C102.75,483.34,102.92,483.03,102.92,482.63z"/>
	<path class="st0" d="M115.98,482.63c0-0.42-0.16-0.74-0.47-0.97c-0.32-0.23-0.86-0.43-1.65-0.6s-1.4-0.37-1.86-0.6
		c-0.46-0.23-0.8-0.51-1.02-0.83c-0.22-0.32-0.33-0.71-0.33-1.15c0-0.74,0.31-1.37,0.94-1.88c0.63-0.51,1.43-0.77,2.4-0.77
		c1.02,0,1.86,0.26,2.49,0.79c0.64,0.53,0.96,1.21,0.96,2.03h-1.55c0-0.42-0.18-0.79-0.54-1.09c-0.36-0.31-0.81-0.46-1.36-0.46
		c-0.56,0-1,0.12-1.32,0.37c-0.32,0.25-0.48,0.57-0.48,0.96c0,0.37,0.15,0.65,0.44,0.84c0.29,0.19,0.83,0.37,1.6,0.54
		c0.77,0.17,1.4,0.38,1.88,0.62c0.48,0.24,0.83,0.53,1.06,0.86c0.23,0.34,0.35,0.75,0.35,1.23c0,0.81-0.32,1.45-0.97,1.94
		c-0.65,0.49-1.48,0.73-2.51,0.73c-0.72,0-1.36-0.13-1.92-0.38s-0.99-0.61-1.31-1.07c-0.32-0.46-0.47-0.96-0.47-1.49h1.54
		c0.03,0.52,0.24,0.93,0.62,1.23c0.39,0.3,0.9,0.46,1.53,0.46c0.58,0,1.05-0.12,1.41-0.36C115.8,483.34,115.98,483.03,115.98,482.63
		z"/>
	<path class="st0" d="M121.63,473.8v2.19h1.69v1.19h-1.69v5.61c0,0.36,0.08,0.63,0.23,0.82c0.15,0.18,0.41,0.27,0.77,0.27
		c0.18,0,0.42-0.03,0.74-0.1v1.25c-0.41,0.11-0.8,0.17-1.19,0.17c-0.69,0-1.21-0.21-1.56-0.63c-0.35-0.42-0.53-1.01-0.53-1.78v-5.6
		h-1.65v-1.19h1.65v-2.19H121.63z"/>
	<path class="st0" d="M130.7,485.03c-0.09-0.18-0.16-0.5-0.22-0.95c-0.72,0.75-1.58,1.12-2.57,1.12c-0.89,0-1.62-0.25-2.19-0.76
		c-0.57-0.5-0.86-1.14-0.86-1.92c0-0.94,0.36-1.67,1.07-2.19c0.71-0.52,1.72-0.78,3.02-0.78h1.5v-0.71c0-0.54-0.16-0.97-0.48-1.29
		c-0.32-0.32-0.8-0.48-1.43-0.48c-0.55,0-1.01,0.14-1.39,0.42s-0.56,0.62-0.56,1.01h-1.55c0-0.45,0.16-0.89,0.48-1.31
		c0.32-0.42,0.75-0.75,1.3-1c0.55-0.24,1.15-0.37,1.81-0.37c1.04,0,1.86,0.26,2.45,0.78s0.9,1.24,0.92,2.15v4.16
		c0,0.83,0.11,1.49,0.32,1.98v0.13H130.7z M128.14,483.85c0.48,0,0.94-0.12,1.38-0.38c0.43-0.25,0.75-0.58,0.94-0.98v-1.85h-1.21
		c-1.89,0-2.84,0.55-2.84,1.66c0,0.48,0.16,0.86,0.48,1.14C127.21,483.71,127.63,483.85,128.14,483.85z"/>
	<path class="st0" d="M138.79,477.38c-0.23-0.04-0.49-0.06-0.76-0.06c-1.01,0-1.7,0.43-2.06,1.29v6.41h-1.54v-9.04h1.5l0.03,1.04
		c0.51-0.81,1.22-1.21,2.15-1.21c0.3,0,0.53,0.04,0.69,0.12V477.38z"/>
	<path class="st0" d="M142.73,473.8v2.19h1.69v1.19h-1.69v5.61c0,0.36,0.08,0.63,0.23,0.82c0.15,0.18,0.41,0.27,0.77,0.27
		c0.18,0,0.42-0.03,0.74-0.1v1.25c-0.41,0.11-0.8,0.17-1.19,0.17c-0.69,0-1.21-0.21-1.56-0.63c-0.35-0.42-0.53-1.01-0.53-1.78v-5.6
		h-1.65v-1.19h1.65v-2.19H142.73z"/>
	<path class="st0" d="M146.22,473.6c0-0.25,0.08-0.46,0.23-0.63s0.38-0.26,0.68-0.26s0.53,0.09,0.68,0.26s0.23,0.38,0.23,0.63
		s-0.08,0.46-0.23,0.63s-0.38,0.25-0.68,0.25s-0.53-0.08-0.68-0.25S146.22,473.85,146.22,473.6z M147.89,485.03h-1.54v-9.04h1.54
		V485.03z"/>
	<path class="st0" d="M151.83,475.99l0.05,1.14c0.69-0.87,1.59-1.3,2.71-1.3c1.91,0,2.87,1.08,2.89,3.23v5.97h-1.54v-5.98
		c-0.01-0.65-0.16-1.13-0.45-1.44c-0.29-0.31-0.75-0.47-1.37-0.47c-0.5,0-0.94,0.13-1.32,0.4c-0.38,0.27-0.67,0.62-0.89,1.05v6.44
		h-1.54v-9.04H151.83z"/>
	<path class="st0" d="M159.44,480.44c0-1.41,0.33-2.53,0.98-3.36c0.65-0.83,1.51-1.25,2.59-1.25c1.1,0,1.96,0.39,2.58,1.17l0.08-1
		h1.41v8.82c0,1.17-0.35,2.09-1.04,2.76c-0.69,0.67-1.62,1.01-2.79,1.01c-0.65,0-1.29-0.14-1.91-0.42c-0.62-0.28-1.1-0.66-1.43-1.14
		l0.8-0.93c0.66,0.82,1.47,1.23,2.43,1.23c0.75,0,1.34-0.21,1.76-0.63c0.42-0.42,0.63-1.02,0.63-1.79v-0.78
		c-0.62,0.71-1.46,1.07-2.53,1.07c-1.06,0-1.91-0.43-2.57-1.28C159.76,483.07,159.44,481.91,159.44,480.44z M160.99,480.61
		c0,1.02,0.21,1.82,0.63,2.4c0.42,0.58,1,0.87,1.75,0.87c0.97,0,1.69-0.44,2.15-1.33v-4.13c-0.47-0.86-1.18-1.29-2.13-1.29
		c-0.75,0-1.34,0.29-1.76,0.88C161.2,478.6,160.99,479.46,160.99,480.61z"/>
	<path class="st0" d="M179.21,485.03c-0.09-0.18-0.16-0.5-0.22-0.95c-0.72,0.75-1.58,1.12-2.57,1.12c-0.89,0-1.62-0.25-2.19-0.76
		c-0.57-0.5-0.86-1.14-0.86-1.92c0-0.94,0.36-1.67,1.07-2.19c0.71-0.52,1.72-0.78,3.02-0.78h1.5v-0.71c0-0.54-0.16-0.97-0.48-1.29
		c-0.32-0.32-0.8-0.48-1.43-0.48c-0.55,0-1.01,0.14-1.39,0.42s-0.56,0.62-0.56,1.01h-1.55c0-0.45,0.16-0.89,0.48-1.31
		c0.32-0.42,0.75-0.75,1.3-1c0.55-0.24,1.15-0.37,1.81-0.37c1.04,0,1.86,0.26,2.45,0.78s0.9,1.24,0.92,2.15v4.16
		c0,0.83,0.11,1.49,0.32,1.98v0.13H179.21z M176.65,483.85c0.48,0,0.94-0.12,1.38-0.38c0.43-0.25,0.75-0.58,0.94-0.98v-1.85h-1.21
		c-1.89,0-2.84,0.55-2.84,1.66c0,0.48,0.16,0.86,0.48,1.14C175.73,483.71,176.14,483.85,176.65,483.85z"/>
	<path class="st0" d="M185.03,473.8v2.19h1.69v1.19h-1.69v5.61c0,0.36,0.08,0.63,0.23,0.82c0.15,0.18,0.41,0.27,0.77,0.27
		c0.18,0,0.42-0.03,0.74-0.1v1.25c-0.41,0.11-0.8,0.17-1.19,0.17c-0.69,0-1.21-0.21-1.56-0.63c-0.35-0.42-0.53-1.01-0.53-1.78v-5.6
		h-1.65v-1.19h1.65v-2.19H185.03z"/>
	<path class="st0" d="M197.93,481.8c0-0.44-0.11-0.79-0.33-1.04c-0.22-0.25-0.6-0.49-1.14-0.71s-1.05-0.45-1.51-0.68
		s-0.86-0.49-1.19-0.79s-0.59-0.65-0.77-1.04c-0.18-0.4-0.27-0.87-0.27-1.44c0-0.94,0.32-1.72,0.95-2.33
		c0.63-0.61,1.48-0.96,2.54-1.06v-1.76h1.33v1.79c1.02,0.15,1.82,0.57,2.4,1.26c0.58,0.69,0.87,1.56,0.87,2.62h-2.82
		c0-0.58-0.11-1.02-0.33-1.34s-0.54-0.47-0.95-0.47c-0.37,0-0.65,0.12-0.86,0.35c-0.2,0.23-0.31,0.55-0.31,0.96
		c0,0.41,0.12,0.74,0.35,0.98c0.23,0.24,0.61,0.47,1.13,0.69s1.01,0.45,1.47,0.68s0.86,0.5,1.19,0.81s0.6,0.65,0.79,1.05
		c0.19,0.4,0.28,0.88,0.28,1.44c0,0.95-0.3,1.73-0.91,2.33c-0.6,0.6-1.43,0.95-2.47,1.05v1.68h-1.33v-1.69
		c-1.21-0.13-2.15-0.54-2.79-1.25c-0.65-0.7-0.97-1.63-0.97-2.79h2.81c0,0.63,0.14,1.12,0.42,1.45c0.28,0.33,0.68,0.5,1.2,0.5
		c0.38,0,0.68-0.11,0.89-0.34C197.83,482.51,197.93,482.2,197.93,481.8z"/>
	<path class="st0" d="M207.78,480.33c-0.61,0.55-1.29,0.82-2.04,0.82c-1.1,0-1.98-0.37-2.62-1.12c-0.65-0.75-0.97-1.74-0.97-2.99
		c0-0.78,0.18-1.5,0.54-2.17c0.36-0.67,0.87-1.2,1.52-1.59s1.38-0.58,2.17-0.58c0.8,0,1.53,0.2,2.18,0.61
		c0.65,0.4,1.15,0.97,1.52,1.71c0.36,0.74,0.55,1.59,0.56,2.55v1.08c0,1.34-0.26,2.51-0.79,3.49s-1.28,1.74-2.25,2.27
		c-0.97,0.53-2.11,0.79-3.41,0.79h-0.17v-2.25l0.53-0.01C206.49,482.84,207.56,481.97,207.78,480.33z M206.5,479.12
		c0.61,0,1.05-0.26,1.32-0.79v-1.17c0-0.78-0.13-1.36-0.39-1.73s-0.62-0.56-1.06-0.56c-0.4,0-0.73,0.21-0.99,0.63
		c-0.27,0.42-0.4,0.93-0.4,1.54c0,0.63,0.14,1.14,0.41,1.52S206.03,479.12,206.5,479.12z"/>
	<path class="st0" d="M213.93,482.3c0.45,0,0.82,0.13,1.11,0.4c0.3,0.26,0.44,0.6,0.44,1.01s-0.15,0.75-0.44,1.01
		c-0.29,0.26-0.67,0.4-1.11,0.4c-0.45,0-0.82-0.13-1.12-0.4c-0.29-0.27-0.44-0.6-0.44-1.01s0.15-0.74,0.44-1.01
		C213.1,482.43,213.48,482.3,213.93,482.3z"/>
	<path class="st0" d="M222.85,480.33c-0.61,0.55-1.29,0.82-2.04,0.82c-1.1,0-1.98-0.37-2.62-1.12c-0.65-0.75-0.97-1.74-0.97-2.99
		c0-0.78,0.18-1.5,0.54-2.17c0.36-0.67,0.87-1.2,1.52-1.59s1.38-0.58,2.17-0.58c0.8,0,1.53,0.2,2.18,0.61
		c0.65,0.4,1.15,0.97,1.52,1.71c0.36,0.74,0.55,1.59,0.56,2.55v1.08c0,1.34-0.26,2.51-0.79,3.49s-1.28,1.74-2.25,2.27
		c-0.97,0.53-2.11,0.79-3.41,0.79h-0.17v-2.25l0.53-0.01C221.56,482.84,222.64,481.97,222.85,480.33z M221.58,479.12
		c0.61,0,1.05-0.26,1.32-0.79v-1.17c0-0.78-0.13-1.36-0.39-1.73s-0.62-0.56-1.06-0.56c-0.4,0-0.73,0.21-0.99,0.63
		c-0.27,0.42-0.4,0.93-0.4,1.54c0,0.63,0.14,1.14,0.41,1.52S221.1,479.12,221.58,479.12z"/>
	<path class="st0" d="M232.76,480.33c-0.61,0.55-1.29,0.82-2.04,0.82c-1.1,0-1.98-0.37-2.62-1.12c-0.65-0.75-0.97-1.74-0.97-2.99
		c0-0.78,0.18-1.5,0.54-2.17c0.36-0.67,0.87-1.2,1.52-1.59s1.38-0.58,2.17-0.58c0.8,0,1.53,0.2,2.18,0.61
		c0.65,0.4,1.15,0.97,1.52,1.71c0.36,0.74,0.55,1.59,0.56,2.55v1.08c0,1.34-0.26,2.51-0.79,3.49s-1.28,1.74-2.25,2.27
		c-0.97,0.53-2.11,0.79-3.41,0.79h-0.17v-2.25l0.53-0.01C231.46,482.84,232.54,481.97,232.76,480.33z M231.48,479.12
		c0.61,0,1.05-0.26,1.32-0.79v-1.17c0-0.78-0.13-1.36-0.39-1.73s-0.62-0.56-1.06-0.56c-0.4,0-0.73,0.21-0.99,0.63
		c-0.27,0.42-0.4,0.93-0.4,1.54c0,0.63,0.14,1.14,0.41,1.52S231.01,479.12,231.48,479.12z"/>
	<path class="st0" d="M88.03,500.81v2.19h1.69v1.19h-1.69v5.61c0,0.36,0.08,0.63,0.23,0.82c0.15,0.18,0.41,0.27,0.77,0.27
		c0.18,0,0.42-0.03,0.74-0.1v1.25c-0.41,0.11-0.8,0.17-1.19,0.17c-0.69,0-1.21-0.21-1.56-0.63c-0.35-0.42-0.53-1.01-0.53-1.78v-5.6
		h-1.64v-1.19h1.64v-2.19H88.03z"/>
	<path class="st0" d="M90.95,507.43c0-0.88,0.17-1.68,0.52-2.39c0.35-0.71,0.83-1.25,1.45-1.64s1.33-0.58,2.12-0.58
		c1.23,0,2.23,0.43,2.99,1.28s1.14,1.98,1.14,3.4v0.11c0,0.88-0.17,1.67-0.5,2.37c-0.34,0.7-0.82,1.24-1.45,1.63
		c-0.63,0.39-1.35,0.58-2.16,0.58c-1.22,0-2.22-0.43-2.98-1.28s-1.14-1.98-1.14-3.38V507.43z M92.5,507.61c0,1,0.23,1.81,0.7,2.41
		s1.09,0.91,1.87,0.91c0.79,0,1.41-0.31,1.87-0.92s0.69-1.48,0.69-2.58c0-0.99-0.24-1.79-0.71-2.41c-0.47-0.61-1.1-0.92-1.88-0.92
		c-0.76,0-1.38,0.3-1.84,0.91C92.73,505.61,92.5,506.48,92.5,507.61z"/>
	<path class="st0" d="M110.77,508.83c0-0.46-0.13-0.82-0.38-1.09c-0.25-0.27-0.68-0.52-1.29-0.75c-0.61-0.23-1.13-0.46-1.57-0.68
		c-0.44-0.23-0.82-0.48-1.13-0.78c-0.32-0.29-0.56-0.64-0.74-1.03c-0.17-0.39-0.26-0.87-0.26-1.41c0-0.94,0.3-1.71,0.9-2.31
		c0.6-0.6,1.4-0.95,2.4-1.05v-1.79h1.34v1.81c0.99,0.14,1.76,0.55,2.31,1.23c0.56,0.68,0.83,1.57,0.83,2.65h-2.41
		c0-0.67-0.14-1.17-0.41-1.5c-0.28-0.33-0.64-0.5-1.11-0.5c-0.46,0-0.81,0.13-1.06,0.39c-0.25,0.26-0.38,0.62-0.38,1.07
		c0,0.42,0.12,0.76,0.37,1.02s0.7,0.52,1.37,0.79c0.67,0.27,1.21,0.52,1.64,0.76c0.43,0.24,0.79,0.5,1.09,0.8
		c0.29,0.3,0.52,0.64,0.68,1.02c0.16,0.38,0.23,0.83,0.23,1.33c0,0.95-0.29,1.71-0.88,2.3s-1.4,0.94-2.44,1.04v1.66h-1.33v-1.65
		c-1.14-0.12-2.02-0.53-2.65-1.21c-0.63-0.69-0.94-1.6-0.94-2.74h2.41c0,0.66,0.16,1.17,0.47,1.52s0.77,0.53,1.36,0.53
		c0.49,0,0.88-0.13,1.16-0.39C110.63,509.62,110.77,509.27,110.77,508.83z"/>
	<path class="st0" d="M123.14,512.03h-8.33v-1.65l3.93-4.19c0.54-0.59,0.94-1.1,1.2-1.54c0.26-0.44,0.39-0.86,0.39-1.25
		c0-0.54-0.14-0.96-0.41-1.27s-0.66-0.46-1.17-0.46c-0.55,0-0.98,0.19-1.29,0.56c-0.31,0.38-0.47,0.87-0.47,1.48h-2.42
		c0-0.74,0.18-1.42,0.53-2.03c0.35-0.61,0.85-1.09,1.5-1.44c0.65-0.35,1.38-0.52,2.2-0.52c1.25,0,2.22,0.3,2.92,0.9
		c0.69,0.6,1.04,1.45,1.04,2.55c0,0.6-0.16,1.21-0.47,1.84c-0.31,0.62-0.85,1.35-1.6,2.18l-2.76,2.91h5.23V512.03z"/>
	<path class="st0" d="M131.76,507.45h1.38v1.95h-1.38v2.63h-2.41v-2.63h-4.99l-0.11-1.52l5.07-8.01h2.44V507.45z M126.66,507.45
		h2.69v-4.29l-0.16,0.28L126.66,507.45z"/>
	<path class="st0" d="M134.66,510.84c0-0.38,0.13-0.7,0.39-0.94s0.58-0.36,0.97-0.36c0.4,0,0.72,0.12,0.98,0.36s0.39,0.55,0.39,0.94
		c0,0.38-0.13,0.69-0.38,0.92c-0.26,0.24-0.58,0.35-0.99,0.35c-0.4,0-0.72-0.12-0.98-0.35
		C134.78,511.53,134.66,511.22,134.66,510.84z"/>
	<path class="st0" d="M145.04,507.17c-0.63,0.62-1.36,0.93-2.2,0.93c-1.07,0-1.93-0.37-2.58-1.11s-0.97-1.73-0.97-2.99
		c0-0.8,0.17-1.53,0.52-2.19c0.35-0.67,0.83-1.18,1.46-1.55c0.62-0.37,1.32-0.56,2.1-0.56c0.8,0,1.51,0.2,2.14,0.6
		c0.62,0.4,1.11,0.98,1.45,1.73c0.34,0.75,0.52,1.61,0.53,2.58v0.89c0,2.03-0.5,3.62-1.51,4.78c-1.01,1.16-2.44,1.78-4.28,1.85
		l-0.59,0.01v-2.01l0.53-0.01C143.74,510.03,144.87,509.04,145.04,507.17z M143.43,506.25c0.39,0,0.72-0.1,1.01-0.3
		c0.28-0.2,0.49-0.44,0.64-0.73v-0.99c0-0.82-0.16-1.45-0.47-1.9c-0.31-0.45-0.73-0.68-1.25-0.68c-0.48,0-0.88,0.22-1.19,0.66
		c-0.31,0.44-0.47,1-0.47,1.67c0,0.66,0.15,1.21,0.46,1.63C142.45,506.04,142.88,506.25,143.43,506.25z"/>
	<path class="st0" d="M154.85,507.17c-0.63,0.62-1.36,0.93-2.2,0.93c-1.07,0-1.93-0.37-2.58-1.11s-0.97-1.73-0.97-2.99
		c0-0.8,0.17-1.53,0.52-2.19c0.35-0.67,0.83-1.18,1.46-1.55c0.62-0.37,1.32-0.56,2.1-0.56c0.8,0,1.51,0.2,2.14,0.6
		c0.62,0.4,1.11,0.98,1.45,1.73c0.34,0.75,0.52,1.61,0.53,2.58v0.89c0,2.03-0.5,3.62-1.51,4.78c-1.01,1.16-2.44,1.78-4.28,1.85
		l-0.59,0.01v-2.01l0.53-0.01C153.55,510.03,154.68,509.04,154.85,507.17z M153.24,506.25c0.39,0,0.72-0.1,1.01-0.3
		c0.28-0.2,0.49-0.44,0.64-0.73v-0.99c0-0.82-0.16-1.45-0.47-1.9c-0.31-0.45-0.73-0.68-1.25-0.68c-0.48,0-0.88,0.22-1.19,0.66
		c-0.31,0.44-0.47,1-0.47,1.67c0,0.66,0.15,1.21,0.46,1.63C152.26,506.04,152.69,506.25,153.24,506.25z"/>
	<path class="st0" d="M159.67,513.07h-1.33l5.08-13.2h1.32L159.67,513.07z"/>
	<path class="st0" d="M167.86,502.99l0.04,1c0.66-0.78,1.56-1.17,2.68-1.17c1.26,0,2.12,0.48,2.58,1.45
		c0.3-0.43,0.69-0.79,1.17-1.05c0.48-0.27,1.05-0.4,1.71-0.4c1.98,0,2.99,1.05,3.02,3.15v6.05h-1.54v-5.96
		c0-0.65-0.15-1.13-0.44-1.45s-0.79-0.48-1.49-0.48c-0.57,0-1.05,0.17-1.43,0.51c-0.38,0.34-0.6,0.8-0.66,1.38v6h-1.55v-5.92
		c0-1.31-0.64-1.97-1.93-1.97c-1.01,0-1.71,0.43-2.08,1.29v6.6h-1.54v-9.03H167.86z"/>
	<path class="st0" d="M180.99,507.43c0-0.88,0.17-1.68,0.52-2.39c0.35-0.71,0.83-1.25,1.45-1.64s1.33-0.58,2.12-0.58
		c1.23,0,2.23,0.43,2.99,1.28s1.14,1.98,1.14,3.4v0.11c0,0.88-0.17,1.67-0.5,2.37c-0.34,0.7-0.82,1.24-1.45,1.63
		c-0.63,0.39-1.35,0.58-2.16,0.58c-1.22,0-2.22-0.43-2.98-1.28s-1.14-1.98-1.14-3.38V507.43z M182.54,507.61c0,1,0.23,1.81,0.7,2.41
		s1.09,0.91,1.87,0.91c0.79,0,1.41-0.31,1.87-0.92s0.69-1.48,0.69-2.58c0-0.99-0.24-1.79-0.71-2.41c-0.47-0.61-1.1-0.92-1.88-0.92
		c-0.76,0-1.38,0.3-1.84,0.91C182.78,505.61,182.54,506.48,182.54,507.61z"/>
	<path class="st0" d="M192.61,502.99l0.05,1.14c0.69-0.87,1.59-1.3,2.71-1.3c1.91,0,2.87,1.08,2.89,3.23v5.97h-1.54v-5.98
		c0-0.65-0.15-1.13-0.45-1.44s-0.75-0.47-1.37-0.47c-0.5,0-0.94,0.13-1.32,0.4c-0.38,0.27-0.67,0.62-0.88,1.05v6.44h-1.54v-9.03
		H192.61z"/>
	<path class="st0" d="M202.68,500.81v2.19h1.69v1.19h-1.69v5.61c0,0.36,0.08,0.63,0.23,0.82c0.15,0.18,0.41,0.27,0.77,0.27
		c0.18,0,0.42-0.03,0.74-0.1v1.25c-0.41,0.11-0.8,0.17-1.19,0.17c-0.69,0-1.21-0.21-1.56-0.63c-0.35-0.42-0.53-1.01-0.53-1.78v-5.6
		h-1.64v-1.19h1.64v-2.19H202.68z"/>
	<path class="st0" d="M207.72,504.09c0.68-0.84,1.58-1.26,2.67-1.26c1.91,0,2.87,1.08,2.89,3.23v5.97h-1.54v-5.98
		c0-0.65-0.15-1.13-0.45-1.44s-0.75-0.47-1.37-0.47c-0.5,0-0.94,0.13-1.32,0.4c-0.38,0.27-0.67,0.62-0.88,1.05v6.44h-1.54V499.2
		h1.54V504.09z"/>
</g>
</svg>
