<svg id="Layer_1" xmlns="http://www.w3.org/2000/svg" viewBox="0 0 320 50"><style>.st0{fill:#021d8b}</style><g id="C2_-_O_1_"><path class="st0" d="M161.1 27.43l-1.05 1.16v2.81h-2.57V20.73h2.57v4.7l.89-1.35 2.3-3.35h3.18l-3.6 4.72 3.6 5.95h-3.05l-2.27-3.97zM169.23 23.47l.08.93c.55-.72 1.3-1.08 2.26-1.08.83 0 1.44.25 1.85.74.41.49.62 1.24.63 2.23v5.1h-2.48v-5c0-.4-.08-.69-.24-.88-.16-.19-.45-.28-.88-.28-.48 0-.84.19-1.08.57v5.6h-2.47v-7.92h2.33zM175.11 27.36c0-.79.15-1.5.46-2.11.31-.62.75-1.09 1.33-1.42s1.25-.5 2.03-.5c1.19 0 2.12.37 2.81 1.1.68.74 1.03 1.73 1.03 3v.09c0 1.24-.34 2.22-1.03 2.94-.69.73-1.61 1.09-2.79 1.09-1.13 0-2.03-.34-2.72-1.01-.68-.68-1.05-1.59-1.11-2.75l-.01-.43zm2.47.15c0 .73.11 1.27.34 1.61s.57.51 1.02.51c.88 0 1.33-.68 1.35-2.03v-.25c0-1.42-.45-2.13-1.36-2.13-.83 0-1.27.61-1.34 1.84l-.01.45zM190.69 28.14l.8-4.67h2.37l-1.87 7.92h-2.09l-1.31-4.7-1.32 4.7h-2.09l-1.87-7.92h2.37l.78 4.78 1.26-4.78h1.72l1.25 4.67zM205.83 27.5c0 1.3-.27 2.3-.81 3s-1.29 1.05-2.27 1.05c-.81 0-1.46-.32-1.95-.96l-.1.81h-2.21V20.15h2.47v3.96c.46-.52 1.05-.78 1.78-.78.99 0 1.75.35 2.29 1.06s.81 1.7.81 2.99v.12zm-2.48-.16c0-.76-.1-1.3-.3-1.63s-.51-.49-.93-.49c-.56 0-.94.21-1.16.64V29c.21.42.6.63 1.17.63.58 0 .95-.28 1.11-.85.07-.27.11-.75.11-1.44zM210.75 31.54c-1.22 0-2.2-.36-2.95-1.09-.75-.72-1.13-1.67-1.13-2.83v-.21c0-.81.15-1.53.45-2.15.3-.62.74-1.1 1.31-1.44.58-.34 1.26-.51 2.05-.51 1.11 0 1.99.35 2.64 1.04.64.69.97 1.65.97 2.89v.96h-4.91c.09.44.28.79.58 1.05s.68.38 1.16.38c.78 0 1.39-.27 1.83-.82l1.13 1.33c-.31.42-.74.76-1.31 1.01-.57.27-1.17.39-1.82.39zm-.28-6.31c-.72 0-1.15.48-1.29 1.44h2.49v-.19c.01-.4-.09-.7-.3-.92-.21-.22-.51-.33-.9-.33zM215.63 31.4v-6.21h-1.15v-1.71h1.15v-.63c0-.9.27-1.6.8-2.1s1.28-.75 2.24-.75c.35 0 .74.05 1.16.15l.01 1.82c-.15-.04-.35-.07-.61-.07-.75 0-1.12.32-1.12.97v.61h1.55v1.71h-1.55v6.21h-2.48zM220.2 27.36c0-.79.15-1.5.46-2.11.31-.62.75-1.09 1.33-1.42s1.25-.5 2.03-.5c1.19 0 2.12.37 2.81 1.1.68.74 1.03 1.73 1.03 3v.09c0 1.24-.34 2.22-1.03 2.94-.69.73-1.61 1.09-2.79 1.09-1.13 0-2.03-.34-2.72-1.01-.68-.68-1.05-1.59-1.11-2.75l-.01-.43zm2.47.15c0 .73.11 1.27.34 1.61s.57.51 1.02.51c.88 0 1.33-.68 1.35-2.03v-.25c0-1.42-.45-2.13-1.36-2.13-.83 0-1.27.61-1.34 1.84l-.01.45zM233.73 25.71l-.81-.06c-.78 0-1.27.24-1.49.73v5.02h-2.47v-7.92h2.31l.08 1.02c.42-.78.99-1.17 1.74-1.17.26 0 .49.03.69.09l-.05 2.29zM238.32 31.54c-1.22 0-2.2-.36-2.95-1.09-.75-.72-1.13-1.67-1.13-2.83v-.21c0-.81.15-1.53.45-2.15.3-.62.74-1.1 1.31-1.44.58-.34 1.26-.51 2.05-.51 1.11 0 1.99.35 2.64 1.04.64.69.97 1.65.97 2.89v.96h-4.91c.09.44.28.79.58 1.05s.68.38 1.16.38c.78 0 1.39-.27 1.83-.82l1.13 1.33c-.31.42-.74.76-1.31 1.01-.57.27-1.18.39-1.82.39zm-.28-6.31c-.72 0-1.15.48-1.29 1.44h2.49v-.19c.01-.4-.09-.7-.3-.92-.21-.22-.51-.33-.9-.33zM249.55 27.94l1.32-4.47h2.64l-3.23 9.25-.14.34c-.46 1.03-1.27 1.54-2.43 1.54-.32 0-.66-.05-1.02-.15v-1.76h.32c.35 0 .61-.05.79-.15.18-.1.32-.28.41-.54l.2-.53-2.75-8h2.64l1.25 4.47zM253.73 27.36c0-.79.15-1.5.46-2.11.31-.62.75-1.09 1.33-1.42.58-.33 1.25-.5 2.03-.5 1.19 0 2.12.37 2.81 1.1.68.74 1.03 1.73 1.03 3v.09c0 1.24-.34 2.22-1.03 2.94-.69.73-1.61 1.09-2.79 1.09-1.13 0-2.03-.34-2.72-1.01-.68-.68-1.05-1.59-1.11-2.75l-.01-.43zm2.47.15c0 .73.11 1.27.34 1.61s.57.51 1.02.51c.88 0 1.33-.68 1.35-2.03v-.25c0-1.42-.45-2.13-1.36-2.13-.83 0-1.27.61-1.34 1.84l-.01.45zM267.19 30.54c-.52.67-1.23 1-2.12 1-.87 0-1.53-.25-1.97-.76-.45-.51-.67-1.23-.67-2.18v-5.13h2.47v5.15c0 .68.33 1.02.99 1.02.57 0 .97-.2 1.21-.61v-5.56h2.48v7.92h-2.31l-.08-.85zM274.37 27.37c0-.8.13-1.51.4-2.12s.64-1.09 1.14-1.42c.49-.33 1.07-.5 1.72-.5.83 0 1.47.28 1.93.83l.09-.69h2.24v7.62c0 .7-.16 1.3-.49 1.82-.33.52-.79.91-1.41 1.19-.62.28-1.33.41-2.14.41-.58 0-1.14-.11-1.69-.33s-.96-.51-1.25-.86l1.03-1.45c.46.54 1.06.81 1.82.81 1.09 0 1.64-.56 1.64-1.68v-.25c-.47.52-1.07.78-1.79.78-.97 0-1.75-.37-2.34-1.11-.6-.74-.89-1.73-.89-2.97v-.08zm2.48.16c0 .65.12 1.16.37 1.54.24.38.59.57 1.03.57.53 0 .92-.18 1.16-.53v-3.33c-.24-.36-.62-.54-1.15-.54-.44 0-.78.2-1.03.59-.26.38-.38.95-.38 1.7zM282.98 27.36c0-.79.15-1.5.46-2.11.31-.62.75-1.09 1.33-1.42s1.25-.5 2.03-.5c1.19 0 2.12.37 2.81 1.1.68.74 1.03 1.73 1.03 3v.09c0 1.24-.34 2.22-1.03 2.94-.69.73-1.61 1.09-2.79 1.09-1.13 0-2.03-.34-2.72-1.01-.68-.68-1.05-1.59-1.11-2.75l-.01-.43zm2.47.15c0 .73.11 1.27.34 1.61s.57.51 1.02.51c.88 0 1.33-.68 1.35-2.03v-.25c0-1.42-.45-2.13-1.36-2.13-.83 0-1.27.61-1.34 1.84l-.01.45zM293.24 29c.39 0 .72.12.97.35.26.23.39.53.39.89s-.13.66-.39.89c-.26.23-.58.35-.97.35-.4 0-.72-.12-.98-.35-.26-.23-.38-.53-.38-.89s.13-.65.38-.89c.26-.23.58-.35.98-.35z"/></g></svg>