<svg id="Layer_1" xmlns="http://www.w3.org/2000/svg" viewBox="0 0 320 50"><style>.st0{fill:#021d8b}.st1{fill:url(#SVGID_1_)}</style><g id="C4_-_O_1_"><path class="st0" d="M146.99 41.5a.68.68 0 0 0-.2-.49c-.14-.13-.36-.25-.69-.36-.45-.14-.77-.31-.98-.53-.2-.22-.31-.5-.31-.84 0-.34.1-.63.3-.85.2-.22.48-.35.83-.39v-.69h.47v.69c.35.05.63.2.82.44.2.25.29.59.29 1.02h-.58c0-.3-.07-.53-.21-.71s-.33-.26-.57-.26c-.25 0-.44.06-.57.19s-.2.31-.2.54c0 .21.07.39.21.51.14.13.37.24.69.35.32.1.57.22.75.34.18.12.31.27.4.44.08.17.13.36.13.58 0 .35-.11.64-.32.86s-.51.34-.9.38v.6h-.47v-.6c-.39-.04-.7-.17-.92-.42-.22-.24-.33-.57-.33-.99h.58c0 .29.08.52.23.67.15.16.37.24.65.24.27 0 .49-.07.65-.2.17-.11.25-.29.25-.52zM150.21 42.68h-.59V38.8l-1.17.43v-.53l1.67-.63h.09v4.61zM154.36 38.45v.83h.64v.45h-.64v2.12c0 .14.03.24.08.31s.15.1.29.1c.07 0 .16-.01.28-.04v.47c-.15.04-.3.06-.45.06-.26 0-.46-.08-.59-.24-.13-.16-.2-.38-.2-.67v-2.11h-.62v-.45h.62v-.83h.59zM157.33 39.79c-.09-.01-.18-.02-.29-.02-.38 0-.64.16-.78.49v2.42h-.58v-3.41h.57l.01.39c.19-.3.46-.46.81-.46.11 0 .2.01.26.04v.55zM157.86 38.37c0-.09.03-.17.09-.24.06-.06.14-.1.26-.1s.2.03.26.1.09.15.09.24-.03.17-.09.24c-.06.06-.14.09-.26.09s-.2-.03-.26-.09-.09-.15-.09-.24zm.63 4.31h-.58v-3.41h.58v3.41zM161.53 42.68c-.03-.07-.06-.19-.08-.36-.27.28-.59.42-.97.42-.34 0-.61-.09-.83-.29a.902.902 0 0 1-.32-.72c0-.35.13-.63.4-.83s.65-.29 1.14-.29h.57v-.27c0-.2-.06-.37-.18-.49s-.3-.18-.54-.18c-.21 0-.38.05-.52.16-.14.1-.21.23-.21.38h-.59c0-.17.06-.33.18-.49.12-.16.28-.28.49-.38s.43-.14.68-.14c.39 0 .7.1.92.29.22.2.34.47.35.81v1.57c0 .31.04.56.12.75v.05h-.61zm-.97-.45c.18 0 .36-.05.52-.14.16-.09.28-.22.36-.37v-.7h-.46c-.71 0-1.07.21-1.07.63 0 .18.06.33.18.43.12.1.28.15.47.15zM163.57 42.68h-.58v-4.83h.58v4.83zM166.38 42.68v-2.96h-.54v-.45h.54v-.35c0-.37.1-.65.29-.85.19-.2.47-.3.83-.3.13 0 .27.02.4.05l-.03.47c-.1-.02-.2-.03-.31-.03-.19 0-.33.06-.44.17-.1.11-.15.27-.15.48v.36h.73v.45h-.73v2.96h-.59zM168.18 40.94c0-.33.07-.63.2-.9s.31-.47.55-.62c.23-.14.5-.22.8-.22.46 0 .84.16 1.13.48.29.32.43.75.43 1.28V41c0 .33-.06.63-.19.89s-.31.47-.54.62c-.24.15-.51.22-.81.22-.46 0-.84-.16-1.12-.48-.29-.32-.43-.75-.43-1.27v-.04zm.58.07c0 .38.09.68.26.91.18.23.41.34.7.34.3 0 .53-.12.71-.35s.26-.56.26-.97c0-.37-.09-.68-.27-.91a.854.854 0 0 0-.71-.35.84.84 0 0 0-.7.34c-.16.24-.25.57-.25.99zM173.65 39.79c-.09-.01-.18-.02-.29-.02-.38 0-.64.16-.78.49v2.42H172v-3.41h.57l.01.39c.19-.3.46-.46.81-.46.11 0 .2.01.26.04v.55zM176.58 38.45v.83h.64v.45h-.64v2.12c0 .14.03.24.08.31s.15.1.29.1c.07 0 .16-.01.28-.04v.47c-.15.04-.3.06-.45.06-.26 0-.46-.08-.59-.24-.13-.16-.2-.38-.2-.67v-2.11h-.62v-.45h.62v-.83h.59zM178.47 39.68c.26-.32.59-.48 1.01-.48.72 0 1.08.41 1.09 1.22v2.25h-.58v-2.25c0-.25-.06-.43-.17-.54-.11-.12-.28-.18-.51-.18-.19 0-.35.05-.5.15-.14.1-.25.23-.33.4v2.43h-.58v-4.83h.58v1.83zM182.86 42.74c-.46 0-.84-.15-1.13-.46s-.43-.71-.43-1.22v-.11c0-.34.06-.64.19-.9s.31-.47.54-.62c.23-.15.48-.23.75-.23.44 0 .79.15 1.03.44.25.29.37.71.37 1.25v.24h-2.31c.01.34.11.61.29.81.19.21.43.31.72.31.21 0 .38-.04.52-.13s.27-.2.37-.33l.36.28c-.28.45-.7.67-1.27.67zm-.08-3.05c-.23 0-.43.09-.59.26-.16.17-.26.41-.3.72h1.71v-.04c-.02-.3-.1-.53-.24-.69s-.33-.25-.58-.25zM186.74 42.68v-2.96h-.54v-.45h.54v-.35c0-.37.1-.65.29-.85.19-.2.47-.3.83-.3.13 0 .27.02.4.05l-.03.47c-.1-.02-.2-.03-.31-.03-.19 0-.33.06-.44.17-.1.11-.15.27-.15.48v.36h.73v.45h-.73v2.96h-.59zM188.69 38.37c0-.09.03-.17.09-.24.06-.06.14-.1.26-.1s.2.03.26.1.09.15.09.24-.03.17-.09.24c-.06.06-.14.09-.26.09s-.2-.03-.26-.09-.09-.15-.09-.24zm.63 4.31h-.58v-3.41h.58v3.41zM191.9 39.79c-.09-.01-.18-.02-.29-.02-.38 0-.64.16-.78.49v2.42h-.58v-3.41h.57l.01.39c.19-.3.46-.46.81-.46.11 0 .2.01.26.04v.55zM194.42 41.77c0-.16-.06-.28-.18-.37-.12-.09-.33-.16-.62-.23s-.53-.14-.7-.23c-.17-.09-.3-.19-.38-.31a.772.772 0 0 1-.12-.43c0-.28.12-.52.35-.71.24-.19.54-.29.91-.29.39 0 .7.1.94.3s.36.45.36.77h-.59c0-.16-.07-.3-.2-.41a.75.75 0 0 0-.51-.17c-.21 0-.38.05-.5.14s-.18.21-.18.36c0 .14.06.25.17.32s.31.14.6.2.53.14.71.23c.18.09.31.2.4.33s.13.28.13.46c0 .3-.12.55-.37.73-.24.18-.56.28-.95.28-.27 0-.51-.05-.72-.15-.21-.1-.37-.23-.49-.4a.957.957 0 0 1-.18-.56h.58c.01.2.09.35.23.46.15.11.34.17.58.17.22 0 .4-.04.53-.13s.2-.21.2-.36zM196.55 38.45v.83h.64v.45h-.64v2.12c0 .14.03.24.08.31s.15.1.29.1c.07 0 .16-.01.28-.04v.47c-.15.04-.3.06-.45.06-.26 0-.46-.08-.59-.24-.13-.16-.2-.38-.2-.67v-2.11h-.62v-.45h.62v-.83h.59zM201.54 42.68h-.91v-3.51l-1.09.34v-.74l1.9-.68h.1v4.59zM205.72 40.95h.52v.73h-.52v.99h-.91v-.99h-1.88l-.04-.57 1.91-3.02h.92v2.86zm-1.92 0h1.01v-1.62l-.06.1-.95 1.52zM208.23 40.95c0-.53.12-.95.36-1.27.24-.31.56-.47.98-.47.33 0 .61.12.82.37v-1.74h.91v4.83h-.82l-.04-.36c-.23.28-.52.42-.88.42-.4 0-.72-.16-.96-.47-.25-.31-.37-.75-.37-1.31zm.91.07c0 .32.06.56.17.73s.27.26.48.26c.28 0 .48-.12.6-.36V40.3c-.11-.24-.31-.36-.59-.36-.44.01-.66.36-.66 1.08zM213.98 42.68c-.04-.08-.07-.18-.09-.31-.22.25-.51.37-.86.37-.33 0-.61-.1-.83-.29a.93.93 0 0 1-.33-.73c0-.36.13-.64.4-.83.27-.19.65-.29 1.16-.29h.42v-.2c0-.16-.04-.28-.12-.38-.08-.09-.21-.14-.38-.14-.15 0-.27.04-.36.11-.09.07-.13.17-.13.3h-.91c0-.2.06-.38.18-.55s.29-.3.52-.4c.22-.1.47-.14.75-.14.42 0 .75.11 1 .32.25.21.37.51.37.89v1.48c0 .32.05.57.14.73v.05h-.93zm-.75-.64c.13 0 .26-.03.37-.09.11-.06.2-.14.25-.24v-.59h-.34c-.46 0-.7.16-.73.47v.05c0 .11.04.21.12.28.08.09.19.12.33.12zM216.69 41.39l.63-2.12h.98l-1.37 3.93-.08.18c-.2.44-.54.67-1.01.67-.13 0-.27-.02-.4-.06v-.69h.14c.17 0 .3-.03.39-.08.08-.05.15-.14.2-.26l.11-.28-1.19-3.42h.98l.62 2.13zM220.5 41.74c0-.11-.05-.2-.17-.26s-.29-.12-.53-.17c-.81-.17-1.22-.51-1.22-1.03 0-.3.13-.55.38-.76.25-.2.58-.3.98-.3.43 0 .78.1 1.04.31.26.2.39.47.39.79h-.91c0-.13-.04-.24-.13-.32s-.22-.13-.39-.13a.57.57 0 0 0-.36.1c-.08.07-.13.16-.13.26s.05.18.14.24c.1.06.26.12.48.16.23.05.42.1.57.15.48.18.72.48.72.92 0 .31-.13.56-.4.75s-.61.29-1.03.29c-.29 0-.54-.05-.76-.15-.22-.1-.4-.24-.52-.42s-.19-.37-.19-.57h.86c.01.16.07.29.18.37s.26.13.45.13c.17 0 .31-.03.4-.1.1-.07.15-.16.15-.26zM222.04 43.59l-.33-.23c.2-.27.3-.56.31-.85v-.53h.57v.46c0 .21-.05.42-.16.64-.1.21-.23.38-.39.51zM227.8 41.01c0 .52-.12.94-.36 1.25-.24.32-.56.48-.96.48-.41 0-.74-.13-.98-.39v1.64h-.58v-4.72h.53l.03.38c.24-.29.57-.44.99-.44.41 0 .73.15.97.46s.36.74.36 1.29v.05zm-.59-.06c0-.38-.08-.69-.25-.91a.79.79 0 0 0-.67-.33c-.35 0-.62.16-.79.47v1.63c.17.31.44.47.8.47.28 0 .5-.11.67-.33.16-.24.24-.57.24-1zM229.17 42.68h-.58v-4.83h.58v4.83zM232.2 42.68c-.03-.07-.06-.19-.08-.36-.27.28-.59.42-.97.42-.34 0-.61-.09-.83-.29a.902.902 0 0 1-.32-.72c0-.35.13-.63.4-.83s.65-.29 1.14-.29h.57v-.27c0-.2-.06-.37-.18-.49s-.3-.18-.54-.18c-.21 0-.38.05-.52.16-.14.1-.21.23-.21.38h-.59c0-.17.06-.33.18-.49.12-.16.28-.28.49-.38s.43-.14.68-.14c.39 0 .7.1.92.29.22.2.34.47.35.81v1.57c0 .31.04.56.12.75v.05h-.61zm-.96-.45c.18 0 .36-.05.52-.14.16-.09.28-.22.36-.37v-.7h-.46c-.71 0-1.07.21-1.07.63 0 .18.06.33.18.43.12.1.28.15.47.15zM234.16 39.27l.02.43c.26-.33.6-.49 1.02-.49.72 0 1.08.41 1.09 1.22v2.25h-.58v-2.25c0-.25-.06-.43-.17-.54-.11-.12-.28-.18-.51-.18-.19 0-.35.05-.5.15-.14.1-.25.23-.33.4v2.43h-.58v-3.41h.54zM239.15 41.77c0-.16-.06-.28-.18-.37-.12-.09-.33-.16-.62-.23s-.53-.14-.7-.23c-.17-.09-.3-.19-.38-.31a.772.772 0 0 1-.12-.43c0-.28.12-.52.35-.71.24-.19.54-.29.91-.29.39 0 .7.1.94.3s.36.45.36.77h-.59c0-.16-.07-.3-.2-.41a.75.75 0 0 0-.51-.17c-.21 0-.38.05-.5.14s-.18.21-.18.36c0 .14.06.25.17.32s.31.14.6.2.53.14.71.23c.18.09.31.2.4.33s.13.28.13.46c0 .3-.12.55-.37.73-.24.18-.56.28-.95.28-.27 0-.51-.05-.72-.15-.21-.1-.37-.23-.49-.4a.957.957 0 0 1-.18-.56h.58c.01.2.09.35.23.46.15.11.34.17.58.17.22 0 .4-.04.53-.13s.2-.21.2-.36zM244.07 41.77c0-.16-.06-.28-.18-.37-.12-.09-.33-.16-.62-.23s-.53-.14-.7-.23c-.17-.09-.3-.19-.38-.31a.772.772 0 0 1-.12-.43c0-.28.12-.52.35-.71.24-.19.54-.29.91-.29.39 0 .7.1.94.3s.36.45.36.77h-.59c0-.16-.07-.3-.2-.41a.75.75 0 0 0-.51-.17c-.21 0-.38.05-.5.14s-.18.21-.18.36c0 .14.06.25.17.32s.31.14.6.2.53.14.71.23c.18.09.31.2.4.33s.13.28.13.46c0 .3-.12.55-.37.73-.24.18-.56.28-.95.28-.27 0-.51-.05-.72-.15-.21-.1-.37-.23-.49-.4a.957.957 0 0 1-.18-.56h.58c.01.2.09.35.23.46.15.11.34.17.58.17.22 0 .4-.04.53-.13s.2-.21.2-.36zM246.2 38.45v.83h.64v.45h-.64v2.12c0 .14.03.24.08.31s.15.1.29.1c.07 0 .16-.01.28-.04v.47c-.15.04-.3.06-.45.06-.26 0-.46-.08-.59-.24-.13-.16-.2-.38-.2-.67v-2.11H245v-.45h.62v-.83h.58zM249.62 42.68c-.03-.07-.06-.19-.08-.36-.27.28-.59.42-.97.42-.34 0-.61-.09-.83-.29a.902.902 0 0 1-.32-.72c0-.35.13-.63.4-.83s.65-.29 1.14-.29h.57v-.27c0-.2-.06-.37-.18-.49s-.3-.18-.54-.18c-.21 0-.38.05-.52.16-.14.1-.21.23-.21.38h-.59c0-.17.06-.33.18-.49.12-.16.28-.28.49-.38s.43-.14.68-.14c.39 0 .7.1.92.29.22.2.34.47.35.81v1.57c0 .31.04.56.12.75v.05h-.61zm-.97-.45c.18 0 .36-.05.52-.14.16-.09.28-.22.36-.37v-.7h-.46c-.71 0-1.07.21-1.07.63 0 .18.06.33.18.43.12.1.28.15.47.15zM252.67 39.79c-.09-.01-.18-.02-.29-.02-.38 0-.64.16-.78.49v2.42h-.58v-3.41h.57l.01.39c.19-.3.46-.46.81-.46.11 0 .2.01.26.04v.55zM254.15 38.45v.83h.64v.45h-.64v2.12c0 .14.03.24.08.31s.15.1.29.1c.07 0 .16-.01.28-.04v.47c-.15.04-.3.06-.45.06-.26 0-.46-.08-.59-.24-.13-.16-.2-.38-.2-.67v-2.11h-.62v-.45h.62v-.83h.59zM255.47 38.37c0-.09.03-.17.09-.24.06-.06.14-.1.26-.1s.2.03.26.1.09.15.09.24-.03.17-.09.24c-.06.06-.14.09-.26.09s-.2-.03-.26-.09-.09-.15-.09-.24zm.63 4.31h-.58v-3.41h.58v3.41zM257.58 39.27l.02.43c.26-.33.6-.49 1.02-.49.72 0 1.08.41 1.09 1.22v2.25h-.58v-2.25c0-.25-.06-.43-.17-.54-.11-.12-.28-.18-.51-.18-.19 0-.35.05-.5.15-.14.1-.25.23-.33.4v2.43h-.58v-3.41h.54zM260.45 40.95c0-.53.12-.95.37-1.27.25-.31.57-.47.98-.47.42 0 .74.15.97.44l.03-.38h.53v3.32c0 .44-.13.79-.39 1.04s-.61.38-1.05.38c-.25 0-.49-.05-.72-.16-.24-.1-.41-.25-.54-.43l.3-.35c.25.31.56.46.92.46.28 0 .5-.08.66-.24.16-.16.24-.38.24-.67v-.29c-.23.27-.55.4-.95.4-.4 0-.72-.16-.97-.48-.26-.31-.38-.75-.38-1.3zm.59.06c0 .38.08.69.24.9.16.22.38.33.66.33.37 0 .64-.17.81-.5v-1.56c-.18-.33-.45-.49-.8-.49-.28 0-.5.11-.66.33-.18.23-.25.56-.25.99zM267.9 42.68c-.03-.07-.06-.19-.08-.36-.27.28-.59.42-.97.42-.34 0-.61-.09-.83-.29a.902.902 0 0 1-.32-.72c0-.35.13-.63.4-.83s.65-.29 1.14-.29h.57v-.27c0-.2-.06-.37-.18-.49s-.3-.18-.54-.18c-.21 0-.38.05-.52.16-.14.1-.21.23-.21.38h-.59c0-.17.06-.33.18-.49.12-.16.28-.28.49-.38s.43-.14.68-.14c.39 0 .7.1.92.29.22.2.34.47.35.81v1.57c0 .31.04.56.12.75v.05h-.61zm-.96-.45c.18 0 .36-.05.52-.14.16-.09.28-.22.36-.37v-.7h-.46c-.71 0-1.07.21-1.07.63 0 .18.06.33.18.43.12.1.28.15.47.15zM270.1 38.45v.83h.64v.45h-.64v2.12c0 .14.03.24.08.31s.15.1.29.1c.07 0 .16-.01.28-.04v.47c-.15.04-.3.06-.45.06-.26 0-.46-.08-.59-.24-.13-.16-.2-.38-.2-.67v-2.11h-.62v-.45h.62v-.83h.59zM275.06 41.47c0-.17-.05-.31-.14-.41-.1-.1-.26-.2-.49-.28-.23-.09-.43-.17-.59-.26-.17-.08-.31-.18-.43-.29-.12-.11-.21-.24-.28-.39-.07-.15-.1-.33-.1-.53 0-.35.11-.65.34-.87s.53-.36.9-.4v-.67h.5v.68c.37.05.66.21.87.46.21.26.31.59.31 1h-.91c0-.25-.05-.44-.16-.56a.524.524 0 0 0-.42-.19c-.17 0-.31.05-.4.15s-.14.23-.14.4c0 .16.05.29.14.38.09.1.26.2.52.3.25.1.46.2.62.28.16.09.3.19.41.3.11.11.2.24.26.38s.09.31.09.5c0 .36-.11.65-.33.87-.22.22-.53.35-.92.39v.63h-.5v-.62c-.43-.05-.76-.2-1-.46s-.35-.6-.35-1.03h.91c0 .25.06.44.18.57.12.13.29.2.51.2.18 0 .33-.05.44-.15s.16-.21.16-.38zM278.71 40.84c-.24.23-.51.35-.83.35-.4 0-.73-.14-.97-.42-.24-.28-.37-.65-.37-1.12 0-.3.07-.58.2-.83s.31-.45.55-.59c.24-.14.5-.21.79-.21.3 0 .57.08.81.23.24.15.42.37.55.65.13.28.2.61.2.97v.34c0 .76-.19 1.36-.57 1.8s-.92.67-1.61.7h-.22v-.76h.2c.77-.03 1.2-.4 1.27-1.11zm-.61-.34c.15 0 .27-.04.38-.11.11-.08.19-.17.24-.27v-.37c0-.31-.06-.55-.18-.72s-.27-.25-.47-.25c-.18 0-.33.08-.45.25s-.18.38-.18.63.06.46.17.62c.12.14.28.22.49.22zM280.36 42.23c0-.15.05-.26.15-.35.1-.09.22-.14.37-.14s.27.05.37.14c.1.09.15.21.15.35 0 .14-.05.26-.14.35-.1.09-.22.13-.37.13s-.27-.04-.37-.13a.431.431 0 0 1-.16-.35zM284.28 40.84c-.24.23-.51.35-.83.35-.4 0-.73-.14-.97-.42-.24-.28-.37-.65-.37-1.12 0-.3.07-.58.2-.83s.31-.45.55-.59c.24-.14.5-.21.79-.21.3 0 .57.08.81.23.24.15.42.37.55.65.13.28.2.61.2.97v.34c0 .76-.19 1.36-.57 1.8s-.92.67-1.61.7h-.22v-.76h.2c.78-.03 1.2-.4 1.27-1.11zm-.61-.34c.15 0 .27-.04.38-.11.11-.08.19-.17.24-.27v-.37c0-.31-.06-.55-.18-.72s-.27-.25-.47-.25c-.18 0-.33.08-.45.25s-.18.38-.18.63.06.46.17.62c.12.14.28.22.49.22zM287.98 40.84c-.24.23-.51.35-.83.35-.4 0-.73-.14-.97-.42-.24-.28-.37-.65-.37-1.12 0-.3.07-.58.2-.83s.31-.45.55-.59c.24-.14.5-.21.79-.21.3 0 .57.08.81.23.24.15.42.37.55.65.13.28.2.61.2.97v.34c0 .76-.19 1.36-.57 1.8s-.92.67-1.61.7h-.22v-.76h.2c.77-.03 1.2-.4 1.27-1.11zm-.61-.34c.15 0 .27-.04.38-.11.11-.08.19-.17.24-.27v-.37c0-.31-.06-.55-.18-.72s-.27-.25-.47-.25c-.18 0-.33.08-.45.25s-.18.38-.18.63.06.46.17.62c.12.14.28.22.49.22zM289.87 43.07h-.68l1.69-4.98h.68l-1.69 4.98zM292.85 39.27l.03.38c.24-.3.57-.44.98-.44.44 0 .74.17.9.52.24-.35.58-.52 1.02-.52.37 0 .64.11.82.32.18.22.27.54.27.97v2.18h-.91V40.5c0-.19-.04-.33-.11-.42-.08-.09-.21-.13-.4-.13-.27 0-.46.13-.57.39v2.34h-.91v-2.17c0-.2-.04-.34-.12-.43-.08-.09-.21-.13-.4-.13-.26 0-.44.11-.56.32v2.41h-.91v-3.41h.87zM297.43 40.94c0-.34.07-.64.2-.9s.32-.47.56-.61c.24-.14.53-.22.85-.22.46 0 .83.14 1.13.42.29.28.45.66.49 1.15l.01.23c0 .52-.15.94-.44 1.26-.29.32-.68.47-1.17.47-.49 0-.88-.16-1.18-.47-.29-.31-.44-.74-.44-1.28v-.05zm.91.07c0 .32.06.57.18.74.12.17.3.26.52.26.22 0 .39-.08.52-.25.12-.17.19-.44.19-.81 0-.32-.06-.56-.19-.74a.61.61 0 0 0-.52-.26c-.22 0-.39.09-.52.26-.12.16-.18.43-.18.8zM302.06 39.27l.03.39c.24-.3.57-.46.98-.46.36 0 .63.11.81.32s.27.53.27.95v2.2h-.91V40.5c0-.19-.04-.33-.13-.42-.08-.09-.22-.13-.42-.13-.26 0-.45.11-.58.33v2.4h-.91v-3.41h.86zM305.92 38.43v.84h.58v.67h-.58v1.7c0 .13.02.22.07.27.05.05.14.08.28.08.1 0 .19-.01.27-.02v.69c-.18.05-.36.08-.55.08-.64 0-.96-.32-.98-.97v-1.84h-.5v-.67h.5v-.84h.91zM307.9 39.64c.24-.29.54-.43.91-.43.74 0 1.11.43 1.12 1.29v2.18h-.91v-2.16c0-.2-.04-.34-.13-.43-.08-.09-.22-.14-.42-.14-.27 0-.46.1-.58.31v2.42h-.91v-4.83h.91v1.79z"/><g><path class="st0" d="M158.4 18.09c0-.28-.1-.49-.29-.64-.2-.15-.54-.31-1.03-.48s-.89-.32-1.2-.48c-1.01-.5-1.52-1.18-1.52-2.05 0-.43.13-.82.38-1.15.25-.33.61-.59 1.07-.77.46-.18.98-.28 1.56-.28.56 0 1.07.1 1.51.3.45.2.79.49 1.04.86s.37.79.37 1.27h-1.88c0-.32-.1-.57-.29-.74-.19-.18-.46-.26-.79-.26-.34 0-.6.07-.8.22-.19.15-.29.34-.29.57 0 .2.11.38.32.54.21.16.59.33 1.13.5.54.17.98.36 1.33.56.85.49 1.27 1.16 1.27 2.01 0 .68-.26 1.22-.77 1.61s-1.22.59-2.12.59c-.63 0-1.21-.11-1.72-.34-.51-.23-.9-.54-1.16-.93-.26-.4-.39-.85-.39-1.37h1.89c0 .42.11.73.33.93.22.2.57.3 1.06.3.31 0 .56-.07.74-.2.16-.13.25-.32.25-.57zM160.94 17.21c0-.58.11-1.1.34-1.55.23-.45.55-.8.97-1.04s.92-.37 1.49-.37c.87 0 1.56.27 2.06.81s.75 1.27.75 2.2v.06c0 .91-.25 1.62-.75 2.16-.5.53-1.18.8-2.04.8-.83 0-1.49-.25-1.99-.74-.5-.5-.77-1.17-.81-2.02l-.02-.31zm1.81.12c0 .54.08.93.25 1.18s.42.38.75.38c.64 0 .97-.5.99-1.49v-.18c0-1.04-.33-1.56-1-1.56-.6 0-.93.45-.98 1.35l-.01.32zM172.41 17.64l.97-3.28h1.94l-2.37 6.78-.1.25c-.34.75-.93 1.13-1.78 1.13-.24 0-.49-.04-.75-.11v-1.29h.24c.25 0 .45-.04.58-.11.13-.07.23-.21.3-.4l.15-.39-2.02-5.87h1.93l.91 3.29zM175.47 17.21c0-.58.11-1.1.34-1.55.23-.45.55-.8.97-1.04s.92-.37 1.49-.37c.87 0 1.56.27 2.06.81s.75 1.27.75 2.2v.06c0 .91-.25 1.62-.75 2.16-.5.53-1.18.8-2.04.8-.83 0-1.49-.25-1.99-.74-.5-.5-.77-1.17-.81-2.02l-.02-.31zm1.81.12c0 .54.08.93.25 1.18s.42.38.75.38c.64 0 .97-.5.99-1.49v-.18c0-1.04-.33-1.56-1-1.56-.6 0-.93.45-.98 1.35l-.01.32zM185.34 19.54c-.38.49-.9.74-1.55.74-.64 0-1.12-.19-1.45-.56-.33-.37-.49-.9-.49-1.6v-3.77h1.81v3.78c0 .5.24.75.73.75.42 0 .71-.15.89-.45v-4.08h1.82v5.81h-1.7l-.06-.62zM193.15 18.01l-.51.51v1.65h-1.81v-8.26h1.81v4.38l.18-.24 1.36-1.7h2.17l-2.04 2.39 2.17 3.42h-2.07l-1.26-2.15zM198.5 14.36l.06.68c.4-.53.95-.79 1.66-.79.6 0 1.06.18 1.36.54.3.36.45.91.46 1.63v3.74h-1.82V16.5c0-.29-.06-.51-.18-.65s-.33-.21-.64-.21c-.35 0-.62.14-.79.42v4.1h-1.81v-5.81h1.7zM202.81 17.21c0-.58.11-1.1.34-1.55.23-.45.55-.8.97-1.04s.92-.37 1.49-.37c.87 0 1.56.27 2.06.81s.75 1.27.75 2.2v.06c0 .91-.25 1.62-.75 2.16-.5.53-1.18.8-2.04.8-.83 0-1.49-.25-1.99-.74-.5-.5-.77-1.17-.81-2.02l-.02-.31zm1.81.12c0 .54.08.93.25 1.18s.42.38.75.38c.64 0 .97-.5.99-1.49v-.18c0-1.04-.33-1.56-1-1.56-.6 0-.93.45-.98 1.35l-.01.32zM214.24 17.79l.59-3.43h1.73l-1.37 5.81h-1.53l-.96-3.45-.97 3.45h-1.53l-1.37-5.81h1.73l.57 3.51.92-3.51h1.26l.93 3.43zM224.96 17.79l.59-3.43h1.73l-1.37 5.81h-1.53l-.96-3.45-.97 3.45h-1.53l-1.37-5.81h1.73l.57 3.51.92-3.51h1.26l.93 3.43zM229.7 14.98c.39-.49.88-.73 1.48-.73.64 0 1.12.19 1.45.57s.49.94.5 1.68v3.67h-1.82v-3.63c0-.31-.06-.53-.19-.68-.13-.15-.34-.22-.64-.22-.37 0-.64.12-.79.35v4.17h-1.81v-8.25h1.81v3.07zM236.95 20.28c-.89 0-1.61-.27-2.16-.8s-.83-1.22-.83-2.08v-.15c0-.59.11-1.12.33-1.57.22-.45.54-.81.96-1.06.42-.25.92-.37 1.5-.37.82 0 1.46.25 1.93.76s.71 1.21.71 2.12v.7h-3.6c.06.33.21.58.42.77s.5.28.85.28c.57 0 1.02-.2 1.34-.6l.83.98c-.23.31-.55.56-.96.74-.4.19-.84.28-1.32.28zm-.2-4.63c-.53 0-.85.35-.95 1.05h1.83v-.14c.01-.29-.07-.51-.22-.67-.16-.16-.38-.24-.66-.24zM243.64 16l-.6-.04c-.57 0-.93.18-1.1.54v3.68h-1.81v-5.81h1.7l.06.75c.3-.57.73-.85 1.27-.85.19 0 .36.02.5.06l-.02 1.67zM247 20.28c-.89 0-1.61-.27-2.16-.8s-.83-1.22-.83-2.08v-.15c0-.59.11-1.12.33-1.57.22-.45.54-.81.96-1.06.42-.25.92-.37 1.5-.37.82 0 1.46.25 1.93.76s.71 1.21.71 2.12v.7h-3.6c.06.33.21.58.42.77s.5.28.85.28c.57 0 1.02-.2 1.34-.6l.83.98c-.23.31-.55.56-.96.74-.39.19-.84.28-1.32.28zm-.2-4.63c-.53 0-.85.35-.95 1.05h1.83v-.14c.01-.29-.07-.51-.22-.67-.15-.16-.37-.24-.66-.24zM255.24 17.64l.97-3.28h1.94l-2.37 6.78-.1.25c-.34.75-.93 1.13-1.78 1.13-.24 0-.49-.04-.75-.11v-1.29h.24c.25 0 .45-.04.58-.11.13-.07.23-.21.3-.4l.15-.39-2.02-5.87h1.93l.91 3.29zM258.31 17.21c0-.58.11-1.1.34-1.55.23-.45.55-.8.97-1.04s.92-.37 1.49-.37c.87 0 1.56.27 2.06.81s.75 1.27.75 2.2v.06c0 .91-.25 1.62-.75 2.16-.5.53-1.18.8-2.04.8-.83 0-1.49-.25-1.99-.74-.5-.5-.77-1.17-.81-2.02l-.02-.31zm1.81.12c0 .54.08.93.25 1.18s.42.38.75.38c.64 0 .97-.5.99-1.49v-.18c0-1.04-.33-1.56-1-1.56-.6 0-.93.45-.98 1.35l-.01.32zM268.18 19.54c-.38.49-.9.74-1.55.74-.64 0-1.12-.19-1.45-.56-.33-.37-.49-.9-.49-1.6v-3.77h1.81v3.78c0 .5.24.75.73.75.42 0 .71-.15.89-.45v-4.08h1.82v5.81h-1.7l-.06-.62zM276.7 18.54c0-.15-.08-.28-.24-.37s-.47-.19-.92-.29-.82-.23-1.12-.4c-.29-.16-.52-.36-.67-.59s-.23-.5-.23-.8c0-.53.22-.97.66-1.32.44-.35 1.02-.52 1.73-.52.77 0 1.38.17 1.85.52s.7.8.7 1.37h-1.82c0-.47-.25-.7-.74-.7-.19 0-.35.05-.48.16s-.19.24-.19.4c0 .16.08.29.24.39s.41.18.75.25c.35.06.65.14.91.23.87.3 1.31.84 1.31 1.62 0 .53-.24.96-.71 1.29-.47.33-1.08.5-1.83.5-.5 0-.94-.09-1.33-.27s-.69-.42-.91-.73-.33-.63-.33-.97h1.69c.01.27.1.46.27.59.17.12.39.19.66.19.25 0 .43-.05.56-.15.13-.11.19-.24.19-.4zM281.4 12.92v1.44h.96v1.26h-.96v2.66c0 .22.04.37.12.46s.23.13.47.13c.18 0 .33-.01.45-.03v1.29c-.33.1-.67.16-1.02.16-.62 0-1.08-.15-1.38-.44s-.45-.74-.45-1.34v-2.88h-.74v-1.26h.74v-1.44h1.81zM286.34 20.17c-.06-.12-.12-.29-.17-.52-.33.42-.8.63-1.4.63-.55 0-1.01-.17-1.4-.5a1.59 1.59 0 0 1-.57-1.25c0-.63.23-1.11.7-1.43s1.14-.48 2.03-.48h.56v-.31c0-.54-.23-.8-.69-.8-.43 0-.64.21-.64.64h-1.81c0-.56.24-1.02.72-1.37.48-.35 1.09-.53 1.83-.53s1.33.18 1.76.54.65.86.66 1.49v2.57c.01.53.09.94.25 1.22v.09h-1.83zm-1.13-1.18c.23 0 .41-.05.56-.15.15-.1.26-.21.32-.33v-.93h-.53c-.63 0-.95.28-.95.85 0 .16.06.3.17.4.12.11.26.16.43.16zM290.57 14.36l.06.68c.4-.53.95-.79 1.66-.79.6 0 1.06.18 1.36.54.3.36.45.91.46 1.63v3.74h-1.82V16.5c0-.29-.06-.51-.18-.65s-.33-.21-.64-.21c-.35 0-.62.14-.79.42v4.1h-1.81v-5.81h1.7zM294.88 17.22c0-.92.2-1.65.6-2.18s.95-.79 1.67-.79c.52 0 .96.2 1.31.61v-2.94h1.82v8.25h-1.63l-.09-.62c-.37.49-.85.73-1.42.73-.69 0-1.24-.27-1.64-.79s-.62-1.29-.62-2.27zm1.81.12c0 1.03.3 1.55.9 1.55.4 0 .69-.17.86-.5v-2.21c-.16-.34-.45-.52-.85-.52-.56 0-.86.45-.91 1.35v.33z"/></g><linearGradient id="SVGID_1_" gradientUnits="userSpaceOnUse" x1="191.113" y1="31.5" x2="261.113" y2="31.5"><stop offset="0" stop-color="#18b9fb"/><stop offset=".5" stop-color="#782eeb"/><stop offset="1" stop-color="#e82d8a"/></linearGradient><path class="st1" d="M260.11 32.5h-68c-.55 0-1-.45-1-1s.45-1 1-1h68c.55 0 1 .45 1 1s-.44 1-1 1z"/></g></svg>