<svg id="Layer_1" xmlns="http://www.w3.org/2000/svg" viewBox="0 0 320 50"><style>.st0{fill:#021d8b}.st1{fill:url(#SVGID_1_)}</style><g id="C3_-_O_1_"><path class="st0" d="M146.99 41.5a.68.68 0 0 0-.2-.49c-.14-.13-.36-.25-.69-.36-.45-.14-.77-.31-.98-.53-.2-.22-.31-.5-.31-.84 0-.34.1-.63.3-.85.2-.22.48-.35.83-.39v-.69h.47v.69c.35.05.63.2.82.44.2.25.29.59.29 1.02h-.58c0-.3-.07-.53-.21-.71s-.33-.26-.57-.26c-.25 0-.44.06-.57.19s-.2.31-.2.54c0 .21.07.39.21.51.14.13.37.24.69.35.32.1.57.22.75.34.18.12.31.27.4.44.08.17.13.36.13.58 0 .35-.11.64-.32.86s-.51.34-.9.38v.6h-.47v-.6c-.39-.04-.7-.17-.92-.42-.22-.24-.33-.57-.33-.99h.58c0 .29.08.52.23.67.15.16.37.24.65.24.27 0 .49-.07.65-.2.17-.11.25-.29.25-.52zM150.21 42.68h-.59V38.8l-1.17.43v-.53l1.67-.63h.09v4.61zM154.36 38.45v.83h.64v.45h-.64v2.12c0 .14.03.24.08.31s.15.1.29.1c.07 0 .16-.01.28-.04v.47c-.15.04-.3.06-.45.06-.26 0-.46-.08-.59-.24-.13-.16-.2-.38-.2-.67v-2.11h-.62v-.45h.62v-.83h.59zM157.33 39.79c-.09-.01-.18-.02-.29-.02-.38 0-.64.16-.78.49v2.42h-.58v-3.41h.57l.01.39c.19-.3.46-.46.81-.46.11 0 .2.01.26.04v.55zM157.86 38.37c0-.09.03-.17.09-.24.06-.06.14-.1.26-.1s.2.03.26.1.09.15.09.24-.03.17-.09.24c-.06.06-.14.09-.26.09s-.2-.03-.26-.09-.09-.15-.09-.24zm.63 4.31h-.58v-3.41h.58v3.41zM161.53 42.68c-.03-.07-.06-.19-.08-.36-.27.28-.59.42-.97.42-.34 0-.61-.09-.83-.29a.902.902 0 0 1-.32-.72c0-.35.13-.63.4-.83s.65-.29 1.14-.29h.57v-.27c0-.2-.06-.37-.18-.49s-.3-.18-.54-.18c-.21 0-.38.05-.52.16-.14.1-.21.23-.21.38h-.59c0-.17.06-.33.18-.49.12-.16.28-.28.49-.38s.43-.14.68-.14c.39 0 .7.1.92.29.22.2.34.47.35.81v1.57c0 .31.04.56.12.75v.05h-.61zm-.97-.45c.18 0 .36-.05.52-.14.16-.09.28-.22.36-.37v-.7h-.46c-.71 0-1.07.21-1.07.63 0 .18.06.33.18.43.12.1.28.15.47.15zM163.57 42.68h-.58v-4.83h.58v4.83zM166.38 42.68v-2.96h-.54v-.45h.54v-.35c0-.37.1-.65.29-.85.19-.2.47-.3.83-.3.13 0 .27.02.4.05l-.03.47c-.1-.02-.2-.03-.31-.03-.19 0-.33.06-.44.17-.1.11-.15.27-.15.48v.36h.73v.45h-.73v2.96h-.59zM168.18 40.94c0-.33.07-.63.2-.9s.31-.47.55-.62c.23-.14.5-.22.8-.22.46 0 .84.16 1.13.48.29.32.43.75.43 1.28V41c0 .33-.06.63-.19.89s-.31.47-.54.62c-.24.15-.51.22-.81.22-.46 0-.84-.16-1.12-.48-.29-.32-.43-.75-.43-1.27v-.04zm.58.07c0 .38.09.68.26.91.18.23.41.34.7.34.3 0 .53-.12.71-.35s.26-.56.26-.97c0-.37-.09-.68-.27-.91a.854.854 0 0 0-.71-.35.84.84 0 0 0-.7.34c-.16.24-.25.57-.25.99zM173.65 39.79c-.09-.01-.18-.02-.29-.02-.38 0-.64.16-.78.49v2.42H172v-3.41h.57l.01.39c.19-.3.46-.46.81-.46.11 0 .2.01.26.04v.55zM176.58 38.45v.83h.64v.45h-.64v2.12c0 .14.03.24.08.31s.15.1.29.1c.07 0 .16-.01.28-.04v.47c-.15.04-.3.06-.45.06-.26 0-.46-.08-.59-.24-.13-.16-.2-.38-.2-.67v-2.11h-.62v-.45h.62v-.83h.59zM178.47 39.68c.26-.32.59-.48 1.01-.48.72 0 1.08.41 1.09 1.22v2.25h-.58v-2.25c0-.25-.06-.43-.17-.54-.11-.12-.28-.18-.51-.18-.19 0-.35.05-.5.15-.14.1-.25.23-.33.4v2.43h-.58v-4.83h.58v1.83zM182.86 42.74c-.46 0-.84-.15-1.13-.46s-.43-.71-.43-1.22v-.11c0-.34.06-.64.19-.9s.31-.47.54-.62c.23-.15.48-.23.75-.23.44 0 .79.15 1.03.44.25.29.37.71.37 1.25v.24h-2.31c.01.34.11.61.29.81.19.21.43.31.72.31.21 0 .38-.04.52-.13s.27-.2.37-.33l.36.28c-.28.45-.7.67-1.27.67zm-.08-3.05c-.23 0-.43.09-.59.26-.16.17-.26.41-.3.72h1.71v-.04c-.02-.3-.1-.53-.24-.69s-.33-.25-.58-.25zM186.74 42.68v-2.96h-.54v-.45h.54v-.35c0-.37.1-.65.29-.85.19-.2.47-.3.83-.3.13 0 .27.02.4.05l-.03.47c-.1-.02-.2-.03-.31-.03-.19 0-.33.06-.44.17-.1.11-.15.27-.15.48v.36h.73v.45h-.73v2.96h-.59zM188.69 38.37c0-.09.03-.17.09-.24.06-.06.14-.1.26-.1s.2.03.26.1.09.15.09.24-.03.17-.09.24c-.06.06-.14.09-.26.09s-.2-.03-.26-.09-.09-.15-.09-.24zm.63 4.31h-.58v-3.41h.58v3.41zM191.9 39.79c-.09-.01-.18-.02-.29-.02-.38 0-.64.16-.78.49v2.42h-.58v-3.41h.57l.01.39c.19-.3.46-.46.81-.46.11 0 .2.01.26.04v.55zM194.42 41.77c0-.16-.06-.28-.18-.37-.12-.09-.33-.16-.62-.23s-.53-.14-.7-.23c-.17-.09-.3-.19-.38-.31a.772.772 0 0 1-.12-.43c0-.28.12-.52.35-.71.24-.19.54-.29.91-.29.39 0 .7.1.94.3s.36.45.36.77h-.59c0-.16-.07-.3-.2-.41a.75.75 0 0 0-.51-.17c-.21 0-.38.05-.5.14s-.18.21-.18.36c0 .14.06.25.17.32s.31.14.6.2.53.14.71.23c.18.09.31.2.4.33s.13.28.13.46c0 .3-.12.55-.37.73-.24.18-.56.28-.95.28-.27 0-.51-.05-.72-.15-.21-.1-.37-.23-.49-.4a.957.957 0 0 1-.18-.56h.58c.01.2.09.35.23.46.15.11.34.17.58.17.22 0 .4-.04.53-.13s.2-.21.2-.36zM196.55 38.45v.83h.64v.45h-.64v2.12c0 .14.03.24.08.31s.15.1.29.1c.07 0 .16-.01.28-.04v.47c-.15.04-.3.06-.45.06-.26 0-.46-.08-.59-.24-.13-.16-.2-.38-.2-.67v-2.11h-.62v-.45h.62v-.83h.59zM201.54 42.68h-.91v-3.51l-1.09.34v-.74l1.9-.68h.1v4.59zM205.72 40.95h.52v.73h-.52v.99h-.91v-.99h-1.88l-.04-.57 1.91-3.02h.92v2.86zm-1.92 0h1.01v-1.62l-.06.1-.95 1.52zM208.23 40.95c0-.53.12-.95.36-1.27.24-.31.56-.47.98-.47.33 0 .61.12.82.37v-1.74h.91v4.83h-.82l-.04-.36c-.23.28-.52.42-.88.42-.4 0-.72-.16-.96-.47-.25-.31-.37-.75-.37-1.31zm.91.07c0 .32.06.56.17.73s.27.26.48.26c.28 0 .48-.12.6-.36V40.3c-.11-.24-.31-.36-.59-.36-.44.01-.66.36-.66 1.08zM213.98 42.68c-.04-.08-.07-.18-.09-.31-.22.25-.51.37-.86.37-.33 0-.61-.1-.83-.29a.93.93 0 0 1-.33-.73c0-.36.13-.64.4-.83.27-.19.65-.29 1.16-.29h.42v-.2c0-.16-.04-.28-.12-.38-.08-.09-.21-.14-.38-.14-.15 0-.27.04-.36.11-.09.07-.13.17-.13.3h-.91c0-.2.06-.38.18-.55s.29-.3.52-.4c.22-.1.47-.14.75-.14.42 0 .75.11 1 .32.25.21.37.51.37.89v1.48c0 .32.05.57.14.73v.05h-.93zm-.75-.64c.13 0 .26-.03.37-.09.11-.06.2-.14.25-.24v-.59h-.34c-.46 0-.7.16-.73.47v.05c0 .11.04.21.12.28.08.09.19.12.33.12zM216.69 41.39l.63-2.12h.98l-1.37 3.93-.08.18c-.2.44-.54.67-1.01.67-.13 0-.27-.02-.4-.06v-.69h.14c.17 0 .3-.03.39-.08.08-.05.15-.14.2-.26l.11-.28-1.19-3.42h.98l.62 2.13zM220.5 41.74c0-.11-.05-.2-.17-.26s-.29-.12-.53-.17c-.81-.17-1.22-.51-1.22-1.03 0-.3.13-.55.38-.76.25-.2.58-.3.98-.3.43 0 .78.1 1.04.31.26.2.39.47.39.79h-.91c0-.13-.04-.24-.13-.32s-.22-.13-.39-.13a.57.57 0 0 0-.36.1c-.08.07-.13.16-.13.26s.05.18.14.24c.1.06.26.12.48.16.23.05.42.1.57.15.48.18.72.48.72.92 0 .31-.13.56-.4.75s-.61.29-1.03.29c-.29 0-.54-.05-.76-.15-.22-.1-.4-.24-.52-.42s-.19-.37-.19-.57h.86c.01.16.07.29.18.37s.26.13.45.13c.17 0 .31-.03.4-.1.1-.07.15-.16.15-.26zM222.04 43.59l-.33-.23c.2-.27.3-.56.31-.85v-.53h.57v.46c0 .21-.05.42-.16.64-.1.21-.23.38-.39.51zM227.8 41.01c0 .52-.12.94-.36 1.25-.24.32-.56.48-.96.48-.41 0-.74-.13-.98-.39v1.64h-.58v-4.72h.53l.03.38c.24-.29.57-.44.99-.44.41 0 .73.15.97.46s.36.74.36 1.29v.05zm-.59-.06c0-.38-.08-.69-.25-.91a.79.79 0 0 0-.67-.33c-.35 0-.62.16-.79.47v1.63c.17.31.44.47.8.47.28 0 .5-.11.67-.33.16-.24.24-.57.24-1zM229.17 42.68h-.58v-4.83h.58v4.83zM232.2 42.68c-.03-.07-.06-.19-.08-.36-.27.28-.59.42-.97.42-.34 0-.61-.09-.83-.29a.902.902 0 0 1-.32-.72c0-.35.13-.63.4-.83s.65-.29 1.14-.29h.57v-.27c0-.2-.06-.37-.18-.49s-.3-.18-.54-.18c-.21 0-.38.05-.52.16-.14.1-.21.23-.21.38h-.59c0-.17.06-.33.18-.49.12-.16.28-.28.49-.38s.43-.14.68-.14c.39 0 .7.1.92.29.22.2.34.47.35.81v1.57c0 .31.04.56.12.75v.05h-.61zm-.96-.45c.18 0 .36-.05.52-.14.16-.09.28-.22.36-.37v-.7h-.46c-.71 0-1.07.21-1.07.63 0 .18.06.33.18.43.12.1.28.15.47.15zM234.16 39.27l.02.43c.26-.33.6-.49 1.02-.49.72 0 1.08.41 1.09 1.22v2.25h-.58v-2.25c0-.25-.06-.43-.17-.54-.11-.12-.28-.18-.51-.18-.19 0-.35.05-.5.15-.14.1-.25.23-.33.4v2.43h-.58v-3.41h.54zM239.15 41.77c0-.16-.06-.28-.18-.37-.12-.09-.33-.16-.62-.23s-.53-.14-.7-.23c-.17-.09-.3-.19-.38-.31a.772.772 0 0 1-.12-.43c0-.28.12-.52.35-.71.24-.19.54-.29.91-.29.39 0 .7.1.94.3s.36.45.36.77h-.59c0-.16-.07-.3-.2-.41a.75.75 0 0 0-.51-.17c-.21 0-.38.05-.5.14s-.18.21-.18.36c0 .14.06.25.17.32s.31.14.6.2.53.14.71.23c.18.09.31.2.4.33s.13.28.13.46c0 .3-.12.55-.37.73-.24.18-.56.28-.95.28-.27 0-.51-.05-.72-.15-.21-.1-.37-.23-.49-.4a.957.957 0 0 1-.18-.56h.58c.01.2.09.35.23.46.15.11.34.17.58.17.22 0 .4-.04.53-.13s.2-.21.2-.36zM244.07 41.77c0-.16-.06-.28-.18-.37-.12-.09-.33-.16-.62-.23s-.53-.14-.7-.23c-.17-.09-.3-.19-.38-.31a.772.772 0 0 1-.12-.43c0-.28.12-.52.35-.71.24-.19.54-.29.91-.29.39 0 .7.1.94.3s.36.45.36.77h-.59c0-.16-.07-.3-.2-.41a.75.75 0 0 0-.51-.17c-.21 0-.38.05-.5.14s-.18.21-.18.36c0 .14.06.25.17.32s.31.14.6.2.53.14.71.23c.18.09.31.2.4.33s.13.28.13.46c0 .3-.12.55-.37.73-.24.18-.56.28-.95.28-.27 0-.51-.05-.72-.15-.21-.1-.37-.23-.49-.4a.957.957 0 0 1-.18-.56h.58c.01.2.09.35.23.46.15.11.34.17.58.17.22 0 .4-.04.53-.13s.2-.21.2-.36zM246.2 38.45v.83h.64v.45h-.64v2.12c0 .14.03.24.08.31s.15.1.29.1c.07 0 .16-.01.28-.04v.47c-.15.04-.3.06-.45.06-.26 0-.46-.08-.59-.24-.13-.16-.2-.38-.2-.67v-2.11H245v-.45h.62v-.83h.58zM249.62 42.68c-.03-.07-.06-.19-.08-.36-.27.28-.59.42-.97.42-.34 0-.61-.09-.83-.29a.902.902 0 0 1-.32-.72c0-.35.13-.63.4-.83s.65-.29 1.14-.29h.57v-.27c0-.2-.06-.37-.18-.49s-.3-.18-.54-.18c-.21 0-.38.05-.52.16-.14.1-.21.23-.21.38h-.59c0-.17.06-.33.18-.49.12-.16.28-.28.49-.38s.43-.14.68-.14c.39 0 .7.1.92.29.22.2.34.47.35.81v1.57c0 .31.04.56.12.75v.05h-.61zm-.97-.45c.18 0 .36-.05.52-.14.16-.09.28-.22.36-.37v-.7h-.46c-.71 0-1.07.21-1.07.63 0 .18.06.33.18.43.12.1.28.15.47.15zM252.67 39.79c-.09-.01-.18-.02-.29-.02-.38 0-.64.16-.78.49v2.42h-.58v-3.41h.57l.01.39c.19-.3.46-.46.81-.46.11 0 .2.01.26.04v.55zM254.15 38.45v.83h.64v.45h-.64v2.12c0 .14.03.24.08.31s.15.1.29.1c.07 0 .16-.01.28-.04v.47c-.15.04-.3.06-.45.06-.26 0-.46-.08-.59-.24-.13-.16-.2-.38-.2-.67v-2.11h-.62v-.45h.62v-.83h.59zM255.47 38.37c0-.09.03-.17.09-.24.06-.06.14-.1.26-.1s.2.03.26.1.09.15.09.24-.03.17-.09.24c-.06.06-.14.09-.26.09s-.2-.03-.26-.09-.09-.15-.09-.24zm.63 4.31h-.58v-3.41h.58v3.41zM257.58 39.27l.02.43c.26-.33.6-.49 1.02-.49.72 0 1.08.41 1.09 1.22v2.25h-.58v-2.25c0-.25-.06-.43-.17-.54-.11-.12-.28-.18-.51-.18-.19 0-.35.05-.5.15-.14.1-.25.23-.33.4v2.43h-.58v-3.41h.54zM260.45 40.95c0-.53.12-.95.37-1.27.25-.31.57-.47.98-.47.42 0 .74.15.97.44l.03-.38h.53v3.32c0 .44-.13.79-.39 1.04s-.61.38-1.05.38c-.25 0-.49-.05-.72-.16-.24-.1-.41-.25-.54-.43l.3-.35c.25.31.56.46.92.46.28 0 .5-.08.66-.24.16-.16.24-.38.24-.67v-.29c-.23.27-.55.4-.95.4-.4 0-.72-.16-.97-.48-.26-.31-.38-.75-.38-1.3zm.59.06c0 .38.08.69.24.9.16.22.38.33.66.33.37 0 .64-.17.81-.5v-1.56c-.18-.33-.45-.49-.8-.49-.28 0-.5.11-.66.33-.18.23-.25.56-.25.99zM267.9 42.68c-.03-.07-.06-.19-.08-.36-.27.28-.59.42-.97.42-.34 0-.61-.09-.83-.29a.902.902 0 0 1-.32-.72c0-.35.13-.63.4-.83s.65-.29 1.14-.29h.57v-.27c0-.2-.06-.37-.18-.49s-.3-.18-.54-.18c-.21 0-.38.05-.52.16-.14.1-.21.23-.21.38h-.59c0-.17.06-.33.18-.49.12-.16.28-.28.49-.38s.43-.14.68-.14c.39 0 .7.1.92.29.22.2.34.47.35.81v1.57c0 .31.04.56.12.75v.05h-.61zm-.96-.45c.18 0 .36-.05.52-.14.16-.09.28-.22.36-.37v-.7h-.46c-.71 0-1.07.21-1.07.63 0 .18.06.33.18.43.12.1.28.15.47.15zM270.1 38.45v.83h.64v.45h-.64v2.12c0 .14.03.24.08.31s.15.1.29.1c.07 0 .16-.01.28-.04v.47c-.15.04-.3.06-.45.06-.26 0-.46-.08-.59-.24-.13-.16-.2-.38-.2-.67v-2.11h-.62v-.45h.62v-.83h.59zM275.06 41.47c0-.17-.05-.31-.14-.41-.1-.1-.26-.2-.49-.28-.23-.09-.43-.17-.59-.26-.17-.08-.31-.18-.43-.29-.12-.11-.21-.24-.28-.39-.07-.15-.1-.33-.1-.53 0-.35.11-.65.34-.87s.53-.36.9-.4v-.67h.5v.68c.37.05.66.21.87.46.21.26.31.59.31 1h-.91c0-.25-.05-.44-.16-.56a.524.524 0 0 0-.42-.19c-.17 0-.31.05-.4.15s-.14.23-.14.4c0 .16.05.29.14.38.09.1.26.2.52.3.25.1.46.2.62.28.16.09.3.19.41.3.11.11.2.24.26.38s.09.31.09.5c0 .36-.11.65-.33.87-.22.22-.53.35-.92.39v.63h-.5v-.62c-.43-.05-.76-.2-1-.46s-.35-.6-.35-1.03h.91c0 .25.06.44.18.57.12.13.29.2.51.2.18 0 .33-.05.44-.15s.16-.21.16-.38zM278.71 40.84c-.24.23-.51.35-.83.35-.4 0-.73-.14-.97-.42-.24-.28-.37-.65-.37-1.12 0-.3.07-.58.2-.83s.31-.45.55-.59c.24-.14.5-.21.79-.21.3 0 .57.08.81.23.24.15.42.37.55.65.13.28.2.61.2.97v.34c0 .76-.19 1.36-.57 1.8s-.92.67-1.61.7h-.22v-.76h.2c.77-.03 1.2-.4 1.27-1.11zm-.61-.34c.15 0 .27-.04.38-.11.11-.08.19-.17.24-.27v-.37c0-.31-.06-.55-.18-.72s-.27-.25-.47-.25c-.18 0-.33.08-.45.25s-.18.38-.18.63.06.46.17.62c.12.14.28.22.49.22zM280.36 42.23c0-.15.05-.26.15-.35.1-.09.22-.14.37-.14s.27.05.37.14c.1.09.15.21.15.35 0 .14-.05.26-.14.35-.1.09-.22.13-.37.13s-.27-.04-.37-.13a.431.431 0 0 1-.16-.35zM284.28 40.84c-.24.23-.51.35-.83.35-.4 0-.73-.14-.97-.42-.24-.28-.37-.65-.37-1.12 0-.3.07-.58.2-.83s.31-.45.55-.59c.24-.14.5-.21.79-.21.3 0 .57.08.81.23.24.15.42.37.55.65.13.28.2.61.2.97v.34c0 .76-.19 1.36-.57 1.8s-.92.67-1.61.7h-.22v-.76h.2c.78-.03 1.2-.4 1.27-1.11zm-.61-.34c.15 0 .27-.04.38-.11.11-.08.19-.17.24-.27v-.37c0-.31-.06-.55-.18-.72s-.27-.25-.47-.25c-.18 0-.33.08-.45.25s-.18.38-.18.63.06.46.17.62c.12.14.28.22.49.22zM287.98 40.84c-.24.23-.51.35-.83.35-.4 0-.73-.14-.97-.42-.24-.28-.37-.65-.37-1.12 0-.3.07-.58.2-.83s.31-.45.55-.59c.24-.14.5-.21.79-.21.3 0 .57.08.81.23.24.15.42.37.55.65.13.28.2.61.2.97v.34c0 .76-.19 1.36-.57 1.8s-.92.67-1.61.7h-.22v-.76h.2c.77-.03 1.2-.4 1.27-1.11zm-.61-.34c.15 0 .27-.04.38-.11.11-.08.19-.17.24-.27v-.37c0-.31-.06-.55-.18-.72s-.27-.25-.47-.25c-.18 0-.33.08-.45.25s-.18.38-.18.63.06.46.17.62c.12.14.28.22.49.22zM289.87 43.07h-.68l1.69-4.98h.68l-1.69 4.98zM292.85 39.27l.03.38c.24-.3.57-.44.98-.44.44 0 .74.17.9.52.24-.35.58-.52 1.02-.52.37 0 .64.11.82.32.18.22.27.54.27.97v2.18h-.91V40.5c0-.19-.04-.33-.11-.42-.08-.09-.21-.13-.4-.13-.27 0-.46.13-.57.39v2.34h-.91v-2.17c0-.2-.04-.34-.12-.43-.08-.09-.21-.13-.4-.13-.26 0-.44.11-.56.32v2.41h-.91v-3.41h.87zM297.43 40.94c0-.34.07-.64.2-.9s.32-.47.56-.61c.24-.14.53-.22.85-.22.46 0 .83.14 1.13.42.29.28.45.66.49 1.15l.01.23c0 .52-.15.94-.44 1.26-.29.32-.68.47-1.17.47-.49 0-.88-.16-1.18-.47-.29-.31-.44-.74-.44-1.28v-.05zm.91.07c0 .32.06.57.18.74.12.17.3.26.52.26.22 0 .39-.08.52-.25.12-.17.19-.44.19-.81 0-.32-.06-.56-.19-.74a.61.61 0 0 0-.52-.26c-.22 0-.39.09-.52.26-.12.16-.18.43-.18.8zM302.06 39.27l.03.39c.24-.3.57-.46.98-.46.36 0 .63.11.81.32s.27.53.27.95v2.2h-.91V40.5c0-.19-.04-.33-.13-.42-.08-.09-.22-.13-.42-.13-.26 0-.45.11-.58.33v2.4h-.91v-3.41h.86zM305.92 38.43v.84h.58v.67h-.58v1.7c0 .13.02.22.07.27.05.05.14.08.28.08.1 0 .19-.01.27-.02v.69c-.18.05-.36.08-.55.08-.64 0-.96-.32-.98-.97v-1.84h-.5v-.67h.5v-.84h.91zM307.9 39.64c.24-.29.54-.43.91-.43.74 0 1.11.43 1.12 1.29v2.18h-.91v-2.16c0-.2-.04-.34-.13-.43-.08-.09-.22-.14-.42-.14-.27 0-.46.1-.58.31v2.42h-.91v-4.83h.91v1.79z"/><g><path class="st0" d="M171.06 12.33c-.22.31-.52.54-.91.7-.39.15-.84.23-1.36.23-.52 0-.98-.12-1.39-.37-.4-.24-.72-.59-.94-1.04-.22-.45-.33-.97-.34-1.57v-.56c0-.96.22-1.71.67-2.24.45-.53 1.08-.8 1.9-.8.67 0 1.21.17 1.61.51.41.34.66.83.75 1.45h-.84c-.16-.85-.66-1.27-1.51-1.27-.57 0-.99.2-1.29.6-.29.4-.44.97-.44 1.73v.52c0 .72.16 1.29.49 1.71.33.42.77.64 1.33.64.32 0 .59-.04.83-.1.24-.07.43-.19.59-.36v-1.43h-1.48v-.69h2.32v2.34zM174.32 13.26c-.64 0-1.17-.21-1.57-.63s-.61-.99-.61-1.7v-.15c0-.47.09-.89.27-1.26.18-.37.43-.66.76-.87s.67-.31 1.05-.31c.62 0 1.1.2 1.44.61s.51.99.51 1.75v.34h-3.22c.01.47.15.85.41 1.14.26.29.6.43 1 .43.29 0 .53-.06.73-.18s.37-.27.52-.47l.5.39c-.4.61-1 .91-1.79.91zM174.21 9c-.33 0-.6.12-.83.36s-.36.57-.41 1h2.38v-.06c-.02-.41-.13-.73-.33-.96s-.47-.34-.81-.34zM178.21 7.27v1.15h.89v.63h-.89V12c0 .19.04.33.12.43s.21.14.4.14c.09 0 .22-.02.39-.05v.66c-.21.06-.42.09-.62.09-.36 0-.64-.11-.82-.33s-.28-.54-.28-.94V9.05h-.87v-.63h.87V7.27h.81zM183.25 10.67v2.5h-.84v-6.4h2.36c.7 0 1.25.18 1.65.54s.6.83.6 1.42c0 .62-.19 1.1-.58 1.44-.39.34-.94.5-1.67.5h-1.52zm0-.69h1.52c.45 0 .8-.11 1.04-.32.24-.21.36-.52.36-.92 0-.38-.12-.69-.36-.92s-.57-.35-.99-.36h-1.56v2.52zM190.25 9.15c-.12-.02-.26-.03-.4-.03-.53 0-.9.23-1.09.68v3.38h-.81V8.42h.79l.01.55c.27-.42.64-.64 1.13-.64.16 0 .28.02.36.06v.76zM191.01 7.16c0-.13.04-.24.12-.33s.2-.14.36-.14.28.05.36.14.12.2.12.33-.04.24-.12.33-.2.13-.36.13-.28-.04-.36-.13-.12-.2-.12-.33zm.87 6.01h-.81V8.42h.81v4.75zM194.75 12.07l1.18-3.65h.83l-1.71 4.75h-.62l-1.72-4.75h.83l1.21 3.65zM200.41 13.17c-.05-.09-.08-.26-.11-.5-.38.39-.83.59-1.35.59-.47 0-.85-.13-1.15-.4-.3-.27-.45-.6-.45-1.01 0-.5.19-.88.56-1.15.38-.27.91-.41 1.59-.41h.79v-.37c0-.28-.08-.51-.25-.68-.17-.17-.42-.25-.75-.25-.29 0-.53.07-.73.22s-.29.32-.29.53h-.82c0-.24.08-.47.25-.69s.4-.4.69-.53.61-.19.95-.19c.55 0 .98.14 1.29.41s.47.65.48 1.13v2.19c0 .44.06.78.17 1.04v.07h-.87zm-1.34-.62c.25 0 .5-.07.73-.2s.39-.3.5-.51v-.98h-.64c-1 0-1.49.29-1.49.87 0 .25.08.45.25.6s.38.22.65.22zM204.28 12.6c.29 0 .54-.09.76-.26s.34-.4.36-.66h.77c-.01.27-.11.53-.28.78s-.4.44-.69.59-.59.22-.92.22c-.65 0-1.16-.22-1.54-.65-.38-.43-.57-1.02-.57-1.77v-.15c0-.46.08-.87.25-1.23s.41-.64.73-.84.69-.3 1.13-.3c.53 0 .98.16 1.33.48.35.32.54.73.56 1.24h-.77a1.108 1.108 0 0 0-1.13-1.06c-.41 0-.73.15-.96.45s-.34.73-.34 1.29v.15c0 .55.11.97.34 1.27s.55.45.97.45zM208.64 11.98l1.11-3.56h.87l-1.91 5.49c-.3.79-.77 1.19-1.41 1.19l-.15-.01-.3-.06v-.66l.22.02c.28 0 .49-.06.64-.17.15-.11.28-.31.38-.61l.18-.48-1.7-4.7h.89l1.18 3.55zM216.19 12.33c-.22.31-.52.54-.91.7-.39.15-.84.23-1.36.23-.52 0-.98-.12-1.39-.37-.4-.24-.72-.59-.94-1.04-.22-.45-.33-.97-.34-1.57v-.56c0-.96.22-1.71.67-2.24.45-.53 1.08-.8 1.9-.8.67 0 1.21.17 1.61.51.41.34.66.83.75 1.45h-.84c-.16-.85-.66-1.27-1.51-1.27-.57 0-.99.2-1.29.6-.29.4-.44.97-.44 1.73v.52c0 .72.16 1.29.49 1.71.33.42.77.64 1.33.64.32 0 .59-.04.83-.1.24-.07.43-.19.59-.36v-1.43h-1.48v-.69h2.32v2.34zM220.41 12.7c-.32.37-.78.56-1.39.56-.51 0-.89-.15-1.16-.44-.27-.29-.4-.73-.4-1.31V8.42h.81v3.07c0 .72.29 1.08.88 1.08.62 0 1.03-.23 1.24-.69V8.42h.81v4.75h-.77l-.02-.47zM225.37 13.17c-.05-.09-.08-.26-.11-.5-.38.39-.83.59-1.35.59-.47 0-.85-.13-1.15-.4-.3-.27-.45-.6-.45-1.01 0-.5.19-.88.56-1.15.38-.27.91-.41 1.59-.41h.79v-.37c0-.28-.08-.51-.25-.68-.17-.17-.42-.25-.75-.25-.29 0-.53.07-.73.22s-.29.32-.29.53h-.82c0-.24.08-.47.25-.69s.4-.4.69-.53.61-.19.95-.19c.55 0 .98.14 1.29.41s.47.65.48 1.13v2.19c0 .44.06.78.17 1.04v.07h-.87zm-1.35-.62c.25 0 .5-.07.73-.2s.39-.3.5-.51v-.98h-.64c-1 0-1.49.29-1.49.87 0 .25.08.45.25.6s.38.22.65.22zM229.63 9.15c-.12-.02-.26-.03-.4-.03-.53 0-.9.23-1.09.68v3.38h-.81V8.42h.79l.01.55c.27-.42.64-.64 1.13-.64.16 0 .28.02.36.06v.76zM230.09 10.76c0-.73.17-1.32.52-1.76.35-.44.8-.67 1.36-.67s1 .19 1.32.57V6.42h.81v6.75h-.75l-.04-.51c-.33.4-.78.6-1.36.6-.55 0-1-.23-1.35-.68-.35-.45-.52-1.04-.52-1.77v-.05zm.82.09c0 .54.11.96.33 1.27s.53.46.92.46c.52 0 .89-.23 1.13-.69v-2.2c-.24-.45-.62-.67-1.12-.67-.4 0-.71.15-.93.46s-.33.77-.33 1.37zM241.81 12.05l.91-3.63h.81l-1.38 4.75h-.66l-1.16-3.6-1.12 3.6h-.66l-1.38-4.75h.81l.94 3.56 1.11-3.56h.65l1.13 3.63zM244.36 7.16c0-.13.04-.24.12-.33s.2-.14.36-.14.28.05.36.14.12.2.12.33-.04.24-.12.33-.2.13-.36.13-.28-.04-.36-.13-.12-.2-.12-.33zm.88 6.01h-.81V8.42h.81v4.75zM247.65 7.27v1.15h.89v.63h-.89V12c0 .19.04.33.12.43s.21.14.4.14c.09 0 .22-.02.39-.05v.66c-.21.06-.42.09-.62.09-.36 0-.64-.11-.82-.33s-.28-.53-.28-.94V9.05h-.87v-.63h.87V7.27h.81zM250.3 8.99c.36-.44.83-.66 1.41-.66 1 0 1.51.57 1.52 1.7v3.14h-.81v-3.15c0-.34-.08-.6-.24-.76-.15-.16-.39-.25-.72-.25-.26 0-.5.07-.69.21s-.35.33-.47.55v3.39h-.81V6.42h.81v2.57zM257.75 8.42l.04.53c.34-.41.79-.62 1.37-.62.61 0 1.03.24 1.26.73.33-.48.81-.73 1.43-.73.52 0 .9.15 1.15.45.25.3.38.75.38 1.36v3.04h-1.27v-3.03c0-.27-.05-.47-.16-.59s-.29-.19-.56-.19c-.38 0-.64.18-.79.54v3.27h-1.27v-3.03c0-.28-.05-.47-.16-.6s-.29-.18-.55-.18c-.36 0-.62.15-.78.45v3.36h-1.27V8.42h1.18zM264.15 10.75c0-.47.09-.89.27-1.26s.44-.65.78-.86.74-.3 1.19-.3c.64 0 1.17.2 1.57.59s.63.93.68 1.6l.01.33c0 .73-.2 1.31-.61 1.76s-.95.66-1.64.66-1.23-.22-1.64-.66c-.41-.44-.61-1.04-.61-1.79v-.07zm1.27.09c0 .45.08.8.25 1.04.17.24.41.36.73.36.31 0 .55-.12.72-.35.17-.24.26-.61.26-1.13 0-.44-.09-.79-.26-1.03s-.42-.37-.73-.37a.83.83 0 0 0-.72.36c-.17.24-.25.61-.25 1.12zM270.6 8.42l.04.55c.34-.42.8-.64 1.37-.64.5 0 .88.15 1.12.44s.37.74.38 1.33v3.07h-1.27v-3.04c0-.27-.06-.46-.18-.59-.12-.12-.31-.18-.58-.18-.36 0-.63.15-.8.46v3.35h-1.27V8.42h1.19zM276 7.25v1.17h.81v.93H276v2.37c0 .18.03.3.1.38s.2.11.39.11c.14 0 .27-.01.37-.03v.96c-.25.08-.51.11-.77.11-.89 0-1.34-.45-1.36-1.35V9.35h-.69v-.93h.69V7.25H276zM278.76 8.94c.34-.4.76-.61 1.27-.61 1.03 0 1.55.6 1.57 1.8v3.05h-1.27v-3.01c0-.27-.06-.47-.18-.6s-.31-.2-.58-.2c-.37 0-.64.14-.81.43v3.38h-1.27V6.42h1.27v2.52zM283.89 13.17h-1.27V6.42h1.27v6.75zM286.71 11.38l.88-2.96h1.36l-1.91 5.49-.11.25c-.28.62-.75.93-1.41.93-.18 0-.37-.03-.56-.08v-.96h.19c.24 0 .42-.04.54-.11.12-.07.21-.19.28-.36l.15-.39-1.67-4.77h1.37l.89 2.96zM154.59 18.05v1.17h.81v.93h-.81v2.37c0 .18.03.3.1.38s.2.11.39.11c.14 0 .27-.01.37-.03v.96c-.25.08-.51.11-.77.11-.89 0-1.34-.45-1.36-1.35v-2.56h-.69v-.93h.69v-1.17h1.27zM158.78 20.41c-.17-.02-.33-.04-.46-.04-.48 0-.8.16-.94.49v3.11h-1.27v-4.75h1.2l.04.57c.25-.44.61-.65 1.06-.65.14 0 .27.02.4.06l-.03 1.21zM159.38 17.99c0-.19.06-.35.19-.47s.3-.18.52-.18c.22 0 .39.06.52.18s.19.28.19.47c0 .19-.07.35-.2.47s-.3.18-.52.18-.39-.06-.52-.18a.684.684 0 0 1-.18-.47zm1.35 5.98h-1.27v-4.75h1.27v4.75zM166.06 21.64c0 .73-.17 1.32-.5 1.76-.33.44-.78.66-1.35.66-.48 0-.87-.17-1.16-.5v2.24h-1.27v-6.58h1.18l.04.47c.31-.37.71-.55 1.2-.55.59 0 1.04.22 1.37.65s.49 1.03.49 1.79v.06zm-1.27-.09c0-.44-.08-.78-.24-1.02s-.38-.36-.68-.36c-.4 0-.67.15-.82.46v1.95c.16.31.43.47.83.47.6-.01.91-.51.91-1.5zM168.18 23.97h-1.27v-6.75h1.27v6.75zM171.42 24.06c-.7 0-1.27-.21-1.7-.64-.44-.43-.66-1-.66-1.71v-.12c0-.48.09-.9.28-1.28s.45-.67.78-.87c.34-.2.72-.31 1.16-.31.65 0 1.16.21 1.54.62.37.41.56.99.56 1.74v.52h-3.03c.04.31.16.56.37.75.21.19.47.28.78.28.49 0 .87-.18 1.15-.53l.62.7c-.19.27-.45.48-.77.63-.33.15-.69.22-1.08.22zm-.15-3.91c-.25 0-.46.09-.61.26-.16.17-.26.42-.3.73h1.77v-.1c-.01-.28-.08-.5-.23-.66-.15-.15-.36-.23-.63-.23zM176.57 21.75h-2.47v-1.02h2.47v1.02zM181.87 21.64c0 .76-.16 1.36-.49 1.78-.33.43-.78.64-1.36.64-.52 0-.93-.2-1.23-.59l-.06.51h-1.14v-6.75h1.27v2.42c.29-.34.68-.51 1.16-.51.58 0 1.03.21 1.36.64.33.43.49 1.03.49 1.8v.06zm-1.27-.09c0-.48-.08-.83-.23-1.05-.15-.22-.38-.33-.68-.33-.4 0-.68.17-.83.5v1.88c.16.33.44.5.84.5.41 0 .68-.2.81-.61.06-.2.09-.5.09-.89zM185.5 23.49c-.31.38-.75.57-1.3.57-.51 0-.9-.15-1.17-.44-.27-.29-.41-.72-.41-1.29v-3.12h1.27v3.08c0 .5.23.74.68.74.43 0 .73-.15.89-.45v-3.37h1.27v4.75h-1.2l-.03-.47zM190.36 20.41c-.17-.02-.33-.04-.46-.04-.48 0-.8.16-.94.49v3.11h-1.27v-4.75h1.2l.04.57c.25-.44.61-.65 1.06-.65.14 0 .27.02.4.06l-.03 1.21zM193.08 24.06c-.7 0-1.27-.21-1.7-.64-.44-.43-.66-1-.66-1.71v-.12c0-.48.09-.9.28-1.28s.45-.67.78-.87c.34-.2.72-.31 1.16-.31.65 0 1.16.21 1.54.62.37.41.56.99.56 1.74v.52H192c.04.31.16.56.37.75.21.19.47.28.78.28.49 0 .87-.18 1.15-.53l.62.7c-.19.27-.45.48-.77.63-.32.15-.68.22-1.07.22zm-.15-3.91c-.25 0-.46.09-.61.26-.16.17-.26.42-.3.73h1.77v-.1c-.01-.28-.08-.5-.23-.66-.15-.15-.36-.23-.63-.23zM198.51 23.97c-.06-.11-.1-.26-.13-.43-.31.34-.71.51-1.2.51-.47 0-.85-.13-1.16-.4s-.46-.61-.46-1.02c0-.5.19-.89.56-1.16.37-.27.91-.41 1.62-.41h.58v-.26c0-.22-.06-.4-.17-.53s-.29-.2-.53-.2c-.21 0-.38.05-.5.15s-.18.24-.18.42h-1.27c0-.28.08-.53.25-.76s.41-.42.72-.55.66-.2 1.05-.2c.59 0 1.05.15 1.4.44.34.29.52.71.52 1.24v2.06c0 .45.07.79.19 1.02v.07h-1.29zm-1.05-.88c.19 0 .36-.04.52-.13.16-.08.28-.2.35-.34v-.82h-.47c-.64 0-.97.22-1.02.66v.07c0 .16.06.29.17.39s.25.17.45.17zM203.42 23.49c-.31.38-.75.57-1.3.57-.51 0-.9-.15-1.17-.44-.27-.29-.41-.72-.41-1.29v-3.12h1.27v3.08c0 .5.23.74.68.74.43 0 .73-.15.89-.45v-3.37h1.27v4.75h-1.2l-.03-.47zM209.83 23.04c.23 0 .42-.06.57-.19s.22-.3.23-.51h1.19c0 .32-.09.62-.26.89s-.41.48-.71.62c-.3.15-.63.22-1 .22-.68 0-1.22-.22-1.61-.65-.39-.43-.59-1.03-.59-1.79v-.08c0-.73.19-1.32.58-1.75s.92-.65 1.6-.65c.59 0 1.07.17 1.43.51.36.34.54.79.55 1.35h-1.19c-.01-.25-.08-.45-.23-.6s-.34-.23-.58-.23c-.3 0-.52.11-.67.32-.15.22-.23.57-.23 1.05v.13c0 .49.07.84.22 1.06s.4.3.7.3zM215.22 20.41c-.17-.02-.33-.04-.46-.04-.48 0-.8.16-.94.49v3.11h-1.27v-4.75h1.2l.04.57c.25-.44.61-.65 1.06-.65.14 0 .27.02.4.06l-.03 1.21zM217.94 24.06c-.7 0-1.27-.21-1.7-.64-.44-.43-.66-1-.66-1.71v-.12c0-.48.09-.9.28-1.28s.45-.67.78-.87c.34-.2.72-.31 1.16-.31.65 0 1.16.21 1.54.62.37.41.56.99.56 1.74v.52h-3.03c.04.31.16.56.37.75.21.19.47.28.78.28.49 0 .87-.18 1.15-.53l.62.7c-.19.27-.45.48-.77.63-.33.15-.69.22-1.08.22zm-.15-3.91c-.25 0-.46.09-.61.26-.16.17-.26.42-.3.73h1.77v-.1c-.01-.28-.08-.5-.23-.66-.15-.15-.36-.23-.63-.23zM220.41 21.56c0-.74.17-1.33.5-1.77.33-.44.79-.66 1.36-.66.46 0 .85.17 1.15.52v-2.43h1.27v6.75h-1.15l-.06-.51c-.32.4-.72.59-1.22.59-.56 0-1.01-.22-1.35-.66-.33-.43-.5-1.04-.5-1.83zm1.27.1c0 .45.08.79.23 1.03s.38.36.68.36c.39 0 .67-.17.83-.5v-1.88c-.16-.33-.43-.5-.82-.5-.61-.01-.92.49-.92 1.49zM225.67 17.99c0-.19.06-.35.19-.47s.3-.18.52-.18c.22 0 .39.06.52.18s.19.28.19.47c0 .19-.07.35-.2.47s-.3.18-.52.18-.39-.06-.52-.18a.684.684 0 0 1-.18-.47zm1.35 5.98h-1.27v-4.75h1.27v4.75zM229.59 18.05v1.17h.81v.93h-.81v2.37c0 .18.03.3.1.38s.2.11.39.11c.14 0 .27-.01.37-.03v.96c-.25.08-.51.11-.77.11-.89 0-1.34-.45-1.36-1.35v-2.56h-.69v-.93h.69v-1.17h1.27zM235.93 22.66c0-.16-.08-.28-.23-.37-.15-.09-.4-.17-.74-.24-1.13-.24-1.7-.72-1.7-1.44 0-.42.17-.77.53-1.06.35-.28.81-.42 1.37-.42.6 0 1.09.14 1.45.43.36.28.54.65.54 1.11h-1.27a.61.61 0 0 0-.18-.45c-.12-.12-.3-.18-.55-.18-.21 0-.38.05-.5.15s-.18.22-.18.37c0 .14.07.25.2.34.13.09.36.16.67.22s.58.13.8.21c.67.25 1.01.67 1.01 1.28 0 .43-.19.78-.56 1.05-.37.27-.85.4-1.44.4-.4 0-.75-.07-1.06-.21-.31-.14-.55-.34-.73-.58a1.32 1.32 0 0 1-.26-.8h1.2c.01.23.1.4.25.52s.36.18.62.18c.24 0 .43-.05.55-.14.14-.1.21-.22.21-.37zM239.96 23.04c.23 0 .42-.06.57-.19s.22-.3.23-.51h1.19c0 .32-.09.62-.26.89s-.41.48-.71.62c-.3.15-.63.22-1 .22-.68 0-1.22-.22-1.61-.65-.39-.43-.59-1.03-.59-1.79v-.08c0-.73.19-1.32.58-1.75s.92-.65 1.6-.65c.59 0 1.07.17 1.43.51.36.34.54.79.55 1.35h-1.19c-.01-.25-.08-.45-.23-.6s-.34-.23-.58-.23c-.3 0-.52.11-.67.32-.15.22-.23.57-.23 1.05v.13c0 .49.07.84.22 1.06s.39.3.7.3zM242.47 21.55c0-.47.09-.89.27-1.26s.44-.65.78-.86.74-.3 1.19-.3c.64 0 1.17.2 1.57.59s.63.93.68 1.6l.01.33c0 .73-.2 1.31-.61 1.76s-.95.66-1.64.66-1.23-.22-1.64-.66c-.41-.44-.61-1.04-.61-1.79v-.07zm1.27.09c0 .45.08.8.25 1.04.17.24.41.36.73.36.31 0 .55-.12.72-.35.17-.24.26-.61.26-1.13 0-.44-.09-.79-.26-1.03s-.42-.37-.73-.37a.83.83 0 0 0-.72.36c-.16.24-.25.61-.25 1.12zM250.43 20.41c-.17-.02-.33-.04-.46-.04-.48 0-.8.16-.94.49v3.11h-1.27v-4.75h1.2l.04.57c.25-.44.61-.65 1.06-.65.14 0 .27.02.4.06l-.03 1.21zM253.15 24.06c-.7 0-1.27-.21-1.7-.64-.44-.43-.66-1-.66-1.71v-.12c0-.48.09-.9.28-1.28s.45-.67.78-.87c.34-.2.72-.31 1.16-.31.65 0 1.16.21 1.54.62.37.41.56.99.56 1.74v.52h-3.03c.04.31.16.56.37.75.21.19.47.28.78.28.49 0 .87-.18 1.15-.53l.62.7c-.19.27-.45.48-.77.63-.33.15-.69.22-1.08.22zm-.15-3.91c-.25 0-.46.09-.61.26-.16.17-.26.42-.3.73h1.77v-.1c-.01-.28-.08-.5-.23-.66-.15-.15-.36-.23-.63-.23zM258.4 22.66c0-.16-.08-.28-.23-.37-.15-.09-.4-.17-.74-.24-1.13-.24-1.7-.72-1.7-1.44 0-.42.17-.77.53-1.06.35-.28.81-.42 1.37-.42.6 0 1.09.14 1.45.43.36.28.54.65.54 1.11h-1.27a.61.61 0 0 0-.18-.45c-.12-.12-.3-.18-.55-.18-.21 0-.38.05-.5.15s-.18.22-.18.37c0 .14.07.25.2.34.13.09.36.16.67.22s.58.13.8.21c.67.25 1.01.67 1.01 1.28 0 .43-.19.78-.56 1.05-.37.27-.85.4-1.44.4-.4 0-.75-.07-1.06-.21-.31-.14-.55-.34-.73-.58a1.32 1.32 0 0 1-.26-.8h1.2c.01.23.1.4.25.52s.36.18.62.18c.24 0 .43-.05.55-.14.15-.1.21-.22.21-.37zM262.52 22.25c0-.3.08-.57.25-.82.17-.25.47-.53.91-.84-.19-.25-.34-.49-.45-.72a1.56 1.56 0 0 1-.16-.7c0-.5.16-.9.47-1.22.31-.31.74-.47 1.27-.47.48 0 .87.14 1.18.43s.46.64.46 1.06c0 .51-.26.96-.77 1.35l-.49.36 1.1 1.28c.17-.34.26-.71.26-1.12h1.08c0 .83-.19 1.51-.58 2.02l.96 1.11h-1.44l-.33-.38c-.47.31-1.01.47-1.63.47-.63 0-1.14-.17-1.52-.5-.38-.33-.57-.77-.57-1.31zm2.15.79c.3 0 .59-.08.87-.25l-1.26-1.46-.09.07c-.26.22-.39.48-.39.78 0 .25.08.46.24.62.16.16.37.24.63.24zm-.46-3.89c0 .22.13.5.39.83l.34-.22c.17-.11.29-.22.36-.33.07-.11.1-.23.1-.38s-.05-.27-.16-.38-.25-.16-.42-.16c-.18 0-.33.06-.44.18-.12.11-.17.27-.17.46zM273.51 20.41c-.17-.02-.33-.04-.46-.04-.48 0-.8.16-.94.49v3.11h-1.27v-4.75h1.2l.04.57c.25-.44.61-.65 1.06-.65.14 0 .27.02.4.06l-.03 1.21zM276.23 24.06c-.7 0-1.27-.21-1.7-.64-.44-.43-.66-1-.66-1.71v-.12c0-.48.09-.9.28-1.28s.45-.67.78-.87c.34-.2.72-.31 1.16-.31.65 0 1.16.21 1.54.62.37.41.56.99.56 1.74v.52h-3.03c.04.31.16.56.37.75.21.19.47.28.78.28.49 0 .87-.18 1.15-.53l.62.7c-.19.27-.45.48-.77.63-.33.15-.69.22-1.08.22zm-.15-3.91c-.25 0-.46.09-.61.26-.16.17-.26.42-.3.73h1.77v-.1c-.01-.28-.08-.5-.23-.66-.15-.15-.36-.23-.63-.23zM283.19 21.64c0 .73-.17 1.32-.5 1.76-.33.44-.78.66-1.35.66-.48 0-.87-.17-1.16-.5v2.24h-1.27v-6.58h1.18l.04.47c.31-.37.71-.55 1.2-.55.59 0 1.04.22 1.37.65s.49 1.03.49 1.79v.06zm-1.27-.09c0-.44-.08-.78-.24-1.02s-.38-.36-.68-.36c-.4 0-.67.15-.82.46v1.95c.16.31.43.47.83.47.6-.01.91-.51.91-1.5zM283.77 21.55c0-.47.09-.89.27-1.26s.44-.65.78-.86.74-.3 1.19-.3c.64 0 1.17.2 1.57.59s.63.93.68 1.6l.01.33c0 .73-.2 1.31-.61 1.76s-.95.66-1.64.66-1.23-.22-1.64-.66c-.41-.44-.61-1.04-.61-1.79v-.07zm1.27.09c0 .45.08.8.25 1.04.17.24.41.36.73.36.31 0 .55-.12.72-.35.17-.24.26-.61.26-1.13 0-.44-.09-.79-.26-1.03s-.42-.37-.73-.37a.83.83 0 0 0-.72.36c-.16.24-.25.61-.25 1.12zM291.73 20.41c-.17-.02-.33-.04-.46-.04-.48 0-.8.16-.94.49v3.11h-1.27v-4.75h1.2l.04.57c.25-.44.61-.65 1.06-.65.14 0 .27.02.4.06l-.03 1.21zM294.08 18.05v1.17h.81v.93h-.81v2.37c0 .18.03.3.1.38s.2.11.39.11c.14 0 .27-.01.37-.03v.96c-.25.08-.51.11-.77.11-.89 0-1.34-.45-1.36-1.35v-2.56h-.69v-.93h.69v-1.17h1.27zM298.18 22.66c0-.16-.08-.28-.23-.37-.15-.09-.4-.17-.74-.24-1.13-.24-1.7-.72-1.7-1.44 0-.42.17-.77.53-1.06.35-.28.81-.42 1.37-.42.6 0 1.09.14 1.45.43.36.28.54.65.54 1.11h-1.27a.61.61 0 0 0-.18-.45c-.12-.12-.3-.18-.55-.18-.21 0-.38.05-.5.15s-.18.22-.18.37c0 .14.07.25.2.34.13.09.36.16.67.22s.58.13.8.21c.67.25 1.01.67 1.01 1.28 0 .43-.19.78-.56 1.05-.37.27-.85.4-1.44.4-.4 0-.75-.07-1.06-.21-.31-.14-.55-.34-.73-.58a1.32 1.32 0 0 1-.26-.8h1.2c.01.23.1.4.25.52s.36.18.62.18c.24 0 .43-.05.55-.14.15-.1.21-.22.21-.37z"/></g><linearGradient id="SVGID_1_" gradientUnits="userSpaceOnUse" x1="191.113" y1="31.5" x2="261.113" y2="31.5"><stop offset="0" stop-color="#18b9fb"/><stop offset=".5" stop-color="#782eeb"/><stop offset="1" stop-color="#e82d8a"/></linearGradient><path class="st1" d="M260.11 32.5h-68c-.55 0-1-.45-1-1s.45-1 1-1h68c.55 0 1 .45 1 1s-.44 1-1 1z"/></g></svg>