<?xml version="1.0" encoding="utf-8"?>
<!-- Generator: Adobe Illustrator 24.2.3, SVG Export Plug-In . SVG Version: 6.00 Build 0)  -->
<svg version="1.1" id="Layer_1" xmlns="http://www.w3.org/2000/svg" xmlns:xlink="http://www.w3.org/1999/xlink" x="0px" y="0px"
	 viewBox="0 0 160 600" style="enable-background:new 0 0 160 600;" xml:space="preserve">
<style type="text/css">
	.st0{fill:url(#SVGID_1_);}
</style>
<linearGradient id="SVGID_1_" gradientUnits="userSpaceOnUse" x1="13.0859" y1="260.7566" x2="146.4609" y2="260.7566">
	<stop  offset="0" style="stop-color:#18B9FB"/>
	<stop  offset="0.5" style="stop-color:#782EEB"/>
	<stop  offset="1" style="stop-color:#E82D8A"/>
</linearGradient>
<path class="st0" d="M76.93,198.41c-0.58,0.64-1.43,1.16-2.55,1.56s-2.34,0.59-3.67,0.59c-2.05,0-3.68-0.63-4.91-1.88
	s-1.88-3-1.97-5.23l-0.01-1.35c0-1.54,0.27-2.88,0.82-4.03c0.54-1.15,1.32-2.03,2.34-2.65c1.01-0.62,2.19-0.93,3.52-0.93
	c1.95,0,3.46,0.45,4.54,1.34c1.08,0.89,1.71,2.22,1.89,3.99h-3.63c-0.13-0.87-0.41-1.5-0.84-1.87s-1.04-0.56-1.83-0.56
	c-0.95,0-1.68,0.4-2.19,1.2s-0.78,1.95-0.78,3.44v0.95c0,1.56,0.27,2.73,0.8,3.52c0.53,0.78,1.37,1.18,2.52,1.18
	c0.98,0,1.71-0.22,2.19-0.66v-2.43h-2.62v-2.59h6.39V198.41z M84.58,200.56c-1.78,0-3.23-0.53-4.33-1.6
	c-1.1-1.06-1.65-2.45-1.65-4.15v-0.3c0-1.19,0.22-2.24,0.66-3.15c0.44-0.91,1.08-1.61,1.93-2.11c0.84-0.5,1.85-0.75,3.01-0.75
	c1.63,0,2.92,0.51,3.87,1.52c0.95,1.01,1.42,2.43,1.42,4.24v1.41h-7.2c0.13,0.65,0.41,1.16,0.85,1.54s1,0.56,1.7,0.56
	c1.15,0,2.04-0.4,2.69-1.2l1.65,1.96c-0.45,0.62-1.09,1.12-1.92,1.49C86.42,200.37,85.53,200.56,84.58,200.56z M84.17,191.3
	c-1.06,0-1.69,0.7-1.89,2.11h3.65v-0.28c0.01-0.58-0.13-1.03-0.44-1.35C85.18,191.46,84.74,191.3,84.17,191.3z M95.15,185.83v2.89
	h1.91v2.51h-1.91v5.32c0,0.44,0.08,0.74,0.24,0.91s0.47,0.26,0.93,0.26c0.36,0,0.66-0.02,0.9-0.06v2.59
	c-0.65,0.21-1.33,0.31-2.04,0.31c-1.25,0-2.17-0.29-2.76-0.88s-0.89-1.48-0.89-2.67v-5.77h-1.48v-2.51h1.48v-2.89H95.15z
	 M19.82,212.23v2.89h1.91v2.51h-1.91v5.32c0,0.44,0.08,0.74,0.24,0.91s0.47,0.26,0.93,0.26c0.36,0,0.66-0.02,0.9-0.06v2.59
	c-0.65,0.21-1.33,0.31-2.04,0.31c-1.25,0-2.17-0.29-2.76-0.88s-0.89-1.48-0.89-2.67v-5.77h-1.48v-2.51h1.48v-2.89H19.82z
	 M30.19,218.4L29,218.31c-1.14,0-1.87,0.36-2.19,1.07v7.36h-3.62v-11.62h3.39l0.12,1.49c0.61-1.14,1.46-1.71,2.55-1.71
	c0.39,0,0.72,0.04,1.01,0.13L30.19,218.4z M31.47,212.12c0-0.52,0.19-0.94,0.56-1.27s0.86-0.49,1.45-0.49s1.08,0.17,1.45,0.49
	s0.56,0.75,0.56,1.27s-0.19,0.94-0.56,1.27s-0.86,0.49-1.45,0.49s-1.08-0.17-1.45-0.49S31.47,212.64,31.47,212.12z M35.31,226.74
	h-3.63v-11.62h3.63V226.74z M48.33,221.02c0,1.8-0.41,3.25-1.22,4.32c-0.81,1.08-1.91,1.62-3.29,1.62c-1.07,0-1.94-0.39-2.63-1.17
	v5.42h-3.62v-16.09h3.38l0.11,1.07c0.69-0.86,1.61-1.29,2.74-1.29c1.43,0,2.55,0.53,3.34,1.58c0.79,1.06,1.19,2.51,1.19,4.36V221.02
	z M44.71,220.79c0-2.06-0.6-3.09-1.8-3.09c-0.86,0-1.43,0.31-1.72,0.92v4.58c0.32,0.64,0.9,0.97,1.74,0.97c1.15,0,1.75-1,1.78-2.99
	V220.79z M53.75,226.74h-3.63v-16.5h3.63V226.74z M61.6,226.96c-1.78,0-3.23-0.53-4.33-1.6c-1.1-1.06-1.65-2.45-1.65-4.15v-0.3
	c0-1.19,0.22-2.24,0.66-3.15c0.44-0.91,1.08-1.61,1.93-2.11c0.84-0.5,1.85-0.75,3.01-0.75c1.63,0,2.92,0.51,3.87,1.52
	c0.95,1.01,1.42,2.43,1.42,4.24v1.41h-7.2c0.13,0.65,0.41,1.16,0.85,1.54s1,0.56,1.7,0.56c1.15,0,2.04-0.4,2.69-1.2l1.65,1.96
	c-0.45,0.62-1.09,1.12-1.92,1.49C63.44,226.77,62.55,226.96,61.6,226.96z M61.19,217.7c-1.06,0-1.69,0.7-1.89,2.11h3.65v-0.28
	c0.01-0.58-0.13-1.03-0.44-1.35C62.2,217.86,61.76,217.7,61.19,217.7z M75.03,221.39h-6.46v-2.79h6.46V221.39z M88.64,221.03
	c0,1.91-0.39,3.37-1.18,4.39s-1.9,1.54-3.33,1.54c-1.18,0-2.13-0.47-2.86-1.41l-0.15,1.19h-3.24v-16.5h3.62v5.81
	c0.67-0.77,1.54-1.15,2.61-1.15c1.45,0,2.56,0.52,3.35,1.56s1.18,2.5,1.18,4.38V221.03z M85,220.8c0-1.12-0.15-1.91-0.45-2.39
	c-0.3-0.47-0.75-0.71-1.37-0.71c-0.82,0-1.38,0.31-1.7,0.93v4.61c0.31,0.61,0.88,0.92,1.72,0.92c0.85,0,1.39-0.42,1.62-1.24
	C84.95,222.51,85,221.81,85,220.8z M97.15,225.49c-0.77,0.98-1.8,1.47-3.1,1.47c-1.27,0-2.24-0.37-2.89-1.11
	c-0.66-0.74-0.98-1.81-0.98-3.2v-7.53h3.62v7.55c0,1,0.48,1.49,1.45,1.49c0.83,0,1.42-0.3,1.77-0.89v-8.15h3.64v11.62h-3.39
	L97.15,225.49z M109.67,218.4l-1.19-0.09c-1.14,0-1.87,0.36-2.19,1.07v7.36h-3.62v-11.62h3.39l0.12,1.49
	c0.61-1.14,1.46-1.71,2.55-1.71c0.39,0,0.72,0.04,1.01,0.13L109.67,218.4z M116.39,226.96c-1.78,0-3.23-0.53-4.33-1.6
	c-1.1-1.06-1.65-2.45-1.65-4.15v-0.3c0-1.19,0.22-2.24,0.66-3.15c0.44-0.91,1.08-1.61,1.93-2.11c0.84-0.5,1.85-0.75,3.01-0.75
	c1.63,0,2.92,0.51,3.87,1.52c0.95,1.01,1.42,2.43,1.42,4.24v1.41h-7.2c0.13,0.65,0.41,1.16,0.85,1.54s1,0.56,1.7,0.56
	c1.15,0,2.04-0.4,2.69-1.2l1.65,1.96c-0.45,0.62-1.09,1.12-1.92,1.49C118.24,226.77,117.35,226.96,116.39,226.96z M115.99,217.7
	c-1.06,0-1.69,0.7-1.89,2.11h3.65v-0.28c0.01-0.58-0.13-1.03-0.44-1.35C117,217.86,116.56,217.7,115.99,217.7z M129.29,226.74
	c-0.13-0.24-0.24-0.58-0.34-1.04c-0.67,0.84-1.6,1.26-2.79,1.26c-1.1,0-2.03-0.33-2.79-0.99c-0.77-0.66-1.15-1.49-1.15-2.5
	c0-1.26,0.47-2.21,1.4-2.86s2.28-0.97,4.06-0.97h1.12v-0.62c0-1.07-0.46-1.61-1.39-1.61c-0.86,0-1.29,0.42-1.29,1.27h-3.62
	c0-1.12,0.48-2.03,1.43-2.74c0.96-0.7,2.17-1.05,3.66-1.05s2.65,0.36,3.51,1.08s1.3,1.71,1.32,2.98v5.15
	c0.01,1.07,0.18,1.88,0.49,2.45v0.18H129.29z M127.03,224.38c0.45,0,0.83-0.1,1.12-0.29c0.3-0.19,0.51-0.41,0.64-0.66v-1.86h-1.05
	c-1.26,0-1.89,0.57-1.89,1.7c0,0.33,0.11,0.6,0.33,0.8C126.4,224.28,126.68,224.38,127.03,224.38z M141.35,225.49
	c-0.77,0.98-1.8,1.47-3.1,1.47c-1.27,0-2.24-0.37-2.89-1.11c-0.66-0.74-0.98-1.81-0.98-3.2v-7.53h3.62v7.55c0,1,0.48,1.49,1.45,1.49
	c0.83,0,1.42-0.3,1.77-0.89v-8.15h3.64v11.62h-3.39L141.35,225.49z M18.46,250.56c0.51,0,0.9-0.14,1.18-0.41
	c0.28-0.28,0.42-0.66,0.41-1.15h3.39c0,1.27-0.46,2.32-1.37,3.14c-0.91,0.82-2.09,1.22-3.53,1.22c-1.69,0-3.02-0.53-4-1.59
	s-1.46-2.53-1.46-4.4v-0.15c0-1.17,0.22-2.21,0.65-3.11c0.43-0.9,1.06-1.59,1.87-2.07c0.82-0.48,1.78-0.73,2.9-0.73
	c1.51,0,2.71,0.42,3.6,1.26c0.89,0.84,1.33,1.97,1.33,3.41h-3.39c0-0.6-0.15-1.06-0.44-1.39s-0.69-0.48-1.18-0.48
	c-0.94,0-1.49,0.6-1.64,1.79c-0.05,0.38-0.08,0.9-0.08,1.57c0,1.17,0.14,1.98,0.42,2.43S17.85,250.56,18.46,250.56z M32,244.8
	l-1.19-0.09c-1.14,0-1.87,0.36-2.19,1.07v7.36H25v-11.62h3.39l0.12,1.49c0.61-1.14,1.46-1.71,2.55-1.71c0.39,0,0.72,0.04,1.01,0.13
	L32,244.8z M38.73,253.36c-1.78,0-3.23-0.53-4.33-1.6c-1.1-1.06-1.65-2.45-1.65-4.15v-0.3c0-1.19,0.22-2.24,0.66-3.15
	c0.44-0.91,1.08-1.61,1.93-2.11c0.84-0.5,1.85-0.75,3.01-0.75c1.63,0,2.92,0.51,3.87,1.52c0.95,1.01,1.42,2.43,1.42,4.24v1.41h-7.2
	c0.13,0.65,0.41,1.16,0.85,1.54s1,0.56,1.7,0.56c1.15,0,2.04-0.4,2.69-1.2l1.65,1.96c-0.45,0.62-1.09,1.12-1.92,1.49
	C40.57,253.17,39.68,253.36,38.73,253.36z M38.32,244.1c-1.06,0-1.69,0.7-1.89,2.11h3.65v-0.28c0.01-0.58-0.13-1.03-0.44-1.35
	C39.33,244.26,38.89,244.1,38.32,244.1z M44.62,247.25c0-1.84,0.4-3.29,1.19-4.35c0.79-1.06,1.91-1.59,3.33-1.59
	c1.04,0,1.91,0.41,2.62,1.23v-5.89h3.63v16.5h-3.25l-0.18-1.25c-0.75,0.97-1.69,1.46-2.84,1.46c-1.38,0-2.48-0.53-3.29-1.59
	S44.62,249.2,44.62,247.25z M48.25,247.47c0,2.06,0.6,3.09,1.8,3.09c0.8,0,1.38-0.34,1.72-1.01v-4.43c-0.33-0.69-0.9-1.03-1.7-1.03
	c-1.12,0-1.72,0.9-1.82,2.71L48.25,247.47z M57.43,238.52c0-0.52,0.19-0.94,0.56-1.27s0.86-0.49,1.45-0.49s1.08,0.17,1.45,0.49
	s0.56,0.75,0.56,1.27s-0.19,0.94-0.56,1.27s-0.86,0.49-1.45,0.49s-1.08-0.17-1.45-0.49S57.43,239.04,57.43,238.52z M61.28,253.14
	h-3.63v-11.62h3.63V253.14z M67.72,238.63v2.89h1.91v2.51h-1.91v5.32c0,0.44,0.08,0.74,0.24,0.91s0.47,0.26,0.93,0.26
	c0.36,0,0.66-0.02,0.9-0.06v2.59c-0.65,0.21-1.33,0.31-2.04,0.31c-1.25,0-2.17-0.29-2.76-0.88S64.1,251,64.1,249.8v-5.77h-1.48
	v-2.51h1.48v-2.89H67.72z M82.62,249.88c0-0.31-0.16-0.55-0.48-0.74s-0.93-0.38-1.84-0.58s-1.65-0.46-2.23-0.79
	c-0.59-0.33-1.04-0.72-1.34-1.19s-0.46-1-0.46-1.6c0-1.07,0.44-1.95,1.32-2.64c0.88-0.69,2.03-1.04,3.46-1.04
	c1.53,0,2.76,0.35,3.7,1.04c0.93,0.69,1.4,1.61,1.4,2.74H82.5c0-0.93-0.49-1.4-1.47-1.4c-0.38,0-0.7,0.11-0.96,0.32
	c-0.26,0.21-0.39,0.47-0.39,0.79c0,0.32,0.16,0.58,0.47,0.78s0.82,0.37,1.51,0.49c0.69,0.13,1.3,0.28,1.82,0.46
	c1.75,0.6,2.62,1.68,2.62,3.23c0,1.06-0.47,1.92-1.41,2.59c-0.94,0.67-2.16,1-3.66,1c-1,0-1.88-0.18-2.66-0.54s-1.39-0.84-1.83-1.46
	s-0.66-1.26-0.66-1.94h3.38c0.01,0.54,0.19,0.93,0.54,1.18c0.34,0.25,0.78,0.37,1.32,0.37c0.49,0,0.86-0.1,1.11-0.3
	C82.5,250.46,82.62,250.2,82.62,249.88z M92.72,250.56c0.51,0,0.9-0.14,1.18-0.41c0.28-0.28,0.42-0.66,0.41-1.15h3.39
	c0,1.27-0.46,2.32-1.37,3.14c-0.91,0.82-2.09,1.22-3.53,1.22c-1.69,0-3.02-0.53-4-1.59s-1.46-2.53-1.46-4.4v-0.15
	c0-1.17,0.22-2.21,0.65-3.11c0.43-0.9,1.06-1.59,1.87-2.07c0.82-0.48,1.78-0.73,2.9-0.73c1.51,0,2.71,0.42,3.6,1.26
	c0.89,0.84,1.33,1.97,1.33,3.41h-3.39c0-0.6-0.15-1.06-0.44-1.39s-0.69-0.48-1.18-0.48c-0.94,0-1.49,0.6-1.64,1.79
	c-0.05,0.38-0.08,0.9-0.08,1.57c0,1.17,0.14,1.98,0.42,2.43S92.11,250.56,92.72,250.56z M98.78,247.22c0-1.16,0.23-2.19,0.68-3.1
	c0.45-0.91,1.1-1.6,1.94-2.09c0.84-0.49,1.84-0.73,2.98-0.73c1.74,0,3.11,0.54,4.11,1.62c1,1.08,1.5,2.54,1.5,4.4v0.13
	c0,1.81-0.5,3.25-1.51,4.31c-1.01,1.06-2.37,1.6-4.09,1.6c-1.65,0-2.98-0.5-3.99-1.49c-1-0.99-1.54-2.34-1.62-4.03L98.78,247.22z
	 M102.4,247.45c0,1.07,0.17,1.86,0.5,2.36s0.83,0.75,1.49,0.75c1.29,0,1.95-0.99,1.98-2.98v-0.37c0-2.08-0.67-3.13-2-3.13
	c-1.21,0-1.87,0.9-1.97,2.7L102.4,247.45z M118.62,244.8l-1.19-0.09c-1.14,0-1.87,0.36-2.19,1.07v7.36h-3.62v-11.62h3.39l0.12,1.49
	c0.61-1.14,1.46-1.71,2.55-1.71c0.39,0,0.72,0.04,1.01,0.13L118.62,244.8z M125.34,253.36c-1.78,0-3.23-0.53-4.33-1.6
	c-1.1-1.06-1.65-2.45-1.65-4.15v-0.3c0-1.19,0.22-2.24,0.66-3.15c0.44-0.91,1.08-1.61,1.93-2.11c0.84-0.5,1.85-0.75,3.01-0.75
	c1.63,0,2.92,0.51,3.87,1.52c0.95,1.01,1.42,2.43,1.42,4.24v1.41h-7.2c0.13,0.65,0.41,1.16,0.85,1.54s1,0.56,1.7,0.56
	c1.15,0,2.04-0.4,2.69-1.2l1.65,1.96c-0.45,0.62-1.09,1.12-1.92,1.49C127.18,253.17,126.29,253.36,125.34,253.36z M124.93,244.1
	c-1.06,0-1.69,0.7-1.89,2.11h3.65v-0.28c0.01-0.58-0.13-1.03-0.44-1.35C125.95,244.26,125.51,244.1,124.93,244.1z M137.78,249.88
	c0-0.31-0.16-0.55-0.48-0.74s-0.93-0.38-1.84-0.58s-1.65-0.46-2.23-0.79c-0.59-0.33-1.04-0.72-1.34-1.19s-0.46-1-0.46-1.6
	c0-1.07,0.44-1.95,1.32-2.64c0.88-0.69,2.03-1.04,3.46-1.04c1.53,0,2.76,0.35,3.7,1.04c0.93,0.69,1.4,1.61,1.4,2.74h-3.63
	c0-0.93-0.49-1.4-1.47-1.4c-0.38,0-0.7,0.11-0.96,0.32c-0.26,0.21-0.39,0.47-0.39,0.79c0,0.32,0.16,0.58,0.47,0.78
	s0.82,0.37,1.51,0.49c0.69,0.13,1.3,0.28,1.82,0.46c1.75,0.6,2.62,1.68,2.62,3.23c0,1.06-0.47,1.92-1.41,2.59
	c-0.94,0.67-2.16,1-3.66,1c-1,0-1.88-0.18-2.66-0.54s-1.39-0.84-1.83-1.46s-0.66-1.26-0.66-1.94h3.38c0.01,0.54,0.19,0.93,0.54,1.18
	c0.34,0.25,0.78,0.37,1.32,0.37c0.49,0,0.86-0.1,1.11-0.3C137.66,250.46,137.78,250.2,137.78,249.88z M144.24,257.35l-1.83-0.86
	l0.37-0.73c0.5-0.93,0.76-1.82,0.78-2.66v-2.69h2.9l-0.01,2.33c-0.01,0.82-0.22,1.66-0.63,2.51S144.88,256.81,144.24,257.35z
	 M29.98,271.2l-1.19-0.09c-1.14,0-1.87,0.36-2.19,1.07v7.36h-3.62v-11.62h3.39l0.12,1.49c0.61-1.14,1.46-1.71,2.55-1.71
	c0.39,0,0.72,0.04,1.01,0.13L29.98,271.2z M36.71,279.76c-1.78,0-3.23-0.53-4.33-1.6c-1.1-1.06-1.65-2.45-1.65-4.15v-0.3
	c0-1.19,0.22-2.24,0.66-3.15c0.44-0.91,1.08-1.61,1.93-2.11c0.84-0.5,1.85-0.75,3.01-0.75c1.63,0,2.92,0.51,3.87,1.52
	c0.95,1.01,1.42,2.43,1.42,4.24v1.41h-7.2c0.13,0.65,0.41,1.16,0.85,1.54s1,0.56,1.7,0.56c1.15,0,2.04-0.4,2.69-1.2l1.65,1.96
	c-0.45,0.62-1.09,1.12-1.92,1.49C38.55,279.57,37.66,279.76,36.71,279.76z M36.3,270.5c-1.06,0-1.69,0.7-1.89,2.11h3.65v-0.28
	c0.01-0.58-0.13-1.03-0.44-1.35C37.31,270.66,36.87,270.5,36.3,270.5z M43.86,279.54v-9.11h-1.69v-2.51h1.69V267
	c0-1.33,0.39-2.35,1.17-3.08s1.88-1.1,3.29-1.1c0.52,0,1.08,0.08,1.7,0.23l0.01,2.66c-0.22-0.06-0.52-0.1-0.89-0.1
	c-1.1,0-1.64,0.47-1.64,1.42v0.89h2.27v2.51h-2.27v9.11H43.86z M58.06,271.2l-1.19-0.09c-1.14,0-1.87,0.36-2.19,1.07v7.36h-3.62
	v-11.62h3.39l0.12,1.49c0.61-1.14,1.46-1.71,2.55-1.71c0.39,0,0.72,0.04,1.01,0.13L58.06,271.2z M64.79,279.76
	c-1.78,0-3.23-0.53-4.33-1.6c-1.1-1.06-1.65-2.45-1.65-4.15v-0.3c0-1.19,0.22-2.24,0.66-3.15c0.44-0.91,1.08-1.61,1.93-2.11
	c0.84-0.5,1.85-0.75,3.01-0.75c1.63,0,2.92,0.51,3.87,1.52c0.95,1.01,1.42,2.43,1.42,4.24v1.41h-7.2c0.13,0.65,0.41,1.16,0.85,1.54
	s1,0.56,1.7,0.56c1.15,0,2.04-0.4,2.69-1.2l1.65,1.96c-0.45,0.62-1.09,1.12-1.92,1.49C66.63,279.57,65.74,279.76,64.79,279.76z
	 M64.38,270.5c-1.06,0-1.69,0.7-1.89,2.11h3.65v-0.28c0.01-0.58-0.13-1.03-0.44-1.35C65.39,270.66,64.95,270.5,64.38,270.5z
	 M77.23,276.28c0-0.31-0.16-0.55-0.48-0.74s-0.93-0.38-1.84-0.58s-1.65-0.46-2.23-0.79c-0.59-0.33-1.04-0.72-1.34-1.19
	s-0.46-1-0.46-1.6c0-1.07,0.44-1.95,1.32-2.64c0.88-0.69,2.03-1.04,3.46-1.04c1.53,0,2.76,0.35,3.7,1.04s1.4,1.61,1.4,2.74h-3.63
	c0-0.93-0.49-1.4-1.47-1.4c-0.38,0-0.7,0.11-0.96,0.32c-0.26,0.21-0.39,0.47-0.39,0.79c0,0.32,0.16,0.58,0.47,0.78
	s0.82,0.37,1.51,0.49c0.69,0.13,1.3,0.28,1.82,0.46c1.75,0.6,2.62,1.68,2.62,3.23c0,1.06-0.47,1.92-1.41,2.59
	c-0.94,0.67-2.16,1-3.66,1c-1,0-1.88-0.18-2.66-0.54s-1.39-0.84-1.83-1.46s-0.66-1.26-0.66-1.94h3.38c0.01,0.54,0.19,0.93,0.54,1.18
	c0.34,0.25,0.78,0.37,1.32,0.37c0.49,0,0.86-0.1,1.11-0.3C77.1,276.86,77.23,276.6,77.23,276.28z M85.95,269.17
	c0.77-0.97,1.76-1.46,2.96-1.46c1.28,0,2.25,0.38,2.9,1.14s0.98,1.88,1,3.36v7.34h-3.63v-7.25c0-0.62-0.12-1.07-0.38-1.36
	c-0.25-0.29-0.68-0.44-1.28-0.44c-0.75,0-1.27,0.24-1.58,0.71v8.34h-3.62v-16.5h3.62V269.17z M100.45,279.76
	c-1.78,0-3.23-0.53-4.33-1.6c-1.1-1.06-1.65-2.45-1.65-4.15v-0.3c0-1.19,0.22-2.24,0.66-3.15c0.44-0.91,1.08-1.61,1.93-2.11
	c0.84-0.5,1.85-0.75,3.01-0.75c1.63,0,2.92,0.51,3.87,1.52c0.95,1.01,1.42,2.43,1.42,4.24v1.41h-7.2c0.13,0.65,0.41,1.16,0.85,1.54
	s1,0.56,1.7,0.56c1.15,0,2.04-0.4,2.69-1.2l1.65,1.96c-0.45,0.62-1.09,1.12-1.92,1.49C102.29,279.57,101.4,279.76,100.45,279.76z
	 M100.04,270.5c-1.06,0-1.69,0.7-1.89,2.11h3.65v-0.28c0.01-0.58-0.13-1.03-0.44-1.35C101.06,270.66,100.62,270.5,100.04,270.5z
	 M106.35,273.65c0-1.84,0.4-3.29,1.19-4.35s1.91-1.59,3.33-1.59c1.04,0,1.91,0.41,2.62,1.22v-5.89h3.63v16.5h-3.25l-0.18-1.25
	c-0.75,0.97-1.69,1.46-2.84,1.46c-1.38,0-2.48-0.53-3.29-1.59S106.35,275.6,106.35,273.65z M109.97,273.87c0,2.06,0.6,3.09,1.8,3.09
	c0.8,0,1.38-0.34,1.72-1.01v-4.43c-0.33-0.69-0.9-1.03-1.7-1.03c-1.12,0-1.72,0.9-1.82,2.71L109.97,273.87z M126.99,271.3
	c-0.42-0.6-0.75-1.17-0.99-1.72c-0.24-0.54-0.36-1.11-0.36-1.69c0-1.26,0.41-2.28,1.22-3.06c0.82-0.78,1.88-1.17,3.2-1.17
	c1.18,0,2.16,0.36,2.93,1.08c0.77,0.72,1.16,1.61,1.16,2.68c0,1.33-0.73,2.51-2.2,3.54l-0.82,0.57l2.41,2.76
	c0.39-0.79,0.59-1.65,0.59-2.59h3.04c0,2.11-0.49,3.81-1.46,5.08l2.38,2.74h-4.04l-0.73-0.83c-0.6,0.36-1.22,0.62-1.84,0.79
	c-0.63,0.17-1.33,0.26-2.12,0.26c-1.55,0-2.79-0.41-3.72-1.22c-0.93-0.81-1.4-1.88-1.4-3.21c0-0.72,0.18-1.38,0.55-1.97
	c0.37-0.59,1.09-1.27,2.15-2.05L126.99,271.3z M129.6,276.98c0.63,0,1.23-0.15,1.8-0.44l-2.81-3.2l-0.1,0.06
	c-0.41,0.5-0.61,1.07-0.61,1.7c0,0.52,0.17,0.97,0.49,1.33S129.11,276.98,129.6,276.98z M128.76,267.86c0,0.5,0.27,1.11,0.82,1.83
	l0.72-0.45c0.33-0.21,0.57-0.44,0.72-0.67s0.23-0.52,0.23-0.87c0-0.33-0.11-0.62-0.34-0.86s-0.51-0.37-0.85-0.37
	c-0.4,0-0.72,0.13-0.95,0.38C128.87,267.11,128.76,267.44,128.76,267.86z M48.01,291.43v2.89h1.91v2.51h-1.91v5.32
	c0,0.44,0.08,0.74,0.24,0.91s0.47,0.26,0.93,0.26c0.36,0,0.66-0.02,0.9-0.06v2.59c-0.65,0.21-1.33,0.31-2.04,0.31
	c-1.25,0-2.17-0.29-2.76-0.88s-0.89-1.48-0.89-2.67v-5.77h-1.48v-2.51h1.48v-2.89H48.01z M58.38,297.6l-1.19-0.09
	c-1.14,0-1.87,0.36-2.19,1.07v7.36h-3.62v-11.62h3.39l0.12,1.49c0.61-1.14,1.46-1.71,2.55-1.71c0.39,0,0.72,0.04,1.01,0.13
	L58.38,297.6z M65.91,305.94c-0.13-0.24-0.24-0.58-0.34-1.04c-0.67,0.84-1.6,1.26-2.79,1.26c-1.1,0-2.03-0.33-2.79-0.99
	c-0.77-0.66-1.15-1.49-1.15-2.5c0-1.26,0.47-2.21,1.4-2.86s2.28-0.97,4.06-0.97h1.12v-0.62c0-1.07-0.46-1.61-1.39-1.61
	c-0.86,0-1.29,0.42-1.29,1.27h-3.62c0-1.12,0.48-2.03,1.43-2.74c0.96-0.7,2.17-1.05,3.66-1.05s2.65,0.36,3.51,1.08
	s1.3,1.71,1.32,2.98v5.15c0.01,1.07,0.18,1.88,0.49,2.45v0.18H65.91z M63.64,303.58c0.45,0,0.83-0.1,1.12-0.29
	c0.3-0.19,0.51-0.41,0.64-0.66v-1.86h-1.05c-1.26,0-1.89,0.57-1.89,1.7c0,0.33,0.11,0.6,0.33,0.8
	C63.02,303.48,63.3,303.58,63.64,303.58z M75.96,303.36c0.51,0,0.9-0.14,1.18-0.41c0.28-0.28,0.42-0.66,0.41-1.15h3.39
	c0,1.27-0.46,2.32-1.37,3.14c-0.91,0.82-2.09,1.22-3.53,1.22c-1.69,0-3.02-0.53-4-1.59s-1.46-2.53-1.46-4.4v-0.15
	c0-1.17,0.22-2.21,0.65-3.11c0.43-0.9,1.06-1.59,1.87-2.07c0.82-0.48,1.78-0.72,2.9-0.72c1.51,0,2.71,0.42,3.6,1.26
	s1.33,1.97,1.33,3.41h-3.39c0-0.6-0.15-1.06-0.44-1.39s-0.69-0.48-1.18-0.48c-0.94,0-1.49,0.6-1.64,1.79
	c-0.05,0.38-0.08,0.9-0.08,1.57c0,1.17,0.14,1.98,0.42,2.43S75.35,303.36,75.96,303.36z M87.14,301.61l-1.02,1.02v3.31H82.5v-16.51
	h3.62v8.77l0.37-0.48l2.73-3.39h4.34l-4.07,4.78l4.34,6.84h-4.15L87.14,301.61z M99.91,306.16c-1.78,0-3.23-0.53-4.33-1.6
	c-1.1-1.06-1.65-2.45-1.65-4.15v-0.3c0-1.19,0.22-2.24,0.66-3.15c0.44-0.91,1.08-1.61,1.93-2.11c0.84-0.5,1.85-0.75,3.01-0.75
	c1.63,0,2.92,0.51,3.87,1.52c0.95,1.01,1.42,2.43,1.42,4.24v1.41h-7.2c0.13,0.65,0.41,1.16,0.85,1.54s1,0.56,1.7,0.56
	c1.15,0,2.04-0.4,2.69-1.2l1.65,1.96c-0.45,0.62-1.09,1.12-1.92,1.49C101.75,305.97,100.86,306.16,99.91,306.16z M99.5,296.9
	c-1.06,0-1.69,0.7-1.89,2.11h3.65v-0.28c0.01-0.58-0.13-1.03-0.44-1.35C100.52,297.06,100.08,296.9,99.5,296.9z M105.81,300.04
	c0-1.84,0.4-3.29,1.19-4.35s1.91-1.59,3.33-1.59c1.04,0,1.91,0.41,2.62,1.22v-5.89h3.63v16.5h-3.25l-0.18-1.25
	c-0.75,0.97-1.69,1.46-2.84,1.46c-1.38,0-2.48-0.53-3.29-1.59S105.81,302,105.81,300.04z M109.43,300.27c0,2.06,0.6,3.09,1.8,3.09
	c0.8,0,1.38-0.34,1.72-1.01v-4.43c-0.33-0.69-0.9-1.03-1.7-1.03c-1.12,0-1.72,0.9-1.82,2.71L109.43,300.27z M44.08,320.72l0.12,1.36
	c0.82-1.05,1.93-1.58,3.32-1.58c1.47,0,2.46,0.58,2.98,1.75c0.79-1.17,1.93-1.75,3.42-1.75c2.36,0,3.57,1.42,3.63,4.28v7.56h-3.63
	v-7.34c0-0.59-0.1-1.03-0.3-1.3s-0.57-0.41-1.1-0.41c-0.72,0-1.25,0.32-1.6,0.96l0.01,0.15v7.94h-3.63v-7.32
	c0-0.61-0.1-1.05-0.29-1.32s-0.56-0.41-1.11-0.41c-0.69,0-1.22,0.32-1.59,0.96v8.09h-3.62v-11.62H44.08z M59.15,326.42
	c0-1.16,0.23-2.19,0.68-3.1c0.45-0.91,1.1-1.6,1.94-2.09s1.84-0.73,2.98-0.73c1.74,0,3.11,0.54,4.11,1.62c1,1.08,1.5,2.54,1.5,4.4
	v0.13c0,1.81-0.5,3.25-1.51,4.31c-1.01,1.06-2.37,1.6-4.09,1.6c-1.65,0-2.98-0.5-3.99-1.49c-1-0.99-1.54-2.34-1.62-4.03
	L59.15,326.42z M62.77,326.65c0,1.07,0.17,1.86,0.5,2.36s0.83,0.75,1.49,0.75c1.29,0,1.95-0.99,1.98-2.98v-0.37
	c0-2.08-0.67-3.13-2-3.13c-1.21,0-1.87,0.9-1.97,2.7L62.77,326.65z M75.28,320.72l0.12,1.36c0.8-1.05,1.91-1.58,3.32-1.58
	c1.21,0,2.11,0.36,2.71,1.08c0.6,0.72,0.91,1.81,0.93,3.27v7.49h-3.63v-7.34c0-0.59-0.12-1.02-0.35-1.29
	c-0.24-0.28-0.67-0.41-1.29-0.41c-0.71,0-1.24,0.28-1.58,0.84v8.21h-3.62v-11.62H75.28z M88.58,317.83v2.89h1.91v2.51h-1.91v5.32
	c0,0.44,0.08,0.74,0.24,0.91s0.47,0.26,0.93,0.26c0.36,0,0.66-0.02,0.9-0.06v2.59c-0.65,0.21-1.33,0.31-2.04,0.31
	c-1.25,0-2.17-0.29-2.76-0.88s-0.89-1.48-0.89-2.67v-5.77h-1.48v-2.51h1.48v-2.89H88.58z M95.46,321.97
	c0.77-0.97,1.76-1.46,2.96-1.46c1.28,0,2.25,0.38,2.9,1.14s0.98,1.88,1,3.36v7.34h-3.63v-7.25c0-0.62-0.12-1.07-0.38-1.36
	c-0.25-0.29-0.68-0.44-1.28-0.44c-0.75,0-1.27,0.24-1.58,0.71v8.34h-3.62v-16.5h3.62V321.97z M108.15,332.34h-3.63v-16.5h3.63
	V332.34z M115.03,327.27l1.93-6.55h3.88l-4.74,13.57l-0.2,0.49c-0.67,1.5-1.86,2.26-3.57,2.26c-0.47,0-0.97-0.07-1.49-0.21v-2.58
	h0.47c0.51,0,0.9-0.07,1.17-0.22c0.27-0.15,0.47-0.41,0.6-0.79l0.29-0.77l-4.04-11.74h3.87L115.03,327.27z"/>
</svg>
