<?xml version="1.0" encoding="utf-8"?>
<!-- Generator: Adobe Illustrator 24.2.3, SVG Export Plug-In . SVG Version: 6.00 Build 0)  -->
<svg version="1.1" id="Layer_1" xmlns="http://www.w3.org/2000/svg" xmlns:xlink="http://www.w3.org/1999/xlink" x="0px" y="0px"
	 viewBox="0 0 320 50" style="enable-background:new 0 0 320 50;" xml:space="preserve">
<style type="text/css">
	.st0{fill:url(#SVGID_1_);}
</style>
<linearGradient id="SVGID_1_" gradientUnits="userSpaceOnUse" x1="104.7128" y1="24.9711" x2="202.8578" y2="24.9711">
	<stop  offset="0" style="stop-color:#18B9FB"/>
	<stop  offset="0.5" style="stop-color:#782EEB"/>
	<stop  offset="1" style="stop-color:#E82D8A"/>
</linearGradient>
<path class="st0" d="M108.31,18.36h-1.26v3.42h-2.33v-9.67h3.81c1.15,0,2.04,0.25,2.69,0.76c0.65,0.51,0.97,1.23,0.97,2.16
	c0,0.67-0.14,1.23-0.41,1.67c-0.27,0.44-0.7,0.8-1.28,1.08l2.02,3.91v0.1h-2.5L108.31,18.36z M107.04,16.57h1.47
	c0.44,0,0.78-0.12,1-0.35c0.22-0.23,0.34-0.56,0.34-0.98c0-0.42-0.11-0.74-0.34-0.98s-0.56-0.36-1-0.36h-1.47V16.57z M116.96,21.92
	c-1.1,0-2-0.33-2.68-0.99c-0.68-0.66-1.02-1.51-1.02-2.57v-0.19c0-0.73,0.14-1.38,0.41-1.95c0.27-0.56,0.67-1,1.19-1.31
	c0.52-0.31,1.14-0.46,1.86-0.46c1.01,0,1.81,0.31,2.39,0.94c0.58,0.63,0.88,1.5,0.88,2.62v0.87h-4.45c0.08,0.4,0.25,0.72,0.52,0.95
	c0.27,0.23,0.62,0.35,1.05,0.35c0.71,0,1.26-0.25,1.66-0.74l1.02,1.21c-0.28,0.39-0.67,0.69-1.19,0.92
	C118.1,21.8,117.55,21.92,116.96,21.92z M116.71,16.19c-0.66,0-1.05,0.43-1.17,1.3h2.26v-0.17c0.01-0.36-0.08-0.64-0.27-0.83
	C117.34,16.29,117.06,16.19,116.71,16.19z M123.93,20.19c0.31,0,0.56-0.09,0.73-0.26c0.17-0.17,0.26-0.41,0.25-0.71h2.1
	c0,0.79-0.28,1.43-0.85,1.94c-0.56,0.5-1.29,0.76-2.18,0.76c-1.05,0-1.87-0.33-2.47-0.98c-0.6-0.66-0.9-1.56-0.9-2.72v-0.09
	c0-0.73,0.13-1.37,0.4-1.92c0.27-0.56,0.65-0.98,1.16-1.28c0.5-0.3,1.1-0.45,1.79-0.45c0.93,0,1.68,0.26,2.23,0.78
	c0.55,0.52,0.82,1.22,0.82,2.11h-2.1c0-0.37-0.09-0.66-0.27-0.86c-0.18-0.2-0.43-0.3-0.73-0.3c-0.58,0-0.92,0.37-1.02,1.11
	c-0.03,0.23-0.05,0.56-0.05,0.97c0,0.72,0.09,1.22,0.26,1.5S123.55,20.19,123.93,20.19z M131.44,21.92c-1.1,0-2-0.33-2.68-0.99
	c-0.68-0.66-1.02-1.51-1.02-2.57v-0.19c0-0.73,0.14-1.38,0.41-1.95c0.27-0.56,0.67-1,1.19-1.31c0.52-0.31,1.14-0.46,1.86-0.46
	c1.01,0,1.81,0.31,2.39,0.94c0.58,0.63,0.88,1.5,0.88,2.62v0.87h-4.45c0.08,0.4,0.25,0.72,0.52,0.95c0.27,0.23,0.62,0.35,1.05,0.35
	c0.71,0,1.26-0.25,1.66-0.74l1.02,1.21c-0.28,0.39-0.67,0.69-1.19,0.92C132.58,21.8,132.02,21.92,131.44,21.92z M131.18,16.19
	c-0.66,0-1.05,0.43-1.17,1.3h2.26v-0.17c0.01-0.36-0.08-0.64-0.27-0.83C131.81,16.29,131.54,16.19,131.18,16.19z M135.35,12.75
	c0-0.32,0.12-0.58,0.35-0.78c0.23-0.2,0.53-0.31,0.9-0.31c0.37,0,0.67,0.1,0.9,0.31c0.23,0.2,0.35,0.46,0.35,0.78
	s-0.12,0.58-0.35,0.78c-0.23,0.2-0.53,0.31-0.9,0.31c-0.37,0-0.67-0.1-0.9-0.31C135.46,13.33,135.35,13.06,135.35,12.75z
	 M137.73,21.79h-2.25V14.6h2.25V21.79z M141.97,19.12l1.14-4.52h2.36l-2.34,7.19h-2.29l-2.34-7.19h2.36L141.97,19.12z M149.52,21.92
	c-1.1,0-2-0.33-2.68-0.99c-0.68-0.66-1.02-1.51-1.02-2.57v-0.19c0-0.73,0.14-1.38,0.41-1.95c0.27-0.56,0.67-1,1.19-1.31
	c0.52-0.31,1.14-0.46,1.86-0.46c1.01,0,1.81,0.31,2.39,0.94c0.58,0.63,0.88,1.5,0.88,2.62v0.87h-4.45c0.08,0.4,0.25,0.72,0.52,0.95
	c0.27,0.23,0.62,0.35,1.05,0.35c0.71,0,1.26-0.25,1.66-0.74l1.02,1.21c-0.28,0.39-0.67,0.69-1.19,0.92
	C150.66,21.8,150.11,21.92,149.52,21.92z M149.27,16.19c-0.66,0-1.05,0.43-1.17,1.3h2.26v-0.17c0.01-0.36-0.08-0.64-0.27-0.83
	C149.9,16.29,149.63,16.19,149.27,16.19z M156.82,12.75c0-0.32,0.12-0.58,0.35-0.78c0.23-0.2,0.53-0.31,0.9-0.31
	c0.37,0,0.67,0.1,0.9,0.31c0.23,0.2,0.35,0.46,0.35,0.78s-0.12,0.58-0.35,0.78c-0.23,0.2-0.53,0.31-0.9,0.31
	c-0.37,0-0.67-0.1-0.9-0.31C156.94,13.33,156.82,13.06,156.82,12.75z M159.2,21.79h-2.25V14.6h2.25V21.79z M160.3,18.14
	c0-1.14,0.25-2.03,0.74-2.69c0.49-0.66,1.18-0.98,2.06-0.98c0.64,0,1.18,0.25,1.62,0.76v-3.64h2.25v10.2h-2.01l-0.11-0.77
	c-0.46,0.6-1.05,0.9-1.75,0.9c-0.85,0-1.53-0.33-2.03-0.98C160.55,20.28,160.3,19.35,160.3,18.14z M162.54,18.28
	c0,1.28,0.37,1.91,1.12,1.91c0.5,0,0.85-0.21,1.06-0.62v-2.74c-0.2-0.43-0.55-0.64-1.05-0.64c-0.69,0-1.07,0.56-1.12,1.67
	L162.54,18.28z M171.71,21.92c-1.1,0-2-0.33-2.68-0.99c-0.68-0.66-1.02-1.51-1.02-2.57v-0.19c0-0.73,0.14-1.38,0.41-1.95
	c0.27-0.56,0.67-1,1.19-1.31c0.52-0.31,1.14-0.46,1.86-0.46c1.01,0,1.81,0.31,2.39,0.94c0.58,0.63,0.88,1.5,0.88,2.62v0.87h-4.45
	c0.08,0.4,0.25,0.72,0.52,0.95c0.27,0.23,0.62,0.35,1.05,0.35c0.71,0,1.26-0.25,1.66-0.74l1.02,1.21c-0.28,0.39-0.67,0.69-1.19,0.92
	C172.85,21.8,172.3,21.92,171.71,21.92z M171.46,16.19c-0.66,0-1.05,0.43-1.17,1.3h2.26v-0.17c0.01-0.36-0.08-0.64-0.27-0.83
	C172.08,16.29,171.81,16.19,171.46,16.19z M177.7,14.6l0.07,0.84c0.5-0.65,1.18-0.98,2.05-0.98c0.75,0,1.31,0.22,1.68,0.67
	c0.37,0.45,0.56,1.12,0.57,2.02v4.63h-2.25v-4.54c0-0.36-0.07-0.63-0.22-0.8c-0.15-0.17-0.41-0.26-0.8-0.26
	c-0.44,0-0.76,0.17-0.98,0.52v5.07h-2.24V14.6H177.7z M185.92,12.81v1.79h1.18v1.55h-1.18v3.29c0,0.27,0.05,0.46,0.15,0.56
	c0.1,0.11,0.29,0.16,0.58,0.16c0.22,0,0.41-0.01,0.56-0.04v1.6c-0.4,0.13-0.82,0.19-1.26,0.19c-0.77,0-1.34-0.18-1.71-0.54
	c-0.37-0.36-0.55-0.91-0.55-1.65v-3.57h-0.92V14.6h0.92v-1.79H185.92z M187.96,12.75c0-0.32,0.12-0.58,0.35-0.78
	c0.23-0.2,0.53-0.31,0.9-0.31c0.37,0,0.67,0.1,0.9,0.31c0.23,0.2,0.35,0.46,0.35,0.78s-0.12,0.58-0.35,0.78
	c-0.23,0.2-0.53,0.31-0.9,0.31c-0.37,0-0.67-0.1-0.9-0.31C188.08,13.33,187.96,13.06,187.96,12.75z M190.34,21.79h-2.25V14.6h2.25
	V21.79z M194.33,12.81v1.79h1.18v1.55h-1.18v3.29c0,0.27,0.05,0.46,0.15,0.56c0.1,0.11,0.29,0.16,0.58,0.16
	c0.22,0,0.41-0.01,0.56-0.04v1.6c-0.4,0.13-0.82,0.19-1.26,0.19c-0.77,0-1.34-0.18-1.71-0.54c-0.37-0.36-0.55-0.91-0.55-1.65v-3.57
	h-0.92V14.6h0.92v-1.79H194.33z M199.26,18.65l1.2-4.05h2.4l-2.93,8.39l-0.13,0.31c-0.42,0.93-1.15,1.39-2.21,1.39
	c-0.29,0-0.6-0.04-0.92-0.13v-1.59h0.29c0.31,0,0.55-0.05,0.72-0.14c0.17-0.09,0.29-0.25,0.37-0.49l0.18-0.48l-2.5-7.26h2.39
	L199.26,18.65z M107.87,29.25v1.79h1.18v1.55h-1.18v3.29c0,0.27,0.05,0.46,0.15,0.56c0.1,0.11,0.29,0.16,0.58,0.16
	c0.22,0,0.41-0.01,0.56-0.04v1.6c-0.4,0.13-0.82,0.19-1.26,0.19c-0.77,0-1.34-0.18-1.71-0.54c-0.37-0.36-0.55-0.91-0.55-1.65v-3.57
	h-0.92v-1.55h0.92v-1.79H107.87z M112.12,31.81c0.48-0.6,1.09-0.9,1.83-0.9c0.79,0,1.39,0.23,1.79,0.7c0.4,0.47,0.61,1.16,0.62,2.08
	v4.54h-2.25v-4.48c0-0.38-0.08-0.66-0.23-0.84c-0.16-0.18-0.42-0.27-0.79-0.27c-0.46,0-0.79,0.15-0.98,0.44v5.15h-2.24v-10.2h2.24
	V31.81z M121.09,38.36c-1.1,0-2-0.33-2.68-0.99c-0.68-0.66-1.02-1.51-1.02-2.57v-0.19c0-0.73,0.14-1.38,0.41-1.95
	c0.27-0.56,0.67-1,1.19-1.31c0.52-0.31,1.14-0.46,1.86-0.46c1.01,0,1.81,0.31,2.39,0.94c0.58,0.63,0.88,1.5,0.88,2.62v0.87h-4.45
	c0.08,0.4,0.25,0.72,0.52,0.95c0.27,0.23,0.62,0.35,1.05,0.35c0.71,0,1.26-0.25,1.66-0.74l1.02,1.21c-0.28,0.39-0.67,0.69-1.19,0.92
	C122.23,38.25,121.68,38.36,121.09,38.36z M120.83,32.63c-0.66,0-1.05,0.43-1.17,1.3h2.26v-0.17c0.01-0.36-0.08-0.64-0.27-0.83
	C121.46,32.73,121.19,32.63,120.83,32.63z M125.51,38.23v-5.63h-1.04v-1.55h1.04v-0.57c0-0.82,0.24-1.45,0.72-1.91
	c0.48-0.45,1.16-0.68,2.03-0.68c0.32,0,0.67,0.05,1.05,0.14l0.01,1.65c-0.14-0.04-0.32-0.06-0.55-0.06c-0.68,0-1.02,0.29-1.02,0.88
	v0.55h1.4v1.55h-1.4v5.63H125.51z M132.55,29.25v1.79h1.18v1.55h-1.18v3.29c0,0.27,0.05,0.46,0.15,0.56
	c0.1,0.11,0.29,0.16,0.58,0.16c0.22,0,0.41-0.01,0.56-0.04v1.6c-0.4,0.13-0.82,0.19-1.26,0.19c-0.77,0-1.34-0.18-1.71-0.54
	c-0.37-0.36-0.55-0.91-0.55-1.65v-3.57h-0.92v-1.55h0.92v-1.79H132.55z M142.05,38.23c-0.08-0.15-0.15-0.36-0.21-0.64
	c-0.41,0.52-0.99,0.78-1.73,0.78c-0.68,0-1.25-0.2-1.73-0.61c-0.47-0.41-0.71-0.92-0.71-1.54c0-0.78,0.29-1.37,0.86-1.77
	c0.58-0.4,1.41-0.6,2.51-0.6h0.69v-0.38c0-0.66-0.29-0.99-0.86-0.99c-0.53,0-0.8,0.26-0.8,0.79h-2.24c0-0.69,0.3-1.26,0.89-1.69
	c0.59-0.43,1.34-0.65,2.26-0.65s1.64,0.22,2.17,0.67c0.53,0.45,0.8,1.06,0.82,1.84v3.18c0.01,0.66,0.11,1.16,0.31,1.51v0.11H142.05z
	 M140.65,36.77c0.28,0,0.51-0.06,0.69-0.18c0.18-0.12,0.32-0.25,0.4-0.41v-1.15h-0.65c-0.78,0-1.17,0.35-1.17,1.05
	c0,0.2,0.07,0.37,0.21,0.49C140.26,36.7,140.44,36.77,140.65,36.77z M147.58,38.23h-2.25v-10.2h2.25V38.23z M152.44,38.36
	c-1.1,0-2-0.33-2.68-0.99c-0.68-0.66-1.02-1.51-1.02-2.57v-0.19c0-0.73,0.14-1.38,0.41-1.95c0.27-0.56,0.67-1,1.19-1.31
	c0.52-0.31,1.14-0.46,1.86-0.46c1.01,0,1.81,0.31,2.39,0.94c0.58,0.63,0.88,1.5,0.88,2.62v0.87h-4.45c0.08,0.4,0.25,0.72,0.52,0.95
	c0.27,0.23,0.62,0.35,1.05,0.35c0.71,0,1.26-0.25,1.66-0.74l1.02,1.21c-0.28,0.39-0.67,0.69-1.19,0.92
	C153.58,38.25,153.03,38.36,152.44,38.36z M152.19,32.63c-0.66,0-1.05,0.43-1.17,1.3h2.26v-0.17c0.01-0.36-0.08-0.64-0.27-0.83
	C152.81,32.73,152.54,32.63,152.19,32.63z M160.72,33.07l-0.74-0.05c-0.7,0-1.16,0.22-1.36,0.66v4.55h-2.24v-7.19h2.1l0.07,0.92
	c0.38-0.7,0.9-1.06,1.57-1.06c0.24,0,0.45,0.03,0.62,0.08L160.72,33.07z M164.46,29.25v1.79h1.18v1.55h-1.18v3.29
	c0,0.27,0.05,0.46,0.15,0.56c0.1,0.11,0.29,0.16,0.58,0.16c0.22,0,0.41-0.01,0.56-0.04v1.6c-0.4,0.13-0.82,0.19-1.26,0.19
	c-0.77,0-1.34-0.18-1.71-0.54c-0.37-0.36-0.55-0.91-0.55-1.65v-3.57h-0.92v-1.55h0.92v-1.79H164.46z M170.29,36.21
	c0-0.19-0.1-0.34-0.3-0.46c-0.2-0.12-0.58-0.23-1.14-0.36c-0.56-0.12-1.02-0.29-1.38-0.49c-0.36-0.2-0.64-0.45-0.83-0.73
	c-0.19-0.29-0.29-0.62-0.29-0.99c0-0.66,0.27-1.2,0.82-1.63c0.54-0.43,1.26-0.64,2.14-0.64c0.95,0,1.71,0.22,2.29,0.64
	c0.58,0.43,0.86,0.99,0.86,1.69h-2.25c0-0.58-0.3-0.86-0.91-0.86c-0.23,0-0.43,0.07-0.59,0.2c-0.16,0.13-0.24,0.29-0.24,0.49
	c0,0.2,0.1,0.36,0.29,0.48c0.19,0.12,0.51,0.23,0.93,0.31c0.43,0.08,0.8,0.18,1.13,0.29c1.08,0.37,1.62,1.04,1.62,2
	c0,0.66-0.29,1.19-0.87,1.6c-0.58,0.41-1.34,0.62-2.26,0.62c-0.62,0-1.16-0.11-1.65-0.33c-0.48-0.22-0.86-0.52-1.13-0.9
	c-0.27-0.38-0.41-0.78-0.41-1.2h2.09c0.01,0.33,0.12,0.57,0.33,0.73c0.21,0.15,0.48,0.23,0.82,0.23c0.31,0,0.53-0.06,0.69-0.19
	C170.21,36.57,170.29,36.41,170.29,36.21z"/>
</svg>
