<?xml version="1.0" encoding="utf-8"?>
<!-- Generator: Adobe Illustrator 24.2.3, SVG Export Plug-In . SVG Version: 6.00 Build 0)  -->
<svg version="1.1" id="Layer_1" xmlns="http://www.w3.org/2000/svg" xmlns:xlink="http://www.w3.org/1999/xlink" x="0px" y="0px"
	 viewBox="0 0 300 600" style="enable-background:new 0 0 300 600;" xml:space="preserve">
<style type="text/css">
	.st0{fill:url(#SVGID_1_);}
</style>
<linearGradient id="SVGID_1_" gradientUnits="userSpaceOnUse" x1="35.4521" y1="257.8235" x2="262.459" y2="257.8235">
	<stop  offset="0" style="stop-color:#18B9FB"/>
	<stop  offset="0.5" style="stop-color:#782EEB"/>
	<stop  offset="1" style="stop-color:#E82D8A"/>
</linearGradient>
<path class="st0" d="M85.74,176.68h-6.4v17.36H74.2v-17.36h-6.28v-3.97h17.83V176.68z M94.15,194.03c-0.18-0.32-0.33-0.8-0.47-1.42
	c-0.91,1.14-2.18,1.71-3.81,1.71c-1.49,0-2.76-0.45-3.81-1.36c-1.04-0.9-1.57-2.04-1.57-3.41c0-1.72,0.63-3.02,1.9-3.9
	s3.12-1.32,5.54-1.32h1.52v-0.84c0-1.46-0.63-2.19-1.89-2.19c-1.17,0-1.76,0.58-1.76,1.74h-4.94c0-1.53,0.65-2.78,1.96-3.73
	c1.3-0.96,2.97-1.43,4.99-1.43s3.62,0.49,4.79,1.48c1.17,0.99,1.77,2.34,1.8,4.06v7.02c0.02,1.46,0.24,2.57,0.67,3.34v0.25H94.15z
	 M91.06,190.81c0.62,0,1.12-0.13,1.53-0.4s0.7-0.56,0.87-0.89v-2.53h-1.44c-1.72,0-2.58,0.77-2.58,2.31c0,0.45,0.15,0.81,0.45,1.09
	C90.2,190.67,90.59,190.81,91.06,190.81z M107.51,188.13l-1.39,1.39v4.51h-4.94v-22.51h4.94v11.95l0.5-0.66l3.72-4.63h5.92
	l-5.55,6.52l5.92,9.33h-5.65L107.51,188.13z M124.92,194.33c-2.43,0-4.4-0.72-5.9-2.18c-1.5-1.45-2.26-3.34-2.26-5.66v-0.41
	c0-1.62,0.3-3.05,0.9-4.29c0.6-1.24,1.48-2.2,2.63-2.88c1.15-0.68,2.52-1.02,4.1-1.02c2.23,0,3.98,0.69,5.27,2.07
	c1.29,1.38,1.93,3.31,1.93,5.78v1.92h-9.81c0.18,0.89,0.56,1.59,1.16,2.09s1.37,0.76,2.31,0.76c1.56,0,2.78-0.55,3.66-1.64
	l2.26,2.67c-0.62,0.85-1.49,1.53-2.61,2.03C127.44,194.07,126.22,194.33,124.92,194.33z M124.37,181.7c-1.45,0-2.3,0.96-2.58,2.87
	h4.98v-0.38c0.02-0.79-0.18-1.4-0.6-1.84S125.15,181.7,124.37,181.7z M149.99,194.03c-0.18-0.32-0.33-0.8-0.47-1.42
	c-0.91,1.14-2.18,1.71-3.81,1.71c-1.49,0-2.76-0.45-3.81-1.36c-1.04-0.9-1.57-2.04-1.57-3.41c0-1.72,0.63-3.02,1.9-3.9
	s3.12-1.32,5.54-1.32h1.52v-0.84c0-1.46-0.63-2.19-1.89-2.19c-1.17,0-1.76,0.58-1.76,1.74h-4.94c0-1.53,0.65-2.78,1.96-3.73
	c1.3-0.96,2.97-1.43,4.99-1.43s3.62,0.49,4.79,1.48s1.77,2.34,1.8,4.06v7.02c0.02,1.46,0.24,2.57,0.67,3.34v0.25H149.99z
	 M146.9,190.81c0.62,0,1.12-0.13,1.53-0.4s0.7-0.56,0.87-0.89v-2.53h-1.44c-1.72,0-2.58,0.77-2.58,2.31c0,0.45,0.15,0.81,0.45,1.09
	C146.04,190.67,146.43,190.81,146.9,190.81z M163.68,190.52c0.69,0,1.23-0.19,1.61-0.56c0.38-0.38,0.57-0.9,0.56-1.57h4.63
	c0,1.74-0.62,3.16-1.87,4.28c-1.25,1.11-2.85,1.67-4.81,1.67c-2.3,0-4.12-0.72-5.45-2.17s-1.99-3.45-1.99-6.01v-0.21
	c0-1.6,0.29-3.01,0.89-4.24c0.59-1.23,1.44-2.17,2.56-2.83c1.11-0.66,2.43-0.99,3.96-0.99c2.06,0,3.7,0.57,4.91,1.71
	s1.82,2.69,1.82,4.64h-4.63c0-0.82-0.2-1.45-0.6-1.89s-0.94-0.66-1.61-0.66c-1.28,0-2.03,0.82-2.24,2.45
	c-0.07,0.52-0.1,1.23-0.1,2.14c0,1.59,0.19,2.7,0.57,3.31S162.85,190.52,163.68,190.52z M178.32,174.24v3.94h2.61v3.43h-2.61v7.25
	c0,0.6,0.11,1.01,0.32,1.25s0.64,0.35,1.27,0.35c0.49,0,0.9-0.03,1.23-0.09v3.53c-0.89,0.28-1.82,0.42-2.78,0.42
	c-1.7,0-2.95-0.4-3.76-1.2s-1.22-2.02-1.22-3.65v-7.87h-2.02v-3.43h2.02v-3.94H178.32z M182.83,174.1c0-0.7,0.25-1.28,0.76-1.73
	s1.17-0.67,1.98-0.67s1.47,0.22,1.98,0.67s0.76,1.03,0.76,1.73s-0.25,1.28-0.76,1.73s-1.17,0.67-1.98,0.67s-1.47-0.22-1.98-0.67
	S182.83,174.8,182.83,174.1z M188.07,194.03h-4.95v-15.85h4.95V194.03z M190.49,185.96c0-1.58,0.31-2.99,0.92-4.23
	s1.5-2.19,2.65-2.85s2.5-1,4.06-1c2.37,0,4.24,0.74,5.61,2.21s2.05,3.47,2.05,6v0.18c0,2.47-0.69,4.43-2.06,5.88
	c-1.37,1.45-3.23,2.18-5.57,2.18c-2.26,0-4.07-0.68-5.43-2.03c-1.37-1.35-2.1-3.19-2.21-5.5L190.49,185.96z M195.43,186.27
	c0,1.46,0.23,2.54,0.69,3.22s1.14,1.03,2.04,1.03c1.76,0,2.66-1.35,2.7-4.06v-0.5c0-2.84-0.91-4.26-2.72-4.26
	c-1.65,0-2.54,1.23-2.68,3.68L195.43,186.27z M212.49,178.18l0.16,1.86c1.09-1.44,2.6-2.15,4.53-2.15c1.65,0,2.88,0.49,3.7,1.48
	c0.81,0.99,1.24,2.47,1.27,4.45v10.21h-4.95v-10c0-0.8-0.16-1.39-0.48-1.76s-0.91-0.56-1.76-0.56c-0.97,0-1.68,0.38-2.15,1.14v11.19
	h-4.94v-15.85H212.49z M225,191.82c0-0.72,0.26-1.32,0.78-1.78c0.52-0.46,1.17-0.7,1.96-0.7s1.43,0.23,1.96,0.7
	c0.52,0.46,0.78,1.06,0.78,1.78s-0.26,1.32-0.78,1.78c-0.52,0.46-1.17,0.7-1.96,0.7s-1.43-0.23-1.96-0.7
	C225.26,193.14,225,192.54,225,191.82z M229.78,187.28h-4l-0.63-14.58h5.26L229.78,187.28z M51.03,208.71h5.13v14.63
	c0,1.36-0.31,2.57-0.95,3.63c-0.63,1.06-1.51,1.89-2.64,2.48c-1.13,0.59-2.38,0.88-3.77,0.88c-2.32,0-4.13-0.59-5.42-1.76
	s-1.93-2.83-1.93-4.98h5.16c0,0.98,0.17,1.68,0.51,2.12c0.34,0.44,0.9,0.66,1.69,0.66c0.71,0,1.26-0.27,1.65-0.8
	c0.38-0.53,0.58-1.28,0.58-2.23V208.71z M68.61,228.32c-1.04,1.34-2.46,2.01-4.23,2.01c-1.74,0-3.05-0.51-3.95-1.52
	c-0.89-1.01-1.34-2.46-1.34-4.36v-10.27h4.94v10.3c0,1.36,0.66,2.04,1.98,2.04c1.13,0,1.94-0.41,2.42-1.22v-11.12h4.97v15.85h-4.63
	L68.61,228.32z M84.39,225.58c0-0.42-0.22-0.76-0.66-1.01s-1.27-0.52-2.5-0.79s-2.25-0.63-3.05-1.08c-0.8-0.44-1.41-0.98-1.83-1.62
	s-0.63-1.36-0.63-2.18c0-1.46,0.6-2.65,1.8-3.6s2.77-1.41,4.72-1.41c2.09,0,3.77,0.47,5.04,1.42s1.9,2.19,1.9,3.74h-4.95
	c0-1.27-0.67-1.9-2.01-1.9c-0.52,0-0.95,0.14-1.3,0.43c-0.35,0.29-0.53,0.65-0.53,1.08c0,0.44,0.21,0.8,0.64,1.07
	s1.12,0.5,2.06,0.67c0.94,0.18,1.77,0.39,2.48,0.63c2.38,0.82,3.57,2.29,3.57,4.41c0,1.45-0.64,2.62-1.93,3.53
	c-1.29,0.91-2.95,1.36-4.99,1.36c-1.36,0-2.57-0.24-3.63-0.73s-1.89-1.15-2.49-1.99s-0.89-1.72-0.89-2.65h4.61
	c0.02,0.73,0.26,1.27,0.73,1.6c0.47,0.34,1.07,0.5,1.8,0.5c0.67,0,1.18-0.14,1.52-0.41C84.22,226.38,84.39,226.02,84.39,225.58z
	 M97.2,210.24v3.94h2.61v3.43H97.2v7.25c0,0.6,0.11,1.01,0.32,1.25s0.64,0.35,1.27,0.35c0.49,0,0.9-0.03,1.23-0.09v3.53
	c-0.89,0.28-1.82,0.42-2.78,0.42c-1.7,0-2.95-0.4-3.76-1.2s-1.22-2.02-1.22-3.65v-7.87h-2.02v-3.43h2.02v-3.94H97.2z M118.15,230.03
	c-0.18-0.32-0.33-0.8-0.47-1.42c-0.91,1.14-2.18,1.71-3.81,1.71c-1.49,0-2.76-0.45-3.81-1.36c-1.04-0.9-1.57-2.04-1.57-3.41
	c0-1.72,0.63-3.02,1.9-3.9s3.12-1.32,5.54-1.32h1.52v-0.84c0-1.46-0.63-2.19-1.89-2.19c-1.17,0-1.76,0.58-1.76,1.74h-4.94
	c0-1.53,0.65-2.78,1.96-3.73c1.3-0.96,2.97-1.43,4.99-1.43s3.62,0.49,4.79,1.48s1.77,2.34,1.8,4.06v7.02
	c0.02,1.46,0.24,2.57,0.67,3.34v0.25H118.15z M115.06,226.81c0.62,0,1.12-0.13,1.53-0.4s0.7-0.56,0.87-0.89v-2.53h-1.44
	c-1.72,0-2.58,0.77-2.58,2.31c0,0.45,0.15,0.81,0.45,1.09C114.21,226.67,114.59,226.81,115.06,226.81z M138.37,210.24v3.94h2.61
	v3.43h-2.61v7.25c0,0.6,0.11,1.01,0.32,1.25c0.21,0.23,0.64,0.35,1.27,0.35c0.49,0,0.9-0.03,1.23-0.09v3.53
	c-0.89,0.28-1.82,0.42-2.78,0.42c-1.7,0-2.95-0.4-3.76-1.2s-1.22-2.02-1.22-3.65v-7.87h-2.02v-3.43h2.02v-3.94H138.37z
	 M151.84,230.03c-0.18-0.32-0.33-0.8-0.47-1.42c-0.91,1.14-2.18,1.71-3.81,1.71c-1.49,0-2.76-0.45-3.81-1.36
	c-1.04-0.9-1.57-2.04-1.57-3.41c0-1.72,0.63-3.02,1.9-3.9s3.12-1.32,5.54-1.32h1.52v-0.84c0-1.46-0.63-2.19-1.89-2.19
	c-1.17,0-1.76,0.58-1.76,1.74h-4.94c0-1.53,0.65-2.78,1.96-3.73c1.3-0.96,2.97-1.43,4.99-1.43s3.62,0.49,4.79,1.48
	s1.77,2.34,1.8,4.06v7.02c0.02,1.46,0.24,2.57,0.67,3.34v0.25H151.84z M148.75,226.81c0.62,0,1.12-0.13,1.53-0.4s0.7-0.56,0.87-0.89
	v-2.53h-1.44c-1.72,0-2.58,0.77-2.58,2.31c0,0.45,0.15,0.81,0.45,1.09C147.9,226.67,148.28,226.81,148.75,226.81z M173.55,222.23
	c0,2.46-0.55,4.43-1.66,5.9c-1.11,1.47-2.6,2.21-4.49,2.21c-1.46,0-2.65-0.53-3.59-1.6v7.4h-4.94v-21.94h4.61l0.15,1.46
	c0.95-1.17,2.19-1.76,3.74-1.76c1.95,0,3.47,0.72,4.56,2.16c1.08,1.44,1.63,3.42,1.63,5.94V222.23z M168.61,221.92
	c0-2.81-0.82-4.22-2.46-4.22c-1.17,0-1.95,0.42-2.34,1.26v6.24c0.43,0.88,1.22,1.32,2.37,1.32c1.57,0,2.38-1.36,2.43-4.07V221.92z
	 M192.12,230.03c-0.18-0.32-0.33-0.8-0.47-1.42c-0.91,1.14-2.18,1.71-3.81,1.71c-1.49,0-2.76-0.45-3.81-1.36
	c-1.04-0.9-1.57-2.04-1.57-3.41c0-1.72,0.63-3.02,1.9-3.9s3.12-1.32,5.54-1.32h1.52v-0.84c0-1.46-0.63-2.19-1.89-2.19
	c-1.17,0-1.76,0.58-1.76,1.74h-4.94c0-1.53,0.65-2.78,1.96-3.73c1.3-0.96,2.97-1.43,4.99-1.43s3.62,0.49,4.79,1.48
	s1.77,2.34,1.8,4.06v7.02c0.02,1.46,0.24,2.57,0.67,3.34v0.25H192.12z M189.03,226.81c0.62,0,1.12-0.13,1.53-0.4s0.7-0.56,0.87-0.89
	v-2.53H190c-1.72,0-2.58,0.77-2.58,2.31c0,0.45,0.15,0.81,0.45,1.09C188.18,226.67,188.57,226.81,189.03,226.81z M212.81,223.53
	l1.6-9.35h4.73l-3.74,15.85h-4.17l-2.62-9.4l-2.64,9.4h-4.17l-3.74-15.85h4.73l1.57,9.57l2.52-9.57h3.44L212.81,223.53z
	 M229.83,230.03c-0.18-0.32-0.33-0.8-0.47-1.42c-0.91,1.14-2.18,1.71-3.81,1.71c-1.49,0-2.76-0.45-3.81-1.36
	c-1.04-0.9-1.57-2.04-1.57-3.41c0-1.72,0.63-3.02,1.9-3.9s3.12-1.32,5.54-1.32h1.52v-0.84c0-1.46-0.63-2.19-1.89-2.19
	c-1.17,0-1.76,0.58-1.76,1.74h-4.94c0-1.53,0.65-2.78,1.96-3.73c1.3-0.96,2.97-1.43,4.99-1.43s3.62,0.49,4.79,1.48
	s1.77,2.34,1.8,4.06v7.02c0.02,1.46,0.24,2.57,0.67,3.34v0.25H229.83z M226.74,226.81c0.62,0,1.12-0.13,1.53-0.4s0.7-0.56,0.87-0.89
	v-2.53h-1.44c-1.72,0-2.58,0.77-2.58,2.31c0,0.45,0.15,0.81,0.45,1.09C225.88,226.67,226.27,226.81,226.74,226.81z M242.94,223.12
	l2.64-8.94h5.29l-6.46,18.5l-0.28,0.67c-0.92,2.05-2.54,3.08-4.86,3.08c-0.64,0-1.32-0.1-2.04-0.29v-3.52h0.64
	c0.69,0,1.22-0.1,1.59-0.3c0.37-0.2,0.64-0.56,0.81-1.08l0.4-1.06l-5.51-16.01h5.27L242.94,223.12z M37.75,266.03v-12.42h-2.3v-3.43
	h2.3v-1.26c0-1.81,0.53-3.21,1.6-4.2s2.56-1.49,4.48-1.49c0.7,0,1.47,0.1,2.31,0.31l0.01,3.63c-0.3-0.09-0.71-0.13-1.22-0.13
	c-1.49,0-2.24,0.64-2.24,1.93v1.22h3.09v3.43H42.7v12.42H37.75z M57.12,254.65l-1.63-0.12c-1.55,0-2.55,0.49-2.99,1.47v10.03h-4.94
	v-15.85h4.63l0.16,2.04c0.83-1.55,1.99-2.33,3.47-2.33c0.53,0,0.99,0.06,1.38,0.18L57.12,254.65z M57.75,257.96
	c0-1.58,0.31-2.99,0.92-4.23s1.5-2.19,2.65-2.85s2.5-1,4.06-1c2.37,0,4.24,0.74,5.61,2.21s2.05,3.47,2.05,6v0.18
	c0,2.47-0.69,4.43-2.06,5.88c-1.37,1.45-3.23,2.18-5.57,2.18c-2.26,0-4.07-0.68-5.43-2.03c-1.37-1.35-2.1-3.19-2.21-5.5
	L57.75,257.96z M62.68,258.27c0,1.46,0.23,2.54,0.69,3.22s1.14,1.03,2.04,1.03c1.76,0,2.66-1.35,2.7-4.06v-0.5
	c0-2.84-0.91-4.26-2.72-4.26c-1.65,0-2.54,1.23-2.68,3.68L62.68,258.27z M79.88,250.18l0.16,1.86c1.12-1.44,2.63-2.15,4.53-2.15
	c2,0,3.35,0.8,4.06,2.39c1.07-1.59,2.63-2.39,4.66-2.39c3.21,0,4.86,1.94,4.95,5.83v10.31h-4.95v-10c0-0.81-0.14-1.4-0.41-1.77
	s-0.77-0.56-1.49-0.56c-0.98,0-1.7,0.43-2.18,1.3l0.01,0.21v10.83h-4.95v-9.98c0-0.83-0.13-1.43-0.4-1.8s-0.77-0.56-1.51-0.56
	c-0.95,0-1.67,0.43-2.17,1.3v11.03h-4.94v-15.85H79.88z M117.45,266.03c-0.18-0.32-0.33-0.8-0.47-1.42
	c-0.91,1.14-2.18,1.71-3.81,1.71c-1.49,0-2.76-0.45-3.81-1.36c-1.04-0.9-1.57-2.04-1.57-3.41c0-1.72,0.63-3.02,1.9-3.9
	s3.12-1.32,5.54-1.32h1.52v-0.84c0-1.46-0.63-2.19-1.89-2.19c-1.17,0-1.76,0.58-1.76,1.74h-4.94c0-1.53,0.65-2.78,1.96-3.73
	c1.3-0.96,2.97-1.43,4.99-1.43s3.62,0.49,4.79,1.48s1.77,2.34,1.8,4.06v7.02c0.02,1.46,0.24,2.57,0.67,3.34v0.25H117.45z
	 M114.36,262.81c0.62,0,1.12-0.13,1.53-0.4s0.7-0.56,0.87-0.89v-2.53h-1.44c-1.72,0-2.58,0.77-2.58,2.31c0,0.45,0.15,0.81,0.45,1.09
	C113.51,262.67,113.89,262.81,114.36,262.81z M131.3,257.99c0-2.51,0.54-4.49,1.63-5.93s2.6-2.17,4.54-2.17
	c1.42,0,2.61,0.56,3.57,1.67v-8.03h4.95v22.5h-4.44l-0.25-1.7c-1.02,1.33-2.3,1.99-3.87,1.99c-1.88,0-3.38-0.72-4.48-2.17
	S131.3,260.66,131.3,257.99z M136.23,258.3c0,2.81,0.82,4.22,2.46,4.22c1.09,0,1.88-0.46,2.34-1.38v-6.04
	c-0.45-0.94-1.22-1.41-2.31-1.41c-1.52,0-2.35,1.23-2.48,3.69L136.23,258.3z M156.46,266.33c-2.43,0-4.4-0.72-5.9-2.18
	c-1.5-1.45-2.26-3.34-2.26-5.66v-0.41c0-1.62,0.3-3.05,0.9-4.29c0.6-1.24,1.48-2.2,2.63-2.88c1.15-0.68,2.52-1.02,4.1-1.02
	c2.23,0,3.98,0.69,5.27,2.07c1.29,1.38,1.93,3.31,1.93,5.78v1.92h-9.81c0.18,0.89,0.56,1.59,1.16,2.09s1.37,0.76,2.31,0.76
	c1.56,0,2.78-0.55,3.66-1.64l2.26,2.67c-0.62,0.85-1.49,1.53-2.61,2.03C158.97,266.08,157.76,266.33,156.46,266.33z M155.91,253.7
	c-1.45,0-2.3,0.96-2.58,2.87h4.98v-0.38c0.02-0.79-0.18-1.4-0.6-1.84S156.69,253.7,155.91,253.7z M164.5,257.99
	c0-2.51,0.54-4.49,1.63-5.93s2.6-2.17,4.54-2.17c1.42,0,2.61,0.56,3.57,1.67v-8.03h4.95v22.5h-4.44l-0.25-1.7
	c-1.02,1.33-2.3,1.99-3.87,1.99c-1.88,0-3.38-0.72-4.48-2.17S164.5,260.66,164.5,257.99z M169.44,258.3c0,2.81,0.82,4.22,2.46,4.22
	c1.09,0,1.88-0.46,2.34-1.38v-6.04c-0.45-0.94-1.22-1.41-2.31-1.41c-1.52,0-2.35,1.23-2.48,3.69L169.44,258.3z M181.97,246.1
	c0-0.7,0.25-1.28,0.76-1.73s1.17-0.67,1.98-0.67s1.47,0.22,1.98,0.67s0.76,1.03,0.76,1.73s-0.25,1.28-0.76,1.73
	s-1.17,0.67-1.98,0.67s-1.47-0.22-1.98-0.67S181.97,246.8,181.97,246.1z M187.21,266.03h-4.95v-15.85h4.95V266.03z M196.95,262.52
	c0.69,0,1.23-0.19,1.61-0.56c0.38-0.38,0.57-0.9,0.56-1.57h4.63c0,1.74-0.62,3.16-1.87,4.28c-1.25,1.11-2.85,1.67-4.81,1.67
	c-2.3,0-4.12-0.72-5.45-2.17s-1.99-3.45-1.99-6.01v-0.21c0-1.6,0.29-3.02,0.89-4.24c0.59-1.23,1.44-2.17,2.56-2.83
	c1.11-0.66,2.43-0.99,3.96-0.99c2.06,0,3.7,0.57,4.91,1.71s1.82,2.69,1.82,4.64h-4.63c0-0.82-0.2-1.45-0.6-1.89
	s-0.94-0.66-1.61-0.66c-1.28,0-2.03,0.82-2.24,2.45c-0.07,0.52-0.1,1.23-0.1,2.14c0,1.59,0.19,2.7,0.57,3.31
	S196.12,262.52,196.95,262.52z M214.76,266.03c-0.18-0.32-0.33-0.8-0.47-1.42c-0.91,1.14-2.18,1.71-3.81,1.71
	c-1.49,0-2.76-0.45-3.81-1.36c-1.04-0.9-1.57-2.04-1.57-3.41c0-1.72,0.63-3.02,1.9-3.9s3.12-1.32,5.54-1.32h1.52v-0.84
	c0-1.46-0.63-2.19-1.89-2.19c-1.17,0-1.76,0.58-1.76,1.74h-4.94c0-1.53,0.65-2.78,1.96-3.73c1.3-0.96,2.97-1.43,4.99-1.43
	s3.62,0.49,4.79,1.48s1.77,2.34,1.8,4.06v7.02c0.02,1.46,0.24,2.57,0.67,3.34v0.25H214.76z M211.67,262.81
	c0.62,0,1.12-0.13,1.53-0.4s0.7-0.56,0.87-0.89v-2.53h-1.44c-1.72,0-2.58,0.77-2.58,2.31c0,0.45,0.15,0.81,0.45,1.09
	C210.82,262.67,211.2,262.81,211.67,262.81z M227.51,246.24v3.94h2.61v3.43h-2.61v7.25c0,0.6,0.11,1.01,0.32,1.25
	s0.64,0.35,1.27,0.35c0.49,0,0.9-0.03,1.23-0.09v3.53c-0.89,0.28-1.82,0.42-2.78,0.42c-1.7,0-2.95-0.4-3.76-1.2
	s-1.22-2.02-1.22-3.65v-7.87h-2.02v-3.43h2.02v-3.94H227.51z M239.72,266.33c-2.43,0-4.4-0.72-5.9-2.18
	c-1.5-1.45-2.26-3.34-2.26-5.66v-0.41c0-1.62,0.3-3.05,0.9-4.29c0.6-1.24,1.48-2.2,2.63-2.88c1.15-0.68,2.52-1.02,4.1-1.02
	c2.23,0,3.98,0.69,5.27,2.07c1.29,1.38,1.93,3.31,1.93,5.78v1.92h-9.81c0.18,0.89,0.56,1.59,1.16,2.09s1.37,0.76,2.31,0.76
	c1.56,0,2.78-0.55,3.66-1.64l2.26,2.67c-0.62,0.85-1.49,1.53-2.61,2.03C242.24,266.08,241.02,266.33,239.72,266.33z M239.17,253.7
	c-1.45,0-2.3,0.96-2.58,2.87h4.98v-0.38c0.02-0.79-0.18-1.4-0.6-1.84S239.95,253.7,239.17,253.7z M247.77,257.99
	c0-2.51,0.54-4.49,1.63-5.93s2.6-2.17,4.54-2.17c1.42,0,2.61,0.56,3.57,1.67v-8.03h4.95v22.5h-4.44l-0.25-1.7
	c-1.02,1.33-2.3,1.99-3.87,1.99c-1.88,0-3.38-0.72-4.48-2.17S247.77,260.66,247.77,257.99z M252.7,258.3c0,2.81,0.82,4.22,2.46,4.22
	c1.09,0,1.88-0.46,2.34-1.38v-6.04c-0.45-0.94-1.22-1.41-2.31-1.41c-1.52,0-2.35,1.23-2.48,3.69L252.7,258.3z M63.45,282.1
	c0-0.7,0.25-1.28,0.76-1.73s1.17-0.67,1.98-0.67s1.47,0.22,1.98,0.67s0.76,1.03,0.76,1.73s-0.25,1.28-0.76,1.73
	s-1.17,0.67-1.98,0.67s-1.47-0.22-1.98-0.67S63.45,282.8,63.45,282.1z M68.69,302.03h-4.95v-15.85h4.95V302.03z M71.11,293.99
	c0-2.51,0.54-4.49,1.63-5.93s2.6-2.17,4.54-2.17c1.42,0,2.61,0.56,3.57,1.67v-8.03h4.95v22.5h-4.44l-0.25-1.7
	c-1.02,1.33-2.3,1.99-3.87,1.99c-1.88,0-3.38-0.72-4.48-2.17S71.11,296.66,71.11,293.99z M76.04,294.3c0,2.81,0.82,4.22,2.46,4.22
	c1.09,0,1.88-0.46,2.34-1.38v-6.04c-0.45-0.94-1.22-1.41-2.31-1.41c-1.52,0-2.35,1.23-2.48,3.69L76.04,294.3z M96.27,302.33
	c-2.43,0-4.4-0.72-5.9-2.18c-1.5-1.45-2.26-3.34-2.26-5.66v-0.41c0-1.62,0.3-3.05,0.9-4.29c0.6-1.24,1.48-2.2,2.63-2.88
	c1.15-0.68,2.52-1.02,4.1-1.02c2.23,0,3.98,0.69,5.27,2.07c1.29,1.38,1.93,3.31,1.93,5.78v1.92h-9.81c0.18,0.89,0.56,1.59,1.16,2.09
	s1.37,0.76,2.31,0.76c1.56,0,2.78-0.55,3.66-1.64l2.26,2.67c-0.62,0.85-1.49,1.53-2.61,2.03C98.78,302.08,97.57,302.33,96.27,302.33
	z M95.72,289.7c-1.45,0-2.3,0.96-2.58,2.87h4.98v-0.38c0.02-0.79-0.18-1.4-0.6-1.84C97.1,289.92,96.5,289.7,95.72,289.7z
	 M109.47,286.18l0.16,1.86c1.09-1.44,2.6-2.15,4.53-2.15c1.65,0,2.88,0.49,3.7,1.48c0.81,0.99,1.24,2.47,1.27,4.45v10.21h-4.95v-10
	c0-0.8-0.16-1.39-0.48-1.76s-0.91-0.56-1.76-0.56c-0.97,0-1.68,0.38-2.15,1.14v11.19h-4.94v-15.85H109.47z M127.61,282.24v3.94h2.61
	v3.43h-2.61v7.25c0,0.6,0.11,1.01,0.32,1.25s0.64,0.35,1.27,0.35c0.49,0,0.9-0.03,1.23-0.09v3.53c-0.89,0.28-1.82,0.42-2.78,0.42
	c-1.7,0-2.95-0.4-3.76-1.2s-1.22-2.02-1.22-3.65v-7.87h-2.02v-3.43h2.02v-3.94H127.61z M132.12,282.1c0-0.7,0.25-1.28,0.76-1.73
	s1.17-0.67,1.98-0.67s1.47,0.22,1.98,0.67s0.76,1.03,0.76,1.73s-0.25,1.28-0.76,1.73s-1.17,0.67-1.98,0.67s-1.47-0.22-1.98-0.67
	S132.12,282.8,132.12,282.1z M137.36,302.03h-4.95v-15.85h4.95V302.03z M146.15,282.24v3.94h2.61v3.43h-2.61v7.25
	c0,0.6,0.11,1.01,0.32,1.25c0.21,0.23,0.64,0.35,1.27,0.35c0.49,0,0.9-0.03,1.23-0.09v3.53c-0.89,0.28-1.82,0.42-2.78,0.42
	c-1.7,0-2.95-0.4-3.76-1.2s-1.22-2.02-1.22-3.65v-7.87h-2.02v-3.43h2.02v-3.94H146.15z M157.03,295.12l2.64-8.94h5.29l-6.46,18.5
	l-0.28,0.67c-0.92,2.05-2.54,3.08-4.86,3.08c-0.64,0-1.32-0.1-2.04-0.29v-3.52h0.64c0.69,0,1.22-0.1,1.59-0.3
	c0.37-0.2,0.64-0.56,0.81-1.08l0.4-1.06l-5.51-16.01h5.27L157.03,295.12z M179.46,282.24v3.94h2.61v3.43h-2.61v7.25
	c0,0.6,0.11,1.01,0.32,1.25s0.64,0.35,1.27,0.35c0.49,0,0.9-0.03,1.23-0.09v3.53c-0.89,0.28-1.82,0.42-2.78,0.42
	c-1.7,0-2.95-0.4-3.76-1.2s-1.22-2.02-1.22-3.65v-7.87h-2.02v-3.43h2.02v-3.94H179.46z M188.84,287.88c1.05-1.33,2.4-1.99,4.04-1.99
	c1.75,0,3.07,0.52,3.96,1.55s1.34,2.56,1.36,4.58v10h-4.95v-9.89c0-0.84-0.17-1.46-0.51-1.85c-0.34-0.4-0.92-0.59-1.74-0.59
	c-1.02,0-1.73,0.32-2.15,0.97v11.37h-4.94v-22.5h4.94V287.88z M208.61,302.33c-2.43,0-4.4-0.72-5.9-2.18
	c-1.5-1.45-2.26-3.34-2.26-5.66v-0.41c0-1.62,0.3-3.05,0.9-4.29c0.6-1.24,1.48-2.2,2.63-2.88c1.15-0.68,2.52-1.02,4.1-1.02
	c2.23,0,3.98,0.69,5.27,2.07c1.29,1.38,1.93,3.31,1.93,5.78v1.92h-9.81c0.18,0.89,0.56,1.59,1.16,2.09s1.37,0.76,2.31,0.76
	c1.56,0,2.78-0.55,3.66-1.64l2.26,2.67c-0.62,0.85-1.49,1.53-2.61,2.03C211.12,302.08,209.91,302.33,208.61,302.33z M208.05,289.7
	c-1.45,0-2.3,0.96-2.58,2.87h4.98v-0.38c0.02-0.79-0.18-1.4-0.6-1.84S208.84,289.7,208.05,289.7z M218.37,302.03v-12.42h-2.3v-3.43
	h2.3v-1.26c0-1.81,0.53-3.21,1.6-4.2s2.56-1.49,4.48-1.49c0.7,0,1.47,0.1,2.31,0.31l0.01,3.63c-0.3-0.09-0.71-0.13-1.22-0.13
	c-1.49,0-2.24,0.64-2.24,1.93v1.22h3.09v3.43h-3.09v12.42H218.37z M233.89,282.24v3.94h2.61v3.43h-2.61v7.25
	c0,0.6,0.11,1.01,0.32,1.25s0.64,0.35,1.27,0.35c0.49,0,0.9-0.03,1.23-0.09v3.53c-0.89,0.28-1.82,0.42-2.78,0.42
	c-1.7,0-2.95-0.4-3.76-1.2s-1.22-2.02-1.22-3.65v-7.87h-2.02v-3.43h2.02v-3.94H233.89z M94.01,333.58c0-0.42-0.22-0.76-0.66-1.01
	s-1.27-0.52-2.5-0.79s-2.25-0.63-3.05-1.08c-0.8-0.44-1.41-0.98-1.83-1.62s-0.63-1.36-0.63-2.18c0-1.46,0.6-2.65,1.8-3.6
	c1.2-0.94,2.77-1.41,4.72-1.41c2.09,0,3.77,0.47,5.04,1.42s1.9,2.19,1.9,3.74h-4.95c0-1.27-0.67-1.9-2.01-1.9
	c-0.52,0-0.95,0.14-1.3,0.43c-0.35,0.29-0.53,0.65-0.53,1.08c0,0.44,0.21,0.8,0.64,1.07s1.12,0.5,2.06,0.67
	c0.94,0.18,1.77,0.39,2.48,0.63c2.38,0.82,3.57,2.29,3.57,4.41c0,1.45-0.64,2.62-1.93,3.53c-1.29,0.91-2.95,1.36-4.99,1.36
	c-1.36,0-2.57-0.24-3.63-0.73s-1.89-1.15-2.49-1.99s-0.89-1.72-0.89-2.65h4.61c0.02,0.73,0.26,1.27,0.73,1.6
	c0.47,0.34,1.07,0.5,1.8,0.5c0.67,0,1.18-0.14,1.52-0.41C93.84,334.38,94.01,334.02,94.01,333.58z M115.79,330.23
	c0,2.46-0.55,4.43-1.66,5.9c-1.11,1.47-2.6,2.21-4.49,2.21c-1.46,0-2.65-0.53-3.59-1.6v7.4h-4.94v-21.94h4.61l0.15,1.46
	c0.95-1.17,2.19-1.76,3.74-1.76c1.95,0,3.47,0.72,4.56,2.16c1.08,1.44,1.63,3.42,1.63,5.94V330.23z M110.85,329.92
	c0-2.81-0.82-4.22-2.46-4.22c-1.17,0-1.95,0.42-2.34,1.26v6.24c0.43,0.88,1.22,1.32,2.37,1.32c1.57,0,2.38-1.36,2.43-4.07V329.92z
	 M125.63,338.33c-2.43,0-4.4-0.72-5.9-2.18c-1.5-1.45-2.26-3.34-2.26-5.66v-0.41c0-1.62,0.3-3.05,0.9-4.29
	c0.6-1.24,1.48-2.2,2.63-2.88c1.15-0.68,2.52-1.02,4.1-1.02c2.23,0,3.98,0.69,5.27,2.07c1.29,1.38,1.93,3.31,1.93,5.78v1.92h-9.81
	c0.18,0.89,0.56,1.59,1.16,2.09s1.37,0.76,2.31,0.76c1.56,0,2.78-0.55,3.66-1.64l2.26,2.67c-0.62,0.85-1.49,1.53-2.61,2.03
	C128.15,338.08,126.93,338.33,125.63,338.33z M125.08,325.7c-1.45,0-2.3,0.96-2.58,2.87h4.98v-0.38c0.02-0.79-0.18-1.4-0.6-1.84
	S125.86,325.7,125.08,325.7z M141,334.52c0.69,0,1.23-0.19,1.61-0.56c0.38-0.38,0.57-0.9,0.56-1.57h4.63c0,1.74-0.62,3.16-1.87,4.28
	c-1.25,1.11-2.85,1.67-4.81,1.67c-2.3,0-4.12-0.72-5.45-2.17s-1.99-3.45-1.99-6.01v-0.21c0-1.6,0.29-3.01,0.89-4.24
	c0.59-1.23,1.44-2.17,2.56-2.83c1.11-0.66,2.43-0.99,3.96-0.99c2.06,0,3.7,0.57,4.91,1.71s1.82,2.69,1.82,4.64h-4.63
	c0-0.82-0.2-1.45-0.6-1.89s-0.94-0.66-1.61-0.66c-1.28,0-2.03,0.82-2.24,2.45c-0.07,0.52-0.1,1.23-0.1,2.14
	c0,1.59,0.19,2.7,0.57,3.31S140.17,334.52,141,334.52z M149.85,318.1c0-0.7,0.25-1.28,0.76-1.73s1.17-0.67,1.98-0.67
	s1.47,0.22,1.98,0.67s0.76,1.03,0.76,1.73s-0.25,1.28-0.76,1.73s-1.17,0.67-1.98,0.67s-1.47-0.22-1.98-0.67
	S149.85,318.8,149.85,318.1z M155.09,338.03h-4.95v-15.85h4.95V338.03z M167.06,338.03c-0.18-0.32-0.33-0.8-0.47-1.42
	c-0.91,1.14-2.18,1.71-3.81,1.71c-1.49,0-2.76-0.45-3.81-1.36c-1.04-0.9-1.57-2.04-1.57-3.41c0-1.72,0.63-3.02,1.9-3.9
	s3.12-1.32,5.54-1.32h1.52v-0.84c0-1.46-0.63-2.19-1.89-2.19c-1.17,0-1.76,0.58-1.76,1.74h-4.94c0-1.53,0.65-2.78,1.96-3.73
	c1.3-0.96,2.97-1.43,4.99-1.43s3.62,0.49,4.79,1.48s1.77,2.34,1.8,4.06v7.02c0.02,1.46,0.24,2.57,0.67,3.34v0.25H167.06z
	 M163.97,334.81c0.62,0,1.12-0.13,1.53-0.4s0.7-0.56,0.87-0.89v-2.53h-1.44c-1.72,0-2.58,0.77-2.58,2.31c0,0.45,0.15,0.81,0.45,1.09
	C163.12,334.67,163.5,334.81,163.97,334.81z M179.26,338.03h-4.95v-22.5h4.95V338.03z M182.27,318.1c0-0.7,0.25-1.28,0.76-1.73
	s1.17-0.67,1.98-0.67s1.47,0.22,1.98,0.67s0.76,1.03,0.76,1.73s-0.25,1.28-0.76,1.73s-1.17,0.67-1.98,0.67s-1.47-0.22-1.98-0.67
	S182.27,318.8,182.27,318.1z M187.51,338.03h-4.95v-15.85h4.95V338.03z M198.85,333.58c0-0.42-0.22-0.76-0.66-1.01
	s-1.27-0.52-2.5-0.79s-2.25-0.63-3.05-1.08c-0.8-0.44-1.41-0.98-1.83-1.62s-0.63-1.36-0.63-2.18c0-1.46,0.6-2.65,1.8-3.6
	s2.77-1.41,4.72-1.41c2.09,0,3.77,0.47,5.04,1.42s1.9,2.19,1.9,3.74h-4.95c0-1.27-0.67-1.9-2.01-1.9c-0.52,0-0.95,0.14-1.3,0.43
	c-0.35,0.29-0.53,0.65-0.53,1.08c0,0.44,0.21,0.8,0.64,1.07s1.12,0.5,2.06,0.67c0.94,0.18,1.77,0.39,2.48,0.63
	c2.38,0.82,3.57,2.29,3.57,4.41c0,1.45-0.64,2.62-1.93,3.53c-1.29,0.91-2.95,1.36-4.99,1.36c-1.36,0-2.57-0.24-3.63-0.73
	s-1.89-1.15-2.49-1.99s-0.89-1.72-0.89-2.65h4.61c0.02,0.73,0.26,1.27,0.73,1.6c0.47,0.34,1.07,0.5,1.8,0.5
	c0.67,0,1.18-0.14,1.52-0.41C198.68,334.38,198.85,334.02,198.85,333.58z M211.67,318.24v3.94h2.61v3.43h-2.61v7.25
	c0,0.6,0.11,1.01,0.32,1.25s0.64,0.35,1.27,0.35c0.49,0,0.9-0.03,1.23-0.09v3.53c-0.89,0.28-1.82,0.42-2.78,0.42
	c-1.7,0-2.95-0.4-3.76-1.2s-1.22-2.02-1.22-3.65v-7.87h-2.02v-3.43h2.02v-3.94H211.67z"/>
</svg>
