<svg id="Layer_1" xmlns="http://www.w3.org/2000/svg" viewBox="0 0 320 100"><style>.st0{fill:#edf4fd}.st1{fill:#021d8b}</style><path class="st0" d="M302.93 57.88h-35.88c-6.28 0-11.37-5.09-11.37-11.37 0-6.28 5.09-11.37 11.37-11.37h35.88c6.28 0 11.37 5.09 11.37 11.37-.01 6.28-5.1 11.37-11.37 11.37z"/><path class="st1" d="M276.45 43.88c-.04.61-.27 1.09-.68 1.45-.41.35-.95.53-1.61.53-.73 0-1.3-.25-1.72-.74s-.63-1.16-.63-2.02v-.35c0-.55.1-1.03.29-1.45.19-.42.47-.74.83-.96.36-.22.77-.33 1.25-.33.66 0 1.18.18 1.59.53.4.35.63.85.7 1.48h-1.17c-.03-.37-.13-.63-.31-.8s-.44-.25-.8-.25c-.39 0-.68.14-.88.42-.19.28-.29.71-.3 1.3v.43c0 .61.09 1.06.28 1.35.19.28.48.43.88.43.36 0 .63-.08.81-.25.18-.17.28-.42.31-.77h1.16zM278.33 45.77h-1.13v-6h1.13v6zM279.26 40.45c0-.17.06-.31.17-.42s.27-.16.46-.16.35.05.46.16c.11.11.17.25.17.42 0 .17-.06.31-.17.42-.12.11-.27.16-.46.16s-.34-.05-.46-.16a.537.537 0 0 1-.17-.42zm1.2 5.32h-1.13v-4.23h1.13v4.23zM283.14 44.94c.21 0 .38-.06.51-.17.13-.11.2-.27.2-.46h1.06a1.471 1.471 0 0 1-.86 1.34c-.27.13-.56.2-.88.2-.6 0-1.08-.19-1.43-.58-.35-.38-.52-.91-.52-1.59v-.07c0-.65.17-1.17.52-1.56.35-.39.82-.58 1.43-.58.53 0 .95.15 1.27.45.32.3.48.7.49 1.2h-1.06c-.01-.22-.07-.4-.2-.54a.67.67 0 0 0-.52-.21c-.26 0-.46.1-.6.29-.13.19-.2.5-.2.93v.12c0 .44.07.75.2.94s.32.29.59.29zM287.09 44.07l-.41.41v1.29h-1.13v-6h1.13v3.32l.22-.28 1.08-1.27h1.36l-1.53 1.76 1.66 2.46h-1.3l-1.08-1.69zM293.17 40.5v1.04h.72v.83h-.72v2.11c0 .16.03.27.09.34s.17.1.34.1c.12 0 .24-.01.33-.03v.86c-.22.07-.45.1-.68.1-.79 0-1.2-.4-1.21-1.2v-2.28h-.62v-.83h.62V40.5h1.13zM294.23 43.62c0-.42.08-.79.24-1.12.16-.33.39-.58.7-.76.3-.18.66-.27 1.06-.27.57 0 1.04.17 1.4.52.36.35.56.82.6 1.42l.01.29c0 .65-.18 1.17-.54 1.56-.36.39-.85.59-1.46.59s-1.1-.2-1.46-.59-.54-.92-.54-1.59v-.05zm1.13.08c0 .4.08.71.23.92.15.21.37.32.65.32.27 0 .49-.1.64-.31.15-.21.23-.55.23-1.01 0-.39-.08-.7-.23-.92-.15-.22-.37-.32-.65-.32a.74.74 0 0 0-.64.32c-.15.21-.23.55-.23 1zM267.2 53.77h-1.13v-6h1.13v6zM270.08 53.85c-.62 0-1.12-.19-1.51-.57-.39-.38-.58-.89-.58-1.52v-.11c0-.42.08-.8.25-1.14s.4-.59.7-.77.64-.27 1.03-.27c.58 0 1.03.18 1.37.55s.5.88.5 1.55v.46h-2.69c.04.28.15.5.33.66.18.17.42.25.7.25.43 0 .77-.16 1.02-.47l.55.62c-.17.24-.4.43-.69.56-.31.13-.63.2-.98.2zm-.13-3.47c-.22 0-.41.08-.54.23-.14.15-.23.37-.27.65h1.57v-.09c-.01-.25-.07-.45-.2-.58-.14-.15-.32-.21-.56-.21zM274.91 53.77c-.05-.1-.09-.23-.11-.38-.27.3-.63.46-1.07.46-.41 0-.76-.12-1.03-.36s-.41-.54-.41-.91c0-.45.17-.79.5-1.03.33-.24.81-.36 1.44-.36h.52v-.24c0-.2-.05-.35-.15-.47-.1-.12-.26-.18-.47-.18-.19 0-.34.05-.45.14-.11.09-.16.22-.16.38h-1.13c0-.24.08-.47.23-.68.15-.21.36-.37.64-.49s.59-.18.93-.18c.52 0 .93.13 1.24.39.31.26.46.63.46 1.1v1.83c0 .4.06.71.17.91v.07h-1.15zm-.94-.79c.17 0 .32-.04.46-.11s.24-.17.31-.3v-.73h-.42c-.57 0-.87.2-.9.59v.07c0 .14.05.26.15.35.1.09.23.13.4.13zM279.12 50.6c-.15-.02-.29-.03-.41-.03-.43 0-.71.14-.84.43v2.77h-1.13v-4.23h1.07l.03.5c.23-.39.54-.58.94-.58.12 0 .24.02.35.05l-.01 1.09zM280.7 49.54l.04.49c.3-.38.71-.57 1.21-.57.45 0 .78.13 1 .39s.33.66.34 1.18v2.73h-1.13v-2.7c0-.24-.05-.41-.16-.52-.1-.11-.28-.16-.52-.16-.32 0-.56.14-.71.41v2.98h-1.13v-4.23h1.06zM287.2 49.54l.04.47c.3-.37.7-.55 1.21-.55.54 0 .92.21 1.12.64.3-.43.72-.64 1.27-.64.46 0 .8.13 1.02.4.22.27.34.67.34 1.2v2.7h-1.13v-2.7c0-.24-.05-.41-.14-.52s-.26-.17-.5-.17c-.34 0-.57.16-.7.48v2.9h-1.13v-2.69c0-.24-.05-.42-.14-.53-.1-.11-.26-.16-.49-.16-.32 0-.55.13-.7.4v2.99h-1.13v-4.23h1.06zM292.89 51.62c0-.42.08-.79.24-1.12.16-.33.39-.58.7-.76.3-.18.66-.27 1.06-.27.57 0 1.04.17 1.4.52.36.35.56.82.6 1.42l.01.29c0 .65-.18 1.17-.54 1.56-.36.39-.85.59-1.46.59s-1.1-.2-1.46-.59-.54-.92-.54-1.59v-.05zm1.13.08c0 .4.08.71.23.92.15.21.37.32.65.32.27 0 .49-.1.64-.31.15-.21.23-.55.23-1.01 0-.39-.08-.7-.23-.92-.15-.22-.37-.32-.65-.32a.74.74 0 0 0-.64.32c-.16.21-.23.55-.23 1zM299.96 50.6c-.15-.02-.29-.03-.41-.03-.43 0-.71.14-.84.43v2.77h-1.13v-4.23h1.07l.03.5c.23-.39.54-.58.94-.58.12 0 .24.02.35.05l-.01 1.09zM302.45 53.85c-.62 0-1.12-.19-1.51-.57-.39-.38-.58-.89-.58-1.52v-.11c0-.42.08-.8.25-1.14s.4-.59.7-.77.64-.27 1.03-.27c.58 0 1.03.18 1.37.55s.5.88.5 1.55v.46h-2.69c.04.28.15.5.33.66.18.17.42.25.7.25.43 0 .77-.16 1.02-.47l.55.62c-.17.24-.4.43-.69.56-.31.13-.63.2-.98.2zm-.13-3.47c-.22 0-.41.08-.54.23-.14.15-.23.37-.27.65h1.57v-.09c-.01-.25-.07-.45-.2-.58-.13-.15-.32-.21-.56-.21z"/></svg>