<?xml version="1.0" encoding="utf-8"?>
<!-- Generator: Adobe Illustrator 25.3.1, SVG Export Plug-In . SVG Version: 6.00 Build 0)  -->
<svg version="1.1" id="Layer_1" xmlns="http://www.w3.org/2000/svg" xmlns:xlink="http://www.w3.org/1999/xlink" x="0px" y="0px"
	 viewBox="0 0 300 250" style="enable-background:new 0 0 300 250;" xml:space="preserve">
<style type="text/css">
	.st0{fill:#FFFFFF;}
</style>
<g>
	<path class="st0" d="M47.07,123.25c0-0.72-0.18-1.29-0.53-1.7s-0.98-0.8-1.87-1.16c-0.89-0.36-1.72-0.73-2.47-1.11
		c-0.76-0.37-1.41-0.81-1.96-1.3s-0.97-1.06-1.26-1.71c-0.29-0.65-0.44-1.43-0.44-2.35c0-1.54,0.52-2.81,1.56-3.81
		s2.42-1.58,4.16-1.74v-2.88h2.17v2.94c1.67,0.25,2.98,0.93,3.93,2.06c0.95,1.13,1.43,2.55,1.43,4.29h-4.62
		c0-0.95-0.18-1.68-0.55-2.19c-0.36-0.51-0.88-0.77-1.56-0.77c-0.6,0-1.07,0.19-1.4,0.57c-0.33,0.38-0.5,0.9-0.5,1.57
		c0,0.67,0.19,1.21,0.57,1.61s1,0.77,1.85,1.13c0.85,0.36,1.65,0.73,2.4,1.12c0.75,0.39,1.4,0.83,1.95,1.32s0.98,1.07,1.29,1.72
		s0.46,1.44,0.46,2.37c0,1.56-0.49,2.83-1.48,3.81s-2.34,1.56-4.04,1.72v2.75h-2.17v-2.76c-1.99-0.21-3.51-0.89-4.57-2.04
		s-1.59-2.67-1.59-4.56h4.61c0,1.04,0.23,1.83,0.69,2.37c0.46,0.54,1.11,0.81,1.96,0.81c0.62,0,1.11-0.18,1.46-0.55
		S47.07,123.9,47.07,123.25z"/>
	<path class="st0" d="M66.28,120.75h2.02v3.55h-2.02v4.23h-4.61v-4.23h-7.7l-0.27-2.82l7.97-12.82v-0.04h4.61V120.75z M58.09,120.75
		h3.58v-6.12l-0.29,0.46L58.09,120.75z"/>
	<path class="st0" d="M74.54,116.65h2.17c1.72,0,2.58-0.84,2.58-2.53c0-0.66-0.21-1.19-0.62-1.61c-0.41-0.41-0.99-0.62-1.74-0.62
		c-0.61,0-1.14,0.18-1.59,0.53s-0.68,0.8-0.68,1.33h-4.61c0-1.05,0.29-1.98,0.88-2.8s1.39-1.46,2.43-1.92
		c1.03-0.46,2.17-0.69,3.41-0.69c2.21,0,3.96,0.51,5.22,1.52s1.9,2.4,1.9,4.17c0,0.86-0.26,1.67-0.79,2.43
		c-0.52,0.76-1.29,1.38-2.29,1.85c1.06,0.38,1.89,0.96,2.49,1.74s0.9,1.74,0.9,2.89c0,1.78-0.68,3.2-2.05,4.27s-3.16,1.6-5.39,1.6
		c-1.3,0-2.51-0.25-3.63-0.75c-1.12-0.5-1.96-1.18-2.54-2.06c-0.57-0.88-0.86-1.88-0.86-3h4.63c0,0.61,0.25,1.14,0.74,1.59
		c0.49,0.45,1.1,0.67,1.82,0.67c0.81,0,1.46-0.23,1.94-0.68s0.72-1.03,0.72-1.73c0-1-0.25-1.71-0.75-2.13
		c-0.5-0.42-1.19-0.63-2.08-0.63h-2.24V116.65z"/>
	<path class="st0" d="M107.32,121.25c0,2.42-0.5,4.29-1.5,5.59s-2.42,1.96-4.24,1.96c-1.5,0-2.72-0.6-3.64-1.79l-0.19,1.52h-4.13
		v-21h4.61v7.4c0.86-0.98,1.96-1.46,3.32-1.46c1.84,0,3.26,0.66,4.27,1.98c1,1.32,1.5,3.18,1.5,5.58V121.25z M102.7,120.96
		c0-1.42-0.19-2.43-0.57-3.04s-0.96-0.91-1.74-0.91c-1.04,0-1.76,0.4-2.16,1.19v5.87c0.39,0.78,1.12,1.17,2.19,1.17
		c1.08,0,1.77-0.53,2.06-1.58C102.63,123.14,102.7,122.24,102.7,120.96z"/>
	<path class="st0" d="M109.32,109.92c0-0.66,0.24-1.19,0.71-1.61c0.47-0.42,1.09-0.63,1.85-0.63s1.37,0.21,1.85,0.63
		c0.47,0.42,0.71,0.96,0.71,1.61s-0.24,1.19-0.71,1.61c-0.47,0.42-1.09,0.63-1.85,0.63s-1.37-0.21-1.85-0.63
		C109.56,111.11,109.32,110.57,109.32,109.92z M114.21,128.53h-4.62v-14.79h4.62V128.53z"/>
	<path class="st0" d="M121.91,128.53h-4.62v-21h4.62V128.53z"/>
	<path class="st0" d="M129.61,128.53h-4.62v-21h4.62V128.53z"/>
	<path class="st0" d="M132.41,109.92c0-0.66,0.24-1.19,0.71-1.61c0.47-0.42,1.09-0.63,1.85-0.63s1.37,0.21,1.85,0.63
		c0.47,0.42,0.71,0.96,0.71,1.61s-0.24,1.19-0.71,1.61c-0.47,0.42-1.09,0.63-1.85,0.63s-1.37-0.21-1.85-0.63
		C132.65,111.11,132.41,110.57,132.41,109.92z M137.31,128.53h-4.62v-14.79h4.62V128.53z"/>
	<path class="st0" d="M139.56,120.99c0-1.48,0.29-2.79,0.86-3.94c0.57-1.15,1.4-2.04,2.47-2.66c1.08-0.62,2.34-0.93,3.79-0.93
		c2.21,0,3.96,0.69,5.24,2.06c1.28,1.37,1.91,3.24,1.91,5.6v0.16c0,2.31-0.64,4.14-1.92,5.49c-1.28,1.35-3.01,2.03-5.2,2.03
		c-2.11,0-3.8-0.63-5.07-1.89s-1.96-2.97-2.06-5.13L139.56,120.99z M144.17,121.28c0,1.37,0.21,2.37,0.64,3.01
		c0.43,0.64,1.06,0.96,1.9,0.96c1.64,0,2.48-1.26,2.52-3.79v-0.46c0-2.65-0.85-3.98-2.54-3.98c-1.54,0-2.37,1.14-2.5,3.43
		L144.17,121.28z"/>
	<path class="st0" d="M160.1,113.73l0.15,1.74c1.02-1.34,2.43-2.01,4.22-2.01c1.54,0,2.69,0.46,3.45,1.38
		c0.76,0.92,1.16,2.31,1.18,4.16v9.53h-4.62v-9.34c0-0.75-0.15-1.3-0.45-1.65c-0.3-0.35-0.85-0.53-1.64-0.53
		c-0.9,0-1.57,0.36-2.01,1.07v10.45h-4.61v-14.79H160.1z"/>
	<path class="st0" d="M178,121.53c0-1.37,0.27-2.59,0.8-3.66s1.3-1.89,2.3-2.47s2.17-0.86,3.52-0.86c2.06,0,3.68,0.64,4.86,1.91
		s1.78,3.01,1.78,5.2v0.15c0,2.14-0.59,3.84-1.78,5.1c-1.19,1.26-2.8,1.89-4.83,1.89c-1.96,0-3.53-0.59-4.71-1.76
		c-1.18-1.17-1.82-2.76-1.92-4.77L178,121.53z M182.27,121.8c0,1.27,0.2,2.2,0.6,2.79s0.99,0.89,1.76,0.89
		c1.52,0,2.3-1.17,2.34-3.52v-0.43c0-2.46-0.79-3.69-2.36-3.69c-1.43,0-2.21,1.06-2.32,3.19L182.27,121.8z"/>
	<path class="st0" d="M194.08,128.53v-10.77h-1.99v-2.97h1.99v-1.09c0-1.57,0.46-2.78,1.38-3.64s2.22-1.29,3.88-1.29
		c0.61,0,1.28,0.09,2.01,0.27l0.01,3.15c-0.26-0.08-0.61-0.11-1.05-0.11c-1.29,0-1.94,0.56-1.94,1.68v1.05h2.68v2.97h-2.68v10.77
		H194.08z"/>
	<path class="st0" d="M214.01,111.37v3.42h2.26v2.97h-2.26v6.28c0,0.52,0.09,0.88,0.28,1.08s0.55,0.3,1.1,0.3
		c0.42,0,0.78-0.03,1.07-0.08v3.06c-0.77,0.25-1.57,0.37-2.41,0.37c-1.47,0-2.56-0.35-3.26-1.04c-0.7-0.69-1.05-1.75-1.05-3.16
		v-6.82h-1.75v-2.97h1.75v-3.42H214.01z"/>
	<path class="st0" d="M217.03,121.53c0-1.37,0.27-2.59,0.8-3.66s1.3-1.89,2.3-2.47s2.17-0.86,3.52-0.86c2.06,0,3.68,0.64,4.86,1.91
		s1.78,3.01,1.78,5.2v0.15c0,2.14-0.59,3.84-1.78,5.1c-1.19,1.26-2.8,1.89-4.83,1.89c-1.96,0-3.53-0.59-4.71-1.76
		c-1.18-1.17-1.82-2.76-1.92-4.77L217.03,121.53z M221.31,121.8c0,1.27,0.2,2.2,0.6,2.79s0.99,0.89,1.76,0.89
		c1.52,0,2.3-1.17,2.34-3.52v-0.43c0-2.46-0.79-3.69-2.36-3.69c-1.43,0-2.21,1.06-2.32,3.19L221.31,121.8z"/>
	<path class="st0" d="M237.16,111.37v3.42h2.26v2.97h-2.26v6.28c0,0.52,0.09,0.88,0.28,1.08s0.55,0.3,1.1,0.3
		c0.42,0,0.78-0.03,1.07-0.08v3.06c-0.77,0.25-1.57,0.37-2.41,0.37c-1.47,0-2.56-0.35-3.26-1.04c-0.7-0.69-1.05-1.75-1.05-3.16
		v-6.82h-1.75v-2.97h1.75v-3.42H237.16z"/>
	<path class="st0" d="M248.84,128.53c-0.15-0.28-0.29-0.69-0.41-1.23c-0.79,0.99-1.89,1.49-3.3,1.49c-1.29,0-2.4-0.39-3.3-1.17
		c-0.91-0.78-1.36-1.77-1.36-2.95c0-1.49,0.55-2.62,1.65-3.38s2.7-1.14,4.8-1.14h1.32v-0.73c0-1.27-0.55-1.9-1.64-1.9
		c-1.02,0-1.52,0.5-1.52,1.51h-4.28c0-1.33,0.57-2.4,1.69-3.23c1.13-0.83,2.57-1.24,4.32-1.24s3.14,0.43,4.15,1.28
		s1.54,2.03,1.56,3.52v6.08c0.02,1.26,0.21,2.23,0.58,2.9v0.22H248.84z M246.16,125.73c0.53,0,0.98-0.11,1.33-0.34
		c0.35-0.23,0.6-0.49,0.75-0.77v-2.2H247c-1.49,0-2.23,0.67-2.23,2.01c0,0.39,0.13,0.7,0.39,0.95S245.75,125.73,246.16,125.73z"/>
	<path class="st0" d="M259.41,128.53h-4.29v-19.5h4.29V128.53z"/>
	<path class="st0" d="M30.57,159.73v-10.77h-1.99v-2.97h1.99v-1.09c0-1.57,0.46-2.78,1.38-3.64s2.22-1.29,3.88-1.29
		c0.61,0,1.28,0.09,2.01,0.27l0.01,3.15c-0.26-0.08-0.61-0.11-1.05-0.11c-1.29,0-1.94,0.56-1.94,1.68v1.05h2.68v2.97h-2.68v10.77
		H30.57z"/>
	<path class="st0" d="M47.35,149.86l-1.41-0.1c-1.35,0-2.21,0.42-2.59,1.27v8.7h-4.28v-13.74h4.01l0.14,1.76
		c0.72-1.35,1.72-2.02,3.01-2.02c0.46,0,0.85,0.05,1.19,0.15L47.35,149.86z"/>
	<path class="st0" d="M56.25,159.73c-0.15-0.28-0.29-0.69-0.41-1.23c-0.79,0.99-1.89,1.49-3.3,1.49c-1.29,0-2.4-0.39-3.3-1.17
		c-0.91-0.78-1.36-1.77-1.36-2.95c0-1.49,0.55-2.62,1.65-3.38s2.7-1.14,4.8-1.14h1.32v-0.73c0-1.27-0.55-1.9-1.64-1.9
		c-1.02,0-1.52,0.5-1.52,1.5h-4.28c0-1.33,0.57-2.4,1.69-3.23c1.13-0.83,2.57-1.24,4.32-1.24s3.14,0.43,4.15,1.28
		c1.02,0.85,1.54,2.03,1.56,3.52v6.08c0.02,1.26,0.21,2.23,0.58,2.89v0.22H56.25z M53.57,156.93c0.53,0,0.98-0.11,1.33-0.34
		c0.35-0.23,0.6-0.49,0.75-0.77v-2.2h-1.24c-1.49,0-2.23,0.67-2.23,2.01c0,0.39,0.13,0.7,0.39,0.95S53.17,156.93,53.57,156.93z"/>
	<path class="st0" d="M70.5,158.24c-0.91,1.16-2.13,1.74-3.67,1.74c-1.51,0-2.65-0.44-3.42-1.31c-0.77-0.88-1.16-2.13-1.16-3.78
		v-8.9h4.28v8.92c0,1.18,0.57,1.76,1.71,1.76c0.98,0,1.68-0.35,2.09-1.05v-9.64h4.3v13.74h-4.01L70.5,158.24z"/>
	<path class="st0" d="M76.44,152.76c0-2.18,0.47-3.89,1.41-5.14c0.94-1.25,2.25-1.88,3.94-1.88c1.23,0,2.26,0.48,3.1,1.45v-6.96
		h4.29v19.5h-3.85l-0.22-1.47c-0.88,1.15-2,1.73-3.35,1.73c-1.63,0-2.93-0.63-3.88-1.88C76.92,156.85,76.44,155.07,76.44,152.76z
		 M80.72,153.02c0,2.44,0.71,3.66,2.13,3.66c0.95,0,1.62-0.4,2.03-1.19v-5.23c-0.39-0.81-1.06-1.22-2.01-1.22
		c-1.32,0-2.04,1.07-2.15,3.2L80.72,153.02z"/>
	<path class="st0" d="M102.59,159.73H98.3v-19.5h4.29V159.73z"/>
	<path class="st0" d="M104.69,152.73c0-1.37,0.27-2.59,0.8-3.66c0.53-1.07,1.3-1.89,2.3-2.47c1-0.58,2.17-0.86,3.52-0.86
		c2.06,0,3.68,0.64,4.86,1.91c1.18,1.27,1.78,3.01,1.78,5.2V153c0,2.14-0.59,3.84-1.78,5.1c-1.19,1.26-2.8,1.89-4.83,1.89
		c-1.96,0-3.53-0.59-4.71-1.76c-1.18-1.17-1.82-2.76-1.92-4.77L104.69,152.73z M108.96,153c0,1.27,0.2,2.2,0.6,2.79
		c0.4,0.59,0.99,0.89,1.76,0.89c1.52,0,2.3-1.17,2.34-3.52v-0.43c0-2.46-0.79-3.69-2.36-3.69c-1.43,0-2.21,1.06-2.32,3.19
		L108.96,153z"/>
	<path class="st0" d="M127.02,155.87c0-0.36-0.19-0.66-0.57-0.88c-0.38-0.22-1.1-0.45-2.17-0.69c-1.07-0.24-1.95-0.55-2.64-0.93
		c-0.69-0.38-1.22-0.85-1.59-1.4c-0.36-0.55-0.55-1.18-0.55-1.89c0-1.26,0.52-2.3,1.56-3.12c1.04-0.82,2.4-1.22,4.09-1.22
		c1.81,0,3.27,0.41,4.37,1.23c1.1,0.82,1.65,1.9,1.65,3.24h-4.29c0-1.1-0.58-1.65-1.74-1.65c-0.45,0-0.83,0.12-1.13,0.37
		c-0.3,0.25-0.46,0.56-0.46,0.93c0,0.38,0.19,0.69,0.56,0.93c0.37,0.24,0.97,0.43,1.78,0.58c0.82,0.15,1.53,0.33,2.15,0.55
		c2.07,0.71,3.1,1.98,3.1,3.82c0,1.25-0.56,2.27-1.67,3.06c-1.11,0.79-2.55,1.18-4.32,1.18c-1.18,0-2.23-0.21-3.15-0.63
		c-0.92-0.42-1.64-1-2.16-1.73c-0.52-0.73-0.77-1.49-0.77-2.3h4c0.02,0.63,0.23,1.1,0.63,1.39s0.93,0.44,1.56,0.44
		c0.58,0,1.02-0.12,1.31-0.36C126.87,156.56,127.02,156.25,127.02,155.87z"/>
	<path class="st0" d="M140.33,155.87c0-0.36-0.19-0.66-0.57-0.88c-0.38-0.22-1.1-0.45-2.17-0.69c-1.07-0.24-1.95-0.55-2.64-0.93
		c-0.69-0.38-1.22-0.85-1.59-1.4c-0.36-0.55-0.55-1.18-0.55-1.89c0-1.26,0.52-2.3,1.56-3.12c1.04-0.82,2.4-1.22,4.09-1.22
		c1.81,0,3.27,0.41,4.37,1.23c1.1,0.82,1.65,1.9,1.65,3.24h-4.29c0-1.1-0.58-1.65-1.74-1.65c-0.45,0-0.83,0.12-1.13,0.37
		c-0.3,0.25-0.46,0.56-0.46,0.93c0,0.38,0.19,0.69,0.56,0.93c0.37,0.24,0.97,0.43,1.78,0.58c0.82,0.15,1.53,0.33,2.15,0.55
		c2.07,0.71,3.1,1.98,3.1,3.82c0,1.25-0.56,2.27-1.67,3.06c-1.11,0.79-2.55,1.18-4.32,1.18c-1.18,0-2.23-0.21-3.15-0.63
		c-0.92-0.42-1.64-1-2.16-1.73c-0.52-0.73-0.77-1.49-0.77-2.3h4c0.02,0.63,0.23,1.1,0.63,1.39s0.93,0.44,1.56,0.44
		c0.58,0,1.02-0.12,1.31-0.36C140.19,156.56,140.33,156.25,140.33,155.87z"/>
	<path class="st0" d="M153.1,159.98c-2.11,0-3.81-0.63-5.12-1.89s-1.96-2.89-1.96-4.91v-0.36c0-1.41,0.26-2.65,0.78-3.72
		c0.52-1.08,1.28-1.91,2.28-2.5c1-0.59,2.18-0.88,3.55-0.88c1.93,0,3.45,0.6,4.57,1.8c1.12,1.2,1.68,2.87,1.68,5.01v1.66h-8.51
		c0.15,0.77,0.49,1.38,1,1.82c0.52,0.44,1.18,0.66,2.01,0.66c1.35,0,2.41-0.47,3.17-1.42l1.96,2.31c-0.53,0.74-1.29,1.32-2.27,1.76
		C155.28,159.76,154.23,159.98,153.1,159.98z M152.62,149.04c-1.25,0-2,0.83-2.23,2.49h4.32v-0.33c0.02-0.69-0.16-1.22-0.52-1.59
		C153.82,149.23,153.3,149.04,152.62,149.04z"/>
	<path class="st0" d="M167.81,155.87c0-0.36-0.19-0.66-0.57-0.88c-0.38-0.22-1.1-0.45-2.17-0.69c-1.07-0.24-1.95-0.55-2.64-0.93
		c-0.69-0.38-1.22-0.85-1.59-1.4c-0.36-0.55-0.55-1.18-0.55-1.89c0-1.26,0.52-2.3,1.56-3.12c1.04-0.82,2.4-1.22,4.09-1.22
		c1.81,0,3.27,0.41,4.37,1.23c1.1,0.82,1.65,1.9,1.65,3.24h-4.29c0-1.1-0.58-1.65-1.74-1.65c-0.45,0-0.83,0.12-1.13,0.37
		c-0.3,0.25-0.46,0.56-0.46,0.93c0,0.38,0.19,0.69,0.56,0.93c0.37,0.24,0.97,0.43,1.78,0.58c0.82,0.15,1.53,0.33,2.15,0.55
		c2.07,0.71,3.1,1.98,3.1,3.82c0,1.25-0.56,2.27-1.67,3.06c-1.11,0.79-2.55,1.18-4.32,1.18c-1.18,0-2.23-0.21-3.15-0.63
		c-0.92-0.42-1.64-1-2.16-1.73c-0.52-0.73-0.77-1.49-0.77-2.3h4c0.02,0.63,0.23,1.1,0.63,1.39s0.93,0.44,1.56,0.44
		c0.58,0,1.02-0.12,1.31-0.36C167.66,156.56,167.81,156.25,167.81,155.87z"/>
	<path class="st0" d="M180.37,142.45c0-0.61,0.22-1.11,0.66-1.5c0.44-0.39,1.01-0.58,1.71-0.58s1.27,0.19,1.71,0.58
		c0.44,0.39,0.66,0.89,0.66,1.5s-0.22,1.11-0.66,1.5c-0.44,0.39-1.01,0.58-1.71,0.58s-1.27-0.2-1.71-0.58
		C180.59,143.56,180.37,143.06,180.37,142.45z M184.92,159.73h-4.29v-13.74h4.29V159.73z"/>
	<path class="st0" d="M191.48,145.99l0.14,1.61c0.95-1.24,2.26-1.87,3.92-1.87c1.43,0,2.5,0.43,3.21,1.28
		c0.71,0.85,1.07,2.14,1.1,3.86v8.85h-4.29v-8.67c0-0.69-0.14-1.2-0.42-1.53c-0.28-0.33-0.79-0.49-1.52-0.49
		c-0.84,0-1.46,0.33-1.87,0.99v9.7h-4.28v-13.74H191.48z"/>
	<path class="st0" d="M221.52,159.73h-12.9v-2.79l5.94-6.25c1.46-1.67,2.2-2.99,2.2-3.97c0-0.8-0.17-1.4-0.52-1.82
		c-0.35-0.42-0.85-0.62-1.51-0.62c-0.65,0-1.18,0.28-1.59,0.83c-0.41,0.55-0.61,1.25-0.61,2.08h-4.29c0-1.13,0.28-2.18,0.85-3.14
		c0.57-0.96,1.35-1.71,2.36-2.25c1.01-0.54,2.13-0.81,3.38-0.81c2,0,3.54,0.46,4.62,1.38c1.08,0.92,1.62,2.25,1.62,3.97
		c0,0.73-0.14,1.44-0.41,2.13c-0.27,0.69-0.69,1.41-1.26,2.17c-0.57,0.76-1.49,1.77-2.76,3.04l-2.39,2.75h7.27V159.73z"/>
	<path class="st0" d="M236.51,152.17c0,2.5-0.56,4.42-1.68,5.78c-1.12,1.35-2.7,2.03-4.74,2.03c-2.06,0-3.65-0.68-4.77-2.04
		c-1.13-1.36-1.69-3.28-1.69-5.76v-3.38c0-2.5,0.56-4.42,1.68-5.78c1.12-1.35,2.71-2.03,4.75-2.03s3.63,0.68,4.76,2.04
		c1.13,1.36,1.69,3.29,1.69,5.78V152.17z M232.23,148.25c0-1.33-0.17-2.32-0.52-2.98c-0.35-0.66-0.9-0.98-1.65-0.98
		c-0.74,0-1.27,0.3-1.61,0.91c-0.33,0.61-0.51,1.53-0.54,2.77v4.72c0,1.38,0.17,2.39,0.52,3.03c0.35,0.64,0.9,0.96,1.65,0.96
		c0.73,0,1.27-0.31,1.61-0.93s0.52-1.6,0.53-2.93V148.25z"/>
	<path class="st0" d="M251.63,159.73h-12.9v-2.79l5.94-6.25c1.46-1.67,2.2-2.99,2.2-3.97c0-0.8-0.17-1.4-0.52-1.82
		c-0.35-0.42-0.85-0.62-1.51-0.62c-0.65,0-1.18,0.28-1.59,0.83c-0.41,0.55-0.61,1.25-0.61,2.08h-4.29c0-1.13,0.28-2.18,0.85-3.14
		c0.57-0.96,1.35-1.71,2.36-2.25c1.01-0.54,2.13-0.81,3.38-0.81c2,0,3.54,0.46,4.62,1.38c1.08,0.92,1.62,2.25,1.62,3.97
		c0,0.73-0.14,1.44-0.41,2.13c-0.27,0.69-0.69,1.41-1.26,2.17c-0.57,0.76-1.49,1.77-2.76,3.04l-2.39,2.75h7.27V159.73z"/>
	<path class="st0" d="M266.63,152.17c0,2.5-0.56,4.42-1.68,5.78c-1.12,1.35-2.7,2.03-4.74,2.03c-2.06,0-3.65-0.68-4.77-2.04
		c-1.13-1.36-1.69-3.28-1.69-5.76v-3.38c0-2.5,0.56-4.42,1.68-5.78c1.12-1.35,2.71-2.03,4.75-2.03s3.63,0.68,4.76,2.04
		c1.13,1.36,1.69,3.29,1.69,5.78V152.17z M262.35,148.25c0-1.33-0.17-2.32-0.52-2.98c-0.35-0.66-0.9-0.98-1.65-0.98
		c-0.74,0-1.27,0.3-1.61,0.91c-0.33,0.61-0.51,1.53-0.54,2.77v4.72c0,1.38,0.17,2.39,0.52,3.03c0.35,0.64,0.9,0.96,1.65,0.96
		c0.73,0,1.27-0.31,1.61-0.93s0.52-1.6,0.53-2.93V148.25z"/>
	<path class="st0" d="M271.56,155.58c0.68,0,1.24,0.2,1.69,0.6c0.45,0.4,0.67,0.92,0.67,1.54c0,0.63-0.22,1.14-0.67,1.54
		c-0.45,0.4-1.01,0.6-1.69,0.6c-0.69,0-1.25-0.2-1.69-0.61c-0.45-0.41-0.67-0.92-0.67-1.54c0-0.62,0.22-1.13,0.67-1.54
		C270.31,155.78,270.88,155.58,271.56,155.58z"/>
</g>
</svg>
