<?xml version="1.0" encoding="utf-8"?>
<!-- Generator: Adobe Illustrator 25.3.1, SVG Export Plug-In . SVG Version: 6.00 Build 0)  -->
<svg version="1.1" id="Layer_1" xmlns="http://www.w3.org/2000/svg" xmlns:xlink="http://www.w3.org/1999/xlink" x="0px" y="0px"
	 viewBox="0 0 300 250" style="enable-background:new 0 0 300 250;" xml:space="preserve">
<style type="text/css">
	.st0{fill:#021D8B;stroke:url(#SVGID_1_);stroke-miterlimit:10;}
	.st1{fill:#FFFFFF;}
</style>
<linearGradient id="SVGID_1_" gradientUnits="userSpaceOnUse" x1="80.5671" y1="130.1715" x2="220.6197" y2="130.1715">
	<stop  offset="0" style="stop-color:#18B9FB"/>
	<stop  offset="0.5" style="stop-color:#782EEB"/>
	<stop  offset="1" style="stop-color:#E82D8A"/>
</linearGradient>
<path class="st0" d="M210.12,155.67H91.07c-5.52,0-10-4.48-10-10v-30.99c0-5.52,4.48-10,10-10h119.05c5.52,0,10,4.48,10,10v30.99
	C220.12,151.19,215.64,155.67,210.12,155.67z"/>
<g>
	<path class="st1" d="M94.89,124.06h4.25v1.61h-6.24v-9.7h2V124.06z"/>
	<path class="st1" d="M103.47,125.8c-1.06,0-1.92-0.32-2.58-0.97c-0.67-0.65-1-1.51-1-2.59v-0.19c0-0.72,0.14-1.37,0.42-1.94
		c0.28-0.57,0.68-1.01,1.19-1.32c0.51-0.31,1.1-0.46,1.76-0.46c0.99,0,1.76,0.31,2.33,0.93c0.57,0.62,0.85,1.5,0.85,2.65v0.79h-4.59
		c0.06,0.47,0.25,0.85,0.56,1.13c0.31,0.28,0.71,0.43,1.19,0.43c0.74,0,1.32-0.27,1.74-0.81l0.95,1.06
		c-0.29,0.41-0.68,0.73-1.17,0.96S104.07,125.8,103.47,125.8z M103.25,119.88c-0.38,0-0.69,0.13-0.93,0.39
		c-0.24,0.26-0.39,0.63-0.46,1.11h2.68v-0.15c-0.01-0.43-0.12-0.76-0.35-0.99C103.98,119.99,103.66,119.88,103.25,119.88z"/>
	<path class="st1" d="M111.71,125.67c-0.09-0.17-0.15-0.39-0.19-0.65c-0.47,0.52-1.07,0.78-1.82,0.78c-0.71,0-1.29-0.2-1.76-0.61
		c-0.46-0.41-0.7-0.92-0.7-1.55c0-0.76,0.28-1.35,0.85-1.76s1.38-0.62,2.46-0.62h0.89v-0.41c0-0.33-0.08-0.6-0.26-0.8
		c-0.17-0.2-0.44-0.3-0.81-0.3c-0.33,0-0.58,0.08-0.76,0.23s-0.28,0.37-0.28,0.64h-1.93c0-0.42,0.13-0.8,0.39-1.16
		c0.26-0.36,0.62-0.63,1.09-0.84c0.47-0.2,1-0.3,1.59-0.3c0.89,0,1.59,0.22,2.12,0.67c0.52,0.45,0.78,1.07,0.78,1.88V124
		c0,0.68,0.1,1.2,0.29,1.55v0.11H111.71z M110.12,124.33c0.28,0,0.55-0.06,0.79-0.19c0.24-0.13,0.42-0.3,0.53-0.51v-1.24h-0.72
		c-0.96,0-1.48,0.33-1.54,1l-0.01,0.11c0,0.24,0.08,0.44,0.25,0.59C109.59,124.25,109.82,124.33,110.12,124.33z"/>
	<path class="st1" d="M118.9,120.26c-0.26-0.04-0.49-0.05-0.69-0.05c-0.73,0-1.21,0.25-1.43,0.74v4.72h-1.93v-7.21h1.82l0.05,0.86
		c0.39-0.66,0.92-0.99,1.61-0.99c0.21,0,0.41,0.03,0.6,0.09L118.9,120.26z"/>
	<path class="st1" d="M121.6,118.46l0.06,0.83c0.52-0.64,1.21-0.97,2.07-0.97c0.76,0,1.33,0.22,1.71,0.67
		c0.37,0.45,0.56,1.12,0.57,2.01v4.66h-1.93v-4.61c0-0.41-0.09-0.71-0.27-0.89s-0.47-0.28-0.89-0.28c-0.54,0-0.95,0.23-1.22,0.69
		v5.08h-1.93v-7.21H121.6z"/>
	<path class="st1" d="M138.89,125.67h-2v-4.16h-3.9v4.16h-2v-9.7h2v3.93h3.9v-3.93h2V125.67z"/>
	<path class="st1" d="M140.21,121.99c0-0.72,0.14-1.35,0.41-1.91c0.28-0.56,0.67-0.99,1.19-1.3s1.12-0.46,1.8-0.46
		c0.97,0,1.77,0.3,2.38,0.89c0.62,0.6,0.96,1.4,1.03,2.43l0.01,0.49c0,1.11-0.31,1.99-0.93,2.66c-0.62,0.67-1.45,1-2.49,1
		c-1.04,0-1.87-0.33-2.49-1c-0.62-0.67-0.93-1.57-0.93-2.72V121.99z M142.14,122.13c0,0.69,0.13,1.21,0.39,1.57
		c0.26,0.36,0.63,0.54,1.11,0.54c0.47,0,0.83-0.18,1.09-0.54c0.26-0.36,0.39-0.93,0.39-1.72c0-0.67-0.13-1.19-0.39-1.56
		c-0.26-0.37-0.63-0.55-1.11-0.55c-0.47,0-0.84,0.18-1.09,0.55S142.14,121.36,142.14,122.13z"/>
	<path class="st1" d="M154.5,123.05l0.95-4.59h1.86l-1.84,7.21h-1.61l-1.37-4.54l-1.37,4.54h-1.61l-1.84-7.21h1.86l0.94,4.58
		l1.32-4.58h1.39L154.5,123.05z"/>
	<path class="st1" d="M168.69,117.58h-2.97v8.08h-2v-8.08h-2.93v-1.62h7.9V117.58z"/>
	<path class="st1" d="M168.01,121.99c0-0.72,0.14-1.35,0.41-1.91c0.28-0.56,0.67-0.99,1.19-1.3s1.12-0.46,1.8-0.46
		c0.97,0,1.77,0.3,2.38,0.89c0.62,0.6,0.96,1.4,1.03,2.43l0.01,0.49c0,1.11-0.31,1.99-0.93,2.66c-0.62,0.67-1.45,1-2.49,1
		c-1.04,0-1.87-0.33-2.49-1c-0.62-0.67-0.93-1.57-0.93-2.72V121.99z M169.94,122.13c0,0.69,0.13,1.21,0.39,1.57
		c0.26,0.36,0.63,0.54,1.11,0.54c0.47,0,0.83-0.18,1.09-0.54c0.26-0.36,0.39-0.93,0.39-1.72c0-0.67-0.13-1.19-0.39-1.56
		c-0.26-0.37-0.63-0.55-1.11-0.55c-0.47,0-0.84,0.18-1.09,0.55S169.94,121.36,169.94,122.13z"/>
	<path class="st1" d="M187.45,125.67h-2v-4.16h-3.9v4.16h-2v-9.7h2v3.93h3.9v-3.93h2V125.67z"/>
	<path class="st1" d="M192.39,125.8c-1.06,0-1.92-0.32-2.58-0.97c-0.67-0.65-1-1.51-1-2.59v-0.19c0-0.72,0.14-1.37,0.42-1.94
		c0.28-0.57,0.68-1.01,1.19-1.32c0.51-0.31,1.1-0.46,1.76-0.46c0.99,0,1.76,0.31,2.33,0.93c0.57,0.62,0.85,1.5,0.85,2.65v0.79h-4.59
		c0.06,0.47,0.25,0.85,0.56,1.13c0.31,0.28,0.71,0.43,1.19,0.43c0.74,0,1.32-0.27,1.74-0.81l0.95,1.06
		c-0.29,0.41-0.68,0.73-1.17,0.96S192.99,125.8,192.39,125.8z M192.17,119.88c-0.38,0-0.69,0.13-0.93,0.39
		c-0.24,0.26-0.39,0.63-0.46,1.11h2.68v-0.15c-0.01-0.43-0.12-0.76-0.35-0.99C192.9,119.99,192.58,119.88,192.17,119.88z"/>
	<path class="st1" d="M198.48,125.67h-1.93v-10.24h1.93V125.67z"/>
	<path class="st1" d="M206.56,122.13c0,1.11-0.25,2-0.76,2.67c-0.5,0.67-1.19,1-2.04,1c-0.73,0-1.32-0.25-1.77-0.76v3.4h-1.93v-9.98
		h1.79l0.07,0.71c0.47-0.56,1.08-0.84,1.83-0.84c0.89,0,1.58,0.33,2.07,0.99s0.74,1.56,0.74,2.72V122.13z M204.63,121.99
		c0-0.67-0.12-1.19-0.36-1.55c-0.24-0.36-0.58-0.55-1.04-0.55c-0.6,0-1.02,0.23-1.25,0.69v2.95c0.24,0.48,0.66,0.71,1.26,0.71
		C204.17,124.25,204.63,123.49,204.63,121.99z"/>
	<path class="st1" d="M102.58,142.32v3.42h-2v-9.7h3.79c0.73,0,1.37,0.13,1.92,0.4c0.55,0.27,0.98,0.64,1.28,1.14
		s0.45,1.05,0.45,1.68c0,0.95-0.33,1.7-0.98,2.25c-0.65,0.55-1.55,0.82-2.7,0.82H102.58z M102.58,140.7h1.79
		c0.53,0,0.93-0.12,1.21-0.37c0.28-0.25,0.42-0.6,0.42-1.07c0-0.48-0.14-0.86-0.42-1.15c-0.28-0.29-0.67-0.44-1.16-0.45h-1.83V140.7
		z"/>
	<path class="st1" d="M113.31,140.34c-0.26-0.04-0.49-0.05-0.69-0.05c-0.73,0-1.21,0.25-1.43,0.74v4.72h-1.93v-7.21h1.82l0.05,0.86
		c0.39-0.66,0.92-0.99,1.61-0.99c0.21,0,0.41,0.03,0.6,0.09L113.31,140.34z"/>
	<path class="st1" d="M113.69,142.07c0-0.72,0.14-1.35,0.41-1.91c0.28-0.56,0.67-0.99,1.19-1.3s1.12-0.46,1.8-0.46
		c0.97,0,1.77,0.3,2.38,0.89c0.62,0.6,0.96,1.4,1.03,2.43l0.01,0.49c0,1.11-0.31,1.99-0.93,2.66c-0.62,0.67-1.45,1-2.49,1
		c-1.04,0-1.87-0.33-2.49-1c-0.62-0.67-0.93-1.57-0.93-2.72V142.07z M115.62,142.21c0,0.69,0.13,1.21,0.39,1.57
		c0.26,0.36,0.63,0.54,1.11,0.54c0.47,0,0.83-0.18,1.09-0.54c0.26-0.36,0.39-0.93,0.39-1.72c0-0.67-0.13-1.19-0.39-1.56
		c-0.26-0.37-0.63-0.55-1.11-0.55c-0.47,0-0.84,0.18-1.09,0.55S115.62,141.44,115.62,142.21z"/>
	<path class="st1" d="M124.01,136.76v1.77h1.23v1.41h-1.23v3.6c0,0.27,0.05,0.46,0.15,0.57c0.1,0.12,0.3,0.17,0.59,0.17
		c0.21,0,0.4-0.02,0.57-0.05v1.46c-0.38,0.12-0.77,0.17-1.17,0.17c-1.35,0-2.04-0.68-2.07-2.05v-3.88h-1.05v-1.41h1.05v-1.77H124.01
		z"/>
	<path class="st1" d="M129.64,145.87c-1.06,0-1.92-0.32-2.58-0.97c-0.67-0.65-1-1.51-1-2.59v-0.19c0-0.72,0.14-1.37,0.42-1.94
		c0.28-0.57,0.68-1.01,1.19-1.32c0.51-0.31,1.1-0.46,1.76-0.46c0.99,0,1.76,0.31,2.33,0.93c0.57,0.62,0.85,1.5,0.85,2.65v0.79h-4.59
		c0.06,0.47,0.25,0.85,0.56,1.13c0.31,0.28,0.71,0.43,1.19,0.43c0.74,0,1.32-0.27,1.74-0.81l0.95,1.06
		c-0.29,0.41-0.68,0.73-1.17,0.96S130.24,145.87,129.64,145.87z M129.42,139.95c-0.38,0-0.69,0.13-0.93,0.39
		c-0.24,0.26-0.39,0.63-0.46,1.11h2.68v-0.15c-0.01-0.43-0.12-0.76-0.35-0.99C130.14,140.07,129.83,139.95,129.42,139.95z"/>
	<path class="st1" d="M136.7,144.32c0.36,0,0.64-0.1,0.87-0.29c0.22-0.2,0.34-0.46,0.35-0.78h1.81c0,0.49-0.14,0.94-0.4,1.34
		c-0.26,0.41-0.62,0.72-1.08,0.95s-0.96,0.34-1.51,0.34c-1.03,0-1.84-0.33-2.44-0.98c-0.6-0.66-0.89-1.56-0.89-2.72v-0.13
		c0-1.11,0.3-2,0.89-2.66s1.4-0.99,2.43-0.99c0.9,0,1.62,0.26,2.17,0.77s0.82,1.2,0.83,2.05h-1.81c-0.01-0.38-0.12-0.68-0.35-0.91
		c-0.22-0.23-0.51-0.35-0.88-0.35c-0.45,0-0.79,0.16-1.02,0.49s-0.34,0.86-0.34,1.59v0.2c0,0.74,0.11,1.28,0.34,1.6
		C135.89,144.16,136.23,144.32,136.7,144.32z"/>
	<path class="st1" d="M143.12,136.76v1.77h1.23v1.41h-1.23v3.6c0,0.27,0.05,0.46,0.15,0.57c0.1,0.12,0.3,0.17,0.59,0.17
		c0.21,0,0.4-0.02,0.57-0.05v1.46c-0.38,0.12-0.77,0.17-1.17,0.17c-1.35,0-2.04-0.68-2.07-2.05v-3.88h-1.05v-1.41h1.05v-1.77H143.12
		z"/>
	<path class="st1" d="M152.3,140.41l2.02-4.37h2.19l-3.19,6.18v3.52h-2.03v-3.52l-3.19-6.18h2.19L152.3,140.41z"/>
	<path class="st1" d="M156.53,142.07c0-0.72,0.14-1.35,0.41-1.91c0.28-0.56,0.67-0.99,1.19-1.3s1.12-0.46,1.8-0.46
		c0.97,0,1.77,0.3,2.38,0.89c0.62,0.6,0.96,1.4,1.03,2.43l0.01,0.49c0,1.11-0.31,1.99-0.93,2.66c-0.62,0.67-1.45,1-2.49,1
		c-1.04,0-1.87-0.33-2.49-1c-0.62-0.67-0.93-1.57-0.93-2.72V142.07z M158.46,142.21c0,0.69,0.13,1.21,0.39,1.57
		c0.26,0.36,0.63,0.54,1.11,0.54c0.47,0,0.83-0.18,1.09-0.54c0.26-0.36,0.39-0.93,0.39-1.72c0-0.67-0.13-1.19-0.39-1.56
		c-0.26-0.37-0.63-0.55-1.11-0.55c-0.47,0-0.84,0.18-1.09,0.55S158.46,141.44,158.46,142.21z"/>
	<path class="st1" d="M168.86,145.01c-0.48,0.58-1.13,0.87-1.97,0.87c-0.77,0-1.36-0.22-1.77-0.67c-0.41-0.44-0.61-1.09-0.62-1.95
		v-4.73h1.93v4.66c0,0.75,0.34,1.13,1.03,1.13c0.65,0,1.1-0.23,1.35-0.68v-5.11h1.93v7.21h-1.81L168.86,145.01z"/>
	<path class="st1" d="M176.24,140.34c-0.26-0.04-0.49-0.05-0.69-0.05c-0.73,0-1.21,0.25-1.43,0.74v4.72h-1.93v-7.21H174l0.05,0.86
		c0.39-0.66,0.92-0.99,1.61-0.99c0.21,0,0.41,0.03,0.6,0.09L176.24,140.34z"/>
	<path class="st1" d="M181.07,143.75c0-0.24-0.12-0.42-0.35-0.56s-0.61-0.26-1.12-0.36c-1.71-0.36-2.57-1.09-2.57-2.19
		c0-0.64,0.27-1.17,0.8-1.6c0.53-0.43,1.22-0.64,2.08-0.64c0.92,0,1.65,0.22,2.2,0.65s0.82,0.99,0.82,1.68h-1.93
		c0-0.28-0.09-0.5-0.27-0.68s-0.46-0.27-0.83-0.27c-0.32,0-0.58,0.07-0.75,0.22s-0.27,0.33-0.27,0.56c0,0.21,0.1,0.39,0.3,0.52
		s0.54,0.24,1.02,0.34c0.48,0.1,0.88,0.2,1.21,0.32c1.02,0.37,1.53,1.02,1.53,1.94c0,0.66-0.28,1.19-0.85,1.6
		c-0.56,0.41-1.29,0.61-2.19,0.61c-0.6,0-1.14-0.11-1.61-0.32c-0.47-0.22-0.84-0.51-1.1-0.89s-0.4-0.78-0.4-1.22h1.83
		c0.02,0.34,0.14,0.6,0.38,0.79c0.24,0.18,0.55,0.27,0.95,0.27c0.37,0,0.65-0.07,0.84-0.21
		C180.97,144.16,181.07,143.97,181.07,143.75z"/>
	<path class="st1" d="M187.5,145.87c-1.06,0-1.92-0.32-2.58-0.97c-0.67-0.65-1-1.51-1-2.59v-0.19c0-0.72,0.14-1.37,0.42-1.94
		c0.28-0.57,0.68-1.01,1.19-1.32c0.51-0.31,1.1-0.46,1.76-0.46c0.99,0,1.76,0.31,2.33,0.93c0.57,0.62,0.85,1.5,0.85,2.65v0.79h-4.59
		c0.06,0.47,0.25,0.85,0.56,1.13c0.31,0.28,0.71,0.43,1.19,0.43c0.74,0,1.32-0.27,1.74-0.81l0.95,1.06
		c-0.29,0.41-0.68,0.73-1.17,0.96S188.1,145.87,187.5,145.87z M187.28,139.95c-0.38,0-0.69,0.13-0.93,0.39
		c-0.24,0.26-0.39,0.63-0.46,1.11h2.68v-0.15c-0.01-0.43-0.12-0.76-0.35-0.99C188,140.07,187.69,139.95,187.28,139.95z"/>
	<path class="st1" d="M193.59,145.74h-1.93V135.5h1.93V145.74z"/>
	<path class="st1" d="M195.7,145.74v-5.8h-1.07v-1.41h1.07v-0.61c0-0.81,0.23-1.44,0.7-1.88c0.46-0.45,1.11-0.67,1.95-0.67
		c0.27,0,0.59,0.04,0.98,0.13l-0.02,1.49c-0.16-0.04-0.36-0.06-0.59-0.06c-0.72,0-1.09,0.34-1.09,1.02v0.58h1.43v1.41h-1.43v5.8
		H195.7z"/>
</g>
</svg>
