<?xml version="1.0" encoding="utf-8"?>
<!-- Generator: Adobe Illustrator 25.3.1, SVG Export Plug-In . SVG Version: 6.00 Build 0)  -->
<svg version="1.1" id="Layer_1" xmlns="http://www.w3.org/2000/svg" xmlns:xlink="http://www.w3.org/1999/xlink" x="0px" y="0px"
	 viewBox="0 0 300 250" style="enable-background:new 0 0 300 250;" xml:space="preserve">
<style type="text/css">
	.st0{fill:#FFFFFF;}
</style>
<g>
	<path class="st0" d="M84.29,190.77h-2.79v-0.39l1.48-1.64c0.22-0.25,0.37-0.45,0.45-0.6s0.12-0.32,0.12-0.48
		c0-0.22-0.07-0.41-0.2-0.55s-0.31-0.21-0.54-0.21c-0.27,0-0.48,0.08-0.63,0.23c-0.15,0.15-0.22,0.37-0.22,0.64h-0.54
		c0-0.39,0.13-0.71,0.38-0.95c0.25-0.24,0.59-0.36,1.01-0.36c0.4,0,0.71,0.1,0.94,0.31s0.35,0.48,0.35,0.83
		c0,0.42-0.27,0.92-0.8,1.5l-1.14,1.24h2.14V190.77z"/>
	<path class="st0" d="M87.54,188.95c0,0.63-0.11,1.11-0.33,1.42s-0.56,0.46-1.02,0.46c-0.46,0-0.79-0.15-1.01-0.45
		s-0.33-0.75-0.34-1.35v-0.72c0-0.63,0.11-1.09,0.33-1.4s0.56-0.46,1.02-0.46c0.46,0,0.8,0.15,1.01,0.44s0.33,0.75,0.33,1.36V188.95
		z M86.99,188.21c0-0.46-0.06-0.79-0.19-1s-0.33-0.32-0.61-0.32c-0.28,0-0.48,0.1-0.61,0.31s-0.19,0.53-0.2,0.96v0.87
		c0,0.46,0.07,0.8,0.2,1.02c0.13,0.22,0.34,0.33,0.61,0.33c0.27,0,0.47-0.1,0.6-0.31s0.2-0.53,0.2-0.98V188.21z"/>
	<path class="st0" d="M91.02,190.77h-2.79v-0.39l1.48-1.64c0.22-0.25,0.37-0.45,0.45-0.6s0.12-0.32,0.12-0.48
		c0-0.22-0.07-0.41-0.2-0.55s-0.31-0.21-0.54-0.21c-0.27,0-0.48,0.08-0.63,0.23c-0.15,0.15-0.22,0.37-0.22,0.64h-0.54
		c0-0.39,0.13-0.71,0.38-0.95c0.25-0.24,0.59-0.36,1.01-0.36c0.4,0,0.71,0.1,0.94,0.31s0.35,0.48,0.35,0.83
		c0,0.42-0.27,0.92-0.8,1.5l-1.14,1.24h2.14V190.77z"/>
	<path class="st0" d="M93.38,190.77h-0.54v-3.61l-1.09,0.4v-0.49l1.55-0.58h0.08V190.77z"/>
	<path class="st0" d="M97.2,190.77h-0.56v-4.27h0.56V190.77z"/>
	<path class="st0" d="M98.01,189.16c0-0.49,0.12-0.88,0.35-1.17s0.53-0.44,0.91-0.44c0.37,0,0.67,0.13,0.88,0.38v-1.65h0.54v4.5
		h-0.5l-0.03-0.34c-0.22,0.27-0.52,0.4-0.91,0.4c-0.37,0-0.67-0.15-0.9-0.45c-0.23-0.3-0.35-0.69-0.35-1.18V189.16z M98.55,189.22
		c0,0.36,0.07,0.64,0.22,0.84s0.35,0.3,0.62,0.3c0.34,0,0.59-0.15,0.75-0.46v-1.46c-0.16-0.3-0.41-0.45-0.75-0.45
		c-0.27,0-0.47,0.1-0.62,0.31S98.55,188.81,98.55,189.22z"/>
	<path class="st0" d="M102.84,190.83c-0.43,0-0.78-0.14-1.05-0.42s-0.4-0.66-0.4-1.13v-0.1c0-0.31,0.06-0.59,0.18-0.84
		c0.12-0.25,0.29-0.44,0.5-0.58c0.21-0.14,0.45-0.21,0.7-0.21c0.41,0,0.73,0.14,0.96,0.41s0.34,0.66,0.34,1.17v0.23h-2.15
		c0.01,0.31,0.1,0.57,0.27,0.76s0.4,0.29,0.67,0.29c0.19,0,0.35-0.04,0.49-0.12s0.25-0.18,0.35-0.31l0.33,0.26
		C103.77,190.62,103.37,190.83,102.84,190.83z M102.77,187.98c-0.22,0-0.4,0.08-0.55,0.24s-0.24,0.38-0.28,0.67h1.59v-0.04
		c-0.02-0.28-0.09-0.49-0.22-0.64S103,187.98,102.77,187.98z"/>
	<path class="st0" d="M105.22,187.6l0.02,0.4c0.24-0.3,0.56-0.46,0.95-0.46c0.67,0,1.01,0.38,1.01,1.13v2.09h-0.54v-2.1
		c0-0.23-0.05-0.4-0.16-0.51c-0.1-0.11-0.26-0.16-0.48-0.16c-0.18,0-0.33,0.05-0.46,0.14s-0.24,0.22-0.31,0.37v2.26h-0.54v-3.17
		H105.22z"/>
	<path class="st0" d="M108.75,186.83v0.77h0.59v0.42h-0.59v1.97c0,0.13,0.03,0.22,0.08,0.29s0.14,0.09,0.27,0.09
		c0.06,0,0.15-0.01,0.26-0.04v0.44c-0.14,0.04-0.28,0.06-0.42,0.06c-0.24,0-0.42-0.07-0.55-0.22s-0.18-0.35-0.18-0.62v-1.97h-0.58
		v-0.42h0.58v-0.77H108.75z"/>
	<path class="st0" d="M109.98,186.76c0-0.09,0.03-0.16,0.08-0.22c0.05-0.06,0.13-0.09,0.24-0.09s0.19,0.03,0.24,0.09
		s0.08,0.13,0.08,0.22s-0.03,0.16-0.08,0.22s-0.13,0.09-0.24,0.09s-0.19-0.03-0.24-0.09C110,186.92,109.98,186.84,109.98,186.76z
		 M110.56,190.77h-0.54v-3.17h0.54V190.77z"/>
	<path class="st0" d="M112.17,186.83v0.77h0.59v0.42h-0.59v1.97c0,0.13,0.03,0.22,0.08,0.29s0.14,0.09,0.27,0.09
		c0.06,0,0.15-0.01,0.26-0.04v0.44c-0.14,0.04-0.28,0.06-0.42,0.06c-0.24,0-0.42-0.07-0.55-0.22s-0.18-0.35-0.18-0.62v-1.97h-0.58
		v-0.42h0.58v-0.77H112.17z"/>
	<path class="st0" d="M114.43,189.97l0.74-2.38h0.58l-1.27,3.66c-0.2,0.53-0.51,0.79-0.94,0.79l-0.1-0.01l-0.2-0.04v-0.44l0.15,0.01
		c0.18,0,0.33-0.04,0.43-0.11c0.1-0.07,0.19-0.21,0.25-0.41l0.12-0.32l-1.13-3.13h0.59L114.43,189.97z"/>
	<path class="st0" d="M120.15,188.88h-1.79v1.88h-0.56v-4.27h2.64v0.46h-2.08v1.46h1.79V188.88z"/>
	<path class="st0" d="M122.49,188.08c-0.08-0.01-0.17-0.02-0.27-0.02c-0.36,0-0.6,0.15-0.72,0.45v2.25h-0.54v-3.17h0.53l0.01,0.37
		c0.18-0.28,0.43-0.42,0.76-0.42c0.11,0,0.19,0.01,0.24,0.04V188.08z"/>
	<path class="st0" d="M124.82,190.77c-0.03-0.06-0.06-0.17-0.08-0.33c-0.25,0.26-0.55,0.39-0.9,0.39c-0.31,0-0.57-0.09-0.77-0.26
		s-0.3-0.4-0.3-0.67c0-0.33,0.12-0.59,0.38-0.77s0.6-0.27,1.06-0.27h0.53v-0.25c0-0.19-0.06-0.34-0.17-0.45s-0.28-0.17-0.5-0.17
		c-0.19,0-0.36,0.05-0.49,0.15s-0.2,0.22-0.2,0.35h-0.54c0-0.16,0.06-0.31,0.17-0.46c0.11-0.15,0.26-0.26,0.46-0.35
		c0.19-0.09,0.4-0.13,0.63-0.13c0.37,0,0.65,0.09,0.86,0.27s0.31,0.43,0.32,0.75v1.46c0,0.29,0.04,0.52,0.11,0.69v0.05H124.82z
		 M123.93,190.35c0.17,0,0.33-0.04,0.48-0.13s0.26-0.2,0.33-0.34v-0.65h-0.42c-0.66,0-1,0.19-1,0.58c0,0.17,0.06,0.3,0.17,0.4
		S123.75,190.35,123.93,190.35z"/>
	<path class="st0" d="M128.09,190.45c-0.21,0.25-0.52,0.37-0.93,0.37c-0.34,0-0.6-0.1-0.77-0.29s-0.27-0.49-0.27-0.87v-2.06h0.54
		v2.05c0,0.48,0.2,0.72,0.59,0.72c0.41,0,0.69-0.15,0.83-0.46v-2.31h0.54v3.17h-0.52L128.09,190.45z"/>
	<path class="st0" d="M129.31,189.16c0-0.49,0.12-0.88,0.35-1.17s0.53-0.44,0.91-0.44c0.37,0,0.67,0.13,0.88,0.38v-1.65h0.54v4.5
		h-0.5l-0.03-0.34c-0.22,0.27-0.52,0.4-0.91,0.4c-0.37,0-0.67-0.15-0.9-0.45c-0.23-0.3-0.35-0.69-0.35-1.18V189.16z M129.85,189.22
		c0,0.36,0.07,0.64,0.22,0.84s0.35,0.3,0.62,0.3c0.34,0,0.59-0.15,0.75-0.46v-1.46c-0.16-0.3-0.41-0.45-0.75-0.45
		c-0.27,0-0.47,0.1-0.62,0.31S129.85,188.81,129.85,189.22z"/>
	<path class="st0" d="M135.65,188.87c-0.48-0.14-0.83-0.31-1.05-0.51c-0.22-0.2-0.33-0.45-0.33-0.75c0-0.34,0.13-0.61,0.4-0.83
		s0.62-0.33,1.05-0.33c0.29,0,0.55,0.06,0.78,0.17c0.23,0.11,0.41,0.27,0.53,0.47c0.12,0.2,0.19,0.42,0.19,0.65h-0.57
		c0-0.26-0.08-0.46-0.25-0.61c-0.16-0.15-0.4-0.22-0.69-0.22c-0.28,0-0.49,0.06-0.65,0.18c-0.15,0.12-0.23,0.29-0.23,0.51
		c0,0.17,0.07,0.32,0.22,0.44s0.4,0.23,0.75,0.33c0.35,0.1,0.63,0.21,0.83,0.33c0.2,0.12,0.35,0.26,0.45,0.42
		c0.1,0.16,0.14,0.35,0.14,0.57c0,0.35-0.13,0.62-0.4,0.83s-0.63,0.31-1.08,0.31c-0.29,0-0.57-0.06-0.82-0.17s-0.45-0.27-0.59-0.46
		c-0.14-0.2-0.21-0.42-0.21-0.67h0.57c0,0.26,0.09,0.46,0.29,0.61c0.19,0.15,0.44,0.22,0.76,0.22c0.3,0,0.52-0.06,0.68-0.18
		s0.24-0.29,0.24-0.5s-0.07-0.37-0.22-0.48S136.03,188.98,135.65,188.87z"/>
	<path class="st0" d="M138.6,186.83v0.77h0.59v0.42h-0.59v1.97c0,0.13,0.03,0.22,0.08,0.29s0.14,0.09,0.27,0.09
		c0.06,0,0.15-0.01,0.26-0.04v0.44c-0.14,0.04-0.28,0.06-0.42,0.06c-0.24,0-0.42-0.07-0.55-0.22s-0.18-0.35-0.18-0.62v-1.97h-0.58
		v-0.42h0.58v-0.77H138.6z"/>
	<path class="st0" d="M141.78,190.45c-0.21,0.25-0.52,0.37-0.93,0.37c-0.34,0-0.6-0.1-0.77-0.29s-0.27-0.49-0.27-0.87v-2.06h0.54
		v2.05c0,0.48,0.2,0.72,0.59,0.72c0.41,0,0.69-0.15,0.83-0.46v-2.31h0.54v3.17h-0.52L141.78,190.45z"/>
	<path class="st0" d="M143,189.16c0-0.49,0.12-0.88,0.35-1.17s0.53-0.44,0.91-0.44c0.37,0,0.67,0.13,0.88,0.38v-1.65h0.54v4.5h-0.5
		l-0.03-0.34c-0.22,0.27-0.52,0.4-0.91,0.4c-0.37,0-0.67-0.15-0.9-0.45c-0.23-0.3-0.35-0.69-0.35-1.18V189.16z M143.55,189.22
		c0,0.36,0.07,0.64,0.22,0.84s0.35,0.3,0.62,0.3c0.34,0,0.59-0.15,0.75-0.46v-1.46c-0.16-0.3-0.41-0.45-0.75-0.45
		c-0.27,0-0.47,0.1-0.62,0.31S143.55,188.81,143.55,189.22z"/>
	<path class="st0" d="M147.56,189.97l0.74-2.38h0.58l-1.27,3.66c-0.2,0.53-0.51,0.79-0.94,0.79l-0.1-0.01l-0.2-0.04v-0.44l0.15,0.01
		c0.18,0,0.33-0.04,0.43-0.11c0.1-0.07,0.19-0.21,0.25-0.41l0.12-0.32l-1.13-3.13h0.59L147.56,189.97z"/>
	<path class="st0" d="M149.34,191.62l-0.31-0.21c0.18-0.26,0.28-0.52,0.29-0.79v-0.49h0.53v0.42c0,0.2-0.05,0.39-0.14,0.59
		C149.61,191.34,149.49,191.5,149.34,191.62z"/>
	<path class="st0" d="M153.89,186.5h0.57v3.02c0,0.41-0.12,0.73-0.37,0.96c-0.25,0.23-0.57,0.35-0.98,0.35
		c-0.42,0-0.75-0.11-0.99-0.33s-0.35-0.52-0.35-0.91h0.56c0,0.24,0.07,0.43,0.2,0.57s0.33,0.21,0.58,0.21
		c0.23,0,0.42-0.07,0.56-0.22c0.14-0.15,0.22-0.35,0.22-0.62V186.5z"/>
	<path class="st0" d="M157.29,190.77c-0.03-0.06-0.06-0.17-0.08-0.33c-0.25,0.26-0.55,0.39-0.9,0.39c-0.31,0-0.57-0.09-0.77-0.26
		s-0.3-0.4-0.3-0.67c0-0.33,0.12-0.59,0.38-0.77s0.6-0.27,1.06-0.27h0.53v-0.25c0-0.19-0.06-0.34-0.17-0.45s-0.28-0.17-0.5-0.17
		c-0.19,0-0.36,0.05-0.49,0.15s-0.2,0.22-0.2,0.35h-0.54c0-0.16,0.06-0.31,0.17-0.46c0.11-0.15,0.26-0.26,0.46-0.35
		c0.19-0.09,0.4-0.13,0.63-0.13c0.37,0,0.65,0.09,0.86,0.27s0.31,0.43,0.32,0.75v1.46c0,0.29,0.04,0.52,0.11,0.69v0.05H157.29z
		 M156.39,190.35c0.17,0,0.33-0.04,0.48-0.13s0.26-0.2,0.33-0.34v-0.65h-0.42c-0.66,0-1,0.19-1,0.58c0,0.17,0.06,0.3,0.17,0.4
		S156.21,190.35,156.39,190.35z"/>
	<path class="st0" d="M159.6,190.03l0.79-2.43h0.55l-1.14,3.17h-0.41l-1.15-3.17h0.55L159.6,190.03z"/>
	<path class="st0" d="M162.77,190.83c-0.43,0-0.78-0.14-1.05-0.42s-0.4-0.66-0.4-1.13v-0.1c0-0.31,0.06-0.59,0.18-0.84
		c0.12-0.25,0.29-0.44,0.5-0.58c0.21-0.14,0.45-0.21,0.7-0.21c0.41,0,0.73,0.14,0.96,0.41s0.34,0.66,0.34,1.17v0.23h-2.15
		c0.01,0.31,0.1,0.57,0.27,0.76s0.4,0.29,0.67,0.29c0.19,0,0.35-0.04,0.49-0.12s0.25-0.18,0.35-0.31l0.33,0.26
		C163.7,190.62,163.3,190.83,162.77,190.83z M162.71,187.98c-0.22,0-0.4,0.08-0.55,0.24s-0.24,0.38-0.28,0.67h1.59v-0.04
		c-0.02-0.28-0.09-0.49-0.22-0.64S162.93,187.98,162.71,187.98z"/>
	<path class="st0" d="M165.22,190.77h-0.54v-4.5h0.54V190.77z"/>
	<path class="st0" d="M166.09,186.76c0-0.09,0.03-0.16,0.08-0.22c0.05-0.06,0.13-0.09,0.24-0.09s0.19,0.03,0.24,0.09
		s0.08,0.13,0.08,0.22s-0.03,0.16-0.08,0.22s-0.13,0.09-0.24,0.09s-0.19-0.03-0.24-0.09C166.12,186.92,166.09,186.84,166.09,186.76z
		 M166.68,190.77h-0.54v-3.17h0.54V190.77z"/>
	<path class="st0" d="M168.06,187.6l0.02,0.4c0.24-0.3,0.56-0.46,0.95-0.46c0.67,0,1.01,0.38,1.01,1.13v2.09h-0.54v-2.1
		c0-0.23-0.05-0.4-0.16-0.51c-0.1-0.11-0.26-0.16-0.48-0.16c-0.18,0-0.33,0.05-0.46,0.14s-0.24,0.22-0.31,0.37v2.26h-0.54v-3.17
		H168.06z"/>
	<path class="st0" d="M173.69,188.87c-0.48-0.14-0.83-0.31-1.05-0.51c-0.22-0.2-0.33-0.45-0.33-0.75c0-0.34,0.13-0.61,0.4-0.83
		s0.62-0.33,1.05-0.33c0.29,0,0.55,0.06,0.78,0.17c0.23,0.11,0.41,0.27,0.53,0.47c0.12,0.2,0.19,0.42,0.19,0.65h-0.57
		c0-0.26-0.08-0.46-0.25-0.61c-0.16-0.15-0.4-0.22-0.69-0.22c-0.28,0-0.49,0.06-0.65,0.18c-0.15,0.12-0.23,0.29-0.23,0.51
		c0,0.17,0.07,0.32,0.22,0.44s0.4,0.23,0.75,0.33c0.35,0.1,0.63,0.21,0.83,0.33c0.2,0.12,0.35,0.26,0.45,0.42
		c0.1,0.16,0.14,0.35,0.14,0.57c0,0.35-0.13,0.62-0.4,0.83s-0.63,0.31-1.08,0.31c-0.29,0-0.57-0.06-0.82-0.17s-0.45-0.27-0.59-0.46
		c-0.14-0.2-0.21-0.42-0.21-0.67h0.57c0,0.26,0.09,0.46,0.29,0.61c0.19,0.15,0.44,0.22,0.76,0.22c0.3,0,0.52-0.06,0.68-0.18
		s0.24-0.29,0.24-0.5s-0.07-0.37-0.22-0.48S174.07,188.98,173.69,188.87z"/>
	<path class="st0" d="M176.64,186.83v0.77h0.59v0.42h-0.59v1.97c0,0.13,0.03,0.22,0.08,0.29s0.14,0.09,0.27,0.09
		c0.06,0,0.15-0.01,0.26-0.04v0.44c-0.14,0.04-0.28,0.06-0.42,0.06c-0.24,0-0.42-0.07-0.55-0.22s-0.18-0.35-0.18-0.62v-1.97h-0.58
		v-0.42h0.58v-0.77H176.64z"/>
	<path class="st0" d="M179.4,188.08c-0.08-0.01-0.17-0.02-0.27-0.02c-0.36,0-0.6,0.15-0.72,0.45v2.25h-0.54v-3.17h0.53l0.01,0.37
		c0.18-0.28,0.43-0.42,0.76-0.42c0.11,0,0.19,0.01,0.24,0.04V188.08z"/>
	<path class="st0" d="M181.73,190.77c-0.03-0.06-0.06-0.17-0.08-0.33c-0.25,0.26-0.55,0.39-0.9,0.39c-0.31,0-0.57-0.09-0.77-0.26
		s-0.3-0.4-0.3-0.67c0-0.33,0.12-0.59,0.38-0.77s0.6-0.27,1.06-0.27h0.53v-0.25c0-0.19-0.06-0.34-0.17-0.45s-0.28-0.17-0.5-0.17
		c-0.19,0-0.36,0.05-0.49,0.15s-0.2,0.22-0.2,0.35h-0.54c0-0.16,0.06-0.31,0.17-0.46c0.11-0.15,0.26-0.26,0.46-0.35
		c0.19-0.09,0.4-0.13,0.63-0.13c0.37,0,0.65,0.09,0.86,0.27s0.31,0.43,0.32,0.75v1.46c0,0.29,0.04,0.52,0.11,0.69v0.05H181.73z
		 M180.83,190.35c0.17,0,0.33-0.04,0.48-0.13s0.26-0.2,0.33-0.34v-0.65h-0.42c-0.66,0-1,0.19-1,0.58c0,0.17,0.06,0.3,0.17,0.4
		S180.66,190.35,180.83,190.35z"/>
	<path class="st0" d="M183.78,186.83v0.77h0.59v0.42h-0.59v1.97c0,0.13,0.03,0.22,0.08,0.29s0.14,0.09,0.27,0.09
		c0.06,0,0.15-0.01,0.26-0.04v0.44c-0.14,0.04-0.28,0.06-0.42,0.06c-0.24,0-0.42-0.07-0.55-0.22s-0.18-0.35-0.18-0.62v-1.97h-0.58
		v-0.42h0.58v-0.77H183.78z"/>
	<path class="st0" d="M186.32,190.83c-0.43,0-0.78-0.14-1.05-0.42s-0.4-0.66-0.4-1.13v-0.1c0-0.31,0.06-0.59,0.18-0.84
		c0.12-0.25,0.29-0.44,0.5-0.58c0.21-0.14,0.45-0.21,0.7-0.21c0.41,0,0.73,0.14,0.96,0.41s0.34,0.66,0.34,1.17v0.23h-2.15
		c0.01,0.31,0.1,0.57,0.27,0.76s0.4,0.29,0.67,0.29c0.19,0,0.35-0.04,0.49-0.12s0.25-0.18,0.35-0.31l0.33,0.26
		C187.25,190.62,186.85,190.83,186.32,190.83z M186.25,187.98c-0.22,0-0.4,0.08-0.55,0.24s-0.24,0.38-0.28,0.67h1.59v-0.04
		c-0.02-0.28-0.09-0.49-0.22-0.64S186.47,187.98,186.25,187.98z"/>
	<path class="st0" d="M188.05,189.16c0-0.49,0.11-0.89,0.34-1.18s0.53-0.44,0.91-0.44c0.39,0,0.69,0.14,0.91,0.41l0.03-0.35h0.5
		v3.09c0,0.41-0.12,0.73-0.37,0.97c-0.24,0.24-0.57,0.35-0.98,0.35c-0.23,0-0.45-0.05-0.67-0.15s-0.39-0.23-0.5-0.4l0.28-0.33
		c0.23,0.29,0.52,0.43,0.85,0.43c0.26,0,0.47-0.07,0.62-0.22c0.15-0.15,0.22-0.36,0.22-0.63v-0.27c-0.22,0.25-0.51,0.38-0.89,0.38
		c-0.37,0-0.67-0.15-0.9-0.45S188.05,189.67,188.05,189.16z M188.59,189.22c0,0.36,0.07,0.64,0.22,0.84s0.35,0.31,0.62,0.31
		c0.34,0,0.59-0.16,0.75-0.47v-1.45c-0.17-0.3-0.42-0.45-0.75-0.45c-0.26,0-0.47,0.1-0.62,0.31S188.59,188.81,188.59,189.22z"/>
	<path class="st0" d="M192.58,189.97l0.74-2.38h0.58l-1.27,3.66c-0.2,0.53-0.51,0.79-0.94,0.79l-0.1-0.01l-0.2-0.04v-0.44l0.15,0.01
		c0.18,0,0.33-0.04,0.43-0.11c0.1-0.07,0.19-0.21,0.25-0.41l0.12-0.32l-1.13-3.13h0.59L192.58,189.97z"/>
	<path class="st0" d="M195.75,189.62c0-0.21,0.06-0.39,0.17-0.57c0.12-0.17,0.33-0.37,0.66-0.6c-0.19-0.23-0.32-0.42-0.38-0.56
		s-0.1-0.28-0.1-0.42c0-0.32,0.1-0.58,0.29-0.76s0.45-0.28,0.78-0.28c0.29,0,0.54,0.09,0.73,0.26s0.29,0.39,0.29,0.65
		c0,0.17-0.04,0.33-0.13,0.48s-0.24,0.3-0.46,0.46l-0.31,0.23l0.95,1.13c0.13-0.25,0.2-0.54,0.2-0.85h0.49
		c0,0.5-0.12,0.91-0.36,1.24l0.61,0.73h-0.65l-0.28-0.34c-0.14,0.13-0.31,0.23-0.51,0.29c-0.2,0.07-0.39,0.1-0.59,0.1
		c-0.42,0-0.75-0.11-1-0.33S195.75,189.98,195.75,189.62z M197.13,190.38c0.29,0,0.55-0.11,0.79-0.33l-1.04-1.25l-0.1,0.07
		c-0.33,0.24-0.49,0.49-0.49,0.74c0,0.23,0.07,0.42,0.22,0.55C196.67,190.31,196.88,190.38,197.13,190.38z M196.65,187.46
		c0,0.19,0.12,0.42,0.35,0.7l0.35-0.24c0.13-0.09,0.22-0.18,0.27-0.27s0.07-0.19,0.07-0.31c0-0.13-0.05-0.24-0.15-0.33
		s-0.22-0.13-0.37-0.13c-0.16,0-0.29,0.05-0.38,0.16S196.65,187.3,196.65,187.46z"/>
	<path class="st0" d="M202.73,189.04h-1v1.73h-0.57v-4.27h1.41c0.48,0,0.85,0.11,1.11,0.33c0.26,0.22,0.39,0.54,0.39,0.96
		c0,0.27-0.07,0.5-0.22,0.69c-0.14,0.2-0.34,0.34-0.6,0.44l1,1.81v0.04h-0.6L202.73,189.04z M201.73,188.58h0.86
		c0.28,0,0.5-0.07,0.67-0.22s0.25-0.34,0.25-0.58c0-0.26-0.08-0.47-0.24-0.61c-0.16-0.14-0.38-0.21-0.68-0.21h-0.86V188.58z"/>
	<path class="st0" d="M206.09,190.83c-0.43,0-0.78-0.14-1.05-0.42s-0.4-0.66-0.4-1.13v-0.1c0-0.31,0.06-0.59,0.18-0.84
		c0.12-0.25,0.29-0.44,0.5-0.58c0.21-0.14,0.45-0.21,0.7-0.21c0.41,0,0.73,0.14,0.96,0.41s0.34,0.66,0.34,1.17v0.23h-2.15
		c0.01,0.31,0.1,0.57,0.27,0.76s0.4,0.29,0.67,0.29c0.19,0,0.35-0.04,0.49-0.12s0.25-0.18,0.35-0.31l0.33,0.26
		C207.02,190.62,206.62,190.83,206.09,190.83z M206.03,187.98c-0.22,0-0.4,0.08-0.55,0.24s-0.24,0.38-0.28,0.67h1.59v-0.04
		c-0.02-0.28-0.09-0.49-0.22-0.64S206.25,187.98,206.03,187.98z"/>
	<path class="st0" d="M209.8,189.93c0-0.15-0.06-0.26-0.17-0.34s-0.3-0.15-0.58-0.21c-0.28-0.06-0.49-0.13-0.65-0.21
		c-0.16-0.08-0.28-0.18-0.36-0.29s-0.12-0.25-0.12-0.4c0-0.26,0.11-0.48,0.33-0.66c0.22-0.18,0.5-0.27,0.84-0.27
		c0.36,0,0.65,0.09,0.88,0.28c0.22,0.19,0.33,0.42,0.33,0.71h-0.54c0-0.15-0.06-0.28-0.19-0.38c-0.13-0.11-0.29-0.16-0.48-0.16
		c-0.2,0-0.35,0.04-0.46,0.13s-0.17,0.2-0.17,0.34c0,0.13,0.05,0.23,0.16,0.3s0.29,0.13,0.56,0.19s0.49,0.13,0.66,0.22
		s0.29,0.19,0.37,0.3s0.12,0.26,0.12,0.43c0,0.28-0.11,0.51-0.34,0.68s-0.52,0.26-0.88,0.26c-0.25,0-0.48-0.04-0.67-0.13
		s-0.35-0.21-0.46-0.38s-0.17-0.34-0.17-0.52h0.54c0.01,0.18,0.08,0.33,0.22,0.43c0.13,0.11,0.31,0.16,0.54,0.16
		c0.21,0,0.37-0.04,0.49-0.12C209.74,190.18,209.8,190.06,209.8,189.93z"/>
	<path class="st0" d="M212.37,190.83c-0.43,0-0.78-0.14-1.05-0.42s-0.4-0.66-0.4-1.13v-0.1c0-0.31,0.06-0.59,0.18-0.84
		c0.12-0.25,0.29-0.44,0.5-0.58c0.21-0.14,0.45-0.21,0.7-0.21c0.41,0,0.73,0.14,0.96,0.41s0.34,0.66,0.34,1.17v0.23h-2.15
		c0.01,0.31,0.1,0.57,0.27,0.76s0.4,0.29,0.67,0.29c0.19,0,0.35-0.04,0.49-0.12s0.25-0.18,0.35-0.31l0.33,0.26
		C213.3,190.62,212.9,190.83,212.37,190.83z M212.3,187.98c-0.22,0-0.4,0.08-0.55,0.24s-0.24,0.38-0.28,0.67h1.59v-0.04
		c-0.02-0.28-0.09-0.49-0.22-0.64S212.53,187.98,212.3,187.98z"/>
	<path class="st0" d="M216.19,190.77c-0.03-0.06-0.06-0.17-0.08-0.33c-0.25,0.26-0.55,0.39-0.9,0.39c-0.31,0-0.57-0.09-0.77-0.26
		s-0.3-0.4-0.3-0.67c0-0.33,0.12-0.59,0.38-0.77s0.6-0.27,1.06-0.27h0.53v-0.25c0-0.19-0.06-0.34-0.17-0.45s-0.28-0.17-0.5-0.17
		c-0.19,0-0.36,0.05-0.49,0.15s-0.2,0.22-0.2,0.35h-0.54c0-0.16,0.06-0.31,0.17-0.46c0.11-0.15,0.26-0.26,0.46-0.35
		c0.19-0.09,0.4-0.13,0.63-0.13c0.37,0,0.65,0.09,0.86,0.27s0.31,0.43,0.32,0.75v1.46c0,0.29,0.04,0.52,0.11,0.69v0.05H216.19z
		 M215.29,190.35c0.17,0,0.33-0.04,0.48-0.13s0.26-0.2,0.33-0.34v-0.65h-0.42c-0.66,0-1,0.19-1,0.58c0,0.17,0.06,0.3,0.17,0.4
		S215.11,190.35,215.29,190.35z"/>
	<path class="st0" d="M219.03,188.08c-0.08-0.01-0.17-0.02-0.27-0.02c-0.36,0-0.6,0.15-0.72,0.45v2.25h-0.54v-3.17h0.53l0.01,0.37
		c0.18-0.28,0.43-0.42,0.76-0.42c0.11,0,0.19,0.01,0.24,0.04V188.08z"/>
	<path class="st0" d="M220.74,190.38c0.19,0,0.36-0.06,0.51-0.18s0.22-0.26,0.24-0.44H222c-0.01,0.18-0.07,0.35-0.19,0.52
		s-0.27,0.29-0.46,0.39c-0.19,0.1-0.4,0.15-0.61,0.15c-0.43,0-0.78-0.14-1.03-0.43c-0.26-0.29-0.38-0.68-0.38-1.18v-0.09
		c0-0.31,0.06-0.58,0.17-0.82s0.28-0.43,0.49-0.56c0.21-0.13,0.46-0.2,0.75-0.2c0.36,0,0.65,0.11,0.89,0.32s0.36,0.49,0.38,0.83
		h-0.51c-0.02-0.21-0.09-0.37-0.23-0.5s-0.31-0.2-0.52-0.2c-0.28,0-0.49,0.1-0.64,0.3c-0.15,0.2-0.23,0.48-0.23,0.86v0.1
		c0,0.37,0.08,0.65,0.23,0.84S220.46,190.38,220.74,190.38z"/>
	<path class="st0" d="M223.15,187.98c0.24-0.29,0.55-0.44,0.94-0.44c0.67,0,1.01,0.38,1.01,1.13v2.09h-0.54v-2.1
		c0-0.23-0.05-0.4-0.16-0.51c-0.1-0.11-0.26-0.16-0.48-0.16c-0.18,0-0.33,0.05-0.46,0.14s-0.24,0.22-0.31,0.37v2.26h-0.54v-4.5h0.54
		V187.98z"/>
</g>
</svg>
