<?xml version="1.0" encoding="utf-8"?>
<!-- Generator: Adobe Illustrator 25.3.1, SVG Export Plug-In . SVG Version: 6.00 Build 0)  -->
<svg version="1.1" id="Layer_1" xmlns="http://www.w3.org/2000/svg" xmlns:xlink="http://www.w3.org/1999/xlink" x="0px" y="0px"
	 viewBox="0 0 300 250" style="enable-background:new 0 0 300 250;" xml:space="preserve">
<style type="text/css">
	.st0{fill:#FFFFFF;}
</style>
<g id="PG_x5F_Logo_x5F_Full_5_">
	<path class="st0" d="M119.07,222.96v1.06c0,0.83-0.68,1.51-1.51,1.51c-0.27,0-0.53-0.07-0.76-0.2c-0.25-0.14-0.33-0.46-0.19-0.7
		c0.14-0.25,0.46-0.33,0.7-0.19c0.07,0.04,0.15,0.06,0.24,0.06c0.26,0,0.48-0.21,0.48-0.48v-1.06c0-0.28,0.23-0.52,0.52-0.52
		S119.07,222.68,119.07,222.96z M115.6,225.02c-0.13-0.25-0.44-0.35-0.69-0.22c-0.25,0.13-0.35,0.44-0.22,0.69
		c0.56,1.08,1.66,1.75,2.87,1.75c1.78,0,3.23-1.45,3.23-3.23v-1.06c0-0.28-0.23-0.52-0.52-0.52s-0.52,0.23-0.52,0.52v1.06
		c0,1.21-0.99,2.2-2.2,2.2C116.73,226.22,115.98,225.76,115.6,225.02z M117.41,207.95c-2.65,0.08-4.8,2.34-4.8,5.05v11.02
		c0,1.35,0.53,2.61,1.51,3.55c0.93,0.91,2.15,1.4,3.45,1.4c0.05,0,0.1,0,0.15,0c2.65-0.08,4.8-2.34,4.8-5.05v-0.84
		c0-1.3-1.06-2.36-2.36-2.36h-1.6c-0.28,0-0.52,0.23-0.52,0.52c0,0.28,0.23,0.52,0.52,0.52h1.6c0.73,0,1.33,0.6,1.33,1.33v0.84
		c0,2.15-1.71,3.95-3.8,4.02c-1.07,0.03-2.08-0.36-2.85-1.11c-0.77-0.75-1.19-1.75-1.19-2.81V213c0-2.15,1.71-3.95,3.8-4.02
		c1.07-0.03,2.08,0.36,2.85,1.11c0.77,0.75,1.19,1.75,1.19,2.81v6.47c0,0.28,0.23,0.52,0.52,0.52s0.52-0.23,0.52-0.52v-6.47
		c0-1.35-0.53-2.61-1.51-3.55C120.04,208.41,118.76,207.91,117.41,207.95z M120.79,216.79v-3.88c0-1.78-1.45-3.23-3.23-3.23
		c-1.78,0-3.23,1.45-3.23,3.23v0.6c0,0.28,0.23,0.52,0.52,0.52s0.52-0.23,0.52-0.52v-0.6c0-1.21,0.99-2.2,2.2-2.2
		c1.21,0,2.2,0.99,2.2,2.2v3.88c0,1.21-0.99,2.2-2.2,2.2c-0.28,0-0.55-0.05-0.8-0.15c-0.16-0.06-0.34-0.04-0.48,0.05
		c-0.14,0.1-0.23,0.26-0.23,0.43v3.52c0,0.19-0.16,0.35-0.35,0.35c-0.19,0-0.35-0.16-0.35-0.35v-7.57c0-0.28-0.23-0.52-0.52-0.52
		s-0.52,0.23-0.52,0.52v7.57c0,0.76,0.62,1.38,1.38,1.38c0.76,0,1.38-0.62,1.38-1.38l0-2.85c0.16,0.02,0.32,0.04,0.48,0.04
		C119.34,220.02,120.79,218.57,120.79,216.79z M124.23,213.02v8.14v0.13v2.73c0,1.81-0.72,3.51-2.01,4.78
		c-1.26,1.23-2.91,1.9-4.66,1.9c-0.05,0-0.11,0-0.16,0c-3.59-0.08-6.52-3.13-6.52-6.79V212.9c0-1.81,0.72-3.51,2.01-4.77
		c1.3-1.27,3.01-1.94,4.82-1.9C121.31,206.31,124.23,209.36,124.23,213.02z M123.2,221.29v-0.13v-8.14c0-3.1-2.47-5.69-5.51-5.76
		c-1.53-0.04-2.98,0.53-4.08,1.61c-1.1,1.07-1.7,2.51-1.7,4.04v10.99c0,3.1,2.47,5.69,5.51,5.76c1.53,0.03,2.98-0.53,4.08-1.61
		c1.1-1.07,1.7-2.51,1.7-4.04V221.29z M116.05,216.79v-3.88c0-0.83,0.68-1.51,1.51-1.51c0.83,0,1.51,0.68,1.51,1.51v3.88
		c0,0.83-0.68,1.51-1.51,1.51C116.73,218.29,116.05,217.62,116.05,216.79z M117.08,216.79c0,0.26,0.21,0.48,0.48,0.48
		c0.26,0,0.48-0.21,0.48-0.48v-3.88c0-0.26-0.21-0.48-0.48-0.48c-0.26,0-0.48,0.21-0.48,0.48V216.79z"/>
	<path class="st0" d="M141.13,216.01c0.1,0.1,0.16,0.22,0.16,0.37v5.73c0,0.15-0.05,0.27-0.15,0.37c-0.1,0.1-0.22,0.15-0.37,0.15
		c-0.14,0-0.26-0.05-0.36-0.15c-0.1-0.1-0.16-0.22-0.16-0.37v-5.73c0-0.15,0.05-0.27,0.15-0.37c0.1-0.1,0.22-0.15,0.37-0.15
		C140.91,215.86,141.03,215.91,141.13,216.01z M140.77,213.46c-0.15,0-0.27,0.05-0.37,0.15c-0.1,0.1-0.15,0.22-0.15,0.37v0.4
		c0,0.15,0.05,0.27,0.16,0.37c0.1,0.1,0.23,0.15,0.36,0.15c0.15,0,0.27-0.05,0.37-0.15c0.1-0.1,0.15-0.22,0.15-0.37v-0.4
		c0-0.15-0.05-0.27-0.16-0.37C141.03,213.51,140.91,213.46,140.77,213.46z M138.94,216.08c-0.18-0.05-0.43-0.09-0.74-0.12
		c-0.56,0-1.05,0.16-1.47,0.47c-0.03-0.12-0.09-0.22-0.18-0.3c-0.09-0.08-0.2-0.11-0.31-0.11c-0.14,0-0.26,0.05-0.36,0.15
		c-0.1,0.1-0.15,0.22-0.15,0.36v1.75v3.86c0,0.14,0.05,0.26,0.15,0.36c0.1,0.1,0.22,0.15,0.35,0.15c0.14,0,0.26-0.05,0.36-0.15
		c0.1-0.1,0.15-0.22,0.15-0.36v-3.82c0.01-0.19,0.05-0.36,0.12-0.52c0.07-0.16,0.17-0.3,0.3-0.42c0.13-0.12,0.28-0.22,0.44-0.29
		c0.16-0.07,0.34-0.11,0.54-0.11c0.25,0,0.48,0.06,0.71,0.19c0.09,0.06,0.19,0.09,0.31,0.09c0.14,0,0.26-0.05,0.36-0.14
		c0.1-0.09,0.15-0.22,0.15-0.37c0-0.19-0.08-0.33-0.23-0.43C139.29,216.21,139.13,216.13,138.94,216.08z M147.46,215.85
		c-0.23,0-0.39,0.1-0.48,0.31l-2.02,4.71l-2.02-4.71c-0.05-0.1-0.11-0.18-0.2-0.23c-0.09-0.05-0.18-0.08-0.28-0.08
		c-0.15,0-0.28,0.05-0.37,0.16c-0.09,0.11-0.14,0.23-0.14,0.35c0,0.07,0.01,0.14,0.04,0.2l2.48,5.8c0.08,0.21,0.24,0.31,0.48,0.31
		c0.22,0,0.38-0.1,0.48-0.31l2.48-5.8c0.03-0.06,0.04-0.13,0.04-0.2c0-0.13-0.05-0.25-0.14-0.35
		C147.73,215.9,147.61,215.85,147.46,215.85z M152.86,217.31c0.13,0.3,0.2,0.62,0.2,0.96v3.85c0,0.15-0.05,0.27-0.16,0.37
		c-0.1,0.1-0.23,0.15-0.36,0.15c-0.13,0-0.24-0.04-0.33-0.12c-0.1-0.08-0.15-0.18-0.17-0.29c-0.42,0.31-0.9,0.46-1.45,0.46
		c-0.34,0-0.65-0.06-0.96-0.19c-0.3-0.13-0.56-0.3-0.78-0.53c-0.22-0.22-0.4-0.48-0.53-0.78c-0.13-0.3-0.2-0.62-0.2-0.95v-1.96
		c0-0.34,0.06-0.65,0.19-0.96c0.13-0.3,0.3-0.56,0.53-0.78c0.23-0.22,0.49-0.4,0.78-0.53c0.3-0.13,0.62-0.19,0.96-0.19
		c0.34,0,0.65,0.06,0.95,0.19c0.3,0.13,0.56,0.3,0.78,0.53C152.56,216.75,152.73,217.01,152.86,217.31z M152.03,218.26
		c0-0.19-0.04-0.37-0.12-0.55c-0.08-0.17-0.18-0.32-0.31-0.46c-0.13-0.13-0.28-0.23-0.46-0.31c-0.18-0.07-0.36-0.11-0.55-0.11
		c-0.2,0-0.39,0.04-0.56,0.11c-0.17,0.07-0.33,0.18-0.46,0.31c-0.13,0.13-0.23,0.28-0.31,0.46c-0.07,0.17-0.11,0.35-0.11,0.55v1.96
		c0,0.19,0.04,0.37,0.12,0.55c0.08,0.17,0.18,0.33,0.31,0.46c0.13,0.13,0.28,0.23,0.46,0.31c0.18,0.07,0.36,0.11,0.55,0.11
		c0.19,0,0.37-0.03,0.55-0.1c0.17-0.07,0.32-0.16,0.45-0.29c0.13-0.12,0.23-0.27,0.31-0.43c0.08-0.16,0.12-0.34,0.13-0.53V218.26z
		 M155.16,217.72c0.07-0.17,0.18-0.32,0.31-0.46c0.13-0.13,0.28-0.23,0.46-0.31c0.17-0.07,0.36-0.11,0.56-0.11
		c0.28,0,0.54,0.08,0.78,0.23c0.24,0.15,0.42,0.37,0.55,0.64c0.04,0.1,0.1,0.18,0.18,0.24c0.09,0.06,0.18,0.09,0.29,0.09
		c0.15,0,0.27-0.05,0.37-0.15c0.1-0.1,0.15-0.22,0.15-0.37c0-0.05-0.01-0.12-0.04-0.19c-0.15-0.36-0.33-0.65-0.55-0.85
		c-0.22-0.2-0.45-0.36-0.68-0.46c-0.23-0.1-0.43-0.16-0.62-0.18c-0.19-0.02-0.31-0.03-0.38-0.03c-0.35,0-0.67,0.06-0.98,0.19
		c-0.3,0.13-0.57,0.3-0.8,0.52c-0.23,0.22-0.41,0.48-0.55,0.78c-0.13,0.3-0.2,0.62-0.2,0.97v1.96c0,0.34,0.07,0.65,0.2,0.95
		c0.13,0.3,0.31,0.56,0.53,0.78c0.22,0.22,0.48,0.4,0.78,0.53c0.3,0.13,0.62,0.19,0.96,0.19c0.01,0,0.1,0,0.27-0.01
		c0.17-0.01,0.37-0.06,0.61-0.15c0.24-0.09,0.49-0.24,0.74-0.45c0.25-0.21,0.47-0.51,0.65-0.91c0.03-0.06,0.04-0.13,0.04-0.19
		c0-0.14-0.05-0.26-0.15-0.36c-0.1-0.1-0.22-0.16-0.37-0.16c-0.11,0-0.2,0.03-0.29,0.09c-0.08,0.06-0.15,0.14-0.19,0.24
		c-0.12,0.27-0.3,0.49-0.53,0.64c-0.24,0.15-0.5,0.23-0.79,0.23c-0.19,0-0.38-0.04-0.55-0.11c-0.18-0.07-0.33-0.18-0.46-0.31
		c-0.13-0.13-0.23-0.28-0.31-0.46c-0.08-0.17-0.12-0.35-0.12-0.55v-1.96C155.05,218.07,155.09,217.89,155.16,217.72z M177.24,215.86
		c-0.15,0-0.27,0.05-0.37,0.15c-0.1,0.1-0.15,0.22-0.15,0.37v3.85c0,0.19-0.04,0.37-0.12,0.55c-0.08,0.17-0.18,0.33-0.31,0.46
		c-0.13,0.13-0.28,0.23-0.46,0.31c-0.18,0.07-0.36,0.11-0.55,0.11c-0.2,0-0.39-0.04-0.56-0.11c-0.17-0.07-0.33-0.18-0.46-0.31
		c-0.13-0.13-0.23-0.28-0.31-0.46c-0.07-0.17-0.11-0.35-0.11-0.55v-3.85c0-0.15-0.05-0.27-0.16-0.37c-0.1-0.1-0.23-0.15-0.36-0.15
		c-0.15,0-0.27,0.05-0.37,0.15c-0.1,0.1-0.15,0.22-0.15,0.37v3.85c0,0.34,0.06,0.65,0.19,0.95c0.13,0.3,0.3,0.56,0.53,0.78
		c0.23,0.22,0.49,0.4,0.78,0.53c0.3,0.13,0.62,0.19,0.96,0.19c0.34,0,0.65-0.06,0.96-0.19c0.3-0.13,0.56-0.3,0.78-0.53
		c0.22-0.22,0.4-0.48,0.53-0.78c0.13-0.3,0.2-0.62,0.2-0.95v-3.85c0-0.15-0.05-0.27-0.16-0.37
		C177.49,215.91,177.37,215.86,177.24,215.86z M183.46,217.31c0.13,0.3,0.2,0.62,0.2,0.96v3.85c0,0.15-0.05,0.27-0.16,0.37
		c-0.1,0.1-0.23,0.15-0.36,0.15c-0.13,0-0.24-0.04-0.33-0.12c-0.1-0.08-0.15-0.18-0.17-0.29c-0.42,0.31-0.9,0.46-1.45,0.46
		c-0.34,0-0.65-0.06-0.96-0.19c-0.3-0.13-0.56-0.3-0.78-0.53c-0.22-0.22-0.4-0.48-0.53-0.78c-0.13-0.3-0.2-0.62-0.2-0.95v-1.96
		c0-0.34,0.06-0.65,0.19-0.96c0.13-0.3,0.3-0.56,0.53-0.78c0.23-0.22,0.49-0.4,0.78-0.53c0.3-0.13,0.62-0.19,0.96-0.19
		c0.34,0,0.65,0.06,0.95,0.19c0.3,0.13,0.56,0.3,0.78,0.53C183.16,216.75,183.33,217.01,183.46,217.31z M182.63,218.26
		c0-0.19-0.04-0.37-0.12-0.55c-0.08-0.17-0.18-0.32-0.31-0.46c-0.13-0.13-0.28-0.23-0.46-0.31c-0.18-0.07-0.36-0.11-0.55-0.11
		c-0.2,0-0.39,0.04-0.56,0.11c-0.17,0.07-0.33,0.18-0.46,0.31c-0.13,0.13-0.23,0.28-0.31,0.46c-0.07,0.17-0.11,0.35-0.11,0.55v1.96
		c0,0.19,0.04,0.37,0.12,0.55c0.08,0.17,0.18,0.33,0.31,0.46c0.13,0.13,0.28,0.23,0.46,0.31c0.18,0.07,0.36,0.11,0.55,0.11
		c0.19,0,0.37-0.03,0.55-0.1c0.17-0.07,0.32-0.16,0.45-0.29c0.13-0.12,0.23-0.27,0.31-0.43c0.08-0.16,0.12-0.34,0.13-0.53V218.26z
		 M187.88,216.08c-0.18-0.05-0.43-0.09-0.74-0.12c-0.56,0-1.05,0.16-1.47,0.47c-0.03-0.12-0.09-0.22-0.18-0.3
		c-0.09-0.08-0.2-0.11-0.31-0.11c-0.14,0-0.26,0.05-0.36,0.15c-0.1,0.1-0.15,0.22-0.15,0.36v1.75v3.86c0,0.14,0.05,0.26,0.15,0.36
		c0.1,0.1,0.22,0.15,0.35,0.15c0.14,0,0.26-0.05,0.36-0.15c0.1-0.1,0.15-0.22,0.15-0.36v-3.82c0.01-0.19,0.05-0.36,0.12-0.52
		c0.07-0.16,0.17-0.3,0.3-0.42c0.13-0.12,0.28-0.22,0.44-0.29c0.16-0.07,0.34-0.11,0.54-0.11c0.25,0,0.48,0.06,0.71,0.19
		c0.09,0.06,0.19,0.09,0.31,0.09c0.14,0,0.26-0.05,0.36-0.14c0.1-0.09,0.15-0.22,0.15-0.37c0-0.19-0.08-0.33-0.23-0.43
		C188.23,216.21,188.06,216.13,187.88,216.08z M193.68,213.61c0.1,0.1,0.16,0.22,0.16,0.37v2.4v3.85v1.88
		c0,0.15-0.05,0.27-0.15,0.37c0,0,0,0,0,0c0,0,0,0,0,0c-0.1,0.1-0.22,0.15-0.37,0.15c-0.14,0-0.26-0.05-0.36-0.15
		c-0.08-0.08-0.12-0.17-0.14-0.27c-0.15,0.11-0.31,0.21-0.49,0.28c-0.3,0.13-0.62,0.19-0.95,0.19c-0.35,0-0.67-0.06-0.96-0.19
		c-0.3-0.13-0.56-0.3-0.78-0.53c-0.23-0.22-0.4-0.48-0.53-0.78c-0.13-0.3-0.19-0.62-0.19-0.95v-1.96c0-0.34,0.07-0.65,0.2-0.96
		c0.13-0.3,0.31-0.56,0.53-0.78c0.22-0.22,0.48-0.4,0.78-0.53c0.3-0.13,0.62-0.19,0.96-0.19c0.26,0,0.52,0.04,0.76,0.12
		c0.24,0.08,0.47,0.2,0.68,0.34v-2.29c0-0.15,0.05-0.27,0.15-0.37c0.1-0.1,0.22-0.15,0.37-0.15
		C193.46,213.46,193.58,213.51,193.68,213.61z M192.69,220.77c0.07-0.15,0.1-0.3,0.11-0.46v-2.13c-0.01-0.16-0.04-0.31-0.1-0.46
		c-0.07-0.17-0.18-0.32-0.31-0.46c-0.13-0.13-0.28-0.23-0.46-0.31c-0.17-0.07-0.36-0.11-0.56-0.11c-0.19,0-0.38,0.04-0.55,0.11
		c-0.18,0.07-0.33,0.18-0.46,0.31c-0.13,0.13-0.23,0.28-0.31,0.46c-0.08,0.17-0.12,0.35-0.12,0.55v1.96c0,0.19,0.04,0.37,0.11,0.55
		c0.07,0.17,0.18,0.33,0.31,0.46c0.13,0.13,0.28,0.23,0.46,0.31c0.17,0.07,0.36,0.11,0.56,0.11c0.19,0,0.38-0.04,0.55-0.11
		c0.18-0.07,0.33-0.18,0.46-0.31C192.51,221.1,192.61,220.95,192.69,220.77z M164.16,215.86c-0.15,0-0.27,0.05-0.37,0.15
		c-0.1,0.1-0.15,0.22-0.15,0.37v3.85c0,0.19-0.04,0.37-0.12,0.55c-0.08,0.17-0.18,0.33-0.31,0.46c-0.13,0.13-0.28,0.23-0.46,0.31
		c-0.18,0.07-0.36,0.11-0.55,0.11c-0.2,0-0.39-0.04-0.56-0.11c-0.17-0.07-0.33-0.18-0.46-0.31c-0.13-0.13-0.23-0.28-0.31-0.46
		c-0.07-0.17-0.11-0.35-0.11-0.55v-3.85c0-0.15-0.05-0.27-0.16-0.37c-0.1-0.1-0.23-0.15-0.36-0.15c-0.15,0-0.27,0.05-0.37,0.15
		c-0.1,0.1-0.15,0.22-0.15,0.37v3.85c0,0.34,0.06,0.65,0.19,0.95c0.13,0.3,0.3,0.56,0.53,0.78c0.23,0.22,0.49,0.4,0.78,0.53
		c0.3,0.13,0.62,0.19,0.96,0.19c0.34,0,0.65-0.06,0.96-0.19c0.17-0.07,0.33-0.17,0.48-0.27v1.3c-0.01,0.19-0.05,0.37-0.12,0.53
		c-0.07,0.16-0.17,0.31-0.31,0.43c-0.13,0.12-0.28,0.22-0.45,0.29c-0.17,0.07-0.35,0.11-0.55,0.11c-0.25,0-0.5-0.06-0.72-0.19
		c-0.09-0.06-0.2-0.1-0.31-0.1c-0.15,0-0.27,0.05-0.37,0.14c-0.1,0.1-0.15,0.22-0.15,0.38c0,0.19,0.08,0.34,0.23,0.44
		c0.15,0.1,0.33,0.18,0.51,0.24c0.19,0.05,0.44,0.1,0.76,0.12c0.57,0,1.07-0.16,1.5-0.48c0.65-0.46,1.02-1.13,1.02-1.88
		c0-0.51,0-2.35,0-3.33c0-0.37,0-0.61,0-0.61v-3.23c0-0.15-0.05-0.27-0.16-0.37C164.42,215.91,164.3,215.86,164.16,215.86z
		 M171.36,218.06h-2.16c-0.29,0-0.52,0.22-0.52,0.5c0,0.29,0.23,0.52,0.52,0.52h1.72v0.81c0,1.11-1.01,1.95-2.07,1.95
		c-1.18,0-2.17-0.8-2.17-2.17v-3.11c0-1.27,0.96-2.17,2.13-2.17c0.99,0,1.75,0.66,2.05,1.48c0.1,0.17,0.23,0.28,0.47,0.28
		c0.4,0,0.66-0.33,0.46-0.79c-0.33-1-1.35-2.03-2.98-2.03c-1.86,0-3.2,1.47-3.2,3.17v3.24c0,1.71,1.35,3.17,3.2,3.17
		c1.68,0,3.1-1.31,3.1-2.8v-1.56C171.91,218.25,171.66,218.06,171.36,218.06z M134.66,215.73c0.17,0.38,0.25,0.79,0.25,1.23
		c0,0.44-0.08,0.84-0.25,1.22c-0.17,0.38-0.4,0.71-0.68,0.99c-0.28,0.28-0.62,0.51-1.01,0.67c-0.39,0.16-0.8,0.25-1.23,0.25h-1.55
		v2.03c0,0.14-0.05,0.26-0.15,0.36c-0.1,0.1-0.22,0.15-0.36,0.15c-0.13,0-0.25-0.05-0.35-0.15c-0.1-0.1-0.15-0.22-0.15-0.36v-7.79
		c0-0.14,0.05-0.26,0.15-0.36c0.1-0.1,0.22-0.15,0.36-0.15h2.04h0.01c0.44,0,0.84,0.08,1.23,0.25c0.38,0.16,0.72,0.39,1.01,0.67
		C134.26,215.02,134.49,215.35,134.66,215.73z M133.9,216.96c0-0.29-0.06-0.57-0.17-0.83c-0.12-0.26-0.27-0.48-0.47-0.67
		c-0.2-0.19-0.42-0.34-0.69-0.45c-0.26-0.11-0.54-0.17-0.83-0.17h-1.55v4.24h1.55c0.3,0,0.58-0.06,0.85-0.17
		c0.26-0.11,0.49-0.26,0.69-0.45c0.2-0.19,0.35-0.42,0.46-0.67C133.84,217.53,133.9,217.25,133.9,216.96z M194.36,213.67h0.19v0.58
		h0.16v-0.58h0.19v-0.14h-0.55V213.67z M195.72,213.53h-0.21l-0.08,0.24c-0.02,0.08-0.05,0.17-0.07,0.26h0
		c-0.02-0.08-0.04-0.17-0.06-0.26l-0.07-0.24h-0.21l-0.05,0.71h0.15l0.01-0.27c0.01-0.09,0.01-0.2,0.01-0.3h0
		c0.02,0.09,0.04,0.19,0.06,0.28l0.08,0.28h0.13l0.09-0.28c0.03-0.08,0.06-0.19,0.08-0.28h0c0,0.1,0,0.21,0.01,0.29l0.01,0.27h0.16
		L195.72,213.53z"/>
</g>
</svg>
