<?xml version="1.0" encoding="utf-8"?>
<!-- Generator: Adobe Illustrator 25.3.1, SVG Export Plug-In . SVG Version: 6.00 Build 0)  -->
<svg version="1.1" id="Layer_1" xmlns="http://www.w3.org/2000/svg" xmlns:xlink="http://www.w3.org/1999/xlink" x="0px" y="0px"
	 viewBox="0 0 300 250" style="enable-background:new 0 0 300 250;" xml:space="preserve">
<style type="text/css">
	.st0{fill:#FFFFFF;}
</style>
<g>
	<path class="st0" d="M49.82,49.99H44.7v13.89h-4.11V49.99h-5.03v-3.18h14.26V49.99z"/>
	<path class="st0" d="M48.43,57.42c0-1.27,0.25-2.39,0.74-3.38s1.2-1.75,2.12-2.28s2-0.8,3.25-0.8c1.9,0,3.39,0.59,4.49,1.76
		s1.64,2.78,1.64,4.8v0.14c0,1.98-0.55,3.54-1.65,4.71s-2.58,1.74-4.46,1.74c-1.8,0-3.25-0.54-4.35-1.62s-1.68-2.55-1.77-4.4
		L48.43,57.42z M52.38,57.67c0,1.17,0.18,2.03,0.55,2.58s0.91,0.82,1.63,0.82c1.41,0,2.12-1.08,2.16-3.25v-0.4
		c0-2.27-0.73-3.41-2.18-3.41c-1.32,0-2.04,0.98-2.14,2.94L52.38,57.67z"/>
	<path class="st0" d="M67.01,48.05v3.15h2.09v2.74h-2.09v5.8c0,0.48,0.09,0.81,0.26,1s0.51,0.28,1.02,0.28
		c0.39,0,0.72-0.02,0.98-0.07v2.82c-0.71,0.23-1.45,0.34-2.23,0.34c-1.36,0-2.36-0.32-3.01-0.96s-0.97-1.61-0.97-2.92v-6.29h-1.62
		V51.2h1.62v-3.15H67.01z"/>
	<path class="st0" d="M77.79,63.88c-0.14-0.26-0.27-0.64-0.38-1.14c-0.73,0.91-1.74,1.37-3.05,1.37c-1.2,0-2.21-0.36-3.05-1.08
		s-1.25-1.63-1.25-2.72c0-1.38,0.51-2.41,1.52-3.12s2.49-1.05,4.43-1.05h1.22v-0.67c0-1.17-0.5-1.75-1.51-1.75
		c-0.94,0-1.41,0.46-1.41,1.39h-3.95c0-1.23,0.52-2.22,1.56-2.98s2.37-1.15,3.99-1.15s2.89,0.39,3.83,1.18s1.42,1.87,1.44,3.25v5.61
		c0.02,1.16,0.2,2.05,0.54,2.67v0.2H77.79z M75.32,61.3c0.49,0,0.9-0.11,1.22-0.32s0.56-0.45,0.7-0.71v-2.03h-1.15
		c-1.38,0-2.06,0.62-2.06,1.85c0,0.36,0.12,0.65,0.36,0.87S74.94,61.3,75.32,61.3z"/>
	<path class="st0" d="M87.55,63.88h-3.96v-18h3.96V63.88z"/>
	<path class="st0" d="M101.32,61.07c0.55,0,0.98-0.15,1.29-0.45s0.45-0.72,0.45-1.26h3.7c0,1.39-0.5,2.53-1.49,3.42
		s-2.28,1.34-3.85,1.34c-1.84,0-3.3-0.58-4.36-1.73s-1.59-2.76-1.59-4.8v-0.16c0-1.28,0.24-2.41,0.71-3.39s1.15-1.73,2.04-2.26
		s1.95-0.79,3.16-0.79c1.65,0,2.96,0.46,3.93,1.37s1.45,2.15,1.45,3.71h-3.7c0-0.66-0.16-1.16-0.48-1.51s-0.75-0.53-1.29-0.53
		c-1.02,0-1.62,0.65-1.79,1.96c-0.05,0.41-0.08,0.98-0.08,1.71c0,1.27,0.15,2.16,0.46,2.65S100.66,61.07,101.32,61.07z"/>
	<path class="st0" d="M107.93,57.42c0-1.27,0.25-2.39,0.74-3.38s1.2-1.75,2.12-2.28s2-0.8,3.25-0.8c1.9,0,3.39,0.59,4.49,1.76
		s1.64,2.78,1.64,4.8v0.14c0,1.98-0.55,3.54-1.65,4.71s-2.58,1.74-4.46,1.74c-1.8,0-3.25-0.54-4.35-1.62s-1.68-2.55-1.77-4.4
		L107.93,57.42z M111.88,57.67c0,1.17,0.18,2.03,0.55,2.58s0.91,0.82,1.63,0.82c1.41,0,2.12-1.08,2.16-3.25v-0.4
		c0-2.27-0.73-3.41-2.18-3.41c-1.32,0-2.04,0.98-2.14,2.94L111.88,57.67z"/>
	<path class="st0" d="M125.64,51.2l0.13,1.49c0.9-1.15,2.11-1.72,3.62-1.72c1.6,0,2.68,0.64,3.25,1.91c0.86-1.27,2.1-1.91,3.73-1.91
		c2.57,0,3.89,1.55,3.96,4.66v8.25h-3.96v-8c0-0.65-0.11-1.12-0.33-1.42s-0.62-0.45-1.2-0.45c-0.78,0-1.36,0.35-1.75,1.04l0.01,0.16
		v8.66h-3.96V55.9c0-0.66-0.11-1.14-0.32-1.44s-0.61-0.45-1.21-0.45c-0.76,0-1.34,0.35-1.73,1.04v8.82h-3.95V51.2H125.64z"/>
	<path class="st0" d="M154.35,57.65c0,2.08-0.43,3.68-1.29,4.79s-2.07,1.68-3.63,1.68c-1.29,0-2.33-0.51-3.12-1.54l-0.16,1.3h-3.54
		v-18h3.95v6.34c0.73-0.84,1.68-1.25,2.85-1.25c1.58,0,2.8,0.57,3.66,1.7s1.29,2.73,1.29,4.78V57.65z M150.39,57.39
		c0-1.22-0.16-2.08-0.49-2.6c-0.32-0.52-0.82-0.78-1.49-0.78c-0.89,0-1.51,0.34-1.85,1.02v5.03c0.34,0.67,0.96,1.01,1.88,1.01
		c0.93,0,1.52-0.45,1.77-1.36C150.32,59.27,150.39,58.49,150.39,57.39z"/>
	<path class="st0" d="M156.06,47.93c0-0.56,0.2-1.02,0.61-1.38s0.93-0.54,1.58-0.54s1.18,0.18,1.58,0.54s0.61,0.82,0.61,1.38
		s-0.2,1.02-0.61,1.38s-0.93,0.54-1.58,0.54s-1.18-0.18-1.58-0.54S156.06,48.49,156.06,47.93z M160.25,63.88h-3.96V51.2h3.96V63.88z
		"/>
	<path class="st0" d="M166.31,51.2l0.13,1.49c0.88-1.15,2.08-1.72,3.62-1.72c1.32,0,2.31,0.39,2.96,1.18s0.99,1.98,1.01,3.56v8.17
		h-3.96v-8c0-0.64-0.13-1.11-0.39-1.41s-0.73-0.45-1.41-0.45c-0.77,0-1.35,0.3-1.72,0.91v8.95h-3.95V51.2H166.31z"/>
	<path class="st0" d="M182.36,64.11c-1.95,0-3.52-0.58-4.72-1.74s-1.8-2.67-1.8-4.53v-0.33c0-1.3,0.24-2.44,0.72-3.43
		s1.18-1.76,2.1-2.3s2.02-0.81,3.28-0.81c1.78,0,3.19,0.55,4.22,1.66s1.55,2.65,1.55,4.62v1.54h-7.85c0.14,0.71,0.45,1.27,0.93,1.68
		s1.09,0.61,1.85,0.61c1.25,0,2.23-0.44,2.93-1.31l1.8,2.13c-0.49,0.68-1.19,1.22-2.09,1.62S183.39,64.11,182.36,64.11z
		 M181.91,54.01c-1.16,0-1.84,0.77-2.06,2.3h3.98V56c0.02-0.63-0.14-1.12-0.48-1.47S182.54,54.01,181.91,54.01z"/>
	<path class="st0" d="M188.79,57.45c0-2.01,0.43-3.59,1.3-4.75s2.08-1.73,3.63-1.73c1.13,0,2.09,0.45,2.86,1.34v-6.42h3.96v18h-3.55
		l-0.2-1.36c-0.81,1.06-1.84,1.59-3.09,1.59c-1.51,0-2.7-0.58-3.59-1.73S188.79,59.58,188.79,57.45z M192.74,57.69
		c0,2.25,0.66,3.38,1.97,3.38c0.88,0,1.5-0.37,1.88-1.1v-4.83c-0.36-0.75-0.98-1.12-1.85-1.12c-1.22,0-1.88,0.98-1.98,2.95
		L192.74,57.69z"/>
	<path class="st0" d="M209.64,63.88v-9.94h-1.84V51.2h1.84v-1.01c0-1.45,0.43-2.57,1.28-3.36s2.05-1.2,3.59-1.2
		c0.56,0,1.18,0.08,1.85,0.25l0.01,2.91c-0.24-0.07-0.57-0.11-0.97-0.11c-1.2,0-1.79,0.52-1.79,1.55v0.97h2.47v2.74h-2.47v9.94
		H209.64z"/>
	<path class="st0" d="M225.13,54.77l-1.3-0.09c-1.24,0-2.04,0.39-2.39,1.17v8.03h-3.95V51.2h3.7l0.13,1.63
		c0.66-1.24,1.59-1.86,2.78-1.86c0.42,0,0.79,0.05,1.1,0.14L225.13,54.77z"/>
	<path class="st0" d="M233.34,63.88c-0.14-0.26-0.27-0.64-0.38-1.14c-0.73,0.91-1.74,1.37-3.05,1.37c-1.2,0-2.21-0.36-3.05-1.08
		s-1.25-1.63-1.25-2.72c0-1.38,0.51-2.41,1.52-3.12s2.49-1.05,4.43-1.05h1.22v-0.67c0-1.17-0.5-1.75-1.51-1.75
		c-0.94,0-1.41,0.46-1.41,1.39h-3.95c0-1.23,0.52-2.22,1.56-2.98s2.37-1.15,3.99-1.15s2.89,0.39,3.83,1.18s1.42,1.87,1.44,3.25v5.61
		c0.02,1.16,0.2,2.05,0.54,2.67v0.2H233.34z M230.87,61.3c0.49,0,0.9-0.11,1.22-0.32s0.56-0.45,0.7-0.71v-2.03h-1.15
		c-1.38,0-2.06,0.62-2.06,1.85c0,0.36,0.12,0.65,0.36,0.87S230.5,61.3,230.87,61.3z"/>
	<path class="st0" d="M246.49,62.51c-0.84,1.07-1.96,1.61-3.39,1.61c-1.39,0-2.44-0.4-3.16-1.21s-1.07-1.97-1.07-3.49V51.2h3.95
		v8.24c0,1.09,0.53,1.63,1.58,1.63c0.91,0,1.55-0.32,1.93-0.97V51.2h3.97v12.68h-3.7L246.49,62.51z"/>
	<path class="st0" d="M251.98,57.45c0-2.01,0.43-3.59,1.3-4.75s2.08-1.73,3.63-1.73c1.13,0,2.09,0.45,2.86,1.34v-6.42h3.96v18h-3.55
		l-0.2-1.36c-0.81,1.06-1.84,1.59-3.09,1.59c-1.51,0-2.7-0.58-3.59-1.73S251.98,59.58,251.98,57.45z M255.93,57.69
		c0,2.25,0.66,3.38,1.97,3.38c0.88,0,1.5-0.37,1.88-1.1v-4.83c-0.36-0.75-0.98-1.12-1.85-1.12c-1.22,0-1.88,0.98-1.98,2.95
		L255.93,57.69z"/>
	<path class="st0" d="M63.39,92.68h-3.96v-18h3.96V92.68z"/>
	<path class="st0" d="M65.32,86.22c0-1.27,0.25-2.39,0.74-3.38s1.2-1.75,2.12-2.28s2-0.8,3.25-0.8c1.9,0,3.39,0.59,4.49,1.76
		s1.64,2.78,1.64,4.8v0.14c0,1.98-0.55,3.54-1.65,4.71s-2.58,1.74-4.46,1.74c-1.8,0-3.25-0.54-4.35-1.62s-1.68-2.55-1.77-4.4
		L65.32,86.22z M69.27,86.47c0,1.17,0.18,2.03,0.55,2.58s0.91,0.82,1.63,0.82c1.41,0,2.12-1.08,2.16-3.25v-0.4
		c0-2.27-0.73-3.41-2.18-3.41c-1.32,0-2.04,0.98-2.14,2.94L69.27,86.47z"/>
	<path class="st0" d="M85.93,89.12c0-0.34-0.18-0.61-0.53-0.81s-1.02-0.41-2-0.63s-1.8-0.51-2.44-0.86s-1.13-0.79-1.46-1.29
		S79,84.43,79,83.77c0-1.16,0.48-2.12,1.44-2.88s2.22-1.13,3.77-1.13c1.67,0,3.02,0.38,4.03,1.14s1.52,1.75,1.52,2.99h-3.96
		c0-1.02-0.54-1.52-1.61-1.52c-0.41,0-0.76,0.12-1.04,0.35s-0.42,0.52-0.42,0.86c0,0.35,0.17,0.64,0.52,0.86s0.89,0.4,1.65,0.54
		s1.42,0.31,1.99,0.5c1.91,0.66,2.86,1.83,2.86,3.53c0,1.16-0.51,2.1-1.54,2.82s-2.36,1.09-3.99,1.09c-1.09,0-2.05-0.2-2.91-0.59
		s-1.52-0.92-1.99-1.59s-0.71-1.38-0.71-2.12h3.69c0.02,0.59,0.21,1.01,0.59,1.28s0.86,0.4,1.44,0.4c0.54,0,0.94-0.11,1.21-0.33
		S85.93,89.47,85.93,89.12z"/>
	<path class="st0" d="M98.23,89.12c0-0.34-0.18-0.61-0.53-0.81s-1.02-0.41-2-0.63s-1.8-0.51-2.44-0.86s-1.13-0.79-1.46-1.29
		s-0.5-1.09-0.5-1.75c0-1.16,0.48-2.12,1.44-2.88s2.22-1.13,3.77-1.13c1.67,0,3.02,0.38,4.03,1.14s1.52,1.75,1.52,2.99H98.1
		c0-1.02-0.54-1.52-1.61-1.52c-0.41,0-0.76,0.12-1.04,0.35s-0.42,0.52-0.42,0.86c0,0.35,0.17,0.64,0.52,0.86s0.89,0.4,1.65,0.54
		s1.42,0.31,1.99,0.5c1.91,0.66,2.86,1.83,2.86,3.53c0,1.16-0.51,2.1-1.54,2.82s-2.36,1.09-3.99,1.09c-1.09,0-2.05-0.2-2.91-0.59
		s-1.52-0.92-1.99-1.59s-0.71-1.38-0.71-2.12h3.69c0.02,0.59,0.21,1.01,0.59,1.28s0.86,0.4,1.44,0.4c0.54,0,0.94-0.11,1.21-0.33
		S98.23,89.47,98.23,89.12z"/>
	<path class="st0" d="M110.02,92.91c-1.95,0-3.52-0.58-4.72-1.74s-1.8-2.67-1.8-4.53v-0.33c0-1.3,0.24-2.44,0.72-3.43
		s1.18-1.76,2.1-2.3s2.02-0.81,3.28-0.81c1.78,0,3.19,0.55,4.22,1.66s1.55,2.65,1.55,4.62v1.54h-7.85c0.14,0.71,0.45,1.27,0.93,1.68
		s1.09,0.61,1.85,0.61c1.25,0,2.23-0.44,2.93-1.31l1.8,2.13c-0.49,0.68-1.19,1.22-2.09,1.62S111.06,92.91,110.02,92.91z
		 M109.57,82.81c-1.16,0-1.84,0.77-2.06,2.3h3.98v-0.3c0.02-0.63-0.14-1.12-0.48-1.47S110.2,82.81,109.57,82.81z"/>
	<path class="st0" d="M123.59,89.12c0-0.34-0.18-0.61-0.53-0.81s-1.02-0.41-2-0.63s-1.8-0.51-2.44-0.86s-1.13-0.79-1.46-1.29
		s-0.5-1.09-0.5-1.75c0-1.16,0.48-2.12,1.44-2.88s2.22-1.13,3.77-1.13c1.67,0,3.02,0.38,4.03,1.14s1.52,1.75,1.52,2.99h-3.96
		c0-1.02-0.54-1.52-1.61-1.52c-0.41,0-0.76,0.12-1.04,0.35s-0.42,0.52-0.42,0.86c0,0.35,0.17,0.64,0.52,0.86s0.89,0.4,1.65,0.54
		s1.42,0.31,1.99,0.5c1.91,0.66,2.86,1.83,2.86,3.53c0,1.16-0.51,2.1-1.54,2.82s-2.36,1.09-3.99,1.09c-1.09,0-2.05-0.2-2.91-0.59
		s-1.52-0.92-1.99-1.59s-0.71-1.38-0.71-2.12h3.69c0.02,0.59,0.21,1.01,0.59,1.28s0.86,0.4,1.44,0.4c0.54,0,0.94-0.11,1.21-0.33
		S123.59,89.47,123.59,89.12z"/>
	<path class="st0" d="M140.58,89.87c0.55,0,0.98-0.15,1.29-0.45s0.45-0.72,0.45-1.26h3.7c0,1.39-0.5,2.53-1.49,3.42
		s-2.28,1.34-3.85,1.34c-1.84,0-3.3-0.58-4.36-1.73s-1.59-2.76-1.59-4.8v-0.16c0-1.28,0.24-2.41,0.71-3.39s1.15-1.73,2.04-2.26
		s1.95-0.79,3.16-0.79c1.65,0,2.96,0.46,3.93,1.37s1.45,2.15,1.45,3.71h-3.7c0-0.66-0.16-1.16-0.48-1.51s-0.75-0.53-1.29-0.53
		c-1.02,0-1.62,0.65-1.79,1.96c-0.05,0.41-0.08,0.98-0.08,1.71c0,1.27,0.15,2.16,0.46,2.65S139.91,89.87,140.58,89.87z"/>
	<path class="st0" d="M151.85,92.68h-3.96v-18h3.96V92.68z"/>
	<path class="st0" d="M154.25,76.73c0-0.56,0.2-1.02,0.61-1.38s0.93-0.54,1.58-0.54s1.18,0.18,1.58,0.54s0.61,0.82,0.61,1.38
		s-0.2,1.02-0.61,1.38s-0.93,0.54-1.58,0.54s-1.18-0.18-1.58-0.54S154.25,77.29,154.25,76.73z M158.45,92.68h-3.96V80h3.96V92.68z"
		/>
	<path class="st0" d="M164.61,80l0.13,1.49c0.9-1.15,2.11-1.72,3.62-1.72c1.6,0,2.68,0.64,3.25,1.91c0.86-1.27,2.1-1.91,3.73-1.91
		c2.57,0,3.89,1.55,3.96,4.66v8.25h-3.96v-8c0-0.65-0.11-1.12-0.33-1.42s-0.62-0.45-1.2-0.45c-0.78,0-1.36,0.35-1.75,1.04l0.01,0.16
		v8.66h-3.96V84.7c0-0.66-0.11-1.14-0.32-1.44s-0.61-0.45-1.21-0.45c-0.76,0-1.34,0.35-1.73,1.04v8.82h-3.95V80H164.61z"/>
	<path class="st0" d="M193.32,86.45c0,2.08-0.43,3.68-1.29,4.79s-2.07,1.68-3.63,1.68c-1.29,0-2.33-0.51-3.12-1.54l-0.16,1.3h-3.54
		v-18h3.95v6.34c0.73-0.84,1.68-1.25,2.85-1.25c1.58,0,2.8,0.57,3.66,1.7s1.29,2.73,1.29,4.78V86.45z M189.36,86.19
		c0-1.22-0.16-2.08-0.49-2.6s-0.82-0.78-1.49-0.78c-0.89,0-1.51,0.34-1.85,1.02v5.03c0.34,0.67,0.96,1.01,1.88,1.01
		c0.93,0,1.52-0.45,1.77-1.36C189.3,88.07,189.36,87.29,189.36,86.19z"/>
	<path class="st0" d="M201.2,92.91c-1.95,0-3.52-0.58-4.72-1.74s-1.8-2.67-1.8-4.53v-0.33c0-1.3,0.24-2.44,0.72-3.43
		s1.18-1.76,2.1-2.3s2.02-0.81,3.28-0.81c1.78,0,3.19,0.55,4.22,1.66s1.55,2.65,1.55,4.62v1.54h-7.85c0.14,0.71,0.45,1.27,0.93,1.68
		s1.09,0.61,1.85,0.61c1.25,0,2.23-0.44,2.93-1.31l1.8,2.13c-0.49,0.68-1.19,1.22-2.09,1.62S202.24,92.91,201.2,92.91z
		 M200.75,82.81c-1.16,0-1.84,0.77-2.06,2.3h3.98v-0.3c0.02-0.63-0.14-1.12-0.48-1.47S201.38,82.81,200.75,82.81z"/>
	<path class="st0" d="M207.63,86.25c0-2.01,0.43-3.59,1.3-4.75s2.08-1.73,3.63-1.73c1.13,0,2.09,0.45,2.86,1.34v-6.42h3.96v18h-3.55
		l-0.2-1.36c-0.81,1.06-1.84,1.59-3.09,1.59c-1.51,0-2.7-0.58-3.59-1.73S207.63,88.38,207.63,86.25z M211.58,86.49
		c0,2.25,0.66,3.38,1.97,3.38c0.88,0,1.5-0.37,1.88-1.1v-4.83c-0.36-0.75-0.98-1.12-1.85-1.12c-1.22,0-1.88,0.98-1.98,2.95
		L211.58,86.49z"/>
	<path class="st0" d="M232.21,76.85V80h2.09v2.74h-2.09v5.8c0,0.48,0.09,0.81,0.26,1s0.51,0.28,1.02,0.28
		c0.39,0,0.72-0.02,0.98-0.07v2.82c-0.71,0.23-1.45,0.34-2.23,0.34c-1.36,0-2.36-0.32-3.01-0.96s-0.97-1.61-0.97-2.92v-6.29h-1.62
		V80h1.62v-3.15H232.21z"/>
	<path class="st0" d="M235,86.22c0-1.27,0.25-2.39,0.74-3.38s1.2-1.75,2.12-2.28s2-0.8,3.25-0.8c1.9,0,3.39,0.59,4.49,1.76
		s1.64,2.78,1.64,4.8v0.14c0,1.98-0.55,3.54-1.65,4.71s-2.58,1.74-4.46,1.74c-1.8,0-3.25-0.54-4.35-1.62s-1.68-2.55-1.77-4.4
		L235,86.22z M238.95,86.47c0,1.17,0.18,2.03,0.55,2.58s0.91,0.82,1.63,0.82c1.41,0,2.12-1.08,2.16-3.25v-0.4
		c0-2.27-0.73-3.41-2.18-3.41c-1.32,0-2.04,0.98-2.14,2.94L238.95,86.47z"/>
</g>
</svg>
