<?xml version="1.0" encoding="utf-8"?>
<!-- Generator: Adobe Illustrator 25.3.1, SVG Export Plug-In . SVG Version: 6.00 Build 0)  -->
<svg version="1.1" id="Layer_1" xmlns="http://www.w3.org/2000/svg" xmlns:xlink="http://www.w3.org/1999/xlink" x="0px" y="0px"
	 viewBox="0 0 300 250" style="enable-background:new 0 0 300 250;" xml:space="preserve">
<style type="text/css">
	.st0{fill:#FFFFFF;}
</style>
<g>
	<path class="st0" d="M45.52,57.43V40.37h5.5c1.51,0,2.86,0.34,4.07,1.03s2.14,1.65,2.82,2.89s1.02,2.64,1.03,4.19v0.79
		c0,1.56-0.33,2.96-0.99,4.2s-1.59,2.21-2.79,2.91s-2.54,1.05-4.01,1.06H45.52z M49.63,43.54v10.72h1.43c1.18,0,2.09-0.42,2.72-1.26
		s0.95-2.09,0.95-3.74v-0.74c0-1.65-0.32-2.89-0.95-3.73s-1.55-1.25-2.77-1.25H49.63z"/>
	<path class="st0" d="M60.35,50.97c0-1.27,0.25-2.39,0.74-3.38s1.2-1.75,2.12-2.28s2-0.8,3.25-0.8c1.9,0,3.39,0.59,4.49,1.76
		s1.64,2.78,1.64,4.8v0.14c0,1.98-0.55,3.54-1.65,4.71s-2.58,1.74-4.46,1.74c-1.8,0-3.25-0.54-4.35-1.62s-1.68-2.55-1.77-4.4
		L60.35,50.97z M64.3,51.22c0,1.17,0.18,2.03,0.55,2.58s0.91,0.82,1.63,0.82c1.41,0,2.12-1.08,2.16-3.25v-0.4
		c0-2.27-0.73-3.41-2.18-3.41c-1.32,0-2.04,0.98-2.14,2.94L64.3,51.22z"/>
	<path class="st0" d="M77.95,44.75l0.13,1.49c0.88-1.15,2.08-1.72,3.62-1.72c1.32,0,2.31,0.39,2.96,1.18s0.99,1.98,1.01,3.56v8.17
		h-3.96v-8c0-0.64-0.13-1.11-0.39-1.41s-0.73-0.45-1.41-0.45c-0.77,0-1.35,0.3-1.72,0.91v8.95h-3.95V44.75H77.95z"/>
	<path class="st0" d="M89.13,41.33l-0.39,4.84h-2.43v-6.74h2.81V41.33z"/>
	<path class="st0" d="M95.23,41.6v3.15h2.09v2.74h-2.09v5.8c0,0.48,0.09,0.81,0.26,1s0.51,0.28,1.02,0.28
		c0.39,0,0.72-0.02,0.98-0.07v2.82c-0.71,0.23-1.45,0.34-2.23,0.34c-1.36,0-2.36-0.32-3.01-0.96s-0.97-1.61-0.97-2.92v-6.29h-1.62
		v-2.74h1.62V41.6H95.23z"/>
	<path class="st0" d="M116.61,51.19c0,2.08-0.43,3.68-1.29,4.79s-2.07,1.68-3.63,1.68c-1.29,0-2.33-0.51-3.12-1.54l-0.16,1.3h-3.54
		v-18h3.95v6.34c0.73-0.84,1.68-1.25,2.85-1.25c1.58,0,2.8,0.57,3.66,1.7s1.29,2.73,1.29,4.78V51.19z M112.65,50.94
		c0-1.22-0.16-2.08-0.49-2.6s-0.82-0.78-1.49-0.78c-0.89,0-1.51,0.34-1.85,1.02v5.03c0.34,0.67,0.96,1.01,1.88,1.01
		c0.93,0,1.52-0.45,1.77-1.36C112.59,52.81,112.65,52.04,112.65,50.94z"/>
	<path class="st0" d="M124.49,57.66c-1.95,0-3.52-0.58-4.72-1.74s-1.8-2.67-1.8-4.53v-0.33c0-1.3,0.24-2.44,0.72-3.43
		s1.18-1.76,2.1-2.3s2.02-0.81,3.28-0.81c1.78,0,3.19,0.55,4.22,1.66s1.55,2.65,1.55,4.62v1.54h-7.85c0.14,0.71,0.45,1.27,0.93,1.68
		s1.09,0.61,1.85,0.61c1.25,0,2.23-0.44,2.93-1.31l1.8,2.13c-0.49,0.68-1.19,1.22-2.09,1.62S125.53,57.66,124.49,57.66z
		 M124.04,47.56c-1.16,0-1.84,0.77-2.06,2.3h3.98v-0.3c0.02-0.63-0.14-1.12-0.48-1.47S124.67,47.56,124.04,47.56z"/>
	<path class="st0" d="M149.17,51.18c0,1.97-0.44,3.54-1.33,4.72s-2.08,1.76-3.59,1.76c-1.16,0-2.12-0.43-2.87-1.28v5.92h-3.95V44.75
		h3.69l0.12,1.17c0.76-0.94,1.75-1.41,2.99-1.41c1.56,0,2.78,0.58,3.64,1.73s1.3,2.74,1.3,4.75V51.18z M145.22,50.94
		c0-2.25-0.66-3.38-1.97-3.38c-0.94,0-1.56,0.34-1.88,1.01v4.99c0.34,0.7,0.98,1.05,1.9,1.05c1.26,0,1.91-1.09,1.95-3.26V50.94z"/>
	<path class="st0" d="M158.05,57.43c-0.14-0.26-0.27-0.64-0.38-1.14c-0.73,0.91-1.74,1.37-3.05,1.37c-1.2,0-2.21-0.36-3.05-1.08
		c-0.84-0.72-1.25-1.63-1.25-2.72c0-1.38,0.51-2.41,1.52-3.12c1.02-0.7,2.49-1.05,4.43-1.05h1.22v-0.67c0-1.17-0.5-1.75-1.51-1.75
		c-0.94,0-1.41,0.46-1.41,1.39h-3.95c0-1.22,0.52-2.22,1.56-2.98s2.37-1.15,3.99-1.15s2.89,0.39,3.83,1.18s1.42,1.87,1.44,3.25v5.61
		c0.02,1.16,0.2,2.05,0.54,2.67v0.2H158.05z M155.58,54.85c0.49,0,0.9-0.11,1.22-0.32s0.56-0.45,0.7-0.71v-2.03h-1.15
		c-1.38,0-2.06,0.62-2.06,1.85c0,0.36,0.12,0.65,0.36,0.87S155.2,54.85,155.58,54.85z"/>
	<path class="st0" d="M171.32,48.32l-1.3-0.09c-1.24,0-2.04,0.39-2.39,1.17v8.03h-3.95V44.75h3.7l0.13,1.63
		c0.66-1.24,1.59-1.86,2.78-1.86c0.42,0,0.79,0.05,1.1,0.14L171.32,48.32z"/>
	<path class="st0" d="M177.93,41.6v3.15h2.09v2.74h-2.09v5.8c0,0.48,0.09,0.81,0.26,1s0.51,0.28,1.02,0.28
		c0.39,0,0.72-0.02,0.98-0.07v2.82c-0.71,0.23-1.45,0.34-2.23,0.34c-1.36,0-2.36-0.32-3.01-0.96s-0.97-1.61-0.97-2.92v-6.29h-1.62
		v-2.74h1.62V41.6H177.93z"/>
	<path class="st0" d="M187.04,50.97c0-1.27,0.25-2.39,0.74-3.38s1.2-1.75,2.12-2.28s2-0.8,3.25-0.8c1.9,0,3.39,0.59,4.49,1.76
		s1.64,2.78,1.64,4.8v0.14c0,1.98-0.55,3.54-1.65,4.71s-2.58,1.74-4.46,1.74c-1.8,0-3.25-0.54-4.35-1.62s-1.68-2.55-1.77-4.4
		L187.04,50.97z M190.99,51.22c0,1.17,0.18,2.03,0.55,2.58s0.91,0.82,1.63,0.82c1.41,0,2.12-1.08,2.16-3.25v-0.4
		c0-2.27-0.73-3.41-2.18-3.41c-1.32,0-2.04,0.98-2.14,2.94L190.99,51.22z"/>
	<path class="st0" d="M201.89,57.43v-9.94h-1.84v-2.74h1.84v-1.01c0-1.45,0.43-2.57,1.28-3.36s2.05-1.2,3.59-1.2
		c0.56,0,1.18,0.08,1.85,0.25l0.01,2.91c-0.24-0.07-0.57-0.11-0.97-0.11c-1.2,0-1.79,0.52-1.79,1.55v0.97h2.47v2.74h-2.47v9.94
		H201.89z"/>
	<path class="st0" d="M220.29,41.6v3.15h2.09v2.74h-2.09v5.8c0,0.48,0.09,0.81,0.26,1s0.51,0.28,1.02,0.28
		c0.39,0,0.72-0.02,0.98-0.07v2.82c-0.71,0.23-1.45,0.34-2.23,0.34c-1.36,0-2.36-0.32-3.01-0.96s-0.97-1.61-0.97-2.92v-6.29h-1.62
		v-2.74h1.62V41.6H220.29z"/>
	<path class="st0" d="M227.79,46.11c0.84-1.06,1.92-1.59,3.23-1.59c1.4,0,2.45,0.41,3.16,1.24s1.07,2.05,1.09,3.67v8h-3.96v-7.91
		c0-0.67-0.14-1.17-0.41-1.48s-0.74-0.47-1.39-0.47c-0.81,0-1.39,0.26-1.72,0.77v9.09h-3.95v-18h3.95V46.11z"/>
	<path class="st0" d="M237.45,41.48c0-0.56,0.2-1.02,0.61-1.38s0.93-0.54,1.58-0.54s1.18,0.18,1.58,0.54s0.61,0.82,0.61,1.38
		s-0.2,1.02-0.61,1.38s-0.93,0.54-1.58,0.54s-1.18-0.18-1.58-0.54S237.45,42.04,237.45,41.48z M241.64,57.43h-3.96V44.75h3.96V57.43
		z"/>
	<path class="st0" d="M250.71,53.87c0-0.34-0.18-0.61-0.53-0.81s-1.02-0.41-2-0.63s-1.8-0.51-2.44-0.86s-1.13-0.79-1.46-1.29
		s-0.5-1.09-0.5-1.75c0-1.16,0.48-2.12,1.44-2.88s2.22-1.13,3.77-1.13c1.67,0,3.02,0.38,4.03,1.14s1.52,1.75,1.52,2.99h-3.96
		c0-1.02-0.54-1.52-1.61-1.52c-0.41,0-0.76,0.12-1.04,0.35s-0.42,0.52-0.42,0.86c0,0.35,0.17,0.64,0.52,0.86s0.89,0.4,1.65,0.54
		s1.42,0.31,1.99,0.5c1.91,0.66,2.86,1.83,2.86,3.53c0,1.16-0.51,2.1-1.54,2.82s-2.36,1.09-3.99,1.09c-1.09,0-2.05-0.2-2.91-0.59
		s-1.52-0.92-1.99-1.59s-0.71-1.38-0.71-2.12h3.69c0.02,0.59,0.21,1.01,0.59,1.28s0.86,0.4,1.44,0.4c0.54,0,0.94-0.11,1.21-0.33
		S250.71,54.22,250.71,53.87z"/>
	<path class="st0" d="M65.5,79.99c0,2.08-0.43,3.68-1.29,4.79s-2.07,1.68-3.63,1.68c-1.29,0-2.33-0.51-3.12-1.54l-0.16,1.3h-3.54
		v-18h3.95v6.34c0.73-0.84,1.68-1.25,2.85-1.25c1.58,0,2.8,0.57,3.66,1.7s1.29,2.73,1.29,4.78V79.99z M61.54,79.74
		c0-1.22-0.16-2.08-0.49-2.6s-0.82-0.78-1.49-0.78c-0.89,0-1.51,0.34-1.85,1.02v5.03c0.34,0.67,0.96,1.01,1.88,1.01
		c0.93,0,1.52-0.45,1.77-1.36C61.48,81.61,61.54,80.84,61.54,79.74z"/>
	<path class="st0" d="M67.21,70.28c0-0.56,0.2-1.02,0.61-1.38s0.93-0.54,1.58-0.54s1.18,0.18,1.58,0.54s0.61,0.82,0.61,1.38
		s-0.2,1.02-0.61,1.38s-0.93,0.54-1.58,0.54s-1.18-0.18-1.58-0.54S67.21,70.84,67.21,70.28z M71.41,86.23h-3.96V73.55h3.96V86.23z"
		/>
	<path class="st0" d="M78.01,86.23h-3.96v-18h3.96V86.23z"/>
	<path class="st0" d="M84.6,86.23h-3.96v-18h3.96V86.23z"/>
	<path class="st0" d="M87.01,70.28c0-0.56,0.2-1.02,0.61-1.38s0.93-0.54,1.58-0.54s1.18,0.18,1.58,0.54s0.61,0.82,0.61,1.38
		s-0.2,1.02-0.61,1.38s-0.93,0.54-1.58,0.54s-1.18-0.18-1.58-0.54S87.01,70.84,87.01,70.28z M91.2,86.23h-3.96V73.55h3.96V86.23z"/>
	<path class="st0" d="M93.14,79.77c0-1.27,0.25-2.39,0.74-3.38s1.2-1.75,2.12-2.28s2-0.8,3.25-0.8c1.9,0,3.39,0.59,4.49,1.76
		s1.64,2.78,1.64,4.8v0.14c0,1.98-0.55,3.54-1.65,4.71s-2.58,1.74-4.46,1.74c-1.8,0-3.25-0.54-4.35-1.62s-1.68-2.55-1.77-4.4
		L93.14,79.77z M97.08,80.02c0,1.17,0.18,2.03,0.55,2.58s0.91,0.82,1.63,0.82c1.41,0,2.12-1.08,2.16-3.25v-0.4
		c0-2.27-0.73-3.41-2.18-3.41c-1.32,0-2.04,0.98-2.14,2.94L97.08,80.02z"/>
	<path class="st0" d="M110.74,73.55l0.13,1.49c0.88-1.15,2.08-1.72,3.62-1.72c1.32,0,2.31,0.39,2.96,1.18s0.99,1.98,1.01,3.56v8.17
		h-3.96v-8c0-0.64-0.13-1.11-0.39-1.41s-0.73-0.45-1.41-0.45c-0.77,0-1.35,0.3-1.72,0.91v8.95h-3.95V73.55H110.74z"/>
	<path class="st0" d="M126.12,79.79c0-2.01,0.43-3.59,1.3-4.75s2.08-1.73,3.63-1.73c1.13,0,2.09,0.45,2.86,1.34v-6.42h3.96v18h-3.55
		l-0.2-1.36c-0.81,1.06-1.84,1.59-3.09,1.59c-1.51,0-2.7-0.58-3.59-1.73S126.12,81.93,126.12,79.79z M130.07,80.04
		c0,2.25,0.66,3.38,1.97,3.38c0.88,0,1.5-0.37,1.88-1.1v-4.83c-0.36-0.75-0.98-1.12-1.85-1.12c-1.22,0-1.88,0.98-1.98,2.95
		L130.07,80.04z"/>
	<path class="st0" d="M139.62,79.77c0-1.27,0.25-2.39,0.74-3.38s1.2-1.75,2.12-2.28s2-0.8,3.25-0.8c1.9,0,3.39,0.59,4.49,1.76
		c1.09,1.18,1.64,2.78,1.64,4.8v0.14c0,1.98-0.55,3.54-1.65,4.71c-1.1,1.16-2.58,1.74-4.46,1.74c-1.8,0-3.25-0.54-4.35-1.62
		s-1.68-2.55-1.77-4.4L139.62,79.77z M143.57,80.02c0,1.17,0.18,2.03,0.55,2.58s0.91,0.82,1.63,0.82c1.41,0,2.12-1.08,2.16-3.25
		v-0.4c0-2.27-0.73-3.41-2.18-3.41c-1.32,0-2.04,0.98-2.14,2.94L143.57,80.02z"/>
	<path class="st0" d="M157.76,86.23h-3.96v-18h3.96V86.23z"/>
	<path class="st0" d="M164.36,86.23h-3.96v-18h3.96V86.23z"/>
	<path class="st0" d="M173.94,86.23c-0.14-0.26-0.27-0.64-0.38-1.14c-0.73,0.91-1.74,1.37-3.05,1.37c-1.2,0-2.21-0.36-3.05-1.08
		s-1.25-1.63-1.25-2.72c0-1.38,0.51-2.41,1.52-3.12s2.49-1.05,4.43-1.05h1.22v-0.67c0-1.17-0.5-1.75-1.51-1.75
		c-0.94,0-1.41,0.46-1.41,1.39h-3.95c0-1.22,0.52-2.22,1.56-2.98s2.37-1.15,3.99-1.15s2.89,0.39,3.83,1.18s1.42,1.87,1.44,3.25v5.61
		c0.02,1.16,0.2,2.05,0.54,2.67v0.2H173.94z M171.46,83.65c0.49,0,0.9-0.11,1.22-0.32s0.56-0.45,0.7-0.71v-2.03h-1.15
		c-1.38,0-2.06,0.62-2.06,1.85c0,0.36,0.12,0.65,0.36,0.87S171.09,83.65,171.46,83.65z"/>
	<path class="st0" d="M187.2,77.12l-1.3-0.09c-1.24,0-2.04,0.39-2.39,1.17v8.03h-3.95V73.55h3.7l0.13,1.63
		c0.66-1.24,1.59-1.86,2.78-1.86c0.42,0,0.79,0.05,1.1,0.14L187.2,77.12z"/>
	<path class="st0" d="M199.96,83.42c0.55,0,0.98-0.15,1.29-0.45s0.45-0.72,0.45-1.26h3.7c0,1.39-0.5,2.53-1.49,3.42
		s-2.28,1.34-3.85,1.34c-1.84,0-3.3-0.58-4.36-1.73s-1.59-2.76-1.59-4.8v-0.16c0-1.28,0.24-2.41,0.71-3.39s1.15-1.73,2.04-2.26
		s1.95-0.79,3.16-0.79c1.65,0,2.96,0.46,3.93,1.37s1.45,2.15,1.45,3.71h-3.7c0-0.66-0.16-1.16-0.48-1.51s-0.75-0.53-1.29-0.53
		c-1.02,0-1.62,0.65-1.79,1.96c-0.05,0.41-0.08,0.98-0.08,1.71c0,1.27,0.15,2.16,0.46,2.65S199.3,83.42,199.96,83.42z"/>
	<path class="st0" d="M211.24,86.23h-3.96v-18h3.96V86.23z"/>
	<path class="st0" d="M221.22,84.86c-0.84,1.07-1.96,1.61-3.39,1.61c-1.39,0-2.44-0.4-3.16-1.21s-1.07-1.97-1.07-3.49v-8.21h3.95
		v8.24c0,1.09,0.53,1.63,1.58,1.63c0.91,0,1.55-0.32,1.93-0.97v-8.89h3.97v12.68h-3.7L221.22,84.86z"/>
	<path class="st0" d="M238.97,79.99c0,2.08-0.43,3.68-1.29,4.79s-2.07,1.68-3.63,1.68c-1.29,0-2.33-0.51-3.12-1.54l-0.16,1.3h-3.54
		v-18h3.95v6.34c0.73-0.84,1.68-1.25,2.85-1.25c1.58,0,2.8,0.57,3.66,1.7s1.29,2.73,1.29,4.78V79.99z M235.01,79.74
		c0-1.22-0.16-2.08-0.49-2.6s-0.82-0.78-1.49-0.78c-0.89,0-1.51,0.34-1.85,1.02v5.03c0.34,0.67,0.96,1.01,1.88,1.01
		c0.93,0,1.52-0.45,1.77-1.36C234.95,81.61,235.01,80.84,235.01,79.74z"/>
	<path class="st0" d="M243.16,82.4c0.62,0,1.14,0.19,1.56,0.56s0.62,0.85,0.62,1.42s-0.21,1.05-0.62,1.42s-0.93,0.56-1.56,0.56
		c-0.63,0-1.15-0.19-1.56-0.56s-0.62-0.85-0.62-1.42s0.21-1.04,0.62-1.42S242.53,82.4,243.16,82.4z"/>
</g>
</svg>
