<?xml version="1.0" encoding="utf-8"?>
<!-- Generator: Adobe Illustrator 25.3.1, SVG Export Plug-In . SVG Version: 6.00 Build 0)  -->
<svg version="1.1" id="Layer_1" xmlns="http://www.w3.org/2000/svg" xmlns:xlink="http://www.w3.org/1999/xlink" x="0px" y="0px"
	 viewBox="0 0 300 250" style="enable-background:new 0 0 300 250;" xml:space="preserve">
<style type="text/css">
	.st0{fill:#FFFFFF;}
</style>
<g>
	<path class="st0" d="M93.55,133.25c0-0.72-0.18-1.29-0.53-1.7s-0.98-0.8-1.87-1.16s-1.72-0.73-2.47-1.11s-1.41-0.81-1.96-1.3
		s-0.97-1.06-1.26-1.71s-0.44-1.43-0.44-2.35c0-1.54,0.52-2.81,1.56-3.81s2.42-1.58,4.16-1.74v-2.88h2.17v2.94
		c1.67,0.25,2.98,0.93,3.93,2.06c0.95,1.13,1.43,2.55,1.43,4.29h-4.62c0-0.95-0.18-1.68-0.55-2.19c-0.36-0.51-0.88-0.77-1.56-0.77
		c-0.6,0-1.07,0.19-1.4,0.57c-0.33,0.38-0.5,0.9-0.5,1.57c0,0.67,0.19,1.21,0.57,1.61s1,0.77,1.85,1.14s1.65,0.73,2.4,1.12
		s1.4,0.83,1.95,1.32s0.98,1.07,1.29,1.72s0.46,1.44,0.46,2.37c0,1.56-0.49,2.83-1.48,3.81s-2.34,1.56-4.04,1.72v2.75h-2.17v-2.76
		c-1.99-0.21-3.51-0.89-4.57-2.04s-1.59-2.67-1.59-4.56h4.61c0,1.04,0.23,1.83,0.69,2.37s1.11,0.81,1.96,0.81
		c0.62,0,1.11-0.18,1.46-0.55S93.55,133.9,93.55,133.25z"/>
	<path class="st0" d="M100.86,128.8l1.22-10.18h11.63v3.58h-7.89l-0.45,3.95c0.33-0.19,0.76-0.36,1.29-0.51s1.05-0.22,1.57-0.22
		c1.98,0,3.5,0.59,4.56,1.76s1.59,2.81,1.59,4.93c0,1.28-0.29,2.43-0.85,3.47s-1.37,1.83-2.4,2.39s-2.25,0.83-3.65,0.83
		c-1.25,0-2.42-0.26-3.51-0.77c-1.09-0.51-1.95-1.22-2.57-2.12c-0.62-0.9-0.92-1.91-0.92-3.04h4.62c0.05,0.73,0.28,1.3,0.7,1.73
		s0.97,0.64,1.65,0.64c1.55,0,2.32-1.15,2.32-3.44c0-2.12-0.95-3.18-2.84-3.18c-1.08,0-1.88,0.35-2.41,1.04L100.86,128.8z"/>
	<path class="st0" d="M127.93,118.33v3.62h-0.21c-1.72,0-3.14,0.41-4.25,1.24c-1.11,0.83-1.79,1.97-2.04,3.44
		c1.04-1.02,2.35-1.53,3.94-1.53c1.72,0,3.09,0.63,4.12,1.89c1.02,1.26,1.53,2.91,1.53,4.95c0,1.27-0.3,2.43-0.9,3.49
		s-1.43,1.88-2.5,2.48s-2.26,0.9-3.56,0.9c-1.41,0-2.67-0.32-3.79-0.96s-1.98-1.56-2.6-2.75s-0.94-2.57-0.96-4.13v-1.85
		c0-2.05,0.44-3.89,1.32-5.53c0.88-1.64,2.13-2.92,3.77-3.85s3.44-1.39,5.43-1.39H127.93z M123.78,128.63
		c-0.61,0-1.12,0.14-1.53,0.42s-0.72,0.63-0.92,1.04v1.38c0,2.52,0.87,3.77,2.61,3.77c0.7,0,1.29-0.31,1.76-0.94s0.7-1.42,0.7-2.37
		c0-0.98-0.24-1.77-0.72-2.39S124.57,128.63,123.78,128.63z"/>
	<path class="st0" d="M153.8,131.25c0,2.42-0.5,4.29-1.5,5.59s-2.41,1.96-4.24,1.96c-1.5,0-2.72-0.6-3.64-1.79l-0.19,1.52h-4.13v-21
		h4.61v7.4c0.86-0.98,1.96-1.46,3.32-1.46c1.84,0,3.26,0.66,4.27,1.98c1,1.32,1.5,3.18,1.5,5.58V131.25z M149.18,130.96
		c0-1.42-0.19-2.43-0.57-3.04c-0.38-0.6-0.96-0.91-1.74-0.91c-1.04,0-1.76,0.4-2.16,1.19v5.87c0.39,0.78,1.12,1.17,2.19,1.17
		c1.08,0,1.77-0.53,2.06-1.58C149.11,133.14,149.18,132.24,149.18,130.96z"/>
	<path class="st0" d="M155.8,119.92c0-0.66,0.24-1.19,0.71-1.61c0.47-0.42,1.09-0.63,1.85-0.63s1.37,0.21,1.85,0.63
		c0.47,0.42,0.71,0.96,0.71,1.61s-0.24,1.19-0.71,1.61c-0.47,0.42-1.09,0.63-1.85,0.63s-1.37-0.21-1.85-0.63
		C156.03,121.11,155.8,120.57,155.8,119.92z M160.69,138.53h-4.62v-14.79h4.62V138.53z"/>
	<path class="st0" d="M168.39,138.53h-4.62v-21h4.62V138.53z"/>
	<path class="st0" d="M176.09,138.53h-4.62v-21h4.62V138.53z"/>
	<path class="st0" d="M178.89,119.92c0-0.66,0.24-1.19,0.71-1.61c0.47-0.42,1.09-0.63,1.85-0.63s1.37,0.21,1.85,0.63
		c0.47,0.42,0.71,0.96,0.71,1.61s-0.24,1.19-0.71,1.61c-0.47,0.42-1.09,0.63-1.85,0.63s-1.37-0.21-1.85-0.63
		C179.13,121.11,178.89,120.57,178.89,119.92z M183.78,138.53h-4.62v-14.79h4.62V138.53z"/>
	<path class="st0" d="M186.04,130.99c0-1.48,0.29-2.79,0.86-3.94s1.4-2.04,2.47-2.66c1.08-0.62,2.34-0.93,3.79-0.93
		c2.21,0,3.96,0.69,5.24,2.06c1.28,1.37,1.91,3.24,1.91,5.6v0.16c0,2.31-0.64,4.14-1.92,5.49s-3.01,2.03-5.2,2.03
		c-2.11,0-3.8-0.63-5.07-1.89s-1.96-2.97-2.06-5.13L186.04,130.99z M190.65,131.28c0,1.37,0.21,2.37,0.64,3.01s1.06,0.96,1.9,0.96
		c1.64,0,2.48-1.26,2.52-3.79v-0.46c0-2.65-0.85-3.98-2.54-3.98c-1.54,0-2.37,1.14-2.5,3.43L190.65,131.28z"/>
	<path class="st0" d="M206.57,123.73l0.15,1.74c1.02-1.34,2.43-2.01,4.22-2.01c1.54,0,2.69,0.46,3.45,1.38
		c0.76,0.92,1.16,2.31,1.18,4.16v9.53h-4.62v-9.34c0-0.75-0.15-1.3-0.45-1.65s-0.85-0.53-1.64-0.53c-0.9,0-1.57,0.36-2.01,1.07
		v10.45h-4.61v-14.79H206.57z"/>
	<path class="st0" d="M99.8,153.52c0-0.66,0.24-1.19,0.71-1.61c0.47-0.42,1.09-0.63,1.85-0.63s1.37,0.21,1.85,0.63
		c0.47,0.42,0.71,0.96,0.71,1.61s-0.24,1.19-0.71,1.61c-0.47,0.42-1.09,0.63-1.85,0.63s-1.37-0.21-1.85-0.63
		C100.04,154.71,99.8,154.17,99.8,153.52z M104.7,172.13h-4.62v-14.79h4.62V172.13z"/>
	<path class="st0" d="M111.77,157.33l0.15,1.74c1.02-1.34,2.43-2.01,4.22-2.01c1.54,0,2.69,0.46,3.45,1.38
		c0.76,0.92,1.16,2.31,1.18,4.16v9.53h-4.62v-9.34c0-0.75-0.15-1.3-0.45-1.65c-0.3-0.35-0.85-0.53-1.64-0.53
		c-0.9,0-1.57,0.36-2.01,1.07v10.45h-4.61v-14.79H111.77z"/>
	<path class="st0" d="M144.11,172.13h-13.89v-3.01l6.4-6.73c1.58-1.79,2.37-3.22,2.37-4.28c0-0.86-0.19-1.51-0.56-1.96
		c-0.37-0.45-0.92-0.67-1.63-0.67c-0.7,0-1.27,0.3-1.71,0.9c-0.44,0.6-0.66,1.34-0.66,2.24h-4.62c0-1.22,0.31-2.35,0.92-3.38
		c0.61-1.03,1.46-1.84,2.54-2.43c1.08-0.58,2.3-0.88,3.64-0.88c2.15,0,3.81,0.5,4.97,1.49c1.16,0.99,1.74,2.42,1.74,4.28
		c0,0.78-0.15,1.55-0.44,2.29c-0.29,0.74-0.75,1.52-1.36,2.34c-0.62,0.82-1.61,1.91-2.97,3.27l-2.57,2.97h7.83V172.13z"/>
	<path class="st0" d="M160.26,163.99c0,2.69-0.6,4.76-1.81,6.22c-1.21,1.46-2.91,2.19-5.11,2.19c-2.21,0-3.93-0.73-5.14-2.2
		c-1.21-1.47-1.82-3.54-1.82-6.21v-3.64c0-2.69,0.6-4.76,1.81-6.22c1.21-1.46,2.91-2.19,5.12-2.19s3.92,0.73,5.13,2.2
		c1.21,1.47,1.82,3.54,1.82,6.22V163.99z M155.65,159.77c0-1.43-0.19-2.5-0.56-3.21c-0.37-0.71-0.97-1.06-1.78-1.06
		c-0.79,0-1.37,0.33-1.73,0.98s-0.55,1.65-0.58,2.98v5.09c0,1.49,0.19,2.57,0.56,3.26c0.37,0.69,0.97,1.03,1.78,1.03
		c0.78,0,1.36-0.33,1.74-1s0.57-1.72,0.57-3.15V159.77z"/>
	<path class="st0" d="M176.54,172.13h-13.89v-3.01l6.4-6.73c1.58-1.79,2.37-3.22,2.37-4.28c0-0.86-0.19-1.51-0.56-1.96
		c-0.37-0.45-0.92-0.67-1.63-0.67c-0.7,0-1.27,0.3-1.71,0.9c-0.44,0.6-0.66,1.34-0.66,2.24h-4.62c0-1.22,0.31-2.35,0.92-3.38
		c0.61-1.03,1.46-1.84,2.54-2.43c1.08-0.58,2.3-0.88,3.64-0.88c2.15,0,3.81,0.5,4.97,1.49c1.16,0.99,1.74,2.42,1.74,4.28
		c0,0.78-0.15,1.55-0.44,2.29c-0.29,0.74-0.75,1.52-1.36,2.34c-0.62,0.82-1.61,1.91-2.97,3.27l-2.57,2.97h7.83V172.13z"/>
	<path class="st0" d="M192.69,163.99c0,2.69-0.6,4.76-1.81,6.22c-1.21,1.46-2.91,2.19-5.11,2.19c-2.21,0-3.93-0.73-5.14-2.2
		c-1.21-1.47-1.82-3.54-1.82-6.21v-3.64c0-2.69,0.6-4.76,1.81-6.22c1.21-1.46,2.91-2.19,5.12-2.19s3.92,0.73,5.13,2.2
		c1.21,1.47,1.82,3.54,1.82,6.22V163.99z M188.08,159.77c0-1.43-0.19-2.5-0.56-3.21c-0.37-0.71-0.97-1.06-1.78-1.06
		c-0.79,0-1.37,0.33-1.73,0.98s-0.55,1.65-0.58,2.98v5.09c0,1.49,0.19,2.57,0.56,3.26c0.37,0.69,0.97,1.03,1.78,1.03
		c0.78,0,1.36-0.33,1.74-1s0.57-1.72,0.57-3.15V159.77z"/>
	<path class="st0" d="M196.67,155.18l-2.6-0.72l0.52-1.5l2.54,1.04l-0.2-2.8h1.71l-0.21,2.86l2.47-1.02l0.52,1.52l-2.63,0.72
		l1.75,2.11l-1.38,0.94l-1.46-2.34l-1.47,2.26l-1.38-0.9L196.67,155.18z"/>
</g>
</svg>
