<?xml version="1.0" encoding="utf-8"?>
<!-- Generator: Adobe Illustrator 25.3.1, SVG Export Plug-In . SVG Version: 6.00 Build 0)  -->
<svg version="1.1" id="Layer_1" xmlns="http://www.w3.org/2000/svg" xmlns:xlink="http://www.w3.org/1999/xlink" x="0px" y="0px"
	 viewBox="0 0 300 250" style="enable-background:new 0 0 300 250;" xml:space="preserve">
<style type="text/css">
	.st0{fill:#FFFFFF;}
</style>
<g>
	<path class="st0" d="M76.45,240.91l-0.89-0.26l0.16-0.5l0.88,0.34l-0.04-1.01h0.52l-0.04,1.02l0.87-0.34l0.16,0.5l-0.91,0.26
		l0.59,0.78l-0.42,0.31l-0.53-0.84L76.27,242l-0.43-0.3L76.45,240.91z"/>
	<path class="st0" d="M81.32,243.76h-2.87v-0.49l1.42-1.55c0.21-0.23,0.35-0.42,0.44-0.57s0.13-0.31,0.13-0.46
		c0-0.2-0.06-0.37-0.17-0.49C80.15,240.07,80,240,79.8,240c-0.23,0-0.41,0.07-0.54,0.21s-0.19,0.33-0.19,0.58h-0.71
		c0-0.26,0.06-0.49,0.18-0.7s0.29-0.37,0.51-0.48c0.22-0.12,0.47-0.17,0.76-0.17c0.41,0,0.74,0.1,0.98,0.31
		c0.24,0.21,0.36,0.5,0.36,0.86c0,0.21-0.06,0.44-0.18,0.67c-0.12,0.23-0.32,0.5-0.59,0.8l-1.04,1.12h1.98V243.76z"/>
	<path class="st0" d="M84.64,241.96c0,0.61-0.12,1.08-0.34,1.39c-0.23,0.31-0.58,0.47-1.05,0.47c-0.46,0-0.81-0.15-1.04-0.46
		s-0.35-0.75-0.36-1.35v-0.74c0-0.61,0.11-1.07,0.34-1.38c0.23-0.31,0.58-0.46,1.05-0.46c0.47,0,0.81,0.15,1.04,0.45
		s0.35,0.75,0.35,1.34V241.96z M83.93,241.17c0-0.4-0.05-0.69-0.16-0.88S83.48,240,83.24,240c-0.23,0-0.4,0.09-0.51,0.26
		s-0.17,0.45-0.17,0.83v0.97c0,0.4,0.06,0.7,0.17,0.89s0.29,0.29,0.52,0.29c0.23,0,0.4-0.09,0.51-0.27s0.17-0.46,0.17-0.85V241.17z"
		/>
	<path class="st0" d="M88.14,243.76h-2.87v-0.49l1.42-1.55c0.21-0.23,0.35-0.42,0.44-0.57s0.13-0.31,0.13-0.46
		c0-0.2-0.06-0.37-0.17-0.49c-0.11-0.12-0.27-0.19-0.46-0.19c-0.23,0-0.41,0.07-0.54,0.21s-0.19,0.33-0.19,0.58h-0.71
		c0-0.26,0.06-0.49,0.18-0.7s0.29-0.37,0.51-0.48c0.22-0.12,0.47-0.17,0.76-0.17c0.41,0,0.74,0.1,0.98,0.31
		c0.24,0.21,0.36,0.5,0.36,0.86c0,0.21-0.06,0.44-0.18,0.67c-0.12,0.23-0.32,0.5-0.59,0.8l-1.04,1.12h1.98V243.76z"/>
	<path class="st0" d="M90.61,243.76H89.9v-3.43l-1.05,0.36v-0.6l1.66-0.61h0.09V243.76z"/>
	<path class="st0" d="M94.48,243.76h-0.74v-4.27h0.74V243.76z"/>
	<path class="st0" d="M95.19,242.15c0-0.49,0.11-0.88,0.34-1.18s0.53-0.44,0.91-0.44c0.34,0,0.61,0.12,0.81,0.35v-1.62h0.71v4.5
		h-0.64l-0.04-0.33c-0.21,0.26-0.5,0.39-0.85,0.39c-0.37,0-0.67-0.15-0.9-0.45C95.3,243.07,95.19,242.66,95.19,242.15z M95.9,242.21
		c0,0.32,0.06,0.57,0.19,0.75s0.3,0.27,0.53,0.27c0.29,0,0.5-0.13,0.64-0.39v-1.35c-0.13-0.25-0.34-0.38-0.63-0.38
		c-0.23,0-0.41,0.09-0.53,0.27S95.9,241.84,95.9,242.21z"/>
	<path class="st0" d="M100.1,243.82c-0.45,0-0.82-0.14-1.1-0.43c-0.28-0.28-0.42-0.66-0.42-1.13v-0.09c0-0.32,0.06-0.6,0.18-0.85
		s0.29-0.44,0.51-0.58s0.47-0.21,0.74-0.21c0.43,0,0.76,0.14,1,0.41c0.23,0.28,0.35,0.67,0.35,1.17v0.29H99.3
		c0.02,0.26,0.11,0.47,0.26,0.62s0.35,0.23,0.58,0.23c0.33,0,0.59-0.13,0.8-0.4l0.38,0.37c-0.13,0.19-0.3,0.34-0.51,0.44
		C100.61,243.76,100.37,243.82,100.1,243.82z M100.02,241.1c-0.2,0-0.35,0.07-0.47,0.21c-0.12,0.14-0.2,0.33-0.23,0.57h1.36v-0.05
		c-0.02-0.24-0.08-0.42-0.19-0.54S100.22,241.1,100.02,241.1z"/>
	<path class="st0" d="M102.59,240.59l0.02,0.37c0.23-0.28,0.54-0.42,0.92-0.42c0.66,0,1,0.38,1.01,1.13v2.09h-0.71v-2.05
		c0-0.2-0.04-0.35-0.13-0.45c-0.09-0.1-0.23-0.14-0.43-0.14c-0.29,0-0.5,0.13-0.64,0.39v2.26h-0.71v-3.17H102.59z"/>
	<path class="st0" d="M106.16,239.82v0.77h0.56v0.53h-0.56v1.77c0,0.12,0.02,0.21,0.07,0.26s0.13,0.08,0.26,0.08
		c0.08,0,0.17-0.01,0.25-0.03v0.55c-0.16,0.04-0.32,0.07-0.47,0.07c-0.55,0-0.82-0.3-0.82-0.91v-1.8h-0.52v-0.53h0.52v-0.77H106.16z
		"/>
	<path class="st0" d="M107.26,239.76c0-0.11,0.03-0.2,0.1-0.27c0.07-0.07,0.17-0.11,0.3-0.11s0.23,0.04,0.3,0.11
		s0.11,0.16,0.11,0.27c0,0.11-0.04,0.2-0.11,0.27s-0.17,0.11-0.3,0.11s-0.23-0.04-0.3-0.11
		C107.3,239.96,107.26,239.87,107.26,239.76z M108.02,243.76h-0.71v-3.17h0.71V243.76z"/>
	<path class="st0" d="M109.68,239.82v0.77h0.56v0.53h-0.56v1.77c0,0.12,0.02,0.21,0.07,0.26s0.13,0.08,0.26,0.08
		c0.08,0,0.17-0.01,0.25-0.03v0.55c-0.16,0.04-0.32,0.07-0.47,0.07c-0.55,0-0.82-0.3-0.82-0.91v-1.8h-0.52v-0.53h0.52v-0.77H109.68z
		"/>
	<path class="st0" d="M111.9,242.74l0.64-2.15h0.76l-1.26,3.65c-0.19,0.53-0.52,0.8-0.98,0.8c-0.1,0-0.22-0.02-0.34-0.05v-0.55
		l0.13,0.01c0.18,0,0.32-0.03,0.41-0.1c0.09-0.07,0.16-0.17,0.22-0.33l0.1-0.27l-1.11-3.15h0.77L111.9,242.74z"/>
	<path class="st0" d="M117.73,241.95h-1.72v1.81h-0.74v-4.27h2.71v0.6h-1.97v1.27h1.72V241.95z"/>
	<path class="st0" d="M120.08,241.24c-0.09-0.02-0.19-0.02-0.29-0.02c-0.33,0-0.55,0.12-0.66,0.38v2.17h-0.71v-3.17h0.68l0.02,0.35
		c0.17-0.28,0.41-0.41,0.71-0.41c0.1,0,0.19,0.01,0.25,0.04L120.08,241.24z"/>
	<path class="st0" d="M122.34,243.76c-0.03-0.06-0.06-0.16-0.08-0.3c-0.23,0.24-0.5,0.35-0.83,0.35c-0.32,0-0.58-0.09-0.78-0.27
		s-0.3-0.41-0.3-0.67c0-0.34,0.12-0.6,0.38-0.78c0.25-0.18,0.61-0.27,1.08-0.27h0.44v-0.21c0-0.16-0.05-0.3-0.14-0.39
		s-0.23-0.15-0.42-0.15c-0.16,0-0.29,0.04-0.4,0.12s-0.16,0.18-0.16,0.31h-0.71c0-0.17,0.06-0.34,0.17-0.49s0.27-0.27,0.47-0.36
		c0.2-0.09,0.42-0.13,0.66-0.13c0.37,0,0.67,0.09,0.89,0.28s0.33,0.45,0.34,0.79v1.43c0,0.29,0.04,0.51,0.12,0.68v0.05H122.34z
		 M121.56,243.25c0.14,0,0.27-0.03,0.4-0.1s0.22-0.16,0.28-0.28v-0.6h-0.38c-0.26,0-0.46,0.05-0.59,0.14s-0.2,0.22-0.2,0.39
		c0,0.14,0.05,0.25,0.14,0.33C121.28,243.2,121.4,243.25,121.56,243.25z"/>
	<path class="st0" d="M125.61,243.45c-0.21,0.25-0.51,0.37-0.89,0.37c-0.34,0-0.6-0.1-0.78-0.3s-0.26-0.49-0.26-0.87v-2.05h0.71
		v2.04c0,0.4,0.17,0.6,0.5,0.6c0.35,0,0.58-0.12,0.7-0.37v-2.28h0.71v3.17h-0.67L125.61,243.45z"/>
	<path class="st0" d="M126.89,242.15c0-0.49,0.11-0.88,0.34-1.18s0.53-0.44,0.91-0.44c0.34,0,0.61,0.12,0.81,0.35v-1.62h0.71v4.5
		h-0.64l-0.04-0.33c-0.21,0.26-0.5,0.39-0.85,0.39c-0.37,0-0.67-0.15-0.9-0.45C127,243.07,126.89,242.66,126.89,242.15z
		 M127.6,242.21c0,0.32,0.06,0.57,0.19,0.75s0.3,0.27,0.53,0.27c0.29,0,0.5-0.13,0.64-0.39v-1.35c-0.13-0.25-0.34-0.38-0.63-0.38
		c-0.23,0-0.41,0.09-0.53,0.27S127.6,241.84,127.6,242.21z"/>
	<path class="st0" d="M134.2,242.66c0-0.19-0.07-0.33-0.2-0.43c-0.13-0.1-0.37-0.2-0.71-0.31s-0.62-0.22-0.82-0.35
		c-0.39-0.24-0.58-0.56-0.58-0.96c0-0.34,0.14-0.63,0.42-0.85c0.28-0.22,0.64-0.33,1.09-0.33c0.3,0,0.56,0.05,0.79,0.16
		s0.42,0.26,0.55,0.47s0.2,0.43,0.2,0.67h-0.74c0-0.22-0.07-0.4-0.21-0.52s-0.34-0.19-0.6-0.19c-0.24,0-0.43,0.05-0.56,0.16
		c-0.13,0.1-0.2,0.25-0.2,0.43c0,0.16,0.07,0.29,0.22,0.39s0.38,0.21,0.71,0.3s0.6,0.21,0.8,0.34s0.35,0.27,0.44,0.43
		s0.14,0.35,0.14,0.57c0,0.36-0.14,0.64-0.41,0.85c-0.27,0.21-0.64,0.32-1.11,0.32c-0.31,0-0.59-0.06-0.85-0.17s-0.46-0.27-0.6-0.47
		c-0.14-0.2-0.21-0.44-0.21-0.7h0.74c0,0.24,0.08,0.43,0.24,0.56s0.39,0.2,0.69,0.2c0.26,0,0.45-0.05,0.58-0.16
		C134.14,242.97,134.2,242.83,134.2,242.66z"/>
	<path class="st0" d="M136.42,239.82v0.77h0.56v0.53h-0.56v1.77c0,0.12,0.02,0.21,0.07,0.26s0.13,0.08,0.26,0.08
		c0.08,0,0.17-0.01,0.25-0.03v0.55c-0.16,0.04-0.32,0.07-0.47,0.07c-0.55,0-0.82-0.3-0.82-0.91v-1.8h-0.52v-0.53h0.52v-0.77H136.42z
		"/>
	<path class="st0" d="M139.44,243.45c-0.21,0.25-0.51,0.37-0.89,0.37c-0.34,0-0.6-0.1-0.78-0.3s-0.26-0.49-0.26-0.87v-2.05h0.71
		v2.04c0,0.4,0.17,0.6,0.5,0.6c0.35,0,0.58-0.12,0.7-0.37v-2.28h0.71v3.17h-0.67L139.44,243.45z"/>
	<path class="st0" d="M140.72,242.15c0-0.49,0.11-0.88,0.34-1.18s0.53-0.44,0.91-0.44c0.34,0,0.61,0.12,0.81,0.35v-1.62h0.71v4.5
		h-0.64l-0.04-0.33c-0.21,0.26-0.5,0.39-0.85,0.39c-0.37,0-0.67-0.15-0.9-0.45C140.84,243.07,140.72,242.66,140.72,242.15z
		 M141.43,242.21c0,0.32,0.06,0.57,0.19,0.75s0.3,0.27,0.53,0.27c0.29,0,0.5-0.13,0.64-0.39v-1.35c-0.13-0.25-0.34-0.38-0.63-0.38
		c-0.23,0-0.41,0.09-0.53,0.27S141.43,241.84,141.43,242.21z"/>
	<path class="st0" d="M145.35,242.74l0.64-2.15h0.76l-1.26,3.65c-0.19,0.53-0.52,0.8-0.98,0.8c-0.1,0-0.22-0.02-0.34-0.05v-0.55
		l0.13,0.01c0.18,0,0.32-0.03,0.41-0.1c0.09-0.07,0.16-0.17,0.22-0.33l0.1-0.27l-1.11-3.15h0.77L145.35,242.74z"/>
	<path class="st0" d="M147.26,244.72l-0.38-0.23c0.11-0.18,0.19-0.33,0.23-0.46s0.06-0.27,0.07-0.4v-0.55h0.64l0,0.51
		c0,0.21-0.05,0.41-0.16,0.62C147.56,244.41,147.43,244.58,147.26,244.72z"/>
	<path class="st0" d="M151.79,239.49h0.74v2.99c0,0.41-0.13,0.73-0.38,0.97c-0.25,0.24-0.59,0.36-1.01,0.36
		c-0.45,0-0.79-0.11-1.03-0.34s-0.36-0.54-0.36-0.94h0.74c0,0.23,0.06,0.4,0.17,0.51c0.11,0.11,0.27,0.17,0.49,0.17
		c0.2,0,0.36-0.07,0.48-0.2s0.18-0.31,0.18-0.55V239.49z"/>
	<path class="st0" d="M155.2,243.76c-0.03-0.06-0.06-0.16-0.08-0.3c-0.23,0.24-0.5,0.35-0.83,0.35c-0.32,0-0.58-0.09-0.78-0.27
		s-0.3-0.41-0.3-0.67c0-0.34,0.12-0.6,0.38-0.78c0.25-0.18,0.61-0.27,1.08-0.27h0.44v-0.21c0-0.16-0.05-0.3-0.14-0.39
		s-0.23-0.15-0.42-0.15c-0.16,0-0.29,0.04-0.4,0.12s-0.16,0.18-0.16,0.31h-0.71c0-0.17,0.06-0.34,0.17-0.49s0.27-0.27,0.47-0.36
		c0.2-0.09,0.42-0.13,0.66-0.13c0.37,0,0.67,0.09,0.89,0.28s0.33,0.45,0.34,0.79v1.43c0,0.29,0.04,0.51,0.12,0.68v0.05H155.2z
		 M154.42,243.25c0.14,0,0.27-0.03,0.4-0.1s0.22-0.16,0.28-0.28v-0.6h-0.38c-0.26,0-0.46,0.05-0.59,0.14s-0.2,0.22-0.2,0.39
		c0,0.14,0.05,0.25,0.14,0.33C154.14,243.2,154.27,243.25,154.42,243.25z"/>
	<path class="st0" d="M157.63,242.86l0.67-2.27h0.74l-1.1,3.17h-0.62l-1.11-3.17h0.74L157.63,242.86z"/>
	<path class="st0" d="M160.87,243.82c-0.45,0-0.82-0.14-1.1-0.43c-0.28-0.28-0.42-0.66-0.42-1.13v-0.09c0-0.32,0.06-0.6,0.18-0.85
		s0.29-0.44,0.51-0.58s0.47-0.21,0.74-0.21c0.43,0,0.76,0.14,1,0.41c0.23,0.28,0.35,0.67,0.35,1.17v0.29h-2.07
		c0.02,0.26,0.11,0.47,0.26,0.62s0.35,0.23,0.58,0.23c0.33,0,0.59-0.13,0.8-0.4l0.38,0.37c-0.13,0.19-0.3,0.34-0.51,0.44
		C161.37,243.76,161.14,243.82,160.87,243.82z M160.79,241.1c-0.2,0-0.35,0.07-0.47,0.21c-0.12,0.14-0.2,0.33-0.23,0.57h1.36v-0.05
		c-0.02-0.24-0.08-0.42-0.19-0.54S160.98,241.1,160.79,241.1z"/>
	<path class="st0" d="M163.45,243.76h-0.71v-4.5h0.71V243.76z"/>
	<path class="st0" d="M164.23,239.76c0-0.11,0.03-0.2,0.1-0.27c0.07-0.07,0.17-0.11,0.3-0.11s0.23,0.04,0.3,0.11
		s0.11,0.16,0.11,0.27c0,0.11-0.04,0.2-0.11,0.27s-0.17,0.11-0.3,0.11s-0.23-0.04-0.3-0.11
		C164.26,239.96,164.23,239.87,164.23,239.76z M164.99,243.76h-0.71v-3.17h0.71V243.76z"/>
	<path class="st0" d="M166.42,240.59l0.02,0.37c0.23-0.28,0.54-0.42,0.92-0.42c0.66,0,1,0.38,1.01,1.13v2.09h-0.71v-2.05
		c0-0.2-0.04-0.35-0.13-0.45c-0.09-0.1-0.23-0.14-0.43-0.14c-0.29,0-0.5,0.13-0.64,0.39v2.26h-0.71v-3.17H166.42z"/>
	<path class="st0" d="M172.89,242.66c0-0.19-0.07-0.33-0.2-0.43c-0.13-0.1-0.37-0.2-0.71-0.31s-0.62-0.22-0.82-0.35
		c-0.39-0.24-0.58-0.56-0.58-0.96c0-0.34,0.14-0.63,0.42-0.85c0.28-0.22,0.64-0.33,1.09-0.33c0.3,0,0.56,0.05,0.79,0.16
		s0.42,0.26,0.55,0.47s0.2,0.43,0.2,0.67h-0.74c0-0.22-0.07-0.4-0.21-0.52s-0.34-0.19-0.6-0.19c-0.24,0-0.43,0.05-0.56,0.16
		c-0.13,0.1-0.2,0.25-0.2,0.43c0,0.16,0.07,0.29,0.22,0.39s0.38,0.21,0.71,0.3s0.6,0.21,0.8,0.34s0.35,0.27,0.44,0.43
		s0.14,0.35,0.14,0.57c0,0.36-0.14,0.64-0.41,0.85c-0.27,0.21-0.64,0.32-1.11,0.32c-0.31,0-0.59-0.06-0.85-0.17s-0.46-0.27-0.6-0.47
		c-0.14-0.2-0.21-0.44-0.21-0.7h0.74c0,0.24,0.08,0.43,0.24,0.56s0.39,0.2,0.69,0.2c0.26,0,0.45-0.05,0.58-0.16
		C172.82,242.97,172.89,242.83,172.89,242.66z"/>
	<path class="st0" d="M175.1,239.82v0.77h0.56v0.53h-0.56v1.77c0,0.12,0.02,0.21,0.07,0.26s0.13,0.08,0.26,0.08
		c0.08,0,0.17-0.01,0.25-0.03v0.55c-0.16,0.04-0.32,0.07-0.47,0.07c-0.55,0-0.82-0.3-0.82-0.91v-1.8h-0.52v-0.53h0.52v-0.77H175.1z"
		/>
	<path class="st0" d="M177.87,241.24c-0.09-0.02-0.19-0.02-0.29-0.02c-0.33,0-0.55,0.12-0.66,0.38v2.17h-0.71v-3.17h0.68l0.02,0.35
		c0.17-0.28,0.41-0.41,0.71-0.41c0.1,0,0.19,0.01,0.25,0.04L177.87,241.24z"/>
	<path class="st0" d="M180.12,243.76c-0.03-0.06-0.06-0.16-0.08-0.3c-0.23,0.24-0.5,0.35-0.83,0.35c-0.32,0-0.58-0.09-0.78-0.27
		s-0.3-0.41-0.3-0.67c0-0.34,0.12-0.6,0.38-0.78c0.25-0.18,0.61-0.27,1.08-0.27h0.44v-0.21c0-0.16-0.05-0.3-0.14-0.39
		s-0.23-0.15-0.42-0.15c-0.16,0-0.29,0.04-0.4,0.12s-0.16,0.18-0.16,0.31h-0.71c0-0.17,0.06-0.34,0.17-0.49s0.27-0.27,0.47-0.36
		c0.2-0.09,0.42-0.13,0.66-0.13c0.37,0,0.67,0.09,0.89,0.28s0.33,0.45,0.34,0.79v1.43c0,0.29,0.04,0.51,0.12,0.68v0.05H180.12z
		 M179.34,243.25c0.14,0,0.27-0.03,0.4-0.1s0.22-0.16,0.28-0.28v-0.6h-0.38c-0.26,0-0.46,0.05-0.59,0.14s-0.2,0.22-0.2,0.39
		c0,0.14,0.05,0.25,0.14,0.33C179.07,243.2,179.19,243.25,179.34,243.25z"/>
	<path class="st0" d="M182.37,239.82v0.77h0.56v0.53h-0.56v1.77c0,0.12,0.02,0.21,0.07,0.26s0.13,0.08,0.26,0.08
		c0.08,0,0.17-0.01,0.25-0.03v0.55c-0.16,0.04-0.32,0.07-0.47,0.07c-0.55,0-0.82-0.3-0.82-0.91v-1.8h-0.52v-0.53h0.52v-0.77H182.37z
		"/>
	<path class="st0" d="M184.87,243.82c-0.45,0-0.82-0.14-1.1-0.43c-0.28-0.28-0.42-0.66-0.42-1.13v-0.09c0-0.32,0.06-0.6,0.18-0.85
		s0.29-0.44,0.51-0.58s0.47-0.21,0.74-0.21c0.43,0,0.76,0.14,1,0.41c0.23,0.28,0.35,0.67,0.35,1.17v0.29h-2.07
		c0.02,0.26,0.11,0.47,0.26,0.62s0.35,0.23,0.58,0.23c0.33,0,0.59-0.13,0.8-0.4l0.38,0.37c-0.13,0.19-0.3,0.34-0.51,0.44
		C185.37,243.76,185.13,243.82,184.87,243.82z M184.78,241.1c-0.2,0-0.35,0.07-0.47,0.21c-0.12,0.14-0.2,0.33-0.23,0.57h1.36v-0.05
		c-0.02-0.24-0.08-0.42-0.19-0.54S184.98,241.1,184.78,241.1z"/>
	<path class="st0" d="M186.57,242.15c0-0.49,0.12-0.89,0.35-1.18c0.23-0.29,0.54-0.44,0.92-0.44c0.36,0,0.65,0.13,0.85,0.38
		l0.03-0.32h0.64v3.07c0,0.42-0.13,0.74-0.39,0.98s-0.61,0.36-1.05,0.36c-0.23,0-0.46-0.05-0.68-0.15s-0.39-0.22-0.5-0.38l0.34-0.43
		c0.22,0.26,0.49,0.39,0.81,0.39c0.24,0,0.42-0.06,0.56-0.19s0.21-0.32,0.21-0.56v-0.21c-0.21,0.23-0.48,0.34-0.82,0.34
		c-0.37,0-0.67-0.15-0.91-0.44C186.68,243.08,186.57,242.67,186.57,242.15z M187.27,242.21c0,0.32,0.06,0.57,0.2,0.75
		c0.13,0.18,0.31,0.27,0.54,0.27c0.29,0,0.5-0.12,0.64-0.37v-1.39c-0.13-0.24-0.35-0.36-0.63-0.36c-0.23,0-0.42,0.09-0.55,0.28
		C187.34,241.58,187.27,241.85,187.27,242.21z"/>
	<path class="st0" d="M191.2,242.74l0.64-2.15h0.76l-1.26,3.65c-0.19,0.53-0.52,0.8-0.98,0.8c-0.1,0-0.22-0.02-0.34-0.05v-0.55
		l0.13,0.01c0.18,0,0.32-0.03,0.41-0.1c0.09-0.07,0.16-0.17,0.22-0.33l0.1-0.27l-1.11-3.15h0.77L191.2,242.74z"/>
	<path class="st0" d="M194.39,242.61c0-0.2,0.05-0.38,0.16-0.54s0.32-0.36,0.64-0.59c-0.17-0.21-0.28-0.39-0.35-0.53
		s-0.1-0.29-0.1-0.42c0-0.33,0.1-0.6,0.3-0.79s0.48-0.29,0.82-0.29c0.31,0,0.56,0.09,0.76,0.27c0.2,0.18,0.3,0.41,0.3,0.68
		c0,0.18-0.04,0.34-0.13,0.49s-0.24,0.3-0.44,0.45l-0.29,0.21l0.82,0.97c0.12-0.23,0.18-0.5,0.18-0.78h0.62
		c0,0.53-0.12,0.96-0.37,1.29l0.63,0.74h-0.83l-0.24-0.28c-0.3,0.23-0.67,0.34-1.09,0.34s-0.76-0.11-1.01-0.34
		S194.39,242.97,194.39,242.61z M195.81,243.25c0.24,0,0.46-0.08,0.67-0.24l-0.93-1.1l-0.09,0.06c-0.23,0.18-0.35,0.38-0.35,0.61
		c0,0.2,0.06,0.36,0.19,0.48S195.59,243.25,195.81,243.25z M195.41,240.5c0,0.16,0.1,0.37,0.3,0.62l0.33-0.22l0.09-0.07
		c0.12-0.11,0.18-0.25,0.18-0.41c0-0.11-0.04-0.21-0.13-0.29S196,240,195.87,240c-0.14,0-0.25,0.05-0.33,0.14
		S195.41,240.36,195.41,240.5z"/>
	<path class="st0" d="M201.47,242.12h-0.83v1.64h-0.74v-4.27h1.5c0.49,0,0.87,0.11,1.14,0.33s0.4,0.54,0.4,0.96
		c0,0.29-0.07,0.52-0.21,0.72c-0.14,0.19-0.33,0.34-0.58,0.44l0.96,1.78v0.04h-0.79L201.47,242.12z M200.65,241.52h0.76
		c0.25,0,0.45-0.06,0.59-0.19s0.21-0.3,0.21-0.52c0-0.23-0.07-0.41-0.19-0.53c-0.13-0.12-0.32-0.19-0.58-0.19h-0.78V241.52z"/>
	<path class="st0" d="M204.98,243.82c-0.45,0-0.82-0.14-1.1-0.43c-0.28-0.28-0.42-0.66-0.42-1.13v-0.09c0-0.32,0.06-0.6,0.18-0.85
		s0.29-0.44,0.51-0.58s0.47-0.21,0.74-0.21c0.43,0,0.76,0.14,1,0.41c0.23,0.28,0.35,0.67,0.35,1.17v0.29h-2.07
		c0.02,0.26,0.11,0.47,0.26,0.62s0.35,0.23,0.58,0.23c0.33,0,0.59-0.13,0.8-0.4l0.38,0.37c-0.13,0.19-0.3,0.34-0.51,0.44
		C205.48,243.76,205.24,243.82,204.98,243.82z M204.89,241.1c-0.2,0-0.35,0.07-0.47,0.21c-0.12,0.14-0.2,0.33-0.23,0.57h1.36v-0.05
		c-0.02-0.24-0.08-0.42-0.19-0.54S205.09,241.1,204.89,241.1z"/>
	<path class="st0" d="M208.58,242.9c0-0.13-0.05-0.22-0.16-0.29s-0.28-0.12-0.52-0.18s-0.44-0.12-0.61-0.19
		c-0.36-0.17-0.53-0.42-0.53-0.75c0-0.27,0.12-0.5,0.35-0.69s0.52-0.28,0.88-0.28c0.38,0,0.68,0.09,0.92,0.28
		c0.23,0.19,0.35,0.43,0.35,0.73h-0.71c0-0.14-0.05-0.25-0.15-0.34s-0.24-0.14-0.4-0.14c-0.16,0-0.28,0.04-0.38,0.11
		c-0.1,0.07-0.15,0.17-0.15,0.29c0,0.11,0.05,0.19,0.14,0.25s0.28,0.12,0.56,0.18s0.5,0.13,0.66,0.22s0.28,0.19,0.36,0.31
		c0.08,0.12,0.12,0.26,0.12,0.43c0,0.29-0.12,0.52-0.35,0.69s-0.55,0.27-0.93,0.27c-0.26,0-0.49-0.05-0.69-0.14
		s-0.36-0.22-0.47-0.39s-0.17-0.34-0.17-0.53h0.69c0.01,0.17,0.07,0.3,0.19,0.39s0.27,0.14,0.47,0.14c0.19,0,0.33-0.04,0.43-0.11
		S208.58,243.01,208.58,242.9z"/>
	<path class="st0" d="M211.29,243.82c-0.45,0-0.82-0.14-1.1-0.43c-0.28-0.28-0.42-0.66-0.42-1.13v-0.09c0-0.32,0.06-0.6,0.18-0.85
		s0.29-0.44,0.51-0.58s0.47-0.21,0.74-0.21c0.43,0,0.76,0.14,1,0.41c0.23,0.28,0.35,0.67,0.35,1.17v0.29h-2.07
		c0.02,0.26,0.11,0.47,0.26,0.62s0.35,0.23,0.58,0.23c0.33,0,0.59-0.13,0.8-0.4l0.38,0.37c-0.13,0.19-0.3,0.34-0.51,0.44
		C211.79,243.76,211.56,243.82,211.29,243.82z M211.21,241.1c-0.2,0-0.35,0.07-0.47,0.21c-0.12,0.14-0.2,0.33-0.23,0.57h1.36v-0.05
		c-0.02-0.24-0.08-0.42-0.19-0.54S211.4,241.1,211.21,241.1z"/>
	<path class="st0" d="M215.01,243.76c-0.03-0.06-0.06-0.16-0.08-0.3c-0.23,0.24-0.5,0.35-0.83,0.35c-0.32,0-0.58-0.09-0.78-0.27
		s-0.3-0.41-0.3-0.67c0-0.34,0.12-0.6,0.38-0.78c0.25-0.18,0.61-0.27,1.08-0.27h0.44v-0.21c0-0.16-0.05-0.3-0.14-0.39
		s-0.23-0.15-0.42-0.15c-0.16,0-0.29,0.04-0.4,0.12s-0.16,0.18-0.16,0.31h-0.71c0-0.17,0.06-0.34,0.17-0.49s0.27-0.27,0.47-0.36
		c0.2-0.09,0.42-0.13,0.66-0.13c0.37,0,0.67,0.09,0.89,0.28s0.33,0.45,0.34,0.79v1.43c0,0.29,0.04,0.51,0.12,0.68v0.05H215.01z
		 M214.23,243.25c0.14,0,0.27-0.03,0.4-0.1s0.22-0.16,0.28-0.28v-0.6h-0.38c-0.26,0-0.46,0.05-0.59,0.14s-0.2,0.22-0.2,0.39
		c0,0.14,0.05,0.25,0.14,0.33C213.95,243.2,214.08,243.25,214.23,243.25z"/>
	<path class="st0" d="M218.02,241.24c-0.09-0.02-0.19-0.02-0.29-0.02c-0.33,0-0.55,0.12-0.66,0.38v2.17h-0.71v-3.17h0.68l0.02,0.35
		c0.17-0.28,0.41-0.41,0.71-0.41c0.1,0,0.19,0.01,0.25,0.04L218.02,241.24z"/>
	<path class="st0" d="M219.72,243.25c0.18,0,0.33-0.05,0.44-0.16s0.18-0.23,0.19-0.38h0.67c-0.01,0.2-0.07,0.38-0.18,0.55
		s-0.27,0.31-0.47,0.41s-0.41,0.15-0.64,0.15c-0.44,0-0.79-0.14-1.05-0.43s-0.39-0.68-0.39-1.19v-0.07c0-0.48,0.13-0.87,0.39-1.16
		s0.61-0.43,1.05-0.43c0.38,0,0.68,0.11,0.92,0.33c0.24,0.22,0.36,0.51,0.37,0.87h-0.67c-0.01-0.18-0.07-0.33-0.19-0.45
		c-0.12-0.12-0.26-0.18-0.44-0.18c-0.23,0-0.41,0.08-0.53,0.25s-0.19,0.42-0.19,0.76v0.11c0,0.34,0.06,0.6,0.19,0.77
		S219.48,243.25,219.72,243.25z"/>
	<path class="st0" d="M222.26,240.93c0.23-0.27,0.53-0.4,0.88-0.4c0.68,0,1.02,0.39,1.03,1.16v2.07h-0.71v-2.04
		c0-0.22-0.05-0.37-0.14-0.46c-0.1-0.09-0.23-0.14-0.42-0.14c-0.29,0-0.5,0.13-0.64,0.38v2.26h-0.71v-4.5h0.71V240.93z"/>
</g>
</svg>
