<?xml version="1.0" encoding="utf-8"?>
<!-- Generator: Adobe Illustrator 24.2.3, SVG Export Plug-In . SVG Version: 6.00 Build 0)  -->
<svg version="1.1" id="Layer_1" xmlns="http://www.w3.org/2000/svg" xmlns:xlink="http://www.w3.org/1999/xlink" x="0px" y="0px"
	 viewBox="0 0 970 250" style="enable-background:new 0 0 970 250;" xml:space="preserve">
<style type="text/css">
	.st0{fill:#FFFFFF;}
</style>
<g>
	<path class="st0" d="M351.22,33.19h-9.31v25.68h-5.15V33.19h-9.23v-4.18h23.69V33.19z"/>
	<path class="st0" d="M359.56,39.1c1.63-1.89,3.68-2.83,6.17-2.83c4.73,0,7.13,2.7,7.2,8.1v14.5h-4.98V44.55
		c0-1.53-0.33-2.61-1-3.25s-1.64-0.95-2.92-0.95c-2,0-3.49,0.89-4.47,2.67v15.85h-4.98v-31.5h4.98V39.1z"/>
	<path class="st0" d="M387.74,59.28c-3.16,0-5.72-0.99-7.68-2.98s-2.94-4.64-2.94-7.95v-0.62c0-2.21,0.43-4.19,1.28-5.94
		c0.85-1.74,2.05-3.1,3.6-4.07s3.27-1.46,5.17-1.46c3.02,0,5.36,0.96,7,2.89s2.47,4.66,2.47,8.18v2.01h-14.5
		c0.15,1.83,0.76,3.28,1.84,4.35c1.07,1.07,2.42,1.6,4.05,1.6c2.28,0,4.14-0.92,5.58-2.77l2.69,2.56c-0.89,1.33-2.08,2.35-3.56,3.09
		S389.59,59.28,387.74,59.28z M387.15,40.26c-1.37,0-2.47,0.48-3.31,1.44c-0.84,0.96-1.38,2.29-1.61,4h9.5v-0.37
		c-0.11-1.67-0.55-2.93-1.33-3.78S388.53,40.26,387.15,40.26z"/>
	<path class="st0" d="M412.12,41.23c-0.66-0.11-1.33-0.16-2.03-0.16c-2.28,0-3.82,0.88-4.61,2.62v15.18h-4.98V36.68h4.76l0.12,2.48
		c1.2-1.93,2.87-2.89,5-2.89c0.71,0,1.3,0.1,1.76,0.29L412.12,41.23z"/>
	<path class="st0" d="M425.04,59.28c-3.16,0-5.72-0.99-7.68-2.98s-2.94-4.64-2.94-7.95v-0.62c0-2.21,0.43-4.19,1.28-5.94
		c0.85-1.74,2.05-3.1,3.6-4.07s3.27-1.46,5.17-1.46c3.02,0,5.36,0.96,7,2.89s2.47,4.66,2.47,8.18v2.01h-14.5
		c0.15,1.83,0.76,3.28,1.84,4.35c1.07,1.07,2.42,1.6,4.05,1.6c2.28,0,4.14-0.92,5.58-2.77l2.69,2.56c-0.89,1.33-2.08,2.35-3.56,3.09
		S426.89,59.28,425.04,59.28z M424.45,40.26c-1.37,0-2.47,0.48-3.31,1.44c-0.84,0.96-1.38,2.29-1.61,4h9.5v-0.37
		c-0.11-1.67-0.55-2.93-1.33-3.78S425.83,40.26,424.45,40.26z"/>
	<path class="st0" d="M467.76,52l3.53-15.32h4.86l-6.05,22.19H466l-4.76-15.24l-4.68,15.24h-4.1l-6.07-22.19h4.86l3.59,15.16
		l4.55-15.16h3.75L467.76,52z"/>
	<path class="st0" d="M489.25,59.28c-3.16,0-5.72-0.99-7.68-2.98s-2.94-4.64-2.94-7.95v-0.62c0-2.21,0.43-4.19,1.28-5.94
		c0.85-1.74,2.05-3.1,3.6-4.07s3.27-1.46,5.17-1.46c3.02,0,5.36,0.96,7,2.89c1.65,1.93,2.47,4.66,2.47,8.18v2.01h-14.5
		c0.15,1.83,0.76,3.28,1.84,4.35c1.07,1.07,2.42,1.6,4.05,1.6c2.28,0,4.14-0.92,5.58-2.77l2.69,2.56c-0.89,1.33-2.08,2.35-3.56,3.09
		C492.76,58.91,491.1,59.28,489.25,59.28z M488.66,40.26c-1.37,0-2.47,0.48-3.31,1.44c-0.84,0.96-1.38,2.29-1.61,4h9.49v-0.37
		c-0.11-1.67-0.55-2.93-1.33-3.78S490.04,40.26,488.66,40.26z"/>
	<path class="st0" d="M513.64,41.23c-0.66-0.11-1.33-0.16-2.03-0.16c-2.28,0-3.82,0.88-4.61,2.62v15.18h-4.98V36.68h4.76l0.12,2.48
		c1.2-1.93,2.87-2.89,5-2.89c0.71,0,1.3,0.1,1.76,0.29L513.64,41.23z"/>
	<path class="st0" d="M526.56,59.28c-3.16,0-5.72-0.99-7.68-2.98c-1.96-1.99-2.94-4.64-2.94-7.95v-0.62c0-2.21,0.43-4.19,1.28-5.94
		c0.85-1.74,2.05-3.1,3.6-4.07s3.27-1.46,5.17-1.46c3.02,0,5.36,0.96,7,2.89c1.65,1.93,2.47,4.66,2.47,8.18v2.01h-14.5
		c0.15,1.83,0.76,3.28,1.84,4.35c1.07,1.07,2.42,1.6,4.05,1.6c2.28,0,4.14-0.92,5.58-2.77l2.69,2.56c-0.89,1.33-2.07,2.35-3.56,3.09
		C530.07,58.91,528.4,59.28,526.56,59.28z M525.96,40.26c-1.37,0-2.47,0.48-3.31,1.44c-0.84,0.96-1.38,2.29-1.61,4h9.5v-0.37
		c-0.11-1.67-0.55-2.93-1.33-3.78S527.34,40.26,525.96,40.26z"/>
	<path class="st0" d="M241.54,131.71c0-0.77,0.24-1.4,0.73-1.91s1.18-0.76,2.08-0.76s1.6,0.25,2.09,0.76s0.74,1.14,0.74,1.91
		c0,0.75-0.25,1.38-0.74,1.88c-0.49,0.5-1.19,0.75-2.09,0.75s-1.6-0.25-2.08-0.75C241.78,133.09,241.54,132.46,241.54,131.71z
		 M246.83,159.67h-4.98v-22.19h4.98V159.67z"/>
	<path class="st0" d="M251.32,148.41c0-3.42,0.79-6.16,2.38-8.23c1.59-2.07,3.71-3.11,6.38-3.11c2.35,0,4.25,0.82,5.7,2.46v-11.36
		h4.98v31.5h-4.51l-0.25-2.3c-1.49,1.8-3.48,2.71-5.97,2.71c-2.6,0-4.7-1.05-6.31-3.14S251.32,152,251.32,148.41z M256.31,148.84
		c0,2.26,0.43,4.02,1.3,5.28c0.87,1.27,2.1,1.9,3.7,1.9c2.04,0,3.53-0.91,4.47-2.73v-9.47c-0.92-1.78-2.39-2.67-4.43-2.67
		c-1.61,0-2.86,0.64-3.73,1.92C256.74,144.34,256.31,146.27,256.31,148.84z"/>
	<path class="st0" d="M285.74,160.08c-3.16,0-5.72-1-7.68-2.98c-1.96-1.99-2.94-4.64-2.94-7.95v-0.62c0-2.21,0.43-4.19,1.28-5.94
		c0.85-1.74,2.05-3.1,3.6-4.07s3.27-1.46,5.17-1.46c3.02,0,5.36,0.96,7,2.89s2.47,4.66,2.47,8.18v2.01h-14.5
		c0.15,1.83,0.76,3.28,1.84,4.35c1.07,1.07,2.42,1.6,4.05,1.6c2.28,0,4.14-0.92,5.58-2.77l2.69,2.56c-0.89,1.33-2.08,2.35-3.56,3.09
		C289.25,159.71,287.58,160.08,285.74,160.08z M285.14,141.06c-1.37,0-2.47,0.48-3.31,1.44c-0.84,0.96-1.38,2.29-1.61,4h9.5v-0.37
		c-0.11-1.67-0.55-2.93-1.33-3.78C287.6,141.49,286.52,141.06,285.14,141.06z"/>
	<path class="st0" d="M303.13,137.48l0.14,2.56c1.64-1.98,3.79-2.97,6.46-2.97c4.62,0,6.97,2.65,7.05,7.94v14.66h-4.98v-14.38
		c0-1.41-0.3-2.45-0.91-3.13c-0.61-0.68-1.6-1.02-2.98-1.02c-2.01,0-3.51,0.91-4.49,2.73v15.79h-4.98v-22.19H303.13z"/>
	<path class="st0" d="M328.1,132.08v5.39h3.92v3.69h-3.92v12.39c0,0.85,0.17,1.46,0.5,1.83c0.33,0.38,0.93,0.56,1.79,0.56
		c0.57,0,1.16-0.07,1.74-0.21v3.86c-1.13,0.31-2.23,0.47-3.28,0.47c-3.83,0-5.74-2.11-5.74-6.34v-12.57h-3.65v-3.69h3.65v-5.39
		H328.1z"/>
	<path class="st0" d="M335.84,131.71c0-0.77,0.24-1.4,0.73-1.91s1.18-0.76,2.08-0.76s1.6,0.25,2.09,0.76s0.74,1.14,0.74,1.91
		c0,0.75-0.25,1.38-0.74,1.88c-0.49,0.5-1.19,0.75-2.09,0.75s-1.6-0.25-2.08-0.75C336.08,133.09,335.84,132.46,335.84,131.71z
		 M341.13,159.67h-4.98v-22.19h4.98V159.67z"/>
	<path class="st0" d="M352.8,132.08v5.39h3.92v3.69h-3.92v12.39c0,0.85,0.17,1.46,0.5,1.83c0.33,0.38,0.93,0.56,1.79,0.56
		c0.57,0,1.16-0.07,1.74-0.21v3.86c-1.13,0.31-2.23,0.47-3.28,0.47c-3.83,0-5.74-2.11-5.74-6.34v-12.57h-3.65v-3.69h3.65v-5.39
		H352.8z"/>
	<path class="st0" d="M368.28,152.53l4.51-15.05h5.31l-8.82,25.55c-1.35,3.73-3.65,5.6-6.89,5.6c-0.72,0-1.52-0.12-2.4-0.37v-3.87
		l0.94,0.06c1.26,0,2.2-0.23,2.84-0.69c0.63-0.46,1.14-1.23,1.51-2.31l0.72-1.91l-7.79-22.07h5.37L368.28,152.53z"/>
	<path class="st0" d="M397.67,132.08v5.39h3.92v3.69h-3.92v12.39c0,0.85,0.17,1.46,0.5,1.83c0.33,0.38,0.93,0.56,1.79,0.56
		c0.57,0,1.16-0.07,1.74-0.21v3.86c-1.13,0.31-2.23,0.47-3.28,0.47c-3.83,0-5.74-2.11-5.74-6.34v-12.57h-3.65v-3.69h3.65v-5.39
		H397.67z"/>
	<path class="st0" d="M410.3,139.9c1.63-1.89,3.68-2.83,6.17-2.83c4.73,0,7.13,2.7,7.2,8.1v14.5h-4.98v-14.31
		c0-1.53-0.33-2.61-1-3.25c-0.66-0.63-1.64-0.95-2.92-0.95c-2,0-3.49,0.89-4.47,2.67v15.85h-4.98v-31.5h4.98V139.9z"/>
	<path class="st0" d="M438.48,160.08c-3.16,0-5.72-1-7.68-2.98c-1.96-1.99-2.94-4.64-2.94-7.95v-0.62c0-2.21,0.43-4.19,1.28-5.94
		c0.85-1.74,2.05-3.1,3.6-4.07s3.27-1.46,5.17-1.46c3.02,0,5.36,0.96,7,2.89s2.47,4.66,2.47,8.18v2.01h-14.5
		c0.15,1.83,0.76,3.28,1.84,4.35c1.07,1.07,2.42,1.6,4.05,1.6c2.28,0,4.14-0.92,5.58-2.77l2.69,2.56c-0.89,1.33-2.08,2.35-3.56,3.09
		C441.99,159.71,440.32,160.08,438.48,160.08z M437.88,141.06c-1.37,0-2.47,0.48-3.31,1.44c-0.84,0.96-1.38,2.29-1.61,4h9.5v-0.37
		c-0.11-1.67-0.55-2.93-1.33-3.78C440.34,141.49,439.26,141.06,437.88,141.06z"/>
	<path class="st0" d="M453,159.67v-18.5h-3.38v-3.69H453v-2.03c0-2.46,0.68-4.36,2.05-5.7s3.28-2.01,5.74-2.01
		c0.88,0,1.8,0.12,2.79,0.37l-0.12,3.9c-0.55-0.11-1.18-0.16-1.91-0.16c-2.38,0-3.57,1.22-3.57,3.67v1.97h4.51v3.69h-4.51v18.5H453z
		"/>
	<path class="st0" d="M472.38,132.08v5.39h3.92v3.69h-3.92v12.39c0,0.85,0.17,1.46,0.5,1.83c0.33,0.38,0.93,0.56,1.79,0.56
		c0.57,0,1.16-0.07,1.74-0.21v3.86c-1.13,0.31-2.23,0.47-3.28,0.47c-3.83,0-5.74-2.11-5.74-6.34v-12.57h-3.65v-3.69h3.65v-5.39
		H472.38z"/>
	<path class="st0" d="M498.38,153.35l4.7-15.87h5.15l-7.69,22.19h-4.33l-7.75-22.19h5.17L498.38,153.35z"/>
	<path class="st0" d="M511.34,131.71c0-0.77,0.24-1.4,0.73-1.91c0.48-0.51,1.18-0.76,2.08-0.76s1.6,0.25,2.09,0.76
		s0.74,1.14,0.74,1.91c0,0.75-0.25,1.38-0.74,1.88c-0.49,0.5-1.19,0.75-2.09,0.75s-1.6-0.25-2.08-0.75
		C511.58,133.09,511.34,132.46,511.34,131.71z M516.63,159.67h-4.98v-22.19h4.98V159.67z"/>
	<path class="st0" d="M531.17,156.1c1.24,0,2.28-0.36,3.1-1.09s1.26-1.62,1.31-2.69h4.7c-0.05,1.38-0.49,2.67-1.29,3.87
		c-0.81,1.2-1.9,2.14-3.28,2.84s-2.87,1.05-4.47,1.05c-3.1,0-5.56-1-7.38-3.01s-2.73-4.79-2.73-8.33v-0.51
		c0-3.38,0.9-6.08,2.71-8.11c1.8-2.03,4.27-3.05,7.38-3.05c2.64,0,4.79,0.77,6.45,2.31c1.66,1.54,2.53,3.56,2.62,6.06h-4.7
		c-0.05-1.27-0.49-2.32-1.3-3.14c-0.81-0.82-1.85-1.23-3.11-1.23c-1.61,0-2.86,0.58-3.73,1.75c-0.88,1.17-1.32,2.94-1.33,5.32v0.8
		c0,2.41,0.43,4.2,1.3,5.38C528.28,155.51,529.53,156.1,531.17,156.1z"/>
	<path class="st0" d="M550.29,132.08v5.39h3.92v3.69h-3.92v12.39c0,0.85,0.17,1.46,0.5,1.83c0.33,0.38,0.93,0.56,1.79,0.56
		c0.57,0,1.15-0.07,1.74-0.21v3.86c-1.13,0.31-2.23,0.47-3.28,0.47c-3.83,0-5.74-2.11-5.74-6.34v-12.57h-3.65v-3.69h3.65v-5.39
		H550.29z"/>
	<path class="st0" d="M558.02,131.71c0-0.77,0.24-1.4,0.73-1.91c0.48-0.51,1.18-0.76,2.08-0.76s1.6,0.25,2.09,0.76
		s0.74,1.14,0.74,1.91c0,0.75-0.25,1.38-0.74,1.88c-0.49,0.5-1.19,0.75-2.09,0.75s-1.6-0.25-2.08-0.75
		C558.26,133.09,558.02,132.46,558.02,131.71z M563.31,159.67h-4.98v-22.19h4.98V159.67z"/>
	<path class="st0" d="M573.42,137.48l0.14,2.32c1.56-1.82,3.69-2.73,6.4-2.73c2.97,0,5,1.13,6.09,3.4c1.61-2.27,3.88-3.4,6.81-3.4
		c2.45,0,4.27,0.68,5.46,2.03c1.2,1.35,1.81,3.35,1.84,5.99v14.58h-4.98v-14.44c0-1.41-0.31-2.44-0.92-3.1s-1.63-0.98-3.06-0.98
		c-1.13,0-2.06,0.3-2.78,0.91c-0.72,0.61-1.22,1.41-1.51,2.39l0.02,15.22h-4.98v-14.6c-0.07-2.61-1.4-3.92-4-3.92
		c-2,0-3.41,0.81-4.24,2.44v16.08h-4.98v-22.19H573.42z"/>
	<path class="st0" d="M617.72,153.64c0-0.89-0.37-1.57-1.1-2.03c-0.73-0.46-1.95-0.88-3.64-1.23s-3.11-0.81-4.24-1.35
		c-2.49-1.2-3.73-2.95-3.73-5.23c0-1.91,0.81-3.51,2.42-4.8s3.66-1.93,6.15-1.93c2.65,0,4.79,0.66,6.43,1.97
		c1.63,1.31,2.45,3.01,2.45,5.11h-4.98c0-0.96-0.36-1.75-1.07-2.39c-0.71-0.64-1.65-0.95-2.83-0.95c-1.09,0-1.99,0.25-2.68,0.76
		c-0.69,0.51-1.04,1.18-1.04,2.03c0,0.77,0.32,1.36,0.96,1.78s1.94,0.85,3.9,1.28c1.96,0.43,3.49,0.94,4.6,1.54
		c1.11,0.59,1.94,1.31,2.48,2.14c0.54,0.83,0.81,1.85,0.81,3.04c0,2-0.83,3.61-2.48,4.85c-1.65,1.24-3.82,1.86-6.5,1.86
		c-1.82,0-3.44-0.33-4.86-0.98s-2.53-1.56-3.32-2.71s-1.19-2.39-1.19-3.71h4.84c0.07,1.18,0.51,2.08,1.33,2.72
		c0.82,0.64,1.91,0.95,3.26,0.95c1.31,0,2.31-0.25,2.99-0.75C617.38,155.1,617.72,154.44,617.72,153.64z"/>
	<path class="st0" d="M358.37,182.11c0-0.77,0.24-1.4,0.73-1.91s1.18-0.76,2.08-0.76s1.6,0.25,2.09,0.76s0.74,1.14,0.74,1.91
		c0,0.75-0.25,1.38-0.74,1.88c-0.49,0.5-1.19,0.75-2.09,0.75s-1.6-0.25-2.08-0.75C358.62,183.49,358.37,182.87,358.37,182.11z
		 M363.66,210.07h-4.98v-22.19h4.98V210.07z"/>
	<path class="st0" d="M373.71,187.88l0.14,2.56c1.64-1.98,3.79-2.97,6.46-2.97c4.62,0,6.97,2.65,7.05,7.94v14.66h-4.98v-14.38
		c0-1.41-0.3-2.45-0.91-3.13c-0.61-0.68-1.6-1.02-2.98-1.02c-2.01,0-3.51,0.91-4.49,2.73v15.79h-4.98v-22.19H373.71z"/>
	<path class="st0" d="M422.67,210.07h-20.08v-3.42l9.95-10.85c1.44-1.6,2.46-2.94,3.07-4.01c0.61-1.07,0.91-2.15,0.91-3.23
		c0-1.42-0.4-2.57-1.2-3.45c-0.8-0.88-1.88-1.31-3.23-1.31c-1.61,0-2.86,0.49-3.75,1.48s-1.33,2.33-1.33,4.04h-4.98
		c0-1.82,0.41-3.46,1.24-4.91c0.83-1.46,2.01-2.59,3.55-3.39c1.54-0.81,3.31-1.21,5.32-1.21c2.9,0,5.18,0.73,6.86,2.18
		c1.67,1.46,2.51,3.47,2.51,6.04c0,1.49-0.42,3.05-1.26,4.69c-0.84,1.63-2.22,3.49-4.13,5.57l-7.3,7.81h13.86V210.07z"/>
	<path class="st0" d="M445.92,197.49c0,4.29-0.8,7.53-2.41,9.71c-1.61,2.18-4.05,3.27-7.33,3.27c-3.23,0-5.66-1.06-7.29-3.19
		c-1.63-2.13-2.47-5.27-2.51-9.44v-5.17c0-4.29,0.8-7.51,2.41-9.66s4.06-3.22,7.35-3.22c3.27,0,5.7,1.05,7.31,3.14
		c1.61,2.09,2.43,5.22,2.47,9.39V197.49z M440.94,191.92c0-2.8-0.38-4.86-1.15-6.16c-0.77-1.31-1.98-1.96-3.65-1.96
		c-1.63,0-2.82,0.62-3.59,1.86c-0.77,1.24-1.17,3.17-1.21,5.79v6.77c0,2.79,0.39,4.87,1.17,6.23s2,2.05,3.67,2.05
		c1.6,0,2.78-0.63,3.55-1.9c0.77-1.26,1.17-3.24,1.21-5.94V191.92z"/>
	<path class="st0" d="M463.82,210.07h-4.96v-23.99l-7.32,2.5v-4.18l11.65-4.29h0.64V210.07z"/>
	<path class="st0" d="M488.33,197.58c-1.67,1.76-3.62,2.65-5.85,2.65c-2.62,0-4.72-0.92-6.28-2.76c-1.56-1.84-2.34-4.25-2.34-7.25
		c0-1.97,0.4-3.75,1.19-5.35s1.92-2.84,3.38-3.73s3.16-1.33,5.09-1.33c3.01,0,5.39,1.12,7.16,3.36s2.65,5.24,2.65,9v1.39
		c0,5.39-1.22,9.5-3.65,12.33s-6.06,4.27-10.89,4.31h-0.59v-4.12h0.72c2.94-0.04,5.2-0.75,6.77-2.12
		C487.26,202.57,488.14,200.45,488.33,197.58z M483.53,196.33c1,0,1.93-0.29,2.81-0.86c0.88-0.57,1.55-1.37,2.03-2.38v-1.95
		c0-2.2-0.45-3.97-1.35-5.31s-2.07-2.01-3.51-2.01s-2.58,0.59-3.43,1.77c-0.86,1.18-1.28,2.68-1.28,4.48c0,1.87,0.43,3.38,1.29,4.53
		S482.1,196.33,483.53,196.33z"/>
	<path class="st0" d="M501.5,204.82c0.93,0,1.65,0.26,2.15,0.79c0.51,0.53,0.76,1.19,0.76,1.98c0,0.78-0.25,1.43-0.76,1.94
		c-0.51,0.51-1.22,0.77-2.15,0.77c-0.89,0-1.59-0.25-2.11-0.76s-0.78-1.16-0.78-1.95s0.25-1.45,0.76-1.98
		C499.87,205.08,500.58,204.82,501.5,204.82z"/>
</g>
<g>
	<path class="st0" d="M510.69,197.6l-3.68-1.04l0.69-2.12l3.64,1.46l-0.23-4.08h2.3l-0.23,4.17l3.55-1.44l0.69,2.14l-3.75,1.04
		l2.46,3.12l-1.86,1.32l-2.13-3.42l-2.11,3.3l-1.86-1.27L510.69,197.6z"/>
</g>
<g>
	<path class="st0" d="M340.93,90.02h3.91c1.86,0,3.24-0.47,4.14-1.4s1.35-2.17,1.35-3.71c0-1.49-0.44-2.65-1.33-3.48
		s-2.11-1.24-3.67-1.24c-1.41,0-2.58,0.38-3.53,1.16s-1.42,1.77-1.42,3.01h-7.34c0-1.93,0.52-3.66,1.56-5.19s2.5-2.73,4.37-3.59
		s3.93-1.29,6.18-1.29c3.91,0,6.97,0.94,9.19,2.81s3.33,4.45,3.33,7.73c0,1.69-0.52,3.25-1.55,4.67s-2.39,2.51-4.06,3.28
		c2.08,0.75,3.63,1.86,4.66,3.35s1.54,3.25,1.54,5.28c0,3.28-1.2,5.92-3.59,7.9s-5.56,2.97-9.51,2.97c-3.69,0-6.71-0.97-9.05-2.92
		s-3.52-4.52-3.52-7.72h7.34c0,1.39,0.52,2.52,1.56,3.4s2.32,1.32,3.85,1.32c1.74,0,3.11-0.46,4.1-1.38s1.49-2.15,1.49-3.67
		c0-3.69-2.03-5.54-6.09-5.54h-3.88V90.02z"/>
	<path class="st0" d="M383.43,84.28l0.23,3.07c1.95-2.39,4.58-3.58,7.9-3.58c3.54,0,5.97,1.4,7.29,4.19
		c1.93-2.79,4.68-4.19,8.25-4.19c2.98,0,5.2,0.87,6.65,2.6s2.18,4.35,2.18,7.83v17.54h-7.36V94.24c0-1.56-0.3-2.7-0.91-3.42
		s-1.68-1.08-3.22-1.08c-2.2,0-3.72,1.05-4.57,3.15l0.03,18.87h-7.34V94.26c0-1.59-0.31-2.74-0.94-3.45s-1.69-1.07-3.2-1.07
		c-2.08,0-3.59,0.86-4.52,2.59v19.42h-7.34V84.28H383.43z"/>
	<path class="st0" d="M421.52,77.17c0-1.1,0.37-2.01,1.1-2.72s1.74-1.07,3.01-1.07c1.25,0,2.25,0.36,3,1.07s1.12,1.62,1.12,2.72
		c0,1.12-0.38,2.03-1.13,2.74s-1.75,1.07-2.98,1.07s-2.23-0.36-2.98-1.07S421.52,78.29,421.52,77.17z M429.32,111.76h-7.36V84.28
		h7.36V111.76z"/>
	<path class="st0" d="M443.1,111.76h-7.36v-39h7.36V111.76z"/>
	<path class="st0" d="M456.89,111.76h-7.36v-39h7.36V111.76z"/>
	<path class="st0" d="M462.88,77.17c0-1.1,0.37-2.01,1.1-2.72s1.74-1.07,3.01-1.07c1.25,0,2.25,0.36,3,1.07s1.12,1.62,1.12,2.72
		c0,1.12-0.38,2.03-1.13,2.74s-1.75,1.07-2.98,1.07s-2.23-0.36-2.98-1.07S462.88,78.29,462.88,77.17z M470.68,111.76h-7.36V84.28
		h7.36V111.76z"/>
	<path class="st0" d="M475.58,97.77c0-2.73,0.52-5.15,1.57-7.29s2.56-3.78,4.53-4.95s4.26-1.75,6.87-1.75c3.71,0,6.73,1.13,9.08,3.4
		s3.65,5.35,3.92,9.24l0.05,1.88c0,4.21-1.18,7.6-3.53,10.14s-5.51,3.82-9.47,3.82s-7.12-1.27-9.48-3.81s-3.54-5.99-3.54-10.36
		V97.77z M482.92,98.29c0,2.61,0.49,4.61,1.47,5.99s2.39,2.07,4.21,2.07c1.78,0,3.17-0.68,4.16-2.05c1-1.37,1.5-3.55,1.5-6.55
		c0-2.56-0.5-4.54-1.5-5.95c-1-1.41-2.4-2.11-4.21-2.11c-1.79,0-3.18,0.7-4.16,2.1C483.41,93.19,482.92,95.35,482.92,98.29z"/>
	<path class="st0" d="M512.88,84.28l0.23,3.17c1.96-2.45,4.6-3.68,7.9-3.68c2.91,0,5.08,0.85,6.5,2.56s2.15,4.27,2.18,7.67v17.75
		h-7.34V94.19c0-1.56-0.34-2.69-1.02-3.39s-1.8-1.05-3.38-1.05c-2.07,0-3.61,0.88-4.65,2.64v19.37h-7.34V84.28H512.88z"/>
</g>
</svg>
