<?xml version="1.0" encoding="utf-8"?>
<!-- Generator: Adobe Illustrator 26.3.1, SVG Export Plug-In . SVG Version: 6.00 Build 0)  -->
<svg version="1.1" id="Layer_1" xmlns="http://www.w3.org/2000/svg" xmlns:xlink="http://www.w3.org/1999/xlink" x="0px" y="0px"
	 viewBox="0 0 300 600" style="enable-background:new 0 0 300 600;" xml:space="preserve">
<style type="text/css">
	.st0{fill:#FFFFFF;}
	.st1{fill:#EDF4FD;}
</style>
<g>
	<path class="st0" d="M40.8,278.7c0-0.2-0.1-0.4-0.2-0.5c-0.2-0.1-0.4-0.2-0.8-0.4s-0.7-0.3-1-0.4c-0.5-0.3-0.7-0.7-0.7-1.1
		c0-0.4,0.2-0.7,0.5-1s0.8-0.4,1.3-0.4c0.3,0,0.7,0.1,0.9,0.2s0.5,0.3,0.6,0.5c0.2,0.2,0.2,0.5,0.2,0.8h-0.9c0-0.3-0.1-0.5-0.2-0.6
		c-0.2-0.1-0.4-0.2-0.7-0.2c-0.3,0-0.5,0.1-0.7,0.2s-0.2,0.3-0.2,0.5c0,0.2,0.1,0.3,0.3,0.5c0.2,0.1,0.4,0.2,0.8,0.4
		c0.4,0.1,0.7,0.2,0.9,0.4c0.2,0.1,0.4,0.3,0.5,0.5c0.1,0.2,0.2,0.4,0.2,0.7c0,0.4-0.2,0.7-0.5,1c-0.3,0.2-0.7,0.4-1.3,0.4
		c-0.4,0-0.7-0.1-1-0.2c-0.3-0.1-0.5-0.3-0.7-0.6c-0.2-0.2-0.3-0.5-0.3-0.8h0.9c0,0.3,0.1,0.5,0.3,0.7c0.2,0.2,0.5,0.2,0.8,0.2
		c0.3,0,0.5-0.1,0.7-0.2C40.7,279.1,40.8,278.9,40.8,278.7z"/>
	<path class="st0" d="M42.2,278.1c0-0.4,0.1-0.7,0.2-1c0.1-0.3,0.3-0.5,0.6-0.7c0.3-0.2,0.6-0.2,0.9-0.2c0.5,0,0.9,0.2,1.2,0.5
		c0.3,0.3,0.5,0.7,0.5,1.3l0,0.2c0,0.4-0.1,0.7-0.2,1c-0.1,0.3-0.3,0.5-0.6,0.7s-0.6,0.2-0.9,0.2c-0.5,0-0.9-0.2-1.3-0.5
		C42.3,279.2,42.2,278.7,42.2,278.1L42.2,278.1z M43,278.2c0,0.4,0.1,0.7,0.2,0.9c0.2,0.2,0.4,0.3,0.7,0.3c0.3,0,0.5-0.1,0.7-0.3
		s0.2-0.5,0.2-1c0-0.4-0.1-0.7-0.2-0.9c-0.2-0.2-0.4-0.3-0.7-0.3c-0.3,0-0.5,0.1-0.6,0.3C43.1,277.4,43,277.8,43,278.2z"/>
	<path class="st0" d="M48.6,279.6c-0.2,0.3-0.6,0.4-1,0.4c-0.4,0-0.7-0.1-0.9-0.4s-0.3-0.6-0.3-1v-2.4h0.8v2.4
		c0,0.5,0.2,0.7,0.6,0.7c0.4,0,0.7-0.1,0.8-0.4v-2.7h0.8v3.7h-0.8L48.6,279.6z"/>
	<path class="st0" d="M52.1,277.1c-0.1,0-0.2,0-0.3,0c-0.4,0-0.6,0.1-0.8,0.4v2.5h-0.8v-3.7H51l0,0.4c0.2-0.3,0.5-0.5,0.8-0.5
		c0.1,0,0.2,0,0.3,0L52.1,277.1z"/>
	<path class="st0" d="M54.1,279.4c0.2,0,0.4-0.1,0.5-0.2s0.2-0.3,0.2-0.4h0.8c0,0.2-0.1,0.4-0.2,0.6c-0.1,0.2-0.3,0.4-0.5,0.5
		s-0.5,0.2-0.7,0.2c-0.5,0-0.9-0.2-1.2-0.5s-0.5-0.8-0.5-1.4v-0.1c0-0.6,0.2-1,0.5-1.4c0.3-0.3,0.7-0.5,1.2-0.5
		c0.4,0,0.8,0.1,1.1,0.4c0.3,0.3,0.4,0.6,0.4,1h-0.8c0-0.2-0.1-0.4-0.2-0.5s-0.3-0.2-0.5-0.2c-0.3,0-0.5,0.1-0.6,0.3
		c-0.1,0.2-0.2,0.5-0.2,0.9v0.1c0,0.4,0.1,0.7,0.2,0.9C53.6,279.3,53.9,279.4,54.1,279.4z"/>
	<path class="st0" d="M57.9,280.1c-0.5,0-1-0.2-1.3-0.5c-0.3-0.3-0.5-0.8-0.5-1.3v-0.1c0-0.4,0.1-0.7,0.2-1c0.1-0.3,0.3-0.5,0.6-0.7
		c0.3-0.2,0.5-0.2,0.9-0.2c0.5,0,0.9,0.2,1.2,0.5s0.4,0.8,0.4,1.4v0.3H57c0,0.3,0.1,0.5,0.3,0.7s0.4,0.3,0.7,0.3
		c0.4,0,0.7-0.2,0.9-0.5l0.4,0.4c-0.1,0.2-0.3,0.4-0.6,0.5C58.5,280,58.2,280.1,57.9,280.1z M57.8,276.9c-0.2,0-0.4,0.1-0.6,0.2
		c-0.1,0.2-0.2,0.4-0.3,0.7h1.6v-0.1c0-0.3-0.1-0.5-0.2-0.6C58.2,277,58,276.9,57.8,276.9z"/>
	<path class="st0" d="M60.5,276.2c0.2,0,0.3,0,0.4,0.1c0.1,0.1,0.1,0.2,0.1,0.3c0,0.1,0,0.2-0.1,0.3c-0.1,0.1-0.2,0.1-0.4,0.1
		c-0.1,0-0.3,0-0.4-0.1s-0.1-0.2-0.1-0.3s0-0.2,0.1-0.3C60.3,276.3,60.4,276.2,60.5,276.2z M60.5,279.1c0.2,0,0.3,0,0.4,0.1
		c0.1,0.1,0.1,0.2,0.1,0.3c0,0.1,0,0.2-0.1,0.3c-0.1,0.1-0.2,0.1-0.4,0.1c-0.1,0-0.3,0-0.4-0.1s-0.1-0.2-0.1-0.3s0-0.2,0.1-0.3
		C60.3,279.2,60.4,279.1,60.5,279.1z"/>
	<path class="st0" d="M64.1,276.9c0.1-0.2,0.3-0.4,0.5-0.5s0.4-0.2,0.7-0.2c0.4,0,0.7,0.1,0.9,0.3s0.3,0.6,0.3,1v2.4h-0.4v-2.4
		c0-0.3-0.1-0.6-0.2-0.7s-0.4-0.2-0.7-0.2c-0.3,0-0.5,0.1-0.7,0.2c-0.2,0.2-0.3,0.4-0.4,0.6v2.5h-0.4v-5.2h0.4V276.9z"/>
	<path class="st0" d="M68.2,275.4v0.9h0.8v0.3h-0.8v2.5c0,0.2,0,0.4,0.1,0.5c0.1,0.1,0.2,0.2,0.4,0.2c0.1,0,0.2,0,0.3,0l0,0.3
		c-0.1,0-0.3,0.1-0.4,0.1c-0.3,0-0.5-0.1-0.6-0.2c-0.1-0.2-0.2-0.4-0.2-0.7v-2.5h-0.7v-0.3h0.7v-0.9H68.2z"/>
	<path class="st0" d="M70.4,275.4v0.9h0.8v0.3h-0.8v2.5c0,0.2,0,0.4,0.1,0.5c0.1,0.1,0.2,0.2,0.4,0.2c0.1,0,0.2,0,0.3,0l0,0.3
		c-0.1,0-0.3,0.1-0.4,0.1c-0.3,0-0.5-0.1-0.6-0.2c-0.1-0.2-0.2-0.4-0.2-0.7v-2.5h-0.7v-0.3H70v-0.9H70.4z"/>
	<path class="st0" d="M75,278.2c0,0.6-0.1,1-0.4,1.4c-0.3,0.3-0.6,0.5-1,0.5c-0.5,0-0.9-0.2-1.2-0.5v1.9H72v-5.1h0.4l0,0.5
		c0.3-0.4,0.7-0.6,1.2-0.6c0.4,0,0.8,0.2,1,0.5S75,277.5,75,278.2L75,278.2z M74.6,278.1c0-0.5-0.1-0.8-0.3-1.1
		c-0.2-0.3-0.5-0.4-0.8-0.4c-0.3,0-0.5,0.1-0.6,0.2c-0.2,0.1-0.3,0.3-0.4,0.5v1.8c0.1,0.2,0.2,0.4,0.4,0.5c0.2,0.1,0.4,0.2,0.6,0.2
		c0.3,0,0.6-0.1,0.8-0.4C74.5,279,74.6,278.6,74.6,278.1z"/>
	<path class="st0" d="M78.1,279.1c0-0.2-0.1-0.4-0.2-0.5s-0.4-0.2-0.7-0.3c-0.3-0.1-0.6-0.1-0.8-0.2c-0.2-0.1-0.3-0.2-0.4-0.3
		s-0.1-0.3-0.1-0.5c0-0.3,0.1-0.5,0.4-0.7c0.2-0.2,0.6-0.3,0.9-0.3c0.4,0,0.7,0.1,1,0.3c0.2,0.2,0.4,0.5,0.4,0.8h-0.4
		c0-0.2-0.1-0.4-0.3-0.5c-0.2-0.1-0.4-0.2-0.7-0.2c-0.3,0-0.5,0.1-0.6,0.2c-0.2,0.1-0.2,0.3-0.2,0.5c0,0.2,0.1,0.3,0.2,0.4
		c0.1,0.1,0.4,0.2,0.7,0.3c0.4,0.1,0.6,0.2,0.8,0.3s0.3,0.2,0.4,0.3s0.1,0.3,0.1,0.5c0,0.3-0.1,0.6-0.4,0.7s-0.6,0.3-1,0.3
		c-0.4,0-0.8-0.1-1-0.3c-0.3-0.2-0.4-0.5-0.4-0.8h0.4c0,0.2,0.1,0.4,0.3,0.6c0.2,0.1,0.4,0.2,0.7,0.2c0.3,0,0.5-0.1,0.7-0.2
		C78,279.4,78.1,279.3,78.1,279.1z"/>
	<path class="st0" d="M79.4,279.8c0-0.1,0-0.1,0.1-0.2c0.1-0.1,0.1-0.1,0.2-0.1s0.2,0,0.2,0.1c0.1,0.1,0.1,0.1,0.1,0.2
		s0,0.1-0.1,0.2c-0.1,0.1-0.1,0.1-0.2,0.1s-0.2,0-0.2-0.1C79.4,279.9,79.4,279.8,79.4,279.8z M79.4,276.6c0-0.1,0-0.1,0.1-0.2
		c0.1-0.1,0.1-0.1,0.2-0.1s0.2,0,0.2,0.1c0.1,0.1,0.1,0.1,0.1,0.2s0,0.1-0.1,0.2c-0.1,0.1-0.1,0.1-0.2,0.1s-0.2,0-0.2-0.1
		C79.4,276.8,79.4,276.7,79.4,276.6z"/>
	<path class="st0" d="M80.9,280.4h-0.4l2.1-5.4h0.4L80.9,280.4z"/>
	<path class="st0" d="M82.9,280.4h-0.4l2.1-5.4H85L82.9,280.4z"/>
	<path class="st0" d="M86.6,279.2l0.1,0.3l0.1-0.3l0.9-2.8H88l0.9,2.8l0.1,0.4l0.1-0.4l0.8-2.8h0.4l-1.1,3.7h-0.3l-1-2.9l0-0.2
		l0,0.2l-0.9,2.9h-0.3l-1.1-3.7h0.4L86.6,279.2z"/>
	<path class="st0" d="M91.9,279.2l0.1,0.3l0.1-0.3l0.9-2.8h0.3l0.9,2.8l0.1,0.4l0.1-0.4l0.8-2.8h0.4l-1.1,3.7h-0.3l-1-2.9l0-0.2
		l0,0.2l-0.9,2.9h-0.3l-1.1-3.7h0.4L91.9,279.2z"/>
	<path class="st0" d="M97.2,279.2l0.1,0.3l0.1-0.3l0.9-2.8h0.3l0.9,2.8l0.1,0.4l0.1-0.4l0.8-2.8h0.4l-1.1,3.7h-0.3l-1-2.9l0-0.2
		l0,0.2l-0.9,2.9H97l-1.1-3.7h0.4L97.2,279.2z"/>
	<path class="st0" d="M101.1,279.8c0-0.1,0-0.1,0.1-0.2c0.1-0.1,0.1-0.1,0.2-0.1s0.2,0,0.2,0.1c0.1,0.1,0.1,0.1,0.1,0.2
		s0,0.1-0.1,0.2c-0.1,0.1-0.1,0.1-0.2,0.1s-0.2,0-0.2-0.1C101.1,279.9,101.1,279.8,101.1,279.8z"/>
	<path class="st0" d="M103.1,280v-3.4h-0.6v-0.3h0.6v-0.4c0-0.4,0.1-0.7,0.3-0.9s0.5-0.3,0.8-0.3c0.2,0,0.3,0,0.4,0.1l0,0.3
		c-0.1,0-0.2,0-0.4,0c-0.2,0-0.4,0.1-0.5,0.2c-0.1,0.1-0.2,0.3-0.2,0.6v0.5h0.9v0.3h-0.9v3.4H103.1z"/>
	<path class="st0" d="M105.8,275.4v0.9h0.8v0.3h-0.8v2.5c0,0.2,0,0.4,0.1,0.5c0.1,0.1,0.2,0.2,0.4,0.2c0.1,0,0.2,0,0.3,0l0,0.3
		c-0.1,0-0.3,0.1-0.4,0.1c-0.3,0-0.5-0.1-0.6-0.2c-0.1-0.2-0.2-0.4-0.2-0.7v-2.5h-0.7v-0.3h0.7v-0.9H105.8z"/>
	<path class="st0" d="M108.7,279.7c0.3,0,0.5-0.1,0.7-0.2c0.2-0.2,0.3-0.4,0.3-0.6h0.4c0,0.2-0.1,0.4-0.2,0.6
		c-0.1,0.2-0.3,0.3-0.5,0.4c-0.2,0.1-0.4,0.2-0.7,0.2c-0.5,0-0.9-0.2-1.2-0.5c-0.3-0.3-0.4-0.8-0.4-1.4v-0.1c0-0.4,0.1-0.7,0.2-1
		s0.3-0.5,0.5-0.6s0.5-0.2,0.8-0.2c0.4,0,0.7,0.1,1,0.4c0.3,0.2,0.4,0.6,0.4,1h-0.4c0-0.3-0.1-0.5-0.3-0.7s-0.4-0.3-0.7-0.3
		c-0.4,0-0.7,0.1-0.9,0.4s-0.3,0.6-0.3,1.1v0.1c0,0.5,0.1,0.8,0.3,1.1S108.4,279.7,108.7,279.7z"/>
	<path class="st0" d="M110.9,279.8c0-0.1,0-0.1,0.1-0.2c0.1-0.1,0.1-0.1,0.2-0.1s0.2,0,0.2,0.1c0.1,0.1,0.1,0.1,0.1,0.2
		s0,0.1-0.1,0.2c-0.1,0.1-0.1,0.1-0.2,0.1s-0.2,0-0.2-0.1C111,279.9,110.9,279.8,110.9,279.8z"/>
	<path class="st0" d="M112.5,278.1c0-0.6,0.1-1,0.4-1.4c0.3-0.3,0.6-0.5,1-0.5c0.5,0,0.9,0.2,1.1,0.6l0-0.5h0.4v3.6
		c0,0.5-0.1,0.9-0.4,1.1c-0.3,0.3-0.6,0.4-1.1,0.4c-0.3,0-0.5-0.1-0.7-0.2c-0.2-0.1-0.4-0.3-0.6-0.5l0.2-0.2c0.3,0.4,0.6,0.5,1,0.5
		c0.3,0,0.6-0.1,0.8-0.3c0.2-0.2,0.3-0.5,0.3-0.8v-0.5c-0.3,0.4-0.6,0.5-1.1,0.5c-0.4,0-0.8-0.2-1-0.5S112.5,278.8,112.5,278.1
		L112.5,278.1z M112.9,278.2c0,0.5,0.1,0.8,0.3,1.1c0.2,0.3,0.5,0.4,0.8,0.4c0.5,0,0.9-0.2,1.1-0.7v-1.7c-0.1-0.2-0.2-0.4-0.4-0.5
		c-0.2-0.1-0.4-0.2-0.6-0.2c-0.3,0-0.6,0.1-0.8,0.4C113,277.3,112.9,277.7,112.9,278.2z"/>
	<path class="st0" d="M116.3,278.1c0-0.4,0.1-0.7,0.2-1s0.3-0.5,0.6-0.7c0.3-0.2,0.5-0.2,0.9-0.2c0.5,0,0.9,0.2,1.2,0.5
		c0.3,0.3,0.5,0.8,0.5,1.4v0.1c0,0.4-0.1,0.7-0.2,1c-0.1,0.3-0.3,0.5-0.6,0.7c-0.3,0.2-0.5,0.2-0.9,0.2c-0.5,0-0.9-0.2-1.2-0.5
		C116.5,279.2,116.3,278.8,116.3,278.1L116.3,278.1z M116.7,278.2c0,0.4,0.1,0.8,0.3,1.1c0.2,0.3,0.5,0.4,0.9,0.4
		c0.4,0,0.7-0.1,0.9-0.4c0.2-0.3,0.3-0.7,0.3-1.1v-0.1c0-0.3-0.1-0.5-0.2-0.8c-0.1-0.2-0.3-0.4-0.4-0.5c-0.2-0.1-0.4-0.2-0.6-0.2
		c-0.4,0-0.7,0.1-0.9,0.4C116.8,277.3,116.7,277.7,116.7,278.2L116.7,278.2z"/>
	<path class="st0" d="M121.5,279.4l1.1-3.1h0.4l-1.4,3.7h-0.3l-1.4-3.7h0.4L121.5,279.4z"/>
	<path class="st0" d="M123.7,280.4h-0.4l2.1-5.4h0.4L123.7,280.4z"/>
	<path class="st0" d="M126.9,276.3l0,0.6c0.1-0.2,0.3-0.4,0.5-0.5c0.2-0.1,0.4-0.2,0.7-0.2c0.4,0,0.7,0.1,0.9,0.3s0.3,0.6,0.3,1v2.4
		h-0.4v-2.4c0-0.3-0.1-0.6-0.2-0.7s-0.4-0.2-0.7-0.2c-0.3,0-0.5,0.1-0.7,0.2c-0.2,0.2-0.3,0.4-0.4,0.6v2.5h-0.4v-3.7H126.9z"/>
	<path class="st0" d="M131.8,280.1c-0.3,0-0.6-0.1-0.9-0.2s-0.5-0.4-0.6-0.6c-0.1-0.3-0.2-0.6-0.2-0.9v-0.1c0-0.4,0.1-0.7,0.2-1
		s0.3-0.5,0.6-0.7c0.2-0.2,0.5-0.2,0.8-0.2c0.4,0,0.8,0.2,1.1,0.5c0.3,0.3,0.4,0.7,0.4,1.3v0.2h-2.6v0.1c0,0.4,0.1,0.8,0.4,1
		c0.2,0.3,0.5,0.4,0.9,0.4c0.2,0,0.4,0,0.6-0.1c0.2-0.1,0.3-0.2,0.5-0.4l0.3,0.2C132.8,279.9,132.4,280.1,131.8,280.1z M131.7,276.6
		c-0.3,0-0.6,0.1-0.8,0.3s-0.3,0.5-0.4,0.9h2.2v0c0-0.4-0.1-0.6-0.3-0.9S132.1,276.6,131.7,276.6z"/>
	<path class="st0" d="M134.9,279.2l0.1,0.3l0.1-0.3l0.9-2.8h0.3l0.9,2.8l0.1,0.4l0.1-0.4l0.8-2.8h0.4l-1.1,3.7h-0.3l-1-2.9l0-0.2
		l0,0.2l-0.9,2.9h-0.3l-1.1-3.7h0.4L134.9,279.2z"/>
	<path class="st0" d="M141.5,279.1c0-0.2-0.1-0.4-0.2-0.5s-0.4-0.2-0.7-0.3c-0.3-0.1-0.6-0.1-0.8-0.2c-0.2-0.1-0.3-0.2-0.4-0.3
		s-0.1-0.3-0.1-0.5c0-0.3,0.1-0.5,0.4-0.7c0.2-0.2,0.6-0.3,0.9-0.3c0.4,0,0.7,0.1,1,0.3c0.2,0.2,0.4,0.5,0.4,0.8h-0.4
		c0-0.2-0.1-0.4-0.3-0.5c-0.2-0.1-0.4-0.2-0.7-0.2c-0.3,0-0.5,0.1-0.6,0.2c-0.2,0.1-0.2,0.3-0.2,0.5c0,0.2,0.1,0.3,0.2,0.4
		c0.1,0.1,0.4,0.2,0.7,0.3c0.4,0.1,0.6,0.2,0.8,0.3s0.3,0.2,0.4,0.3s0.1,0.3,0.1,0.5c0,0.3-0.1,0.6-0.4,0.7s-0.6,0.3-1,0.3
		c-0.4,0-0.8-0.1-1-0.3c-0.3-0.2-0.4-0.5-0.4-0.8h0.4c0,0.2,0.1,0.4,0.3,0.6c0.2,0.1,0.4,0.2,0.7,0.2c0.3,0,0.5-0.1,0.7-0.2
		C141.4,279.4,141.5,279.3,141.5,279.1z"/>
	<path class="st0" d="M144.1,278h-1.6v-0.3h1.6V278z"/>
	<path class="st0" d="M146.3,280.1c-0.3,0-0.6-0.1-0.9-0.2s-0.5-0.4-0.6-0.6c-0.1-0.3-0.2-0.6-0.2-0.9v-0.1c0-0.4,0.1-0.7,0.2-1
		s0.3-0.5,0.6-0.7c0.2-0.2,0.5-0.2,0.8-0.2c0.4,0,0.8,0.2,1.1,0.5c0.3,0.3,0.4,0.7,0.4,1.3v0.2H145v0.1c0,0.4,0.1,0.8,0.4,1
		c0.2,0.3,0.5,0.4,0.9,0.4c0.2,0,0.4,0,0.6-0.1c0.2-0.1,0.3-0.2,0.5-0.4l0.3,0.2C147.3,279.9,146.8,280.1,146.3,280.1z M146.2,276.6
		c-0.3,0-0.6,0.1-0.8,0.3s-0.3,0.5-0.4,0.9h2.2v0c0-0.4-0.1-0.6-0.3-0.9S146.5,276.6,146.2,276.6z"/>
	<path class="st0" d="M149.5,279.4l1.1-3.1h0.4l-1.4,3.7h-0.3l-1.4-3.7h0.4L149.5,279.4z"/>
	<path class="st0" d="M153.2,280.1c-0.3,0-0.6-0.1-0.9-0.2s-0.5-0.4-0.6-0.6c-0.1-0.3-0.2-0.6-0.2-0.9v-0.1c0-0.4,0.1-0.7,0.2-1
		s0.3-0.5,0.6-0.7c0.2-0.2,0.5-0.2,0.8-0.2c0.4,0,0.8,0.2,1.1,0.5c0.3,0.3,0.4,0.7,0.4,1.3v0.2h-2.6v0.1c0,0.4,0.1,0.8,0.4,1
		c0.2,0.3,0.5,0.4,0.9,0.4c0.2,0,0.4,0,0.6-0.1c0.2-0.1,0.3-0.2,0.5-0.4l0.3,0.2C154.2,279.9,153.7,280.1,153.2,280.1z M153.1,276.6
		c-0.3,0-0.6,0.1-0.8,0.3s-0.3,0.5-0.4,0.9h2.2v0c0-0.4-0.1-0.6-0.3-0.9S153.4,276.6,153.1,276.6z"/>
	<path class="st0" d="M155.7,276.3l0,0.6c0.1-0.2,0.3-0.4,0.5-0.5c0.2-0.1,0.4-0.2,0.7-0.2c0.4,0,0.7,0.1,0.9,0.3s0.3,0.6,0.3,1v2.4
		h-0.4v-2.4c0-0.3-0.1-0.6-0.2-0.7s-0.4-0.2-0.7-0.2c-0.3,0-0.5,0.1-0.7,0.2c-0.2,0.2-0.3,0.4-0.4,0.6v2.5h-0.4v-3.7H155.7z"/>
	<path class="st0" d="M159.8,275.4v0.9h0.8v0.3h-0.8v2.5c0,0.2,0,0.4,0.1,0.5c0.1,0.1,0.2,0.2,0.4,0.2c0.1,0,0.2,0,0.3,0l0,0.3
		c-0.1,0-0.3,0.1-0.4,0.1c-0.3,0-0.5-0.1-0.6-0.2c-0.1-0.2-0.2-0.4-0.2-0.7v-2.5h-0.7v-0.3h0.7v-0.9H159.8z"/>
	<path class="st0" d="M163.6,279.1c0-0.2-0.1-0.4-0.2-0.5s-0.4-0.2-0.7-0.3c-0.3-0.1-0.6-0.1-0.8-0.2c-0.2-0.1-0.3-0.2-0.4-0.3
		s-0.1-0.3-0.1-0.5c0-0.3,0.1-0.5,0.4-0.7c0.2-0.2,0.6-0.3,0.9-0.3c0.4,0,0.7,0.1,1,0.3c0.2,0.2,0.4,0.5,0.4,0.8h-0.4
		c0-0.2-0.1-0.4-0.3-0.5c-0.2-0.1-0.4-0.2-0.7-0.2c-0.3,0-0.5,0.1-0.6,0.2c-0.2,0.1-0.2,0.3-0.2,0.5c0,0.2,0.1,0.3,0.2,0.4
		c0.1,0.1,0.4,0.2,0.7,0.3c0.4,0.1,0.6,0.2,0.8,0.3s0.3,0.2,0.4,0.3s0.1,0.3,0.1,0.5c0,0.3-0.1,0.6-0.4,0.7s-0.6,0.3-1,0.3
		c-0.4,0-0.8-0.1-1-0.3c-0.3-0.2-0.4-0.5-0.4-0.8h0.4c0,0.2,0.1,0.4,0.3,0.6c0.2,0.1,0.4,0.2,0.7,0.2c0.3,0,0.5-0.1,0.7-0.2
		C163.6,279.4,163.6,279.3,163.6,279.1z"/>
	<path class="st0" d="M164.9,280.4h-0.4l2.1-5.4h0.4L164.9,280.4z"/>
	<path class="st0" d="M168.1,276.3l0,0.6c0.1-0.2,0.3-0.4,0.5-0.5c0.2-0.1,0.4-0.2,0.7-0.2c0.4,0,0.7,0.1,0.9,0.3s0.3,0.6,0.3,1v2.4
		h-0.4v-2.4c0-0.3-0.1-0.6-0.2-0.7s-0.4-0.2-0.7-0.2c-0.3,0-0.5,0.1-0.7,0.2c-0.2,0.2-0.3,0.4-0.4,0.6v2.5h-0.4v-3.7H168.1z"/>
	<path class="st0" d="M173,280.1c-0.3,0-0.6-0.1-0.9-0.2s-0.5-0.4-0.6-0.6c-0.1-0.3-0.2-0.6-0.2-0.9v-0.1c0-0.4,0.1-0.7,0.2-1
		s0.3-0.5,0.6-0.7c0.2-0.2,0.5-0.2,0.8-0.2c0.4,0,0.8,0.2,1.1,0.5c0.3,0.3,0.4,0.7,0.4,1.3v0.2h-2.6v0.1c0,0.4,0.1,0.8,0.4,1
		c0.2,0.3,0.5,0.4,0.9,0.4c0.2,0,0.4,0,0.6-0.1c0.2-0.1,0.3-0.2,0.5-0.4l0.3,0.2C174,279.9,173.6,280.1,173,280.1z M173,276.6
		c-0.3,0-0.6,0.1-0.8,0.3s-0.3,0.5-0.4,0.9h2.2v0c0-0.4-0.1-0.6-0.3-0.9S173.3,276.6,173,276.6z"/>
	<path class="st0" d="M176.1,279.2l0.1,0.3l0.1-0.3l0.9-2.8h0.3l0.9,2.8l0.1,0.4l0.1-0.4l0.8-2.8h0.4l-1.1,3.7h-0.3l-1-2.9l0-0.2
		l0,0.2l-0.9,2.9H176l-1.1-3.7h0.4L176.1,279.2z"/>
	<path class="st0" d="M182.7,279.1c0-0.2-0.1-0.4-0.2-0.5s-0.4-0.2-0.7-0.3c-0.3-0.1-0.6-0.1-0.8-0.2c-0.2-0.1-0.3-0.2-0.4-0.3
		s-0.1-0.3-0.1-0.5c0-0.3,0.1-0.5,0.4-0.7c0.2-0.2,0.6-0.3,0.9-0.3c0.4,0,0.7,0.1,1,0.3c0.2,0.2,0.4,0.5,0.4,0.8h-0.4
		c0-0.2-0.1-0.4-0.3-0.5c-0.2-0.1-0.4-0.2-0.7-0.2c-0.3,0-0.5,0.1-0.6,0.2c-0.2,0.1-0.2,0.3-0.2,0.5c0,0.2,0.1,0.3,0.2,0.4
		c0.1,0.1,0.4,0.2,0.7,0.3c0.4,0.1,0.6,0.2,0.8,0.3s0.3,0.2,0.4,0.3s0.1,0.3,0.1,0.5c0,0.3-0.1,0.6-0.4,0.7s-0.6,0.3-1,0.3
		c-0.4,0-0.8-0.1-1-0.3c-0.3-0.2-0.4-0.5-0.4-0.8h0.4c0,0.2,0.1,0.4,0.3,0.6c0.2,0.1,0.4,0.2,0.7,0.2c0.3,0,0.5-0.1,0.7-0.2
		C182.6,279.4,182.7,279.3,182.7,279.1z"/>
	<path class="st0" d="M184,280.4h-0.4l2.1-5.4h0.4L184,280.4z"/>
	<path class="st0" d="M189.8,278.2c0,0.6-0.1,1-0.4,1.4c-0.3,0.3-0.6,0.5-1,0.5c-0.5,0-0.9-0.2-1.2-0.5v1.9h-0.4v-5.1h0.4l0,0.5
		c0.3-0.4,0.7-0.6,1.2-0.6c0.4,0,0.8,0.2,1,0.5S189.8,277.5,189.8,278.2L189.8,278.2z M189.4,278.1c0-0.5-0.1-0.8-0.3-1.1
		c-0.2-0.3-0.5-0.4-0.8-0.4c-0.3,0-0.5,0.1-0.6,0.2c-0.2,0.1-0.3,0.3-0.4,0.5v1.8c0.1,0.2,0.2,0.4,0.4,0.5c0.2,0.1,0.4,0.2,0.6,0.2
		c0.3,0,0.6-0.1,0.8-0.4C189.3,279,189.4,278.6,189.4,278.1z"/>
	<path class="st0" d="M192.4,276.7c-0.1,0-0.2,0-0.3,0c-0.3,0-0.5,0.1-0.6,0.2c-0.2,0.1-0.3,0.3-0.4,0.6v2.5h-0.4v-3.7h0.4l0,0.6
		c0.2-0.4,0.6-0.7,1-0.7c0.1,0,0.2,0,0.3,0L192.4,276.7z"/>
	<path class="st0" d="M194.4,280.1c-0.3,0-0.6-0.1-0.9-0.2s-0.5-0.4-0.6-0.6c-0.1-0.3-0.2-0.6-0.2-0.9v-0.1c0-0.4,0.1-0.7,0.2-1
		s0.3-0.5,0.6-0.7c0.2-0.2,0.5-0.2,0.8-0.2c0.4,0,0.8,0.2,1.1,0.5c0.3,0.3,0.4,0.7,0.4,1.3v0.2h-2.6v0.1c0,0.4,0.1,0.8,0.4,1
		c0.2,0.3,0.5,0.4,0.9,0.4c0.2,0,0.4,0,0.6-0.1c0.2-0.1,0.3-0.2,0.5-0.4l0.3,0.2C195.4,279.9,195,280.1,194.4,280.1z M194.3,276.6
		c-0.3,0-0.6,0.1-0.8,0.3s-0.3,0.5-0.4,0.9h2.2v0c0-0.4-0.1-0.6-0.3-0.9S194.7,276.6,194.3,276.6z"/>
	<path class="st0" d="M198.8,279.1c0-0.2-0.1-0.4-0.2-0.5s-0.4-0.2-0.7-0.3c-0.3-0.1-0.6-0.1-0.8-0.2c-0.2-0.1-0.3-0.2-0.4-0.3
		s-0.1-0.3-0.1-0.5c0-0.3,0.1-0.5,0.4-0.7c0.2-0.2,0.6-0.3,0.9-0.3c0.4,0,0.7,0.1,1,0.3c0.2,0.2,0.4,0.5,0.4,0.8h-0.4
		c0-0.2-0.1-0.4-0.3-0.5c-0.2-0.1-0.4-0.2-0.7-0.2c-0.3,0-0.5,0.1-0.6,0.2c-0.2,0.1-0.2,0.3-0.2,0.5c0,0.2,0.1,0.3,0.2,0.4
		c0.1,0.1,0.4,0.2,0.7,0.3c0.4,0.1,0.6,0.2,0.8,0.3s0.3,0.2,0.4,0.3s0.1,0.3,0.1,0.5c0,0.3-0.1,0.6-0.4,0.7s-0.6,0.3-1,0.3
		c-0.4,0-0.8-0.1-1-0.3c-0.3-0.2-0.4-0.5-0.4-0.8h0.4c0,0.2,0.1,0.4,0.3,0.6c0.2,0.1,0.4,0.2,0.7,0.2c0.3,0,0.5-0.1,0.7-0.2
		C198.7,279.4,198.8,279.3,198.8,279.1z"/>
	<path class="st0" d="M202.4,279.1c0-0.2-0.1-0.4-0.2-0.5s-0.4-0.2-0.7-0.3c-0.3-0.1-0.6-0.1-0.8-0.2c-0.2-0.1-0.3-0.2-0.4-0.3
		s-0.1-0.3-0.1-0.5c0-0.3,0.1-0.5,0.4-0.7c0.2-0.2,0.6-0.3,0.9-0.3c0.4,0,0.7,0.1,1,0.3c0.2,0.2,0.4,0.5,0.4,0.8h-0.4
		c0-0.2-0.1-0.4-0.3-0.5c-0.2-0.1-0.4-0.2-0.7-0.2c-0.3,0-0.5,0.1-0.6,0.2c-0.2,0.1-0.2,0.3-0.2,0.5c0,0.2,0.1,0.3,0.2,0.4
		c0.1,0.1,0.4,0.2,0.7,0.3c0.4,0.1,0.6,0.2,0.8,0.3s0.3,0.2,0.4,0.3s0.1,0.3,0.1,0.5c0,0.3-0.1,0.6-0.4,0.7s-0.6,0.3-1,0.3
		c-0.4,0-0.8-0.1-1-0.3c-0.3-0.2-0.4-0.5-0.4-0.8h0.4c0,0.2,0.1,0.4,0.3,0.6c0.2,0.1,0.4,0.2,0.7,0.2c0.3,0,0.5-0.1,0.7-0.2
		C202.3,279.4,202.4,279.3,202.4,279.1z"/>
	<path class="st0" d="M205,278h-1.6v-0.3h1.6V278z"/>
	<path class="st0" d="M207.4,276.7c-0.1,0-0.2,0-0.3,0c-0.3,0-0.5,0.1-0.6,0.2c-0.2,0.1-0.3,0.3-0.4,0.6v2.5h-0.4v-3.7h0.4l0,0.6
		c0.2-0.4,0.6-0.7,1-0.7c0.1,0,0.2,0,0.3,0L207.4,276.7z"/>
	<path class="st0" d="M209.4,280.1c-0.3,0-0.6-0.1-0.9-0.2s-0.5-0.4-0.6-0.6c-0.1-0.3-0.2-0.6-0.2-0.9v-0.1c0-0.4,0.1-0.7,0.2-1
		s0.3-0.5,0.6-0.7c0.2-0.2,0.5-0.2,0.8-0.2c0.4,0,0.8,0.2,1.1,0.5c0.3,0.3,0.4,0.7,0.4,1.3v0.2h-2.6v0.1c0,0.4,0.1,0.8,0.4,1
		c0.2,0.3,0.5,0.4,0.9,0.4c0.2,0,0.4,0,0.6-0.1c0.2-0.1,0.3-0.2,0.5-0.4l0.3,0.2C210.4,279.9,210,280.1,209.4,280.1z M209.3,276.6
		c-0.3,0-0.6,0.1-0.8,0.3s-0.3,0.5-0.4,0.9h2.2v0c0-0.4-0.1-0.6-0.3-0.9S209.7,276.6,209.3,276.6z"/>
	<path class="st0" d="M212.1,280h-0.4v-5.2h0.4V280z"/>
	<path class="st0" d="M214.6,280.1c-0.3,0-0.6-0.1-0.9-0.2s-0.5-0.4-0.6-0.6c-0.1-0.3-0.2-0.6-0.2-0.9v-0.1c0-0.4,0.1-0.7,0.2-1
		s0.3-0.5,0.6-0.7c0.2-0.2,0.5-0.2,0.8-0.2c0.4,0,0.8,0.2,1.1,0.5c0.3,0.3,0.4,0.7,0.4,1.3v0.2h-2.6v0.1c0,0.4,0.1,0.8,0.4,1
		c0.2,0.3,0.5,0.4,0.9,0.4c0.2,0,0.4,0,0.6-0.1c0.2-0.1,0.3-0.2,0.5-0.4l0.3,0.2C215.6,279.9,215.2,280.1,214.6,280.1z M214.5,276.6
		c-0.3,0-0.6,0.1-0.8,0.3s-0.3,0.5-0.4,0.9h2.2v0c0-0.4-0.1-0.6-0.3-0.9S214.8,276.6,214.5,276.6z"/>
	<path class="st0" d="M219.1,280c0-0.1-0.1-0.3-0.1-0.5c-0.1,0.2-0.3,0.3-0.5,0.4c-0.2,0.1-0.5,0.2-0.7,0.2c-0.4,0-0.6-0.1-0.9-0.3
		s-0.3-0.4-0.3-0.8c0-0.4,0.1-0.6,0.4-0.9s0.7-0.3,1.3-0.3h0.7v-0.4c0-0.3-0.1-0.5-0.2-0.6c-0.2-0.2-0.4-0.2-0.7-0.2
		c-0.3,0-0.5,0.1-0.7,0.2s-0.3,0.3-0.3,0.5l-0.4,0c0-0.3,0.1-0.5,0.4-0.8c0.3-0.2,0.6-0.3,1-0.3c0.4,0,0.7,0.1,1,0.3
		c0.2,0.2,0.4,0.5,0.4,0.9v1.8c0,0.4,0,0.6,0.1,0.8v0H219.1z M217.8,279.7c0.3,0,0.5-0.1,0.7-0.2c0.2-0.1,0.4-0.3,0.5-0.5v-0.8h-0.7
		c-0.4,0-0.7,0.1-1,0.2c-0.2,0.1-0.3,0.3-0.3,0.6c0,0.2,0.1,0.4,0.2,0.5C217.4,279.6,217.6,279.7,217.8,279.7z"/>
	<path class="st0" d="M222.7,279.1c0-0.2-0.1-0.4-0.2-0.5s-0.4-0.2-0.7-0.3c-0.3-0.1-0.6-0.1-0.8-0.2c-0.2-0.1-0.3-0.2-0.4-0.3
		s-0.1-0.3-0.1-0.5c0-0.3,0.1-0.5,0.4-0.7c0.2-0.2,0.6-0.3,0.9-0.3c0.4,0,0.7,0.1,1,0.3c0.2,0.2,0.4,0.5,0.4,0.8h-0.4
		c0-0.2-0.1-0.4-0.3-0.5c-0.2-0.1-0.4-0.2-0.7-0.2c-0.3,0-0.5,0.1-0.6,0.2c-0.2,0.1-0.2,0.3-0.2,0.5c0,0.2,0.1,0.3,0.2,0.4
		c0.1,0.1,0.4,0.2,0.7,0.3c0.4,0.1,0.6,0.2,0.8,0.3s0.3,0.2,0.4,0.3s0.1,0.3,0.1,0.5c0,0.3-0.1,0.6-0.4,0.7s-0.6,0.3-1,0.3
		c-0.4,0-0.8-0.1-1-0.3c-0.3-0.2-0.4-0.5-0.4-0.8h0.4c0,0.2,0.1,0.4,0.3,0.6c0.2,0.1,0.4,0.2,0.7,0.2c0.3,0,0.5-0.1,0.7-0.2
		C222.7,279.4,222.7,279.3,222.7,279.1z"/>
	<path class="st0" d="M225.5,280.1c-0.3,0-0.6-0.1-0.9-0.2s-0.5-0.4-0.6-0.6c-0.1-0.3-0.2-0.6-0.2-0.9v-0.1c0-0.4,0.1-0.7,0.2-1
		s0.3-0.5,0.6-0.7c0.2-0.2,0.5-0.2,0.8-0.2c0.4,0,0.8,0.2,1.1,0.5c0.3,0.3,0.4,0.7,0.4,1.3v0.2h-2.6v0.1c0,0.4,0.1,0.8,0.4,1
		c0.2,0.3,0.5,0.4,0.9,0.4c0.2,0,0.4,0,0.6-0.1c0.2-0.1,0.3-0.2,0.5-0.4l0.3,0.2C226.5,279.9,226.1,280.1,225.5,280.1z M225.4,276.6
		c-0.3,0-0.6,0.1-0.8,0.3s-0.3,0.5-0.4,0.9h2.2v0c0-0.4-0.1-0.6-0.3-0.9S225.7,276.6,225.4,276.6z"/>
	<path class="st0" d="M229.9,279.1c0-0.2-0.1-0.4-0.2-0.5s-0.4-0.2-0.7-0.3c-0.3-0.1-0.6-0.1-0.8-0.2c-0.2-0.1-0.3-0.2-0.4-0.3
		s-0.1-0.3-0.1-0.5c0-0.3,0.1-0.5,0.4-0.7c0.2-0.2,0.6-0.3,0.9-0.3c0.4,0,0.7,0.1,1,0.3c0.2,0.2,0.4,0.5,0.4,0.8h-0.4
		c0-0.2-0.1-0.4-0.3-0.5c-0.2-0.1-0.4-0.2-0.7-0.2c-0.3,0-0.5,0.1-0.6,0.2c-0.2,0.1-0.2,0.3-0.2,0.5c0,0.2,0.1,0.3,0.2,0.4
		c0.1,0.1,0.4,0.2,0.7,0.3c0.4,0.1,0.6,0.2,0.8,0.3s0.3,0.2,0.4,0.3s0.1,0.3,0.1,0.5c0,0.3-0.1,0.6-0.4,0.7s-0.6,0.3-1,0.3
		c-0.4,0-0.8-0.1-1-0.3c-0.3-0.2-0.4-0.5-0.4-0.8h0.4c0,0.2,0.1,0.4,0.3,0.6c0.2,0.1,0.4,0.2,0.7,0.2c0.3,0,0.5-0.1,0.7-0.2
		C229.8,279.4,229.9,279.3,229.9,279.1z"/>
	<path class="st0" d="M231.2,280.4h-0.4l2.1-5.4h0.4L231.2,280.4z"/>
	<path class="st0" d="M237.1,280H234v-0.3l1.7-1.9c0.3-0.3,0.5-0.6,0.6-0.8s0.2-0.4,0.2-0.6c0-0.3-0.1-0.6-0.3-0.7
		c-0.2-0.2-0.4-0.3-0.8-0.3c-0.3,0-0.6,0.1-0.8,0.3s-0.3,0.5-0.3,0.8h-0.4c0-0.3,0.1-0.5,0.2-0.8c0.1-0.2,0.3-0.4,0.5-0.5
		c0.2-0.1,0.5-0.2,0.8-0.2c0.5,0,0.8,0.1,1.1,0.4c0.3,0.2,0.4,0.6,0.4,1c0,0.2-0.1,0.5-0.2,0.8s-0.4,0.6-0.8,1l-1.4,1.6h2.6V280z"/>
	<path class="st0" d="M240.8,277.9c0,0.7-0.1,1.2-0.4,1.6c-0.3,0.4-0.6,0.5-1.1,0.5c-0.5,0-0.9-0.2-1.1-0.5
		c-0.3-0.4-0.4-0.9-0.4-1.6v-0.9c0-0.7,0.1-1.2,0.4-1.6s0.6-0.5,1.1-0.5c0.5,0,0.9,0.2,1.1,0.5c0.3,0.3,0.4,0.9,0.4,1.5V277.9z
		 M240.4,277c0-0.6-0.1-1-0.3-1.3s-0.5-0.4-0.8-0.4c-0.4,0-0.6,0.1-0.8,0.4c-0.2,0.3-0.3,0.7-0.3,1.3v1c0,0.6,0.1,1,0.3,1.3
		s0.5,0.5,0.8,0.5c0.4,0,0.6-0.1,0.8-0.4c0.2-0.3,0.3-0.7,0.3-1.3V277z"/>
	<path class="st0" d="M244.8,280h-3.1v-0.3l1.7-1.9c0.3-0.3,0.5-0.6,0.6-0.8s0.2-0.4,0.2-0.6c0-0.3-0.1-0.6-0.3-0.7
		c-0.2-0.2-0.4-0.3-0.8-0.3c-0.3,0-0.6,0.1-0.8,0.3s-0.3,0.5-0.3,0.8h-0.4c0-0.3,0.1-0.5,0.2-0.8c0.1-0.2,0.3-0.4,0.5-0.5
		c0.2-0.1,0.5-0.2,0.8-0.2c0.5,0,0.8,0.1,1.1,0.4c0.3,0.2,0.4,0.6,0.4,1c0,0.2-0.1,0.5-0.2,0.8s-0.4,0.6-0.8,1l-1.4,1.6h2.6V280z"/>
	<path class="st0" d="M248.7,280h-3.1v-0.3l1.7-1.9c0.3-0.3,0.5-0.6,0.6-0.8s0.2-0.4,0.2-0.6c0-0.3-0.1-0.6-0.3-0.7
		c-0.2-0.2-0.4-0.3-0.8-0.3c-0.3,0-0.6,0.1-0.8,0.3s-0.3,0.5-0.3,0.8h-0.4c0-0.3,0.1-0.5,0.2-0.8c0.1-0.2,0.3-0.4,0.5-0.5
		c0.2-0.1,0.5-0.2,0.8-0.2c0.5,0,0.8,0.1,1.1,0.4c0.3,0.2,0.4,0.6,0.4,1c0,0.2-0.1,0.5-0.2,0.8s-0.4,0.6-0.8,1l-1.4,1.6h2.6V280z"/>
	<path class="st0" d="M249.5,280.4h-0.4l2.1-5.4h0.4L249.5,280.4z"/>
	<path class="st0" d="M255.2,277.9c0,0.7-0.1,1.2-0.4,1.6c-0.3,0.4-0.6,0.5-1.1,0.5c-0.5,0-0.9-0.2-1.1-0.5
		c-0.3-0.4-0.4-0.9-0.4-1.6v-0.9c0-0.7,0.1-1.2,0.4-1.6s0.6-0.5,1.1-0.5c0.5,0,0.9,0.2,1.1,0.5c0.3,0.3,0.4,0.9,0.4,1.5V277.9z
		 M254.8,277c0-0.6-0.1-1-0.3-1.3s-0.5-0.4-0.8-0.4c-0.4,0-0.6,0.1-0.8,0.4c-0.2,0.3-0.3,0.7-0.3,1.3v1c0,0.6,0.1,1,0.3,1.3
		s0.5,0.5,0.8,0.5c0.4,0,0.6-0.1,0.8-0.4c0.2-0.3,0.3-0.7,0.3-1.3V277z"/>
	<path class="st0" d="M259.2,280h-3.1v-0.3l1.7-1.9c0.3-0.3,0.5-0.6,0.6-0.8s0.2-0.4,0.2-0.6c0-0.3-0.1-0.6-0.3-0.7
		c-0.2-0.2-0.4-0.3-0.8-0.3c-0.3,0-0.6,0.1-0.8,0.3s-0.3,0.5-0.3,0.8H256c0-0.3,0.1-0.5,0.2-0.8c0.1-0.2,0.3-0.4,0.5-0.5
		c0.2-0.1,0.5-0.2,0.8-0.2c0.5,0,0.8,0.1,1.1,0.4c0.3,0.2,0.4,0.6,0.4,1c0,0.2-0.1,0.5-0.2,0.8s-0.4,0.6-0.8,1l-1.4,1.6h2.6V280z"/>
	<path class="st0" d="M260,280.4h-0.4l2.1-5.4h0.4L260,280.4z"/>
	<path class="st0" d="M39.8,284.7l0,0.6c0.1-0.2,0.3-0.4,0.5-0.5c0.2-0.1,0.4-0.2,0.7-0.2c0.4,0,0.7,0.1,0.9,0.3s0.3,0.6,0.3,1v2.4
		h-0.4V286c0-0.3-0.1-0.6-0.2-0.7S41.3,285,41,285c-0.3,0-0.5,0.1-0.7,0.2c-0.2,0.2-0.3,0.4-0.4,0.6v2.5h-0.4v-3.7H39.8z"/>
	<path class="st0" d="M44.7,288.5c-0.3,0-0.6-0.1-0.9-0.2s-0.5-0.4-0.6-0.6c-0.1-0.3-0.2-0.6-0.2-0.9v-0.1c0-0.4,0.1-0.7,0.2-1
		s0.3-0.5,0.6-0.7c0.2-0.2,0.5-0.2,0.8-0.2c0.4,0,0.8,0.2,1.1,0.5c0.3,0.3,0.4,0.7,0.4,1.3v0.2h-2.6v0.1c0,0.4,0.1,0.8,0.4,1
		c0.2,0.3,0.5,0.4,0.9,0.4c0.2,0,0.4,0,0.6-0.1c0.2-0.1,0.3-0.2,0.5-0.4l0.3,0.2C45.7,288.3,45.3,288.5,44.7,288.5z M44.7,285
		c-0.3,0-0.6,0.1-0.8,0.3s-0.3,0.5-0.4,0.9h2.2v0c0-0.4-0.1-0.6-0.3-0.9S45,285,44.7,285z"/>
	<path class="st0" d="M47.8,287.6l0.1,0.3l0.1-0.3l0.9-2.8h0.3l0.9,2.8l0.1,0.4l0.1-0.4l0.8-2.8h0.4l-1.1,3.7H50l-1-2.9l0-0.2l0,0.2
		l-0.9,2.9h-0.3l-1.1-3.7H47L47.8,287.6z"/>
	<path class="st0" d="M53.5,286.4h-1.6V286h1.6V286.4z"/>
	<path class="st0" d="M54,286.5c0-0.6,0.1-1,0.4-1.4c0.3-0.3,0.6-0.5,1-0.5c0.5,0,0.9,0.2,1.1,0.6v-2.1H57v5.2h-0.4l0-0.5
		c-0.3,0.4-0.6,0.6-1.2,0.6c-0.4,0-0.8-0.2-1-0.5C54.2,287.6,54,287.2,54,286.5L54,286.5z M54.4,286.6c0,0.5,0.1,0.8,0.3,1.1
		c0.2,0.3,0.5,0.4,0.8,0.4c0.5,0,0.9-0.2,1.1-0.7v-1.7c-0.2-0.5-0.6-0.7-1.1-0.7c-0.3,0-0.6,0.1-0.8,0.4
		C54.5,285.7,54.4,286.1,54.4,286.6z"/>
	<path class="st0" d="M60.4,288.4c0-0.1-0.1-0.3-0.1-0.5c-0.1,0.2-0.3,0.3-0.5,0.4c-0.2,0.1-0.5,0.2-0.7,0.2c-0.4,0-0.6-0.1-0.9-0.3
		s-0.3-0.4-0.3-0.8c0-0.4,0.1-0.6,0.4-0.9s0.7-0.3,1.3-0.3h0.7v-0.4c0-0.3-0.1-0.5-0.2-0.6c-0.2-0.2-0.4-0.2-0.7-0.2
		c-0.3,0-0.5,0.1-0.7,0.2s-0.3,0.3-0.3,0.5l-0.4,0c0-0.3,0.1-0.5,0.4-0.8c0.3-0.2,0.6-0.3,1-0.3c0.4,0,0.7,0.1,1,0.3
		c0.2,0.2,0.4,0.5,0.4,0.9v1.8c0,0.4,0,0.6,0.1,0.8v0H60.4z M59.1,288.1c0.3,0,0.5-0.1,0.7-0.2c0.2-0.1,0.4-0.3,0.5-0.5v-0.8h-0.7
		c-0.4,0-0.7,0.1-1,0.2c-0.2,0.1-0.3,0.3-0.3,0.6c0,0.2,0.1,0.4,0.2,0.5C58.7,288,58.9,288.1,59.1,288.1z"/>
	<path class="st0" d="M62.5,283.8v0.9h0.8v0.3h-0.8v2.5c0,0.2,0,0.4,0.1,0.5c0.1,0.1,0.2,0.2,0.4,0.2c0.1,0,0.2,0,0.3,0l0,0.3
		c-0.1,0-0.3,0.1-0.4,0.1c-0.3,0-0.5-0.1-0.6-0.2c-0.1-0.2-0.2-0.4-0.2-0.7V285h-0.7v-0.3h0.7v-0.9H62.5z"/>
	<path class="st0" d="M66.4,288.4c0-0.1-0.1-0.3-0.1-0.5c-0.1,0.2-0.3,0.3-0.5,0.4c-0.2,0.1-0.5,0.2-0.7,0.2c-0.4,0-0.6-0.1-0.9-0.3
		s-0.3-0.4-0.3-0.8c0-0.4,0.1-0.6,0.4-0.9s0.7-0.3,1.3-0.3h0.7v-0.4c0-0.3-0.1-0.5-0.2-0.6c-0.2-0.2-0.4-0.2-0.7-0.2
		c-0.3,0-0.5,0.1-0.7,0.2s-0.3,0.3-0.3,0.5l-0.4,0c0-0.3,0.1-0.5,0.4-0.8c0.3-0.2,0.6-0.3,1-0.3c0.4,0,0.7,0.1,1,0.3
		c0.2,0.2,0.4,0.5,0.4,0.9v1.8c0,0.4,0,0.6,0.1,0.8v0H66.4z M65.1,288.1c0.3,0,0.5-0.1,0.7-0.2c0.2-0.1,0.4-0.3,0.5-0.5v-0.8h-0.7
		c-0.4,0-0.7,0.1-1,0.2c-0.2,0.1-0.3,0.3-0.3,0.6c0,0.2,0.1,0.4,0.2,0.5C64.7,288,64.9,288.1,65.1,288.1z"/>
	<path class="st0" d="M69.1,286.4h-1.6V286h1.6V286.4z"/>
	<path class="st0" d="M72,287.5c0-0.2-0.1-0.4-0.2-0.5s-0.4-0.2-0.7-0.3c-0.3-0.1-0.6-0.1-0.8-0.2c-0.2-0.1-0.3-0.2-0.4-0.3
		s-0.1-0.3-0.1-0.5c0-0.3,0.1-0.5,0.4-0.7c0.2-0.2,0.6-0.3,0.9-0.3c0.4,0,0.7,0.1,1,0.3c0.2,0.2,0.4,0.5,0.4,0.8H72
		c0-0.2-0.1-0.4-0.3-0.5c-0.2-0.1-0.4-0.2-0.7-0.2c-0.3,0-0.5,0.1-0.6,0.2c-0.2,0.1-0.2,0.3-0.2,0.5c0,0.2,0.1,0.3,0.2,0.4
		c0.1,0.1,0.4,0.2,0.7,0.3c0.4,0.1,0.6,0.2,0.8,0.3s0.3,0.2,0.4,0.3s0.1,0.3,0.1,0.5c0,0.3-0.1,0.6-0.4,0.7s-0.6,0.3-1,0.3
		c-0.4,0-0.8-0.1-1-0.3c-0.3-0.2-0.4-0.5-0.4-0.8h0.4c0,0.2,0.1,0.4,0.3,0.6c0.2,0.1,0.4,0.2,0.7,0.2c0.3,0,0.5-0.1,0.7-0.2
		C72,287.8,72,287.7,72,287.5z"/>
	<path class="st0" d="M73.8,285.3c0.1-0.2,0.3-0.4,0.5-0.5s0.4-0.2,0.7-0.2c0.4,0,0.7,0.1,0.9,0.3s0.3,0.6,0.3,1v2.4h-0.4V286
		c0-0.3-0.1-0.6-0.2-0.7s-0.4-0.2-0.7-0.2c-0.3,0-0.5,0.1-0.7,0.2c-0.2,0.2-0.3,0.4-0.4,0.6v2.5h-0.4v-5.2h0.4V285.3z"/>
	<path class="st0" d="M77,286.5c0-0.4,0.1-0.7,0.2-1s0.3-0.5,0.6-0.7c0.3-0.2,0.5-0.2,0.9-0.2c0.5,0,0.9,0.2,1.2,0.5
		c0.3,0.3,0.5,0.8,0.5,1.4v0.1c0,0.4-0.1,0.7-0.2,1c-0.1,0.3-0.3,0.5-0.6,0.7c-0.3,0.2-0.5,0.2-0.9,0.2c-0.5,0-0.9-0.2-1.2-0.5
		C77.1,287.6,77,287.2,77,286.5L77,286.5z M77.4,286.6c0,0.4,0.1,0.8,0.3,1.1c0.2,0.3,0.5,0.4,0.9,0.4c0.4,0,0.7-0.1,0.9-0.4
		c0.2-0.3,0.3-0.7,0.3-1.1v-0.1c0-0.3-0.1-0.5-0.2-0.8c-0.1-0.2-0.3-0.4-0.4-0.5c-0.2-0.1-0.4-0.2-0.6-0.2c-0.4,0-0.7,0.1-0.9,0.4
		C77.5,285.7,77.4,286.1,77.4,286.6L77.4,286.6z"/>
	<path class="st0" d="M82,287.6l0.1,0.3l0.1-0.3l0.9-2.8h0.3l0.9,2.8l0.1,0.4l0.1-0.4l0.8-2.8h0.4l-1.1,3.7h-0.3l-1-2.9l0-0.2l0,0.2
		l-0.9,2.9h-0.3l-1.1-3.7h0.4L82,287.6z"/>
	<path class="st0" d="M88.6,287.5c0-0.2-0.1-0.4-0.2-0.5s-0.4-0.2-0.7-0.3c-0.3-0.1-0.6-0.1-0.8-0.2c-0.2-0.1-0.3-0.2-0.4-0.3
		s-0.1-0.3-0.1-0.5c0-0.3,0.1-0.5,0.4-0.7c0.2-0.2,0.6-0.3,0.9-0.3c0.4,0,0.7,0.1,1,0.3c0.2,0.2,0.4,0.5,0.4,0.8h-0.4
		c0-0.2-0.1-0.4-0.3-0.5c-0.2-0.1-0.4-0.2-0.7-0.2c-0.3,0-0.5,0.1-0.6,0.2c-0.2,0.1-0.2,0.3-0.2,0.5c0,0.2,0.1,0.3,0.2,0.4
		c0.1,0.1,0.4,0.2,0.7,0.3c0.4,0.1,0.6,0.2,0.8,0.3s0.3,0.2,0.4,0.3s0.1,0.3,0.1,0.5c0,0.3-0.1,0.6-0.4,0.7s-0.6,0.3-1,0.3
		c-0.4,0-0.8-0.1-1-0.3c-0.3-0.2-0.4-0.5-0.4-0.8h0.4c0,0.2,0.1,0.4,0.3,0.6c0.2,0.1,0.4,0.2,0.7,0.2c0.3,0,0.5-0.1,0.7-0.2
		C88.5,287.8,88.6,287.7,88.6,287.5z"/>
	<path class="st0" d="M91.2,286.4h-1.6V286h1.6V286.4z"/>
	<path class="st0" d="M92.3,288.4V285h-0.6v-0.3h0.6v-0.4c0-0.4,0.1-0.7,0.3-0.9s0.5-0.3,0.8-0.3c0.2,0,0.3,0,0.4,0.1l0,0.3
		c-0.1,0-0.2,0-0.4,0c-0.2,0-0.4,0.1-0.5,0.2c-0.1,0.1-0.2,0.3-0.2,0.6v0.5h0.9v0.3h-0.9v3.4H92.3z"/>
	<path class="st0" d="M94.9,283.8v0.9h0.8v0.3h-0.8v2.5c0,0.2,0,0.4,0.1,0.5c0.1,0.1,0.2,0.2,0.4,0.2c0.1,0,0.2,0,0.3,0l0,0.3
		c-0.1,0-0.3,0.1-0.4,0.1c-0.3,0-0.5-0.1-0.6-0.2c-0.1-0.2-0.2-0.4-0.2-0.7V285h-0.7v-0.3h0.7v-0.9H94.9z"/>
	<path class="st0" d="M97.9,288.1c0.3,0,0.5-0.1,0.7-0.2c0.2-0.2,0.3-0.4,0.3-0.6h0.4c0,0.2-0.1,0.4-0.2,0.6
		c-0.1,0.2-0.3,0.3-0.5,0.4c-0.2,0.1-0.4,0.2-0.7,0.2c-0.5,0-0.9-0.2-1.2-0.5c-0.3-0.3-0.4-0.8-0.4-1.4v-0.1c0-0.4,0.1-0.7,0.2-1
		s0.3-0.5,0.5-0.6s0.5-0.2,0.8-0.2c0.4,0,0.7,0.1,1,0.4c0.3,0.2,0.4,0.6,0.4,1h-0.4c0-0.3-0.1-0.5-0.3-0.7s-0.4-0.3-0.7-0.3
		c-0.4,0-0.7,0.1-0.9,0.4s-0.3,0.6-0.3,1.1v0.1c0,0.5,0.1,0.8,0.3,1.1S97.5,288.1,97.9,288.1z"/>
	<path class="st0" d="M101.4,286.4h-1.6V286h1.6V286.4z"/>
	<path class="st0" d="M103.8,285.1c-0.1,0-0.2,0-0.3,0c-0.3,0-0.5,0.1-0.6,0.2c-0.2,0.1-0.3,0.3-0.4,0.6v2.5h-0.4v-3.7h0.4l0,0.6
		c0.2-0.4,0.6-0.7,1-0.7c0.1,0,0.2,0,0.3,0L103.8,285.1z"/>
	<path class="st0" d="M105.9,288.5c-0.3,0-0.6-0.1-0.9-0.2s-0.5-0.4-0.6-0.6c-0.1-0.3-0.2-0.6-0.2-0.9v-0.1c0-0.4,0.1-0.7,0.2-1
		s0.3-0.5,0.6-0.7c0.2-0.2,0.5-0.2,0.8-0.2c0.4,0,0.8,0.2,1.1,0.5c0.3,0.3,0.4,0.7,0.4,1.3v0.2h-2.6v0.1c0,0.4,0.1,0.8,0.4,1
		c0.2,0.3,0.5,0.4,0.9,0.4c0.2,0,0.4,0,0.6-0.1c0.2-0.1,0.3-0.2,0.5-0.4l0.3,0.2C106.9,288.3,106.4,288.5,105.9,288.5z M105.8,285
		c-0.3,0-0.6,0.1-0.8,0.3s-0.3,0.5-0.4,0.9h2.2v0c0-0.4-0.1-0.6-0.3-0.9S106.1,285,105.8,285z"/>
	<path class="st0" d="M109.4,288.1c0.3,0,0.5-0.1,0.7-0.2c0.2-0.2,0.3-0.4,0.3-0.6h0.4c0,0.2-0.1,0.4-0.2,0.6
		c-0.1,0.2-0.3,0.3-0.5,0.4c-0.2,0.1-0.4,0.2-0.7,0.2c-0.5,0-0.9-0.2-1.2-0.5c-0.3-0.3-0.4-0.8-0.4-1.4v-0.1c0-0.4,0.1-0.7,0.2-1
		s0.3-0.5,0.5-0.6s0.5-0.2,0.8-0.2c0.4,0,0.7,0.1,1,0.4c0.3,0.2,0.4,0.6,0.4,1h-0.4c0-0.3-0.1-0.5-0.3-0.7s-0.4-0.3-0.7-0.3
		c-0.4,0-0.7,0.1-0.9,0.4s-0.3,0.6-0.3,1.1v0.1c0,0.5,0.1,0.8,0.3,1.1S109,288.1,109.4,288.1z"/>
	<path class="st0" d="M113.1,288.5c-0.3,0-0.6-0.1-0.9-0.2s-0.5-0.4-0.6-0.6c-0.1-0.3-0.2-0.6-0.2-0.9v-0.1c0-0.4,0.1-0.7,0.2-1
		s0.3-0.5,0.6-0.7c0.2-0.2,0.5-0.2,0.8-0.2c0.4,0,0.8,0.2,1.1,0.5c0.3,0.3,0.4,0.7,0.4,1.3v0.2h-2.6v0.1c0,0.4,0.1,0.8,0.4,1
		c0.2,0.3,0.5,0.4,0.9,0.4c0.2,0,0.4,0,0.6-0.1c0.2-0.1,0.3-0.2,0.5-0.4l0.3,0.2C114.1,288.3,113.7,288.5,113.1,288.5z M113,285
		c-0.3,0-0.6,0.1-0.8,0.3s-0.3,0.5-0.4,0.9h2.2v0c0-0.4-0.1-0.6-0.3-0.9S113.3,285,113,285z"/>
	<path class="st0" d="M115.2,283.6c0-0.1,0-0.1,0.1-0.2c0.1-0.1,0.1-0.1,0.2-0.1c0.1,0,0.2,0,0.2,0.1c0.1,0.1,0.1,0.1,0.1,0.2
		c0,0.1,0,0.1-0.1,0.2c-0.1,0.1-0.1,0.1-0.2,0.1c-0.1,0-0.2,0-0.2-0.1C115.3,283.8,115.2,283.7,115.2,283.6z M115.7,288.4h-0.4v-3.7
		h0.4V288.4z"/>
	<path class="st0" d="M118,287.8l1.1-3.1h0.4l-1.4,3.7h-0.3l-1.4-3.7h0.4L118,287.8z"/>
	<path class="st0" d="M121.6,288.5c-0.3,0-0.6-0.1-0.9-0.2s-0.5-0.4-0.6-0.6c-0.1-0.3-0.2-0.6-0.2-0.9v-0.1c0-0.4,0.1-0.7,0.2-1
		s0.3-0.5,0.6-0.7c0.2-0.2,0.5-0.2,0.8-0.2c0.4,0,0.8,0.2,1.1,0.5c0.3,0.3,0.4,0.7,0.4,1.3v0.2h-2.6v0.1c0,0.4,0.1,0.8,0.4,1
		c0.2,0.3,0.5,0.4,0.9,0.4c0.2,0,0.4,0,0.6-0.1c0.2-0.1,0.3-0.2,0.5-0.4l0.3,0.2C122.6,288.3,122.2,288.5,121.6,288.5z M121.5,285
		c-0.3,0-0.6,0.1-0.8,0.3s-0.3,0.5-0.4,0.9h2.2v0c0-0.4-0.1-0.6-0.3-0.9S121.8,285,121.5,285z"/>
	<path class="st0" d="M123.6,286.5c0-0.6,0.1-1,0.4-1.4c0.3-0.3,0.6-0.5,1-0.5c0.5,0,0.9,0.2,1.1,0.6v-2.1h0.4v5.2h-0.4l0-0.5
		c-0.3,0.4-0.6,0.6-1.2,0.6c-0.4,0-0.8-0.2-1-0.5C123.7,287.6,123.6,287.2,123.6,286.5L123.6,286.5z M124,286.6
		c0,0.5,0.1,0.8,0.3,1.1c0.2,0.3,0.5,0.4,0.8,0.4c0.5,0,0.9-0.2,1.1-0.7v-1.7c-0.2-0.5-0.6-0.7-1.1-0.7c-0.3,0-0.6,0.1-0.8,0.4
		C124.1,285.7,124,286.1,124,286.6z"/>
	<path class="st0" d="M128.9,286.4h-1.6V286h1.6V286.4z"/>
	<path class="st0" d="M132.7,288.4h-3.1v-0.3l1.7-1.9c0.3-0.3,0.5-0.6,0.6-0.8s0.2-0.4,0.2-0.6c0-0.3-0.1-0.6-0.3-0.7
		c-0.2-0.2-0.4-0.3-0.8-0.3c-0.3,0-0.6,0.1-0.8,0.3s-0.3,0.5-0.3,0.8h-0.4c0-0.3,0.1-0.5,0.2-0.8c0.1-0.2,0.3-0.4,0.5-0.5
		c0.2-0.1,0.5-0.2,0.8-0.2c0.5,0,0.8,0.1,1.1,0.4c0.3,0.2,0.4,0.6,0.4,1c0,0.2-0.1,0.5-0.2,0.8s-0.4,0.6-0.8,1l-1.4,1.6h2.6V288.4z"
		/>
	<path class="st0" d="M136.4,284.7c0,0.3-0.1,0.5-0.2,0.7c-0.2,0.2-0.3,0.4-0.6,0.4c0.3,0.1,0.5,0.3,0.7,0.5
		c0.2,0.2,0.3,0.5,0.3,0.8c0,0.4-0.1,0.8-0.4,1c-0.3,0.2-0.7,0.4-1.1,0.4c-0.5,0-0.9-0.1-1.2-0.4s-0.4-0.6-0.4-1
		c0-0.3,0.1-0.5,0.2-0.8c0.2-0.2,0.4-0.4,0.7-0.5c-0.2-0.1-0.4-0.2-0.6-0.4c-0.1-0.2-0.2-0.4-0.2-0.7c0-0.4,0.1-0.7,0.4-1
		s0.6-0.4,1.1-0.4s0.8,0.1,1.1,0.4S136.4,284.3,136.4,284.7z M136.1,287.1c0-0.3-0.1-0.6-0.3-0.8c-0.2-0.2-0.5-0.3-0.8-0.3
		s-0.6,0.1-0.8,0.3s-0.3,0.5-0.3,0.8s0.1,0.6,0.3,0.8c0.2,0.2,0.5,0.3,0.9,0.3c0.4,0,0.6-0.1,0.9-0.3
		C136,287.7,136.1,287.4,136.1,287.1z M136,284.7c0-0.3-0.1-0.5-0.3-0.7c-0.2-0.2-0.4-0.3-0.8-0.3c-0.3,0-0.6,0.1-0.8,0.3
		c-0.2,0.2-0.3,0.4-0.3,0.7c0,0.3,0.1,0.5,0.3,0.7s0.4,0.3,0.8,0.3c0.3,0,0.6-0.1,0.8-0.3C135.9,285.2,136,285,136,284.7z"/>
	<path class="st0" d="M138.7,286.4h-1.6V286h1.6V286.4z"/>
	<path class="st0" d="M139.8,284.7l0,0.6c0.1-0.2,0.3-0.4,0.5-0.5s0.4-0.2,0.7-0.2c0.6,0,1,0.2,1.1,0.7c0.1-0.2,0.3-0.4,0.5-0.5
		c0.2-0.1,0.5-0.2,0.7-0.2c0.8,0,1.2,0.4,1.2,1.3v2.5h-0.4V286c0-0.3-0.1-0.6-0.2-0.7c-0.1-0.2-0.4-0.2-0.7-0.2
		c-0.3,0-0.5,0.1-0.7,0.3c-0.2,0.2-0.3,0.4-0.3,0.7v2.4h-0.4v-2.5c0-0.3-0.1-0.6-0.2-0.7c-0.1-0.2-0.4-0.2-0.7-0.2
		c-0.3,0-0.5,0.1-0.7,0.2c-0.2,0.1-0.3,0.4-0.4,0.7v2.5h-0.4v-3.7H139.8z"/>
	<path class="st0" d="M145.6,283.6c0-0.1,0-0.1,0.1-0.2c0.1-0.1,0.1-0.1,0.2-0.1c0.1,0,0.2,0,0.2,0.1c0.1,0.1,0.1,0.1,0.1,0.2
		c0,0.1,0,0.1-0.1,0.2c-0.1,0.1-0.1,0.1-0.2,0.1c-0.1,0-0.2,0-0.2-0.1C145.6,283.8,145.6,283.7,145.6,283.6z M146.1,288.4h-0.4v-3.7
		h0.4V288.4z"/>
	<path class="st0" d="M147.7,288.4h-0.4v-5.2h0.4V288.4z"/>
	<path class="st0" d="M149.2,288.4h-0.4v-5.2h0.4V288.4z"/>
	<path class="st0" d="M150.3,283.6c0-0.1,0-0.1,0.1-0.2c0.1-0.1,0.1-0.1,0.2-0.1c0.1,0,0.2,0,0.2,0.1c0.1,0.1,0.1,0.1,0.1,0.2
		c0,0.1,0,0.1-0.1,0.2c-0.1,0.1-0.1,0.1-0.2,0.1c-0.1,0-0.2,0-0.2-0.1C150.3,283.8,150.3,283.7,150.3,283.6z M150.8,288.4h-0.4v-3.7
		h0.4V288.4z"/>
	<path class="st0" d="M151.7,286.5c0-0.4,0.1-0.7,0.2-1s0.3-0.5,0.6-0.7c0.3-0.2,0.5-0.2,0.9-0.2c0.5,0,0.9,0.2,1.2,0.5
		c0.3,0.3,0.5,0.8,0.5,1.4v0.1c0,0.4-0.1,0.7-0.2,1c-0.1,0.3-0.3,0.5-0.6,0.7c-0.3,0.2-0.5,0.2-0.9,0.2c-0.5,0-0.9-0.2-1.2-0.5
		C151.8,287.6,151.7,287.2,151.7,286.5L151.7,286.5z M152.1,286.6c0,0.4,0.1,0.8,0.3,1.1c0.2,0.3,0.5,0.4,0.9,0.4
		c0.4,0,0.7-0.1,0.9-0.4c0.2-0.3,0.3-0.7,0.3-1.1v-0.1c0-0.3-0.1-0.5-0.2-0.8c-0.1-0.2-0.3-0.4-0.4-0.5c-0.2-0.1-0.4-0.2-0.6-0.2
		c-0.4,0-0.7,0.1-0.9,0.4C152.2,285.7,152.1,286.1,152.1,286.6L152.1,286.6z"/>
	<path class="st0" d="M156.2,284.7l0,0.6c0.1-0.2,0.3-0.4,0.5-0.5c0.2-0.1,0.4-0.2,0.7-0.2c0.4,0,0.7,0.1,0.9,0.3s0.3,0.6,0.3,1v2.4
		h-0.4V286c0-0.3-0.1-0.6-0.2-0.7s-0.4-0.2-0.7-0.2c-0.3,0-0.5,0.1-0.7,0.2c-0.2,0.2-0.3,0.4-0.4,0.6v2.5h-0.4v-3.7H156.2z"/>
	<path class="st0" d="M160.9,286.4h-1.6V286h1.6V286.4z"/>
	<path class="st0" d="M162,288.4V285h-0.6v-0.3h0.6v-0.4c0-0.4,0.1-0.7,0.3-0.9s0.5-0.3,0.8-0.3c0.2,0,0.3,0,0.4,0.1l0,0.3
		c-0.1,0-0.2,0-0.4,0c-0.2,0-0.4,0.1-0.5,0.2c-0.1,0.1-0.2,0.3-0.2,0.6v0.5h0.9v0.3h-0.9v3.4H162z"/>
	<path class="st0" d="M165.7,285.1c-0.1,0-0.2,0-0.3,0c-0.3,0-0.5,0.1-0.6,0.2c-0.2,0.1-0.3,0.3-0.4,0.6v2.5H164v-3.7h0.4l0,0.6
		c0.2-0.4,0.6-0.7,1-0.7c0.1,0,0.2,0,0.3,0L165.7,285.1z"/>
	<path class="st0" d="M168.5,288.4c0-0.1-0.1-0.3-0.1-0.5c-0.1,0.2-0.3,0.3-0.5,0.4c-0.2,0.1-0.5,0.2-0.7,0.2
		c-0.4,0-0.6-0.1-0.9-0.3s-0.3-0.4-0.3-0.8c0-0.4,0.1-0.6,0.4-0.9s0.7-0.3,1.3-0.3h0.7v-0.4c0-0.3-0.1-0.5-0.2-0.6
		c-0.2-0.2-0.4-0.2-0.7-0.2c-0.3,0-0.5,0.1-0.7,0.2s-0.3,0.3-0.3,0.5l-0.4,0c0-0.3,0.1-0.5,0.4-0.8c0.3-0.2,0.6-0.3,1-0.3
		c0.4,0,0.7,0.1,1,0.3c0.2,0.2,0.4,0.5,0.4,0.9v1.8c0,0.4,0,0.6,0.1,0.8v0H168.5z M167.3,288.1c0.3,0,0.5-0.1,0.7-0.2
		c0.2-0.1,0.4-0.3,0.5-0.5v-0.8h-0.7c-0.4,0-0.7,0.1-1,0.2c-0.2,0.1-0.3,0.3-0.3,0.6c0,0.2,0.1,0.4,0.2,0.5
		C166.8,288,167,288.1,167.3,288.1z"/>
	<path class="st0" d="M172.3,287.9c-0.2,0.4-0.6,0.5-1.2,0.5c-0.4,0-0.7-0.1-0.9-0.3c-0.2-0.2-0.3-0.6-0.3-1v-2.4h0.4v2.4
		c0,0.7,0.3,1.1,0.9,1.1c0.6,0,1-0.2,1.1-0.7v-2.7h0.4v3.7h-0.4L172.3,287.9z"/>
	<path class="st0" d="M173.6,286.5c0-0.6,0.1-1,0.4-1.4c0.3-0.3,0.6-0.5,1-0.5c0.5,0,0.9,0.2,1.1,0.6v-2.1h0.4v5.2h-0.4l0-0.5
		c-0.3,0.4-0.6,0.6-1.2,0.6c-0.4,0-0.8-0.2-1-0.5C173.8,287.6,173.6,287.2,173.6,286.5L173.6,286.5z M174.1,286.6
		c0,0.5,0.1,0.8,0.3,1.1c0.2,0.3,0.5,0.4,0.8,0.4c0.5,0,0.9-0.2,1.1-0.7v-1.7c-0.2-0.5-0.6-0.7-1.1-0.7c-0.3,0-0.6,0.1-0.8,0.4
		C174.2,285.7,174.1,286.1,174.1,286.6z"/>
	<path class="st0" d="M179,286.4h-1.6V286h1.6V286.4z"/>
	<path class="st0" d="M181.4,285.1c-0.1,0-0.2,0-0.3,0c-0.3,0-0.5,0.1-0.6,0.2c-0.2,0.1-0.3,0.3-0.4,0.6v2.5h-0.4v-3.7h0.4l0,0.6
		c0.2-0.4,0.6-0.7,1-0.7c0.1,0,0.2,0,0.3,0L181.4,285.1z"/>
	<path class="st0" d="M183.4,288.5c-0.3,0-0.6-0.1-0.9-0.2s-0.5-0.4-0.6-0.6c-0.1-0.3-0.2-0.6-0.2-0.9v-0.1c0-0.4,0.1-0.7,0.2-1
		s0.3-0.5,0.6-0.7c0.2-0.2,0.5-0.2,0.8-0.2c0.4,0,0.8,0.2,1.1,0.5c0.3,0.3,0.4,0.7,0.4,1.3v0.2h-2.6v0.1c0,0.4,0.1,0.8,0.4,1
		c0.2,0.3,0.5,0.4,0.9,0.4c0.2,0,0.4,0,0.6-0.1c0.2-0.1,0.3-0.2,0.5-0.4l0.3,0.2C184.4,288.3,184,288.5,183.4,288.5z M183.4,285
		c-0.3,0-0.6,0.1-0.8,0.3s-0.3,0.5-0.4,0.9h2.2v0c0-0.4-0.1-0.6-0.3-0.9S183.7,285,183.4,285z"/>
	<path class="st0" d="M188.6,286.6c0,0.6-0.1,1-0.4,1.4c-0.3,0.3-0.6,0.5-1,0.5c-0.5,0-0.9-0.2-1.2-0.5v1.9h-0.4v-5.1h0.4l0,0.5
		c0.3-0.4,0.7-0.6,1.2-0.6c0.4,0,0.8,0.2,1,0.5S188.6,285.9,188.6,286.6L188.6,286.6z M188.2,286.5c0-0.5-0.1-0.8-0.3-1.1
		c-0.2-0.3-0.5-0.4-0.8-0.4c-0.3,0-0.5,0.1-0.6,0.2c-0.2,0.1-0.3,0.3-0.4,0.5v1.8c0.1,0.2,0.2,0.4,0.4,0.5c0.2,0.1,0.4,0.2,0.6,0.2
		c0.3,0,0.6-0.1,0.8-0.4C188.1,287.4,188.2,287,188.2,286.5z"/>
	<path class="st0" d="M189.3,286.5c0-0.4,0.1-0.7,0.2-1s0.3-0.5,0.6-0.7c0.3-0.2,0.5-0.2,0.9-0.2c0.5,0,0.9,0.2,1.2,0.5
		c0.3,0.3,0.5,0.8,0.5,1.4v0.1c0,0.4-0.1,0.7-0.2,1c-0.1,0.3-0.3,0.5-0.6,0.7c-0.3,0.2-0.5,0.2-0.9,0.2c-0.5,0-0.9-0.2-1.2-0.5
		C189.4,287.6,189.3,287.2,189.3,286.5L189.3,286.5z M189.7,286.6c0,0.4,0.1,0.8,0.3,1.1c0.2,0.3,0.5,0.4,0.9,0.4
		c0.4,0,0.7-0.1,0.9-0.4c0.2-0.3,0.3-0.7,0.3-1.1v-0.1c0-0.3-0.1-0.5-0.2-0.8c-0.1-0.2-0.3-0.4-0.4-0.5c-0.2-0.1-0.4-0.2-0.6-0.2
		c-0.4,0-0.7,0.1-0.9,0.4C189.8,285.7,189.7,286.1,189.7,286.6L189.7,286.6z"/>
	<path class="st0" d="M195.1,285.1c-0.1,0-0.2,0-0.3,0c-0.3,0-0.5,0.1-0.6,0.2c-0.2,0.1-0.3,0.3-0.4,0.6v2.5h-0.4v-3.7h0.4l0,0.6
		c0.2-0.4,0.6-0.7,1-0.7c0.1,0,0.2,0,0.3,0L195.1,285.1z"/>
	<path class="st0" d="M196.6,283.8v0.9h0.8v0.3h-0.8v2.5c0,0.2,0,0.4,0.1,0.5c0.1,0.1,0.2,0.2,0.4,0.2c0.1,0,0.2,0,0.3,0l0,0.3
		c-0.1,0-0.3,0.1-0.4,0.1c-0.3,0-0.5-0.1-0.6-0.2c-0.1-0.2-0.2-0.4-0.2-0.7V285h-0.7v-0.3h0.7v-0.9H196.6z"/>
	<path class="st0" d="M200.4,287.5c0-0.2-0.1-0.4-0.2-0.5s-0.4-0.2-0.7-0.3c-0.3-0.1-0.6-0.1-0.8-0.2c-0.2-0.1-0.3-0.2-0.4-0.3
		s-0.1-0.3-0.1-0.5c0-0.3,0.1-0.5,0.4-0.7c0.2-0.2,0.6-0.3,0.9-0.3c0.4,0,0.7,0.1,1,0.3c0.2,0.2,0.4,0.5,0.4,0.8h-0.4
		c0-0.2-0.1-0.4-0.3-0.5c-0.2-0.1-0.4-0.2-0.7-0.2c-0.3,0-0.5,0.1-0.6,0.2c-0.2,0.1-0.2,0.3-0.2,0.5c0,0.2,0.1,0.3,0.2,0.4
		c0.1,0.1,0.4,0.2,0.7,0.3c0.4,0.1,0.6,0.2,0.8,0.3s0.3,0.2,0.4,0.3s0.1,0.3,0.1,0.5c0,0.3-0.1,0.6-0.4,0.7s-0.6,0.3-1,0.3
		c-0.4,0-0.8-0.1-1-0.3c-0.3-0.2-0.4-0.5-0.4-0.8h0.4c0,0.2,0.1,0.4,0.3,0.6c0.2,0.1,0.4,0.2,0.7,0.2c0.3,0,0.5-0.1,0.7-0.2
		C200.3,287.8,200.4,287.7,200.4,287.5z"/>
	<path class="st0" d="M203,286.4h-1.6V286h1.6V286.4z"/>
	<path class="st0" d="M205.1,288.1c0.3,0,0.5-0.1,0.7-0.2c0.2-0.2,0.3-0.4,0.3-0.6h0.4c0,0.2-0.1,0.4-0.2,0.6
		c-0.1,0.2-0.3,0.3-0.5,0.4c-0.2,0.1-0.4,0.2-0.7,0.2c-0.5,0-0.9-0.2-1.2-0.5c-0.3-0.3-0.4-0.8-0.4-1.4v-0.1c0-0.4,0.1-0.7,0.2-1
		s0.3-0.5,0.5-0.6s0.5-0.2,0.8-0.2c0.4,0,0.7,0.1,1,0.4c0.3,0.2,0.4,0.6,0.4,1h-0.4c0-0.3-0.1-0.5-0.3-0.7s-0.4-0.3-0.7-0.3
		c-0.4,0-0.7,0.1-0.9,0.4s-0.3,0.6-0.3,1.1v0.1c0,0.5,0.1,0.8,0.3,1.1S204.7,288.1,205.1,288.1z"/>
	<path class="st0" d="M207.1,286.5c0-0.4,0.1-0.7,0.2-1s0.3-0.5,0.6-0.7c0.3-0.2,0.5-0.2,0.9-0.2c0.5,0,0.9,0.2,1.2,0.5
		c0.3,0.3,0.5,0.8,0.5,1.4v0.1c0,0.4-0.1,0.7-0.2,1c-0.1,0.3-0.3,0.5-0.6,0.7c-0.3,0.2-0.5,0.2-0.9,0.2c-0.5,0-0.9-0.2-1.2-0.5
		C207.3,287.6,207.1,287.2,207.1,286.5L207.1,286.5z M207.5,286.6c0,0.4,0.1,0.8,0.3,1.1c0.2,0.3,0.5,0.4,0.9,0.4
		c0.4,0,0.7-0.1,0.9-0.4c0.2-0.3,0.3-0.7,0.3-1.1v-0.1c0-0.3-0.1-0.5-0.2-0.8c-0.1-0.2-0.3-0.4-0.4-0.5c-0.2-0.1-0.4-0.2-0.6-0.2
		c-0.4,0-0.7,0.1-0.9,0.4C207.6,285.7,207.5,286.1,207.5,286.6L207.5,286.6z"/>
	<path class="st0" d="M211.6,284.7l0,0.6c0.1-0.2,0.3-0.4,0.5-0.5c0.2-0.1,0.4-0.2,0.7-0.2c0.4,0,0.7,0.1,0.9,0.3s0.3,0.6,0.3,1v2.4
		h-0.4V286c0-0.3-0.1-0.6-0.2-0.7s-0.4-0.2-0.7-0.2c-0.3,0-0.5,0.1-0.7,0.2c-0.2,0.2-0.3,0.4-0.4,0.6v2.5h-0.4v-3.7H211.6z"/>
	<path class="st0" d="M217.3,287.5c0-0.2-0.1-0.4-0.2-0.5s-0.4-0.2-0.7-0.3c-0.3-0.1-0.6-0.1-0.8-0.2c-0.2-0.1-0.3-0.2-0.4-0.3
		s-0.1-0.3-0.1-0.5c0-0.3,0.1-0.5,0.4-0.7c0.2-0.2,0.6-0.3,0.9-0.3c0.4,0,0.7,0.1,1,0.3c0.2,0.2,0.4,0.5,0.4,0.8h-0.4
		c0-0.2-0.1-0.4-0.3-0.5c-0.2-0.1-0.4-0.2-0.7-0.2c-0.3,0-0.5,0.1-0.6,0.2c-0.2,0.1-0.2,0.3-0.2,0.5c0,0.2,0.1,0.3,0.2,0.4
		c0.1,0.1,0.4,0.2,0.7,0.3c0.4,0.1,0.6,0.2,0.8,0.3s0.3,0.2,0.4,0.3s0.1,0.3,0.1,0.5c0,0.3-0.1,0.6-0.4,0.7s-0.6,0.3-1,0.3
		c-0.4,0-0.8-0.1-1-0.3c-0.3-0.2-0.4-0.5-0.4-0.8h0.4c0,0.2,0.1,0.4,0.3,0.6c0.2,0.1,0.4,0.2,0.7,0.2c0.3,0,0.5-0.1,0.7-0.2
		C217.2,287.8,217.3,287.7,217.3,287.5z"/>
	<path class="st0" d="M221,287.9c-0.2,0.4-0.6,0.5-1.2,0.5c-0.4,0-0.7-0.1-0.9-0.3c-0.2-0.2-0.3-0.6-0.3-1v-2.4h0.4v2.4
		c0,0.7,0.3,1.1,0.9,1.1c0.6,0,1-0.2,1.1-0.7v-2.7h0.4v3.7H221L221,287.9z"/>
	<path class="st0" d="M222.9,284.7l0,0.6c0.1-0.2,0.3-0.4,0.5-0.5s0.4-0.2,0.7-0.2c0.6,0,1,0.2,1.1,0.7c0.1-0.2,0.3-0.4,0.5-0.5
		c0.2-0.1,0.5-0.2,0.7-0.2c0.8,0,1.2,0.4,1.2,1.3v2.5h-0.4V286c0-0.3-0.1-0.6-0.2-0.7c-0.1-0.2-0.4-0.2-0.7-0.2
		c-0.3,0-0.5,0.1-0.7,0.3c-0.2,0.2-0.3,0.4-0.3,0.7v2.4h-0.4v-2.5c0-0.3-0.1-0.6-0.2-0.7c-0.1-0.2-0.4-0.2-0.7-0.2
		c-0.3,0-0.5,0.1-0.7,0.2c-0.2,0.1-0.3,0.4-0.4,0.7v2.5h-0.4v-3.7H222.9z"/>
	<path class="st0" d="M230.1,288.5c-0.3,0-0.6-0.1-0.9-0.2s-0.5-0.4-0.6-0.6c-0.1-0.3-0.2-0.6-0.2-0.9v-0.1c0-0.4,0.1-0.7,0.2-1
		s0.3-0.5,0.6-0.7c0.2-0.2,0.5-0.2,0.8-0.2c0.4,0,0.8,0.2,1.1,0.5c0.3,0.3,0.4,0.7,0.4,1.3v0.2h-2.6v0.1c0,0.4,0.1,0.8,0.4,1
		c0.2,0.3,0.5,0.4,0.9,0.4c0.2,0,0.4,0,0.6-0.1c0.2-0.1,0.3-0.2,0.5-0.4l0.3,0.2C231.1,288.3,230.7,288.5,230.1,288.5z M230.1,285
		c-0.3,0-0.6,0.1-0.8,0.3s-0.3,0.5-0.4,0.9h2.2v0c0-0.4-0.1-0.6-0.3-0.9S230.4,285,230.1,285z"/>
	<path class="st0" d="M234,285.1c-0.1,0-0.2,0-0.3,0c-0.3,0-0.5,0.1-0.6,0.2c-0.2,0.1-0.3,0.3-0.4,0.6v2.5h-0.4v-3.7h0.4l0,0.6
		c0.2-0.4,0.6-0.7,1-0.7c0.1,0,0.2,0,0.3,0L234,285.1z"/>
	<path class="st0" d="M236.9,287.5c0-0.2-0.1-0.4-0.2-0.5s-0.4-0.2-0.7-0.3c-0.3-0.1-0.6-0.1-0.8-0.2c-0.2-0.1-0.3-0.2-0.4-0.3
		s-0.1-0.3-0.1-0.5c0-0.3,0.1-0.5,0.4-0.7c0.2-0.2,0.6-0.3,0.9-0.3c0.4,0,0.7,0.1,1,0.3c0.2,0.2,0.4,0.5,0.4,0.8h-0.4
		c0-0.2-0.1-0.4-0.3-0.5c-0.2-0.1-0.4-0.2-0.7-0.2c-0.3,0-0.5,0.1-0.6,0.2c-0.2,0.1-0.2,0.3-0.2,0.5c0,0.2,0.1,0.3,0.2,0.4
		c0.1,0.1,0.4,0.2,0.7,0.3c0.4,0.1,0.6,0.2,0.8,0.3s0.3,0.2,0.4,0.3s0.1,0.3,0.1,0.5c0,0.3-0.1,0.6-0.4,0.7s-0.6,0.3-1,0.3
		c-0.4,0-0.8-0.1-1-0.3c-0.3-0.2-0.4-0.5-0.4-0.8h0.4c0,0.2,0.1,0.4,0.3,0.6c0.2,0.1,0.4,0.2,0.7,0.2c0.3,0,0.5-0.1,0.7-0.2
		C236.8,287.8,236.9,287.7,236.9,287.5z"/>
	<path class="st0" d="M239.5,286.4h-1.6V286h1.6V286.4z"/>
	<path class="st0" d="M243.3,288.4h-3.1v-0.3l1.7-1.9c0.3-0.3,0.5-0.6,0.6-0.8s0.2-0.4,0.2-0.6c0-0.3-0.1-0.6-0.3-0.7
		c-0.2-0.2-0.4-0.3-0.8-0.3c-0.3,0-0.6,0.1-0.8,0.3s-0.3,0.5-0.3,0.8H240c0-0.3,0.1-0.5,0.2-0.8c0.1-0.2,0.3-0.4,0.5-0.5
		c0.2-0.1,0.5-0.2,0.8-0.2c0.5,0,0.8,0.1,1.1,0.4c0.3,0.2,0.4,0.6,0.4,1c0,0.2-0.1,0.5-0.2,0.8s-0.4,0.6-0.8,1l-1.4,1.6h2.6V288.4z"
		/>
	<path class="st0" d="M247,286.3c0,0.7-0.1,1.2-0.4,1.6c-0.3,0.4-0.6,0.5-1.1,0.5c-0.5,0-0.9-0.2-1.1-0.5c-0.3-0.4-0.4-0.9-0.4-1.6
		v-0.9c0-0.7,0.1-1.2,0.4-1.6s0.6-0.5,1.1-0.5c0.5,0,0.9,0.2,1.1,0.5c0.3,0.3,0.4,0.9,0.4,1.5V286.3z M246.6,285.4
		c0-0.6-0.1-1-0.3-1.3s-0.5-0.4-0.8-0.4c-0.4,0-0.6,0.1-0.8,0.4c-0.2,0.3-0.3,0.7-0.3,1.3v1c0,0.6,0.1,1,0.3,1.3s0.5,0.5,0.8,0.5
		c0.4,0,0.6-0.1,0.8-0.4c0.2-0.3,0.3-0.7,0.3-1.3V285.4z"/>
	<path class="st0" d="M251,288.4h-3.1v-0.3l1.7-1.9c0.3-0.3,0.5-0.6,0.6-0.8s0.2-0.4,0.2-0.6c0-0.3-0.1-0.6-0.3-0.7
		c-0.2-0.2-0.4-0.3-0.8-0.3c-0.3,0-0.6,0.1-0.8,0.3s-0.3,0.5-0.3,0.8h-0.4c0-0.3,0.1-0.5,0.2-0.8c0.1-0.2,0.3-0.4,0.5-0.5
		c0.2-0.1,0.5-0.2,0.8-0.2c0.5,0,0.8,0.1,1.1,0.4c0.3,0.2,0.4,0.6,0.4,1c0,0.2-0.1,0.5-0.2,0.8s-0.4,0.6-0.8,1l-1.4,1.6h2.6V288.4z"
		/>
	<path class="st0" d="M253.7,288.4h-0.4v-4.5l-1.4,0.5V284l1.7-0.6h0.1V288.4z"/>
	<path class="st0" d="M257,286.4h-1.6V286h1.6V286.4z"/>
	<path class="st0" d="M260.7,286.3c0,0.7-0.1,1.2-0.4,1.6c-0.3,0.4-0.6,0.5-1.1,0.5c-0.5,0-0.9-0.2-1.1-0.5
		c-0.3-0.4-0.4-0.9-0.4-1.6v-0.9c0-0.7,0.1-1.2,0.4-1.6s0.6-0.5,1.1-0.5c0.5,0,0.9,0.2,1.1,0.5c0.3,0.3,0.4,0.9,0.4,1.5V286.3z
		 M260.3,285.4c0-0.6-0.1-1-0.3-1.3s-0.5-0.4-0.8-0.4c-0.4,0-0.6,0.1-0.8,0.4c-0.2,0.3-0.3,0.7-0.3,1.3v1c0,0.6,0.1,1,0.3,1.3
		s0.5,0.5,0.8,0.5c0.4,0,0.6-0.1,0.8-0.4c0.2-0.3,0.3-0.7,0.3-1.3V285.4z"/>
</g>
<g>
	<path class="st1" d="M36.3,143.6h-4.8v-23.5h4.8V143.6z"/>
	<path class="st1" d="M44.8,126.1l0.1,2c1.2-1.6,2.9-2.3,5-2.3c1.8,0,3.2,0.5,4.1,1.6c0.9,1.1,1.4,2.7,1.4,4.9v11.3h-4.7v-11.2
		c0-1-0.2-1.7-0.6-2.2s-1.1-0.7-2.1-0.7c-1.3,0-2.3,0.6-3,1.7v12.3h-4.7v-17.4H44.8z"/>
	<path class="st1" d="M83.1,143.6H67v-3.2l7.6-8.1c1-1.1,1.8-2.1,2.3-3c0.5-0.8,0.8-1.7,0.8-2.4c0-1-0.3-1.9-0.8-2.5
		c-0.5-0.6-1.3-0.9-2.3-0.9c-1.1,0-1.9,0.4-2.5,1.1s-0.9,1.7-0.9,2.9h-4.7c0-1.4,0.3-2.7,1-3.9s1.6-2.1,2.9-2.8s2.7-1,4.2-1
		c2.4,0,4.3,0.6,5.6,1.7c1.3,1.2,2,2.8,2,4.9c0,1.2-0.3,2.3-0.9,3.5c-0.6,1.2-1.6,2.6-3.1,4.2l-5.3,5.6h10.1V143.6z"/>
	<path class="st1" d="M101.7,133.9c0,3.2-0.7,5.7-2,7.4c-1.3,1.7-3.3,2.6-5.9,2.6c-2.6,0-4.5-0.8-5.9-2.5s-2-4.1-2.1-7.3v-4.3
		c0-3.3,0.7-5.8,2-7.5c1.4-1.7,3.3-2.5,5.9-2.5c2.6,0,4.5,0.8,5.9,2.5s2,4.1,2.1,7.2V133.9z M97.1,129.1c0-1.9-0.3-3.4-0.8-4.3
		s-1.4-1.3-2.5-1.3c-1.1,0-1.9,0.4-2.4,1.3c-0.5,0.8-0.8,2.2-0.8,4v5.7c0,1.9,0.3,3.3,0.8,4.3c0.5,0.9,1.4,1.4,2.5,1.4
		c1.1,0,2-0.4,2.5-1.3c0.5-0.9,0.8-2.3,0.8-4.1V129.1z"/>
	<path class="st1" d="M121,143.6h-16.1v-3.2l7.6-8.1c1-1.1,1.8-2.1,2.3-3c0.5-0.8,0.8-1.7,0.8-2.4c0-1-0.3-1.9-0.8-2.5
		c-0.5-0.6-1.3-0.9-2.3-0.9c-1.1,0-1.9,0.4-2.5,1.1s-0.9,1.7-0.9,2.9h-4.7c0-1.4,0.3-2.7,1-3.9s1.6-2.1,2.9-2.8s2.7-1,4.2-1
		c2.4,0,4.3,0.6,5.6,1.7c1.3,1.2,2,2.8,2,4.9c0,1.2-0.3,2.3-0.9,3.5c-0.6,1.2-1.6,2.6-3.1,4.2l-5.3,5.6H121V143.6z"/>
	<path class="st1" d="M135.2,143.6h-4.7v-18l-5.6,1.7v-3.8l9.7-3.5h0.5V143.6z"/>
	<path class="st1" d="M144.2,149.5l-2.4-1.3l0.6-1c0.7-1.3,1.1-2.6,1.1-3.9v-3.6h3.9l0,3.2c0,1.2-0.3,2.4-0.9,3.6
		C145.9,147.7,145.1,148.7,144.2,149.5z"/>
	<path class="st1" d="M164.8,121.9v4.3h3v3.4h-3v8.7c0,0.6,0.1,1.1,0.4,1.4c0.2,0.3,0.7,0.4,1.4,0.4c0.5,0,1,0,1.4-0.1v3.5
		c-0.9,0.3-1.9,0.4-2.8,0.4c-3.3,0-4.9-1.6-5-5v-9.4h-2.5v-3.4h2.5v-4.3H164.8z"/>
	<path class="st1" d="M175,128c1.2-1.5,2.8-2.2,4.7-2.2c3.8,0,5.7,2.2,5.8,6.6v11.2h-4.7v-11c0-1-0.2-1.7-0.6-2.2
		c-0.4-0.5-1.1-0.7-2.1-0.7c-1.4,0-2.4,0.5-3,1.6v12.4h-4.7v-24.8h4.7V128z"/>
	<path class="st1" d="M196.9,143.9c-2.6,0-4.6-0.8-6.2-2.4c-1.6-1.6-2.4-3.7-2.4-6.3v-0.5c0-1.8,0.3-3.3,1-4.7
		c0.7-1.4,1.6-2.4,2.9-3.2c1.2-0.7,2.7-1.1,4.2-1.1c2.4,0,4.3,0.8,5.6,2.3c1.4,1.5,2.1,3.6,2.1,6.4v1.9H193c0.2,1.1,0.6,2.1,1.4,2.7
		c0.8,0.7,1.7,1,2.9,1c1.8,0,3.2-0.7,4.2-2l2.3,2.6c-0.7,1-1.6,1.8-2.8,2.3C199.7,143.6,198.4,143.9,196.9,143.9z M196.4,129.6
		c-0.9,0-1.7,0.3-2.2,0.9c-0.6,0.6-0.9,1.5-1.1,2.7h6.5v-0.4c0-1-0.3-1.8-0.8-2.4C198.1,129.9,197.4,129.6,196.4,129.6z"/>
	<path class="st1" d="M229.4,134h-9.3v9.6h-4.8v-23.5h15.3v3.9h-10.4v6.1h9.3V134z"/>
	<path class="st1" d="M251.4,124h-7.2v19.6h-4.8V124h-7.1v-3.9h19.1V124z"/>
	<path class="st1" d="M272.5,135.8c-0.2,2.5-1.1,4.5-2.8,6c-1.7,1.5-3.9,2.2-6.7,2.2c-3,0-5.4-1-7.1-3s-2.6-4.8-2.6-8.3v-1.4
		c0-2.3,0.4-4.2,1.2-6c0.8-1.7,1.9-3,3.4-4c1.5-0.9,3.2-1.4,5.2-1.4c2.7,0,4.9,0.7,6.5,2.2s2.6,3.5,2.9,6.1h-4.8
		c-0.1-1.5-0.5-2.6-1.3-3.3s-1.8-1-3.3-1c-1.6,0-2.8,0.6-3.6,1.7s-1.2,2.9-1.2,5.4v1.8c0,2.5,0.4,4.4,1.2,5.6s2,1.8,3.6,1.8
		c1.5,0,2.6-0.3,3.3-1c0.7-0.7,1.2-1.7,1.3-3.2H272.5z"/>
	<path class="st1" d="M49.7,166.5c-0.6-0.1-1.2-0.1-1.7-0.1c-1.8,0-2.9,0.6-3.5,1.8v11.4h-4.7v-17.4h4.4l0.1,2.1
		c0.9-1.6,2.2-2.4,3.9-2.4c0.5,0,1,0.1,1.5,0.2L49.7,166.5z"/>
	<path class="st1" d="M59.9,179.9c-2.6,0-4.6-0.8-6.2-2.4c-1.6-1.6-2.4-3.7-2.4-6.3v-0.5c0-1.8,0.3-3.3,1-4.7
		c0.7-1.4,1.6-2.4,2.9-3.2c1.2-0.7,2.7-1.1,4.2-1.1c2.4,0,4.3,0.8,5.6,2.3c1.4,1.5,2.1,3.6,2.1,6.4v1.9H56c0.2,1.1,0.6,2.1,1.4,2.7
		c0.8,0.7,1.7,1,2.9,1c1.8,0,3.2-0.7,4.2-2l2.3,2.6c-0.7,1-1.6,1.8-2.8,2.3C62.7,179.6,61.4,179.9,59.9,179.9z M59.4,165.6
		c-0.9,0-1.7,0.3-2.2,0.9c-0.6,0.6-0.9,1.5-1.1,2.7h6.5v-0.4c0-1-0.3-1.8-0.8-2.4C61.2,165.9,60.4,165.6,59.4,165.6z"/>
	<path class="st1" d="M77,176.2c0.9,0,1.6-0.2,2.1-0.7c0.5-0.5,0.8-1.1,0.8-1.9h4.4c0,1.2-0.3,2.3-1,3.2c-0.6,1-1.5,1.7-2.6,2.3
		c-1.1,0.5-2.3,0.8-3.7,0.8c-2.5,0-4.5-0.8-5.9-2.4S69,173.8,69,171v-0.3c0-2.7,0.7-4.8,2.1-6.4c1.4-1.6,3.4-2.4,5.9-2.4
		c2.2,0,3.9,0.6,5.2,1.9c1.3,1.2,2,2.9,2,5H80c0-0.9-0.3-1.6-0.8-2.2c-0.5-0.6-1.2-0.9-2.1-0.9c-1.1,0-1.9,0.4-2.5,1.2
		s-0.8,2.1-0.8,3.9v0.5c0,1.8,0.3,3.1,0.8,3.9C75.1,175.8,75.9,176.2,77,176.2z"/>
	<path class="st1" d="M95,179.9c-2.6,0-4.6-0.8-6.2-2.4c-1.6-1.6-2.4-3.7-2.4-6.3v-0.5c0-1.8,0.3-3.3,1-4.7c0.7-1.4,1.6-2.4,2.9-3.2
		c1.2-0.7,2.7-1.1,4.2-1.1c2.4,0,4.3,0.8,5.6,2.3c1.4,1.5,2.1,3.6,2.1,6.4v1.9H91.1c0.2,1.1,0.6,2.1,1.4,2.7c0.8,0.7,1.7,1,2.9,1
		c1.8,0,3.2-0.7,4.2-2l2.3,2.6c-0.7,1-1.6,1.8-2.8,2.3C97.8,179.6,96.5,179.9,95,179.9z M94.5,165.6c-0.9,0-1.7,0.3-2.2,0.9
		c-0.6,0.6-0.9,1.5-1.1,2.7h6.5v-0.4c0-1-0.3-1.8-0.8-2.4C96.2,165.9,95.5,165.6,94.5,165.6z"/>
	<path class="st1" d="M104.8,157.6c0-0.7,0.2-1.3,0.7-1.7c0.5-0.5,1.1-0.7,1.9-0.7c0.8,0,1.4,0.2,1.9,0.7c0.5,0.5,0.7,1,0.7,1.7
		c0,0.7-0.2,1.3-0.7,1.7c-0.5,0.5-1.1,0.7-1.9,0.7c-0.8,0-1.4-0.2-1.9-0.7C105,158.9,104.8,158.3,104.8,157.6z M109.8,179.6h-4.7
		v-17.4h4.7V179.6z"/>
	<path class="st1" d="M120.1,173.9l3.2-11.8h4.9l-5.9,17.4h-4.5l-5.9-17.4h4.9L120.1,173.9z"/>
	<path class="st1" d="M138.3,179.9c-2.6,0-4.6-0.8-6.2-2.4c-1.6-1.6-2.4-3.7-2.4-6.3v-0.5c0-1.8,0.3-3.3,1-4.7
		c0.7-1.4,1.6-2.4,2.9-3.2c1.2-0.7,2.7-1.1,4.2-1.1c2.4,0,4.3,0.8,5.6,2.3c1.4,1.5,2.1,3.6,2.1,6.4v1.9h-11.1
		c0.2,1.1,0.6,2.1,1.4,2.7c0.8,0.7,1.7,1,2.9,1c1.8,0,3.2-0.7,4.2-2l2.3,2.6c-0.7,1-1.6,1.8-2.8,2.3
		C141.1,179.6,139.8,179.9,138.3,179.9z M137.8,165.6c-0.9,0-1.7,0.3-2.2,0.9c-0.6,0.6-0.9,1.5-1.1,2.7h6.5v-0.4
		c0-1-0.3-1.8-0.8-2.4C139.5,165.9,138.8,165.6,137.8,165.6z"/>
	<path class="st1" d="M147.4,170.7c0-2.7,0.6-4.9,1.8-6.5c1.2-1.6,2.9-2.4,5-2.4c1.7,0,3.1,0.6,4.2,1.9v-8.9h4.7v24.8h-4.2l-0.2-1.9
		c-1.2,1.5-2.7,2.2-4.5,2.2c-2.1,0-3.7-0.8-4.9-2.4C148,175.9,147.4,173.6,147.4,170.7z M152.1,171.1c0,1.6,0.3,2.9,0.9,3.8
		c0.6,0.9,1.4,1.3,2.5,1.3c1.4,0,2.5-0.6,3-1.8v-6.9c-0.6-1.2-1.6-1.8-3-1.8C153.2,165.6,152.1,167.4,152.1,171.1z"/>
	<path class="st1" d="M179.3,162.1l0.1,2c1.2-1.6,2.9-2.3,5-2.3c1.8,0,3.2,0.5,4.1,1.6c0.9,1.1,1.4,2.7,1.4,4.9v11.3h-4.7v-11.2
		c0-1-0.2-1.7-0.6-2.2s-1.1-0.7-2.1-0.7c-1.3,0-2.3,0.6-3,1.7v12.3h-4.7v-17.4H179.3z"/>
	<path class="st1" d="M201.5,179.9c-2.6,0-4.6-0.8-6.2-2.4c-1.6-1.6-2.4-3.7-2.4-6.3v-0.5c0-1.8,0.3-3.3,1-4.7
		c0.7-1.4,1.6-2.4,2.9-3.2c1.2-0.7,2.7-1.1,4.2-1.1c2.4,0,4.3,0.8,5.6,2.3c1.4,1.5,2.1,3.6,2.1,6.4v1.9h-11.1
		c0.2,1.1,0.6,2.1,1.4,2.7c0.8,0.7,1.7,1,2.9,1c1.8,0,3.2-0.7,4.2-2l2.3,2.6c-0.7,1-1.6,1.8-2.8,2.3
		C204.3,179.6,202.9,179.9,201.5,179.9z M201,165.6c-0.9,0-1.7,0.3-2.2,0.9c-0.6,0.6-0.9,1.5-1.1,2.7h6.5v-0.4c0-1-0.3-1.8-0.8-2.4
		C202.7,165.9,201.9,165.6,201,165.6z"/>
	<path class="st1" d="M221.4,179.6c-0.2-0.4-0.4-0.9-0.5-1.6c-1.1,1.3-2.6,1.9-4.4,1.9c-1.7,0-3.1-0.5-4.2-1.5
		c-1.1-1-1.7-2.2-1.7-3.7c0-1.8,0.7-3.3,2.1-4.3c1.4-1,3.4-1.5,5.9-1.5h2.1v-1c0-0.8-0.2-1.5-0.6-1.9c-0.4-0.5-1.1-0.7-2-0.7
		c-0.8,0-1.4,0.2-1.8,0.6c-0.4,0.4-0.7,0.9-0.7,1.5H211c0-1,0.3-1.9,0.9-2.8c0.6-0.9,1.5-1.5,2.6-2c1.1-0.5,2.4-0.7,3.8-0.7
		c2.2,0,3.9,0.5,5.1,1.6c1.3,1.1,1.9,2.6,1.9,4.6v7.6c0,1.7,0.2,2.9,0.7,3.8v0.3H221.4z M217.6,176.3c0.7,0,1.3-0.2,1.9-0.5
		c0.6-0.3,1-0.7,1.3-1.2v-3H219c-2.3,0-3.6,0.8-3.7,2.4l0,0.3c0,0.6,0.2,1.1,0.6,1.4C216.3,176.2,216.9,176.3,217.6,176.3z"/>
	<path class="st1" d="M238.8,166.5c-0.6-0.1-1.2-0.1-1.7-0.1c-1.8,0-2.9,0.6-3.5,1.8v11.4H229v-17.4h4.4l0.1,2.1
		c0.9-1.6,2.2-2.4,3.9-2.4c0.5,0,1,0.1,1.5,0.2L238.8,166.5z"/>
	<path class="st1" d="M246,179.6h-4.7v-24.8h4.7V179.6z"/>
	<path class="st1" d="M256.3,173l3.2-10.9h5l-7,20.2l-0.4,0.9c-1,2.3-2.8,3.4-5.2,3.4c-0.7,0-1.4-0.1-2.1-0.3v-3.5l0.7,0
		c0.9,0,1.5-0.1,2-0.4c0.4-0.3,0.8-0.7,1-1.3l0.5-1.4l-6.1-17.5h5L256.3,173z"/>
	<path class="st1" d="M27.8,215.6h-4.7v-18l-5.6,1.7v-3.8l9.7-3.5h0.5V215.6z"/>
	<path class="st1" d="M35.9,213.3c0-0.7,0.2-1.3,0.8-1.8s1.1-0.7,1.9-0.7c0.8,0,1.4,0.2,1.9,0.7s0.8,1.1,0.8,1.8
		c0,0.7-0.2,1.3-0.7,1.8s-1.1,0.7-1.9,0.7c-0.8,0-1.4-0.2-1.9-0.7S35.9,214,35.9,213.3z"/>
	<path class="st1" d="M58.8,206.8h2.7v3.8h-2.7v5.1h-4.7v-5.1h-9.6l-0.2-2.9l9.8-15.5h4.7V206.8z M49,206.8h5.2v-8.3l-0.3,0.5
		L49,206.8z"/>
	<path class="st1" d="M76.8,198.1l0.1,2c1.2-1.5,2.9-2.3,5-2.3c2.2,0,3.8,0.9,4.6,2.7c1.2-1.8,3-2.7,5.2-2.7c1.9,0,3.3,0.6,4.2,1.7
		c0.9,1.1,1.4,2.8,1.4,5v11.1h-4.7v-11.1c0-1-0.2-1.7-0.6-2.2c-0.4-0.5-1.1-0.7-2-0.7c-1.4,0-2.4,0.7-2.9,2l0,12h-4.7v-11.1
		c0-1-0.2-1.7-0.6-2.2s-1.1-0.7-2-0.7c-1.3,0-2.3,0.5-2.9,1.6v12.3h-4.7v-17.4H76.8z"/>
	<path class="st1" d="M101,193.6c0-0.7,0.2-1.3,0.7-1.7c0.5-0.5,1.1-0.7,1.9-0.7c0.8,0,1.4,0.2,1.9,0.7c0.5,0.5,0.7,1,0.7,1.7
		c0,0.7-0.2,1.3-0.7,1.7c-0.5,0.5-1.1,0.7-1.9,0.7c-0.8,0-1.4-0.2-1.9-0.7C101.2,194.9,101,194.3,101,193.6z M105.9,215.6h-4.7
		v-17.4h4.7V215.6z"/>
	<path class="st1" d="M114.7,215.6H110v-24.8h4.7V215.6z"/>
	<path class="st1" d="M123.4,215.6h-4.7v-24.8h4.7V215.6z"/>
	<path class="st1" d="M127.2,193.6c0-0.7,0.2-1.3,0.7-1.7c0.5-0.5,1.1-0.7,1.9-0.7c0.8,0,1.4,0.2,1.9,0.7c0.5,0.5,0.7,1,0.7,1.7
		c0,0.7-0.2,1.3-0.7,1.7c-0.5,0.5-1.1,0.7-1.9,0.7c-0.8,0-1.4-0.2-1.9-0.7C127.5,194.9,127.2,194.3,127.2,193.6z M132.2,215.6h-4.7
		v-17.4h4.7V215.6z"/>
	<path class="st1" d="M135.3,206.7c0-1.7,0.3-3.3,1-4.6c0.7-1.4,1.6-2.4,2.9-3.1c1.3-0.7,2.7-1.1,4.4-1.1c2.4,0,4.3,0.7,5.8,2.2
		s2.3,3.4,2.5,5.9l0,1.2c0,2.7-0.7,4.8-2.2,6.4c-1.5,1.6-3.5,2.4-6,2.4s-4.5-0.8-6-2.4c-1.5-1.6-2.2-3.8-2.2-6.6V206.7z M140,207
		c0,1.7,0.3,2.9,0.9,3.8c0.6,0.9,1.5,1.3,2.7,1.3c1.1,0,2-0.4,2.6-1.3c0.6-0.9,1-2.3,1-4.2c0-1.6-0.3-2.9-1-3.8
		c-0.6-0.9-1.5-1.3-2.7-1.3c-1.1,0-2,0.4-2.6,1.3C140.3,203.8,140,205.2,140,207z"/>
	<path class="st1" d="M159,198.1l0.1,2c1.2-1.6,2.9-2.3,5-2.3c1.8,0,3.2,0.5,4.1,1.6c0.9,1.1,1.4,2.7,1.4,4.9v11.3H165v-11.2
		c0-1-0.2-1.7-0.6-2.2s-1.1-0.7-2.1-0.7c-1.3,0-2.3,0.6-3,1.7v12.3h-4.7v-17.4H159z"/>
	<path class="st1" d="M191.2,202.5c-0.6-0.1-1.2-0.1-1.7-0.1c-1.8,0-2.9,0.6-3.5,1.8v11.4h-4.7v-17.4h4.4l0.1,2.1
		c0.9-1.6,2.2-2.4,3.9-2.4c0.5,0,1,0.1,1.5,0.2L191.2,202.5z"/>
	<path class="st1" d="M201.5,215.9c-2.6,0-4.6-0.8-6.2-2.4c-1.6-1.6-2.4-3.7-2.4-6.3v-0.5c0-1.8,0.3-3.3,1-4.7
		c0.7-1.4,1.6-2.4,2.9-3.2c1.2-0.7,2.7-1.1,4.2-1.1c2.4,0,4.3,0.8,5.6,2.3c1.4,1.5,2.1,3.6,2.1,6.4v1.9h-11.1
		c0.2,1.1,0.6,2.1,1.4,2.7c0.8,0.7,1.7,1,2.9,1c1.8,0,3.2-0.7,4.2-2l2.3,2.6c-0.7,1-1.6,1.8-2.8,2.3
		C204.3,215.6,202.9,215.9,201.5,215.9z M201,201.6c-0.9,0-1.7,0.3-2.2,0.9c-0.6,0.6-0.9,1.5-1.1,2.7h6.5v-0.4c0-1-0.3-1.8-0.8-2.4
		C202.7,201.9,201.9,201.6,201,201.6z"/>
	<path class="st1" d="M227,207c0,2.7-0.6,4.8-1.8,6.5c-1.2,1.6-2.9,2.4-4.9,2.4c-1.8,0-3.2-0.6-4.3-1.8v8.2h-4.7v-24.2h4.3l0.2,1.7
		c1.1-1.4,2.6-2,4.4-2c2.2,0,3.8,0.8,5,2.4s1.8,3.8,1.8,6.6V207z M222.4,206.7c0-1.6-0.3-2.9-0.9-3.8c-0.6-0.9-1.4-1.3-2.5-1.3
		c-1.5,0-2.5,0.6-3,1.7v7.1c0.6,1.2,1.6,1.7,3,1.7C221.2,212.2,222.4,210.3,222.4,206.7z"/>
	<path class="st1" d="M229.2,206.7c0-1.7,0.3-3.3,1-4.6c0.7-1.4,1.6-2.4,2.9-3.1c1.3-0.7,2.7-1.1,4.4-1.1c2.4,0,4.3,0.7,5.8,2.2
		s2.3,3.4,2.5,5.9l0,1.2c0,2.7-0.7,4.8-2.2,6.4c-1.5,1.6-3.5,2.4-6,2.4s-4.5-0.8-6-2.4c-1.5-1.6-2.2-3.8-2.2-6.6V206.7z M233.8,207
		c0,1.7,0.3,2.9,0.9,3.8c0.6,0.9,1.5,1.3,2.7,1.3c1.1,0,2-0.4,2.6-1.3c0.6-0.9,1-2.3,1-4.2c0-1.6-0.3-2.9-1-3.8
		c-0.6-0.9-1.5-1.3-2.7-1.3c-1.1,0-2,0.4-2.6,1.3C234.1,203.8,233.8,205.2,233.8,207z"/>
	<path class="st1" d="M258.4,202.5c-0.6-0.1-1.2-0.1-1.7-0.1c-1.8,0-2.9,0.6-3.5,1.8v11.4h-4.7v-17.4h4.4l0.1,2.1
		c0.9-1.6,2.2-2.4,3.9-2.4c0.5,0,1,0.1,1.5,0.2L258.4,202.5z"/>
	<path class="st1" d="M267,193.9v4.3h3v3.4h-3v8.7c0,0.6,0.1,1.1,0.4,1.4c0.2,0.3,0.7,0.4,1.4,0.4c0.5,0,1,0,1.4-0.1v3.5
		c-0.9,0.3-1.9,0.4-2.8,0.4c-3.3,0-4.9-1.6-5-5v-9.4h-2.5v-3.4h2.5v-4.3H267z"/>
	<path class="st1" d="M282,210.8c0-0.6-0.3-1-0.8-1.3c-0.6-0.3-1.5-0.6-2.7-0.9c-4.2-0.9-6.2-2.6-6.2-5.3c0-1.5,0.6-2.8,1.9-3.9
		c1.3-1,3-1.6,5-1.6c2.2,0,4,0.5,5.3,1.6c1.3,1,2,2.4,2,4.1h-4.7c0-0.7-0.2-1.2-0.6-1.7c-0.4-0.4-1.1-0.7-2-0.7
		c-0.8,0-1.4,0.2-1.8,0.5c-0.4,0.4-0.6,0.8-0.6,1.4c0,0.5,0.2,0.9,0.7,1.2c0.5,0.3,1.3,0.6,2.5,0.8c1.2,0.2,2.1,0.5,2.9,0.8
		c2.5,0.9,3.7,2.5,3.7,4.7c0,1.6-0.7,2.9-2,3.9c-1.4,1-3.1,1.5-5.3,1.5c-1.5,0-2.8-0.3-3.9-0.8c-1.1-0.5-2-1.2-2.7-2.1
		c-0.6-0.9-1-1.9-1-2.9h4.4c0,0.8,0.3,1.5,0.9,1.9c0.6,0.4,1.3,0.7,2.3,0.7c0.9,0,1.6-0.2,2-0.5S282,211.3,282,210.8z"/>
	<path class="st1" d="M29.1,242.7c0-1.7,0.3-3.3,1-4.6c0.7-1.4,1.6-2.4,2.9-3.1c1.3-0.7,2.7-1.1,4.4-1.1c2.4,0,4.3,0.7,5.8,2.2
		s2.3,3.4,2.5,5.9l0,1.2c0,2.7-0.7,4.8-2.2,6.4c-1.5,1.6-3.5,2.4-6,2.4s-4.5-0.8-6-2.4c-1.5-1.6-2.2-3.8-2.2-6.6V242.7z M33.8,243
		c0,1.7,0.3,2.9,0.9,3.8c0.6,0.9,1.5,1.3,2.7,1.3c1.1,0,2-0.4,2.6-1.3c0.6-0.9,1-2.3,1-4.2c0-1.6-0.3-2.9-1-3.8
		c-0.6-0.9-1.5-1.3-2.7-1.3c-1.1,0-2,0.4-2.6,1.3C34.1,239.8,33.8,241.2,33.8,243z"/>
	<path class="st1" d="M49.8,251.6v-14h-2.6v-3.4h2.6v-1.5c0-2,0.6-3.5,1.7-4.6c1.1-1.1,2.7-1.6,4.7-1.6c0.6,0,1.4,0.1,2.4,0.3l0,3.6
		c-0.4-0.1-0.9-0.1-1.4-0.1c-1.8,0-2.6,0.8-2.6,2.5v1.4h3.5v3.4h-3.5v14H49.8z"/>
	<path class="st1" d="M68.5,229.6c0-0.7,0.2-1.3,0.7-1.7c0.5-0.5,1.1-0.7,1.9-0.7c0.8,0,1.4,0.2,1.9,0.7c0.5,0.5,0.7,1,0.7,1.7
		c0,0.7-0.2,1.3-0.7,1.7c-0.5,0.5-1.1,0.7-1.9,0.7c-0.8,0-1.4-0.2-1.9-0.7C68.8,230.9,68.5,230.3,68.5,229.6z M73.5,251.6h-4.7
		v-17.4h4.7V251.6z"/>
	<path class="st1" d="M76.6,242.7c0-2.7,0.6-4.9,1.8-6.5c1.2-1.6,2.9-2.4,5-2.4c1.7,0,3.1,0.6,4.2,1.9v-8.9h4.7v24.8h-4.2l-0.2-1.9
		c-1.2,1.5-2.7,2.2-4.5,2.2c-2.1,0-3.7-0.8-4.9-2.4C77.2,247.9,76.6,245.6,76.6,242.7z M81.2,243.1c0,1.6,0.3,2.9,0.9,3.8
		c0.6,0.9,1.4,1.3,2.5,1.3c1.4,0,2.5-0.6,3-1.8v-6.9c-0.6-1.2-1.6-1.8-3-1.8C82.4,237.6,81.2,239.4,81.2,243.1z"/>
	<path class="st1" d="M104,251.9c-2.6,0-4.6-0.8-6.2-2.4c-1.6-1.6-2.4-3.7-2.4-6.3v-0.5c0-1.8,0.3-3.3,1-4.7
		c0.7-1.4,1.6-2.4,2.9-3.2c1.2-0.7,2.7-1.1,4.2-1.1c2.4,0,4.3,0.8,5.6,2.3c1.4,1.5,2.1,3.6,2.1,6.4v1.9H100c0.2,1.1,0.6,2.1,1.4,2.7
		c0.8,0.7,1.7,1,2.9,1c1.8,0,3.2-0.7,4.2-2l2.3,2.6c-0.7,1-1.6,1.8-2.8,2.3C106.7,251.6,105.4,251.9,104,251.9z M103.4,237.6
		c-0.9,0-1.7,0.3-2.2,0.9c-0.6,0.6-0.9,1.5-1.1,2.7h6.5v-0.4c0-1-0.3-1.8-0.8-2.4C105.2,237.9,104.4,237.6,103.4,237.6z"/>
	<path class="st1" d="M118.1,234.1l0.1,2c1.2-1.6,2.9-2.3,5-2.3c1.8,0,3.2,0.5,4.1,1.6c0.9,1.1,1.4,2.7,1.4,4.9v11.3h-4.7v-11.2
		c0-1-0.2-1.7-0.6-2.2s-1.1-0.7-2.1-0.7c-1.3,0-2.3,0.6-3,1.7v12.3h-4.7v-17.4H118.1z"/>
	<path class="st1" d="M137.8,229.9v4.3h3v3.4h-3v8.7c0,0.6,0.1,1.1,0.4,1.4c0.2,0.3,0.7,0.4,1.4,0.4c0.5,0,1,0,1.4-0.1v3.5
		c-0.9,0.3-1.9,0.4-2.8,0.4c-3.3,0-4.9-1.6-5-5v-9.4h-2.5v-3.4h2.5v-4.3H137.8z"/>
	<path class="st1" d="M143.4,229.6c0-0.7,0.2-1.3,0.7-1.7c0.5-0.5,1.1-0.7,1.9-0.7c0.8,0,1.4,0.2,1.9,0.7c0.5,0.5,0.7,1,0.7,1.7
		c0,0.7-0.2,1.3-0.7,1.7c-0.5,0.5-1.1,0.7-1.9,0.7c-0.8,0-1.4-0.2-1.9-0.7C143.6,230.9,143.4,230.3,143.4,229.6z M148.3,251.6h-4.7
		v-17.4h4.7V251.6z"/>
	<path class="st1" d="M157.8,229.9v4.3h3v3.4h-3v8.7c0,0.6,0.1,1.1,0.4,1.4c0.2,0.3,0.7,0.4,1.4,0.4c0.5,0,1,0,1.4-0.1v3.5
		c-0.9,0.3-1.9,0.4-2.8,0.4c-3.3,0-4.9-1.6-5-5v-9.4h-2.5v-3.4h2.5v-4.3H157.8z"/>
	<path class="st1" d="M169.9,245l3.2-10.9h5l-7,20.2l-0.4,0.9c-1,2.3-2.8,3.4-5.2,3.4c-0.7,0-1.4-0.1-2.1-0.3v-3.5l0.7,0
		c0.9,0,1.5-0.1,2-0.4c0.4-0.3,0.8-0.7,1-1.3l0.5-1.4l-6.1-17.5h5L169.9,245z"/>
	<path class="st1" d="M193.7,229.9v4.3h3v3.4h-3v8.7c0,0.6,0.1,1.1,0.4,1.4c0.2,0.3,0.7,0.4,1.4,0.4c0.5,0,1,0,1.4-0.1v3.5
		c-0.9,0.3-1.9,0.4-2.8,0.4c-3.3,0-4.9-1.6-5-5v-9.4h-2.5v-3.4h2.5v-4.3H193.7z"/>
	<path class="st1" d="M203.8,236c1.2-1.5,2.8-2.2,4.7-2.2c3.8,0,5.7,2.2,5.8,6.6v11.2h-4.7v-11c0-1-0.2-1.7-0.6-2.2
		c-0.4-0.5-1.1-0.7-2.1-0.7c-1.4,0-2.4,0.5-3,1.6v12.4h-4.7v-24.8h4.7V236z"/>
	<path class="st1" d="M225.8,251.9c-2.6,0-4.6-0.8-6.2-2.4c-1.6-1.6-2.4-3.7-2.4-6.3v-0.5c0-1.8,0.3-3.3,1-4.7
		c0.7-1.4,1.6-2.4,2.9-3.2c1.2-0.7,2.7-1.1,4.2-1.1c2.4,0,4.3,0.8,5.6,2.3c1.4,1.5,2.1,3.6,2.1,6.4v1.9h-11.1
		c0.2,1.1,0.6,2.1,1.4,2.7c0.8,0.7,1.7,1,2.9,1c1.8,0,3.2-0.7,4.2-2l2.3,2.6c-0.7,1-1.6,1.8-2.8,2.3
		C228.6,251.6,227.3,251.9,225.8,251.9z M225.3,237.6c-0.9,0-1.7,0.3-2.2,0.9c-0.6,0.6-0.9,1.5-1.1,2.7h6.5v-0.4
		c0-1-0.3-1.8-0.8-2.4C227,237.9,226.3,237.6,225.3,237.6z"/>
	<path class="st1" d="M236.9,251.6v-14h-2.6v-3.4h2.6v-1.5c0-2,0.6-3.5,1.7-4.6c1.1-1.1,2.7-1.6,4.7-1.6c0.6,0,1.4,0.1,2.4,0.3
		l0,3.6c-0.4-0.1-0.9-0.1-1.4-0.1c-1.8,0-2.6,0.8-2.6,2.5v1.4h3.5v3.4h-3.5v14H236.9z"/>
	<path class="st1" d="M253,229.9v4.3h3v3.4h-3v8.7c0,0.6,0.1,1.1,0.4,1.4c0.2,0.3,0.7,0.4,1.4,0.4c0.5,0,1,0,1.4-0.1v3.5
		c-0.9,0.3-1.9,0.4-2.8,0.4c-3.3,0-4.9-1.6-5-5v-9.4h-2.5v-3.4h2.5v-4.3H253z"/>
	<path class="st1" d="M258.9,249.3c0-0.7,0.2-1.3,0.8-1.8s1.1-0.7,1.9-0.7c0.8,0,1.4,0.2,1.9,0.7s0.8,1.1,0.8,1.8
		c0,0.7-0.2,1.3-0.7,1.8s-1.1,0.7-1.9,0.7c-0.8,0-1.4-0.2-1.9-0.7S258.9,250,258.9,249.3z"/>
</g>
</svg>
