<?xml version="1.0" encoding="utf-8"?>
<!-- Generator: Adobe Illustrator 26.3.1, SVG Export Plug-In . SVG Version: 6.00 Build 0)  -->
<svg version="1.1" id="Layer_1" xmlns="http://www.w3.org/2000/svg" xmlns:xlink="http://www.w3.org/1999/xlink" x="0px" y="0px"
	 viewBox="0 0 300 600" style="enable-background:new 0 0 300 600;" xml:space="preserve">
<style type="text/css">
	.st0{fill:#EDF4FD;}
</style>
<g>
	<path class="st0" d="M49.4,143v-22h6.8c1.9,0,3.7,0.4,5.2,1.3c1.5,0.9,2.7,2.1,3.6,3.7s1.3,3.4,1.3,5.5v1c0,2-0.4,3.9-1.3,5.5
		c-0.8,1.6-2,2.8-3.6,3.7s-3.3,1.3-5.2,1.3H49.4z M53.9,124.6v14.7h2.2c1.8,0,3.1-0.6,4.1-1.7s1.4-2.8,1.4-5v-1.2
		c0-2.2-0.5-3.9-1.4-5.1c-0.9-1.2-2.3-1.7-4.1-1.7H53.9z"/>
	<path class="st0" d="M68.6,134.7c0-1.6,0.3-3.1,0.9-4.3s1.5-2.3,2.7-3c1.2-0.7,2.5-1,4.1-1c2.2,0,4,0.7,5.4,2
		c1.4,1.4,2.2,3.2,2.3,5.5l0,1.1c0,2.5-0.7,4.5-2.1,6c-1.4,1.5-3.3,2.3-5.6,2.3s-4.2-0.8-5.7-2.3c-1.4-1.5-2.1-3.6-2.1-6.2V134.7z
		 M73,135c0,1.6,0.3,2.7,0.9,3.6c0.6,0.8,1.4,1.2,2.5,1.2c1.1,0,1.9-0.4,2.5-1.2c0.6-0.8,0.9-2.1,0.9-3.9c0-1.5-0.3-2.7-0.9-3.5
		c-0.6-0.8-1.4-1.3-2.5-1.3c-1.1,0-1.9,0.4-2.5,1.3C73.2,131.9,73,133.2,73,135z"/>
	<path class="st0" d="M101,137l2.1-10.4h4.2l-4.2,16.4h-3.7l-3.1-10.3L93.4,143h-3.6l-4.2-16.4h4.2l2.1,10.4l3-10.4h3.2L101,137z"/>
	<path class="st0" d="M113.6,126.6l0.1,1.9c1.2-1.5,2.7-2.2,4.7-2.2c1.7,0,3,0.5,3.9,1.5c0.8,1,1.3,2.5,1.3,4.6V143h-4.4v-10.5
		c0-0.9-0.2-1.6-0.6-2s-1.1-0.6-2-0.6c-1.2,0-2.2,0.5-2.8,1.6V143h-4.4v-16.4H113.6z"/>
	<path class="st0" d="M131.6,143h-4.4v-23.2h4.4V143z"/>
	<path class="st0" d="M134.5,134.7c0-1.6,0.3-3.1,0.9-4.3s1.5-2.3,2.7-3c1.2-0.7,2.5-1,4.1-1c2.2,0,4,0.7,5.4,2
		c1.4,1.4,2.2,3.2,2.3,5.5l0,1.1c0,2.5-0.7,4.5-2.1,6c-1.4,1.5-3.3,2.3-5.6,2.3s-4.2-0.8-5.7-2.3c-1.4-1.5-2.1-3.6-2.1-6.2V134.7z
		 M138.8,135c0,1.6,0.3,2.7,0.9,3.6c0.6,0.8,1.4,1.2,2.5,1.2c1.1,0,1.9-0.4,2.5-1.2c0.6-0.8,0.9-2.1,0.9-3.9c0-1.5-0.3-2.7-0.9-3.5
		c-0.6-0.8-1.4-1.3-2.5-1.3c-1.1,0-1.9,0.4-2.5,1.3C139.1,131.9,138.8,133.2,138.8,135z"/>
	<path class="st0" d="M162.2,143c-0.2-0.4-0.3-0.9-0.4-1.5c-1.1,1.2-2.4,1.8-4.1,1.8c-1.6,0-2.9-0.5-4-1.4c-1.1-0.9-1.6-2.1-1.6-3.5
		c0-1.7,0.6-3.1,1.9-4c1.3-0.9,3.1-1.4,5.6-1.4h2v-0.9c0-0.8-0.2-1.4-0.6-1.8c-0.4-0.5-1-0.7-1.8-0.7c-0.7,0-1.3,0.2-1.7,0.5
		c-0.4,0.4-0.6,0.8-0.6,1.5h-4.4c0-0.9,0.3-1.8,0.9-2.6c0.6-0.8,1.4-1.4,2.5-1.9c1.1-0.5,2.3-0.7,3.6-0.7c2,0,3.6,0.5,4.8,1.5
		c1.2,1,1.8,2.4,1.8,4.3v7.1c0,1.6,0.2,2.7,0.7,3.5v0.3H162.2z M158.6,140c0.6,0,1.2-0.1,1.8-0.4c0.5-0.3,0.9-0.7,1.2-1.2v-2.8h-1.6
		c-2.2,0-3.4,0.8-3.5,2.3l0,0.3c0,0.5,0.2,1,0.6,1.3C157.4,139.8,157.9,140,158.6,140z"/>
	<path class="st0" d="M168.6,134.7c0-2.6,0.6-4.6,1.7-6.1s2.7-2.3,4.7-2.3c1.6,0,2.9,0.6,4,1.8v-8.4h4.4V143h-4l-0.2-1.7
		c-1.1,1.4-2.5,2-4.2,2c-1.9,0-3.5-0.8-4.6-2.3C169.2,139.5,168.6,137.4,168.6,134.7z M173,135c0,1.5,0.3,2.7,0.8,3.5
		c0.5,0.8,1.3,1.2,2.3,1.2c1.4,0,2.3-0.6,2.9-1.7v-6.5c-0.5-1.1-1.5-1.7-2.8-1.7C174,129.9,173,131.6,173,135z"/>
	<path class="st0" d="M210.5,124.6h-6.8V143h-4.5v-18.4h-6.7V121h18V124.6z"/>
	<path class="st0" d="M217,128.4c1.2-1.4,2.6-2.1,4.4-2.1c3.6,0,5.4,2.1,5.4,6.2V143h-4.4v-10.4c0-0.9-0.2-1.6-0.6-2.1
		c-0.4-0.4-1.1-0.7-2-0.7c-1.3,0-2.2,0.5-2.8,1.5V143h-4.4v-23.2h4.4V128.4z"/>
	<path class="st0" d="M237.6,143.3c-2.4,0-4.4-0.7-5.9-2.2s-2.3-3.4-2.3-5.9v-0.4c0-1.6,0.3-3.1,1-4.4c0.6-1.3,1.5-2.3,2.7-3
		c1.2-0.7,2.5-1.1,4-1.1c2.2,0,4,0.7,5.3,2.1c1.3,1.4,1.9,3.4,1.9,6v1.8H234c0.1,1.1,0.6,1.9,1.3,2.6c0.7,0.6,1.6,1,2.7,1
		c1.7,0,3-0.6,4-1.8l2.1,2.4c-0.7,0.9-1.5,1.7-2.7,2.2C240.2,143,239,143.3,237.6,143.3z M237.1,129.8c-0.9,0-1.6,0.3-2.1,0.9
		c-0.5,0.6-0.9,1.4-1,2.5h6.1v-0.3c0-1-0.3-1.7-0.8-2.3S238.1,129.8,237.1,129.8z"/>
	<path class="st0" d="M28,171.2v7.8h-4.5v-22h8.6c1.7,0,3.1,0.3,4.4,0.9c1.3,0.6,2.2,1.5,2.9,2.6s1,2.4,1,3.8c0,2.2-0.7,3.9-2.2,5.1
		c-1.5,1.2-3.5,1.9-6.1,1.9H28z M28,167.6h4.1c1.2,0,2.1-0.3,2.7-0.8s0.9-1.4,0.9-2.4c0-1.1-0.3-2-1-2.6c-0.6-0.7-1.5-1-2.6-1H28
		V167.6z"/>
	<path class="st0" d="M52.4,166.7c-0.6-0.1-1.1-0.1-1.6-0.1c-1.7,0-2.7,0.6-3.3,1.7V179h-4.4v-16.4h4.1l0.1,2
		c0.9-1.5,2.1-2.3,3.6-2.3c0.5,0,0.9,0.1,1.4,0.2L52.4,166.7z"/>
	<path class="st0" d="M54.4,158.4c0-0.7,0.2-1.2,0.7-1.6c0.4-0.4,1-0.6,1.8-0.6c0.7,0,1.3,0.2,1.8,0.6c0.4,0.4,0.7,1,0.7,1.6
		c0,0.7-0.2,1.2-0.7,1.6c-0.4,0.4-1,0.6-1.8,0.6c-0.7,0-1.3-0.2-1.8-0.6S54.4,159,54.4,158.4z M59.1,179h-4.4v-16.4h4.4V179z"/>
	<path class="st0" d="M68.8,173.7l3-11h4.6L70.9,179h-4.2l-5.5-16.4h4.6L68.8,173.7z"/>
	<path class="st0" d="M87.6,179c-0.2-0.4-0.3-0.9-0.4-1.5c-1.1,1.2-2.4,1.8-4.1,1.8c-1.6,0-2.9-0.5-4-1.4c-1.1-0.9-1.6-2.1-1.6-3.5
		c0-1.7,0.6-3.1,1.9-4c1.3-0.9,3.1-1.4,5.6-1.4h2v-0.9c0-0.8-0.2-1.4-0.6-1.8c-0.4-0.5-1-0.7-1.8-0.7c-0.7,0-1.3,0.2-1.7,0.5
		c-0.4,0.4-0.6,0.8-0.6,1.5h-4.4c0-0.9,0.3-1.8,0.9-2.6c0.6-0.8,1.4-1.4,2.5-1.9c1.1-0.5,2.3-0.7,3.6-0.7c2,0,3.6,0.5,4.8,1.5
		c1.2,1,1.8,2.4,1.8,4.3v7.1c0,1.6,0.2,2.7,0.7,3.5v0.3H87.6z M84,176c0.6,0,1.2-0.1,1.8-0.4c0.5-0.3,0.9-0.7,1.2-1.2v-2.8h-1.6
		c-2.2,0-3.4,0.8-3.5,2.3l0,0.3c0,0.5,0.2,1,0.6,1.3C82.8,175.8,83.3,176,84,176z"/>
	<path class="st0" d="M101.6,175.8c0.8,0,1.5-0.2,2-0.7c0.5-0.4,0.8-1,0.8-1.8h4.1c0,1.1-0.3,2.1-0.9,3c-0.6,0.9-1.4,1.6-2.4,2.1
		c-1,0.5-2.2,0.8-3.4,0.8c-2.3,0-4.2-0.7-5.5-2.2s-2-3.5-2-6.2v-0.3c0-2.5,0.7-4.5,2-6c1.3-1.5,3.2-2.3,5.5-2.3c2,0,3.7,0.6,4.9,1.7
		c1.2,1.2,1.9,2.7,1.9,4.7h-4.1c0-0.9-0.3-1.5-0.8-2.1c-0.5-0.5-1.2-0.8-2-0.8c-1,0-1.8,0.4-2.3,1.1c-0.5,0.7-0.8,1.9-0.8,3.6v0.5
		c0,1.7,0.3,2.9,0.8,3.6C99.7,175.4,100.5,175.8,101.6,175.8z"/>
	<path class="st0" d="M117,172.8l3-10.2h4.7l-6.6,18.9l-0.4,0.9c-1,2.1-2.6,3.2-4.8,3.2c-0.6,0-1.3-0.1-1.9-0.3V182l0.7,0
		c0.8,0,1.4-0.1,1.9-0.4c0.4-0.3,0.7-0.7,1-1.3l0.5-1.3l-5.7-16.4h4.7L117,172.8z"/>
	<path class="st0" d="M144.2,176.2c-0.8,1-2,1.7-3.5,2.3c-1.5,0.5-3.1,0.8-5,0.8c-1.9,0-3.6-0.4-5-1.2c-1.4-0.8-2.5-2-3.3-3.6
		s-1.2-3.4-1.2-5.6v-1.5c0-2.2,0.4-4.1,1.1-5.7c0.7-1.6,1.8-2.8,3.2-3.7s3-1.3,4.9-1.3c2.6,0,4.7,0.6,6.1,1.9
		c1.5,1.2,2.3,3.1,2.6,5.4h-4.4c-0.2-1.3-0.6-2.2-1.3-2.8s-1.6-0.9-2.9-0.9c-1.5,0-2.7,0.6-3.5,1.7c-0.8,1.2-1.2,2.9-1.2,5.2v1.4
		c0,2.3,0.4,4.1,1.3,5.2s2.2,1.8,3.9,1.8c1.7,0,2.9-0.4,3.6-1.1v-3.8h-4.1v-3.3h8.7V176.2z"/>
	<path class="st0" d="M157.4,177.3c-1.1,1.3-2.6,2-4.5,2c-1.8,0-3.1-0.5-4-1.5c-0.9-1-1.4-2.5-1.4-4.4v-10.7h4.4v10.6
		c0,1.7,0.8,2.6,2.3,2.6c1.5,0,2.5-0.5,3.1-1.5v-11.6h4.4V179h-4.1L157.4,177.3z"/>
	<path class="st0" d="M174.4,179c-0.2-0.4-0.3-0.9-0.4-1.5c-1.1,1.2-2.4,1.8-4.1,1.8c-1.6,0-2.9-0.5-4-1.4c-1.1-0.9-1.6-2.1-1.6-3.5
		c0-1.7,0.6-3.1,1.9-4c1.3-0.9,3.1-1.4,5.6-1.4h2v-0.9c0-0.8-0.2-1.4-0.6-1.8c-0.4-0.5-1-0.7-1.8-0.7c-0.7,0-1.3,0.2-1.7,0.5
		c-0.4,0.4-0.6,0.8-0.6,1.5h-4.4c0-0.9,0.3-1.8,0.9-2.6c0.6-0.8,1.4-1.4,2.5-1.9c1.1-0.5,2.3-0.7,3.6-0.7c2,0,3.6,0.5,4.8,1.5
		c1.2,1,1.8,2.4,1.8,4.3v7.1c0,1.6,0.2,2.7,0.7,3.5v0.3H174.4z M170.8,176c0.6,0,1.2-0.1,1.8-0.4c0.5-0.3,0.9-0.7,1.2-1.2v-2.8h-1.6
		c-2.2,0-3.4,0.8-3.5,2.3l0,0.3c0,0.5,0.2,1,0.6,1.3C169.6,175.8,170.1,176,170.8,176z"/>
	<path class="st0" d="M190.8,166.7c-0.6-0.1-1.1-0.1-1.6-0.1c-1.7,0-2.7,0.6-3.3,1.7V179h-4.4v-16.4h4.1l0.1,2
		c0.9-1.5,2.1-2.3,3.6-2.3c0.5,0,0.9,0.1,1.4,0.2L190.8,166.7z"/>
	<path class="st0" d="M191.9,170.7c0-2.6,0.6-4.6,1.7-6.1s2.7-2.3,4.7-2.3c1.6,0,2.9,0.6,4,1.8v-8.4h4.4V179h-4l-0.2-1.7
		c-1.1,1.4-2.5,2-4.2,2c-1.9,0-3.5-0.8-4.6-2.3C192.5,175.5,191.9,173.4,191.9,170.7z M196.3,171c0,1.5,0.3,2.7,0.8,3.5
		c0.5,0.8,1.3,1.2,2.3,1.2c1.4,0,2.3-0.6,2.9-1.7v-6.5c-0.5-1.1-1.5-1.7-2.8-1.7C197.3,165.9,196.3,167.6,196.3,171z"/>
	<path class="st0" d="M230.5,174.5h-8L221,179h-4.8l8.2-22h4.2l8.2,22H232L230.5,174.5z M223.8,170.8h5.5l-2.8-8.2L223.8,170.8z"/>
	<path class="st0" d="M252.6,171c0,2.5-0.6,4.5-1.7,6.1c-1.1,1.5-2.7,2.3-4.6,2.3c-1.7,0-3-0.6-4-1.7v7.7h-4.4v-22.7h4.1l0.2,1.6
		c1.1-1.3,2.4-1.9,4.1-1.9c2,0,3.6,0.7,4.7,2.2s1.7,3.6,1.7,6.2V171z M248.3,170.6c0-1.5-0.3-2.7-0.8-3.5c-0.5-0.8-1.3-1.2-2.4-1.2
		c-1.4,0-2.3,0.5-2.8,1.6v6.7c0.5,1.1,1.5,1.6,2.9,1.6C247.2,175.8,248.3,174.1,248.3,170.6z"/>
	<path class="st0" d="M270.1,171c0,2.5-0.6,4.5-1.7,6.1c-1.1,1.5-2.7,2.3-4.6,2.3c-1.7,0-3-0.6-4-1.7v7.7h-4.4v-22.7h4.1l0.2,1.6
		c1.1-1.3,2.4-1.9,4.1-1.9c2,0,3.6,0.7,4.7,2.2s1.7,3.6,1.7,6.2V171z M265.7,170.6c0-1.5-0.3-2.7-0.8-3.5c-0.5-0.8-1.3-1.2-2.4-1.2
		c-1.4,0-2.3,0.5-2.8,1.6v6.7c0.5,1.1,1.5,1.6,2.9,1.6C264.7,175.8,265.7,174.1,265.7,170.6z"/>
	<path class="st0" d="M52,194.6v4h2.8v3.2H52v8.2c0,0.6,0.1,1,0.3,1.3s0.7,0.4,1.3,0.4c0.5,0,0.9,0,1.3-0.1v3.3
		c-0.9,0.3-1.7,0.4-2.6,0.4c-3.1,0-4.6-1.5-4.7-4.6v-8.8h-2.4v-3.2h2.4v-4H52z"/>
	<path class="st0" d="M56.1,206.7c0-1.6,0.3-3.1,0.9-4.3s1.5-2.3,2.7-3c1.2-0.7,2.5-1,4.1-1c2.2,0,4,0.7,5.4,2
		c1.4,1.4,2.2,3.2,2.3,5.5l0,1.1c0,2.5-0.7,4.5-2.1,6c-1.4,1.5-3.3,2.3-5.6,2.3s-4.2-0.8-5.7-2.3c-1.4-1.5-2.1-3.6-2.1-6.2V206.7z
		 M60.5,207c0,1.6,0.3,2.7,0.9,3.6c0.6,0.8,1.4,1.2,2.5,1.2c1.1,0,1.9-0.4,2.5-1.2c0.6-0.8,0.9-2.1,0.9-3.9c0-1.5-0.3-2.7-0.9-3.5
		c-0.6-0.8-1.4-1.3-2.5-1.3c-1.1,0-1.9,0.4-2.5,1.3C60.8,203.9,60.5,205.2,60.5,207z"/>
	<path class="st0" d="M86.3,200.4c1.2-1.4,2.6-2.1,4.4-2.1c3.6,0,5.4,2.1,5.4,6.2V215h-4.4v-10.4c0-0.9-0.2-1.6-0.6-2.1
		c-0.4-0.4-1.1-0.7-2-0.7c-1.3,0-2.2,0.5-2.8,1.5V215H82v-23.2h4.4V200.4z"/>
	<path class="st0" d="M107,215.3c-2.4,0-4.4-0.7-5.9-2.2s-2.3-3.4-2.3-5.9v-0.4c0-1.6,0.3-3.1,1-4.4c0.6-1.3,1.5-2.3,2.7-3
		c1.2-0.7,2.5-1.1,4-1.1c2.2,0,4,0.7,5.3,2.1c1.3,1.4,1.9,3.4,1.9,6v1.8h-10.4c0.1,1.1,0.6,1.9,1.3,2.6c0.7,0.6,1.6,1,2.7,1
		c1.7,0,3-0.6,4-1.8l2.1,2.4c-0.7,0.9-1.5,1.7-2.7,2.2C109.6,215,108.3,215.3,107,215.3z M106.5,201.8c-0.9,0-1.6,0.3-2.1,0.9
		c-0.5,0.6-0.9,1.4-1,2.5h6.1v-0.3c0-1-0.3-1.7-0.8-2.3S107.4,201.8,106.5,201.8z"/>
	<path class="st0" d="M120.8,215h-4.4v-23.2h4.4V215z"/>
	<path class="st0" d="M139.1,207c0,2.5-0.6,4.5-1.7,6.1c-1.1,1.5-2.7,2.3-4.6,2.3c-1.7,0-3-0.6-4-1.7v7.7h-4.4v-22.7h4.1l0.2,1.6
		c1.1-1.3,2.4-1.9,4.1-1.9c2,0,3.6,0.7,4.7,2.2s1.7,3.6,1.7,6.2V207z M134.8,206.6c0-1.5-0.3-2.7-0.8-3.5c-0.5-0.8-1.3-1.2-2.4-1.2
		c-1.4,0-2.3,0.5-2.8,1.6v6.7c0.5,1.1,1.5,1.6,2.9,1.6C133.7,211.8,134.8,210.1,134.8,206.6z"/>
	<path class="st0" d="M164.3,207c0,2.5-0.6,4.5-1.7,6.1c-1.1,1.5-2.7,2.3-4.6,2.3c-1.7,0-3-0.6-4-1.7v7.7h-4.4v-22.7h4.1l0.2,1.6
		c1.1-1.3,2.4-1.9,4.1-1.9c2,0,3.6,0.7,4.7,2.2s1.7,3.6,1.7,6.2V207z M159.9,206.6c0-1.5-0.3-2.7-0.8-3.5c-0.5-0.8-1.3-1.2-2.4-1.2
		c-1.4,0-2.3,0.5-2.8,1.6v6.7c0.5,1.1,1.5,1.6,2.9,1.6C158.9,211.8,159.9,210.1,159.9,206.6z"/>
	<path class="st0" d="M176.2,202.7c-0.6-0.1-1.1-0.1-1.6-0.1c-1.7,0-2.7,0.6-3.3,1.7V215H167v-16.4h4.1l0.1,2
		c0.9-1.5,2.1-2.3,3.6-2.3c0.5,0,0.9,0.1,1.4,0.2L176.2,202.7z"/>
	<path class="st0" d="M177.1,206.7c0-1.6,0.3-3.1,0.9-4.3s1.5-2.3,2.7-3c1.2-0.7,2.5-1,4.1-1c2.2,0,4,0.7,5.4,2
		c1.4,1.4,2.2,3.2,2.3,5.5l0,1.1c0,2.5-0.7,4.5-2.1,6c-1.4,1.5-3.3,2.3-5.6,2.3s-4.2-0.8-5.7-2.3c-1.4-1.5-2.1-3.6-2.1-6.2V206.7z
		 M181.5,207c0,1.6,0.3,2.7,0.9,3.6c0.6,0.8,1.4,1.2,2.5,1.2c1.1,0,1.9-0.4,2.5-1.2c0.6-0.8,0.9-2.1,0.9-3.9c0-1.5-0.3-2.7-0.9-3.5
		c-0.6-0.8-1.4-1.3-2.5-1.3c-1.1,0-1.9,0.4-2.5,1.3C181.8,203.9,181.5,205.2,181.5,207z"/>
	<path class="st0" d="M200.5,194.6v4h2.8v3.2h-2.8v8.2c0,0.6,0.1,1,0.3,1.3s0.7,0.4,1.3,0.4c0.5,0,0.9,0,1.3-0.1v3.3
		c-0.9,0.3-1.7,0.4-2.6,0.4c-3.1,0-4.6-1.5-4.7-4.6v-8.8h-2.4v-3.2h2.4v-4H200.5z"/>
	<path class="st0" d="M213.3,215.3c-2.4,0-4.4-0.7-5.9-2.2s-2.3-3.4-2.3-5.9v-0.4c0-1.6,0.3-3.1,1-4.4c0.6-1.3,1.5-2.3,2.7-3
		c1.2-0.7,2.5-1.1,4-1.1c2.2,0,4,0.7,5.3,2.1c1.3,1.4,1.9,3.4,1.9,6v1.8h-10.4c0.1,1.1,0.6,1.9,1.3,2.6c0.7,0.6,1.6,1,2.7,1
		c1.7,0,3-0.6,4-1.8l2.1,2.4c-0.7,0.9-1.5,1.7-2.7,2.2C215.9,215,214.7,215.3,213.3,215.3z M212.8,201.8c-0.9,0-1.6,0.3-2.1,0.9
		c-0.5,0.6-0.9,1.4-1,2.5h6.1v-0.3c0-1-0.3-1.7-0.8-2.3S213.7,201.8,212.8,201.8z"/>
	<path class="st0" d="M229.3,211.8c0.8,0,1.5-0.2,2-0.7c0.5-0.4,0.8-1,0.8-1.8h4.1c0,1.1-0.3,2.1-0.9,3c-0.6,0.9-1.4,1.6-2.4,2.1
		c-1,0.5-2.2,0.8-3.4,0.8c-2.3,0-4.2-0.7-5.5-2.2s-2-3.5-2-6.2v-0.3c0-2.5,0.7-4.5,2-6c1.3-1.5,3.2-2.3,5.5-2.3c2,0,3.7,0.6,4.9,1.7
		c1.2,1.2,1.9,2.7,1.9,4.7h-4.1c0-0.9-0.3-1.5-0.8-2.1c-0.5-0.5-1.2-0.8-2-0.8c-1,0-1.8,0.4-2.3,1.1c-0.5,0.7-0.8,1.9-0.8,3.6v0.5
		c0,1.7,0.3,2.9,0.8,3.6C227.5,211.4,228.3,211.8,229.3,211.8z"/>
	<path class="st0" d="M243.9,194.6v4h2.8v3.2h-2.8v8.2c0,0.6,0.1,1,0.3,1.3s0.7,0.4,1.3,0.4c0.5,0,0.9,0,1.3-0.1v3.3
		c-0.9,0.3-1.7,0.4-2.6,0.4c-3.1,0-4.6-1.5-4.7-4.6v-8.8h-2.4v-3.2h2.4v-4H243.9z"/>
	<path class="st0" d="M49.9,251c-0.2-0.4-0.3-0.9-0.4-1.5c-1.1,1.2-2.4,1.8-4.1,1.8c-1.6,0-2.9-0.5-4-1.4c-1.1-0.9-1.6-2.1-1.6-3.5
		c0-1.7,0.6-3.1,1.9-4c1.3-0.9,3.1-1.4,5.6-1.4h2v-0.9c0-0.8-0.2-1.4-0.6-1.8c-0.4-0.5-1-0.7-1.8-0.7c-0.7,0-1.3,0.2-1.7,0.5
		c-0.4,0.4-0.6,0.8-0.6,1.5h-4.4c0-0.9,0.3-1.8,0.9-2.6c0.6-0.8,1.4-1.4,2.5-1.9c1.1-0.5,2.3-0.7,3.6-0.7c2,0,3.6,0.5,4.8,1.5
		c1.2,1,1.8,2.4,1.8,4.3v7.1c0,1.6,0.2,2.7,0.7,3.5v0.3H49.9z M46.3,248c0.6,0,1.2-0.1,1.8-0.4c0.5-0.3,0.9-0.7,1.2-1.2v-2.8h-1.6
		c-2.2,0-3.4,0.8-3.5,2.3l0,0.3c0,0.5,0.2,1,0.6,1.3C45.1,247.8,45.6,248,46.3,248z"/>
	<path class="st0" d="M56.4,242.7c0-2.5,0.6-4.5,1.8-6.1c1.2-1.5,2.8-2.3,4.8-2.3c1.8,0,3.2,0.6,4.2,1.8l0.2-1.5h4v15.8
		c0,1.4-0.3,2.7-1,3.7c-0.7,1.1-1.6,1.9-2.7,2.4c-1.2,0.6-2.6,0.8-4.1,0.8c-1.2,0-2.4-0.2-3.5-0.7c-1.1-0.5-2-1.1-2.6-1.9l1.9-2.7
		c1.1,1.2,2.4,1.8,4,1.8c1.2,0,2.1-0.3,2.7-0.9c0.6-0.6,1-1.5,1-2.6v-0.9c-1,1.1-2.3,1.7-4,1.7c-2,0-3.6-0.8-4.8-2.3
		c-1.2-1.5-1.8-3.6-1.8-6.1V242.7z M60.8,243c0,1.5,0.3,2.7,0.9,3.5c0.6,0.8,1.4,1.3,2.5,1.3c1.3,0,2.3-0.5,2.9-1.5v-6.9
		c-0.6-1-1.5-1.5-2.8-1.5c-1,0-1.9,0.4-2.5,1.3C61.1,240,60.8,241.3,60.8,243z"/>
	<path class="st0" d="M84.2,251c-0.2-0.4-0.3-0.9-0.4-1.5c-1.1,1.2-2.4,1.8-4.1,1.8c-1.6,0-2.9-0.5-4-1.4c-1.1-0.9-1.6-2.1-1.6-3.5
		c0-1.7,0.6-3.1,1.9-4c1.3-0.9,3.1-1.4,5.6-1.4h2v-0.9c0-0.8-0.2-1.4-0.6-1.8c-0.4-0.5-1-0.7-1.8-0.7c-0.7,0-1.3,0.2-1.7,0.5
		c-0.4,0.4-0.6,0.8-0.6,1.5h-4.4c0-0.9,0.3-1.8,0.9-2.6c0.6-0.8,1.4-1.4,2.5-1.9c1.1-0.5,2.3-0.7,3.6-0.7c2,0,3.6,0.5,4.8,1.5
		c1.2,1,1.8,2.4,1.8,4.3v7.1c0,1.6,0.2,2.7,0.7,3.5v0.3H84.2z M80.6,248c0.6,0,1.2-0.1,1.8-0.4c0.5-0.3,0.9-0.7,1.2-1.2v-2.8h-1.6
		c-2.2,0-3.4,0.8-3.5,2.3l0,0.3c0,0.5,0.2,1,0.6,1.3C79.4,247.8,79.9,248,80.6,248z"/>
	<path class="st0" d="M91.3,230.4c0-0.7,0.2-1.2,0.7-1.6c0.4-0.4,1-0.6,1.8-0.6c0.7,0,1.3,0.2,1.8,0.6c0.4,0.4,0.7,1,0.7,1.6
		c0,0.7-0.2,1.2-0.7,1.6c-0.4,0.4-1,0.6-1.8,0.6c-0.7,0-1.3-0.2-1.8-0.6S91.3,231,91.3,230.4z M95.9,251h-4.4v-16.4h4.4V251z"/>
	<path class="st0" d="M103.6,234.6l0.1,1.9c1.2-1.5,2.7-2.2,4.7-2.2c1.7,0,3,0.5,3.9,1.5c0.8,1,1.3,2.5,1.3,4.6V251h-4.4v-10.5
		c0-0.9-0.2-1.6-0.6-2s-1.1-0.6-2-0.6c-1.2,0-2.2,0.5-2.8,1.6V251h-4.4v-16.4H103.6z"/>
	<path class="st0" d="M125.8,246.5c0-0.5-0.3-1-0.8-1.3c-0.5-0.3-1.4-0.6-2.6-0.8c-3.9-0.8-5.8-2.5-5.8-5c0-1.5,0.6-2.7,1.8-3.6
		s2.8-1.5,4.7-1.5c2.1,0,3.7,0.5,5,1.5c1.2,1,1.9,2.3,1.9,3.8h-4.4c0-0.6-0.2-1.1-0.6-1.6c-0.4-0.4-1-0.6-1.9-0.6
		c-0.7,0-1.3,0.2-1.7,0.5c-0.4,0.3-0.6,0.8-0.6,1.3c0,0.5,0.2,0.9,0.7,1.2s1.2,0.6,2.3,0.8c1.1,0.2,2,0.5,2.8,0.7
		c2.3,0.8,3.5,2.3,3.5,4.4c0,1.5-0.6,2.7-1.9,3.6c-1.3,0.9-2.9,1.4-5,1.4c-1.4,0-2.6-0.2-3.7-0.7s-1.9-1.2-2.5-2s-0.9-1.8-0.9-2.8
		h4.1c0,0.8,0.3,1.4,0.9,1.8c0.5,0.4,1.3,0.6,2.2,0.6c0.8,0,1.5-0.2,1.9-0.5C125.6,247.4,125.8,247,125.8,246.5z"/>
	<path class="st0" d="M138.1,230.6v4h2.8v3.2h-2.8v8.2c0,0.6,0.1,1,0.3,1.3s0.7,0.4,1.3,0.4c0.5,0,0.9,0,1.3-0.1v3.3
		c-0.9,0.3-1.7,0.4-2.6,0.4c-3.1,0-4.6-1.5-4.7-4.6v-8.8h-2.4v-3.2h2.4v-4H138.1z"/>
	<path class="st0" d="M151,230.4c0-0.7,0.2-1.2,0.7-1.6c0.4-0.4,1-0.6,1.8-0.6c0.7,0,1.3,0.2,1.8,0.6c0.4,0.4,0.7,1,0.7,1.6
		c0,0.7-0.2,1.2-0.7,1.6c-0.4,0.4-1,0.6-1.8,0.6c-0.7,0-1.3-0.2-1.8-0.6S151,231,151,230.4z M155.7,251h-4.4v-16.4h4.4V251z"/>
	<path class="st0" d="M158.6,242.7c0-2.6,0.6-4.6,1.7-6.1s2.7-2.3,4.7-2.3c1.6,0,2.9,0.6,4,1.8v-8.4h4.4V251h-4l-0.2-1.7
		c-1.1,1.4-2.5,2-4.2,2c-1.9,0-3.5-0.8-4.6-2.3C159.2,247.5,158.6,245.4,158.6,242.7z M163,243c0,1.5,0.3,2.7,0.8,3.5
		c0.5,0.8,1.3,1.2,2.3,1.2c1.4,0,2.3-0.6,2.9-1.7v-6.5c-0.5-1.1-1.5-1.7-2.8-1.7C164,237.9,163,239.6,163,243z"/>
	<path class="st0" d="M184.3,251.3c-2.4,0-4.4-0.7-5.9-2.2s-2.3-3.4-2.3-5.9v-0.4c0-1.6,0.3-3.1,1-4.4c0.6-1.3,1.5-2.3,2.7-3
		c1.2-0.7,2.5-1.1,4-1.1c2.2,0,4,0.7,5.3,2.1c1.3,1.4,1.9,3.4,1.9,6v1.8h-10.4c0.1,1.1,0.6,1.9,1.3,2.6c0.7,0.6,1.6,1,2.7,1
		c1.7,0,3-0.6,4-1.8l2.1,2.4c-0.7,0.9-1.5,1.7-2.7,2.2C186.9,251,185.6,251.3,184.3,251.3z M183.8,237.8c-0.9,0-1.6,0.3-2.1,0.9
		c-0.5,0.6-0.9,1.4-1,2.5h6.1v-0.3c0-1-0.3-1.7-0.8-2.3S184.7,237.8,183.8,237.8z"/>
	<path class="st0" d="M197.5,234.6l0.1,1.9c1.2-1.5,2.7-2.2,4.7-2.2c1.7,0,3,0.5,3.9,1.5c0.8,1,1.3,2.5,1.3,4.6V251h-4.4v-10.5
		c0-0.9-0.2-1.6-0.6-2s-1.1-0.6-2-0.6c-1.2,0-2.2,0.5-2.8,1.6V251h-4.4v-16.4H197.5z"/>
	<path class="st0" d="M216.1,230.6v4h2.8v3.2h-2.8v8.2c0,0.6,0.1,1,0.3,1.3s0.7,0.4,1.3,0.4c0.5,0,0.9,0,1.3-0.1v3.3
		c-0.9,0.3-1.7,0.4-2.6,0.4c-3.1,0-4.6-1.5-4.7-4.6v-8.8h-2.4v-3.2h2.4v-4H216.1z"/>
	<path class="st0" d="M221.3,230.4c0-0.7,0.2-1.2,0.7-1.6c0.4-0.4,1-0.6,1.8-0.6c0.7,0,1.3,0.2,1.8,0.6c0.4,0.4,0.7,1,0.7,1.6
		c0,0.7-0.2,1.2-0.7,1.6c-0.4,0.4-1,0.6-1.8,0.6c-0.7,0-1.3-0.2-1.8-0.6S221.3,231,221.3,230.4z M225.9,251h-4.4v-16.4h4.4V251z"/>
	<path class="st0" d="M234.8,230.6v4h2.8v3.2h-2.8v8.2c0,0.6,0.1,1,0.3,1.3s0.7,0.4,1.3,0.4c0.5,0,0.9,0,1.3-0.1v3.3
		c-0.9,0.3-1.7,0.4-2.6,0.4c-3.1,0-4.6-1.5-4.7-4.6v-8.8H228v-3.2h2.4v-4H234.8z"/>
	<path class="st0" d="M246.1,244.8l3-10.2h4.7l-6.6,18.9l-0.4,0.9c-1,2.1-2.6,3.2-4.8,3.2c-0.6,0-1.3-0.1-1.9-0.3V254l0.7,0
		c0.8,0,1.4-0.1,1.9-0.4c0.4-0.3,0.7-0.7,1-1.3l0.5-1.3l-5.7-16.4h4.7L246.1,244.8z"/>
	<path class="st0" d="M78.4,266.6v4h2.8v3.2h-2.8v8.2c0,0.6,0.1,1,0.3,1.3s0.7,0.4,1.3,0.4c0.5,0,0.9,0,1.3-0.1v3.3
		c-0.9,0.3-1.7,0.4-2.6,0.4c-3.1,0-4.6-1.5-4.7-4.6v-8.8h-2.4v-3.2H74v-4H78.4z"/>
	<path class="st0" d="M87.9,272.4c1.2-1.4,2.6-2.1,4.4-2.1c3.6,0,5.4,2.1,5.4,6.2V287h-4.4v-10.4c0-0.9-0.2-1.6-0.6-2.1
		c-0.4-0.4-1.1-0.7-2-0.7c-1.3,0-2.2,0.5-2.8,1.5V287h-4.4v-23.2h4.4V272.4z"/>
	<path class="st0" d="M108.5,287.3c-2.4,0-4.4-0.7-5.9-2.2s-2.3-3.4-2.3-5.9v-0.4c0-1.6,0.3-3.1,1-4.4c0.6-1.3,1.5-2.3,2.7-3
		c1.2-0.7,2.5-1.1,4-1.1c2.2,0,4,0.7,5.3,2.1c1.3,1.4,1.9,3.4,1.9,6v1.8h-10.4c0.1,1.1,0.6,1.9,1.3,2.6c0.7,0.6,1.6,1,2.7,1
		c1.7,0,3-0.6,4-1.8l2.1,2.4c-0.7,0.9-1.5,1.7-2.7,2.2C111.1,287,109.9,287.3,108.5,287.3z M108,273.8c-0.9,0-1.6,0.3-2.1,0.9
		c-0.5,0.6-0.9,1.4-1,2.5h6.1v-0.3c0-1-0.3-1.7-0.8-2.3S109,273.8,108,273.8z"/>
	<path class="st0" d="M119,287v-13.2h-2.4v-3.2h2.4v-1.4c0-1.8,0.5-3.3,1.6-4.3c1.1-1,2.5-1.5,4.4-1.5c0.6,0,1.3,0.1,2.2,0.3l0,3.4
		c-0.4-0.1-0.8-0.1-1.3-0.1c-1.6,0-2.5,0.8-2.5,2.3v1.3h3.3v3.2h-3.3V287H119z"/>
	<path class="st0" d="M134.1,266.6v4h2.8v3.2h-2.8v8.2c0,0.6,0.1,1,0.3,1.3s0.7,0.4,1.3,0.4c0.5,0,0.9,0,1.3-0.1v3.3
		c-0.9,0.3-1.7,0.4-2.6,0.4c-3.1,0-4.6-1.5-4.7-4.6v-8.8h-2.4v-3.2h2.4v-4H134.1z"/>
	<path class="st0" d="M152.3,266.6v4h2.8v3.2h-2.8v8.2c0,0.6,0.1,1,0.3,1.3s0.7,0.4,1.3,0.4c0.5,0,0.9,0,1.3-0.1v3.3
		c-0.9,0.3-1.7,0.4-2.6,0.4c-3.1,0-4.6-1.5-4.7-4.6v-8.8h-2.4v-3.2h2.4v-4H152.3z"/>
	<path class="st0" d="M156.4,278.7c0-1.6,0.3-3.1,0.9-4.3s1.5-2.3,2.7-3c1.2-0.7,2.5-1,4.1-1c2.2,0,4,0.7,5.4,2
		c1.4,1.4,2.2,3.2,2.3,5.5l0,1.1c0,2.5-0.7,4.5-2.1,6c-1.4,1.5-3.3,2.3-5.6,2.3s-4.2-0.8-5.7-2.3c-1.4-1.5-2.1-3.6-2.1-6.2V278.7z
		 M160.8,279c0,1.6,0.3,2.7,0.9,3.6c0.6,0.8,1.4,1.2,2.5,1.2c1.1,0,1.9-0.4,2.5-1.2c0.6-0.8,0.9-2.1,0.9-3.9c0-1.5-0.3-2.7-0.9-3.5
		c-0.6-0.8-1.4-1.3-2.5-1.3c-1.1,0-1.9,0.4-2.5,1.3C161.1,275.9,160.8,277.2,160.8,279z"/>
	<path class="st0" d="M173.9,278.7c0-2.6,0.6-4.6,1.7-6.1s2.7-2.3,4.7-2.3c1.6,0,2.9,0.6,4,1.8v-8.4h4.4V287h-4l-0.2-1.7
		c-1.1,1.4-2.5,2-4.2,2c-1.9,0-3.5-0.8-4.6-2.3C174.5,283.5,173.9,281.4,173.9,278.7z M178.3,279c0,1.5,0.3,2.7,0.8,3.5
		c0.5,0.8,1.3,1.2,2.3,1.2c1.4,0,2.3-0.6,2.9-1.7v-6.5c-0.5-1.1-1.5-1.7-2.8-1.7C179.4,273.9,178.3,275.6,178.3,279z"/>
	<path class="st0" d="M201.6,287c-0.2-0.4-0.3-0.9-0.4-1.5c-1.1,1.2-2.4,1.8-4.1,1.8c-1.6,0-2.9-0.5-4-1.4c-1.1-0.9-1.6-2.1-1.6-3.5
		c0-1.7,0.6-3.1,1.9-4c1.3-0.9,3.1-1.4,5.6-1.4h2v-0.9c0-0.8-0.2-1.4-0.6-1.8c-0.4-0.5-1-0.7-1.8-0.7c-0.7,0-1.3,0.2-1.7,0.5
		c-0.4,0.4-0.6,0.8-0.6,1.5h-4.4c0-0.9,0.3-1.8,0.9-2.6c0.6-0.8,1.4-1.4,2.5-1.9c1.1-0.5,2.3-0.7,3.6-0.7c2,0,3.6,0.5,4.8,1.5
		c1.2,1,1.8,2.4,1.8,4.3v7.1c0,1.6,0.2,2.7,0.7,3.5v0.3H201.6z M198,284c0.6,0,1.2-0.1,1.8-0.4c0.5-0.3,0.9-0.7,1.2-1.2v-2.8h-1.6
		c-2.2,0-3.4,0.8-3.5,2.3l0,0.3c0,0.5,0.2,1,0.6,1.3C196.8,283.8,197.3,284,198,284z"/>
	<path class="st0" d="M214.6,280.8l3-10.2h4.7l-6.6,18.9l-0.4,0.9c-1,2.1-2.6,3.2-4.8,3.2c-0.6,0-1.3-0.1-1.9-0.3V290l0.7,0
		c0.8,0,1.4-0.1,1.9-0.4c0.4-0.3,0.7-0.7,1-1.3l0.5-1.3l-5.7-16.4h4.7L214.6,280.8z"/>
	<path class="st0" d="M221.7,284.8c0-0.7,0.2-1.3,0.7-1.7c0.5-0.4,1.1-0.7,1.8-0.7c0.7,0,1.3,0.2,1.8,0.7c0.5,0.4,0.7,1,0.7,1.7
		c0,0.7-0.2,1.2-0.7,1.7c-0.5,0.4-1.1,0.6-1.8,0.6c-0.7,0-1.3-0.2-1.8-0.6S221.7,285.5,221.7,284.8z"/>
</g>
<g>
	<path class="st0" d="M74.8,475.1c0-0.4-0.1-0.7-0.3-0.9c-0.2-0.2-0.6-0.4-1.1-0.6s-0.9-0.4-1.2-0.5c-1-0.5-1.5-1.3-1.5-2.3
		c0-0.7,0.2-1.3,0.6-1.7s1-0.7,1.7-0.8v-1.4h1v1.4c0.7,0.1,1.3,0.4,1.7,0.9s0.6,1.2,0.6,2h-1.5c0-0.5-0.1-1-0.4-1.3
		c-0.2-0.3-0.6-0.5-1-0.5c-0.4,0-0.7,0.1-1,0.3s-0.3,0.5-0.3,0.9c0,0.4,0.1,0.7,0.3,0.9c0.2,0.2,0.6,0.4,1.2,0.6s1,0.4,1.3,0.6
		c0.3,0.2,0.6,0.4,0.8,0.6s0.4,0.5,0.5,0.8c0.1,0.3,0.2,0.6,0.2,1c0,0.7-0.2,1.3-0.7,1.7c-0.4,0.4-1,0.7-1.8,0.8v1.2h-1v-1.2
		c-0.8-0.1-1.5-0.4-1.9-0.9c-0.5-0.5-0.7-1.2-0.7-2h1.5c0,0.5,0.1,0.9,0.4,1.2c0.3,0.3,0.6,0.4,1.1,0.4c0.5,0,0.8-0.1,1.1-0.3
		C74.7,475.8,74.8,475.4,74.8,475.1z"/>
	<path class="st0" d="M81.9,477.5h-1.5V470l-2.3,0.8v-1.3l3.6-1.3h0.2V477.5z"/>
	<path class="st0" d="M90.3,468.9v1.7h1.2v1.1h-1.2v3.8c0,0.3,0.1,0.5,0.2,0.6c0.1,0.1,0.3,0.2,0.6,0.2c0.2,0,0.4,0,0.5-0.1v1.2
		c-0.4,0.1-0.7,0.1-1,0.1c-1.2,0-1.8-0.7-1.8-2v-3.9h-1.1v-1.1h1.1v-1.7H90.3z"/>
	<path class="st0" d="M96.3,472c-0.2,0-0.4-0.1-0.6-0.1c-0.7,0-1.2,0.3-1.4,0.8v4.7h-1.5v-6.9h1.5l0,0.8c0.4-0.6,0.9-0.9,1.5-0.9
		c0.2,0,0.4,0,0.5,0.1L96.3,472z"/>
	<path class="st0" d="M97.3,468.8c0-0.2,0.1-0.4,0.2-0.6c0.2-0.2,0.4-0.2,0.6-0.2s0.5,0.1,0.6,0.2s0.2,0.4,0.2,0.6
		c0,0.2-0.1,0.4-0.2,0.6s-0.4,0.2-0.6,0.2s-0.5-0.1-0.6-0.2C97.4,469.2,97.3,469.1,97.3,468.8z M98.9,477.5h-1.5v-6.9h1.5V477.5z"/>
	<path class="st0" d="M104.7,477.5c-0.1-0.1-0.1-0.3-0.2-0.6c-0.5,0.5-1.1,0.8-1.8,0.8c-0.7,0-1.3-0.2-1.7-0.6
		c-0.4-0.4-0.7-0.9-0.7-1.5c0-0.7,0.3-1.3,0.8-1.7c0.5-0.4,1.3-0.6,2.3-0.6h0.9v-0.5c0-0.4-0.1-0.6-0.3-0.9s-0.5-0.3-0.9-0.3
		c-0.4,0-0.6,0.1-0.9,0.3s-0.3,0.4-0.3,0.7h-1.5c0-0.4,0.1-0.7,0.4-1.1s0.6-0.6,1-0.8c0.4-0.2,0.9-0.3,1.4-0.3
		c0.8,0,1.4,0.2,1.9,0.6s0.7,1,0.7,1.7v3.1c0,0.6,0.1,1.1,0.3,1.5v0.1H104.7z M103,476.4c0.3,0,0.6-0.1,0.9-0.2
		c0.3-0.1,0.5-0.3,0.6-0.6v-1.3h-0.8c-0.6,0-1,0.1-1.3,0.3c-0.3,0.2-0.4,0.5-0.4,0.8c0,0.3,0.1,0.5,0.3,0.7
		C102.4,476.3,102.7,476.4,103,476.4z"/>
	<path class="st0" d="M109.3,477.5h-1.5v-9.8h1.5V477.5z"/>
	<path class="st0" d="M114.8,477.5v-5.7h-1v-1.1h1V470c0-0.8,0.2-1.4,0.6-1.8c0.4-0.4,1-0.6,1.8-0.6c0.3,0,0.6,0,0.9,0.1l0,1.2
		c-0.2,0-0.4-0.1-0.6-0.1c-0.7,0-1.1,0.4-1.1,1.1v0.6h1.4v1.1h-1.4v5.7H114.8z"/>
	<path class="st0" d="M118.5,474c0-0.7,0.1-1.3,0.4-1.8c0.3-0.5,0.6-1,1.1-1.2s1-0.4,1.7-0.4c0.9,0,1.7,0.3,2.3,0.9
		c0.6,0.6,0.9,1.4,0.9,2.4l0,0.4c0,0.7-0.1,1.3-0.4,1.8c-0.3,0.5-0.6,0.9-1.1,1.2c-0.5,0.3-1,0.4-1.7,0.4c-1,0-1.7-0.3-2.3-1
		C118.8,476,118.5,475.1,118.5,474L118.5,474z M120.1,474.1c0,0.7,0.1,1.3,0.4,1.7c0.3,0.4,0.7,0.6,1.2,0.6s0.9-0.2,1.2-0.6
		c0.3-0.4,0.4-1,0.4-1.8c0-0.7-0.1-1.2-0.4-1.7c-0.3-0.4-0.7-0.6-1.2-0.6c-0.5,0-0.9,0.2-1.2,0.6
		C120.2,472.7,120.1,473.3,120.1,474.1z"/>
	<path class="st0" d="M129.8,472c-0.2,0-0.4-0.1-0.6-0.1c-0.7,0-1.2,0.3-1.4,0.8v4.7h-1.5v-6.9h1.5l0,0.8c0.4-0.6,0.9-0.9,1.5-0.9
		c0.2,0,0.4,0,0.5,0.1L129.8,472z"/>
	<path class="st0" d="M136,468.9v1.7h1.2v1.1H136v3.8c0,0.3,0.1,0.5,0.2,0.6c0.1,0.1,0.3,0.2,0.6,0.2c0.2,0,0.4,0,0.5-0.1v1.2
		c-0.4,0.1-0.7,0.1-1,0.1c-1.2,0-1.8-0.7-1.8-2v-3.9h-1.1v-1.1h1.1v-1.7H136z"/>
	<path class="st0" d="M139.9,471.4c0.5-0.6,1.1-0.9,1.9-0.9c1.5,0,2.2,0.8,2.2,2.5v4.5h-1.5V473c0-0.5-0.1-0.8-0.3-1
		c-0.2-0.2-0.5-0.3-0.9-0.3c-0.6,0-1.1,0.3-1.4,0.8v4.9h-1.5v-9.8h1.5V471.4z"/>
	<path class="st0" d="M148.6,477.6c-1,0-1.8-0.3-2.4-0.9c-0.6-0.6-0.9-1.4-0.9-2.5V474c0-0.7,0.1-1.3,0.4-1.8c0.3-0.5,0.6-1,1.1-1.3
		c0.5-0.3,1-0.5,1.6-0.5c0.9,0,1.7,0.3,2.2,0.9c0.5,0.6,0.8,1.4,0.8,2.5v0.6h-4.5c0,0.6,0.2,1,0.6,1.3c0.3,0.3,0.8,0.5,1.3,0.5
		c0.7,0,1.3-0.3,1.7-0.9l0.8,0.8c-0.3,0.4-0.6,0.7-1.1,1C149.7,477.5,149.2,477.6,148.6,477.6z M148.4,471.7c-0.4,0-0.8,0.1-1,0.4
		c-0.3,0.3-0.4,0.7-0.5,1.2h2.9v-0.1c0-0.5-0.2-0.9-0.4-1.2S148.8,471.7,148.4,471.7z"/>
	<path class="st0" d="M156.3,477.5v-5.7h-1v-1.1h1V470c0-0.8,0.2-1.4,0.6-1.8c0.4-0.4,1-0.6,1.8-0.6c0.3,0,0.6,0,0.9,0.1l0,1.2
		c-0.2,0-0.4-0.1-0.6-0.1c-0.7,0-1.1,0.4-1.1,1.1v0.6h1.4v1.1h-1.4v5.7H156.3z"/>
	<path class="st0" d="M160.4,468.8c0-0.2,0.1-0.4,0.2-0.6s0.4-0.2,0.6-0.2s0.5,0.1,0.6,0.2s0.2,0.4,0.2,0.6c0,0.2-0.1,0.4-0.2,0.6
		s-0.4,0.2-0.6,0.2s-0.5-0.1-0.6-0.2S160.4,469.1,160.4,468.8z M162,477.5h-1.5v-6.9h1.5V477.5z"/>
	<path class="st0" d="M167.3,472c-0.2,0-0.4-0.1-0.6-0.1c-0.7,0-1.2,0.3-1.4,0.8v4.7h-1.5v-6.9h1.5l0,0.8c0.4-0.6,0.9-0.9,1.5-0.9
		c0.2,0,0.4,0,0.5,0.1L167.3,472z"/>
	<path class="st0" d="M172.1,475.6c0-0.3-0.1-0.5-0.3-0.6c-0.2-0.1-0.6-0.3-1.1-0.4c-0.5-0.1-1-0.2-1.3-0.4
		c-0.8-0.4-1.2-0.9-1.2-1.6c0-0.6,0.2-1.1,0.7-1.5c0.5-0.4,1.1-0.6,1.9-0.6c0.8,0,1.5,0.2,2,0.6c0.5,0.4,0.8,0.9,0.8,1.6h-1.5
		c0-0.3-0.1-0.5-0.3-0.7c-0.2-0.2-0.5-0.3-0.9-0.3c-0.3,0-0.6,0.1-0.8,0.2c-0.2,0.2-0.3,0.4-0.3,0.6c0,0.2,0.1,0.4,0.3,0.6
		c0.2,0.1,0.6,0.3,1.2,0.4c0.6,0.1,1.1,0.3,1.4,0.5c0.3,0.2,0.6,0.4,0.8,0.7c0.2,0.3,0.3,0.6,0.3,0.9c0,0.6-0.3,1.1-0.8,1.5
		c-0.5,0.4-1.2,0.6-2,0.6c-0.6,0-1.1-0.1-1.5-0.3c-0.4-0.2-0.8-0.5-1-0.8c-0.2-0.4-0.4-0.7-0.4-1.1h1.5c0,0.4,0.2,0.6,0.4,0.8
		c0.3,0.2,0.6,0.3,1,0.3c0.4,0,0.7-0.1,0.9-0.2C172,476.1,172.1,475.9,172.1,475.6z"/>
	<path class="st0" d="M176.9,468.9v1.7h1.2v1.1h-1.2v3.8c0,0.3,0.1,0.5,0.2,0.6c0.1,0.1,0.3,0.2,0.6,0.2c0.2,0,0.4,0,0.5-0.1v1.2
		c-0.4,0.1-0.7,0.1-1,0.1c-1.2,0-1.8-0.7-1.8-2v-3.9h-1.1v-1.1h1.1v-1.7H176.9z"/>
	<path class="st0" d="M186.6,477.5h-1.5V470l-2.3,0.8v-1.3l3.6-1.3h0.2V477.5z"/>
	<path class="st0" d="M195.1,474.2h1.1v1.2h-1.1v2.1h-1.5v-2.1h-4l0-0.9l4-6.2h1.6V474.2z M191.1,474.2h2.4v-3.9l-0.1,0.2
		L191.1,474.2z"/>
	<path class="st0" d="M200.3,474c0-1.1,0.2-1.9,0.7-2.5c0.5-0.6,1.1-1,2-1c0.7,0,1.3,0.3,1.8,0.8v-3.5h1.5v9.8h-1.4l-0.1-0.7
		c-0.5,0.6-1.1,0.8-1.8,0.8c-0.8,0-1.5-0.3-2-1C200.5,476,200.3,475.1,200.3,474z M201.8,474.1c0,0.7,0.1,1.2,0.4,1.6
		s0.7,0.6,1.1,0.6c0.6,0,1.1-0.3,1.4-0.8v-2.9c-0.3-0.6-0.7-0.8-1.4-0.8c-0.5,0-0.9,0.2-1.2,0.6S201.8,473.3,201.8,474.1z"/>
	<path class="st0" d="M212,477.5c-0.1-0.1-0.1-0.3-0.2-0.6c-0.5,0.5-1.1,0.8-1.8,0.8c-0.7,0-1.3-0.2-1.7-0.6
		c-0.4-0.4-0.7-0.9-0.7-1.5c0-0.7,0.3-1.3,0.8-1.7s1.3-0.6,2.3-0.6h0.9v-0.5c0-0.4-0.1-0.6-0.3-0.9s-0.5-0.3-0.9-0.3
		c-0.4,0-0.6,0.1-0.9,0.3c-0.2,0.2-0.3,0.4-0.3,0.7h-1.5c0-0.4,0.1-0.7,0.4-1.1s0.6-0.6,1-0.8s0.9-0.3,1.4-0.3
		c0.8,0,1.4,0.2,1.9,0.6s0.7,1,0.7,1.7v3.1c0,0.6,0.1,1.1,0.3,1.5v0.1H212z M210.3,476.4c0.3,0,0.6-0.1,0.9-0.2s0.5-0.3,0.6-0.6
		v-1.3H211c-0.6,0-1,0.1-1.3,0.3c-0.3,0.2-0.4,0.5-0.4,0.8c0,0.3,0.1,0.5,0.3,0.7C209.7,476.3,210,476.4,210.3,476.4z"/>
	<path class="st0" d="M217.3,475.3l1.4-4.7h1.6l-2.7,7.9c-0.4,1.2-1.1,1.7-2.1,1.7c-0.2,0-0.5,0-0.7-0.1v-1.2l0.3,0
		c0.4,0,0.7-0.1,0.9-0.2c0.2-0.1,0.4-0.4,0.5-0.7l0.2-0.6l-2.4-6.8h1.7L217.3,475.3z"/>
	<path class="st0" d="M225,475.6c0-0.3-0.1-0.5-0.3-0.6c-0.2-0.1-0.6-0.3-1.1-0.4c-0.5-0.1-1-0.2-1.3-0.4c-0.8-0.4-1.2-0.9-1.2-1.6
		c0-0.6,0.2-1.1,0.7-1.5c0.5-0.4,1.1-0.6,1.9-0.6c0.8,0,1.5,0.2,2,0.6s0.8,0.9,0.8,1.6H225c0-0.3-0.1-0.5-0.3-0.7
		c-0.2-0.2-0.5-0.3-0.9-0.3c-0.3,0-0.6,0.1-0.8,0.2c-0.2,0.2-0.3,0.4-0.3,0.6c0,0.2,0.1,0.4,0.3,0.6c0.2,0.1,0.6,0.3,1.2,0.4
		c0.6,0.1,1.1,0.3,1.4,0.5c0.3,0.2,0.6,0.4,0.8,0.7c0.2,0.3,0.3,0.6,0.3,0.9c0,0.6-0.3,1.1-0.8,1.5c-0.5,0.4-1.2,0.6-2,0.6
		c-0.6,0-1.1-0.1-1.5-0.3c-0.4-0.2-0.8-0.5-1-0.8c-0.2-0.4-0.4-0.7-0.4-1.1h1.5c0,0.4,0.2,0.6,0.4,0.8c0.3,0.2,0.6,0.3,1,0.3
		c0.4,0,0.7-0.1,0.9-0.2C224.9,476.1,225,475.9,225,475.6z"/>
	<path class="st0" d="M228.8,475.8c0.3,0,0.5,0.1,0.7,0.2c0.2,0.2,0.2,0.4,0.2,0.6c0,0.2-0.1,0.4-0.2,0.6c-0.2,0.2-0.4,0.2-0.7,0.2
		c-0.3,0-0.5-0.1-0.7-0.2c-0.2-0.2-0.2-0.4-0.2-0.6c0-0.2,0.1-0.5,0.2-0.6S228.6,475.8,228.8,475.8z"/>
	<path class="st0" d="M79.3,489.6v3.4h-1.6v-9.2h3.5c1,0,1.9,0.3,2.5,0.8c0.6,0.5,0.9,1.2,0.9,2.1c0,0.9-0.3,1.6-0.9,2.1
		c-0.6,0.5-1.4,0.8-2.5,0.8H79.3z M79.3,488.3h1.9c0.6,0,1-0.1,1.3-0.4s0.5-0.7,0.5-1.2c0-0.5-0.2-0.9-0.5-1.2
		c-0.3-0.3-0.7-0.5-1.3-0.5h-2V488.3z"/>
	<path class="st0" d="M87.5,493.1H86v-9.8h1.5V493.1z"/>
	<path class="st0" d="M93.3,493.1c-0.1-0.1-0.1-0.3-0.2-0.6c-0.5,0.5-1.1,0.8-1.8,0.8c-0.7,0-1.3-0.2-1.7-0.6
		c-0.4-0.4-0.7-0.9-0.7-1.5c0-0.7,0.3-1.3,0.8-1.7c0.5-0.4,1.3-0.6,2.3-0.6h0.9v-0.5c0-0.4-0.1-0.6-0.3-0.9s-0.5-0.3-0.9-0.3
		c-0.4,0-0.6,0.1-0.9,0.3s-0.3,0.4-0.3,0.7h-1.5c0-0.4,0.1-0.7,0.4-1.1s0.6-0.6,1-0.8c0.4-0.2,0.9-0.3,1.4-0.3
		c0.8,0,1.4,0.2,1.9,0.6s0.7,1,0.7,1.7v3.1c0,0.6,0.1,1.1,0.3,1.5v0.1H93.3z M91.6,492c0.3,0,0.6-0.1,0.9-0.2
		c0.3-0.1,0.5-0.3,0.6-0.6v-1.3h-0.8c-0.6,0-1,0.1-1.3,0.3c-0.3,0.2-0.4,0.5-0.4,0.8c0,0.3,0.1,0.5,0.3,0.7
		C91,491.9,91.3,492,91.6,492z"/>
	<path class="st0" d="M97.6,486.2l0,0.8c0.5-0.6,1.2-0.9,2-0.9c1.4,0,2.2,0.8,2.2,2.5v4.5h-1.5v-4.4c0-0.4-0.1-0.8-0.3-1
		c-0.2-0.2-0.5-0.3-0.9-0.3c-0.6,0-1.1,0.3-1.4,0.8v4.9h-1.5v-6.9H97.6z"/>
	<path class="st0" d="M107.3,491.2c0-0.3-0.1-0.5-0.3-0.6c-0.2-0.1-0.6-0.3-1.1-0.4c-0.5-0.1-1-0.2-1.3-0.4
		c-0.8-0.4-1.2-0.9-1.2-1.6c0-0.6,0.2-1.1,0.7-1.5s1.1-0.6,1.9-0.6c0.8,0,1.5,0.2,2,0.6c0.5,0.4,0.8,0.9,0.8,1.6h-1.5
		c0-0.3-0.1-0.5-0.3-0.7c-0.2-0.2-0.5-0.3-0.9-0.3c-0.3,0-0.6,0.1-0.8,0.2c-0.2,0.2-0.3,0.4-0.3,0.6c0,0.2,0.1,0.4,0.3,0.6
		c0.2,0.1,0.6,0.3,1.2,0.4c0.6,0.1,1.1,0.3,1.4,0.5c0.3,0.2,0.6,0.4,0.8,0.7c0.2,0.3,0.3,0.6,0.3,0.9c0,0.6-0.3,1.1-0.8,1.5
		s-1.2,0.6-2,0.6c-0.6,0-1.1-0.1-1.5-0.3s-0.8-0.5-1-0.8s-0.4-0.7-0.4-1.1h1.5c0,0.4,0.2,0.6,0.4,0.8c0.3,0.2,0.6,0.3,1,0.3
		c0.4,0,0.7-0.1,0.9-0.2S107.3,491.5,107.3,491.2z"/>
	<path class="st0" d="M117.2,491.2c0-0.3-0.1-0.5-0.3-0.6c-0.2-0.1-0.6-0.3-1.1-0.4c-0.5-0.1-1-0.2-1.3-0.4
		c-0.8-0.4-1.2-0.9-1.2-1.6c0-0.6,0.2-1.1,0.7-1.5s1.1-0.6,1.9-0.6c0.8,0,1.5,0.2,2,0.6c0.5,0.4,0.8,0.9,0.8,1.6h-1.5
		c0-0.3-0.1-0.5-0.3-0.7c-0.2-0.2-0.5-0.3-0.9-0.3c-0.3,0-0.6,0.1-0.8,0.2c-0.2,0.2-0.3,0.4-0.3,0.6c0,0.2,0.1,0.4,0.3,0.6
		c0.2,0.1,0.6,0.3,1.2,0.4c0.6,0.1,1.1,0.3,1.4,0.5c0.3,0.2,0.6,0.4,0.8,0.7c0.2,0.3,0.3,0.6,0.3,0.9c0,0.6-0.3,1.1-0.8,1.5
		s-1.2,0.6-2,0.6c-0.6,0-1.1-0.1-1.5-0.3s-0.8-0.5-1-0.8s-0.4-0.7-0.4-1.1h1.5c0,0.4,0.2,0.6,0.4,0.8c0.3,0.2,0.6,0.3,1,0.3
		c0.4,0,0.7-0.1,0.9-0.2S117.2,491.5,117.2,491.2z"/>
	<path class="st0" d="M122,484.5v1.7h1.2v1.1H122v3.8c0,0.3,0.1,0.5,0.2,0.6c0.1,0.1,0.3,0.2,0.6,0.2c0.2,0,0.4,0,0.5-0.1v1.2
		c-0.4,0.1-0.7,0.1-1,0.1c-1.2,0-1.8-0.7-1.8-2v-3.9h-1.1v-1.1h1.1v-1.7H122z"/>
	<path class="st0" d="M128.5,493.1c-0.1-0.1-0.1-0.3-0.2-0.6c-0.5,0.5-1.1,0.8-1.8,0.8c-0.7,0-1.3-0.2-1.7-0.6
		c-0.4-0.4-0.7-0.9-0.7-1.5c0-0.7,0.3-1.3,0.8-1.7c0.5-0.4,1.3-0.6,2.3-0.6h0.9v-0.5c0-0.4-0.1-0.6-0.3-0.9s-0.5-0.3-0.9-0.3
		c-0.4,0-0.6,0.1-0.9,0.3s-0.3,0.4-0.3,0.7h-1.5c0-0.4,0.1-0.7,0.4-1.1s0.6-0.6,1-0.8c0.4-0.2,0.9-0.3,1.4-0.3
		c0.8,0,1.4,0.2,1.9,0.6s0.7,1,0.7,1.7v3.1c0,0.6,0.1,1.1,0.3,1.5v0.1H128.5z M126.8,492c0.3,0,0.6-0.1,0.9-0.2
		c0.3-0.1,0.5-0.3,0.6-0.6v-1.3h-0.8c-0.6,0-1,0.1-1.3,0.3c-0.3,0.2-0.4,0.5-0.4,0.8c0,0.3,0.1,0.5,0.3,0.7
		C126.2,491.9,126.5,492,126.8,492z"/>
	<path class="st0" d="M135,487.6c-0.2,0-0.4-0.1-0.6-0.1c-0.7,0-1.2,0.3-1.4,0.8v4.7h-1.5v-6.9h1.5l0,0.8c0.4-0.6,0.9-0.9,1.5-0.9
		c0.2,0,0.4,0,0.5,0.1L135,487.6z"/>
	<path class="st0" d="M138.3,484.5v1.7h1.2v1.1h-1.2v3.8c0,0.3,0.1,0.5,0.2,0.6c0.1,0.1,0.3,0.2,0.6,0.2c0.2,0,0.4,0,0.5-0.1v1.2
		c-0.4,0.1-0.7,0.1-1,0.1c-1.2,0-1.8-0.7-1.8-2v-3.9h-1.1v-1.1h1.1v-1.7H138.3z"/>
	<path class="st0" d="M140.7,484.4c0-0.2,0.1-0.4,0.2-0.6c0.2-0.2,0.4-0.2,0.6-0.2s0.5,0.1,0.6,0.2s0.2,0.4,0.2,0.6
		c0,0.2-0.1,0.4-0.2,0.6s-0.4,0.2-0.6,0.2s-0.5-0.1-0.6-0.2C140.7,484.8,140.7,484.7,140.7,484.4z M142.3,493.1h-1.5v-6.9h1.5V493.1
		z"/>
	<path class="st0" d="M145.4,486.2l0,0.8c0.5-0.6,1.2-0.9,2-0.9c1.4,0,2.2,0.8,2.2,2.5v4.5h-1.5v-4.4c0-0.4-0.1-0.8-0.3-1
		c-0.2-0.2-0.5-0.3-0.9-0.3c-0.6,0-1.1,0.3-1.4,0.8v4.9H144v-6.9H145.4z"/>
	<path class="st0" d="M150.9,489.6c0-1.1,0.3-1.9,0.8-2.6c0.5-0.6,1.2-1,2-1c0.8,0,1.4,0.3,1.8,0.8l0.1-0.7h1.4v6.7
		c0,0.9-0.3,1.6-0.8,2.1c-0.6,0.5-1.3,0.8-2.3,0.8c-0.5,0-1-0.1-1.5-0.3c-0.5-0.2-0.8-0.5-1.1-0.8l0.7-0.9c0.5,0.6,1.1,0.8,1.8,0.8
		c0.5,0,0.9-0.1,1.2-0.4c0.3-0.3,0.4-0.7,0.4-1.2v-0.5c-0.4,0.5-1,0.7-1.8,0.7c-0.8,0-1.5-0.3-2-1
		C151.2,491.6,150.9,490.7,150.9,489.6z M152.5,489.7c0,0.7,0.1,1.2,0.4,1.6c0.3,0.4,0.7,0.6,1.2,0.6c0.6,0,1.1-0.3,1.4-0.8v-3
		c-0.3-0.5-0.7-0.8-1.4-0.8c-0.5,0-0.9,0.2-1.2,0.6C152.6,488.3,152.5,488.9,152.5,489.7z"/>
	<path class="st0" d="M165.9,493.1c-0.1-0.1-0.1-0.3-0.2-0.6c-0.5,0.5-1.1,0.8-1.8,0.8c-0.7,0-1.3-0.2-1.7-0.6
		c-0.4-0.4-0.7-0.9-0.7-1.5c0-0.7,0.3-1.3,0.8-1.7s1.3-0.6,2.3-0.6h0.9v-0.5c0-0.4-0.1-0.6-0.3-0.9c-0.2-0.2-0.5-0.3-0.9-0.3
		c-0.4,0-0.6,0.1-0.9,0.3c-0.2,0.2-0.3,0.4-0.3,0.7h-1.5c0-0.4,0.1-0.7,0.4-1.1c0.2-0.3,0.6-0.6,1-0.8s0.9-0.3,1.4-0.3
		c0.8,0,1.4,0.2,1.9,0.6c0.5,0.4,0.7,1,0.7,1.7v3.1c0,0.6,0.1,1.1,0.3,1.5v0.1H165.9z M164.2,492c0.3,0,0.6-0.1,0.9-0.2
		c0.3-0.1,0.5-0.3,0.6-0.6v-1.3h-0.8c-0.6,0-1,0.1-1.3,0.3c-0.3,0.2-0.4,0.5-0.4,0.8c0,0.3,0.1,0.5,0.3,0.7
		C163.6,491.9,163.9,492,164.2,492z"/>
	<path class="st0" d="M170.8,484.5v1.7h1.2v1.1h-1.2v3.8c0,0.3,0.1,0.5,0.2,0.6c0.1,0.1,0.3,0.2,0.6,0.2c0.2,0,0.4,0,0.5-0.1v1.2
		c-0.4,0.1-0.7,0.1-1,0.1c-1.2,0-1.8-0.7-1.8-2v-3.9h-1.1v-1.1h1.1v-1.7H170.8z"/>
	<path class="st0" d="M180.8,490.7c0-0.4-0.1-0.7-0.3-0.9c-0.2-0.2-0.6-0.4-1.1-0.6s-0.9-0.4-1.2-0.5c-1-0.5-1.5-1.3-1.5-2.3
		c0-0.7,0.2-1.3,0.6-1.7c0.4-0.5,1-0.7,1.7-0.8v-1.4h1v1.4c0.7,0.1,1.3,0.4,1.7,0.9c0.4,0.5,0.6,1.2,0.6,2h-1.5c0-0.5-0.1-1-0.4-1.3
		c-0.2-0.3-0.6-0.5-1-0.5c-0.4,0-0.7,0.1-1,0.3s-0.3,0.5-0.3,0.9c0,0.4,0.1,0.7,0.3,0.9c0.2,0.2,0.6,0.4,1.2,0.6
		c0.5,0.2,1,0.4,1.3,0.6c0.3,0.2,0.6,0.4,0.8,0.6c0.2,0.2,0.4,0.5,0.5,0.8c0.1,0.3,0.2,0.6,0.2,1c0,0.7-0.2,1.3-0.7,1.7
		c-0.4,0.4-1,0.7-1.8,0.8v1.2h-1v-1.2c-0.8-0.1-1.5-0.4-1.9-0.9c-0.5-0.5-0.7-1.2-0.7-2h1.5c0,0.5,0.1,0.9,0.4,1.2
		c0.3,0.3,0.6,0.4,1.1,0.4c0.5,0,0.8-0.1,1.1-0.3S180.8,491,180.8,490.7z"/>
	<path class="st0" d="M188.1,489.2c-0.5,0.5-1.1,0.8-1.8,0.8c-0.8,0-1.5-0.3-1.9-0.9s-0.7-1.3-0.7-2.2c0-0.6,0.1-1.2,0.4-1.7
		c0.2-0.5,0.6-0.9,1-1.2c0.5-0.3,1-0.4,1.6-0.4c0.9,0,1.7,0.3,2.2,1s0.8,1.6,0.8,2.8v0.4c0,1.7-0.4,2.9-1.1,3.8
		c-0.8,0.9-1.9,1.3-3.4,1.3h-0.2v-1.3h0.2c0.9,0,1.6-0.2,2.1-0.7C187.7,490.8,188,490.1,188.1,489.2z M186.6,488.8
		c0.3,0,0.6-0.1,0.9-0.3c0.3-0.2,0.5-0.4,0.6-0.7v-0.6c0-0.7-0.1-1.2-0.4-1.6s-0.6-0.6-1.1-0.6s-0.8,0.2-1.1,0.5s-0.4,0.8-0.4,1.4
		c0,0.6,0.1,1,0.4,1.4S186.1,488.8,186.6,488.8z"/>
	<path class="st0" d="M192.2,491.4c0.3,0,0.5,0.1,0.7,0.2c0.2,0.2,0.2,0.4,0.2,0.6c0,0.2-0.1,0.4-0.2,0.6c-0.2,0.2-0.4,0.2-0.7,0.2
		c-0.3,0-0.5-0.1-0.7-0.2c-0.2-0.2-0.2-0.4-0.2-0.6c0-0.2,0.1-0.5,0.2-0.6S191.9,491.4,192.2,491.4z"/>
	<path class="st0" d="M199.1,489.2c-0.5,0.5-1.1,0.8-1.8,0.8c-0.8,0-1.5-0.3-1.9-0.9s-0.7-1.3-0.7-2.2c0-0.6,0.1-1.2,0.4-1.7
		c0.2-0.5,0.6-0.9,1-1.2c0.5-0.3,1-0.4,1.6-0.4c0.9,0,1.7,0.3,2.2,1c0.5,0.7,0.8,1.6,0.8,2.8v0.4c0,1.7-0.4,2.9-1.1,3.8
		s-1.9,1.3-3.4,1.3H196v-1.3h0.2c0.9,0,1.6-0.2,2.1-0.7C198.8,490.8,199,490.1,199.1,489.2z M197.6,488.8c0.3,0,0.6-0.1,0.9-0.3
		c0.3-0.2,0.5-0.4,0.6-0.7v-0.6c0-0.7-0.1-1.2-0.4-1.6s-0.6-0.6-1.1-0.6c-0.4,0-0.8,0.2-1.1,0.5s-0.4,0.8-0.4,1.4
		c0,0.6,0.1,1,0.4,1.4S197.2,488.8,197.6,488.8z"/>
	<path class="st0" d="M206.5,489.2c-0.5,0.5-1.1,0.8-1.8,0.8c-0.8,0-1.5-0.3-1.9-0.9s-0.7-1.3-0.7-2.2c0-0.6,0.1-1.2,0.4-1.7
		c0.2-0.5,0.6-0.9,1-1.2c0.5-0.3,1-0.4,1.6-0.4c0.9,0,1.7,0.3,2.2,1c0.5,0.7,0.8,1.6,0.8,2.8v0.4c0,1.7-0.4,2.9-1.1,3.8
		s-1.9,1.3-3.4,1.3h-0.2v-1.3h0.2c0.9,0,1.6-0.2,2.1-0.7C206.2,490.8,206.4,490.1,206.5,489.2z M205,488.8c0.3,0,0.6-0.1,0.9-0.3
		c0.3-0.2,0.5-0.4,0.6-0.7v-0.6c0-0.7-0.1-1.2-0.4-1.6s-0.6-0.6-1.1-0.6c-0.4,0-0.8,0.2-1.1,0.5s-0.4,0.8-0.4,1.4
		c0,0.6,0.1,1,0.4,1.4S204.6,488.8,205,488.8z"/>
	<path class="st0" d="M214.8,484.5v1.7h1.2v1.1h-1.2v3.8c0,0.3,0.1,0.5,0.2,0.6s0.3,0.2,0.6,0.2c0.2,0,0.4,0,0.5-0.1v1.2
		c-0.4,0.1-0.7,0.1-1,0.1c-1.2,0-1.8-0.7-1.8-2v-3.9h-1.1v-1.1h1.1v-1.7H214.8z"/>
	<path class="st0" d="M216.7,489.6c0-0.7,0.1-1.3,0.4-1.8c0.3-0.5,0.6-1,1.1-1.2s1-0.4,1.7-0.4c0.9,0,1.7,0.3,2.3,0.9
		c0.6,0.6,0.9,1.4,0.9,2.4l0,0.4c0,0.7-0.1,1.3-0.4,1.8c-0.3,0.5-0.6,0.9-1.1,1.2c-0.5,0.3-1,0.4-1.7,0.4c-1,0-1.7-0.3-2.3-1
		S216.7,490.7,216.7,489.6L216.7,489.6z M218.2,489.7c0,0.7,0.1,1.3,0.4,1.7c0.3,0.4,0.7,0.6,1.2,0.6c0.5,0,0.9-0.2,1.2-0.6
		s0.4-1,0.4-1.8c0-0.7-0.1-1.2-0.4-1.7c-0.3-0.4-0.7-0.6-1.2-0.6c-0.5,0-0.9,0.2-1.2,0.6C218.4,488.3,218.2,488.9,218.2,489.7z"/>
	<path class="st0" d="M112,506.3c0-0.4-0.1-0.7-0.3-0.9c-0.2-0.2-0.6-0.4-1.1-0.6s-0.9-0.4-1.2-0.5c-1-0.5-1.5-1.3-1.5-2.3
		c0-0.7,0.2-1.3,0.6-1.7s1-0.7,1.7-0.8v-1.4h1v1.4c0.7,0.1,1.3,0.4,1.7,0.9s0.6,1.2,0.6,2h-1.5c0-0.5-0.1-1-0.4-1.3
		c-0.2-0.3-0.6-0.5-1-0.5c-0.4,0-0.7,0.1-1,0.3s-0.3,0.5-0.3,0.9c0,0.4,0.1,0.7,0.3,0.9c0.2,0.2,0.6,0.4,1.2,0.6s1,0.4,1.3,0.6
		c0.3,0.2,0.6,0.4,0.8,0.6s0.4,0.5,0.5,0.8c0.1,0.3,0.2,0.6,0.2,1c0,0.7-0.2,1.3-0.7,1.7c-0.4,0.4-1,0.7-1.8,0.8v1.2h-1v-1.2
		c-0.8-0.1-1.5-0.4-1.9-0.9c-0.5-0.5-0.7-1.2-0.7-2h1.5c0,0.5,0.1,0.9,0.4,1.2c0.3,0.3,0.6,0.4,1.1,0.4c0.5,0,0.8-0.1,1.1-0.3
		C111.8,507,112,506.6,112,506.3z"/>
	<path class="st0" d="M121,508.7h-6.2v-1.1l3.1-3.4c0.4-0.5,0.8-0.9,0.9-1.2c0.2-0.3,0.3-0.7,0.3-1c0-0.4-0.1-0.8-0.4-1.1
		c-0.2-0.3-0.6-0.4-1-0.4c-0.5,0-0.9,0.2-1.2,0.5s-0.4,0.7-0.4,1.2h-1.5c0-0.6,0.1-1.1,0.4-1.5c0.3-0.5,0.6-0.8,1.1-1
		c0.5-0.2,1-0.4,1.6-0.4c0.9,0,1.6,0.2,2.1,0.7c0.5,0.5,0.8,1.1,0.8,1.9c0,0.5-0.1,0.9-0.4,1.5c-0.3,0.5-0.7,1.1-1.3,1.7l-2.3,2.4
		h4.3V508.7z"/>
	<path class="st0" d="M127.4,505.4h1.1v1.2h-1.1v2.1h-1.5v-2.1h-4l0-0.9l4-6.2h1.6V505.4z M123.5,505.4h2.4v-3.9l-0.1,0.2
		L123.5,505.4z"/>
	<path class="st0" d="M130.7,507c0.3,0,0.5,0.1,0.7,0.2s0.2,0.4,0.2,0.6c0,0.2-0.1,0.4-0.2,0.6c-0.2,0.2-0.4,0.2-0.7,0.2
		c-0.3,0-0.5-0.1-0.7-0.2s-0.2-0.4-0.2-0.6c0-0.2,0.1-0.5,0.2-0.6S130.4,507,130.7,507z"/>
	<path class="st0" d="M137.6,504.8c-0.5,0.5-1.1,0.8-1.8,0.8c-0.8,0-1.5-0.3-1.9-0.9s-0.7-1.3-0.7-2.2c0-0.6,0.1-1.2,0.4-1.7
		c0.2-0.5,0.6-0.9,1-1.2c0.5-0.3,1-0.4,1.6-0.4c0.9,0,1.7,0.3,2.2,1s0.8,1.6,0.8,2.8v0.4c0,1.7-0.4,2.9-1.1,3.8s-1.9,1.3-3.4,1.3
		h-0.2v-1.3h0.2c0.9,0,1.6-0.2,2.1-0.7C137.3,506.4,137.6,505.7,137.6,504.8z M136.1,504.4c0.3,0,0.6-0.1,0.9-0.3s0.5-0.4,0.6-0.7
		v-0.6c0-0.7-0.1-1.2-0.4-1.6s-0.6-0.6-1.1-0.6s-0.8,0.2-1.1,0.5c-0.3,0.4-0.4,0.8-0.4,1.4c0,0.6,0.1,1,0.4,1.4
		S135.7,504.4,136.1,504.4z"/>
	<path class="st0" d="M145,504.8c-0.5,0.5-1.1,0.8-1.8,0.8c-0.8,0-1.5-0.3-1.9-0.9s-0.7-1.3-0.7-2.2c0-0.6,0.1-1.2,0.4-1.7
		c0.2-0.5,0.6-0.9,1-1.2c0.5-0.3,1-0.4,1.6-0.4c0.9,0,1.7,0.3,2.2,1s0.8,1.6,0.8,2.8v0.4c0,1.7-0.4,2.9-1.1,3.8s-1.9,1.3-3.4,1.3
		h-0.2v-1.3h0.2c0.9,0,1.6-0.2,2.1-0.7C144.7,506.4,144.9,505.7,145,504.8z M143.5,504.4c0.3,0,0.6-0.1,0.9-0.3s0.5-0.4,0.6-0.7
		v-0.6c0-0.7-0.1-1.2-0.4-1.6s-0.6-0.6-1.1-0.6s-0.8,0.2-1.1,0.5c-0.3,0.4-0.4,0.8-0.4,1.4c0,0.6,0.1,1,0.4,1.4
		S143.1,504.4,143.5,504.4z"/>
	<path class="st0" d="M148.6,509.5h-1.2l3.6-10h1.2L148.6,509.5z"/>
	<path class="st0" d="M154.7,501.8l0,0.7c0.5-0.6,1.1-0.8,2-0.8c0.9,0,1.5,0.4,1.9,1.1c0.5-0.7,1.2-1.1,2.1-1.1
		c0.8,0,1.3,0.2,1.7,0.6c0.4,0.4,0.6,1,0.6,1.9v4.5h-1.5v-4.5c0-0.4-0.1-0.8-0.3-1s-0.5-0.3-0.9-0.3c-0.4,0-0.6,0.1-0.9,0.3
		c-0.2,0.2-0.4,0.4-0.5,0.7l0,4.7h-1.5v-4.5c0-0.8-0.4-1.2-1.2-1.2c-0.6,0-1.1,0.3-1.3,0.8v5h-1.5v-6.9H154.7z"/>
	<path class="st0" d="M164.3,505.2c0-0.7,0.1-1.3,0.4-1.8c0.3-0.5,0.6-1,1.1-1.2s1-0.4,1.7-0.4c0.9,0,1.7,0.3,2.3,0.9
		c0.6,0.6,0.9,1.4,0.9,2.4l0,0.4c0,0.7-0.1,1.3-0.4,1.8c-0.3,0.5-0.6,0.9-1.1,1.2c-0.5,0.3-1,0.4-1.7,0.4c-1,0-1.7-0.3-2.3-1
		C164.6,507.2,164.3,506.3,164.3,505.2L164.3,505.2z M165.8,505.3c0,0.7,0.1,1.3,0.4,1.7c0.3,0.4,0.7,0.6,1.2,0.6s0.9-0.2,1.2-0.6
		c0.3-0.4,0.4-1,0.4-1.8c0-0.7-0.1-1.2-0.4-1.7c-0.3-0.4-0.7-0.6-1.2-0.6c-0.5,0-0.9,0.2-1.2,0.6C166,503.9,165.8,504.5,165.8,505.3
		z"/>
	<path class="st0" d="M173.4,501.8l0,0.8c0.5-0.6,1.2-0.9,2-0.9c1.4,0,2.2,0.8,2.2,2.5v4.5h-1.5v-4.4c0-0.4-0.1-0.8-0.3-1
		c-0.2-0.2-0.5-0.3-0.9-0.3c-0.6,0-1.1,0.3-1.4,0.8v4.9H172v-6.9H173.4z"/>
	<path class="st0" d="M181.1,500.1v1.7h1.2v1.1h-1.2v3.8c0,0.3,0.1,0.5,0.2,0.6c0.1,0.1,0.3,0.2,0.6,0.2c0.2,0,0.4,0,0.5-0.1v1.2
		c-0.4,0.1-0.7,0.1-1,0.1c-1.2,0-1.8-0.7-1.8-2v-3.9h-1.1v-1.1h1.1v-1.7H181.1z"/>
	<path class="st0" d="M185,502.6c0.5-0.6,1.1-0.9,1.9-0.9c1.5,0,2.2,0.8,2.2,2.5v4.5h-1.5v-4.4c0-0.5-0.1-0.8-0.3-1
		c-0.2-0.2-0.5-0.3-0.9-0.3c-0.6,0-1.1,0.3-1.4,0.8v4.9h-1.5v-9.8h1.5V502.6z"/>
	<path class="st0" d="M191.7,507c0.3,0,0.5,0.1,0.7,0.2c0.2,0.2,0.2,0.4,0.2,0.6c0,0.2-0.1,0.4-0.2,0.6c-0.2,0.2-0.4,0.2-0.7,0.2
		c-0.3,0-0.5-0.1-0.7-0.2c-0.2-0.2-0.2-0.4-0.2-0.6c0-0.2,0.1-0.5,0.2-0.6C191.2,507.1,191.4,507,191.7,507z"/>
</g>
</svg>
