<?xml version="1.0" encoding="utf-8"?>
<!-- Generator: Adobe Illustrator 26.3.1, SVG Export Plug-In . SVG Version: 6.00 Build 0)  -->
<svg version="1.1" id="Layer_1" xmlns="http://www.w3.org/2000/svg" xmlns:xlink="http://www.w3.org/1999/xlink" x="0px" y="0px"
	 viewBox="0 0 300 600" style="enable-background:new 0 0 300 600;" xml:space="preserve">
<style type="text/css">
	.st0{fill:#E82D8A;stroke:#FFFFFF;stroke-width:0.75;stroke-miterlimit:10;}
	.st1{fill:#FFFFFF;}
</style>
<path class="st0" d="M213.7,448.6H86.6c-22.2,0-40.1-18-40.1-40.1v0c0-22.2,18-40.1,40.1-40.1h127.1c22.2,0,40.1,18,40.1,40.1v0
	C253.8,430.6,235.9,448.6,213.7,448.6z"/>
<g>
	<path class="st1" d="M121.5,397.5c-0.1,2.1-0.9,3.7-2.3,4.8s-3.2,1.8-5.4,1.8c-2.4,0-4.4-0.8-5.8-2.5c-1.4-1.6-2.1-3.9-2.1-6.8
		v-1.2c0-1.8,0.3-3.4,1-4.8c0.6-1.4,1.6-2.5,2.8-3.2c1.2-0.7,2.6-1.1,4.2-1.1c2.2,0,4,0.6,5.3,1.8c1.3,1.2,2.1,2.8,2.3,5h-3.9
		c-0.1-1.2-0.4-2.1-1-2.7c-0.6-0.6-1.5-0.8-2.7-0.8c-1.3,0-2.3,0.5-2.9,1.4s-1,2.4-1,4.4v1.4c0,2.1,0.3,3.6,0.9,4.5
		c0.6,1,1.6,1.4,3,1.4c1.2,0,2.1-0.3,2.7-0.8c0.6-0.6,0.9-1.4,1-2.6H121.5z"/>
	<path class="st1" d="M127.9,403.8h-3.8v-20.1h3.8V403.8z"/>
	<path class="st1" d="M131,386c0-0.6,0.2-1,0.6-1.4c0.4-0.4,0.9-0.5,1.6-0.5c0.6,0,1.2,0.2,1.5,0.5c0.4,0.4,0.6,0.8,0.6,1.4
		c0,0.6-0.2,1-0.6,1.4c-0.4,0.4-0.9,0.5-1.5,0.5c-0.6,0-1.2-0.2-1.5-0.5C131.2,387.1,131,386.6,131,386z M135,403.8h-3.8v-14.2h3.8
		V403.8z"/>
	<path class="st1" d="M144,401.1c0.7,0,1.3-0.2,1.7-0.6c0.4-0.4,0.7-0.9,0.7-1.5h3.5c0,1-0.3,1.8-0.8,2.6c-0.5,0.8-1.2,1.4-2.1,1.9
		c-0.9,0.4-1.9,0.7-3,0.7c-2,0-3.6-0.6-4.8-1.9c-1.2-1.3-1.8-3.1-1.8-5.3v-0.2c0-2.2,0.6-3.9,1.7-5.2s2.8-2,4.8-2
		c1.8,0,3.2,0.5,4.3,1.5c1.1,1,1.6,2.4,1.6,4h-3.5c0-0.7-0.2-1.3-0.7-1.8s-1-0.7-1.7-0.7c-0.9,0-1.5,0.3-2,1
		c-0.5,0.6-0.7,1.7-0.7,3.1v0.4c0,1.5,0.2,2.5,0.7,3.1C142.4,400.7,143.1,401.1,144,401.1z"/>
	<path class="st1" d="M157.2,398.2l-1.4,1.4v4.3h-3.8v-20.1h3.8v11.1l0.7-0.9l3.6-4.3h4.5l-5.1,5.9l5.6,8.3h-4.3L157.2,398.2z"/>
	<path class="st1" d="M177.6,386.2v3.5h2.4v2.8h-2.4v7.1c0,0.5,0.1,0.9,0.3,1.1c0.2,0.2,0.6,0.3,1.2,0.3c0.4,0,0.8,0,1.1-0.1v2.9
		c-0.7,0.2-1.5,0.3-2.3,0.3c-2.7,0-4-1.3-4.1-4v-7.6h-2.1v-2.8h2.1v-3.5H177.6z"/>
	<path class="st1" d="M181.2,396.6c0-1.4,0.3-2.7,0.8-3.8c0.5-1.1,1.3-2,2.3-2.6c1-0.6,2.2-0.9,3.5-0.9c1.9,0,3.5,0.6,4.7,1.8
		c1.2,1.2,1.9,2.8,2,4.8l0,1c0,2.2-0.6,3.9-1.8,5.2c-1.2,1.3-2.8,2-4.9,2s-3.7-0.7-4.9-2c-1.2-1.3-1.8-3.1-1.8-5.3V396.6z
		 M184.9,396.9c0,1.3,0.3,2.4,0.8,3.1c0.5,0.7,1.2,1.1,2.2,1.1c0.9,0,1.6-0.4,2.1-1.1c0.5-0.7,0.8-1.8,0.8-3.4
		c0-1.3-0.3-2.3-0.8-3.1c-0.5-0.7-1.2-1.1-2.2-1.1c-0.9,0-1.6,0.4-2.1,1.1C185.2,394.3,184.9,395.4,184.9,396.9z"/>
	<path class="st1" d="M90.6,430.8h-3.8v-20.1h3.8V430.8z"/>
	<path class="st1" d="M100.2,431.1c-2.1,0-3.8-0.6-5.1-1.9c-1.3-1.3-2-3-2-5.1v-0.4c0-1.4,0.3-2.7,0.8-3.8c0.5-1.1,1.3-2,2.3-2.6
		c1-0.6,2.2-0.9,3.5-0.9c1.9,0,3.5,0.6,4.6,1.8c1.1,1.2,1.7,3,1.7,5.2v1.5h-9c0.1,0.9,0.5,1.7,1.1,2.2c0.6,0.6,1.4,0.8,2.3,0.8
		c1.5,0,2.6-0.5,3.4-1.6l1.9,2.1c-0.6,0.8-1.3,1.4-2.3,1.9C102.4,430.9,101.4,431.1,100.2,431.1z M99.8,419.5
		c-0.8,0-1.4,0.3-1.8,0.8s-0.8,1.2-0.9,2.2h5.3v-0.3c0-0.8-0.2-1.5-0.7-2C101.2,419.7,100.6,419.5,99.8,419.5z"/>
	<path class="st1" d="M116.4,430.8c-0.2-0.3-0.3-0.8-0.4-1.3c-0.9,1-2.1,1.5-3.6,1.5c-1.4,0-2.5-0.4-3.5-1.2c-0.9-0.8-1.4-1.8-1.4-3
		c0-1.5,0.6-2.7,1.7-3.5c1.1-0.8,2.7-1.2,4.8-1.2h1.7v-0.8c0-0.7-0.2-1.2-0.5-1.6s-0.9-0.6-1.6-0.6c-0.6,0-1.1,0.2-1.5,0.5
		s-0.5,0.7-0.5,1.3h-3.8c0-0.8,0.3-1.6,0.8-2.3c0.5-0.7,1.2-1.2,2.1-1.6c0.9-0.4,2-0.6,3.1-0.6c1.7,0,3.1,0.4,4.2,1.3
		c1,0.9,1.5,2.1,1.5,3.7v6.1c0,1.3,0.2,2.4,0.6,3.1v0.2H116.4z M113.2,428.2c0.6,0,1.1-0.1,1.5-0.4c0.5-0.2,0.8-0.6,1-1v-2.4h-1.4
		c-1.9,0-2.9,0.7-3,2l0,0.2c0,0.5,0.2,0.9,0.5,1.2C112.2,428.1,112.7,428.2,113.2,428.2z"/>
	<path class="st1" d="M130.5,420.2c-0.5-0.1-1-0.1-1.4-0.1c-1.4,0-2.4,0.5-2.8,1.5v9.3h-3.8v-14.2h3.6l0.1,1.7c0.8-1.3,1.8-2,3.2-2
		c0.4,0,0.8,0.1,1.2,0.2L130.5,420.2z"/>
	<path class="st1" d="M135.8,416.7l0.1,1.6c1-1.3,2.4-1.9,4.1-1.9c1.5,0,2.6,0.4,3.4,1.3s1.1,2.2,1.1,4v9.2h-3.8v-9.1
		c0-0.8-0.2-1.4-0.5-1.7c-0.3-0.4-0.9-0.5-1.7-0.5c-1.1,0-1.9,0.5-2.4,1.4v10h-3.8v-14.2H135.8z"/>
	<path class="st1" d="M157.6,416.7l0.1,1.6c1-1.2,2.4-1.8,4.1-1.8c1.8,0,3.1,0.7,3.8,2.2c1-1.4,2.4-2.2,4.3-2.2
		c1.5,0,2.7,0.4,3.4,1.3c0.8,0.9,1.1,2.2,1.1,4v9h-3.8v-9c0-0.8-0.2-1.4-0.5-1.8c-0.3-0.4-0.9-0.6-1.7-0.6c-1.1,0-1.9,0.5-2.4,1.6
		l0,9.7h-3.8v-9c0-0.8-0.2-1.4-0.5-1.8c-0.3-0.4-0.9-0.6-1.7-0.6c-1.1,0-1.9,0.4-2.3,1.3v10H154v-14.2H157.6z"/>
	<path class="st1" d="M176.7,423.6c0-1.4,0.3-2.7,0.8-3.8c0.5-1.1,1.3-2,2.3-2.6c1-0.6,2.2-0.9,3.5-0.9c1.9,0,3.5,0.6,4.7,1.8
		c1.2,1.2,1.9,2.8,2,4.8l0,1c0,2.2-0.6,3.9-1.8,5.2c-1.2,1.3-2.8,2-4.9,2s-3.7-0.7-4.9-2s-1.8-3.1-1.8-5.3V423.6z M180.4,423.9
		c0,1.3,0.3,2.4,0.8,3.1c0.5,0.7,1.2,1.1,2.2,1.1c0.9,0,1.6-0.4,2.1-1.1c0.5-0.7,0.8-1.8,0.8-3.4c0-1.3-0.3-2.3-0.8-3.1
		c-0.5-0.7-1.2-1.1-2.2-1.1c-0.9,0-1.6,0.4-2.1,1.1C180.7,421.3,180.4,422.4,180.4,423.9z"/>
	<path class="st1" d="M200.4,420.2c-0.5-0.1-1-0.1-1.4-0.1c-1.4,0-2.4,0.5-2.8,1.5v9.3h-3.8v-14.2h3.6l0.1,1.7c0.8-1.3,1.8-2,3.2-2
		c0.4,0,0.8,0.1,1.2,0.2L200.4,420.2z"/>
	<path class="st1" d="M208.7,431.1c-2.1,0-3.8-0.6-5.1-1.9c-1.3-1.3-2-3-2-5.1v-0.4c0-1.4,0.3-2.7,0.8-3.8c0.5-1.1,1.3-2,2.3-2.6
		c1-0.6,2.2-0.9,3.5-0.9c1.9,0,3.5,0.6,4.6,1.8c1.1,1.2,1.7,3,1.7,5.2v1.5h-9c0.1,0.9,0.5,1.7,1.1,2.2c0.6,0.6,1.4,0.8,2.3,0.8
		c1.5,0,2.6-0.5,3.4-1.6l1.9,2.1c-0.6,0.8-1.3,1.4-2.3,1.9C211,430.9,209.9,431.1,208.7,431.1z M208.3,419.5c-0.8,0-1.4,0.3-1.8,0.8
		s-0.8,1.2-0.9,2.2h5.3v-0.3c0-0.8-0.2-1.5-0.7-2C209.7,419.7,209.1,419.5,208.3,419.5z"/>
</g>
</svg>
