<?xml version="1.0" encoding="utf-8"?>
<!-- Generator: Adobe Illustrator 25.4.1, SVG Export Plug-In . SVG Version: 6.00 Build 0)  -->
<svg version="1.1" id="Layer_1" xmlns="http://www.w3.org/2000/svg" xmlns:xlink="http://www.w3.org/1999/xlink" x="0px" y="0px"
	 viewBox="0 0 970 250" style="enable-background:new 0 0 970 250;" xml:space="preserve">
<style type="text/css">
	.st0{fill:#2A3380;}
	.st1{fill:url(#SVGID_1_);}
</style>
<g id="PG_x5F_Logo_x5F_W_00000163037804713499684890000015855969171249929344_">
	<path class="st0" d="M446.6,50.1c0-0.2,0.1-0.4,0.2-0.6c0.2-0.2,0.4-0.2,0.6-0.2c0.2,0,0.4,0.1,0.6,0.2c0.2,0.2,0.3,0.4,0.3,0.6
		v9.3c0,0.2-0.1,0.4-0.2,0.6c-0.2,0.2-0.4,0.2-0.6,0.2c-0.2,0-0.4-0.1-0.6-0.2c-0.2-0.2-0.3-0.4-0.3-0.6V50.1z"/>
	<g>
		<g>
			<g>
				<path class="st0" d="M399.8,64.7c-0.7,0.5-1.5,0.8-2.4,0.8c-0.5,0-0.9-0.1-1.2-0.2c-0.3-0.1-0.6-0.2-0.8-0.4
					c-0.2-0.2-0.4-0.4-0.4-0.7c0-0.2,0.1-0.4,0.2-0.6c0.2-0.2,0.4-0.2,0.6-0.2c0.2,0,0.4,0.1,0.5,0.2c0.4,0.2,0.8,0.3,1.2,0.3
					c0.3,0,0.6-0.1,0.9-0.2c0.3-0.1,0.5-0.3,0.7-0.5c0.2-0.2,0.4-0.4,0.5-0.7c0.1-0.3,0.2-0.5,0.2-0.9v-6.3c0-0.2,0.1-0.4,0.2-0.6
					c0.2-0.2,0.4-0.2,0.6-0.2c0.2,0,0.4,0.1,0.6,0.2c0.2,0.2,0.3,0.4,0.3,0.6c0,0,0,5.2,0,6.3C401.5,62.9,400.9,63.9,399.8,64.7z"/>
				<path class="st0" d="M362.3,46.3c0-0.2,0.1-0.4,0.2-0.6c0.2-0.2,0.4-0.2,0.6-0.2c0.2,0,0.4,0.1,0.6,0.2c0.2,0.2,0.3,0.4,0.3,0.6
					v0.6c0,0.2-0.1,0.4-0.2,0.6c-0.2,0.2-0.4,0.2-0.6,0.2c-0.2,0-0.4-0.1-0.6-0.2c-0.2-0.2-0.3-0.4-0.3-0.6V46.3z M362.3,50.1
					c0-0.2,0.1-0.4,0.2-0.6c0.2-0.2,0.4-0.2,0.6-0.2c0.2,0,0.4,0.1,0.6,0.2c0.2,0.2,0.3,0.4,0.3,0.6v9.2c0,0.2-0.1,0.4-0.2,0.6
					c-0.2,0.2-0.4,0.2-0.6,0.2c-0.2,0-0.4-0.1-0.6-0.2c-0.2-0.2-0.3-0.4-0.3-0.6V50.1z"/>
				<g>
					<path class="st0" d="M355.1,50.4c0-0.2,0.1-0.4,0.2-0.6c0.2-0.2,0.3-0.2,0.6-0.2c0.2,0,0.4,0.1,0.5,0.2
						c0.1,0.1,0.2,0.3,0.3,0.5c0.7-0.5,1.5-0.7,2.4-0.7c0.5,0,0.9,0.1,1.2,0.2c0.3,0.1,0.6,0.2,0.8,0.4c0.2,0.2,0.4,0.4,0.4,0.7
						c0,0.2-0.1,0.4-0.2,0.6c-0.2,0.1-0.3,0.2-0.6,0.2c-0.2,0-0.3,0-0.5-0.1c-0.4-0.2-0.7-0.3-1.1-0.3c-0.3,0-0.6,0.1-0.9,0.2
						c-0.3,0.1-0.5,0.3-0.7,0.5c-0.2,0.2-0.4,0.4-0.5,0.7c-0.1,0.3-0.2,0.5-0.2,0.8v6.1c0,0.2-0.1,0.4-0.2,0.6
						c-0.2,0.2-0.3,0.2-0.6,0.2c-0.2,0-0.4-0.1-0.6-0.2c-0.2-0.2-0.2-0.3-0.2-0.6v-6.2V50.4z"/>
				</g>
				<path class="st0" d="M365.1,50.5c0-0.1-0.1-0.2-0.1-0.3c0-0.2,0.1-0.4,0.2-0.6c0.1-0.2,0.3-0.3,0.6-0.3c0.2,0,0.3,0,0.4,0.1
					c0.1,0.1,0.2,0.2,0.3,0.4l3.2,7.5l3.2-7.5c0.1-0.3,0.4-0.5,0.8-0.5c0.2,0,0.4,0.1,0.6,0.3c0.1,0.2,0.2,0.4,0.2,0.6
					c0,0.1,0,0.2-0.1,0.3l-4,9.3c-0.2,0.3-0.4,0.5-0.8,0.5c-0.4,0-0.6-0.2-0.8-0.5L365.1,50.5z"/>
				<path class="st0" d="M374.9,53.2c0-0.5,0.1-1.1,0.3-1.5c0.2-0.5,0.5-0.9,0.9-1.3c0.4-0.4,0.8-0.6,1.3-0.8c0.5-0.2,1-0.3,1.5-0.3
					c0.5,0,1.1,0.1,1.5,0.3c0.5,0.2,0.9,0.5,1.3,0.8c0.4,0.4,0.6,0.8,0.9,1.3c0.2,0.5,0.3,1,0.3,1.5v6.2c0,0.2-0.1,0.4-0.3,0.6
					c-0.2,0.2-0.4,0.2-0.6,0.2c-0.2,0-0.4-0.1-0.5-0.2c-0.2-0.1-0.2-0.3-0.3-0.5c-0.7,0.5-1.4,0.7-2.3,0.7c-0.5,0-1.1-0.1-1.5-0.3
					c-0.5-0.2-0.9-0.5-1.3-0.8c-0.4-0.4-0.6-0.8-0.9-1.3c-0.2-0.5-0.3-1-0.3-1.5V53.2z M376.6,56.3c0,0.3,0.1,0.6,0.2,0.9
					c0.1,0.3,0.3,0.5,0.5,0.7c0.2,0.2,0.4,0.4,0.7,0.5c0.3,0.1,0.6,0.2,0.9,0.2c0.3,0,0.6-0.1,0.9-0.2c0.3-0.1,0.5-0.3,0.7-0.5
					c0.2-0.2,0.4-0.4,0.5-0.7c0.1-0.3,0.2-0.5,0.2-0.9v-3.3c0-0.3-0.1-0.6-0.2-0.9c-0.1-0.3-0.3-0.5-0.5-0.7
					c-0.2-0.2-0.4-0.4-0.7-0.5c-0.3-0.1-0.6-0.2-0.9-0.2c-0.3,0-0.6,0.1-0.9,0.2c-0.3,0.1-0.5,0.3-0.7,0.5c-0.2,0.2-0.4,0.5-0.5,0.7
					c-0.1,0.3-0.2,0.6-0.2,0.9V56.3z"/>
				<path class="st0" d="M384.4,53.2c0-0.6,0.1-1.1,0.3-1.6c0.2-0.5,0.5-0.9,0.9-1.2c0.4-0.4,0.8-0.6,1.3-0.8c0.5-0.2,1-0.3,1.6-0.3
					c0.1,0,0.3,0,0.6,0.1c0.3,0,0.6,0.1,1,0.3c0.4,0.2,0.7,0.4,1.1,0.7c0.4,0.3,0.7,0.8,0.9,1.4c0,0.1,0.1,0.2,0.1,0.3
					c0,0.2-0.1,0.4-0.2,0.6c-0.2,0.2-0.4,0.2-0.6,0.2c-0.2,0-0.3,0-0.5-0.1c-0.1-0.1-0.2-0.2-0.3-0.4c-0.2-0.4-0.5-0.8-0.9-1
					c-0.4-0.2-0.8-0.4-1.2-0.4c-0.3,0-0.6,0.1-0.9,0.2c-0.3,0.1-0.5,0.3-0.7,0.5c-0.2,0.2-0.4,0.5-0.5,0.7c-0.1,0.3-0.2,0.6-0.2,0.9
					v3.2c0,0.3,0.1,0.6,0.2,0.9c0.1,0.3,0.3,0.5,0.5,0.7c0.2,0.2,0.4,0.4,0.7,0.5c0.3,0.1,0.6,0.2,0.9,0.2c0.5,0,0.9-0.1,1.3-0.4
					c0.4-0.2,0.7-0.6,0.9-1c0.1-0.2,0.2-0.3,0.3-0.4c0.1-0.1,0.3-0.1,0.5-0.1c0.2,0,0.4,0.1,0.6,0.3c0.2,0.2,0.2,0.4,0.2,0.6
					c0,0.1,0,0.2-0.1,0.3c-0.3,0.6-0.6,1.1-1.1,1.5c-0.4,0.3-0.8,0.6-1.2,0.7c-0.4,0.1-0.7,0.2-1,0.2c-0.3,0-0.4,0-0.4,0
					c-0.5,0-1.1-0.1-1.5-0.3c-0.5-0.2-0.9-0.5-1.3-0.8c-0.4-0.4-0.6-0.8-0.9-1.3c-0.2-0.5-0.3-1-0.3-1.5V53.2z"/>
				<path class="st0" d="M414.5,50.1c0-0.2,0.1-0.4,0.2-0.6c0.2-0.2,0.4-0.2,0.6-0.2c0.2,0,0.4,0.1,0.6,0.2c0.2,0.2,0.3,0.4,0.3,0.6
					v6.2c0,0.3,0.1,0.6,0.2,0.9c0.1,0.3,0.3,0.5,0.5,0.7c0.2,0.2,0.5,0.4,0.7,0.5c0.3,0.1,0.6,0.2,0.9,0.2c0.3,0,0.6-0.1,0.9-0.2
					c0.3-0.1,0.5-0.3,0.7-0.5c0.2-0.2,0.4-0.5,0.5-0.7c0.1-0.3,0.2-0.6,0.2-0.9v-6.2c0-0.2,0.1-0.4,0.2-0.6c0.2-0.2,0.4-0.2,0.6-0.2
					c0.2,0,0.4,0.1,0.6,0.2c0.2,0.2,0.3,0.4,0.3,0.6v6.2c0,0.5-0.1,1.1-0.3,1.5c-0.2,0.5-0.5,0.9-0.9,1.3c-0.4,0.4-0.8,0.6-1.3,0.8
					c-0.5,0.2-1,0.3-1.5,0.3c-0.6,0-1.1-0.1-1.5-0.3c-0.5-0.2-0.9-0.5-1.3-0.8c-0.4-0.4-0.6-0.8-0.9-1.3c-0.2-0.5-0.3-1-0.3-1.5
					V50.1z"/>
				<path class="st0" d="M424,53.2c0-0.5,0.1-1.1,0.3-1.5c0.2-0.5,0.5-0.9,0.9-1.3c0.4-0.4,0.8-0.6,1.3-0.8c0.5-0.2,1-0.3,1.5-0.3
					c0.5,0,1.1,0.1,1.5,0.3c0.5,0.2,0.9,0.5,1.3,0.8c0.4,0.4,0.6,0.8,0.9,1.3c0.2,0.5,0.3,1,0.3,1.5v6.2c0,0.2-0.1,0.4-0.3,0.6
					c-0.2,0.2-0.4,0.2-0.6,0.2c-0.2,0-0.4-0.1-0.5-0.2c-0.2-0.1-0.2-0.3-0.3-0.5c-0.7,0.5-1.4,0.7-2.3,0.7c-0.5,0-1.1-0.1-1.5-0.3
					c-0.5-0.2-0.9-0.5-1.3-0.8c-0.4-0.4-0.6-0.8-0.9-1.3c-0.2-0.5-0.3-1-0.3-1.5V53.2z M425.7,56.3c0,0.3,0.1,0.6,0.2,0.9
					c0.1,0.3,0.3,0.5,0.5,0.7c0.2,0.2,0.4,0.4,0.7,0.5c0.3,0.1,0.6,0.2,0.9,0.2c0.3,0,0.6-0.1,0.9-0.2c0.3-0.1,0.5-0.3,0.7-0.5
					c0.2-0.2,0.4-0.4,0.5-0.7c0.1-0.3,0.2-0.5,0.2-0.9v-3.3c0-0.3-0.1-0.6-0.2-0.9c-0.1-0.3-0.3-0.5-0.5-0.7
					c-0.2-0.2-0.4-0.4-0.7-0.5c-0.3-0.1-0.6-0.2-0.9-0.2c-0.3,0-0.6,0.1-0.9,0.2c-0.3,0.1-0.5,0.3-0.7,0.5c-0.2,0.2-0.4,0.5-0.5,0.7
					c-0.1,0.3-0.2,0.6-0.2,0.9V56.3z"/>
				<g>
					<path class="st0" d="M433.6,50.4c0-0.2,0.1-0.4,0.2-0.6c0.2-0.2,0.3-0.2,0.6-0.2c0.2,0,0.4,0.1,0.5,0.2
						c0.1,0.1,0.2,0.3,0.3,0.5c0.7-0.5,1.5-0.7,2.4-0.7c0.5,0,0.9,0.1,1.2,0.2c0.3,0.1,0.6,0.2,0.8,0.4c0.2,0.2,0.4,0.4,0.4,0.7
						c0,0.2-0.1,0.4-0.2,0.6c-0.2,0.1-0.3,0.2-0.6,0.2c-0.2,0-0.3,0-0.5-0.1c-0.4-0.2-0.7-0.3-1.1-0.3c-0.3,0-0.6,0.1-0.9,0.2
						c-0.3,0.1-0.5,0.3-0.7,0.5c-0.2,0.2-0.4,0.4-0.5,0.7c-0.1,0.3-0.2,0.5-0.2,0.8v6.1c0,0.2-0.1,0.4-0.2,0.6
						c-0.2,0.2-0.3,0.2-0.6,0.2c-0.2,0-0.4-0.1-0.6-0.2c-0.2-0.2-0.2-0.3-0.2-0.6v-6.2V50.4z"/>
				</g>
				<path class="st0" d="M446.6,46.3c0-0.2,0.1-0.4,0.2-0.6c0.2-0.2,0.4-0.2,0.6-0.2c0.2,0,0.4,0.1,0.6,0.2c0.2,0.2,0.3,0.4,0.3,0.6
					v10c0,0.5-0.1,1.1-0.3,1.5c-0.2,0.5-0.5,0.9-0.9,1.3c-0.4,0.4-0.8,0.6-1.3,0.8c-0.5,0.2-1,0.3-1.5,0.3c-0.6,0-1.1-0.1-1.5-0.3
					c-0.5-0.2-0.9-0.5-1.3-0.8c-0.4-0.4-0.6-0.8-0.9-1.3c-0.2-0.5-0.3-1-0.3-1.5v-3.2c0-0.5,0.1-1.1,0.3-1.5
					c0.2-0.5,0.5-0.9,0.9-1.3c0.4-0.4,0.8-0.6,1.3-0.8c0.5-0.2,1-0.3,1.5-0.3c0.4,0,0.8,0.1,1.2,0.2c0.4,0.1,0.7,0.3,1.1,0.5V46.3z
					 M442,56.3c0,0.3,0.1,0.6,0.2,0.9c0.1,0.3,0.3,0.5,0.5,0.7c0.2,0.2,0.5,0.4,0.7,0.5c0.3,0.1,0.6,0.2,0.9,0.2
					c0.3,0,0.6-0.1,0.9-0.2c0.3-0.1,0.5-0.3,0.7-0.5c0.2-0.2,0.4-0.5,0.5-0.7c0.1-0.3,0.2-0.6,0.2-0.9v-3.2c0-0.3-0.1-0.6-0.2-0.9
					c-0.1-0.3-0.3-0.5-0.5-0.7c-0.2-0.2-0.5-0.4-0.7-0.5c-0.3-0.1-0.6-0.2-0.9-0.2c-0.3,0-0.6,0.1-0.9,0.2c-0.3,0.1-0.5,0.3-0.7,0.5
					c-0.2,0.2-0.4,0.5-0.5,0.7c-0.1,0.3-0.2,0.6-0.2,0.9V56.3z"/>
				<path class="st0" d="M393.6,50.1c0-0.2,0.1-0.4,0.2-0.6c0.2-0.2,0.4-0.2,0.6-0.2c0.2,0,0.4,0.1,0.6,0.2c0.2,0.2,0.3,0.4,0.3,0.6
					v6.2c0,0.3,0.1,0.6,0.2,0.9c0.1,0.3,0.3,0.5,0.5,0.7c0.2,0.2,0.5,0.4,0.7,0.5c0.3,0.1,0.6,0.2,0.9,0.2c0.3,0,0.6-0.1,0.9-0.2
					c0.3-0.1,0.5-0.3,0.7-0.5c0.2-0.2,0.4-0.5,0.5-0.7c0.1-0.3,0.2-0.6,0.2-0.9v-6.2c0-0.2,0.1-0.4,0.2-0.6c0.2-0.2,0.4-0.2,0.6-0.2
					c0.2,0,0.4,0.1,0.6,0.2c0.2,0.2,0.3,0.4,0.3,0.6v6.2c0,0.5-0.1,1.1-0.3,1.5c-0.2,0.5-0.5,0.9-0.9,1.3c-0.4,0.4-0.8,0.6-1.3,0.8
					c-0.5,0.2-1,0.3-1.5,0.3c-0.6,0-1.1-0.1-1.5-0.3c-0.5-0.2-0.9-0.5-1.3-0.8c-0.4-0.4-0.6-0.8-0.9-1.3c-0.2-0.5-0.3-1-0.3-1.5
					V50.1z"/>
				<path class="st0" d="M412.2,52.8h-3.5c-0.5,0-0.8,0.4-0.8,0.8c0,0.5,0.4,0.8,0.8,0.8h2.8v1.3c0,1.8-1.6,3.1-3.3,3.1
					c-1.9,0-3.5-1.3-3.5-3.5v-5c0-2,1.5-3.5,3.4-3.5c1.6,0,2.8,1.1,3.3,2.4c0.2,0.3,0.4,0.4,0.7,0.4c0.6,0,1.1-0.5,0.7-1.3
					c-0.5-1.6-2.2-3.2-4.8-3.2c-3,0-5.1,2.4-5.1,5.1v5.2c0,2.7,2.2,5.1,5.1,5.1c2.7,0,5-2.1,5-4.5v-2.5
					C413.1,53.1,412.7,52.8,412.2,52.8z"/>
			</g>
		</g>
		<path class="st0" d="M446.6,50.1c0-0.2,0.1-0.4,0.2-0.6c0.2-0.2,0.4-0.2,0.6-0.2c0.2,0,0.4,0.1,0.6,0.2c0.2,0.2,0.3,0.4,0.3,0.6
			v9.2c0,0.2-0.1,0.4-0.2,0.6c-0.2,0.2-0.4,0.2-0.6,0.2c-0.2,0-0.4-0.1-0.6-0.2c-0.2-0.2-0.3-0.4-0.3-0.6V50.1z"/>
		<g>
			<path class="st0" d="M344.5,46.9c0-0.2,0.1-0.4,0.2-0.6c0.2-0.2,0.3-0.2,0.6-0.2h3.3h0c0.7,0,1.4,0.1,2,0.4
				c0.6,0.3,1.2,0.6,1.6,1.1c0.5,0.4,0.8,1,1.1,1.6c0.3,0.6,0.4,1.3,0.4,2c0,0.7-0.1,1.4-0.4,2c-0.3,0.6-0.6,1.1-1.1,1.6
				c-0.5,0.5-1,0.8-1.6,1.1c-0.6,0.3-1.3,0.4-2,0.4h-2.5v3.3c0,0.2-0.1,0.4-0.2,0.6c-0.2,0.2-0.3,0.2-0.6,0.2
				c-0.2,0-0.4-0.1-0.6-0.2c-0.2-0.2-0.2-0.3-0.2-0.6V46.9z M346.2,47.7v6.8h2.5c0.5,0,0.9-0.1,1.4-0.3c0.4-0.2,0.8-0.4,1.1-0.7
				c0.3-0.3,0.6-0.7,0.7-1.1c0.2-0.4,0.3-0.9,0.3-1.3c0-0.5-0.1-0.9-0.3-1.3c-0.2-0.4-0.4-0.8-0.7-1.1c-0.3-0.3-0.7-0.5-1.1-0.7
				c-0.4-0.2-0.9-0.3-1.3-0.3H346.2z"/>
		</g>
	</g>
	<linearGradient id="SVGID_1_" gradientUnits="userSpaceOnUse" x1="325.8835" y1="45.7339" x2="325.9091" y2="67.1534">
		<stop  offset="0" style="stop-color:#41B5E8"/>
		<stop  offset="0.5" style="stop-color:#6A53A3"/>
		<stop  offset="1" style="stop-color:#E72E8A"/>
	</linearGradient>
	<path class="st1" d="M328.3,60.7v1.7c0,1.3-1.1,2.4-2.4,2.4c-0.4,0-0.8-0.1-1.2-0.3c-0.4-0.2-0.5-0.7-0.3-1.1
		c0.2-0.4,0.7-0.5,1.1-0.3c0.1,0.1,0.2,0.1,0.4,0.1c0.4,0,0.8-0.3,0.8-0.8v-1.7c0-0.5,0.4-0.8,0.8-0.8
		C327.9,59.9,328.3,60.2,328.3,60.7z M322.8,64c-0.2-0.4-0.7-0.6-1.1-0.4c-0.4,0.2-0.6,0.7-0.4,1.1c0.9,1.7,2.7,2.8,4.6,2.8
		c2.9,0,5.2-2.3,5.2-5.2v-1.7c0-0.5-0.4-0.8-0.8-0.8c-0.5,0-0.8,0.4-0.8,0.8v1.7c0,1.9-1.6,3.5-3.5,3.5
		C324.6,65.9,323.4,65.2,322.8,64z M325.7,36.6c-4.2,0.1-7.7,3.8-7.7,8.1v17.7c0,2.2,0.9,4.2,2.4,5.7c1.5,1.5,3.5,2.2,5.5,2.2
		c0.1,0,0.2,0,0.2,0c4.2-0.1,7.7-3.8,7.7-8.1v-1.4c0-2.1-1.7-3.8-3.8-3.8h-2.6c-0.5,0-0.8,0.4-0.8,0.8c0,0.5,0.4,0.8,0.8,0.8h2.6
		c1.2,0,2.1,1,2.1,2.1v1.4c0,3.5-2.7,6.3-6.1,6.4c-1.7,0.1-3.3-0.6-4.6-1.8c-1.2-1.2-1.9-2.8-1.9-4.5V44.7c0-3.5,2.7-6.3,6.1-6.4
		c1.7-0.1,3.3,0.6,4.6,1.8c1.2,1.2,1.9,2.8,1.9,4.5V55c0,0.5,0.4,0.8,0.8,0.8c0.5,0,0.8-0.4,0.8-0.8V44.6c0-2.2-0.9-4.2-2.4-5.7
		C329.9,37.4,327.8,36.6,325.7,36.6z M331.1,50.8v-6.2c0-2.9-2.3-5.2-5.2-5.2c-2.9,0-5.2,2.3-5.2,5.2v1c0,0.5,0.4,0.8,0.8,0.8
		c0.5,0,0.8-0.4,0.8-0.8v-1c0-1.9,1.6-3.5,3.5-3.5c1.9,0,3.5,1.6,3.5,3.5v6.2c0,1.9-1.6,3.5-3.5,3.5c-0.4,0-0.9-0.1-1.3-0.2
		c-0.3-0.1-0.5-0.1-0.8,0.1c-0.2,0.2-0.4,0.4-0.4,0.7v5.6c0,0.3-0.2,0.6-0.6,0.6s-0.6-0.2-0.6-0.6V48.3c0-0.5-0.4-0.8-0.8-0.8
		c-0.5,0-0.8,0.4-0.8,0.8v12.1c0,1.2,1,2.2,2.2,2.2c1.2,0,2.2-1,2.2-2.2l0-4.6c0.3,0,0.5,0.1,0.8,0.1
		C328.8,56,331.1,53.7,331.1,50.8z M336.6,44.8v13.1V58v4.4c0,2.9-1.1,5.6-3.2,7.7c-2,2-4.7,3.1-7.5,3.1c-0.1,0-0.2,0-0.3,0
		c-5.8-0.1-10.5-5-10.5-10.9V44.6c0-2.9,1.1-5.6,3.2-7.7c2.1-2,4.8-3.1,7.7-3C331.9,34,336.6,38.9,336.6,44.8z M334.9,58v-0.2V44.8
		c0-5-4-9.1-8.8-9.2c-2.5-0.1-4.8,0.9-6.5,2.6c-1.8,1.7-2.7,4-2.7,6.5v17.6c0,5,4,9.1,8.8,9.2c2.5,0.1,4.8-0.9,6.5-2.6
		c1.8-1.7,2.7-4,2.7-6.5V58z M323.5,50.8v-6.2c0-1.3,1.1-2.4,2.4-2.4c1.3,0,2.4,1.1,2.4,2.4v6.2c0,1.3-1.1,2.4-2.4,2.4
		C324.6,53.2,323.5,52.1,323.5,50.8z M325.1,50.8c0,0.4,0.3,0.8,0.8,0.8c0.4,0,0.8-0.3,0.8-0.8v-6.2c0-0.4-0.3-0.8-0.8-0.8
		c-0.4,0-0.8,0.3-0.8,0.8V50.8z"/>
	<g>
		<path class="st0" d="M449.4,45.8h-0.3v-0.2h0.9v0.2h-0.3v0.9h-0.3V45.8z"/>
		<path class="st0" d="M451.1,46.3c0-0.1,0-0.3,0-0.5h0c0,0.1-0.1,0.3-0.1,0.4l-0.1,0.4h-0.2l-0.1-0.4c0-0.1-0.1-0.3-0.1-0.4h0
			c0,0.2,0,0.3,0,0.5l0,0.4h-0.2l0.1-1.1h0.3l0.1,0.4c0,0.1,0.1,0.3,0.1,0.4h0c0-0.1,0.1-0.3,0.1-0.4l0.1-0.4h0.3l0.1,1.1h-0.3
			L451.1,46.3z"/>
	</g>
</g>
</svg>
