<svg id="Layer_1" xmlns="http://www.w3.org/2000/svg" viewBox="0 0 300 250"><style>.st0{fill:#021d8b}</style><path class="st0" d="M41.14 164.33v-14.61h4.71c1.29 0 2.45.29 3.48.88s1.83 1.41 2.41 2.48c.58 1.07.87 2.26.88 3.59v.67c0 1.34-.28 2.54-.85 3.6a6.227 6.227 0 0 1-2.39 2.49c-1.03.6-2.17.9-3.44.91h-4.8zm3.52-11.89v9.18h1.22c1.01 0 1.79-.36 2.33-1.08.54-.72.81-1.79.81-3.21v-.63c0-1.41-.27-2.47-.81-3.19-.54-.72-1.33-1.07-2.37-1.07h-1.18zM54.24 150.67c0-.48.17-.88.52-1.18.35-.31.8-.46 1.35-.46.56 0 1.01.15 1.35.46.35.31.52.7.52 1.18s-.17.88-.52 1.18c-.35.31-.8.46-1.35.46s-1.01-.15-1.35-.46c-.34-.3-.52-.7-.52-1.18zm3.59 13.66h-3.39v-10.86h3.39v10.86zM59.49 158.82c0-1.72.37-3.07 1.11-4.06.74-.99 1.78-1.48 3.11-1.48.97 0 1.79.38 2.45 1.14v-5.5h3.39v15.41h-3.04l-.17-1.16c-.7.91-1.58 1.36-2.65 1.36-1.29 0-2.31-.49-3.07-1.48s-1.13-2.4-1.13-4.23zm3.38.21c0 1.93.56 2.89 1.69 2.89.75 0 1.28-.31 1.61-.94v-4.13c-.31-.64-.84-.96-1.59-.96-1.04 0-1.61.84-1.7 2.53l-.01.61zM80.93 159.59l1.81-6.12h3.62l-4.42 12.67-.19.46c-.63 1.41-1.74 2.11-3.33 2.11-.44 0-.91-.07-1.39-.2v-2.41h.44c.47 0 .84-.07 1.09-.21.25-.14.44-.38.56-.74l.27-.72-3.77-10.97h3.61l1.7 6.13zM86.81 158.8c0-1.08.21-2.05.63-2.89.42-.85 1.03-1.5 1.82-1.95.79-.46 1.72-.68 2.78-.68 1.62 0 2.91.5 3.84 1.51s1.4 2.38 1.4 4.11v.12c0 1.69-.47 3.04-1.41 4.03s-2.21 1.49-3.82 1.49c-1.55 0-2.79-.46-3.72-1.39-.94-.93-1.44-2.18-1.51-3.77l-.01-.58zm3.38.21c0 1 .16 1.74.47 2.21.31.47.78.7 1.39.7 1.2 0 1.82-.93 1.85-2.78v-.34c0-1.95-.62-2.92-1.87-2.92-1.13 0-1.74.84-1.84 2.52v.61zM105.24 163.15c-.72.92-1.68 1.37-2.9 1.37-1.19 0-2.09-.35-2.7-1.04-.61-.69-.92-1.69-.92-2.98v-7.03h3.38v7.05c0 .93.45 1.39 1.35 1.39.78 0 1.33-.28 1.66-.83v-7.62h3.4v10.86h-3.17l-.1-1.17zM116.23 164.33v-8.51h-1.58v-2.35h1.58v-.86c0-1.24.37-2.2 1.09-2.88.73-.68 1.75-1.02 3.07-1.02.48 0 1.01.07 1.58.21l.01 2.49a3.13 3.13 0 0 0-.83-.09c-1.02 0-1.54.44-1.54 1.33v.83h2.12v2.35h-2.12v8.51h-3.38zM122.5 158.8c0-1.08.21-2.05.63-2.89.42-.85 1.03-1.5 1.82-1.95.79-.46 1.72-.68 2.78-.68 1.62 0 2.91.5 3.84 1.51s1.4 2.38 1.4 4.11v.12c0 1.69-.47 3.04-1.41 4.03s-2.21 1.49-3.82 1.49c-1.55 0-2.79-.46-3.72-1.39-.94-.93-1.44-2.18-1.51-3.77l-.01-.58zm3.38.21c0 1 .16 1.74.47 2.21.31.47.78.7 1.39.7 1.2 0 1.82-.93 1.85-2.78v-.34c0-1.95-.62-2.92-1.87-2.92-1.13 0-1.74.84-1.84 2.52v.61zM141.03 156.53l-1.11-.08c-1.06 0-1.75.33-2.05 1v6.87h-3.38v-10.86h3.17l.11 1.4c.57-1.06 1.36-1.6 2.38-1.6.36 0 .68.04.94.12l-.06 3.15zM141.85 158.82c0-1.1.18-2.07.54-2.91s.88-1.49 1.55-1.95 1.46-.69 2.36-.69c1.13 0 2.01.38 2.65 1.14l.12-.94h3.07v10.45c0 .96-.22 1.79-.67 2.49-.45.71-1.09 1.25-1.93 1.62s-1.82.57-2.93.57c-.8 0-1.57-.15-2.31-.45-.75-.3-1.32-.69-1.71-1.17l1.42-1.99c.63.74 1.46 1.11 2.49 1.11 1.5 0 2.25-.77 2.25-2.31v-.34c-.65.72-1.47 1.07-2.46 1.07-1.32 0-2.39-.51-3.21-1.52-.82-1.01-1.22-2.37-1.22-4.07v-.11zm3.4.21c0 .89.17 1.59.5 2.11.33.52.8.78 1.41.78.73 0 1.26-.24 1.59-.73v-4.57c-.33-.49-.85-.74-1.58-.74-.6 0-1.07.27-1.41.81-.34.54-.51 1.32-.51 2.34zM159.32 164.53c-1.67 0-3.01-.5-4.04-1.49s-1.54-2.29-1.54-3.88v-.28c0-1.11.21-2.09.62-2.94.41-.85 1.01-1.51 1.8-1.97.79-.46 1.73-.7 2.81-.7 1.52 0 2.73.47 3.61 1.42s1.32 2.27 1.32 3.96v1.31h-6.72c.12.61.38 1.09.79 1.43.41.35.94.52 1.59.52 1.07 0 1.91-.37 2.51-1.12l1.54 1.83c-.42.58-1.02 1.05-1.79 1.39-.78.35-1.61.52-2.5.52zm-.38-8.65c-.99 0-1.58.66-1.77 1.97h3.41v-.26c.01-.54-.12-.96-.41-1.26-.28-.3-.69-.45-1.23-.45zM169.19 150.77v2.7h1.79v2.35h-1.79v4.97c0 .41.07.69.22.85.15.16.44.24.87.24.33 0 .62-.02.84-.06v2.42c-.61.19-1.24.29-1.91.29-1.16 0-2.02-.27-2.58-.82-.56-.55-.83-1.38-.83-2.5v-5.39h-1.38v-2.35h1.38v-2.7h3.39zM181.36 150.77v2.7h1.79v2.35h-1.79v4.97c0 .41.07.69.22.85.15.16.44.24.87.24.33 0 .62-.02.84-.06v2.42c-.61.19-1.24.29-1.91.29-1.16 0-2.02-.27-2.58-.82-.56-.55-.83-1.38-.83-2.5v-5.39h-1.38v-2.35h1.38v-2.7h3.39zM183.75 158.8c0-1.08.21-2.05.63-2.89.42-.85 1.03-1.5 1.82-1.95.79-.46 1.72-.68 2.78-.68 1.62 0 2.91.5 3.84 1.51s1.4 2.38 1.4 4.11v.12c0 1.69-.47 3.04-1.41 4.03s-2.21 1.49-3.82 1.49c-1.55 0-2.79-.46-3.72-1.39-.94-.93-1.44-2.18-1.51-3.77l-.01-.58zm3.38.21c0 1 .16 1.74.47 2.21.31.47.78.7 1.39.7 1.2 0 1.82-.93 1.85-2.78v-.34c0-1.95-.62-2.92-1.87-2.92-1.13 0-1.74.84-1.84 2.52v.61zM206.52 161.28c0-.29-.15-.52-.45-.69s-.87-.35-1.72-.54-1.54-.43-2.09-.74-.97-.67-1.25-1.11c-.29-.44-.43-.93-.43-1.5 0-1 .41-1.82 1.23-2.46.82-.65 1.9-.97 3.23-.97 1.43 0 2.58.32 3.45.97.87.65 1.3 1.5 1.3 2.56h-3.39c0-.87-.46-1.3-1.37-1.3-.36 0-.65.1-.89.3-.24.2-.36.44-.36.74s.15.54.44.73c.29.19.76.34 1.41.46.65.12 1.21.26 1.7.43 1.63.56 2.45 1.57 2.45 3.02 0 .99-.44 1.8-1.32 2.42s-2.02.93-3.42.93c-.93 0-1.76-.17-2.49-.5-.73-.33-1.3-.79-1.71-1.37-.41-.57-.61-1.18-.61-1.82h3.16c.01.5.18.87.5 1.1.32.23.73.35 1.23.35.46 0 .81-.09 1.04-.28.24-.19.36-.43.36-.73zM214.67 154.64c.72-.91 1.65-1.36 2.77-1.36 1.2 0 2.1.35 2.71 1.06s.92 1.76.93 3.14v6.85h-3.39v-6.77c0-.58-.12-1-.35-1.27-.23-.27-.63-.41-1.19-.41-.7 0-1.19.22-1.48.66v7.79h-3.38v-15.41h3.38v5.72zM222.53 158.8c0-1.08.21-2.05.63-2.89.42-.85 1.03-1.5 1.82-1.95.79-.46 1.72-.68 2.78-.68 1.62 0 2.91.5 3.84 1.51s1.4 2.38 1.4 4.11v.12c0 1.69-.47 3.04-1.41 4.03s-2.21 1.49-3.82 1.49c-1.55 0-2.79-.46-3.72-1.39-.94-.93-1.44-2.18-1.51-3.77l-.01-.58zm3.38.21c0 1 .16 1.74.47 2.21.31.47.78.7 1.39.7 1.2 0 1.82-.93 1.85-2.78v-.34c0-1.95-.62-2.92-1.87-2.92-1.13 0-1.74.84-1.84 2.52v.61zM244.58 158.98c0 1.69-.38 3.03-1.14 4.04s-1.78 1.51-3.08 1.51c-1 0-1.82-.36-2.46-1.09v5.07h-3.38v-15.03h3.16l.1 1c.65-.8 1.5-1.2 2.56-1.2 1.34 0 2.38.49 3.12 1.48.74.99 1.11 2.34 1.11 4.07v.15zm-3.39-.21c0-1.93-.56-2.89-1.69-2.89-.8 0-1.34.29-1.61.86v4.27c.29.6.84.9 1.62.9 1.08 0 1.63-.93 1.67-2.79v-.35zM67.03 185.94c0-.29-.15-.52-.45-.69s-.87-.35-1.72-.54-1.54-.43-2.09-.74-.97-.67-1.25-1.11c-.29-.44-.43-.93-.43-1.5 0-1 .41-1.82 1.23-2.46.82-.65 1.9-.97 3.23-.97 1.43 0 2.58.32 3.45.97.87.65 1.3 1.5 1.3 2.56h-3.39c0-.87-.46-1.3-1.37-1.3-.36 0-.65.1-.89.3-.24.2-.36.44-.36.74s.15.54.44.73c.29.19.76.34 1.41.46.65.12 1.21.26 1.7.43 1.63.56 2.45 1.57 2.45 3.02 0 .99-.44 1.8-1.32 2.42s-2.02.93-3.42.93c-.93 0-1.76-.17-2.49-.5-.73-.33-1.3-.79-1.71-1.37-.41-.57-.61-1.18-.61-1.82h3.16c.01.5.18.87.5 1.1.32.23.73.35 1.23.35.46 0 .81-.09 1.04-.28a.86.86 0 0 0 .36-.73zM77.12 189.19c-1.67 0-3.01-.5-4.04-1.49s-1.54-2.29-1.54-3.88v-.28c0-1.11.21-2.09.62-2.94.41-.85 1.01-1.51 1.8-1.97.79-.46 1.73-.7 2.81-.7 1.52 0 2.73.47 3.61 1.42s1.32 2.27 1.32 3.96v1.31h-6.72c.12.61.38 1.09.79 1.43.41.35.94.52 1.59.52 1.07 0 1.91-.37 2.51-1.12l1.54 1.83c-.42.58-1.02 1.05-1.79 1.39-.78.34-1.61.52-2.5.52zm-.38-8.65c-.99 0-1.58.66-1.77 1.97h3.41v-.26c.01-.54-.12-.96-.41-1.26-.28-.3-.69-.45-1.23-.45zM87.65 186.58c.48 0 .84-.13 1.1-.39.26-.26.39-.62.38-1.08h3.17c0 1.19-.43 2.17-1.28 2.93-.85.76-1.95 1.14-3.3 1.14-1.58 0-2.82-.49-3.73-1.48-.91-.99-1.37-2.36-1.37-4.11v-.14c0-1.1.2-2.07.61-2.91.4-.84.99-1.48 1.75-1.94.76-.45 1.67-.68 2.71-.68 1.41 0 2.53.39 3.36 1.17.83.78 1.24 1.84 1.24 3.18h-3.17c0-.56-.14-.99-.41-1.29-.27-.3-.64-.45-1.1-.45-.88 0-1.39.56-1.53 1.68-.05.35-.07.84-.07 1.46 0 1.09.13 1.85.39 2.27.27.43.68.64 1.25.64zM100.2 187.81c-.72.92-1.68 1.37-2.9 1.37-1.19 0-2.09-.35-2.7-1.04-.61-.69-.92-1.69-.92-2.98v-7.03h3.38v7.05c0 .93.45 1.39 1.35 1.39.78 0 1.33-.28 1.66-.83v-7.62h3.4v10.86h-3.17l-.1-1.17zM111.89 181.19l-1.11-.08c-1.06 0-1.75.33-2.05 1v6.87h-3.38v-10.86h3.17l.11 1.4c.57-1.06 1.36-1.6 2.38-1.6.36 0 .68.04.94.12l-.06 3.15zM118.36 189.19c-1.67 0-3.01-.5-4.04-1.49s-1.54-2.29-1.54-3.88v-.28c0-1.11.21-2.09.62-2.94.41-.85 1.01-1.51 1.8-1.97.79-.46 1.73-.7 2.81-.7 1.52 0 2.73.47 3.61 1.42s1.32 2.27 1.32 3.96v1.31h-6.72c.12.61.38 1.09.79 1.43.41.35.94.52 1.59.52 1.07 0 1.91-.37 2.51-1.12l1.54 1.83c-.42.58-1.02 1.05-1.79 1.39-.78.34-1.61.52-2.5.52zm-.38-8.65c-.99 0-1.58.66-1.77 1.97h3.41v-.26c.01-.54-.12-.96-.41-1.26-.28-.3-.7-.45-1.23-.45zM127.86 188.99h-3.39v-15.41h3.39v15.41zM134.28 184.25l1.81-6.12h3.62l-4.42 12.67-.19.46c-.63 1.41-1.74 2.11-3.33 2.11-.44 0-.91-.07-1.39-.2v-2.41h.44c.47 0 .84-.07 1.09-.21.25-.14.44-.38.56-.74l.27-.72-3.77-10.97h3.61l1.7 6.13zM149.64 175.43v2.7h1.79v2.35h-1.79v4.97c0 .41.07.69.22.85.15.16.44.24.87.24.33 0 .62-.02.84-.06v2.42c-.61.19-1.24.29-1.91.29-1.16 0-2.02-.27-2.58-.82-.56-.55-.83-1.38-.83-2.5v-5.39h-1.38v-2.35h1.38v-2.7h3.39zM156.07 179.29c.72-.91 1.65-1.36 2.77-1.36 1.2 0 2.1.35 2.71 1.06s.92 1.76.93 3.14v6.85h-3.39v-6.77c0-.58-.12-1-.35-1.27-.23-.27-.63-.41-1.19-.41-.7 0-1.19.22-1.48.66v7.79h-3.38v-15.41h3.38v5.72zM164.33 175.33c0-.48.17-.88.52-1.18.35-.31.8-.46 1.35-.46.56 0 1.01.15 1.35.46.35.31.52.7.52 1.18s-.17.88-.52 1.18c-.35.31-.8.46-1.35.46s-1.01-.15-1.35-.46c-.34-.3-.52-.7-.52-1.18zm3.59 13.66h-3.39v-10.86h3.39v10.86zM175.69 185.94c0-.29-.15-.52-.45-.69s-.87-.35-1.72-.54-1.54-.43-2.09-.74-.97-.67-1.25-1.11c-.29-.44-.43-.93-.43-1.5 0-1 .41-1.82 1.23-2.46.82-.65 1.9-.97 3.23-.97 1.43 0 2.58.32 3.45.97.87.65 1.3 1.5 1.3 2.56h-3.39c0-.87-.46-1.3-1.37-1.3-.36 0-.65.1-.89.3-.24.2-.36.44-.36.74s.15.54.44.73c.29.19.76.34 1.41.46.65.12 1.21.26 1.7.43 1.63.56 2.45 1.57 2.45 3.02 0 .99-.44 1.8-1.32 2.42s-2.02.93-3.42.93c-.93 0-1.76-.17-2.49-.5-.73-.33-1.3-.79-1.71-1.37-.41-.57-.61-1.18-.61-1.82h3.16c.01.5.18.87.5 1.1.32.23.73.35 1.23.35.46 0 .81-.09 1.04-.28a.86.86 0 0 0 .36-.73zM195.73 183.64c0 1.69-.38 3.03-1.14 4.04s-1.78 1.51-3.08 1.51c-1 0-1.82-.36-2.46-1.09v5.07h-3.38v-15.03h3.16l.1 1c.65-.8 1.5-1.2 2.56-1.2 1.34 0 2.38.49 3.12 1.48.74.99 1.11 2.34 1.11 4.07v.15zm-3.38-.21c0-1.93-.56-2.89-1.69-2.89-.8 0-1.34.29-1.61.86v4.27c.29.6.84.9 1.62.9 1.08 0 1.63-.93 1.67-2.79v-.35zM203.33 188.99c-.12-.22-.23-.54-.32-.97-.62.78-1.49 1.17-2.61 1.17-1.02 0-1.89-.31-2.61-.93-.72-.62-1.07-1.4-1.07-2.33 0-1.18.43-2.07 1.3-2.67.87-.6 2.13-.9 3.79-.9h1.04v-.58c0-1-.43-1.5-1.29-1.5-.8 0-1.2.4-1.2 1.19h-3.38c0-1.05.45-1.9 1.34-2.55.89-.66 2.03-.98 3.42-.98 1.38 0 2.48.34 3.28 1.01s1.21 1.6 1.23 2.78v4.81c.01 1 .17 1.76.46 2.29v.17h-3.38zm-2.11-2.21c.42 0 .77-.09 1.05-.27.28-.18.48-.38.6-.61v-1.74h-.98c-1.18 0-1.77.53-1.77 1.58 0 .31.1.56.31.75.2.19.46.29.79.29zM213.81 185.94c0-.29-.15-.52-.45-.69s-.87-.35-1.72-.54-1.54-.43-2.09-.74-.97-.67-1.25-1.11c-.29-.44-.43-.93-.43-1.5 0-1 .41-1.82 1.23-2.46.82-.65 1.9-.97 3.23-.97 1.43 0 2.58.32 3.45.97.87.65 1.3 1.5 1.3 2.56h-3.39c0-.87-.46-1.3-1.37-1.3-.36 0-.65.1-.89.3-.24.2-.36.44-.36.74s.15.54.44.73c.29.19.76.34 1.41.46.65.12 1.21.26 1.7.43 1.63.56 2.45 1.57 2.45 3.02 0 .99-.44 1.8-1.32 2.42s-2.02.93-3.42.93c-.93 0-1.76-.17-2.49-.5-.73-.33-1.3-.79-1.71-1.37-.41-.57-.61-1.18-.61-1.82h3.16c.01.5.18.87.5 1.1.32.23.73.35 1.23.35.46 0 .81-.09 1.04-.28.24-.19.36-.43.36-.73zM222.59 175.43v2.7h1.79v2.35h-1.79v4.97c0 .41.07.69.22.85.15.16.44.24.87.24.33 0 .62-.02.84-.06v2.42c-.61.19-1.24.29-1.91.29-1.16 0-2.02-.27-2.58-.82-.56-.55-.83-1.38-.83-2.5v-5.39h-1.38v-2.35h1.38v-2.7h3.39zM72.13 203.95c.72-.91 1.65-1.36 2.77-1.36 1.2 0 2.1.35 2.71 1.06s.92 1.76.93 3.14v6.85h-3.39v-6.77c0-.58-.12-1-.35-1.27-.23-.27-.63-.41-1.19-.41-.7 0-1.19.22-1.48.66v7.79h-3.38v-15.41h3.38v5.72zM80 208.12c0-1.08.21-2.05.63-2.89.42-.85 1.03-1.5 1.82-1.95.79-.46 1.72-.68 2.78-.68 1.62 0 2.91.5 3.84 1.51s1.4 2.38 1.4 4.11v.12c0 1.69-.47 3.04-1.41 4.03s-2.21 1.49-3.82 1.49c-1.55 0-2.79-.46-3.72-1.39-.94-.93-1.44-2.18-1.51-3.77l-.01-.58zm3.38.21c0 1 .16 1.74.47 2.21.31.47.78.7 1.39.7 1.2 0 1.82-.93 1.85-2.78v-.34c0-1.95-.62-2.92-1.87-2.92-1.13 0-1.74.84-1.84 2.52v.61zM95.53 213.64h-3.39v-15.41h3.39v15.41zM97.59 199.99c0-.48.17-.88.52-1.18.35-.31.8-.46 1.35-.46.56 0 1.01.15 1.35.46.35.31.52.7.52 1.18s-.17.88-.52 1.18c-.35.31-.8.46-1.35.46s-1.01-.15-1.35-.46c-.35-.31-.52-.7-.52-1.18zm3.59 13.65h-3.39v-10.86h3.39v10.86zM102.83 208.14c0-1.72.37-3.07 1.11-4.06.74-.99 1.78-1.48 3.11-1.48.97 0 1.79.38 2.45 1.14v-5.5h3.39v15.41h-3.04l-.17-1.16c-.7.91-1.58 1.36-2.65 1.36-1.29 0-2.31-.49-3.07-1.48s-1.13-2.41-1.13-4.23zm3.39.21c0 1.93.56 2.89 1.69 2.89.75 0 1.28-.31 1.61-.94v-4.13c-.31-.64-.84-.96-1.59-.96-1.04 0-1.61.84-1.7 2.53l-.01.61zM120.93 213.64c-.12-.22-.23-.54-.32-.97-.62.78-1.49 1.17-2.61 1.17-1.02 0-1.89-.31-2.61-.93-.72-.62-1.07-1.4-1.07-2.33 0-1.18.43-2.07 1.3-2.67.87-.6 2.13-.9 3.79-.9h1.04v-.58c0-1-.43-1.5-1.29-1.5-.8 0-1.2.4-1.2 1.19h-3.38c0-1.05.45-1.9 1.34-2.55.89-.66 2.03-.98 3.42-.98 1.38 0 2.48.34 3.28 1.01s1.21 1.6 1.23 2.78v4.81c.01 1 .17 1.76.46 2.29v.17h-3.38zm-2.11-2.2c.42 0 .77-.09 1.05-.27.28-.18.48-.38.6-.61v-1.74h-.98c-1.18 0-1.77.53-1.77 1.58 0 .31.1.56.31.75.2.19.47.29.79.29zM130.06 208.91l1.81-6.12h3.62l-4.42 12.67-.19.46c-.63 1.41-1.74 2.11-3.33 2.11-.44 0-.91-.07-1.39-.2v-2.41h.44c.47 0 .84-.07 1.09-.21.25-.14.44-.38.56-.74l.27-.72-3.77-10.97h3.61l1.7 6.13zM147.17 210.59c0-.29-.15-.52-.45-.69s-.87-.35-1.72-.54-1.54-.43-2.09-.74-.97-.67-1.25-1.11c-.29-.44-.43-.93-.43-1.5 0-1 .41-1.82 1.23-2.46.82-.65 1.9-.97 3.23-.97 1.43 0 2.58.32 3.45.97.87.65 1.3 1.5 1.3 2.56h-3.39c0-.87-.46-1.3-1.37-1.3-.36 0-.65.1-.89.3-.24.2-.36.44-.36.74s.15.54.44.73c.29.19.76.34 1.41.46.65.12 1.21.26 1.7.43 1.63.56 2.45 1.57 2.45 3.02 0 .99-.44 1.8-1.32 2.42s-2.02.93-3.42.93c-.93 0-1.76-.17-2.49-.5-.73-.33-1.3-.79-1.71-1.37-.41-.57-.61-1.18-.61-1.82h3.16c.01.5.18.87.5 1.1.32.23.73.35 1.23.35.46 0 .81-.09 1.04-.28.25-.18.36-.43.36-.73zM157.26 213.84c-1.67 0-3.01-.5-4.04-1.49s-1.54-2.29-1.54-3.88v-.28c0-1.11.21-2.09.62-2.94.41-.85 1.01-1.51 1.8-1.97.79-.46 1.73-.7 2.81-.7 1.52 0 2.73.47 3.61 1.42s1.32 2.27 1.32 3.96v1.31h-6.72c.12.61.38 1.09.79 1.43.41.35.94.52 1.59.52 1.07 0 1.91-.37 2.51-1.12l1.54 1.83c-.42.58-1.02 1.05-1.79 1.39-.77.35-1.61.52-2.5.52zm-.38-8.64c-.99 0-1.58.66-1.77 1.97h3.41v-.26c.01-.54-.12-.96-.41-1.26-.28-.31-.69-.45-1.23-.45zM169.31 213.64c-.12-.22-.23-.54-.32-.97-.62.78-1.49 1.17-2.61 1.17-1.02 0-1.89-.31-2.61-.93-.72-.62-1.07-1.4-1.07-2.33 0-1.18.43-2.07 1.3-2.67.87-.6 2.13-.9 3.79-.9h1.04v-.58c0-1-.43-1.5-1.29-1.5-.8 0-1.2.4-1.2 1.19h-3.38c0-1.05.45-1.9 1.34-2.55.89-.66 2.03-.98 3.42-.98 1.38 0 2.48.34 3.28 1.01s1.21 1.6 1.23 2.78v4.81c.01 1 .17 1.76.46 2.29v.17h-3.38zm-2.11-2.2c.42 0 .77-.09 1.05-.27.28-.18.48-.38.6-.61v-1.74h-.98c-1.18 0-1.77.53-1.77 1.58 0 .31.1.56.31.75.2.19.47.29.79.29zM179.79 210.59c0-.29-.15-.52-.45-.69s-.87-.35-1.72-.54-1.54-.43-2.09-.74-.97-.67-1.25-1.11c-.29-.44-.43-.93-.43-1.5 0-1 .41-1.82 1.23-2.46.82-.65 1.9-.97 3.23-.97 1.43 0 2.58.32 3.45.97.87.65 1.3 1.5 1.3 2.56h-3.39c0-.87-.46-1.3-1.37-1.3-.36 0-.65.1-.89.3-.24.2-.36.44-.36.74s.15.54.44.73c.29.19.76.34 1.41.46.65.12 1.21.26 1.7.43 1.63.56 2.45 1.57 2.45 3.02 0 .99-.44 1.8-1.32 2.42s-2.02.93-3.42.93c-.93 0-1.76-.17-2.49-.5-.73-.33-1.3-.79-1.71-1.37-.41-.57-.61-1.18-.61-1.82h3.16c.01.5.18.87.5 1.1.32.23.73.35 1.23.35.46 0 .81-.09 1.04-.28.24-.18.36-.43.36-.73zM184.2 208.12c0-1.08.21-2.05.63-2.89.42-.85 1.03-1.5 1.82-1.95.79-.46 1.72-.68 2.78-.68 1.62 0 2.91.5 3.84 1.51s1.4 2.38 1.4 4.11v.12c0 1.69-.47 3.04-1.41 4.03s-2.21 1.49-3.82 1.49c-1.55 0-2.79-.46-3.72-1.39-.94-.93-1.44-2.18-1.51-3.77l-.01-.58zm3.39.21c0 1 .16 1.74.47 2.21.31.47.78.7 1.39.7 1.2 0 1.82-.93 1.85-2.78v-.34c0-1.95-.62-2.92-1.87-2.92-1.13 0-1.74.84-1.84 2.52v.61zM199.27 202.79l.11 1.27c.75-.98 1.78-1.47 3.1-1.47 1.13 0 1.98.34 2.53 1.01.56.68.85 1.69.87 3.05v6.99h-3.39v-6.85c0-.55-.11-.95-.33-1.21s-.62-.39-1.2-.39c-.66 0-1.15.26-1.48.78v7.67h-3.38v-10.86h3.17zM210.26 209.02c0-.98.11-1.75.33-2.31.22-.56.58-1.05 1.07-1.47.49-.41.87-.79 1.13-1.14.26-.34.39-.72.39-1.14 0-1.01-.43-1.51-1.3-1.51-.4 0-.73.15-.97.44-.25.29-.38.69-.39 1.19h-3.39c.01-1.34.44-2.38 1.26-3.12s1.99-1.12 3.49-1.12c1.49 0 2.65.34 3.47 1.03.82.69 1.23 1.67 1.23 2.94 0 .56-.11 1.06-.33 1.51-.22.46-.58.92-1.06 1.39l-1.15 1.07c-.33.31-.56.64-.68.97s-.2.75-.21 1.26h-2.89zm-.41 3.05c0-.5.18-.9.54-1.22.36-.32.8-.48 1.34-.48s.98.16 1.34.48c.36.32.54.72.54 1.22s-.18.9-.54 1.22c-.36.32-.8.48-1.34.48s-.98-.16-1.34-.48c-.36-.32-.54-.73-.54-1.22z"/></svg>