<svg id="Layer_1" xmlns="http://www.w3.org/2000/svg" viewBox="0 0 300 250"><style>.st0{fill:#021d8b;stroke:url(#SVGID_1_);stroke-miterlimit:10}.st1{fill:#fff}</style><linearGradient id="SVGID_1_" gradientUnits="userSpaceOnUse" x1="80.567" y1="130.172" x2="220.62" y2="130.172"><stop offset="0" stop-color="#18b9fb"/><stop offset=".5" stop-color="#782eeb"/><stop offset="1" stop-color="#e82d8a"/></linearGradient><path class="st0" d="M210.12 155.67H91.07c-5.52 0-10-4.48-10-10v-30.99c0-5.52 4.48-10 10-10h119.05c5.52 0 10 4.48 10 10v30.99c0 5.52-4.48 10-10 10z"/><path class="st1" d="M94.89 124.06h4.25v1.61H92.9v-9.7h2v8.09zM103.47 125.8c-1.06 0-1.92-.32-2.58-.97-.67-.65-1-1.51-1-2.59v-.19c0-.72.14-1.37.42-1.94.28-.57.68-1.01 1.19-1.32.51-.31 1.1-.46 1.76-.46.99 0 1.76.31 2.33.93.57.62.85 1.5.85 2.65v.79h-4.59c.06.47.25.85.56 1.13.31.28.71.43 1.19.43.74 0 1.32-.27 1.74-.81l.95 1.06c-.29.41-.68.73-1.17.96s-1.05.33-1.65.33zm-.22-5.92c-.38 0-.69.13-.93.39-.24.26-.39.63-.46 1.11h2.68v-.15c-.01-.43-.12-.76-.35-.99-.21-.25-.53-.36-.94-.36zM111.71 125.67c-.09-.17-.15-.39-.19-.65-.47.52-1.07.78-1.82.78-.71 0-1.29-.2-1.76-.61-.46-.41-.7-.92-.7-1.55 0-.76.28-1.35.85-1.76s1.38-.62 2.46-.62h.89v-.41c0-.33-.08-.6-.26-.8-.17-.2-.44-.3-.81-.3-.33 0-.58.08-.76.23s-.28.37-.28.64h-1.93c0-.42.13-.8.39-1.16.26-.36.62-.63 1.09-.84.47-.2 1-.3 1.59-.3.89 0 1.59.22 2.12.67.52.45.78 1.07.78 1.88V124c0 .68.1 1.2.29 1.55v.11h-1.95zm-1.59-1.34c.28 0 .55-.06.79-.19s.42-.3.53-.51v-1.24h-.72c-.96 0-1.48.33-1.54 1l-.01.11c0 .24.08.44.25.59.17.16.4.24.7.24zM118.9 120.26c-.26-.04-.49-.05-.69-.05-.73 0-1.21.25-1.43.74v4.72h-1.93v-7.21h1.82l.05.86c.39-.66.92-.99 1.61-.99.21 0 .41.03.6.09l-.03 1.84zM121.6 118.46l.06.83c.52-.64 1.21-.97 2.07-.97.76 0 1.33.22 1.71.67.37.45.56 1.12.57 2.01v4.66h-1.93v-4.61c0-.41-.09-.71-.27-.89s-.47-.28-.89-.28c-.54 0-.95.23-1.22.69v5.08h-1.93v-7.21h1.83zM138.89 125.67h-2v-4.16h-3.9v4.16h-2v-9.7h2v3.93h3.9v-3.93h2v9.7zM140.21 121.99c0-.72.14-1.35.41-1.91.28-.56.67-.99 1.19-1.3s1.12-.46 1.8-.46c.97 0 1.77.3 2.38.89.62.6.96 1.4 1.03 2.43l.01.49c0 1.11-.31 1.99-.93 2.66-.62.67-1.45 1-2.49 1-1.04 0-1.87-.33-2.49-1-.62-.67-.93-1.57-.93-2.72v-.08zm1.93.14c0 .69.13 1.21.39 1.57.26.36.63.54 1.11.54.47 0 .83-.18 1.09-.54.26-.36.39-.93.39-1.72 0-.67-.13-1.19-.39-1.56-.26-.37-.63-.55-1.11-.55-.47 0-.84.18-1.09.55s-.39.94-.39 1.71zM154.5 123.05l.95-4.59h1.86l-1.84 7.21h-1.61l-1.37-4.54-1.37 4.54h-1.61l-1.84-7.21h1.86l.94 4.58 1.32-4.58h1.39l1.32 4.59zM168.69 117.58h-2.97v8.08h-2v-8.08h-2.93v-1.62h7.9v1.62zM168.01 121.99c0-.72.14-1.35.41-1.91.28-.56.67-.99 1.19-1.3s1.12-.46 1.8-.46c.97 0 1.77.3 2.38.89.62.6.96 1.4 1.03 2.43l.01.49c0 1.11-.31 1.99-.93 2.66-.62.67-1.45 1-2.49 1-1.04 0-1.87-.33-2.49-1-.62-.67-.93-1.57-.93-2.72v-.08zm1.93.14c0 .69.13 1.21.39 1.57.26.36.63.54 1.11.54.47 0 .83-.18 1.09-.54.26-.36.39-.93.39-1.72 0-.67-.13-1.19-.39-1.56-.26-.37-.63-.55-1.11-.55-.47 0-.84.18-1.09.55s-.39.94-.39 1.71zM187.45 125.67h-2v-4.16h-3.9v4.16h-2v-9.7h2v3.93h3.9v-3.93h2v9.7zM192.39 125.8c-1.06 0-1.92-.32-2.58-.97-.67-.65-1-1.51-1-2.59v-.19c0-.72.14-1.37.42-1.94.28-.57.68-1.01 1.19-1.32.51-.31 1.1-.46 1.76-.46.99 0 1.76.31 2.33.93.57.62.85 1.5.85 2.65v.79h-4.59c.06.47.25.85.56 1.13.31.28.71.43 1.19.43.74 0 1.32-.27 1.74-.81l.95 1.06c-.29.41-.68.73-1.17.96s-1.05.33-1.65.33zm-.22-5.92c-.38 0-.69.13-.93.39-.24.26-.39.63-.46 1.11h2.68v-.15c-.01-.43-.12-.76-.35-.99-.21-.25-.53-.36-.94-.36zM198.48 125.67h-1.93v-10.24h1.93v10.24zM206.56 122.13c0 1.11-.25 2-.76 2.67-.5.67-1.19 1-2.04 1-.73 0-1.32-.25-1.77-.76v3.4h-1.93v-9.98h1.79l.07.71c.47-.56 1.08-.84 1.83-.84.89 0 1.58.33 2.07.99s.74 1.56.74 2.72v.09zm-1.93-.14c0-.67-.12-1.19-.36-1.55-.24-.36-.58-.55-1.04-.55-.6 0-1.02.23-1.25.69v2.95c.24.48.66.71 1.26.71.93.01 1.39-.75 1.39-2.25zM102.58 142.32v3.42h-2v-9.7h3.79c.73 0 1.37.13 1.92.4.55.27.98.64 1.28 1.14s.45 1.05.45 1.68c0 .95-.33 1.7-.98 2.25-.65.55-1.55.82-2.7.82h-1.76zm0-1.62h1.79c.53 0 .93-.12 1.21-.37.28-.25.42-.6.42-1.07 0-.48-.14-.86-.42-1.15-.28-.29-.67-.44-1.16-.45h-1.83v3.04zM113.31 140.34c-.26-.04-.49-.05-.69-.05-.73 0-1.21.25-1.43.74v4.72h-1.93v-7.21h1.82l.05.86c.39-.66.92-.99 1.61-.99.21 0 .41.03.6.09l-.03 1.84zM113.69 142.07c0-.72.14-1.35.41-1.91.28-.56.67-.99 1.19-1.3s1.12-.46 1.8-.46c.97 0 1.77.3 2.38.89.62.6.96 1.4 1.03 2.43l.01.49c0 1.11-.31 1.99-.93 2.66-.62.67-1.45 1-2.49 1-1.04 0-1.87-.33-2.49-1-.62-.67-.93-1.57-.93-2.72v-.08zm1.93.14c0 .69.13 1.21.39 1.57.26.36.63.54 1.11.54.47 0 .83-.18 1.09-.54.26-.36.39-.93.39-1.72 0-.67-.13-1.19-.39-1.56-.26-.37-.63-.55-1.11-.55-.47 0-.84.18-1.09.55s-.39.94-.39 1.71zM124.01 136.76v1.77h1.23v1.41h-1.23v3.6c0 .27.05.46.15.57.1.12.3.17.59.17.21 0 .4-.02.57-.05v1.46c-.38.12-.77.17-1.17.17-1.35 0-2.04-.68-2.07-2.05v-3.88h-1.05v-1.41h1.05v-1.77h1.93zM129.64 145.87c-1.06 0-1.92-.32-2.58-.97-.67-.65-1-1.51-1-2.59v-.19c0-.72.14-1.37.42-1.94.28-.57.68-1.01 1.19-1.32.51-.31 1.1-.46 1.76-.46.99 0 1.76.31 2.33.93.57.62.85 1.5.85 2.65v.79h-4.59c.06.47.25.85.56 1.13.31.28.71.43 1.19.43.74 0 1.32-.27 1.74-.81l.95 1.06c-.29.41-.68.73-1.17.96s-1.05.33-1.65.33zm-.22-5.92c-.38 0-.69.13-.93.39-.24.26-.39.63-.46 1.11h2.68v-.15c-.01-.43-.12-.76-.35-.99-.22-.24-.53-.36-.94-.36zM136.7 144.32c.36 0 .64-.1.87-.29.22-.2.34-.46.35-.78h1.81c0 .49-.14.94-.4 1.34-.26.41-.62.72-1.08.95s-.96.34-1.51.34c-1.03 0-1.84-.33-2.44-.98-.6-.66-.89-1.56-.89-2.72v-.13c0-1.11.3-2 .89-2.66s1.4-.99 2.43-.99c.9 0 1.62.26 2.17.77s.82 1.2.83 2.05h-1.81c-.01-.38-.12-.68-.35-.91-.22-.23-.51-.35-.88-.35-.45 0-.79.16-1.02.49s-.34.86-.34 1.59v.2c0 .74.11 1.28.34 1.6.22.32.56.48 1.03.48zM143.12 136.76v1.77h1.23v1.41h-1.23v3.6c0 .27.05.46.15.57.1.12.3.17.59.17.21 0 .4-.02.57-.05v1.46c-.38.12-.77.17-1.17.17-1.35 0-2.04-.68-2.07-2.05v-3.88h-1.05v-1.41h1.05v-1.77h1.93zM152.3 140.41l2.02-4.37h2.19l-3.19 6.18v3.52h-2.03v-3.52l-3.19-6.18h2.19l2.01 4.37zM156.53 142.07c0-.72.14-1.35.41-1.91.28-.56.67-.99 1.19-1.3s1.12-.46 1.8-.46c.97 0 1.77.3 2.38.89.62.6.96 1.4 1.03 2.43l.01.49c0 1.11-.31 1.99-.93 2.66-.62.67-1.45 1-2.49 1-1.04 0-1.87-.33-2.49-1-.62-.67-.93-1.57-.93-2.72v-.08zm1.93.14c0 .69.13 1.21.39 1.57.26.36.63.54 1.11.54.47 0 .83-.18 1.09-.54.26-.36.39-.93.39-1.72 0-.67-.13-1.19-.39-1.56-.26-.37-.63-.55-1.11-.55-.47 0-.84.18-1.09.55s-.39.94-.39 1.71zM168.86 145.01c-.48.58-1.13.87-1.97.87-.77 0-1.36-.22-1.77-.67-.41-.44-.61-1.09-.62-1.95v-4.73h1.93v4.66c0 .75.34 1.13 1.03 1.13.65 0 1.1-.23 1.35-.68v-5.11h1.93v7.21h-1.81l-.07-.73zM176.24 140.34c-.26-.04-.49-.05-.69-.05-.73 0-1.21.25-1.43.74v4.72h-1.93v-7.21H174l.05.86c.39-.66.92-.99 1.61-.99.21 0 .41.03.6.09l-.02 1.84zM181.07 143.75c0-.24-.12-.42-.35-.56s-.61-.26-1.12-.36c-1.71-.36-2.57-1.09-2.57-2.19 0-.64.27-1.17.8-1.6.53-.43 1.22-.64 2.08-.64.92 0 1.65.22 2.2.65s.82.99.82 1.68H181c0-.28-.09-.5-.27-.68s-.46-.27-.83-.27c-.32 0-.58.07-.75.22s-.27.33-.27.56c0 .21.1.39.3.52s.54.24 1.02.34a9 9 0 0 1 1.21.32c1.02.37 1.53 1.02 1.53 1.94 0 .66-.28 1.19-.85 1.6-.56.41-1.29.61-2.19.61-.6 0-1.14-.11-1.61-.32-.47-.22-.84-.51-1.1-.89s-.4-.78-.4-1.22h1.83c.02.34.14.6.38.79.24.18.55.27.95.27.37 0 .65-.07.84-.21.18-.15.28-.34.28-.56zM187.5 145.87c-1.06 0-1.92-.32-2.58-.97-.67-.65-1-1.51-1-2.59v-.19c0-.72.14-1.37.42-1.94.28-.57.68-1.01 1.19-1.32.51-.31 1.1-.46 1.76-.46.99 0 1.76.31 2.33.93.57.62.85 1.5.85 2.65v.79h-4.59c.06.47.25.85.56 1.13.31.28.71.43 1.19.43.74 0 1.32-.27 1.74-.81l.95 1.06c-.29.41-.68.73-1.17.96s-1.05.33-1.65.33zm-.22-5.92c-.38 0-.69.13-.93.39-.24.26-.39.63-.46 1.11h2.68v-.15c-.01-.43-.12-.76-.35-.99-.22-.24-.53-.36-.94-.36zM193.59 145.74h-1.93V135.5h1.93v10.24zM195.7 145.74v-5.8h-1.07v-1.41h1.07v-.61c0-.81.23-1.44.7-1.88.46-.45 1.11-.67 1.95-.67.27 0 .59.04.98.13l-.02 1.49c-.16-.04-.36-.06-.59-.06-.72 0-1.09.34-1.09 1.02v.58h1.43v1.41h-1.43v5.8h-1.93z"/></svg>