<svg id="Layer_1" xmlns="http://www.w3.org/2000/svg" viewBox="0 0 320 100"><style>.st0{fill:#e82d8a}.st1{fill:#edf4fd}</style><path class="st0" d="M249.72 0h70.12v100.01h-70.12z"/><path class="st1" d="M262.4 67.62c0-.12-.04-.22-.12-.3-.08-.08-.22-.16-.42-.22-.28-.08-.48-.19-.6-.33-.13-.13-.19-.31-.19-.52 0-.21.06-.39.19-.52.12-.14.29-.22.51-.24v-.43h.29v.43c.22.03.39.12.51.27s.18.36.18.63h-.36c0-.18-.04-.33-.13-.44a.418.418 0 0 0-.35-.16c-.15 0-.27.04-.35.12-.08.08-.12.19-.12.33 0 .13.04.24.13.32.09.08.23.15.42.21.2.06.35.13.46.21.11.08.19.17.24.27.05.1.08.22.08.36 0 .22-.07.39-.2.53s-.32.21-.55.24v.37h-.29v-.37c-.24-.02-.43-.11-.57-.26s-.21-.35-.21-.61h.36c0 .18.05.32.14.42.09.1.23.15.4.15s.3-.04.4-.12c.1-.09.15-.2.15-.34zM264.38 68.35h-.36v-2.39l-.72.27v-.33l1.03-.39h.06v2.84zM266.94 65.74v.51h.39v.28h-.39v1.3c0 .08.02.15.05.19s.09.06.18.06c.04 0 .1-.01.17-.02v.29c-.09.03-.19.04-.28.04-.16 0-.28-.05-.36-.15-.08-.1-.12-.23-.12-.41v-1.3h-.38v-.28h.38v-.51h.36zM268.77 66.57c-.05-.01-.11-.01-.18-.01-.24 0-.4.1-.48.3v1.49h-.36v-2.1h.35l.01.24a.561.561 0 0 1 .66-.25v.33zM269.1 65.69c0-.06.02-.11.05-.15.04-.04.09-.06.16-.06s.12.02.16.06.05.09.05.15-.02.11-.05.15c-.04.04-.09.06-.16.06s-.12-.02-.16-.06a.27.27 0 0 1-.05-.15zm.39 2.66h-.36v-2.1h.36v2.1zM271.36 68.35a.715.715 0 0 1-.05-.22c-.17.17-.37.26-.6.26-.21 0-.38-.06-.51-.18s-.2-.27-.2-.45c0-.22.08-.39.25-.51.17-.12.4-.18.7-.18h.35v-.17c0-.12-.04-.23-.11-.3s-.19-.11-.33-.11c-.13 0-.24.03-.32.1s-.13.14-.13.24h-.36c0-.11.04-.21.11-.3.07-.1.18-.17.3-.23a.99.99 0 0 1 .42-.09c.24 0 .43.06.57.18.14.12.21.29.21.5v.97c0 .19.02.35.07.46v.03h-.37zm-.59-.28c.11 0 .22-.03.32-.09s.17-.13.22-.23v-.43h-.28c-.44 0-.66.13-.66.39 0 .11.04.2.11.26s.17.1.29.1zM272.62 68.35h-.36v-2.98h.36v2.98zM274.36 68.35v-1.82h-.33v-.28h.33v-.22c0-.22.06-.4.18-.52s.29-.18.51-.18c.08 0 .17.01.25.03l-.02.29c-.06-.01-.12-.02-.19-.02-.12 0-.21.03-.27.1-.06.07-.1.17-.1.29v.22h.45v.28h-.45v1.82h-.36zM275.46 67.28c0-.21.04-.39.12-.56.08-.16.19-.29.34-.38.14-.09.31-.13.49-.13.29 0 .52.1.69.3.18.2.26.46.26.79v.03c0 .2-.04.39-.12.55-.08.16-.19.29-.34.38a.94.94 0 0 1-.5.14c-.29 0-.52-.1-.69-.3s-.26-.46-.26-.79v-.03zm.37.04c0 .23.05.42.16.56.11.14.25.21.43.21s.33-.07.43-.21c.11-.14.16-.34.16-.6 0-.23-.05-.42-.16-.56a.523.523 0 0 0-.44-.21c-.18 0-.32.07-.43.21-.1.13-.15.34-.15.6zM278.84 66.57c-.05-.01-.11-.01-.18-.01-.24 0-.4.1-.48.3v1.49h-.36v-2.1h.35l.01.24a.55.55 0 0 1 .5-.28c.07 0 .12.01.16.03v.33zM280.65 65.74v.51h.39v.28h-.39v1.3c0 .08.02.15.05.19s.09.06.18.06c.04 0 .1-.01.17-.02v.29c-.09.03-.19.04-.28.04-.16 0-.28-.05-.36-.15-.08-.1-.12-.23-.12-.41v-1.3h-.38v-.28h.38v-.51h.36zM281.82 66.5c.16-.2.37-.29.62-.29.44 0 .67.25.67.75v1.39h-.36v-1.39a.55.55 0 0 0-.1-.34c-.07-.07-.17-.11-.32-.11-.12 0-.22.03-.31.09s-.16.14-.21.25v1.5h-.36v-2.98h.36v1.13zM284.52 68.39c-.29 0-.52-.09-.7-.28-.18-.19-.27-.44-.27-.75v-.07c0-.21.04-.39.12-.56.08-.16.19-.29.33-.38.14-.09.3-.14.46-.14.27 0 .49.09.64.27s.23.44.23.77v.15h-1.42c0 .21.07.38.18.5.12.13.26.19.44.19a.659.659 0 0 0 .55-.29l.22.17c-.16.28-.43.42-.78.42zm-.04-1.89c-.15 0-.27.05-.37.16s-.16.25-.18.44h1.05v-.03c-.01-.18-.06-.32-.15-.42a.44.44 0 0 0-.35-.15zM286.92 68.35v-1.82h-.33v-.28h.33v-.22c0-.22.06-.4.18-.52s.29-.18.51-.18c.08 0 .17.01.25.03l-.02.29c-.06-.01-.13-.02-.19-.02-.12 0-.21.03-.27.1-.06.07-.09.17-.09.29v.22h.45v.28h-.45v1.82h-.37zM288.12 65.69c0-.06.02-.11.05-.15.04-.04.09-.06.16-.06s.12.02.16.06.05.09.05.15-.02.11-.05.15c-.04.04-.09.06-.16.06s-.12-.02-.16-.06a.27.27 0 0 1-.05-.15zm.39 2.66h-.36v-2.1h.36v2.1zM290.1 66.57c-.05-.01-.11-.01-.18-.01-.24 0-.4.1-.48.3v1.49h-.36v-2.1h.35l.01.24a.55.55 0 0 1 .5-.28c.07 0 .12.01.16.03v.33zM291.65 67.79c0-.1-.04-.17-.11-.23s-.2-.1-.38-.14c-.18-.04-.33-.08-.43-.14s-.19-.12-.24-.19a.478.478 0 0 1-.08-.27c0-.17.07-.32.22-.44s.33-.18.56-.18c.24 0 .43.06.58.18s.22.28.22.47h-.36a.3.3 0 0 0-.13-.25.477.477 0 0 0-.32-.11c-.13 0-.23.03-.31.08s-.11.13-.11.22.03.15.1.2.19.09.37.13c.18.04.32.09.44.14s.19.12.25.2.08.17.08.29c0 .19-.08.34-.22.45-.15.11-.35.17-.58.17-.17 0-.32-.03-.45-.09a.676.676 0 0 1-.41-.6h.36c.01.12.05.22.14.29s.21.11.36.11c.14 0 .25-.03.33-.08.08-.05.12-.12.12-.21zM292.97 65.74v.51h.39v.28h-.39v1.3c0 .08.02.15.05.19s.09.06.18.06c.04 0 .1-.01.17-.02v.29c-.09.03-.19.04-.28.04-.16 0-.28-.05-.36-.15-.08-.1-.12-.23-.12-.41v-1.3h-.38v-.28h.38v-.51h.36zM296.05 68.35h-.56v-2.16l-.67.21v-.46l1.17-.42h.06v2.83zM298.63 67.28h.32v.45h-.32v.61h-.56v-.61h-1.16l-.02-.35 1.18-1.86h.57v1.76zm-1.19 0h.63v-1l-.04.06-.59.94zM300.18 67.28c0-.33.07-.59.22-.78a.73.73 0 0 1 .6-.29c.21 0 .37.08.51.23v-1.07h.56v2.98h-.51l-.03-.22c-.14.17-.32.26-.54.26-.25 0-.45-.1-.59-.29-.15-.2-.22-.47-.22-.82zm.56.04c0 .2.03.35.1.45.07.1.17.16.3.16.17 0 .3-.07.37-.22v-.83c-.07-.15-.19-.22-.36-.22-.28 0-.41.22-.41.66zM303.72 68.35c-.03-.05-.04-.11-.06-.19-.14.15-.31.23-.53.23-.21 0-.38-.06-.51-.18a.591.591 0 0 1-.2-.45c0-.22.08-.39.25-.51s.4-.18.72-.18h.26v-.12c0-.1-.02-.17-.07-.23s-.13-.09-.24-.09c-.09 0-.17.02-.22.07a.24.24 0 0 0-.08.19h-.56c0-.12.04-.23.11-.34.07-.1.18-.18.32-.24s.29-.09.46-.09c.26 0 .46.07.62.2.15.13.23.31.23.55v.91c0 .2.03.35.08.45v.03h-.58zm-.46-.39a.465.465 0 0 0 .39-.21v-.36h-.21c-.28 0-.43.1-.45.29v.03c0 .07.02.13.07.17.04.05.11.08.2.08zM305.42 67.55l.39-1.31h.6l-.84 2.43-.05.11c-.12.27-.33.41-.62.41-.08 0-.16-.01-.25-.04v-.43h.09c.11 0 .19-.02.24-.05.05-.03.09-.09.12-.16l.07-.17-.74-2.11h.6l.39 1.32zM307.77 67.77c0-.07-.03-.12-.1-.16-.07-.04-.18-.07-.33-.11-.5-.11-.75-.32-.75-.64 0-.19.08-.34.23-.47.15-.12.36-.19.61-.19.27 0 .48.06.64.19.16.13.24.29.24.49h-.56a.28.28 0 0 0-.08-.2c-.05-.05-.13-.08-.24-.08a.36.36 0 0 0-.22.06c-.05.04-.08.1-.08.16s.03.11.09.15c.06.04.16.07.3.1.14.03.26.06.35.09.3.11.44.3.44.56 0 .19-.08.35-.25.47-.17.12-.38.18-.64.18-.18 0-.33-.03-.47-.09s-.24-.15-.32-.26a.592.592 0 0 1-.12-.35h.53c.01.1.04.18.11.23.07.05.16.08.28.08.11 0 .19-.02.24-.06.07-.04.1-.09.1-.15zM308.72 68.91l-.2-.14c.12-.17.18-.34.19-.52v-.32h.35v.28c0 .13-.03.26-.1.39-.06.13-.14.23-.24.31zM260.57 72.09c0 .32-.07.58-.22.77s-.34.29-.59.29c-.25 0-.46-.08-.6-.24v1.01h-.36v-2.91h.33l.02.23c.15-.18.35-.27.61-.27.25 0 .45.1.6.29s.22.46.22.79v.04zm-.36-.04c0-.24-.05-.42-.15-.56a.487.487 0 0 0-.42-.21c-.22 0-.38.1-.49.29v1c.11.19.27.29.49.29.17 0 .31-.07.41-.21.11-.13.16-.33.16-.6zM261.42 73.12h-.36v-2.98h.36v2.98zM263.29 73.12a.715.715 0 0 1-.05-.22c-.17.17-.37.26-.6.26-.21 0-.38-.06-.51-.18s-.2-.27-.2-.45c0-.22.08-.39.25-.51s.4-.18.7-.18h.35v-.17c0-.12-.04-.23-.11-.3-.07-.07-.19-.11-.33-.11-.13 0-.24.03-.32.1-.09.06-.13.14-.13.24h-.36c0-.11.04-.21.11-.3.07-.1.17-.17.3-.23a.99.99 0 0 1 .42-.09c.24 0 .43.06.57.18.14.12.21.29.21.5v.97c0 .19.02.35.07.46v.03h-.37zm-.59-.28c.11 0 .22-.03.32-.09s.17-.13.22-.23v-.42h-.28c-.44 0-.66.13-.66.39 0 .11.04.2.11.26s.17.09.29.09zM264.5 71.02l.01.26c.16-.2.37-.3.63-.3.44 0 .67.25.67.75v1.39h-.36v-1.39a.55.55 0 0 0-.1-.34c-.07-.07-.17-.11-.32-.11-.12 0-.22.03-.31.09s-.16.14-.21.25v1.5h-.36v-2.1h.35zM267.58 72.56c0-.1-.04-.17-.11-.23s-.2-.1-.38-.14c-.18-.04-.33-.08-.43-.14s-.19-.12-.24-.19a.478.478 0 0 1-.08-.27c0-.17.07-.32.22-.44s.33-.18.56-.18c.24 0 .43.06.58.18s.22.28.22.47h-.36a.3.3 0 0 0-.13-.25.477.477 0 0 0-.32-.11c-.13 0-.23.03-.31.08s-.11.13-.11.22.03.15.1.2.19.09.37.13c.18.04.32.09.44.14s.19.12.25.2.08.17.08.29c0 .19-.08.34-.22.45-.15.11-.35.17-.58.17-.17 0-.32-.03-.45-.09a.676.676 0 0 1-.41-.6h.36c.01.12.05.22.14.29s.21.11.36.11c.14 0 .25-.03.33-.08.07-.04.12-.12.12-.21zM270.61 72.56c0-.1-.04-.17-.11-.23s-.2-.1-.38-.14c-.18-.04-.33-.08-.43-.14s-.19-.12-.24-.19a.478.478 0 0 1-.08-.27c0-.17.07-.32.22-.44s.33-.18.56-.18c.24 0 .43.06.58.18s.22.28.22.47h-.36a.3.3 0 0 0-.13-.25.477.477 0 0 0-.32-.11c-.13 0-.23.03-.31.08s-.11.13-.11.22.03.15.1.2.19.09.37.13c.18.04.32.09.44.14s.19.12.25.2.08.17.08.29c0 .19-.08.34-.22.45-.15.11-.35.17-.58.17-.17 0-.32-.03-.45-.09a.676.676 0 0 1-.41-.6h.36c.01.12.05.22.14.29s.21.11.36.11c.14 0 .25-.03.33-.08.08-.04.12-.12.12-.21zM271.93 70.51v.51h.39v.28h-.39v1.3c0 .08.02.15.05.19.04.04.09.06.18.06.04 0 .1-.01.17-.02v.29c-.09.03-.19.04-.28.04-.16 0-.28-.05-.36-.15-.08-.1-.12-.23-.12-.41v-1.3h-.38v-.28h.38v-.51h.36zM274.03 73.12a.715.715 0 0 1-.05-.22c-.17.17-.37.26-.6.26-.21 0-.38-.06-.51-.18s-.2-.27-.2-.45c0-.22.08-.39.25-.51.17-.12.4-.18.7-.18h.35v-.17c0-.12-.04-.23-.11-.3s-.19-.11-.33-.11c-.13 0-.24.03-.32.1s-.13.14-.13.24h-.36c0-.11.04-.21.11-.3.07-.1.18-.17.3-.23a.99.99 0 0 1 .42-.09c.24 0 .43.06.57.18.14.12.21.29.21.5v.97c0 .19.02.35.07.46v.03h-.37zm-.59-.28c.11 0 .22-.03.32-.09s.17-.13.22-.23v-.42h-.28c-.44 0-.66.13-.66.39 0 .11.04.2.11.26s.17.09.29.09zM275.92 71.34c-.05-.01-.11-.01-.18-.01-.24 0-.4.1-.48.3v1.49h-.36v-2.1h.35l.01.24a.561.561 0 0 1 .66-.25v.33zM276.83 70.51v.51h.39v.28h-.39v1.3c0 .08.02.15.05.19.04.04.09.06.18.06.04 0 .1-.01.17-.02v.29c-.09.03-.19.04-.28.04-.16 0-.28-.05-.36-.15-.08-.1-.12-.23-.12-.41v-1.3h-.38v-.28h.38v-.51h.36zM277.64 70.46c0-.06.02-.11.05-.15.04-.04.09-.06.16-.06s.12.02.16.06.05.09.05.15-.02.11-.05.15c-.04.04-.09.06-.16.06s-.12-.02-.16-.06a.246.246 0 0 1-.05-.15zm.39 2.66h-.36v-2.1h.36v2.1zM278.95 71.02l.01.26c.16-.2.37-.3.63-.3.44 0 .67.25.67.75v1.39h-.36v-1.39a.55.55 0 0 0-.1-.34c-.07-.07-.17-.11-.32-.11-.12 0-.22.03-.31.09s-.16.14-.21.25v1.5h-.36v-2.1h.35zM280.72 72.05c0-.33.08-.59.23-.78a.73.73 0 0 1 .6-.29c.26 0 .46.09.6.27l.02-.23h.33v2.05c0 .27-.08.49-.24.64-.16.16-.38.24-.65.24-.15 0-.3-.03-.44-.1a.684.684 0 0 1-.33-.27l.19-.22c.15.19.34.29.57.29.17 0 .31-.05.41-.15.1-.1.15-.24.15-.42v-.18c-.14.17-.34.25-.59.25-.25 0-.45-.1-.6-.3-.18-.19-.25-.46-.25-.8zm.36.04c0 .24.05.42.15.56.1.13.23.2.41.2.23 0 .39-.1.5-.31v-.96a.53.53 0 0 0-.5-.3c-.17 0-.31.07-.41.2-.1.14-.15.35-.15.61zM285.31 73.12a.715.715 0 0 1-.05-.22c-.17.17-.37.26-.6.26-.21 0-.38-.06-.51-.18s-.2-.27-.2-.45c0-.22.08-.39.25-.51s.4-.18.7-.18h.35v-.17c0-.12-.04-.23-.11-.3-.07-.07-.19-.11-.33-.11-.13 0-.24.03-.32.1-.09.06-.13.14-.13.24H284c0-.11.04-.21.11-.3.07-.1.17-.17.3-.23a.99.99 0 0 1 .42-.09c.24 0 .43.06.57.18.14.12.21.29.21.5v.97c0 .19.02.35.07.46v.03h-.37zm-.59-.28c.11 0 .22-.03.32-.09s.17-.13.22-.23v-.42h-.28c-.44 0-.66.13-.66.39 0 .11.04.2.11.26s.17.09.29.09zM286.67 70.51v.51h.39v.28h-.39v1.3c0 .08.02.15.05.19.04.04.09.06.18.06.04 0 .1-.01.17-.02v.29c-.09.03-.19.04-.28.04-.16 0-.28-.05-.36-.15-.08-.1-.12-.23-.12-.41v-1.3h-.38v-.28h.38v-.51h.36zM289.73 72.38c0-.11-.03-.19-.09-.25a.816.816 0 0 0-.3-.17c-.14-.05-.26-.11-.37-.16a1 1 0 0 1-.26-.18.807.807 0 0 1-.17-.24.81.81 0 0 1-.06-.33c0-.22.07-.4.21-.54s.33-.22.56-.24v-.42h.31v.42c.23.03.41.13.54.29.13.16.19.36.19.62h-.56c0-.16-.03-.27-.1-.35a.31.31 0 0 0-.26-.12c-.11 0-.19.03-.25.09s-.09.14-.09.25c0 .1.03.18.08.24.06.06.16.12.32.18s.28.12.38.17c.1.06.18.12.25.19s.12.15.16.24.05.19.05.31c0 .22-.07.4-.21.54-.14.14-.33.22-.57.24v.39h-.31v-.38c-.27-.03-.47-.12-.62-.28-.15-.16-.22-.37-.22-.64h.56c0 .15.04.27.11.35s.18.12.32.12a.4.4 0 0 0 .27-.09.3.3 0 0 0 .13-.25zM291.98 71.99c-.15.14-.32.22-.51.22-.25 0-.45-.09-.6-.26-.15-.17-.23-.4-.23-.69 0-.19.04-.36.12-.51.08-.16.19-.28.34-.36.14-.09.31-.13.49-.13.19 0 .35.05.5.14.14.09.26.23.34.4s.12.38.12.6v.21c0 .47-.12.84-.35 1.11s-.57.41-1 .43h-.14v-.47h.12c.5-.03.76-.26.8-.69zm-.37-.21c.09 0 .17-.02.23-.07s.12-.1.15-.17v-.24c0-.19-.04-.34-.11-.44s-.17-.16-.29-.16c-.11 0-.21.05-.28.15-.07.1-.11.23-.11.39 0 .15.04.28.11.38.07.11.17.16.3.16zM293 72.84c0-.09.03-.16.09-.22s.14-.08.23-.08.17.03.23.08.09.13.09.22-.03.16-.09.21-.14.08-.23.08-.17-.03-.23-.08-.09-.12-.09-.21zM295.42 71.99c-.15.14-.32.22-.51.22-.25 0-.45-.09-.6-.26-.15-.17-.22-.4-.22-.69 0-.19.04-.36.12-.51.08-.16.19-.28.34-.36.15-.09.31-.13.49-.13a.893.893 0 0 1 .84.54c.08.17.12.38.12.6v.21c0 .47-.12.84-.35 1.11s-.57.41-1 .43h-.14v-.47h.12c.48-.03.75-.26.79-.69zm-.38-.21c.09 0 .17-.02.23-.07s.11-.1.15-.17v-.24c0-.19-.04-.34-.11-.44a.348.348 0 0 0-.29-.16c-.11 0-.21.05-.28.15s-.11.23-.11.39c0 .15.04.28.11.38.07.11.17.16.3.16zM297.7 71.99c-.15.14-.32.22-.51.22-.25 0-.45-.09-.6-.26-.15-.17-.23-.4-.23-.69 0-.19.04-.36.12-.51.08-.16.19-.28.34-.36.14-.09.31-.13.49-.13.19 0 .35.05.5.14.14.09.26.23.34.4s.12.38.12.6v.21c0 .47-.12.84-.35 1.11s-.57.41-1 .43h-.14v-.47h.12c.49-.03.76-.26.8-.69zm-.38-.21c.09 0 .17-.02.23-.07s.12-.1.15-.17v-.24c0-.19-.04-.34-.11-.44s-.17-.16-.29-.16c-.11 0-.21.05-.28.15-.07.1-.11.23-.11.39 0 .15.04.28.11.38.08.11.18.16.3.16zM298.87 73.36h-.42l1.04-3.07h.42l-1.04 3.07zM300.7 71.02l.02.24c.15-.18.35-.27.6-.27.27 0 .46.11.56.32.15-.21.36-.32.63-.32.23 0 .4.07.51.2s.17.33.17.6v1.34h-.56v-1.34c0-.12-.02-.21-.07-.26-.05-.05-.13-.08-.25-.08-.17 0-.28.08-.35.24v1.44h-.56v-1.34c0-.12-.02-.21-.07-.26-.05-.05-.13-.08-.24-.08-.16 0-.27.07-.35.2v1.49h-.56v-2.1h.52zM303.53 72.05c0-.21.04-.39.12-.56s.2-.29.35-.38c.15-.09.33-.13.53-.13.28 0 .51.09.69.26.18.17.28.41.3.71v.14c0 .32-.09.58-.27.78-.18.2-.42.29-.72.29s-.54-.1-.73-.29-.27-.46-.27-.79v-.03zm.56.04c0 .2.04.35.11.46s.18.16.32.16.24-.05.32-.16.12-.27.12-.5c0-.2-.04-.35-.12-.46s-.18-.16-.32-.16-.24.05-.32.16-.11.27-.11.5zM306.38 71.02l.02.24c.15-.19.35-.28.6-.28.22 0 .39.07.5.2.11.13.16.33.17.59v1.36h-.56v-1.34c0-.12-.03-.21-.08-.26s-.14-.08-.26-.08a.4.4 0 0 0-.36.2v1.48h-.56v-2.1h.53zM308.77 70.5v.52h.36v.41h-.36v1.05c0 .08.01.13.04.17.03.03.09.05.17.05.06 0 .12 0 .17-.01v.43c-.11.03-.22.05-.34.05-.39 0-.59-.2-.6-.6v-1.13h-.31v-.41h.31v-.53h.56zM309.99 71.25c.15-.18.34-.27.56-.27.46 0 .69.26.69.79v1.35h-.56v-1.33c0-.12-.03-.21-.08-.27s-.14-.09-.26-.09c-.16 0-.28.06-.36.19v1.49h-.56v-2.98h.56v1.12z"/></svg>