<?xml version="1.0" encoding="utf-8"?>
<!-- Generator: Adobe Illustrator 24.2.3, SVG Export Plug-In . SVG Version: 6.00 Build 0)  -->
<svg version="1.1" id="Layer_1" xmlns="http://www.w3.org/2000/svg" xmlns:xlink="http://www.w3.org/1999/xlink" x="0px" y="0px"
	 viewBox="0 0 728 90" style="enable-background:new 0 0 728 90;" xml:space="preserve">
<style type="text/css">
	.st0{fill:#FFFFFF;}
</style>
<g>
	<path class="st0" d="M290.25,24.04h-5.23v14.21h-3.52V24.04h-5.16v-2.85h13.9V24.04z"/>
	<path class="st0" d="M295.33,26.96c0.9-1.08,2.03-1.62,3.39-1.62c2.75,0,4.14,1.6,4.18,4.79v8.12h-3.39v-8.03
		c0-0.73-0.16-1.26-0.47-1.61s-0.83-0.52-1.56-0.52c-0.99,0-1.71,0.38-2.16,1.15v9.01h-3.39v-18h3.39V26.96z"/>
	<path class="st0" d="M311.3,38.49c-1.86,0-3.37-0.57-4.54-1.71S305,34.12,305,32.22v-0.33c0-1.27,0.25-2.41,0.74-3.42
		s1.19-1.78,2.09-2.32s1.93-0.81,3.09-0.81c1.73,0,3.1,0.55,4.1,1.64s1.49,2.64,1.49,4.65v1.38h-8.07c0.11,0.83,0.44,1.49,0.99,1.99
		s1.25,0.75,2.09,0.75c1.3,0,2.32-0.47,3.06-1.42l1.66,1.86c-0.51,0.72-1.2,1.28-2.06,1.68S312.35,38.49,311.3,38.49z M310.91,28.07
		c-0.67,0-1.22,0.23-1.63,0.68c-0.42,0.46-0.69,1.11-0.8,1.95h4.71v-0.27c-0.02-0.75-0.22-1.34-0.61-1.75
		C312.18,28.28,311.63,28.07,310.91,28.07z"/>
	<path class="st0" d="M325.56,28.75c-0.46-0.06-0.87-0.09-1.22-0.09c-1.28,0-2.12,0.43-2.52,1.3v8.3h-3.39V25.57h3.2l0.09,1.51
		c0.68-1.16,1.62-1.75,2.82-1.75c0.38,0,0.73,0.05,1.05,0.15L325.56,28.75z"/>
	<path class="st0" d="M333.02,38.49c-1.86,0-3.37-0.57-4.54-1.71s-1.75-2.66-1.75-4.56v-0.33c0-1.27,0.25-2.41,0.74-3.42
		s1.19-1.78,2.09-2.32s1.93-0.81,3.09-0.81c1.73,0,3.1,0.55,4.1,1.64s1.49,2.64,1.49,4.65v1.38h-8.07c0.11,0.83,0.44,1.49,0.99,1.99
		s1.25,0.75,2.09,0.75c1.3,0,2.32-0.47,3.06-1.42l1.66,1.86c-0.51,0.72-1.2,1.28-2.06,1.68S334.08,38.49,333.02,38.49z
		 M332.64,28.07c-0.67,0-1.22,0.23-1.63,0.68c-0.42,0.46-0.69,1.11-0.8,1.95h4.71v-0.27c-0.02-0.75-0.22-1.34-0.61-1.75
		C333.91,28.28,333.35,28.07,332.64,28.07z"/>
	<path class="st0" d="M357.16,33.65l1.66-8.07h3.27l-3.23,12.68h-2.84l-2.4-7.98l-2.4,7.98h-2.82l-3.23-12.68h3.27l1.65,8.06
		l2.32-8.06h2.45L357.16,33.65z"/>
	<path class="st0" d="M369.61,38.49c-1.86,0-3.37-0.57-4.54-1.71c-1.17-1.14-1.75-2.66-1.75-4.56v-0.33c0-1.27,0.25-2.41,0.74-3.42
		s1.19-1.78,2.09-2.32s1.93-0.81,3.09-0.81c1.73,0,3.1,0.55,4.1,1.64s1.49,2.64,1.49,4.65v1.38h-8.07c0.11,0.83,0.44,1.49,0.99,1.99
		s1.25,0.75,2.09,0.75c1.3,0,2.32-0.47,3.06-1.42l1.66,1.86c-0.51,0.72-1.2,1.28-2.06,1.68S370.66,38.49,369.61,38.49z
		 M369.22,28.07c-0.67,0-1.22,0.23-1.63,0.68c-0.42,0.46-0.69,1.11-0.8,1.95h4.71v-0.27c-0.02-0.75-0.22-1.34-0.61-1.75
		C370.5,28.28,369.94,28.07,369.22,28.07z"/>
	<path class="st0" d="M383.87,28.75c-0.46-0.06-0.87-0.09-1.22-0.09c-1.28,0-2.12,0.43-2.52,1.3v8.3h-3.39V25.57h3.2l0.09,1.51
		c0.68-1.16,1.62-1.75,2.82-1.75c0.38,0,0.73,0.05,1.05,0.15L383.87,28.75z"/>
	<path class="st0" d="M391.33,38.49c-1.86,0-3.37-0.57-4.54-1.71s-1.75-2.66-1.75-4.56v-0.33c0-1.27,0.25-2.41,0.74-3.42
		s1.19-1.78,2.09-2.32s1.93-0.81,3.09-0.81c1.73,0,3.1,0.55,4.1,1.64s1.49,2.64,1.49,4.65v1.38h-8.07c0.11,0.83,0.44,1.49,0.99,1.99
		s1.25,0.75,2.09,0.75c1.3,0,2.32-0.47,3.06-1.42l1.66,1.86c-0.51,0.72-1.2,1.28-2.06,1.68S392.39,38.49,391.33,38.49z
		 M390.95,28.07c-0.67,0-1.22,0.23-1.63,0.68c-0.42,0.46-0.69,1.11-0.8,1.95h4.71v-0.27c-0.02-0.75-0.22-1.34-0.61-1.75
		C392.22,28.28,391.67,28.07,390.95,28.07z"/>
	<path class="st0" d="M408.52,26.55h2.11c1,0,1.75-0.25,2.23-0.75c0.48-0.5,0.72-1.17,0.72-2c0-0.8-0.24-1.43-0.72-1.87
		c-0.48-0.45-1.14-0.67-1.98-0.67c-0.76,0-1.39,0.21-1.9,0.62c-0.51,0.42-0.77,0.96-0.77,1.62h-3.95c0-1.04,0.28-1.97,0.84-2.8
		c0.56-0.82,1.34-1.47,2.35-1.93s2.12-0.7,3.33-0.7c2.11,0,3.75,0.5,4.95,1.51c1.19,1.01,1.79,2.4,1.79,4.16
		c0,0.91-0.28,1.75-0.83,2.52s-1.29,1.35-2.19,1.76c1.12,0.4,1.96,1,2.51,1.8c0.55,0.8,0.83,1.75,0.83,2.84
		c0,1.77-0.64,3.19-1.93,4.25s-3,1.6-5.12,1.6c-1.99,0-3.61-0.52-4.87-1.57c-1.26-1.05-1.89-2.43-1.89-4.16h3.95
		c0,0.75,0.28,1.36,0.84,1.83c0.56,0.47,1.25,0.71,2.07,0.71c0.94,0,1.67-0.25,2.21-0.75c0.53-0.5,0.8-1.16,0.8-1.98
		c0-1.99-1.09-2.98-3.28-2.98h-2.09V26.55z"/>
	<path class="st0" d="M431.41,23.46l0.12,1.65c1.05-1.29,2.47-1.93,4.25-1.93c1.91,0,3.21,0.75,3.92,2.26
		c1.04-1.5,2.52-2.26,4.44-2.26c1.6,0,2.8,0.47,3.58,1.4c0.78,0.93,1.18,2.34,1.18,4.22v9.45h-3.96v-9.43
		c0-0.84-0.16-1.45-0.49-1.84c-0.33-0.39-0.91-0.58-1.74-0.58c-1.18,0-2,0.57-2.46,1.7l0.01,10.16h-3.95v-9.42
		c0-0.86-0.17-1.48-0.51-1.86s-0.91-0.57-1.72-0.57c-1.12,0-1.93,0.46-2.43,1.39v10.46h-3.95V23.46H431.41z"/>
	<path class="st0" d="M451.92,19.63c0-0.59,0.2-1.08,0.59-1.46s0.94-0.57,1.62-0.57c0.67,0,1.21,0.19,1.61,0.57s0.6,0.87,0.6,1.46
		c0,0.6-0.2,1.09-0.61,1.48s-0.94,0.57-1.61,0.57s-1.2-0.19-1.61-0.57S451.92,20.23,451.92,19.63z M456.11,38.25h-3.96V23.46h3.96
		V38.25z"/>
	<path class="st0" d="M463.54,38.25h-3.96v-21h3.96V38.25z"/>
	<path class="st0" d="M470.96,38.25H467v-21h3.96V38.25z"/>
	<path class="st0" d="M474.19,19.63c0-0.59,0.2-1.08,0.59-1.46s0.94-0.57,1.62-0.57c0.67,0,1.21,0.19,1.61,0.57s0.6,0.87,0.6,1.46
		c0,0.6-0.2,1.09-0.61,1.48s-0.94,0.57-1.61,0.57s-1.2-0.19-1.61-0.57S474.19,20.23,474.19,19.63z M478.38,38.25h-3.96V23.46h3.96
		V38.25z"/>
	<path class="st0" d="M481.02,30.72c0-1.47,0.28-2.78,0.85-3.92s1.38-2.04,2.44-2.67s2.29-0.94,3.7-0.94c2,0,3.62,0.61,4.89,1.83
		c1.26,1.22,1.97,2.88,2.11,4.98l0.03,1.01c0,2.27-0.63,4.09-1.9,5.46c-1.27,1.37-2.97,2.06-5.1,2.06s-3.83-0.68-5.11-2.05
		s-1.91-3.23-1.91-5.58V30.72z M484.97,31c0,1.41,0.26,2.48,0.79,3.22c0.53,0.74,1.29,1.12,2.27,1.12c0.96,0,1.7-0.37,2.24-1.1
		c0.54-0.73,0.81-1.91,0.81-3.53c0-1.38-0.27-2.45-0.81-3.2c-0.54-0.76-1.29-1.14-2.27-1.14c-0.97,0-1.71,0.38-2.24,1.13
		C485.24,28.26,484.97,29.42,484.97,31z"/>
	<path class="st0" d="M501.11,23.46l0.12,1.71c1.06-1.32,2.47-1.98,4.25-1.98c1.57,0,2.73,0.46,3.5,1.38
		c0.77,0.92,1.16,2.3,1.18,4.13v9.56h-3.95v-9.46c0-0.84-0.18-1.45-0.55-1.83c-0.36-0.38-0.97-0.57-1.82-0.57
		c-1.11,0-1.95,0.47-2.5,1.42v10.43h-3.95V23.46H501.11z"/>
	<path class="st0" d="M236.78,51.09c0-0.51,0.17-0.93,0.51-1.25s0.8-0.49,1.39-0.49c0.58,0,1.04,0.16,1.38,0.49s0.52,0.75,0.52,1.25
		c0,0.52-0.17,0.94-0.52,1.27s-0.81,0.49-1.38,0.49s-1.03-0.16-1.38-0.49S236.78,51.61,236.78,51.09z M240.38,67.05h-3.4V54.38h3.4
		V67.05z"/>
	<path class="st0" d="M242.64,60.62c0-1.98,0.44-3.55,1.33-4.72s2.1-1.76,3.64-1.76c1.23,0,2.25,0.46,3.06,1.38v-6.47h3.4v18H251
		l-0.16-1.35c-0.84,1.05-1.93,1.58-3.26,1.58c-1.49,0-2.69-0.59-3.59-1.76S242.64,62.71,242.64,60.62z M246.02,60.87
		c0,1.19,0.21,2.1,0.62,2.73s1.02,0.95,1.8,0.95c1.05,0,1.79-0.44,2.21-1.33v-5.01c-0.42-0.88-1.15-1.33-2.19-1.33
		C246.84,56.89,246.02,58.22,246.02,60.87z"/>
	<path class="st0" d="M262.52,67.29c-1.86,0-3.37-0.57-4.54-1.71s-1.75-2.66-1.75-4.56v-0.33c0-1.27,0.25-2.41,0.74-3.42
		s1.19-1.78,2.09-2.32s1.93-0.81,3.09-0.81c1.73,0,3.1,0.55,4.1,1.64s1.49,2.64,1.49,4.65v1.38h-8.07c0.11,0.83,0.44,1.49,0.99,1.99
		s1.25,0.75,2.09,0.75c1.3,0,2.32-0.47,3.06-1.42l1.66,1.86c-0.51,0.72-1.2,1.28-2.06,1.68S263.58,67.29,262.52,67.29z
		 M262.14,56.87c-0.67,0-1.22,0.23-1.63,0.68c-0.42,0.46-0.69,1.11-0.8,1.96h4.71v-0.27c-0.02-0.75-0.22-1.34-0.61-1.75
		S262.86,56.87,262.14,56.87z"/>
	<path class="st0" d="M272.78,54.38l0.11,1.46c0.91-1.13,2.12-1.7,3.64-1.7c1.34,0,2.34,0.39,3,1.18s0.99,1.97,1.01,3.54v8.19h-3.39
		v-8.11c0-0.72-0.16-1.24-0.47-1.56s-0.83-0.49-1.56-0.49c-0.95,0-1.67,0.41-2.14,1.22v8.94h-3.39V54.38H272.78z"/>
	<path class="st0" d="M287.16,51.26v3.12h2.17v2.48h-2.17v6.33c0,0.47,0.09,0.8,0.27,1.01s0.52,0.3,1.03,0.3
		c0.38,0,0.71-0.03,1-0.08v2.57c-0.66,0.2-1.35,0.3-2.05,0.3c-2.38,0-3.59-1.2-3.63-3.6v-6.83h-1.85v-2.48h1.85v-3.12H287.16z"/>
	<path class="st0" d="M291.19,51.09c0-0.51,0.17-0.93,0.51-1.25s0.8-0.49,1.39-0.49c0.58,0,1.04,0.16,1.38,0.49s0.52,0.75,0.52,1.25
		c0,0.52-0.17,0.94-0.52,1.27s-0.81,0.49-1.38,0.49s-1.03-0.16-1.38-0.49S291.19,51.61,291.19,51.09z M294.79,67.05h-3.4V54.38h3.4
		V67.05z"/>
	<path class="st0" d="M301.63,51.26v3.12h2.17v2.48h-2.17v6.33c0,0.47,0.09,0.8,0.27,1.01s0.52,0.3,1.03,0.3
		c0.38,0,0.71-0.03,1-0.08v2.57c-0.66,0.2-1.35,0.3-2.05,0.3c-2.38,0-3.59-1.2-3.63-3.6v-6.83h-1.85v-2.48h1.85v-3.12H301.63z"/>
	<path class="st0" d="M310.42,62.26l2.34-7.89h3.63l-5.1,14.65l-0.28,0.67c-0.76,1.66-2.01,2.48-3.75,2.48
		c-0.49,0-0.99-0.07-1.5-0.22v-2.57l0.52,0.01c0.64,0,1.12-0.1,1.44-0.29s0.56-0.52,0.74-0.97l0.4-1.04l-4.44-12.71h3.64
		L310.42,62.26z"/>
	<path class="st0" d="M327.76,51.26v3.12h2.17v2.48h-2.17v6.33c0,0.47,0.09,0.8,0.27,1.01s0.52,0.3,1.03,0.3
		c0.38,0,0.71-0.03,1-0.08v2.57c-0.66,0.2-1.35,0.3-2.05,0.3c-2.38,0-3.59-1.2-3.63-3.6v-6.83h-1.85v-2.48h1.85v-3.12H327.76z"/>
	<path class="st0" d="M335.12,55.76c0.9-1.08,2.03-1.62,3.39-1.62c2.75,0,4.14,1.6,4.18,4.79v8.12h-3.39v-8.03
		c0-0.73-0.16-1.26-0.47-1.61s-0.83-0.52-1.56-0.52c-0.99,0-1.71,0.38-2.16,1.15v9.01h-3.39v-18h3.39V55.76z"/>
	<path class="st0" d="M351.08,67.29c-1.86,0-3.37-0.57-4.54-1.71s-1.75-2.66-1.75-4.56v-0.33c0-1.27,0.25-2.41,0.74-3.42
		s1.19-1.78,2.09-2.32s1.93-0.81,3.09-0.81c1.73,0,3.1,0.55,4.1,1.64s1.49,2.64,1.49,4.65v1.38h-8.07c0.11,0.83,0.44,1.49,0.99,1.99
		s1.25,0.75,2.09,0.75c1.3,0,2.32-0.47,3.06-1.42l1.66,1.86c-0.51,0.72-1.2,1.28-2.06,1.68S352.14,67.29,351.08,67.29z M350.7,56.87
		c-0.67,0-1.22,0.23-1.63,0.68c-0.42,0.46-0.69,1.11-0.8,1.96h4.71v-0.27c-0.02-0.75-0.22-1.34-0.61-1.75S351.41,56.87,350.7,56.87z
		"/>
	<path class="st0" d="M359.15,67.05v-10.2h-1.89v-2.48h1.89V53.3c0-1.42,0.41-2.53,1.22-3.31s1.96-1.18,3.43-1.18
		c0.47,0,1.04,0.08,1.72,0.23l-0.04,2.62c-0.28-0.07-0.63-0.11-1.03-0.11c-1.27,0-1.91,0.6-1.91,1.79v1.02h2.52v2.48h-2.52v10.2
		H359.15z"/>
	<path class="st0" d="M370.88,51.26v3.12h2.17v2.48h-2.17v6.33c0,0.47,0.09,0.8,0.27,1.01s0.52,0.3,1.03,0.3
		c0.38,0,0.71-0.03,1-0.08v2.57c-0.66,0.2-1.35,0.3-2.05,0.3c-2.38,0-3.59-1.2-3.63-3.6v-6.83h-1.85v-2.48h1.85v-3.12H370.88z"/>
	<path class="st0" d="M385.65,62.92l2.36-8.54h3.54l-4.28,12.68h-3.23l-4.28-12.68h3.54L385.65,62.92z"/>
	<path class="st0" d="M393.01,51.09c0-0.51,0.17-0.93,0.51-1.25s0.8-0.49,1.39-0.49c0.58,0,1.04,0.16,1.38,0.49s0.52,0.75,0.52,1.25
		c0,0.52-0.17,0.94-0.52,1.27s-0.81,0.49-1.38,0.49s-1.03-0.16-1.38-0.49S393.01,51.61,393.01,51.09z M396.61,67.05h-3.4V54.38h3.4
		V67.05z"/>
	<path class="st0" d="M404.67,64.56c0.62,0,1.13-0.17,1.52-0.52s0.59-0.8,0.61-1.37h3.18c-0.01,0.86-0.24,1.65-0.7,2.36
		s-1.09,1.27-1.89,1.66s-1.69,0.59-2.65,0.59c-1.81,0-3.24-0.58-4.29-1.73s-1.57-2.74-1.57-4.78v-0.22c0-1.95,0.52-3.51,1.56-4.68
		s2.46-1.75,4.28-1.75c1.59,0,2.86,0.45,3.81,1.35s1.44,2.1,1.46,3.6h-3.18c-0.02-0.66-0.22-1.2-0.61-1.61
		c-0.39-0.41-0.91-0.62-1.55-0.62c-0.79,0-1.38,0.29-1.79,0.86s-0.6,1.51-0.6,2.8v0.35c0,1.31,0.2,2.25,0.6,2.82
		C403.25,64.27,403.86,64.56,404.67,64.56z"/>
	<path class="st0" d="M415.97,51.26v3.12h2.17v2.48h-2.17v6.33c0,0.47,0.09,0.8,0.27,1.01s0.52,0.3,1.03,0.3
		c0.38,0,0.71-0.03,1-0.08v2.57c-0.66,0.2-1.35,0.3-2.05,0.3c-2.38,0-3.59-1.2-3.63-3.6v-6.83h-1.85v-2.48h1.85v-3.12H415.97z"/>
	<path class="st0" d="M420,51.09c0-0.51,0.17-0.93,0.51-1.25s0.8-0.49,1.39-0.49c0.58,0,1.04,0.16,1.38,0.49s0.52,0.75,0.52,1.25
		c0,0.52-0.17,0.94-0.52,1.27s-0.81,0.49-1.38,0.49s-1.03-0.16-1.38-0.49S420,51.61,420,51.09z M423.6,67.05h-3.4V54.38h3.4V67.05z"
		/>
	<path class="st0" d="M429.56,54.38l0.11,1.42c0.9-1.1,2.11-1.65,3.64-1.65c1.63,0,2.75,0.64,3.36,1.93
		c0.89-1.29,2.16-1.93,3.81-1.93c1.38,0,2.4,0.4,3.07,1.2s1.01,2.01,1.01,3.62v8.1h-3.4v-8.09c0-0.72-0.14-1.24-0.42-1.58
		s-0.78-0.5-1.49-0.5c-1.02,0-1.72,0.48-2.11,1.45l0.01,8.71h-3.39v-8.07c0-0.73-0.14-1.27-0.43-1.59s-0.78-0.49-1.48-0.49
		c-0.96,0-1.66,0.4-2.09,1.2v8.96h-3.39V54.38H429.56z"/>
	<path class="st0" d="M454.03,63.55c0-0.41-0.21-0.74-0.62-0.98s-1.07-0.45-1.97-0.64c-3.02-0.63-4.52-1.91-4.52-3.84
		c0-1.12,0.47-2.06,1.4-2.82s2.15-1.13,3.66-1.13c1.61,0,2.9,0.38,3.86,1.14s1.45,1.74,1.45,2.95h-3.39c0-0.48-0.16-0.88-0.47-1.2
		s-0.8-0.47-1.46-0.47c-0.57,0-1.01,0.13-1.32,0.39s-0.47,0.59-0.47,0.98c0,0.38,0.18,0.68,0.53,0.91s0.96,0.43,1.8,0.6
		s1.55,0.36,2.13,0.57c1.79,0.66,2.68,1.79,2.68,3.41c0,1.16-0.5,2.09-1.49,2.81s-2.27,1.07-3.84,1.07c-1.06,0-2.01-0.19-2.83-0.57
		s-1.47-0.9-1.94-1.56s-0.7-1.37-0.7-2.14h3.21c0.03,0.6,0.25,1.06,0.67,1.38s0.97,0.48,1.66,0.48c0.65,0,1.14-0.12,1.47-0.37
		S454.03,63.95,454.03,63.55z"/>
	<path class="st0" d="M465.46,51.09c0-0.51,0.17-0.93,0.51-1.25s0.8-0.49,1.39-0.49c0.58,0,1.04,0.16,1.38,0.49s0.52,0.75,0.52,1.25
		c0,0.52-0.17,0.94-0.52,1.27s-0.81,0.49-1.38,0.49s-1.03-0.16-1.38-0.49S465.46,51.61,465.46,51.09z M469.06,67.05h-3.4V54.38h3.4
		V67.05z"/>
	<path class="st0" d="M474.96,54.38l0.11,1.46c0.91-1.13,2.12-1.7,3.64-1.7c1.34,0,2.34,0.39,3,1.18s0.99,1.97,1.01,3.54v8.19h-3.39
		v-8.11c0-0.72-0.16-1.24-0.47-1.56s-0.83-0.49-1.56-0.49c-0.95,0-1.67,0.41-2.14,1.22v8.94h-3.39V54.38H474.96z"/>
	<path class="st0" d="M502.82,67.05h-11.7v-2.32l5.52-5.88c0.76-0.83,1.32-1.55,1.68-2.17s0.54-1.2,0.54-1.76
		c0-0.76-0.19-1.35-0.57-1.79s-0.93-0.65-1.64-0.65c-0.77,0-1.37,0.26-1.81,0.79s-0.66,1.22-0.66,2.08h-3.4
		c0-1.04,0.25-1.99,0.74-2.85s1.2-1.53,2.1-2.02s1.93-0.73,3.08-0.73c1.76,0,3.12,0.42,4.1,1.27s1.46,2.04,1.46,3.57
		c0,0.84-0.22,1.7-0.66,2.58s-1.19,1.89-2.25,3.06l-3.88,4.09h7.34V67.05z"/>
	<path class="st0" d="M516.38,60c0,2.36-0.49,4.16-1.46,5.41s-2.41,1.88-4.29,1.88c-1.86,0-3.28-0.61-4.27-1.84
		s-1.49-2.98-1.51-5.27v-3.14c0-2.38,0.49-4.19,1.48-5.43s2.41-1.85,4.27-1.85s3.28,0.61,4.27,1.83s1.49,2.98,1.51,5.27V60z
		 M512.99,56.55c0-1.42-0.19-2.45-0.58-3.09c-0.39-0.64-0.99-0.97-1.81-0.97c-0.8,0-1.38,0.31-1.76,0.92
		c-0.38,0.61-0.58,1.57-0.6,2.88v4.15c0,1.39,0.19,2.43,0.57,3.1c0.38,0.68,0.99,1.02,1.82,1.02c0.83,0,1.43-0.32,1.79-0.97
		c0.37-0.65,0.56-1.64,0.57-2.98V56.55z"/>
	<path class="st0" d="M526.89,67.05h-3.39V54l-4.04,1.25V52.5l7.07-2.53h0.36V67.05z"/>
	<path class="st0" d="M540.35,60.23c-0.88,0.87-1.91,1.3-3.09,1.3c-1.51,0-2.71-0.52-3.62-1.55s-1.36-2.43-1.36-4.19
		c0-1.12,0.24-2.14,0.73-3.08s1.17-1.66,2.04-2.18s1.86-0.78,2.95-0.78c1.12,0,2.12,0.28,3,0.84s1.55,1.37,2.04,2.43
		s0.73,2.26,0.74,3.62v1.25c0,2.84-0.71,5.08-2.12,6.7s-3.42,2.49-6.01,2.6l-0.83,0.01v-2.82l0.75-0.01
		C538.52,64.25,540.11,62.87,540.35,60.23z M538.09,58.95c0.55,0,1.02-0.14,1.41-0.42s0.69-0.62,0.9-1.02v-1.39
		c0-1.15-0.22-2.04-0.66-2.67s-1.02-0.95-1.76-0.95c-0.68,0-1.24,0.31-1.68,0.93s-0.66,1.4-0.66,2.34c0,0.93,0.21,1.69,0.64,2.29
		S537.32,58.95,538.09,58.95z"/>
	<path class="st0" d="M546.52,65.39c0-0.54,0.18-0.98,0.54-1.31s0.82-0.5,1.37-0.5c0.55,0,1.01,0.17,1.38,0.5s0.54,0.77,0.54,1.31
		c0,0.53-0.18,0.96-0.54,1.29s-0.82,0.5-1.38,0.5c-0.55,0-1.01-0.17-1.37-0.5S546.52,65.92,546.52,65.39z"/>
</g>
<g>
	<path class="st0" d="M552.68,52.9l-2.15-0.61l0.4-1.24l2.13,0.85l-0.14-2.38h1.34l-0.14,2.43l2.07-0.84l0.4,1.25l-2.19,0.61
		l1.44,1.82l-1.09,0.77l-1.24-2l-1.23,1.93l-1.09-0.74L552.68,52.9z"/>
</g>
</svg>
