<?xml version="1.0" encoding="utf-8"?>
<!-- Generator: Adobe Illustrator 24.2.3, SVG Export Plug-In . SVG Version: 6.00 Build 0)  -->
<svg version="1.1" id="Layer_1" xmlns="http://www.w3.org/2000/svg" xmlns:xlink="http://www.w3.org/1999/xlink" x="0px" y="0px"
	 viewBox="0 0 728 90" style="enable-background:new 0 0 728 90;" xml:space="preserve">
<style type="text/css">
	.st0{fill:#FFFFFF;}
</style>
<g>
	<path class="st0" d="M252.58,35.54c-0.12,1.68-0.74,3.01-1.86,3.97c-1.12,0.97-2.6,1.45-4.43,1.45c-2,0-3.58-0.67-4.73-2.02
		c-1.15-1.35-1.72-3.2-1.72-5.56v-0.96c0-1.5,0.26-2.83,0.79-3.97c0.53-1.15,1.29-2.02,2.27-2.64c0.99-0.61,2.13-0.92,3.43-0.92
		c1.8,0,3.26,0.48,4.36,1.45s1.74,2.32,1.91,4.07h-3.22c-0.08-1.01-0.36-1.74-0.84-2.2c-0.48-0.45-1.22-0.68-2.21-0.68
		c-1.07,0-1.88,0.39-2.41,1.15c-0.53,0.77-0.81,1.96-0.82,3.58v1.18c0,1.69,0.26,2.93,0.77,3.71c0.51,0.78,1.32,1.17,2.42,1.17
		c1,0,1.74-0.23,2.23-0.68c0.49-0.45,0.77-1.16,0.84-2.11H252.58z"/>
	<path class="st0" d="M254.01,34.84c0-1.15,0.22-2.18,0.67-3.08s1.08-1.6,1.92-2.09c0.83-0.49,1.8-0.74,2.91-0.74
		c1.57,0,2.85,0.48,3.84,1.44c0.99,0.96,1.54,2.26,1.66,3.91l0.02,0.79c0,1.78-0.5,3.21-1.49,4.29c-1,1.08-2.33,1.62-4.01,1.62
		s-3.01-0.54-4.01-1.61c-1-1.07-1.5-2.54-1.5-4.38V34.84z M257.11,35.06c0,1.1,0.21,1.95,0.62,2.53c0.42,0.58,1.01,0.88,1.78,0.88
		c0.75,0,1.34-0.29,1.76-0.87c0.42-0.58,0.63-1.5,0.63-2.77c0-1.08-0.21-1.92-0.63-2.52s-1.02-0.89-1.78-0.89
		c-0.76,0-1.35,0.3-1.76,0.89S257.11,33.81,257.11,35.06z"/>
	<path class="st0" d="M269.79,29.13l0.1,1.34c0.83-1.04,1.94-1.56,3.34-1.56c1.23,0,2.15,0.36,2.75,1.08
		c0.6,0.72,0.91,1.8,0.92,3.24v7.51h-3.1v-7.43c0-0.66-0.14-1.14-0.43-1.43c-0.29-0.3-0.76-0.45-1.43-0.45
		c-0.87,0-1.53,0.37-1.97,1.12v8.2h-3.1V29.13H269.79z"/>
	<path class="st0" d="M285.55,37.54c0-0.38-0.19-0.68-0.56-0.9c-0.38-0.22-0.98-0.41-1.81-0.59c-2.76-0.58-4.15-1.75-4.15-3.52
		c0-1.03,0.43-1.89,1.28-2.58c0.86-0.69,1.98-1.04,3.36-1.04c1.48,0,2.66,0.35,3.54,1.04c0.88,0.69,1.33,1.6,1.33,2.71h-3.1
		c0-0.44-0.14-0.81-0.43-1.1s-0.73-0.44-1.34-0.44c-0.52,0-0.93,0.12-1.21,0.35s-0.43,0.54-0.43,0.9c0,0.34,0.16,0.62,0.49,0.83
		c0.33,0.21,0.88,0.39,1.65,0.55c0.77,0.15,1.42,0.33,1.96,0.52c1.64,0.6,2.46,1.64,2.46,3.13c0,1.06-0.46,1.92-1.36,2.57
		s-2.08,0.98-3.52,0.98c-0.97,0-1.84-0.17-2.59-0.52c-0.75-0.35-1.35-0.82-1.78-1.43c-0.43-0.6-0.64-1.26-0.64-1.96h2.94
		c0.03,0.55,0.23,0.97,0.61,1.27c0.38,0.29,0.89,0.44,1.53,0.44c0.59,0,1.04-0.11,1.35-0.34C285.4,38.2,285.55,37.91,285.55,37.54z"
		/>
	<path class="st0" d="M297.53,39.57c-0.77,0.93-1.83,1.4-3.18,1.4c-1.25,0-2.2-0.36-2.85-1.07c-0.65-0.72-0.99-1.77-1-3.15v-7.62
		h3.1v7.52c0,1.21,0.55,1.82,1.65,1.82c1.05,0,1.78-0.37,2.17-1.1v-8.24h3.12v11.62h-2.92L297.53,39.57z"/>
	<path class="st0" d="M305.79,29.13l0.1,1.3c0.82-1.01,1.94-1.51,3.34-1.51c1.5,0,2.52,0.59,3.08,1.77
		c0.82-1.18,1.98-1.77,3.49-1.77c1.26,0,2.2,0.37,2.81,1.1c0.62,0.73,0.92,1.84,0.92,3.31v7.42h-3.12v-7.41
		c0-0.66-0.13-1.14-0.39-1.44c-0.26-0.3-0.71-0.46-1.36-0.46c-0.93,0-1.58,0.44-1.93,1.33l0.01,7.98h-3.1v-7.4
		c0-0.67-0.13-1.16-0.4-1.46s-0.72-0.45-1.35-0.45c-0.88,0-1.52,0.37-1.91,1.1v8.22h-3.1V29.13H305.79z"/>
	<path class="st0" d="M327.27,40.97c-1.7,0-3.09-0.52-4.16-1.57c-1.07-1.05-1.61-2.44-1.61-4.18v-0.3c0-1.17,0.23-2.21,0.68-3.13
		c0.45-0.92,1.09-1.63,1.92-2.13c0.83-0.5,1.77-0.75,2.83-0.75c1.59,0,2.84,0.5,3.75,1.5c0.91,1,1.37,2.42,1.37,4.26v1.27h-7.4
		c0.1,0.76,0.4,1.37,0.91,1.83c0.51,0.46,1.14,0.69,1.92,0.69c1.2,0,2.13-0.43,2.8-1.3l1.53,1.71c-0.47,0.66-1.1,1.17-1.89,1.54
		S328.24,40.97,327.27,40.97z M326.92,31.42c-0.62,0-1.12,0.21-1.5,0.63c-0.38,0.42-0.63,1.01-0.74,1.79H329v-0.25
		c-0.01-0.69-0.2-1.22-0.56-1.6C328.08,31.61,327.58,31.42,326.92,31.42z"/>
	<path class="st0" d="M340.34,32.04c-0.42-0.06-0.79-0.09-1.12-0.09c-1.17,0-1.94,0.4-2.31,1.19v7.61h-3.1V29.13h2.93l0.09,1.39
		c0.62-1.07,1.49-1.6,2.59-1.6c0.34,0,0.67,0.05,0.97,0.14L340.34,32.04z"/>
	<path class="st0" d="M348.13,37.54c0-0.38-0.19-0.68-0.56-0.9c-0.38-0.22-0.98-0.41-1.81-0.59c-2.76-0.58-4.15-1.75-4.15-3.52
		c0-1.03,0.43-1.89,1.28-2.58c0.86-0.69,1.98-1.04,3.36-1.04c1.48,0,2.66,0.35,3.54,1.04c0.88,0.69,1.33,1.6,1.33,2.71h-3.1
		c0-0.44-0.14-0.81-0.43-1.1s-0.73-0.44-1.34-0.44c-0.52,0-0.93,0.12-1.21,0.35s-0.43,0.54-0.43,0.9c0,0.34,0.16,0.62,0.49,0.83
		c0.33,0.21,0.88,0.39,1.65,0.55c0.77,0.15,1.42,0.33,1.96,0.52c1.64,0.6,2.46,1.64,2.46,3.13c0,1.06-0.46,1.92-1.36,2.57
		s-2.08,0.98-3.52,0.98c-0.97,0-1.84-0.17-2.59-0.52c-0.75-0.35-1.35-0.82-1.78-1.43c-0.43-0.6-0.64-1.26-0.64-1.96h2.94
		c0.03,0.55,0.23,0.97,0.61,1.27c0.38,0.29,0.89,0.44,1.53,0.44c0.59,0,1.04-0.11,1.35-0.34C347.98,38.2,348.13,37.91,348.13,37.54z
		"/>
	<path class="st0" d="M359.48,40.75v-9.35h-1.73v-2.28h1.73v-0.99c0-1.3,0.37-2.31,1.12-3.03c0.75-0.72,1.79-1.08,3.14-1.08
		c0.43,0,0.96,0.07,1.58,0.21l-0.03,2.41c-0.26-0.06-0.57-0.1-0.95-0.1c-1.17,0-1.75,0.55-1.75,1.64v0.93h2.31v2.28h-2.31v9.35
		H359.48z"/>
	<path class="st0" d="M373.25,40.75c-0.14-0.28-0.25-0.63-0.31-1.04c-0.75,0.84-1.73,1.26-2.93,1.26c-1.14,0-2.08-0.33-2.83-0.99
		c-0.75-0.66-1.12-1.49-1.12-2.49c0-1.23,0.46-2.18,1.37-2.84c0.91-0.66,2.23-0.99,3.96-1h1.43v-0.67c0-0.54-0.14-0.97-0.41-1.29
		c-0.28-0.32-0.71-0.48-1.31-0.48c-0.52,0-0.93,0.13-1.23,0.38c-0.3,0.25-0.45,0.59-0.45,1.03h-3.1c0-0.67,0.21-1.3,0.62-1.87
		c0.42-0.57,1-1.02,1.76-1.35c0.76-0.33,1.61-0.49,2.56-0.49c1.43,0,2.57,0.36,3.41,1.08c0.84,0.72,1.26,1.73,1.26,3.03v5.04
		c0.01,1.1,0.16,1.94,0.46,2.5v0.18H373.25z M370.68,38.6c0.46,0,0.88-0.1,1.27-0.31s0.67-0.48,0.86-0.82v-2h-1.16
		c-1.55,0-2.38,0.54-2.48,1.61l-0.01,0.18c0,0.39,0.14,0.71,0.41,0.96C369.84,38.47,370.21,38.6,370.68,38.6z"/>
	<path class="st0" d="M383.14,38.47c0.57,0,1.04-0.16,1.4-0.47c0.36-0.31,0.54-0.73,0.56-1.26h2.91c-0.01,0.79-0.22,1.51-0.64,2.16
		s-1,1.16-1.73,1.53c-0.73,0.36-1.55,0.54-2.43,0.54c-1.66,0-2.97-0.53-3.93-1.58c-0.96-1.06-1.44-2.52-1.44-4.38v-0.2
		c0-1.79,0.48-3.22,1.43-4.29c0.95-1.07,2.26-1.6,3.92-1.6c1.45,0,2.62,0.41,3.5,1.24c0.88,0.83,1.32,1.93,1.34,3.3h-2.91
		c-0.01-0.6-0.2-1.1-0.56-1.47s-0.83-0.57-1.42-0.57c-0.72,0-1.27,0.26-1.64,0.79c-0.37,0.53-0.55,1.38-0.55,2.57v0.32
		c0,1.2,0.18,2.06,0.55,2.58C381.84,38.2,382.4,38.47,383.14,38.47z"/>
	<path class="st0" d="M395.13,40.97c-1.7,0-3.09-0.52-4.16-1.57c-1.07-1.05-1.61-2.44-1.61-4.18v-0.3c0-1.17,0.23-2.21,0.68-3.13
		c0.45-0.92,1.09-1.63,1.92-2.13c0.83-0.5,1.77-0.75,2.83-0.75c1.59,0,2.84,0.5,3.75,1.5c0.91,1,1.37,2.42,1.37,4.26v1.27h-7.4
		c0.1,0.76,0.4,1.37,0.91,1.83c0.51,0.46,1.14,0.69,1.92,0.69c1.2,0,2.13-0.43,2.8-1.3l1.53,1.71c-0.47,0.66-1.1,1.17-1.89,1.54
		S396.1,40.97,395.13,40.97z M394.78,31.42c-0.62,0-1.12,0.21-1.5,0.63c-0.38,0.42-0.63,1.01-0.74,1.79h4.32v-0.25
		c-0.01-0.69-0.2-1.22-0.56-1.6C395.94,31.61,395.43,31.42,394.78,31.42z"/>
	<path class="st0" d="M401.19,34.86c0-1.81,0.41-3.25,1.22-4.33c0.81-1.07,1.92-1.61,3.34-1.61c1.13,0,2.07,0.42,2.8,1.27v-5.93
		h3.12v16.5h-2.8l-0.15-1.24c-0.77,0.97-1.77,1.45-2.99,1.45c-1.37,0-2.46-0.54-3.29-1.62C401.6,38.27,401.19,36.78,401.19,34.86z
		 M404.29,35.09c0,1.09,0.19,1.93,0.57,2.51c0.38,0.58,0.93,0.87,1.65,0.87c0.96,0,1.64-0.41,2.03-1.22v-4.59
		c-0.39-0.81-1.06-1.22-2.01-1.22C405.04,31.44,404.29,32.66,404.29,35.09z"/>
	<path class="st0" d="M428.38,35.89c0-0.69-0.19-1.25-0.58-1.66c-0.38-0.41-1.04-0.79-1.96-1.14s-1.72-0.69-2.39-1.03
		s-1.24-0.74-1.72-1.18c-0.48-0.44-0.85-0.97-1.12-1.57c-0.27-0.6-0.4-1.32-0.4-2.15c0-1.43,0.46-2.6,1.37-3.52s2.13-1.45,3.64-1.6
		v-2.72h2.03v2.75c1.5,0.21,2.67,0.84,3.52,1.87s1.27,2.38,1.27,4.03h-3.67c0-1.02-0.21-1.78-0.63-2.28
		c-0.42-0.5-0.98-0.76-1.68-0.76c-0.69,0-1.23,0.2-1.61,0.59s-0.57,0.94-0.57,1.63c0,0.64,0.19,1.16,0.56,1.55s1.06,0.79,2.08,1.19
		c1.01,0.41,1.84,0.79,2.49,1.15s1.2,0.77,1.65,1.22s0.79,0.97,1.03,1.55s0.36,1.25,0.36,2.02c0,1.44-0.45,2.61-1.35,3.5
		s-2.13,1.43-3.71,1.59v2.53h-2.02v-2.51c-1.74-0.19-3.08-0.8-4.03-1.85c-0.95-1.05-1.43-2.44-1.43-4.17h3.67
		c0,1.01,0.24,1.78,0.72,2.32c0.48,0.54,1.17,0.81,2.06,0.81c0.75,0,1.33-0.2,1.76-0.59S428.38,36.56,428.38,35.89z"/>
	<path class="st0" d="M438.26,29.89h1.96c0.93,0,1.62-0.23,2.07-0.7s0.67-1.08,0.67-1.85c0-0.74-0.22-1.32-0.67-1.74
		c-0.44-0.41-1.06-0.62-1.83-0.62c-0.7,0-1.29,0.19-1.76,0.58s-0.71,0.89-0.71,1.5h-3.67c0-0.96,0.26-1.83,0.78-2.6
		c0.52-0.77,1.25-1.36,2.18-1.8c0.93-0.43,1.96-0.65,3.09-0.65c1.96,0,3.49,0.47,4.6,1.4s1.66,2.22,1.66,3.87
		c0,0.85-0.26,1.62-0.77,2.34s-1.19,1.26-2.03,1.64c1.04,0.37,1.82,0.93,2.33,1.68c0.51,0.74,0.77,1.62,0.77,2.64
		c0,1.64-0.6,2.96-1.8,3.95c-1.2,0.99-2.78,1.49-4.75,1.49c-1.84,0-3.35-0.49-4.53-1.46c-1.17-0.97-1.76-2.26-1.76-3.86h3.67
		c0,0.69,0.26,1.26,0.78,1.7c0.52,0.44,1.16,0.66,1.92,0.66c0.87,0,1.55-0.23,2.05-0.69c0.49-0.46,0.74-1.07,0.74-1.83
		c0-1.85-1.02-2.77-3.05-2.77h-1.94V29.89z"/>
	<path class="st0" d="M449.79,38.95c0-0.58,0.2-1.06,0.59-1.42c0.39-0.36,0.89-0.55,1.48-0.55c0.6,0,1.1,0.18,1.49,0.55
		c0.39,0.36,0.59,0.84,0.59,1.42c0,0.58-0.19,1.04-0.58,1.4s-0.89,0.54-1.5,0.54c-0.6,0-1.1-0.18-1.49-0.54
		S449.79,39.53,449.79,38.95z"/>
	<path class="st0" d="M457.54,31.66l1.07-9.39h10.36v3.06h-7.35l-0.46,3.97c0.87-0.47,1.8-0.7,2.78-0.7c1.76,0,3.14,0.55,4.14,1.64
		s1.5,2.62,1.5,4.58c0,1.19-0.25,2.26-0.76,3.21c-0.5,0.94-1.22,1.68-2.16,2.2s-2.05,0.78-3.33,0.78c-1.12,0-2.15-0.23-3.11-0.68
		s-1.71-1.09-2.27-1.91c-0.55-0.82-0.85-1.76-0.88-2.81h3.63c0.08,0.77,0.34,1.37,0.81,1.8c0.46,0.43,1.06,0.64,1.81,0.64
		c0.83,0,1.47-0.3,1.92-0.9s0.67-1.44,0.67-2.53c0-1.05-0.26-1.85-0.77-2.41s-1.25-0.84-2.2-0.84c-0.87,0-1.58,0.23-2.12,0.69
		l-0.36,0.33L457.54,31.66z"/>
	<path class="st0" d="M490.92,34.01c0,2.2-0.47,3.92-1.41,5.15s-2.25,1.85-3.94,1.85c-1.49,0-2.68-0.57-3.57-1.71l-0.17,1.46h-3.3
		v-19.5h3.67v7c0.85-0.99,1.96-1.49,3.34-1.49c1.68,0,2.99,0.62,3.94,1.85c0.95,1.23,1.43,2.96,1.43,5.2V34.01z M487.25,33.75
		c0-1.39-0.22-2.4-0.66-3.04s-1.1-0.96-1.97-0.96c-1.17,0-1.97,0.48-2.41,1.43v5.42c0.45,0.96,1.26,1.45,2.44,1.45
		c1.18,0,1.96-0.58,2.34-1.75C487.16,35.74,487.25,34.89,487.25,33.75z"/>
	<path class="st0" d="M493.16,23.46c0-0.55,0.18-1,0.55-1.36c0.37-0.36,0.87-0.53,1.5-0.53c0.63,0,1.13,0.18,1.5,0.53
		s0.56,0.81,0.56,1.36c0,0.56-0.19,1.02-0.57,1.37c-0.38,0.36-0.87,0.53-1.49,0.53s-1.12-0.18-1.49-0.53
		C493.34,24.48,493.16,24.02,493.16,23.46z M497.05,40.75h-3.68V27.02h3.68V40.75z"/>
	<path class="st0" d="M503.95,40.75h-3.68v-19.5h3.68V40.75z"/>
	<path class="st0" d="M510.84,40.75h-3.68v-19.5h3.68V40.75z"/>
	<path class="st0" d="M513.84,23.46c0-0.55,0.18-1,0.55-1.36c0.37-0.36,0.87-0.53,1.5-0.53c0.63,0,1.13,0.18,1.5,0.53
		s0.56,0.81,0.56,1.36c0,0.56-0.19,1.02-0.57,1.37c-0.38,0.36-0.87,0.53-1.49,0.53s-1.12-0.18-1.49-0.53
		C514.02,24.48,513.84,24.02,513.84,23.46z M517.73,40.75h-3.68V27.02h3.68V40.75z"/>
	<path class="st0" d="M520.18,33.76c0-1.36,0.26-2.58,0.79-3.64s1.28-1.89,2.27-2.48c0.99-0.58,2.13-0.88,3.43-0.88
		c1.85,0,3.37,0.57,4.54,1.7c1.17,1.13,1.83,2.67,1.96,4.62l0.03,0.94c0,2.11-0.59,3.8-1.76,5.07s-2.75,1.91-4.74,1.91
		s-3.56-0.63-4.74-1.9c-1.18-1.27-1.77-3-1.77-5.18V33.76z M523.85,34.02c0,1.31,0.25,2.3,0.74,2.99s1.19,1.04,2.11,1.04
		c0.89,0,1.58-0.34,2.08-1.02c0.5-0.68,0.75-1.77,0.75-3.27c0-1.28-0.25-2.27-0.75-2.98c-0.5-0.7-1.2-1.06-2.11-1.06
		c-0.9,0-1.59,0.35-2.08,1.05C524.1,31.47,523.85,32.55,523.85,34.02z"/>
	<path class="st0" d="M538.83,27.02l0.11,1.59c0.98-1.23,2.3-1.84,3.95-1.84c1.46,0,2.54,0.43,3.25,1.28s1.08,2.13,1.09,3.83v8.87
		h-3.67v-8.79c0-0.78-0.17-1.34-0.51-1.69s-0.9-0.53-1.69-0.53c-1.03,0-1.81,0.44-2.32,1.32v9.69h-3.67V27.02H538.83z"/>
	<path class="st0" d="M252.94,49.77c0-0.46,0.16-0.85,0.47-1.15c0.31-0.3,0.74-0.45,1.27-0.45c0.53,0,0.95,0.15,1.27,0.45
		s0.47,0.68,0.47,1.15c0,0.47-0.16,0.86-0.48,1.16c-0.32,0.3-0.74,0.45-1.26,0.45s-0.94-0.15-1.26-0.45
		C253.1,50.63,252.94,50.25,252.94,49.77z M256.23,64.4h-3.12V52.78h3.12V64.4z"/>
	<path class="st0" d="M261.65,52.78l0.1,1.34c0.83-1.04,1.94-1.56,3.34-1.56c1.23,0,2.15,0.36,2.75,1.09
		c0.6,0.72,0.91,1.8,0.92,3.24v7.51h-3.1v-7.43c0-0.66-0.14-1.14-0.43-1.43s-0.76-0.45-1.43-0.45c-0.87,0-1.53,0.37-1.97,1.12v8.2
		h-3.1V52.78H261.65z"/>
	<path class="st0" d="M276.11,58.49c0-1.15,0.22-2.18,0.67-3.08s1.08-1.6,1.92-2.09c0.83-0.49,1.8-0.74,2.91-0.74
		c1.57,0,2.85,0.48,3.84,1.44c0.99,0.96,1.54,2.26,1.66,3.91l0.02,0.79c0,1.78-0.5,3.21-1.49,4.29c-1,1.08-2.33,1.62-4.01,1.62
		s-3.01-0.54-4.01-1.61c-1-1.07-1.5-2.54-1.5-4.38V58.49z M279.21,58.71c0,1.1,0.21,1.95,0.62,2.53c0.42,0.58,1.01,0.88,1.78,0.88
		c0.75,0,1.34-0.29,1.76-0.87c0.42-0.58,0.63-1.5,0.63-2.77c0-1.08-0.21-1.92-0.63-2.52s-1.02-0.89-1.78-0.89
		c-0.76,0-1.35,0.29-1.76,0.89S279.21,57.46,279.21,58.71z"/>
	<path class="st0" d="M295.99,63.22c-0.77,0.93-1.83,1.4-3.18,1.4c-1.25,0-2.2-0.36-2.85-1.07c-0.65-0.71-0.99-1.76-1-3.15v-7.62
		h3.1v7.52c0,1.21,0.55,1.82,1.65,1.82c1.05,0,1.78-0.37,2.17-1.1v-8.24H299V64.4h-2.92L295.99,63.22z"/>
	<path class="st0" d="M305.06,49.92v2.86h1.99v2.28h-1.99v5.8c0,0.43,0.08,0.74,0.25,0.92c0.17,0.19,0.48,0.28,0.95,0.28
		c0.34,0,0.65-0.02,0.91-0.07v2.35c-0.61,0.19-1.24,0.28-1.88,0.28c-2.18,0-3.29-1.1-3.33-3.3v-6.26h-1.7v-2.28h1.7v-2.86H305.06z"
		/>
	<path class="st0" d="M314.81,58.96h-6.05v-2.5h6.05V58.96z"/>
	<path class="st0" d="M316.82,58.49c0-1.15,0.22-2.18,0.67-3.08s1.08-1.6,1.92-2.09c0.83-0.49,1.8-0.74,2.91-0.74
		c1.57,0,2.85,0.48,3.84,1.44c0.99,0.96,1.54,2.26,1.66,3.91l0.02,0.79c0,1.78-0.5,3.21-1.49,4.29c-1,1.08-2.33,1.62-4.01,1.62
		s-3.01-0.54-4.01-1.61c-1-1.07-1.5-2.54-1.5-4.38V58.49z M319.93,58.71c0,1.1,0.21,1.95,0.62,2.53c0.42,0.58,1.01,0.88,1.78,0.88
		c0.75,0,1.34-0.29,1.76-0.87c0.42-0.58,0.63-1.5,0.63-2.77c0-1.08-0.21-1.92-0.63-2.52s-1.02-0.89-1.78-0.89
		c-0.76,0-1.35,0.29-1.76,0.89S319.93,57.46,319.93,58.71z"/>
	<path class="st0" d="M330.59,64.4v-9.35h-1.73v-2.28h1.73v-0.99c0-1.3,0.37-2.31,1.12-3.03c0.75-0.72,1.79-1.08,3.14-1.08
		c0.43,0,0.96,0.07,1.58,0.21l-0.03,2.41c-0.26-0.06-0.57-0.1-0.95-0.1c-1.17,0-1.75,0.55-1.75,1.64v0.93h2.31v2.28h-2.31v9.35
		H330.59z"/>
	<path class="st0" d="M343.67,58.96h-6.05v-2.5h6.05V58.96z"/>
	<path class="st0" d="M356.62,58.7c0,1.79-0.41,3.22-1.22,4.3c-0.81,1.08-1.91,1.62-3.29,1.62c-1.17,0-2.12-0.41-2.85-1.22v5.48
		h-3.1V52.78h2.88l0.11,1.14c0.75-0.9,1.73-1.35,2.94-1.35c1.43,0,2.55,0.53,3.34,1.59c0.79,1.06,1.19,2.52,1.19,4.38V58.7z
		 M353.52,58.47c0-1.08-0.19-1.92-0.57-2.5c-0.38-0.59-0.94-0.88-1.67-0.88c-0.97,0-1.64,0.37-2.01,1.12v4.76
		c0.38,0.77,1.06,1.15,2.03,1.15C352.77,62.12,353.52,60.9,353.52,58.47z"/>
	<path class="st0" d="M358.06,58.49c0-1.15,0.22-2.18,0.67-3.08s1.08-1.6,1.92-2.09c0.83-0.49,1.8-0.74,2.91-0.74
		c1.57,0,2.85,0.48,3.84,1.44c0.99,0.96,1.54,2.26,1.66,3.91l0.02,0.79c0,1.78-0.5,3.21-1.49,4.29c-1,1.08-2.33,1.62-4.01,1.62
		c-1.68,0-3.01-0.54-4.01-1.61c-1-1.07-1.5-2.54-1.5-4.38V58.49z M361.16,58.71c0,1.1,0.21,1.95,0.62,2.53
		c0.42,0.58,1.01,0.88,1.78,0.88c0.75,0,1.34-0.29,1.76-0.87c0.42-0.58,0.63-1.5,0.63-2.77c0-1.08-0.21-1.92-0.63-2.52
		c-0.42-0.6-1.02-0.89-1.78-0.89c-0.76,0-1.35,0.29-1.76,0.89S361.16,57.46,361.16,58.71z"/>
	<path class="st0" d="M375.82,62.12c0.57,0,1.04-0.16,1.4-0.47c0.36-0.32,0.54-0.73,0.56-1.26h2.91c-0.01,0.79-0.22,1.51-0.64,2.17
		s-1,1.16-1.73,1.53c-0.73,0.36-1.55,0.54-2.43,0.54c-1.66,0-2.97-0.53-3.93-1.58s-1.44-2.52-1.44-4.38v-0.21
		c0-1.79,0.48-3.22,1.43-4.29c0.95-1.07,2.26-1.6,3.92-1.6c1.45,0,2.62,0.41,3.5,1.24c0.88,0.83,1.32,1.93,1.34,3.3h-2.91
		c-0.01-0.61-0.2-1.1-0.56-1.47s-0.83-0.57-1.42-0.57c-0.72,0-1.27,0.26-1.64,0.79c-0.37,0.53-0.55,1.38-0.55,2.57v0.32
		c0,1.2,0.18,2.06,0.55,2.58C374.52,61.86,375.07,62.12,375.82,62.12z"/>
	<path class="st0" d="M386.68,59.74l-1.12,1.12v3.54h-3.1V47.9h3.1v9.14l0.6-0.77l2.98-3.49h3.73l-4.2,4.85l4.57,6.78h-3.57
		L386.68,59.74z"/>
	<path class="st0" d="M399.56,64.62c-1.7,0-3.09-0.52-4.16-1.57c-1.07-1.04-1.61-2.44-1.61-4.18v-0.3c0-1.17,0.23-2.21,0.68-3.13
		c0.45-0.92,1.09-1.63,1.92-2.13c0.83-0.5,1.77-0.75,2.83-0.75c1.59,0,2.84,0.5,3.75,1.5c0.91,1,1.37,2.42,1.37,4.27v1.27h-7.4
		c0.1,0.76,0.4,1.37,0.91,1.83c0.51,0.46,1.14,0.69,1.92,0.69c1.2,0,2.13-0.43,2.8-1.3l1.53,1.71c-0.47,0.66-1.1,1.17-1.89,1.54
		S400.52,64.62,399.56,64.62z M399.2,55.07c-0.62,0-1.12,0.21-1.5,0.62c-0.38,0.42-0.63,1.01-0.74,1.79h4.32v-0.25
		c-0.01-0.69-0.2-1.22-0.56-1.6C400.37,55.26,399.86,55.07,399.2,55.07z"/>
	<path class="st0" d="M409.82,49.92v2.86h1.99v2.28h-1.99v5.8c0,0.43,0.08,0.74,0.25,0.92c0.17,0.19,0.48,0.28,0.95,0.28
		c0.34,0,0.65-0.02,0.91-0.07v2.35c-0.61,0.19-1.24,0.28-1.88,0.28c-2.18,0-3.29-1.1-3.33-3.3v-6.26h-1.7v-2.28h1.7v-2.86H409.82z"
		/>
	<path class="st0" d="M419.86,64.4v-9.35h-1.73v-2.28h1.73v-0.99c0-1.3,0.37-2.31,1.12-3.03c0.75-0.72,1.79-1.08,3.14-1.08
		c0.43,0,0.96,0.07,1.58,0.21l-0.03,2.41c-0.26-0.06-0.57-0.1-0.95-0.1c-1.17,0-1.75,0.55-1.75,1.64v0.93h2.31v2.28h-2.31v9.35
		H419.86z"/>
	<path class="st0" d="M433.43,55.69c-0.42-0.06-0.79-0.09-1.12-0.09c-1.17,0-1.94,0.4-2.31,1.19v7.61h-3.1V52.78h2.93l0.09,1.39
		c0.62-1.07,1.49-1.6,2.59-1.6c0.34,0,0.67,0.05,0.97,0.14L433.43,55.69z"/>
	<path class="st0" d="M441.33,64.4c-0.14-0.28-0.25-0.63-0.31-1.04c-0.75,0.84-1.73,1.26-2.93,1.26c-1.14,0-2.08-0.33-2.83-0.99
		c-0.75-0.66-1.12-1.49-1.12-2.49c0-1.23,0.46-2.18,1.37-2.84c0.91-0.66,2.23-0.99,3.96-1h1.43v-0.67c0-0.54-0.14-0.97-0.41-1.29
		c-0.28-0.32-0.71-0.48-1.31-0.48c-0.52,0-0.93,0.13-1.23,0.38c-0.3,0.25-0.45,0.59-0.45,1.03h-3.1c0-0.67,0.21-1.3,0.62-1.87
		c0.42-0.57,1-1.02,1.76-1.35c0.76-0.33,1.61-0.49,2.56-0.49c1.43,0,2.57,0.36,3.41,1.08c0.84,0.72,1.26,1.73,1.26,3.04v5.04
		c0.01,1.1,0.16,1.94,0.46,2.5v0.18H441.33z M438.77,62.25c0.46,0,0.88-0.1,1.27-0.31s0.67-0.48,0.86-0.82v-2h-1.16
		c-1.55,0-2.38,0.54-2.48,1.61l-0.01,0.18c0,0.39,0.14,0.71,0.41,0.96C437.92,62.12,438.29,62.25,438.77,62.25z"/>
	<path class="st0" d="M453.35,63.22c-0.77,0.93-1.83,1.4-3.18,1.4c-1.25,0-2.2-0.36-2.85-1.07c-0.65-0.71-0.99-1.76-1-3.15v-7.62
		h3.1v7.52c0,1.21,0.55,1.82,1.65,1.82c1.05,0,1.78-0.37,2.17-1.1v-8.24h3.12V64.4h-2.92L453.35,63.22z"/>
	<path class="st0" d="M458.22,58.51c0-1.81,0.41-3.26,1.22-4.33c0.81-1.07,1.92-1.61,3.34-1.61c1.13,0,2.07,0.42,2.8,1.27V47.9h3.12
		v16.5h-2.8l-0.15-1.23c-0.77,0.97-1.77,1.45-2.99,1.45c-1.37,0-2.46-0.54-3.29-1.62C458.63,61.93,458.22,60.43,458.22,58.51z
		 M461.33,58.74c0,1.09,0.19,1.93,0.57,2.51s0.93,0.87,1.65,0.87c0.96,0,1.64-0.41,2.03-1.22v-4.59c-0.39-0.81-1.06-1.21-2.01-1.21
		C462.07,55.09,461.33,56.31,461.33,58.74z"/>
	<path class="st0" d="M481.41,62.12c0.57,0,1.04-0.16,1.4-0.47c0.36-0.32,0.54-0.73,0.56-1.26h2.91c-0.01,0.79-0.22,1.51-0.64,2.17
		s-1,1.16-1.73,1.53c-0.73,0.36-1.55,0.54-2.43,0.54c-1.66,0-2.97-0.53-3.93-1.58s-1.44-2.52-1.44-4.38v-0.21
		c0-1.79,0.48-3.22,1.43-4.29c0.95-1.07,2.26-1.6,3.92-1.6c1.45,0,2.62,0.41,3.5,1.24c0.88,0.83,1.32,1.93,1.34,3.3h-2.91
		c-0.01-0.61-0.2-1.1-0.56-1.47s-0.83-0.57-1.42-0.57c-0.72,0-1.27,0.26-1.64,0.79c-0.37,0.53-0.55,1.38-0.55,2.57v0.32
		c0,1.2,0.18,2.06,0.55,2.58C480.11,61.86,480.67,62.12,481.41,62.12z"/>
	<path class="st0" d="M487.57,58.49c0-1.15,0.22-2.18,0.67-3.08s1.08-1.6,1.92-2.09c0.83-0.49,1.8-0.74,2.91-0.74
		c1.57,0,2.85,0.48,3.84,1.44c0.99,0.96,1.54,2.26,1.66,3.91l0.02,0.79c0,1.78-0.5,3.21-1.49,4.29c-1,1.08-2.33,1.62-4.01,1.62
		s-3.01-0.54-4.01-1.61c-1-1.07-1.5-2.54-1.5-4.38V58.49z M490.67,58.71c0,1.1,0.21,1.95,0.62,2.53c0.42,0.58,1.01,0.88,1.78,0.88
		c0.75,0,1.34-0.29,1.76-0.87c0.42-0.58,0.63-1.5,0.63-2.77c0-1.08-0.21-1.92-0.63-2.52s-1.02-0.89-1.78-0.89
		c-0.76,0-1.35,0.29-1.76,0.89S490.67,57.46,490.67,58.71z"/>
	<path class="st0" d="M506.79,61.19c0-0.38-0.19-0.68-0.56-0.9c-0.38-0.22-0.98-0.41-1.81-0.58c-2.76-0.58-4.15-1.75-4.15-3.52
		c0-1.03,0.43-1.89,1.28-2.58c0.86-0.69,1.98-1.04,3.36-1.04c1.48,0,2.66,0.35,3.54,1.04c0.88,0.69,1.33,1.6,1.33,2.71h-3.1
		c0-0.44-0.14-0.81-0.43-1.1s-0.73-0.44-1.34-0.44c-0.52,0-0.93,0.12-1.21,0.36s-0.43,0.54-0.43,0.9c0,0.34,0.16,0.62,0.49,0.83
		c0.33,0.21,0.88,0.39,1.65,0.55c0.77,0.15,1.42,0.33,1.96,0.52c1.64,0.6,2.46,1.64,2.46,3.13c0,1.06-0.46,1.92-1.36,2.57
		s-2.08,0.98-3.52,0.98c-0.97,0-1.84-0.17-2.59-0.52c-0.75-0.35-1.35-0.82-1.78-1.43s-0.64-1.26-0.64-1.96h2.94
		c0.03,0.55,0.23,0.97,0.61,1.27c0.38,0.29,0.89,0.44,1.53,0.44c0.59,0,1.04-0.11,1.35-0.34C506.63,61.85,506.79,61.56,506.79,61.19
		z"/>
	<path class="st0" d="M515.52,49.92v2.86h1.99v2.28h-1.99v5.8c0,0.43,0.08,0.74,0.25,0.92c0.17,0.19,0.48,0.28,0.95,0.28
		c0.34,0,0.65-0.02,0.91-0.07v2.35c-0.61,0.19-1.24,0.28-1.88,0.28c-2.18,0-3.29-1.1-3.33-3.3v-6.26h-1.7v-2.28h1.7v-2.86H515.52z"
		/>
	<path class="st0" d="M525.53,61.19c0-0.38-0.19-0.68-0.56-0.9c-0.38-0.22-0.98-0.41-1.81-0.58c-2.76-0.58-4.15-1.75-4.15-3.52
		c0-1.03,0.43-1.89,1.28-2.58c0.86-0.69,1.98-1.04,3.36-1.04c1.48,0,2.66,0.35,3.54,1.04c0.88,0.69,1.33,1.6,1.33,2.71h-3.1
		c0-0.44-0.14-0.81-0.43-1.1s-0.73-0.44-1.34-0.44c-0.52,0-0.93,0.12-1.21,0.36s-0.43,0.54-0.43,0.9c0,0.34,0.16,0.62,0.49,0.83
		c0.33,0.21,0.88,0.39,1.65,0.55c0.77,0.15,1.42,0.33,1.96,0.52c1.64,0.6,2.46,1.64,2.46,3.13c0,1.06-0.46,1.92-1.36,2.57
		s-2.08,0.98-3.52,0.98c-0.97,0-1.84-0.17-2.59-0.52c-0.75-0.35-1.35-0.82-1.78-1.43s-0.64-1.26-0.64-1.96h2.94
		c0.03,0.55,0.23,0.97,0.61,1.27c0.38,0.29,0.89,0.44,1.53,0.44c0.59,0,1.04-0.11,1.35-0.34C525.38,61.85,525.53,61.56,525.53,61.19
		z"/>
	<path class="st0" d="M530.71,62.88c0-0.49,0.17-0.89,0.5-1.2c0.33-0.31,0.75-0.46,1.25-0.46c0.51,0,0.93,0.15,1.26,0.46
		c0.33,0.31,0.5,0.71,0.5,1.2c0,0.49-0.17,0.88-0.49,1.19s-0.75,0.46-1.27,0.46c-0.51,0-0.93-0.15-1.26-0.46
		S530.71,63.37,530.71,62.88z"/>
</g>
<g>
	<path class="st0" d="M537.09,52.65l-2.15-0.61l0.4-1.24l2.13,0.85l-0.14-2.38h1.34l-0.14,2.43l2.07-0.84l0.4,1.25l-2.19,0.61
		l1.44,1.82l-1.09,0.77l-1.24-2l-1.23,1.93l-1.09-0.74L537.09,52.65z"/>
</g>
</svg>
