<?xml version="1.0" encoding="utf-8"?>
<!-- Generator: Adobe Illustrator 25.3.1, SVG Export Plug-In . SVG Version: 6.00 Build 0)  -->
<svg version="1.1" id="Layer_1" xmlns="http://www.w3.org/2000/svg" xmlns:xlink="http://www.w3.org/1999/xlink" x="0px" y="0px"
	 viewBox="0 0 970 250" style="enable-background:new 0 0 970 250;" xml:space="preserve">
<style type="text/css">
	.st0{fill:#FFFFFF;}
</style>
<g>
	<path class="st0" d="M303.84,159.15c0-1.18-0.29-2.12-0.88-2.79c-0.58-0.67-1.61-1.31-3.08-1.91c-1.47-0.6-2.83-1.21-4.07-1.82
		c-1.25-0.62-2.32-1.33-3.22-2.14c-0.9-0.81-1.59-1.75-2.07-2.81c-0.48-1.07-0.72-2.36-0.72-3.87c0-2.54,0.86-4.62,2.57-6.27
		c1.71-1.64,3.99-2.6,6.84-2.87v-4.75h3.58v4.84c2.75,0.41,4.9,1.53,6.47,3.39c1.57,1.85,2.35,4.21,2.35,7.06H304
		c0-1.56-0.3-2.76-0.9-3.6c-0.6-0.84-1.46-1.26-2.57-1.26c-0.99,0-1.76,0.31-2.31,0.93c-0.55,0.62-0.82,1.48-0.82,2.58
		c0,1.11,0.32,1.99,0.95,2.64c0.63,0.65,1.64,1.28,3.04,1.87s2.71,1.21,3.95,1.84c1.24,0.64,2.31,1.36,3.21,2.17
		c0.9,0.81,1.61,1.76,2.12,2.84s0.77,2.38,0.77,3.89c0,2.57-0.81,4.66-2.44,6.28s-3.84,2.57-6.65,2.84v4.52h-3.58v-4.55
		c-3.27-0.35-5.78-1.47-7.53-3.37c-1.75-1.9-2.62-4.4-2.62-7.51h7.58c0,1.71,0.38,3.01,1.14,3.91s1.83,1.34,3.23,1.34
		c1.02,0,1.82-0.3,2.41-0.91C303.55,161.05,303.84,160.22,303.84,159.15z"/>
	<path class="st0" d="M315.88,151.83l2-16.76h19.15v5.9h-12.99l-0.74,6.51c0.54-0.32,1.25-0.6,2.13-0.84s1.74-0.36,2.58-0.36
		c3.26,0,5.76,0.96,7.51,2.89c1.75,1.93,2.62,4.63,2.62,8.11c0,2.1-0.47,4-1.41,5.71c-0.94,1.7-2.25,3.01-3.95,3.93
		c-1.7,0.92-3.7,1.37-6.01,1.37c-2.06,0-3.98-0.42-5.78-1.27c-1.8-0.85-3.21-2.01-4.23-3.49c-1.02-1.48-1.52-3.14-1.51-5h7.61
		c0.08,1.2,0.46,2.15,1.15,2.85c0.69,0.7,1.6,1.06,2.72,1.06c2.55,0,3.83-1.89,3.83-5.66c0-3.49-1.56-5.23-4.68-5.23
		c-1.77,0-3.09,0.57-3.96,1.71L315.88,151.83z"/>
	<path class="st0" d="M360.44,134.6v5.96h-0.34c-2.84,0-5.17,0.68-6.99,2.04c-1.82,1.36-2.94,3.24-3.36,5.66
		c1.71-1.68,3.87-2.52,6.48-2.52c2.84,0,5.09,1.04,6.77,3.11s2.52,4.79,2.52,8.15c0,2.08-0.49,4-1.47,5.74
		c-0.98,1.74-2.36,3.1-4.12,4.08c-1.76,0.98-3.72,1.47-5.86,1.47c-2.33,0-4.4-0.53-6.23-1.59c-1.83-1.06-3.26-2.57-4.28-4.54
		c-1.02-1.96-1.55-4.23-1.58-6.8v-3.04c0-3.38,0.72-6.41,2.17-9.1c1.45-2.69,3.51-4.8,6.2-6.34c2.69-1.53,5.66-2.29,8.93-2.29
		H360.44z M353.6,151.55c-1.01,0-1.85,0.23-2.52,0.7c-0.67,0.46-1.18,1.04-1.51,1.71v2.27c0,4.14,1.43,6.21,4.3,6.21
		c1.16,0,2.12-0.52,2.89-1.55c0.77-1.04,1.16-2.33,1.16-3.89c0-1.61-0.39-2.92-1.18-3.93C355.95,152.05,354.91,151.55,353.6,151.55z
		"/>
	<path class="st0" d="M403.03,155.87c0,3.99-0.83,7.06-2.48,9.21c-1.65,2.15-3.98,3.22-6.98,3.22c-2.48,0-4.47-0.98-5.99-2.95
		l-0.32,2.5h-6.8v-34.57h7.58v12.18c1.41-1.61,3.23-2.41,5.47-2.41c3.03,0,5.37,1.09,7.02,3.26c1.65,2.18,2.48,5.24,2.48,9.18
		V155.87z M395.42,155.38c0-2.34-0.31-4-0.93-5c-0.62-1-1.58-1.49-2.87-1.49c-1.71,0-2.9,0.65-3.56,1.96v9.66
		c0.64,1.29,1.85,1.93,3.6,1.93c1.79,0,2.92-0.87,3.4-2.61C395.3,158.98,395.42,157.5,395.42,155.38z"/>
	<path class="st0" d="M406.31,137.21c0-1.08,0.39-1.96,1.17-2.66c0.78-0.69,1.79-1.04,3.04-1.04c1.25,0,2.26,0.34,3.04,1.04
		s1.17,1.58,1.17,2.66s-0.39,1.97-1.17,2.66c-0.78,0.69-1.79,1.04-3.04,1.04c-1.25,0-2.26-0.35-3.04-1.04
		C406.7,139.17,406.31,138.29,406.31,137.21z M414.37,167.84h-7.61v-24.35h7.61V167.84z"/>
	<path class="st0" d="M427.04,167.84h-7.61v-34.57h7.61V167.84z"/>
	<path class="st0" d="M439.71,167.84h-7.61v-34.57h7.61V167.84z"/>
	<path class="st0" d="M444.32,137.21c0-1.08,0.39-1.96,1.17-2.66c0.78-0.69,1.79-1.04,3.04-1.04c1.25,0,2.26,0.34,3.04,1.04
		s1.17,1.58,1.17,2.66s-0.39,1.97-1.17,2.66c-0.78,0.69-1.79,1.04-3.04,1.04c-1.25,0-2.26-0.35-3.04-1.04
		C444.72,139.17,444.32,138.29,444.32,137.21z M452.38,167.84h-7.61v-24.35h7.61V167.84z"/>
	<path class="st0" d="M456.1,155.44c0-2.43,0.47-4.59,1.42-6.49s2.3-3.36,4.07-4.38c1.77-1.02,3.85-1.53,6.23-1.53
		c3.65,0,6.52,1.13,8.62,3.39c2.1,2.26,3.15,5.33,3.15,9.22v0.27c0,3.8-1.05,6.81-3.16,9.04c-2.11,2.23-4.96,3.34-8.56,3.34
		c-3.47,0-6.25-1.04-8.35-3.12s-3.23-4.9-3.4-8.45L456.1,155.44z M463.68,155.91c0,2.25,0.35,3.9,1.06,4.95
		c0.71,1.05,1.75,1.58,3.13,1.58c2.7,0,4.08-2.08,4.14-6.23v-0.76c0-4.37-1.4-6.55-4.19-6.55c-2.54,0-3.91,1.88-4.12,5.65
		L463.68,155.91z"/>
	<path class="st0" d="M489.9,143.49l0.25,2.86c1.68-2.21,4-3.31,6.95-3.31c2.54,0,4.43,0.76,5.68,2.27c1.25,1.52,1.9,3.8,1.95,6.84
		v15.69h-7.61v-15.37c0-1.23-0.25-2.13-0.74-2.71c-0.5-0.58-1.4-0.87-2.7-0.87c-1.49,0-2.59,0.58-3.31,1.76v17.19h-7.58v-24.35
		H489.9z"/>
	<path class="st0" d="M520.35,137.21c0-1.08,0.39-1.96,1.17-2.66c0.78-0.69,1.79-1.04,3.04-1.04c1.25,0,2.26,0.34,3.04,1.04
		s1.17,1.58,1.17,2.66s-0.39,1.97-1.17,2.66c-0.78,0.69-1.79,1.04-3.04,1.04c-1.25,0-2.26-0.35-3.04-1.04
		C520.74,139.17,520.35,138.29,520.35,137.21z M528.41,167.84h-7.61v-24.35h7.61V167.84z"/>
	<path class="st0" d="M540.04,143.49l0.25,2.86c1.68-2.21,4-3.31,6.95-3.31c2.54,0,4.43,0.76,5.68,2.27c1.25,1.52,1.9,3.8,1.95,6.84
		v15.69h-7.61v-15.37c0-1.23-0.25-2.13-0.74-2.71c-0.5-0.58-1.4-0.87-2.7-0.87c-1.49,0-2.59,0.58-3.31,1.76v17.19h-7.58v-24.35
		H540.04z"/>
	<path class="st0" d="M593.29,167.84h-22.87v-4.95l10.53-11.07c2.6-2.96,3.89-5.3,3.89-7.04c0-1.41-0.31-2.48-0.92-3.22
		s-1.51-1.1-2.68-1.1c-1.16,0-2.09,0.49-2.81,1.47c-0.72,0.98-1.08,2.21-1.08,3.68h-7.61c0-2.01,0.5-3.87,1.51-5.57
		c1-1.7,2.4-3.03,4.19-3.99c1.79-0.96,3.78-1.44,5.99-1.44c3.54,0,6.27,0.82,8.18,2.45s2.87,3.98,2.87,7.04
		c0,1.29-0.24,2.55-0.72,3.77c-0.48,1.22-1.23,2.51-2.24,3.85c-1.01,1.34-2.64,3.14-4.9,5.39l-4.23,4.88h12.9V167.84z"/>
	<path class="st0" d="M619.87,154.45c0,4.43-0.99,7.84-2.98,10.24s-4.79,3.6-8.41,3.6c-3.65,0-6.47-1.21-8.46-3.62
		c-2-2.42-2.99-5.82-2.99-10.22v-5.99c0-4.43,0.99-7.84,2.98-10.24c1.99-2.4,4.8-3.6,8.43-3.6s6.44,1.21,8.44,3.62
		c2,2.42,2.99,5.83,2.99,10.24V154.45z M612.29,147.49c0-2.36-0.31-4.11-0.92-5.28s-1.59-1.74-2.93-1.74c-1.3,0-2.25,0.54-2.85,1.62
		s-0.91,2.72-0.96,4.91v8.37c0,2.45,0.31,4.24,0.92,5.37s1.59,1.7,2.93,1.7c1.29,0,2.24-0.55,2.86-1.65s0.93-2.83,0.95-5.19V147.49z
		"/>
	<path class="st0" d="M646.68,167.84h-22.87v-4.95l10.53-11.07c2.6-2.96,3.89-5.3,3.89-7.04c0-1.41-0.31-2.48-0.92-3.22
		s-1.51-1.1-2.68-1.1c-1.16,0-2.09,0.49-2.81,1.47c-0.72,0.98-1.08,2.21-1.08,3.68h-7.61c0-2.01,0.5-3.87,1.51-5.57
		c1-1.7,2.4-3.03,4.19-3.99c1.79-0.96,3.78-1.44,5.99-1.44c3.54,0,6.27,0.82,8.18,2.45s2.87,3.98,2.87,7.04
		c0,1.29-0.24,2.55-0.72,3.77c-0.48,1.22-1.23,2.51-2.24,3.85c-1.01,1.34-2.64,3.14-4.9,5.39l-4.23,4.88h12.9V167.84z"/>
	<path class="st0" d="M673.26,154.45c0,4.43-0.99,7.84-2.98,10.24s-4.79,3.6-8.41,3.6c-3.65,0-6.47-1.21-8.46-3.62
		c-2-2.42-2.99-5.82-2.99-10.22v-5.99c0-4.43,0.99-7.84,2.98-10.24c1.99-2.4,4.8-3.6,8.43-3.6s6.44,1.21,8.44,3.62
		c2,2.42,2.99,5.83,2.99,10.24V154.45z M665.67,147.49c0-2.36-0.31-4.11-0.92-5.28s-1.59-1.74-2.93-1.74c-1.3,0-2.25,0.54-2.85,1.62
		s-0.91,2.72-0.96,4.91v8.37c0,2.45,0.31,4.24,0.92,5.37s1.59,1.7,2.93,1.7c1.29,0,2.24-0.55,2.86-1.65s0.93-2.83,0.95-5.19V147.49z
		"/>
	<path class="st0" d="M679.81,139.94l-4.28-1.18l0.85-2.48l4.19,1.72l-0.33-4.61h2.81l-0.34,4.71l4.07-1.68l0.85,2.5l-4.33,1.18
		l2.87,3.48l-2.27,1.55l-2.4-3.86l-2.42,3.73l-2.27-1.48L679.81,139.94z"/>
</g>
</svg>
