<?xml version="1.0" encoding="utf-8"?>
<!-- Generator: Adobe Illustrator 25.3.1, SVG Export Plug-In . SVG Version: 6.00 Build 0)  -->
<svg version="1.1" id="Layer_1" xmlns="http://www.w3.org/2000/svg" xmlns:xlink="http://www.w3.org/1999/xlink" x="0px" y="0px"
	 viewBox="0 0 970 250" style="enable-background:new 0 0 970 250;" xml:space="preserve">
<style type="text/css">
	.st0{fill:#FFFFFF;}
</style>
<g>
	<path class="st0" d="M131,68.53h-9.22v22.86h-7.41V68.53h-9.05v-5.23H131V68.53z"/>
	<path class="st0" d="M128.51,80.76c0-2.08,0.44-3.94,1.33-5.56c0.89-1.63,2.16-2.88,3.82-3.75c1.66-0.88,3.61-1.31,5.85-1.31
		c3.42,0,6.11,0.97,8.08,2.9c1.97,1.94,2.95,4.57,2.95,7.9v0.23c0,3.25-0.99,5.83-2.97,7.75c-1.98,1.91-4.65,2.86-8.03,2.86
		c-3.25,0-5.86-0.89-7.83-2.67c-1.97-1.78-3.03-4.2-3.19-7.24L128.51,80.76z M135.62,81.17c0,1.93,0.33,3.34,0.99,4.24
		c0.66,0.9,1.64,1.35,2.93,1.35c2.53,0,3.83-1.78,3.88-5.34v-0.66c0-3.74-1.31-5.61-3.93-5.61c-2.38,0-3.67,1.61-3.86,4.84
		L135.62,81.17z"/>
	<path class="st0" d="M161.96,65.33v5.19h3.76v4.51h-3.76v9.55c0,0.79,0.15,1.33,0.46,1.64s0.92,0.46,1.84,0.46
		c0.7,0,1.29-0.04,1.77-0.12v4.65c-1.28,0.37-2.62,0.56-4.01,0.56c-2.45,0-4.26-0.53-5.42-1.58c-1.17-1.05-1.75-2.66-1.75-4.8V75.03
		h-2.91v-4.51h2.91v-5.19H161.96z"/>
	<path class="st0" d="M181.38,91.39c-0.25-0.42-0.48-1.05-0.67-1.87c-1.31,1.5-3.14,2.26-5.49,2.26c-2.15,0-3.98-0.59-5.49-1.78
		c-1.51-1.19-2.26-2.68-2.26-4.49c0-2.26,0.91-3.97,2.74-5.13s4.49-1.74,7.98-1.74h2.19v-1.1c0-1.93-0.91-2.89-2.72-2.89
		c-1.69,0-2.53,0.76-2.53,2.29h-7.11c0-2.02,0.94-3.65,2.82-4.91s4.27-1.89,7.19-1.89c2.91,0,5.21,0.65,6.9,1.95s2.55,3.08,2.6,5.34
		v9.24c0.03,1.92,0.35,3.38,0.97,4.4v0.33H181.38z M176.93,87.15c0.89,0,1.62-0.17,2.21-0.52c0.58-0.35,1-0.74,1.26-1.18v-3.34
		h-2.07c-2.48,0-3.71,1.02-3.71,3.05c0,0.59,0.22,1.07,0.65,1.44C175.7,86.97,176.25,87.15,176.93,87.15z"/>
	<path class="st0" d="M198.96,91.39h-7.13V61.76h7.13V91.39z"/>
	<path class="st0" d="M223.76,86.76c1,0,1.77-0.25,2.32-0.74c0.55-0.5,0.82-1.19,0.8-2.07h6.67c0,2.29-0.9,4.17-2.69,5.63
		s-4.11,2.2-6.93,2.2c-3.32,0-5.94-0.95-7.85-2.85c-1.91-1.9-2.87-4.54-2.87-7.91v-0.27c0-2.11,0.42-3.97,1.28-5.58
		c0.85-1.61,2.08-2.85,3.68-3.72c1.6-0.87,3.5-1.3,5.7-1.3c2.97,0,5.33,0.75,7.07,2.26c1.75,1.5,2.62,3.54,2.62,6.11h-6.67
		c0-1.08-0.29-1.91-0.87-2.49c-0.58-0.58-1.35-0.87-2.32-0.87c-1.84,0-2.92,1.07-3.23,3.22c-0.1,0.68-0.15,1.62-0.15,2.82
		c0,2.1,0.27,3.55,0.82,4.36S222.57,86.76,223.76,86.76z"/>
	<path class="st0" d="M235.67,80.76c0-2.08,0.44-3.94,1.33-5.56c0.89-1.63,2.16-2.88,3.82-3.75c1.66-0.88,3.61-1.31,5.85-1.31
		c3.42,0,6.11,0.97,8.08,2.9c1.97,1.94,2.96,4.57,2.96,7.9v0.23c0,3.25-0.99,5.83-2.96,7.75c-1.98,1.91-4.65,2.86-8.03,2.86
		c-3.25,0-5.86-0.89-7.83-2.67c-1.97-1.78-3.03-4.2-3.19-7.24L235.67,80.76z M242.78,81.17c0,1.93,0.33,3.34,0.99,4.24
		s1.64,1.35,2.93,1.35c2.53,0,3.83-1.78,3.88-5.34v-0.66c0-3.74-1.31-5.61-3.93-5.61c-2.38,0-3.67,1.61-3.86,4.84L242.78,81.17z"/>
	<path class="st0" d="M267.56,70.52l0.23,2.45c1.62-1.89,3.79-2.83,6.52-2.83c2.88,0,4.83,1.05,5.85,3.14
		c1.55-2.1,3.78-3.14,6.71-3.14c4.63,0,7.01,2.56,7.13,7.68v13.58h-7.13V78.22c0-1.07-0.2-1.85-0.59-2.33s-1.11-0.73-2.15-0.73
		c-1.41,0-2.46,0.57-3.15,1.72l0.02,0.27v14.25h-7.13V78.26c0-1.09-0.19-1.88-0.57-2.37c-0.38-0.49-1.11-0.73-2.17-0.73
		c-1.36,0-2.41,0.57-3.12,1.72v14.53h-7.11V70.52H267.56z"/>
	<path class="st0" d="M319.27,81.13c0,3.42-0.77,6.05-2.32,7.89c-1.55,1.84-3.73,2.76-6.54,2.76c-2.32,0-4.19-0.84-5.61-2.53
		l-0.3,2.14h-6.37V61.76h7.11V72.2c1.32-1.38,3.03-2.06,5.13-2.06c2.84,0,5.04,0.93,6.58,2.8c1.55,1.86,2.32,4.49,2.32,7.87V81.13z
		 M312.13,80.72c0-2-0.29-3.43-0.88-4.28s-1.48-1.28-2.69-1.28c-1.6,0-2.72,0.56-3.33,1.68v8.28c0.6,1.1,1.73,1.66,3.38,1.66
		c1.67,0,2.74-0.74,3.19-2.23C312.02,83.8,312.13,82.53,312.13,80.72z"/>
	<path class="st0" d="M322.35,65.14c0-0.93,0.37-1.68,1.1-2.28s1.68-0.89,2.85-0.89s2.12,0.3,2.85,0.89c0.73,0.59,1.1,1.35,1.1,2.28
		c0,0.93-0.37,1.68-1.1,2.28c-0.73,0.59-1.68,0.89-2.85,0.89s-2.12-0.3-2.85-0.89C322.71,66.82,322.35,66.06,322.35,65.14z
		 M329.9,91.39h-7.13V70.52h7.13V91.39z"/>
	<path class="st0" d="M340.82,70.52l0.23,2.45c1.58-1.89,3.75-2.83,6.52-2.83c2.38,0,4.15,0.65,5.33,1.95
		c1.17,1.3,1.78,3.25,1.83,5.86v13.45h-7.13V78.22c0-1.05-0.23-1.83-0.7-2.32c-0.46-0.5-1.31-0.74-2.53-0.74
		c-1.39,0-2.43,0.5-3.1,1.5v14.74h-7.11V70.52H340.82z"/>
	<path class="st0" d="M369.71,91.78c-3.5,0-6.34-0.96-8.5-2.86c-2.17-1.91-3.25-4.39-3.25-7.46v-0.54c0-2.13,0.43-4.02,1.3-5.65
		c0.87-1.63,2.13-2.9,3.79-3.79c1.66-0.89,3.63-1.34,5.91-1.34c3.21,0,5.74,0.91,7.6,2.73c1.86,1.82,2.79,4.36,2.79,7.61V83h-14.14
		c0.25,1.17,0.81,2.09,1.67,2.76c0.86,0.67,1.97,1,3.33,1c2.25,0,4.01-0.72,5.28-2.16l3.25,3.51c-0.89,1.12-2.14,2.01-3.77,2.67
		S371.58,91.78,369.71,91.78z M368.91,75.15c-2.08,0-3.32,1.26-3.71,3.78h7.18v-0.5c0.03-1.04-0.26-1.85-0.87-2.42
		C370.9,75.44,370.03,75.15,368.91,75.15z"/>
	<path class="st0" d="M381.3,80.8c0-3.3,0.78-5.91,2.34-7.81s3.74-2.85,6.54-2.85c2.04,0,3.76,0.73,5.15,2.2V61.76h7.13v29.63h-6.39
		l-0.36-2.24c-1.46,1.75-3.32,2.62-5.57,2.62c-2.71,0-4.87-0.95-6.46-2.85S381.3,84.31,381.3,80.8z M388.41,81.21
		c0,3.7,1.18,5.55,3.55,5.55c1.58,0,2.7-0.6,3.38-1.81V77c-0.65-1.23-1.76-1.85-3.33-1.85c-2.19,0-3.38,1.62-3.57,4.86L388.41,81.21
		z"/>
	<path class="st0" d="M418.84,91.39V75.03h-3.31v-4.51h3.31v-1.66c0-2.38,0.77-4.22,2.3-5.54c1.53-1.31,3.69-1.97,6.46-1.97
		c1.01,0,2.12,0.13,3.33,0.41l0.02,4.78c-0.44-0.12-1.02-0.17-1.75-0.17c-2.15,0-3.23,0.85-3.23,2.55v1.6h4.45v4.51h-4.45v16.36
		H418.84z"/>
	<path class="st0" d="M446.75,76.4l-2.34-0.15c-2.24,0-3.67,0.64-4.31,1.93v13.21h-7.11V70.52h6.67l0.23,2.68
		c1.2-2.04,2.86-3.07,5-3.07c0.76,0,1.42,0.08,1.98,0.23L446.75,76.4z"/>
	<path class="st0" d="M461.54,91.39c-0.25-0.42-0.48-1.05-0.67-1.87c-1.31,1.5-3.14,2.26-5.49,2.26c-2.15,0-3.98-0.59-5.49-1.78
		s-2.26-2.68-2.26-4.49c0-2.26,0.91-3.97,2.74-5.13s4.49-1.74,7.98-1.74h2.19v-1.1c0-1.93-0.91-2.89-2.72-2.89
		c-1.69,0-2.53,0.76-2.53,2.29h-7.11c0-2.02,0.94-3.65,2.82-4.91c1.88-1.26,4.27-1.89,7.19-1.89c2.91,0,5.21,0.65,6.9,1.95
		s2.55,3.08,2.6,5.34v9.24c0.03,1.92,0.35,3.38,0.97,4.4v0.33H461.54z M457.09,87.15c0.89,0,1.62-0.17,2.21-0.52
		c0.58-0.35,1-0.74,1.26-1.18v-3.34h-2.07c-2.48,0-3.71,1.02-3.71,3.05c0,0.59,0.22,1.07,0.65,1.44
		C455.86,86.97,456.41,87.15,457.09,87.15z"/>
	<path class="st0" d="M485.22,89.14c-1.51,1.76-3.54,2.64-6.1,2.64c-2.5,0-4.4-0.67-5.69-2s-1.93-3.24-1.93-5.74V70.52h7.11v13.56
		c0,1.79,0.95,2.68,2.85,2.68c1.63,0,2.79-0.53,3.48-1.6V70.52h7.15v20.87h-6.67L485.22,89.14z"/>
	<path class="st0" d="M495.1,80.8c0-3.3,0.78-5.91,2.34-7.81s3.74-2.85,6.54-2.85c2.04,0,3.76,0.73,5.15,2.2V61.76h7.13v29.63h-6.39
		l-0.36-2.24c-1.46,1.75-3.32,2.62-5.57,2.62c-2.71,0-4.87-0.95-6.46-2.85S495.1,84.31,495.1,80.8z M502.21,81.21
		c0,3.7,1.18,5.55,3.55,5.55c1.58,0,2.7-0.6,3.38-1.81V77c-0.65-1.23-1.76-1.85-3.33-1.85c-2.19,0-3.38,1.62-3.57,4.86L502.21,81.21
		z"/>
	<path class="st0" d="M538.58,91.39h-7.13V61.76h7.13V91.39z"/>
	<path class="st0" d="M542.06,80.76c0-2.08,0.44-3.94,1.33-5.56c0.89-1.63,2.16-2.88,3.82-3.75c1.66-0.88,3.61-1.31,5.85-1.31
		c3.42,0,6.11,0.97,8.08,2.9c1.97,1.94,2.96,4.57,2.96,7.9v0.23c0,3.25-0.99,5.83-2.96,7.75c-1.98,1.91-4.65,2.86-8.03,2.86
		c-3.25,0-5.86-0.89-7.83-2.67c-1.97-1.78-3.03-4.2-3.19-7.24L542.06,80.76z M549.17,81.17c0,1.93,0.33,3.34,0.99,4.24
		s1.64,1.35,2.93,1.35c2.53,0,3.83-1.78,3.88-5.34v-0.66c0-3.74-1.31-5.61-3.93-5.61c-2.38,0-3.67,1.61-3.86,4.84L549.17,81.17z"/>
	<path class="st0" d="M579.19,85.53c0-0.55-0.32-1-0.95-1.33c-0.63-0.33-1.84-0.68-3.61-1.04c-1.77-0.36-3.24-0.83-4.39-1.42
		s-2.03-1.3-2.64-2.13c-0.61-0.84-0.91-1.79-0.91-2.87c0-1.92,0.87-3.49,2.6-4.74c1.73-1.24,4-1.86,6.8-1.86
		c3.01,0,5.43,0.62,7.26,1.87c1.83,1.25,2.74,2.89,2.74,4.92h-7.13c0-1.67-0.96-2.51-2.89-2.51c-0.75,0-1.37,0.19-1.88,0.57
		c-0.51,0.38-0.76,0.85-0.76,1.42c0,0.58,0.31,1.05,0.93,1.41c0.62,0.36,1.61,0.66,2.96,0.89c1.36,0.23,2.55,0.51,3.58,0.83
		c3.43,1.08,5.15,3.02,5.15,5.81c0,1.9-0.93,3.45-2.78,4.65c-1.85,1.2-4.25,1.79-7.19,1.79c-1.96,0-3.7-0.32-5.23-0.96
		c-1.53-0.64-2.73-1.52-3.59-2.62c-0.86-1.11-1.29-2.27-1.29-3.49h6.65c0.03,0.96,0.38,1.67,1.06,2.11c0.68,0.44,1.54,0.67,2.6,0.67
		c0.97,0,1.7-0.18,2.18-0.54C578.94,86.58,579.19,86.11,579.19,85.53z"/>
	<path class="st0" d="M601.33,85.53c0-0.55-0.32-1-0.95-1.33c-0.63-0.33-1.84-0.68-3.61-1.04c-1.77-0.36-3.24-0.83-4.39-1.42
		s-2.03-1.3-2.64-2.13c-0.61-0.84-0.91-1.79-0.91-2.87c0-1.92,0.87-3.49,2.6-4.74c1.73-1.24,4-1.86,6.8-1.86
		c3.01,0,5.43,0.62,7.26,1.87c1.83,1.25,2.74,2.89,2.74,4.92h-7.13c0-1.67-0.96-2.51-2.89-2.51c-0.75,0-1.37,0.19-1.88,0.57
		c-0.51,0.38-0.76,0.85-0.76,1.42c0,0.58,0.31,1.05,0.93,1.41c0.62,0.36,1.61,0.66,2.96,0.89c1.36,0.23,2.55,0.51,3.58,0.83
		c3.43,1.08,5.15,3.02,5.15,5.81c0,1.9-0.93,3.45-2.78,4.65c-1.85,1.2-4.25,1.79-7.19,1.79c-1.96,0-3.7-0.32-5.23-0.96
		c-1.53-0.64-2.73-1.52-3.59-2.62c-0.86-1.11-1.29-2.27-1.29-3.49h6.65c0.03,0.96,0.38,1.67,1.06,2.11c0.68,0.44,1.54,0.67,2.6,0.67
		c0.97,0,1.7-0.18,2.18-0.54C601.08,86.58,601.33,86.11,601.33,85.53z"/>
	<path class="st0" d="M622.56,91.78c-3.5,0-6.34-0.96-8.5-2.86c-2.17-1.91-3.25-4.39-3.25-7.46v-0.54c0-2.13,0.43-4.02,1.3-5.65
		c0.87-1.63,2.13-2.9,3.79-3.79c1.66-0.89,3.63-1.34,5.91-1.34c3.21,0,5.74,0.91,7.6,2.73c1.86,1.82,2.79,4.36,2.79,7.61V83h-14.14
		c0.25,1.17,0.81,2.09,1.67,2.76c0.86,0.67,1.97,1,3.33,1c2.25,0,4.01-0.72,5.28-2.16l3.25,3.51c-0.89,1.12-2.14,2.01-3.77,2.67
		S624.43,91.78,622.56,91.78z M621.76,75.15c-2.08,0-3.32,1.26-3.71,3.78h7.18v-0.5c0.03-1.04-0.26-1.85-0.87-2.42
		C623.75,75.44,622.88,75.15,621.76,75.15z"/>
	<path class="st0" d="M647,85.53c0-0.55-0.32-1-0.95-1.33c-0.63-0.33-1.84-0.68-3.61-1.04c-1.77-0.36-3.24-0.83-4.39-1.42
		s-2.03-1.3-2.64-2.13c-0.61-0.84-0.91-1.79-0.91-2.87c0-1.92,0.87-3.49,2.6-4.74c1.73-1.24,4-1.86,6.8-1.86
		c3.01,0,5.43,0.62,7.26,1.87c1.83,1.25,2.74,2.89,2.74,4.92h-7.13c0-1.67-0.96-2.51-2.89-2.51c-0.75,0-1.37,0.19-1.88,0.57
		c-0.51,0.38-0.76,0.85-0.76,1.42c0,0.58,0.31,1.05,0.93,1.41c0.62,0.36,1.61,0.66,2.96,0.89c1.36,0.23,2.55,0.51,3.58,0.83
		c3.43,1.08,5.15,3.02,5.15,5.81c0,1.9-0.93,3.45-2.78,4.65c-1.85,1.2-4.25,1.79-7.19,1.79c-1.96,0-3.7-0.32-5.23-0.96
		c-1.53-0.64-2.73-1.52-3.59-2.62c-0.86-1.11-1.29-2.27-1.29-3.49h6.65c0.03,0.96,0.38,1.67,1.06,2.11c0.68,0.44,1.54,0.67,2.6,0.67
		c0.97,0,1.7-0.18,2.18-0.54C646.76,86.58,647,86.11,647,85.53z"/>
	<path class="st0" d="M677.6,86.76c1,0,1.77-0.25,2.32-0.74c0.55-0.5,0.82-1.19,0.8-2.07h6.67c0,2.29-0.9,4.17-2.69,5.63
		s-4.11,2.2-6.93,2.2c-3.32,0-5.94-0.95-7.85-2.85c-1.91-1.9-2.87-4.54-2.87-7.91v-0.27c0-2.11,0.42-3.97,1.28-5.58
		c0.85-1.61,2.08-2.85,3.68-3.72c1.6-0.87,3.5-1.3,5.7-1.3c2.97,0,5.33,0.75,7.07,2.26c1.75,1.5,2.62,3.54,2.62,6.11h-6.67
		c0-1.08-0.29-1.91-0.87-2.49c-0.58-0.58-1.35-0.87-2.32-0.87c-1.84,0-2.92,1.07-3.23,3.22c-0.1,0.68-0.15,1.62-0.15,2.82
		c0,2.1,0.27,3.55,0.82,4.36S676.41,86.76,677.6,86.76z"/>
	<path class="st0" d="M697.91,91.39h-7.13V61.76h7.13V91.39z"/>
	<path class="st0" d="M702.23,65.14c0-0.93,0.37-1.68,1.1-2.28s1.68-0.89,2.85-0.89s2.12,0.3,2.85,0.89c0.73,0.59,1.1,1.35,1.1,2.28
		c0,0.93-0.37,1.68-1.1,2.28c-0.73,0.59-1.68,0.89-2.85,0.89s-2.12-0.3-2.85-0.89C702.6,66.82,702.23,66.06,702.23,65.14z
		 M709.79,91.39h-7.13V70.52h7.13V91.39z"/>
	<path class="st0" d="M720.89,70.52l0.23,2.45c1.62-1.89,3.79-2.83,6.52-2.83c2.88,0,4.83,1.05,5.85,3.14
		c1.55-2.1,3.78-3.14,6.71-3.14c4.63,0,7.01,2.56,7.13,7.68v13.58h-7.13V78.22c0-1.07-0.2-1.85-0.59-2.33s-1.11-0.73-2.15-0.73
		c-1.41,0-2.46,0.57-3.15,1.72l0.02,0.27v14.25h-7.13V78.26c0-1.09-0.19-1.88-0.57-2.37c-0.38-0.49-1.11-0.73-2.17-0.73
		c-1.36,0-2.41,0.57-3.12,1.72v14.53h-7.11V70.52H720.89z"/>
	<path class="st0" d="M772.6,81.13c0,3.42-0.77,6.05-2.32,7.89c-1.55,1.84-3.73,2.76-6.54,2.76c-2.32,0-4.19-0.84-5.61-2.53
		l-0.3,2.14h-6.37V61.76h7.11V72.2c1.32-1.38,3.03-2.06,5.13-2.06c2.84,0,5.04,0.93,6.58,2.8c1.55,1.86,2.32,4.49,2.32,7.87V81.13z
		 M765.47,80.72c0-2-0.29-3.43-0.88-4.28s-1.48-1.28-2.69-1.28c-1.6,0-2.72,0.56-3.33,1.68v8.28c0.6,1.1,1.73,1.66,3.38,1.66
		c1.67,0,2.74-0.74,3.19-2.23C765.35,83.8,765.47,82.53,765.47,80.72z"/>
	<path class="st0" d="M786.78,91.78c-3.5,0-6.34-0.96-8.5-2.86c-2.17-1.91-3.25-4.39-3.25-7.46v-0.54c0-2.13,0.43-4.02,1.3-5.65
		c0.87-1.63,2.13-2.9,3.79-3.79c1.66-0.89,3.63-1.34,5.91-1.34c3.21,0,5.74,0.91,7.6,2.73c1.86,1.82,2.79,4.36,2.79,7.61V83h-14.14
		c0.25,1.17,0.81,2.09,1.67,2.76c0.86,0.67,1.97,1,3.33,1c2.25,0,4.01-0.72,5.28-2.16l3.25,3.51c-0.89,1.12-2.14,2.01-3.77,2.67
		S788.65,91.78,786.78,91.78z M785.98,75.15c-2.08,0-3.32,1.26-3.71,3.78h7.18v-0.5c0.03-1.04-0.26-1.85-0.87-2.42
		C787.97,75.44,787.11,75.15,785.98,75.15z"/>
	<path class="st0" d="M798.37,80.8c0-3.3,0.78-5.91,2.34-7.81s3.74-2.85,6.54-2.85c2.04,0,3.76,0.73,5.15,2.2V61.76h7.13v29.63
		h-6.39l-0.36-2.24c-1.46,1.75-3.32,2.62-5.57,2.62c-2.71,0-4.87-0.95-6.46-2.85S798.37,84.31,798.37,80.8z M805.48,81.21
		c0,3.7,1.18,5.55,3.55,5.55c1.58,0,2.7-0.6,3.38-1.81V77c-0.65-1.23-1.76-1.85-3.33-1.85c-2.19,0-3.38,1.62-3.57,4.86L805.48,81.21
		z"/>
	<path class="st0" d="M842.63,65.33v5.19h3.76v4.51h-3.76v9.55c0,0.79,0.16,1.33,0.46,1.64c0.31,0.31,0.92,0.46,1.84,0.46
		c0.7,0,1.29-0.04,1.77-0.12v4.65c-1.28,0.37-2.62,0.56-4.01,0.56c-2.45,0-4.26-0.53-5.42-1.58c-1.17-1.05-1.75-2.66-1.75-4.8V75.03
		h-2.91v-4.51h2.91v-5.19H842.63z"/>
	<path class="st0" d="M847.65,80.76c0-2.08,0.44-3.94,1.33-5.56c0.89-1.63,2.16-2.88,3.82-3.75c1.66-0.88,3.61-1.31,5.85-1.31
		c3.42,0,6.11,0.97,8.08,2.9c1.97,1.94,2.96,4.57,2.96,7.9v0.23c0,3.25-0.99,5.83-2.96,7.75c-1.98,1.91-4.65,2.86-8.03,2.86
		c-3.25,0-5.86-0.89-7.83-2.67c-1.97-1.78-3.03-4.2-3.19-7.24L847.65,80.76z M854.76,81.17c0,1.93,0.33,3.34,0.99,4.24
		s1.64,1.35,2.93,1.35c2.53,0,3.83-1.78,3.88-5.34v-0.66c0-3.74-1.31-5.61-3.93-5.61c-2.38,0-3.67,1.61-3.86,4.84L854.76,81.17z"/>
</g>
</svg>
