<?xml version="1.0" encoding="utf-8"?>
<!-- Generator: Adobe Illustrator 25.3.1, SVG Export Plug-In . SVG Version: 6.00 Build 0)  -->
<svg version="1.1" id="Layer_1" xmlns="http://www.w3.org/2000/svg" xmlns:xlink="http://www.w3.org/1999/xlink" x="0px" y="0px"
	 viewBox="0 0 970 250" style="enable-background:new 0 0 970 250;" xml:space="preserve">
<style type="text/css">
	.st0{fill:#021D8B;stroke:url(#SVGID_1_);stroke-width:2;stroke-miterlimit:10;}
	.st1{fill:#FFFFFF;}
</style>
<linearGradient id="SVGID_1_" gradientUnits="userSpaceOnUse" x1="632.2912" y1="125" x2="877.2579" y2="125">
	<stop  offset="0" style="stop-color:#18B9FB"/>
	<stop  offset="0.5" style="stop-color:#782EEB"/>
	<stop  offset="1" style="stop-color:#E82D8A"/>
</linearGradient>
<path class="st0" d="M856.4,166.1H653.15c-10.97,0-19.86-8.89-19.86-19.86v-42.49c0-10.97,8.89-19.86,19.86-19.86H856.4
	c10.97,0,19.86,8.89,19.86,19.86v42.49C876.26,157.21,867.37,166.1,856.4,166.1z"/>
<g>
	<path class="st1" d="M655.98,115.25h7.71v2.92h-11.35v-17.63h3.63V115.25z"/>
	<path class="st1" d="M671.58,118.41c-1.92,0-3.49-0.59-4.69-1.77c-1.21-1.18-1.81-2.75-1.81-4.71v-0.34c0-1.32,0.25-2.49,0.76-3.53
		c0.51-1.04,1.23-1.84,2.16-2.4c0.93-0.56,2-0.84,3.19-0.84c1.79,0,3.2,0.56,4.23,1.69c1.03,1.13,1.54,2.73,1.54,4.81v1.43h-8.34
		c0.11,0.86,0.45,1.54,1.02,2.06c0.57,0.52,1.29,0.78,2.16,0.78c1.35,0,2.4-0.49,3.16-1.46l1.72,1.92
		c-0.52,0.74-1.24,1.32-2.13,1.74C673.66,118.2,672.67,118.41,671.58,118.41z M671.18,107.65c-0.69,0-1.26,0.23-1.69,0.71
		c-0.43,0.47-0.71,1.14-0.83,2.02h4.87v-0.28c-0.02-0.78-0.23-1.38-0.63-1.81C672.49,107.86,671.92,107.65,671.18,107.65z"/>
	<path class="st1" d="M686.54,118.17c-0.16-0.31-0.28-0.71-0.35-1.17c-0.85,0.94-1.95,1.42-3.31,1.42c-1.28,0-2.35-0.37-3.19-1.11
		c-0.84-0.74-1.27-1.68-1.27-2.81c0-1.39,0.51-2.45,1.54-3.2c1.03-0.74,2.52-1.12,4.46-1.13h1.61v-0.75c0-0.61-0.16-1.09-0.47-1.45
		s-0.8-0.54-1.47-0.54c-0.59,0-1.05,0.14-1.39,0.42c-0.33,0.28-0.5,0.67-0.5,1.16h-3.5c0-0.76,0.23-1.46,0.7-2.11
		c0.47-0.65,1.13-1.15,1.99-1.52c0.86-0.37,1.82-0.55,2.88-0.55c1.61,0,2.9,0.41,3.84,1.22c0.95,0.81,1.42,1.95,1.42,3.42v5.68
		c0.01,1.24,0.18,2.18,0.52,2.82v0.21H686.54z M683.65,115.74c0.52,0,0.99-0.12,1.43-0.35c0.44-0.23,0.76-0.54,0.97-0.93v-2.25
		h-1.31c-1.75,0-2.68,0.61-2.8,1.82l-0.01,0.21c0,0.44,0.15,0.79,0.46,1.08C682.7,115.6,683.12,115.74,683.65,115.74z"/>
	<path class="st1" d="M699.61,108.35c-0.48-0.06-0.9-0.1-1.26-0.1c-1.32,0-2.19,0.45-2.6,1.34v8.57h-3.5v-13.1h3.31l0.1,1.56
		c0.7-1.2,1.67-1.8,2.92-1.8c0.39,0,0.75,0.05,1.09,0.16L699.61,108.35z"/>
	<path class="st1" d="M704.51,105.07l0.11,1.51c0.94-1.17,2.19-1.75,3.77-1.75c1.39,0,2.42,0.41,3.1,1.22s1.03,2.03,1.04,3.66v8.46
		h-3.5v-8.38c0-0.74-0.16-1.28-0.48-1.62c-0.32-0.33-0.86-0.5-1.61-0.5c-0.99,0-1.72,0.42-2.22,1.26v9.24h-3.5v-13.1H704.51z"/>
	<path class="st1" d="M735.94,118.17h-3.63v-7.56h-7.08v7.56h-3.63v-17.63h3.63v7.14h7.08v-7.14h3.63V118.17z"/>
	<path class="st1" d="M738.33,111.5c0-1.3,0.25-2.46,0.75-3.48c0.5-1.02,1.22-1.8,2.16-2.36c0.94-0.56,2.03-0.83,3.28-0.83
		c1.77,0,3.21,0.54,4.33,1.62c1.12,1.08,1.74,2.55,1.87,4.41l0.02,0.9c0,2.01-0.56,3.62-1.68,4.84c-1.12,1.21-2.63,1.82-4.52,1.82
		c-1.89,0-3.4-0.61-4.52-1.82s-1.69-2.86-1.69-4.94V111.5z M741.83,111.75c0,1.25,0.23,2.2,0.7,2.86s1.14,0.99,2.01,0.99
		c0.85,0,1.51-0.33,1.99-0.98c0.48-0.65,0.71-1.69,0.71-3.12c0-1.22-0.24-2.17-0.71-2.84c-0.48-0.67-1.15-1.01-2.01-1.01
		c-0.86,0-1.52,0.33-1.99,1S741.83,110.35,741.83,111.75z"/>
	<path class="st1" d="M764.29,113.41l1.72-8.34h3.38l-3.34,13.1h-2.93l-2.48-8.25l-2.48,8.25h-2.92l-3.34-13.1h3.38l1.71,8.33
		l2.4-8.33h2.53L764.29,113.41z"/>
	<path class="st1" d="M790.08,103.48h-5.4v14.69h-3.63v-14.69h-5.33v-2.94h14.36V103.48z"/>
	<path class="st1" d="M788.85,111.5c0-1.3,0.25-2.46,0.75-3.48c0.5-1.02,1.22-1.8,2.16-2.36c0.94-0.56,2.03-0.83,3.28-0.83
		c1.77,0,3.21,0.54,4.33,1.62c1.12,1.08,1.74,2.55,1.87,4.41l0.02,0.9c0,2.01-0.56,3.62-1.68,4.84c-1.12,1.21-2.63,1.82-4.52,1.82
		c-1.89,0-3.4-0.61-4.52-1.82s-1.69-2.86-1.69-4.94V111.5z M792.35,111.75c0,1.25,0.23,2.2,0.7,2.86s1.14,0.99,2.01,0.99
		c0.85,0,1.51-0.33,1.99-0.98c0.48-0.65,0.71-1.69,0.71-3.12c0-1.22-0.24-2.17-0.71-2.84c-0.48-0.67-1.15-1.01-2.01-1.01
		c-0.86,0-1.52,0.33-1.99,1S792.35,110.35,792.35,111.75z"/>
	<path class="st1" d="M824.17,118.17h-3.63v-7.56h-7.08v7.56h-3.63v-17.63h3.63v7.14h7.08v-7.14h3.63V118.17z"/>
	<path class="st1" d="M833.15,118.41c-1.92,0-3.49-0.59-4.69-1.77c-1.21-1.18-1.81-2.75-1.81-4.71v-0.34c0-1.32,0.25-2.49,0.76-3.53
		c0.51-1.04,1.23-1.84,2.16-2.4c0.93-0.56,2-0.84,3.19-0.84c1.79,0,3.2,0.56,4.23,1.69c1.03,1.13,1.54,2.73,1.54,4.81v1.43h-8.34
		c0.11,0.86,0.45,1.54,1.02,2.06c0.57,0.52,1.29,0.78,2.16,0.78c1.35,0,2.4-0.49,3.16-1.46l1.72,1.92
		c-0.52,0.74-1.24,1.32-2.13,1.74C835.23,118.2,834.24,118.41,833.15,118.41z M832.75,107.65c-0.69,0-1.26,0.23-1.69,0.71
		c-0.43,0.47-0.71,1.14-0.83,2.02h4.87v-0.28c-0.02-0.78-0.23-1.38-0.63-1.81C834.06,107.86,833.49,107.65,832.75,107.65z"/>
	<path class="st1" d="M844.21,118.17h-3.51v-18.6h3.51V118.17z"/>
	<path class="st1" d="M858.89,111.74c0,2.02-0.46,3.63-1.38,4.85s-2.15,1.82-3.71,1.82c-1.32,0-2.39-0.46-3.21-1.38v6.18h-3.5
		v-18.14h3.25l0.12,1.28c0.85-1.02,1.95-1.53,3.32-1.53c1.61,0,2.87,0.6,3.77,1.79c0.9,1.19,1.34,2.84,1.34,4.94V111.74z
		 M855.39,111.49c0-1.22-0.22-2.16-0.65-2.82c-0.43-0.66-1.06-0.99-1.88-0.99c-1.1,0-1.85,0.42-2.26,1.26v5.36
		c0.43,0.86,1.19,1.3,2.29,1.3C854.56,115.59,855.39,114.22,855.39,111.49z"/>
	<path class="st1" d="M669.95,139.96v6.21h-3.63v-17.63h6.88c1.32,0,2.49,0.24,3.49,0.73s1.78,1.17,2.32,2.06
		c0.54,0.89,0.81,1.91,0.81,3.05c0,1.73-0.59,3.09-1.77,4.09s-2.82,1.5-4.91,1.5H669.95z M669.95,137.02h3.25
		c0.96,0,1.69-0.23,2.2-0.68c0.5-0.45,0.76-1.1,0.76-1.94c0-0.86-0.25-1.56-0.76-2.1c-0.51-0.53-1.21-0.81-2.11-0.82h-3.33V137.02z"
		/>
	<path class="st1" d="M689.44,136.35c-0.48-0.06-0.9-0.1-1.26-0.1c-1.32,0-2.19,0.45-2.6,1.34v8.57h-3.5v-13.1h3.31l0.1,1.56
		c0.7-1.2,1.67-1.8,2.92-1.8c0.39,0,0.75,0.05,1.09,0.16L689.44,136.35z"/>
	<path class="st1" d="M690.14,139.5c0-1.3,0.25-2.46,0.75-3.48c0.5-1.02,1.22-1.8,2.16-2.36c0.94-0.56,2.03-0.83,3.28-0.83
		c1.77,0,3.21,0.54,4.33,1.62c1.12,1.08,1.74,2.55,1.87,4.41l0.02,0.9c0,2.01-0.56,3.62-1.68,4.84c-1.12,1.21-2.63,1.82-4.52,1.82
		c-1.89,0-3.4-0.61-4.52-1.82s-1.69-2.86-1.69-4.94V139.5z M693.64,139.75c0,1.25,0.23,2.2,0.7,2.86s1.14,0.99,2.01,0.99
		c0.85,0,1.51-0.33,1.99-0.98c0.48-0.65,0.71-1.69,0.71-3.12c0-1.22-0.24-2.17-0.71-2.84c-0.48-0.67-1.15-1.01-2.01-1.01
		c-0.86,0-1.52,0.33-1.99,1S693.64,138.35,693.64,139.75z"/>
	<path class="st1" d="M708.9,129.85v3.22h2.24v2.57h-2.24v6.54c0,0.48,0.09,0.83,0.28,1.04c0.19,0.21,0.54,0.32,1.07,0.32
		c0.39,0,0.73-0.03,1.03-0.08v2.65c-0.69,0.21-1.39,0.31-2.12,0.31c-2.45,0-3.71-1.24-3.75-3.72v-7.06h-1.91v-2.57h1.91v-3.22H708.9
		z"/>
	<path class="st1" d="M719.12,146.41c-1.92,0-3.49-0.59-4.69-1.77c-1.21-1.18-1.81-2.75-1.81-4.71v-0.34c0-1.32,0.25-2.49,0.76-3.53
		c0.51-1.04,1.23-1.84,2.16-2.4c0.93-0.56,2-0.84,3.19-0.84c1.79,0,3.2,0.56,4.23,1.69c1.03,1.13,1.54,2.73,1.54,4.81v1.43h-8.34
		c0.11,0.86,0.45,1.54,1.02,2.06c0.57,0.52,1.29,0.78,2.16,0.78c1.35,0,2.4-0.49,3.16-1.46l1.72,1.92
		c-0.52,0.74-1.24,1.32-2.13,1.74C721.21,146.2,720.21,146.41,719.12,146.41z M718.72,135.65c-0.69,0-1.26,0.23-1.69,0.71
		c-0.43,0.47-0.71,1.14-0.83,2.02h4.87v-0.28c-0.02-0.78-0.23-1.38-0.63-1.81C720.04,135.86,719.47,135.65,718.72,135.65z"/>
	<path class="st1" d="M731.95,143.59c0.65,0,1.17-0.18,1.57-0.53c0.4-0.35,0.61-0.83,0.63-1.42h3.28c-0.01,0.89-0.25,1.7-0.73,2.44
		s-1.13,1.31-1.96,1.72c-0.83,0.41-1.74,0.61-2.74,0.61c-1.87,0-3.35-0.6-4.43-1.79s-1.62-2.83-1.62-4.93v-0.23
		c0-2.02,0.54-3.63,1.61-4.83c1.07-1.2,2.55-1.8,4.42-1.8c1.64,0,2.95,0.47,3.94,1.4c0.99,0.93,1.49,2.17,1.51,3.72h-3.28
		c-0.02-0.68-0.23-1.24-0.63-1.66s-0.94-0.64-1.6-0.64c-0.82,0-1.43,0.3-1.85,0.89c-0.42,0.59-0.62,1.56-0.62,2.89v0.36
		c0,1.35,0.21,2.32,0.62,2.91C730.48,143.3,731.11,143.59,731.95,143.59z"/>
	<path class="st1" d="M743.62,129.85v3.22h2.24v2.57h-2.24v6.54c0,0.48,0.09,0.83,0.28,1.04c0.19,0.21,0.54,0.32,1.07,0.32
		c0.39,0,0.73-0.03,1.03-0.08v2.65c-0.69,0.21-1.39,0.31-2.12,0.31c-2.45,0-3.71-1.24-3.75-3.72v-7.06h-1.91v-2.57h1.91v-3.22
		H743.62z"/>
	<path class="st1" d="M760.29,136.48l3.67-7.94h3.97l-5.79,11.24v6.39h-3.69v-6.39l-5.79-11.24h3.98L760.29,136.48z"/>
	<path class="st1" d="M767.98,139.5c0-1.3,0.25-2.46,0.75-3.48c0.5-1.02,1.22-1.8,2.16-2.36c0.94-0.56,2.03-0.83,3.28-0.83
		c1.77,0,3.21,0.54,4.33,1.62c1.12,1.08,1.74,2.55,1.87,4.41l0.02,0.9c0,2.01-0.56,3.62-1.68,4.84c-1.12,1.21-2.63,1.82-4.52,1.82
		c-1.89,0-3.4-0.61-4.52-1.82s-1.69-2.86-1.69-4.94V139.5z M771.48,139.75c0,1.25,0.23,2.2,0.7,2.86s1.14,0.99,2.01,0.99
		c0.85,0,1.51-0.33,1.99-0.98c0.48-0.65,0.71-1.69,0.71-3.12c0-1.22-0.24-2.17-0.71-2.84c-0.48-0.67-1.15-1.01-2.01-1.01
		c-0.86,0-1.52,0.33-1.99,1S771.48,138.35,771.48,139.75z"/>
	<path class="st1" d="M790.4,144.84c-0.86,1.05-2.06,1.57-3.58,1.57c-1.4,0-2.48-0.4-3.21-1.21c-0.74-0.81-1.12-1.99-1.13-3.55
		v-8.58h3.5v8.47c0,1.37,0.62,2.05,1.87,2.05c1.19,0,2-0.41,2.45-1.24v-9.29h3.51v13.1h-3.29L790.4,144.84z"/>
	<path class="st1" d="M803.79,136.35c-0.48-0.06-0.9-0.1-1.26-0.1c-1.32,0-2.19,0.45-2.6,1.34v8.57h-3.5v-13.1h3.31l0.1,1.56
		c0.7-1.2,1.67-1.8,2.92-1.8c0.39,0,0.75,0.05,1.09,0.16L803.79,136.35z"/>
	<path class="st1" d="M812.57,142.55c0-0.43-0.21-0.76-0.64-1.01s-1.1-0.47-2.04-0.66c-3.12-0.65-4.67-1.98-4.67-3.97
		c0-1.16,0.48-2.13,1.45-2.91c0.96-0.78,2.23-1.17,3.78-1.17c1.66,0,2.99,0.39,3.99,1.17c1,0.78,1.5,1.8,1.5,3.05h-3.5
		c0-0.5-0.16-0.91-0.48-1.24s-0.83-0.49-1.51-0.49c-0.59,0-1.04,0.13-1.37,0.4s-0.48,0.61-0.48,1.02c0,0.39,0.18,0.7,0.55,0.94
		s0.99,0.44,1.86,0.62c0.87,0.17,1.61,0.37,2.2,0.59c1.85,0.68,2.77,1.85,2.77,3.52c0,1.19-0.51,2.16-1.54,2.9
		c-1.03,0.74-2.35,1.11-3.97,1.11c-1.1,0-2.07-0.2-2.92-0.59c-0.85-0.39-1.52-0.93-2-1.61c-0.48-0.68-0.73-1.42-0.73-2.21h3.32
		c0.03,0.62,0.26,1.1,0.69,1.43c0.43,0.33,1,0.5,1.72,0.5c0.67,0,1.18-0.13,1.52-0.38C812.4,143.29,812.57,142.96,812.57,142.55z"/>
	<path class="st1" d="M824.25,146.41c-1.92,0-3.49-0.59-4.69-1.77c-1.21-1.18-1.81-2.75-1.81-4.71v-0.34c0-1.32,0.25-2.49,0.76-3.53
		c0.51-1.04,1.23-1.84,2.16-2.4c0.93-0.56,2-0.84,3.19-0.84c1.79,0,3.2,0.56,4.23,1.69c1.03,1.13,1.54,2.73,1.54,4.81v1.43h-8.34
		c0.11,0.86,0.45,1.54,1.02,2.06c0.57,0.52,1.29,0.78,2.16,0.78c1.35,0,2.4-0.49,3.16-1.46l1.72,1.92
		c-0.52,0.74-1.24,1.32-2.13,1.74C826.34,146.2,825.34,146.41,824.25,146.41z M823.85,135.65c-0.69,0-1.26,0.23-1.69,0.71
		c-0.43,0.47-0.71,1.14-0.83,2.02h4.87v-0.28c-0.02-0.78-0.23-1.38-0.63-1.81C825.17,135.86,824.6,135.65,823.85,135.65z"/>
	<path class="st1" d="M835.32,146.17h-3.51v-18.6h3.51V146.17z"/>
	<path class="st1" d="M839.16,146.17v-10.54h-1.95v-2.57h1.95v-1.11c0-1.47,0.42-2.61,1.27-3.42c0.84-0.81,2.02-1.22,3.54-1.22
		c0.48,0,1.08,0.08,1.78,0.24l-0.04,2.71c-0.29-0.07-0.65-0.11-1.07-0.11c-1.32,0-1.97,0.62-1.97,1.85v1.05h2.6v2.57h-2.6v10.54
		H839.16z"/>
</g>
</svg>
