<?xml version="1.0" encoding="utf-8"?>
<!-- Generator: Adobe Illustrator 25.3.1, SVG Export Plug-In . SVG Version: 6.00 Build 0)  -->
<svg version="1.1" id="Layer_1" xmlns="http://www.w3.org/2000/svg" xmlns:xlink="http://www.w3.org/1999/xlink" x="0px" y="0px"
	 viewBox="0 0 970 250" style="enable-background:new 0 0 970 250;" xml:space="preserve">
<style type="text/css">
	.st0{fill:#FFFFFF;}
</style>
<g>
	<path class="st0" d="M389.62,229.28l-1.19-0.34l0.21-0.66l1.18,0.46l-0.06-1.34h0.7l-0.06,1.37l1.16-0.45l0.21,0.67l-1.21,0.34
		l0.78,1.04l-0.57,0.41l-0.7-1.12l-0.7,1.09l-0.57-0.4L389.62,229.28z"/>
	<path class="st0" d="M396.11,233.08h-3.82v-0.65l1.89-2.07c0.27-0.3,0.47-0.56,0.58-0.76c0.12-0.2,0.17-0.41,0.17-0.62
		c0-0.27-0.08-0.49-0.23-0.66c-0.15-0.17-0.36-0.25-0.62-0.25c-0.31,0-0.55,0.09-0.71,0.28s-0.25,0.44-0.25,0.77h-0.95
		c0-0.35,0.08-0.66,0.24-0.94s0.38-0.49,0.68-0.65c0.29-0.15,0.63-0.23,1.01-0.23c0.55,0,0.99,0.14,1.31,0.42s0.48,0.66,0.48,1.15
		c0,0.28-0.08,0.58-0.24,0.89c-0.16,0.31-0.42,0.67-0.79,1.06l-1.39,1.49h2.64V233.08z"/>
	<path class="st0" d="M400.54,230.68c0,0.82-0.15,1.43-0.46,1.85c-0.31,0.42-0.77,0.62-1.4,0.62c-0.61,0-1.08-0.2-1.39-0.61
		c-0.31-0.4-0.47-1-0.48-1.8v-0.98c0-0.82,0.15-1.43,0.46-1.84c0.31-0.41,0.77-0.61,1.4-0.61c0.62,0,1.09,0.2,1.39,0.6
		s0.46,1,0.47,1.79V230.68z M399.59,229.62c0-0.53-0.07-0.92-0.22-1.17c-0.15-0.25-0.38-0.37-0.7-0.37c-0.31,0-0.54,0.12-0.68,0.35
		c-0.15,0.24-0.22,0.6-0.23,1.1v1.29c0,0.53,0.07,0.93,0.22,1.19c0.15,0.26,0.38,0.39,0.7,0.39c0.3,0,0.53-0.12,0.68-0.36
		c0.15-0.24,0.22-0.62,0.23-1.13V229.62z"/>
	<path class="st0" d="M405.21,233.08h-3.82v-0.65l1.89-2.07c0.27-0.3,0.47-0.56,0.58-0.76c0.12-0.2,0.17-0.41,0.17-0.62
		c0-0.27-0.08-0.49-0.23-0.66c-0.15-0.17-0.36-0.25-0.62-0.25c-0.31,0-0.55,0.09-0.71,0.28s-0.25,0.44-0.25,0.77h-0.95
		c0-0.35,0.08-0.66,0.24-0.94s0.38-0.49,0.68-0.65c0.29-0.15,0.63-0.23,1.01-0.23c0.55,0,0.99,0.14,1.31,0.42s0.48,0.66,0.48,1.15
		c0,0.28-0.08,0.58-0.24,0.89c-0.16,0.31-0.42,0.67-0.79,1.06l-1.39,1.49h2.64V233.08z"/>
	<path class="st0" d="M408.5,233.08h-0.95v-4.57l-1.39,0.48v-0.8l2.22-0.82h0.12V233.08z"/>
	<path class="st0" d="M413.66,233.08h-0.98v-5.69h0.98V233.08z"/>
	<path class="st0" d="M414.61,230.93c0-0.65,0.15-1.17,0.45-1.57s0.71-0.59,1.21-0.59c0.45,0,0.81,0.16,1.09,0.47v-2.16h0.95v6
		h-0.86l-0.05-0.44c-0.28,0.34-0.66,0.52-1.14,0.52c-0.5,0-0.9-0.2-1.2-0.6S414.61,231.62,414.61,230.93z M415.56,231.01
		c0,0.43,0.08,0.77,0.25,1.01c0.17,0.24,0.4,0.36,0.71,0.36c0.39,0,0.67-0.17,0.85-0.52v-1.8c-0.17-0.34-0.46-0.51-0.84-0.51
		c-0.31,0-0.54,0.12-0.71,0.37C415.64,230.16,415.56,230.53,415.56,231.01z"/>
	<path class="st0" d="M421.16,233.16c-0.6,0-1.09-0.19-1.46-0.57s-0.56-0.88-0.56-1.51v-0.12c0-0.42,0.08-0.8,0.24-1.13
		s0.39-0.59,0.69-0.78c0.29-0.18,0.62-0.28,0.98-0.28c0.58,0,1.02,0.18,1.33,0.55s0.47,0.89,0.47,1.56v0.38h-2.76
		c0.03,0.35,0.15,0.62,0.35,0.83s0.46,0.3,0.77,0.3c0.43,0,0.79-0.18,1.06-0.53l0.51,0.49c-0.17,0.25-0.4,0.45-0.68,0.59
		C421.83,233.09,421.52,233.16,421.16,233.16z M421.05,229.53c-0.26,0-0.47,0.09-0.63,0.27c-0.16,0.18-0.26,0.44-0.31,0.76h1.81
		v-0.07c-0.02-0.32-0.11-0.56-0.25-0.72C421.52,229.62,421.31,229.53,421.05,229.53z"/>
	<path class="st0" d="M424.48,228.85l0.03,0.49c0.31-0.38,0.72-0.57,1.23-0.57c0.88,0,1.33,0.5,1.34,1.51v2.79h-0.95v-2.74
		c0-0.27-0.06-0.47-0.17-0.6s-0.31-0.19-0.57-0.19c-0.38,0-0.67,0.17-0.86,0.52v3.01h-0.95v-4.23H424.48z"/>
	<path class="st0" d="M429.23,227.82v1.03h0.75v0.7h-0.75v2.36c0,0.16,0.03,0.28,0.1,0.35c0.06,0.07,0.18,0.11,0.34,0.11
		c0.11,0,0.22-0.01,0.33-0.04v0.73c-0.22,0.06-0.42,0.09-0.62,0.09c-0.73,0-1.09-0.4-1.09-1.21v-2.39h-0.7v-0.7h0.7v-1.03H429.23z"
		/>
	<path class="st0" d="M430.71,227.75c0-0.15,0.05-0.27,0.14-0.36c0.09-0.1,0.22-0.14,0.4-0.14s0.3,0.05,0.4,0.14
		c0.09,0.1,0.14,0.22,0.14,0.36c0,0.14-0.05,0.26-0.14,0.36c-0.09,0.1-0.23,0.14-0.4,0.14s-0.3-0.05-0.4-0.14
		C430.75,228.02,430.71,227.9,430.71,227.75z M431.71,233.08h-0.95v-4.23h0.95V233.08z"/>
	<path class="st0" d="M433.94,227.82v1.03h0.75v0.7h-0.75v2.36c0,0.16,0.03,0.28,0.1,0.35c0.06,0.07,0.18,0.11,0.34,0.11
		c0.11,0,0.22-0.01,0.33-0.04v0.73c-0.22,0.06-0.42,0.09-0.62,0.09c-0.73,0-1.09-0.4-1.09-1.21v-2.39h-0.7v-0.7h0.7v-1.03H433.94z"
		/>
	<path class="st0" d="M436.89,231.72l0.86-2.87h1.01l-1.68,4.87c-0.26,0.71-0.7,1.07-1.31,1.07c-0.14,0-0.29-0.02-0.46-0.07v-0.74
		l0.18,0.01c0.24,0,0.42-0.04,0.54-0.13c0.12-0.09,0.22-0.23,0.29-0.44l0.14-0.36l-1.48-4.2h1.02L436.89,231.72z"/>
	<path class="st0" d="M444.66,230.67h-2.29v2.41h-0.99v-5.69H445v0.8h-2.62v1.69h2.29V230.67z"/>
	<path class="st0" d="M447.8,229.72c-0.12-0.02-0.25-0.03-0.39-0.03c-0.43,0-0.73,0.17-0.88,0.5v2.89h-0.95v-4.23h0.91l0.02,0.47
		c0.23-0.37,0.55-0.55,0.95-0.55c0.14,0,0.25,0.02,0.34,0.05L447.8,229.72z"/>
	<path class="st0" d="M450.81,233.08c-0.04-0.08-0.08-0.21-0.11-0.39c-0.3,0.32-0.67,0.47-1.11,0.47c-0.42,0-0.77-0.12-1.04-0.36
		s-0.4-0.54-0.4-0.9c0-0.45,0.17-0.8,0.5-1.04c0.33-0.24,0.81-0.36,1.44-0.36h0.58v-0.28c0-0.22-0.06-0.39-0.18-0.53
		c-0.12-0.13-0.31-0.2-0.56-0.2c-0.22,0-0.39,0.05-0.53,0.16c-0.14,0.11-0.21,0.25-0.21,0.41h-0.95c0-0.23,0.08-0.45,0.23-0.65
		c0.15-0.2,0.36-0.36,0.63-0.47c0.26-0.11,0.56-0.17,0.88-0.17c0.5,0,0.89,0.12,1.18,0.37c0.29,0.25,0.45,0.6,0.45,1.05v1.91
		c0,0.38,0.05,0.68,0.16,0.91v0.07H450.81z M449.77,232.39c0.19,0,0.36-0.04,0.53-0.14c0.17-0.09,0.29-0.21,0.37-0.37v-0.8h-0.51
		c-0.35,0-0.62,0.06-0.79,0.18c-0.18,0.12-0.27,0.3-0.27,0.52c0,0.18,0.06,0.33,0.18,0.44C449.4,232.34,449.56,232.39,449.77,232.39
		z"/>
	<path class="st0" d="M455.17,232.66c-0.28,0.33-0.67,0.49-1.19,0.49c-0.46,0-0.81-0.13-1.04-0.4c-0.24-0.27-0.35-0.66-0.35-1.16
		v-2.74h0.95v2.73c0,0.54,0.22,0.8,0.67,0.8c0.46,0,0.77-0.17,0.93-0.5v-3.04h0.95v4.23h-0.89L455.17,232.66z"/>
	<path class="st0" d="M456.88,230.93c0-0.65,0.15-1.17,0.45-1.57s0.71-0.59,1.21-0.59c0.45,0,0.81,0.16,1.09,0.47v-2.16h0.95v6
		h-0.86l-0.05-0.44c-0.28,0.34-0.66,0.52-1.14,0.52c-0.5,0-0.9-0.2-1.2-0.6S456.88,231.62,456.88,230.93z M457.83,231.01
		c0,0.43,0.08,0.77,0.25,1.01c0.17,0.24,0.4,0.36,0.71,0.36c0.39,0,0.67-0.17,0.85-0.52v-1.8c-0.17-0.34-0.46-0.51-0.84-0.51
		c-0.31,0-0.54,0.12-0.71,0.37C457.91,230.16,457.83,230.53,457.83,231.01z"/>
	<path class="st0" d="M466.63,231.61c0-0.25-0.09-0.44-0.26-0.58c-0.18-0.13-0.49-0.27-0.95-0.41c-0.46-0.14-0.82-0.29-1.09-0.46
		c-0.52-0.33-0.78-0.75-0.78-1.27c0-0.46,0.19-0.84,0.56-1.13s0.86-0.45,1.46-0.45c0.4,0,0.75,0.07,1.06,0.22
		c0.31,0.15,0.55,0.35,0.73,0.62s0.27,0.57,0.27,0.9h-0.98c0-0.3-0.09-0.53-0.28-0.7s-0.45-0.25-0.8-0.25
		c-0.32,0-0.57,0.07-0.75,0.21c-0.18,0.14-0.27,0.33-0.27,0.58c0,0.21,0.1,0.38,0.29,0.52c0.19,0.14,0.51,0.28,0.95,0.41
		c0.44,0.13,0.8,0.28,1.07,0.45s0.46,0.36,0.59,0.58c0.12,0.22,0.19,0.47,0.19,0.76c0,0.47-0.18,0.85-0.54,1.13
		c-0.36,0.28-0.86,0.42-1.48,0.42c-0.41,0-0.79-0.08-1.13-0.23s-0.61-0.36-0.8-0.63c-0.19-0.27-0.29-0.58-0.29-0.94h0.99
		c0,0.32,0.11,0.57,0.32,0.75c0.21,0.18,0.52,0.27,0.92,0.27c0.34,0,0.6-0.07,0.78-0.21C466.54,232.03,466.63,231.84,466.63,231.61z
		"/>
	<path class="st0" d="M469.58,227.82v1.03h0.75v0.7h-0.75v2.36c0,0.16,0.03,0.28,0.1,0.35c0.06,0.07,0.18,0.11,0.34,0.11
		c0.11,0,0.22-0.01,0.33-0.04v0.73c-0.22,0.06-0.42,0.09-0.62,0.09c-0.73,0-1.09-0.4-1.09-1.21v-2.39h-0.7v-0.7h0.7v-1.03H469.58z"
		/>
	<path class="st0" d="M473.61,232.66c-0.28,0.33-0.67,0.49-1.19,0.49c-0.46,0-0.81-0.13-1.04-0.4c-0.24-0.27-0.35-0.66-0.35-1.16
		v-2.74h0.95v2.73c0,0.54,0.22,0.8,0.67,0.8c0.46,0,0.77-0.17,0.93-0.5v-3.04h0.95v4.23h-0.89L473.61,232.66z"/>
	<path class="st0" d="M475.32,230.93c0-0.65,0.15-1.17,0.45-1.57s0.71-0.59,1.21-0.59c0.45,0,0.81,0.16,1.09,0.47v-2.16h0.95v6
		h-0.86l-0.05-0.44c-0.28,0.34-0.66,0.52-1.14,0.52c-0.5,0-0.9-0.2-1.2-0.6S475.32,231.62,475.32,230.93z M476.27,231.01
		c0,0.43,0.08,0.77,0.25,1.01c0.17,0.24,0.4,0.36,0.71,0.36c0.39,0,0.67-0.17,0.85-0.52v-1.8c-0.17-0.34-0.46-0.51-0.84-0.51
		c-0.31,0-0.54,0.12-0.71,0.37C476.35,230.16,476.27,230.53,476.27,231.01z"/>
	<path class="st0" d="M481.49,231.72l0.86-2.87h1.01l-1.68,4.87c-0.26,0.71-0.7,1.07-1.31,1.07c-0.14,0-0.29-0.02-0.46-0.07v-0.74
		l0.18,0.01c0.24,0,0.42-0.04,0.54-0.13c0.12-0.09,0.22-0.23,0.29-0.44l0.14-0.36l-1.48-4.2h1.02L481.49,231.72z"/>
	<path class="st0" d="M484.04,234.36l-0.51-0.3c0.15-0.24,0.25-0.44,0.31-0.62s0.08-0.35,0.09-0.54v-0.74h0.86l0,0.68
		c0,0.28-0.07,0.55-0.21,0.83S484.26,234.18,484.04,234.36z"/>
	<path class="st0" d="M490.08,227.39h0.98v3.99c0,0.54-0.17,0.98-0.51,1.3s-0.79,0.48-1.35,0.48c-0.59,0-1.05-0.15-1.38-0.45
		c-0.32-0.3-0.48-0.72-0.48-1.25h0.98c0,0.3,0.08,0.53,0.22,0.68s0.37,0.23,0.65,0.23c0.27,0,0.48-0.09,0.63-0.26
		s0.24-0.42,0.24-0.73V227.39z"/>
	<path class="st0" d="M494.62,233.08c-0.04-0.08-0.08-0.21-0.11-0.39c-0.3,0.32-0.67,0.47-1.11,0.47c-0.42,0-0.77-0.12-1.04-0.36
		s-0.4-0.54-0.4-0.9c0-0.45,0.17-0.8,0.5-1.04c0.33-0.24,0.81-0.36,1.44-0.36h0.58v-0.28c0-0.22-0.06-0.39-0.18-0.53
		c-0.12-0.13-0.31-0.2-0.56-0.2c-0.22,0-0.39,0.05-0.53,0.16c-0.14,0.11-0.21,0.25-0.21,0.41h-0.95c0-0.23,0.08-0.45,0.23-0.65
		c0.15-0.2,0.36-0.36,0.63-0.47c0.26-0.11,0.56-0.17,0.88-0.17c0.5,0,0.89,0.12,1.18,0.37c0.29,0.25,0.45,0.6,0.45,1.05v1.91
		c0,0.38,0.05,0.68,0.16,0.91v0.07H494.62z M493.58,232.39c0.19,0,0.36-0.04,0.53-0.14c0.17-0.09,0.29-0.21,0.37-0.37v-0.8h-0.51
		c-0.35,0-0.62,0.06-0.79,0.18c-0.18,0.12-0.27,0.3-0.27,0.52c0,0.18,0.06,0.33,0.18,0.44
		C493.22,232.34,493.38,232.39,493.58,232.39z"/>
	<path class="st0" d="M497.86,231.87l0.89-3.02h0.98l-1.46,4.23h-0.82l-1.48-4.23h0.98L497.86,231.87z"/>
	<path class="st0" d="M502.19,233.16c-0.6,0-1.09-0.19-1.46-0.57s-0.56-0.88-0.56-1.51v-0.12c0-0.42,0.08-0.8,0.24-1.13
		s0.39-0.59,0.69-0.78c0.29-0.18,0.62-0.28,0.98-0.28c0.58,0,1.02,0.18,1.33,0.55s0.47,0.89,0.47,1.56v0.38h-2.76
		c0.03,0.35,0.15,0.62,0.35,0.83s0.46,0.3,0.77,0.3c0.43,0,0.79-0.18,1.06-0.53l0.51,0.49c-0.17,0.25-0.4,0.45-0.68,0.59
		C502.86,233.09,502.54,233.16,502.19,233.16z M502.07,229.53c-0.26,0-0.47,0.09-0.63,0.27c-0.16,0.18-0.26,0.44-0.31,0.76h1.81
		v-0.07c-0.02-0.32-0.11-0.56-0.25-0.72C502.54,229.62,502.34,229.53,502.07,229.53z"/>
	<path class="st0" d="M505.63,233.08h-0.95v-6h0.95V233.08z"/>
	<path class="st0" d="M506.66,227.75c0-0.15,0.05-0.27,0.14-0.36c0.09-0.1,0.22-0.14,0.4-0.14s0.3,0.05,0.4,0.14
		c0.09,0.1,0.14,0.22,0.14,0.36c0,0.14-0.05,0.26-0.14,0.36c-0.09,0.1-0.23,0.14-0.4,0.14s-0.3-0.05-0.4-0.14
		C506.71,228.02,506.66,227.9,506.66,227.75z M507.67,233.08h-0.95v-4.23h0.95V233.08z"/>
	<path class="st0" d="M509.59,228.85l0.03,0.49c0.31-0.38,0.72-0.57,1.23-0.57c0.88,0,1.33,0.5,1.34,1.51v2.79h-0.95v-2.74
		c0-0.27-0.06-0.47-0.17-0.6s-0.31-0.19-0.57-0.19c-0.38,0-0.67,0.17-0.86,0.52v3.01h-0.95v-4.23H509.59z"/>
	<path class="st0" d="M518.21,231.61c0-0.25-0.09-0.44-0.26-0.58c-0.18-0.13-0.49-0.27-0.95-0.41c-0.46-0.14-0.82-0.29-1.09-0.46
		c-0.52-0.33-0.78-0.75-0.78-1.27c0-0.46,0.19-0.84,0.56-1.13s0.86-0.45,1.46-0.45c0.4,0,0.75,0.07,1.06,0.22
		c0.31,0.15,0.55,0.35,0.73,0.62s0.27,0.57,0.27,0.9h-0.98c0-0.3-0.09-0.53-0.28-0.7s-0.45-0.25-0.8-0.25
		c-0.32,0-0.57,0.07-0.75,0.21c-0.18,0.14-0.27,0.33-0.27,0.58c0,0.21,0.1,0.38,0.29,0.52c0.19,0.14,0.51,0.28,0.95,0.41
		c0.44,0.13,0.8,0.28,1.07,0.45s0.46,0.36,0.59,0.58c0.12,0.22,0.19,0.47,0.19,0.76c0,0.47-0.18,0.85-0.54,1.13
		c-0.36,0.28-0.86,0.42-1.48,0.42c-0.41,0-0.79-0.08-1.13-0.23s-0.61-0.36-0.8-0.63c-0.19-0.27-0.29-0.58-0.29-0.94h0.99
		c0,0.32,0.11,0.57,0.32,0.75c0.21,0.18,0.52,0.27,0.92,0.27c0.34,0,0.6-0.07,0.78-0.21C518.12,232.03,518.21,231.84,518.21,231.61z
		"/>
	<path class="st0" d="M521.16,227.82v1.03h0.75v0.7h-0.75v2.36c0,0.16,0.03,0.28,0.1,0.35c0.06,0.07,0.18,0.11,0.34,0.11
		c0.11,0,0.22-0.01,0.33-0.04v0.73c-0.22,0.06-0.42,0.09-0.62,0.09c-0.73,0-1.09-0.4-1.09-1.21v-2.39h-0.7v-0.7h0.7v-1.03H521.16z"
		/>
	<path class="st0" d="M524.85,229.72c-0.12-0.02-0.25-0.03-0.39-0.03c-0.43,0-0.73,0.17-0.88,0.5v2.89h-0.95v-4.23h0.91l0.02,0.47
		c0.23-0.37,0.55-0.55,0.95-0.55c0.14,0,0.25,0.02,0.34,0.05L524.85,229.72z"/>
	<path class="st0" d="M527.86,233.08c-0.04-0.08-0.08-0.21-0.11-0.39c-0.3,0.32-0.67,0.47-1.11,0.47c-0.42,0-0.77-0.12-1.04-0.36
		s-0.4-0.54-0.4-0.9c0-0.45,0.17-0.8,0.5-1.04c0.33-0.24,0.81-0.36,1.44-0.36h0.58v-0.28c0-0.22-0.06-0.39-0.18-0.53
		c-0.12-0.13-0.31-0.2-0.56-0.2c-0.22,0-0.39,0.05-0.53,0.16c-0.14,0.11-0.21,0.25-0.21,0.41h-0.95c0-0.23,0.08-0.45,0.23-0.65
		c0.15-0.2,0.36-0.36,0.63-0.47c0.26-0.11,0.56-0.17,0.88-0.17c0.5,0,0.89,0.12,1.18,0.37c0.29,0.25,0.45,0.6,0.45,1.05v1.91
		c0,0.38,0.05,0.68,0.16,0.91v0.07H527.86z M526.81,232.39c0.19,0,0.36-0.04,0.53-0.14c0.17-0.09,0.29-0.21,0.37-0.37v-0.8h-0.51
		c-0.35,0-0.62,0.06-0.79,0.18c-0.18,0.12-0.27,0.3-0.27,0.52c0,0.18,0.06,0.33,0.18,0.44
		C526.45,232.34,526.61,232.39,526.81,232.39z"/>
	<path class="st0" d="M530.85,227.82v1.03h0.75v0.7h-0.75v2.36c0,0.16,0.03,0.28,0.1,0.35c0.06,0.07,0.18,0.11,0.34,0.11
		c0.11,0,0.22-0.01,0.33-0.04v0.73c-0.22,0.06-0.42,0.09-0.62,0.09c-0.73,0-1.09-0.4-1.09-1.21v-2.39h-0.7v-0.7h0.7v-1.03H530.85z"
		/>
	<path class="st0" d="M534.18,233.16c-0.6,0-1.09-0.19-1.46-0.57s-0.56-0.88-0.56-1.51v-0.12c0-0.42,0.08-0.8,0.24-1.13
		s0.39-0.59,0.69-0.78c0.29-0.18,0.62-0.28,0.98-0.28c0.58,0,1.02,0.18,1.33,0.55s0.47,0.89,0.47,1.56v0.38h-2.76
		c0.03,0.35,0.15,0.62,0.35,0.83s0.46,0.3,0.77,0.3c0.43,0,0.79-0.18,1.06-0.53l0.51,0.49c-0.17,0.25-0.4,0.45-0.68,0.59
		C534.85,233.09,534.53,233.16,534.18,233.16z M534.07,229.53c-0.26,0-0.47,0.09-0.63,0.27c-0.16,0.18-0.26,0.44-0.31,0.76h1.81
		v-0.07c-0.02-0.32-0.11-0.56-0.25-0.72C534.54,229.62,534.33,229.53,534.07,229.53z"/>
	<path class="st0" d="M536.45,230.93c0-0.66,0.15-1.18,0.46-1.57c0.31-0.39,0.72-0.59,1.23-0.59c0.48,0,0.86,0.17,1.14,0.5
		l0.04-0.43h0.86v4.1c0,0.55-0.17,0.99-0.52,1.31s-0.81,0.48-1.4,0.48c-0.31,0-0.61-0.06-0.91-0.19s-0.52-0.3-0.67-0.51l0.45-0.57
		c0.29,0.35,0.65,0.52,1.08,0.52c0.32,0,0.56-0.08,0.75-0.26c0.18-0.17,0.27-0.42,0.27-0.75v-0.29c-0.27,0.3-0.64,0.46-1.09,0.46
		c-0.5,0-0.9-0.2-1.21-0.59C536.6,232.17,536.45,231.63,536.45,230.93z M537.39,231.01c0,0.42,0.09,0.76,0.26,1
		c0.17,0.24,0.41,0.37,0.72,0.37c0.38,0,0.67-0.16,0.85-0.49v-1.86c-0.18-0.32-0.46-0.48-0.84-0.48c-0.31,0-0.56,0.12-0.73,0.37
		C537.48,230.17,537.39,230.53,537.39,231.01z"/>
	<path class="st0" d="M542.62,231.72l0.86-2.87h1.01l-1.68,4.87c-0.26,0.71-0.7,1.07-1.31,1.07c-0.14,0-0.29-0.02-0.46-0.07v-0.74
		l0.18,0.01c0.24,0,0.42-0.04,0.54-0.13c0.12-0.09,0.22-0.23,0.29-0.44l0.14-0.36l-1.48-4.2h1.02L542.62,231.72z"/>
	<path class="st0" d="M546.88,231.54c0-0.26,0.07-0.5,0.21-0.72c0.14-0.22,0.43-0.48,0.85-0.78c-0.22-0.28-0.38-0.52-0.46-0.71
		s-0.13-0.38-0.13-0.57c0-0.45,0.14-0.8,0.41-1.06c0.27-0.26,0.64-0.39,1.09-0.39c0.41,0,0.75,0.12,1.02,0.37
		c0.26,0.24,0.4,0.54,0.4,0.9c0,0.24-0.06,0.46-0.18,0.65s-0.32,0.4-0.59,0.6l-0.39,0.28l1.1,1.3c0.16-0.31,0.24-0.66,0.24-1.04
		h0.82c0,0.7-0.16,1.28-0.49,1.72l0.84,0.99h-1.1l-0.32-0.38c-0.41,0.3-0.89,0.46-1.45,0.46s-1.01-0.15-1.35-0.45
		C547.05,232.41,546.88,232.02,546.88,231.54z M548.77,232.4c0.32,0,0.62-0.11,0.9-0.32l-1.24-1.46l-0.12,0.09
		c-0.31,0.24-0.47,0.51-0.47,0.81c0,0.26,0.08,0.48,0.25,0.64S548.48,232.4,548.77,232.4z M548.24,228.73c0,0.22,0.13,0.49,0.4,0.82
		l0.43-0.3l0.12-0.1c0.16-0.14,0.24-0.33,0.24-0.55c0-0.15-0.06-0.28-0.17-0.38s-0.25-0.16-0.43-0.16c-0.18,0-0.33,0.06-0.44,0.19
		S548.24,228.54,548.24,228.73z"/>
	<path class="st0" d="M556.32,230.89h-1.1v2.19h-0.99v-5.69h2c0.66,0,1.16,0.15,1.52,0.44c0.36,0.29,0.54,0.72,0.54,1.28
		c0,0.38-0.09,0.7-0.28,0.96c-0.18,0.26-0.44,0.45-0.77,0.59l1.28,2.37v0.05h-1.06L556.32,230.89z M555.22,230.09h1.02
		c0.33,0,0.59-0.08,0.78-0.25s0.28-0.4,0.28-0.69c0-0.3-0.09-0.54-0.26-0.71c-0.17-0.17-0.43-0.25-0.78-0.26h-1.04V230.09z"/>
	<path class="st0" d="M560.99,233.16c-0.6,0-1.09-0.19-1.46-0.57s-0.56-0.88-0.56-1.51v-0.12c0-0.42,0.08-0.8,0.24-1.13
		s0.39-0.59,0.69-0.78c0.29-0.18,0.62-0.28,0.98-0.28c0.58,0,1.02,0.18,1.33,0.55s0.47,0.89,0.47,1.56v0.38h-2.76
		c0.03,0.35,0.15,0.62,0.35,0.83s0.46,0.3,0.77,0.3c0.43,0,0.79-0.18,1.06-0.53l0.51,0.49c-0.17,0.25-0.4,0.45-0.68,0.59
		C561.66,233.09,561.34,233.16,560.99,233.16z M560.88,229.53c-0.26,0-0.47,0.09-0.63,0.27c-0.16,0.18-0.26,0.44-0.31,0.76h1.81
		v-0.07c-0.02-0.32-0.11-0.56-0.25-0.72C561.35,229.62,561.14,229.53,560.88,229.53z"/>
	<path class="st0" d="M565.79,231.93c0-0.17-0.07-0.3-0.21-0.39c-0.14-0.09-0.37-0.17-0.69-0.23c-0.32-0.07-0.59-0.15-0.81-0.26
		c-0.47-0.23-0.71-0.56-0.71-1c0-0.36,0.15-0.67,0.46-0.91c0.31-0.24,0.7-0.37,1.17-0.37c0.5,0,0.91,0.12,1.22,0.38
		s0.47,0.57,0.47,0.97h-0.95c0-0.18-0.07-0.33-0.2-0.46s-0.32-0.18-0.54-0.18c-0.21,0-0.38,0.05-0.51,0.14
		c-0.13,0.1-0.2,0.23-0.2,0.39c0,0.15,0.06,0.26,0.18,0.34c0.12,0.08,0.37,0.16,0.74,0.24s0.67,0.18,0.88,0.29s0.37,0.25,0.47,0.41
		c0.1,0.16,0.15,0.35,0.15,0.58c0,0.38-0.16,0.69-0.47,0.92c-0.32,0.24-0.73,0.35-1.24,0.35c-0.35,0-0.66-0.06-0.93-0.19
		s-0.48-0.3-0.63-0.52s-0.23-0.45-0.23-0.71h0.92c0.01,0.22,0.1,0.4,0.25,0.52s0.36,0.18,0.62,0.18c0.25,0,0.44-0.05,0.57-0.14
		C565.73,232.21,565.79,232.08,565.79,231.93z"/>
	<path class="st0" d="M569.41,233.16c-0.6,0-1.09-0.19-1.46-0.57s-0.56-0.88-0.56-1.51v-0.12c0-0.42,0.08-0.8,0.24-1.13
		s0.39-0.59,0.69-0.78c0.29-0.18,0.62-0.28,0.98-0.28c0.58,0,1.02,0.18,1.33,0.55s0.47,0.89,0.47,1.56v0.38h-2.76
		c0.03,0.35,0.15,0.62,0.35,0.83s0.46,0.3,0.77,0.3c0.43,0,0.79-0.18,1.06-0.53l0.51,0.49c-0.17,0.25-0.4,0.45-0.68,0.59
		C570.08,233.09,569.77,233.16,569.41,233.16z M569.3,229.53c-0.26,0-0.47,0.09-0.63,0.27c-0.16,0.18-0.26,0.44-0.31,0.76h1.81
		v-0.07c-0.02-0.32-0.11-0.56-0.25-0.72C569.77,229.62,569.56,229.53,569.3,229.53z"/>
	<path class="st0" d="M574.37,233.08c-0.04-0.08-0.08-0.21-0.11-0.39c-0.3,0.32-0.67,0.47-1.11,0.47c-0.42,0-0.77-0.12-1.04-0.36
		s-0.4-0.54-0.4-0.9c0-0.45,0.17-0.8,0.5-1.04c0.33-0.24,0.81-0.36,1.44-0.36h0.58v-0.28c0-0.22-0.06-0.39-0.18-0.53
		c-0.12-0.13-0.31-0.2-0.56-0.2c-0.22,0-0.39,0.05-0.53,0.16c-0.14,0.11-0.21,0.25-0.21,0.41h-0.95c0-0.23,0.08-0.45,0.23-0.65
		c0.15-0.2,0.36-0.36,0.63-0.47c0.26-0.11,0.56-0.17,0.88-0.17c0.5,0,0.89,0.12,1.18,0.37c0.29,0.25,0.45,0.6,0.45,1.05v1.91
		c0,0.38,0.05,0.68,0.16,0.91v0.07H574.37z M573.33,232.39c0.19,0,0.36-0.04,0.53-0.14c0.17-0.09,0.29-0.21,0.37-0.37v-0.8h-0.51
		c-0.35,0-0.62,0.06-0.79,0.18c-0.18,0.12-0.27,0.3-0.27,0.52c0,0.18,0.06,0.33,0.18,0.44
		C572.96,232.34,573.12,232.39,573.33,232.39z"/>
	<path class="st0" d="M578.39,229.72c-0.12-0.02-0.25-0.03-0.39-0.03c-0.43,0-0.73,0.17-0.88,0.5v2.89h-0.95v-4.23h0.91l0.02,0.47
		c0.23-0.37,0.55-0.55,0.95-0.55c0.14,0,0.25,0.02,0.34,0.05L578.39,229.72z"/>
	<path class="st0" d="M580.65,232.4c0.24,0,0.43-0.07,0.59-0.21c0.16-0.14,0.24-0.31,0.25-0.51h0.89c-0.01,0.26-0.09,0.51-0.25,0.74
		c-0.15,0.23-0.36,0.41-0.62,0.54s-0.55,0.2-0.85,0.2c-0.59,0-1.06-0.19-1.41-0.57s-0.52-0.91-0.52-1.59v-0.1
		c0-0.64,0.17-1.16,0.52-1.54s0.81-0.58,1.41-0.58c0.5,0,0.91,0.15,1.23,0.44s0.48,0.68,0.5,1.15h-0.89
		c-0.01-0.24-0.09-0.44-0.25-0.6s-0.35-0.23-0.59-0.23c-0.31,0-0.54,0.11-0.71,0.33s-0.25,0.56-0.25,1.01v0.15
		c0,0.46,0.08,0.8,0.25,1.03C580.1,232.29,580.34,232.4,580.65,232.4z"/>
	<path class="st0" d="M584.04,229.31c0.31-0.36,0.7-0.54,1.18-0.54c0.9,0,1.36,0.51,1.37,1.54v2.76h-0.95v-2.73
		c0-0.29-0.06-0.5-0.19-0.62s-0.31-0.18-0.56-0.18c-0.38,0-0.66,0.17-0.85,0.51v3.02h-0.95v-6h0.95V229.31z"/>
</g>
</svg>
