<svg id="Layer_1" xmlns="http://www.w3.org/2000/svg" viewBox="0 0 300 250"><style>.st0{fill:url(#SVGID_1_)}</style><linearGradient id="SVGID_1_" gradientUnits="userSpaceOnUse" x1="25.502" y1="113.056" x2="274.623" y2="113.056"><stop offset="0" stop-color="#18b9fb"/><stop offset=".5" stop-color="#782eeb"/><stop offset="1" stop-color="#e82d8a"/></linearGradient><path class="st0" d="M32.12 90.71l2.83-10.35h3.83L34 94.58h-3.75L25.5 80.36h3.8l2.82 10.35zm7.52-9.42c0-.47.17-.85.51-1.15s.78-.45 1.32-.45.98.15 1.32.45.51.68.51 1.15-.17.85-.51 1.15-.78.45-1.32.45-.98-.15-1.32-.45-.51-.68-.51-1.15zm3.5 13.29h-3.3V84.01h3.3v10.57zm7.14.19c-1.62 0-2.93-.48-3.94-1.45s-1.5-2.22-1.5-3.77v-.27c0-1.08.2-2.03.6-2.86s.98-1.47 1.75-1.92 1.68-.68 2.73-.68c1.48 0 2.66.46 3.52 1.38s1.29 2.21 1.29 3.85v1.28h-6.54c.12.59.37 1.06.77 1.4s.91.51 1.54.51c1.04 0 1.86-.36 2.44-1.09l1.5 1.78c-.41.57-.99 1.02-1.74 1.35s-1.56.49-2.42.49zm-.37-8.41c-.96 0-1.54.64-1.72 1.91h3.32v-.25c.01-.53-.12-.94-.4-1.23s-.68-.43-1.2-.43zm15.27 3.88l1.06-6.23h3.15L66.9 94.58h-2.78l-1.75-6.27-1.76 6.27h-2.78l-2.49-10.57h3.15l1.04 6.38 1.68-6.38h2.29l1.68 6.23zm20.19-.87c0 1.64-.37 2.95-1.11 3.93s-1.74 1.47-2.99 1.47c-.97 0-1.77-.35-2.39-1.06v4.93h-3.29V84.01h3.08l.1.98c.63-.78 1.46-1.17 2.49-1.17 1.3 0 2.31.48 3.04 1.44s1.08 2.28 1.08 3.96v.15zm-3.3-.2c0-1.88-.55-2.81-1.64-2.81-.78 0-1.3.28-1.56.84v4.16c.29.59.81.88 1.58.88 1.05 0 1.59-.91 1.62-2.71v-.36zm9.86 5.6c-1.62 0-2.93-.48-3.94-1.45s-1.5-2.22-1.5-3.77v-.27c0-1.08.2-2.03.6-2.86s.98-1.47 1.75-1.92 1.68-.68 2.73-.68c1.48 0 2.66.46 3.52 1.38s1.29 2.21 1.29 3.85v1.28h-6.54c.12.59.37 1.06.77 1.4s.91.51 1.54.51c1.04 0 1.86-.36 2.44-1.09l1.5 1.78c-.41.57-.99 1.02-1.74 1.35s-1.56.49-2.42.49zm-.37-8.41c-.96 0-1.54.64-1.72 1.91h3.32v-.25c.01-.53-.12-.94-.4-1.23s-.68-.43-1.2-.43zm12.54.63l-1.08-.08c-1.04 0-1.7.33-1.99.98v6.69h-3.29V84.01h3.09l.11 1.36c.55-1.04 1.33-1.55 2.31-1.55.35 0 .66.04.92.12l-.07 3.05zm6.71 4.62c0-.28-.15-.5-.44-.67s-.85-.34-1.67-.53-1.5-.42-2.03-.72-.94-.66-1.22-1.08-.42-.91-.42-1.46c0-.97.4-1.77 1.2-2.4s1.85-.94 3.14-.94c1.39 0 2.51.32 3.36.95s1.27 1.46 1.27 2.49h-3.3c0-.85-.45-1.27-1.34-1.27-.34 0-.63.1-.87.29s-.35.43-.35.72.14.53.43.71.74.33 1.37.45 1.18.26 1.66.42c1.59.55 2.38 1.53 2.38 2.94 0 .96-.43 1.75-1.28 2.35s-1.96.91-3.33.91c-.91 0-1.71-.16-2.42-.49s-1.26-.77-1.66-1.33-.6-1.15-.6-1.77h3.08c.01.49.18.84.49 1.07s.71.34 1.2.34c.45 0 .79-.09 1.01-.27s.34-.42.34-.71zm4.3-2.41c0-1.05.21-1.99.62-2.82s1-1.46 1.77-1.9 1.67-.66 2.71-.66c1.58 0 2.83.49 3.74 1.47s1.37 2.31 1.37 4v.12c0 1.65-.46 2.95-1.37 3.92s-2.15 1.45-3.72 1.45c-1.5 0-2.71-.45-3.62-1.35s-1.4-2.12-1.47-3.67l-.03-.56zm3.29.2c0 .98.15 1.69.46 2.15s.76.68 1.36.68c1.17 0 1.77-.9 1.8-2.71v-.32c0-1.89-.61-2.84-1.82-2.84-1.1 0-1.7.82-1.79 2.45l-.01.59zm11.38-5.39l.11 1.24c.73-.96 1.74-1.44 3.02-1.44 1.1 0 1.92.33 2.47.99s.83 1.65.84 2.97v6.81h-3.3v-6.67c0-.53-.11-.93-.32-1.18s-.61-.38-1.17-.38c-.64 0-1.12.25-1.44.76v7.46h-3.29V84.01h3.08zm14.21 10.57c-.12-.21-.22-.53-.31-.95-.61.76-1.45 1.14-2.54 1.14-1 0-1.84-.3-2.54-.9s-1.04-1.36-1.04-2.27c0-1.15.42-2.01 1.27-2.6s2.08-.88 3.69-.88h1.02v-.56c0-.97-.42-1.46-1.26-1.46-.78 0-1.17.39-1.17 1.16h-3.29c0-1.02.43-1.85 1.3-2.49.87-.64 1.98-.96 3.33-.96s2.41.33 3.19.99 1.18 1.56 1.2 2.71v4.68c.01.97.16 1.71.45 2.23v.17h-3.3zm-2.06-2.15c.41 0 .75-.09 1.02-.26s.46-.37.58-.6v-1.69h-.96c-1.15 0-1.72.51-1.72 1.54 0 .3.1.54.3.73s.47.28.78.28zm10.19 2.15h-3.3v-15h3.3v15zm6.99-13.29c0-.47.17-.85.51-1.15s.78-.45 1.32-.45.98.15 1.32.45.51.68.51 1.15-.17.85-.51 1.15-.78.45-1.32.45-.98-.15-1.32-.45-.51-.68-.51-1.15zm3.49 13.29h-3.3V84.01h3.3v10.57zm1.61-5.36c0-1.67.36-2.99 1.08-3.96s1.73-1.45 3.03-1.45c.94 0 1.74.37 2.38 1.11v-5.35h3.3v15h-2.96l-.17-1.13c-.68.89-1.54 1.33-2.58 1.33-1.26 0-2.25-.48-2.99-1.45s-1.09-2.33-1.09-4.1zm3.29.2c0 1.88.55 2.81 1.64 2.81.73 0 1.25-.31 1.56-.92v-4.02c-.3-.62-.81-.94-1.54-.94-1.02 0-1.57.82-1.65 2.46l-.01.61zm13.49 5.35c-1.62 0-2.93-.48-3.94-1.45s-1.5-2.22-1.5-3.77v-.27c0-1.08.2-2.03.6-2.86s.98-1.47 1.75-1.92 1.68-.68 2.73-.68c1.48 0 2.66.46 3.52 1.38s1.29 2.21 1.29 3.85v1.28h-6.54c.12.59.37 1.06.77 1.4s.91.51 1.54.51c1.04 0 1.86-.36 2.44-1.09l1.5 1.78c-.41.57-.99 1.02-1.74 1.35s-1.55.49-2.42.49zm-.37-8.41c-.96 0-1.54.64-1.72 1.91h3.32v-.25c.01-.53-.12-.94-.4-1.23s-.68-.43-1.2-.43zm9.17-2.35l.11 1.24c.73-.96 1.74-1.44 3.02-1.44 1.1 0 1.92.33 2.47.99s.83 1.65.84 2.97v6.81h-3.3v-6.67c0-.53-.11-.93-.32-1.18s-.61-.38-1.17-.38c-.64 0-1.12.25-1.44.76v7.46h-3.29V84.01h3.08zm12.09-2.63v2.63h1.74v2.29h-1.74v4.83c0 .4.07.67.21.83s.43.23.85.23c.33 0 .6-.02.82-.06v2.35c-.59.19-1.21.28-1.86.28-1.13 0-1.97-.27-2.51-.8s-.81-1.34-.81-2.43V86.3h-1.35v-2.29h1.35v-2.63h3.3zm3.01-.09c0-.47.17-.85.51-1.15s.78-.45 1.32-.45.98.15 1.32.45.51.68.51 1.15-.17.85-.51 1.15-.78.45-1.32.45-.98-.15-1.32-.45-.51-.68-.51-1.15zm3.49 13.29h-3.3V84.01h3.3v10.57zm5.86-13.2v2.63h1.74v2.29h-1.74v4.83c0 .4.07.67.21.83s.43.23.85.23c.33 0 .6-.02.82-.06v2.35c-.59.19-1.21.28-1.86.28-1.13 0-1.97-.27-2.51-.8s-.81-1.34-.81-2.43V86.3h-1.35v-2.29h1.35v-2.63h3.3zm7.26 8.59l1.76-5.96h3.53l-4.31 12.33-.19.45c-.61 1.37-1.69 2.05-3.24 2.05-.43 0-.88-.06-1.36-.19v-2.34h.43c.46 0 .82-.07 1.06-.2s.42-.37.54-.72l.26-.7-3.67-10.67h3.52l1.67 5.95zm14.95-8.59v2.63h1.74v2.29h-1.74v4.83c0 .4.07.67.21.83s.43.23.85.23c.33 0 .6-.02.82-.06v2.35c-.59.19-1.21.28-1.86.28-1.13 0-1.97-.27-2.51-.8s-.81-1.34-.81-2.43V86.3h-1.35v-2.29h1.35v-2.63h3.3zm6.25 3.76c.7-.89 1.6-1.33 2.7-1.33 1.17 0 2.04.34 2.64 1.04s.9 1.71.91 3.06v6.67h-3.3v-6.59c0-.56-.11-.97-.34-1.24s-.62-.4-1.16-.4c-.68 0-1.16.21-1.44.64v7.58h-3.29v-15h3.29v5.57zm13.18 9.63c-1.62 0-2.93-.48-3.94-1.45s-1.5-2.22-1.5-3.77v-.27c0-1.08.2-2.03.6-2.86s.98-1.47 1.75-1.92 1.68-.68 2.73-.68c1.48 0 2.66.46 3.52 1.38s1.29 2.21 1.29 3.85v1.28h-6.54c.12.59.37 1.06.77 1.4s.91.51 1.54.51c1.04 0 1.86-.36 2.44-1.09l1.5 1.78c-.41.57-.99 1.02-1.74 1.35s-1.55.49-2.42.49zm-.37-8.41c-.96 0-1.54.64-1.72 1.91h3.32v-.25c.01-.53-.12-.94-.4-1.23s-.68-.43-1.2-.43zm6.88 8.22V86.3h-1.53v-2.29h1.53v-.84c0-1.2.35-2.14 1.06-2.8s1.71-1 2.99-1c.47 0 .98.07 1.54.21l.01 2.42c-.2-.06-.47-.09-.81-.09-1 0-1.49.43-1.49 1.29v.81h2.06v2.29h-2.06v8.28h-3.3zm10.35-13.2v2.63h1.74v2.29h-1.74v4.83c0 .4.07.67.21.83s.43.23.85.23c.33 0 .6-.02.82-.06v2.35c-.59.19-1.21.28-1.86.28-1.13 0-1.97-.27-2.51-.8s-.81-1.34-.81-2.43V86.3h-1.35v-2.29h1.35v-2.63h3.3zm-214 37.2c-.12-.21-.22-.53-.31-.95-.61.76-1.45 1.14-2.54 1.14-1 0-1.84-.3-2.54-.9s-1.04-1.36-1.04-2.27c0-1.15.42-2.01 1.27-2.6s2.08-.88 3.69-.88h1.02v-.56c0-.97-.42-1.46-1.26-1.46-.78 0-1.17.39-1.17 1.16h-3.29c0-1.02.43-1.85 1.3-2.49.87-.64 1.98-.96 3.33-.96s2.41.33 3.19.99 1.18 1.56 1.2 2.71v4.68c.01.97.16 1.71.45 2.23v.17h-3.3zm-2.06-2.15c.41 0 .75-.09 1.02-.26s.46-.37.58-.6v-1.69h-.96c-1.15 0-1.72.51-1.72 1.54 0 .3.1.54.3.73s.47.28.78.28zm10.19 2.15h-3.3v-15h3.3v15zm7.14.19c-1.62 0-2.93-.48-3.94-1.45s-1.5-2.22-1.5-3.77v-.27c0-1.08.2-2.03.6-2.86s.98-1.47 1.75-1.92 1.68-.68 2.73-.68c1.48 0 2.66.46 3.52 1.38s1.29 2.21 1.29 3.85v1.28h-6.54c.12.59.37 1.06.77 1.4s.91.51 1.54.51c1.04 0 1.86-.36 2.44-1.09l1.5 1.78c-.41.57-.99 1.02-1.74 1.35-.74.33-1.55.49-2.42.49zm-.37-8.41c-.96 0-1.54.64-1.72 1.91h3.32v-.25c.01-.53-.12-.94-.4-1.23-.28-.29-.68-.43-1.2-.43zm12.54.63l-1.08-.08c-1.04 0-1.7.33-1.99.98v6.69h-3.29v-10.57h3.09l.11 1.36c.55-1.04 1.33-1.55 2.31-1.55.35 0 .66.04.92.12l-.07 3.05zm5.51-5.61v2.63h1.74v2.29h-1.74v4.83c0 .4.07.67.21.83s.43.23.85.23c.33 0 .6-.02.82-.06v2.35c-.59.19-1.21.28-1.86.28-1.13 0-1.97-.27-2.51-.8s-.81-1.34-.81-2.43v-5.24h-1.35V108h1.35v-2.63h3.3zm8.56 10.23c0-.28-.15-.5-.44-.67s-.85-.34-1.67-.53-1.5-.42-2.03-.72-.94-.66-1.22-1.08-.42-.91-.42-1.46c0-.97.4-1.77 1.2-2.4s1.85-.94 3.14-.94c1.39 0 2.51.32 3.36.95s1.27 1.46 1.27 2.49h-3.3c0-.85-.45-1.27-1.34-1.27-.34 0-.63.1-.87.29s-.35.43-.35.72.14.53.43.71.74.33 1.37.45 1.18.26 1.66.42c1.59.55 2.38 1.53 2.38 2.94 0 .96-.43 1.75-1.28 2.35s-1.96.91-3.33.91c-.91 0-1.71-.16-2.42-.49s-1.26-.77-1.66-1.33-.6-1.15-.6-1.77h3.08c.01.49.18.84.49 1.07s.71.34 1.2.34c.45 0 .79-.09 1.01-.27s.34-.42.34-.71zm20.51-2.68h-10.3v-2.58h10.3v2.58zm16.4 5.65h-9.92v-2.15l4.57-4.8c1.13-1.28 1.69-2.3 1.69-3.06 0-.61-.13-1.08-.4-1.4s-.65-.48-1.16-.48c-.5 0-.91.21-1.22.64s-.47.96-.47 1.6h-3.3c0-.87.22-1.68.65-2.42s1.04-1.32 1.82-1.73c.77-.42 1.64-.62 2.6-.62 1.54 0 2.72.35 3.55 1.06s1.25 1.73 1.25 3.06c0 .56-.1 1.11-.31 1.64s-.53 1.09-.97 1.67-1.15 1.36-2.12 2.34l-1.84 2.12h5.6v2.53zm10.35-5.56h1.45v2.54h-1.45v3.02h-3.29v-3.02h-5.5l-.2-2.01 5.69-9.16v-.03h3.29v8.66zm-5.85 0h2.56v-4.38l-.21.33-2.35 4.05zm9.92 6.78h-2.33l4.85-15.44h2.34l-4.86 15.44zm15.72-13.68l-5.31 12.46h-3.48l5.32-11.68h-6.78v-2.54h10.24v1.76zm10.32 7.63v4.82h-3.43v-14.22h5.67c1.09 0 2.05.2 2.89.6s1.48.97 1.94 1.71.69 1.58.69 2.51c0 1.39-.5 2.5-1.49 3.33s-2.36 1.25-4.09 1.25h-2.18zm0-2.64h2.25c.66 0 1.17-.17 1.52-.5s.52-.8.52-1.41c0-.66-.18-1.19-.54-1.59s-.85-.6-1.46-.61h-2.29v4.11zm15.73 6.33c-.7.89-1.64 1.34-2.82 1.34-1.16 0-2.04-.34-2.63-1.01s-.89-1.64-.89-2.91v-6.85h3.29v6.87c0 .91.44 1.36 1.32 1.36.75 0 1.29-.27 1.61-.81v-7.41h3.31v10.57h-3.09l-.1-1.15zm14.79-4.06c0 1.73-.36 3.06-1.07 3.99s-1.73 1.4-3.03 1.4c-1.07 0-1.94-.43-2.6-1.28l-.14 1.08h-2.95v-15h3.29v5.28c.61-.7 1.4-1.04 2.37-1.04 1.32 0 2.33.47 3.05 1.42s1.07 2.27 1.07 3.98v.17zm-3.3-.21c0-1.01-.13-1.74-.41-2.17-.27-.43-.69-.65-1.25-.65-.74 0-1.26.28-1.54.85v4.19c.28.56.8.84 1.56.84.77 0 1.27-.38 1.47-1.13.12-.37.17-1.01.17-1.93zm8.23 5.41h-3.3v-15h3.3v15zm2-13.29c0-.47.17-.85.51-1.15s.78-.45 1.32-.45.98.15 1.32.45.51.68.51 1.15-.17.85-.51 1.15-.78.45-1.32.45-.98-.15-1.32-.45-.51-.68-.51-1.15zm3.49 13.29h-3.3v-10.57h3.3v10.57zm6.5-2.35c.46 0 .82-.12 1.07-.38s.38-.6.37-1.05h3.09c0 1.16-.42 2.11-1.25 2.85s-1.9 1.11-3.21 1.11c-1.54 0-2.75-.48-3.63-1.45s-1.33-2.3-1.33-4v-.14c0-1.07.2-2.01.59-2.83s.96-1.45 1.7-1.88 1.62-.66 2.64-.66c1.37 0 2.46.38 3.27 1.14s1.21 1.79 1.21 3.1h-3.09c0-.55-.13-.97-.4-1.26s-.62-.44-1.07-.44c-.85 0-1.35.54-1.49 1.63-.05.34-.07.82-.07 1.43 0 1.06.13 1.8.38 2.21s.66.62 1.22.62zm13.02-5.14c-.38-.55-.69-1.07-.9-1.56s-.33-1.01-.33-1.53c0-1.15.37-2.07 1.11-2.78s1.71-1.06 2.91-1.06c1.07 0 1.96.33 2.67.98s1.05 1.47 1.05 2.44c0 1.21-.67 2.29-2 3.22l-.74.52 2.19 2.51c.36-.72.54-1.5.54-2.35h2.76c0 1.92-.44 3.46-1.33 4.62l2.17 2.49h-3.67l-.66-.75c-.55.33-1.11.57-1.67.72s-1.21.23-1.93.23c-1.41 0-2.53-.37-3.38-1.11s-1.27-1.71-1.27-2.92c0-.66.17-1.25.5-1.79s.99-1.16 1.96-1.87l.02-.01zm2.37 5.15c.57 0 1.12-.13 1.64-.4l-2.56-2.91-.09.06c-.37.46-.56.97-.56 1.54 0 .48.15.88.45 1.21s.68.5 1.12.5zm-.76-8.29c0 .46.25 1.01.74 1.66l.65-.41c.3-.2.52-.4.65-.61s.21-.47.21-.79c0-.3-.1-.56-.31-.78s-.47-.33-.77-.33c-.36 0-.65.12-.86.35s-.31.54-.31.91zM65.95 142.58v-14.22h4.58c1.26 0 2.39.29 3.39.85s1.79 1.37 2.35 2.41.85 2.2.85 3.49v.65c0 1.3-.28 2.47-.83 3.5s-1.33 1.84-2.32 2.42-2.11.88-3.34.88h-4.68zm3.42-11.57v8.94h1.19c.98 0 1.74-.35 2.27-1.05s.79-1.74.79-3.12v-.62c0-1.37-.26-2.41-.79-3.11s-1.3-1.04-2.3-1.04h-1.16zm15.31 11.57c-.12-.21-.22-.53-.31-.95-.61.76-1.45 1.14-2.54 1.14-1 0-1.84-.3-2.54-.9s-1.04-1.36-1.04-2.27c0-1.15.42-2.01 1.27-2.6s2.08-.88 3.69-.88h1.02v-.56c0-.97-.42-1.46-1.26-1.46-.78 0-1.17.39-1.17 1.16h-3.3c0-1.02.43-1.85 1.3-2.49.87-.64 1.98-.96 3.33-.96s2.41.33 3.19.99 1.18 1.56 1.2 2.71v4.68c.01.97.16 1.71.45 2.23v.17h-3.29zm-2.06-2.15c.41 0 .75-.09 1.02-.26s.46-.37.58-.6v-1.69h-.96c-1.15 0-1.72.51-1.72 1.54 0 .3.1.54.3.73s.46.28.78.28zm13.11-5.44l-1.08-.08c-1.04 0-1.7.33-1.99.98v6.69h-3.29v-10.57h3.09l.11 1.36c.55-1.04 1.33-1.55 2.31-1.55.35 0 .66.04.92.12l-.07 3.05zm5.43 3.65l-.93.93v3.01h-3.29v-15.01h3.29v7.97l.33-.44 2.48-3.09h3.95l-3.7 4.35 3.95 6.22h-3.77l-2.31-3.94zm22.84-1.36l1.63-8.92h3.4l-3.02 14.22h-3.55l-1.9-8.11-1.87 8.11h-3.54l-3.03-14.22h3.41l1.63 8.92 1.95-8.92h2.91l1.98 8.92zm11.03 5.49c-1.62 0-2.93-.48-3.94-1.45s-1.5-2.22-1.5-3.77v-.27c0-1.08.2-2.03.6-2.86s.98-1.47 1.75-1.92 1.68-.68 2.73-.68c1.48 0 2.66.46 3.52 1.38s1.29 2.21 1.29 3.85v1.28h-6.54c.12.59.37 1.06.77 1.4.4.34.91.51 1.54.51 1.04 0 1.86-.36 2.44-1.09l1.5 1.78c-.41.57-.99 1.02-1.74 1.35s-1.56.49-2.42.49zm-.37-8.41c-.96 0-1.54.64-1.72 1.91h3.32v-.25c.01-.53-.12-.94-.4-1.23s-.68-.43-1.2-.43zm15.95 3.02c0 1.73-.36 3.06-1.07 3.99s-1.73 1.4-3.03 1.4c-1.07 0-1.94-.43-2.6-1.28l-.14 1.08h-2.95v-15h3.29v5.28c.61-.7 1.4-1.04 2.37-1.04 1.32 0 2.33.47 3.05 1.42s1.07 2.27 1.07 3.98v.17zm-3.3-.21c0-1.01-.13-1.74-.41-2.17s-.69-.65-1.25-.65c-.74 0-1.26.28-1.54.85v4.19c.28.56.8.84 1.56.84.77 0 1.27-.38 1.47-1.13.12-.37.17-1.01.17-1.93zm17.24 1.63c0-.5-.18-.89-.53-1.17s-.98-.57-1.87-.87-1.62-.59-2.19-.87c-1.84-.91-2.76-2.15-2.76-3.73 0-.79.23-1.48.69-2.08s1.11-1.07 1.95-1.41 1.78-.5 2.83-.5c1.02 0 1.94.18 2.75.55s1.44.88 1.89 1.56.67 1.44.67 2.31h-3.42c0-.58-.18-1.03-.53-1.35s-.83-.48-1.44-.48-1.1.13-1.45.41-.53.61-.53 1.03c0 .36.2.7.59.99s1.08.6 2.06.92 1.79.66 2.42 1.02c1.54.89 2.3 2.11 2.3 3.66 0 1.24-.47 2.22-1.41 2.93s-2.22 1.06-3.86 1.06c-1.15 0-2.2-.21-3.13-.62s-1.64-.98-2.11-1.7-.71-1.55-.71-2.49h3.44c0 .76.2 1.32.59 1.68s1.03.54 1.92.54c.57 0 1.01-.12 1.34-.37s.5-.58.5-1.02zm9.5 1.43c.46 0 .82-.12 1.07-.38s.38-.6.37-1.05h3.09c0 1.16-.42 2.11-1.25 2.85s-1.9 1.11-3.21 1.11c-1.54 0-2.75-.48-3.63-1.45s-1.33-2.3-1.33-4v-.14c0-1.07.2-2.01.59-2.83s.96-1.45 1.7-1.88 1.62-.66 2.64-.66c1.37 0 2.46.38 3.27 1.14s1.21 1.79 1.21 3.1h-3.09c0-.55-.13-.97-.4-1.26s-.62-.44-1.07-.44c-.85 0-1.35.54-1.49 1.63-.05.34-.07.82-.07 1.43 0 1.06.13 1.8.38 2.21s.67.62 1.22.62zm11.88 2.35c-.12-.21-.22-.53-.31-.95-.61.76-1.45 1.14-2.54 1.14-1 0-1.84-.3-2.54-.9s-1.04-1.36-1.04-2.27c0-1.15.42-2.01 1.27-2.6s2.08-.88 3.69-.88h1.02v-.56c0-.97-.42-1.46-1.26-1.46-.78 0-1.17.39-1.17 1.16h-3.29c0-1.02.43-1.85 1.3-2.49.87-.64 1.98-.96 3.33-.96s2.41.33 3.19.99 1.18 1.56 1.2 2.71v4.68c.01.97.16 1.71.45 2.23v.17h-3.3zm-2.06-2.15c.41 0 .75-.09 1.02-.26s.46-.37.58-.6v-1.69h-.96c-1.15 0-1.72.51-1.72 1.54 0 .3.1.54.3.73s.46.28.78.28zm9.74-8.42l.11 1.24c.73-.96 1.74-1.44 3.02-1.44 1.1 0 1.92.33 2.47.99s.83 1.65.84 2.97v6.81h-3.3v-6.67c0-.53-.11-.93-.32-1.18s-.61-.38-1.17-.38c-.64 0-1.12.25-1.44.76v7.46h-3.29V132h3.08zm11.28 0l.11 1.24c.73-.96 1.74-1.44 3.02-1.44 1.1 0 1.92.33 2.47.99s.83 1.65.84 2.97v6.81h-3.3v-6.67c0-.53-.11-.93-.32-1.18s-.61-.38-1.17-.38c-.64 0-1.12.25-1.44.76v7.46h-3.29V132h3.08zm8.23-2.72c0-.47.17-.85.51-1.15s.78-.45 1.32-.45.98.15 1.32.45.51.68.51 1.15-.17.85-.51 1.15-.78.45-1.32.45-.98-.15-1.32-.45-.51-.68-.51-1.15zm3.5 13.29h-3.3v-10.57h3.3v10.57zm5.05-10.57l.11 1.24c.73-.96 1.74-1.44 3.02-1.44 1.1 0 1.92.33 2.47.99s.83 1.65.84 2.97v6.81h-3.3v-6.67c0-.53-.11-.93-.32-1.18s-.61-.38-1.17-.38c-.64 0-1.12.25-1.44.76v7.46h-3.29V132h3.08zm7.87 5.21c0-1.07.18-2.01.53-2.83s.86-1.45 1.51-1.9 1.42-.67 2.29-.67c1.1 0 1.96.37 2.58 1.11l.12-.92h2.99v10.17c0 .93-.22 1.74-.65 2.43s-1.06 1.21-1.88 1.58-1.77.55-2.85.55c-.77 0-1.53-.15-2.25-.44s-1.28-.67-1.67-1.14l1.38-1.93c.61.72 1.42 1.08 2.42 1.08 1.46 0 2.19-.75 2.19-2.25v-.33c-.63.7-1.43 1.04-2.39 1.04-1.29 0-2.33-.49-3.12-1.48s-1.19-2.31-1.19-3.96v-.11zm3.3.2c0 .87.16 1.55.49 2.06s.78.76 1.37.76c.71 0 1.23-.24 1.55-.71v-4.44c-.32-.48-.83-.72-1.53-.72-.59 0-1.04.26-1.38.79s-.5 1.27-.5 2.26z"/></svg>