<svg id="Layer_1" xmlns="http://www.w3.org/2000/svg" viewBox="0 0 300 250"><style>.st0{fill:url(#SVGID_1_)}</style><linearGradient id="SVGID_1_" gradientUnits="userSpaceOnUse" x1="16.543" y1="110.632" x2="282.922" y2="110.632"><stop offset="0" stop-color="#18b9fb"/><stop offset=".5" stop-color="#782eeb"/><stop offset="1" stop-color="#e82d8a"/></linearGradient><path class="st0" d="M111.7 83.45h-3.84v10.42h-3.08V83.45H101v-2.38h10.7v2.38zm5.04 10.42c-.11-.19-.2-.48-.28-.85-.54.69-1.31 1.03-2.29 1.03-.9 0-1.66-.27-2.29-.81s-.94-1.22-.94-2.04c0-1.03.38-1.81 1.14-2.34s1.87-.79 3.32-.79h.91v-.5c0-.88-.38-1.32-1.13-1.32-.7 0-1.05.35-1.05 1.04h-2.96c0-.92.39-1.67 1.17-2.24.78-.57 1.78-.86 2.99-.86s2.17.3 2.87.89 1.06 1.4 1.08 2.43v4.21c.01.87.15 1.54.4 2v.15h-2.94zm-1.85-1.94c.37 0 .67-.08.92-.24.24-.16.42-.34.52-.54v-1.52h-.86c-1.03 0-1.55.46-1.55 1.39 0 .27.09.49.27.66.19.17.42.25.7.25zm9.87-1.61l-.83.83v2.71h-2.96v-13.5h2.96v7.17l.3-.4 2.23-2.78H130l-3.33 3.91 3.55 5.6h-3.39l-2.07-3.54zm10.45 3.72c-1.46 0-2.64-.44-3.54-1.3-.9-.87-1.35-2-1.35-3.4v-.25c0-.97.18-1.83.54-2.58.36-.74.89-1.32 1.58-1.73s1.51-.61 2.46-.61c1.34 0 2.39.42 3.16 1.24s1.16 1.98 1.16 3.47v1.15h-5.89c.11.53.34.95.69 1.26s.82.46 1.39.46c.94 0 1.67-.33 2.2-.98l1.35 1.6c-.37.51-.89.92-1.57 1.22-.67.3-1.4.45-2.18.45zm-.34-7.57c-.87 0-1.38.57-1.55 1.72h2.99v-.23c.01-.47-.11-.84-.36-1.1-.25-.26-.61-.39-1.08-.39zm15.38 7.4c-.11-.19-.2-.48-.28-.85-.54.69-1.31 1.03-2.29 1.03-.9 0-1.66-.27-2.29-.81s-.94-1.22-.94-2.04c0-1.03.38-1.81 1.14-2.34s1.87-.79 3.32-.79h.91v-.5c0-.88-.38-1.32-1.13-1.32-.7 0-1.05.35-1.05 1.04h-2.96c0-.92.39-1.67 1.17-2.24.78-.57 1.78-.86 2.99-.86s2.17.3 2.87.89 1.06 1.4 1.08 2.43v4.21c.01.87.15 1.54.4 2v.15h-2.94zm-1.86-1.94c.37 0 .67-.08.92-.24.24-.16.42-.34.52-.54v-1.52h-.86c-1.03 0-1.55.46-1.55 1.39 0 .27.09.49.27.66.19.17.42.25.7.25zm10.07-.17c.42 0 .74-.11.97-.34s.34-.54.33-.95h2.78c0 1.04-.37 1.9-1.12 2.57-.75.67-1.71 1-2.89 1-1.38 0-2.47-.43-3.27-1.3s-1.2-2.07-1.2-3.6v-.12c0-.96.18-1.81.53-2.54.35-.73.87-1.3 1.53-1.7.67-.4 1.46-.59 2.37-.59 1.24 0 2.22.34 2.94 1.03s1.09 1.61 1.09 2.79h-2.78c0-.49-.12-.87-.36-1.13s-.56-.4-.97-.4c-.77 0-1.22.49-1.34 1.47-.04.31-.06.74-.06 1.28 0 .96.11 1.62.34 1.99s.62.54 1.11.54zm8.78-9.77v2.36h1.56v2.06h-1.56v4.35c0 .36.06.61.19.75s.38.21.76.21c.29 0 .54-.02.74-.05v2.12c-.53.17-1.09.25-1.67.25-1.02 0-1.77-.24-2.26-.72s-.73-1.21-.73-2.19v-4.72h-1.21v-2.06h1.21v-2.36h2.97zm2.71-.09c0-.42.15-.77.46-1.04s.7-.4 1.19-.4.88.13 1.19.4.46.62.46 1.04-.15.77-.46 1.04-.7.4-1.19.4-.88-.13-1.19-.4-.46-.61-.46-1.04zm3.15 11.97h-2.97v-9.51h2.97v9.51zm1.45-4.85c0-.95.18-1.79.55-2.54.37-.74.9-1.31 1.59-1.71s1.5-.6 2.43-.6c1.42 0 2.55.44 3.37 1.32.82.88 1.23 2.08 1.23 3.6v.11c0 1.48-.41 2.66-1.23 3.53-.82.87-1.94 1.3-3.34 1.3-1.35 0-2.44-.4-3.26-1.22s-1.26-1.91-1.33-3.3l-.01-.49zm2.96.19c0 .88.14 1.52.41 1.93s.68.62 1.22.62c1.05 0 1.59-.81 1.62-2.43v-.3c0-1.71-.54-2.56-1.63-2.56-.99 0-1.53.74-1.61 2.21l-.01.53zm10.24-4.85l.1 1.12c.66-.86 1.56-1.29 2.72-1.29.99 0 1.73.3 2.22.89s.74 1.48.76 2.67v6.13h-2.97v-6c0-.48-.1-.83-.29-1.06-.19-.22-.54-.34-1.05-.34-.58 0-1.01.23-1.29.69v6.71h-2.96v-9.51h2.76zm7.5 8.18c0-.43.16-.79.47-1.07s.71-.42 1.17-.42.86.14 1.17.42c.31.28.47.63.47 1.07s-.16.79-.47 1.07c-.31.28-.71.42-1.17.42s-.86-.14-1.17-.42c-.31-.28-.47-.64-.47-1.07zm2.87-2.73h-2.4l-.38-8.75h3.16l-.38 8.75zM22.29 102.67h3.08v8.78c0 .81-.19 1.54-.57 2.18a3.98 3.98 0 0 1-1.58 1.49c-.68.35-1.43.53-2.26.53-1.39 0-2.48-.35-3.25-1.05s-1.16-1.7-1.16-2.99h3.09c0 .59.1 1.01.3 1.27.2.26.54.4 1.02.4.43 0 .76-.16.99-.48s.35-.77.35-1.34v-8.79zm10.55 11.77c-.63.8-1.47 1.2-2.54 1.2-1.04 0-1.83-.3-2.37-.91-.54-.61-.8-1.48-.8-2.61v-6.16h2.96v6.18c0 .81.4 1.22 1.19 1.22.68 0 1.16-.24 1.45-.73v-6.67h2.98v9.51h-2.78l-.09-1.03zm9.46-1.65c0-.25-.13-.45-.4-.61s-.76-.31-1.5-.47-1.35-.38-1.83-.65-.85-.59-1.1-.97-.38-.82-.38-1.31c0-.87.36-1.59 1.08-2.16.72-.56 1.66-.85 2.83-.85 1.25 0 2.26.28 3.02.85s1.14 1.32 1.14 2.24h-2.97c0-.76-.4-1.14-1.2-1.14-.31 0-.57.09-.78.26s-.32.39-.32.65.13.48.39.64.67.3 1.23.4 1.06.23 1.49.38c1.43.49 2.14 1.37 2.14 2.65 0 .87-.39 1.57-1.16 2.12s-1.77.82-2.99.82c-.81 0-1.54-.15-2.18-.44s-1.14-.69-1.49-1.2-.54-1.03-.54-1.59h2.77c.01.44.16.76.44.96.28.2.64.3 1.08.3.4 0 .71-.08.91-.25.22-.15.32-.36.32-.63zm7.69-9.2v2.36h1.56v2.06h-1.56v4.35c0 .36.06.61.19.75s.38.21.76.21c.29 0 .54-.02.74-.05v2.12c-.53.17-1.09.25-1.67.25-1.02 0-1.77-.24-2.26-.72s-.73-1.21-.73-2.19v-4.72h-1.21v-2.06h1.21v-2.36h2.97zm12.57 11.87c-.11-.19-.2-.48-.28-.85-.54.69-1.31 1.03-2.29 1.03-.9 0-1.66-.27-2.29-.81s-.94-1.22-.94-2.04c0-1.03.38-1.81 1.14-2.34s1.87-.79 3.32-.79h.91v-.5c0-.88-.38-1.32-1.13-1.32-.7 0-1.05.35-1.05 1.04H57c0-.92.39-1.67 1.17-2.24.78-.57 1.78-.86 2.99-.86s2.17.3 2.87.89 1.06 1.4 1.08 2.43v4.21c.01.87.15 1.54.4 2v.15h-2.95zm-1.85-1.93c.37 0 .67-.08.92-.24.24-.16.42-.34.52-.54v-1.52h-.86c-1.03 0-1.55.46-1.55 1.39 0 .27.09.49.27.66.19.17.42.25.7.25zm13.98-9.94v2.36h1.56v2.06h-1.56v4.35c0 .36.06.61.19.75s.38.21.76.21c.29 0 .54-.02.74-.05v2.12c-.53.17-1.09.25-1.67.25-1.02 0-1.77-.24-2.26-.72s-.73-1.21-.73-2.19v-4.72h-1.21v-2.06h1.21v-2.36h2.97zm8.09 11.87c-.11-.19-.2-.48-.28-.85-.54.69-1.31 1.03-2.29 1.03-.9 0-1.66-.27-2.29-.81s-.94-1.22-.94-2.04c0-1.03.38-1.81 1.14-2.34s1.87-.79 3.32-.79h.91v-.5c0-.88-.38-1.32-1.13-1.32-.7 0-1.05.35-1.05 1.04h-2.96c0-.92.39-1.67 1.17-2.24.78-.57 1.78-.86 2.99-.86s2.17.3 2.87.89 1.06 1.4 1.08 2.43v4.21c.01.87.15 1.54.4 2v.15h-2.94zm-1.86-1.93c.37 0 .67-.08.92-.24.24-.16.42-.34.52-.54v-1.52h-.86c-1.03 0-1.55.46-1.55 1.39 0 .27.09.49.27.66.19.17.42.25.7.25zm14.88-2.75c0 1.48-.33 2.66-1 3.54-.67.88-1.56 1.32-2.69 1.32-.87 0-1.59-.32-2.15-.96v4.44H87v-13.17h2.77l.09.88c.57-.7 1.32-1.05 2.24-1.05 1.17 0 2.08.43 2.73 1.3s.98 2.05.98 3.56v.14zm-2.96-.18c0-1.69-.49-2.53-1.48-2.53-.7 0-1.17.25-1.41.76v3.74c.26.53.73.79 1.42.79.94 0 1.43-.81 1.46-2.44v-.32zm14.11 4.86c-.11-.19-.2-.48-.28-.85-.54.69-1.31 1.03-2.29 1.03-.9 0-1.66-.27-2.29-.81s-.94-1.22-.94-2.04c0-1.03.38-1.81 1.14-2.34s1.87-.79 3.32-.79h.91v-.5c0-.88-.38-1.32-1.13-1.32-.7 0-1.05.35-1.05 1.04h-2.96c0-.92.39-1.67 1.17-2.24.78-.57 1.78-.86 2.99-.86s2.17.3 2.87.89 1.06 1.4 1.08 2.43v4.21c.01.87.15 1.54.4 2v.15h-2.94zm-1.86-1.93c.37 0 .67-.08.92-.24.24-.16.42-.34.52-.54v-1.52h-.86c-1.03 0-1.55.46-1.55 1.39 0 .27.09.49.27.66.19.17.42.25.7.25zm14.27-1.97l.96-5.61h2.84l-2.24 9.51h-2.5l-1.57-5.64-1.58 5.64h-2.5l-2.24-9.51h2.84l.94 5.74 1.51-5.74h2.07l1.47 5.61zm10.21 3.9c-.11-.19-.2-.48-.28-.85-.54.69-1.31 1.03-2.29 1.03-.9 0-1.66-.27-2.29-.81s-.94-1.22-.94-2.04c0-1.03.38-1.81 1.14-2.34s1.87-.79 3.32-.79h.91v-.5c0-.88-.38-1.32-1.13-1.32-.7 0-1.05.35-1.05 1.04H124c0-.92.39-1.67 1.17-2.24.78-.57 1.78-.86 2.99-.86s2.17.3 2.87.89 1.06 1.4 1.08 2.43v4.21c.01.87.15 1.54.4 2v.15h-2.94zm-1.85-1.93c.37 0 .67-.08.92-.24.24-.16.42-.34.52-.54v-1.52h-.86c-1.03 0-1.55.46-1.55 1.39 0 .27.09.49.27.66.18.17.41.25.7.25zm9.72-2.21l1.58-5.36h3.17l-3.88 11.1-.17.4c-.55 1.23-1.52 1.85-2.92 1.85-.39 0-.79-.06-1.22-.17v-2.11h.39c.42 0 .73-.06.95-.18.22-.12.38-.33.49-.65l.24-.63-3.3-9.61h3.16l1.51 5.36zm10.66 4.14v-7.45h-1.38v-2.06h1.38v-.76c0-1.08.32-1.92.96-2.52s1.54-.9 2.69-.9c.42 0 .88.06 1.39.18l.01 2.18c-.18-.05-.42-.08-.73-.08-.9 0-1.34.39-1.34 1.16v.73h1.85V108h-1.85v7.45h-2.98zm11.62-6.82l-.98-.07c-.93 0-1.53.29-1.79.88v6.02h-2.96v-9.51h2.78l.1 1.22c.5-.93 1.19-1.4 2.08-1.4.32 0 .59.04.83.11l-.06 2.75zm.37 1.98c0-.95.18-1.79.55-2.54.37-.74.9-1.31 1.59-1.71s1.5-.6 2.43-.6c1.42 0 2.55.44 3.37 1.32.82.88 1.23 2.08 1.23 3.6v.11c0 1.48-.41 2.66-1.23 3.53-.82.87-1.94 1.3-3.34 1.3-1.35 0-2.44-.41-3.26-1.22s-1.26-1.91-1.33-3.3l-.01-.49zm2.97.19c0 .88.14 1.52.41 1.93s.68.62 1.22.62c1.05 0 1.59-.81 1.62-2.43v-.3c0-1.71-.54-2.56-1.63-2.56-.99 0-1.53.74-1.61 2.21l-.01.53zm10.32-4.85l.1 1.12c.67-.86 1.58-1.29 2.72-1.29 1.2 0 2.01.48 2.43 1.43.64-.96 1.58-1.43 2.79-1.43 1.93 0 2.92 1.17 2.97 3.5v6.19h-2.97v-6c0-.49-.08-.84-.25-1.06s-.46-.33-.9-.33c-.59 0-1.02.26-1.31.78l.01.12v6.5H176v-5.99c0-.5-.08-.86-.24-1.08s-.46-.33-.91-.33c-.57 0-1 .26-1.3.78v6.62h-2.96v-9.51h2.79zm22.54 9.5c-.11-.19-.2-.48-.28-.85-.54.69-1.31 1.03-2.29 1.03-.9 0-1.66-.27-2.29-.81s-.94-1.22-.94-2.04c0-1.03.38-1.81 1.14-2.34s1.87-.79 3.32-.79h.91v-.5c0-.88-.38-1.32-1.13-1.32-.7 0-1.05.35-1.05 1.04h-2.96c0-.92.39-1.67 1.17-2.24.78-.57 1.78-.86 2.99-.86s2.17.3 2.87.89 1.06 1.4 1.08 2.43v4.21c.01.87.15 1.54.4 2v.15h-2.94zm-1.86-1.93c.37 0 .67-.08.92-.24.24-.16.42-.34.52-.54v-1.52h-.86c-1.03 0-1.55.46-1.55 1.39 0 .27.09.49.27.66.19.17.42.25.7.25zm10.16-2.89c0-1.51.33-2.69.98-3.56s1.56-1.3 2.72-1.3c.85 0 1.56.33 2.14 1v-4.82h2.97v13.5h-2.66l-.15-1.02c-.61.8-1.38 1.2-2.32 1.2-1.13 0-2.03-.43-2.69-1.3s-.99-2.1-.99-3.7zm2.97.18c0 1.69.49 2.53 1.48 2.53.66 0 1.12-.28 1.41-.83v-3.62c-.27-.56-.73-.84-1.39-.84-.91 0-1.41.74-1.49 2.21l-.01.55zm12.13 4.82c-1.46 0-2.64-.44-3.54-1.3-.9-.87-1.35-2-1.35-3.4v-.25c0-.97.18-1.83.54-2.58.36-.74.89-1.32 1.58-1.73s1.51-.61 2.46-.61c1.34 0 2.39.42 3.16 1.24s1.16 1.98 1.16 3.47v1.15h-5.89c.11.53.34.95.69 1.26s.82.46 1.39.46c.94 0 1.67-.33 2.2-.98l1.35 1.6c-.37.51-.89.92-1.57 1.22-.67.3-1.4.45-2.18.45zm-.33-7.58c-.87 0-1.38.57-1.55 1.72h2.99v-.23c.01-.47-.11-.84-.36-1.1-.25-.25-.61-.39-1.08-.39zm5.16 2.58c0-1.51.33-2.69.98-3.56s1.56-1.3 2.72-1.3c.85 0 1.56.33 2.14 1v-4.82h2.97v13.5h-2.66l-.15-1.02c-.61.8-1.38 1.2-2.32 1.2-1.13 0-2.03-.43-2.69-1.3s-.99-2.1-.99-3.7zm2.96.18c0 1.69.49 2.53 1.48 2.53.66 0 1.12-.28 1.41-.83v-3.62c-.27-.56-.73-.84-1.39-.84-.91 0-1.41.74-1.49 2.21l-.01.55zm7.52-7.32c0-.42.15-.77.46-1.04s.7-.4 1.19-.4.88.13 1.19.4.46.62.46 1.04-.15.77-.46 1.04-.7.4-1.19.4-.88-.13-1.19-.4-.46-.62-.46-1.04zm3.14 11.96h-2.97v-9.51h2.97v9.51zm5.85-2.1c.42 0 .74-.11.97-.34.23-.23.34-.54.33-.95h2.78c0 1.04-.37 1.9-1.12 2.57-.75.67-1.71 1-2.89 1-1.38 0-2.47-.43-3.27-1.3s-1.2-2.07-1.2-3.6v-.12c0-.96.18-1.81.53-2.54.35-.73.87-1.3 1.53-1.7.67-.4 1.46-.59 2.37-.59 1.24 0 2.22.34 2.94 1.03s1.09 1.61 1.09 2.79h-2.78c0-.49-.12-.87-.36-1.13s-.56-.4-.97-.4c-.77 0-1.22.49-1.34 1.47-.04.31-.06.74-.06 1.28 0 .96.11 1.62.34 1.99s.61.54 1.11.54zm10.68 2.1c-.11-.19-.2-.48-.28-.85-.54.69-1.31 1.03-2.29 1.03-.9 0-1.66-.27-2.29-.81s-.94-1.22-.94-2.04c0-1.03.38-1.81 1.14-2.34s1.87-.79 3.32-.79h.91v-.5c0-.88-.38-1.32-1.13-1.32-.7 0-1.05.35-1.05 1.04h-2.96c0-.92.39-1.67 1.17-2.24.78-.57 1.78-.86 2.99-.86s2.17.3 2.87.89 1.06 1.4 1.08 2.43v4.21c.01.87.15 1.54.4 2v.15h-2.94zm-1.85-1.93c.37 0 .67-.08.92-.24.24-.16.42-.34.52-.54v-1.52h-.86c-1.03 0-1.55.46-1.55 1.39 0 .27.09.49.27.66.19.17.42.25.7.25zm9.5-9.94v2.36h1.56v2.06h-1.56v4.35c0 .36.06.61.19.75s.38.21.76.21c.29 0 .54-.02.74-.05v2.12c-.53.17-1.09.25-1.67.25-1.02 0-1.77-.24-2.26-.72s-.73-1.21-.73-2.19v-4.72h-1.21v-2.06h1.21v-2.36h2.97zm7.33 12.05c-1.46 0-2.64-.44-3.54-1.3-.9-.87-1.35-2-1.35-3.4v-.25c0-.97.18-1.83.54-2.58.36-.74.89-1.32 1.58-1.73s1.51-.61 2.46-.61c1.34 0 2.39.42 3.16 1.24s1.16 1.98 1.16 3.47v1.15h-5.89c.11.53.34.95.69 1.26s.82.46 1.39.46c.94 0 1.67-.33 2.2-.98l1.35 1.6c-.37.51-.89.92-1.57 1.22-.67.3-1.4.45-2.18.45zm-.33-7.58c-.87 0-1.38.57-1.55 1.72h2.99v-.23c.01-.47-.11-.84-.36-1.1-.25-.25-.61-.39-1.08-.39zm5.16 2.58c0-1.51.33-2.69.98-3.56s1.56-1.3 2.72-1.3c.85 0 1.56.33 2.14 1v-4.82h2.97v13.5h-2.66l-.15-1.02c-.61.8-1.38 1.2-2.32 1.2-1.13 0-2.03-.43-2.69-1.3s-.99-2.1-.99-3.7zm2.96.18c0 1.69.49 2.53 1.48 2.53.66 0 1.12-.28 1.41-.83v-3.62c-.27-.56-.73-.84-1.39-.84-.91 0-1.41.74-1.49 2.21l-.01.55zM56.93 125.1c0-.42.15-.77.46-1.04s.7-.4 1.19-.4.88.13 1.19.4c.3.27.46.62.46 1.04s-.15.77-.46 1.04c-.3.27-.7.4-1.19.4s-.88-.13-1.19-.4-.46-.61-.46-1.04zm3.14 11.97H57.1v-9.51h2.97v9.51zm1.45-4.83c0-1.51.33-2.69.98-3.56s1.56-1.3 2.72-1.3c.85 0 1.56.33 2.14 1v-4.82h2.97v13.5h-2.66l-.15-1.02c-.61.8-1.38 1.2-2.32 1.2-1.13 0-2.03-.43-2.69-1.3s-.99-2.1-.99-3.7zm2.97.18c0 1.69.49 2.53 1.48 2.53.66 0 1.12-.28 1.41-.83v-3.62c-.27-.56-.73-.84-1.39-.84-.91 0-1.41.74-1.49 2.21l-.01.55zm12.13 4.82c-1.46 0-2.64-.44-3.54-1.3-.9-.87-1.35-2-1.35-3.4v-.25c0-.97.18-1.83.54-2.58.36-.74.89-1.32 1.58-1.73s1.51-.61 2.46-.61c1.34 0 2.39.42 3.16 1.24s1.16 1.98 1.16 3.47v1.15h-5.89c.11.53.34.95.69 1.26.36.3.82.46 1.39.46.94 0 1.67-.33 2.2-.98l1.35 1.6c-.37.51-.89.92-1.57 1.22-.67.3-1.4.45-2.18.45zm-.33-7.57c-.87 0-1.38.57-1.55 1.72h2.99v-.23c.01-.47-.11-.84-.36-1.1-.25-.26-.61-.39-1.08-.39zm8.25-2.11l.1 1.12c.66-.86 1.56-1.29 2.72-1.29.99 0 1.73.3 2.22.89s.74 1.48.76 2.67v6.13h-2.97v-6c0-.48-.1-.83-.29-1.06-.19-.22-.54-.34-1.05-.34-.58 0-1.01.23-1.29.69v6.71h-2.96v-9.51h2.76zm10.88-2.37v2.36h1.56v2.06h-1.56v4.35c0 .36.06.61.19.75s.38.21.76.21c.29 0 .54-.02.74-.05v2.12c-.53.17-1.09.25-1.67.25-1.02 0-1.77-.24-2.26-.72s-.73-1.21-.73-2.19v-4.72h-1.21v-2.06h1.21v-2.36h2.97zm2.71-.09c0-.42.15-.77.46-1.04s.7-.4 1.19-.4.88.13 1.19.4.46.62.46 1.04-.15.77-.46 1.04-.7.4-1.19.4-.88-.13-1.19-.4-.46-.61-.46-1.04zm3.15 11.97h-2.97v-9.51h2.97v9.51zm5.27-11.88v2.36h1.56v2.06h-1.56v4.35c0 .36.06.61.19.75s.38.21.76.21c.29 0 .54-.02.74-.05v2.12c-.53.17-1.09.25-1.67.25-1.02 0-1.77-.24-2.26-.72s-.73-1.21-.73-2.19v-4.72h-1.21v-2.06h1.21v-2.36h2.97zm6.53 7.73l1.58-5.36h3.17l-3.88 11.1-.17.4c-.55 1.23-1.52 1.85-2.92 1.85-.39 0-.79-.06-1.22-.17v-2.11h.39c.42 0 .73-.06.95-.18.22-.12.38-.33.49-.65l.24-.63-3.3-9.61h3.16l1.51 5.36zm13.46-7.73v2.36h1.56v2.06h-1.56v4.35c0 .36.06.61.19.75s.38.21.76.21c.29 0 .54-.02.74-.05v2.12c-.53.17-1.09.25-1.67.25-1.02 0-1.77-.24-2.26-.72s-.73-1.21-.73-2.19v-4.72h-1.21v-2.06h1.21v-2.36h2.97zm5.62 3.39c.63-.8 1.44-1.2 2.43-1.2 1.05 0 1.84.31 2.37.93s.81 1.54.82 2.75v6h-2.97v-5.93c0-.5-.1-.87-.31-1.11-.21-.24-.55-.36-1.05-.36-.61 0-1.04.19-1.29.58v6.82h-2.96v-13.5h2.96v5.02zm11.87 8.66c-1.46 0-2.64-.44-3.54-1.3-.9-.87-1.35-2-1.35-3.4v-.25c0-.97.18-1.83.54-2.58.36-.74.89-1.32 1.58-1.73s1.51-.61 2.46-.61c1.34 0 2.39.42 3.16 1.24s1.16 1.98 1.16 3.47v1.15h-5.89c.11.53.34.95.69 1.26s.82.46 1.39.46c.94 0 1.67-.33 2.2-.98l1.35 1.6c-.37.51-.89.92-1.57 1.22-.67.3-1.4.45-2.18.45zm-.34-7.57c-.87 0-1.38.57-1.55 1.72h2.99v-.23c.01-.47-.11-.84-.36-1.1-.25-.26-.61-.39-1.08-.39zm6.19 7.4v-7.45h-1.38v-2.06h1.38v-.76c0-1.08.32-1.92.96-2.52s1.54-.9 2.69-.9c.42 0 .88.06 1.39.18l.01 2.18c-.18-.05-.42-.08-.73-.08-.9 0-1.34.39-1.34 1.16v.73h1.85v2.06h-1.85v7.45h-2.98zm9.32-11.88v2.36h1.56v2.06h-1.56v4.35c0 .36.06.61.19.75s.38.21.76.21c.29 0 .54-.02.74-.05v2.12c-.53.17-1.09.25-1.67.25-1.02 0-1.77-.24-2.26-.72s-.73-1.21-.73-2.19v-4.72h-1.21v-2.06h1.21v-2.36h2.97zm12.19 9.2c0-.25-.13-.45-.4-.61s-.76-.31-1.5-.47-1.35-.38-1.83-.65-.85-.59-1.1-.97a2.34 2.34 0 0 1-.38-1.31c0-.87.36-1.59 1.08-2.16.72-.56 1.66-.85 2.83-.85 1.25 0 2.26.28 3.02.85s1.14 1.32 1.14 2.24h-2.97c0-.76-.4-1.14-1.2-1.14-.31 0-.57.09-.78.26s-.32.39-.32.65.13.48.39.64.67.3 1.23.4 1.06.23 1.49.38c1.43.49 2.14 1.37 2.14 2.65 0 .87-.39 1.57-1.16 2.12s-1.77.82-2.99.82c-.81 0-1.54-.15-2.18-.44s-1.14-.69-1.49-1.2-.54-1.03-.54-1.59h2.77c.01.44.16.76.44.96.28.2.64.3 1.08.3.4 0 .71-.08.91-.25.22-.15.32-.36.32-.63zm13.07-2.01c0 1.48-.33 2.66-1 3.54-.67.88-1.56 1.32-2.69 1.32-.87 0-1.59-.32-2.15-.96v4.44h-2.96v-13.17h2.77l.09.88c.57-.7 1.32-1.05 2.24-1.05 1.17 0 2.08.43 2.73 1.3s.98 2.05.98 3.56v.14zm-2.96-.18c0-1.69-.49-2.53-1.48-2.53-.7 0-1.17.25-1.41.76v3.74c.26.53.73.79 1.42.79.94 0 1.43-.81 1.46-2.44v-.32zm8.86 5.04c-1.46 0-2.64-.44-3.54-1.3-.9-.87-1.35-2-1.35-3.4v-.25c0-.97.18-1.83.54-2.58.36-.74.89-1.32 1.58-1.73s1.51-.61 2.46-.61c1.34 0 2.39.42 3.16 1.24.77.83 1.16 1.98 1.16 3.47v1.15h-5.89c.11.53.34.95.69 1.26s.82.46 1.39.46c.94 0 1.67-.33 2.2-.98l1.35 1.6c-.37.51-.89.92-1.57 1.22-.67.3-1.4.45-2.18.45zm-.33-7.57c-.87 0-1.38.57-1.55 1.72h2.99v-.23c.01-.47-.11-.84-.36-1.1-.25-.26-.61-.39-1.08-.39zm9.55 5.29c.42 0 .74-.11.97-.34s.34-.54.33-.95h2.78c0 1.04-.37 1.9-1.12 2.57-.75.67-1.71 1-2.89 1-1.38 0-2.47-.43-3.27-1.3s-1.2-2.07-1.2-3.6v-.12c0-.96.18-1.81.53-2.54.35-.73.87-1.3 1.53-1.7.67-.4 1.46-.59 2.37-.59 1.24 0 2.22.34 2.94 1.03s1.09 1.61 1.09 2.79h-2.78c0-.49-.12-.87-.36-1.13s-.56-.4-.97-.4c-.77 0-1.22.49-1.34 1.47-.04.31-.06.74-.06 1.28 0 .96.11 1.62.34 1.99s.61.54 1.11.54zm5.31-9.86c0-.42.15-.77.46-1.04s.7-.4 1.19-.4.88.13 1.19.4.46.62.46 1.04-.15.77-.46 1.04-.7.4-1.19.4-.88-.13-1.19-.4-.46-.61-.46-1.04zm3.15 11.97h-2.97v-9.51h2.97v9.51zm7.18 0c-.11-.19-.2-.48-.28-.85-.54.69-1.31 1.03-2.29 1.03-.9 0-1.66-.27-2.29-.81s-.94-1.22-.94-2.04c0-1.03.38-1.81 1.14-2.34s1.87-.79 3.32-.79h.91v-.5c0-.88-.38-1.32-1.13-1.32-.7 0-1.05.35-1.05 1.04h-2.96c0-.92.39-1.67 1.17-2.24.78-.57 1.78-.86 2.99-.86s2.17.3 2.87.89 1.06 1.4 1.08 2.43v4.21c.01.87.15 1.54.4 2v.15h-2.94zm-1.86-1.94c.37 0 .67-.08.92-.24.24-.16.42-.34.52-.54v-1.52h-.86c-1.03 0-1.55.46-1.55 1.39 0 .27.09.49.27.66.19.17.42.25.7.25zm9.18 1.94h-2.97v-13.5h2.97v13.5zm1.8-11.97c0-.42.15-.77.46-1.04s.7-.4 1.19-.4.88.13 1.19.4.46.62.46 1.04-.15.77-.46 1.04-.7.4-1.19.4-.88-.13-1.19-.4-.46-.61-.46-1.04zm3.15 11.97h-2.97v-9.51h2.97v9.51zm6.8-2.68c0-.25-.13-.45-.4-.61s-.76-.31-1.5-.47-1.35-.38-1.83-.65-.85-.59-1.1-.97-.38-.82-.38-1.31c0-.87.36-1.59 1.08-2.16.72-.56 1.66-.85 2.83-.85 1.25 0 2.26.28 3.02.85s1.14 1.32 1.14 2.24h-2.97c0-.76-.4-1.14-1.2-1.14-.31 0-.57.09-.78.26s-.32.39-.32.65.13.48.39.64.67.3 1.23.4 1.06.23 1.49.38c1.43.49 2.14 1.37 2.14 2.65 0 .87-.39 1.57-1.16 2.12s-1.77.82-2.99.82c-.81 0-1.54-.15-2.18-.44s-1.14-.69-1.49-1.2-.54-1.03-.54-1.59h2.77c.01.44.16.76.44.96.28.2.64.3 1.08.3.4 0 .71-.08.91-.25.22-.15.32-.36.32-.63zm7.69-9.2v2.36h1.56v2.06h-1.56v4.35c0 .36.06.61.19.75s.38.21.76.21c.29 0 .54-.02.74-.05v2.12c-.53.17-1.09.25-1.67.25-1.02 0-1.77-.24-2.26-.72s-.73-1.21-.73-2.19v-4.72h-1.21v-2.06h1.21v-2.36h2.97z"/></svg>