<?xml version="1.0" encoding="utf-8"?>
<!-- Generator: Adobe Illustrator 25.3.1, SVG Export Plug-In . SVG Version: 6.00 Build 0)  -->
<svg version="1.1" id="Layer_1" xmlns="http://www.w3.org/2000/svg" xmlns:xlink="http://www.w3.org/1999/xlink" x="0px" y="0px"
	 viewBox="0 0 728 90" style="enable-background:new 0 0 728 90;" xml:space="preserve">
<style type="text/css">
	.st0{fill:#FFFFFF;}
</style>
<g>
	<path class="st0" d="M129.34,26.54h-3.59V11.62h3.59V26.54z"/>
	<path class="st0" d="M131.25,20.92c0-1.76,0.38-3.14,1.14-4.15c0.76-1.01,1.82-1.52,3.18-1.52c0.99,0,1.83,0.39,2.5,1.17v-5.62
		h3.47v15.75h-3.11l-0.17-1.19c-0.71,0.93-1.61,1.39-2.71,1.39c-1.32,0-2.37-0.51-3.14-1.52S131.25,22.78,131.25,20.92z
		 M134.71,21.13c0,1.97,0.57,2.95,1.72,2.95c0.77,0,1.31-0.32,1.64-0.96V18.9c-0.31-0.66-0.85-0.98-1.62-0.98
		c-1.07,0-1.64,0.86-1.73,2.58L134.71,21.13z"/>
	<path class="st0" d="M148.87,26.75c-1.7,0-3.08-0.51-4.13-1.52c-1.05-1.02-1.58-2.34-1.58-3.96v-0.29c0-1.13,0.21-2.14,0.63-3
		c0.42-0.87,1.03-1.54,1.84-2.01s1.76-0.71,2.87-0.71c1.56,0,2.79,0.48,3.69,1.45s1.35,2.32,1.35,4.04v1.34h-6.87
		c0.12,0.62,0.39,1.11,0.81,1.47c0.42,0.36,0.96,0.53,1.62,0.53c1.09,0,1.95-0.38,2.56-1.15l1.58,1.87
		c-0.43,0.59-1.04,1.07-1.83,1.42C150.63,26.57,149.78,26.75,148.87,26.75z M148.48,17.91c-1.01,0-1.61,0.67-1.8,2.01h3.49v-0.27
		c0.01-0.55-0.13-0.98-0.42-1.29C149.45,18.06,149.03,17.91,148.48,17.91z"/>
	<path class="st0" d="M158.11,15.45l0.11,1.3c0.76-1,1.82-1.51,3.17-1.51c1.16,0,2.02,0.35,2.59,1.04c0.57,0.69,0.87,1.73,0.89,3.12
		v7.15h-3.47v-7c0-0.56-0.11-0.97-0.34-1.24c-0.23-0.26-0.64-0.39-1.23-0.39c-0.68,0-1.18,0.27-1.51,0.8v7.83h-3.46V15.45H158.11z"
		/>
	<path class="st0" d="M170.8,12.69v2.76h1.82v2.4h-1.82v5.08c0,0.42,0.07,0.71,0.22,0.87s0.45,0.25,0.89,0.25
		c0.34,0,0.63-0.02,0.86-0.06v2.47c-0.62,0.2-1.27,0.3-1.95,0.3c-1.19,0-2.07-0.28-2.64-0.84s-0.85-1.41-0.85-2.55v-5.51h-1.42v-2.4
		h1.42v-2.76H170.8z"/>
	<path class="st0" d="M173.96,12.59c0-0.49,0.18-0.9,0.53-1.21s0.82-0.47,1.38-0.47c0.57,0,1.03,0.16,1.38,0.47s0.53,0.72,0.53,1.21
		s-0.18,0.9-0.53,1.21s-0.82,0.47-1.38,0.47c-0.57,0-1.03-0.16-1.38-0.47S173.96,13.08,173.96,12.59z M177.63,26.54h-3.47V15.45
		h3.47V26.54z"/>
	<path class="st0" d="M183.78,12.69v2.76h1.82v2.4h-1.82v5.08c0,0.42,0.07,0.71,0.22,0.87s0.45,0.25,0.89,0.25
		c0.34,0,0.63-0.02,0.86-0.06v2.47c-0.62,0.2-1.27,0.3-1.95,0.3c-1.19,0-2.07-0.28-2.64-0.84s-0.85-1.41-0.85-2.55v-5.51h-1.42v-2.4
		h1.42v-2.76H183.78z"/>
	<path class="st0" d="M191.4,21.71l1.85-6.25h3.7l-4.52,12.95l-0.2,0.47c-0.64,1.44-1.78,2.15-3.4,2.15c-0.45,0-0.93-0.07-1.43-0.2
		v-2.46h0.45c0.49,0,0.86-0.07,1.11-0.21c0.26-0.14,0.45-0.39,0.57-0.75l0.28-0.74l-3.86-11.21h3.69L191.4,21.71z"/>
	<path class="st0" d="M203.84,26.54v-8.7h-1.61v-2.4h1.61v-0.88c0-1.26,0.37-2.25,1.12-2.94s1.79-1.05,3.14-1.05
		c0.49,0,1.03,0.07,1.62,0.22l0.01,2.54c-0.21-0.06-0.5-0.09-0.85-0.09c-1.05,0-1.57,0.45-1.57,1.35v0.85h2.16v2.4h-2.16v8.7H203.84
		z"/>
	<path class="st0" d="M217.39,18.58l-1.14-0.08c-1.09,0-1.78,0.34-2.09,1.03v7.02h-3.46V15.45h3.24l0.11,1.43
		c0.58-1.09,1.39-1.63,2.43-1.63c0.37,0,0.69,0.04,0.96,0.12L217.39,18.58z"/>
	<path class="st0" d="M224.58,26.54c-0.12-0.23-0.23-0.56-0.33-0.99c-0.64,0.8-1.52,1.2-2.67,1.2c-1.05,0-1.93-0.32-2.67-0.95
		s-1.1-1.43-1.1-2.38c0-1.2,0.44-2.11,1.33-2.73c0.89-0.62,2.18-0.92,3.88-0.92h1.07v-0.59c0-1.02-0.44-1.54-1.32-1.54
		c-0.82,0-1.23,0.41-1.23,1.22h-3.46c0-1.07,0.46-1.94,1.37-2.61c0.91-0.67,2.08-1,3.49-1c1.42,0,2.53,0.35,3.35,1.04
		s1.24,1.64,1.26,2.84v4.91c0.01,1.02,0.17,1.8,0.47,2.34v0.17H224.58z M222.42,24.29c0.43,0,0.79-0.09,1.07-0.28
		c0.28-0.18,0.49-0.39,0.61-0.63v-1.77h-1c-1.2,0-1.8,0.54-1.8,1.62c0,0.31,0.11,0.57,0.32,0.76
		C221.82,24.19,222.09,24.29,222.42,24.29z"/>
	<path class="st0" d="M236.09,25.35c-0.73,0.94-1.72,1.4-2.96,1.4c-1.22,0-2.14-0.35-2.76-1.06c-0.62-0.71-0.94-1.72-0.94-3.05
		v-7.19h3.46v7.21c0,0.95,0.46,1.43,1.38,1.43c0.79,0,1.36-0.28,1.69-0.85v-7.78h3.48v11.09h-3.24L236.09,25.35z"/>
	<path class="st0" d="M240.89,20.92c0-1.76,0.38-3.14,1.14-4.15c0.76-1.01,1.82-1.52,3.18-1.52c0.99,0,1.83,0.39,2.5,1.17v-5.62
		h3.47v15.75h-3.11l-0.17-1.19c-0.71,0.93-1.61,1.39-2.71,1.39c-1.32,0-2.37-0.51-3.14-1.52S240.89,22.78,240.89,20.92z
		 M244.34,21.13c0,1.97,0.57,2.95,1.72,2.95c0.77,0,1.31-0.32,1.64-0.96V18.9c-0.31-0.66-0.85-0.98-1.62-0.98
		c-1.07,0-1.64,0.86-1.73,2.58L244.34,21.13z"/>
	<path class="st0" d="M264.17,23.43c0-0.29-0.15-0.53-0.46-0.71s-0.89-0.36-1.75-0.55s-1.57-0.44-2.13-0.75s-0.99-0.69-1.28-1.13
		s-0.44-0.95-0.44-1.53c0-1.02,0.42-1.86,1.26-2.52c0.84-0.66,1.94-0.99,3.3-0.99c1.46,0,2.64,0.33,3.53,0.99s1.33,1.53,1.33,2.61
		h-3.47c0-0.89-0.47-1.33-1.41-1.33c-0.36,0-0.67,0.1-0.91,0.3s-0.37,0.45-0.37,0.75c0,0.31,0.15,0.56,0.45,0.75
		s0.78,0.35,1.44,0.47c0.66,0.12,1.24,0.27,1.74,0.44c1.67,0.57,2.5,1.6,2.5,3.09c0,1.01-0.45,1.84-1.35,2.47
		c-0.9,0.64-2.06,0.95-3.49,0.95c-0.95,0-1.8-0.17-2.54-0.51s-1.33-0.81-1.74-1.39s-0.62-1.21-0.62-1.86h3.23
		c0.01,0.51,0.18,0.89,0.51,1.12c0.33,0.24,0.75,0.35,1.26,0.35c0.47,0,0.83-0.1,1.06-0.29C264.06,23.98,264.17,23.74,264.17,23.43z
		"/>
	<path class="st0" d="M273.81,24.08c0.49,0,0.86-0.13,1.13-0.39s0.4-0.63,0.39-1.1h3.24c0,1.22-0.44,2.21-1.31,2.99
		c-0.87,0.78-1.99,1.17-3.37,1.17c-1.61,0-2.88-0.51-3.81-1.52s-1.39-2.41-1.39-4.2v-0.14c0-1.12,0.21-2.11,0.62-2.97
		c0.41-0.86,1.01-1.52,1.79-1.98c0.78-0.46,1.7-0.69,2.77-0.69c1.44,0,2.59,0.4,3.44,1.2s1.27,1.88,1.27,3.25h-3.24
		c0-0.57-0.14-1.02-0.42-1.32c-0.28-0.31-0.66-0.46-1.13-0.46c-0.9,0-1.42,0.57-1.57,1.71c-0.05,0.36-0.07,0.86-0.07,1.5
		c0,1.11,0.13,1.89,0.4,2.32S273.23,24.08,273.81,24.08z"/>
	<path class="st0" d="M286.28,26.54c-0.12-0.23-0.23-0.56-0.33-0.99c-0.64,0.8-1.52,1.2-2.67,1.2c-1.05,0-1.93-0.32-2.67-0.95
		s-1.1-1.43-1.1-2.38c0-1.2,0.44-2.11,1.33-2.73c0.89-0.62,2.18-0.92,3.88-0.92h1.07v-0.59c0-1.02-0.44-1.54-1.32-1.54
		c-0.82,0-1.23,0.41-1.23,1.22h-3.46c0-1.07,0.46-1.94,1.37-2.61c0.91-0.67,2.08-1,3.49-1c1.42,0,2.53,0.35,3.35,1.04
		s1.24,1.64,1.26,2.84v4.91c0.01,1.02,0.17,1.8,0.47,2.34v0.17H286.28z M284.12,24.29c0.43,0,0.79-0.09,1.07-0.28
		c0.28-0.18,0.49-0.39,0.61-0.63v-1.77h-1c-1.2,0-1.8,0.54-1.8,1.62c0,0.31,0.11,0.57,0.32,0.76
		C283.52,24.19,283.79,24.29,284.12,24.29z"/>
	<path class="st0" d="M294.44,15.45l0.11,1.3c0.79-1,1.84-1.51,3.17-1.51c1.4,0,2.35,0.56,2.84,1.67c0.75-1.11,1.84-1.67,3.26-1.67
		c2.25,0,3.4,1.36,3.47,4.08v7.22h-3.47v-7c0-0.57-0.1-0.98-0.29-1.24s-0.54-0.39-1.05-0.39c-0.68,0-1.19,0.3-1.53,0.91l0.01,0.14
		v7.58h-3.47v-6.98c0-0.58-0.09-1-0.28-1.26c-0.18-0.26-0.54-0.39-1.06-0.39c-0.66,0-1.17,0.3-1.52,0.91v7.72h-3.46V15.45H294.44z"
		/>
	<path class="st0" d="M315.07,23.43c0-0.29-0.15-0.53-0.46-0.71s-0.89-0.36-1.75-0.55s-1.57-0.44-2.13-0.75s-0.99-0.69-1.28-1.13
		S309,19.33,309,18.75c0-1.02,0.42-1.86,1.26-2.52c0.84-0.66,1.94-0.99,3.3-0.99c1.46,0,2.64,0.33,3.53,0.99s1.33,1.53,1.33,2.61
		h-3.47c0-0.89-0.47-1.33-1.41-1.33c-0.36,0-0.67,0.1-0.91,0.3s-0.37,0.45-0.37,0.75c0,0.31,0.15,0.56,0.45,0.75
		s0.78,0.35,1.44,0.47c0.66,0.12,1.24,0.27,1.74,0.44c1.67,0.57,2.5,1.6,2.5,3.09c0,1.01-0.45,1.84-1.35,2.47
		c-0.9,0.64-2.06,0.95-3.49,0.95c-0.95,0-1.8-0.17-2.54-0.51s-1.33-0.81-1.74-1.39s-0.62-1.21-0.62-1.86h3.23
		c0.01,0.51,0.18,0.89,0.51,1.12c0.33,0.24,0.75,0.35,1.26,0.35c0.47,0,0.83-0.1,1.06-0.29C314.96,23.98,315.07,23.74,315.07,23.43z
		"/>
	<path class="st0" d="M331.5,26.54c-0.12-0.23-0.23-0.56-0.33-0.99c-0.64,0.8-1.52,1.2-2.67,1.2c-1.05,0-1.93-0.32-2.67-0.95
		s-1.1-1.43-1.1-2.38c0-1.2,0.44-2.11,1.33-2.73c0.89-0.62,2.18-0.92,3.88-0.92h1.07v-0.59c0-1.02-0.44-1.54-1.32-1.54
		c-0.82,0-1.23,0.41-1.23,1.22h-3.46c0-1.07,0.46-1.94,1.37-2.61c0.91-0.67,2.08-1,3.49-1c1.42,0,2.53,0.35,3.35,1.04
		s1.24,1.64,1.26,2.84v4.91c0.01,1.02,0.17,1.8,0.47,2.34v0.17H331.5z M329.34,24.29c0.43,0,0.79-0.09,1.07-0.28
		c0.28-0.18,0.49-0.39,0.61-0.63v-1.77h-1c-1.2,0-1.8,0.54-1.8,1.62c0,0.31,0.11,0.57,0.32,0.76
		C328.74,24.19,329.01,24.29,329.34,24.29z"/>
	<path class="st0" d="M341.09,24.08c0.49,0,0.86-0.13,1.13-0.39s0.4-0.63,0.39-1.1h3.24c0,1.22-0.44,2.21-1.31,2.99
		c-0.87,0.78-1.99,1.17-3.37,1.17c-1.61,0-2.88-0.51-3.81-1.52s-1.39-2.41-1.39-4.2v-0.14c0-1.12,0.21-2.11,0.62-2.97
		c0.41-0.86,1.01-1.52,1.79-1.98c0.78-0.46,1.7-0.69,2.77-0.69c1.44,0,2.59,0.4,3.44,1.2s1.27,1.88,1.27,3.25h-3.24
		c0-0.57-0.14-1.02-0.42-1.32c-0.28-0.31-0.66-0.46-1.13-0.46c-0.9,0-1.42,0.57-1.57,1.71c-0.05,0.36-0.07,0.86-0.07,1.5
		c0,1.11,0.13,1.89,0.4,2.32S340.51,24.08,341.09,24.08z"/>
	<path class="st0" d="M352,24.08c0.49,0,0.86-0.13,1.13-0.39s0.4-0.63,0.39-1.1h3.24c0,1.22-0.44,2.21-1.31,2.99
		c-0.87,0.78-1.99,1.17-3.37,1.17c-1.61,0-2.88-0.51-3.81-1.52s-1.39-2.41-1.39-4.2v-0.14c0-1.12,0.21-2.11,0.62-2.97
		c0.41-0.86,1.01-1.52,1.79-1.98c0.78-0.46,1.7-0.69,2.77-0.69c1.44,0,2.59,0.4,3.44,1.2s1.27,1.88,1.27,3.25h-3.24
		c0-0.57-0.14-1.02-0.42-1.32c-0.28-0.31-0.66-0.46-1.13-0.46c-0.9,0-1.42,0.57-1.57,1.71c-0.05,0.36-0.07,0.86-0.07,1.5
		c0,1.11,0.13,1.89,0.4,2.32S351.42,24.08,352,24.08z"/>
	<path class="st0" d="M357.78,20.9c0-1.11,0.21-2.09,0.65-2.96c0.43-0.86,1.05-1.53,1.86-1.99s1.75-0.7,2.84-0.7
		c1.66,0,2.97,0.51,3.93,1.54c0.96,1.03,1.44,2.43,1.44,4.2v0.12c0,1.73-0.48,3.1-1.44,4.12c-0.96,1.01-2.26,1.52-3.9,1.52
		c-1.58,0-2.85-0.47-3.8-1.42s-1.47-2.23-1.55-3.85L357.78,20.9z M361.24,21.11c0,1.03,0.16,1.78,0.48,2.26s0.8,0.72,1.43,0.72
		c1.23,0,1.86-0.95,1.89-2.84V20.9c0-1.99-0.64-2.98-1.91-2.98c-1.16,0-1.78,0.86-1.88,2.57L361.24,21.11z"/>
	<path class="st0" d="M376.62,25.35c-0.73,0.94-1.72,1.4-2.96,1.4c-1.22,0-2.14-0.35-2.76-1.06c-0.62-0.71-0.94-1.72-0.94-3.05
		v-7.19h3.46v7.21c0,0.95,0.46,1.43,1.38,1.43c0.79,0,1.36-0.28,1.69-0.85v-7.78h3.48v11.09h-3.24L376.62,25.35z"/>
	<path class="st0" d="M385.03,15.45l0.11,1.3c0.76-1,1.82-1.51,3.17-1.51c1.16,0,2.02,0.35,2.59,1.04c0.57,0.69,0.87,1.73,0.89,3.12
		v7.15h-3.47v-7c0-0.56-0.11-0.97-0.34-1.24c-0.23-0.26-0.64-0.39-1.23-0.39c-0.68,0-1.18,0.27-1.51,0.8v7.83h-3.46V15.45H385.03z"
		/>
	<path class="st0" d="M397.72,12.69v2.76h1.82v2.4h-1.82v5.08c0,0.42,0.07,0.71,0.22,0.87s0.45,0.25,0.89,0.25
		c0.34,0,0.63-0.02,0.86-0.06v2.47c-0.62,0.2-1.27,0.3-1.95,0.3c-1.19,0-2.07-0.28-2.64-0.84s-0.85-1.41-0.85-2.55v-5.51h-1.42v-2.4
		h1.42v-2.76H397.72z"/>
	<path class="st0" d="M406.27,26.75c-1.7,0-3.08-0.51-4.13-1.52c-1.05-1.02-1.58-2.34-1.58-3.96v-0.29c0-1.13,0.21-2.14,0.63-3
		c0.42-0.87,1.03-1.54,1.84-2.01s1.76-0.71,2.87-0.71c1.56,0,2.79,0.48,3.69,1.45s1.35,2.32,1.35,4.04v1.34h-6.87
		c0.12,0.62,0.39,1.11,0.81,1.47c0.42,0.36,0.96,0.53,1.62,0.53c1.09,0,1.95-0.38,2.56-1.15l1.58,1.87
		c-0.43,0.59-1.04,1.07-1.83,1.42C408.03,26.57,407.18,26.75,406.27,26.75z M405.88,17.91c-1.01,0-1.61,0.67-1.8,2.01h3.49v-0.27
		c0.01-0.55-0.13-0.98-0.42-1.29C406.85,18.06,406.43,17.91,405.88,17.91z"/>
	<path class="st0" d="M411.9,20.92c0-1.76,0.38-3.14,1.14-4.15c0.76-1.01,1.82-1.52,3.18-1.52c0.99,0,1.83,0.39,2.5,1.17v-5.62h3.47
		v15.75h-3.11l-0.17-1.19c-0.71,0.93-1.61,1.39-2.71,1.39c-1.32,0-2.37-0.51-3.14-1.52S411.9,22.78,411.9,20.92z M415.36,21.13
		c0,1.97,0.57,2.95,1.72,2.95c0.77,0,1.31-0.32,1.64-0.96V18.9c-0.31-0.66-0.85-0.98-1.62-0.98c-1.07,0-1.64,0.86-1.73,2.58
		L415.36,21.13z"/>
	<path class="st0" d="M430.14,26.54v-8.7h-1.61v-2.4h1.61v-0.88c0-1.26,0.37-2.25,1.12-2.94s1.79-1.05,3.14-1.05
		c0.49,0,1.03,0.07,1.62,0.22l0.01,2.54c-0.21-0.06-0.5-0.09-0.85-0.09c-1.05,0-1.57,0.45-1.57,1.35v0.85h2.16v2.4h-2.16v8.7H430.14
		z"/>
	<path class="st0" d="M436.55,20.9c0-1.11,0.21-2.09,0.65-2.96c0.43-0.86,1.05-1.53,1.86-1.99s1.75-0.7,2.84-0.7
		c1.66,0,2.97,0.51,3.93,1.54c0.96,1.03,1.44,2.43,1.44,4.2v0.12c0,1.73-0.48,3.1-1.44,4.12c-0.96,1.01-2.26,1.52-3.9,1.52
		c-1.58,0-2.85-0.47-3.8-1.42s-1.47-2.23-1.55-3.85L436.55,20.9z M440.01,21.11c0,1.03,0.16,1.78,0.48,2.26s0.8,0.72,1.43,0.72
		c1.23,0,1.86-0.95,1.89-2.84V20.9c0-1.99-0.64-2.98-1.91-2.98c-1.16,0-1.78,0.86-1.88,2.57L440.01,21.11z"/>
	<path class="st0" d="M455.49,18.58l-1.14-0.08c-1.09,0-1.78,0.34-2.09,1.03v7.02h-3.46V15.45h3.24l0.11,1.43
		c0.58-1.09,1.39-1.63,2.43-1.63c0.37,0,0.69,0.04,0.96,0.12L455.49,18.58z"/>
</g>
</svg>
