<?xml version="1.0" encoding="utf-8"?>
<!-- Generator: Adobe Illustrator 25.3.1, SVG Export Plug-In . SVG Version: 6.00 Build 0)  -->
<svg version="1.1" id="Layer_1" xmlns="http://www.w3.org/2000/svg" xmlns:xlink="http://www.w3.org/1999/xlink" x="0px" y="0px"
	 viewBox="0 0 728 90" style="enable-background:new 0 0 728 90;" xml:space="preserve">
<style type="text/css">
	.st0{fill:#FFFFFF;}
</style>
<g>
	<path class="st0" d="M31.16,46.7V31.06h5.04c1.38,0,2.62,0.31,3.73,0.94s1.96,1.51,2.58,2.65c0.62,1.14,0.93,2.42,0.94,3.84v0.72
		c0,1.43-0.3,2.72-0.91,3.85c-0.6,1.13-1.46,2.02-2.56,2.66c-1.1,0.64-2.33,0.96-3.68,0.97H31.16z M34.93,33.97v9.83h1.31
		c1.08,0,1.91-0.38,2.49-1.15s0.87-1.91,0.87-3.43v-0.68c0-1.51-0.29-2.65-0.87-3.42c-0.58-0.77-1.42-1.15-2.54-1.15H34.93z"/>
	<path class="st0" d="M44.76,40.79c0-1.16,0.23-2.19,0.68-3.1s1.1-1.6,1.94-2.09c0.84-0.49,1.84-0.73,2.98-0.73
		c1.74,0,3.11,0.54,4.11,1.62s1.5,2.54,1.5,4.4v0.13c0,1.81-0.5,3.25-1.51,4.31c-1.01,1.06-2.37,1.59-4.09,1.59
		c-1.65,0-2.98-0.5-3.99-1.49s-1.54-2.34-1.62-4.03L44.76,40.79z M48.38,41.01c0,1.07,0.17,1.86,0.5,2.36
		c0.34,0.5,0.83,0.75,1.49,0.75c1.29,0,1.95-0.99,1.98-2.98v-0.37c0-2.08-0.67-3.13-2-3.13c-1.21,0-1.87,0.9-1.97,2.7L48.38,41.01z"
		/>
	<path class="st0" d="M60.89,35.08l0.12,1.36c0.8-1.05,1.91-1.58,3.32-1.58c1.21,0,2.11,0.36,2.71,1.08
		c0.6,0.72,0.91,1.81,0.93,3.27v7.49h-3.63v-7.34c0-0.59-0.12-1.02-0.35-1.29s-0.67-0.41-1.29-0.41c-0.71,0-1.24,0.28-1.58,0.84
		v8.21H57.5V35.08H60.89z"/>
	<path class="st0" d="M71.14,31.94l-0.35,4.44h-2.22V30.2h2.58V31.94z"/>
	<path class="st0" d="M76.73,32.19v2.89h1.91v2.51h-1.91v5.32c0,0.44,0.08,0.74,0.24,0.91s0.47,0.26,0.93,0.26
		c0.36,0,0.66-0.02,0.9-0.06v2.59c-0.65,0.21-1.33,0.31-2.04,0.31c-1.25,0-2.17-0.29-2.76-0.88c-0.59-0.59-0.89-1.48-0.89-2.67
		v-5.77h-1.48v-2.51h1.48v-2.89H76.73z"/>
	<path class="st0" d="M96.33,40.99c0,1.91-0.39,3.37-1.18,4.39c-0.79,1.02-1.9,1.54-3.33,1.54c-1.18,0-2.13-0.47-2.86-1.41
		l-0.15,1.19h-3.24V30.2h3.62v5.81c0.67-0.77,1.54-1.15,2.61-1.15c1.45,0,2.56,0.52,3.35,1.56c0.79,1.04,1.18,2.5,1.18,4.38V40.99z
		 M92.7,40.76c0-1.12-0.15-1.91-0.45-2.39c-0.3-0.48-0.75-0.71-1.37-0.71c-0.82,0-1.38,0.31-1.7,0.93v4.61
		c0.31,0.62,0.88,0.92,1.72,0.92c0.85,0,1.39-0.41,1.62-1.24C92.64,42.47,92.7,41.77,92.7,40.76z"/>
	<path class="st0" d="M103.55,46.92c-1.78,0-3.23-0.53-4.33-1.59s-1.65-2.45-1.65-4.15v-0.3c0-1.19,0.22-2.24,0.66-3.15
		c0.44-0.91,1.08-1.61,1.93-2.11s1.85-0.75,3.01-0.75c1.63,0,2.92,0.51,3.87,1.52s1.42,2.43,1.42,4.24v1.41h-7.2
		c0.13,0.65,0.41,1.16,0.85,1.54c0.44,0.37,1,0.56,1.7,0.56c1.15,0,2.04-0.4,2.69-1.2l1.65,1.96c-0.45,0.62-1.09,1.12-1.92,1.49
		C105.39,46.73,104.5,46.92,103.55,46.92z M103.14,37.66c-1.06,0-1.69,0.7-1.89,2.11h3.65v-0.28c0.01-0.58-0.13-1.03-0.44-1.35
		S103.71,37.66,103.14,37.66z"/>
	<path class="st0" d="M126.17,40.98c0,1.8-0.41,3.25-1.22,4.32c-0.81,1.08-1.91,1.62-3.29,1.62c-1.07,0-1.94-0.39-2.63-1.17v5.42
		h-3.62V35.08h3.38l0.11,1.07c0.69-0.86,1.61-1.29,2.74-1.29c1.43,0,2.55,0.53,3.34,1.58s1.19,2.51,1.19,4.36V40.98z M122.55,40.75
		c0-2.06-0.6-3.09-1.8-3.09c-0.86,0-1.43,0.31-1.72,0.92v4.58c0.32,0.64,0.9,0.97,1.74,0.97c1.15,0,1.75-1,1.78-2.99V40.75z"/>
	<path class="st0" d="M134.32,46.7c-0.13-0.24-0.24-0.58-0.34-1.04c-0.67,0.84-1.6,1.26-2.79,1.26c-1.1,0-2.03-0.33-2.79-0.99
		s-1.15-1.5-1.15-2.5c0-1.26,0.47-2.21,1.4-2.86s2.28-0.97,4.06-0.97h1.12v-0.62c0-1.07-0.46-1.61-1.39-1.61
		c-0.86,0-1.29,0.42-1.29,1.27h-3.62c0-1.12,0.48-2.04,1.43-2.74c0.96-0.7,2.17-1.05,3.66-1.05s2.65,0.36,3.51,1.08
		c0.86,0.72,1.3,1.72,1.32,2.98v5.15c0.01,1.07,0.18,1.88,0.49,2.45v0.18H134.32z M132.05,44.34c0.45,0,0.83-0.1,1.12-0.29
		c0.3-0.19,0.51-0.41,0.64-0.66v-1.86h-1.05c-1.26,0-1.89,0.57-1.89,1.7c0,0.33,0.11,0.6,0.33,0.8S131.71,44.34,132.05,44.34z"/>
	<path class="st0" d="M146.48,38.36l-1.19-0.09c-1.14,0-1.87,0.36-2.19,1.07v7.36h-3.62V35.08h3.39l0.12,1.49
		c0.61-1.14,1.46-1.71,2.55-1.71c0.39,0,0.72,0.04,1.01,0.13L146.48,38.36z"/>
	<path class="st0" d="M152.53,32.19v2.89h1.91v2.51h-1.91v5.32c0,0.44,0.08,0.74,0.24,0.91s0.47,0.26,0.93,0.26
		c0.36,0,0.66-0.02,0.9-0.06v2.59c-0.65,0.21-1.33,0.31-2.04,0.31c-1.25,0-2.17-0.29-2.76-0.88c-0.59-0.59-0.89-1.48-0.89-2.67
		v-5.77h-1.48v-2.51h1.48v-2.89H152.53z"/>
	<path class="st0" d="M160.89,40.79c0-1.16,0.23-2.19,0.68-3.1s1.1-1.6,1.94-2.09c0.84-0.49,1.84-0.73,2.98-0.73
		c1.74,0,3.11,0.54,4.11,1.62s1.5,2.54,1.5,4.4v0.13c0,1.81-0.5,3.25-1.51,4.31c-1.01,1.06-2.37,1.59-4.09,1.59
		c-1.65,0-2.98-0.5-3.99-1.49s-1.54-2.34-1.62-4.03L160.89,40.79z M164.51,41.01c0,1.07,0.17,1.86,0.5,2.36
		c0.34,0.5,0.83,0.75,1.49,0.75c1.29,0,1.95-0.99,1.98-2.98v-0.37c0-2.08-0.67-3.13-2-3.13c-1.21,0-1.87,0.9-1.97,2.7L164.51,41.01z
		"/>
	<path class="st0" d="M174.5,46.7v-9.11h-1.69v-2.51h1.69v-0.92c0-1.32,0.39-2.35,1.17-3.08s1.88-1.1,3.29-1.1
		c0.52,0,1.08,0.08,1.7,0.23l0.01,2.66c-0.22-0.06-0.52-0.1-0.89-0.1c-1.1,0-1.64,0.47-1.64,1.42v0.89h2.27v2.51h-2.27v9.11H174.5z"
		/>
	<path class="st0" d="M191.37,32.19v2.89h1.91v2.51h-1.91v5.32c0,0.44,0.08,0.74,0.24,0.91s0.47,0.26,0.93,0.26
		c0.36,0,0.66-0.02,0.9-0.06v2.59c-0.65,0.21-1.33,0.31-2.04,0.31c-1.25,0-2.17-0.29-2.76-0.88c-0.59-0.59-0.89-1.48-0.89-2.67
		v-5.77h-1.48v-2.51h1.48v-2.89H191.37z"/>
	<path class="st0" d="M198.24,36.33c0.77-0.97,1.76-1.46,2.96-1.46c1.28,0,2.25,0.38,2.9,1.14c0.65,0.76,0.98,1.88,1,3.36v7.34
		h-3.63v-7.25c0-0.62-0.12-1.07-0.38-1.36s-0.68-0.44-1.28-0.44c-0.75,0-1.27,0.24-1.58,0.71v8.34h-3.62V30.2h3.62V36.33z"/>
	<path class="st0" d="M207.09,32.08c0-0.52,0.19-0.94,0.56-1.27c0.37-0.33,0.86-0.49,1.45-0.49s1.08,0.17,1.45,0.49
		c0.37,0.33,0.56,0.75,0.56,1.27s-0.19,0.94-0.56,1.27c-0.37,0.33-0.86,0.49-1.45,0.49s-1.08-0.16-1.45-0.49
		C207.28,33.02,207.09,32.6,207.09,32.08z M210.94,46.7h-3.63V35.08h3.63V46.7z"/>
	<path class="st0" d="M219.25,43.44c0-0.31-0.16-0.55-0.48-0.74c-0.32-0.19-0.93-0.38-1.84-0.58c-0.9-0.2-1.65-0.46-2.23-0.79
		s-1.04-0.72-1.34-1.19c-0.31-0.46-0.46-1-0.46-1.6c0-1.07,0.44-1.95,1.32-2.64s2.03-1.04,3.46-1.04c1.53,0,2.76,0.35,3.7,1.04
		c0.93,0.7,1.4,1.61,1.4,2.74h-3.63c0-0.93-0.49-1.4-1.47-1.4c-0.38,0-0.7,0.11-0.96,0.32s-0.39,0.47-0.39,0.79
		c0,0.32,0.16,0.58,0.47,0.78c0.32,0.2,0.82,0.37,1.51,0.49c0.69,0.13,1.3,0.28,1.82,0.46c1.75,0.6,2.62,1.68,2.62,3.23
		c0,1.06-0.47,1.92-1.41,2.59c-0.94,0.67-2.16,1-3.66,1c-1,0-1.88-0.18-2.66-0.54c-0.78-0.36-1.39-0.84-1.83-1.46
		c-0.44-0.62-0.66-1.26-0.66-1.94h3.38c0.01,0.54,0.19,0.93,0.54,1.18s0.78,0.37,1.32,0.37c0.49,0,0.86-0.1,1.11-0.3
		C219.13,44.02,219.25,43.76,219.25,43.44z"/>
	<path class="st0" d="M240.71,40.99c0,1.91-0.39,3.37-1.18,4.39c-0.79,1.02-1.9,1.54-3.33,1.54c-1.18,0-2.13-0.47-2.86-1.41
		l-0.15,1.19h-3.24V30.2h3.62v5.81c0.67-0.77,1.54-1.15,2.61-1.15c1.45,0,2.56,0.52,3.35,1.56c0.79,1.04,1.18,2.5,1.18,4.38V40.99z
		 M237.08,40.76c0-1.12-0.15-1.91-0.45-2.39c-0.3-0.48-0.75-0.71-1.37-0.71c-0.82,0-1.38,0.31-1.7,0.93v4.61
		c0.31,0.62,0.88,0.92,1.72,0.92c0.85,0,1.39-0.41,1.62-1.24C237.02,42.47,237.08,41.77,237.08,40.76z"/>
	<path class="st0" d="M242.27,32.08c0-0.52,0.19-0.94,0.56-1.27c0.37-0.33,0.86-0.49,1.45-0.49s1.08,0.17,1.45,0.49
		c0.37,0.33,0.56,0.75,0.56,1.27s-0.19,0.94-0.56,1.27c-0.37,0.33-0.86,0.49-1.45,0.49s-1.08-0.16-1.45-0.49
		C242.46,33.02,242.27,32.6,242.27,32.08z M246.12,46.7h-3.63V35.08h3.63V46.7z"/>
	<path class="st0" d="M252.17,46.7h-3.63V30.2h3.63V46.7z"/>
	<path class="st0" d="M258.22,46.7h-3.63V30.2h3.63V46.7z"/>
	<path class="st0" d="M260.42,32.08c0-0.52,0.19-0.94,0.56-1.27c0.37-0.33,0.86-0.49,1.45-0.49s1.08,0.17,1.45,0.49
		c0.37,0.33,0.56,0.75,0.56,1.27s-0.19,0.94-0.56,1.27c-0.37,0.33-0.86,0.49-1.45,0.49s-1.08-0.16-1.45-0.49
		C260.6,33.02,260.42,32.6,260.42,32.08z M264.26,46.7h-3.63V35.08h3.63V46.7z"/>
	<path class="st0" d="M266.04,40.79c0-1.16,0.23-2.19,0.68-3.1s1.1-1.6,1.94-2.09c0.84-0.49,1.84-0.73,2.98-0.73
		c1.74,0,3.11,0.54,4.11,1.62s1.5,2.54,1.5,4.4v0.13c0,1.81-0.5,3.25-1.51,4.31c-1.01,1.06-2.37,1.59-4.09,1.59
		c-1.65,0-2.98-0.5-3.99-1.49s-1.54-2.34-1.62-4.03L266.04,40.79z M269.66,41.01c0,1.07,0.17,1.86,0.5,2.36
		c0.34,0.5,0.83,0.75,1.49,0.75c1.29,0,1.95-0.99,1.98-2.98v-0.37c0-2.08-0.67-3.13-2-3.13c-1.21,0-1.87,0.9-1.97,2.7L269.66,41.01z
		"/>
	<path class="st0" d="M282.17,35.08l0.12,1.36c0.8-1.05,1.91-1.58,3.32-1.58c1.21,0,2.11,0.36,2.71,1.08
		c0.6,0.72,0.91,1.81,0.93,3.27v7.49h-3.63v-7.34c0-0.59-0.12-1.02-0.35-1.29s-0.67-0.41-1.29-0.41c-0.71,0-1.24,0.28-1.58,0.84
		v8.21h-3.62V35.08H282.17z"/>
	<path class="st0" d="M296.28,40.81c0-1.84,0.4-3.29,1.19-4.35c0.79-1.06,1.91-1.59,3.33-1.59c1.04,0,1.91,0.41,2.62,1.22V30.2h3.63
		v16.5h-3.25l-0.18-1.25c-0.75,0.97-1.69,1.46-2.84,1.46c-1.38,0-2.48-0.53-3.29-1.59C296.68,44.27,296.28,42.76,296.28,40.81z
		 M299.9,41.03c0,2.06,0.6,3.09,1.8,3.09c0.8,0,1.38-0.34,1.72-1.01v-4.43c-0.33-0.69-0.9-1.03-1.7-1.03c-1.12,0-1.72,0.9-1.82,2.71
		L299.9,41.03z"/>
	<path class="st0" d="M308.65,40.79c0-1.16,0.23-2.19,0.68-3.1s1.1-1.6,1.94-2.09c0.84-0.49,1.84-0.73,2.98-0.73
		c1.74,0,3.11,0.54,4.11,1.62s1.5,2.54,1.5,4.4v0.13c0,1.81-0.5,3.25-1.51,4.31c-1.01,1.06-2.37,1.59-4.09,1.59
		c-1.65,0-2.98-0.5-3.99-1.49s-1.54-2.34-1.62-4.03L308.65,40.79z M312.27,41.01c0,1.07,0.17,1.86,0.5,2.36
		c0.34,0.5,0.83,0.75,1.49,0.75c1.29,0,1.95-0.99,1.98-2.98v-0.37c0-2.08-0.67-3.13-2-3.13c-1.21,0-1.87,0.9-1.97,2.7L312.27,41.01z
		"/>
	<path class="st0" d="M325.28,46.7h-3.63V30.2h3.63V46.7z"/>
	<path class="st0" d="M331.33,46.7h-3.63V30.2h3.63V46.7z"/>
	<path class="st0" d="M340.1,46.7c-0.13-0.24-0.24-0.58-0.34-1.04c-0.67,0.84-1.6,1.26-2.79,1.26c-1.1,0-2.03-0.33-2.79-0.99
		s-1.15-1.5-1.15-2.5c0-1.26,0.47-2.21,1.4-2.86s2.28-0.97,4.06-0.97h1.12v-0.62c0-1.07-0.46-1.61-1.39-1.61
		c-0.86,0-1.29,0.42-1.29,1.27h-3.62c0-1.12,0.48-2.04,1.43-2.74c0.96-0.7,2.17-1.05,3.66-1.05s2.65,0.36,3.51,1.08
		c0.86,0.72,1.3,1.72,1.32,2.98v5.15c0.01,1.07,0.18,1.88,0.49,2.45v0.18H340.1z M337.84,44.34c0.45,0,0.83-0.1,1.12-0.29
		c0.3-0.19,0.51-0.41,0.64-0.66v-1.86h-1.05c-1.26,0-1.89,0.57-1.89,1.7c0,0.33,0.11,0.6,0.33,0.8S337.49,44.34,337.84,44.34z"/>
	<path class="st0" d="M352.26,38.36l-1.19-0.09c-1.14,0-1.87,0.36-2.19,1.07v7.36h-3.62V35.08h3.39l0.12,1.49
		c0.61-1.14,1.46-1.71,2.55-1.71c0.39,0,0.72,0.04,1.01,0.13L352.26,38.36z"/>
	<path class="st0" d="M363.96,44.13c0.51,0,0.9-0.14,1.18-0.41s0.42-0.66,0.41-1.16h3.39c0,1.28-0.46,2.32-1.37,3.14
		c-0.91,0.82-2.09,1.22-3.53,1.22c-1.69,0-3.02-0.53-4-1.59c-0.97-1.06-1.46-2.53-1.46-4.4v-0.15c0-1.17,0.22-2.21,0.65-3.11
		c0.43-0.9,1.06-1.59,1.87-2.07s1.78-0.73,2.9-0.73c1.51,0,2.71,0.42,3.6,1.26s1.33,1.97,1.33,3.41h-3.39c0-0.6-0.15-1.06-0.44-1.39
		s-0.69-0.48-1.18-0.48c-0.94,0-1.49,0.6-1.64,1.79c-0.05,0.38-0.08,0.9-0.08,1.57c0,1.17,0.14,1.98,0.42,2.43
		S363.35,44.13,363.96,44.13z"/>
	<path class="st0" d="M374.3,46.7h-3.63V30.2h3.63V46.7z"/>
	<path class="st0" d="M383.45,45.45c-0.77,0.98-1.8,1.47-3.1,1.47c-1.27,0-2.24-0.37-2.89-1.11c-0.66-0.74-0.98-1.81-0.98-3.2v-7.53
		h3.62v7.55c0,1,0.48,1.49,1.45,1.49c0.83,0,1.42-0.3,1.77-0.89v-8.15h3.64V46.7h-3.39L383.45,45.45z"/>
	<path class="st0" d="M399.72,40.99c0,1.91-0.39,3.37-1.18,4.39c-0.79,1.02-1.9,1.54-3.33,1.54c-1.18,0-2.13-0.47-2.86-1.41
		l-0.15,1.19h-3.24V30.2h3.62v5.81c0.67-0.77,1.54-1.15,2.61-1.15c1.45,0,2.56,0.52,3.35,1.56c0.79,1.04,1.18,2.5,1.18,4.38V40.99z
		 M396.09,40.76c0-1.12-0.15-1.91-0.45-2.39c-0.3-0.48-0.75-0.71-1.37-0.71c-0.82,0-1.38,0.31-1.7,0.93v4.61
		c0.31,0.62,0.88,0.92,1.72,0.92c0.85,0,1.39-0.41,1.62-1.24C396.03,42.47,396.09,41.77,396.09,40.76z"/>
	<path class="st0" d="M403.56,43.19c0.57,0,1.05,0.17,1.43,0.51s0.57,0.78,0.57,1.3c0,0.53-0.19,0.97-0.57,1.31
		s-0.86,0.51-1.43,0.51c-0.58,0-1.06-0.17-1.43-0.52c-0.38-0.34-0.56-0.78-0.56-1.3c0-0.52,0.19-0.96,0.56-1.3
		C402.5,43.36,402.98,43.19,403.56,43.19z"/>
</g>
</svg>
