<?xml version="1.0" encoding="utf-8"?>
<!-- Generator: Adobe Illustrator 25.3.1, SVG Export Plug-In . SVG Version: 6.00 Build 0)  -->
<svg version="1.1" id="Layer_1" xmlns="http://www.w3.org/2000/svg" xmlns:xlink="http://www.w3.org/1999/xlink" x="0px" y="0px"
	 viewBox="0 0 728 90" style="enable-background:new 0 0 728 90;" xml:space="preserve">
<style type="text/css">
	.st0{fill:#FFFFFF;}
</style>
<g>
	<path class="st0" d="M88.28,63.8c0-0.3-0.11-0.55-0.31-0.76c-0.21-0.21-0.56-0.39-1.06-0.56c-0.69-0.21-1.2-0.49-1.52-0.83
		c-0.32-0.34-0.48-0.77-0.48-1.3c0-0.53,0.16-0.97,0.47-1.31c0.31-0.34,0.74-0.54,1.28-0.61v-1.07h0.73v1.07
		c0.55,0.08,0.97,0.3,1.28,0.69c0.3,0.38,0.46,0.91,0.46,1.58h-0.9c0-0.46-0.11-0.83-0.33-1.1c-0.22-0.27-0.51-0.41-0.88-0.41
		c-0.39,0-0.68,0.1-0.89,0.3s-0.31,0.48-0.31,0.84c0,0.33,0.11,0.6,0.33,0.79c0.22,0.2,0.57,0.38,1.07,0.54
		c0.5,0.16,0.88,0.34,1.16,0.53c0.28,0.19,0.48,0.42,0.62,0.68c0.13,0.26,0.2,0.56,0.2,0.9c0,0.55-0.17,0.99-0.5,1.33
		c-0.33,0.33-0.79,0.53-1.39,0.6v0.93h-0.72v-0.93c-0.61-0.06-1.08-0.27-1.42-0.65c-0.34-0.38-0.52-0.89-0.52-1.53h0.9
		c0,0.45,0.12,0.8,0.36,1.04s0.57,0.37,1.01,0.37c0.43,0,0.76-0.1,1.01-0.31S88.28,64.15,88.28,63.8z"/>
	<path class="st0" d="M93.28,65.63h-0.91v-6.02l-1.82,0.67v-0.82l2.59-0.97h0.14V65.63z"/>
	<path class="st0" d="M99.72,59.07v1.28h0.99v0.7h-0.99v3.28c0,0.21,0.04,0.37,0.13,0.48c0.09,0.11,0.24,0.16,0.45,0.16
		c0.1,0,0.25-0.02,0.43-0.06v0.73c-0.24,0.06-0.47,0.1-0.69,0.1c-0.4,0-0.71-0.12-0.91-0.37s-0.31-0.59-0.31-1.04v-3.28h-0.96v-0.7
		h0.96v-1.28H99.72z"/>
	<path class="st0" d="M104.31,61.16c-0.14-0.02-0.29-0.03-0.44-0.03c-0.59,0-0.99,0.25-1.21,0.76v3.75h-0.9v-5.28h0.88l0.01,0.61
		c0.3-0.47,0.72-0.71,1.26-0.71c0.18,0,0.31,0.02,0.4,0.07V61.16z"/>
	<path class="st0" d="M105.15,58.95c0-0.15,0.04-0.27,0.13-0.37c0.09-0.1,0.22-0.15,0.4-0.15s0.31,0.05,0.4,0.15
		s0.14,0.22,0.14,0.37s-0.05,0.27-0.14,0.37s-0.22,0.15-0.4,0.15s-0.31-0.05-0.4-0.15C105.19,59.21,105.15,59.09,105.15,58.95z
		 M106.12,65.63h-0.9v-5.28h0.9V65.63z"/>
	<path class="st0" d="M110.83,65.63c-0.05-0.1-0.09-0.29-0.13-0.56c-0.42,0.44-0.92,0.65-1.5,0.65c-0.52,0-0.95-0.15-1.28-0.44
		c-0.33-0.29-0.5-0.67-0.5-1.12c0-0.55,0.21-0.98,0.63-1.28c0.42-0.3,1.01-0.46,1.76-0.46h0.88v-0.42c0-0.32-0.09-0.57-0.28-0.75
		c-0.19-0.19-0.47-0.28-0.83-0.28c-0.32,0-0.59,0.08-0.81,0.24s-0.33,0.36-0.33,0.59h-0.91c0-0.26,0.09-0.52,0.28-0.76
		c0.19-0.25,0.44-0.44,0.76-0.58c0.32-0.14,0.67-0.21,1.06-0.21c0.61,0,1.09,0.15,1.43,0.46c0.34,0.3,0.52,0.72,0.54,1.26v2.43
		c0,0.49,0.06,0.87,0.19,1.16v0.08H110.83z M109.33,64.94c0.28,0,0.55-0.07,0.81-0.22s0.44-0.34,0.55-0.57v-1.08h-0.71
		c-1.11,0-1.66,0.32-1.66,0.97c0,0.28,0.09,0.5,0.28,0.66S109.03,64.94,109.33,64.94z"/>
	<path class="st0" d="M113.99,65.63h-0.9v-7.5h0.9V65.63z"/>
	<path class="st0" d="M118.35,65.63v-4.58h-0.83v-0.7h0.83V59.8c0-0.57,0.15-1,0.45-1.31s0.73-0.46,1.28-0.46
		c0.21,0,0.42,0.03,0.62,0.08l-0.05,0.73c-0.15-0.03-0.32-0.04-0.49-0.04c-0.29,0-0.52,0.09-0.68,0.26
		c-0.16,0.17-0.24,0.42-0.24,0.74v0.56h1.13v0.7h-1.13v4.58H118.35z"/>
	<path class="st0" d="M121.14,62.94c0-0.52,0.1-0.98,0.31-1.4c0.2-0.41,0.49-0.73,0.85-0.96c0.36-0.22,0.78-0.34,1.24-0.34
		c0.72,0,1.3,0.25,1.75,0.75c0.44,0.5,0.67,1.16,0.67,1.99v0.06c0,0.51-0.1,0.98-0.29,1.38c-0.2,0.41-0.48,0.73-0.85,0.96
		c-0.37,0.23-0.79,0.34-1.26,0.34c-0.72,0-1.3-0.25-1.74-0.75c-0.45-0.5-0.67-1.16-0.67-1.98V62.94z M122.05,63.05
		c0,0.59,0.14,1.06,0.41,1.41c0.27,0.35,0.64,0.53,1.09,0.53c0.46,0,0.82-0.18,1.09-0.54c0.27-0.36,0.41-0.86,0.41-1.51
		c0-0.58-0.14-1.05-0.41-1.41c-0.27-0.36-0.64-0.54-1.1-0.54c-0.45,0-0.81,0.18-1.08,0.53S122.05,62.39,122.05,63.05z"/>
	<path class="st0" d="M129.64,61.16c-0.14-0.02-0.29-0.03-0.44-0.03c-0.59,0-0.99,0.25-1.21,0.76v3.75h-0.9v-5.28h0.88l0.01,0.61
		c0.3-0.47,0.72-0.71,1.26-0.71c0.18,0,0.31,0.02,0.4,0.07V61.16z"/>
	<path class="st0" d="M134.17,59.07v1.28h0.99v0.7h-0.99v3.28c0,0.21,0.04,0.37,0.13,0.48c0.09,0.11,0.24,0.16,0.45,0.16
		c0.1,0,0.25-0.02,0.43-0.06v0.73c-0.24,0.06-0.47,0.1-0.69,0.1c-0.4,0-0.71-0.12-0.91-0.37s-0.31-0.59-0.31-1.04v-3.28h-0.96v-0.7
		h0.96v-1.28H134.17z"/>
	<path class="st0" d="M137.11,60.99c0.4-0.49,0.92-0.74,1.56-0.74c1.12,0,1.68,0.63,1.69,1.89v3.49h-0.9v-3.5
		c0-0.38-0.09-0.66-0.26-0.84c-0.17-0.18-0.44-0.27-0.8-0.27c-0.29,0-0.55,0.08-0.77,0.23s-0.39,0.36-0.52,0.62v3.76h-0.9v-7.5h0.9
		V60.99z"/>
	<path class="st0" d="M143.91,65.73c-0.72,0-1.3-0.24-1.75-0.71c-0.45-0.47-0.67-1.1-0.67-1.89v-0.17c0-0.52,0.1-0.99,0.3-1.4
		c0.2-0.41,0.48-0.73,0.84-0.97c0.36-0.23,0.75-0.35,1.17-0.35c0.69,0,1.22,0.23,1.6,0.68s0.57,1.1,0.57,1.94v0.38h-3.58
		c0.01,0.52,0.17,0.94,0.46,1.26c0.29,0.32,0.66,0.48,1.11,0.48c0.32,0,0.59-0.07,0.81-0.2s0.42-0.3,0.58-0.52l0.55,0.43
		C145.46,65.39,144.8,65.73,143.91,65.73z M143.8,60.99c-0.36,0-0.67,0.13-0.92,0.4c-0.25,0.26-0.4,0.64-0.46,1.12h2.65v-0.07
		c-0.03-0.46-0.15-0.81-0.37-1.07C144.47,61.12,144.18,60.99,143.8,60.99z"/>
	<path class="st0" d="M149.94,65.63v-4.58h-0.83v-0.7h0.83V59.8c0-0.57,0.15-1,0.45-1.31s0.73-0.46,1.28-0.46
		c0.21,0,0.42,0.03,0.62,0.08l-0.05,0.73c-0.15-0.03-0.32-0.04-0.49-0.04c-0.29,0-0.52,0.09-0.68,0.26
		c-0.16,0.17-0.24,0.42-0.24,0.74v0.56h1.13v0.7h-1.13v4.58H149.94z"/>
	<path class="st0" d="M152.97,58.95c0-0.15,0.04-0.27,0.13-0.37c0.09-0.1,0.22-0.15,0.4-0.15s0.31,0.05,0.4,0.15
		s0.14,0.22,0.14,0.37s-0.05,0.27-0.14,0.37s-0.22,0.15-0.4,0.15s-0.31-0.05-0.4-0.15C153.01,59.21,152.97,59.09,152.97,58.95z
		 M153.94,65.63h-0.9v-5.28h0.9V65.63z"/>
	<path class="st0" d="M157.94,61.16c-0.14-0.02-0.29-0.03-0.44-0.03c-0.59,0-0.99,0.25-1.21,0.76v3.75h-0.9v-5.28h0.88l0.01,0.61
		c0.3-0.47,0.72-0.71,1.26-0.71c0.18,0,0.31,0.02,0.4,0.07V61.16z"/>
	<path class="st0" d="M161.85,64.23c0-0.24-0.09-0.43-0.28-0.57c-0.18-0.13-0.5-0.25-0.96-0.35c-0.46-0.1-0.82-0.21-1.09-0.35
		c-0.27-0.14-0.47-0.3-0.6-0.49c-0.13-0.19-0.19-0.41-0.19-0.67c0-0.43,0.18-0.8,0.55-1.1c0.37-0.3,0.83-0.45,1.4-0.45
		c0.6,0,1.08,0.15,1.46,0.46c0.37,0.31,0.56,0.71,0.56,1.19h-0.91c0-0.25-0.1-0.46-0.32-0.64c-0.21-0.18-0.47-0.27-0.79-0.27
		c-0.33,0-0.59,0.07-0.77,0.21s-0.28,0.33-0.28,0.56c0,0.22,0.09,0.38,0.26,0.49s0.48,0.22,0.94,0.32c0.45,0.1,0.82,0.22,1.1,0.36
		s0.49,0.31,0.62,0.5c0.13,0.2,0.2,0.44,0.2,0.72c0,0.47-0.19,0.85-0.57,1.13c-0.38,0.29-0.87,0.43-1.47,0.43
		c-0.42,0-0.8-0.08-1.12-0.22s-0.58-0.36-0.76-0.63c-0.18-0.27-0.28-0.56-0.28-0.87h0.9c0.02,0.3,0.14,0.54,0.36,0.72
		c0.23,0.18,0.53,0.27,0.9,0.27c0.34,0,0.62-0.07,0.82-0.21C161.75,64.64,161.85,64.46,161.85,64.23z"/>
	<path class="st0" d="M165.16,59.07v1.28h0.99v0.7h-0.99v3.28c0,0.21,0.04,0.37,0.13,0.48c0.09,0.11,0.24,0.16,0.45,0.16
		c0.1,0,0.25-0.02,0.43-0.06v0.73c-0.24,0.06-0.47,0.1-0.69,0.1c-0.4,0-0.71-0.12-0.91-0.37s-0.31-0.59-0.31-1.04v-3.28h-0.96v-0.7
		h0.96v-1.28H165.16z"/>
	<path class="st0" d="M173.07,65.63h-1.65v-5.25l-1.62,0.47V59.6l3.12-1.08h0.15V65.63z"/>
	<path class="st0" d="M179.56,62.85h0.72v1.27h-0.72v1.51h-1.65v-1.51h-2.75l-0.1-1.01l2.85-4.58v-0.01h1.65V62.85z M176.63,62.85
		h1.28v-2.19l-0.1,0.17L176.63,62.85z"/>
	<path class="st0" d="M183.31,62.95c0-0.84,0.18-1.5,0.54-1.98s0.87-0.72,1.51-0.72c0.47,0,0.87,0.19,1.19,0.56v-2.68h1.65v7.5
		h-1.48l-0.08-0.57c-0.34,0.44-0.77,0.66-1.29,0.66c-0.63,0-1.13-0.24-1.49-0.72S183.31,63.84,183.31,62.95z M184.96,63.05
		c0,0.94,0.27,1.41,0.82,1.41c0.36,0,0.62-0.15,0.78-0.46v-2.01c-0.15-0.31-0.41-0.47-0.77-0.47c-0.51,0-0.78,0.41-0.83,1.23
		L184.96,63.05z"/>
	<path class="st0" d="M192.12,65.63c-0.06-0.11-0.11-0.27-0.16-0.47c-0.3,0.38-0.73,0.57-1.27,0.57c-0.5,0-0.92-0.15-1.27-0.45
		c-0.35-0.3-0.52-0.68-0.52-1.14c0-0.57,0.21-1.01,0.63-1.3s1.04-0.44,1.85-0.44h0.51v-0.28c0-0.49-0.21-0.73-0.63-0.73
		c-0.39,0-0.59,0.19-0.59,0.58h-1.65c0-0.51,0.22-0.92,0.65-1.24c0.44-0.32,0.99-0.48,1.66-0.48s1.21,0.16,1.6,0.49
		s0.59,0.78,0.6,1.35v2.34c0.01,0.49,0.08,0.86,0.22,1.11v0.08H192.12z M191.09,64.56c0.21,0,0.38-0.04,0.51-0.13
		c0.13-0.09,0.23-0.19,0.29-0.3v-0.84h-0.48c-0.57,0-0.86,0.26-0.86,0.77c0,0.15,0.05,0.27,0.15,0.36
		C190.81,64.51,190.94,64.56,191.09,64.56z"/>
	<path class="st0" d="M196.57,63.33l0.88-2.98h1.76l-2.15,6.17l-0.09,0.22c-0.31,0.68-0.85,1.03-1.62,1.03
		c-0.21,0-0.44-0.03-0.68-0.1v-1.17h0.21c0.23,0,0.41-0.03,0.53-0.1c0.12-0.07,0.21-0.19,0.27-0.36l0.13-0.35l-1.84-5.34h1.76
		L196.57,63.33z"/>
	<path class="st0" d="M202.4,64.15c0-0.14-0.07-0.25-0.22-0.34s-0.42-0.17-0.83-0.26s-0.75-0.21-1.02-0.36
		c-0.27-0.15-0.47-0.33-0.61-0.54s-0.21-0.45-0.21-0.73c0-0.49,0.2-0.88,0.6-1.2c0.4-0.31,0.92-0.47,1.57-0.47
		c0.7,0,1.26,0.16,1.68,0.47s0.63,0.73,0.63,1.25h-1.65c0-0.42-0.22-0.63-0.67-0.63c-0.17,0-0.32,0.05-0.43,0.14
		c-0.12,0.1-0.18,0.21-0.18,0.36c0,0.15,0.07,0.27,0.21,0.36s0.37,0.17,0.69,0.22c0.31,0.06,0.59,0.13,0.83,0.21
		c0.79,0.27,1.19,0.76,1.19,1.47c0,0.48-0.21,0.87-0.64,1.18c-0.43,0.3-0.98,0.45-1.66,0.45c-0.45,0-0.86-0.08-1.21-0.24
		s-0.63-0.38-0.83-0.66s-0.3-0.57-0.3-0.88h1.54c0.01,0.24,0.09,0.42,0.24,0.53c0.16,0.11,0.36,0.17,0.6,0.17
		c0.22,0,0.39-0.05,0.5-0.14C202.35,64.41,202.4,64.29,202.4,64.15z"/>
	<path class="st0" d="M205.01,67.05l-0.51-0.35c0.31-0.43,0.47-0.87,0.48-1.32v-0.82h0.88v0.71c0,0.33-0.08,0.66-0.24,0.99
		C205.46,66.58,205.25,66.85,205.01,67.05z M204.84,60.84c0-0.16,0.05-0.29,0.14-0.39c0.09-0.1,0.23-0.16,0.42-0.16
		s0.33,0.05,0.42,0.16c0.1,0.1,0.14,0.23,0.14,0.39c0,0.15-0.05,0.28-0.14,0.38c-0.1,0.1-0.24,0.15-0.42,0.15s-0.33-0.05-0.42-0.15
		C204.88,61.12,204.84,60.99,204.84,60.84z"/>
	<path class="st0" d="M210.65,62.85v2.78h-0.94v-7.11h2.62c0.78,0,1.39,0.2,1.83,0.6c0.44,0.4,0.66,0.92,0.66,1.58
		c0,0.69-0.22,1.22-0.65,1.59c-0.43,0.37-1.05,0.56-1.85,0.56H210.65z M210.65,62.08h1.68c0.5,0,0.89-0.12,1.15-0.35
		s0.4-0.58,0.4-1.03c0-0.42-0.13-0.76-0.4-1.02c-0.27-0.25-0.63-0.39-1.1-0.4h-1.74V62.08z"/>
	<path class="st0" d="M216.86,65.63h-0.9v-7.5h0.9V65.63z"/>
	<path class="st0" d="M221.57,65.63c-0.05-0.1-0.09-0.29-0.13-0.56c-0.42,0.44-0.92,0.65-1.5,0.65c-0.52,0-0.95-0.15-1.28-0.44
		c-0.33-0.29-0.5-0.67-0.5-1.12c0-0.55,0.21-0.98,0.63-1.28c0.42-0.3,1.01-0.46,1.76-0.46h0.88v-0.42c0-0.32-0.09-0.57-0.28-0.75
		c-0.19-0.19-0.47-0.28-0.83-0.28c-0.32,0-0.59,0.08-0.81,0.24s-0.33,0.36-0.33,0.59h-0.91c0-0.26,0.09-0.52,0.28-0.76
		c0.19-0.25,0.44-0.44,0.76-0.58c0.32-0.14,0.67-0.21,1.06-0.21c0.61,0,1.09,0.15,1.43,0.46c0.34,0.3,0.52,0.72,0.54,1.26v2.43
		c0,0.49,0.06,0.87,0.19,1.16v0.08H221.57z M220.07,64.94c0.28,0,0.55-0.07,0.81-0.22s0.44-0.34,0.55-0.57v-1.08h-0.71
		c-1.11,0-1.66,0.32-1.66,0.97c0,0.28,0.09,0.5,0.28,0.66S219.77,64.94,220.07,64.94z"/>
	<path class="st0" d="M224.6,60.35l0.03,0.66c0.4-0.51,0.93-0.76,1.58-0.76c1.12,0,1.68,0.63,1.69,1.89v3.49H227v-3.5
		c0-0.38-0.09-0.66-0.26-0.84c-0.17-0.18-0.44-0.27-0.8-0.27c-0.29,0-0.55,0.08-0.77,0.23s-0.39,0.36-0.52,0.62v3.76h-0.9v-5.28
		H224.6z"/>
	<path class="st0" d="M232.34,64.23c0-0.24-0.09-0.43-0.28-0.57c-0.18-0.13-0.5-0.25-0.96-0.35c-0.46-0.1-0.82-0.21-1.09-0.35
		c-0.27-0.14-0.47-0.3-0.6-0.49c-0.13-0.19-0.19-0.41-0.19-0.67c0-0.43,0.18-0.8,0.55-1.1c0.37-0.3,0.83-0.45,1.4-0.45
		c0.6,0,1.08,0.15,1.46,0.46c0.37,0.31,0.56,0.71,0.56,1.19h-0.91c0-0.25-0.1-0.46-0.32-0.64c-0.21-0.18-0.47-0.27-0.79-0.27
		c-0.33,0-0.59,0.07-0.77,0.21s-0.28,0.33-0.28,0.56c0,0.22,0.09,0.38,0.26,0.49s0.48,0.22,0.94,0.32c0.45,0.1,0.82,0.22,1.1,0.36
		s0.49,0.31,0.62,0.5c0.13,0.2,0.2,0.44,0.2,0.72c0,0.47-0.19,0.85-0.57,1.13c-0.38,0.29-0.87,0.43-1.47,0.43
		c-0.42,0-0.8-0.08-1.12-0.22s-0.58-0.36-0.76-0.63c-0.18-0.27-0.28-0.56-0.28-0.87h0.9c0.02,0.3,0.14,0.54,0.36,0.72
		c0.23,0.18,0.53,0.27,0.9,0.27c0.34,0,0.62-0.07,0.82-0.21C232.23,64.64,232.34,64.46,232.34,64.23z"/>
	<path class="st0" d="M240.16,65.63c-0.05-0.1-0.09-0.29-0.13-0.56c-0.42,0.44-0.92,0.65-1.5,0.65c-0.52,0-0.95-0.15-1.28-0.44
		c-0.33-0.29-0.5-0.67-0.5-1.12c0-0.55,0.21-0.98,0.63-1.28c0.42-0.3,1.01-0.46,1.76-0.46h0.88v-0.42c0-0.32-0.09-0.57-0.28-0.75
		c-0.19-0.19-0.47-0.28-0.83-0.28c-0.32,0-0.59,0.08-0.81,0.24s-0.33,0.36-0.33,0.59h-0.91c0-0.26,0.09-0.52,0.28-0.76
		c0.19-0.25,0.44-0.44,0.76-0.58c0.32-0.14,0.67-0.21,1.06-0.21c0.61,0,1.09,0.15,1.43,0.46c0.34,0.3,0.52,0.72,0.54,1.26v2.43
		c0,0.49,0.06,0.87,0.19,1.16v0.08H240.16z M238.66,64.94c0.28,0,0.55-0.07,0.81-0.22s0.44-0.34,0.55-0.57v-1.08h-0.71
		c-1.11,0-1.66,0.32-1.66,0.97c0,0.28,0.09,0.5,0.28,0.66S238.36,64.94,238.66,64.94z"/>
	<path class="st0" d="M244.89,61.16c-0.14-0.02-0.29-0.03-0.44-0.03c-0.59,0-0.99,0.25-1.21,0.76v3.75h-0.9v-5.28h0.88l0.01,0.61
		c0.3-0.47,0.72-0.71,1.26-0.71c0.18,0,0.31,0.02,0.4,0.07V61.16z"/>
	<path class="st0" d="M247.91,65.73c-0.72,0-1.3-0.24-1.75-0.71c-0.45-0.47-0.67-1.1-0.67-1.89v-0.17c0-0.52,0.1-0.99,0.3-1.4
		c0.2-0.41,0.48-0.73,0.84-0.97c0.36-0.23,0.75-0.35,1.17-0.35c0.69,0,1.22,0.23,1.6,0.68s0.57,1.1,0.57,1.94v0.38h-3.58
		c0.01,0.52,0.17,0.94,0.46,1.26c0.29,0.32,0.66,0.48,1.11,0.48c0.32,0,0.59-0.07,0.81-0.2s0.42-0.3,0.58-0.52l0.55,0.43
		C249.46,65.39,248.79,65.73,247.91,65.73z M247.8,60.99c-0.36,0-0.67,0.13-0.92,0.4c-0.25,0.26-0.4,0.64-0.46,1.12h2.65v-0.07
		c-0.03-0.46-0.15-0.81-0.37-1.07C248.47,61.12,248.17,60.99,247.8,60.99z"/>
	<path class="st0" d="M256.52,63.75c0-0.26-0.06-0.46-0.19-0.61s-0.35-0.29-0.67-0.42s-0.61-0.26-0.88-0.4s-0.5-0.29-0.7-0.46
		s-0.34-0.38-0.45-0.61s-0.16-0.51-0.16-0.84c0-0.55,0.19-1,0.56-1.36c0.37-0.36,0.87-0.56,1.48-0.62V57.4h0.78v1.05
		c0.6,0.09,1.06,0.33,1.4,0.73c0.34,0.4,0.51,0.91,0.51,1.53h-1.65c0-0.34-0.07-0.6-0.2-0.78s-0.32-0.27-0.56-0.27
		c-0.21,0-0.38,0.07-0.5,0.2c-0.12,0.13-0.18,0.32-0.18,0.56c0,0.24,0.07,0.43,0.21,0.57c0.14,0.14,0.36,0.28,0.66,0.4
		c0.3,0.13,0.59,0.26,0.86,0.4c0.27,0.14,0.5,0.3,0.7,0.47s0.35,0.38,0.46,0.62s0.17,0.52,0.17,0.84c0,0.56-0.18,1.01-0.53,1.36
		c-0.35,0.35-0.83,0.56-1.44,0.62v0.98h-0.78v-0.99c-0.71-0.08-1.25-0.32-1.63-0.73c-0.38-0.41-0.57-0.95-0.57-1.63h1.65
		c0,0.37,0.08,0.65,0.25,0.85c0.17,0.19,0.4,0.29,0.7,0.29c0.22,0,0.4-0.07,0.52-0.2C256.45,64.16,256.52,63.98,256.52,63.75z"/>
	<path class="st0" d="M262.27,62.88c-0.35,0.32-0.75,0.48-1.19,0.48c-0.64,0-1.16-0.22-1.53-0.65s-0.57-1.02-0.57-1.75
		c0-0.46,0.11-0.88,0.32-1.27s0.51-0.7,0.89-0.93c0.38-0.23,0.81-0.34,1.27-0.34c0.47,0,0.89,0.12,1.27,0.35
		c0.38,0.24,0.67,0.57,0.89,1c0.21,0.43,0.32,0.93,0.33,1.49v0.63c0,0.78-0.15,1.46-0.46,2.04c-0.31,0.58-0.75,1.02-1.32,1.33
		s-1.23,0.46-1.99,0.46h-0.1v-1.32l0.31,0C261.52,64.35,262.15,63.84,262.27,62.88z M261.53,62.17c0.36,0,0.62-0.15,0.77-0.46v-0.68
		c0-0.46-0.08-0.79-0.23-1.01s-0.36-0.33-0.62-0.33c-0.23,0-0.42,0.12-0.58,0.37s-0.23,0.55-0.23,0.9c0,0.37,0.08,0.67,0.24,0.89
		C261.03,62.06,261.25,62.17,261.53,62.17z"/>
	<path class="st0" d="M265.87,64.03c0.26,0,0.48,0.08,0.65,0.23c0.17,0.16,0.26,0.35,0.26,0.59s-0.09,0.44-0.26,0.59
		c-0.17,0.15-0.39,0.23-0.65,0.23c-0.26,0-0.48-0.08-0.65-0.23c-0.17-0.16-0.26-0.35-0.26-0.59s0.08-0.43,0.26-0.59
		C265.39,64.11,265.6,64.03,265.87,64.03z"/>
	<path class="st0" d="M271.09,62.88c-0.35,0.32-0.75,0.48-1.19,0.48c-0.64,0-1.16-0.22-1.53-0.65s-0.57-1.02-0.57-1.75
		c0-0.46,0.11-0.88,0.32-1.27s0.51-0.7,0.89-0.93c0.38-0.23,0.81-0.34,1.27-0.34c0.47,0,0.89,0.12,1.27,0.35
		c0.38,0.24,0.67,0.57,0.89,1c0.21,0.43,0.32,0.93,0.33,1.49v0.63c0,0.78-0.15,1.46-0.46,2.04c-0.31,0.58-0.75,1.02-1.32,1.33
		s-1.23,0.46-1.99,0.46h-0.1v-1.32l0.31,0C270.33,64.35,270.96,63.84,271.09,62.88z M270.34,62.17c0.36,0,0.62-0.15,0.77-0.46v-0.68
		c0-0.46-0.08-0.79-0.23-1.01s-0.36-0.33-0.62-0.33c-0.23,0-0.42,0.12-0.58,0.37s-0.23,0.55-0.23,0.9c0,0.37,0.08,0.67,0.24,0.89
		C269.85,62.06,270.06,62.17,270.34,62.17z"/>
	<path class="st0" d="M276.88,62.88c-0.35,0.32-0.75,0.48-1.19,0.48c-0.64,0-1.16-0.22-1.53-0.65s-0.57-1.02-0.57-1.75
		c0-0.46,0.11-0.88,0.32-1.27s0.51-0.7,0.89-0.93c0.38-0.23,0.81-0.34,1.27-0.34c0.47,0,0.89,0.12,1.27,0.35
		c0.38,0.24,0.67,0.57,0.89,1c0.21,0.43,0.32,0.93,0.33,1.49v0.63c0,0.78-0.15,1.46-0.46,2.04c-0.31,0.58-0.75,1.02-1.32,1.33
		s-1.23,0.46-1.99,0.46h-0.1v-1.32l0.31,0C276.12,64.35,276.75,63.84,276.88,62.88z M276.13,62.17c0.36,0,0.62-0.15,0.77-0.46v-0.68
		c0-0.46-0.08-0.79-0.23-1.01s-0.36-0.33-0.62-0.33c-0.23,0-0.42,0.12-0.58,0.37s-0.23,0.55-0.23,0.9c0,0.37,0.08,0.67,0.24,0.89
		C275.64,62.06,275.86,62.17,276.13,62.17z"/>
	<path class="st0" d="M283.39,59.07v1.28h0.99v0.7h-0.99v3.28c0,0.21,0.04,0.37,0.13,0.48c0.09,0.11,0.24,0.16,0.45,0.16
		c0.1,0,0.25-0.02,0.43-0.06v0.73c-0.24,0.06-0.47,0.1-0.69,0.1c-0.4,0-0.71-0.12-0.91-0.37s-0.31-0.59-0.31-1.04v-3.28h-0.96v-0.7
		h0.96v-1.28H283.39z"/>
	<path class="st0" d="M285.1,62.94c0-0.52,0.1-0.98,0.31-1.4c0.2-0.41,0.49-0.73,0.85-0.96c0.36-0.22,0.78-0.34,1.24-0.34
		c0.72,0,1.3,0.25,1.75,0.75c0.44,0.5,0.67,1.16,0.67,1.99v0.06c0,0.51-0.1,0.98-0.29,1.38c-0.2,0.41-0.48,0.73-0.85,0.96
		c-0.37,0.23-0.79,0.34-1.26,0.34c-0.72,0-1.3-0.25-1.74-0.75c-0.45-0.5-0.67-1.16-0.67-1.98V62.94z M286,63.05
		c0,0.59,0.14,1.06,0.41,1.41c0.27,0.35,0.64,0.53,1.09,0.53c0.46,0,0.82-0.18,1.09-0.54c0.27-0.36,0.41-0.86,0.41-1.51
		c0-0.58-0.14-1.05-0.41-1.41c-0.27-0.36-0.64-0.54-1.1-0.54c-0.45,0-0.81,0.18-1.08,0.53S286,62.39,286,63.05z"/>
	<path class="st0" d="M296.56,63.75c0-0.26-0.06-0.46-0.19-0.61s-0.35-0.29-0.67-0.42s-0.61-0.26-0.88-0.4s-0.5-0.29-0.7-0.46
		s-0.34-0.38-0.45-0.61s-0.16-0.51-0.16-0.84c0-0.55,0.19-1,0.56-1.36c0.37-0.36,0.87-0.56,1.48-0.62V57.4h0.78v1.05
		c0.6,0.09,1.06,0.33,1.4,0.73c0.34,0.4,0.51,0.91,0.51,1.53h-1.65c0-0.34-0.07-0.6-0.2-0.78s-0.32-0.27-0.56-0.27
		c-0.21,0-0.38,0.07-0.5,0.2c-0.12,0.13-0.18,0.32-0.18,0.56c0,0.24,0.07,0.43,0.21,0.57c0.14,0.14,0.36,0.28,0.66,0.4
		c0.3,0.13,0.59,0.26,0.86,0.4c0.27,0.14,0.5,0.3,0.7,0.47s0.35,0.38,0.46,0.62s0.17,0.52,0.17,0.84c0,0.56-0.18,1.01-0.53,1.36
		c-0.35,0.35-0.83,0.56-1.44,0.62v0.98h-0.78v-0.99c-0.71-0.08-1.25-0.32-1.63-0.73c-0.38-0.41-0.57-0.95-0.57-1.63h1.65
		c0,0.37,0.08,0.65,0.25,0.85c0.17,0.19,0.4,0.29,0.7,0.29c0.22,0,0.4-0.07,0.52-0.2C296.49,64.16,296.56,63.98,296.56,63.75z"/>
	<path class="st0" d="M304.03,65.63h-4.96v-1.07l2.29-2.4c0.56-0.64,0.84-1.15,0.84-1.53c0-0.31-0.07-0.54-0.2-0.7
		s-0.33-0.24-0.58-0.24c-0.25,0-0.45,0.11-0.61,0.32c-0.16,0.21-0.23,0.48-0.23,0.8h-1.65c0-0.44,0.11-0.84,0.33-1.21
		c0.22-0.37,0.52-0.66,0.91-0.87s0.82-0.31,1.3-0.31c0.77,0,1.36,0.18,1.78,0.53c0.41,0.35,0.62,0.86,0.62,1.53
		c0,0.28-0.05,0.55-0.16,0.82c-0.1,0.27-0.27,0.54-0.49,0.84c-0.22,0.29-0.57,0.68-1.06,1.17l-0.92,1.06h2.8V65.63z"/>
	<path class="st0" d="M309.21,62.85h0.72v1.27h-0.72v1.51h-1.65v-1.51h-2.75l-0.1-1.01l2.85-4.58v-0.01h1.65V62.85z M306.28,62.85
		h1.28v-2.19l-0.1,0.17L306.28,62.85z"/>
	<path class="st0" d="M311.7,64.03c0.26,0,0.48,0.08,0.65,0.23c0.17,0.16,0.26,0.35,0.26,0.59s-0.09,0.44-0.26,0.59
		c-0.17,0.15-0.39,0.23-0.65,0.23c-0.26,0-0.48-0.08-0.65-0.23c-0.17-0.16-0.26-0.35-0.26-0.59s0.08-0.43,0.26-0.59
		C311.22,64.11,311.43,64.03,311.7,64.03z"/>
	<path class="st0" d="M316.92,62.88c-0.35,0.32-0.75,0.48-1.19,0.48c-0.64,0-1.16-0.22-1.53-0.65s-0.57-1.02-0.57-1.75
		c0-0.46,0.11-0.88,0.32-1.27s0.51-0.7,0.89-0.93c0.38-0.23,0.81-0.34,1.27-0.34c0.47,0,0.89,0.12,1.27,0.35
		c0.38,0.24,0.67,0.57,0.89,1c0.21,0.43,0.32,0.93,0.33,1.49v0.63c0,0.78-0.15,1.46-0.46,2.04c-0.31,0.58-0.75,1.02-1.32,1.33
		s-1.23,0.46-1.99,0.46h-0.1v-1.32l0.31,0C316.16,64.35,316.79,63.84,316.92,62.88z M316.17,62.17c0.36,0,0.62-0.15,0.77-0.46v-0.68
		c0-0.46-0.08-0.79-0.23-1.01s-0.36-0.33-0.62-0.33c-0.23,0-0.42,0.12-0.58,0.37s-0.23,0.55-0.23,0.9c0,0.37,0.08,0.67,0.24,0.89
		C315.68,62.06,315.89,62.17,316.17,62.17z"/>
	<path class="st0" d="M322.71,62.88c-0.35,0.32-0.75,0.48-1.19,0.48c-0.64,0-1.16-0.22-1.53-0.65s-0.57-1.02-0.57-1.75
		c0-0.46,0.11-0.88,0.32-1.27s0.51-0.7,0.89-0.93c0.38-0.23,0.81-0.34,1.27-0.34c0.47,0,0.89,0.12,1.27,0.35
		c0.38,0.24,0.67,0.57,0.89,1c0.21,0.43,0.32,0.93,0.33,1.49v0.63c0,0.78-0.15,1.46-0.46,2.04c-0.31,0.58-0.75,1.02-1.32,1.33
		s-1.23,0.46-1.99,0.46h-0.1v-1.32l0.31,0C321.95,64.35,322.58,63.84,322.71,62.88z M321.96,62.17c0.36,0,0.62-0.15,0.77-0.46v-0.68
		c0-0.46-0.08-0.79-0.23-1.01s-0.36-0.33-0.62-0.33c-0.23,0-0.42,0.12-0.58,0.37s-0.23,0.55-0.23,0.9c0,0.37,0.08,0.67,0.24,0.89
		C321.47,62.06,321.69,62.17,321.96,62.17z"/>
	<path class="st0" d="M325.85,66.24h-1.17l2.43-7.72h1.17L325.85,66.24z"/>
	<path class="st0" d="M330.35,60.35l0.05,0.62c0.37-0.48,0.88-0.72,1.51-0.72c0.67,0,1.12,0.27,1.35,0.8
		c0.36-0.53,0.88-0.8,1.55-0.8c1.07,0,1.62,0.65,1.65,1.94v3.44h-1.65v-3.33c0-0.27-0.05-0.47-0.14-0.59s-0.26-0.19-0.5-0.19
		c-0.33,0-0.57,0.14-0.73,0.43l0,0.07v3.61h-1.65V62.3c0-0.28-0.04-0.48-0.13-0.6s-0.26-0.19-0.5-0.19c-0.32,0-0.56,0.14-0.72,0.43
		v3.68h-1.65v-5.28H330.35z"/>
	<path class="st0" d="M337.2,62.94c0-0.53,0.1-1,0.31-1.41c0.21-0.41,0.5-0.73,0.88-0.95s0.83-0.33,1.35-0.33
		c0.79,0,1.41,0.25,1.87,0.73c0.46,0.49,0.68,1.16,0.68,2v0.06c0,0.82-0.23,1.48-0.69,1.96c-0.46,0.48-1.08,0.72-1.86,0.72
		c-0.75,0-1.36-0.23-1.81-0.68c-0.46-0.45-0.7-1.06-0.74-1.83L337.2,62.94z M338.85,63.04c0,0.49,0.08,0.85,0.23,1.07
		s0.38,0.34,0.68,0.34c0.59,0,0.89-0.45,0.9-1.35v-0.17c0-0.95-0.3-1.42-0.91-1.42c-0.55,0-0.85,0.41-0.89,1.23L338.85,63.04z"/>
	<path class="st0" d="M344.54,60.35l0.05,0.62c0.36-0.48,0.87-0.72,1.51-0.72c0.55,0,0.96,0.16,1.23,0.49
		c0.27,0.33,0.41,0.82,0.42,1.48v3.4h-1.65v-3.33c0-0.27-0.05-0.46-0.16-0.59c-0.11-0.12-0.3-0.19-0.59-0.19
		c-0.32,0-0.56,0.13-0.72,0.38v3.73h-1.65v-5.28H344.54z"/>
	<path class="st0" d="M350.58,59.03v1.31h0.87v1.14h-0.87v2.42c0,0.2,0.04,0.34,0.11,0.42s0.21,0.12,0.42,0.12
		c0.16,0,0.3-0.01,0.41-0.03v1.18c-0.3,0.09-0.61,0.14-0.93,0.14c-0.57,0-0.98-0.13-1.25-0.4s-0.41-0.67-0.41-1.22v-2.62h-0.67
		v-1.14h0.67v-1.31H350.58z"/>
	<path class="st0" d="M353.71,60.91c0.35-0.44,0.8-0.66,1.35-0.66c0.58,0,1.02,0.17,1.32,0.52s0.45,0.85,0.45,1.53v3.33h-1.65v-3.3
		c0-0.28-0.06-0.49-0.17-0.62c-0.11-0.13-0.31-0.2-0.58-0.2c-0.34,0-0.58,0.11-0.72,0.32v3.79h-1.65v-7.5h1.65V60.91z"/>
</g>
</svg>
