<svg id="Layer_1" xmlns="http://www.w3.org/2000/svg" viewBox="0 0 300 600"><style>.st0{fill:#2a3380}</style><path class="st0" d="M80.8 210.9h-5v4.6h5.7v.4h-6.1v-10h6.1v.4h-5.7v4.3h5v.3zM83.6 210.1c.2-.6.6-1 1.1-1.4s1-.5 1.6-.5c.8 0 1.4.2 1.8.7.4.4.6 1.1.6 2v4.8h-.4V211c0-.8-.2-1.4-.5-1.8s-.8-.6-1.5-.6c-.6 0-1.2.2-1.7.7-.5.5-.8 1-.9 1.8v4.7h-.4v-7.4h.4v1.7zM94.2 208.7h-.5c-.6 0-1.2.2-1.6.6-.4.4-.7 1-.8 1.7v4.8h-.4v-7.4h.4v1.5c.2-.5.5-.9.9-1.2s.9-.5 1.5-.5c.2 0 .4 0 .5.1v.4zM94.9 212c0-.7.1-1.3.4-1.9.3-.6.7-1 1.1-1.3.5-.3 1.1-.5 1.7-.5.6 0 1.2.2 1.7.5s.9.7 1.2 1.3c.3.6.4 1.2.4 1.9v.3c0 .7-.1 1.3-.4 1.9s-.7 1-1.1 1.3c-.5.3-1.1.5-1.7.5s-1.2-.2-1.7-.5-.9-.7-1.2-1.3-.4-1.2-.4-1.9v-.3zm.4.2c0 .6.1 1.2.4 1.7.2.5.6.9 1 1.2.4.3.9.4 1.5.4.8 0 1.5-.3 2.1-1 .5-.6.8-1.4.8-2.4v-.1c0-.6-.1-1.2-.4-1.7s-.6-.9-1-1.2c-.4-.3-.9-.4-1.5-.4-.8 0-1.5.3-2.1 1s-.8 1.5-.8 2.4v.1zM103.6 215.8h-.4v-10.5h.4v10.5zM106.5 215.8h-.4v-10.5h.4v10.5zM112.2 206.1c0-.1 0-.2.1-.3s.2-.1.3-.1.2 0 .3.1c.1.1.1.2.1.3s0 .2-.1.3c-.1.1-.2.1-.3.1s-.2 0-.3-.1-.1-.2-.1-.3zm.5 9.7h-.4v-7.4h.4v7.4zM115.5 210.1c.2-.6.6-1 1.1-1.4s1-.5 1.6-.5c.8 0 1.4.2 1.8.7.4.4.6 1.1.6 2v4.8h-.4V211c0-.8-.2-1.4-.5-1.8s-.8-.6-1.5-.6c-.6 0-1.2.2-1.7.7-.5.5-.8 1-.9 1.8v4.7h-.4v-7.4h.4v1.7zM126.7 211.6v4.2h-.4v-10h3.1c1 0 1.8.3 2.4.8.6.5.8 1.2.8 2.1 0 .9-.3 1.6-.8 2.1s-1.3.7-2.3.8h-2.8zm0-.4h2.7c.9 0 1.6-.2 2.1-.6.5-.4.7-1 .7-1.8s-.2-1.4-.7-1.9c-.5-.4-1.2-.7-2.1-.7h-2.7v5zM137.8 208.7h-.5c-.6 0-1.2.2-1.6.6-.4.4-.7 1-.8 1.7v4.8h-.4v-7.4h.4v1.5c.2-.5.5-.9.9-1.2s.9-.5 1.5-.5c.2 0 .4 0 .5.1v.4zM139.2 206.1c0-.1 0-.2.1-.3s.2-.1.3-.1.2 0 .3.1c.1.1.1.2.1.3s0 .2-.1.3c-.1.1-.2.1-.3.1s-.2 0-.3-.1-.1-.2-.1-.3zm.5 9.7h-.4v-7.4h.4v7.4zM144.3 215.2l2.7-6.8h.4l-2.9 7.4h-.4l-2.9-7.4h.4l2.7 6.8zM153.5 215.8c-.1-.3-.1-.8-.1-1.4-.3.5-.7.8-1.2 1.1s-1.1.4-1.7.4c-.7 0-1.2-.2-1.7-.6-.4-.4-.6-.9-.6-1.5 0-.7.3-1.2.9-1.6.6-.4 1.4-.6 2.4-.6h1.8v-1.1c0-.6-.2-1.1-.6-1.4-.4-.3-.9-.5-1.7-.5-.7 0-1.2.2-1.7.5s-.7.8-.7 1.3h-.4c0-.6.3-1.1.8-1.5s1.2-.6 1.9-.6c.8 0 1.4.2 1.9.6s.7 1 .7 1.7v3.5c0 .8.1 1.4.2 1.7v.1h-.2zm-3-.2c.7 0 1.3-.2 1.8-.5s.9-.7 1.1-1.3V212h-1.7c-1.1 0-1.9.2-2.4.6-.5.3-.7.8-.7 1.3s.2.8.5 1.1.8.6 1.4.6zM158.6 215.6c.7 0 1.2-.2 1.7-.5.4-.4.7-.8.7-1.5h.4c0 .7-.3 1.3-.8 1.7s-1.2.7-1.9.7c-.9 0-1.7-.3-2.2-1-.5-.7-.8-1.6-.8-2.7v-.3c0-1.1.3-2 .8-2.7.5-.7 1.3-1 2.2-1 .8 0 1.4.2 1.9.7s.8 1.1.8 1.9h-.4c0-.7-.3-1.2-.7-1.6-.4-.4-1-.6-1.7-.6-.8 0-1.5.3-1.9.9-.5.6-.7 1.4-.7 2.5v.2c0 1 .2 1.8.7 2.4.5.6 1.1.9 1.9.9zM165.5 215.2v-.1l2.6-6.7h.4l-3.3 8.7-.2.4c-.4.9-.9 1.3-1.8 1.3-.3 0-.4 0-.5-.1v-.4c.1 0 .3.1.5.1.4 0 .7-.1 1-.3.3-.2.5-.6.7-1.1l.5-1.2-2.9-7.4h.4l2.6 6.8zM177.1 214.7c-.3.3-.7.6-1.3.9s-1.3.3-2.1.3c-.7 0-1.4-.2-2-.5s-1-.9-1.4-1.5c-.3-.7-.5-1.4-.5-2.2V210c0-.8.2-1.5.5-2.2s.8-1.1 1.3-1.5 1.2-.5 1.9-.5c1 0 1.8.3 2.4.8.6.5 1 1.2 1.1 2.1h-.4c-.1-.8-.5-1.4-1-1.8s-1.3-.6-2.1-.6c-1 0-1.8.4-2.4 1.1s-.9 1.7-.9 2.8v1.6c0 .8.1 1.5.4 2.1.3.6.7 1.1 1.2 1.4.5.3 1.1.5 1.8.5s1.3-.1 1.9-.3 1-.4 1.2-.7v-2.9h-3v-.4h3.4v3.2zM184.5 215.8v-1.2c-.2.4-.5.7-1 1s-1 .4-1.6.4c-.8 0-1.4-.2-1.8-.7-.4-.5-.6-1.2-.6-2.1v-4.8h.4v4.8c0 .8.2 1.4.5 1.8s.9.6 1.5.6c.7 0 1.3-.2 1.7-.5s.7-.8.8-1.5v-5.2h.4v7.4h-.3zM192 215.8c-.1-.3-.1-.8-.1-1.4-.3.5-.7.8-1.2 1.1s-1.1.4-1.7.4c-.7 0-1.2-.2-1.7-.6-.4-.4-.6-.9-.6-1.5 0-.7.3-1.2.9-1.6.6-.4 1.4-.6 2.4-.6h1.8v-1.1c0-.6-.2-1.1-.6-1.4-.4-.3-.9-.5-1.7-.5-.7 0-1.2.2-1.7.5s-.7.8-.7 1.3h-.4c0-.6.3-1.1.8-1.5s1.2-.6 1.9-.6c.8 0 1.4.2 1.9.6s.7 1 .7 1.7v3.5c0 .8.1 1.4.2 1.7v.1h-.2zm-3.1-.2c.7 0 1.3-.2 1.8-.5s.9-.7 1.1-1.3V212h-1.7c-1.1 0-1.9.2-2.4.6-.5.3-.7.8-.7 1.3s.2.8.5 1.1.9.6 1.4.6zM197.8 208.7h-.5c-.6 0-1.2.2-1.6.6-.4.4-.7 1-.8 1.7v4.8h-.4v-7.4h.4v1.5c.2-.5.5-.9.9-1.2s.9-.5 1.5-.5c.2 0 .4 0 .5.1v.4zM198.9 212c0-1.2.2-2.1.7-2.8s1.2-1 2-1c.6 0 1 .1 1.5.4.4.3.8.6 1 1.1v-4.5h.4v10.5h-.4v-1.2c-.3.4-.6.7-1 1s-.9.3-1.5.3c-.9 0-1.5-.3-2-1s-.7-1.5-.7-2.8zm.4.2c0 1 .2 1.9.6 2.5s1 .9 1.8.9c.6 0 1.1-.1 1.6-.4s.8-.7 1-1.2v-3.5c-.4-1.2-1.3-1.9-2.5-1.9-.8 0-1.3.3-1.8.9-.5.6-.7 1.5-.7 2.7zM210.8 215.8v-7h-1.3v-.4h1.3v-1.1c0-.7.2-1.2.5-1.6.3-.4.8-.6 1.4-.6.3 0 .6 0 .9.1l-.1.4c-.2-.1-.5-.1-.8-.1-.5 0-.9.2-1.2.5-.3.3-.4.8-.4 1.4v1.1h2v.4h-2v7h-.3zM214.1 212c0-.7.1-1.3.4-1.9.3-.6.7-1 1.1-1.3.5-.3 1.1-.5 1.7-.5.6 0 1.2.2 1.7.5s.9.7 1.2 1.3c.3.6.4 1.2.4 1.9v.3c0 .7-.1 1.3-.4 1.9s-.7 1-1.1 1.3c-.5.3-1.1.5-1.7.5s-1.2-.2-1.7-.5-.9-.7-1.2-1.3-.4-1.2-.4-1.9v-.3zm.4.2c0 .6.1 1.2.4 1.7.2.5.6.9 1 1.2.4.3.9.4 1.5.4.8 0 1.5-.3 2.1-1 .5-.6.8-1.4.8-2.4v-.1c0-.6-.1-1.2-.4-1.7s-.6-.9-1-1.2c-.4-.3-.9-.4-1.5-.4-.8 0-1.5.3-2.1 1s-.8 1.5-.8 2.4v.1zM225.7 208.7h-.5c-.6 0-1.2.2-1.6.6-.4.4-.7 1-.8 1.7v4.8h-.4v-7.4h.4v1.5c.2-.5.5-.9.9-1.2s.9-.5 1.5-.5c.2 0 .4 0 .5.1v.4zM88.2 232.6h-6v-.4l3.4-3.9c.6-.7 1-1.2 1.2-1.7.3-.5.4-1 .4-1.4 0-.7-.2-1.3-.6-1.7s-1-.6-1.8-.6c-.5 0-.9.1-1.3.3s-.7.5-.9.9c-.2.4-.3.8-.3 1.3H82c0-.5.1-1 .4-1.5s.6-.8 1-1.1.9-.4 1.5-.4c.9 0 1.6.2 2.1.7s.7 1.1.7 2c0 .8-.4 1.7-1.3 2.8l-.6.8-3 3.5h5.5v.4zM94.6 229.5h1.7v.4h-1.7v2.7h-.4v-2.7h-4.8v-.2l4.8-7h.4v6.8zm-4.6 0h4.3v-6.4l-.6.9-3.7 5.5zM97.2 233.5h-.4l4.2-10.8h.4l-4.2 10.8zM108.8 222.9l-4.4 9.7h-.4l4.3-9.6h-5.9v-.4h6.4v.3zM116.6 232.4c.7 0 1.2-.2 1.7-.5.4-.4.7-.8.7-1.5h.4c0 .7-.3 1.3-.8 1.7s-1.2.7-1.9.7c-.9 0-1.7-.3-2.2-1-.5-.7-.8-1.6-.8-2.7v-.2c0-1.1.3-2 .8-2.7.5-.7 1.3-1 2.2-1 .8 0 1.4.2 1.9.7s.8 1.1.8 1.9h-.4c0-.7-.3-1.2-.7-1.6-.4-.4-1-.6-1.7-.6-.8 0-1.5.3-1.9.9-.5.6-.7 1.4-.7 2.5v.2c0 1 .2 1.8.7 2.4.4.5 1.1.8 1.9.8zM124.4 225.5h-.5c-.6 0-1.2.2-1.6.6-.4.4-.7 1-.8 1.7v4.8h-.4v-7.4h.4v1.5c.2-.5.5-.9.9-1.2s.9-.5 1.5-.5c.2 0 .4 0 .5.1v.4zM128.5 232.7c-.6 0-1.1-.2-1.6-.5s-.9-.8-1.2-1.3-.4-1.2-.4-1.9v-.3c0-.7.1-1.3.4-1.9s.6-1 1.1-1.3 1-.5 1.6-.5c.8 0 1.5.3 2 .9s.8 1.4.8 2.3v.4h-5.5v.4c0 .6.1 1.2.4 1.7.3.5.6.9 1 1.2.4.3.9.4 1.4.4.5 0 .9-.1 1.3-.2.3-.2.7-.4.9-.8l.3.2c-.6.8-1.4 1.2-2.5 1.2zm-.1-7.3c-.7 0-1.3.3-1.8.8s-.8 1.2-.9 2h5.2v-.1c0-.5-.1-1-.3-1.4-.2-.4-.5-.8-.9-1-.4-.1-.9-.3-1.3-.3zM132.6 228.8c0-1.2.2-2.1.7-2.8s1.2-1 2-1c.6 0 1 .1 1.5.4.4.3.8.6 1 1.1V222h.4v10.5h-.4v-1.2c-.3.4-.6.7-1 1s-.9.3-1.5.3c-.9 0-1.5-.3-2-1s-.7-1.5-.7-2.8zm.4.2c0 1 .2 1.9.6 2.5s1 .9 1.8.9c.6 0 1.1-.1 1.6-.4s.8-.7 1-1.2v-3.5c-.4-1.2-1.3-1.9-2.5-1.9-.8 0-1.3.3-1.8.9-.5.6-.7 1.5-.7 2.7zM140.5 222.9c0-.1 0-.2.1-.3s.2-.1.3-.1.2 0 .3.1c.1.1.1.2.1.3s0 .2-.1.3c-.1.1-.2.1-.3.1s-.2 0-.3-.1-.1-.2-.1-.3zm.5 9.7h-.4v-7.4h.4v7.4zM144.3 223.2v2h1.7v.4h-1.7v5.3c0 .5.1.9.3 1.2.2.3.5.4.9.4.2 0 .4 0 .7-.1l.1.3c-.2.1-.4.1-.8.1-.5 0-.9-.1-1.2-.4s-.4-.8-.4-1.4v-5.3h-1.4v-.4h1.4v-2h.4zM156.5 232.6h-.4v-5c0-.7-.2-1.3-.5-1.7-.3-.4-.8-.5-1.5-.5-.8 0-1.5.4-2 1.1-.3.4-.5.9-.6 1.4v4.7h-.4v-7.4h.4v1.8c.3-.6.6-1.1 1.1-1.4s1-.5 1.5-.5c.6 0 1.1.1 1.5.4.4.3.7.7.8 1.3.2-.5.6-1 1.1-1.3s1-.5 1.7-.5c.8 0 1.4.2 1.8.7.4.5.6 1.1.6 2v4.8h-.4v-4.8c0-.8-.2-1.4-.5-1.8-.3-.4-.8-.6-1.5-.6-.9 0-1.6.4-2.1 1.1-.3.4-.5.8-.5 1.2v5zM163.2 228.8c0-.7.1-1.3.4-1.9.3-.6.7-1 1.1-1.3.5-.3 1.1-.5 1.7-.5.6 0 1.2.2 1.7.5s.9.7 1.2 1.3c.3.6.4 1.2.4 1.9v.3c0 .7-.1 1.3-.4 1.9s-.7 1-1.1 1.3c-.5.3-1.1.5-1.7.5s-1.2-.2-1.7-.5-.9-.7-1.2-1.3-.4-1.2-.4-1.9v-.3zm.4.2c0 .6.1 1.2.4 1.7.2.5.6.9 1 1.2.4.3.9.4 1.5.4.8 0 1.5-.3 2.1-1 .5-.6.8-1.4.8-2.4v-.2c0-.6-.1-1.2-.4-1.7s-.6-.9-1-1.2c-.4-.3-.9-.4-1.5-.4-.8 0-1.5.3-2.1 1s-.8 1.5-.8 2.4v.2zM171.9 226.9c.2-.6.6-1 1.1-1.4s1-.5 1.6-.5c.8 0 1.4.2 1.8.7.4.4.6 1.1.6 2v4.8h-.4v-4.8c0-.8-.2-1.4-.5-1.8s-.8-.6-1.5-.6c-.6 0-1.2.2-1.7.7-.5.5-.8 1-.9 1.8v4.7h-.4v-7.4h.4v1.8zM179.1 222.9c0-.1 0-.2.1-.3s.2-.1.3-.1.2 0 .3.1c.1.1.1.2.1.3s0 .2-.1.3c-.1.1-.2.1-.3.1s-.2 0-.3-.1-.1-.2-.1-.3zm.5 9.7h-.4v-7.4h.4v7.4zM182.9 223.2v2h1.7v.4h-1.7v5.3c0 .5.1.9.3 1.2.2.3.5.4.9.4.2 0 .4 0 .7-.1l.1.3c-.2.1-.4.1-.8.1-.5 0-.9-.1-1.2-.4s-.4-.8-.4-1.4v-5.3h-1.4v-.4h1.4v-2h.4zM185.8 228.8c0-.7.1-1.3.4-1.9.3-.6.7-1 1.1-1.3.5-.3 1.1-.5 1.7-.5.6 0 1.2.2 1.7.5s.9.7 1.2 1.3c.3.6.4 1.2.4 1.9v.3c0 .7-.1 1.3-.4 1.9s-.7 1-1.1 1.3c-.5.3-1.1.5-1.7.5s-1.2-.2-1.7-.5-.9-.7-1.2-1.3-.4-1.2-.4-1.9v-.3zm.4.2c0 .6.1 1.2.4 1.7.2.5.6.9 1 1.2.4.3.9.4 1.5.4.8 0 1.5-.3 2.1-1 .5-.6.8-1.4.8-2.4v-.2c0-.6-.1-1.2-.4-1.7s-.6-.9-1-1.2c-.4-.3-.9-.4-1.5-.4-.8 0-1.5.3-2.1 1s-.8 1.5-.8 2.4v.2zM197.3 225.5h-.5c-.6 0-1.2.2-1.6.6-.4.4-.7 1-.8 1.7v4.8h-.4v-7.4h.4v1.5c.2-.5.5-.9.9-1.2s.9-.5 1.5-.5c.2 0 .4 0 .5.1v.4zM198.6 222.9c0-.1 0-.2.1-.3s.2-.1.3-.1.2 0 .3.1c.1.1.1.2.1.3s0 .2-.1.3c-.1.1-.2.1-.3.1s-.2 0-.3-.1-.1-.2-.1-.3zm.6 9.7h-.4v-7.4h.4v7.4zM202 226.9c.2-.6.6-1 1.1-1.4s1-.5 1.6-.5c.8 0 1.4.2 1.8.7.4.4.6 1.1.6 2v4.8h-.4v-4.8c0-.8-.2-1.4-.5-1.8s-.8-.6-1.5-.6c-.6 0-1.2.2-1.7.7-.5.5-.8 1-.9 1.8v4.7h-.4v-7.4h.4v1.8zM208.9 228.8c0-1.2.2-2.1.7-2.8s1.2-1 2-1c.6 0 1 .1 1.5.4s.8.6 1 1.1v-1.4h.4v7.3c0 1-.3 1.7-.8 2.3s-1.2.8-2 .8c-.5 0-1-.1-1.4-.3-.4-.2-.8-.5-1.1-.9l.3-.2c.3.4.6.6.9.8.3.2.7.3 1.2.3.8 0 1.4-.2 1.8-.7.4-.5.6-1.1.7-2v-1.1c-.3.4-.6.7-1 1-.4.2-.9.3-1.5.3-.9 0-1.5-.3-2-1s-.7-1.6-.7-2.9zm.4.2c0 1.1.2 1.9.6 2.5s1 .9 1.8.9c.6 0 1.2-.1 1.6-.4s.7-.7.9-1.2v-3.4c-.4-1.3-1.2-1.9-2.5-1.9-.8 0-1.4.3-1.8.9-.4.5-.6 1.4-.6 2.6zM216.8 232.3c0-.1 0-.2.1-.3s.2-.1.3-.1.2 0 .3.1c.1.1.1.2.1.3s0 .2-.1.3c-.1.1-.2.1-.3.1s-.2 0-.3-.1-.1-.2-.1-.3z"/></svg>