<svg id="Layer_1" xmlns="http://www.w3.org/2000/svg" viewBox="0 0 970 250"><style>.st0{fill:#fff}</style><path class="st0" d="M935 191.7c0-.3.1-.5.3-.7.2-.2.4-.3.7-.3.2 0 .5.1.6.3.2.2.3.4.3.7V202c0 .3-.1.5-.3.7-.2.2-.4.3-.7.3-.2 0-.5-.1-.6-.3-.2-.2-.3-.4-.3-.7v-10.3zM883.1 207.9c-.8.6-1.7.9-2.7.9-.6 0-1-.1-1.3-.2-.3-.1-.6-.2-.9-.4-.3-.2-.4-.4-.4-.8 0-.3.1-.5.3-.7.2-.2.4-.3.7-.3.2 0 .4.1.6.2.4.2.8.3 1.3.3.4 0 .7-.1 1-.2.3-.1.6-.3.8-.5.2-.2.4-.5.5-.8.1-.3.2-.6.2-.9v-7c0-.3.1-.5.3-.7.2-.2.4-.3.7-.3.2 0 .5.1.6.3.2.2.3.4.3.7v7c-.2 1.4-.9 2.6-2 3.4zM841.3 187.5c0-.3.1-.5.3-.7.2-.2.4-.3.7-.3.2 0 .5.1.6.3.2.2.3.4.3.7v.7c0 .3-.1.5-.3.7-.2.2-.4.3-.7.3-.2 0-.5-.1-.6-.3-.2-.2-.3-.4-.3-.7v-.7zm0 4.3c0-.3.1-.5.3-.7.2-.2.4-.3.7-.3.2 0 .5.1.6.3.2.2.3.4.3.7V202c0 .3-.1.5-.3.7-.2.2-.4.3-.7.3-.2 0-.5-.1-.6-.3-.2-.2-.3-.4-.3-.7v-10.2zM833.3 192c0-.3.1-.5.3-.6.2-.2.4-.3.6-.3.2 0 .4.1.6.2.2.1.3.3.3.5.7-.6 1.6-.8 2.6-.8.6 0 1 .1 1.3.2.3.1.6.2.9.4.3.2.4.4.4.8 0 .3-.1.5-.3.7-.2.2-.4.2-.6.2-.2 0-.4-.1-.5-.2-.4-.2-.8-.3-1.3-.3-.3 0-.7.1-1 .2-.3.1-.6.3-.8.5-.2.2-.4.5-.5.7-.1.3-.2.6-.2.9v6.8c0 .3-.1.5-.3.6-.2.2-.4.3-.6.3-.2 0-.4-.1-.6-.3-.2-.2-.3-.4-.3-.6V192zM844.5 192.1c0-.1-.1-.2-.1-.4s.1-.4.2-.6c.2-.2.4-.3.7-.3.2 0 .3 0 .5.1s.3.2.4.4l3.6 8.4 3.6-8.4c.2-.4.4-.6.9-.6.3 0 .5.1.7.3.2.2.2.4.2.6 0 .1 0 .3-.1.4l-4.4 10.3c-.2.4-.5.6-.9.6s-.7-.2-.9-.6l-4.4-10.2zM855.4 195.1c0-.6.1-1.2.3-1.7.2-.5.5-1 .9-1.4.4-.4.9-.7 1.4-.9.5-.2 1.1-.3 1.7-.3.6 0 1.2.1 1.7.3.5.2 1 .5 1.4.9.4.4.7.9.9 1.4.2.5.4 1.1.4 1.7v6.9c0 .3-.1.5-.3.7-.2.2-.4.3-.6.3-.2 0-.4-.1-.6-.2-.2-.1-.3-.3-.3-.5-.7.6-1.6.8-2.6.8-.6 0-1.2-.1-1.7-.3-.5-.2-1-.5-1.4-.9-.4-.4-.7-.9-.9-1.4-.2-.5-.4-1.1-.4-1.7v-3.7zm1.8 3.5c0 .3.1.7.2 1 .1.3.3.6.5.8.2.2.5.4.8.5.3.1.6.2 1 .2.3 0 .7-.1 1-.2.3-.1.6-.3.8-.5.2-.2.4-.5.5-.8.1-.3.2-.6.2-.9v-3.6c0-.3-.1-.7-.2-1-.1-.3-.3-.6-.5-.8-.2-.2-.5-.4-.8-.5-.3-.1-.6-.2-1-.2s-.7.1-1 .2c-.3.1-.6.3-.8.5-.2.2-.4.5-.5.8-.1.3-.2.6-.2 1v3.5zM865.9 195.1c0-.6.1-1.2.4-1.7.2-.5.6-1 1-1.4.4-.4.9-.7 1.4-.9.5-.2 1.1-.3 1.7-.3.1 0 .3 0 .7.1.3 0 .7.1 1.1.3.4.2.8.4 1.2.8.4.4.7.9 1 1.5 0 .1.1.2.1.3 0 .3-.1.5-.3.7-.2.2-.4.3-.7.3-.2 0-.4-.1-.5-.2-.2-.1-.3-.2-.3-.4-.2-.5-.6-.9-1-1.1-.4-.3-.9-.4-1.4-.4-.4 0-.7.1-1 .2-.3.1-.6.3-.8.5-.2.2-.4.5-.5.8-.1.3-.2.6-.2 1v3.5c0 .3.1.7.2 1 .1.3.3.6.5.8.2.2.5.4.8.5.3.1.6.2 1 .2.5 0 1-.1 1.4-.4.4-.3.7-.7.9-1.1.1-.2.2-.3.3-.4.1-.1.3-.2.5-.2.3 0 .5.1.7.3.2.2.3.4.3.6 0 .1 0 .2-.1.3-.3.7-.7 1.3-1.2 1.6-.5.4-.9.6-1.3.8-.4.2-.8.3-1.1.3h-.5c-.6 0-1.2-.1-1.7-.3-.5-.2-1-.5-1.4-.9-.4-.4-.7-.9-.9-1.4-.2-.5-.4-1.1-.4-1.7v-3.6zM899.4 191.8c0-.3.1-.5.3-.7.2-.2.4-.3.7-.3.2 0 .5.1.6.3.2.2.3.4.3.7v6.9c0 .3.1.7.2 1 .1.3.3.6.5.8.2.2.5.4.8.5.3.1.6.2 1 .2.3 0 .7-.1 1-.2.3-.1.6-.3.8-.5.2-.2.4-.5.5-.8.1-.3.2-.6.2-1v-6.9c0-.3.1-.5.3-.7.2-.2.4-.3.7-.3.2 0 .5.1.6.3.2.2.3.4.3.7v6.9c0 .6-.1 1.2-.4 1.7-.2.5-.6 1-.9 1.4-.4.4-.9.7-1.4.9-.5.2-1.1.3-1.7.3-.6 0-1.2-.1-1.7-.3-.5-.2-1-.5-1.4-.9-.4-.4-.7-.9-.9-1.4-.2-.5-.3-1.1-.3-1.7v-6.9zM909.9 195.1c0-.6.1-1.2.3-1.7.2-.5.5-1 .9-1.4.4-.4.9-.7 1.4-.9.5-.2 1.1-.3 1.7-.3.6 0 1.2.1 1.7.3.5.2 1 .5 1.4.9.4.4.7.9.9 1.4.2.5.4 1.1.4 1.7v6.9c0 .3-.1.5-.3.7-.2.2-.4.3-.6.3-.2 0-.4-.1-.6-.2-.2-.1-.3-.3-.3-.5-.7.6-1.6.8-2.6.8-.6 0-1.2-.1-1.7-.3-.5-.2-1-.5-1.4-.9-.4-.4-.7-.9-.9-1.4-.2-.5-.4-1.1-.4-1.7v-3.7zm1.9 3.5c0 .3.1.7.2 1 .1.3.3.6.5.8.2.2.5.4.8.5.3.1.6.2 1 .2.3 0 .7-.1 1-.2.3-.1.6-.3.8-.5.2-.2.4-.5.5-.8.1-.3.2-.6.2-.9v-3.6c0-.3-.1-.7-.2-1-.1-.3-.3-.6-.5-.8-.2-.2-.5-.4-.8-.5-.3-.1-.6-.2-1-.2s-.7.1-1 .2c-.3.1-.6.3-.8.5-.2.2-.4.5-.5.8-.1.3-.2.6-.2 1v3.5zM920.5 192c0-.3.1-.5.3-.6.2-.2.4-.3.6-.3.2 0 .4.1.6.2.2.1.3.3.3.5.7-.6 1.6-.8 2.6-.8.6 0 1 .1 1.3.2.3.1.6.2.9.4.3.2.4.4.4.8 0 .3-.1.5-.3.7-.2.2-.4.2-.6.2-.2 0-.4-.1-.5-.2-.4-.2-.8-.3-1.3-.3-.3 0-.7.1-1 .2-.3.1-.6.3-.8.5-.2.2-.4.5-.5.7-.1.3-.2.6-.2.9v6.8c0 .3-.1.5-.3.6-.2.2-.4.3-.6.3-.2 0-.4-.1-.6-.3-.2-.2-.3-.4-.3-.6V192z"/><path class="st0" d="M935 187.5c0-.3.1-.5.3-.7.2-.2.4-.3.7-.3.2 0 .5.1.6.3.2.2.3.4.3.7v11.1c0 .6-.1 1.2-.4 1.7-.2.5-.6 1-.9 1.4-.4.4-.9.7-1.4.9-.5.2-1.1.3-1.7.3-.6 0-1.2-.1-1.7-.3-.5-.2-1-.5-1.4-.9-.4-.4-.7-.9-.9-1.4-.2-.5-.3-1.1-.3-1.7v-3.5c0-.6.1-1.2.4-1.7.2-.5.6-1 .9-1.4.4-.4.9-.7 1.4-.9.5-.2 1.1-.3 1.7-.3.5 0 .9.1 1.3.2s.8.3 1.2.6v-4.1zm-5.1 11.1c0 .3.1.7.2 1 .1.3.3.6.5.8.2.2.5.4.8.5.3.1.6.2 1 .2.3 0 .7-.1 1-.2.3-.1.6-.3.8-.5.2-.2.4-.5.5-.8.1-.3.2-.6.2-1v-3.5c0-.3-.1-.7-.2-1-.1-.3-.3-.6-.5-.8-.2-.2-.5-.4-.8-.5-.3-.1-.6-.2-1-.2-.3 0-.7.1-1 .2-.3.1-.6.3-.8.5-.2.2-.4.5-.5.8-.1.3-.2.6-.2 1v3.5zM876.1 191.8c0-.3.1-.5.3-.7.2-.2.4-.3.7-.3.2 0 .5.1.6.3.2.2.3.4.3.7v6.9c0 .3.1.7.2 1 .1.3.3.6.5.8.2.2.5.4.8.5.3.1.6.2 1 .2.3 0 .7-.1 1-.2.3-.1.6-.3.8-.5.2-.2.4-.5.5-.8.1-.3.2-.6.2-1v-6.9c0-.3.1-.5.3-.7.2-.2.4-.3.7-.3.2 0 .5.1.6.3.2.2.3.4.3.7v6.9c0 .6-.1 1.2-.4 1.7-.2.5-.6 1-.9 1.4-.4.4-.9.7-1.4.9-.5.2-1.1.3-1.7.3-.6 0-1.2-.1-1.7-.3-.5-.2-1-.5-1.4-.9-.4-.4-.7-.9-.9-1.4-.2-.5-.3-1.1-.3-1.7v-6.9zM896.8 194.7h-3.9c-.5 0-.9.4-.9.9s.4.9.9.9h3.1v1.5c0 2-1.8 3.5-3.7 3.5-2.1 0-3.9-1.4-3.9-3.9v-5.5c0-2.3 1.7-3.9 3.8-3.9 1.8 0 3.1 1.2 3.6 2.6.2.3.4.5.8.5.7 0 1.2-.6.8-1.4-.6-1.8-2.4-3.6-5.3-3.6-3.3 0-5.7 2.6-5.7 5.6v5.8c0 3 2.4 5.7 5.7 5.7 3 0 5.5-2.3 5.5-5v-2.8c.2-.5-.3-.9-.8-.9z"/><path class="st0" d="M935 191.8c0-.3.1-.5.3-.7.2-.2.4-.3.7-.3.2 0 .5.1.6.3.2.2.3.4.3.7V202c0 .3-.1.5-.3.7-.2.2-.4.3-.7.3-.2 0-.5-.1-.6-.3-.2-.2-.3-.4-.3-.7v-10.2z"/><g><path class="st0" d="M821.6 188.1c0-.3.1-.5.3-.6.2-.2.4-.3.6-.3h3.6c.8 0 1.5.1 2.2.4.7.3 1.3.7 1.8 1.2s.9 1.1 1.2 1.8c.3.7.5 1.4.5 2.2 0 .8-.2 1.5-.5 2.2-.3.7-.7 1.3-1.2 1.8s-1.1.9-1.8 1.2c-.7.3-1.4.4-2.2.4h-2.8v3.6c0 .3-.1.5-.3.6-.2.2-.4.3-.6.3-.2 0-.4-.1-.6-.3-.2-.2-.3-.4-.3-.6v-13.9zm1.8.9v7.6h2.8c.5 0 1-.1 1.5-.3.5-.2.9-.5 1.2-.8.3-.3.6-.7.8-1.2.2-.5.3-1 .3-1.5s-.1-1-.3-1.5c-.2-.5-.5-.9-.8-1.2-.3-.3-.8-.6-1.2-.8-.5-.2-1-.3-1.5-.3h-2.8z"/></g><g><path class="st0" d="M938.1 186.9h-.3v-.2h1v.2h-.3v1h-.3v-1zM940 187.5v-.5c0 .2-.1.3-.1.5l-.2.5h-.2l-.1-.5c0-.1-.1-.3-.1-.5v1h-.3l.1-1.3h.4l.1.4c0 .1.1.3.1.5 0-.1.1-.3.1-.5l.1-.4h.4l.1 1.3h-.4v-.5z"/></g></svg>