<?xml version="1.0" encoding="utf-8"?>
<!-- Generator: Adobe Illustrator 25.0.1, SVG Export Plug-In . SVG Version: 6.00 Build 0)  -->
<svg version="1.1" id="Layer_1" xmlns="http://www.w3.org/2000/svg" xmlns:xlink="http://www.w3.org/1999/xlink" x="0px" y="0px"
	 viewBox="0 0 970 250" style="enable-background:new 0 0 970 250;" xml:space="preserve">
<style type="text/css">
	.st0{fill:#021D8B;}
</style>
<g>
	<path class="st0" d="M433.74,76.61V53.73h7.37c2.02,0,3.84,0.46,5.45,1.37c1.61,0.92,2.87,2.21,3.78,3.88
		c0.91,1.67,1.36,3.54,1.38,5.62v1.05c0,2.09-0.44,3.97-1.33,5.63c-0.89,1.66-2.13,2.96-3.74,3.9c-1.61,0.94-3.4,1.41-5.38,1.42
		H433.74z M439.25,57.99v14.38h1.92c1.58,0,2.8-0.56,3.64-1.69c0.85-1.12,1.27-2.8,1.27-5.02v-0.99c0-2.21-0.42-3.88-1.27-5
		c-0.85-1.12-2.08-1.68-3.71-1.68H439.25z"/>
	<path class="st0" d="M454.26,55.22c0-0.75,0.27-1.37,0.82-1.85c0.54-0.48,1.25-0.72,2.12-0.72c0.87,0,1.58,0.24,2.12,0.72
		c0.54,0.48,0.82,1.1,0.82,1.85s-0.27,1.37-0.82,1.85c-0.54,0.48-1.25,0.72-2.12,0.72c-0.87,0-1.58-0.24-2.12-0.72
		C454.53,56.6,454.26,55.98,454.26,55.22z M459.88,76.61h-5.31v-17h5.31V76.61z"/>
	<path class="st0" d="M462.47,67.98c0-2.69,0.58-4.81,1.74-6.36c1.16-1.55,2.79-2.33,4.87-2.33c1.52,0,2.8,0.6,3.83,1.79v-8.61h5.31
		v24.13h-4.76l-0.27-1.82c-1.09,1.42-2.47,2.14-4.15,2.14c-2.02,0-3.62-0.78-4.81-2.33C463.06,73.05,462.47,70.84,462.47,67.98z
		 M467.77,68.31c0,3.02,0.88,4.53,2.64,4.53c1.17,0,2.01-0.49,2.51-1.48v-6.47c-0.48-1.01-1.31-1.51-2.48-1.51
		c-1.63,0-2.52,1.32-2.66,3.96L467.77,68.31z"/>
	<path class="st0" d="M496.05,69.19l2.83-9.58h5.67l-6.93,19.84l-0.3,0.72c-0.98,2.2-2.72,3.3-5.22,3.3c-0.69,0-1.42-0.1-2.18-0.31
		v-3.77h0.69c0.74,0,1.31-0.11,1.71-0.32c0.39-0.22,0.68-0.6,0.87-1.16l0.42-1.13l-5.91-17.17h5.66L496.05,69.19z"/>
	<path class="st0" d="M505.26,67.95c0-1.7,0.33-3.21,0.99-4.53c0.66-1.32,1.61-2.34,2.84-3.06c1.24-0.71,2.69-1.07,4.35-1.07
		c2.54,0,4.55,0.79,6.02,2.36c1.47,1.58,2.2,3.72,2.2,6.43v0.19c0,2.65-0.74,4.75-2.21,6.31c-1.47,1.55-3.46,2.33-5.98,2.33
		c-2.42,0-4.36-0.73-5.83-2.18c-1.47-1.45-2.26-3.42-2.37-5.9L505.26,67.95z M510.55,68.28c0,1.57,0.25,2.72,0.74,3.46
		c0.49,0.73,1.22,1.1,2.18,1.1c1.89,0,2.85-1.45,2.89-4.35v-0.53c0-3.05-0.97-4.57-2.92-4.57c-1.77,0-2.73,1.31-2.88,3.94
		L510.55,68.28z"/>
	<path class="st0" d="M534.12,74.77c-1.12,1.43-2.63,2.15-4.54,2.15c-1.86,0-3.28-0.54-4.23-1.63c-0.96-1.08-1.44-2.64-1.44-4.67
		V59.61h5.29v11.04c0,1.46,0.71,2.18,2.12,2.18c1.21,0,2.08-0.43,2.59-1.3V59.61h5.33v17h-4.96L534.12,74.77z"/>
	<path class="st0" d="M551.32,76.61V63.29h-2.47v-3.68h2.47v-1.35c0-1.94,0.57-3.44,1.71-4.51s2.74-1.6,4.81-1.6
		c0.75,0,1.58,0.11,2.48,0.33l0.02,3.9c-0.33-0.09-0.76-0.14-1.3-0.14c-1.6,0-2.4,0.69-2.4,2.07v1.3h3.32v3.68h-3.32v13.32H551.32z"
		/>
	<path class="st0" d="M561.14,67.95c0-1.7,0.33-3.21,0.99-4.53c0.66-1.32,1.61-2.34,2.84-3.06c1.24-0.71,2.69-1.07,4.35-1.07
		c2.54,0,4.55,0.79,6.02,2.36c1.47,1.58,2.2,3.72,2.2,6.43v0.19c0,2.65-0.74,4.75-2.21,6.31c-1.47,1.55-3.46,2.33-5.98,2.33
		c-2.42,0-4.36-0.73-5.83-2.18c-1.47-1.45-2.26-3.42-2.37-5.9L561.14,67.95z M566.44,68.28c0,1.57,0.25,2.72,0.74,3.46
		c0.49,0.73,1.22,1.1,2.18,1.1c1.89,0,2.85-1.45,2.89-4.35v-0.53c0-3.05-0.97-4.57-2.92-4.57c-1.77,0-2.73,1.31-2.88,3.94
		L566.44,68.28z"/>
	<path class="st0" d="M590.16,64.4l-1.74-0.13c-1.67,0-2.73,0.52-3.21,1.57v10.76h-5.29v-17h4.96l0.17,2.18
		c0.89-1.67,2.13-2.5,3.72-2.5c0.57,0,1.06,0.06,1.48,0.19L590.16,64.4z"/>
	<path class="st0" d="M591.45,67.98c0-1.72,0.28-3.24,0.85-4.56c0.57-1.32,1.38-2.34,2.43-3.06c1.06-0.72,2.29-1.08,3.69-1.08
		c1.77,0,3.15,0.6,4.15,1.79l0.19-1.48h4.81v16.36c0,1.5-0.35,2.8-1.04,3.9c-0.7,1.11-1.7,1.95-3.02,2.55
		c-1.32,0.59-2.85,0.89-4.59,0.89c-1.25,0-2.45-0.24-3.62-0.71c-1.17-0.47-2.06-1.08-2.68-1.84l2.22-3.11
		c0.98,1.16,2.28,1.74,3.9,1.74c2.35,0,3.52-1.21,3.52-3.61v-0.53c-1.02,1.12-2.3,1.68-3.85,1.68c-2.07,0-3.75-0.79-5.03-2.38
		c-1.28-1.59-1.92-3.71-1.92-6.37V67.98z M596.76,68.31c0,1.39,0.26,2.5,0.79,3.31c0.52,0.81,1.26,1.22,2.2,1.22
		c1.14,0,1.97-0.38,2.5-1.15v-7.15c-0.51-0.78-1.34-1.16-2.47-1.16c-0.94,0-1.68,0.42-2.22,1.26
		C597.03,65.49,596.76,66.71,596.76,68.31z"/>
	<path class="st0" d="M618.81,76.92c-2.61,0-4.72-0.78-6.33-2.33c-1.61-1.56-2.42-3.58-2.42-6.07v-0.44c0-1.74,0.32-3.27,0.97-4.6
		s1.58-2.36,2.82-3.09c1.24-0.73,2.7-1.09,4.4-1.09c2.39,0,4.27,0.74,5.66,2.22c1.38,1.48,2.07,3.55,2.07,6.2v2.06h-10.53
		c0.19,0.95,0.6,1.7,1.24,2.25s1.47,0.82,2.48,0.82c1.68,0,2.99-0.59,3.93-1.76l2.42,2.86c-0.66,0.91-1.59,1.64-2.8,2.18
		C621.5,76.65,620.2,76.92,618.81,76.92z M618.21,63.38c-1.55,0-2.47,1.03-2.77,3.08h5.34v-0.41c0.02-0.85-0.19-1.51-0.64-1.97
		C619.69,63.61,619.05,63.38,618.21,63.38z"/>
	<path class="st0" d="M634.27,55.38v4.23h2.8v3.68h-2.8v7.78c0,0.64,0.12,1.08,0.35,1.33c0.23,0.25,0.69,0.38,1.37,0.38
		c0.52,0,0.96-0.03,1.32-0.09v3.79c-0.95,0.3-1.95,0.46-2.98,0.46c-1.82,0-3.17-0.43-4.04-1.29c-0.87-0.86-1.3-2.16-1.3-3.91v-8.44
		h-2.17v-3.68h2.17v-4.23H634.27z"/>
	<path class="st0" d="M653.32,55.38v4.23h2.8v3.68h-2.8v7.78c0,0.64,0.12,1.08,0.35,1.33c0.23,0.25,0.69,0.38,1.37,0.38
		c0.52,0,0.96-0.03,1.32-0.09v3.79c-0.95,0.3-1.95,0.46-2.98,0.46c-1.82,0-3.17-0.43-4.04-1.29c-0.87-0.86-1.3-2.16-1.3-3.91v-8.44
		h-2.17v-3.68h2.17v-4.23H653.32z"/>
	<path class="st0" d="M657.06,67.95c0-1.7,0.33-3.21,0.99-4.53c0.66-1.32,1.61-2.34,2.84-3.06c1.24-0.71,2.69-1.07,4.35-1.07
		c2.54,0,4.55,0.79,6.02,2.36c1.47,1.58,2.2,3.72,2.2,6.43v0.19c0,2.65-0.74,4.75-2.21,6.31c-1.47,1.55-3.46,2.33-5.98,2.33
		c-2.42,0-4.36-0.73-5.83-2.18c-1.47-1.45-2.26-3.42-2.37-5.9L657.06,67.95z M662.36,68.28c0,1.57,0.25,2.72,0.74,3.46
		c0.49,0.73,1.22,1.1,2.18,1.1c1.89,0,2.85-1.45,2.89-4.35v-0.53c0-3.05-0.97-4.57-2.92-4.57c-1.77,0-2.73,1.31-2.88,3.94
		L662.36,68.28z"/>
	<path class="st0" d="M692.71,71.83c0-0.45-0.24-0.81-0.71-1.08c-0.47-0.27-1.37-0.56-2.69-0.85c-1.32-0.29-2.41-0.68-3.27-1.16
		c-0.86-0.48-1.51-1.05-1.96-1.74s-0.68-1.46-0.68-2.34c0-1.56,0.64-2.85,1.93-3.86s2.97-1.52,5.06-1.52c2.24,0,4.04,0.51,5.4,1.52
		c1.36,1.02,2.04,2.35,2.04,4.01h-5.31c0-1.36-0.72-2.04-2.15-2.04c-0.56,0-1.02,0.15-1.4,0.46c-0.38,0.31-0.57,0.69-0.57,1.16
		c0,0.47,0.23,0.85,0.69,1.15c0.46,0.29,1.2,0.53,2.21,0.72c1.01,0.19,1.9,0.41,2.66,0.68c2.56,0.88,3.83,2.46,3.83,4.73
		c0,1.55-0.69,2.81-2.07,3.79c-1.38,0.97-3.16,1.46-5.35,1.46c-1.46,0-2.75-0.26-3.9-0.79c-1.14-0.52-2.03-1.24-2.67-2.14
		c-0.64-0.9-0.96-1.85-0.96-2.84h4.95c0.02,0.79,0.28,1.36,0.79,1.72c0.5,0.36,1.15,0.54,1.93,0.54c0.72,0,1.26-0.15,1.63-0.44
		C692.53,72.69,692.71,72.3,692.71,71.83z"/>
	<path class="st0" d="M705.47,61.43c1.13-1.42,2.58-2.14,4.34-2.14c1.88,0,3.29,0.56,4.24,1.67c0.95,1.11,1.44,2.75,1.46,4.92v10.73
		h-5.31V66c0-0.9-0.18-1.56-0.55-1.99c-0.37-0.42-0.99-0.64-1.87-0.64c-1.09,0-1.86,0.35-2.31,1.04v12.19h-5.29V52.47h5.29V61.43z"
		/>
	<path class="st0" d="M717.79,67.95c0-1.7,0.33-3.21,0.99-4.53c0.66-1.32,1.61-2.34,2.84-3.06c1.24-0.71,2.69-1.07,4.35-1.07
		c2.54,0,4.55,0.79,6.02,2.36c1.47,1.58,2.2,3.72,2.2,6.43v0.19c0,2.65-0.74,4.75-2.21,6.31c-1.47,1.55-3.46,2.33-5.98,2.33
		c-2.42,0-4.36-0.73-5.83-2.18c-1.47-1.45-2.26-3.42-2.37-5.9L717.79,67.95z M723.09,68.28c0,1.57,0.25,2.72,0.74,3.46
		c0.49,0.73,1.22,1.1,2.18,1.1c1.89,0,2.85-1.45,2.89-4.35v-0.53c0-3.05-0.97-4.57-2.92-4.57c-1.77,0-2.73,1.31-2.88,3.94
		L723.09,68.28z"/>
	<path class="st0" d="M752.31,68.23c0,2.64-0.59,4.75-1.78,6.32c-1.19,1.58-2.79,2.37-4.82,2.37c-1.56,0-2.84-0.57-3.85-1.71v7.93
		h-5.29V59.61h4.95l0.16,1.57c1.02-1.26,2.35-1.89,4.01-1.89c2.09,0,3.72,0.77,4.89,2.32c1.16,1.54,1.74,3.67,1.74,6.37V68.23z
		 M747.01,67.9c0-3.02-0.88-4.53-2.64-4.53c-1.26,0-2.1,0.45-2.51,1.35v6.69c0.46,0.94,1.31,1.41,2.54,1.41
		c1.69,0,2.56-1.46,2.61-4.37V67.9z"/>
	<path class="st0" d="M771.56,71.83c0-0.45-0.24-0.81-0.71-1.08c-0.47-0.27-1.37-0.56-2.69-0.85c-1.32-0.29-2.41-0.68-3.27-1.16
		c-0.86-0.48-1.51-1.05-1.96-1.74s-0.68-1.46-0.68-2.34c0-1.56,0.64-2.85,1.93-3.86s2.97-1.52,5.06-1.52c2.24,0,4.04,0.51,5.4,1.52
		c1.36,1.02,2.04,2.35,2.04,4.01h-5.31c0-1.36-0.72-2.04-2.15-2.04c-0.56,0-1.02,0.15-1.4,0.46c-0.38,0.31-0.57,0.69-0.57,1.16
		c0,0.47,0.23,0.85,0.69,1.15c0.46,0.29,1.2,0.53,2.21,0.72c1.01,0.19,1.9,0.41,2.66,0.68c2.56,0.88,3.83,2.46,3.83,4.73
		c0,1.55-0.69,2.81-2.07,3.79c-1.38,0.97-3.16,1.46-5.35,1.46c-1.46,0-2.75-0.26-3.9-0.79c-1.14-0.52-2.03-1.24-2.67-2.14
		c-0.64-0.9-0.96-1.85-0.96-2.84h4.95c0.02,0.79,0.28,1.36,0.79,1.72c0.5,0.36,1.15,0.54,1.93,0.54c0.72,0,1.26-0.15,1.63-0.44
		C771.38,72.69,771.56,72.3,771.56,71.83z"/>
	<path class="st0" d="M787.36,76.92c-2.61,0-4.72-0.78-6.33-2.33c-1.61-1.56-2.42-3.58-2.42-6.07v-0.44c0-1.74,0.32-3.27,0.97-4.6
		s1.58-2.36,2.82-3.09c1.24-0.73,2.7-1.09,4.4-1.09c2.39,0,4.27,0.74,5.66,2.22c1.38,1.48,2.07,3.55,2.07,6.2v2.06H784
		c0.19,0.95,0.6,1.7,1.24,2.25s1.47,0.82,2.48,0.82c1.68,0,2.99-0.59,3.93-1.76l2.42,2.86c-0.66,0.91-1.59,1.64-2.8,2.18
		C790.06,76.65,788.75,76.92,787.36,76.92z M786.77,63.38c-1.55,0-2.47,1.03-2.77,3.08h5.34v-0.41c0.02-0.85-0.19-1.51-0.64-1.97
		C788.25,63.61,787.6,63.38,786.77,63.38z"/>
	<path class="st0" d="M803.84,72.84c0.74,0,1.32-0.2,1.73-0.61s0.61-0.97,0.6-1.69h4.96c0,1.86-0.67,3.39-2,4.59
		c-1.34,1.19-3.06,1.79-5.16,1.79c-2.47,0-4.42-0.78-5.84-2.33c-1.42-1.55-2.14-3.7-2.14-6.44v-0.22c0-1.72,0.32-3.23,0.95-4.55
		s1.55-2.33,2.74-3.03c1.19-0.71,2.61-1.06,4.24-1.06c2.21,0,3.96,0.61,5.26,1.84s1.95,2.89,1.95,4.98h-4.96
		c0-0.88-0.21-1.56-0.64-2.03c-0.43-0.47-1.01-0.71-1.73-0.71c-1.37,0-2.17,0.88-2.4,2.62c-0.07,0.56-0.11,1.32-0.11,2.29
		c0,1.71,0.2,2.89,0.61,3.55S802.95,72.84,803.84,72.84z"/>
	<path class="st0" d="M823.5,74.77c-1.12,1.43-2.63,2.15-4.54,2.15c-1.86,0-3.28-0.54-4.23-1.63c-0.96-1.08-1.44-2.64-1.44-4.67
		V59.61h5.29v11.04c0,1.46,0.71,2.18,2.12,2.18c1.21,0,2.08-0.43,2.59-1.3V59.61h5.33v17h-4.96L823.5,74.77z"/>
	<path class="st0" d="M841.8,64.4l-1.74-0.13c-1.67,0-2.73,0.52-3.21,1.57v10.76h-5.29v-17h4.96l0.17,2.18
		c0.89-1.67,2.13-2.5,3.72-2.5c0.57,0,1.06,0.06,1.48,0.19L841.8,64.4z"/>
	<path class="st0" d="M851.94,76.92c-2.61,0-4.72-0.78-6.33-2.33c-1.61-1.56-2.42-3.58-2.42-6.07v-0.44c0-1.74,0.32-3.27,0.97-4.6
		s1.58-2.36,2.82-3.09c1.24-0.73,2.7-1.09,4.4-1.09c2.39,0,4.27,0.74,5.66,2.22c1.38,1.48,2.07,3.55,2.07,6.2v2.06h-10.53
		c0.19,0.95,0.6,1.7,1.24,2.25s1.47,0.82,2.48,0.82c1.68,0,2.99-0.59,3.93-1.76l2.42,2.86c-0.66,0.91-1.59,1.64-2.8,2.18
		C854.63,76.65,853.33,76.92,851.94,76.92z M851.34,63.38c-1.55,0-2.47,1.03-2.77,3.08h5.34v-0.41c0.02-0.85-0.19-1.51-0.64-1.97
		C852.82,63.61,852.18,63.38,851.34,63.38z"/>
	<path class="st0" d="M866.82,76.61h-5.31V52.47h5.31V76.61z"/>
	<path class="st0" d="M876.87,69.19l2.83-9.58h5.67l-6.93,19.84l-0.3,0.72c-0.98,2.2-2.72,3.3-5.22,3.3c-0.69,0-1.42-0.1-2.18-0.31
		v-3.77h0.69c0.74,0,1.31-0.11,1.71-0.32c0.39-0.22,0.68-0.6,0.87-1.16l0.42-1.13l-5.91-17.17h5.66L876.87,69.19z"/>
	<path class="st0" d="M486.68,94v4.23h2.8v3.68h-2.8v7.78c0,0.64,0.12,1.08,0.35,1.33c0.23,0.25,0.69,0.38,1.37,0.38
		c0.52,0,0.96-0.03,1.32-0.09v3.79c-0.95,0.3-1.95,0.46-2.98,0.46c-1.82,0-3.17-0.43-4.04-1.29c-0.87-0.86-1.3-2.16-1.3-3.91v-8.44
		h-2.17v-3.68h2.17V94H486.68z"/>
	<path class="st0" d="M496.73,100.04c1.13-1.42,2.58-2.14,4.34-2.14c1.88,0,3.29,0.56,4.24,1.67c0.95,1.11,1.44,2.75,1.46,4.92
		v10.73h-5.31v-10.61c0-0.9-0.18-1.56-0.55-1.99c-0.37-0.42-0.99-0.64-1.87-0.64c-1.09,0-1.86,0.35-2.31,1.04v12.19h-5.29V91.09
		h5.29V100.04z"/>
	<path class="st0" d="M509.68,93.84c0-0.75,0.27-1.37,0.82-1.85c0.54-0.48,1.25-0.72,2.12-0.72c0.87,0,1.58,0.24,2.12,0.72
		c0.54,0.48,0.82,1.1,0.82,1.85s-0.27,1.37-0.82,1.85c-0.54,0.48-1.25,0.72-2.12,0.72c-0.87,0-1.58-0.24-2.12-0.72
		C509.95,95.21,509.68,94.59,509.68,93.84z M515.3,115.22h-5.31v-17h5.31V115.22z"/>
	<path class="st0" d="M527.46,110.45c0-0.45-0.24-0.81-0.71-1.08c-0.47-0.27-1.37-0.56-2.69-0.85c-1.32-0.29-2.41-0.68-3.27-1.16
		c-0.86-0.48-1.51-1.05-1.96-1.74s-0.68-1.46-0.68-2.34c0-1.56,0.64-2.85,1.93-3.86s2.97-1.52,5.06-1.52c2.24,0,4.04,0.51,5.4,1.52
		c1.36,1.02,2.04,2.35,2.04,4.01h-5.31c0-1.36-0.72-2.04-2.15-2.04c-0.56,0-1.02,0.15-1.4,0.46c-0.38,0.31-0.57,0.69-0.57,1.16
		c0,0.47,0.23,0.85,0.69,1.15c0.46,0.29,1.2,0.53,2.21,0.72c1.01,0.19,1.9,0.41,2.66,0.68c2.56,0.88,3.83,2.46,3.83,4.73
		c0,1.55-0.69,2.81-2.07,3.79c-1.38,0.97-3.16,1.46-5.35,1.46c-1.46,0-2.75-0.26-3.9-0.79c-1.14-0.52-2.03-1.24-2.67-2.14
		c-0.64-0.9-0.96-1.85-0.96-2.84h4.95c0.02,0.79,0.28,1.36,0.79,1.72c0.5,0.36,1.15,0.54,1.93,0.54c0.72,0,1.26-0.15,1.63-0.44
		C527.28,111.3,527.46,110.92,527.46,110.45z"/>
	<path class="st0" d="M558.84,106.85c0,2.64-0.59,4.75-1.78,6.32c-1.19,1.58-2.79,2.37-4.82,2.37c-1.56,0-2.84-0.57-3.85-1.71v7.93
		h-5.29V98.22h4.95l0.16,1.57c1.02-1.26,2.35-1.89,4.01-1.89c2.09,0,3.72,0.77,4.89,2.32c1.16,1.54,1.74,3.67,1.74,6.37V106.85z
		 M553.55,106.52c0-3.02-0.88-4.53-2.64-4.53c-1.26,0-2.1,0.45-2.51,1.35v6.69c0.46,0.94,1.31,1.41,2.54,1.41
		c1.69,0,2.56-1.46,2.61-4.37V106.52z"/>
	<path class="st0" d="M570.75,115.22c-0.19-0.35-0.36-0.85-0.5-1.52c-0.97,1.23-2.34,1.84-4.08,1.84c-1.6,0-2.96-0.48-4.08-1.45
		c-1.12-0.97-1.68-2.19-1.68-3.65c0-1.84,0.68-3.24,2.04-4.18c1.36-0.94,3.34-1.41,5.94-1.41h1.63v-0.9c0-1.57-0.67-2.35-2.03-2.35
		c-1.26,0-1.89,0.62-1.89,1.86h-5.29c0-1.64,0.7-2.98,2.1-4s3.18-1.54,5.35-1.54c2.17,0,3.88,0.53,5.14,1.59
		c1.26,1.06,1.9,2.51,1.93,4.35v7.53c0.02,1.56,0.26,2.75,0.72,3.58v0.27H570.75z M567.44,111.76c0.66,0,1.21-0.14,1.64-0.42
		s0.75-0.6,0.93-0.96v-2.72h-1.54c-1.84,0-2.77,0.83-2.77,2.48c0,0.48,0.16,0.87,0.49,1.17
		C566.52,111.62,566.93,111.76,567.44,111.76z"/>
	<path class="st0" d="M587.15,110.45c0-0.45-0.24-0.81-0.71-1.08c-0.47-0.27-1.37-0.56-2.69-0.85c-1.32-0.29-2.41-0.68-3.27-1.16
		c-0.86-0.48-1.51-1.05-1.96-1.74s-0.68-1.46-0.68-2.34c0-1.56,0.64-2.85,1.93-3.86s2.97-1.52,5.06-1.52c2.24,0,4.04,0.51,5.4,1.52
		c1.36,1.02,2.04,2.35,2.04,4.01h-5.31c0-1.36-0.72-2.04-2.15-2.04c-0.56,0-1.02,0.15-1.4,0.46c-0.38,0.31-0.57,0.69-0.57,1.16
		c0,0.47,0.23,0.85,0.69,1.15c0.46,0.29,1.2,0.53,2.21,0.72c1.01,0.19,1.9,0.41,2.66,0.68c2.56,0.88,3.83,2.46,3.83,4.73
		c0,1.55-0.69,2.81-2.07,3.79c-1.38,0.97-3.16,1.46-5.35,1.46c-1.46,0-2.75-0.26-3.9-0.79c-1.14-0.52-2.03-1.24-2.67-2.14
		c-0.64-0.9-0.96-1.85-0.96-2.84h4.95c0.02,0.79,0.28,1.36,0.79,1.72c0.5,0.36,1.15,0.54,1.93,0.54c0.72,0,1.26-0.15,1.63-0.44
		C586.97,111.3,587.15,110.92,587.15,110.45z"/>
	<path class="st0" d="M600.9,94v4.23h2.8v3.68h-2.8v7.78c0,0.64,0.12,1.08,0.35,1.33c0.23,0.25,0.69,0.38,1.37,0.38
		c0.52,0,0.96-0.03,1.32-0.09v3.79c-0.95,0.3-1.95,0.46-2.98,0.46c-1.82,0-3.17-0.43-4.04-1.29c-0.87-0.86-1.3-2.16-1.3-3.91v-8.44
		h-2.17v-3.68h2.17V94H600.9z"/>
	<path class="st0" d="M618.97,100.04c1.13-1.42,2.58-2.14,4.34-2.14c1.88,0,3.29,0.56,4.24,1.67c0.95,1.11,1.44,2.75,1.46,4.92
		v10.73h-5.31v-10.61c0-0.9-0.18-1.56-0.55-1.99c-0.37-0.42-0.99-0.64-1.87-0.64c-1.09,0-1.86,0.35-2.31,1.04v12.19h-5.29V91.09
		h5.29V100.04z"/>
	<path class="st0" d="M631.29,106.56c0-1.7,0.33-3.21,0.99-4.53c0.66-1.32,1.61-2.34,2.84-3.06c1.24-0.71,2.69-1.07,4.35-1.07
		c2.54,0,4.55,0.79,6.02,2.36c1.47,1.58,2.2,3.72,2.2,6.43v0.19c0,2.65-0.74,4.75-2.21,6.31c-1.47,1.55-3.46,2.33-5.98,2.33
		c-2.42,0-4.36-0.73-5.83-2.18c-1.47-1.45-2.26-3.42-2.37-5.9L631.29,106.56z M636.58,106.89c0,1.57,0.25,2.72,0.74,3.46
		c0.49,0.73,1.22,1.1,2.18,1.1c1.89,0,2.85-1.45,2.89-4.35v-0.53c0-3.05-0.97-4.57-2.92-4.57c-1.77,0-2.73,1.31-2.88,3.94
		L636.58,106.89z"/>
	<path class="st0" d="M655.61,115.22h-5.31V91.09h5.31V115.22z"/>
	<path class="st0" d="M658.83,93.84c0-0.75,0.27-1.37,0.82-1.85c0.54-0.48,1.25-0.72,2.12-0.72c0.87,0,1.58,0.24,2.12,0.72
		c0.54,0.48,0.82,1.1,0.82,1.85s-0.27,1.37-0.82,1.85c-0.54,0.48-1.25,0.72-2.12,0.72c-0.87,0-1.58-0.24-2.12-0.72
		C659.1,95.21,658.83,94.59,658.83,93.84z M664.46,115.22h-5.31v-17h5.31V115.22z"/>
	<path class="st0" d="M667.05,106.6c0-2.69,0.58-4.81,1.74-6.36c1.16-1.55,2.79-2.33,4.87-2.33c1.52,0,2.8,0.6,3.83,1.79v-8.61h5.31
		v24.13h-4.76l-0.27-1.82c-1.09,1.42-2.47,2.14-4.15,2.14c-2.02,0-3.62-0.78-4.81-2.33C667.64,111.66,667.05,109.46,667.05,106.6z
		 M672.34,106.93c0,3.02,0.88,4.53,2.64,4.53c1.17,0,2.01-0.49,2.51-1.48v-6.47c-0.48-1.01-1.31-1.51-2.48-1.51
		c-1.63,0-2.52,1.32-2.66,3.96L672.34,106.93z"/>
	<path class="st0" d="M695.39,115.22c-0.19-0.35-0.36-0.85-0.5-1.52c-0.97,1.23-2.34,1.84-4.08,1.84c-1.6,0-2.96-0.48-4.08-1.45
		c-1.12-0.97-1.68-2.19-1.68-3.65c0-1.84,0.68-3.24,2.04-4.18c1.36-0.94,3.34-1.41,5.94-1.41h1.63v-0.9c0-1.57-0.67-2.35-2.03-2.35
		c-1.26,0-1.89,0.62-1.89,1.86h-5.29c0-1.64,0.7-2.98,2.1-4s3.18-1.54,5.35-1.54c2.17,0,3.88,0.53,5.14,1.59
		c1.26,1.06,1.9,2.51,1.93,4.35v7.53c0.02,1.56,0.26,2.75,0.72,3.58v0.27H695.39z M692.08,111.76c0.66,0,1.21-0.14,1.64-0.42
		s0.75-0.6,0.93-0.96v-2.72h-1.54c-1.84,0-2.77,0.83-2.77,2.48c0,0.48,0.16,0.87,0.49,1.17
		C691.16,111.62,691.58,111.76,692.08,111.76z"/>
	<path class="st0" d="M709.69,107.81l2.83-9.58h5.67l-6.93,19.84l-0.3,0.72c-0.98,2.2-2.72,3.3-5.22,3.3c-0.69,0-1.42-0.1-2.18-0.31
		V118h0.69c0.74,0,1.31-0.11,1.71-0.32c0.39-0.22,0.68-0.6,0.87-1.16l0.42-1.13l-5.91-17.17H707L709.69,107.81z"/>
	<path class="st0" d="M736.48,110.45c0-0.45-0.24-0.81-0.71-1.08c-0.47-0.27-1.37-0.56-2.69-0.85c-1.32-0.29-2.41-0.68-3.27-1.16
		c-0.86-0.48-1.51-1.05-1.96-1.74s-0.68-1.46-0.68-2.34c0-1.56,0.64-2.85,1.93-3.86s2.97-1.52,5.06-1.52c2.24,0,4.04,0.51,5.4,1.52
		c1.36,1.02,2.04,2.35,2.04,4.01h-5.31c0-1.36-0.72-2.04-2.15-2.04c-0.56,0-1.02,0.15-1.4,0.46c-0.38,0.31-0.57,0.69-0.57,1.16
		c0,0.47,0.23,0.85,0.69,1.15c0.46,0.29,1.2,0.53,2.21,0.72c1.01,0.19,1.9,0.41,2.66,0.68c2.56,0.88,3.83,2.46,3.83,4.73
		c0,1.55-0.69,2.81-2.07,3.79c-1.38,0.97-3.16,1.46-5.35,1.46c-1.46,0-2.75-0.26-3.9-0.79c-1.14-0.52-2.03-1.24-2.67-2.14
		c-0.64-0.9-0.96-1.85-0.96-2.84h4.95c0.02,0.79,0.28,1.36,0.79,1.72c0.5,0.36,1.15,0.54,1.93,0.54c0.72,0,1.26-0.15,1.63-0.44
		C736.3,111.3,736.48,110.92,736.48,110.45z"/>
	<path class="st0" d="M752.29,115.54c-2.61,0-4.72-0.78-6.33-2.33c-1.61-1.56-2.42-3.58-2.42-6.07v-0.44c0-1.74,0.32-3.27,0.97-4.6
		s1.58-2.36,2.82-3.09c1.24-0.73,2.7-1.09,4.4-1.09c2.39,0,4.27,0.74,5.66,2.22c1.38,1.48,2.07,3.55,2.07,6.2v2.06h-10.53
		c0.19,0.95,0.6,1.7,1.24,2.25s1.47,0.82,2.48,0.82c1.68,0,2.99-0.59,3.93-1.76l2.42,2.86c-0.66,0.91-1.59,1.64-2.8,2.18
		C754.98,115.27,753.68,115.54,752.29,115.54z M751.69,101.99c-1.55,0-2.47,1.03-2.77,3.08h5.34v-0.41
		c0.02-0.85-0.19-1.51-0.64-1.97C753.17,102.23,752.53,101.99,751.69,101.99z"/>
	<path class="st0" d="M771.16,115.22c-0.19-0.35-0.36-0.85-0.5-1.52c-0.97,1.23-2.34,1.84-4.08,1.84c-1.6,0-2.96-0.48-4.08-1.45
		c-1.12-0.97-1.68-2.19-1.68-3.65c0-1.84,0.68-3.24,2.04-4.18c1.36-0.94,3.34-1.41,5.94-1.41h1.63v-0.9c0-1.57-0.67-2.35-2.03-2.35
		c-1.26,0-1.89,0.62-1.89,1.86h-5.29c0-1.64,0.7-2.98,2.1-4s3.18-1.54,5.35-1.54c2.17,0,3.88,0.53,5.14,1.59
		c1.26,1.06,1.9,2.51,1.93,4.35v7.53c0.02,1.56,0.26,2.75,0.72,3.58v0.27H771.16z M767.84,111.76c0.66,0,1.21-0.14,1.64-0.42
		s0.75-0.6,0.93-0.96v-2.72h-1.54c-1.84,0-2.77,0.83-2.77,2.48c0,0.48,0.16,0.87,0.49,1.17
		C766.92,111.62,767.34,111.76,767.84,111.76z"/>
	<path class="st0" d="M787.56,110.45c0-0.45-0.24-0.81-0.71-1.08c-0.47-0.27-1.37-0.56-2.69-0.85c-1.32-0.29-2.41-0.68-3.27-1.16
		c-0.86-0.48-1.51-1.05-1.96-1.74s-0.68-1.46-0.68-2.34c0-1.56,0.64-2.85,1.93-3.86s2.97-1.52,5.06-1.52c2.24,0,4.04,0.51,5.4,1.52
		c1.36,1.02,2.04,2.35,2.04,4.01h-5.31c0-1.36-0.72-2.04-2.15-2.04c-0.56,0-1.02,0.15-1.4,0.46c-0.38,0.31-0.57,0.69-0.57,1.16
		c0,0.47,0.23,0.85,0.69,1.15c0.46,0.29,1.2,0.53,2.21,0.72c1.01,0.19,1.9,0.41,2.66,0.68c2.56,0.88,3.83,2.46,3.83,4.73
		c0,1.55-0.69,2.81-2.07,3.79c-1.38,0.97-3.16,1.46-5.35,1.46c-1.46,0-2.75-0.26-3.9-0.79c-1.14-0.52-2.03-1.24-2.67-2.14
		c-0.64-0.9-0.96-1.85-0.96-2.84h4.95c0.02,0.79,0.28,1.36,0.79,1.72c0.5,0.36,1.15,0.54,1.93,0.54c0.72,0,1.26-0.15,1.63-0.44
		C787.38,111.3,787.56,110.92,787.56,110.45z"/>
	<path class="st0" d="M794.47,106.56c0-1.7,0.33-3.21,0.99-4.53c0.66-1.32,1.61-2.34,2.84-3.06c1.24-0.71,2.69-1.07,4.35-1.07
		c2.54,0,4.55,0.79,6.02,2.36c1.47,1.58,2.2,3.72,2.2,6.43v0.19c0,2.65-0.74,4.75-2.21,6.31c-1.47,1.55-3.46,2.33-5.98,2.33
		c-2.42,0-4.36-0.73-5.83-2.18c-1.47-1.45-2.26-3.42-2.37-5.9L794.47,106.56z M799.77,106.89c0,1.57,0.25,2.72,0.74,3.46
		c0.49,0.73,1.22,1.1,2.18,1.1c1.89,0,2.85-1.45,2.89-4.35v-0.53c0-3.05-0.97-4.57-2.92-4.57c-1.77,0-2.73,1.31-2.88,3.94
		L799.77,106.89z"/>
	<path class="st0" d="M818.07,98.22l0.17,2c1.17-1.54,2.79-2.31,4.85-2.31c1.77,0,3.09,0.53,3.97,1.59
		c0.87,1.06,1.33,2.65,1.36,4.78v10.95h-5.31v-10.73c0-0.86-0.17-1.49-0.52-1.89c-0.35-0.4-0.97-0.61-1.89-0.61
		c-1.04,0-1.81,0.41-2.31,1.23v12h-5.29v-17H818.07z"/>
	<path class="st0" d="M835.28,107.98c0-1.53,0.17-2.74,0.52-3.62c0.34-0.89,0.91-1.65,1.68-2.3c0.78-0.65,1.36-1.24,1.77-1.78
		c0.4-0.54,0.6-1.13,0.6-1.78c0-1.58-0.68-2.37-2.04-2.37c-0.63,0-1.14,0.23-1.52,0.69s-0.59,1.08-0.61,1.87h-5.31
		c0.02-2.09,0.68-3.73,1.98-4.89s3.12-1.75,5.47-1.75c2.34,0,4.15,0.54,5.43,1.62c1.28,1.08,1.92,2.61,1.92,4.6
		c0,0.87-0.17,1.66-0.52,2.37c-0.35,0.71-0.9,1.44-1.67,2.18l-1.81,1.68c-0.51,0.49-0.87,1-1.07,1.52s-0.31,1.18-0.33,1.97H835.28z
		 M834.63,112.75c0-0.78,0.28-1.41,0.84-1.91c0.56-0.5,1.26-0.75,2.1-0.75c0.84,0,1.54,0.25,2.1,0.75c0.56,0.5,0.84,1.13,0.84,1.91
		s-0.28,1.41-0.84,1.91c-0.56,0.5-1.26,0.75-2.1,0.75c-0.84,0-1.54-0.25-2.1-0.75C834.91,114.17,834.63,113.53,834.63,112.75z"/>
</g>
</svg>
