<?xml version="1.0" encoding="utf-8"?>
<!-- Generator: Adobe Illustrator 25.0.1, SVG Export Plug-In . SVG Version: 6.00 Build 0)  -->
<svg version="1.1" id="Layer_1" xmlns="http://www.w3.org/2000/svg" xmlns:xlink="http://www.w3.org/1999/xlink" x="0px" y="0px"
	 viewBox="0 0 970 250" style="enable-background:new 0 0 970 250;" xml:space="preserve">
<style type="text/css">
	.st0{fill:#021D8B;}
</style>
<g>
	<path class="st0" d="M584.87,121.95c0-0.44-0.15-0.8-0.46-1.1c-0.3-0.3-0.82-0.57-1.54-0.81c-1.01-0.31-1.74-0.71-2.2-1.2
		c-0.46-0.5-0.69-1.12-0.69-1.89c0-0.78,0.23-1.41,0.68-1.91s1.07-0.79,1.86-0.89v-1.55h1.06v1.56c0.79,0.11,1.41,0.44,1.86,1
		s0.66,1.32,0.66,2.29h-1.31c0-0.67-0.16-1.2-0.48-1.6c-0.32-0.39-0.75-0.59-1.29-0.59c-0.56,0-0.99,0.15-1.29,0.44
		c-0.3,0.29-0.45,0.7-0.45,1.22c0,0.48,0.16,0.87,0.47,1.16c0.32,0.29,0.83,0.55,1.56,0.78c0.72,0.23,1.28,0.49,1.69,0.77
		c0.4,0.28,0.7,0.61,0.89,0.98s0.29,0.81,0.29,1.31c0,0.8-0.24,1.44-0.72,1.93c-0.48,0.49-1.15,0.78-2.02,0.87v1.36h-1.05v-1.36
		c-0.88-0.08-1.57-0.39-2.07-0.94c-0.5-0.55-0.75-1.29-0.75-2.23h1.31c0,0.66,0.17,1.16,0.52,1.52c0.35,0.35,0.84,0.53,1.47,0.53
		c0.62,0,1.11-0.15,1.46-0.45C584.69,122.87,584.87,122.46,584.87,121.95z"/>
	<path class="st0" d="M592.13,124.61h-1.32v-8.75l-2.65,0.97v-1.19l3.76-1.41h0.21V124.61z"/>
	<path class="st0" d="M601.49,115.07v1.86h1.43v1.01h-1.43v4.77c0,0.31,0.06,0.54,0.19,0.69c0.13,0.15,0.35,0.23,0.65,0.23
		c0.15,0,0.36-0.03,0.62-0.08v1.06c-0.35,0.09-0.68,0.14-1.01,0.14c-0.59,0-1.03-0.18-1.33-0.53c-0.3-0.35-0.45-0.86-0.45-1.51
		v-4.76h-1.4v-1.01h1.4v-1.86H601.49z"/>
	<path class="st0" d="M608.17,118.11c-0.2-0.03-0.41-0.05-0.65-0.05c-0.86,0-1.45,0.37-1.75,1.1v5.45h-1.31v-7.68h1.28l0.02,0.89
		c0.43-0.69,1.04-1.03,1.83-1.03c0.26,0,0.45,0.03,0.58,0.1V118.11z"/>
	<path class="st0" d="M609.39,114.89c0-0.21,0.07-0.39,0.2-0.54c0.13-0.15,0.32-0.22,0.58-0.22c0.25,0,0.45,0.07,0.58,0.22
		c0.13,0.15,0.2,0.33,0.2,0.54s-0.07,0.39-0.2,0.53c-0.13,0.14-0.33,0.21-0.58,0.21c-0.26,0-0.45-0.07-0.58-0.21
		C609.45,115.28,609.39,115.1,609.39,114.89z M610.81,124.61h-1.31v-7.68h1.31V124.61z"/>
	<path class="st0" d="M617.65,124.61c-0.08-0.15-0.14-0.42-0.18-0.81c-0.61,0.63-1.34,0.95-2.19,0.95c-0.76,0-1.38-0.21-1.86-0.64
		c-0.49-0.43-0.73-0.97-0.73-1.63c0-0.8,0.3-1.42,0.91-1.86c0.61-0.44,1.46-0.66,2.57-0.66h1.28v-0.6c0-0.46-0.14-0.83-0.41-1.1
		c-0.27-0.27-0.68-0.41-1.21-0.41c-0.47,0-0.86,0.12-1.18,0.36c-0.32,0.24-0.48,0.52-0.48,0.86h-1.32c0-0.38,0.14-0.75,0.41-1.11
		c0.27-0.36,0.64-0.64,1.11-0.85c0.47-0.21,0.98-0.31,1.54-0.31c0.88,0,1.58,0.22,2.08,0.66s0.76,1.05,0.78,1.83v3.54
		c0,0.71,0.09,1.27,0.27,1.68v0.11H617.65z M615.47,123.61c0.41,0,0.8-0.11,1.17-0.32s0.64-0.49,0.8-0.83v-1.58h-1.03
		c-1.61,0-2.41,0.47-2.41,1.41c0,0.41,0.14,0.73,0.41,0.97C614.69,123.49,615.04,123.61,615.47,123.61z"/>
	<path class="st0" d="M622.25,124.61h-1.31v-10.91h1.31V124.61z"/>
	<path class="st0" d="M628.59,124.61v-6.67h-1.21v-1.01h1.21v-0.79c0-0.82,0.22-1.46,0.66-1.91c0.44-0.45,1.06-0.67,1.87-0.67
		c0.3,0,0.6,0.04,0.9,0.12l-0.07,1.06c-0.22-0.04-0.46-0.06-0.71-0.06c-0.43,0-0.75,0.12-0.99,0.37c-0.23,0.25-0.35,0.61-0.35,1.07
		v0.81h1.64v1.01h-1.64v6.67H628.59z"/>
	<path class="st0" d="M632.65,120.7c0-0.75,0.15-1.43,0.44-2.03c0.3-0.6,0.71-1.07,1.24-1.39c0.53-0.33,1.13-0.49,1.81-0.49
		c1.05,0,1.89,0.36,2.54,1.09c0.65,0.72,0.97,1.69,0.97,2.89v0.09c0,0.75-0.14,1.42-0.43,2.01s-0.7,1.06-1.23,1.39
		c-0.53,0.33-1.14,0.5-1.83,0.5c-1.04,0-1.88-0.36-2.53-1.09s-0.97-1.68-0.97-2.88V120.7z M633.97,120.85c0,0.85,0.2,1.54,0.59,2.05
		s0.92,0.77,1.59,0.77c0.67,0,1.2-0.26,1.59-0.79c0.39-0.52,0.59-1.25,0.59-2.2c0-0.84-0.2-1.53-0.6-2.05
		c-0.4-0.52-0.93-0.79-1.59-0.79c-0.65,0-1.17,0.26-1.57,0.77C634.17,119.16,633.97,119.89,633.97,120.85z"/>
	<path class="st0" d="M645,118.11c-0.2-0.03-0.41-0.05-0.65-0.05c-0.86,0-1.45,0.37-1.75,1.1v5.45h-1.31v-7.68h1.28l0.02,0.89
		c0.43-0.69,1.04-1.03,1.83-1.03c0.26,0,0.45,0.03,0.58,0.1V118.11z"/>
	<path class="st0" d="M651.59,115.07v1.86h1.43v1.01h-1.43v4.77c0,0.31,0.06,0.54,0.19,0.69c0.13,0.15,0.35,0.23,0.65,0.23
		c0.15,0,0.36-0.03,0.62-0.08v1.06c-0.35,0.09-0.68,0.14-1.01,0.14c-0.59,0-1.03-0.18-1.33-0.53c-0.3-0.35-0.45-0.86-0.45-1.51
		v-4.76h-1.4v-1.01h1.4v-1.86H651.59z"/>
	<path class="st0" d="M655.87,117.86c0.58-0.71,1.34-1.07,2.27-1.07c1.62,0,2.44,0.92,2.46,2.75v5.08h-1.31v-5.08
		c0-0.55-0.13-0.96-0.38-1.23c-0.25-0.27-0.64-0.4-1.16-0.4c-0.43,0-0.8,0.11-1.12,0.34c-0.32,0.23-0.57,0.53-0.75,0.89v5.47h-1.31
		v-10.91h1.31V117.86z"/>
	<path class="st0" d="M665.75,124.75c-1.04,0-1.89-0.34-2.54-1.03c-0.65-0.68-0.98-1.6-0.98-2.74v-0.24c0-0.76,0.15-1.44,0.44-2.04
		c0.29-0.6,0.7-1.07,1.22-1.41c0.52-0.34,1.09-0.51,1.7-0.51c1,0,1.78,0.33,2.33,0.99c0.55,0.66,0.83,1.6,0.83,2.83v0.55h-5.2
		c0.02,0.76,0.24,1.37,0.66,1.83c0.42,0.47,0.96,0.7,1.62,0.7c0.46,0,0.86-0.09,1.18-0.28c0.32-0.19,0.6-0.44,0.84-0.75l0.8,0.62
		C668.01,124.26,667.04,124.75,665.75,124.75z M665.59,117.87c-0.53,0-0.98,0.19-1.33,0.58s-0.58,0.93-0.67,1.62h3.85v-0.1
		c-0.04-0.67-0.22-1.18-0.54-1.55C666.58,118.05,666.14,117.87,665.59,117.87z"/>
	<path class="st0" d="M674.52,124.61v-6.67h-1.21v-1.01h1.21v-0.79c0-0.82,0.22-1.46,0.66-1.91c0.44-0.45,1.06-0.67,1.87-0.67
		c0.3,0,0.6,0.04,0.9,0.12l-0.07,1.06c-0.22-0.04-0.46-0.06-0.71-0.06c-0.43,0-0.75,0.12-0.99,0.37c-0.23,0.25-0.35,0.61-0.35,1.07
		v0.81h1.64v1.01h-1.64v6.67H674.52z"/>
	<path class="st0" d="M678.92,114.89c0-0.21,0.07-0.39,0.2-0.54c0.13-0.15,0.32-0.22,0.58-0.22c0.25,0,0.45,0.07,0.58,0.22
		c0.13,0.15,0.2,0.33,0.2,0.54s-0.07,0.39-0.2,0.53c-0.13,0.14-0.33,0.21-0.58,0.21c-0.26,0-0.45-0.07-0.58-0.21
		C678.99,115.28,678.92,115.1,678.92,114.89z M680.34,124.61h-1.31v-7.68h1.31V124.61z"/>
	<path class="st0" d="M686.16,118.11c-0.2-0.03-0.41-0.05-0.65-0.05c-0.86,0-1.45,0.37-1.75,1.1v5.45h-1.31v-7.68h1.28l0.02,0.89
		c0.43-0.69,1.04-1.03,1.83-1.03c0.26,0,0.45,0.03,0.58,0.1V118.11z"/>
	<path class="st0" d="M691.84,122.57c0-0.35-0.13-0.63-0.4-0.83c-0.27-0.2-0.73-0.37-1.4-0.51c-0.67-0.14-1.19-0.31-1.58-0.51
		c-0.39-0.2-0.68-0.44-0.87-0.71c-0.19-0.27-0.28-0.6-0.28-0.98c0-0.63,0.27-1.16,0.8-1.6c0.53-0.44,1.21-0.65,2.04-0.65
		c0.87,0,1.58,0.22,2.12,0.67c0.54,0.45,0.81,1.02,0.81,1.72h-1.32c0-0.36-0.15-0.67-0.46-0.93c-0.3-0.26-0.69-0.39-1.15-0.39
		c-0.48,0-0.85,0.1-1.12,0.31s-0.4,0.48-0.4,0.82c0,0.32,0.12,0.56,0.38,0.72c0.25,0.16,0.7,0.32,1.36,0.46
		c0.66,0.15,1.19,0.32,1.59,0.53c0.41,0.2,0.71,0.45,0.91,0.74c0.2,0.29,0.29,0.63,0.29,1.05c0,0.69-0.27,1.24-0.82,1.65
		c-0.55,0.41-1.26,0.62-2.14,0.62c-0.62,0-1.16-0.11-1.63-0.33c-0.47-0.22-0.84-0.52-1.11-0.91c-0.27-0.39-0.4-0.81-0.4-1.27h1.31
		c0.02,0.44,0.2,0.79,0.53,1.05c0.33,0.26,0.76,0.39,1.3,0.39c0.5,0,0.9-0.1,1.2-0.3C691.69,123.18,691.84,122.91,691.84,122.57z"/>
	<path class="st0" d="M696.65,115.07v1.86h1.43v1.01h-1.43v4.77c0,0.31,0.06,0.54,0.19,0.69c0.13,0.15,0.35,0.23,0.65,0.23
		c0.15,0,0.36-0.03,0.62-0.08v1.06c-0.35,0.09-0.68,0.14-1.01,0.14c-0.59,0-1.03-0.18-1.33-0.53c-0.3-0.35-0.45-0.86-0.45-1.51
		v-4.76h-1.4v-1.01h1.4v-1.86H696.65z"/>
	<path class="st0" d="M708.16,124.61h-2.4v-7.64l-2.36,0.69v-1.82l4.54-1.57h0.22V124.61z"/>
	<path class="st0" d="M717.59,120.57h1.05v1.85h-1.05v2.19h-2.39v-2.19h-4l-0.14-1.46l4.14-6.66v-0.02h2.39V120.57z M713.34,120.57
		h1.86v-3.18l-0.15,0.24L713.34,120.57z"/>
	<path class="st0" d="M723.05,120.71c0-1.22,0.26-2.17,0.79-2.88c0.53-0.7,1.26-1.05,2.2-1.05c0.69,0,1.26,0.27,1.73,0.81v-3.89h2.4
		v10.91h-2.15l-0.12-0.82c-0.49,0.64-1.12,0.96-1.88,0.96c-0.91,0-1.64-0.35-2.17-1.05C723.32,123,723.05,122,723.05,120.71z
		 M725.44,120.86c0,1.36,0.4,2.04,1.19,2.04c0.53,0,0.91-0.22,1.14-0.67v-2.93c-0.22-0.45-0.59-0.68-1.12-0.68
		c-0.74,0-1.14,0.6-1.2,1.79L725.44,120.86z"/>
	<path class="st0" d="M735.86,124.61c-0.08-0.16-0.16-0.39-0.23-0.69c-0.44,0.55-1.06,0.83-1.85,0.83c-0.72,0-1.34-0.22-1.85-0.66
		s-0.76-0.99-0.76-1.65c0-0.83,0.31-1.46,0.92-1.89c0.62-0.43,1.51-0.64,2.68-0.64h0.74v-0.41c0-0.71-0.31-1.06-0.92-1.06
		c-0.57,0-0.85,0.28-0.85,0.84h-2.39c0-0.74,0.32-1.34,0.95-1.81c0.63-0.46,1.44-0.7,2.42-0.7c0.98,0,1.75,0.24,2.32,0.72
		c0.57,0.48,0.86,1.13,0.87,1.97v3.4c0.01,0.71,0.12,1.25,0.33,1.62v0.12H735.86z M734.36,123.05c0.3,0,0.55-0.06,0.74-0.19
		s0.34-0.27,0.42-0.43v-1.23h-0.7c-0.83,0-1.25,0.37-1.25,1.12c0,0.22,0.07,0.39,0.22,0.53S734.13,123.05,734.36,123.05z"/>
	<path class="st0" d="M742.32,121.26l1.28-4.33h2.56l-3.13,8.97l-0.13,0.33c-0.44,0.99-1.23,1.49-2.36,1.49
		c-0.31,0-0.64-0.05-0.99-0.14v-1.7h0.31c0.34,0,0.59-0.05,0.77-0.15c0.18-0.1,0.31-0.27,0.39-0.52l0.19-0.51l-2.67-7.76h2.56
		L742.32,121.26z"/>
	<path class="st0" d="M750.8,122.45c0-0.2-0.11-0.37-0.32-0.49c-0.21-0.12-0.62-0.25-1.21-0.38c-0.6-0.13-1.09-0.31-1.48-0.52
		c-0.39-0.21-0.68-0.48-0.89-0.78c-0.2-0.31-0.3-0.66-0.3-1.06c0-0.71,0.29-1.29,0.87-1.74s1.34-0.69,2.29-0.69
		c1.01,0,1.83,0.23,2.44,0.69c0.62,0.46,0.92,1.06,0.92,1.81h-2.4c0-0.62-0.32-0.92-0.97-0.92c-0.25,0-0.46,0.07-0.63,0.21
		c-0.17,0.14-0.26,0.31-0.26,0.52c0,0.21,0.1,0.39,0.31,0.52c0.21,0.13,0.54,0.24,1,0.33s0.86,0.19,1.2,0.31
		c1.15,0.4,1.73,1.11,1.73,2.14c0,0.7-0.31,1.27-0.93,1.71c-0.62,0.44-1.43,0.66-2.42,0.66c-0.66,0-1.25-0.12-1.76-0.35
		s-0.92-0.56-1.21-0.97s-0.43-0.83-0.43-1.29h2.24c0.01,0.36,0.13,0.61,0.35,0.78c0.23,0.16,0.52,0.25,0.87,0.25
		c0.33,0,0.57-0.07,0.74-0.2C750.72,122.84,750.8,122.67,750.8,122.45z"/>
	<path class="st0" d="M754.51,126.67l-0.75-0.51c0.44-0.62,0.68-1.26,0.7-1.92v-1.19h1.29v1.03c0,0.48-0.12,0.96-0.35,1.43
		C755.16,126,754.87,126.38,754.51,126.67z"/>
	<path class="st0" d="M572.79,142.56v4.05h-1.36v-10.34h3.81c1.13,0,2.02,0.29,2.66,0.87c0.64,0.58,0.96,1.34,0.96,2.29
		c0,1-0.31,1.78-0.94,2.32c-0.63,0.54-1.53,0.81-2.69,0.81H572.79z M572.79,141.45h2.45c0.73,0,1.29-0.17,1.68-0.52
		c0.39-0.34,0.58-0.84,0.58-1.49c0-0.62-0.19-1.11-0.58-1.48c-0.39-0.37-0.92-0.56-1.6-0.58h-2.53V141.45z"/>
	<path class="st0" d="M581.82,146.61h-1.31v-10.91h1.31V146.61z"/>
	<path class="st0" d="M588.66,146.61c-0.08-0.15-0.14-0.42-0.18-0.81c-0.61,0.63-1.34,0.95-2.19,0.95c-0.76,0-1.38-0.21-1.86-0.64
		c-0.49-0.43-0.73-0.97-0.73-1.63c0-0.8,0.3-1.42,0.91-1.86c0.61-0.44,1.46-0.66,2.57-0.66h1.28v-0.6c0-0.46-0.14-0.83-0.41-1.1
		c-0.27-0.27-0.68-0.41-1.21-0.41c-0.47,0-0.86,0.12-1.18,0.36c-0.32,0.24-0.48,0.52-0.48,0.86h-1.32c0-0.38,0.14-0.75,0.41-1.11
		c0.27-0.36,0.64-0.64,1.11-0.85c0.47-0.21,0.98-0.31,1.54-0.31c0.88,0,1.58,0.22,2.08,0.66s0.76,1.05,0.78,1.83v3.54
		c0,0.71,0.09,1.27,0.27,1.68v0.11H588.66z M586.48,145.61c0.41,0,0.8-0.11,1.17-0.32s0.64-0.49,0.8-0.83v-1.58h-1.03
		c-1.61,0-2.41,0.47-2.41,1.41c0,0.41,0.14,0.73,0.41,0.97C585.7,145.49,586.05,145.61,586.48,145.61z"/>
	<path class="st0" d="M593.07,138.93l0.04,0.96c0.59-0.74,1.35-1.11,2.3-1.11c1.62,0,2.44,0.92,2.46,2.75v5.08h-1.31v-5.08
		c0-0.55-0.13-0.96-0.38-1.23c-0.25-0.27-0.64-0.4-1.16-0.4c-0.43,0-0.8,0.11-1.12,0.34c-0.32,0.23-0.57,0.53-0.75,0.89v5.47h-1.31
		v-7.68H593.07z"/>
	<path class="st0" d="M604.33,144.57c0-0.35-0.13-0.63-0.4-0.83c-0.27-0.2-0.73-0.37-1.4-0.51c-0.67-0.14-1.19-0.31-1.58-0.51
		c-0.39-0.2-0.68-0.44-0.87-0.71c-0.19-0.27-0.28-0.6-0.28-0.98c0-0.63,0.27-1.16,0.8-1.6c0.53-0.44,1.21-0.65,2.04-0.65
		c0.87,0,1.58,0.22,2.12,0.67c0.54,0.45,0.81,1.02,0.81,1.72h-1.32c0-0.36-0.15-0.67-0.46-0.93c-0.3-0.26-0.69-0.39-1.15-0.39
		c-0.48,0-0.85,0.1-1.12,0.31s-0.4,0.48-0.4,0.82c0,0.32,0.12,0.56,0.38,0.72c0.25,0.16,0.7,0.32,1.36,0.46
		c0.66,0.15,1.19,0.32,1.59,0.53c0.41,0.2,0.71,0.45,0.91,0.74c0.2,0.29,0.29,0.63,0.29,1.05c0,0.69-0.27,1.24-0.82,1.65
		c-0.55,0.41-1.26,0.62-2.14,0.62c-0.62,0-1.16-0.11-1.63-0.33c-0.47-0.22-0.84-0.52-1.11-0.91c-0.27-0.39-0.4-0.81-0.4-1.27h1.31
		c0.02,0.44,0.2,0.79,0.53,1.05c0.33,0.26,0.76,0.39,1.3,0.39c0.5,0,0.9-0.1,1.2-0.3C604.18,145.18,604.33,144.91,604.33,144.57z"/>
	<path class="st0" d="M615.42,144.57c0-0.35-0.13-0.63-0.4-0.83c-0.27-0.2-0.73-0.37-1.4-0.51c-0.67-0.14-1.19-0.31-1.58-0.51
		c-0.39-0.2-0.68-0.44-0.87-0.71c-0.19-0.27-0.28-0.6-0.28-0.98c0-0.63,0.27-1.16,0.8-1.6c0.53-0.44,1.21-0.65,2.04-0.65
		c0.87,0,1.58,0.22,2.12,0.67c0.54,0.45,0.81,1.02,0.81,1.72h-1.32c0-0.36-0.15-0.67-0.46-0.93c-0.3-0.26-0.69-0.39-1.15-0.39
		c-0.48,0-0.85,0.1-1.12,0.31s-0.4,0.48-0.4,0.82c0,0.32,0.12,0.56,0.38,0.72c0.25,0.16,0.7,0.32,1.36,0.46
		c0.66,0.15,1.19,0.32,1.59,0.53c0.41,0.2,0.71,0.45,0.91,0.74c0.2,0.29,0.29,0.63,0.29,1.05c0,0.69-0.27,1.24-0.82,1.65
		c-0.55,0.41-1.26,0.62-2.14,0.62c-0.62,0-1.16-0.11-1.63-0.33c-0.47-0.22-0.84-0.52-1.11-0.91c-0.27-0.39-0.4-0.81-0.4-1.27h1.31
		c0.02,0.44,0.2,0.79,0.53,1.05c0.33,0.26,0.76,0.39,1.3,0.39c0.5,0,0.9-0.1,1.2-0.3C615.27,145.18,615.42,144.91,615.42,144.57z"/>
	<path class="st0" d="M620.23,137.07v1.86h1.43v1.01h-1.43v4.77c0,0.31,0.06,0.54,0.19,0.69c0.13,0.15,0.35,0.23,0.65,0.23
		c0.15,0,0.36-0.03,0.62-0.08v1.06c-0.35,0.09-0.68,0.14-1.01,0.14c-0.59,0-1.03-0.18-1.33-0.53c-0.3-0.35-0.45-0.86-0.45-1.51
		v-4.76h-1.4v-1.01h1.4v-1.86H620.23z"/>
	<path class="st0" d="M627.94,146.61c-0.08-0.15-0.14-0.42-0.18-0.81c-0.61,0.63-1.34,0.95-2.19,0.95c-0.76,0-1.38-0.21-1.86-0.64
		c-0.49-0.43-0.73-0.97-0.73-1.63c0-0.8,0.3-1.42,0.91-1.86c0.61-0.44,1.46-0.66,2.57-0.66h1.28v-0.6c0-0.46-0.14-0.83-0.41-1.1
		c-0.27-0.27-0.68-0.41-1.21-0.41c-0.47,0-0.86,0.12-1.18,0.36c-0.32,0.24-0.48,0.52-0.48,0.86h-1.32c0-0.38,0.14-0.75,0.41-1.11
		c0.27-0.36,0.64-0.64,1.11-0.85c0.47-0.21,0.98-0.31,1.54-0.31c0.88,0,1.58,0.22,2.08,0.66s0.76,1.05,0.78,1.83v3.54
		c0,0.71,0.09,1.27,0.27,1.68v0.11H627.94z M625.76,145.61c0.41,0,0.8-0.11,1.17-0.32s0.64-0.49,0.8-0.83v-1.58h-1.03
		c-1.61,0-2.41,0.47-2.41,1.41c0,0.41,0.14,0.73,0.41,0.97C624.98,145.49,625.33,145.61,625.76,145.61z"/>
	<path class="st0" d="M634.82,140.11c-0.2-0.03-0.41-0.05-0.65-0.05c-0.86,0-1.45,0.37-1.75,1.1v5.45h-1.31v-7.68h1.28l0.02,0.89
		c0.43-0.69,1.04-1.03,1.83-1.03c0.26,0,0.45,0.03,0.58,0.1V140.11z"/>
	<path class="st0" d="M638.17,137.07v1.86h1.43v1.01h-1.43v4.77c0,0.31,0.06,0.54,0.19,0.69c0.13,0.15,0.35,0.23,0.65,0.23
		c0.15,0,0.36-0.03,0.62-0.08v1.06c-0.35,0.09-0.68,0.14-1.01,0.14c-0.59,0-1.03-0.18-1.33-0.53c-0.3-0.35-0.45-0.86-0.45-1.51
		v-4.76h-1.4v-1.01h1.4v-1.86H638.17z"/>
	<path class="st0" d="M641.14,136.89c0-0.21,0.07-0.39,0.2-0.54c0.13-0.15,0.32-0.22,0.58-0.22c0.25,0,0.45,0.07,0.58,0.22
		c0.13,0.15,0.2,0.33,0.2,0.54s-0.07,0.39-0.2,0.53c-0.13,0.14-0.33,0.21-0.58,0.21c-0.26,0-0.45-0.07-0.58-0.21
		C641.21,137.28,641.14,137.1,641.14,136.89z M642.56,146.61h-1.31v-7.68h1.31V146.61z"/>
	<path class="st0" d="M645.9,138.93l0.04,0.96c0.59-0.74,1.35-1.11,2.3-1.11c1.62,0,2.44,0.92,2.46,2.75v5.08h-1.31v-5.08
		c0-0.55-0.13-0.96-0.38-1.23c-0.25-0.27-0.64-0.4-1.16-0.4c-0.43,0-0.8,0.11-1.12,0.34c-0.32,0.23-0.57,0.53-0.75,0.89v5.47h-1.31
		v-7.68H645.9z"/>
	<path class="st0" d="M652.37,142.71c0-1.2,0.28-2.15,0.83-2.86c0.55-0.71,1.29-1.06,2.2-1.06c0.94,0,1.67,0.33,2.19,0.99l0.06-0.85
		h1.2v7.5c0,0.99-0.29,1.78-0.88,2.35c-0.59,0.57-1.38,0.86-2.38,0.86c-0.55,0-1.1-0.12-1.63-0.35c-0.53-0.24-0.93-0.56-1.21-0.97
		l0.68-0.79c0.56,0.7,1.25,1.04,2.07,1.04c0.64,0,1.14-0.18,1.5-0.54c0.36-0.36,0.54-0.87,0.54-1.52v-0.66
		c-0.53,0.61-1.24,0.91-2.15,0.91c-0.9,0-1.63-0.36-2.18-1.09C652.65,144.94,652.37,143.96,652.37,142.71z M653.69,142.85
		c0,0.87,0.18,1.55,0.53,2.04c0.36,0.5,0.85,0.74,1.49,0.74c0.83,0,1.44-0.38,1.83-1.13V141c-0.4-0.73-1.01-1.1-1.81-1.1
		c-0.64,0-1.14,0.25-1.5,0.75C653.87,141.14,653.69,141.88,653.69,142.85z"/>
	<path class="st0" d="M669.18,146.61c-0.08-0.15-0.14-0.42-0.18-0.81c-0.61,0.63-1.34,0.95-2.19,0.95c-0.76,0-1.38-0.21-1.86-0.64
		c-0.49-0.43-0.73-0.97-0.73-1.63c0-0.8,0.3-1.42,0.91-1.86c0.61-0.44,1.46-0.66,2.57-0.66h1.28v-0.6c0-0.46-0.14-0.83-0.41-1.1
		c-0.27-0.27-0.68-0.41-1.21-0.41c-0.47,0-0.86,0.12-1.18,0.36c-0.32,0.24-0.48,0.52-0.48,0.86h-1.32c0-0.38,0.14-0.75,0.41-1.11
		c0.27-0.36,0.64-0.64,1.11-0.85c0.47-0.21,0.98-0.31,1.54-0.31c0.88,0,1.58,0.22,2.08,0.66s0.76,1.05,0.78,1.83v3.54
		c0,0.71,0.09,1.27,0.27,1.68v0.11H669.18z M667,145.61c0.41,0,0.8-0.11,1.17-0.32s0.64-0.49,0.8-0.83v-1.58h-1.03
		c-1.61,0-2.41,0.47-2.41,1.41c0,0.41,0.14,0.73,0.41,0.97C666.22,145.49,666.57,145.61,667,145.61z"/>
	<path class="st0" d="M674.13,137.07v1.86h1.43v1.01h-1.43v4.77c0,0.31,0.06,0.54,0.19,0.69c0.13,0.15,0.35,0.23,0.65,0.23
		c0.15,0,0.36-0.03,0.62-0.08v1.06c-0.35,0.09-0.68,0.14-1.01,0.14c-0.59,0-1.03-0.18-1.33-0.53c-0.3-0.35-0.45-0.86-0.45-1.51
		v-4.76h-1.4v-1.01h1.4v-1.86H674.13z"/>
	<path class="st0" d="M685.1,143.87c0-0.37-0.09-0.67-0.28-0.88s-0.51-0.41-0.97-0.6s-0.89-0.38-1.29-0.58
		c-0.39-0.19-0.73-0.42-1.02-0.67c-0.28-0.26-0.5-0.55-0.65-0.89s-0.23-0.74-0.23-1.22c0-0.8,0.27-1.46,0.81-1.98
		c0.54-0.52,1.26-0.82,2.16-0.91v-1.5h1.13v1.53c0.87,0.13,1.55,0.48,2.04,1.07c0.49,0.58,0.74,1.33,0.74,2.23h-2.4
		c0-0.49-0.09-0.87-0.28-1.14c-0.19-0.27-0.46-0.4-0.81-0.4c-0.31,0-0.56,0.1-0.73,0.29c-0.17,0.2-0.26,0.47-0.26,0.81
		c0,0.35,0.1,0.63,0.3,0.83c0.2,0.21,0.52,0.4,0.96,0.59c0.44,0.19,0.86,0.38,1.25,0.58s0.73,0.43,1.01,0.68
		c0.28,0.26,0.51,0.55,0.67,0.89c0.16,0.34,0.24,0.75,0.24,1.23c0,0.81-0.26,1.47-0.77,1.98c-0.51,0.51-1.21,0.81-2.1,0.89v1.43
		h-1.13v-1.43c-1.03-0.11-1.82-0.46-2.38-1.06c-0.55-0.6-0.83-1.39-0.83-2.37h2.39c0,0.54,0.12,0.95,0.36,1.23
		c0.24,0.28,0.58,0.42,1.02,0.42c0.32,0,0.58-0.1,0.76-0.29C685.01,144.47,685.1,144.21,685.1,143.87z"/>
	<path class="st0" d="M693.47,142.61c-0.52,0.46-1.09,0.7-1.73,0.7c-0.94,0-1.68-0.32-2.23-0.95c-0.55-0.63-0.82-1.48-0.82-2.54
		c0-0.66,0.15-1.28,0.46-1.85s0.74-1.02,1.3-1.35c0.56-0.33,1.17-0.5,1.84-0.5c0.68,0,1.3,0.17,1.85,0.51
		c0.55,0.34,0.98,0.83,1.29,1.46c0.31,0.63,0.47,1.35,0.48,2.17v0.92c0,1.14-0.22,2.13-0.67,2.97s-1.08,1.48-1.91,1.93
		c-0.83,0.45-1.79,0.67-2.9,0.67h-0.15v-1.92l0.45-0.01C692.37,144.75,693.29,144.01,693.47,142.61z M692.39,141.58
		c0.52,0,0.89-0.23,1.12-0.67v-0.99c0-0.66-0.11-1.15-0.33-1.47s-0.52-0.48-0.9-0.48c-0.34,0-0.62,0.18-0.84,0.54
		c-0.23,0.36-0.34,0.79-0.34,1.31c0,0.54,0.12,0.97,0.35,1.29C691.67,141.42,691.98,141.58,692.39,141.58z"/>
	<path class="st0" d="M698.7,144.29c0.38,0,0.69,0.11,0.94,0.34s0.38,0.51,0.38,0.86c0,0.35-0.12,0.64-0.38,0.86
		c-0.25,0.22-0.57,0.34-0.94,0.34c-0.38,0-0.7-0.11-0.95-0.34c-0.25-0.23-0.37-0.51-0.37-0.86c0-0.34,0.12-0.63,0.37-0.86
		C698,144.4,698.31,144.29,698.7,144.29z"/>
	<path class="st0" d="M706.29,142.61c-0.52,0.46-1.09,0.7-1.73,0.7c-0.94,0-1.68-0.32-2.23-0.95c-0.55-0.63-0.82-1.48-0.82-2.54
		c0-0.66,0.15-1.28,0.46-1.85s0.74-1.02,1.3-1.35c0.56-0.33,1.17-0.5,1.84-0.5c0.68,0,1.3,0.17,1.85,0.51
		c0.55,0.34,0.98,0.83,1.29,1.46c0.31,0.63,0.47,1.35,0.48,2.17v0.92c0,1.14-0.22,2.13-0.67,2.97s-1.08,1.48-1.91,1.93
		c-0.83,0.45-1.79,0.67-2.9,0.67h-0.15v-1.92l0.45-0.01C705.19,144.75,706.1,144.01,706.29,142.61z M705.2,141.58
		c0.52,0,0.89-0.23,1.12-0.67v-0.99c0-0.66-0.11-1.15-0.33-1.47s-0.52-0.48-0.9-0.48c-0.34,0-0.62,0.18-0.84,0.54
		c-0.23,0.36-0.34,0.79-0.34,1.31c0,0.54,0.12,0.97,0.35,1.29C704.48,141.42,704.8,141.58,705.2,141.58z"/>
	<path class="st0" d="M714.71,142.61c-0.52,0.46-1.09,0.7-1.73,0.7c-0.94,0-1.68-0.32-2.23-0.95c-0.55-0.63-0.82-1.48-0.82-2.54
		c0-0.66,0.15-1.28,0.46-1.85s0.74-1.02,1.3-1.35c0.56-0.33,1.17-0.5,1.84-0.5c0.68,0,1.3,0.17,1.85,0.51
		c0.55,0.34,0.98,0.83,1.29,1.46c0.31,0.63,0.47,1.35,0.48,2.17v0.92c0,1.14-0.22,2.13-0.67,2.97s-1.08,1.48-1.91,1.93
		c-0.83,0.45-1.79,0.67-2.9,0.67h-0.15v-1.92l0.45-0.01C713.61,144.75,714.52,144.01,714.71,142.61z M713.62,141.58
		c0.52,0,0.89-0.23,1.12-0.67v-0.99c0-0.66-0.11-1.15-0.33-1.47s-0.52-0.48-0.9-0.48c-0.34,0-0.62,0.18-0.84,0.54
		c-0.23,0.36-0.34,0.79-0.34,1.31c0,0.54,0.12,0.97,0.35,1.29C712.9,141.42,713.22,141.58,713.62,141.58z"/>
	<path class="st0" d="M719.27,147.5h-1.7l3.53-11.23h1.7L719.27,147.5z"/>
	<path class="st0" d="M725.82,138.93l0.08,0.9c0.54-0.7,1.28-1.04,2.19-1.04c0.97,0,1.63,0.39,1.97,1.16
		c0.52-0.77,1.27-1.16,2.26-1.16c1.56,0,2.36,0.94,2.4,2.83v5h-2.4v-4.85c0-0.39-0.07-0.68-0.2-0.86c-0.13-0.18-0.37-0.27-0.72-0.27
		c-0.47,0-0.83,0.21-1.06,0.63l0.01,0.1v5.25h-2.4v-4.83c0-0.4-0.06-0.69-0.19-0.87s-0.37-0.27-0.73-0.27
		c-0.46,0-0.81,0.21-1.05,0.63v5.35h-2.39v-7.68H725.82z"/>
	<path class="st0" d="M735.78,142.7c0-0.77,0.15-1.45,0.45-2.05c0.3-0.6,0.73-1.06,1.29-1.38c0.56-0.32,1.21-0.48,1.97-0.48
		c1.15,0,2.06,0.36,2.72,1.07c0.66,0.71,0.99,1.68,0.99,2.91v0.09c0,1.2-0.33,2.15-1,2.85s-1.57,1.05-2.7,1.05
		c-1.09,0-1.97-0.33-2.63-0.98c-0.66-0.66-1.02-1.54-1.07-2.67L735.78,142.7z M738.17,142.85c0,0.71,0.11,1.23,0.33,1.56
		c0.22,0.33,0.55,0.5,0.99,0.5c0.85,0,1.29-0.66,1.31-1.97v-0.24c0-1.38-0.44-2.07-1.32-2.07c-0.8,0-1.23,0.59-1.3,1.78
		L738.17,142.85z"/>
	<path class="st0" d="M746.45,138.93l0.08,0.9c0.53-0.7,1.26-1.04,2.19-1.04c0.8,0,1.4,0.24,1.79,0.72c0.4,0.48,0.6,1.2,0.61,2.16
		v4.95h-2.4v-4.85c0-0.39-0.08-0.67-0.23-0.86c-0.16-0.18-0.44-0.27-0.85-0.27c-0.47,0-0.82,0.18-1.04,0.55v5.42h-2.39v-7.68H746.45
		z"/>
	<path class="st0" d="M755.24,137.02v1.91h1.26v1.66h-1.26v3.51c0,0.29,0.05,0.49,0.16,0.6c0.1,0.11,0.31,0.17,0.62,0.17
		c0.24,0,0.44-0.01,0.6-0.04v1.71c-0.43,0.14-0.88,0.21-1.35,0.21c-0.82,0-1.43-0.19-1.82-0.58c-0.39-0.39-0.59-0.98-0.59-1.77
		v-3.81h-0.98v-1.66h0.98v-1.91H755.24z"/>
	<path class="st0" d="M759.78,139.75c0.51-0.64,1.16-0.97,1.96-0.97c0.85,0,1.49,0.25,1.92,0.75s0.65,1.24,0.66,2.22v4.85h-2.4
		v-4.79c0-0.41-0.08-0.71-0.25-0.9c-0.17-0.19-0.45-0.29-0.85-0.29c-0.49,0-0.84,0.16-1.04,0.47v5.51h-2.39v-10.91h2.39V139.75z"/>
</g>
</svg>
