<?xml version="1.0" encoding="utf-8"?>
<!-- Generator: Adobe Illustrator 24.2.3, SVG Export Plug-In . SVG Version: 6.00 Build 0)  -->
<svg version="1.1" id="Layer_1" xmlns="http://www.w3.org/2000/svg" xmlns:xlink="http://www.w3.org/1999/xlink" x="0px" y="0px"
	 viewBox="0 0 320 468" style="enable-background:new 0 0 320 468;" xml:space="preserve">
<style type="text/css">
	.st0{fill:#18B9FB;}
	.st1{clip-path:url(#SVGID_2_);}
	.st2{fill:#4AC8FC;}
	.st3{display:none;}
	.st4{display:inline;}
	.st5{fill:#EDF4FD;}
	.st6{fill:#021D8B;}
	.st7{display:inline;fill:#FFFFFF;}
	.st8{fill:#FFFFFF;}
	.st9{display:none;fill:#021D8B;}
	.st10{display:inline;fill:#EDF4FD;}
</style>
<g id="Background">
	<g>
		<rect class="st0" width="320" height="468"/>
	</g>
	<g>
		<defs>
			<rect id="SVGID_1_" x="-74" y="74" transform="matrix(6.123234e-17 -1 1 6.123234e-17 -74 394)" width="468" height="320"/>
		</defs>
		<clipPath id="SVGID_2_">
			<use xlink:href="#SVGID_1_"  style="overflow:visible;"/>
		</clipPath>
		<g id="PG_x5F_Glyph_x5F_W_5_" class="st1">
			<path class="st2" d="M-92.01,178.08l-16.44,20.71c-12.94,16.3-36.73,19.04-53.03,6.1c-5.22-4.15-9.26-9.61-11.68-15.82
				c-2.59-6.63,0.69-14.1,7.32-16.69c6.63-2.58,14.11,0.7,16.69,7.33c0.77,1.98,2.02,3.66,3.69,4.99c5.17,4.1,12.71,3.24,16.82-1.93
				l16.44-20.71c4.43-5.58,12.53-6.51,18.11-2.08C-88.51,164.4-87.58,172.5-92.01,178.08z M-192.02,164.62
				c1.37-6.99-3.18-13.76-10.17-15.13c-6.99-1.37-13.76,3.19-15.13,10.17c-5.85,29.86,5.28,60.12,29.04,78.98
				c34.91,27.72,85.87,21.86,113.58-13.06l16.44-20.71c4.43-5.58,3.5-13.68-2.08-18.11c-5.58-4.43-13.68-3.5-18.11,2.08
				l-16.44,20.71c-18.88,23.78-53.59,27.77-77.37,8.89C-188.44,205.6-196.01,184.97-192.02,164.62z M108.95-141.8
				c-53.13-39.66-130.58-28.83-172.64,24.15L-235.04,98.2c-20.99,26.44-30.14,59.49-25.78,93.05c4.2,32.29,20.4,60.93,45.76,81.06
				c0.99,0.78,1.99,1.56,3,2.31c53.13,39.66,130.58,28.83,172.64-24.15l13.12-16.52c20.25-25.51,15.97-62.73-9.54-82.98
				l-31.34-24.88c-5.58-4.43-13.68-3.5-18.11,2.08c-4.43,5.58-3.5,13.68,2.08,18.11l31.34,24.88c14.37,11.41,16.78,32.39,5.37,46.77
				l-13.12,16.52c-33.48,42.17-94.95,50.93-137.02,19.52c-21.44-16-35.16-39.47-38.62-66.04c-3.46-26.59,3.79-52.77,20.41-73.7
				L-43.5-101.62c33.48-42.17,94.95-50.93,137.02-19.52c21.47,15.97,35.17,39.47,38.62,66.04c3.46,26.59-3.79,52.77-20.4,73.7
				L11.09,145.38c-4.43,5.58-3.5,13.68,2.08,18.11c5.58,4.43,13.68,3.49,18.11-2.08L131.93,34.62
				c20.99-26.44,30.14-59.48,25.78-93.05C153.35-91.97,136.06-121.54,108.95-141.8z M37.8,83.88L98.17,7.83
				c27.72-34.91,21.86-85.87-13.05-113.58C50.21-133.47-0.75-127.62-28.47-92.71l-9.28,11.7c-4.43,5.58-3.49,13.69,2.08,18.11
				s13.68,3.49,18.11-2.08l9.28-11.7c18.88-23.78,53.58-27.77,77.36-8.89C92.87-66.69,96.86-31.98,77.98-8.2L17.61,67.85
				c-18.88,23.78-53.59,27.77-77.37,8.89c-5.45-4.32-9.95-9.54-13.39-15.49c-2.14-3.7-5.96-6.1-10.21-6.41
				c-4.26-0.31-8.39,1.5-11.05,4.84l-54.68,68.88c-2.97,3.74-8.43,4.37-12.17,1.4c-3.74-2.97-4.37-8.43-1.4-12.17L-44.84-30.61
				c4.43-5.58,3.49-13.69-2.08-18.11s-13.68-3.49-18.11,2.08l-117.82,148.41c-11.81,14.87-9.31,36.58,5.56,48.39
				c14.87,11.81,36.58,9.31,48.39-5.56l44.28-55.79c2.72,2.91,5.67,5.62,8.83,8.13C-40.88,124.65,10.08,118.8,37.8,83.88z
				 M163.88,63.69L37.26,223.19l-2.01,2.53l-42.39,53.4c-28.17,35.48-68.56,57.59-113.75,62.24c-43.81,4.51-86.58-7.99-120.9-35.24
				c-1.06-0.84-2.11-1.7-3.16-2.57C-314.03,246-323.92,140.85-267,69.14L-95.97-146.3c28.17-35.48,68.56-57.58,113.74-62.23
				c45.16-4.65,89.23,8.81,124.06,37.8C210.91-113.17,220.8-8.02,163.88,63.69z M15.06,209.69l2.01-2.53L143.69,47.66
				c48.29-60.83,40.05-149.91-18.37-198.58c-29.43-24.62-66.72-35.9-104.92-31.96c-38.22,3.93-72.38,22.62-96.19,52.62
				L-246.81,85.17c-48.29,60.83-40.05,149.91,18.36,198.58c29.49,24.5,66.72,35.89,104.91,31.96c38.22-3.93,72.39-22.62,96.2-52.62
				L15.06,209.69z M-55.09,10.15L5.29-65.91c12.94-16.3,36.73-19.04,53.04-6.1c16.3,12.94,19.03,36.73,6.09,53.04L4.04,57.09
				c-12.94,16.3-36.73,19.04-53.03,6.1C-65.3,50.24-68.03,26.45-55.09,10.15z M-34.9,26.18c-4.1,5.17-3.24,12.71,1.93,16.81
				c5.17,4.1,12.71,3.24,16.81-1.93l60.38-76.06c4.1-5.17,3.24-12.71-1.93-16.82c-5.17-4.1-12.71-3.24-16.82,1.93L-34.9,26.18z"/>
		</g>
		<g id="PG_x5F_Glyph_x5F_W_6_" class="st1">
			<path class="st2" d="M310.81,564.79l-16.44,20.71c-12.94,16.3-36.73,19.04-53.03,6.1c-5.22-4.15-9.26-9.61-11.68-15.82
				c-2.59-6.63,0.69-14.1,7.32-16.69c6.63-2.58,14.11,0.7,16.69,7.33c0.77,1.98,2.02,3.66,3.69,4.99c5.17,4.1,12.71,3.24,16.82-1.93
				l16.44-20.71c4.43-5.58,12.53-6.51,18.11-2.08C314.31,551.11,315.24,559.21,310.81,564.79z M210.8,551.33
				c1.37-6.99-3.18-13.76-10.17-15.13c-6.99-1.37-13.76,3.19-15.13,10.17c-5.85,29.86,5.28,60.12,29.04,78.98
				c34.91,27.72,85.87,21.86,113.58-13.06l16.44-20.71c4.43-5.58,3.5-13.68-2.08-18.11c-5.58-4.43-13.68-3.5-18.11,2.08
				l-16.44,20.71c-18.88,23.78-53.59,27.77-77.37,8.89C214.39,592.31,206.81,571.68,210.8,551.33z M511.77,244.91
				c-53.13-39.66-130.58-28.83-172.64,24.15L167.78,484.91c-20.99,26.44-30.14,59.49-25.78,93.05c4.2,32.29,20.4,60.93,45.76,81.06
				c0.99,0.78,1.99,1.56,3,2.31c53.13,39.66,130.58,28.83,172.64-24.15l13.12-16.52c20.25-25.51,15.97-62.73-9.54-82.98
				l-31.34-24.88c-5.58-4.43-13.68-3.5-18.11,2.08c-4.43,5.58-3.5,13.68,2.08,18.11l31.34,24.88c14.37,11.41,16.79,32.39,5.37,46.77
				l-13.12,16.52c-33.48,42.17-94.95,50.93-137.02,19.52c-21.44-16-35.16-39.47-38.62-66.04c-3.46-26.59,3.79-52.77,20.41-73.7
				l171.35-215.85c33.48-42.17,94.95-50.93,137.02-19.52c21.47,15.97,35.17,39.47,38.62,66.04c3.46,26.59-3.79,52.77-20.4,73.7
				L413.91,532.09c-4.43,5.58-3.5,13.68,2.08,18.11c5.58,4.43,13.68,3.49,18.11-2.08l100.65-126.78
				c20.99-26.44,30.14-59.48,25.78-93.05C556.17,294.74,538.88,265.16,511.77,244.91z M440.62,470.59L501,394.53
				c27.72-34.91,21.86-85.87-13.05-113.58c-34.92-27.72-85.87-21.86-113.59,13.05l-9.28,11.7c-4.43,5.58-3.49,13.69,2.08,18.11
				s13.68,3.49,18.11-2.08l9.28-11.7c18.88-23.78,53.58-27.77,77.36-8.89c23.78,18.88,27.77,53.58,8.89,77.36l-60.38,76.06
				c-18.88,23.78-53.59,27.77-77.37,8.89c-5.45-4.32-9.95-9.54-13.39-15.49c-2.14-3.7-5.96-6.1-10.21-6.41
				c-4.26-0.31-8.39,1.5-11.05,4.84l-54.68,68.88c-2.97,3.74-8.43,4.37-12.17,1.4c-3.74-2.97-4.37-8.43-1.4-12.17L357.98,356.1
				c4.43-5.58,3.49-13.69-2.08-18.11c-5.58-4.43-13.68-3.49-18.11,2.08L219.97,488.48c-11.81,14.87-9.31,36.58,5.56,48.39
				c14.87,11.81,36.58,9.31,48.39-5.56l44.28-55.79c2.72,2.91,5.67,5.62,8.83,8.13C361.95,511.36,412.9,505.51,440.62,470.59z
				 M566.71,450.4L440.08,609.9l-2.01,2.53l-42.39,53.4c-28.17,35.48-68.56,57.59-113.75,62.24c-43.81,4.51-86.58-7.99-120.9-35.24
				c-1.06-0.84-2.11-1.7-3.16-2.57C88.8,632.71,78.9,527.55,135.82,455.85l171.03-215.44c28.17-35.48,68.56-57.58,113.74-62.23
				c45.16-4.65,89.23,8.81,124.06,37.8C613.74,273.54,623.63,378.69,566.71,450.4z M417.88,596.4l2.01-2.53l126.63-159.51
				c48.29-60.83,40.05-149.91-18.37-198.58c-29.43-24.62-66.72-35.9-104.92-31.96c-38.22,3.93-72.38,22.62-96.19,52.62
				L156.02,471.88c-48.29,60.83-40.05,149.91,18.36,198.58c29.49,24.5,66.72,35.89,104.91,31.96c38.22-3.93,72.39-22.62,96.2-52.62
				L417.88,596.4z M347.73,396.86l60.38-76.06c12.94-16.3,36.73-19.04,53.04-6.1c16.3,12.94,19.03,36.73,6.09,53.04l-60.38,76.06
				c-12.94,16.3-36.73,19.04-53.03,6.1C337.52,436.95,334.79,413.16,347.73,396.86z M367.93,412.89c-4.1,5.17-3.24,12.71,1.93,16.81
				c5.17,4.1,12.71,3.24,16.82-1.93l60.38-76.06c4.1-5.17,3.24-12.71-1.93-16.82c-5.17-4.1-12.71-3.24-16.82,1.93L367.93,412.89z"/>
		</g>
	</g>
</g>
<g id="Button_2_" class="st3">
	<g class="st4">
		<path class="st5" d="M213.8,139.55H105.64c-22.7,0-41.1-18.4-41.1-41.1v0c0-22.7,18.4-41.1,41.1-41.1H213.8
			c22.7,0,41.1,18.4,41.1,41.1v0C254.9,121.15,236.5,139.55,213.8,139.55z"/>
	</g>
	<g class="st4">
		<path class="st6" d="M115.02,99.9c0,3.38-0.77,6.08-2.3,8.12c-1.53,2.03-3.6,3.05-6.21,3.05c-2.22,0-4.01-0.77-5.37-2.31v10.33
			h-5.86V88.74h5.43l0.2,2.15c1.42-1.7,3.27-2.55,5.55-2.55c2.7,0,4.8,1,6.3,3c1.5,2,2.25,4.76,2.25,8.27V99.9z M109.17,99.48
			c0-2.04-0.36-3.61-1.08-4.72c-0.72-1.11-1.77-1.66-3.15-1.66c-1.84,0-3.1,0.7-3.79,2.11v8.98c0.72,1.45,1.99,2.17,3.83,2.17
			C107.77,106.35,109.17,104.06,109.17,99.48z"/>
		<path class="st6" d="M130.97,94.23c-0.8-0.11-1.5-0.16-2.11-0.16c-2.22,0-3.67,0.75-4.36,2.25v14.35h-5.86V88.74h5.53l0.16,2.61
			c1.18-2.01,2.8-3.02,4.88-3.02c0.65,0,1.26,0.09,1.82,0.26L130.97,94.23z"/>
		<path class="st6" d="M132.15,99.5c0-2.17,0.42-4.11,1.26-5.82s2.04-3.02,3.62-3.95c1.57-0.93,3.4-1.4,5.48-1.4
			c2.96,0,5.37,0.91,7.24,2.72s2.91,4.27,3.13,7.38l0.04,1.5c0,3.36-0.94,6.06-2.82,8.1s-4.4,3.05-7.56,3.05s-5.68-1.01-7.57-3.04
			c-1.88-2.03-2.83-4.78-2.83-8.27V99.5z M138,99.91c0,2.08,0.39,3.68,1.18,4.78c0.78,1.1,1.9,1.65,3.36,1.65
			c1.42,0,2.53-0.54,3.32-1.63c0.8-1.09,1.2-2.83,1.2-5.23c0-2.04-0.4-3.63-1.2-4.75c-0.8-1.12-1.92-1.68-3.36-1.68
			c-1.43,0-2.54,0.56-3.32,1.67C138.39,95.84,138,97.57,138,99.91z"/>
		<path class="st6" d="M163.54,83.35v5.39h3.75v4.3h-3.75v10.94c0,0.81,0.15,1.39,0.47,1.74c0.31,0.35,0.91,0.53,1.78,0.53
			c0.65,0,1.22-0.05,1.72-0.14v4.44c-1.15,0.35-2.33,0.53-3.55,0.53c-4.11,0-6.2-2.07-6.28-6.22V93.03h-3.2v-4.3h3.2v-5.39H163.54z"
			/>
		<path class="st6" d="M180.64,111.07c-3.22,0-5.83-0.99-7.85-2.96c-2.02-1.97-3.03-4.6-3.03-7.88v-0.57c0-2.2,0.43-4.17,1.28-5.91
			c0.85-1.74,2.06-3.07,3.62-4.01s3.34-1.41,5.34-1.41c3,0,5.36,0.95,7.08,2.84s2.58,4.57,2.58,8.04v2.39H175.7
			c0.19,1.43,0.76,2.58,1.71,3.45c0.95,0.86,2.16,1.3,3.62,1.3c2.26,0,4.02-0.82,5.29-2.45l2.88,3.22
			c-0.88,1.24-2.07,2.21-3.57,2.91C184.13,110.72,182.46,111.07,180.64,111.07z M179.97,93.05c-1.16,0-2.1,0.39-2.83,1.18
			c-0.72,0.79-1.19,1.91-1.39,3.38h8.15v-0.47c-0.03-1.3-0.38-2.31-1.05-3.02C182.17,93.41,181.21,93.05,179.97,93.05z"/>
		<path class="st6" d="M202.1,106.35c1.08,0,1.96-0.3,2.63-0.89c0.68-0.59,1.03-1.38,1.05-2.37h5.49c-0.01,1.49-0.42,2.85-1.22,4.08
			c-0.8,1.24-1.89,2.2-3.27,2.88c-1.39,0.68-2.92,1.02-4.59,1.02c-3.13,0-5.61-1-7.42-2.99c-1.81-1.99-2.72-4.75-2.72-8.26v-0.38
			c0-3.38,0.9-6.07,2.7-8.09c1.8-2.01,4.26-3.02,7.4-3.02c2.74,0,4.94,0.78,6.6,2.34c1.65,1.56,2.5,3.64,2.52,6.23h-5.49
			c-0.03-1.14-0.38-2.07-1.05-2.78c-0.68-0.71-1.57-1.07-2.67-1.07c-1.36,0-2.4,0.5-3.09,1.49c-0.7,0.99-1.04,2.61-1.04,4.84v0.61
			c0,2.26,0.34,3.88,1.03,4.87S200.7,106.35,202.1,106.35z"/>
		<path class="st6" d="M221.64,83.35v5.39h3.75v4.3h-3.75v10.94c0,0.81,0.16,1.39,0.47,1.74c0.31,0.35,0.9,0.53,1.78,0.53
			c0.65,0,1.22-0.05,1.72-0.14v4.44c-1.15,0.35-2.33,0.53-3.55,0.53c-4.11,0-6.2-2.07-6.28-6.22V93.03h-3.2v-4.3h3.2v-5.39H221.64z"
			/>
	</g>
</g>
<g id="PG_x5F_Logo_x5F_W_3_" class="st3">
	<path class="st7" d="M240.72,409.79c0-0.29,0.1-0.54,0.3-0.74c0.2-0.2,0.45-0.3,0.74-0.3c0.27,0,0.52,0.1,0.73,0.3
		c0.21,0.2,0.32,0.45,0.32,0.74v11.52c0,0.29-0.1,0.54-0.3,0.74c-0.2,0.2-0.45,0.3-0.74,0.3c-0.27,0-0.52-0.1-0.73-0.3
		c-0.21-0.2-0.32-0.45-0.32-0.74V409.79z"/>
	<g class="st4">
		<g>
			<g>
				<path class="st8" d="M182.59,427.95c-0.85,0.64-1.85,0.95-2.99,0.95c-0.63-0.05-1.14-0.14-1.51-0.25
					c-0.37-0.11-0.71-0.27-1.02-0.48c-0.31-0.21-0.46-0.5-0.46-0.88c0-0.31,0.1-0.56,0.3-0.75c0.2-0.19,0.44-0.29,0.73-0.29
					c0.24,0,0.44,0.06,0.63,0.19c0.45,0.25,0.93,0.38,1.44,0.38c0.4,0,0.77-0.07,1.1-0.22c0.34-0.15,0.64-0.34,0.9-0.59
					c0.26-0.24,0.47-0.53,0.61-0.86c0.15-0.33,0.23-0.68,0.25-1.06v-7.78c0-0.29,0.1-0.54,0.3-0.73c0.2-0.2,0.44-0.3,0.73-0.3
					c0.27,0,0.51,0.1,0.72,0.3c0.21,0.2,0.31,0.44,0.31,0.73c0,0,0,6.46,0,7.87C184.63,425.69,183.89,427.03,182.59,427.95z"/>
				<path class="st8" d="M135.9,405.09c0-0.29,0.1-0.53,0.3-0.73c0.2-0.2,0.44-0.3,0.73-0.3c0.27,0,0.51,0.1,0.72,0.3
					c0.21,0.2,0.31,0.44,0.31,0.73v0.79c0,0.29-0.1,0.54-0.3,0.73c-0.2,0.2-0.44,0.3-0.73,0.3c-0.27,0-0.51-0.1-0.72-0.3
					c-0.21-0.2-0.31-0.44-0.31-0.73V405.09z M135.9,409.88c0-0.29,0.1-0.53,0.3-0.73c0.2-0.2,0.44-0.3,0.73-0.3
					c0.27,0,0.51,0.1,0.72,0.3c0.21,0.2,0.31,0.44,0.31,0.73v11.43c0,0.29-0.1,0.54-0.3,0.73c-0.2,0.2-0.44,0.3-0.73,0.3
					c-0.27,0-0.51-0.1-0.72-0.3c-0.21-0.2-0.31-0.44-0.31-0.73V409.88z"/>
				<g>
					<path class="st8" d="M126.88,410.15c0-0.28,0.1-0.52,0.29-0.72c0.2-0.19,0.43-0.29,0.72-0.29c0.23,0,0.44,0.08,0.63,0.23
						c0.19,0.15,0.31,0.35,0.36,0.6c0.83-0.62,1.81-0.93,2.93-0.93c0.62,0.05,1.11,0.13,1.48,0.24c0.36,0.11,0.7,0.26,1,0.47
						c0.3,0.2,0.45,0.49,0.45,0.87c0,0.3-0.1,0.55-0.29,0.73c-0.2,0.19-0.44,0.28-0.72,0.28c-0.23,0-0.44-0.06-0.61-0.19
						c-0.44-0.25-0.91-0.37-1.41-0.37c-0.39,0-0.75,0.07-1.08,0.21c-0.33,0.14-0.62,0.33-0.88,0.57c-0.26,0.24-0.46,0.52-0.6,0.84
						c-0.14,0.32-0.22,0.67-0.24,1.04v7.61c0,0.28-0.1,0.52-0.29,0.72c-0.2,0.2-0.44,0.29-0.72,0.29c-0.27,0-0.5-0.1-0.71-0.29
						c-0.2-0.2-0.31-0.43-0.31-0.72v-7.69V410.15z"/>
				</g>
				<path class="st8" d="M139.38,410.26c-0.05-0.13-0.08-0.26-0.08-0.41c0-0.25,0.09-0.49,0.27-0.71c0.18-0.22,0.43-0.33,0.73-0.33
					c0.2,0,0.39,0.05,0.56,0.16c0.17,0.11,0.3,0.26,0.39,0.46l4.03,9.39l4.03-9.39c0.18-0.42,0.5-0.63,0.95-0.63
					c0.31,0,0.55,0.11,0.73,0.33c0.18,0.22,0.27,0.45,0.27,0.71c0,0.15-0.03,0.28-0.08,0.41l-4.95,11.57
					c-0.2,0.42-0.52,0.63-0.95,0.63c-0.47,0-0.79-0.21-0.95-0.63L139.38,410.26z"/>
				<path class="st8" d="M151.6,413.64c0-0.67,0.13-1.31,0.38-1.91c0.25-0.6,0.61-1.12,1.06-1.57c0.45-0.44,0.98-0.79,1.57-1.05
					c0.59-0.25,1.23-0.38,1.92-0.38c0.67,0,1.31,0.13,1.91,0.38c0.6,0.25,1.12,0.6,1.57,1.05c0.44,0.44,0.8,0.97,1.06,1.57
					c0.26,0.6,0.39,1.23,0.39,1.91v7.68c0,0.29-0.1,0.54-0.31,0.73c-0.21,0.2-0.45,0.3-0.72,0.3c-0.25,0-0.48-0.08-0.67-0.23
					c-0.19-0.15-0.3-0.35-0.34-0.59c-0.83,0.62-1.8,0.93-2.88,0.93c-0.67,0-1.31-0.13-1.91-0.38c-0.6-0.25-1.12-0.6-1.56-1.05
					c-0.44-0.44-0.8-0.97-1.06-1.57c-0.26-0.6-0.39-1.23-0.39-1.91V413.64z M153.67,417.55c0,0.38,0.08,0.74,0.23,1.09
					c0.15,0.34,0.36,0.65,0.61,0.91c0.25,0.26,0.56,0.47,0.91,0.61c0.35,0.15,0.72,0.22,1.1,0.22c0.38,0,0.74-0.07,1.09-0.2
					c0.34-0.14,0.64-0.33,0.9-0.57c0.25-0.24,0.46-0.53,0.61-0.86c0.15-0.33,0.24-0.68,0.26-1.06v-4.06c0-0.38-0.08-0.74-0.23-1.09
					c-0.15-0.34-0.36-0.65-0.61-0.91c-0.25-0.26-0.56-0.47-0.91-0.61c-0.35-0.15-0.72-0.22-1.1-0.22c-0.4,0-0.77,0.07-1.12,0.22
					c-0.35,0.15-0.65,0.35-0.91,0.61c-0.26,0.26-0.47,0.57-0.61,0.91c-0.15,0.35-0.22,0.71-0.22,1.09V417.55z"/>
				<path class="st8" d="M163.36,413.64c0-0.69,0.13-1.33,0.39-1.93c0.26-0.6,0.63-1.12,1.09-1.55c0.46-0.44,1-0.78,1.61-1.03
					c0.61-0.25,1.26-0.38,1.95-0.38c0.13,0,0.38,0.02,0.75,0.07c0.37,0.05,0.78,0.17,1.24,0.37c0.45,0.2,0.9,0.5,1.35,0.91
					c0.44,0.41,0.81,0.98,1.1,1.7c0.05,0.15,0.08,0.27,0.08,0.38c0,0.29-0.1,0.54-0.3,0.73c-0.2,0.2-0.44,0.3-0.73,0.3
					c-0.22,0-0.41-0.06-0.59-0.18c-0.17-0.12-0.3-0.28-0.37-0.48c-0.25-0.54-0.62-0.97-1.09-1.28c-0.47-0.31-0.99-0.46-1.55-0.46
					c-0.4,0-0.77,0.07-1.12,0.22c-0.35,0.15-0.65,0.35-0.91,0.61c-0.26,0.26-0.47,0.57-0.61,0.91c-0.15,0.35-0.22,0.71-0.22,1.09
					v3.92c0,0.38,0.08,0.74,0.23,1.09c0.15,0.34,0.36,0.65,0.61,0.91c0.25,0.26,0.56,0.47,0.91,0.61c0.35,0.15,0.72,0.22,1.1,0.22
					c0.58,0,1.11-0.15,1.58-0.46c0.47-0.31,0.83-0.73,1.06-1.28c0.09-0.2,0.22-0.36,0.38-0.48c0.16-0.12,0.35-0.18,0.57-0.18
					c0.29,0,0.53,0.1,0.73,0.31c0.2,0.21,0.3,0.45,0.3,0.72c0,0.13-0.03,0.25-0.08,0.38c-0.36,0.8-0.8,1.41-1.31,1.82
					c-0.51,0.42-1,0.72-1.48,0.9c-0.48,0.18-0.89,0.28-1.22,0.3c-0.34,0.02-0.51,0.03-0.53,0.03c-0.67,0-1.31-0.13-1.91-0.38
					c-0.6-0.25-1.12-0.6-1.56-1.05c-0.44-0.44-0.8-0.97-1.06-1.57c-0.26-0.6-0.39-1.23-0.39-1.91V413.64z"/>
				<path class="st8" d="M200.87,409.88c0-0.29,0.1-0.53,0.3-0.73c0.2-0.2,0.44-0.3,0.73-0.3c0.27,0,0.51,0.1,0.72,0.3
					c0.21,0.2,0.31,0.44,0.31,0.73v7.68c0,0.38,0.07,0.74,0.22,1.09c0.15,0.34,0.35,0.65,0.61,0.91c0.26,0.26,0.57,0.47,0.91,0.61
					c0.34,0.15,0.72,0.22,1.12,0.22c0.38,0,0.75-0.07,1.1-0.22c0.35-0.15,0.66-0.35,0.91-0.61c0.25-0.26,0.46-0.57,0.61-0.91
					c0.15-0.34,0.23-0.71,0.23-1.09v-7.68c0-0.29,0.1-0.53,0.3-0.73c0.2-0.2,0.44-0.3,0.73-0.3c0.27,0,0.51,0.1,0.72,0.3
					c0.21,0.2,0.31,0.44,0.31,0.73v7.68c0,0.67-0.13,1.31-0.39,1.91c-0.26,0.6-0.62,1.12-1.06,1.57c-0.44,0.44-0.97,0.79-1.56,1.05
					c-0.6,0.25-1.23,0.38-1.91,0.38c-0.69,0-1.33-0.13-1.92-0.38c-0.59-0.25-1.11-0.6-1.56-1.05c-0.45-0.44-0.81-0.97-1.06-1.57
					c-0.25-0.6-0.38-1.23-0.38-1.91V409.88z"/>
				<path class="st8" d="M212.65,413.64c0-0.67,0.13-1.31,0.38-1.91c0.25-0.6,0.61-1.12,1.06-1.57c0.45-0.44,0.98-0.79,1.57-1.05
					c0.59-0.25,1.23-0.38,1.92-0.38c0.67,0,1.31,0.13,1.91,0.38c0.6,0.25,1.12,0.6,1.57,1.05c0.44,0.44,0.8,0.97,1.06,1.57
					c0.26,0.6,0.39,1.23,0.39,1.91v7.68c0,0.29-0.1,0.54-0.31,0.73c-0.21,0.2-0.45,0.3-0.72,0.3c-0.25,0-0.48-0.08-0.67-0.23
					c-0.19-0.15-0.3-0.35-0.34-0.59c-0.83,0.62-1.8,0.93-2.88,0.93c-0.67,0-1.31-0.13-1.91-0.38c-0.6-0.25-1.12-0.6-1.56-1.05
					c-0.44-0.44-0.8-0.97-1.06-1.57c-0.26-0.6-0.39-1.23-0.39-1.91V413.64z M214.72,417.55c0,0.38,0.08,0.74,0.23,1.09
					c0.15,0.34,0.36,0.65,0.61,0.91c0.25,0.26,0.56,0.47,0.91,0.61c0.35,0.15,0.72,0.22,1.1,0.22c0.38,0,0.74-0.07,1.09-0.2
					c0.34-0.14,0.64-0.33,0.9-0.57c0.25-0.24,0.46-0.53,0.61-0.86c0.15-0.33,0.24-0.68,0.26-1.06v-4.06c0-0.38-0.08-0.74-0.23-1.09
					c-0.15-0.34-0.36-0.65-0.61-0.91c-0.25-0.26-0.56-0.47-0.91-0.61c-0.35-0.15-0.72-0.22-1.1-0.22c-0.4,0-0.77,0.07-1.12,0.22
					c-0.35,0.15-0.65,0.35-0.91,0.61c-0.26,0.26-0.47,0.57-0.61,0.91c-0.15,0.35-0.22,0.71-0.22,1.09V417.55z"/>
				<g>
					<path class="st8" d="M224.52,410.15c0-0.28,0.1-0.52,0.29-0.72c0.2-0.19,0.43-0.29,0.72-0.29c0.23,0,0.44,0.08,0.63,0.23
						c0.19,0.15,0.31,0.35,0.36,0.6c0.83-0.62,1.81-0.93,2.93-0.93c0.62,0.05,1.11,0.13,1.48,0.24c0.36,0.11,0.7,0.26,1,0.47
						c0.3,0.2,0.45,0.49,0.45,0.87c0,0.3-0.1,0.55-0.29,0.73c-0.2,0.19-0.44,0.28-0.72,0.28c-0.23,0-0.44-0.06-0.61-0.19
						c-0.44-0.25-0.91-0.37-1.41-0.37c-0.39,0-0.75,0.07-1.08,0.21c-0.33,0.14-0.62,0.33-0.88,0.57c-0.26,0.24-0.46,0.52-0.6,0.84
						c-0.14,0.32-0.22,0.67-0.24,1.04v7.61c0,0.28-0.1,0.52-0.29,0.72c-0.2,0.2-0.44,0.29-0.72,0.29c-0.27,0-0.5-0.1-0.71-0.29
						c-0.2-0.2-0.31-0.43-0.31-0.72v-7.69V410.15z"/>
				</g>
				<path class="st8" d="M240.74,405.09c0-0.29,0.1-0.53,0.3-0.73c0.2-0.2,0.44-0.3,0.73-0.3c0.27,0,0.51,0.1,0.72,0.3
					c0.21,0.2,0.31,0.44,0.31,0.73v12.47c0,0.67-0.13,1.31-0.39,1.91c-0.26,0.6-0.62,1.12-1.06,1.57c-0.44,0.44-0.97,0.79-1.57,1.05
					c-0.6,0.25-1.23,0.38-1.91,0.38c-0.69,0-1.33-0.13-1.92-0.38c-0.59-0.25-1.11-0.6-1.57-1.05c-0.45-0.44-0.81-0.97-1.06-1.57
					c-0.25-0.6-0.38-1.23-0.38-1.91v-3.92c0-0.67,0.13-1.31,0.39-1.91c0.26-0.6,0.62-1.12,1.06-1.57c0.44-0.44,0.97-0.79,1.56-1.05
					c0.6-0.25,1.23-0.38,1.91-0.38c0.53,0,1.03,0.08,1.51,0.25c0.48,0.16,0.93,0.39,1.35,0.68V405.09z M235.03,417.55
					c0,0.38,0.07,0.74,0.22,1.09c0.15,0.34,0.35,0.65,0.61,0.91c0.26,0.26,0.57,0.47,0.91,0.61c0.34,0.15,0.72,0.22,1.12,0.22
					c0.38,0,0.75-0.07,1.1-0.22c0.35-0.15,0.66-0.35,0.91-0.61c0.25-0.26,0.46-0.57,0.61-0.91c0.15-0.34,0.23-0.71,0.23-1.09v-3.92
					c0-0.38-0.07-0.74-0.22-1.09c-0.15-0.34-0.35-0.65-0.61-0.91c-0.26-0.26-0.57-0.47-0.91-0.61c-0.34-0.15-0.72-0.22-1.12-0.22
					c-0.38,0-0.75,0.07-1.1,0.22c-0.35,0.15-0.66,0.35-0.91,0.61c-0.25,0.26-0.46,0.57-0.61,0.91c-0.15,0.35-0.23,0.71-0.23,1.09
					V417.55z"/>
				<path class="st8" d="M174.78,409.88c0-0.29,0.1-0.53,0.3-0.73c0.2-0.2,0.44-0.3,0.73-0.3c0.27,0,0.51,0.1,0.72,0.3
					c0.21,0.2,0.31,0.44,0.31,0.73v7.68c0,0.38,0.07,0.74,0.22,1.09c0.15,0.34,0.35,0.65,0.61,0.91c0.26,0.26,0.57,0.47,0.91,0.61
					c0.34,0.15,0.72,0.22,1.12,0.22c0.38,0,0.75-0.07,1.1-0.22c0.35-0.15,0.66-0.35,0.91-0.61c0.25-0.26,0.46-0.57,0.61-0.91
					c0.15-0.34,0.23-0.71,0.23-1.09v-7.68c0-0.29,0.1-0.53,0.3-0.73c0.2-0.2,0.44-0.3,0.73-0.3c0.27,0,0.51,0.1,0.72,0.3
					c0.21,0.2,0.31,0.44,0.31,0.73v7.68c0,0.67-0.13,1.31-0.39,1.91c-0.26,0.6-0.62,1.12-1.06,1.57c-0.44,0.44-0.97,0.79-1.56,1.05
					c-0.6,0.25-1.23,0.38-1.91,0.38c-0.69,0-1.33-0.13-1.92-0.38c-0.59-0.25-1.11-0.6-1.56-1.05c-0.45-0.44-0.81-0.97-1.06-1.57
					c-0.25-0.6-0.38-1.23-0.38-1.91V409.88z"/>
				<path class="st8" d="M197.96,413.22h-4.31c-0.58,0-1.05,0.44-1.05,1c0,0.58,0.47,1.05,1.05,1.05h3.43v1.63
					c0,2.22-2.01,3.89-4.13,3.89c-2.35,0-4.32-1.6-4.32-4.32v-6.2c0-2.53,1.91-4.32,4.25-4.32c1.98,0,3.49,1.31,4.08,2.95
					c0.2,0.34,0.47,0.55,0.93,0.55c0.81,0,1.31-0.65,0.92-1.58c-0.66-1.99-2.7-4.04-5.94-4.04c-3.72,0-6.39,2.94-6.39,6.32v6.46
					c0,3.41,2.69,6.33,6.39,6.33c3.35,0,6.18-2.61,6.18-5.6v-3.11C199.06,413.6,198.55,413.22,197.96,413.22z"/>
			</g>
		</g>
		<path class="st8" d="M240.74,409.88c0-0.29,0.1-0.53,0.3-0.73c0.2-0.2,0.44-0.3,0.73-0.3c0.27,0,0.51,0.1,0.72,0.3
			c0.21,0.2,0.31,0.44,0.31,0.73v11.43c0,0.29-0.1,0.54-0.3,0.73c-0.2,0.2-0.44,0.3-0.73,0.3c-0.27,0-0.51-0.1-0.72-0.3
			c-0.21-0.2-0.31-0.44-0.31-0.73V409.88z"/>
		<g>
			<path class="st8" d="M113.79,405.79c0-0.28,0.1-0.52,0.29-0.72c0.2-0.2,0.43-0.29,0.72-0.29h4.08h0.03
				c0.87,0,1.69,0.16,2.45,0.49c0.76,0.33,1.43,0.77,2.01,1.33c0.58,0.56,1.03,1.22,1.37,1.98c0.34,0.76,0.51,1.58,0.51,2.45
				c0,0.87-0.17,1.68-0.51,2.44c-0.34,0.75-0.79,1.42-1.36,1.98c-0.57,0.57-1.24,1.02-2.01,1.34c-0.77,0.33-1.59,0.49-2.46,0.49
				h-3.09v4.05c0,0.28-0.1,0.52-0.29,0.72c-0.2,0.2-0.43,0.29-0.72,0.29c-0.27,0-0.5-0.1-0.71-0.29c-0.2-0.2-0.31-0.43-0.31-0.72
				V405.79z M115.81,406.8v8.46h3.09c0.6,0,1.17-0.11,1.69-0.33c0.52-0.22,0.98-0.52,1.37-0.91c0.39-0.38,0.7-0.83,0.92-1.34
				c0.22-0.51,0.33-1.06,0.33-1.65c0-0.59-0.12-1.14-0.35-1.65c-0.23-0.51-0.54-0.96-0.93-1.34c-0.39-0.38-0.85-0.68-1.37-0.91
				c-0.52-0.22-1.08-0.33-1.66-0.33H115.81z"/>
		</g>
	</g>
	<path class="st7" d="M93.63,423.01v2.11c0,1.66-1.35,3.01-3.01,3.01c-0.53,0-1.06-0.14-1.51-0.41c-0.49-0.29-0.66-0.92-0.37-1.41
		c0.29-0.49,0.92-0.66,1.41-0.37c0.15,0.09,0.31,0.13,0.48,0.13c0.53,0,0.95-0.43,0.95-0.95v-2.11c0-0.57,0.46-1.03,1.03-1.03
		S93.63,422.44,93.63,423.01z M86.71,427.13c-0.26-0.5-0.88-0.7-1.39-0.44c-0.5,0.26-0.7,0.88-0.44,1.39
		c1.11,2.15,3.31,3.49,5.73,3.49c3.55,0,6.45-2.89,6.45-6.45v-2.11c0-0.57-0.46-1.03-1.03-1.03s-1.03,0.46-1.03,1.03v2.11
		c0,2.42-1.97,4.39-4.39,4.39C88.97,429.51,87.47,428.59,86.71,427.13z M90.32,393.07c-5.29,0.16-9.58,4.67-9.58,10.07v21.98
		c0,2.69,1.07,5.21,3,7.09c1.86,1.81,4.29,2.79,6.88,2.79c0.1,0,0.2,0,0.3,0c5.29-0.16,9.58-4.67,9.58-10.07v-1.68
		c0-2.6-2.11-4.71-4.71-4.71H92.6c-0.57,0-1.03,0.46-1.03,1.03c0,0.57,0.46,1.03,1.03,1.03h3.19c1.46,0,2.65,1.19,2.65,2.65v1.68
		c0,4.29-3.4,7.89-7.59,8.01c-2.13,0.06-4.15-0.72-5.69-2.21c-1.53-1.49-2.38-3.48-2.38-5.61v-21.98c0-4.29,3.4-7.89,7.59-8.01
		c2.13-0.07,4.15,0.72,5.69,2.21c1.53,1.49,2.38,3.48,2.38,5.61v12.91c0,0.57,0.46,1.03,1.03,1.03s1.03-0.46,1.03-1.03v-12.91
		c0-2.69-1.07-5.21-3-7.09C95.56,393.98,93.01,392.99,90.32,393.07z M97.06,410.69v-7.74c0-3.55-2.89-6.45-6.45-6.45
		c-3.55,0-6.45,2.89-6.45,6.45v1.19c0,0.57,0.46,1.03,1.03,1.03s1.03-0.46,1.03-1.03v-1.19c0-2.42,1.97-4.39,4.39-4.39
		c2.42,0,4.39,1.97,4.39,4.39v7.74c0,2.42-1.97,4.39-4.39,4.39c-0.55,0-1.09-0.1-1.6-0.3c-0.32-0.12-0.67-0.09-0.96,0.11
		c-0.28,0.19-0.45,0.51-0.45,0.85v7.01c0,0.38-0.31,0.69-0.69,0.69c-0.38,0-0.69-0.31-0.69-0.69v-15.11c0-0.57-0.46-1.03-1.03-1.03
		s-1.03,0.46-1.03,1.03v15.11c0,1.51,1.23,2.75,2.75,2.75c1.51,0,2.75-1.23,2.75-2.75l0-5.68c0.31,0.05,0.63,0.07,0.95,0.07
		C94.17,417.14,97.06,414.24,97.06,410.69z M103.94,403.18v16.24v0.26v5.44c0,3.61-1.43,7-4.02,9.53c-2.51,2.45-5.8,3.79-9.3,3.79
		c-0.11,0-0.22,0-0.32,0c-7.17-0.17-13-6.25-13-13.55v-21.94c0-3.61,1.43-7,4.02-9.53c2.59-2.53,6.01-3.87,9.62-3.79
		C98.1,389.8,103.94,395.87,103.94,403.18z M101.88,419.67v-0.26v-16.24c0-6.19-4.93-11.35-10.99-11.49
		c-3.06-0.08-5.95,1.07-8.14,3.21c-2.19,2.14-3.4,5-3.4,8.06v21.94c0,6.19,4.93,11.35,10.99,11.49c3.06,0.07,5.95-1.07,8.14-3.21
		c2.19-2.14,3.4-5,3.4-8.06V419.67z M87.61,410.69v-7.74c0-1.66,1.35-3.01,3.01-3.01c1.66,0,3.01,1.35,3.01,3.01v7.74
		c0,1.66-1.35,3.01-3.01,3.01C88.96,413.7,87.61,412.35,87.61,410.69z M89.66,410.69c0,0.53,0.43,0.95,0.95,0.95
		c0.53,0,0.95-0.43,0.95-0.95v-7.74c0-0.53-0.43-0.95-0.95-0.95c-0.53,0-0.95,0.43-0.95,0.95V410.69z"/>
	<g class="st4">
		<path class="st8" d="M244.22,404.47h-0.38v-0.27h1.09v0.27h-0.39v1.15h-0.32V404.47z"/>
		<path class="st8" d="M246.3,405.08c-0.01-0.17-0.01-0.38-0.01-0.58h-0.01c-0.04,0.18-0.1,0.38-0.16,0.55l-0.17,0.56h-0.25
			l-0.15-0.55c-0.05-0.17-0.09-0.37-0.13-0.56h0c-0.01,0.19-0.01,0.41-0.03,0.59l-0.03,0.54h-0.3l0.09-1.42h0.43l0.14,0.48
			c0.04,0.16,0.09,0.34,0.12,0.51h0.01c0.04-0.16,0.09-0.35,0.14-0.51l0.15-0.47h0.42l0.08,1.42h-0.31L246.3,405.08z"/>
	</g>
</g>
<path class="st9" d="M90.44,160.29h139.12c0.55,0,1-0.45,1-1l0,0c0-0.55-0.45-1-1-1H90.44c-0.55,0-1,0.45-1,1l0,0
	C89.44,159.85,89.89,160.29,90.44,160.29z"/>
<path class="st9" d="M90.44,313.19h139.12c0.55,0,1-0.45,1-1l0,0c0-0.55-0.45-1-1-1H90.44c-0.55,0-1,0.45-1,1l0,0
	C89.44,312.75,89.89,313.19,90.44,313.19z"/>
<g class="st3">
	<path class="st10" d="M94.95,28.98l3.29,9.28l3.27-9.28h3.46v12.8h-2.65v-3.5l0.26-6.04l-3.45,9.54h-1.81l-3.45-9.53l0.26,6.03v3.5
		h-2.64v-12.8H94.95z"/>
	<path class="st10" d="M110.66,38.18l1.76-5.92h2.72l-3.82,10.99l-0.21,0.5c-0.57,1.24-1.51,1.86-2.81,1.86
		c-0.37,0-0.74-0.06-1.12-0.17v-1.92l0.39,0.01c0.48,0,0.84-0.07,1.08-0.22s0.42-0.39,0.56-0.73l0.3-0.78l-3.33-9.54h2.73
		L110.66,38.18z"/>
	<path class="st10" d="M120.61,29.81c0-0.38,0.13-0.69,0.38-0.94s0.6-0.37,1.04-0.37c0.43,0,0.78,0.12,1.04,0.37
		s0.39,0.56,0.39,0.94c0,0.39-0.13,0.7-0.39,0.95s-0.6,0.37-1.03,0.37S121.26,31,121,30.76S120.61,30.19,120.61,29.81z
		 M123.31,41.78h-2.55v-9.51h2.55V41.78z"/>
	<path class="st10" d="M125,36.95c0-1.48,0.33-2.66,1-3.54s1.57-1.32,2.73-1.32c0.93,0,1.69,0.35,2.29,1.04v-4.85h2.55v13.5h-2.29
		l-0.12-1.01c-0.63,0.79-1.45,1.19-2.44,1.19c-1.12,0-2.02-0.44-2.69-1.32S125,38.52,125,36.95z M127.54,37.14
		c0,0.89,0.16,1.58,0.47,2.05c0.31,0.48,0.76,0.71,1.35,0.71c0.79,0,1.34-0.33,1.66-0.99v-3.76c-0.32-0.66-0.86-0.99-1.64-0.99
		C128.15,34.16,127.54,35.15,127.54,37.14z"/>
	<path class="st10" d="M139.92,41.95c-1.39,0-2.53-0.43-3.41-1.28s-1.31-2-1.31-3.42V37c0-0.96,0.18-1.81,0.55-2.56
		s0.89-1.33,1.57-1.74s1.45-0.61,2.32-0.61c1.3,0,2.32,0.41,3.07,1.23s1.12,1.98,1.12,3.49v1.04h-6.06
		c0.08,0.62,0.33,1.12,0.74,1.49s0.94,0.56,1.57,0.56c0.98,0,1.74-0.35,2.29-1.06l1.25,1.4c-0.38,0.54-0.9,0.96-1.55,1.26
		S140.71,41.95,139.92,41.95z M139.63,34.14c-0.5,0-0.91,0.17-1.23,0.51s-0.51,0.83-0.6,1.47h3.53v-0.2c-0.01-0.56-0.16-1-0.46-1.31
		S140.17,34.14,139.63,34.14z"/>
	<path class="st10" d="M147.61,32.27l0.08,1.1c0.68-0.85,1.59-1.27,2.73-1.27c1.01,0,1.76,0.3,2.25,0.89s0.74,1.48,0.76,2.65v6.14
		h-2.54V35.7c0-0.54-0.12-0.93-0.35-1.17s-0.62-0.36-1.17-0.36c-0.71,0-1.25,0.3-1.61,0.91v6.71h-2.54v-9.51H147.61z"/>
	<path class="st10" d="M158.39,29.93v2.34h1.63v1.86h-1.63v4.75c0,0.35,0.07,0.6,0.2,0.76s0.39,0.23,0.77,0.23
		c0.28,0,0.53-0.02,0.75-0.06v1.92c-0.5,0.15-1.01,0.23-1.54,0.23c-1.78,0-2.69-0.9-2.72-2.7v-5.12h-1.39v-1.86h1.39v-2.34H158.39z"
		/>
	<path class="st10" d="M161.41,29.81c0-0.38,0.13-0.69,0.38-0.94s0.6-0.37,1.04-0.37c0.43,0,0.78,0.12,1.04,0.37
		s0.39,0.56,0.39,0.94c0,0.39-0.13,0.7-0.39,0.95s-0.6,0.37-1.03,0.37s-0.77-0.12-1.03-0.37S161.41,30.19,161.41,29.81z
		 M164.11,41.78h-2.55v-9.51h2.55V41.78z"/>
	<path class="st10" d="M169.25,29.93v2.34h1.63v1.86h-1.63v4.75c0,0.35,0.07,0.6,0.2,0.76s0.39,0.23,0.77,0.23
		c0.28,0,0.53-0.02,0.75-0.06v1.92c-0.5,0.15-1.01,0.23-1.54,0.23c-1.78,0-2.69-0.9-2.72-2.7v-5.12h-1.39v-1.86h1.39v-2.34H169.25z"
		/>
	<path class="st10" d="M175.84,38.18l1.76-5.92h2.72l-3.82,10.99l-0.21,0.5c-0.57,1.24-1.51,1.86-2.81,1.86
		c-0.37,0-0.74-0.06-1.12-0.17v-1.92l0.39,0.01c0.48,0,0.84-0.07,1.08-0.22s0.42-0.39,0.56-0.73l0.3-0.78l-3.33-9.54h2.73
		L175.84,38.18z"/>
	<path class="st10" d="M189.76,39.91c0.47,0,0.85-0.13,1.14-0.39s0.45-0.6,0.46-1.03h2.38c-0.01,0.64-0.18,1.23-0.53,1.77
		s-0.82,0.95-1.42,1.25s-1.26,0.44-1.99,0.44c-1.36,0-2.43-0.43-3.22-1.3s-1.18-2.06-1.18-3.58v-0.17c0-1.46,0.39-2.63,1.17-3.51
		s1.85-1.31,3.21-1.31c1.19,0,2.14,0.34,2.86,1.02s1.08,1.58,1.09,2.7h-2.38c-0.01-0.49-0.16-0.9-0.46-1.21s-0.68-0.46-1.16-0.46
		c-0.59,0-1.04,0.22-1.34,0.65s-0.45,1.13-0.45,2.1v0.26c0,0.98,0.15,1.68,0.45,2.11C188.7,39.69,189.15,39.91,189.76,39.91z"/>
	<path class="st10" d="M200.7,41.78c-0.12-0.23-0.2-0.51-0.25-0.85c-0.62,0.69-1.42,1.03-2.4,1.03c-0.93,0-1.7-0.27-2.32-0.81
		s-0.92-1.22-0.92-2.04c0-1.01,0.37-1.78,1.12-2.32s1.83-0.81,3.24-0.82h1.17v-0.54c0-0.44-0.11-0.79-0.34-1.05s-0.58-0.4-1.07-0.4
		c-0.43,0-0.76,0.1-1.01,0.31s-0.36,0.49-0.36,0.84h-2.54c0-0.55,0.17-1.06,0.51-1.53s0.82-0.84,1.44-1.1s1.32-0.4,2.09-0.4
		c1.17,0,2.1,0.29,2.79,0.88s1.03,1.42,1.03,2.48v4.12c0.01,0.9,0.13,1.58,0.38,2.05v0.15H200.7z M198.6,40.01
		c0.38,0,0.72-0.08,1.04-0.25s0.55-0.39,0.7-0.67v-1.63h-0.95c-1.27,0-1.95,0.44-2.03,1.32l-0.01,0.15c0,0.32,0.11,0.58,0.33,0.78
		S198.21,40.01,198.6,40.01z"/>
	<path class="st10" d="M207.18,32.27l0.08,1.1c0.68-0.85,1.59-1.27,2.73-1.27c1.01,0,1.76,0.3,2.25,0.89s0.74,1.48,0.76,2.65v6.14
		h-2.54V35.7c0-0.54-0.12-0.93-0.35-1.17s-0.62-0.36-1.17-0.36c-0.71,0-1.25,0.3-1.61,0.91v6.71h-2.54v-9.51H207.18z"/>
	<path class="st10" d="M215.05,40.53c0-0.4,0.14-0.73,0.41-0.98s0.61-0.38,1.02-0.38c0.42,0,0.76,0.13,1.03,0.38
		s0.41,0.58,0.41,0.98c0,0.4-0.13,0.72-0.4,0.97s-0.62,0.37-1.04,0.37c-0.42,0-0.76-0.12-1.03-0.37S215.05,40.93,215.05,40.53z"/>
	<path class="st10" d="M220.28,40.53c0-0.4,0.14-0.73,0.41-0.98s0.61-0.38,1.02-0.38c0.42,0,0.76,0.13,1.03,0.38
		s0.41,0.58,0.41,0.98c0,0.4-0.13,0.72-0.4,0.97s-0.62,0.37-1.04,0.37c-0.42,0-0.76-0.12-1.03-0.37S220.28,40.93,220.28,40.53z"/>
	<path class="st10" d="M225.51,40.53c0-0.4,0.14-0.73,0.41-0.98s0.61-0.38,1.02-0.38c0.42,0,0.76,0.13,1.03,0.38
		s0.41,0.58,0.41,0.98c0,0.4-0.13,0.72-0.4,0.97s-0.62,0.37-1.04,0.37c-0.42,0-0.76-0.12-1.03-0.37S225.51,40.93,225.51,40.53z"/>
</g>
<g class="st3">
	<path class="st10" d="M129.94,191.77c-0.16,2.22-0.98,3.97-2.46,5.25s-3.43,1.92-5.85,1.92c-2.65,0-4.73-0.89-6.25-2.67
		s-2.28-4.23-2.28-7.34v-1.26c0-1.99,0.35-3.74,1.05-5.25c0.7-1.51,1.7-2.67,3-3.48c1.3-0.81,2.81-1.21,4.53-1.21
		c2.38,0,4.3,0.64,5.76,1.92c1.46,1.28,2.3,3.07,2.53,5.38h-4.26c-0.1-1.33-0.48-2.3-1.11-2.9c-0.64-0.6-1.61-0.9-2.92-0.9
		c-1.42,0-2.48,0.51-3.19,1.53c-0.71,1.02-1.07,2.59-1.09,4.73v1.56c0,2.23,0.34,3.86,1.01,4.89c0.68,1.03,1.74,1.55,3.2,1.55
		c1.31,0,2.3-0.3,2.94-0.9c0.65-0.6,1.02-1.53,1.11-2.79H129.94z"/>
	<path class="st10" d="M136.79,198.65h-4.11v-21.79h4.11V198.65z"/>
	<path class="st10" d="M140.14,179.32c0-0.61,0.21-1.12,0.62-1.52s0.97-0.6,1.68-0.6c0.7,0,1.26,0.2,1.67,0.6
		c0.42,0.4,0.62,0.9,0.62,1.52c0,0.62-0.21,1.14-0.63,1.53c-0.42,0.4-0.98,0.6-1.67,0.6s-1.25-0.2-1.67-0.6
		C140.35,180.46,140.14,179.95,140.14,179.32z M144.5,198.65h-4.11V183.3h4.11V198.65z"/>
	<path class="st10" d="M154.26,195.63c0.76,0,1.37-0.21,1.84-0.62c0.47-0.42,0.72-0.97,0.74-1.66h3.84
		c-0.01,1.04-0.29,1.99-0.85,2.86c-0.56,0.87-1.32,1.54-2.29,2.01c-0.97,0.48-2.04,0.72-3.21,0.72c-2.19,0-3.93-0.7-5.19-2.09
		c-1.27-1.39-1.9-3.32-1.9-5.78v-0.27c0-2.36,0.63-4.25,1.89-5.66c1.26-1.41,2.98-2.11,5.18-2.11c1.92,0,3.46,0.55,4.62,1.64
		c1.16,1.09,1.75,2.55,1.77,4.36h-3.84c-0.02-0.8-0.27-1.45-0.74-1.95c-0.47-0.5-1.1-0.75-1.87-0.75c-0.96,0-1.68,0.35-2.16,1.04
		s-0.73,1.83-0.73,3.39v0.43c0,1.58,0.24,2.72,0.72,3.41S153.28,195.63,154.26,195.63z"/>
	<path class="st10" d="M168.6,192.49l-1.48,1.47v4.68h-4.1v-21.79h4.1v12.07l0.79-1.02l3.93-4.61h4.92l-5.55,6.4l6.03,8.95h-4.71
		L168.6,192.49z"/>
	<path class="st10" d="M190.69,179.52v3.77h2.62v3.01h-2.62v7.66c0,0.57,0.11,0.97,0.33,1.22c0.22,0.25,0.63,0.37,1.25,0.37
		c0.45,0,0.86-0.03,1.21-0.1v3.11c-0.8,0.25-1.63,0.37-2.48,0.37c-2.88,0-4.34-1.45-4.4-4.36v-8.27h-2.24v-3.01h2.24v-3.77H190.69z"
		/>
	<path class="st10" d="M194.54,190.83c0-1.52,0.29-2.88,0.88-4.07c0.59-1.19,1.43-2.11,2.53-2.77c1.1-0.65,2.38-0.98,3.84-0.98
		c2.07,0,3.76,0.63,5.07,1.9s2.04,2.99,2.19,5.16l0.03,1.05c0,2.36-0.66,4.24-1.97,5.67c-1.31,1.42-3.08,2.13-5.29,2.13
		c-2.21,0-3.98-0.71-5.3-2.13s-1.98-3.35-1.98-5.79V190.83z M198.64,191.12c0,1.46,0.27,2.57,0.82,3.35
		c0.55,0.77,1.33,1.16,2.36,1.16c0.99,0,1.77-0.38,2.33-1.14c0.56-0.76,0.84-1.98,0.84-3.66c0-1.43-0.28-2.54-0.84-3.33
		c-0.56-0.79-1.34-1.18-2.36-1.18c-1,0-1.78,0.39-2.33,1.17C198.91,188.27,198.64,189.48,198.64,191.12z"/>
	<path class="st10" d="M96.5,233.52h-4.11v-21.79h4.11V233.52z"/>
	<path class="st10" d="M106.94,233.8c-2.25,0-4.08-0.69-5.5-2.07s-2.12-3.22-2.12-5.52v-0.4c0-1.54,0.3-2.92,0.89-4.13
		c0.6-1.22,1.44-2.15,2.53-2.81s2.34-0.99,3.74-0.99c2.1,0,3.75,0.66,4.96,1.99c1.21,1.32,1.81,3.2,1.81,5.63v1.67h-9.77
		c0.13,1,0.53,1.81,1.2,2.41c0.67,0.61,1.51,0.91,2.53,0.91c1.58,0,2.81-0.57,3.7-1.72l2.01,2.26c-0.61,0.87-1.45,1.55-2.5,2.04
		C109.38,233.56,108.22,233.8,106.94,233.8z M106.47,221.19c-0.81,0-1.47,0.28-1.98,0.83c-0.51,0.55-0.83,1.34-0.97,2.37h5.7v-0.33
		c-0.02-0.91-0.26-1.62-0.74-2.12C108.02,221.44,107.34,221.19,106.47,221.19z"/>
	<path class="st10" d="M124.48,233.52c-0.19-0.37-0.33-0.83-0.41-1.38c-0.99,1.11-2.28,1.66-3.87,1.66c-1.5,0-2.75-0.44-3.74-1.31
		s-1.48-1.97-1.48-3.29c0-1.63,0.6-2.88,1.81-3.75c1.21-0.87,2.95-1.31,5.23-1.32h1.89v-0.88c0-0.71-0.18-1.28-0.55-1.7
		c-0.36-0.43-0.94-0.64-1.72-0.64c-0.69,0-1.23,0.17-1.62,0.5s-0.59,0.79-0.59,1.36h-4.1c0-0.89,0.27-1.71,0.82-2.47
		c0.55-0.76,1.32-1.35,2.33-1.78c1-0.43,2.13-0.65,3.38-0.65c1.89,0,3.39,0.48,4.5,1.43c1.11,0.95,1.67,2.29,1.67,4.01v6.65
		c0.01,1.46,0.21,2.56,0.61,3.31v0.24H124.48z M121.09,230.66c0.6,0,1.16-0.13,1.67-0.4s0.89-0.63,1.13-1.08v-2.64h-1.53
		c-2.05,0-3.15,0.71-3.28,2.13l-0.01,0.24c0,0.51,0.18,0.93,0.54,1.26S120.46,230.66,121.09,230.66z"/>
	<path class="st10" d="M139.79,222.01c-0.56-0.08-1.05-0.11-1.48-0.11c-1.55,0-2.57,0.52-3.05,1.57v10.04h-4.1v-15.35h3.87
		l0.11,1.83c0.82-1.41,1.96-2.11,3.42-2.11c0.45,0,0.88,0.06,1.28,0.18L139.79,222.01z"/>
	<path class="st10" d="M145.53,218.17l0.13,1.77c1.1-1.37,2.57-2.06,4.41-2.06c1.63,0,2.84,0.48,3.63,1.43
		c0.79,0.96,1.2,2.38,1.22,4.28v9.92h-4.1v-9.82c0-0.87-0.19-1.5-0.57-1.89c-0.38-0.39-1.01-0.59-1.89-0.59
		c-1.15,0-2.02,0.49-2.6,1.48v10.83h-4.1v-15.35H145.53z"/>
	<path class="st10" d="M169.11,218.17l0.13,1.72c1.09-1.33,2.56-2,4.41-2c1.98,0,3.33,0.78,4.07,2.34c1.08-1.56,2.61-2.34,4.61-2.34
		c1.66,0,2.9,0.49,3.72,1.45c0.81,0.97,1.22,2.43,1.22,4.38v9.8h-4.11v-9.79c0-0.87-0.17-1.51-0.51-1.91s-0.94-0.6-1.8-0.6
		c-1.23,0-2.08,0.59-2.55,1.76l0.01,10.54h-4.1v-9.78c0-0.89-0.18-1.53-0.52-1.93c-0.35-0.4-0.95-0.6-1.79-0.6
		c-1.16,0-2,0.48-2.53,1.45v10.85h-4.1v-15.35H169.11z"/>
	<path class="st10" d="M189.78,225.7c0-1.52,0.29-2.88,0.88-4.07c0.59-1.19,1.43-2.11,2.53-2.77c1.1-0.65,2.38-0.98,3.84-0.98
		c2.07,0,3.76,0.63,5.07,1.9s2.04,2.99,2.19,5.16l0.03,1.05c0,2.36-0.66,4.25-1.97,5.67c-1.31,1.42-3.08,2.14-5.29,2.14
		c-2.21,0-3.98-0.71-5.3-2.13c-1.32-1.42-1.98-3.35-1.98-5.79V225.7z M193.88,225.99c0,1.46,0.27,2.57,0.82,3.35
		s1.33,1.16,2.36,1.16c0.99,0,1.77-0.38,2.33-1.14c0.56-0.76,0.84-1.98,0.84-3.66c0-1.43-0.28-2.54-0.84-3.33
		c-0.56-0.79-1.34-1.18-2.36-1.18c-1,0-1.78,0.39-2.33,1.17S193.88,224.35,193.88,225.99z"/>
	<path class="st10" d="M215.48,222.01c-0.56-0.08-1.05-0.11-1.48-0.11c-1.55,0-2.57,0.52-3.05,1.57v10.04h-4.1v-15.35h3.87
		l0.11,1.83c0.82-1.41,1.96-2.11,3.42-2.11c0.45,0,0.88,0.06,1.28,0.18L215.48,222.01z"/>
	<path class="st10" d="M224.25,233.8c-2.25,0-4.08-0.69-5.5-2.07s-2.12-3.22-2.12-5.52v-0.4c0-1.54,0.3-2.92,0.89-4.13
		c0.6-1.22,1.44-2.15,2.53-2.81c1.09-0.66,2.34-0.99,3.74-0.99c2.1,0,3.75,0.66,4.96,1.99s1.81,3.2,1.81,5.63v1.67h-9.78
		c0.13,1,0.53,1.81,1.2,2.41c0.67,0.61,1.51,0.91,2.53,0.91c1.58,0,2.81-0.57,3.7-1.72l2.01,2.26c-0.61,0.87-1.45,1.55-2.5,2.04
		C226.69,233.56,225.52,233.8,224.25,233.8z M223.78,221.19c-0.81,0-1.47,0.28-1.98,0.83c-0.51,0.55-0.83,1.34-0.97,2.37h5.7v-0.33
		c-0.02-0.91-0.27-1.62-0.74-2.12C225.32,221.44,224.65,221.19,223.78,221.19z"/>
</g>
<g class="st3">
	<path class="st10" d="M46.95,263.9c-0.13-0.25-0.22-0.55-0.27-0.92c-0.66,0.74-1.52,1.11-2.58,1.11c-1,0-1.83-0.29-2.49-0.87
		c-0.66-0.58-0.99-1.31-0.99-2.19c0-1.08,0.4-1.92,1.21-2.5c0.8-0.58,1.97-0.87,3.49-0.88h1.26v-0.59c0-0.47-0.12-0.85-0.36-1.13
		c-0.24-0.28-0.63-0.43-1.15-0.43c-0.46,0-0.82,0.11-1.08,0.33c-0.26,0.22-0.39,0.52-0.39,0.91h-2.73c0-0.59,0.18-1.14,0.55-1.65
		c0.37-0.5,0.88-0.9,1.55-1.19s1.42-0.43,2.25-0.43c1.26,0,2.26,0.32,3,0.95c0.74,0.63,1.11,1.52,1.11,2.67v4.44
		c0.01,0.97,0.14,1.71,0.41,2.2v0.16H46.95z M44.69,262c0.4,0,0.78-0.09,1.12-0.27c0.34-0.18,0.59-0.42,0.76-0.72v-1.76h-1.02
		c-1.37,0-2.1,0.47-2.18,1.42l-0.01,0.16c0,0.34,0.12,0.62,0.36,0.84C43.94,261.89,44.27,262,44.69,262z"/>
	<path class="st10" d="M60.63,258.87c0,1.64-0.35,2.92-1.05,3.83c-0.7,0.92-1.68,1.38-2.93,1.38c-1.11,0-2-0.42-2.66-1.28
		l-0.12,1.09H51.4v-14.53h2.73v5.21c0.63-0.74,1.46-1.11,2.49-1.11c1.25,0,2.23,0.46,2.94,1.38c0.71,0.92,1.06,2.21,1.06,3.87
		V258.87z M57.89,258.68c0-1.03-0.16-1.79-0.49-2.26c-0.33-0.48-0.82-0.71-1.47-0.71c-0.87,0-1.47,0.36-1.8,1.07v4.04
		c0.33,0.72,0.94,1.08,1.82,1.08c0.88,0,1.46-0.44,1.74-1.31C57.83,260.16,57.89,259.53,57.89,258.68z"/>
	<path class="st10" d="M61.88,258.68c0-1.01,0.2-1.92,0.59-2.71c0.39-0.79,0.95-1.41,1.69-1.84c0.73-0.44,1.59-0.65,2.56-0.65
		c1.38,0,2.51,0.42,3.38,1.27c0.87,0.85,1.36,1.99,1.46,3.44l0.02,0.7c0,1.57-0.44,2.83-1.31,3.78s-2.05,1.42-3.53,1.42
		s-2.65-0.47-3.53-1.42c-0.88-0.95-1.32-2.23-1.32-3.86V258.68z M64.62,258.88c0,0.97,0.18,1.72,0.55,2.23s0.89,0.77,1.57,0.77
		c0.66,0,1.18-0.25,1.55-0.76c0.37-0.51,0.56-1.32,0.56-2.44c0-0.95-0.19-1.69-0.56-2.22c-0.37-0.52-0.9-0.79-1.57-0.79
		c-0.67,0-1.19,0.26-1.55,0.78C64.8,256.98,64.62,257.79,64.62,258.88z"/>
	<path class="st10" d="M79.39,262.86c-0.67,0.82-1.61,1.23-2.8,1.23c-1.1,0-1.93-0.31-2.51-0.95c-0.58-0.63-0.87-1.55-0.88-2.77
		v-6.71h2.73v6.62c0,1.07,0.49,1.6,1.46,1.6c0.93,0,1.56-0.32,1.91-0.97v-7.25h2.74v10.23h-2.57L79.39,262.86z"/>
	<path class="st10" d="M87.37,251.15v2.52h1.75v2h-1.75v5.11c0,0.38,0.07,0.65,0.22,0.81c0.15,0.16,0.42,0.25,0.83,0.25
		c0.3,0,0.57-0.02,0.8-0.07v2.07c-0.54,0.16-1.09,0.25-1.66,0.25c-1.92,0-2.89-0.97-2.93-2.9v-5.51h-1.49v-2h1.49v-2.52H87.37z"/>
	<path class="st10" d="M95.05,258.68c0-1.01,0.2-1.92,0.59-2.71c0.39-0.79,0.95-1.41,1.69-1.84c0.73-0.44,1.59-0.65,2.56-0.65
		c1.38,0,2.51,0.42,3.38,1.27c0.87,0.85,1.36,1.99,1.46,3.44l0.02,0.7c0,1.57-0.44,2.83-1.31,3.78s-2.05,1.42-3.53,1.42
		s-2.65-0.47-3.53-1.42c-0.88-0.95-1.32-2.23-1.32-3.86V258.68z M97.78,258.88c0,0.97,0.18,1.72,0.55,2.23s0.89,0.77,1.57,0.77
		c0.66,0,1.18-0.25,1.55-0.76c0.37-0.51,0.56-1.32,0.56-2.44c0-0.95-0.19-1.69-0.56-2.22c-0.37-0.52-0.9-0.79-1.57-0.79
		c-0.67,0-1.19,0.26-1.55,0.78C97.96,256.98,97.78,257.79,97.78,258.88z"/>
	<path class="st10" d="M112.55,262.86c-0.67,0.82-1.61,1.23-2.8,1.23c-1.1,0-1.93-0.31-2.51-0.95c-0.58-0.63-0.87-1.55-0.88-2.77
		v-6.71h2.73v6.62c0,1.07,0.49,1.6,1.46,1.6c0.93,0,1.56-0.32,1.91-0.97v-7.25h2.74v10.23h-2.57L112.55,262.86z"/>
	<path class="st10" d="M123.01,256.23c-0.37-0.05-0.7-0.08-0.98-0.08c-1.03,0-1.71,0.35-2.03,1.05v6.7h-2.73v-10.23h2.58l0.08,1.22
		c0.55-0.94,1.31-1.41,2.28-1.41c0.3,0,0.59,0.04,0.85,0.12L123.01,256.23z"/>
	<path class="st10" d="M132.35,263.9h-2.84v-13.77h2.84V263.9z"/>
	<path class="st10" d="M134.37,258.7c0-1.59,0.36-2.87,1.07-3.81c0.72-0.95,1.69-1.42,2.94-1.42c1,0,1.82,0.37,2.47,1.12v-5.22h2.74
		v14.53h-2.47l-0.13-1.09c-0.68,0.85-1.56,1.28-2.63,1.28c-1.2,0-2.17-0.47-2.9-1.42C134.74,261.71,134.37,260.39,134.37,258.7z
		 M137.11,258.91c0,0.96,0.17,1.7,0.5,2.21c0.33,0.51,0.82,0.77,1.46,0.77c0.85,0,1.44-0.36,1.79-1.07v-4.04
		c-0.34-0.71-0.93-1.07-1.77-1.07C137.77,255.7,137.11,256.77,137.11,258.91z"/>
	<path class="st10" d="M150.42,264.09c-1.5,0-2.72-0.46-3.67-1.38c-0.94-0.92-1.41-2.15-1.41-3.68v-0.26c0-1.03,0.2-1.95,0.6-2.76
		c0.4-0.81,0.96-1.43,1.69-1.87c0.73-0.44,1.56-0.66,2.49-0.66c1.4,0,2.5,0.44,3.31,1.32c0.8,0.88,1.21,2.13,1.21,3.75v1.12h-6.52
		c0.09,0.67,0.35,1.21,0.8,1.61c0.44,0.4,1.01,0.61,1.69,0.61c1.05,0,1.88-0.38,2.47-1.14l1.34,1.5c-0.41,0.58-0.96,1.03-1.66,1.36
		C152.05,263.92,151.28,264.09,150.42,264.09z M150.11,255.68c-0.54,0-0.98,0.18-1.32,0.55c-0.34,0.37-0.55,0.89-0.65,1.58h3.8
		v-0.22c-0.01-0.61-0.18-1.08-0.49-1.41C151.14,255.84,150.69,255.68,150.11,255.68z"/>
	<path class="st10" d="M158.7,253.66l0.08,1.18c0.73-0.91,1.71-1.37,2.94-1.37c1.08,0,1.89,0.32,2.42,0.96
		c0.53,0.64,0.8,1.59,0.81,2.86v6.61h-2.73v-6.55c0-0.58-0.13-1-0.38-1.26c-0.25-0.26-0.67-0.39-1.26-0.39
		c-0.77,0-1.35,0.33-1.73,0.98v7.22h-2.73v-10.23H158.7z"/>
	<path class="st10" d="M170.31,251.15v2.52h1.75v2h-1.75v5.11c0,0.38,0.07,0.65,0.22,0.81c0.15,0.16,0.42,0.25,0.83,0.25
		c0.3,0,0.57-0.02,0.8-0.07v2.07c-0.54,0.16-1.09,0.25-1.66,0.25c-1.92,0-2.89-0.97-2.93-2.9v-5.51h-1.49v-2h1.49v-2.52H170.31z"/>
	<path class="st10" d="M173.56,251.01c0-0.41,0.14-0.75,0.41-1.01s0.65-0.4,1.12-0.4c0.47,0,0.84,0.13,1.12,0.4s0.42,0.6,0.42,1.01
		c0,0.42-0.14,0.76-0.42,1.02c-0.28,0.26-0.65,0.4-1.11,0.4c-0.46,0-0.83-0.13-1.11-0.4C173.7,251.77,173.56,251.43,173.56,251.01z
		 M176.46,263.9h-2.74v-10.23h2.74V263.9z"/>
	<path class="st10" d="M181.99,251.15v2.52h1.75v2h-1.75v5.11c0,0.38,0.07,0.65,0.22,0.81c0.15,0.16,0.42,0.25,0.83,0.25
		c0.3,0,0.57-0.02,0.8-0.07v2.07c-0.54,0.16-1.09,0.25-1.66,0.25c-1.92,0-2.89-0.97-2.93-2.9v-5.51h-1.49v-2h1.49v-2.52H181.99z"/>
	<path class="st10" d="M189.08,260.03l1.89-6.37h2.93l-4.11,11.82l-0.23,0.54c-0.61,1.34-1.62,2-3.03,2c-0.4,0-0.8-0.06-1.21-0.18
		v-2.07l0.42,0.01c0.52,0,0.9-0.08,1.16-0.24c0.26-0.16,0.46-0.42,0.6-0.79l0.32-0.84l-3.58-10.26h2.94L189.08,260.03z"/>
	<path class="st10" d="M209.78,252.42h-4.22v11.47h-2.84v-11.47h-4.16v-2.3h11.22V252.42z"/>
	<path class="st10" d="M213.89,254.78c0.73-0.87,1.64-1.31,2.73-1.31c2.22,0,3.35,1.29,3.38,3.87v6.55h-2.73v-6.48
		c0-0.59-0.13-1.02-0.38-1.3c-0.25-0.28-0.67-0.42-1.26-0.42c-0.8,0-1.38,0.31-1.74,0.93v7.27h-2.73v-14.53h2.73V254.78z"/>
	<path class="st10" d="M226.77,264.09c-1.5,0-2.72-0.46-3.67-1.38c-0.94-0.92-1.41-2.15-1.41-3.68v-0.26c0-1.03,0.2-1.95,0.6-2.76
		c0.4-0.81,0.96-1.43,1.69-1.87c0.73-0.44,1.56-0.66,2.49-0.66c1.4,0,2.5,0.44,3.31,1.32c0.8,0.88,1.21,2.13,1.21,3.75v1.12h-6.52
		c0.09,0.67,0.35,1.21,0.8,1.61c0.44,0.4,1.01,0.61,1.69,0.61c1.05,0,1.88-0.38,2.47-1.14l1.34,1.5c-0.41,0.58-0.96,1.03-1.67,1.36
		C228.4,263.92,227.62,264.09,226.77,264.09z M226.46,255.68c-0.54,0-0.98,0.18-1.32,0.55c-0.34,0.37-0.55,0.89-0.65,1.58h3.8v-0.22
		c-0.01-0.61-0.18-1.08-0.49-1.41C227.49,255.84,227.04,255.68,226.46,255.68z"/>
	<path class="st10" d="M233.28,263.9v-8.23h-1.52v-2h1.52v-0.87c0-1.15,0.33-2.04,0.99-2.67c0.66-0.63,1.58-0.95,2.77-0.95
		c0.38,0,0.84,0.06,1.39,0.19l-0.03,2.12c-0.23-0.06-0.5-0.08-0.83-0.08c-1.03,0-1.54,0.48-1.54,1.45v0.82h2.03v2h-2.03v8.23H233.28
		z"/>
	<path class="st10" d="M242.75,251.15v2.52h1.75v2h-1.75v5.11c0,0.38,0.07,0.65,0.22,0.81c0.14,0.16,0.42,0.25,0.83,0.25
		c0.3,0,0.57-0.02,0.8-0.07v2.07c-0.54,0.16-1.09,0.25-1.66,0.25c-1.92,0-2.89-0.97-2.93-2.9v-5.51h-1.49v-2h1.49v-2.52H242.75z"/>
	<path class="st10" d="M256.77,263.9c-0.13-0.25-0.22-0.55-0.27-0.92c-0.66,0.74-1.52,1.11-2.58,1.11c-1,0-1.83-0.29-2.49-0.87
		c-0.66-0.58-0.99-1.31-0.99-2.19c0-1.08,0.4-1.92,1.21-2.5c0.8-0.58,1.97-0.87,3.49-0.88h1.26v-0.59c0-0.47-0.12-0.85-0.36-1.13
		c-0.24-0.28-0.63-0.43-1.15-0.43c-0.46,0-0.82,0.11-1.08,0.33c-0.26,0.22-0.39,0.52-0.39,0.91h-2.73c0-0.59,0.18-1.14,0.55-1.65
		c0.37-0.5,0.88-0.9,1.55-1.19c0.67-0.29,1.42-0.43,2.25-0.43c1.26,0,2.26,0.32,3,0.95c0.74,0.63,1.11,1.52,1.11,2.67v4.44
		c0.01,0.97,0.14,1.71,0.41,2.2v0.16H256.77z M254.51,262c0.4,0,0.78-0.09,1.12-0.27s0.59-0.42,0.76-0.72v-1.76h-1.02
		c-1.37,0-2.1,0.47-2.19,1.42l-0.01,0.16c0,0.34,0.12,0.62,0.36,0.84C253.77,261.89,254.1,262,254.51,262z"/>
	<path class="st10" d="M263.74,253.66l0.09,1.18c0.73-0.91,1.71-1.37,2.94-1.37c1.08,0,1.89,0.32,2.42,0.96
		c0.53,0.64,0.8,1.59,0.81,2.86v6.61h-2.73v-6.55c0-0.58-0.13-1-0.38-1.26c-0.25-0.26-0.67-0.39-1.26-0.39
		c-0.77,0-1.35,0.33-1.73,0.98v7.22h-2.73v-10.23H263.74z"/>
	<path class="st10" d="M271.65,258.7c0-1.59,0.36-2.87,1.07-3.81c0.71-0.95,1.69-1.42,2.94-1.42c1,0,1.82,0.37,2.47,1.12v-5.22h2.74
		v14.53h-2.47l-0.13-1.09c-0.68,0.85-1.56,1.28-2.63,1.28c-1.2,0-2.17-0.47-2.9-1.42S271.65,260.39,271.65,258.7z M274.39,258.91
		c0,0.96,0.17,1.7,0.5,2.21c0.33,0.51,0.82,0.77,1.46,0.77c0.84,0,1.44-0.36,1.79-1.07v-4.04c-0.34-0.71-0.93-1.07-1.77-1.07
		C275.04,255.7,274.39,256.77,274.39,258.91z"/>
	<path class="st10" d="M70.63,282.55c-0.11,1.48-0.65,2.65-1.64,3.5s-2.29,1.28-3.9,1.28c-1.77,0-3.15-0.59-4.17-1.78
		s-1.52-2.82-1.52-4.89v-0.84c0-1.32,0.23-2.49,0.7-3.5c0.47-1.01,1.13-1.78,2-2.32s1.87-0.81,3.02-0.81c1.59,0,2.87,0.43,3.84,1.28
		c0.97,0.85,1.53,2.05,1.68,3.58h-2.84c-0.07-0.89-0.32-1.53-0.74-1.93s-1.07-0.6-1.94-0.6c-0.95,0-1.65,0.34-2.12,1.02
		s-0.71,1.73-0.72,3.15v1.04c0,1.49,0.23,2.58,0.68,3.26c0.45,0.69,1.16,1.03,2.13,1.03c0.88,0,1.53-0.2,1.96-0.6
		s0.68-1.02,0.74-1.86H70.63z"/>
	<path class="st10" d="M78.06,279.47c-0.37-0.05-0.7-0.08-0.98-0.08c-1.03,0-1.71,0.35-2.03,1.05v6.7h-2.73v-10.23h2.58l0.08,1.22
		c0.55-0.94,1.31-1.41,2.28-1.41c0.3,0,0.59,0.04,0.85,0.12L78.06,279.47z"/>
	<path class="st10" d="M83.91,287.33c-1.5,0-2.72-0.46-3.67-1.38c-0.94-0.92-1.41-2.15-1.41-3.68v-0.26c0-1.03,0.2-1.95,0.6-2.76
		c0.4-0.81,0.96-1.43,1.69-1.87c0.73-0.44,1.56-0.66,2.49-0.66c1.4,0,2.5,0.44,3.31,1.32c0.8,0.88,1.21,2.13,1.21,3.75v1.12H81.6
		c0.09,0.67,0.35,1.21,0.8,1.61c0.44,0.4,1.01,0.61,1.69,0.61c1.05,0,1.88-0.38,2.47-1.14l1.34,1.5c-0.41,0.58-0.96,1.03-1.66,1.36
		C85.54,287.17,84.76,287.33,83.91,287.33z M83.6,278.92c-0.54,0-0.98,0.18-1.32,0.55c-0.34,0.37-0.55,0.89-0.65,1.58h3.8v-0.22
		c-0.01-0.61-0.18-1.08-0.49-1.41C84.62,279.09,84.18,278.92,83.6,278.92z"/>
	<path class="st10" d="M89.24,281.95c0-1.59,0.36-2.87,1.07-3.81c0.72-0.95,1.69-1.42,2.94-1.42c1,0,1.82,0.37,2.47,1.12v-5.22h2.74
		v14.53H96l-0.13-1.09c-0.68,0.85-1.56,1.28-2.63,1.28c-1.2,0-2.17-0.47-2.9-1.42C89.61,284.96,89.24,283.64,89.24,281.95z
		 M91.98,282.15c0,0.96,0.17,1.7,0.5,2.21c0.33,0.51,0.82,0.77,1.46,0.77c0.85,0,1.44-0.36,1.79-1.07v-4.04
		c-0.34-0.71-0.93-1.07-1.77-1.07C92.64,278.94,91.98,280.01,91.98,282.15z"/>
	<path class="st10" d="M100.56,274.26c0-0.41,0.14-0.75,0.41-1.01s0.65-0.4,1.12-0.4c0.47,0,0.84,0.13,1.12,0.4s0.42,0.6,0.42,1.01
		c0,0.42-0.14,0.76-0.42,1.02c-0.28,0.26-0.65,0.4-1.11,0.4c-0.46,0-0.83-0.13-1.11-0.4C100.7,275.02,100.56,274.68,100.56,274.26z
		 M103.47,287.14h-2.74v-10.23h2.74V287.14z"/>
	<path class="st10" d="M108.99,274.39v2.52h1.75v2h-1.75v5.11c0,0.38,0.07,0.65,0.22,0.81c0.15,0.16,0.42,0.25,0.83,0.25
		c0.3,0,0.57-0.02,0.8-0.07v2.07c-0.54,0.16-1.09,0.25-1.66,0.25c-1.92,0-2.89-0.97-2.93-2.9v-5.51h-1.49v-2h1.49v-2.52H108.99z"/>
	<path class="st10" d="M120.98,273.37l3.54,9.99l3.52-9.99h3.73v13.77h-2.85v-3.76l0.28-6.5l-3.72,10.26h-1.95l-3.71-10.25
		l0.28,6.49v3.76h-2.84v-13.77H120.98z"/>
	<path class="st10" d="M133.63,281.93c0-1.01,0.2-1.92,0.59-2.71c0.39-0.79,0.95-1.41,1.69-1.84c0.73-0.44,1.59-0.65,2.56-0.65
		c1.38,0,2.51,0.42,3.38,1.27c0.87,0.85,1.36,1.99,1.46,3.44l0.02,0.7c0,1.57-0.44,2.83-1.31,3.78s-2.05,1.42-3.53,1.42
		s-2.65-0.47-3.53-1.42c-0.88-0.95-1.32-2.23-1.32-3.86V281.93z M136.36,282.12c0,0.97,0.18,1.72,0.55,2.23s0.89,0.77,1.57,0.77
		c0.66,0,1.18-0.25,1.55-0.76c0.37-0.51,0.56-1.32,0.56-2.44c0-0.95-0.19-1.69-0.56-2.22c-0.37-0.52-0.9-0.79-1.57-0.79
		c-0.67,0-1.19,0.26-1.55,0.78C136.55,280.22,136.36,281.03,136.36,282.12z"/>
	<path class="st10" d="M147.53,276.91l0.08,1.18c0.73-0.91,1.71-1.37,2.94-1.37c1.08,0,1.89,0.32,2.42,0.96
		c0.53,0.64,0.8,1.59,0.81,2.86v6.61h-2.73v-6.55c0-0.58-0.13-1-0.38-1.26c-0.25-0.26-0.67-0.39-1.26-0.39
		c-0.77,0-1.35,0.33-1.73,0.98v7.22h-2.73v-10.23H147.53z"/>
	<path class="st10" d="M155.84,274.26c0-0.41,0.14-0.75,0.41-1.01s0.65-0.4,1.12-0.4c0.47,0,0.84,0.13,1.12,0.4s0.42,0.6,0.42,1.01
		c0,0.42-0.14,0.76-0.42,1.02c-0.28,0.26-0.65,0.4-1.11,0.4c-0.46,0-0.83-0.13-1.11-0.4C155.98,275.02,155.84,274.68,155.84,274.26z
		 M158.74,287.14H156v-10.23h2.74V287.14z"/>
	<path class="st10" d="M164.27,274.39v2.52h1.75v2h-1.75v5.11c0,0.38,0.07,0.65,0.22,0.81c0.15,0.16,0.42,0.25,0.83,0.25
		c0.3,0,0.57-0.02,0.8-0.07v2.07c-0.54,0.16-1.09,0.25-1.66,0.25c-1.92,0-2.89-0.97-2.93-2.9v-5.51h-1.49v-2h1.49v-2.52H164.27z"/>
	<path class="st10" d="M166.83,281.93c0-1.01,0.2-1.92,0.59-2.71c0.39-0.79,0.95-1.41,1.69-1.84c0.73-0.44,1.59-0.65,2.56-0.65
		c1.38,0,2.51,0.42,3.38,1.27c0.87,0.85,1.36,1.99,1.46,3.44l0.02,0.7c0,1.57-0.44,2.83-1.31,3.78s-2.05,1.42-3.53,1.42
		s-2.65-0.47-3.53-1.42c-0.88-0.95-1.32-2.23-1.32-3.86V281.93z M169.56,282.12c0,0.97,0.18,1.72,0.55,2.23s0.89,0.77,1.57,0.77
		c0.66,0,1.18-0.25,1.55-0.76c0.37-0.51,0.56-1.32,0.56-2.44c0-0.95-0.19-1.69-0.56-2.22c-0.37-0.52-0.9-0.79-1.57-0.79
		c-0.67,0-1.19,0.26-1.55,0.78C169.75,280.22,169.56,281.03,169.56,282.12z"/>
	<path class="st10" d="M183.96,279.47c-0.37-0.05-0.7-0.08-0.98-0.08c-1.03,0-1.71,0.35-2.03,1.05v6.7h-2.73v-10.23h2.58l0.08,1.22
		c0.55-0.94,1.31-1.41,2.28-1.41c0.3,0,0.59,0.04,0.85,0.12L183.96,279.47z"/>
	<path class="st10" d="M185.25,274.26c0-0.41,0.14-0.75,0.41-1.01s0.65-0.4,1.12-0.4c0.47,0,0.84,0.13,1.12,0.4s0.42,0.6,0.42,1.01
		c0,0.42-0.14,0.76-0.42,1.02c-0.28,0.26-0.65,0.4-1.11,0.4c-0.46,0-0.83-0.13-1.11-0.4C185.4,275.02,185.25,274.68,185.25,274.26z
		 M188.16,287.14h-2.74v-10.23h2.74V287.14z"/>
	<path class="st10" d="M192.93,276.91l0.08,1.18c0.73-0.91,1.71-1.37,2.94-1.37c1.08,0,1.89,0.32,2.42,0.96
		c0.53,0.64,0.8,1.59,0.81,2.86v6.61h-2.73v-6.55c0-0.58-0.13-1-0.38-1.26c-0.25-0.26-0.67-0.39-1.26-0.39
		c-0.77,0-1.35,0.33-1.73,0.98v7.22h-2.73v-10.23H192.93z"/>
	<path class="st10" d="M200.86,281.95c0-1.57,0.37-2.83,1.12-3.79c0.75-0.96,1.75-1.44,3.02-1.44c1.12,0,2,0.38,2.62,1.15l0.11-0.96
		h2.48v9.89c0,0.9-0.2,1.67-0.61,2.34c-0.41,0.66-0.98,1.17-1.72,1.51s-1.6,0.52-2.59,0.52c-0.75,0-1.48-0.15-2.19-0.45
		c-0.71-0.3-1.25-0.69-1.62-1.16l1.21-1.66c0.68,0.76,1.51,1.14,2.48,1.14c0.73,0,1.29-0.19,1.69-0.58c0.4-0.39,0.61-0.94,0.61-1.65
		v-0.55c-0.63,0.71-1.46,1.07-2.49,1.07c-1.23,0-2.22-0.48-2.98-1.44c-0.76-0.96-1.14-2.24-1.14-3.83V281.95z M203.6,282.15
		c0,0.93,0.19,1.66,0.56,2.18c0.37,0.53,0.88,0.79,1.53,0.79c0.83,0,1.43-0.31,1.79-0.94v-4.31c-0.37-0.62-0.96-0.94-1.77-0.94
		c-0.66,0-1.17,0.27-1.55,0.8S203.6,281.09,203.6,282.15z"/>
	<path class="st10" d="M226.35,282.12c0,1.58-0.36,2.84-1.07,3.79s-1.68,1.42-2.9,1.42c-1.03,0-1.87-0.36-2.51-1.08v4.82h-2.73
		v-14.17h2.54l0.09,1c0.66-0.79,1.53-1.19,2.59-1.19c1.26,0,2.24,0.47,2.94,1.4c0.7,0.93,1.05,2.22,1.05,3.86V282.12z
		 M223.62,281.92c0-0.95-0.17-1.69-0.51-2.2c-0.34-0.52-0.83-0.78-1.47-0.78c-0.86,0-1.45,0.33-1.77,0.98v4.19
		c0.33,0.67,0.93,1.01,1.79,1.01C222.97,285.13,223.62,284.06,223.62,281.92z"/>
	<path class="st10" d="M230.93,287.14h-2.74v-14.53h2.74V287.14z"/>
	<path class="st10" d="M239.11,287.14c-0.13-0.25-0.22-0.55-0.27-0.92c-0.66,0.74-1.52,1.11-2.58,1.11c-1,0-1.83-0.29-2.49-0.87
		c-0.66-0.58-0.99-1.31-0.99-2.19c0-1.08,0.4-1.92,1.21-2.5c0.8-0.58,1.97-0.87,3.49-0.88h1.26v-0.59c0-0.47-0.12-0.85-0.36-1.13
		c-0.24-0.28-0.63-0.43-1.15-0.43c-0.46,0-0.82,0.11-1.08,0.33s-0.39,0.52-0.39,0.91H233c0-0.59,0.18-1.14,0.55-1.65
		c0.37-0.5,0.88-0.9,1.55-1.19c0.67-0.29,1.42-0.43,2.25-0.43c1.26,0,2.26,0.32,3,0.95c0.74,0.63,1.11,1.52,1.11,2.67v4.44
		c0.01,0.97,0.14,1.71,0.41,2.2v0.16H239.11z M236.85,285.24c0.4,0,0.78-0.09,1.12-0.27s0.59-0.42,0.76-0.72v-1.76h-1.02
		c-1.37,0-2.1,0.47-2.19,1.42l-0.01,0.16c0,0.34,0.12,0.62,0.36,0.84C236.11,285.13,236.43,285.24,236.85,285.24z"/>
	<path class="st10" d="M246.08,276.91l0.09,1.18c0.73-0.91,1.71-1.37,2.94-1.37c1.08,0,1.89,0.32,2.42,0.96
		c0.53,0.64,0.8,1.59,0.81,2.86v6.61h-2.73v-6.55c0-0.58-0.13-1-0.38-1.26c-0.25-0.26-0.67-0.39-1.26-0.39
		c-0.77,0-1.35,0.33-1.73,0.98v7.22h-2.73v-10.23H246.08z"/>
	<path class="st10" d="M259.96,284.31c0-0.33-0.17-0.6-0.5-0.79s-0.86-0.36-1.59-0.52c-2.43-0.51-3.65-1.54-3.65-3.1
		c0-0.91,0.38-1.67,1.13-2.27c0.75-0.61,1.74-0.91,2.96-0.91c1.3,0,2.34,0.31,3.12,0.92c0.78,0.61,1.17,1.41,1.17,2.38h-2.73
		c0-0.39-0.13-0.71-0.38-0.97c-0.25-0.26-0.65-0.38-1.18-0.38c-0.46,0-0.82,0.1-1.07,0.31c-0.25,0.21-0.38,0.47-0.38,0.79
		c0,0.3,0.14,0.55,0.43,0.73c0.29,0.19,0.77,0.35,1.45,0.48c0.68,0.14,1.25,0.29,1.72,0.46c1.44,0.53,2.17,1.45,2.17,2.75
		c0,0.93-0.4,1.69-1.2,2.26s-1.83,0.87-3.1,0.87c-0.86,0-1.62-0.15-2.28-0.46c-0.67-0.31-1.19-0.73-1.56-1.26
		c-0.38-0.53-0.57-1.11-0.57-1.73h2.59c0.03,0.49,0.21,0.86,0.54,1.12s0.78,0.39,1.34,0.39c0.52,0,0.92-0.1,1.19-0.3
		C259.82,284.89,259.96,284.64,259.96,284.31z"/>
</g>
<g class="st3">
	<path class="st10" d="M87.47,345.45c0-0.39-0.14-0.71-0.41-0.98s-0.73-0.51-1.38-0.72c-0.9-0.27-1.55-0.63-1.96-1.07
		c-0.41-0.44-0.62-1-0.62-1.68c0-0.69,0.2-1.26,0.6-1.7s0.96-0.71,1.66-0.79v-1.38h0.94v1.39c0.71,0.1,1.26,0.39,1.65,0.89
		c0.39,0.5,0.59,1.18,0.59,2.04h-1.16c0-0.6-0.14-1.07-0.42-1.42c-0.28-0.35-0.66-0.53-1.14-0.53c-0.5,0-0.88,0.13-1.15,0.39
		c-0.27,0.26-0.4,0.62-0.4,1.09c0,0.43,0.14,0.77,0.42,1.03c0.28,0.26,0.74,0.49,1.38,0.7s1.14,0.44,1.5,0.69
		c0.36,0.25,0.63,0.54,0.8,0.88c0.17,0.33,0.26,0.72,0.26,1.17c0,0.71-0.21,1.29-0.64,1.72s-1.03,0.69-1.8,0.77v1.21h-0.94v-1.21
		c-0.78-0.07-1.4-0.35-1.84-0.84c-0.44-0.49-0.67-1.15-0.67-1.98h1.17c0,0.59,0.15,1.04,0.46,1.35s0.74,0.47,1.31,0.47
		c0.55,0,0.99-0.13,1.3-0.4S87.47,345.91,87.47,345.45z"/>
	<path class="st10" d="M93.93,347.82h-1.18v-7.79l-2.36,0.87v-1.06l3.35-1.26h0.18V347.82z"/>
	<path class="st10" d="M102.27,339.33v1.66h1.28v0.9h-1.28v4.25c0,0.27,0.06,0.48,0.17,0.62c0.11,0.14,0.31,0.21,0.58,0.21
		c0.13,0,0.32-0.03,0.56-0.08v0.94c-0.31,0.08-0.61,0.13-0.9,0.13c-0.52,0-0.92-0.16-1.18-0.47c-0.27-0.32-0.4-0.76-0.4-1.35v-4.24
		h-1.25v-0.9h1.25v-1.66H102.27z"/>
	<path class="st10" d="M108.22,342.03c-0.18-0.03-0.37-0.04-0.58-0.04c-0.77,0-1.29,0.33-1.56,0.98v4.85h-1.17v-6.84h1.14l0.02,0.79
		c0.38-0.61,0.93-0.92,1.63-0.92c0.23,0,0.4,0.03,0.52,0.09V342.03z"/>
	<path class="st10" d="M109.3,339.17c0-0.19,0.06-0.35,0.17-0.48c0.12-0.13,0.29-0.2,0.52-0.2s0.4,0.07,0.52,0.2
		c0.12,0.13,0.18,0.29,0.18,0.48c0,0.19-0.06,0.35-0.18,0.47c-0.12,0.13-0.29,0.19-0.52,0.19s-0.4-0.06-0.52-0.19
		S109.3,339.36,109.3,339.17z M110.56,347.82h-1.17v-6.84h1.17V347.82z"/>
	<path class="st10" d="M116.66,347.82c-0.07-0.13-0.12-0.38-0.16-0.72c-0.54,0.56-1.19,0.85-1.95,0.85c-0.67,0-1.23-0.19-1.66-0.57
		c-0.43-0.38-0.65-0.86-0.65-1.45c0-0.71,0.27-1.27,0.81-1.66c0.54-0.39,1.3-0.59,2.29-0.59h1.14v-0.54c0-0.41-0.12-0.73-0.37-0.98
		c-0.24-0.24-0.6-0.36-1.08-0.36c-0.42,0-0.77,0.11-1.05,0.32c-0.28,0.21-0.42,0.47-0.42,0.76h-1.18c0-0.34,0.12-0.67,0.36-0.99
		c0.24-0.32,0.57-0.57,0.99-0.76c0.41-0.19,0.87-0.28,1.37-0.28c0.79,0,1.41,0.2,1.85,0.59s0.68,0.94,0.7,1.63v3.15
		c0,0.63,0.08,1.13,0.24,1.5v0.1H116.66z M114.72,346.93c0.37,0,0.71-0.09,1.04-0.28c0.33-0.19,0.57-0.44,0.71-0.74v-1.4h-0.92
		c-1.43,0-2.15,0.42-2.15,1.26c0,0.37,0.12,0.65,0.37,0.86C114.02,346.83,114.33,346.93,114.72,346.93z"/>
	<path class="st10" d="M120.75,347.82h-1.17v-9.71h1.17V347.82z"/>
	<path class="st10" d="M126.4,347.82v-5.94h-1.08v-0.9h1.08v-0.7c0-0.73,0.2-1.3,0.59-1.7c0.39-0.4,0.95-0.6,1.66-0.6
		c0.27,0,0.54,0.04,0.8,0.11l-0.06,0.94c-0.2-0.04-0.41-0.06-0.63-0.06c-0.38,0-0.67,0.11-0.88,0.33c-0.21,0.22-0.31,0.54-0.31,0.95
		v0.72h1.46v0.9h-1.46v5.94H126.4z"/>
	<path class="st10" d="M130.01,344.34c0-0.67,0.13-1.27,0.4-1.81s0.63-0.95,1.1-1.24c0.47-0.29,1.01-0.44,1.61-0.44
		c0.93,0,1.68,0.32,2.26,0.97c0.58,0.65,0.86,1.5,0.86,2.57v0.08c0,0.67-0.13,1.26-0.38,1.79c-0.26,0.53-0.62,0.94-1.09,1.24
		s-1.02,0.44-1.63,0.44c-0.93,0-1.68-0.32-2.25-0.97c-0.58-0.64-0.86-1.5-0.86-2.56V344.34z M131.18,344.48
		c0,0.76,0.18,1.37,0.53,1.83c0.35,0.46,0.82,0.69,1.41,0.69c0.59,0,1.07-0.23,1.42-0.7c0.35-0.47,0.52-1.12,0.52-1.96
		c0-0.75-0.18-1.36-0.53-1.82c-0.36-0.47-0.83-0.7-1.42-0.7c-0.58,0-1.04,0.23-1.4,0.69C131.36,342.96,131.18,343.62,131.18,344.48z
		"/>
	<path class="st10" d="M141,342.03c-0.18-0.03-0.37-0.04-0.58-0.04c-0.77,0-1.29,0.33-1.56,0.98v4.85h-1.17v-6.84h1.14l0.02,0.79
		c0.38-0.61,0.93-0.92,1.63-0.92c0.23,0,0.4,0.03,0.52,0.09V342.03z"/>
	<path class="st10" d="M146.87,339.33v1.66h1.28v0.9h-1.28v4.25c0,0.27,0.06,0.48,0.17,0.62c0.11,0.14,0.31,0.21,0.58,0.21
		c0.13,0,0.32-0.03,0.56-0.08v0.94c-0.31,0.08-0.61,0.13-0.9,0.13c-0.52,0-0.92-0.16-1.18-0.47c-0.27-0.32-0.4-0.76-0.4-1.35v-4.24
		h-1.25v-0.9h1.25v-1.66H146.87z"/>
	<path class="st10" d="M150.68,341.81c0.52-0.64,1.19-0.95,2.02-0.95c1.44,0,2.17,0.82,2.19,2.45v4.52h-1.17v-4.53
		c0-0.49-0.12-0.86-0.34-1.09s-0.57-0.35-1.03-0.35c-0.38,0-0.71,0.1-1,0.3c-0.29,0.2-0.51,0.47-0.67,0.8v4.87h-1.17v-9.71h1.17
		V341.81z"/>
	<path class="st10" d="M159.48,347.95c-0.93,0-1.68-0.3-2.26-0.91c-0.58-0.61-0.87-1.42-0.87-2.44v-0.21c0-0.68,0.13-1.28,0.39-1.82
		c0.26-0.53,0.62-0.95,1.09-1.25c0.47-0.3,0.97-0.45,1.51-0.45c0.89,0,1.58,0.29,2.07,0.88c0.49,0.59,0.74,1.42,0.74,2.52v0.49
		h-4.63c0.02,0.67,0.21,1.22,0.59,1.63s0.86,0.62,1.44,0.62c0.41,0,0.76-0.08,1.05-0.25c0.29-0.17,0.54-0.39,0.75-0.67l0.71,0.56
		C161.48,347.51,160.63,347.95,159.48,347.95z M159.33,341.82c-0.47,0-0.87,0.17-1.19,0.52c-0.32,0.34-0.52,0.83-0.59,1.44h3.43
		v-0.09c-0.03-0.59-0.19-1.05-0.48-1.38C160.21,341.98,159.82,341.82,159.33,341.82z"/>
	<path class="st10" d="M167.28,347.82v-5.94h-1.08v-0.9h1.08v-0.7c0-0.73,0.2-1.3,0.59-1.7c0.39-0.4,0.95-0.6,1.66-0.6
		c0.27,0,0.54,0.04,0.8,0.11l-0.06,0.94c-0.2-0.04-0.41-0.06-0.63-0.06c-0.38,0-0.67,0.11-0.88,0.33c-0.21,0.22-0.31,0.54-0.31,0.95
		v0.72h1.46v0.9h-1.46v5.94H167.28z"/>
	<path class="st10" d="M171.2,339.17c0-0.19,0.06-0.35,0.17-0.48c0.12-0.13,0.29-0.2,0.52-0.2s0.4,0.07,0.52,0.2
		c0.12,0.13,0.18,0.29,0.18,0.48c0,0.19-0.06,0.35-0.18,0.47c-0.12,0.13-0.29,0.19-0.52,0.19s-0.4-0.06-0.52-0.19
		S171.2,339.36,171.2,339.17z M172.47,347.82h-1.17v-6.84h1.17V347.82z"/>
	<path class="st10" d="M177.65,342.03c-0.18-0.03-0.37-0.04-0.58-0.04c-0.77,0-1.29,0.33-1.56,0.98v4.85h-1.17v-6.84h1.14l0.02,0.79
		c0.38-0.61,0.93-0.92,1.63-0.92c0.23,0,0.4,0.03,0.52,0.09V342.03z"/>
	<path class="st10" d="M182.7,346.01c0-0.32-0.12-0.56-0.36-0.74c-0.24-0.17-0.65-0.33-1.25-0.45s-1.06-0.28-1.41-0.46
		c-0.35-0.18-0.6-0.39-0.77-0.63c-0.17-0.24-0.25-0.54-0.25-0.87c0-0.56,0.24-1.03,0.71-1.42s1.08-0.58,1.82-0.58
		c0.78,0,1.4,0.2,1.89,0.6c0.48,0.4,0.72,0.91,0.72,1.54h-1.18c0-0.32-0.14-0.6-0.41-0.83c-0.27-0.23-0.61-0.35-1.03-0.35
		c-0.43,0-0.76,0.09-1,0.28c-0.24,0.19-0.36,0.43-0.36,0.73c0,0.28,0.11,0.5,0.33,0.64c0.22,0.14,0.63,0.28,1.21,0.41
		c0.58,0.13,1.06,0.29,1.42,0.47c0.36,0.18,0.63,0.4,0.81,0.65s0.26,0.57,0.26,0.93c0,0.61-0.24,1.1-0.73,1.47s-1.12,0.55-1.9,0.55
		c-0.55,0-1.03-0.1-1.45-0.29c-0.42-0.19-0.75-0.46-0.99-0.81c-0.24-0.35-0.36-0.72-0.36-1.13h1.17c0.02,0.39,0.18,0.7,0.47,0.93
		c0.29,0.23,0.68,0.34,1.16,0.34c0.44,0,0.8-0.09,1.07-0.27C182.57,346.55,182.7,346.31,182.7,346.01z"/>
	<path class="st10" d="M186.98,339.33v1.66h1.28v0.9h-1.28v4.25c0,0.27,0.06,0.48,0.17,0.62c0.11,0.14,0.31,0.21,0.58,0.21
		c0.13,0,0.32-0.03,0.56-0.08v0.94c-0.31,0.08-0.61,0.13-0.9,0.13c-0.52,0-0.92-0.16-1.18-0.47c-0.27-0.32-0.4-0.76-0.4-1.35v-4.24
		h-1.25v-0.9h1.25v-1.66H186.98z"/>
	<path class="st10" d="M197.01,347.82h-1.83v-7.04l-2.18,0.68v-1.49l3.81-1.37h0.2V347.82z"/>
	<path class="st10" d="M205.4,344.36h1.04v1.47h-1.04v1.99h-1.83v-1.99h-3.77l-0.08-1.15l3.84-6.06h1.85V344.36z M201.54,344.36
		h2.04v-3.25l-0.12,0.21L201.54,344.36z"/>
	<path class="st10" d="M210.44,344.35c0-1.07,0.24-1.92,0.72-2.55c0.48-0.63,1.13-0.95,1.96-0.95c0.67,0,1.21,0.25,1.65,0.75v-3.49
		h1.83v9.71h-1.65l-0.09-0.73c-0.46,0.57-1.04,0.85-1.76,0.85c-0.81,0-1.45-0.32-1.94-0.95
		C210.68,346.36,210.44,345.48,210.44,344.35z M212.26,344.49c0,0.64,0.11,1.13,0.33,1.48c0.22,0.34,0.55,0.51,0.97,0.51
		c0.56,0,0.96-0.24,1.19-0.72v-2.7c-0.23-0.48-0.62-0.72-1.18-0.72C212.7,342.34,212.26,343.06,212.26,344.49z"/>
	<path class="st10" d="M221.98,347.82c-0.08-0.16-0.15-0.37-0.18-0.61c-0.44,0.49-1.02,0.74-1.73,0.74c-0.67,0-1.23-0.19-1.67-0.58
		c-0.44-0.39-0.66-0.88-0.66-1.47c0-0.72,0.27-1.28,0.81-1.67c0.54-0.39,1.31-0.58,2.33-0.59h0.84v-0.39c0-0.32-0.08-0.57-0.24-0.76
		c-0.16-0.19-0.42-0.28-0.77-0.28c-0.31,0-0.55,0.07-0.72,0.22s-0.26,0.35-0.26,0.61h-1.83c0-0.4,0.12-0.76,0.37-1.1
		c0.24-0.34,0.59-0.6,1.04-0.79c0.45-0.19,0.95-0.29,1.5-0.29c0.84,0,1.51,0.21,2.01,0.64c0.5,0.42,0.74,1.02,0.74,1.79v2.96
		c0,0.65,0.09,1.14,0.27,1.47v0.11H221.98z M220.47,346.55c0.27,0,0.52-0.06,0.75-0.18s0.4-0.28,0.5-0.48v-1.18h-0.68
		c-0.91,0-1.4,0.32-1.46,0.95l-0.01,0.11c0,0.23,0.08,0.42,0.24,0.56S220.19,346.55,220.47,346.55z"/>
	<path class="st10" d="M227.41,345.24l1.26-4.25h1.96l-2.75,7.9l-0.15,0.36c-0.41,0.89-1.08,1.34-2.02,1.34
		c-0.27,0-0.54-0.04-0.81-0.12v-1.38l0.28,0.01c0.34,0,0.6-0.05,0.77-0.16c0.17-0.1,0.3-0.28,0.4-0.52l0.21-0.56l-2.4-6.86h1.97
		L227.41,345.24z"/>
	<path class="st10" d="M235.06,345.93c0-0.22-0.11-0.4-0.33-0.53c-0.22-0.13-0.58-0.24-1.07-0.34c-1.63-0.34-2.44-1.03-2.44-2.07
		c0-0.61,0.25-1.11,0.75-1.52s1.16-0.61,1.98-0.61c0.87,0,1.56,0.2,2.08,0.61s0.78,0.94,0.78,1.59h-1.83c0-0.26-0.08-0.48-0.25-0.65
		c-0.17-0.17-0.43-0.26-0.79-0.26c-0.31,0-0.55,0.07-0.71,0.21c-0.17,0.14-0.25,0.32-0.25,0.53c0,0.2,0.1,0.37,0.29,0.49
		c0.19,0.12,0.52,0.23,0.97,0.32c0.46,0.09,0.84,0.19,1.15,0.31c0.96,0.35,1.45,0.97,1.45,1.84c0,0.62-0.27,1.13-0.8,1.51
		c-0.54,0.39-1.23,0.58-2.07,0.58c-0.57,0-1.08-0.1-1.53-0.31c-0.44-0.2-0.79-0.48-1.05-0.84c-0.25-0.36-0.38-0.74-0.38-1.15h1.73
		c0.02,0.32,0.14,0.57,0.36,0.75c0.22,0.17,0.52,0.26,0.9,0.26c0.35,0,0.61-0.07,0.79-0.2
		C234.97,346.32,235.06,346.15,235.06,345.93z"/>
	<path class="st10" d="M238.16,349.65l-0.66-0.46c0.4-0.55,0.6-1.12,0.62-1.71v-1.06h1.14v0.92c0,0.43-0.1,0.85-0.31,1.28
		C238.74,349.06,238.48,349.4,238.16,349.65z"/>
	<path class="st10" d="M81.49,360.01c0,1.04-0.24,1.88-0.71,2.52s-1.12,0.95-1.93,0.95c-0.83,0-1.48-0.26-1.96-0.79v3.29h-1.17
		v-9.47h1.07l0.06,0.76c0.48-0.59,1.14-0.88,1.98-0.88c0.82,0,1.47,0.31,1.95,0.93c0.48,0.62,0.72,1.48,0.72,2.58V360.01z
		 M80.32,359.88c0-0.77-0.16-1.38-0.49-1.83c-0.33-0.45-0.78-0.67-1.35-0.67c-0.71,0-1.24,0.31-1.59,0.94v3.27
		c0.35,0.62,0.88,0.94,1.61,0.94c0.56,0,1.01-0.22,1.34-0.67C80.15,361.42,80.32,360.76,80.32,359.88z"/>
	<path class="st10" d="M84.24,363.36h-1.17v-9.71h1.17V363.36z"/>
	<path class="st10" d="M90.34,363.36c-0.07-0.13-0.12-0.38-0.16-0.72c-0.54,0.56-1.19,0.85-1.95,0.85c-0.67,0-1.23-0.19-1.66-0.57
		c-0.43-0.38-0.65-0.86-0.65-1.45c0-0.71,0.27-1.27,0.81-1.66c0.54-0.39,1.3-0.59,2.29-0.59h1.14v-0.54c0-0.41-0.12-0.73-0.37-0.98
		c-0.24-0.24-0.6-0.36-1.08-0.36c-0.42,0-0.77,0.11-1.05,0.32c-0.28,0.21-0.42,0.47-0.42,0.76h-1.18c0-0.34,0.12-0.67,0.36-0.99
		c0.24-0.32,0.57-0.57,0.99-0.76c0.41-0.19,0.87-0.28,1.37-0.28c0.79,0,1.41,0.2,1.85,0.59s0.68,0.94,0.7,1.63v3.15
		c0,0.63,0.08,1.13,0.24,1.5v0.1H90.34z M88.39,362.46c0.37,0,0.71-0.09,1.04-0.28c0.33-0.19,0.57-0.44,0.71-0.74v-1.4h-0.92
		c-1.43,0-2.15,0.42-2.15,1.26c0,0.37,0.12,0.65,0.37,0.86C87.7,362.36,88.01,362.46,88.39,362.46z"/>
	<path class="st10" d="M94.26,356.52l0.04,0.86c0.52-0.66,1.21-0.99,2.05-0.99c1.44,0,2.17,0.82,2.19,2.45v4.52h-1.17v-4.53
		c0-0.49-0.12-0.86-0.34-1.09s-0.57-0.35-1.03-0.35c-0.38,0-0.71,0.1-1,0.3c-0.29,0.2-0.51,0.47-0.67,0.8v4.87h-1.17v-6.84H94.26z"
		/>
	<path class="st10" d="M104.28,361.54c0-0.32-0.12-0.56-0.36-0.74c-0.24-0.17-0.65-0.33-1.25-0.45s-1.06-0.28-1.41-0.46
		c-0.35-0.18-0.6-0.39-0.77-0.63c-0.17-0.24-0.25-0.54-0.25-0.87c0-0.56,0.24-1.03,0.71-1.42s1.08-0.58,1.82-0.58
		c0.78,0,1.4,0.2,1.89,0.6c0.48,0.4,0.72,0.91,0.72,1.54h-1.18c0-0.32-0.14-0.6-0.41-0.83c-0.27-0.23-0.61-0.35-1.03-0.35
		c-0.43,0-0.76,0.09-1,0.28c-0.24,0.19-0.36,0.43-0.36,0.73c0,0.28,0.11,0.5,0.33,0.64c0.22,0.14,0.63,0.28,1.21,0.41
		c0.58,0.13,1.06,0.29,1.42,0.47c0.36,0.18,0.63,0.4,0.81,0.65s0.26,0.57,0.26,0.93c0,0.61-0.24,1.1-0.73,1.47s-1.12,0.55-1.9,0.55
		c-0.55,0-1.03-0.1-1.45-0.29c-0.42-0.19-0.75-0.46-0.99-0.81c-0.24-0.35-0.36-0.72-0.36-1.13h1.17c0.02,0.39,0.18,0.7,0.47,0.93
		c0.29,0.23,0.68,0.34,1.16,0.34c0.44,0,0.8-0.09,1.07-0.27C104.15,362.08,104.28,361.84,104.28,361.54z"/>
	<path class="st10" d="M114.16,361.54c0-0.32-0.12-0.56-0.36-0.74c-0.24-0.17-0.65-0.33-1.25-0.45s-1.06-0.28-1.41-0.46
		c-0.35-0.18-0.6-0.39-0.77-0.63c-0.17-0.24-0.25-0.54-0.25-0.87c0-0.56,0.24-1.03,0.71-1.42s1.08-0.58,1.82-0.58
		c0.78,0,1.4,0.2,1.89,0.6c0.48,0.4,0.72,0.91,0.72,1.54h-1.18c0-0.32-0.14-0.6-0.41-0.83c-0.27-0.23-0.61-0.35-1.03-0.35
		c-0.43,0-0.76,0.09-1,0.28c-0.24,0.19-0.36,0.43-0.36,0.73c0,0.28,0.11,0.5,0.33,0.64c0.22,0.14,0.63,0.28,1.21,0.41
		c0.58,0.13,1.06,0.29,1.42,0.47c0.36,0.18,0.63,0.4,0.81,0.65s0.26,0.57,0.26,0.93c0,0.61-0.24,1.1-0.73,1.47s-1.12,0.55-1.9,0.55
		c-0.55,0-1.03-0.1-1.45-0.29c-0.42-0.19-0.75-0.46-0.99-0.81c-0.24-0.35-0.36-0.72-0.36-1.13h1.17c0.02,0.39,0.18,0.7,0.47,0.93
		c0.29,0.23,0.68,0.34,1.16,0.34c0.44,0,0.8-0.09,1.07-0.27C114.03,362.08,114.16,361.84,114.16,361.54z"/>
	<path class="st10" d="M118.44,354.86v1.66h1.28v0.9h-1.28v4.25c0,0.27,0.06,0.48,0.17,0.62c0.11,0.14,0.31,0.21,0.58,0.21
		c0.13,0,0.32-0.03,0.56-0.08v0.94c-0.31,0.08-0.61,0.13-0.9,0.13c-0.52,0-0.92-0.16-1.18-0.47c-0.27-0.32-0.4-0.76-0.4-1.35v-4.24
		h-1.25v-0.9h1.25v-1.66H118.44z"/>
	<path class="st10" d="M125.3,363.36c-0.07-0.13-0.12-0.38-0.16-0.72c-0.54,0.56-1.19,0.85-1.95,0.85c-0.67,0-1.23-0.19-1.66-0.57
		c-0.43-0.38-0.65-0.86-0.65-1.45c0-0.71,0.27-1.27,0.81-1.66c0.54-0.39,1.3-0.59,2.29-0.59h1.14v-0.54c0-0.41-0.12-0.73-0.37-0.98
		c-0.24-0.24-0.6-0.36-1.08-0.36c-0.42,0-0.77,0.11-1.05,0.32c-0.28,0.21-0.42,0.47-0.42,0.76h-1.18c0-0.34,0.12-0.67,0.36-0.99
		c0.24-0.32,0.57-0.57,0.99-0.76c0.41-0.19,0.87-0.28,1.37-0.28c0.79,0,1.41,0.2,1.85,0.59s0.68,0.94,0.7,1.63v3.15
		c0,0.63,0.08,1.13,0.24,1.5v0.1H125.3z M123.36,362.46c0.37,0,0.71-0.09,1.04-0.28c0.33-0.19,0.57-0.44,0.71-0.74v-1.4h-0.92
		c-1.43,0-2.15,0.42-2.15,1.26c0,0.37,0.12,0.65,0.37,0.86C122.66,362.36,122.98,362.46,123.36,362.46z"/>
	<path class="st10" d="M131.43,357.57c-0.18-0.03-0.37-0.04-0.58-0.04c-0.77,0-1.29,0.33-1.56,0.98v4.85h-1.17v-6.84h1.14l0.02,0.79
		c0.38-0.61,0.93-0.92,1.63-0.92c0.23,0,0.4,0.03,0.52,0.09V357.57z"/>
	<path class="st10" d="M134.4,354.86v1.66h1.28v0.9h-1.28v4.25c0,0.27,0.06,0.48,0.17,0.62c0.11,0.14,0.31,0.21,0.58,0.21
		c0.13,0,0.32-0.03,0.56-0.08v0.94c-0.31,0.08-0.61,0.13-0.9,0.13c-0.52,0-0.92-0.16-1.18-0.47c-0.27-0.32-0.4-0.76-0.4-1.35v-4.24
		h-1.25v-0.9h1.25v-1.66H134.4z"/>
	<path class="st10" d="M137.05,354.7c0-0.19,0.06-0.35,0.17-0.48c0.12-0.13,0.29-0.2,0.52-0.2s0.4,0.07,0.52,0.2
		c0.12,0.13,0.18,0.29,0.18,0.48c0,0.19-0.06,0.35-0.18,0.47c-0.12,0.13-0.29,0.19-0.52,0.19s-0.4-0.06-0.52-0.19
		S137.05,354.89,137.05,354.7z M138.32,363.36h-1.17v-6.84h1.17V363.36z"/>
	<path class="st10" d="M141.29,356.52l0.04,0.86c0.52-0.66,1.21-0.99,2.05-0.99c1.44,0,2.17,0.82,2.19,2.45v4.52h-1.17v-4.53
		c0-0.49-0.12-0.86-0.34-1.09s-0.57-0.35-1.03-0.35c-0.38,0-0.71,0.1-1,0.3c-0.29,0.2-0.51,0.47-0.67,0.8v4.87h-1.17v-6.84H141.29z"
		/>
	<path class="st10" d="M147.05,359.88c0-1.07,0.25-1.91,0.74-2.54c0.49-0.63,1.15-0.94,1.96-0.94c0.83,0,1.49,0.29,1.95,0.88
		l0.06-0.76h1.07v6.67c0,0.89-0.26,1.58-0.79,2.09c-0.52,0.51-1.23,0.77-2.11,0.77c-0.49,0-0.98-0.11-1.45-0.32
		c-0.47-0.21-0.83-0.5-1.08-0.87l0.61-0.7c0.5,0.62,1.11,0.93,1.84,0.93c0.57,0,1.01-0.16,1.33-0.48c0.32-0.32,0.48-0.77,0.48-1.35
		v-0.59c-0.47,0.54-1.11,0.81-1.92,0.81c-0.8,0-1.45-0.32-1.94-0.97C147.3,361.87,147.05,360.99,147.05,359.88z M148.23,360.01
		c0,0.77,0.16,1.38,0.47,1.82c0.32,0.44,0.76,0.66,1.33,0.66c0.74,0,1.28-0.34,1.62-1.01v-3.12c-0.36-0.65-0.9-0.98-1.61-0.98
		c-0.57,0-1.01,0.22-1.33,0.66S148.23,359.14,148.23,360.01z"/>
	<path class="st10" d="M162.02,363.36c-0.07-0.13-0.12-0.38-0.16-0.72c-0.54,0.56-1.19,0.85-1.95,0.85c-0.67,0-1.23-0.19-1.66-0.57
		c-0.43-0.38-0.65-0.86-0.65-1.45c0-0.71,0.27-1.27,0.81-1.66c0.54-0.39,1.3-0.59,2.29-0.59h1.14v-0.54c0-0.41-0.12-0.73-0.37-0.98
		c-0.24-0.24-0.6-0.36-1.08-0.36c-0.42,0-0.77,0.11-1.05,0.32c-0.28,0.21-0.42,0.47-0.42,0.76h-1.18c0-0.34,0.12-0.67,0.36-0.99
		c0.24-0.32,0.57-0.57,0.99-0.76c0.41-0.19,0.87-0.28,1.37-0.28c0.79,0,1.41,0.2,1.85,0.59s0.68,0.94,0.7,1.63v3.15
		c0,0.63,0.08,1.13,0.24,1.5v0.1H162.02z M160.08,362.46c0.37,0,0.71-0.09,1.04-0.28c0.33-0.19,0.57-0.44,0.71-0.74v-1.4h-0.92
		c-1.43,0-2.15,0.42-2.15,1.26c0,0.37,0.12,0.65,0.37,0.86C159.38,362.36,159.7,362.46,160.08,362.46z"/>
	<path class="st10" d="M166.43,354.86v1.66h1.28v0.9h-1.28v4.25c0,0.27,0.06,0.48,0.17,0.62c0.11,0.14,0.31,0.21,0.58,0.21
		c0.13,0,0.32-0.03,0.56-0.08v0.94c-0.31,0.08-0.61,0.13-0.9,0.13c-0.52,0-0.92-0.16-1.18-0.47c-0.27-0.32-0.4-0.76-0.4-1.35v-4.24
		h-1.25v-0.9h1.25v-1.66H166.43z"/>
	<path class="st10" d="M176.38,360.93c0-0.35-0.1-0.62-0.29-0.82c-0.19-0.2-0.52-0.39-0.98-0.57c-0.46-0.17-0.86-0.34-1.19-0.52
		c-0.33-0.17-0.62-0.37-0.86-0.59c-0.24-0.22-0.42-0.48-0.56-0.78c-0.13-0.3-0.2-0.66-0.2-1.07c0-0.71,0.23-1.3,0.68-1.75
		s1.06-0.72,1.81-0.8v-1.35h1.01v1.37c0.75,0.11,1.33,0.42,1.75,0.93c0.42,0.52,0.63,1.19,0.63,2.01h-1.83
		c0-0.51-0.1-0.88-0.31-1.13c-0.21-0.25-0.49-0.38-0.84-0.38c-0.35,0-0.61,0.1-0.8,0.29c-0.19,0.2-0.28,0.47-0.28,0.81
		c0,0.32,0.09,0.58,0.28,0.77c0.19,0.19,0.53,0.39,1.03,0.59s0.92,0.39,1.24,0.57c0.32,0.18,0.6,0.38,0.82,0.61
		c0.22,0.23,0.39,0.48,0.51,0.77c0.12,0.29,0.18,0.62,0.18,1.01c0,0.72-0.22,1.3-0.67,1.74c-0.45,0.45-1.06,0.71-1.85,0.79v1.26
		h-1.01v-1.25c-0.86-0.09-1.53-0.4-2.01-0.92s-0.71-1.21-0.71-2.08h1.83c0,0.5,0.12,0.89,0.36,1.15c0.24,0.27,0.58,0.4,1.03,0.4
		c0.37,0,0.66-0.1,0.88-0.29C176.27,361.53,176.38,361.27,176.38,360.93z"/>
	<path class="st10" d="M183.71,359.68c-0.48,0.47-1.03,0.7-1.67,0.7c-0.81,0-1.46-0.28-1.95-0.84c-0.49-0.56-0.73-1.31-0.73-2.26
		c0-0.6,0.13-1.16,0.4-1.66c0.26-0.5,0.63-0.9,1.1-1.18c0.47-0.28,1-0.42,1.59-0.42c0.61,0,1.15,0.15,1.62,0.46
		c0.47,0.3,0.84,0.74,1.1,1.31s0.39,1.22,0.4,1.95v0.68c0,1.53-0.38,2.74-1.14,3.62c-0.76,0.88-1.84,1.34-3.24,1.4l-0.45,0.01v-1.52
		l0.4-0.01C182.72,361.84,183.58,361.1,183.71,359.68z M182.49,358.98c0.29,0,0.55-0.08,0.76-0.23s0.37-0.33,0.48-0.55v-0.75
		c0-0.62-0.12-1.1-0.35-1.44s-0.55-0.51-0.95-0.51c-0.37,0-0.67,0.17-0.9,0.5c-0.24,0.33-0.35,0.75-0.35,1.26
		c0,0.5,0.11,0.91,0.34,1.24C181.75,358.82,182.08,358.98,182.49,358.98z"/>
	<path class="st10" d="M187.04,362.46c0-0.29,0.1-0.53,0.29-0.71s0.44-0.27,0.74-0.27c0.3,0,0.55,0.09,0.74,0.27
		s0.29,0.42,0.29,0.71c0,0.29-0.1,0.52-0.29,0.7c-0.19,0.18-0.44,0.27-0.75,0.27c-0.3,0-0.55-0.09-0.74-0.27
		C187.13,362.98,187.04,362.74,187.04,362.46z"/>
	<path class="st10" d="M194.9,359.68c-0.48,0.47-1.03,0.7-1.67,0.7c-0.81,0-1.46-0.28-1.95-0.84c-0.49-0.56-0.73-1.31-0.73-2.26
		c0-0.6,0.13-1.16,0.4-1.66c0.26-0.5,0.63-0.9,1.1-1.18c0.47-0.28,1-0.42,1.59-0.42c0.61,0,1.15,0.15,1.62,0.46
		c0.47,0.3,0.84,0.74,1.1,1.31s0.39,1.22,0.4,1.95v0.68c0,1.53-0.38,2.74-1.14,3.62c-0.76,0.88-1.84,1.34-3.24,1.4l-0.45,0.01v-1.52
		l0.4-0.01C193.91,361.84,194.77,361.1,194.9,359.68z M193.68,358.98c0.29,0,0.55-0.08,0.76-0.23s0.37-0.33,0.48-0.55v-0.75
		c0-0.62-0.12-1.1-0.35-1.44s-0.55-0.51-0.95-0.51c-0.37,0-0.67,0.17-0.9,0.5c-0.24,0.33-0.35,0.75-0.35,1.26
		c0,0.5,0.11,0.91,0.34,1.24C192.94,358.82,193.26,358.98,193.68,358.98z"/>
	<path class="st10" d="M202.33,359.68c-0.48,0.47-1.03,0.7-1.67,0.7c-0.81,0-1.46-0.28-1.95-0.84c-0.49-0.56-0.73-1.31-0.73-2.26
		c0-0.6,0.13-1.16,0.4-1.66c0.26-0.5,0.63-0.9,1.1-1.18c0.47-0.28,1-0.42,1.59-0.42c0.61,0,1.15,0.15,1.62,0.46
		c0.47,0.3,0.84,0.74,1.1,1.31s0.39,1.22,0.4,1.95v0.68c0,1.53-0.38,2.74-1.14,3.62c-0.76,0.88-1.84,1.34-3.24,1.4l-0.45,0.01v-1.52
		l0.4-0.01C201.34,361.84,202.2,361.1,202.33,359.68z M201.11,358.98c0.29,0,0.55-0.08,0.76-0.23s0.37-0.33,0.48-0.55v-0.75
		c0-0.62-0.12-1.1-0.35-1.44s-0.55-0.51-0.95-0.51c-0.37,0-0.67,0.17-0.9,0.5c-0.24,0.33-0.35,0.75-0.35,1.26
		c0,0.5,0.11,0.91,0.34,1.24C200.37,358.82,200.69,358.98,201.11,358.98z"/>
	<path class="st10" d="M206.13,364.15h-1.36l3.39-9.99h1.36L206.13,364.15z"/>
	<path class="st10" d="M212.11,356.52l0.06,0.76c0.48-0.59,1.14-0.89,1.97-0.89c0.88,0,1.49,0.35,1.81,1.04
		c0.48-0.7,1.17-1.04,2.05-1.04c0.74,0,1.29,0.22,1.66,0.65c0.36,0.43,0.54,1.08,0.54,1.95v4.37h-1.83v-4.36
		c0-0.39-0.08-0.67-0.23-0.85c-0.15-0.18-0.42-0.27-0.8-0.27c-0.55,0-0.93,0.26-1.14,0.78l0.01,4.7h-1.83V359
		c0-0.4-0.08-0.68-0.23-0.86c-0.16-0.18-0.42-0.27-0.8-0.27c-0.52,0-0.89,0.21-1.12,0.64v4.84h-1.83v-6.84H212.11z"/>
	<path class="st10" d="M221.32,359.87c0-0.68,0.13-1.28,0.39-1.81c0.26-0.53,0.64-0.94,1.13-1.23c0.49-0.29,1.06-0.44,1.71-0.44
		c0.92,0,1.68,0.28,2.26,0.85c0.58,0.56,0.91,1.33,0.98,2.3l0.01,0.47c0,1.05-0.29,1.89-0.88,2.53s-1.37,0.95-2.36,0.95
		c-0.99,0-1.77-0.32-2.36-0.95c-0.59-0.63-0.88-1.49-0.88-2.58V359.87z M223.14,360c0,0.65,0.12,1.15,0.37,1.49
		c0.24,0.34,0.59,0.52,1.05,0.52c0.44,0,0.79-0.17,1.04-0.51s0.37-0.88,0.37-1.63c0-0.64-0.12-1.13-0.37-1.48s-0.6-0.53-1.05-0.53
		c-0.45,0-0.79,0.17-1.04,0.52C223.26,358.73,223.14,359.27,223.14,360z"/>
	<path class="st10" d="M230.6,356.52l0.06,0.79c0.49-0.61,1.14-0.92,1.97-0.92c0.72,0,1.26,0.21,1.62,0.64
		c0.35,0.43,0.54,1.06,0.54,1.91v4.42h-1.83v-4.37c0-0.39-0.08-0.67-0.25-0.84c-0.17-0.17-0.45-0.26-0.84-0.26
		c-0.51,0-0.9,0.22-1.16,0.66v4.82h-1.83v-6.84H230.6z"/>
	<path class="st10" d="M238.36,354.83v1.68h1.17v1.34h-1.17v3.41c0,0.25,0.05,0.43,0.15,0.54c0.1,0.11,0.28,0.16,0.56,0.16
		c0.2,0,0.38-0.01,0.54-0.04v1.38c-0.36,0.11-0.73,0.16-1.11,0.16c-1.28,0-1.93-0.65-1.96-1.94v-3.69h-1v-1.34h1v-1.68H238.36z"/>
	<path class="st10" d="M242.33,357.26c0.48-0.58,1.09-0.87,1.83-0.87c1.48,0,2.24,0.86,2.26,2.58v4.38h-1.83v-4.33
		c0-0.39-0.08-0.68-0.25-0.87c-0.17-0.19-0.45-0.28-0.84-0.28c-0.54,0-0.92,0.21-1.16,0.62v4.86h-1.83v-9.71h1.83V357.26z"/>
</g>
</svg>
