<?xml version="1.0" encoding="utf-8"?>
<!-- Generator: Adobe Illustrator 24.2.3, SVG Export Plug-In . SVG Version: 6.00 Build 0)  -->
<svg version="1.1" id="Layer_1" xmlns="http://www.w3.org/2000/svg" xmlns:xlink="http://www.w3.org/1999/xlink" x="0px" y="0px"
	 viewBox="0 0 320 468" style="enable-background:new 0 0 320 468;" xml:space="preserve">
<style type="text/css">
	.st0{fill:#EDF4FD;}
	.st1{fill:#021D8B;}
</style>
<g id="Button_2_">
	<g>
		<path class="st0" d="M213.8,139.55H105.64c-22.7,0-41.1-18.4-41.1-41.1v0c0-22.7,18.4-41.1,41.1-41.1H213.8
			c22.7,0,41.1,18.4,41.1,41.1v0C254.9,121.15,236.5,139.55,213.8,139.55z"/>
	</g>
	<g>
		<path class="st1" d="M115.02,99.9c0,3.38-0.77,6.08-2.3,8.12c-1.53,2.03-3.6,3.05-6.21,3.05c-2.22,0-4.01-0.77-5.37-2.31v10.33
			h-5.86V88.74h5.43l0.2,2.15c1.42-1.7,3.27-2.55,5.55-2.55c2.7,0,4.8,1,6.3,3c1.5,2,2.25,4.76,2.25,8.27V99.9z M109.17,99.48
			c0-2.04-0.36-3.61-1.08-4.72c-0.72-1.11-1.77-1.66-3.15-1.66c-1.84,0-3.1,0.7-3.79,2.11v8.98c0.72,1.45,1.99,2.17,3.83,2.17
			C107.77,106.35,109.17,104.06,109.17,99.48z"/>
		<path class="st1" d="M130.97,94.23c-0.8-0.11-1.5-0.16-2.11-0.16c-2.22,0-3.67,0.75-4.36,2.25v14.35h-5.86V88.74h5.53l0.16,2.61
			c1.18-2.01,2.8-3.02,4.88-3.02c0.65,0,1.26,0.09,1.82,0.26L130.97,94.23z"/>
		<path class="st1" d="M132.15,99.5c0-2.17,0.42-4.11,1.26-5.82s2.04-3.02,3.62-3.95c1.57-0.93,3.4-1.4,5.48-1.4
			c2.96,0,5.37,0.91,7.24,2.72s2.91,4.27,3.13,7.38l0.04,1.5c0,3.36-0.94,6.06-2.82,8.1s-4.4,3.05-7.56,3.05s-5.68-1.01-7.57-3.04
			c-1.88-2.03-2.83-4.78-2.83-8.27V99.5z M138,99.91c0,2.08,0.39,3.68,1.18,4.78c0.78,1.1,1.9,1.65,3.36,1.65
			c1.42,0,2.53-0.54,3.32-1.63c0.8-1.09,1.2-2.83,1.2-5.23c0-2.04-0.4-3.63-1.2-4.75c-0.8-1.12-1.92-1.68-3.36-1.68
			c-1.43,0-2.54,0.56-3.32,1.67C138.39,95.84,138,97.57,138,99.91z"/>
		<path class="st1" d="M163.54,83.35v5.39h3.75v4.3h-3.75v10.94c0,0.81,0.15,1.39,0.47,1.74c0.31,0.35,0.91,0.53,1.78,0.53
			c0.65,0,1.22-0.05,1.72-0.14v4.44c-1.15,0.35-2.33,0.53-3.55,0.53c-4.11,0-6.2-2.07-6.28-6.22V93.03h-3.2v-4.3h3.2v-5.39H163.54z"
			/>
		<path class="st1" d="M180.64,111.07c-3.22,0-5.83-0.99-7.85-2.96c-2.02-1.97-3.03-4.6-3.03-7.88v-0.57c0-2.2,0.43-4.17,1.28-5.91
			c0.85-1.74,2.06-3.07,3.62-4.01s3.34-1.41,5.34-1.41c3,0,5.36,0.95,7.08,2.84s2.58,4.57,2.58,8.04v2.39H175.7
			c0.19,1.43,0.76,2.58,1.71,3.45c0.95,0.86,2.16,1.3,3.62,1.3c2.26,0,4.02-0.82,5.29-2.45l2.88,3.22
			c-0.88,1.24-2.07,2.21-3.57,2.91C184.13,110.72,182.46,111.07,180.64,111.07z M179.97,93.05c-1.16,0-2.1,0.39-2.83,1.18
			c-0.72,0.79-1.19,1.91-1.39,3.38h8.15v-0.47c-0.03-1.3-0.38-2.31-1.05-3.02C182.17,93.41,181.21,93.05,179.97,93.05z"/>
		<path class="st1" d="M202.1,106.35c1.08,0,1.96-0.3,2.63-0.89c0.68-0.59,1.03-1.38,1.05-2.37h5.49c-0.01,1.49-0.42,2.85-1.22,4.08
			c-0.8,1.24-1.89,2.2-3.27,2.88c-1.39,0.68-2.92,1.02-4.59,1.02c-3.13,0-5.61-1-7.42-2.99c-1.81-1.99-2.72-4.75-2.72-8.26v-0.38
			c0-3.38,0.9-6.07,2.7-8.09c1.8-2.01,4.26-3.02,7.4-3.02c2.74,0,4.94,0.78,6.6,2.34c1.65,1.56,2.5,3.64,2.52,6.23h-5.49
			c-0.03-1.14-0.38-2.07-1.05-2.78c-0.68-0.71-1.57-1.07-2.67-1.07c-1.36,0-2.4,0.5-3.09,1.49c-0.7,0.99-1.04,2.61-1.04,4.84v0.61
			c0,2.26,0.34,3.88,1.03,4.87S200.7,106.35,202.1,106.35z"/>
		<path class="st1" d="M221.64,83.35v5.39h3.75v4.3h-3.75v10.94c0,0.81,0.16,1.39,0.47,1.74c0.31,0.35,0.9,0.53,1.78,0.53
			c0.65,0,1.22-0.05,1.72-0.14v4.44c-1.15,0.35-2.33,0.53-3.55,0.53c-4.11,0-6.2-2.07-6.28-6.22V93.03h-3.2v-4.3h3.2v-5.39H221.64z"
			/>
	</g>
</g>
</svg>
