<svg id="Layer_1" xmlns="http://www.w3.org/2000/svg" viewBox="0 0 300 250"><style>.st0{fill:#021d8b}</style><path class="st0" d="M90.84 204.21c0-.3-.11-.56-.32-.76s-.57-.39-1.07-.56c-.7-.21-1.21-.49-1.53-.83-.32-.34-.48-.78-.48-1.31 0-.54.16-.98.47-1.33.31-.34.74-.55 1.29-.62v-1.08h.73v1.08c.55.08.98.31 1.29.69.31.39.46.92.46 1.59h-.91c0-.46-.11-.83-.33-1.11s-.52-.41-.89-.41c-.39 0-.69.1-.9.3-.21.2-.31.48-.31.85 0 .34.11.6.33.8s.58.38 1.08.54c.5.16.89.34 1.17.54.28.2.49.42.62.68s.2.56.2.91c0 .56-.17 1-.5 1.34-.33.34-.8.54-1.4.6v.94h-.73v-.94c-.61-.06-1.09-.27-1.44-.65-.35-.38-.52-.89-.52-1.54h.91c0 .46.12.81.36 1.05s.58.37 1.02.37c.43 0 .77-.1 1.01-.31.27-.19.39-.47.39-.83zM95.89 206.06h-.92v-6.08l-1.84.67v-.83l2.61-.98h.14v7.22zM102.39 199.43v1.29h1v.7h-1v3.31c0 .21.04.37.13.48.09.11.24.16.45.16.1 0 .25-.02.43-.06v.74c-.24.06-.47.1-.7.1-.41 0-.71-.12-.92-.37-.21-.25-.31-.6-.31-1.05v-3.31h-.97v-.7h.97v-1.29h.92zM107.02 201.54c-.14-.02-.29-.03-.45-.03-.6 0-1 .25-1.22.76v3.79h-.91v-5.33h.89l.01.62c.3-.48.72-.71 1.27-.71.18 0 .31.02.4.07v.83zM107.87 199.31c0-.15.04-.27.13-.37.09-.1.22-.15.4-.15.18 0 .31.05.4.15.09.1.14.23.14.37 0 .15-.05.27-.14.37-.09.1-.23.15-.4.15-.18 0-.31-.05-.4-.15a.524.524 0 0 1-.13-.37zm.98 6.75h-.91v-5.33h.91v5.33zM113.6 206.06c-.05-.11-.1-.29-.13-.56-.42.44-.93.66-1.52.66-.53 0-.96-.15-1.29-.45-.34-.3-.5-.67-.5-1.13 0-.55.21-.99.63-1.29.42-.31 1.02-.46 1.78-.46h.89v-.42c0-.32-.09-.57-.29-.76-.19-.19-.47-.28-.84-.28-.33 0-.6.08-.82.25-.22.16-.33.36-.33.6h-.92c0-.27.09-.52.28-.77.19-.25.45-.44.77-.59.32-.14.68-.22 1.07-.22.61 0 1.1.15 1.44.46.35.31.53.73.54 1.27v2.45c0 .49.06.88.19 1.17v.08h-.95zm-1.51-.7c.29 0 .56-.07.81-.22.26-.15.44-.34.56-.58v-1.09h-.71c-1.12 0-1.67.33-1.67.98 0 .29.09.51.29.67s.42.24.72.24zM116.79 206.06h-.91v-7.57h.91v7.57zM121.2 206.06v-4.63h-.84v-.7h.84v-.55c0-.57.15-1.01.46-1.33s.74-.47 1.3-.47c.21 0 .42.03.63.08l-.05.73a2.56 2.56 0 0 0-.49-.04c-.3 0-.52.09-.68.26-.16.17-.24.42-.24.74v.56h1.14v.7h-1.14v4.63h-.93zM124.01 203.34c0-.52.1-.99.31-1.41.21-.42.49-.74.86-.97s.78-.34 1.25-.34c.73 0 1.31.25 1.76.75s.67 1.17.67 2.01v.06c0 .52-.1.99-.3 1.4-.2.41-.48.73-.85.96-.37.23-.79.34-1.27.34-.72 0-1.31-.25-1.76-.75s-.67-1.17-.67-2v-.05zm.92.11c0 .59.14 1.07.41 1.42s.64.54 1.1.54c.46 0 .83-.18 1.1-.54.27-.36.41-.87.41-1.53 0-.58-.14-1.06-.42-1.42-.28-.36-.65-.54-1.11-.54-.45 0-.81.18-1.09.54-.26.35-.4.86-.4 1.53zM132.59 201.54c-.14-.02-.29-.03-.45-.03-.6 0-1 .25-1.22.76v3.79h-.91v-5.33h.89l.01.62c.3-.48.72-.71 1.27-.71.18 0 .31.02.4.07v.83zM137.16 199.43v1.29h1v.7h-1v3.31c0 .21.04.37.13.48.09.11.24.16.45.16.1 0 .25-.02.43-.06v.74c-.24.06-.47.1-.7.1-.41 0-.71-.12-.92-.37-.21-.25-.31-.6-.31-1.05v-3.31h-.97v-.7h.97v-1.29h.92zM140.13 201.37c.4-.5.93-.74 1.58-.74 1.13 0 1.7.64 1.71 1.91v3.52h-.91v-3.53c0-.38-.09-.67-.26-.85-.17-.18-.44-.28-.81-.28-.29 0-.55.08-.78.24-.22.16-.4.37-.52.62v3.8h-.91v-7.57h.91v2.88zM146.99 206.16c-.72 0-1.31-.24-1.76-.71-.45-.47-.68-1.11-.68-1.91v-.17c0-.53.1-1 .3-1.42.2-.42.48-.74.85-.98.36-.24.76-.35 1.18-.35.69 0 1.23.23 1.62.68.38.46.58 1.11.58 1.96v.38h-3.61c.01.53.17.95.46 1.27.29.32.67.49 1.12.49.32 0 .59-.07.82-.2.22-.13.42-.31.59-.52l.56.43c-.46.7-1.14 1.05-2.03 1.05zm-.11-4.78c-.37 0-.68.13-.93.4s-.4.64-.46 1.13h2.67v-.07c-.03-.46-.15-.82-.37-1.08s-.53-.38-.91-.38zM153.07 206.06v-4.63h-.84v-.7h.84v-.55c0-.57.15-1.01.46-1.33s.74-.47 1.3-.47c.21 0 .42.03.63.08l-.05.73a2.56 2.56 0 0 0-.49-.04c-.3 0-.52.09-.68.26-.16.17-.24.42-.24.74v.56h1.14v.7H154v4.63h-.93zM156.13 199.31c0-.15.04-.27.13-.37.09-.1.22-.15.4-.15.18 0 .31.05.4.15.09.1.14.23.14.37 0 .15-.05.27-.14.37-.09.1-.23.15-.4.15-.18 0-.31-.05-.4-.15a.573.573 0 0 1-.13-.37zm.99 6.75h-.91v-5.33h.91v5.33zM161.16 201.54c-.14-.02-.29-.03-.45-.03-.6 0-1 .25-1.22.76v3.79h-.91v-5.33h.89l.01.62c.3-.48.72-.71 1.27-.71.18 0 .31.02.4.07v.83zM165.1 204.64c0-.25-.09-.44-.28-.57-.19-.14-.51-.25-.97-.35-.46-.1-.83-.22-1.1-.35-.27-.14-.47-.3-.6-.49a1.18 1.18 0 0 1-.19-.68c0-.44.18-.81.55-1.11.37-.3.84-.45 1.42-.45.6 0 1.09.16 1.47.47.38.31.56.71.56 1.2h-.92c0-.25-.11-.46-.32-.65s-.48-.27-.8-.27c-.33 0-.59.07-.78.22-.19.14-.28.33-.28.57 0 .22.09.39.26.5s.49.22.94.32.82.22 1.11.36c.28.14.49.31.63.51s.2.44.2.73c0 .48-.19.86-.57 1.15-.38.29-.88.43-1.48.43-.43 0-.8-.08-1.13-.23a1.85 1.85 0 0 1-.77-.63c-.19-.27-.28-.56-.28-.88h.91c.02.3.14.55.37.73s.53.27.9.27c.34 0 .62-.07.83-.21.21-.17.32-.35.32-.59zM168.43 199.43v1.29h1v.7h-1v3.31c0 .21.04.37.13.48.09.11.24.16.45.16.1 0 .25-.02.43-.06v.74c-.24.06-.47.1-.7.1-.41 0-.71-.12-.92-.37-.21-.25-.31-.6-.31-1.05v-3.31h-.97v-.7h.97v-1.29h.92zM176.42 206.06h-1.67v-5.3l-1.64.48v-1.26l3.15-1.09h.15v7.17zM182.97 203.25h.73v1.28h-.73v1.52h-1.66v-1.52h-2.77l-.1-1.02 2.87-4.62v-.01h1.66v4.37zm-2.95 0h1.29v-2.21l-.1.17-1.19 2.04zM186.76 203.35c0-.84.18-1.51.55-2 .36-.49.87-.73 1.53-.73.48 0 .88.19 1.2.56v-2.7h1.67v7.57h-1.49l-.08-.57c-.34.45-.78.67-1.3.67-.63 0-1.14-.24-1.51-.73-.38-.48-.57-1.17-.57-2.07zm1.66.11c0 .95.28 1.42.83 1.42.37 0 .63-.15.79-.46v-2.03c-.15-.32-.41-.47-.78-.47-.51 0-.79.41-.83 1.24l-.01.3zM195.65 206.06c-.06-.11-.11-.27-.16-.48-.31.38-.73.58-1.28.58-.5 0-.93-.15-1.28-.46s-.53-.69-.53-1.15c0-.58.21-1.02.64-1.31.43-.29 1.05-.44 1.86-.44h.51v-.28c0-.49-.21-.74-.64-.74-.39 0-.59.19-.59.58h-1.66c0-.51.22-.93.66-1.25.44-.32 1-.48 1.68-.48.68 0 1.22.17 1.61.5.39.33.6.79.61 1.37v2.36c.01.49.08.86.23 1.12v.08h-1.66zm-1.04-1.09c.21 0 .38-.04.51-.13.14-.09.23-.19.29-.3v-.85h-.48c-.58 0-.87.26-.87.78 0 .15.05.27.15.37s.25.13.4.13zM200.14 203.73l.89-3.01h1.78l-2.17 6.22-.09.23c-.31.69-.85 1.03-1.64 1.03-.22 0-.45-.03-.69-.1v-1.18h.22c.23 0 .41-.03.54-.1s.21-.19.27-.36l.13-.35-1.85-5.39h1.77l.84 3.01zM206.03 204.56c0-.14-.07-.25-.22-.34-.15-.09-.43-.17-.84-.27s-.76-.21-1.03-.36-.47-.33-.62-.54a1.3 1.3 0 0 1-.21-.73c0-.49.2-.89.61-1.21.4-.32.93-.48 1.59-.48.7 0 1.27.16 1.7.48.43.32.64.74.64 1.26h-1.67c0-.43-.22-.64-.67-.64-.17 0-.32.05-.44.15s-.18.22-.18.36c0 .15.07.27.22.36s.38.17.69.23c.32.06.6.13.84.21.8.28 1.2.77 1.2 1.48 0 .49-.22.88-.65 1.19-.43.3-.99.46-1.68.46-.46 0-.86-.08-1.22-.25-.36-.17-.64-.39-.84-.67-.2-.28-.3-.58-.3-.89h1.55c.01.25.09.43.25.54.16.11.36.17.61.17.23 0 .4-.05.51-.14s.16-.22.16-.37zM208.6 207.49l-.52-.35c.31-.43.47-.87.48-1.33v-.82h.89v.71c0 .33-.08.66-.24 1-.16.32-.36.59-.61.79zM82.46 218.25v2.81h-.95v-7.18h2.65c.79 0 1.4.2 1.85.6s.67.93.67 1.59c0 .7-.22 1.23-.65 1.61-.44.38-1.06.56-1.87.56h-1.7zm0-.78h1.7c.51 0 .89-.12 1.16-.36.27-.24.4-.58.4-1.03 0-.43-.13-.77-.4-1.03s-.64-.39-1.11-.4h-1.75v2.82zM88.73 221.06h-.91v-7.57h.91v7.57zM93.48 221.06c-.05-.11-.1-.29-.13-.56-.42.44-.93.66-1.52.66-.53 0-.96-.15-1.29-.45-.34-.3-.5-.67-.5-1.13 0-.55.21-.99.63-1.29.42-.31 1.02-.46 1.78-.46h.89v-.42c0-.32-.09-.57-.29-.76-.19-.19-.47-.28-.84-.28-.33 0-.6.08-.82.25-.22.16-.33.36-.33.6h-.92c0-.27.09-.52.28-.77.19-.25.45-.44.77-.59.32-.14.68-.22 1.07-.22.61 0 1.1.15 1.44.46.35.31.53.73.54 1.27v2.45c0 .49.06.88.19 1.17v.08h-.95zm-1.51-.7c.29 0 .56-.07.81-.22.26-.15.44-.34.56-.58v-1.09h-.71c-1.12 0-1.67.33-1.67.98 0 .29.09.51.29.67s.42.24.72.24zM96.54 215.73l.03.67c.41-.51.94-.77 1.6-.77 1.13 0 1.7.64 1.71 1.91v3.52h-.91v-3.53c0-.38-.09-.67-.26-.85-.17-.18-.44-.28-.81-.28-.29 0-.55.08-.78.24-.22.16-.4.37-.52.62v3.8h-.91v-5.33h.85zM104.35 219.64c0-.25-.09-.44-.28-.57-.19-.14-.51-.25-.97-.35-.46-.1-.83-.22-1.1-.35-.27-.14-.47-.3-.6-.49a1.18 1.18 0 0 1-.19-.68c0-.44.18-.81.55-1.11.37-.3.84-.45 1.42-.45.6 0 1.09.16 1.47.47.38.31.56.71.56 1.2h-.92c0-.25-.11-.46-.32-.65s-.48-.27-.8-.27c-.33 0-.59.07-.78.22-.19.14-.28.33-.28.57 0 .22.09.39.26.5s.49.22.94.32.82.22 1.11.36c.28.14.49.31.63.51s.2.44.2.73c0 .48-.19.86-.57 1.15-.38.29-.88.43-1.48.43-.43 0-.8-.08-1.13-.23a1.85 1.85 0 0 1-.77-.63c-.19-.27-.28-.56-.28-.88h.91c.02.3.14.55.37.73s.53.27.9.27c.34 0 .62-.07.83-.21.22-.17.32-.35.32-.59zM112.06 219.64c0-.25-.09-.44-.28-.57-.19-.14-.51-.25-.97-.35-.46-.1-.83-.22-1.1-.35-.27-.14-.47-.3-.6-.49a1.18 1.18 0 0 1-.19-.68c0-.44.18-.81.55-1.11.37-.3.84-.45 1.42-.45.6 0 1.09.16 1.47.47.38.31.56.71.56 1.2H112c0-.25-.11-.46-.32-.65s-.48-.27-.8-.27c-.33 0-.59.07-.78.22-.19.14-.28.33-.28.57 0 .22.09.39.26.5s.49.22.94.32.82.22 1.11.36c.28.14.49.31.63.51s.2.44.2.73c0 .48-.19.86-.57 1.15-.38.29-.88.43-1.48.43-.43 0-.8-.08-1.13-.23a1.85 1.85 0 0 1-.77-.63c-.19-.27-.28-.56-.28-.88h.91c.02.3.14.55.37.73s.53.27.9.27c.34 0 .62-.07.83-.21.21-.17.32-.35.32-.59zM115.39 214.43v1.29h1v.7h-1v3.31c0 .21.04.37.13.48.09.11.24.16.45.16.1 0 .25-.02.43-.06v.74c-.24.06-.47.1-.7.1-.41 0-.71-.12-.92-.37-.21-.25-.31-.6-.31-1.05v-3.31h-.97v-.7h.97v-1.29h.92zM120.74 221.06c-.05-.11-.1-.29-.13-.56-.42.44-.93.66-1.52.66-.53 0-.96-.15-1.29-.45-.34-.3-.5-.67-.5-1.13 0-.55.21-.99.63-1.29.42-.31 1.02-.46 1.78-.46h.89v-.42c0-.32-.09-.57-.29-.76-.19-.19-.47-.28-.84-.28-.33 0-.6.08-.82.25-.22.16-.33.36-.33.6h-.92c0-.27.09-.52.28-.77.19-.25.45-.44.77-.59.32-.14.68-.22 1.07-.22.61 0 1.1.15 1.44.46.35.31.53.73.54 1.27v2.45c0 .49.06.88.19 1.17v.08h-.95zm-1.51-.7c.29 0 .56-.07.81-.22.26-.15.44-.34.56-.58v-1.09h-.71c-1.12 0-1.67.33-1.67.98 0 .29.09.51.29.67s.42.24.72.24zM125.52 216.54c-.14-.02-.29-.03-.45-.03-.6 0-1 .25-1.22.76v3.79h-.91v-5.33h.89l.01.62c.3-.48.72-.71 1.27-.71.18 0 .31.02.4.07v.83zM127.84 214.43v1.29h1v.7h-1v3.31c0 .21.04.37.13.48.09.11.24.16.45.16.1 0 .25-.02.43-.06v.74c-.24.06-.47.1-.7.1-.41 0-.71-.12-.92-.37-.21-.25-.31-.6-.31-1.05v-3.31h-.97v-.7h.97v-1.29h.92zM129.91 214.31c0-.15.04-.27.13-.37.09-.1.22-.15.4-.15.18 0 .31.05.4.15.09.1.14.23.14.37 0 .15-.05.27-.14.37-.09.1-.23.15-.4.15-.18 0-.31-.05-.4-.15a.524.524 0 0 1-.13-.37zm.98 6.75h-.91v-5.33h.91v5.33zM133.21 215.73l.03.67c.41-.51.94-.77 1.6-.77 1.13 0 1.7.64 1.71 1.91v3.52h-.91v-3.53c0-.38-.09-.67-.26-.85-.17-.18-.44-.28-.81-.28-.29 0-.55.08-.78.24-.22.16-.4.37-.52.62v3.8h-.91v-5.33h.85zM137.7 218.35c0-.83.19-1.49.58-1.98s.89-.74 1.53-.74c.65 0 1.16.23 1.52.69l.04-.59h.83v5.2c0 .69-.2 1.23-.61 1.63s-.96.6-1.65.6c-.38 0-.76-.08-1.13-.25-.37-.16-.65-.39-.84-.67l.47-.55c.39.48.87.72 1.43.72.44 0 .79-.12 1.04-.38.25-.25.37-.6.37-1.05v-.46c-.36.42-.86.63-1.49.63-.62 0-1.13-.25-1.52-.75-.37-.5-.57-1.19-.57-2.05zm.92.1c0 .6.12 1.07.37 1.42.25.34.59.52 1.03.52.58 0 1-.26 1.27-.78v-2.43c-.28-.51-.7-.76-1.26-.76-.44 0-.79.17-1.04.52-.25.32-.37.83-.37 1.51zM149.37 221.06c-.05-.11-.1-.29-.13-.56-.42.44-.93.66-1.52.66-.53 0-.96-.15-1.29-.45-.34-.3-.5-.67-.5-1.13 0-.55.21-.99.63-1.29.42-.31 1.02-.46 1.78-.46h.89v-.42c0-.32-.09-.57-.29-.76-.19-.19-.47-.28-.84-.28-.33 0-.6.08-.82.25-.22.16-.33.36-.33.6h-.92c0-.27.09-.52.28-.77.19-.25.45-.44.77-.59.32-.14.68-.22 1.07-.22.61 0 1.1.15 1.44.46.35.31.53.73.54 1.27v2.45c0 .49.06.88.19 1.17v.08h-.95zm-1.51-.7c.29 0 .56-.07.81-.22.26-.15.44-.34.56-.58v-1.09h-.71c-1.12 0-1.67.33-1.67.98 0 .29.09.51.29.67s.42.24.72.24zM152.81 214.43v1.29h1v.7h-1v3.31c0 .21.04.37.13.48.09.11.24.16.45.16.1 0 .25-.02.43-.06v.74c-.24.06-.47.1-.7.1-.41 0-.71-.12-.92-.37-.21-.25-.31-.6-.31-1.05v-3.31h-.97v-.7h.97v-1.29h.92zM160.42 219.16c0-.26-.06-.46-.19-.61-.13-.15-.35-.29-.68-.42-.32-.13-.62-.26-.89-.4-.27-.13-.51-.29-.71-.47s-.35-.38-.45-.62c-.11-.23-.16-.52-.16-.85 0-.55.19-1.01.56-1.37.37-.36.87-.57 1.5-.63v-1.04h.78v1.06c.6.09 1.07.34 1.42.74.34.41.51.92.51 1.54h-1.67c0-.34-.07-.6-.2-.79a.66.66 0 0 0-.56-.28c-.22 0-.39.07-.51.21-.12.14-.18.32-.18.56 0 .24.07.44.21.58.14.14.36.28.67.41s.59.26.87.4c.27.14.5.3.7.48s.35.38.46.62c.11.24.17.52.17.85 0 .56-.18 1.02-.54 1.38s-.84.56-1.46.62v.99h-.78v-1c-.72-.08-1.27-.32-1.65-.74-.38-.42-.57-.96-.57-1.64h1.66c0 .38.08.66.25.86s.4.29.71.29c.22 0 .4-.07.53-.2.14-.12.2-.3.2-.53zM166.23 218.28c-.36.32-.76.48-1.2.48-.65 0-1.17-.22-1.55-.66s-.57-1.03-.57-1.76c0-.46.11-.89.32-1.28.21-.39.51-.71.9-.94.39-.23.81-.35 1.28-.35s.9.12 1.28.36.68.58.89 1.01c.21.44.32.94.33 1.5v.64c0 .79-.16 1.48-.47 2.06-.31.58-.75 1.03-1.33 1.34-.58.31-1.25.47-2.01.47h-.1v-1.33h.32c1.15-.06 1.78-.57 1.91-1.54zm-.75-.71c.36 0 .62-.16.78-.47v-.69c0-.46-.08-.8-.23-1.02a.72.72 0 0 0-.63-.33c-.23 0-.43.12-.59.38-.16.25-.24.55-.24.91 0 .38.08.67.24.89.17.22.39.33.67.33zM169.86 219.45a1 1 0 0 1 .66.23c.17.16.26.36.26.6s-.09.44-.26.6c-.17.16-.39.23-.66.23s-.49-.08-.66-.24a.794.794 0 0 1-.26-.6c0-.24.09-.44.26-.6.17-.14.39-.22.66-.22zM175.13 218.28c-.36.32-.76.48-1.2.48-.65 0-1.17-.22-1.55-.66s-.57-1.03-.57-1.76c0-.46.11-.89.32-1.28.21-.39.51-.71.9-.94.39-.23.81-.35 1.28-.35s.9.12 1.28.36.68.58.89 1.01c.21.44.32.94.33 1.5v.64c0 .79-.16 1.48-.47 2.06-.31.58-.75 1.03-1.33 1.34-.58.31-1.25.47-2.01.47h-.1v-1.33h.32c1.14-.06 1.78-.57 1.91-1.54zm-.76-.71c.36 0 .62-.16.78-.47v-.69c0-.46-.08-.8-.23-1.02a.72.72 0 0 0-.63-.33c-.23 0-.43.12-.59.38-.16.25-.24.55-.24.91 0 .38.08.67.24.89.17.22.39.33.67.33zM180.97 218.28c-.36.32-.76.48-1.2.48-.65 0-1.17-.22-1.55-.66s-.57-1.03-.57-1.76c0-.46.11-.89.32-1.28.21-.39.51-.71.9-.94.39-.23.81-.35 1.28-.35s.9.12 1.28.36.68.58.89 1.01c.21.44.32.94.33 1.5v.64c0 .79-.16 1.48-.47 2.06-.31.58-.75 1.03-1.33 1.34-.58.31-1.25.47-2.01.47h-.1v-1.33h.32c1.15-.06 1.78-.57 1.91-1.54zm-.75-.71c.36 0 .62-.16.78-.47v-.69c0-.46-.08-.8-.23-1.02a.72.72 0 0 0-.63-.33c-.23 0-.43.12-.59.38-.16.25-.24.55-.24.91 0 .38.08.67.24.89.17.22.39.33.67.33zM184.14 221.67h-1.18l2.45-7.79h1.18l-2.45 7.79zM188.68 215.73l.05.63c.38-.48.88-.72 1.52-.72.67 0 1.13.27 1.37.8.36-.54.88-.8 1.57-.8 1.08 0 1.64.65 1.67 1.96v3.47h-1.67v-3.37c0-.27-.05-.47-.14-.6-.09-.12-.26-.19-.5-.19-.33 0-.57.15-.73.44v3.71h-1.67v-3.36c0-.28-.04-.48-.13-.61s-.26-.19-.51-.19c-.32 0-.56.15-.73.44v3.71h-1.66v-5.33h1.56zM195.6 218.34c0-.53.1-1.01.31-1.42.21-.42.5-.73.89-.96s.84-.33 1.37-.33c.8 0 1.43.25 1.89.74.46.5.69 1.17.69 2.02v.06c0 .83-.23 1.49-.69 1.98-.46.49-1.09.73-1.88.73-.76 0-1.37-.23-1.83-.68s-.71-1.07-.74-1.85l-.01-.29zm1.66.11c0 .49.08.85.23 1.08.15.23.38.34.69.34.59 0 .89-.46.91-1.37v-.17c0-.96-.31-1.43-.92-1.43-.56 0-.86.41-.9 1.24l-.01.31zM203 215.73l.05.63c.37-.48.88-.72 1.52-.72.55 0 .97.17 1.24.5.27.33.42.83.43 1.5v3.43h-1.67v-3.37c0-.27-.05-.47-.16-.59-.11-.13-.31-.19-.59-.19-.33 0-.57.13-.72.38v3.77h-1.66v-5.33H203zM209.1 214.4v1.33h.88v1.15h-.88v2.44c0 .2.04.34.11.42.07.08.21.12.43.12.16 0 .3-.01.41-.03v1.19c-.3.09-.61.14-.94.14-.57 0-.99-.13-1.27-.4s-.41-.68-.41-1.23v-2.65h-.68v-1.15h.68v-1.33h1.67zM212.26 216.3c.35-.45.81-.67 1.36-.67.59 0 1.03.17 1.33.52.3.35.45.86.46 1.54v3.37h-1.67v-3.33c0-.28-.06-.49-.17-.62s-.31-.2-.59-.2c-.34 0-.58.11-.72.33v3.82h-1.66v-7.57h1.66v2.81z"/></svg>