<svg id="Layer_1" xmlns="http://www.w3.org/2000/svg" viewBox="0 0 300 250"><style>.st0{fill:#021d8b}</style><path class="st0" d="M81.28 157.04c-.86-.25-1.49-.55-1.88-.91a1.76 1.76 0 0 1-.59-1.34c0-.6.24-1.1.72-1.49.48-.39 1.1-.59 1.87-.59.52 0 .99.1 1.4.3.41.2.73.48.95.84s.34.75.34 1.17h-1.01c0-.46-.15-.83-.44-1.09s-.71-.4-1.24-.4c-.5 0-.88.11-1.16.33-.28.22-.42.52-.42.91 0 .31.13.58.4.79s.71.41 1.35.59c.63.18 1.13.38 1.49.59s.62.46.8.75c.17.29.26.62.26 1.01 0 .62-.24 1.11-.72 1.49-.48.37-1.13.56-1.93.56-.52 0-1.01-.1-1.47-.3-.45-.2-.8-.48-1.05-.83a2 2 0 0 1-.37-1.19h1.01c0 .46.17.83.51 1.09.34.27.79.4 1.36.4.53 0 .94-.11 1.22-.33.28-.22.42-.51.42-.88s-.13-.66-.39-.87c-.27-.2-.75-.4-1.43-.6zM86.21 155.46c.43-.53.99-.79 1.68-.79 1.2 0 1.8.68 1.81 2.03v3.75h-.97v-3.75c0-.41-.1-.71-.28-.91-.18-.2-.47-.29-.86-.29-.31 0-.59.08-.83.25-.24.17-.42.39-.55.66v4.04h-.97v-8.05h.97v3.06zM90.89 157.55c0-.56.11-1.05.33-1.5.22-.44.52-.79.91-1.03s.83-.36 1.33-.36c.77 0 1.4.27 1.87.8s.72 1.25.72 2.13v.07c0 .55-.11 1.05-.32 1.49-.21.44-.51.78-.91 1.02-.39.24-.84.37-1.35.37-.77 0-1.39-.27-1.87-.8-.48-.53-.71-1.24-.71-2.12v-.07zm.98.12c0 .63.15 1.13.44 1.51.29.38.68.57 1.17.57.49 0 .88-.19 1.17-.58.29-.39.43-.93.43-1.62 0-.62-.15-1.12-.44-1.51-.3-.39-.69-.58-1.18-.58-.48 0-.86.19-1.16.57-.28.38-.43.93-.43 1.64zM102.06 157.67c0 .86-.2 1.56-.59 2.08s-.93.79-1.6.79c-.69 0-1.23-.22-1.62-.65v2.73h-.97v-7.85h.89l.05.63c.39-.49.94-.73 1.65-.73.68 0 1.22.26 1.62.77.4.51.59 1.23.59 2.14v.09zm-.97-.11c0-.64-.14-1.14-.41-1.51s-.65-.56-1.12-.56c-.59 0-1.03.26-1.32.78v2.71c.29.52.73.78 1.33.78.46 0 .83-.18 1.11-.55.27-.38.41-.93.41-1.65zM109.25 158.93c0-.26-.1-.46-.3-.61-.2-.14-.54-.27-1.03-.37-.49-.11-.88-.23-1.17-.38-.29-.15-.5-.32-.64-.52s-.21-.44-.21-.72c0-.46.2-.86.59-1.18.39-.32.89-.48 1.51-.48.64 0 1.16.17 1.56.5.4.33.6.76.6 1.27h-.97c0-.26-.11-.49-.34-.69-.23-.19-.51-.29-.85-.29-.35 0-.63.08-.83.23-.2.15-.3.35-.3.6 0 .23.09.41.28.53.18.12.52.23 1 .34.48.11.88.24 1.18.39.3.15.52.33.67.54.14.21.22.47.22.77 0 .51-.2.91-.61 1.22s-.93.46-1.58.46c-.45 0-.86-.08-1.21-.24-.35-.16-.62-.39-.82-.67s-.3-.6-.3-.93h.97c.02.32.15.58.39.77.24.19.56.29.96.29.37 0 .66-.07.88-.22s.35-.36.35-.61zM114.98 160.44c-.06-.11-.1-.31-.14-.6-.45.47-.99.7-1.61.7-.56 0-1.02-.16-1.38-.47-.36-.32-.54-.72-.54-1.2 0-.59.22-1.05.67-1.38.45-.33 1.08-.49 1.89-.49h.94v-.45c0-.34-.1-.61-.3-.81s-.5-.3-.9-.3c-.35 0-.64.09-.87.26-.23.17-.35.39-.35.63h-.97c0-.28.1-.56.3-.82.2-.26.47-.47.82-.63s.72-.23 1.13-.23c.65 0 1.16.16 1.54.49.37.33.56.78.58 1.35v2.61c0 .52.07.93.2 1.24v.08h-1.01zm-1.61-.74c.3 0 .59-.08.86-.24s.47-.36.59-.61v-1.16h-.76c-1.19 0-1.78.35-1.78 1.04 0 .3.1.54.3.71.21.17.47.26.79.26zM117.79 160.44v-4.92h-.9v-.75h.9v-.58c0-.61.16-1.08.49-1.41.33-.33.78-.5 1.38-.5.22 0 .45.03.67.09l-.05.78c-.16-.03-.34-.05-.52-.05-.31 0-.56.09-.73.28-.17.18-.26.45-.26.79v.6h1.21v.75h-1.21v4.92h-.98zM123.39 160.54c-.77 0-1.39-.25-1.88-.76-.48-.5-.72-1.18-.72-2.02v-.18c0-.56.11-1.06.32-1.51.21-.44.51-.79.9-1.04s.8-.38 1.25-.38c.74 0 1.31.24 1.72.73.41.49.61 1.18.61 2.08v.4h-3.84c.01.56.18 1.01.49 1.35s.71.52 1.19.52c.34 0 .63-.07.87-.21s.45-.33.62-.56l.59.46c-.46.76-1.17 1.12-2.12 1.12zm-.12-5.08c-.39 0-.72.14-.98.43-.27.28-.43.68-.49 1.2h2.84v-.07c-.03-.49-.16-.87-.4-1.14-.24-.28-.56-.42-.97-.42zM129.46 155.64c-.15-.02-.31-.04-.48-.04-.64 0-1.07.27-1.29.81v4.02h-.97v-5.67h.94l.02.66c.32-.51.77-.76 1.35-.76.19 0 .33.02.43.07v.91zM138.03 159.1l1.09-4.33h.97l-1.65 5.67h-.79l-1.38-4.3-1.34 4.3h-.79l-1.64-5.67h.96l1.12 4.24 1.32-4.24h.78l1.35 4.33zM141.08 153.27c0-.16.05-.29.14-.4s.24-.16.43-.16.33.05.43.16.15.24.15.4-.05.29-.15.39-.24.16-.43.16-.33-.05-.43-.16-.14-.24-.14-.39zm1.05 7.17h-.97v-5.67h.97v5.67zM144.99 153.4v1.37h1.06v.75h-1.06v3.52c0 .23.05.4.14.51.09.11.26.17.48.17.11 0 .27-.02.46-.06v.78c-.25.07-.5.1-.74.1-.43 0-.76-.13-.98-.39s-.33-.63-.33-1.12v-3.52h-1.03v-.75h1.03v-1.37h.97zM148.15 155.46c.43-.53.99-.79 1.68-.79 1.2 0 1.8.68 1.81 2.03v3.75h-.97v-3.75c0-.41-.1-.71-.28-.91-.18-.2-.47-.29-.86-.29-.31 0-.59.08-.83.25-.24.17-.42.39-.55.66v4.04h-.97v-8.05h.97v3.06zM156.91 157.45v2.99h-1.01v-7.63h2.81c.83 0 1.49.21 1.96.64.47.43.71.99.71 1.69 0 .74-.23 1.31-.69 1.71-.46.4-1.13.6-1.99.6h-1.79zm0-.82h1.81c.54 0 .95-.13 1.24-.38.29-.25.43-.62.43-1.1 0-.45-.14-.82-.43-1.09-.29-.27-.68-.41-1.18-.42h-1.87v2.99zM165.26 155.64c-.15-.02-.31-.04-.48-.04-.64 0-1.07.27-1.29.81v4.02h-.97v-5.67h.94l.02.66c.32-.51.77-.76 1.35-.76.19 0 .33.02.43.07v.91zM166.15 153.27c0-.16.05-.29.14-.4s.24-.16.43-.16.33.05.43.16.15.24.15.4-.05.29-.15.39-.24.16-.43.16-.33-.05-.43-.16-.14-.24-.14-.39zm1.05 7.17h-.97v-5.67h.97v5.67zM170.62 159.12l1.4-4.35h.99l-2.03 5.67h-.74l-2.05-5.67h.99l1.44 4.35zM177.37 160.44c-.06-.11-.1-.31-.14-.6-.45.47-.99.7-1.61.7-.56 0-1.02-.16-1.38-.47-.36-.32-.54-.72-.54-1.2 0-.59.22-1.05.67-1.38.45-.33 1.08-.49 1.89-.49h.94v-.45c0-.34-.1-.61-.3-.81s-.5-.3-.9-.3c-.35 0-.64.09-.87.26-.23.17-.35.39-.35.63h-.97c0-.28.1-.56.3-.82.2-.26.47-.47.82-.63s.72-.23 1.13-.23c.65 0 1.16.16 1.54.49.37.33.56.78.58 1.35v2.61c0 .52.07.93.2 1.24v.08h-1.01zm-1.61-.74c.3 0 .59-.08.86-.24s.47-.36.59-.61v-1.16h-.76c-1.19 0-1.78.35-1.78 1.04 0 .3.1.54.3.71.21.17.47.26.79.26zM181.98 159.75c.35 0 .65-.1.91-.31s.4-.47.43-.79h.92c-.02.32-.13.63-.33.93-.21.29-.48.53-.83.7s-.71.26-1.09.26c-.77 0-1.39-.26-1.84-.77-.46-.52-.68-1.22-.68-2.11v-.16c0-.55.1-1.04.3-1.47.2-.43.49-.76.87-1s.83-.36 1.34-.36c.64 0 1.16.19 1.58.57s.65.88.67 1.48h-.92a1.32 1.32 0 0 0-.42-.9c-.25-.24-.56-.35-.92-.35-.49 0-.87.18-1.14.53s-.41.87-.41 1.54v.18c0 .65.13 1.16.4 1.51.28.35.66.52 1.16.52zM187.18 159.02l1.32-4.25h1.04l-2.28 6.54c-.35.94-.91 1.41-1.68 1.41l-.18-.02-.36-.07v-.79l.26.02c.33 0 .58-.07.77-.2s.33-.38.45-.73l.21-.58-2.02-5.61h1.06l1.41 4.28zM196.18 159.44c-.26.37-.62.65-1.08.83-.46.18-1 .27-1.62.27-.62 0-1.17-.15-1.66-.44-.48-.29-.86-.71-1.12-1.24s-.4-1.16-.41-1.87v-.67c0-1.15.27-2.04.8-2.67.54-.63 1.29-.95 2.26-.95.8 0 1.44.2 1.92.61.49.41.78.98.89 1.73h-1.01c-.19-1.01-.79-1.52-1.8-1.52-.67 0-1.18.24-1.53.71s-.52 1.16-.53 2.06v.62c0 .86.2 1.54.59 2.04.39.5.92.76 1.59.76.38 0 .71-.04.99-.12.28-.08.52-.23.7-.42v-1.71h-1.77v-.82h2.77v2.8zM201.21 159.88c-.38.44-.93.67-1.66.67-.6 0-1.06-.17-1.38-.53-.32-.35-.48-.87-.48-1.56v-3.69h.97v3.66c0 .86.35 1.29 1.05 1.29.74 0 1.23-.28 1.48-.83v-4.12h.97v5.67h-.92l-.03-.56zM207.12 160.44c-.06-.11-.1-.31-.14-.6-.45.47-.99.7-1.61.7-.56 0-1.02-.16-1.38-.47-.36-.32-.54-.72-.54-1.2 0-.59.22-1.05.67-1.38.45-.33 1.08-.49 1.89-.49h.94v-.45c0-.34-.1-.61-.3-.81s-.5-.3-.9-.3c-.35 0-.64.09-.87.26-.23.17-.35.39-.35.63h-.97c0-.28.1-.56.3-.82.2-.26.47-.47.82-.63s.72-.23 1.13-.23c.65 0 1.16.16 1.54.49.37.33.56.78.58 1.35v2.61c0 .52.07.93.2 1.24v.08h-1.01zm-1.61-.74c.3 0 .59-.08.86-.24s.47-.36.59-.61v-1.16h-.76c-1.19 0-1.78.35-1.78 1.04 0 .3.1.54.3.71.22.17.48.26.79.26zM212.2 155.64c-.15-.02-.31-.04-.48-.04-.64 0-1.07.27-1.29.81v4.02h-.97v-5.67h.94l.02.66c.32-.51.77-.76 1.35-.76.19 0 .33.02.43.07v.91zM212.85 157.56c0-.87.21-1.57.62-2.1s.95-.79 1.62-.79c.66 0 1.19.23 1.58.68v-2.95h.97v8.05h-.89l-.05-.61c-.39.47-.93.71-1.62.71-.66 0-1.19-.27-1.61-.81-.41-.54-.62-1.24-.62-2.11v-.07zm.97.11c0 .64.13 1.15.4 1.51s.63.54 1.1.54c.62 0 1.06-.28 1.35-.83v-2.6c-.29-.53-.74-.8-1.34-.8-.47 0-.84.18-1.11.55-.26.36-.4.91-.4 1.63z"/></svg>