<svg id="Layer_1" xmlns="http://www.w3.org/2000/svg" viewBox="0 0 300 250"><style>.st0{fill:#021d8b}</style><path class="st0" d="M13.83 180.63c0-.57.19-1.03.56-1.39.37-.36.85-.53 1.45-.53.61 0 1.1.17 1.47.52.37.34.55.8.57 1.36v.33c0 .57-.18 1.03-.55 1.37s-.85.52-1.47.52c-.6 0-1.08-.17-1.45-.51s-.56-.79-.57-1.34v-.33zM29.71 183.62c0-.41-.14-.73-.43-.96-.29-.23-.8-.46-1.52-.71-.73-.24-1.32-.48-1.78-.71-1.5-.74-2.25-1.75-2.25-3.04 0-.64.19-1.21.56-1.7.37-.49.9-.87 1.59-1.15.68-.27 1.45-.41 2.31-.41.83 0 1.58.15 2.24.45.66.3 1.17.72 1.54 1.27s.55 1.18.55 1.88h-2.79c0-.47-.14-.84-.43-1.1-.29-.26-.68-.39-1.17-.39-.5 0-.89.11-1.18.33-.29.22-.43.5-.43.84 0 .3.16.57.48.81.32.24.88.49 1.68.75s1.46.54 1.98.83c1.25.72 1.88 1.72 1.88 2.99 0 1.01-.38 1.81-1.15 2.39-.76.58-1.81.87-3.15.87-.94 0-1.79-.17-2.55-.51-.76-.34-1.34-.8-1.72-1.39s-.58-1.26-.58-2.03h2.8c0 .62.16 1.08.48 1.37.32.29.84.44 1.57.44.46 0 .83-.1 1.09-.3s.38-.46.38-.82zM37.98 186.86c-1.32 0-2.39-.39-3.21-1.18-.82-.79-1.23-1.81-1.23-3.08v-.22c0-.88.16-1.66.49-2.33.33-.67.8-1.2 1.43-1.57.63-.37 1.37-.55 2.23-.55 1.21 0 2.17.38 2.87 1.13.7.75 1.05 1.8 1.05 3.14v1.04h-5.34c.1.48.3.86.63 1.14.32.28.74.41 1.26.41.85 0 1.51-.3 1.99-.89l1.23 1.45c-.33.46-.81.83-1.42 1.1s-1.27.41-1.98.41zm-.3-6.86c-.79 0-1.25.52-1.4 1.56h2.71v-.21c.01-.43-.1-.76-.33-1s-.56-.35-.98-.35zM46.34 184.79c.38 0 .67-.1.88-.31.21-.21.31-.49.3-.86h2.52c0 .95-.34 1.72-1.02 2.33-.68.61-1.55.91-2.62.91-1.25 0-2.24-.39-2.96-1.18-.72-.79-1.08-1.87-1.08-3.27v-.11c0-.87.16-1.64.48-2.31.32-.67.79-1.18 1.39-1.54.6-.36 1.32-.54 2.15-.54 1.12 0 2.01.31 2.67.93.66.62.99 1.46.99 2.52h-2.52c0-.45-.11-.79-.33-1.03s-.51-.33-.88-.33c-.7 0-1.1.44-1.22 1.33-.04.28-.06.67-.06 1.16 0 .87.1 1.46.31 1.8.22.33.55.5 1 .5zM56.3 185.77c-.57.73-1.34 1.09-2.3 1.09-.95 0-1.66-.27-2.15-.82-.49-.55-.73-1.34-.73-2.37v-5.58h2.68v5.6c0 .74.36 1.11 1.08 1.11.62 0 1.05-.22 1.31-.66v-6.04h2.7v8.62h-2.52l-.07-.95zM65.58 180.51l-.88-.06c-.84 0-1.39.27-1.62.8v5.46H60.4v-8.62h2.52l.09 1.11c.45-.84 1.08-1.27 1.89-1.27.29 0 .54.03.75.09l-.07 2.49zM70.72 186.86c-1.32 0-2.39-.39-3.21-1.18-.82-.79-1.23-1.81-1.23-3.08v-.22c0-.88.16-1.66.49-2.33.33-.67.8-1.2 1.43-1.57.63-.37 1.37-.55 2.23-.55 1.21 0 2.17.38 2.87 1.13.7.75 1.05 1.8 1.05 3.14v1.04h-5.34c.1.48.3.86.63 1.14.32.28.74.41 1.26.41.85 0 1.51-.3 1.99-.89l1.23 1.45c-.33.46-.81.83-1.42 1.1s-1.28.41-1.98.41zm-.31-6.86c-.79 0-1.25.52-1.4 1.56h2.71v-.21c.01-.43-.1-.76-.33-1s-.55-.35-.98-.35zM79.61 186.7v-11.6h4.17c1.49 0 2.63.27 3.41.82.78.55 1.17 1.34 1.17 2.38 0 .6-.14 1.11-.41 1.54-.28.42-.68.74-1.22.94.61.16 1.07.46 1.39.89s.49.97.49 1.59c0 1.14-.36 1.99-1.08 2.56-.72.57-1.79.86-3.2.87h-4.72zm2.8-6.76h1.46c.61 0 1.05-.12 1.31-.34.26-.22.39-.54.39-.97 0-.49-.14-.84-.42-1.06s-.74-.32-1.36-.32h-1.37v2.69zm0 1.83v2.78h1.83c.5 0 .89-.12 1.16-.35.27-.23.41-.56.41-.98 0-.97-.48-1.45-1.44-1.46h-1.96zM95.22 180.51l-.88-.06c-.84 0-1.39.27-1.62.8v5.46h-2.68v-8.62h2.52l.09 1.11c.45-.84 1.08-1.27 1.89-1.27.29 0 .54.03.75.09l-.07 2.49zM95.57 182.31c0-.86.17-1.63.5-2.3.33-.67.81-1.19 1.44-1.55.63-.36 1.36-.54 2.21-.54 1.29 0 2.31.4 3.05 1.2.74.8 1.11 1.89 1.11 3.26v.1c0 1.34-.37 2.41-1.12 3.2-.75.79-1.76 1.18-3.03 1.18-1.23 0-2.21-.37-2.95-1.1-.74-.74-1.14-1.73-1.2-2.99l-.01-.46zm2.68.17c0 .8.12 1.38.38 1.75.25.37.62.56 1.11.56.96 0 1.44-.74 1.47-2.21v-.27c0-1.54-.49-2.32-1.48-2.32-.9 0-1.38.67-1.46 2l-.02.49zM112.51 183.17l.87-5.08h2.57l-2.03 8.62h-2.27l-1.43-5.11-1.43 5.11h-2.27l-2.03-8.62h2.57l.85 5.2 1.37-5.2h1.87l1.36 5.08zM121.42 184.28c0-.23-.12-.41-.36-.55-.24-.14-.69-.28-1.36-.43-.67-.15-1.22-.34-1.66-.59a2.8 2.8 0 0 1-1-.88c-.23-.34-.34-.74-.34-1.19 0-.79.33-1.44.98-1.96.65-.51 1.51-.77 2.56-.77 1.14 0 2.05.26 2.74.77.69.51 1.04 1.19 1.04 2.03h-2.69c0-.69-.36-1.04-1.09-1.04-.28 0-.52.08-.71.24-.19.16-.29.35-.29.58 0 .24.12.43.35.58.23.15.61.27 1.12.37s.96.21 1.35.34c1.3.45 1.94 1.25 1.94 2.4 0 .79-.35 1.43-1.05 1.92-.7.49-1.6.74-2.71.74-.74 0-1.4-.13-1.98-.4a3.26 3.26 0 0 1-1.35-1.08c-.32-.46-.49-.94-.49-1.44h2.51c.01.4.14.69.4.87s.58.27.98.27c.37 0 .64-.07.82-.22.2-.13.29-.32.29-.56zM129.43 186.86c-1.32 0-2.39-.39-3.21-1.18-.82-.79-1.23-1.81-1.23-3.08v-.22c0-.88.16-1.66.49-2.33.33-.67.8-1.2 1.43-1.57.63-.37 1.37-.55 2.23-.55 1.21 0 2.17.38 2.87 1.13.7.75 1.05 1.8 1.05 3.14v1.04h-5.34c.1.48.3.86.63 1.14.32.28.74.41 1.26.41.85 0 1.51-.3 1.99-.89l1.23 1.45c-.33.46-.81.83-1.42 1.1s-1.27.41-1.98.41zm-.3-6.86c-.79 0-1.25.52-1.4 1.56h2.71v-.21c.01-.43-.1-.76-.33-1s-.56-.35-.98-.35zM139.35 180.51l-.88-.06c-.84 0-1.39.27-1.62.8v5.46h-2.68v-8.62h2.52l.09 1.11c.45-.84 1.08-1.27 1.89-1.27.29 0 .54.03.75.09l-.07 2.49zM148.76 180.63c0-.57.19-1.03.56-1.39.37-.36.85-.53 1.45-.53.61 0 1.1.17 1.47.52.37.34.55.8.57 1.36v.33c0 .57-.18 1.03-.55 1.37s-.85.52-1.47.52c-.6 0-1.08-.17-1.45-.51s-.56-.79-.57-1.34v-.33zM164.64 183.62c0-.41-.14-.73-.43-.96-.29-.23-.8-.46-1.52-.71-.73-.24-1.32-.48-1.78-.71-1.5-.74-2.25-1.75-2.25-3.04 0-.64.19-1.21.56-1.7.37-.49.9-.87 1.59-1.15.68-.27 1.45-.41 2.31-.41.83 0 1.58.15 2.24.45.66.3 1.17.72 1.54 1.27s.55 1.18.55 1.88h-2.79c0-.47-.14-.84-.43-1.1-.29-.26-.68-.39-1.17-.39-.5 0-.89.11-1.18.33-.29.22-.43.5-.43.84 0 .3.16.57.48.81.32.24.88.49 1.68.75s1.46.54 1.98.83c1.25.72 1.88 1.72 1.88 2.99 0 1.01-.38 1.81-1.15 2.39-.76.58-1.81.87-3.15.87-.94 0-1.79-.17-2.55-.51-.76-.34-1.34-.8-1.72-1.39s-.58-1.26-.58-2.03h2.8c0 .62.16 1.08.48 1.37.32.29.84.44 1.57.44.46 0 .83-.1 1.09-.3s.38-.46.38-.82zM172.92 186.86c-1.32 0-2.39-.39-3.21-1.18-.82-.79-1.23-1.81-1.23-3.08v-.22c0-.88.16-1.66.49-2.33.33-.67.8-1.2 1.43-1.57.63-.37 1.37-.55 2.23-.55 1.21 0 2.17.38 2.87 1.13.7.75 1.05 1.8 1.05 3.14v1.04h-5.34c.1.48.3.86.63 1.14.32.28.74.41 1.26.41.85 0 1.51-.3 1.99-.89l1.23 1.45c-.33.46-.81.83-1.42 1.1s-1.28.41-1.98.41zm-.31-6.86c-.79 0-1.25.52-1.4 1.56h2.71v-.21c.01-.43-.1-.76-.33-1s-.55-.35-.98-.35zM181.27 184.79c.38 0 .67-.1.88-.31.21-.21.31-.49.3-.86h2.52c0 .95-.34 1.72-1.02 2.33-.68.61-1.55.91-2.62.91-1.25 0-2.24-.39-2.96-1.18-.72-.79-1.08-1.87-1.08-3.27v-.11c0-.87.16-1.64.48-2.31.32-.67.79-1.18 1.39-1.54.6-.36 1.32-.54 2.15-.54 1.12 0 2.01.31 2.67.93.66.62.99 1.46.99 2.52h-2.52c0-.45-.11-.79-.33-1.03s-.51-.36-.88-.36c-.7 0-1.1.44-1.22 1.33-.04.28-.06.67-.06 1.16 0 .87.1 1.46.31 1.8.22.36.55.53 1 .53zM191.23 185.77c-.57.73-1.34 1.09-2.3 1.09-.95 0-1.66-.27-2.15-.82-.49-.55-.73-1.34-.73-2.37v-5.58h2.68v5.6c0 .74.36 1.11 1.08 1.11.62 0 1.05-.22 1.31-.66v-6.04h2.7v8.62h-2.52l-.07-.95zM200.51 180.51l-.88-.06c-.84 0-1.39.27-1.62.8v5.46h-2.68v-8.62h2.52l.09 1.11c.45-.84 1.08-1.27 1.89-1.27.29 0 .54.03.75.09l-.07 2.49zM205.65 186.86c-1.32 0-2.39-.39-3.21-1.18-.82-.79-1.23-1.81-1.23-3.08v-.22c0-.88.16-1.66.49-2.33.33-.67.8-1.2 1.43-1.57.63-.37 1.37-.55 2.23-.55 1.21 0 2.17.38 2.87 1.13.7.75 1.05 1.8 1.05 3.14v1.04h-5.34c.1.48.3.86.63 1.14.32.28.74.41 1.26.41.85 0 1.51-.3 1.99-.89l1.23 1.45c-.33.46-.81.83-1.42 1.1s-1.28.41-1.98.41zm-.3-6.86c-.79 0-1.25.52-1.4 1.56h2.71v-.21c.01-.43-.1-.76-.33-1s-.56-.35-.98-.35zM218.49 182.39l-1.15 1.26v3.06h-2.8v-11.6h2.8v5.11l.97-1.47 2.5-3.64h3.46l-3.92 5.13 3.92 6.47h-3.31l-2.47-4.32zM229.02 186.86c-1.32 0-2.39-.39-3.21-1.18-.82-.79-1.23-1.81-1.23-3.08v-.22c0-.88.16-1.66.49-2.33.33-.67.8-1.2 1.43-1.57.63-.37 1.37-.55 2.23-.55 1.21 0 2.17.38 2.87 1.13.7.75 1.05 1.8 1.05 3.14v1.04h-5.34c.1.48.3.86.63 1.14.32.28.74.41 1.26.41.85 0 1.51-.3 1.99-.89l1.23 1.45c-.33.46-.81.83-1.42 1.1s-1.27.41-1.98.41zm-.3-6.86c-.79 0-1.25.52-1.4 1.56h2.71v-.21c.01-.43-.1-.76-.33-1s-.55-.35-.98-.35zM237.18 182.94l1.43-4.86h2.88l-3.51 10.06-.15.37c-.5 1.12-1.38 1.67-2.64 1.67-.35 0-.72-.05-1.11-.16v-1.91h.35c.38 0 .67-.05.86-.16.2-.11.35-.3.44-.59l.21-.57-3-8.7h2.87l1.37 4.85zM250.19 182.47c0 1.41-.29 2.5-.88 3.26-.58.76-1.41 1.14-2.47 1.14-.88 0-1.58-.35-2.12-1.04l-.11.88h-2.41v-12.23h2.68v4.31c.5-.57 1.14-.85 1.94-.85 1.07 0 1.9.38 2.49 1.15.58.77.88 1.85.88 3.25v.13zm-2.7-.18c0-.83-.11-1.42-.33-1.77-.22-.35-.56-.53-1.02-.53-.61 0-1.02.23-1.26.69v3.42c.23.46.65.68 1.27.68.63 0 1.03-.31 1.2-.92.1-.29.14-.82.14-1.57zM251.03 182.31c0-.86.17-1.63.5-2.3.33-.67.81-1.19 1.44-1.55.63-.36 1.36-.54 2.21-.54 1.29 0 2.31.4 3.05 1.2.74.8 1.11 1.89 1.11 3.26v.1c0 1.34-.37 2.41-1.12 3.2-.75.79-1.76 1.18-3.03 1.18-1.23 0-2.21-.37-2.95-1.1-.74-.74-1.14-1.73-1.2-2.99l-.01-.46zm2.68.17c0 .8.12 1.38.38 1.75.25.37.62.56 1.11.56.96 0 1.44-.74 1.47-2.21v-.27c0-1.54-.49-2.32-1.48-2.32-.9 0-1.38.67-1.46 2l-.02.49zM265.38 186.7c-.09-.17-.18-.43-.25-.77-.49.62-1.18.93-2.07.93-.81 0-1.5-.25-2.07-.74-.57-.49-.85-1.11-.85-1.85 0-.93.34-1.64 1.04-2.12.69-.48 1.69-.72 3.01-.72h.83v-.46c0-.79-.34-1.19-1.03-1.19-.64 0-.96.31-.96.94h-2.68c0-.83.35-1.51 1.06-2.03s1.61-.78 2.71-.78c1.1 0 1.97.27 2.6.8.64.54.96 1.27.98 2.21v3.82c.01.79.13 1.4.37 1.82v.14h-2.69zm-1.68-1.75c.33 0 .61-.07.83-.21.22-.14.38-.31.47-.49v-1.38h-.78c-.93 0-1.4.42-1.4 1.26 0 .24.08.44.25.59.17.16.38.23.63.23zM274.4 180.51l-.88-.06c-.84 0-1.39.27-1.62.8v5.46h-2.68v-8.62h2.52l.09 1.11c.45-.84 1.08-1.27 1.89-1.27.29 0 .54.03.75.09l-.07 2.49zM275.03 182.33c0-1.37.29-2.44.88-3.23.59-.79 1.41-1.18 2.47-1.18.77 0 1.42.3 1.94.91v-4.36h2.69v12.23h-2.41l-.14-.92c-.55.72-1.25 1.08-2.1 1.08-1.02 0-1.84-.39-2.44-1.18-.59-.78-.89-1.9-.89-3.35zm2.68.17c0 1.53.45 2.29 1.34 2.29.59 0 1.02-.25 1.27-.75v-3.28c-.25-.51-.66-.76-1.26-.76-.83 0-1.28.67-1.35 2.01v.49z"/></svg>