<svg id="Layer_1" xmlns="http://www.w3.org/2000/svg" viewBox="0 0 300 250"><style>.st0{fill:#021d8b}</style><path class="st0" d="M32.16 155.19l1.48.8c-.55.99-.83 1.92-.85 2.78v1.78h-2.47v-1.66c.01-.61.19-1.26.54-1.96.35-.7.79-1.28 1.3-1.74zM46.93 159.11h-4.38V171h-3.52v-11.89h-4.3v-2.72h12.21v2.72zM48.24 157.34c0-.48.17-.88.52-1.18.35-.31.8-.46 1.35-.46.56 0 1.01.15 1.35.46.35.31.52.7.52 1.18s-.17.88-.52 1.18c-.35.31-.8.46-1.35.46s-1.01-.15-1.35-.46c-.35-.3-.52-.69-.52-1.18zM51.83 171h-3.39v-10.86h3.39V171zM59.6 167.95c0-.29-.15-.52-.45-.69s-.87-.35-1.72-.54-1.54-.43-2.09-.74-.97-.67-1.25-1.11c-.29-.44-.43-.93-.43-1.5 0-1 .41-1.82 1.23-2.46.82-.65 1.9-.97 3.23-.97 1.43 0 2.58.32 3.45.97.87.65 1.3 1.5 1.3 2.56h-3.39c0-.87-.46-1.3-1.37-1.3-.36 0-.65.1-.89.3-.24.2-.36.44-.36.74s.15.54.44.73c.29.19.76.34 1.41.46.65.12 1.21.26 1.7.43 1.63.56 2.45 1.57 2.45 3.02 0 .99-.44 1.8-1.32 2.42s-2.02.93-3.42.93c-.93 0-1.76-.17-2.49-.5-.73-.33-1.3-.79-1.71-1.37-.41-.57-.61-1.18-.61-1.82h3.16c.01.5.18.87.5 1.1.32.23.73.35 1.23.35.46 0 .81-.09 1.04-.28.24-.18.36-.43.36-.73zM73.49 157.45v2.7h1.79v2.35h-1.79v4.97c0 .41.07.69.22.85.15.16.44.24.87.24.33 0 .62-.02.84-.06v2.42c-.61.19-1.24.29-1.91.29-1.16 0-2.02-.27-2.58-.82-.56-.55-.83-1.38-.83-2.5v-5.39h-1.38v-2.35h1.38v-2.7h3.39zM79.91 161.31c.72-.91 1.65-1.36 2.77-1.36 1.2 0 2.1.35 2.71 1.06s.92 1.76.93 3.14V171h-3.39v-6.77c0-.58-.12-1-.35-1.27-.23-.27-.63-.41-1.19-.41-.7 0-1.19.22-1.48.66V171h-3.38v-15.41h3.38v5.72zM93.46 171.2c-1.67 0-3.01-.5-4.04-1.49s-1.54-2.29-1.54-3.88v-.28c0-1.11.21-2.09.62-2.94.41-.85 1.01-1.51 1.8-1.97.79-.46 1.73-.7 2.81-.7 1.52 0 2.73.47 3.61 1.42s1.32 2.27 1.32 3.96v1.31h-6.72c.12.61.38 1.09.79 1.43.41.35.94.52 1.59.52 1.07 0 1.91-.37 2.51-1.12l1.54 1.83c-.42.58-1.02 1.05-1.79 1.39-.78.35-1.61.52-2.5.52zm-.38-8.65c-.99 0-1.58.66-1.77 1.97h3.41v-.26c.01-.54-.12-.96-.41-1.26-.29-.3-.7-.45-1.23-.45zM110.19 167.95c0-.29-.15-.52-.45-.69s-.87-.35-1.72-.54-1.54-.43-2.09-.74-.97-.67-1.25-1.11c-.29-.44-.43-.93-.43-1.5 0-1 .41-1.82 1.23-2.46.82-.65 1.9-.97 3.23-.97 1.43 0 2.58.32 3.45.97.87.65 1.3 1.5 1.3 2.56h-3.39c0-.87-.46-1.3-1.37-1.3-.36 0-.65.1-.89.3-.24.2-.36.44-.36.74s.15.54.44.73c.29.19.76.34 1.41.46.65.12 1.21.26 1.7.43 1.63.56 2.45 1.57 2.45 3.02 0 .99-.44 1.8-1.32 2.42s-2.02.93-3.42.93c-.93 0-1.76-.17-2.49-.5-.73-.33-1.3-.79-1.71-1.37-.41-.57-.61-1.18-.61-1.82h3.16c.01.5.18.87.5 1.1.32.23.73.35 1.23.35.46 0 .81-.09 1.04-.28.25-.18.36-.43.36-.73zM120.29 171.2c-1.67 0-3.01-.5-4.04-1.49s-1.54-2.29-1.54-3.88v-.28c0-1.11.21-2.09.62-2.94.41-.85 1.01-1.51 1.8-1.97.79-.46 1.73-.7 2.81-.7 1.52 0 2.73.47 3.61 1.42s1.32 2.27 1.32 3.96v1.31h-6.72c.12.61.38 1.09.79 1.43.41.35.94.52 1.59.52 1.07 0 1.91-.37 2.51-1.12l1.54 1.83c-.42.58-1.02 1.05-1.79 1.39-.78.35-1.61.52-2.5.52zm-.38-8.65c-.99 0-1.58.66-1.77 1.97h3.41v-.26c.01-.54-.12-.96-.41-1.26-.29-.3-.7-.45-1.23-.45zM132.34 171c-.12-.22-.23-.54-.32-.97-.62.78-1.49 1.17-2.61 1.17-1.02 0-1.89-.31-2.61-.93-.72-.62-1.07-1.4-1.07-2.33 0-1.18.43-2.07 1.3-2.67.87-.6 2.13-.9 3.79-.9h1.04v-.58c0-1-.43-1.5-1.29-1.5-.8 0-1.2.4-1.2 1.19h-3.38c0-1.05.45-1.9 1.34-2.55.89-.66 2.03-.98 3.42-.98 1.38 0 2.48.34 3.28 1.01s1.21 1.6 1.23 2.78v4.81c.01 1 .17 1.76.46 2.29v.16h-3.38zm-2.12-2.21c.42 0 .77-.09 1.05-.27.28-.18.48-.38.6-.61v-1.74h-.98c-1.18 0-1.77.53-1.77 1.58 0 .31.1.56.31.75.21.2.47.29.79.29zM142.81 167.95c0-.29-.15-.52-.45-.69s-.87-.35-1.72-.54-1.54-.43-2.09-.74-.97-.67-1.25-1.11c-.29-.44-.43-.93-.43-1.5 0-1 .41-1.82 1.23-2.46.82-.65 1.9-.97 3.23-.97 1.43 0 2.58.32 3.45.97.87.65 1.3 1.5 1.3 2.56h-3.39c0-.87-.46-1.3-1.37-1.3-.36 0-.65.1-.89.3-.24.2-.36.44-.36.74s.15.54.44.73c.29.19.76.34 1.41.46.65.12 1.21.26 1.7.43 1.63.56 2.45 1.57 2.45 3.02 0 .99-.44 1.8-1.32 2.42s-2.02.93-3.42.93c-.93 0-1.76-.17-2.49-.5-.73-.33-1.3-.79-1.71-1.37-.41-.57-.61-1.18-.61-1.82h3.16c.01.5.18.87.5 1.1.32.23.73.35 1.23.35.46 0 .81-.09 1.04-.28.25-.18.36-.43.36-.73zM147.23 165.47c0-1.08.21-2.05.63-2.89.42-.85 1.03-1.5 1.82-1.95.79-.46 1.72-.68 2.78-.68 1.62 0 2.91.5 3.84 1.51s1.4 2.38 1.4 4.11v.12c0 1.69-.47 3.04-1.41 4.03s-2.21 1.49-3.82 1.49c-1.55 0-2.79-.46-3.72-1.39-.94-.93-1.44-2.18-1.51-3.77l-.01-.58zm3.38.21c0 1 .16 1.74.47 2.21.31.47.78.7 1.39.7 1.2 0 1.82-.93 1.85-2.78v-.34c0-1.95-.62-2.92-1.87-2.92-1.13 0-1.74.84-1.84 2.52v.61zM162.3 160.14l.11 1.27c.75-.98 1.78-1.47 3.1-1.47 1.13 0 1.98.34 2.53 1.01.56.68.85 1.69.87 3.05v7h-3.39v-6.85c0-.55-.11-.95-.33-1.21s-.62-.39-1.2-.39c-.66 0-1.15.26-1.48.78V171h-3.38v-10.86h3.17zM184.81 165.2H170.7v-2.65h14.11v2.65zM196.32 165.66c0 1.78-.37 3.15-1.1 4.1-.74.96-1.77 1.43-3.11 1.43-1.1 0-1.99-.44-2.67-1.31l-.14 1.12h-3.03v-15.41h3.38v5.43c.63-.72 1.44-1.07 2.44-1.07 1.35 0 2.39.49 3.13 1.46s1.1 2.33 1.1 4.09v.16zm-3.39-.21c0-1.04-.14-1.78-.42-2.23-.28-.44-.7-.67-1.28-.67-.76 0-1.29.29-1.58.87v4.31c.29.57.82.86 1.61.86.8 0 1.3-.39 1.51-1.16.11-.38.16-1.04.16-1.98zM204.28 169.83c-.72.92-1.68 1.37-2.9 1.37-1.19 0-2.09-.35-2.7-1.04-.61-.69-.92-1.69-.92-2.98v-7.03h3.38v7.05c0 .93.45 1.39 1.35 1.39.78 0 1.33-.28 1.66-.83v-7.62h3.4V171h-3.17l-.1-1.17zM213.34 157.45v2.7h1.79v2.35h-1.79v4.97c0 .41.07.69.22.85.15.16.44.24.87.24.33 0 .62-.02.84-.06v2.42c-.61.19-1.24.29-1.91.29-1.16 0-2.02-.27-2.58-.82-.56-.55-.83-1.38-.83-2.5v-5.39h-1.38v-2.35h1.38v-2.7h3.39zM224.67 160.14l.11 1.27c.75-.98 1.78-1.47 3.1-1.47 1.13 0 1.98.34 2.53 1.01.56.68.85 1.69.87 3.05v7h-3.39v-6.85c0-.55-.11-.95-.33-1.21s-.62-.39-1.2-.39c-.66 0-1.15.26-1.48.78V171h-3.38v-10.86h3.17zM232.73 165.47c0-1.08.21-2.05.63-2.89.42-.85 1.03-1.5 1.82-1.95.79-.46 1.72-.68 2.78-.68 1.62 0 2.91.5 3.84 1.51s1.4 2.38 1.4 4.11v.12c0 1.69-.47 3.04-1.41 4.03s-2.21 1.49-3.82 1.49c-1.55 0-2.79-.46-3.72-1.39-.94-.93-1.44-2.18-1.51-3.77l-.01-.58zm3.38.21c0 1 .16 1.74.47 2.21.31.47.78.7 1.39.7 1.2 0 1.82-.93 1.85-2.78v-.34c0-1.95-.62-2.92-1.87-2.92-1.13 0-1.74.84-1.84 2.52v.61zM248.63 157.45v2.7h1.79v2.35h-1.79v4.97c0 .41.07.69.22.85.15.16.44.24.87.24.33 0 .62-.02.84-.06v2.42c-.61.19-1.24.29-1.91.29-1.16 0-2.02-.27-2.58-.82-.56-.55-.83-1.38-.83-2.5v-5.39h-1.38v-2.35h1.38v-2.7h3.39zM65.3 195.66v-8.51h-1.58v-2.35h1.58v-.86c0-1.24.37-2.2 1.09-2.88.73-.68 1.75-1.02 3.07-1.02.48 0 1.01.07 1.58.21l.01 2.49a3.13 3.13 0 0 0-.83-.09c-1.02 0-1.54.44-1.54 1.33v.83h2.12v2.35h-2.1v8.51h-3.4zM71.58 190.13c0-1.08.21-2.05.63-2.89.42-.85 1.03-1.5 1.82-1.95.79-.46 1.72-.68 2.78-.68 1.62 0 2.91.5 3.84 1.51s1.4 2.38 1.4 4.11v.12c0 1.69-.47 3.04-1.41 4.03s-2.21 1.49-3.82 1.49c-1.55 0-2.79-.46-3.72-1.39-.94-.93-1.44-2.18-1.51-3.77l-.01-.58zm3.38.21c0 1 .16 1.74.47 2.21.31.47.78.7 1.39.7 1.2 0 1.82-.93 1.85-2.78v-.34c0-1.95-.62-2.92-1.87-2.92-1.13 0-1.74.84-1.84 2.52v.61zM90.11 187.86l-1.11-.08c-1.06 0-1.75.33-2.05 1v6.87h-3.38V184.8h3.17l.11 1.4c.57-1.06 1.36-1.6 2.38-1.6.36 0 .68.04.94.12l-.06 3.14zM96.42 182c0-.48.17-.88.52-1.18.35-.31.8-.46 1.35-.46.56 0 1.01.15 1.35.46.35.31.52.7.52 1.18s-.17.88-.52 1.18c-.35.31-.8.46-1.35.46s-1.01-.15-1.35-.46c-.35-.3-.52-.7-.52-1.18zm3.59 13.66h-3.39V184.8h3.39v10.86zM101.67 190.15c0-1.72.37-3.07 1.11-4.06.74-.99 1.78-1.48 3.11-1.48.97 0 1.79.38 2.45 1.14v-5.5h3.39v15.41h-3.04l-.17-1.16c-.7.91-1.58 1.36-2.65 1.36-1.29 0-2.31-.49-3.07-1.48s-1.13-2.4-1.13-4.23zm3.38.21c0 1.93.56 2.89 1.69 2.89.75 0 1.28-.31 1.61-.94v-4.13c-.31-.64-.84-.96-1.59-.96-1.04 0-1.61.84-1.7 2.53l-.01.61zM118.9 195.86c-1.67 0-3.01-.5-4.04-1.49s-1.54-2.29-1.54-3.88v-.28c0-1.11.21-2.09.62-2.94.41-.85 1.01-1.51 1.8-1.97.79-.46 1.73-.7 2.81-.7 1.52 0 2.73.47 3.61 1.42s1.32 2.27 1.32 3.96v1.31h-6.72c.12.61.38 1.09.79 1.43.41.35.94.52 1.59.52 1.07 0 1.91-.37 2.51-1.12l1.54 1.83c-.42.58-1.02 1.05-1.79 1.39-.78.35-1.61.52-2.5.52zm-.38-8.65c-.99 0-1.58.66-1.77 1.97h3.41v-.26c.01-.54-.12-.96-.41-1.26-.28-.3-.69-.45-1.23-.45zM127.94 184.8l.11 1.27c.75-.98 1.78-1.47 3.1-1.47 1.13 0 1.98.34 2.53 1.01.56.68.85 1.69.87 3.05v6.99h-3.39v-6.85c0-.55-.11-.95-.33-1.21s-.62-.39-1.2-.39c-.66 0-1.15.26-1.48.78v7.67h-3.38V184.8h3.17zM140.36 182.1v2.7h1.79v2.35h-1.79v4.97c0 .41.07.69.22.85.15.16.44.24.87.24.33 0 .62-.02.84-.06v2.42c-.61.19-1.24.29-1.91.29-1.16 0-2.02-.27-2.58-.82-.56-.55-.83-1.38-.83-2.5v-5.39h-1.38v-2.35h1.38v-2.7h3.39zM143.45 182c0-.48.17-.88.52-1.18.35-.31.8-.46 1.35-.46.56 0 1.01.15 1.35.46.35.31.52.7.52 1.18s-.17.88-.52 1.18c-.35.31-.8.46-1.35.46s-1.01-.15-1.35-.46c-.34-.3-.52-.7-.52-1.18zm3.6 13.66h-3.39V184.8h3.39v10.86zM153.07 182.1v2.7h1.79v2.35h-1.79v4.97c0 .41.07.69.22.85.15.16.44.24.87.24.33 0 .62-.02.84-.06v2.42c-.61.19-1.24.29-1.91.29-1.16 0-2.02-.27-2.58-.82-.56-.55-.83-1.38-.83-2.5v-5.39h-1.38v-2.35h1.38v-2.7h3.39zM160.52 190.92l1.81-6.12h3.62l-4.42 12.67-.19.46c-.63 1.41-1.74 2.11-3.33 2.11-.44 0-.91-.07-1.39-.2v-2.41h.44c.47 0 .84-.07 1.09-.21.25-.14.44-.38.56-.74l.27-.72-3.77-10.97h3.61l1.7 6.13zM175.88 182.1v2.7h1.79v2.35h-1.79v4.97c0 .41.07.69.22.85.15.16.44.24.87.24.33 0 .62-.02.84-.06v2.42c-.61.19-1.24.29-1.91.29-1.16 0-2.02-.27-2.58-.82-.56-.55-.83-1.38-.83-2.5v-5.39h-1.38v-2.35h1.38v-2.7h3.39zM182.3 185.97c.72-.91 1.65-1.36 2.77-1.36 1.2 0 2.1.35 2.71 1.06s.92 1.76.93 3.14v6.85h-3.39v-6.77c0-.58-.12-1-.35-1.27-.23-.27-.63-.41-1.19-.41-.7 0-1.19.22-1.48.66v7.79h-3.38v-15.41h3.38v5.72zM195.85 195.86c-1.67 0-3.01-.5-4.04-1.49s-1.54-2.29-1.54-3.88v-.28c0-1.11.21-2.09.62-2.94.41-.85 1.01-1.51 1.8-1.97.79-.46 1.73-.7 2.81-.7 1.52 0 2.73.47 3.61 1.42s1.32 2.27 1.32 3.96v1.31h-6.72c.12.61.38 1.09.79 1.43.41.35.94.52 1.59.52 1.07 0 1.91-.37 2.51-1.12l1.54 1.83c-.42.58-1.02 1.05-1.79 1.39-.78.35-1.61.52-2.5.52zm-.38-8.65c-.99 0-1.58.66-1.77 1.97h3.41v-.26c.01-.54-.12-.96-.41-1.26-.29-.3-.7-.45-1.23-.45zM202.53 195.66v-8.51h-1.58v-2.35h1.58v-.86c0-1.24.37-2.2 1.09-2.88.73-.68 1.75-1.02 3.07-1.02.48 0 1.01.07 1.58.21l.01 2.49a3.13 3.13 0 0 0-.83-.09c-1.02 0-1.54.44-1.54 1.33v.83h2.12v2.35h-2.12v8.51h-3.38zM213.17 182.1v2.7h1.79v2.35h-1.79v4.97c0 .41.07.69.22.85.15.16.44.24.87.24.33 0 .62-.02.84-.06v2.42c-.61.19-1.24.29-1.91.29-1.16 0-2.02-.27-2.58-.82-.56-.55-.83-1.38-.83-2.5v-5.39h-1.38v-2.35h1.38v-2.7h3.39zM218.37 192.38c.54 0 .98.16 1.33.48.35.32.53.72.53 1.22s-.18.9-.53 1.22c-.36.32-.8.48-1.33.48-.54 0-.99-.16-1.34-.48-.35-.32-.53-.73-.53-1.21s.18-.89.53-1.21c.35-.34.8-.5 1.34-.5z"/></svg>