<?xml version="1.0" encoding="utf-8"?>
<!-- Generator: Adobe Illustrator 25.2.1, SVG Export Plug-In . SVG Version: 6.00 Build 0)  -->
<svg version="1.1" id="Layer_1" xmlns="http://www.w3.org/2000/svg" xmlns:xlink="http://www.w3.org/1999/xlink" x="0px" y="0px"
	 viewBox="0 0 728 90" style="enable-background:new 0 0 728 90;" xml:space="preserve">
<style type="text/css">
	.st0{fill:#782EEB;}
</style>
<path class="st0" d="M434.96,62.29c0.38,0,0.67-0.1,0.88-0.31s0.31-0.49,0.3-0.86h2.54c0,0.95-0.34,1.73-1.02,2.34
	c-0.68,0.61-1.56,0.91-2.64,0.91c-1.26,0-2.26-0.4-2.98-1.19c-0.73-0.79-1.09-1.89-1.09-3.29v-0.11c0-0.88,0.16-1.65,0.49-2.32
	c0.32-0.67,0.79-1.19,1.4-1.55c0.61-0.36,1.33-0.54,2.17-0.54c1.13,0,2.02,0.31,2.69,0.94c0.66,0.63,0.99,1.47,0.99,2.54h-2.54
	c0-0.45-0.11-0.79-0.33-1.04c-0.22-0.24-0.51-0.36-0.88-0.36c-0.7,0-1.11,0.45-1.23,1.34c-0.04,0.28-0.06,0.67-0.06,1.17
	c0,0.87,0.1,1.48,0.31,1.81S434.5,62.29,434.96,62.29z"/>
<path class="st0" d="M445.07,57.98l-0.89-0.06c-0.85,0-1.4,0.27-1.64,0.8v5.5h-2.7v-8.68h2.54l0.09,1.12
	c0.45-0.85,1.09-1.28,1.9-1.28c0.29,0,0.54,0.03,0.75,0.1L445.07,57.98z"/>
<path class="st0" d="M450.1,64.38c-1.33,0-2.41-0.4-3.23-1.19s-1.24-1.83-1.24-3.1v-0.22c0-0.89,0.16-1.67,0.49-2.35
	c0.33-0.68,0.81-1.2,1.44-1.58c0.63-0.37,1.38-0.56,2.25-0.56c1.22,0,2.18,0.38,2.89,1.14s1.06,1.81,1.06,3.17v1.05h-5.38
	c0.1,0.49,0.31,0.87,0.63,1.15c0.33,0.28,0.75,0.42,1.27,0.42c0.86,0,1.52-0.3,2.01-0.9l1.24,1.46c-0.34,0.47-0.81,0.84-1.43,1.11
	C451.47,64.24,450.81,64.38,450.1,64.38z M449.79,57.46c-0.79,0-1.26,0.52-1.41,1.57h2.73v-0.21c0.01-0.43-0.1-0.77-0.33-1.01
	C450.55,57.58,450.22,57.46,449.79,57.46z"/>
<path class="st0" d="M454.5,59.81c0-1.37,0.3-2.46,0.89-3.25c0.59-0.79,1.42-1.19,2.49-1.19c0.78,0,1.43,0.3,1.96,0.91v-4.4h2.71
	v12.32h-2.43l-0.14-0.93c-0.56,0.73-1.26,1.09-2.12,1.09c-1.03,0-1.85-0.4-2.46-1.19C454.8,62.4,454.5,61.27,454.5,59.81z
	 M457.21,59.98c0,1.54,0.45,2.31,1.35,2.31c0.6,0,1.03-0.25,1.28-0.75v-3.31c-0.25-0.51-0.67-0.77-1.27-0.77
	c-0.83,0-1.29,0.67-1.36,2.02L457.21,59.98z"/>
<path class="st0" d="M464.07,53.3c0-0.39,0.14-0.7,0.42-0.95c0.28-0.25,0.64-0.37,1.08-0.37s0.8,0.12,1.08,0.37
	c0.28,0.25,0.42,0.56,0.42,0.95c0,0.39-0.14,0.7-0.42,0.95c-0.28,0.25-0.64,0.37-1.08,0.37s-0.8-0.12-1.08-0.37
	C464.21,54,464.07,53.68,464.07,53.3z M466.94,64.22h-2.71v-8.68h2.71V64.22z"/>
<path class="st0" d="M471.75,53.38v2.16h1.43v1.88h-1.43v3.97c0,0.33,0.06,0.55,0.18,0.68s0.35,0.19,0.7,0.19
	c0.27,0,0.49-0.02,0.67-0.05v1.93c-0.49,0.16-0.99,0.23-1.52,0.23c-0.93,0-1.62-0.22-2.06-0.66s-0.67-1.1-0.67-2v-4.31h-1.11v-1.88
	h1.11v-2.16H471.75z"/>
<path class="st0" d="M482.01,62.29c0.38,0,0.67-0.1,0.88-0.31s0.31-0.49,0.3-0.86h2.54c0,0.95-0.34,1.73-1.02,2.34
	c-0.68,0.61-1.56,0.91-2.64,0.91c-1.26,0-2.26-0.4-2.98-1.19C478.36,62.4,478,61.3,478,59.9v-0.11c0-0.88,0.16-1.65,0.49-2.32
	c0.32-0.67,0.79-1.19,1.4-1.55c0.61-0.36,1.33-0.54,2.17-0.54c1.13,0,2.02,0.31,2.69,0.94c0.66,0.63,0.99,1.47,0.99,2.54h-2.54
	c0-0.45-0.11-0.79-0.33-1.04c-0.22-0.24-0.51-0.36-0.88-0.36c-0.7,0-1.11,0.45-1.23,1.34c-0.04,0.28-0.06,0.67-0.06,1.17
	c0,0.87,0.1,1.48,0.31,1.81S481.55,62.29,482.01,62.29z"/>
<path class="st0" d="M491.76,64.22c-0.1-0.18-0.18-0.44-0.26-0.78c-0.5,0.63-1.19,0.94-2.09,0.94c-0.82,0-1.51-0.25-2.09-0.74
	c-0.57-0.49-0.86-1.12-0.86-1.87c0-0.94,0.35-1.65,1.04-2.13c0.7-0.48,1.71-0.72,3.03-0.72h0.83v-0.46c0-0.8-0.35-1.2-1.04-1.2
	c-0.64,0-0.96,0.32-0.96,0.95h-2.7c0-0.84,0.36-1.52,1.07-2.04c0.71-0.52,1.63-0.79,2.73-0.79c1.11,0,1.98,0.27,2.62,0.81
	c0.64,0.54,0.97,1.28,0.99,2.22v3.84c0.01,0.8,0.13,1.41,0.37,1.83v0.14H491.76z M490.07,62.45c0.34,0,0.62-0.07,0.84-0.22
	c0.22-0.14,0.38-0.31,0.48-0.49v-1.39h-0.79c-0.94,0-1.41,0.42-1.41,1.27c0,0.25,0.08,0.45,0.25,0.6
	C489.6,62.37,489.81,62.45,490.07,62.45z"/>
<path class="st0" d="M500.85,57.98l-0.89-0.06c-0.85,0-1.4,0.27-1.64,0.8v5.5h-2.7v-8.68h2.54l0.09,1.12
	c0.45-0.85,1.09-1.28,1.9-1.28c0.29,0,0.54,0.03,0.75,0.1L500.85,57.98z"/>
<path class="st0" d="M501.33,59.81c0-1.37,0.3-2.46,0.89-3.25c0.59-0.79,1.42-1.19,2.49-1.19c0.78,0,1.43,0.3,1.96,0.91v-4.4h2.71
	v12.32h-2.43l-0.14-0.93c-0.56,0.73-1.26,1.09-2.12,1.09c-1.03,0-1.85-0.4-2.46-1.19C501.63,62.4,501.33,61.27,501.33,59.81z
	 M504.03,59.98c0,1.54,0.45,2.31,1.35,2.31c0.6,0,1.03-0.25,1.28-0.75v-3.31c-0.25-0.51-0.67-0.77-1.27-0.77
	c-0.83,0-1.29,0.67-1.36,2.02L504.03,59.98z"/>
<path class="st0" d="M515.46,61.78c0-0.23-0.12-0.41-0.36-0.55c-0.24-0.14-0.7-0.28-1.37-0.43c-0.67-0.15-1.23-0.35-1.67-0.59
	c-0.44-0.24-0.77-0.54-1-0.89c-0.23-0.35-0.35-0.75-0.35-1.2c0-0.8,0.33-1.45,0.99-1.97c0.66-0.52,1.52-0.77,2.58-0.77
	c1.14,0,2.06,0.26,2.76,0.78c0.7,0.52,1.04,1.2,1.04,2.05h-2.71c0-0.7-0.37-1.04-1.1-1.04c-0.28,0-0.52,0.08-0.71,0.24
	c-0.19,0.16-0.29,0.35-0.29,0.59c0,0.24,0.12,0.44,0.35,0.59s0.61,0.27,1.13,0.37c0.52,0.1,0.97,0.21,1.36,0.35
	c1.31,0.45,1.96,1.25,1.96,2.42c0,0.79-0.35,1.44-1.06,1.93c-0.7,0.5-1.61,0.75-2.73,0.75c-0.74,0-1.41-0.13-1.99-0.4
	c-0.58-0.27-1.04-0.63-1.36-1.09s-0.49-0.94-0.49-1.45h2.53c0.01,0.4,0.14,0.69,0.4,0.88c0.26,0.18,0.59,0.28,0.99,0.28
	c0.37,0,0.65-0.07,0.83-0.22C515.37,62.21,515.46,62.02,515.46,61.78z"/>
</svg>
