<?xml version="1.0" encoding="utf-8"?>
<!-- Generator: Adobe Illustrator 25.2.1, SVG Export Plug-In . SVG Version: 6.00 Build 0)  -->
<svg version="1.1" id="Layer_1" xmlns="http://www.w3.org/2000/svg" xmlns:xlink="http://www.w3.org/1999/xlink" x="0px" y="0px"
	 viewBox="0 0 728 90" style="enable-background:new 0 0 728 90;" xml:space="preserve">
<style type="text/css">
	.st0{fill:#021D8B;}
</style>
<path class="st0" d="M440.46,28.92l1.34-7.33h2.79l-2.48,11.68h-2.92l-1.56-6.66l-1.53,6.66h-2.91l-2.49-11.68h2.8l1.34,7.33
	l1.6-7.33h2.39L440.46,28.92z"/>
<path class="st0" d="M449.52,33.44c-1.33,0-2.41-0.4-3.23-1.19c-0.82-0.79-1.24-1.83-1.24-3.1v-0.22c0-0.89,0.16-1.67,0.49-2.35
	c0.33-0.68,0.81-1.2,1.44-1.58c0.63-0.37,1.38-0.56,2.25-0.56c1.22,0,2.18,0.38,2.89,1.14c0.71,0.76,1.06,1.81,1.06,3.17v1.05h-5.38
	c0.1,0.49,0.31,0.87,0.63,1.15c0.33,0.28,0.75,0.42,1.27,0.42c0.86,0,1.52-0.3,2.01-0.9l1.24,1.46c-0.34,0.47-0.81,0.84-1.43,1.11
	C450.9,33.3,450.23,33.44,449.52,33.44z M449.21,26.52c-0.79,0-1.26,0.52-1.41,1.57h2.73v-0.21c0.01-0.43-0.1-0.77-0.33-1.01
	S449.64,26.52,449.21,26.52z"/>
<path class="st0" d="M455.67,22.25l-0.26,3.31h-1.66v-4.61h1.93V22.25z"/>
<path class="st0" d="M459.54,33.28h-2.71V20.95h2.71V33.28z"/>
<path class="st0" d="M464.06,33.28h-2.71V20.95h2.71V33.28z"/>
<path class="st0" d="M472.37,24.59l0.09,1.02c0.62-0.79,1.44-1.18,2.48-1.18c1.1,0,1.84,0.44,2.22,1.31
	c0.59-0.87,1.44-1.31,2.55-1.31c1.76,0,2.66,1.06,2.71,3.19v5.65h-2.71V27.8c0-0.44-0.07-0.77-0.22-0.97
	c-0.15-0.2-0.42-0.3-0.82-0.3c-0.54,0-0.93,0.24-1.2,0.71l0.01,0.11v5.93h-2.71v-5.46c0-0.45-0.07-0.78-0.22-0.99
	c-0.14-0.2-0.42-0.3-0.83-0.3c-0.52,0-0.91,0.24-1.19,0.71v6.04h-2.7v-8.68H472.37z"/>
<path class="st0" d="M483.63,28.85c0-0.87,0.17-1.64,0.51-2.31s0.82-1.2,1.45-1.56c0.63-0.36,1.37-0.55,2.22-0.55
	c1.3,0,2.32,0.4,3.07,1.21c0.75,0.81,1.12,1.9,1.12,3.29v0.1c0,1.35-0.38,2.43-1.13,3.22c-0.75,0.79-1.77,1.19-3.05,1.19
	c-1.24,0-2.23-0.37-2.98-1.11c-0.75-0.74-1.15-1.75-1.21-3.01L483.63,28.85z M486.33,29.02c0,0.8,0.13,1.39,0.38,1.77
	c0.25,0.37,0.62,0.56,1.12,0.56c0.96,0,1.45-0.74,1.48-2.22v-0.27c0-1.56-0.5-2.33-1.49-2.33c-0.9,0-1.39,0.67-1.47,2.01
	L486.33,29.02z"/>
<path class="st0" d="M495.68,24.59l0.09,1.02c0.6-0.79,1.43-1.18,2.48-1.18c0.9,0,1.58,0.27,2.03,0.81
	c0.45,0.54,0.68,1.35,0.69,2.44v5.59h-2.71V27.8c0-0.44-0.09-0.76-0.26-0.97c-0.18-0.21-0.5-0.31-0.96-0.31
	c-0.53,0-0.92,0.21-1.18,0.63v6.13h-2.7v-8.68H495.68z"/>
<path class="st0" d="M502.44,22.36c0-0.39,0.14-0.7,0.42-0.95c0.28-0.25,0.64-0.37,1.08-0.37c0.44,0,0.8,0.12,1.08,0.37
	c0.28,0.25,0.42,0.56,0.42,0.95s-0.14,0.7-0.42,0.95c-0.28,0.25-0.64,0.37-1.08,0.37c-0.44,0-0.8-0.12-1.08-0.37
	C502.58,23.06,502.44,22.74,502.44,22.36z M505.32,33.28h-2.71v-8.68h2.71V33.28z"/>
<path class="st0" d="M510.13,22.44v2.16h1.43v1.88h-1.43v3.97c0,0.33,0.06,0.55,0.18,0.68s0.35,0.19,0.7,0.19
	c0.27,0,0.49-0.02,0.67-0.05v1.93c-0.49,0.16-0.99,0.23-1.52,0.23c-0.93,0-1.62-0.22-2.06-0.66c-0.44-0.44-0.67-1.1-0.67-2v-4.31
	h-1.11v-1.88h1.11v-2.16H510.13z"/>
<path class="st0" d="M512.04,28.85c0-0.87,0.17-1.64,0.51-2.31c0.34-0.68,0.82-1.2,1.45-1.56c0.63-0.36,1.37-0.55,2.22-0.55
	c1.3,0,2.32,0.4,3.07,1.21c0.75,0.81,1.12,1.9,1.12,3.29v0.1c0,1.35-0.38,2.43-1.13,3.22c-0.75,0.79-1.77,1.19-3.05,1.19
	c-1.24,0-2.23-0.37-2.98-1.11c-0.75-0.74-1.15-1.75-1.21-3.01L512.04,28.85z M514.74,29.02c0,0.8,0.13,1.39,0.38,1.77
	c0.25,0.37,0.62,0.56,1.12,0.56c0.96,0,1.45-0.74,1.48-2.22v-0.27c0-1.56-0.5-2.33-1.49-2.33c-0.9,0-1.39,0.67-1.47,2.01
	L514.74,29.02z"/>
<path class="st0" d="M526.86,27.04l-0.89-0.06c-0.85,0-1.4,0.27-1.64,0.8v5.5h-2.7v-8.68h2.54l0.09,1.12
	c0.45-0.85,1.09-1.28,1.9-1.28c0.29,0,0.54,0.03,0.75,0.1L526.86,27.04z"/>
<path class="st0" d="M535.4,29.49l1.44-4.89h2.9l-3.54,10.13l-0.15,0.37c-0.5,1.12-1.39,1.68-2.66,1.68c-0.35,0-0.72-0.05-1.12-0.16
	V34.7h0.35c0.38,0,0.67-0.05,0.87-0.16c0.2-0.11,0.35-0.31,0.45-0.59l0.22-0.58l-3.02-8.77h2.89L535.4,29.49z"/>
<path class="st0" d="M539.98,28.85c0-0.87,0.17-1.64,0.51-2.31c0.34-0.68,0.82-1.2,1.45-1.56c0.63-0.36,1.37-0.55,2.22-0.55
	c1.3,0,2.32,0.4,3.07,1.21c0.75,0.81,1.12,1.9,1.12,3.29v0.1c0,1.35-0.38,2.43-1.13,3.22c-0.75,0.79-1.77,1.19-3.05,1.19
	c-1.24,0-2.23-0.37-2.98-1.11c-0.75-0.74-1.15-1.75-1.21-3.01L539.98,28.85z M542.68,29.02c0,0.8,0.13,1.39,0.38,1.77
	c0.25,0.37,0.62,0.56,1.12,0.56c0.96,0,1.45-0.74,1.48-2.22v-0.27c0-1.56-0.5-2.33-1.49-2.33c-0.9,0-1.39,0.67-1.47,2.01
	L542.68,29.02z"/>
<path class="st0" d="M554.72,32.34c-0.57,0.73-1.35,1.1-2.32,1.1c-0.95,0-1.67-0.28-2.16-0.83c-0.49-0.55-0.73-1.35-0.73-2.39v-5.62
	h2.7v5.64c0,0.74,0.36,1.12,1.08,1.12c0.62,0,1.06-0.22,1.32-0.67v-6.09h2.72v8.68h-2.54L554.72,32.34z"/>
<path class="st0" d="M564.07,27.04l-0.89-0.06c-0.85,0-1.4,0.27-1.64,0.8v5.5h-2.7v-8.68h2.54l0.09,1.12
	c0.45-0.85,1.09-1.28,1.9-1.28c0.29,0,0.54,0.03,0.75,0.1L564.07,27.04z"/>
</svg>
