<?xml version="1.0" encoding="utf-8"?>
<!-- Generator: Adobe Illustrator 24.3.0, SVG Export Plug-In . SVG Version: 6.00 Build 0)  -->
<svg version="1.1" id="Layer_1" xmlns="http://www.w3.org/2000/svg" xmlns:xlink="http://www.w3.org/1999/xlink" x="0px" y="0px"
	 viewBox="0 0 160 600" style="enable-background:new 0 0 160 600;" xml:space="preserve">
<style type="text/css">
	.st0{fill:url(#SVGID_1_);}
</style>
<linearGradient id="SVGID_1_" gradientUnits="userSpaceOnUse" x1="12.0986" y1="266.6385" x2="147.9014" y2="266.6385">
	<stop  offset="0" style="stop-color:#41B5E8"/>
	<stop  offset="0.5" style="stop-color:#6A53A3"/>
	<stop  offset="1" style="stop-color:#E72E8A"/>
</linearGradient>
<path class="st0" d="M43.4,198.2h-2.6v7H36v-19.9h7.8c2.4,0,4.2,0.5,5.5,1.6c1.3,1,2,2.5,2,4.4c0,1.4-0.3,2.5-0.8,3.4
	c-0.6,0.9-1.4,1.6-2.6,2.2l4.2,8v0.2h-5.1L43.4,198.2z M40.8,194.5h3c0.9,0,1.6-0.2,2.1-0.7c0.5-0.5,0.7-1.1,0.7-2
	c0-0.9-0.2-1.5-0.7-2c-0.5-0.5-1.1-0.7-2.1-0.7h-3V194.5z M61.2,205.5c-2.3,0-4.1-0.7-5.5-2s-2.1-3.1-2.1-5.3v-0.4
	c0-1.5,0.3-2.8,0.8-4s1.4-2.1,2.5-2.7s2.4-1,3.8-1c2.1,0,3.7,0.6,4.9,1.9s1.8,3.1,1.8,5.4v1.8h-9.2c0.2,0.8,0.5,1.5,1.1,2
	s1.3,0.7,2.2,0.7c1.5,0,2.6-0.5,3.4-1.5l2.1,2.5c-0.6,0.8-1.4,1.4-2.4,1.9S62.4,205.5,61.2,205.5z M60.7,193.7
	c-1.3,0-2.2,0.9-2.4,2.7h4.6V196c0-0.7-0.2-1.3-0.6-1.7S61.4,193.7,60.7,193.7z M75,199.7l2.3-9.3h4.9l-4.8,14.8h-4.7l-4.8-14.8h4.9
	L75,199.7z M83.5,186.6c0-0.7,0.2-1.2,0.7-1.6s1.1-0.6,1.8-0.6s1.4,0.2,1.8,0.6s0.7,1,0.7,1.6s-0.2,1.2-0.7,1.6s-1.1,0.6-1.8,0.6
	s-1.4-0.2-1.8-0.6S83.5,187.3,83.5,186.6z M88.4,205.2h-4.6v-14.8h4.6V205.2z M98.4,205.5c-2.3,0-4.1-0.7-5.5-2s-2.1-3.1-2.1-5.3
	v-0.4c0-1.5,0.3-2.8,0.8-4s1.4-2.1,2.5-2.7s2.4-1,3.8-1c2.1,0,3.7,0.6,4.9,1.9s1.8,3.1,1.8,5.4v1.8h-9.2c0.2,0.8,0.5,1.5,1.1,2
	s1.3,0.7,2.2,0.7c1.5,0,2.6-0.5,3.4-1.5l2.1,2.5c-0.6,0.8-1.4,1.4-2.4,1.9S99.6,205.5,98.4,205.5z M97.9,193.7
	c-1.3,0-2.2,0.9-2.4,2.7h4.6V196c0-0.7-0.2-1.3-0.6-1.7S98.6,193.7,97.9,193.7z M119.3,199.2l1.5-8.7h4.4l-3.5,14.8h-3.9l-2.4-8.8
	l-2.5,8.8H109l-3.5-14.8h4.4l1.5,8.9l2.4-8.9h3.2L119.3,199.2z M50.9,235.5c0.6,0,1.1-0.2,1.5-0.5s0.5-0.8,0.5-1.5h4.3
	c0,1.6-0.6,3-1.7,4s-2.7,1.6-4.5,1.6c-2.2,0-3.8-0.7-5.1-2s-1.9-3.2-1.9-5.6v-0.2c0-1.5,0.3-2.8,0.8-4s1.3-2,2.4-2.6
	s2.3-0.9,3.7-0.9c1.9,0,3.5,0.5,4.6,1.6s1.7,2.5,1.7,4.3H53c0-0.8-0.2-1.4-0.6-1.8s-0.9-0.6-1.5-0.6c-1.2,0-1.9,0.8-2.1,2.3
	c-0.1,0.5-0.1,1.1-0.1,2c0,1.5,0.2,2.5,0.5,3.1S50.2,235.5,50.9,235.5z M68.2,228.2l-1.5-0.1c-1.4,0-2.4,0.5-2.8,1.4v9.4h-4.6V224
	h4.3l0.2,1.9c0.8-1.4,1.9-2.2,3.2-2.2c0.5,0,0.9,0.1,1.3,0.2L68.2,228.2z M76.7,239.1c-2.3,0-4.1-0.7-5.5-2s-2.1-3.1-2.1-5.3v-0.4
	c0-1.5,0.3-2.8,0.8-4s1.4-2.1,2.5-2.7s2.4-1,3.8-1c2.1,0,3.7,0.6,4.9,1.9s1.8,3.1,1.8,5.4v1.8h-9.2c0.2,0.8,0.5,1.5,1.1,2
	s1.3,0.7,2.2,0.7c1.5,0,2.6-0.5,3.4-1.5l2.1,2.5c-0.6,0.8-1.4,1.4-2.4,1.9S78,239.1,76.7,239.1z M76.2,227.3c-1.3,0-2.2,0.9-2.4,2.7
	h4.6v-0.4c0-0.7-0.2-1.3-0.6-1.7S77,227.3,76.2,227.3z M84.3,231.3c0-2.3,0.5-4.2,1.5-5.5s2.4-2,4.2-2c1.3,0,2.4,0.5,3.3,1.6v-7.5
	H98v21h-4.1l-0.2-1.6c-0.9,1.2-2.2,1.9-3.6,1.9c-1.8,0-3.2-0.7-4.2-2S84.3,233.8,84.3,231.3z M88.9,231.6c0,2.6,0.8,3.9,2.3,3.9
	c1,0,1.8-0.4,2.2-1.3v-5.6c-0.4-0.9-1.1-1.3-2.2-1.3c-1.4,0-2.2,1.1-2.3,3.4L88.9,231.6z M100.5,220.2c0-0.7,0.2-1.2,0.7-1.6
	s1.1-0.6,1.8-0.6s1.4,0.2,1.8,0.6s0.7,1,0.7,1.6s-0.2,1.2-0.7,1.6s-1.1,0.6-1.8,0.6s-1.4-0.2-1.8-0.6S100.5,220.9,100.5,220.2z
	 M105.4,238.8h-4.6V224h4.6V238.8z M113.6,220.4v3.7h2.4v3.2h-2.4v6.8c0,0.6,0.1,0.9,0.3,1.2s0.6,0.3,1.2,0.3c0.5,0,0.8,0,1.1-0.1
	v3.3c-0.8,0.3-1.7,0.4-2.6,0.4c-1.6,0-2.8-0.4-3.5-1.1s-1.1-1.9-1.1-3.4v-7.3h-1.9V224h1.9v-3.7H113.6z M16.4,257.6l0.2,1.7
	c1-1.3,2.5-2,4.2-2c1.9,0,3.1,0.7,3.8,2.2c1-1.5,2.5-2.2,4.3-2.2c3,0,4.5,1.8,4.6,5.4v9.6h-4.6v-9.3c0-0.8-0.1-1.3-0.4-1.7
	s-0.7-0.5-1.4-0.5c-0.9,0-1.6,0.4-2,1.2l0,0.2v10.1h-4.6v-9.3c0-0.8-0.1-1.3-0.4-1.7s-0.7-0.5-1.4-0.5c-0.9,0-1.6,0.4-2,1.2v10.3
	h-4.6v-14.8H16.4z M35.6,264.9c0-1.5,0.3-2.8,0.9-3.9s1.4-2,2.5-2.7s2.3-0.9,3.8-0.9c2.2,0,4,0.7,5.2,2.1s1.9,3.2,1.9,5.6v0.2
	c0,2.3-0.6,4.1-1.9,5.5s-3,2-5.2,2c-2.1,0-3.8-0.6-5.1-1.9s-2-3-2.1-5.1L35.6,264.9z M40.2,265.2c0,1.4,0.2,2.4,0.6,3s1.1,1,1.9,1
	c1.6,0,2.5-1.3,2.5-3.8v-0.5c0-2.7-0.8-4-2.5-4c-1.5,0-2.4,1.1-2.5,3.4L40.2,265.2z M56.1,257.6l0.2,1.7c1-1.3,2.4-2,4.2-2
	c1.5,0,2.7,0.5,3.5,1.4s1.2,2.3,1.2,4.2v9.5h-4.6v-9.3c0-0.7-0.2-1.3-0.5-1.6s-0.8-0.5-1.6-0.5c-0.9,0-1.6,0.4-2,1.1v10.4h-4.6
	v-14.8H56.1z M67.7,253.8c0-0.7,0.2-1.2,0.7-1.6s1.1-0.6,1.8-0.6s1.4,0.2,1.8,0.6s0.7,1,0.7,1.6s-0.2,1.2-0.7,1.6s-1.1,0.6-1.8,0.6
	s-1.4-0.2-1.8-0.6S67.7,254.5,67.7,253.8z M72.6,272.4h-4.6v-14.8h4.6V272.4z M80.8,254v3.7h2.4v3.2h-2.4v6.8c0,0.6,0.1,0.9,0.3,1.2
	s0.6,0.3,1.2,0.3c0.5,0,0.8,0,1.1-0.1v3.3c-0.8,0.3-1.7,0.4-2.6,0.4c-1.6,0-2.8-0.4-3.5-1.1s-1.1-1.9-1.1-3.4v-7.3h-1.9v-3.2h1.9
	V254H80.8z M84,264.9c0-1.5,0.3-2.8,0.9-3.9s1.4-2,2.5-2.7s2.3-0.9,3.8-0.9c2.2,0,4,0.7,5.2,2.1s1.9,3.2,1.9,5.6v0.2
	c0,2.3-0.6,4.1-1.9,5.5s-3,2-5.2,2c-2.1,0-3.8-0.6-5.1-1.9s-2-3-2.1-5.1L84,264.9z M88.6,265.2c0,1.4,0.2,2.4,0.6,3s1.1,1,1.9,1
	c1.6,0,2.5-1.3,2.5-3.8v-0.5c0-2.7-0.8-4-2.5-4c-1.5,0-2.4,1.1-2.5,3.4L88.6,265.2z M109.3,261.8l-1.5-0.1c-1.4,0-2.4,0.5-2.8,1.4
	v9.4h-4.6v-14.8h4.3l0.2,1.9c0.8-1.4,1.9-2.2,3.2-2.2c0.5,0,0.9,0.1,1.3,0.2L109.3,261.8z M110.9,253.8c0-0.7,0.2-1.2,0.7-1.6
	s1.1-0.6,1.8-0.6s1.4,0.2,1.8,0.6s0.7,1,0.7,1.6s-0.2,1.2-0.7,1.6s-1.1,0.6-1.8,0.6s-1.4-0.2-1.8-0.6S110.9,254.5,110.9,253.8z
	 M115.8,272.4h-4.6v-14.8h4.6V272.4z M122.9,257.6l0.2,1.7c1-1.3,2.4-2,4.2-2c1.5,0,2.7,0.5,3.5,1.4s1.2,2.3,1.2,4.2v9.5h-4.6v-9.3
	c0-0.7-0.2-1.3-0.5-1.6s-0.8-0.5-1.6-0.5c-0.9,0-1.6,0.4-2,1.1v10.4h-4.6v-14.8H122.9z M133.9,264.9c0-1.5,0.2-2.8,0.7-4
	s1.2-2,2.1-2.7s2-0.9,3.2-0.9c1.5,0,2.7,0.5,3.6,1.6l0.2-1.3h4.2v14.2c0,1.3-0.3,2.4-0.9,3.4s-1.5,1.7-2.6,2.2s-2.5,0.8-4,0.8
	c-1.1,0-2.1-0.2-3.2-0.6s-1.8-0.9-2.3-1.6l1.9-2.7c0.9,1,2,1.5,3.4,1.5c2,0,3.1-1,3.1-3.1v-0.5c-0.9,1-2,1.5-3.3,1.5
	c-1.8,0-3.3-0.7-4.4-2.1s-1.7-3.2-1.7-5.5V264.9z M138.5,265.2c0,1.2,0.2,2.2,0.7,2.9s1.1,1.1,1.9,1.1c1,0,1.7-0.3,2.2-1v-6.2
	c-0.4-0.7-1.2-1-2.1-1c-0.8,0-1.5,0.4-1.9,1.1S138.5,263.8,138.5,265.2z M49.3,306c-0.2-0.3-0.3-0.7-0.4-1.3c-0.8,1.1-2,1.6-3.6,1.6
	c-1.4,0-2.6-0.4-3.6-1.3s-1.5-1.9-1.5-3.2c0-1.6,0.6-2.8,1.8-3.6s2.9-1.2,5.2-1.2h1.4v-0.8c0-1.4-0.6-2-1.8-2
	c-1.1,0-1.6,0.5-1.6,1.6h-4.6c0-1.4,0.6-2.6,1.8-3.5c1.2-0.9,2.8-1.3,4.7-1.3s3.4,0.5,4.5,1.4s1.7,2.2,1.7,3.8v6.5
	c0,1.4,0.2,2.4,0.6,3.1v0.2H49.3z M46.4,303c0.6,0,1.1-0.1,1.4-0.4s0.6-0.5,0.8-0.8v-2.4h-1.3c-1.6,0-2.4,0.7-2.4,2.2
	c0,0.4,0.1,0.8,0.4,1S46,303,46.4,303z M60.7,306h-4.6v-21h4.6V306z M70.7,306.3c-2.3,0-4.1-0.7-5.5-2s-2.1-3.1-2.1-5.3v-0.4
	c0-1.5,0.3-2.8,0.8-4s1.4-2.1,2.5-2.7s2.4-1,3.8-1c2.1,0,3.7,0.6,4.9,1.9s1.8,3.1,1.8,5.4v1.8h-9.2c0.2,0.8,0.5,1.5,1.1,2
	s1.3,0.7,2.2,0.7c1.5,0,2.6-0.5,3.4-1.5l2.1,2.5c-0.6,0.8-1.4,1.4-2.4,1.9S71.9,306.3,70.7,306.3z M70.2,294.5
	c-1.3,0-2.2,0.9-2.4,2.7h4.6v-0.4c0-0.7-0.2-1.3-0.6-1.7S70.9,294.5,70.2,294.5z M87.7,295.4l-1.5-0.1c-1.4,0-2.4,0.5-2.8,1.4v9.4
	h-4.6v-14.8h4.3l0.2,1.9c0.8-1.4,1.9-2.2,3.2-2.2c0.5,0,0.9,0.1,1.3,0.2L87.7,295.4z M95.5,287.6v3.7h2.4v3.2h-2.4v6.8
	c0,0.6,0.1,0.9,0.3,1.2s0.6,0.3,1.2,0.3c0.5,0,0.8,0,1.1-0.1v3.3c-0.8,0.3-1.7,0.4-2.6,0.4c-1.6,0-2.8-0.4-3.5-1.1s-1.1-1.9-1.1-3.4
	v-7.3H89v-3.2h1.9v-3.7H95.5z M107.4,301.9c0-0.4-0.2-0.7-0.6-0.9s-1.2-0.5-2.3-0.7s-2.1-0.6-2.8-1s-1.3-0.9-1.7-1.5s-0.6-1.3-0.6-2
	c0-1.4,0.6-2.5,1.7-3.4s2.6-1.3,4.4-1.3c2,0,3.5,0.4,4.7,1.3s1.8,2,1.8,3.5h-4.6c0-1.2-0.6-1.8-1.9-1.8c-0.5,0-0.9,0.1-1.2,0.4
	s-0.5,0.6-0.5,1c0,0.4,0.2,0.7,0.6,1s1,0.5,1.9,0.6s1.7,0.4,2.3,0.6c2.2,0.8,3.3,2.1,3.3,4.1c0,1.3-0.6,2.4-1.8,3.3
	s-2.8,1.3-4.7,1.3c-1.3,0-2.4-0.2-3.4-0.7s-1.8-1.1-2.3-1.9s-0.8-1.6-0.8-2.5h4.3c0,0.7,0.2,1.2,0.7,1.5s1,0.5,1.7,0.5
	c0.6,0,1.1-0.1,1.4-0.4S107.4,302.3,107.4,301.9z M115.7,311.4l-2.3-1.1l0.5-0.9c0.6-1.2,1-2.3,1-3.4v-3.4h3.7l0,3
	c0,1-0.3,2.1-0.8,3.2S116.5,310.7,115.7,311.4z M62.8,346.8H46v-3.7l7.8-8.2c1.9-2.2,2.9-3.9,2.9-5.2c0-1-0.2-1.8-0.7-2.4
	s-1.1-0.8-2-0.8c-0.9,0-1.5,0.4-2.1,1.1c-0.5,0.7-0.8,1.6-0.8,2.7h-5.6c0-1.5,0.4-2.9,1.1-4.1c0.7-1.3,1.8-2.2,3.1-2.9
	s2.8-1.1,4.4-1.1c2.6,0,4.6,0.6,6,1.8c1.4,1.2,2.1,2.9,2.1,5.2c0,1-0.2,1.9-0.5,2.8c-0.4,0.9-0.9,1.8-1.7,2.8c-0.7,1-2,2.3-3.6,4
	l-3.1,3.6h9.5V346.8z M80.4,337.4h2.5v4.3h-2.5v5.1h-5.6v-5.1h-9.3l-0.3-3.4l9.7-15.6v0h5.6V337.4z M70.5,337.4h4.3v-7.4l-0.3,0.6
	L70.5,337.4z M87.4,348.9h-4l8.3-26.2h4L87.4,348.9z M114.1,325.6l-9,21.2h-5.9l9-19.9H96.7v-4.3h17.4V325.6z"/>
</svg>
