<?xml version="1.0" encoding="utf-8"?>
<!-- Generator: Adobe Illustrator 24.3.0, SVG Export Plug-In . SVG Version: 6.00 Build 0)  -->
<svg version="1.1" id="Layer_1" xmlns="http://www.w3.org/2000/svg" xmlns:xlink="http://www.w3.org/1999/xlink" x="0px" y="0px"
	 viewBox="0 0 160 600" style="enable-background:new 0 0 160 600;" xml:space="preserve">
<style type="text/css">
	.st0{fill:url(#SVGID_1_);}
</style>
<linearGradient id="SVGID_1_" gradientUnits="userSpaceOnUse" x1="19.9072" y1="266.3152" x2="140.1396" y2="266.3152">
	<stop  offset="0" style="stop-color:#41B5E8"/>
	<stop  offset="0.5" style="stop-color:#6A53A3"/>
	<stop  offset="1" style="stop-color:#E72E8A"/>
</linearGradient>
<path class="st0" d="M38.8,220.1h-4.9v13.3h-3.9v-13.3h-4.8v-3h13.7V220.1z M46.9,224.7l-1.2-0.1c-1.2,0-2,0.4-2.3,1.1v7.7h-3.8
	v-12.2h3.5l0.1,1.6c0.6-1.2,1.5-1.8,2.7-1.8c0.4,0,0.8,0,1.1,0.1L46.9,224.7z M54.8,233.4c-0.1-0.2-0.3-0.6-0.4-1.1
	c-0.7,0.9-1.7,1.3-2.9,1.3c-1.1,0-2.1-0.3-2.9-1s-1.2-1.6-1.2-2.6c0-1.3,0.5-2.3,1.5-3c1-0.7,2.4-1,4.2-1h1.2v-0.6
	c0-1.1-0.5-1.7-1.4-1.7c-0.9,0-1.3,0.4-1.3,1.3h-3.8c0-1.2,0.5-2.1,1.5-2.9c1-0.7,2.3-1.1,3.8-1.1c1.5,0,2.8,0.4,3.7,1.1
	c0.9,0.8,1.4,1.8,1.4,3.1v5.4c0,1.1,0.2,2,0.5,2.6v0.2H54.8z M52.4,231c0.5,0,0.9-0.1,1.2-0.3c0.3-0.2,0.5-0.4,0.7-0.7V228h-1.1
	c-1.3,0-2,0.6-2,1.8c0,0.3,0.1,0.6,0.3,0.8C51.8,230.9,52,231,52.4,231z M65.3,230.7c0.5,0,0.9-0.1,1.2-0.4s0.4-0.7,0.4-1.2h3.5
	c0,1.3-0.5,2.4-1.4,3.3c-1,0.9-2.2,1.3-3.7,1.3c-1.8,0-3.2-0.6-4.2-1.7s-1.5-2.6-1.5-4.6v-0.2c0-1.2,0.2-2.3,0.7-3.3s1.1-1.7,2-2.2
	c0.9-0.5,1.9-0.8,3-0.8c1.6,0,2.8,0.4,3.8,1.3c0.9,0.9,1.4,2.1,1.4,3.6h-3.5c0-0.6-0.2-1.1-0.5-1.4c-0.3-0.3-0.7-0.5-1.2-0.5
	c-1,0-1.6,0.6-1.7,1.9c-0.1,0.4-0.1,0.9-0.1,1.6c0,1.2,0.1,2.1,0.4,2.5C64.2,230.5,64.6,230.7,65.3,230.7z M77,228.9l-1.1,1.1v3.5
	h-3.8v-17.3h3.8v9.2l0.4-0.5l2.9-3.5h4.5l-4.3,5l4.5,7.2h-4.3L77,228.9z M95.3,228.1l2-6.9h4.1l-5,14.2l-0.2,0.5
	c-0.7,1.6-1.9,2.4-3.7,2.4c-0.5,0-1-0.1-1.6-0.2v-2.7h0.5c0.5,0,0.9-0.1,1.2-0.2c0.3-0.2,0.5-0.4,0.6-0.8l0.3-0.8l-4.2-12.3h4
	L95.3,228.1z M101.7,227.2c0-1.2,0.2-2.3,0.7-3.2c0.5-0.9,1.1-1.7,2-2.2s1.9-0.8,3.1-0.8c1.8,0,3.3,0.6,4.3,1.7s1.6,2.7,1.6,4.6v0.1
	c0,1.9-0.5,3.4-1.6,4.5c-1.1,1.1-2.5,1.7-4.3,1.7c-1.7,0-3.1-0.5-4.2-1.6s-1.6-2.4-1.7-4.2L101.7,227.2z M105.4,227.5
	c0,1.1,0.2,1.9,0.5,2.5s0.9,0.8,1.6,0.8c1.3,0,2-1,2.1-3.1v-0.4c0-2.2-0.7-3.3-2.1-3.3c-1.3,0-2,0.9-2.1,2.8L105.4,227.5z
	 M122.3,232.1c-0.8,1-1.9,1.5-3.2,1.5c-1.3,0-2.3-0.4-3-1.2c-0.7-0.8-1-1.9-1-3.3v-7.9h3.8v7.9c0,1,0.5,1.6,1.5,1.6
	c0.9,0,1.5-0.3,1.9-0.9v-8.5h3.8v12.2h-3.5L122.3,232.1z M135.4,224.7l-1.2-0.1c-1.2,0-2,0.4-2.3,1.1v7.7h-3.8v-12.2h3.5l0.1,1.6
	c0.6-1.2,1.5-1.8,2.7-1.8c0.4,0,0.8,0,1.1,0.1L135.4,224.7z M56.3,258.3c0.5,0,0.9-0.1,1.2-0.4s0.4-0.7,0.4-1.2h3.5
	c0,1.3-0.5,2.4-1.4,3.3c-1,0.9-2.2,1.3-3.7,1.3c-1.8,0-3.2-0.6-4.2-1.7s-1.5-2.6-1.5-4.6v-0.2c0-1.2,0.2-2.3,0.7-3.3s1.1-1.7,2-2.2
	c0.9-0.5,1.9-0.8,3-0.8c1.6,0,2.8,0.4,3.8,1.3c0.9,0.9,1.4,2.1,1.4,3.6H58c0-0.6-0.2-1.1-0.5-1.4c-0.3-0.3-0.7-0.5-1.2-0.5
	c-1,0-1.6,0.6-1.7,1.9c-0.1,0.4-0.1,0.9-0.1,1.6c0,1.2,0.1,2.1,0.4,2.5C55.2,258.1,55.7,258.3,56.3,258.3z M70.5,252.3l-1.2-0.1
	c-1.2,0-2,0.4-2.3,1.1v7.7h-3.8v-12.2h3.5l0.1,1.6c0.6-1.2,1.5-1.8,2.7-1.8c0.4,0,0.8,0,1.1,0.1L70.5,252.3z M77.5,261.3
	c-1.9,0-3.4-0.6-4.5-1.7c-1.2-1.1-1.7-2.6-1.7-4.3v-0.3c0-1.2,0.2-2.3,0.7-3.3c0.5-1,1.1-1.7,2-2.2s1.9-0.8,3.1-0.8
	c1.7,0,3.1,0.5,4,1.6s1.5,2.5,1.5,4.4v1.5h-7.5c0.1,0.7,0.4,1.2,0.9,1.6c0.5,0.4,1,0.6,1.8,0.6c1.2,0,2.1-0.4,2.8-1.3l1.7,2
	c-0.5,0.7-1.1,1.2-2,1.6C79.5,261.1,78.5,261.3,77.5,261.3z M77.1,251.6c-1.1,0-1.8,0.7-2,2.2h3.8v-0.3c0-0.6-0.1-1.1-0.5-1.4
	C78.2,251.7,77.7,251.6,77.1,251.6z M83.7,254.9c0-1.9,0.4-3.4,1.2-4.5c0.8-1.1,2-1.7,3.5-1.7c1.1,0,2,0.4,2.7,1.3v-6.2H95V261h-3.4
	l-0.2-1.3c-0.8,1-1.8,1.5-3,1.5c-1.4,0-2.6-0.6-3.4-1.7C84.1,258.5,83.7,256.9,83.7,254.9z M87.5,255.1c0,2.2,0.6,3.2,1.9,3.2
	c0.8,0,1.4-0.4,1.8-1.1v-4.6c-0.3-0.7-0.9-1.1-1.8-1.1c-1.2,0-1.8,0.9-1.9,2.8L87.5,255.1z M97.1,245.7c0-0.5,0.2-1,0.6-1.3
	c0.4-0.3,0.9-0.5,1.5-0.5c0.6,0,1.1,0.2,1.5,0.5c0.4,0.3,0.6,0.8,0.6,1.3s-0.2,1-0.6,1.3c-0.4,0.3-0.9,0.5-1.5,0.5
	c-0.6,0-1.1-0.2-1.5-0.5C97.3,246.7,97.1,246.3,97.1,245.7z M101.1,261h-3.8v-12.2h3.8V261z M107.8,245.9v3h2v2.6h-2v5.6
	c0,0.5,0.1,0.8,0.2,1c0.2,0.2,0.5,0.3,1,0.3c0.4,0,0.7,0,0.9-0.1v2.7c-0.7,0.2-1.4,0.3-2.1,0.3c-1.3,0-2.3-0.3-2.9-0.9
	c-0.6-0.6-0.9-1.5-0.9-2.8v-6h-1.5v-2.6h1.5v-3H107.8z M52.9,285.2c0-0.3-0.2-0.6-0.5-0.8c-0.3-0.2-1-0.4-1.9-0.6
	c-0.9-0.2-1.7-0.5-2.3-0.8c-0.6-0.3-1.1-0.8-1.4-1.2c-0.3-0.5-0.5-1-0.5-1.7c0-1.1,0.5-2,1.4-2.8s2.1-1.1,3.6-1.1
	c1.6,0,2.9,0.4,3.9,1.1c1,0.7,1.5,1.7,1.5,2.9h-3.8c0-1-0.5-1.5-1.5-1.5c-0.4,0-0.7,0.1-1,0.3s-0.4,0.5-0.4,0.8
	c0,0.3,0.2,0.6,0.5,0.8s0.9,0.4,1.6,0.5s1.4,0.3,1.9,0.5c1.8,0.6,2.7,1.8,2.7,3.4c0,1.1-0.5,2-1.5,2.7c-1,0.7-2.3,1-3.8,1
	c-1,0-2-0.2-2.8-0.6s-1.5-0.9-1.9-1.5s-0.7-1.3-0.7-2h3.5c0,0.6,0.2,1,0.6,1.2c0.4,0.3,0.8,0.4,1.4,0.4c0.5,0,0.9-0.1,1.2-0.3
	C52.8,285.8,52.9,285.6,52.9,285.2z M63.5,285.9c0.5,0,0.9-0.1,1.2-0.4s0.4-0.7,0.4-1.2h3.5c0,1.3-0.5,2.4-1.4,3.3
	c-1,0.9-2.2,1.3-3.7,1.3c-1.8,0-3.2-0.6-4.2-1.7s-1.5-2.6-1.5-4.6v-0.2c0-1.2,0.2-2.3,0.7-3.3s1.1-1.7,2-2.2c0.9-0.5,1.9-0.8,3-0.8
	c1.6,0,2.8,0.4,3.8,1.3c0.9,0.9,1.4,2.1,1.4,3.6h-3.5c0-0.6-0.2-1.1-0.5-1.4c-0.3-0.3-0.7-0.5-1.2-0.5c-1,0-1.6,0.6-1.7,1.9
	c-0.1,0.4-0.1,0.9-0.1,1.6c0,1.2,0.1,2.1,0.4,2.5C62.4,285.7,62.8,285.9,63.5,285.9z M69.8,282.4c0-1.2,0.2-2.3,0.7-3.2
	c0.5-0.9,1.1-1.7,2-2.2s1.9-0.8,3.1-0.8c1.8,0,3.3,0.6,4.3,1.7s1.6,2.7,1.6,4.6v0.1c0,1.9-0.5,3.4-1.6,4.5c-1.1,1.1-2.5,1.7-4.3,1.7
	c-1.7,0-3.1-0.5-4.2-1.6s-1.6-2.4-1.7-4.2L69.8,282.4z M73.6,282.7c0,1.1,0.2,1.9,0.5,2.5s0.9,0.8,1.6,0.8c1.3,0,2-1,2.1-3.1v-0.4
	c0-2.2-0.7-3.3-2.1-3.3c-1.3,0-2,0.9-2.1,2.8L73.6,282.7z M90.5,279.9l-1.2-0.1c-1.2,0-2,0.4-2.3,1.1v7.7h-3.8v-12.2h3.5l0.1,1.6
	c0.6-1.2,1.5-1.8,2.7-1.8c0.4,0,0.8,0,1.1,0.1L90.5,279.9z M97.6,288.9c-1.9,0-3.4-0.6-4.5-1.7c-1.2-1.1-1.7-2.6-1.7-4.3v-0.3
	c0-1.2,0.2-2.3,0.7-3.3c0.5-1,1.1-1.7,2-2.2s1.9-0.8,3.1-0.8c1.7,0,3.1,0.5,4,1.6s1.5,2.5,1.5,4.4v1.5h-7.5c0.1,0.7,0.4,1.2,0.9,1.6
	c0.5,0.4,1,0.6,1.8,0.6c1.2,0,2.1-0.4,2.8-1.3l1.7,2c-0.5,0.7-1.1,1.2-2,1.6C99.5,288.7,98.6,288.9,97.6,288.9z M97.1,279.2
	c-1.1,0-1.8,0.7-2,2.2H99v-0.3c0-0.6-0.1-1.1-0.5-1.4C98.2,279.3,97.7,279.2,97.1,279.2z M110.6,285.2c0-0.3-0.2-0.6-0.5-0.8
	c-0.3-0.2-1-0.4-1.9-0.6c-0.9-0.2-1.7-0.5-2.3-0.8c-0.6-0.3-1.1-0.8-1.4-1.2c-0.3-0.5-0.5-1-0.5-1.7c0-1.1,0.5-2,1.4-2.8
	s2.1-1.1,3.6-1.1c1.6,0,2.9,0.4,3.9,1.1c1,0.7,1.5,1.7,1.5,2.9h-3.8c0-1-0.5-1.5-1.5-1.5c-0.4,0-0.7,0.1-1,0.3s-0.4,0.5-0.4,0.8
	c0,0.3,0.2,0.6,0.5,0.8s0.9,0.4,1.6,0.5s1.4,0.3,1.9,0.5c1.8,0.6,2.7,1.8,2.7,3.4c0,1.1-0.5,2-1.5,2.7c-1,0.7-2.3,1-3.8,1
	c-1,0-2-0.2-2.8-0.6s-1.5-0.9-1.9-1.5s-0.7-1.3-0.7-2h3.5c0,0.6,0.2,1,0.6,1.2c0.4,0.3,0.8,0.4,1.4,0.4c0.5,0,0.9-0.1,1.2-0.3
	C110.4,285.8,110.6,285.6,110.6,285.2z M26.2,316.5c-1.9,0-3.4-0.6-4.5-1.7c-1.2-1.1-1.7-2.6-1.7-4.3v-0.3c0-1.2,0.2-2.3,0.7-3.3
	c0.5-1,1.1-1.7,2-2.2s1.9-0.8,3.1-0.8c1.7,0,3.1,0.5,4,1.6s1.5,2.5,1.5,4.4v1.5h-7.5c0.1,0.7,0.4,1.2,0.9,1.6c0.5,0.4,1,0.6,1.8,0.6
	c1.2,0,2.1-0.4,2.8-1.3l1.7,2c-0.5,0.7-1.1,1.2-2,1.6C28.1,316.3,27.2,316.5,26.2,316.5z M25.7,306.8c-1.1,0-1.8,0.7-2,2.2h3.8v-0.3
	c0-0.6-0.1-1.1-0.5-1.4C26.8,306.9,26.3,306.8,25.7,306.8z M39.7,316.2c-0.1-0.2-0.3-0.6-0.4-1.1c-0.7,0.9-1.7,1.3-2.9,1.3
	c-1.1,0-2.1-0.3-2.9-1s-1.2-1.6-1.2-2.6c0-1.3,0.5-2.3,1.5-3c1-0.7,2.4-1,4.2-1h1.2v-0.6c0-1.1-0.5-1.7-1.4-1.7
	c-0.9,0-1.3,0.4-1.3,1.3h-3.8c0-1.2,0.5-2.1,1.5-2.9c1-0.7,2.3-1.1,3.8-1.1c1.5,0,2.8,0.4,3.7,1.1c0.9,0.8,1.4,1.8,1.4,3.1v5.4
	c0,1.1,0.2,2,0.5,2.6v0.2H39.7z M37.3,313.8c0.5,0,0.9-0.1,1.2-0.3c0.3-0.2,0.5-0.4,0.7-0.7v-1.9H38c-1.3,0-2,0.6-2,1.8
	c0,0.3,0.1,0.6,0.3,0.8C36.6,313.7,36.9,313.8,37.3,313.8z M50.2,313.5c0.5,0,0.9-0.1,1.2-0.4s0.4-0.7,0.4-1.2h3.5
	c0,1.3-0.5,2.4-1.4,3.3c-1,0.9-2.2,1.3-3.7,1.3c-1.8,0-3.2-0.6-4.2-1.7s-1.5-2.6-1.5-4.6V310c0-1.2,0.2-2.3,0.7-3.3s1.1-1.7,2-2.2
	c0.9-0.5,1.9-0.8,3-0.8c1.6,0,2.8,0.4,3.8,1.3c0.9,0.9,1.4,2.1,1.4,3.6h-3.5c0-0.6-0.2-1.1-0.5-1.4c-0.3-0.3-0.7-0.5-1.2-0.5
	c-1,0-1.6,0.6-1.7,1.9c-0.1,0.4-0.1,0.9-0.1,1.6c0,1.2,0.1,2.1,0.4,2.5C49,313.3,49.5,313.5,50.2,313.5z M60.7,305.4
	c0.8-1,1.8-1.5,3.1-1.5c1.3,0,2.4,0.4,3,1.2s1,2,1,3.5v7.7H64v-7.6c0-0.6-0.1-1.1-0.4-1.4c-0.3-0.3-0.7-0.5-1.3-0.5
	c-0.8,0-1.3,0.2-1.7,0.7v8.7h-3.8V299h3.8V305.4z M79.2,304.1l0.1,1.4c0.9-1.1,2-1.7,3.5-1.7c1.5,0,2.6,0.6,3.1,1.8
	c0.8-1.2,2-1.8,3.6-1.8c2.5,0,3.7,1.5,3.8,4.5v7.9h-3.8v-7.7c0-0.6-0.1-1.1-0.3-1.4s-0.6-0.4-1.1-0.4c-0.7,0-1.3,0.3-1.7,1l0,0.2
	v8.3h-3.8v-7.6c0-0.6-0.1-1.1-0.3-1.4c-0.2-0.3-0.6-0.4-1.2-0.4c-0.7,0-1.3,0.3-1.7,1v8.5h-3.8v-12.2H79.2z M95,310
	c0-1.2,0.2-2.3,0.7-3.2c0.5-0.9,1.1-1.7,2-2.2s1.9-0.8,3.1-0.8c1.8,0,3.3,0.6,4.3,1.7s1.6,2.7,1.6,4.6v0.1c0,1.9-0.5,3.4-1.6,4.5
	c-1.1,1.1-2.5,1.7-4.3,1.7c-1.7,0-3.1-0.5-4.2-1.6s-1.6-2.4-1.7-4.2L95,310z M98.8,310.3c0,1.1,0.2,1.9,0.5,2.5s0.9,0.8,1.6,0.8
	c1.3,0,2-1,2.1-3.1V310c0-2.2-0.7-3.3-2.1-3.3c-1.3,0-2,0.9-2.1,2.8L98.8,310.3z M111.9,304.1l0.1,1.4c0.8-1.1,2-1.7,3.5-1.7
	c1.3,0,2.2,0.4,2.8,1.1c0.6,0.8,0.9,1.9,1,3.4v7.8h-3.8v-7.7c0-0.6-0.1-1.1-0.4-1.4s-0.7-0.4-1.3-0.4c-0.7,0-1.3,0.3-1.7,0.9v8.6
	h-3.8v-12.2H111.9z M125.8,301.1v3h2v2.6h-2v5.6c0,0.5,0.1,0.8,0.2,1c0.2,0.2,0.5,0.3,1,0.3c0.4,0,0.7,0,0.9-0.1v2.7
	c-0.7,0.2-1.4,0.3-2.1,0.3c-1.3,0-2.3-0.3-2.9-0.9c-0.6-0.6-0.9-1.5-0.9-2.8v-6h-1.5v-2.6h1.5v-3H125.8z M133,305.4
	c0.8-1,1.8-1.5,3.1-1.5c1.3,0,2.4,0.4,3,1.2s1,2,1,3.5v7.7h-3.8v-7.6c0-0.6-0.1-1.1-0.4-1.4c-0.3-0.3-0.7-0.5-1.3-0.5
	c-0.8,0-1.3,0.2-1.7,0.7v8.7h-3.8V299h3.8V305.4z"/>
</svg>
