<?xml version="1.0" encoding="utf-8"?>
<!-- Generator: Adobe Illustrator 24.3.0, SVG Export Plug-In . SVG Version: 6.00 Build 0)  -->
<svg version="1.1" id="Layer_1" xmlns="http://www.w3.org/2000/svg" xmlns:xlink="http://www.w3.org/1999/xlink" x="0px" y="0px"
	 viewBox="0 0 160 600" style="enable-background:new 0 0 160 600;" xml:space="preserve">
<style type="text/css">
	.st0{fill:url(#SVGID_1_);}
</style>
<linearGradient id="SVGID_1_" gradientUnits="userSpaceOnUse" x1="14.9346" y1="250.2619" x2="145.0654" y2="250.2619">
	<stop  offset="0" style="stop-color:#41B5E8"/>
	<stop  offset="0.5" style="stop-color:#6A53A3"/>
	<stop  offset="1" style="stop-color:#E72E8A"/>
</linearGradient>
<path class="st0" d="M26.7,197.8h-2v5.5h-3.8v-15.6h6.2c1.9,0,3.3,0.4,4.4,1.2c1,0.8,1.6,2,1.6,3.5c0,1.1-0.2,2-0.7,2.7
	c-0.4,0.7-1.1,1.3-2.1,1.7l3.3,6.3v0.2h-4L26.7,197.8z M24.7,194.9h2.4c0.7,0,1.3-0.2,1.6-0.6c0.4-0.4,0.5-0.9,0.5-1.6
	c0-0.7-0.2-1.2-0.5-1.6s-0.9-0.6-1.6-0.6h-2.4V194.9z M40.7,203.5c-1.8,0-3.2-0.5-4.3-1.6c-1.1-1.1-1.7-2.4-1.7-4.2v-0.3
	c0-1.2,0.2-2.2,0.7-3.1c0.4-0.9,1.1-1.6,1.9-2.1c0.8-0.5,1.8-0.7,3-0.7c1.6,0,2.9,0.5,3.9,1.5c0.9,1,1.4,2.4,1.4,4.2v1.4h-7.2
	c0.1,0.7,0.4,1.2,0.8,1.5s1,0.6,1.7,0.6c1.1,0,2-0.4,2.7-1.2l1.7,2c-0.5,0.6-1.1,1.1-1.9,1.5C42.6,203.3,41.7,203.5,40.7,203.5z
	 M40.3,194.3c-1.1,0-1.7,0.7-1.9,2.1h3.7v-0.3c0-0.6-0.1-1-0.4-1.3C41.3,194.4,40.9,194.3,40.3,194.3z M51.6,199l1.8-7.3h3.8
	l-3.8,11.6h-3.7l-3.8-11.6h3.8L51.6,199z M58.3,188.7c0-0.5,0.2-0.9,0.6-1.3s0.9-0.5,1.5-0.5s1.1,0.2,1.5,0.5s0.6,0.8,0.6,1.3
	s-0.2,0.9-0.6,1.3s-0.9,0.5-1.5,0.5s-1.1-0.2-1.5-0.5S58.3,189.2,58.3,188.7z M62.1,203.3h-3.6v-11.6h3.6V203.3z M70,203.5
	c-1.8,0-3.2-0.5-4.3-1.6c-1.1-1.1-1.7-2.4-1.7-4.2v-0.3c0-1.2,0.2-2.2,0.7-3.1c0.4-0.9,1.1-1.6,1.9-2.1c0.8-0.5,1.8-0.7,3-0.7
	c1.6,0,2.9,0.5,3.9,1.5c0.9,1,1.4,2.4,1.4,4.2v1.4h-7.2c0.1,0.7,0.4,1.2,0.8,1.5s1,0.6,1.7,0.6c1.1,0,2-0.4,2.7-1.2l1.7,2
	c-0.5,0.6-1.1,1.1-1.9,1.5C71.8,203.3,70.9,203.5,70,203.5z M69.6,194.3c-1.1,0-1.7,0.7-1.9,2.1h3.7v-0.3c0-0.6-0.1-1-0.4-1.3
	C70.6,194.4,70.1,194.3,69.6,194.3z M86.4,198.5l1.2-6.9H91l-2.7,11.6h-3.1l-1.9-6.9l-1.9,6.9h-3.1l-2.7-11.6H79l1.1,7l1.8-7h2.5
	L86.4,198.5z M102.4,198.2l1.9-6.6h3.9l-4.7,13.6l-0.2,0.5c-0.7,1.5-1.9,2.3-3.6,2.3c-0.5,0-1-0.1-1.5-0.2v-2.6h0.5
	c0.5,0,0.9-0.1,1.2-0.2c0.3-0.1,0.5-0.4,0.6-0.8l0.3-0.8l-4-11.7h3.9L102.4,198.2z M108.6,197.4c0-1.2,0.2-2.2,0.7-3.1
	c0.5-0.9,1.1-1.6,1.9-2.1s1.8-0.7,3-0.7c1.7,0,3.1,0.5,4.1,1.6c1,1.1,1.5,2.5,1.5,4.4v0.1c0,1.8-0.5,3.2-1.5,4.3
	c-1,1.1-2.4,1.6-4.1,1.6c-1.7,0-3-0.5-4-1.5c-1-1-1.5-2.3-1.6-4L108.6,197.4z M112.2,197.6c0,1.1,0.2,1.9,0.5,2.4s0.8,0.8,1.5,0.8
	c1.3,0,1.9-1,2-3v-0.4c0-2.1-0.7-3.1-2-3.1c-1.2,0-1.9,0.9-2,2.7L112.2,197.6z M128.3,202c-0.8,1-1.8,1.5-3.1,1.5
	c-1.3,0-2.2-0.4-2.9-1.1c-0.7-0.7-1-1.8-1-3.2v-7.5h3.6v7.6c0,1,0.5,1.5,1.5,1.5c0.8,0,1.4-0.3,1.8-0.9v-8.2h3.6v11.6h-3.4
	L128.3,202z M140.8,195l-1.2-0.1c-1.1,0-1.9,0.4-2.2,1.1v7.4h-3.6v-11.6h3.4l0.1,1.5c0.6-1.1,1.5-1.7,2.5-1.7c0.4,0,0.7,0,1,0.1
	L140.8,195z M20,215.2v2.9h1.9v2.5H20v5.3c0,0.4,0.1,0.7,0.2,0.9s0.5,0.3,0.9,0.3c0.4,0,0.7,0,0.9-0.1v2.6c-0.7,0.2-1.3,0.3-2,0.3
	c-1.2,0-2.2-0.3-2.8-0.9s-0.9-1.5-0.9-2.7v-5.8h-1.5v-2.5h1.5v-2.9H20z M30.4,221.4l-1.2-0.1c-1.1,0-1.9,0.4-2.2,1.1v7.4h-3.6v-11.6
	h3.4l0.1,1.5c0.6-1.1,1.5-1.7,2.5-1.7c0.4,0,0.7,0,1,0.1L30.4,221.4z M31.7,215.1c0-0.5,0.2-0.9,0.6-1.3s0.9-0.5,1.5-0.5
	s1.1,0.2,1.5,0.5s0.6,0.8,0.6,1.3s-0.2,0.9-0.6,1.3s-0.9,0.5-1.5,0.5s-1.1-0.2-1.5-0.5S31.7,215.6,31.7,215.1z M35.5,229.7h-3.6
	v-11.6h3.6V229.7z M48.5,224c0,1.8-0.4,3.2-1.2,4.3c-0.8,1.1-1.9,1.6-3.3,1.6c-1.1,0-1.9-0.4-2.6-1.2v5.4h-3.6v-16.1h3.4l0.1,1.1
	c0.7-0.9,1.6-1.3,2.7-1.3c1.4,0,2.5,0.5,3.3,1.6c0.8,1.1,1.2,2.5,1.2,4.4V224z M44.9,223.8c0-2.1-0.6-3.1-1.8-3.1
	c-0.9,0-1.4,0.3-1.7,0.9v4.6c0.3,0.6,0.9,1,1.7,1c1.2,0,1.7-1,1.8-3V223.8z M54,229.7h-3.6v-16.5H54V229.7z M61.8,229.9
	c-1.8,0-3.2-0.5-4.3-1.6c-1.1-1.1-1.7-2.4-1.7-4.2v-0.3c0-1.2,0.2-2.2,0.7-3.1c0.4-0.9,1.1-1.6,1.9-2.1c0.8-0.5,1.8-0.7,3-0.7
	c1.6,0,2.9,0.5,3.9,1.5c0.9,1,1.4,2.4,1.4,4.2v1.4h-7.2c0.1,0.7,0.4,1.2,0.8,1.5s1,0.6,1.7,0.6c1.1,0,2-0.4,2.7-1.2l1.7,2
	c-0.5,0.6-1.1,1.1-1.9,1.5C63.7,229.7,62.8,229.9,61.8,229.9z M61.4,220.7c-1.1,0-1.7,0.7-1.9,2.1h3.7v-0.3c0-0.6-0.1-1-0.4-1.3
	C62.4,220.8,62,220.7,61.4,220.7z M75.2,224.4h-6.5v-2.8h6.5V224.4z M88.9,224c0,1.9-0.4,3.4-1.2,4.4s-1.9,1.5-3.3,1.5
	c-1.2,0-2.1-0.5-2.9-1.4l-0.2,1.2h-3.2v-16.5h3.6v5.8c0.7-0.8,1.5-1.1,2.6-1.1c1.4,0,2.6,0.5,3.4,1.6s1.2,2.5,1.2,4.4V224z
	 M85.2,223.8c0-1.1-0.1-1.9-0.4-2.4c-0.3-0.5-0.8-0.7-1.4-0.7c-0.8,0-1.4,0.3-1.7,0.9v4.6c0.3,0.6,0.9,0.9,1.7,0.9
	c0.9,0,1.4-0.4,1.6-1.2C85.2,225.5,85.2,224.8,85.2,223.8z M97.4,228.4c-0.8,1-1.8,1.5-3.1,1.5c-1.3,0-2.2-0.4-2.9-1.1
	c-0.7-0.7-1-1.8-1-3.2v-7.5H94v7.6c0,1,0.5,1.5,1.5,1.5c0.8,0,1.4-0.3,1.8-0.9v-8.2h3.6v11.6h-3.4L97.4,228.4z M109.9,221.4
	l-1.2-0.1c-1.1,0-1.9,0.4-2.2,1.1v7.4h-3.6v-11.6h3.4l0.1,1.5c0.6-1.1,1.5-1.7,2.5-1.7c0.4,0,0.7,0,1,0.1L109.9,221.4z M116.6,229.9
	c-1.8,0-3.2-0.5-4.3-1.6c-1.1-1.1-1.7-2.4-1.7-4.2v-0.3c0-1.2,0.2-2.2,0.7-3.1c0.4-0.9,1.1-1.6,1.9-2.1c0.8-0.5,1.8-0.7,3-0.7
	c1.6,0,2.9,0.5,3.9,1.5c0.9,1,1.4,2.4,1.4,4.2v1.4h-7.2c0.1,0.7,0.4,1.2,0.8,1.5s1,0.6,1.7,0.6c1.1,0,2-0.4,2.7-1.2l1.7,2
	c-0.5,0.6-1.1,1.1-1.9,1.5C118.5,229.7,117.6,229.9,116.6,229.9z M116.2,220.7c-1.1,0-1.7,0.7-1.9,2.1h3.7v-0.3c0-0.6-0.1-1-0.4-1.3
	C117.2,220.8,116.8,220.7,116.2,220.7z M129.5,229.7c-0.1-0.2-0.2-0.6-0.3-1c-0.7,0.8-1.6,1.3-2.8,1.3c-1.1,0-2-0.3-2.8-1
	c-0.8-0.7-1.1-1.5-1.1-2.5c0-1.3,0.5-2.2,1.4-2.9s2.3-1,4.1-1h1.1V222c0-1.1-0.5-1.6-1.4-1.6c-0.9,0-1.3,0.4-1.3,1.3h-3.6
	c0-1.1,0.5-2,1.4-2.7c1-0.7,2.2-1.1,3.7-1.1s2.7,0.4,3.5,1.1s1.3,1.7,1.3,3v5.1c0,1.1,0.2,1.9,0.5,2.4v0.2H129.5z M127.2,227.3
	c0.5,0,0.8-0.1,1.1-0.3c0.3-0.2,0.5-0.4,0.6-0.7v-1.9H128c-1.3,0-1.9,0.6-1.9,1.7c0,0.3,0.1,0.6,0.3,0.8
	C126.6,227.2,126.9,227.3,127.2,227.3z M141.6,228.4c-0.8,1-1.8,1.5-3.1,1.5c-1.3,0-2.2-0.4-2.9-1.1c-0.7-0.7-1-1.8-1-3.2v-7.5h3.6
	v7.6c0,1,0.5,1.5,1.5,1.5c0.8,0,1.4-0.3,1.8-0.9v-8.2h3.6v11.6h-3.4L141.6,228.4z M24.2,253.5c0.5,0,0.9-0.1,1.2-0.4
	c0.3-0.3,0.4-0.7,0.4-1.2h3.4c0,1.3-0.5,2.3-1.4,3.1c-0.9,0.8-2.1,1.2-3.5,1.2c-1.7,0-3-0.5-4-1.6s-1.5-2.5-1.5-4.4v-0.2
	c0-1.2,0.2-2.2,0.7-3.1c0.4-0.9,1.1-1.6,1.9-2.1c0.8-0.5,1.8-0.7,2.9-0.7c1.5,0,2.7,0.4,3.6,1.3s1.3,2,1.3,3.4h-3.4
	c0-0.6-0.1-1.1-0.4-1.4s-0.7-0.5-1.2-0.5c-0.9,0-1.5,0.6-1.6,1.8c0,0.4-0.1,0.9-0.1,1.6c0,1.2,0.1,2,0.4,2.4S23.6,253.5,24.2,253.5z
	 M37.8,247.8l-1.2-0.1c-1.1,0-1.9,0.4-2.2,1.1v7.4h-3.6v-11.6h3.4l0.1,1.5c0.6-1.1,1.5-1.7,2.5-1.7c0.4,0,0.7,0,1,0.1L37.8,247.8z
	 M44.5,256.3c-1.8,0-3.2-0.5-4.3-1.6c-1.1-1.1-1.7-2.4-1.7-4.2v-0.3c0-1.2,0.2-2.2,0.7-3.1c0.4-0.9,1.1-1.6,1.9-2.1
	c0.8-0.5,1.8-0.7,3-0.7c1.6,0,2.9,0.5,3.9,1.5c0.9,1,1.4,2.4,1.4,4.2v1.4h-7.2c0.1,0.7,0.4,1.2,0.8,1.5s1,0.6,1.7,0.6
	c1.1,0,2-0.4,2.7-1.2l1.7,2c-0.5,0.6-1.1,1.1-1.9,1.5C46.3,256.1,45.4,256.3,44.5,256.3z M44.1,247.1c-1.1,0-1.7,0.7-1.9,2.1h3.7
	v-0.3c0-0.6-0.1-1-0.4-1.3C45.1,247.2,44.7,247.1,44.1,247.1z M50.4,250.2c0-1.8,0.4-3.3,1.2-4.4s1.9-1.6,3.3-1.6
	c1,0,1.9,0.4,2.6,1.2v-5.9h3.6v16.5h-3.3l-0.2-1.2c-0.7,1-1.7,1.5-2.8,1.5c-1.4,0-2.5-0.5-3.3-1.6S50.4,252.2,50.4,250.2z M54,250.4
	c0,2.1,0.6,3.1,1.8,3.1c0.8,0,1.4-0.3,1.7-1v-4.4c-0.3-0.7-0.9-1-1.7-1c-1.1,0-1.7,0.9-1.8,2.7L54,250.4z M63.2,241.5
	c0-0.5,0.2-0.9,0.6-1.3s0.9-0.5,1.5-0.5s1.1,0.2,1.5,0.5s0.6,0.8,0.6,1.3s-0.2,0.9-0.6,1.3s-0.9,0.5-1.5,0.5s-1.1-0.2-1.5-0.5
	S63.2,242,63.2,241.5z M67,256.1h-3.6v-11.6H67V256.1z M73.5,241.6v2.9h1.9v2.5h-1.9v5.3c0,0.4,0.1,0.7,0.2,0.9s0.5,0.3,0.9,0.3
	c0.4,0,0.7,0,0.9-0.1v2.6c-0.7,0.2-1.3,0.3-2,0.3c-1.2,0-2.2-0.3-2.8-0.9c-0.6-0.6-0.9-1.5-0.9-2.7V247h-1.5v-2.5h1.5v-2.9H73.5z
	 M89.3,247.8l-1.2-0.1c-1.1,0-1.9,0.4-2.2,1.1v7.4h-3.6v-11.6h3.4l0.1,1.5c0.6-1.1,1.5-1.7,2.5-1.7c0.4,0,0.7,0,1,0.1L89.3,247.8z
	 M96,256.3c-1.8,0-3.2-0.5-4.3-1.6c-1.1-1.1-1.7-2.4-1.7-4.2v-0.3c0-1.2,0.2-2.2,0.7-3.1c0.4-0.9,1.1-1.6,1.9-2.1
	c0.8-0.5,1.8-0.7,3-0.7c1.6,0,2.9,0.5,3.9,1.5c0.9,1,1.4,2.4,1.4,4.2v1.4h-7.2c0.1,0.7,0.4,1.2,0.8,1.5s1,0.6,1.7,0.6
	c1.1,0,2-0.4,2.7-1.2l1.7,2c-0.5,0.6-1.1,1.1-1.9,1.5C97.9,256.1,97,256.3,96,256.3z M95.6,247.1c-1.1,0-1.7,0.7-1.9,2.1h3.7v-0.3
	c0-0.6-0.1-1-0.4-1.3C96.7,247.2,96.2,247.1,95.6,247.1z M113.2,250.4c0,1.8-0.4,3.2-1.2,4.3c-0.8,1.1-1.9,1.6-3.3,1.6
	c-1.1,0-1.9-0.4-2.6-1.2v5.4h-3.6v-16.1h3.4l0.1,1.1c0.7-0.9,1.6-1.3,2.7-1.3c1.4,0,2.5,0.5,3.3,1.6c0.8,1.1,1.2,2.5,1.2,4.4V250.4z
	 M109.6,250.2c0-2.1-0.6-3.1-1.8-3.1c-0.9,0-1.4,0.3-1.7,0.9v4.6c0.3,0.6,0.9,1,1.7,1c1.2,0,1.7-1,1.8-3V250.2z M114.3,250.2
	c0-1.2,0.2-2.2,0.7-3.1c0.5-0.9,1.1-1.6,1.9-2.1s1.8-0.7,3-0.7c1.7,0,3.1,0.5,4.1,1.6c1,1.1,1.5,2.5,1.5,4.4v0.1
	c0,1.8-0.5,3.2-1.5,4.3c-1,1.1-2.4,1.6-4.1,1.6c-1.7,0-3-0.5-4-1.5c-1-1-1.5-2.3-1.6-4L114.3,250.2z M118,250.4
	c0,1.1,0.2,1.9,0.5,2.4s0.8,0.8,1.5,0.8c1.3,0,1.9-1,2-3v-0.4c0-2.1-0.7-3.1-2-3.1c-1.2,0-1.9,0.9-2,2.7L118,250.4z M134.2,247.8
	l-1.2-0.1c-1.1,0-1.9,0.4-2.2,1.1v7.4h-3.6v-11.6h3.4l0.1,1.5c0.6-1.1,1.5-1.7,2.5-1.7c0.4,0,0.7,0,1,0.1L134.2,247.8z M140.2,241.6
	v2.9h1.9v2.5h-1.9v5.3c0,0.4,0.1,0.7,0.2,0.9s0.5,0.3,0.9,0.3c0.4,0,0.7,0,0.9-0.1v2.6c-0.7,0.2-1.3,0.3-2,0.3
	c-1.2,0-2.2-0.3-2.8-0.9c-0.6-0.6-0.9-1.5-0.9-2.7V247h-1.5v-2.5h1.5v-2.9H140.2z M43.1,274.3c-0.4-0.6-0.8-1.2-1-1.7
	c-0.2-0.5-0.4-1.1-0.4-1.7c0-1.3,0.4-2.3,1.2-3.1c0.8-0.8,1.9-1.2,3.2-1.2c1.2,0,2.2,0.4,2.9,1.1c0.8,0.7,1.2,1.6,1.2,2.7
	c0,1.3-0.7,2.5-2.2,3.5l-0.8,0.6l2.4,2.8c0.4-0.8,0.6-1.7,0.6-2.6h3c0,2.1-0.5,3.8-1.5,5.1l2.4,2.7h-4l-0.7-0.8
	c-0.6,0.4-1.2,0.6-1.8,0.8c-0.6,0.2-1.3,0.3-2.1,0.3c-1.5,0-2.8-0.4-3.7-1.2c-0.9-0.8-1.4-1.9-1.4-3.2c0-0.7,0.2-1.4,0.6-2
	C41.2,275.8,42,275.1,43.1,274.3L43.1,274.3z M45.7,279.9c0.6,0,1.2-0.1,1.8-0.4l-2.8-3.2l-0.1,0.1c-0.4,0.5-0.6,1.1-0.6,1.7
	c0,0.5,0.2,1,0.5,1.3S45.2,279.9,45.7,279.9z M44.8,270.8c0,0.5,0.3,1.1,0.8,1.8l0.7-0.5c0.3-0.2,0.6-0.4,0.7-0.7s0.2-0.5,0.2-0.9
	c0-0.3-0.1-0.6-0.3-0.9s-0.5-0.4-0.8-0.4c-0.4,0-0.7,0.1-0.9,0.4C44.9,270.1,44.8,270.4,44.8,270.8z M67.1,279.2
	c0-0.3-0.2-0.6-0.5-0.7s-0.9-0.4-1.8-0.6s-1.6-0.5-2.2-0.8c-0.6-0.3-1-0.7-1.3-1.2s-0.5-1-0.5-1.6c0-1.1,0.4-1.9,1.3-2.6
	c0.9-0.7,2-1,3.5-1c1.5,0,2.8,0.3,3.7,1s1.4,1.6,1.4,2.7H67c0-0.9-0.5-1.4-1.5-1.4c-0.4,0-0.7,0.1-1,0.3c-0.3,0.2-0.4,0.5-0.4,0.8
	c0,0.3,0.2,0.6,0.5,0.8s0.8,0.4,1.5,0.5c0.7,0.1,1.3,0.3,1.8,0.5c1.7,0.6,2.6,1.7,2.6,3.2c0,1.1-0.5,1.9-1.4,2.6
	c-0.9,0.7-2.2,1-3.7,1c-1,0-1.9-0.2-2.7-0.5s-1.4-0.8-1.8-1.5s-0.7-1.3-0.7-1.9h3.4c0,0.5,0.2,0.9,0.5,1.2c0.3,0.2,0.8,0.4,1.3,0.4
	c0.5,0,0.9-0.1,1.1-0.3C67,279.8,67.1,279.6,67.1,279.2z M77.2,279.9c0.5,0,0.9-0.1,1.2-0.4c0.3-0.3,0.4-0.7,0.4-1.2h3.4
	c0,1.3-0.5,2.3-1.4,3.1c-0.9,0.8-2.1,1.2-3.5,1.2c-1.7,0-3-0.5-4-1.6s-1.5-2.5-1.5-4.4v-0.2c0-1.2,0.2-2.2,0.7-3.1
	c0.4-0.9,1.1-1.6,1.9-2.1c0.8-0.5,1.8-0.7,2.9-0.7c1.5,0,2.7,0.4,3.6,1.3s1.3,2,1.3,3.4h-3.4c0-0.6-0.1-1.1-0.4-1.4
	s-0.7-0.5-1.2-0.5c-0.9,0-1.5,0.6-1.6,1.8c0,0.4-0.1,0.9-0.1,1.6c0,1.2,0.1,2,0.4,2.4S76.6,279.9,77.2,279.9z M83.3,276.6
	c0-1.2,0.2-2.2,0.7-3.1c0.5-0.9,1.1-1.6,1.9-2.1s1.8-0.7,3-0.7c1.7,0,3.1,0.5,4.1,1.6c1,1.1,1.5,2.5,1.5,4.4v0.1
	c0,1.8-0.5,3.2-1.5,4.3c-1,1.1-2.4,1.6-4.1,1.6c-1.7,0-3-0.5-4-1.5c-1-1-1.5-2.3-1.6-4L83.3,276.6z M86.9,276.8
	c0,1.1,0.2,1.9,0.5,2.4s0.8,0.8,1.5,0.8c1.3,0,1.9-1,2-3v-0.4c0-2.1-0.7-3.1-2-3.1c-1.2,0-1.9,0.9-2,2.7L86.9,276.8z M103.1,274.2
	l-1.2-0.1c-1.1,0-1.9,0.4-2.2,1.1v7.4h-3.6v-11.6h3.4l0.1,1.5c0.6-1.1,1.5-1.7,2.5-1.7c0.4,0,0.7,0,1,0.1L103.1,274.2z M109.8,282.7
	c-1.8,0-3.2-0.5-4.3-1.6c-1.1-1.1-1.7-2.4-1.7-4.2v-0.3c0-1.2,0.2-2.2,0.7-3.1c0.4-0.9,1.1-1.6,1.9-2.1c0.8-0.5,1.8-0.7,3-0.7
	c1.6,0,2.9,0.5,3.9,1.5c0.9,1,1.4,2.4,1.4,4.2v1.4h-7.2c0.1,0.7,0.4,1.2,0.8,1.5s1,0.6,1.7,0.6c1.1,0,2-0.4,2.7-1.2l1.7,2
	c-0.5,0.6-1.1,1.1-1.9,1.5C111.7,282.5,110.8,282.7,109.8,282.7z M109.4,273.5c-1.1,0-1.7,0.7-1.9,2.1h3.7v-0.3c0-0.6-0.1-1-0.4-1.3
	C110.5,273.6,110,273.5,109.4,273.5z M117.5,286.7l-1.8-0.9l0.4-0.7c0.5-0.9,0.8-1.8,0.8-2.7v-2.7h2.9l0,2.3c0,0.8-0.2,1.7-0.6,2.5
	S118.1,286.2,117.5,286.7z M50.5,297.3l0.1,1.4c0.8-1.1,1.9-1.6,3.3-1.6c1.5,0,2.5,0.6,3,1.8c0.8-1.2,1.9-1.8,3.4-1.8
	c2.4,0,3.6,1.4,3.6,4.3v7.6h-3.6v-7.3c0-0.6-0.1-1-0.3-1.3s-0.6-0.4-1.1-0.4c-0.7,0-1.2,0.3-1.6,1l0,0.2v7.9h-3.6v-7.3
	c0-0.6-0.1-1-0.3-1.3s-0.6-0.4-1.1-0.4c-0.7,0-1.2,0.3-1.6,1v8.1h-3.6v-11.6H50.5z M65.6,303c0-1.2,0.2-2.2,0.7-3.1
	c0.5-0.9,1.1-1.6,1.9-2.1s1.8-0.7,3-0.7c1.7,0,3.1,0.5,4.1,1.6c1,1.1,1.5,2.5,1.5,4.4v0.1c0,1.8-0.5,3.2-1.5,4.3
	c-1,1.1-2.4,1.6-4.1,1.6c-1.7,0-3-0.5-4-1.5c-1-1-1.5-2.3-1.6-4L65.6,303z M69.2,303.2c0,1.1,0.2,1.9,0.5,2.4s0.8,0.8,1.5,0.8
	c1.3,0,1.9-1,2-3V303c0-2.1-0.7-3.1-2-3.1c-1.2,0-1.9,0.9-2,2.7L69.2,303.2z M81.7,297.3l0.1,1.4c0.8-1.1,1.9-1.6,3.3-1.6
	c1.2,0,2.1,0.4,2.7,1.1c0.6,0.7,0.9,1.8,0.9,3.3v7.5h-3.6v-7.3c0-0.6-0.1-1-0.4-1.3c-0.2-0.3-0.7-0.4-1.3-0.4
	c-0.7,0-1.2,0.3-1.6,0.8v8.2h-3.6v-11.6H81.7z M95,294.4v2.9h1.9v2.5H95v5.3c0,0.4,0.1,0.7,0.2,0.9s0.5,0.3,0.9,0.3
	c0.4,0,0.7,0,0.9-0.1v2.6c-0.7,0.2-1.3,0.3-2,0.3c-1.2,0-2.2-0.3-2.8-0.9s-0.9-1.5-0.9-2.7v-5.8h-1.5v-2.5h1.5v-2.9H95z
	 M102.2,308.9h-3.6v-16.5h3.6V308.9z M109,303.8l1.9-6.6h3.9l-4.7,13.6l-0.2,0.5c-0.7,1.5-1.9,2.3-3.6,2.3c-0.5,0-1-0.1-1.5-0.2
	v-2.6h0.5c0.5,0,0.9-0.1,1.2-0.2c0.3-0.1,0.5-0.4,0.6-0.8l0.3-0.8l-4-11.7h3.9L109,303.8z"/>
</svg>
