<svg id="Layer_1" xmlns="http://www.w3.org/2000/svg" viewBox="0 0 300 600"><style>.st0{fill:#edf4fd}</style><path class="st0" d="M49.4 143v-22h6.8c1.9 0 3.7.4 5.2 1.3s2.7 2.1 3.6 3.7 1.3 3.4 1.3 5.5v1c0 2-.4 3.9-1.3 5.5-.8 1.6-2 2.8-3.6 3.7s-3.3 1.3-5.2 1.3h-6.8zm4.5-18.4v14.7h2.2c1.8 0 3.1-.6 4.1-1.7s1.4-2.8 1.4-5v-1.2c0-2.2-.5-3.9-1.4-5.1-.9-1.2-2.3-1.7-4.1-1.7h-2.2zM68.6 134.7c0-1.6.3-3.1.9-4.3s1.5-2.3 2.7-3c1.2-.7 2.5-1 4.1-1 2.2 0 4 .7 5.4 2 1.4 1.4 2.2 3.2 2.3 5.5v1.1c0 2.5-.7 4.5-2.1 6-1.4 1.5-3.3 2.3-5.6 2.3s-4.2-.8-5.7-2.3c-1.4-1.5-2.1-3.6-2.1-6.2v-.1zm4.4.3c0 1.6.3 2.7.9 3.6.6.8 1.4 1.2 2.5 1.2s1.9-.4 2.5-1.2c.6-.8.9-2.1.9-3.9 0-1.5-.3-2.7-.9-3.5-.6-.8-1.4-1.3-2.5-1.3s-1.9.4-2.5 1.3c-.7.7-.9 2-.9 3.8zM101 137l2.1-10.4h4.2l-4.2 16.4h-3.7l-3.1-10.3-2.9 10.3h-3.6l-4.2-16.4h4.2l2.1 10.4 3-10.4h3.2L101 137zM113.6 126.6l.1 1.9c1.2-1.5 2.7-2.2 4.7-2.2 1.7 0 3 .5 3.9 1.5.8 1 1.3 2.5 1.3 4.6V143h-4.4v-10.5c0-.9-.2-1.6-.6-2s-1.1-.6-2-.6c-1.2 0-2.2.5-2.8 1.6V143h-4.4v-16.4h4.2zM131.6 143h-4.4v-23.2h4.4V143zM134.5 134.7c0-1.6.3-3.1.9-4.3s1.5-2.3 2.7-3c1.2-.7 2.5-1 4.1-1 2.2 0 4 .7 5.4 2 1.4 1.4 2.2 3.2 2.3 5.5v1.1c0 2.5-.7 4.5-2.1 6-1.4 1.5-3.3 2.3-5.6 2.3s-4.2-.8-5.7-2.3c-1.4-1.5-2.1-3.6-2.1-6.2v-.1zm4.3.3c0 1.6.3 2.7.9 3.6.6.8 1.4 1.2 2.5 1.2s1.9-.4 2.5-1.2c.6-.8.9-2.1.9-3.9 0-1.5-.3-2.7-.9-3.5-.6-.8-1.4-1.3-2.5-1.3s-1.9.4-2.5 1.3c-.6.7-.9 2-.9 3.8zM162.2 143c-.2-.4-.3-.9-.4-1.5-1.1 1.2-2.4 1.8-4.1 1.8-1.6 0-2.9-.5-4-1.4-1.1-.9-1.6-2.1-1.6-3.5 0-1.7.6-3.1 1.9-4 1.3-.9 3.1-1.4 5.6-1.4h2v-.9c0-.8-.2-1.4-.6-1.8-.4-.5-1-.7-1.8-.7-.7 0-1.3.2-1.7.5-.4.4-.6.8-.6 1.5h-4.4c0-.9.3-1.8.9-2.6.6-.8 1.4-1.4 2.5-1.9s2.3-.7 3.6-.7c2 0 3.6.5 4.8 1.5 1.2 1 1.8 2.4 1.8 4.3v7.1c0 1.6.2 2.7.7 3.5v.3h-4.6zm-3.6-3c.6 0 1.2-.1 1.8-.4.5-.3.9-.7 1.2-1.2v-2.8H160c-2.2 0-3.4.8-3.5 2.3v.3c0 .5.2 1 .6 1.3.3.3.8.5 1.5.5zM168.6 134.7c0-2.6.6-4.6 1.7-6.1s2.7-2.3 4.7-2.3c1.6 0 2.9.6 4 1.8v-8.4h4.4V143h-4l-.2-1.7c-1.1 1.4-2.5 2-4.2 2-1.9 0-3.5-.8-4.6-2.3-1.2-1.5-1.8-3.6-1.8-6.3zm4.4.3c0 1.5.3 2.7.8 3.5.5.8 1.3 1.2 2.3 1.2 1.4 0 2.3-.6 2.9-1.7v-6.5c-.5-1.1-1.5-1.7-2.8-1.7-2.2.1-3.2 1.8-3.2 5.2zM210.5 124.6h-6.8V143h-4.5v-18.4h-6.7V121h18v3.6zM217 128.4c1.2-1.4 2.6-2.1 4.4-2.1 3.6 0 5.4 2.1 5.4 6.2V143h-4.4v-10.4c0-.9-.2-1.6-.6-2.1-.4-.4-1.1-.7-2-.7-1.3 0-2.2.5-2.8 1.5V143h-4.4v-23.2h4.4v8.6zM237.6 143.3c-2.4 0-4.4-.7-5.9-2.2s-2.3-3.4-2.3-5.9v-.4c0-1.6.3-3.1 1-4.4.6-1.3 1.5-2.3 2.7-3 1.2-.7 2.5-1.1 4-1.1 2.2 0 4 .7 5.3 2.1 1.3 1.4 1.9 3.4 1.9 6v1.8H234c.1 1.1.6 1.9 1.3 2.6.7.6 1.6 1 2.7 1 1.7 0 3-.6 4-1.8l2.1 2.4c-.7.9-1.5 1.7-2.7 2.2-1.2.4-2.4.7-3.8.7zm-.5-13.5c-.9 0-1.6.3-2.1.9-.5.6-.9 1.4-1 2.5h6.1v-.3c0-1-.3-1.7-.8-2.3s-1.2-.8-2.2-.8zM28 171.2v7.8h-4.5v-22h8.6c1.7 0 3.1.3 4.4.9 1.3.6 2.2 1.5 2.9 2.6s1 2.4 1 3.8c0 2.2-.7 3.9-2.2 5.1-1.5 1.2-3.5 1.9-6.1 1.9H28zm0-3.6h4.1c1.2 0 2.1-.3 2.7-.8s.9-1.4.9-2.4c0-1.1-.3-2-1-2.6-.6-.7-1.5-1-2.6-1H28v6.8zM52.4 166.7c-.6-.1-1.1-.1-1.6-.1-1.7 0-2.7.6-3.3 1.7V179h-4.4v-16.4h4.1l.1 2c.9-1.5 2.1-2.3 3.6-2.3.5 0 .9.1 1.4.2l.1 4.2zM54.4 158.4c0-.7.2-1.2.7-1.6.4-.4 1-.6 1.8-.6.7 0 1.3.2 1.8.6.4.4.7 1 .7 1.6 0 .7-.2 1.2-.7 1.6-.4.4-1 .6-1.8.6-.7 0-1.3-.2-1.8-.6s-.7-1-.7-1.6zm4.7 20.6h-4.4v-16.4h4.4V179zM68.8 173.7l3-11h4.6L70.9 179h-4.2l-5.5-16.4h4.6l3 11.1zM87.6 179c-.2-.4-.3-.9-.4-1.5-1.1 1.2-2.4 1.8-4.1 1.8-1.6 0-2.9-.5-4-1.4-1.1-.9-1.6-2.1-1.6-3.5 0-1.7.6-3.1 1.9-4 1.3-.9 3.1-1.4 5.6-1.4h2v-.9c0-.8-.2-1.4-.6-1.8-.4-.5-1-.7-1.8-.7-.7 0-1.3.2-1.7.5-.4.4-.6.8-.6 1.5h-4.4c0-.9.3-1.8.9-2.6.6-.8 1.4-1.4 2.5-1.9s2.3-.7 3.6-.7c2 0 3.6.5 4.8 1.5 1.2 1 1.8 2.4 1.8 4.3v7.1c0 1.6.2 2.7.7 3.5v.3h-4.6zm-3.6-3c.6 0 1.2-.1 1.8-.4.5-.3.9-.7 1.2-1.2v-2.8h-1.6c-2.2 0-3.4.8-3.5 2.3v.3c0 .5.2 1 .6 1.3.3.3.8.5 1.5.5zM101.6 175.8c.8 0 1.5-.2 2-.7.5-.4.8-1 .8-1.8h4.1c0 1.1-.3 2.1-.9 3-.6.9-1.4 1.6-2.4 2.1s-2.2.8-3.4.8c-2.3 0-4.2-.7-5.5-2.2s-2-3.5-2-6.2v-.3c0-2.5.7-4.5 2-6s3.2-2.3 5.5-2.3c2 0 3.7.6 4.9 1.7 1.2 1.2 1.9 2.7 1.9 4.7h-4.1c0-.9-.3-1.5-.8-2.1-.5-.5-1.2-.8-2-.8-1 0-1.8.4-2.3 1.1-.5.7-.8 1.9-.8 3.6v.5c0 1.7.3 2.9.8 3.6.3.9 1.1 1.3 2.2 1.3zM117 172.8l3-10.2h4.7l-6.6 18.9-.4.9c-1 2.1-2.6 3.2-4.8 3.2-.6 0-1.3-.1-1.9-.3V182h.7c.8 0 1.4-.1 1.9-.4.4-.3.7-.7 1-1.3l.5-1.3-5.7-16.4h4.7l2.9 10.2zM144.2 176.2c-.8 1-2 1.7-3.5 2.3-1.5.5-3.1.8-5 .8s-3.6-.4-5-1.2c-1.4-.8-2.5-2-3.3-3.6s-1.2-3.4-1.2-5.6v-1.5c0-2.2.4-4.1 1.1-5.7.7-1.6 1.8-2.8 3.2-3.7s3-1.3 4.9-1.3c2.6 0 4.7.6 6.1 1.9 1.5 1.2 2.3 3.1 2.6 5.4h-4.4c-.2-1.3-.6-2.2-1.3-2.8s-1.6-.9-2.9-.9c-1.5 0-2.7.6-3.5 1.7-.8 1.2-1.2 2.9-1.2 5.2v1.4c0 2.3.4 4.1 1.3 5.2s2.2 1.8 3.9 1.8c1.7 0 2.9-.4 3.6-1.1v-3.8h-4.1v-3.3h8.7v8.8zM157.4 177.3c-1.1 1.3-2.6 2-4.5 2-1.8 0-3.1-.5-4-1.5-.9-1-1.4-2.5-1.4-4.4v-10.7h4.4v10.6c0 1.7.8 2.6 2.3 2.6 1.5 0 2.5-.5 3.1-1.5v-11.6h4.4V179h-4.1l-.2-1.7zM174.4 179c-.2-.4-.3-.9-.4-1.5-1.1 1.2-2.4 1.8-4.1 1.8-1.6 0-2.9-.5-4-1.4-1.1-.9-1.6-2.1-1.6-3.5 0-1.7.6-3.1 1.9-4 1.3-.9 3.1-1.4 5.6-1.4h2v-.9c0-.8-.2-1.4-.6-1.8-.4-.5-1-.7-1.8-.7-.7 0-1.3.2-1.7.5-.4.4-.6.8-.6 1.5h-4.4c0-.9.3-1.8.9-2.6.6-.8 1.4-1.4 2.5-1.9s2.3-.7 3.6-.7c2 0 3.6.5 4.8 1.5 1.2 1 1.8 2.4 1.8 4.3v7.1c0 1.6.2 2.7.7 3.5v.3h-4.6zm-3.6-3c.6 0 1.2-.1 1.8-.4.5-.3.9-.7 1.2-1.2v-2.8h-1.6c-2.2 0-3.4.8-3.5 2.3v.3c0 .5.2 1 .6 1.3.3.3.8.5 1.5.5zM190.8 166.7c-.6-.1-1.1-.1-1.6-.1-1.7 0-2.7.6-3.3 1.7V179h-4.4v-16.4h4.1l.1 2c.9-1.5 2.1-2.3 3.6-2.3.5 0 .9.1 1.4.2l.1 4.2zM191.9 170.7c0-2.6.6-4.6 1.7-6.1s2.7-2.3 4.7-2.3c1.6 0 2.9.6 4 1.8v-8.4h4.4V179h-4l-.2-1.7c-1.1 1.4-2.5 2-4.2 2-1.9 0-3.5-.8-4.6-2.3-1.2-1.5-1.8-3.6-1.8-6.3zm4.4.3c0 1.5.3 2.7.8 3.5.5.8 1.3 1.2 2.3 1.2 1.4 0 2.3-.6 2.9-1.7v-6.5c-.5-1.1-1.5-1.7-2.8-1.7-2.2.1-3.2 1.8-3.2 5.2zM230.5 174.5h-8L221 179h-4.8l8.2-22h4.2l8.2 22H232l-1.5-4.5zm-6.7-3.7h5.5l-2.8-8.2-2.7 8.2zM252.6 171c0 2.5-.6 4.5-1.7 6.1-1.1 1.5-2.7 2.3-4.6 2.3-1.7 0-3-.6-4-1.7v7.7h-4.4v-22.7h4.1l.2 1.6c1.1-1.3 2.4-1.9 4.1-1.9 2 0 3.6.7 4.7 2.2s1.7 3.6 1.7 6.2v.2zm-4.3-.4c0-1.5-.3-2.7-.8-3.5-.5-.8-1.3-1.2-2.4-1.2-1.4 0-2.3.5-2.8 1.6v6.7c.5 1.1 1.5 1.6 2.9 1.6 2 0 3.1-1.7 3.1-5.2zM270.1 171c0 2.5-.6 4.5-1.7 6.1-1.1 1.5-2.7 2.3-4.6 2.3-1.7 0-3-.6-4-1.7v7.7h-4.4v-22.7h4.1l.2 1.6c1.1-1.3 2.4-1.9 4.1-1.9 2 0 3.6.7 4.7 2.2s1.7 3.6 1.7 6.2v.2zm-4.4-.4c0-1.5-.3-2.7-.8-3.5-.5-.8-1.3-1.2-2.4-1.2-1.4 0-2.3.5-2.8 1.6v6.7c.5 1.1 1.5 1.6 2.9 1.6 2.1 0 3.1-1.7 3.1-5.2zM52 194.6v4h2.8v3.2H52v8.2c0 .6.1 1 .3 1.3s.7.4 1.3.4c.5 0 .9 0 1.3-.1v3.3c-.9.3-1.7.4-2.6.4-3.1 0-4.6-1.5-4.7-4.6v-8.8h-2.4v-3.2h2.4v-4H52zM56.1 206.7c0-1.6.3-3.1.9-4.3s1.5-2.3 2.7-3c1.2-.7 2.5-1 4.1-1 2.2 0 4 .7 5.4 2 1.4 1.4 2.2 3.2 2.3 5.5v1.1c0 2.5-.7 4.5-2.1 6-1.4 1.5-3.3 2.3-5.6 2.3s-4.2-.8-5.7-2.3c-1.4-1.5-2.1-3.6-2.1-6.2v-.1zm4.4.3c0 1.6.3 2.7.9 3.6.6.8 1.4 1.2 2.5 1.2s1.9-.4 2.5-1.2c.6-.8.9-2.1.9-3.9 0-1.5-.3-2.7-.9-3.5-.6-.8-1.4-1.3-2.5-1.3s-1.9.4-2.5 1.3c-.6.7-.9 2-.9 3.8zM86.3 200.4c1.2-1.4 2.6-2.1 4.4-2.1 3.6 0 5.4 2.1 5.4 6.2V215h-4.4v-10.4c0-.9-.2-1.6-.6-2.1-.4-.4-1.1-.7-2-.7-1.3 0-2.2.5-2.8 1.5V215H82v-23.2h4.4v8.6zM107 215.3c-2.4 0-4.4-.7-5.9-2.2s-2.3-3.4-2.3-5.9v-.4c0-1.6.3-3.1 1-4.4.6-1.3 1.5-2.3 2.7-3 1.2-.7 2.5-1.1 4-1.1 2.2 0 4 .7 5.3 2.1 1.3 1.4 1.9 3.4 1.9 6v1.8h-10.4c.1 1.1.6 1.9 1.3 2.6.7.6 1.6 1 2.7 1 1.7 0 3-.6 4-1.8l2.1 2.4c-.7.9-1.5 1.7-2.7 2.2-1.1.4-2.4.7-3.7.7zm-.5-13.5c-.9 0-1.6.3-2.1.9-.5.6-.9 1.4-1 2.5h6.1v-.3c0-1-.3-1.7-.8-2.3s-1.3-.8-2.2-.8zM120.8 215h-4.4v-23.2h4.4V215zM139.1 207c0 2.5-.6 4.5-1.7 6.1-1.1 1.5-2.7 2.3-4.6 2.3-1.7 0-3-.6-4-1.7v7.7h-4.4v-22.7h4.1l.2 1.6c1.1-1.3 2.4-1.9 4.1-1.9 2 0 3.6.7 4.7 2.2s1.7 3.6 1.7 6.2v.2zm-4.3-.4c0-1.5-.3-2.7-.8-3.5-.5-.8-1.3-1.2-2.4-1.2-1.4 0-2.3.5-2.8 1.6v6.7c.5 1.1 1.5 1.6 2.9 1.6 2 0 3.1-1.7 3.1-5.2zM164.3 207c0 2.5-.6 4.5-1.7 6.1-1.1 1.5-2.7 2.3-4.6 2.3-1.7 0-3-.6-4-1.7v7.7h-4.4v-22.7h4.1l.2 1.6c1.1-1.3 2.4-1.9 4.1-1.9 2 0 3.6.7 4.7 2.2s1.7 3.6 1.7 6.2v.2zm-4.4-.4c0-1.5-.3-2.7-.8-3.5-.5-.8-1.3-1.2-2.4-1.2-1.4 0-2.3.5-2.8 1.6v6.7c.5 1.1 1.5 1.6 2.9 1.6 2.1 0 3.1-1.7 3.1-5.2zM176.2 202.7c-.6-.1-1.1-.1-1.6-.1-1.7 0-2.7.6-3.3 1.7V215H167v-16.4h4.1l.1 2c.9-1.5 2.1-2.3 3.6-2.3.5 0 .9.1 1.4.2v4.2zM177.1 206.7c0-1.6.3-3.1.9-4.3s1.5-2.3 2.7-3c1.2-.7 2.5-1 4.1-1 2.2 0 4 .7 5.4 2 1.4 1.4 2.2 3.2 2.3 5.5v1.1c0 2.5-.7 4.5-2.1 6-1.4 1.5-3.3 2.3-5.6 2.3s-4.2-.8-5.7-2.3c-1.4-1.5-2.1-3.6-2.1-6.2v-.1zm4.4.3c0 1.6.3 2.7.9 3.6.6.8 1.4 1.2 2.5 1.2s1.9-.4 2.5-1.2c.6-.8.9-2.1.9-3.9 0-1.5-.3-2.7-.9-3.5-.6-.8-1.4-1.3-2.5-1.3s-1.9.4-2.5 1.3c-.6.7-.9 2-.9 3.8zM200.5 194.6v4h2.8v3.2h-2.8v8.2c0 .6.1 1 .3 1.3s.7.4 1.3.4c.5 0 .9 0 1.3-.1v3.3c-.9.3-1.7.4-2.6.4-3.1 0-4.6-1.5-4.7-4.6v-8.8h-2.4v-3.2h2.4v-4h4.4zM213.3 215.3c-2.4 0-4.4-.7-5.9-2.2s-2.3-3.4-2.3-5.9v-.4c0-1.6.3-3.1 1-4.4.6-1.3 1.5-2.3 2.7-3 1.2-.7 2.5-1.1 4-1.1 2.2 0 4 .7 5.3 2.1 1.3 1.4 1.9 3.4 1.9 6v1.8h-10.4c.1 1.1.6 1.9 1.3 2.6.7.6 1.6 1 2.7 1 1.7 0 3-.6 4-1.8l2.1 2.4c-.7.9-1.5 1.7-2.7 2.2-1.1.4-2.3.7-3.7.7zm-.5-13.5c-.9 0-1.6.3-2.1.9-.5.6-.9 1.4-1 2.5h6.1v-.3c0-1-.3-1.7-.8-2.3s-1.3-.8-2.2-.8zM229.3 211.8c.8 0 1.5-.2 2-.7.5-.4.8-1 .8-1.8h4.1c0 1.1-.3 2.1-.9 3-.6.9-1.4 1.6-2.4 2.1s-2.2.8-3.4.8c-2.3 0-4.2-.7-5.5-2.2s-2-3.5-2-6.2v-.3c0-2.5.7-4.5 2-6s3.2-2.3 5.5-2.3c2 0 3.7.6 4.9 1.7 1.2 1.2 1.9 2.7 1.9 4.7h-4.1c0-.9-.3-1.5-.8-2.1-.5-.5-1.2-.8-2-.8-1 0-1.8.4-2.3 1.1-.5.7-.8 1.9-.8 3.6v.5c0 1.7.3 2.9.8 3.6.4.9 1.2 1.3 2.2 1.3zM243.9 194.6v4h2.8v3.2h-2.8v8.2c0 .6.1 1 .3 1.3s.7.4 1.3.4c.5 0 .9 0 1.3-.1v3.3c-.9.3-1.7.4-2.6.4-3.1 0-4.6-1.5-4.7-4.6v-8.8h-2.4v-3.2h2.4v-4h4.4zM49.9 251c-.2-.4-.3-.9-.4-1.5-1.1 1.2-2.4 1.8-4.1 1.8-1.6 0-2.9-.5-4-1.4-1.1-.9-1.6-2.1-1.6-3.5 0-1.7.6-3.1 1.9-4 1.3-.9 3.1-1.4 5.6-1.4h2v-.9c0-.8-.2-1.4-.6-1.8-.4-.5-1-.7-1.8-.7-.7 0-1.3.2-1.7.5-.4.4-.6.8-.6 1.5h-4.4c0-.9.3-1.8.9-2.6.6-.8 1.4-1.4 2.5-1.9s2.3-.7 3.6-.7c2 0 3.6.5 4.8 1.5 1.2 1 1.8 2.4 1.8 4.3v7.1c0 1.6.2 2.7.7 3.5v.3h-4.6zm-3.6-3c.6 0 1.2-.1 1.8-.4.5-.3.9-.7 1.2-1.2v-2.8h-1.6c-2.2 0-3.4.8-3.5 2.3v.3c0 .5.2 1 .6 1.3.3.3.8.5 1.5.5zM56.4 242.7c0-2.5.6-4.5 1.8-6.1 1.2-1.5 2.8-2.3 4.8-2.3 1.8 0 3.2.6 4.2 1.8l.2-1.5h4v15.8c0 1.4-.3 2.7-1 3.7-.7 1.1-1.6 1.9-2.7 2.4-1.2.6-2.6.8-4.1.8-1.2 0-2.4-.2-3.5-.7-1.1-.5-2-1.1-2.6-1.9l1.9-2.7c1.1 1.2 2.4 1.8 4 1.8 1.2 0 2.1-.3 2.7-.9.6-.6 1-1.5 1-2.6v-.9c-1 1.1-2.3 1.7-4 1.7-2 0-3.6-.8-4.8-2.3-1.2-1.5-1.8-3.6-1.8-6.1zm4.4.3c0 1.5.3 2.7.9 3.5.6.8 1.4 1.3 2.5 1.3 1.3 0 2.3-.5 2.9-1.5v-6.9c-.6-1-1.5-1.5-2.8-1.5-1 0-1.9.4-2.5 1.3-.7.8-1 2.1-1 3.8zM84.2 251c-.2-.4-.3-.9-.4-1.5-1.1 1.2-2.4 1.8-4.1 1.8-1.6 0-2.9-.5-4-1.4-1.1-.9-1.6-2.1-1.6-3.5 0-1.7.6-3.1 1.9-4 1.3-.9 3.1-1.4 5.6-1.4h2v-.9c0-.8-.2-1.4-.6-1.8-.4-.5-1-.7-1.8-.7-.7 0-1.3.2-1.7.5-.4.4-.6.8-.6 1.5h-4.4c0-.9.3-1.8.9-2.6.6-.8 1.4-1.4 2.5-1.9s2.3-.7 3.6-.7c2 0 3.6.5 4.8 1.5 1.2 1 1.8 2.4 1.8 4.3v7.1c0 1.6.2 2.7.7 3.5v.3h-4.6zm-3.6-3c.6 0 1.2-.1 1.8-.4.5-.3.9-.7 1.2-1.2v-2.8H82c-2.2 0-3.4.8-3.5 2.3v.3c0 .5.2 1 .6 1.3.3.3.8.5 1.5.5zM91.3 230.4c0-.7.2-1.2.7-1.6.4-.4 1-.6 1.8-.6.7 0 1.3.2 1.8.6.4.4.7 1 .7 1.6 0 .7-.2 1.2-.7 1.6-.4.4-1 .6-1.8.6-.7 0-1.3-.2-1.8-.6s-.7-1-.7-1.6zm4.6 20.6h-4.4v-16.4h4.4V251zM103.6 234.6l.1 1.9c1.2-1.5 2.7-2.2 4.7-2.2 1.7 0 3 .5 3.9 1.5.8 1 1.3 2.5 1.3 4.6V251h-4.4v-10.5c0-.9-.2-1.6-.6-2s-1.1-.6-2-.6c-1.2 0-2.2.5-2.8 1.6V251h-4.4v-16.4h4.2zM125.8 246.5c0-.5-.3-1-.8-1.3-.5-.3-1.4-.6-2.6-.8-3.9-.8-5.8-2.5-5.8-5 0-1.5.6-2.7 1.8-3.6s2.8-1.5 4.7-1.5c2.1 0 3.7.5 5 1.5 1.2 1 1.9 2.3 1.9 3.8h-4.4c0-.6-.2-1.1-.6-1.6-.4-.4-1-.6-1.9-.6-.7 0-1.3.2-1.7.5-.4.3-.6.8-.6 1.3s.2.9.7 1.2 1.2.6 2.3.8c1.1.2 2 .5 2.8.7 2.3.8 3.5 2.3 3.5 4.4 0 1.5-.6 2.7-1.9 3.6-1.3.9-2.9 1.4-5 1.4-1.4 0-2.6-.2-3.7-.7s-1.9-1.2-2.5-2-.9-1.8-.9-2.8h4.1c0 .8.3 1.4.9 1.8.5.4 1.3.6 2.2.6.8 0 1.5-.2 1.9-.5.4-.3.6-.7.6-1.2zM138.1 230.6v4h2.8v3.2h-2.8v8.2c0 .6.1 1 .3 1.3s.7.4 1.3.4c.5 0 .9 0 1.3-.1v3.3c-.9.3-1.7.4-2.6.4-3.1 0-4.6-1.5-4.7-4.6v-8.8h-2.4v-3.2h2.4v-4h4.4zM151 230.4c0-.7.2-1.2.7-1.6.4-.4 1-.6 1.8-.6.7 0 1.3.2 1.8.6.4.4.7 1 .7 1.6 0 .7-.2 1.2-.7 1.6-.4.4-1 .6-1.8.6-.7 0-1.3-.2-1.8-.6s-.7-1-.7-1.6zm4.7 20.6h-4.4v-16.4h4.4V251zM158.6 242.7c0-2.6.6-4.6 1.7-6.1s2.7-2.3 4.7-2.3c1.6 0 2.9.6 4 1.8v-8.4h4.4V251h-4l-.2-1.7c-1.1 1.4-2.5 2-4.2 2-1.9 0-3.5-.8-4.6-2.3-1.2-1.5-1.8-3.6-1.8-6.3zm4.4.3c0 1.5.3 2.7.8 3.5.5.8 1.3 1.2 2.3 1.2 1.4 0 2.3-.6 2.9-1.7v-6.5c-.5-1.1-1.5-1.7-2.8-1.7-2.2.1-3.2 1.8-3.2 5.2zM184.3 251.3c-2.4 0-4.4-.7-5.9-2.2s-2.3-3.4-2.3-5.9v-.4c0-1.6.3-3.1 1-4.4.6-1.3 1.5-2.3 2.7-3 1.2-.7 2.5-1.1 4-1.1 2.2 0 4 .7 5.3 2.1 1.3 1.4 1.9 3.4 1.9 6v1.8h-10.4c.1 1.1.6 1.9 1.3 2.6.7.6 1.6 1 2.7 1 1.7 0 3-.6 4-1.8l2.1 2.4c-.7.9-1.5 1.7-2.7 2.2-1.1.4-2.4.7-3.7.7zm-.5-13.5c-.9 0-1.6.3-2.1.9-.5.6-.9 1.4-1 2.5h6.1v-.3c0-1-.3-1.7-.8-2.3s-1.3-.8-2.2-.8zM197.5 234.6l.1 1.9c1.2-1.5 2.7-2.2 4.7-2.2 1.7 0 3 .5 3.9 1.5.8 1 1.3 2.5 1.3 4.6V251h-4.4v-10.5c0-.9-.2-1.6-.6-2s-1.1-.6-2-.6c-1.2 0-2.2.5-2.8 1.6V251h-4.4v-16.4h4.2zM216.1 230.6v4h2.8v3.2h-2.8v8.2c0 .6.1 1 .3 1.3s.7.4 1.3.4c.5 0 .9 0 1.3-.1v3.3c-.9.3-1.7.4-2.6.4-3.1 0-4.6-1.5-4.7-4.6v-8.8h-2.4v-3.2h2.4v-4h4.4zM221.3 230.4c0-.7.2-1.2.7-1.6.4-.4 1-.6 1.8-.6.7 0 1.3.2 1.8.6.4.4.7 1 .7 1.6 0 .7-.2 1.2-.7 1.6-.4.4-1 .6-1.8.6-.7 0-1.3-.2-1.8-.6s-.7-1-.7-1.6zm4.6 20.6h-4.4v-16.4h4.4V251zM234.8 230.6v4h2.8v3.2h-2.8v8.2c0 .6.1 1 .3 1.3s.7.4 1.3.4c.5 0 .9 0 1.3-.1v3.3c-.9.3-1.7.4-2.6.4-3.1 0-4.6-1.5-4.7-4.6v-8.8H228v-3.2h2.4v-4h4.4zM246.1 244.8l3-10.2h4.7l-6.6 18.9-.4.9c-1 2.1-2.6 3.2-4.8 3.2-.6 0-1.3-.1-1.9-.3V254h.7c.8 0 1.4-.1 1.9-.4.4-.3.7-.7 1-1.3l.5-1.3-5.7-16.4h4.7l2.9 10.2zM78.4 266.6v4h2.8v3.2h-2.8v8.2c0 .6.1 1 .3 1.3s.7.4 1.3.4c.5 0 .9 0 1.3-.1v3.3c-.9.3-1.7.4-2.6.4-3.1 0-4.6-1.5-4.7-4.6v-8.8h-2.4v-3.2H74v-4h4.4zM87.9 272.4c1.2-1.4 2.6-2.1 4.4-2.1 3.6 0 5.4 2.1 5.4 6.2V287h-4.4v-10.4c0-.9-.2-1.6-.6-2.1-.4-.4-1.1-.7-2-.7-1.3 0-2.2.5-2.8 1.5V287h-4.4v-23.2h4.4v8.6zM108.5 287.3c-2.4 0-4.4-.7-5.9-2.2s-2.3-3.4-2.3-5.9v-.4c0-1.6.3-3.1 1-4.4.6-1.3 1.5-2.3 2.7-3 1.2-.7 2.5-1.1 4-1.1 2.2 0 4 .7 5.3 2.1 1.3 1.4 1.9 3.4 1.9 6v1.8h-10.4c.1 1.1.6 1.9 1.3 2.6.7.6 1.6 1 2.7 1 1.7 0 3-.6 4-1.8l2.1 2.4c-.7.9-1.5 1.7-2.7 2.2-1.1.4-2.3.7-3.7.7zm-.5-13.5c-.9 0-1.6.3-2.1.9-.5.6-.9 1.4-1 2.5h6.1v-.3c0-1-.3-1.7-.8-2.3s-1.2-.8-2.2-.8zM119 287v-13.2h-2.4v-3.2h2.4v-1.4c0-1.8.5-3.3 1.6-4.3s2.5-1.5 4.4-1.5c.6 0 1.3.1 2.2.3v3.4c-.4-.1-.8-.1-1.3-.1-1.6 0-2.5.8-2.5 2.3v1.3h3.3v3.2h-3.3V287H119zM134.1 266.6v4h2.8v3.2h-2.8v8.2c0 .6.1 1 .3 1.3s.7.4 1.3.4c.5 0 .9 0 1.3-.1v3.3c-.9.3-1.7.4-2.6.4-3.1 0-4.6-1.5-4.7-4.6v-8.8h-2.4v-3.2h2.4v-4h4.4zM152.3 266.6v4h2.8v3.2h-2.8v8.2c0 .6.1 1 .3 1.3s.7.4 1.3.4c.5 0 .9 0 1.3-.1v3.3c-.9.3-1.7.4-2.6.4-3.1 0-4.6-1.5-4.7-4.6v-8.8h-2.4v-3.2h2.4v-4h4.4zM156.4 278.7c0-1.6.3-3.1.9-4.3s1.5-2.3 2.7-3c1.2-.7 2.5-1 4.1-1 2.2 0 4 .7 5.4 2 1.4 1.4 2.2 3.2 2.3 5.5v1.1c0 2.5-.7 4.5-2.1 6-1.4 1.5-3.3 2.3-5.6 2.3s-4.2-.8-5.7-2.3c-1.4-1.5-2.1-3.6-2.1-6.2v-.1zm4.4.3c0 1.6.3 2.7.9 3.6.6.8 1.4 1.2 2.5 1.2s1.9-.4 2.5-1.2c.6-.8.9-2.1.9-3.9 0-1.5-.3-2.7-.9-3.5-.6-.8-1.4-1.3-2.5-1.3s-1.9.4-2.5 1.3c-.6.7-.9 2-.9 3.8zM173.9 278.7c0-2.6.6-4.6 1.7-6.1s2.7-2.3 4.7-2.3c1.6 0 2.9.6 4 1.8v-8.4h4.4V287h-4l-.2-1.7c-1.1 1.4-2.5 2-4.2 2-1.9 0-3.5-.8-4.6-2.3-1.2-1.5-1.8-3.6-1.8-6.3zm4.4.3c0 1.5.3 2.7.8 3.5.5.8 1.3 1.2 2.3 1.2 1.4 0 2.3-.6 2.9-1.7v-6.5c-.5-1.1-1.5-1.7-2.8-1.7-2.1.1-3.2 1.8-3.2 5.2zM201.6 287c-.2-.4-.3-.9-.4-1.5-1.1 1.2-2.4 1.8-4.1 1.8-1.6 0-2.9-.5-4-1.4-1.1-.9-1.6-2.1-1.6-3.5 0-1.7.6-3.1 1.9-4 1.3-.9 3.1-1.4 5.6-1.4h2v-.9c0-.8-.2-1.4-.6-1.8-.4-.5-1-.7-1.8-.7-.7 0-1.3.2-1.7.5-.4.4-.6.8-.6 1.5h-4.4c0-.9.3-1.8.9-2.6.6-.8 1.4-1.4 2.5-1.9s2.3-.7 3.6-.7c2 0 3.6.5 4.8 1.5 1.2 1 1.8 2.4 1.8 4.3v7.1c0 1.6.2 2.7.7 3.5v.3h-4.6zm-3.6-3c.6 0 1.2-.1 1.8-.4.5-.3.9-.7 1.2-1.2v-2.8h-1.6c-2.2 0-3.4.8-3.5 2.3v.3c0 .5.2 1 .6 1.3.3.3.8.5 1.5.5zM214.6 280.8l3-10.2h4.7l-6.6 18.9-.4.9c-1 2.1-2.6 3.2-4.8 3.2-.6 0-1.3-.1-1.9-.3V290h.7c.8 0 1.4-.1 1.9-.4.4-.3.7-.7 1-1.3l.5-1.3-5.7-16.4h4.7l2.9 10.2zM221.7 284.8c0-.7.2-1.3.7-1.7.5-.4 1.1-.7 1.8-.7s1.3.2 1.8.7c.5.4.7 1 .7 1.7s-.2 1.2-.7 1.7c-.5.4-1.1.6-1.8.6s-1.3-.2-1.8-.6-.7-1-.7-1.7z"/><g><path class="st0" d="M74.8 475.1c0-.4-.1-.7-.3-.9-.2-.2-.6-.4-1.1-.6s-.9-.4-1.2-.5c-1-.5-1.5-1.3-1.5-2.3 0-.7.2-1.3.6-1.7s1-.7 1.7-.8v-1.4h1v1.4c.7.1 1.3.4 1.7.9s.6 1.2.6 2h-1.5c0-.5-.1-1-.4-1.3-.2-.3-.6-.5-1-.5s-.7.1-1 .3-.3.5-.3.9.1.7.3.9c.2.2.6.4 1.2.6s1 .4 1.3.6c.3.2.6.4.8.6s.4.5.5.8c.1.3.2.6.2 1 0 .7-.2 1.3-.7 1.7-.4.4-1 .7-1.8.8v1.2h-1v-1.2c-.8-.1-1.5-.4-1.9-.9-.5-.5-.7-1.2-.7-2h1.5c0 .5.1.9.4 1.2.3.3.6.4 1.1.4.5 0 .8-.1 1.1-.3.3-.2.4-.6.4-.9zM81.9 477.5h-1.5V470l-2.3.8v-1.3l3.6-1.3h.2v9.3zM90.3 468.9v1.7h1.2v1.1h-1.2v3.8c0 .3.1.5.2.6.1.1.3.2.6.2.2 0 .4 0 .5-.1v1.2c-.4.1-.7.1-1 .1-1.2 0-1.8-.7-1.8-2v-3.9h-1.1v-1.1h1.1v-1.7h1.5zM96.3 472c-.2 0-.4-.1-.6-.1-.7 0-1.2.3-1.4.8v4.7h-1.5v-6.9h1.5v.8c.4-.6.9-.9 1.5-.9.2 0 .4 0 .5.1v1.5zM97.3 468.8c0-.2.1-.4.2-.6.2-.2.4-.2.6-.2s.5.1.6.2.2.4.2.6c0 .2-.1.4-.2.6s-.4.2-.6.2-.5-.1-.6-.2c-.1-.2-.2-.3-.2-.6zm1.6 8.7h-1.5v-6.9h1.5v6.9zM104.7 477.5c-.1-.1-.1-.3-.2-.6-.5.5-1.1.8-1.8.8s-1.3-.2-1.7-.6c-.4-.4-.7-.9-.7-1.5 0-.7.3-1.3.8-1.7.5-.4 1.3-.6 2.3-.6h.9v-.5c0-.4-.1-.6-.3-.9s-.5-.3-.9-.3-.6.1-.9.3-.3.4-.3.7h-1.5c0-.4.1-.7.4-1.1s.6-.6 1-.8c.4-.2.9-.3 1.4-.3.8 0 1.4.2 1.9.6s.7 1 .7 1.7v3.1c0 .6.1 1.1.3 1.5v.1h-1.4zm-1.7-1.1c.3 0 .6-.1.9-.2.3-.1.5-.3.6-.6v-1.3h-.8c-.6 0-1 .1-1.3.3-.3.2-.4.5-.4.8 0 .3.1.5.3.7.1.2.4.3.7.3zM109.3 477.5h-1.5v-9.8h1.5v9.8zM114.8 477.5v-5.7h-1v-1.1h1v-.7c0-.8.2-1.4.6-1.8.4-.4 1-.6 1.8-.6.3 0 .6 0 .9.1v1.2c-.2 0-.4-.1-.6-.1-.7 0-1.1.4-1.1 1.1v.6h1.4v1.1h-1.4v5.7h-1.6zM118.5 474c0-.7.1-1.3.4-1.8.3-.5.6-1 1.1-1.2s1-.4 1.7-.4c.9 0 1.7.3 2.3.9.6.6.9 1.4.9 2.4v.4c0 .7-.1 1.3-.4 1.8-.3.5-.6.9-1.1 1.2-.5.3-1 .4-1.7.4-1 0-1.7-.3-2.3-1-.6-.7-.9-1.6-.9-2.7zm1.6.1c0 .7.1 1.3.4 1.7.3.4.7.6 1.2.6s.9-.2 1.2-.6c.3-.4.4-1 .4-1.8 0-.7-.1-1.2-.4-1.7-.3-.4-.7-.6-1.2-.6s-.9.2-1.2.6c-.3.4-.4 1-.4 1.8zM129.8 472c-.2 0-.4-.1-.6-.1-.7 0-1.2.3-1.4.8v4.7h-1.5v-6.9h1.5v.8c.4-.6.9-.9 1.5-.9.2 0 .4 0 .5.1v1.5zM136 468.9v1.7h1.2v1.1H136v3.8c0 .3.1.5.2.6.1.1.3.2.6.2.2 0 .4 0 .5-.1v1.2c-.4.1-.7.1-1 .1-1.2 0-1.8-.7-1.8-2v-3.9h-1.1v-1.1h1.1v-1.7h1.5zM139.9 471.4c.5-.6 1.1-.9 1.9-.9 1.5 0 2.2.8 2.2 2.5v4.5h-1.5V473c0-.5-.1-.8-.3-1-.2-.2-.5-.3-.9-.3-.6 0-1.1.3-1.4.8v4.9h-1.5v-9.8h1.5v3.8zM148.6 477.6c-1 0-1.8-.3-2.4-.9-.6-.6-.9-1.4-.9-2.5v-.2c0-.7.1-1.3.4-1.8.3-.5.6-1 1.1-1.3.5-.3 1-.5 1.6-.5.9 0 1.7.3 2.2.9.5.6.8 1.4.8 2.5v.6h-4.5c0 .6.2 1 .6 1.3.3.3.8.5 1.3.5.7 0 1.3-.3 1.7-.9l.8.8c-.3.4-.6.7-1.1 1-.5.4-1 .5-1.6.5zm-.2-5.9c-.4 0-.8.1-1 .4-.3.3-.4.7-.5 1.2h2.9v-.1c0-.5-.2-.9-.4-1.2s-.6-.3-1-.3zM156.3 477.5v-5.7h-1v-1.1h1v-.7c0-.8.2-1.4.6-1.8.4-.4 1-.6 1.8-.6.3 0 .6 0 .9.1v1.2c-.2 0-.4-.1-.6-.1-.7 0-1.1.4-1.1 1.1v.6h1.4v1.1h-1.4v5.7h-1.6zM160.4 468.8c0-.2.1-.4.2-.6s.4-.2.6-.2.5.1.6.2.2.4.2.6c0 .2-.1.4-.2.6s-.4.2-.6.2-.5-.1-.6-.2-.2-.3-.2-.6zm1.6 8.7h-1.5v-6.9h1.5v6.9zM167.3 472c-.2 0-.4-.1-.6-.1-.7 0-1.2.3-1.4.8v4.7h-1.5v-6.9h1.5v.8c.4-.6.9-.9 1.5-.9.2 0 .4 0 .5.1v1.5zM172.1 475.6c0-.3-.1-.5-.3-.6-.2-.1-.6-.3-1.1-.4-.5-.1-1-.2-1.3-.4-.8-.4-1.2-.9-1.2-1.6 0-.6.2-1.1.7-1.5.5-.4 1.1-.6 1.9-.6.8 0 1.5.2 2 .6.5.4.8.9.8 1.6h-1.5c0-.3-.1-.5-.3-.7-.2-.2-.5-.3-.9-.3-.3 0-.6.1-.8.2-.2.2-.3.4-.3.6 0 .2.1.4.3.6.2.1.6.3 1.2.4.6.1 1.1.3 1.4.5.3.2.6.4.8.7.2.3.3.6.3.9 0 .6-.3 1.1-.8 1.5-.5.4-1.2.6-2 .6-.6 0-1.1-.1-1.5-.3-.4-.2-.8-.5-1-.8-.2-.4-.4-.7-.4-1.1h1.5c0 .4.2.6.4.8.3.2.6.3 1 .3s.7-.1.9-.2c.1-.3.2-.5.2-.8zM176.9 468.9v1.7h1.2v1.1h-1.2v3.8c0 .3.1.5.2.6.1.1.3.2.6.2.2 0 .4 0 .5-.1v1.2c-.4.1-.7.1-1 .1-1.2 0-1.8-.7-1.8-2v-3.9h-1.1v-1.1h1.1v-1.7h1.5zM186.6 477.5h-1.5V470l-2.3.8v-1.3l3.6-1.3h.2v9.3zM195.1 474.2h1.1v1.2h-1.1v2.1h-1.5v-2.1h-4v-.9l4-6.2h1.6v5.9zm-4 0h2.4v-3.9l-.1.2-2.3 3.7zM200.3 474c0-1.1.2-1.9.7-2.5.5-.6 1.1-1 2-1 .7 0 1.3.3 1.8.8v-3.5h1.5v9.8h-1.4l-.1-.7c-.5.6-1.1.8-1.8.8-.8 0-1.5-.3-2-1s-.7-1.6-.7-2.7zm1.5.1c0 .7.1 1.2.4 1.6s.7.6 1.1.6c.6 0 1.1-.3 1.4-.8v-2.9c-.3-.6-.7-.8-1.4-.8-.5 0-.9.2-1.2.6s-.3.9-.3 1.7zM212 477.5c-.1-.1-.1-.3-.2-.6-.5.5-1.1.8-1.8.8s-1.3-.2-1.7-.6c-.4-.4-.7-.9-.7-1.5 0-.7.3-1.3.8-1.7s1.3-.6 2.3-.6h.9v-.5c0-.4-.1-.6-.3-.9s-.5-.3-.9-.3-.6.1-.9.3c-.2.2-.3.4-.3.7h-1.5c0-.4.1-.7.4-1.1s.6-.6 1-.8.9-.3 1.4-.3c.8 0 1.4.2 1.9.6s.7 1 .7 1.7v3.1c0 .6.1 1.1.3 1.5v.1H212zm-1.7-1.1c.3 0 .6-.1.9-.2s.5-.3.6-.6v-1.3h-.8c-.6 0-1 .1-1.3.3-.3.2-.4.5-.4.8 0 .3.1.5.3.7.1.2.4.3.7.3zM217.3 475.3l1.4-4.7h1.6l-2.7 7.9c-.4 1.2-1.1 1.7-2.1 1.7-.2 0-.5 0-.7-.1v-1.2h.3c.4 0 .7-.1.9-.2.2-.1.4-.4.5-.7l.2-.6-2.4-6.8h1.7l1.3 4.7zM225 475.6c0-.3-.1-.5-.3-.6-.2-.1-.6-.3-1.1-.4-.5-.1-1-.2-1.3-.4-.8-.4-1.2-.9-1.2-1.6 0-.6.2-1.1.7-1.5.5-.4 1.1-.6 1.9-.6.8 0 1.5.2 2 .6s.8.9.8 1.6H225c0-.3-.1-.5-.3-.7-.2-.2-.5-.3-.9-.3-.3 0-.6.1-.8.2-.2.2-.3.4-.3.6 0 .2.1.4.3.6.2.1.6.3 1.2.4.6.1 1.1.3 1.4.5.3.2.6.4.8.7.2.3.3.6.3.9 0 .6-.3 1.1-.8 1.5-.5.4-1.2.6-2 .6-.6 0-1.1-.1-1.5-.3-.4-.2-.8-.5-1-.8-.2-.4-.4-.7-.4-1.1h1.5c0 .4.2.6.4.8.3.2.6.3 1 .3s.7-.1.9-.2c.1-.3.2-.5.2-.8zM228.8 475.8c.3 0 .5.1.7.2.2.2.2.4.2.6 0 .2-.1.4-.2.6-.2.2-.4.2-.7.2-.3 0-.5-.1-.7-.2-.2-.2-.2-.4-.2-.6 0-.2.1-.5.2-.6s.5-.2.7-.2zM79.3 489.6v3.4h-1.6v-9.2h3.5c1 0 1.9.3 2.5.8.6.5.9 1.2.9 2.1 0 .9-.3 1.6-.9 2.1-.6.5-1.4.8-2.5.8h-1.9zm0-1.3h1.9c.6 0 1-.1 1.3-.4s.5-.7.5-1.2-.2-.9-.5-1.2c-.3-.3-.7-.5-1.3-.5h-2v3.3zM87.5 493.1H86v-9.8h1.5v9.8zM93.3 493.1c-.1-.1-.1-.3-.2-.6-.5.5-1.1.8-1.8.8s-1.3-.2-1.7-.6c-.4-.4-.7-.9-.7-1.5 0-.7.3-1.3.8-1.7.5-.4 1.3-.6 2.3-.6h.9v-.5c0-.4-.1-.6-.3-.9s-.5-.3-.9-.3-.6.1-.9.3-.3.4-.3.7H89c0-.4.1-.7.4-1.1s.6-.6 1-.8c.4-.2.9-.3 1.4-.3.8 0 1.4.2 1.9.6s.7 1 .7 1.7v3.1c0 .6.1 1.1.3 1.5v.1h-1.4zm-1.7-1.1c.3 0 .6-.1.9-.2.3-.1.5-.3.6-.6v-1.3h-.8c-.6 0-1 .1-1.3.3-.3.2-.4.5-.4.8 0 .3.1.5.3.7.1.2.4.3.7.3zM97.6 486.2v.8c.5-.6 1.2-.9 2-.9 1.4 0 2.2.8 2.2 2.5v4.5h-1.5v-4.4c0-.4-.1-.8-.3-1-.2-.2-.5-.3-.9-.3-.6 0-1.1.3-1.4.8v4.9h-1.5v-6.9h1.4zM107.3 491.2c0-.3-.1-.5-.3-.6-.2-.1-.6-.3-1.1-.4-.5-.1-1-.2-1.3-.4-.8-.4-1.2-.9-1.2-1.6 0-.6.2-1.1.7-1.5s1.1-.6 1.9-.6c.8 0 1.5.2 2 .6.5.4.8.9.8 1.6h-1.5c0-.3-.1-.5-.3-.7-.2-.2-.5-.3-.9-.3-.3 0-.6.1-.8.2-.2.2-.3.4-.3.6 0 .2.1.4.3.6.2.1.6.3 1.2.4.6.1 1.1.3 1.4.5.3.2.6.4.8.7.2.3.3.6.3.9 0 .6-.3 1.1-.8 1.5s-1.2.6-2 .6c-.6 0-1.1-.1-1.5-.3s-.8-.5-1-.8-.4-.7-.4-1.1h1.5c0 .4.2.6.4.8.3.2.6.3 1 .3s.7-.1.9-.2.2-.5.2-.8zM117.2 491.2c0-.3-.1-.5-.3-.6-.2-.1-.6-.3-1.1-.4-.5-.1-1-.2-1.3-.4-.8-.4-1.2-.9-1.2-1.6 0-.6.2-1.1.7-1.5s1.1-.6 1.9-.6c.8 0 1.5.2 2 .6.5.4.8.9.8 1.6h-1.5c0-.3-.1-.5-.3-.7-.2-.2-.5-.3-.9-.3-.3 0-.6.1-.8.2-.2.2-.3.4-.3.6 0 .2.1.4.3.6.2.1.6.3 1.2.4.6.1 1.1.3 1.4.5.3.2.6.4.8.7.2.3.3.6.3.9 0 .6-.3 1.1-.8 1.5s-1.2.6-2 .6c-.6 0-1.1-.1-1.5-.3s-.8-.5-1-.8-.4-.7-.4-1.1h1.5c0 .4.2.6.4.8.3.2.6.3 1 .3s.7-.1.9-.2.2-.5.2-.8zM122 484.5v1.7h1.2v1.1H122v3.8c0 .3.1.5.2.6.1.1.3.2.6.2.2 0 .4 0 .5-.1v1.2c-.4.1-.7.1-1 .1-1.2 0-1.8-.7-1.8-2v-3.9h-1.1v-1.1h1.1v-1.7h1.5zM128.5 493.1c-.1-.1-.1-.3-.2-.6-.5.5-1.1.8-1.8.8s-1.3-.2-1.7-.6c-.4-.4-.7-.9-.7-1.5 0-.7.3-1.3.8-1.7.5-.4 1.3-.6 2.3-.6h.9v-.5c0-.4-.1-.6-.3-.9s-.5-.3-.9-.3-.6.1-.9.3-.3.4-.3.7h-1.5c0-.4.1-.7.4-1.1s.6-.6 1-.8c.4-.2.9-.3 1.4-.3.8 0 1.4.2 1.9.6s.7 1 .7 1.7v3.1c0 .6.1 1.1.3 1.5v.1h-1.4zm-1.7-1.1c.3 0 .6-.1.9-.2.3-.1.5-.3.6-.6v-1.3h-.8c-.6 0-1 .1-1.3.3-.3.2-.4.5-.4.8 0 .3.1.5.3.7.1.2.4.3.7.3zM135 487.6c-.2 0-.4-.1-.6-.1-.7 0-1.2.3-1.4.8v4.7h-1.5v-6.9h1.5v.8c.4-.6.9-.9 1.5-.9.2 0 .4 0 .5.1v1.5zM138.3 484.5v1.7h1.2v1.1h-1.2v3.8c0 .3.1.5.2.6.1.1.3.2.6.2.2 0 .4 0 .5-.1v1.2c-.4.1-.7.1-1 .1-1.2 0-1.8-.7-1.8-2v-3.9h-1.1v-1.1h1.1v-1.7h1.5zM140.7 484.4c0-.2.1-.4.2-.6.2-.2.4-.2.6-.2s.5.1.6.2.2.4.2.6c0 .2-.1.4-.2.6s-.4.2-.6.2-.5-.1-.6-.2c-.2-.2-.2-.3-.2-.6zm1.6 8.7h-1.5v-6.9h1.5v6.9zM145.4 486.2v.8c.5-.6 1.2-.9 2-.9 1.4 0 2.2.8 2.2 2.5v4.5h-1.5v-4.4c0-.4-.1-.8-.3-1-.2-.2-.5-.3-.9-.3-.6 0-1.1.3-1.4.8v4.9H144v-6.9h1.4zM150.9 489.6c0-1.1.3-1.9.8-2.6.5-.6 1.2-1 2-1s1.4.3 1.8.8l.1-.7h1.4v6.7c0 .9-.3 1.6-.8 2.1-.6.5-1.3.8-2.3.8-.5 0-1-.1-1.5-.3-.5-.2-.8-.5-1.1-.8l.7-.9c.5.6 1.1.8 1.8.8.5 0 .9-.1 1.2-.4.3-.3.4-.7.4-1.2v-.5c-.4.5-1 .7-1.8.7s-1.5-.3-2-1c-.4-.5-.7-1.4-.7-2.5zm1.6.1c0 .7.1 1.2.4 1.6.3.4.7.6 1.2.6.6 0 1.1-.3 1.4-.8v-3c-.3-.5-.7-.8-1.4-.8-.5 0-.9.2-1.2.6-.3.4-.4 1-.4 1.8zM165.9 493.1c-.1-.1-.1-.3-.2-.6-.5.5-1.1.8-1.8.8s-1.3-.2-1.7-.6c-.4-.4-.7-.9-.7-1.5 0-.7.3-1.3.8-1.7s1.3-.6 2.3-.6h.9v-.5c0-.4-.1-.6-.3-.9-.2-.2-.5-.3-.9-.3s-.6.1-.9.3c-.2.2-.3.4-.3.7h-1.5c0-.4.1-.7.4-1.1.2-.3.6-.6 1-.8s.9-.3 1.4-.3c.8 0 1.4.2 1.9.6.5.4.7 1 .7 1.7v3.1c0 .6.1 1.1.3 1.5v.1h-1.4zm-1.7-1.1c.3 0 .6-.1.9-.2.3-.1.5-.3.6-.6v-1.3h-.8c-.6 0-1 .1-1.3.3-.3.2-.4.5-.4.8 0 .3.1.5.3.7.1.2.4.3.7.3zM170.8 484.5v1.7h1.2v1.1h-1.2v3.8c0 .3.1.5.2.6.1.1.3.2.6.2.2 0 .4 0 .5-.1v1.2c-.4.1-.7.1-1 .1-1.2 0-1.8-.7-1.8-2v-3.9h-1.1v-1.1h1.1v-1.7h1.5zM180.8 490.7c0-.4-.1-.7-.3-.9-.2-.2-.6-.4-1.1-.6s-.9-.4-1.2-.5c-1-.5-1.5-1.3-1.5-2.3 0-.7.2-1.3.6-1.7.4-.5 1-.7 1.7-.8v-1.4h1v1.4c.7.1 1.3.4 1.7.9.4.5.6 1.2.6 2h-1.5c0-.5-.1-1-.4-1.3-.2-.3-.6-.5-1-.5s-.7.1-1 .3-.3.5-.3.9.1.7.3.9c.2.2.6.4 1.2.6.5.2 1 .4 1.3.6.3.2.6.4.8.6.2.2.4.5.5.8.1.3.2.6.2 1 0 .7-.2 1.3-.7 1.7-.4.4-1 .7-1.8.8v1.2h-1v-1.2c-.8-.1-1.5-.4-1.9-.9-.5-.5-.7-1.2-.7-2h1.5c0 .5.1.9.4 1.2.3.3.6.4 1.1.4.5 0 .8-.1 1.1-.3s.4-.6.4-.9zM188.1 489.2c-.5.5-1.1.8-1.8.8-.8 0-1.5-.3-1.9-.9s-.7-1.3-.7-2.2c0-.6.1-1.2.4-1.7.2-.5.6-.9 1-1.2.5-.3 1-.4 1.6-.4.9 0 1.7.3 2.2 1s.8 1.6.8 2.8v.4c0 1.7-.4 2.9-1.1 3.8-.8.9-1.9 1.3-3.4 1.3h-.2v-1.3h.2c.9 0 1.6-.2 2.1-.7.4-.1.7-.8.8-1.7zm-1.5-.4c.3 0 .6-.1.9-.3.3-.2.5-.4.6-.7v-.6c0-.7-.1-1.2-.4-1.6s-.6-.6-1.1-.6-.8.2-1.1.5-.4.8-.4 1.4c0 .6.1 1 .4 1.4s.6.5 1.1.5zM192.2 491.4c.3 0 .5.1.7.2.2.2.2.4.2.6 0 .2-.1.4-.2.6-.2.2-.4.2-.7.2-.3 0-.5-.1-.7-.2-.2-.2-.2-.4-.2-.6 0-.2.1-.5.2-.6s.4-.2.7-.2zM199.1 489.2c-.5.5-1.1.8-1.8.8-.8 0-1.5-.3-1.9-.9s-.7-1.3-.7-2.2c0-.6.1-1.2.4-1.7.2-.5.6-.9 1-1.2.5-.3 1-.4 1.6-.4.9 0 1.7.3 2.2 1 .5.7.8 1.6.8 2.8v.4c0 1.7-.4 2.9-1.1 3.8s-1.9 1.3-3.4 1.3h-.2v-1.3h.2c.9 0 1.6-.2 2.1-.7.5-.1.7-.8.8-1.7zm-1.5-.4c.3 0 .6-.1.9-.3.3-.2.5-.4.6-.7v-.6c0-.7-.1-1.2-.4-1.6s-.6-.6-1.1-.6c-.4 0-.8.2-1.1.5s-.4.8-.4 1.4c0 .6.1 1 .4 1.4s.7.5 1.1.5zM206.5 489.2c-.5.5-1.1.8-1.8.8-.8 0-1.5-.3-1.9-.9s-.7-1.3-.7-2.2c0-.6.1-1.2.4-1.7.2-.5.6-.9 1-1.2.5-.3 1-.4 1.6-.4.9 0 1.7.3 2.2 1 .5.7.8 1.6.8 2.8v.4c0 1.7-.4 2.9-1.1 3.8s-1.9 1.3-3.4 1.3h-.2v-1.3h.2c.9 0 1.6-.2 2.1-.7.5-.1.7-.8.8-1.7zm-1.5-.4c.3 0 .6-.1.9-.3.3-.2.5-.4.6-.7v-.6c0-.7-.1-1.2-.4-1.6s-.6-.6-1.1-.6c-.4 0-.8.2-1.1.5s-.4.8-.4 1.4c0 .6.1 1 .4 1.4s.7.5 1.1.5zM214.8 484.5v1.7h1.2v1.1h-1.2v3.8c0 .3.1.5.2.6s.3.2.6.2c.2 0 .4 0 .5-.1v1.2c-.4.1-.7.1-1 .1-1.2 0-1.8-.7-1.8-2v-3.9h-1.1v-1.1h1.1v-1.7h1.5zM216.7 489.6c0-.7.1-1.3.4-1.8.3-.5.6-1 1.1-1.2s1-.4 1.7-.4c.9 0 1.7.3 2.3.9.6.6.9 1.4.9 2.4v.4c0 .7-.1 1.3-.4 1.8-.3.5-.6.9-1.1 1.2-.5.3-1 .4-1.7.4-1 0-1.7-.3-2.3-1s-.9-1.6-.9-2.7zm1.5.1c0 .7.1 1.3.4 1.7.3.4.7.6 1.2.6s.9-.2 1.2-.6.4-1 .4-1.8c0-.7-.1-1.2-.4-1.7-.3-.4-.7-.6-1.2-.6s-.9.2-1.2.6c-.2.4-.4 1-.4 1.8zM112 506.3c0-.4-.1-.7-.3-.9-.2-.2-.6-.4-1.1-.6s-.9-.4-1.2-.5c-1-.5-1.5-1.3-1.5-2.3 0-.7.2-1.3.6-1.7s1-.7 1.7-.8v-1.4h1v1.4c.7.1 1.3.4 1.7.9s.6 1.2.6 2H112c0-.5-.1-1-.4-1.3-.2-.3-.6-.5-1-.5s-.7.1-1 .3-.3.5-.3.9.1.7.3.9c.2.2.6.4 1.2.6s1 .4 1.3.6c.3.2.6.4.8.6s.4.5.5.8c.1.3.2.6.2 1 0 .7-.2 1.3-.7 1.7-.4.4-1 .7-1.8.8v1.2h-1v-1.2c-.8-.1-1.5-.4-1.9-.9-.5-.5-.7-1.2-.7-2h1.5c0 .5.1.9.4 1.2.3.3.6.4 1.1.4.5 0 .8-.1 1.1-.3.2-.2.4-.6.4-.9zM121 508.7h-6.2v-1.1l3.1-3.4c.4-.5.8-.9.9-1.2.2-.3.3-.7.3-1 0-.4-.1-.8-.4-1.1-.2-.3-.6-.4-1-.4-.5 0-.9.2-1.2.5s-.4.7-.4 1.2h-1.5c0-.6.1-1.1.4-1.5.3-.5.6-.8 1.1-1 .5-.2 1-.4 1.6-.4.9 0 1.6.2 2.1.7.5.5.8 1.1.8 1.9 0 .5-.1.9-.4 1.5-.3.5-.7 1.1-1.3 1.7l-2.3 2.4h4.3v1.2zM127.4 505.4h1.1v1.2h-1.1v2.1h-1.5v-2.1h-4v-.9l4-6.2h1.6v5.9zm-3.9 0h2.4v-3.9l-.1.2-2.3 3.7zM130.7 507c.3 0 .5.1.7.2s.2.4.2.6c0 .2-.1.4-.2.6-.2.2-.4.2-.7.2-.3 0-.5-.1-.7-.2s-.2-.4-.2-.6c0-.2.1-.5.2-.6s.4-.2.7-.2zM137.6 504.8c-.5.5-1.1.8-1.8.8-.8 0-1.5-.3-1.9-.9s-.7-1.3-.7-2.2c0-.6.1-1.2.4-1.7.2-.5.6-.9 1-1.2.5-.3 1-.4 1.6-.4.9 0 1.7.3 2.2 1s.8 1.6.8 2.8v.4c0 1.7-.4 2.9-1.1 3.8s-1.9 1.3-3.4 1.3h-.2v-1.3h.2c.9 0 1.6-.2 2.1-.7.5-.1.8-.8.8-1.7zm-1.5-.4c.3 0 .6-.1.9-.3s.5-.4.6-.7v-.6c0-.7-.1-1.2-.4-1.6s-.6-.6-1.1-.6-.8.2-1.1.5c-.3.4-.4.8-.4 1.4 0 .6.1 1 .4 1.4s.7.5 1.1.5zM145 504.8c-.5.5-1.1.8-1.8.8-.8 0-1.5-.3-1.9-.9s-.7-1.3-.7-2.2c0-.6.1-1.2.4-1.7.2-.5.6-.9 1-1.2.5-.3 1-.4 1.6-.4.9 0 1.7.3 2.2 1s.8 1.6.8 2.8v.4c0 1.7-.4 2.9-1.1 3.8s-1.9 1.3-3.4 1.3h-.2v-1.3h.2c.9 0 1.6-.2 2.1-.7.5-.1.7-.8.8-1.7zm-1.5-.4c.3 0 .6-.1.9-.3s.5-.4.6-.7v-.6c0-.7-.1-1.2-.4-1.6s-.6-.6-1.1-.6-.8.2-1.1.5c-.3.4-.4.8-.4 1.4 0 .6.1 1 .4 1.4s.7.5 1.1.5zM148.6 509.5h-1.2l3.6-10h1.2l-3.6 10zM154.7 501.8v.7c.5-.6 1.1-.8 2-.8.9 0 1.5.4 1.9 1.1.5-.7 1.2-1.1 2.1-1.1.8 0 1.3.2 1.7.6.4.4.6 1 .6 1.9v4.5h-1.5v-4.5c0-.4-.1-.8-.3-1s-.5-.3-.9-.3-.6.1-.9.3c-.2.2-.4.4-.5.7v4.7h-1.5v-4.5c0-.8-.4-1.2-1.2-1.2-.6 0-1.1.3-1.3.8v5h-1.5v-6.9h1.3zM164.3 505.2c0-.7.1-1.3.4-1.8.3-.5.6-1 1.1-1.2s1-.4 1.7-.4c.9 0 1.7.3 2.3.9.6.6.9 1.4.9 2.4v.4c0 .7-.1 1.3-.4 1.8-.3.5-.6.9-1.1 1.2-.5.3-1 .4-1.7.4-1 0-1.7-.3-2.3-1-.6-.7-.9-1.6-.9-2.7zm1.5.1c0 .7.1 1.3.4 1.7.3.4.7.6 1.2.6s.9-.2 1.2-.6c.3-.4.4-1 .4-1.8 0-.7-.1-1.2-.4-1.7-.3-.4-.7-.6-1.2-.6s-.9.2-1.2.6c-.2.4-.4 1-.4 1.8zM173.4 501.8v.8c.5-.6 1.2-.9 2-.9 1.4 0 2.2.8 2.2 2.5v4.5h-1.5v-4.4c0-.4-.1-.8-.3-1-.2-.2-.5-.3-.9-.3-.6 0-1.1.3-1.4.8v4.9H172v-6.9h1.4zM181.1 500.1v1.7h1.2v1.1h-1.2v3.8c0 .3.1.5.2.6.1.1.3.2.6.2.2 0 .4 0 .5-.1v1.2c-.4.1-.7.1-1 .1-1.2 0-1.8-.7-1.8-2v-3.9h-1.1v-1.1h1.1V500h1.5zM185 502.6c.5-.6 1.1-.9 1.9-.9 1.5 0 2.2.8 2.2 2.5v4.5h-1.5v-4.4c0-.5-.1-.8-.3-1-.2-.2-.5-.3-.9-.3-.6 0-1.1.3-1.4.8v4.9h-1.5v-9.8h1.5v3.7zM191.7 507c.3 0 .5.1.7.2.2.2.2.4.2.6 0 .2-.1.4-.2.6-.2.2-.4.2-.7.2-.3 0-.5-.1-.7-.2-.2-.2-.2-.4-.2-.6 0-.2.1-.5.2-.6.2-.1.4-.2.7-.2z"/></g></svg>