<svg id="Layer_1" xmlns="http://www.w3.org/2000/svg" viewBox="0 0 300 600"><style>.st0{fill:#fff}.st1{fill:#edf4fd}</style><path class="st0" d="M39 278.7c0-.2-.1-.4-.2-.5l-.8-.4c-.4-.2-.7-.3-1-.4-.5-.3-.7-.7-.7-1.1 0-.4.2-.7.5-1s.8-.4 1.3-.4c.3 0 .7.1.9.2s.5.3.6.5c.2.2.2.5.2.8H39c0-.3-.1-.5-.2-.6-.2-.1-.4-.2-.7-.2-.3 0-.5.1-.7.2s-.2.3-.2.5.1.3.3.5l.8.4c.4.1.7.2.9.4.2.1.4.3.5.5.1.2.2.4.2.7 0 .4-.2.7-.5 1-.3.2-.7.4-1.3.4-.4 0-.7-.1-1-.2-.3-.1-.5-.3-.7-.6-.2-.2-.3-.5-.3-.8h.9c0 .3.1.5.3.7.2.2.5.2.8.2.3 0 .5-.1.7-.2.1-.2.2-.4.2-.6zM40.4 278.1c0-.4.1-.7.2-1 .1-.3.3-.5.6-.7.3-.2.6-.2.9-.2.5 0 .9.2 1.2.5.3.3.5.7.5 1.3v.2c0 .4-.1.7-.2 1-.1.3-.3.5-.6.7s-.6.2-.9.2c-.5 0-.9-.2-1.3-.5-.3-.4-.4-.9-.4-1.5zm.8.1c0 .4.1.7.2.9.2.2.4.3.7.3.3 0 .5-.1.7-.3s.2-.5.2-1c0-.4-.1-.7-.2-.9-.2-.2-.4-.3-.7-.3-.3 0-.5.1-.6.3-.2.2-.3.6-.3 1zM46.8 279.6c-.2.3-.6.4-1 .4s-.7-.1-.9-.4-.3-.6-.3-1v-2.4h.8v2.4c0 .5.2.7.6.7.4 0 .7-.1.8-.4v-2.7h.8v3.7h-.8v-.3zM50.3 277.1H50c-.4 0-.6.1-.8.4v2.5h-.8v-3.7h.8v.4c.2-.3.5-.5.8-.5h.3v.9zM52.3 279.4c.2 0 .4-.1.5-.2s.2-.3.2-.4h.8c0 .2-.1.4-.2.6-.1.2-.3.4-.5.5s-.5.2-.7.2c-.5 0-.9-.2-1.2-.5s-.5-.8-.5-1.4v-.1c0-.6.2-1 .5-1.4.3-.3.7-.5 1.2-.5.4 0 .8.1 1.1.4.3.3.4.6.4 1h-.8c0-.2-.1-.4-.2-.5s-.3-.2-.5-.2c-.3 0-.5.1-.6.3-.1.2-.2.5-.2.9v.1c0 .4.1.7.2.9 0 .2.2.3.5.3zM56.1 280.1c-.5 0-1-.2-1.3-.5-.3-.3-.5-.8-.5-1.3v-.1c0-.4.1-.7.2-1 .1-.3.3-.5.6-.7.3-.2.5-.2.9-.2.5 0 .9.2 1.2.5s.4.8.4 1.4v.3h-2.4c0 .3.1.5.3.7s.4.3.7.3c.4 0 .7-.2.9-.5l.4.4c-.1.2-.3.4-.6.5-.2.1-.5.2-.8.2zm-.1-3.2c-.2 0-.4.1-.6.2-.1.2-.2.4-.3.7h1.6v-.1c0-.3-.1-.5-.2-.6-.1-.1-.3-.2-.5-.2zM58.7 276.2c.2 0 .3 0 .4.1.1.1.1.2.1.3 0 .1 0 .2-.1.3-.1.1-.2.1-.4.1-.1 0-.3 0-.4-.1s-.1-.2-.1-.3 0-.2.1-.3c.1 0 .3-.1.4-.1zm0 2.9c.2 0 .3 0 .4.1.1.1.1.2.1.3 0 .1 0 .2-.1.3-.1.1-.2.1-.4.1-.1 0-.3 0-.4-.1s-.1-.2-.1-.3 0-.2.1-.3c.1 0 .3-.1.4-.1zM62.5 276.8c.3-.3.6-.5 1.1-.5.8 0 1.2.4 1.2 1.3v2.4h-.6v-2.4c0-.3-.1-.5-.2-.6-.1-.1-.3-.2-.6-.2-.2 0-.4.1-.5.2-.2.1-.3.3-.4.4v2.6h-.6v-5.2h.6v2zM66.5 275.4v.9h.7v.5h-.7v2.3c0 .1 0 .3.1.3s.2.1.3.1h.3v.5c-.2 0-.3.1-.5.1-.3 0-.5-.1-.6-.3-.1-.2-.2-.4-.2-.7v-2.3h-.7v-.5h.7v-.9h.6zM68.8 275.4v.9h.7v.5h-.7v2.3c0 .1 0 .3.1.3s.2.1.3.1h.3v.5c-.2 0-.3.1-.5.1-.3 0-.5-.1-.6-.3-.1-.2-.2-.4-.2-.7v-2.3h-.7v-.5h.7v-.9h.6zM73.4 278.2c0 .6-.1 1-.4 1.4-.3.3-.6.5-1 .5s-.8-.1-1.1-.4v1.8h-.6v-5.1h.6v.4c.3-.3.6-.5 1.1-.5.4 0 .8.2 1.1.5s.3.7.3 1.4zm-.6-.1c0-.4-.1-.7-.3-1s-.4-.4-.7-.4c-.4 0-.7.2-.9.5v1.8c.2.3.5.5.9.5.3 0 .5-.1.7-.4.2-.1.3-.5.3-1zM76.3 279c0-.2-.1-.3-.2-.4-.1-.1-.4-.2-.7-.2s-.6-.2-.8-.2c-.2-.1-.3-.2-.4-.3s-.1-.3-.1-.5c0-.3.1-.6.4-.8.3-.2.6-.3 1-.3s.8.1 1 .3.4.5.4.8h-.6c0-.2-.1-.3-.2-.4-.1-.1-.3-.2-.6-.2-.2 0-.4.1-.5.2s-.2.2-.2.4.1.3.2.3.3.2.7.2.6.2.8.3.3.2.4.4c.1.1.1.3.1.5 0 .3-.1.6-.4.8-.3.2-.6.3-1 .3-.3 0-.6-.1-.8-.2s-.4-.3-.5-.4c-.1-.2-.2-.4-.2-.6h.6c0 .2.1.4.3.5.2.1.4.2.6.2.2 0 .4 0 .6-.1.1-.3.1-.4.1-.6zM77.8 279.7c0-.1 0-.2.1-.3.1-.1.2-.1.3-.1s.2 0 .3.1.1.2.1.3c0 .1 0 .2-.1.3s-.2.1-.3.1-.2 0-.3-.1c-.1-.1-.1-.2-.1-.3zm0-3c0-.1 0-.2.1-.3.1-.1.2-.1.3-.1.1 0 .2 0 .3.1s.1.2.1.3c0 .1 0 .2-.1.3s-.2.1-.3.1c-.1 0-.2 0-.3-.1-.1-.2-.1-.2-.1-.3zM79.6 280.4h-.5l2.1-5.4h.5l-2.1 5.4zM81.7 280.4h-.5l2.1-5.4h.5l-2.1 5.4zM87.8 279.1l.7-2.8h.6L88 280h-.5l-.9-2.8-.9 2.8h-.5l-1.1-3.7h.6l.7 2.8.9-2.8h.5l1 2.8zM93 279.1l.7-2.8h.6l-1.1 3.7h-.5l-.9-2.8-.8 2.8h-.5l-1.1-3.7h.6l.7 2.8.9-2.8h.5l.9 2.8zM98.3 279.1l.7-2.8h.6l-1.1 3.7H98l-.9-2.8-.9 2.8h-.5l-1.1-3.7h.6l.7 2.8.9-2.8h.5l1 2.8zM99.9 279.7c0-.1 0-.2.1-.3.1-.1.2-.1.3-.1s.2 0 .3.1.1.2.1.3c0 .1 0 .2-.1.3s-.2.1-.3.1-.2 0-.3-.1c-.1-.1-.1-.2-.1-.3zM102 280v-3.2h-.6v-.5h.6v-.4c0-.4.1-.7.3-.9s.5-.3.9-.3c.1 0 .3 0 .4.1v.5h-.3c-.2 0-.4.1-.5.2-.1.1-.2.3-.2.5v.4h.8v.5h-.8v3.2h-.6zM105 275.4v.9h.7v.5h-.7v2.3c0 .1 0 .3.1.3s.2.1.3.1h.3v.5c-.2 0-.3.1-.5.1-.3 0-.5-.1-.6-.3-.1-.2-.2-.4-.2-.7v-2.3h-.7v-.5h.7v-.9h.6zM107.9 279.6c.2 0 .4-.1.6-.2.2-.1.3-.3.3-.5h.6c0 .2-.1.4-.2.6s-.3.3-.5.5-.5.2-.7.2c-.5 0-.9-.2-1.2-.5-.3-.3-.4-.8-.4-1.4v-.1c0-.4.1-.7.2-1s.3-.5.6-.7.5-.2.9-.2.8.1 1 .4.4.6.4 1h-.6c0-.2-.1-.4-.3-.6-.2-.2-.4-.2-.6-.2-.3 0-.6.1-.7.3-.2.2-.3.6-.3 1v.1c0 .4.1.8.3 1s.3.3.6.3zM110.1 279.7c0-.1 0-.2.1-.3.1-.1.2-.1.3-.1s.2 0 .3.1.1.2.1.3c0 .1 0 .2-.1.3s-.2.1-.3.1-.2 0-.3-.1c-.1-.1-.1-.2-.1-.3zM111.8 278.1c0-.6.1-1 .4-1.4.3-.3.6-.5 1.1-.5.5 0 .8.2 1.1.5v-.4h.6v3.6c0 .5-.1.9-.4 1.1-.3.3-.7.4-1.1.4-.3 0-.5-.1-.8-.2s-.5-.3-.6-.5l.3-.4c.3.3.6.5 1 .5.3 0 .5-.1.7-.3s.3-.4.3-.7v-.3c-.3.3-.6.4-1 .4s-.8-.2-1.1-.5-.5-.7-.5-1.3zm.6.1c0 .4.1.7.3 1 .2.2.4.4.7.4.4 0 .7-.2.9-.5v-1.7c-.2-.4-.5-.5-.9-.5-.3 0-.5.1-.7.4s-.3.4-.3.9zM115.7 278.1c0-.4.1-.7.2-1s.3-.5.6-.7.5-.2.9-.2c.5 0 .9.2 1.2.5.3.3.5.8.5 1.4 0 .4-.1.7-.2 1-.1.3-.3.5-.6.7-.3.2-.6.2-.9.2-.5 0-.9-.2-1.2-.5-.4-.3-.5-.8-.5-1.4zm.6.1c0 .4.1.7.3 1s.4.4.8.4c.3 0 .6-.1.8-.4.2-.3.3-.6.3-1.1 0-.4-.1-.7-.3-1-.2-.3-.4-.4-.8-.4-.3 0-.6.1-.8.4s-.3.6-.3 1.1zM121 279.1l.9-2.8h.6l-1.3 3.7h-.5l-1.3-3.7h.6l1 2.8zM123.3 280.4h-.5l2.1-5.4h.5l-2.1 5.4zM126.7 276.3v.5c.3-.4.7-.5 1.1-.5.8 0 1.2.4 1.2 1.3v2.4h-.6v-2.4c0-.3-.1-.5-.2-.6-.1-.1-.3-.2-.6-.2-.2 0-.4.1-.5.2-.2.1-.3.3-.4.4v2.6h-.6v-3.7h.6zM131.5 280.1c-.5 0-.9-.2-1.2-.5-.3-.3-.5-.8-.5-1.3v-.1c0-.4.1-.7.2-1 .1-.3.3-.5.6-.7.3-.2.5-.2.8-.2.5 0 .9.2 1.1.5s.4.8.4 1.4v.3h-2.5c0 .4.1.7.3.9.2.2.5.3.8.3.2 0 .4 0 .6-.1.2-.1.3-.2.4-.4l.4.3c-.4.3-.8.6-1.4.6zm-.1-3.3c-.3 0-.5.1-.6.3-.2.2-.3.4-.3.8h1.9c0-.3-.1-.6-.3-.7-.2-.4-.5-.4-.7-.4zM136.9 279.1l.7-2.8h.6l-1.1 3.7h-.5l-.9-2.8-.9 2.8h-.5l-1.1-3.7h.6l.7 2.8.9-2.8h.5l1 2.8zM141 279c0-.2-.1-.3-.2-.4-.1-.1-.4-.2-.7-.2s-.6-.2-.8-.2c-.2-.1-.3-.2-.4-.3s-.1-.3-.1-.5c0-.3.1-.6.4-.8.3-.2.6-.3 1-.3s.8.1 1 .3.4.5.4.8h-.6c0-.2-.1-.3-.2-.4-.1-.1-.3-.2-.6-.2-.2 0-.4.1-.5.2s-.2.2-.2.4.1.3.2.3.3.2.7.2.6.2.8.3.3.2.4.4c.1.1.1.3.1.5 0 .3-.1.6-.4.8-.3.2-.6.3-1 .3-.3 0-.6-.1-.8-.2s-.4-.3-.5-.4c-.1-.2-.2-.4-.2-.6h.6c0 .2.1.4.3.5.2.1.4.2.6.2.2 0 .4 0 .6-.1.1-.3.1-.4.1-.6zM143.8 278.2h-1.7v-.5h1.7v.5zM146 280.1c-.5 0-.9-.2-1.2-.5-.3-.3-.5-.8-.5-1.3v-.1c0-.4.1-.7.2-1 .1-.3.3-.5.6-.7.3-.2.5-.2.8-.2.5 0 .9.2 1.1.5s.4.8.4 1.4v.3h-2.5c0 .4.1.7.3.9.2.2.5.3.8.3.2 0 .4 0 .6-.1.2-.1.3-.2.4-.4l.4.3c-.4.3-.8.6-1.4.6zm-.1-3.3c-.3 0-.5.1-.6.3-.2.2-.3.4-.3.8h1.9c0-.3-.1-.6-.3-.7-.2-.4-.4-.4-.7-.4zM149.3 279.1l.9-2.8h.6l-1.3 3.7h-.5l-1.3-3.7h.6l1 2.8zM153 280.1c-.5 0-.9-.2-1.2-.5-.3-.3-.5-.8-.5-1.3v-.1c0-.4.1-.7.2-1 .1-.3.3-.5.6-.7.3-.2.5-.2.8-.2.5 0 .9.2 1.1.5s.4.8.4 1.4v.3h-2.5c0 .4.1.7.3.9.2.2.5.3.8.3.2 0 .4 0 .6-.1.2-.1.3-.2.4-.4l.4.3c-.3.3-.8.6-1.4.6zm-.1-3.3c-.3 0-.5.1-.6.3-.2.2-.3.4-.3.8h1.9c0-.3-.1-.6-.3-.7-.2-.4-.4-.4-.7-.4zM155.7 276.3v.5c.3-.4.7-.5 1.1-.5.8 0 1.2.4 1.2 1.3v2.4h-.6v-2.4c0-.3-.1-.5-.2-.6-.1-.1-.3-.2-.6-.2-.2 0-.4.1-.5.2-.2.1-.3.3-.4.4v2.6h-.6v-3.7h.6zM159.9 275.4v.9h.7v.5h-.7v2.3c0 .1 0 .3.1.3s.2.1.3.1h.3v.5c-.2 0-.3.1-.5.1-.3 0-.5-.1-.6-.3-.1-.2-.2-.4-.2-.7v-2.3h-.7v-.5h.7v-.9h.6zM163.5 279c0-.2-.1-.3-.2-.4-.1-.1-.4-.2-.7-.2s-.6-.2-.8-.2c-.2-.1-.3-.2-.4-.3s-.1-.3-.1-.5c0-.3.1-.6.4-.8.3-.2.6-.3 1-.3s.8.1 1 .3.4.5.4.8h-.6c0-.2-.1-.3-.2-.4-.1-.1-.3-.2-.6-.2-.2 0-.4.1-.5.2s-.2.2-.2.4.1.3.2.3.3.2.7.2.6.2.8.3.3.2.4.4c.1.1.1.3.1.5 0 .3-.1.6-.4.8-.3.2-.6.3-1 .3-.3 0-.6-.1-.8-.2s-.4-.3-.5-.4c-.1-.2-.2-.4-.2-.6h.6c0 .2.1.4.3.5.2.1.4.2.6.2.2 0 .4 0 .6-.1 0-.3.1-.4.1-.6zM165 280.4h-.5l2.1-5.4h.5l-2.1 5.4zM168.4 276.3v.5c.3-.4.7-.5 1.1-.5.8 0 1.2.4 1.2 1.3v2.4h-.6v-2.4c0-.3-.1-.5-.2-.6-.1-.1-.3-.2-.6-.2-.2 0-.4.1-.5.2-.2.1-.3.3-.4.4v2.6h-.6v-3.7h.6zM173.2 280.1c-.5 0-.9-.2-1.2-.5-.3-.3-.5-.8-.5-1.3v-.1c0-.4.1-.7.2-1 .1-.3.3-.5.6-.7.3-.2.5-.2.8-.2.5 0 .9.2 1.1.5s.4.8.4 1.4v.3h-2.5c0 .4.1.7.3.9.2.2.5.3.8.3.2 0 .4 0 .6-.1.2-.1.3-.2.4-.4l.4.3c-.3.3-.8.6-1.4.6zm-.1-3.3c-.3 0-.5.1-.6.3-.2.2-.3.4-.3.8h1.9c0-.3-.1-.6-.3-.7-.2-.4-.4-.4-.7-.4zM178.6 279.1l.7-2.8h.6l-1.1 3.7h-.5l-.9-2.8-.9 2.8h-.5l-1.1-3.7h.6l.7 2.8.9-2.8h.5l1 2.8zM182.8 279c0-.2-.1-.3-.2-.4-.1-.1-.4-.2-.7-.2s-.6-.2-.8-.2c-.2-.1-.3-.2-.4-.3s-.1-.3-.1-.5c0-.3.1-.6.4-.8.3-.2.6-.3 1-.3s.8.1 1 .3.4.5.4.8h-.6c0-.2-.1-.3-.2-.4-.1-.1-.3-.2-.6-.2-.2 0-.4.1-.5.2s-.2.2-.2.4.1.3.2.3.3.2.7.2.6.2.8.3.3.2.4.4c.1.1.1.3.1.5 0 .3-.1.6-.4.8-.3.2-.6.3-1 .3-.3 0-.6-.1-.8-.2s-.4-.3-.5-.4c-.1-.2-.2-.4-.2-.6h.6c0 .2.1.4.3.5.2.1.4.2.6.2.2 0 .4 0 .6-.1 0-.3.1-.4.1-.6zM184.4 280.4h-.5l2.1-5.4h.5l-2.1 5.4zM190.2 278.2c0 .6-.1 1-.4 1.4-.3.3-.6.5-1 .5s-.8-.1-1.1-.4v1.8h-.6v-5.1h.6v.4c.3-.3.6-.5 1.1-.5.4 0 .8.2 1.1.5s.3.7.3 1.4zm-.6-.1c0-.4-.1-.7-.3-1s-.4-.4-.7-.4c-.4 0-.7.2-.9.5v1.8c.2.3.5.5.9.5.3 0 .5-.1.7-.4.2-.1.3-.5.3-1zM192.8 276.9h-.3c-.4 0-.7.2-.8.5v2.6h-.7v-3.7h.6v.4c.2-.3.5-.5.9-.5h.3v.7zM194.9 280.1c-.5 0-.9-.2-1.2-.5-.3-.3-.5-.8-.5-1.3v-.1c0-.4.1-.7.2-1 .1-.3.3-.5.6-.7.3-.2.5-.2.8-.2.5 0 .9.2 1.1.5s.4.8.4 1.4v.3h-2.5c0 .4.1.7.3.9.2.2.5.3.8.3.2 0 .4 0 .6-.1.2-.1.3-.2.4-.4l.4.3c-.3.3-.8.6-1.4.6zm-.1-3.3c-.3 0-.5.1-.6.3-.2.2-.3.4-.3.8h1.9c0-.3-.1-.6-.3-.7-.2-.4-.4-.4-.7-.4zM199.2 279c0-.2-.1-.3-.2-.4-.1-.1-.4-.2-.7-.2s-.6-.2-.8-.2c-.2-.1-.3-.2-.4-.3s-.1-.3-.1-.5c0-.3.1-.6.4-.8.3-.2.6-.3 1-.3s.8.1 1 .3.4.5.4.8h-.6c0-.2-.1-.3-.2-.4-.1-.1-.3-.2-.6-.2-.2 0-.4.1-.5.2s-.2.2-.2.4.1.3.2.3.3.2.7.2.6.2.8.3.3.2.4.4c.1.1.1.3.1.5 0 .3-.1.6-.4.8-.3.2-.6.3-1 .3-.3 0-.6-.1-.8-.2s-.4-.3-.5-.4c-.1-.2-.2-.4-.2-.6h.6c0 .2.1.4.3.5.2.1.4.2.6.2.2 0 .4 0 .6-.1 0-.3.1-.4.1-.6zM202.8 279c0-.2-.1-.3-.2-.4-.1-.1-.4-.2-.7-.2s-.6-.2-.8-.2c-.2-.1-.3-.2-.4-.3s-.1-.3-.1-.5c0-.3.1-.6.4-.8.3-.2.6-.3 1-.3s.8.1 1 .3.4.5.4.8h-.6c0-.2-.1-.3-.2-.4-.1-.1-.3-.2-.6-.2-.2 0-.4.1-.5.2s-.2.2-.2.4.1.3.2.3.3.2.7.2.6.2.8.3.3.2.4.4c.1.1.1.3.1.5 0 .3-.1.6-.4.8-.3.2-.6.3-1 .3-.3 0-.6-.1-.8-.2s-.4-.3-.5-.4c-.1-.2-.2-.4-.2-.6h.6c0 .2.1.4.3.5.2.1.4.2.6.2.2 0 .4 0 .6-.1 0-.3.1-.4.1-.6zM205.6 278.2h-1.7v-.5h1.7v.5zM208 276.9h-.3c-.4 0-.7.2-.8.5v2.6h-.6v-3.7h.6v.4c.2-.3.5-.5.9-.5h.3v.7zM210 280.1c-.5 0-.9-.2-1.2-.5-.3-.3-.5-.8-.5-1.3v-.1c0-.4.1-.7.2-1 .1-.3.3-.5.6-.7.3-.2.5-.2.8-.2.5 0 .9.2 1.1.5s.4.8.4 1.4v.3H209c0 .4.1.7.3.9.2.2.5.3.8.3.2 0 .4 0 .6-.1.2-.1.3-.2.4-.4l.4.3c-.4.3-.8.6-1.5.6zm0-3.3c-.3 0-.5.1-.6.3-.2.2-.3.4-.3.8h1.9c0-.3-.1-.6-.3-.7-.3-.4-.5-.4-.7-.4zM212.9 280h-.6v-5.2h.6v5.2zM215.5 280.1c-.5 0-.9-.2-1.2-.5-.3-.3-.5-.8-.5-1.3v-.1c0-.4.1-.7.2-1 .1-.3.3-.5.6-.7.3-.2.5-.2.8-.2.5 0 .9.2 1.1.5s.4.8.4 1.4v.3h-2.5c0 .4.1.7.3.9.2.2.5.3.8.3.2 0 .4 0 .6-.1.2-.1.3-.2.4-.4l.4.3c-.4.3-.8.6-1.4.6zm-.1-3.3c-.3 0-.5.1-.6.3-.2.2-.3.4-.3.8h1.9c0-.3-.1-.6-.3-.7-.2-.4-.5-.4-.7-.4zM219.9 280c0-.1-.1-.2-.1-.4-.3.3-.6.5-1.1.5-.4 0-.7-.1-.9-.3-.2-.2-.3-.5-.3-.8 0-.4.1-.7.4-.9.3-.2.7-.3 1.2-.3h.6v-.3c0-.2-.1-.4-.2-.5-.1-.1-.3-.2-.6-.2-.2 0-.4.1-.6.2s-.2.3-.2.4h-.6c0-.2.1-.4.2-.5.1-.2.3-.3.5-.4s.5-.2.7-.2c.4 0 .8.1 1 .3.2.2.4.5.4.9v1.7c0 .3 0 .6.1.8v.1h-.5zm-1-.5c.2 0 .4-.1.6-.2s.3-.2.4-.4v-.8h-.5c-.8 0-1.2.2-1.2.7 0 .2.1.4.2.5s.3.2.5.2zM223.6 279c0-.2-.1-.3-.2-.4-.1-.1-.4-.2-.7-.2s-.6-.2-.8-.2c-.2-.1-.3-.2-.4-.3s-.1-.3-.1-.5c0-.3.1-.6.4-.8.3-.2.6-.3 1-.3s.8.1 1 .3.4.5.4.8h-.6c0-.2-.1-.3-.2-.4-.1-.1-.3-.2-.6-.2-.2 0-.4.1-.5.2s-.2.2-.2.4.1.3.2.3.3.2.7.2.6.2.8.3.3.2.4.4c.1.1.1.3.1.5 0 .3-.1.6-.4.8-.3.2-.6.3-1 .3-.3 0-.6-.1-.8-.2s-.4-.3-.5-.4c-.1-.2-.2-.4-.2-.6h.6c0 .2.1.4.3.5.2.1.4.2.6.2.2 0 .4 0 .6-.1 0-.3.1-.4.1-.6zM226.6 280.1c-.5 0-.9-.2-1.2-.5-.3-.3-.5-.8-.5-1.3v-.1c0-.4.1-.7.2-1 .1-.3.3-.5.6-.7.3-.2.5-.2.8-.2.5 0 .9.2 1.1.5s.4.8.4 1.4v.3h-2.5c0 .4.1.7.3.9.2.2.5.3.8.3.2 0 .4 0 .6-.1.2-.1.3-.2.4-.4l.4.3c-.3.3-.8.6-1.4.6zm-.1-3.3c-.3 0-.5.1-.6.3-.2.2-.3.4-.3.8h1.9c0-.3-.1-.6-.3-.7-.2-.4-.4-.4-.7-.4zM230.9 279c0-.2-.1-.3-.2-.4-.1-.1-.4-.2-.7-.2s-.6-.2-.8-.2c-.2-.1-.3-.2-.4-.3s-.1-.3-.1-.5c0-.3.1-.6.4-.8.3-.2.6-.3 1-.3s.8.1 1 .3.4.5.4.8h-.6c0-.2-.1-.3-.2-.4-.1-.1-.3-.2-.6-.2-.2 0-.4.1-.5.2s-.2.2-.2.4.1.3.2.3.3.2.7.2.6.2.8.3.3.2.4.4c.1.1.1.3.1.5 0 .3-.1.6-.4.8-.3.2-.6.3-1 .3-.3 0-.6-.1-.8-.2s-.4-.3-.5-.4c-.1-.2-.2-.4-.2-.6h.6c0 .2.1.4.3.5.2.1.4.2.6.2.2 0 .4 0 .6-.1 0-.3.1-.4.1-.6zM232.5 280.4h-.5l2.1-5.4h.5l-2.1 5.4zM238.4 280h-3.3v-.5l1.7-1.9c.3-.3.4-.5.5-.7.1-.2.1-.4.1-.6 0-.3-.1-.5-.2-.6-.2-.2-.4-.2-.6-.2-.3 0-.6.1-.7.3-.2.2-.3.4-.3.7h-.6c0-.5.1-.8.4-1.1s.7-.4 1.2-.4.8.1 1.1.4c.3.2.4.6.4 1 0 .5-.3 1.1-.9 1.8l-1.3 1.4h2.5v.4zM242.2 277.9c0 .7-.1 1.3-.4 1.7-.3.4-.6.5-1.2.5-.5 0-.9-.2-1.2-.5-.3-.4-.4-.9-.4-1.6v-.8c0-.7.1-1.3.4-1.6s.6-.5 1.2-.5c.5 0 .9.2 1.2.5.3.3.4.9.4 1.6v.7zm-.6-.9c0-.5-.1-.9-.2-1.2-.2-.2-.4-.4-.7-.4-.3 0-.6.1-.7.4-.1.2-.2.6-.2 1.1v1c0 .5.1.9.2 1.2.2.3.4.4.7.4.3 0 .5-.1.7-.4s.2-.6.2-1.1v-1zM246.3 280H243v-.5l1.7-1.9c.3-.3.4-.5.5-.7.1-.2.1-.4.1-.6 0-.3-.1-.5-.2-.6-.2-.2-.4-.2-.6-.2-.3 0-.6.1-.7.3-.2.2-.3.4-.3.7h-.5c0-.5.1-.8.4-1.1s.7-.4 1.2-.4.8.1 1.1.4c.3.2.4.6.4 1 0 .5-.3 1.1-.9 1.8l-1.3 1.4h2.5v.4zM250.2 280H247v-.5l1.7-1.9c.3-.3.4-.5.5-.7.1-.2.1-.4.1-.6 0-.3-.1-.5-.2-.6-.2-.2-.4-.2-.6-.2-.3 0-.6.1-.7.3-.2.2-.3.4-.3.7h-.6c0-.5.1-.8.4-1.1s.7-.4 1.2-.4.8.1 1.1.4c.3.2.4.6.4 1 0 .5-.3 1.1-.9 1.8l-1.3 1.4h2.5v.4zM251.1 280.4h-.5l2.1-5.4h.5l-2.1 5.4zM256.9 277.9c0 .7-.1 1.3-.4 1.7-.3.4-.6.5-1.2.5-.5 0-.9-.2-1.2-.5-.3-.4-.4-.9-.4-1.6v-.8c0-.7.1-1.3.4-1.6s.6-.5 1.2-.5c.5 0 .9.2 1.2.5.3.3.4.9.4 1.6v.7zm-.6-.9c0-.5-.1-.9-.2-1.2-.2-.2-.4-.4-.7-.4-.3 0-.6.1-.7.4-.1.2-.2.6-.2 1.1v1c0 .5.1.9.2 1.2.2.3.4.4.7.4.3 0 .5-.1.7-.4s.2-.6.2-1.1v-1zM261 280h-3.3v-.5l1.7-1.9c.3-.3.4-.5.5-.7.1-.2.1-.4.1-.6 0-.3-.1-.5-.2-.6-.2-.2-.4-.2-.6-.2-.3 0-.6.1-.7.3-.2.2-.3.4-.3.7h-.6c0-.5.1-.8.4-1.1s.7-.4 1.2-.4.8.1 1.1.4c.3.2.4.6.4 1 0 .5-.3 1.1-.9 1.8l-1.3 1.4h2.5v.4zM261.8 280.4h-.5l2.1-5.4h.5l-2.1 5.4zM38.8 284.7v.5c.3-.4.7-.5 1.1-.5.8 0 1.2.4 1.2 1.3v2.4h-.6V286c0-.3-.1-.5-.2-.6-.1-.1-.3-.2-.6-.2-.2 0-.4.1-.5.2-.2.1-.3.3-.4.4v2.6h-.6v-3.7h.6zM43.6 288.5c-.5 0-.9-.2-1.2-.5-.3-.3-.5-.8-.5-1.3v-.1c0-.4.1-.7.2-1 .1-.3.3-.5.6-.7.3-.2.5-.2.8-.2.5 0 .9.2 1.1.5s.4.8.4 1.4v.3h-2.5c0 .4.1.7.3.9.2.2.5.3.8.3.2 0 .4 0 .6-.1.2-.1.3-.2.4-.4l.4.3c-.3.3-.7.6-1.4.6zm0-3.3c-.3 0-.5.1-.6.3-.2.2-.3.4-.3.8h1.9c0-.3-.1-.6-.3-.7-.3-.4-.5-.4-.7-.4zM49.1 287.5l.7-2.8h.6l-1.1 3.7h-.5l-.9-2.8-.9 2.8h-.5l-1.1-3.7h.6l.7 2.8.9-2.8h.5l1 2.8zM52.4 286.6h-1.7v-.6h1.7v.6zM52.9 286.5c0-.6.1-1 .4-1.4.3-.3.6-.5 1.1-.5.4 0 .8.1 1 .4v-1.9h.6v5.2h-.6v-.4c-.3.3-.6.5-1.1.5-.4 0-.8-.2-1-.5-.3-.3-.4-.8-.4-1.4zm.6.1c0 .4.1.7.3 1s.4.4.7.4c.4 0 .7-.2.9-.5v-1.7c-.2-.3-.5-.5-.9-.5-.3 0-.6.1-.7.4s-.3.4-.3.9zM59.2 288.4c0-.1-.1-.2-.1-.4-.3.3-.6.5-1.1.5-.4 0-.7-.1-.9-.3-.2-.2-.3-.5-.3-.8 0-.4.1-.7.4-.9.3-.2.7-.3 1.2-.3h.6v-.3c0-.2-.1-.4-.2-.5-.1-.1-.3-.2-.6-.2-.2 0-.4.1-.6.2s-.2.3-.2.4h-.6c0-.2.1-.4.2-.5.1-.2.3-.3.5-.4s.5-.2.7-.2c.4 0 .8.1 1 .3.2.2.4.5.4.9v1.7c0 .3 0 .6.1.8v.1h-.5zm-1-.5c.2 0 .4-.1.6-.2s.3-.2.4-.4v-.8h-.5c-.8 0-1.2.2-1.2.7 0 .2.1.4.2.5s.3.2.5.2zM61.6 283.8v.9h.7v.5h-.7v2.3c0 .1 0 .3.1.3s.2.1.3.1h.3v.5c-.2 0-.3.1-.5.1-.3 0-.5-.1-.6-.3-.1-.2-.2-.4-.2-.7v-2.3h-.7v-.5h.7v-.9h.6zM65.3 288.4c0-.1-.1-.2-.1-.4-.3.3-.6.5-1.1.5-.4 0-.7-.1-.9-.3-.2-.2-.3-.5-.3-.8 0-.4.1-.7.4-.9.3-.2.7-.3 1.2-.3h.6v-.3c0-.2-.1-.4-.2-.5-.1-.1-.3-.2-.6-.2-.2 0-.4.1-.6.2s-.2.3-.2.4H63c0-.2.1-.4.2-.5.1-.2.3-.3.5-.4s.5-.2.7-.2c.4 0 .8.1 1 .3.2.2.4.5.4.9v1.7c0 .3 0 .6.1.8v.1h-.6zm-1-.5c.2 0 .4-.1.6-.2s.3-.2.4-.4v-.8h-.5c-.8 0-1.2.2-1.2.7 0 .2.1.4.2.5s.3.2.5.2zM68.2 286.6h-1.7v-.6h1.7v.6zM70.9 287.4c0-.2-.1-.3-.2-.4-.1-.1-.4-.2-.7-.2s-.6-.2-.8-.2c-.2-.1-.3-.2-.4-.3s-.1-.3-.1-.5c0-.3.1-.6.4-.8.3-.2.6-.3 1-.3s.8.1 1 .3.4.5.4.8h-.6c0-.2-.1-.3-.2-.4-.1-.1-.3-.2-.6-.2-.2 0-.4.1-.5.2s-.2.2-.2.4.1.3.2.3.3.2.7.2.6.2.8.3.3.2.4.4c.1.1.1.3.1.5 0 .3-.1.6-.4.8-.3.2-.6.3-1 .3-.3 0-.6-.1-.8-.2s-.4-.3-.5-.4c-.1-.2-.2-.4-.2-.6h.6c0 .2.1.4.3.5.2.1.4.2.6.2.2 0 .4 0 .6-.1.1-.3.1-.4.1-.6zM73 285.2c.3-.3.6-.5 1.1-.5.8 0 1.2.4 1.2 1.3v2.4h-.6V286c0-.3-.1-.5-.2-.6-.1-.1-.3-.2-.6-.2-.2 0-.4.1-.5.2-.2.1-.3.3-.4.4v2.6h-.6v-5.2h.6v2zM76.1 286.5c0-.4.1-.7.2-1s.3-.5.6-.7.5-.2.9-.2c.5 0 .9.2 1.2.5.3.3.5.8.5 1.4 0 .4-.1.7-.2 1-.1.3-.3.5-.6.7-.3.2-.6.2-.9.2-.5 0-.9-.2-1.2-.5-.4-.3-.5-.8-.5-1.4zm.6.1c0 .4.1.7.3 1s.4.4.8.4c.3 0 .6-.1.8-.4.2-.3.3-.6.3-1.1 0-.4-.1-.7-.3-1-.2-.3-.4-.4-.8-.4-.3 0-.6.1-.8.4s-.3.6-.3 1.1zM83.5 287.5l.7-2.8h.6l-1.1 3.7h-.5l-.9-2.8-.9 2.8H81l-1.1-3.7h.6l.7 2.8.9-2.8h.5l.9 2.8zM87.7 287.4c0-.2-.1-.3-.2-.4-.1-.1-.4-.2-.7-.2s-.6-.2-.8-.2c-.2-.1-.3-.2-.4-.3s-.1-.3-.1-.5c0-.3.1-.6.4-.8.3-.2.6-.3 1-.3s.8.1 1 .3.4.5.4.8h-.6c0-.2-.1-.3-.2-.4-.1-.1-.3-.2-.6-.2-.2 0-.4.1-.5.2s-.2.2-.2.4.1.3.2.3.3.2.7.2.6.2.8.3.3.2.4.4c.1.1.1.3.1.5 0 .3-.1.6-.4.8-.3.2-.6.3-1 .3-.3 0-.6-.1-.8-.2s-.4-.3-.5-.4c-.1-.2-.2-.4-.2-.6h.5c0 .2.1.4.3.5.2.1.4.2.6.2.2 0 .4 0 .6-.1.1-.3.2-.4.2-.6zM90.4 286.6h-1.7v-.6h1.7v.6zM91.4 288.4v-3.2h-.6v-.5h.6v-.4c0-.4.1-.7.3-.9s.5-.3.9-.3c.1 0 .3 0 .4.1v.5h-.3c-.2 0-.4.1-.5.2-.1.1-.2.3-.2.5v.4h.8v.5H92v3.2h-.6zM94.3 283.8v.9h.7v.5h-.7v2.3c0 .1 0 .3.1.3s.2.1.3.1h.3v.5c-.2 0-.3.1-.5.1-.3 0-.5-.1-.6-.3-.1-.2-.2-.4-.2-.7v-2.3H93v-.5h.7v-.9h.6zM97.2 288c.2 0 .4-.1.6-.2.2-.1.3-.3.3-.5h.6c0 .2-.1.4-.2.6s-.3.3-.5.5-.5.2-.7.2c-.5 0-.9-.2-1.2-.5-.3-.3-.4-.8-.4-1.4v-.1c0-.4.1-.7.2-1s.3-.5.6-.7.5-.2.9-.2.8.1 1 .4.4.6.4 1h-.6c0-.2-.1-.4-.3-.6-.2-.2-.4-.2-.6-.2-.3 0-.6.1-.7.3-.2.2-.3.6-.3 1v.1c0 .4.1.8.3 1s.3.3.6.3zM100.7 286.6H99v-.6h1.7v.6zM103.1 285.3h-.3c-.4 0-.7.2-.8.5v2.6h-.6v-3.7h.6v.4c.2-.3.5-.5.9-.5h.3v.7zM105.2 288.5c-.5 0-.9-.2-1.2-.5-.3-.3-.5-.8-.5-1.3v-.1c0-.4.1-.7.2-1 .1-.3.3-.5.6-.7.3-.2.5-.2.8-.2.5 0 .9.2 1.1.5s.4.8.4 1.4v.3h-2.5c0 .4.1.7.3.9.2.2.5.3.8.3.2 0 .4 0 .6-.1.2-.1.3-.2.4-.4l.4.3c-.3.3-.8.6-1.4.6zm-.1-3.3c-.3 0-.5.1-.6.3-.2.2-.3.4-.3.8h1.9c0-.3-.1-.6-.3-.7-.2-.4-.4-.4-.7-.4zM108.9 288c.2 0 .4-.1.6-.2.2-.1.3-.3.3-.5h.6c0 .2-.1.4-.2.6s-.3.3-.5.5-.5.2-.7.2c-.5 0-.9-.2-1.2-.5-.3-.3-.4-.8-.4-1.4v-.1c0-.4.1-.7.2-1s.3-.5.6-.7.5-.2.9-.2.8.1 1 .4.4.6.4 1h-.6c0-.2-.1-.4-.3-.6-.2-.2-.4-.2-.6-.2-.3 0-.6.1-.7.3-.2.2-.3.6-.3 1v.1c0 .4.1.8.3 1s.2.3.6.3zM112.6 288.5c-.5 0-.9-.2-1.2-.5-.3-.3-.5-.8-.5-1.3v-.1c0-.4.1-.7.2-1 .1-.3.3-.5.6-.7.3-.2.5-.2.8-.2.5 0 .9.2 1.1.5s.4.8.4 1.4v.3h-2.5c0 .4.1.7.3.9.2.2.5.3.8.3.2 0 .4 0 .6-.1.2-.1.3-.2.4-.4l.4.3c-.3.3-.8.6-1.4.6zm-.1-3.3c-.3 0-.5.1-.6.3-.2.2-.3.4-.3.8h1.9c0-.3-.1-.6-.3-.7-.2-.4-.4-.4-.7-.4zM114.7 283.7c0-.1 0-.2.1-.3s.2-.1.3-.1.2 0 .3.1.1.2.1.3 0 .2-.1.3-.2.1-.3.1-.2 0-.3-.1-.1-.2-.1-.3zm.7 4.7h-.6v-3.7h.6v3.7zM117.7 287.5l.9-2.8h.6l-1.3 3.7h-.5l-1.3-3.7h.6l1 2.8zM121.3 288.5c-.5 0-.9-.2-1.2-.5-.3-.3-.5-.8-.5-1.3v-.1c0-.4.1-.7.2-1 .1-.3.3-.5.6-.7.3-.2.5-.2.8-.2.5 0 .9.2 1.1.5s.4.8.4 1.4v.3h-2.5c0 .4.1.7.3.9.2.2.5.3.8.3.2 0 .4 0 .6-.1.2-.1.3-.2.4-.4l.4.3c-.3.3-.8.6-1.4.6zm-.1-3.3c-.3 0-.5.1-.6.3-.2.2-.3.4-.3.8h1.9c0-.3-.1-.6-.3-.7-.2-.4-.4-.4-.7-.4zM123.3 286.5c0-.6.1-1 .4-1.4.3-.3.6-.5 1.1-.5.4 0 .8.1 1 .4v-1.9h.6v5.2h-.6v-.4c-.3.3-.6.5-1.1.5-.4 0-.8-.2-1-.5-.2-.3-.4-.8-.4-1.4zm.7.1c0 .4.1.7.3 1s.4.4.7.4c.4 0 .7-.2.9-.5v-1.7c-.2-.3-.5-.5-.9-.5-.3 0-.6.1-.7.4s-.3.4-.3.9zM128.8 286.6h-1.7v-.6h1.7v.6zM132.6 288.4h-3.3v-.4l1.7-1.9c.3-.3.4-.5.5-.7.1-.2.1-.4.1-.6 0-.3-.1-.5-.2-.6-.2-.2-.4-.2-.6-.2-.3 0-.6.1-.7.3-.2.2-.3.4-.3.7h-.6c0-.5.1-.8.4-1.1s.7-.4 1.2-.4.8.1 1.1.4c.3.2.4.6.4 1 0 .5-.3 1.1-.9 1.8l-1.3 1.4h2.5v.3zM136.3 284.7c0 .2-.1.5-.2.7s-.3.3-.5.5c.3.1.5.3.6.5s.2.5.2.7c0 .4-.1.8-.4 1-.3.3-.7.4-1.1.4-.5 0-.9-.1-1.1-.4-.3-.3-.4-.6-.4-1 0-.3.1-.5.2-.7.1-.2.3-.4.6-.5-.2-.1-.4-.3-.5-.5s-.2-.4-.2-.7c0-.4.1-.8.4-1s.6-.4 1.1-.4c.4 0 .8.1 1.1.4 0 .3.2.6.2 1zm-.6 2.3c0-.3-.1-.5-.3-.7s-.4-.3-.7-.3c-.3 0-.5.1-.7.3s-.3.4-.3.7.1.5.3.7c.2.2.4.2.7.2.3 0 .5-.1.7-.2.3-.1.3-.4.3-.7zm-.9-3.1c-.2 0-.4.1-.6.2-.2.2-.2.4-.2.6 0 .3.1.5.2.6.2.2.4.2.6.2.3 0 .5-.1.6-.2.2-.2.2-.4.2-.6s-.1-.5-.2-.6-.4-.2-.6-.2zM138.6 286.6h-1.7v-.6h1.7v.6zM139.8 284.7v.4c.3-.3.6-.5 1.1-.5.5 0 .9.2 1.1.6.1-.2.3-.3.5-.4s.4-.2.7-.2c.8 0 1.2.4 1.2 1.3v2.5h-.6V286c0-.3-.1-.5-.2-.6-.1-.1-.3-.2-.6-.2-.2 0-.4.1-.6.2-.2.1-.2.3-.3.6v2.5h-.6V286c0-.5-.3-.8-.8-.8-.4 0-.7.2-.9.5v2.7h-.6v-3.7h.6zM145.3 283.7c0-.1 0-.2.1-.3s.2-.1.3-.1.2 0 .3.1.1.2.1.3 0 .2-.1.3-.2.1-.3.1-.2 0-.3-.1-.1-.2-.1-.3zm.7 4.7h-.6v-3.7h.6v3.7zM147.7 288.4h-.6v-5.2h.6v5.2zM149.4 288.4h-.6v-5.2h.6v5.2zM150.4 283.7c0-.1 0-.2.1-.3s.2-.1.3-.1.2 0 .3.1.1.2.1.3 0 .2-.1.3-.2.1-.3.1-.2 0-.3-.1-.1-.2-.1-.3zm.7 4.7h-.6v-3.7h.6v3.7zM151.9 286.5c0-.4.1-.7.2-1s.3-.5.6-.7.5-.2.9-.2c.5 0 .9.2 1.2.5.3.3.5.8.5 1.4 0 .4-.1.7-.2 1-.1.3-.3.5-.6.7-.3.2-.6.2-.9.2-.5 0-.9-.2-1.2-.5-.3-.3-.5-.8-.5-1.4zm.7.1c0 .4.1.7.3 1s.4.4.8.4c.3 0 .6-.1.8-.4.2-.3.3-.6.3-1.1 0-.4-.1-.7-.3-1-.2-.3-.4-.4-.8-.4-.3 0-.6.1-.8.4s-.3.6-.3 1.1zM156.7 284.7v.5c.3-.4.7-.5 1.1-.5.8 0 1.2.4 1.2 1.3v2.4h-.6V286c0-.3-.1-.5-.2-.6-.1-.1-.3-.2-.6-.2-.2 0-.4.1-.5.2-.2.1-.3.3-.4.4v2.6h-.6v-3.7h.6zM161.3 286.6h-1.7v-.6h1.7v.6zM162.2 288.4v-3.2h-.6v-.5h.6v-.4c0-.4.1-.7.3-.9s.5-.3.9-.3c.1 0 .3 0 .4.1v.5h-.3c-.2 0-.4.1-.5.2-.1.1-.2.3-.2.5v.4h.8v.5h-.8v3.2h-.6zM166.1 285.3h-.3c-.4 0-.7.2-.8.5v2.6h-.6v-3.7h.6v.4c.2-.3.5-.5.9-.5h.3v.7zM168.8 288.4c0-.1-.1-.2-.1-.4-.3.3-.6.5-1.1.5-.4 0-.7-.1-.9-.3-.2-.2-.3-.5-.3-.8 0-.4.1-.7.4-.9.3-.2.7-.3 1.2-.3h.6v-.3c0-.2-.1-.4-.2-.5-.1-.1-.3-.2-.6-.2-.2 0-.4.1-.6.2s-.2.3-.2.4h-.6c0-.2.1-.4.2-.5.1-.2.3-.3.5-.4s.5-.2.7-.2c.4 0 .8.1 1 .3.2.2.4.5.4.9v1.7c0 .3 0 .6.1.8v.1h-.5zm-1-.5c.2 0 .4-.1.6-.2s.3-.2.4-.4v-.8h-.5c-.8 0-1.2.2-1.2.7 0 .2.1.4.2.5s.3.2.5.2zM172.6 288c-.2.3-.6.4-1.1.4-.4 0-.7-.1-.9-.3-.2-.2-.3-.6-.3-1v-2.4h.6v2.4c0 .6.2.8.7.8.5 0 .8-.2 1-.5v-2.7h.6v3.7h-.6v-.4zM174.1 286.5c0-.6.1-1 .4-1.4.3-.3.6-.5 1.1-.5.4 0 .8.1 1 .4v-1.9h.6v5.2h-.6v-.4c-.3.3-.6.5-1.1.5-.4 0-.8-.2-1-.5-.3-.3-.4-.8-.4-1.4zm.6.1c0 .4.1.7.3 1s.4.4.7.4c.4 0 .7-.2.9-.5v-1.7c-.2-.3-.5-.5-.9-.5-.3 0-.6.1-.7.4s-.3.4-.3.9zM179.5 286.6h-1.7v-.6h1.7v.6zM181.9 285.3h-.3c-.4 0-.7.2-.8.5v2.6h-.6v-3.7h.6v.4c.2-.3.5-.5.9-.5h.3v.7zM183.9 288.5c-.5 0-.9-.2-1.2-.5-.3-.3-.5-.8-.5-1.3v-.1c0-.4.1-.7.2-1 .1-.3.3-.5.6-.7.3-.2.5-.2.8-.2.5 0 .9.2 1.1.5s.4.8.4 1.4v.3h-2.5c0 .4.1.7.3.9.2.2.5.3.8.3.2 0 .4 0 .6-.1.2-.1.3-.2.4-.4l.4.3c-.3.3-.7.6-1.4.6zm0-3.3c-.3 0-.5.1-.6.3-.2.2-.3.4-.3.8h1.9c0-.3-.1-.6-.3-.7-.3-.4-.5-.4-.7-.4zM189.2 286.6c0 .6-.1 1-.4 1.4-.3.3-.6.5-1 .5s-.8-.1-1.1-.4v1.8h-.6v-5.1h.6v.4c.3-.3.6-.5 1.1-.5.4 0 .8.2 1.1.5s.3.7.3 1.4zm-.6-.1c0-.4-.1-.7-.3-1s-.4-.4-.7-.4c-.4 0-.7.2-.9.5v1.8c.2.3.5.5.9.5.3 0 .5-.1.7-.4.2-.1.3-.5.3-1zM189.9 286.5c0-.4.1-.7.2-1s.3-.5.6-.7.5-.2.9-.2c.5 0 .9.2 1.2.5.3.3.5.8.5 1.4 0 .4-.1.7-.2 1-.1.3-.3.5-.6.7-.3.2-.6.2-.9.2-.5 0-.9-.2-1.2-.5-.4-.3-.5-.8-.5-1.4zm.6.1c0 .4.1.7.3 1s.4.4.8.4c.3 0 .6-.1.8-.4.2-.3.3-.6.3-1.1 0-.4-.1-.7-.3-1-.2-.3-.4-.4-.8-.4-.3 0-.6.1-.8.4s-.3.6-.3 1.1zM195.8 285.3h-.3c-.4 0-.7.2-.8.5v2.6h-.7v-3.7h.6v.4c.2-.3.5-.5.9-.5h.3v.7zM197.4 283.8v.9h.7v.5h-.7v2.3c0 .1 0 .3.1.3s.2.1.3.1h.3v.5c-.2 0-.3.1-.5.1-.3 0-.5-.1-.6-.3-.1-.2-.2-.4-.2-.7v-2.3h-.7v-.5h.7v-.9h.6zM201 287.4c0-.2-.1-.3-.2-.4-.1-.1-.4-.2-.7-.2s-.6-.2-.8-.2c-.2-.1-.3-.2-.4-.3s-.1-.3-.1-.5c0-.3.1-.6.4-.8.3-.2.6-.3 1-.3s.8.1 1 .3.4.5.4.8h-.6c0-.2-.1-.3-.2-.4-.1-.1-.3-.2-.6-.2-.2 0-.4.1-.5.2s-.2.2-.2.4.1.3.2.3.3.2.7.2.6.2.8.3.3.2.4.4c.1.1.1.3.1.5 0 .3-.1.6-.4.8-.3.2-.6.3-1 .3-.3 0-.6-.1-.8-.2s-.4-.3-.5-.4c-.1-.2-.2-.4-.2-.6h.6c0 .2.1.4.3.5.2.1.4.2.6.2.2 0 .4 0 .6-.1 0-.3.1-.4.1-.6zM203.8 286.6h-1.7v-.6h1.7v.6zM205.9 288c.2 0 .4-.1.6-.2.2-.1.3-.3.3-.5h.6c0 .2-.1.4-.2.6s-.3.3-.5.5-.5.2-.7.2c-.5 0-.9-.2-1.2-.5-.3-.3-.4-.8-.4-1.4v-.1c0-.4.1-.7.2-1s.3-.5.6-.7.5-.2.9-.2.8.1 1 .4.4.6.4 1h-.6c0-.2-.1-.4-.3-.6-.2-.2-.4-.2-.6-.2-.3 0-.6.1-.7.3-.2.2-.3.6-.3 1v.1c0 .4.1.8.3 1s.3.3.6.3zM207.9 286.5c0-.4.1-.7.2-1s.3-.5.6-.7.5-.2.9-.2c.5 0 .9.2 1.2.5.3.3.5.8.5 1.4 0 .4-.1.7-.2 1-.1.3-.3.5-.6.7-.3.2-.6.2-.9.2-.5 0-.9-.2-1.2-.5-.4-.3-.5-.8-.5-1.4zm.6.1c0 .4.1.7.3 1s.4.4.8.4c.3 0 .6-.1.8-.4.2-.3.3-.6.3-1.1 0-.4-.1-.7-.3-1-.2-.3-.4-.4-.8-.4-.3 0-.6.1-.8.4s-.3.6-.3 1.1zM212.6 284.7v.5c.3-.4.7-.5 1.1-.5.8 0 1.2.4 1.2 1.3v2.4h-.6V286c0-.3-.1-.5-.2-.6-.1-.1-.3-.2-.6-.2-.2 0-.4.1-.5.2-.2.1-.3.3-.4.4v2.6h-.6v-3.7h.6zM218.1 287.4c0-.2-.1-.3-.2-.4-.1-.1-.4-.2-.7-.2s-.6-.2-.8-.2c-.2-.1-.3-.2-.4-.3s-.1-.3-.1-.5c0-.3.1-.6.4-.8.3-.2.6-.3 1-.3s.8.1 1 .3.4.5.4.8h-.7c0-.2-.1-.3-.2-.4-.1-.1-.3-.2-.6-.2-.2 0-.4.1-.5.2s-.2.2-.2.4.1.3.2.3.3.2.7.2.6.2.8.3.3.2.4.4c.1.1.1.3.1.5 0 .3-.1.6-.4.8-.3.2-.6.3-1 .3-.3 0-.6-.1-.8-.2s-.4-.3-.5-.4c-.1-.2-.2-.4-.2-.6h.6c0 .2.1.4.3.5.2.1.4.2.6.2.2 0 .4 0 .6-.1.1-.3.2-.4.2-.6zM221.8 288c-.2.3-.6.4-1.1.4-.4 0-.7-.1-.9-.3-.2-.2-.3-.6-.3-1v-2.4h.6v2.4c0 .6.2.8.7.8.5 0 .8-.2 1-.5v-2.7h.6v3.7h-.6v-.4zM224 284.7v.4c.3-.3.6-.5 1.1-.5.5 0 .9.2 1.1.6.1-.2.3-.3.5-.4s.4-.2.7-.2c.8 0 1.2.4 1.2 1.3v2.5h-.6V286c0-.3-.1-.5-.2-.6-.1-.1-.3-.2-.6-.2-.2 0-.4.1-.6.2-.2.1-.2.3-.3.6v2.5h-.6V286c0-.5-.3-.8-.8-.8-.4 0-.7.2-.9.5v2.7h-.6v-3.7h.6zM231 288.5c-.5 0-.9-.2-1.2-.5-.3-.3-.5-.8-.5-1.3v-.1c0-.4.1-.7.2-1 .1-.3.3-.5.6-.7.3-.2.5-.2.8-.2.5 0 .9.2 1.1.5s.4.8.4 1.4v.3H230c0 .4.1.7.3.9.2.2.5.3.8.3.2 0 .4 0 .6-.1.2-.1.3-.2.4-.4l.4.3c-.4.3-.8.6-1.5.6zm0-3.3c-.3 0-.5.1-.6.3-.2.2-.3.4-.3.8h1.9c0-.3-.1-.6-.3-.7-.3-.4-.5-.4-.7-.4zM235 285.3h-.3c-.4 0-.7.2-.8.5v2.6h-.6v-3.7h.6v.4c.2-.3.5-.5.9-.5h.3v.7zM237.7 287.4c0-.2-.1-.3-.2-.4-.1-.1-.4-.2-.7-.2s-.6-.2-.8-.2c-.2-.1-.3-.2-.4-.3s-.1-.3-.1-.5c0-.3.1-.6.4-.8.3-.2.6-.3 1-.3s.8.1 1 .3.4.5.4.8h-.6c0-.2-.1-.3-.2-.4-.1-.1-.3-.2-.6-.2-.2 0-.4.1-.5.2s-.2.2-.2.4.1.3.2.3.3.2.7.2.6.2.8.3.3.2.4.4c.1.1.1.3.1.5 0 .3-.1.6-.4.8-.3.2-.6.3-1 .3-.3 0-.6-.1-.8-.2s-.4-.3-.5-.4c-.1-.2-.2-.4-.2-.6h.6c0 .2.1.4.3.5.2.1.4.2.6.2.2 0 .4 0 .6-.1.1-.3.1-.4.1-.6zM240.5 286.6h-1.7v-.6h1.7v.6zM244.3 288.4H241v-.4l1.7-1.9c.3-.3.4-.5.5-.7.1-.2.1-.4.1-.6 0-.3-.1-.5-.2-.6-.2-.2-.4-.2-.6-.2-.3 0-.6.1-.7.3-.2.2-.3.4-.3.7h-.5c0-.5.1-.8.4-1.1s.7-.4 1.2-.4.8.1 1.1.4c.3.2.4.6.4 1 0 .5-.3 1.1-.9 1.8l-1.3 1.4h2.5v.3zM248.1 286.3c0 .7-.1 1.3-.4 1.7-.3.4-.6.5-1.2.5-.5 0-.9-.2-1.2-.5-.3-.4-.4-.9-.4-1.6v-.8c0-.7.1-1.3.4-1.6s.6-.5 1.2-.5c.5 0 .9.2 1.2.5.3.3.4.9.4 1.6v.7zm-.6-.9c0-.5-.1-.9-.2-1.2-.2-.2-.4-.4-.7-.4-.3 0-.6.1-.7.4-.1.2-.2.6-.2 1.1v1c0 .5.1.9.2 1.2.2.3.4.4.7.4.3 0 .5-.1.7-.4s.2-.6.2-1.1v-1zM252.2 288.4h-3.3v-.4l1.7-1.9c.3-.3.4-.5.5-.7.1-.2.1-.4.1-.6 0-.3-.1-.5-.2-.6-.2-.2-.4-.2-.6-.2-.3 0-.6.1-.7.3-.2.2-.3.4-.3.7h-.6c0-.5.1-.8.4-1.1s.7-.4 1.2-.4.8.1 1.1.4c.3.2.4.6.4 1 0 .5-.3 1.1-.9 1.8l-1.3 1.4h2.5v.3zM254.9 288.4h-.6v-4.2l-1.3.5v-.6l1.8-.7h.1v5zM258.2 286.6h-1.7v-.6h1.7v.6zM261.8 286.3c0 .7-.1 1.3-.4 1.7-.3.4-.6.5-1.2.5-.5 0-.9-.2-1.2-.5-.3-.4-.4-.9-.4-1.6v-.8c0-.7.1-1.3.4-1.6s.6-.5 1.2-.5c.5 0 .9.2 1.2.5.3.3.4.9.4 1.6v.7zm-.6-.9c0-.5-.1-.9-.2-1.2-.2-.2-.4-.4-.7-.4-.3 0-.6.1-.7.4-.1.2-.2.6-.2 1.1v1c0 .5.1.9.2 1.2.2.3.4.4.7.4.3 0 .5-.1.7-.4s.2-.6.2-1.1v-1z"/><g><path class="st1" d="M36.5 143.6h-4.8v-23.5h4.8v23.5zM45 126.1l.1 2c1.2-1.6 2.9-2.3 5-2.3 1.8 0 3.2.5 4.1 1.6.9 1.1 1.4 2.7 1.4 4.9v11.3H51v-11.2c0-1-.2-1.7-.6-2.2s-1.1-.7-2.1-.7c-1.3 0-2.3.6-3 1.7v12.3h-4.7v-17.4H45zM83.3 143.6H67.2v-3.2l7.6-8.1c1-1.1 1.8-2.1 2.3-3 .5-.8.8-1.7.8-2.4 0-1-.3-1.9-.8-2.5-.5-.6-1.3-.9-2.3-.9-1.1 0-1.9.4-2.5 1.1s-.9 1.7-.9 2.9h-4.7c0-1.4.3-2.7 1-3.9s1.6-2.1 2.9-2.8 2.7-1 4.2-1c2.4 0 4.3.6 5.6 1.7 1.3 1.2 2 2.8 2 4.9 0 1.2-.3 2.3-.9 3.5-.6 1.2-1.6 2.6-3.1 4.2l-5.3 5.6h10.1v3.9zM102 133.9c0 3.2-.7 5.7-2 7.4-1.3 1.7-3.3 2.6-5.9 2.6-2.6 0-4.5-.8-5.9-2.5s-2-4.1-2.1-7.3v-4.3c0-3.3.7-5.8 2-7.5 1.4-1.7 3.3-2.5 5.9-2.5 2.6 0 4.5.8 5.9 2.5s2 4.1 2.1 7.2v4.4zm-4.7-4.8c0-1.9-.3-3.4-.8-4.3s-1.4-1.3-2.5-1.3-1.9.4-2.4 1.3c-.5.8-.8 2.2-.8 4v5.7c0 1.9.3 3.3.8 4.3.5.9 1.4 1.4 2.5 1.4s2-.4 2.5-1.3.8-2.3.8-4.1v-5.7zM121.2 143.6h-16.1v-3.2l7.6-8.1c1-1.1 1.8-2.1 2.3-3 .5-.8.8-1.7.8-2.4 0-1-.3-1.9-.8-2.5-.5-.6-1.3-.9-2.3-.9-1.1 0-1.9.4-2.5 1.1s-.9 1.7-.9 2.9h-4.7c0-1.4.3-2.7 1-3.9s1.6-2.1 2.9-2.8 2.7-1 4.2-1c2.4 0 4.3.6 5.6 1.7 1.3 1.2 2 2.8 2 4.9 0 1.2-.3 2.3-.9 3.5-.6 1.2-1.6 2.6-3.1 4.2l-5.3 5.6h10.1v3.9zM135.4 143.6h-4.7v-18l-5.6 1.7v-3.8l9.7-3.5h.5v23.6zM144.4 149.5l-2.4-1.3.6-1c.7-1.3 1.1-2.6 1.1-3.9v-3.6h3.9v3.2c0 1.2-.3 2.4-.9 3.6-.6 1.2-1.4 2.2-2.3 3zM165.1 121.9v4.3h3v3.4h-3v8.7c0 .6.1 1.1.4 1.4.2.3.7.4 1.4.4.5 0 1 0 1.4-.1v3.5c-.9.3-1.9.4-2.8.4-3.3 0-4.9-1.6-5-5v-9.4H158v-3.4h2.5v-4.3h4.6zM175.2 128c1.2-1.5 2.8-2.2 4.7-2.2 3.8 0 5.7 2.2 5.8 6.6v11.2H181v-11c0-1-.2-1.7-.6-2.2-.4-.5-1.1-.7-2.1-.7-1.4 0-2.4.5-3 1.6v12.4h-4.7v-24.8h4.7v9.1zM197.2 143.9c-2.6 0-4.6-.8-6.2-2.4-1.6-1.6-2.4-3.7-2.4-6.3v-.5c0-1.8.3-3.3 1-4.7.7-1.4 1.6-2.4 2.9-3.2 1.2-.7 2.7-1.1 4.2-1.1 2.4 0 4.3.8 5.6 2.3 1.4 1.5 2.1 3.6 2.1 6.4v1.9h-11.1c.2 1.1.6 2.1 1.4 2.7.8.7 1.7 1 2.9 1 1.8 0 3.2-.7 4.2-2l2.3 2.6c-.7 1-1.6 1.8-2.8 2.3-1.4.7-2.7 1-4.1 1zm-.6-14.3c-.9 0-1.7.3-2.2.9-.6.6-.9 1.5-1.1 2.7h6.5v-.4c0-1-.3-1.8-.8-2.4-.6-.5-1.4-.8-2.4-.8zM229.6 134h-9.3v9.6h-4.8v-23.5h15.3v3.9h-10.4v6.1h9.3v3.9zM251.6 124h-7.2v19.6h-4.8V124h-7.1v-3.9h19.1v3.9zM272.3 135.8c-.2 2.5-1.1 4.5-2.8 6-1.7 1.5-3.9 2.2-6.7 2.2-3 0-5.4-1-7.1-3s-2.6-4.8-2.6-8.3v-1.4c0-2.3.4-4.2 1.2-6 .8-1.7 1.9-3 3.4-4 1.5-.9 3.2-1.4 5.2-1.4 2.7 0 4.9.7 6.5 2.2s2.6 3.5 2.9 6.1h-4.8c-.1-1.5-.5-2.6-1.3-3.3s-1.8-1-3.3-1c-1.6 0-2.8.6-3.6 1.7s-1.2 2.9-1.2 5.4v1.8c0 2.5.4 4.4 1.2 5.6s2 1.8 3.6 1.8c1.5 0 2.6-.3 3.3-1 .7-.7 1.2-1.7 1.3-3.2h4.8zM49.9 166.5c-.6-.1-1.2-.1-1.7-.1-1.8 0-2.9.6-3.5 1.8v11.4H40v-17.4h4.4l.1 2.1c.9-1.6 2.2-2.4 3.9-2.4.5 0 1 .1 1.5.2v4.4zM59.9 179.9c-2.6 0-4.6-.8-6.2-2.4-1.6-1.6-2.4-3.7-2.4-6.3v-.5c0-1.8.3-3.3 1-4.7.7-1.4 1.6-2.4 2.9-3.2 1.2-.7 2.7-1.1 4.2-1.1 2.4 0 4.3.8 5.6 2.3 1.4 1.5 2.1 3.6 2.1 6.4v1.9H56c.2 1.1.6 2.1 1.4 2.7.8.7 1.7 1 2.9 1 1.8 0 3.2-.7 4.2-2l2.3 2.6c-.7 1-1.6 1.8-2.8 2.3-1.3.7-2.7 1-4.1 1zm-.5-14.3c-.9 0-1.7.3-2.2.9-.6.6-.9 1.5-1.1 2.7h6.5v-.4c0-1-.3-1.8-.8-2.4-.7-.5-1.4-.8-2.4-.8zM77 176.2c.9 0 1.6-.2 2.1-.7.5-.5.8-1.1.8-1.9h4.4c0 1.2-.3 2.3-1 3.2-.6 1-1.5 1.7-2.6 2.3-1.1.5-2.3.8-3.7.8-2.5 0-4.5-.8-5.9-2.4S69 173.8 69 171v-.3c0-2.7.7-4.8 2.1-6.4 1.4-1.6 3.4-2.4 5.9-2.4 2.2 0 3.9.6 5.2 1.9 1.3 1.2 2 2.9 2 5h-4.4c0-.9-.3-1.6-.8-2.2-.5-.6-1.2-.9-2.1-.9-1.1 0-1.9.4-2.5 1.2s-.8 2.1-.8 3.9v.5c0 1.8.3 3.1.8 3.9.6.6 1.5 1 2.6 1zM95 179.9c-2.6 0-4.6-.8-6.2-2.4-1.6-1.6-2.4-3.7-2.4-6.3v-.5c0-1.8.3-3.3 1-4.7.7-1.4 1.6-2.4 2.9-3.2 1.2-.7 2.7-1.1 4.2-1.1 2.4 0 4.3.8 5.6 2.3 1.4 1.5 2.1 3.6 2.1 6.4v1.9H91c.2 1.1.6 2.1 1.4 2.7.8.7 1.7 1 2.9 1 1.8 0 3.2-.7 4.2-2l2.3 2.6c-.7 1-1.6 1.8-2.8 2.3-1.3.7-2.6 1-4 1zm-.6-14.3c-.9 0-1.7.3-2.2.9-.6.6-.9 1.5-1.1 2.7h6.5v-.4c0-1-.3-1.8-.8-2.4-.6-.5-1.4-.8-2.4-.8zM104.8 157.6c0-.7.2-1.3.7-1.7.5-.5 1.1-.7 1.9-.7.8 0 1.4.2 1.9.7.5.5.7 1 .7 1.7s-.2 1.3-.7 1.7c-.5.5-1.1.7-1.9.7-.8 0-1.4-.2-1.9-.7-.5-.4-.7-1-.7-1.7zm4.9 22H105v-17.4h4.7v17.4zM120.1 173.9l3.2-11.8h4.9l-5.9 17.4h-4.5l-5.9-17.4h4.9l3.3 11.8zM138.1 179.9c-2.6 0-4.6-.8-6.2-2.4-1.6-1.6-2.4-3.7-2.4-6.3v-.5c0-1.8.3-3.3 1-4.7.7-1.4 1.6-2.4 2.9-3.2 1.2-.7 2.7-1.1 4.2-1.1 2.4 0 4.3.8 5.6 2.3 1.4 1.5 2.1 3.6 2.1 6.4v1.9h-11.1c.2 1.1.6 2.1 1.4 2.7.8.7 1.7 1 2.9 1 1.8 0 3.2-.7 4.2-2l2.3 2.6c-.7 1-1.6 1.8-2.8 2.3-1.4.7-2.7 1-4.1 1zm-.6-14.3c-.9 0-1.7.3-2.2.9-.6.6-.9 1.5-1.1 2.7h6.5v-.4c0-1-.3-1.8-.8-2.4-.6-.5-1.4-.8-2.4-.8zM147.1 170.7c0-2.7.6-4.9 1.8-6.5 1.2-1.6 2.9-2.4 5-2.4 1.7 0 3.1.6 4.2 1.9v-8.9h4.7v24.8h-4.2l-.2-1.9c-1.2 1.5-2.7 2.2-4.5 2.2-2.1 0-3.7-.8-4.9-2.4-1.2-1.6-1.9-3.9-1.9-6.8zm4.7.4c0 1.6.3 2.9.9 3.8.6.9 1.4 1.3 2.5 1.3 1.4 0 2.5-.6 3-1.8v-6.9c-.6-1.2-1.6-1.8-3-1.8-2.3-.1-3.4 1.7-3.4 5.4zM179 162.1l.1 2c1.2-1.6 2.9-2.3 5-2.3 1.8 0 3.2.5 4.1 1.6.9 1.1 1.4 2.7 1.4 4.9v11.3H185v-11.2c0-1-.2-1.7-.6-2.2s-1.1-.7-2.1-.7c-1.3 0-2.3.6-3 1.7v12.3h-4.7v-17.4h4.4zM201.2 179.9c-2.6 0-4.6-.8-6.2-2.4-1.6-1.6-2.4-3.7-2.4-6.3v-.5c0-1.8.3-3.3 1-4.7.7-1.4 1.6-2.4 2.9-3.2 1.2-.7 2.7-1.1 4.2-1.1 2.4 0 4.3.8 5.6 2.3 1.4 1.5 2.1 3.6 2.1 6.4v1.9h-11.1c.2 1.1.6 2.1 1.4 2.7.8.7 1.7 1 2.9 1 1.8 0 3.2-.7 4.2-2l2.3 2.6c-.7 1-1.6 1.8-2.8 2.3-1.3.7-2.6 1-4.1 1zm-.5-14.3c-.9 0-1.7.3-2.2.9-.6.6-.9 1.5-1.1 2.7h6.5v-.4c0-1-.3-1.8-.8-2.4-.6-.5-1.4-.8-2.4-.8zM221.2 179.6c-.2-.4-.4-.9-.5-1.6-1.1 1.3-2.6 1.9-4.4 1.9-1.7 0-3.1-.5-4.2-1.5s-1.7-2.2-1.7-3.7c0-1.8.7-3.3 2.1-4.3 1.4-1 3.4-1.5 5.9-1.5h2.1v-1c0-.8-.2-1.5-.6-1.9-.4-.5-1.1-.7-2-.7-.8 0-1.4.2-1.8.6-.4.4-.7.9-.7 1.5h-4.7c0-1 .3-1.9.9-2.8.6-.9 1.5-1.5 2.6-2s2.4-.7 3.8-.7c2.2 0 3.9.5 5.1 1.6 1.3 1.1 1.9 2.6 1.9 4.6v7.6c0 1.7.2 2.9.7 3.8v.3h-4.5zm-3.9-3.3c.7 0 1.3-.2 1.9-.5.6-.3 1-.7 1.3-1.2v-3h-1.7c-2.3 0-3.6.8-3.7 2.4v.3c0 .6.2 1.1.6 1.4.3.5.9.6 1.6.6zM238.6 166.5c-.6-.1-1.2-.1-1.7-.1-1.8 0-2.9.6-3.5 1.8v11.4h-4.7v-17.4h4.4l.1 2.1c.9-1.6 2.2-2.4 3.9-2.4.5 0 1 .1 1.5.2v4.4zM245.7 179.6H241v-24.8h4.7v24.8zM256.1 173l3.2-10.9h5l-7 20.2-.4.9c-1 2.3-2.8 3.4-5.2 3.4-.7 0-1.4-.1-2.1-.3v-3.5h.7c.9 0 1.5-.1 2-.4.4-.3.8-.7 1-1.3l.5-1.4-6.1-17.5h5l3.4 10.8zM28 215.6h-4.7v-18l-5.6 1.7v-3.8l9.7-3.5h.6v23.6zM36 213.3c0-.7.2-1.3.8-1.8s1.1-.7 1.9-.7c.8 0 1.4.2 1.9.7s.8 1.1.8 1.8-.2 1.3-.7 1.8-1.1.7-1.9.7c-.8 0-1.4-.2-1.9-.7s-.9-1.1-.9-1.8zM59 206.8h2.7v3.8H59v5.1h-4.7v-5.1h-9.6l-.2-2.9 9.8-15.5H59v14.6zm-9.9 0h5.2v-8.3l-.3.5-4.9 7.8zM76.9 198.1l.1 2c1.2-1.5 2.9-2.3 5-2.3 2.2 0 3.8.9 4.6 2.7 1.2-1.8 3-2.7 5.2-2.7 1.9 0 3.3.6 4.2 1.7.9 1.1 1.4 2.8 1.4 5v11.1h-4.7v-11.1c0-1-.2-1.7-.6-2.2-.4-.5-1.1-.7-2-.7-1.4 0-2.4.7-2.9 2v12h-4.7v-11.1c0-1-.2-1.7-.6-2.2s-1.1-.7-2-.7c-1.3 0-2.3.5-2.9 1.6v12.3h-4.7v-17.4h4.6zM101.1 193.6c0-.7.2-1.3.7-1.7.5-.5 1.1-.7 1.9-.7.8 0 1.4.2 1.9.7.5.5.7 1 .7 1.7s-.2 1.3-.7 1.7c-.5.5-1.1.7-1.9.7-.8 0-1.4-.2-1.9-.7-.4-.4-.7-1-.7-1.7zm5 22h-4.7v-17.4h4.7v17.4zM114.8 215.6h-4.7v-24.8h4.7v24.8zM123.6 215.6h-4.7v-24.8h4.7v24.8zM127.4 193.6c0-.7.2-1.3.7-1.7.5-.5 1.1-.7 1.9-.7.8 0 1.4.2 1.9.7.5.5.7 1 .7 1.7s-.2 1.3-.7 1.7c-.5.5-1.1.7-1.9.7-.8 0-1.4-.2-1.9-.7-.5-.4-.7-1-.7-1.7zm4.9 22h-4.7v-17.4h4.7v17.4zM135.5 206.7c0-1.7.3-3.3 1-4.6.7-1.4 1.6-2.4 2.9-3.1 1.3-.7 2.7-1.1 4.4-1.1 2.4 0 4.3.7 5.8 2.2s2.3 3.4 2.5 5.9v1.2c0 2.7-.7 4.8-2.2 6.4-1.5 1.6-3.5 2.4-6 2.4s-4.5-.8-6-2.4c-1.5-1.6-2.2-3.8-2.2-6.6v-.3zm4.6.3c0 1.7.3 2.9.9 3.8.6.9 1.5 1.3 2.7 1.3 1.1 0 2-.4 2.6-1.3.6-.9 1-2.3 1-4.2 0-1.6-.3-2.9-1-3.8-.6-.9-1.5-1.3-2.7-1.3-1.1 0-2 .4-2.6 1.3-.6 1-.9 2.4-.9 4.2zM159.1 198.1l.1 2c1.2-1.6 2.9-2.3 5-2.3 1.8 0 3.2.5 4.1 1.6.9 1.1 1.4 2.7 1.4 4.9v11.3H165v-11.2c0-1-.2-1.7-.6-2.2s-1.1-.7-2.1-.7c-1.3 0-2.3.6-3 1.7v12.3h-4.7v-17.4h4.5zM191.4 202.5c-.6-.1-1.2-.1-1.7-.1-1.8 0-2.9.6-3.5 1.8v11.4h-4.7v-17.4h4.4l.1 2.1c.9-1.6 2.2-2.4 3.9-2.4.5 0 1 .1 1.5.2v4.4zM201.3 215.9c-2.6 0-4.6-.8-6.2-2.4-1.6-1.6-2.4-3.7-2.4-6.3v-.5c0-1.8.3-3.3 1-4.7.7-1.4 1.6-2.4 2.9-3.2 1.2-.7 2.7-1.1 4.2-1.1 2.4 0 4.3.8 5.6 2.3 1.4 1.5 2.1 3.6 2.1 6.4v1.9h-11.1c.2 1.1.6 2.1 1.4 2.7.8.7 1.7 1 2.9 1 1.8 0 3.2-.7 4.2-2l2.3 2.6c-.7 1-1.6 1.8-2.8 2.3-1.3.7-2.6 1-4.1 1zm-.5-14.3c-.9 0-1.7.3-2.2.9-.6.6-.9 1.5-1.1 2.7h6.5v-.4c0-1-.3-1.8-.8-2.4-.6-.5-1.4-.8-2.4-.8zM226.9 207c0 2.7-.6 4.8-1.8 6.5-1.2 1.6-2.9 2.4-4.9 2.4-1.8 0-3.2-.6-4.3-1.8v8.2h-4.7v-24.2h4.3l.2 1.7c1.1-1.4 2.6-2 4.4-2 2.2 0 3.8.8 5 2.4s1.8 3.8 1.8 6.6v.2zm-4.7-.3c0-1.6-.3-2.9-.9-3.8-.6-.9-1.4-1.3-2.5-1.3-1.5 0-2.5.6-3 1.7v7.1c.6 1.2 1.6 1.7 3 1.7 2.3.1 3.4-1.8 3.4-5.4zM229 206.7c0-1.7.3-3.3 1-4.6.7-1.4 1.6-2.4 2.9-3.1 1.3-.7 2.7-1.1 4.4-1.1 2.4 0 4.3.7 5.8 2.2s2.3 3.4 2.5 5.9v1.2c0 2.7-.7 4.8-2.2 6.4-1.5 1.6-3.5 2.4-6 2.4s-4.5-.8-6-2.4c-1.5-1.6-2.2-3.8-2.2-6.6v-.3zm4.7.3c0 1.7.3 2.9.9 3.8.6.9 1.5 1.3 2.7 1.3 1.1 0 2-.4 2.6-1.3.6-.9 1-2.3 1-4.2 0-1.6-.3-2.9-1-3.8-.6-.9-1.5-1.3-2.7-1.3-1.1 0-2 .4-2.6 1.3-.6 1-.9 2.4-.9 4.2zM258.2 202.5c-.6-.1-1.2-.1-1.7-.1-1.8 0-2.9.6-3.5 1.8v11.4h-4.7v-17.4h4.4l.1 2.1c.9-1.6 2.2-2.4 3.9-2.4.5 0 1 .1 1.5.2v4.4zM266.8 193.9v4.3h3v3.4h-3v8.7c0 .6.1 1.1.4 1.4.2.3.7.4 1.4.4.5 0 1 0 1.4-.1v3.5c-.9.3-1.9.4-2.8.4-3.3 0-4.9-1.6-5-5v-9.4h-2.5v-3.4h2.5v-4.3h4.6zM281.9 210.8c0-.6-.3-1-.8-1.3-.6-.3-1.5-.6-2.7-.9-4.2-.9-6.2-2.6-6.2-5.3 0-1.5.6-2.8 1.9-3.9 1.3-1 3-1.6 5-1.6 2.2 0 4 .5 5.3 1.6 1.3 1 2 2.4 2 4.1h-4.7c0-.7-.2-1.2-.6-1.7-.4-.4-1.1-.7-2-.7-.8 0-1.4.2-1.8.5-.4.4-.6.8-.6 1.4 0 .5.2.9.7 1.2.5.3 1.3.6 2.5.8 1.2.2 2.1.5 2.9.8 2.5.9 3.7 2.5 3.7 4.7 0 1.6-.7 2.9-2 3.9-1.4 1-3.1 1.5-5.3 1.5-1.5 0-2.8-.3-3.9-.8s-2-1.2-2.7-2.1c-.6-.9-1-1.9-1-2.9h4.4c0 .8.3 1.5.9 1.9.6.4 1.3.7 2.3.7.9 0 1.6-.2 2-.5s.7-.9.7-1.4zM29.1 242.7c0-1.7.3-3.3 1-4.6.7-1.4 1.6-2.4 2.9-3.1 1.3-.7 2.7-1.1 4.4-1.1 2.4 0 4.3.7 5.8 2.2s2.3 3.4 2.5 5.9v1.2c0 2.7-.7 4.8-2.2 6.4-1.5 1.6-3.5 2.4-6 2.4s-4.5-.8-6-2.4c-1.5-1.6-2.2-3.8-2.2-6.6v-.3zm4.7.3c0 1.7.3 2.9.9 3.8.6.9 1.5 1.3 2.7 1.3 1.1 0 2-.4 2.6-1.3.6-.9 1-2.3 1-4.2 0-1.6-.3-2.9-1-3.8-.6-.9-1.5-1.3-2.7-1.3-1.1 0-2 .4-2.6 1.3-.6 1-.9 2.4-.9 4.2zM49.8 251.6v-14h-2.6v-3.4h2.6v-1.5c0-2 .6-3.5 1.7-4.6 1.1-1.1 2.7-1.6 4.7-1.6.6 0 1.4.1 2.4.3v3.6c-.4-.1-.9-.1-1.4-.1-1.8 0-2.6.8-2.6 2.5v1.4h3.5v3.4h-3.5v14h-4.8zM68.5 229.6c0-.7.2-1.3.7-1.7.5-.5 1.1-.7 1.9-.7.8 0 1.4.2 1.9.7.5.5.7 1 .7 1.7s-.2 1.3-.7 1.7c-.5.5-1.1.7-1.9.7-.8 0-1.4-.2-1.9-.7-.4-.4-.7-1-.7-1.7zm5 22h-4.7v-17.4h4.7v17.4zM76.6 242.7c0-2.7.6-4.9 1.8-6.5 1.2-1.6 2.9-2.4 5-2.4 1.7 0 3.1.6 4.2 1.9v-8.9h4.7v24.8h-4.2l-.2-1.9c-1.2 1.5-2.7 2.2-4.5 2.2-2.1 0-3.7-.8-4.9-2.4-1.3-1.6-1.9-3.9-1.9-6.8zm4.6.4c0 1.6.3 2.9.9 3.8.6.9 1.4 1.3 2.5 1.3 1.4 0 2.5-.6 3-1.8v-6.9c-.6-1.2-1.6-1.8-3-1.8-2.2-.1-3.4 1.7-3.4 5.4zM104 251.9c-2.6 0-4.6-.8-6.2-2.4-1.6-1.6-2.4-3.7-2.4-6.3v-.5c0-1.8.3-3.3 1-4.7.7-1.4 1.6-2.4 2.9-3.2 1.2-.7 2.7-1.1 4.2-1.1 2.4 0 4.3.8 5.6 2.3 1.4 1.5 2.1 3.6 2.1 6.4v1.9H100c.2 1.1.6 2.1 1.4 2.7.8.7 1.7 1 2.9 1 1.8 0 3.2-.7 4.2-2l2.3 2.6c-.7 1-1.6 1.8-2.8 2.3-1.3.7-2.6 1-4 1zm-.6-14.3c-.9 0-1.7.3-2.2.9-.6.6-.9 1.5-1.1 2.7h6.5v-.4c0-1-.3-1.8-.8-2.4-.6-.5-1.4-.8-2.4-.8zM118.1 234.1l.1 2c1.2-1.6 2.9-2.3 5-2.3 1.8 0 3.2.5 4.1 1.6.9 1.1 1.4 2.7 1.4 4.9v11.3H124v-11.2c0-1-.2-1.7-.6-2.2s-1.1-.7-2.1-.7c-1.3 0-2.3.6-3 1.7v12.3h-4.7v-17.4h4.5zM137.8 229.9v4.3h3v3.4h-3v8.7c0 .6.1 1.1.4 1.4.2.3.7.4 1.4.4.5 0 1 0 1.4-.1v3.5c-.9.3-1.9.4-2.8.4-3.3 0-4.9-1.6-5-5v-9.4h-2.5v-3.4h2.5v-4.3h4.6zM143.4 229.6c0-.7.2-1.3.7-1.7.5-.5 1.1-.7 1.9-.7.8 0 1.4.2 1.9.7.5.5.7 1 .7 1.7s-.2 1.3-.7 1.7c-.5.5-1.1.7-1.9.7-.8 0-1.4-.2-1.9-.7-.5-.4-.7-1-.7-1.7zm4.9 22h-4.7v-17.4h4.7v17.4zM157.8 229.9v4.3h3v3.4h-3v8.7c0 .6.1 1.1.4 1.4.2.3.7.4 1.4.4.5 0 1 0 1.4-.1v3.5c-.9.3-1.9.4-2.8.4-3.3 0-4.9-1.6-5-5v-9.4h-2.5v-3.4h2.5v-4.3h4.6zM169.9 245l3.2-10.9h5l-7 20.2-.4.9c-1 2.3-2.8 3.4-5.2 3.4-.7 0-1.4-.1-2.1-.3v-3.5h.7c.9 0 1.5-.1 2-.4.4-.3.8-.7 1-1.3l.5-1.4-6.1-17.5h5l3.4 10.8zM193.7 229.9v4.3h3v3.4h-3v8.7c0 .6.1 1.1.4 1.4.2.3.7.4 1.4.4.5 0 1 0 1.4-.1v3.5c-.9.3-1.9.4-2.8.4-3.3 0-4.9-1.6-5-5v-9.4h-2.5v-3.4h2.5v-4.3h4.6zM203.8 236c1.2-1.5 2.8-2.2 4.7-2.2 3.8 0 5.7 2.2 5.8 6.6v11.2h-4.7v-11c0-1-.2-1.7-.6-2.2-.4-.5-1.1-.7-2.1-.7-1.4 0-2.4.5-3 1.6v12.4h-4.7v-24.8h4.7v9.1zM225.8 251.9c-2.6 0-4.6-.8-6.2-2.4-1.6-1.6-2.4-3.7-2.4-6.3v-.5c0-1.8.3-3.3 1-4.7.7-1.4 1.6-2.4 2.9-3.2 1.2-.7 2.7-1.1 4.2-1.1 2.4 0 4.3.8 5.6 2.3 1.4 1.5 2.1 3.6 2.1 6.4v1.9h-11.1c.2 1.1.6 2.1 1.4 2.7.8.7 1.7 1 2.9 1 1.8 0 3.2-.7 4.2-2l2.3 2.6c-.7 1-1.6 1.8-2.8 2.3-1.3.7-2.6 1-4.1 1zm-.5-14.3c-.9 0-1.7.3-2.2.9-.6.6-.9 1.5-1.1 2.7h6.5v-.4c0-1-.3-1.8-.8-2.4-.7-.5-1.4-.8-2.4-.8zM236.9 251.6v-14h-2.6v-3.4h2.6v-1.5c0-2 .6-3.5 1.7-4.6 1.1-1.1 2.7-1.6 4.7-1.6.6 0 1.4.1 2.4.3v3.6c-.4-.1-.9-.1-1.4-.1-1.8 0-2.6.8-2.6 2.5v1.4h3.5v3.4h-3.5v14h-4.8zM253 229.9v4.3h3v3.4h-3v8.7c0 .6.1 1.1.4 1.4.2.3.7.4 1.4.4.5 0 1 0 1.4-.1v3.5c-.9.3-1.9.4-2.8.4-3.3 0-4.9-1.6-5-5v-9.4h-2.5v-3.4h2.5v-4.3h4.6zM258.9 249.3c0-.7.2-1.3.8-1.8s1.1-.7 1.9-.7c.8 0 1.4.2 1.9.7s.8 1.1.8 1.8-.2 1.3-.7 1.8-1.1.7-1.9.7c-.8 0-1.4-.2-1.9-.7s-.9-1.1-.9-1.8z"/></g></svg>