<svg id="Layer_1" xmlns="http://www.w3.org/2000/svg" viewBox="0 0 300 600"><style>.st0{fill:#fff}.st1{fill:#edf4fd}</style><path class="st0" d="M40.8 278.7c0-.2-.1-.4-.2-.5l-.8-.4c-.4-.2-.7-.3-1-.4-.5-.3-.7-.7-.7-1.1 0-.4.2-.7.5-1s.8-.4 1.3-.4c.3 0 .7.1.9.2s.5.3.6.5c.2.2.2.5.2.8h-.9c0-.3-.1-.5-.2-.6-.2-.1-.4-.2-.7-.2-.3 0-.5.1-.7.2s-.2.3-.2.5.1.3.3.5l.8.4c.4.1.7.2.9.4.2.1.4.3.5.5.1.2.2.4.2.7 0 .4-.2.7-.5 1-.3.2-.7.4-1.3.4-.4 0-.7-.1-1-.2-.3-.1-.5-.3-.7-.6-.2-.2-.3-.5-.3-.8h.9c0 .3.1.5.3.7.2.2.5.2.8.2.3 0 .5-.1.7-.2.2-.2.3-.4.3-.6zM42.2 278.1c0-.4.1-.7.2-1 .1-.3.3-.5.6-.7.3-.2.6-.2.9-.2.5 0 .9.2 1.2.5.3.3.5.7.5 1.3v.2c0 .4-.1.7-.2 1-.1.3-.3.5-.6.7s-.6.2-.9.2c-.5 0-.9-.2-1.3-.5-.3-.4-.4-.9-.4-1.5zm.8.1c0 .4.1.7.2.9.2.2.4.3.7.3.3 0 .5-.1.7-.3s.2-.5.2-1c0-.4-.1-.7-.2-.9-.2-.2-.4-.3-.7-.3-.3 0-.5.1-.6.3-.2.2-.3.6-.3 1zM48.6 279.6c-.2.3-.6.4-1 .4s-.7-.1-.9-.4-.3-.6-.3-1v-2.4h.8v2.4c0 .5.2.7.6.7.4 0 .7-.1.8-.4v-2.7h.8v3.7h-.8v-.3zM52.1 277.1h-.3c-.4 0-.6.1-.8.4v2.5h-.8v-3.7h.8v.4c.2-.3.5-.5.8-.5h.3v.9zM54.1 279.4c.2 0 .4-.1.5-.2s.2-.3.2-.4h.8c0 .2-.1.4-.2.6-.1.2-.3.4-.5.5s-.5.2-.7.2c-.5 0-.9-.2-1.2-.5s-.5-.8-.5-1.4v-.1c0-.6.2-1 .5-1.4.3-.3.7-.5 1.2-.5.4 0 .8.1 1.1.4.3.3.4.6.4 1h-.8c0-.2-.1-.4-.2-.5s-.3-.2-.5-.2c-.3 0-.5.1-.6.3-.1.2-.2.5-.2.9v.1c0 .4.1.7.2.9 0 .2.3.3.5.3zM57.9 280.1c-.5 0-1-.2-1.3-.5-.3-.3-.5-.8-.5-1.3v-.1c0-.4.1-.7.2-1 .1-.3.3-.5.6-.7.3-.2.5-.2.9-.2.5 0 .9.2 1.2.5s.4.8.4 1.4v.3H57c0 .3.1.5.3.7s.4.3.7.3c.4 0 .7-.2.9-.5l.4.4c-.1.2-.3.4-.6.5-.2.1-.5.2-.8.2zm-.1-3.2c-.2 0-.4.1-.6.2-.1.2-.2.4-.3.7h1.6v-.1c0-.3-.1-.5-.2-.6-.1-.1-.3-.2-.5-.2zM60.5 276.2c.2 0 .3 0 .4.1.1.1.1.2.1.3 0 .1 0 .2-.1.3-.1.1-.2.1-.4.1-.1 0-.3 0-.4-.1s-.1-.2-.1-.3 0-.2.1-.3c.2 0 .3-.1.4-.1zm0 2.9c.2 0 .3 0 .4.1.1.1.1.2.1.3 0 .1 0 .2-.1.3-.1.1-.2.1-.4.1-.1 0-.3 0-.4-.1s-.1-.2-.1-.3 0-.2.1-.3c.2 0 .3-.1.4-.1zM64.1 276.9c.1-.2.3-.4.5-.5s.4-.2.7-.2c.4 0 .7.1.9.3s.3.6.3 1v2.4h-.4v-2.4c0-.3-.1-.6-.2-.7s-.4-.2-.7-.2c-.3 0-.5.1-.7.2-.2.2-.3.4-.4.6v2.5h-.4v-5.2h.4v2.2zM68.2 275.4v.9h.8v.3h-.8v2.5c0 .2 0 .4.1.5.1.1.2.2.4.2h.3v.3c-.1 0-.3.1-.4.1-.3 0-.5-.1-.6-.2-.1-.2-.2-.4-.2-.7v-2.5h-.7v-.3h.7v-.9h.4zM70.4 275.4v.9h.8v.3h-.8v2.5c0 .2 0 .4.1.5.1.1.2.2.4.2h.3v.3c-.1 0-.3.1-.4.1-.3 0-.5-.1-.6-.2-.1-.2-.2-.4-.2-.7v-2.5h-.7v-.3h.7v-.9h.4zM75 278.2c0 .6-.1 1-.4 1.4-.3.3-.6.5-1 .5-.5 0-.9-.2-1.2-.5v1.9H72v-5.1h.4v.5c.3-.4.7-.6 1.2-.6.4 0 .8.2 1 .5s.4.7.4 1.4zm-.4-.1c0-.5-.1-.8-.3-1.1-.2-.3-.5-.4-.8-.4-.3 0-.5.1-.6.2-.2.1-.3.3-.4.5v1.8c.1.2.2.4.4.5.2.1.4.2.6.2.3 0 .6-.1.8-.4.2-.4.3-.8.3-1.3zM78.1 279.1c0-.2-.1-.4-.2-.5s-.4-.2-.7-.3c-.3-.1-.6-.1-.8-.2-.2-.1-.3-.2-.4-.3s-.1-.3-.1-.5c0-.3.1-.5.4-.7.2-.2.6-.3.9-.3.4 0 .7.1 1 .3.2.2.4.5.4.8h-.4c0-.2-.1-.4-.3-.5-.2-.1-.4-.2-.7-.2-.3 0-.5.1-.6.2-.2.1-.2.3-.2.5s.1.3.2.4c.1.1.4.2.7.3.4.1.6.2.8.3s.3.2.4.3.1.3.1.5c0 .3-.1.6-.4.7s-.6.3-1 .3-.8-.1-1-.3c-.3-.2-.4-.5-.4-.8h.4c0 .2.1.4.3.6.2.1.4.2.7.2.3 0 .5-.1.7-.2.1-.3.2-.4.2-.6zM79.4 279.8c0-.1 0-.1.1-.2s.1-.1.2-.1.2 0 .2.1c.1.1.1.1.1.2s0 .1-.1.2-.1.1-.2.1-.2 0-.2-.1c-.1-.1-.1-.2-.1-.2zm0-3.2c0-.1 0-.1.1-.2s.1-.1.2-.1.2 0 .2.1c.1.1.1.1.1.2s0 .1-.1.2-.1.1-.2.1-.2 0-.2-.1c-.1 0-.1-.1-.1-.2zM80.9 280.4h-.4l2.1-5.4h.4l-2.1 5.4zM82.9 280.4h-.4l2.1-5.4h.4l-2.1 5.4zM86.6 279.2l.1.3.1-.3.9-2.8h.3l.9 2.8.1.4.1-.4.8-2.8h.4l-1.1 3.7h-.3l-1-2.9v-.2.2l-.9 2.9h-.3l-1.1-3.7h.4l.6 2.8zM91.9 279.2l.1.3.1-.3.9-2.8h.3l.9 2.8.1.4.1-.4.8-2.8h.4l-1.1 3.7h-.3l-1-2.9v-.2.2l-.9 2.9H92l-1.1-3.7h.4l.6 2.8zM97.2 279.2l.1.3.1-.3.9-2.8h.3l.9 2.8.1.4.1-.4.8-2.8h.4l-1.1 3.7h-.3l-1-2.9v-.2.2l-.9 2.9H97l-1.1-3.7h.4l.9 2.8zM101.1 279.8c0-.1 0-.1.1-.2s.1-.1.2-.1.2 0 .2.1c.1.1.1.1.1.2s0 .1-.1.2-.1.1-.2.1-.2 0-.2-.1c-.1-.1-.1-.2-.1-.2zM103.1 280v-3.4h-.6v-.3h.6v-.4c0-.4.1-.7.3-.9s.5-.3.8-.3c.2 0 .3 0 .4.1v.3h-.4c-.2 0-.4.1-.5.2-.1.1-.2.3-.2.6v.5h.9v.3h-.9v3.4h-.4zM105.8 275.4v.9h.8v.3h-.8v2.5c0 .2 0 .4.1.5.1.1.2.2.4.2h.3v.3c-.1 0-.3.1-.4.1-.3 0-.5-.1-.6-.2-.1-.2-.2-.4-.2-.7v-2.5h-.7v-.3h.7v-.9h.4zM108.7 279.7c.3 0 .5-.1.7-.2.2-.2.3-.4.3-.6h.4c0 .2-.1.4-.2.6-.1.2-.3.3-.5.4-.2.1-.4.2-.7.2-.5 0-.9-.2-1.2-.5-.3-.3-.4-.8-.4-1.4v-.1c0-.4.1-.7.2-1s.3-.5.5-.6.5-.2.8-.2c.4 0 .7.1 1 .4.3.2.4.6.4 1h-.4c0-.3-.1-.5-.3-.7s-.4-.3-.7-.3c-.4 0-.7.1-.9.4s-.3.6-.3 1.1v.1c0 .5.1.8.3 1.1s.7.3 1 .3zM110.9 279.8c0-.1 0-.1.1-.2s.1-.1.2-.1.2 0 .2.1c.1.1.1.1.1.2s0 .1-.1.2-.1.1-.2.1-.2 0-.2-.1-.1-.2-.1-.2zM112.5 278.1c0-.6.1-1 .4-1.4.3-.3.6-.5 1-.5.5 0 .9.2 1.1.6v-.5h.4v3.6c0 .5-.1.9-.4 1.1-.3.3-.6.4-1.1.4-.3 0-.5-.1-.7-.2-.2-.1-.4-.3-.6-.5l.2-.2c.3.4.6.5 1 .5.3 0 .6-.1.8-.3.2-.2.3-.5.3-.8v-.5c-.3.4-.6.5-1.1.5-.4 0-.8-.2-1-.5s-.3-.6-.3-1.3zm.4.1c0 .5.1.8.3 1.1.2.3.5.4.8.4.5 0 .9-.2 1.1-.7v-1.7c-.1-.2-.2-.4-.4-.5-.2-.1-.4-.2-.6-.2-.3 0-.6.1-.8.4-.3.3-.4.7-.4 1.2zM116.3 278.1c0-.4.1-.7.2-1s.3-.5.6-.7c.3-.2.5-.2.9-.2.5 0 .9.2 1.2.5.3.3.5.8.5 1.4v.1c0 .4-.1.7-.2 1-.1.3-.3.5-.6.7-.3.2-.5.2-.9.2-.5 0-.9-.2-1.2-.5-.3-.4-.5-.8-.5-1.5zm.4.1c0 .4.1.8.3 1.1.2.3.5.4.9.4s.7-.1.9-.4c.2-.3.3-.7.3-1.1v-.1c0-.3-.1-.5-.2-.8-.1-.2-.3-.4-.4-.5-.2-.1-.4-.2-.6-.2-.4 0-.7.1-.9.4-.2.3-.3.7-.3 1.2zM121.5 279.4l1.1-3.1h.4l-1.4 3.7h-.3l-1.4-3.7h.4l1.2 3.1zM123.7 280.4h-.4l2.1-5.4h.4l-2.1 5.4zM126.9 276.3v.6c.1-.2.3-.4.5-.5.2-.1.4-.2.7-.2.4 0 .7.1.9.3s.3.6.3 1v2.4h-.4v-2.4c0-.3-.1-.6-.2-.7s-.4-.2-.7-.2c-.3 0-.5.1-.7.2-.2.2-.3.4-.4.6v2.5h-.4v-3.7h.4zM131.8 280.1c-.3 0-.6-.1-.9-.2s-.5-.4-.6-.6c-.1-.3-.2-.6-.2-.9v-.1c0-.4.1-.7.2-1s.3-.5.6-.7c.2-.2.5-.2.8-.2.4 0 .8.2 1.1.5.3.3.4.7.4 1.3v.2h-2.6v.1c0 .4.1.8.4 1 .2.3.5.4.9.4.2 0 .4 0 .6-.1.2-.1.3-.2.5-.4l.3.2c-.5.3-.9.5-1.5.5zm-.1-3.5c-.3 0-.6.1-.8.3s-.3.5-.4.9h2.2c0-.4-.1-.6-.3-.9s-.3-.3-.7-.3zM134.9 279.2l.1.3.1-.3.9-2.8h.3l.9 2.8.1.4.1-.4.8-2.8h.4l-1.1 3.7h-.3l-1-2.9v-.2.2l-.9 2.9h-.3l-1.1-3.7h.4l.6 2.8zM141.5 279.1c0-.2-.1-.4-.2-.5s-.4-.2-.7-.3c-.3-.1-.6-.1-.8-.2-.2-.1-.3-.2-.4-.3s-.1-.3-.1-.5c0-.3.1-.5.4-.7.2-.2.6-.3.9-.3.4 0 .7.1 1 .3.2.2.4.5.4.8h-.4c0-.2-.1-.4-.3-.5-.2-.1-.4-.2-.7-.2-.3 0-.5.1-.6.2-.2.1-.2.3-.2.5s.1.3.2.4c.1.1.4.2.7.3.4.1.6.2.8.3s.3.2.4.3.1.3.1.5c0 .3-.1.6-.4.7s-.6.3-1 .3-.8-.1-1-.3c-.3-.2-.4-.5-.4-.8h.4c0 .2.1.4.3.6.2.1.4.2.7.2.3 0 .5-.1.7-.2.1-.3.2-.4.2-.6zM144.1 278h-1.6v-.3h1.6v.3zM146.3 280.1c-.3 0-.6-.1-.9-.2s-.5-.4-.6-.6c-.1-.3-.2-.6-.2-.9v-.1c0-.4.1-.7.2-1s.3-.5.6-.7c.2-.2.5-.2.8-.2.4 0 .8.2 1.1.5.3.3.4.7.4 1.3v.2H145v.1c0 .4.1.8.4 1 .2.3.5.4.9.4.2 0 .4 0 .6-.1.2-.1.3-.2.5-.4l.3.2c-.4.3-.9.5-1.4.5zm-.1-3.5c-.3 0-.6.1-.8.3s-.3.5-.4.9h2.2c0-.4-.1-.6-.3-.9s-.4-.3-.7-.3zM149.5 279.4l1.1-3.1h.4l-1.4 3.7h-.3l-1.4-3.7h.4l1.2 3.1zM153.2 280.1c-.3 0-.6-.1-.9-.2s-.5-.4-.6-.6c-.1-.3-.2-.6-.2-.9v-.1c0-.4.1-.7.2-1s.3-.5.6-.7c.2-.2.5-.2.8-.2.4 0 .8.2 1.1.5.3.3.4.7.4 1.3v.2H152v.1c0 .4.1.8.4 1 .2.3.5.4.9.4.2 0 .4 0 .6-.1.2-.1.3-.2.5-.4l.3.2c-.5.3-1 .5-1.5.5zm-.1-3.5c-.3 0-.6.1-.8.3s-.3.5-.4.9h2.2c0-.4-.1-.6-.3-.9s-.4-.3-.7-.3zM155.7 276.3v.6c.1-.2.3-.4.5-.5.2-.1.4-.2.7-.2.4 0 .7.1.9.3s.3.6.3 1v2.4h-.4v-2.4c0-.3-.1-.6-.2-.7s-.4-.2-.7-.2c-.3 0-.5.1-.7.2-.2.2-.3.4-.4.6v2.5h-.4v-3.7h.4zM159.8 275.4v.9h.8v.3h-.8v2.5c0 .2 0 .4.1.5.1.1.2.2.4.2h.3v.3c-.1 0-.3.1-.4.1-.3 0-.5-.1-.6-.2-.1-.2-.2-.4-.2-.7v-2.5h-.7v-.3h.7v-.9h.4zM163.6 279.1c0-.2-.1-.4-.2-.5s-.4-.2-.7-.3c-.3-.1-.6-.1-.8-.2-.2-.1-.3-.2-.4-.3s-.1-.3-.1-.5c0-.3.1-.5.4-.7.2-.2.6-.3.9-.3.4 0 .7.1 1 .3.2.2.4.5.4.8h-.4c0-.2-.1-.4-.3-.5-.2-.1-.4-.2-.7-.2-.3 0-.5.1-.6.2-.2.1-.2.3-.2.5s.1.3.2.4c.1.1.4.2.7.3.4.1.6.2.8.3s.3.2.4.3.1.3.1.5c0 .3-.1.6-.4.7s-.6.3-1 .3-.8-.1-1-.3c-.3-.2-.4-.5-.4-.8h.4c0 .2.1.4.3.6.2.1.4.2.7.2.3 0 .5-.1.7-.2.2-.3.2-.4.2-.6zM164.9 280.4h-.4l2.1-5.4h.4l-2.1 5.4zM168.1 276.3v.6c.1-.2.3-.4.5-.5.2-.1.4-.2.7-.2.4 0 .7.1.9.3s.3.6.3 1v2.4h-.4v-2.4c0-.3-.1-.6-.2-.7s-.4-.2-.7-.2c-.3 0-.5.1-.7.2-.2.2-.3.4-.4.6v2.5h-.4v-3.7h.4zM173 280.1c-.3 0-.6-.1-.9-.2s-.5-.4-.6-.6c-.1-.3-.2-.6-.2-.9v-.1c0-.4.1-.7.2-1s.3-.5.6-.7c.2-.2.5-.2.8-.2.4 0 .8.2 1.1.5.3.3.4.7.4 1.3v.2h-2.6v.1c0 .4.1.8.4 1 .2.3.5.4.9.4.2 0 .4 0 .6-.1.2-.1.3-.2.5-.4l.3.2c-.5.3-.9.5-1.5.5zm0-3.5c-.3 0-.6.1-.8.3s-.3.5-.4.9h2.2c0-.4-.1-.6-.3-.9s-.4-.3-.7-.3zM176.1 279.2l.1.3.1-.3.9-2.8h.3l.9 2.8.1.4.1-.4.8-2.8h.4l-1.1 3.7h-.3l-1-2.9v-.2.2l-.9 2.9h-.5l-1.1-3.7h.4l.8 2.8zM182.7 279.1c0-.2-.1-.4-.2-.5s-.4-.2-.7-.3c-.3-.1-.6-.1-.8-.2-.2-.1-.3-.2-.4-.3s-.1-.3-.1-.5c0-.3.1-.5.4-.7.2-.2.6-.3.9-.3.4 0 .7.1 1 .3.2.2.4.5.4.8h-.4c0-.2-.1-.4-.3-.5-.2-.1-.4-.2-.7-.2-.3 0-.5.1-.6.2-.2.1-.2.3-.2.5s.1.3.2.4c.1.1.4.2.7.3.4.1.6.2.8.3s.3.2.4.3.1.3.1.5c0 .3-.1.6-.4.7s-.6.3-1 .3-.8-.1-1-.3c-.3-.2-.4-.5-.4-.8h.4c0 .2.1.4.3.6.2.1.4.2.7.2.3 0 .5-.1.7-.2.1-.3.2-.4.2-.6zM184 280.4h-.4l2.1-5.4h.4l-2.1 5.4zM189.8 278.2c0 .6-.1 1-.4 1.4-.3.3-.6.5-1 .5-.5 0-.9-.2-1.2-.5v1.9h-.4v-5.1h.4v.5c.3-.4.7-.6 1.2-.6.4 0 .8.2 1 .5s.4.7.4 1.4zm-.4-.1c0-.5-.1-.8-.3-1.1-.2-.3-.5-.4-.8-.4-.3 0-.5.1-.6.2-.2.1-.3.3-.4.5v1.8c.1.2.2.4.4.5.2.1.4.2.6.2.3 0 .6-.1.8-.4.2-.4.3-.8.3-1.3zM192.4 276.7h-.3c-.3 0-.5.1-.6.2-.2.1-.3.3-.4.6v2.5h-.4v-3.7h.4v.6c.2-.4.6-.7 1-.7h.3v.5zM194.4 280.1c-.3 0-.6-.1-.9-.2s-.5-.4-.6-.6c-.1-.3-.2-.6-.2-.9v-.1c0-.4.1-.7.2-1s.3-.5.6-.7c.2-.2.5-.2.8-.2.4 0 .8.2 1.1.5.3.3.4.7.4 1.3v.2h-2.6v.1c0 .4.1.8.4 1 .2.3.5.4.9.4.2 0 .4 0 .6-.1.2-.1.3-.2.5-.4l.3.2c-.5.3-.9.5-1.5.5zm-.1-3.5c-.3 0-.6.1-.8.3s-.3.5-.4.9h2.2c0-.4-.1-.6-.3-.9s-.3-.3-.7-.3zM198.8 279.1c0-.2-.1-.4-.2-.5s-.4-.2-.7-.3c-.3-.1-.6-.1-.8-.2-.2-.1-.3-.2-.4-.3s-.1-.3-.1-.5c0-.3.1-.5.4-.7.2-.2.6-.3.9-.3.4 0 .7.1 1 .3.2.2.4.5.4.8h-.4c0-.2-.1-.4-.3-.5-.2-.1-.4-.2-.7-.2-.3 0-.5.1-.6.2-.2.1-.2.3-.2.5s.1.3.2.4c.1.1.4.2.7.3.4.1.6.2.8.3s.3.2.4.3.1.3.1.5c0 .3-.1.6-.4.7s-.6.3-1 .3-.8-.1-1-.3c-.3-.2-.4-.5-.4-.8h.4c0 .2.1.4.3.6.2.1.4.2.7.2.3 0 .5-.1.7-.2.1-.3.2-.4.2-.6zM202.4 279.1c0-.2-.1-.4-.2-.5s-.4-.2-.7-.3c-.3-.1-.6-.1-.8-.2-.2-.1-.3-.2-.4-.3s-.1-.3-.1-.5c0-.3.1-.5.4-.7.2-.2.6-.3.9-.3.4 0 .7.1 1 .3.2.2.4.5.4.8h-.4c0-.2-.1-.4-.3-.5-.2-.1-.4-.2-.7-.2-.3 0-.5.1-.6.2-.2.1-.2.3-.2.5s.1.3.2.4c.1.1.4.2.7.3.4.1.6.2.8.3s.3.2.4.3.1.3.1.5c0 .3-.1.6-.4.7s-.6.3-1 .3-.8-.1-1-.3c-.3-.2-.4-.5-.4-.8h.4c0 .2.1.4.3.6.2.1.4.2.7.2.3 0 .5-.1.7-.2.1-.3.2-.4.2-.6zM205 278h-1.6v-.3h1.6v.3zM207.4 276.7h-.3c-.3 0-.5.1-.6.2-.2.1-.3.3-.4.6v2.5h-.4v-3.7h.4v.6c.2-.4.6-.7 1-.7h.3v.5zM209.4 280.1c-.3 0-.6-.1-.9-.2s-.5-.4-.6-.6c-.1-.3-.2-.6-.2-.9v-.1c0-.4.1-.7.2-1s.3-.5.6-.7c.2-.2.5-.2.8-.2.4 0 .8.2 1.1.5.3.3.4.7.4 1.3v.2h-2.6v.1c0 .4.1.8.4 1 .2.3.5.4.9.4.2 0 .4 0 .6-.1.2-.1.3-.2.5-.4l.3.2c-.5.3-.9.5-1.5.5zm-.1-3.5c-.3 0-.6.1-.8.3s-.3.5-.4.9h2.2c0-.4-.1-.6-.3-.9s-.3-.3-.7-.3zM212.1 280h-.4v-5.2h.4v5.2zM214.6 280.1c-.3 0-.6-.1-.9-.2s-.5-.4-.6-.6c-.1-.3-.2-.6-.2-.9v-.1c0-.4.1-.7.2-1s.3-.5.6-.7c.2-.2.5-.2.8-.2.4 0 .8.2 1.1.5.3.3.4.7.4 1.3v.2h-2.6v.1c0 .4.1.8.4 1 .2.3.5.4.9.4.2 0 .4 0 .6-.1.2-.1.3-.2.5-.4l.3.2c-.5.3-.9.5-1.5.5zm-.1-3.5c-.3 0-.6.1-.8.3s-.3.5-.4.9h2.2c0-.4-.1-.6-.3-.9s-.4-.3-.7-.3zM219.1 280c0-.1-.1-.3-.1-.5-.1.2-.3.3-.5.4-.2.1-.5.2-.7.2-.4 0-.6-.1-.9-.3s-.3-.4-.3-.8.1-.6.4-.9.7-.3 1.3-.3h.7v-.4c0-.3-.1-.5-.2-.6-.2-.2-.4-.2-.7-.2-.3 0-.5.1-.7.2s-.3.3-.3.5h-.4c0-.3.1-.5.4-.8.3-.2.6-.3 1-.3s.7.1 1 .3c.2.2.4.5.4.9v1.8c0 .4 0 .6.1.8h-.5zm-1.3-.3c.3 0 .5-.1.7-.2.2-.1.4-.3.5-.5v-.8h-.7c-.4 0-.7.1-1 .2-.2.1-.3.3-.3.6 0 .2.1.4.2.5.2.1.4.2.6.2zM222.7 279.1c0-.2-.1-.4-.2-.5s-.4-.2-.7-.3c-.3-.1-.6-.1-.8-.2-.2-.1-.3-.2-.4-.3s-.1-.3-.1-.5c0-.3.1-.5.4-.7.2-.2.6-.3.9-.3.4 0 .7.1 1 .3.2.2.4.5.4.8h-.4c0-.2-.1-.4-.3-.5-.2-.1-.4-.2-.7-.2-.3 0-.5.1-.6.2-.2.1-.2.3-.2.5s.1.3.2.4c.1.1.4.2.7.3.4.1.6.2.8.3s.3.2.4.3.1.3.1.5c0 .3-.1.6-.4.7s-.6.3-1 .3-.8-.1-1-.3c-.3-.2-.4-.5-.4-.8h.4c0 .2.1.4.3.6.2.1.4.2.7.2.3 0 .5-.1.7-.2.2-.3.2-.4.2-.6zM225.5 280.1c-.3 0-.6-.1-.9-.2s-.5-.4-.6-.6c-.1-.3-.2-.6-.2-.9v-.1c0-.4.1-.7.2-1s.3-.5.6-.7c.2-.2.5-.2.8-.2.4 0 .8.2 1.1.5.3.3.4.7.4 1.3v.2h-2.6v.1c0 .4.1.8.4 1 .2.3.5.4.9.4.2 0 .4 0 .6-.1.2-.1.3-.2.5-.4l.3.2c-.5.3-.9.5-1.5.5zm-.1-3.5c-.3 0-.6.1-.8.3s-.3.5-.4.9h2.2c0-.4-.1-.6-.3-.9s-.4-.3-.7-.3zM229.9 279.1c0-.2-.1-.4-.2-.5s-.4-.2-.7-.3c-.3-.1-.6-.1-.8-.2-.2-.1-.3-.2-.4-.3s-.1-.3-.1-.5c0-.3.1-.5.4-.7.2-.2.6-.3.9-.3.4 0 .7.1 1 .3.2.2.4.5.4.8h-.4c0-.2-.1-.4-.3-.5-.2-.1-.4-.2-.7-.2-.3 0-.5.1-.6.2-.2.1-.2.3-.2.5s.1.3.2.4c.1.1.4.2.7.3.4.1.6.2.8.3s.3.2.4.3.1.3.1.5c0 .3-.1.6-.4.7s-.6.3-1 .3-.8-.1-1-.3c-.3-.2-.4-.5-.4-.8h.4c0 .2.1.4.3.6.2.1.4.2.7.2.3 0 .5-.1.7-.2.1-.3.2-.4.2-.6zM231.2 280.4h-.4l2.1-5.4h.4l-2.1 5.4zM237.1 280H234v-.3l1.7-1.9c.3-.3.5-.6.6-.8s.2-.4.2-.6c0-.3-.1-.6-.3-.7-.2-.2-.4-.3-.8-.3-.3 0-.6.1-.8.3s-.3.5-.3.8h-.4c0-.3.1-.5.2-.8.1-.2.3-.4.5-.5.2-.1.5-.2.8-.2.5 0 .8.1 1.1.4.3.2.4.6.4 1 0 .2-.1.5-.2.8s-.4.6-.8 1l-1.4 1.6h2.6v.2zM240.8 277.9c0 .7-.1 1.2-.4 1.6-.3.4-.6.5-1.1.5-.5 0-.9-.2-1.1-.5-.3-.4-.4-.9-.4-1.6v-.9c0-.7.1-1.2.4-1.6s.6-.5 1.1-.5c.5 0 .9.2 1.1.5.3.3.4.9.4 1.5v1zm-.4-.9c0-.6-.1-1-.3-1.3s-.5-.4-.8-.4c-.4 0-.6.1-.8.4-.2.3-.3.7-.3 1.3v1c0 .6.1 1 .3 1.3s.5.5.8.5c.4 0 .6-.1.8-.4.2-.3.3-.7.3-1.3V277zM244.8 280h-3.1v-.3l1.7-1.9c.3-.3.5-.6.6-.8s.2-.4.2-.6c0-.3-.1-.6-.3-.7-.2-.2-.4-.3-.8-.3-.3 0-.6.1-.8.3s-.3.5-.3.8h-.4c0-.3.1-.5.2-.8.1-.2.3-.4.5-.5.2-.1.5-.2.8-.2.5 0 .8.1 1.1.4.3.2.4.6.4 1 0 .2-.1.5-.2.8s-.4.6-.8 1l-1.4 1.6h2.6v.2zM248.7 280h-3.1v-.3l1.7-1.9c.3-.3.5-.6.6-.8s.2-.4.2-.6c0-.3-.1-.6-.3-.7-.2-.2-.4-.3-.8-.3-.3 0-.6.1-.8.3s-.3.5-.3.8h-.4c0-.3.1-.5.2-.8.1-.2.3-.4.5-.5.2-.1.5-.2.8-.2.5 0 .8.1 1.1.4.3.2.4.6.4 1 0 .2-.1.5-.2.8s-.4.6-.8 1l-1.4 1.6h2.6v.2zM249.5 280.4h-.4l2.1-5.4h.4l-2.1 5.4zM255.2 277.9c0 .7-.1 1.2-.4 1.6-.3.4-.6.5-1.1.5-.5 0-.9-.2-1.1-.5-.3-.4-.4-.9-.4-1.6v-.9c0-.7.1-1.2.4-1.6s.6-.5 1.1-.5c.5 0 .9.2 1.1.5.3.3.4.9.4 1.5v1zm-.4-.9c0-.6-.1-1-.3-1.3s-.5-.4-.8-.4c-.4 0-.6.1-.8.4-.2.3-.3.7-.3 1.3v1c0 .6.1 1 .3 1.3s.5.5.8.5c.4 0 .6-.1.8-.4.2-.3.3-.7.3-1.3V277zM259.2 280h-3.1v-.3l1.7-1.9c.3-.3.5-.6.6-.8s.2-.4.2-.6c0-.3-.1-.6-.3-.7-.2-.2-.4-.3-.8-.3-.3 0-.6.1-.8.3s-.3.5-.3.8h-.4c0-.3.1-.5.2-.8.1-.2.3-.4.5-.5.2-.1.5-.2.8-.2.5 0 .8.1 1.1.4.3.2.4.6.4 1 0 .2-.1.5-.2.8s-.4.6-.8 1l-1.4 1.6h2.6v.2zM260 280.4h-.4l2.1-5.4h.4l-2.1 5.4zM39.8 284.7v.6c.1-.2.3-.4.5-.5.2-.1.4-.2.7-.2.4 0 .7.1.9.3s.3.6.3 1v2.4h-.4V286c0-.3-.1-.6-.2-.7s-.3-.3-.6-.3-.5.1-.7.2c-.2.2-.3.4-.4.6v2.5h-.4v-3.7h.3zM44.7 288.5c-.3 0-.6-.1-.9-.2s-.5-.4-.6-.6c-.1-.3-.2-.6-.2-.9v-.1c0-.4.1-.7.2-1s.3-.5.6-.7c.2-.2.5-.2.8-.2.4 0 .8.2 1.1.5.3.3.4.7.4 1.3v.2h-2.6v.1c0 .4.1.8.4 1 .2.3.5.4.9.4.2 0 .4 0 .6-.1.2-.1.3-.2.5-.4l.3.2c-.5.3-.9.5-1.5.5zm0-3.5c-.3 0-.6.1-.8.3s-.3.5-.4.9h2.2c0-.4-.1-.6-.3-.9s-.4-.3-.7-.3zM47.8 287.6l.1.3.1-.3.9-2.8h.3l.9 2.8.1.4.1-.4.8-2.8h.4l-1.1 3.7H50l-1-2.9v-.2.2l-.9 2.9h-.3l-1.1-3.7h.3l.8 2.8zM53.5 286.4h-1.6v-.4h1.6v.4zM54 286.5c0-.6.1-1 .4-1.4.3-.3.6-.5 1-.5.5 0 .9.2 1.1.6v-2.1h.5v5.2h-.4v-.5c-.3.4-.6.6-1.2.6-.4 0-.8-.2-1-.5-.2-.3-.4-.7-.4-1.4zm.4.1c0 .5.1.8.3 1.1.2.3.5.4.8.4.5 0 .9-.2 1.1-.7v-1.7c-.2-.5-.6-.7-1.1-.7-.3 0-.6.1-.8.4-.2.3-.3.7-.3 1.2zM60.4 288.4c0-.1-.1-.3-.1-.5-.1.2-.3.3-.5.4-.2.1-.5.2-.7.2-.4 0-.6-.1-.9-.3s-.3-.4-.3-.8.1-.6.4-.9.7-.3 1.3-.3h.7v-.4c0-.3-.1-.5-.2-.6-.2-.2-.4-.2-.7-.2-.3 0-.5.1-.7.2s-.3.3-.3.5H58c0-.3.1-.5.4-.8.3-.2.6-.3 1-.3s.7.1 1 .3c.2.2.4.5.4.9v1.8c0 .4 0 .6.1.8h-.5zm-1.3-.3c.3 0 .5-.1.7-.2.2-.1.4-.3.5-.5v-.8h-.7c-.4 0-.7.1-1 .2-.2.1-.3.3-.3.6 0 .2.1.4.2.5.2.1.4.2.6.2zM62.5 283.8v.9h.8v.3h-.8v2.5c0 .2 0 .4.1.5.1.1.2.2.4.2h.3v.3c-.1 0-.3.1-.4.1-.3 0-.5-.1-.6-.2-.1-.2-.2-.4-.2-.7V285h-.7v-.3h.7v-.9h.4zM66.4 288.4c0-.1-.1-.3-.1-.5-.1.2-.3.3-.5.4-.2.1-.5.2-.7.2-.4 0-.6-.1-.9-.3s-.3-.4-.3-.8.1-.6.4-.9.7-.3 1.3-.3h.7v-.4c0-.3-.1-.5-.2-.6-.2-.2-.4-.2-.7-.2-.3 0-.5.1-.7.2s-.3.3-.3.5H64c0-.3.1-.5.4-.8.3-.2.6-.3 1-.3s.7.1 1 .3c.2.2.4.5.4.9v1.8c0 .4 0 .6.1.8h-.5zm-1.3-.3c.3 0 .5-.1.7-.2.2-.1.4-.3.5-.5v-.8h-.7c-.4 0-.7.1-1 .2-.2.1-.3.3-.3.6 0 .2.1.4.2.5.2.1.4.2.6.2zM69.1 286.4h-1.6v-.4h1.6v.4zM72 287.5c0-.2-.1-.4-.2-.5s-.4-.2-.7-.3c-.3-.1-.6-.1-.8-.2-.2-.1-.3-.2-.4-.3s-.1-.3-.1-.5c0-.3.1-.5.4-.7.2-.2.6-.3.9-.3.4 0 .7.1 1 .3.2.2.4.5.4.8H72c0-.2-.1-.4-.3-.5-.2-.1-.4-.2-.7-.2-.3 0-.5.1-.6.2-.2.1-.2.3-.2.5s.1.3.2.4c.1.1.4.2.7.3.4.1.6.2.8.3s.3.2.4.3.1.3.1.5c0 .3-.1.6-.4.7s-.6.3-1 .3-.8-.1-1-.3c-.3-.2-.4-.5-.4-.8h.4c0 .2.1.4.3.6.2.1.4.2.7.2.3 0 .5-.1.7-.2.3-.3.3-.4.3-.6zM73.8 285.3c.1-.2.3-.4.5-.5s.4-.2.7-.2c.4 0 .7.1.9.3s.3.6.3 1v2.4h-.4V286c0-.3-.1-.6-.2-.7s-.4-.2-.7-.2c-.3 0-.5.1-.7.2-.2.2-.3.4-.4.6v2.5h-.4v-5.2h.4v2.1zM77 286.5c0-.4.1-.7.2-1s.3-.5.6-.7c.3-.2.5-.2.9-.2.5 0 .9.2 1.2.5.3.3.5.8.5 1.4v.1c0 .4-.1.7-.2 1-.1.3-.3.5-.6.7-.3.2-.5.2-.9.2-.5 0-.9-.2-1.2-.5-.4-.4-.5-.8-.5-1.5zm.4.1c0 .4.1.8.3 1.1.2.3.5.4.9.4s.7-.1.9-.4c.2-.3.3-.7.3-1.1v-.1c0-.3-.1-.5-.2-.8-.1-.2-.3-.4-.4-.5-.2-.1-.4-.2-.6-.2-.4 0-.7.1-.9.4-.2.3-.3.7-.3 1.2zM82 287.6l.1.3.1-.3.9-2.8h.3l.9 2.8.1.4.1-.4.8-2.8h.4l-1.1 3.7h-.3l-1-2.9v-.2.2l-.9 2.9h-.3l-1.1-3.7h.4l.6 2.8zM88.6 287.5c0-.2-.1-.4-.2-.5s-.4-.2-.7-.3c-.3-.1-.6-.1-.8-.2-.2-.1-.3-.2-.4-.3s-.1-.3-.1-.5c0-.3.1-.5.4-.7.2-.2.6-.3.9-.3.4 0 .7.1 1 .3.2.2.4.5.4.8h-.4c0-.2-.1-.4-.3-.5-.2-.1-.4-.2-.7-.2-.3 0-.5.1-.6.2-.2.1-.2.3-.2.5s.1.3.2.4c.1.1.4.2.7.3.4.1.6.2.8.3s.3.2.4.3.1.3.1.5c0 .3-.1.6-.4.7s-.6.3-1 .3-.8-.1-1-.3c-.3-.2-.4-.5-.4-.8h.4c0 .2.1.4.3.6.2.1.4.2.7.2.3 0 .5-.1.7-.2.1-.3.2-.4.2-.6zM91.2 286.4h-1.6v-.4h1.6v.4zM92.3 288.4V285h-.6v-.3h.6v-.4c0-.4.1-.7.3-.9s.5-.3.8-.3c.2 0 .3 0 .4.1v.3h-.4c-.2 0-.4.1-.5.2-.1.1-.2.3-.2.6v.5h.9v.3h-.9v3.4h-.4zM94.9 283.8v.9h.8v.3h-.8v2.5c0 .2 0 .4.1.5.1.1.2.2.4.2h.3v.3c-.1 0-.3.1-.4.1-.3 0-.5-.1-.6-.2-.1-.2-.2-.4-.2-.7V285h-.7v-.3h.7v-.9h.4zM97.9 288.1c.3 0 .5-.1.7-.2.2-.2.3-.4.3-.6h.4c0 .2-.1.4-.2.6-.1.2-.3.3-.5.4-.2.1-.4.2-.7.2-.5 0-.9-.2-1.2-.5-.3-.3-.4-.8-.4-1.4v-.1c0-.4.1-.7.2-1s.3-.5.5-.6.5-.2.8-.2c.4 0 .7.1 1 .4.3.2.4.6.4 1h-.4c0-.3-.1-.5-.3-.7s-.4-.3-.7-.3c-.4 0-.7.1-.9.4s-.3.6-.3 1.1v.1c0 .5.1.8.3 1.1s.6.3 1 .3zM101.4 286.4h-1.6v-.4h1.6v.4zM103.8 285.1h-.3c-.3 0-.5.1-.6.2-.2.1-.3.3-.4.6v2.5h-.4v-3.7h.4v.6c.2-.4.6-.7 1-.7h.3v.5zM105.9 288.5c-.3 0-.6-.1-.9-.2s-.5-.4-.6-.6c-.1-.3-.2-.6-.2-.9v-.1c0-.4.1-.7.2-1s.3-.5.6-.7c.2-.2.5-.2.8-.2.4 0 .8.2 1.1.5.3.3.4.7.4 1.3v.2h-2.6v.1c0 .4.1.8.4 1 .2.3.5.4.9.4.2 0 .4 0 .6-.1.2-.1.3-.2.5-.4l.3.2c-.5.3-1 .5-1.5.5zm-.1-3.5c-.3 0-.6.1-.8.3s-.3.5-.4.9h2.2c0-.4-.1-.6-.3-.9s-.4-.3-.7-.3zM109.4 288.1c.3 0 .5-.1.7-.2.2-.2.3-.4.3-.6h.4c0 .2-.1.4-.2.6-.1.2-.3.3-.5.4-.2.1-.4.2-.7.2-.5 0-.9-.2-1.2-.5-.3-.3-.4-.8-.4-1.4v-.1c0-.4.1-.7.2-1s.3-.5.5-.6.5-.2.8-.2c.4 0 .7.1 1 .4.3.2.4.6.4 1h-.4c0-.3-.1-.5-.3-.7s-.4-.3-.7-.3c-.4 0-.7.1-.9.4s-.3.6-.3 1.1v.1c0 .5.1.8.3 1.1s.6.3 1 .3zM113.1 288.5c-.3 0-.6-.1-.9-.2s-.5-.4-.6-.6c-.1-.3-.2-.6-.2-.9v-.1c0-.4.1-.7.2-1s.3-.5.6-.7c.2-.2.5-.2.8-.2.4 0 .8.2 1.1.5.3.3.4.7.4 1.3v.2h-2.6v.1c0 .4.1.8.4 1 .2.3.5.4.9.4.2 0 .4 0 .6-.1.2-.1.3-.2.5-.4l.3.2c-.5.3-.9.5-1.5.5zm-.1-3.5c-.3 0-.6.1-.8.3s-.3.5-.4.9h2.2c0-.4-.1-.6-.3-.9s-.4-.3-.7-.3zM115.2 283.6c0-.1 0-.1.1-.2s.1-.1.2-.1.2 0 .2.1c.1.1.1.1.1.2s0 .1-.1.2-.1.1-.2.1-.2 0-.2-.1c0 0-.1-.1-.1-.2zm.5 4.8h-.4v-3.7h.4v3.7zM118 287.8l1.1-3.1h.4l-1.4 3.7h-.3l-1.4-3.7h.4l1.2 3.1zM121.6 288.5c-.3 0-.6-.1-.9-.2s-.5-.4-.6-.6c-.1-.3-.2-.6-.2-.9v-.1c0-.4.1-.7.2-1s.3-.5.6-.7c.2-.2.5-.2.8-.2.4 0 .8.2 1.1.5.3.3.4.7.4 1.3v.2h-2.6v.1c0 .4.1.8.4 1 .2.3.5.4.9.4.2 0 .4 0 .6-.1.2-.1.3-.2.5-.4l.3.2c-.5.3-.9.5-1.5.5zm-.1-3.5c-.3 0-.6.1-.8.3s-.3.5-.4.9h2.2c0-.4-.1-.6-.3-.9s-.4-.3-.7-.3zM123.6 286.5c0-.6.1-1 .4-1.4.3-.3.6-.5 1-.5.5 0 .9.2 1.1.6v-2.1h.4v5.2h-.4v-.5c-.3.4-.6.6-1.2.6-.4 0-.8-.2-1-.5-.2-.3-.3-.7-.3-1.4zm.4.1c0 .5.1.8.3 1.1.2.3.5.4.8.4.5 0 .9-.2 1.1-.7v-1.7c-.2-.5-.6-.7-1.1-.7-.3 0-.6.1-.8.4-.2.3-.3.7-.3 1.2zM128.9 286.4h-1.6v-.4h1.6v.4zM132.7 288.4h-3.1v-.3l1.7-1.9c.3-.3.5-.6.6-.8s.2-.4.2-.6c0-.3-.1-.6-.3-.7-.2-.2-.4-.3-.8-.3-.3 0-.6.1-.8.3s-.3.5-.3.8h-.4c0-.3.1-.5.2-.8.1-.2.3-.4.5-.5.2-.1.5-.2.8-.2.5 0 .8.1 1.1.4.3.2.4.6.4 1 0 .2-.1.5-.2.8s-.4.6-.8 1l-1.4 1.6h2.6v.2zM136.4 284.7c0 .3-.1.5-.2.7-.2.2-.3.4-.6.4.3.1.5.3.7.5.2.2.3.5.3.8 0 .4-.1.8-.4 1-.3.2-.7.4-1.1.4-.5 0-.9-.1-1.2-.4s-.4-.6-.4-1c0-.3.1-.5.2-.8.2-.2.4-.4.7-.5-.2-.1-.4-.2-.6-.4-.1-.2-.2-.4-.2-.7 0-.4.1-.7.4-1s.6-.4 1.1-.4.8.1 1.1.4.2.6.2 1zm-.3 2.4c0-.3-.1-.6-.3-.8-.2-.2-.5-.3-.8-.3s-.6.1-.8.3-.3.5-.3.8.1.6.3.8c.2.2.5.3.9.3s.6-.1.9-.3c0-.2.1-.5.1-.8zm-.1-2.4c0-.3-.1-.5-.3-.7-.2-.2-.4-.3-.8-.3-.3 0-.6.1-.8.3-.2.2-.3.4-.3.7 0 .3.1.5.3.7s.4.3.8.3c.3 0 .6-.1.8-.3.2-.2.3-.4.3-.7zM138.7 286.4h-1.6v-.4h1.6v.4zM139.8 284.7v.6c.1-.2.3-.4.5-.5s.4-.2.7-.2c.6 0 1 .2 1.1.7.1-.2.3-.4.5-.5.2-.1.5-.2.7-.2.8 0 1.2.4 1.2 1.3v2.5h-.4V286c0-.3-.1-.6-.2-.7-.1-.2-.4-.2-.7-.2-.3 0-.5.1-.7.3-.2.2-.3.4-.3.7v2.4h-.4V286c0-.3-.1-.6-.2-.7-.1-.2-.4-.2-.7-.2-.3 0-.5.1-.7.2-.2.1-.3.4-.4.7v2.5h-.4v-3.7h.4zM145.6 283.6c0-.1 0-.1.1-.2s.1-.1.2-.1.2 0 .2.1c.1.1.1.1.1.2s0 .1-.1.2-.1.1-.2.1-.2 0-.2-.1c-.1 0-.1-.1-.1-.2zm.5 4.8h-.4v-3.7h.4v3.7zM147.7 288.4h-.4v-5.2h.4v5.2zM149.2 288.4h-.4v-5.2h.4v5.2zM150.3 283.6c0-.1 0-.1.1-.2s.1-.1.2-.1.2 0 .2.1c.1.1.1.1.1.2s0 .1-.1.2-.1.1-.2.1-.2 0-.2-.1c-.1 0-.1-.1-.1-.2zm.5 4.8h-.4v-3.7h.4v3.7zM151.7 286.5c0-.4.1-.7.2-1s.3-.5.6-.7c.3-.2.5-.2.9-.2.5 0 .9.2 1.2.5.3.3.5.8.5 1.4v.1c0 .4-.1.7-.2 1-.1.3-.3.5-.6.7-.3.2-.5.2-.9.2-.5 0-.9-.2-1.2-.5-.4-.4-.5-.8-.5-1.5zm.4.1c0 .4.1.8.3 1.1.2.3.5.4.9.4s.7-.1.9-.4c.2-.3.3-.7.3-1.1v-.1c0-.3-.1-.5-.2-.8-.1-.2-.3-.4-.4-.5-.2-.1-.4-.2-.6-.2-.4 0-.7.1-.9.4-.2.3-.3.7-.3 1.2zM156.2 284.7v.6c.1-.2.3-.4.5-.5.2-.1.4-.2.7-.2.4 0 .7.1.9.3s.3.6.3 1v2.4h-.4V286c0-.3-.1-.6-.2-.7s-.4-.2-.7-.2c-.3 0-.5.1-.7.2-.2.2-.3.4-.4.6v2.5h-.4v-3.7h.4zM160.9 286.4h-1.6v-.4h1.6v.4zM162 288.4V285h-.6v-.3h.6v-.4c0-.4.1-.7.3-.9s.5-.3.8-.3c.2 0 .3 0 .4.1v.3h-.4c-.2 0-.4.1-.5.2-.1.1-.2.3-.2.6v.5h.9v.3h-.9v3.4h-.4zM165.7 285.1h-.3c-.3 0-.5.1-.6.2-.2.1-.3.3-.4.6v2.5h-.4v-3.7h.4v.6c.2-.4.6-.7 1-.7h.3v.5zM168.5 288.4c0-.1-.1-.3-.1-.5-.1.2-.3.3-.5.4-.2.1-.5.2-.7.2-.4 0-.6-.1-.9-.3s-.3-.4-.3-.8.1-.6.4-.9.7-.3 1.3-.3h.7v-.4c0-.3-.1-.5-.2-.6-.2-.2-.4-.2-.7-.2-.3 0-.5.1-.7.2s-.3.3-.3.5h-.4c0-.3.1-.5.4-.8.3-.2.6-.3 1-.3s.7.1 1 .3c.2.2.4.5.4.9v1.8c0 .4 0 .6.1.8h-.5zm-1.2-.3c.3 0 .5-.1.7-.2.2-.1.4-.3.5-.5v-.8h-.7c-.4 0-.7.1-1 .2-.2.1-.3.3-.3.6 0 .2.1.4.2.5.1.1.3.2.6.2zM172.3 287.9c-.2.4-.6.5-1.2.5-.4 0-.7-.1-.9-.3-.2-.2-.3-.6-.3-1v-2.4h.4v2.4c0 .7.3 1.1.9 1.1.6 0 1-.2 1.1-.7v-2.7h.4v3.7h-.4v-.6zM173.6 286.5c0-.6.1-1 .4-1.4.3-.3.6-.5 1-.5.5 0 .9.2 1.1.6v-2.1h.4v5.2h-.4v-.5c-.3.4-.6.6-1.2.6-.4 0-.8-.2-1-.5-.1-.3-.3-.7-.3-1.4zm.5.1c0 .5.1.8.3 1.1.2.3.5.4.8.4.5 0 .9-.2 1.1-.7v-1.7c-.2-.5-.6-.7-1.1-.7-.3 0-.6.1-.8.4-.2.3-.3.7-.3 1.2zM179 286.4h-1.6v-.4h1.6v.4zM181.4 285.1h-.3c-.3 0-.5.1-.6.2-.2.1-.3.3-.4.6v2.5h-.4v-3.7h.4v.6c.2-.4.6-.7 1-.7h.3v.5zM183.4 288.5c-.3 0-.6-.1-.9-.2s-.5-.4-.6-.6c-.1-.3-.2-.6-.2-.9v-.1c0-.4.1-.7.2-1s.3-.5.6-.7c.2-.2.5-.2.8-.2.4 0 .8.2 1.1.5.3.3.4.7.4 1.3v.2h-2.6v.1c0 .4.1.8.4 1 .2.3.5.4.9.4.2 0 .4 0 .6-.1.2-.1.3-.2.5-.4l.3.2c-.5.3-.9.5-1.5.5zm0-3.5c-.3 0-.6.1-.8.3s-.3.5-.4.9h2.2c0-.4-.1-.6-.3-.9s-.4-.3-.7-.3zM188.6 286.6c0 .6-.1 1-.4 1.4-.3.3-.6.5-1 .5-.5 0-.9-.2-1.2-.5v1.9h-.4v-5.1h.4v.5c.3-.4.7-.6 1.2-.6.4 0 .8.2 1 .5s.4.7.4 1.4zm-.4-.1c0-.5-.1-.8-.3-1.1-.2-.3-.5-.4-.8-.4-.3 0-.5.1-.6.2-.2.1-.3.3-.4.5v1.8c.1.2.2.4.4.5.2.1.4.2.6.2.3 0 .6-.1.8-.4.2-.4.3-.8.3-1.3zM189.3 286.5c0-.4.1-.7.2-1s.3-.5.6-.7c.3-.2.5-.2.9-.2.5 0 .9.2 1.2.5.3.3.5.8.5 1.4v.1c0 .4-.1.7-.2 1-.1.3-.3.5-.6.7-.3.2-.5.2-.9.2-.5 0-.9-.2-1.2-.5-.4-.4-.5-.8-.5-1.5zm.4.1c0 .4.1.8.3 1.1.2.3.5.4.9.4s.7-.1.9-.4c.2-.3.3-.7.3-1.1v-.1c0-.3-.1-.5-.2-.8-.1-.2-.3-.4-.4-.5-.2-.1-.4-.2-.6-.2-.4 0-.7.1-.9.4-.2.3-.3.7-.3 1.2zM195.1 285.1h-.3c-.3 0-.5.1-.6.2-.2.1-.3.3-.4.6v2.5h-.4v-3.7h.4v.6c.2-.4.6-.7 1-.7h.3v.5zM196.6 283.8v.9h.8v.3h-.8v2.5c0 .2 0 .4.1.5.1.1.2.2.4.2h.3v.3c-.1 0-.3.1-.4.1-.3 0-.5-.1-.6-.2-.1-.2-.2-.4-.2-.7V285h-.7v-.3h.7v-.9h.4zM200.4 287.5c0-.2-.1-.4-.2-.5s-.4-.2-.7-.3c-.3-.1-.6-.1-.8-.2-.2-.1-.3-.2-.4-.3s-.1-.3-.1-.5c0-.3.1-.5.4-.7.2-.2.6-.3.9-.3.4 0 .7.1 1 .3.2.2.4.5.4.8h-.4c0-.2-.1-.4-.3-.5-.2-.1-.4-.2-.7-.2-.3 0-.5.1-.6.2-.2.1-.2.3-.2.5s.1.3.2.4c.1.1.4.2.7.3.4.1.6.2.8.3s.3.2.4.3.1.3.1.5c0 .3-.1.6-.4.7s-.6.3-1 .3-.8-.1-1-.3c-.3-.2-.4-.5-.4-.8h.4c0 .2.1.4.3.6.2.1.4.2.7.2.3 0 .5-.1.7-.2.1-.3.2-.4.2-.6zM203 286.4h-1.6v-.4h1.6v.4zM205.1 288.1c.3 0 .5-.1.7-.2.2-.2.3-.4.3-.6h.4c0 .2-.1.4-.2.6-.1.2-.3.3-.5.4-.2.1-.4.2-.7.2-.5 0-.9-.2-1.2-.5-.3-.3-.4-.8-.4-1.4v-.1c0-.4.1-.7.2-1s.3-.5.5-.6.5-.2.8-.2c.4 0 .7.1 1 .4.3.2.4.6.4 1h-.4c0-.3-.1-.5-.3-.7s-.4-.3-.7-.3c-.4 0-.7.1-.9.4s-.3.6-.3 1.1v.1c0 .5.1.8.3 1.1s.6.3 1 .3zM207.1 286.5c0-.4.1-.7.2-1s.3-.5.6-.7c.3-.2.5-.2.9-.2.5 0 .9.2 1.2.5.3.3.5.8.5 1.4v.1c0 .4-.1.7-.2 1-.1.3-.3.5-.6.7-.3.2-.5.2-.9.2-.5 0-.9-.2-1.2-.5-.3-.4-.5-.8-.5-1.5zm.4.1c0 .4.1.8.3 1.1.2.3.5.4.9.4s.7-.1.9-.4c.2-.3.3-.7.3-1.1v-.1c0-.3-.1-.5-.2-.8-.1-.2-.3-.4-.4-.5-.2-.1-.4-.2-.6-.2-.4 0-.7.1-.9.4-.2.3-.3.7-.3 1.2zM211.6 284.7v.6c.1-.2.3-.4.5-.5.2-.1.4-.2.7-.2.4 0 .7.1.9.3s.3.6.3 1v2.4h-.4V286c0-.3-.1-.6-.2-.7s-.4-.2-.7-.2c-.3 0-.5.1-.7.2-.2.2-.3.4-.4.6v2.5h-.4v-3.7h.4zM217.3 287.5c0-.2-.1-.4-.2-.5s-.4-.2-.7-.3c-.3-.1-.6-.1-.8-.2-.2-.1-.3-.2-.4-.3s-.1-.3-.1-.5c0-.3.1-.5.4-.7.2-.2.6-.3.9-.3.4 0 .7.1 1 .3.2.2.4.5.4.8h-.4c0-.2-.1-.4-.3-.5-.2-.1-.4-.2-.7-.2-.3 0-.5.1-.6.2-.2.1-.2.3-.2.5s.1.3.2.4c.1.1.4.2.7.3.4.1.6.2.8.3s.3.2.4.3.1.3.1.5c0 .3-.1.6-.4.7s-.6.3-1 .3-.8-.1-1-.3c-.3-.2-.4-.5-.4-.8h.4c0 .2.1.4.3.6.2.1.4.2.7.2.3 0 .5-.1.7-.2.1-.3.2-.4.2-.6zM221 287.9c-.2.4-.6.5-1.2.5-.4 0-.7-.1-.9-.3-.2-.2-.3-.6-.3-1v-2.4h.4v2.4c0 .7.3 1.1.9 1.1.6 0 1-.2 1.1-.7v-2.7h.4v3.7h-.4v-.6zM222.9 284.7v.6c.1-.2.3-.4.5-.5s.4-.2.7-.2c.6 0 1 .2 1.1.7.1-.2.3-.4.5-.5.2-.1.5-.2.7-.2.8 0 1.2.4 1.2 1.3v2.5h-.4V286c0-.3-.1-.6-.2-.7-.1-.2-.4-.2-.7-.2-.3 0-.5.1-.7.3-.2.2-.3.4-.3.7v2.4h-.4V286c0-.3-.1-.6-.2-.7-.1-.2-.4-.2-.7-.2-.3 0-.5.1-.7.2-.2.1-.3.4-.4.7v2.5h-.4v-3.7h.4zM230.1 288.5c-.3 0-.6-.1-.9-.2s-.5-.4-.6-.6c-.1-.3-.2-.6-.2-.9v-.1c0-.4.1-.7.2-1s.3-.5.6-.7c.2-.2.5-.2.8-.2.4 0 .8.2 1.1.5.3.3.4.7.4 1.3v.2h-2.6v.1c0 .4.1.8.4 1 .2.3.5.4.9.4.2 0 .4 0 .6-.1.2-.1.3-.2.5-.4l.3.2c-.5.3-.9.5-1.5.5zm0-3.5c-.3 0-.6.1-.8.3s-.3.5-.4.9h2.2c0-.4-.1-.6-.3-.9s-.4-.3-.7-.3zM234 285.1h-.3c-.3 0-.5.1-.6.2-.2.1-.3.3-.4.6v2.5h-.4v-3.7h.4v.6c.2-.4.6-.7 1-.7h.3v.5zM236.9 287.5c0-.2-.1-.4-.2-.5s-.4-.2-.7-.3c-.3-.1-.6-.1-.8-.2-.2-.1-.3-.2-.4-.3s-.1-.3-.1-.5c0-.3.1-.5.4-.7.2-.2.6-.3.9-.3.4 0 .7.1 1 .3.2.2.4.5.4.8h-.4c0-.2-.1-.4-.3-.5-.2-.1-.4-.2-.7-.2-.3 0-.5.1-.6.2-.2.1-.2.3-.2.5s.1.3.2.4c.1.1.4.2.7.3.4.1.6.2.8.3s.3.2.4.3.1.3.1.5c0 .3-.1.6-.4.7s-.6.3-1 .3-.8-.1-1-.3c-.3-.2-.4-.5-.4-.8h.4c0 .2.1.4.3.6.2.1.4.2.7.2.3 0 .5-.1.7-.2.1-.3.2-.4.2-.6zM239.5 286.4h-1.6v-.4h1.6v.4zM243.3 288.4h-3.1v-.3l1.7-1.9c.3-.3.5-.6.6-.8s.2-.4.2-.6c0-.3-.1-.6-.3-.7-.2-.2-.4-.3-.8-.3-.3 0-.6.1-.8.3s-.3.5-.3.8h-.5c0-.3.1-.5.2-.8.1-.2.3-.4.5-.5.2-.1.5-.2.8-.2.5 0 .8.1 1.1.4.3.2.4.6.4 1 0 .2-.1.5-.2.8s-.4.6-.8 1l-1.4 1.6h2.6v.2zM247 286.3c0 .7-.1 1.2-.4 1.6-.3.4-.6.5-1.1.5-.5 0-.9-.2-1.1-.5-.3-.4-.4-.9-.4-1.6v-.9c0-.7.1-1.2.4-1.6s.6-.5 1.1-.5c.5 0 .9.2 1.1.5.3.3.4.9.4 1.5v1zm-.4-.9c0-.6-.1-1-.3-1.3s-.5-.4-.8-.4c-.4 0-.6.1-.8.4-.2.3-.3.7-.3 1.3v1c0 .6.1 1 .3 1.3s.5.5.8.5c.4 0 .6-.1.8-.4.2-.3.3-.7.3-1.3v-1.1zM251 288.4h-3.1v-.3l1.7-1.9c.3-.3.5-.6.6-.8s.2-.4.2-.6c0-.3-.1-.6-.3-.7-.2-.2-.4-.3-.8-.3-.3 0-.6.1-.8.3s-.3.5-.3.8h-.4c0-.3.1-.5.2-.8.1-.2.3-.4.5-.5.2-.1.5-.2.8-.2.5 0 .8.1 1.1.4.3.2.4.6.4 1 0 .2-.1.5-.2.8s-.4.6-.8 1l-1.4 1.6h2.6v.2zM253.7 288.4h-.4v-4.5l-1.4.5v-.4l1.7-.6h.1v5zM257 286.4h-1.6v-.4h1.6v.4zM260.7 286.3c0 .7-.1 1.2-.4 1.6-.3.4-.6.5-1.1.5-.5 0-.9-.2-1.1-.5-.3-.4-.4-.9-.4-1.6v-.9c0-.7.1-1.2.4-1.6s.6-.5 1.1-.5c.5 0 .9.2 1.1.5.3.3.4.9.4 1.5v1zm-.4-.9c0-.6-.1-1-.3-1.3s-.5-.4-.8-.4c-.4 0-.6.1-.8.4-.2.3-.3.7-.3 1.3v1c0 .6.1 1 .3 1.3s.5.5.8.5c.4 0 .6-.1.8-.4.2-.3.3-.7.3-1.3v-1.1z"/><g><path class="st1" d="M36.3 143.6h-4.8v-23.5h4.8v23.5zM44.8 126.1l.1 2c1.2-1.6 2.9-2.3 5-2.3 1.8 0 3.2.5 4.1 1.6.9 1.1 1.4 2.7 1.4 4.9v11.3h-4.7v-11.2c0-1-.2-1.7-.6-2.2s-1.1-.7-2.1-.7c-1.3 0-2.3.6-3 1.7v12.3h-4.7v-17.4h4.5zM83.1 143.6H67v-3.2l7.6-8.1c1-1.1 1.8-2.1 2.3-3 .5-.8.8-1.7.8-2.4 0-1-.3-1.9-.8-2.5-.5-.6-1.3-.9-2.3-.9-1.1 0-1.9.4-2.5 1.1s-.9 1.7-.9 2.9h-4.7c0-1.4.3-2.7 1-3.9s1.6-2.1 2.9-2.8 2.7-1 4.2-1c2.4 0 4.3.6 5.6 1.7 1.3 1.2 2 2.8 2 4.9 0 1.2-.3 2.3-.9 3.5-.6 1.2-1.6 2.6-3.1 4.2l-5.3 5.6H83v3.9zM101.7 133.9c0 3.2-.7 5.7-2 7.4-1.3 1.7-3.3 2.6-5.9 2.6-2.6 0-4.5-.8-5.9-2.5s-2-4.1-2.1-7.3v-4.3c0-3.3.7-5.8 2-7.5 1.4-1.7 3.3-2.5 5.9-2.5 2.6 0 4.5.8 5.9 2.5s2 4.1 2.1 7.2v4.4zm-4.6-4.8c0-1.9-.3-3.4-.8-4.3s-1.4-1.3-2.5-1.3-1.9.4-2.4 1.3c-.5.8-.8 2.2-.8 4v5.7c0 1.9.3 3.3.8 4.3.5.9 1.4 1.4 2.5 1.4s2-.4 2.5-1.3.8-2.3.8-4.1v-5.7zM121 143.6h-16.1v-3.2l7.6-8.1c1-1.1 1.8-2.1 2.3-3 .5-.8.8-1.7.8-2.4 0-1-.3-1.9-.8-2.5-.5-.6-1.3-.9-2.3-.9-1.1 0-1.9.4-2.5 1.1s-.9 1.7-.9 2.9h-4.7c0-1.4.3-2.7 1-3.9s1.6-2.1 2.9-2.8 2.7-1 4.2-1c2.4 0 4.3.6 5.6 1.7 1.3 1.2 2 2.8 2 4.9 0 1.2-.3 2.3-.9 3.5-.6 1.2-1.6 2.6-3.1 4.2l-5.3 5.6H121v3.9zM135.2 143.6h-4.7v-18l-5.6 1.7v-3.8l9.7-3.5h.5v23.6zM144.2 149.5l-2.4-1.3.6-1c.7-1.3 1.1-2.6 1.1-3.9v-3.6h3.9v3.2c0 1.2-.3 2.4-.9 3.6-.6 1.2-1.4 2.2-2.3 3zM164.8 121.9v4.3h3v3.4h-3v8.7c0 .6.1 1.1.4 1.4.2.3.7.4 1.4.4.5 0 1 0 1.4-.1v3.5c-.9.3-1.9.4-2.8.4-3.3 0-4.9-1.6-5-5v-9.4h-2.5v-3.4h2.5v-4.3h4.6zM175 128c1.2-1.5 2.8-2.2 4.7-2.2 3.8 0 5.7 2.2 5.8 6.6v11.2h-4.7v-11c0-1-.2-1.7-.6-2.2-.4-.5-1.1-.7-2.1-.7-1.4 0-2.4.5-3 1.6v12.4h-4.7v-24.8h4.7v9.1zM196.9 143.9c-2.6 0-4.6-.8-6.2-2.4-1.6-1.6-2.4-3.7-2.4-6.3v-.5c0-1.8.3-3.3 1-4.7.7-1.4 1.6-2.4 2.9-3.2 1.2-.7 2.7-1.1 4.2-1.1 2.4 0 4.3.8 5.6 2.3 1.4 1.5 2.1 3.6 2.1 6.4v1.9H193c.2 1.1.6 2.1 1.4 2.7.8.7 1.7 1 2.9 1 1.8 0 3.2-.7 4.2-2l2.3 2.6c-.7 1-1.6 1.8-2.8 2.3-1.3.7-2.6 1-4.1 1zm-.5-14.3c-.9 0-1.7.3-2.2.9-.6.6-.9 1.5-1.1 2.7h6.5v-.4c0-1-.3-1.8-.8-2.4-.7-.5-1.4-.8-2.4-.8zM229.4 134h-9.3v9.6h-4.8v-23.5h15.3v3.9h-10.4v6.1h9.3v3.9zM251.4 124h-7.2v19.6h-4.8V124h-7.1v-3.9h19.1v3.9zM272.5 135.8c-.2 2.5-1.1 4.5-2.8 6-1.7 1.5-3.9 2.2-6.7 2.2-3 0-5.4-1-7.1-3s-2.6-4.8-2.6-8.3v-1.4c0-2.3.4-4.2 1.2-6 .8-1.7 1.9-3 3.4-4 1.5-.9 3.2-1.4 5.2-1.4 2.7 0 4.9.7 6.5 2.2s2.6 3.5 2.9 6.1h-4.8c-.1-1.5-.5-2.6-1.3-3.3s-1.8-1-3.3-1c-1.6 0-2.8.6-3.6 1.7s-1.2 2.9-1.2 5.4v1.8c0 2.5.4 4.4 1.2 5.6s2 1.8 3.6 1.8c1.5 0 2.6-.3 3.3-1 .7-.7 1.2-1.7 1.3-3.2h4.8zM49.7 166.5c-.6-.1-1.2-.1-1.7-.1-1.8 0-2.9.6-3.5 1.8v11.4h-4.7v-17.4h4.4l.1 2.1c.9-1.6 2.2-2.4 3.9-2.4.5 0 1 .1 1.5.2v4.4zM59.9 179.9c-2.6 0-4.6-.8-6.2-2.4-1.6-1.6-2.4-3.7-2.4-6.3v-.5c0-1.8.3-3.3 1-4.7.7-1.4 1.6-2.4 2.9-3.2 1.2-.7 2.7-1.1 4.2-1.1 2.4 0 4.3.8 5.6 2.3 1.4 1.5 2.1 3.6 2.1 6.4v1.9H56c.2 1.1.6 2.1 1.4 2.7.8.7 1.7 1 2.9 1 1.8 0 3.2-.7 4.2-2l2.3 2.6c-.7 1-1.6 1.8-2.8 2.3-1.3.7-2.6 1-4.1 1zm-.5-14.3c-.9 0-1.7.3-2.2.9-.6.6-.9 1.5-1.1 2.7h6.5v-.4c0-1-.3-1.8-.8-2.4-.6-.5-1.4-.8-2.4-.8zM77 176.2c.9 0 1.6-.2 2.1-.7.5-.5.8-1.1.8-1.9h4.4c0 1.2-.3 2.3-1 3.2-.6 1-1.5 1.7-2.6 2.3-1.1.5-2.3.8-3.7.8-2.5 0-4.5-.8-5.9-2.4S69 173.8 69 171v-.3c0-2.7.7-4.8 2.1-6.4 1.4-1.6 3.4-2.4 5.9-2.4 2.2 0 3.9.6 5.2 1.9 1.3 1.2 2 2.9 2 5H80c0-.9-.3-1.6-.8-2.2-.5-.6-1.2-.9-2.1-.9-1.1 0-1.9.4-2.5 1.2s-.8 2.1-.8 3.9v.5c0 1.8.3 3.1.8 3.9.5.6 1.3 1 2.4 1zM95 179.9c-2.6 0-4.6-.8-6.2-2.4-1.6-1.6-2.4-3.7-2.4-6.3v-.5c0-1.8.3-3.3 1-4.7.7-1.4 1.6-2.4 2.9-3.2 1.2-.7 2.7-1.1 4.2-1.1 2.4 0 4.3.8 5.6 2.3 1.4 1.5 2.1 3.6 2.1 6.4v1.9H91.1c.2 1.1.6 2.1 1.4 2.7.8.7 1.7 1 2.9 1 1.8 0 3.2-.7 4.2-2l2.3 2.6c-.7 1-1.6 1.8-2.8 2.3-1.3.7-2.6 1-4.1 1zm-.5-14.3c-.9 0-1.7.3-2.2.9-.6.6-.9 1.5-1.1 2.7h6.5v-.4c0-1-.3-1.8-.8-2.4-.7-.5-1.4-.8-2.4-.8zM104.8 157.6c0-.7.2-1.3.7-1.7.5-.5 1.1-.7 1.9-.7.8 0 1.4.2 1.9.7.5.5.7 1 .7 1.7s-.2 1.3-.7 1.7c-.5.5-1.1.7-1.9.7-.8 0-1.4-.2-1.9-.7-.5-.4-.7-1-.7-1.7zm5 22h-4.7v-17.4h4.7v17.4zM120.1 173.9l3.2-11.8h4.9l-5.9 17.4h-4.5l-5.9-17.4h4.9l3.3 11.8zM138.3 179.9c-2.6 0-4.6-.8-6.2-2.4-1.6-1.6-2.4-3.7-2.4-6.3v-.5c0-1.8.3-3.3 1-4.7.7-1.4 1.6-2.4 2.9-3.2 1.2-.7 2.7-1.1 4.2-1.1 2.4 0 4.3.8 5.6 2.3 1.4 1.5 2.1 3.6 2.1 6.4v1.9h-11.1c.2 1.1.6 2.1 1.4 2.7.8.7 1.7 1 2.9 1 1.8 0 3.2-.7 4.2-2l2.3 2.6c-.7 1-1.6 1.8-2.8 2.3-1.3.7-2.6 1-4.1 1zm-.5-14.3c-.9 0-1.7.3-2.2.9-.6.6-.9 1.5-1.1 2.7h6.5v-.4c0-1-.3-1.8-.8-2.4-.7-.5-1.4-.8-2.4-.8zM147.4 170.7c0-2.7.6-4.9 1.8-6.5 1.2-1.6 2.9-2.4 5-2.4 1.7 0 3.1.6 4.2 1.9v-8.9h4.7v24.8h-4.2l-.2-1.9c-1.2 1.5-2.7 2.2-4.5 2.2-2.1 0-3.7-.8-4.9-2.4-1.3-1.6-1.9-3.9-1.9-6.8zm4.7.4c0 1.6.3 2.9.9 3.8.6.9 1.4 1.3 2.5 1.3 1.4 0 2.5-.6 3-1.8v-6.9c-.6-1.2-1.6-1.8-3-1.8-2.3-.1-3.4 1.7-3.4 5.4zM179.3 162.1l.1 2c1.2-1.6 2.9-2.3 5-2.3 1.8 0 3.2.5 4.1 1.6.9 1.1 1.4 2.7 1.4 4.9v11.3h-4.7v-11.2c0-1-.2-1.7-.6-2.2s-1.1-.7-2.1-.7c-1.3 0-2.3.6-3 1.7v12.3h-4.7v-17.4h4.5zM201.5 179.9c-2.6 0-4.6-.8-6.2-2.4-1.6-1.6-2.4-3.7-2.4-6.3v-.5c0-1.8.3-3.3 1-4.7.7-1.4 1.6-2.4 2.9-3.2 1.2-.7 2.7-1.1 4.2-1.1 2.4 0 4.3.8 5.6 2.3 1.4 1.5 2.1 3.6 2.1 6.4v1.9h-11.1c.2 1.1.6 2.1 1.4 2.7.8.7 1.7 1 2.9 1 1.8 0 3.2-.7 4.2-2l2.3 2.6c-.7 1-1.6 1.8-2.8 2.3-1.3.7-2.7 1-4.1 1zm-.5-14.3c-.9 0-1.7.3-2.2.9-.6.6-.9 1.5-1.1 2.7h6.5v-.4c0-1-.3-1.8-.8-2.4-.7-.5-1.5-.8-2.4-.8zM221.4 179.6c-.2-.4-.4-.9-.5-1.6-1.1 1.3-2.6 1.9-4.4 1.9-1.7 0-3.1-.5-4.2-1.5s-1.7-2.2-1.7-3.7c0-1.8.7-3.3 2.1-4.3 1.4-1 3.4-1.5 5.9-1.5h2.1v-1c0-.8-.2-1.5-.6-1.9-.4-.5-1.1-.7-2-.7-.8 0-1.4.2-1.8.6-.4.4-.7.9-.7 1.5H211c0-1 .3-1.9.9-2.8.6-.9 1.5-1.5 2.6-2s2.4-.7 3.8-.7c2.2 0 3.9.5 5.1 1.6 1.3 1.1 1.9 2.6 1.9 4.6v7.6c0 1.7.2 2.9.7 3.8v.3h-4.6zm-3.8-3.3c.7 0 1.3-.2 1.9-.5.6-.3 1-.7 1.3-1.2v-3H219c-2.3 0-3.6.8-3.7 2.4v.3c0 .6.2 1.1.6 1.4.4.5 1 .6 1.7.6zM238.8 166.5c-.6-.1-1.2-.1-1.7-.1-1.8 0-2.9.6-3.5 1.8v11.4H229v-17.4h4.4l.1 2.1c.9-1.6 2.2-2.4 3.9-2.4.5 0 1 .1 1.5.2l-.1 4.4zM246 179.6h-4.7v-24.8h4.7v24.8zM256.3 173l3.2-10.9h5l-7 20.2-.4.9c-1 2.3-2.8 3.4-5.2 3.4-.7 0-1.4-.1-2.1-.3v-3.5h.7c.9 0 1.5-.1 2-.4.4-.3.8-.7 1-1.3l.5-1.4-6.1-17.5h5l3.4 10.8zM27.8 215.6h-4.7v-18l-5.6 1.7v-3.8l9.7-3.5h.5v23.6zM35.9 213.3c0-.7.2-1.3.8-1.8s1.1-.7 1.9-.7c.8 0 1.4.2 1.9.7s.8 1.1.8 1.8-.2 1.3-.7 1.8-1.1.7-1.9.7c-.8 0-1.4-.2-1.9-.7s-.9-1.1-.9-1.8zM58.8 206.8h2.7v3.8h-2.7v5.1h-4.7v-5.1h-9.6l-.2-2.9 9.8-15.5h4.7v14.6zm-9.8 0h5.2v-8.3l-.3.5-4.9 7.8zM76.8 198.1l.1 2c1.2-1.5 2.9-2.3 5-2.3 2.2 0 3.8.9 4.6 2.7 1.2-1.8 3-2.7 5.2-2.7 1.9 0 3.3.6 4.2 1.7.9 1.1 1.4 2.8 1.4 5v11.1h-4.7v-11.1c0-1-.2-1.7-.6-2.2-.4-.5-1.1-.7-2-.7-1.4 0-2.4.7-2.9 2v12h-4.7v-11.1c0-1-.2-1.7-.6-2.2s-1.1-.7-2-.7c-1.3 0-2.3.5-2.9 1.6v12.3h-4.7v-17.4h4.6zM101 193.6c0-.7.2-1.3.7-1.7.5-.5 1.1-.7 1.9-.7.8 0 1.4.2 1.9.7.5.5.7 1 .7 1.7s-.2 1.3-.7 1.7c-.5.5-1.1.7-1.9.7-.8 0-1.4-.2-1.9-.7-.5-.4-.7-1-.7-1.7zm4.9 22h-4.7v-17.4h4.7v17.4zM114.7 215.6H110v-24.8h4.7v24.8zM123.4 215.6h-4.7v-24.8h4.7v24.8zM127.2 193.6c0-.7.2-1.3.7-1.7.5-.5 1.1-.7 1.9-.7.8 0 1.4.2 1.9.7.5.5.7 1 .7 1.7s-.2 1.3-.7 1.7c-.5.5-1.1.7-1.9.7-.8 0-1.4-.2-1.9-.7-.4-.4-.7-1-.7-1.7zm5 22h-4.7v-17.4h4.7v17.4zM135.3 206.7c0-1.7.3-3.3 1-4.6.7-1.4 1.6-2.4 2.9-3.1 1.3-.7 2.7-1.1 4.4-1.1 2.4 0 4.3.7 5.8 2.2s2.3 3.4 2.5 5.9v1.2c0 2.7-.7 4.8-2.2 6.4-1.5 1.6-3.5 2.4-6 2.4s-4.5-.8-6-2.4c-1.5-1.6-2.2-3.8-2.2-6.6v-.3zm4.7.3c0 1.7.3 2.9.9 3.8.6.9 1.5 1.3 2.7 1.3 1.1 0 2-.4 2.6-1.3.6-.9 1-2.3 1-4.2 0-1.6-.3-2.9-1-3.8-.6-.9-1.5-1.3-2.7-1.3-1.1 0-2 .4-2.6 1.3-.6 1-.9 2.4-.9 4.2zM159 198.1l.1 2c1.2-1.6 2.9-2.3 5-2.3 1.8 0 3.2.5 4.1 1.6.9 1.1 1.4 2.7 1.4 4.9v11.3H165v-11.2c0-1-.2-1.7-.6-2.2s-1.1-.7-2.1-.7c-1.3 0-2.3.6-3 1.7v12.3h-4.7v-17.4h4.4zM191.2 202.5c-.6-.1-1.2-.1-1.7-.1-1.8 0-2.9.6-3.5 1.8v11.4h-4.7v-17.4h4.4l.1 2.1c.9-1.6 2.2-2.4 3.9-2.4.5 0 1 .1 1.5.2v4.4zM201.5 215.9c-2.6 0-4.6-.8-6.2-2.4-1.6-1.6-2.4-3.7-2.4-6.3v-.5c0-1.8.3-3.3 1-4.7.7-1.4 1.6-2.4 2.9-3.2 1.2-.7 2.7-1.1 4.2-1.1 2.4 0 4.3.8 5.6 2.3 1.4 1.5 2.1 3.6 2.1 6.4v1.9h-11.1c.2 1.1.6 2.1 1.4 2.7.8.7 1.7 1 2.9 1 1.8 0 3.2-.7 4.2-2l2.3 2.6c-.7 1-1.6 1.8-2.8 2.3-1.3.7-2.7 1-4.1 1zm-.5-14.3c-.9 0-1.7.3-2.2.9-.6.6-.9 1.5-1.1 2.7h6.5v-.4c0-1-.3-1.8-.8-2.4-.7-.5-1.5-.8-2.4-.8zM227 207c0 2.7-.6 4.8-1.8 6.5-1.2 1.6-2.9 2.4-4.9 2.4-1.8 0-3.2-.6-4.3-1.8v8.2h-4.7v-24.2h4.3l.2 1.7c1.1-1.4 2.6-2 4.4-2 2.2 0 3.8.8 5 2.4s1.8 3.8 1.8 6.6v.2zm-4.6-.3c0-1.6-.3-2.9-.9-3.8-.6-.9-1.4-1.3-2.5-1.3-1.5 0-2.5.6-3 1.7v7.1c.6 1.2 1.6 1.7 3 1.7 2.2.1 3.4-1.8 3.4-5.4zM229.2 206.7c0-1.7.3-3.3 1-4.6.7-1.4 1.6-2.4 2.9-3.1 1.3-.7 2.7-1.1 4.4-1.1 2.4 0 4.3.7 5.8 2.2s2.3 3.4 2.5 5.9v1.2c0 2.7-.7 4.8-2.2 6.4-1.5 1.6-3.5 2.4-6 2.4s-4.5-.8-6-2.4c-1.5-1.6-2.2-3.8-2.2-6.6v-.3zm4.6.3c0 1.7.3 2.9.9 3.8.6.9 1.5 1.3 2.7 1.3 1.1 0 2-.4 2.6-1.3.6-.9 1-2.3 1-4.2 0-1.6-.3-2.9-1-3.8-.6-.9-1.5-1.3-2.7-1.3-1.1 0-2 .4-2.6 1.3-.6 1-.9 2.4-.9 4.2zM258.4 202.5c-.6-.1-1.2-.1-1.7-.1-1.8 0-2.9.6-3.5 1.8v11.4h-4.7v-17.4h4.4l.1 2.1c.9-1.6 2.2-2.4 3.9-2.4.5 0 1 .1 1.5.2v4.4zM267 193.9v4.3h3v3.4h-3v8.7c0 .6.1 1.1.4 1.4.2.3.7.4 1.4.4.5 0 1 0 1.4-.1v3.5c-.9.3-1.9.4-2.8.4-3.3 0-4.9-1.6-5-5v-9.4h-2.5v-3.4h2.5v-4.3h4.6zM282 210.8c0-.6-.3-1-.8-1.3-.6-.3-1.5-.6-2.7-.9-4.2-.9-6.2-2.6-6.2-5.3 0-1.5.6-2.8 1.9-3.9 1.3-1 3-1.6 5-1.6 2.2 0 4 .5 5.3 1.6 1.3 1 2 2.4 2 4.1h-4.7c0-.7-.2-1.2-.6-1.7-.4-.4-1.1-.7-2-.7-.8 0-1.4.2-1.8.5-.4.4-.6.8-.6 1.4 0 .5.2.9.7 1.2.5.3 1.3.6 2.5.8 1.2.2 2.1.5 2.9.8 2.5.9 3.7 2.5 3.7 4.7 0 1.6-.7 2.9-2 3.9-1.4 1-3.1 1.5-5.3 1.5-1.5 0-2.8-.3-3.9-.8s-2-1.2-2.7-2.1c-.6-.9-1-1.9-1-2.9h4.4c0 .8.3 1.5.9 1.9.6.4 1.3.7 2.3.7.9 0 1.6-.2 2-.5s.7-.9.7-1.4zM29.1 242.7c0-1.7.3-3.3 1-4.6.7-1.4 1.6-2.4 2.9-3.1 1.3-.7 2.7-1.1 4.4-1.1 2.4 0 4.3.7 5.8 2.2s2.3 3.4 2.5 5.9v1.2c0 2.7-.7 4.8-2.2 6.4-1.5 1.6-3.5 2.4-6 2.4s-4.5-.8-6-2.4c-1.5-1.6-2.2-3.8-2.2-6.6v-.3zm4.7.3c0 1.7.3 2.9.9 3.8.6.9 1.5 1.3 2.7 1.3 1.1 0 2-.4 2.6-1.3.6-.9 1-2.3 1-4.2 0-1.6-.3-2.9-1-3.8-.6-.9-1.5-1.3-2.7-1.3-1.1 0-2 .4-2.6 1.3-.6 1-.9 2.4-.9 4.2zM49.8 251.6v-14h-2.6v-3.4h2.6v-1.5c0-2 .6-3.5 1.7-4.6 1.1-1.1 2.7-1.6 4.7-1.6.6 0 1.4.1 2.4.3v3.6c-.4-.1-.9-.1-1.4-.1-1.8 0-2.6.8-2.6 2.5v1.4h3.5v3.4h-3.5v14h-4.8zM68.5 229.6c0-.7.2-1.3.7-1.7.5-.5 1.1-.7 1.9-.7.8 0 1.4.2 1.9.7.5.5.7 1 .7 1.7s-.2 1.3-.7 1.7c-.5.5-1.1.7-1.9.7-.8 0-1.4-.2-1.9-.7-.4-.4-.7-1-.7-1.7zm5 22h-4.7v-17.4h4.7v17.4zM76.6 242.7c0-2.7.6-4.9 1.8-6.5 1.2-1.6 2.9-2.4 5-2.4 1.7 0 3.1.6 4.2 1.9v-8.9h4.7v24.8h-4.2l-.2-1.9c-1.2 1.5-2.7 2.2-4.5 2.2-2.1 0-3.7-.8-4.9-2.4-1.3-1.6-1.9-3.9-1.9-6.8zm4.6.4c0 1.6.3 2.9.9 3.8.6.9 1.4 1.3 2.5 1.3 1.4 0 2.5-.6 3-1.8v-6.9c-.6-1.2-1.6-1.8-3-1.8-2.2-.1-3.4 1.7-3.4 5.4zM104 251.9c-2.6 0-4.6-.8-6.2-2.4-1.6-1.6-2.4-3.7-2.4-6.3v-.5c0-1.8.3-3.3 1-4.7.7-1.4 1.6-2.4 2.9-3.2 1.2-.7 2.7-1.1 4.2-1.1 2.4 0 4.3.8 5.6 2.3 1.4 1.5 2.1 3.6 2.1 6.4v1.9H100c.2 1.1.6 2.1 1.4 2.7.8.7 1.7 1 2.9 1 1.8 0 3.2-.7 4.2-2l2.3 2.6c-.7 1-1.6 1.8-2.8 2.3-1.3.7-2.6 1-4 1zm-.6-14.3c-.9 0-1.7.3-2.2.9-.6.6-.9 1.5-1.1 2.7h6.5v-.4c0-1-.3-1.8-.8-2.4-.6-.5-1.4-.8-2.4-.8zM118.1 234.1l.1 2c1.2-1.6 2.9-2.3 5-2.3 1.8 0 3.2.5 4.1 1.6.9 1.1 1.4 2.7 1.4 4.9v11.3H124v-11.2c0-1-.2-1.7-.6-2.2s-1.1-.7-2.1-.7c-1.3 0-2.3.6-3 1.7v12.3h-4.7v-17.4h4.5zM137.8 229.9v4.3h3v3.4h-3v8.7c0 .6.1 1.1.4 1.4.2.3.7.4 1.4.4.5 0 1 0 1.4-.1v3.5c-.9.3-1.9.4-2.8.4-3.3 0-4.9-1.6-5-5v-9.4h-2.5v-3.4h2.5v-4.3h4.6zM143.4 229.6c0-.7.2-1.3.7-1.7.5-.5 1.1-.7 1.9-.7.8 0 1.4.2 1.9.7.5.5.7 1 .7 1.7s-.2 1.3-.7 1.7c-.5.5-1.1.7-1.9.7-.8 0-1.4-.2-1.9-.7-.5-.4-.7-1-.7-1.7zm4.9 22h-4.7v-17.4h4.7v17.4zM157.8 229.9v4.3h3v3.4h-3v8.7c0 .6.1 1.1.4 1.4.2.3.7.4 1.4.4.5 0 1 0 1.4-.1v3.5c-.9.3-1.9.4-2.8.4-3.3 0-4.9-1.6-5-5v-9.4h-2.5v-3.4h2.5v-4.3h4.6zM169.9 245l3.2-10.9h5l-7 20.2-.4.9c-1 2.3-2.8 3.4-5.2 3.4-.7 0-1.4-.1-2.1-.3v-3.5h.7c.9 0 1.5-.1 2-.4.4-.3.8-.7 1-1.3l.5-1.4-6.1-17.5h5l3.4 10.8zM193.7 229.9v4.3h3v3.4h-3v8.7c0 .6.1 1.1.4 1.4.2.3.7.4 1.4.4.5 0 1 0 1.4-.1v3.5c-.9.3-1.9.4-2.8.4-3.3 0-4.9-1.6-5-5v-9.4h-2.5v-3.4h2.5v-4.3h4.6zM203.8 236c1.2-1.5 2.8-2.2 4.7-2.2 3.8 0 5.7 2.2 5.8 6.6v11.2h-4.7v-11c0-1-.2-1.7-.6-2.2-.4-.5-1.1-.7-2.1-.7-1.4 0-2.4.5-3 1.6v12.4h-4.7v-24.8h4.7v9.1zM225.8 251.9c-2.6 0-4.6-.8-6.2-2.4-1.6-1.6-2.4-3.7-2.4-6.3v-.5c0-1.8.3-3.3 1-4.7.7-1.4 1.6-2.4 2.9-3.2 1.2-.7 2.7-1.1 4.2-1.1 2.4 0 4.3.8 5.6 2.3 1.4 1.5 2.1 3.6 2.1 6.4v1.9h-11.1c.2 1.1.6 2.1 1.4 2.7.8.7 1.7 1 2.9 1 1.8 0 3.2-.7 4.2-2l2.3 2.6c-.7 1-1.6 1.8-2.8 2.3-1.3.7-2.6 1-4.1 1zm-.5-14.3c-.9 0-1.7.3-2.2.9-.6.6-.9 1.5-1.1 2.7h6.5v-.4c0-1-.3-1.8-.8-2.4-.7-.5-1.4-.8-2.4-.8zM236.9 251.6v-14h-2.6v-3.4h2.6v-1.5c0-2 .6-3.5 1.7-4.6 1.1-1.1 2.7-1.6 4.7-1.6.6 0 1.4.1 2.4.3v3.6c-.4-.1-.9-.1-1.4-.1-1.8 0-2.6.8-2.6 2.5v1.4h3.5v3.4h-3.5v14h-4.8zM253 229.9v4.3h3v3.4h-3v8.7c0 .6.1 1.1.4 1.4.2.3.7.4 1.4.4.5 0 1 0 1.4-.1v3.5c-.9.3-1.9.4-2.8.4-3.3 0-4.9-1.6-5-5v-9.4h-2.5v-3.4h2.5v-4.3h4.6zM258.9 249.3c0-.7.2-1.3.8-1.8s1.1-.7 1.9-.7c.8 0 1.4.2 1.9.7s.8 1.1.8 1.8-.2 1.3-.7 1.8-1.1.7-1.9.7c-.8 0-1.4-.2-1.9-.7s-.9-1.1-.9-1.8z"/></g></svg>