<?xml version="1.0" encoding="utf-8"?>
<!-- Generator: Adobe Illustrator 24.2.3, SVG Export Plug-In . SVG Version: 6.00 Build 0)  -->
<svg version="1.1" id="Layer_1" xmlns="http://www.w3.org/2000/svg" xmlns:xlink="http://www.w3.org/1999/xlink" x="0px" y="0px"
	 viewBox="0 0 160 600" style="enable-background:new 0 0 160 600;" xml:space="preserve">
<style type="text/css">
	.st0{fill:#FFFFFF;}
</style>
<g>
	<path class="st0" d="M26.63,249.06v4.76h-2.78v-13.51h5.27c1.01,0,1.91,0.19,2.68,0.56c0.77,0.37,1.36,0.9,1.78,1.58
		c0.41,0.68,0.62,1.46,0.62,2.33c0,1.32-0.45,2.37-1.36,3.13c-0.91,0.76-2.16,1.15-3.76,1.15H26.63z M26.63,246.81h2.49
		c0.74,0,1.3-0.17,1.68-0.52c0.39-0.35,0.58-0.84,0.58-1.48c0-0.66-0.19-1.2-0.58-1.6c-0.39-0.41-0.93-0.62-1.61-0.63h-2.55V246.81z
		"/>
	<path class="st0" d="M41.57,246.3c-0.36-0.05-0.69-0.07-0.96-0.07c-1.01,0-1.68,0.34-1.99,1.03v6.57h-2.68v-10.04h2.53l0.07,1.2
		c0.54-0.92,1.28-1.38,2.24-1.38c0.3,0,0.57,0.04,0.83,0.12L41.57,246.3z"/>
	<path class="st0" d="M42.84,241.19c0-0.4,0.13-0.73,0.4-0.99c0.27-0.26,0.64-0.39,1.1-0.39c0.46,0,0.82,0.13,1.1,0.39
		c0.27,0.26,0.41,0.59,0.41,0.99c0,0.41-0.14,0.74-0.41,1c-0.28,0.26-0.64,0.39-1.09,0.39c-0.45,0-0.81-0.13-1.09-0.39
		S42.84,241.6,42.84,241.19z M45.69,253.82H43v-10.04h2.69V253.82z"/>
	<path class="st0" d="M51.65,250.55l1.87-6.76h2.8l-3.39,10.04h-2.56l-3.39-10.04h2.8L51.65,250.55z"/>
	<path class="st0" d="M63.17,253.82c-0.12-0.24-0.21-0.54-0.27-0.9c-0.65,0.72-1.49,1.09-2.53,1.09c-0.98,0-1.8-0.28-2.44-0.85
		c-0.65-0.57-0.97-1.29-0.97-2.15c0-1.06,0.39-1.88,1.18-2.45c0.79-0.57,1.93-0.86,3.42-0.86h1.23v-0.58c0-0.46-0.12-0.83-0.36-1.11
		c-0.24-0.28-0.61-0.42-1.13-0.42c-0.45,0-0.81,0.11-1.06,0.32c-0.26,0.22-0.38,0.51-0.38,0.89h-2.68c0-0.58,0.18-1.12,0.54-1.61
		c0.36-0.49,0.87-0.88,1.52-1.16c0.66-0.28,1.39-0.42,2.21-0.42c1.24,0,2.22,0.31,2.95,0.93c0.73,0.62,1.09,1.5,1.09,2.62v4.35
		c0.01,0.95,0.14,1.67,0.4,2.16v0.16H63.17z M60.96,251.96c0.4,0,0.76-0.09,1.1-0.26c0.33-0.18,0.58-0.41,0.74-0.71v-1.73h-1
		c-1.34,0-2.06,0.46-2.14,1.39l-0.01,0.16c0,0.33,0.12,0.61,0.35,0.83C60.23,251.85,60.55,251.96,60.96,251.96z"/>
	<path class="st0" d="M71.72,251.85c0.49,0,0.9-0.14,1.21-0.41c0.31-0.27,0.47-0.63,0.48-1.09h2.51c-0.01,0.68-0.19,1.3-0.56,1.87
		c-0.37,0.57-0.86,1.01-1.5,1.32c-0.63,0.31-1.33,0.47-2.1,0.47c-1.43,0-2.57-0.46-3.4-1.37c-0.83-0.91-1.24-2.17-1.24-3.78v-0.18
		c0-1.55,0.41-2.78,1.23-3.7c0.82-0.92,1.95-1.38,3.39-1.38c1.26,0,2.26,0.36,3.02,1.07c0.76,0.71,1.14,1.67,1.16,2.85h-2.51
		c-0.01-0.52-0.17-0.95-0.48-1.27c-0.31-0.33-0.72-0.49-1.22-0.49c-0.62,0-1.1,0.23-1.41,0.68c-0.32,0.46-0.48,1.19-0.48,2.22v0.28
		c0,1.03,0.16,1.78,0.47,2.23S71.07,251.85,71.72,251.85z"/>
	<path class="st0" d="M81.2,250.03l1.86-6.24h2.88l-4.04,11.6l-0.22,0.53c-0.6,1.31-1.59,1.97-2.97,1.97
		c-0.39,0-0.79-0.06-1.19-0.18v-2.03l0.41,0.01c0.51,0,0.89-0.08,1.14-0.23c0.25-0.15,0.45-0.41,0.59-0.77l0.32-0.83l-3.52-10.07
		h2.89L81.2,250.03z"/>
	<path class="st0" d="M97.85,252.12c-0.5,0.6-1.21,1.07-2.12,1.4c-0.92,0.33-1.93,0.5-3.04,0.5c-1.17,0-2.19-0.25-3.08-0.77
		c-0.88-0.51-1.56-1.25-2.04-2.22c-0.48-0.97-0.72-2.11-0.74-3.42v-0.92c0-1.35,0.23-2.52,0.68-3.5c0.46-0.99,1.11-1.74,1.97-2.26
		c0.86-0.52,1.86-0.78,3.01-0.78c1.6,0,2.85,0.38,3.76,1.15c0.9,0.76,1.44,1.88,1.6,3.34h-2.71c-0.12-0.77-0.4-1.34-0.82-1.7
		c-0.42-0.36-1.01-0.54-1.75-0.54c-0.95,0-1.67,0.36-2.16,1.07c-0.5,0.71-0.75,1.77-0.75,3.17v0.86c0,1.42,0.27,2.49,0.81,3.21
		s1.33,1.09,2.37,1.09c1.04,0,1.79-0.22,2.24-0.67v-2.33h-2.53v-2.05h5.32V252.12z"/>
	<path class="st0" d="M105.94,252.8c-0.66,0.8-1.58,1.21-2.75,1.21c-1.08,0-1.9-0.31-2.46-0.93c-0.57-0.62-0.85-1.52-0.87-2.72
		v-6.58h2.68v6.49c0,1.05,0.48,1.57,1.43,1.57c0.91,0,1.53-0.32,1.88-0.95v-7.11h2.69v10.04h-2.52L105.94,252.8z"/>
	<path class="st0" d="M116.38,253.82c-0.12-0.24-0.21-0.54-0.27-0.9c-0.65,0.72-1.49,1.09-2.53,1.09c-0.98,0-1.8-0.28-2.44-0.85
		c-0.65-0.57-0.97-1.29-0.97-2.15c0-1.06,0.39-1.88,1.18-2.45c0.79-0.57,1.93-0.86,3.42-0.86H116v-0.58c0-0.46-0.12-0.83-0.36-1.11
		c-0.24-0.28-0.61-0.42-1.13-0.42c-0.45,0-0.81,0.11-1.06,0.32c-0.26,0.22-0.38,0.51-0.38,0.89h-2.68c0-0.58,0.18-1.12,0.54-1.61
		c0.36-0.49,0.87-0.88,1.52-1.16c0.66-0.28,1.39-0.42,2.21-0.42c1.24,0,2.22,0.31,2.95,0.93c0.73,0.62,1.09,1.5,1.09,2.62v4.35
		c0.01,0.95,0.14,1.67,0.4,2.16v0.16H116.38z M114.16,251.96c0.4,0,0.76-0.09,1.1-0.26c0.33-0.18,0.58-0.41,0.74-0.71v-1.73h-1
		c-1.34,0-2.06,0.46-2.14,1.39l-0.01,0.16c0,0.33,0.12,0.61,0.35,0.83C113.43,251.85,113.75,251.96,114.16,251.96z"/>
	<path class="st0" d="M126.39,246.3c-0.36-0.05-0.69-0.07-0.96-0.07c-1.01,0-1.68,0.34-1.99,1.03v6.57h-2.68v-10.04h2.53l0.07,1.2
		c0.54-0.92,1.28-1.38,2.24-1.38c0.3,0,0.57,0.04,0.83,0.12L126.39,246.3z"/>
	<path class="st0" d="M127.26,248.73c0-1.56,0.35-2.81,1.05-3.74s1.66-1.39,2.88-1.39c0.98,0,1.78,0.37,2.42,1.09v-5.12h2.69v14.25
		h-2.42l-0.13-1.07c-0.67,0.83-1.53,1.25-2.58,1.25c-1.18,0-2.13-0.47-2.84-1.4C127.62,251.68,127.26,250.39,127.26,248.73z
		 M129.94,248.93c0,0.94,0.16,1.66,0.49,2.17c0.33,0.5,0.8,0.75,1.43,0.75c0.83,0,1.41-0.35,1.75-1.05v-3.97
		c-0.33-0.7-0.91-1.05-1.73-1.05C130.59,245.78,129.94,246.83,129.94,248.93z"/>
	<path class="st0" d="M17.26,275.41c0.61,0,1.15-0.19,1.6-0.56c0.46-0.37,0.71-0.83,0.76-1.39h1.62c-0.03,0.58-0.23,1.12-0.59,1.64
		s-0.85,0.93-1.46,1.24c-0.61,0.31-1.25,0.46-1.93,0.46c-1.37,0-2.45-0.46-3.26-1.37c-0.81-0.91-1.21-2.16-1.21-3.74v-0.29
		c0-0.98,0.18-1.85,0.54-2.61s0.87-1.35,1.54-1.77c0.67-0.42,1.46-0.63,2.38-0.63c1.12,0,2.06,0.34,2.81,1.01
		c0.75,0.67,1.14,1.55,1.19,2.63h-1.62c-0.05-0.65-0.3-1.18-0.74-1.6c-0.44-0.42-0.99-0.63-1.64-0.63c-0.87,0-1.55,0.31-2.03,0.94
		c-0.48,0.63-0.72,1.54-0.72,2.72v0.32c0,1.16,0.24,2.05,0.71,2.67C15.69,275.1,16.37,275.41,17.26,275.41z"/>
	<path class="st0" d="M29.37,276.62c-0.1-0.2-0.18-0.55-0.24-1.06c-0.8,0.83-1.75,1.24-2.86,1.24c-0.99,0-1.8-0.28-2.44-0.84
		c-0.63-0.56-0.95-1.27-0.95-2.13c0-1.04,0.4-1.86,1.19-2.44c0.79-0.58,1.91-0.87,3.35-0.87h1.67v-0.79c0-0.6-0.18-1.08-0.54-1.43
		c-0.36-0.36-0.89-0.53-1.59-0.53c-0.61,0-1.13,0.15-1.54,0.46c-0.41,0.31-0.62,0.68-0.62,1.12h-1.73c0-0.5,0.18-0.98,0.53-1.45
		c0.36-0.47,0.84-0.84,1.45-1.11c0.61-0.27,1.28-0.41,2.01-0.41c1.16,0,2.06,0.29,2.72,0.87c0.66,0.58,1,1.38,1.02,2.39v4.62
		c0,0.92,0.12,1.65,0.35,2.2v0.15H29.37z M26.53,275.31c0.54,0,1.05-0.14,1.53-0.42s0.83-0.64,1.05-1.09v-2.06h-1.34
		c-2.1,0-3.15,0.62-3.15,1.85c0,0.54,0.18,0.96,0.54,1.26C25.5,275.16,25.96,275.31,26.53,275.31z"/>
	<path class="st0" d="M35.14,266.58l0.06,1.26c0.77-0.96,1.77-1.45,3.01-1.45c2.12,0,3.19,1.2,3.21,3.59v6.63h-1.72v-6.64
		c-0.01-0.72-0.17-1.26-0.5-1.6c-0.33-0.35-0.83-0.52-1.52-0.52c-0.56,0-1.05,0.15-1.47,0.45c-0.42,0.3-0.75,0.69-0.98,1.17v7.15
		h-1.72v-10.04H35.14z"/>
	<path class="st0" d="M50.42,267.8c0.76-0.93,1.75-1.4,2.97-1.4c2.12,0,3.19,1.2,3.21,3.59v6.63h-1.72v-6.64
		c-0.01-0.72-0.17-1.26-0.5-1.6c-0.33-0.35-0.83-0.52-1.52-0.52c-0.56,0-1.05,0.15-1.47,0.45c-0.42,0.3-0.75,0.69-0.98,1.17v7.15
		H48.7v-14.25h1.72V267.8z"/>
	<path class="st0" d="M63.33,276.81c-1.36,0-2.47-0.45-3.32-1.34c-0.85-0.89-1.28-2.09-1.28-3.59v-0.32c0-1,0.19-1.88,0.57-2.67
		c0.38-0.78,0.91-1.39,1.6-1.84c0.68-0.44,1.42-0.66,2.22-0.66c1.3,0,2.32,0.43,3.04,1.29c0.72,0.86,1.08,2.09,1.08,3.69v0.71h-6.8
		c0.02,0.99,0.31,1.79,0.87,2.4c0.55,0.61,1.26,0.91,2.11,0.91c0.61,0,1.12-0.12,1.54-0.37c0.42-0.25,0.79-0.58,1.1-0.98l1.05,0.82
		C66.27,276.16,65.01,276.81,63.33,276.81z M63.12,267.81c-0.69,0-1.27,0.25-1.74,0.76c-0.47,0.5-0.76,1.21-0.87,2.12h5.03v-0.13
		c-0.05-0.87-0.28-1.55-0.71-2.03C64.4,268.05,63.83,267.81,63.12,267.81z"/>
	<path class="st0" d="M71.1,276.62h-1.72v-14.25h1.72V276.62z"/>
	<path class="st0" d="M82.32,271.72c0,1.53-0.35,2.76-1.05,3.69c-0.7,0.93-1.65,1.4-2.84,1.4c-1.22,0-2.18-0.39-2.88-1.16v4.83
		h-1.72v-13.9h1.57l0.08,1.11c0.7-0.87,1.67-1.3,2.91-1.3c1.21,0,2.16,0.45,2.86,1.36c0.7,0.91,1.05,2.17,1.05,3.79V271.72z
		 M80.6,271.52c0-1.13-0.24-2.03-0.72-2.68c-0.48-0.66-1.14-0.98-1.98-0.98c-1.04,0-1.82,0.46-2.34,1.38v4.8
		c0.51,0.92,1.3,1.37,2.36,1.37c0.82,0,1.48-0.33,1.96-0.98C80.36,273.78,80.6,272.81,80.6,271.52z"/>
	<path class="st0" d="M97.68,271.72c0,1.53-0.35,2.76-1.05,3.69c-0.7,0.93-1.65,1.4-2.84,1.4c-1.22,0-2.18-0.39-2.88-1.16v4.83H89.2
		v-13.9h1.57l0.08,1.11c0.7-0.87,1.67-1.3,2.91-1.3c1.21,0,2.16,0.45,2.86,1.36c0.7,0.91,1.05,2.17,1.05,3.79V271.72z M95.97,271.52
		c0-1.13-0.24-2.03-0.72-2.68c-0.48-0.66-1.14-0.98-1.98-0.98c-1.04,0-1.82,0.46-2.34,1.38v4.8c0.51,0.92,1.3,1.37,2.36,1.37
		c0.82,0,1.48-0.33,1.96-0.98C95.72,273.78,95.97,272.81,95.97,271.52z"/>
	<path class="st0" d="M104.72,268.12c-0.26-0.04-0.54-0.06-0.84-0.06c-1.13,0-1.89,0.48-2.29,1.44v7.12h-1.72v-10.04h1.67l0.03,1.16
		c0.56-0.9,1.36-1.35,2.39-1.35c0.33,0,0.59,0.04,0.76,0.13V268.12z"/>
	<path class="st0" d="M105.65,271.51c0-0.98,0.19-1.87,0.58-2.65c0.39-0.79,0.92-1.39,1.61-1.82s1.48-0.64,2.36-0.64
		c1.37,0,2.47,0.47,3.32,1.42c0.84,0.95,1.27,2.21,1.27,3.78v0.12c0,0.98-0.19,1.85-0.56,2.63c-0.37,0.78-0.91,1.38-1.6,1.81
		c-0.7,0.43-1.5,0.65-2.4,0.65c-1.36,0-2.46-0.47-3.31-1.42c-0.84-0.95-1.27-2.2-1.27-3.76V271.51z M107.38,271.72
		c0,1.11,0.26,2.01,0.77,2.68c0.52,0.67,1.21,1.01,2.07,1.01c0.87,0,1.56-0.34,2.08-1.02c0.51-0.68,0.77-1.64,0.77-2.87
		c0-1.1-0.26-1.99-0.78-2.68c-0.52-0.68-1.22-1.03-2.08-1.03c-0.85,0-1.53,0.34-2.05,1.01C107.64,269.5,107.38,270.46,107.38,271.72
		z"/>
	<path class="st0" d="M119.27,264.15v2.43h1.88v1.33h-1.88v6.23c0,0.4,0.08,0.7,0.25,0.91s0.45,0.3,0.85,0.3
		c0.2,0,0.47-0.04,0.82-0.11v1.38c-0.45,0.12-0.89,0.18-1.32,0.18c-0.77,0-1.35-0.23-1.73-0.7c-0.39-0.46-0.58-1.12-0.58-1.98v-6.23
		h-1.83v-1.33h1.83v-2.43H119.27z"/>
	<path class="st0" d="M127.32,276.81c-1.36,0-2.47-0.45-3.32-1.34c-0.85-0.89-1.28-2.09-1.28-3.59v-0.32c0-1,0.19-1.88,0.57-2.67
		c0.38-0.78,0.91-1.39,1.6-1.84c0.68-0.44,1.42-0.66,2.22-0.66c1.3,0,2.32,0.43,3.04,1.29c0.72,0.86,1.08,2.09,1.08,3.69v0.71h-6.8
		c0.02,0.99,0.31,1.79,0.87,2.4c0.55,0.61,1.26,0.91,2.11,0.91c0.61,0,1.12-0.12,1.54-0.37c0.42-0.25,0.79-0.58,1.1-0.98l1.05,0.82
		C130.26,276.16,129,276.81,127.32,276.81z M127.1,267.81c-0.69,0-1.27,0.25-1.74,0.76c-0.47,0.5-0.76,1.21-0.87,2.12h5.03v-0.13
		c-0.05-0.87-0.28-1.55-0.71-2.03C128.39,268.05,127.82,267.81,127.1,267.81z"/>
	<path class="st0" d="M137.24,275.41c0.61,0,1.15-0.19,1.6-0.56c0.46-0.37,0.71-0.83,0.76-1.39h1.62c-0.03,0.58-0.23,1.12-0.59,1.64
		s-0.85,0.93-1.46,1.24c-0.61,0.31-1.25,0.46-1.93,0.46c-1.37,0-2.45-0.46-3.26-1.37c-0.81-0.91-1.21-2.16-1.21-3.74v-0.29
		c0-0.98,0.18-1.85,0.54-2.61s0.87-1.35,1.54-1.77c0.67-0.42,1.46-0.63,2.38-0.63c1.12,0,2.06,0.34,2.81,1.01
		c0.75,0.67,1.14,1.55,1.19,2.63h-1.62c-0.05-0.65-0.3-1.18-0.74-1.6c-0.44-0.42-0.99-0.63-1.64-0.63c-0.87,0-1.55,0.31-2.03,0.94
		c-0.48,0.63-0.72,1.54-0.72,2.72v0.32c0,1.16,0.24,2.05,0.71,2.67C135.68,275.1,136.36,275.41,137.24,275.41z"/>
	<path class="st0" d="M145.49,264.15v2.43h1.88v1.33h-1.88v6.23c0,0.4,0.08,0.7,0.25,0.91s0.45,0.3,0.85,0.3
		c0.2,0,0.47-0.04,0.82-0.11v1.38c-0.45,0.12-0.89,0.18-1.32,0.18c-0.77,0-1.35-0.23-1.73-0.7c-0.39-0.46-0.58-1.12-0.58-1.98v-6.23
		h-1.83v-1.33h1.83v-2.43H145.49z"/>
	<path class="st0" d="M46.92,296.91l2.34-7.52h1.84l-4.04,11.59c-0.62,1.67-1.62,2.5-2.98,2.5l-0.32-0.03l-0.64-0.12v-1.39
		l0.46,0.04c0.58,0,1.03-0.12,1.36-0.35c0.32-0.24,0.59-0.67,0.8-1.29l0.38-1.02l-3.58-9.93h1.87L46.92,296.91z"/>
	<path class="st0" d="M52.17,294.31c0-0.98,0.19-1.87,0.58-2.65c0.39-0.79,0.92-1.39,1.61-1.82s1.48-0.64,2.36-0.64
		c1.37,0,2.47,0.47,3.32,1.42c0.84,0.95,1.27,2.21,1.27,3.78v0.12c0,0.98-0.19,1.85-0.56,2.63c-0.37,0.78-0.91,1.38-1.6,1.81
		c-0.7,0.43-1.5,0.65-2.4,0.65c-1.36,0-2.46-0.47-3.31-1.42c-0.84-0.95-1.27-2.2-1.27-3.76V294.31z M53.89,294.52
		c0,1.11,0.26,2.01,0.77,2.68c0.52,0.67,1.21,1.01,2.07,1.01c0.87,0,1.56-0.34,2.08-1.02c0.51-0.68,0.77-1.64,0.77-2.87
		c0-1.1-0.26-1.99-0.78-2.68c-0.52-0.68-1.22-1.03-2.08-1.03c-0.85,0-1.53,0.34-2.05,1.01C54.15,292.3,53.89,293.26,53.89,294.52z"
		/>
	<path class="st0" d="M69.66,298.43c-0.67,0.79-1.65,1.18-2.94,1.18c-1.07,0-1.88-0.31-2.44-0.93c-0.56-0.62-0.84-1.54-0.85-2.76
		v-6.53h1.72v6.48c0,1.52,0.62,2.28,1.86,2.28c1.31,0,2.18-0.49,2.62-1.47v-7.3h1.72v10.04h-1.63L69.66,298.43z"/>
	<path class="st0" d="M79.48,299.42v-8.71h-1.59v-1.33h1.59v-1.03c0-1.08,0.29-1.91,0.86-2.5c0.58-0.59,1.39-0.88,2.44-0.88
		c0.4,0,0.79,0.05,1.18,0.16l-0.09,1.38c-0.29-0.06-0.6-0.08-0.93-0.08c-0.56,0-0.99,0.16-1.29,0.49c-0.3,0.33-0.46,0.79-0.46,1.4
		v1.06h2.14v1.33H81.2v8.71H79.48z"/>
	<path class="st0" d="M90.08,290.93c-0.26-0.04-0.54-0.06-0.84-0.06c-1.13,0-1.89,0.48-2.29,1.44v7.12h-1.72v-10.04h1.67l0.03,1.16
		c0.56-0.9,1.36-1.35,2.39-1.35c0.33,0,0.59,0.04,0.76,0.13V290.93z"/>
	<path class="st0" d="M91.02,294.31c0-0.98,0.19-1.87,0.58-2.65c0.39-0.79,0.92-1.39,1.61-1.82s1.48-0.64,2.36-0.64
		c1.37,0,2.47,0.47,3.32,1.42c0.84,0.95,1.27,2.21,1.27,3.78v0.12c0,0.98-0.19,1.85-0.56,2.63c-0.37,0.78-0.91,1.38-1.6,1.81
		c-0.7,0.43-1.5,0.65-2.4,0.65c-1.36,0-2.46-0.47-3.31-1.42c-0.84-0.95-1.27-2.2-1.27-3.76V294.31z M92.75,294.52
		c0,1.11,0.26,2.01,0.77,2.68c0.52,0.67,1.21,1.01,2.07,1.01c0.87,0,1.56-0.34,2.08-1.02c0.51-0.68,0.77-1.64,0.77-2.87
		c0-1.1-0.26-1.99-0.78-2.68c-0.52-0.68-1.22-1.03-2.08-1.03c-0.85,0-1.53,0.34-2.05,1.01C93.01,292.3,92.75,293.26,92.75,294.52z"
		/>
	<path class="st0" d="M103.93,289.39l0.05,1.11c0.74-0.87,1.73-1.3,2.98-1.3c1.4,0,2.36,0.54,2.87,1.61
		c0.33-0.48,0.77-0.87,1.3-1.17s1.17-0.45,1.9-0.45c2.2,0,3.32,1.17,3.36,3.5v6.73h-1.72v-6.62c0-0.72-0.16-1.25-0.49-1.61
		c-0.33-0.36-0.88-0.53-1.65-0.53c-0.64,0-1.17,0.19-1.59,0.57c-0.42,0.38-0.67,0.89-0.73,1.54v6.66h-1.73v-6.58
		c0-1.46-0.71-2.19-2.14-2.19c-1.13,0-1.9,0.48-2.31,1.44v7.33h-1.72v-10.04H103.93z"/>
	<path class="st0" d="M23.84,309.59c0-0.4,0.13-0.73,0.4-0.99c0.27-0.26,0.64-0.39,1.1-0.39c0.46,0,0.82,0.13,1.1,0.39
		c0.27,0.26,0.41,0.59,0.41,0.99c0,0.41-0.14,0.74-0.41,1c-0.28,0.26-0.64,0.39-1.09,0.39c-0.45,0-0.81-0.13-1.09-0.39
		S23.84,310,23.84,309.59z M26.68,322.22h-2.69v-10.04h2.69V322.22z"/>
	<path class="st0" d="M28.47,317.13c0-1.56,0.35-2.81,1.05-3.74s1.66-1.39,2.88-1.39c0.98,0,1.78,0.37,2.42,1.09v-5.12h2.69v14.25
		H35.1l-0.13-1.07c-0.67,0.83-1.53,1.25-2.58,1.25c-1.18,0-2.13-0.47-2.84-1.4C28.83,320.08,28.47,318.79,28.47,317.13z
		 M31.15,317.33c0,0.94,0.16,1.66,0.49,2.17c0.33,0.5,0.8,0.75,1.43,0.75c0.83,0,1.41-0.35,1.75-1.05v-3.97
		c-0.33-0.7-0.91-1.05-1.73-1.05C31.8,314.18,31.15,315.23,31.15,317.33z"/>
	<path class="st0" d="M44.22,322.41c-1.47,0-2.67-0.45-3.6-1.35s-1.39-2.11-1.39-3.61v-0.26c0-1.01,0.2-1.91,0.58-2.7
		c0.39-0.79,0.94-1.41,1.66-1.84c0.71-0.43,1.53-0.64,2.45-0.64c1.37,0,2.45,0.43,3.24,1.3c0.79,0.87,1.18,2.09,1.18,3.68v1.09
		h-6.39c0.09,0.66,0.35,1.18,0.78,1.58c0.44,0.4,0.99,0.59,1.66,0.59c1.03,0,1.84-0.37,2.42-1.12l1.32,1.47
		c-0.4,0.57-0.95,1.01-1.63,1.33C45.81,322.25,45.05,322.41,44.22,322.41z M43.91,314.16c-0.53,0-0.96,0.18-1.29,0.54
		c-0.33,0.36-0.54,0.88-0.64,1.55h3.73v-0.21c-0.01-0.6-0.17-1.06-0.48-1.38S44.48,314.16,43.91,314.16z"/>
	<path class="st0" d="M52.34,312.19l0.08,1.16c0.72-0.9,1.68-1.34,2.89-1.34c1.06,0,1.86,0.31,2.38,0.94
		c0.52,0.62,0.79,1.56,0.8,2.8v6.49H55.8v-6.42c0-0.57-0.12-0.98-0.37-1.24c-0.25-0.26-0.66-0.39-1.23-0.39
		c-0.75,0-1.32,0.32-1.7,0.96v7.08h-2.68v-10.04H52.34z"/>
	<path class="st0" d="M63.72,309.72v2.47h1.72v1.97h-1.72v5.01c0,0.37,0.07,0.64,0.21,0.8s0.41,0.24,0.82,0.24
		c0.3,0,0.56-0.02,0.79-0.07v2.03c-0.53,0.16-1.07,0.24-1.62,0.24c-1.88,0-2.84-0.95-2.88-2.85v-5.41h-1.47v-1.97h1.47v-2.47H63.72z
		"/>
	<path class="st0" d="M66.91,309.59c0-0.4,0.13-0.73,0.4-0.99c0.27-0.26,0.64-0.39,1.1-0.39c0.46,0,0.82,0.13,1.1,0.39
		c0.27,0.26,0.41,0.59,0.41,0.99c0,0.41-0.14,0.74-0.41,1c-0.28,0.26-0.64,0.39-1.09,0.39c-0.45,0-0.81-0.13-1.09-0.39
		S66.91,310,66.91,309.59z M69.76,322.22h-2.69v-10.04h2.69V322.22z"/>
	<path class="st0" d="M75.18,309.72v2.47h1.72v1.97h-1.72v5.01c0,0.37,0.07,0.64,0.21,0.8s0.41,0.24,0.82,0.24
		c0.3,0,0.56-0.02,0.79-0.07v2.03c-0.53,0.16-1.07,0.24-1.62,0.24c-1.88,0-2.84-0.95-2.88-2.85v-5.41h-1.47v-1.97h1.47v-2.47H75.18z
		"/>
	<path class="st0" d="M82.13,318.43l1.86-6.24h2.88l-4.04,11.6l-0.22,0.53c-0.6,1.31-1.59,1.97-2.97,1.97
		c-0.39,0-0.79-0.06-1.19-0.18v-2.03l0.41,0.01c0.51,0,0.89-0.08,1.14-0.23c0.25-0.15,0.45-0.41,0.59-0.77l0.32-0.83l-3.52-10.07
		h2.89L82.13,318.43z"/>
	<path class="st0" d="M95.86,309.72v2.47h1.72v1.97h-1.72v5.01c0,0.37,0.07,0.64,0.21,0.8s0.41,0.24,0.82,0.24
		c0.3,0,0.56-0.02,0.79-0.07v2.03c-0.53,0.16-1.07,0.24-1.62,0.24c-1.88,0-2.84-0.95-2.88-2.85v-5.41h-1.47v-1.97h1.47v-2.47H95.86z
		"/>
	<path class="st0" d="M101.69,313.28c0.71-0.85,1.6-1.28,2.68-1.28c2.18,0,3.28,1.26,3.31,3.79v6.43H105v-6.36
		c0-0.58-0.12-1-0.37-1.28s-0.66-0.41-1.23-0.41c-0.79,0-1.36,0.3-1.71,0.91v7.13h-2.68v-14.25h2.68V313.28z"/>
	<path class="st0" d="M114.33,322.41c-1.47,0-2.67-0.45-3.6-1.35s-1.39-2.11-1.39-3.61v-0.26c0-1.01,0.2-1.91,0.58-2.7
		c0.39-0.79,0.94-1.41,1.66-1.84c0.71-0.43,1.53-0.64,2.45-0.64c1.37,0,2.45,0.43,3.24,1.3c0.79,0.87,1.18,2.09,1.18,3.68v1.09
		h-6.39c0.09,0.66,0.35,1.18,0.78,1.58c0.44,0.4,0.99,0.59,1.66,0.59c1.03,0,1.84-0.37,2.42-1.12l1.32,1.47
		c-0.4,0.57-0.95,1.01-1.63,1.33C115.92,322.25,115.16,322.41,114.33,322.41z M114.02,314.16c-0.53,0-0.96,0.18-1.29,0.54
		c-0.33,0.36-0.54,0.88-0.64,1.55h3.73v-0.21c-0.01-0.6-0.17-1.06-0.48-1.38S114.59,314.16,114.02,314.16z"/>
	<path class="st0" d="M120.71,322.22v-8.07h-1.49v-1.97h1.49v-0.85c0-1.13,0.32-2,0.97-2.62c0.65-0.62,1.55-0.93,2.71-0.93
		c0.37,0,0.83,0.06,1.36,0.19l-0.03,2.08c-0.22-0.06-0.49-0.08-0.82-0.08c-1.01,0-1.51,0.47-1.51,1.42v0.81h1.99v1.97h-1.99v8.07
		H120.71z"/>
	<path class="st0" d="M129.99,309.72v2.47h1.72v1.97h-1.72v5.01c0,0.37,0.07,0.64,0.21,0.8s0.41,0.24,0.82,0.24
		c0.3,0,0.56-0.02,0.79-0.07v2.03c-0.53,0.16-1.07,0.24-1.62,0.24c-1.88,0-2.84-0.95-2.88-2.85v-5.41h-1.47v-1.97h1.47v-2.47H129.99
		z"/>
	<path class="st0" d="M133.51,321.32c0-0.3,0.09-0.54,0.26-0.74c0.18-0.2,0.44-0.3,0.79-0.3s0.62,0.1,0.8,0.3
		c0.18,0.2,0.27,0.45,0.27,0.74c0,0.29-0.09,0.52-0.27,0.71c-0.18,0.19-0.45,0.29-0.8,0.29s-0.62-0.1-0.79-0.29
		C133.6,321.85,133.51,321.61,133.51,321.32z"/>
</g>
<g>
	<path class="st0" d="M35.78,496.48c0-0.36-0.13-0.66-0.38-0.91s-0.68-0.47-1.27-0.67c-0.83-0.25-1.44-0.58-1.82-0.99
		s-0.57-0.93-0.57-1.56c0-0.64,0.19-1.17,0.56-1.58s0.89-0.65,1.54-0.73v-1.28h0.87v1.29c0.66,0.09,1.17,0.37,1.53,0.83
		s0.55,1.09,0.55,1.89h-1.08c0-0.55-0.13-0.99-0.39-1.32c-0.26-0.33-0.62-0.49-1.06-0.49c-0.46,0-0.82,0.12-1.07,0.36
		c-0.25,0.24-0.37,0.58-0.37,1.01c0,0.4,0.13,0.72,0.39,0.95c0.26,0.24,0.69,0.45,1.28,0.65c0.6,0.19,1.06,0.41,1.39,0.64
		s0.58,0.5,0.74,0.81s0.24,0.67,0.24,1.08c0,0.66-0.2,1.19-0.59,1.59s-0.95,0.64-1.67,0.71v1.12h-0.87v-1.12
		c-0.73-0.07-1.3-0.33-1.71-0.78s-0.62-1.06-0.62-1.84h1.08c0,0.54,0.14,0.96,0.43,1.25s0.69,0.44,1.21,0.44
		c0.51,0,0.91-0.12,1.21-0.37S35.78,496.9,35.78,496.48z"/>
	<path class="st0" d="M41.77,498.68h-1.09v-7.22l-2.19,0.8v-0.98l3.11-1.17h0.17V498.68z"/>
	<path class="st0" d="M49.5,490.8v1.54h1.18v0.84H49.5v3.94c0,0.25,0.05,0.44,0.16,0.57c0.11,0.13,0.29,0.19,0.54,0.19
		c0.12,0,0.3-0.02,0.52-0.07v0.87c-0.29,0.08-0.56,0.12-0.83,0.12c-0.48,0-0.85-0.15-1.1-0.44s-0.37-0.71-0.37-1.25v-3.93h-1.15
		v-0.84h1.15v-1.54H49.5z"/>
	<path class="st0" d="M55.01,493.31c-0.16-0.03-0.34-0.04-0.53-0.04c-0.71,0-1.19,0.3-1.45,0.91v4.5h-1.08v-6.34H53l0.02,0.73
		c0.36-0.57,0.86-0.85,1.51-0.85c0.21,0,0.37,0.03,0.48,0.08V493.31z"/>
	<path class="st0" d="M56.01,490.65c0-0.18,0.05-0.32,0.16-0.45s0.27-0.18,0.48-0.18s0.37,0.06,0.48,0.18s0.16,0.27,0.16,0.45
		s-0.05,0.32-0.16,0.44s-0.27,0.18-0.48,0.18s-0.37-0.06-0.48-0.18S56.01,490.83,56.01,490.65z M57.19,498.68H56.1v-6.34h1.08
		V498.68z"/>
	<path class="st0" d="M62.83,498.68c-0.06-0.12-0.11-0.35-0.15-0.67c-0.5,0.52-1.11,0.79-1.8,0.79c-0.62,0-1.14-0.18-1.54-0.53
		s-0.6-0.8-0.6-1.34c0-0.66,0.25-1.17,0.75-1.54s1.21-0.55,2.12-0.55h1.05v-0.5c0-0.38-0.11-0.68-0.34-0.91s-0.56-0.34-1-0.34
		c-0.39,0-0.71,0.1-0.97,0.29s-0.39,0.43-0.39,0.71h-1.09c0-0.32,0.11-0.62,0.34-0.92s0.53-0.53,0.91-0.7s0.81-0.26,1.27-0.26
		c0.73,0,1.3,0.18,1.72,0.55s0.63,0.87,0.64,1.51v2.92c0,0.58,0.07,1.04,0.22,1.39v0.09H62.83z M61.04,497.85
		c0.34,0,0.66-0.09,0.97-0.26s0.53-0.4,0.66-0.69v-1.3h-0.85c-1.33,0-1.99,0.39-1.99,1.17c0,0.34,0.11,0.61,0.34,0.8
		S60.68,497.85,61.04,497.85z"/>
	<path class="st0" d="M66.63,498.68h-1.08v-9h1.08V498.68z"/>
	<path class="st0" d="M71.86,498.68v-5.5h-1v-0.84h1v-0.65c0-0.68,0.18-1.21,0.54-1.58s0.88-0.56,1.54-0.56
		c0.25,0,0.5,0.03,0.74,0.1l-0.06,0.87c-0.18-0.04-0.38-0.05-0.59-0.05c-0.35,0-0.62,0.1-0.81,0.31c-0.19,0.21-0.29,0.5-0.29,0.88
		v0.67h1.35v0.84h-1.35v5.5H71.86z"/>
	<path class="st0" d="M75.21,495.45c0-0.62,0.12-1.18,0.37-1.68s0.58-0.88,1.02-1.15s0.93-0.4,1.49-0.4c0.86,0,1.56,0.3,2.09,0.9
		s0.8,1.39,0.8,2.38v0.08c0,0.62-0.12,1.17-0.35,1.66s-0.57,0.87-1.01,1.15s-0.94,0.41-1.51,0.41c-0.86,0-1.56-0.3-2.09-0.9
		s-0.8-1.39-0.8-2.37V495.45z M76.3,495.58c0,0.7,0.16,1.27,0.49,1.69s0.76,0.64,1.31,0.64c0.55,0,0.99-0.22,1.31-0.65
		s0.49-1.04,0.49-1.81c0-0.7-0.17-1.26-0.5-1.69s-0.77-0.65-1.32-0.65c-0.54,0-0.97,0.21-1.29,0.64S76.3,494.78,76.3,495.58z"/>
	<path class="st0" d="M85.4,493.31c-0.16-0.03-0.34-0.04-0.53-0.04c-0.71,0-1.19,0.3-1.45,0.91v4.5h-1.08v-6.34h1.05l0.02,0.73
		c0.36-0.57,0.86-0.85,1.51-0.85c0.21,0,0.37,0.03,0.48,0.08V493.31z"/>
	<path class="st0" d="M90.84,490.8v1.54h1.18v0.84h-1.18v3.94c0,0.25,0.05,0.44,0.16,0.57c0.11,0.13,0.29,0.19,0.54,0.19
		c0.12,0,0.3-0.02,0.52-0.07v0.87c-0.29,0.08-0.56,0.12-0.83,0.12c-0.48,0-0.85-0.15-1.1-0.44s-0.37-0.71-0.37-1.25v-3.93H88.6
		v-0.84h1.15v-1.54H90.84z"/>
	<path class="st0" d="M94.38,493.1c0.48-0.59,1.11-0.88,1.88-0.88c1.34,0,2.02,0.76,2.03,2.27v4.19h-1.08v-4.2
		c0-0.46-0.11-0.79-0.31-1.01s-0.52-0.33-0.96-0.33c-0.35,0-0.66,0.09-0.93,0.28s-0.47,0.43-0.62,0.74v4.52h-1.08v-9h1.08V493.1z"/>
	<path class="st0" d="M102.53,498.79c-0.86,0-1.56-0.28-2.1-0.85s-0.81-1.32-0.81-2.26v-0.2c0-0.63,0.12-1.19,0.36-1.68
		s0.58-0.88,1.01-1.16s0.9-0.42,1.4-0.42c0.82,0,1.46,0.27,1.92,0.81s0.69,1.32,0.69,2.33v0.45h-4.29c0.02,0.62,0.2,1.13,0.55,1.51
		s0.79,0.58,1.33,0.58c0.38,0,0.71-0.08,0.97-0.23s0.5-0.36,0.7-0.62l0.66,0.52C104.39,498.38,103.59,498.79,102.53,498.79z
		 M102.4,493.11c-0.44,0-0.8,0.16-1.1,0.48s-0.48,0.76-0.55,1.34h3.18v-0.08c-0.03-0.55-0.18-0.98-0.45-1.28
		S102.85,493.11,102.4,493.11z"/>
	<path class="st0" d="M109.76,498.68v-5.5h-1v-0.84h1v-0.65c0-0.68,0.18-1.21,0.54-1.58s0.88-0.56,1.54-0.56
		c0.25,0,0.5,0.03,0.74,0.1l-0.06,0.87c-0.18-0.04-0.38-0.05-0.59-0.05c-0.35,0-0.62,0.1-0.81,0.31c-0.19,0.21-0.29,0.5-0.29,0.88
		v0.67h1.35v0.84h-1.35v5.5H109.76z"/>
	<path class="st0" d="M113.4,490.65c0-0.18,0.05-0.32,0.16-0.45s0.27-0.18,0.48-0.18s0.37,0.06,0.48,0.18s0.16,0.27,0.16,0.45
		s-0.05,0.32-0.16,0.44s-0.27,0.18-0.48,0.18s-0.37-0.06-0.48-0.18S113.4,490.83,113.4,490.65z M114.57,498.68h-1.08v-6.34h1.08
		V498.68z"/>
	<path class="st0" d="M119.37,493.31c-0.16-0.03-0.34-0.04-0.53-0.04c-0.71,0-1.19,0.3-1.45,0.91v4.5h-1.08v-6.34h1.05l0.02,0.73
		c0.36-0.57,0.86-0.85,1.51-0.85c0.21,0,0.37,0.03,0.48,0.08V493.31z"/>
	<path class="st0" d="M124.06,496.99c0-0.29-0.11-0.52-0.33-0.68s-0.61-0.3-1.15-0.42s-0.98-0.26-1.31-0.42s-0.56-0.36-0.71-0.59
		s-0.23-0.5-0.23-0.81c0-0.52,0.22-0.96,0.66-1.32s1-0.54,1.68-0.54c0.72,0,1.3,0.19,1.75,0.56s0.67,0.85,0.67,1.42h-1.09
		c0-0.3-0.13-0.55-0.38-0.77s-0.57-0.32-0.95-0.32c-0.39,0-0.7,0.09-0.93,0.26s-0.33,0.4-0.33,0.67c0,0.26,0.1,0.46,0.31,0.59
		s0.58,0.26,1.12,0.38s0.98,0.27,1.32,0.43s0.58,0.37,0.75,0.61s0.24,0.52,0.24,0.86c0,0.57-0.23,1.02-0.68,1.36
		s-1.04,0.51-1.76,0.51c-0.51,0-0.96-0.09-1.35-0.27s-0.7-0.43-0.92-0.75s-0.33-0.67-0.33-1.05h1.08c0.02,0.36,0.17,0.65,0.44,0.86
		s0.63,0.32,1.08,0.32c0.41,0,0.74-0.08,0.99-0.25S124.06,497.27,124.06,496.99z"/>
	<path class="st0" d="M128.03,490.8v1.54h1.18v0.84h-1.18v3.94c0,0.25,0.05,0.44,0.16,0.57c0.11,0.13,0.29,0.19,0.54,0.19
		c0.12,0,0.3-0.02,0.52-0.07v0.87c-0.29,0.08-0.56,0.12-0.83,0.12c-0.48,0-0.85-0.15-1.1-0.44s-0.37-0.71-0.37-1.25v-3.93h-1.15
		v-0.84h1.15v-1.54H128.03z"/>
	<path class="st0" d="M24.6,513.08h-1.69v-6.53l-2.02,0.63v-1.38l3.53-1.27h0.18V513.08z"/>
	<path class="st0" d="M32.38,509.86h0.97v1.37h-0.97v1.85h-1.69v-1.85h-3.5l-0.08-1.07l3.56-5.62h1.71V509.86z M28.8,509.86h1.89
		v-3.01l-0.11,0.19L28.8,509.86z"/>
	<path class="st0" d="M37.05,509.86c0-0.99,0.22-1.78,0.67-2.36s1.05-0.88,1.82-0.88c0.62,0,1.13,0.23,1.53,0.69v-3.23h1.7v9h-1.53
		l-0.08-0.67c-0.42,0.53-0.96,0.79-1.63,0.79c-0.75,0-1.34-0.29-1.8-0.88S37.05,510.91,37.05,509.86z M38.75,509.98
		c0,0.59,0.1,1.05,0.31,1.37c0.21,0.32,0.51,0.48,0.9,0.48c0.52,0,0.89-0.22,1.11-0.66v-2.51c-0.21-0.44-0.58-0.66-1.1-0.66
		C39.15,508,38.75,508.66,38.75,509.98z"/>
	<path class="st0" d="M47.75,513.08c-0.08-0.15-0.13-0.34-0.17-0.57c-0.41,0.46-0.94,0.69-1.6,0.69c-0.62,0-1.14-0.18-1.54-0.54
		s-0.61-0.81-0.61-1.36c0-0.67,0.25-1.19,0.75-1.55s1.22-0.54,2.16-0.54h0.78v-0.36c0-0.29-0.08-0.53-0.23-0.7s-0.39-0.26-0.71-0.26
		c-0.29,0-0.51,0.07-0.67,0.21s-0.24,0.32-0.24,0.56h-1.69c0-0.37,0.11-0.71,0.34-1.02s0.55-0.56,0.96-0.74s0.88-0.27,1.39-0.27
		c0.78,0,1.4,0.2,1.86,0.59s0.69,0.94,0.69,1.66v2.75c0,0.6,0.09,1.06,0.25,1.37v0.1H47.75z M46.35,511.9
		c0.25,0,0.48-0.06,0.69-0.17s0.37-0.26,0.47-0.45v-1.09h-0.63c-0.85,0-1.3,0.29-1.35,0.88l-0.01,0.1c0,0.21,0.07,0.38,0.22,0.52
		S46.09,511.9,46.35,511.9z"/>
	<path class="st0" d="M52.88,510.68l1.17-3.94h1.82l-2.55,7.32l-0.14,0.33c-0.38,0.83-1,1.24-1.88,1.24c-0.25,0-0.5-0.04-0.75-0.11
		v-1.28l0.26,0.01c0.32,0,0.56-0.05,0.72-0.15s0.28-0.26,0.37-0.49l0.2-0.52l-2.22-6.36h1.82L52.88,510.68z"/>
	<path class="st0" d="M59.97,511.32c0-0.21-0.1-0.37-0.31-0.49s-0.53-0.23-0.99-0.32c-1.51-0.32-2.26-0.96-2.26-1.92
		c0-0.56,0.23-1.03,0.7-1.41s1.08-0.57,1.83-0.57c0.8,0,1.45,0.19,1.93,0.57s0.72,0.87,0.72,1.48H59.9c0-0.24-0.08-0.44-0.23-0.6
		s-0.4-0.24-0.73-0.24c-0.29,0-0.51,0.06-0.66,0.19s-0.23,0.29-0.23,0.49c0,0.19,0.09,0.34,0.27,0.45s0.48,0.21,0.9,0.3
		s0.78,0.18,1.07,0.28c0.89,0.33,1.34,0.9,1.34,1.71c0,0.58-0.25,1.05-0.74,1.4s-1.14,0.54-1.92,0.54c-0.53,0-1-0.09-1.42-0.28
		s-0.74-0.45-0.97-0.78s-0.35-0.69-0.35-1.07h1.61c0.02,0.3,0.13,0.53,0.33,0.69s0.48,0.24,0.83,0.24c0.32,0,0.57-0.06,0.74-0.18
		S59.97,511.52,59.97,511.32z"/>
	<path class="st0" d="M62.84,514.77l-0.62-0.42c0.37-0.51,0.56-1.04,0.57-1.58v-0.98h1.06v0.85c0,0.39-0.1,0.79-0.29,1.18
		S63.13,514.54,62.84,514.77z"/>
	<path class="st0" d="M73.56,509.98c0,0.96-0.22,1.74-0.66,2.33s-1.04,0.88-1.79,0.88c-0.77,0-1.38-0.24-1.82-0.73v3.05H68.2v-8.78
		h0.99l0.05,0.7c0.44-0.55,1.05-0.82,1.84-0.82c0.76,0,1.36,0.29,1.81,0.86s0.67,1.37,0.67,2.4V509.98z M72.47,509.85
		c0-0.71-0.15-1.28-0.46-1.69s-0.72-0.62-1.25-0.62c-0.66,0-1.15,0.29-1.48,0.87v3.03c0.32,0.58,0.82,0.87,1.49,0.87
		c0.52,0,0.93-0.21,1.24-0.62S72.47,510.67,72.47,509.85z"/>
	<path class="st0" d="M76.11,513.08h-1.08v-9h1.08V513.08z"/>
	<path class="st0" d="M81.76,513.08c-0.06-0.12-0.11-0.35-0.15-0.67c-0.5,0.52-1.1,0.79-1.8,0.79c-0.62,0-1.14-0.18-1.54-0.53
		s-0.6-0.8-0.6-1.34c0-0.66,0.25-1.17,0.75-1.54s1.21-0.55,2.12-0.55h1.05v-0.5c0-0.38-0.11-0.68-0.34-0.91s-0.56-0.34-1-0.34
		c-0.39,0-0.71,0.1-0.97,0.29s-0.39,0.43-0.39,0.71h-1.09c0-0.32,0.11-0.62,0.34-0.92s0.53-0.53,0.91-0.7s0.81-0.26,1.27-0.26
		c0.73,0,1.3,0.18,1.72,0.55s0.63,0.87,0.64,1.51v2.92c0,0.58,0.07,1.04,0.22,1.39v0.09H81.76z M79.96,512.25
		c0.34,0,0.66-0.09,0.97-0.26c0.3-0.18,0.52-0.4,0.66-0.69V510h-0.85c-1.33,0-1.99,0.39-1.99,1.17c0,0.34,0.11,0.61,0.34,0.8
		S79.61,512.25,79.96,512.25z"/>
	<path class="st0" d="M85.4,506.74l0.04,0.8c0.48-0.61,1.12-0.91,1.9-0.91c1.34,0,2.02,0.76,2.03,2.27v4.19h-1.08v-4.2
		c0-0.46-0.11-0.79-0.31-1.01s-0.52-0.33-0.96-0.33c-0.35,0-0.66,0.09-0.93,0.28s-0.47,0.43-0.62,0.74v4.52h-1.08v-6.34H85.4z"/>
	<path class="st0" d="M94.69,511.39c0-0.29-0.11-0.52-0.33-0.68s-0.61-0.3-1.15-0.42s-0.98-0.26-1.31-0.42s-0.56-0.36-0.71-0.59
		s-0.23-0.5-0.23-0.81c0-0.52,0.22-0.96,0.66-1.32s1-0.54,1.68-0.54c0.72,0,1.3,0.19,1.75,0.56s0.67,0.85,0.67,1.42h-1.09
		c0-0.3-0.13-0.55-0.38-0.77s-0.57-0.32-0.95-0.32c-0.39,0-0.7,0.09-0.93,0.26s-0.33,0.4-0.33,0.67c0,0.26,0.1,0.46,0.31,0.59
		s0.58,0.26,1.12,0.38s0.98,0.27,1.32,0.43s0.58,0.37,0.75,0.61s0.24,0.52,0.24,0.86c0,0.57-0.23,1.02-0.68,1.36
		s-1.04,0.51-1.76,0.51c-0.51,0-0.96-0.09-1.35-0.27s-0.7-0.43-0.92-0.75s-0.33-0.67-0.33-1.05h1.08c0.02,0.36,0.17,0.65,0.44,0.86
		s0.63,0.32,1.08,0.32c0.41,0,0.74-0.08,0.99-0.25S94.69,511.67,94.69,511.39z"/>
	<path class="st0" d="M103.84,511.39c0-0.29-0.11-0.52-0.33-0.68s-0.61-0.3-1.15-0.42s-0.98-0.26-1.31-0.42s-0.56-0.36-0.71-0.59
		s-0.23-0.5-0.23-0.81c0-0.52,0.22-0.96,0.66-1.32s1-0.54,1.68-0.54c0.72,0,1.3,0.19,1.75,0.56s0.67,0.85,0.67,1.42h-1.09
		c0-0.3-0.13-0.55-0.38-0.77s-0.57-0.32-0.95-0.32c-0.39,0-0.7,0.09-0.93,0.26s-0.33,0.4-0.33,0.67c0,0.26,0.1,0.46,0.31,0.59
		s0.58,0.26,1.12,0.38s0.98,0.27,1.32,0.43s0.58,0.37,0.75,0.61s0.24,0.52,0.24,0.86c0,0.57-0.23,1.02-0.68,1.36
		s-1.04,0.51-1.76,0.51c-0.51,0-0.96-0.09-1.35-0.27s-0.7-0.43-0.92-0.75s-0.33-0.67-0.33-1.05h1.08c0.02,0.36,0.17,0.65,0.44,0.86
		s0.63,0.32,1.08,0.32c0.41,0,0.74-0.08,0.99-0.25S103.84,511.67,103.84,511.39z"/>
	<path class="st0" d="M107.81,505.2v1.54h1.18v0.84h-1.18v3.94c0,0.25,0.05,0.45,0.16,0.57s0.29,0.19,0.54,0.19
		c0.12,0,0.3-0.02,0.52-0.07v0.87c-0.29,0.08-0.56,0.12-0.83,0.12c-0.48,0-0.85-0.15-1.1-0.44s-0.37-0.71-0.37-1.25v-3.93h-1.15
		v-0.84h1.15v-1.54H107.81z"/>
	<path class="st0" d="M114.17,513.08c-0.06-0.12-0.11-0.35-0.15-0.67c-0.5,0.52-1.11,0.79-1.8,0.79c-0.62,0-1.14-0.18-1.54-0.53
		s-0.6-0.8-0.6-1.34c0-0.66,0.25-1.17,0.75-1.54s1.21-0.55,2.12-0.55H114v-0.5c0-0.38-0.11-0.68-0.34-0.91s-0.56-0.34-1-0.34
		c-0.39,0-0.71,0.1-0.97,0.29s-0.39,0.43-0.39,0.71h-1.09c0-0.32,0.11-0.62,0.34-0.92s0.53-0.53,0.91-0.7s0.81-0.26,1.27-0.26
		c0.73,0,1.3,0.18,1.72,0.55s0.63,0.87,0.64,1.51v2.92c0,0.58,0.07,1.04,0.22,1.39v0.09H114.17z M112.38,512.25
		c0.34,0,0.66-0.09,0.97-0.26s0.53-0.4,0.66-0.69V510h-0.85c-1.33,0-1.99,0.39-1.99,1.17c0,0.34,0.11,0.61,0.34,0.8
		S112.02,512.25,112.38,512.25z"/>
	<path class="st0" d="M119.85,507.71c-0.16-0.03-0.34-0.04-0.53-0.04c-0.71,0-1.19,0.3-1.45,0.91v4.5h-1.08v-6.34h1.05l0.02,0.73
		c0.36-0.57,0.86-0.85,1.51-0.85c0.21,0,0.37,0.03,0.48,0.08V507.71z"/>
	<path class="st0" d="M122.61,505.2v1.54h1.18v0.84h-1.18v3.94c0,0.25,0.05,0.45,0.16,0.57s0.29,0.19,0.54,0.19
		c0.12,0,0.3-0.02,0.52-0.07v0.87c-0.29,0.08-0.56,0.12-0.83,0.12c-0.48,0-0.85-0.15-1.1-0.44s-0.37-0.71-0.37-1.25v-3.93h-1.15
		v-0.84h1.15v-1.54H122.61z"/>
	<path class="st0" d="M125.07,505.05c0-0.18,0.05-0.32,0.16-0.45s0.27-0.18,0.48-0.18s0.37,0.06,0.48,0.18s0.16,0.27,0.16,0.45
		s-0.05,0.32-0.16,0.44s-0.27,0.18-0.48,0.18s-0.37-0.06-0.48-0.18S125.07,505.23,125.07,505.05z M126.24,513.08h-1.08v-6.34h1.08
		V513.08z"/>
	<path class="st0" d="M129,506.74l0.04,0.8c0.48-0.61,1.12-0.91,1.9-0.91c1.34,0,2.02,0.76,2.03,2.27v4.19h-1.08v-4.2
		c0-0.46-0.11-0.79-0.31-1.01s-0.52-0.33-0.96-0.33c-0.35,0-0.66,0.09-0.93,0.28s-0.47,0.43-0.62,0.74v4.52h-1.08v-6.34H129z"/>
	<path class="st0" d="M134.34,509.85c0-0.99,0.23-1.77,0.69-2.36s1.06-0.88,1.82-0.88c0.77,0,1.38,0.27,1.81,0.82l0.05-0.7h0.99
		v6.19c0,0.82-0.24,1.47-0.73,1.94s-1.14,0.71-1.96,0.71c-0.46,0-0.9-0.1-1.34-0.29s-0.77-0.46-1-0.8l0.56-0.65
		c0.46,0.57,1.03,0.86,1.71,0.86c0.53,0,0.94-0.15,1.23-0.45s0.44-0.71,0.44-1.25v-0.54c-0.43,0.5-1.03,0.75-1.78,0.75
		c-0.74,0-1.34-0.3-1.8-0.9S134.34,510.88,134.34,509.85z M135.43,509.98c0,0.71,0.15,1.28,0.44,1.68s0.7,0.61,1.23,0.61
		c0.68,0,1.19-0.31,1.51-0.93v-2.89c-0.33-0.61-0.83-0.91-1.49-0.91c-0.53,0-0.94,0.21-1.24,0.62S135.43,509.17,135.43,509.98z"/>
	<path class="st0" d="M43.15,527.48c-0.06-0.12-0.11-0.35-0.15-0.67c-0.5,0.52-1.11,0.79-1.8,0.79c-0.62,0-1.14-0.18-1.54-0.53
		s-0.6-0.8-0.6-1.34c0-0.66,0.25-1.17,0.75-1.54s1.21-0.55,2.12-0.55h1.05v-0.5c0-0.38-0.11-0.68-0.34-0.91s-0.56-0.34-1-0.34
		c-0.39,0-0.71,0.1-0.97,0.29s-0.39,0.43-0.39,0.71h-1.09c0-0.32,0.11-0.62,0.34-0.92s0.53-0.53,0.91-0.7s0.81-0.26,1.27-0.26
		c0.73,0,1.3,0.18,1.72,0.55s0.63,0.87,0.64,1.51v2.92c0,0.58,0.07,1.04,0.22,1.39v0.09H43.15z M41.35,526.65
		c0.34,0,0.66-0.09,0.97-0.26s0.53-0.4,0.66-0.69v-1.3h-0.85c-1.33,0-1.99,0.39-1.99,1.17c0,0.34,0.11,0.61,0.34,0.8
		S40.99,526.65,41.35,526.65z"/>
	<path class="st0" d="M47.23,519.6v1.54h1.18v0.84h-1.18v3.94c0,0.25,0.05,0.44,0.16,0.57c0.11,0.13,0.29,0.19,0.54,0.19
		c0.12,0,0.3-0.02,0.52-0.07v0.87c-0.29,0.08-0.56,0.12-0.83,0.12c-0.48,0-0.85-0.15-1.1-0.44s-0.37-0.71-0.37-1.25v-3.93h-1.15
		v-0.84h1.15v-1.54H47.23z"/>
	<path class="st0" d="M56.46,525.23c0-0.32-0.09-0.58-0.27-0.76s-0.48-0.36-0.91-0.52s-0.79-0.32-1.1-0.48s-0.57-0.34-0.79-0.54
		s-0.39-0.45-0.52-0.72s-0.18-0.61-0.18-0.99c0-0.66,0.21-1.2,0.63-1.62s0.98-0.67,1.68-0.74v-1.25h0.94v1.27
		c0.69,0.1,1.23,0.39,1.62,0.86s0.59,1.1,0.59,1.86h-1.69c0-0.47-0.1-0.82-0.29-1.05s-0.45-0.35-0.78-0.35
		c-0.32,0-0.57,0.09-0.74,0.27s-0.26,0.43-0.26,0.75c0,0.3,0.09,0.54,0.26,0.71s0.49,0.36,0.96,0.55s0.85,0.36,1.15,0.53
		s0.55,0.35,0.76,0.56s0.37,0.45,0.47,0.71s0.16,0.58,0.16,0.93c0,0.66-0.21,1.2-0.62,1.62s-0.98,0.66-1.71,0.73v1.17h-0.93v-1.16
		c-0.8-0.09-1.42-0.37-1.86-0.85s-0.66-1.12-0.66-1.92h1.69c0,0.46,0.11,0.82,0.33,1.07s0.54,0.37,0.95,0.37
		c0.34,0,0.62-0.09,0.81-0.27S56.46,525.54,56.46,525.23z"/>
	<path class="st0" d="M63.26,524.07c-0.44,0.43-0.96,0.65-1.55,0.65c-0.75,0-1.36-0.26-1.81-0.78s-0.68-1.22-0.68-2.09
		c0-0.56,0.12-1.07,0.37-1.54s0.58-0.83,1.02-1.09s0.93-0.39,1.48-0.39c0.56,0,1.06,0.14,1.5,0.42s0.78,0.69,1.02,1.21
		s0.37,1.13,0.37,1.81v0.63c0,1.42-0.35,2.54-1.06,3.35s-1.71,1.25-3.01,1.3l-0.42,0.01v-1.41l0.38-0.01
		C62.34,526.07,63.14,525.38,63.26,524.07z M62.13,523.42c0.27,0,0.51-0.07,0.71-0.21s0.35-0.31,0.45-0.51V522
		c0-0.57-0.11-1.02-0.33-1.34s-0.51-0.47-0.88-0.47c-0.34,0-0.62,0.16-0.84,0.47s-0.33,0.7-0.33,1.17c0,0.46,0.11,0.85,0.32,1.15
		S61.74,523.42,62.13,523.42z"/>
	<path class="st0" d="M66.34,526.64c0-0.27,0.09-0.49,0.27-0.66s0.41-0.25,0.68-0.25c0.28,0,0.51,0.08,0.69,0.25
		s0.27,0.39,0.27,0.66c0,0.27-0.09,0.48-0.27,0.65s-0.41,0.25-0.69,0.25c-0.28,0-0.51-0.08-0.69-0.25S66.34,526.91,66.34,526.64z"/>
	<path class="st0" d="M73.63,524.07c-0.44,0.43-0.96,0.65-1.55,0.65c-0.75,0-1.36-0.26-1.81-0.78s-0.68-1.22-0.68-2.09
		c0-0.56,0.12-1.07,0.37-1.54s0.58-0.83,1.02-1.09s0.93-0.39,1.48-0.39c0.56,0,1.06,0.14,1.5,0.42s0.78,0.69,1.02,1.21
		s0.37,1.13,0.37,1.81v0.63c0,1.42-0.35,2.54-1.06,3.35s-1.71,1.25-3.01,1.3l-0.42,0.01v-1.41l0.38-0.01
		C72.71,526.07,73.51,525.38,73.63,524.07z M72.5,523.42c0.27,0,0.51-0.07,0.71-0.21s0.35-0.31,0.45-0.51V522
		c0-0.57-0.11-1.02-0.33-1.34s-0.51-0.47-0.88-0.47c-0.34,0-0.62,0.16-0.84,0.47s-0.33,0.7-0.33,1.17c0,0.46,0.11,0.85,0.32,1.15
		S72.11,523.42,72.5,523.42z"/>
	<path class="st0" d="M80.51,524.07c-0.44,0.43-0.96,0.65-1.55,0.65c-0.75,0-1.36-0.26-1.81-0.78s-0.68-1.22-0.68-2.09
		c0-0.56,0.12-1.07,0.37-1.54s0.58-0.83,1.02-1.09s0.93-0.39,1.48-0.39c0.56,0,1.06,0.14,1.5,0.42c0.44,0.28,0.78,0.69,1.02,1.21
		s0.37,1.13,0.37,1.81v0.63c0,1.42-0.35,2.54-1.06,3.35c-0.71,0.81-1.71,1.25-3.01,1.3l-0.42,0.01v-1.41l0.38-0.01
		C79.59,526.07,80.39,525.38,80.51,524.07z M79.38,523.42c0.27,0,0.51-0.07,0.71-0.21s0.35-0.31,0.45-0.51V522
		c0-0.57-0.11-1.02-0.33-1.34s-0.51-0.47-0.88-0.47c-0.34,0-0.62,0.16-0.84,0.47s-0.33,0.7-0.33,1.17c0,0.46,0.11,0.85,0.32,1.15
		S78.99,523.42,79.38,523.42z"/>
	<path class="st0" d="M84.04,528.21h-1.26l3.14-9.26h1.26L84.04,528.21z"/>
	<path class="st0" d="M89.58,521.14l0.05,0.71c0.45-0.55,1.06-0.83,1.82-0.83c0.82,0,1.38,0.32,1.68,0.97
		c0.45-0.64,1.08-0.97,1.9-0.97c0.69,0,1.2,0.2,1.54,0.6s0.5,1,0.5,1.81v4.05h-1.7v-4.04c0-0.36-0.07-0.62-0.21-0.79
		s-0.39-0.25-0.74-0.25c-0.51,0-0.86,0.24-1.05,0.73l0.01,4.35h-1.69v-4.04c0-0.37-0.07-0.63-0.22-0.8s-0.39-0.25-0.74-0.25
		c-0.48,0-0.83,0.2-1.04,0.6v4.48h-1.69v-6.34H89.58z"/>
	<path class="st0" d="M98.11,524.25c0-0.63,0.12-1.19,0.36-1.68s0.59-0.87,1.05-1.14s0.98-0.4,1.58-0.4c0.86,0,1.55,0.26,2.09,0.79
		s0.84,1.23,0.91,2.13l0.01,0.43c0,0.97-0.27,1.75-0.81,2.34s-1.27,0.88-2.19,0.88s-1.64-0.29-2.19-0.88s-0.82-1.38-0.82-2.39
		V524.25z M99.81,524.37c0,0.6,0.11,1.06,0.34,1.38c0.23,0.32,0.55,0.48,0.97,0.48c0.41,0,0.73-0.16,0.96-0.47
		c0.23-0.31,0.35-0.82,0.35-1.51c0-0.59-0.12-1.05-0.35-1.37c-0.23-0.33-0.55-0.49-0.97-0.49c-0.41,0-0.73,0.16-0.96,0.48
		C99.92,523.19,99.81,523.69,99.81,524.37z"/>
	<path class="st0" d="M106.72,521.14l0.05,0.73c0.45-0.57,1.06-0.85,1.82-0.85c0.67,0,1.17,0.2,1.5,0.59s0.5,0.98,0.5,1.77v4.1
		h-1.69v-4.05c0-0.36-0.08-0.62-0.23-0.78s-0.42-0.24-0.78-0.24c-0.48,0-0.83,0.2-1.07,0.61v4.47h-1.69v-6.34H106.72z"/>
	<path class="st0" d="M113.91,519.58v1.56h1.08v1.24h-1.08v3.16c0,0.23,0.04,0.4,0.13,0.5s0.26,0.15,0.52,0.15
		c0.19,0,0.35-0.01,0.5-0.04v1.28c-0.33,0.1-0.67,0.15-1.03,0.15c-1.19,0-1.79-0.6-1.82-1.8v-3.42h-0.93v-1.24h0.93v-1.56H113.91z"
		/>
	<path class="st0" d="M117.59,521.83c0.45-0.54,1.01-0.81,1.69-0.81c1.38,0,2.07,0.8,2.09,2.4v4.06h-1.69v-4.01
		c0-0.36-0.08-0.63-0.23-0.81s-0.42-0.26-0.78-0.26c-0.5,0-0.86,0.19-1.08,0.57v4.51h-1.69v-9h1.69V521.83z"/>
</g>
</svg>
