<?xml version="1.0" encoding="utf-8"?>
<!-- Generator: Adobe Illustrator 24.2.3, SVG Export Plug-In . SVG Version: 6.00 Build 0)  -->
<svg version="1.1" id="Layer_1" xmlns="http://www.w3.org/2000/svg" xmlns:xlink="http://www.w3.org/1999/xlink" x="0px" y="0px"
	 viewBox="0 0 320 50" style="enable-background:new 0 0 320 50;" xml:space="preserve">
<style type="text/css">
	.st0{fill:#EDF4FD;}
	.st1{fill:#021D8B;}
</style>
<g id="Button_6_">
	<g>
		<path class="st0" d="M65.92,44.66H27.15c-7.16,0-12.97-5.81-12.97-12.97v0c0-7.16,5.81-12.97,12.97-12.97h38.77
			c7.16,0,12.97,5.81,12.97,12.97v0C78.88,38.86,73.08,44.66,65.92,44.66z"/>
	</g>
	<g>
		<path class="st1" d="M32.06,28.1c0,0.85-0.18,1.51-0.54,1.98s-0.87,0.71-1.51,0.71c-0.57,0-1.03-0.22-1.37-0.66l-0.06,0.56H27.3
			v-7.5h1.41v2.69c0.33-0.38,0.75-0.57,1.28-0.57c0.64,0,1.15,0.24,1.52,0.71s0.55,1.14,0.55,2V28.1z M30.65,27.99
			c0-0.53-0.08-0.92-0.25-1.17s-0.42-0.37-0.76-0.37c-0.45,0-0.76,0.18-0.93,0.55v2.08c0.17,0.37,0.48,0.56,0.94,0.56
			c0.46,0,0.76-0.22,0.9-0.67C30.61,28.76,30.65,28.43,30.65,27.99z"/>
		<path class="st1" d="M36.09,30.15c-0.35,0.42-0.83,0.63-1.45,0.63c-0.57,0-1-0.16-1.3-0.49s-0.45-0.8-0.46-1.43v-3.46h1.41v3.42
			c0,0.55,0.25,0.83,0.75,0.83c0.48,0,0.81-0.17,0.99-0.5v-3.74h1.42v5.28h-1.33L36.09,30.15z"/>
		<path class="st1" d="M38.51,24.04c0-0.21,0.07-0.39,0.21-0.52s0.33-0.21,0.58-0.21c0.24,0,0.43,0.07,0.58,0.21
			s0.21,0.31,0.21,0.52c0,0.21-0.07,0.39-0.22,0.53s-0.34,0.21-0.57,0.21s-0.43-0.07-0.57-0.21S38.51,24.25,38.51,24.04z
			 M40.01,30.69H38.6v-5.28h1.42V30.69z"/>
		<path class="st1" d="M42.66,30.69h-1.42v-7.5h1.42V30.69z"/>
		<path class="st1" d="M43.61,28.01c0-0.82,0.18-1.48,0.55-1.97s0.88-0.73,1.52-0.73c0.51,0,0.94,0.19,1.27,0.58v-2.7h1.42v7.5
			h-1.27l-0.07-0.56c-0.35,0.44-0.8,0.66-1.36,0.66c-0.62,0-1.12-0.25-1.5-0.73S43.61,28.88,43.61,28.01z M45.02,28.11
			c0,0.5,0.09,0.88,0.26,1.14s0.42,0.4,0.75,0.4c0.44,0,0.74-0.18,0.92-0.55v-2.09c-0.18-0.37-0.48-0.55-0.91-0.55
			C45.36,26.46,45.02,27.01,45.02,28.11z"/>
		<path class="st1" d="M51.73,28c0-0.52,0.1-0.99,0.3-1.4s0.49-0.73,0.87-0.95s0.82-0.34,1.32-0.34c0.71,0,1.29,0.22,1.75,0.65
			s0.7,1.03,0.75,1.78l0.01,0.36c0,0.81-0.23,1.46-0.68,1.95s-1.06,0.73-1.82,0.73s-1.37-0.24-1.82-0.73s-0.68-1.15-0.68-1.99V28z
			 M53.14,28.1c0,0.5,0.09,0.89,0.28,1.15s0.46,0.4,0.81,0.4c0.34,0,0.61-0.13,0.8-0.39c0.19-0.26,0.29-0.68,0.29-1.26
			c0-0.49-0.1-0.87-0.29-1.14s-0.46-0.41-0.81-0.41c-0.35,0-0.61,0.13-0.8,0.4S53.14,27.54,53.14,28.1z"/>
		<path class="st1" d="M60.77,30.15c-0.35,0.42-0.83,0.63-1.45,0.63c-0.57,0-1-0.16-1.3-0.49s-0.45-0.8-0.46-1.43v-3.46h1.41v3.42
			c0,0.55,0.25,0.83,0.75,0.83c0.48,0,0.81-0.17,0.99-0.5v-3.74h1.42v5.28h-1.33L60.77,30.15z"/>
		<path class="st1" d="M66.17,26.73c-0.19-0.03-0.36-0.04-0.51-0.04c-0.53,0-0.88,0.18-1.05,0.54v3.46H63.2v-5.28h1.33l0.04,0.63
			c0.28-0.48,0.68-0.73,1.18-0.73c0.16,0,0.3,0.02,0.44,0.06L66.17,26.73z"/>
		<path class="st1" d="M33.9,41.69v-4.25h-0.79v-1.04h0.79v-0.45c0-0.59,0.17-1.05,0.51-1.38s0.82-0.49,1.43-0.49
			c0.2,0,0.43,0.03,0.72,0.1l-0.01,1.09c-0.12-0.03-0.26-0.04-0.43-0.04c-0.53,0-0.8,0.25-0.8,0.75v0.42h1.05v1.04h-1.05v4.25H33.9z
			"/>
		<path class="st1" d="M40.26,41.15c-0.35,0.42-0.83,0.63-1.45,0.63c-0.57,0-1-0.16-1.3-0.49s-0.45-0.8-0.46-1.43v-3.46h1.41v3.42
			c0,0.55,0.25,0.83,0.75,0.83c0.48,0,0.81-0.17,0.99-0.5v-3.74h1.42v5.28H40.3L40.26,41.15z"/>
		<path class="st1" d="M44.39,35.11v1.3h0.9v1.04h-0.9v2.64c0,0.2,0.04,0.34,0.11,0.42s0.22,0.13,0.43,0.13
			c0.16,0,0.29-0.01,0.42-0.03v1.07c-0.28,0.08-0.56,0.13-0.85,0.13c-0.99,0-1.49-0.5-1.51-1.5v-2.85H42.2v-1.04h0.77v-1.3H44.39z"
			/>
		<path class="st1" d="M49.24,41.15c-0.35,0.42-0.83,0.63-1.45,0.63c-0.57,0-1-0.16-1.3-0.49s-0.45-0.8-0.46-1.43v-3.46h1.41v3.42
			c0,0.55,0.25,0.83,0.75,0.83c0.48,0,0.81-0.17,0.99-0.5v-3.74h1.42v5.28h-1.33L49.24,41.15z"/>
		<path class="st1" d="M54.64,37.73c-0.19-0.03-0.36-0.04-0.51-0.04c-0.53,0-0.88,0.18-1.05,0.54v3.46h-1.41v-5.28H53l0.04,0.63
			c0.28-0.48,0.68-0.73,1.18-0.73c0.16,0,0.3,0.02,0.44,0.06L54.64,37.73z"/>
		<path class="st1" d="M57.66,41.79c-0.77,0-1.41-0.24-1.89-0.71s-0.73-1.11-0.73-1.9v-0.14c0-0.53,0.1-1,0.31-1.42
			s0.5-0.74,0.87-0.97s0.8-0.34,1.29-0.34c0.72,0,1.29,0.23,1.71,0.68s0.62,1.1,0.62,1.94v0.58h-3.36c0.05,0.35,0.18,0.62,0.41,0.83
			s0.52,0.31,0.87,0.31c0.54,0,0.97-0.2,1.27-0.59l0.69,0.78c-0.21,0.3-0.5,0.53-0.86,0.7S58.1,41.79,57.66,41.79z M57.5,37.45
			c-0.28,0-0.51,0.09-0.68,0.28c-0.17,0.19-0.29,0.46-0.33,0.81h1.96v-0.11c-0.01-0.31-0.09-0.56-0.25-0.73
			C58.03,37.53,57.8,37.45,57.5,37.45z"/>
	</g>
</g>
</svg>
