<?xml version="1.0" encoding="utf-8"?>
<!-- Generator: Adobe Illustrator 25.3.1, SVG Export Plug-In . SVG Version: 6.00 Build 0)  -->
<svg version="1.1" id="Layer_1" xmlns="http://www.w3.org/2000/svg" xmlns:xlink="http://www.w3.org/1999/xlink" x="0px" y="0px"
	 viewBox="0 0 970 250" style="enable-background:new 0 0 970 250;" xml:space="preserve">
<style type="text/css">
	.st0{fill:#FFFFFF;}
</style>
<g>
	<path class="st0" d="M175.1,102.15V74.06h9.05c2.48,0,4.71,0.56,6.69,1.69c1.98,1.13,3.53,2.71,4.64,4.77s1.67,4.35,1.69,6.9v1.29
		c0,2.57-0.54,4.88-1.63,6.92s-2.62,3.63-4.59,4.78c-1.97,1.15-4.18,1.73-6.61,1.75H175.1z M181.87,79.29v17.65h2.35
		c1.94,0,3.43-0.69,4.48-2.07c1.04-1.38,1.56-3.44,1.56-6.16v-1.22c0-2.71-0.52-4.76-1.56-6.13c-1.04-1.38-2.56-2.06-4.55-2.06
		H181.87z"/>
	<path class="st0" d="M199.52,91.52c0-2.08,0.41-3.94,1.22-5.57s1.97-2.88,3.49-3.75c1.52-0.87,3.3-1.31,5.34-1.31
		c3.12,0,5.59,0.97,7.39,2.9c1.8,1.94,2.7,4.57,2.7,7.9v0.23c0,3.25-0.9,5.84-2.71,7.75c-1.81,1.91-4.25,2.87-7.34,2.87
		c-2.97,0-5.36-0.89-7.16-2.67s-2.77-4.2-2.91-7.24L199.52,91.52z M206.02,91.92c0,1.93,0.3,3.34,0.91,4.24s1.5,1.35,2.68,1.35
		c2.32,0,3.5-1.78,3.55-5.34v-0.66c0-3.74-1.2-5.61-3.59-5.61c-2.17,0-3.35,1.61-3.53,4.84L206.02,91.92z"/>
	<path class="st0" d="M228.5,81.27l0.21,2.45c1.44-1.89,3.43-2.84,5.96-2.84c2.17,0,3.8,0.65,4.87,1.95
		c1.07,1.3,1.63,3.25,1.67,5.87v13.45h-6.52V88.97c0-1.05-0.21-1.83-0.64-2.32c-0.42-0.5-1.2-0.74-2.31-0.74
		c-1.27,0-2.22,0.5-2.84,1.5v14.74h-6.5V81.27H228.5z"/>
	<path class="st0" d="M246.9,75.64l-0.64,7.97h-3.99V72.51h4.63V75.64z"/>
	<path class="st0" d="M256.93,76.08v5.19h3.43v4.51h-3.43v9.55c0,0.79,0.14,1.33,0.42,1.64s0.84,0.46,1.68,0.46
		c0.64,0,1.18-0.04,1.62-0.12v4.65c-1.17,0.37-2.39,0.56-3.67,0.56c-2.24,0-3.89-0.53-4.96-1.58s-1.6-2.66-1.6-4.8V85.79h-2.66
		v-4.51h2.66v-5.19H256.93z"/>
	<path class="st0" d="M292.14,91.88c0,3.42-0.71,6.05-2.12,7.89c-1.42,1.84-3.41,2.76-5.98,2.76c-2.12,0-3.83-0.84-5.13-2.53
		l-0.27,2.14h-5.83V72.51h6.5v10.44c1.21-1.38,2.77-2.06,4.69-2.06c2.6,0,4.6,0.93,6.02,2.8c1.41,1.87,2.12,4.49,2.12,7.87V91.88z
		 M285.62,91.47c0-2-0.27-3.43-0.8-4.29c-0.53-0.85-1.35-1.28-2.46-1.28c-1.47,0-2.48,0.56-3.05,1.68v8.28
		c0.55,1.1,1.58,1.66,3.09,1.66c1.53,0,2.5-0.75,2.91-2.23C285.52,94.55,285.62,93.28,285.62,91.47z"/>
	<path class="st0" d="M305.1,102.53c-3.2,0-5.79-0.96-7.78-2.87c-1.98-1.91-2.97-4.39-2.97-7.46v-0.54c0-2.13,0.4-4.02,1.19-5.65
		s1.95-2.9,3.46-3.79s3.32-1.34,5.4-1.34c2.93,0,5.25,0.91,6.95,2.73c1.7,1.82,2.55,4.36,2.55,7.61v2.53h-12.93
		c0.23,1.17,0.74,2.09,1.52,2.76c0.78,0.67,1.8,1,3.05,1c2.06,0,3.67-0.72,4.82-2.16l2.97,3.51c-0.81,1.12-1.96,2.01-3.44,2.67
		S306.81,102.53,305.1,102.53z M304.37,85.9c-1.9,0-3.04,1.26-3.4,3.78h6.56v-0.5c0.03-1.04-0.24-1.85-0.79-2.42
		C306.19,86.19,305.4,85.9,304.37,85.9z"/>
	<path class="st0" d="M345.73,91.86c0,3.24-0.73,5.83-2.19,7.76c-1.46,1.94-3.43,2.9-5.91,2.9c-1.92,0-3.49-0.7-4.73-2.1v9.74h-6.5
		v-28.9h6.08l0.19,1.93c1.25-1.54,2.89-2.32,4.92-2.32c2.57,0,4.57,0.95,6,2.85s2.14,4.5,2.14,7.82V91.86z M339.23,91.46
		c0-3.7-1.08-5.56-3.24-5.56c-1.54,0-2.57,0.55-3.09,1.66v8.22c0.57,1.16,1.61,1.74,3.12,1.74c2.07,0,3.14-1.79,3.2-5.36V91.46z"/>
	<path class="st0" d="M360.36,102.15c-0.23-0.42-0.44-1.05-0.62-1.87c-1.2,1.5-2.87,2.26-5.02,2.26c-1.97,0-3.64-0.59-5.02-1.78
		c-1.38-1.19-2.06-2.68-2.06-4.49c0-2.26,0.84-3.97,2.51-5.13s4.1-1.74,7.29-1.74h2.01v-1.11c0-1.92-0.83-2.89-2.49-2.89
		c-1.54,0-2.32,0.76-2.32,2.29h-6.5c0-2.02,0.86-3.65,2.58-4.91s3.91-1.89,6.57-1.89c2.66,0,4.77,0.65,6.31,1.95
		c1.54,1.3,2.33,3.08,2.37,5.34v9.24c0.03,1.92,0.32,3.38,0.89,4.4v0.33H360.36z M356.29,97.9c0.81,0,1.48-0.17,2.02-0.52
		c0.53-0.35,0.92-0.74,1.15-1.18v-3.34h-1.89c-2.26,0-3.4,1.02-3.4,3.05c0,0.59,0.2,1.07,0.6,1.44
		C355.16,97.72,355.67,97.9,356.29,97.9z"/>
	<path class="st0" d="M382.19,87.16L380.05,87c-2.04,0-3.36,0.64-3.94,1.93v13.21h-6.5V81.27h6.1l0.21,2.68
		c1.09-2.04,2.62-3.07,4.57-3.07c0.69,0,1.3,0.08,1.81,0.23L382.19,87.16z"/>
	<path class="st0" d="M393.08,76.08v5.19h3.43v4.51h-3.43v9.55c0,0.79,0.14,1.33,0.42,1.64s0.84,0.46,1.68,0.46
		c0.64,0,1.18-0.04,1.62-0.12v4.65c-1.17,0.37-2.39,0.56-3.67,0.56c-2.24,0-3.89-0.53-4.96-1.58s-1.6-2.66-1.6-4.8V85.79h-2.66
		v-4.51h2.66v-5.19H393.08z"/>
	<path class="st0" d="M408.08,91.52c0-2.08,0.41-3.94,1.22-5.57s1.97-2.88,3.49-3.75c1.52-0.87,3.3-1.31,5.34-1.31
		c3.12,0,5.59,0.97,7.39,2.9c1.8,1.94,2.7,4.57,2.7,7.9v0.23c0,3.25-0.9,5.84-2.71,7.75c-1.81,1.91-4.25,2.87-7.34,2.87
		c-2.97,0-5.36-0.89-7.16-2.67s-2.77-4.2-2.91-7.24L408.08,91.52z M414.59,91.92c0,1.93,0.3,3.34,0.91,4.24s1.5,1.35,2.68,1.35
		c2.32,0,3.5-1.78,3.55-5.34v-0.66c0-3.74-1.2-5.61-3.59-5.61c-2.17,0-3.35,1.61-3.53,4.84L414.59,91.92z"/>
	<path class="st0" d="M432.53,102.15V85.79h-3.03v-4.51h3.03v-1.66c0-2.38,0.7-4.22,2.1-5.54c1.4-1.31,3.37-1.97,5.9-1.97
		c0.93,0,1.94,0.14,3.05,0.41l0.02,4.79c-0.4-0.12-0.93-0.17-1.6-0.17c-1.97,0-2.95,0.85-2.95,2.55v1.6h4.07v4.51h-4.07v16.36
		H432.53z"/>
	<path class="st0" d="M462.82,76.08v5.19h3.43v4.51h-3.43v9.55c0,0.79,0.14,1.33,0.42,1.64s0.84,0.46,1.68,0.46
		c0.64,0,1.18-0.04,1.62-0.12v4.65c-1.17,0.37-2.39,0.56-3.67,0.56c-2.24,0-3.89-0.53-4.96-1.58s-1.6-2.66-1.6-4.8V85.79h-2.66
		v-4.51h2.66v-5.19H462.82z"/>
	<path class="st0" d="M475.16,83.51c1.39-1.75,3.16-2.62,5.32-2.62c2.3,0,4.04,0.68,5.21,2.04c1.17,1.36,1.77,3.38,1.79,6.04v13.18
		h-6.52V89.12c0-1.11-0.22-1.92-0.67-2.44c-0.45-0.52-1.22-0.78-2.3-0.78c-1.34,0-2.28,0.42-2.84,1.27v14.97h-6.5V72.51h6.5V83.51z"
		/>
	<path class="st0" d="M491.06,75.89c0-0.93,0.33-1.68,1-2.28c0.67-0.59,1.54-0.89,2.6-0.89c1.07,0,1.94,0.3,2.6,0.89
		c0.67,0.59,1,1.35,1,2.28c0,0.93-0.33,1.69-1,2.28c-0.67,0.59-1.54,0.89-2.6,0.89c-1.07,0-1.94-0.3-2.6-0.89
		C491.39,77.58,491.06,76.82,491.06,75.89z M497.97,102.15h-6.52V81.27h6.52V102.15z"/>
	<path class="st0" d="M512.9,96.28c0-0.55-0.29-1-0.87-1.33c-0.58-0.33-1.68-0.68-3.3-1.04c-1.62-0.36-2.96-0.83-4.01-1.42
		c-1.05-0.59-1.86-1.3-2.41-2.13c-0.55-0.84-0.83-1.79-0.83-2.88c0-1.92,0.79-3.5,2.37-4.74c1.58-1.24,3.65-1.86,6.21-1.86
		c2.75,0,4.96,0.62,6.64,1.87c1.67,1.25,2.51,2.89,2.51,4.92h-6.52c0-1.67-0.88-2.51-2.64-2.51c-0.68,0-1.25,0.19-1.72,0.57
		c-0.46,0.38-0.69,0.85-0.69,1.42c0,0.58,0.28,1.05,0.85,1.41c0.57,0.36,1.47,0.66,2.71,0.89s2.33,0.51,3.27,0.83
		c3.14,1.08,4.71,3.02,4.71,5.81c0,1.9-0.85,3.45-2.54,4.65c-1.69,1.2-3.88,1.79-6.57,1.79c-1.79,0-3.38-0.32-4.78-0.96
		c-1.4-0.64-2.5-1.52-3.28-2.62c-0.78-1.11-1.18-2.27-1.18-3.49h6.08c0.03,0.96,0.35,1.67,0.96,2.11c0.62,0.44,1.41,0.67,2.37,0.67
		c0.89,0,1.55-0.18,2-0.54C512.68,97.33,512.9,96.86,512.9,96.28z"/>
	<path class="st0" d="M212.92,139.29c0,3.42-0.71,6.05-2.12,7.89c-1.42,1.84-3.41,2.76-5.98,2.76c-2.12,0-3.83-0.84-5.13-2.53
		l-0.27,2.14h-5.83v-29.63h6.5v10.44c1.21-1.38,2.77-2.06,4.69-2.06c2.6,0,4.6,0.93,6.02,2.8c1.41,1.87,2.12,4.49,2.12,7.87V139.29z
		 M206.4,138.88c0-2-0.27-3.43-0.8-4.29c-0.53-0.85-1.35-1.28-2.46-1.28c-1.47,0-2.48,0.56-3.05,1.68v8.28
		c0.55,1.1,1.58,1.66,3.09,1.66c1.53,0,2.5-0.75,2.91-2.23C206.29,141.96,206.4,140.69,206.4,138.88z"/>
	<path class="st0" d="M215.73,123.3c0-0.93,0.33-1.68,1-2.28c0.67-0.59,1.54-0.89,2.6-0.89c1.07,0,1.94,0.3,2.6,0.89
		c0.67,0.59,1,1.35,1,2.28c0,0.93-0.33,1.69-1,2.28c-0.67,0.59-1.54,0.89-2.6,0.89c-1.07,0-1.94-0.3-2.6-0.89
		C216.07,124.99,215.73,124.23,215.73,123.3z M222.64,149.56h-6.52v-20.87h6.52V149.56z"/>
	<path class="st0" d="M233.5,149.56h-6.52v-29.63h6.52V149.56z"/>
	<path class="st0" d="M244.36,149.56h-6.52v-29.63h6.52V149.56z"/>
	<path class="st0" d="M248.32,123.3c0-0.93,0.33-1.68,1-2.28c0.67-0.59,1.54-0.89,2.6-0.89c1.07,0,1.94,0.3,2.6,0.89
		c0.67,0.59,1,1.35,1,2.28c0,0.93-0.33,1.69-1,2.28c-0.67,0.59-1.54,0.89-2.6,0.89c-1.07,0-1.94-0.3-2.6-0.89
		C248.65,124.99,248.32,124.23,248.32,123.3z M255.23,149.56h-6.52v-20.87h6.52V149.56z"/>
	<path class="st0" d="M258.41,138.93c0-2.08,0.41-3.94,1.22-5.57s1.97-2.88,3.49-3.75c1.52-0.87,3.3-1.31,5.34-1.31
		c3.12,0,5.59,0.97,7.39,2.9c1.8,1.94,2.7,4.57,2.7,7.9v0.23c0,3.25-0.9,5.84-2.71,7.75c-1.81,1.91-4.25,2.87-7.34,2.87
		c-2.97,0-5.36-0.89-7.16-2.67s-2.77-4.2-2.91-7.24L258.41,138.93z M264.91,139.33c0,1.93,0.3,3.34,0.91,4.24s1.5,1.35,2.68,1.35
		c2.32,0,3.5-1.78,3.55-5.34v-0.66c0-3.74-1.2-5.61-3.59-5.61c-2.17,0-3.35,1.61-3.53,4.84L264.91,139.33z"/>
	<path class="st0" d="M287.38,128.68l0.21,2.45c1.44-1.89,3.43-2.84,5.96-2.84c2.17,0,3.8,0.65,4.87,1.95
		c1.07,1.3,1.63,3.25,1.67,5.87v13.45h-6.52v-13.18c0-1.05-0.21-1.83-0.64-2.32c-0.42-0.5-1.2-0.74-2.31-0.74
		c-1.27,0-2.22,0.5-2.84,1.5v14.74h-6.5v-20.87H287.38z"/>
	<path class="st0" d="M312.71,138.97c0-3.31,0.71-5.91,2.14-7.81s3.42-2.86,5.98-2.86c1.87,0,3.43,0.73,4.71,2.2v-10.57h6.52v29.63
		h-5.85l-0.33-2.24c-1.34,1.75-3.04,2.62-5.09,2.62c-2.48,0-4.45-0.95-5.9-2.86C313.44,145.19,312.71,142.48,312.71,138.97z
		 M319.22,139.37c0,3.7,1.08,5.56,3.24,5.56c1.44,0,2.47-0.6,3.09-1.81v-7.95c-0.59-1.24-1.61-1.85-3.05-1.85
		c-2.01,0-3.09,1.62-3.26,4.86L319.22,139.37z"/>
	<path class="st0" d="M334.94,138.93c0-2.08,0.41-3.94,1.22-5.57s1.97-2.88,3.49-3.75c1.52-0.87,3.3-1.31,5.34-1.31
		c3.12,0,5.59,0.97,7.39,2.9c1.8,1.94,2.7,4.57,2.7,7.9v0.23c0,3.25-0.9,5.84-2.71,7.75c-1.81,1.91-4.25,2.87-7.34,2.87
		c-2.97,0-5.36-0.89-7.16-2.67s-2.77-4.2-2.91-7.24L334.94,138.93z M341.44,139.33c0,1.93,0.3,3.34,0.91,4.24s1.5,1.35,2.68,1.35
		c2.32,0,3.5-1.78,3.55-5.34v-0.66c0-3.74-1.2-5.61-3.59-5.61c-2.17,0-3.35,1.61-3.53,4.84L341.44,139.33z"/>
	<path class="st0" d="M364.8,149.56h-6.52v-29.63h6.52V149.56z"/>
	<path class="st0" d="M375.67,149.56h-6.52v-29.63h6.52V149.56z"/>
	<path class="st0" d="M391.43,149.56c-0.23-0.42-0.44-1.05-0.62-1.87c-1.2,1.5-2.87,2.26-5.02,2.26c-1.97,0-3.64-0.59-5.02-1.78
		c-1.38-1.19-2.06-2.68-2.06-4.49c0-2.26,0.84-3.97,2.51-5.13s4.1-1.74,7.29-1.74h2.01v-1.11c0-1.92-0.83-2.89-2.49-2.89
		c-1.54,0-2.32,0.76-2.32,2.29h-6.5c0-2.02,0.86-3.65,2.58-4.91s3.91-1.89,6.57-1.89c2.66,0,4.77,0.65,6.31,1.95
		c1.54,1.3,2.33,3.08,2.37,5.34v9.24c0.03,1.92,0.32,3.38,0.89,4.4v0.33H391.43z M387.36,145.31c0.81,0,1.48-0.17,2.02-0.52
		c0.53-0.35,0.92-0.74,1.15-1.18v-3.34h-1.89c-2.26,0-3.4,1.02-3.4,3.05c0,0.59,0.2,1.07,0.6,1.44
		C386.23,145.13,386.74,145.31,387.36,145.31z"/>
	<path class="st0" d="M413.26,134.57l-2.14-0.15c-2.04,0-3.36,0.64-3.94,1.93v13.21h-6.5v-20.87h6.1l0.21,2.68
		c1.09-2.04,2.62-3.07,4.57-3.07c0.69,0,1.3,0.08,1.81,0.23L413.26,134.57z"/>
	<path class="st0" d="M434.27,144.93c0.91,0,1.62-0.25,2.12-0.74c0.5-0.5,0.75-1.19,0.73-2.07h6.1c0,2.29-0.82,4.17-2.46,5.63
		s-3.75,2.2-6.34,2.2c-3.04,0-5.43-0.95-7.18-2.86c-1.75-1.9-2.62-4.54-2.62-7.91v-0.27c0-2.11,0.39-3.97,1.17-5.58
		c0.78-1.61,1.9-2.86,3.37-3.72c1.47-0.87,3.2-1.3,5.21-1.3c2.71,0,4.87,0.75,6.46,2.26s2.39,3.54,2.39,6.12h-6.1
		c0-1.08-0.26-1.91-0.79-2.49c-0.53-0.58-1.24-0.87-2.12-0.87c-1.68,0-2.67,1.07-2.95,3.22c-0.09,0.68-0.13,1.62-0.13,2.82
		c0,2.1,0.25,3.55,0.75,4.36C432.38,144.52,433.18,144.93,434.27,144.93z"/>
	<path class="st0" d="M452.83,149.56h-6.52v-29.63h6.52V149.56z"/>
	<path class="st0" d="M469.27,147.3c-1.38,1.76-3.23,2.64-5.58,2.64c-2.29,0-4.02-0.67-5.2-2c-1.18-1.33-1.77-3.24-1.77-5.74v-13.52
		h6.5v13.56c0,1.79,0.87,2.68,2.6,2.68c1.49,0,2.55-0.53,3.18-1.6v-14.64h6.54v20.87h-6.1L469.27,147.3z"/>
	<path class="st0" d="M498.5,139.29c0,3.42-0.71,6.05-2.12,7.89c-1.42,1.84-3.41,2.76-5.98,2.76c-2.12,0-3.83-0.84-5.13-2.53
		l-0.27,2.14h-5.83v-29.63h6.5v10.44c1.21-1.38,2.77-2.06,4.69-2.06c2.6,0,4.6,0.93,6.02,2.8c1.41,1.87,2.12,4.49,2.12,7.87V139.29z
		 M491.98,138.88c0-2-0.27-3.43-0.8-4.29c-0.53-0.85-1.35-1.28-2.46-1.28c-1.47,0-2.48,0.56-3.05,1.68v8.28
		c0.55,1.1,1.58,1.66,3.09,1.66c1.53,0,2.5-0.75,2.91-2.23C491.87,141.96,491.98,140.69,491.98,138.88z"/>
	<path class="st0" d="M505.38,143.25c1.03,0,1.88,0.31,2.57,0.92c0.68,0.61,1.02,1.39,1.02,2.34c0,0.95-0.34,1.73-1.02,2.34
		c-0.68,0.61-1.54,0.92-2.57,0.92c-1.04,0-1.9-0.31-2.58-0.93c-0.67-0.62-1.01-1.4-1.01-2.33s0.34-1.72,1.01-2.33
		C503.48,143.56,504.34,143.25,505.38,143.25z"/>
</g>
</svg>
