<?xml version="1.0" encoding="utf-8"?>
<!-- Generator: Adobe Illustrator 25.3.1, SVG Export Plug-In . SVG Version: 6.00 Build 0)  -->
<svg version="1.1" id="Layer_1" xmlns="http://www.w3.org/2000/svg" xmlns:xlink="http://www.w3.org/1999/xlink" x="0px" y="0px"
	 viewBox="0 0 970 250" style="enable-background:new 0 0 970 250;" xml:space="preserve">
<style type="text/css">
	.st0{fill:#FFFFFF;}
</style>
<g>
	<path class="st0" d="M178.72,156.19c0-0.95-0.23-1.7-0.71-2.24c-0.47-0.54-1.29-1.05-2.47-1.54c-1.18-0.48-2.27-0.97-3.27-1.46
		c-1-0.49-1.86-1.07-2.58-1.72s-1.28-1.4-1.66-2.26s-0.58-1.89-0.58-3.11c0-2.04,0.69-3.71,2.06-5.03c1.37-1.32,3.2-2.09,5.49-2.3
		v-3.81h2.87v3.88c2.21,0.33,3.94,1.23,5.19,2.72c1.26,1.49,1.89,3.38,1.89,5.66h-6.11c0-1.25-0.24-2.22-0.72-2.89
		c-0.48-0.67-1.17-1.01-2.06-1.01c-0.79,0-1.41,0.25-1.85,0.75s-0.66,1.19-0.66,2.07c0,0.89,0.25,1.6,0.76,2.12
		c0.51,0.52,1.32,1.02,2.44,1.5c1.12,0.48,2.18,0.97,3.17,1.48c0.99,0.51,1.85,1.09,2.57,1.74s1.29,1.41,1.7,2.28
		c0.41,0.87,0.61,1.91,0.61,3.12c0,2.06-0.65,3.74-1.96,5.04s-3.09,2.06-5.34,2.28v3.63h-2.87v-3.65c-2.63-0.28-4.64-1.18-6.04-2.7
		c-1.4-1.52-2.1-3.53-2.1-6.03h6.09c0,1.37,0.3,2.42,0.91,3.13c0.61,0.72,1.47,1.08,2.59,1.08c0.82,0,1.46-0.24,1.93-0.73
		C178.49,157.72,178.72,157.05,178.72,156.19z"/>
	<path class="st0" d="M204.11,152.89h2.67v4.7h-2.67v5.58h-6.09v-5.58h-10.17l-0.36-3.72l10.53-16.95v-0.05h6.09V152.89z
		 M193.28,152.89h4.73v-8.09l-0.38,0.61L193.28,152.89z"/>
	<path class="st0" d="M215.02,147.47h2.87c2.28,0,3.41-1.11,3.41-3.34c0-0.87-0.27-1.57-0.81-2.12c-0.54-0.55-1.31-0.82-2.29-0.82
		c-0.81,0-1.51,0.23-2.1,0.7c-0.6,0.47-0.89,1.05-0.89,1.75h-6.09c0-1.39,0.39-2.62,1.16-3.7s1.84-1.93,3.21-2.54
		c1.37-0.61,2.87-0.91,4.51-0.91c2.93,0,5.23,0.67,6.9,2c1.67,1.34,2.51,3.17,2.51,5.51c0,1.13-0.35,2.2-1.04,3.21
		c-0.69,1.01-1.7,1.82-3.03,2.45c1.4,0.51,2.49,1.27,3.29,2.3c0.79,1.03,1.19,2.3,1.19,3.82c0,2.35-0.9,4.23-2.71,5.64
		c-1.81,1.41-4.18,2.11-7.12,2.11c-1.72,0-3.32-0.33-4.8-0.98c-1.48-0.66-2.59-1.57-3.35-2.73c-0.76-1.16-1.14-2.48-1.14-3.96h6.12
		c0,0.81,0.33,1.5,0.98,2.1c0.65,0.59,1.45,0.88,2.4,0.88c1.07,0,1.93-0.3,2.57-0.89c0.64-0.6,0.96-1.36,0.96-2.29
		c0-1.33-0.33-2.26-0.99-2.82c-0.66-0.55-1.58-0.83-2.75-0.83h-2.96V147.47z"/>
	<path class="st0" d="M258.34,153.55c0,3.2-0.66,5.67-1.99,7.39c-1.32,1.72-3.19,2.58-5.6,2.58c-1.99,0-3.59-0.79-4.81-2.37
		l-0.25,2.01h-5.46v-27.75h6.09v9.77c1.13-1.29,2.6-1.93,4.39-1.93c2.43,0,4.31,0.87,5.64,2.62c1.33,1.75,1.99,4.2,1.99,7.37V153.55
		z M252.23,153.17c0-1.88-0.25-3.21-0.75-4.01c-0.5-0.8-1.27-1.2-2.3-1.2c-1.37,0-2.32,0.52-2.85,1.57v7.76
		c0.52,1.03,1.48,1.55,2.89,1.55c1.43,0,2.34-0.7,2.73-2.09C252.14,156.05,252.23,154.86,252.23,153.17z"/>
	<path class="st0" d="M260.98,138.58c0-0.87,0.31-1.58,0.94-2.13c0.63-0.55,1.44-0.83,2.44-0.83c1,0,1.81,0.28,2.44,0.83
		c0.63,0.55,0.94,1.27,0.94,2.13s-0.31,1.58-0.94,2.13c-0.63,0.55-1.44,0.83-2.44,0.83c-1,0-1.81-0.28-2.44-0.83
		C261.29,140.16,260.98,139.45,260.98,138.58z M267.45,163.17h-6.11v-19.55h6.11V163.17z"/>
	<path class="st0" d="M277.62,163.17h-6.11v-27.75h6.11V163.17z"/>
	<path class="st0" d="M287.79,163.17h-6.11v-27.75h6.11V163.17z"/>
	<path class="st0" d="M291.5,138.58c0-0.87,0.31-1.58,0.94-2.13c0.63-0.55,1.44-0.83,2.44-0.83c1,0,1.81,0.28,2.44,0.83
		c0.63,0.55,0.94,1.27,0.94,2.13s-0.31,1.58-0.94,2.13c-0.63,0.55-1.44,0.83-2.44,0.83c-1,0-1.81-0.28-2.44-0.83
		C291.81,140.16,291.5,139.45,291.5,138.58z M297.96,163.17h-6.11v-19.55h6.11V163.17z"/>
	<path class="st0" d="M300.94,153.21c0-1.95,0.38-3.69,1.14-5.21c0.76-1.52,1.85-2.69,3.27-3.51s3.09-1.23,5-1.23
		c2.93,0,5.23,0.91,6.92,2.72c1.69,1.81,2.53,4.28,2.53,7.4v0.22c0,3.05-0.85,5.46-2.54,7.25c-1.69,1.79-3.98,2.68-6.87,2.68
		c-2.78,0-5.02-0.83-6.7-2.5s-2.6-3.93-2.73-6.78L300.94,153.21z M307.03,153.59c0,1.81,0.28,3.13,0.85,3.97s1.4,1.26,2.51,1.26
		c2.17,0,3.28-1.67,3.32-5v-0.62c0-3.5-1.12-5.26-3.36-5.26c-2.04,0-3.14,1.51-3.31,4.53L307.03,153.59z"/>
	<path class="st0" d="M328.08,143.62l0.2,2.29c1.35-1.77,3.21-2.66,5.58-2.66c2.04,0,3.56,0.61,4.56,1.83
		c1.01,1.22,1.53,3.05,1.56,5.49v12.59h-6.11v-12.34c0-0.99-0.2-1.71-0.6-2.18c-0.4-0.46-1.12-0.7-2.17-0.7
		c-1.19,0-2.08,0.47-2.66,1.41v13.8h-6.09v-19.55H328.08z"/>
	<path class="st0" d="M351.8,153.21c0-1.95,0.38-3.69,1.14-5.21c0.76-1.52,1.85-2.69,3.27-3.51s3.09-1.23,5-1.23
		c2.93,0,5.23,0.91,6.92,2.72c1.69,1.81,2.53,4.28,2.53,7.4v0.22c0,3.05-0.85,5.46-2.54,7.25c-1.69,1.79-3.98,2.68-6.87,2.68
		c-2.78,0-5.02-0.83-6.7-2.5s-2.6-3.93-2.73-6.78L351.8,153.21z M357.89,153.59c0,1.81,0.28,3.13,0.85,3.97s1.4,1.26,2.51,1.26
		c2.17,0,3.28-1.67,3.32-5v-0.62c0-3.5-1.12-5.26-3.36-5.26c-2.04,0-3.14,1.51-3.31,4.53L357.89,153.59z"/>
	<path class="st0" d="M374.69,163.17v-15.32h-2.84v-4.23h2.84v-1.55c0-2.23,0.66-3.96,1.97-5.19s3.16-1.84,5.53-1.84
		c0.87,0,1.82,0.13,2.85,0.38l0.02,4.48c-0.37-0.11-0.87-0.16-1.5-0.16c-1.84,0-2.76,0.79-2.76,2.38v1.5h3.81v4.23h-3.81v15.32
		H374.69z"/>
	<path class="st0" d="M403.06,138.76v4.86h3.21v4.23h-3.21v8.94c0,0.73,0.13,1.25,0.4,1.54c0.27,0.29,0.79,0.43,1.57,0.43
		c0.6,0,1.11-0.04,1.52-0.11V163c-1.1,0.35-2.24,0.52-3.43,0.52c-2.1,0-3.64-0.49-4.64-1.48c-1-0.99-1.5-2.49-1.5-4.5v-9.7h-2.49
		v-4.23h2.49v-4.86H403.06z"/>
	<path class="st0" d="M407.36,153.21c0-1.95,0.38-3.69,1.14-5.21c0.76-1.52,1.85-2.69,3.27-3.51s3.09-1.23,5-1.23
		c2.93,0,5.23,0.91,6.92,2.72c1.69,1.81,2.53,4.28,2.53,7.4v0.22c0,3.05-0.85,5.46-2.54,7.25c-1.69,1.79-3.98,2.68-6.87,2.68
		c-2.78,0-5.02-0.83-6.7-2.5s-2.6-3.93-2.73-6.78L407.36,153.21z M413.44,153.59c0,1.81,0.28,3.13,0.85,3.97s1.4,1.26,2.51,1.26
		c2.17,0,3.28-1.67,3.32-5v-0.62c0-3.5-1.12-5.26-3.36-5.26c-2.04,0-3.14,1.51-3.31,4.53L413.44,153.59z"/>
	<path class="st0" d="M435.99,138.76v4.86h3.21v4.23h-3.21v8.94c0,0.73,0.13,1.25,0.4,1.54c0.27,0.29,0.79,0.43,1.57,0.43
		c0.6,0,1.11-0.04,1.52-0.11V163c-1.1,0.35-2.24,0.52-3.43,0.52c-2.1,0-3.64-0.49-4.64-1.48c-1-0.99-1.5-2.49-1.5-4.5v-9.7h-2.49
		v-4.23h2.49v-4.86H435.99z"/>
	<path class="st0" d="M452.61,163.17c-0.22-0.4-0.41-0.98-0.58-1.75c-1.12,1.41-2.69,2.11-4.7,2.11c-1.84,0-3.41-0.56-4.7-1.67
		s-1.93-2.51-1.93-4.2c0-2.12,0.78-3.72,2.35-4.81c1.57-1.08,3.84-1.62,6.83-1.62h1.88v-1.04c0-1.8-0.78-2.71-2.33-2.71
		c-1.45,0-2.17,0.71-2.17,2.14h-6.09c0-1.89,0.8-3.42,2.41-4.6c1.61-1.18,3.66-1.77,6.15-1.77c2.49,0,4.46,0.61,5.91,1.83
		c1.45,1.22,2.19,2.88,2.22,5v8.65c0.02,1.79,0.3,3.17,0.83,4.12v0.31H452.61z M448.8,159.19c0.76,0,1.39-0.16,1.89-0.49
		c0.5-0.32,0.86-0.69,1.07-1.1v-3.12h-1.77c-2.12,0-3.18,0.95-3.18,2.85c0,0.55,0.19,1,0.56,1.35
		C447.75,159.02,448.22,159.19,448.8,159.19z"/>
	<path class="st0" d="M467.66,163.17h-6.11v-27.75h6.11V163.17z"/>
	<path class="st0" d="M481.97,163.17v-15.32h-2.84v-4.23h2.84v-1.55c0-2.23,0.66-3.96,1.97-5.19s3.16-1.84,5.53-1.84
		c0.87,0,1.82,0.13,2.85,0.38l0.02,4.48c-0.37-0.11-0.87-0.16-1.5-0.16c-1.84,0-2.76,0.79-2.76,2.38v1.5h3.81v4.23h-3.81v15.32
		H481.97z"/>
	<path class="st0" d="M505.85,149.13l-2-0.14c-1.92,0-3.14,0.6-3.69,1.81v12.38h-6.09v-19.55h5.71l0.2,2.51
		c1.02-1.91,2.45-2.87,4.28-2.87c0.65,0,1.22,0.07,1.7,0.22L505.85,149.13z"/>
	<path class="st0" d="M518.52,163.17c-0.22-0.4-0.41-0.98-0.58-1.75c-1.12,1.41-2.69,2.11-4.7,2.11c-1.84,0-3.41-0.56-4.7-1.67
		s-1.93-2.51-1.93-4.2c0-2.12,0.78-3.72,2.35-4.81c1.57-1.08,3.84-1.62,6.83-1.62h1.88v-1.04c0-1.8-0.78-2.71-2.33-2.71
		c-1.45,0-2.17,0.71-2.17,2.14h-6.09c0-1.89,0.8-3.42,2.41-4.6c1.61-1.18,3.66-1.77,6.15-1.77c2.49,0,4.46,0.61,5.91,1.83
		c1.45,1.22,2.19,2.88,2.22,5v8.65c0.02,1.79,0.3,3.17,0.83,4.12v0.31H518.52z M514.71,159.19c0.76,0,1.39-0.16,1.89-0.49
		c0.5-0.32,0.86-0.69,1.07-1.1v-3.12h-1.77c-2.12,0-3.18,0.95-3.18,2.85c0,0.55,0.19,1,0.56,1.35
		C513.65,159.02,514.13,159.19,514.71,159.19z"/>
	<path class="st0" d="M538.79,161.05c-1.29,1.65-3.03,2.47-5.22,2.47c-2.14,0-3.77-0.62-4.87-1.87c-1.1-1.25-1.65-3.04-1.65-5.37
		v-12.67h6.09v12.7c0,1.67,0.81,2.51,2.44,2.51c1.4,0,2.39-0.5,2.98-1.5v-13.71h6.12v19.55h-5.71L538.79,161.05z"/>
	<path class="st0" d="M547.25,153.25c0-3.1,0.67-5.54,2.01-7.32c1.34-1.78,3.2-2.67,5.6-2.67c1.75,0,3.22,0.69,4.41,2.06v-9.9h6.11
		v27.75h-5.47l-0.31-2.1c-1.25,1.64-2.84,2.46-4.77,2.46c-2.33,0-4.17-0.89-5.53-2.67C547.93,159.07,547.25,156.54,547.25,153.25z
		 M553.33,153.63c0,3.47,1.01,5.2,3.04,5.2c1.35,0,2.31-0.57,2.89-1.7v-7.44c-0.55-1.16-1.5-1.73-2.85-1.73
		c-1.88,0-2.9,1.52-3.05,4.55L553.33,153.63z"/>
	<path class="st0" d="M584.46,163.17h-6.11v-27.75h6.11V163.17z"/>
	<path class="st0" d="M587.44,153.21c0-1.95,0.38-3.69,1.14-5.21c0.76-1.52,1.85-2.69,3.27-3.51s3.09-1.23,5-1.23
		c2.93,0,5.23,0.91,6.92,2.72c1.69,1.81,2.53,4.28,2.53,7.4v0.22c0,3.05-0.85,5.46-2.54,7.25c-1.69,1.79-3.98,2.68-6.87,2.68
		c-2.78,0-5.02-0.83-6.7-2.5s-2.6-3.93-2.73-6.78L587.44,153.21z M593.53,153.59c0,1.81,0.28,3.13,0.85,3.97s1.4,1.26,2.51,1.26
		c2.17,0,3.28-1.67,3.32-5v-0.62c0-3.5-1.12-5.26-3.36-5.26c-2.04,0-3.14,1.51-3.31,4.53L593.53,153.59z"/>
	<path class="st0" d="M619.22,157.67c0-0.52-0.27-0.93-0.81-1.25c-0.54-0.31-1.57-0.64-3.09-0.98c-1.52-0.34-2.77-0.78-3.76-1.33
		c-0.99-0.55-1.74-1.21-2.26-2c-0.52-0.78-0.78-1.68-0.78-2.69c0-1.79,0.74-3.27,2.22-4.44c1.48-1.16,3.42-1.74,5.82-1.74
		c2.58,0,4.65,0.58,6.21,1.75c1.57,1.17,2.35,2.7,2.35,4.61h-6.11c0-1.57-0.83-2.35-2.48-2.35c-0.64,0-1.17,0.18-1.61,0.53
		s-0.65,0.8-0.65,1.33c0,0.54,0.26,0.98,0.79,1.32s1.38,0.61,2.54,0.83s2.18,0.48,3.06,0.78c2.94,1.01,4.41,2.83,4.41,5.44
		c0,1.78-0.79,3.23-2.38,4.35c-1.58,1.12-3.63,1.68-6.15,1.68c-1.67,0-3.17-0.3-4.48-0.9s-2.34-1.42-3.07-2.46s-1.1-2.13-1.1-3.27
		h5.69c0.02,0.9,0.33,1.56,0.9,1.98c0.58,0.42,1.32,0.62,2.22,0.62c0.83,0,1.45-0.17,1.87-0.51
		C619.01,158.66,619.22,158.22,619.22,157.67z"/>
	<path class="st0" d="M638.17,157.67c0-0.52-0.27-0.93-0.81-1.25c-0.54-0.31-1.57-0.64-3.09-0.98c-1.52-0.34-2.77-0.78-3.76-1.33
		c-0.99-0.55-1.74-1.21-2.26-2c-0.52-0.78-0.78-1.68-0.78-2.69c0-1.79,0.74-3.27,2.22-4.44c1.48-1.16,3.42-1.74,5.82-1.74
		c2.58,0,4.65,0.58,6.21,1.75c1.57,1.17,2.35,2.7,2.35,4.61h-6.11c0-1.57-0.83-2.35-2.48-2.35c-0.64,0-1.17,0.18-1.61,0.53
		s-0.65,0.8-0.65,1.33c0,0.54,0.26,0.98,0.79,1.32s1.38,0.61,2.54,0.83s2.18,0.48,3.06,0.78c2.94,1.01,4.41,2.83,4.41,5.44
		c0,1.78-0.79,3.23-2.38,4.35c-1.58,1.12-3.63,1.68-6.15,1.68c-1.67,0-3.17-0.3-4.48-0.9s-2.34-1.42-3.07-2.46s-1.1-2.13-1.1-3.27
		h5.69c0.02,0.9,0.33,1.56,0.9,1.98c0.58,0.42,1.32,0.62,2.22,0.62c0.83,0,1.45-0.17,1.87-0.51
		C637.97,158.66,638.17,158.22,638.17,157.67z"/>
	<path class="st0" d="M656.35,163.53c-3,0-5.43-0.89-7.28-2.68c-1.86-1.79-2.78-4.12-2.78-6.98v-0.51c0-2,0.37-3.76,1.11-5.29
		c0.74-1.53,1.82-2.71,3.24-3.55s3.11-1.26,5.06-1.26c2.75,0,4.91,0.85,6.5,2.56s2.38,4.08,2.38,7.13v2.37h-12.1
		c0.22,1.1,0.69,1.96,1.43,2.58c0.73,0.63,1.69,0.94,2.85,0.94c1.93,0,3.43-0.67,4.52-2.02l2.78,3.29c-0.76,1.05-1.83,1.88-3.22,2.5
		C659.45,163.22,657.95,163.53,656.35,163.53z M655.66,147.95c-1.78,0-2.84,1.18-3.18,3.54h6.14v-0.47
		c0.02-0.98-0.22-1.73-0.74-2.27C657.37,148.22,656.63,147.95,655.66,147.95z"/>
	<path class="st0" d="M677.27,157.67c0-0.52-0.27-0.93-0.81-1.25c-0.54-0.31-1.57-0.64-3.09-0.98c-1.52-0.34-2.77-0.78-3.76-1.33
		c-0.99-0.55-1.74-1.21-2.26-2c-0.52-0.78-0.78-1.68-0.78-2.69c0-1.79,0.74-3.27,2.22-4.44c1.48-1.16,3.42-1.74,5.82-1.74
		c2.58,0,4.65,0.58,6.21,1.75c1.57,1.17,2.35,2.7,2.35,4.61h-6.11c0-1.57-0.83-2.35-2.48-2.35c-0.64,0-1.17,0.18-1.61,0.53
		s-0.65,0.8-0.65,1.33c0,0.54,0.26,0.98,0.79,1.32s1.38,0.61,2.54,0.83s2.18,0.48,3.06,0.78c2.94,1.01,4.41,2.83,4.41,5.44
		c0,1.78-0.79,3.23-2.38,4.35c-1.58,1.12-3.63,1.68-6.15,1.68c-1.67,0-3.17-0.3-4.48-0.9s-2.34-1.42-3.07-2.46s-1.1-2.13-1.1-3.27
		h5.69c0.02,0.9,0.33,1.56,0.9,1.98c0.58,0.42,1.32,0.62,2.22,0.62c0.83,0,1.45-0.17,1.87-0.51
		C677.06,158.66,677.27,158.22,677.27,157.67z"/>
	<path class="st0" d="M695.16,138.58c0-0.87,0.31-1.58,0.94-2.13c0.63-0.55,1.44-0.83,2.44-0.83c1,0,1.81,0.28,2.44,0.83
		c0.63,0.55,0.94,1.27,0.94,2.13s-0.31,1.58-0.94,2.13c-0.63,0.55-1.44,0.83-2.44,0.83c-1,0-1.81-0.28-2.44-0.83
		C695.47,140.16,695.16,139.45,695.16,138.58z M701.62,163.17h-6.11v-19.55h6.11V163.17z"/>
	<path class="st0" d="M710.96,143.62l0.2,2.29c1.35-1.77,3.21-2.66,5.58-2.66c2.04,0,3.56,0.61,4.56,1.83
		c1.01,1.22,1.53,3.05,1.56,5.49v12.59h-6.11v-12.34c0-0.99-0.2-1.71-0.6-2.18c-0.4-0.46-1.12-0.7-2.17-0.7
		c-1.19,0-2.08,0.47-2.66,1.41v13.8h-6.09v-19.55H710.96z"/>
	<path class="st0" d="M753.71,163.17h-18.36v-3.97l8.46-8.89c2.08-2.37,3.13-4.26,3.13-5.65c0-1.13-0.25-1.99-0.74-2.58
		c-0.49-0.59-1.21-0.88-2.15-0.88c-0.93,0-1.68,0.39-2.26,1.18c-0.58,0.79-0.87,1.77-0.87,2.95h-6.11c0-1.61,0.4-3.1,1.21-4.47
		c0.81-1.37,1.93-2.44,3.36-3.21c1.43-0.77,3.04-1.16,4.81-1.16c2.84,0,5.03,0.66,6.57,1.97c1.54,1.31,2.3,3.2,2.3,5.65
		c0,1.04-0.19,2.04-0.58,3.03c-0.38,0.98-0.98,2.01-1.8,3.09c-0.81,1.08-2.12,2.52-3.93,4.33l-3.4,3.92h10.35V163.17z"/>
	<path class="st0" d="M775.04,152.42c0,3.55-0.8,6.29-2.39,8.22c-1.6,1.93-3.85,2.89-6.75,2.89c-2.93,0-5.19-0.97-6.79-2.91
		c-1.6-1.94-2.4-4.67-2.4-8.2v-4.8c0-3.55,0.8-6.29,2.39-8.22c1.6-1.93,3.85-2.89,6.77-2.89s5.17,0.97,6.78,2.91
		c1.6,1.94,2.4,4.68,2.4,8.22V152.42z M768.96,146.83c0-1.89-0.25-3.3-0.74-4.24s-1.28-1.4-2.35-1.4c-1.05,0-1.81,0.43-2.29,1.3
		c-0.48,0.87-0.73,2.18-0.77,3.94v6.72c0,1.96,0.25,3.4,0.74,4.31c0.49,0.91,1.28,1.36,2.35,1.36c1.04,0,1.8-0.44,2.29-1.33
		c0.49-0.88,0.75-2.27,0.76-4.16V146.83z"/>
	<path class="st0" d="M796.56,163.17h-18.36v-3.97l8.46-8.89c2.08-2.37,3.13-4.26,3.13-5.65c0-1.13-0.25-1.99-0.74-2.58
		c-0.49-0.59-1.21-0.88-2.15-0.88c-0.93,0-1.68,0.39-2.26,1.18c-0.58,0.79-0.87,1.77-0.87,2.95h-6.11c0-1.61,0.4-3.1,1.21-4.47
		c0.81-1.37,1.93-2.44,3.36-3.21c1.43-0.77,3.04-1.16,4.81-1.16c2.84,0,5.03,0.66,6.57,1.97c1.54,1.31,2.3,3.2,2.3,5.65
		c0,1.04-0.19,2.04-0.58,3.03c-0.38,0.98-0.98,2.01-1.8,3.09c-0.81,1.08-2.12,2.52-3.93,4.33l-3.4,3.92h10.35V163.17z"/>
	<path class="st0" d="M817.9,152.42c0,3.55-0.8,6.29-2.39,8.22c-1.6,1.93-3.85,2.89-6.75,2.89c-2.93,0-5.19-0.97-6.79-2.91
		c-1.6-1.94-2.4-4.67-2.4-8.2v-4.8c0-3.55,0.8-6.29,2.39-8.22c1.6-1.93,3.85-2.89,6.77-2.89s5.17,0.97,6.78,2.91
		c1.6,1.94,2.4,4.68,2.4,8.22V152.42z M811.81,146.83c0-1.89-0.25-3.3-0.74-4.24s-1.28-1.4-2.35-1.4c-1.05,0-1.81,0.43-2.29,1.3
		c-0.48,0.87-0.73,2.18-0.77,3.94v6.72c0,1.96,0.25,3.4,0.74,4.31c0.49,0.91,1.28,1.36,2.35,1.36c1.04,0,1.8-0.44,2.29-1.33
		c0.49-0.88,0.75-2.27,0.76-4.16V146.83z"/>
	<path class="st0" d="M824.93,157.26c0.96,0,1.76,0.29,2.4,0.86c0.64,0.57,0.96,1.3,0.96,2.2s-0.32,1.62-0.96,2.2
		s-1.44,0.86-2.4,0.86c-0.98,0-1.78-0.29-2.41-0.87c-0.63-0.58-0.95-1.31-0.95-2.19s0.32-1.61,0.95-2.19
		C823.15,157.55,823.95,157.26,824.93,157.26z"/>
</g>
</svg>
