<?xml version="1.0" encoding="utf-8"?>
<!-- Generator: Adobe Illustrator 25.3.1, SVG Export Plug-In . SVG Version: 6.00 Build 0)  -->
<svg version="1.1" id="Layer_1" xmlns="http://www.w3.org/2000/svg" xmlns:xlink="http://www.w3.org/1999/xlink" x="0px" y="0px"
	 viewBox="0 0 970 250" style="enable-background:new 0 0 970 250;" xml:space="preserve">
<style type="text/css">
	.st0{fill:#021D8B;stroke:url(#SVGID_1_);stroke-width:2;stroke-miterlimit:10;}
	.st1{fill:#FFFFFF;}
</style>
<linearGradient id="SVGID_1_" gradientUnits="userSpaceOnUse" x1="630.7266" y1="123.6323" x2="856.3432" y2="123.6323">
	<stop  offset="0" style="stop-color:#18B9FB"/>
	<stop  offset="0.5" style="stop-color:#782EEB"/>
	<stop  offset="1" style="stop-color:#E82D8A"/>
</linearGradient>
<path class="st0" d="M838.54,174.15H648.53c-9.28,0-16.8-7.52-16.8-16.8V89.92c0-9.28,7.52-16.8,16.8-16.8h190.01
	c9.28,0,16.8,7.52,16.8,16.8v67.42C855.34,166.62,847.82,174.15,838.54,174.15z"/>
<g>
	<path class="st1" d="M650.71,112.94h7.15v2.7h-10.51V99.3h3.37V112.94z"/>
	<path class="st1" d="M665.16,115.86c-1.78,0-3.23-0.55-4.35-1.64c-1.12-1.09-1.68-2.55-1.68-4.36v-0.31c0-1.22,0.24-2.31,0.71-3.27
		c0.47-0.96,1.14-1.7,2-2.22s1.85-0.78,2.96-0.78c1.66,0,2.97,0.52,3.92,1.57c0.95,1.05,1.43,2.53,1.43,4.45v1.32h-7.73
		c0.1,0.79,0.42,1.43,0.95,1.91c0.53,0.48,1.19,0.72,2,0.72c1.25,0,2.22-0.45,2.93-1.36l1.59,1.78c-0.49,0.69-1.14,1.23-1.97,1.61
		S666.17,115.86,665.16,115.86z M664.79,105.89c-0.64,0-1.17,0.22-1.57,0.65s-0.66,1.06-0.77,1.87h4.51v-0.26
		c-0.01-0.72-0.21-1.28-0.58-1.67S665.48,105.89,664.79,105.89z"/>
	<path class="st1" d="M679.03,115.64c-0.15-0.29-0.26-0.65-0.33-1.09c-0.79,0.88-1.81,1.31-3.06,1.31c-1.19,0-2.18-0.34-2.96-1.03
		c-0.78-0.69-1.17-1.56-1.17-2.6c0-1.29,0.48-2.27,1.43-2.96c0.95-0.69,2.33-1.04,4.13-1.04h1.49v-0.7c0-0.56-0.14-1.01-0.43-1.35
		s-0.74-0.5-1.36-0.5c-0.55,0-0.97,0.13-1.29,0.39s-0.46,0.62-0.46,1.08h-3.24c0-0.7,0.22-1.35,0.65-1.95
		c0.43-0.6,1.05-1.07,1.84-1.41c0.79-0.34,1.68-0.51,2.67-0.51c1.5,0,2.68,0.38,3.56,1.13s1.32,1.81,1.32,3.17v5.26
		c0.01,1.15,0.17,2.02,0.48,2.61v0.19H679.03z M676.34,113.38c0.48,0,0.92-0.11,1.32-0.32c0.4-0.21,0.7-0.5,0.9-0.86v-2.09h-1.21
		c-1.62,0-2.49,0.56-2.59,1.68l-0.01,0.19c0,0.4,0.14,0.74,0.43,1C675.46,113.25,675.85,113.38,676.34,113.38z"/>
	<path class="st1" d="M691.13,106.54c-0.44-0.06-0.83-0.09-1.17-0.09c-1.23,0-2.03,0.42-2.41,1.25v7.94h-3.24V103.5h3.06l0.09,1.45
		c0.65-1.11,1.55-1.67,2.7-1.67c0.36,0,0.7,0.05,1.01,0.15L691.13,106.54z"/>
	<path class="st1" d="M695.68,103.5l0.1,1.4c0.87-1.08,2.03-1.63,3.49-1.63c1.29,0,2.24,0.38,2.87,1.13
		c0.63,0.76,0.95,1.88,0.96,3.39v7.84h-3.24v-7.76c0-0.69-0.15-1.19-0.45-1.5c-0.3-0.31-0.8-0.47-1.49-0.47
		c-0.91,0-1.6,0.39-2.05,1.17v8.56h-3.24V103.5H695.68z"/>
	<path class="st1" d="M724.79,115.64h-3.37v-7h-6.56v7h-3.37V99.3h3.37v6.62h6.56V99.3h3.37V115.64z"/>
	<path class="st1" d="M727.02,109.46c0-1.2,0.23-2.28,0.7-3.22c0.46-0.94,1.13-1.67,2-2.19c0.87-0.52,1.88-0.77,3.04-0.77
		c1.64,0,2.97,0.5,4.01,1.5s1.61,2.36,1.73,4.08l0.02,0.83c0,1.86-0.52,3.36-1.56,4.48s-2.43,1.69-4.18,1.69
		c-1.75,0-3.15-0.56-4.19-1.68c-1.04-1.12-1.57-2.65-1.57-4.58V109.46z M730.26,109.69c0,1.15,0.22,2.04,0.65,2.65
		s1.05,0.92,1.86,0.92c0.79,0,1.4-0.3,1.84-0.91c0.44-0.6,0.66-1.57,0.66-2.89c0-1.13-0.22-2.01-0.66-2.63
		c-0.44-0.62-1.06-0.93-1.86-0.93c-0.79,0-1.41,0.31-1.84,0.93S730.26,108.39,730.26,109.69z"/>
	<path class="st1" d="M751.07,111.23l1.59-7.73h3.13l-3.1,12.14h-2.71l-2.3-7.64l-2.3,7.64h-2.7l-3.1-12.14h3.13l1.58,7.72
		l2.22-7.72h2.35L751.07,111.23z"/>
	<path class="st1" d="M774.96,102.03h-5v13.61h-3.37v-13.61h-4.94V99.3h13.31V102.03z"/>
	<path class="st1" d="M773.83,109.46c0-1.2,0.23-2.28,0.7-3.22c0.46-0.94,1.13-1.67,2-2.19c0.87-0.52,1.88-0.77,3.04-0.77
		c1.64,0,2.97,0.5,4.01,1.5s1.61,2.36,1.73,4.08l0.02,0.83c0,1.86-0.52,3.36-1.56,4.48s-2.43,1.69-4.18,1.69
		c-1.75,0-3.15-0.56-4.19-1.68c-1.04-1.12-1.57-2.65-1.57-4.58V109.46z M777.07,109.69c0,1.15,0.22,2.04,0.65,2.65
		s1.05,0.92,1.86,0.92c0.79,0,1.4-0.3,1.84-0.91c0.44-0.6,0.66-1.57,0.66-2.89c0-1.13-0.22-2.01-0.66-2.63
		c-0.44-0.62-1.06-0.93-1.86-0.93c-0.79,0-1.41,0.31-1.84,0.93S777.07,108.39,777.07,109.69z"/>
	<path class="st1" d="M806.56,115.64h-3.37v-7h-6.56v7h-3.37V99.3h3.37v6.62h6.56V99.3h3.37V115.64z"/>
	<path class="st1" d="M814.87,115.86c-1.78,0-3.23-0.55-4.35-1.64c-1.12-1.09-1.68-2.55-1.68-4.36v-0.31c0-1.22,0.24-2.31,0.71-3.27
		c0.47-0.96,1.14-1.7,2-2.22s1.85-0.78,2.96-0.78c1.66,0,2.97,0.52,3.92,1.57c0.95,1.05,1.43,2.53,1.43,4.45v1.32h-7.73
		c0.1,0.79,0.42,1.43,0.95,1.91c0.53,0.48,1.19,0.72,2,0.72c1.25,0,2.22-0.45,2.93-1.36l1.59,1.78c-0.49,0.69-1.14,1.23-1.97,1.61
		S815.88,115.86,814.87,115.86z M814.5,105.89c-0.64,0-1.17,0.22-1.57,0.65s-0.66,1.06-0.77,1.87h4.51v-0.26
		c-0.01-0.72-0.21-1.28-0.58-1.67S815.19,105.89,814.5,105.89z"/>
	<path class="st1" d="M825.13,115.64h-3.25V98.4h3.25V115.64z"/>
	<path class="st1" d="M838.73,109.68c0,1.87-0.42,3.37-1.27,4.49c-0.85,1.13-2,1.69-3.44,1.69c-1.23,0-2.22-0.43-2.97-1.28v5.72
		h-3.24V103.5h3.01l0.11,1.19c0.79-0.94,1.81-1.41,3.07-1.41c1.5,0,2.66,0.55,3.49,1.66c0.83,1.11,1.25,2.63,1.25,4.58V109.68z
		 M835.49,109.45c0-1.13-0.2-2-0.6-2.61s-0.98-0.92-1.75-0.92c-1.02,0-1.72,0.39-2.1,1.17v4.97c0.4,0.8,1.1,1.2,2.12,1.2
		C834.71,113.25,835.49,111.98,835.49,109.45z"/>
	<path class="st1" d="M663.65,141.43v5.76h-3.37v-16.34h6.37c1.23,0,2.31,0.22,3.24,0.67c0.93,0.45,1.65,1.09,2.15,1.91
		c0.5,0.83,0.75,1.77,0.75,2.82c0,1.6-0.55,2.86-1.64,3.79c-1.1,0.92-2.61,1.39-4.55,1.39H663.65z M663.65,138.7h3.01
		c0.89,0,1.57-0.21,2.04-0.63s0.7-1.02,0.7-1.79c0-0.8-0.24-1.45-0.71-1.94c-0.47-0.49-1.12-0.75-1.95-0.76h-3.08V138.7z"/>
	<path class="st1" d="M681.71,138.08c-0.44-0.06-0.83-0.09-1.17-0.09c-1.23,0-2.03,0.42-2.41,1.25v7.94h-3.24v-12.14h3.06l0.09,1.45
		c0.65-1.11,1.55-1.67,2.7-1.67c0.36,0,0.7,0.05,1.01,0.15L681.71,138.08z"/>
	<path class="st1" d="M682.37,141c0-1.2,0.23-2.28,0.7-3.22c0.46-0.94,1.13-1.67,2-2.19c0.87-0.52,1.88-0.77,3.04-0.77
		c1.64,0,2.97,0.5,4.01,1.5s1.61,2.36,1.73,4.08l0.02,0.83c0,1.86-0.52,3.36-1.56,4.48s-2.43,1.69-4.18,1.69
		c-1.75,0-3.15-0.56-4.19-1.68c-1.04-1.12-1.57-2.65-1.57-4.58V141z M685.61,141.23c0,1.15,0.22,2.04,0.65,2.65s1.05,0.92,1.86,0.92
		c0.79,0,1.4-0.3,1.84-0.91c0.44-0.6,0.66-1.57,0.66-2.89c0-1.13-0.22-2.01-0.66-2.63c-0.44-0.62-1.06-0.93-1.86-0.93
		c-0.79,0-1.41,0.31-1.84,0.93S685.61,139.94,685.61,141.23z"/>
	<path class="st1" d="M699.75,132.06v2.98h2.08v2.38h-2.08v6.06c0,0.45,0.09,0.77,0.26,0.96c0.17,0.2,0.5,0.29,0.99,0.29
		c0.36,0,0.68-0.03,0.95-0.08v2.46c-0.64,0.19-1.29,0.29-1.96,0.29c-2.27,0-3.43-1.15-3.48-3.45v-6.54h-1.77v-2.38h1.77v-2.98
		H699.75z"/>
	<path class="st1" d="M709.22,147.41c-1.78,0-3.23-0.55-4.35-1.64c-1.12-1.09-1.68-2.55-1.68-4.36v-0.31c0-1.22,0.24-2.31,0.71-3.27
		c0.47-0.96,1.14-1.7,2-2.22s1.85-0.78,2.96-0.78c1.66,0,2.97,0.52,3.92,1.57c0.95,1.05,1.43,2.53,1.43,4.45v1.32h-7.73
		c0.1,0.79,0.42,1.43,0.95,1.91c0.53,0.48,1.19,0.72,2,0.72c1.25,0,2.22-0.45,2.93-1.36l1.59,1.78c-0.49,0.69-1.14,1.23-1.97,1.61
		S710.23,147.41,709.22,147.41z M708.85,137.43c-0.64,0-1.17,0.22-1.57,0.65s-0.66,1.06-0.77,1.87h4.51v-0.26
		c-0.01-0.72-0.21-1.28-0.58-1.67S709.53,137.43,708.85,137.43z"/>
	<path class="st1" d="M721.1,144.79c0.6,0,1.08-0.17,1.46-0.49s0.57-0.77,0.58-1.31h3.04c-0.01,0.82-0.23,1.58-0.67,2.26
		s-1.04,1.22-1.81,1.59c-0.77,0.38-1.61,0.57-2.54,0.57c-1.74,0-3.1-0.55-4.11-1.66c-1-1.1-1.5-2.63-1.5-4.57v-0.21
		c0-1.87,0.5-3.36,1.49-4.48c1-1.11,2.36-1.67,4.1-1.67c1.52,0,2.74,0.43,3.65,1.3c0.92,0.86,1.38,2.01,1.4,3.45h-3.04
		c-0.02-0.63-0.21-1.14-0.58-1.54s-0.87-0.59-1.48-0.59c-0.76,0-1.33,0.28-1.71,0.83c-0.39,0.55-0.58,1.44-0.58,2.68v0.34
		c0,1.25,0.19,2.15,0.57,2.7C719.74,144.52,720.32,144.79,721.1,144.79z"/>
	<path class="st1" d="M731.92,132.06v2.98h2.08v2.38h-2.08v6.06c0,0.45,0.09,0.77,0.26,0.96c0.17,0.2,0.5,0.29,0.99,0.29
		c0.36,0,0.68-0.03,0.95-0.08v2.46c-0.64,0.19-1.29,0.29-1.96,0.29c-2.27,0-3.43-1.15-3.48-3.45v-6.54h-1.77v-2.38h1.77v-2.98
		H731.92z"/>
	<path class="st1" d="M747.37,138.21l3.4-7.36h3.68l-5.36,10.41v5.92h-3.42v-5.92l-5.36-10.41h3.69L747.37,138.21z"/>
	<path class="st1" d="M754.49,141c0-1.2,0.23-2.28,0.7-3.22c0.46-0.94,1.13-1.67,2-2.19c0.87-0.52,1.88-0.77,3.04-0.77
		c1.64,0,2.97,0.5,4.01,1.5s1.61,2.36,1.73,4.08l0.02,0.83c0,1.86-0.52,3.36-1.56,4.48s-2.43,1.69-4.18,1.69
		c-1.75,0-3.15-0.56-4.19-1.68c-1.04-1.12-1.57-2.65-1.57-4.58V141z M757.73,141.23c0,1.15,0.22,2.04,0.65,2.65s1.05,0.92,1.86,0.92
		c0.79,0,1.4-0.3,1.84-0.91c0.44-0.6,0.66-1.57,0.66-2.89c0-1.13-0.22-2.01-0.66-2.63c-0.44-0.62-1.06-0.93-1.86-0.93
		c-0.79,0-1.41,0.31-1.84,0.93S757.73,139.94,757.73,141.23z"/>
	<path class="st1" d="M775.26,145.95c-0.8,0.97-1.91,1.46-3.32,1.46c-1.3,0-2.29-0.37-2.98-1.12s-1.03-1.84-1.05-3.29v-7.96h3.24
		v7.85c0,1.27,0.58,1.9,1.73,1.9c1.1,0,1.85-0.38,2.27-1.15v-8.6h3.25v12.14h-3.05L775.26,145.95z"/>
	<path class="st1" d="M787.67,138.08c-0.44-0.06-0.83-0.09-1.17-0.09c-1.23,0-2.03,0.42-2.41,1.25v7.94h-3.24v-12.14h3.06l0.09,1.45
		c0.65-1.11,1.55-1.67,2.7-1.67c0.36,0,0.7,0.05,1.01,0.15L787.67,138.08z"/>
	<path class="st1" d="M795.8,143.83c0-0.4-0.2-0.71-0.59-0.94c-0.39-0.23-1.02-0.43-1.89-0.61c-2.89-0.61-4.33-1.83-4.33-3.68
		c0-1.08,0.45-1.98,1.34-2.7s2.06-1.08,3.51-1.08c1.54,0,2.77,0.36,3.7,1.09c0.92,0.73,1.39,1.67,1.39,2.83h-3.24
		c0-0.46-0.15-0.85-0.45-1.15c-0.3-0.3-0.77-0.46-1.4-0.46c-0.55,0-0.97,0.12-1.27,0.37c-0.3,0.25-0.45,0.56-0.45,0.94
		c0,0.36,0.17,0.65,0.51,0.87c0.34,0.22,0.91,0.41,1.72,0.57c0.81,0.16,1.49,0.34,2.04,0.54c1.71,0.63,2.57,1.72,2.57,3.27
		c0,1.11-0.48,2-1.42,2.69c-0.95,0.68-2.18,1.03-3.68,1.03c-1.02,0-1.92-0.18-2.71-0.54c-0.79-0.36-1.41-0.86-1.86-1.49
		c-0.45-0.63-0.67-1.31-0.67-2.05h3.08c0.03,0.58,0.24,1.02,0.64,1.32c0.4,0.31,0.93,0.46,1.59,0.46c0.62,0,1.09-0.12,1.41-0.35
		C795.65,144.52,795.8,144.21,795.8,143.83z"/>
	<path class="st1" d="M806.63,147.41c-1.78,0-3.23-0.55-4.35-1.64c-1.12-1.09-1.68-2.55-1.68-4.36v-0.31c0-1.22,0.24-2.31,0.71-3.27
		c0.47-0.96,1.14-1.7,2-2.22s1.85-0.78,2.96-0.78c1.66,0,2.97,0.52,3.92,1.57c0.95,1.05,1.43,2.53,1.43,4.45v1.32h-7.73
		c0.1,0.79,0.42,1.43,0.95,1.91c0.53,0.48,1.19,0.72,2,0.72c1.25,0,2.22-0.45,2.93-1.36l1.59,1.78c-0.49,0.69-1.14,1.23-1.97,1.61
		S807.64,147.41,806.63,147.41z M806.26,137.43c-0.64,0-1.17,0.22-1.57,0.65s-0.66,1.06-0.77,1.87h4.51v-0.26
		c-0.01-0.72-0.21-1.28-0.58-1.67S806.95,137.43,806.26,137.43z"/>
	<path class="st1" d="M816.89,147.18h-3.25v-17.23h3.25V147.18z"/>
	<path class="st1" d="M820.44,147.18v-9.76h-1.81v-2.38h1.81v-1.03c0-1.36,0.39-2.42,1.17-3.17c0.78-0.75,1.88-1.13,3.28-1.13
		c0.45,0,1,0.08,1.65,0.22l-0.03,2.51c-0.27-0.07-0.6-0.1-0.99-0.1c-1.22,0-1.83,0.57-1.83,1.72v0.98h2.41v2.38h-2.41v9.76H820.44z"
		/>
</g>
</svg>
