<?xml version="1.0" encoding="utf-8"?>
<!-- Generator: Adobe Illustrator 25.3.1, SVG Export Plug-In . SVG Version: 6.00 Build 0)  -->
<svg version="1.1" id="Layer_1" xmlns="http://www.w3.org/2000/svg" xmlns:xlink="http://www.w3.org/1999/xlink" x="0px" y="0px"
	 viewBox="0 0 970 250" style="enable-background:new 0 0 970 250;" xml:space="preserve">
<style type="text/css">
	.st0{fill:#FFFFFF;}
</style>
<g>
	<path class="st0" d="M350.08,222.01h-5.59v-0.78l2.95-3.28c0.44-0.5,0.74-0.9,0.91-1.21s0.25-0.63,0.25-0.96
		c0-0.45-0.13-0.81-0.4-1.1s-0.63-0.43-1.08-0.43c-0.54,0-0.96,0.15-1.26,0.46s-0.45,0.73-0.45,1.28h-1.08
		c0-0.79,0.25-1.42,0.76-1.9s1.18-0.73,2.03-0.73c0.79,0,1.42,0.21,1.88,0.62s0.69,0.97,0.69,1.66c0,0.84-0.54,1.84-1.61,3
		l-2.29,2.48h4.28V222.01z"/>
	<path class="st0" d="M356.58,218.37c0,1.27-0.22,2.21-0.65,2.83s-1.11,0.93-2.03,0.93c-0.91,0-1.58-0.3-2.02-0.91
		s-0.66-1.5-0.68-2.7v-1.45c0-1.25,0.22-2.19,0.65-2.79s1.11-0.91,2.04-0.91c0.92,0,1.59,0.29,2.03,0.88s0.66,1.5,0.67,2.72V218.37z
		 M355.5,216.88c0-0.92-0.13-1.59-0.39-2.01s-0.67-0.63-1.22-0.63c-0.55,0-0.96,0.21-1.21,0.63s-0.38,1.06-0.39,1.93v1.73
		c0,0.92,0.13,1.6,0.4,2.04s0.67,0.66,1.22,0.66c0.54,0,0.93-0.21,1.19-0.62s0.4-1.07,0.41-1.96V216.88z"/>
	<path class="st0" d="M363.56,222.01h-5.59v-0.78l2.95-3.28c0.44-0.5,0.74-0.9,0.91-1.21s0.25-0.63,0.25-0.96
		c0-0.45-0.13-0.81-0.4-1.1s-0.63-0.43-1.08-0.43c-0.54,0-0.96,0.15-1.26,0.46s-0.45,0.73-0.45,1.28h-1.08
		c0-0.79,0.25-1.42,0.76-1.9s1.18-0.73,2.03-0.73c0.79,0,1.42,0.21,1.88,0.62s0.69,0.97,0.69,1.66c0,0.84-0.54,1.84-1.61,3
		l-2.29,2.48h4.28V222.01z"/>
	<path class="st0" d="M368.27,222.01h-1.09v-7.22l-2.19,0.8v-0.98l3.11-1.17h0.17V222.01z"/>
	<path class="st0" d="M375.9,222.01h-1.12v-8.53h1.12V222.01z"/>
	<path class="st0" d="M377.53,218.78c0-0.97,0.23-1.75,0.69-2.35s1.06-0.89,1.81-0.89c0.74,0,1.33,0.25,1.76,0.76v-3.3h1.08v9h-1
		l-0.05-0.68c-0.43,0.53-1.04,0.8-1.81,0.8c-0.73,0-1.33-0.3-1.8-0.9s-0.69-1.39-0.69-2.36V218.78z M378.61,218.91
		c0,0.72,0.15,1.28,0.45,1.69s0.71,0.61,1.23,0.61c0.69,0,1.19-0.31,1.51-0.93v-2.91c-0.32-0.6-0.82-0.9-1.49-0.9
		c-0.53,0-0.95,0.21-1.24,0.62S378.61,218.1,378.61,218.91z"/>
	<path class="st0" d="M387.19,222.12c-0.86,0-1.56-0.28-2.1-0.85s-0.81-1.32-0.81-2.26v-0.2c0-0.63,0.12-1.19,0.36-1.68
		s0.58-0.88,1.01-1.16s0.9-0.42,1.4-0.42c0.82,0,1.46,0.27,1.92,0.81s0.69,1.32,0.69,2.33v0.45h-4.29c0.02,0.62,0.2,1.13,0.55,1.51
		s0.79,0.58,1.33,0.58c0.38,0,0.71-0.08,0.97-0.23s0.5-0.36,0.7-0.62l0.66,0.52C389.05,221.71,388.25,222.12,387.19,222.12z
		 M387.05,216.44c-0.44,0-0.8,0.16-1.1,0.48s-0.48,0.76-0.55,1.34h3.18v-0.08c-0.03-0.55-0.18-0.98-0.45-1.28
		S387.51,216.44,387.05,216.44z"/>
	<path class="st0" d="M391.94,215.67l0.04,0.8c0.48-0.61,1.12-0.91,1.9-0.91c1.34,0,2.02,0.76,2.03,2.27v4.19h-1.08v-4.2
		c0-0.46-0.11-0.79-0.31-1.01s-0.52-0.33-0.96-0.33c-0.35,0-0.66,0.09-0.93,0.28s-0.47,0.43-0.62,0.74v4.52h-1.08v-6.34H391.94z"/>
	<path class="st0" d="M399.01,214.13v1.54h1.18v0.84h-1.18v3.94c0,0.25,0.05,0.45,0.16,0.57s0.29,0.19,0.54,0.19
		c0.12,0,0.3-0.02,0.52-0.07v0.87c-0.29,0.08-0.56,0.12-0.83,0.12c-0.48,0-0.85-0.15-1.1-0.44s-0.37-0.71-0.37-1.25v-3.93h-1.15
		v-0.84h1.15v-1.54H399.01z"/>
	<path class="st0" d="M401.46,213.98c0-0.18,0.05-0.32,0.16-0.45s0.27-0.18,0.48-0.18s0.37,0.06,0.48,0.18s0.16,0.27,0.16,0.45
		s-0.05,0.32-0.16,0.44s-0.27,0.18-0.48,0.18s-0.37-0.06-0.48-0.18S401.46,214.16,401.46,213.98z M402.63,222.01h-1.08v-6.34h1.08
		V222.01z"/>
	<path class="st0" d="M405.84,214.13v1.54h1.18v0.84h-1.18v3.94c0,0.25,0.05,0.45,0.16,0.57s0.29,0.19,0.54,0.19
		c0.12,0,0.3-0.02,0.52-0.07v0.87c-0.29,0.08-0.56,0.12-0.83,0.12c-0.48,0-0.85-0.15-1.1-0.44s-0.37-0.71-0.37-1.25v-3.93h-1.15
		v-0.84h1.15v-1.54H405.84z"/>
	<path class="st0" d="M410.36,220.42l1.48-4.75H413l-2.55,7.32c-0.39,1.05-1.02,1.58-1.88,1.58l-0.21-0.02l-0.4-0.08v-0.88
		l0.29,0.02c0.37,0,0.65-0.07,0.86-0.22s0.37-0.42,0.51-0.81l0.24-0.64l-2.26-6.27h1.18L410.36,220.42z"/>
	<path class="st0" d="M421.81,218.24h-3.58v3.77h-1.12v-8.53h5.29v0.92h-4.16v2.92h3.58V218.24z"/>
	<path class="st0" d="M426.48,216.64c-0.16-0.03-0.34-0.04-0.53-0.04c-0.71,0-1.19,0.3-1.45,0.91v4.5h-1.08v-6.34h1.05l0.02,0.73
		c0.36-0.57,0.86-0.85,1.51-0.85c0.21,0,0.37,0.03,0.48,0.08V216.64z"/>
	<path class="st0" d="M431.16,222.01c-0.06-0.12-0.11-0.35-0.15-0.67c-0.5,0.52-1.11,0.79-1.8,0.79c-0.62,0-1.14-0.18-1.54-0.53
		s-0.6-0.8-0.6-1.34c0-0.66,0.25-1.17,0.75-1.54s1.21-0.55,2.12-0.55h1.05v-0.5c0-0.38-0.11-0.68-0.34-0.91s-0.56-0.34-1-0.34
		c-0.39,0-0.71,0.1-0.97,0.29s-0.39,0.43-0.39,0.71h-1.09c0-0.32,0.11-0.62,0.34-0.92s0.53-0.53,0.91-0.7s0.81-0.26,1.27-0.26
		c0.73,0,1.3,0.18,1.72,0.55s0.63,0.87,0.64,1.51v2.92c0,0.58,0.07,1.04,0.22,1.39v0.09H431.16z M429.36,221.18
		c0.34,0,0.66-0.09,0.97-0.26s0.53-0.4,0.66-0.69v-1.3h-0.85c-1.33,0-1.99,0.39-1.99,1.17c0,0.34,0.11,0.61,0.34,0.8
		S429,221.18,429.36,221.18z"/>
	<path class="st0" d="M437.69,221.38c-0.42,0.5-1.04,0.74-1.86,0.74c-0.68,0-1.19-0.2-1.54-0.59s-0.53-0.97-0.54-1.74v-4.12h1.08
		v4.1c0,0.96,0.39,1.44,1.17,1.44c0.83,0,1.38-0.31,1.65-0.93v-4.61h1.08v6.34h-1.03L437.69,221.38z"/>
	<path class="st0" d="M440.12,218.78c0-0.97,0.23-1.75,0.69-2.35s1.06-0.89,1.81-0.89c0.74,0,1.33,0.25,1.76,0.76v-3.3h1.08v9h-1
		l-0.05-0.68c-0.43,0.53-1.04,0.8-1.81,0.8c-0.73,0-1.33-0.3-1.8-0.9s-0.69-1.39-0.69-2.36V218.78z M441.21,218.91
		c0,0.72,0.15,1.28,0.45,1.69s0.71,0.61,1.23,0.61c0.69,0,1.19-0.31,1.51-0.93v-2.91c-0.32-0.6-0.82-0.9-1.49-0.9
		c-0.53,0-0.95,0.21-1.24,0.62S441.21,218.1,441.21,218.91z"/>
	<path class="st0" d="M452.81,218.2c-0.96-0.28-1.67-0.62-2.11-1.02s-0.66-0.9-0.66-1.5c0-0.67,0.27-1.23,0.81-1.67
		s1.24-0.66,2.09-0.66c0.59,0,1.11,0.11,1.57,0.34s0.81,0.54,1.07,0.94s0.38,0.83,0.38,1.31h-1.13c0-0.52-0.16-0.92-0.49-1.22
		s-0.79-0.44-1.39-0.44c-0.55,0-0.99,0.12-1.3,0.37c-0.31,0.24-0.47,0.58-0.47,1.02c0,0.35,0.15,0.64,0.44,0.88
		c0.29,0.24,0.8,0.46,1.51,0.66c0.71,0.2,1.26,0.42,1.66,0.66s0.7,0.52,0.89,0.84s0.29,0.7,0.29,1.13c0,0.69-0.27,1.25-0.81,1.66
		s-1.26,0.62-2.16,0.62c-0.59,0-1.13-0.11-1.64-0.34s-0.9-0.53-1.17-0.92s-0.41-0.83-0.41-1.33h1.13c0,0.52,0.19,0.92,0.57,1.22
		s0.89,0.45,1.53,0.45c0.59,0,1.05-0.12,1.37-0.36s0.47-0.57,0.47-0.99s-0.15-0.74-0.44-0.97S453.58,218.43,452.81,218.2z"/>
	<path class="st0" d="M458.71,214.13v1.54h1.18v0.84h-1.18v3.94c0,0.25,0.05,0.45,0.16,0.57s0.29,0.19,0.54,0.19
		c0.12,0,0.3-0.02,0.52-0.07v0.87c-0.29,0.08-0.56,0.12-0.83,0.12c-0.48,0-0.85-0.15-1.1-0.44s-0.37-0.71-0.37-1.25v-3.93h-1.15
		v-0.84h1.15v-1.54H458.71z"/>
	<path class="st0" d="M465.08,221.38c-0.42,0.5-1.04,0.74-1.86,0.74c-0.68,0-1.19-0.2-1.54-0.59s-0.53-0.97-0.54-1.74v-4.12h1.08
		v4.1c0,0.96,0.39,1.44,1.17,1.44c0.83,0,1.38-0.31,1.65-0.93v-4.61h1.08v6.34h-1.03L465.08,221.38z"/>
	<path class="st0" d="M467.52,218.78c0-0.97,0.23-1.75,0.69-2.35s1.06-0.89,1.81-0.89c0.74,0,1.33,0.25,1.76,0.76v-3.3h1.08v9h-1
		l-0.05-0.68c-0.43,0.53-1.04,0.8-1.81,0.8c-0.73,0-1.33-0.3-1.8-0.9s-0.69-1.39-0.69-2.36V218.78z M468.6,218.91
		c0,0.72,0.15,1.28,0.45,1.69s0.71,0.61,1.23,0.61c0.69,0,1.19-0.31,1.51-0.93v-2.91c-0.32-0.6-0.82-0.9-1.49-0.9
		c-0.53,0-0.95,0.21-1.24,0.62S468.6,218.1,468.6,218.91z"/>
	<path class="st0" d="M476.62,220.42l1.48-4.75h1.16l-2.55,7.32c-0.39,1.05-1.02,1.58-1.88,1.58l-0.21-0.02l-0.4-0.08v-0.88
		l0.29,0.02c0.37,0,0.65-0.07,0.86-0.22s0.37-0.42,0.51-0.81l0.24-0.64l-2.26-6.27h1.18L476.62,220.42z"/>
	<path class="st0" d="M480.19,223.71l-0.62-0.42c0.37-0.51,0.56-1.04,0.57-1.58v-0.98h1.06v0.85c0,0.39-0.1,0.79-0.29,1.18
		S480.48,223.47,480.19,223.71z"/>
	<path class="st0" d="M489.29,213.47h1.13v6.04c0,0.82-0.25,1.46-0.74,1.92s-1.14,0.69-1.96,0.69c-0.85,0-1.51-0.22-1.98-0.65
		c-0.47-0.43-0.71-1.04-0.71-1.82h1.12c0,0.49,0.13,0.87,0.4,1.14s0.66,0.41,1.16,0.41c0.46,0,0.84-0.15,1.13-0.44
		s0.43-0.7,0.44-1.23V213.47z"/>
	<path class="st0" d="M496.08,222.01c-0.06-0.12-0.11-0.35-0.15-0.67c-0.5,0.52-1.11,0.79-1.8,0.79c-0.62,0-1.14-0.18-1.54-0.53
		s-0.6-0.8-0.6-1.34c0-0.66,0.25-1.17,0.75-1.54s1.21-0.55,2.12-0.55h1.05v-0.5c0-0.38-0.11-0.68-0.34-0.91s-0.56-0.34-1-0.34
		c-0.39,0-0.71,0.1-0.97,0.29s-0.39,0.43-0.39,0.71h-1.09c0-0.32,0.11-0.62,0.34-0.92s0.53-0.53,0.91-0.7s0.81-0.26,1.27-0.26
		c0.73,0,1.3,0.18,1.72,0.55s0.63,0.87,0.64,1.51v2.92c0,0.58,0.07,1.04,0.22,1.39v0.09H496.08z M494.29,221.18
		c0.34,0,0.66-0.09,0.97-0.26s0.53-0.4,0.66-0.69v-1.3h-0.85c-1.33,0-1.99,0.39-1.99,1.17c0,0.34,0.11,0.61,0.34,0.8
		S493.93,221.18,494.29,221.18z"/>
	<path class="st0" d="M500.7,220.54l1.57-4.87h1.11l-2.27,6.34h-0.83l-2.3-6.34h1.11L500.7,220.54z"/>
	<path class="st0" d="M507.05,222.12c-0.86,0-1.56-0.28-2.1-0.85s-0.81-1.32-0.81-2.26v-0.2c0-0.63,0.12-1.19,0.36-1.68
		s0.58-0.88,1.01-1.16s0.9-0.42,1.4-0.42c0.82,0,1.46,0.27,1.92,0.81s0.69,1.32,0.69,2.33v0.45h-4.29c0.02,0.62,0.2,1.13,0.55,1.51
		s0.79,0.58,1.33,0.58c0.38,0,0.71-0.08,0.97-0.23s0.5-0.36,0.7-0.62l0.66,0.52C508.91,221.71,508.12,222.12,507.05,222.12z
		 M506.92,216.44c-0.44,0-0.8,0.16-1.1,0.48s-0.48,0.76-0.55,1.34h3.18v-0.08c-0.03-0.55-0.18-0.98-0.45-1.28
		S507.37,216.44,506.92,216.44z"/>
	<path class="st0" d="M511.96,222.01h-1.08v-9h1.08V222.01z"/>
	<path class="st0" d="M513.7,213.98c0-0.18,0.05-0.32,0.16-0.45s0.27-0.18,0.48-0.18s0.37,0.06,0.48,0.18s0.16,0.27,0.16,0.45
		s-0.05,0.32-0.16,0.44s-0.27,0.18-0.48,0.18s-0.37-0.06-0.48-0.18S513.7,214.16,513.7,213.98z M514.87,222.01h-1.08v-6.34h1.08
		V222.01z"/>
	<path class="st0" d="M517.63,215.67l0.04,0.8c0.48-0.61,1.12-0.91,1.9-0.91c1.34,0,2.02,0.76,2.03,2.27v4.19h-1.08v-4.2
		c0-0.46-0.11-0.79-0.31-1.01s-0.52-0.33-0.96-0.33c-0.35,0-0.66,0.09-0.93,0.28s-0.47,0.43-0.62,0.74v4.52h-1.08v-6.34H517.63z"/>
	<path class="st0" d="M528.88,218.2c-0.96-0.28-1.67-0.62-2.11-1.02s-0.66-0.9-0.66-1.5c0-0.67,0.27-1.23,0.81-1.67
		s1.24-0.66,2.09-0.66c0.59,0,1.11,0.11,1.57,0.34s0.81,0.54,1.07,0.94s0.38,0.83,0.38,1.31h-1.13c0-0.52-0.16-0.92-0.49-1.22
		s-0.79-0.44-1.39-0.44c-0.55,0-0.99,0.12-1.3,0.37c-0.31,0.24-0.47,0.58-0.47,1.02c0,0.35,0.15,0.64,0.44,0.88
		c0.29,0.24,0.8,0.46,1.51,0.66c0.71,0.2,1.26,0.42,1.66,0.66s0.7,0.52,0.89,0.84s0.29,0.7,0.29,1.13c0,0.69-0.27,1.25-0.81,1.66
		s-1.26,0.62-2.16,0.62c-0.59,0-1.13-0.11-1.64-0.34s-0.9-0.53-1.17-0.92s-0.41-0.83-0.41-1.33h1.13c0,0.52,0.19,0.92,0.57,1.22
		s0.89,0.45,1.53,0.45c0.59,0,1.05-0.12,1.37-0.36s0.47-0.57,0.47-0.99s-0.15-0.74-0.44-0.97S529.65,218.43,528.88,218.2z"/>
	<path class="st0" d="M534.79,214.13v1.54h1.18v0.84h-1.18v3.94c0,0.25,0.05,0.45,0.16,0.57s0.29,0.19,0.54,0.19
		c0.12,0,0.3-0.02,0.52-0.07v0.87c-0.29,0.08-0.56,0.12-0.83,0.12c-0.48,0-0.85-0.15-1.1-0.44s-0.37-0.71-0.37-1.25v-3.93h-1.15
		v-0.84h1.15v-1.54H534.79z"/>
	<path class="st0" d="M540.3,216.64c-0.16-0.03-0.34-0.04-0.53-0.04c-0.71,0-1.19,0.3-1.45,0.91v4.5h-1.08v-6.34h1.05l0.02,0.73
		c0.36-0.57,0.86-0.85,1.51-0.85c0.21,0,0.37,0.03,0.48,0.08V216.64z"/>
	<path class="st0" d="M544.98,222.01c-0.06-0.12-0.11-0.35-0.15-0.67c-0.5,0.52-1.11,0.79-1.8,0.79c-0.62,0-1.14-0.18-1.54-0.53
		s-0.6-0.8-0.6-1.34c0-0.66,0.25-1.17,0.75-1.54s1.21-0.55,2.12-0.55h1.05v-0.5c0-0.38-0.11-0.68-0.34-0.91s-0.56-0.34-1-0.34
		c-0.39,0-0.71,0.1-0.97,0.29s-0.39,0.43-0.39,0.71h-1.09c0-0.32,0.11-0.62,0.34-0.92s0.53-0.53,0.91-0.7s0.81-0.26,1.27-0.26
		c0.73,0,1.3,0.18,1.72,0.55s0.63,0.87,0.64,1.51v2.92c0,0.58,0.07,1.04,0.22,1.39v0.09H544.98z M543.18,221.18
		c0.34,0,0.66-0.09,0.97-0.26s0.53-0.4,0.66-0.69v-1.3h-0.85c-1.33,0-1.99,0.39-1.99,1.17c0,0.34,0.11,0.61,0.34,0.8
		S542.82,221.18,543.18,221.18z"/>
	<path class="st0" d="M549.06,214.13v1.54h1.18v0.84h-1.18v3.94c0,0.25,0.05,0.45,0.16,0.57s0.29,0.19,0.54,0.19
		c0.12,0,0.3-0.02,0.52-0.07v0.87c-0.29,0.08-0.56,0.12-0.83,0.12c-0.48,0-0.85-0.15-1.1-0.44s-0.37-0.71-0.37-1.25v-3.93h-1.15
		v-0.84h1.15v-1.54H549.06z"/>
	<path class="st0" d="M554.14,222.12c-0.86,0-1.56-0.28-2.1-0.85s-0.81-1.32-0.81-2.26v-0.2c0-0.63,0.12-1.19,0.36-1.68
		s0.58-0.88,1.01-1.16s0.9-0.42,1.4-0.42c0.82,0,1.46,0.27,1.92,0.81s0.69,1.32,0.69,2.33v0.45h-4.29c0.02,0.62,0.2,1.13,0.55,1.51
		s0.79,0.58,1.33,0.58c0.38,0,0.71-0.08,0.97-0.23s0.5-0.36,0.7-0.62l0.66,0.52C556,221.71,555.2,222.12,554.14,222.12z M554,216.44
		c-0.44,0-0.8,0.16-1.1,0.48s-0.48,0.76-0.55,1.34h3.18v-0.08c-0.03-0.55-0.18-0.98-0.45-1.28S554.46,216.44,554,216.44z"/>
	<path class="st0" d="M557.61,218.78c0-0.99,0.23-1.77,0.69-2.36s1.06-0.88,1.82-0.88c0.77,0,1.38,0.27,1.81,0.82l0.05-0.7h0.99
		v6.19c0,0.82-0.24,1.47-0.73,1.94s-1.14,0.71-1.96,0.71c-0.46,0-0.9-0.1-1.34-0.29s-0.77-0.46-1-0.8l0.56-0.65
		c0.46,0.57,1.03,0.86,1.71,0.86c0.53,0,0.94-0.15,1.23-0.45s0.44-0.71,0.44-1.25v-0.54c-0.43,0.5-1.03,0.75-1.78,0.75
		c-0.74,0-1.34-0.3-1.8-0.9S557.61,219.81,557.61,218.78z M558.7,218.91c0,0.71,0.15,1.28,0.44,1.68s0.7,0.61,1.23,0.61
		c0.68,0,1.19-0.31,1.51-0.93v-2.89c-0.33-0.61-0.83-0.91-1.49-0.91c-0.53,0-0.94,0.21-1.24,0.62S558.7,218.1,558.7,218.91z"/>
	<path class="st0" d="M566.67,220.42l1.48-4.75h1.16l-2.55,7.32c-0.39,1.05-1.02,1.58-1.88,1.58l-0.21-0.02l-0.4-0.08v-0.88
		l0.29,0.02c0.37,0,0.65-0.07,0.86-0.22s0.37-0.42,0.51-0.81l0.24-0.64l-2.26-6.27h1.18L566.67,220.42z"/>
	<path class="st0" d="M573.02,219.71c0-0.41,0.11-0.79,0.34-1.13s0.67-0.74,1.31-1.2c-0.38-0.46-0.63-0.83-0.76-1.11
		s-0.19-0.56-0.19-0.84c0-0.65,0.19-1.16,0.57-1.52s0.9-0.55,1.56-0.55c0.59,0,1.07,0.17,1.45,0.51s0.57,0.77,0.57,1.29
		c0,0.34-0.09,0.66-0.26,0.95s-0.48,0.6-0.91,0.92l-0.63,0.46l1.9,2.27c0.27-0.51,0.4-1.07,0.4-1.69h0.98c0,1-0.24,1.82-0.72,2.48
		l1.22,1.46h-1.3l-0.57-0.67c-0.29,0.26-0.63,0.45-1.02,0.59s-0.78,0.2-1.19,0.2c-0.83,0-1.5-0.22-2-0.66
		S573.02,220.44,573.02,219.71z M575.78,221.24c0.57,0,1.1-0.22,1.58-0.66l-2.08-2.49l-0.19,0.14c-0.65,0.48-0.98,0.97-0.98,1.48
		c0,0.46,0.15,0.83,0.45,1.11S575.26,221.24,575.78,221.24z M574.8,215.4c0,0.38,0.23,0.84,0.69,1.41l0.69-0.49
		c0.27-0.19,0.45-0.37,0.54-0.54s0.15-0.38,0.15-0.62c0-0.26-0.1-0.48-0.29-0.65s-0.44-0.26-0.74-0.26c-0.32,0-0.57,0.11-0.76,0.33
		S574.8,215.06,574.8,215.4z"/>
	<path class="st0" d="M586.98,218.55h-2v3.45h-1.13v-8.53h2.82c0.96,0,1.7,0.22,2.22,0.66s0.78,1.07,0.78,1.91
		c0,0.53-0.14,0.99-0.43,1.39s-0.69,0.69-1.2,0.88l2,3.62v0.07h-1.21L586.98,218.55z M584.97,217.63h1.73c0.56,0,1-0.14,1.33-0.43
		c0.33-0.29,0.5-0.68,0.5-1.16c0-0.53-0.16-0.93-0.47-1.21c-0.31-0.28-0.77-0.42-1.36-0.43h-1.72V217.63z"/>
	<path class="st0" d="M593.7,222.12c-0.86,0-1.56-0.28-2.1-0.85s-0.81-1.32-0.81-2.26v-0.2c0-0.63,0.12-1.19,0.36-1.68
		s0.58-0.88,1.01-1.16s0.9-0.42,1.4-0.42c0.82,0,1.46,0.27,1.92,0.81s0.69,1.32,0.69,2.33v0.45h-4.29c0.02,0.62,0.2,1.13,0.55,1.51
		s0.79,0.58,1.33,0.58c0.38,0,0.71-0.08,0.97-0.23s0.5-0.36,0.7-0.62l0.66,0.52C595.56,221.71,594.76,222.12,593.7,222.12z
		 M593.56,216.44c-0.44,0-0.8,0.16-1.1,0.48s-0.48,0.76-0.55,1.34h3.18v-0.08c-0.03-0.55-0.18-0.98-0.45-1.28
		S594.01,216.44,593.56,216.44z"/>
	<path class="st0" d="M601.11,220.32c0-0.29-0.11-0.52-0.33-0.68s-0.61-0.3-1.15-0.42s-0.98-0.26-1.31-0.42s-0.56-0.36-0.71-0.59
		s-0.23-0.5-0.23-0.81c0-0.52,0.22-0.96,0.66-1.32s1-0.54,1.68-0.54c0.72,0,1.3,0.19,1.75,0.56s0.67,0.85,0.67,1.42h-1.09
		c0-0.3-0.13-0.55-0.38-0.77s-0.57-0.32-0.95-0.32c-0.39,0-0.7,0.09-0.93,0.26s-0.33,0.4-0.33,0.67c0,0.26,0.1,0.46,0.31,0.59
		s0.58,0.26,1.12,0.38s0.98,0.27,1.32,0.43s0.58,0.37,0.75,0.61s0.24,0.52,0.24,0.86c0,0.57-0.23,1.02-0.68,1.36
		s-1.04,0.51-1.76,0.51c-0.51,0-0.96-0.09-1.35-0.27s-0.7-0.43-0.92-0.75s-0.33-0.67-0.33-1.05h1.08c0.02,0.36,0.17,0.65,0.44,0.86
		s0.63,0.32,1.08,0.32c0.41,0,0.74-0.08,0.99-0.25S601.11,220.6,601.11,220.32z"/>
	<path class="st0" d="M606.24,222.12c-0.86,0-1.56-0.28-2.1-0.85s-0.81-1.32-0.81-2.26v-0.2c0-0.63,0.12-1.19,0.36-1.68
		s0.58-0.88,1.01-1.16s0.9-0.42,1.4-0.42c0.82,0,1.46,0.27,1.92,0.81s0.69,1.32,0.69,2.33v0.45h-4.29c0.02,0.62,0.2,1.13,0.55,1.51
		s0.79,0.58,1.33,0.58c0.38,0,0.71-0.08,0.97-0.23s0.5-0.36,0.7-0.62l0.66,0.52C608.1,221.71,607.3,222.12,606.24,222.12z
		 M606.11,216.44c-0.44,0-0.8,0.16-1.1,0.48s-0.48,0.76-0.55,1.34h3.18v-0.08c-0.03-0.55-0.18-0.98-0.45-1.28
		S606.56,216.44,606.11,216.44z"/>
	<path class="st0" d="M613.88,222.01c-0.06-0.12-0.11-0.35-0.15-0.67c-0.5,0.52-1.11,0.79-1.8,0.79c-0.62,0-1.14-0.18-1.54-0.53
		s-0.6-0.8-0.6-1.34c0-0.66,0.25-1.17,0.75-1.54s1.21-0.55,2.12-0.55h1.05v-0.5c0-0.38-0.11-0.68-0.34-0.91s-0.56-0.34-1-0.34
		c-0.39,0-0.71,0.1-0.97,0.29s-0.39,0.43-0.39,0.71h-1.09c0-0.32,0.11-0.62,0.34-0.92s0.53-0.53,0.91-0.7s0.81-0.26,1.27-0.26
		c0.73,0,1.3,0.18,1.72,0.55s0.63,0.87,0.64,1.51v2.92c0,0.58,0.07,1.04,0.22,1.39v0.09H613.88z M612.08,221.18
		c0.34,0,0.66-0.09,0.97-0.26s0.53-0.4,0.66-0.69v-1.3h-0.85c-1.33,0-1.99,0.39-1.99,1.17c0,0.34,0.11,0.61,0.34,0.8
		S611.73,221.18,612.08,221.18z"/>
	<path class="st0" d="M619.56,216.64c-0.16-0.03-0.34-0.04-0.53-0.04c-0.71,0-1.19,0.3-1.45,0.91v4.5h-1.08v-6.34h1.05l0.02,0.73
		c0.36-0.57,0.86-0.85,1.51-0.85c0.21,0,0.37,0.03,0.48,0.08V216.64z"/>
	<path class="st0" d="M622.99,221.24c0.39,0,0.72-0.12,1.01-0.35s0.45-0.53,0.48-0.88h1.03c-0.02,0.36-0.14,0.71-0.38,1.04
		s-0.54,0.59-0.92,0.79s-0.79,0.29-1.22,0.29c-0.86,0-1.55-0.29-2.06-0.86s-0.76-1.36-0.76-2.36v-0.18c0-0.62,0.11-1.17,0.34-1.65
		s0.55-0.85,0.98-1.12s0.92-0.4,1.5-0.4c0.71,0,1.3,0.21,1.77,0.64s0.72,0.98,0.75,1.66h-1.03c-0.03-0.41-0.19-0.75-0.47-1.01
		s-0.62-0.4-1.03-0.4c-0.55,0-0.98,0.2-1.28,0.59s-0.45,0.97-0.45,1.72v0.21c0,0.73,0.15,1.29,0.45,1.69
		S622.43,221.24,622.99,221.24z"/>
	<path class="st0" d="M627.81,216.43c0.48-0.59,1.11-0.88,1.88-0.88c1.34,0,2.02,0.76,2.03,2.27v4.19h-1.08v-4.2
		c0-0.46-0.11-0.79-0.31-1.01s-0.52-0.33-0.96-0.33c-0.35,0-0.66,0.09-0.93,0.28s-0.47,0.43-0.62,0.74v4.52h-1.08v-9h1.08V216.43z"
		/>
</g>
</svg>
