<?xml version="1.0" encoding="utf-8"?>
<!-- Generator: Adobe Illustrator 25.0.1, SVG Export Plug-In . SVG Version: 6.00 Build 0)  -->
<svg version="1.1" id="Layer_1" xmlns="http://www.w3.org/2000/svg" xmlns:xlink="http://www.w3.org/1999/xlink" x="0px" y="0px"
	 viewBox="0 0 300 600" style="enable-background:new 0 0 300 600;" xml:space="preserve">
<style type="text/css">
	.st0{fill:#021D8B;}
</style>
<g>
	<path class="st0" d="M52.28,466.87c0-0.51-0.18-0.94-0.54-1.29c-0.36-0.35-0.96-0.67-1.82-0.95c-1.19-0.36-2.05-0.83-2.59-1.42
		c-0.54-0.58-0.81-1.32-0.81-2.22c0-0.91,0.27-1.66,0.8-2.25c0.53-0.58,1.26-0.93,2.19-1.04v-1.83h1.24v1.84
		c0.94,0.13,1.66,0.52,2.18,1.18s0.78,1.56,0.78,2.7h-1.54c0-0.79-0.19-1.41-0.56-1.88c-0.37-0.46-0.88-0.7-1.51-0.7
		c-0.66,0-1.17,0.17-1.52,0.51s-0.53,0.82-0.53,1.43c0,0.57,0.18,1.02,0.55,1.36c0.37,0.34,0.98,0.64,1.83,0.92s1.51,0.58,1.99,0.91
		c0.48,0.33,0.83,0.72,1.05,1.16s0.34,0.96,0.34,1.54c0,0.94-0.28,1.7-0.85,2.27s-1.36,0.91-2.38,1.02v1.6h-1.24v-1.6
		c-1.04-0.09-1.85-0.46-2.43-1.11c-0.59-0.64-0.88-1.52-0.88-2.62h1.54c0,0.77,0.2,1.37,0.61,1.79c0.41,0.42,0.98,0.63,1.73,0.63
		c0.73,0,1.3-0.18,1.72-0.53C52.07,467.95,52.28,467.48,52.28,466.87z"/>
	<path class="st0" d="M60.82,470h-1.55v-10.3l-3.11,1.14v-1.4l4.43-1.66h0.24V470z"/>
	<path class="st0" d="M71.84,458.78v2.19h1.69v1.19h-1.69v5.61c0,0.36,0.08,0.63,0.23,0.82c0.15,0.18,0.41,0.27,0.77,0.27
		c0.18,0,0.42-0.03,0.74-0.1V470c-0.41,0.11-0.8,0.17-1.19,0.17c-0.69,0-1.21-0.21-1.56-0.63c-0.35-0.42-0.53-1.01-0.53-1.78v-5.6
		h-1.65v-1.19h1.65v-2.19H71.84z"/>
	<path class="st0" d="M79.7,462.35c-0.23-0.04-0.49-0.06-0.76-0.06c-1.01,0-1.7,0.43-2.06,1.29V470h-1.54v-9.04h1.5l0.03,1.04
		c0.51-0.81,1.22-1.21,2.15-1.21c0.3,0,0.53,0.04,0.69,0.12V462.35z"/>
	<path class="st0" d="M81.12,458.57c0-0.25,0.08-0.46,0.23-0.63s0.38-0.26,0.68-0.26s0.53,0.09,0.68,0.26s0.23,0.38,0.23,0.63
		s-0.08,0.46-0.23,0.63s-0.38,0.25-0.68,0.25s-0.53-0.08-0.68-0.25S81.12,458.82,81.12,458.57z M82.79,470h-1.54v-9.04h1.54V470z"/>
	<path class="st0" d="M90.84,470c-0.09-0.18-0.16-0.5-0.22-0.95c-0.72,0.75-1.58,1.12-2.57,1.12c-0.89,0-1.62-0.25-2.19-0.76
		c-0.57-0.5-0.86-1.14-0.86-1.92c0-0.94,0.36-1.67,1.07-2.19c0.71-0.52,1.72-0.78,3.02-0.78h1.5v-0.71c0-0.54-0.16-0.97-0.48-1.29
		c-0.32-0.32-0.8-0.48-1.43-0.48c-0.55,0-1.01,0.14-1.39,0.42s-0.56,0.62-0.56,1.01h-1.55c0-0.45,0.16-0.89,0.48-1.31
		c0.32-0.42,0.75-0.75,1.3-1c0.55-0.24,1.15-0.37,1.81-0.37c1.04,0,1.86,0.26,2.45,0.78s0.9,1.24,0.92,2.15v4.16
		c0,0.83,0.11,1.49,0.32,1.98V470H90.84z M88.28,468.82c0.48,0,0.94-0.12,1.38-0.38c0.43-0.25,0.75-0.58,0.94-0.98v-1.85h-1.21
		c-1.89,0-2.84,0.55-2.84,1.66c0,0.48,0.16,0.86,0.48,1.14C87.36,468.69,87.77,468.82,88.28,468.82z"/>
	<path class="st0" d="M96.25,470H94.7v-12.83h1.54V470z"/>
	<path class="st0" d="M103.71,470v-7.84h-1.43v-1.19h1.43v-0.93c0-0.97,0.26-1.72,0.78-2.25c0.52-0.53,1.25-0.79,2.2-0.79
		c0.36,0,0.71,0.05,1.06,0.14l-0.08,1.25c-0.26-0.05-0.54-0.08-0.83-0.08c-0.5,0-0.89,0.15-1.16,0.44
		c-0.27,0.29-0.41,0.71-0.41,1.26v0.96h1.93v1.19h-1.93V470H103.71z"/>
	<path class="st0" d="M108.48,465.4c0-0.88,0.17-1.68,0.52-2.39c0.35-0.71,0.83-1.25,1.45-1.64c0.62-0.38,1.33-0.58,2.12-0.58
		c1.23,0,2.23,0.43,2.99,1.28c0.76,0.85,1.14,1.98,1.14,3.4v0.11c0,0.88-0.17,1.67-0.5,2.37c-0.34,0.7-0.82,1.24-1.44,1.63
		c-0.63,0.39-1.35,0.58-2.16,0.58c-1.22,0-2.22-0.43-2.98-1.28c-0.76-0.85-1.14-1.98-1.14-3.38V465.4z M110.04,465.58
		c0,1,0.23,1.81,0.7,2.41c0.46,0.61,1.09,0.91,1.87,0.91c0.79,0,1.41-0.31,1.87-0.92c0.46-0.62,0.69-1.48,0.69-2.58
		c0-0.99-0.23-1.79-0.71-2.41s-1.1-0.92-1.88-0.92c-0.76,0-1.38,0.3-1.85,0.91C110.27,463.58,110.04,464.45,110.04,465.58z"/>
	<path class="st0" d="M123.01,462.35c-0.23-0.04-0.49-0.06-0.76-0.06c-1.01,0-1.7,0.43-2.06,1.29V470h-1.54v-9.04h1.5l0.03,1.04
		c0.51-0.81,1.22-1.21,2.15-1.21c0.3,0,0.53,0.04,0.69,0.12V462.35z"/>
	<path class="st0" d="M130.76,458.78v2.19h1.69v1.19h-1.69v5.61c0,0.36,0.08,0.63,0.23,0.82c0.15,0.18,0.41,0.27,0.77,0.27
		c0.18,0,0.42-0.03,0.74-0.1V470c-0.41,0.11-0.8,0.17-1.19,0.17c-0.69,0-1.21-0.21-1.56-0.63c-0.35-0.42-0.53-1.01-0.53-1.78v-5.6
		h-1.65v-1.19h1.65v-2.19H130.76z"/>
	<path class="st0" d="M135.8,462.06c0.68-0.84,1.58-1.26,2.67-1.26c1.91,0,2.87,1.08,2.89,3.23V470h-1.54v-5.98
		c-0.01-0.65-0.16-1.13-0.45-1.44c-0.29-0.31-0.75-0.47-1.37-0.47c-0.5,0-0.94,0.13-1.32,0.4c-0.38,0.27-0.67,0.62-0.89,1.05V470
		h-1.54v-12.83h1.54V462.06z"/>
	<path class="st0" d="M147.42,470.17c-1.22,0-2.22-0.4-2.99-1.21c-0.77-0.8-1.15-1.88-1.15-3.23v-0.28c0-0.9,0.17-1.7,0.51-2.4
		c0.34-0.7,0.82-1.26,1.44-1.65c0.62-0.4,1.28-0.6,2-0.6c1.17,0,2.09,0.39,2.74,1.16s0.98,1.88,0.98,3.32v0.64h-6.12
		c0.02,0.89,0.28,1.61,0.78,2.16c0.5,0.55,1.13,0.82,1.9,0.82c0.55,0,1.01-0.11,1.39-0.33s0.71-0.52,0.99-0.89l0.94,0.74
		C150.07,469.58,148.94,470.17,147.42,470.17z M147.23,462.07c-0.62,0-1.15,0.23-1.57,0.68c-0.42,0.45-0.68,1.09-0.78,1.91h4.53
		v-0.12c-0.04-0.79-0.26-1.39-0.63-1.82C148.39,462.28,147.88,462.07,147.23,462.07z"/>
	<path class="st0" d="M157.73,470v-7.84h-1.43v-1.19h1.43v-0.93c0-0.97,0.26-1.72,0.78-2.25c0.52-0.53,1.25-0.79,2.2-0.79
		c0.36,0,0.71,0.05,1.06,0.14l-0.08,1.25c-0.26-0.05-0.54-0.08-0.83-0.08c-0.5,0-0.89,0.15-1.16,0.44
		c-0.27,0.29-0.41,0.71-0.41,1.26v0.96h1.93v1.19h-1.93V470H157.73z"/>
	<path class="st0" d="M162.91,458.57c0-0.25,0.08-0.46,0.23-0.63s0.38-0.26,0.68-0.26s0.53,0.09,0.68,0.26s0.23,0.38,0.23,0.63
		s-0.08,0.46-0.23,0.63s-0.38,0.25-0.68,0.25s-0.53-0.08-0.68-0.25S162.91,458.82,162.91,458.57z M164.58,470h-1.54v-9.04h1.54V470z
		"/>
	<path class="st0" d="M171.42,462.35c-0.23-0.04-0.49-0.06-0.76-0.06c-1.01,0-1.7,0.43-2.06,1.29V470h-1.54v-9.04h1.5l0.03,1.04
		c0.51-0.81,1.22-1.21,2.15-1.21c0.3,0,0.53,0.04,0.69,0.12V462.35z"/>
	<path class="st0" d="M178.1,467.6c0-0.42-0.16-0.74-0.47-0.97c-0.32-0.23-0.86-0.43-1.65-0.6s-1.4-0.37-1.86-0.6
		c-0.46-0.23-0.8-0.51-1.02-0.83c-0.22-0.32-0.33-0.71-0.33-1.15c0-0.74,0.31-1.37,0.94-1.88c0.63-0.51,1.43-0.77,2.4-0.77
		c1.02,0,1.86,0.26,2.49,0.79c0.64,0.53,0.96,1.21,0.96,2.03h-1.55c0-0.42-0.18-0.79-0.54-1.09c-0.36-0.31-0.81-0.46-1.36-0.46
		c-0.56,0-1,0.12-1.32,0.37c-0.32,0.25-0.48,0.57-0.48,0.96c0,0.37,0.15,0.65,0.44,0.84c0.29,0.19,0.83,0.37,1.6,0.54
		c0.77,0.17,1.4,0.38,1.88,0.62c0.48,0.24,0.83,0.53,1.06,0.86c0.23,0.34,0.35,0.75,0.35,1.23c0,0.81-0.32,1.45-0.97,1.94
		c-0.65,0.49-1.48,0.73-2.51,0.73c-0.72,0-1.36-0.13-1.92-0.38s-0.99-0.61-1.31-1.07c-0.32-0.46-0.47-0.96-0.47-1.49h1.54
		c0.03,0.52,0.24,0.93,0.62,1.23c0.39,0.3,0.9,0.46,1.53,0.46c0.58,0,1.05-0.12,1.41-0.36C177.93,468.31,178.1,468,178.1,467.6z"/>
	<path class="st0" d="M183.76,458.78v2.19h1.69v1.19h-1.69v5.61c0,0.36,0.08,0.63,0.23,0.82c0.15,0.18,0.41,0.27,0.77,0.27
		c0.18,0,0.42-0.03,0.74-0.1V470c-0.41,0.11-0.8,0.17-1.19,0.17c-0.69,0-1.21-0.21-1.56-0.63c-0.35-0.42-0.53-1.01-0.53-1.78v-5.6
		h-1.65v-1.19h1.65v-2.19H183.76z"/>
	<path class="st0" d="M197.29,470h-2.82v-8.99l-2.77,0.81v-2.14l5.34-1.85h0.26V470z"/>
	<path class="st0" d="M208.39,465.25h1.24v2.17h-1.24V470h-2.81v-2.58h-4.7l-0.17-1.72l4.87-7.83v-0.03h2.81V465.25z M203.39,465.25
		h2.19v-3.74l-0.18,0.28L203.39,465.25z"/>
	<path class="st0" d="M214.82,465.42c0-1.43,0.31-2.56,0.93-3.38s1.48-1.24,2.59-1.24c0.81,0,1.49,0.32,2.04,0.95v-4.58h2.82V470
		h-2.53l-0.14-0.97c-0.58,0.76-1.31,1.14-2.2,1.14c-1.08,0-1.93-0.41-2.56-1.24C215.13,468.11,214.82,466.94,214.82,465.42z
		 M217.63,465.59c0,1.6,0.47,2.41,1.4,2.41c0.62,0,1.07-0.26,1.34-0.79v-3.44c-0.26-0.54-0.7-0.8-1.32-0.8
		c-0.87,0-1.34,0.7-1.41,2.1L217.63,465.59z"/>
	<path class="st0" d="M229.88,470c-0.1-0.18-0.19-0.45-0.27-0.81c-0.52,0.65-1.24,0.98-2.17,0.98c-0.85,0-1.58-0.26-2.17-0.77
		s-0.89-1.16-0.89-1.94c0-0.98,0.36-1.72,1.09-2.22c0.72-0.5,1.78-0.75,3.16-0.75h0.87V464c0-0.83-0.36-1.25-1.08-1.25
		c-0.67,0-1,0.33-1,0.99h-2.81c0-0.87,0.37-1.58,1.12-2.13s1.69-0.82,2.84-0.82c1.15,0,2.06,0.28,2.73,0.84s1.01,1.33,1.03,2.31v4
		c0.01,0.83,0.14,1.46,0.38,1.9V470H229.88z M228.12,468.16c0.35,0,0.64-0.08,0.87-0.23c0.23-0.15,0.4-0.32,0.5-0.51v-1.44h-0.82
		c-0.98,0-1.47,0.44-1.47,1.32c0,0.26,0.09,0.46,0.26,0.62C227.63,468.08,227.85,468.16,228.12,468.16z"/>
	<path class="st0" d="M237.48,466.06l1.5-5.09H242l-3.68,10.55l-0.16,0.38c-0.52,1.17-1.45,1.75-2.77,1.75
		c-0.37,0-0.75-0.06-1.16-0.17v-2h0.37c0.4,0,0.7-0.06,0.91-0.17c0.21-0.11,0.36-0.32,0.46-0.61l0.23-0.6l-3.14-9.13h3.01
		L237.48,466.06z"/>
	<path class="st0" d="M247.46,467.46c0-0.24-0.13-0.43-0.38-0.58c-0.25-0.14-0.73-0.29-1.43-0.45c-0.7-0.16-1.28-0.36-1.74-0.61
		c-0.46-0.25-0.8-0.56-1.04-0.92s-0.36-0.78-0.36-1.24c0-0.83,0.34-1.51,1.03-2.05c0.68-0.54,1.58-0.81,2.69-0.81
		c1.19,0,2.15,0.27,2.87,0.81s1.09,1.25,1.09,2.13h-2.82c0-0.72-0.38-1.08-1.14-1.08c-0.29,0-0.54,0.08-0.74,0.25
		s-0.3,0.37-0.3,0.61c0,0.25,0.12,0.45,0.37,0.61c0.25,0.16,0.64,0.28,1.17,0.38s1.01,0.22,1.42,0.36c1.36,0.47,2.04,1.31,2.04,2.51
		c0,0.82-0.37,1.5-1.1,2.01c-0.73,0.52-1.68,0.78-2.84,0.78c-0.77,0-1.46-0.14-2.07-0.42c-0.61-0.28-1.08-0.66-1.42-1.14
		c-0.34-0.48-0.51-0.98-0.51-1.51h2.63c0.01,0.42,0.15,0.72,0.42,0.91c0.27,0.19,0.61,0.29,1.03,0.29c0.38,0,0.67-0.08,0.87-0.23
		C247.36,467.92,247.46,467.71,247.46,467.46z"/>
	<path class="st0" d="M251.82,472.42l-0.88-0.6c0.52-0.73,0.8-1.48,0.82-2.25v-1.39h1.51v1.21c0,0.56-0.14,1.12-0.41,1.69
		C252.58,471.63,252.24,472.08,251.82,472.42z"/>
	<path class="st0" d="M38.07,492.24V497h-1.6v-12.16h4.48c1.33,0,2.37,0.34,3.13,1.02c0.75,0.68,1.13,1.58,1.13,2.7
		c0,1.18-0.37,2.09-1.11,2.73c-0.74,0.64-1.79,0.96-3.17,0.96H38.07z M38.07,490.93h2.88c0.86,0,1.51-0.2,1.97-0.61
		c0.46-0.4,0.68-0.99,0.68-1.75c0-0.72-0.23-1.3-0.68-1.74c-0.46-0.43-1.08-0.66-1.88-0.68h-2.97V490.93z"/>
	<path class="st0" d="M48.7,497h-1.54v-12.83h1.54V497z"/>
	<path class="st0" d="M56.75,497c-0.09-0.18-0.16-0.5-0.22-0.95c-0.72,0.75-1.58,1.12-2.57,1.12c-0.89,0-1.62-0.25-2.19-0.76
		c-0.57-0.5-0.86-1.14-0.86-1.92c0-0.94,0.36-1.67,1.07-2.19c0.71-0.52,1.72-0.78,3.02-0.78h1.5v-0.71c0-0.54-0.16-0.97-0.48-1.29
		c-0.32-0.32-0.8-0.48-1.43-0.48c-0.55,0-1.01,0.14-1.39,0.42s-0.56,0.62-0.56,1.01h-1.55c0-0.45,0.16-0.89,0.48-1.31
		c0.32-0.42,0.75-0.75,1.3-1c0.55-0.24,1.15-0.37,1.81-0.37c1.04,0,1.86,0.26,2.45,0.78s0.9,1.24,0.92,2.15v4.16
		c0,0.83,0.11,1.49,0.32,1.98V497H56.75z M54.18,495.82c0.48,0,0.94-0.12,1.38-0.38c0.43-0.25,0.75-0.58,0.94-0.98v-1.85h-1.21
		c-1.89,0-2.84,0.55-2.84,1.66c0,0.48,0.16,0.86,0.48,1.14C53.26,495.69,53.68,495.82,54.18,495.82z"/>
	<path class="st0" d="M61.93,487.96l0.05,1.14c0.69-0.87,1.59-1.3,2.71-1.3c1.91,0,2.87,1.08,2.89,3.23V497h-1.54v-5.98
		c-0.01-0.65-0.16-1.13-0.45-1.44c-0.29-0.31-0.75-0.47-1.37-0.47c-0.5,0-0.94,0.13-1.32,0.4c-0.38,0.27-0.67,0.62-0.89,1.05V497
		h-1.54v-9.04H61.93z"/>
	<path class="st0" d="M75.17,494.6c0-0.42-0.16-0.74-0.47-0.97c-0.32-0.23-0.86-0.43-1.65-0.6s-1.4-0.37-1.86-0.6
		c-0.46-0.23-0.8-0.51-1.02-0.83c-0.22-0.32-0.33-0.71-0.33-1.15c0-0.74,0.31-1.37,0.94-1.88c0.63-0.51,1.43-0.77,2.4-0.77
		c1.02,0,1.86,0.26,2.49,0.79c0.64,0.53,0.96,1.21,0.96,2.03h-1.55c0-0.42-0.18-0.79-0.54-1.09c-0.36-0.31-0.81-0.46-1.36-0.46
		c-0.56,0-1,0.12-1.32,0.37c-0.32,0.25-0.48,0.57-0.48,0.96c0,0.37,0.15,0.65,0.44,0.84c0.29,0.19,0.83,0.37,1.6,0.54
		c0.77,0.17,1.4,0.38,1.88,0.62c0.48,0.24,0.83,0.53,1.06,0.86c0.23,0.34,0.35,0.75,0.35,1.23c0,0.81-0.32,1.45-0.97,1.94
		c-0.65,0.49-1.48,0.73-2.51,0.73c-0.72,0-1.36-0.13-1.92-0.38s-0.99-0.61-1.31-1.07c-0.32-0.46-0.47-0.96-0.47-1.49h1.54
		c0.03,0.52,0.24,0.93,0.62,1.23c0.39,0.3,0.9,0.46,1.53,0.46c0.58,0,1.05-0.12,1.41-0.36C74.99,495.31,75.17,495,75.17,494.6z"/>
	<path class="st0" d="M88.22,494.6c0-0.42-0.16-0.74-0.47-0.97c-0.32-0.23-0.86-0.43-1.65-0.6s-1.4-0.37-1.86-0.6
		c-0.46-0.23-0.8-0.51-1.02-0.83c-0.22-0.32-0.33-0.71-0.33-1.15c0-0.74,0.31-1.37,0.94-1.88c0.63-0.51,1.43-0.77,2.4-0.77
		c1.02,0,1.86,0.26,2.49,0.79c0.64,0.53,0.96,1.21,0.96,2.03h-1.55c0-0.42-0.18-0.79-0.54-1.09c-0.36-0.31-0.81-0.46-1.36-0.46
		c-0.56,0-1,0.12-1.32,0.37c-0.32,0.25-0.48,0.57-0.48,0.96c0,0.37,0.15,0.65,0.44,0.84c0.29,0.19,0.83,0.37,1.6,0.54
		c0.77,0.17,1.4,0.38,1.88,0.62c0.48,0.24,0.83,0.53,1.06,0.86c0.23,0.34,0.35,0.75,0.35,1.23c0,0.81-0.32,1.45-0.97,1.94
		c-0.65,0.49-1.48,0.73-2.51,0.73c-0.72,0-1.36-0.13-1.92-0.38s-0.99-0.61-1.31-1.07c-0.32-0.46-0.47-0.96-0.47-1.49h1.54
		c0.03,0.52,0.24,0.93,0.62,1.23c0.39,0.3,0.9,0.46,1.53,0.46c0.58,0,1.05-0.12,1.41-0.36C88.04,495.31,88.22,495,88.22,494.6z"/>
	<path class="st0" d="M93.88,485.78v2.19h1.69v1.19h-1.69v5.61c0,0.36,0.08,0.63,0.23,0.82c0.15,0.18,0.41,0.27,0.77,0.27
		c0.18,0,0.42-0.03,0.74-0.1V497c-0.41,0.11-0.8,0.17-1.19,0.17c-0.69,0-1.21-0.21-1.56-0.63c-0.35-0.42-0.53-1.01-0.53-1.78v-5.6
		h-1.65v-1.19h1.65v-2.19H93.88z"/>
	<path class="st0" d="M102.95,497c-0.09-0.18-0.16-0.5-0.22-0.95c-0.72,0.75-1.58,1.12-2.57,1.12c-0.89,0-1.62-0.25-2.19-0.76
		c-0.57-0.5-0.86-1.14-0.86-1.92c0-0.94,0.36-1.67,1.07-2.19c0.71-0.52,1.72-0.78,3.02-0.78h1.5v-0.71c0-0.54-0.16-0.97-0.48-1.29
		c-0.32-0.32-0.8-0.48-1.43-0.48c-0.55,0-1.01,0.14-1.39,0.42s-0.56,0.62-0.56,1.01h-1.55c0-0.45,0.16-0.89,0.48-1.31
		c0.32-0.42,0.75-0.75,1.3-1c0.55-0.24,1.15-0.37,1.81-0.37c1.04,0,1.86,0.26,2.45,0.78s0.9,1.24,0.92,2.15v4.16
		c0,0.83,0.11,1.49,0.32,1.98V497H102.95z M100.38,495.82c0.48,0,0.94-0.12,1.38-0.38c0.43-0.25,0.75-0.58,0.94-0.98v-1.85h-1.21
		c-1.89,0-2.84,0.55-2.84,1.66c0,0.48,0.16,0.86,0.48,1.14C99.46,495.69,99.87,495.82,100.38,495.82z"/>
	<path class="st0" d="M111.04,489.35c-0.23-0.04-0.49-0.06-0.76-0.06c-1.01,0-1.7,0.43-2.06,1.29V497h-1.54v-9.04h1.5l0.03,1.04
		c0.51-0.81,1.22-1.21,2.15-1.21c0.3,0,0.53,0.04,0.69,0.12V489.35z"/>
	<path class="st0" d="M114.97,485.78v2.19h1.69v1.19h-1.69v5.61c0,0.36,0.08,0.63,0.23,0.82c0.15,0.18,0.41,0.27,0.77,0.27
		c0.18,0,0.42-0.03,0.74-0.1V497c-0.41,0.11-0.8,0.17-1.19,0.17c-0.69,0-1.21-0.21-1.56-0.63c-0.35-0.42-0.53-1.01-0.53-1.78v-5.6
		h-1.65v-1.19h1.65v-2.19H114.97z"/>
	<path class="st0" d="M118.47,485.57c0-0.25,0.08-0.46,0.23-0.63s0.38-0.26,0.68-0.26s0.53,0.09,0.68,0.26s0.23,0.38,0.23,0.63
		s-0.08,0.46-0.23,0.63s-0.38,0.25-0.68,0.25s-0.53-0.08-0.68-0.25S118.47,485.82,118.47,485.57z M120.14,497h-1.54v-9.04h1.54V497z
		"/>
	<path class="st0" d="M124.07,487.96l0.05,1.14c0.69-0.87,1.59-1.3,2.71-1.3c1.91,0,2.87,1.08,2.89,3.23V497h-1.54v-5.98
		c-0.01-0.65-0.16-1.13-0.45-1.44c-0.29-0.31-0.75-0.47-1.37-0.47c-0.5,0-0.94,0.13-1.32,0.4c-0.38,0.27-0.67,0.62-0.89,1.05V497
		h-1.54v-9.04H124.07z"/>
	<path class="st0" d="M131.68,492.41c0-1.41,0.33-2.53,0.98-3.36c0.65-0.83,1.51-1.25,2.59-1.25c1.1,0,1.96,0.39,2.58,1.17l0.08-1
		h1.41v8.82c0,1.17-0.35,2.09-1.04,2.76c-0.69,0.67-1.62,1.01-2.79,1.01c-0.65,0-1.29-0.14-1.91-0.42c-0.62-0.28-1.1-0.66-1.43-1.14
		l0.8-0.93c0.66,0.82,1.47,1.23,2.43,1.23c0.75,0,1.34-0.21,1.76-0.63c0.42-0.42,0.63-1.02,0.63-1.79v-0.78
		c-0.62,0.71-1.46,1.07-2.53,1.07c-1.06,0-1.91-0.43-2.57-1.28C132.01,495.04,131.68,493.88,131.68,492.41z M133.23,492.58
		c0,1.02,0.21,1.82,0.63,2.4c0.42,0.58,1,0.87,1.75,0.87c0.97,0,1.69-0.44,2.15-1.33v-4.13c-0.47-0.86-1.18-1.29-2.13-1.29
		c-0.75,0-1.34,0.29-1.76,0.88C133.45,490.57,133.23,491.44,133.23,492.58z"/>
	<path class="st0" d="M151.46,497c-0.09-0.18-0.16-0.5-0.22-0.95c-0.72,0.75-1.58,1.12-2.57,1.12c-0.89,0-1.62-0.25-2.19-0.76
		c-0.57-0.5-0.86-1.14-0.86-1.92c0-0.94,0.36-1.67,1.07-2.19c0.71-0.52,1.72-0.78,3.02-0.78h1.5v-0.71c0-0.54-0.16-0.97-0.48-1.29
		c-0.32-0.32-0.8-0.48-1.43-0.48c-0.55,0-1.01,0.14-1.39,0.42s-0.56,0.62-0.56,1.01h-1.55c0-0.45,0.16-0.89,0.48-1.31
		c0.32-0.42,0.75-0.75,1.3-1c0.55-0.24,1.15-0.37,1.81-0.37c1.04,0,1.86,0.26,2.45,0.78s0.9,1.24,0.92,2.15v4.16
		c0,0.83,0.11,1.49,0.32,1.98V497H151.46z M148.89,495.82c0.48,0,0.94-0.12,1.38-0.38c0.43-0.25,0.75-0.58,0.94-0.98v-1.85H150
		c-1.89,0-2.84,0.55-2.84,1.66c0,0.48,0.16,0.86,0.48,1.14C147.97,495.69,148.38,495.82,148.89,495.82z"/>
	<path class="st0" d="M157.28,485.78v2.19h1.69v1.19h-1.69v5.61c0,0.36,0.08,0.63,0.23,0.82c0.15,0.18,0.41,0.27,0.77,0.27
		c0.18,0,0.42-0.03,0.74-0.1V497c-0.41,0.11-0.8,0.17-1.19,0.17c-0.69,0-1.21-0.21-1.56-0.63c-0.35-0.42-0.53-1.01-0.53-1.78v-5.6
		h-1.65v-1.19h1.65v-2.19H157.28z"/>
	<path class="st0" d="M170.18,493.78c0-0.44-0.11-0.79-0.33-1.04c-0.22-0.25-0.6-0.49-1.14-0.71s-1.05-0.45-1.51-0.68
		s-0.86-0.49-1.19-0.79s-0.59-0.65-0.77-1.04c-0.18-0.4-0.27-0.87-0.27-1.44c0-0.94,0.32-1.72,0.95-2.33
		c0.63-0.61,1.48-0.96,2.54-1.06v-1.76h1.33v1.79c1.02,0.15,1.82,0.57,2.4,1.26c0.58,0.69,0.87,1.56,0.87,2.62h-2.82
		c0-0.58-0.11-1.02-0.33-1.34s-0.54-0.47-0.95-0.47c-0.37,0-0.65,0.12-0.86,0.35c-0.2,0.23-0.31,0.55-0.31,0.96
		c0,0.41,0.12,0.74,0.35,0.98c0.23,0.24,0.61,0.47,1.13,0.69s1.01,0.45,1.47,0.68s0.86,0.5,1.19,0.81s0.6,0.65,0.79,1.05
		c0.19,0.4,0.28,0.88,0.28,1.44c0,0.95-0.3,1.73-0.91,2.33c-0.6,0.6-1.43,0.95-2.47,1.05v1.68h-1.33v-1.69
		c-1.21-0.13-2.15-0.54-2.79-1.25c-0.65-0.7-0.97-1.63-0.97-2.79h2.81c0,0.63,0.14,1.12,0.42,1.45c0.28,0.33,0.68,0.5,1.2,0.5
		c0.38,0,0.68-0.11,0.89-0.34C170.07,494.48,170.18,494.17,170.18,493.78z"/>
	<path class="st0" d="M180.03,492.3c-0.61,0.55-1.29,0.82-2.04,0.82c-1.1,0-1.98-0.37-2.62-1.12c-0.65-0.75-0.97-1.74-0.97-2.99
		c0-0.78,0.18-1.5,0.54-2.17c0.36-0.67,0.87-1.2,1.52-1.59s1.38-0.58,2.17-0.58c0.8,0,1.53,0.2,2.18,0.61
		c0.65,0.4,1.15,0.97,1.52,1.71c0.36,0.74,0.55,1.59,0.56,2.55v1.08c0,1.34-0.26,2.51-0.79,3.49s-1.28,1.74-2.25,2.27
		c-0.97,0.53-2.11,0.79-3.41,0.79h-0.17v-2.25l0.53-0.01C178.73,494.81,179.81,493.94,180.03,492.3z M178.75,491.09
		c0.61,0,1.05-0.26,1.32-0.79v-1.17c0-0.78-0.13-1.36-0.39-1.73s-0.62-0.56-1.06-0.56c-0.4,0-0.73,0.21-0.99,0.63
		c-0.27,0.42-0.4,0.93-0.4,1.54c0,0.63,0.14,1.14,0.41,1.52S178.27,491.09,178.75,491.09z"/>
	<path class="st0" d="M186.17,494.27c0.45,0,0.82,0.13,1.11,0.4c0.3,0.26,0.44,0.6,0.44,1.01s-0.15,0.75-0.44,1.01
		c-0.29,0.26-0.67,0.4-1.11,0.4c-0.45,0-0.82-0.13-1.12-0.4c-0.29-0.27-0.44-0.6-0.44-1.01s0.15-0.74,0.44-1.01
		C185.35,494.4,185.72,494.27,186.17,494.27z"/>
	<path class="st0" d="M195.1,492.3c-0.61,0.55-1.29,0.82-2.04,0.82c-1.1,0-1.98-0.37-2.62-1.12c-0.65-0.75-0.97-1.74-0.97-2.99
		c0-0.78,0.18-1.5,0.54-2.17c0.36-0.67,0.87-1.2,1.52-1.59s1.38-0.58,2.17-0.58c0.8,0,1.53,0.2,2.18,0.61
		c0.65,0.4,1.15,0.97,1.52,1.71c0.36,0.74,0.55,1.59,0.56,2.55v1.08c0,1.34-0.26,2.51-0.79,3.49s-1.28,1.74-2.25,2.27
		c-0.97,0.53-2.11,0.79-3.41,0.79h-0.17v-2.25l0.53-0.01C193.8,494.81,194.88,493.94,195.1,492.3z M193.82,491.09
		c0.61,0,1.05-0.26,1.32-0.79v-1.17c0-0.78-0.13-1.36-0.39-1.73s-0.62-0.56-1.06-0.56c-0.4,0-0.73,0.21-0.99,0.63
		c-0.27,0.42-0.4,0.93-0.4,1.54c0,0.63,0.14,1.14,0.41,1.52S193.35,491.09,193.82,491.09z"/>
	<path class="st0" d="M205,492.3c-0.61,0.55-1.29,0.82-2.04,0.82c-1.1,0-1.98-0.37-2.62-1.12c-0.65-0.75-0.97-1.74-0.97-2.99
		c0-0.78,0.18-1.5,0.54-2.17c0.36-0.67,0.87-1.2,1.52-1.59s1.38-0.58,2.17-0.58c0.8,0,1.53,0.2,2.18,0.61
		c0.65,0.4,1.15,0.97,1.52,1.71c0.36,0.74,0.55,1.59,0.56,2.55v1.08c0,1.34-0.26,2.51-0.79,3.49s-1.28,1.74-2.25,2.27
		c-0.97,0.53-2.11,0.79-3.41,0.79h-0.17v-2.25l0.53-0.01C203.71,494.81,204.79,493.94,205,492.3z M203.73,491.09
		c0.61,0,1.05-0.26,1.32-0.79v-1.17c0-0.78-0.13-1.36-0.39-1.73s-0.62-0.56-1.06-0.56c-0.4,0-0.73,0.21-0.99,0.63
		c-0.27,0.42-0.4,0.93-0.4,1.54c0,0.63,0.14,1.14,0.41,1.52S203.25,491.09,203.73,491.09z"/>
	<path class="st0" d="M210.37,498.04h-2l4.15-13.2h2L210.37,498.04z"/>
	<path class="st0" d="M218.07,487.96l0.09,1.06c0.64-0.82,1.5-1.23,2.58-1.23c1.14,0,1.91,0.45,2.31,1.36
		c0.61-0.91,1.5-1.36,2.66-1.36c1.83,0,2.77,1.11,2.82,3.32V497h-2.82v-5.7c0-0.46-0.08-0.8-0.23-1.01
		c-0.16-0.21-0.44-0.32-0.85-0.32c-0.56,0-0.97,0.25-1.24,0.74l0.01,0.12V497h-2.82v-5.69c0-0.47-0.08-0.82-0.23-1.03
		c-0.15-0.21-0.44-0.32-0.86-0.32c-0.54,0-0.95,0.25-1.24,0.74V497h-2.81v-9.04H218.07z"/>
	<path class="st0" d="M229.79,492.4c0-0.9,0.17-1.71,0.53-2.41c0.35-0.7,0.85-1.25,1.51-1.62c0.66-0.38,1.43-0.57,2.31-0.57
		c1.35,0,2.42,0.42,3.2,1.26s1.17,1.98,1.17,3.42v0.1c0,1.41-0.39,2.53-1.17,3.35c-0.78,0.83-1.84,1.24-3.18,1.24
		c-1.29,0-2.32-0.39-3.1-1.16c-0.78-0.77-1.2-1.82-1.26-3.14L229.79,492.4z M232.6,492.57c0,0.83,0.13,1.45,0.39,1.84
		s0.65,0.58,1.16,0.58c1,0,1.51-0.77,1.54-2.31v-0.28c0-1.62-0.52-2.43-1.55-2.43c-0.94,0-1.45,0.7-1.53,2.1L232.6,492.57z"/>
	<path class="st0" d="M242.33,487.96l0.09,1.06c0.62-0.82,1.48-1.23,2.58-1.23c0.94,0,1.64,0.28,2.11,0.84
		c0.46,0.56,0.71,1.41,0.72,2.54V497h-2.82v-5.7c0-0.46-0.09-0.79-0.28-1.01c-0.18-0.21-0.52-0.32-1-0.32
		c-0.55,0-0.96,0.22-1.23,0.65V497h-2.81v-9.04H242.33z"/>
	<path class="st0" d="M252.67,485.72v2.25h1.49v1.95h-1.49v4.13c0,0.34,0.06,0.58,0.18,0.71c0.12,0.13,0.36,0.2,0.73,0.2
		c0.28,0,0.51-0.02,0.7-0.05v2.01c-0.51,0.16-1.04,0.24-1.59,0.24c-0.97,0-1.68-0.23-2.15-0.68c-0.46-0.46-0.69-1.15-0.69-2.08
		v-4.48h-1.15v-1.95h1.15v-2.25H252.67z"/>
	<path class="st0" d="M258.02,488.93c0.6-0.76,1.37-1.14,2.3-1.14c1,0,1.75,0.29,2.25,0.89c0.51,0.59,0.77,1.46,0.78,2.61v5.7h-2.82
		v-5.64c0-0.48-0.1-0.83-0.29-1.06c-0.2-0.23-0.53-0.34-0.99-0.34c-0.58,0-0.99,0.18-1.23,0.55V497h-2.81v-12.83h2.81V488.93z"/>
</g>
</svg>
