<?xml version="1.0" encoding="utf-8"?>
<!-- Generator: Adobe Illustrator 25.0.1, SVG Export Plug-In . SVG Version: 6.00 Build 0)  -->
<svg version="1.1" id="Layer_1" xmlns="http://www.w3.org/2000/svg" xmlns:xlink="http://www.w3.org/1999/xlink" x="0px" y="0px"
	 viewBox="0 0 728 90" style="enable-background:new 0 0 728 90;" xml:space="preserve">
<style type="text/css">
	.st0{fill:#021D8B;}
</style>
<g>
	<path class="st0" d="M185.09,27.48l-1.05,1.16v2.81h-2.57V20.78h2.57v4.7l0.89-1.35l2.3-3.35h3.18l-3.6,4.72l3.6,5.95h-3.05
		L185.09,27.48z"/>
	<path class="st0" d="M194.78,31.59c-1.22,0-2.2-0.36-2.95-1.09c-0.75-0.72-1.13-1.67-1.13-2.83v-0.21c0-0.81,0.15-1.53,0.45-2.15
		c0.3-0.62,0.74-1.1,1.31-1.44c0.58-0.34,1.26-0.51,2.05-0.51c1.11,0,1.99,0.35,2.64,1.04c0.64,0.69,0.97,1.65,0.97,2.89v0.96h-4.91
		c0.09,0.44,0.28,0.79,0.58,1.05s0.68,0.38,1.16,0.38c0.78,0,1.39-0.27,1.83-0.82l1.13,1.33c-0.31,0.42-0.74,0.76-1.31,1.01
		C196.04,31.47,195.43,31.59,194.78,31.59z M194.5,25.28c-0.72,0-1.15,0.48-1.29,1.44h2.49v-0.19c0.01-0.4-0.09-0.7-0.3-0.92
		S194.89,25.28,194.5,25.28z"/>
	<path class="st0" d="M202.95,31.59c-1.22,0-2.2-0.36-2.95-1.09c-0.75-0.72-1.13-1.67-1.13-2.83v-0.21c0-0.81,0.15-1.53,0.45-2.15
		c0.3-0.62,0.74-1.1,1.31-1.44c0.58-0.34,1.26-0.51,2.05-0.51c1.11,0,1.99,0.35,2.64,1.04c0.64,0.69,0.97,1.65,0.97,2.89v0.96h-4.91
		c0.09,0.44,0.28,0.79,0.58,1.05s0.68,0.38,1.16,0.38c0.78,0,1.39-0.27,1.83-0.82l1.13,1.33c-0.31,0.42-0.74,0.76-1.31,1.01
		C204.2,31.47,203.6,31.59,202.95,31.59z M202.67,25.28c-0.72,0-1.15,0.48-1.29,1.44h2.49v-0.19c0.01-0.4-0.09-0.7-0.3-0.92
		S203.06,25.28,202.67,25.28z"/>
	<path class="st0" d="M214.64,27.54c0,1.23-0.28,2.21-0.83,2.95c-0.55,0.74-1.3,1.1-2.25,1.1c-0.73,0-1.33-0.27-1.79-0.8v3.7h-2.47
		V23.52h2.31l0.07,0.73c0.47-0.59,1.1-0.88,1.87-0.88c0.98,0,1.74,0.36,2.28,1.08c0.54,0.72,0.81,1.71,0.81,2.97V27.54z
		 M212.17,27.39c0-1.41-0.41-2.11-1.23-2.11c-0.59,0-0.98,0.21-1.17,0.63v3.12c0.21,0.44,0.61,0.66,1.19,0.66
		c0.79,0,1.19-0.68,1.22-2.04V27.39z"/>
	<path class="st0" d="M223.92,31.44c-0.09-0.16-0.17-0.4-0.23-0.71c-0.45,0.57-1.09,0.86-1.9,0.86c-0.75,0-1.38-0.23-1.9-0.68
		c-0.52-0.45-0.78-1.02-0.78-1.7c0-0.86,0.32-1.51,0.95-1.95s1.56-0.66,2.77-0.66h0.76v-0.42c0-0.73-0.32-1.1-0.95-1.1
		c-0.59,0-0.88,0.29-0.88,0.87h-2.47c0-0.77,0.33-1.39,0.98-1.87c0.65-0.48,1.48-0.72,2.49-0.72c1.01,0,1.81,0.25,2.39,0.74
		s0.89,1.17,0.9,2.03v3.51c0.01,0.73,0.12,1.28,0.34,1.67v0.12H223.92z M222.38,29.83c0.31,0,0.56-0.07,0.76-0.2
		c0.2-0.13,0.35-0.28,0.44-0.45v-1.27h-0.72c-0.86,0-1.29,0.39-1.29,1.16c0,0.22,0.08,0.41,0.23,0.55
		C221.95,29.76,222.15,29.83,222.38,29.83z"/>
	<path class="st0" d="M229.69,23.52l0.08,0.93c0.55-0.72,1.3-1.08,2.26-1.08c0.83,0,1.44,0.25,1.85,0.74
		c0.41,0.49,0.62,1.24,0.63,2.23v5.1h-2.47v-5c0-0.4-0.08-0.69-0.24-0.88s-0.45-0.28-0.88-0.28c-0.48,0-0.84,0.19-1.08,0.57v5.6
		h-2.47v-7.92H229.69z"/>
	<path class="st0" d="M243.45,31.59c-1.22,0-2.2-0.36-2.95-1.09c-0.75-0.72-1.13-1.67-1.13-2.83v-0.21c0-0.81,0.15-1.53,0.45-2.15
		c0.3-0.62,0.74-1.1,1.31-1.44c0.58-0.34,1.26-0.51,2.05-0.51c1.11,0,1.99,0.35,2.64,1.04c0.64,0.69,0.97,1.65,0.97,2.89v0.96h-4.91
		c0.09,0.44,0.28,0.79,0.58,1.05s0.68,0.38,1.16,0.38c0.78,0,1.39-0.27,1.83-0.82l1.13,1.33c-0.31,0.42-0.74,0.76-1.31,1.01
		C244.71,31.47,244.1,31.59,243.45,31.59z M243.17,25.28c-0.72,0-1.15,0.48-1.29,1.44h2.49v-0.19c0.01-0.4-0.09-0.7-0.3-0.92
		S243.56,25.28,243.17,25.28z"/>
	<path class="st0" d="M250.95,27.99l1.32-4.47h2.64l-3.23,9.25l-0.14,0.34c-0.46,1.03-1.27,1.54-2.43,1.54
		c-0.32,0-0.66-0.05-1.02-0.15v-1.76h0.32c0.35,0,0.61-0.05,0.79-0.15c0.18-0.1,0.32-0.28,0.41-0.54l0.2-0.53l-2.75-8h2.64
		L250.95,27.99z"/>
	<path class="st0" d="M259.39,31.59c-1.22,0-2.2-0.36-2.95-1.09c-0.75-0.72-1.13-1.67-1.13-2.83v-0.21c0-0.81,0.15-1.53,0.45-2.15
		c0.3-0.62,0.74-1.1,1.31-1.44c0.58-0.34,1.26-0.51,2.05-0.51c1.11,0,1.99,0.35,2.64,1.04c0.64,0.69,0.97,1.65,0.97,2.89v0.96h-4.91
		c0.09,0.44,0.28,0.79,0.58,1.05s0.68,0.38,1.16,0.38c0.78,0,1.39-0.27,1.83-0.82l1.13,1.33c-0.31,0.42-0.74,0.76-1.31,1.01
		C260.64,31.47,260.04,31.59,259.39,31.59z M259.11,25.28c-0.72,0-1.15,0.48-1.29,1.44h2.49v-0.19c0.01-0.4-0.09-0.7-0.3-0.92
		S259.5,25.28,259.11,25.28z"/>
	<path class="st0" d="M267.15,27.41c0-0.79,0.15-1.5,0.46-2.11c0.31-0.62,0.75-1.09,1.33-1.42s1.25-0.5,2.03-0.5
		c1.19,0,2.12,0.37,2.8,1.1s1.03,1.73,1.03,3v0.09c0,1.24-0.34,2.22-1.03,2.94c-0.69,0.73-1.62,1.09-2.79,1.09
		c-1.13,0-2.03-0.34-2.72-1.01c-0.68-0.68-1.05-1.59-1.11-2.75L267.15,27.41z M269.61,27.56c0,0.73,0.11,1.27,0.34,1.61
		s0.57,0.51,1.02,0.51c0.88,0,1.33-0.68,1.35-2.03v-0.25c0-1.42-0.45-2.13-1.36-2.13c-0.83,0-1.27,0.61-1.34,1.84L269.61,27.56z"/>
	<path class="st0" d="M278.15,23.52l0.08,0.93c0.55-0.72,1.3-1.08,2.26-1.08c0.83,0,1.44,0.25,1.85,0.74
		c0.41,0.49,0.62,1.24,0.63,2.23v5.1h-2.47v-5c0-0.4-0.08-0.69-0.24-0.88s-0.45-0.28-0.88-0.28c-0.48,0-0.84,0.19-1.08,0.57v5.6
		h-2.47v-7.92H278.15z"/>
	<path class="st0" d="M291.24,27.99l1.32-4.47h2.64l-3.23,9.25l-0.14,0.34c-0.46,1.03-1.27,1.54-2.43,1.54
		c-0.32,0-0.66-0.05-1.02-0.15v-1.76h0.32c0.35,0,0.61-0.05,0.79-0.15c0.18-0.1,0.32-0.28,0.41-0.54l0.2-0.53l-2.75-8h2.64
		L291.24,27.99z"/>
	<path class="st0" d="M295.53,27.41c0-0.79,0.15-1.5,0.46-2.11c0.31-0.62,0.75-1.09,1.33-1.42s1.25-0.5,2.03-0.5
		c1.19,0,2.12,0.37,2.8,1.1s1.03,1.73,1.03,3v0.09c0,1.24-0.34,2.22-1.03,2.94c-0.69,0.73-1.62,1.09-2.79,1.09
		c-1.13,0-2.03-0.34-2.72-1.01c-0.68-0.68-1.05-1.59-1.11-2.75L295.53,27.41z M298,27.56c0,0.73,0.11,1.27,0.34,1.61
		s0.57,0.51,1.02,0.51c0.88,0,1.33-0.68,1.35-2.03v-0.25c0-1.42-0.45-2.13-1.36-2.13c-0.83,0-1.27,0.61-1.34,1.84L298,27.56z"/>
	<path class="st0" d="M308.99,30.59c-0.52,0.67-1.23,1-2.12,1c-0.87,0-1.53-0.25-1.97-0.76c-0.45-0.51-0.67-1.23-0.67-2.18v-5.13
		h2.47v5.15c0,0.68,0.33,1.02,0.99,1.02c0.57,0,0.97-0.2,1.21-0.61v-5.56h2.48v7.92h-2.31L308.99,30.59z"/>
	<path class="st0" d="M317.52,25.75l-0.81-0.06c-0.78,0-1.27,0.24-1.49,0.73v5.02h-2.47v-7.92h2.31l0.08,1.02
		c0.42-0.78,0.99-1.16,1.74-1.16c0.26,0,0.49,0.03,0.69,0.09L317.52,25.75z"/>
	<path class="st0" d="M322.13,21.48c0-0.35,0.13-0.64,0.38-0.86s0.58-0.34,0.99-0.34s0.74,0.11,0.99,0.34s0.38,0.51,0.38,0.86
		s-0.13,0.64-0.38,0.86s-0.58,0.34-0.99,0.34s-0.73-0.11-0.99-0.34S322.13,21.83,322.13,21.48z M324.75,31.44h-2.48v-7.92h2.48
		V31.44z"/>
	<path class="st0" d="M325.96,27.42c0-1.25,0.27-2.24,0.81-2.97c0.54-0.72,1.3-1.08,2.27-1.08c0.71,0,1.3,0.28,1.79,0.83v-4.01h2.47
		v11.25h-2.22l-0.12-0.85c-0.51,0.66-1.15,1-1.93,1c-0.94,0-1.69-0.36-2.24-1.08C326.23,29.78,325.96,28.76,325.96,27.42z
		 M328.43,27.58c0,1.41,0.41,2.11,1.23,2.11c0.55,0,0.94-0.23,1.17-0.69v-3.02c-0.23-0.47-0.61-0.7-1.16-0.7
		c-0.76,0-1.17,0.62-1.24,1.85L328.43,27.58z"/>
	<path class="st0" d="M338.54,31.59c-1.22,0-2.2-0.36-2.95-1.09c-0.75-0.72-1.13-1.67-1.13-2.83v-0.21c0-0.81,0.15-1.53,0.45-2.15
		c0.3-0.62,0.74-1.1,1.31-1.44c0.58-0.34,1.26-0.51,2.05-0.51c1.11,0,1.99,0.35,2.64,1.04c0.64,0.69,0.97,1.65,0.97,2.89v0.96h-4.91
		c0.09,0.44,0.28,0.79,0.58,1.05s0.68,0.38,1.16,0.38c0.78,0,1.39-0.27,1.83-0.82l1.13,1.33c-0.31,0.42-0.74,0.76-1.31,1.01
		C339.8,31.47,339.19,31.59,338.54,31.59z M338.26,25.28c-0.72,0-1.15,0.48-1.29,1.44h2.49v-0.19c0.01-0.4-0.09-0.7-0.3-0.92
		S338.65,25.28,338.26,25.28z"/>
	<path class="st0" d="M345.14,23.52l0.08,0.93c0.55-0.72,1.3-1.08,2.26-1.08c0.83,0,1.44,0.25,1.85,0.74
		c0.41,0.49,0.62,1.24,0.63,2.23v5.1h-2.47v-5c0-0.4-0.08-0.69-0.24-0.88s-0.45-0.28-0.88-0.28c-0.48,0-0.84,0.19-1.08,0.57v5.6
		h-2.47v-7.92H345.14z"/>
	<path class="st0" d="M354.21,21.55v1.97h1.3v1.71h-1.3v3.63c0,0.3,0.05,0.51,0.16,0.62c0.11,0.12,0.32,0.18,0.64,0.18
		c0.24,0,0.45-0.01,0.62-0.04v1.77c-0.44,0.14-0.91,0.21-1.39,0.21c-0.85,0-1.48-0.2-1.88-0.6c-0.41-0.4-0.61-1.01-0.61-1.82v-3.93
		h-1.01v-1.71h1.01v-1.97H354.21z"/>
	<path class="st0" d="M356.46,21.48c0-0.35,0.13-0.64,0.38-0.86s0.58-0.34,0.99-0.34s0.74,0.11,0.99,0.34s0.38,0.51,0.38,0.86
		s-0.13,0.64-0.38,0.86s-0.58,0.34-0.99,0.34s-0.73-0.11-0.99-0.34S356.46,21.83,356.46,21.48z M359.09,31.44h-2.48v-7.92h2.48
		V31.44z"/>
	<path class="st0" d="M363.48,21.55v1.97h1.3v1.71h-1.3v3.63c0,0.3,0.05,0.51,0.16,0.62c0.11,0.12,0.32,0.18,0.64,0.18
		c0.24,0,0.45-0.01,0.62-0.04v1.77c-0.44,0.14-0.91,0.21-1.39,0.21c-0.85,0-1.48-0.2-1.88-0.6c-0.41-0.4-0.61-1.01-0.61-1.82v-3.93
		H360v-1.71h1.01v-1.97H363.48z"/>
	<path class="st0" d="M368.92,27.99l1.32-4.47h2.64l-3.23,9.25l-0.14,0.34c-0.46,1.03-1.27,1.54-2.43,1.54
		c-0.32,0-0.66-0.05-1.02-0.15v-1.76h0.32c0.35,0,0.61-0.05,0.79-0.15c0.18-0.1,0.32-0.28,0.41-0.54l0.2-0.53l-2.75-8h2.64
		L368.92,27.99z"/>
	<path class="st0" d="M188.2,46.19l0.8-4.67h2.37l-1.87,7.93h-2.09l-1.31-4.7l-1.32,4.7h-2.09l-1.87-7.93h2.37l0.78,4.78l1.26-4.78
		h1.72L188.2,46.19z"/>
	<path class="st0" d="M192.23,39.48c0-0.35,0.13-0.64,0.38-0.86s0.58-0.34,0.99-0.34s0.74,0.11,0.99,0.34s0.38,0.51,0.38,0.86
		s-0.13,0.64-0.38,0.86s-0.58,0.34-0.99,0.34s-0.73-0.11-0.99-0.34S192.23,39.83,192.23,39.48z M194.85,49.45h-2.48v-7.93h2.48
		V49.45z"/>
	<path class="st0" d="M199.24,39.55v1.97h1.3v1.71h-1.3v3.63c0,0.3,0.05,0.51,0.16,0.62c0.11,0.12,0.32,0.18,0.64,0.18
		c0.24,0,0.45-0.01,0.62-0.04v1.76c-0.44,0.14-0.91,0.21-1.39,0.21c-0.85,0-1.48-0.2-1.88-0.6c-0.41-0.4-0.61-1.01-0.61-1.82v-3.93
		h-1.01v-1.71h1.01v-1.97H199.24z"/>
	<path class="st0" d="M203.93,42.37c0.53-0.66,1.2-1,2.02-1c0.87,0,1.53,0.26,1.98,0.78s0.67,1.28,0.68,2.29v5h-2.47V44.5
		c0-0.42-0.09-0.73-0.26-0.93c-0.17-0.2-0.46-0.3-0.87-0.3c-0.51,0-0.87,0.16-1.08,0.48v5.68h-2.47V38.19h2.47V42.37z"/>
	<path class="st0" d="M216.4,45.83v3.62h-2.57V38.78h4.25c0.82,0,1.54,0.15,2.17,0.45c0.63,0.3,1.11,0.73,1.46,1.28
		c0.34,0.55,0.52,1.18,0.52,1.89c0,1.04-0.37,1.87-1.12,2.49c-0.74,0.62-1.77,0.93-3.06,0.93H216.4z M216.4,43.84h1.68
		c0.5,0,0.88-0.12,1.14-0.37c0.26-0.25,0.39-0.6,0.39-1.05c0-0.5-0.13-0.9-0.4-1.19c-0.27-0.3-0.64-0.45-1.1-0.45h-1.71V43.84z"/>
	<path class="st0" d="M228.28,43.75l-0.81-0.06c-0.78,0-1.27,0.24-1.49,0.73v5.02h-2.47v-7.93h2.31l0.08,1.02
		c0.42-0.78,0.99-1.16,1.74-1.16c0.26,0,0.49,0.03,0.69,0.09L228.28,43.75z"/>
	<path class="st0" d="M229.15,39.48c0-0.35,0.13-0.64,0.38-0.86s0.58-0.34,0.99-0.34s0.74,0.11,0.99,0.34s0.38,0.51,0.38,0.86
		s-0.13,0.64-0.38,0.86s-0.58,0.34-0.99,0.34s-0.73-0.11-0.99-0.34S229.15,39.83,229.15,39.48z M231.77,49.45h-2.48v-7.93h2.48
		V49.45z"/>
	<path class="st0" d="M236.45,46.51l1.25-4.99h2.6l-2.59,7.93h-2.52l-2.58-7.93h2.61L236.45,46.51z"/>
	<path class="st0" d="M245.39,49.45c-0.09-0.16-0.17-0.4-0.23-0.71c-0.45,0.57-1.09,0.86-1.9,0.86c-0.75,0-1.38-0.23-1.9-0.68
		c-0.52-0.45-0.78-1.02-0.78-1.7c0-0.86,0.32-1.51,0.95-1.95s1.56-0.66,2.77-0.66h0.76v-0.42c0-0.73-0.32-1.1-0.95-1.1
		c-0.59,0-0.88,0.29-0.88,0.87h-2.47c0-0.77,0.33-1.39,0.98-1.87c0.65-0.48,1.48-0.72,2.49-0.72c1.01,0,1.81,0.25,2.39,0.74
		s0.89,1.17,0.9,2.03v3.51c0.01,0.73,0.12,1.28,0.34,1.67v0.12H245.39z M243.85,47.83c0.31,0,0.56-0.07,0.76-0.2
		c0.2-0.13,0.35-0.28,0.44-0.45v-1.27h-0.72c-0.86,0-1.29,0.39-1.29,1.16c0,0.22,0.08,0.41,0.23,0.55
		C243.42,47.76,243.61,47.83,243.85,47.83z"/>
	<path class="st0" d="M252.24,47.69c0.35,0,0.62-0.09,0.81-0.28c0.19-0.19,0.28-0.45,0.28-0.79h2.31c0,0.87-0.31,1.58-0.93,2.14
		c-0.62,0.56-1.42,0.83-2.41,0.83c-1.15,0-2.06-0.36-2.72-1.08s-1-1.72-1-3v-0.1c0-0.8,0.15-1.51,0.44-2.12
		c0.29-0.61,0.72-1.08,1.28-1.41c0.56-0.33,1.22-0.49,1.98-0.49c1.03,0,1.85,0.29,2.45,0.86s0.91,1.35,0.91,2.32h-2.31
		c0-0.41-0.1-0.73-0.3-0.94s-0.47-0.33-0.8-0.33c-0.64,0-1.01,0.41-1.12,1.22c-0.03,0.26-0.05,0.62-0.05,1.07
		c0,0.8,0.09,1.35,0.29,1.66S251.83,47.69,252.24,47.69z"/>
	<path class="st0" d="M259.85,45.99l1.32-4.47h2.64l-3.23,9.25l-0.14,0.34c-0.46,1.03-1.27,1.54-2.43,1.54
		c-0.32,0-0.66-0.05-1.02-0.15v-1.76h0.32c0.35,0,0.61-0.05,0.79-0.15c0.18-0.1,0.32-0.28,0.41-0.54l0.2-0.53l-2.75-8h2.64
		L259.85,45.99z"/>
	<path class="st0" d="M273.3,48.13c-0.4,0.44-0.97,0.79-1.74,1.06s-1.6,0.4-2.51,0.4c-1.4,0-2.51-0.43-3.35-1.28
		s-1.28-2.04-1.34-3.57l-0.01-0.92c0-1.05,0.19-1.97,0.56-2.75c0.37-0.78,0.9-1.39,1.59-1.81c0.69-0.42,1.49-0.63,2.4-0.63
		c1.33,0,2.36,0.3,3.09,0.91c0.74,0.61,1.16,1.52,1.29,2.72h-2.48c-0.09-0.6-0.28-1.02-0.57-1.27s-0.71-0.38-1.25-0.38
		c-0.64,0-1.14,0.27-1.49,0.82s-0.53,1.33-0.53,2.34v0.64c0,1.06,0.18,1.86,0.55,2.4c0.36,0.53,0.94,0.8,1.72,0.8
		c0.67,0,1.17-0.15,1.49-0.45v-1.66h-1.79v-1.77h4.36V48.13z"/>
	<path class="st0" d="M279.4,48.59c-0.52,0.67-1.23,1-2.12,1c-0.87,0-1.53-0.25-1.97-0.76c-0.45-0.51-0.67-1.23-0.67-2.18v-5.13
		h2.47v5.15c0,0.68,0.33,1.02,0.99,1.02c0.57,0,0.97-0.2,1.21-0.61v-5.56h2.48v7.93h-2.31L279.4,48.59z"/>
	<path class="st0" d="M287.6,49.45c-0.09-0.16-0.17-0.4-0.23-0.71c-0.45,0.57-1.09,0.86-1.9,0.86c-0.75,0-1.38-0.23-1.9-0.68
		c-0.52-0.45-0.78-1.02-0.78-1.7c0-0.86,0.32-1.51,0.95-1.95s1.56-0.66,2.77-0.66h0.76v-0.42c0-0.73-0.32-1.1-0.95-1.1
		c-0.59,0-0.88,0.29-0.88,0.87h-2.47c0-0.77,0.33-1.39,0.98-1.87c0.65-0.48,1.48-0.72,2.49-0.72c1.01,0,1.81,0.25,2.39,0.74
		s0.89,1.17,0.9,2.03v3.51c0.01,0.73,0.12,1.28,0.34,1.67v0.12H287.6z M286.06,47.83c0.31,0,0.56-0.07,0.76-0.2
		c0.2-0.13,0.35-0.28,0.44-0.45v-1.27h-0.72c-0.86,0-1.29,0.39-1.29,1.16c0,0.22,0.08,0.41,0.23,0.55
		C285.63,47.76,285.82,47.83,286.06,47.83z"/>
	<path class="st0" d="M295.89,43.75l-0.81-0.06c-0.78,0-1.27,0.24-1.49,0.73v5.02h-2.47v-7.93h2.31l0.08,1.02
		c0.42-0.78,0.99-1.16,1.74-1.16c0.26,0,0.49,0.03,0.69,0.09L295.89,43.75z"/>
	<path class="st0" d="M296.47,45.42c0-1.25,0.27-2.24,0.81-2.97c0.54-0.72,1.3-1.08,2.27-1.08c0.71,0,1.3,0.28,1.79,0.83v-4.01h2.47
		v11.25h-2.22l-0.12-0.85c-0.51,0.66-1.15,1-1.93,1c-0.94,0-1.69-0.36-2.24-1.08C296.75,47.79,296.47,46.76,296.47,45.42z
		 M298.94,45.58c0,1.41,0.41,2.11,1.23,2.11c0.55,0,0.94-0.23,1.17-0.69v-3.02c-0.23-0.47-0.61-0.7-1.16-0.7
		c-0.76,0-1.17,0.62-1.24,1.85L298.94,45.58z"/>
	<path class="st0" d="M311.83,39.55v1.97h1.3v1.71h-1.3v3.63c0,0.3,0.05,0.51,0.16,0.62c0.11,0.12,0.32,0.18,0.64,0.18
		c0.24,0,0.45-0.01,0.62-0.04v1.76c-0.44,0.14-0.91,0.21-1.39,0.21c-0.85,0-1.48-0.2-1.88-0.6c-0.41-0.4-0.61-1.01-0.61-1.82v-3.93
		h-1.01v-1.71h1.01v-1.97H311.83z"/>
	<path class="st0" d="M313.57,45.41c0-0.79,0.15-1.5,0.46-2.11c0.31-0.62,0.75-1.09,1.33-1.42s1.25-0.5,2.03-0.5
		c1.19,0,2.12,0.37,2.8,1.1s1.03,1.73,1.03,3v0.09c0,1.24-0.34,2.22-1.03,2.94c-0.69,0.73-1.62,1.09-2.79,1.09
		c-1.13,0-2.03-0.34-2.72-1.01c-0.68-0.68-1.05-1.59-1.11-2.75L313.57,45.41z M316.04,45.56c0,0.73,0.11,1.27,0.34,1.61
		s0.57,0.51,1.02,0.51c0.88,0,1.33-0.68,1.35-2.03v-0.25c0-1.42-0.45-2.13-1.36-2.13c-0.83,0-1.27,0.61-1.34,1.84L316.04,45.56z"/>
	<path class="st0" d="M322,45.42c0-1.25,0.27-2.24,0.81-2.97c0.54-0.72,1.3-1.08,2.27-1.08c0.71,0,1.3,0.28,1.79,0.83v-4.01h2.47
		v11.25h-2.22L327,48.6c-0.51,0.66-1.15,1-1.93,1c-0.94,0-1.69-0.36-2.24-1.08C322.27,47.79,322,46.76,322,45.42z M324.47,45.58
		c0,1.41,0.41,2.11,1.23,2.11c0.55,0,0.94-0.23,1.17-0.69v-3.02c-0.23-0.47-0.61-0.7-1.16-0.7c-0.76,0-1.17,0.62-1.24,1.85
		L324.47,45.58z"/>
	<path class="st0" d="M335.21,49.45c-0.09-0.16-0.17-0.4-0.23-0.71c-0.45,0.57-1.09,0.86-1.9,0.86c-0.75,0-1.38-0.23-1.9-0.68
		c-0.52-0.45-0.78-1.02-0.78-1.7c0-0.86,0.32-1.51,0.95-1.95s1.56-0.66,2.77-0.66h0.76v-0.42c0-0.73-0.32-1.1-0.95-1.1
		c-0.59,0-0.88,0.29-0.88,0.87h-2.47c0-0.77,0.33-1.39,0.98-1.87c0.65-0.48,1.48-0.72,2.49-0.72c1.01,0,1.81,0.25,2.39,0.74
		s0.89,1.17,0.9,2.03v3.51c0.01,0.73,0.12,1.28,0.34,1.67v0.12H335.21z M333.66,47.83c0.31,0,0.56-0.07,0.76-0.2
		c0.2-0.13,0.35-0.28,0.44-0.45v-1.27h-0.72c-0.86,0-1.29,0.39-1.29,1.16c0,0.22,0.08,0.41,0.23,0.55
		C333.24,47.76,333.43,47.83,333.66,47.83z"/>
	<path class="st0" d="M341.87,45.99l1.32-4.47h2.64l-3.23,9.25l-0.14,0.34c-0.46,1.03-1.27,1.54-2.43,1.54
		c-0.32,0-0.66-0.05-1.02-0.15v-1.76h0.32c0.35,0,0.61-0.05,0.79-0.15c0.18-0.1,0.32-0.28,0.41-0.54l0.2-0.53l-2.75-8h2.64
		L341.87,45.99z"/>
	<path class="st0" d="M348,47.05c0.39,0,0.72,0.12,0.97,0.35c0.26,0.23,0.39,0.53,0.39,0.89s-0.13,0.66-0.39,0.89
		c-0.26,0.23-0.58,0.35-0.97,0.35c-0.39,0-0.72-0.12-0.98-0.35c-0.26-0.23-0.38-0.53-0.38-0.89s0.13-0.65,0.38-0.89
		C347.28,47.17,347.61,47.05,348,47.05z"/>
</g>
</svg>
