<?xml version="1.0" encoding="utf-8"?>
<!-- Generator: Adobe Illustrator 25.0.1, SVG Export Plug-In . SVG Version: 6.00 Build 0)  -->
<svg version="1.1" id="Layer_1" xmlns="http://www.w3.org/2000/svg" xmlns:xlink="http://www.w3.org/1999/xlink" x="0px" y="0px"
	 viewBox="0 0 728 90" style="enable-background:new 0 0 728 90;" xml:space="preserve">
<style type="text/css">
	.st0{fill:#021D8B;stroke:url(#SVGID_1_);stroke-width:2;stroke-miterlimit:10;}
	.st1{fill:#FFFFFF;}
</style>
<linearGradient id="SVGID_1_" gradientUnits="userSpaceOnUse" x1="471" y1="44.8858" x2="572" y2="44.8858">
	<stop  offset="0" style="stop-color:#18B9FB"/>
	<stop  offset="0.5" style="stop-color:#782EEB"/>
	<stop  offset="1" style="stop-color:#E82D8A"/>
</linearGradient>
<path class="st0" d="M554.36,61.52h-65.73c-9.19,0-16.64-7.45-16.64-16.64v0c0-9.19,7.45-16.64,16.64-16.64h65.73
	c9.19,0,16.64,7.45,16.64,16.64v0C571,54.07,563.55,61.52,554.36,61.52z"/>
<g>
	<path class="st1" d="M488.05,47.3h3.75v1.42h-5.52v-8.57h1.77V47.3z"/>
	<path class="st1" d="M497.97,45h-3.39v2.3h3.98v1.42h-5.75v-8.57h5.73v1.43h-3.97v2.04h3.39V45z"/>
	<path class="st1" d="M504.43,46.95h-3.1l-0.59,1.77h-1.88l3.19-8.57h1.64l3.21,8.57h-1.88L504.43,46.95z M501.81,45.52h2.14
		l-1.08-3.21L501.81,45.52z"/>
	<path class="st1" d="M510.88,45.58h-1.41v3.14h-1.77v-8.57h3.18c1.01,0,1.79,0.23,2.34,0.68c0.55,0.45,0.82,1.09,0.82,1.91
		c0,0.58-0.13,1.07-0.38,1.46c-0.25,0.39-0.64,0.7-1.15,0.93l1.85,3.5v0.08h-1.9L510.88,45.58z M509.47,44.15h1.42
		c0.44,0,0.79-0.11,1.03-0.34c0.24-0.23,0.37-0.54,0.37-0.93c0-0.4-0.11-0.72-0.34-0.95c-0.23-0.23-0.58-0.35-1.06-0.35h-1.42V44.15
		z"/>
	<path class="st1" d="M522.37,48.71h-1.77l-3.44-5.64v5.64h-1.77v-8.57h1.77l3.44,5.65v-5.65h1.76V48.71z"/>
	<path class="st1" d="M529.22,40.14l2.2,6.22l2.19-6.22h2.32v8.57h-1.77v-2.34l0.18-4.04l-2.31,6.39h-1.21l-2.31-6.38l0.18,4.04
		v2.34h-1.77v-8.57H529.22z"/>
	<path class="st1" d="M544.51,44.62c0,0.84-0.15,1.58-0.45,2.22c-0.3,0.64-0.73,1.13-1.28,1.47c-0.56,0.35-1.19,0.52-1.91,0.52
		c-0.71,0-1.34-0.17-1.9-0.51c-0.56-0.34-0.99-0.83-1.29-1.46c-0.31-0.63-0.46-1.36-0.47-2.19v-0.42c0-0.84,0.15-1.59,0.46-2.23
		c0.3-0.64,0.73-1.13,1.29-1.48c0.55-0.34,1.19-0.52,1.9-0.52c0.71,0,1.35,0.17,1.9,0.52c0.55,0.34,0.98,0.84,1.29,1.48
		c0.3,0.64,0.46,1.38,0.46,2.22V44.62z M542.72,44.24c0-0.9-0.16-1.58-0.48-2.05c-0.32-0.47-0.78-0.7-1.38-0.7
		c-0.59,0-1.05,0.23-1.37,0.69c-0.32,0.46-0.48,1.14-0.49,2.03v0.42c0,0.88,0.16,1.55,0.48,2.04c0.32,0.48,0.79,0.72,1.39,0.72
		c0.59,0,1.05-0.23,1.37-0.7c0.32-0.46,0.48-1.14,0.48-2.03V44.24z"/>
	<path class="st1" d="M548.97,45.58h-1.41v3.14h-1.77v-8.57h3.18c1.01,0,1.79,0.23,2.34,0.68c0.55,0.45,0.82,1.09,0.82,1.91
		c0,0.58-0.13,1.07-0.38,1.46c-0.25,0.39-0.64,0.7-1.15,0.93l1.85,3.5v0.08h-1.9L548.97,45.58z M547.56,44.15h1.42
		c0.44,0,0.79-0.11,1.03-0.34c0.24-0.23,0.37-0.54,0.37-0.93c0-0.4-0.11-0.72-0.34-0.95c-0.23-0.23-0.58-0.35-1.06-0.35h-1.42V44.15
		z"/>
	<path class="st1" d="M558.64,45h-3.39v2.3h3.98v1.42h-5.75v-8.57h5.73v1.43h-3.97v2.04h3.39V45z"/>
</g>
</svg>
