<svg id="Layer_1" xmlns="http://www.w3.org/2000/svg" viewBox="0 0 160 600"><style>.st0{fill:#021d8b}</style><path class="st0" d="M50.59 283.67v-12.64h4.07c1.12 0 2.12.25 3.01.76s1.59 1.22 2.09 2.14.75 1.96.76 3.1v.58c0 1.16-.24 2.2-.73 3.11-.49.92-1.18 1.63-2.07 2.15s-1.88.78-2.97.79h-4.16zm3.05-10.29v7.94h1.06c.87 0 1.54-.31 2.01-.93.47-.62.7-1.55.7-2.77v-.55c0-1.22-.23-2.14-.7-2.76-.47-.62-1.15-.93-2.05-.93h-1.02zM61.93 271.85c0-.42.15-.76.45-1.02.3-.27.69-.4 1.17-.4s.87.13 1.17.4c.3.27.45.61.45 1.02 0 .42-.15.76-.45 1.02-.3.27-.69.4-1.17.4s-.87-.13-1.17-.4c-.3-.26-.45-.6-.45-1.02zm3.1 11.82H62.1v-9.39h2.93v9.39zM66.46 278.9c0-1.49.32-2.66.96-3.52.64-.86 1.54-1.28 2.69-1.28.84 0 1.54.33 2.12.99v-4.76h2.93v13.33h-2.63l-.15-1.01c-.6.79-1.37 1.18-2.29 1.18-1.12 0-2-.43-2.66-1.29-.64-.84-.97-2.06-.97-3.64zm2.93.18c0 1.67.49 2.5 1.46 2.5.65 0 1.11-.27 1.39-.82v-3.58c-.27-.56-.72-.83-1.37-.83-.9 0-1.39.73-1.47 2.19l-.01.54zM85.01 279.57l1.56-5.29h3.13l-3.83 10.96-.17.4c-.54 1.22-1.5 1.82-2.88 1.82-.38 0-.78-.06-1.21-.17v-2.08h.38c.41 0 .72-.06.94-.18.22-.12.38-.33.48-.64l.23-.62-3.26-9.49h3.12l1.51 5.29zM90.1 278.88c0-.94.18-1.77.55-2.5.37-.73.89-1.29 1.57-1.69.68-.39 1.48-.59 2.4-.59 1.41 0 2.51.44 3.32 1.31.81.87 1.21 2.06 1.21 3.55v.1c0 1.46-.41 2.62-1.22 3.48-.81.86-1.91 1.29-3.3 1.29-1.34 0-2.41-.4-3.22-1.2-.81-.8-1.25-1.89-1.31-3.26v-.49zm2.92.19c0 .87.14 1.5.41 1.91.27.41.67.61 1.21.61 1.04 0 1.57-.8 1.6-2.4v-.29c0-1.68-.54-2.53-1.61-2.53-.98 0-1.51.73-1.59 2.18l-.02.52zM106.04 282.65c-.62.79-1.46 1.19-2.51 1.19-1.03 0-1.81-.3-2.34-.9s-.79-1.46-.79-2.58v-6.08h2.92v6.1c0 .8.39 1.21 1.17 1.21.67 0 1.15-.24 1.43-.72v-6.59h2.94v9.39h-2.74l-.08-1.02zM48.62 305v-7.36h-1.36v-2.03h1.36v-.75c0-1.07.32-1.9.95-2.49.63-.59 1.52-.89 2.66-.89.42 0 .87.06 1.37.18l.01 2.15c-.18-.05-.42-.08-.72-.08-.89 0-1.33.38-1.33 1.15v.72h1.83v2.03h-1.83V305h-2.94zM54.04 300.21c0-.94.18-1.77.55-2.5.36-.73.89-1.29 1.57-1.69.68-.39 1.48-.59 2.4-.59 1.41 0 2.51.44 3.32 1.31.81.87 1.21 2.06 1.21 3.55v.1c0 1.46-.41 2.63-1.22 3.48s-1.91 1.29-3.3 1.29c-1.34 0-2.41-.4-3.22-1.2s-1.25-1.89-1.31-3.26v-.49zm2.93.19c0 .87.14 1.5.41 1.91s.67.61 1.21.61c1.04 0 1.57-.8 1.6-2.4v-.29c0-1.68-.54-2.53-1.61-2.53-.98 0-1.51.73-1.59 2.18l-.02.52zM70.08 298.25l-.96-.07c-.92 0-1.51.29-1.77.87V305h-2.92v-9.39h2.74l.1 1.21c.49-.92 1.18-1.38 2.06-1.38.31 0 .58.04.82.1l-.07 2.71zM70.79 300.23c0-.95.16-1.79.47-2.52.31-.73.76-1.29 1.35-1.69.58-.4 1.26-.59 2.04-.59.98 0 1.74.33 2.29.99l.1-.82h2.66v9.04c0 .83-.19 1.55-.58 2.16-.39.61-.94 1.08-1.67 1.41s-1.57.49-2.53.49c-.69 0-1.36-.13-2-.39-.65-.26-1.14-.6-1.48-1.02l1.22-1.72c.54.64 1.26.96 2.15.96 1.3 0 1.94-.67 1.94-2v-.29c-.56.62-1.27.93-2.13.93-1.15 0-2.07-.44-2.78-1.32-.71-.88-1.06-2.05-1.06-3.52v-.1zm2.93.18c0 .77.15 1.38.43 1.83.29.45.69.67 1.22.67.63 0 1.09-.21 1.38-.63v-3.95c-.28-.43-.74-.64-1.36-.64-.52 0-.93.23-1.22.7s-.45 1.14-.45 2.02zM85.9 305.17c-1.44 0-2.61-.43-3.5-1.29-.89-.86-1.34-1.98-1.34-3.35v-.24c0-.96.18-1.81.53-2.54.36-.73.88-1.3 1.56-1.71s1.49-.6 2.43-.6c1.32 0 2.36.41 3.12 1.23.76.82 1.15 1.96 1.15 3.42v1.14h-5.82c.1.53.33.94.69 1.24.35.3.81.45 1.37.45.92 0 1.65-.32 2.17-.97l1.34 1.58c-.36.5-.88.9-1.55 1.2a5.3 5.3 0 0 1-2.15.44zm-.33-7.48c-.86 0-1.37.57-1.53 1.7h2.95v-.23c.01-.47-.11-.83-.36-1.09-.24-.25-.6-.38-1.06-.38zM94.44 293.27v2.33h1.54v2.03h-1.54v4.3c0 .35.06.6.19.74s.38.21.75.21c.29 0 .53-.02.73-.05v2.09c-.53.17-1.08.25-1.65.25-1.01 0-1.75-.24-2.23-.71s-.72-1.19-.72-2.16v-4.66h-1.2v-2.03h1.2v-2.33h2.93zM104.96 293.27v2.33h1.54v2.03h-1.54v4.3c0 .35.06.6.19.74s.38.21.75.21c.29 0 .53-.02.73-.05v2.09c-.53.17-1.08.25-1.65.25-1.01 0-1.75-.24-2.23-.71s-.72-1.19-.72-2.16v-4.66h-1.2v-2.03h1.2v-2.33h2.93zM107.03 300.21c0-.94.18-1.77.55-2.5.36-.73.89-1.29 1.57-1.69.68-.39 1.48-.59 2.4-.59 1.41 0 2.51.44 3.32 1.31.81.87 1.22 2.06 1.22 3.55v.1c0 1.46-.41 2.63-1.22 3.48-.81.86-1.91 1.29-3.3 1.29-1.34 0-2.41-.4-3.22-1.2-.81-.8-1.25-1.89-1.31-3.26l-.01-.49zm2.93.19c0 .87.14 1.5.41 1.91.27.41.67.61 1.21.61 1.04 0 1.57-.8 1.6-2.4v-.29c0-1.68-.54-2.53-1.61-2.53-.98 0-1.51.73-1.59 2.18l-.02.52zM31.54 323.69c0-.25-.13-.45-.39-.6-.26-.15-.75-.31-1.48-.47s-1.33-.37-1.81-.64c-.47-.26-.84-.58-1.08-.96a2.29 2.29 0 0 1-.37-1.29c0-.86.36-1.57 1.07-2.13.71-.56 1.64-.84 2.79-.84 1.24 0 2.23.28 2.99.84.75.56 1.13 1.3 1.13 2.21h-2.93c0-.75-.4-1.13-1.19-1.13-.31 0-.56.09-.77.26-.21.17-.31.38-.31.64s.13.47.38.63c.25.16.66.29 1.22.4.56.1 1.05.23 1.47.37 1.41.49 2.12 1.36 2.12 2.61 0 .86-.38 1.55-1.14 2.09-.76.54-1.75.81-2.96.81-.8 0-1.52-.14-2.15-.43-.63-.29-1.12-.68-1.48-1.18-.35-.5-.53-1.02-.53-1.57h2.73c.01.43.16.75.43.95.28.2.63.3 1.07.3.4 0 .7-.08.9-.24s.29-.37.29-.63zM38.59 317.94c.62-.79 1.42-1.18 2.4-1.18 1.04 0 1.82.31 2.34.92.53.61.8 1.52.81 2.72v5.93H41.2v-5.86c0-.5-.1-.86-.3-1.1-.2-.23-.55-.35-1.03-.35-.6 0-1.03.19-1.28.57v6.74h-2.93V313h2.93v4.94zM45.4 321.54c0-.94.18-1.77.55-2.5.36-.73.89-1.29 1.57-1.69.68-.39 1.48-.59 2.4-.59 1.41 0 2.51.44 3.32 1.31.81.87 1.21 2.06 1.21 3.55v.1c0 1.46-.41 2.62-1.22 3.48s-1.91 1.29-3.3 1.29c-1.34 0-2.41-.4-3.22-1.2s-1.25-1.89-1.31-3.26v-.49zm2.92.19c0 .87.14 1.5.41 1.91s.67.61 1.21.61c1.04 0 1.57-.8 1.6-2.4v-.29c0-1.68-.54-2.53-1.61-2.53-.98 0-1.51.73-1.59 2.18l-.02.52zM64.46 321.7c0 1.46-.33 2.62-.98 3.49-.66.87-1.54 1.31-2.66 1.31-.86 0-1.57-.32-2.13-.95v4.38h-2.92v-13h2.73l.09.87c.56-.69 1.3-1.04 2.21-1.04 1.16 0 2.06.43 2.7 1.28.64.85.96 2.03.96 3.52v.14zm-2.92-.18c0-1.67-.49-2.5-1.46-2.5-.69 0-1.16.25-1.39.75v3.7c.25.52.72.78 1.41.78.93 0 1.41-.8 1.44-2.41v-.32zM75.1 323.69c0-.25-.13-.45-.39-.6-.26-.15-.75-.31-1.48-.47s-1.33-.37-1.81-.64c-.47-.26-.84-.58-1.08-.96a2.29 2.29 0 0 1-.37-1.29c0-.86.36-1.57 1.07-2.13.71-.56 1.64-.84 2.79-.84 1.24 0 2.23.28 2.99.84.75.56 1.13 1.3 1.13 2.21H75c0-.75-.4-1.13-1.19-1.13-.31 0-.56.09-.77.26-.21.17-.31.38-.31.64s.13.47.38.63c.25.16.66.29 1.22.4.56.1 1.05.23 1.47.37 1.41.49 2.12 1.36 2.12 2.61 0 .86-.38 1.55-1.14 2.09-.76.54-1.75.81-2.96.81-.8 0-1.52-.14-2.15-.43-.63-.29-1.12-.68-1.48-1.18-.35-.5-.53-1.02-.53-1.57h2.73c.01.43.16.75.43.95.28.2.63.3 1.07.3.4 0 .7-.08.9-.24s.31-.37.31-.63zM83.83 326.5c-1.44 0-2.61-.43-3.5-1.29s-1.34-1.98-1.34-3.35v-.24c0-.96.18-1.81.53-2.54.36-.73.88-1.3 1.56-1.71.68-.4 1.49-.6 2.43-.6 1.32 0 2.36.41 3.12 1.23.76.82 1.15 1.96 1.15 3.42v1.14h-5.82c.1.53.33.94.69 1.24.35.3.81.45 1.37.45.92 0 1.65-.32 2.17-.97l1.34 1.58c-.36.5-.88.9-1.55 1.2a5.3 5.3 0 0 1-2.15.44zm-.33-7.48c-.86 0-1.37.57-1.53 1.7h2.95v-.23c.01-.47-.11-.83-.36-1.09-.24-.25-.6-.38-1.06-.38zM92.93 324.24c.41 0 .73-.11.96-.33s.33-.53.33-.93h2.74c0 1.03-.37 1.88-1.11 2.54-.74.66-1.69.99-2.85.99-1.37 0-2.44-.43-3.23-1.29-.79-.86-1.18-2.04-1.18-3.56v-.12c0-.95.18-1.79.53-2.51.35-.73.85-1.28 1.51-1.67.66-.39 1.44-.59 2.34-.59 1.22 0 2.19.34 2.91 1.02.72.68 1.08 1.59 1.08 2.75h-2.74c0-.49-.12-.86-.36-1.12-.24-.26-.56-.39-.96-.39-.76 0-1.2.48-1.33 1.45-.04.31-.06.73-.06 1.27 0 .94.11 1.6.34 1.96s.59.53 1.08.53zM103.79 325.31c-.62.79-1.46 1.19-2.51 1.19-1.03 0-1.81-.3-2.34-.9s-.79-1.46-.79-2.58v-6.08h2.92v6.1c0 .8.39 1.21 1.17 1.21.67 0 1.15-.24 1.43-.72v-6.59h2.94v9.39h-2.74l-.08-1.02zM113.9 319.58l-.96-.07c-.92 0-1.51.29-1.77.87v5.95h-2.92v-9.39h2.74l.1 1.21c.49-.92 1.18-1.38 2.06-1.38.31 0 .58.04.82.1l-.07 2.71zM119.5 326.5c-1.44 0-2.61-.43-3.5-1.29-.89-.86-1.34-1.98-1.34-3.35v-.24c0-.96.18-1.81.54-2.54.36-.73.88-1.3 1.56-1.71.68-.4 1.49-.6 2.43-.6 1.32 0 2.36.41 3.12 1.23.76.82 1.15 1.96 1.15 3.42v1.14h-5.81c.1.53.33.94.69 1.24.35.3.81.45 1.37.45.93 0 1.65-.32 2.17-.97l1.34 1.58c-.37.5-.88.9-1.55 1.2s-1.4.44-2.17.44zm-.33-7.48c-.86 0-1.37.57-1.53 1.7h2.95v-.23c.01-.47-.11-.83-.36-1.09-.24-.25-.6-.38-1.06-.38zM127.72 326.33h-2.93V313h2.93v13.33zM133.27 322.23l1.56-5.29h3.13l-3.83 10.96-.16.4c-.54 1.22-1.5 1.82-2.88 1.82-.38 0-.78-.06-1.21-.17v-2.08h.38c.41 0 .72-.06.94-.18.22-.12.38-.33.48-.64l.23-.62-3.26-9.49h3.12l1.5 5.29zM51.48 335.93v2.33h1.54v2.03h-1.54v4.3c0 .35.06.6.19.74s.38.21.76.21c.29 0 .53-.02.73-.05v2.09c-.53.17-1.08.25-1.65.25-1.01 0-1.75-.24-2.23-.71s-.72-1.19-.72-2.16v-4.66h-1.2v-2.03h1.2v-2.33h2.92zM57.04 339.27c.62-.79 1.42-1.18 2.4-1.18 1.04 0 1.82.31 2.34.92.53.61.8 1.52.81 2.72v5.93h-2.93v-5.86c0-.5-.1-.86-.3-1.1-.2-.23-.55-.35-1.03-.35-.6 0-1.03.19-1.28.57v6.74h-2.93v-13.33h2.93v4.94zM64.19 335.84c0-.42.15-.76.45-1.02.3-.27.69-.4 1.17-.4s.87.13 1.17.4c.3.27.45.61.45 1.02 0 .42-.15.76-.45 1.02-.3.27-.69.4-1.17.4s-.87-.13-1.17-.4c-.3-.26-.45-.6-.45-1.02zm3.11 11.82h-2.93v-9.39h2.93v9.39zM74.02 345.02c0-.25-.13-.45-.39-.6-.26-.15-.75-.31-1.48-.47s-1.33-.37-1.81-.64c-.47-.26-.84-.58-1.08-.96a2.29 2.29 0 0 1-.37-1.29c0-.86.36-1.57 1.07-2.13.71-.56 1.64-.84 2.79-.84 1.24 0 2.23.28 2.99.84.75.56 1.13 1.3 1.13 2.21h-2.93c0-.75-.4-1.13-1.19-1.13-.31 0-.56.09-.77.26-.21.17-.31.38-.31.64s.13.47.38.63c.25.16.66.29 1.22.4.56.1 1.05.23 1.47.37 1.41.49 2.12 1.36 2.12 2.61 0 .86-.38 1.55-1.14 2.09-.76.54-1.75.81-2.96.81-.8 0-1.52-.14-2.15-.43-.63-.29-1.12-.68-1.48-1.18-.35-.5-.53-1.02-.53-1.57h2.73c.01.43.16.75.43.95.28.2.63.3 1.07.3.4 0 .7-.08.9-.24s.29-.37.29-.63zM91.35 343.03c0 1.46-.33 2.62-.99 3.49-.66.87-1.54 1.31-2.66 1.31-.86 0-1.57-.32-2.13-.95v4.38h-2.92v-13h2.73l.09.87c.56-.69 1.3-1.04 2.21-1.04 1.16 0 2.06.43 2.7 1.28.64.85.96 2.03.96 3.52v.14zm-2.93-.18c0-1.67-.49-2.5-1.46-2.5-.69 0-1.16.25-1.39.75v3.7c.25.52.72.78 1.41.78.93 0 1.41-.8 1.44-2.41v-.32zM97.93 347.66c-.1-.19-.2-.47-.28-.84-.54.68-1.29 1.02-2.26 1.02-.89 0-1.64-.27-2.26-.8s-.93-1.21-.93-2.02c0-1.02.38-1.79 1.13-2.31.75-.52 1.85-.78 3.28-.78h.9v-.5c0-.87-.37-1.3-1.12-1.3-.69 0-1.04.34-1.04 1.03h-2.92c0-.91.39-1.64 1.16-2.21s1.76-.85 2.96-.85 2.14.29 2.84.88c.69.58 1.05 1.39 1.07 2.4v4.16c.01.86.14 1.52.4 1.98v.15h-2.93zm-1.83-1.91c.36 0 .67-.08.91-.23.24-.16.41-.33.52-.53v-1.5h-.85c-1.02 0-1.53.46-1.53 1.37 0 .27.09.48.27.65.17.15.4.24.68.24zM106.99 345.02c0-.25-.13-.45-.39-.6-.26-.15-.75-.31-1.48-.47-.73-.16-1.33-.37-1.81-.64s-.84-.58-1.08-.96-.37-.81-.37-1.29c0-.86.36-1.57 1.07-2.13s1.64-.84 2.79-.84c1.24 0 2.23.28 2.99.84.75.56 1.13 1.3 1.13 2.21h-2.93c0-.75-.4-1.13-1.19-1.13-.31 0-.56.09-.77.26-.21.17-.31.38-.31.64s.13.47.38.63.66.29 1.22.4c.56.1 1.05.23 1.47.37 1.41.49 2.12 1.36 2.12 2.61 0 .86-.38 1.55-1.14 2.09s-1.75.81-2.96.81c-.8 0-1.52-.14-2.15-.43-.63-.29-1.12-.68-1.48-1.18-.35-.5-.53-1.02-.53-1.57h2.73c.01.43.16.75.43.95.28.2.63.3 1.07.3.4 0 .7-.08.9-.24.19-.16.29-.37.29-.63zM114.58 335.93v2.33h1.54v2.03h-1.54v4.3c0 .35.06.6.19.74s.38.21.75.21c.29 0 .53-.02.73-.05v2.09c-.53.17-1.08.25-1.65.25-1.01 0-1.75-.24-2.23-.71s-.72-1.19-.72-2.16v-4.66h-1.2v-2.03h1.2v-2.33h2.93zM56.32 360.6c.62-.79 1.42-1.18 2.4-1.18 1.04 0 1.82.31 2.34.92.53.61.8 1.52.81 2.72v5.93h-2.93v-5.86c0-.5-.1-.86-.3-1.1-.2-.23-.55-.35-1.03-.35-.6 0-1.03.19-1.28.57v6.74H53.4v-13.33h2.93v4.94zM63.13 364.2c0-.94.18-1.77.55-2.5.36-.73.89-1.29 1.57-1.69.68-.39 1.48-.59 2.4-.59 1.41 0 2.51.44 3.32 1.31.81.87 1.21 2.06 1.21 3.55v.1c0 1.46-.41 2.62-1.22 3.48s-1.91 1.29-3.3 1.29c-1.34 0-2.41-.4-3.22-1.2s-1.25-1.89-1.31-3.26v-.49zm2.92.19c0 .87.14 1.5.41 1.91s.67.61 1.21.61c1.04 0 1.57-.8 1.6-2.4v-.29c0-1.68-.54-2.53-1.61-2.53-.98 0-1.51.73-1.59 2.18l-.02.52zM76.56 368.99h-2.93v-13.33h2.93v13.33zM78.34 357.17c0-.42.15-.76.45-1.02.3-.27.69-.4 1.17-.4s.87.13 1.17.4c.3.27.45.61.45 1.02 0 .42-.15.76-.45 1.02-.3.27-.69.4-1.17.4s-.87-.13-1.17-.4c-.3-.26-.45-.6-.45-1.02zm3.11 11.82h-2.93v-9.39h2.93v9.39zM82.88 364.22c0-1.49.32-2.66.96-3.52.64-.86 1.54-1.28 2.69-1.28.84 0 1.54.33 2.12.99v-4.76h2.93v13.33h-2.63l-.15-1.01c-.6.79-1.37 1.18-2.29 1.18-1.12 0-2-.43-2.66-1.29-.64-.84-.97-2.06-.97-3.64zm2.93.18c0 1.67.49 2.5 1.46 2.5.65 0 1.11-.27 1.39-.82v-3.58c-.27-.56-.72-.83-1.37-.83-.9 0-1.39.73-1.47 2.19l-.01.54zM98.54 368.99c-.1-.19-.2-.47-.28-.84-.54.68-1.29 1.02-2.26 1.02-.89 0-1.64-.27-2.26-.8s-.93-1.21-.93-2.02c0-1.02.38-1.79 1.13-2.31.75-.52 1.85-.78 3.28-.78h.9v-.5c0-.87-.37-1.3-1.12-1.3-.69 0-1.04.34-1.04 1.03h-2.92c0-.91.39-1.64 1.16-2.21s1.76-.85 2.96-.85 2.14.29 2.84.88c.69.58 1.05 1.39 1.07 2.4v4.16c.01.86.14 1.52.4 1.98v.15h-2.93zm-1.83-1.91c.36 0 .67-.08.91-.23.24-.16.41-.33.52-.53v-1.5h-.85c-1.02 0-1.53.46-1.53 1.37 0 .27.09.48.27.65.17.15.4.24.68.24zM106.44 364.89l1.56-5.29h3.13l-3.83 10.96-.17.4c-.54 1.22-1.5 1.82-2.88 1.82-.38 0-.78-.06-1.21-.17v-2.08h.38c.41 0 .72-.06.94-.18.22-.12.38-.33.48-.64l.23-.62-3.26-9.49h3.12l1.51 5.29zM54.4 387.68c0-.25-.13-.45-.39-.6-.26-.15-.75-.31-1.48-.47s-1.33-.37-1.81-.64c-.47-.26-.84-.58-1.08-.96a2.29 2.29 0 0 1-.37-1.29c0-.86.36-1.57 1.07-2.13.71-.56 1.64-.84 2.79-.84 1.24 0 2.23.28 2.99.84.75.56 1.13 1.3 1.13 2.21h-2.93c0-.75-.4-1.13-1.19-1.13-.31 0-.56.09-.77.26-.21.17-.31.38-.31.64s.13.47.38.63c.25.16.66.29 1.22.4.56.1 1.05.23 1.47.37 1.41.49 2.12 1.36 2.12 2.61 0 .86-.38 1.55-1.14 2.09-.76.54-1.75.81-2.96.81-.8 0-1.52-.14-2.15-.43-.63-.29-1.12-.68-1.48-1.18-.35-.5-.53-1.02-.53-1.57h2.73c.01.43.16.75.43.95.28.2.63.3 1.07.3.4 0 .7-.08.9-.24s.29-.37.29-.63zM63.14 390.49c-1.44 0-2.61-.43-3.5-1.29-.89-.86-1.34-1.98-1.34-3.35v-.24c0-.96.18-1.81.53-2.54.36-.73.88-1.3 1.56-1.71s1.49-.6 2.43-.6c1.32 0 2.36.41 3.12 1.23.76.82 1.15 1.96 1.15 3.42v1.14h-5.81c.1.53.33.94.69 1.24s.81.45 1.37.45c.93 0 1.65-.32 2.17-.97l1.34 1.58c-.36.5-.88.9-1.55 1.2-.68.29-1.39.44-2.16.44zm-.33-7.48c-.86 0-1.37.57-1.53 1.7h2.95v-.23c.01-.47-.11-.83-.36-1.09-.25-.25-.6-.38-1.06-.38zM73.56 390.32c-.1-.19-.2-.47-.28-.84-.54.68-1.29 1.02-2.26 1.02-.89 0-1.64-.27-2.26-.8s-.93-1.21-.93-2.02c0-1.02.38-1.79 1.13-2.31.75-.52 1.85-.78 3.28-.78h.9v-.5c0-.87-.37-1.3-1.12-1.3-.69 0-1.04.34-1.04 1.03h-2.92c0-.91.39-1.64 1.16-2.21s1.76-.85 2.96-.85 2.14.29 2.84.88c.69.58 1.05 1.39 1.07 2.4v4.16c.01.86.14 1.52.4 1.98v.15h-2.93zm-1.83-1.91c.36 0 .67-.08.91-.23.24-.16.41-.33.52-.53v-1.5h-.86c-1.02 0-1.53.46-1.53 1.37 0 .27.09.48.27.65.18.15.41.24.69.24zM82.62 387.68c0-.25-.13-.45-.39-.6s-.75-.31-1.48-.47c-.73-.16-1.33-.37-1.81-.64-.47-.26-.84-.58-1.08-.96a2.29 2.29 0 0 1-.37-1.29c0-.86.36-1.57 1.07-2.13.71-.56 1.64-.84 2.79-.84 1.24 0 2.23.28 2.99.84.75.56 1.13 1.3 1.13 2.21h-2.93c0-.75-.4-1.13-1.19-1.13-.31 0-.56.09-.77.26-.21.17-.31.38-.31.64s.13.47.38.63c.25.16.66.29 1.22.4s1.05.23 1.47.37c1.41.49 2.12 1.36 2.12 2.61 0 .86-.38 1.55-1.14 2.09-.76.54-1.75.81-2.96.81-.8 0-1.52-.14-2.15-.43-.63-.29-1.12-.68-1.48-1.18-.35-.5-.53-1.02-.53-1.57h2.73c.01.43.16.75.43.95.28.2.63.3 1.07.3.4 0 .7-.08.9-.24.19-.16.29-.37.29-.63zM86.44 385.53c0-.94.18-1.77.55-2.5.36-.73.89-1.29 1.57-1.69.68-.39 1.48-.59 2.4-.59 1.41 0 2.51.44 3.32 1.31.81.87 1.21 2.06 1.21 3.55v.1c0 1.46-.41 2.62-1.22 3.48-.81.86-1.91 1.29-3.3 1.29-1.34 0-2.41-.4-3.22-1.2-.81-.8-1.25-1.89-1.31-3.26v-.49zm2.92.19c0 .87.14 1.5.41 1.91.27.41.67.61 1.21.61 1.04 0 1.57-.8 1.6-2.4v-.29c0-1.68-.54-2.53-1.61-2.53-.98 0-1.51.73-1.59 2.18l-.02.52zM99.48 380.92l.1 1.1c.65-.85 1.54-1.28 2.68-1.28.98 0 1.71.29 2.19.88.48.58.73 1.46.75 2.64v6.05h-2.93v-5.93c0-.47-.1-.82-.29-1.05-.19-.22-.54-.33-1.04-.33-.57 0-1 .23-1.28.68v6.63h-2.92v-9.39h2.74zM108.98 386.31c0-.84.09-1.51.29-2 .19-.49.5-.91.93-1.27.43-.36.75-.69.98-.98.22-.3.33-.63.33-.99 0-.87-.38-1.31-1.13-1.31-.35 0-.63.13-.84.38s-.33.6-.34 1.03h-2.93c.01-1.16.38-2.06 1.09-2.7.72-.64 1.72-.97 3.02-.97 1.29 0 2.29.3 3 .89.71.6 1.06 1.44 1.06 2.54 0 .48-.1.92-.29 1.31-.19.39-.5.79-.92 1.21l-1 .93c-.28.27-.48.55-.59.84-.11.29-.17.65-.18 1.09h-2.48zm-.36 2.64c0-.43.16-.78.46-1.05.31-.27.7-.41 1.16-.41s.85.14 1.16.41c.31.27.46.63.46 1.05 0 .43-.16.78-.46 1.05-.31.28-.7.41-1.16.41s-.85-.14-1.16-.41c-.3-.27-.46-.62-.46-1.05z"/></svg>