<svg id="Layer_1" xmlns="http://www.w3.org/2000/svg" viewBox="0 0 160 600"><style>.st0{fill:#021d8b;stroke:url(#SVGID_1_);stroke-width:2;stroke-miterlimit:10}.st1{fill:#fff}</style><linearGradient id="SVGID_1_" gradientUnits="userSpaceOnUse" x1="27.276" y1="368.932" x2="129.271" y2="368.932"><stop offset="0" stop-color="#18b9fb"/><stop offset=".5" stop-color="#782eeb"/><stop offset="1" stop-color="#e82d8a"/></linearGradient><path class="st0" d="M111.47 385.73H45.08c-9.28 0-16.8-7.52-16.8-16.8 0-9.28 7.52-16.8 16.8-16.8h66.39c9.28 0 16.8 7.52 16.8 16.8 0 9.28-7.52 16.8-16.8 16.8z"/><path class="st1" d="M44.49 371.37h3.79v1.43H42.7v-8.66h1.78v7.23zM54.5 369.05h-3.42v2.32h4.02v1.43h-5.8v-8.66h5.79v1.45h-4.01v2.06h3.42v1.4zM61.03 371.02H57.9l-.59 1.78h-1.9l3.22-8.66h1.65l3.24 8.66h-1.9l-.59-1.78zm-2.64-1.45h2.16l-1.09-3.24-1.07 3.24zM67.54 369.63h-1.42v3.17h-1.78v-8.66h3.22c1.02 0 1.81.23 2.37.68.55.46.83 1.1.83 1.93 0 .59-.13 1.08-.38 1.48-.26.39-.64.71-1.16.94l1.87 3.54v.08h-1.91l-1.64-3.16zm-1.42-1.45h1.44c.45 0 .79-.11 1.04-.34.25-.23.37-.54.37-.94 0-.41-.12-.73-.35-.96-.23-.23-.59-.35-1.07-.35h-1.43v2.59zM79.15 372.8h-1.78l-3.47-5.7v5.7h-1.78v-8.66h1.78l3.48 5.71v-5.71h1.78v8.66zM86.07 364.14l2.22 6.28 2.21-6.28h2.34v8.66h-1.79v-2.37l.18-4.08-2.34 6.45h-1.22l-2.33-6.45.18 4.08v2.37h-1.78v-8.66h2.33zM101.52 368.67c0 .85-.15 1.6-.45 2.24-.3.64-.73 1.14-1.29 1.49s-1.2.52-1.93.52c-.72 0-1.36-.17-1.92-.52-.56-.34-1-.84-1.31-1.48-.31-.64-.47-1.38-.47-2.21v-.43c0-.85.15-1.6.46-2.25.31-.65.74-1.15 1.3-1.49.56-.35 1.2-.52 1.92-.52s1.36.17 1.92.52c.56.35.99.84 1.3 1.49.31.65.46 1.4.46 2.24v.4zm-1.81-.4c0-.91-.16-1.6-.49-2.07s-.79-.71-1.39-.71c-.6 0-1.06.23-1.38.7-.33.47-.49 1.15-.49 2.05v.42c0 .88.16 1.57.49 2.06.33.49.79.73 1.4.73.6 0 1.06-.23 1.38-.7s.48-1.16.49-2.05v-.43zM106.02 369.63h-1.42v3.17h-1.78v-8.66h3.22c1.02 0 1.81.23 2.37.68.55.46.83 1.1.83 1.93 0 .59-.13 1.08-.38 1.48-.25.39-.64.71-1.16.94l1.87 3.54v.08h-1.92l-1.63-3.16zm-1.42-1.45h1.44c.45 0 .79-.11 1.04-.34.25-.23.37-.54.37-.94 0-.41-.12-.73-.35-.96-.23-.23-.59-.35-1.07-.35h-1.43v2.59zM115.79 369.05h-3.42v2.32h4.02v1.43h-5.8v-8.66h5.79v1.45h-4.01v2.06h3.42v1.4z"/></svg>