<?xml version="1.0" encoding="utf-8"?>
<!-- Generator: Adobe Illustrator 24.2.3, SVG Export Plug-In . SVG Version: 6.00 Build 0)  -->
<svg version="1.1" id="Layer_1" xmlns="http://www.w3.org/2000/svg" xmlns:xlink="http://www.w3.org/1999/xlink" x="0px" y="0px"
	 viewBox="0 0 970 250" style="enable-background:new 0 0 970 250;" xml:space="preserve">
<style type="text/css">
	.st0{fill:url(#SVGID_1_);}
</style>
<linearGradient id="SVGID_1_" gradientUnits="userSpaceOnUse" x1="167.9199" y1="164.5713" x2="631.0449" y2="164.5713">
	<stop  offset="0" style="stop-color:#18B9FB"/>
	<stop  offset="0.5" style="stop-color:#782EEB"/>
	<stop  offset="1" style="stop-color:#E82D8A"/>
</linearGradient>
<path class="st0" d="M179.76,136.88h-3.71v10.06h-6.86v-28.44h11.19c3.37,0,6.01,0.75,7.91,2.24c1.9,1.5,2.85,3.61,2.85,6.34
	c0,1.98-0.4,3.62-1.2,4.92s-2.05,2.35-3.76,3.16l5.94,11.48v0.29h-7.34L179.76,136.88z M176.04,131.61h4.34
	c1.3,0,2.28-0.34,2.94-1.03c0.66-0.69,0.99-1.64,0.99-2.87c0-1.23-0.33-2.19-1-2.89s-1.64-1.05-2.93-1.05h-4.34V131.61z
	 M205.21,147.33c-3.24,0-5.87-0.97-7.87-2.9s-3.01-4.45-3.01-7.55v-0.55c0-2.16,0.4-4.07,1.2-5.72s1.97-2.93,3.51-3.84
	s3.36-1.36,5.47-1.36c2.97,0,5.31,0.92,7.03,2.76s2.58,4.41,2.58,7.71v2.56h-13.09c0.23,1.18,0.75,2.12,1.54,2.79
	s1.82,1.02,3.09,1.02c2.08,0,3.71-0.73,4.88-2.19l3.01,3.55c-0.82,1.13-1.98,2.03-3.49,2.71S206.94,147.33,205.21,147.33z
	 M204.46,130.5c-1.93,0-3.07,1.28-3.44,3.83h6.64v-0.51c0.03-1.05-0.24-1.87-0.8-2.45S205.5,130.5,204.46,130.5z M225.69,142.26
	c0.92,0,1.64-0.25,2.15-0.75s0.75-1.2,0.74-2.1h6.17c0,2.32-0.83,4.22-2.49,5.7s-3.8,2.23-6.42,2.23c-3.07,0-5.5-0.96-7.27-2.89
	s-2.66-4.6-2.66-8.01v-0.27c0-2.14,0.39-4.02,1.18-5.65s1.92-2.89,3.41-3.77s3.24-1.32,5.27-1.32c2.75,0,4.93,0.76,6.54,2.29
	s2.42,3.59,2.42,6.19h-6.17c0-1.09-0.27-1.93-0.8-2.52s-1.25-0.88-2.15-0.88c-1.71,0-2.7,1.09-2.99,3.26
	c-0.09,0.69-0.14,1.64-0.14,2.85c0,2.12,0.25,3.59,0.76,4.41S224.59,142.26,225.69,142.26z M247.76,147.33
	c-3.24,0-5.87-0.97-7.87-2.9s-3.01-4.45-3.01-7.55v-0.55c0-2.16,0.4-4.07,1.2-5.72s1.97-2.93,3.51-3.84s3.36-1.36,5.47-1.36
	c2.97,0,5.31,0.92,7.03,2.76s2.58,4.41,2.58,7.71v2.56h-13.09c0.23,1.18,0.75,2.12,1.54,2.79s1.82,1.02,3.09,1.02
	c2.08,0,3.71-0.73,4.88-2.19l3.01,3.55c-0.82,1.13-1.98,2.03-3.49,2.71S249.5,147.33,247.76,147.33z M247.02,130.5
	c-1.93,0-3.07,1.28-3.44,3.83h6.64v-0.51c0.03-1.05-0.24-1.87-0.8-2.45S248.06,130.5,247.02,130.5z M259.27,120.36
	c0-0.94,0.34-1.71,1.02-2.3s1.56-0.9,2.64-0.9s1.96,0.3,2.64,0.9s1.02,1.37,1.02,2.3s-0.34,1.71-1.02,2.3s-1.56,0.9-2.64,0.9
	s-1.96-0.3-2.64-0.9S259.27,121.3,259.27,120.36z M266.26,146.94h-6.6v-21.13h6.6V146.94z M278.74,139.11l3.34-13.3h6.93
	l-6.89,21.13h-6.72l-6.89-21.13h6.95L278.74,139.11z M300.95,147.33c-3.24,0-5.87-0.97-7.87-2.9s-3.01-4.45-3.01-7.55v-0.55
	c0-2.16,0.4-4.07,1.2-5.72s1.97-2.93,3.51-3.84s3.36-1.36,5.47-1.36c2.97,0,5.31,0.92,7.03,2.76s2.58,4.41,2.58,7.71v2.56h-13.09
	c0.23,1.18,0.75,2.12,1.54,2.79s1.82,1.02,3.09,1.02c2.08,0,3.71-0.73,4.88-2.19l3.01,3.55c-0.82,1.13-1.98,2.03-3.49,2.71
	S302.68,147.33,300.95,147.33z M300.21,130.5c-1.93,0-3.07,1.28-3.44,3.83h6.64v-0.51c0.03-1.05-0.24-1.87-0.8-2.45
	S301.25,130.5,300.21,130.5z M331.4,142.26c0.92,0,1.64-0.25,2.15-0.75s0.75-1.2,0.74-2.1h6.17c0,2.32-0.83,4.22-2.49,5.7
	s-3.8,2.23-6.42,2.23c-3.07,0-5.5-0.96-7.27-2.89s-2.66-4.6-2.66-8.01v-0.27c0-2.14,0.39-4.02,1.18-5.65s1.92-2.89,3.41-3.77
	s3.24-1.32,5.27-1.32c2.75,0,4.93,0.76,6.54,2.29s2.42,3.59,2.42,6.19h-6.17c0-1.09-0.27-1.93-0.8-2.52s-1.25-0.88-2.15-0.88
	c-1.71,0-2.7,1.09-2.99,3.26c-0.09,0.69-0.14,1.64-0.14,2.85c0,2.12,0.25,3.59,0.76,4.41S330.29,142.26,331.4,142.26z
	 M356.03,131.77l-2.17-0.16c-2.07,0-3.4,0.65-3.98,1.95v13.38h-6.58v-21.13h6.17l0.21,2.71c1.11-2.07,2.65-3.11,4.63-3.11
	c0.7,0,1.32,0.08,1.84,0.23L356.03,131.77z M368.25,147.33c-3.24,0-5.87-0.97-7.87-2.9s-3.01-4.45-3.01-7.55v-0.55
	c0-2.16,0.4-4.07,1.2-5.72s1.97-2.93,3.51-3.84s3.36-1.36,5.47-1.36c2.97,0,5.31,0.92,7.03,2.76s2.58,4.41,2.58,7.71v2.56h-13.09
	c0.23,1.18,0.75,2.12,1.54,2.79s1.82,1.02,3.09,1.02c2.08,0,3.71-0.73,4.88-2.19l3.01,3.55c-0.82,1.13-1.98,2.03-3.49,2.71
	S369.98,147.33,368.25,147.33z M367.51,130.5c-1.93,0-3.07,1.28-3.44,3.83h6.64v-0.51c0.03-1.05-0.24-1.87-0.8-2.45
	S368.55,130.5,367.51,130.5z M378.97,136.22c0-3.35,0.72-5.98,2.17-7.91s3.46-2.89,6.05-2.89c1.89,0,3.48,0.74,4.77,2.23v-10.7h6.6
	v30h-5.92l-0.33-2.27c-1.35,1.77-3.07,2.66-5.16,2.66c-2.51,0-4.5-0.96-5.98-2.89S378.97,139.78,378.97,136.22z M385.56,136.63
	c0,3.75,1.09,5.62,3.28,5.62c1.46,0,2.5-0.61,3.12-1.84v-8.05c-0.6-1.25-1.63-1.88-3.09-1.88c-2.03,0-3.13,1.64-3.3,4.92
	L385.56,136.63z M402.26,120.36c0-0.94,0.34-1.71,1.02-2.3s1.56-0.9,2.64-0.9s1.96,0.3,2.64,0.9s1.02,1.37,1.02,2.3
	s-0.34,1.71-1.02,2.3s-1.56,0.9-2.64,0.9s-1.96-0.3-2.64-0.9S402.26,121.3,402.26,120.36z M409.25,146.94h-6.6v-21.13h6.6V146.94z
	 M420.97,120.56v5.25h3.48v4.57h-3.48v9.67c0,0.79,0.14,1.35,0.43,1.66s0.85,0.47,1.7,0.47c0.65,0,1.2-0.04,1.64-0.12v4.71
	c-1.18,0.38-2.42,0.57-3.71,0.57c-2.27,0-3.94-0.53-5.02-1.6s-1.62-2.69-1.62-4.86v-10.49h-2.7v-4.57h2.7v-5.25H420.97z
	 M443.21,125.81l0.21,2.48c1.5-1.91,3.51-2.87,6.04-2.87c2.67,0,4.47,1.06,5.41,3.18c1.43-2.12,3.5-3.18,6.21-3.18
	c4.28,0,6.48,2.59,6.6,7.77v13.75h-6.6V133.6c0-1.08-0.18-1.87-0.55-2.36s-1.03-0.74-1.99-0.74c-1.3,0-2.27,0.58-2.91,1.74
	l0.02,0.27v14.43h-6.6v-13.3c0-1.11-0.18-1.91-0.53-2.4s-1.02-0.74-2.01-0.74c-1.26,0-2.23,0.58-2.89,1.74v14.71h-6.58v-21.13
	H443.21z M470.62,136.18c0-2.11,0.41-3.99,1.23-5.63s2-2.91,3.54-3.8s3.34-1.33,5.41-1.33c3.16,0,5.66,0.98,7.48,2.94
	s2.73,4.63,2.73,8v0.23c0,3.29-0.92,5.91-2.74,7.84s-4.31,2.9-7.43,2.9c-3.01,0-5.42-0.9-7.25-2.71s-2.81-4.25-2.95-7.33
	L470.62,136.18z M477.2,136.59c0,1.95,0.31,3.39,0.92,4.3s1.52,1.37,2.71,1.37c2.34,0,3.54-1.8,3.59-5.41v-0.66
	c0-3.79-1.21-5.68-3.63-5.68c-2.2,0-3.39,1.63-3.57,4.9L477.2,136.59z M499.95,125.81l0.21,2.48c1.46-1.91,3.47-2.87,6.04-2.87
	c2.2,0,3.84,0.66,4.93,1.97s1.65,3.29,1.69,5.94v13.61h-6.6V133.6c0-1.07-0.21-1.85-0.64-2.35s-1.21-0.75-2.34-0.75
	c-1.29,0-2.25,0.51-2.87,1.52v14.92h-6.58v-21.13H499.95z M516.42,120.36c0-0.94,0.34-1.71,1.02-2.3s1.56-0.9,2.64-0.9
	s1.96,0.3,2.64,0.9s1.02,1.37,1.02,2.3s-0.34,1.71-1.02,2.3s-1.56,0.9-2.64,0.9s-1.96-0.3-2.64-0.9S516.42,121.3,516.42,120.36z
	 M523.41,146.94h-6.6v-21.13h6.6V146.94z M535.13,120.56v5.25h3.48v4.57h-3.48v9.67c0,0.79,0.14,1.35,0.43,1.66s0.85,0.47,1.7,0.47
	c0.65,0,1.2-0.04,1.64-0.12v4.71c-1.18,0.38-2.42,0.57-3.71,0.57c-2.27,0-3.94-0.53-5.02-1.6s-1.62-2.69-1.62-4.86v-10.49h-2.7
	v-4.57h2.7v-5.25H535.13z M539.78,136.18c0-2.11,0.41-3.99,1.23-5.63s2-2.91,3.54-3.8s3.34-1.33,5.41-1.33
	c3.16,0,5.66,0.98,7.48,2.94s2.73,4.63,2.73,8v0.23c0,3.29-0.92,5.91-2.74,7.84s-4.31,2.9-7.43,2.9c-3.01,0-5.42-0.9-7.25-2.71
	s-2.81-4.25-2.95-7.33L539.78,136.18z M546.36,136.59c0,1.95,0.31,3.39,0.92,4.3s1.52,1.37,2.71,1.37c2.34,0,3.54-1.8,3.59-5.41
	v-0.66c0-3.79-1.21-5.68-3.63-5.68c-2.2,0-3.39,1.63-3.57,4.9L546.36,136.59z M575.85,131.77l-2.17-0.16c-2.07,0-3.4,0.65-3.98,1.95
	v13.38h-6.58v-21.13h6.17l0.21,2.71c1.11-2.07,2.65-3.11,4.63-3.11c0.7,0,1.32,0.08,1.84,0.23L575.85,131.77z M578.17,120.36
	c0-0.94,0.34-1.71,1.02-2.3s1.56-0.9,2.64-0.9s1.96,0.3,2.64,0.9s1.02,1.37,1.02,2.3s-0.34,1.71-1.02,2.3s-1.56,0.9-2.64,0.9
	s-1.96-0.3-2.64-0.9S578.17,121.3,578.17,120.36z M585.17,146.94h-6.6v-21.13h6.6V146.94z M595.26,125.81l0.21,2.48
	c1.46-1.91,3.47-2.87,6.04-2.87c2.2,0,3.84,0.66,4.93,1.97s1.65,3.29,1.69,5.94v13.61h-6.6V133.6c0-1.07-0.21-1.85-0.64-2.35
	s-1.21-0.75-2.34-0.75c-1.29,0-2.25,0.51-2.87,1.52v14.92h-6.58v-21.13H595.26z M611.01,136.22c0-2.14,0.35-4.02,1.05-5.66
	s1.71-2.91,3.03-3.8s2.84-1.34,4.59-1.34c2.2,0,3.92,0.74,5.16,2.23l0.23-1.84h5.98v20.33c0,1.86-0.43,3.48-1.3,4.85
	s-2.12,2.43-3.76,3.16s-3.54,1.1-5.7,1.1c-1.55,0-3.05-0.29-4.5-0.88s-2.56-1.35-3.33-2.29l2.75-3.87c1.22,1.45,2.84,2.17,4.84,2.17
	c2.92,0,4.38-1.5,4.38-4.49v-0.66c-1.26,1.39-2.86,2.09-4.79,2.09c-2.58,0-4.66-0.99-6.25-2.96s-2.38-4.61-2.38-7.92V136.22z
	 M617.61,136.63c0,1.73,0.33,3.1,0.98,4.11s1.56,1.51,2.73,1.51c1.42,0,2.45-0.48,3.11-1.43v-8.89c-0.64-0.96-1.66-1.45-3.07-1.45
	c-1.17,0-2.09,0.52-2.75,1.57S617.61,134.64,617.61,136.63z M180.79,204.54c-0.23-0.43-0.44-1.06-0.62-1.89
	c-1.21,1.52-2.9,2.29-5.08,2.29c-1.99,0-3.68-0.6-5.08-1.81s-2.09-2.72-2.09-4.54c0-2.29,0.85-4.02,2.54-5.2s4.15-1.76,7.38-1.76
	h2.03v-1.12c0-1.95-0.84-2.92-2.52-2.92c-1.56,0-2.34,0.77-2.34,2.32h-6.58c0-2.04,0.87-3.7,2.61-4.97s3.96-1.91,6.65-1.91
	s4.82,0.66,6.39,1.97s2.36,3.12,2.4,5.41v9.36c0.03,1.94,0.33,3.42,0.9,4.45v0.33H180.79z M176.67,200.25c0.82,0,1.5-0.18,2.04-0.53
	s0.93-0.75,1.16-1.19v-3.38h-1.91c-2.29,0-3.44,1.03-3.44,3.09c0,0.6,0.2,1.08,0.61,1.46S176.04,200.25,176.67,200.25z
	 M197.06,204.54h-6.6v-30h6.6V204.54z M211.34,204.93c-3.24,0-5.87-0.97-7.87-2.9s-3.01-4.45-3.01-7.55v-0.55
	c0-2.16,0.4-4.07,1.2-5.72s1.97-2.93,3.51-3.84s3.36-1.36,5.47-1.36c2.97,0,5.31,0.92,7.03,2.76s2.58,4.41,2.58,7.71v2.56h-13.09
	c0.23,1.18,0.75,2.12,1.54,2.79s1.82,1.02,3.09,1.02c2.08,0,3.71-0.73,4.88-2.19l3.01,3.55c-0.82,1.13-1.98,2.03-3.49,2.71
	S213.07,204.93,211.34,204.93z M210.6,188.1c-1.93,0-3.07,1.28-3.44,3.83h6.64v-0.51c0.03-1.05-0.24-1.87-0.8-2.45
	S211.64,188.1,210.6,188.1z M235.67,189.37l-2.17-0.16c-2.07,0-3.4,0.65-3.98,1.95v13.38h-6.58v-21.13h6.17l0.21,2.71
	c1.11-2.07,2.65-3.11,4.63-3.11c0.7,0,1.32,0.08,1.84,0.23L235.67,189.37z M246.69,178.16v5.25h3.48v4.57h-3.48v9.67
	c0,0.79,0.14,1.35,0.43,1.66s0.85,0.47,1.7,0.47c0.65,0,1.2-0.04,1.64-0.12v4.71c-1.18,0.38-2.42,0.57-3.71,0.57
	c-2.27,0-3.94-0.53-5.02-1.6s-1.62-2.69-1.62-4.86v-10.49h-2.7v-4.57h2.7v-5.25H246.69z M263.82,198.61c0-0.56-0.29-1.01-0.88-1.35
	s-1.7-0.69-3.34-1.05s-3-0.84-4.06-1.44s-1.88-1.31-2.44-2.16s-0.84-1.82-0.84-2.91c0-1.94,0.8-3.54,2.4-4.79s3.7-1.88,6.29-1.88
	c2.79,0,5.03,0.63,6.72,1.89s2.54,2.92,2.54,4.98h-6.6c0-1.69-0.89-2.54-2.68-2.54c-0.69,0-1.27,0.19-1.74,0.58s-0.7,0.86-0.7,1.44
	c0,0.59,0.29,1.06,0.86,1.43s1.49,0.66,2.74,0.9s2.36,0.51,3.31,0.84c3.18,1.09,4.77,3.05,4.77,5.88c0,1.93-0.86,3.5-2.57,4.71
	s-3.93,1.82-6.65,1.82c-1.81,0-3.42-0.33-4.84-0.98s-2.53-1.54-3.32-2.66s-1.19-2.3-1.19-3.54h6.15c0.03,0.98,0.35,1.69,0.98,2.14
	s1.43,0.67,2.4,0.67c0.9,0,1.57-0.18,2.02-0.55S263.82,199.19,263.82,198.61z M275.56,212.2l-3.32-1.56l0.66-1.33
	c0.91-1.69,1.39-3.31,1.43-4.84v-4.88h5.27l-0.02,4.24c-0.01,1.5-0.4,3.02-1.15,4.57S276.72,211.21,275.56,212.2z M318.04,204.54
	h-23.81v-5.16l10.97-11.53c2.7-3.08,4.05-5.52,4.05-7.34c0-1.47-0.32-2.59-0.96-3.35s-1.57-1.15-2.79-1.15
	c-1.2,0-2.18,0.51-2.93,1.54s-1.12,2.3-1.12,3.83h-7.92c0-2.09,0.52-4.03,1.57-5.8s2.5-3.16,4.36-4.16s3.94-1.5,6.23-1.5
	c3.69,0,6.53,0.85,8.52,2.55s2.99,4.15,2.99,7.34c0,1.34-0.25,2.65-0.75,3.93s-1.28,2.61-2.33,4.01s-2.75,3.27-5.1,5.61l-4.41,5.09
	h13.43V204.54z M342.88,191.21h3.47v6.09h-3.47v7.24h-7.9v-7.24h-13.2l-0.47-4.83l13.66-21.98v-0.07h7.9V191.21z M328.84,191.21
	h6.14v-10.5l-0.49,0.8L328.84,191.21z M352.65,207.47h-5.6l11.65-37.05h5.62L352.65,207.47z M390.39,174.64l-12.75,29.91h-8.34
	l12.77-28.03H365.8v-6.09h24.59V174.64z"/>
</svg>
