<?xml version="1.0" encoding="utf-8"?>
<!-- Generator: Adobe Illustrator 24.2.3, SVG Export Plug-In . SVG Version: 6.00 Build 0)  -->
<svg version="1.1" id="Layer_1" xmlns="http://www.w3.org/2000/svg" xmlns:xlink="http://www.w3.org/1999/xlink" x="0px" y="0px"
	 viewBox="0 0 970 250" style="enable-background:new 0 0 970 250;" xml:space="preserve">
<style type="text/css">
	.st0{fill:url(#SVGID_1_);}
</style>
<linearGradient id="SVGID_1_" gradientUnits="userSpaceOnUse" x1="167.7617" y1="156.3589" x2="615.0176" y2="156.3589">
	<stop  offset="0" style="stop-color:#18B9FB"/>
	<stop  offset="0.5" style="stop-color:#782EEB"/>
	<stop  offset="1" style="stop-color:#E82D8A"/>
</linearGradient>
<path class="st0" d="M192.12,123.22h-8.75v23.72h-7.03v-23.72h-8.59v-5.43h24.36V123.22z M206.58,131.39l-2.22-0.16
	c-2.12,0-3.48,0.67-4.08,2v13.71h-6.75v-21.66h6.33l0.22,2.78c1.13-2.12,2.72-3.18,4.74-3.18c0.72,0,1.35,0.08,1.88,0.24
	L206.58,131.39z M220.61,146.94c-0.24-0.44-0.45-1.09-0.64-1.94c-1.24,1.56-2.98,2.34-5.21,2.34c-2.04,0-3.78-0.62-5.21-1.85
	c-1.43-1.23-2.14-2.79-2.14-4.65c0-2.35,0.87-4.12,2.6-5.33c1.73-1.2,4.26-1.8,7.57-1.8h2.08v-1.15c0-2-0.86-3-2.58-3
	c-1.6,0-2.4,0.79-2.4,2.37h-6.75c0-2.09,0.89-3.79,2.67-5.1c1.78-1.31,4.05-1.96,6.82-1.96c2.76,0,4.95,0.67,6.55,2.02
	c1.6,1.35,2.42,3.2,2.46,5.54v9.59c0.03,1.99,0.33,3.51,0.92,4.56v0.34H220.61z M216.39,142.54c0.84,0,1.54-0.18,2.09-0.54
	c0.55-0.36,0.95-0.77,1.19-1.22v-3.46h-1.96c-2.35,0-3.52,1.05-3.52,3.16c0,0.61,0.21,1.11,0.62,1.49
	C215.22,142.35,215.75,142.54,216.39,142.54z M239.33,142.14c0.95,0,1.68-0.26,2.2-0.77s0.77-1.23,0.76-2.15h6.33
	c0,2.38-0.85,4.32-2.55,5.85c-1.7,1.52-3.89,2.28-6.58,2.28c-3.15,0-5.63-0.99-7.45-2.96c-1.82-1.97-2.72-4.71-2.72-8.21v-0.28
	c0-2.19,0.4-4.12,1.21-5.8c0.81-1.67,1.97-2.96,3.49-3.86c1.52-0.9,3.32-1.35,5.4-1.35c2.82,0,5.05,0.78,6.71,2.34
	c1.65,1.56,2.48,3.68,2.48,6.35h-6.33c0-1.12-0.27-1.98-0.82-2.58c-0.55-0.6-1.28-0.9-2.2-0.9c-1.75,0-2.77,1.11-3.06,3.34
	c-0.09,0.71-0.14,1.68-0.14,2.92c0,2.17,0.26,3.68,0.78,4.52C237.37,141.72,238.2,142.14,239.33,142.14z M260.17,138.88l-1.9,1.9
	v6.17h-6.75v-30.77h6.75v16.34l0.68-0.9l5.08-6.33h8.09l-7.59,8.91l8.09,12.75h-7.73L260.17,138.88z M292.76,137.49l3.6-12.21h7.23
	l-8.83,25.28l-0.38,0.92c-1.25,2.8-3.47,4.2-6.65,4.2c-0.88,0-1.81-0.13-2.78-0.4v-4.81h0.88c0.95,0,1.67-0.14,2.17-0.41
	c0.5-0.27,0.87-0.76,1.11-1.47l0.54-1.44l-7.53-21.88h7.21L292.76,137.49z M304.2,135.91c0-2.16,0.42-4.09,1.26-5.78
	c0.84-1.69,2.05-2.99,3.62-3.89c1.57-0.91,3.42-1.36,5.54-1.36c3.24,0,5.8,1,7.67,3.01c1.87,2.01,2.8,4.74,2.8,8.2v0.24
	c0,3.38-0.94,6.06-2.81,8.04c-1.88,1.98-4.41,2.97-7.62,2.97c-3.08,0-5.56-0.92-7.43-2.77c-1.87-1.85-2.88-4.35-3.02-7.52
	L304.2,135.91z M310.94,136.33c0,2,0.31,3.47,0.94,4.4c0.63,0.93,1.55,1.4,2.78,1.4c2.4,0,3.63-1.85,3.68-5.54v-0.68
	c0-3.88-1.24-5.83-3.72-5.83c-2.25,0-3.48,1.67-3.66,5.02L310.94,136.33z M340.97,144.6c-1.43,1.83-3.36,2.74-5.79,2.74
	c-2.38,0-4.17-0.69-5.4-2.07c-1.22-1.38-1.83-3.37-1.83-5.96v-14.03h6.75v14.07c0,1.86,0.9,2.78,2.7,2.78c1.55,0,2.65-0.55,3.3-1.66
	v-15.19h6.79v21.66h-6.33L340.97,144.6z M364.29,131.39l-2.22-0.16c-2.12,0-3.48,0.67-4.08,2v13.71h-6.75v-21.66h6.33l0.22,2.78
	c1.13-2.12,2.72-3.18,4.74-3.18c0.72,0,1.35,0.08,1.88,0.24L364.29,131.39z M386.09,142.14c0.95,0,1.68-0.26,2.2-0.77
	s0.77-1.23,0.76-2.15h6.33c0,2.38-0.85,4.32-2.55,5.85c-1.7,1.52-3.89,2.28-6.58,2.28c-3.15,0-5.63-0.99-7.45-2.96
	c-1.82-1.97-2.72-4.71-2.72-8.21v-0.28c0-2.19,0.4-4.12,1.21-5.8c0.81-1.67,1.97-2.96,3.49-3.86c1.52-0.9,3.32-1.35,5.4-1.35
	c2.82,0,5.05,0.78,6.71,2.34c1.65,1.56,2.48,3.68,2.48,6.35h-6.33c0-1.12-0.27-1.98-0.82-2.58c-0.55-0.6-1.28-0.9-2.2-0.9
	c-1.75,0-2.77,1.11-3.06,3.34c-0.09,0.71-0.14,1.68-0.14,2.92c0,2.17,0.26,3.68,0.78,4.52
	C384.13,141.72,384.96,142.14,386.09,142.14z M411.34,131.39l-2.22-0.16c-2.12,0-3.48,0.67-4.08,2v13.71h-6.75v-21.66h6.33
	l0.22,2.78c1.13-2.12,2.72-3.18,4.74-3.18c0.72,0,1.35,0.08,1.88,0.24L411.34,131.39z M423.87,147.34c-3.32,0-6.01-0.99-8.07-2.97
	c-2.06-1.98-3.08-4.56-3.08-7.74v-0.56c0-2.21,0.41-4.17,1.23-5.87c0.82-1.69,2.02-3.01,3.59-3.93c1.57-0.93,3.44-1.39,5.61-1.39
	c3.04,0,5.45,0.94,7.21,2.83s2.64,4.52,2.64,7.9v2.62h-13.41c0.24,1.21,0.77,2.17,1.58,2.86c0.81,0.69,1.87,1.04,3.16,1.04
	c2.14,0,3.8-0.75,5.01-2.24l3.08,3.64c-0.84,1.16-2.03,2.09-3.57,2.77C427.31,147,425.65,147.34,423.87,147.34z M423.11,130.09
	c-1.98,0-3.15,1.31-3.52,3.92h6.81v-0.52c0.03-1.08-0.25-1.92-0.82-2.51C425,130.38,424.18,130.09,423.11,130.09z M434.86,135.95
	c0-3.43,0.74-6.13,2.22-8.11c1.48-1.97,3.55-2.96,6.21-2.96c1.94,0,3.56,0.76,4.88,2.28v-10.97h6.77v30.75h-6.07l-0.34-2.32
	c-1.39,1.82-3.15,2.72-5.29,2.72c-2.58,0-4.62-0.99-6.13-2.96C435.62,142.41,434.86,139.6,434.86,135.95z M441.61,136.37
	c0,3.84,1.12,5.77,3.36,5.77c1.5,0,2.56-0.63,3.2-1.88v-8.25c-0.61-1.28-1.67-1.92-3.16-1.92c-2.08,0-3.21,1.68-3.38,5.04
	L441.61,136.37z M458.73,119.7c0-0.96,0.35-1.75,1.04-2.36c0.69-0.61,1.59-0.92,2.7-0.92c1.11,0,2.01,0.31,2.7,0.92
	c0.69,0.61,1.04,1.4,1.04,2.36s-0.35,1.75-1.04,2.36c-0.69,0.61-1.59,0.92-2.7,0.92c-1.11,0-2.01-0.31-2.7-0.92
	C459.07,121.45,458.73,120.66,458.73,119.7z M465.89,146.94h-6.77v-21.66h6.77V146.94z M477.9,119.9v5.39h3.56v4.68h-3.56v9.91
	c0,0.81,0.15,1.38,0.44,1.7c0.29,0.32,0.87,0.48,1.74,0.48c0.67,0,1.23-0.04,1.68-0.12v4.83c-1.21,0.39-2.48,0.58-3.8,0.58
	c-2.32,0-4.04-0.55-5.15-1.64c-1.11-1.09-1.66-2.76-1.66-4.99v-10.75h-2.76v-4.68h2.76v-5.39H477.9z M505.67,140.86
	c0-0.57-0.3-1.03-0.9-1.38c-0.6-0.35-1.74-0.71-3.42-1.08c-1.68-0.37-3.07-0.86-4.16-1.47c-1.09-0.61-1.93-1.34-2.5-2.21
	c-0.57-0.87-0.86-1.86-0.86-2.98c0-1.99,0.82-3.63,2.46-4.92c1.64-1.29,3.79-1.93,6.45-1.93c2.86,0,5.15,0.65,6.89,1.94
	c1.73,1.29,2.6,3,2.6,5.1h-6.77c0-1.73-0.91-2.6-2.74-2.6c-0.71,0-1.3,0.2-1.78,0.59s-0.72,0.88-0.72,1.47
	c0,0.6,0.29,1.09,0.88,1.46c0.59,0.37,1.52,0.68,2.81,0.92s2.42,0.53,3.39,0.86c3.26,1.12,4.88,3.13,4.88,6.03
	c0,1.98-0.88,3.58-2.63,4.83c-1.75,1.24-4.03,1.86-6.82,1.86c-1.86,0-3.51-0.33-4.96-1c-1.46-0.67-2.59-1.57-3.4-2.72
	c-0.81-1.15-1.22-2.36-1.22-3.62h6.31c0.03,1,0.36,1.73,1,2.19c0.64,0.46,1.46,0.69,2.46,0.69c0.92,0,1.61-0.19,2.07-0.56
	C505.44,141.95,505.67,141.46,505.67,140.86z M524.49,142.14c0.95,0,1.68-0.26,2.2-0.77s0.77-1.23,0.76-2.15h6.33
	c0,2.38-0.85,4.32-2.55,5.85c-1.7,1.52-3.89,2.28-6.58,2.28c-3.15,0-5.63-0.99-7.45-2.96c-1.82-1.97-2.72-4.71-2.72-8.21v-0.28
	c0-2.19,0.4-4.12,1.21-5.8c0.81-1.67,1.97-2.96,3.49-3.86c1.52-0.9,3.32-1.35,5.4-1.35c2.82,0,5.05,0.78,6.71,2.34
	c1.65,1.56,2.48,3.68,2.48,6.35h-6.33c0-1.12-0.27-1.98-0.82-2.58c-0.55-0.6-1.28-0.9-2.2-0.9c-1.75,0-2.77,1.11-3.06,3.34
	c-0.09,0.71-0.14,1.68-0.14,2.92c0,2.17,0.26,3.68,0.78,4.52C522.53,141.72,523.36,142.14,524.49,142.14z M535.78,135.91
	c0-2.16,0.42-4.09,1.26-5.78c0.84-1.69,2.05-2.99,3.62-3.89c1.57-0.91,3.42-1.36,5.54-1.36c3.24,0,5.8,1,7.67,3.01
	c1.87,2.01,2.8,4.74,2.8,8.2v0.24c0,3.38-0.94,6.06-2.81,8.04c-1.88,1.98-4.41,2.97-7.62,2.97c-3.08,0-5.56-0.92-7.43-2.77
	c-1.87-1.85-2.88-4.35-3.02-7.52L535.78,135.91z M542.53,136.33c0,2,0.31,3.47,0.94,4.4c0.63,0.93,1.55,1.4,2.78,1.4
	c2.4,0,3.63-1.85,3.68-5.54v-0.68c0-3.88-1.24-5.83-3.72-5.83c-2.25,0-3.48,1.67-3.66,5.02L542.53,136.33z M572.76,131.39
	l-2.22-0.16c-2.12,0-3.48,0.67-4.08,2v13.71h-6.75v-21.66h6.33l0.22,2.78c1.13-2.12,2.72-3.18,4.74-3.18c0.72,0,1.35,0.08,1.88,0.24
	L572.76,131.39z M585.29,147.34c-3.32,0-6.01-0.99-8.07-2.97c-2.06-1.98-3.08-4.56-3.08-7.74v-0.56c0-2.21,0.41-4.17,1.23-5.87
	c0.82-1.69,2.02-3.01,3.59-3.93c1.57-0.93,3.44-1.39,5.61-1.39c3.04,0,5.45,0.94,7.21,2.83s2.64,4.52,2.64,7.9v2.62H581
	c0.24,1.21,0.77,2.17,1.58,2.86c0.81,0.69,1.87,1.04,3.16,1.04c2.14,0,3.8-0.75,5.01-2.24l3.08,3.64c-0.84,1.16-2.03,2.09-3.57,2.77
	C588.72,147,587.06,147.34,585.29,147.34z M584.53,130.09c-1.98,0-3.15,1.31-3.52,3.92h6.81v-0.52c0.03-1.08-0.25-1.92-0.82-2.51
	C586.42,130.38,585.6,130.09,584.53,130.09z M608.47,140.86c0-0.57-0.3-1.03-0.9-1.38c-0.6-0.35-1.74-0.71-3.42-1.08
	c-1.68-0.37-3.07-0.86-4.16-1.47c-1.09-0.61-1.93-1.34-2.5-2.21c-0.57-0.87-0.86-1.86-0.86-2.98c0-1.99,0.82-3.63,2.46-4.92
	c1.64-1.29,3.79-1.93,6.45-1.93c2.86,0,5.15,0.65,6.89,1.94c1.73,1.29,2.6,3,2.6,5.1h-6.77c0-1.73-0.91-2.6-2.74-2.6
	c-0.71,0-1.3,0.2-1.78,0.59s-0.72,0.88-0.72,1.47c0,0.6,0.29,1.09,0.88,1.46c0.59,0.37,1.52,0.68,2.81,0.92s2.42,0.53,3.39,0.86
	c3.26,1.12,4.88,3.13,4.88,6.03c0,1.98-0.88,3.58-2.63,4.83c-1.75,1.24-4.03,1.86-6.82,1.86c-1.86,0-3.51-0.33-4.96-1
	c-1.46-0.67-2.59-1.57-3.4-2.72c-0.81-1.15-1.22-2.36-1.22-3.62h6.31c0.03,1,0.36,1.73,1,2.19c0.64,0.46,1.46,0.69,2.46,0.69
	c0.92,0,1.61-0.19,2.07-0.56C608.24,141.95,608.47,141.46,608.47,140.86z M179.41,196.54c-3.32,0-6.01-0.99-8.07-2.97
	c-2.06-1.98-3.08-4.56-3.08-7.74v-0.56c0-2.21,0.41-4.17,1.23-5.87c0.82-1.69,2.02-3.01,3.59-3.93c1.57-0.93,3.44-1.39,5.61-1.39
	c3.04,0,5.45,0.94,7.21,2.83s2.64,4.52,2.64,7.9v2.62h-13.41c0.24,1.21,0.77,2.17,1.58,2.86c0.81,0.69,1.87,1.04,3.16,1.04
	c2.14,0,3.8-0.75,5.01-2.24l3.08,3.64c-0.84,1.16-2.03,2.09-3.57,2.77C182.85,196.2,181.19,196.54,179.41,196.54z M178.65,179.29
	c-1.98,0-3.15,1.31-3.52,3.92h6.81v-0.52c0.03-1.08-0.25-1.92-0.82-2.51C180.54,179.58,179.72,179.29,178.65,179.29z M203.46,196.14
	c-0.24-0.44-0.45-1.09-0.64-1.94c-1.24,1.56-2.98,2.34-5.21,2.34c-2.04,0-3.78-0.62-5.21-1.85c-1.43-1.23-2.14-2.79-2.14-4.65
	c0-2.35,0.87-4.12,2.6-5.33c1.73-1.2,4.26-1.8,7.57-1.8h2.08v-1.15c0-2-0.86-3-2.58-3c-1.6,0-2.4,0.79-2.4,2.37h-6.75
	c0-2.09,0.89-3.79,2.67-5.1c1.78-1.31,4.05-1.96,6.82-1.96c2.76,0,4.95,0.67,6.55,2.02c1.6,1.35,2.42,3.2,2.46,5.54v9.59
	c0.03,1.99,0.33,3.51,0.92,4.56v0.34H203.46z M199.23,191.74c0.84,0,1.54-0.18,2.09-0.54c0.55-0.36,0.95-0.77,1.19-1.22v-3.46h-1.96
	c-2.35,0-3.52,1.05-3.52,3.16c0,0.61,0.21,1.11,0.62,1.49C198.06,191.55,198.59,191.74,199.23,191.74z M222.17,191.34
	c0.95,0,1.68-0.26,2.2-0.77s0.77-1.23,0.76-2.15h6.33c0,2.38-0.85,4.32-2.55,5.85c-1.7,1.52-3.89,2.28-6.58,2.28
	c-3.15,0-5.63-0.99-7.45-2.96c-1.82-1.97-2.72-4.71-2.72-8.21v-0.28c0-2.19,0.4-4.12,1.21-5.8c0.81-1.67,1.97-2.96,3.49-3.86
	c1.52-0.9,3.32-1.35,5.4-1.35c2.82,0,5.05,0.78,6.71,2.34c1.65,1.56,2.48,3.68,2.48,6.35h-6.33c0-1.12-0.27-1.98-0.82-2.58
	c-0.55-0.6-1.28-0.9-2.2-0.9c-1.75,0-2.77,1.11-3.06,3.34c-0.09,0.71-0.14,1.68-0.14,2.92c0,2.17,0.26,3.68,0.78,4.52
	C220.21,190.92,221.04,191.34,222.17,191.34z M240.91,176.8c1.44-1.81,3.28-2.72,5.53-2.72c2.39,0,4.19,0.71,5.41,2.12
	c1.21,1.42,1.83,3.5,1.86,6.27v13.67h-6.77v-13.51c0-1.15-0.23-1.99-0.7-2.53c-0.47-0.54-1.26-0.81-2.38-0.81
	c-1.39,0-2.37,0.44-2.94,1.32v15.54h-6.75v-30.75h6.75V176.8z M274.04,174.48l0.22,2.54c1.53-1.96,3.6-2.94,6.19-2.94
	c2.74,0,4.58,1.09,5.55,3.26c1.47-2.17,3.59-3.26,6.37-3.26c4.39,0,6.65,2.66,6.77,7.97v14.09h-6.77v-13.67
	c0-1.11-0.19-1.91-0.56-2.42c-0.37-0.51-1.05-0.76-2.04-0.76c-1.33,0-2.33,0.59-2.98,1.78l0.02,0.28v14.79h-6.77v-13.63
	c0-1.13-0.18-1.96-0.54-2.46c-0.36-0.51-1.05-0.76-2.06-0.76c-1.29,0-2.28,0.59-2.96,1.78v15.07h-6.75v-21.66H274.04z
	 M302.13,185.11c0-2.16,0.42-4.09,1.26-5.78c0.84-1.69,2.05-2.99,3.62-3.89c1.57-0.91,3.42-1.36,5.54-1.36c3.24,0,5.8,1,7.67,3.01
	c1.87,2.01,2.8,4.74,2.8,8.2v0.24c0,3.38-0.94,6.06-2.81,8.04c-1.88,1.98-4.41,2.97-7.62,2.97c-3.08,0-5.56-0.92-7.43-2.77
	c-1.87-1.85-2.88-4.35-3.02-7.52L302.13,185.11z M308.88,185.53c0,2,0.31,3.47,0.94,4.4c0.63,0.93,1.55,1.4,2.78,1.4
	c2.4,0,3.63-1.85,3.68-5.54v-0.68c0-3.88-1.24-5.83-3.72-5.83c-2.25,0-3.48,1.67-3.66,5.02L308.88,185.53z M332.2,174.48l0.22,2.54
	c1.49-1.96,3.56-2.94,6.19-2.94c2.25,0,3.94,0.67,5.05,2.02c1.11,1.35,1.69,3.38,1.73,6.09v13.95h-6.77v-13.67
	c0-1.09-0.22-1.9-0.66-2.41c-0.44-0.51-1.24-0.77-2.4-0.77c-1.32,0-2.3,0.52-2.94,1.56v15.29h-6.75v-21.66H332.2z M356.99,169.1
	v5.39h3.56v4.68h-3.56v9.91c0,0.81,0.15,1.38,0.44,1.7c0.29,0.32,0.87,0.48,1.74,0.48c0.67,0,1.23-0.04,1.68-0.12v4.83
	c-1.21,0.39-2.48,0.58-3.8,0.58c-2.32,0-4.04-0.55-5.15-1.64c-1.11-1.09-1.66-2.76-1.66-4.99v-10.75h-2.76v-4.68h2.76v-5.39H356.99z
	 M369.8,176.8c1.44-1.81,3.28-2.72,5.53-2.72c2.39,0,4.19,0.71,5.41,2.12c1.21,1.42,1.83,3.5,1.86,6.27v13.67h-6.77v-13.51
	c0-1.15-0.23-1.99-0.7-2.53c-0.47-0.54-1.26-0.81-2.38-0.81c-1.39,0-2.37,0.44-2.94,1.32v15.54h-6.75v-30.75h6.75V176.8z"/>
</svg>
