<svg id="Layer_1" xmlns="http://www.w3.org/2000/svg" viewBox="0 0 970 250"><style>.st0{fill:url(#SVGID_1_)}</style><linearGradient id="SVGID_1_" gradientUnits="userSpaceOnUse" x1="167.92" y1="164.571" x2="631.045" y2="164.571"><stop offset="0" stop-color="#18b9fb"/><stop offset=".5" stop-color="#782eeb"/><stop offset="1" stop-color="#e82d8a"/></linearGradient><path class="st0" d="M179.76 136.88h-3.71v10.06h-6.86V118.5h11.19c3.37 0 6.01.75 7.91 2.24 1.9 1.5 2.85 3.61 2.85 6.34 0 1.98-.4 3.62-1.2 4.92s-2.05 2.35-3.76 3.16l5.94 11.48v.29h-7.34l-5.02-10.05zm-3.72-5.27h4.34c1.3 0 2.28-.34 2.94-1.03.66-.69.99-1.64.99-2.87 0-1.23-.33-2.19-1-2.89s-1.64-1.05-2.93-1.05h-4.34v7.84zm29.17 15.72c-3.24 0-5.87-.97-7.87-2.9s-3.01-4.45-3.01-7.55v-.55c0-2.16.4-4.07 1.2-5.72s1.97-2.93 3.51-3.84 3.36-1.36 5.47-1.36c2.97 0 5.31.92 7.03 2.76s2.58 4.41 2.58 7.71v2.56h-13.09c.23 1.18.75 2.12 1.54 2.79s1.82 1.02 3.09 1.02c2.08 0 3.71-.73 4.88-2.19l3.01 3.55c-.82 1.13-1.98 2.03-3.49 2.71s-3.12 1.01-4.85 1.01zm-.75-16.83c-1.93 0-3.07 1.28-3.44 3.83h6.64v-.51c.03-1.05-.24-1.87-.8-2.45s-1.36-.87-2.4-.87zm21.23 11.76c.92 0 1.64-.25 2.15-.75s.75-1.2.74-2.1h6.17c0 2.32-.83 4.22-2.49 5.7s-3.8 2.23-6.42 2.23c-3.07 0-5.5-.96-7.27-2.89s-2.66-4.6-2.66-8.01v-.27c0-2.14.39-4.02 1.18-5.65s1.92-2.89 3.41-3.77 3.24-1.32 5.27-1.32c2.75 0 4.93.76 6.54 2.29s2.42 3.59 2.42 6.19h-6.17c0-1.09-.27-1.93-.8-2.52s-1.25-.88-2.15-.88c-1.71 0-2.7 1.09-2.99 3.26-.09.69-.14 1.64-.14 2.85 0 2.12.25 3.59.76 4.41s1.35 1.23 2.45 1.23zm22.07 5.07c-3.24 0-5.87-.97-7.87-2.9s-3.01-4.45-3.01-7.55v-.55c0-2.16.4-4.07 1.2-5.72s1.97-2.93 3.51-3.84 3.36-1.36 5.47-1.36c2.97 0 5.31.92 7.03 2.76s2.58 4.41 2.58 7.71v2.56h-13.09c.23 1.18.75 2.12 1.54 2.79s1.82 1.02 3.09 1.02c2.08 0 3.71-.73 4.88-2.19l3.01 3.55c-.82 1.13-1.98 2.03-3.49 2.71s-3.11 1.01-4.85 1.01zm-.74-16.83c-1.93 0-3.07 1.28-3.44 3.83h6.64v-.51c.03-1.05-.24-1.87-.8-2.45s-1.36-.87-2.4-.87zm12.25-10.14c0-.94.34-1.71 1.02-2.3s1.56-.9 2.64-.9 1.96.3 2.64.9 1.02 1.37 1.02 2.3-.34 1.71-1.02 2.3-1.56.9-2.64.9-1.96-.3-2.64-.9-1.02-1.36-1.02-2.3zm6.99 26.58h-6.6v-21.13h6.6v21.13zm12.48-7.83l3.34-13.3h6.93l-6.89 21.13h-6.72l-6.89-21.13h6.95l3.28 13.3zm22.21 8.22c-3.24 0-5.87-.97-7.87-2.9s-3.01-4.45-3.01-7.55v-.55c0-2.16.4-4.07 1.2-5.72s1.97-2.93 3.51-3.84 3.36-1.36 5.47-1.36c2.97 0 5.31.92 7.03 2.76s2.58 4.41 2.58 7.71v2.56h-13.09c.23 1.18.75 2.12 1.54 2.79s1.82 1.02 3.09 1.02c2.08 0 3.71-.73 4.88-2.19l3.01 3.55c-.82 1.13-1.98 2.03-3.49 2.71s-3.12 1.01-4.85 1.01zm-.74-16.83c-1.93 0-3.07 1.28-3.44 3.83h6.64v-.51c.03-1.05-.24-1.87-.8-2.45s-1.36-.87-2.4-.87zm31.19 11.76c.92 0 1.64-.25 2.15-.75s.75-1.2.74-2.1h6.17c0 2.32-.83 4.22-2.49 5.7s-3.8 2.23-6.42 2.23c-3.07 0-5.5-.96-7.27-2.89s-2.66-4.6-2.66-8.01v-.27c0-2.14.39-4.02 1.18-5.65s1.92-2.89 3.41-3.77 3.24-1.32 5.27-1.32c2.75 0 4.93.76 6.54 2.29s2.42 3.59 2.42 6.19h-6.17c0-1.09-.27-1.93-.8-2.52s-1.25-.88-2.15-.88c-1.71 0-2.7 1.09-2.99 3.26-.09.69-.14 1.64-.14 2.85 0 2.12.25 3.59.76 4.41s1.34 1.23 2.45 1.23zm24.63-10.49l-2.17-.16c-2.07 0-3.4.65-3.98 1.95v13.38h-6.58v-21.13h6.17l.21 2.71c1.11-2.07 2.65-3.11 4.63-3.11.7 0 1.32.08 1.84.23l-.12 6.13zm12.22 15.56c-3.24 0-5.87-.97-7.87-2.9s-3.01-4.45-3.01-7.55v-.55c0-2.16.4-4.07 1.2-5.72s1.97-2.93 3.51-3.84 3.36-1.36 5.47-1.36c2.97 0 5.31.92 7.03 2.76s2.58 4.41 2.58 7.71v2.56h-13.09c.23 1.18.75 2.12 1.54 2.79s1.82 1.02 3.09 1.02c2.08 0 3.71-.73 4.88-2.19l3.01 3.55c-.82 1.13-1.98 2.03-3.49 2.71s-3.12 1.01-4.85 1.01zm-.74-16.83c-1.93 0-3.07 1.28-3.44 3.83h6.64v-.51c.03-1.05-.24-1.87-.8-2.45s-1.36-.87-2.4-.87zm11.46 5.72c0-3.35.72-5.98 2.17-7.91s3.46-2.89 6.05-2.89c1.89 0 3.48.74 4.77 2.23v-10.7h6.6v30h-5.92l-.33-2.27c-1.35 1.77-3.07 2.66-5.16 2.66-2.51 0-4.5-.96-5.98-2.89s-2.2-4.67-2.2-8.23zm6.59.41c0 3.75 1.09 5.62 3.28 5.62 1.46 0 2.5-.61 3.12-1.84v-8.05c-.6-1.25-1.63-1.88-3.09-1.88-2.03 0-3.13 1.64-3.3 4.92l-.01 1.23zm16.7-16.27c0-.94.34-1.71 1.02-2.3s1.56-.9 2.64-.9 1.96.3 2.64.9 1.02 1.37 1.02 2.3-.34 1.71-1.02 2.3-1.56.9-2.64.9-1.96-.3-2.64-.9-1.02-1.36-1.02-2.3zm6.99 26.58h-6.6v-21.13h6.6v21.13zm11.72-26.38v5.25h3.48v4.57h-3.48v9.67c0 .79.14 1.35.43 1.66s.85.47 1.7.47c.65 0 1.2-.04 1.64-.12v4.71c-1.18.38-2.42.57-3.71.57-2.27 0-3.94-.53-5.02-1.6s-1.62-2.69-1.62-4.86v-10.49h-2.7v-4.57h2.7v-5.25h6.58zm22.24 5.25l.21 2.48c1.5-1.91 3.51-2.87 6.04-2.87 2.67 0 4.47 1.06 5.41 3.18 1.43-2.12 3.5-3.18 6.21-3.18 4.28 0 6.48 2.59 6.6 7.77v13.75h-6.6V133.6c0-1.08-.18-1.87-.55-2.36s-1.03-.74-1.99-.74c-1.3 0-2.27.58-2.91 1.74l.02.27v14.43h-6.6v-13.3c0-1.11-.18-1.91-.53-2.4s-1.02-.74-2.01-.74c-1.26 0-2.23.58-2.89 1.74v14.71h-6.58v-21.13h6.17zm27.41 10.37c0-2.11.41-3.99 1.23-5.63s2-2.91 3.54-3.8 3.34-1.33 5.41-1.33c3.16 0 5.66.98 7.48 2.94s2.73 4.63 2.73 8v.23c0 3.29-.92 5.91-2.74 7.84s-4.31 2.9-7.43 2.9c-3.01 0-5.42-.9-7.25-2.71s-2.81-4.25-2.95-7.33l-.02-1.11zm6.58.41c0 1.95.31 3.39.92 4.3s1.52 1.37 2.71 1.37c2.34 0 3.54-1.8 3.59-5.41v-.66c0-3.79-1.21-5.68-3.63-5.68-2.2 0-3.39 1.63-3.57 4.9l-.02 1.18zm22.75-10.78l.21 2.48c1.46-1.91 3.47-2.87 6.04-2.87 2.2 0 3.84.66 4.93 1.97s1.65 3.29 1.69 5.94v13.61h-6.6V133.6c0-1.07-.21-1.85-.64-2.35s-1.21-.75-2.34-.75c-1.29 0-2.25.51-2.87 1.52v14.92h-6.58v-21.13h6.16zm16.47-5.45c0-.94.34-1.71 1.02-2.3s1.56-.9 2.64-.9 1.96.3 2.64.9 1.02 1.37 1.02 2.3-.34 1.71-1.02 2.3-1.56.9-2.64.9-1.96-.3-2.64-.9-1.02-1.36-1.02-2.3zm6.99 26.58h-6.6v-21.13h6.6v21.13zm11.72-26.38v5.25h3.48v4.57h-3.48v9.67c0 .79.14 1.35.43 1.66s.85.47 1.7.47c.65 0 1.2-.04 1.64-.12v4.71c-1.18.38-2.42.57-3.71.57-2.27 0-3.94-.53-5.02-1.6s-1.62-2.69-1.62-4.86v-10.49h-2.7v-4.57h2.7v-5.25h6.58zm4.65 15.62c0-2.11.41-3.99 1.23-5.63s2-2.91 3.54-3.8 3.34-1.33 5.41-1.33c3.16 0 5.66.98 7.48 2.94s2.73 4.63 2.73 8v.23c0 3.29-.92 5.91-2.74 7.84s-4.31 2.9-7.43 2.9c-3.01 0-5.42-.9-7.25-2.71s-2.81-4.25-2.95-7.33l-.02-1.11zm6.58.41c0 1.95.31 3.39.92 4.3s1.52 1.37 2.71 1.37c2.34 0 3.54-1.8 3.59-5.41v-.66c0-3.79-1.21-5.68-3.63-5.68-2.2 0-3.39 1.63-3.57 4.9l-.02 1.18zm29.49-4.82l-2.17-.16c-2.07 0-3.4.65-3.98 1.95v13.38h-6.58v-21.13h6.17l.21 2.71c1.11-2.07 2.65-3.11 4.63-3.11.7 0 1.32.08 1.84.23l-.12 6.13zm2.32-11.41c0-.94.34-1.71 1.02-2.3s1.56-.9 2.64-.9 1.96.3 2.64.9 1.02 1.37 1.02 2.3-.34 1.71-1.02 2.3-1.56.9-2.64.9-1.96-.3-2.64-.9-1.02-1.36-1.02-2.3zm7 26.58h-6.6v-21.13h6.6v21.13zm10.09-21.13l.21 2.48c1.46-1.91 3.47-2.87 6.04-2.87 2.2 0 3.84.66 4.93 1.97s1.65 3.29 1.69 5.94v13.61h-6.6V133.6c0-1.07-.21-1.85-.64-2.35s-1.21-.75-2.34-.75c-1.29 0-2.25.51-2.87 1.52v14.92h-6.58v-21.13h6.16zm15.75 10.41c0-2.14.35-4.02 1.05-5.66s1.71-2.91 3.03-3.8 2.84-1.34 4.59-1.34c2.2 0 3.92.74 5.16 2.23l.23-1.84h5.98v20.33c0 1.86-.43 3.48-1.3 4.85s-2.12 2.43-3.76 3.16-3.54 1.1-5.7 1.1c-1.55 0-3.05-.29-4.5-.88s-2.56-1.35-3.33-2.29l2.75-3.87c1.22 1.45 2.84 2.17 4.84 2.17 2.92 0 4.38-1.5 4.38-4.49v-.66c-1.26 1.39-2.86 2.09-4.79 2.09-2.58 0-4.66-.99-6.25-2.96s-2.38-4.61-2.38-7.92v-.22zm6.6.41c0 1.73.33 3.1.98 4.11s1.56 1.51 2.73 1.51c1.42 0 2.45-.48 3.11-1.43v-8.89c-.64-.96-1.66-1.45-3.07-1.45-1.17 0-2.09.52-2.75 1.57s-1 2.59-1 4.58zm-436.82 67.91c-.23-.43-.44-1.06-.62-1.89-1.21 1.52-2.9 2.29-5.08 2.29-1.99 0-3.68-.6-5.08-1.81s-2.09-2.72-2.09-4.54c0-2.29.85-4.02 2.54-5.2s4.15-1.76 7.38-1.76h2.03v-1.12c0-1.95-.84-2.92-2.52-2.92-1.56 0-2.34.77-2.34 2.32h-6.58c0-2.04.87-3.7 2.61-4.97s3.96-1.91 6.65-1.91 4.82.66 6.39 1.97 2.36 3.12 2.4 5.41v9.36c.03 1.94.33 3.42.9 4.45v.33h-6.59zm-4.12-4.29c.82 0 1.5-.18 2.04-.53s.93-.75 1.16-1.19v-3.38h-1.91c-2.29 0-3.44 1.03-3.44 3.09 0 .6.2 1.08.61 1.46s.91.55 1.54.55zm20.39 4.29h-6.6v-30h6.6v30zm14.28.39c-3.24 0-5.87-.97-7.87-2.9s-3.01-4.45-3.01-7.55v-.55c0-2.16.4-4.07 1.2-5.72s1.97-2.93 3.51-3.84 3.36-1.36 5.47-1.36c2.97 0 5.31.92 7.03 2.76s2.58 4.41 2.58 7.71v2.56h-13.09c.23 1.18.75 2.12 1.54 2.79s1.82 1.02 3.09 1.02c2.08 0 3.71-.73 4.88-2.19l3.01 3.55c-.82 1.13-1.98 2.03-3.49 2.71s-3.12 1.01-4.85 1.01zm-.74-16.83c-1.93 0-3.07 1.28-3.44 3.83h6.64v-.51c.03-1.05-.24-1.87-.8-2.45s-1.36-.87-2.4-.87zm25.07 1.27l-2.17-.16c-2.07 0-3.4.65-3.98 1.95v13.38h-6.58v-21.13h6.17l.21 2.71c1.11-2.07 2.65-3.11 4.63-3.11.7 0 1.32.08 1.84.23l-.12 6.13zm11.02-11.21v5.25h3.48v4.57h-3.48v9.67c0 .79.14 1.35.43 1.66s.85.47 1.7.47c.65 0 1.2-.04 1.64-.12v4.71c-1.18.38-2.42.57-3.71.57-2.27 0-3.94-.53-5.02-1.6s-1.62-2.69-1.62-4.86v-10.49h-2.7v-4.57h2.7v-5.25h6.58zm17.13 20.45c0-.56-.29-1.01-.88-1.35s-1.7-.69-3.34-1.05-3-.84-4.06-1.44-1.88-1.31-2.44-2.16-.84-1.82-.84-2.91c0-1.94.8-3.54 2.4-4.79s3.7-1.88 6.29-1.88c2.79 0 5.03.63 6.72 1.89s2.54 2.92 2.54 4.98h-6.6c0-1.69-.89-2.54-2.68-2.54-.69 0-1.27.19-1.74.58s-.7.86-.7 1.44c0 .59.29 1.06.86 1.43s1.49.66 2.74.9 2.36.51 3.31.84c3.18 1.09 4.77 3.05 4.77 5.88 0 1.93-.86 3.5-2.57 4.71s-3.93 1.82-6.65 1.82c-1.81 0-3.42-.33-4.84-.98s-2.53-1.54-3.32-2.66-1.19-2.3-1.19-3.54h6.15c.03.98.35 1.69.98 2.14s1.43.67 2.4.67c.9 0 1.57-.18 2.02-.55s.67-.85.67-1.43zm11.74 13.59l-3.32-1.56.66-1.33c.91-1.69 1.39-3.31 1.43-4.84v-4.88h5.27l-.02 4.24c-.01 1.5-.4 3.02-1.15 4.57s-1.71 2.81-2.87 3.8zm42.48-7.66h-23.81v-5.16l10.97-11.53c2.7-3.08 4.05-5.52 4.05-7.34 0-1.47-.32-2.59-.96-3.35s-1.57-1.15-2.79-1.15c-1.2 0-2.18.51-2.93 1.54s-1.12 2.3-1.12 3.83h-7.92c0-2.09.52-4.03 1.57-5.8s2.5-3.16 4.36-4.16 3.94-1.5 6.23-1.5c3.69 0 6.53.85 8.52 2.55s2.99 4.15 2.99 7.34c0 1.34-.25 2.65-.75 3.93s-1.28 2.61-2.33 4.01-2.75 3.27-5.1 5.61l-4.41 5.09h13.43v6.09zm24.84-13.33h3.47v6.09h-3.47v7.24h-7.9v-7.24h-13.2l-.47-4.83 13.66-21.98v-.07h7.9v20.79zm-14.04 0h6.14v-10.5l-.49.8-5.65 9.7zm23.81 16.26h-5.6l11.65-37.05h5.62l-11.67 37.05zm37.74-32.83l-12.75 29.91h-8.34l12.77-28.03H365.8v-6.09h24.59v4.21z"/></svg>