<?xml version="1.0" encoding="utf-8"?>
<!-- Generator: Adobe Illustrator 24.2.3, SVG Export Plug-In . SVG Version: 6.00 Build 0)  -->
<svg version="1.1" id="Layer_1" xmlns="http://www.w3.org/2000/svg" xmlns:xlink="http://www.w3.org/1999/xlink" x="0px" y="0px"
	 viewBox="0 0 320 100" style="enable-background:new 0 0 320 100;" xml:space="preserve">
<style type="text/css">
	.st0{fill:#021D8B;}
</style>
<g>
	<path class="st0" d="M149.06,70.69c0-0.3-0.11-0.55-0.31-0.76c-0.21-0.21-0.56-0.39-1.06-0.56c-0.69-0.21-1.2-0.49-1.52-0.83
		c-0.32-0.34-0.48-0.77-0.48-1.3c0-0.53,0.16-0.97,0.47-1.31c0.31-0.34,0.74-0.54,1.28-0.61v-1.07h0.73v1.07
		c0.55,0.08,0.97,0.3,1.28,0.69c0.3,0.38,0.46,0.91,0.46,1.58H149c0-0.46-0.11-0.83-0.33-1.1c-0.22-0.27-0.51-0.41-0.88-0.41
		c-0.39,0-0.68,0.1-0.89,0.3c-0.21,0.2-0.31,0.48-0.31,0.84c0,0.33,0.11,0.6,0.33,0.79c0.22,0.2,0.57,0.38,1.07,0.54
		c0.5,0.16,0.88,0.34,1.16,0.53c0.28,0.19,0.48,0.42,0.62,0.68c0.13,0.26,0.2,0.56,0.2,0.9c0,0.55-0.17,0.99-0.5,1.33
		c-0.33,0.34-0.79,0.53-1.39,0.6v0.93h-0.72V72.6c-0.61-0.05-1.08-0.27-1.42-0.65c-0.34-0.38-0.52-0.89-0.52-1.53h0.9
		c0,0.45,0.12,0.8,0.36,1.04s0.57,0.37,1.01,0.37c0.43,0,0.76-0.1,1.01-0.31S149.06,71.04,149.06,70.69z"/>
	<path class="st0" d="M154.05,72.52h-0.91V66.5l-1.82,0.67v-0.82l2.59-0.97h0.14V72.52z"/>
	<path class="st0" d="M160.5,65.96v1.28h0.99v0.7h-0.99v3.28c0,0.21,0.04,0.37,0.13,0.48c0.09,0.11,0.24,0.16,0.45,0.16
		c0.1,0,0.25-0.02,0.43-0.06v0.73c-0.24,0.06-0.47,0.1-0.69,0.1c-0.4,0-0.71-0.12-0.91-0.37s-0.31-0.59-0.31-1.04v-3.28h-0.96v-0.7
		h0.96v-1.28H160.5z"/>
	<path class="st0" d="M165.09,68.05c-0.14-0.02-0.29-0.03-0.44-0.03c-0.59,0-0.99,0.25-1.21,0.76v3.75h-0.9v-5.28h0.88l0.01,0.61
		c0.3-0.47,0.72-0.71,1.26-0.71c0.18,0,0.31,0.02,0.4,0.07V68.05z"/>
	<path class="st0" d="M165.92,65.84c0-0.15,0.04-0.27,0.13-0.37c0.09-0.1,0.22-0.15,0.4-0.15s0.31,0.05,0.4,0.15
		c0.09,0.1,0.14,0.22,0.14,0.37s-0.05,0.27-0.14,0.37s-0.22,0.15-0.4,0.15s-0.31-0.05-0.4-0.15
		C165.97,66.1,165.92,65.98,165.92,65.84z M166.9,72.52H166v-5.28h0.9V72.52z"/>
	<path class="st0" d="M171.61,72.52c-0.05-0.1-0.09-0.29-0.13-0.56c-0.42,0.44-0.92,0.65-1.5,0.65c-0.52,0-0.95-0.15-1.28-0.44
		c-0.33-0.29-0.5-0.67-0.5-1.12c0-0.55,0.21-0.98,0.63-1.28c0.42-0.3,1.01-0.46,1.76-0.46h0.88V68.9c0-0.32-0.09-0.57-0.28-0.75
		c-0.19-0.19-0.47-0.28-0.83-0.28c-0.32,0-0.59,0.08-0.81,0.24c-0.22,0.16-0.33,0.36-0.33,0.59h-0.91c0-0.26,0.09-0.52,0.28-0.76
		c0.19-0.25,0.44-0.44,0.76-0.58c0.32-0.14,0.67-0.21,1.06-0.21c0.61,0,1.09,0.15,1.43,0.46c0.34,0.3,0.52,0.72,0.54,1.26v2.43
		c0,0.49,0.06,0.87,0.19,1.16v0.08H171.61z M170.11,71.83c0.28,0,0.55-0.07,0.81-0.22s0.44-0.34,0.55-0.57v-1.08h-0.71
		c-1.11,0-1.66,0.32-1.66,0.97c0,0.28,0.09,0.5,0.28,0.66C169.57,71.75,169.81,71.83,170.11,71.83z"/>
	<path class="st0" d="M174.77,72.52h-0.9v-7.5h0.9V72.52z"/>
	<path class="st0" d="M179.13,72.52v-4.58h-0.83v-0.7h0.83V66.7c0-0.57,0.15-1,0.45-1.31c0.3-0.31,0.73-0.46,1.28-0.46
		c0.21,0,0.42,0.03,0.62,0.08l-0.05,0.73c-0.15-0.03-0.32-0.04-0.49-0.04c-0.29,0-0.52,0.09-0.68,0.26
		c-0.16,0.17-0.24,0.42-0.24,0.74v0.56h1.13v0.7h-1.13v4.58H179.13z"/>
	<path class="st0" d="M181.92,69.83c0-0.52,0.1-0.98,0.31-1.4c0.2-0.41,0.49-0.73,0.85-0.96c0.36-0.22,0.78-0.34,1.24-0.34
		c0.72,0,1.3,0.25,1.75,0.75c0.44,0.5,0.67,1.16,0.67,1.99v0.06c0,0.51-0.1,0.98-0.29,1.38c-0.2,0.41-0.48,0.73-0.85,0.95
		c-0.37,0.23-0.79,0.34-1.26,0.34c-0.72,0-1.3-0.25-1.74-0.75c-0.45-0.5-0.67-1.16-0.67-1.98V69.83z M182.83,69.94
		c0,0.59,0.14,1.06,0.41,1.41c0.27,0.36,0.64,0.53,1.09,0.53c0.46,0,0.82-0.18,1.09-0.54c0.27-0.36,0.41-0.86,0.41-1.51
		c0-0.58-0.14-1.05-0.41-1.41c-0.27-0.36-0.64-0.54-1.1-0.54c-0.45,0-0.81,0.18-1.08,0.53C182.97,68.77,182.83,69.28,182.83,69.94z"
		/>
	<path class="st0" d="M190.42,68.05c-0.14-0.02-0.29-0.03-0.44-0.03c-0.59,0-0.99,0.25-1.21,0.76v3.75h-0.9v-5.28h0.88l0.01,0.61
		c0.3-0.47,0.72-0.71,1.26-0.71c0.18,0,0.31,0.02,0.4,0.07V68.05z"/>
	<path class="st0" d="M194.95,65.96v1.28h0.99v0.7h-0.99v3.28c0,0.21,0.04,0.37,0.13,0.48c0.09,0.11,0.24,0.16,0.45,0.16
		c0.1,0,0.25-0.02,0.43-0.06v0.73c-0.24,0.06-0.47,0.1-0.69,0.1c-0.4,0-0.71-0.12-0.91-0.37s-0.31-0.59-0.31-1.04v-3.28h-0.96v-0.7
		h0.96v-1.28H194.95z"/>
	<path class="st0" d="M197.89,67.88c0.4-0.49,0.92-0.74,1.56-0.74c1.12,0,1.68,0.63,1.69,1.89v3.49h-0.9v-3.5
		c0-0.38-0.09-0.66-0.26-0.84c-0.17-0.18-0.44-0.27-0.8-0.27c-0.29,0-0.55,0.08-0.77,0.23s-0.39,0.36-0.52,0.62v3.76h-0.9v-7.5h0.9
		V67.88z"/>
	<path class="st0" d="M204.69,72.62c-0.72,0-1.3-0.24-1.75-0.71c-0.45-0.47-0.67-1.1-0.67-1.89v-0.17c0-0.52,0.1-0.99,0.3-1.4
		c0.2-0.41,0.48-0.73,0.84-0.97c0.36-0.23,0.75-0.35,1.17-0.35c0.69,0,1.22,0.23,1.6,0.68c0.38,0.45,0.57,1.1,0.57,1.94v0.38h-3.58
		c0.01,0.52,0.17,0.94,0.46,1.26c0.29,0.32,0.66,0.48,1.11,0.48c0.32,0,0.59-0.06,0.81-0.2c0.22-0.13,0.42-0.3,0.58-0.52l0.55,0.43
		C206.24,72.28,205.58,72.62,204.69,72.62z M204.58,67.88c-0.36,0-0.67,0.13-0.92,0.4c-0.25,0.26-0.4,0.64-0.46,1.12h2.65v-0.07
		c-0.03-0.46-0.15-0.81-0.37-1.07C205.25,68.01,204.96,67.88,204.58,67.88z"/>
	<path class="st0" d="M210.71,72.52v-4.58h-0.83v-0.7h0.83V66.7c0-0.57,0.15-1,0.45-1.31c0.3-0.31,0.73-0.46,1.28-0.46
		c0.21,0,0.42,0.03,0.62,0.08l-0.05,0.73c-0.15-0.03-0.32-0.04-0.49-0.04c-0.29,0-0.52,0.09-0.68,0.26
		c-0.16,0.17-0.24,0.42-0.24,0.74v0.56h1.13v0.7h-1.13v4.58H210.71z"/>
	<path class="st0" d="M213.75,65.84c0-0.15,0.04-0.27,0.13-0.37c0.09-0.1,0.22-0.15,0.4-0.15s0.31,0.05,0.4,0.15
		c0.09,0.1,0.14,0.22,0.14,0.37s-0.05,0.27-0.14,0.37s-0.22,0.15-0.4,0.15s-0.31-0.05-0.4-0.15
		C213.79,66.1,213.75,65.98,213.75,65.84z M214.72,72.52h-0.9v-5.28h0.9V72.52z"/>
	<path class="st0" d="M218.72,68.05c-0.14-0.02-0.29-0.03-0.44-0.03c-0.59,0-0.99,0.25-1.21,0.76v3.75h-0.9v-5.28h0.88l0.01,0.61
		c0.3-0.47,0.72-0.71,1.26-0.71c0.18,0,0.31,0.02,0.4,0.07V68.05z"/>
	<path class="st0" d="M222.63,71.12c0-0.24-0.09-0.43-0.28-0.57c-0.18-0.14-0.5-0.25-0.96-0.35c-0.46-0.1-0.82-0.21-1.09-0.35
		c-0.27-0.14-0.47-0.3-0.6-0.49c-0.13-0.19-0.19-0.41-0.19-0.67c0-0.43,0.18-0.8,0.55-1.1c0.37-0.3,0.83-0.45,1.4-0.45
		c0.6,0,1.08,0.16,1.46,0.46c0.37,0.31,0.56,0.71,0.56,1.19h-0.91c0-0.25-0.1-0.46-0.32-0.64c-0.21-0.18-0.47-0.27-0.79-0.27
		c-0.33,0-0.59,0.07-0.77,0.21c-0.19,0.14-0.28,0.33-0.28,0.56c0,0.22,0.09,0.38,0.26,0.49c0.17,0.11,0.48,0.22,0.94,0.32
		c0.45,0.1,0.82,0.22,1.1,0.36c0.28,0.14,0.49,0.31,0.62,0.51c0.13,0.2,0.2,0.44,0.2,0.72c0,0.47-0.19,0.85-0.57,1.14
		c-0.38,0.28-0.87,0.43-1.47,0.43c-0.42,0-0.8-0.07-1.12-0.22c-0.33-0.15-0.58-0.36-0.76-0.63c-0.18-0.27-0.28-0.56-0.28-0.87h0.9
		c0.02,0.3,0.14,0.54,0.36,0.72c0.23,0.18,0.53,0.27,0.9,0.27c0.34,0,0.62-0.07,0.82-0.21C222.53,71.54,222.63,71.35,222.63,71.12z"
		/>
	<path class="st0" d="M225.93,65.96v1.28h0.99v0.7h-0.99v3.28c0,0.21,0.04,0.37,0.13,0.48c0.09,0.11,0.24,0.16,0.45,0.16
		c0.1,0,0.25-0.02,0.43-0.06v0.73c-0.24,0.06-0.47,0.1-0.69,0.1c-0.4,0-0.71-0.12-0.91-0.37s-0.31-0.59-0.31-1.04v-3.28h-0.96v-0.7
		h0.96v-1.28H225.93z"/>
	<path class="st0" d="M233.68,72.52h-1.41v-5.44l-1.68,0.52v-1.15l2.94-1.05h0.15V72.52z"/>
	<path class="st0" d="M240.16,69.84h0.81v1.14h-0.81v1.54h-1.41v-1.54h-2.92l-0.06-0.89l2.96-4.68h1.43V69.84z M237.18,69.84h1.57
		v-2.51l-0.09,0.16L237.18,69.84z"/>
	<path class="st0" d="M244.05,69.84c0-0.82,0.18-1.48,0.55-1.97c0.37-0.49,0.87-0.73,1.52-0.73c0.51,0,0.94,0.19,1.27,0.58v-2.7
		h1.42v7.5h-1.27l-0.07-0.56c-0.35,0.44-0.8,0.66-1.36,0.66c-0.62,0-1.12-0.25-1.5-0.73C244.24,71.39,244.05,70.71,244.05,69.84z
		 M245.47,69.95c0,0.5,0.09,0.88,0.26,1.14c0.17,0.26,0.42,0.4,0.75,0.4c0.44,0,0.74-0.18,0.92-0.55v-2.09
		c-0.18-0.37-0.48-0.55-0.91-0.55C245.81,68.29,245.47,68.84,245.47,69.95z"/>
	<path class="st0" d="M252.97,72.52c-0.07-0.13-0.11-0.28-0.14-0.47c-0.34,0.38-0.79,0.57-1.33,0.57c-0.52,0-0.95-0.15-1.29-0.45
		c-0.34-0.3-0.51-0.68-0.51-1.13c0-0.56,0.21-0.99,0.62-1.29c0.41-0.3,1.01-0.45,1.8-0.45h0.65v-0.3c0-0.24-0.06-0.44-0.19-0.59
		c-0.12-0.15-0.32-0.22-0.59-0.22c-0.24,0-0.42,0.06-0.56,0.17c-0.13,0.11-0.2,0.27-0.2,0.47h-1.41c0-0.31,0.09-0.59,0.28-0.85
		c0.19-0.26,0.46-0.46,0.8-0.61c0.34-0.15,0.73-0.22,1.16-0.22c0.65,0,1.17,0.16,1.55,0.49c0.38,0.33,0.57,0.79,0.57,1.38v2.29
		c0,0.5,0.07,0.88,0.21,1.14v0.08H252.97z M251.8,71.54c0.21,0,0.4-0.05,0.58-0.14s0.31-0.22,0.39-0.37v-0.91h-0.53
		c-0.71,0-1.08,0.24-1.13,0.73l0,0.08c0,0.18,0.06,0.32,0.19,0.43C251.42,71.48,251.59,71.54,251.8,71.54z"/>
	<path class="st0" d="M257.24,70.52l0.98-3.29h1.51l-2.12,6.1l-0.12,0.28c-0.32,0.69-0.84,1.04-1.56,1.04
		c-0.21,0-0.41-0.03-0.62-0.09v-1.07l0.21,0c0.27,0,0.47-0.04,0.6-0.12c0.13-0.08,0.24-0.22,0.31-0.41l0.17-0.43l-1.85-5.3h1.52
		L257.24,70.52z"/>
	<path class="st0" d="M263.15,71.06c0-0.17-0.08-0.31-0.26-0.41c-0.17-0.1-0.44-0.19-0.82-0.27c-1.26-0.26-1.88-0.8-1.88-1.6
		c0-0.47,0.19-0.86,0.58-1.17c0.39-0.31,0.9-0.47,1.53-0.47c0.67,0,1.21,0.16,1.61,0.47c0.4,0.32,0.6,0.73,0.6,1.23h-1.41
		c0-0.2-0.07-0.37-0.2-0.5s-0.33-0.2-0.61-0.2c-0.24,0-0.42,0.05-0.55,0.16s-0.2,0.24-0.2,0.41c0,0.16,0.07,0.28,0.22,0.38
		c0.15,0.1,0.4,0.18,0.75,0.25c0.35,0.07,0.65,0.15,0.89,0.24c0.75,0.27,1.12,0.75,1.12,1.42c0,0.48-0.21,0.87-0.62,1.17
		s-0.95,0.45-1.6,0.45c-0.44,0-0.84-0.08-1.18-0.24c-0.34-0.16-0.61-0.38-0.81-0.65c-0.2-0.28-0.29-0.57-0.29-0.89h1.34
		c0.01,0.25,0.11,0.44,0.28,0.58c0.17,0.13,0.4,0.2,0.69,0.2c0.27,0,0.47-0.05,0.61-0.15C263.08,71.36,263.15,71.23,263.15,71.06z"
		/>
	<path class="st0" d="M265.54,73.94l-0.51-0.35c0.31-0.43,0.47-0.87,0.48-1.32v-0.82h0.88v0.71c0,0.33-0.08,0.66-0.24,0.99
		C265.99,73.47,265.79,73.74,265.54,73.94z"/>
	<path class="st0" d="M144.48,81.94c0,0.8-0.18,1.45-0.55,1.94c-0.37,0.49-0.87,0.74-1.49,0.74c-0.64,0-1.15-0.2-1.51-0.61v2.54
		h-0.9v-7.31h0.83l0.04,0.59c0.37-0.46,0.88-0.68,1.53-0.68c0.63,0,1.14,0.24,1.51,0.72c0.37,0.48,0.55,1.14,0.55,2V81.94z
		 M143.57,81.83c0-0.6-0.13-1.07-0.38-1.41c-0.25-0.34-0.6-0.52-1.04-0.52c-0.55,0-0.96,0.24-1.23,0.73v2.52
		c0.27,0.48,0.68,0.72,1.24,0.72c0.43,0,0.78-0.17,1.03-0.51C143.45,83.02,143.57,82.51,143.57,81.83z"/>
	<path class="st0" d="M146.61,84.52h-0.9v-7.5h0.9V84.52z"/>
	<path class="st0" d="M151.31,84.52c-0.05-0.1-0.09-0.29-0.13-0.56c-0.42,0.44-0.92,0.65-1.5,0.65c-0.52,0-0.95-0.15-1.28-0.44
		c-0.33-0.29-0.5-0.67-0.5-1.12c0-0.55,0.21-0.98,0.63-1.28c0.42-0.3,1.01-0.46,1.76-0.46h0.88V80.9c0-0.32-0.09-0.57-0.28-0.75
		c-0.19-0.19-0.47-0.28-0.83-0.28c-0.32,0-0.59,0.08-0.81,0.24c-0.22,0.16-0.33,0.36-0.33,0.59h-0.91c0-0.26,0.09-0.52,0.28-0.76
		c0.19-0.25,0.44-0.44,0.76-0.58c0.32-0.14,0.67-0.21,1.06-0.21c0.61,0,1.09,0.15,1.43,0.46c0.34,0.3,0.52,0.72,0.54,1.26v2.43
		c0,0.49,0.06,0.87,0.19,1.16v0.08H151.31z M149.81,83.83c0.28,0,0.55-0.07,0.81-0.22s0.44-0.34,0.55-0.57v-1.08h-0.71
		c-1.11,0-1.66,0.32-1.66,0.97c0,0.28,0.09,0.5,0.28,0.66C149.27,83.75,149.52,83.83,149.81,83.83z"/>
	<path class="st0" d="M154.34,79.24l0.03,0.66c0.4-0.51,0.93-0.76,1.58-0.76c1.12,0,1.68,0.63,1.69,1.89v3.49h-0.9v-3.5
		c0-0.38-0.09-0.66-0.26-0.84c-0.17-0.18-0.44-0.27-0.8-0.27c-0.29,0-0.55,0.08-0.77,0.23s-0.39,0.36-0.52,0.62v3.76h-0.9v-5.28
		H154.34z"/>
	<path class="st0" d="M162.08,83.12c0-0.24-0.09-0.43-0.28-0.57c-0.18-0.14-0.5-0.25-0.96-0.35c-0.46-0.1-0.82-0.21-1.09-0.35
		c-0.27-0.14-0.47-0.3-0.6-0.49c-0.13-0.19-0.19-0.41-0.19-0.67c0-0.43,0.18-0.8,0.55-1.1c0.37-0.3,0.83-0.45,1.4-0.45
		c0.6,0,1.08,0.16,1.46,0.46c0.37,0.31,0.56,0.71,0.56,1.19h-0.91c0-0.25-0.1-0.46-0.32-0.64c-0.21-0.18-0.47-0.27-0.79-0.27
		c-0.33,0-0.59,0.07-0.77,0.21c-0.19,0.14-0.28,0.33-0.28,0.56c0,0.22,0.09,0.38,0.26,0.49c0.17,0.11,0.48,0.22,0.94,0.32
		c0.45,0.1,0.82,0.22,1.1,0.36c0.28,0.14,0.49,0.31,0.62,0.51c0.13,0.2,0.2,0.44,0.2,0.72c0,0.47-0.19,0.85-0.57,1.14
		c-0.38,0.28-0.87,0.43-1.47,0.43c-0.42,0-0.8-0.07-1.12-0.22c-0.33-0.15-0.58-0.36-0.76-0.63c-0.18-0.27-0.28-0.56-0.28-0.87h0.9
		c0.02,0.3,0.14,0.54,0.36,0.72c0.23,0.18,0.53,0.27,0.9,0.27c0.34,0,0.62-0.07,0.82-0.21C161.98,83.54,162.08,83.35,162.08,83.12z"
		/>
	<path class="st0" d="M169.72,83.12c0-0.24-0.09-0.43-0.28-0.57c-0.18-0.14-0.5-0.25-0.96-0.35c-0.46-0.1-0.82-0.21-1.09-0.35
		c-0.27-0.14-0.47-0.3-0.6-0.49c-0.13-0.19-0.19-0.41-0.19-0.67c0-0.43,0.18-0.8,0.55-1.1c0.37-0.3,0.83-0.45,1.4-0.45
		c0.6,0,1.08,0.16,1.46,0.46c0.37,0.31,0.56,0.71,0.56,1.19h-0.91c0-0.25-0.1-0.46-0.32-0.64c-0.21-0.18-0.47-0.27-0.79-0.27
		c-0.33,0-0.59,0.07-0.77,0.21c-0.19,0.14-0.28,0.33-0.28,0.56c0,0.22,0.09,0.38,0.26,0.49c0.17,0.11,0.48,0.22,0.94,0.32
		c0.45,0.1,0.82,0.22,1.1,0.36c0.28,0.14,0.49,0.31,0.62,0.51c0.13,0.2,0.2,0.44,0.2,0.72c0,0.47-0.19,0.85-0.57,1.14
		c-0.38,0.28-0.87,0.43-1.47,0.43c-0.42,0-0.8-0.07-1.12-0.22c-0.33-0.15-0.58-0.36-0.76-0.63c-0.18-0.27-0.28-0.56-0.28-0.87h0.9
		c0.02,0.3,0.14,0.54,0.36,0.72c0.23,0.18,0.53,0.27,0.9,0.27c0.34,0,0.62-0.07,0.82-0.21C169.61,83.54,169.72,83.35,169.72,83.12z"
		/>
	<path class="st0" d="M173.02,77.96v1.28h0.99v0.7h-0.99v3.28c0,0.21,0.04,0.37,0.13,0.48c0.09,0.11,0.24,0.16,0.45,0.16
		c0.1,0,0.25-0.02,0.43-0.06v0.73c-0.24,0.06-0.47,0.1-0.69,0.1c-0.4,0-0.71-0.12-0.91-0.37s-0.31-0.59-0.31-1.04v-3.28h-0.96v-0.7
		h0.96v-1.28H173.02z"/>
	<path class="st0" d="M178.32,84.52c-0.05-0.1-0.09-0.29-0.13-0.56c-0.42,0.44-0.92,0.65-1.5,0.65c-0.52,0-0.95-0.15-1.28-0.44
		c-0.33-0.29-0.5-0.67-0.5-1.12c0-0.55,0.21-0.98,0.63-1.28c0.42-0.3,1.01-0.46,1.76-0.46h0.88V80.9c0-0.32-0.09-0.57-0.28-0.75
		c-0.19-0.19-0.47-0.28-0.83-0.28c-0.32,0-0.59,0.08-0.81,0.24c-0.22,0.16-0.33,0.36-0.33,0.59h-0.91c0-0.26,0.09-0.52,0.28-0.76
		c0.19-0.25,0.44-0.44,0.76-0.58c0.32-0.14,0.67-0.21,1.06-0.21c0.61,0,1.09,0.15,1.43,0.46c0.34,0.3,0.52,0.72,0.54,1.26v2.43
		c0,0.49,0.06,0.87,0.19,1.16v0.08H178.32z M176.83,83.83c0.28,0,0.55-0.07,0.81-0.22s0.44-0.34,0.55-0.57v-1.08h-0.71
		c-1.11,0-1.66,0.32-1.66,0.97c0,0.28,0.09,0.5,0.28,0.66C176.29,83.75,176.53,83.83,176.83,83.83z"/>
	<path class="st0" d="M183.06,80.05c-0.14-0.02-0.29-0.03-0.44-0.03c-0.59,0-0.99,0.25-1.21,0.76v3.75h-0.9v-5.28h0.88l0.01,0.61
		c0.3-0.47,0.72-0.71,1.26-0.71c0.18,0,0.31,0.02,0.4,0.07V80.05z"/>
	<path class="st0" d="M185.36,77.96v1.28h0.99v0.7h-0.99v3.28c0,0.21,0.04,0.37,0.13,0.48c0.09,0.11,0.24,0.16,0.45,0.16
		c0.1,0,0.25-0.02,0.43-0.06v0.73c-0.24,0.06-0.47,0.1-0.69,0.1c-0.4,0-0.71-0.12-0.91-0.37s-0.31-0.59-0.31-1.04v-3.28h-0.96v-0.7
		h0.96v-1.28H185.36z"/>
	<path class="st0" d="M187.4,77.84c0-0.15,0.04-0.27,0.13-0.37c0.09-0.1,0.22-0.15,0.4-0.15s0.31,0.05,0.4,0.15
		c0.09,0.1,0.14,0.22,0.14,0.37s-0.05,0.27-0.14,0.37s-0.22,0.15-0.4,0.15s-0.31-0.05-0.4-0.15C187.45,78.1,187.4,77.98,187.4,77.84
		z M188.38,84.52h-0.9v-5.28h0.9V84.52z"/>
	<path class="st0" d="M190.68,79.24l0.03,0.66c0.4-0.51,0.93-0.76,1.58-0.76c1.12,0,1.68,0.63,1.69,1.89v3.49h-0.9v-3.5
		c0-0.38-0.09-0.66-0.26-0.84c-0.17-0.18-0.44-0.27-0.8-0.27c-0.29,0-0.55,0.08-0.77,0.23s-0.39,0.36-0.52,0.62v3.76h-0.9v-5.28
		H190.68z"/>
	<path class="st0" d="M195.13,81.83c0-0.82,0.19-1.48,0.57-1.96c0.38-0.49,0.89-0.73,1.51-0.73c0.64,0,1.15,0.23,1.51,0.68
		l0.04-0.59h0.83v5.16c0,0.68-0.2,1.22-0.61,1.62c-0.41,0.39-0.95,0.59-1.63,0.59c-0.38,0-0.75-0.08-1.12-0.24
		c-0.36-0.16-0.64-0.39-0.83-0.67l0.47-0.54c0.39,0.48,0.86,0.72,1.42,0.72c0.44,0,0.78-0.12,1.03-0.37
		c0.25-0.25,0.37-0.6,0.37-1.04v-0.45c-0.36,0.42-0.85,0.62-1.48,0.62c-0.62,0-1.12-0.25-1.5-0.75
		C195.32,83.37,195.13,82.69,195.13,81.83z M196.03,81.94c0,0.6,0.12,1.06,0.37,1.4c0.24,0.34,0.59,0.51,1.03,0.51
		c0.57,0,0.99-0.26,1.25-0.78v-2.41c-0.28-0.5-0.69-0.76-1.25-0.76c-0.44,0-0.78,0.17-1.03,0.51S196.03,81.27,196.03,81.94z"/>
	<path class="st0" d="M206.69,84.52c-0.05-0.1-0.09-0.29-0.13-0.56c-0.42,0.44-0.92,0.65-1.5,0.65c-0.52,0-0.95-0.15-1.28-0.44
		c-0.33-0.29-0.5-0.67-0.5-1.12c0-0.55,0.21-0.98,0.63-1.28c0.42-0.3,1.01-0.46,1.76-0.46h0.88V80.9c0-0.32-0.09-0.57-0.28-0.75
		c-0.19-0.19-0.47-0.28-0.83-0.28c-0.32,0-0.59,0.08-0.81,0.24c-0.22,0.16-0.33,0.36-0.33,0.59h-0.91c0-0.26,0.09-0.52,0.28-0.76
		c0.19-0.25,0.44-0.44,0.76-0.58c0.32-0.14,0.67-0.21,1.06-0.21c0.61,0,1.09,0.15,1.43,0.46c0.34,0.3,0.52,0.72,0.54,1.26v2.43
		c0,0.49,0.06,0.87,0.19,1.16v0.08H206.69z M205.19,83.83c0.28,0,0.55-0.07,0.81-0.22s0.44-0.34,0.55-0.57v-1.08h-0.71
		c-1.11,0-1.66,0.32-1.66,0.97c0,0.28,0.09,0.5,0.28,0.66C204.65,83.75,204.89,83.83,205.19,83.83z"/>
	<path class="st0" d="M210.09,77.96v1.28h0.99v0.7h-0.99v3.28c0,0.21,0.04,0.37,0.13,0.48c0.09,0.11,0.24,0.16,0.45,0.16
		c0.1,0,0.25-0.02,0.43-0.06v0.73c-0.24,0.06-0.47,0.1-0.69,0.1c-0.4,0-0.71-0.12-0.91-0.37s-0.31-0.59-0.31-1.04v-3.28h-0.96v-0.7
		h0.96v-1.28H210.09z"/>
	<path class="st0" d="M217.78,82.65c0-0.27-0.07-0.48-0.22-0.64c-0.15-0.16-0.4-0.3-0.75-0.44c-0.35-0.13-0.66-0.27-0.92-0.4
		s-0.48-0.28-0.66-0.45c-0.18-0.17-0.33-0.37-0.43-0.6c-0.1-0.23-0.15-0.51-0.15-0.83c0-0.55,0.18-1,0.53-1.35s0.82-0.56,1.4-0.62
		v-1.04h0.78v1.06c0.58,0.08,1.03,0.32,1.35,0.72c0.33,0.4,0.49,0.92,0.49,1.55h-1.41c0-0.39-0.08-0.68-0.24-0.88
		c-0.16-0.19-0.38-0.29-0.65-0.29c-0.27,0-0.47,0.08-0.62,0.23s-0.22,0.36-0.22,0.63c0,0.25,0.07,0.45,0.21,0.6
		c0.14,0.15,0.41,0.3,0.8,0.46c0.39,0.16,0.71,0.3,0.96,0.44c0.25,0.14,0.46,0.29,0.63,0.47c0.17,0.17,0.3,0.37,0.4,0.6
		c0.09,0.22,0.14,0.48,0.14,0.78c0,0.55-0.17,1-0.52,1.35c-0.34,0.35-0.82,0.55-1.43,0.61v0.97h-0.78V84.6
		c-0.67-0.07-1.18-0.31-1.55-0.71c-0.37-0.4-0.55-0.94-0.55-1.6h1.41c0,0.39,0.09,0.68,0.28,0.89c0.18,0.21,0.45,0.31,0.79,0.31
		c0.29,0,0.51-0.08,0.68-0.23S217.78,82.91,217.78,82.65z"/>
	<path class="st0" d="M223.45,81.68c-0.37,0.36-0.8,0.54-1.29,0.54c-0.63,0-1.13-0.22-1.51-0.65c-0.38-0.43-0.57-1.01-0.57-1.75
		c0-0.46,0.1-0.89,0.3-1.28c0.2-0.39,0.49-0.69,0.85-0.91c0.36-0.22,0.77-0.33,1.23-0.33c0.47,0,0.89,0.12,1.25,0.35
		s0.65,0.57,0.85,1.01s0.3,0.94,0.31,1.51v0.52c0,1.19-0.29,2.12-0.88,2.79c-0.59,0.68-1.42,1.04-2.5,1.08l-0.35,0v-1.18l0.31,0
		C222.68,83.35,223.35,82.78,223.45,81.68z M222.5,81.14c0.23,0,0.42-0.06,0.59-0.18c0.17-0.12,0.29-0.26,0.37-0.42v-0.58
		c0-0.48-0.09-0.85-0.27-1.11s-0.43-0.4-0.73-0.4c-0.28,0-0.52,0.13-0.7,0.39s-0.27,0.58-0.27,0.97c0,0.39,0.09,0.71,0.27,0.96
		C221.93,81.02,222.18,81.14,222.5,81.14z"/>
	<path class="st0" d="M226.01,83.83c0-0.22,0.08-0.41,0.23-0.55c0.15-0.14,0.34-0.21,0.57-0.21c0.23,0,0.42,0.07,0.57,0.21
		c0.15,0.14,0.23,0.32,0.23,0.55c0,0.22-0.08,0.4-0.22,0.54c-0.15,0.14-0.34,0.21-0.58,0.21c-0.23,0-0.42-0.07-0.57-0.21
		C226.09,84.23,226.01,84.05,226.01,83.83z"/>
	<path class="st0" d="M232.09,81.68c-0.37,0.36-0.8,0.54-1.29,0.54c-0.63,0-1.13-0.22-1.51-0.65c-0.38-0.43-0.57-1.01-0.57-1.75
		c0-0.46,0.1-0.89,0.3-1.28c0.2-0.39,0.49-0.69,0.85-0.91c0.36-0.22,0.77-0.33,1.23-0.33c0.47,0,0.89,0.12,1.25,0.35
		s0.65,0.57,0.85,1.01s0.3,0.94,0.31,1.51v0.52c0,1.19-0.29,2.12-0.88,2.79c-0.59,0.68-1.42,1.04-2.5,1.08l-0.35,0v-1.18l0.31,0
		C231.32,83.35,231.99,82.78,232.09,81.68z M231.15,81.14c0.23,0,0.42-0.06,0.59-0.18c0.17-0.12,0.29-0.26,0.37-0.42v-0.58
		c0-0.48-0.09-0.85-0.27-1.11s-0.43-0.4-0.73-0.4c-0.28,0-0.52,0.13-0.7,0.39s-0.27,0.58-0.27,0.97c0,0.39,0.09,0.71,0.27,0.96
		C230.57,81.02,230.82,81.14,231.15,81.14z"/>
	<path class="st0" d="M237.83,81.68c-0.37,0.36-0.8,0.54-1.29,0.54c-0.63,0-1.13-0.22-1.51-0.65c-0.38-0.43-0.57-1.01-0.57-1.75
		c0-0.46,0.1-0.89,0.3-1.28c0.2-0.39,0.49-0.69,0.85-0.91c0.36-0.22,0.77-0.33,1.23-0.33c0.47,0,0.89,0.12,1.25,0.35
		s0.65,0.57,0.85,1.01s0.3,0.94,0.31,1.51v0.52c0,1.19-0.29,2.12-0.88,2.79c-0.59,0.68-1.42,1.04-2.5,1.08l-0.35,0v-1.18l0.31,0
		C237.06,83.35,237.73,82.78,237.83,81.68z M236.88,81.14c0.23,0,0.42-0.06,0.59-0.18c0.17-0.12,0.29-0.26,0.37-0.42v-0.58
		c0-0.48-0.09-0.85-0.27-1.11s-0.43-0.4-0.73-0.4c-0.28,0-0.52,0.13-0.7,0.39s-0.27,0.58-0.27,0.97c0,0.39,0.09,0.71,0.27,0.96
		C236.31,81.02,236.56,81.14,236.88,81.14z"/>
	<path class="st0" d="M240.77,85.13h-1.05l2.62-7.72h1.05L240.77,85.13z"/>
	<path class="st0" d="M245.38,79.24l0.04,0.59c0.37-0.46,0.88-0.69,1.52-0.69c0.68,0,1.15,0.27,1.4,0.81
		c0.37-0.54,0.9-0.81,1.59-0.81c0.57,0,1,0.17,1.28,0.5c0.28,0.33,0.42,0.84,0.42,1.51v3.37h-1.42v-3.37c0-0.3-0.06-0.52-0.18-0.66
		c-0.12-0.14-0.32-0.21-0.62-0.21c-0.42,0-0.72,0.2-0.88,0.61l0,3.63h-1.41v-3.36c0-0.31-0.06-0.53-0.18-0.66s-0.33-0.21-0.62-0.21
		c-0.4,0-0.69,0.17-0.87,0.5v3.74h-1.41v-5.28H245.38z"/>
	<path class="st0" d="M252.49,81.83c0-0.52,0.1-0.99,0.3-1.4s0.49-0.73,0.87-0.95c0.38-0.22,0.82-0.34,1.32-0.34
		c0.71,0,1.29,0.22,1.75,0.65c0.45,0.44,0.7,1.03,0.75,1.78l0.01,0.36c0,0.81-0.23,1.46-0.68,1.95c-0.45,0.49-1.06,0.73-1.82,0.73
		s-1.37-0.24-1.82-0.73c-0.46-0.49-0.68-1.15-0.68-1.99V81.83z M253.91,81.93c0,0.5,0.09,0.89,0.28,1.15s0.46,0.4,0.81,0.4
		c0.34,0,0.61-0.13,0.8-0.39s0.29-0.68,0.29-1.26c0-0.49-0.1-0.87-0.29-1.14s-0.46-0.41-0.81-0.41c-0.34,0-0.61,0.13-0.8,0.4
		C254,80.95,253.91,81.37,253.91,81.93z"/>
	<path class="st0" d="M259.67,79.24l0.04,0.61c0.38-0.47,0.88-0.71,1.52-0.71c0.56,0,0.98,0.17,1.25,0.49
		c0.27,0.33,0.41,0.82,0.42,1.47v3.41h-1.41v-3.38c0-0.3-0.07-0.52-0.2-0.65c-0.13-0.14-0.35-0.2-0.65-0.2
		c-0.4,0-0.7,0.17-0.89,0.51v3.73h-1.41v-5.28H259.67z"/>
	<path class="st0" d="M265.66,77.94v1.3h0.9v1.04h-0.9v2.64c0,0.2,0.04,0.34,0.11,0.42c0.08,0.08,0.22,0.13,0.43,0.13
		c0.16,0,0.29-0.01,0.42-0.03v1.07c-0.28,0.08-0.56,0.13-0.85,0.13c-0.99,0-1.49-0.5-1.51-1.5v-2.85h-0.77v-1.04h0.77v-1.3H265.66z"
		/>
	<path class="st0" d="M268.72,79.81c0.37-0.45,0.84-0.67,1.41-0.67c1.15,0,1.73,0.67,1.74,2v3.38h-1.41v-3.34
		c0-0.3-0.07-0.53-0.2-0.67c-0.13-0.15-0.35-0.22-0.65-0.22c-0.41,0-0.71,0.16-0.9,0.48v3.75h-1.41v-7.5h1.41V79.81z"/>
</g>
<g>
	<path class="st0" d="M115.18,19.6c0-0.35-0.12-0.62-0.37-0.82s-0.68-0.4-1.31-0.61s-1.13-0.41-1.53-0.61
		c-1.29-0.63-1.93-1.5-1.93-2.61c0-0.55,0.16-1.04,0.48-1.46s0.78-0.75,1.36-0.98s1.25-0.35,1.98-0.35c0.72,0,1.36,0.13,1.92,0.38
		s1.01,0.62,1.32,1.09s0.47,1.01,0.47,1.62h-2.39c0-0.41-0.12-0.72-0.37-0.94s-0.58-0.33-1.01-0.33c-0.43,0-0.77,0.09-1.02,0.28
		s-0.37,0.43-0.37,0.72c0,0.26,0.14,0.49,0.41,0.69s0.75,0.42,1.44,0.64s1.25,0.46,1.7,0.71c1.08,0.62,1.61,1.47,1.61,2.56
		c0,0.87-0.33,1.55-0.98,2.05s-1.56,0.75-2.7,0.75c-0.81,0-1.54-0.14-2.19-0.43s-1.15-0.69-1.48-1.19s-0.5-1.08-0.5-1.74h2.41
		c0,0.53,0.14,0.93,0.41,1.18s0.72,0.38,1.34,0.38c0.4,0,0.71-0.09,0.94-0.26S115.18,19.91,115.18,19.6z"/>
	<path class="st0" d="M118.41,18.48c0-0.74,0.14-1.4,0.43-1.97s0.7-1.02,1.24-1.33s1.17-0.46,1.89-0.46c1.11,0,1.98,0.34,2.62,1.03
		s0.96,1.62,0.96,2.8v0.08c0,1.15-0.32,2.07-0.96,2.74s-1.51,1.02-2.6,1.02c-1.05,0-1.9-0.32-2.54-0.95s-0.98-1.49-1.03-2.57
		L118.41,18.48z M120.71,18.62c0,0.68,0.11,1.19,0.32,1.5s0.53,0.48,0.95,0.48c0.82,0,1.24-0.63,1.26-1.89v-0.23
		c0-1.33-0.42-1.99-1.27-1.99c-0.77,0-1.19,0.57-1.25,1.72L120.71,18.62z"/>
	<path class="st0" d="M133,19.02l1.23-4.17h2.47l-3.01,8.63l-0.13,0.31c-0.43,0.96-1.19,1.44-2.27,1.44c-0.3,0-0.62-0.05-0.95-0.14
		v-1.64h0.3c0.32,0,0.57-0.05,0.74-0.14c0.17-0.09,0.3-0.26,0.38-0.5l0.18-0.49l-2.57-7.47h2.46L133,19.02z"/>
	<path class="st0" d="M137.01,18.48c0-0.74,0.14-1.4,0.43-1.97s0.7-1.02,1.24-1.33s1.17-0.46,1.89-0.46c1.11,0,1.98,0.34,2.62,1.03
		s0.96,1.62,0.96,2.8v0.08c0,1.15-0.32,2.07-0.96,2.74s-1.51,1.02-2.6,1.02c-1.05,0-1.9-0.32-2.54-0.95s-0.98-1.49-1.03-2.57
		L137.01,18.48z M139.31,18.62c0,0.68,0.11,1.19,0.32,1.5s0.53,0.48,0.95,0.48c0.82,0,1.24-0.63,1.26-1.89v-0.23
		c0-1.33-0.42-1.99-1.27-1.99c-0.77,0-1.19,0.57-1.25,1.72L139.31,18.62z"/>
	<path class="st0" d="M149.57,21.45c-0.49,0.62-1.15,0.94-1.98,0.94c-0.81,0-1.43-0.24-1.84-0.71s-0.63-1.15-0.63-2.03v-4.79h2.3
		v4.81c0,0.63,0.31,0.95,0.92,0.95c0.53,0,0.9-0.19,1.13-0.57v-5.19h2.32v7.4h-2.16L149.57,21.45z"/>
	<path class="st0" d="M159.51,19.49l-0.65,0.65v2.11h-2.3V11.74h2.3v5.58l0.23-0.31l1.74-2.16h2.76L161,17.89l2.76,4.35h-2.64
		L159.51,19.49z"/>
	<path class="st0" d="M166.32,14.85l0.08,0.87c0.51-0.67,1.21-1,2.11-1c0.77,0,1.35,0.23,1.73,0.69c0.38,0.46,0.58,1.15,0.59,2.08
		v4.76h-2.31v-4.67c0-0.37-0.08-0.65-0.23-0.82s-0.42-0.26-0.82-0.26c-0.45,0-0.79,0.18-1,0.53v5.22h-2.3v-7.4H166.32z"/>
	<path class="st0" d="M171.8,18.48c0-0.74,0.14-1.4,0.43-1.97s0.7-1.02,1.24-1.33c0.54-0.31,1.17-0.46,1.89-0.46
		c1.11,0,1.98,0.34,2.62,1.03c0.64,0.69,0.96,1.62,0.96,2.8v0.08c0,1.15-0.32,2.07-0.96,2.74c-0.64,0.68-1.51,1.02-2.6,1.02
		c-1.05,0-1.9-0.32-2.54-0.95c-0.64-0.63-0.98-1.49-1.03-2.57L171.8,18.48z M174.11,18.62c0,0.68,0.11,1.19,0.32,1.5
		c0.21,0.32,0.53,0.48,0.95,0.48c0.82,0,1.24-0.63,1.26-1.89v-0.23c0-1.33-0.42-1.99-1.27-1.99c-0.77,0-1.19,0.57-1.25,1.72
		L174.11,18.62z"/>
	<path class="st0" d="M186.34,19.21l0.75-4.36h2.21l-1.74,7.4h-1.95l-1.22-4.39l-1.23,4.39h-1.95l-1.74-7.4h2.21l0.73,4.46
		l1.18-4.46h1.61L186.34,19.21z"/>
	<path class="st0" d="M200,19.21l0.75-4.36h2.21l-1.74,7.4h-1.95l-1.22-4.39l-1.23,4.39h-1.95l-1.74-7.4h2.21l0.73,4.46l1.18-4.46
		h1.61L200,19.21z"/>
	<path class="st0" d="M206.03,15.64c0.49-0.62,1.12-0.93,1.89-0.93c0.82,0,1.43,0.24,1.85,0.72c0.41,0.48,0.63,1.2,0.64,2.14v4.67
		h-2.31v-4.61c0-0.39-0.08-0.68-0.24-0.86c-0.16-0.18-0.43-0.28-0.81-0.28c-0.47,0-0.81,0.15-1,0.45v5.3h-2.3v-10.5h2.3V15.64z"/>
	<path class="st0" d="M215.25,22.38c-1.13,0-2.05-0.34-2.75-1.02c-0.7-0.68-1.05-1.56-1.05-2.64v-0.19c0-0.76,0.14-1.42,0.42-2
		s0.69-1.03,1.23-1.34c0.54-0.32,1.18-0.48,1.91-0.48c1.04,0,1.86,0.32,2.46,0.97s0.9,1.54,0.9,2.7v0.9h-4.58
		c0.08,0.41,0.26,0.74,0.54,0.98c0.28,0.24,0.64,0.36,1.08,0.36c0.73,0,1.3-0.26,1.71-0.77l1.05,1.24c-0.29,0.4-0.69,0.71-1.22,0.95
		S215.86,22.38,215.25,22.38z M214.99,16.49c-0.67,0-1.08,0.45-1.2,1.34h2.32v-0.18c0.01-0.37-0.08-0.66-0.28-0.86
		C215.64,16.59,215.36,16.49,214.99,16.49z"/>
	<path class="st0" d="M223.77,16.94l-0.76-0.05c-0.72,0-1.19,0.23-1.39,0.68v4.68h-2.3v-7.4h2.16l0.08,0.95
		c0.39-0.72,0.93-1.09,1.62-1.09c0.25,0,0.46,0.03,0.64,0.08L223.77,16.94z"/>
	<path class="st0" d="M228.18,22.38c-1.13,0-2.05-0.34-2.75-1.02c-0.7-0.68-1.05-1.56-1.05-2.64v-0.19c0-0.76,0.14-1.42,0.42-2
		s0.69-1.03,1.23-1.34c0.54-0.32,1.18-0.48,1.91-0.48c1.04,0,1.86,0.32,2.46,0.97s0.9,1.54,0.9,2.7v0.9h-4.58
		c0.08,0.41,0.26,0.74,0.54,0.98c0.28,0.24,0.64,0.36,1.08,0.36c0.73,0,1.3-0.26,1.71-0.77l1.05,1.24c-0.29,0.4-0.69,0.71-1.22,0.95
		S228.79,22.38,228.18,22.38z M227.92,16.49c-0.67,0-1.08,0.45-1.2,1.34h2.32v-0.18c0.01-0.37-0.08-0.66-0.28-0.86
		C228.57,16.59,228.29,16.49,227.92,16.49z"/>
	<path class="st0" d="M238.67,19.02l1.23-4.17h2.47l-3.01,8.63l-0.13,0.31c-0.43,0.96-1.19,1.44-2.27,1.44
		c-0.3,0-0.62-0.05-0.95-0.14v-1.64h0.3c0.32,0,0.57-0.05,0.74-0.14c0.17-0.09,0.3-0.26,0.38-0.5l0.18-0.49l-2.57-7.47h2.46
		L238.67,19.02z"/>
	<path class="st0" d="M242.67,18.48c0-0.74,0.14-1.4,0.43-1.97s0.7-1.02,1.24-1.33c0.54-0.31,1.17-0.46,1.89-0.46
		c1.11,0,1.98,0.34,2.62,1.03c0.64,0.69,0.96,1.62,0.96,2.8v0.08c0,1.15-0.32,2.07-0.96,2.74c-0.64,0.68-1.51,1.02-2.6,1.02
		c-1.05,0-1.9-0.32-2.54-0.95c-0.64-0.63-0.98-1.49-1.03-2.57L242.67,18.48z M244.98,18.62c0,0.68,0.11,1.19,0.32,1.5
		c0.21,0.32,0.53,0.48,0.95,0.48c0.82,0,1.24-0.63,1.26-1.89v-0.23c0-1.33-0.42-1.99-1.27-1.99c-0.77,0-1.19,0.57-1.25,1.72
		L244.98,18.62z"/>
	<path class="st0" d="M255.23,21.45c-0.49,0.62-1.15,0.94-1.98,0.94c-0.81,0-1.43-0.24-1.84-0.71s-0.62-1.15-0.62-2.03v-4.79h2.3
		v4.81c0,0.63,0.31,0.95,0.92,0.95c0.53,0,0.9-0.19,1.13-0.57v-5.19h2.32v7.4h-2.16L255.23,21.45z"/>
	<path class="st0" d="M266.08,20.17c0-0.2-0.1-0.35-0.31-0.47s-0.59-0.24-1.17-0.37s-1.05-0.29-1.42-0.5
		c-0.37-0.21-0.66-0.46-0.85-0.76c-0.2-0.3-0.29-0.64-0.29-1.02c0-0.68,0.28-1.24,0.84-1.68s1.29-0.66,2.2-0.66
		c0.97,0,1.76,0.22,2.35,0.66c0.59,0.44,0.89,1.02,0.89,1.74H266c0-0.59-0.31-0.89-0.94-0.89c-0.24,0-0.44,0.07-0.61,0.2
		s-0.25,0.3-0.25,0.5c0,0.21,0.1,0.37,0.3,0.5c0.2,0.13,0.52,0.23,0.96,0.31c0.44,0.08,0.83,0.18,1.16,0.29
		c1.11,0.38,1.67,1.07,1.67,2.06c0,0.67-0.3,1.22-0.9,1.65c-0.6,0.42-1.38,0.64-2.33,0.64c-0.63,0-1.2-0.11-1.7-0.34
		c-0.5-0.23-0.88-0.54-1.16-0.93c-0.28-0.39-0.42-0.8-0.42-1.24h2.15c0.01,0.34,0.12,0.59,0.34,0.75s0.5,0.24,0.84,0.24
		c0.31,0,0.55-0.06,0.71-0.19S266.08,20.38,266.08,20.17z"/>
	<path class="st0" d="M272.06,13.01v1.84h1.22v1.6h-1.22v3.38c0,0.28,0.05,0.47,0.15,0.58c0.1,0.11,0.3,0.16,0.59,0.16
		c0.23,0,0.42-0.01,0.57-0.04v1.65c-0.42,0.13-0.85,0.2-1.3,0.2c-0.79,0-1.38-0.19-1.76-0.56c-0.38-0.37-0.57-0.94-0.57-1.7v-3.67
		h-0.94v-1.6h0.94v-1.84H272.06z"/>
	<path class="st0" d="M278.35,22.25c-0.08-0.15-0.16-0.37-0.22-0.66c-0.42,0.53-1.02,0.8-1.78,0.8c-0.7,0-1.29-0.21-1.78-0.63
		c-0.49-0.42-0.73-0.95-0.73-1.59c0-0.8,0.3-1.41,0.89-1.82c0.59-0.41,1.45-0.62,2.58-0.62h0.71v-0.39c0-0.68-0.29-1.02-0.88-1.02
		c-0.55,0-0.82,0.27-0.82,0.81h-2.3c0-0.71,0.3-1.29,0.91-1.74c0.61-0.45,1.38-0.67,2.33-0.67s1.69,0.23,2.24,0.69
		s0.83,1.09,0.84,1.89v3.27c0.01,0.68,0.11,1.2,0.31,1.56v0.12H278.35z M276.91,20.74c0.29,0,0.53-0.06,0.71-0.18
		c0.19-0.12,0.33-0.26,0.41-0.42v-1.18h-0.67c-0.8,0-1.2,0.36-1.2,1.08c0,0.21,0.07,0.38,0.21,0.51
		C276.51,20.68,276.69,20.74,276.91,20.74z"/>
	<path class="st0" d="M283.73,14.85l0.08,0.87c0.51-0.67,1.21-1,2.11-1c0.77,0,1.35,0.23,1.73,0.69c0.38,0.46,0.58,1.15,0.59,2.08
		v4.76h-2.31v-4.67c0-0.37-0.08-0.65-0.23-0.82s-0.42-0.26-0.82-0.26c-0.45,0-0.79,0.18-1,0.53v5.22h-2.3v-7.4H283.73z"/>
	<path class="st0" d="M289.22,18.5c0-1.17,0.25-2.09,0.76-2.77s1.21-1.01,2.12-1.01c0.66,0,1.22,0.26,1.67,0.78v-3.75h2.31v10.5H294
		l-0.12-0.79c-0.47,0.62-1.08,0.93-1.8,0.93c-0.88,0-1.58-0.34-2.09-1.01C289.48,20.7,289.22,19.74,289.22,18.5z M291.52,18.64
		c0,1.31,0.38,1.97,1.15,1.97c0.51,0,0.88-0.21,1.09-0.64v-2.82c-0.21-0.44-0.57-0.66-1.08-0.66c-0.71,0-1.1,0.57-1.16,1.72
		L291.52,18.64z"/>
</g>
</svg>
