<?xml version="1.0" encoding="utf-8"?>
<!-- Generator: Adobe Illustrator 24.2.3, SVG Export Plug-In . SVG Version: 6.00 Build 0)  -->
<svg version="1.1" id="Layer_1" xmlns="http://www.w3.org/2000/svg" xmlns:xlink="http://www.w3.org/1999/xlink" x="0px" y="0px"
	 viewBox="0 0 320 100" style="enable-background:new 0 0 320 100;" xml:space="preserve">
<style type="text/css">
	.st0{fill:#021D8B;}
	.st1{fill:url(#SVGID_1_);}
</style>
<g id="C3_1_">
	<g>
		<path class="st0" d="M149.06,70.69c0-0.3-0.11-0.55-0.31-0.76c-0.21-0.21-0.56-0.39-1.06-0.56c-0.69-0.21-1.2-0.49-1.52-0.83
			c-0.32-0.34-0.48-0.77-0.48-1.3c0-0.53,0.16-0.97,0.47-1.31c0.31-0.34,0.74-0.54,1.28-0.61v-1.07h0.73v1.07
			c0.55,0.08,0.97,0.3,1.28,0.69c0.3,0.38,0.46,0.91,0.46,1.58H149c0-0.46-0.11-0.83-0.33-1.1c-0.22-0.27-0.51-0.41-0.88-0.41
			c-0.39,0-0.68,0.1-0.89,0.3c-0.21,0.2-0.31,0.48-0.31,0.84c0,0.33,0.11,0.6,0.33,0.79c0.22,0.2,0.57,0.38,1.07,0.54
			c0.5,0.16,0.88,0.34,1.16,0.53c0.28,0.19,0.48,0.42,0.62,0.68c0.13,0.26,0.2,0.56,0.2,0.9c0,0.55-0.17,0.99-0.5,1.33
			c-0.33,0.34-0.79,0.53-1.39,0.6v0.93h-0.72V72.6c-0.61-0.05-1.08-0.27-1.42-0.65c-0.34-0.38-0.52-0.89-0.52-1.53h0.9
			c0,0.45,0.12,0.8,0.36,1.04s0.57,0.37,1.01,0.37c0.43,0,0.76-0.1,1.01-0.31S149.06,71.04,149.06,70.69z"/>
		<path class="st0" d="M154.05,72.52h-0.91V66.5l-1.82,0.67v-0.82l2.59-0.97h0.14V72.52z"/>
		<path class="st0" d="M160.5,65.96v1.28h0.99v0.7h-0.99v3.28c0,0.21,0.04,0.37,0.13,0.48c0.09,0.11,0.24,0.16,0.45,0.16
			c0.1,0,0.25-0.02,0.43-0.06v0.73c-0.24,0.06-0.47,0.1-0.69,0.1c-0.4,0-0.71-0.12-0.91-0.37s-0.31-0.59-0.31-1.04v-3.28h-0.96v-0.7
			h0.96v-1.28H160.5z"/>
		<path class="st0" d="M165.09,68.05c-0.14-0.02-0.29-0.03-0.44-0.03c-0.59,0-0.99,0.25-1.21,0.76v3.75h-0.9v-5.28h0.88l0.01,0.61
			c0.3-0.47,0.72-0.71,1.26-0.71c0.18,0,0.31,0.02,0.4,0.07V68.05z"/>
		<path class="st0" d="M165.92,65.84c0-0.15,0.04-0.27,0.13-0.37c0.09-0.1,0.22-0.15,0.4-0.15s0.31,0.05,0.4,0.15
			c0.09,0.1,0.14,0.22,0.14,0.37s-0.05,0.27-0.14,0.37s-0.22,0.15-0.4,0.15s-0.31-0.05-0.4-0.15
			C165.97,66.1,165.92,65.98,165.92,65.84z M166.9,72.52H166v-5.28h0.9V72.52z"/>
		<path class="st0" d="M171.61,72.52c-0.05-0.1-0.09-0.29-0.13-0.56c-0.42,0.44-0.92,0.65-1.5,0.65c-0.52,0-0.95-0.15-1.28-0.44
			c-0.33-0.29-0.5-0.67-0.5-1.12c0-0.55,0.21-0.98,0.63-1.28c0.42-0.3,1.01-0.46,1.76-0.46h0.88V68.9c0-0.32-0.09-0.57-0.28-0.75
			c-0.19-0.19-0.47-0.28-0.83-0.28c-0.32,0-0.59,0.08-0.81,0.24c-0.22,0.16-0.33,0.36-0.33,0.59h-0.91c0-0.26,0.09-0.52,0.28-0.76
			c0.19-0.25,0.44-0.44,0.76-0.58c0.32-0.14,0.67-0.21,1.06-0.21c0.61,0,1.09,0.15,1.43,0.46c0.34,0.3,0.52,0.72,0.54,1.26v2.43
			c0,0.49,0.06,0.87,0.19,1.16v0.08H171.61z M170.11,71.83c0.28,0,0.55-0.07,0.81-0.22s0.44-0.34,0.55-0.57v-1.08h-0.71
			c-1.11,0-1.66,0.32-1.66,0.97c0,0.28,0.09,0.5,0.28,0.66C169.57,71.75,169.81,71.83,170.11,71.83z"/>
		<path class="st0" d="M174.77,72.52h-0.9v-7.5h0.9V72.52z"/>
		<path class="st0" d="M179.13,72.52v-4.58h-0.83v-0.7h0.83V66.7c0-0.57,0.15-1,0.45-1.31c0.3-0.31,0.73-0.46,1.28-0.46
			c0.21,0,0.42,0.03,0.62,0.08l-0.05,0.73c-0.15-0.03-0.32-0.04-0.49-0.04c-0.29,0-0.52,0.09-0.68,0.26
			c-0.16,0.17-0.24,0.42-0.24,0.74v0.56h1.13v0.7h-1.13v4.58H179.13z"/>
		<path class="st0" d="M181.92,69.83c0-0.52,0.1-0.98,0.31-1.4c0.2-0.41,0.49-0.73,0.85-0.96c0.36-0.22,0.78-0.34,1.24-0.34
			c0.72,0,1.3,0.25,1.75,0.75c0.44,0.5,0.67,1.16,0.67,1.99v0.06c0,0.51-0.1,0.98-0.29,1.38c-0.2,0.41-0.48,0.73-0.85,0.95
			c-0.37,0.23-0.79,0.34-1.26,0.34c-0.72,0-1.3-0.25-1.74-0.75c-0.45-0.5-0.67-1.16-0.67-1.98V69.83z M182.83,69.94
			c0,0.59,0.14,1.06,0.41,1.41c0.27,0.36,0.64,0.53,1.09,0.53c0.46,0,0.82-0.18,1.09-0.54c0.27-0.36,0.41-0.86,0.41-1.51
			c0-0.58-0.14-1.05-0.41-1.41c-0.27-0.36-0.64-0.54-1.1-0.54c-0.45,0-0.81,0.18-1.08,0.53C182.97,68.77,182.83,69.28,182.83,69.94z
			"/>
		<path class="st0" d="M190.42,68.05c-0.14-0.02-0.29-0.03-0.44-0.03c-0.59,0-0.99,0.25-1.21,0.76v3.75h-0.9v-5.28h0.88l0.01,0.61
			c0.3-0.47,0.72-0.71,1.26-0.71c0.18,0,0.31,0.02,0.4,0.07V68.05z"/>
		<path class="st0" d="M194.95,65.96v1.28h0.99v0.7h-0.99v3.28c0,0.21,0.04,0.37,0.13,0.48c0.09,0.11,0.24,0.16,0.45,0.16
			c0.1,0,0.25-0.02,0.43-0.06v0.73c-0.24,0.06-0.47,0.1-0.69,0.1c-0.4,0-0.71-0.12-0.91-0.37s-0.31-0.59-0.31-1.04v-3.28h-0.96v-0.7
			h0.96v-1.28H194.95z"/>
		<path class="st0" d="M197.89,67.88c0.4-0.49,0.92-0.74,1.56-0.74c1.12,0,1.68,0.63,1.69,1.89v3.49h-0.9v-3.5
			c0-0.38-0.09-0.66-0.26-0.84c-0.17-0.18-0.44-0.27-0.8-0.27c-0.29,0-0.55,0.08-0.77,0.23s-0.39,0.36-0.52,0.62v3.76h-0.9v-7.5h0.9
			V67.88z"/>
		<path class="st0" d="M204.69,72.62c-0.72,0-1.3-0.24-1.75-0.71c-0.45-0.47-0.67-1.1-0.67-1.89v-0.17c0-0.52,0.1-0.99,0.3-1.4
			c0.2-0.41,0.48-0.73,0.84-0.97c0.36-0.23,0.75-0.35,1.17-0.35c0.69,0,1.22,0.23,1.6,0.68c0.38,0.45,0.57,1.1,0.57,1.94v0.38h-3.58
			c0.01,0.52,0.17,0.94,0.46,1.26c0.29,0.32,0.66,0.48,1.11,0.48c0.32,0,0.59-0.06,0.81-0.2c0.22-0.13,0.42-0.3,0.58-0.52l0.55,0.43
			C206.24,72.28,205.58,72.62,204.69,72.62z M204.58,67.88c-0.36,0-0.67,0.13-0.92,0.4c-0.25,0.26-0.4,0.64-0.46,1.12h2.65v-0.07
			c-0.03-0.46-0.15-0.81-0.37-1.07C205.25,68.01,204.96,67.88,204.58,67.88z"/>
		<path class="st0" d="M210.71,72.52v-4.58h-0.83v-0.7h0.83V66.7c0-0.57,0.15-1,0.45-1.31c0.3-0.31,0.73-0.46,1.28-0.46
			c0.21,0,0.42,0.03,0.62,0.08l-0.05,0.73c-0.15-0.03-0.32-0.04-0.49-0.04c-0.29,0-0.52,0.09-0.68,0.26
			c-0.16,0.17-0.24,0.42-0.24,0.74v0.56h1.13v0.7h-1.13v4.58H210.71z"/>
		<path class="st0" d="M213.75,65.84c0-0.15,0.04-0.27,0.13-0.37c0.09-0.1,0.22-0.15,0.4-0.15s0.31,0.05,0.4,0.15
			c0.09,0.1,0.14,0.22,0.14,0.37s-0.05,0.27-0.14,0.37s-0.22,0.15-0.4,0.15s-0.31-0.05-0.4-0.15
			C213.79,66.1,213.75,65.98,213.75,65.84z M214.72,72.52h-0.9v-5.28h0.9V72.52z"/>
		<path class="st0" d="M218.72,68.05c-0.14-0.02-0.29-0.03-0.44-0.03c-0.59,0-0.99,0.25-1.21,0.76v3.75h-0.9v-5.28h0.88l0.01,0.61
			c0.3-0.47,0.72-0.71,1.26-0.71c0.18,0,0.31,0.02,0.4,0.07V68.05z"/>
		<path class="st0" d="M222.63,71.12c0-0.24-0.09-0.43-0.28-0.57c-0.18-0.14-0.5-0.25-0.96-0.35c-0.46-0.1-0.82-0.21-1.09-0.35
			c-0.27-0.14-0.47-0.3-0.6-0.49c-0.13-0.19-0.19-0.41-0.19-0.67c0-0.43,0.18-0.8,0.55-1.1c0.37-0.3,0.83-0.45,1.4-0.45
			c0.6,0,1.08,0.16,1.46,0.46c0.37,0.31,0.56,0.71,0.56,1.19h-0.91c0-0.25-0.1-0.46-0.32-0.64c-0.21-0.18-0.47-0.27-0.79-0.27
			c-0.33,0-0.59,0.07-0.77,0.21c-0.19,0.14-0.28,0.33-0.28,0.56c0,0.22,0.09,0.38,0.26,0.49c0.17,0.11,0.48,0.22,0.94,0.32
			c0.45,0.1,0.82,0.22,1.1,0.36c0.28,0.14,0.49,0.31,0.62,0.51c0.13,0.2,0.2,0.44,0.2,0.72c0,0.47-0.19,0.85-0.57,1.14
			c-0.38,0.28-0.87,0.43-1.47,0.43c-0.42,0-0.8-0.07-1.12-0.22c-0.33-0.15-0.58-0.36-0.76-0.63c-0.18-0.27-0.28-0.56-0.28-0.87h0.9
			c0.02,0.3,0.14,0.54,0.36,0.72c0.23,0.18,0.53,0.27,0.9,0.27c0.34,0,0.62-0.07,0.82-0.21C222.53,71.54,222.63,71.35,222.63,71.12z
			"/>
		<path class="st0" d="M225.93,65.96v1.28h0.99v0.7h-0.99v3.28c0,0.21,0.04,0.37,0.13,0.48c0.09,0.11,0.24,0.16,0.45,0.16
			c0.1,0,0.25-0.02,0.43-0.06v0.73c-0.24,0.06-0.47,0.1-0.69,0.1c-0.4,0-0.71-0.12-0.91-0.37s-0.31-0.59-0.31-1.04v-3.28h-0.96v-0.7
			h0.96v-1.28H225.93z"/>
		<path class="st0" d="M233.68,72.52h-1.41v-5.44l-1.68,0.52v-1.15l2.94-1.05h0.15V72.52z"/>
		<path class="st0" d="M240.16,69.84h0.81v1.14h-0.81v1.54h-1.41v-1.54h-2.92l-0.06-0.89l2.96-4.68h1.43V69.84z M237.18,69.84h1.57
			v-2.51l-0.09,0.16L237.18,69.84z"/>
		<path class="st0" d="M244.05,69.84c0-0.82,0.18-1.48,0.55-1.97c0.37-0.49,0.87-0.73,1.52-0.73c0.51,0,0.94,0.19,1.27,0.58v-2.7
			h1.42v7.5h-1.27l-0.07-0.56c-0.35,0.44-0.8,0.66-1.36,0.66c-0.62,0-1.12-0.25-1.5-0.73C244.24,71.39,244.05,70.71,244.05,69.84z
			 M245.47,69.95c0,0.5,0.09,0.88,0.26,1.14c0.17,0.26,0.42,0.4,0.75,0.4c0.44,0,0.74-0.18,0.92-0.55v-2.09
			c-0.18-0.37-0.48-0.55-0.91-0.55C245.81,68.29,245.47,68.84,245.47,69.95z"/>
		<path class="st0" d="M252.97,72.52c-0.07-0.13-0.11-0.28-0.14-0.47c-0.34,0.38-0.79,0.57-1.33,0.57c-0.52,0-0.95-0.15-1.29-0.45
			c-0.34-0.3-0.51-0.68-0.51-1.13c0-0.56,0.21-0.99,0.62-1.29c0.41-0.3,1.01-0.45,1.8-0.45h0.65v-0.3c0-0.24-0.06-0.44-0.19-0.59
			c-0.12-0.15-0.32-0.22-0.59-0.22c-0.24,0-0.42,0.06-0.56,0.17c-0.13,0.11-0.2,0.27-0.2,0.47h-1.41c0-0.31,0.09-0.59,0.28-0.85
			c0.19-0.26,0.46-0.46,0.8-0.61c0.34-0.15,0.73-0.22,1.16-0.22c0.65,0,1.17,0.16,1.55,0.49c0.38,0.33,0.57,0.79,0.57,1.38v2.29
			c0,0.5,0.07,0.88,0.21,1.14v0.08H252.97z M251.8,71.54c0.21,0,0.4-0.05,0.58-0.14s0.31-0.22,0.39-0.37v-0.91h-0.53
			c-0.71,0-1.08,0.24-1.13,0.73l0,0.08c0,0.18,0.06,0.32,0.19,0.43C251.42,71.48,251.59,71.54,251.8,71.54z"/>
		<path class="st0" d="M257.24,70.52l0.98-3.29h1.51l-2.12,6.1l-0.12,0.28c-0.32,0.69-0.84,1.04-1.56,1.04
			c-0.21,0-0.41-0.03-0.62-0.09v-1.07l0.21,0c0.27,0,0.47-0.04,0.6-0.12c0.13-0.08,0.24-0.22,0.31-0.41l0.17-0.43l-1.85-5.3h1.52
			L257.24,70.52z"/>
		<path class="st0" d="M263.15,71.06c0-0.17-0.08-0.31-0.26-0.41c-0.17-0.1-0.44-0.19-0.82-0.27c-1.26-0.26-1.88-0.8-1.88-1.6
			c0-0.47,0.19-0.86,0.58-1.17c0.39-0.31,0.9-0.47,1.53-0.47c0.67,0,1.21,0.16,1.61,0.47c0.4,0.32,0.6,0.73,0.6,1.23h-1.41
			c0-0.2-0.07-0.37-0.2-0.5s-0.33-0.2-0.61-0.2c-0.24,0-0.42,0.05-0.55,0.16s-0.2,0.24-0.2,0.41c0,0.16,0.07,0.28,0.22,0.38
			c0.15,0.1,0.4,0.18,0.75,0.25c0.35,0.07,0.65,0.15,0.89,0.24c0.75,0.27,1.12,0.75,1.12,1.42c0,0.48-0.21,0.87-0.62,1.17
			s-0.95,0.45-1.6,0.45c-0.44,0-0.84-0.08-1.18-0.24c-0.34-0.16-0.61-0.38-0.81-0.65c-0.2-0.28-0.29-0.57-0.29-0.89h1.34
			c0.01,0.25,0.11,0.44,0.28,0.58c0.17,0.13,0.4,0.2,0.69,0.2c0.27,0,0.47-0.05,0.61-0.15C263.08,71.36,263.15,71.23,263.15,71.06z"
			/>
		<path class="st0" d="M265.54,73.94l-0.51-0.35c0.31-0.43,0.47-0.87,0.48-1.32v-0.82h0.88v0.71c0,0.33-0.08,0.66-0.24,0.99
			C265.99,73.47,265.79,73.74,265.54,73.94z"/>
		<path class="st0" d="M144.48,81.94c0,0.8-0.18,1.45-0.55,1.94c-0.37,0.49-0.87,0.74-1.49,0.74c-0.64,0-1.15-0.2-1.51-0.61v2.54
			h-0.9v-7.31h0.83l0.04,0.59c0.37-0.46,0.88-0.68,1.53-0.68c0.63,0,1.14,0.24,1.51,0.72c0.37,0.48,0.55,1.14,0.55,2V81.94z
			 M143.57,81.83c0-0.6-0.13-1.07-0.38-1.41c-0.25-0.34-0.6-0.52-1.04-0.52c-0.55,0-0.96,0.24-1.23,0.73v2.52
			c0.27,0.48,0.68,0.72,1.24,0.72c0.43,0,0.78-0.17,1.03-0.51C143.45,83.02,143.57,82.51,143.57,81.83z"/>
		<path class="st0" d="M146.61,84.52h-0.9v-7.5h0.9V84.52z"/>
		<path class="st0" d="M151.31,84.52c-0.05-0.1-0.09-0.29-0.13-0.56c-0.42,0.44-0.92,0.65-1.5,0.65c-0.52,0-0.95-0.15-1.28-0.44
			c-0.33-0.29-0.5-0.67-0.5-1.12c0-0.55,0.21-0.98,0.63-1.28c0.42-0.3,1.01-0.46,1.76-0.46h0.88V80.9c0-0.32-0.09-0.57-0.28-0.75
			c-0.19-0.19-0.47-0.28-0.83-0.28c-0.32,0-0.59,0.08-0.81,0.24c-0.22,0.16-0.33,0.36-0.33,0.59h-0.91c0-0.26,0.09-0.52,0.28-0.76
			c0.19-0.25,0.44-0.44,0.76-0.58c0.32-0.14,0.67-0.21,1.06-0.21c0.61,0,1.09,0.15,1.43,0.46c0.34,0.3,0.52,0.72,0.54,1.26v2.43
			c0,0.49,0.06,0.87,0.19,1.16v0.08H151.31z M149.81,83.83c0.28,0,0.55-0.07,0.81-0.22s0.44-0.34,0.55-0.57v-1.08h-0.71
			c-1.11,0-1.66,0.32-1.66,0.97c0,0.28,0.09,0.5,0.28,0.66C149.27,83.75,149.52,83.83,149.81,83.83z"/>
		<path class="st0" d="M154.34,79.24l0.03,0.66c0.4-0.51,0.93-0.76,1.58-0.76c1.12,0,1.68,0.63,1.69,1.89v3.49h-0.9v-3.5
			c0-0.38-0.09-0.66-0.26-0.84c-0.17-0.18-0.44-0.27-0.8-0.27c-0.29,0-0.55,0.08-0.77,0.23s-0.39,0.36-0.52,0.62v3.76h-0.9v-5.28
			H154.34z"/>
		<path class="st0" d="M162.08,83.12c0-0.24-0.09-0.43-0.28-0.57c-0.18-0.14-0.5-0.25-0.96-0.35c-0.46-0.1-0.82-0.21-1.09-0.35
			c-0.27-0.14-0.47-0.3-0.6-0.49c-0.13-0.19-0.19-0.41-0.19-0.67c0-0.43,0.18-0.8,0.55-1.1c0.37-0.3,0.83-0.45,1.4-0.45
			c0.6,0,1.08,0.16,1.46,0.46c0.37,0.31,0.56,0.71,0.56,1.19h-0.91c0-0.25-0.1-0.46-0.32-0.64c-0.21-0.18-0.47-0.27-0.79-0.27
			c-0.33,0-0.59,0.07-0.77,0.21c-0.19,0.14-0.28,0.33-0.28,0.56c0,0.22,0.09,0.38,0.26,0.49c0.17,0.11,0.48,0.22,0.94,0.32
			c0.45,0.1,0.82,0.22,1.1,0.36c0.28,0.14,0.49,0.31,0.62,0.51c0.13,0.2,0.2,0.44,0.2,0.72c0,0.47-0.19,0.85-0.57,1.14
			c-0.38,0.28-0.87,0.43-1.47,0.43c-0.42,0-0.8-0.07-1.12-0.22c-0.33-0.15-0.58-0.36-0.76-0.63c-0.18-0.27-0.28-0.56-0.28-0.87h0.9
			c0.02,0.3,0.14,0.54,0.36,0.72c0.23,0.18,0.53,0.27,0.9,0.27c0.34,0,0.62-0.07,0.82-0.21C161.98,83.54,162.08,83.35,162.08,83.12z
			"/>
		<path class="st0" d="M169.72,83.12c0-0.24-0.09-0.43-0.28-0.57c-0.18-0.14-0.5-0.25-0.96-0.35c-0.46-0.1-0.82-0.21-1.09-0.35
			c-0.27-0.14-0.47-0.3-0.6-0.49c-0.13-0.19-0.19-0.41-0.19-0.67c0-0.43,0.18-0.8,0.55-1.1c0.37-0.3,0.83-0.45,1.4-0.45
			c0.6,0,1.08,0.16,1.46,0.46c0.37,0.31,0.56,0.71,0.56,1.19h-0.91c0-0.25-0.1-0.46-0.32-0.64c-0.21-0.18-0.47-0.27-0.79-0.27
			c-0.33,0-0.59,0.07-0.77,0.21c-0.19,0.14-0.28,0.33-0.28,0.56c0,0.22,0.09,0.38,0.26,0.49c0.17,0.11,0.48,0.22,0.94,0.32
			c0.45,0.1,0.82,0.22,1.1,0.36c0.28,0.14,0.49,0.31,0.62,0.51c0.13,0.2,0.2,0.44,0.2,0.72c0,0.47-0.19,0.85-0.57,1.14
			c-0.38,0.28-0.87,0.43-1.47,0.43c-0.42,0-0.8-0.07-1.12-0.22c-0.33-0.15-0.58-0.36-0.76-0.63c-0.18-0.27-0.28-0.56-0.28-0.87h0.9
			c0.02,0.3,0.14,0.54,0.36,0.72c0.23,0.18,0.53,0.27,0.9,0.27c0.34,0,0.62-0.07,0.82-0.21C169.61,83.54,169.72,83.35,169.72,83.12z
			"/>
		<path class="st0" d="M173.02,77.96v1.28h0.99v0.7h-0.99v3.28c0,0.21,0.04,0.37,0.13,0.48c0.09,0.11,0.24,0.16,0.45,0.16
			c0.1,0,0.25-0.02,0.43-0.06v0.73c-0.24,0.06-0.47,0.1-0.69,0.1c-0.4,0-0.71-0.12-0.91-0.37s-0.31-0.59-0.31-1.04v-3.28h-0.96v-0.7
			h0.96v-1.28H173.02z"/>
		<path class="st0" d="M178.32,84.52c-0.05-0.1-0.09-0.29-0.13-0.56c-0.42,0.44-0.92,0.65-1.5,0.65c-0.52,0-0.95-0.15-1.28-0.44
			c-0.33-0.29-0.5-0.67-0.5-1.12c0-0.55,0.21-0.98,0.63-1.28c0.42-0.3,1.01-0.46,1.76-0.46h0.88V80.9c0-0.32-0.09-0.57-0.28-0.75
			c-0.19-0.19-0.47-0.28-0.83-0.28c-0.32,0-0.59,0.08-0.81,0.24c-0.22,0.16-0.33,0.36-0.33,0.59h-0.91c0-0.26,0.09-0.52,0.28-0.76
			c0.19-0.25,0.44-0.44,0.76-0.58c0.32-0.14,0.67-0.21,1.06-0.21c0.61,0,1.09,0.15,1.43,0.46c0.34,0.3,0.52,0.72,0.54,1.26v2.43
			c0,0.49,0.06,0.87,0.19,1.16v0.08H178.32z M176.83,83.83c0.28,0,0.55-0.07,0.81-0.22s0.44-0.34,0.55-0.57v-1.08h-0.71
			c-1.11,0-1.66,0.32-1.66,0.97c0,0.28,0.09,0.5,0.28,0.66C176.29,83.75,176.53,83.83,176.83,83.83z"/>
		<path class="st0" d="M183.06,80.05c-0.14-0.02-0.29-0.03-0.44-0.03c-0.59,0-0.99,0.25-1.21,0.76v3.75h-0.9v-5.28h0.88l0.01,0.61
			c0.3-0.47,0.72-0.71,1.26-0.71c0.18,0,0.31,0.02,0.4,0.07V80.05z"/>
		<path class="st0" d="M185.36,77.96v1.28h0.99v0.7h-0.99v3.28c0,0.21,0.04,0.37,0.13,0.48c0.09,0.11,0.24,0.16,0.45,0.16
			c0.1,0,0.25-0.02,0.43-0.06v0.73c-0.24,0.06-0.47,0.1-0.69,0.1c-0.4,0-0.71-0.12-0.91-0.37s-0.31-0.59-0.31-1.04v-3.28h-0.96v-0.7
			h0.96v-1.28H185.36z"/>
		<path class="st0" d="M187.4,77.84c0-0.15,0.04-0.27,0.13-0.37c0.09-0.1,0.22-0.15,0.4-0.15s0.31,0.05,0.4,0.15
			c0.09,0.1,0.14,0.22,0.14,0.37s-0.05,0.27-0.14,0.37s-0.22,0.15-0.4,0.15s-0.31-0.05-0.4-0.15
			C187.45,78.1,187.4,77.98,187.4,77.84z M188.38,84.52h-0.9v-5.28h0.9V84.52z"/>
		<path class="st0" d="M190.68,79.24l0.03,0.66c0.4-0.51,0.93-0.76,1.58-0.76c1.12,0,1.68,0.63,1.69,1.89v3.49h-0.9v-3.5
			c0-0.38-0.09-0.66-0.26-0.84c-0.17-0.18-0.44-0.27-0.8-0.27c-0.29,0-0.55,0.08-0.77,0.23s-0.39,0.36-0.52,0.62v3.76h-0.9v-5.28
			H190.68z"/>
		<path class="st0" d="M195.13,81.83c0-0.82,0.19-1.48,0.57-1.96c0.38-0.49,0.89-0.73,1.51-0.73c0.64,0,1.15,0.23,1.51,0.68
			l0.04-0.59h0.83v5.16c0,0.68-0.2,1.22-0.61,1.62c-0.41,0.39-0.95,0.59-1.63,0.59c-0.38,0-0.75-0.08-1.12-0.24
			c-0.36-0.16-0.64-0.39-0.83-0.67l0.47-0.54c0.39,0.48,0.86,0.72,1.42,0.72c0.44,0,0.78-0.12,1.03-0.37
			c0.25-0.25,0.37-0.6,0.37-1.04v-0.45c-0.36,0.42-0.85,0.62-1.48,0.62c-0.62,0-1.12-0.25-1.5-0.75
			C195.32,83.37,195.13,82.69,195.13,81.83z M196.03,81.94c0,0.6,0.12,1.06,0.37,1.4c0.24,0.34,0.59,0.51,1.03,0.51
			c0.57,0,0.99-0.26,1.25-0.78v-2.41c-0.28-0.5-0.69-0.76-1.25-0.76c-0.44,0-0.78,0.17-1.03,0.51S196.03,81.27,196.03,81.94z"/>
		<path class="st0" d="M206.69,84.52c-0.05-0.1-0.09-0.29-0.13-0.56c-0.42,0.44-0.92,0.65-1.5,0.65c-0.52,0-0.95-0.15-1.28-0.44
			c-0.33-0.29-0.5-0.67-0.5-1.12c0-0.55,0.21-0.98,0.63-1.28c0.42-0.3,1.01-0.46,1.76-0.46h0.88V80.9c0-0.32-0.09-0.57-0.28-0.75
			c-0.19-0.19-0.47-0.28-0.83-0.28c-0.32,0-0.59,0.08-0.81,0.24c-0.22,0.16-0.33,0.36-0.33,0.59h-0.91c0-0.26,0.09-0.52,0.28-0.76
			c0.19-0.25,0.44-0.44,0.76-0.58c0.32-0.14,0.67-0.21,1.06-0.21c0.61,0,1.09,0.15,1.43,0.46c0.34,0.3,0.52,0.72,0.54,1.26v2.43
			c0,0.49,0.06,0.87,0.19,1.16v0.08H206.69z M205.19,83.83c0.28,0,0.55-0.07,0.81-0.22s0.44-0.34,0.55-0.57v-1.08h-0.71
			c-1.11,0-1.66,0.32-1.66,0.97c0,0.28,0.09,0.5,0.28,0.66C204.65,83.75,204.89,83.83,205.19,83.83z"/>
		<path class="st0" d="M210.09,77.96v1.28h0.99v0.7h-0.99v3.28c0,0.21,0.04,0.37,0.13,0.48c0.09,0.11,0.24,0.16,0.45,0.16
			c0.1,0,0.25-0.02,0.43-0.06v0.73c-0.24,0.06-0.47,0.1-0.69,0.1c-0.4,0-0.71-0.12-0.91-0.37s-0.31-0.59-0.31-1.04v-3.28h-0.96v-0.7
			h0.96v-1.28H210.09z"/>
		<path class="st0" d="M217.78,82.65c0-0.27-0.07-0.48-0.22-0.64c-0.15-0.16-0.4-0.3-0.75-0.44c-0.35-0.13-0.66-0.27-0.92-0.4
			s-0.48-0.28-0.66-0.45c-0.18-0.17-0.33-0.37-0.43-0.6c-0.1-0.23-0.15-0.51-0.15-0.83c0-0.55,0.18-1,0.53-1.35s0.82-0.56,1.4-0.62
			v-1.04h0.78v1.06c0.58,0.08,1.03,0.32,1.35,0.72c0.33,0.4,0.49,0.92,0.49,1.55h-1.41c0-0.39-0.08-0.68-0.24-0.88
			c-0.16-0.19-0.38-0.29-0.65-0.29c-0.27,0-0.47,0.08-0.62,0.23s-0.22,0.36-0.22,0.63c0,0.25,0.07,0.45,0.21,0.6
			c0.14,0.15,0.41,0.3,0.8,0.46c0.39,0.16,0.71,0.3,0.96,0.44c0.25,0.14,0.46,0.29,0.63,0.47c0.17,0.17,0.3,0.37,0.4,0.6
			c0.09,0.22,0.14,0.48,0.14,0.78c0,0.55-0.17,1-0.52,1.35c-0.34,0.35-0.82,0.55-1.43,0.61v0.97h-0.78V84.6
			c-0.67-0.07-1.18-0.31-1.55-0.71c-0.37-0.4-0.55-0.94-0.55-1.6h1.41c0,0.39,0.09,0.68,0.28,0.89c0.18,0.21,0.45,0.31,0.79,0.31
			c0.29,0,0.51-0.08,0.68-0.23S217.78,82.91,217.78,82.65z"/>
		<path class="st0" d="M223.45,81.68c-0.37,0.36-0.8,0.54-1.29,0.54c-0.63,0-1.13-0.22-1.51-0.65c-0.38-0.43-0.57-1.01-0.57-1.75
			c0-0.46,0.1-0.89,0.3-1.28c0.2-0.39,0.49-0.69,0.85-0.91c0.36-0.22,0.77-0.33,1.23-0.33c0.47,0,0.89,0.12,1.25,0.35
			s0.65,0.57,0.85,1.01s0.3,0.94,0.31,1.51v0.52c0,1.19-0.29,2.12-0.88,2.79c-0.59,0.68-1.42,1.04-2.5,1.08l-0.35,0v-1.18l0.31,0
			C222.68,83.35,223.35,82.78,223.45,81.68z M222.5,81.14c0.23,0,0.42-0.06,0.59-0.18c0.17-0.12,0.29-0.26,0.37-0.42v-0.58
			c0-0.48-0.09-0.85-0.27-1.11s-0.43-0.4-0.73-0.4c-0.28,0-0.52,0.13-0.7,0.39s-0.27,0.58-0.27,0.97c0,0.39,0.09,0.71,0.27,0.96
			C221.93,81.02,222.18,81.14,222.5,81.14z"/>
		<path class="st0" d="M226.01,83.83c0-0.22,0.08-0.41,0.23-0.55c0.15-0.14,0.34-0.21,0.57-0.21c0.23,0,0.42,0.07,0.57,0.21
			c0.15,0.14,0.23,0.32,0.23,0.55c0,0.22-0.08,0.4-0.22,0.54c-0.15,0.14-0.34,0.21-0.58,0.21c-0.23,0-0.42-0.07-0.57-0.21
			C226.09,84.23,226.01,84.05,226.01,83.83z"/>
		<path class="st0" d="M232.09,81.68c-0.37,0.36-0.8,0.54-1.29,0.54c-0.63,0-1.13-0.22-1.51-0.65c-0.38-0.43-0.57-1.01-0.57-1.75
			c0-0.46,0.1-0.89,0.3-1.28c0.2-0.39,0.49-0.69,0.85-0.91c0.36-0.22,0.77-0.33,1.23-0.33c0.47,0,0.89,0.12,1.25,0.35
			s0.65,0.57,0.85,1.01s0.3,0.94,0.31,1.51v0.52c0,1.19-0.29,2.12-0.88,2.79c-0.59,0.68-1.42,1.04-2.5,1.08l-0.35,0v-1.18l0.31,0
			C231.32,83.35,231.99,82.78,232.09,81.68z M231.15,81.14c0.23,0,0.42-0.06,0.59-0.18c0.17-0.12,0.29-0.26,0.37-0.42v-0.58
			c0-0.48-0.09-0.85-0.27-1.11s-0.43-0.4-0.73-0.4c-0.28,0-0.52,0.13-0.7,0.39s-0.27,0.58-0.27,0.97c0,0.39,0.09,0.71,0.27,0.96
			C230.57,81.02,230.82,81.14,231.15,81.14z"/>
		<path class="st0" d="M237.83,81.68c-0.37,0.36-0.8,0.54-1.29,0.54c-0.63,0-1.13-0.22-1.51-0.65c-0.38-0.43-0.57-1.01-0.57-1.75
			c0-0.46,0.1-0.89,0.3-1.28c0.2-0.39,0.49-0.69,0.85-0.91c0.36-0.22,0.77-0.33,1.23-0.33c0.47,0,0.89,0.12,1.25,0.35
			s0.65,0.57,0.85,1.01s0.3,0.94,0.31,1.51v0.52c0,1.19-0.29,2.12-0.88,2.79c-0.59,0.68-1.42,1.04-2.5,1.08l-0.35,0v-1.18l0.31,0
			C237.06,83.35,237.73,82.78,237.83,81.68z M236.88,81.14c0.23,0,0.42-0.06,0.59-0.18c0.17-0.12,0.29-0.26,0.37-0.42v-0.58
			c0-0.48-0.09-0.85-0.27-1.11s-0.43-0.4-0.73-0.4c-0.28,0-0.52,0.13-0.7,0.39s-0.27,0.58-0.27,0.97c0,0.39,0.09,0.71,0.27,0.96
			C236.31,81.02,236.56,81.14,236.88,81.14z"/>
		<path class="st0" d="M240.77,85.13h-1.05l2.62-7.72h1.05L240.77,85.13z"/>
		<path class="st0" d="M245.38,79.24l0.04,0.59c0.37-0.46,0.88-0.69,1.52-0.69c0.68,0,1.15,0.27,1.4,0.81
			c0.37-0.54,0.9-0.81,1.59-0.81c0.57,0,1,0.17,1.28,0.5c0.28,0.33,0.42,0.84,0.42,1.51v3.37h-1.42v-3.37c0-0.3-0.06-0.52-0.18-0.66
			c-0.12-0.14-0.32-0.21-0.62-0.21c-0.42,0-0.72,0.2-0.88,0.61l0,3.63h-1.41v-3.36c0-0.31-0.06-0.53-0.18-0.66s-0.33-0.21-0.62-0.21
			c-0.4,0-0.69,0.17-0.87,0.5v3.74h-1.41v-5.28H245.38z"/>
		<path class="st0" d="M252.49,81.83c0-0.52,0.1-0.99,0.3-1.4s0.49-0.73,0.87-0.95c0.38-0.22,0.82-0.34,1.32-0.34
			c0.71,0,1.29,0.22,1.75,0.65c0.45,0.44,0.7,1.03,0.75,1.78l0.01,0.36c0,0.81-0.23,1.46-0.68,1.95c-0.45,0.49-1.06,0.73-1.82,0.73
			s-1.37-0.24-1.82-0.73c-0.46-0.49-0.68-1.15-0.68-1.99V81.83z M253.91,81.93c0,0.5,0.09,0.89,0.28,1.15s0.46,0.4,0.81,0.4
			c0.34,0,0.61-0.13,0.8-0.39s0.29-0.68,0.29-1.26c0-0.49-0.1-0.87-0.29-1.14s-0.46-0.41-0.81-0.41c-0.34,0-0.61,0.13-0.8,0.4
			C254,80.95,253.91,81.37,253.91,81.93z"/>
		<path class="st0" d="M259.67,79.24l0.04,0.61c0.38-0.47,0.88-0.71,1.52-0.71c0.56,0,0.98,0.17,1.25,0.49
			c0.27,0.33,0.41,0.82,0.42,1.47v3.41h-1.41v-3.38c0-0.3-0.07-0.52-0.2-0.65c-0.13-0.14-0.35-0.2-0.65-0.2
			c-0.4,0-0.7,0.17-0.89,0.51v3.73h-1.41v-5.28H259.67z"/>
		<path class="st0" d="M265.66,77.94v1.3h0.9v1.04h-0.9v2.64c0,0.2,0.04,0.34,0.11,0.42c0.08,0.08,0.22,0.13,0.43,0.13
			c0.16,0,0.29-0.01,0.42-0.03v1.07c-0.28,0.08-0.56,0.13-0.85,0.13c-0.99,0-1.49-0.5-1.51-1.5v-2.85h-0.77v-1.04h0.77v-1.3H265.66z
			"/>
		<path class="st0" d="M268.72,79.81c0.37-0.45,0.84-0.67,1.41-0.67c1.15,0,1.73,0.67,1.74,2v3.38h-1.41v-3.34
			c0-0.3-0.07-0.53-0.2-0.67c-0.13-0.15-0.35-0.22-0.65-0.22c-0.41,0-0.71,0.16-0.9,0.48v3.75h-1.41v-7.5h1.41V79.81z"/>
	</g>
	<g>
		<path class="st0" d="M130.85,24.09c-0.29,0.41-0.69,0.72-1.21,0.93s-1.12,0.31-1.81,0.31c-0.7,0-1.31-0.16-1.85-0.49
			s-0.96-0.79-1.25-1.39s-0.45-1.3-0.45-2.09v-0.74c0-1.29,0.3-2.28,0.9-2.99s1.44-1.06,2.53-1.06c0.89,0,1.61,0.23,2.15,0.68
			s0.88,1.1,1,1.94h-1.12c-0.21-1.13-0.88-1.7-2.02-1.7c-0.75,0-1.33,0.27-1.71,0.79c-0.39,0.53-0.58,1.3-0.59,2.3v0.7
			c0,0.96,0.22,1.72,0.66,2.28c0.44,0.57,1.03,0.85,1.78,0.85c0.42,0,0.79-0.05,1.11-0.14c0.32-0.09,0.58-0.25,0.79-0.47v-1.91
			h-1.97v-0.92h3.09V24.09z"/>
		<path class="st0" d="M135.19,25.32c-0.86,0-1.56-0.28-2.1-0.85s-0.81-1.32-0.81-2.26v-0.2c0-0.63,0.12-1.19,0.36-1.68
			s0.58-0.88,1.01-1.16s0.9-0.42,1.4-0.42c0.82,0,1.46,0.27,1.92,0.81s0.69,1.32,0.69,2.33v0.45h-4.29c0.02,0.62,0.2,1.13,0.55,1.51
			s0.79,0.58,1.33,0.58c0.38,0,0.71-0.08,0.97-0.23s0.5-0.36,0.7-0.62l0.66,0.52C137.05,24.91,136.25,25.32,135.19,25.32z
			 M135.05,19.64c-0.44,0-0.8,0.16-1.1,0.48s-0.48,0.76-0.55,1.34h3.18v-0.08c-0.03-0.55-0.18-0.98-0.45-1.28
			S135.51,19.64,135.05,19.64z"/>
		<path class="st0" d="M140.38,17.33v1.54h1.18v0.84h-1.18v3.94c0,0.25,0.05,0.44,0.16,0.57c0.11,0.13,0.29,0.19,0.54,0.19
			c0.12,0,0.3-0.02,0.52-0.07v0.87c-0.29,0.08-0.56,0.12-0.83,0.12c-0.48,0-0.85-0.15-1.1-0.44s-0.37-0.71-0.37-1.25V19.7h-1.15
			v-0.84h1.15v-1.54H140.38z"/>
		<path class="st0" d="M147.1,21.87v3.34h-1.12v-8.53h3.15c0.93,0,1.67,0.24,2.19,0.71s0.79,1.11,0.79,1.89
			c0,0.83-0.26,1.47-0.78,1.91s-1.26,0.67-2.22,0.67H147.1z M147.1,20.95h2.02c0.6,0,1.06-0.14,1.38-0.43
			c0.32-0.28,0.48-0.69,0.48-1.23c0-0.51-0.16-0.92-0.48-1.22s-0.76-0.46-1.32-0.48h-2.09V20.95z"/>
		<path class="st0" d="M156.44,19.84c-0.16-0.03-0.34-0.04-0.53-0.04c-0.71,0-1.19,0.3-1.45,0.91v4.5h-1.08v-6.34h1.05l0.02,0.73
			c0.36-0.57,0.86-0.85,1.51-0.85c0.21,0,0.37,0.03,0.48,0.08V19.84z"/>
		<path class="st0" d="M157.44,17.18c0-0.18,0.05-0.32,0.16-0.45s0.27-0.18,0.48-0.18s0.37,0.06,0.48,0.18s0.16,0.27,0.16,0.45
			s-0.05,0.32-0.16,0.44s-0.27,0.18-0.48,0.18s-0.37-0.06-0.48-0.18S157.44,17.36,157.44,17.18z M158.61,25.21h-1.08v-6.34h1.08
			V25.21z"/>
		<path class="st0" d="M162.44,23.73l1.57-4.87h1.11l-2.27,6.34h-0.83l-2.3-6.34h1.11L162.44,23.73z"/>
		<path class="st0" d="M169.99,25.21c-0.06-0.12-0.11-0.35-0.15-0.67c-0.5,0.52-1.11,0.79-1.8,0.79c-0.62,0-1.14-0.18-1.54-0.53
			s-0.6-0.8-0.6-1.34c0-0.66,0.25-1.17,0.75-1.54s1.21-0.55,2.12-0.55h1.05v-0.5c0-0.38-0.11-0.68-0.34-0.91s-0.56-0.34-1-0.34
			c-0.39,0-0.71,0.1-0.97,0.29s-0.39,0.43-0.39,0.71h-1.09c0-0.32,0.11-0.62,0.34-0.92s0.53-0.53,0.91-0.7s0.81-0.26,1.27-0.26
			c0.73,0,1.3,0.18,1.72,0.55s0.63,0.87,0.64,1.51v2.92c0,0.58,0.07,1.04,0.22,1.39v0.09H169.99z M168.19,24.38
			c0.34,0,0.66-0.09,0.97-0.26s0.53-0.4,0.66-0.69v-1.3h-0.85c-1.33,0-1.99,0.39-1.99,1.17c0,0.34,0.11,0.61,0.34,0.8
			S167.83,24.38,168.19,24.38z"/>
		<path class="st0" d="M175.14,24.44c0.39,0,0.72-0.12,1.01-0.35s0.45-0.53,0.48-0.88h1.03c-0.02,0.36-0.14,0.71-0.38,1.04
			s-0.54,0.59-0.92,0.79s-0.79,0.29-1.22,0.29c-0.86,0-1.55-0.29-2.06-0.86s-0.76-1.36-0.76-2.36v-0.18c0-0.62,0.11-1.17,0.34-1.65
			s0.55-0.85,0.98-1.12s0.92-0.4,1.5-0.4c0.71,0,1.3,0.21,1.77,0.64s0.72,0.98,0.75,1.66h-1.03c-0.03-0.41-0.19-0.75-0.47-1.01
			s-0.62-0.4-1.03-0.4c-0.55,0-0.98,0.2-1.28,0.59s-0.45,0.97-0.45,1.72v0.21c0,0.73,0.15,1.29,0.45,1.69S174.58,24.44,175.14,24.44
			z"/>
		<path class="st0" d="M180.96,23.62l1.48-4.75h1.16l-2.55,7.32c-0.39,1.05-1.02,1.58-1.88,1.58l-0.21-0.02l-0.4-0.08v-0.88
			l0.29,0.02c0.37,0,0.65-0.07,0.86-0.22s0.37-0.42,0.51-0.81l0.24-0.64l-2.26-6.27h1.18L180.96,23.62z"/>
		<path class="st0" d="M191.03,24.09c-0.29,0.41-0.69,0.72-1.21,0.93s-1.12,0.31-1.81,0.31c-0.7,0-1.31-0.16-1.85-0.49
			s-0.96-0.79-1.25-1.39s-0.45-1.3-0.45-2.09v-0.74c0-1.29,0.3-2.28,0.9-2.99s1.44-1.06,2.53-1.06c0.89,0,1.61,0.23,2.15,0.68
			s0.88,1.1,1,1.94h-1.12c-0.21-1.13-0.88-1.7-2.02-1.7c-0.75,0-1.33,0.27-1.71,0.79c-0.39,0.53-0.58,1.3-0.59,2.3v0.7
			c0,0.96,0.22,1.72,0.66,2.28c0.44,0.57,1.03,0.85,1.78,0.85c0.42,0,0.79-0.05,1.11-0.14c0.32-0.09,0.58-0.25,0.79-0.47v-1.91
			h-1.97v-0.92h3.09V24.09z"/>
		<path class="st0" d="M196.65,24.58c-0.42,0.5-1.04,0.74-1.86,0.74c-0.68,0-1.19-0.2-1.54-0.59s-0.53-0.97-0.54-1.74v-4.12h1.08
			v4.1c0,0.96,0.39,1.44,1.17,1.44c0.83,0,1.38-0.31,1.65-0.93v-4.61h1.08v6.34h-1.03L196.65,24.58z"/>
		<path class="st0" d="M203.26,25.21c-0.06-0.12-0.11-0.35-0.15-0.67c-0.5,0.52-1.11,0.79-1.8,0.79c-0.62,0-1.14-0.18-1.54-0.53
			s-0.6-0.8-0.6-1.34c0-0.66,0.25-1.17,0.75-1.54s1.21-0.55,2.12-0.55h1.05v-0.5c0-0.38-0.11-0.68-0.34-0.91s-0.56-0.34-1-0.34
			c-0.39,0-0.71,0.1-0.97,0.29s-0.39,0.43-0.39,0.71h-1.09c0-0.32,0.11-0.62,0.34-0.92s0.53-0.53,0.91-0.7s0.81-0.26,1.27-0.26
			c0.73,0,1.3,0.18,1.72,0.55s0.63,0.87,0.64,1.51v2.92c0,0.58,0.07,1.04,0.22,1.39v0.09H203.26z M201.46,24.38
			c0.34,0,0.66-0.09,0.97-0.26s0.53-0.4,0.66-0.69v-1.3h-0.85c-1.33,0-1.99,0.39-1.99,1.17c0,0.34,0.11,0.61,0.34,0.8
			S201.11,24.38,201.46,24.38z"/>
		<path class="st0" d="M208.94,19.84c-0.16-0.03-0.34-0.04-0.53-0.04c-0.71,0-1.19,0.3-1.45,0.91v4.5h-1.08v-6.34h1.05l0.02,0.73
			c0.36-0.57,0.86-0.85,1.51-0.85c0.21,0,0.37,0.03,0.48,0.08V19.84z"/>
		<path class="st0" d="M209.67,21.98c0-0.97,0.23-1.75,0.69-2.35s1.06-0.89,1.81-0.89c0.74,0,1.33,0.25,1.76,0.76v-3.3h1.08v9h-1
			l-0.05-0.68c-0.43,0.53-1.04,0.8-1.81,0.8c-0.73,0-1.33-0.3-1.8-0.9s-0.69-1.39-0.69-2.36V21.98z M210.76,22.11
			c0,0.72,0.15,1.28,0.45,1.69s0.71,0.61,1.23,0.61c0.69,0,1.19-0.31,1.51-0.93v-2.91c-0.32-0.6-0.82-0.9-1.49-0.9
			c-0.53,0-0.95,0.21-1.24,0.62S210.76,21.3,210.76,22.11z"/>
		<path class="st0" d="M225.29,23.71l1.22-4.85h1.08l-1.85,6.34h-0.88l-1.54-4.8l-1.5,4.8h-0.88l-1.84-6.34h1.08l1.25,4.75
			l1.48-4.75h0.87L225.29,23.71z"/>
		<path class="st0" d="M228.7,17.18c0-0.18,0.05-0.32,0.16-0.45s0.27-0.18,0.48-0.18s0.37,0.06,0.48,0.18s0.16,0.27,0.16,0.45
			s-0.05,0.32-0.16,0.44s-0.27,0.18-0.48,0.18s-0.37-0.06-0.48-0.18S228.7,17.36,228.7,17.18z M229.87,25.21h-1.08v-6.34h1.08V25.21
			z"/>
		<path class="st0" d="M233.07,17.33v1.54h1.18v0.84h-1.18v3.94c0,0.25,0.05,0.44,0.16,0.57c0.11,0.13,0.29,0.19,0.54,0.19
			c0.12,0,0.3-0.02,0.52-0.07v0.87c-0.29,0.08-0.56,0.12-0.83,0.12c-0.48,0-0.85-0.15-1.1-0.44s-0.37-0.71-0.37-1.25V19.7h-1.15
			v-0.84h1.15v-1.54H233.07z"/>
		<path class="st0" d="M236.61,19.63c0.48-0.59,1.11-0.88,1.88-0.88c1.34,0,2.02,0.76,2.03,2.27v4.19h-1.08v-4.2
			c0-0.46-0.11-0.79-0.31-1.01s-0.52-0.33-0.96-0.33c-0.35,0-0.66,0.09-0.93,0.28s-0.47,0.43-0.62,0.74v4.52h-1.08v-9h1.08V19.63z"
			/>
		<path class="st0" d="M246.54,18.87l0.05,0.71c0.45-0.55,1.06-0.83,1.82-0.83c0.82,0,1.38,0.32,1.68,0.97
			c0.45-0.64,1.08-0.97,1.9-0.97c0.69,0,1.2,0.2,1.54,0.6s0.5,1,0.5,1.81v4.05h-1.7v-4.04c0-0.36-0.07-0.62-0.21-0.79
			s-0.39-0.25-0.74-0.25c-0.51,0-0.86,0.24-1.05,0.73l0.01,4.35h-1.69v-4.04c0-0.37-0.07-0.63-0.22-0.8s-0.39-0.25-0.74-0.25
			c-0.48,0-0.83,0.2-1.04,0.6v4.48h-1.69v-6.34H246.54z"/>
		<path class="st0" d="M255.08,21.98c0-0.63,0.12-1.19,0.36-1.68s0.59-0.87,1.05-1.14s0.98-0.4,1.58-0.4c0.86,0,1.55,0.26,2.09,0.79
			s0.84,1.23,0.91,2.13l0.01,0.43c0,0.97-0.27,1.75-0.81,2.34s-1.27,0.88-2.19,0.88s-1.64-0.29-2.19-0.88s-0.82-1.38-0.82-2.39
			V21.98z M256.77,22.1c0,0.6,0.11,1.06,0.34,1.38c0.23,0.32,0.55,0.48,0.97,0.48c0.41,0,0.73-0.16,0.96-0.47
			c0.23-0.31,0.35-0.82,0.35-1.51c0-0.59-0.12-1.05-0.35-1.37s-0.55-0.49-0.97-0.49c-0.41,0-0.73,0.16-0.96,0.48
			S256.77,21.42,256.77,22.1z"/>
		<path class="st0" d="M263.68,18.87l0.05,0.73c0.45-0.57,1.06-0.85,1.82-0.85c0.67,0,1.17,0.2,1.5,0.59s0.5,0.98,0.5,1.77v4.1
			h-1.69v-4.05c0-0.36-0.08-0.62-0.23-0.78s-0.42-0.24-0.78-0.24c-0.48,0-0.83,0.2-1.07,0.61v4.47h-1.69v-6.34H263.68z"/>
		<path class="st0" d="M270.87,17.31v1.56h1.08v1.24h-1.08v3.16c0,0.23,0.04,0.4,0.13,0.5s0.26,0.15,0.52,0.15
			c0.19,0,0.35-0.01,0.5-0.04v1.28c-0.33,0.1-0.67,0.15-1.03,0.15c-1.19,0-1.79-0.6-1.82-1.8v-3.42h-0.93v-1.24h0.93v-1.56H270.87z"
			/>
		<path class="st0" d="M274.55,19.56c0.45-0.54,1.01-0.81,1.69-0.81c1.38,0,2.07,0.8,2.09,2.4v4.06h-1.69v-4.01
			c0-0.36-0.08-0.63-0.23-0.81s-0.42-0.26-0.78-0.26c-0.5,0-0.86,0.19-1.08,0.57v4.51h-1.69v-9h1.69V19.56z"/>
		<path class="st0" d="M281.4,25.21h-1.7v-9h1.7V25.21z"/>
		<path class="st0" d="M285.16,22.81l1.17-3.94h1.82l-2.55,7.32l-0.14,0.33c-0.38,0.83-1,1.24-1.88,1.24c-0.25,0-0.5-0.04-0.75-0.11
			v-1.28l0.26,0.01c0.32,0,0.56-0.05,0.72-0.15s0.28-0.26,0.37-0.49l0.2-0.52l-2.22-6.36h1.82L285.16,22.81z"/>
		<path class="st0" d="M108.72,31.71v1.56h1.08v1.24h-1.08v3.16c0,0.23,0.04,0.4,0.13,0.5s0.26,0.15,0.52,0.15
			c0.19,0,0.35-0.01,0.5-0.04v1.28c-0.33,0.1-0.67,0.15-1.03,0.15c-1.19,0-1.79-0.6-1.82-1.8v-3.42h-0.93v-1.24h0.93v-1.56H108.72z"
			/>
		<path class="st0" d="M114.31,34.85c-0.23-0.03-0.43-0.05-0.61-0.05c-0.64,0-1.06,0.22-1.26,0.65v4.15h-1.69v-6.34h1.6l0.05,0.76
			c0.34-0.58,0.81-0.87,1.41-0.87c0.19,0,0.36,0.03,0.53,0.08L114.31,34.85z"/>
		<path class="st0" d="M115.11,31.62c0-0.25,0.08-0.46,0.25-0.63s0.4-0.25,0.69-0.25c0.29,0,0.52,0.08,0.69,0.25
			s0.26,0.37,0.26,0.63c0,0.26-0.09,0.47-0.26,0.63s-0.4,0.25-0.69,0.25s-0.51-0.08-0.69-0.25S115.11,31.88,115.11,31.62z
			 M116.91,39.61h-1.7v-6.34h1.7V39.61z"/>
		<path class="st0" d="M124.01,36.49c0,0.98-0.22,1.76-0.67,2.35s-1.04,0.88-1.8,0.88c-0.64,0-1.16-0.22-1.55-0.67v2.99h-1.69v-8.78
			h1.57l0.06,0.62c0.41-0.49,0.95-0.74,1.61-0.74c0.78,0,1.39,0.29,1.82,0.87s0.65,1.38,0.65,2.39V36.49z M122.32,36.37
			c0-0.59-0.1-1.04-0.31-1.37s-0.51-0.48-0.91-0.48c-0.53,0-0.9,0.2-1.1,0.61v2.6c0.21,0.42,0.58,0.63,1.11,0.63
			C121.91,38.36,122.32,37.7,122.32,36.37z"/>
		<path class="st0" d="M126.85,39.61h-1.7v-9h1.7V39.61z"/>
		<path class="st0" d="M131.16,39.72c-0.93,0-1.69-0.29-2.27-0.86s-0.88-1.33-0.88-2.28v-0.16c0-0.64,0.12-1.21,0.37-1.71
			s0.59-0.89,1.05-1.16s0.97-0.41,1.54-0.41c0.87,0,1.55,0.27,2.05,0.82s0.75,1.32,0.75,2.33v0.69h-4.04c0.05,0.41,0.22,0.75,0.5,1
			s0.62,0.38,1.05,0.38c0.65,0,1.16-0.24,1.53-0.71l0.83,0.93c-0.25,0.36-0.6,0.64-1.03,0.84S131.69,39.72,131.16,39.72z
			 M130.97,34.51c-0.34,0-0.61,0.11-0.82,0.34s-0.34,0.55-0.4,0.98h2.36V35.7c-0.01-0.38-0.11-0.67-0.3-0.87
			S131.33,34.51,130.97,34.51z"/>
		<path class="st0" d="M138.02,36.63h-3.3v-1.37h3.3V36.63z"/>
		<path class="st0" d="M145.09,36.49c0,1.02-0.22,1.81-0.65,2.38s-1.04,0.85-1.82,0.85c-0.69,0-1.24-0.26-1.65-0.79l-0.08,0.67
			h-1.52v-9h1.69v3.23c0.39-0.46,0.9-0.69,1.54-0.69c0.77,0,1.38,0.28,1.82,0.85s0.66,1.37,0.66,2.4V36.49z M143.4,36.37
			c0-0.64-0.1-1.11-0.3-1.4s-0.51-0.44-0.91-0.44c-0.54,0-0.91,0.22-1.11,0.66v2.5c0.21,0.45,0.58,0.67,1.12,0.67
			c0.55,0,0.91-0.27,1.08-0.81C143.36,37.29,143.4,36.9,143.4,36.37z"/>
		<path class="st0" d="M149.93,38.96c-0.42,0.51-1,0.76-1.73,0.76c-0.68,0-1.2-0.2-1.56-0.59s-0.54-0.96-0.55-1.72v-4.15h1.69v4.1
			c0,0.66,0.3,0.99,0.9,0.99c0.57,0,0.97-0.2,1.18-0.6v-4.49h1.7v6.34h-1.59L149.93,38.96z"/>
		<path class="st0" d="M156.41,34.85c-0.23-0.03-0.43-0.05-0.61-0.05c-0.64,0-1.06,0.22-1.26,0.65v4.15h-1.69v-6.34h1.6l0.05,0.76
			c0.34-0.58,0.81-0.87,1.41-0.87c0.19,0,0.36,0.03,0.53,0.08L156.41,34.85z"/>
		<path class="st0" d="M160.15,39.72c-0.93,0-1.69-0.29-2.27-0.86S157,37.54,157,36.59v-0.16c0-0.64,0.12-1.21,0.37-1.71
			s0.59-0.89,1.05-1.16s0.97-0.41,1.54-0.41c0.87,0,1.55,0.27,2.05,0.82s0.75,1.32,0.75,2.33v0.69h-4.04c0.05,0.41,0.22,0.75,0.5,1
			s0.62,0.38,1.05,0.38c0.65,0,1.16-0.24,1.53-0.71l0.83,0.93c-0.25,0.36-0.6,0.64-1.03,0.84S160.67,39.72,160.15,39.72z
			 M159.95,34.51c-0.34,0-0.61,0.11-0.82,0.34s-0.34,0.55-0.4,0.98h2.36V35.7c-0.01-0.38-0.11-0.67-0.3-0.87
			S160.31,34.51,159.95,34.51z"/>
		<path class="st0" d="M167.39,39.61c-0.08-0.15-0.13-0.34-0.17-0.57c-0.41,0.46-0.94,0.69-1.6,0.69c-0.62,0-1.14-0.18-1.54-0.54
			s-0.61-0.81-0.61-1.36c0-0.67,0.25-1.19,0.75-1.55s1.22-0.54,2.16-0.54h0.78v-0.36c0-0.29-0.08-0.53-0.23-0.7
			s-0.39-0.26-0.71-0.26c-0.29,0-0.51,0.07-0.67,0.21s-0.24,0.32-0.24,0.56h-1.69c0-0.37,0.11-0.71,0.34-1.02s0.55-0.56,0.96-0.74
			s0.88-0.27,1.39-0.27c0.78,0,1.4,0.2,1.86,0.59s0.69,0.94,0.69,1.66v2.75c0,0.6,0.09,1.06,0.25,1.37v0.1H167.39z M165.99,38.43
			c0.25,0,0.48-0.06,0.69-0.17s0.37-0.26,0.47-0.45v-1.09h-0.63c-0.85,0-1.3,0.29-1.35,0.88l-0.01,0.1c0,0.21,0.07,0.38,0.22,0.52
			S165.73,38.43,165.99,38.43z"/>
		<path class="st0" d="M173.94,38.96c-0.42,0.51-1,0.76-1.73,0.76c-0.68,0-1.2-0.2-1.56-0.59s-0.54-0.96-0.55-1.72v-4.15h1.69v4.1
			c0,0.66,0.3,0.99,0.9,0.99c0.57,0,0.97-0.2,1.18-0.6v-4.49h1.7v6.34h-1.59L173.94,38.96z"/>
		<path class="st0" d="M182.49,38.36c0.31,0,0.57-0.09,0.76-0.26s0.3-0.4,0.3-0.69h1.59c0,0.43-0.12,0.82-0.35,1.18
			s-0.55,0.63-0.95,0.83s-0.84,0.3-1.33,0.3c-0.91,0-1.62-0.29-2.14-0.86s-0.79-1.37-0.79-2.39v-0.11c0-0.98,0.26-1.76,0.78-2.34
			s1.23-0.87,2.14-0.87c0.79,0,1.43,0.23,1.91,0.68s0.72,1.05,0.73,1.8h-1.59c-0.01-0.33-0.11-0.6-0.3-0.8
			c-0.2-0.21-0.45-0.31-0.77-0.31c-0.39,0-0.69,0.14-0.89,0.43c-0.2,0.29-0.3,0.75-0.3,1.4v0.18c0,0.65,0.1,1.12,0.3,1.41
			S182.08,38.36,182.49,38.36z"/>
		<path class="st0" d="M189.67,34.85c-0.23-0.03-0.43-0.05-0.61-0.05c-0.64,0-1.06,0.22-1.26,0.65v4.15h-1.69v-6.34h1.6l0.05,0.76
			c0.34-0.58,0.81-0.87,1.41-0.87c0.19,0,0.36,0.03,0.53,0.08L189.67,34.85z"/>
		<path class="st0" d="M193.4,39.72c-0.93,0-1.69-0.29-2.27-0.86s-0.88-1.33-0.88-2.28v-0.16c0-0.64,0.12-1.21,0.37-1.71
			s0.59-0.89,1.05-1.16s0.97-0.41,1.54-0.41c0.87,0,1.55,0.27,2.05,0.82s0.75,1.32,0.75,2.33v0.69h-4.04c0.05,0.41,0.22,0.75,0.5,1
			s0.62,0.38,1.05,0.38c0.65,0,1.16-0.24,1.53-0.71l0.83,0.93c-0.25,0.36-0.6,0.64-1.03,0.84S193.93,39.72,193.4,39.72z
			 M193.21,34.51c-0.34,0-0.61,0.11-0.82,0.34s-0.34,0.55-0.4,0.98h2.36V35.7c-0.01-0.38-0.11-0.67-0.3-0.87
			S193.57,34.51,193.21,34.51z"/>
		<path class="st0" d="M196.71,36.39c0-0.99,0.22-1.78,0.67-2.36s1.05-0.88,1.82-0.88c0.62,0,1.13,0.23,1.53,0.69v-3.23h1.7v9h-1.53
			l-0.08-0.67c-0.42,0.53-0.96,0.79-1.63,0.79c-0.75,0-1.34-0.29-1.8-0.88S196.71,37.44,196.71,36.39z M198.4,36.51
			c0,0.59,0.1,1.05,0.31,1.37c0.21,0.32,0.51,0.48,0.9,0.48c0.52,0,0.89-0.22,1.11-0.66v-2.51c-0.21-0.44-0.58-0.66-1.1-0.66
			C198.81,34.53,198.4,35.19,198.4,36.51z"/>
		<path class="st0" d="M203.72,31.62c0-0.25,0.08-0.46,0.25-0.63s0.4-0.25,0.69-0.25c0.29,0,0.52,0.08,0.69,0.25
			s0.26,0.37,0.26,0.63c0,0.26-0.09,0.47-0.26,0.63s-0.4,0.25-0.69,0.25s-0.51-0.08-0.69-0.25S203.72,31.88,203.72,31.62z
			 M205.52,39.61h-1.7v-6.34h1.7V39.61z"/>
		<path class="st0" d="M208.94,31.71v1.56h1.08v1.24h-1.08v3.16c0,0.23,0.04,0.4,0.13,0.5s0.26,0.15,0.52,0.15
			c0.19,0,0.35-0.01,0.5-0.04v1.28c-0.33,0.1-0.67,0.15-1.03,0.15c-1.19,0-1.79-0.6-1.82-1.8v-3.42h-0.93v-1.24h0.93v-1.56H208.94z"
			/>
		<path class="st0" d="M217.39,37.85c0-0.21-0.1-0.37-0.31-0.49s-0.53-0.23-0.99-0.32c-1.51-0.32-2.26-0.96-2.26-1.92
			c0-0.56,0.23-1.03,0.7-1.41s1.08-0.57,1.83-0.57c0.8,0,1.45,0.19,1.93,0.57s0.72,0.87,0.72,1.48h-1.69c0-0.24-0.08-0.44-0.23-0.6
			s-0.4-0.24-0.73-0.24c-0.29,0-0.51,0.06-0.66,0.19s-0.23,0.29-0.23,0.49c0,0.19,0.09,0.34,0.27,0.45s0.48,0.21,0.9,0.3
			s0.78,0.18,1.07,0.28c0.89,0.33,1.34,0.9,1.34,1.71c0,0.58-0.25,1.05-0.74,1.4s-1.14,0.54-1.92,0.54c-0.53,0-1-0.09-1.42-0.28
			s-0.74-0.45-0.97-0.78s-0.35-0.69-0.35-1.07h1.61c0.02,0.3,0.13,0.53,0.33,0.69s0.48,0.24,0.83,0.24c0.32,0,0.57-0.06,0.74-0.18
			S217.39,38.05,217.39,37.85z"/>
		<path class="st0" d="M222.76,38.36c0.31,0,0.57-0.09,0.76-0.26s0.3-0.4,0.3-0.69h1.59c0,0.43-0.12,0.82-0.35,1.18
			s-0.55,0.63-0.95,0.83s-0.84,0.3-1.33,0.3c-0.91,0-1.62-0.29-2.14-0.86s-0.79-1.37-0.79-2.39v-0.11c0-0.98,0.26-1.76,0.78-2.34
			s1.23-0.87,2.14-0.87c0.79,0,1.43,0.23,1.91,0.68s0.72,1.05,0.73,1.8h-1.59c-0.01-0.33-0.11-0.6-0.3-0.8
			c-0.2-0.21-0.45-0.31-0.77-0.31c-0.39,0-0.69,0.14-0.89,0.43c-0.2,0.29-0.3,0.75-0.3,1.4v0.18c0,0.65,0.1,1.12,0.3,1.41
			S222.36,38.36,222.76,38.36z"/>
		<path class="st0" d="M226.12,36.38c0-0.63,0.12-1.19,0.36-1.68s0.59-0.87,1.05-1.14s0.98-0.4,1.58-0.4c0.86,0,1.55,0.26,2.09,0.79
			s0.84,1.23,0.91,2.13l0.01,0.43c0,0.97-0.27,1.75-0.81,2.34s-1.27,0.88-2.19,0.88s-1.64-0.29-2.19-0.88s-0.82-1.38-0.82-2.39
			V36.38z M227.82,36.5c0,0.6,0.11,1.06,0.34,1.38c0.23,0.32,0.55,0.48,0.97,0.48c0.41,0,0.73-0.16,0.96-0.47
			c0.23-0.31,0.35-0.82,0.35-1.51c0-0.59-0.12-1.05-0.35-1.37s-0.55-0.49-0.97-0.49c-0.41,0-0.73,0.16-0.96,0.48
			S227.82,35.82,227.82,36.5z"/>
		<path class="st0" d="M236.73,34.85c-0.23-0.03-0.43-0.05-0.61-0.05c-0.64,0-1.06,0.22-1.26,0.65v4.15h-1.69v-6.34h1.6l0.05,0.76
			c0.34-0.58,0.81-0.87,1.41-0.87c0.19,0,0.36,0.03,0.53,0.08L236.73,34.85z"/>
		<path class="st0" d="M240.47,39.72c-0.93,0-1.69-0.29-2.27-0.86s-0.88-1.33-0.88-2.28v-0.16c0-0.64,0.12-1.21,0.37-1.71
			s0.59-0.89,1.05-1.16s0.97-0.41,1.54-0.41c0.87,0,1.55,0.27,2.05,0.82s0.75,1.32,0.75,2.33v0.69h-4.04c0.05,0.41,0.22,0.75,0.5,1
			s0.62,0.38,1.05,0.38c0.65,0,1.16-0.24,1.53-0.71l0.83,0.93c-0.25,0.36-0.6,0.64-1.03,0.84S240.99,39.72,240.47,39.72z
			 M240.27,34.51c-0.34,0-0.61,0.11-0.82,0.34s-0.34,0.55-0.4,0.98h2.36V35.7c-0.01-0.38-0.11-0.67-0.3-0.87
			S240.63,34.51,240.27,34.51z"/>
		<path class="st0" d="M247.47,37.85c0-0.21-0.1-0.37-0.31-0.49s-0.53-0.23-0.99-0.32c-1.51-0.32-2.26-0.96-2.26-1.92
			c0-0.56,0.23-1.03,0.7-1.41s1.08-0.57,1.83-0.57c0.8,0,1.45,0.19,1.93,0.57s0.72,0.87,0.72,1.48h-1.69c0-0.24-0.08-0.44-0.23-0.6
			s-0.4-0.24-0.73-0.24c-0.29,0-0.51,0.06-0.66,0.19s-0.23,0.29-0.23,0.49c0,0.19,0.09,0.34,0.27,0.45s0.48,0.21,0.9,0.3
			s0.78,0.18,1.07,0.28c0.89,0.33,1.34,0.9,1.34,1.71c0,0.58-0.25,1.05-0.74,1.4s-1.14,0.54-1.92,0.54c-0.53,0-1-0.09-1.42-0.28
			s-0.74-0.45-0.97-0.78s-0.35-0.69-0.35-1.07h1.61c0.02,0.3,0.13,0.53,0.33,0.69s0.48,0.24,0.83,0.24c0.32,0,0.57-0.06,0.74-0.18
			S247.47,38.05,247.47,37.85z"/>
		<path class="st0" d="M252.96,37.31c0-0.39,0.11-0.76,0.33-1.1s0.63-0.71,1.22-1.12c-0.25-0.34-0.45-0.66-0.6-0.96
			s-0.22-0.61-0.22-0.93c0-0.66,0.21-1.2,0.63-1.62s0.99-0.62,1.7-0.62c0.64,0,1.16,0.19,1.57,0.57s0.61,0.85,0.61,1.42
			c0,0.68-0.34,1.28-1.03,1.8l-0.66,0.47l1.47,1.71c0.23-0.45,0.35-0.95,0.35-1.5h1.44c0,1.11-0.26,2.01-0.77,2.7l1.28,1.48h-1.92
			l-0.44-0.5c-0.63,0.41-1.35,0.62-2.17,0.62c-0.84,0-1.52-0.22-2.03-0.67S252.96,38.03,252.96,37.31z M255.83,38.36
			c0.41,0,0.79-0.11,1.15-0.34l-1.68-1.94l-0.12,0.09c-0.35,0.3-0.52,0.64-0.52,1.05c0,0.34,0.11,0.61,0.33,0.83
			S255.48,38.36,255.83,38.36z M255.21,33.18c0,0.29,0.17,0.66,0.52,1.11l0.45-0.3c0.23-0.15,0.39-0.29,0.48-0.43
			s0.13-0.31,0.13-0.5s-0.07-0.37-0.22-0.51s-0.33-0.22-0.56-0.22c-0.24,0-0.44,0.08-0.58,0.23S255.21,32.92,255.21,33.18z"/>
		<path class="st0" d="M267.62,34.85c-0.23-0.03-0.43-0.05-0.61-0.05c-0.64,0-1.06,0.22-1.26,0.65v4.15h-1.69v-6.34h1.6l0.05,0.76
			c0.34-0.58,0.81-0.87,1.41-0.87c0.19,0,0.36,0.03,0.53,0.08L267.62,34.85z"/>
		<path class="st0" d="M271.35,39.72c-0.93,0-1.69-0.29-2.27-0.86s-0.88-1.33-0.88-2.28v-0.16c0-0.64,0.12-1.21,0.37-1.71
			s0.59-0.89,1.05-1.16s0.97-0.41,1.54-0.41c0.87,0,1.55,0.27,2.05,0.82s0.75,1.32,0.75,2.33v0.69h-4.04c0.05,0.41,0.22,0.75,0.5,1
			s0.62,0.38,1.05,0.38c0.65,0,1.16-0.24,1.53-0.71l0.83,0.93c-0.25,0.36-0.6,0.64-1.03,0.84S271.88,39.72,271.35,39.72z
			 M271.16,34.51c-0.34,0-0.61,0.11-0.82,0.34s-0.34,0.55-0.4,0.98h2.36V35.7c-0.01-0.38-0.11-0.67-0.3-0.87
			S271.52,34.51,271.16,34.51z"/>
		<path class="st0" d="M280.63,36.49c0,0.98-0.22,1.76-0.67,2.35s-1.04,0.88-1.8,0.88c-0.64,0-1.16-0.22-1.55-0.67v2.99h-1.69v-8.78
			h1.57l0.06,0.62c0.41-0.49,0.95-0.74,1.61-0.74c0.78,0,1.39,0.29,1.82,0.87s0.65,1.38,0.65,2.39V36.49z M278.93,36.37
			c0-0.59-0.1-1.04-0.31-1.37s-0.51-0.48-0.91-0.48c-0.53,0-0.9,0.2-1.1,0.61v2.6c0.21,0.42,0.58,0.63,1.11,0.63
			C278.53,38.36,278.93,37.7,278.93,36.37z"/>
		<path class="st0" d="M281.41,36.38c0-0.63,0.12-1.19,0.36-1.68s0.59-0.87,1.05-1.14s0.98-0.4,1.58-0.4c0.86,0,1.55,0.26,2.09,0.79
			s0.84,1.23,0.91,2.13l0.01,0.43c0,0.97-0.27,1.75-0.81,2.34s-1.27,0.88-2.19,0.88s-1.64-0.29-2.19-0.88s-0.82-1.38-0.82-2.39
			V36.38z M283.1,36.5c0,0.6,0.11,1.06,0.34,1.38c0.23,0.32,0.55,0.48,0.97,0.48c0.41,0,0.73-0.16,0.96-0.47
			c0.23-0.31,0.35-0.82,0.35-1.51c0-0.59-0.12-1.05-0.35-1.37s-0.55-0.49-0.97-0.49c-0.41,0-0.73,0.16-0.96,0.48
			S283.1,35.82,283.1,36.5z"/>
		<path class="st0" d="M292.02,34.85c-0.23-0.03-0.43-0.05-0.61-0.05c-0.64,0-1.06,0.22-1.26,0.65v4.15h-1.69v-6.34h1.6l0.05,0.76
			c0.34-0.58,0.81-0.87,1.41-0.87c0.19,0,0.36,0.03,0.53,0.08L292.02,34.85z"/>
		<path class="st0" d="M295.16,31.71v1.56h1.08v1.24h-1.08v3.16c0,0.23,0.04,0.4,0.13,0.5s0.26,0.15,0.52,0.15
			c0.19,0,0.35-0.01,0.5-0.04v1.28c-0.33,0.1-0.67,0.15-1.03,0.15c-1.19,0-1.79-0.6-1.82-1.8v-3.42h-0.93v-1.24h0.93v-1.56H295.16z"
			/>
		<path class="st0" d="M300.62,37.85c0-0.21-0.1-0.37-0.31-0.49s-0.53-0.23-0.99-0.32c-1.51-0.32-2.26-0.96-2.26-1.92
			c0-0.56,0.23-1.03,0.7-1.41s1.08-0.57,1.83-0.57c0.8,0,1.45,0.19,1.93,0.57s0.72,0.87,0.72,1.48h-1.69c0-0.24-0.08-0.44-0.23-0.6
			s-0.4-0.24-0.73-0.24c-0.29,0-0.51,0.06-0.66,0.19s-0.23,0.29-0.23,0.49c0,0.19,0.09,0.34,0.27,0.45s0.48,0.21,0.9,0.3
			s0.78,0.18,1.07,0.28c0.89,0.33,1.34,0.9,1.34,1.71c0,0.58-0.25,1.05-0.74,1.4s-1.14,0.54-1.92,0.54c-0.53,0-1-0.09-1.42-0.28
			s-0.74-0.45-0.97-0.78s-0.35-0.69-0.35-1.07h1.61c0.02,0.3,0.13,0.53,0.33,0.69s0.48,0.24,0.83,0.24c0.32,0,0.57-0.06,0.74-0.18
			S300.62,38.05,300.62,37.85z"/>
	</g>
	<linearGradient id="SVGID_1_" gradientUnits="userSpaceOnUse" x1="168.108" y1="52.9109" x2="238.108" y2="52.9109">
		<stop  offset="0" style="stop-color:#18B9FB"/>
		<stop  offset="0.5" style="stop-color:#782EEB"/>
		<stop  offset="1" style="stop-color:#E82D8A"/>
	</linearGradient>
	<path class="st1" d="M236.61,54.41h-67c-0.83,0-1.5-0.67-1.5-1.5v0c0-0.83,0.67-1.5,1.5-1.5h67c0.83,0,1.5,0.67,1.5,1.5v0
		C238.11,53.74,237.44,54.41,236.61,54.41z"/>
</g>
</svg>
