<?xml version="1.0" encoding="utf-8"?>
<!-- Generator: Adobe Illustrator 24.2.3, SVG Export Plug-In . SVG Version: 6.00 Build 0)  -->
<svg version="1.1" id="Layer_1" xmlns="http://www.w3.org/2000/svg" xmlns:xlink="http://www.w3.org/1999/xlink" x="0px" y="0px"
	 viewBox="0 0 320 100" style="enable-background:new 0 0 320 100;" xml:space="preserve">
<style type="text/css">
	.st0{fill:#021D8B;}
</style>
<g id="C1_-_O_2_">
	<path class="st0" d="M126.02,39.27v5.01h-2.93V30.06h5.55c1.07,0,2.01,0.2,2.82,0.59s1.43,0.95,1.87,1.67
		c0.44,0.72,0.65,1.54,0.65,2.46c0,1.39-0.48,2.49-1.43,3.3s-2.27,1.21-3.96,1.21H126.02z M126.02,36.89h2.62
		c0.77,0,1.37-0.18,1.77-0.55s0.61-0.89,0.61-1.56c0-0.7-0.21-1.26-0.62-1.69s-0.98-0.65-1.7-0.66h-2.69V36.89z"/>
	<path class="st0" d="M138.78,44.28h-2.83v-15h2.83V44.28z"/>
	<path class="st0" d="M147.23,44.28c-0.13-0.25-0.22-0.57-0.28-0.95c-0.68,0.76-1.57,1.14-2.67,1.14c-1.04,0-1.89-0.3-2.57-0.9
		s-1.02-1.35-1.02-2.27c0-1.12,0.42-1.98,1.25-2.58s2.03-0.9,3.6-0.91h1.3v-0.61c0-0.49-0.13-0.88-0.38-1.17s-0.65-0.44-1.19-0.44
		c-0.48,0-0.85,0.11-1.12,0.34s-0.41,0.54-0.41,0.94h-2.82c0-0.61,0.19-1.18,0.57-1.7s0.91-0.93,1.6-1.23s1.46-0.44,2.32-0.44
		c1.3,0,2.34,0.33,3.1,0.98s1.15,1.57,1.15,2.76v4.58c0.01,1,0.15,1.76,0.42,2.28v0.17H147.23z M144.89,42.31
		c0.42,0,0.8-0.09,1.15-0.28s0.61-0.43,0.78-0.75v-1.82h-1.05c-1.41,0-2.16,0.49-2.26,1.46l-0.01,0.17c0,0.35,0.12,0.64,0.37,0.87
		S144.46,42.31,144.89,42.31z"/>
	<path class="st0" d="M154.42,33.71l0.09,1.22c0.76-0.94,1.77-1.42,3.04-1.42c1.12,0,1.95,0.33,2.5,0.99s0.83,1.64,0.84,2.95v6.83
		h-2.82v-6.76c0-0.6-0.13-1.03-0.39-1.3s-0.69-0.41-1.3-0.41c-0.79,0-1.39,0.34-1.79,1.02v7.45h-2.82V33.71H154.42z"/>
	<path class="st0" d="M165.63,33.71l0.09,1.22c0.76-0.94,1.77-1.42,3.04-1.42c1.12,0,1.95,0.33,2.5,0.99s0.83,1.64,0.84,2.95v6.83
		h-2.82v-6.76c0-0.6-0.13-1.03-0.39-1.3s-0.69-0.41-1.3-0.41c-0.79,0-1.39,0.34-1.79,1.02v7.45h-2.82V33.71H165.63z"/>
	<path class="st0" d="M174.21,30.98c0-0.42,0.14-0.77,0.42-1.04s0.67-0.41,1.16-0.41c0.48,0,0.87,0.14,1.15,0.41
		s0.43,0.62,0.43,1.04c0,0.43-0.15,0.78-0.43,1.05c-0.29,0.27-0.67,0.41-1.15,0.41s-0.86-0.14-1.15-0.41
		C174.35,31.76,174.21,31.41,174.21,30.98z M177.21,44.28h-2.83V33.71h2.83V44.28z"/>
	<path class="st0" d="M182.13,33.71l0.09,1.22c0.76-0.94,1.77-1.42,3.04-1.42c1.12,0,1.95,0.33,2.5,0.99s0.83,1.64,0.84,2.95v6.83
		h-2.82v-6.76c0-0.6-0.13-1.03-0.39-1.3s-0.69-0.41-1.3-0.41c-0.79,0-1.39,0.34-1.79,1.02v7.45h-2.82V33.71H182.13z"/>
	<path class="st0" d="M190.32,38.92c0-1.62,0.39-2.93,1.16-3.92s1.81-1.48,3.12-1.48c1.16,0,2.06,0.4,2.71,1.19l0.12-1h2.56v10.21
		c0,0.92-0.21,1.73-0.63,2.41s-1.01,1.2-1.77,1.56s-1.65,0.54-2.68,0.54c-0.77,0-1.53-0.15-2.27-0.46s-1.29-0.71-1.67-1.2l1.25-1.72
		c0.7,0.79,1.56,1.18,2.56,1.18c0.75,0,1.33-0.2,1.75-0.6s0.62-0.97,0.62-1.7v-0.57c-0.65,0.74-1.51,1.1-2.57,1.1
		c-1.27,0-2.3-0.5-3.08-1.49s-1.18-2.31-1.18-3.95V38.92z M193.14,39.13c0,0.96,0.19,1.71,0.58,2.25c0.38,0.54,0.91,0.82,1.58,0.82
		c0.86,0,1.47-0.32,1.85-0.97v-4.45c-0.38-0.65-0.99-0.97-1.83-0.97c-0.68,0-1.21,0.28-1.6,0.83S193.14,38.02,193.14,39.13z"/>
	<path class="st0" d="M210.51,31.11v2.6h1.81v2.07h-1.81v5.27c0,0.39,0.07,0.67,0.22,0.84s0.44,0.25,0.86,0.25
		c0.31,0,0.59-0.02,0.83-0.07v2.14c-0.55,0.17-1.12,0.25-1.71,0.25c-1.98,0-2.99-1-3.03-3v-5.69h-1.54v-2.07h1.54v-2.6H210.51z"/>
	<path class="st0" d="M213.15,38.9c0-1.05,0.2-1.98,0.61-2.8s0.98-1.46,1.74-1.9s1.64-0.67,2.64-0.67c1.43,0,2.59,0.44,3.49,1.31
		s1.4,2.06,1.51,3.55l0.02,0.72c0,1.62-0.45,2.92-1.36,3.9s-2.12,1.47-3.64,1.47s-2.74-0.49-3.65-1.46s-1.36-2.3-1.36-3.98V38.9z
		 M215.98,39.1c0,1,0.19,1.77,0.57,2.3c0.38,0.53,0.92,0.8,1.62,0.8c0.68,0,1.22-0.26,1.6-0.79c0.38-0.53,0.58-1.36,0.58-2.52
		c0-0.98-0.19-1.75-0.58-2.29c-0.38-0.54-0.92-0.81-1.62-0.81c-0.69,0-1.22,0.27-1.6,0.81C216.17,37.14,215.98,37.97,215.98,39.1z"
		/>
	<path class="st0" d="M232.53,33.71l0.09,1.18c0.75-0.92,1.76-1.38,3.04-1.38c1.36,0,2.29,0.54,2.8,1.61
		c0.74-1.07,1.8-1.61,3.17-1.61c1.15,0,2,0.33,2.56,1s0.84,1.67,0.84,3.01v6.75h-2.83v-6.74c0-0.6-0.12-1.04-0.35-1.31
		s-0.65-0.42-1.24-0.42c-0.85,0-1.43,0.4-1.76,1.21l0.01,7.26h-2.82v-6.73c0-0.61-0.12-1.05-0.36-1.33s-0.65-0.41-1.23-0.41
		c-0.8,0-1.38,0.33-1.74,1v7.47h-2.82V33.71H232.53z"/>
	<path class="st0" d="M253.32,44.28c-0.13-0.25-0.22-0.57-0.28-0.95c-0.68,0.76-1.57,1.14-2.67,1.14c-1.04,0-1.89-0.3-2.57-0.9
		s-1.02-1.35-1.02-2.27c0-1.12,0.42-1.98,1.25-2.58s2.03-0.9,3.6-0.91h1.3v-0.61c0-0.49-0.13-0.88-0.38-1.17s-0.65-0.44-1.19-0.44
		c-0.48,0-0.85,0.11-1.12,0.34s-0.41,0.54-0.41,0.94h-2.82c0-0.61,0.19-1.18,0.57-1.7s0.91-0.93,1.6-1.23s1.46-0.44,2.32-0.44
		c1.3,0,2.34,0.33,3.1,0.98s1.15,1.57,1.15,2.76v4.58c0.01,1,0.15,1.76,0.42,2.28v0.17H253.32z M250.99,42.31
		c0.42,0,0.8-0.09,1.15-0.28s0.61-0.43,0.78-0.75v-1.82h-1.05c-1.41,0-2.16,0.49-2.26,1.46l-0.01,0.17c0,0.35,0.12,0.64,0.37,0.87
		S250.56,42.31,250.99,42.31z"/>
	<path class="st0" d="M261.76,40.04l-1.02,1.02v3.22h-2.82v-15h2.82v8.31l0.55-0.7l2.71-3.17h3.39l-3.82,4.4l4.15,6.16h-3.24
		L261.76,40.04z"/>
	<path class="st0" d="M273.27,44.47c-1.55,0-2.81-0.48-3.78-1.43s-1.46-2.22-1.46-3.8v-0.27c0-1.06,0.21-2.01,0.62-2.85
		s0.99-1.48,1.74-1.93s1.61-0.68,2.57-0.68c1.45,0,2.58,0.46,3.41,1.37s1.25,2.2,1.25,3.88v1.15h-6.73
		c0.09,0.69,0.37,1.24,0.83,1.66s1.04,0.62,1.74,0.62c1.09,0,1.94-0.39,2.55-1.18l1.39,1.55c-0.42,0.6-1,1.07-1.72,1.4
		S274.15,44.47,273.27,44.47z M272.95,35.79c-0.56,0-1.01,0.19-1.36,0.57s-0.57,0.92-0.67,1.63h3.93v-0.23
		c-0.01-0.63-0.18-1.11-0.51-1.46S273.55,35.79,272.95,35.79z"/>
	<path class="st0" d="M136.38,68.28c-0.13-0.25-0.22-0.57-0.28-0.95c-0.68,0.76-1.57,1.14-2.67,1.14c-1.04,0-1.89-0.3-2.57-0.9
		s-1.02-1.35-1.02-2.27c0-1.12,0.42-1.98,1.25-2.58s2.03-0.9,3.6-0.91h1.3v-0.61c0-0.49-0.13-0.88-0.38-1.17s-0.65-0.44-1.19-0.44
		c-0.48,0-0.85,0.11-1.12,0.34s-0.41,0.54-0.41,0.94h-2.82c0-0.61,0.19-1.18,0.57-1.7s0.91-0.93,1.6-1.23s1.46-0.44,2.32-0.44
		c1.3,0,2.34,0.33,3.1,0.98s1.15,1.57,1.15,2.76v4.58c0.01,1,0.15,1.76,0.42,2.28v0.17H136.38z M134.04,66.31
		c0.42,0,0.8-0.09,1.15-0.28s0.61-0.43,0.78-0.75v-1.82h-1.05c-1.41,0-2.16,0.49-2.26,1.46l-0.01,0.17c0,0.35,0.12,0.64,0.37,0.87
		S133.61,66.31,134.04,66.31z"/>
	<path class="st0" d="M155.48,63.09c0,1.69-0.36,3.01-1.08,3.96s-1.73,1.42-3.03,1.42c-1.15,0-2.06-0.44-2.74-1.32l-0.13,1.12h-2.54
		v-15h2.82v5.38c0.65-0.76,1.51-1.14,2.57-1.14c1.29,0,2.3,0.47,3.03,1.42s1.1,2.28,1.1,4V63.09z M152.66,62.89
		c0-1.07-0.17-1.85-0.51-2.34s-0.84-0.74-1.51-0.74c-0.9,0-1.52,0.37-1.86,1.1v4.17c0.35,0.74,0.97,1.11,1.88,1.11
		c0.91,0,1.51-0.45,1.8-1.35C152.59,64.42,152.66,63.77,152.66,62.89z"/>
	<path class="st0" d="M157.2,54.98c0-0.42,0.14-0.77,0.42-1.04s0.67-0.41,1.16-0.41c0.48,0,0.87,0.14,1.15,0.41s0.43,0.62,0.43,1.04
		c0,0.43-0.15,0.78-0.43,1.05s-0.67,0.41-1.15,0.41s-0.86-0.14-1.15-0.41S157.2,55.41,157.2,54.98z M160.2,68.28h-2.83V57.71h2.83
		V68.28z"/>
	<path class="st0" d="M162.11,62.92c0-1.62,0.39-2.93,1.16-3.92s1.81-1.48,3.12-1.48c1.16,0,2.06,0.4,2.71,1.19l0.12-1h2.56v10.21
		c0,0.92-0.21,1.73-0.63,2.41s-1.01,1.2-1.77,1.56s-1.65,0.54-2.68,0.54c-0.77,0-1.53-0.15-2.27-0.46s-1.29-0.71-1.67-1.2l1.25-1.72
		c0.7,0.79,1.56,1.18,2.56,1.18c0.75,0,1.33-0.2,1.75-0.6s0.62-0.97,0.62-1.7v-0.57c-0.65,0.74-1.51,1.1-2.57,1.1
		c-1.27,0-2.3-0.5-3.08-1.49s-1.18-2.31-1.18-3.95V62.92z M164.93,63.13c0,0.96,0.19,1.71,0.58,2.25c0.38,0.54,0.91,0.82,1.58,0.82
		c0.86,0,1.47-0.32,1.85-0.97v-4.45c-0.38-0.65-0.99-0.97-1.83-0.97c-0.68,0-1.21,0.28-1.6,0.83S164.93,62.02,164.93,63.13z"/>
	<path class="st0" d="M188.43,63.09c0,1.63-0.37,2.93-1.11,3.91s-1.74,1.47-2.99,1.47c-1.07,0-1.93-0.37-2.59-1.11v4.98h-2.82V57.71
		h2.62l0.1,1.04c0.68-0.82,1.58-1.23,2.68-1.23c1.3,0,2.31,0.48,3.04,1.45s1.08,2.29,1.08,3.98V63.09z M185.61,62.89
		c0-0.98-0.17-1.74-0.52-2.28s-0.85-0.8-1.52-0.8c-0.89,0-1.49,0.34-1.83,1.02v4.33c0.35,0.7,0.96,1.04,1.85,1.04
		C184.93,66.2,185.61,65.09,185.61,62.89z"/>
	<path class="st0" d="M196.5,67.2c-0.7,0.85-1.66,1.27-2.89,1.27c-1.13,0-2-0.33-2.59-0.98s-0.9-1.6-0.91-2.86v-6.92h2.82v6.83
		c0,1.1,0.5,1.65,1.5,1.65c0.96,0,1.61-0.33,1.97-1v-7.49h2.83v10.57h-2.66L196.5,67.2z"/>
	<path class="st0" d="M207.3,60.36c-0.38-0.05-0.72-0.08-1.02-0.08c-1.07,0-1.77,0.36-2.1,1.08v6.91h-2.82V57.71h2.67l0.08,1.26
		c0.57-0.97,1.35-1.46,2.35-1.46c0.31,0,0.61,0.04,0.88,0.13L207.3,60.36z"/>
	<path class="st0" d="M212.87,66.2c0.52,0,0.94-0.14,1.27-0.43s0.49-0.67,0.51-1.14h2.65c-0.01,0.72-0.2,1.37-0.59,1.97
		s-0.91,1.06-1.58,1.39s-1.4,0.49-2.21,0.49c-1.51,0-2.7-0.48-3.57-1.44s-1.31-2.29-1.31-3.98v-0.19c0-1.63,0.43-2.93,1.3-3.9
		s2.05-1.46,3.56-1.46c1.32,0,2.38,0.38,3.18,1.13s1.2,1.75,1.22,3h-2.65c-0.01-0.55-0.18-1-0.51-1.34
		c-0.33-0.34-0.76-0.52-1.29-0.52c-0.66,0-1.15,0.24-1.49,0.72c-0.34,0.48-0.5,1.26-0.5,2.33v0.29c0,1.09,0.17,1.87,0.5,2.35
		S212.19,66.2,212.87,66.2z"/>
	<path class="st0" d="M221.66,58.86c0.75-0.9,1.69-1.35,2.82-1.35c2.29,0,3.45,1.33,3.49,3.99v6.77h-2.82v-6.69
		c0-0.61-0.13-1.05-0.39-1.34s-0.69-0.43-1.3-0.43c-0.83,0-1.43,0.32-1.8,0.96v7.51h-2.82v-15h2.82V58.86z"/>
	<path class="st0" d="M236.22,68.28c-0.13-0.25-0.22-0.57-0.28-0.95c-0.68,0.76-1.57,1.14-2.67,1.14c-1.04,0-1.89-0.3-2.57-0.9
		s-1.02-1.35-1.02-2.27c0-1.12,0.42-1.98,1.25-2.58s2.03-0.9,3.6-0.91h1.3v-0.61c0-0.49-0.13-0.88-0.38-1.17s-0.65-0.44-1.19-0.44
		c-0.48,0-0.85,0.11-1.12,0.34s-0.41,0.54-0.41,0.94h-2.82c0-0.61,0.19-1.18,0.57-1.7s0.91-0.93,1.6-1.23s1.46-0.44,2.32-0.44
		c1.3,0,2.34,0.33,3.1,0.98s1.15,1.57,1.15,2.76v4.58c0.01,1,0.15,1.76,0.42,2.28v0.17H236.22z M233.89,66.31
		c0.42,0,0.8-0.09,1.15-0.28s0.61-0.43,0.78-0.75v-1.82h-1.05c-1.41,0-2.16,0.49-2.26,1.46l-0.01,0.17c0,0.35,0.12,0.64,0.37,0.87
		S233.46,66.31,233.89,66.31z"/>
	<path class="st0" d="M246.54,65.36c0-0.35-0.17-0.62-0.51-0.82s-0.89-0.38-1.65-0.53c-2.51-0.53-3.77-1.6-3.77-3.2
		c0-0.94,0.39-1.72,1.17-2.35s1.8-0.94,3.05-0.94c1.34,0,2.41,0.32,3.22,0.95s1.21,1.45,1.21,2.46h-2.82c0-0.4-0.13-0.74-0.39-1
		s-0.67-0.4-1.22-0.4c-0.48,0-0.84,0.11-1.1,0.32s-0.39,0.49-0.39,0.82c0,0.31,0.15,0.56,0.44,0.76s0.8,0.36,1.5,0.5
		s1.3,0.3,1.78,0.47c1.49,0.55,2.24,1.49,2.24,2.84c0,0.96-0.41,1.74-1.24,2.34s-1.89,0.89-3.2,0.89c-0.89,0-1.67-0.16-2.36-0.47
		s-1.23-0.75-1.62-1.3s-0.59-1.14-0.59-1.78h2.68c0.03,0.5,0.21,0.89,0.56,1.15s0.81,0.4,1.39,0.4c0.54,0,0.95-0.1,1.23-0.31
		S246.54,65.69,246.54,65.36z"/>
	<path class="st0" d="M255.97,68.47c-1.55,0-2.81-0.48-3.78-1.43s-1.46-2.22-1.46-3.8v-0.27c0-1.06,0.21-2.01,0.62-2.85
		s0.99-1.48,1.74-1.93s1.61-0.68,2.57-0.68c1.45,0,2.58,0.46,3.41,1.37s1.25,2.2,1.25,3.88v1.15h-6.73
		c0.09,0.69,0.37,1.24,0.83,1.66s1.04,0.62,1.74,0.62c1.09,0,1.94-0.39,2.55-1.18l1.39,1.55c-0.42,0.6-1,1.07-1.72,1.4
		S256.85,68.47,255.97,68.47z M255.64,59.79c-0.56,0-1.01,0.19-1.36,0.57s-0.57,0.92-0.67,1.63h3.93v-0.23
		c-0.01-0.63-0.18-1.11-0.51-1.46S256.24,59.79,255.64,59.79z"/>
	<path class="st0" d="M264.22,63.92c0-0.91,0.11-1.64,0.33-2.18c0.22-0.54,0.63-1.07,1.22-1.6c0.59-0.52,0.98-0.95,1.18-1.28
		c0.2-0.33,0.29-0.68,0.29-1.04c0-1.1-0.51-1.65-1.52-1.65c-0.48,0-0.87,0.15-1.16,0.45s-0.44,0.71-0.45,1.23h-2.83
		c0.01-1.24,0.42-2.22,1.21-2.92s1.87-1.06,3.24-1.06c1.38,0,2.45,0.33,3.21,1s1.14,1.61,1.14,2.83c0,0.55-0.12,1.08-0.37,1.57
		c-0.25,0.49-0.68,1.04-1.3,1.64l-0.79,0.75c-0.49,0.48-0.78,1.03-0.85,1.67l-0.04,0.6H264.22z M263.94,66.92
		c0-0.43,0.15-0.79,0.44-1.08s0.68-0.42,1.14-0.42s0.84,0.14,1.14,0.42s0.44,0.64,0.44,1.08c0,0.43-0.15,0.78-0.43,1.06
		s-0.67,0.42-1.15,0.42s-0.86-0.14-1.15-0.42S263.94,67.34,263.94,66.92z"/>
</g>
</svg>
