<svg id="Layer_1" xmlns="http://www.w3.org/2000/svg" viewBox="0 0 320 100"><style>.st0{fill:#e82d8a}</style><path class="st0" d="M137.31 29.66h-2.06v2.13h-1.08v-5.22h3.4v.87h-2.32v1.35h2.06v.87zM140.21 28.89c-.14-.02-.26-.03-.37-.03-.39 0-.65.13-.77.4v2.54h-1.04v-3.88h.97l.03.46c.21-.36.5-.53.86-.53.11 0 .22.02.32.05v.99zM142.49 31.87c-.57 0-1.03-.17-1.39-.52-.36-.35-.54-.81-.54-1.39v-.1c0-.39.08-.74.23-1.04.15-.31.36-.54.64-.71s.59-.25.95-.25c.53 0 .95.17 1.25.5.3.33.46.81.46 1.42v.42h-2.47c.03.25.13.46.3.61.17.15.38.23.64.23.4 0 .71-.14.94-.43l.51.57c-.16.22-.37.39-.63.51s-.57.18-.89.18zm-.12-3.19c-.21 0-.37.07-.5.21s-.21.34-.25.6h1.44v-.09c0-.23-.07-.41-.19-.53-.11-.13-.28-.19-.5-.19zM146.46 31.87c-.57 0-1.03-.17-1.39-.52-.36-.35-.54-.81-.54-1.39v-.1c0-.39.08-.74.23-1.04.15-.31.36-.54.64-.71s.59-.25.95-.25c.53 0 .95.17 1.25.5.3.33.46.81.46 1.42v.42h-2.47c.03.25.13.46.3.61.17.15.38.23.64.23.4 0 .71-.14.94-.43l.51.57c-.16.22-.37.39-.63.51s-.57.18-.89.18zm-.12-3.19c-.21 0-.37.07-.5.21s-.21.34-.25.6h1.44v-.09c0-.23-.07-.41-.19-.53-.11-.13-.28-.19-.5-.19zM150.9 31.79v-3.37h-.61v-.51h.61v-.4c0-.42.11-.74.33-.96.22-.23.54-.34.94-.34.15 0 .3.02.46.06l-.04.54c-.11-.02-.23-.03-.36-.03-.22 0-.38.06-.5.19s-.18.31-.18.54v.41h.83v.51h-.83v3.37h-.65zM152.95 29.82c0-.38.07-.72.22-1.03.15-.3.36-.54.62-.7s.57-.25.91-.25c.53 0 .96.18 1.28.55.33.37.49.85.49 1.46v.05c0 .38-.07.72-.22 1.02s-.35.53-.62.7c-.27.17-.58.25-.93.25-.53 0-.95-.18-1.28-.55s-.49-.85-.49-1.45v-.05zm.67.08c0 .43.1.78.3 1.04.2.26.47.39.8.39.34 0 .6-.13.8-.4.2-.26.3-.63.3-1.11 0-.42-.1-.77-.3-1.03-.2-.26-.47-.4-.81-.4-.33 0-.59.13-.79.39s-.3.63-.3 1.12zM159.19 28.51c-.1-.02-.21-.02-.33-.02-.44 0-.73.18-.89.56v2.75h-.66v-3.88h.65l.01.45c.22-.35.53-.52.92-.52.13 0 .23.02.29.05v.61zM162.41 29.75v2.04h-.69v-5.22h1.92c.57 0 1.02.15 1.34.44s.49.68.49 1.16c0 .51-.16.9-.47 1.17-.32.27-.77.41-1.36.41h-1.23zm0-.56h1.24c.37 0 .65-.09.85-.26.2-.17.29-.42.29-.75 0-.31-.1-.56-.29-.75-.2-.19-.46-.28-.81-.29h-1.28v2.05zM168.12 28.51c-.1-.02-.21-.02-.33-.02-.43 0-.73.18-.89.56v2.75h-.66v-3.88h.65l.01.45c.22-.35.53-.52.92-.52.13 0 .23.02.29.05v.61zM168.73 26.88c0-.11.03-.2.1-.27s.16-.11.29-.11.23.04.29.11c.07.07.1.17.1.27 0 .11-.03.2-.1.27s-.17.11-.29.11-.23-.04-.29-.11a.406.406 0 0 1-.1-.27zm.72 4.91h-.66v-3.88h.66v3.88zM171.79 30.89l.96-2.98h.68l-1.39 3.88h-.51l-1.41-3.88h.68l.99 2.98zM176.41 31.79c-.04-.08-.07-.21-.09-.41-.31.32-.68.48-1.1.48-.38 0-.7-.11-.94-.33-.25-.22-.37-.49-.37-.82 0-.4.15-.72.46-.94.31-.22.74-.33 1.3-.33h.65v-.3c0-.23-.07-.42-.21-.55-.14-.14-.34-.21-.61-.21-.24 0-.44.06-.6.18-.16.12-.24.26-.24.43h-.67c0-.19.07-.38.21-.56.14-.18.32-.32.56-.43.24-.11.49-.16.78-.16.45 0 .8.11 1.05.33.25.22.38.53.39.92v1.79c0 .36.04.64.14.85v.06h-.71zm-1.1-.5c.21 0 .41-.05.59-.16.19-.11.32-.25.41-.42v-.8h-.52c-.81 0-1.22.24-1.22.71 0 .21.07.37.21.49s.31.18.53.18zM179.56 31.32c.24 0 .44-.07.62-.21.18-.14.27-.32.29-.54h.63c-.01.22-.09.43-.23.63s-.33.36-.56.48-.48.18-.75.18c-.53 0-.95-.18-1.26-.53s-.47-.83-.47-1.45v-.11c0-.38.07-.71.21-1.01s.34-.52.6-.68c.26-.16.57-.24.92-.24.43 0 .8.13 1.08.39s.44.6.46 1.01h-.63a.887.887 0 0 0-.29-.62.884.884 0 0 0-.63-.24c-.34 0-.6.12-.78.36-.19.24-.28.59-.28 1.05v.12c0 .45.09.79.28 1.03.19.26.45.38.79.38zM183.12 30.82l.9-2.91h.71l-1.56 4.48c-.24.65-.62.97-1.15.97l-.13-.01-.25-.05v-.54l.18.01c.22 0 .4-.05.53-.14.12-.09.23-.26.31-.5l.15-.39-1.38-3.84h.72l.97 2.92zM189.28 31.11c-.18.25-.42.44-.74.57-.32.12-.69.19-1.11.19-.43 0-.8-.1-1.13-.3-.33-.2-.58-.48-.76-.85-.18-.37-.27-.79-.28-1.28v-.46c0-.79.18-1.4.55-1.83.37-.43.88-.65 1.55-.65.54 0 .98.14 1.32.42s.54.67.61 1.19h-.69c-.13-.69-.54-1.04-1.23-1.04-.46 0-.81.16-1.05.49-.24.32-.36.79-.36 1.41v.43c0 .59.13 1.05.4 1.4s.63.52 1.09.52c.26 0 .48-.03.68-.09.19-.06.35-.15.48-.29v-1.17h-1.21v-.56h1.89v1.9zM192.72 31.41c-.26.3-.64.46-1.14.46-.41 0-.73-.12-.95-.36-.22-.24-.33-.6-.33-1.07v-2.52h.66v2.51c0 .59.24.88.72.88.51 0 .84-.19 1.01-.57v-2.82h.66v3.88h-.63v-.39zM196.77 31.79c-.04-.08-.07-.21-.09-.41-.31.32-.68.48-1.1.48-.38 0-.7-.11-.94-.33-.25-.22-.37-.49-.37-.82 0-.4.15-.72.46-.94.31-.22.74-.33 1.3-.33h.65v-.3c0-.23-.07-.42-.21-.55-.14-.14-.34-.21-.61-.21-.24 0-.43.06-.59.18-.16.12-.24.26-.24.43h-.67c0-.19.07-.38.21-.56s.32-.32.56-.43.49-.16.78-.16c.45 0 .8.11 1.05.33.25.22.38.53.39.92v1.79c0 .36.05.64.14.85v.06h-.72zm-1.1-.5c.21 0 .4-.05.59-.16.19-.11.32-.25.41-.42v-.8h-.52c-.81 0-1.22.24-1.22.71 0 .21.07.37.21.49.13.12.31.18.53.18zM200.24 28.51c-.1-.02-.21-.02-.33-.02-.44 0-.73.18-.89.56v2.75h-.66v-3.88h.65l.01.45c.22-.35.53-.52.92-.52.13 0 .23.02.29.05v.61zM200.69 29.82c0-.59.14-1.07.42-1.44.28-.36.65-.54 1.11-.54.45 0 .81.16 1.08.47v-2.02h.66v5.51h-.61l-.03-.42c-.27.33-.63.49-1.11.49-.45 0-.82-.18-1.1-.55s-.42-.85-.42-1.44v-.06zm.66.08c0 .44.09.78.27 1.03.18.25.43.37.75.37.42 0 .73-.19.92-.57v-1.78c-.2-.37-.5-.55-.91-.55-.33 0-.58.12-.76.38s-.27.62-.27 1.12zM207.43 27.91l.02.43c.29-.33.67-.5 1.15-.5.54 0 .91.21 1.11.62.13-.19.3-.34.5-.45.21-.12.45-.17.73-.17.85 0 1.28.45 1.3 1.35v2.6h-.66v-2.56c0-.28-.06-.48-.19-.62s-.34-.21-.64-.21c-.25 0-.45.07-.61.22a.87.87 0 0 0-.28.59v2.57h-.67v-2.54c0-.56-.28-.85-.83-.85-.44 0-.73.19-.89.56v2.83h-.66V27.9h.62zM214.86 31.87c-.53 0-.95-.17-1.28-.52-.33-.34-.49-.81-.49-1.39v-.12c0-.38.07-.73.22-1.03.15-.3.35-.54.62-.71.26-.17.55-.26.86-.26.5 0 .9.17 1.18.5.28.33.42.81.42 1.43v.28h-2.63c.01.38.12.69.33.93s.49.35.82.35c.23 0 .43-.05.6-.14.16-.09.3-.22.43-.38l.4.32c-.35.49-.83.74-1.48.74zm-.09-3.48c-.27 0-.49.1-.67.29-.18.19-.29.47-.34.82h1.94v-.05c-.02-.34-.11-.6-.27-.78-.16-.19-.38-.28-.66-.28zM217.76 27.91l.02.43c.29-.33.67-.5 1.15-.5.54 0 .91.21 1.11.62.13-.19.3-.34.5-.45.21-.12.45-.17.73-.17.85 0 1.28.45 1.3 1.35v2.6h-.66v-2.56c0-.28-.06-.48-.19-.62s-.34-.21-.64-.21c-.25 0-.45.07-.61.22a.87.87 0 0 0-.28.59v2.57h-.67v-2.54c0-.56-.28-.85-.83-.85-.44 0-.73.19-.89.56v2.83h-.66V27.9h.62zM226.86 29.9c0 .59-.14 1.07-.41 1.43-.27.36-.64.54-1.1.54-.49 0-.87-.17-1.14-.52l-.03.45h-.61v-5.51h.66v2.05c.27-.33.64-.5 1.11-.5s.84.18 1.11.53c.27.36.4.84.4 1.46v.07zm-.67-.08c0-.45-.09-.8-.26-1.05s-.43-.37-.75-.37c-.44 0-.75.2-.94.61v1.68c.2.41.52.61.95.61.32 0 .57-.12.74-.37s.26-.61.26-1.11zM229.3 31.87c-.53 0-.95-.17-1.28-.52-.33-.34-.49-.81-.49-1.39v-.12c0-.38.07-.73.22-1.03.15-.3.35-.54.62-.71.26-.17.55-.26.86-.26.5 0 .9.17 1.18.5.28.33.42.81.42 1.43v.28h-2.63c.01.38.12.69.33.93s.49.35.82.35c.23 0 .43-.05.6-.14.16-.09.3-.22.43-.38l.4.32c-.34.49-.83.74-1.48.74zm-.08-3.48c-.27 0-.49.1-.67.29-.18.19-.29.47-.34.82h1.94v-.05c-.02-.34-.11-.6-.27-.78-.17-.19-.38-.28-.66-.28zM233.46 28.51c-.1-.02-.21-.02-.33-.02-.43 0-.73.18-.89.56v2.75h-.66v-3.88h.65l.01.45c.22-.35.53-.52.92-.52.13 0 .23.02.29.05v.61zM236.32 30.76c0-.18-.07-.32-.2-.42s-.37-.18-.71-.26c-.34-.07-.6-.16-.8-.26s-.34-.22-.44-.36a.891.891 0 0 1-.14-.5c0-.32.13-.59.4-.81.27-.22.61-.33 1.03-.33.44 0 .8.11 1.07.34.27.23.41.52.41.87h-.67c0-.18-.08-.34-.23-.47a.869.869 0 0 0-.58-.2c-.24 0-.43.05-.57.16-.14.11-.2.24-.2.41 0 .16.06.28.19.36s.36.16.69.23.6.16.8.26c.21.1.36.23.46.37.1.15.15.32.15.53 0 .35-.14.62-.42.83-.28.21-.64.31-1.08.31-.31 0-.59-.06-.83-.17-.24-.11-.43-.26-.56-.46s-.2-.41-.2-.64h.66c.01.22.1.4.27.53s.39.2.66.2c.25 0 .45-.05.6-.15.17-.06.24-.2.24-.37zM237.87 31.45c0-.11.03-.21.1-.29.07-.08.17-.11.31-.11.14 0 .24.04.31.11.07.08.11.17.11.29 0 .11-.04.2-.11.28s-.17.11-.31.11c-.14 0-.24-.04-.31-.11a.402.402 0 0 1-.1-.28z"/></svg>