<svg id="Layer_1" xmlns="http://www.w3.org/2000/svg" viewBox="0 0 320 100"><style>.st0{fill:url(#SVGID_1_)}</style><linearGradient id="SVGID_1_" gradientUnits="userSpaceOnUse" x1="16.467" y1="70.306" x2="239.707" y2="70.306"><stop offset="0" stop-color="#18b9fb"/><stop offset=".5" stop-color="#782eeb"/><stop offset="1" stop-color="#e82d8a"/></linearGradient><path class="st0" d="M21.21 70.7h-1.66v4.51h-3.07V62.46h5.02c1.51 0 2.69.34 3.55 1.01.85.67 1.28 1.62 1.28 2.84 0 .89-.18 1.62-.54 2.2-.36.58-.92 1.06-1.69 1.42l2.66 5.15v.13h-3.29l-2.26-4.51zm-1.67-2.36h1.94c.58 0 1.02-.15 1.32-.46.3-.31.44-.74.44-1.29s-.15-.98-.45-1.29-.74-.47-1.31-.47h-1.94v3.51zm13.08 7.05c-1.45 0-2.63-.43-3.53-1.3-.9-.87-1.35-2-1.35-3.38v-.25c0-.97.18-1.82.54-2.57.36-.74.88-1.32 1.57-1.72.69-.41 1.51-.61 2.45-.61 1.33 0 2.38.41 3.15 1.24.77.83 1.16 1.98 1.16 3.46v1.15h-5.87c.11.53.34.95.69 1.25.36.3.82.46 1.38.46.93 0 1.66-.33 2.19-.98l1.35 1.59c-.37.51-.89.91-1.56 1.21-.67.3-1.4.45-2.17.45zm-.34-7.55c-.86 0-1.38.57-1.54 1.72h2.98v-.23c.01-.47-.11-.84-.36-1.1-.25-.26-.61-.39-1.08-.39zm9.53 5.27c.41 0 .74-.11.96-.34.23-.22.34-.54.33-.94h2.77c0 1.04-.37 1.89-1.12 2.56-.74.67-1.7 1-2.88 1-1.38 0-2.46-.43-3.26-1.3-.79-.86-1.19-2.06-1.19-3.59v-.12c0-.96.18-1.8.53-2.54.35-.73.86-1.3 1.53-1.69.67-.39 1.45-.59 2.36-.59 1.23 0 2.21.34 2.93 1.02.72.68 1.09 1.61 1.09 2.78H43.1c0-.49-.12-.87-.36-1.13-.24-.26-.56-.39-.96-.39-.77 0-1.21.49-1.34 1.46-.04.31-.06.74-.06 1.28 0 .95.11 1.61.34 1.98.23.36.59.55 1.09.55zm9.89 2.28c-1.45 0-2.63-.43-3.53-1.3-.9-.87-1.35-2-1.35-3.38v-.25c0-.97.18-1.82.54-2.57.36-.74.88-1.32 1.57-1.72.69-.41 1.51-.61 2.45-.61 1.33 0 2.38.41 3.15 1.24.77.83 1.16 1.98 1.16 3.46v1.15h-5.87c.11.53.34.95.69 1.25.36.3.82.46 1.38.46.93 0 1.66-.33 2.19-.98l1.35 1.59c-.37.51-.89.91-1.56 1.21-.67.3-1.39.45-2.17.45zm-.33-7.55c-.86 0-1.38.57-1.54 1.72h2.98v-.23c.01-.47-.11-.84-.36-1.1-.25-.26-.61-.39-1.08-.39zm5.49-4.55c0-.42.15-.76.46-1.03.3-.27.7-.4 1.18-.4s.88.13 1.18.4c.3.27.46.61.46 1.03 0 .42-.15.77-.46 1.03-.3.27-.7.4-1.18.4s-.88-.13-1.18-.4c-.31-.26-.46-.61-.46-1.03zM60 75.21h-2.96v-9.48H60v9.48zm5.59-3.51l1.5-5.96h3.11l-3.09 9.48H64.1L61 65.73h3.12l1.47 5.97zm9.96 3.69c-1.45 0-2.63-.43-3.53-1.3-.9-.87-1.35-2-1.35-3.38v-.25c0-.97.18-1.82.54-2.57.36-.74.88-1.32 1.57-1.72.69-.41 1.51-.61 2.45-.61 1.33 0 2.38.41 3.15 1.24.77.83 1.16 1.98 1.16 3.46v1.15h-5.87c.11.53.34.95.69 1.25.36.3.82.46 1.38.46.93 0 1.66-.33 2.19-.98l1.35 1.59c-.37.51-.89.91-1.56 1.21-.67.3-1.39.45-2.17.45zm-.33-7.55c-.86 0-1.38.57-1.54 1.72h2.98v-.23c.01-.47-.11-.84-.36-1.1-.26-.26-.62-.39-1.08-.39zm9.96-4.55c0-.42.15-.76.46-1.03.3-.27.7-.4 1.18-.4s.88.13 1.18.4c.3.27.46.61.46 1.03 0 .42-.15.77-.46 1.03-.3.27-.7.4-1.18.4s-.88-.13-1.18-.4c-.31-.26-.46-.61-.46-1.03zm3.13 11.92h-2.96v-9.48h2.96v9.48zm1.45-4.81c0-1.5.32-2.68.97-3.55.65-.86 1.55-1.3 2.72-1.3.85 0 1.56.33 2.14 1v-4.8h2.96V75.2H95.9l-.15-1.02c-.61.79-1.38 1.19-2.31 1.19-1.13 0-2.02-.43-2.68-1.3-.67-.84-1-2.07-1-3.67zm2.95.19c0 1.68.49 2.52 1.47 2.52.65 0 1.12-.27 1.4-.82v-3.61c-.27-.56-.73-.84-1.38-.84-.91 0-1.4.74-1.48 2.21l-.01.54zm12.09 4.8c-1.45 0-2.63-.43-3.53-1.3-.9-.87-1.35-2-1.35-3.38v-.25c0-.97.18-1.82.54-2.57.36-.74.88-1.32 1.57-1.72.69-.41 1.51-.61 2.45-.61 1.33 0 2.38.41 3.15 1.24.77.83 1.16 1.98 1.16 3.46v1.15h-5.87c.11.53.34.95.69 1.25.36.3.82.46 1.38.46.93 0 1.66-.33 2.19-.98l1.35 1.59c-.37.51-.89.91-1.56 1.21-.66.3-1.39.45-2.17.45zm-.33-7.55c-.86 0-1.38.57-1.54 1.72h2.98v-.23c.01-.47-.11-.84-.36-1.1-.25-.26-.61-.39-1.08-.39zm8.22-2.11l.1 1.11c.65-.86 1.56-1.29 2.71-1.29.99 0 1.72.3 2.21.88.49.59.74 1.48.76 2.66v6.1h-2.96v-5.98c0-.48-.1-.83-.29-1.06-.19-.22-.54-.34-1.05-.34-.58 0-1.01.23-1.29.68v6.69h-2.95V65.7h2.76zm10.85-2.35v2.36h1.56v2.05h-1.56v4.34c0 .36.06.6.19.74s.38.21.76.21c.29 0 .54-.02.74-.05v2.11c-.53.17-1.09.25-1.66.25-1.02 0-1.77-.24-2.25-.72s-.73-1.21-.73-2.18v-4.7h-1.21v-2.05h1.21v-2.36h2.95zm2.69-.09c0-.42.15-.76.46-1.03.3-.27.7-.4 1.18-.4s.88.13 1.18.4c.3.27.46.61.46 1.03 0 .42-.15.77-.46 1.03-.3.27-.7.4-1.18.4s-.88-.13-1.18-.4c-.3-.26-.46-.61-.46-1.03zm3.14 11.92h-2.96v-9.48h2.96v9.48zm5.26-11.83v2.36h1.56v2.05h-1.56v4.34c0 .36.06.6.19.74s.38.21.76.21c.29 0 .54-.02.74-.05v2.11c-.53.17-1.09.25-1.66.25-1.02 0-1.77-.24-2.25-.72s-.73-1.21-.73-2.18v-4.7h-1.21v-2.05h1.21v-2.36h2.95zm6.5 7.7l1.58-5.34h3.16l-3.86 11.06-.17.4c-.55 1.23-1.52 1.84-2.91 1.84-.39 0-.79-.06-1.22-.17v-2.1h.39c.41 0 .73-.06.95-.18.22-.12.38-.33.49-.64l.24-.63-3.29-9.57h3.15l1.49 5.33zm13.41-7.7v2.36h1.56v2.05h-1.56v4.34c0 .36.06.6.19.74s.38.21.76.21c.29 0 .54-.02.74-.05v2.11c-.53.17-1.09.25-1.66.25-1.02 0-1.77-.24-2.25-.72s-.73-1.21-.73-2.18v-4.7h-1.21v-2.05h1.21v-2.36h2.95zm5.61 3.37c.63-.79 1.44-1.19 2.42-1.19 1.05 0 1.83.31 2.36.93.53.62.8 1.53.81 2.74v5.98h-2.96V69.3c0-.5-.1-.87-.31-1.11-.2-.24-.55-.35-1.04-.35-.61 0-1.04.19-1.29.58v6.8h-2.95V61.76h2.95v4.99zm11.82 8.64c-1.45 0-2.63-.43-3.53-1.3-.9-.87-1.35-2-1.35-3.38v-.25c0-.97.18-1.82.54-2.57.36-.74.88-1.32 1.57-1.72.69-.41 1.51-.61 2.45-.61 1.33 0 2.38.41 3.15 1.24.77.83 1.16 1.98 1.16 3.46v1.15h-5.87c.11.53.34.95.69 1.25.36.3.82.46 1.38.46.93 0 1.66-.33 2.19-.98l1.35 1.59c-.37.51-.89.91-1.56 1.21-.67.3-1.39.45-2.17.45zm-.33-7.55c-.86 0-1.38.57-1.54 1.72h2.98v-.23c.01-.47-.11-.84-.36-1.1-.26-.26-.62-.39-1.08-.39zm6.16 7.37v-7.43h-1.38v-2.05h1.38v-.75c0-1.08.32-1.92.95-2.51.64-.6 1.53-.89 2.68-.89.42 0 .88.06 1.38.18l.01 2.17c-.18-.05-.42-.08-.73-.08-.89 0-1.34.39-1.34 1.16v.73h1.85v2.05h-1.85v7.43h-2.95zm9.29-11.83v2.36h1.56v2.05h-1.56v4.34c0 .36.06.6.19.74s.38.21.76.21c.29 0 .54-.02.74-.05v2.11c-.53.17-1.09.25-1.66.25-1.02 0-1.77-.24-2.25-.72s-.73-1.21-.73-2.18v-4.7h-1.21v-2.05h1.21v-2.36h2.95zm12.52 11.83c-.11-.19-.2-.48-.28-.85-.54.68-1.3 1.02-2.28 1.02-.89 0-1.65-.27-2.28-.81-.63-.54-.94-1.22-.94-2.04 0-1.03.38-1.8 1.14-2.33.76-.53 1.86-.79 3.31-.79h.91v-.5c0-.87-.38-1.31-1.13-1.31-.7 0-1.05.35-1.05 1.04h-2.95c0-.92.39-1.66 1.17-2.23.78-.57 1.77-.86 2.98-.86s2.16.3 2.86.88c.7.59 1.06 1.4 1.08 2.43v4.2c.01.87.15 1.54.4 2v.15h-2.94zm-1.85-1.93c.37 0 .67-.08.92-.24.24-.16.42-.34.52-.53V71h-.86c-1.03 0-1.54.46-1.54 1.38 0 .27.09.49.27.65.18.17.41.25.69.25zm9.15 1.93h-2.96V61.76h2.96v13.45zm6.4.18c-1.45 0-2.63-.43-3.53-1.3-.9-.87-1.35-2-1.35-3.38v-.25c0-.97.18-1.82.54-2.57.36-.74.88-1.32 1.57-1.72.69-.41 1.51-.61 2.45-.61 1.33 0 2.38.41 3.15 1.24.77.83 1.16 1.98 1.16 3.46v1.15h-5.87c.11.53.34.95.69 1.25.36.3.82.46 1.38.46.93 0 1.66-.33 2.19-.98l1.35 1.59c-.37.51-.89.91-1.56 1.21-.67.3-1.39.45-2.17.45zm-.33-7.55c-.86 0-1.38.57-1.54 1.72h2.98v-.23c.01-.47-.11-.84-.36-1.1-.26-.26-.62-.39-1.08-.39zm11.24.57l-.97-.07c-.93 0-1.52.29-1.79.88v6h-2.95v-9.48h2.77l.1 1.22c.5-.93 1.19-1.39 2.08-1.39.32 0 .59.04.82.11l-.06 2.73zm4.94-5.03v2.36h1.56v2.05h-1.56v4.34c0 .36.06.6.19.74s.38.21.76.21c.29 0 .54-.02.74-.05v2.11c-.53.17-1.09.25-1.66.25-1.02 0-1.77-.24-2.25-.72s-.73-1.21-.73-2.18v-4.7H225v-2.05h1.21v-2.36h2.95zm7.68 9.17c0-.25-.13-.45-.39-.6-.26-.15-.76-.31-1.5-.47-.74-.16-1.34-.38-1.82-.64-.48-.27-.84-.59-1.09-.97-.25-.38-.38-.81-.38-1.3 0-.87.36-1.59 1.08-2.15.72-.56 1.66-.85 2.82-.85 1.25 0 2.25.28 3.01.85.76.57 1.14 1.31 1.14 2.23h-2.96c0-.76-.4-1.14-1.2-1.14-.31 0-.57.09-.78.26-.21.17-.32.39-.32.64 0 .26.13.48.39.64.26.16.67.3 1.23.4.56.11 1.06.23 1.48.38 1.42.49 2.14 1.37 2.14 2.64 0 .86-.38 1.57-1.15 2.11-.77.54-1.76.81-2.98.81-.81 0-1.54-.15-2.17-.44-.64-.29-1.13-.69-1.49-1.19-.36-.5-.53-1.03-.53-1.59h2.76c.01.44.16.76.44.96.28.2.64.3 1.08.3.4 0 .7-.08.91-.25a.81.81 0 0 0 .28-.63z"/></svg>