<svg id="Layer_1" xmlns="https://www.w3.org/2000/svg" viewBox="0 0 728 90"><style>.st0{fill:#e82d8a}.st1{fill:#fff}</style><path class="st0" d="M525.57 68.64h-80.64c-13.2 0-23.89-10.7-23.89-23.89 0-13.2 10.7-23.89 23.89-23.89h80.64c13.2 0 23.89 10.7 23.89 23.89 0 13.2-10.7 23.89-23.89 23.89z"/><path class="st1" d="M468.32 39.98c-.11 1.21-.56 2.16-1.34 2.84s-1.82 1.02-3.12 1.02c-.91 0-1.7-.21-2.39-.64s-1.22-1.04-1.6-1.83c-.38-.79-.57-1.71-.59-2.76v-1.06c0-1.07.19-2.02.57-2.84.38-.82.93-1.45 1.64-1.89.71-.44 1.53-.66 2.46-.66 1.25 0 2.27.34 3.03 1.02s1.21 1.64 1.34 2.89h-1.97c-.09-.82-.33-1.41-.71-1.77-.38-.36-.94-.54-1.68-.54-.86 0-1.52.31-1.98.94-.46.63-.7 1.55-.71 2.76v1.01c0 1.23.22 2.17.66 2.81s1.08.97 1.93.97c.78 0 1.36-.17 1.75-.52.39-.35.64-.93.74-1.74h1.97zM471.92 43.68h-1.9v-12h1.9v12zM473.99 33.03c0-.29.09-.53.28-.73.18-.19.45-.29.79-.29s.61.1.8.29c.19.19.28.44.28.73s-.09.52-.28.71c-.19.19-.45.29-.8.29s-.61-.09-.79-.29c-.19-.18-.28-.42-.28-.71zm2.02 10.65h-1.9v-8.45h1.9v8.45zM481.55 42.32c.47 0 .87-.14 1.18-.41.31-.28.48-.62.5-1.02h1.79a2.72 2.72 0 0 1-.49 1.47c-.31.46-.72.82-1.25 1.08s-1.09.4-1.7.4c-1.18 0-2.12-.38-2.81-1.15s-1.04-1.82-1.04-3.17v-.2c0-1.29.34-2.32 1.03-3.09s1.62-1.16 2.81-1.16c1 0 1.82.29 2.46.88s.96 1.36 1 2.31h-1.79c-.02-.48-.19-.88-.5-1.2s-.7-.47-1.18-.47c-.61 0-1.09.22-1.42.67s-.5 1.12-.51 2.03v.3c0 .92.17 1.6.5 2.05.31.46.79.68 1.42.68zM489.2 40.06l-.84.87v2.76h-1.9v-12h1.9v6.92l.59-.74 2.34-2.63h2.28l-3.14 3.52 3.48 4.93h-2.2l-2.51-3.63zM501.16 33.17v2.05h1.49v1.41h-1.49v4.72c0 .32.06.56.19.7.13.14.36.21.68.21.22 0 .44-.03.66-.08v1.47c-.43.12-.85.18-1.25.18-1.46 0-2.19-.8-2.19-2.41v-4.79h-1.39v-1.41h1.39v-2.05h1.91zM503.52 39.38c0-.83.16-1.57.49-2.24s.79-1.17 1.38-1.53c.59-.36 1.28-.54 2.05-.54 1.14 0 2.07.37 2.78 1.1s1.09 1.71 1.15 2.92l.01.45c0 .83-.16 1.58-.48 2.23s-.78 1.16-1.38 1.52-1.29.54-2.07.54c-1.19 0-2.15-.4-2.86-1.19-.72-.79-1.07-1.85-1.07-3.18v-.08zm1.89.16c0 .87.18 1.55.54 2.04s.86.74 1.5.74 1.14-.25 1.5-.75.54-1.23.54-2.2c0-.85-.18-1.53-.55-2.03s-.87-.75-1.5-.75c-.62 0-1.11.25-1.48.74s-.55 1.23-.55 2.21zM449.7 58.68h-1.9v-12h1.9v12zM455.49 58.84c-1.2 0-2.18-.38-2.93-1.14s-1.12-1.77-1.12-3.03v-.23c0-.84.16-1.6.49-2.26s.78-1.18 1.37-1.55c.59-.37 1.25-.55 1.97-.55 1.15 0 2.04.37 2.67 1.1s.94 1.77.94 3.12v.77h-5.52c.06.7.29 1.25.7 1.66s.92.61 1.54.61c.87 0 1.58-.35 2.12-1.05l1.02.98c-.34.51-.79.9-1.36 1.18s-1.19.39-1.89.39zm-.23-7.24c-.52 0-.94.18-1.26.55-.32.37-.52.87-.61 1.52H457v-.14c-.04-.63-.21-1.12-.51-1.44-.29-.33-.7-.49-1.23-.49zM465.4 58.68c-.08-.16-.16-.42-.22-.79-.6.63-1.34.95-2.22.95-.85 0-1.54-.24-2.08-.73s-.8-1.08-.8-1.8c0-.9.33-1.59 1-2.07.67-.48 1.63-.72 2.87-.72h1.16v-.55c0-.44-.12-.79-.37-1.05s-.62-.39-1.12-.39c-.43 0-.79.11-1.06.32-.28.22-.41.49-.41.82h-1.9c0-.46.15-.9.46-1.3.31-.4.73-.72 1.25-.95.53-.23 1.12-.34 1.77-.34.99 0 1.78.25 2.37.75.59.5.89 1.2.91 2.1v3.81c0 .76.11 1.37.32 1.82v.13h-1.93zm-2.08-1.37c.38 0 .73-.09 1.06-.27.33-.18.58-.43.75-.73v-1.59h-1.02c-.7 0-1.23.12-1.59.37-.35.25-.53.59-.53 1.04 0 .37.12.66.36.87.24.21.56.31.97.31zM473.43 51.96c-.25-.04-.51-.06-.77-.06-.87 0-1.46.33-1.76 1v5.78H469v-8.45h1.81l.05.95c.46-.73 1.09-1.1 1.91-1.1.27 0 .5.04.67.11l-.01 1.77zM476.39 50.23l.05.98c.62-.75 1.45-1.13 2.46-1.13 1.76 0 2.66 1.01 2.69 3.02v5.59h-1.9v-5.48c0-.54-.12-.93-.35-1.19s-.61-.39-1.14-.39c-.77 0-1.34.35-1.71 1.04v6.02h-1.9v-8.45h1.8zM489.3 50.23l.05.88c.59-.69 1.41-1.04 2.44-1.04 1.13 0 1.9.43 2.32 1.3.61-.86 1.48-1.3 2.59-1.3.93 0 1.63.26 2.08.77s.69 1.28.7 2.28v5.55h-1.9v-5.5c0-.54-.12-.93-.35-1.18s-.62-.38-1.16-.38c-.43 0-.79.12-1.06.35-.27.23-.46.54-.57.91l.01 5.8h-1.9v-5.56c-.03-.99-.53-1.49-1.52-1.49-.76 0-1.3.31-1.62.93v6.12h-1.9v-8.45h1.79zM501.08 54.38c0-.83.16-1.57.49-2.24s.79-1.17 1.38-1.53c.59-.36 1.28-.54 2.05-.54 1.14 0 2.07.37 2.78 1.1s1.09 1.71 1.15 2.92l.01.45c0 .83-.16 1.58-.48 2.23s-.78 1.16-1.38 1.52-1.29.54-2.07.54c-1.19 0-2.15-.4-2.86-1.19-.72-.79-1.07-1.85-1.07-3.18v-.08zm1.9.16c0 .87.18 1.55.54 2.04s.86.74 1.5.74 1.14-.25 1.5-.75.54-1.23.54-2.2c0-.85-.18-1.53-.55-2.03s-.87-.75-1.5-.75c-.62 0-1.11.25-1.48.74s-.55 1.23-.55 2.21zM514.97 51.96c-.25-.04-.51-.06-.77-.06-.87 0-1.46.33-1.76 1v5.78h-1.9v-8.45h1.81l.05.95c.46-.73 1.09-1.1 1.91-1.1.27 0 .5.04.67.11l-.01 1.77zM519.89 58.84c-1.2 0-2.18-.38-2.93-1.14s-1.12-1.77-1.12-3.03v-.23c0-.84.16-1.6.49-2.26s.78-1.18 1.37-1.55c.59-.37 1.25-.55 1.97-.55 1.15 0 2.04.37 2.67 1.1s.94 1.77.94 3.12v.77h-5.52c.06.7.29 1.25.7 1.66s.92.61 1.54.61c.87 0 1.58-.35 2.12-1.05l1.02.98c-.34.51-.79.9-1.36 1.18s-1.18.39-1.89.39zm-.22-7.24c-.52 0-.94.18-1.26.55-.32.37-.52.87-.61 1.52h3.62v-.14c-.04-.63-.21-1.12-.51-1.44-.3-.33-.72-.49-1.24-.49z"/></svg>