<svg id="Layer_1" xmlns="http://www.w3.org/2000/svg" viewBox="0 0 970 250"><style>.st0{fill:#021d8b}</style><path class="st0" d="M389.43 104.73h-6.49V77.71h6.49v27.02zM400.96 79.66v4.99h3.3v4.34h-3.3v9.18c0 .75.14 1.28.41 1.58.27.3.81.45 1.61.45.62 0 1.14-.04 1.56-.11v4.47c-1.13.36-2.3.54-3.53.54-2.15 0-3.74-.51-4.77-1.52-1.03-1.01-1.54-2.55-1.54-4.62V89h-2.56v-4.34h2.56v-4.99h6.26zM410.22 79.23l-.61 7.66h-3.84V76.23h4.45v3zM421.39 99.09c0-.53-.28-.96-.83-1.28-.56-.32-1.61-.66-3.17-1-1.56-.35-2.85-.8-3.86-1.36-1.01-.56-1.79-1.25-2.32-2.05-.53-.8-.8-1.73-.8-2.76 0-1.84.76-3.36 2.28-4.55 1.52-1.19 3.51-1.79 5.97-1.79 2.65 0 4.77.6 6.38 1.8 1.61 1.2 2.41 2.78 2.41 4.73h-6.27c0-1.61-.85-2.41-2.54-2.41-.66 0-1.21.18-1.65.55-.45.37-.67.82-.67 1.36 0 .56.27 1.01.82 1.35.54.35 1.41.63 2.61.85 1.19.22 2.24.49 3.14.8 3.02 1.04 4.53 2.9 4.53 5.58 0 1.83-.81 3.32-2.44 4.47s-3.73 1.73-6.32 1.73c-1.72 0-3.25-.31-4.6-.93-1.35-.62-2.4-1.46-3.15-2.52s-1.13-2.18-1.13-3.36h5.84c.02.93.33 1.6.93 2.03.59.43 1.35.64 2.28.64.85 0 1.49-.17 1.92-.52.42-.35.64-.81.64-1.36zM447.08 79.66v4.99h3.3v4.34h-3.3v9.18c0 .75.14 1.28.41 1.58.27.3.81.45 1.61.45.62 0 1.14-.04 1.56-.11v4.47c-1.13.36-2.3.54-3.53.54-2.15 0-3.74-.51-4.77-1.52-1.03-1.01-1.54-2.55-1.54-4.62V89h-2.56v-4.34h2.56v-4.99h6.26zM452.8 79.48c0-.89.32-1.62.96-2.19.64-.57 1.48-.85 2.5-.85 1.03 0 1.86.29 2.5.85.64.57.96 1.3.96 2.19s-.32 1.62-.96 2.19c-.64.57-1.48.85-2.5.85-1.03 0-1.86-.28-2.5-.85-.64-.57-.96-1.3-.96-2.19zm6.64 25.25h-6.27V84.65h6.27v20.08zM469.2 84.65l.2 2.36c1.42-1.82 3.33-2.73 5.73-2.73 2.54 0 4.25 1.01 5.14 3.02 1.36-2.02 3.33-3.02 5.9-3.02 4.07 0 6.16 2.46 6.27 7.38v13.06h-6.27V92.06c0-1.03-.17-1.77-.52-2.25-.35-.47-.98-.71-1.89-.71-1.24 0-2.16.55-2.76 1.65l.02.26v13.71h-6.27V92.09c0-1.05-.17-1.81-.5-2.28-.33-.47-.97-.71-1.91-.71-1.2 0-2.12.55-2.75 1.65v13.97h-6.25V84.65h5.86zM505.74 105.1c-3.08 0-5.57-.92-7.48-2.76-1.91-1.84-2.86-4.23-2.86-7.17v-.52c0-2.05.38-3.87 1.14-5.44.76-1.57 1.87-2.79 3.33-3.65 1.46-.86 3.19-1.29 5.2-1.29 2.82 0 5.05.88 6.68 2.62 1.63 1.75 2.45 4.19 2.45 7.32v2.43h-12.43c.22 1.13.71 2.01 1.47 2.65.75.64 1.73.96 2.93.96 1.98 0 3.53-.69 4.64-2.08l2.86 3.38c-.78 1.08-1.88 1.93-3.31 2.57-1.44.66-2.98.98-4.62.98zm-.71-15.99c-1.83 0-2.92 1.21-3.27 3.64h6.31v-.48c.02-1-.23-1.78-.76-2.33-.53-.56-1.29-.83-2.28-.83zM533.46 79.66v4.99h3.3v4.34h-3.3v9.18c0 .75.14 1.28.41 1.58.27.3.81.45 1.61.45.62 0 1.14-.04 1.56-.11v4.47c-1.13.36-2.3.54-3.53.54-2.15 0-3.74-.51-4.77-1.52-1.03-1.01-1.54-2.55-1.54-4.62V89h-2.56v-4.34h2.56v-4.99h6.26zM537.87 94.5c0-2 .39-3.79 1.17-5.35.78-1.57 1.9-2.77 3.36-3.61 1.46-.84 3.17-1.26 5.14-1.26 3.01 0 5.37.93 7.11 2.79 1.73 1.86 2.6 4.39 2.6 7.6v.22c0 3.13-.87 5.61-2.61 7.45-1.74 1.84-4.09 2.76-7.06 2.76-2.86 0-5.15-.86-6.88-2.57-1.73-1.71-2.67-4.04-2.8-6.97l-.03-1.06zm6.25.39c0 1.86.29 3.22.87 4.08.58.87 1.44 1.3 2.58 1.3 2.23 0 3.36-1.71 3.41-5.14v-.63c0-3.6-1.15-5.4-3.45-5.4-2.09 0-3.22 1.55-3.4 4.66l-.01 1.13zM577.52 97.25l-1.76 1.76v5.71h-6.25V76.21h6.25v15.14l.63-.83 4.71-5.86h7.5l-7.03 8.26 7.5 11.82h-7.16l-4.39-7.49zM599.96 105.1c-3.08 0-5.57-.92-7.48-2.76-1.91-1.84-2.86-4.23-2.86-7.17v-.52c0-2.05.38-3.87 1.14-5.44.76-1.57 1.87-2.79 3.33-3.65 1.46-.86 3.19-1.29 5.2-1.29 2.82 0 5.05.88 6.68 2.62 1.63 1.75 2.45 4.19 2.45 7.32v2.43h-12.43c.22 1.13.71 2.01 1.47 2.65.75.64 1.73.96 2.93.96 1.98 0 3.53-.69 4.64-2.08l2.86 3.38c-.78 1.08-1.88 1.93-3.31 2.57-1.44.66-2.98.98-4.62.98zm-.71-15.99c-1.83 0-2.92 1.21-3.27 3.64h6.31v-.48c.02-1-.23-1.78-.76-2.33-.53-.56-1.29-.83-2.28-.83zM620.64 105.1c-3.08 0-5.57-.92-7.48-2.76-1.91-1.84-2.86-4.23-2.86-7.17v-.52c0-2.05.38-3.87 1.14-5.44.76-1.57 1.87-2.79 3.33-3.65 1.46-.86 3.19-1.29 5.2-1.29 2.82 0 5.05.88 6.68 2.62 1.63 1.75 2.45 4.19 2.45 7.32v2.43h-12.43c.22 1.13.71 2.01 1.47 2.65.75.64 1.73.96 2.93.96 1.98 0 3.53-.69 4.64-2.08l2.86 3.38c-.78 1.08-1.88 1.93-3.31 2.57-1.43.66-2.97.98-4.62.98zm-.7-15.99c-1.83 0-2.92 1.21-3.27 3.64h6.31v-.48c.02-1-.23-1.78-.76-2.33-.53-.56-1.29-.83-2.28-.83zM650.26 94.84c0 3.12-.7 5.61-2.11 7.47-1.4 1.86-3.3 2.79-5.69 2.79-1.84 0-3.36-.67-4.55-2.02v9.37h-6.25v-27.8h5.84l.19 1.86c1.2-1.48 2.78-2.23 4.73-2.23 2.47 0 4.4.91 5.77 2.74 1.37 1.83 2.06 4.33 2.06 7.52v.3zm-6.26-.39c0-3.56-1.04-5.34-3.12-5.34-1.48 0-2.47.53-2.97 1.6v7.9c.54 1.11 1.55 1.67 3.01 1.67 1.99 0 3.02-1.72 3.08-5.16v-.67zM673.79 104.73c-.22-.41-.42-1.01-.59-1.8-1.15 1.45-2.76 2.17-4.82 2.17-1.89 0-3.5-.57-4.82-1.72-1.32-1.14-1.99-2.58-1.99-4.31 0-2.18.8-3.82 2.41-4.94 1.61-1.11 3.95-1.67 7.01-1.67h1.93V91.4c0-1.85-.8-2.78-2.39-2.78-1.48 0-2.23.73-2.23 2.2h-6.25c0-1.94.83-3.51 2.48-4.73 1.65-1.21 3.76-1.82 6.32-1.82s4.58.62 6.07 1.87c1.48 1.25 2.25 2.96 2.28 5.14v8.89c.02 1.84.31 3.25.85 4.23v.32h-6.26zm-3.92-4.08c.78 0 1.43-.17 1.94-.5.51-.33.88-.71 1.1-1.13V95.8h-1.82c-2.18 0-3.27.98-3.27 2.93 0 .57.19 1.03.58 1.38.39.36.88.54 1.47.54zM688.39 84.65l.2 2.36c1.38-1.82 3.3-2.73 5.73-2.73 2.09 0 3.65.62 4.69 1.87 1.03 1.25 1.57 3.13 1.6 5.64v12.93h-6.27V92.06c0-1.01-.2-1.76-.61-2.24-.41-.48-1.15-.71-2.23-.71-1.22 0-2.13.48-2.73 1.45v14.18h-6.25V84.65h5.87zM391.92 150.7c-3.08 0-5.57-.92-7.48-2.76-1.91-1.84-2.86-4.23-2.86-7.17v-.52c0-2.05.38-3.87 1.14-5.44.76-1.57 1.87-2.79 3.33-3.65 1.46-.86 3.19-1.29 5.2-1.29 2.82 0 5.05.88 6.68 2.62 1.63 1.75 2.45 4.19 2.45 7.32v2.43h-12.43c.22 1.13.71 2.01 1.47 2.65.75.64 1.73.96 2.93.96 1.98 0 3.53-.69 4.64-2.08l2.86 3.38c-.78 1.08-1.88 1.93-3.31 2.57-1.44.66-2.97.98-4.62.98zm-.7-15.99c-1.83 0-2.92 1.21-3.27 3.64h6.31v-.48c.02-1-.23-1.78-.76-2.33-.53-.56-1.29-.83-2.28-.83zM410.92 141.57l3.34-11.32h6.7l-8.18 23.43-.35.85c-1.16 2.6-3.22 3.9-6.16 3.9-.82 0-1.68-.12-2.58-.37v-4.45h.82c.88 0 1.55-.13 2.01-.38.46-.25.81-.71 1.03-1.36l.5-1.34-6.98-20.28h6.68l3.17 11.32zM432.3 150.7c-3.08 0-5.57-.92-7.48-2.76-1.91-1.84-2.86-4.23-2.86-7.17v-.52c0-2.05.38-3.87 1.14-5.44.76-1.57 1.87-2.79 3.33-3.65 1.46-.86 3.19-1.29 5.2-1.29 2.82 0 5.05.88 6.68 2.62 1.63 1.75 2.45 4.19 2.45 7.32v2.43h-12.43c.22 1.13.71 2.01 1.47 2.65.75.64 1.73.96 2.93.96 1.98 0 3.53-.69 4.64-2.08l2.86 3.38c-.78 1.08-1.88 1.93-3.31 2.57-1.44.66-2.98.98-4.62.98zm-.71-15.99c-1.83 0-2.92 1.21-3.27 3.64h6.31v-.48c.02-1-.23-1.78-.76-2.33-.53-.56-1.29-.83-2.28-.83zM451.95 140.1c0-2 .39-3.79 1.17-5.35.78-1.57 1.9-2.77 3.36-3.61 1.46-.84 3.17-1.26 5.14-1.26 3.01 0 5.37.93 7.11 2.79 1.73 1.86 2.6 4.39 2.6 7.6v.22c0 3.13-.87 5.61-2.61 7.45-1.74 1.84-4.09 2.76-7.06 2.76-2.86 0-5.15-.86-6.88-2.57-1.73-1.71-2.67-4.04-2.8-6.97l-.03-1.06zm6.25.39c0 1.86.29 3.22.87 4.08.58.87 1.44 1.3 2.58 1.3 2.23 0 3.36-1.71 3.41-5.14v-.63c0-3.6-1.15-5.4-3.45-5.4-2.09 0-3.22 1.55-3.4 4.66l-.01 1.13zM479.81 130.25l.2 2.36c1.38-1.82 3.3-2.73 5.73-2.73 2.09 0 3.65.62 4.69 1.87 1.03 1.25 1.57 3.13 1.6 5.64v12.93h-6.27v-12.67c0-1.01-.2-1.76-.61-2.24-.41-.48-1.15-.71-2.23-.71-1.22 0-2.13.48-2.73 1.45v14.18h-6.25v-20.08h5.87zM512.99 141.57l3.34-11.32h6.7l-8.18 23.43-.35.85c-1.16 2.6-3.22 3.9-6.16 3.9-.82 0-1.68-.12-2.58-.37v-4.45h.82c.88 0 1.55-.13 2.01-.38.46-.25.81-.71 1.03-1.36l.5-1.34-6.98-20.28h6.68l3.17 11.32zM523.86 140.1c0-2 .39-3.79 1.17-5.35.78-1.57 1.9-2.77 3.36-3.61 1.46-.84 3.17-1.26 5.14-1.26 3.01 0 5.37.93 7.11 2.79 1.73 1.86 2.6 4.39 2.6 7.6v.22c0 3.13-.87 5.61-2.61 7.45-1.74 1.84-4.09 2.76-7.06 2.76-2.86 0-5.15-.86-6.88-2.57-1.73-1.71-2.67-4.04-2.8-6.97l-.03-1.06zm6.26.39c0 1.86.29 3.22.87 4.08.58.87 1.44 1.3 2.58 1.3 2.23 0 3.36-1.71 3.41-5.14v-.63c0-3.6-1.15-5.4-3.45-5.4-2.09 0-3.22 1.55-3.4 4.66l-.01 1.13zM557.95 148.16c-1.32 1.7-3.11 2.54-5.36 2.54-2.2 0-3.87-.64-5-1.92-1.13-1.28-1.7-3.12-1.7-5.52v-13.01h6.25v13.04c0 1.72.83 2.58 2.5 2.58 1.43 0 2.46-.51 3.06-1.54v-14.08h6.3v20.08h-5.86l-.19-2.17zM579.56 135.91l-2.06-.15c-1.97 0-3.23.62-3.79 1.86v12.71h-6.25v-20.08h5.86l.2 2.58c1.05-1.97 2.52-2.95 4.4-2.95.67 0 1.25.07 1.74.22l-.1 5.81zM591.24 125.08c0-.89.32-1.62.96-2.19.64-.57 1.48-.85 2.5-.85 1.03 0 1.86.29 2.5.85.64.57.96 1.3.96 2.19s-.32 1.62-.96 2.19c-.64.57-1.48.85-2.5.85-1.03 0-1.86-.28-2.5-.85-.64-.57-.96-1.3-.96-2.19zm6.64 25.25h-6.27v-20.08h6.27v20.08zM600.94 140.14c0-3.18.69-5.68 2.06-7.51s3.29-2.75 5.75-2.75c1.79 0 3.3.71 4.53 2.12v-10.17h6.27v28.5h-5.62l-.32-2.15c-1.29 1.68-2.92 2.52-4.9 2.52-2.39 0-4.28-.92-5.68-2.75-1.39-1.83-2.09-4.43-2.09-7.81zm6.25.39c0 3.56 1.04 5.34 3.12 5.34 1.38 0 2.38-.58 2.97-1.74v-7.64c-.57-1.19-1.55-1.78-2.93-1.78-1.93 0-2.98 1.56-3.14 4.68l-.02 1.14zM632.82 150.7c-3.08 0-5.57-.92-7.48-2.76-1.91-1.84-2.86-4.23-2.86-7.17v-.52c0-2.05.38-3.87 1.14-5.44.76-1.57 1.87-2.79 3.33-3.65 1.46-.86 3.19-1.29 5.2-1.29 2.82 0 5.05.88 6.68 2.62 1.63 1.75 2.45 4.19 2.45 7.32v2.43h-12.43c.22 1.13.71 2.01 1.47 2.65.75.64 1.73.96 2.93.96 1.98 0 3.53-.69 4.64-2.08l2.86 3.38c-.78 1.08-1.88 1.93-3.31 2.57-1.44.66-2.98.98-4.62.98zm-.71-15.99c-1.83 0-2.92 1.21-3.27 3.64h6.31v-.48c.02-1-.23-1.78-.76-2.33-.53-.56-1.29-.83-2.28-.83zM649.53 130.25l.2 2.36c1.38-1.82 3.3-2.73 5.73-2.73 2.09 0 3.65.62 4.69 1.87 1.03 1.25 1.57 3.13 1.6 5.64v12.93h-6.27v-12.67c0-1.01-.2-1.76-.61-2.24-.41-.48-1.15-.71-2.23-.71-1.22 0-2.13.48-2.73 1.45v14.18h-6.25v-20.08h5.87zM672.5 125.26v4.99h3.3v4.34h-3.3v9.18c0 .75.14 1.28.41 1.58.27.3.81.45 1.61.45.62 0 1.14-.04 1.56-.11v4.47c-1.13.36-2.3.54-3.53.54-2.15 0-3.74-.51-4.77-1.52-1.03-1.01-1.54-2.55-1.54-4.62v-9.96h-2.56v-4.34h2.56v-4.99h6.26zM678.22 125.08c0-.89.32-1.62.96-2.19.64-.57 1.48-.85 2.5-.85 1.03 0 1.86.29 2.5.85.64.57.96 1.3.96 2.19s-.32 1.62-.96 2.19c-.64.57-1.48.85-2.5.85-1.03 0-1.86-.28-2.5-.85-.64-.57-.96-1.3-.96-2.19zm6.64 25.25h-6.27v-20.08h6.27v20.08zM696 125.26v4.99h3.3v4.34H696v9.18c0 .75.14 1.28.41 1.58.27.3.81.45 1.61.45.62 0 1.14-.04 1.56-.11v4.47c-1.13.36-2.3.54-3.53.54-2.15 0-3.74-.51-4.77-1.52-1.03-1.01-1.54-2.55-1.54-4.62v-9.96h-2.56v-4.34h2.56v-4.99H696zM709.78 141.57l3.34-11.32h6.7l-8.18 23.43-.35.85c-1.16 2.6-3.22 3.9-6.16 3.9-.82 0-1.68-.12-2.58-.37v-4.45h.82c.88 0 1.55-.13 2.01-.38.46-.25.81-.71 1.03-1.36l.5-1.34-6.98-20.28h6.68l3.17 11.32zM725.31 144.26c.99 0 1.81.29 2.47.88.66.59.98 1.34.98 2.25 0 .92-.33 1.67-.98 2.25-.66.59-1.48.88-2.47.88-1 0-1.83-.3-2.48-.89-.65-.59-.97-1.34-.97-2.25 0-.9.33-1.65.97-2.25.65-.57 1.48-.87 2.48-.87z"/></svg>