<svg id="Layer_1" xmlns="http://www.w3.org/2000/svg" viewBox="0 0 970 250"><style>.st0{fill:#021d8b;stroke:url(#SVGID_1_);stroke-width:2;stroke-miterlimit:10}.st1{fill:#fff}</style><linearGradient id="SVGID_1_" gradientUnits="userSpaceOnUse" x1="793.679" y1="115.144" x2="945.382" y2="115.144"><stop offset="0" stop-color="#18b9fb"/><stop offset=".5" stop-color="#782eeb"/><stop offset="1" stop-color="#e82d8a"/></linearGradient><path class="st0" d="M924.53 149.55H814.54c-10.97 0-19.86-8.89-19.86-19.86v-29.1c0-10.97 8.89-19.86 19.86-19.86h109.99c10.97 0 19.86 8.89 19.86 19.86v29.1c-.01 10.97-8.9 19.86-19.86 19.86z"/><path class="st1" d="M859.9 97.37h-5.59v15.2h-3.76v-15.2h-5.51v-3.04h14.86v3.04zM868.8 105.89h-3v6.68h-3.76V94.32h6.78c2.16 0 3.82.48 4.99 1.44 1.17.96 1.75 2.32 1.75 4.07 0 1.24-.27 2.28-.81 3.11-.54.83-1.36 1.49-2.45 1.99l3.95 7.45v.18h-4.03l-3.42-6.67zm-3-3.05h3.03c.94 0 1.67-.24 2.19-.72s.78-1.14.78-1.99c0-.86-.25-1.54-.73-2.03-.49-.49-1.24-.74-2.25-.74h-3.02v5.48zM884.11 102.54l3.8-8.22h4.11l-5.99 11.63v6.62h-3.82v-6.62l-5.99-11.63h4.12l3.77 8.22zM843.08 122.12h-5.59v15.2h-3.76v-15.2h-5.51v-3.04h14.86v3.04zM859.85 128.61c0 1.8-.32 3.37-.95 4.72-.63 1.35-1.54 2.4-2.72 3.13-1.18.73-2.54 1.1-4.07 1.1-1.51 0-2.86-.36-4.05-1.09-1.19-.73-2.1-1.76-2.76-3.11-.65-1.35-.98-2.9-.99-4.65v-.9c0-1.8.32-3.38.97-4.74.65-1.37 1.56-2.41 2.74-3.14s2.53-1.1 4.05-1.1 2.87.37 4.05 1.1c1.18.73 2.1 1.78 2.74 3.14s.97 2.94.97 4.73v.81zm-3.81-.83c0-1.91-.34-3.37-1.03-4.36s-1.66-1.49-2.93-1.49c-1.26 0-2.23.49-2.92 1.47-.68.98-1.03 2.42-1.04 4.32v.89c0 1.86.34 3.31 1.03 4.33s1.67 1.54 2.96 1.54c1.26 0 2.23-.5 2.91-1.49.68-.99 1.02-2.43 1.03-4.33v-.88zM862.58 137.32v-18.24h5.61c1.6 0 3.04.36 4.3 1.08s2.25 1.75 2.96 3.08 1.06 2.85 1.06 4.54v.84c0 1.7-.35 3.2-1.05 4.52s-1.68 2.34-2.95 3.07-2.7 1.09-4.3 1.1h-5.63zm3.76-15.2v12.18h1.82c1.47 0 2.59-.48 3.37-1.44.78-.96 1.17-2.33 1.19-4.12v-.96c0-1.85-.38-3.26-1.15-4.22-.77-.96-1.89-1.43-3.37-1.43h-1.86zM889.56 133.56h-6.59l-1.25 3.76h-4l6.79-18.24h3.48l6.83 18.24h-4l-1.26-3.76zm-5.58-3.05h4.56l-2.29-6.83-2.27 6.83zM900.93 127.29l3.8-8.22h4.11l-5.99 11.63v6.62h-3.82v-6.62l-5.99-11.63h4.12l3.77 8.22z"/></svg>