<?xml version="1.0" encoding="utf-8"?>
<!-- Generator: Adobe Illustrator 24.2.3, SVG Export Plug-In . SVG Version: 6.00 Build 0)  -->
<svg version="1.1" id="Layer_1" xmlns="http://www.w3.org/2000/svg" xmlns:xlink="http://www.w3.org/1999/xlink" x="0px" y="0px"
	 viewBox="0 0 300 600" style="enable-background:new 0 0 300 600;" xml:space="preserve">
<style type="text/css">
	.st0{fill:#021D8B;}
</style>
<g>
	<path class="st0" d="M83.65,404.69l-1.83,2.01v4.88h-4.46v-18.48h4.46v8.15l1.55-2.35l3.99-5.8h5.51l-6.25,8.18l6.25,10.31h-5.28
		L83.65,404.69z"/>
	<path class="st0" d="M97.73,397.83l0.14,1.61c0.95-1.24,2.26-1.87,3.92-1.87c1.43,0,2.5,0.43,3.21,1.28s1.07,2.14,1.1,3.86v8.85
		h-4.29v-8.67c0-0.69-0.14-1.2-0.42-1.53c-0.28-0.33-0.79-0.49-1.52-0.49c-0.84,0-1.46,0.33-1.87,0.99v9.7h-4.28v-13.74H97.73z"/>
	<path class="st0" d="M107.92,404.58c0-1.37,0.27-2.59,0.8-3.66c0.53-1.07,1.3-1.89,2.3-2.47s2.17-0.86,3.52-0.86
		c2.06,0,3.68,0.64,4.86,1.91c1.19,1.27,1.78,3.01,1.78,5.2v0.15c0,2.14-0.59,3.84-1.78,5.1c-1.19,1.26-2.8,1.88-4.83,1.88
		c-1.96,0-3.52-0.59-4.71-1.76c-1.19-1.17-1.82-2.76-1.92-4.77L107.92,404.58z M112.2,404.84c0,1.27,0.2,2.2,0.6,2.79
		s0.99,0.89,1.76,0.89c1.52,0,2.3-1.17,2.34-3.52v-0.43c0-2.46-0.79-3.69-2.36-3.69c-1.43,0-2.2,1.06-2.32,3.19L112.2,404.84z"/>
	<path class="st0" d="M134.92,405.93l1.38-8.1h4.1l-3.24,13.74h-3.62l-2.27-8.15l-2.29,8.15h-3.62l-3.24-13.74h4.1l1.36,8.29
		l2.18-8.29h2.98L134.92,405.93z"/>
	<path class="st0" d="M161.17,404.82c0,2.25-0.47,3.98-1.4,5.19c-0.93,1.21-2.24,1.82-3.94,1.82c-1.4,0-2.52-0.55-3.38-1.66
		l-0.18,1.41h-3.83v-19.5h4.28v6.87c0.8-0.91,1.82-1.36,3.09-1.36c1.71,0,3.03,0.61,3.96,1.84c0.93,1.23,1.4,2.95,1.4,5.18V404.82z
		 M156.88,404.54c0-1.32-0.18-2.26-0.53-2.82c-0.35-0.56-0.89-0.84-1.62-0.84c-0.96,0-1.63,0.37-2.01,1.1v5.45
		c0.36,0.73,1.04,1.09,2.03,1.09c1.01,0,1.65-0.49,1.92-1.47C156.81,406.57,156.88,405.74,156.88,404.54z"/>
	<path class="st0" d="M169.7,411.83c-2.11,0-3.81-0.63-5.12-1.88c-1.3-1.26-1.96-2.89-1.96-4.91v-0.36c0-1.41,0.26-2.64,0.78-3.72
		s1.28-1.91,2.28-2.49c1-0.59,2.18-0.88,3.55-0.88c1.93,0,3.45,0.6,4.57,1.8c1.12,1.2,1.68,2.87,1.68,5.01v1.66h-8.51
		c0.15,0.77,0.49,1.38,1,1.82c0.52,0.44,1.19,0.66,2.01,0.66c1.35,0,2.41-0.47,3.17-1.42l1.96,2.31c-0.53,0.74-1.29,1.32-2.27,1.76
		C171.87,411.61,170.82,411.83,169.7,411.83z M169.21,400.88c-1.25,0-2,0.83-2.23,2.49h4.32v-0.33c0.02-0.69-0.16-1.22-0.52-1.59
		C170.41,401.07,169.89,400.88,169.21,400.88z"/>
	<path class="st0" d="M178.15,411.57v-10.77h-1.99v-2.97h1.99v-1.09c0-1.57,0.46-2.78,1.38-3.64c0.92-0.86,2.22-1.29,3.88-1.29
		c0.61,0,1.28,0.09,2.01,0.27l0.01,3.15c-0.26-0.08-0.61-0.11-1.05-0.11c-1.29,0-1.94,0.56-1.94,1.68v1.05h2.68v2.97h-2.68v10.77
		H178.15z"/>
	<path class="st0" d="M186.09,404.58c0-1.37,0.27-2.59,0.8-3.66c0.53-1.07,1.3-1.89,2.3-2.47c1-0.58,2.17-0.86,3.52-0.86
		c2.06,0,3.68,0.64,4.86,1.91c1.19,1.27,1.78,3.01,1.78,5.2v0.15c0,2.14-0.59,3.84-1.78,5.1c-1.19,1.26-2.8,1.88-4.83,1.88
		c-1.96,0-3.53-0.59-4.71-1.76c-1.18-1.17-1.82-2.76-1.92-4.77L186.09,404.58z M190.37,404.84c0,1.27,0.2,2.2,0.6,2.79
		c0.4,0.59,0.99,0.89,1.77,0.89c1.52,0,2.3-1.17,2.34-3.52v-0.43c0-2.46-0.79-3.69-2.36-3.69c-1.43,0-2.21,1.06-2.32,3.19
		L190.37,404.84z"/>
	<path class="st0" d="M209.54,401.71l-1.41-0.1c-1.35,0-2.21,0.42-2.59,1.27v8.7h-4.28v-13.74h4.01l0.14,1.76
		c0.72-1.35,1.72-2.02,3.01-2.02c0.46,0,0.85,0.05,1.19,0.15L209.54,401.71z"/>
	<path class="st0" d="M217.72,411.83c-2.11,0-3.81-0.63-5.12-1.88c-1.3-1.26-1.96-2.89-1.96-4.91v-0.36c0-1.41,0.26-2.64,0.78-3.72
		c0.52-1.08,1.28-1.91,2.28-2.49c1-0.59,2.18-0.88,3.55-0.88c1.93,0,3.45,0.6,4.57,1.8c1.12,1.2,1.68,2.87,1.68,5.01v1.66h-8.51
		c0.15,0.77,0.49,1.38,1,1.82c0.52,0.44,1.18,0.66,2.01,0.66c1.35,0,2.41-0.47,3.17-1.42l1.96,2.31c-0.53,0.74-1.29,1.32-2.27,1.76
		C219.9,411.61,218.85,411.83,217.72,411.83z M217.24,400.88c-1.25,0-2,0.83-2.23,2.49h4.32v-0.33c0.02-0.69-0.16-1.22-0.52-1.59
		C218.44,401.07,217.92,400.88,217.24,400.88z"/>
	<path class="st0" d="M113.38,436.78l2.29-7.74h4.58l-5.6,16.03l-0.24,0.58c-0.8,1.78-2.2,2.67-4.21,2.67
		c-0.56,0-1.15-0.08-1.76-0.25v-3.05h0.56c0.6,0,1.06-0.09,1.38-0.26s0.55-0.48,0.7-0.93l0.34-0.92l-4.77-13.87h4.57L113.38,436.78z
		"/>
	<path class="st0" d="M120.82,435.78c0-1.37,0.27-2.59,0.8-3.66c0.53-1.07,1.3-1.89,2.3-2.47s2.17-0.86,3.52-0.86
		c2.06,0,3.68,0.64,4.86,1.91c1.19,1.27,1.78,3.01,1.78,5.2v0.15c0,2.14-0.59,3.84-1.78,5.1c-1.19,1.26-2.8,1.88-4.83,1.88
		c-1.96,0-3.52-0.59-4.71-1.76c-1.19-1.17-1.82-2.76-1.92-4.77L120.82,435.78z M125.1,436.04c0,1.27,0.2,2.2,0.6,2.79
		s0.99,0.89,1.76,0.89c1.52,0,2.3-1.17,2.34-3.52v-0.43c0-2.46-0.79-3.69-2.36-3.69c-1.43,0-2.2,1.06-2.32,3.19L125.1,436.04z"/>
	<path class="st0" d="M144.14,441.29c-0.91,1.16-2.13,1.74-3.67,1.74c-1.51,0-2.65-0.44-3.42-1.31c-0.77-0.88-1.16-2.13-1.16-3.78
		v-8.9h4.28v8.92c0,1.18,0.57,1.76,1.71,1.76c0.98,0,1.68-0.35,2.09-1.05v-9.64h4.3v13.74h-4.01L144.14,441.29z"/>
	<path class="st0" d="M156.6,435.8c0-1.39,0.23-2.62,0.69-3.68s1.11-1.89,1.97-2.47c0.86-0.58,1.85-0.87,2.98-0.87
		c1.43,0,2.55,0.48,3.35,1.45l0.15-1.19h3.88v13.22c0,1.21-0.28,2.26-0.84,3.16c-0.56,0.89-1.38,1.58-2.44,2.06
		c-1.07,0.48-2.3,0.72-3.71,0.72c-1.01,0-1.98-0.19-2.93-0.57s-1.67-0.88-2.16-1.49l1.79-2.51c0.8,0.94,1.85,1.41,3.15,1.41
		c1.9,0,2.84-0.97,2.84-2.92v-0.43c-0.82,0.91-1.86,1.36-3.11,1.36c-1.68,0-3.03-0.64-4.06-1.92c-1.03-1.28-1.55-3-1.55-5.15V435.8z
		 M160.89,436.07c0,1.13,0.21,2.02,0.63,2.67c0.42,0.66,1.02,0.98,1.78,0.98c0.92,0,1.59-0.31,2.02-0.93v-5.78
		c-0.41-0.63-1.08-0.94-1.99-0.94c-0.76,0-1.36,0.34-1.79,1.02C161.1,433.79,160.89,434.77,160.89,436.07z"/>
	<path class="st0" d="M171.51,435.78c0-1.37,0.27-2.59,0.8-3.66c0.53-1.07,1.3-1.89,2.3-2.47c1-0.58,2.17-0.86,3.52-0.86
		c2.06,0,3.68,0.64,4.86,1.91c1.19,1.27,1.78,3.01,1.78,5.2v0.15c0,2.14-0.59,3.84-1.78,5.1c-1.19,1.26-2.8,1.88-4.83,1.88
		c-1.96,0-3.53-0.59-4.71-1.76c-1.18-1.17-1.82-2.76-1.92-4.77L171.51,435.78z M175.79,436.04c0,1.27,0.2,2.2,0.6,2.79
		c0.4,0.59,0.99,0.89,1.77,0.89c1.52,0,2.3-1.17,2.34-3.52v-0.43c0-2.46-0.79-3.69-2.36-3.69c-1.43,0-2.21,1.06-2.32,3.19
		L175.79,436.04z"/>
	<path class="st0" d="M189.3,438.62c0.68,0,1.24,0.2,1.69,0.6c0.45,0.4,0.67,0.92,0.67,1.54s-0.22,1.14-0.67,1.54
		c-0.45,0.4-1.01,0.6-1.69,0.6c-0.69,0-1.25-0.2-1.7-0.61c-0.45-0.41-0.67-0.92-0.67-1.54s0.22-1.13,0.67-1.54
		C188.05,438.82,188.61,438.62,189.3,438.62z"/>
</g>
</svg>
