<?xml version="1.0" encoding="utf-8"?>
<!-- Generator: Adobe Illustrator 24.2.3, SVG Export Plug-In . SVG Version: 6.00 Build 0)  -->
<svg version="1.1" id="Layer_1" xmlns="http://www.w3.org/2000/svg" xmlns:xlink="http://www.w3.org/1999/xlink" x="0px" y="0px"
	 viewBox="0 0 300 600" style="enable-background:new 0 0 300 600;" xml:space="preserve">
<style type="text/css">
	.st0{fill:#021D8B;}
</style>
<g>
	<path class="st0" d="M89.35,461.65c0-0.48-0.17-0.88-0.5-1.21s-0.9-0.62-1.7-0.89c-1.11-0.34-1.92-0.78-2.43-1.32
		c-0.51-0.54-0.76-1.24-0.76-2.07c0-0.85,0.25-1.55,0.75-2.1s1.18-0.87,2.05-0.98v-1.71h1.16v1.72c0.88,0.12,1.56,0.49,2.04,1.1
		c0.49,0.62,0.73,1.46,0.73,2.52h-1.44c0-0.74-0.17-1.32-0.52-1.76c-0.35-0.43-0.82-0.65-1.41-0.65c-0.62,0-1.09,0.16-1.42,0.48
		c-0.33,0.32-0.49,0.77-0.49,1.34c0,0.53,0.17,0.96,0.52,1.27s0.92,0.6,1.71,0.86c0.79,0.26,1.41,0.54,1.86,0.85
		c0.45,0.31,0.77,0.67,0.98,1.08c0.21,0.41,0.32,0.89,0.32,1.45c0,0.88-0.26,1.59-0.79,2.12c-0.53,0.54-1.27,0.85-2.22,0.95v1.49
		h-1.16v-1.49c-0.97-0.09-1.73-0.43-2.28-1.04s-0.82-1.42-0.82-2.45h1.45c0,0.72,0.19,1.28,0.57,1.67s0.92,0.59,1.62,0.59
		c0.68,0,1.22-0.16,1.61-0.49S89.35,462.22,89.35,461.65z"/>
	<path class="st0" d="M97.34,464.58h-1.45v-9.63l-2.91,1.07v-1.31l4.14-1.55h0.23V464.58z"/>
	<path class="st0" d="M107.65,454.08v2.05h1.58v1.12h-1.58v5.25c0,0.34,0.07,0.59,0.21,0.76c0.14,0.17,0.38,0.25,0.72,0.25
		c0.17,0,0.4-0.03,0.69-0.09v1.17c-0.38,0.1-0.75,0.16-1.11,0.16c-0.65,0-1.13-0.2-1.46-0.59s-0.49-0.95-0.49-1.66v-5.24h-1.54
		v-1.12h1.54v-2.05H107.65z"/>
	<path class="st0" d="M115,457.42c-0.22-0.04-0.46-0.05-0.71-0.05c-0.95,0-1.59,0.4-1.93,1.21v6h-1.45v-8.45h1.41l0.02,0.98
		c0.47-0.75,1.15-1.13,2.02-1.13c0.28,0,0.5,0.04,0.64,0.11V457.42z"/>
	<path class="st0" d="M116.34,453.89c0-0.23,0.07-0.43,0.21-0.59c0.14-0.16,0.36-0.24,0.64-0.24s0.5,0.08,0.64,0.24
		c0.15,0.16,0.22,0.36,0.22,0.59s-0.07,0.43-0.22,0.59s-0.36,0.23-0.64,0.23s-0.49-0.08-0.64-0.23S116.34,454.12,116.34,453.89z
		 M117.9,464.58h-1.45v-8.45h1.45V464.58z"/>
	<path class="st0" d="M125.43,464.58c-0.08-0.17-0.15-0.46-0.2-0.89c-0.67,0.7-1.47,1.05-2.41,1.05c-0.83,0-1.52-0.24-2.05-0.71
		c-0.53-0.47-0.8-1.07-0.8-1.79c0-0.88,0.33-1.56,1-2.05c0.67-0.49,1.61-0.73,2.82-0.73h1.41v-0.66c0-0.5-0.15-0.91-0.45-1.21
		c-0.3-0.3-0.75-0.45-1.34-0.45c-0.52,0-0.95,0.13-1.3,0.39c-0.35,0.26-0.52,0.58-0.52,0.95h-1.45c0-0.42,0.15-0.83,0.45-1.22
		c0.3-0.39,0.71-0.7,1.22-0.93c0.51-0.23,1.08-0.34,1.69-0.34c0.97,0,1.74,0.24,2.29,0.73c0.55,0.49,0.84,1.16,0.86,2.01v3.89
		c0,0.78,0.1,1.39,0.3,1.85v0.12H125.43z M123.03,463.48c0.45,0,0.88-0.12,1.29-0.35s0.7-0.54,0.88-0.91v-1.73h-1.13
		c-1.77,0-2.66,0.52-2.66,1.55c0,0.45,0.15,0.81,0.45,1.06C122.17,463.35,122.56,463.48,123.03,463.48z"/>
	<path class="st0" d="M130.48,464.58h-1.45v-12h1.45V464.58z"/>
	<path class="st0" d="M137.47,464.58v-7.34h-1.34v-1.12h1.34v-0.87c0-0.91,0.24-1.61,0.73-2.1c0.48-0.49,1.17-0.74,2.05-0.74
		c0.33,0,0.66,0.04,0.99,0.13l-0.08,1.17c-0.25-0.05-0.5-0.07-0.78-0.07c-0.47,0-0.83,0.14-1.09,0.41
		c-0.25,0.27-0.38,0.67-0.38,1.18v0.89h1.8v1.12h-1.8v7.34H137.47z"/>
	<path class="st0" d="M141.93,460.28c0-0.83,0.16-1.57,0.49-2.23c0.33-0.66,0.78-1.17,1.36-1.53s1.24-0.54,1.99-0.54
		c1.15,0,2.08,0.4,2.79,1.2s1.07,1.86,1.07,3.18v0.1c0,0.82-0.16,1.56-0.47,2.21c-0.32,0.65-0.77,1.16-1.35,1.53
		c-0.59,0.37-1.26,0.55-2.02,0.55c-1.15,0-2.07-0.4-2.79-1.2s-1.07-1.85-1.07-3.16V460.28z M143.38,460.45
		c0,0.94,0.22,1.69,0.65,2.26c0.43,0.57,1.02,0.85,1.75,0.85c0.73,0,1.32-0.29,1.75-0.86c0.43-0.58,0.65-1.38,0.65-2.42
		c0-0.93-0.22-1.68-0.66-2.25c-0.44-0.58-1.02-0.86-1.75-0.86c-0.71,0-1.29,0.28-1.73,0.85
		C143.6,458.58,143.38,459.39,143.38,460.45z"/>
	<path class="st0" d="M155.52,457.42c-0.22-0.04-0.46-0.05-0.71-0.05c-0.95,0-1.59,0.4-1.93,1.21v6h-1.45v-8.45h1.41l0.02,0.98
		c0.47-0.75,1.15-1.13,2.02-1.13c0.28,0,0.5,0.04,0.64,0.11V457.42z"/>
	<path class="st0" d="M162.77,454.08v2.05h1.58v1.12h-1.58v5.25c0,0.34,0.07,0.59,0.21,0.76c0.14,0.17,0.38,0.25,0.72,0.25
		c0.17,0,0.4-0.03,0.69-0.09v1.17c-0.38,0.1-0.75,0.16-1.11,0.16c-0.65,0-1.13-0.2-1.46-0.59s-0.49-0.95-0.49-1.66v-5.24h-1.54
		v-1.12h1.54v-2.05H162.77z"/>
	<path class="st0" d="M167.48,457.15c0.64-0.79,1.47-1.18,2.5-1.18c1.79,0,2.69,1.01,2.7,3.02v5.59h-1.45v-5.59
		c0-0.61-0.14-1.06-0.42-1.35c-0.27-0.29-0.7-0.44-1.28-0.44c-0.47,0-0.88,0.12-1.23,0.38s-0.63,0.58-0.83,0.98v6.02h-1.45v-12h1.45
		V457.15z"/>
	<path class="st0" d="M178.36,464.74c-1.15,0-2.08-0.38-2.8-1.13c-0.72-0.75-1.08-1.76-1.08-3.02v-0.27c0-0.84,0.16-1.59,0.48-2.25
		c0.32-0.66,0.77-1.17,1.34-1.55c0.58-0.37,1.2-0.56,1.87-0.56c1.1,0,1.95,0.36,2.56,1.09c0.61,0.72,0.91,1.76,0.91,3.11v0.6h-5.73
		c0.02,0.83,0.26,1.51,0.73,2.02c0.47,0.51,1.06,0.77,1.78,0.77c0.51,0,0.94-0.1,1.3-0.31c0.35-0.21,0.66-0.48,0.93-0.83l0.88,0.69
		C180.84,464.19,179.78,464.74,178.36,464.74z M178.18,457.16c-0.58,0-1.07,0.21-1.47,0.64c-0.4,0.42-0.64,1.02-0.73,1.79h4.23
		v-0.11c-0.04-0.73-0.24-1.3-0.59-1.71C179.26,457.36,178.78,457.16,178.18,457.16z"/>
	<path class="st0" d="M188,464.58v-7.34h-1.34v-1.12H188v-0.87c0-0.91,0.24-1.61,0.73-2.1c0.48-0.49,1.17-0.74,2.05-0.74
		c0.33,0,0.66,0.04,0.99,0.13l-0.08,1.17c-0.25-0.05-0.5-0.07-0.78-0.07c-0.47,0-0.83,0.14-1.09,0.41
		c-0.25,0.27-0.38,0.67-0.38,1.18v0.89h1.8v1.12h-1.8v7.34H188z"/>
	<path class="st0" d="M192.85,453.89c0-0.23,0.07-0.43,0.21-0.59c0.14-0.16,0.36-0.24,0.64-0.24s0.5,0.08,0.64,0.24
		c0.15,0.16,0.22,0.36,0.22,0.59s-0.07,0.43-0.22,0.59s-0.36,0.23-0.64,0.23s-0.49-0.08-0.64-0.23S192.85,454.12,192.85,453.89z
		 M194.41,464.58h-1.45v-8.45h1.45V464.58z"/>
	<path class="st0" d="M200.81,457.42c-0.22-0.04-0.46-0.05-0.71-0.05c-0.95,0-1.59,0.4-1.93,1.21v6h-1.45v-8.45h1.41l0.02,0.98
		c0.47-0.75,1.15-1.13,2.02-1.13c0.28,0,0.5,0.04,0.64,0.11V457.42z"/>
	<path class="st0" d="M207.06,462.34c0-0.39-0.15-0.69-0.44-0.91c-0.29-0.22-0.81-0.4-1.54-0.56s-1.31-0.34-1.74-0.56
		s-0.75-0.48-0.95-0.78c-0.21-0.3-0.31-0.66-0.31-1.08c0-0.69,0.29-1.28,0.88-1.76c0.59-0.48,1.33-0.72,2.25-0.72
		c0.96,0,1.74,0.25,2.33,0.74c0.6,0.5,0.89,1.13,0.89,1.9h-1.45c0-0.4-0.17-0.74-0.5-1.02c-0.34-0.29-0.76-0.43-1.27-0.43
		c-0.53,0-0.94,0.12-1.23,0.34c-0.3,0.23-0.45,0.53-0.45,0.9c0,0.35,0.14,0.61,0.41,0.79c0.28,0.18,0.77,0.35,1.5,0.51
		c0.72,0.16,1.31,0.35,1.75,0.58c0.45,0.22,0.78,0.49,1,0.81c0.22,0.32,0.32,0.7,0.32,1.15c0,0.76-0.3,1.36-0.91,1.82
		c-0.6,0.46-1.39,0.68-2.35,0.68c-0.68,0-1.28-0.12-1.8-0.36s-0.93-0.57-1.22-1s-0.44-0.89-0.44-1.39h1.45
		c0.03,0.48,0.22,0.87,0.58,1.15c0.36,0.28,0.84,0.43,1.43,0.43c0.55,0,0.99-0.11,1.32-0.33C206.9,463,207.06,462.71,207.06,462.34z
		"/>
	<path class="st0" d="M212.35,454.08v2.05h1.58v1.12h-1.58v5.25c0,0.34,0.07,0.59,0.21,0.76c0.14,0.17,0.38,0.25,0.72,0.25
		c0.17,0,0.4-0.03,0.69-0.09v1.17c-0.38,0.1-0.75,0.16-1.11,0.16c-0.65,0-1.13-0.2-1.46-0.59s-0.49-0.95-0.49-1.66v-5.24h-1.54
		v-1.12h1.54v-2.05H212.35z"/>
	<path class="st0" d="M74.45,483.78H72.2v-8.7l-2.7,0.84v-1.84l4.71-1.69h0.24V483.78z"/>
	<path class="st0" d="M84.83,479.5h1.29v1.82h-1.29v2.46h-2.26v-2.46h-4.66l-0.1-1.42l4.74-7.49h2.28V479.5z M80.05,479.5h2.52
		v-4.02l-0.15,0.26L80.05,479.5z"/>
	<path class="st0" d="M91.05,479.49c0-1.32,0.3-2.37,0.89-3.15s1.4-1.17,2.43-1.17c0.82,0,1.5,0.31,2.04,0.92v-4.31h2.27v12h-2.04
		l-0.11-0.9c-0.56,0.7-1.29,1.05-2.17,1.05c-1,0-1.79-0.39-2.39-1.18C91.36,481.98,91.05,480.89,91.05,479.49z M93.31,479.66
		c0,0.79,0.14,1.4,0.41,1.82c0.28,0.42,0.68,0.63,1.2,0.63c0.7,0,1.19-0.29,1.48-0.88v-3.34c-0.28-0.59-0.77-0.88-1.46-0.88
		C93.86,477.01,93.31,477.89,93.31,479.66z"/>
	<path class="st0" d="M105.32,483.78c-0.1-0.2-0.18-0.46-0.23-0.76c-0.55,0.61-1.26,0.91-2.13,0.91c-0.83,0-1.51-0.24-2.06-0.72
		c-0.54-0.48-0.82-1.08-0.82-1.81c0-0.9,0.33-1.58,1-2.06c0.66-0.48,1.62-0.72,2.88-0.73H105v-0.48c0-0.39-0.1-0.7-0.3-0.94
		s-0.52-0.35-0.95-0.35c-0.38,0-0.68,0.09-0.89,0.27c-0.22,0.18-0.32,0.43-0.32,0.75h-2.26c0-0.49,0.15-0.94,0.45-1.36
		c0.3-0.42,0.73-0.74,1.28-0.98c0.55-0.24,1.17-0.36,1.86-0.36c1.04,0,1.87,0.26,2.48,0.79s0.92,1.26,0.92,2.21v3.66
		c0,0.8,0.12,1.41,0.34,1.82v0.13H105.32z M103.45,482.21c0.33,0,0.64-0.07,0.92-0.22s0.49-0.35,0.62-0.6v-1.45h-0.84
		c-1.13,0-1.73,0.39-1.8,1.17l-0.01,0.13c0,0.28,0.1,0.51,0.3,0.7C102.84,482.12,103.11,482.21,103.45,482.21z"/>
	<path class="st0" d="M112.16,480.59l1.56-5.26h2.42l-3.4,9.77l-0.19,0.45c-0.5,1.1-1.34,1.66-2.5,1.66c-0.33,0-0.66-0.05-1-0.15
		v-1.71l0.34,0.01c0.43,0,0.75-0.07,0.96-0.2s0.38-0.35,0.5-0.65l0.27-0.7l-2.96-8.48h2.43L112.16,480.59z"/>
	<path class="st0" d="M121.61,481.45c0-0.28-0.14-0.49-0.41-0.65c-0.27-0.16-0.71-0.3-1.32-0.43c-2.01-0.42-3.02-1.28-3.02-2.56
		c0-0.75,0.31-1.38,0.93-1.88c0.62-0.5,1.44-0.75,2.44-0.75c1.07,0,1.93,0.25,2.57,0.76c0.64,0.51,0.96,1.16,0.96,1.97h-2.26
		c0-0.32-0.1-0.59-0.31-0.8s-0.53-0.32-0.98-0.32c-0.38,0-0.67,0.09-0.88,0.26s-0.31,0.39-0.31,0.66c0,0.25,0.12,0.45,0.36,0.61
		c0.24,0.15,0.64,0.29,1.2,0.4c0.56,0.11,1.04,0.24,1.42,0.38c1.19,0.44,1.79,1.2,1.79,2.27c0,0.77-0.33,1.39-0.99,1.87
		s-1.52,0.71-2.56,0.71c-0.71,0-1.34-0.13-1.89-0.38c-0.55-0.25-0.98-0.6-1.29-1.04c-0.31-0.44-0.47-0.92-0.47-1.43h2.14
		c0.02,0.4,0.17,0.71,0.45,0.92c0.28,0.21,0.65,0.32,1.11,0.32c0.43,0,0.76-0.08,0.98-0.25S121.61,481.71,121.61,481.45z"/>
	<path class="st0" d="M125.44,486.05l-0.82-0.56c0.49-0.68,0.75-1.39,0.77-2.11v-1.3h1.41v1.13c0,0.53-0.13,1.05-0.39,1.58
		S125.83,485.73,125.44,486.05z"/>
	<path class="st0" d="M139.73,479.65c0,1.29-0.29,2.32-0.88,3.11c-0.59,0.79-1.39,1.18-2.39,1.18c-1.03,0-1.83-0.33-2.42-0.98v4.07
		h-1.45v-11.7h1.32l0.07,0.94c0.59-0.73,1.41-1.09,2.45-1.09c1.02,0,1.82,0.38,2.41,1.15s0.89,1.83,0.89,3.2V479.65z M138.28,479.48
		c0-0.95-0.2-1.71-0.61-2.26c-0.41-0.55-0.96-0.83-1.67-0.83c-0.88,0-1.53,0.39-1.97,1.16v4.04c0.43,0.77,1.09,1.16,1.98,1.16
		c0.69,0,1.24-0.27,1.65-0.82C138.08,481.38,138.28,480.57,138.28,479.48z"/>
	<path class="st0" d="M143.13,483.78h-1.45v-12h1.45V483.78z"/>
	<path class="st0" d="M150.66,483.78c-0.08-0.17-0.15-0.46-0.2-0.89c-0.67,0.7-1.47,1.05-2.41,1.05c-0.83,0-1.52-0.24-2.05-0.71
		c-0.53-0.47-0.8-1.07-0.8-1.79c0-0.88,0.33-1.56,1-2.05c0.67-0.49,1.61-0.73,2.82-0.73h1.41v-0.66c0-0.5-0.15-0.91-0.45-1.21
		c-0.3-0.3-0.75-0.45-1.34-0.45c-0.52,0-0.95,0.13-1.3,0.39c-0.35,0.26-0.52,0.58-0.52,0.95h-1.45c0-0.42,0.15-0.83,0.45-1.22
		c0.3-0.39,0.71-0.7,1.22-0.93c0.51-0.23,1.08-0.34,1.69-0.34c0.97,0,1.74,0.24,2.29,0.73c0.55,0.49,0.84,1.16,0.86,2.01v3.89
		c0,0.78,0.1,1.39,0.3,1.85v0.12H150.66z M148.27,482.68c0.45,0,0.88-0.12,1.29-0.35s0.7-0.54,0.88-0.91v-1.73h-1.13
		c-1.77,0-2.66,0.52-2.66,1.55c0,0.45,0.15,0.81,0.45,1.06C147.4,482.55,147.79,482.68,148.27,482.68z"/>
	<path class="st0" d="M155.52,475.33l0.05,1.06c0.65-0.81,1.49-1.22,2.53-1.22c1.79,0,2.69,1.01,2.7,3.02v5.59h-1.45v-5.59
		c0-0.61-0.14-1.06-0.42-1.35c-0.27-0.29-0.7-0.44-1.28-0.44c-0.47,0-0.88,0.12-1.23,0.38s-0.63,0.58-0.83,0.98v6.02h-1.45v-8.45
		H155.52z"/>
	<path class="st0" d="M167.9,481.54c0-0.39-0.15-0.69-0.44-0.91c-0.29-0.22-0.81-0.4-1.54-0.56s-1.31-0.34-1.74-0.56
		s-0.75-0.48-0.95-0.78c-0.21-0.3-0.31-0.66-0.31-1.08c0-0.69,0.29-1.28,0.88-1.76c0.59-0.48,1.33-0.72,2.25-0.72
		c0.96,0,1.74,0.25,2.33,0.74c0.6,0.5,0.89,1.13,0.89,1.9h-1.45c0-0.4-0.17-0.74-0.5-1.02c-0.34-0.29-0.76-0.43-1.27-0.43
		c-0.53,0-0.94,0.12-1.23,0.34c-0.3,0.23-0.45,0.53-0.45,0.9c0,0.35,0.14,0.61,0.41,0.79c0.28,0.18,0.77,0.35,1.5,0.51
		c0.72,0.16,1.31,0.35,1.75,0.58c0.45,0.22,0.78,0.49,1,0.81c0.22,0.32,0.32,0.7,0.32,1.15c0,0.76-0.3,1.36-0.91,1.82
		c-0.6,0.46-1.39,0.68-2.35,0.68c-0.68,0-1.28-0.12-1.8-0.36s-0.93-0.57-1.22-1s-0.44-0.89-0.44-1.39h1.45
		c0.03,0.48,0.22,0.87,0.58,1.15c0.36,0.28,0.84,0.43,1.43,0.43c0.55,0,0.99-0.11,1.32-0.33
		C167.73,482.21,167.9,481.91,167.9,481.54z"/>
	<path class="st0" d="M180.11,481.54c0-0.39-0.15-0.69-0.44-0.91c-0.29-0.22-0.81-0.4-1.54-0.56s-1.31-0.34-1.74-0.56
		s-0.75-0.48-0.95-0.78c-0.21-0.3-0.31-0.66-0.31-1.08c0-0.69,0.29-1.28,0.88-1.76c0.59-0.48,1.33-0.72,2.25-0.72
		c0.96,0,1.74,0.25,2.33,0.74c0.6,0.5,0.89,1.13,0.89,1.9h-1.45c0-0.4-0.17-0.74-0.5-1.02c-0.34-0.29-0.76-0.43-1.27-0.43
		c-0.53,0-0.94,0.12-1.23,0.34c-0.3,0.23-0.45,0.53-0.45,0.9c0,0.35,0.14,0.61,0.41,0.79c0.28,0.18,0.77,0.35,1.5,0.51
		c0.72,0.16,1.31,0.35,1.75,0.58c0.45,0.22,0.78,0.49,1,0.81c0.22,0.32,0.32,0.7,0.32,1.15c0,0.76-0.3,1.36-0.91,1.82
		c-0.6,0.46-1.39,0.68-2.35,0.68c-0.68,0-1.28-0.12-1.8-0.36s-0.93-0.57-1.22-1s-0.44-0.89-0.44-1.39h1.45
		c0.03,0.48,0.22,0.87,0.58,1.15c0.36,0.28,0.84,0.43,1.43,0.43c0.55,0,0.99-0.11,1.32-0.33
		C179.94,482.21,180.11,481.91,180.11,481.54z"/>
	<path class="st0" d="M185.4,473.28v2.05h1.58v1.12h-1.58v5.25c0,0.34,0.07,0.59,0.21,0.76c0.14,0.17,0.38,0.25,0.72,0.25
		c0.17,0,0.4-0.03,0.69-0.09v1.17c-0.38,0.1-0.75,0.16-1.11,0.16c-0.65,0-1.13-0.2-1.46-0.59s-0.49-0.95-0.49-1.66v-5.24h-1.54
		v-1.12h1.54v-2.05H185.4z"/>
	<path class="st0" d="M193.88,483.78c-0.08-0.17-0.15-0.46-0.2-0.89c-0.67,0.7-1.47,1.05-2.41,1.05c-0.83,0-1.52-0.24-2.05-0.71
		c-0.53-0.47-0.8-1.07-0.8-1.79c0-0.88,0.33-1.56,1-2.05c0.67-0.49,1.61-0.73,2.82-0.73h1.41v-0.66c0-0.5-0.15-0.91-0.45-1.21
		c-0.3-0.3-0.75-0.45-1.34-0.45c-0.52,0-0.95,0.13-1.3,0.39c-0.35,0.26-0.52,0.58-0.52,0.95h-1.45c0-0.42,0.15-0.83,0.45-1.22
		c0.3-0.39,0.71-0.7,1.22-0.93c0.51-0.23,1.08-0.34,1.69-0.34c0.97,0,1.74,0.24,2.29,0.73c0.55,0.49,0.84,1.16,0.86,2.01v3.89
		c0,0.78,0.1,1.39,0.3,1.85v0.12H193.88z M191.48,482.68c0.45,0,0.88-0.12,1.29-0.35s0.7-0.54,0.88-0.91v-1.73h-1.13
		c-1.77,0-2.66,0.52-2.66,1.55c0,0.45,0.15,0.81,0.45,1.06C190.62,482.55,191.01,482.68,191.48,482.68z"/>
	<path class="st0" d="M201.45,476.62c-0.22-0.04-0.46-0.05-0.71-0.05c-0.95,0-1.59,0.4-1.93,1.21v6h-1.45v-8.45h1.41l0.02,0.98
		c0.47-0.75,1.15-1.13,2.02-1.13c0.28,0,0.5,0.04,0.64,0.11V476.62z"/>
	<path class="st0" d="M205.13,473.28v2.05h1.58v1.12h-1.58v5.25c0,0.34,0.07,0.59,0.21,0.76c0.14,0.17,0.38,0.25,0.72,0.25
		c0.17,0,0.4-0.03,0.69-0.09v1.17c-0.38,0.1-0.75,0.16-1.11,0.16c-0.65,0-1.13-0.2-1.46-0.59s-0.49-0.95-0.49-1.66v-5.24h-1.54
		v-1.12h1.54v-2.05H205.13z"/>
	<path class="st0" d="M208.41,473.09c0-0.23,0.07-0.43,0.21-0.59c0.14-0.16,0.36-0.24,0.64-0.24s0.5,0.08,0.64,0.24
		c0.15,0.16,0.22,0.36,0.22,0.59s-0.07,0.43-0.22,0.59s-0.36,0.23-0.64,0.23s-0.49-0.08-0.64-0.23S208.41,473.32,208.41,473.09z
		 M209.97,483.78h-1.45v-8.45h1.45V483.78z"/>
	<path class="st0" d="M213.65,475.33l0.05,1.06c0.65-0.81,1.49-1.22,2.53-1.22c1.79,0,2.69,1.01,2.7,3.02v5.59h-1.45v-5.59
		c0-0.61-0.14-1.06-0.42-1.35c-0.27-0.29-0.7-0.44-1.28-0.44c-0.47,0-0.88,0.12-1.23,0.38s-0.63,0.58-0.83,0.98v6.02h-1.45v-8.45
		H213.65z"/>
	<path class="st0" d="M220.77,479.48c0-1.32,0.3-2.37,0.91-3.14c0.61-0.78,1.42-1.17,2.42-1.17c1.03,0,1.84,0.37,2.41,1.09
		l0.07-0.94h1.32v8.25c0,1.09-0.32,1.96-0.97,2.59s-1.52,0.95-2.61,0.95c-0.61,0-1.21-0.13-1.79-0.39s-1.03-0.62-1.34-1.07
		l0.75-0.87c0.62,0.77,1.38,1.15,2.27,1.15c0.7,0,1.25-0.2,1.64-0.59s0.59-0.95,0.59-1.67v-0.73c-0.58,0.67-1.37,1-2.37,1
		c-0.99,0-1.79-0.4-2.4-1.2S220.77,480.86,220.77,479.48z M222.22,479.65c0,0.95,0.2,1.7,0.59,2.25c0.39,0.54,0.94,0.82,1.64,0.82
		c0.91,0,1.58-0.41,2.01-1.24v-3.86c-0.44-0.81-1.11-1.21-1.99-1.21c-0.7,0-1.25,0.27-1.65,0.82S222.22,478.58,222.22,479.65z"/>
	<path class="st0" d="M99.18,502.98c-0.08-0.17-0.15-0.46-0.2-0.89c-0.67,0.7-1.47,1.05-2.41,1.05c-0.83,0-1.52-0.24-2.05-0.71
		s-0.8-1.07-0.8-1.79c0-0.88,0.33-1.56,1-2.05s1.61-0.73,2.82-0.73h1.41v-0.66c0-0.5-0.15-0.91-0.45-1.21s-0.75-0.45-1.34-0.45
		c-0.52,0-0.95,0.13-1.3,0.39s-0.52,0.58-0.52,0.95h-1.45c0-0.42,0.15-0.83,0.45-1.22s0.71-0.7,1.22-0.93s1.08-0.34,1.69-0.34
		c0.97,0,1.74,0.24,2.29,0.73s0.84,1.16,0.86,2.01V501c0,0.78,0.1,1.39,0.3,1.85v0.12H99.18z M96.78,501.88
		c0.45,0,0.88-0.12,1.29-0.35s0.7-0.54,0.88-0.91v-1.73h-1.13c-1.77,0-2.66,0.52-2.66,1.55c0,0.45,0.15,0.81,0.45,1.06
		S96.31,501.88,96.78,501.88z"/>
	<path class="st0" d="M104.62,492.48v2.05h1.58v1.12h-1.58v5.25c0,0.34,0.07,0.59,0.21,0.76c0.14,0.17,0.38,0.25,0.72,0.25
		c0.17,0,0.4-0.03,0.69-0.09v1.17c-0.38,0.1-0.75,0.16-1.11,0.16c-0.65,0-1.13-0.2-1.46-0.59s-0.49-0.95-0.49-1.66v-5.24h-1.54
		v-1.12h1.54v-2.05H104.62z"/>
	<path class="st0" d="M116.93,499.99c0-0.43-0.12-0.77-0.36-1.02s-0.64-0.49-1.21-0.7s-1.06-0.43-1.47-0.64s-0.76-0.45-1.06-0.73
		s-0.52-0.59-0.69-0.96s-0.25-0.81-0.25-1.32c0-0.88,0.28-1.6,0.84-2.16s1.31-0.89,2.24-0.98v-1.67h1.25v1.7
		c0.92,0.13,1.64,0.51,2.16,1.15s0.78,1.46,0.78,2.48h-2.26c0-0.62-0.13-1.09-0.39-1.4s-0.6-0.46-1.04-0.46
		c-0.43,0-0.76,0.12-0.99,0.36s-0.35,0.58-0.35,1c0,0.4,0.11,0.71,0.34,0.95s0.66,0.48,1.28,0.73s1.13,0.49,1.54,0.71
		s0.74,0.47,1.02,0.75s0.49,0.6,0.63,0.95s0.22,0.77,0.22,1.25c0,0.89-0.28,1.6-0.83,2.16s-1.31,0.88-2.28,0.98v1.55h-1.24v-1.55
		c-1.07-0.12-1.89-0.49-2.48-1.14s-0.88-1.5-0.88-2.57h2.26c0,0.62,0.15,1.09,0.44,1.43s0.72,0.5,1.27,0.5
		c0.46,0,0.82-0.12,1.09-0.36S116.93,500.4,116.93,499.99z"/>
	<path class="st0" d="M125.99,498.43c-0.59,0.58-1.28,0.87-2.06,0.87c-1,0-1.81-0.34-2.41-1.04s-0.91-1.62-0.91-2.79
		c0-0.75,0.16-1.43,0.49-2.05s0.78-1.11,1.36-1.45s1.24-0.52,1.97-0.52c0.75,0,1.42,0.19,2,0.56s1.04,0.91,1.36,1.62
		s0.49,1.51,0.49,2.41v0.84c0,1.9-0.47,3.39-1.41,4.47s-2.28,1.66-4.01,1.73l-0.55,0.01v-1.88l0.5-0.01
		C124.77,501.11,125.83,500.19,125.99,498.43z M124.48,497.58c0.36,0,0.68-0.09,0.94-0.28s0.46-0.41,0.6-0.68v-0.93
		c0-0.77-0.15-1.36-0.44-1.78s-0.68-0.63-1.17-0.63c-0.45,0-0.83,0.21-1.12,0.62s-0.44,0.93-0.44,1.56c0,0.62,0.14,1.13,0.43,1.53
		S123.97,497.58,124.48,497.58z"/>
	<path class="st0" d="M130.1,501.87c0-0.36,0.12-0.65,0.36-0.88s0.55-0.34,0.91-0.34c0.37,0,0.68,0.11,0.92,0.34
		s0.36,0.52,0.36,0.88c0,0.35-0.12,0.64-0.36,0.86s-0.55,0.33-0.92,0.33c-0.37,0-0.67-0.11-0.91-0.33S130.1,502.23,130.1,501.87z"/>
	<path class="st0" d="M139.82,498.43c-0.59,0.58-1.28,0.87-2.06,0.87c-1,0-1.81-0.34-2.41-1.04s-0.91-1.62-0.91-2.79
		c0-0.75,0.16-1.43,0.49-2.05s0.78-1.11,1.36-1.45s1.24-0.52,1.97-0.52c0.75,0,1.42,0.19,2,0.56s1.04,0.91,1.36,1.62
		s0.49,1.51,0.49,2.41v0.84c0,1.9-0.47,3.39-1.41,4.47s-2.28,1.66-4.01,1.73l-0.55,0.01v-1.88l0.5-0.01
		C138.6,501.11,139.66,500.19,139.82,498.43z M138.31,497.58c0.36,0,0.68-0.09,0.94-0.28s0.46-0.41,0.6-0.68v-0.93
		c0-0.77-0.15-1.36-0.44-1.78s-0.68-0.63-1.17-0.63c-0.45,0-0.83,0.21-1.12,0.62s-0.44,0.93-0.44,1.56c0,0.62,0.14,1.13,0.43,1.53
		S137.8,497.58,138.31,497.58z"/>
	<path class="st0" d="M149,498.43c-0.59,0.58-1.28,0.87-2.06,0.87c-1,0-1.81-0.34-2.41-1.04s-0.91-1.62-0.91-2.79
		c0-0.75,0.16-1.43,0.49-2.05s0.78-1.11,1.36-1.45s1.24-0.52,1.97-0.52c0.75,0,1.42,0.19,2,0.56s1.04,0.91,1.36,1.62
		s0.49,1.51,0.49,2.41v0.84c0,1.9-0.47,3.39-1.41,4.47s-2.28,1.66-4.01,1.73l-0.55,0.01v-1.88l0.5-0.01
		C147.78,501.11,148.84,500.19,149,498.43z M147.49,497.58c0.36,0,0.68-0.09,0.94-0.28s0.46-0.41,0.6-0.68v-0.93
		c0-0.77-0.15-1.36-0.44-1.78s-0.68-0.63-1.17-0.63c-0.45,0-0.83,0.21-1.12,0.62s-0.44,0.93-0.44,1.56c0,0.62,0.14,1.13,0.43,1.53
		S146.98,497.58,147.49,497.58z"/>
	<path class="st0" d="M153.7,503.96h-1.68l4.19-12.35h1.68L153.7,503.96z"/>
	<path class="st0" d="M161.09,494.53l0.07,0.95c0.6-0.73,1.41-1.1,2.43-1.1c1.09,0,1.84,0.43,2.24,1.29
		c0.59-0.86,1.44-1.29,2.54-1.29c0.92,0,1.6,0.27,2.05,0.8s0.67,1.34,0.67,2.41v5.4h-2.27v-5.39c0-0.48-0.09-0.83-0.28-1.05
		s-0.52-0.33-0.99-0.33c-0.68,0-1.15,0.32-1.41,0.97l0.01,5.8h-2.26v-5.38c0-0.49-0.1-0.84-0.29-1.06s-0.52-0.33-0.98-0.33
		c-0.64,0-1.1,0.27-1.39,0.8v5.98h-2.26v-8.45H161.09z"/>
	<path class="st0" d="M172.47,498.68c0-0.84,0.16-1.59,0.48-2.24s0.79-1.16,1.39-1.52s1.31-0.54,2.11-0.54
		c1.14,0,2.07,0.35,2.79,1.05s1.12,1.65,1.21,2.84l0.02,0.58c0,1.3-0.36,2.34-1.09,3.12s-1.7,1.18-2.91,1.18s-2.19-0.39-2.92-1.17
		s-1.09-1.84-1.09-3.19V498.68z M174.73,498.84c0,0.8,0.15,1.42,0.45,1.84s0.73,0.64,1.3,0.64c0.55,0,0.97-0.21,1.28-0.63
		s0.46-1.09,0.46-2.01c0-0.79-0.15-1.4-0.46-1.83s-0.74-0.65-1.3-0.65c-0.55,0-0.98,0.21-1.28,0.65S174.73,497.93,174.73,498.84z"/>
	<path class="st0" d="M183.95,494.53l0.07,0.98c0.6-0.75,1.41-1.13,2.43-1.13c0.9,0,1.56,0.26,2,0.79s0.66,1.31,0.67,2.36v5.46
		h-2.26v-5.41c0-0.48-0.1-0.83-0.31-1.04s-0.55-0.32-1.04-0.32c-0.64,0-1.11,0.27-1.43,0.81v5.96h-2.26v-8.45H183.95z"/>
	<path class="st0" d="M193.53,492.45v2.08h1.45v1.66h-1.45v4.22c0,0.31,0.06,0.54,0.18,0.67s0.35,0.2,0.69,0.2
		c0.25,0,0.47-0.02,0.66-0.05v1.71c-0.44,0.13-0.9,0.2-1.37,0.2c-1.58,0-2.39-0.8-2.42-2.4v-4.55h-1.23v-1.66h1.23v-2.08H193.53z"/>
	<path class="st0" d="M198.44,495.45c0.6-0.72,1.35-1.08,2.26-1.08c1.83,0,2.76,1.07,2.79,3.2v5.41h-2.26v-5.35
		c0-0.48-0.1-0.84-0.31-1.07s-0.55-0.35-1.04-0.35c-0.66,0-1.14,0.25-1.44,0.77v6.01h-2.26v-12h2.26V495.45z"/>
</g>
</svg>
