<svg id="Layer_1" xmlns="http://www.w3.org/2000/svg" viewBox="0 0 300 250"><style>.st0{fill:#e82d8a;stroke:#fff;stroke-width:.75;stroke-miterlimit:10}.st1{fill:#fff}</style><path class="st0" d="M243.4 156.5h-107c-6.4 0-11.6-5.2-11.6-11.6 0-6.4 5.2-11.6 11.6-11.6h106.9c6.4 0 11.6 5.2 11.6 11.6.1 6.4-5.1 11.6-11.5 11.6z"/><path class="st1" d="M144 146.5c-.1 1-.4 1.7-1.1 2.3-.6.5-1.5.8-2.5.8-1.1 0-2-.4-2.7-1.2s-1-1.8-1-3.2v-.5c0-.9.2-1.6.5-2.3s.7-1.2 1.3-1.5c.6-.3 1.2-.5 1.9-.5 1 0 1.9.3 2.5.8.6.5 1 1.3 1.1 2.3h-1.8c0-.6-.2-1-.5-1.2-.3-.3-.7-.4-1.3-.4-.6 0-1.1.2-1.4.7-.3.4-.5 1.1-.5 2v.7c0 1 .1 1.7.4 2.1.3.4.7.7 1.4.7.6 0 1-.1 1.3-.4.3-.3.4-.7.5-1.2h1.9zM146.9 149.5h-1.8v-9.4h1.8v9.4zM148.3 141.2c0-.3.1-.5.3-.7.2-.2.4-.3.7-.3.3 0 .5.1.7.3.2.2.3.4.3.7 0 .3-.1.5-.3.7s-.4.3-.7.3-.5-.1-.7-.3c-.2-.2-.3-.4-.3-.7zm1.9 8.3h-1.8v-6.6h1.8v6.6zM154.4 148.2c.3 0 .6-.1.8-.3.2-.2.3-.4.3-.7h1.7c0 .4-.1.9-.4 1.2s-.6.7-1 .9c-.4.2-.9.3-1.4.3-.9 0-1.7-.3-2.2-.9-.5-.6-.8-1.4-.8-2.5v-.1c0-1 .3-1.8.8-2.4.5-.6 1.3-.9 2.2-.9.8 0 1.5.2 2 .7s.8 1.1.8 1.9h-1.7c0-.3-.1-.6-.3-.8s-.5-.3-.8-.3c-.4 0-.7.1-.9.4-.2.3-.3.8-.3 1.5v.2c0 .7.1 1.2.3 1.5.2.1.5.3.9.3zM160.6 146.8l-.6.6v2h-1.8V140h1.8v5.2l.3-.4 1.7-2h2.1l-2.4 2.8 2.6 3.8h-2l-1.7-2.6zM170.1 141.3v1.6h1.1v1.3h-1.1v3.3c0 .2 0 .4.1.5.1.1.3.2.5.2h.5v1.3c-.3.1-.7.2-1.1.2-1.2 0-1.9-.6-1.9-1.9v-3.6h-1v-1.3h1v-1.6h1.9zM171.7 146.1c0-.7.1-1.2.4-1.8.3-.5.6-.9 1.1-1.2.5-.3 1-.4 1.6-.4.9 0 1.6.3 2.2.8s.9 1.3.9 2.2v.5c0 1-.3 1.8-.8 2.4s-1.3.9-2.3.9-1.7-.3-2.3-.9-.8-1.3-.8-2.5zm1.8.2c0 .6.1 1.1.4 1.4.2.3.6.5 1 .5s.8-.2 1-.5c.2-.3.4-.9.4-1.6 0-.6-.1-1.1-.4-1.4-.2-.3-.6-.5-1-.5s-.8.2-1 .5c-.3.3-.4.9-.4 1.6zM184 149.5h-1.8v-9.4h1.8v9.4zM188.5 149.6c-1 0-1.8-.3-2.4-.9s-.9-1.4-.9-2.4v-.2c0-.7.1-1.3.4-1.8.3-.5.6-.9 1.1-1.2.5-.3 1-.4 1.6-.4.9 0 1.6.3 2.1.9s.8 1.4.8 2.4v.7H187c.1.4.2.8.5 1 .3.3.7.4 1.1.4.7 0 1.2-.2 1.6-.7l.9 1c-.3.4-.6.7-1.1.9-.4.2-.9.3-1.5.3zm-.2-5.4c-.4 0-.6.1-.9.4s-.4.6-.4 1h2.5v-.1c0-.4-.1-.7-.3-.9-.2-.3-.5-.4-.9-.4zM196.1 149.5c-.1-.2-.1-.4-.2-.6-.4.5-1 .7-1.7.7-.6 0-1.2-.2-1.6-.6s-.6-.8-.6-1.4c0-.7.3-1.2.8-1.6.5-.4 1.3-.6 2.2-.6h.8v-.4c0-.3-.1-.5-.2-.7-.2-.2-.4-.3-.7-.3-.3 0-.5.1-.7.2s-.3.3-.3.6h-1.8c0-.4.1-.7.4-1.1.2-.3.6-.6 1-.8.4-.2.9-.3 1.5-.3.8 0 1.5.2 1.9.6.5.4.7 1 .7 1.7v2.9c0 .6.1 1.1.3 1.4v.1h-1.8zm-1.5-1.2c.3 0 .5-.1.7-.2.2-.1.4-.3.5-.5v-1.1h-.7c-.9 0-1.4.3-1.4.9v.1c0 .2.1.4.2.5.2.2.5.3.7.3zM202.7 144.5h-.6c-.7 0-1.1.2-1.3.7v4.3H199v-6.6h1.7v.8c.4-.6.8-.9 1.5-.9.2 0 .4 0 .5.1v1.6zM205.1 142.9l.1.8c.5-.6 1.1-.9 1.9-.9.7 0 1.2.2 1.6.6.3.4.5 1 .5 1.8v4.3h-1.8v-4.2c0-.4-.1-.6-.2-.8-.2-.2-.4-.3-.8-.3-.5 0-.9.2-1.1.6v4.7h-1.8v-6.6h1.6zM215.3 142.9l.1.7c.5-.6 1.1-.9 1.9-.9.8 0 1.4.3 1.8 1 .5-.7 1.1-1 2-1 .7 0 1.2.2 1.6.6s.5 1 .5 1.9v4.2h-1.8v-4.2c0-.4-.1-.6-.2-.8s-.4-.3-.8-.3c-.5 0-.9.3-1.1.8v4.5h-1.8v-4.2c0-.4-.1-.7-.2-.8s-.4-.3-.8-.3c-.5 0-.9.2-1.1.6v4.7h-1.8v-6.6h1.7zM224.2 146.1c0-.7.1-1.2.4-1.8.3-.5.6-.9 1.1-1.2.5-.3 1-.4 1.7-.4.9 0 1.6.3 2.2.8s.9 1.3.9 2.2v.5c0 1-.3 1.8-.8 2.4s-1.3.9-2.3.9c-1 0-1.7-.3-2.3-.9s-.9-1.3-.9-2.5zm1.7.2c0 .6.1 1.1.4 1.4.2.3.6.5 1 .5s.8-.2 1-.5c.2-.3.4-.9.4-1.6 0-.6-.1-1.1-.4-1.4-.2-.3-.6-.5-1-.5s-.8.2-1 .5c-.3.3-.4.9-.4 1.6zM235.2 144.5h-.6c-.7 0-1.1.2-1.3.7v4.3h-1.8v-6.6h1.7v.8c.4-.6.8-.9 1.5-.9.2 0 .4 0 .5.1v1.6zM239.1 149.6c-1 0-1.8-.3-2.4-.9-.6-.6-.9-1.4-.9-2.4v-.2c0-.7.1-1.3.4-1.8.3-.5.6-.9 1.1-1.2.5-.3 1-.4 1.6-.4.9 0 1.6.3 2.1.9s.8 1.4.8 2.4v.7h-4.2c.1.4.2.8.5 1 .3.3.7.4 1.1.4.7 0 1.2-.2 1.6-.7l.9 1c-.3.4-.6.7-1.1.9-.5.2-1 .3-1.5.3zm-.2-5.4c-.3 0-.6.1-.9.4s-.4.6-.4 1h2.5v-.1c0-.4-.1-.7-.3-.9-.2-.3-.5-.4-.9-.4z"/></svg>