<svg id="Layer_1" xmlns="http://www.w3.org/2000/svg" viewBox="0 0 300 250"><style>.st0{fill:#edf4fd}</style><path class="st0" d="M131.5 170.7c0-.2-.1-.4-.2-.5s-.4-.3-.7-.4-.5-.2-.7-.3c-.6-.3-.9-.8-.9-1.4 0-.4.1-.7.4-1 .2-.3.6-.4 1-.5v-.8h.6v.8c.4.1.8.2 1 .5s.3.7.3 1.2h-.9c0-.3-.1-.5-.2-.7-.1-.2-.3-.3-.6-.3-.2 0-.4.1-.5.2s-.2.3-.2.5.1.4.2.5c.1.1.4.2.7.4.3.1.6.2.7.3s.3.2.5.3c.1.1.2.3.3.4.1.2.1.4.1.6 0 .4-.1.7-.4 1-.3.3-.6.4-1.1.5v.7h-.6v-.7c-.5-.1-.9-.2-1.1-.5-.3-.3-.4-.7-.4-1.2h.9c0 .3.1.5.2.7.2.2.4.3.7.3.3 0 .5-.1.6-.2.2 0 .3-.2.3-.4zM135.5 172.1h-.9v-4.3l-1.3.4v-.7l2.1-.8h.1v5.4zM140.4 167.2v1h.7v.7h-.7v2.2c0 .2 0 .3.1.3.1.1.2.1.3.1h.3v.7c-.2.1-.4.1-.6.1-.7 0-1-.4-1-1.1V169h-.7v-.7h.7v-1h.9zM143.9 169h-.4c-.4 0-.7.2-.8.5v2.7h-.9v-4h.8v.4c.2-.3.5-.5.9-.5.1 0 .2 0 .3.1l.1.8zM144.5 167.1c0-.1 0-.2.1-.3.1-.1.2-.1.4-.1s.3 0 .4.1c.1.1.1.2.1.3 0 .1 0 .2-.1.3s-.2.1-.4.1-.3 0-.4-.1c-.1 0-.1-.2-.1-.3zm.9 5h-.9v-4h.9v4zM148.7 172.1c0-.1-.1-.2-.1-.4-.3.3-.6.4-1 .4s-.7-.1-1-.3c-.3-.2-.4-.5-.4-.8 0-.4.2-.7.5-1 .3-.2.8-.3 1.3-.3h.5v-.3c0-.2-.1-.4-.2-.5-.1-.1-.3-.2-.5-.2s-.4.1-.5.2c-.1.1-.2.2-.2.4h-.9c0-.2.1-.4.2-.6s.3-.3.6-.4c.2-.1.5-.2.8-.2.5 0 .8.1 1.1.3.3.2.4.6.4 1v1.8c0 .4 0 .6.1.9v.1h-.7zm-.9-.6c.2 0 .3 0 .5-.1s.3-.2.3-.3v-.7h-.5c-.3 0-.6.1-.7.2-.2.1-.2.3-.2.5s.1.3.2.4c0-.1.2 0 .4 0zM151.4 172.1h-.9v-5.6h.9v5.6zM154.5 172.1v-3.3h-.6v-.7h.6v-.4c0-.4.1-.8.4-1s.6-.4 1-.4c.2 0 .3 0 .5.1v.7h-.3c-.4 0-.6.2-.6.7v.4h.8v.7h-.8v3.3h-1zM156.7 170.1c0-.4.1-.7.2-1 .2-.3.4-.5.6-.7.3-.2.6-.2 1-.2.5 0 1 .2 1.3.5.3.3.5.8.5 1.4v.2c0 .4-.1.7-.2 1s-.4.5-.6.7c-.3.2-.6.3-1 .3-.6 0-1-.2-1.3-.6-.3-.5-.5-.9-.5-1.6zm.9.1c0 .4.1.7.3 1 .2.2.4.3.7.3.3 0 .5-.1.7-.4s.3-.6.3-1-.1-.7-.3-1c-.2-.2-.4-.4-.7-.4-.3 0-.5.1-.7.3s-.3.7-.3 1.2zM163.2 169h-.4c-.4 0-.7.2-.8.5v2.7h-.9v-4h.8v.4c.2-.3.5-.5.9-.5.1 0 .2 0 .3.1l.1.8zM166.8 167.2v1h.7v.7h-.7v2.2c0 .2 0 .3.1.3.1.1.2.1.3.1h.3v.7c-.2.1-.4.1-.6.1-.7 0-1-.4-1-1.1V169h-.7v-.7h.7v-1h.9zM169 168.6c.3-.3.7-.5 1.1-.5.8 0 1.3.5 1.3 1.4v2.6h-.9v-2.6c0-.3-.1-.5-.2-.6-.1-.1-.3-.2-.5-.2-.4 0-.6.2-.8.5v2.8h-.9v-5.6h.9v2.2zM174 172.2c-.6 0-1-.2-1.4-.5-.4-.4-.5-.8-.5-1.4v-.1c0-.4.1-.7.2-1.1.2-.3.4-.6.6-.7.3-.2.6-.3.9-.3.5 0 1 .2 1.2.5.3.3.4.8.4 1.5v.4H173c0 .3.1.6.3.8.2.2.4.3.7.3.4 0 .7-.2 1-.5l.5.5-.6.6c-.2-.1-.5 0-.9 0zm-.1-3.4c-.2 0-.4.1-.6.3s-.2.4-.3.7h1.7v-.1c0-.3-.1-.5-.2-.7-.1-.1-.3-.2-.6-.2zM178.5 172.1v-3.3h-.6v-.7h.6v-.4c0-.4.1-.8.4-1s.6-.4 1-.4c.2 0 .3 0 .5.1v.7h-.3c-.4 0-.6.2-.6.7v.4h.8v.7h-.8v3.3h-1zM180.9 167.1c0-.1 0-.2.1-.3.1-.1.2-.1.4-.1s.3 0 .4.1c.1.1.1.2.1.3 0 .1 0 .2-.1.3s-.2.1-.4.1-.3 0-.4-.1c-.1 0-.1-.2-.1-.3zm.9 5h-.9v-4h.9v4zM184.8 169h-.4c-.4 0-.7.2-.8.5v2.7h-.9v-4h.8v.4c.2-.3.5-.5.9-.5.1 0 .2 0 .3.1l.1.8zM187.6 171c0-.2-.1-.3-.2-.4-.1-.1-.3-.2-.6-.2s-.6-.1-.8-.2c-.4-.2-.7-.5-.7-.9 0-.3.1-.6.4-.9.3-.2.7-.3 1.1-.3.5 0 .9.1 1.1.4s.4.5.4.9h-.9c0-.2-.1-.3-.2-.4-.1-.1-.3-.2-.5-.2s-.4 0-.5.1c-.1.1-.2.2-.2.4 0 .1.1.2.2.3.1.1.3.2.7.2.3.1.6.2.8.3.2.1.3.2.4.4.1.1.1.3.1.5 0 .4-.1.6-.4.9-.3.2-.7.3-1.2.3-.3 0-.6-.1-.9-.2s-.5-.3-.6-.5c-.1-.2-.2-.4-.2-.7h.9c0 .2.1.4.2.5s.3.2.6.2c.2 0 .4 0 .5-.1.5-.1.5-.2.5-.4zM190.4 167.2v1h.7v.7h-.7v2.2c0 .2 0 .3.1.3.1.1.2.1.3.1h.3v.7c-.2.1-.4.1-.6.1-.7 0-1-.4-1-1.1V169h-.7v-.7h.7v-1h.9zM196 172.1h-.9v-4.3l-1.3.4v-.7l2.1-.8h.1v5.4zM200.9 170.2h.7v.7h-.7v1.2h-.9v-1.2h-2.3v-.5l2.3-3.6h.9v3.4zm-2.3 0h1.4V168l-.1.1-1.3 2.1zM203.9 170.1c0-.6.1-1.1.4-1.5.3-.4.7-.6 1.1-.6.4 0 .8.1 1 .4v-2h.9v5.6h-.8v-.4c-.3.3-.6.5-1.1.5-.5 0-.8-.2-1.1-.6-.3-.3-.4-.8-.4-1.4zm.9.1c0 .4.1.7.2.9.2.2.4.3.7.3.4 0 .6-.2.8-.5v-1.7c-.2-.3-.4-.5-.8-.5-.3 0-.5.1-.7.3-.2.4-.2.7-.2 1.2zM210.6 172.1c0-.1-.1-.2-.1-.4-.3.3-.6.4-1 .4s-.7-.1-1-.3c-.3-.2-.4-.5-.4-.8 0-.4.2-.7.5-1s.8-.3 1.3-.3h.5v-.3c0-.2-.1-.4-.2-.5-.1-.1-.3-.2-.5-.2s-.4.1-.5.2c-.1.1-.2.2-.2.4h-.9c0-.2.1-.4.2-.6.1-.2.3-.3.6-.4.2-.1.5-.2.8-.2.5 0 .8.1 1.1.3.3.2.4.6.4 1v1.8c0 .4 0 .6.2.9v.1h-.8zm-.9-.6c.2 0 .3 0 .5-.1s.3-.2.3-.3v-.7h-.5c-.3 0-.6.1-.7.2-.2.1-.2.3-.2.5s.1.3.2.4.2 0 .4 0zM213.7 170.8l.8-2.7h.9l-1.6 4.6c-.2.7-.7 1-1.2 1-.1 0-.3 0-.4-.1v-.7h.2c.2 0 .4 0 .5-.1.1-.1.2-.2.3-.4l.1-.3-1.4-3.9h1l.8 2.6zM218.2 171c0-.2-.1-.3-.2-.4-.1-.1-.3-.2-.6-.2s-.6-.1-.8-.2c-.4-.2-.7-.5-.7-.9 0-.3.1-.6.4-.9.3-.2.7-.3 1.1-.3.5 0 .9.1 1.1.4s.4.5.4.9h-.9c0-.2-.1-.3-.2-.4-.1-.1-.3-.2-.5-.2s-.4 0-.5.1c-.1.1-.2.2-.2.4 0 .1.1.2.2.3.1.1.3.2.7.2.3.1.6.2.8.3.2.1.3.2.4.4.1.1.1.3.1.5 0 .4-.1.6-.4.9-.3.2-.7.3-1.2.3-.3 0-.6-.1-.9-.2s-.5-.3-.6-.5c-.1-.2-.2-.4-.2-.7h.9c0 .2.1.4.2.5s.3.2.6.2c.2 0 .4 0 .5-.1.4-.1.5-.2.5-.4zM220.4 171.2c.2 0 .3 0 .4.1.1.1.1.2.1.4 0 .1 0 .3-.1.3-.1.1-.2.1-.4.1s-.3 0-.4-.1c-.1-.1-.1-.2-.1-.3s0-.3.1-.4c.1-.1.2-.1.4-.1zM129.9 179.1v2h-.9v-5.3h2c.6 0 1.1.2 1.4.5.4.3.5.7.5 1.2s-.2.9-.5 1.2c-.3.3-.8.4-1.4.4h-1.1zm0-.7h1.1c.3 0 .6-.1.8-.2s.3-.4.3-.7c0-.3-.1-.5-.3-.7s-.4-.3-.7-.3H130v1.9zM134.7 181.1h-.9v-5.6h.9v5.6zM138 181.1c0-.1-.1-.2-.1-.4-.3.3-.6.4-1 .4s-.7-.1-1-.3c-.3-.2-.4-.5-.4-.8 0-.4.2-.7.5-1 .3-.2.8-.3 1.3-.3h.5v-.3c0-.2-.1-.4-.2-.5-.1-.1-.3-.2-.5-.2s-.4.1-.5.2c-.1.1-.2.2-.2.4h-.9c0-.2.1-.4.2-.6s.3-.3.6-.4c.2-.1.5-.2.8-.2.5 0 .8.1 1.1.3.3.2.4.6.4 1v1.8c0 .4 0 .6.1.9v.1h-.7zm-1-.6c.2 0 .3 0 .5-.1s.3-.2.3-.3v-.7h-.5c-.3 0-.6.1-.7.2-.2.1-.2.3-.2.5s.1.3.2.4c.1-.1.2 0 .4 0zM140.5 177.1v.5c.3-.4.7-.5 1.2-.5.8 0 1.2.5 1.3 1.4v2.6h-.9v-2.6c0-.3-.1-.4-.2-.6-.1-.1-.3-.2-.5-.2-.4 0-.6.2-.8.5v2.8h-.9v-4h.8zM146.1 180c0-.2-.1-.3-.2-.4-.1-.1-.3-.2-.6-.2s-.6-.1-.8-.2c-.4-.2-.7-.5-.7-.9 0-.3.1-.6.4-.9.3-.2.7-.3 1.1-.3.5 0 .9.1 1.1.4.3.2.4.5.4.9h-.8c0-.2-.1-.3-.2-.4-.1-.1-.3-.2-.5-.2s-.4 0-.5.1c-.1.1-.2.2-.2.4 0 .1.1.2.2.3.1.1.3.2.7.2.3.1.6.2.8.3.2.1.3.2.4.4.1.1.1.3.1.5 0 .4-.1.6-.4.9-.3.2-.7.3-1.2.3-.3 0-.6-.1-.9-.2s-.5-.3-.6-.5c-.1-.2-.2-.4-.2-.7h.9c0 .2.1.4.2.5s.3.2.6.2c.2 0 .4 0 .5-.1.3-.1.4-.2.4-.4zM151.8 180c0-.2-.1-.3-.2-.4s-.3-.2-.7-.2-.6-.1-.8-.2c-.4-.2-.7-.5-.7-.9 0-.3.1-.6.4-.9.3-.2.7-.3 1.1-.3.5 0 .9.1 1.1.4.3.2.4.5.4.9h-.9c0-.2-.1-.3-.2-.4-.1-.1-.3-.2-.5-.2s-.4 0-.5.1c-.1.1-.2.2-.2.4 0 .1.1.2.2.3.1.1.3.2.7.2.3.1.6.2.8.3s.3.2.4.4c.1.1.1.3.1.5 0 .4-.1.6-.4.9-.3.2-.7.3-1.2.3-.3 0-.6-.1-.9-.2s-.5-.3-.6-.5c-.1-.2-.2-.4-.2-.7h.9c0 .2.1.4.2.5s.3.2.6.2c.2 0 .4 0 .5-.1.6-.1.6-.2.6-.4zM154.6 176.2v1h.7v.7h-.7v2.2c0 .2 0 .3.1.3.1.1.2.1.3.1h.3v.7c-.2.1-.4.1-.6.1-.7 0-1-.4-1-1.1V178h-.7v-.7h.7v-1h.9zM158.3 181.1c0-.1-.1-.2-.1-.4-.3.3-.6.4-1 .4s-.7-.1-1-.3c-.3-.2-.4-.5-.4-.8 0-.4.2-.7.5-1s.8-.3 1.3-.3h.5v-.3c0-.2-.1-.4-.2-.5-.1-.1-.3-.2-.5-.2s-.4.1-.5.2c-.1.1-.2.2-.2.4h-.9c0-.2.1-.4.2-.6.1-.2.3-.3.6-.4.2-.1.5-.2.8-.2.5 0 .8.1 1.1.3.3.2.4.6.4 1v1.8c0 .4 0 .6.2.9v.1h-.8zm-.9-.6c.2 0 .3 0 .5-.1s.3-.2.3-.3v-.7h-.5c-.3 0-.6.1-.7.2-.2.1-.2.3-.2.5s.1.3.2.4.2 0 .4 0zM162.1 178h-.4c-.4 0-.7.2-.8.5v2.7h-.9v-4h.8v.4c.2-.3.5-.5.9-.5.1 0 .2 0 .3.1l.1.8zM164 176.2v1h.7v.7h-.7v2.2c0 .2 0 .3.1.3s.2.1.3.1h.3v.7c-.2.1-.4.1-.6.1-.7 0-1-.4-1-1.1V178h-.7v-.7h.7v-1h.9zM165.3 176.1c0-.1 0-.2.1-.3.1-.1.2-.1.4-.1s.3 0 .4.1c.1.1.1.2.1.3 0 .1 0 .2-.1.3s-.2.1-.4.1-.3 0-.4-.1-.1-.2-.1-.3zm1 5h-.9v-4h.9v4zM168.1 177.1v.5c.3-.4.7-.5 1.2-.5.8 0 1.2.5 1.3 1.4v2.6h-.9v-2.6c0-.3-.1-.4-.2-.6-.1-.1-.3-.2-.5-.2-.4 0-.6.2-.8.5v2.8h-.9v-4h.8zM171.3 179.1c0-.6.1-1.1.4-1.5s.7-.6 1.2-.6.8.2 1.1.5v-.4h.8v3.8c0 .5-.2.9-.5 1.2-.3.3-.8.5-1.3.5-.3 0-.6-.1-.9-.2s-.5-.3-.6-.5l.4-.5c.3.3.6.5 1 .5.3 0 .5-.1.7-.2s.3-.4.3-.7v-.3c-.3.3-.6.4-1 .4-.5 0-.8-.2-1.1-.6-.4-.2-.5-.8-.5-1.4zm.9.1c0 .4.1.7.2.9.2.2.4.3.7.3.4 0 .6-.2.8-.5v-1.7c-.2-.3-.4-.5-.8-.5-.3 0-.5.1-.7.3-.2.4-.2.7-.2 1.2zM179.9 181.1c0-.1-.1-.2-.1-.4-.3.3-.6.4-1 .4s-.7-.1-1-.3c-.3-.2-.4-.5-.4-.8 0-.4.2-.7.5-1s.8-.3 1.3-.3h.5v-.3c0-.2-.1-.4-.2-.5-.1-.1-.3-.2-.5-.2s-.4.1-.5.2c-.1.1-.2.2-.2.4h-.9c0-.2.1-.4.2-.6.1-.2.3-.3.6-.4.2-.1.5-.2.8-.2.5 0 .8.1 1.1.3.3.2.4.6.4 1v1.8c0 .4 0 .6.2.9v.1h-.8zm-1-.6c.2 0 .3 0 .5-.1s.3-.2.3-.3v-.7h-.5c-.3 0-.6.1-.7.2-.2.1-.2.3-.2.5s.1.3.2.4.3 0 .4 0zM182.7 176.2v1h.7v.7h-.7v2.2c0 .2 0 .3.1.3.1.1.2.1.3.1h.3v.7c-.2.1-.4.1-.6.1-.7 0-1-.4-1-1.1V178h-.7v-.7h.7v-1h.9zM188.5 179.7c0-.2-.1-.4-.2-.5s-.4-.3-.7-.4-.5-.2-.7-.3c-.6-.3-.9-.8-.9-1.4 0-.4.1-.7.4-1 .2-.3.6-.4 1-.5v-.8h.6v.8c.4.1.8.2 1 .5.2.3.3.7.3 1.2h-.9c0-.3-.1-.5-.2-.7-.1-.2-.3-.3-.6-.3-.2 0-.4.1-.5.2s-.2.3-.2.5.1.4.2.5c.1.1.4.2.7.4.3.1.6.2.7.3.2.1.3.2.5.3.1.1.2.3.3.4.1.2.1.4.1.6 0 .4-.1.7-.4 1s-.6.4-1.1.5v.7h-.6v-.7c-.5-.1-.9-.2-1.1-.5s-.4-.7-.4-1.2h.9c0 .3.1.5.2.7s.4.3.7.3c.3 0 .5-.1.6-.2.2 0 .3-.2.3-.4zM192.7 178.9c-.3.3-.6.5-1 .5-.5 0-.8-.2-1.1-.5-.3-.3-.4-.8-.4-1.3 0-.4.1-.7.2-1 .1-.3.3-.5.6-.7.3-.2.6-.2.9-.2.5 0 1 .2 1.3.6.3.4.5.9.5 1.6v.2c0 1-.2 1.7-.7 2.2s-1.1.8-1.9.8h-.1v-.7h.1c.5 0 .9-.1 1.2-.4.2-.2.4-.6.4-1.1zm-.9-.2c.2 0 .3-.1.5-.2s.3-.2.4-.4v-.3c0-.4-.1-.7-.2-.9s-.4-.4-.6-.4c-.3 0-.5.1-.6.3-.2.2-.2.5-.2.8 0 .3.1.6.2.8.1.1.3.3.5.3zM195.1 180.2c.2 0 .3 0 .4.1.1.1.1.2.1.4 0 .1 0 .3-.1.3-.1.1-.2.1-.4.1s-.3 0-.4-.1c-.1-.1-.1-.2-.1-.3s0-.3.1-.4c.1-.1.2-.1.4-.1zM199.1 178.9c-.3.3-.6.5-1 .5-.5 0-.8-.2-1.1-.5-.3-.3-.4-.8-.4-1.3 0-.4.1-.7.2-1 .1-.3.3-.5.6-.7.3-.2.6-.2.9-.2.5 0 1 .2 1.3.6.3.4.5.9.5 1.6v.2c0 1-.2 1.7-.7 2.2s-1.1.8-1.9.8h-.1v-.7h.1c.5 0 .9-.1 1.2-.4.2-.2.3-.6.4-1.1zm-.9-.2c.2 0 .3-.1.5-.2s.3-.2.4-.4v-.3c0-.4-.1-.7-.2-.9s-.4-.4-.6-.4c-.3 0-.5.1-.6.3-.2.2-.2.5-.2.8 0 .3.1.6.2.8 0 .1.2.3.5.3zM203.3 178.9c-.3.3-.6.5-1 .5-.5 0-.8-.2-1.1-.5-.3-.3-.4-.8-.4-1.3 0-.4.1-.7.2-1 .1-.3.3-.5.6-.7.3-.2.6-.2.9-.2.5 0 1 .2 1.3.6.3.4.5.9.5 1.6v.2c0 1-.2 1.7-.7 2.2s-1.1.8-1.9.8h-.1v-.7h.1c.5 0 .9-.1 1.2-.4.2-.2.4-.6.4-1.1zm-.8-.2c.2 0 .3-.1.5-.2s.3-.2.4-.4v-.3c0-.4-.1-.7-.2-.9s-.4-.4-.6-.4c-.3 0-.5.1-.6.3-.2.2-.2.5-.2.8 0 .3.1.6.2.8 0 .1.2.3.5.3zM208.1 176.2v1h.7v.7h-.7v2.2c0 .2 0 .3.1.3s.2.1.3.1h.3v.7c-.2.1-.4.1-.6.1-.7 0-1-.4-1-1.1V178h-.7v-.7h.7v-1h.9zM209.2 179.1c0-.4.1-.7.2-1 .2-.3.4-.5.6-.7.3-.2.6-.2 1-.2.5 0 1 .2 1.3.5.3.3.5.8.5 1.4v.2c0 .4-.1.7-.2 1s-.4.5-.6.7c-.3.2-.6.3-1 .3-.6 0-1-.2-1.3-.6-.3-.5-.5-.9-.5-1.6zm.9.1c0 .4.1.7.3 1 .2.2.4.3.7.3.3 0 .5-.1.7-.4s.3-.6.3-1-.1-.7-.3-1c-.2-.2-.4-.4-.7-.4-.3 0-.5.1-.7.3s-.3.7-.3 1.2zM218 179.7c0-.2-.1-.4-.2-.5s-.4-.3-.7-.4-.5-.2-.7-.3c-.6-.3-.9-.8-.9-1.4 0-.4.1-.7.4-1 .2-.3.6-.4 1-.5v-.8h.6v.8c.4.1.8.2 1 .5.2.3.3.7.3 1.2h-.8c0-.3-.1-.5-.2-.7-.1-.2-.3-.3-.6-.3-.2 0-.4.1-.5.2s-.2.3-.2.5.1.4.2.5c.1.1.4.2.7.4.3.1.6.2.7.3.2.1.3.2.5.3.1.1.2.3.3.4.1.2.1.4.1.6 0 .4-.1.7-.4 1s-.6.4-1.1.5v.7h-.6v-.7c-.5-.1-.9-.2-1.1-.5s-.4-.7-.4-1.2h.9c0 .3.1.5.2.7s.4.3.7.3c.3 0 .5-.1.6-.2.2 0 .2-.2.2-.4zM223.3 181.1h-3.6v-.6l1.8-1.9c.3-.3.4-.5.5-.7s.2-.4.2-.6c0-.3-.1-.5-.2-.6-.1-.2-.3-.2-.6-.2s-.5.1-.7.3c-.2.2-.2.4-.2.7h-.9c0-.3.1-.6.2-.9.1-.3.4-.5.6-.6.3-.1.6-.2 1-.2.5 0 .9.1 1.2.4.3.3.4.6.4 1.1 0 .3-.1.5-.2.8-.1.3-.4.6-.7 1l-1.3 1.4h2.5v.6zM227 179.2h.7v.7h-.7v1.2h-.9v-1.2h-2.3v-.5l2.3-3.6h.9v3.4zm-2.3 0h1.4V177l-.1.1-1.3 2.1zM228.8 180.2c.2 0 .3 0 .4.1.1.1.1.2.1.4 0 .1 0 .3-.1.3-.1.1-.2.1-.4.1s-.3 0-.4-.1c-.1-.1-.1-.2-.1-.3s0-.3.1-.4c.2-.1.3-.1.4-.1zM232.9 178.9c-.3.3-.6.5-1 .5-.5 0-.8-.2-1.1-.5-.3-.3-.4-.8-.4-1.3 0-.4.1-.7.2-1 .1-.3.3-.5.6-.7.3-.2.6-.2.9-.2.5 0 1 .2 1.3.6.3.4.5.9.5 1.6v.2c0 1-.2 1.7-.7 2.2s-1.1.8-1.9.8h-.3v-.7h.1c.5 0 .9-.1 1.2-.4.4-.2.5-.6.6-1.1zm-.9-.2c.2 0 .3-.1.5-.2s.3-.2.4-.4v-.3c0-.4-.1-.7-.2-.9s-.4-.4-.6-.4c-.3 0-.5.1-.6.3-.2.2-.2.5-.2.8 0 .3.1.6.2.8 0 .1.2.3.5.3zM237.1 178.9c-.3.3-.6.5-1 .5-.5 0-.8-.2-1.1-.5-.3-.3-.4-.8-.4-1.3 0-.4.1-.7.2-1 .1-.3.3-.5.6-.7.3-.2.6-.2.9-.2.5 0 1 .2 1.3.6.3.4.5.9.5 1.6v.2c0 1-.2 1.7-.7 2.2s-1.1.8-1.9.8h-.1v-.7h.1c.5 0 .9-.1 1.2-.4.2-.2.4-.6.4-1.1zm-.8-.2c.2 0 .3-.1.5-.2s.3-.2.4-.4v-.3c0-.4-.1-.7-.2-.9s-.4-.4-.6-.4c-.3 0-.5.1-.6.3-.2.2-.2.5-.2.8 0 .3.1.6.2.8 0 .1.2.3.5.3zM239.2 181.6h-.7l2.1-5.8h.7l-2.1 5.8zM242.7 177.1v.4c.3-.3.7-.5 1.1-.5.5 0 .9.2 1.1.6.3-.4.7-.6 1.2-.6.4 0 .8.1 1 .4.2.2.3.6.3 1.1v2.6h-.9v-2.6c0-.3-.1-.4-.2-.6-.1-.1-.3-.2-.5-.2s-.4.1-.5.2c-.1.1-.2.3-.3.4v2.7h-.9v-2.6c0-.5-.3-.7-.7-.7-.4 0-.6.1-.8.4v2.9h-.9v-4h1zM248.2 179.1c0-.4.1-.7.2-1 .2-.3.4-.5.6-.7.3-.2.6-.2 1-.2.5 0 1 .2 1.3.5.3.3.5.8.5 1.4v.2c0 .4-.1.7-.2 1s-.4.5-.6.7c-.3.2-.6.3-1 .3-.6 0-1-.2-1.3-.6s-.5-.9-.5-1.6zm.9.1c0 .4.1.7.3 1 .2.2.4.3.7.3.3 0 .5-.1.7-.4.2-.2.3-.6.3-1s-.1-.7-.3-1-.4-.4-.7-.4c-.3 0-.5.1-.7.3s-.3.7-.3 1.2zM253.5 177.1v.5c.3-.4.7-.5 1.2-.5.8 0 1.2.5 1.3 1.4v2.6h-.9v-2.6c0-.3-.1-.4-.2-.6-.1-.1-.3-.2-.5-.2-.4 0-.6.2-.8.5v2.8h-.9v-4h.8zM258 176.2v1h.7v.7h-.7v2.2c0 .2 0 .3.1.3.1.1.2.1.3.1h.3v.7c-.2.1-.4.1-.6.1-.7 0-1-.4-1-1.1V178h-.7v-.7h.7v-1h.9zM260.2 177.6c.3-.3.7-.5 1.1-.5.8 0 1.3.5 1.3 1.4v2.6h-.9v-2.6c0-.3-.1-.5-.2-.6s-.3-.2-.5-.2c-.4 0-.6.2-.8.5v2.8h-.9v-5.6h.9v2.2zM264.1 180.2c.2 0 .3 0 .4.1.1.1.1.2.1.4 0 .1 0 .3-.1.3-.1.1-.2.1-.4.1s-.3 0-.4-.1c-.1-.1-.1-.2-.1-.3s0-.3.1-.4c.1-.1.2-.1.4-.1z"/></svg>