<svg id="Layer_1" xmlns="http://www.w3.org/2000/svg" viewBox="0 0 728 90"><style>.st0{fill:#edf4fd}.st1{fill:#fff}</style><path class="st0" d="M234.7 32.5h-3.2V16.9h3.2v15.6zM240.4 20.9l.1 1.3c.8-1 1.9-1.6 3.3-1.6 1.2 0 2.1.4 2.8 1.1s.9 1.8.9 3.2v7.5h-3.1V25c0-.7-.1-1.1-.4-1.4-.3-.3-.8-.4-1.4-.4-.9 0-1.5.4-2 1.1v8.2h-3.1V20.9h2.9zM265.9 32.5h-10.7v-2.1l5.1-5.4c.7-.8 1.2-1.4 1.5-2s.5-1.1.5-1.6c0-.7-.2-1.2-.5-1.6-.4-.4-.9-.6-1.5-.6-.7 0-1.3.2-1.7.7-.4.5-.6 1.1-.6 1.9h-3.1c0-1 .2-1.8.7-2.6.5-.8 1.1-1.4 1.9-1.9.8-.4 1.8-.7 2.8-.7 1.6 0 2.9.4 3.8 1.2s1.3 1.9 1.3 3.3c0 .8-.2 1.6-.6 2.4-.4.8-1.1 1.7-2.1 2.8l-3.6 3.7h6.7v2.5zM278.3 26.1c0 2.2-.4 3.8-1.3 5-.9 1.1-2.2 1.7-3.9 1.7-1.7 0-3-.6-3.9-1.7s-1.4-2.7-1.4-4.8v-2.9c0-2.2.5-3.8 1.4-5 .9-1.1 2.2-1.7 3.9-1.7 1.7 0 3 .6 3.9 1.7.9 1.1 1.4 2.7 1.4 4.8v2.9zm-3.1-3.2c0-1.3-.2-2.2-.5-2.8-.4-.6-.9-.9-1.7-.9-.7 0-1.3.3-1.6.8-.3.6-.5 1.4-.6 2.6v3.8c0 1.3.2 2.2.5 2.8.3.6.9.9 1.7.9.8 0 1.3-.3 1.6-.9.3-.6.5-1.5.5-2.7v-3.6zM291.2 32.5h-10.7v-2.1l5.1-5.4c.7-.8 1.2-1.4 1.5-2s.5-1.1.5-1.6c0-.7-.2-1.2-.5-1.6-.4-.4-.9-.6-1.5-.6-.7 0-1.3.2-1.7.7-.4.5-.6 1.1-.6 1.9h-3.1c0-1 .2-1.8.7-2.6.5-.8 1.1-1.4 1.9-1.9.8-.4 1.8-.7 2.8-.7 1.6 0 2.9.4 3.8 1.2.9.8 1.3 1.9 1.3 3.3 0 .8-.2 1.6-.6 2.4s-1.1 1.7-2.1 2.8l-3.6 3.7h6.7v2.5zM300.6 32.5h-3.1v-12l-3.7 1.1v-2.5l6.5-2.3h.3v15.7zM306.6 36.4l-1.6-.8.4-.7c.5-.9.7-1.7.7-2.6v-2.4h2.6V32c0 .8-.2 1.6-.6 2.4s-.9 1.5-1.5 2zM320.4 18v2.9h2v2.3h-2V29c0 .4.1.7.2.9s.5.3.9.3c.3 0 .6 0 .9-.1v2.4c-.6.2-1.2.3-1.9.3-2.2 0-3.3-1.1-3.3-3.3v-6.3h-1.7v-2.3h1.7V18h3.2zM327.1 22.2c.8-1 1.9-1.5 3.1-1.5 2.5 0 3.8 1.5 3.8 4.4v7.4h-3v-7.4c0-.7-.1-1.2-.4-1.5-.3-.3-.8-.5-1.4-.5-.9 0-1.6.4-2 1.1v8.3H324V16h3.1v6.2zM341.8 32.7c-1.7 0-3.1-.5-4.2-1.6-1.1-1-1.6-2.4-1.6-4.2v-.3c0-1.2.2-2.2.7-3.1.5-.9 1.1-1.6 1.9-2.1.8-.5 1.8-.7 2.8-.7 1.6 0 2.8.5 3.8 1.5.9 1 1.4 2.4 1.4 4.3v1.3h-7.4c.1.8.4 1.4.9 1.8.5.5 1.1.7 1.9.7 1.2 0 2.1-.4 2.8-1.3l1.5 1.7c-.5.7-1.1 1.2-1.9 1.5-.8.3-1.7.5-2.6.5zm-.4-9.5c-.6 0-1.1.2-1.5.6-.4.4-.6 1-.7 1.8h4.3v-.2c0-.7-.2-1.2-.6-1.6s-.8-.6-1.5-.6zM363.4 26.1h-6.2v6.4H354V16.9h10.2v2.6h-7v4h6.2v2.6zM378 19.5h-4.8v13H370v-13h-4.7v-2.6H378v2.6zM392.1 27.3c-.1 1.7-.7 3-1.9 4-1.1 1-2.6 1.5-4.4 1.5-2 0-3.6-.7-4.7-2-1.2-1.3-1.7-3.2-1.7-5.6v-1c0-1.5.3-2.8.8-4s1.3-2 2.3-2.6c1-.6 2.1-.9 3.4-.9 1.8 0 3.3.5 4.4 1.5s1.7 2.3 1.9 4.1H389c-.1-1-.4-1.7-.8-2.2-.5-.5-1.2-.7-2.2-.7-1.1 0-1.9.4-2.4 1.2-.5.8-.8 2-.8 3.6v1.2c0 1.7.3 2.9.8 3.7.5.8 1.3 1.2 2.4 1.2 1 0 1.7-.2 2.2-.7.5-.5.8-1.2.8-2.1h3.1zM406.1 23.8c-.4-.1-.8-.1-1.1-.1-1.2 0-1.9.4-2.3 1.2v7.6h-3.1V20.9h2.9l.1 1.4c.6-1.1 1.5-1.6 2.6-1.6.3 0 .7 0 1 .1l-.1 3zM412.9 32.7c-1.7 0-3.1-.5-4.2-1.6-1.1-1-1.6-2.4-1.6-4.2v-.3c0-1.2.2-2.2.7-3.1.5-.9 1.1-1.6 1.9-2.1.8-.5 1.8-.7 2.8-.7 1.6 0 2.8.5 3.8 1.5.9 1 1.4 2.4 1.4 4.3v1.3h-7.4c.1.8.4 1.4.9 1.8.5.5 1.1.7 1.9.7 1.2 0 2.1-.4 2.8-1.3l1.5 1.7c-.5.7-1.1 1.2-1.9 1.5-.8.3-1.6.5-2.6.5zm-.4-9.5c-.6 0-1.1.2-1.5.6-.4.4-.6 1-.7 1.8h4.3v-.2c0-.7-.2-1.2-.6-1.6s-.8-.6-1.5-.6zM424.3 30.2c.6 0 1-.2 1.4-.5s.5-.7.6-1.3h2.9c0 .8-.2 1.5-.6 2.2-.4.7-1 1.2-1.7 1.5-.7.4-1.5.5-2.4.5-1.7 0-3-.5-3.9-1.6-1-1.1-1.4-2.5-1.4-4.4v-.2c0-1.8.5-3.2 1.4-4.3s2.3-1.6 3.9-1.6c1.5 0 2.6.4 3.5 1.2.9.8 1.3 1.9 1.3 3.3h-2.9c0-.6-.2-1.1-.6-1.5s-.8-.6-1.4-.6c-.7 0-1.3.3-1.6.8-.4.5-.6 1.4-.6 2.6v.3c0 1.2.2 2.1.5 2.6s.8 1 1.6 1zM436.3 32.7c-1.7 0-3.1-.5-4.2-1.6-1.1-1-1.6-2.4-1.6-4.2v-.3c0-1.2.2-2.2.7-3.1.5-.9 1.1-1.6 1.9-2.1.8-.5 1.8-.7 2.8-.7 1.6 0 2.8.5 3.8 1.5.9 1 1.4 2.4 1.4 4.3v1.3h-7.4c.1.8.4 1.4.9 1.8.5.5 1.1.7 1.9.7 1.2 0 2.1-.4 2.8-1.3l1.5 1.7c-.5.7-1.1 1.2-1.9 1.5-.8.3-1.7.5-2.6.5zm-.4-9.5c-.6 0-1.1.2-1.5.6-.4.4-.6 1-.7 1.8h4.3v-.2c0-.7-.2-1.2-.6-1.6s-.8-.6-1.5-.6zM442.8 17.9c0-.5.2-.8.5-1.1.3-.3.7-.5 1.3-.5.5 0 1 .2 1.3.5s.5.7.5 1.1c0 .5-.2.9-.5 1.2-.3.3-.7.5-1.3.5s-.9-.2-1.3-.5c-.4-.4-.5-.7-.5-1.2zm3.3 14.6H443V20.9h3.1v11.6zM453 28.7l2.2-7.8h3.2l-3.9 11.6h-3l-3.9-11.6h3.2l2.2 7.8zM465.1 32.7c-1.7 0-3.1-.5-4.2-1.6-1.1-1-1.6-2.4-1.6-4.2v-.3c0-1.2.2-2.2.7-3.1.5-.9 1.1-1.6 1.9-2.1.8-.5 1.8-.7 2.8-.7 1.6 0 2.8.5 3.8 1.5.9 1 1.4 2.4 1.4 4.3v1.3h-7.4c.1.8.4 1.4.9 1.8.5.5 1.1.7 1.9.7 1.2 0 2.1-.4 2.8-1.3l1.5 1.7c-.5.7-1.1 1.2-1.9 1.5-.7.3-1.6.5-2.6.5zm-.3-9.5c-.6 0-1.1.2-1.5.6-.4.4-.6 1-.7 1.8h4.3v-.2c0-.7-.2-1.2-.6-1.6s-.9-.6-1.5-.6zM471.2 26.6c0-1.8.4-3.3 1.2-4.3.8-1.1 1.9-1.6 3.3-1.6 1.1 0 2.1.4 2.8 1.3v-6h3.1v16.5h-2.8l-.2-1.2c-.8 1-1.8 1.5-3 1.5-1.4 0-2.5-.5-3.3-1.6-.7-1.2-1.1-2.7-1.1-4.6zm3.1.3c0 1.1.2 1.9.6 2.5s.9.9 1.7.9c1 0 1.6-.4 2-1.2v-4.6c-.4-.8-1.1-1.2-2-1.2-1.6-.1-2.3 1.1-2.3 3.6zM492.4 20.9l.1 1.3c.8-1 1.9-1.6 3.3-1.6 1.2 0 2.1.4 2.8 1.1s.9 1.8.9 3.2v7.5h-3.1V25c0-.7-.1-1.1-.4-1.4-.3-.3-.8-.4-1.4-.4-.9 0-1.5.4-2 1.1v8.2h-3.1V20.9h2.9zM507.2 32.7c-1.7 0-3.1-.5-4.2-1.6-1.1-1-1.6-2.4-1.6-4.2v-.3c0-1.2.2-2.2.7-3.1.5-.9 1.1-1.6 1.9-2.1.8-.5 1.8-.7 2.8-.7 1.6 0 2.8.5 3.8 1.5.9 1 1.4 2.4 1.4 4.3v1.3h-7.4c.1.8.4 1.4.9 1.8.5.5 1.1.7 1.9.7 1.2 0 2.1-.4 2.8-1.3l1.5 1.7c-.5.7-1.1 1.2-1.9 1.5-.8.3-1.6.5-2.6.5zm-.4-9.5c-.6 0-1.1.2-1.5.6-.4.4-.6 1-.7 1.8h4.3v-.2c0-.7-.2-1.2-.6-1.6s-.8-.6-1.5-.6zM520.5 32.5c-.1-.3-.2-.6-.3-1-.8.8-1.7 1.3-2.9 1.3-1.1 0-2.1-.3-2.8-1-.7-.7-1.1-1.5-1.1-2.5 0-1.2.5-2.2 1.4-2.8.9-.7 2.2-1 4-1h1.4v-.7c0-.5-.1-1-.4-1.3-.3-.3-.7-.5-1.3-.5-.5 0-.9.1-1.2.4-.3.3-.4.6-.4 1h-3.1c0-.7.2-1.3.6-1.9s1-1 1.8-1.3c.8-.3 1.6-.5 2.6-.5 1.4 0 2.6.4 3.4 1.1.8.7 1.3 1.7 1.3 3v5c0 1.1.2 1.9.5 2.5v.2h-3.5zm-2.6-2.1c.5 0 .9-.1 1.3-.3.4-.2.7-.5.9-.8v-2h-1.2c-1.6 0-2.4.5-2.5 1.6v.2c0 .4.1.7.4 1s.6.3 1.1.3zM532.1 23.8c-.4-.1-.8-.1-1.1-.1-1.2 0-1.9.4-2.3 1.2v7.6h-3.1V20.9h2.9l.1 1.4c.6-1.1 1.5-1.6 2.6-1.6.3 0 .7 0 1 .1l-.1 3zM536.8 32.5h-3.1V16h3.1v16.5zM543.7 28.1l2.1-7.2h3.3l-4.7 13.4-.3.6c-.7 1.5-1.8 2.3-3.4 2.3-.5 0-.9-.1-1.4-.2v-2.4h.5c.6 0 1-.1 1.3-.3.3-.2.5-.5.7-.9l.4-1-4.1-11.7h3.3l2.3 7.4zM238.5 56.5h-3.1v-12l-3.7 1.1v-2.5l6.5-2.3h.3v15.7zM243.9 55c0-.5.2-.9.5-1.2s.8-.5 1.3-.5.9.2 1.3.5.5.7.5 1.2-.2.9-.5 1.2c-.3.3-.8.5-1.3.5s-.9-.2-1.3-.5c-.3-.3-.5-.7-.5-1.2zM259.2 50.6h1.8v2.5h-1.8v3.4h-3.1v-3.4h-6.4l-.1-2 6.5-10.3h3.1v9.8zm-6.6 0h3.5v-5.5l-.2.4-3.3 5.1zM271.1 44.9l.1 1.3c.8-1 1.9-1.5 3.3-1.5 1.5 0 2.5.6 3.1 1.8.8-1.2 2-1.8 3.5-1.8 1.3 0 2.2.4 2.8 1.1.6.7.9 1.8.9 3.3v7.4h-3.1v-7.4c0-.7-.1-1.1-.4-1.4-.3-.3-.7-.5-1.4-.5-.9 0-1.6.4-1.9 1.3v8h-3v-7.4c0-.7-.1-1.2-.4-1.5-.3-.3-.7-.5-1.4-.5-.9 0-1.5.4-1.9 1.1v8.2h-3.1V44.9h2.9zM287.2 41.9c0-.5.2-.8.5-1.1s.7-.5 1.3-.5c.5 0 1 .2 1.3.5s.5.7.5 1.1c0 .5-.2.9-.5 1.2-.3.3-.7.5-1.3.5s-.9-.2-1.3-.5c-.3-.4-.5-.7-.5-1.2zm3.3 14.6h-3.1V44.9h3.1v11.6zM296.4 56.5h-3.1V40h3.1v16.5zM302.2 56.5h-3.1V40h3.1v16.5zM304.7 41.9c0-.5.2-.8.5-1.1.3-.3.7-.5 1.3-.5.5 0 1 .2 1.3.5s.5.7.5 1.1c0 .5-.2.9-.5 1.2-.3.3-.7.5-1.3.5s-.9-.2-1.3-.5c-.3-.4-.5-.7-.5-1.2zm3.3 14.6h-3.1V44.9h3.1v11.6zM310.1 50.6c0-1.2.2-2.2.7-3.1s1.1-1.6 1.9-2.1c.8-.5 1.8-.7 2.9-.7 1.6 0 2.8.5 3.8 1.4 1 1 1.5 2.3 1.7 3.9v.8c0 1.8-.5 3.2-1.5 4.3-1 1.1-2.3 1.6-4 1.6s-3-.5-4-1.6-1.5-2.5-1.5-4.4v-.1zm3.1.2c0 1.1.2 1.9.6 2.5.4.6 1 .9 1.8.9s1.3-.3 1.8-.9.6-1.5.6-2.8c0-1.1-.2-1.9-.6-2.5-.4-.6-1-.9-1.8-.9s-1.3.3-1.8.9-.6 1.6-.6 2.8zM325.9 44.9l.1 1.3c.8-1 1.9-1.6 3.3-1.6 1.2 0 2.1.4 2.8 1.1.6.7.9 1.8.9 3.2v7.5h-3.1V49c0-.7-.1-1.1-.4-1.4-.3-.3-.8-.4-1.4-.4-.9 0-1.5.4-2 1.1v8.2H323V44.9h2.9zM347.4 47.8c-.4-.1-.8-.1-1.1-.1-1.2 0-1.9.4-2.3 1.2v7.6h-3.1V44.9h2.9l.1 1.4c.6-1.1 1.5-1.6 2.6-1.6.3 0 .7 0 1 .1l-.1 3zM354.2 56.7c-1.7 0-3.1-.5-4.2-1.6-1.1-1-1.6-2.4-1.6-4.2v-.3c0-1.2.2-2.2.7-3.1.5-.9 1.1-1.6 1.9-2.1.8-.5 1.8-.7 2.8-.7 1.6 0 2.8.5 3.8 1.5.9 1 1.4 2.4 1.4 4.3v1.3h-7.4c.1.8.4 1.4.9 1.8.5.5 1.1.7 1.9.7 1.2 0 2.1-.4 2.8-1.3l1.5 1.7c-.5.7-1.1 1.2-1.9 1.5-.7.3-1.6.5-2.6.5zm-.3-9.5c-.6 0-1.1.2-1.5.6-.4.4-.6 1-.7 1.8h4.3v-.2c0-.7-.2-1.2-.6-1.6s-.9-.6-1.5-.6zM371.2 50.8c0 1.8-.4 3.2-1.2 4.3-.8 1.1-1.9 1.6-3.3 1.6-1.2 0-2.1-.4-2.8-1.2V61h-3.1V44.9h2.9l.1 1.1c.8-.9 1.7-1.4 2.9-1.4 1.4 0 2.5.5 3.3 1.6.8 1.1 1.2 2.5 1.2 4.4v.2zm-3.1-.2c0-1.1-.2-1.9-.6-2.5-.4-.6-.9-.9-1.7-.9-1 0-1.6.4-2 1.1v4.8c.4.8 1.1 1.1 2 1.1 1.6 0 2.3-1.2 2.3-3.6zM372.7 50.6c0-1.2.2-2.2.7-3.1s1.1-1.6 1.9-2.1c.8-.5 1.8-.7 2.9-.7 1.6 0 2.8.5 3.8 1.4 1 1 1.5 2.3 1.7 3.9v.8c0 1.8-.5 3.2-1.5 4.3-1 1.1-2.3 1.6-4 1.6s-3-.5-4-1.6-1.5-2.5-1.5-4.4v-.1zm3.1.2c0 1.1.2 1.9.6 2.5.4.6 1 .9 1.8.9s1.3-.3 1.8-.9.6-1.5.6-2.8c0-1.1-.2-1.9-.6-2.5-.4-.6-1-.9-1.8-.9s-1.3.3-1.8.9-.6 1.6-.6 2.8zM392.1 47.8c-.4-.1-.8-.1-1.1-.1-1.2 0-1.9.4-2.3 1.2v7.6h-3.1V44.9h2.9l.1 1.4c.6-1.1 1.5-1.6 2.6-1.6.3 0 .7 0 1 .1l-.1 3zM397.9 42v2.9h2v2.3h-2V53c0 .4.1.7.2.9s.5.3.9.3c.3 0 .6 0 .9-.1v2.4c-.6.2-1.2.3-1.9.3-2.2 0-3.3-1.1-3.3-3.3v-6.3H393v-2.3h1.7V42h3.2zM407.9 53.3c0-.4-.2-.7-.6-.9-.4-.2-1-.4-1.8-.6-2.8-.6-4.1-1.8-4.1-3.5 0-1 .4-1.9 1.3-2.6.9-.7 2-1 3.4-1 1.5 0 2.7.3 3.5 1 .9.7 1.3 1.6 1.3 2.7h-3.1c0-.4-.1-.8-.4-1.1-.3-.3-.7-.4-1.3-.4-.5 0-.9.1-1.2.4s-.4.5-.4.9c0 .3.2.6.5.8.3.2.9.4 1.6.5.8.2 1.4.3 2 .5 1.6.6 2.5 1.6 2.5 3.1 0 1.1-.5 1.9-1.4 2.6-.9.7-2.1 1-3.5 1-1 0-1.8-.2-2.6-.5s-1.3-.8-1.8-1.4c-.4-.6-.6-1.3-.6-2h2.9c0 .6.2 1 .6 1.3s.9.4 1.5.4 1-.1 1.3-.3c.2-.2.4-.5.4-.9zM417.9 50.6c0-1.2.2-2.2.7-3.1s1.1-1.6 1.9-2.1c.8-.5 1.8-.7 2.9-.7 1.6 0 2.8.5 3.8 1.4 1 1 1.5 2.3 1.7 3.9v.8c0 1.8-.5 3.2-1.5 4.3-1 1.1-2.3 1.6-4 1.6s-3-.5-4-1.6-1.5-2.5-1.5-4.4v-.1zm3.1.2c0 1.1.2 1.9.6 2.5.4.6 1 .9 1.8.9s1.3-.3 1.8-.9.6-1.5.6-2.8c0-1.1-.2-1.9-.6-2.5-.4-.6-1-.9-1.8-.9s-1.3.3-1.8.9-.6 1.6-.6 2.8zM431.7 56.5v-9.3H430v-2.3h1.7v-1c0-1.3.4-2.3 1.1-3 .7-.7 1.8-1.1 3.1-1.1.4 0 1 .1 1.6.2v2.4c-.3-.1-.6-.1-.9-.1-1.2 0-1.8.5-1.8 1.6v.9h2.3v2.3h-2.3v9.3h-3.1zM444.1 41.9c0-.5.2-.8.5-1.1.3-.3.7-.5 1.3-.5.5 0 1 .2 1.3.5s.5.7.5 1.1c0 .5-.2.9-.5 1.2-.3.3-.7.5-1.3.5s-.9-.2-1.3-.5c-.3-.4-.5-.7-.5-1.2zm3.3 14.6h-3.1V44.9h3.1v11.6zM449.5 50.6c0-1.8.4-3.3 1.2-4.3.8-1.1 1.9-1.6 3.3-1.6 1.1 0 2.1.4 2.8 1.3v-6h3.1v16.5h-2.8l-.2-1.2c-.8 1-1.8 1.5-3 1.5-1.4 0-2.5-.5-3.3-1.6-.7-1.2-1.1-2.7-1.1-4.6zm3.1.3c0 1.1.2 1.9.6 2.5s.9.9 1.7.9c1 0 1.6-.4 2-1.2v-4.6c-.4-.8-1.1-1.2-2-1.2-1.5-.1-2.3 1.1-2.3 3.6zM467.8 56.7c-1.7 0-3.1-.5-4.2-1.6-1.1-1-1.6-2.4-1.6-4.2v-.3c0-1.2.2-2.2.7-3.1.5-.9 1.1-1.6 1.9-2.1.8-.5 1.8-.7 2.8-.7 1.6 0 2.8.5 3.8 1.5.9 1 1.4 2.4 1.4 4.3v1.3h-7.4c.1.8.4 1.4.9 1.8.5.5 1.1.7 1.9.7 1.2 0 2.1-.4 2.8-1.3l1.5 1.7c-.5.7-1.1 1.2-1.9 1.5-.8.3-1.7.5-2.6.5zm-.4-9.5c-.6 0-1.1.2-1.5.6-.4.4-.6 1-.7 1.8h4.3v-.2c0-.7-.2-1.2-.6-1.6s-.8-.6-1.5-.6zM477.1 44.9l.1 1.3c.8-1 1.9-1.6 3.3-1.6 1.2 0 2.1.4 2.8 1.1.6.7.9 1.8.9 3.2v7.5h-3.1V49c0-.7-.1-1.1-.4-1.4-.3-.3-.8-.4-1.4-.4-.9 0-1.5.4-2 1.1v8.2h-3.1V44.9h2.9zM490.3 42v2.9h2v2.3h-2V53c0 .4.1.7.2.9s.5.3.9.3c.3 0 .6 0 .9-.1v2.4c-.6.2-1.2.3-1.9.3-2.2 0-3.3-1.1-3.3-3.3v-6.3h-1.7v-2.3h1.7V42h3.2zM494 41.9c0-.5.2-.8.5-1.1.3-.3.7-.5 1.3-.5.5 0 1 .2 1.3.5s.5.7.5 1.1c0 .5-.2.9-.5 1.2-.3.3-.7.5-1.3.5s-.9-.2-1.3-.5c-.3-.4-.5-.7-.5-1.2zm3.3 14.6h-3.1V44.9h3.1v11.6zM503.6 42v2.9h2v2.3h-2V53c0 .4.1.7.2.9s.5.3.9.3c.3 0 .6 0 .9-.1v2.4c-.6.2-1.2.3-1.9.3-2.2 0-3.3-1.1-3.3-3.3v-6.3h-1.7v-2.3h1.7V42h3.2zM511.7 52.1l2.1-7.2h3.3l-4.7 13.4-.3.6c-.7 1.5-1.8 2.3-3.4 2.3-.5 0-.9-.1-1.4-.2v-2.4h.5c.6 0 1-.1 1.3-.3.3-.2.5-.5.7-.9l.4-1-4.1-11.7h3.3l2.3 7.4zM527.6 42v2.9h2v2.3h-2V53c0 .4.1.7.2.9s.5.3.9.3c.3 0 .6 0 .9-.1v2.4c-.6.2-1.2.3-1.9.3-2.2 0-3.3-1.1-3.3-3.3v-6.3h-1.7v-2.3h1.7V42h3.2zM534.3 46.2c.8-1 1.9-1.5 3.1-1.5 2.5 0 3.8 1.5 3.8 4.4v7.4h-3.1v-7.4c0-.7-.1-1.2-.4-1.5-.3-.3-.8-.5-1.4-.5-.9 0-1.6.4-2 1.1v8.3h-3.1V40h3.1v6.2zM548.9 56.7c-1.7 0-3.1-.5-4.2-1.6-1.1-1-1.6-2.4-1.6-4.2v-.3c0-1.2.2-2.2.7-3.1.5-.9 1.1-1.6 1.9-2.1.8-.5 1.8-.7 2.8-.7 1.6 0 2.8.5 3.8 1.5.9 1 1.4 2.4 1.4 4.3v1.3h-7.4c.1.8.4 1.4.9 1.8.5.5 1.1.7 1.9.7 1.2 0 2.1-.4 2.8-1.3l1.5 1.7c-.5.7-1.1 1.2-1.9 1.5-.7.3-1.6.5-2.6.5zm-.3-9.5c-.6 0-1.1.2-1.5.6-.4.4-.6 1-.7 1.8h4.3v-.2c0-.7-.2-1.2-.6-1.6s-.9-.6-1.5-.6zM556.3 56.5v-9.3h-1.7v-2.3h1.7v-1c0-1.3.4-2.3 1.1-3 .7-.7 1.8-1.1 3.1-1.1.4 0 1 .1 1.6.2v2.4c-.3-.1-.6-.1-.9-.1-1.2 0-1.8.5-1.8 1.6v.9h2.3v2.3h-2.3v9.3h-3.1zM567.1 42v2.9h2v2.3h-2V53c0 .4.1.7.2.9s.5.3.9.3c.3 0 .6 0 .9-.1v2.4c-.6.2-1.2.3-1.9.3-2.2 0-3.3-1.1-3.3-3.3v-6.3h-1.7v-2.3h1.7V42h3.2zM571 55c0-.5.2-.9.5-1.2.3-.3.8-.5 1.3-.5s.9.2 1.3.5c.3.3.5.7.5 1.2s-.2.9-.5 1.2c-.3.3-.8.5-1.3.5s-.9-.2-1.3-.5-.5-.7-.5-1.2z"/><g><path class="st1" d="M233 70.2c0-.2-.1-.4-.2-.5l-.8-.4c-.4-.1-.7-.3-1-.4-.5-.3-.7-.7-.7-1.1 0-.4.2-.7.5-1s.8-.4 1.3-.4c.3 0 .7.1.9.2.3.1.5.3.6.5.2.2.2.5.2.8h-.8c0-.3-.1-.5-.2-.6-.2-.1-.4-.2-.7-.2-.3 0-.5.1-.7.2-.2.1-.2.3-.2.5s.1.3.3.5l.8.4c.4.1.7.2.9.4.2.1.4.3.5.5s.2.4.2.7c0 .4-.2.7-.5 1-.3.2-.7.4-1.3.4-.4 0-.7-.1-1-.2-.3-.1-.5-.3-.7-.6-.2-.2-.3-.5-.3-.8h.9c0 .3.1.5.3.7.2.2.5.2.8.2.3 0 .5-.1.7-.2.1-.2.2-.4.2-.6zM234.4 69.6c0-.4.1-.7.2-1 .1-.3.3-.5.6-.7.3-.2.6-.2.9-.2.5 0 .9.2 1.2.5.3.3.5.7.5 1.3v.2c0 .4-.1.7-.2 1-.1.3-.3.5-.6.7s-.6.2-.9.2c-.5 0-.9-.2-1.3-.5s-.4-.9-.4-1.5zm.8.1c0 .4.1.7.2.9.2.2.4.3.7.3.3 0 .5-.1.7-.3s.2-.5.2-1c0-.4-.1-.7-.2-.9-.2-.2-.4-.3-.7-.3-.3 0-.5.1-.6.3-.2.2-.3.5-.3 1zM240.8 71.1c-.2.3-.6.4-1 .4s-.7-.1-.9-.4c-.2-.2-.3-.6-.3-1v-2.4h.8v2.4c0 .5.2.7.6.7.4 0 .7-.1.8-.4v-2.7h.8v3.7h-.8v-.3zM244.4 68.5h-.3c-.4 0-.6.1-.8.4v2.5h-.8v-3.7h.8v.4c.2-.3.5-.5.8-.5h.3v.9zM246.4 70.9c.2 0 .4-.1.5-.2.1-.1.2-.3.2-.4h.8c0 .2-.1.4-.2.6-.1.2-.3.4-.5.5s-.5.2-.7.2c-.5 0-.9-.2-1.2-.5s-.5-.8-.5-1.4v-.1c0-.6.2-1 .5-1.4.3-.3.7-.5 1.2-.5.4 0 .8.1 1.1.4.3.3.4.6.4 1h-.8c0-.2-.1-.4-.2-.5s-.3-.2-.5-.2c-.3 0-.5.1-.6.3-.1.2-.2.5-.2.9v.1c0 .4.1.7.2.9s.2.3.5.3zM250.1 71.6c-.5 0-1-.2-1.3-.5-.3-.3-.5-.8-.5-1.3v-.1c0-.4.1-.7.2-1 .1-.3.3-.5.6-.7.3-.2.5-.2.9-.2.5 0 .9.2 1.2.5s.4.8.4 1.4v.3h-2.4c0 .3.1.5.3.7s.4.3.7.3c.4 0 .7-.2.9-.5l.4.4c-.1.2-.3.4-.6.5-.2.1-.5.2-.8.2zm-.1-3.2c-.2 0-.4.1-.6.2-.1.2-.2.4-.3.7h1.6v-.1c0-.3-.1-.5-.2-.6s-.2-.2-.5-.2zM252.8 67.7c.2 0 .3 0 .4.1s.1.2.1.3c0 .1 0 .2-.1.3-.1.1-.2.1-.4.1-.1 0-.3 0-.4-.1-.1-.1-.1-.2-.1-.3 0-.1 0-.2.1-.3.1 0 .2-.1.4-.1zm0 2.9c.2 0 .3 0 .4.1.1.1.1.2.1.3 0 .1 0 .2-.1.3-.1.1-.2.1-.4.1-.1 0-.3 0-.4-.1-.1-.1-.1-.2-.1-.3 0-.1 0-.2.1-.3.1 0 .2-.1.4-.1zM256.3 68.4c.1-.2.3-.4.5-.5.2-.1.4-.2.7-.2.4 0 .7.1.9.3.2.2.3.6.3 1v2.4h-.4V69c0-.3-.1-.6-.2-.7-.1-.2-.4-.2-.7-.2-.3 0-.5.1-.7.2-.2.2-.3.4-.4.6v2.5h-.4v-5.2h.4v2.2zM260.4 66.8v.9h.8v.3h-.8v2.5c0 .2 0 .4.1.5.1.1.2.2.4.2h.3v.3c-.1 0-.3.1-.4.1-.3 0-.5-.1-.6-.2-.1-.2-.2-.4-.2-.7v-2.5h-.7v-.3h.7V67h.4zM262.7 66.8v.9h.8v.3h-.8v2.5c0 .2 0 .4.1.5.1.1.2.2.4.2h.3v.3c-.1 0-.3.1-.4.1-.3 0-.5-.1-.6-.2-.1-.2-.2-.4-.2-.7v-2.5h-.7v-.3h.7V67h.4zM267.2 69.7c0 .6-.1 1-.4 1.4-.3.3-.6.5-1 .5-.5 0-.9-.2-1.2-.5V73h-.4v-5.1h.4v.5c.3-.4.7-.6 1.2-.6.4 0 .8.2 1 .5s.4.7.4 1.4zm-.4-.1c0-.5-.1-.8-.3-1.1-.2-.3-.5-.4-.8-.4-.3 0-.5.1-.6.2-.2.1-.3.3-.4.5v1.8c.1.2.2.4.4.5.2.1.4.2.6.2.3 0 .6-.1.8-.4.2-.4.3-.8.3-1.3zM270.4 70.5c0-.2-.1-.4-.2-.5s-.4-.2-.7-.3-.6-.1-.8-.2c-.2-.1-.3-.2-.4-.3s-.1-.3-.1-.5c0-.3.1-.5.4-.7s.6-.3.9-.3c.4 0 .7.1 1 .3.2.2.4.5.4.8h-.4c0-.2-.1-.4-.3-.5-.2-.1-.4-.2-.7-.2-.3 0-.5.1-.6.2-.2.1-.2.3-.2.5s.1.3.2.4c.1.1.4.2.7.3.4.1.6.2.8.3s.3.2.4.3c.1.1.1.3.1.5 0 .3-.1.6-.4.7-.3.2-.6.3-1 .3s-.8-.1-1-.3c-.3-.2-.4-.5-.4-.8h.4c0 .2.1.4.3.6.2.1.4.2.7.2.3 0 .5-.1.7-.2.1-.2.2-.4.2-.6zM271.6 71.2c0-.1 0-.1.1-.2s.1-.1.2-.1.2 0 .2.1c.1.1.1.1.1.2s0 .1-.1.2-.1.1-.2.1-.2 0-.2-.1c-.1 0-.1-.1-.1-.2zm0-3.1c0-.1 0-.1.1-.2s.1-.1.2-.1.2 0 .2.1c.1.1.1.1.1.2s0 .1-.1.2-.1.1-.2.1-.2 0-.2-.1c-.1-.1-.1-.1-.1-.2zM273.1 71.9h-.4l2.1-5.4h.4l-2.1 5.4zM275.1 71.9h-.4l2.1-5.4h.4l-2.1 5.4zM278.8 70.6l.1.3.1-.3.9-2.8h.3l.9 2.8.1.4.1-.4.8-2.8h.4l-1.1 3.7h-.4l-1-2.9v-.2.2l-.9 2.9h-.3l-1.1-3.7h.4l.7 2.8zM284.1 70.6l.1.3.1-.3.9-2.8h.3l.9 2.8.1.4.1-.4.8-2.8h.4l-1.1 3.7h-.3l-1-2.9v-.2.2l-.9 2.9h-.5l-1.1-3.7h.4l.8 2.8zM289.4 70.6l.1.3.1-.3.9-2.8h.3l.9 2.8.1.4.1-.4.8-2.8h.4l-1.1 3.7h-.3l-1-2.9v-.2.2l-.9 2.9h-.3l-1.1-3.7h.4l.6 2.8zM293.3 71.2c0-.1 0-.1.1-.2s.1-.1.2-.1.2 0 .2.1c.1.1.1.1.1.2s0 .1-.1.2-.1.1-.2.1-.2 0-.2-.1c-.1 0-.1-.1-.1-.2zM295.3 71.5v-3.4h-.6v-.3h.6v-.4c0-.4.1-.7.3-.9.2-.2.5-.3.8-.3.2 0 .3 0 .4.1v.3h-.4c-.2 0-.4.1-.5.2-.1.1-.2.3-.2.6v.5h.9v.3h-.9v3.4h-.4zM298 66.8v.9h.8v.3h-.8v2.5c0 .2 0 .4.1.5.1.1.2.2.4.2h.3v.3c-.1 0-.3.1-.4.1-.3 0-.5-.1-.6-.2-.1-.2-.2-.4-.2-.7v-2.5h-.7v-.3h.7V67h.4zM301 71.2c.3 0 .5-.1.7-.2.2-.2.3-.4.3-.6h.4c0 .2-.1.4-.2.6-.1.2-.3.3-.5.4-.2.1-.4.2-.7.2-.5 0-.9-.2-1.2-.5-.3-.3-.4-.8-.4-1.4v-.1c0-.4.1-.7.2-1s.3-.5.5-.6c.2-.2.5-.2.8-.2.4 0 .7.1 1 .4.3.2.4.6.4 1h-.3c0-.3-.1-.5-.3-.7s-.4-.3-.7-.3c-.4 0-.7.1-.9.4s-.3.6-.3 1.1v.1c0 .5.1.8.3 1.1.2.2.5.3.9.3zM303.2 71.2c0-.1 0-.1.1-.2s.1-.1.2-.1.2 0 .2.1c.1.1.1.1.1.2s0 .1-.1.2-.1.1-.2.1-.2 0-.2-.1c-.1 0-.1-.1-.1-.2zM304.7 69.6c0-.6.1-1 .4-1.4.3-.3.6-.5 1-.5.5 0 .9.2 1.1.6v-.5h.4v3.6c0 .5-.1.9-.4 1.1-.3.3-.6.4-1.1.4-.3 0-.5-.1-.7-.2-.2-.1-.4-.3-.6-.5l.2-.2c.3.4.6.5 1 .5.3 0 .6-.1.8-.3.2-.2.3-.5.3-.8V71c-.3.4-.6.5-1.1.5-.4 0-.8-.2-1-.5s-.3-.8-.3-1.4zm.4.1c0 .5.1.8.3 1.1.2.3.5.4.8.4.5 0 .9-.2 1.1-.7v-1.7c-.1-.2-.2-.4-.4-.5-.2-.1-.4-.2-.6-.2-.3 0-.6.1-.8.4-.3.3-.4.6-.4 1.2zM308.5 69.6c0-.4.1-.7.2-1 .1-.3.3-.5.6-.7s.5-.2.9-.2c.5 0 .9.2 1.2.5.3.3.5.8.5 1.4v.1c0 .4-.1.7-.2 1-.1.3-.3.5-.6.7-.3.2-.5.2-.9.2-.5 0-.9-.2-1.2-.5-.3-.4-.5-.9-.5-1.5zm.4.1c0 .4.1.8.3 1.1.2.3.5.4.9.4s.7-.1.9-.4c.2-.3.3-.7.3-1.1v-.1c0-.3-.1-.5-.2-.8-.1-.2-.3-.4-.4-.5-.2-.1-.4-.2-.6-.2-.4 0-.7.1-.9.4-.1.3-.3.7-.3 1.2zM313.8 70.9l1.1-3.1h.4l-1.4 3.7h-.3l-1.4-3.7h.4l1.2 3.1zM315.9 71.9h-.4l2.1-5.4h.4l-2.1 5.4zM319.2 67.8v.6c.1-.2.3-.4.5-.5.2-.1.4-.2.7-.2.4 0 .7.1.9.3.2.2.3.6.3 1v2.4h-.4V69c0-.3-.1-.6-.2-.7-.1-.2-.4-.2-.7-.2-.3 0-.5.1-.7.2-.2.2-.3.4-.4.6v2.5h-.4v-3.7h.4zM324.1 71.6c-.3 0-.6-.1-.9-.2-.3-.2-.5-.4-.6-.6-.1-.3-.2-.6-.2-.9v-.1c0-.4.1-.7.2-1 .1-.3.3-.5.6-.7s.5-.2.8-.2c.4 0 .8.2 1.1.5.3.3.4.7.4 1.3v.2h-2.6v.1c0 .4.1.8.4 1 .2.3.5.4.9.4.2 0 .4 0 .6-.1.2-.1.3-.2.5-.4l.3.2c-.5.2-1 .5-1.5.5zm-.1-3.5c-.3 0-.6.1-.8.3s-.3.5-.4.9h2.2c0-.4-.1-.6-.3-.9-.2-.2-.4-.3-.7-.3zM327.1 70.6l.1.3.1-.3.9-2.8h.3l.9 2.8.1.4.1-.4.8-2.8h.4l-1.1 3.7h-.3l-1-2.9v-.2.2l-.9 2.9h-.5l-1.1-3.7h.4l.8 2.8zM333.7 70.5c0-.2-.1-.4-.2-.5s-.4-.2-.7-.3-.6-.1-.8-.2c-.2-.1-.3-.2-.4-.3s-.1-.3-.1-.5c0-.3.1-.5.4-.7s.6-.3.9-.3c.4 0 .7.1 1 .3.2.2.4.5.4.8h-.4c0-.2-.1-.4-.3-.5-.2-.1-.4-.2-.7-.2-.3 0-.5.1-.6.2-.2.1-.2.3-.2.5s.1.3.2.4c.1.1.4.2.7.3.4.1.6.2.8.3s.3.2.4.3c.1.1.1.3.1.5 0 .3-.1.6-.4.7-.3.2-.6.3-1 .3s-.8-.1-1-.3c-.3-.2-.4-.5-.4-.8h.4c0 .2.1.4.3.6.2.1.4.2.7.2.3 0 .5-.1.7-.2.1-.2.2-.4.2-.6zM336.3 69.5h-1.6v-.3h1.6v.3zM338.5 71.6c-.3 0-.6-.1-.9-.2-.3-.2-.5-.4-.6-.6-.1-.3-.2-.6-.2-.9v-.1c0-.4.1-.7.2-1 .1-.3.3-.5.6-.7s.5-.2.8-.2c.4 0 .8.2 1.1.5.3.3.4.7.4 1.3v.2h-2.6v.1c0 .4.1.8.4 1 .2.3.5.4.9.4.2 0 .4 0 .6-.1.2-.1.3-.2.5-.4l.3.2c-.5.2-.9.5-1.5.5zm-.1-3.5c-.3 0-.6.1-.8.3s-.3.5-.4.9h2.2c0-.4-.1-.6-.3-.9-.1-.2-.4-.3-.7-.3zM341.8 70.9l1.1-3.1h.4l-1.4 3.7h-.3l-1.4-3.7h.4l1.2 3.1zM345.4 71.6c-.3 0-.6-.1-.9-.2-.3-.2-.5-.4-.6-.6-.1-.3-.2-.6-.2-.9v-.1c0-.4.1-.7.2-1 .1-.3.3-.5.6-.7s.5-.2.8-.2c.4 0 .8.2 1.1.5.3.3.4.7.4 1.3v.2h-2.6v.1c0 .4.1.8.4 1 .2.3.5.4.9.4.2 0 .4 0 .6-.1.2-.1.3-.2.5-.4l.3.2c-.5.2-.9.5-1.5.5zm-.1-3.5c-.3 0-.6.1-.8.3s-.3.5-.4.9h2.2c0-.4-.1-.6-.3-.9-.1-.2-.4-.3-.7-.3zM348 67.8v.6c.1-.2.3-.4.5-.5.2-.1.4-.2.7-.2.4 0 .7.1.9.3.2.2.3.6.3 1v2.4h-.4V69c0-.3-.1-.6-.2-.7-.1-.2-.4-.2-.7-.2-.3 0-.5.1-.7.2-.2.2-.3.4-.4.6v2.5h-.4v-3.7h.4zM352 66.8v.9h.8v.3h-.8v2.5c0 .2 0 .4.1.5.1.1.2.2.4.2h.3v.3c-.1 0-.3.1-.4.1-.3 0-.5-.1-.6-.2-.1-.2-.2-.4-.2-.7v-2.5h-.6v-.3h.7V67h.3zM355.9 70.5c0-.2-.1-.4-.2-.5s-.4-.2-.7-.3-.6-.1-.8-.2c-.2-.1-.3-.2-.4-.3s-.1-.3-.1-.5c0-.3.1-.5.4-.7s.6-.3.9-.3c.4 0 .7.1 1 .3.2.2.4.5.4.8h-.4c0-.2-.1-.4-.3-.5-.2-.1-.4-.2-.7-.2-.3 0-.5.1-.6.2-.2.1-.2.3-.2.5s.1.3.2.4c.1.1.4.2.7.3.4.1.6.2.8.3s.3.2.4.3c.1.1.1.3.1.5 0 .3-.1.6-.4.7-.3.2-.6.3-1 .3s-.8-.1-1-.3c-.3-.2-.4-.5-.4-.8h.4c0 .2.1.4.3.6.2.1.4.2.7.2.3 0 .5-.1.7-.2.1-.2.2-.4.2-.6zM357.1 71.9h-.4l2.1-5.4h.4l-2.1 5.4zM360.4 67.8v.6c.1-.2.3-.4.5-.5.2-.1.4-.2.7-.2.4 0 .7.1.9.3.2.2.3.6.3 1v2.4h-.4V69c0-.3-.1-.6-.2-.7-.1-.2-.4-.2-.7-.2-.3 0-.5.1-.7.2-.2.2-.3.4-.4.6v2.5h-.4v-3.7h.4zM365.3 71.6c-.3 0-.6-.1-.9-.2-.3-.2-.5-.4-.6-.6-.1-.3-.2-.6-.2-.9v-.1c0-.4.1-.7.2-1 .1-.3.3-.5.6-.7s.5-.2.8-.2c.4 0 .8.2 1.1.5.3.3.4.7.4 1.3v.2H364v.1c0 .4.1.8.4 1 .2.3.5.4.9.4.2 0 .4 0 .6-.1.2-.1.3-.2.5-.4l.3.2c-.4.2-.9.5-1.4.5zm-.1-3.5c-.3 0-.6.1-.8.3s-.3.5-.4.9h2.2c0-.4-.1-.6-.3-.9-.1-.2-.4-.3-.7-.3zM368.3 70.6l.1.3.1-.3.9-2.8h.3l.9 2.8.1.4.1-.4.8-2.8h.4l-1.1 3.7h-.3l-1-2.9v-.2.2l-.9 2.9h-.3l-1.1-3.7h.4l.6 2.8zM374.9 70.5c0-.2-.1-.4-.2-.5s-.4-.2-.7-.3-.6-.1-.8-.2c-.2-.1-.3-.2-.4-.3s-.1-.3-.1-.5c0-.3.1-.5.4-.7s.6-.3.9-.3c.4 0 .7.1 1 .3.2.2.4.5.4.8h-.4c0-.2-.1-.4-.3-.5-.2-.1-.4-.2-.7-.2-.3 0-.5.1-.6.2-.2.1-.2.3-.2.5s.1.3.2.4c.1.1.4.2.7.3.4.1.6.2.8.3s.3.2.4.3c.1.1.1.3.1.5 0 .3-.1.6-.4.7-.3.2-.6.3-1 .3s-.8-.1-1-.3c-.3-.2-.4-.5-.4-.8h.4c0 .2.1.4.3.6.2.1.4.2.7.2.3 0 .5-.1.7-.2.2-.2.2-.4.2-.6zM376.2 71.9h-.4l2.1-5.4h.4l-2.1 5.4zM382 69.7c0 .6-.1 1-.4 1.4-.3.3-.6.5-1 .5-.5 0-.9-.2-1.2-.5V73h-.4v-5.1h.4v.5c.3-.4.7-.6 1.2-.6.4 0 .8.2 1 .5s.4.7.4 1.4zm-.4-.1c0-.5-.1-.8-.3-1.1-.2-.3-.5-.4-.8-.4-.3 0-.5.1-.6.2-.2.1-.3.3-.4.5v1.8c.1.2.2.4.4.5.2.1.4.2.6.2.3 0 .6-.1.8-.4.2-.4.3-.8.3-1.3zM384.6 68.1h-.3c-.3 0-.5.1-.6.2s-.3.3-.4.6v2.5h-.4v-3.7h.4v.6c.2-.4.6-.7 1-.7h.3v.5zM386.7 71.6c-.3 0-.6-.1-.9-.2-.3-.2-.5-.4-.6-.6-.1-.3-.2-.6-.2-.9v-.1c0-.4.1-.7.2-1 .1-.3.3-.5.6-.7s.5-.2.8-.2c.4 0 .8.2 1.1.5.3.3.4.7.4 1.3v.2h-2.6v.1c0 .4.1.8.4 1 .2.3.5.4.9.4.2 0 .4 0 .6-.1.2-.1.3-.2.5-.4l.3.2c-.5.2-1 .5-1.5.5zm-.1-3.5c-.3 0-.6.1-.8.3s-.3.5-.4.9h2.2c0-.4-.1-.6-.3-.9-.2-.2-.4-.3-.7-.3zM391 70.5c0-.2-.1-.4-.2-.5s-.4-.2-.7-.3-.6-.1-.8-.2c-.2-.1-.3-.2-.4-.3s-.1-.3-.1-.5c0-.3.1-.5.4-.7s.6-.3.9-.3c.4 0 .7.1 1 .3.2.2.4.5.4.8h-.5c0-.2-.1-.4-.3-.5-.2-.1-.4-.2-.7-.2-.3 0-.5.1-.6.2-.2.1-.2.3-.2.5s.1.3.2.4c.1.1.4.2.7.3.4.1.6.2.8.3s.3.2.4.3c.1.1.1.3.1.5 0 .3-.1.6-.4.7-.3.2-.6.3-1 .3s-.8-.1-1-.3c-.3-.2-.4-.5-.4-.8h.4c0 .2.1.4.3.6.2.1.4.2.7.2.3 0 .5-.1.7-.2.3-.2.3-.4.3-.6zM394.6 70.5c0-.2-.1-.4-.2-.5s-.4-.2-.7-.3-.6-.1-.8-.2c-.2-.1-.3-.2-.4-.3s-.1-.3-.1-.5c0-.3.1-.5.4-.7s.6-.3.9-.3c.4 0 .7.1 1 .3.2.2.4.5.4.8h-.4c0-.2-.1-.4-.3-.5-.2-.1-.4-.2-.7-.2-.3 0-.5.1-.6.2-.2.1-.2.3-.2.5s.1.3.2.4c.1.1.4.2.7.3.4.1.6.2.8.3s.3.2.4.3c.1.1.1.3.1.5 0 .3-.1.6-.4.7-.3.2-.6.3-1 .3s-.8-.1-1-.3c-.3-.2-.4-.5-.4-.8h.4c0 .2.1.4.3.6.2.1.4.2.7.2.3 0 .5-.1.7-.2.1-.2.2-.4.2-.6zM397.2 69.5h-1.6v-.3h1.6v.3zM399.6 68.1h-.3c-.3 0-.5.1-.6.2s-.3.3-.4.6v2.5h-.4v-3.7h.4v.6c.2-.4.6-.7 1-.7h.3v.5zM401.6 71.6c-.3 0-.6-.1-.9-.2-.3-.2-.5-.4-.6-.6-.1-.3-.2-.6-.2-.9v-.1c0-.4.1-.7.2-1 .1-.3.3-.5.6-.7s.5-.2.8-.2c.4 0 .8.2 1.1.5.3.3.4.7.4 1.3v.2h-2.6v.1c0 .4.1.8.4 1 .2.3.5.4.9.4.2 0 .4 0 .6-.1.2-.1.3-.2.5-.4l.3.2c-.4.2-.9.5-1.5.5zm0-3.5c-.3 0-.6.1-.8.3s-.3.5-.4.9h2.2c0-.4-.1-.6-.3-.9-.2-.2-.4-.3-.7-.3zM404.3 71.5h-.4v-5.2h.4v5.2zM406.8 71.6c-.3 0-.6-.1-.9-.2-.3-.2-.5-.4-.6-.6-.1-.3-.2-.6-.2-.9v-.1c0-.4.1-.7.2-1 .1-.3.3-.5.6-.7s.5-.2.8-.2c.4 0 .8.2 1.1.5.3.3.4.7.4 1.3v.2h-2.6v.1c0 .4.1.8.4 1 .2.3.5.4.9.4.2 0 .4 0 .6-.1.2-.1.3-.2.5-.4l.3.2c-.5.2-.9.5-1.5.5zm0-3.5c-.3 0-.6.1-.8.3s-.3.5-.4.9h2.2c0-.4-.1-.6-.3-.9-.2-.2-.4-.3-.7-.3zM411.4 71.5c0-.1-.1-.3-.1-.5-.1.2-.3.3-.5.4-.2.1-.5.2-.7.2-.4 0-.6-.1-.9-.3s-.3-.4-.3-.8.1-.6.4-.9c.3-.2.7-.3 1.3-.3h.7v-.4c0-.3-.1-.5-.2-.6s-.4-.2-.7-.2c-.3 0-.5.1-.7.2-.2.1-.3.3-.3.5h-.4c0-.3.1-.5.4-.8.3-.2.6-.3 1-.3s.7.1 1 .3c.2.2.4.5.4.9v1.8c0 .4 0 .6.1.8h-.5zm-1.3-.3c.3 0 .5-.1.7-.2.2-.1.4-.3.5-.5v-.8h-.7c-.4 0-.7.1-1 .2-.2.1-.3.3-.3.6 0 .2.1.4.2.5.1.1.3.2.6.2zM415 70.5c0-.2-.1-.4-.2-.5s-.4-.2-.7-.3-.6-.1-.8-.2c-.2-.1-.3-.2-.4-.3s-.1-.3-.1-.5c0-.3.1-.5.4-.7s.6-.3.9-.3c.4 0 .7.1 1 .3.2.2.4.5.4.8h-.5c0-.2-.1-.4-.3-.5-.2-.1-.4-.2-.7-.2-.3 0-.5.1-.6.2-.2.1-.2.3-.2.5s.1.3.2.4c.1.1.4.2.7.3.4.1.6.2.8.3s.3.2.4.3c.1.1.1.3.1.5 0 .3-.1.6-.4.7-.3.2-.6.3-1 .3s-.8-.1-1-.3c-.3-.2-.4-.5-.4-.8h.4c0 .2.1.4.3.6.2.1.4.2.7.2.3 0 .5-.1.7-.2.2-.2.3-.4.3-.6zM417.7 71.6c-.3 0-.6-.1-.9-.2-.3-.2-.5-.4-.6-.6-.1-.3-.2-.6-.2-.9v-.1c0-.4.1-.7.2-1 .1-.3.3-.5.6-.7s.5-.2.8-.2c.4 0 .8.2 1.1.5.3.3.4.7.4 1.3v.2h-2.6v.1c0 .4.1.8.4 1 .2.3.5.4.9.4.2 0 .4 0 .6-.1.2-.1.3-.2.5-.4l.3.2c-.4.2-.9.5-1.5.5zm0-3.5c-.3 0-.6.1-.8.3s-.3.5-.4.9h2.2c0-.4-.1-.6-.3-.9-.2-.2-.4-.3-.7-.3zM422.1 70.5c0-.2-.1-.4-.2-.5s-.4-.2-.7-.3-.6-.1-.8-.2c-.2-.1-.3-.2-.4-.3s-.1-.3-.1-.5c0-.3.1-.5.4-.7s.6-.3.9-.3c.4 0 .7.1 1 .3.2.2.4.5.4.8h-.4c0-.2-.1-.4-.3-.5-.2-.1-.4-.2-.7-.2-.3 0-.5.1-.6.2-.2.1-.2.3-.2.5s.1.3.2.4c.1.1.4.2.7.3.4.1.6.2.8.3s.3.2.4.3c.1.1.1.3.1.5 0 .3-.1.6-.4.7-.3.2-.6.3-1 .3s-.8-.1-1-.3c-.3-.2-.4-.5-.4-.8h.4c0 .2.1.4.3.6.2.1.4.2.7.2.3 0 .5-.1.7-.2.2-.2.2-.4.2-.6zM423.4 71.9h-.4l2.1-5.4h.4l-2.1 5.4zM429.3 71.5h-3.1v-.3l1.7-1.9c.3-.3.5-.6.6-.8s.2-.4.2-.6c0-.3-.1-.6-.3-.7-.2-.2-.4-.3-.8-.3-.3 0-.6.1-.8.3-.2.2-.3.5-.3.8h-.4c0-.3.1-.5.2-.8.1-.2.3-.4.5-.5s.5-.2.8-.2c.5 0 .8.1 1.1.4.3.2.4.6.4 1 0 .2-.1.5-.2.8-.1.3-.4.6-.8 1l-1.4 1.6h2.6v.2zM433.1 69.4c0 .7-.1 1.2-.4 1.6-.3.4-.6.5-1.1.5-.5 0-.9-.2-1.1-.5s-.4-.9-.4-1.6v-.9c0-.7.1-1.2.4-1.6.3-.4.6-.5 1.1-.5.5 0 .9.2 1.1.5.3.3.4.9.4 1.5v1zm-.4-.9c0-.6-.1-1-.3-1.3-.2-.3-.5-.4-.8-.4-.4 0-.6.1-.8.4-.2.3-.3.7-.3 1.3v1c0 .6.1 1 .3 1.3s.5.5.8.5c.4 0 .6-.1.8-.4.2-.3.3-.7.3-1.3v-1.1zM437.1 71.5H434v-.3l1.7-1.9c.3-.3.5-.6.6-.8s.2-.4.2-.6c0-.3-.1-.6-.3-.7-.2-.2-.4-.3-.8-.3-.3 0-.6.1-.8.3-.2.2-.3.5-.3.8h-.4c0-.3.1-.5.2-.8.1-.2.3-.4.5-.5s.5-.2.8-.2c.5 0 .8.1 1.1.4.3.2.4.6.4 1 0 .2-.1.5-.2.8-.1.3-.4.6-.8 1l-1.4 1.6h2.6v.2zM440.9 71.5h-3.1v-.3l1.7-1.9c.3-.3.5-.6.6-.8s.2-.4.2-.6c0-.3-.1-.6-.3-.7-.2-.2-.4-.3-.8-.3-.3 0-.6.1-.8.3-.2.2-.3.5-.3.8h-.4c0-.3.1-.5.2-.8.1-.2.3-.4.5-.5s.5-.2.8-.2c.5 0 .8.1 1.1.4.3.2.4.6.4 1 0 .2-.1.5-.2.8-.1.3-.4.6-.8 1l-1.4 1.6h2.6v.2zM441.7 71.9h-.4l2.1-5.4h.4l-2.1 5.4zM447.5 69.4c0 .7-.1 1.2-.4 1.6-.3.4-.6.5-1.1.5-.5 0-.9-.2-1.1-.5s-.4-.9-.4-1.6v-.9c0-.7.1-1.2.4-1.6.3-.4.6-.5 1.1-.5.5 0 .9.2 1.1.5.3.3.4.9.4 1.5v1zm-.4-.9c0-.6-.1-1-.3-1.3-.2-.3-.5-.4-.8-.4-.4 0-.6.1-.8.4-.2.3-.3.7-.3 1.3v1c0 .6.1 1 .3 1.3s.5.5.8.5c.4 0 .6-.1.8-.4.2-.3.3-.7.3-1.3v-1.1zM451.5 71.5h-3.1v-.3l1.7-1.9c.3-.3.5-.6.6-.8s.2-.4.2-.6c0-.3-.1-.6-.3-.7-.2-.2-.4-.3-.8-.3-.3 0-.6.1-.8.3-.2.2-.3.5-.3.8h-.4c0-.3.1-.5.2-.8.1-.2.3-.4.5-.5s.5-.2.8-.2c.5 0 .8.1 1.1.4.3.2.4.6.4 1 0 .2-.1.5-.2.8-.1.3-.4.6-.8 1l-1.4 1.6h2.6v.2zM452.2 71.9h-.4l2.1-5.4h.4l-2.1 5.4zM455.5 67.8v.6c.1-.2.3-.4.5-.5.2-.1.4-.2.7-.2.4 0 .7.1.9.3.2.2.3.6.3 1v2.4h-.4V69c0-.3-.1-.6-.2-.7-.1-.2-.4-.2-.7-.2-.3 0-.5.1-.7.2-.2.2-.3.4-.4.6v2.5h-.4v-3.7h.4zM460.4 71.6c-.3 0-.6-.1-.9-.2-.3-.2-.5-.4-.6-.6-.1-.3-.2-.6-.2-.9v-.1c0-.4.1-.7.2-1 .1-.3.3-.5.6-.7s.5-.2.8-.2c.4 0 .8.2 1.1.5.3.3.4.7.4 1.3v.2h-2.6v.1c0 .4.1.8.4 1 .2.3.5.4.9.4.2 0 .4 0 .6-.1.2-.1.3-.2.5-.4l.3.2c-.5.2-1 .5-1.5.5zm-.1-3.5c-.3 0-.6.1-.8.3s-.3.5-.4.9h2.2c0-.4-.1-.6-.3-.9-.2-.2-.4-.3-.7-.3zM463.4 70.6l.1.3.1-.3.9-2.8h.3l.9 2.8.1.4.1-.4.8-2.8h.4l-1.1 3.7h-.3l-1-2.9v-.2.2l-.9 2.9h-.3l-1.1-3.7h.4l.6 2.8zM469.1 69.5h-1.6v-.3h1.6v.3zM469.7 69.6c0-.6.1-1 .4-1.4.3-.3.6-.5 1-.5.5 0 .9.2 1.1.6v-2.1h.4v5.2h-.4v-.5c-.3.4-.6.6-1.2.6-.4 0-.8-.2-1-.5s-.3-.8-.3-1.4zm.4.1c0 .5.1.8.3 1.1.2.3.5.4.8.4.5 0 .9-.2 1.1-.7v-1.7c-.2-.5-.6-.7-1.1-.7-.3 0-.6.1-.8.4-.2.3-.3.6-.3 1.2zM476 71.5c0-.1-.1-.3-.1-.5-.1.2-.3.3-.5.4-.2.1-.5.2-.7.2-.4 0-.6-.1-.9-.3s-.3-.4-.3-.8.1-.6.4-.9c.3-.2.7-.3 1.3-.3h.7v-.4c0-.3-.1-.5-.2-.6s-.4-.2-.7-.2c-.3 0-.5.1-.7.2-.2.1-.3.3-.3.5h-.4c0-.3.1-.5.4-.8.3-.2.6-.3 1-.3s.7.1 1 .3c.2.2.4.5.4.9v1.8c0 .4 0 .6.1.8h-.5zm-1.2-.3c.3 0 .5-.1.7-.2.2-.1.4-.3.5-.5v-.8h-.7c-.4 0-.7.1-1 .2-.2.1-.3.3-.3.6 0 .2.1.4.2.5.1.1.3.2.6.2zM478.1 66.8v.9h.8v.3h-.8v2.5c0 .2 0 .4.1.5.1.1.2.2.4.2h.3v.3c-.1 0-.3.1-.4.1-.3 0-.5-.1-.6-.2-.1-.2-.2-.4-.2-.7v-2.5h-.7v-.3h.7V67h.4zM482 71.5c0-.1-.1-.3-.1-.5-.1.2-.3.3-.5.4-.2.1-.5.2-.7.2-.4 0-.6-.1-.9-.3s-.3-.4-.3-.8.1-.6.4-.9c.3-.2.7-.3 1.3-.3h.7v-.4c0-.3-.1-.5-.2-.6s-.4-.2-.7-.2c-.3 0-.5.1-.7.2-.2.1-.3.3-.3.5h-.4c0-.3.1-.5.4-.8.3-.2.6-.3 1-.3s.7.1 1 .3c.2.2.4.5.4.9v1.8c0 .4 0 .6.1.8h-.5zm-1.2-.3c.3 0 .5-.1.7-.2.2-.1.4-.3.5-.5v-.8h-.7c-.4 0-.7.1-1 .2-.2.1-.3.3-.3.6 0 .2.1.4.2.5.1.1.3.2.6.2zM484.7 69.5h-1.6v-.3h1.6v.3zM487.7 70.5c0-.2-.1-.4-.2-.5s-.4-.2-.7-.3-.6-.1-.8-.2c-.2-.1-.3-.2-.4-.3s-.1-.3-.1-.5c0-.3.1-.5.4-.7s.6-.3.9-.3c.4 0 .7.1 1 .3.2.2.4.5.4.8h-.4c0-.2-.1-.4-.3-.5-.2-.1-.4-.2-.7-.2-.3 0-.5.1-.6.2-.2.1-.2.3-.2.5s.1.3.2.4c.1.1.4.2.7.3.4.1.6.2.8.3s.3.2.4.3c.1.1.1.3.1.5 0 .3-.1.6-.4.7-.3.2-.6.3-1 .3s-.8-.1-1-.3c-.3-.2-.4-.5-.4-.8h.4c0 .2.1.4.3.6.2.1.4.2.7.2.3 0 .5-.1.7-.2.1-.2.2-.4.2-.6zM489.4 68.4c.1-.2.3-.4.5-.5.2-.1.4-.2.7-.2.4 0 .7.1.9.3.2.2.3.6.3 1v2.4h-.4V69c0-.3-.1-.6-.2-.7-.1-.2-.4-.2-.7-.2-.3 0-.5.1-.7.2-.2.2-.3.4-.4.6v2.5h-.4v-5.2h.4v2.2zM492.6 69.6c0-.4.1-.7.2-1 .1-.3.3-.5.6-.7s.5-.2.9-.2c.5 0 .9.2 1.2.5.3.3.5.8.5 1.4v.1c0 .4-.1.7-.2 1-.1.3-.3.5-.6.7-.3.2-.5.2-.9.2-.5 0-.9-.2-1.2-.5-.3-.4-.5-.9-.5-1.5zm.4.1c0 .4.1.8.3 1.1.2.3.5.4.9.4s.7-.1.9-.4c.2-.3.3-.7.3-1.1v-.1c0-.3-.1-.5-.2-.8-.1-.2-.3-.4-.4-.5-.2-.1-.4-.2-.6-.2-.4 0-.7.1-.9.4-.1.3-.3.7-.3 1.2zM497.7 70.6l.1.3.1-.3.9-2.8h.3l.9 2.8v.4l.1-.4.8-2.8h.4l-1.1 3.7h-.3l-1-2.9v-.2.2l-.9 2.9h-.3l-1.1-3.7h.4l.7 2.8zM504.3 70.5c0-.2-.1-.4-.2-.5s-.4-.2-.7-.3-.6-.1-.8-.2c-.2-.1-.3-.2-.4-.3s-.1-.3-.1-.5c0-.3.1-.5.4-.7s.6-.3.9-.3c.4 0 .7.1 1 .3.2.2.4.5.4.8h-.4c0-.2-.1-.4-.3-.5-.2-.1-.4-.2-.7-.2-.3 0-.5.1-.6.2-.2.1-.2.3-.2.5s.1.3.2.4c.1.1.4.2.7.3.4.1.6.2.8.3s.3.2.4.3c.1.1.1.3.1.5 0 .3-.1.6-.4.7-.3.2-.6.3-1 .3s-.8-.1-1-.3c-.3-.2-.4-.5-.4-.8h.4c0 .2.1.4.3.6.2.1.4.2.7.2.3 0 .5-.1.7-.2.1-.2.2-.4.2-.6zM506.9 69.5h-1.6v-.3h1.6v.3zM507.9 71.5v-3.4h-.6v-.3h.6v-.4c0-.4.1-.7.3-.9.2-.2.5-.3.8-.3.2 0 .3 0 .4.1v.3h-.4c-.2 0-.4.1-.5.2-.1.1-.2.3-.2.6v.5h.9v.3h-.9v3.4h-.4zM510.5 66.8v.9h.8v.3h-.8v2.5c0 .2 0 .4.1.5.1.1.2.2.4.2h.3v.3c-.1 0-.3.1-.4.1-.3 0-.5-.1-.6-.2-.1-.2-.2-.4-.2-.7v-2.5h-.7v-.3h.7V67h.4zM513.5 71.2c.3 0 .5-.1.7-.2.2-.2.3-.4.3-.6h.4c0 .2-.1.4-.2.6-.1.2-.3.3-.5.4-.2.1-.4.2-.7.2-.5 0-.9-.2-1.2-.5-.3-.3-.4-.8-.4-1.4v-.1c0-.4.1-.7.2-1s.3-.5.5-.6c.2-.2.5-.2.8-.2.4 0 .7.1 1 .4.3.2.4.6.4 1h-.4c0-.3-.1-.5-.3-.7s-.4-.3-.7-.3c-.4 0-.7.1-.9.4s-.3.6-.3 1.1v.1c0 .5.1.8.3 1.1.4.2.7.3 1 .3zM517 69.5h-1.6v-.3h1.6v.3zM519.5 68.1h-.3c-.3 0-.5.1-.6.2s-.3.3-.4.6v2.5h-.4v-3.7h.4v.6c.2-.4.6-.7 1-.7h.3v.5zM521.5 71.6c-.3 0-.6-.1-.9-.2-.3-.2-.5-.4-.6-.6-.1-.3-.2-.6-.2-.9v-.1c0-.4.1-.7.2-1 .1-.3.3-.5.6-.7s.5-.2.8-.2c.4 0 .8.2 1.1.5.3.3.4.7.4 1.3v.2h-2.6v.1c0 .4.1.8.4 1 .2.3.5.4.9.4.2 0 .4 0 .6-.1.2-.1.3-.2.5-.4l.3.2c-.5.2-.9.5-1.5.5zm-.1-3.5c-.3 0-.6.1-.8.3s-.3.5-.4.9h2.2c0-.4-.1-.6-.3-.9-.1-.2-.4-.3-.7-.3zM525 71.2c.3 0 .5-.1.7-.2.2-.2.3-.4.3-.6h.4c0 .2-.1.4-.2.6-.1.2-.3.3-.5.4-.2.1-.4.2-.7.2-.5 0-.9-.2-1.2-.5-.3-.3-.4-.8-.4-1.4v-.1c0-.4.1-.7.2-1s.3-.5.5-.6c.2-.2.5-.2.8-.2.4 0 .7.1 1 .4.3.2.4.6.4 1h-.4c0-.3-.1-.5-.3-.7s-.4-.3-.7-.3c-.4 0-.7.1-.9.4s-.3.6-.3 1.1v.1c0 .5.1.8.3 1.1.4.2.7.3 1 .3zM528.7 71.6c-.3 0-.6-.1-.9-.2-.3-.2-.5-.4-.6-.6-.1-.3-.2-.6-.2-.9v-.1c0-.4.1-.7.2-1 .1-.3.3-.5.6-.7s.5-.2.8-.2c.4 0 .8.2 1.1.5.3.3.4.7.4 1.3v.2h-2.6v.1c0 .4.1.8.4 1 .2.3.5.4.9.4.2 0 .4 0 .6-.1.2-.1.3-.2.5-.4l.3.2c-.5.2-.9.5-1.5.5zm-.1-3.5c-.3 0-.6.1-.8.3s-.3.5-.4.9h2.2c0-.4-.1-.6-.3-.9-.1-.2-.3-.3-.7-.3zM530.9 66.7c0-.1 0-.1.1-.2s.1-.1.2-.1.2 0 .2.1c.1.1.1.1.1.2s0 .1-.1.2-.1.1-.2.1-.2 0-.2-.1c-.1 0-.1-.1-.1-.2zm.5 4.8h-.4v-3.7h.4v3.7zM533.6 70.9l1.1-3.1h.4l-1.4 3.7h-.3l-1.4-3.7h.4l1.2 3.1zM537.2 71.6c-.3 0-.6-.1-.9-.2-.3-.2-.5-.4-.6-.6-.1-.3-.2-.6-.2-.9v-.1c0-.4.1-.7.2-1 .1-.3.3-.5.6-.7s.5-.2.8-.2c.4 0 .8.2 1.1.5.3.3.4.7.4 1.3v.2H536v.1c0 .4.1.8.4 1 .2.3.5.4.9.4.2 0 .4 0 .6-.1.2-.1.3-.2.5-.4l.3.2c-.5.2-.9.5-1.5.5zm0-3.5c-.3 0-.6.1-.8.3s-.3.5-.4.9h2.2c0-.4-.1-.6-.3-.9-.2-.2-.4-.3-.7-.3zM539.2 69.6c0-.6.1-1 .4-1.4.3-.3.6-.5 1-.5.5 0 .9.2 1.1.6v-2.1h.4v5.2h-.4v-.5c-.3.4-.6.6-1.2.6-.4 0-.8-.2-1-.5s-.3-.8-.3-1.4zm.5.1c0 .5.1.8.3 1.1.2.3.5.4.8.4.5 0 .9-.2 1.1-.7v-1.7c-.2-.5-.6-.7-1.1-.7-.3 0-.6.1-.8.4-.2.3-.3.6-.3 1.2zM544.6 69.5H543v-.3h1.6v.3zM548.4 71.5h-3.1v-.3l1.7-1.9c.3-.3.5-.6.6-.8s.2-.4.2-.6c0-.3-.1-.6-.3-.7-.2-.2-.4-.3-.8-.3-.3 0-.6.1-.8.3-.2.2-.3.5-.3.8h-.4c0-.3.1-.5.2-.8.1-.2.3-.4.5-.5s.5-.2.8-.2c.5 0 .8.1 1.1.4.3.2.4.6.4 1 0 .2-.1.5-.2.8-.1.3-.4.6-.8 1l-1.4 1.6h2.6v.2zM552 67.8c0 .3-.1.5-.2.7s-.3.4-.6.4c.3.1.5.3.7.5.2.2.3.5.3.8 0 .4-.1.8-.4 1-.3.2-.7.4-1.1.4-.5 0-.9-.1-1.2-.4-.3-.2-.4-.6-.4-1 0-.3.1-.5.2-.8.2-.2.4-.4.7-.5-.2-.1-.4-.2-.6-.4-.1-.2-.2-.4-.2-.7 0-.4.1-.7.4-1 .3-.2.6-.4 1.1-.4s.8.1 1.1.4.2.6.2 1zm-.2 2.4c0-.3-.1-.6-.3-.8s-.5-.3-.8-.3-.6.1-.8.3c-.2.2-.3.5-.3.8 0 .3.1.6.3.8.2.2.5.3.9.3s.6-.1.9-.3c0-.3.1-.5.1-.8zm-.2-2.4c0-.3-.1-.5-.3-.7s-.4-.3-.8-.3c-.3 0-.6.1-.8.3-.2.2-.3.4-.3.7 0 .3.1.5.3.7s.4.3.8.3c.3 0 .6-.1.8-.3.2-.2.3-.4.3-.7zM554.3 69.5h-1.6v-.3h1.6v.3zM555.4 67.8v.6c.1-.2.3-.4.5-.5.2-.1.4-.2.7-.2.6 0 1 .2 1.1.7.1-.2.3-.4.5-.5.2-.1.5-.2.7-.2.8 0 1.2.4 1.2 1.3v2.5h-.4V69c0-.3-.1-.6-.2-.7-.1-.2-.4-.2-.7-.2-.3 0-.5.1-.7.3-.2.2-.3.4-.3.7v2.4h-.4V69c0-.3-.1-.6-.2-.7-.1-.2-.4-.2-.7-.2-.3 0-.5.1-.7.2-.2.1-.3.4-.4.7v2.5h-.4v-3.7h.4zM561.2 66.7c0-.1 0-.1.1-.2s.1-.1.2-.1.2 0 .2.1c.1.1.1.1.1.2s0 .1-.1.2-.1.1-.2.1-.2 0-.2-.1c0 0-.1-.1-.1-.2zm.5 4.8h-.4v-3.7h.4v3.7zM563.3 71.5h-.4v-5.2h.4v5.2zM564.9 71.5h-.4v-5.2h.4v5.2zM565.9 66.7c0-.1 0-.1.1-.2s.1-.1.2-.1.2 0 .2.1c.1.1.1.1.1.2s0 .1-.1.2-.1.1-.2.1-.2 0-.2-.1c0 0-.1-.1-.1-.2zm.5 4.8h-.4v-3.7h.4v3.7zM567.3 69.6c0-.4.1-.7.2-1 .1-.3.3-.5.6-.7s.5-.2.9-.2c.5 0 .9.2 1.2.5.3.3.5.8.5 1.4v.1c0 .4-.1.7-.2 1-.1.3-.3.5-.6.7-.3.2-.5.2-.9.2-.5 0-.9-.2-1.2-.5-.3-.4-.5-.9-.5-1.5zm.4.1c0 .4.1.8.3 1.1.2.3.5.4.9.4s.7-.1.9-.4c.2-.3.3-.7.3-1.1v-.1c0-.3-.1-.5-.2-.8-.1-.2-.3-.4-.4-.5-.2-.1-.4-.2-.6-.2-.4 0-.7.1-.9.4-.2.3-.3.7-.3 1.2zM571.9 67.8v.6c.1-.2.3-.4.5-.5.2-.1.4-.2.7-.2.4 0 .7.1.9.3.2.2.3.6.3 1v2.4h-.4V69c0-.3-.1-.6-.2-.7-.1-.2-.4-.2-.7-.2-.3 0-.5.1-.7.2-.2.2-.3.4-.4.6v2.5h-.4v-3.7h.4zM576.6 69.5H575v-.3h1.6v.3zM230.7 79.9v-3.4h-.6v-.3h.6v-.4c0-.4.1-.7.3-.9.2-.2.5-.3.8-.3.2 0 .3 0 .4.1v.3h-.4c-.2 0-.4.1-.5.2-.1.1-.2.3-.2.6v.5h.9v.3h-.9V80h-.4zM234.5 76.5h-.3c-.3 0-.5.1-.6.2-.2.1-.3.3-.4.6v2.5h-.4v-3.7h.4v.6c.2-.4.6-.7 1-.7h.3v.5zM237.3 79.9c0-.1-.1-.3-.1-.5-.1.2-.3.3-.5.4-.2.1-.5.2-.7.2-.4 0-.6-.1-.9-.3s-.3-.4-.3-.8.1-.6.4-.9c.3-.2.7-.3 1.3-.3h.7v-.4c0-.3-.1-.5-.2-.6-.2-.2-.4-.2-.7-.2-.3 0-.5.1-.7.2-.2.1-.3.3-.3.5h-.4c0-.3.1-.5.4-.8.3-.2.6-.3 1-.3s.7.1 1 .3.4.5.4.9V79c0 .4 0 .6.1.8h-.5zm-1.3-.3c.3 0 .5-.1.7-.2.2-.1.4-.3.5-.5v-.8h-.7c-.4 0-.7.1-1 .2-.2.1-.3.3-.3.6 0 .2.1.4.2.5.2.1.4.2.6.2zM241.1 79.4c-.2.4-.6.5-1.2.5-.4 0-.7-.1-.9-.3-.2-.2-.3-.6-.3-1v-2.4h.4v2.4c0 .7.3 1.1.9 1.1.6 0 1-.2 1.1-.7v-2.7h.4V80h-.4v-.6zM242.4 78c0-.6.1-1 .4-1.4.3-.3.6-.5 1-.5.5 0 .9.2 1.1.6v-2.1h.4v5.2h-.3v-.5c-.3.4-.6.6-1.2.6-.4 0-.8-.2-1-.5-.3-.3-.4-.8-.4-1.4zm.4.1c0 .5.1.8.3 1.1s.5.4.8.4c.5 0 .9-.2 1.1-.7v-1.7c-.2-.5-.6-.7-1.1-.7-.3 0-.6.1-.8.4-.2.2-.3.6-.3 1.2zM247.7 77.9h-1.6v-.3h1.6v.3zM250.2 76.5h-.3c-.3 0-.5.1-.6.2-.2.1-.3.3-.4.6v2.5h-.4v-3.7h.4v.6c.2-.4.6-.7 1-.7h.3v.5zM252.2 80c-.3 0-.6-.1-.9-.2-.3-.2-.5-.4-.6-.6-.1-.3-.2-.6-.2-.9V78c0-.4.1-.7.2-1 .1-.3.3-.5.6-.7.2-.2.5-.2.8-.2.4 0 .8.2 1.1.5.3.3.4.7.4 1.3v.2H251v.1c0 .4.1.8.4 1s.5.4.9.4c.2 0 .4 0 .6-.1.2-.1.3-.2.5-.4l.3.2c-.5.4-.9.7-1.5.7zm-.1-3.5c-.3 0-.6.1-.8.3s-.3.5-.4.9h2.2c0-.4-.1-.6-.3-.9-.1-.2-.4-.3-.7-.3zM257.4 78.1c0 .6-.1 1-.4 1.4-.3.3-.6.5-1 .5-.5 0-.9-.2-1.2-.5v1.9h-.4v-5.1h.4v.5c.3-.4.7-.6 1.2-.6.4 0 .8.2 1 .5s.4.7.4 1.4zm-.5-.1c0-.5-.1-.8-.3-1.1-.2-.3-.5-.4-.8-.4-.3 0-.5.1-.6.2-.2.1-.3.3-.4.5V79c.1.2.2.4.4.5.2.1.4.2.6.2.3 0 .6-.1.8-.4s.3-.8.3-1.3zM258 78c0-.4.1-.7.2-1 .1-.3.3-.5.6-.7.3-.2.5-.2.9-.2.5 0 .9.2 1.2.5.3.3.5.8.5 1.4v.1c0 .4-.1.7-.2 1s-.3.5-.6.7c-.3.2-.5.2-.9.2-.5 0-.9-.2-1.2-.5-.3-.4-.5-.9-.5-1.5zm.4.1c0 .4.1.8.3 1.1.2.3.5.4.9.4s.7-.1.9-.4c.2-.3.3-.7.3-1.1V78c0-.3-.1-.5-.2-.8-.1-.2-.3-.4-.4-.5s-.4-.2-.6-.2c-.4 0-.7.1-.9.4-.1.3-.3.7-.3 1.2zM263.9 76.5h-.3c-.3 0-.5.1-.6.2-.2.1-.3.3-.4.6v2.5h-.4v-3.7h.4v.6c.2-.4.6-.7 1-.7h.3v.5zM265.3 75.2v.9h.8v.3h-.8V79c0 .2 0 .4.1.5s.2.2.4.2h.3v.3c-.1 0-.3.1-.4.1-.3 0-.5-.1-.6-.2s-.2-.4-.2-.7v-2.5h-.7v-.3h.7v-.9h.4zM269.2 78.9c0-.2-.1-.4-.2-.5s-.4-.2-.7-.3c-.3-.1-.6-.1-.8-.2-.2-.1-.3-.2-.4-.3s-.1-.3-.1-.5c0-.3.1-.5.4-.7.2-.2.6-.3.9-.3.4 0 .7.1 1 .3.2.2.4.5.4.8h-.4c0-.2-.1-.4-.3-.5-.2-.1-.4-.2-.7-.2-.3 0-.5.1-.6.2-.2.1-.2.3-.2.5s.1.3.2.4.4.2.7.3c.4.1.6.2.8.3s.3.2.4.3c.1.1.1.3.1.5 0 .3-.1.6-.4.7-.3.2-.6.3-1 .3s-.8-.1-1-.3c-.3-.2-.4-.5-.4-.8h.4c0 .2.1.4.3.6.2.1.4.2.7.2.3 0 .5-.1.7-.2.1-.2.2-.4.2-.6zM271.8 77.9h-1.6v-.3h1.6v.3zM273.9 79.6c.3 0 .5-.1.7-.2.2-.2.3-.4.3-.6h.4c0 .2-.1.4-.2.6s-.3.3-.5.4c-.2.1-.4.2-.7.2-.5 0-.9-.2-1.2-.5-.3-.3-.4-.8-.4-1.4V78c0-.4.1-.7.2-1s.3-.5.5-.6c.2-.2.5-.2.8-.2.4 0 .7.1 1 .4.3.2.4.6.4 1h-.4c0-.3-.1-.5-.3-.7s-.4-.3-.7-.3c-.4 0-.7.1-.9.4s-.3.6-.3 1.1v.1c0 .5.1.8.3 1.1.3.2.6.3 1 .3zM275.9 78c0-.4.1-.7.2-1 .1-.3.3-.5.6-.7.3-.2.5-.2.9-.2.5 0 .9.2 1.2.5.3.3.5.8.5 1.4v.1c0 .4-.1.7-.2 1s-.3.5-.6.7c-.3.2-.5.2-.9.2-.5 0-.9-.2-1.2-.5-.4-.4-.5-.9-.5-1.5zm.4.1c0 .4.1.8.3 1.1.2.3.5.4.9.4s.7-.1.9-.4c.2-.3.3-.7.3-1.1V78c0-.3-.1-.5-.2-.8-.1-.2-.3-.4-.4-.5s-.4-.2-.6-.2c-.4 0-.7.1-.9.4-.2.3-.3.7-.3 1.2zM280.4 76.2v.6c.1-.2.3-.4.5-.5.2-.1.4-.2.7-.2.4 0 .7.1.9.3.2.2.3.6.3 1v2.4h-.4v-2.4c0-.3-.1-.6-.2-.7-.1-.2-.4-.2-.7-.2-.3 0-.5.1-.7.2-.2.2-.3.4-.4.6v2.5h-.4v-3.7h.4zM286.1 78.9c0-.2-.1-.4-.2-.5s-.4-.2-.7-.3c-.3-.1-.6-.1-.8-.2-.2-.1-.3-.2-.4-.3s-.1-.3-.1-.5c0-.3.1-.5.4-.7.2-.2.6-.3.9-.3.4 0 .7.1 1 .3.2.2.4.5.4.8h-.4c0-.2-.1-.4-.3-.5-.2-.1-.4-.2-.7-.2-.3 0-.5.1-.6.2-.2.1-.2.3-.2.5s.1.3.2.4.4.2.7.3c.4.1.6.2.8.3s.3.2.4.3c.1.1.1.3.1.5 0 .3-.1.6-.4.7-.3.2-.6.3-1 .3s-.8-.1-1-.3c-.3-.2-.4-.5-.4-.8h.4c0 .2.1.4.3.6.2.1.4.2.7.2.3 0 .5-.1.7-.2.1-.2.2-.4.2-.6zM289.8 79.4c-.2.4-.6.5-1.2.5-.4 0-.7-.1-.9-.3-.2-.2-.3-.6-.3-1v-2.4h.4v2.4c0 .7.3 1.1.9 1.1.6 0 1-.2 1.1-.7v-2.7h.4V80h-.4v-.6zM291.6 76.2v.6c.1-.2.3-.4.5-.5.2-.1.4-.2.7-.2.6 0 1 .2 1.1.7.1-.2.3-.4.5-.5.2-.1.5-.2.7-.2.8 0 1.2.4 1.2 1.3v2.5h-.3v-2.4c0-.3-.1-.6-.2-.7-.1-.2-.4-.2-.7-.2-.3 0-.5.1-.7.3-.2.2-.3.4-.3.7V80h-.4v-2.5c0-.3-.1-.6-.2-.7-.1-.2-.4-.2-.7-.2-.3 0-.5.1-.7.2-.2.1-.3.4-.4.7V80h-.4v-3.7h.3zM298.9 80c-.3 0-.6-.1-.9-.2-.3-.2-.5-.4-.6-.6-.1-.3-.2-.6-.2-.9V78c0-.4.1-.7.2-1 .1-.3.3-.5.6-.7.2-.2.5-.2.8-.2.4 0 .8.2 1.1.5.3.3.4.7.4 1.3v.2h-2.6v.1c0 .4.1.8.4 1s.5.4.9.4c.2 0 .4 0 .6-.1.2-.1.3-.2.5-.4l.3.2c-.5.4-.9.7-1.5.7zm-.1-3.5c-.3 0-.6.1-.8.3s-.3.5-.4.9h2.2c0-.4-.1-.6-.3-.9-.1-.2-.4-.3-.7-.3zM302.8 76.5h-.3c-.3 0-.5.1-.6.2-.2.1-.3.3-.4.6v2.5h-.4v-3.7h.4v.6c.2-.4.6-.7 1-.7h.3v.5zM305.7 78.9c0-.2-.1-.4-.2-.5s-.4-.2-.7-.3c-.3-.1-.6-.1-.8-.2-.2-.1-.3-.2-.4-.3s-.1-.3-.1-.5c0-.3.1-.5.4-.7.2-.2.6-.3.9-.3.4 0 .7.1 1 .3.2.2.4.5.4.8h-.4c0-.2-.1-.4-.3-.5-.2-.1-.4-.2-.7-.2-.3 0-.5.1-.6.2-.2.1-.2.3-.2.5s.1.3.2.4.4.2.7.3c.4.1.6.2.8.3s.3.2.4.3c.1.1.1.3.1.5 0 .3-.1.6-.4.7-.3.2-.6.3-1 .3s-.8-.1-1-.3c-.3-.2-.4-.5-.4-.8h.4c0 .2.1.4.3.6.2.1.4.2.7.2.3 0 .5-.1.7-.2.1-.2.2-.4.2-.6zM308.3 77.9h-1.6v-.3h1.6v.3zM312 79.9h-3.1v-.3l1.7-1.9c.3-.3.5-.6.6-.8s.2-.4.2-.6c0-.3-.1-.6-.3-.7-.2-.2-.4-.3-.8-.3-.3 0-.6.1-.8.3-.2.2-.3.5-.3.8h-.4c0-.3.1-.5.2-.8.1-.2.3-.4.5-.5.2-.1.5-.2.8-.2.5 0 .8.1 1.1.4.3.2.4.6.4 1 0 .2-.1.5-.2.8-.1.3-.4.6-.8 1l-1.4 1.6h2.6v.2zM315.8 77.8c0 .7-.1 1.2-.4 1.6s-.6.5-1.1.5c-.5 0-.9-.2-1.1-.5-.3-.4-.4-.9-.4-1.6V77c0-.7.1-1.2.4-1.6.3-.4.6-.5 1.1-.5.5 0 .9.2 1.1.5s.4.9.4 1.5v.9zm-.4-.9c0-.6-.1-1-.3-1.3-.2-.3-.5-.4-.8-.4-.4 0-.6.1-.8.4-.2.3-.3.7-.3 1.3v1c0 .6.1 1 .3 1.3s.5.5.8.5c.4 0 .6-.1.8-.4.2-.3.3-.7.3-1.3v-1.1zM319.8 79.9h-3.1v-.3l1.7-1.9c.3-.3.5-.6.6-.8s.2-.4.2-.6c0-.3-.1-.6-.3-.7-.2-.2-.4-.3-.8-.3-.3 0-.6.1-.8.3-.2.2-.3.5-.3.8h-.4c0-.3.1-.5.2-.8.1-.2.3-.4.5-.5.2-.1.5-.2.8-.2.5 0 .8.1 1.1.4.3.2.4.6.4 1 0 .2-.1.5-.2.8-.1.3-.4.6-.8 1l-1.4 1.6h2.6v.2zM322.5 79.9h-.4v-4.5l-1.4.5v-.4l1.7-.6h.1v5zM325.8 77.9h-1.6v-.3h1.6v.3zM329.4 77.8c0 .7-.1 1.2-.4 1.6s-.6.5-1.1.5c-.5 0-.9-.2-1.1-.5-.3-.4-.4-.9-.4-1.6V77c0-.7.1-1.2.4-1.6.3-.4.6-.5 1.1-.5.5 0 .9.2 1.1.5s.4.9.4 1.5v.9zm-.4-.9c0-.6-.1-1-.3-1.3-.2-.3-.5-.4-.8-.4-.4 0-.6.1-.8.4-.2.3-.3.7-.3 1.3v1c0 .6.1 1 .3 1.3s.5.5.8.5c.4 0 .6-.1.8-.4.2-.3.3-.7.3-1.3v-1.1z"/></g></svg>