<svg id="Layer_1" xmlns="http://www.w3.org/2000/svg" viewBox="0 0 728 90"><style>.st0{fill:#edf4fd}.st1{fill:#fff}</style><path class="st0" d="M235.2 32.5H232V16.9h3.2v15.6zM240.9 20.9l.1 1.3c.8-1 1.9-1.6 3.3-1.6 1.2 0 2.1.4 2.8 1.1s.9 1.8.9 3.2v7.5h-3.1V25c0-.7-.1-1.1-.4-1.4-.3-.3-.8-.4-1.4-.4-.9 0-1.5.4-2 1.1v8.2H238V20.9h2.9zM266.4 32.5h-10.7v-2.1l5.1-5.4c.7-.8 1.2-1.4 1.5-2s.5-1.1.5-1.6c0-.7-.2-1.2-.5-1.6-.4-.4-.9-.6-1.5-.6-.7 0-1.3.2-1.7.7-.4.5-.6 1.1-.6 1.9h-3.1c0-1 .2-1.8.7-2.6.5-.8 1.1-1.4 1.9-1.9.8-.4 1.8-.7 2.8-.7 1.6 0 2.9.4 3.8 1.2s1.3 1.9 1.3 3.3c0 .8-.2 1.6-.6 2.4-.4.8-1.1 1.7-2.1 2.8l-3.6 3.7h6.7v2.5zM278.8 26.1c0 2.2-.4 3.8-1.3 5-.9 1.1-2.2 1.7-3.9 1.7-1.7 0-3-.6-3.9-1.7s-1.4-2.7-1.4-4.8v-2.9c0-2.2.5-3.8 1.4-5 .9-1.1 2.2-1.7 3.9-1.7 1.7 0 3 .6 3.9 1.7.9 1.1 1.4 2.7 1.4 4.8v2.9zm-3.1-3.2c0-1.3-.2-2.2-.5-2.8-.4-.6-.9-.9-1.7-.9-.7 0-1.3.3-1.6.8-.3.6-.5 1.4-.6 2.6v3.8c0 1.3.2 2.2.5 2.8.3.6.9.9 1.7.9.8 0 1.3-.3 1.6-.9.3-.6.5-1.5.5-2.7v-3.6zM291.6 32.5h-10.7v-2.1L286 25c.7-.8 1.2-1.4 1.5-2s.5-1.1.5-1.6c0-.7-.2-1.2-.5-1.6-.4-.4-.9-.6-1.5-.6-.7 0-1.3.2-1.7.7-.4.5-.6 1.1-.6 1.9h-3.1c0-1 .2-1.8.7-2.6.5-.8 1.1-1.4 1.9-1.9.8-.4 1.8-.7 2.8-.7 1.6 0 2.9.4 3.8 1.2.9.8 1.3 1.9 1.3 3.3 0 .8-.2 1.6-.6 2.4s-1.1 1.7-2.1 2.8l-3.6 3.7h6.7v2.5zM301.1 32.5H298v-12l-3.7 1.1v-2.5l6.5-2.3h.3v15.7zM307.1 36.4l-1.6-.8.4-.7c.5-.9.7-1.7.7-2.6v-2.4h2.6V32c0 .8-.2 1.6-.6 2.4s-.9 1.5-1.5 2zM320.9 18v2.9h2v2.3h-2V29c0 .4.1.7.2.9s.5.3.9.3c.3 0 .6 0 .9-.1v2.4c-.6.2-1.2.3-1.9.3-2.2 0-3.3-1.1-3.3-3.3v-6.3H316v-2.3h1.7V18h3.2zM327.6 22.2c.8-1 1.9-1.5 3.1-1.5 2.5 0 3.8 1.5 3.8 4.4v7.4h-3.1v-7.4c0-.7-.1-1.2-.4-1.5-.3-.3-.8-.5-1.4-.5-.9 0-1.6.4-2 1.1v8.3h-3.1V16h3.1v6.2zM342.2 32.7c-1.7 0-3.1-.5-4.2-1.6-1.1-1-1.6-2.4-1.6-4.2v-.3c0-1.2.2-2.2.7-3.1.5-.9 1.1-1.6 1.9-2.1.8-.5 1.8-.7 2.8-.7 1.6 0 2.8.5 3.8 1.5.9 1 1.4 2.4 1.4 4.3v1.3h-7.4c.1.8.4 1.4.9 1.8.5.5 1.1.7 1.9.7 1.2 0 2.1-.4 2.8-1.3l1.5 1.7c-.5.7-1.1 1.2-1.9 1.5-.7.3-1.6.5-2.6.5zm-.3-9.5c-.6 0-1.1.2-1.5.6-.4.4-.6 1-.7 1.8h4.3v-.2c0-.7-.2-1.2-.6-1.6s-.9-.6-1.5-.6zM363.9 26.1h-6.2v6.4h-3.2V16.9h10.2v2.6h-7v4h6.2v2.6zM378.5 19.5h-4.8v13h-3.2v-13h-4.7v-2.6h12.7v2.6zM392.3 27.3c-.1 1.7-.7 3-1.9 4-1.1 1-2.6 1.5-4.4 1.5-2 0-3.6-.7-4.7-2-1.2-1.3-1.7-3.2-1.7-5.6v-1c0-1.5.3-2.8.8-4s1.3-2 2.3-2.6c1-.6 2.1-.9 3.4-.9 1.8 0 3.3.5 4.4 1.5s1.7 2.3 1.9 4.1h-3.2c-.1-1-.4-1.7-.8-2.2-.5-.5-1.2-.7-2.2-.7-1.1 0-1.9.4-2.4 1.2-.5.8-.8 2-.8 3.6v1.2c0 1.7.3 2.9.8 3.7.5.8 1.3 1.2 2.4 1.2 1 0 1.7-.2 2.2-.7.5-.5.8-1.2.8-2.1h3.1zM406.2 23.8c-.4-.1-.8-.1-1.1-.1-1.2 0-1.9.4-2.3 1.2v7.6h-3.1V20.9h2.9l.1 1.4c.6-1.1 1.5-1.6 2.6-1.6.3 0 .7 0 1 .1l-.1 3zM412.9 32.7c-1.7 0-3.1-.5-4.2-1.6-1.1-1-1.6-2.4-1.6-4.2v-.3c0-1.2.2-2.2.7-3.1.5-.9 1.1-1.6 1.9-2.1.8-.5 1.8-.7 2.8-.7 1.6 0 2.8.5 3.8 1.5.9 1 1.4 2.4 1.4 4.3v1.3h-7.4c.1.8.4 1.4.9 1.8.5.5 1.1.7 1.9.7 1.2 0 2.1-.4 2.8-1.3l1.5 1.7c-.5.7-1.1 1.2-1.9 1.5-.8.3-1.7.5-2.6.5zm-.4-9.5c-.6 0-1.1.2-1.5.6-.4.4-.6 1-.7 1.8h4.3v-.2c0-.7-.2-1.2-.6-1.6s-.8-.6-1.5-.6zM424.3 30.2c.6 0 1-.2 1.4-.5s.5-.7.6-1.3h2.9c0 .8-.2 1.5-.6 2.2-.4.7-1 1.2-1.7 1.5-.7.4-1.5.5-2.4.5-1.7 0-3-.5-3.9-1.6-1-1.1-1.4-2.5-1.4-4.4v-.2c0-1.8.5-3.2 1.4-4.3s2.3-1.6 3.9-1.6c1.5 0 2.6.4 3.5 1.2.9.8 1.3 1.9 1.3 3.3h-2.9c0-.6-.2-1.1-.6-1.5s-.8-.6-1.4-.6c-.7 0-1.3.3-1.6.8-.4.5-.6 1.4-.6 2.6v.3c0 1.2.2 2.1.5 2.6s.8 1 1.6 1zM436.2 32.7c-1.7 0-3.1-.5-4.2-1.6-1.1-1-1.6-2.4-1.6-4.2v-.3c0-1.2.2-2.2.7-3.1.5-.9 1.1-1.6 1.9-2.1.8-.5 1.8-.7 2.8-.7 1.6 0 2.8.5 3.8 1.5.9 1 1.4 2.4 1.4 4.3v1.3h-7.4c.1.8.4 1.4.9 1.8.5.5 1.1.7 1.9.7 1.2 0 2.1-.4 2.8-1.3l1.5 1.7c-.5.7-1.1 1.2-1.9 1.5-.7.3-1.6.5-2.6.5zm-.3-9.5c-.6 0-1.1.2-1.5.6-.4.4-.6 1-.7 1.8h4.3v-.2c0-.7-.2-1.2-.6-1.6s-.9-.6-1.5-.6zM442.8 17.9c0-.5.2-.8.5-1.1.3-.3.7-.5 1.3-.5.5 0 1 .2 1.3.5s.5.7.5 1.1c0 .5-.2.9-.5 1.2-.3.3-.7.5-1.3.5s-.9-.2-1.3-.5c-.4-.4-.5-.7-.5-1.2zm3.3 14.6H443V20.9h3.1v11.6zM453 28.7l2.2-7.8h3.2l-3.9 11.6h-3l-3.9-11.6h3.2l2.2 7.8zM464.9 32.7c-1.7 0-3.1-.5-4.2-1.6-1.1-1-1.6-2.4-1.6-4.2v-.3c0-1.2.2-2.2.7-3.1.5-.9 1.1-1.6 1.9-2.1.8-.5 1.8-.7 2.8-.7 1.6 0 2.8.5 3.8 1.5.9 1 1.4 2.4 1.4 4.3v1.3h-7.4c.1.8.4 1.4.9 1.8.5.5 1.1.7 1.9.7 1.2 0 2.1-.4 2.8-1.3l1.5 1.7c-.5.7-1.1 1.2-1.9 1.5-.7.3-1.6.5-2.6.5zm-.3-9.5c-.6 0-1.1.2-1.5.6-.4.4-.6 1-.7 1.8h4.3v-.2c0-.7-.2-1.2-.6-1.6s-.8-.6-1.5-.6zM471 26.6c0-1.8.4-3.3 1.2-4.3.8-1.1 1.9-1.6 3.3-1.6 1.1 0 2.1.4 2.8 1.3v-6h3.1v16.5h-2.8l-.2-1.2c-.8 1-1.8 1.5-3 1.5-1.4 0-2.5-.5-3.3-1.6-.7-1.2-1.1-2.7-1.1-4.6zm3.1.3c0 1.1.2 1.9.6 2.5s.9.9 1.7.9c1 0 1.6-.4 2-1.2v-4.6c-.4-.8-1.1-1.2-2-1.2-1.5-.1-2.3 1.1-2.3 3.6zM492.2 20.9l.1 1.3c.8-1 1.9-1.6 3.3-1.6 1.2 0 2.1.4 2.8 1.1s.9 1.8.9 3.2v7.5h-3.1V25c0-.7-.1-1.1-.4-1.4-.3-.3-.8-.4-1.4-.4-.9 0-1.5.4-2 1.1v8.2h-3.1V20.9h2.9zM507 32.7c-1.7 0-3.1-.5-4.2-1.6-1.1-1-1.6-2.4-1.6-4.2v-.3c0-1.2.2-2.2.7-3.1.5-.9 1.1-1.6 1.9-2.1.8-.5 1.8-.7 2.8-.7 1.6 0 2.8.5 3.8 1.5.9 1 1.4 2.4 1.4 4.3v1.3h-7.4c.1.8.4 1.4.9 1.8.5.5 1.1.7 1.9.7 1.2 0 2.1-.4 2.8-1.3l1.5 1.7c-.5.7-1.1 1.2-1.9 1.5-.7.3-1.6.5-2.6.5zm-.3-9.5c-.6 0-1.1.2-1.5.6-.4.4-.6 1-.7 1.8h4.3v-.2c0-.7-.2-1.2-.6-1.6s-.9-.6-1.5-.6zM520.3 32.5c-.1-.3-.2-.6-.3-1-.8.8-1.7 1.3-2.9 1.3-1.1 0-2.1-.3-2.8-1-.7-.7-1.1-1.5-1.1-2.5 0-1.2.5-2.2 1.4-2.8.9-.7 2.2-1 4-1h1.4v-.7c0-.5-.1-1-.4-1.3-.3-.3-.7-.5-1.3-.5-.5 0-.9.1-1.2.4-.3.3-.4.6-.4 1h-3.1c0-.7.2-1.3.6-1.9s1-1 1.8-1.3c.8-.3 1.6-.5 2.6-.5 1.4 0 2.6.4 3.4 1.1.8.7 1.3 1.7 1.3 3v5c0 1.1.2 1.9.5 2.5v.2h-3.5zm-2.6-2.1c.5 0 .9-.1 1.3-.3.4-.2.7-.5.9-.8v-2h-1.2c-1.6 0-2.4.5-2.5 1.6v.2c0 .4.1.7.4 1s.7.3 1.1.3zM531.9 23.8c-.4-.1-.8-.1-1.1-.1-1.2 0-1.9.4-2.3 1.2v7.6h-3.1V20.9h2.9l.1 1.4c.6-1.1 1.5-1.6 2.6-1.6.3 0 .7 0 1 .1l-.1 3zM536.7 32.5h-3.1V16h3.1v16.5zM543.6 28.1l2.1-7.2h3.3l-4.7 13.4-.3.6c-.7 1.5-1.8 2.3-3.4 2.3-.5 0-.9-.1-1.4-.2v-2.4h.5c.6 0 1-.1 1.3-.3.3-.2.5-.5.7-.9l.4-1-4.1-11.7h3.3l2.3 7.4zM239 56.5h-3.1v-12l-3.7 1.1v-2.5l6.5-2.3h.3v15.7zM244.4 55c0-.5.2-.9.5-1.2s.8-.5 1.3-.5.9.2 1.3.5.5.7.5 1.2-.2.9-.5 1.2c-.3.3-.8.5-1.3.5s-.9-.2-1.3-.5-.5-.7-.5-1.2zM259.7 50.6h1.8v2.5h-1.8v3.4h-3.1v-3.4h-6.4l-.1-2 6.5-10.3h3.1v9.8zm-6.6 0h3.5v-5.5l-.2.4-3.3 5.1zM271.6 44.9l.1 1.3c.8-1 1.9-1.5 3.3-1.5 1.5 0 2.5.6 3.1 1.8.8-1.2 2-1.8 3.5-1.8 1.3 0 2.2.4 2.8 1.1.6.7.9 1.8.9 3.3v7.4h-3.1v-7.4c0-.7-.1-1.1-.4-1.4-.3-.3-.7-.5-1.4-.5-.9 0-1.6.4-1.9 1.3v8h-3.1v-7.4c0-.7-.1-1.2-.4-1.5-.3-.3-.7-.5-1.4-.5-.9 0-1.5.4-1.9 1.1v8.2h-3.1V44.9h3zM287.7 41.9c0-.5.2-.8.5-1.1s.7-.5 1.3-.5c.5 0 1 .2 1.3.5s.5.7.5 1.1c0 .5-.2.9-.5 1.2-.3.3-.7.5-1.3.5s-.9-.2-1.3-.5c-.3-.4-.5-.7-.5-1.2zm3.3 14.6h-3.1V44.9h3.1v11.6zM296.9 56.5h-3.1V40h3.1v16.5zM302.7 56.5h-3.1V40h3.1v16.5zM305.2 41.9c0-.5.2-.8.5-1.1.3-.3.7-.5 1.3-.5.5 0 1 .2 1.3.5s.5.7.5 1.1c0 .5-.2.9-.5 1.2-.3.3-.7.5-1.3.5s-.9-.2-1.3-.5c-.3-.4-.5-.7-.5-1.2zm3.3 14.6h-3.1V44.9h3.1v11.6zM310.6 50.6c0-1.2.2-2.2.7-3.1s1.1-1.6 1.9-2.1c.8-.5 1.8-.7 2.9-.7 1.6 0 2.8.5 3.8 1.4 1 1 1.5 2.3 1.7 3.9v.8c0 1.8-.5 3.2-1.5 4.3-1 1.1-2.3 1.6-4 1.6s-3-.5-4-1.6-1.5-2.5-1.5-4.4v-.1zm3.1.2c0 1.1.2 1.9.6 2.5.4.6 1 .9 1.8.9s1.3-.3 1.8-.9.6-1.5.6-2.8c0-1.1-.2-1.9-.6-2.5-.4-.6-1-.9-1.8-.9s-1.3.3-1.8.9-.6 1.6-.6 2.8zM326.4 44.9l.1 1.3c.8-1 1.9-1.6 3.3-1.6 1.2 0 2.1.4 2.8 1.1.6.7.9 1.8.9 3.2v7.5h-3.1V49c0-.7-.1-1.1-.4-1.4-.3-.3-.8-.4-1.4-.4-.9 0-1.5.4-2 1.1v8.2h-3.1V44.9h2.9zM347.9 47.8c-.4-.1-.8-.1-1.1-.1-1.2 0-1.9.4-2.3 1.2v7.6h-3.1V44.9h2.9l.1 1.4c.6-1.1 1.5-1.6 2.6-1.6.3 0 .7 0 1 .1l-.1 3zM354.5 56.7c-1.7 0-3.1-.5-4.2-1.6-1.1-1-1.6-2.4-1.6-4.2v-.3c0-1.2.2-2.2.7-3.1.5-.9 1.1-1.6 1.9-2.1.8-.5 1.8-.7 2.8-.7 1.6 0 2.8.5 3.8 1.5.9 1 1.4 2.4 1.4 4.3v1.3h-7.4c.1.8.4 1.4.9 1.8.5.5 1.1.7 1.9.7 1.2 0 2.1-.4 2.8-1.3l1.5 1.7c-.5.7-1.1 1.2-1.9 1.5-.8.3-1.6.5-2.6.5zm-.4-9.5c-.6 0-1.1.2-1.5.6-.4.4-.6 1-.7 1.8h4.3v-.2c0-.7-.2-1.2-.6-1.6s-.8-.6-1.5-.6zM371.5 50.8c0 1.8-.4 3.2-1.2 4.3-.8 1.1-1.9 1.6-3.3 1.6-1.2 0-2.1-.4-2.8-1.2V61H361V44.9h2.9l.1 1.1c.8-.9 1.7-1.4 2.9-1.4 1.4 0 2.5.5 3.3 1.6.8 1.1 1.2 2.5 1.2 4.4v.2zm-3.1-.2c0-1.1-.2-1.9-.6-2.5-.4-.6-.9-.9-1.7-.9-1 0-1.6.4-2 1.1v4.8c.4.8 1.1 1.1 2 1.1 1.6 0 2.3-1.2 2.3-3.6zM372.9 50.6c0-1.2.2-2.2.7-3.1s1.1-1.6 1.9-2.1c.8-.5 1.8-.7 2.9-.7 1.6 0 2.8.5 3.8 1.4 1 1 1.5 2.3 1.7 3.9v.8c0 1.8-.5 3.2-1.5 4.3-1 1.1-2.3 1.6-4 1.6s-3-.5-4-1.6-1.5-2.5-1.5-4.4v-.1zm3.1.2c0 1.1.2 1.9.6 2.5.4.6 1 .9 1.8.9s1.3-.3 1.8-.9.6-1.5.6-2.8c0-1.1-.2-1.9-.6-2.5-.4-.6-1-.9-1.8-.9s-1.3.3-1.8.9-.6 1.6-.6 2.8zM392.4 47.8c-.4-.1-.8-.1-1.1-.1-1.2 0-1.9.4-2.3 1.2v7.6h-3.1V44.9h2.9l.1 1.4c.6-1.1 1.5-1.6 2.6-1.6.3 0 .7 0 1 .1l-.1 3zM398.1 42v2.9h2v2.3h-2V53c0 .4.1.7.2.9s.5.3.9.3c.3 0 .6 0 .9-.1v2.4c-.6.2-1.2.3-1.9.3-2.2 0-3.3-1.1-3.3-3.3v-6.3h-1.7v-2.3h1.7V42h3.2zM408.2 53.3c0-.4-.2-.7-.6-.9-.4-.2-1-.4-1.8-.6-2.8-.6-4.1-1.8-4.1-3.5 0-1 .4-1.9 1.3-2.6.9-.7 2-1 3.4-1 1.5 0 2.7.3 3.5 1 .9.7 1.3 1.6 1.3 2.7H408c0-.4-.1-.8-.4-1.1-.3-.3-.7-.4-1.3-.4-.5 0-.9.1-1.2.4s-.4.5-.4.9c0 .3.2.6.5.8.3.2.9.4 1.6.5.8.2 1.4.3 2 .5 1.6.6 2.5 1.6 2.5 3.1 0 1.1-.5 1.9-1.4 2.6-.9.7-2.1 1-3.5 1-1 0-1.8-.2-2.6-.5s-1.3-.8-1.8-1.4c-.4-.6-.6-1.3-.6-2h2.9c0 .6.2 1 .6 1.3s.9.4 1.5.4 1-.1 1.3-.3c.3-.2.5-.5.5-.9zM418.2 50.6c0-1.2.2-2.2.7-3.1s1.1-1.6 1.9-2.1c.8-.5 1.8-.7 2.9-.7 1.6 0 2.8.5 3.8 1.4 1 1 1.5 2.3 1.7 3.9v.8c0 1.8-.5 3.2-1.5 4.3-1 1.1-2.3 1.6-4 1.6s-3-.5-4-1.6-1.5-2.5-1.5-4.4v-.1zm3.1.2c0 1.1.2 1.9.6 2.5.4.6 1 .9 1.8.9s1.3-.3 1.8-.9.6-1.5.6-2.8c0-1.1-.2-1.9-.6-2.5-.4-.6-1-.9-1.8-.9s-1.3.3-1.8.9-.6 1.6-.6 2.8zM431.9 56.5v-9.3h-1.7v-2.3h1.7v-1c0-1.3.4-2.3 1.1-3 .7-.7 1.8-1.1 3.1-1.1.4 0 1 .1 1.6.2v2.4c-.3-.1-.6-.1-.9-.1-1.2 0-1.8.5-1.8 1.6v.9h2.3v2.3H435v9.3h-3.1zM444.4 41.9c0-.5.2-.8.5-1.1.3-.3.7-.5 1.3-.5.5 0 1 .2 1.3.5s.5.7.5 1.1c0 .5-.2.9-.5 1.2-.3.3-.7.5-1.3.5s-.9-.2-1.3-.5c-.3-.4-.5-.7-.5-1.2zm3.3 14.6h-3.1V44.9h3.1v11.6zM449.8 50.6c0-1.8.4-3.3 1.2-4.3.8-1.1 1.9-1.6 3.3-1.6 1.1 0 2.1.4 2.8 1.3v-6h3.1v16.5h-2.8l-.2-1.2c-.8 1-1.8 1.5-3 1.5-1.4 0-2.5-.5-3.3-1.6-.7-1.2-1.1-2.7-1.1-4.6zm3.1.3c0 1.1.2 1.9.6 2.5s.9.9 1.7.9c1 0 1.6-.4 2-1.2v-4.6c-.4-.8-1.1-1.2-2-1.2-1.5-.1-2.3 1.1-2.3 3.6zM468 56.7c-1.7 0-3.1-.5-4.2-1.6-1.1-1-1.6-2.4-1.6-4.2v-.3c0-1.2.2-2.2.7-3.1.5-.9 1.1-1.6 1.9-2.1.8-.5 1.8-.7 2.8-.7 1.6 0 2.8.5 3.8 1.5.9 1 1.4 2.4 1.4 4.3v1.3h-7.4c.1.8.4 1.4.9 1.8.5.5 1.1.7 1.9.7 1.2 0 2.1-.4 2.8-1.3l1.5 1.7c-.5.7-1.1 1.2-1.9 1.5-.7.3-1.6.5-2.6.5zm-.3-9.5c-.6 0-1.1.2-1.5.6-.4.4-.6 1-.7 1.8h4.3v-.2c0-.7-.2-1.2-.6-1.6s-.9-.6-1.5-.6zM477.4 44.9l.1 1.3c.8-1 1.9-1.6 3.3-1.6 1.2 0 2.1.4 2.8 1.1.6.7.9 1.8.9 3.2v7.5h-3.1V49c0-.7-.1-1.1-.4-1.4-.3-.3-.8-.4-1.4-.4-.9 0-1.5.4-2 1.1v8.2h-3.1V44.9h2.9zM490.6 42v2.9h2v2.3h-2V53c0 .4.1.7.2.9s.5.3.9.3c.3 0 .6 0 .9-.1v2.4c-.6.2-1.2.3-1.9.3-2.2 0-3.3-1.1-3.3-3.3v-6.3h-1.7v-2.3h1.7V42h3.2zM494.3 41.9c0-.5.2-.8.5-1.1.3-.3.7-.5 1.3-.5.5 0 1 .2 1.3.5s.5.7.5 1.1c0 .5-.2.9-.5 1.2-.3.3-.7.5-1.3.5s-.9-.2-1.3-.5c-.3-.4-.5-.7-.5-1.2zm3.3 14.6h-3.1V44.9h3.1v11.6zM503.9 42v2.9h2v2.3h-2V53c0 .4.1.7.2.9s.5.3.9.3c.3 0 .6 0 .9-.1v2.4c-.6.2-1.2.3-1.9.3-2.2 0-3.3-1.1-3.3-3.3v-6.3H499v-2.3h1.7V42h3.2zM511.9 52.1l2.1-7.2h3.3l-4.7 13.4-.3.6c-.7 1.5-1.8 2.3-3.4 2.3-.5 0-.9-.1-1.4-.2v-2.4h.5c.6 0 1-.1 1.3-.3.3-.2.5-.5.7-.9l.4-1-4.1-11.7h3.3l2.3 7.4zM527.8 42v2.9h2v2.3h-2V53c0 .4.1.7.2.9s.5.3.9.3c.3 0 .6 0 .9-.1v2.4c-.6.2-1.2.3-1.9.3-2.2 0-3.3-1.1-3.3-3.3v-6.3H523v-2.3h1.7V42h3.1zM534.6 46.2c.8-1 1.9-1.5 3.1-1.5 2.5 0 3.8 1.5 3.8 4.4v7.4h-3.1v-7.4c0-.7-.1-1.2-.4-1.5-.3-.3-.8-.5-1.4-.5-.9 0-1.6.4-2 1.1v8.3h-3.1V40h3.1v6.2zM549.2 56.7c-1.7 0-3.1-.5-4.2-1.6-1.1-1-1.6-2.4-1.6-4.2v-.3c0-1.2.2-2.2.7-3.1.5-.9 1.1-1.6 1.9-2.1.8-.5 1.8-.7 2.8-.7 1.6 0 2.8.5 3.8 1.5.9 1 1.4 2.4 1.4 4.3v1.3h-7.4c.1.8.4 1.4.9 1.8.5.5 1.1.7 1.9.7 1.2 0 2.1-.4 2.8-1.3l1.5 1.7c-.5.7-1.1 1.2-1.9 1.5-.7.3-1.6.5-2.6.5zm-.3-9.5c-.6 0-1.1.2-1.5.6-.4.4-.6 1-.7 1.8h4.3v-.2c0-.7-.2-1.2-.6-1.6s-.9-.6-1.5-.6zM556.6 56.5v-9.3h-1.7v-2.3h1.7v-1c0-1.3.4-2.3 1.1-3 .7-.7 1.8-1.1 3.1-1.1.4 0 1 .1 1.6.2v2.4c-.3-.1-.6-.1-.9-.1-1.2 0-1.8.5-1.8 1.6v.9h2.3v2.3h-2.3v9.3h-3.1zM567.4 42v2.9h2v2.3h-2V53c0 .4.1.7.2.9s.5.3.9.3c.3 0 .6 0 .9-.1v2.4c-.6.2-1.2.3-1.9.3-2.2 0-3.3-1.1-3.3-3.3v-6.3h-1.7v-2.3h1.7V42h3.2zM571.2 55c0-.5.2-.9.5-1.2.3-.3.8-.5 1.3-.5s.9.2 1.3.5c.3.3.5.7.5 1.2s-.2.9-.5 1.2c-.3.3-.8.5-1.3.5s-.9-.2-1.3-.5c-.3-.3-.5-.7-.5-1.2z"/><g><path class="st1" d="M233.5 70.2c0-.2-.1-.4-.2-.5l-.8-.4c-.4-.1-.7-.3-1-.4-.5-.3-.7-.7-.7-1.1 0-.4.2-.7.5-1s.8-.4 1.3-.4c.3 0 .7.1.9.2.3.1.5.3.6.5.2.2.2.5.2.8h-.9c0-.3-.1-.5-.2-.6-.2-.1-.4-.2-.7-.2-.3 0-.5.1-.7.2-.2.1-.2.3-.2.5s.1.3.3.5l.8.4c.4.1.7.2.9.4.2.1.4.3.5.5s.2.4.2.7c0 .4-.2.7-.5 1-.3.2-.7.4-1.3.4-.4 0-.7-.1-1-.2-.3-.1-.5-.3-.7-.6-.2-.2-.3-.5-.3-.8h.9c0 .3.1.5.3.7.2.2.5.2.8.2.3 0 .5-.1.7-.2.2-.2.3-.4.3-.6zM234.9 69.6c0-.4.1-.7.2-1 .1-.3.3-.5.6-.7.3-.2.6-.2.9-.2.5 0 .9.2 1.2.5.3.3.5.7.5 1.3v.2c0 .4-.1.7-.2 1-.1.3-.3.5-.6.7s-.6.2-.9.2c-.5 0-.9-.2-1.3-.5s-.4-.9-.4-1.5zm.8.1c0 .4.1.7.2.9.2.2.4.3.7.3.3 0 .5-.1.7-.3s.2-.5.2-1c0-.4-.1-.7-.2-.9-.2-.2-.4-.3-.7-.3-.3 0-.5.1-.6.3-.2.2-.3.5-.3 1zM241.3 71.1c-.2.3-.6.4-1 .4s-.7-.1-.9-.4c-.2-.2-.3-.6-.3-1v-2.4h.8v2.4c0 .5.2.7.6.7.4 0 .7-.1.8-.4v-2.7h.8v3.7h-.8v-.3zM244.9 68.5h-.3c-.4 0-.6.1-.8.4v2.5h-.8v-3.7h.8v.4c.2-.3.5-.5.8-.5h.3v.9zM246.8 70.9c.2 0 .4-.1.5-.2.1-.1.2-.3.2-.4h.8c0 .2-.1.4-.2.6-.1.2-.3.4-.5.5s-.5.2-.7.2c-.5 0-.9-.2-1.2-.5s-.5-.8-.5-1.4v-.1c0-.6.2-1 .5-1.4.3-.3.7-.5 1.2-.5.4 0 .8.1 1.1.4.3.3.4.6.4 1h-.8c0-.2-.1-.4-.2-.5s-.3-.2-.5-.2c-.3 0-.5.1-.6.3-.1.2-.2.5-.2.9v.1c0 .4.1.7.2.9s.3.3.5.3zM250.6 71.6c-.5 0-1-.2-1.3-.5-.3-.3-.5-.8-.5-1.3v-.1c0-.4.1-.7.2-1 .1-.3.3-.5.6-.7.3-.2.5-.2.9-.2.5 0 .9.2 1.2.5s.4.8.4 1.4v.3h-2.4c0 .3.1.5.3.7s.4.3.7.3c.4 0 .7-.2.9-.5l.4.4c-.1.2-.3.4-.6.5-.2.1-.5.2-.8.2zm-.1-3.2c-.2 0-.4.1-.6.2-.1.2-.2.4-.3.7h1.6v-.1c0-.3-.1-.5-.2-.6s-.3-.2-.5-.2zM253.2 67.7c.2 0 .3 0 .4.1s.1.2.1.3c0 .1 0 .2-.1.3-.1.1-.2.1-.4.1-.1 0-.3 0-.4-.1-.1-.1-.1-.2-.1-.3 0-.1 0-.2.1-.3.2 0 .3-.1.4-.1zm0 2.9c.2 0 .3 0 .4.1.1.1.1.2.1.3 0 .1 0 .2-.1.3-.1.1-.2.1-.4.1-.1 0-.3 0-.4-.1-.1-.1-.1-.2-.1-.3 0-.1 0-.2.1-.3.2 0 .3-.1.4-.1zM257 68.2c.3-.3.6-.5 1.1-.5.8 0 1.2.4 1.2 1.3v2.4h-.6V69c0-.3-.1-.5-.2-.6-.1-.1-.3-.2-.6-.2-.2 0-.4.1-.5.2-.2.1-.3.3-.4.4v2.6h-.6v-5.2h.6v2zM261.1 66.9v.9h.7v.5h-.7v2.3c0 .1 0 .3.1.3s.2.1.3.1h.3v.5c-.2 0-.3.1-.5.1-.3 0-.5-.1-.6-.3-.1-.2-.2-.4-.2-.7v-2.3h-.7v-.5h.7v-.9h.6zM263.4 66.9v.9h.7v.5h-.7v2.3c0 .1 0 .3.1.3s.2.1.3.1h.3v.5c-.2 0-.3.1-.5.1-.3 0-.5-.1-.6-.3-.1-.2-.2-.4-.2-.7v-2.3h-.8v-.5h.7v-.9h.7zM267.9 69.7c0 .6-.1 1-.4 1.4-.3.3-.6.5-1 .5s-.8-.1-1.1-.4V73h-.6v-5.1h.6v.4c.3-.3.6-.5 1.1-.5.4 0 .8.2 1.1.5s.3.7.3 1.4zm-.6-.1c0-.4-.1-.7-.3-1-.2-.2-.4-.4-.7-.4-.4 0-.7.2-.9.5v1.8c.2.3.5.5.9.5.3 0 .5-.1.7-.4s.3-.5.3-1zM270.9 70.5c0-.2-.1-.3-.2-.4-.1-.1-.4-.2-.7-.2s-.6-.2-.8-.2c-.2-.1-.3-.2-.4-.3-.1-.1-.1-.3-.1-.5 0-.3.1-.6.4-.8.3-.2.6-.3 1-.3s.8.1 1 .3c.3.2.4.5.4.8h-.6c0-.2-.1-.3-.2-.4-.1-.1-.3-.2-.6-.2-.2 0-.4 0-.5.2-.1.1-.2.2-.2.4s.1.3.2.3c.1.1.3.2.7.2.3.1.6.2.8.3.2.1.3.2.4.4.1.1.1.3.1.5 0 .3-.1.6-.4.8-.3.2-.6.3-1 .3-.3 0-.6-.1-.8-.2-.2-.1-.4-.3-.5-.4-.1-.2-.2-.4-.2-.6h.6c0 .2.1.4.3.5.2.1.4.2.6.2.2 0 .4 0 .6-.1 0-.3.1-.4.1-.6zM272.3 71.2c0-.1 0-.2.1-.3.1-.1.2-.1.3-.1s.2 0 .3.1c.1.1.1.2.1.3 0 .1 0 .2-.1.3-.1.1-.2.1-.3.1s-.2 0-.3-.1c-.1-.2-.1-.2-.1-.3zm0-3.1c0-.1 0-.2.1-.3.1-.1.2-.1.3-.1.1 0 .2 0 .3.1.1.1.1.2.1.3 0 .1 0 .2-.1.3-.1.1-.2.1-.3.1-.1 0-.2 0-.3-.1-.1-.1-.1-.2-.1-.3zM274.1 71.9h-.5l2.1-5.4h.5l-2.1 5.4zM276.3 71.9h-.5l2.1-5.4h.5l-2.1 5.4zM282.3 70.6l.7-2.8h.6l-1.1 3.7h-.5l-.9-2.8-.9 2.8h-.5l-1.1-3.7h.6l.7 2.8.9-2.8h.5l1 2.8zM287.6 70.6l.7-2.8h.6l-1.1 3.7h-.5l-.9-2.8-.9 2.8h-.5l-1.1-3.7h.6l.7 2.8.9-2.8h.5l1 2.8zM292.8 70.6l.7-2.8h.6l-1.1 3.7h-.5l-.9-2.8-.9 2.8h-.5l-1.1-3.7h.6l.7 2.8.9-2.8h.5l1 2.8zM294.4 71.2c0-.1 0-.2.1-.3.1-.1.2-.1.3-.1s.2 0 .3.1c.1.1.1.2.1.3 0 .1 0 .2-.1.3-.1.1-.2.1-.3.1s-.2 0-.3-.1c-.1-.2-.1-.2-.1-.3zM296.5 71.5v-3.2h-.6v-.5h.6v-.4c0-.4.1-.7.3-.9.2-.2.5-.3.9-.3.1 0 .3 0 .4.1v.5h-.3c-.2 0-.4.1-.5.2-.1.1-.2.3-.2.5v.4h.8v.5h-.8v3.2h-.6zM299.5 66.9v.9h.7v.5h-.7v2.3c0 .1 0 .3.1.3s.2.1.3.1h.3v.5c-.2 0-.3.1-.5.1-.3 0-.5-.1-.6-.3-.1-.2-.2-.4-.2-.7v-2.3h-.7v-.5h.7v-.9h.6zM302.4 71c.2 0 .4-.1.6-.2.2-.1.3-.3.3-.5h.6c0 .2-.1.4-.2.6s-.3.3-.5.5c-.2.1-.5.2-.7.2-.5 0-.9-.2-1.2-.5-.3-.3-.4-.8-.4-1.4v-.1c0-.4.1-.7.2-1s.3-.5.6-.7c.2-.2.5-.2.9-.2s.8.1 1 .4c.3.2.4.6.4 1h-.6c0-.2-.1-.4-.3-.6-.2-.2-.4-.2-.6-.2-.3 0-.6.1-.7.3s-.3.6-.3 1v.1c0 .4.1.8.3 1 0 .2.3.3.6.3zM304.6 71.2c0-.1 0-.2.1-.3.1-.1.2-.1.3-.1s.2 0 .3.1c.1.1.1.2.1.3 0 .1 0 .2-.1.3-.1.1-.2.1-.3.1s-.2 0-.3-.1c-.1-.2-.1-.2-.1-.3zM306.3 69.6c0-.6.1-1 .4-1.4.3-.3.6-.5 1.1-.5.5 0 .8.2 1.1.5v-.4h.6v3.6c0 .5-.1.9-.4 1.1-.3.3-.7.4-1.1.4-.3 0-.5-.1-.8-.2-.3-.1-.5-.3-.6-.5l.3-.4c.3.3.6.5 1 .5.3 0 .5-.1.7-.3.2-.2.3-.4.3-.7V71c-.3.3-.6.4-1 .4s-.8-.2-1.1-.5-.5-.7-.5-1.3zm.6.1c0 .4.1.7.3 1 .2.2.4.4.7.4.4 0 .7-.2.9-.5v-1.7c-.2-.4-.5-.5-.9-.5-.3 0-.5.1-.7.4s-.3.4-.3.9zM310.2 69.6c0-.4.1-.7.2-1 .1-.3.3-.5.6-.7s.5-.2.9-.2c.5 0 .9.2 1.2.5.3.3.5.8.5 1.4 0 .4-.1.7-.2 1-.1.3-.3.5-.6.7-.3.2-.6.2-.9.2-.5 0-.9-.2-1.2-.5-.3-.3-.5-.8-.5-1.4zm.6.1c0 .4.1.7.3 1 .2.2.4.4.8.4.3 0 .6-.1.8-.4.2-.3.3-.6.3-1.1 0-.4-.1-.7-.3-1-.2-.3-.4-.4-.8-.4-.3 0-.6.1-.8.4-.2.3-.3.6-.3 1.1zM315.5 70.6l.9-2.8h.6l-1.3 3.7h-.5l-1.3-3.7h.6l1 2.8zM317.8 71.9h-.5l2.1-5.4h.5l-2.1 5.4zM321.2 67.8v.5c.3-.4.7-.5 1.1-.5.8 0 1.2.4 1.2 1.3v2.4h-.6V69c0-.3-.1-.5-.2-.6-.1-.1-.3-.2-.6-.2-.2 0-.4.1-.5.2-.2.1-.3.3-.4.4v2.6h-.6v-3.7h.6zM326 71.6c-.5 0-.9-.2-1.2-.5s-.5-.8-.5-1.3v-.1c0-.4.1-.7.2-1 .1-.3.3-.5.6-.7s.5-.2.8-.2c.5 0 .9.2 1.1.5.3.3.4.8.4 1.4v.3h-2.5c0 .4.1.7.3.9.2.2.5.3.8.3.2 0 .4 0 .6-.1.2-.1.3-.2.4-.4l.4.3c-.3.3-.8.6-1.4.6zm-.1-3.4c-.3 0-.5.1-.6.3s-.3.4-.3.8h1.9c0-.3-.1-.6-.3-.7s-.4-.4-.7-.4zM331.4 70.6l.7-2.8h.6l-1.1 3.7h-.5l-.9-2.8-.9 2.8h-.5l-1.1-3.7h.6l.7 2.8.9-2.8h.5l1 2.8zM335.6 70.5c0-.2-.1-.3-.2-.4-.1-.1-.4-.2-.7-.2s-.6-.2-.8-.2c-.2-.1-.3-.2-.4-.3-.1-.1-.1-.3-.1-.5 0-.3.1-.6.4-.8.3-.2.6-.3 1-.3s.8.1 1 .3c.3.2.4.5.4.8h-.6c0-.2-.1-.3-.2-.4-.1-.1-.3-.2-.6-.2-.2 0-.4 0-.5.2-.1.1-.2.2-.2.4s.1.3.2.3c.1.1.3.2.7.2.3.1.6.2.8.3.2.1.3.2.4.4.1.1.1.3.1.5 0 .3-.1.6-.4.8-.3.2-.6.3-1 .3-.3 0-.6-.1-.8-.2-.2-.1-.4-.3-.5-.4-.1-.2-.2-.4-.2-.6h.6c0 .2.1.4.3.5.2.1.4.2.6.2.2 0 .4 0 .6-.1 0-.3.1-.4.1-.6zM338.3 69.6h-1.7v-.5h1.7v.5zM340.5 71.6c-.5 0-.9-.2-1.2-.5s-.5-.8-.5-1.3v-.1c0-.4.1-.7.2-1 .1-.3.3-.5.6-.7s.5-.2.8-.2c.5 0 .9.2 1.1.5.3.3.4.8.4 1.4v.3h-2.5c0 .4.1.7.3.9.2.2.5.3.8.3.2 0 .4 0 .6-.1.2-.1.3-.2.4-.4l.4.3c-.3.3-.8.6-1.4.6zm-.1-3.4c-.3 0-.5.1-.6.3s-.3.4-.3.8h1.9c0-.3-.1-.6-.3-.7s-.4-.4-.7-.4zM343.8 70.6l.9-2.8h.6l-1.3 3.7h-.5l-1.3-3.7h.6l1 2.8zM347.5 71.6c-.5 0-.9-.2-1.2-.5s-.5-.8-.5-1.3v-.1c0-.4.1-.7.2-1 .1-.3.3-.5.6-.7s.5-.2.8-.2c.5 0 .9.2 1.1.5.3.3.4.8.4 1.4v.3h-2.5c0 .4.1.7.3.9.2.2.5.3.8.3.2 0 .4 0 .6-.1.2-.1.3-.2.4-.4l.4.3c-.3.3-.8.6-1.4.6zm-.1-3.4c-.3 0-.5.1-.6.3s-.3.4-.3.8h1.9c0-.3-.1-.6-.3-.7s-.4-.4-.7-.4zM350.3 67.8v.5c.3-.4.7-.5 1.1-.5.8 0 1.2.4 1.2 1.3v2.4h-.6V69c0-.3-.1-.5-.2-.6-.1-.1-.3-.2-.6-.2-.2 0-.4.1-.5.2-.2.1-.3.3-.4.4v2.6h-.6v-3.7h.6zM354.4 66.9v.9h.7v.5h-.7v2.3c0 .1 0 .3.1.3s.2.1.3.1h.3v.5c-.2 0-.3.1-.5.1-.3 0-.5-.1-.6-.3-.1-.2-.2-.4-.2-.7v-2.3h-.7v-.5h.7v-.9h.6zM358 70.5c0-.2-.1-.3-.2-.4-.1-.1-.4-.2-.7-.2s-.6-.2-.8-.2c-.2-.1-.3-.2-.4-.3-.1-.1-.1-.3-.1-.5 0-.3.1-.6.4-.8.3-.2.6-.3 1-.3s.8.1 1 .3c.3.2.4.5.4.8h-.6c0-.2-.1-.3-.2-.4-.1-.1-.3-.2-.6-.2-.2 0-.4 0-.5.2-.1.1-.2.2-.2.4s.1.3.2.3c.1.1.3.2.7.2.3.1.6.2.8.3.2.1.3.2.4.4.1.1.1.3.1.5 0 .3-.1.6-.4.8-.3.2-.6.3-1 .3-.3 0-.6-.1-.8-.2-.2-.1-.4-.3-.5-.4-.1-.2-.2-.4-.2-.6h.6c0 .2.1.4.3.5.2.1.4.2.6.2.2 0 .4 0 .6-.1 0-.3.1-.4.1-.6zM359.6 71.9h-.6l2.1-5.4h.5l-2 5.4zM362.9 67.8v.5c.3-.4.7-.5 1.1-.5.8 0 1.2.4 1.2 1.3v2.4h-.6V69c0-.3-.1-.5-.2-.6-.1-.1-.3-.2-.6-.2-.2 0-.4.1-.5.2-.2.1-.3.3-.4.4v2.6h-.6v-3.7h.6zM367.7 71.6c-.5 0-.9-.2-1.2-.5s-.5-.8-.5-1.3v-.1c0-.4.1-.7.2-1 .1-.3.3-.5.6-.7s.5-.2.8-.2c.5 0 .9.2 1.1.5.3.3.4.8.4 1.4v.3h-2.5c0 .4.1.7.3.9.2.2.5.3.8.3.2 0 .4 0 .6-.1.2-.1.3-.2.4-.4l.4.3c-.3.3-.8.6-1.4.6zm-.1-3.4c-.3 0-.5.1-.6.3s-.3.4-.3.8h1.9c0-.3-.1-.6-.3-.7s-.4-.4-.7-.4zM373.2 70.6l.7-2.8h.6l-1.1 3.7h-.5l-.9-2.8-.9 2.8h-.5l-1.1-3.7h.6l.7 2.8.9-2.8h.5l1 2.8zM377.3 70.5c0-.2-.1-.3-.2-.4-.1-.1-.4-.2-.7-.2s-.6-.2-.8-.2c-.2-.1-.3-.2-.4-.3-.1-.1-.1-.3-.1-.5 0-.3.1-.6.4-.8.3-.2.6-.3 1-.3s.8.1 1 .3c.3.2.4.5.4.8h-.6c0-.2-.1-.3-.2-.4-.1-.1-.3-.2-.6-.2-.2 0-.4 0-.5.2-.1.1-.2.2-.2.4s.1.3.2.3c.1.1.3.2.7.2.3.1.6.2.8.3.2.1.3.2.4.4.1.1.1.3.1.5 0 .3-.1.6-.4.8-.3.2-.6.3-1 .3-.3 0-.6-.1-.8-.2-.2-.1-.4-.3-.5-.4-.1-.2-.2-.4-.2-.6h.6c0 .2.1.4.3.5.2.1.4.2.6.2.2 0 .4 0 .6-.1 0-.3.1-.4.1-.6zM378.9 71.9h-.5l2.1-5.4h.5l-2.1 5.4zM384.8 69.7c0 .6-.1 1-.4 1.4-.3.3-.6.5-1 .5s-.8-.1-1.1-.4V73h-.6v-5.1h.6v.4c.3-.3.6-.5 1.1-.5.4 0 .8.2 1.1.5s.3.7.3 1.4zm-.7-.1c0-.4-.1-.7-.3-1-.2-.2-.4-.4-.7-.4-.4 0-.7.2-.9.5v1.8c.2.3.5.5.9.5.3 0 .5-.1.7-.4s.3-.5.3-1zM387.4 68.4h-.3c-.4 0-.7.2-.8.5v2.6h-.6v-3.7h.6v.4c.2-.3.5-.5.9-.5h.3v.7zM389.4 71.6c-.5 0-.9-.2-1.2-.5s-.5-.8-.5-1.3v-.1c0-.4.1-.7.2-1 .1-.3.3-.5.6-.7s.5-.2.8-.2c.5 0 .9.2 1.1.5.3.3.4.8.4 1.4v.3h-2.5c0 .4.1.7.3.9.2.2.5.3.8.3.2 0 .4 0 .6-.1.2-.1.3-.2.4-.4l.4.3c-.3.3-.8.6-1.4.6zm-.1-3.4c-.3 0-.5.1-.6.3s-.3.4-.3.8h1.9c0-.3-.1-.6-.3-.7s-.4-.4-.7-.4zM393.7 70.5c0-.2-.1-.3-.2-.4-.1-.1-.4-.2-.7-.2s-.6-.2-.8-.2c-.2-.1-.3-.2-.4-.3-.1-.1-.1-.3-.1-.5 0-.3.1-.6.4-.8.3-.2.6-.3 1-.3s.8.1 1 .3c.3.2.4.5.4.8h-.6c0-.2-.1-.3-.2-.4-.1-.1-.3-.2-.6-.2-.2 0-.4 0-.5.2-.1.1-.2.2-.2.4s.1.3.2.3c.1.1.3.2.7.2.3.1.6.2.8.3.2.1.3.2.4.4.1.1.1.3.1.5 0 .3-.1.6-.4.8-.3.2-.6.3-1 .3-.3 0-.6-.1-.8-.2-.2-.1-.4-.3-.5-.4-.1-.2-.2-.4-.2-.6h.6c0 .2.1.4.3.5.2.1.4.2.6.2.2 0 .4 0 .6-.1.1-.3.1-.4.1-.6zM397.3 70.5c0-.2-.1-.3-.2-.4-.1-.1-.4-.2-.7-.2s-.6-.2-.8-.2c-.2-.1-.3-.2-.4-.3-.1-.1-.1-.3-.1-.5 0-.3.1-.6.4-.8.3-.2.6-.3 1-.3s.8.1 1 .3c.3.2.4.5.4.8h-.6c0-.2-.1-.3-.2-.4-.1-.1-.3-.2-.6-.2-.2 0-.4 0-.5.2-.1.1-.2.2-.2.4s.1.3.2.3c.1.1.3.2.7.2.3.1.6.2.8.3.2.1.3.2.4.4.1.1.1.3.1.5 0 .3-.1.6-.4.8-.3.2-.6.3-1 .3-.3 0-.6-.1-.8-.2-.2-.1-.4-.3-.5-.4-.1-.2-.2-.4-.2-.6h.6c0 .2.1.4.3.5.2.1.4.2.6.2.2 0 .4 0 .6-.1.1-.3.1-.4.1-.6zM400.1 69.6h-1.7v-.5h1.7v.5zM402.5 68.4h-.3c-.4 0-.7.2-.8.5v2.6h-.6v-3.7h.6v.4c.2-.3.5-.5.9-.5h.3v.7zM404.6 71.6c-.5 0-.9-.2-1.2-.5s-.5-.8-.5-1.3v-.1c0-.4.1-.7.2-1 .1-.3.3-.5.6-.7s.5-.2.8-.2c.5 0 .9.2 1.1.5.3.3.4.8.4 1.4v.3h-2.5c0 .4.1.7.3.9.2.2.5.3.8.3.2 0 .4 0 .6-.1.2-.1.3-.2.4-.4l.4.3c-.3.3-.8.6-1.4.6zm-.1-3.4c-.3 0-.5.1-.6.3s-.3.4-.3.8h1.9c0-.3-.1-.6-.3-.7s-.4-.4-.7-.4zM407.4 71.5h-.6v-5.2h.6v5.2zM410 71.6c-.5 0-.9-.2-1.2-.5s-.5-.8-.5-1.3v-.1c0-.4.1-.7.2-1 .1-.3.3-.5.6-.7s.5-.2.8-.2c.5 0 .9.2 1.1.5.3.3.4.8.4 1.4v.3h-2.5c0 .4.1.7.3.9.2.2.5.3.8.3.2 0 .4 0 .6-.1.2-.1.3-.2.4-.4l.4.3c-.3.3-.8.6-1.4.6zm-.1-3.4c-.3 0-.5.1-.6.3s-.3.4-.3.8h1.9c0-.3-.1-.6-.3-.7s-.4-.4-.7-.4zM414.4 71.5c0-.1-.1-.2-.1-.4-.3.3-.6.5-1.1.5-.4 0-.7-.1-.9-.3s-.3-.5-.3-.8c0-.4.1-.7.4-.9s.7-.3 1.2-.3h.6V69c0-.2-.1-.4-.2-.5-.1-.1-.3-.2-.6-.2-.2 0-.4.1-.6.2-.2.1-.2.3-.2.4h-.6c0-.2.1-.4.2-.5s.3-.3.5-.4c.2-.1.5-.2.7-.2.4 0 .8.1 1 .3s.4.5.4.9v1.7c0 .3 0 .6.1.8v.1h-.5zm-1-.5c.2 0 .4-.1.6-.2s.3-.2.4-.4v-.8h-.5c-.8 0-1.2.2-1.2.7 0 .2.1.4.2.5.1.1.3.2.5.2zM418.1 70.5c0-.2-.1-.3-.2-.4-.1-.1-.4-.2-.7-.2s-.6-.2-.8-.2c-.2-.1-.3-.2-.4-.3-.1-.1-.1-.3-.1-.5 0-.3.1-.6.4-.8.3-.2.6-.3 1-.3s.8.1 1 .3c.3.2.4.5.4.8h-.6c0-.2-.1-.3-.2-.4-.1-.1-.3-.2-.6-.2-.2 0-.4 0-.5.2-.1.1-.2.2-.2.4s.1.3.2.3c.1.1.3.2.7.2.3.1.6.2.8.3.2.1.3.2.4.4.1.1.1.3.1.5 0 .3-.1.6-.4.8-.3.2-.6.3-1 .3-.3 0-.6-.1-.8-.2-.2-.1-.4-.3-.5-.4-.1-.2-.2-.4-.2-.6h.6c0 .2.1.4.3.5.2.1.4.2.6.2.2 0 .4 0 .6-.1 0-.3.1-.4.1-.6zM421.1 71.6c-.5 0-.9-.2-1.2-.5s-.5-.8-.5-1.3v-.1c0-.4.1-.7.2-1 .1-.3.3-.5.6-.7s.5-.2.8-.2c.5 0 .9.2 1.1.5.3.3.4.8.4 1.4v.3H420c0 .4.1.7.3.9.2.2.5.3.8.3.2 0 .4 0 .6-.1.2-.1.3-.2.4-.4l.4.3c-.3.3-.8.6-1.4.6zm-.1-3.4c-.3 0-.5.1-.6.3s-.3.4-.3.8h1.9c0-.3-.1-.6-.3-.7s-.4-.4-.7-.4zM425.4 70.5c0-.2-.1-.3-.2-.4-.1-.1-.4-.2-.7-.2s-.6-.2-.8-.2c-.2-.1-.3-.2-.4-.3-.1-.1-.1-.3-.1-.5 0-.3.1-.6.4-.8.3-.2.6-.3 1-.3s.8.1 1 .3c.3.2.4.5.4.8h-.6c0-.2-.1-.3-.2-.4-.1-.1-.3-.2-.6-.2-.2 0-.4 0-.5.2-.1.1-.2.2-.2.4s.1.3.2.3c.1.1.3.2.7.2.3.1.6.2.8.3.2.1.3.2.4.4.1.1.1.3.1.5 0 .3-.1.6-.4.8-.3.2-.6.3-1 .3-.3 0-.6-.1-.8-.2-.2-.1-.4-.3-.5-.4-.1-.2-.2-.4-.2-.6h.6c0 .2.1.4.3.5.2.1.4.2.6.2.2 0 .4 0 .6-.1.1-.3.1-.4.1-.6zM427 71.9h-.5l2.1-5.4h.5l-2.1 5.4zM433 71.5h-3.3V71l1.7-1.9c.3-.3.4-.5.5-.7.1-.2.1-.4.1-.6 0-.3-.1-.5-.2-.6-.2-.2-.4-.2-.6-.2-.3 0-.6.1-.7.3-.2.2-.3.4-.3.7h-.6c0-.5.1-.8.4-1.1.3-.3.7-.4 1.2-.4s.8.1 1.1.4c.3.2.4.6.4 1 0 .5-.3 1.1-.9 1.8l-1.3 1.4h2.5v.4zM436.8 69.4c0 .7-.1 1.3-.4 1.7-.3.4-.6.5-1.2.5-.5 0-.9-.2-1.2-.5-.3-.4-.4-.9-.4-1.6v-.8c0-.7.1-1.3.4-1.6s.6-.5 1.2-.5c.5 0 .9.2 1.2.5.3.3.4.9.4 1.6v.7zm-.7-.9c0-.5-.1-.9-.2-1.2s-.4-.4-.7-.4c-.3 0-.6.1-.7.4-.1.2-.2.6-.2 1.1v1c0 .5.1.9.2 1.2.2.3.4.4.7.4.3 0 .5-.1.7-.4.2-.2.2-.6.2-1.1v-1zM440.8 71.5h-3.3V71l1.7-1.9c.3-.3.4-.5.5-.7.1-.2.1-.4.1-.6 0-.3-.1-.5-.2-.6-.2-.2-.4-.2-.6-.2-.3 0-.6.1-.7.3-.2.2-.3.4-.3.7h-.6c0-.5.1-.8.4-1.1.3-.3.7-.4 1.2-.4s.8.1 1.1.4c.3.2.4.6.4 1 0 .5-.3 1.1-.9 1.8l-1.3 1.4h2.5v.4zM444.8 71.5h-3.3V71l1.7-1.9c.3-.3.4-.5.5-.7.1-.2.1-.4.1-.6 0-.3-.1-.5-.2-.6-.2-.2-.4-.2-.6-.2-.3 0-.6.1-.7.3-.2.2-.3.4-.3.7h-.6c0-.5.1-.8.4-1.1.3-.3.7-.4 1.2-.4s.8.1 1.1.4c.3.2.4.6.4 1 0 .5-.3 1.1-.9 1.8l-1.3 1.4h2.5v.4zM445.6 71.9h-.5l2.1-5.4h.5l-2.1 5.4zM451.4 69.4c0 .7-.1 1.3-.4 1.7-.3.4-.6.5-1.2.5-.5 0-.9-.2-1.2-.5-.3-.4-.4-.9-.4-1.6v-.8c0-.7.1-1.3.4-1.6s.6-.5 1.2-.5c.5 0 .9.2 1.2.5.3.3.4.9.4 1.6v.7zm-.6-.9c0-.5-.1-.9-.2-1.2s-.4-.4-.7-.4c-.3 0-.6.1-.7.4-.1.2-.2.6-.2 1.1v1c0 .5.1.9.2 1.2.2.3.4.4.7.4.3 0 .5-.1.7-.4.2-.2.2-.6.2-1.1v-1zM455.5 71.5h-3.3V71l1.7-1.9c.3-.3.4-.5.5-.7.1-.2.1-.4.1-.6 0-.3-.1-.5-.2-.6-.2-.2-.4-.2-.6-.2-.3 0-.6.1-.7.3-.2.2-.3.4-.3.7h-.6c0-.5.1-.8.4-1.1.3-.3.7-.4 1.2-.4s.8.1 1.1.4c.3.2.4.6.4 1 0 .5-.3 1.1-.9 1.8L453 71h2.5v.5zM456.4 71.9h-.5l2.1-5.4h.5l-2.1 5.4zM459.7 67.8v.5c.3-.4.7-.5 1.1-.5.8 0 1.2.4 1.2 1.3v2.4h-.6V69c0-.3-.1-.5-.2-.6-.1-.1-.3-.2-.6-.2-.2 0-.4.1-.5.2-.2.1-.3.3-.4.4v2.6h-.6v-3.7h.6zM464.5 71.6c-.5 0-.9-.2-1.2-.5s-.5-.8-.5-1.3v-.1c0-.4.1-.7.2-1 .1-.3.3-.5.6-.7s.5-.2.8-.2c.5 0 .9.2 1.1.5.3.3.4.8.4 1.4v.3h-2.5c0 .4.1.7.3.9.2.2.5.3.8.3.2 0 .4 0 .6-.1.2-.1.3-.2.4-.4l.4.3c-.3.3-.8.6-1.4.6zm-.1-3.4c-.3 0-.5.1-.6.3s-.3.4-.3.8h1.9c0-.3-.1-.6-.3-.7s-.4-.4-.7-.4zM470 70.6l.7-2.8h.6l-1.1 3.7h-.5l-.9-2.8-.9 2.8h-.5l-1.1-3.7h.6l.7 2.8.9-2.8h.5l1 2.8zM473.3 69.6h-1.7v-.5h1.7v.5zM473.7 69.6c0-.6.1-1 .4-1.4.3-.3.6-.5 1.1-.5.4 0 .8.1 1 .4v-1.9h.6v5.2h-.6V71c-.3.3-.6.5-1.1.5-.4 0-.8-.2-1-.5-.2-.3-.4-.8-.4-1.4zm.7.1c0 .4.1.7.3 1 .2.2.4.4.7.4.4 0 .7-.2.9-.5v-1.7c-.2-.3-.5-.5-.9-.5-.3 0-.6.1-.7.4s-.3.4-.3.9zM480.1 71.5c0-.1-.1-.2-.1-.4-.3.3-.6.5-1.1.5-.4 0-.7-.1-.9-.3s-.3-.5-.3-.8c0-.4.1-.7.4-.9s.7-.3 1.2-.3h.6V69c0-.2-.1-.4-.2-.5-.1-.1-.3-.2-.6-.2-.2 0-.4.1-.6.2-.2.1-.2.3-.2.4h-.6c0-.2.1-.4.2-.5s.3-.3.5-.4c.2-.1.5-.2.7-.2.4 0 .8.1 1 .3s.4.5.4.9v1.7c0 .3 0 .6.1.8v.1h-.5zm-1-.5c.2 0 .4-.1.6-.2s.3-.2.4-.4v-.8h-.5c-.8 0-1.2.2-1.2.7 0 .2.1.4.2.5.1.1.3.2.5.2zM482.5 66.9v.9h.7v.5h-.7v2.3c0 .1 0 .3.1.3s.2.1.3.1h.3v.5c-.2 0-.3.1-.5.1-.3 0-.5-.1-.6-.3-.1-.2-.2-.4-.2-.7v-2.3h-.7v-.5h.7v-.9h.6zM486.2 71.5c0-.1-.1-.2-.1-.4-.3.3-.6.5-1.1.5-.4 0-.7-.1-.9-.3s-.3-.5-.3-.8c0-.4.1-.7.4-.9s.7-.3 1.2-.3h.6V69c0-.2-.1-.4-.2-.5-.1-.1-.3-.2-.6-.2-.2 0-.4.1-.6.2-.2.1-.2.3-.2.4h-.6c0-.2.1-.4.2-.5s.3-.3.5-.4c.2-.1.5-.2.7-.2.4 0 .8.1 1 .3s.4.5.4.9v1.7c0 .3 0 .6.1.8v.1h-.5zm-1-.5c.2 0 .4-.1.6-.2s.3-.2.4-.4v-.8h-.5c-.8 0-1.2.2-1.2.7 0 .2.1.4.2.5.1.1.3.2.5.2zM489.1 69.6h-1.7v-.5h1.7v.5zM491.8 70.5c0-.2-.1-.3-.2-.4-.1-.1-.4-.2-.7-.2s-.6-.2-.8-.2c-.2-.1-.3-.2-.4-.3-.1-.1-.1-.3-.1-.5 0-.3.1-.6.4-.8.3-.2.6-.3 1-.3s.8.1 1 .3c.3.2.4.5.4.8h-.6c0-.2-.1-.3-.2-.4-.1-.1-.3-.2-.6-.2-.2 0-.4 0-.5.2-.1.1-.2.2-.2.4s.1.3.2.3c.1.1.3.2.7.2.3.1.6.2.8.3.2.1.3.2.4.4.1.1.1.3.1.5 0 .3-.1.6-.4.8-.3.2-.6.3-1 .3-.3 0-.6-.1-.8-.2-.2-.1-.4-.3-.5-.4-.1-.2-.2-.4-.2-.6h.6c0 .2.1.4.3.5.2.1.4.2.6.2.2 0 .4 0 .6-.1 0-.3.1-.4.1-.6zM493.9 68.2c.3-.3.6-.5 1.1-.5.8 0 1.2.4 1.2 1.3v2.4h-.6V69c0-.3-.1-.5-.2-.6-.1-.1-.3-.2-.6-.2-.2 0-.4.1-.5.2-.2.1-.3.3-.4.4v2.6h-.6v-5.2h.6v2zM497 69.6c0-.4.1-.7.2-1 .1-.3.3-.5.6-.7s.5-.2.9-.2c.5 0 .9.2 1.2.5.3.3.5.8.5 1.4 0 .4-.1.7-.2 1-.1.3-.3.5-.6.7-.3.2-.6.2-.9.2-.5 0-.9-.2-1.2-.5-.4-.3-.5-.8-.5-1.4zm.6.1c0 .4.1.7.3 1 .2.2.4.4.8.4.3 0 .6-.1.8-.4.2-.3.3-.6.3-1.1 0-.4-.1-.7-.3-1-.2-.3-.4-.4-.8-.4-.3 0-.6.1-.8.4-.2.3-.3.6-.3 1.1zM504.4 70.6l.7-2.8h.6l-1.1 3.7h-.5l-.9-2.8-.9 2.8h-.5l-1.1-3.7h.6l.7 2.8.9-2.8h.5l1 2.8zM508.5 70.5c0-.2-.1-.3-.2-.4-.1-.1-.4-.2-.7-.2s-.6-.2-.8-.2c-.2-.1-.3-.2-.4-.3-.1-.1-.1-.3-.1-.5 0-.3.1-.6.4-.8.3-.2.6-.3 1-.3s.8.1 1 .3c.3.2.4.5.4.8h-.6c0-.2-.1-.3-.2-.4-.1-.1-.3-.2-.6-.2-.2 0-.4 0-.5.2-.1.1-.2.2-.2.4s.1.3.2.3c.1.1.3.2.7.2.3.1.6.2.8.3.2.1.3.2.4.4.1.1.1.3.1.5 0 .3-.1.6-.4.8-.3.2-.6.3-1 .3-.3 0-.6-.1-.8-.2-.2-.1-.4-.3-.5-.4-.1-.2-.2-.4-.2-.6h.6c0 .2.1.4.3.5.2.1.4.2.6.2.2 0 .4 0 .6-.1.1-.3.1-.4.1-.6zM511.3 69.6h-1.7v-.5h1.7v.5zM512.2 71.5v-3.2h-.6v-.5h.6v-.4c0-.4.1-.7.3-.9.2-.2.5-.3.9-.3.1 0 .3 0 .4.1v.5h-.3c-.2 0-.4.1-.5.2-.1.1-.2.3-.2.5v.4h.8v.5h-.8v3.2h-.6zM515.2 66.9v.9h.7v.5h-.7v2.3c0 .1 0 .3.1.3s.2.1.3.1h.3v.5c-.2 0-.3.1-.5.1-.3 0-.5-.1-.6-.3-.1-.2-.2-.4-.2-.7v-2.3h-.7v-.5h.7v-.9h.6zM518.1 71c.2 0 .4-.1.6-.2.2-.1.3-.3.3-.5h.6c0 .2-.1.4-.2.6s-.3.3-.5.5c-.2.1-.5.2-.7.2-.5 0-.9-.2-1.2-.5-.3-.3-.4-.8-.4-1.4v-.1c0-.4.1-.7.2-1s.3-.5.6-.7c.2-.2.5-.2.9-.2s.8.1 1 .4c.3.2.4.6.4 1h-.7c0-.2-.1-.4-.3-.6-.2-.2-.4-.2-.6-.2-.3 0-.6.1-.7.3s-.3.6-.3 1v.1c0 .4.1.8.3 1 .1.2.4.3.7.3zM521.6 69.6H520v-.5h1.7v.5zM524 68.4h-.3c-.4 0-.7.2-.8.5v2.6h-.6v-3.7h.6v.4c.2-.3.5-.5.9-.5h.3v.7zM526.1 71.6c-.5 0-.9-.2-1.2-.5s-.5-.8-.5-1.3v-.1c0-.4.1-.7.2-1 .1-.3.3-.5.6-.7s.5-.2.8-.2c.5 0 .9.2 1.1.5.3.3.4.8.4 1.4v.3H525c0 .4.1.7.3.9.2.2.5.3.8.3.2 0 .4 0 .6-.1.2-.1.3-.2.4-.4l.4.3c-.3.3-.8.6-1.4.6zm-.1-3.4c-.3 0-.5.1-.6.3s-.3.4-.3.8h1.9c0-.3-.1-.6-.3-.7s-.4-.4-.7-.4zM529.7 71c.2 0 .4-.1.6-.2.2-.1.3-.3.3-.5h.6c0 .2-.1.4-.2.6s-.3.3-.5.5c-.2.1-.5.2-.7.2-.5 0-.9-.2-1.2-.5-.3-.3-.4-.8-.4-1.4v-.1c0-.4.1-.7.2-1s.3-.5.6-.7c.2-.2.5-.2.9-.2s.8.1 1 .4c.3.2.4.6.4 1h-.6c0-.2-.1-.4-.3-.6-.2-.2-.4-.2-.6-.2-.3 0-.6.1-.7.3s-.3.6-.3 1v.1c0 .4.1.8.3 1 .1.2.3.3.6.3zM533.5 71.6c-.5 0-.9-.2-1.2-.5s-.5-.8-.5-1.3v-.1c0-.4.1-.7.2-1 .1-.3.3-.5.6-.7s.5-.2.8-.2c.5 0 .9.2 1.1.5.3.3.4.8.4 1.4v.3h-2.5c0 .4.1.7.3.9.2.2.5.3.8.3.2 0 .4 0 .6-.1.2-.1.3-.2.4-.4l.4.3c-.4.3-.8.6-1.4.6zm-.1-3.4c-.3 0-.5.1-.6.3s-.3.4-.3.8h1.9c0-.3-.1-.6-.3-.7s-.5-.4-.7-.4zM535.6 66.8c0-.1 0-.2.1-.3.1-.1.2-.1.3-.1s.2 0 .3.1c.1.1.1.2.1.3s0 .2-.1.3-.2.1-.3.1-.2 0-.3-.1-.1-.2-.1-.3zm.7 4.7h-.6v-3.7h.6v3.7zM538.5 70.6l.9-2.8h.6l-1.3 3.7h-.5l-1.3-3.7h.6l1 2.8zM542.2 71.6c-.5 0-.9-.2-1.2-.5s-.5-.8-.5-1.3v-.1c0-.4.1-.7.2-1 .1-.3.3-.5.6-.7s.5-.2.8-.2c.5 0 .9.2 1.1.5.3.3.4.8.4 1.4v.3h-2.5c0 .4.1.7.3.9.2.2.5.3.8.3.2 0 .4 0 .6-.1.2-.1.3-.2.4-.4l.4.3c-.3.3-.8.6-1.4.6zm-.1-3.4c-.3 0-.5.1-.6.3s-.3.4-.3.8h1.9c0-.3-.1-.6-.3-.7s-.4-.4-.7-.4zM544.2 69.6c0-.6.1-1 .4-1.4.3-.3.6-.5 1.1-.5.4 0 .8.1 1 .4v-1.9h.6v5.2h-.6V71c-.3.3-.6.5-1.1.5-.4 0-.8-.2-1-.5-.2-.3-.4-.8-.4-1.4zm.7.1c0 .4.1.7.3 1 .2.2.4.4.7.4.4 0 .7-.2.9-.5v-1.7c-.2-.3-.5-.5-.9-.5-.3 0-.6.1-.7.4s-.3.4-.3.9zM549.6 69.6H548v-.5h1.7v.5zM553.5 71.5h-3.3V71l1.7-1.9c.3-.3.4-.5.5-.7.1-.2.1-.4.1-.6 0-.3-.1-.5-.2-.6-.2-.2-.4-.2-.6-.2-.3 0-.6.1-.7.3-.2.2-.3.4-.3.7h-.6c0-.5.1-.8.4-1.1.3-.3.7-.4 1.2-.4s.8.1 1.1.4c.3.2.4.6.4 1 0 .5-.3 1.1-.9 1.8L551 71h2.5v.5zM557.1 67.8c0 .2-.1.5-.2.7-.1.2-.3.3-.5.5.3.1.5.3.6.5.2.2.2.5.2.7 0 .4-.1.8-.4 1-.3.3-.7.4-1.1.4-.5 0-.9-.1-1.1-.4-.3-.3-.4-.6-.4-1 0-.3.1-.5.2-.7.1-.2.3-.4.6-.5-.2-.1-.4-.3-.5-.5-.1-.2-.2-.4-.2-.7 0-.4.1-.8.4-1s.6-.4 1.1-.4c.4 0 .8.1 1.1.4.1.3.2.6.2 1zm-.5 2.3c0-.3-.1-.5-.3-.7-.2-.2-.4-.3-.7-.3-.3 0-.5.1-.7.3-.2.2-.3.4-.3.7 0 .3.1.5.3.7.2.2.4.2.7.2.3 0 .5-.1.7-.2.2-.2.3-.4.3-.7zm-.9-3.1c-.2 0-.4.1-.6.2-.2.2-.2.4-.2.6 0 .3.1.5.2.6.2.2.4.2.6.2.3 0 .5-.1.6-.2.2-.2.2-.4.2-.6s-.1-.5-.2-.6c-.2-.2-.4-.2-.6-.2zM559.4 69.6h-1.7v-.5h1.7v.5zM560.6 67.8v.4c.3-.3.6-.5 1.1-.5.5 0 .9.2 1.1.6.1-.2.3-.3.5-.4s.4-.2.7-.2c.8 0 1.2.4 1.2 1.3v2.5h-.6V69c0-.3-.1-.5-.2-.6-.1-.1-.3-.2-.6-.2-.2 0-.4.1-.6.2-.2.1-.2.3-.3.6v2.5h-.6v-2.4c0-.5-.3-.8-.8-.8-.4 0-.7.2-.9.5v2.7h-.6v-3.7h.6zM566.2 66.8c0-.1 0-.2.1-.3.1-.1.2-.1.3-.1s.2 0 .3.1c.1.1.1.2.1.3s0 .2-.1.3-.2.1-.3.1-.2 0-.3-.1-.1-.2-.1-.3zm.7 4.7h-.6v-3.7h.6v3.7zM568.6 71.5h-.6v-5.2h.6v5.2zM570.3 71.5h-.6v-5.2h.6v5.2zM571.3 66.8c0-.1 0-.2.1-.3.1-.1.2-.1.3-.1s.2 0 .3.1c.1.1.1.2.1.3s0 .2-.1.3-.2.1-.3.1-.2 0-.3-.1-.1-.2-.1-.3zm.7 4.7h-.6v-3.7h.6v3.7zM572.8 69.6c0-.4.1-.7.2-1 .1-.3.3-.5.6-.7s.5-.2.9-.2c.5 0 .9.2 1.2.5.3.3.5.8.5 1.4 0 .4-.1.7-.2 1-.1.3-.3.5-.6.7-.3.2-.6.2-.9.2-.5 0-.9-.2-1.2-.5-.3-.3-.5-.8-.5-1.4zm.7.1c0 .4.1.7.3 1 .2.2.4.4.8.4.3 0 .6-.1.8-.4.2-.3.3-.6.3-1.1 0-.4-.1-.7-.3-1-.2-.3-.4-.4-.8-.4-.3 0-.6.1-.8.4-.3.3-.3.6-.3 1.1zM577.6 67.8v.5c.3-.4.7-.5 1.1-.5.8 0 1.2.4 1.2 1.3v2.4h-.6V69c0-.3-.1-.5-.2-.6-.1-.1-.3-.2-.6-.2-.2 0-.4.1-.5.2-.2.1-.3.3-.4.4v2.6h-.6v-3.7h.6zM582.2 69.6h-1.7v-.5h1.7v.5zM231.2 79.9v-3.2h-.6v-.5h.6v-.4c0-.4.1-.7.3-.9.2-.2.5-.3.9-.3.1 0 .3 0 .4.1v.5h-.3c-.2 0-.4.1-.5.2-.1.1-.2.3-.2.5v.4h.8v.5h-.8V80h-.6zM235.1 76.8h-.3c-.4 0-.7.2-.8.5v2.6h-.6v-3.7h.6v.4c.2-.3.5-.5.9-.5h.3v.7zM237.8 79.9c0-.1-.1-.2-.1-.4-.3.3-.6.5-1.1.5-.4 0-.7-.1-.9-.3-.2-.2-.3-.5-.3-.8 0-.4.1-.7.4-.9.3-.2.7-.3 1.2-.3h.6v-.3c0-.2-.1-.4-.2-.5-.1-.1-.3-.2-.6-.2-.2 0-.4.1-.6.2-.2.1-.2.3-.2.4h-.6c0-.2.1-.4.2-.5.1-.2.3-.3.5-.4.2-.1.5-.2.7-.2.4 0 .8.1 1 .3.2.2.4.5.4.9V79c0 .3 0 .6.1.8v.1h-.5zm-1-.5c.2 0 .4-.1.6-.2s.3-.2.4-.4V78h-.5c-.8 0-1.2.2-1.2.7 0 .2.1.4.2.5.1.1.3.2.5.2zM241.6 79.5c-.2.3-.6.4-1.1.4-.4 0-.7-.1-.9-.3-.2-.2-.3-.6-.3-1v-2.4h.6v2.4c0 .6.2.8.7.8.5 0 .8-.2 1-.5v-2.7h.6v3.7h-.6v-.4zM243.1 78c0-.6.1-1 .4-1.4.3-.3.6-.5 1.1-.5.4 0 .8.1 1 .4v-1.9h.6v5.2h-.6v-.4c-.3.3-.6.5-1.1.5-.4 0-.8-.2-1-.5-.3-.3-.4-.8-.4-1.4zm.6.1c0 .4.1.7.3 1 .2.2.4.4.7.4.4 0 .7-.2.9-.5v-1.7c-.2-.3-.5-.5-.9-.5-.3 0-.6.1-.7.4s-.3.4-.3.9zM248.5 78h-1.7v-.5h1.7v.5zM250.9 76.8h-.3c-.4 0-.7.2-.8.5v2.6h-.6v-3.7h.6v.4c.2-.3.5-.5.9-.5h.3v.7zM252.9 80c-.5 0-.9-.2-1.2-.5-.3-.3-.5-.8-.5-1.3V78c0-.4.1-.7.2-1 .1-.3.3-.5.6-.7.3-.2.5-.2.8-.2.5 0 .9.2 1.1.5.3.3.4.8.4 1.4v.3h-2.5c0 .4.1.7.3.9s.5.3.8.3c.2 0 .4 0 .6-.1.2-.1.3-.2.4-.4l.4.3c-.3.4-.8.7-1.4.7zm-.1-3.4c-.3 0-.5.1-.6.3-.2.2-.3.4-.3.8h1.9c0-.3-.1-.6-.3-.7-.2-.3-.4-.4-.7-.4zM258.2 78.1c0 .6-.1 1-.4 1.4-.3.3-.6.5-1 .5s-.8-.1-1.1-.4v1.8h-.6v-5.1h.6v.4c.3-.3.6-.5 1.1-.5.4 0 .8.2 1.1.5s.3.7.3 1.4zm-.6-.1c0-.4-.1-.7-.3-1-.2-.2-.4-.4-.7-.4-.4 0-.7.2-.9.5v1.8c.2.3.5.5.9.5.3 0 .5-.1.7-.4.2-.2.3-.5.3-1zM258.9 78c0-.4.1-.7.2-1 .1-.3.3-.5.6-.7s.5-.2.9-.2c.5 0 .9.2 1.2.5.3.3.5.8.5 1.4 0 .4-.1.7-.2 1s-.3.5-.6.7c-.3.2-.6.2-.9.2-.5 0-.9-.2-1.2-.5-.4-.3-.5-.8-.5-1.4zm.6.1c0 .4.1.7.3 1 .2.2.4.4.8.4.3 0 .6-.1.8-.4s.3-.6.3-1.1c0-.4-.1-.7-.3-1s-.4-.4-.8-.4c-.3 0-.6.1-.8.4-.2.3-.3.6-.3 1.1zM264.8 76.8h-.3c-.4 0-.7.2-.8.5v2.6h-.7v-3.7h.6v.4c.2-.3.5-.5.9-.5h.3v.7zM266.4 75.3v.9h.7v.5h-.7V79c0 .1 0 .3.1.3s.2.1.3.1h.3v.5c-.2 0-.3.1-.5.1-.3 0-.5-.1-.6-.3-.1-.2-.2-.4-.2-.7v-2.3h-.7v-.5h.7v-.9h.6zM270 78.9c0-.2-.1-.3-.2-.4s-.4-.2-.7-.2-.6-.2-.8-.2c-.2-.1-.3-.2-.4-.3-.1-.1-.1-.3-.1-.5 0-.3.1-.6.4-.8.3-.2.6-.3 1-.3s.8.1 1 .3c.3.2.4.5.4.8h-.6c0-.2-.1-.3-.2-.4-.1-.1-.3-.2-.6-.2-.2 0-.4.1-.5.2-.1.1-.2.2-.2.4s.1.3.2.3c.1.1.3.2.7.2.3.1.6.2.8.3.2.1.3.2.4.4s.1.3.1.5c0 .3-.1.6-.4.8-.3.2-.6.3-1 .3-.3 0-.6-.1-.8-.2-.2-.1-.4-.3-.5-.4-.1-.2-.2-.4-.2-.6h.6c0 .2.1.4.3.5s.4.2.6.2c.2 0 .4 0 .6-.1s.1-.4.1-.6zM272.8 78h-1.7v-.5h1.7v.5zM274.9 79.4c.2 0 .4-.1.6-.2.2-.1.3-.3.3-.5h.6c0 .2-.1.4-.2.6s-.3.3-.5.5c-.2.1-.5.2-.7.2-.5 0-.9-.2-1.2-.5-.3-.3-.4-.8-.4-1.4V78c0-.4.1-.7.2-1s.3-.5.6-.7c.2-.2.5-.2.9-.2s.8.1 1 .4c.3.2.4.6.4 1h-.6c0-.2-.1-.4-.3-.6-.2-.2-.4-.2-.6-.2-.3 0-.6.1-.7.3-.2.2-.3.6-.3 1v.1c0 .4.1.8.3 1 0 .2.2.3.6.3zM276.9 78c0-.4.1-.7.2-1 .1-.3.3-.5.6-.7s.5-.2.9-.2c.5 0 .9.2 1.2.5.3.3.5.8.5 1.4 0 .4-.1.7-.2 1s-.3.5-.6.7c-.3.2-.6.2-.9.2-.5 0-.9-.2-1.2-.5-.4-.3-.5-.8-.5-1.4zm.6.1c0 .4.1.7.3 1 .2.2.4.4.8.4.3 0 .6-.1.8-.4s.3-.6.3-1.1c0-.4-.1-.7-.3-1s-.4-.4-.8-.4c-.3 0-.6.1-.8.4-.2.3-.3.6-.3 1.1zM281.6 76.2v.5c.3-.4.7-.5 1.1-.5.8 0 1.2.4 1.2 1.3v2.4h-.6v-2.4c0-.3-.1-.5-.2-.6-.1-.1-.3-.2-.6-.2-.2 0-.4.1-.5.2-.2.1-.3.3-.4.4v2.6h-.6v-3.7h.6zM287.1 78.9c0-.2-.1-.3-.2-.4s-.4-.2-.7-.2-.6-.2-.8-.2c-.2-.1-.3-.2-.4-.3-.1-.1-.1-.3-.1-.5 0-.3.1-.6.4-.8.3-.2.6-.3 1-.3s.8.1 1 .3c.3.2.4.5.4.8h-.7c0-.2-.1-.3-.2-.4-.1-.1-.3-.2-.6-.2-.2 0-.4.1-.5.2-.1.1-.2.2-.2.4s.1.3.2.3c.1.1.3.2.7.2.3.1.6.2.8.3.2.1.3.2.4.4s.1.3.1.5c0 .3-.1.6-.4.8-.3.2-.6.3-1 .3-.3 0-.6-.1-.8-.2-.2-.1-.4-.3-.5-.4-.1-.2-.2-.4-.2-.6h.6c0 .2.1.4.3.5s.4.2.6.2c.2 0 .4 0 .6-.1s.2-.4.2-.6zM290.8 79.5c-.2.3-.6.4-1.1.4-.4 0-.7-.1-.9-.3-.2-.2-.3-.6-.3-1v-2.4h.6v2.4c0 .6.2.8.7.8.5 0 .8-.2 1-.5v-2.7h.6v3.7h-.6v-.4zM293 76.2v.4c.3-.3.6-.5 1.1-.5.5 0 .9.2 1.1.6.1-.2.3-.3.5-.4s.4-.2.7-.2c.8 0 1.2.4 1.2 1.3v2.5h-.6v-2.4c0-.3-.1-.5-.2-.6s-.3-.2-.6-.2c-.2 0-.4.1-.6.2-.2.1-.2.3-.3.6V80h-.6v-2.4c0-.5-.3-.8-.8-.8-.4 0-.7.2-.9.5V80h-.6v-3.7h.6zM300 80c-.5 0-.9-.2-1.2-.5-.3-.3-.5-.8-.5-1.3V78c0-.4.1-.7.2-1 .1-.3.3-.5.6-.7.3-.2.5-.2.8-.2.5 0 .9.2 1.1.5.3.3.4.8.4 1.4v.3H299c0 .4.1.7.3.9s.5.3.8.3c.2 0 .4 0 .6-.1.2-.1.3-.2.4-.4l.4.3c-.4.4-.8.7-1.5.7zm0-3.4c-.3 0-.5.1-.6.3-.2.2-.3.4-.3.8h1.9c0-.3-.1-.6-.3-.7-.3-.3-.5-.4-.7-.4zM304 76.8h-.3c-.4 0-.7.2-.8.5v2.6h-.6v-3.7h.6v.4c.2-.3.5-.5.9-.5h.3v.7zM306.7 78.9c0-.2-.1-.3-.2-.4s-.4-.2-.7-.2-.6-.2-.8-.2c-.2-.1-.3-.2-.4-.3-.1-.1-.1-.3-.1-.5 0-.3.1-.6.4-.8.3-.2.6-.3 1-.3s.8.1 1 .3c.3.2.4.5.4.8h-.6c0-.2-.1-.3-.2-.4-.1-.1-.3-.2-.6-.2-.2 0-.4.1-.5.2-.1.1-.2.2-.2.4s.1.3.2.3c.1.1.3.2.7.2.3.1.6.2.8.3.2.1.3.2.4.4s.1.3.1.5c0 .3-.1.6-.4.8-.3.2-.6.3-1 .3-.3 0-.6-.1-.8-.2-.2-.1-.4-.3-.5-.4-.1-.2-.2-.4-.2-.6h.6c0 .2.1.4.3.5s.4.2.6.2c.2 0 .4 0 .6-.1s.1-.4.1-.6zM309.5 78h-1.7v-.5h1.7v.5zM313.3 79.9H310v-.5l1.7-1.9c.3-.3.4-.5.5-.7.1-.2.1-.4.1-.6 0-.3-.1-.5-.2-.6-.2-.2-.4-.2-.6-.2-.3 0-.6.1-.7.3-.2.2-.3.4-.3.7h-.5c0-.5.1-.8.4-1.1.3-.3.7-.4 1.2-.4s.8.1 1.1.4c.3.2.4.6.4 1 0 .5-.3 1.1-.9 1.8l-1.3 1.4h2.5v.4zM317.1 77.8c0 .7-.1 1.3-.4 1.7-.3.4-.6.5-1.2.5-.5 0-.9-.2-1.2-.5-.3-.4-.4-.9-.4-1.6V77c0-.7.1-1.3.4-1.6s.6-.5 1.2-.5c.5 0 .9.2 1.2.5s.4.9.4 1.6v.8zm-.6-.9c0-.5-.1-.9-.2-1.2-.2-.2-.4-.4-.7-.4-.3 0-.6.1-.7.4-.1.2-.2.6-.2 1.1v1c0 .5.1.9.2 1.2.2.3.4.4.7.4.3 0 .5-.1.7-.4.2-.2.2-.6.2-1.1v-1zM321.2 79.9h-3.3v-.5l1.7-1.9c.3-.3.4-.5.5-.7.1-.2.1-.4.1-.6 0-.3-.1-.5-.2-.6-.2-.2-.4-.2-.6-.2-.3 0-.6.1-.7.3-.2.2-.3.4-.3.7h-.6c0-.5.1-.8.4-1.1.3-.3.7-.4 1.2-.4s.8.1 1.1.4c.3.2.4.6.4 1 0 .5-.3 1.1-.9 1.8l-1.3 1.4h2.5v.4zM323.9 79.9h-.6v-4.2l-1.3.5v-.6l1.8-.7h.1v5zM327.2 78h-1.7v-.5h1.7v.5zM330.8 77.8c0 .7-.1 1.3-.4 1.7-.3.4-.6.5-1.2.5-.5 0-.9-.2-1.2-.5-.3-.4-.4-.9-.4-1.6V77c0-.7.1-1.3.4-1.6s.6-.5 1.2-.5c.5 0 .9.2 1.2.5s.4.9.4 1.6v.8zm-.6-.9c0-.5-.1-.9-.2-1.2-.2-.2-.4-.4-.7-.4-.3 0-.6.1-.7.4-.1.2-.2.6-.2 1.1v1c0 .5.1.9.2 1.2.2.3.4.4.7.4.3 0 .5-.1.7-.4.2-.2.2-.6.2-1.1v-1z"/></g></svg>