<?xml version="1.0" encoding="utf-8"?>
<!-- Generator: Adobe Illustrator 24.2.3, SVG Export Plug-In . SVG Version: 6.00 Build 0)  -->
<svg version="1.1" id="Layer_1" xmlns="http://www.w3.org/2000/svg" xmlns:xlink="http://www.w3.org/1999/xlink" x="0px" y="0px"
	 viewBox="0 0 160 600" style="enable-background:new 0 0 160 600;" xml:space="preserve">
<style type="text/css">
	.st0{fill:#FFFFFF;}
</style>
<g>
	<path class="st0" d="M33.72,236.36H28.5v14.21h-3.52v-14.21h-5.16v-2.85h13.9V236.36z"/>
	<path class="st0" d="M38.81,239.28c0.9-1.08,2.03-1.62,3.39-1.62c2.75,0,4.14,1.6,4.18,4.79v8.12h-3.39v-8.03
		c0-0.73-0.16-1.26-0.47-1.61s-0.83-0.52-1.56-0.52c-0.99,0-1.71,0.38-2.16,1.15v9.01h-3.39v-18h3.39V239.28z"/>
	<path class="st0" d="M54.77,250.81c-1.86,0-3.37-0.57-4.54-1.71s-1.75-2.66-1.75-4.56v-0.33c0-1.27,0.25-2.41,0.74-3.42
		s1.19-1.78,2.09-2.32s1.93-0.81,3.09-0.81c1.73,0,3.1,0.55,4.1,1.64s1.49,2.64,1.49,4.65v1.38h-8.07c0.11,0.83,0.44,1.49,0.99,1.99
		s1.25,0.75,2.09,0.75c1.3,0,2.32-0.47,3.06-1.42l1.66,1.86c-0.51,0.72-1.2,1.28-2.06,1.68S55.82,250.81,54.77,250.81z
		 M54.38,240.39c-0.67,0-1.22,0.23-1.63,0.68c-0.42,0.46-0.69,1.11-0.8,1.95h4.71v-0.27c-0.02-0.75-0.22-1.34-0.61-1.75
		C55.66,240.6,55.1,240.39,54.38,240.39z"/>
	<path class="st0" d="M69.03,241.07c-0.46-0.06-0.87-0.09-1.22-0.09c-1.28,0-2.12,0.43-2.52,1.3v8.3h-3.39v-12.68h3.2l0.09,1.51
		c0.68-1.16,1.62-1.75,2.82-1.75c0.38,0,0.73,0.05,1.05,0.15L69.03,241.07z"/>
	<path class="st0" d="M76.5,250.81c-1.86,0-3.37-0.57-4.54-1.71s-1.75-2.66-1.75-4.56v-0.33c0-1.27,0.25-2.41,0.74-3.42
		s1.19-1.78,2.09-2.32s1.93-0.81,3.09-0.81c1.73,0,3.1,0.55,4.1,1.64c1,1.09,1.49,2.64,1.49,4.65v1.38h-8.07
		c0.11,0.83,0.44,1.49,0.99,1.99s1.25,0.75,2.09,0.75c1.3,0,2.32-0.47,3.06-1.42l1.66,1.86c-0.51,0.72-1.19,1.28-2.06,1.68
		S77.55,250.81,76.5,250.81z M76.11,240.39c-0.67,0-1.22,0.23-1.63,0.68c-0.42,0.46-0.69,1.11-0.8,1.95h4.71v-0.27
		c-0.02-0.75-0.22-1.34-0.61-1.75C77.38,240.6,76.83,240.39,76.11,240.39z"/>
	<path class="st0" d="M100.64,245.97l1.66-8.07h3.27l-3.23,12.68H99.5l-2.4-7.98l-2.4,7.98h-2.82l-3.23-12.68h3.27l1.65,8.06
		l2.32-8.06h2.45L100.64,245.97z"/>
	<path class="st0" d="M113.08,250.81c-1.86,0-3.37-0.57-4.54-1.71s-1.75-2.66-1.75-4.56v-0.33c0-1.27,0.25-2.41,0.74-3.42
		s1.19-1.78,2.09-2.32s1.93-0.81,3.09-0.81c1.73,0,3.1,0.55,4.1,1.64s1.49,2.64,1.49,4.65v1.38h-8.07c0.11,0.83,0.44,1.49,0.99,1.99
		s1.25,0.75,2.09,0.75c1.3,0,2.32-0.47,3.06-1.42l1.66,1.86c-0.51,0.72-1.2,1.28-2.06,1.68S114.14,250.81,113.08,250.81z
		 M112.7,240.39c-0.67,0-1.22,0.23-1.63,0.68c-0.42,0.46-0.69,1.11-0.8,1.95h4.71v-0.27c-0.02-0.75-0.22-1.34-0.61-1.75
		C113.97,240.6,113.41,240.39,112.7,240.39z"/>
	<path class="st0" d="M127.34,241.07c-0.46-0.06-0.87-0.09-1.22-0.09c-1.28,0-2.12,0.43-2.52,1.3v8.3h-3.39v-12.68h3.2l0.09,1.51
		c0.68-1.16,1.62-1.75,2.82-1.75c0.38,0,0.73,0.05,1.05,0.15L127.34,241.07z"/>
	<path class="st0" d="M134.81,250.81c-1.86,0-3.37-0.57-4.54-1.71s-1.75-2.66-1.75-4.56v-0.33c0-1.27,0.25-2.41,0.74-3.42
		s1.19-1.78,2.09-2.32s1.93-0.81,3.09-0.81c1.73,0,3.1,0.55,4.1,1.64s1.49,2.64,1.49,4.65v1.38h-8.07c0.11,0.83,0.44,1.49,0.99,1.99
		s1.25,0.75,2.09,0.75c1.3,0,2.32-0.47,3.06-1.42l1.66,1.86c-0.51,0.72-1.2,1.28-2.06,1.68S135.86,250.81,134.81,250.81z
		 M134.42,240.39c-0.67,0-1.22,0.23-1.63,0.68c-0.42,0.46-0.69,1.11-0.8,1.95h4.71v-0.27c-0.02-0.75-0.22-1.34-0.61-1.75
		C135.7,240.6,135.14,240.39,134.42,240.39z"/>
	<path class="st0" d="M24.15,275.6h2.41c1.15,0,1.99-0.29,2.55-0.86c0.55-0.57,0.83-1.33,0.83-2.28c0-0.92-0.27-1.63-0.82-2.14
		c-0.55-0.51-1.3-0.77-2.26-0.77c-0.87,0-1.59,0.24-2.17,0.71c-0.58,0.47-0.88,1.09-0.88,1.85h-4.52c0-1.19,0.32-2.25,0.96-3.2
		c0.64-0.94,1.54-1.68,2.69-2.21c1.15-0.53,2.42-0.8,3.8-0.8c2.41,0,4.29,0.58,5.66,1.73c1.36,1.15,2.05,2.74,2.05,4.76
		c0,1.04-0.32,2-0.95,2.88c-0.64,0.88-1.47,1.55-2.5,2.02c1.28,0.46,2.24,1.15,2.87,2.06c0.63,0.92,0.95,2,0.95,3.25
		c0,2.02-0.74,3.64-2.21,4.86c-1.47,1.22-3.42,1.83-5.85,1.83c-2.27,0-4.13-0.6-5.57-1.8c-1.44-1.2-2.16-2.78-2.16-4.75h4.52
		c0,0.85,0.32,1.55,0.96,2.09c0.64,0.54,1.43,0.81,2.37,0.81c1.07,0,1.91-0.28,2.52-0.85c0.61-0.57,0.91-1.32,0.91-2.26
		c0-2.27-1.25-3.41-3.75-3.41h-2.39V275.6z"/>
	<path class="st0" d="M50.31,272.07l0.14,1.89c1.2-1.47,2.82-2.2,4.86-2.2c2.18,0,3.67,0.86,4.48,2.58
		c1.19-1.72,2.88-2.58,5.08-2.58c1.83,0,3.2,0.53,4.09,1.6c0.9,1.07,1.34,2.67,1.34,4.82v10.8h-4.53v-10.78
		c0-0.96-0.19-1.66-0.56-2.1c-0.38-0.44-1.04-0.66-1.98-0.66c-1.35,0-2.29,0.65-2.81,1.94l0.02,11.61h-4.52v-10.77
		c0-0.98-0.19-1.69-0.58-2.12c-0.39-0.44-1.04-0.66-1.97-0.66c-1.28,0-2.21,0.53-2.78,1.59v11.95h-4.52v-16.91H50.31z"/>
	<path class="st0" d="M73.74,267.69c0-0.68,0.23-1.23,0.68-1.67s1.07-0.66,1.85-0.66c0.77,0,1.38,0.22,1.84,0.66
		c0.46,0.44,0.69,1,0.69,1.67c0,0.69-0.23,1.25-0.7,1.69c-0.46,0.44-1.08,0.66-1.84,0.66c-0.76,0-1.37-0.22-1.84-0.66
		C73.97,268.94,73.74,268.38,73.74,267.69z M78.54,288.97h-4.53v-16.91h4.53V288.97z"/>
	<path class="st0" d="M87.02,288.97h-4.53v-24h4.53V288.97z"/>
	<path class="st0" d="M95.51,288.97h-4.53v-24h4.53V288.97z"/>
	<path class="st0" d="M99.2,267.69c0-0.68,0.23-1.23,0.68-1.67s1.07-0.66,1.85-0.66c0.77,0,1.38,0.22,1.84,0.66
		c0.46,0.44,0.69,1,0.69,1.67c0,0.69-0.23,1.25-0.7,1.69c-0.46,0.44-1.08,0.66-1.84,0.66c-0.76,0-1.37-0.22-1.84-0.66
		C99.43,268.94,99.2,268.38,99.2,267.69z M103.99,288.97h-4.53v-16.91h4.53V288.97z"/>
	<path class="st0" d="M107.01,280.36c0-1.68,0.32-3.17,0.97-4.48c0.65-1.31,1.58-2.33,2.79-3.05c1.21-0.72,2.62-1.08,4.23-1.08
		c2.28,0,4.14,0.7,5.59,2.09c1.44,1.4,2.25,3.29,2.41,5.69l0.03,1.16c0,2.59-0.72,4.67-2.17,6.24c-1.45,1.57-3.39,2.35-5.83,2.35
		s-4.38-0.78-5.84-2.34s-2.18-3.69-2.18-6.38V280.36z M111.52,280.68c0,1.61,0.3,2.84,0.91,3.69c0.6,0.85,1.47,1.28,2.59,1.28
		c1.09,0,1.95-0.42,2.56-1.26c0.61-0.84,0.92-2.18,0.92-4.03c0-1.58-0.31-2.8-0.92-3.66c-0.62-0.87-1.48-1.3-2.59-1.3
		c-1.1,0-1.96,0.43-2.56,1.29C111.83,277.55,111.52,278.88,111.52,280.68z"/>
	<path class="st0" d="M129.96,272.07l0.14,1.95c1.21-1.51,2.83-2.27,4.86-2.27c1.79,0,3.12,0.53,4,1.58
		c0.88,1.05,1.32,2.62,1.34,4.72v10.92h-4.52v-10.81c0-0.96-0.21-1.65-0.62-2.09c-0.42-0.43-1.11-0.65-2.08-0.65
		c-1.27,0-2.22,0.54-2.86,1.62v11.92h-4.52v-16.91H129.96z"/>
	<path class="st0" d="M12.21,301.81c0-0.51,0.17-0.93,0.51-1.25s0.8-0.49,1.39-0.49c0.58,0,1.04,0.16,1.38,0.49s0.52,0.75,0.52,1.25
		c0,0.52-0.17,0.94-0.52,1.27s-0.81,0.49-1.38,0.49s-1.03-0.16-1.38-0.49S12.21,302.33,12.21,301.81z M15.81,317.77h-3.4v-12.68h3.4
		V317.77z"/>
	<path class="st0" d="M18.07,311.34c0-1.98,0.44-3.55,1.33-4.72s2.1-1.76,3.64-1.76c1.23,0,2.25,0.46,3.06,1.38v-6.47h3.4v18h-3.06
		l-0.16-1.35c-0.84,1.05-1.93,1.58-3.26,1.58c-1.49,0-2.69-0.59-3.59-1.76S18.07,313.43,18.07,311.34z M21.46,311.59
		c0,1.19,0.21,2.1,0.62,2.74s1.02,0.95,1.8,0.95c1.05,0,1.79-0.44,2.21-1.33v-5.01c-0.42-0.88-1.15-1.33-2.19-1.33
		C22.28,307.61,21.46,308.94,21.46,311.59z"/>
	<path class="st0" d="M37.96,318.01c-1.86,0-3.37-0.57-4.54-1.71s-1.75-2.66-1.75-4.56v-0.33c0-1.27,0.25-2.41,0.74-3.42
		s1.19-1.78,2.09-2.32s1.93-0.81,3.09-0.81c1.73,0,3.1,0.55,4.1,1.64s1.49,2.64,1.49,4.65v1.38H35.1c0.11,0.83,0.44,1.49,0.99,1.99
		s1.25,0.75,2.09,0.75c1.3,0,2.32-0.47,3.06-1.42l1.66,1.86c-0.51,0.72-1.2,1.28-2.06,1.68S39.01,318.01,37.96,318.01z
		 M37.57,307.59c-0.67,0-1.22,0.23-1.63,0.68c-0.42,0.46-0.69,1.11-0.8,1.95h4.71v-0.27c-0.02-0.75-0.22-1.34-0.61-1.75
		S38.29,307.59,37.57,307.59z"/>
	<path class="st0" d="M48.21,305.09l0.11,1.46c0.91-1.13,2.12-1.7,3.64-1.7c1.34,0,2.34,0.39,3,1.18s0.99,1.97,1.01,3.54v8.19h-3.39
		v-8.11c0-0.72-0.16-1.24-0.47-1.56s-0.83-0.49-1.56-0.49c-0.95,0-1.67,0.41-2.14,1.22v8.94h-3.39v-12.68H48.21z"/>
	<path class="st0" d="M62.59,301.98v3.12h2.17v2.48h-2.17v6.33c0,0.47,0.09,0.8,0.27,1.01s0.52,0.3,1.03,0.3
		c0.38,0,0.71-0.03,1-0.08v2.57c-0.66,0.2-1.35,0.3-2.05,0.3c-2.38,0-3.59-1.2-3.63-3.6v-6.83h-1.85v-2.48h1.85v-3.12H62.59z"/>
	<path class="st0" d="M66.62,301.81c0-0.51,0.17-0.93,0.51-1.25s0.8-0.49,1.39-0.49c0.58,0,1.04,0.16,1.38,0.49s0.52,0.75,0.52,1.25
		c0,0.52-0.17,0.94-0.52,1.27s-0.81,0.49-1.38,0.49s-1.03-0.16-1.38-0.49S66.62,302.33,66.62,301.81z M70.22,317.77h-3.4v-12.68h3.4
		V317.77z"/>
	<path class="st0" d="M77.06,301.98v3.12h2.17v2.48h-2.17v6.33c0,0.47,0.09,0.8,0.27,1.01s0.52,0.3,1.03,0.3
		c0.38,0,0.71-0.03,1-0.08v2.57c-0.66,0.2-1.35,0.3-2.05,0.3c-2.38,0-3.59-1.2-3.63-3.6v-6.83h-1.85v-2.48h1.85v-3.12H77.06z"/>
	<path class="st0" d="M85.85,312.98l2.34-7.89h3.63l-5.1,14.65l-0.28,0.67c-0.76,1.66-2.01,2.48-3.75,2.48
		c-0.49,0-0.99-0.07-1.5-0.22v-2.57l0.52,0.01c0.64,0,1.12-0.1,1.44-0.29s0.56-0.52,0.74-0.97l0.4-1.04l-4.44-12.71h3.64
		L85.85,312.98z"/>
	<path class="st0" d="M103.2,301.98v3.12h2.17v2.48h-2.17v6.33c0,0.47,0.09,0.8,0.27,1.01s0.52,0.3,1.03,0.3
		c0.38,0,0.71-0.03,1-0.08v2.57c-0.66,0.2-1.35,0.3-2.05,0.3c-2.38,0-3.59-1.2-3.63-3.6v-6.83h-1.85v-2.48h1.85v-3.12H103.2z"/>
	<path class="st0" d="M110.56,306.48c0.9-1.08,2.03-1.62,3.39-1.62c2.75,0,4.14,1.6,4.18,4.79v8.12h-3.39v-8.03
		c0-0.73-0.16-1.26-0.47-1.61s-0.83-0.52-1.56-0.52c-0.99,0-1.71,0.38-2.16,1.15v9.01h-3.39v-18h3.39V306.48z"/>
	<path class="st0" d="M126.52,318.01c-1.86,0-3.37-0.57-4.54-1.71s-1.75-2.66-1.75-4.56v-0.33c0-1.27,0.25-2.41,0.74-3.42
		s1.19-1.78,2.09-2.32s1.93-0.81,3.09-0.81c1.73,0,3.1,0.55,4.1,1.64s1.49,2.64,1.49,4.65v1.38h-8.07c0.11,0.83,0.44,1.49,0.99,1.99
		s1.25,0.75,2.09,0.75c1.3,0,2.32-0.47,3.06-1.42l1.66,1.86c-0.51,0.72-1.2,1.28-2.06,1.68S127.57,318.01,126.52,318.01z
		 M126.13,307.59c-0.67,0-1.22,0.23-1.63,0.68c-0.42,0.46-0.69,1.11-0.8,1.95h4.71v-0.27c-0.02-0.75-0.22-1.34-0.61-1.75
		S126.85,307.59,126.13,307.59z"/>
	<path class="st0" d="M134.58,317.77v-10.2h-1.89v-2.48h1.89v-1.08c0-1.42,0.41-2.53,1.22-3.31s1.96-1.18,3.43-1.18
		c0.47,0,1.04,0.08,1.72,0.23l-0.04,2.62c-0.28-0.07-0.62-0.11-1.03-0.11c-1.27,0-1.91,0.6-1.91,1.79v1.02h2.52v2.48h-2.52v10.2
		H134.58z"/>
	<path class="st0" d="M146.31,301.98v3.12h2.17v2.48h-2.17v6.33c0,0.47,0.09,0.8,0.27,1.01s0.52,0.3,1.03,0.3
		c0.38,0,0.71-0.03,1-0.08v2.57c-0.66,0.2-1.35,0.3-2.05,0.3c-2.38,0-3.59-1.2-3.63-3.6v-6.83h-1.85v-2.48h1.85v-3.12H146.31z"/>
	<path class="st0" d="M33.86,342.44l2.36-8.54h3.54l-4.28,12.68h-3.23l-4.28-12.68h3.54L33.86,342.44z"/>
	<path class="st0" d="M41.22,330.61c0-0.51,0.17-0.93,0.51-1.25s0.8-0.49,1.39-0.49c0.58,0,1.04,0.16,1.38,0.49s0.52,0.75,0.52,1.25
		c0,0.52-0.17,0.94-0.52,1.27s-0.81,0.49-1.38,0.49s-1.03-0.16-1.38-0.49S41.22,331.13,41.22,330.61z M44.81,346.57h-3.4v-12.68h3.4
		V346.57z"/>
	<path class="st0" d="M52.88,344.08c0.62,0,1.13-0.17,1.52-0.52s0.59-0.8,0.61-1.37h3.18c-0.01,0.86-0.24,1.65-0.7,2.36
		s-1.09,1.27-1.89,1.66s-1.69,0.59-2.65,0.59c-1.81,0-3.24-0.58-4.29-1.73s-1.57-2.74-1.57-4.78v-0.22c0-1.95,0.52-3.51,1.56-4.68
		s2.46-1.75,4.28-1.75c1.59,0,2.86,0.45,3.81,1.35s1.44,2.1,1.46,3.6h-3.18c-0.02-0.66-0.22-1.2-0.61-1.61
		c-0.39-0.41-0.91-0.62-1.55-0.62c-0.79,0-1.38,0.29-1.79,0.86c-0.4,0.57-0.6,1.51-0.6,2.8v0.35c0,1.31,0.2,2.25,0.6,2.82
		S52.06,344.08,52.88,344.08z"/>
	<path class="st0" d="M64.17,330.78v3.12h2.17v2.48h-2.17v6.33c0,0.47,0.09,0.8,0.27,1.01s0.52,0.3,1.03,0.3
		c0.38,0,0.71-0.03,1-0.08v2.57c-0.66,0.2-1.35,0.3-2.05,0.3c-2.38,0-3.59-1.2-3.63-3.6v-6.83h-1.85v-2.48h1.85v-3.12H64.17z"/>
	<path class="st0" d="M68.21,330.61c0-0.51,0.17-0.93,0.51-1.25s0.8-0.49,1.39-0.49c0.58,0,1.04,0.16,1.38,0.49S72,330.1,72,330.61
		c0,0.52-0.17,0.94-0.52,1.27s-0.81,0.49-1.38,0.49s-1.03-0.16-1.38-0.49S68.21,331.13,68.21,330.61z M71.8,346.57h-3.4v-12.68h3.4
		V346.57z"/>
	<path class="st0" d="M77.77,333.89l0.11,1.42c0.9-1.1,2.11-1.65,3.64-1.65c1.63,0,2.75,0.64,3.36,1.93
		c0.89-1.29,2.16-1.93,3.81-1.93c1.38,0,2.4,0.4,3.07,1.2s1.01,2.01,1.01,3.62v8.1h-3.4v-8.09c0-0.72-0.14-1.24-0.42-1.58
		s-0.78-0.5-1.49-0.5c-1.02,0-1.72,0.48-2.11,1.45l0.01,8.71h-3.39v-8.07c0-0.73-0.14-1.27-0.43-1.59s-0.78-0.49-1.48-0.49
		c-0.96,0-1.66,0.4-2.09,1.2v8.96h-3.39v-12.68H77.77z"/>
	<path class="st0" d="M102.24,343.07c0-0.41-0.21-0.74-0.62-0.98s-1.07-0.45-1.97-0.64c-3.02-0.63-4.52-1.91-4.52-3.84
		c0-1.12,0.47-2.06,1.4-2.82s2.15-1.13,3.66-1.13c1.61,0,2.9,0.38,3.86,1.14s1.45,1.74,1.45,2.95h-3.39c0-0.48-0.16-0.88-0.47-1.2
		s-0.8-0.47-1.46-0.47c-0.57,0-1.01,0.13-1.32,0.39s-0.47,0.59-0.47,0.98c0,0.38,0.18,0.68,0.53,0.91s0.96,0.43,1.8,0.6
		s1.55,0.36,2.13,0.57c1.79,0.66,2.68,1.79,2.68,3.41c0,1.16-0.5,2.09-1.49,2.81s-2.27,1.07-3.84,1.07c-1.06,0-2.01-0.19-2.83-0.57
		s-1.47-0.9-1.94-1.56s-0.7-1.37-0.7-2.14h3.21c0.03,0.6,0.25,1.06,0.67,1.38s0.97,0.48,1.66,0.48c0.65,0,1.14-0.12,1.47-0.37
		S102.24,343.47,102.24,343.07z"/>
	<path class="st0" d="M113.66,330.61c0-0.51,0.17-0.93,0.51-1.25s0.8-0.49,1.39-0.49c0.58,0,1.04,0.16,1.38,0.49
		s0.52,0.75,0.52,1.25c0,0.52-0.17,0.94-0.52,1.27s-0.81,0.49-1.38,0.49s-1.03-0.16-1.38-0.49S113.66,331.13,113.66,330.61z
		 M117.26,346.57h-3.4v-12.68h3.4V346.57z"/>
	<path class="st0" d="M123.17,333.89l0.11,1.46c0.91-1.13,2.12-1.7,3.64-1.7c1.34,0,2.34,0.39,3,1.18s0.99,1.97,1.01,3.54v8.19
		h-3.39v-8.11c0-0.72-0.16-1.24-0.47-1.56s-0.83-0.49-1.56-0.49c-0.95,0-1.67,0.41-2.14,1.22v8.94h-3.39v-12.68H123.17z"/>
	<path class="st0" d="M56.94,384.97H41.34v-3.09l7.36-7.84c1.01-1.1,1.76-2.07,2.24-2.89s0.73-1.6,0.73-2.34
		c0-1.01-0.26-1.8-0.77-2.38c-0.51-0.58-1.24-0.87-2.19-0.87c-1.02,0-1.83,0.35-2.41,1.05c-0.59,0.7-0.88,1.63-0.88,2.77h-4.53
		c0-1.39,0.33-2.65,0.99-3.8c0.66-1.15,1.6-2.04,2.8-2.7c1.21-0.65,2.58-0.98,4.11-0.98c2.34,0,4.16,0.56,5.46,1.69
		s1.95,2.71,1.95,4.77c0,1.12-0.29,2.27-0.88,3.44c-0.58,1.17-1.58,2.53-3,4.08l-5.17,5.45h9.78V384.97z"/>
	<path class="st0" d="M75.01,375.57c0,3.15-0.65,5.55-1.95,7.22c-1.3,1.67-3.21,2.5-5.72,2.5c-2.48,0-4.38-0.82-5.69-2.45
		s-1.98-3.98-2.02-7.03v-4.19c0-3.18,0.66-5.59,1.98-7.23c1.32-1.65,3.22-2.47,5.7-2.47c2.48,0,4.38,0.82,5.69,2.45
		s1.98,3.97,2.02,7.02V375.57z M70.5,370.96c0-1.89-0.26-3.26-0.77-4.12s-1.32-1.29-2.41-1.29c-1.06,0-1.85,0.41-2.35,1.23
		c-0.51,0.82-0.77,2.1-0.8,3.84v5.54c0,1.86,0.25,3.24,0.76,4.14c0.5,0.9,1.31,1.35,2.43,1.35c1.1,0,1.9-0.43,2.39-1.3
		c0.49-0.87,0.74-2.19,0.77-3.97V370.96z"/>
	<path class="st0" d="M89.03,384.97h-4.52v-17.41l-5.39,1.67v-3.67l9.42-3.38h0.48V384.97z"/>
	<path class="st0" d="M106.98,375.88c-1.18,1.16-2.55,1.73-4.12,1.73c-2.01,0-3.62-0.69-4.83-2.07c-1.21-1.38-1.81-3.24-1.81-5.59
		c0-1.49,0.33-2.86,0.98-4.1c0.65-1.25,1.56-2.21,2.73-2.91c1.17-0.69,2.48-1.04,3.94-1.04c1.5,0,2.83,0.38,4,1.12
		c1.17,0.75,2.07,1.83,2.72,3.23c0.65,1.41,0.97,3.02,0.98,4.83v1.67c0,3.79-0.94,6.77-2.83,8.94c-1.89,2.17-4.56,3.32-8.02,3.47
		l-1.11,0.02v-3.77l1-0.02C104.53,381.23,106.66,379.39,106.98,375.88z M103.97,374.16c0.73,0,1.36-0.19,1.88-0.56
		c0.53-0.38,0.92-0.83,1.2-1.36v-1.86c0-1.53-0.29-2.72-0.88-3.56c-0.58-0.84-1.37-1.27-2.34-1.27c-0.91,0-1.65,0.41-2.23,1.24
		c-0.58,0.83-0.88,1.87-0.88,3.12c0,1.24,0.28,2.26,0.85,3.05C102.14,373.76,102.94,374.16,103.97,374.16z"/>
	<path class="st0" d="M114.71,383.31c0-0.54,0.18-0.98,0.54-1.31s0.82-0.5,1.37-0.5c0.55,0,1.01,0.17,1.38,0.5s0.54,0.77,0.54,1.31
		c0,0.53-0.18,0.96-0.54,1.29s-0.82,0.5-1.38,0.5c-0.55,0-1.01-0.17-1.37-0.5S114.71,383.84,114.71,383.31z"/>
</g>
<g>
	<path class="st0" d="M122.54,364.69l-2.15-0.61l0.4-1.24l2.13,0.85l-0.14-2.38h1.34l-0.14,2.43l2.07-0.84l0.4,1.25l-2.19,0.61
		l1.44,1.82l-1.09,0.77l-1.24-2l-1.23,1.93l-1.09-0.74L122.54,364.69z"/>
</g>
</svg>
