<?xml version="1.0" encoding="utf-8"?>
<!-- Generator: Adobe Illustrator 24.2.3, SVG Export Plug-In . SVG Version: 6.00 Build 0)  -->
<svg version="1.1" id="Layer_1" xmlns="http://www.w3.org/2000/svg" xmlns:xlink="http://www.w3.org/1999/xlink" x="0px" y="0px"
	 viewBox="0 0 160 600" style="enable-background:new 0 0 160 600;" xml:space="preserve">
<style type="text/css">
	.st0{fill:#E82D8A;}
	.st1{fill:#FFFFFF;}
</style>
<g id="Button_1_">
	<path class="st0" d="M120.53,388.46H39.89c-13.2,0-23.89-10.7-23.89-23.89v0c0-13.2,10.7-23.89,23.89-23.89h80.64
		c13.2,0,23.89,10.7,23.89,23.89v0C144.42,377.77,133.72,388.46,120.53,388.46z"/>
	<g>
		<path class="st1" d="M63.28,359.8c-0.11,1.21-0.56,2.16-1.34,2.84s-1.82,1.02-3.12,1.02c-0.91,0-1.7-0.21-2.39-0.64
			s-1.22-1.04-1.6-1.83c-0.38-0.79-0.57-1.71-0.59-2.76v-1.06c0-1.07,0.19-2.02,0.57-2.84c0.38-0.82,0.93-1.45,1.64-1.89
			c0.71-0.44,1.53-0.66,2.46-0.66c1.25,0,2.27,0.34,3.03,1.02s1.21,1.64,1.34,2.89h-1.97c-0.09-0.82-0.33-1.41-0.71-1.77
			c-0.38-0.36-0.94-0.54-1.68-0.54c-0.86,0-1.52,0.31-1.98,0.94s-0.7,1.55-0.71,2.76v1.01c0,1.23,0.22,2.17,0.66,2.81
			s1.08,0.97,1.93,0.97c0.78,0,1.36-0.17,1.75-0.52c0.39-0.35,0.64-0.93,0.74-1.74H63.28z"/>
		<path class="st1" d="M66.88,363.5h-1.9v-12h1.9V363.5z"/>
		<path class="st1" d="M68.95,352.85c0-0.29,0.09-0.53,0.28-0.73c0.18-0.19,0.45-0.29,0.79-0.29s0.61,0.1,0.8,0.29
			c0.19,0.19,0.28,0.44,0.28,0.73c0,0.29-0.09,0.53-0.28,0.71c-0.19,0.19-0.45,0.29-0.8,0.29s-0.61-0.09-0.79-0.29
			C69.05,353.38,68.95,353.14,68.95,352.85z M70.97,363.5h-1.9v-8.45h1.9V363.5z"/>
		<path class="st1" d="M76.51,362.14c0.47,0,0.87-0.14,1.18-0.41c0.31-0.28,0.48-0.62,0.5-1.02h1.79c-0.02,0.53-0.18,1.02-0.49,1.47
			c-0.31,0.46-0.72,0.82-1.25,1.08s-1.09,0.4-1.7,0.4c-1.18,0-2.12-0.38-2.81-1.15s-1.04-1.82-1.04-3.17v-0.2
			c0-1.29,0.34-2.32,1.03-3.09s1.62-1.16,2.81-1.16c1,0,1.82,0.29,2.46,0.88s0.96,1.36,1,2.31h-1.79c-0.02-0.48-0.19-0.88-0.5-1.2
			s-0.7-0.47-1.18-0.47c-0.61,0-1.09,0.22-1.42,0.67s-0.5,1.12-0.51,2.03v0.3c0,0.92,0.17,1.6,0.5,2.05
			C75.41,361.92,75.88,362.14,76.51,362.14z"/>
		<path class="st1" d="M84.16,359.88l-0.84,0.87v2.76h-1.9v-12h1.9v6.92l0.59-0.74l2.34-2.63h2.28l-3.14,3.52l3.48,4.93h-2.2
			L84.16,359.88z"/>
		<path class="st1" d="M96.13,352.99v2.05h1.49v1.41h-1.49v4.72c0,0.32,0.06,0.56,0.19,0.7c0.13,0.14,0.36,0.21,0.68,0.21
			c0.22,0,0.44-0.03,0.66-0.08v1.47c-0.43,0.12-0.85,0.18-1.25,0.18c-1.46,0-2.19-0.8-2.19-2.41v-4.79h-1.39v-1.41h1.39v-2.05H96.13
			z"/>
		<path class="st1" d="M98.48,359.2c0-0.83,0.16-1.57,0.49-2.24s0.79-1.17,1.38-1.53c0.59-0.36,1.28-0.54,2.05-0.54
			c1.14,0,2.07,0.37,2.78,1.1s1.09,1.71,1.15,2.92l0.01,0.45c0,0.83-0.16,1.58-0.48,2.23s-0.78,1.16-1.38,1.52s-1.29,0.54-2.07,0.54
			c-1.19,0-2.15-0.4-2.86-1.19c-0.72-0.79-1.07-1.85-1.07-3.18V359.2z M100.38,359.36c0,0.87,0.18,1.55,0.54,2.04
			s0.86,0.74,1.5,0.74s1.14-0.25,1.5-0.75s0.54-1.23,0.54-2.2c0-0.85-0.18-1.53-0.55-2.03s-0.87-0.75-1.5-0.75
			c-0.62,0-1.11,0.25-1.48,0.74S100.38,358.38,100.38,359.36z"/>
		<path class="st1" d="M44.66,378.5h-1.9v-12h1.9V378.5z"/>
		<path class="st1" d="M50.45,378.66c-1.2,0-2.18-0.38-2.93-1.14s-1.12-1.77-1.12-3.03v-0.23c0-0.84,0.16-1.6,0.49-2.26
			s0.78-1.18,1.37-1.55c0.59-0.37,1.25-0.55,1.97-0.55c1.15,0,2.04,0.37,2.67,1.1s0.94,1.77,0.94,3.12v0.77h-5.52
			c0.06,0.7,0.29,1.25,0.7,1.66s0.92,0.61,1.54,0.61c0.87,0,1.58-0.35,2.12-1.05l1.02,0.98c-0.34,0.51-0.79,0.9-1.36,1.18
			S51.15,378.66,50.45,378.66z M50.22,371.42c-0.52,0-0.94,0.18-1.26,0.55c-0.32,0.37-0.52,0.87-0.61,1.52h3.62v-0.14
			c-0.04-0.63-0.21-1.12-0.51-1.44C51.16,371.58,50.75,371.42,50.22,371.42z"/>
		<path class="st1" d="M60.36,378.5c-0.08-0.16-0.16-0.42-0.22-0.79c-0.6,0.63-1.34,0.95-2.22,0.95c-0.85,0-1.54-0.24-2.08-0.73
			s-0.8-1.08-0.8-1.8c0-0.9,0.33-1.59,1-2.07c0.67-0.48,1.63-0.72,2.87-0.72h1.16v-0.55c0-0.44-0.12-0.79-0.37-1.05
			c-0.25-0.26-0.62-0.39-1.12-0.39c-0.43,0-0.79,0.11-1.06,0.32c-0.28,0.22-0.41,0.49-0.41,0.82h-1.9c0-0.46,0.15-0.9,0.46-1.3
			c0.31-0.4,0.73-0.72,1.25-0.95c0.53-0.23,1.12-0.34,1.77-0.34c0.99,0,1.78,0.25,2.37,0.75c0.59,0.5,0.89,1.2,0.91,2.1v3.81
			c0,0.76,0.11,1.37,0.32,1.82v0.13H60.36z M58.28,377.13c0.38,0,0.73-0.09,1.06-0.27c0.33-0.18,0.58-0.43,0.75-0.73v-1.59h-1.02
			c-0.7,0-1.23,0.12-1.59,0.37c-0.35,0.25-0.53,0.59-0.53,1.04c0,0.37,0.12,0.66,0.36,0.87C57.55,377.03,57.87,377.13,58.28,377.13z
			"/>
		<path class="st1" d="M68.4,371.78c-0.25-0.04-0.51-0.06-0.77-0.06c-0.87,0-1.46,0.33-1.76,1v5.78h-1.9v-8.45h1.81l0.05,0.95
			c0.46-0.73,1.09-1.1,1.91-1.1c0.27,0,0.5,0.04,0.67,0.11L68.4,371.78z"/>
		<path class="st1" d="M71.36,370.05l0.05,0.98c0.62-0.75,1.45-1.13,2.46-1.13c1.76,0,2.66,1.01,2.69,3.02v5.59h-1.9v-5.48
			c0-0.54-0.12-0.93-0.35-1.19s-0.61-0.39-1.14-0.39c-0.77,0-1.34,0.35-1.71,1.04v6.02h-1.9v-8.45H71.36z"/>
		<path class="st1" d="M84.26,370.05l0.05,0.88c0.59-0.69,1.41-1.04,2.44-1.04c1.13,0,1.9,0.43,2.32,1.3
			c0.61-0.86,1.48-1.3,2.59-1.3c0.93,0,1.63,0.26,2.08,0.77s0.69,1.28,0.7,2.28v5.55h-1.9V373c0-0.54-0.12-0.93-0.35-1.18
			s-0.62-0.38-1.16-0.38c-0.43,0-0.79,0.12-1.06,0.35c-0.27,0.23-0.46,0.54-0.57,0.91l0.01,5.8h-1.9v-5.56
			c-0.03-0.99-0.53-1.49-1.52-1.49c-0.76,0-1.3,0.31-1.62,0.93v6.12h-1.9v-8.45H84.26z"/>
		<path class="st1" d="M96.04,374.2c0-0.83,0.16-1.57,0.49-2.24s0.79-1.17,1.38-1.53c0.59-0.36,1.28-0.54,2.05-0.54
			c1.14,0,2.07,0.37,2.78,1.1s1.09,1.71,1.15,2.92l0.01,0.45c0,0.83-0.16,1.58-0.48,2.23s-0.78,1.16-1.38,1.52s-1.29,0.54-2.07,0.54
			c-1.19,0-2.15-0.4-2.86-1.19c-0.72-0.79-1.07-1.85-1.07-3.18V374.2z M97.94,374.36c0,0.87,0.18,1.55,0.54,2.04s0.86,0.74,1.5,0.74
			s1.14-0.25,1.5-0.75s0.54-1.23,0.54-2.2c0-0.85-0.18-1.53-0.55-2.03s-0.87-0.75-1.5-0.75c-0.62,0-1.11,0.25-1.48,0.74
			S97.94,373.38,97.94,374.36z"/>
		<path class="st1" d="M109.93,371.78c-0.25-0.04-0.51-0.06-0.77-0.06c-0.87,0-1.46,0.33-1.76,1v5.78h-1.9v-8.45h1.81l0.05,0.95
			c0.46-0.73,1.09-1.1,1.91-1.1c0.27,0,0.5,0.04,0.67,0.11L109.93,371.78z"/>
		<path class="st1" d="M114.86,378.66c-1.2,0-2.18-0.38-2.93-1.14s-1.12-1.77-1.12-3.03v-0.23c0-0.84,0.16-1.6,0.49-2.26
			s0.78-1.18,1.37-1.55c0.59-0.37,1.25-0.55,1.97-0.55c1.15,0,2.04,0.37,2.67,1.1s0.94,1.77,0.94,3.12v0.77h-5.52
			c0.06,0.7,0.29,1.25,0.7,1.66s0.92,0.61,1.54,0.61c0.87,0,1.58-0.35,2.12-1.05l1.02,0.98c-0.34,0.51-0.79,0.9-1.36,1.18
			S115.56,378.66,114.86,378.66z M114.63,371.42c-0.52,0-0.94,0.18-1.26,0.55c-0.32,0.37-0.52,0.87-0.61,1.52h3.62v-0.14
			c-0.04-0.63-0.21-1.12-0.51-1.44C115.57,371.58,115.16,371.42,114.63,371.42z"/>
	</g>
</g>
</svg>
