<?xml version="1.0" encoding="utf-8"?>
<!-- Generator: Adobe Illustrator 24.2.3, SVG Export Plug-In . SVG Version: 6.00 Build 0)  -->
<svg version="1.1" id="Layer_1" xmlns="http://www.w3.org/2000/svg" xmlns:xlink="http://www.w3.org/1999/xlink" x="0px" y="0px"
	 viewBox="0 0 160 600" style="enable-background:new 0 0 160 600;" xml:space="preserve">
<style type="text/css">
	.st0{fill:#FFFFFF;}
</style>
<g>
	<path class="st0" d="M21.34,567.91l-1.47-0.44l0.22-0.74l1.47,0.55l-0.04-1.68h0.75l-0.05,1.7l1.45-0.54l0.22,0.74l-1.5,0.44
		l0.97,1.32l-0.61,0.46l-0.91-1.41l-0.88,1.37l-0.61-0.44L21.34,567.91z"/>
	<path class="st0" d="M30.96,572.71H26.3v-0.65l2.46-2.73c0.36-0.41,0.62-0.75,0.75-1.01c0.14-0.26,0.21-0.53,0.21-0.8
		c0-0.37-0.11-0.67-0.34-0.91s-0.52-0.36-0.9-0.36c-0.45,0-0.8,0.13-1.05,0.38c-0.25,0.25-0.37,0.61-0.37,1.07h-0.9
		c0-0.65,0.21-1.18,0.63-1.59c0.42-0.4,0.99-0.61,1.69-0.61c0.66,0,1.18,0.17,1.57,0.52c0.38,0.35,0.58,0.81,0.58,1.38
		c0,0.7-0.45,1.53-1.34,2.5l-1.9,2.07h3.57V572.71z"/>
	<path class="st0" d="M36.37,569.68c0,1.06-0.18,1.84-0.54,2.36s-0.93,0.77-1.69,0.77c-0.76,0-1.32-0.25-1.68-0.75
		c-0.36-0.5-0.55-1.25-0.57-2.25v-1.21c0-1.04,0.18-1.82,0.54-2.33s0.93-0.76,1.7-0.76c0.76,0,1.33,0.25,1.69,0.74
		c0.36,0.49,0.55,1.25,0.56,2.27V569.68z M35.47,568.44c0-0.76-0.11-1.32-0.32-1.67c-0.21-0.35-0.55-0.52-1.02-0.52
		c-0.46,0-0.8,0.17-1.01,0.52s-0.32,0.88-0.33,1.61v1.45c0,0.77,0.11,1.33,0.33,1.7c0.22,0.37,0.56,0.55,1.01,0.55
		c0.45,0,0.78-0.17,0.99-0.52c0.22-0.35,0.33-0.89,0.34-1.63V568.44z"/>
	<path class="st0" d="M42.19,572.71h-4.66v-0.65l2.46-2.73c0.36-0.41,0.62-0.75,0.75-1.01c0.14-0.26,0.21-0.53,0.21-0.8
		c0-0.37-0.11-0.67-0.34-0.91s-0.52-0.36-0.9-0.36c-0.45,0-0.8,0.13-1.05,0.38c-0.25,0.25-0.37,0.61-0.37,1.07h-0.9
		c0-0.65,0.21-1.18,0.63-1.59c0.42-0.4,0.99-0.61,1.69-0.61c0.66,0,1.18,0.17,1.57,0.52c0.38,0.35,0.58,0.81,0.58,1.38
		c0,0.7-0.45,1.53-1.34,2.5l-1.9,2.07h3.57V572.71z"/>
	<path class="st0" d="M47.6,569.68c0,1.06-0.18,1.84-0.54,2.36s-0.93,0.77-1.69,0.77c-0.76,0-1.32-0.25-1.68-0.75
		c-0.36-0.5-0.55-1.25-0.57-2.25v-1.21c0-1.04,0.18-1.82,0.54-2.33s0.93-0.76,1.7-0.76c0.76,0,1.33,0.25,1.69,0.74
		c0.36,0.49,0.55,1.25,0.56,2.27V569.68z M46.7,568.44c0-0.76-0.11-1.32-0.32-1.67c-0.21-0.35-0.55-0.52-1.02-0.52
		c-0.46,0-0.8,0.17-1.01,0.52s-0.32,0.88-0.33,1.61v1.45c0,0.77,0.11,1.33,0.33,1.7c0.22,0.37,0.56,0.55,1.01,0.55
		c0.45,0,0.78-0.17,0.99-0.52c0.22-0.35,0.33-0.89,0.34-1.63V568.44z"/>
	<path class="st0" d="M52.48,572.71h-0.94v-7.11h0.94V572.71z"/>
	<path class="st0" d="M53.83,570.02c0-0.81,0.19-1.46,0.58-1.96c0.38-0.49,0.89-0.74,1.51-0.74c0.62,0,1.11,0.21,1.47,0.63v-2.75
		h0.9v7.5h-0.83l-0.04-0.57c-0.36,0.44-0.86,0.66-1.51,0.66c-0.61,0-1.11-0.25-1.5-0.75c-0.39-0.5-0.58-1.16-0.58-1.96V570.02z
		 M54.73,570.13c0,0.6,0.12,1.07,0.37,1.41s0.59,0.51,1.03,0.51c0.57,0,0.99-0.26,1.25-0.77v-2.43c-0.27-0.5-0.69-0.75-1.25-0.75
		c-0.44,0-0.79,0.17-1.04,0.51S54.73,569.46,54.73,570.13z"/>
	<path class="st0" d="M61.88,572.81c-0.72,0-1.3-0.24-1.75-0.71c-0.45-0.47-0.67-1.1-0.67-1.89v-0.17c0-0.52,0.1-0.99,0.3-1.4
		c0.2-0.41,0.48-0.73,0.84-0.97c0.36-0.23,0.75-0.35,1.17-0.35c0.69,0,1.22,0.23,1.6,0.68s0.57,1.1,0.57,1.94v0.38h-3.58
		c0.01,0.52,0.17,0.94,0.46,1.26c0.29,0.32,0.66,0.48,1.11,0.48c0.32,0,0.59-0.06,0.81-0.2s0.42-0.3,0.58-0.52l0.55,0.43
		C63.43,572.47,62.77,572.81,61.88,572.81z M61.77,568.07c-0.36,0-0.67,0.13-0.92,0.4c-0.25,0.27-0.4,0.64-0.46,1.12h2.65v-0.07
		c-0.03-0.46-0.15-0.81-0.37-1.07C62.45,568.2,62.15,568.07,61.77,568.07z"/>
	<path class="st0" d="M65.84,567.43l0.03,0.66c0.4-0.51,0.93-0.76,1.58-0.76c1.12,0,1.68,0.63,1.69,1.89v3.49h-0.9v-3.5
		c0-0.38-0.09-0.66-0.26-0.84c-0.17-0.18-0.44-0.27-0.8-0.27c-0.29,0-0.55,0.08-0.77,0.23s-0.39,0.36-0.52,0.62v3.76h-0.9v-5.28
		H65.84z"/>
	<path class="st0" d="M71.73,566.15v1.28h0.99v0.7h-0.99v3.28c0,0.21,0.04,0.37,0.13,0.48c0.09,0.11,0.24,0.16,0.45,0.16
		c0.1,0,0.25-0.02,0.43-0.06v0.73c-0.24,0.06-0.47,0.1-0.69,0.1c-0.4,0-0.71-0.12-0.91-0.37s-0.31-0.59-0.31-1.04v-3.28h-0.96v-0.7
		h0.96v-1.28H71.73z"/>
	<path class="st0" d="M73.78,566.03c0-0.15,0.04-0.27,0.13-0.37c0.09-0.1,0.22-0.15,0.4-0.15s0.31,0.05,0.4,0.15
		s0.14,0.22,0.14,0.37s-0.05,0.27-0.14,0.37s-0.22,0.15-0.4,0.15s-0.31-0.05-0.4-0.15C73.82,566.29,73.78,566.17,73.78,566.03z
		 M74.75,572.71h-0.9v-5.28h0.9V572.71z"/>
	<path class="st0" d="M77.42,566.15v1.28h0.99v0.7h-0.99v3.28c0,0.21,0.04,0.37,0.13,0.48c0.09,0.11,0.24,0.16,0.45,0.16
		c0.1,0,0.25-0.02,0.43-0.06v0.73c-0.24,0.06-0.47,0.1-0.69,0.1c-0.4,0-0.71-0.12-0.91-0.37s-0.31-0.59-0.31-1.04v-3.28h-0.96v-0.7
		h0.96v-1.28H77.42z"/>
	<path class="st0" d="M81.19,571.39l1.23-3.96h0.97l-2.12,6.1c-0.33,0.88-0.85,1.32-1.57,1.32l-0.17-0.01l-0.34-0.06v-0.73
		l0.24,0.02c0.31,0,0.54-0.06,0.71-0.19c0.17-0.12,0.31-0.35,0.42-0.68l0.2-0.54l-1.88-5.22h0.99L81.19,571.39z"/>
	<path class="st0" d="M90.73,569.57h-2.98v3.14h-0.94v-7.11h4.4v0.77h-3.47v2.44h2.98V569.57z"/>
	<path class="st0" d="M94.62,568.24c-0.14-0.02-0.29-0.03-0.44-0.03c-0.59,0-0.99,0.25-1.21,0.76v3.75h-0.9v-5.28h0.88l0.01,0.61
		c0.3-0.47,0.72-0.71,1.26-0.71c0.18,0,0.31,0.02,0.4,0.07V568.24z"/>
	<path class="st0" d="M98.52,572.71c-0.05-0.1-0.09-0.29-0.13-0.56c-0.42,0.44-0.92,0.65-1.5,0.65c-0.52,0-0.95-0.15-1.28-0.44
		c-0.33-0.29-0.5-0.67-0.5-1.12c0-0.55,0.21-0.98,0.63-1.28c0.42-0.3,1.01-0.46,1.76-0.46h0.88v-0.42c0-0.32-0.09-0.57-0.28-0.75
		c-0.19-0.19-0.47-0.28-0.83-0.28c-0.32,0-0.59,0.08-0.81,0.24s-0.33,0.36-0.33,0.59h-0.91c0-0.26,0.09-0.52,0.28-0.76
		c0.19-0.25,0.44-0.44,0.76-0.58c0.32-0.14,0.67-0.21,1.06-0.21c0.61,0,1.09,0.15,1.43,0.46c0.34,0.3,0.52,0.72,0.54,1.26v2.43
		c0,0.48,0.06,0.87,0.19,1.16v0.08H98.52z M97.02,572.02c0.28,0,0.55-0.07,0.81-0.22s0.44-0.34,0.55-0.57v-1.08h-0.71
		c-1.11,0-1.66,0.32-1.66,0.97c0,0.28,0.09,0.5,0.28,0.66S96.73,572.02,97.02,572.02z"/>
	<path class="st0" d="M103.96,572.19c-0.35,0.41-0.87,0.62-1.55,0.62c-0.56,0-0.99-0.16-1.29-0.49c-0.29-0.33-0.44-0.81-0.45-1.45
		v-3.44h0.9v3.41c0,0.8,0.33,1.2,0.98,1.2c0.69,0,1.15-0.26,1.38-0.77v-3.84h0.9v5.28h-0.86L103.96,572.19z"/>
	<path class="st0" d="M105.99,570.02c0-0.81,0.19-1.46,0.58-1.96c0.38-0.49,0.89-0.74,1.51-0.74c0.62,0,1.11,0.21,1.47,0.63v-2.75
		h0.9v7.5h-0.83l-0.04-0.57c-0.36,0.44-0.86,0.66-1.51,0.66c-0.61,0-1.11-0.25-1.5-0.75c-0.39-0.5-0.58-1.16-0.58-1.96V570.02z
		 M106.9,570.13c0,0.6,0.12,1.07,0.37,1.41s0.59,0.51,1.03,0.51c0.57,0,0.99-0.26,1.25-0.77v-2.43c-0.27-0.5-0.69-0.75-1.25-0.75
		c-0.44,0-0.79,0.17-1.04,0.51S106.9,569.46,106.9,570.13z"/>
	<path class="st0" d="M116.56,569.54c-0.8-0.23-1.39-0.52-1.76-0.85c-0.37-0.34-0.55-0.75-0.55-1.25c0-0.56,0.22-1.02,0.67-1.39
		c0.45-0.37,1.03-0.55,1.75-0.55c0.49,0,0.92,0.09,1.31,0.28c0.38,0.19,0.68,0.45,0.89,0.78c0.21,0.33,0.32,0.69,0.32,1.09h-0.94
		c0-0.43-0.14-0.77-0.41-1.02s-0.66-0.37-1.16-0.37c-0.46,0-0.82,0.1-1.08,0.31c-0.26,0.2-0.39,0.49-0.39,0.85
		c0,0.29,0.12,0.54,0.37,0.74c0.25,0.2,0.66,0.38,1.25,0.55c0.59,0.17,1.05,0.35,1.39,0.55c0.33,0.2,0.58,0.43,0.74,0.7
		c0.16,0.27,0.24,0.58,0.24,0.94c0,0.58-0.22,1.04-0.67,1.38c-0.45,0.35-1.05,0.52-1.8,0.52c-0.49,0-0.94-0.09-1.37-0.28
		c-0.42-0.19-0.75-0.44-0.98-0.77c-0.23-0.33-0.34-0.7-0.34-1.11h0.94c0,0.43,0.16,0.77,0.48,1.02c0.32,0.25,0.74,0.37,1.27,0.37
		c0.5,0,0.87-0.1,1.14-0.3s0.4-0.48,0.4-0.83s-0.12-0.62-0.37-0.81C117.65,569.91,117.21,569.73,116.56,569.54z"/>
	<path class="st0" d="M121.49,566.15v1.28h0.99v0.7h-0.99v3.28c0,0.21,0.04,0.37,0.13,0.48c0.09,0.11,0.24,0.16,0.45,0.16
		c0.1,0,0.25-0.02,0.43-0.06v0.73c-0.24,0.06-0.47,0.1-0.69,0.1c-0.4,0-0.71-0.12-0.91-0.37s-0.31-0.59-0.31-1.04v-3.28h-0.96v-0.7
		h0.96v-1.28H121.49z"/>
	<path class="st0" d="M126.79,572.19c-0.35,0.41-0.87,0.62-1.55,0.62c-0.56,0-0.99-0.16-1.29-0.49c-0.29-0.33-0.44-0.81-0.45-1.45
		v-3.44h0.9v3.41c0,0.8,0.33,1.2,0.98,1.2c0.69,0,1.15-0.26,1.38-0.77v-3.84h0.9v5.28h-0.86L126.79,572.19z"/>
	<path class="st0" d="M128.82,570.02c0-0.81,0.19-1.46,0.58-1.96c0.38-0.49,0.89-0.74,1.51-0.74c0.62,0,1.11,0.21,1.47,0.63v-2.75
		h0.9v7.5h-0.83l-0.04-0.57c-0.36,0.44-0.86,0.66-1.51,0.66c-0.61,0-1.11-0.25-1.5-0.75c-0.39-0.5-0.58-1.16-0.58-1.96V570.02z
		 M129.72,570.13c0,0.6,0.12,1.07,0.37,1.41s0.59,0.51,1.03,0.51c0.57,0,0.99-0.26,1.25-0.77v-2.43c-0.27-0.5-0.69-0.75-1.25-0.75
		c-0.44,0-0.79,0.17-1.04,0.51S129.72,569.46,129.72,570.13z"/>
	<path class="st0" d="M136.41,571.39l1.23-3.96h0.97l-2.12,6.1c-0.33,0.88-0.85,1.32-1.57,1.32l-0.17-0.01l-0.34-0.06v-0.73
		l0.24,0.02c0.31,0,0.54-0.06,0.71-0.19c0.17-0.12,0.31-0.35,0.42-0.68l0.2-0.54l-1.88-5.22h0.99L136.41,571.39z"/>
	<path class="st0" d="M139.38,574.13l-0.51-0.35c0.31-0.43,0.47-0.87,0.48-1.32v-0.82h0.88v0.71c0,0.33-0.08,0.66-0.24,0.99
		C139.83,573.66,139.62,573.93,139.38,574.13z"/>
	<path class="st0" d="M22.44,577.6h0.94v5.03c0,0.68-0.2,1.21-0.61,1.6c-0.41,0.38-0.95,0.58-1.63,0.58c-0.71,0-1.26-0.18-1.65-0.54
		s-0.59-0.87-0.59-1.52h0.94c0,0.41,0.11,0.72,0.33,0.95c0.22,0.23,0.55,0.34,0.97,0.34c0.39,0,0.7-0.12,0.94-0.37
		c0.24-0.24,0.36-0.59,0.36-1.03V577.6z"/>
	<path class="st0" d="M28.09,584.71c-0.05-0.1-0.09-0.29-0.13-0.56c-0.42,0.44-0.92,0.65-1.5,0.65c-0.52,0-0.95-0.15-1.28-0.44
		c-0.33-0.29-0.5-0.67-0.5-1.12c0-0.55,0.21-0.98,0.63-1.28c0.42-0.3,1.01-0.46,1.76-0.46h0.88v-0.42c0-0.32-0.09-0.57-0.28-0.75
		c-0.19-0.19-0.47-0.28-0.83-0.28c-0.32,0-0.59,0.08-0.81,0.24s-0.33,0.36-0.33,0.59h-0.91c0-0.26,0.09-0.52,0.28-0.76
		c0.19-0.25,0.44-0.44,0.76-0.58c0.32-0.14,0.67-0.21,1.06-0.21c0.61,0,1.09,0.15,1.43,0.46c0.34,0.3,0.52,0.72,0.54,1.26v2.43
		c0,0.48,0.06,0.87,0.19,1.16v0.08H28.09z M26.6,584.02c0.28,0,0.55-0.07,0.81-0.22s0.44-0.34,0.55-0.57v-1.08h-0.71
		c-1.11,0-1.66,0.32-1.66,0.97c0,0.28,0.09,0.5,0.28,0.66S26.3,584.02,26.6,584.02z"/>
	<path class="st0" d="M31.94,583.48l1.31-4.06h0.92l-1.89,5.28h-0.69l-1.91-5.28h0.92L31.94,583.48z"/>
	<path class="st0" d="M37.23,584.81c-0.72,0-1.3-0.24-1.75-0.71c-0.45-0.47-0.67-1.1-0.67-1.89v-0.17c0-0.52,0.1-0.99,0.3-1.4
		c0.2-0.41,0.48-0.73,0.84-0.97c0.36-0.23,0.75-0.35,1.17-0.35c0.69,0,1.22,0.23,1.6,0.68s0.57,1.1,0.57,1.94v0.38h-3.58
		c0.01,0.52,0.17,0.94,0.46,1.26c0.29,0.32,0.66,0.48,1.11,0.48c0.32,0,0.59-0.06,0.81-0.2s0.42-0.3,0.58-0.52l0.55,0.43
		C38.78,584.47,38.12,584.81,37.23,584.81z M37.12,580.07c-0.36,0-0.67,0.13-0.92,0.4c-0.25,0.27-0.4,0.64-0.46,1.12h2.65v-0.07
		c-0.03-0.46-0.15-0.81-0.37-1.07C37.8,580.2,37.5,580.07,37.12,580.07z"/>
	<path class="st0" d="M41.32,584.71h-0.9v-7.5h0.9V584.71z"/>
	<path class="st0" d="M42.77,578.03c0-0.15,0.04-0.27,0.13-0.37c0.09-0.1,0.22-0.15,0.4-0.15s0.31,0.05,0.4,0.15
		s0.14,0.22,0.14,0.37s-0.05,0.27-0.14,0.37s-0.22,0.15-0.4,0.15s-0.31-0.05-0.4-0.15C42.82,578.29,42.77,578.17,42.77,578.03z
		 M43.75,584.71h-0.9v-5.28h0.9V584.71z"/>
	<path class="st0" d="M46.05,579.43l0.03,0.66c0.4-0.51,0.93-0.76,1.58-0.76c1.12,0,1.68,0.63,1.69,1.89v3.49h-0.9v-3.5
		c0-0.38-0.09-0.66-0.26-0.84c-0.17-0.18-0.44-0.27-0.8-0.27c-0.29,0-0.55,0.08-0.77,0.23s-0.39,0.36-0.52,0.62v3.76h-0.9v-5.28
		H46.05z"/>
	<path class="st0" d="M55.42,581.54c-0.8-0.23-1.39-0.52-1.76-0.85c-0.37-0.34-0.55-0.75-0.55-1.25c0-0.56,0.22-1.02,0.67-1.39
		c0.45-0.37,1.03-0.55,1.75-0.55c0.49,0,0.92,0.09,1.31,0.28c0.38,0.19,0.68,0.45,0.89,0.78c0.21,0.33,0.32,0.69,0.32,1.09H57.1
		c0-0.43-0.14-0.77-0.41-1.02s-0.66-0.37-1.16-0.37c-0.46,0-0.82,0.1-1.08,0.31c-0.26,0.2-0.39,0.49-0.39,0.85
		c0,0.29,0.12,0.54,0.37,0.74c0.25,0.2,0.66,0.38,1.25,0.55c0.59,0.17,1.05,0.35,1.39,0.55c0.33,0.2,0.58,0.43,0.74,0.7
		c0.16,0.27,0.24,0.58,0.24,0.94c0,0.58-0.22,1.04-0.67,1.38c-0.45,0.35-1.05,0.52-1.8,0.52c-0.49,0-0.94-0.09-1.37-0.28
		c-0.42-0.19-0.75-0.44-0.98-0.77c-0.23-0.33-0.34-0.7-0.34-1.11h0.94c0,0.43,0.16,0.77,0.48,1.02c0.32,0.25,0.74,0.37,1.27,0.37
		c0.5,0,0.87-0.1,1.14-0.3s0.4-0.48,0.4-0.83s-0.12-0.62-0.37-0.81C56.51,581.91,56.06,581.73,55.42,581.54z"/>
	<path class="st0" d="M60.35,578.15v1.28h0.99v0.7h-0.99v3.28c0,0.21,0.04,0.37,0.13,0.48c0.09,0.11,0.24,0.16,0.45,0.16
		c0.1,0,0.25-0.02,0.43-0.06v0.73c-0.24,0.06-0.47,0.1-0.69,0.1c-0.4,0-0.71-0.12-0.91-0.37s-0.31-0.59-0.31-1.04v-3.28h-0.96v-0.7
		h0.96v-1.28H60.35z"/>
	<path class="st0" d="M64.94,580.24c-0.14-0.02-0.29-0.03-0.44-0.03c-0.59,0-0.99,0.25-1.21,0.76v3.75h-0.9v-5.28h0.88l0.01,0.61
		c0.3-0.47,0.72-0.71,1.26-0.71c0.18,0,0.31,0.02,0.4,0.07V580.24z"/>
	<path class="st0" d="M68.84,584.71c-0.05-0.1-0.09-0.29-0.13-0.56c-0.42,0.44-0.92,0.65-1.5,0.65c-0.52,0-0.95-0.15-1.28-0.44
		c-0.33-0.29-0.5-0.67-0.5-1.12c0-0.55,0.21-0.98,0.63-1.28c0.42-0.3,1.01-0.46,1.76-0.46h0.88v-0.42c0-0.32-0.09-0.57-0.28-0.75
		c-0.19-0.19-0.47-0.28-0.83-0.28c-0.32,0-0.59,0.08-0.81,0.24s-0.33,0.36-0.33,0.59h-0.91c0-0.26,0.09-0.52,0.28-0.76
		c0.19-0.25,0.44-0.44,0.76-0.58c0.32-0.14,0.67-0.21,1.06-0.21c0.61,0,1.09,0.15,1.43,0.46c0.34,0.3,0.52,0.72,0.54,1.26v2.43
		c0,0.48,0.06,0.87,0.19,1.16v0.08H68.84z M67.34,584.02c0.28,0,0.55-0.07,0.81-0.22s0.44-0.34,0.55-0.57v-1.08h-0.71
		c-1.11,0-1.66,0.32-1.66,0.97c0,0.28,0.09,0.5,0.28,0.66S67.04,584.02,67.34,584.02z"/>
	<path class="st0" d="M72.24,578.15v1.28h0.99v0.7h-0.99v3.28c0,0.21,0.04,0.37,0.13,0.48c0.09,0.11,0.24,0.16,0.45,0.16
		c0.1,0,0.25-0.02,0.43-0.06v0.73c-0.24,0.06-0.47,0.1-0.69,0.1c-0.4,0-0.71-0.12-0.91-0.37s-0.31-0.59-0.31-1.04v-3.28h-0.96v-0.7
		h0.96v-1.28H72.24z"/>
	<path class="st0" d="M76.47,584.81c-0.72,0-1.3-0.24-1.75-0.71c-0.45-0.47-0.67-1.1-0.67-1.89v-0.17c0-0.52,0.1-0.99,0.3-1.4
		c0.2-0.41,0.48-0.73,0.84-0.97c0.36-0.23,0.75-0.35,1.17-0.35c0.69,0,1.22,0.23,1.6,0.68s0.57,1.1,0.57,1.94v0.38h-3.58
		c0.01,0.52,0.17,0.94,0.46,1.26c0.29,0.32,0.66,0.48,1.11,0.48c0.32,0,0.59-0.06,0.81-0.2s0.42-0.3,0.58-0.52l0.55,0.43
		C78.02,584.47,77.36,584.81,76.47,584.81z M76.36,580.07c-0.36,0-0.67,0.13-0.92,0.4c-0.25,0.27-0.4,0.64-0.46,1.12h2.65v-0.07
		c-0.03-0.46-0.15-0.81-0.37-1.07C77.04,580.2,76.74,580.07,76.36,580.07z"/>
	<path class="st0" d="M79.36,582.02c0-0.82,0.19-1.48,0.57-1.97c0.38-0.49,0.89-0.73,1.51-0.73c0.64,0,1.15,0.23,1.51,0.68
		l0.04-0.59h0.83v5.16c0,0.68-0.2,1.22-0.61,1.62c-0.41,0.39-0.95,0.59-1.63,0.59c-0.38,0-0.75-0.08-1.12-0.24s-0.64-0.39-0.83-0.67
		l0.47-0.54c0.39,0.48,0.86,0.72,1.42,0.72c0.44,0,0.78-0.12,1.03-0.37c0.25-0.25,0.37-0.6,0.37-1.04v-0.45
		c-0.36,0.42-0.85,0.62-1.48,0.62c-0.62,0-1.12-0.25-1.5-0.75C79.56,583.56,79.36,582.88,79.36,582.02z M80.27,582.13
		c0,0.6,0.12,1.06,0.37,1.4c0.24,0.34,0.59,0.51,1.02,0.51c0.57,0,0.99-0.26,1.25-0.78v-2.41c-0.28-0.5-0.69-0.76-1.25-0.76
		c-0.44,0-0.78,0.17-1.03,0.51S80.27,581.46,80.27,582.13z"/>
	<path class="st0" d="M86.92,583.39l1.23-3.96h0.97l-2.12,6.1c-0.33,0.88-0.85,1.32-1.57,1.32l-0.17-0.01l-0.34-0.06v-0.73
		l0.24,0.02c0.31,0,0.54-0.06,0.71-0.19c0.17-0.12,0.31-0.35,0.42-0.68l0.2-0.54l-1.88-5.22h0.99L86.92,583.39z"/>
	<path class="st0" d="M92.21,582.8c0-0.34,0.09-0.66,0.29-0.94c0.19-0.29,0.55-0.62,1.09-1c-0.32-0.38-0.53-0.69-0.63-0.93
		s-0.16-0.47-0.16-0.7c0-0.54,0.16-0.96,0.48-1.27s0.75-0.46,1.3-0.46c0.49,0,0.89,0.14,1.21,0.43c0.32,0.29,0.48,0.64,0.48,1.08
		c0,0.29-0.07,0.55-0.22,0.79c-0.15,0.24-0.4,0.5-0.76,0.76l-0.52,0.39l1.58,1.89c0.22-0.42,0.33-0.89,0.33-1.41h0.82
		c0,0.83-0.2,1.52-0.6,2.07l1.02,1.22h-1.08l-0.47-0.56c-0.24,0.21-0.52,0.38-0.85,0.49c-0.32,0.11-0.65,0.17-0.99,0.17
		c-0.69,0-1.25-0.18-1.67-0.55S92.21,583.4,92.21,582.8z M94.5,584.07c0.48,0,0.92-0.18,1.31-0.55l-1.73-2.08l-0.16,0.12
		c-0.54,0.4-0.82,0.81-0.82,1.24c0,0.38,0.12,0.69,0.37,0.92C93.73,583.96,94.07,584.07,94.5,584.07z M93.69,579.2
		c0,0.31,0.19,0.7,0.58,1.17l0.58-0.41c0.22-0.16,0.37-0.3,0.45-0.45c0.08-0.14,0.12-0.31,0.12-0.51c0-0.22-0.08-0.4-0.24-0.54
		c-0.16-0.15-0.37-0.22-0.62-0.22c-0.27,0-0.48,0.09-0.63,0.27C93.77,578.7,93.69,578.93,93.69,579.2z"/>
	<path class="st0" d="M103.84,581.83h-1.67v2.88h-0.94v-7.11h2.35c0.8,0,1.42,0.18,1.85,0.55c0.43,0.36,0.65,0.9,0.65,1.59
		c0,0.44-0.12,0.83-0.36,1.16c-0.24,0.33-0.57,0.57-1,0.74l1.67,3.02v0.06h-1.01L103.84,581.83z M102.17,581.07h1.44
		c0.47,0,0.84-0.12,1.11-0.36c0.27-0.24,0.41-0.56,0.41-0.97c0-0.44-0.13-0.78-0.39-1.01c-0.26-0.24-0.64-0.35-1.14-0.36h-1.44
		V581.07z"/>
	<path class="st0" d="M109.44,584.81c-0.72,0-1.3-0.24-1.75-0.71c-0.45-0.47-0.67-1.1-0.67-1.89v-0.17c0-0.52,0.1-0.99,0.3-1.4
		c0.2-0.41,0.48-0.73,0.84-0.97c0.36-0.23,0.75-0.35,1.17-0.35c0.69,0,1.22,0.23,1.6,0.68s0.57,1.1,0.57,1.94v0.38h-3.58
		c0.01,0.52,0.17,0.94,0.46,1.26c0.29,0.32,0.66,0.48,1.11,0.48c0.32,0,0.59-0.06,0.81-0.2s0.42-0.3,0.58-0.52l0.55,0.43
		C110.99,584.47,110.32,584.81,109.44,584.81z M109.32,580.07c-0.36,0-0.67,0.13-0.92,0.4c-0.25,0.27-0.4,0.64-0.46,1.12h2.65v-0.07
		c-0.03-0.46-0.15-0.81-0.37-1.07C110,580.2,109.7,580.07,109.32,580.07z"/>
	<path class="st0" d="M115.62,583.31c0-0.24-0.09-0.43-0.28-0.57c-0.18-0.14-0.5-0.25-0.96-0.35c-0.46-0.1-0.82-0.21-1.09-0.35
		c-0.27-0.14-0.47-0.3-0.6-0.49c-0.13-0.19-0.19-0.41-0.19-0.67c0-0.43,0.18-0.8,0.55-1.1c0.37-0.3,0.83-0.45,1.4-0.45
		c0.6,0,1.08,0.16,1.46,0.46c0.37,0.31,0.56,0.71,0.56,1.19h-0.91c0-0.25-0.1-0.46-0.32-0.64c-0.21-0.18-0.47-0.27-0.79-0.27
		c-0.33,0-0.59,0.07-0.77,0.21s-0.28,0.33-0.28,0.56c0,0.22,0.09,0.38,0.26,0.49s0.48,0.22,0.94,0.32c0.45,0.1,0.82,0.22,1.1,0.36
		s0.49,0.31,0.62,0.51c0.13,0.2,0.2,0.44,0.2,0.72c0,0.47-0.19,0.85-0.57,1.14c-0.38,0.28-0.87,0.43-1.47,0.43
		c-0.42,0-0.8-0.08-1.12-0.22s-0.58-0.36-0.76-0.63c-0.18-0.27-0.28-0.56-0.28-0.87h0.9c0.02,0.3,0.14,0.54,0.36,0.72
		c0.23,0.18,0.53,0.27,0.9,0.27c0.34,0,0.62-0.07,0.82-0.21C115.51,583.72,115.62,583.54,115.62,583.31z"/>
	<path class="st0" d="M119.89,584.81c-0.72,0-1.3-0.24-1.75-0.71c-0.45-0.47-0.67-1.1-0.67-1.89v-0.17c0-0.52,0.1-0.99,0.3-1.4
		c0.2-0.41,0.48-0.73,0.84-0.97c0.36-0.23,0.75-0.35,1.17-0.35c0.69,0,1.22,0.23,1.6,0.68s0.57,1.1,0.57,1.94v0.38h-3.58
		c0.01,0.52,0.17,0.94,0.46,1.26c0.29,0.32,0.66,0.48,1.11,0.48c0.32,0,0.59-0.06,0.81-0.2s0.42-0.3,0.58-0.52l0.55,0.43
		C121.44,584.47,120.78,584.81,119.89,584.81z M119.78,580.07c-0.36,0-0.67,0.13-0.92,0.4c-0.25,0.27-0.4,0.64-0.46,1.12h2.65v-0.07
		c-0.03-0.46-0.15-0.81-0.37-1.07C120.46,580.2,120.16,580.07,119.78,580.07z"/>
	<path class="st0" d="M126.26,584.71c-0.05-0.1-0.09-0.29-0.13-0.56c-0.42,0.44-0.92,0.65-1.5,0.65c-0.52,0-0.95-0.15-1.28-0.44
		c-0.33-0.29-0.5-0.67-0.5-1.12c0-0.55,0.21-0.98,0.63-1.28c0.42-0.3,1.01-0.46,1.76-0.46h0.88v-0.42c0-0.32-0.09-0.57-0.28-0.75
		c-0.19-0.19-0.47-0.28-0.83-0.28c-0.32,0-0.59,0.08-0.81,0.24s-0.33,0.36-0.33,0.59h-0.91c0-0.26,0.09-0.52,0.28-0.76
		c0.19-0.25,0.44-0.44,0.76-0.58c0.32-0.14,0.67-0.21,1.06-0.21c0.61,0,1.09,0.15,1.43,0.46c0.34,0.3,0.52,0.72,0.54,1.26v2.43
		c0,0.48,0.06,0.87,0.19,1.16v0.08H126.26z M124.76,584.02c0.28,0,0.55-0.07,0.81-0.22s0.44-0.34,0.55-0.57v-1.08h-0.71
		c-1.11,0-1.66,0.32-1.66,0.97c0,0.28,0.09,0.5,0.28,0.66S124.46,584.02,124.76,584.02z"/>
	<path class="st0" d="M130.99,580.24c-0.14-0.02-0.29-0.03-0.44-0.03c-0.59,0-0.99,0.25-1.21,0.76v3.75h-0.9v-5.28h0.88l0.01,0.61
		c0.3-0.47,0.72-0.71,1.26-0.71c0.18,0,0.31,0.02,0.4,0.07V580.24z"/>
	<path class="st0" d="M133.85,584.07c0.32,0,0.6-0.1,0.84-0.29s0.37-0.44,0.4-0.73h0.85c-0.02,0.3-0.12,0.59-0.31,0.86
		s-0.45,0.49-0.77,0.65c-0.32,0.16-0.66,0.24-1.02,0.24c-0.72,0-1.29-0.24-1.72-0.72c-0.42-0.48-0.64-1.14-0.64-1.97v-0.15
		c0-0.51,0.09-0.97,0.28-1.37s0.46-0.71,0.81-0.93c0.35-0.22,0.77-0.33,1.25-0.33c0.59,0,1.08,0.18,1.48,0.53
		c0.39,0.36,0.6,0.82,0.63,1.38h-0.85c-0.03-0.34-0.16-0.62-0.39-0.84c-0.23-0.22-0.52-0.33-0.86-0.33c-0.46,0-0.81,0.17-1.07,0.5
		c-0.25,0.33-0.38,0.81-0.38,1.43v0.17c0,0.61,0.12,1.08,0.38,1.41S133.38,584.07,133.85,584.07z"/>
	<path class="st0" d="M137.86,580.07c0.4-0.49,0.92-0.74,1.56-0.74c1.12,0,1.68,0.63,1.69,1.89v3.49h-0.9v-3.5
		c0-0.38-0.09-0.66-0.26-0.84c-0.17-0.18-0.44-0.27-0.8-0.27c-0.29,0-0.55,0.08-0.77,0.23s-0.39,0.36-0.52,0.62v3.76h-0.9v-7.5h0.9
		V580.07z"/>
</g>
</svg>
