<svg id="Layer_1" xmlns="http://www.w3.org/2000/svg" viewBox="0 0 300 600"><style>.st0{fill:none}.st1{fill:url(#SVGID_1_)}.st2{fill:#fff}.st3{font-family:&apos;Roboto-Bold&apos;}.st4{font-size:19.2381px}.st5{fill:#021d8b}</style><path class="st0" d="M0 0v600"/><linearGradient id="SVGID_1_" gradientUnits="userSpaceOnUse" x1="89.317" y1="434.125" x2="208.034" y2="434.125"><stop offset="0" stop-color="#18b9fb"/><stop offset=".5" stop-color="#782eeb"/><stop offset="1" stop-color="#e82d8a"/></linearGradient><path class="st1" d="M206.7 435.46H90.65c-.73 0-1.33-.6-1.33-1.33 0-.73.6-1.33 1.33-1.33H206.7a1.33 1.33 0 1 1 0 2.66z"/><text transform="translate(91.966 390.853)" class="st2 st3 st4" id="Button_3_">LEARN MORE</text><path class="st5" d="M43.72 287.65c0-.91.3-1.64.89-2.21s1.36-.85 2.31-.85c.97 0 1.75.28 2.34.83s.88 1.27.9 2.17v.53c0 .91-.29 1.64-.88 2.19-.58.55-1.36.83-2.34.83-.96 0-1.73-.27-2.32-.82-.59-.55-.89-1.26-.91-2.14v-.53zM69.04 292.43c0-.65-.23-1.16-.69-1.52-.46-.36-1.27-.74-2.43-1.13s-2.11-.77-2.84-1.13c-2.4-1.18-3.59-2.79-3.59-4.85 0-1.02.3-1.93.89-2.71.6-.78 1.44-1.39 2.53-1.83s2.32-.65 3.68-.65c1.33 0 2.52.24 3.57.71 1.05.47 1.87 1.15 2.46 2.03.58.88.88 1.88.88 3h-4.44c0-.75-.23-1.34-.69-1.75-.46-.42-1.09-.62-1.87-.62-.8 0-1.42.18-1.88.53-.46.35-.69.8-.69 1.34 0 .47.25.9.76 1.29.51.38 1.4.78 2.68 1.19 1.28.41 2.33.85 3.15 1.33 2 1.15 3 2.74 3 4.76 0 1.62-.61 2.89-1.83 3.81s-2.89 1.38-5.01 1.38c-1.5 0-2.85-.27-4.07-.81-1.21-.54-2.13-1.27-2.74-2.21-.61-.93-.92-2.01-.92-3.23h4.47c0 .99.26 1.72.77 2.19s1.34.71 2.5.71c.74 0 1.32-.16 1.75-.48.38-.33.6-.78.6-1.35zM82.23 297.59c-2.11 0-3.81-.63-5.12-1.88-1.3-1.26-1.96-2.89-1.96-4.91v-.36c0-1.41.26-2.64.78-3.72s1.28-1.91 2.28-2.49c1-.59 2.18-.88 3.55-.88 1.93 0 3.45.6 4.57 1.8 1.12 1.2 1.68 2.87 1.68 5.01v1.66H79.5c.15.77.49 1.38 1 1.82s1.18.66 2.01.66c1.35 0 2.41-.47 3.17-1.42l1.96 2.31c-.53.74-1.29 1.32-2.27 1.76-.97.42-2.02.64-3.14.64zm-.49-10.94c-1.25 0-2 .83-2.23 2.49h4.32v-.33c.02-.69-.16-1.22-.52-1.59-.37-.38-.89-.57-1.57-.57zM95.54 294.29c.6 0 1.07-.16 1.4-.49.33-.33.49-.78.48-1.37h4.01c0 1.51-.54 2.74-1.62 3.71-1.08.96-2.47 1.45-4.17 1.45-2 0-3.57-.63-4.72-1.88s-1.73-2.99-1.73-5.21v-.18c0-1.39.26-2.61.77-3.68.51-1.06 1.25-1.88 2.22-2.45.96-.57 2.11-.86 3.43-.86 1.79 0 3.2.5 4.25 1.49s1.57 2.33 1.57 4.02h-4.01c0-.71-.17-1.26-.52-1.64s-.81-.57-1.4-.57c-1.11 0-1.76.71-1.94 2.12-.06.45-.09 1.07-.09 1.85 0 1.38.17 2.34.5 2.87s.85.82 1.57.82zM111.42 295.85c-.91 1.16-2.13 1.74-3.67 1.74-1.51 0-2.65-.44-3.42-1.31-.77-.88-1.16-2.13-1.16-3.78v-8.9h4.28v8.92c0 1.18.57 1.76 1.71 1.76.98 0 1.68-.35 2.09-1.05v-9.64h4.3v13.74h-4.01l-.12-1.48zM126.21 287.47l-1.41-.1c-1.35 0-2.21.42-2.59 1.27v8.7h-4.28V283.6h4.01l.14 1.76c.72-1.35 1.72-2.02 3.01-2.02.46 0 .85.05 1.19.15l-.07 3.98zM134.4 297.59c-2.11 0-3.81-.63-5.12-1.88-1.3-1.26-1.96-2.89-1.96-4.91v-.36c0-1.41.26-2.64.78-3.72s1.28-1.91 2.28-2.49c1-.59 2.18-.88 3.55-.88 1.93 0 3.45.6 4.57 1.8 1.12 1.2 1.68 2.87 1.68 5.01v1.66h-8.51c.15.77.49 1.38 1 1.82s1.18.66 2.01.66c1.35 0 2.41-.47 3.17-1.42l1.96 2.31c-.53.74-1.29 1.32-2.27 1.76-.96.42-2.01.64-3.14.64zm-.48-10.94c-1.25 0-2 .83-2.23 2.49H136v-.33c.02-.69-.16-1.22-.52-1.59-.36-.38-.88-.57-1.56-.57zM148.58 297.34v-18.48h6.64c2.38 0 4.19.44 5.43 1.31 1.24.87 1.86 2.14 1.86 3.8 0 .96-.22 1.77-.66 2.45s-1.09 1.18-1.94 1.5c.96.25 1.71.73 2.22 1.42s.77 1.54.77 2.54c0 1.81-.57 3.17-1.72 4.08-1.15.91-2.85 1.37-5.1 1.39h-7.5zm4.46-10.78h2.32c.97-.01 1.67-.19 2.08-.54.42-.35.62-.86.62-1.54 0-.78-.22-1.34-.67-1.69s-1.17-.52-2.17-.52h-2.18v4.29zm0 2.92v4.43h2.92c.8 0 1.42-.18 1.85-.55.43-.37.65-.89.65-1.55 0-1.54-.77-2.31-2.3-2.32h-3.12zM173.47 287.47l-1.41-.1c-1.35 0-2.21.42-2.59 1.27v8.7h-4.28V283.6h4.01l.14 1.76c.72-1.35 1.72-2.02 3.01-2.02.46 0 .85.05 1.19.15l-.07 3.98zM174.01 290.34c0-1.37.27-2.59.8-3.66.53-1.07 1.3-1.89 2.3-2.47s2.17-.86 3.52-.86c2.06 0 3.68.64 4.86 1.91 1.18 1.27 1.78 3.01 1.78 5.2v.15c0 2.14-.59 3.84-1.78 5.1-1.19 1.26-2.8 1.88-4.83 1.88-1.96 0-3.53-.59-4.71-1.76-1.18-1.17-1.82-2.76-1.92-4.77l-.02-.72zm4.28.27c0 1.27.2 2.2.6 2.79s.99.89 1.76.89c1.52 0 2.3-1.17 2.34-3.52v-.43c0-2.46-.79-3.69-2.36-3.69-1.43 0-2.21 1.06-2.32 3.19l-.02.77zM201.02 291.7l1.38-8.1h4.1l-3.24 13.74h-3.62l-2.27-8.15-2.29 8.15h-3.62l-3.24-13.74h4.1l1.36 8.29 2.18-8.29h2.98l2.18 8.1zM215.22 293.48c0-.36-.19-.66-.57-.88s-1.1-.45-2.17-.69-1.95-.55-2.64-.93c-.69-.39-1.22-.85-1.59-1.4s-.55-1.18-.55-1.89c0-1.26.52-2.3 1.56-3.12 1.04-.82 2.4-1.22 4.09-1.22 1.81 0 3.27.41 4.37 1.23s1.65 1.9 1.65 3.24h-4.29c0-1.1-.58-1.65-1.74-1.65-.45 0-.83.12-1.13.38-.3.25-.46.56-.46.93 0 .38.19.69.56.93s.97.43 1.78.58c.82.15 1.53.33 2.15.55 2.07.71 3.1 1.98 3.1 3.82 0 1.25-.56 2.27-1.67 3.06-1.11.79-2.55 1.18-4.32 1.18-1.18 0-2.23-.21-3.15-.63s-1.64-1-2.16-1.73-.77-1.49-.77-2.3h4c.02.63.23 1.1.63 1.39.41.29.93.44 1.56.44.58 0 1.02-.12 1.31-.36.31-.24.45-.55.45-.93zM227.99 297.59c-2.11 0-3.81-.63-5.12-1.88-1.3-1.26-1.96-2.89-1.96-4.91v-.36c0-1.41.26-2.64.78-3.72s1.28-1.91 2.28-2.49c1-.59 2.18-.88 3.55-.88 1.93 0 3.45.6 4.57 1.8 1.12 1.2 1.68 2.87 1.68 5.01v1.66h-8.51c.15.77.49 1.38 1 1.82s1.18.66 2.01.66c1.35 0 2.41-.47 3.17-1.42l1.96 2.31c-.53.74-1.29 1.32-2.27 1.76-.96.42-2.01.64-3.14.64zm-.48-10.94c-1.25 0-2 .83-2.23 2.49h4.32v-.33c.02-.69-.16-1.22-.52-1.59-.37-.38-.89-.57-1.57-.57zM243.81 287.47l-1.41-.1c-1.35 0-2.21.42-2.59 1.27v8.7h-4.28V283.6h4.01l.14 1.76c.72-1.35 1.72-2.02 3.01-2.02.46 0 .85.05 1.19.15l-.07 3.98zM43.72 318.85c0-.91.3-1.64.89-2.21s1.36-.85 2.31-.85c.97 0 1.75.28 2.34.83s.88 1.27.9 2.17v.53c0 .91-.29 1.64-.88 2.19-.58.55-1.36.83-2.34.83-.96 0-1.73-.27-2.32-.82-.59-.55-.89-1.26-.91-2.14v-.53zM69.04 323.62c0-.65-.23-1.16-.69-1.52-.46-.36-1.27-.74-2.43-1.13s-2.11-.77-2.84-1.13c-2.4-1.18-3.59-2.79-3.59-4.85 0-1.02.3-1.93.89-2.71.6-.78 1.44-1.39 2.53-1.83 1.09-.44 2.32-.65 3.68-.65 1.33 0 2.52.24 3.57.71 1.05.47 1.87 1.15 2.46 2.03.58.88.88 1.88.88 3h-4.44c0-.75-.23-1.34-.69-1.75-.46-.42-1.09-.62-1.87-.62-.8 0-1.42.18-1.88.53-.46.35-.69.8-.69 1.34 0 .47.25.9.76 1.29.51.38 1.4.78 2.68 1.19 1.28.41 2.33.85 3.15 1.33 2 1.15 3 2.74 3 4.76 0 1.62-.61 2.89-1.83 3.81s-2.89 1.38-5.01 1.38c-1.5 0-2.85-.27-4.07-.81-1.21-.54-2.13-1.27-2.74-2.21-.61-.93-.92-2.01-.92-3.23h4.47c0 .99.26 1.72.77 2.19s1.34.71 2.5.71c.74 0 1.32-.16 1.75-.48.38-.32.6-.77.6-1.35zM82.23 328.79c-2.11 0-3.81-.63-5.12-1.88-1.3-1.26-1.96-2.89-1.96-4.91v-.36c0-1.41.26-2.64.78-3.72s1.28-1.91 2.28-2.49c1-.59 2.18-.88 3.55-.88 1.93 0 3.45.6 4.57 1.8 1.12 1.2 1.68 2.87 1.68 5.01v1.66H79.5c.15.77.49 1.38 1 1.82s1.18.66 2.01.66c1.35 0 2.41-.47 3.17-1.42l1.96 2.31c-.53.74-1.29 1.32-2.27 1.76-.97.42-2.02.64-3.14.64zm-.49-10.94c-1.25 0-2 .83-2.23 2.49h4.32v-.33c.02-.69-.16-1.22-.52-1.59-.37-.38-.89-.57-1.57-.57zM95.54 325.49c.6 0 1.07-.16 1.4-.49.33-.33.49-.78.48-1.37h4.01c0 1.51-.54 2.74-1.62 3.71-1.08.96-2.47 1.45-4.17 1.45-2 0-3.57-.63-4.72-1.88s-1.73-2.99-1.73-5.21v-.18c0-1.39.26-2.61.77-3.68.51-1.06 1.25-1.88 2.22-2.45.96-.57 2.11-.86 3.43-.86 1.79 0 3.2.5 4.25 1.49s1.57 2.33 1.57 4.02h-4.01c0-.71-.17-1.26-.52-1.64s-.81-.57-1.4-.57c-1.11 0-1.76.71-1.94 2.12-.06.45-.09 1.07-.09 1.85 0 1.38.17 2.34.5 2.87s.85.82 1.57.82zM111.42 327.05c-.91 1.16-2.13 1.74-3.67 1.74-1.51 0-2.65-.44-3.42-1.31-.77-.88-1.16-2.13-1.16-3.78v-8.9h4.28v8.92c0 1.18.57 1.76 1.71 1.76.98 0 1.68-.35 2.09-1.05v-9.64h4.3v13.74h-4.01l-.12-1.48zM126.21 318.67l-1.41-.1c-1.35 0-2.21.42-2.59 1.27v8.7h-4.28V314.8h4.01l.14 1.76c.72-1.35 1.72-2.02 3.01-2.02.46 0 .85.05 1.19.15l-.07 3.98zM134.4 328.79c-2.11 0-3.81-.63-5.12-1.88-1.3-1.26-1.96-2.89-1.96-4.91v-.36c0-1.41.26-2.64.78-3.72s1.28-1.91 2.28-2.49c1-.59 2.18-.88 3.55-.88 1.93 0 3.45.6 4.57 1.8 1.12 1.2 1.68 2.87 1.68 5.01v1.66h-8.51c.15.77.49 1.38 1 1.82s1.18.66 2.01.66c1.35 0 2.41-.47 3.17-1.42l1.96 2.31c-.53.74-1.29 1.32-2.27 1.76-.96.42-2.01.64-3.14.64zm-.48-10.94c-1.25 0-2 .83-2.23 2.49H136v-.33c.02-.69-.16-1.22-.52-1.59-.36-.38-.88-.57-1.56-.57zM154.87 321.66l-1.83 2.01v4.88h-4.46v-18.48h4.46v8.15l1.55-2.35 3.99-5.8h5.51l-6.25 8.18 6.25 10.31h-5.28l-3.94-6.9zM171.66 328.79c-2.11 0-3.81-.63-5.12-1.88-1.3-1.26-1.96-2.89-1.96-4.91v-.36c0-1.41.26-2.64.78-3.72s1.28-1.91 2.28-2.49c1-.59 2.18-.88 3.55-.88 1.93 0 3.45.6 4.57 1.8 1.12 1.2 1.68 2.87 1.68 5.01v1.66h-8.51c.15.77.49 1.38 1 1.82s1.18.66 2.01.66c1.35 0 2.41-.47 3.17-1.42l1.96 2.31c-.53.74-1.29 1.32-2.27 1.76-.96.42-2.01.64-3.14.64zm-.48-10.94c-1.25 0-2 .83-2.23 2.49h4.32v-.33c.02-.69-.16-1.22-.52-1.59-.37-.38-.89-.57-1.57-.57zM184.66 322.55l2.29-7.74h4.58l-5.6 16.03-.24.58c-.8 1.78-2.2 2.67-4.21 2.67-.56 0-1.15-.08-1.76-.25v-3.05h.56c.6 0 1.06-.09 1.38-.26.32-.17.55-.48.7-.93l.34-.92-4.77-13.87h4.57l2.16 7.74zM205.4 321.78c0 2.25-.47 3.98-1.4 5.19s-2.24 1.82-3.94 1.82c-1.4 0-2.52-.55-3.38-1.66l-.18 1.41h-3.83v-19.5h4.28v6.87c.8-.91 1.82-1.36 3.08-1.36 1.71 0 3.03.61 3.96 1.84s1.4 2.95 1.4 5.18v.21zm-4.3-.27c0-1.32-.18-2.26-.53-2.82-.35-.56-.89-.84-1.62-.84-.96 0-1.63.37-2.01 1.1v5.45c.36.73 1.04 1.09 2.03 1.09 1.01 0 1.65-.49 1.92-1.47.15-.48.21-1.32.21-2.51zM206.74 321.54c0-1.37.27-2.59.8-3.66.53-1.07 1.3-1.89 2.3-2.47s2.17-.86 3.52-.86c2.06 0 3.68.64 4.86 1.91 1.18 1.27 1.78 3.01 1.78 5.2v.15c0 2.14-.59 3.84-1.78 5.1-1.19 1.26-2.8 1.88-4.83 1.88-1.96 0-3.53-.59-4.71-1.76-1.18-1.17-1.82-2.76-1.92-4.77l-.02-.72zm4.28.27c0 1.27.2 2.2.6 2.79s.99.89 1.76.89c1.52 0 2.3-1.17 2.34-3.52v-.43c0-2.46-.79-3.69-2.36-3.69-1.43 0-2.21 1.06-2.32 3.19l-.02.77zM229.62 328.54c-.15-.28-.29-.69-.41-1.23-.79.99-1.89 1.49-3.3 1.49-1.29 0-2.4-.39-3.3-1.17-.91-.78-1.36-1.77-1.36-2.95 0-1.49.55-2.62 1.65-3.38s2.7-1.14 4.8-1.14h1.32v-.73c0-1.27-.55-1.9-1.64-1.9-1.02 0-1.52.5-1.52 1.51h-4.28c0-1.33.57-2.41 1.69-3.23 1.13-.83 2.57-1.24 4.32-1.24s3.14.43 4.15 1.28 1.54 2.03 1.56 3.52v6.08c.02 1.26.21 2.23.58 2.89v.22h-4.26zm-2.68-2.79c.53 0 .98-.11 1.33-.34.35-.23.6-.49.75-.77v-2.2h-1.24c-1.49 0-2.23.67-2.23 2.01 0 .39.13.7.39.95.26.22.59.35 1 .35zM243.99 318.67l-1.41-.1c-1.35 0-2.21.42-2.59 1.27v8.7h-4.28V314.8h4.01l.14 1.76c.72-1.35 1.72-2.02 3.01-2.02.46 0 .85.05 1.19.15l-.07 3.98zM244.99 321.57c0-2.17.47-3.89 1.41-5.14s2.25-1.88 3.94-1.88c1.23 0 2.26.48 3.1 1.45v-6.96h4.29v19.5h-3.85l-.22-1.47c-.88 1.15-2 1.73-3.35 1.73-1.63 0-2.93-.63-3.88-1.88s-1.44-3.04-1.44-5.35zm4.28.26c0 2.44.71 3.66 2.13 3.66.95 0 1.62-.4 2.03-1.19v-5.23c-.39-.81-1.06-1.22-2.01-1.22-1.32 0-2.04 1.07-2.15 3.2v.78z"/></svg>