<svg id="Layer_1" xmlns="http://www.w3.org/2000/svg" viewBox="0 0 300 600"><style>.st0{fill:#021d8b}</style><path class="st0" d="M43.2 259.05c-1.38-.4-2.38-.88-3-1.46s-.94-1.29-.94-2.13c0-.96.38-1.75 1.15-2.38.77-.63 1.76-.94 2.99-.94.83 0 1.58.16 2.23.48s1.16.77 1.52 1.34c.36.57.54 1.19.54 1.86h-1.61c0-.74-.23-1.32-.7-1.74-.47-.42-1.13-.63-1.98-.63-.79 0-1.41.17-1.85.52-.44.35-.66.83-.66 1.45 0 .5.21.92.63 1.26s1.14.66 2.15.94c1.01.29 1.8.6 2.37.94.57.34.99.74 1.27 1.2.28.46.41.99.41 1.61 0 .99-.38 1.77-1.15 2.37-.77.59-1.8.89-3.08.89-.83 0-1.61-.16-2.34-.48-.72-.32-1.28-.76-1.67-1.32-.39-.56-.59-1.19-.59-1.9h1.61c0 .74.27 1.32.81 1.74.54.43 1.27.64 2.18.64.85 0 1.49-.17 1.95-.52.45-.34.68-.82.68-1.41s-.21-1.06-.63-1.38c-.43-.31-1.19-.63-2.29-.95zM51.07 256.53c.69-.84 1.58-1.26 2.67-1.26 1.91 0 2.87 1.08 2.89 3.23v5.97h-1.54v-5.98c-.01-.65-.15-1.13-.45-1.44-.29-.31-.75-.47-1.37-.47-.5 0-.94.13-1.32.4-.38.27-.67.62-.89 1.05v6.44h-1.54v-12.83h1.54v4.89zM58.53 259.87c0-.88.17-1.68.52-2.39.35-.71.83-1.25 1.45-1.64.62-.38 1.33-.58 2.13-.58 1.23 0 2.23.43 2.99 1.28.76.85 1.14 1.98 1.14 3.4v.11c0 .88-.17 1.67-.51 2.37-.34.7-.82 1.24-1.44 1.63-.63.39-1.35.58-2.16.58-1.22 0-2.22-.43-2.98-1.28-.76-.85-1.14-1.98-1.14-3.38v-.1zm1.56.18c0 1 .23 1.81.7 2.41.46.61 1.09.91 1.87.91.79 0 1.41-.31 1.87-.92.46-.62.69-1.48.69-2.58 0-.99-.24-1.79-.71-2.41-.47-.62-1.1-.92-1.88-.92-.76 0-1.38.3-1.85.91-.46.61-.69 1.47-.69 2.6zM76.33 260.05c0 1.38-.31 2.48-.94 3.32-.63.84-1.48 1.26-2.56 1.26-1.1 0-1.96-.35-2.59-1.04v4.35H68.7v-12.51h1.41l.08 1c.63-.78 1.5-1.17 2.62-1.17 1.09 0 1.94.41 2.58 1.23s.95 1.96.95 3.42v.14zm-1.54-.17c0-1.02-.22-1.82-.65-2.41-.43-.59-1.03-.88-1.79-.88-.94 0-1.64.42-2.1 1.24v4.32c.46.82 1.17 1.24 2.12 1.24.74 0 1.33-.29 1.77-.88.43-.6.65-1.47.65-2.63zM87.79 262.08c0-.42-.16-.74-.47-.97-.31-.23-.86-.43-1.65-.6s-1.4-.37-1.86-.6c-.46-.23-.8-.51-1.02-.83-.22-.32-.33-.71-.33-1.15 0-.74.31-1.37.94-1.88.63-.51 1.43-.77 2.4-.77 1.02 0 1.85.26 2.49.79.64.53.96 1.21.96 2.03H87.7c0-.42-.18-.79-.54-1.09-.36-.31-.81-.46-1.36-.46-.56 0-1 .12-1.32.37-.32.25-.48.57-.48.96 0 .37.15.65.44.84.29.19.83.37 1.6.54.77.17 1.4.38 1.88.62s.83.53 1.06.86c.23.34.35.75.35 1.23 0 .81-.32 1.45-.97 1.94-.65.49-1.48.73-2.51.73-.72 0-1.36-.13-1.92-.38-.56-.26-.99-.61-1.31-1.07-.31-.46-.47-.96-.47-1.49h1.54c.03.52.23.93.62 1.23.39.3.9.46 1.53.46.58 0 1.05-.12 1.41-.36.36-.24.54-.56.54-.95zM96.92 264.47c-.09-.18-.16-.5-.22-.95-.72.75-1.58 1.12-2.57 1.12-.89 0-1.62-.25-2.19-.76s-.86-1.14-.86-1.92c0-.94.36-1.67 1.07-2.19s1.72-.78 3.02-.78h1.5v-.71c0-.54-.16-.97-.48-1.29s-.8-.48-1.43-.48c-.55 0-1.01.14-1.39.42-.37.28-.56.62-.56 1.01h-1.55c0-.45.16-.89.48-1.31.32-.42.75-.75 1.3-1a4.47 4.47 0 0 1 1.81-.37c1.04 0 1.86.26 2.45.78.59.52.9 1.24.92 2.15v4.16c0 .83.11 1.49.32 1.98v.13h-1.62zm-2.56-1.18c.48 0 .94-.12 1.38-.38.43-.25.75-.58.94-.98v-1.85h-1.21c-1.89 0-2.84.55-2.84 1.66 0 .48.16.86.48 1.14.33.28.74.41 1.25.41zM101.41 264.47v-7.84h-1.43v-1.19h1.43v-.93c0-.97.26-1.72.78-2.25s1.25-.79 2.2-.79c.36 0 .71.05 1.06.14l-.08 1.25c-.26-.05-.54-.08-.84-.08-.5 0-.89.15-1.16.44-.27.29-.41.71-.41 1.26v.96h1.93v1.19h-1.93v7.84h-1.55zM110.34 264.64c-1.23 0-2.22-.4-2.99-1.21-.77-.8-1.15-1.88-1.15-3.23v-.28c0-.9.17-1.7.51-2.4.34-.7.82-1.26 1.44-1.65.62-.4 1.28-.6 2-.6 1.17 0 2.09.39 2.74 1.16s.98 1.88.98 3.32v.64h-6.12c.02.89.28 1.61.78 2.16s1.13.82 1.9.82c.55 0 1.01-.11 1.39-.33.38-.22.71-.52.99-.89l.94.74c-.76 1.17-1.9 1.75-3.41 1.75zm-.2-8.1c-.62 0-1.15.23-1.57.68-.42.45-.68 1.09-.79 1.91h4.53v-.12c-.04-.79-.26-1.39-.63-1.82-.38-.44-.89-.65-1.54-.65zM120.01 256.82c-.23-.04-.49-.06-.76-.06-1.01 0-1.7.43-2.06 1.29v6.41h-1.54v-9.04h1.5l.02 1.04c.51-.81 1.23-1.21 2.15-1.21.3 0 .53.04.68.12v1.45zM133.67 262.34l1.74-6.91h1.54l-2.63 9.04h-1.25l-2.2-6.85-2.14 6.85h-1.25l-2.62-9.04h1.54l1.78 6.76 2.1-6.76h1.24l2.15 6.91zM138.53 253.04c0-.25.08-.46.23-.63.15-.17.38-.26.68-.26.3 0 .53.09.68.26s.23.38.23.63-.08.46-.23.63-.38.25-.68.25c-.3 0-.53-.08-.68-.25a.922.922 0 0 1-.23-.63zm1.67 11.43h-1.54v-9.04h1.54v9.04zM144.77 253.25v2.19h1.69v1.19h-1.69v5.61c0 .36.08.63.23.82.15.18.41.27.77.27.18 0 .42-.03.74-.1v1.25c-.41.11-.8.17-1.19.17-.69 0-1.21-.21-1.56-.63-.35-.42-.53-1.01-.53-1.78v-5.6h-1.65v-1.19h1.65v-2.19h1.54zM149.8 256.53c.68-.84 1.58-1.26 2.67-1.26 1.91 0 2.87 1.08 2.89 3.23v5.97h-1.54v-5.98c-.01-.65-.16-1.13-.45-1.44-.29-.31-.75-.47-1.37-.47-.5 0-.94.13-1.32.4-.38.27-.67.62-.89 1.05v6.44h-1.54v-12.83h1.54v4.89zM163.76 259.71v4.76h-1.6v-12.16h4.48c1.33 0 2.37.34 3.13 1.02.75.68 1.13 1.58 1.13 2.7 0 1.18-.37 2.09-1.11 2.73-.74.64-1.79.96-3.17.96h-2.86zm0-1.31h2.88c.86 0 1.51-.2 1.97-.61.46-.4.68-.99.68-1.75 0-.72-.23-1.3-.68-1.74-.46-.43-1.08-.66-1.88-.68h-2.97v4.78zM177.07 256.82c-.23-.04-.49-.06-.76-.06-1.01 0-1.7.43-2.06 1.29v6.41h-1.54v-9.04h1.5l.03 1.04c.51-.81 1.22-1.21 2.15-1.21.3 0 .53.04.69.12v1.45zM178.5 253.04c0-.25.08-.46.23-.63s.38-.26.68-.26.53.09.68.26.23.38.23.63-.08.46-.23.63-.38.25-.68.25-.53-.08-.68-.25-.23-.38-.23-.63zm1.67 11.43h-1.54v-9.04h1.54v9.04zM185.62 262.38l2.24-6.94h1.58l-3.24 9.04h-1.18l-3.27-9.04h1.58l2.29 6.94zM196.38 264.47c-.09-.18-.16-.5-.22-.95-.72.75-1.58 1.12-2.57 1.12-.89 0-1.62-.25-2.19-.76-.57-.5-.86-1.14-.86-1.92 0-.94.36-1.67 1.07-2.19.71-.52 1.72-.78 3.02-.78h1.5v-.71c0-.54-.16-.97-.48-1.29-.32-.32-.8-.48-1.43-.48-.55 0-1.01.14-1.39.42s-.56.62-.56 1.01h-1.55c0-.45.16-.89.48-1.31.32-.42.75-.75 1.3-1a4.47 4.47 0 0 1 1.81-.37c1.04 0 1.86.26 2.45.78s.9 1.24.92 2.15v4.16c0 .83.11 1.49.32 1.98v.13h-1.62zm-2.57-1.18c.48 0 .94-.12 1.38-.38.43-.25.75-.58.94-.98v-1.85h-1.21c-1.89 0-2.84.55-2.84 1.66 0 .48.16.86.48 1.14.33.28.75.41 1.25.41zM203.73 263.38c.55 0 1.03-.17 1.44-.5s.64-.75.68-1.25h1.46c-.03.52-.21 1.01-.54 1.48-.33.47-.77.84-1.31 1.12-.55.28-1.13.42-1.74.42-1.23 0-2.21-.41-2.94-1.23s-1.09-1.94-1.09-3.37v-.26c0-.88.16-1.66.48-2.35.32-.68.79-1.22 1.39-1.59.6-.38 1.32-.57 2.14-.57 1.01 0 1.86.3 2.53.91.67.61 1.03 1.39 1.07 2.36h-1.46c-.04-.58-.27-1.06-.66-1.44-.4-.38-.89-.56-1.47-.56-.79 0-1.39.28-1.82.85-.43.57-.65 1.38-.65 2.45v.29c0 1.04.21 1.84.64 2.41s1.05.83 1.85.83zM212.01 262.21l2.1-6.77h1.65l-3.63 10.43c-.56 1.5-1.46 2.25-2.68 2.25l-.29-.03-.58-.11v-1.25l.42.03c.52 0 .93-.11 1.22-.32.29-.21.53-.6.72-1.16l.34-.92-3.22-8.94h1.69l2.26 6.79zM226.37 262.88c-.41.59-.99 1.03-1.72 1.32-.74.29-1.6.44-2.58.44-.99 0-1.87-.23-2.64-.7s-1.36-1.13-1.78-1.98-.64-1.85-.65-2.98v-1.06c0-1.83.43-3.25 1.28-4.26s2.06-1.51 3.6-1.51c1.27 0 2.29.32 3.06.97.77.65 1.25 1.57 1.42 2.76h-1.6c-.3-1.61-1.26-2.42-2.87-2.42-1.07 0-1.89.38-2.44 1.13s-.83 1.85-.84 3.28v.99c0 1.37.31 2.45.94 3.26.62.8 1.47 1.21 2.53 1.21.6 0 1.13-.07 1.58-.2.45-.13.82-.36 1.12-.67v-2.72h-2.81v-1.31h4.41v4.45zM234.38 263.58c-.6.71-1.48 1.06-2.65 1.06-.96 0-1.7-.28-2.2-.84s-.76-1.39-.76-2.48v-5.88h1.54v5.84c0 1.37.56 2.05 1.67 2.05 1.18 0 1.97-.44 2.36-1.32v-6.57h1.54v9.04h-1.47l-.03-.9zM243.8 264.47c-.09-.18-.16-.5-.22-.95-.72.75-1.58 1.12-2.57 1.12-.89 0-1.62-.25-2.19-.76-.57-.5-.86-1.14-.86-1.92 0-.94.36-1.67 1.07-2.19.71-.52 1.72-.78 3.02-.78h1.5v-.71c0-.54-.16-.97-.48-1.29-.32-.32-.8-.48-1.43-.48-.55 0-1.01.14-1.39.42s-.56.62-.56 1.01h-1.55c0-.45.16-.89.48-1.31.32-.42.75-.75 1.3-1a4.47 4.47 0 0 1 1.81-.37c1.04 0 1.86.26 2.45.78s.9 1.24.92 2.15v4.16c0 .83.11 1.49.32 1.98v.13h-1.62zm-2.56-1.18c.48 0 .94-.12 1.38-.38.43-.25.75-.58.94-.98v-1.85h-1.21c-1.89 0-2.84.55-2.84 1.66 0 .48.16.86.48 1.14.33.28.74.41 1.25.41zM251.9 256.82c-.23-.04-.49-.06-.76-.06-1.01 0-1.7.43-2.06 1.29v6.41h-1.54v-9.04h1.5l.03 1.04c.51-.81 1.22-1.21 2.15-1.21.3 0 .53.04.69.12v1.45zM252.94 259.88c0-1.39.33-2.5.99-3.34.66-.84 1.52-1.27 2.58-1.27s1.9.36 2.51 1.09v-4.71h1.54v12.83h-1.42l-.08-.97c-.62.76-1.48 1.14-2.58 1.14-1.05 0-1.9-.43-2.56-1.29-.66-.86-.99-1.98-.99-3.36v-.12zm1.54.17c0 1.02.21 1.83.63 2.41.42.58 1.01.87 1.75.87.98 0 1.7-.44 2.15-1.32v-4.15c-.46-.85-1.17-1.28-2.13-1.28-.76 0-1.35.29-1.77.88-.41.58-.63 1.45-.63 2.59z"/></svg>