<?xml version="1.0" encoding="utf-8"?>
<!-- Generator: Adobe Illustrator 24.2.3, SVG Export Plug-In . SVG Version: 6.00 Build 0)  -->
<svg version="1.1" id="Layer_1" xmlns="http://www.w3.org/2000/svg" xmlns:xlink="http://www.w3.org/1999/xlink" x="0px" y="0px"
	 viewBox="0 0 728 90" style="enable-background:new 0 0 728 90;" xml:space="preserve">
<style type="text/css">
	.st0{fill:#E82D8A;}
	.st1{fill:#EDF4FD;}
</style>
<g>
	<rect x="557.93" y="-0.33" class="st0" width="170.79" height="90"/>
</g>
<g>
	<path class="st1" d="M597.04,56.16c0-0.25-0.09-0.47-0.27-0.64c-0.18-0.17-0.48-0.33-0.9-0.47c-0.59-0.18-1.02-0.42-1.29-0.7
		s-0.4-0.66-0.4-1.1c0-0.45,0.13-0.83,0.4-1.12c0.26-0.29,0.63-0.46,1.09-0.52V50.7h0.62v0.91c0.46,0.06,0.83,0.26,1.09,0.58
		s0.39,0.77,0.39,1.34h-0.76c0-0.39-0.09-0.7-0.28-0.93s-0.44-0.35-0.75-0.35c-0.33,0-0.58,0.08-0.75,0.26
		c-0.17,0.17-0.26,0.41-0.26,0.71c0,0.28,0.09,0.51,0.28,0.68c0.18,0.17,0.49,0.32,0.91,0.46c0.42,0.14,0.75,0.29,0.99,0.45
		c0.24,0.16,0.41,0.36,0.52,0.57s0.17,0.47,0.17,0.77c0,0.47-0.14,0.84-0.42,1.13c-0.28,0.28-0.67,0.45-1.18,0.51v0.79h-0.61v-0.79
		c-0.51-0.05-0.92-0.23-1.21-0.55s-0.44-0.75-0.44-1.3h0.77c0,0.38,0.1,0.68,0.3,0.89c0.2,0.21,0.49,0.31,0.86,0.31
		c0.36,0,0.65-0.09,0.85-0.26C596.94,56.7,597.04,56.47,597.04,56.16z"/>
	<path class="st1" d="M601.29,57.72h-0.77V52.6l-1.55,0.57v-0.7l2.2-0.83h0.12V57.72z"/>
	<path class="st1" d="M606.76,52.14v1.09h0.84v0.59h-0.84v2.79c0,0.18,0.04,0.32,0.11,0.41c0.08,0.09,0.2,0.14,0.38,0.14
		c0.09,0,0.21-0.02,0.37-0.05v0.62c-0.2,0.06-0.4,0.08-0.59,0.08c-0.34,0-0.6-0.1-0.78-0.31c-0.17-0.21-0.26-0.5-0.26-0.88v-2.79
		h-0.82v-0.59h0.82v-1.09H606.76z"/>
	<path class="st1" d="M610.67,53.92c-0.12-0.02-0.24-0.03-0.38-0.03c-0.5,0-0.85,0.21-1.03,0.64v3.19h-0.77v-4.49h0.75l0.01,0.52
		c0.25-0.4,0.61-0.6,1.07-0.6c0.15,0,0.26,0.02,0.34,0.06V53.92z"/>
	<path class="st1" d="M611.37,52.04c0-0.12,0.04-0.23,0.11-0.32c0.08-0.09,0.19-0.13,0.34-0.13c0.15,0,0.26,0.04,0.34,0.13
		c0.08,0.08,0.12,0.19,0.12,0.32c0,0.12-0.04,0.23-0.12,0.31s-0.19,0.12-0.34,0.12c-0.15,0-0.26-0.04-0.34-0.12
		S611.37,52.16,611.37,52.04z M612.2,57.72h-0.77v-4.49h0.77V57.72z"/>
	<path class="st1" d="M616.21,57.72c-0.04-0.09-0.08-0.25-0.11-0.47c-0.36,0.37-0.78,0.56-1.28,0.56c-0.44,0-0.81-0.12-1.09-0.38
		c-0.28-0.25-0.43-0.57-0.43-0.95c0-0.47,0.18-0.83,0.53-1.09s0.86-0.39,1.5-0.39h0.75v-0.35c0-0.27-0.08-0.48-0.24-0.64
		c-0.16-0.16-0.4-0.24-0.71-0.24c-0.27,0-0.5,0.07-0.69,0.21s-0.28,0.31-0.28,0.5h-0.77c0-0.22,0.08-0.44,0.24-0.65
		s0.38-0.37,0.65-0.5c0.27-0.12,0.57-0.18,0.9-0.18c0.52,0,0.92,0.13,1.22,0.39c0.29,0.26,0.45,0.61,0.46,1.07v2.07
		c0,0.41,0.05,0.74,0.16,0.98v0.07H616.21z M614.93,57.14c0.24,0,0.47-0.06,0.68-0.19c0.22-0.12,0.37-0.29,0.47-0.49v-0.92h-0.6
		c-0.94,0-1.41,0.27-1.41,0.83c0,0.24,0.08,0.43,0.24,0.56S614.68,57.14,614.93,57.14z"/>
	<path class="st1" d="M618.89,57.72h-0.77v-6.38h0.77V57.72z"/>
	<path class="st1" d="M622.6,57.72v-3.9h-0.71v-0.59h0.71v-0.46c0-0.48,0.13-0.85,0.39-1.12s0.62-0.39,1.09-0.39
		c0.18,0,0.35,0.02,0.53,0.07l-0.04,0.62c-0.13-0.02-0.27-0.04-0.42-0.04c-0.25,0-0.44,0.07-0.58,0.22c-0.14,0.15-0.2,0.35-0.2,0.63
		v0.47h0.96v0.59h-0.96v3.9H622.6z"/>
	<path class="st1" d="M624.97,55.43c0-0.44,0.09-0.84,0.26-1.19c0.17-0.35,0.41-0.62,0.72-0.81c0.31-0.19,0.66-0.29,1.06-0.29
		c0.61,0,1.11,0.21,1.48,0.64c0.38,0.42,0.57,0.99,0.57,1.69v0.05c0,0.44-0.08,0.83-0.25,1.18c-0.17,0.35-0.41,0.62-0.72,0.81
		c-0.31,0.19-0.67,0.29-1.07,0.29c-0.61,0-1.1-0.21-1.48-0.63c-0.38-0.42-0.57-0.98-0.57-1.68V55.43z M625.74,55.53
		c0,0.5,0.12,0.9,0.35,1.2c0.23,0.3,0.54,0.45,0.93,0.45c0.39,0,0.7-0.15,0.93-0.46s0.34-0.73,0.34-1.28c0-0.49-0.12-0.89-0.35-1.2
		c-0.23-0.31-0.54-0.46-0.93-0.46c-0.38,0-0.69,0.15-0.92,0.45C625.86,54.53,625.74,54.96,625.74,55.53z"/>
	<path class="st1" d="M632.19,53.92c-0.12-0.02-0.24-0.03-0.38-0.03c-0.5,0-0.85,0.21-1.03,0.64v3.19h-0.77v-4.49h0.75l0.01,0.52
		c0.25-0.4,0.61-0.6,1.07-0.6c0.15,0,0.26,0.02,0.34,0.06V53.92z"/>
	<path class="st1" d="M636.04,52.14v1.09h0.84v0.59h-0.84v2.79c0,0.18,0.04,0.32,0.11,0.41c0.08,0.09,0.2,0.14,0.38,0.14
		c0.09,0,0.21-0.02,0.37-0.05v0.62c-0.2,0.06-0.4,0.08-0.59,0.08c-0.34,0-0.6-0.1-0.78-0.31c-0.17-0.21-0.26-0.5-0.26-0.88v-2.79
		h-0.82v-0.59h0.82v-1.09H636.04z"/>
	<path class="st1" d="M638.55,53.77c0.34-0.42,0.78-0.63,1.33-0.63c0.95,0,1.43,0.54,1.44,1.61v2.97h-0.77v-2.97
		c0-0.32-0.08-0.56-0.22-0.72c-0.15-0.16-0.37-0.23-0.68-0.23c-0.25,0-0.47,0.07-0.66,0.2c-0.19,0.13-0.33,0.31-0.44,0.52v3.2h-0.77
		v-6.38h0.77V53.77z"/>
	<path class="st1" d="M644.32,57.8c-0.61,0-1.1-0.2-1.49-0.6c-0.38-0.4-0.57-0.93-0.57-1.6v-0.14c0-0.45,0.08-0.84,0.26-1.19
		c0.17-0.35,0.41-0.62,0.71-0.82c0.31-0.2,0.64-0.3,0.99-0.3c0.58,0,1.04,0.19,1.36,0.58c0.32,0.38,0.49,0.94,0.49,1.65v0.32h-3.04
		c0.01,0.44,0.14,0.8,0.39,1.07c0.25,0.27,0.56,0.41,0.94,0.41c0.27,0,0.5-0.06,0.69-0.17c0.19-0.11,0.35-0.26,0.49-0.44l0.47,0.37
		C645.64,57.51,645.08,57.8,644.32,57.8z M644.23,53.78c-0.31,0-0.57,0.11-0.78,0.34c-0.21,0.23-0.34,0.54-0.39,0.95h2.25v-0.06
		c-0.02-0.39-0.13-0.69-0.31-0.91C644.8,53.88,644.55,53.78,644.23,53.78z"/>
	<path class="st1" d="M649.45,57.72v-3.9h-0.71v-0.59h0.71v-0.46c0-0.48,0.13-0.85,0.39-1.12s0.62-0.39,1.09-0.39
		c0.18,0,0.35,0.02,0.53,0.07l-0.04,0.62c-0.13-0.02-0.27-0.04-0.42-0.04c-0.25,0-0.44,0.07-0.58,0.22c-0.14,0.15-0.2,0.35-0.2,0.63
		v0.47h0.96v0.59h-0.96v3.9H649.45z"/>
	<path class="st1" d="M652.02,52.04c0-0.12,0.04-0.23,0.11-0.32c0.08-0.09,0.19-0.13,0.34-0.13c0.15,0,0.26,0.04,0.34,0.13
		c0.08,0.08,0.12,0.19,0.12,0.32c0,0.12-0.04,0.23-0.12,0.31s-0.19,0.12-0.34,0.12c-0.15,0-0.26-0.04-0.34-0.12
		S652.02,52.16,652.02,52.04z M652.85,57.72h-0.77v-4.49h0.77V57.72z"/>
	<path class="st1" d="M656.25,53.92c-0.12-0.02-0.24-0.03-0.38-0.03c-0.5,0-0.85,0.21-1.03,0.64v3.19h-0.77v-4.49h0.75l0.01,0.52
		c0.25-0.4,0.61-0.6,1.07-0.6c0.15,0,0.26,0.02,0.34,0.06V53.92z"/>
	<path class="st1" d="M659.57,56.53c0-0.21-0.08-0.37-0.23-0.48c-0.16-0.12-0.43-0.21-0.82-0.3s-0.7-0.18-0.93-0.3
		c-0.23-0.12-0.4-0.25-0.51-0.42s-0.16-0.35-0.16-0.57c0-0.37,0.16-0.68,0.47-0.93c0.31-0.25,0.71-0.38,1.19-0.38
		c0.51,0,0.92,0.13,1.24,0.39c0.32,0.26,0.47,0.6,0.47,1.01h-0.77c0-0.21-0.09-0.39-0.27-0.54c-0.18-0.15-0.4-0.23-0.67-0.23
		c-0.28,0-0.5,0.06-0.66,0.18c-0.16,0.12-0.24,0.28-0.24,0.48c0,0.19,0.07,0.33,0.22,0.42c0.15,0.09,0.41,0.18,0.79,0.27
		c0.38,0.08,0.69,0.19,0.93,0.31c0.24,0.12,0.42,0.26,0.53,0.43c0.12,0.17,0.17,0.37,0.17,0.61c0,0.4-0.16,0.72-0.48,0.96
		c-0.32,0.24-0.74,0.36-1.25,0.36c-0.36,0-0.68-0.06-0.95-0.19c-0.28-0.13-0.49-0.3-0.65-0.53s-0.23-0.47-0.23-0.74h0.77
		c0.01,0.26,0.12,0.46,0.31,0.61c0.19,0.15,0.45,0.23,0.76,0.23c0.29,0,0.52-0.06,0.7-0.18C659.49,56.88,659.57,56.73,659.57,56.53z
		"/>
	<path class="st1" d="M662.38,52.14v1.09h0.84v0.59h-0.84v2.79c0,0.18,0.04,0.32,0.11,0.41c0.08,0.09,0.2,0.14,0.38,0.14
		c0.09,0,0.21-0.02,0.37-0.05v0.62c-0.2,0.06-0.4,0.08-0.59,0.08c-0.34,0-0.6-0.1-0.78-0.31c-0.17-0.21-0.26-0.5-0.26-0.88v-2.79
		h-0.82v-0.59h0.82v-1.09H662.38z"/>
	<path class="st1" d="M668.96,57.72h-1.2V53.1l-1.43,0.44v-0.98l2.5-0.9h0.13V57.72z"/>
	<path class="st1" d="M674.48,55.45h0.69v0.97h-0.69v1.31h-1.2v-1.31h-2.48l-0.05-0.75l2.52-3.98h1.21V55.45z M671.94,55.45h1.34
		v-2.13l-0.08,0.14L671.94,55.45z"/>
	<path class="st1" d="M677.78,55.44c0-0.7,0.16-1.26,0.47-1.67c0.31-0.42,0.74-0.62,1.29-0.62c0.44,0,0.8,0.16,1.08,0.49v-2.29h1.2
		v6.38h-1.08l-0.06-0.48c-0.3,0.37-0.68,0.56-1.15,0.56c-0.53,0-0.95-0.21-1.27-0.62C677.94,56.76,677.78,56.18,677.78,55.44z
		 M678.98,55.53c0,0.42,0.07,0.74,0.22,0.97s0.36,0.34,0.64,0.34c0.37,0,0.63-0.16,0.79-0.47v-1.78c-0.15-0.31-0.41-0.47-0.78-0.47
		C679.27,54.12,678.98,54.59,678.98,55.53z"/>
	<path class="st1" d="M685.36,57.72c-0.05-0.11-0.09-0.24-0.12-0.4c-0.29,0.32-0.67,0.49-1.13,0.49c-0.44,0-0.8-0.13-1.09-0.38
		c-0.29-0.25-0.43-0.58-0.43-0.96c0-0.48,0.18-0.84,0.53-1.1c0.35-0.25,0.86-0.38,1.53-0.39h0.55v-0.26c0-0.21-0.05-0.37-0.16-0.5
		c-0.11-0.12-0.28-0.19-0.5-0.19c-0.2,0-0.36,0.05-0.47,0.15c-0.12,0.1-0.17,0.23-0.17,0.4h-1.2c0-0.26,0.08-0.5,0.24-0.72
		c0.16-0.22,0.39-0.39,0.68-0.52c0.29-0.13,0.62-0.19,0.99-0.19c0.55,0,0.99,0.14,1.32,0.42c0.33,0.28,0.49,0.67,0.49,1.17v1.95
		c0,0.43,0.06,0.75,0.18,0.97v0.07H685.36z M684.37,56.89c0.18,0,0.34-0.04,0.49-0.12c0.15-0.08,0.26-0.18,0.33-0.32v-0.77h-0.45
		c-0.6,0-0.92,0.21-0.96,0.62l0,0.07c0,0.15,0.05,0.27,0.16,0.37C684.04,56.84,684.19,56.89,684.37,56.89z"/>
	<path class="st1" d="M689,56.02l0.83-2.79h1.29l-1.8,5.19l-0.1,0.24c-0.27,0.59-0.71,0.88-1.33,0.88c-0.17,0-0.35-0.03-0.53-0.08
		v-0.91l0.18,0c0.23,0,0.4-0.04,0.51-0.1c0.11-0.07,0.2-0.18,0.26-0.34l0.14-0.37l-1.57-4.5h1.29L689,56.02z"/>
	<path class="st1" d="M694.02,56.48c0-0.15-0.07-0.26-0.22-0.35c-0.15-0.08-0.38-0.16-0.7-0.23c-1.07-0.22-1.6-0.68-1.6-1.36
		c0-0.4,0.17-0.73,0.5-1c0.33-0.27,0.76-0.4,1.3-0.4c0.57,0,1.03,0.13,1.37,0.4c0.34,0.27,0.51,0.62,0.51,1.05h-1.2
		c0-0.17-0.06-0.31-0.17-0.43c-0.11-0.11-0.28-0.17-0.52-0.17c-0.2,0-0.36,0.05-0.47,0.14c-0.11,0.09-0.17,0.21-0.17,0.35
		c0,0.13,0.06,0.24,0.19,0.32c0.13,0.08,0.34,0.15,0.64,0.21s0.55,0.13,0.75,0.2c0.63,0.23,0.95,0.64,0.95,1.21
		c0,0.41-0.17,0.74-0.53,0.99s-0.81,0.38-1.36,0.38c-0.38,0-0.71-0.07-1-0.2c-0.29-0.13-0.52-0.32-0.69-0.55
		c-0.17-0.23-0.25-0.49-0.25-0.76h1.14c0.01,0.21,0.09,0.38,0.24,0.49s0.34,0.17,0.59,0.17c0.23,0,0.4-0.04,0.52-0.13
		C693.96,56.73,694.02,56.62,694.02,56.48z"/>
	<path class="st1" d="M696.05,58.92l-0.44-0.3c0.26-0.36,0.4-0.74,0.41-1.12v-0.69h0.75v0.6c0,0.28-0.07,0.56-0.21,0.84
		C696.43,58.53,696.26,58.75,696.05,58.92z"/>
	<path class="st1" d="M593.14,65.73c0,0.68-0.16,1.23-0.47,1.65S591.94,68,591.41,68c-0.54,0-0.97-0.17-1.29-0.52v2.16h-0.77v-6.22
		h0.7l0.04,0.5c0.31-0.39,0.75-0.58,1.3-0.58c0.54,0,0.97,0.2,1.28,0.61c0.31,0.41,0.47,0.97,0.47,1.7V65.73z M592.38,65.64
		c0-0.51-0.11-0.91-0.32-1.2S591.54,64,591.16,64c-0.46,0-0.81,0.21-1.05,0.62v2.15c0.23,0.41,0.58,0.61,1.05,0.61
		c0.37,0,0.66-0.15,0.88-0.44C592.27,66.65,592.38,66.21,592.38,65.64z"/>
	<path class="st1" d="M594.95,67.92h-0.77v-6.38h0.77V67.92z"/>
	<path class="st1" d="M598.96,67.92c-0.04-0.09-0.08-0.25-0.11-0.47c-0.36,0.37-0.78,0.56-1.28,0.56c-0.44,0-0.81-0.12-1.09-0.38
		c-0.28-0.25-0.43-0.57-0.43-0.95c0-0.47,0.18-0.83,0.53-1.09s0.86-0.39,1.5-0.39h0.75v-0.35c0-0.27-0.08-0.48-0.24-0.64
		c-0.16-0.16-0.4-0.24-0.71-0.24c-0.27,0-0.5,0.07-0.69,0.21s-0.28,0.31-0.28,0.5h-0.77c0-0.22,0.08-0.44,0.24-0.65
		s0.38-0.37,0.65-0.5c0.27-0.12,0.57-0.18,0.9-0.18c0.52,0,0.92,0.13,1.22,0.39c0.29,0.26,0.45,0.61,0.46,1.07v2.07
		c0,0.41,0.05,0.74,0.16,0.98v0.07H598.96z M597.68,67.34c0.24,0,0.47-0.06,0.68-0.19c0.22-0.12,0.37-0.29,0.47-0.49v-0.92h-0.6
		c-0.94,0-1.41,0.27-1.41,0.83c0,0.24,0.08,0.43,0.24,0.56S597.43,67.34,597.68,67.34z"/>
	<path class="st1" d="M601.53,63.43l0.02,0.56c0.34-0.43,0.79-0.65,1.34-0.65c0.95,0,1.43,0.54,1.44,1.61v2.97h-0.77v-2.97
		c0-0.32-0.08-0.56-0.22-0.72c-0.15-0.16-0.37-0.23-0.68-0.23c-0.25,0-0.47,0.07-0.66,0.2c-0.19,0.13-0.33,0.31-0.44,0.52v3.2h-0.77
		v-4.49H601.53z"/>
	<path class="st1" d="M608.11,66.73c0-0.21-0.08-0.37-0.23-0.48c-0.16-0.12-0.43-0.21-0.82-0.3s-0.7-0.18-0.93-0.3
		c-0.23-0.12-0.4-0.25-0.51-0.42s-0.16-0.35-0.16-0.57c0-0.37,0.16-0.68,0.47-0.93c0.31-0.25,0.71-0.38,1.19-0.38
		c0.51,0,0.92,0.13,1.24,0.39c0.32,0.26,0.47,0.6,0.47,1.01h-0.77c0-0.21-0.09-0.39-0.27-0.54c-0.18-0.15-0.4-0.23-0.67-0.23
		c-0.28,0-0.5,0.06-0.66,0.18c-0.16,0.12-0.24,0.28-0.24,0.48c0,0.19,0.07,0.33,0.22,0.42c0.15,0.09,0.41,0.18,0.79,0.27
		c0.38,0.08,0.69,0.19,0.93,0.31c0.24,0.12,0.42,0.26,0.53,0.43c0.12,0.17,0.17,0.37,0.17,0.61c0,0.4-0.16,0.72-0.48,0.96
		c-0.32,0.24-0.74,0.36-1.25,0.36c-0.36,0-0.68-0.06-0.95-0.19c-0.28-0.13-0.49-0.3-0.65-0.53s-0.23-0.47-0.23-0.74h0.77
		c0.01,0.26,0.12,0.46,0.31,0.61c0.19,0.15,0.45,0.23,0.76,0.23c0.29,0,0.52-0.06,0.7-0.18C608.02,67.08,608.11,66.93,608.11,66.73z
		"/>
	<path class="st1" d="M614.6,66.73c0-0.21-0.08-0.37-0.23-0.48c-0.16-0.12-0.43-0.21-0.82-0.3s-0.7-0.18-0.93-0.3
		c-0.23-0.12-0.4-0.25-0.51-0.42s-0.16-0.35-0.16-0.57c0-0.37,0.16-0.68,0.47-0.93c0.31-0.25,0.71-0.38,1.19-0.38
		c0.51,0,0.92,0.13,1.24,0.39c0.32,0.26,0.47,0.6,0.47,1.01h-0.77c0-0.21-0.09-0.39-0.27-0.54c-0.18-0.15-0.4-0.23-0.67-0.23
		c-0.28,0-0.5,0.06-0.66,0.18c-0.16,0.12-0.24,0.28-0.24,0.48c0,0.19,0.07,0.33,0.22,0.42c0.15,0.09,0.41,0.18,0.79,0.27
		c0.38,0.08,0.69,0.19,0.93,0.31c0.24,0.12,0.42,0.26,0.53,0.43c0.12,0.17,0.17,0.37,0.17,0.61c0,0.4-0.16,0.72-0.48,0.96
		c-0.32,0.24-0.74,0.36-1.25,0.36c-0.36,0-0.68-0.06-0.95-0.19c-0.28-0.13-0.49-0.3-0.65-0.53s-0.23-0.47-0.23-0.74h0.77
		c0.01,0.26,0.12,0.46,0.31,0.61c0.19,0.15,0.45,0.23,0.76,0.23c0.29,0,0.52-0.06,0.7-0.18C614.51,67.08,614.6,66.93,614.6,66.73z"
		/>
	<path class="st1" d="M617.41,62.34v1.09h0.84v0.59h-0.84v2.79c0,0.18,0.04,0.32,0.11,0.41c0.08,0.09,0.2,0.14,0.38,0.14
		c0.09,0,0.21-0.02,0.37-0.05v0.62c-0.2,0.06-0.4,0.08-0.59,0.08c-0.34,0-0.6-0.1-0.78-0.31c-0.17-0.21-0.26-0.5-0.26-0.88v-2.79
		h-0.82v-0.59h0.82v-1.09H617.41z"/>
	<path class="st1" d="M621.91,67.92c-0.04-0.09-0.08-0.25-0.11-0.47c-0.36,0.37-0.78,0.56-1.28,0.56c-0.44,0-0.81-0.12-1.09-0.38
		c-0.28-0.25-0.43-0.57-0.43-0.95c0-0.47,0.18-0.83,0.53-1.09s0.86-0.39,1.5-0.39h0.75v-0.35c0-0.27-0.08-0.48-0.24-0.64
		c-0.16-0.16-0.4-0.24-0.71-0.24c-0.27,0-0.5,0.07-0.69,0.21s-0.28,0.31-0.28,0.5h-0.77c0-0.22,0.08-0.44,0.24-0.65
		s0.38-0.37,0.65-0.5c0.27-0.12,0.57-0.18,0.9-0.18c0.52,0,0.92,0.13,1.22,0.39c0.29,0.26,0.45,0.61,0.46,1.07v2.07
		c0,0.41,0.05,0.74,0.16,0.98v0.07H621.91z M620.64,67.34c0.24,0,0.47-0.06,0.68-0.19c0.22-0.12,0.37-0.29,0.47-0.49v-0.92h-0.6
		c-0.94,0-1.41,0.27-1.41,0.83c0,0.24,0.08,0.43,0.24,0.56S620.39,67.34,620.64,67.34z"/>
	<path class="st1" d="M625.94,64.12c-0.12-0.02-0.24-0.03-0.38-0.03c-0.5,0-0.85,0.21-1.03,0.64v3.19h-0.77v-4.49h0.75l0.01,0.52
		c0.25-0.4,0.61-0.6,1.07-0.6c0.15,0,0.26,0.02,0.34,0.06V64.12z"/>
	<path class="st1" d="M627.89,62.34v1.09h0.84v0.59h-0.84v2.79c0,0.18,0.04,0.32,0.11,0.41c0.08,0.09,0.2,0.14,0.38,0.14
		c0.09,0,0.21-0.02,0.37-0.05v0.62c-0.2,0.06-0.4,0.08-0.59,0.08c-0.34,0-0.6-0.1-0.78-0.31c-0.17-0.21-0.26-0.5-0.26-0.88v-2.79
		h-0.82v-0.59h0.82v-1.09H627.89z"/>
	<path class="st1" d="M629.63,62.24c0-0.12,0.04-0.23,0.11-0.32c0.08-0.09,0.19-0.13,0.34-0.13c0.15,0,0.26,0.04,0.34,0.13
		c0.08,0.08,0.12,0.19,0.12,0.32c0,0.12-0.04,0.23-0.12,0.31s-0.19,0.12-0.34,0.12c-0.15,0-0.26-0.04-0.34-0.12
		S629.63,62.36,629.63,62.24z M630.46,67.92h-0.77v-4.49h0.77V67.92z"/>
	<path class="st1" d="M632.42,63.43l0.02,0.56c0.34-0.43,0.79-0.65,1.34-0.65c0.95,0,1.43,0.54,1.44,1.61v2.97h-0.77v-2.97
		c0-0.32-0.08-0.56-0.22-0.72c-0.15-0.16-0.37-0.23-0.68-0.23c-0.25,0-0.47,0.07-0.66,0.2c-0.19,0.13-0.33,0.31-0.44,0.52v3.2h-0.77
		v-4.49H632.42z"/>
	<path class="st1" d="M636.2,65.64c0-0.7,0.16-1.26,0.49-1.67c0.32-0.41,0.75-0.62,1.29-0.62c0.55,0,0.98,0.19,1.28,0.58l0.04-0.5
		h0.7v4.38c0,0.58-0.17,1.04-0.52,1.37c-0.34,0.33-0.81,0.5-1.39,0.5c-0.32,0-0.64-0.07-0.95-0.21c-0.31-0.14-0.55-0.33-0.71-0.57
		l0.4-0.46c0.33,0.41,0.73,0.61,1.21,0.61c0.37,0,0.67-0.11,0.87-0.32c0.21-0.21,0.31-0.51,0.31-0.89v-0.39
		c-0.31,0.35-0.73,0.53-1.26,0.53c-0.53,0-0.95-0.21-1.28-0.63C636.36,66.95,636.2,66.37,636.2,65.64z M636.97,65.73
		c0,0.51,0.1,0.9,0.31,1.19c0.21,0.29,0.5,0.43,0.87,0.43c0.48,0,0.84-0.22,1.07-0.66v-2.05c-0.24-0.43-0.59-0.64-1.06-0.64
		c-0.37,0-0.67,0.14-0.88,0.44C637.07,64.72,636.97,65.16,636.97,65.73z"/>
	<path class="st1" d="M646.02,67.92c-0.04-0.09-0.08-0.25-0.11-0.47c-0.36,0.37-0.78,0.56-1.28,0.56c-0.44,0-0.81-0.12-1.09-0.38
		c-0.28-0.25-0.43-0.57-0.43-0.95c0-0.47,0.18-0.83,0.53-1.09s0.86-0.39,1.5-0.39h0.75v-0.35c0-0.27-0.08-0.48-0.24-0.64
		c-0.16-0.16-0.4-0.24-0.71-0.24c-0.27,0-0.5,0.07-0.69,0.21s-0.28,0.31-0.28,0.5h-0.77c0-0.22,0.08-0.44,0.24-0.65
		s0.38-0.37,0.65-0.5c0.27-0.12,0.57-0.18,0.9-0.18c0.52,0,0.92,0.13,1.22,0.39c0.29,0.26,0.45,0.61,0.46,1.07v2.07
		c0,0.41,0.05,0.74,0.16,0.98v0.07H646.02z M644.75,67.34c0.24,0,0.47-0.06,0.68-0.19c0.22-0.12,0.37-0.29,0.47-0.49v-0.92h-0.6
		c-0.94,0-1.41,0.27-1.41,0.83c0,0.24,0.08,0.43,0.24,0.56S644.5,67.34,644.75,67.34z"/>
	<path class="st1" d="M648.92,62.34v1.09h0.84v0.59h-0.84v2.79c0,0.18,0.04,0.32,0.11,0.41c0.08,0.09,0.2,0.14,0.38,0.14
		c0.09,0,0.21-0.02,0.37-0.05v0.62c-0.2,0.06-0.4,0.08-0.59,0.08c-0.34,0-0.6-0.1-0.78-0.31c-0.17-0.21-0.26-0.5-0.26-0.88v-2.79
		h-0.82v-0.59h0.82v-1.09H648.92z"/>
	<path class="st1" d="M655.45,66.33c0-0.23-0.06-0.41-0.19-0.54c-0.13-0.13-0.34-0.26-0.64-0.37c-0.3-0.11-0.56-0.23-0.78-0.34
		c-0.22-0.11-0.41-0.24-0.56-0.39c-0.16-0.14-0.28-0.32-0.37-0.51c-0.09-0.2-0.13-0.43-0.13-0.7c0-0.47,0.15-0.85,0.45-1.15
		s0.7-0.47,1.19-0.52v-0.89h0.66v0.9c0.49,0.07,0.87,0.27,1.15,0.61c0.28,0.34,0.42,0.78,0.42,1.32h-1.2c0-0.33-0.07-0.58-0.21-0.75
		c-0.14-0.17-0.32-0.25-0.55-0.25c-0.23,0-0.4,0.06-0.53,0.19c-0.12,0.13-0.19,0.31-0.19,0.53c0,0.21,0.06,0.38,0.18,0.51
		s0.35,0.26,0.68,0.39c0.33,0.13,0.6,0.26,0.82,0.38c0.21,0.12,0.39,0.25,0.54,0.4c0.15,0.15,0.26,0.32,0.34,0.51
		c0.08,0.19,0.12,0.41,0.12,0.66c0,0.47-0.15,0.85-0.44,1.15c-0.29,0.29-0.7,0.47-1.21,0.52v0.83h-0.66v-0.82
		c-0.57-0.06-1.01-0.26-1.32-0.6s-0.47-0.8-0.47-1.36h1.2c0,0.33,0.08,0.58,0.23,0.76s0.38,0.26,0.67,0.26
		c0.24,0,0.44-0.06,0.58-0.19C655.38,66.72,655.45,66.55,655.45,66.33z"/>
	<path class="st1" d="M660.27,65.5c-0.31,0.31-0.68,0.46-1.1,0.46c-0.53,0-0.96-0.18-1.28-0.55c-0.32-0.37-0.48-0.86-0.48-1.48
		c0-0.4,0.09-0.76,0.26-1.09c0.17-0.33,0.41-0.59,0.72-0.77c0.31-0.18,0.66-0.28,1.05-0.28c0.4,0,0.75,0.1,1.06,0.3
		c0.31,0.2,0.55,0.49,0.72,0.86c0.17,0.37,0.26,0.8,0.26,1.28v0.44c0,1.01-0.25,1.8-0.75,2.37c-0.5,0.58-1.21,0.88-2.13,0.92
		l-0.29,0v-1l0.27,0C659.62,66.93,660.18,66.44,660.27,65.5z M659.47,65.05c0.19,0,0.36-0.05,0.5-0.15s0.25-0.22,0.32-0.36v-0.49
		c0-0.41-0.08-0.72-0.23-0.95c-0.16-0.22-0.36-0.34-0.62-0.34c-0.24,0-0.44,0.11-0.59,0.33c-0.16,0.22-0.23,0.5-0.23,0.83
		c0,0.33,0.08,0.6,0.23,0.81C658.98,64.94,659.19,65.05,659.47,65.05z"/>
	<path class="st1" d="M662.45,67.33c0-0.19,0.06-0.35,0.19-0.46s0.29-0.18,0.48-0.18c0.2,0,0.36,0.06,0.49,0.18
		c0.13,0.12,0.19,0.27,0.19,0.46c0,0.19-0.06,0.34-0.19,0.46c-0.13,0.12-0.29,0.18-0.49,0.18c-0.2,0-0.36-0.06-0.49-0.18
		C662.52,67.67,662.45,67.52,662.45,67.33z"/>
	<path class="st1" d="M667.62,65.5c-0.31,0.31-0.68,0.46-1.1,0.46c-0.53,0-0.96-0.18-1.28-0.55c-0.32-0.37-0.48-0.86-0.48-1.48
		c0-0.4,0.09-0.76,0.26-1.09c0.17-0.33,0.41-0.59,0.72-0.77c0.31-0.18,0.66-0.28,1.05-0.28c0.4,0,0.75,0.1,1.06,0.3
		c0.31,0.2,0.55,0.49,0.72,0.86c0.17,0.37,0.26,0.8,0.26,1.28v0.44c0,1.01-0.25,1.8-0.75,2.37c-0.5,0.58-1.21,0.88-2.13,0.92
		l-0.29,0v-1l0.27,0C666.96,66.93,667.53,66.44,667.62,65.5z M666.81,65.05c0.19,0,0.36-0.05,0.5-0.15s0.25-0.22,0.32-0.36v-0.49
		c0-0.41-0.08-0.72-0.23-0.95c-0.16-0.22-0.36-0.34-0.62-0.34c-0.24,0-0.44,0.11-0.59,0.33c-0.16,0.22-0.23,0.5-0.23,0.83
		c0,0.33,0.08,0.6,0.23,0.81C666.33,64.94,666.54,65.05,666.81,65.05z"/>
	<path class="st1" d="M672.49,65.5c-0.31,0.31-0.68,0.46-1.1,0.46c-0.53,0-0.96-0.18-1.28-0.55c-0.32-0.37-0.48-0.86-0.48-1.48
		c0-0.4,0.09-0.76,0.26-1.09c0.17-0.33,0.41-0.59,0.72-0.77c0.31-0.18,0.66-0.28,1.05-0.28c0.4,0,0.75,0.1,1.06,0.3
		c0.31,0.2,0.55,0.49,0.72,0.86c0.17,0.37,0.26,0.8,0.26,1.28v0.44c0,1.01-0.25,1.8-0.75,2.37c-0.5,0.58-1.21,0.88-2.13,0.92
		l-0.29,0v-1l0.27,0C671.84,66.93,672.41,66.44,672.49,65.5z M671.69,65.05c0.19,0,0.36-0.05,0.5-0.15s0.25-0.22,0.32-0.36v-0.49
		c0-0.41-0.08-0.72-0.23-0.95c-0.16-0.22-0.36-0.34-0.62-0.34c-0.24,0-0.44,0.11-0.59,0.33c-0.16,0.22-0.23,0.5-0.23,0.83
		c0,0.33,0.08,0.6,0.23,0.81C671.2,64.94,671.42,65.05,671.69,65.05z"/>
	<path class="st1" d="M674.99,68.44h-0.89l2.22-6.56h0.89L674.99,68.44z"/>
	<path class="st1" d="M678.91,63.43l0.04,0.5c0.32-0.39,0.75-0.59,1.29-0.59c0.58,0,0.97,0.23,1.19,0.69
		c0.32-0.46,0.77-0.69,1.35-0.69c0.49,0,0.85,0.14,1.09,0.43c0.24,0.28,0.36,0.71,0.36,1.28v2.87h-1.2v-2.86
		c0-0.25-0.05-0.44-0.15-0.56c-0.1-0.12-0.28-0.18-0.53-0.18c-0.36,0-0.61,0.17-0.75,0.51l0,3.08h-1.2v-2.86
		c0-0.26-0.05-0.45-0.15-0.56s-0.28-0.17-0.52-0.17c-0.34,0-0.59,0.14-0.74,0.42v3.17h-1.2v-4.49H678.91z"/>
	<path class="st1" d="M684.96,65.63c0-0.45,0.09-0.84,0.26-1.19s0.42-0.62,0.74-0.81c0.32-0.19,0.7-0.29,1.12-0.29
		c0.61,0,1.1,0.19,1.48,0.56c0.38,0.37,0.6,0.87,0.64,1.51l0.01,0.31c0,0.69-0.19,1.24-0.58,1.66c-0.38,0.42-0.9,0.62-1.55,0.62
		s-1.16-0.21-1.55-0.62c-0.39-0.42-0.58-0.98-0.58-1.69V65.63z M686.16,65.72c0,0.43,0.08,0.75,0.24,0.98
		c0.16,0.23,0.39,0.34,0.69,0.34c0.29,0,0.52-0.11,0.68-0.33c0.16-0.22,0.24-0.58,0.24-1.07c0-0.42-0.08-0.74-0.24-0.97
		c-0.16-0.23-0.39-0.34-0.69-0.34c-0.29,0-0.52,0.11-0.68,0.34C686.24,64.89,686.16,65.24,686.16,65.72z"/>
	<path class="st1" d="M691.06,63.43l0.04,0.52c0.32-0.4,0.75-0.6,1.29-0.6c0.48,0,0.83,0.14,1.06,0.42c0.23,0.28,0.35,0.7,0.36,1.25
		v2.9h-1.2v-2.87c0-0.25-0.06-0.44-0.17-0.55c-0.11-0.11-0.29-0.17-0.55-0.17c-0.34,0-0.59,0.14-0.76,0.43v3.17h-1.2v-4.49H691.06z"
		/>
	<path class="st1" d="M696.15,62.33v1.1h0.77v0.88h-0.77v2.24c0,0.17,0.03,0.29,0.1,0.36c0.06,0.07,0.19,0.11,0.37,0.11
		c0.13,0,0.25-0.01,0.35-0.03v0.91c-0.24,0.07-0.48,0.11-0.73,0.11c-0.84,0-1.27-0.42-1.29-1.27v-2.42h-0.66v-0.88h0.66v-1.1H696.15
		z"/>
	<path class="st1" d="M698.75,63.92c0.32-0.38,0.72-0.57,1.2-0.57c0.97,0,1.47,0.57,1.48,1.7v2.88h-1.2v-2.84
		c0-0.26-0.06-0.45-0.17-0.57c-0.11-0.12-0.29-0.18-0.55-0.18c-0.35,0-0.61,0.14-0.76,0.41v3.19h-1.2v-6.38h1.2V63.92z"/>
</g>
</svg>
