<?xml version="1.0" encoding="utf-8"?>
<!-- Generator: Adobe Illustrator 24.2.3, SVG Export Plug-In . SVG Version: 6.00 Build 0)  -->
<svg version="1.1" id="Layer_1" xmlns="http://www.w3.org/2000/svg" xmlns:xlink="http://www.w3.org/1999/xlink" x="0px" y="0px"
	 viewBox="0 0 728 90" style="enable-background:new 0 0 728 90;" xml:space="preserve">
<style type="text/css">
	.st0{fill:url(#SVGID_1_);}
</style>
<linearGradient id="SVGID_1_" gradientUnits="userSpaceOnUse" x1="237.2266" y1="44.9614" x2="503.5381" y2="44.9614">
	<stop  offset="0" style="stop-color:#18B9FB"/>
	<stop  offset="0.5" style="stop-color:#782EEB"/>
	<stop  offset="1" style="stop-color:#E82D8A"/>
</linearGradient>
<path class="st0" d="M247.81,38.67h-5.42l-0.95,3.06h-4.22l6.01-16.39h3.72l6.06,16.39h-4.25L247.81,38.67z M243.34,35.62h3.52
	l-1.77-5.69L243.34,35.62z M259.18,39.03c0.53,0,0.95-0.14,1.24-0.43c0.29-0.29,0.44-0.69,0.43-1.21h3.56
	c0,1.34-0.48,2.43-1.44,3.29c-0.96,0.86-2.19,1.28-3.7,1.28c-1.77,0-3.17-0.56-4.19-1.67c-1.02-1.11-1.53-2.65-1.53-4.62v-0.16
	c0-1.23,0.23-2.32,0.68-3.26s1.11-1.67,1.96-2.17c0.86-0.51,1.87-0.76,3.04-0.76c1.58,0,2.84,0.44,3.77,1.32
	c0.93,0.88,1.4,2.07,1.4,3.57h-3.56c0-0.63-0.15-1.11-0.46-1.45c-0.31-0.34-0.72-0.51-1.24-0.51c-0.98,0-1.56,0.63-1.72,1.88
	c-0.05,0.4-0.08,0.95-0.08,1.64c0,1.22,0.15,2.07,0.44,2.54C258.08,38.8,258.55,39.03,259.18,39.03z M271.16,39.03
	c0.53,0,0.95-0.14,1.24-0.43c0.29-0.29,0.44-0.69,0.43-1.21h3.56c0,1.34-0.48,2.43-1.44,3.29c-0.96,0.86-2.19,1.28-3.7,1.28
	c-1.77,0-3.17-0.56-4.19-1.67c-1.02-1.11-1.53-2.65-1.53-4.62v-0.16c0-1.23,0.23-2.32,0.68-3.26c0.45-0.94,1.11-1.67,1.96-2.17
	s1.87-0.76,3.04-0.76c1.58,0,2.84,0.44,3.77,1.32c0.93,0.88,1.4,2.07,1.4,3.57h-3.56c0-0.63-0.15-1.11-0.46-1.45
	c-0.31-0.34-0.72-0.51-1.24-0.51c-0.98,0-1.56,0.63-1.72,1.88c-0.05,0.4-0.08,0.95-0.08,1.64c0,1.22,0.15,2.07,0.44,2.54
	C270.06,38.8,270.53,39.03,271.16,39.03z M283.89,41.96c-1.87,0-3.38-0.56-4.54-1.67c-1.16-1.11-1.73-2.57-1.73-4.35v-0.32
	c0-1.25,0.23-2.35,0.69-3.3c0.46-0.95,1.14-1.69,2.02-2.21c0.89-0.52,1.94-0.78,3.15-0.78c1.71,0,3.06,0.53,4.05,1.59
	c0.99,1.06,1.49,2.54,1.49,4.44v1.48h-7.54c0.14,0.68,0.43,1.22,0.89,1.61c0.46,0.39,1.05,0.59,1.78,0.59c1.2,0,2.14-0.42,2.82-1.26
	l1.73,2.05c-0.47,0.65-1.14,1.17-2.01,1.56C285.82,41.77,284.89,41.96,283.89,41.96z M283.46,32.25c-1.11,0-1.77,0.74-1.98,2.21
	h3.83v-0.29c0.01-0.61-0.14-1.08-0.46-1.41C284.52,32.42,284.06,32.25,283.46,32.25z M296.93,38.31c0-0.32-0.17-0.58-0.51-0.78
	c-0.34-0.19-0.98-0.4-1.93-0.61c-0.95-0.21-1.73-0.49-2.34-0.83s-1.08-0.76-1.41-1.24c-0.32-0.49-0.48-1.05-0.48-1.68
	c0-1.12,0.46-2.04,1.38-2.76c0.92-0.72,2.13-1.09,3.63-1.09c1.61,0,2.9,0.36,3.87,1.09s1.46,1.69,1.46,2.87h-3.81
	c0-0.98-0.51-1.46-1.54-1.46c-0.4,0-0.73,0.11-1,0.33c-0.27,0.22-0.41,0.5-0.41,0.83c0,0.34,0.17,0.61,0.5,0.82
	c0.33,0.21,0.86,0.38,1.58,0.52s1.36,0.3,1.91,0.48c1.83,0.63,2.75,1.76,2.75,3.39c0,1.11-0.49,2.02-1.48,2.71
	c-0.99,0.7-2.27,1.05-3.83,1.05c-1.04,0-1.97-0.19-2.79-0.56c-0.82-0.37-1.46-0.89-1.91-1.53s-0.69-1.33-0.69-2.04h3.55
	c0.01,0.56,0.2,0.97,0.56,1.23c0.36,0.26,0.82,0.39,1.38,0.39c0.52,0,0.91-0.1,1.17-0.32C296.8,38.92,296.93,38.65,296.93,38.31z
	 M308.74,38.31c0-0.32-0.17-0.58-0.51-0.78c-0.34-0.19-0.98-0.4-1.93-0.61c-0.95-0.21-1.73-0.49-2.34-0.83
	c-0.62-0.34-1.08-0.76-1.41-1.24c-0.32-0.49-0.48-1.05-0.48-1.68c0-1.12,0.46-2.04,1.38-2.76c0.92-0.72,2.13-1.09,3.63-1.09
	c1.61,0,2.9,0.36,3.87,1.09c0.98,0.73,1.46,1.69,1.46,2.87h-3.81c0-0.98-0.51-1.46-1.54-1.46c-0.4,0-0.73,0.11-1,0.33
	c-0.27,0.22-0.41,0.5-0.41,0.83c0,0.34,0.17,0.61,0.5,0.82c0.33,0.21,0.86,0.38,1.58,0.52s1.36,0.3,1.91,0.48
	c1.83,0.63,2.75,1.76,2.75,3.39c0,1.11-0.49,2.02-1.48,2.71c-0.99,0.7-2.27,1.05-3.83,1.05c-1.04,0-1.97-0.19-2.79-0.56
	c-0.82-0.37-1.46-0.89-1.91-1.53s-0.69-1.33-0.69-2.04h3.55c0.01,0.56,0.2,0.97,0.56,1.23c0.36,0.26,0.82,0.39,1.38,0.39
	c0.52,0,0.91-0.1,1.17-0.32C308.61,38.92,308.74,38.65,308.74,38.31z M326.78,41.74c-0.14-0.25-0.26-0.61-0.36-1.09
	c-0.7,0.88-1.67,1.32-2.93,1.32c-1.15,0-2.12-0.35-2.93-1.04c-0.8-0.69-1.2-1.57-1.2-2.62c0-1.32,0.49-2.32,1.46-3
	s2.4-1.01,4.26-1.01h1.17v-0.65c0-1.12-0.48-1.69-1.45-1.69c-0.9,0-1.35,0.44-1.35,1.34h-3.79c0-1.18,0.5-2.13,1.5-2.87
	c1-0.74,2.28-1.1,3.83-1.1c1.55,0,2.78,0.38,3.68,1.14c0.9,0.76,1.36,1.8,1.38,3.12v5.39c0.01,1.12,0.19,1.97,0.52,2.57v0.19H326.78
	z M324.4,39.26c0.47,0,0.86-0.1,1.18-0.3c0.31-0.2,0.53-0.43,0.67-0.69v-1.95h-1.1c-1.32,0-1.98,0.59-1.98,1.78
	c0,0.35,0.12,0.62,0.35,0.84C323.75,39.15,324.04,39.26,324.4,39.26z M335.64,29.55l0.12,1.43c0.84-1.1,2-1.66,3.48-1.66
	c1.27,0,2.22,0.38,2.84,1.14c0.63,0.76,0.95,1.9,0.97,3.42v7.85h-3.81v-7.69c0-0.62-0.12-1.07-0.37-1.36s-0.7-0.43-1.35-0.43
	c-0.74,0-1.29,0.29-1.66,0.88v8.6h-3.79V29.55H335.64z M357.77,41.74c-0.14-0.25-0.26-0.61-0.36-1.09c-0.7,0.88-1.67,1.32-2.93,1.32
	c-1.15,0-2.12-0.35-2.93-1.04c-0.8-0.69-1.2-1.57-1.2-2.62c0-1.32,0.49-2.32,1.46-3s2.4-1.01,4.26-1.01h1.17v-0.65
	c0-1.12-0.48-1.69-1.45-1.69c-0.9,0-1.35,0.44-1.35,1.34h-3.79c0-1.18,0.5-2.13,1.5-2.87c1-0.74,2.28-1.1,3.83-1.1
	c1.55,0,2.78,0.38,3.68,1.14c0.9,0.76,1.36,1.8,1.38,3.12v5.39c0.01,1.12,0.19,1.97,0.52,2.57v0.19H357.77z M355.39,39.26
	c0.47,0,0.86-0.1,1.18-0.3c0.31-0.2,0.53-0.43,0.67-0.69v-1.95h-1.1c-1.32,0-1.98,0.59-1.98,1.78c0,0.35,0.12,0.62,0.35,0.84
	C354.73,39.15,355.03,39.26,355.39,39.26z M373.66,36.74l1.23-7.18h3.64l-2.87,12.18h-3.21l-2.02-7.23l-2.03,7.23h-3.21l-2.87-12.18
	h3.64l1.2,7.35l1.94-7.35h2.65L373.66,36.74z M386.75,41.74c-0.14-0.25-0.26-0.61-0.36-1.09c-0.7,0.88-1.67,1.32-2.93,1.32
	c-1.15,0-2.12-0.35-2.93-1.04c-0.8-0.69-1.2-1.57-1.2-2.62c0-1.32,0.49-2.32,1.46-3c0.98-0.68,2.4-1.01,4.26-1.01h1.17v-0.65
	c0-1.12-0.48-1.69-1.45-1.69c-0.9,0-1.35,0.44-1.35,1.34h-3.79c0-1.18,0.5-2.13,1.5-2.87c1-0.74,2.28-1.1,3.83-1.1
	s2.78,0.38,3.68,1.14c0.9,0.76,1.36,1.8,1.38,3.12v5.39c0.01,1.12,0.19,1.97,0.52,2.57v0.19H386.75z M384.37,39.26
	c0.47,0,0.86-0.1,1.18-0.3c0.31-0.2,0.53-0.43,0.67-0.69v-1.95h-1.1c-1.32,0-1.98,0.59-1.98,1.78c0,0.35,0.12,0.62,0.35,0.84
	S384.01,39.26,384.37,39.26z M399.5,32.99l-1.25-0.09c-1.19,0-1.96,0.37-2.3,1.13v7.71h-3.79V29.55h3.56l0.12,1.57
	c0.64-1.19,1.53-1.79,2.67-1.79c0.41,0,0.76,0.05,1.06,0.14L399.5,32.99z M400.17,35.55c0-1.93,0.42-3.45,1.25-4.56
	c0.83-1.11,2-1.67,3.49-1.67c1.09,0,2,0.43,2.75,1.28v-6.17h3.81v17.3h-3.41l-0.19-1.31c-0.78,1.02-1.77,1.53-2.97,1.53
	c-1.45,0-2.6-0.56-3.45-1.67C400.6,39.18,400.17,37.6,400.17,35.55z M403.97,35.79c0,2.16,0.63,3.24,1.89,3.24
	c0.84,0,1.44-0.35,1.8-1.06v-4.64c-0.35-0.72-0.94-1.08-1.78-1.08c-1.17,0-1.8,0.95-1.9,2.84L403.97,35.79z M421.04,36.13h-6.77
	V33.2h6.77V36.13z M434.51,36.74l1.23-7.18h3.64l-2.87,12.18h-3.21l-2.02-7.23l-2.03,7.23h-3.21l-2.87-12.18h3.64l1.2,7.35
	l1.94-7.35h2.65L434.51,36.74z M440.71,26.41c0-0.54,0.19-0.98,0.59-1.33s0.9-0.52,1.52-0.52s1.13,0.17,1.52,0.52
	c0.39,0.35,0.59,0.79,0.59,1.33c0,0.54-0.19,0.98-0.59,1.33c-0.39,0.35-0.9,0.52-1.52,0.52s-1.13-0.17-1.52-0.52
	C440.9,27.39,440.71,26.95,440.71,26.41z M444.74,41.74h-3.81V29.55h3.81V41.74z M450.56,29.55l0.12,1.43c0.84-1.1,2-1.66,3.48-1.66
	c1.27,0,2.22,0.38,2.84,1.14c0.63,0.76,0.95,1.9,0.97,3.42v7.85h-3.81v-7.69c0-0.62-0.12-1.07-0.37-1.36s-0.7-0.43-1.35-0.43
	c-0.74,0-1.29,0.29-1.66,0.88v8.6H447V29.55H450.56z M463.56,29.55l0.12,1.43c0.84-1.1,2-1.66,3.48-1.66c1.27,0,2.22,0.38,2.84,1.14
	c0.63,0.76,0.95,1.9,0.97,3.42v7.85h-3.81v-7.69c0-0.62-0.12-1.07-0.37-1.36c-0.25-0.29-0.7-0.43-1.35-0.43
	c-0.74,0-1.29,0.29-1.66,0.88v8.6h-3.79V29.55H463.56z M473.06,26.41c0-0.54,0.19-0.98,0.59-1.33s0.9-0.52,1.52-0.52
	s1.13,0.17,1.52,0.52s0.59,0.79,0.59,1.33c0,0.54-0.19,0.98-0.59,1.33c-0.39,0.35-0.9,0.52-1.52,0.52s-1.13-0.17-1.52-0.52
	C473.25,27.39,473.06,26.95,473.06,26.41z M477.09,41.74h-3.81V29.55h3.81V41.74z M482.91,29.55l0.12,1.43
	c0.84-1.1,2-1.66,3.48-1.66c1.27,0,2.22,0.38,2.84,1.14c0.63,0.76,0.95,1.9,0.97,3.42v7.85h-3.81v-7.69c0-0.62-0.12-1.07-0.37-1.36
	c-0.25-0.29-0.7-0.43-1.35-0.43c-0.74,0-1.29,0.29-1.66,0.88v8.6h-3.79V29.55H482.91z M491.99,35.55c0-1.23,0.2-2.32,0.61-3.27
	c0.41-0.95,0.99-1.68,1.75-2.19c0.76-0.51,1.64-0.77,2.65-0.77c1.27,0,2.26,0.43,2.97,1.28l0.14-1.06h3.45v11.72
	c0,1.07-0.25,2.01-0.75,2.8c-0.5,0.79-1.22,1.4-2.17,1.82c-0.95,0.42-2.04,0.64-3.29,0.64c-0.89,0-1.76-0.17-2.6-0.51
	c-0.84-0.34-1.48-0.78-1.92-1.32l1.59-2.23c0.71,0.83,1.64,1.25,2.79,1.25c1.68,0,2.52-0.86,2.52-2.59v-0.38
	c-0.73,0.8-1.65,1.2-2.76,1.2c-1.49,0-2.69-0.57-3.6-1.71c-0.92-1.14-1.37-2.66-1.37-4.57V35.55z M495.79,35.79
	c0,1,0.19,1.79,0.56,2.37c0.37,0.58,0.9,0.87,1.58,0.87c0.82,0,1.42-0.27,1.79-0.82v-5.12c-0.37-0.56-0.96-0.83-1.77-0.83
	c-0.68,0-1.2,0.3-1.59,0.91C495.98,33.77,495.79,34.64,495.79,35.79z M245.69,56.51l-1.25-0.09c-1.19,0-1.96,0.37-2.3,1.13v7.71
	h-3.79V53.07h3.56l0.12,1.57c0.64-1.19,1.53-1.79,2.67-1.79c0.41,0,0.76,0.05,1.06,0.14L245.69,56.51z M252.74,65.48
	c-1.87,0-3.38-0.56-4.54-1.67c-1.16-1.11-1.73-2.57-1.73-4.35v-0.32c0-1.25,0.23-2.35,0.69-3.3c0.46-0.95,1.14-1.69,2.02-2.21
	s1.94-0.78,3.15-0.78c1.71,0,3.06,0.53,4.05,1.59c0.99,1.06,1.49,2.54,1.49,4.44v1.48h-7.54c0.14,0.68,0.43,1.22,0.89,1.61
	s1.05,0.59,1.78,0.59c1.2,0,2.14-0.42,2.82-1.26l1.73,2.05c-0.47,0.65-1.14,1.17-2.01,1.56C254.67,65.29,253.74,65.48,252.74,65.48z
	 M252.32,55.78c-1.11,0-1.77,0.74-1.98,2.21h3.83v-0.29c0.01-0.61-0.14-1.08-0.46-1.41C253.38,55.94,252.92,55.78,252.32,55.78z
	 M265.78,61.83c0-0.32-0.17-0.58-0.51-0.78c-0.34-0.19-0.98-0.4-1.93-0.61s-1.73-0.49-2.34-0.83c-0.62-0.34-1.08-0.76-1.41-1.24
	c-0.32-0.49-0.48-1.05-0.48-1.68c0-1.12,0.46-2.04,1.38-2.76c0.92-0.72,2.13-1.09,3.63-1.09c1.61,0,2.9,0.36,3.87,1.09
	c0.98,0.73,1.46,1.69,1.46,2.87h-3.81c0-0.98-0.51-1.46-1.54-1.46c-0.4,0-0.73,0.11-1,0.33c-0.27,0.22-0.41,0.5-0.41,0.83
	c0,0.34,0.17,0.61,0.5,0.82c0.33,0.21,0.86,0.38,1.58,0.52c0.72,0.14,1.36,0.3,1.91,0.48c1.83,0.63,2.75,1.76,2.75,3.39
	c0,1.11-0.49,2.02-1.48,2.71c-0.99,0.7-2.27,1.05-3.83,1.05c-1.04,0-1.97-0.19-2.79-0.56c-0.82-0.37-1.46-0.89-1.91-1.53
	s-0.69-1.33-0.69-2.04h3.55c0.01,0.56,0.2,0.97,0.56,1.23c0.36,0.26,0.82,0.39,1.39,0.39c0.52,0,0.91-0.1,1.17-0.32
	S265.78,62.17,265.78,61.83z M270.74,59.05c0-1.22,0.24-2.3,0.71-3.25s1.15-1.68,2.04-2.19c0.89-0.51,1.93-0.77,3.12-0.77
	c1.82,0,3.26,0.57,4.31,1.69c1.05,1.13,1.58,2.67,1.58,4.61v0.14c0,1.9-0.53,3.41-1.58,4.52c-1.06,1.11-2.48,1.67-4.28,1.67
	c-1.73,0-3.13-0.52-4.18-1.56c-1.05-1.04-1.62-2.45-1.7-4.23L270.74,59.05z M274.53,59.29c0,1.13,0.18,1.95,0.53,2.48
	c0.35,0.53,0.87,0.79,1.57,0.79c1.35,0,2.04-1.04,2.07-3.12v-0.38c0-2.18-0.7-3.28-2.09-3.28c-1.27,0-1.96,0.94-2.06,2.83
	L274.53,59.29z M288.17,65.26h-3.81v-17.3h3.81V65.26z M297.76,63.94c-0.8,1.03-1.89,1.54-3.25,1.54c-1.34,0-2.35-0.39-3.03-1.17
	c-0.69-0.78-1.03-1.89-1.03-3.35v-7.89h3.79v7.92c0,1.04,0.51,1.57,1.52,1.57c0.87,0,1.49-0.31,1.86-0.93v-8.55h3.82v12.18h-3.56
	L297.76,63.94z M307.93,50.05v3.03h2v2.63h-2v5.57c0,0.46,0.08,0.78,0.25,0.96c0.17,0.18,0.49,0.27,0.98,0.27
	c0.37,0,0.69-0.02,0.95-0.07v2.71c-0.68,0.22-1.4,0.33-2.14,0.33c-1.31,0-2.27-0.31-2.89-0.92c-0.62-0.62-0.93-1.55-0.93-2.8v-6.05
	h-1.55v-2.63h1.55v-3.03H307.93z M311.4,49.93c0-0.54,0.19-0.98,0.59-1.33s0.9-0.52,1.52-0.52s1.13,0.17,1.52,0.52
	s0.59,0.79,0.59,1.33c0,0.54-0.19,0.98-0.59,1.33c-0.39,0.35-0.9,0.52-1.52,0.52s-1.13-0.17-1.52-0.52
	C311.59,50.92,311.4,50.47,311.4,49.93z M315.43,65.26h-3.81V53.07h3.81V65.26z M317.29,59.05c0-1.22,0.24-2.3,0.71-3.25
	c0.47-0.95,1.15-1.68,2.04-2.19c0.89-0.51,1.93-0.77,3.12-0.77c1.82,0,3.26,0.57,4.31,1.69s1.58,2.67,1.58,4.61v0.14
	c0,1.9-0.53,3.41-1.58,4.52c-1.06,1.11-2.48,1.67-4.28,1.67c-1.73,0-3.13-0.52-4.18-1.56c-1.05-1.04-1.62-2.45-1.7-4.23
	L317.29,59.05z M321.08,59.29c0,1.13,0.18,1.95,0.53,2.48s0.87,0.79,1.57,0.79c1.35,0,2.04-1.04,2.07-3.12v-0.38
	c0-2.18-0.7-3.28-2.09-3.28c-1.27,0-1.96,0.94-2.06,2.83L321.08,59.29z M334.2,53.07l0.12,1.43c0.84-1.1,2-1.66,3.48-1.66
	c1.27,0,2.22,0.38,2.84,1.14c0.63,0.76,0.95,1.9,0.97,3.42v7.85h-3.81v-7.69c0-0.62-0.12-1.07-0.37-1.36s-0.7-0.43-1.35-0.43
	c-0.74,0-1.29,0.29-1.66,0.88v8.6h-3.79V53.07H334.2z M353.88,50.05v3.03h2v2.63h-2v5.57c0,0.46,0.08,0.78,0.25,0.96
	c0.17,0.18,0.49,0.27,0.98,0.27c0.37,0,0.69-0.02,0.95-0.07v2.71c-0.68,0.22-1.4,0.33-2.14,0.33c-1.31,0-2.27-0.31-2.89-0.92
	c-0.62-0.62-0.93-1.55-0.93-2.8v-6.05h-1.55v-2.63h1.55v-3.03H353.88z M363.27,65.48c-1.87,0-3.38-0.56-4.54-1.67
	c-1.16-1.11-1.73-2.57-1.73-4.35v-0.32c0-1.25,0.23-2.35,0.69-3.3c0.46-0.95,1.14-1.69,2.02-2.21c0.89-0.52,1.94-0.78,3.15-0.78
	c1.71,0,3.06,0.53,4.05,1.59c0.99,1.06,1.49,2.54,1.49,4.44v1.48h-7.54c0.14,0.68,0.43,1.22,0.89,1.61s1.05,0.59,1.78,0.59
	c1.2,0,2.14-0.42,2.82-1.26l1.73,2.05c-0.47,0.65-1.14,1.17-2.01,1.56C365.2,65.29,364.27,65.48,363.27,65.48z M362.84,55.78
	c-1.11,0-1.77,0.74-1.98,2.21h3.83v-0.29c0.01-0.61-0.14-1.08-0.46-1.41C363.91,55.94,363.44,55.78,362.84,55.78z M376.79,65.26
	c-0.14-0.25-0.26-0.61-0.36-1.09c-0.7,0.88-1.67,1.32-2.93,1.32c-1.15,0-2.12-0.35-2.93-1.04c-0.8-0.69-1.2-1.57-1.2-2.62
	c0-1.32,0.49-2.32,1.46-3c0.98-0.68,2.4-1.01,4.26-1.01h1.17v-0.65c0-1.12-0.48-1.69-1.45-1.69c-0.9,0-1.35,0.44-1.35,1.34h-3.79
	c0-1.18,0.5-2.13,1.5-2.87c1-0.74,2.28-1.1,3.83-1.1s2.78,0.38,3.68,1.14s1.36,1.8,1.38,3.12v5.39c0.01,1.12,0.19,1.97,0.52,2.57
	v0.19H376.79z M374.42,62.78c0.47,0,0.86-0.1,1.18-0.3c0.31-0.2,0.53-0.43,0.67-0.69v-1.95h-1.1c-1.32,0-1.98,0.59-1.98,1.78
	c0,0.35,0.12,0.62,0.35,0.84C373.76,62.67,374.06,62.78,374.42,62.78z M385.76,53.07l0.12,1.43c0.86-1.1,2.02-1.66,3.48-1.66
	c1.54,0,2.58,0.61,3.12,1.84c0.83-1.22,2.02-1.84,3.58-1.84c2.47,0,3.74,1.49,3.81,4.48v7.93h-3.81v-7.69c0-0.62-0.1-1.08-0.32-1.36
	c-0.21-0.28-0.59-0.43-1.15-0.43c-0.75,0-1.31,0.33-1.68,1l0.01,0.16v8.32h-3.81v-7.67c0-0.64-0.1-1.1-0.3-1.38
	c-0.2-0.28-0.59-0.43-1.16-0.43c-0.73,0-1.28,0.33-1.67,1v8.48h-3.79V53.07H385.76z"/>
</svg>
