<svg id="Layer_1" xmlns="http://www.w3.org/2000/svg" viewBox="0 0 160 600"><style>.st0{fill:url(#SVGID_1_)}.st1{fill:#021d8b}</style><linearGradient id="SVGID_1_" gradientUnits="userSpaceOnUse" x1="40.396" y1="300.52" x2="115.537" y2="300.52"><stop offset="0" stop-color="#18b9fb"/><stop offset=".5" stop-color="#782eeb"/><stop offset="1" stop-color="#e82d8a"/></linearGradient><path class="st0" d="M114.69 301.36H41.24c-.46 0-.84-.38-.84-.84 0-.46.38-.84.84-.84h73.46c.46 0 .84.38.84.84 0 .46-.38.84-.85.84z"/><path class="st1" d="M22.95 239.11c0-.48.16-.88.48-1.18.32-.3.73-.46 1.24-.46.52 0 .94.15 1.25.44.31.29.47.68.48 1.16v.29c0 .48-.16.88-.47 1.17-.31.3-.73.45-1.25.45-.51 0-.93-.15-1.24-.44-.31-.29-.48-.67-.49-1.15v-.28zM36.51 241.66c0-.35-.12-.62-.37-.82s-.68-.4-1.3-.6c-.62-.21-1.13-.41-1.52-.6-1.28-.63-1.92-1.5-1.92-2.6 0-.55.16-1.03.48-1.45.32-.42.77-.75 1.36-.98s1.24-.35 1.97-.35c.71 0 1.35.13 1.91.38.56.25 1 .62 1.32 1.08.31.47.47 1 .47 1.61h-2.38c0-.4-.12-.72-.37-.94s-.58-.33-1-.33c-.43 0-.76.09-1.01.28s-.37.43-.37.72c0 .25.14.48.41.69s.75.42 1.43.64c.68.22 1.25.46 1.69.71 1.07.62 1.6 1.47 1.6 2.55 0 .87-.33 1.55-.98 2.04-.65.49-1.55.74-2.69.74-.8 0-1.53-.14-2.18-.43s-1.14-.68-1.47-1.18c-.33-.5-.49-1.08-.49-1.73h2.39c0 .53.14.92.41 1.17.27.25.72.38 1.34.38.39 0 .71-.08.94-.25.21-.18.33-.42.33-.73zM43.57 244.43c-1.13 0-2.04-.34-2.74-1.01-.7-.67-1.05-1.55-1.05-2.63v-.19c0-.75.14-1.42.42-1.99.28-.58.69-1.02 1.22-1.34.53-.31 1.17-.47 1.9-.47 1.03 0 1.85.32 2.45.96.6.64.9 1.54.9 2.68v.89h-4.56c.08.41.26.74.54.97.28.24.63.35 1.07.35.73 0 1.29-.25 1.7-.76l1.05 1.24c-.29.39-.69.71-1.21.94-.52.24-1.09.36-1.69.36zm-.26-5.86c-.67 0-1.07.44-1.2 1.33h2.31v-.18c.01-.37-.08-.65-.28-.85s-.47-.3-.83-.3zM50.7 242.66c.32 0 .57-.09.75-.26.18-.17.26-.42.26-.73h2.15c0 .81-.29 1.47-.87 1.99-.58.52-1.32.77-2.23.77-1.07 0-1.91-.33-2.53-1.01-.62-.67-.92-1.6-.92-2.79v-.1c0-.74.14-1.4.41-1.97.27-.57.67-1.01 1.19-1.31.52-.31 1.13-.46 1.84-.46.96 0 1.72.27 2.28.8.56.53.84 1.25.84 2.15h-2.15c0-.38-.09-.67-.28-.88a.994.994 0 0 0-.75-.31c-.59 0-.94.38-1.04 1.14-.03.24-.05.57-.05.99 0 .74.09 1.25.27 1.54.17.3.45.44.83.44zM59.21 243.5c-.48.62-1.14.93-1.96.93-.81 0-1.42-.23-1.83-.7-.41-.47-.62-1.14-.62-2.02v-4.77h2.29v4.78c0 .63.31.94.92.94.53 0 .9-.19 1.12-.56v-5.16h2.3v7.36h-2.15l-.07-.8zM67.13 239.01l-.75-.05c-.72 0-1.18.23-1.39.68v4.66H62.7v-7.36h2.15l.07.94c.39-.72.92-1.08 1.61-1.08.25 0 .46.03.64.08l-.04 2.13zM71.51 244.43c-1.13 0-2.04-.34-2.74-1.01-.7-.67-1.05-1.55-1.05-2.63v-.19c0-.75.14-1.42.42-1.99.28-.58.69-1.02 1.22-1.34.53-.31 1.17-.47 1.9-.47 1.03 0 1.85.32 2.45.96.6.64.9 1.54.9 2.68v.89h-4.56c.08.41.26.74.54.97.28.24.63.35 1.07.35.73 0 1.29-.25 1.7-.76l1.05 1.24c-.29.39-.69.71-1.21.94-.52.24-1.09.36-1.69.36zm-.26-5.86c-.67 0-1.07.44-1.2 1.33h2.31v-.18c.01-.37-.08-.65-.28-.85s-.46-.3-.83-.3zM79.11 244.29v-9.9h3.56c1.27 0 2.24.23 2.91.7s1 1.14 1 2.03c0 .51-.12.95-.35 1.31-.24.36-.58.63-1.04.8.52.14.91.39 1.19.76.28.37.42.83.42 1.36 0 .97-.31 1.7-.92 2.19-.61.49-1.52.74-2.73.74h-4.04zm2.38-5.77h1.24c.52 0 .89-.1 1.12-.29.22-.19.33-.46.33-.83 0-.42-.12-.72-.36-.9s-.63-.28-1.16-.28h-1.17v2.3zm0 1.57v2.37h1.56c.43 0 .76-.1.99-.3.23-.2.35-.47.35-.83 0-.82-.41-1.24-1.23-1.24h-1.67zM92.43 239.01l-.76-.05c-.72 0-1.18.23-1.39.68v4.66H88v-7.36h2.15l.07.94c.39-.72.92-1.08 1.61-1.08.25 0 .46.03.64.08l-.04 2.13zM92.72 240.55c0-.73.14-1.39.43-1.96.29-.57.7-1.01 1.23-1.32.53-.31 1.16-.46 1.88-.46 1.1 0 1.97.34 2.6 1.02s.95 1.61.95 2.78v.08c0 1.15-.32 2.06-.96 2.73-.64.67-1.5 1.01-2.59 1.01-1.05 0-1.89-.31-2.52-.94-.63-.63-.98-1.48-1.03-2.55l.01-.39zm2.29.14c0 .68.11 1.18.32 1.5s.53.48.95.48c.82 0 1.23-.63 1.25-1.88v-.23c0-1.32-.42-1.98-1.26-1.98-.77 0-1.18.57-1.24 1.71l-.02.4zM107.18 241.28l.74-4.34h2.2l-1.73 7.36h-1.94l-1.22-4.36-1.22 4.36h-1.94l-1.73-7.36h2.2l.73 4.44 1.17-4.44h1.6l1.14 4.34zM114.79 242.23c0-.19-.1-.35-.31-.47-.2-.12-.59-.24-1.16-.37s-1.04-.29-1.41-.5c-.37-.21-.65-.46-.85-.75s-.29-.63-.29-1.01c0-.68.28-1.23.84-1.67s1.29-.66 2.19-.66c.97 0 1.75.22 2.34.66.59.44.88 1.02.88 1.73h-2.3c0-.59-.31-.88-.93-.88-.24 0-.44.07-.61.2a.62.62 0 0 0-.24.5c0 .2.1.37.3.5s.52.23.96.31c.44.08.82.18 1.15.29 1.11.38 1.66 1.06 1.66 2.05 0 .67-.3 1.22-.89 1.64-.6.42-1.37.63-2.31.63-.63 0-1.19-.11-1.69-.34s-.88-.53-1.16-.92c-.28-.39-.42-.8-.42-1.23h2.14c.01.34.12.59.34.74.22.16.5.23.84.23.31 0 .55-.06.7-.19s.23-.29.23-.49zM121.63 244.43c-1.13 0-2.04-.34-2.74-1.01-.7-.67-1.05-1.55-1.05-2.63v-.19c0-.75.14-1.42.42-1.99.28-.58.69-1.02 1.22-1.34s1.17-.47 1.9-.47c1.04 0 1.85.32 2.45.96.6.64.9 1.54.9 2.68v.89h-4.55c.08.41.26.74.54.97.28.24.63.35 1.07.35.72 0 1.29-.25 1.7-.76l1.05 1.24c-.29.39-.69.71-1.21.94s-1.1.36-1.7.36zm-.26-5.86c-.67 0-1.07.44-1.2 1.33h2.31v-.18c.01-.37-.08-.65-.28-.85s-.47-.3-.83-.3zM130.1 239.01l-.75-.05c-.72 0-1.18.23-1.39.68v4.66h-2.29v-7.36h2.15l.08.94c.38-.72.92-1.08 1.61-1.08.24 0 .46.03.64.08l-.05 2.13zM22.95 260.26c0-.48.16-.88.48-1.18.32-.3.73-.46 1.24-.46.52 0 .94.15 1.25.44.31.29.47.68.48 1.16v.29c0 .49-.16.88-.47 1.17-.31.3-.73.45-1.25.45-.51 0-.93-.15-1.24-.44-.31-.29-.48-.67-.49-1.15v-.28zM36.51 262.81c0-.35-.12-.62-.37-.82-.25-.19-.68-.4-1.3-.6-.62-.21-1.13-.41-1.52-.61-1.28-.63-1.92-1.5-1.92-2.6 0-.55.16-1.03.48-1.45.32-.42.77-.75 1.36-.98s1.24-.35 1.97-.35c.71 0 1.35.13 1.91.38.56.25 1 .62 1.32 1.08.31.47.47 1 .47 1.61h-2.38c0-.4-.12-.72-.37-.94-.25-.22-.58-.33-1-.33-.43 0-.76.09-1.01.28-.25.19-.37.43-.37.72 0 .25.14.48.41.69.27.21.75.42 1.43.64s1.25.46 1.69.71c1.07.62 1.6 1.47 1.6 2.55 0 .87-.33 1.55-.98 2.04-.65.49-1.55.74-2.69.74-.8 0-1.53-.14-2.18-.43s-1.14-.68-1.47-1.18c-.33-.5-.49-1.08-.49-1.73h2.39c0 .53.14.92.41 1.17.27.25.72.38 1.34.38.39 0 .71-.08.94-.25.21-.17.33-.41.33-.72zM43.57 265.58c-1.13 0-2.04-.34-2.74-1.01-.7-.67-1.05-1.55-1.05-2.63v-.19c0-.75.14-1.42.42-1.99.28-.58.69-1.02 1.22-1.34.53-.31 1.17-.47 1.9-.47 1.03 0 1.85.32 2.45.96.6.64.9 1.54.9 2.68v.89h-4.56c.08.41.26.74.54.97.28.24.63.35 1.07.35.73 0 1.29-.25 1.7-.76l1.05 1.24c-.29.39-.69.71-1.21.94-.52.24-1.09.36-1.69.36zm-.26-5.86c-.67 0-1.07.44-1.2 1.33h2.31v-.18c.01-.37-.08-.65-.28-.85-.19-.2-.47-.3-.83-.3zM50.7 263.81c.32 0 .57-.09.75-.26.18-.17.26-.42.26-.73h2.15c0 .81-.29 1.47-.87 1.99-.58.52-1.32.77-2.23.77-1.07 0-1.91-.33-2.53-1.01-.62-.67-.92-1.6-.92-2.79v-.1c0-.74.14-1.4.41-1.97.27-.57.67-1.01 1.19-1.31s1.13-.46 1.84-.46c.96 0 1.72.27 2.28.8.56.53.84 1.25.84 2.16h-2.15c0-.38-.09-.67-.28-.88a.994.994 0 0 0-.75-.31c-.59 0-.94.38-1.04 1.14-.03.24-.05.57-.05.99 0 .74.09 1.25.27 1.54.17.29.45.43.83.43zM59.21 264.65c-.48.62-1.14.93-1.96.93-.81 0-1.42-.23-1.83-.7-.41-.47-.62-1.14-.62-2.02v-4.77h2.29v4.78c0 .63.31.94.92.94.53 0 .9-.19 1.12-.56v-5.16h2.3v7.36h-2.15l-.07-.8zM67.13 260.16l-.75-.05c-.72 0-1.18.23-1.39.68v4.66H62.7v-7.36h2.15l.07.95c.39-.72.92-1.08 1.61-1.08.25 0 .46.03.64.08l-.04 2.12zM71.51 265.58c-1.13 0-2.04-.34-2.74-1.01-.7-.67-1.05-1.55-1.05-2.63v-.19c0-.75.14-1.42.42-1.99.28-.58.69-1.02 1.22-1.34.53-.31 1.17-.47 1.9-.47 1.03 0 1.85.32 2.45.96.6.64.9 1.54.9 2.68v.89h-4.56c.08.41.26.74.54.97.28.24.63.35 1.07.35.73 0 1.29-.25 1.7-.76l1.05 1.24c-.29.39-.69.71-1.21.94-.52.24-1.09.36-1.69.36zm-.26-5.86c-.67 0-1.07.44-1.2 1.33h2.31v-.18c.01-.37-.08-.65-.28-.85-.18-.2-.46-.3-.83-.3zM82.47 261.76l-.98 1.07v2.61H79.1v-9.9h2.39v4.36l.83-1.26 2.13-3.11h2.95l-3.34 4.38 3.34 5.52h-2.83l-2.1-3.67zM91.47 265.58c-1.13 0-2.04-.34-2.74-1.01-.7-.67-1.05-1.55-1.05-2.63v-.19c0-.75.14-1.42.42-1.99.28-.58.68-1.02 1.22-1.34.53-.31 1.17-.47 1.9-.47 1.03 0 1.85.32 2.45.96.6.64.9 1.54.9 2.68v.89h-4.56c.08.41.26.74.54.97.28.24.63.35 1.07.35.73 0 1.29-.25 1.7-.76l1.05 1.24c-.29.39-.69.71-1.21.94-.53.24-1.09.36-1.69.36zm-.26-5.86c-.67 0-1.07.44-1.2 1.33h2.31v-.18c.01-.37-.08-.65-.28-.85-.19-.2-.47-.3-.83-.3zM98.43 262.24l1.22-4.15h2.45l-3 8.59-.13.31c-.43.95-1.18 1.43-2.26 1.43-.3 0-.61-.04-.95-.13v-1.63h.3c.32 0 .57-.05.74-.14.17-.09.3-.26.38-.5l.18-.49-2.56-7.43h2.45l1.18 4.14zM109.53 261.83c0 1.21-.25 2.13-.75 2.78-.5.65-1.2.97-2.11.97-.75 0-1.35-.3-1.81-.89l-.1.75h-2.05V255H105v3.68c.43-.48.98-.73 1.65-.73.92 0 1.62.33 2.12.99s.75 1.58.75 2.77v.12zm-2.3-.15c0-.71-.09-1.21-.28-1.51-.19-.3-.48-.45-.87-.45-.52 0-.88.2-1.07.59v2.92c.2.39.56.58 1.09.58.54 0 .88-.26 1.03-.79.07-.25.1-.7.1-1.34zM110.25 261.7c0-.73.14-1.39.43-1.96.29-.57.7-1.01 1.23-1.32.54-.31 1.16-.46 1.88-.46 1.1 0 1.97.34 2.6 1.02.63.68.95 1.61.95 2.78v.08c0 1.15-.32 2.06-.96 2.73-.64.67-1.5 1.01-2.59 1.01-1.05 0-1.89-.31-2.52-.94s-.98-1.48-1.03-2.55l.01-.39zm2.29.14c0 .68.11 1.18.32 1.5.21.32.53.48.94.48.82 0 1.23-.63 1.25-1.88v-.23c0-1.32-.42-1.98-1.26-1.98-.77 0-1.18.57-1.24 1.71l-.01.4zM122.5 265.45c-.08-.15-.15-.37-.22-.66-.42.53-1.01.79-1.77.79-.69 0-1.28-.21-1.77-.63-.48-.42-.73-.95-.73-1.58 0-.8.29-1.4.88-1.81.59-.41 1.45-.61 2.57-.61h.71v-.39c0-.68-.29-1.02-.88-1.02-.54 0-.82.27-.82.81h-2.29c0-.71.3-1.29.91-1.73.6-.44 1.38-.67 2.31-.67s1.68.23 2.22.69c.54.46.82 1.09.84 1.88v3.26c.01.68.11 1.19.31 1.55v.12h-2.27zm-1.43-1.5c.29 0 .52-.06.71-.18.19-.12.32-.26.4-.41v-1.18h-.67c-.8 0-1.2.36-1.2 1.07 0 .21.07.38.21.51s.33.19.55.19zM130.2 260.16l-.75-.05c-.72 0-1.18.23-1.39.68v4.66h-2.29v-7.36h2.15l.08.95c.38-.72.92-1.08 1.61-1.08.24 0 .46.03.64.08l-.05 2.12zM130.73 261.71c0-1.17.25-2.08.75-2.75.5-.67 1.21-1.01 2.11-1.01.66 0 1.21.26 1.66.78V255h2.3v10.44h-2.06l-.12-.79c-.47.62-1.07.92-1.79.92-.88 0-1.57-.33-2.08-1.01s-.77-1.61-.77-2.85zm2.3.15c0 1.31.38 1.96 1.14 1.96.51 0 .87-.21 1.09-.64v-2.8c-.21-.44-.57-.65-1.07-.65-.71 0-1.09.57-1.15 1.71l-.01.42z"/></svg>