<?xml version="1.0" encoding="utf-8"?>
<!-- Generator: Adobe Illustrator 26.0.3, SVG Export Plug-In . SVG Version: 6.00 Build 0)  -->
<svg version="1.1" id="Layer_1" xmlns="http://www.w3.org/2000/svg" xmlns:xlink="http://www.w3.org/1999/xlink" x="0px" y="0px"
	 viewBox="0 0 728 90" style="enable-background:new 0 0 728 90;" xml:space="preserve">
<style type="text/css">
	.st0{fill:#EDF4FD;}
	
		.st1{fill:none;stroke:url(#underline_00000132047493963445019240000005966892372133370018_);stroke-width:3;stroke-linecap:round;stroke-miterlimit:10;}
</style>
<g>
	<path class="st0" d="M270.7,29.5h-6.2v4.2h7.3v2.6h-10.5V20.7h10.5v2.6h-7.2V27h6.2V29.5z"/>
	<path class="st0" d="M276.3,24.7l0.1,1.3c0.8-1,1.9-1.6,3.3-1.6c1.2,0,2.1,0.4,2.8,1.1s0.9,1.8,0.9,3.2v7.5h-3.1v-7.4
		c0-0.7-0.1-1.1-0.4-1.4c-0.3-0.3-0.8-0.4-1.4-0.4c-0.9,0-1.5,0.4-2,1.1v8.2h-3.1V24.7H276.3z"/>
	<path class="st0" d="M292.3,27.6c-0.4-0.1-0.8-0.1-1.1-0.1c-1.2,0-1.9,0.4-2.3,1.2v7.6h-3.1V24.7h2.9l0.1,1.4
		c0.6-1.1,1.5-1.6,2.6-1.6c0.3,0,0.7,0,1,0.1L292.3,27.6z"/>
	<path class="st0" d="M292.9,30.4c0-1.2,0.2-2.2,0.7-3.1c0.4-0.9,1.1-1.6,1.9-2.1c0.8-0.5,1.8-0.7,2.9-0.7c1.6,0,2.8,0.5,3.8,1.4
		c1,1,1.5,2.3,1.7,3.9l0,0.8c0,1.8-0.5,3.2-1.5,4.3c-1,1.1-2.3,1.6-4,1.6s-3-0.5-4-1.6s-1.5-2.5-1.5-4.4V30.4z M296,30.6
		c0,1.1,0.2,1.9,0.6,2.5c0.4,0.6,1,0.9,1.8,0.9c0.8,0,1.3-0.3,1.8-0.9c0.4-0.6,0.6-1.5,0.6-2.8c0-1.1-0.2-1.9-0.6-2.5
		c-0.4-0.6-1-0.9-1.8-0.9c-0.8,0-1.3,0.3-1.8,0.9C296.2,28.5,296,29.4,296,30.6z"/>
	<path class="st0" d="M309.1,36.3H306V19.8h3.1V36.3z"/>
	<path class="st0" d="M314.9,36.3h-3.1V19.8h3.1V36.3z"/>
	<path class="st0" d="M326.7,21.8v2.9h2V27h-2v5.8c0,0.4,0.1,0.7,0.2,0.9s0.5,0.3,0.9,0.3c0.3,0,0.6,0,0.9-0.1v2.4
		c-0.6,0.2-1.2,0.3-1.9,0.3c-2.2,0-3.3-1.1-3.3-3.3V27h-1.7v-2.3h1.7v-2.9H326.7z"/>
	<path class="st0" d="M329.6,30.4c0-1.2,0.2-2.2,0.7-3.1s1.1-1.6,1.9-2.1c0.8-0.5,1.8-0.7,2.9-0.7c1.6,0,2.8,0.5,3.8,1.4
		c1,1,1.5,2.3,1.7,3.9l0,0.8c0,1.8-0.5,3.2-1.5,4.3c-1,1.1-2.3,1.6-4,1.6s-3-0.5-4-1.6c-1-1.1-1.5-2.5-1.5-4.4V30.4z M332.7,30.6
		c0,1.1,0.2,1.9,0.6,2.5c0.4,0.6,1,0.9,1.8,0.9c0.8,0,1.3-0.3,1.8-0.9s0.6-1.5,0.6-2.8c0-1.1-0.2-1.9-0.6-2.5
		c-0.4-0.6-1-0.9-1.8-0.9c-0.8,0-1.3,0.3-1.8,0.9S332.7,29.4,332.7,30.6z"/>
	<path class="st0" d="M342,30.4c0-1.8,0.4-3.3,1.2-4.3c0.8-1.1,1.9-1.6,3.3-1.6c1.1,0,2.1,0.4,2.8,1.3v-5.9h3.1v16.5h-2.8l-0.2-1.2
		c-0.8,1-1.8,1.5-3,1.5c-1.4,0-2.5-0.5-3.3-1.6C342.5,33.8,342,32.3,342,30.4z M345.1,30.7c0,1.1,0.2,1.9,0.6,2.5s0.9,0.9,1.7,0.9
		c1,0,1.6-0.4,2-1.2v-4.6c-0.4-0.8-1.1-1.2-2-1.2C345.9,27,345.1,28.2,345.1,30.7z"/>
	<path class="st0" d="M361.7,36.3c-0.1-0.3-0.2-0.6-0.3-1c-0.8,0.8-1.7,1.3-2.9,1.3c-1.1,0-2.1-0.3-2.8-1c-0.7-0.7-1.1-1.5-1.1-2.5
		c0-1.2,0.5-2.2,1.4-2.8c0.9-0.7,2.2-1,4-1h1.4v-0.7c0-0.5-0.1-1-0.4-1.3c-0.3-0.3-0.7-0.5-1.3-0.5c-0.5,0-0.9,0.1-1.2,0.4
		c-0.3,0.3-0.4,0.6-0.4,1h-3.1c0-0.7,0.2-1.3,0.6-1.9s1-1,1.8-1.3c0.8-0.3,1.6-0.5,2.6-0.5c1.4,0,2.6,0.4,3.4,1.1
		c0.8,0.7,1.3,1.7,1.3,3v5c0,1.1,0.2,1.9,0.5,2.5v0.2H361.7z M359.1,34.2c0.5,0,0.9-0.1,1.3-0.3c0.4-0.2,0.7-0.5,0.9-0.8v-2h-1.2
		c-1.6,0-2.4,0.5-2.5,1.6l0,0.2c0,0.4,0.1,0.7,0.4,1S358.6,34.2,359.1,34.2z"/>
	<path class="st0" d="M371.1,31.9l2.1-7.2h3.3l-4.7,13.4l-0.3,0.6c-0.7,1.5-1.8,2.3-3.4,2.3c-0.5,0-0.9-0.1-1.4-0.2v-2.4l0.5,0
		c0.6,0,1-0.1,1.3-0.3c0.3-0.2,0.5-0.5,0.7-0.9l0.4-1l-4.1-11.7h3.3L371.1,31.9z"/>
	<path class="st0" d="M382.8,30.4c0-1.2,0.2-2.2,0.7-3.1s1.1-1.6,1.9-2.1c0.8-0.5,1.8-0.7,2.9-0.7c1.6,0,2.8,0.5,3.8,1.4
		c1,1,1.5,2.3,1.7,3.9l0,0.8c0,1.8-0.5,3.2-1.5,4.3c-1,1.1-2.3,1.6-4,1.6s-3-0.5-4-1.6c-1-1.1-1.5-2.5-1.5-4.4V30.4z M385.9,30.6
		c0,1.1,0.2,1.9,0.6,2.5c0.4,0.6,1,0.9,1.8,0.9c0.8,0,1.3-0.3,1.8-0.9s0.6-1.5,0.6-2.8c0-1.1-0.2-1.9-0.6-2.5
		c-0.4-0.6-1-0.9-1.8-0.9c-0.8,0-1.3,0.3-1.8,0.9S385.9,29.4,385.9,30.6z"/>
	<path class="st0" d="M398.5,24.7l0.1,1.3c0.8-1,1.9-1.6,3.3-1.6c1.2,0,2.1,0.4,2.8,1.1s0.9,1.8,0.9,3.2v7.5h-3.1v-7.4
		c0-0.7-0.1-1.1-0.4-1.4c-0.3-0.3-0.8-0.4-1.4-0.4c-0.9,0-1.5,0.4-2,1.1v8.2h-3.1V24.7H398.5z"/>
	<path class="st0" d="M273,47.3h-4.8v13H265v-13h-4.7v-2.6H273V47.3z"/>
	<path class="st0" d="M277.7,50c0.8-1,1.9-1.5,3.1-1.5c2.5,0,3.8,1.5,3.8,4.4v7.4h-3.1V53c0-0.7-0.1-1.2-0.4-1.5
		c-0.3-0.3-0.8-0.5-1.4-0.5c-0.9,0-1.6,0.4-2,1.1v8.3h-3.1V43.8h3.1V50z"/>
	<path class="st0" d="M292.3,60.5c-1.7,0-3.1-0.5-4.2-1.6c-1.1-1-1.6-2.4-1.6-4.2v-0.3c0-1.2,0.2-2.2,0.7-3.1
		c0.5-0.9,1.1-1.6,1.9-2.1c0.8-0.5,1.8-0.7,2.8-0.7c1.6,0,2.8,0.5,3.8,1.5s1.4,2.4,1.4,4.3v1.3h-7.4c0.1,0.8,0.4,1.4,0.9,1.8
		s1.1,0.7,1.9,0.7c1.2,0,2.1-0.4,2.8-1.3l1.5,1.7c-0.5,0.7-1.1,1.2-1.9,1.5C294.2,60.4,293.3,60.5,292.3,60.5z M292,51
		c-0.6,0-1.1,0.2-1.5,0.6c-0.4,0.4-0.6,1-0.7,1.8h4.3v-0.2c0-0.7-0.2-1.2-0.6-1.6C293.1,51.2,292.6,51,292,51z"/>
	<path class="st0" d="M307.8,54.8v5.5h-3.2V44.7h6.1c1.2,0,2.2,0.2,3.1,0.6s1.6,1,2.1,1.8c0.5,0.8,0.7,1.7,0.7,2.7
		c0,1.5-0.5,2.7-1.6,3.6c-1,0.9-2.5,1.3-4.4,1.3H307.8z M307.8,52.2h2.9c0.9,0,1.5-0.2,1.9-0.6c0.4-0.4,0.7-1,0.7-1.7
		c0-0.8-0.2-1.4-0.7-1.9s-1.1-0.7-1.9-0.7h-3V52.2z"/>
	<path class="st0" d="M325.1,51.6c-0.4-0.1-0.8-0.1-1.1-0.1c-1.2,0-1.9,0.4-2.3,1.2v7.6h-3.1V48.7h2.9l0.1,1.4
		c0.6-1.1,1.5-1.6,2.6-1.6c0.3,0,0.7,0,1,0.1L325.1,51.6z"/>
	<path class="st0" d="M326.5,45.7c0-0.5,0.2-0.8,0.5-1.1c0.3-0.3,0.7-0.5,1.3-0.5c0.5,0,1,0.2,1.3,0.5s0.5,0.7,0.5,1.1
		c0,0.5-0.2,0.9-0.5,1.2c-0.3,0.3-0.7,0.5-1.3,0.5s-0.9-0.2-1.3-0.5C326.7,46.6,326.5,46.2,326.5,45.7z M329.8,60.3h-3.1V48.7h3.1
		V60.3z"/>
	<path class="st0" d="M336.7,56.5l2.2-7.8h3.2l-3.9,11.6h-3l-3.9-11.6h3.2L336.7,56.5z"/>
	<path class="st0" d="M350.1,60.3c-0.1-0.3-0.2-0.6-0.3-1c-0.8,0.8-1.7,1.3-2.9,1.3c-1.1,0-2.1-0.3-2.8-1c-0.7-0.7-1.1-1.5-1.1-2.5
		c0-1.2,0.5-2.2,1.4-2.8c0.9-0.7,2.2-1,4-1h1.4v-0.7c0-0.5-0.1-1-0.4-1.3c-0.3-0.3-0.7-0.5-1.3-0.5c-0.5,0-0.9,0.1-1.2,0.4
		c-0.3,0.3-0.4,0.6-0.4,1h-3.1c0-0.7,0.2-1.3,0.6-1.9s1-1,1.8-1.3c0.8-0.3,1.6-0.5,2.6-0.5c1.4,0,2.6,0.4,3.4,1.1
		c0.8,0.7,1.3,1.7,1.3,3v5c0,1.1,0.2,1.9,0.5,2.5v0.2H350.1z M347.5,58.2c0.5,0,0.9-0.1,1.3-0.3c0.4-0.2,0.7-0.5,0.9-0.8v-2h-1.2
		c-1.6,0-2.4,0.5-2.5,1.6l0,0.2c0,0.4,0.1,0.7,0.4,1S347.1,58.2,347.5,58.2z"/>
	<path class="st0" d="M360,58c0.6,0,1-0.2,1.4-0.5s0.5-0.7,0.6-1.3h2.9c0,0.8-0.2,1.5-0.6,2.2c-0.4,0.7-1,1.2-1.7,1.5
		c-0.7,0.4-1.5,0.5-2.4,0.5c-1.7,0-3-0.5-3.9-1.6c-1-1.1-1.4-2.5-1.4-4.4v-0.2c0-1.8,0.5-3.2,1.4-4.3s2.3-1.6,3.9-1.6
		c1.5,0,2.6,0.4,3.5,1.2c0.9,0.8,1.3,1.9,1.3,3.3h-2.9c0-0.6-0.2-1.1-0.6-1.5S360.6,51,360,51c-0.7,0-1.3,0.3-1.6,0.8
		c-0.4,0.5-0.6,1.4-0.6,2.6v0.3c0,1.2,0.2,2.1,0.5,2.6S359.2,58,360,58z"/>
	<path class="st0" d="M371,55.9l2.1-7.2h3.3l-4.7,13.4l-0.3,0.6c-0.7,1.5-1.8,2.3-3.4,2.3c-0.5,0-0.9-0.1-1.4-0.2v-2.4l0.5,0
		c0.6,0,1-0.1,1.3-0.3c0.3-0.2,0.5-0.5,0.7-0.9l0.4-1l-4.1-11.7h3.3L371,55.9z"/>
	<path class="st0" d="M390.2,58.3c-0.6,0.7-1.4,1.2-2.5,1.6c-1.1,0.4-2.2,0.6-3.5,0.6c-1.4,0-2.5-0.3-3.6-0.9
		c-1-0.6-1.8-1.4-2.4-2.6c-0.6-1.1-0.8-2.4-0.9-4v-1.1c0-1.6,0.3-2.9,0.8-4.1c0.5-1.1,1.3-2,2.3-2.6c1-0.6,2.2-0.9,3.5-0.9
		c1.9,0,3.3,0.4,4.4,1.3c1,0.9,1.7,2.2,1.9,3.9h-3.1c-0.1-0.9-0.5-1.6-1-2c-0.5-0.4-1.2-0.6-2-0.6c-1.1,0-1.9,0.4-2.5,1.2
		s-0.9,2-0.9,3.7v1c0,1.6,0.3,2.9,0.9,3.7s1.5,1.3,2.7,1.3c1.2,0,2.1-0.3,2.6-0.8v-2.7h-2.9v-2.4h6.2V58.3z"/>
	<path class="st0" d="M399.6,59.1c-0.8,0.9-1.8,1.4-3.2,1.4c-1.2,0-2.2-0.4-2.9-1.1c-0.7-0.7-1-1.8-1-3.1v-7.6h3.1v7.5
		c0,1.2,0.6,1.8,1.7,1.8c1.1,0,1.8-0.4,2.2-1.1v-8.2h3.1v11.6h-2.9L399.6,59.1z"/>
	<path class="st0" d="M411.7,60.3c-0.1-0.3-0.2-0.6-0.3-1c-0.8,0.8-1.7,1.3-2.9,1.3c-1.1,0-2.1-0.3-2.8-1c-0.7-0.7-1.1-1.5-1.1-2.5
		c0-1.2,0.5-2.2,1.4-2.8c0.9-0.7,2.2-1,4-1h1.4v-0.7c0-0.5-0.1-1-0.4-1.3c-0.3-0.3-0.7-0.5-1.3-0.5c-0.5,0-0.9,0.1-1.2,0.4
		c-0.3,0.3-0.4,0.6-0.4,1h-3.1c0-0.7,0.2-1.3,0.6-1.9s1-1,1.8-1.3c0.8-0.3,1.6-0.5,2.6-0.5c1.4,0,2.6,0.4,3.4,1.1
		c0.8,0.7,1.3,1.7,1.3,3v5c0,1.1,0.2,1.9,0.5,2.5v0.2H411.7z M409.1,58.2c0.5,0,0.9-0.1,1.3-0.3c0.4-0.2,0.7-0.5,0.9-0.8v-2h-1.2
		c-1.6,0-2.4,0.5-2.5,1.6l0,0.2c0,0.4,0.1,0.7,0.4,1S408.7,58.2,409.1,58.2z"/>
	<path class="st0" d="M423.3,51.6c-0.4-0.1-0.8-0.1-1.1-0.1c-1.2,0-1.9,0.4-2.3,1.2v7.6h-3.1V48.7h2.9l0.1,1.4
		c0.6-1.1,1.5-1.6,2.6-1.6c0.3,0,0.7,0,1,0.1L423.3,51.6z"/>
	<path class="st0" d="M424.3,54.4c0-1.8,0.4-3.3,1.2-4.3c0.8-1.1,1.9-1.6,3.3-1.6c1.1,0,2.1,0.4,2.8,1.3v-5.9h3.1v16.5H432l-0.2-1.2
		c-0.8,1-1.8,1.5-3,1.5c-1.4,0-2.5-0.5-3.3-1.6C424.7,57.8,424.3,56.3,424.3,54.4z M427.4,54.7c0,1.1,0.2,1.9,0.6,2.5
		s0.9,0.9,1.7,0.9c1,0,1.6-0.4,2-1.2v-4.6c-0.4-0.8-1.1-1.2-2-1.2C428.2,51,427.4,52.2,427.4,54.7z"/>
	<path class="st0" d="M451.7,57.1H446l-1.1,3.2h-3.4l5.8-15.6h3l5.9,15.6h-3.4L451.7,57.1z M446.9,54.5h3.9l-2-5.9L446.9,54.5z"/>
	<path class="st0" d="M467.9,54.6c0,1.8-0.4,3.2-1.2,4.3c-0.8,1.1-1.9,1.6-3.3,1.6c-1.2,0-2.1-0.4-2.8-1.2v5.5h-3.1V48.7h2.9
		l0.1,1.1c0.8-0.9,1.7-1.4,2.9-1.4c1.4,0,2.5,0.5,3.3,1.6s1.2,2.5,1.2,4.4V54.6z M464.8,54.4c0-1.1-0.2-1.9-0.6-2.5
		c-0.4-0.6-0.9-0.9-1.7-0.9c-1,0-1.6,0.4-2,1.1v4.8c0.4,0.8,1.1,1.1,2,1.1C464.1,58,464.8,56.8,464.8,54.4z"/>
	<path class="st0" d="M480.3,54.6c0,1.8-0.4,3.2-1.2,4.3c-0.8,1.1-1.9,1.6-3.3,1.6c-1.2,0-2.1-0.4-2.8-1.2v5.5h-3.1V48.7h2.9
		l0.1,1.1c0.8-0.9,1.7-1.4,2.9-1.4c1.4,0,2.5,0.5,3.3,1.6s1.2,2.5,1.2,4.4V54.6z M477.2,54.4c0-1.1-0.2-1.9-0.6-2.5
		c-0.4-0.6-0.9-0.9-1.7-0.9c-1,0-1.6,0.4-2,1.1v4.8c0.4,0.8,1.1,1.1,2,1.1C476.5,58,477.2,56.8,477.2,54.4z"/>
	<path class="st0" d="M482.4,58.8c0-0.5,0.2-0.9,0.5-1.2c0.3-0.3,0.8-0.5,1.3-0.5c0.5,0,0.9,0.2,1.3,0.5c0.3,0.3,0.5,0.7,0.5,1.2
		c0,0.5-0.2,0.9-0.5,1.2c-0.3,0.3-0.8,0.5-1.3,0.5c-0.5,0-0.9-0.2-1.3-0.5C482.6,59.7,482.4,59.3,482.4,58.8z"/>
</g>
<linearGradient id="underline_00000119829886568565796050000000635405287894897560_" gradientUnits="userSpaceOnUse" x1="254.7978" y1="72.97" x2="490.4436" y2="72.97">
	<stop  offset="0" style="stop-color:#18B9FB"/>
	<stop  offset="0.5" style="stop-color:#782EEB"/>
	<stop  offset="1" style="stop-color:#E82D8A"/>
</linearGradient>
<line id="underline_5_" style="fill:none;stroke:url(#underline_00000119829886568565796050000000635405287894897560_);stroke-width:3;stroke-linecap:round;stroke-miterlimit:10;" x1="256.3" y1="73" x2="488.9" y2="73"/>
</svg>
