<?xml version="1.0" encoding="utf-8"?>
<!-- Generator: Adobe Illustrator 26.0.3, SVG Export Plug-In . SVG Version: 6.00 Build 0)  -->
<svg version="1.1" id="Layer_1" xmlns="http://www.w3.org/2000/svg" xmlns:xlink="http://www.w3.org/1999/xlink" x="0px" y="0px"
	 viewBox="0 0 728 90" style="enable-background:new 0 0 728 90;" xml:space="preserve">
<style type="text/css">
	.st0{fill:#E82D8A;stroke:#FFFFFF;stroke-width:0.75;stroke-miterlimit:10;}
	.st1{fill:#FFFFFF;}
</style>
<path class="st0" d="M665.9,39.4H559c-6.4,0-11.6-5.2-11.6-11.6v0c0-6.4,5.2-11.6,11.6-11.6h106.9c6.4,0,11.6,5.2,11.6,11.6v0
	C677.6,34.2,672.3,39.4,665.9,39.4z"/>
<g>
	<path class="st1" d="M566.5,29.5c-0.1,1-0.4,1.7-1.1,2.3c-0.6,0.5-1.5,0.8-2.5,0.8c-1.1,0-2-0.4-2.7-1.2c-0.7-0.8-1-1.8-1-3.2v-0.5
		c0-0.9,0.2-1.6,0.5-2.3s0.7-1.2,1.3-1.5c0.6-0.3,1.2-0.5,1.9-0.5c1,0,1.9,0.3,2.5,0.8c0.6,0.5,1,1.3,1.1,2.3h-1.8
		c0-0.6-0.2-1-0.5-1.2c-0.3-0.3-0.7-0.4-1.3-0.4c-0.6,0-1.1,0.2-1.4,0.7c-0.3,0.4-0.5,1.1-0.5,2v0.7c0,1,0.1,1.7,0.4,2.1
		s0.7,0.7,1.4,0.7c0.6,0,1-0.1,1.3-0.4c0.3-0.3,0.4-0.7,0.5-1.2H566.5z"/>
	<path class="st1" d="M569.5,32.4h-1.8v-9.4h1.8V32.4z"/>
	<path class="st1" d="M570.9,24.1c0-0.3,0.1-0.5,0.3-0.7s0.4-0.3,0.7-0.3c0.3,0,0.5,0.1,0.7,0.3c0.2,0.2,0.3,0.4,0.3,0.7
		c0,0.3-0.1,0.5-0.3,0.7c-0.2,0.2-0.4,0.3-0.7,0.3s-0.5-0.1-0.7-0.3S570.9,24.4,570.9,24.1z M572.8,32.4H571v-6.6h1.8V32.4z"/>
	<path class="st1" d="M577,31.1c0.3,0,0.6-0.1,0.8-0.3c0.2-0.2,0.3-0.4,0.3-0.7h1.7c0,0.4-0.1,0.9-0.4,1.2c-0.2,0.4-0.6,0.7-1,0.9
		c-0.4,0.2-0.9,0.3-1.4,0.3c-0.9,0-1.7-0.3-2.2-0.9c-0.5-0.6-0.8-1.4-0.8-2.5v-0.1c0-1,0.3-1.8,0.8-2.4c0.5-0.6,1.3-0.9,2.2-0.9
		c0.8,0,1.5,0.2,2,0.7s0.8,1.1,0.8,1.9h-1.7c0-0.3-0.1-0.6-0.3-0.8c-0.2-0.2-0.5-0.3-0.8-0.3c-0.4,0-0.7,0.1-0.9,0.4
		c-0.2,0.3-0.3,0.8-0.3,1.5v0.2c0,0.7,0.1,1.2,0.3,1.5C576.2,31,576.5,31.1,577,31.1z"/>
	<path class="st1" d="M583.1,29.8l-0.6,0.6v2h-1.8v-9.4h1.8v5.2l0.3-0.4l1.7-2h2.1l-2.4,2.8l2.6,3.8h-2L583.1,29.8z"/>
	<path class="st1" d="M592.6,24.2v1.6h1.1v1.3h-1.1v3.3c0,0.2,0,0.4,0.1,0.5c0.1,0.1,0.3,0.2,0.5,0.2c0.2,0,0.4,0,0.5,0v1.3
		c-0.3,0.1-0.7,0.2-1.1,0.2c-1.2,0-1.9-0.6-1.9-1.9v-3.6h-1v-1.3h1v-1.6H592.6z"/>
	<path class="st1" d="M594.3,29.1c0-0.7,0.1-1.2,0.4-1.8s0.6-0.9,1.1-1.2c0.5-0.3,1-0.4,1.7-0.4c0.9,0,1.6,0.3,2.2,0.8
		s0.9,1.3,0.9,2.2l0,0.5c0,1-0.3,1.8-0.8,2.4s-1.3,0.9-2.3,0.9c-1,0-1.7-0.3-2.3-0.9S594.3,30.2,594.3,29.1L594.3,29.1z M596.1,29.2
		c0,0.6,0.1,1.1,0.4,1.4c0.2,0.3,0.6,0.5,1,0.5c0.4,0,0.8-0.2,1-0.5c0.2-0.3,0.4-0.9,0.4-1.6c0-0.6-0.1-1.1-0.4-1.4
		c-0.2-0.3-0.6-0.5-1-0.5c-0.4,0-0.8,0.2-1,0.5C596.2,28,596.1,28.5,596.1,29.2z"/>
	<path class="st1" d="M606.6,32.4h-1.8v-9.4h1.8V32.4z"/>
	<path class="st1" d="M611.1,32.6c-1,0-1.8-0.3-2.4-0.9c-0.6-0.6-0.9-1.4-0.9-2.4v-0.2c0-0.7,0.1-1.3,0.4-1.8
		c0.3-0.5,0.6-0.9,1.1-1.2c0.5-0.3,1-0.4,1.6-0.4c0.9,0,1.6,0.3,2.1,0.9s0.8,1.4,0.8,2.4v0.7h-4.2c0.1,0.4,0.2,0.8,0.5,1
		c0.3,0.3,0.6,0.4,1.1,0.4c0.7,0,1.2-0.2,1.6-0.7l0.9,1c-0.3,0.4-0.6,0.7-1.1,0.9C612.1,32.5,611.6,32.6,611.1,32.6z M610.9,27.1
		c-0.3,0-0.6,0.1-0.9,0.4c-0.2,0.2-0.4,0.6-0.4,1h2.5v-0.1c0-0.4-0.1-0.7-0.3-0.9C611.6,27.2,611.3,27.1,610.9,27.1z"/>
	<path class="st1" d="M618.6,32.4c-0.1-0.2-0.1-0.4-0.2-0.6c-0.4,0.5-1,0.7-1.7,0.7c-0.6,0-1.2-0.2-1.6-0.6
		c-0.4-0.4-0.6-0.8-0.6-1.4c0-0.7,0.3-1.2,0.8-1.6c0.5-0.4,1.3-0.6,2.2-0.6h0.8V28c0-0.3-0.1-0.5-0.2-0.7c-0.2-0.2-0.4-0.3-0.7-0.3
		c-0.3,0-0.5,0.1-0.7,0.2s-0.3,0.3-0.3,0.6h-1.8c0-0.4,0.1-0.7,0.4-1.1c0.2-0.3,0.6-0.6,1-0.8c0.4-0.2,0.9-0.3,1.5-0.3
		c0.8,0,1.5,0.2,1.9,0.6c0.5,0.4,0.7,1,0.7,1.7v2.9c0,0.6,0.1,1.1,0.3,1.4v0.1H618.6z M617.2,31.2c0.3,0,0.5-0.1,0.7-0.2
		c0.2-0.1,0.4-0.3,0.5-0.5v-1.1h-0.7c-0.9,0-1.4,0.3-1.4,0.9l0,0.1c0,0.2,0.1,0.4,0.2,0.5C616.7,31.1,616.9,31.2,617.2,31.2z"/>
	<path class="st1" d="M625.2,27.5c-0.2,0-0.5,0-0.6,0c-0.7,0-1.1,0.2-1.3,0.7v4.3h-1.8v-6.6h1.7l0,0.8c0.4-0.6,0.8-0.9,1.5-0.9
		c0.2,0,0.4,0,0.5,0.1L625.2,27.5z"/>
	<path class="st1" d="M627.7,25.8l0.1,0.8c0.5-0.6,1.1-0.9,1.9-0.9c0.7,0,1.2,0.2,1.6,0.6c0.3,0.4,0.5,1,0.5,1.8v4.3H630v-4.2
		c0-0.4-0.1-0.6-0.2-0.8c-0.2-0.2-0.4-0.3-0.8-0.3c-0.5,0-0.9,0.2-1.1,0.6v4.7H626v-6.6H627.7z"/>
	<path class="st1" d="M637.8,25.8l0.1,0.7c0.5-0.6,1.1-0.9,1.9-0.9c0.9,0,1.4,0.3,1.8,1c0.5-0.7,1.1-1,2-1c0.7,0,1.2,0.2,1.6,0.6
		s0.5,1,0.5,1.9v4.2h-1.8v-4.2c0-0.4-0.1-0.6-0.2-0.8s-0.4-0.3-0.8-0.3c-0.5,0-0.9,0.3-1.1,0.8l0,4.5H640v-4.2
		c0-0.4-0.1-0.7-0.2-0.8s-0.4-0.3-0.8-0.3c-0.5,0-0.9,0.2-1.1,0.6v4.7h-1.8v-6.6H637.8z"/>
	<path class="st1" d="M646.7,29.1c0-0.7,0.1-1.2,0.4-1.8c0.3-0.5,0.6-0.9,1.1-1.2c0.5-0.3,1-0.4,1.7-0.4c0.9,0,1.6,0.3,2.2,0.8
		s0.9,1.3,0.9,2.2l0,0.5c0,1-0.3,1.8-0.8,2.4s-1.3,0.9-2.3,0.9c-1,0-1.7-0.3-2.3-0.9S646.7,30.2,646.7,29.1L646.7,29.1z M648.5,29.2
		c0,0.6,0.1,1.1,0.4,1.4c0.2,0.3,0.6,0.5,1,0.5c0.4,0,0.8-0.2,1-0.5c0.2-0.3,0.4-0.9,0.4-1.6c0-0.6-0.1-1.1-0.4-1.4
		c-0.2-0.3-0.6-0.5-1-0.5c-0.4,0-0.8,0.2-1,0.5C648.6,28,648.5,28.5,648.5,29.2z"/>
	<path class="st1" d="M657.8,27.5c-0.2,0-0.5,0-0.6,0c-0.7,0-1.1,0.2-1.3,0.7v4.3h-1.8v-6.6h1.7l0,0.8c0.4-0.6,0.8-0.9,1.5-0.9
		c0.2,0,0.4,0,0.5,0.1L657.8,27.5z"/>
	<path class="st1" d="M661.6,32.6c-1,0-1.8-0.3-2.4-0.9c-0.6-0.6-0.9-1.4-0.9-2.4v-0.2c0-0.7,0.1-1.3,0.4-1.8
		c0.3-0.5,0.6-0.9,1.1-1.2c0.5-0.3,1-0.4,1.6-0.4c0.9,0,1.6,0.3,2.1,0.9s0.8,1.4,0.8,2.4v0.7h-4.2c0.1,0.4,0.2,0.8,0.5,1
		c0.3,0.3,0.7,0.4,1.1,0.4c0.7,0,1.2-0.2,1.6-0.7l0.9,1c-0.3,0.4-0.6,0.7-1.1,0.9C662.7,32.5,662.2,32.6,661.6,32.6z M661.4,27.1
		c-0.3,0-0.6,0.1-0.9,0.4s-0.4,0.6-0.4,1h2.5v-0.1c0-0.4-0.1-0.7-0.3-0.9C662.1,27.2,661.8,27.1,661.4,27.1z"/>
</g>
</svg>
