<?xml version="1.0" encoding="utf-8"?>
<!-- Generator: Adobe Illustrator 26.0.3, SVG Export Plug-In . SVG Version: 6.00 Build 0)  -->
<svg version="1.1" id="Layer_1" xmlns="http://www.w3.org/2000/svg" xmlns:xlink="http://www.w3.org/1999/xlink" x="0px" y="0px"
	 viewBox="0 0 728 90" style="enable-background:new 0 0 728 90;" xml:space="preserve">
<style type="text/css">
	.st0{fill:#EDF4FD;}
</style>
<g>
	<path class="st0" d="M569.3,62.9c0-0.2-0.1-0.4-0.2-0.5s-0.4-0.3-0.7-0.4s-0.5-0.2-0.7-0.3c-0.6-0.3-0.9-0.8-0.9-1.4
		c0-0.4,0.1-0.7,0.4-1c0.2-0.3,0.6-0.4,1-0.5v-0.8h0.6v0.8c0.4,0.1,0.8,0.2,1,0.5c0.2,0.3,0.3,0.7,0.3,1.2h-0.9
		c0-0.3-0.1-0.5-0.2-0.7c-0.1-0.2-0.3-0.3-0.6-0.3c-0.2,0-0.4,0.1-0.5,0.2s-0.2,0.3-0.2,0.5c0,0.2,0.1,0.4,0.2,0.5
		c0.1,0.1,0.4,0.2,0.7,0.4c0.3,0.1,0.6,0.2,0.7,0.3c0.2,0.1,0.3,0.2,0.5,0.3c0.1,0.1,0.2,0.3,0.3,0.4c0.1,0.2,0.1,0.4,0.1,0.6
		c0,0.4-0.1,0.7-0.4,1s-0.6,0.4-1.1,0.5V65h-0.6v-0.7c-0.5-0.1-0.9-0.2-1.1-0.5s-0.4-0.7-0.4-1.2h0.9c0,0.3,0.1,0.5,0.2,0.7
		s0.4,0.3,0.7,0.3c0.3,0,0.5-0.1,0.6-0.2C569.3,63.3,569.3,63.1,569.3,62.9z"/>
	<path class="st0" d="M573.4,64.2h-0.9V60l-1.3,0.4v-0.7l2.1-0.8h0.1V64.2z"/>
	<path class="st0" d="M578.3,59.3v1h0.7v0.7h-0.7v2.2c0,0.2,0,0.3,0.1,0.3s0.2,0.1,0.3,0.1c0.1,0,0.2,0,0.3,0v0.7
		c-0.2,0.1-0.4,0.1-0.6,0.1c-0.7,0-1-0.4-1-1.1v-2.2h-0.7v-0.7h0.7v-1H578.3z"/>
	<path class="st0" d="M581.8,61.1c-0.1,0-0.2,0-0.4,0c-0.4,0-0.7,0.2-0.8,0.5v2.7h-0.9v-4h0.8l0,0.4c0.2-0.3,0.5-0.5,0.9-0.5
		c0.1,0,0.2,0,0.3,0.1L581.8,61.1z"/>
	<path class="st0" d="M582.3,59.3c0-0.1,0-0.2,0.1-0.3c0.1-0.1,0.2-0.1,0.4-0.1s0.3,0,0.4,0.1c0.1,0.1,0.1,0.2,0.1,0.3
		c0,0.1,0,0.2-0.1,0.3s-0.2,0.1-0.4,0.1s-0.3,0-0.4-0.1C582.4,59.5,582.3,59.4,582.3,59.3z M583.3,64.2h-0.9v-4h0.9V64.2z"/>
	<path class="st0" d="M586.6,64.2c0-0.1-0.1-0.2-0.1-0.4c-0.3,0.3-0.6,0.4-1,0.4c-0.4,0-0.7-0.1-1-0.3c-0.3-0.2-0.4-0.5-0.4-0.8
		c0-0.4,0.2-0.7,0.5-1s0.8-0.3,1.3-0.3h0.5v-0.3c0-0.2-0.1-0.4-0.2-0.5c-0.1-0.1-0.3-0.2-0.5-0.2c-0.2,0-0.4,0.1-0.5,0.2
		c-0.1,0.1-0.2,0.2-0.2,0.4h-0.9c0-0.2,0.1-0.4,0.2-0.6c0.1-0.2,0.3-0.3,0.6-0.4c0.2-0.1,0.5-0.2,0.8-0.2c0.5,0,0.8,0.1,1.1,0.3
		c0.3,0.2,0.4,0.6,0.4,1v1.8c0,0.4,0,0.6,0.2,0.9v0.1H586.6z M585.6,63.6c0.2,0,0.3,0,0.5-0.1c0.2-0.1,0.3-0.2,0.3-0.3v-0.7H586
		c-0.3,0-0.6,0.1-0.7,0.2c-0.2,0.1-0.2,0.3-0.2,0.5c0,0.2,0.1,0.3,0.2,0.4S585.4,63.6,585.6,63.6z"/>
	<path class="st0" d="M589.2,64.2h-0.9v-5.6h0.9V64.2z"/>
	<path class="st0" d="M592.4,64.2v-3.3h-0.6v-0.7h0.6v-0.4c0-0.4,0.1-0.8,0.4-1s0.6-0.4,1-0.4c0.2,0,0.3,0,0.5,0.1l0,0.7
		c-0.1,0-0.2,0-0.3,0c-0.4,0-0.6,0.2-0.6,0.7v0.4h0.8v0.7h-0.8v3.3H592.4z"/>
	<path class="st0" d="M594.6,62.2c0-0.4,0.1-0.7,0.2-1c0.2-0.3,0.4-0.5,0.6-0.7c0.3-0.2,0.6-0.2,1-0.2c0.5,0,1,0.2,1.3,0.5
		c0.3,0.3,0.5,0.8,0.5,1.4l0,0.2c0,0.4-0.1,0.7-0.2,1s-0.4,0.5-0.6,0.7c-0.3,0.2-0.6,0.3-1,0.3c-0.6,0-1-0.2-1.3-0.6
		C594.7,63.4,594.6,62.9,594.6,62.2L594.6,62.2z M595.5,62.3c0,0.4,0.1,0.7,0.3,1c0.2,0.2,0.4,0.3,0.7,0.3c0.3,0,0.5-0.1,0.7-0.4
		s0.3-0.6,0.3-1c0-0.4-0.1-0.7-0.3-1c-0.2-0.2-0.4-0.4-0.7-0.4c-0.3,0-0.5,0.1-0.7,0.3S595.5,61.8,595.5,62.3z"/>
	<path class="st0" d="M601.1,61.1c-0.1,0-0.2,0-0.4,0c-0.4,0-0.7,0.2-0.8,0.5v2.7H599v-4h0.8l0,0.4c0.2-0.3,0.5-0.5,0.9-0.5
		c0.1,0,0.2,0,0.3,0.1L601.1,61.1z"/>
	<path class="st0" d="M604.6,59.3v1h0.7v0.7h-0.7v2.2c0,0.2,0,0.3,0.1,0.3c0.1,0.1,0.2,0.1,0.3,0.1c0.1,0,0.2,0,0.3,0v0.7
		c-0.2,0.1-0.4,0.1-0.6,0.1c-0.7,0-1-0.4-1-1.1v-2.2h-0.7v-0.7h0.7v-1H604.6z"/>
	<path class="st0" d="M606.9,60.7c0.3-0.3,0.7-0.5,1.1-0.5c0.8,0,1.3,0.5,1.3,1.4v2.6h-0.9v-2.6c0-0.3-0.1-0.5-0.2-0.6
		c-0.1-0.1-0.3-0.2-0.5-0.2c-0.4,0-0.6,0.2-0.8,0.5v2.8H606v-5.6h0.9V60.7z"/>
	<path class="st0" d="M611.9,64.3c-0.6,0-1-0.2-1.4-0.5c-0.4-0.4-0.5-0.8-0.5-1.4v-0.1c0-0.4,0.1-0.7,0.2-1.1
		c0.2-0.3,0.4-0.6,0.6-0.7c0.3-0.2,0.6-0.3,0.9-0.3c0.5,0,1,0.2,1.2,0.5c0.3,0.3,0.4,0.8,0.4,1.5v0.4h-2.6c0,0.3,0.1,0.6,0.3,0.8
		c0.2,0.2,0.4,0.3,0.7,0.3c0.4,0,0.7-0.2,1-0.5l0.5,0.5c-0.2,0.2-0.4,0.4-0.6,0.6C612.5,64.3,612.2,64.3,611.9,64.3z M611.8,60.9
		c-0.2,0-0.4,0.1-0.6,0.3s-0.2,0.4-0.3,0.7h1.7v-0.1c0-0.3-0.1-0.5-0.2-0.7C612.2,61,612,60.9,611.8,60.9z"/>
	<path class="st0" d="M616.4,64.2v-3.3h-0.6v-0.7h0.6v-0.4c0-0.4,0.1-0.8,0.4-1s0.6-0.4,1-0.4c0.2,0,0.3,0,0.5,0.1l0,0.7
		c-0.1,0-0.2,0-0.3,0c-0.4,0-0.6,0.2-0.6,0.7v0.4h0.8v0.7h-0.8v3.3H616.4z"/>
	<path class="st0" d="M618.7,59.3c0-0.1,0-0.2,0.1-0.3c0.1-0.1,0.2-0.1,0.4-0.1s0.3,0,0.4,0.1c0.1,0.1,0.1,0.2,0.1,0.3
		c0,0.1,0,0.2-0.1,0.3s-0.2,0.1-0.4,0.1s-0.3,0-0.4-0.1C618.8,59.5,618.7,59.4,618.7,59.3z M619.7,64.2h-0.9v-4h0.9V64.2z"/>
	<path class="st0" d="M622.7,61.1c-0.1,0-0.2,0-0.4,0c-0.4,0-0.7,0.2-0.8,0.5v2.7h-0.9v-4h0.8l0,0.4c0.2-0.3,0.5-0.5,0.9-0.5
		c0.1,0,0.2,0,0.3,0.1L622.7,61.1z"/>
	<path class="st0" d="M625.5,63.2c0-0.2-0.1-0.3-0.2-0.4c-0.1-0.1-0.3-0.2-0.6-0.2s-0.6-0.1-0.8-0.2c-0.4-0.2-0.7-0.5-0.7-0.9
		c0-0.3,0.1-0.6,0.4-0.9c0.3-0.2,0.7-0.3,1.1-0.3c0.5,0,0.9,0.1,1.1,0.4s0.4,0.5,0.4,0.9h-0.9c0-0.2-0.1-0.3-0.2-0.4
		c-0.1-0.1-0.3-0.2-0.5-0.2c-0.2,0-0.4,0-0.5,0.1c-0.1,0.1-0.2,0.2-0.2,0.4c0,0.1,0.1,0.2,0.2,0.3c0.1,0.1,0.3,0.2,0.7,0.2
		c0.3,0.1,0.6,0.2,0.8,0.3c0.2,0.1,0.3,0.2,0.4,0.4c0.1,0.1,0.1,0.3,0.1,0.5c0,0.4-0.1,0.6-0.4,0.9c-0.3,0.2-0.7,0.3-1.2,0.3
		c-0.3,0-0.6-0.1-0.9-0.2s-0.5-0.3-0.6-0.5c-0.1-0.2-0.2-0.4-0.2-0.7h0.9c0,0.2,0.1,0.4,0.2,0.5s0.3,0.2,0.6,0.2
		c0.2,0,0.4,0,0.5-0.1C625.4,63.4,625.5,63.3,625.5,63.2z"/>
	<path class="st0" d="M628.2,59.3v1h0.7v0.7h-0.7v2.2c0,0.2,0,0.3,0.1,0.3c0.1,0.1,0.2,0.1,0.3,0.1c0.1,0,0.2,0,0.3,0v0.7
		c-0.2,0.1-0.4,0.1-0.6,0.1c-0.7,0-1-0.4-1-1.1v-2.2h-0.7v-0.7h0.7v-1H628.2z"/>
	<path class="st0" d="M633.8,64.2H633V60l-1.3,0.4v-0.7l2.1-0.8h0.1V64.2z"/>
	<path class="st0" d="M638.7,62.3h0.7v0.7h-0.7v1.2h-0.9v-1.2h-2.3l0-0.5l2.3-3.6h0.9V62.3z M636.4,62.3h1.4v-2.2l-0.1,0.1
		L636.4,62.3z"/>
	<path class="st0" d="M641.7,62.2c0-0.6,0.1-1.1,0.4-1.5c0.3-0.4,0.7-0.6,1.1-0.6c0.4,0,0.8,0.1,1,0.4v-2h0.9v5.6h-0.8l0-0.4
		c-0.3,0.3-0.6,0.5-1.1,0.5c-0.5,0-0.8-0.2-1.1-0.6C641.9,63.4,641.7,62.9,641.7,62.2z M642.6,62.3c0,0.4,0.1,0.7,0.2,0.9
		c0.2,0.2,0.4,0.3,0.7,0.3c0.4,0,0.6-0.2,0.8-0.5v-1.7c-0.2-0.3-0.4-0.5-0.8-0.5c-0.3,0-0.5,0.1-0.7,0.3
		C642.7,61.5,642.6,61.9,642.6,62.3z"/>
	<path class="st0" d="M648.5,64.2c0-0.1-0.1-0.2-0.1-0.4c-0.3,0.3-0.6,0.4-1,0.4c-0.4,0-0.7-0.1-1-0.3c-0.3-0.2-0.4-0.5-0.4-0.8
		c0-0.4,0.2-0.7,0.5-1s0.8-0.3,1.3-0.3h0.5v-0.3c0-0.2-0.1-0.4-0.2-0.5c-0.1-0.1-0.3-0.2-0.5-0.2c-0.2,0-0.4,0.1-0.5,0.2
		c-0.1,0.1-0.2,0.2-0.2,0.4h-0.9c0-0.2,0.1-0.4,0.2-0.6c0.1-0.2,0.3-0.3,0.6-0.4c0.2-0.1,0.5-0.2,0.8-0.2c0.5,0,0.8,0.1,1.1,0.3
		c0.3,0.2,0.4,0.6,0.4,1v1.8c0,0.4,0,0.6,0.1,0.9v0.1H648.5z M647.5,63.6c0.2,0,0.3,0,0.5-0.1c0.2-0.1,0.3-0.2,0.3-0.3v-0.7h-0.5
		c-0.3,0-0.6,0.1-0.7,0.2c-0.2,0.1-0.2,0.3-0.2,0.5c0,0.2,0.1,0.3,0.2,0.4S647.3,63.6,647.5,63.6z"/>
	<path class="st0" d="M651.6,63l0.8-2.7h0.9l-1.6,4.6c-0.2,0.7-0.7,1-1.2,1c-0.1,0-0.3,0-0.4-0.1v-0.7l0.2,0c0.2,0,0.4,0,0.5-0.1
		c0.1-0.1,0.2-0.2,0.3-0.4l0.1-0.3l-1.4-3.9h1L651.6,63z"/>
	<path class="st0" d="M656.1,63.2c0-0.2-0.1-0.3-0.2-0.4c-0.1-0.1-0.3-0.2-0.7-0.2s-0.6-0.1-0.8-0.2c-0.4-0.2-0.7-0.5-0.7-0.9
		c0-0.3,0.1-0.6,0.4-0.9s0.7-0.3,1.1-0.3c0.5,0,0.9,0.1,1.1,0.4c0.3,0.2,0.4,0.5,0.4,0.9H656c0-0.2-0.1-0.3-0.2-0.4
		c-0.1-0.1-0.3-0.2-0.5-0.2c-0.2,0-0.4,0-0.5,0.1c-0.1,0.1-0.2,0.2-0.2,0.4c0,0.1,0.1,0.2,0.2,0.3c0.1,0.1,0.3,0.2,0.7,0.2
		c0.3,0.1,0.6,0.2,0.8,0.3c0.2,0.1,0.3,0.2,0.4,0.4c0.1,0.1,0.1,0.3,0.1,0.5c0,0.4-0.1,0.6-0.4,0.9c-0.3,0.2-0.7,0.3-1.2,0.3
		c-0.3,0-0.6-0.1-0.9-0.2s-0.5-0.3-0.6-0.5s-0.2-0.4-0.2-0.7h0.9c0,0.2,0.1,0.4,0.2,0.5s0.3,0.2,0.6,0.2c0.2,0,0.4,0,0.5-0.1
		C656,63.4,656.1,63.3,656.1,63.2z"/>
	<path class="st0" d="M658.3,63.3c0.2,0,0.3,0,0.4,0.1c0.1,0.1,0.1,0.2,0.1,0.4c0,0.1,0,0.3-0.1,0.3c-0.1,0.1-0.2,0.1-0.4,0.1
		c-0.2,0-0.3,0-0.4-0.1c-0.1-0.1-0.1-0.2-0.1-0.3s0-0.3,0.1-0.4C658,63.4,658.1,63.3,658.3,63.3z"/>
	<path class="st0" d="M546,71.3v2H545v-5.3h2c0.6,0,1.1,0.2,1.4,0.5s0.5,0.7,0.5,1.2c0,0.5-0.2,0.9-0.5,1.2
		c-0.3,0.3-0.8,0.4-1.4,0.4H546z M546,70.5h1.1c0.3,0,0.6-0.1,0.8-0.2c0.2-0.2,0.3-0.4,0.3-0.7c0-0.3-0.1-0.5-0.3-0.7
		s-0.4-0.3-0.7-0.3H546V70.5z"/>
	<path class="st0" d="M550.7,73.2h-0.9v-5.6h0.9V73.2z"/>
	<path class="st0" d="M554,73.2c0-0.1-0.1-0.2-0.1-0.4c-0.3,0.3-0.6,0.4-1,0.4c-0.4,0-0.7-0.1-1-0.3c-0.3-0.2-0.4-0.5-0.4-0.8
		c0-0.4,0.2-0.7,0.5-1s0.8-0.3,1.3-0.3h0.5v-0.3c0-0.2-0.1-0.4-0.2-0.5c-0.1-0.1-0.3-0.2-0.5-0.2c-0.2,0-0.4,0.1-0.5,0.2
		c-0.1,0.1-0.2,0.2-0.2,0.4h-0.9c0-0.2,0.1-0.4,0.2-0.6c0.1-0.2,0.3-0.3,0.6-0.4c0.2-0.1,0.5-0.2,0.8-0.2c0.5,0,0.8,0.1,1.1,0.3
		c0.3,0.2,0.4,0.6,0.4,1v1.8c0,0.4,0,0.6,0.2,0.9v0.1H554z M553.1,72.6c0.2,0,0.3,0,0.5-0.1c0.2-0.1,0.3-0.2,0.3-0.3v-0.7h-0.5
		c-0.3,0-0.6,0.1-0.7,0.2c-0.2,0.1-0.2,0.3-0.2,0.5c0,0.2,0.1,0.3,0.2,0.4S552.9,72.6,553.1,72.6z"/>
	<path class="st0" d="M556.6,69.3l0,0.5c0.3-0.4,0.7-0.5,1.2-0.5c0.8,0,1.2,0.5,1.3,1.4v2.6h-0.9v-2.6c0-0.3-0.1-0.4-0.2-0.6
		c-0.1-0.1-0.3-0.2-0.5-0.2c-0.4,0-0.6,0.2-0.8,0.5v2.8h-0.9v-4H556.6z"/>
	<path class="st0" d="M562.1,72.2c0-0.2-0.1-0.3-0.2-0.4c-0.1-0.1-0.3-0.2-0.6-0.2s-0.6-0.1-0.8-0.2c-0.4-0.2-0.7-0.5-0.7-0.9
		c0-0.3,0.1-0.6,0.4-0.9c0.3-0.2,0.7-0.3,1.1-0.3c0.5,0,0.9,0.1,1.1,0.4s0.4,0.5,0.4,0.9h-0.9c0-0.2-0.1-0.3-0.2-0.4
		c-0.1-0.1-0.3-0.2-0.5-0.2c-0.2,0-0.4,0-0.5,0.1c-0.1,0.1-0.2,0.2-0.2,0.4c0,0.1,0.1,0.2,0.2,0.3c0.1,0.1,0.3,0.2,0.7,0.2
		c0.3,0.1,0.6,0.2,0.8,0.3c0.2,0.1,0.3,0.2,0.4,0.4c0.1,0.1,0.1,0.3,0.1,0.5c0,0.4-0.1,0.6-0.4,0.9c-0.3,0.2-0.7,0.3-1.2,0.3
		c-0.3,0-0.6-0.1-0.9-0.2s-0.5-0.3-0.6-0.5c-0.1-0.2-0.2-0.4-0.2-0.7h0.9c0,0.2,0.1,0.4,0.2,0.5s0.3,0.2,0.6,0.2
		c0.2,0,0.4,0,0.5-0.1C562.1,72.4,562.1,72.3,562.1,72.2z"/>
	<path class="st0" d="M567.9,72.2c0-0.2-0.1-0.3-0.2-0.4s-0.3-0.2-0.7-0.2s-0.6-0.1-0.8-0.2c-0.4-0.2-0.7-0.5-0.7-0.9
		c0-0.3,0.1-0.6,0.4-0.9s0.7-0.3,1.1-0.3c0.5,0,0.9,0.1,1.1,0.4c0.3,0.2,0.4,0.5,0.4,0.9h-0.9c0-0.2-0.1-0.3-0.2-0.4
		c-0.1-0.1-0.3-0.2-0.5-0.2c-0.2,0-0.4,0-0.5,0.1c-0.1,0.1-0.2,0.2-0.2,0.4c0,0.1,0.1,0.2,0.2,0.3c0.1,0.1,0.3,0.2,0.7,0.2
		c0.3,0.1,0.6,0.2,0.8,0.3s0.3,0.2,0.4,0.4c0.1,0.1,0.1,0.3,0.1,0.5c0,0.4-0.1,0.6-0.4,0.9c-0.3,0.2-0.7,0.3-1.2,0.3
		c-0.3,0-0.6-0.1-0.9-0.2s-0.5-0.3-0.6-0.5s-0.2-0.4-0.2-0.7h0.9c0,0.2,0.1,0.4,0.2,0.5s0.3,0.2,0.6,0.2c0.2,0,0.4,0,0.5-0.1
		C567.8,72.4,567.9,72.3,567.9,72.2z"/>
	<path class="st0" d="M570.6,68.3v1h0.7v0.7h-0.7v2.2c0,0.2,0,0.3,0.1,0.3c0.1,0.1,0.2,0.1,0.3,0.1c0.1,0,0.2,0,0.3,0v0.7
		c-0.2,0.1-0.4,0.1-0.6,0.1c-0.7,0-1-0.4-1-1.1v-2.2h-0.7v-0.7h0.7v-1H570.6z"/>
	<path class="st0" d="M574.4,73.2c0-0.1-0.1-0.2-0.1-0.4c-0.3,0.3-0.6,0.4-1,0.4c-0.4,0-0.7-0.1-1-0.3c-0.3-0.2-0.4-0.5-0.4-0.8
		c0-0.4,0.2-0.7,0.5-1s0.8-0.3,1.3-0.3h0.5v-0.3c0-0.2-0.1-0.4-0.2-0.5c-0.1-0.1-0.3-0.2-0.5-0.2c-0.2,0-0.4,0.1-0.5,0.2
		c-0.1,0.1-0.2,0.2-0.2,0.4H572c0-0.2,0.1-0.4,0.2-0.6c0.1-0.2,0.3-0.3,0.6-0.4c0.2-0.1,0.5-0.2,0.8-0.2c0.5,0,0.8,0.1,1.1,0.3
		c0.3,0.2,0.4,0.6,0.4,1v1.8c0,0.4,0,0.6,0.2,0.9v0.1H574.4z M573.4,72.6c0.2,0,0.3,0,0.5-0.1c0.2-0.1,0.3-0.2,0.3-0.3v-0.7h-0.5
		c-0.3,0-0.6,0.1-0.7,0.2c-0.2,0.1-0.2,0.3-0.2,0.5c0,0.2,0.1,0.3,0.2,0.4S573.2,72.6,573.4,72.6z"/>
	<path class="st0" d="M578.1,70.1c-0.1,0-0.2,0-0.4,0c-0.4,0-0.7,0.2-0.8,0.5v2.7h-0.9v-4h0.8l0,0.4c0.2-0.3,0.5-0.5,0.9-0.5
		c0.1,0,0.2,0,0.3,0.1L578.1,70.1z"/>
	<path class="st0" d="M580,68.3v1h0.7v0.7H580v2.2c0,0.2,0,0.3,0.1,0.3s0.2,0.1,0.3,0.1c0.1,0,0.2,0,0.3,0v0.7
		c-0.2,0.1-0.4,0.1-0.6,0.1c-0.7,0-1-0.4-1-1.1v-2.2h-0.7v-0.7h0.7v-1H580z"/>
	<path class="st0" d="M581.4,68.3c0-0.1,0-0.2,0.1-0.3c0.1-0.1,0.2-0.1,0.4-0.1s0.3,0,0.4,0.1c0.1,0.1,0.1,0.2,0.1,0.3
		c0,0.1,0,0.2-0.1,0.3s-0.2,0.1-0.4,0.1s-0.3,0-0.4-0.1S581.4,68.4,581.4,68.3z M582.3,73.2h-0.9v-4h0.9V73.2z"/>
	<path class="st0" d="M584.1,69.3l0,0.5c0.3-0.4,0.7-0.5,1.2-0.5c0.8,0,1.2,0.5,1.3,1.4v2.6h-0.9v-2.6c0-0.3-0.1-0.4-0.2-0.6
		c-0.1-0.1-0.3-0.2-0.5-0.2c-0.4,0-0.6,0.2-0.8,0.5v2.8h-0.9v-4H584.1z"/>
	<path class="st0" d="M587.3,71.2c0-0.6,0.1-1.1,0.4-1.5s0.7-0.6,1.2-0.6c0.5,0,0.8,0.2,1.1,0.5l0-0.4h0.8v3.8
		c0,0.5-0.2,0.9-0.5,1.2c-0.3,0.3-0.8,0.5-1.3,0.5c-0.3,0-0.6-0.1-0.9-0.2s-0.5-0.3-0.6-0.5l0.4-0.5c0.3,0.3,0.6,0.5,1,0.5
		c0.3,0,0.5-0.1,0.7-0.2s0.3-0.4,0.3-0.7v-0.3c-0.3,0.3-0.6,0.4-1,0.4c-0.5,0-0.8-0.2-1.1-0.6C587.4,72.4,587.3,71.9,587.3,71.2z
		 M588.2,71.3c0,0.4,0.1,0.7,0.2,0.9c0.2,0.2,0.4,0.3,0.7,0.3c0.4,0,0.6-0.2,0.8-0.5v-1.7c-0.2-0.3-0.4-0.5-0.8-0.5
		c-0.3,0-0.5,0.1-0.7,0.3C588.3,70.5,588.2,70.9,588.2,71.3z"/>
	<path class="st0" d="M595.9,73.2c0-0.1-0.1-0.2-0.1-0.4c-0.3,0.3-0.6,0.4-1,0.4c-0.4,0-0.7-0.1-1-0.3c-0.3-0.2-0.4-0.5-0.4-0.8
		c0-0.4,0.2-0.7,0.5-1s0.8-0.3,1.3-0.3h0.5v-0.3c0-0.2-0.1-0.4-0.2-0.5c-0.1-0.1-0.3-0.2-0.5-0.2c-0.2,0-0.4,0.1-0.5,0.2
		c-0.1,0.1-0.2,0.2-0.2,0.4h-0.9c0-0.2,0.1-0.4,0.2-0.6c0.1-0.2,0.3-0.3,0.6-0.4c0.2-0.1,0.5-0.2,0.8-0.2c0.5,0,0.8,0.1,1.1,0.3
		c0.3,0.2,0.4,0.6,0.4,1v1.8c0,0.4,0,0.6,0.2,0.9v0.1H595.9z M595,72.6c0.2,0,0.3,0,0.5-0.1c0.2-0.1,0.3-0.2,0.3-0.3v-0.7h-0.5
		c-0.3,0-0.6,0.1-0.7,0.2c-0.2,0.1-0.2,0.3-0.2,0.5c0,0.2,0.1,0.3,0.2,0.4S594.8,72.6,595,72.6z"/>
	<path class="st0" d="M598.8,68.3v1h0.7v0.7h-0.7v2.2c0,0.2,0,0.3,0.1,0.3c0.1,0.1,0.2,0.1,0.3,0.1c0.1,0,0.2,0,0.3,0v0.7
		c-0.2,0.1-0.4,0.1-0.6,0.1c-0.7,0-1-0.4-1-1.1v-2.2h-0.7v-0.7h0.7v-1H598.8z"/>
	<path class="st0" d="M604.5,71.9c0-0.2-0.1-0.4-0.2-0.5s-0.4-0.3-0.7-0.4s-0.5-0.2-0.7-0.3c-0.6-0.3-0.9-0.8-0.9-1.4
		c0-0.4,0.1-0.7,0.4-1c0.2-0.3,0.6-0.4,1-0.5v-0.8h0.6v0.8c0.4,0.1,0.8,0.2,1,0.5c0.2,0.3,0.3,0.7,0.3,1.2h-0.9
		c0-0.3-0.1-0.5-0.2-0.7c-0.1-0.2-0.3-0.3-0.6-0.3c-0.2,0-0.4,0.1-0.5,0.2s-0.2,0.3-0.2,0.5c0,0.2,0.1,0.4,0.2,0.5
		c0.1,0.1,0.4,0.2,0.7,0.4c0.3,0.1,0.6,0.2,0.7,0.3c0.2,0.1,0.3,0.2,0.5,0.3c0.1,0.1,0.2,0.3,0.3,0.4c0.1,0.2,0.1,0.4,0.1,0.6
		c0,0.4-0.1,0.7-0.4,1s-0.6,0.4-1.1,0.5V74h-0.6v-0.7c-0.5-0.1-0.9-0.2-1.1-0.5s-0.4-0.7-0.4-1.2h0.9c0,0.3,0.1,0.5,0.2,0.7
		s0.4,0.3,0.7,0.3c0.3,0,0.5-0.1,0.6-0.2C604.5,72.3,604.5,72.1,604.5,71.9z"/>
	<path class="st0" d="M608.7,71c-0.3,0.3-0.6,0.5-1,0.5c-0.5,0-0.8-0.2-1.1-0.5c-0.3-0.3-0.4-0.8-0.4-1.3c0-0.4,0.1-0.7,0.2-1
		c0.1-0.3,0.3-0.5,0.6-0.7c0.3-0.2,0.6-0.2,0.9-0.2c0.5,0,1,0.2,1.3,0.6c0.3,0.4,0.5,0.9,0.5,1.6v0.2c0,1-0.2,1.7-0.7,2.2
		s-1.1,0.8-1.9,0.8h-0.1v-0.7h0.1c0.5,0,0.9-0.1,1.2-0.4C608.5,71.9,608.7,71.5,608.7,71z M607.9,70.8c0.2,0,0.3-0.1,0.5-0.2
		c0.2-0.1,0.3-0.2,0.4-0.4v-0.3c0-0.4-0.1-0.7-0.2-0.9s-0.4-0.4-0.6-0.4c-0.3,0-0.5,0.1-0.6,0.3c-0.2,0.2-0.2,0.5-0.2,0.8
		c0,0.3,0.1,0.6,0.2,0.8C607.4,70.7,607.6,70.8,607.9,70.8z"/>
	<path class="st0" d="M611.1,72.3c0.2,0,0.3,0,0.4,0.1c0.1,0.1,0.1,0.2,0.1,0.4c0,0.1,0,0.3-0.1,0.3c-0.1,0.1-0.2,0.1-0.4,0.1
		c-0.2,0-0.3,0-0.4-0.1c-0.1-0.1-0.1-0.2-0.1-0.3s0-0.3,0.1-0.4C610.8,72.4,610.9,72.3,611.1,72.3z"/>
	<path class="st0" d="M615.1,71c-0.3,0.3-0.6,0.5-1,0.5c-0.5,0-0.8-0.2-1.1-0.5c-0.3-0.3-0.4-0.8-0.4-1.3c0-0.4,0.1-0.7,0.2-1
		c0.1-0.3,0.3-0.5,0.6-0.7c0.3-0.2,0.6-0.2,0.9-0.2c0.5,0,1,0.2,1.3,0.6c0.3,0.4,0.5,0.9,0.5,1.6v0.2c0,1-0.2,1.7-0.7,2.2
		s-1.1,0.8-1.9,0.8h-0.1v-0.7h0.1c0.5,0,0.9-0.1,1.2-0.4C614.9,71.9,615,71.5,615.1,71z M614.2,70.8c0.2,0,0.3-0.1,0.5-0.2
		c0.2-0.1,0.3-0.2,0.4-0.4v-0.3c0-0.4-0.1-0.7-0.2-0.9s-0.4-0.4-0.6-0.4c-0.3,0-0.5,0.1-0.6,0.3c-0.2,0.2-0.2,0.5-0.2,0.8
		c0,0.3,0.1,0.6,0.2,0.8C613.8,70.7,614,70.8,614.2,70.8z"/>
	<path class="st0" d="M619.3,71c-0.3,0.3-0.6,0.5-1,0.5c-0.5,0-0.8-0.2-1.1-0.5c-0.3-0.3-0.4-0.8-0.4-1.3c0-0.4,0.1-0.7,0.2-1
		c0.1-0.3,0.3-0.5,0.6-0.7c0.3-0.2,0.6-0.2,0.9-0.2c0.5,0,1,0.2,1.3,0.6c0.3,0.4,0.5,0.9,0.5,1.6v0.2c0,1-0.2,1.7-0.7,2.2
		s-1.1,0.8-1.9,0.8h-0.1v-0.7h0.1c0.5,0,0.9-0.1,1.2-0.4C619.2,71.9,619.3,71.5,619.3,71z M618.5,70.8c0.2,0,0.3-0.1,0.5-0.2
		c0.2-0.1,0.3-0.2,0.4-0.4v-0.3c0-0.4-0.1-0.7-0.2-0.9s-0.4-0.4-0.6-0.4c-0.3,0-0.5,0.1-0.6,0.3c-0.2,0.2-0.2,0.5-0.2,0.8
		c0,0.3,0.1,0.6,0.2,0.8C618,70.7,618.2,70.8,618.5,70.8z"/>
	<path class="st0" d="M624.1,68.3v1h0.7v0.7h-0.7v2.2c0,0.2,0,0.3,0.1,0.3s0.2,0.1,0.3,0.1c0.1,0,0.2,0,0.3,0v0.7
		c-0.2,0.1-0.4,0.1-0.6,0.1c-0.7,0-1-0.4-1-1.1v-2.2h-0.7v-0.7h0.7v-1H624.1z"/>
	<path class="st0" d="M625.2,71.2c0-0.4,0.1-0.7,0.2-1c0.2-0.3,0.4-0.5,0.6-0.7c0.3-0.2,0.6-0.2,1-0.2c0.5,0,1,0.2,1.3,0.5
		c0.3,0.3,0.5,0.8,0.5,1.4l0,0.2c0,0.4-0.1,0.7-0.2,1s-0.4,0.5-0.6,0.7c-0.3,0.2-0.6,0.3-1,0.3c-0.6,0-1-0.2-1.3-0.6
		C625.4,72.4,625.2,71.9,625.2,71.2L625.2,71.2z M626.1,71.3c0,0.4,0.1,0.7,0.3,1c0.2,0.2,0.4,0.3,0.7,0.3c0.3,0,0.5-0.1,0.7-0.4
		s0.3-0.6,0.3-1c0-0.4-0.1-0.7-0.3-1c-0.2-0.2-0.4-0.4-0.7-0.4c-0.3,0-0.5,0.1-0.7,0.3S626.1,70.8,626.1,71.3z"/>
	<path class="st0" d="M634.1,71.9c0-0.2-0.1-0.4-0.2-0.5s-0.4-0.3-0.7-0.4s-0.5-0.2-0.7-0.3c-0.6-0.3-0.9-0.8-0.9-1.4
		c0-0.4,0.1-0.7,0.4-1c0.2-0.3,0.6-0.4,1-0.5v-0.8h0.6v0.8c0.4,0.1,0.8,0.2,1,0.5c0.2,0.3,0.3,0.7,0.3,1.2h-0.9
		c0-0.3-0.1-0.5-0.2-0.7c-0.1-0.2-0.3-0.3-0.6-0.3c-0.2,0-0.4,0.1-0.5,0.2s-0.2,0.3-0.2,0.5c0,0.2,0.1,0.4,0.2,0.5
		c0.1,0.1,0.4,0.2,0.7,0.4c0.3,0.1,0.6,0.2,0.7,0.3c0.2,0.1,0.3,0.2,0.5,0.3c0.1,0.1,0.2,0.3,0.3,0.4c0.1,0.2,0.1,0.4,0.1,0.6
		c0,0.4-0.1,0.7-0.4,1s-0.6,0.4-1.1,0.5V74h-0.6v-0.7c-0.5-0.1-0.9-0.2-1.1-0.5s-0.4-0.7-0.4-1.2h0.9c0,0.3,0.1,0.5,0.2,0.7
		s0.4,0.3,0.7,0.3c0.3,0,0.5-0.1,0.6-0.2C634,72.3,634.1,72.1,634.1,71.9z"/>
	<path class="st0" d="M639.3,73.2h-3.6v-0.6l1.8-1.9c0.3-0.3,0.4-0.5,0.5-0.7s0.2-0.4,0.2-0.6c0-0.3-0.1-0.5-0.2-0.6
		c-0.1-0.2-0.3-0.2-0.6-0.2c-0.3,0-0.5,0.1-0.7,0.3c-0.2,0.2-0.2,0.4-0.2,0.7h-0.9c0-0.3,0.1-0.6,0.2-0.9c0.1-0.3,0.4-0.5,0.6-0.6
		c0.3-0.1,0.6-0.2,1-0.2c0.5,0,0.9,0.1,1.2,0.4c0.3,0.3,0.4,0.6,0.4,1.1c0,0.3-0.1,0.5-0.2,0.8c-0.1,0.3-0.4,0.6-0.7,1l-1.3,1.4h2.5
		V73.2z"/>
	<path class="st0" d="M643,71.3h0.7v0.7H643v1.2h-0.9v-1.2h-2.3l0-0.5l2.3-3.6h0.9V71.3z M640.7,71.3h1.4v-2.2l-0.1,0.1L640.7,71.3z
		"/>
	<path class="st0" d="M644.9,72.3c0.2,0,0.3,0,0.4,0.1c0.1,0.1,0.1,0.2,0.1,0.4c0,0.1,0,0.3-0.1,0.3c-0.1,0.1-0.2,0.1-0.4,0.1
		c-0.2,0-0.3,0-0.4-0.1c-0.1-0.1-0.1-0.2-0.1-0.3s0-0.3,0.1-0.4C644.6,72.4,644.7,72.3,644.9,72.3z"/>
	<path class="st0" d="M648.9,71c-0.3,0.3-0.6,0.5-1,0.5c-0.5,0-0.8-0.2-1.1-0.5c-0.3-0.3-0.4-0.8-0.4-1.3c0-0.4,0.1-0.7,0.2-1
		c0.1-0.3,0.3-0.5,0.6-0.7c0.3-0.2,0.6-0.2,0.9-0.2c0.5,0,1,0.2,1.3,0.6c0.3,0.4,0.5,0.9,0.5,1.6v0.2c0,1-0.2,1.7-0.7,2.2
		s-1.1,0.8-1.9,0.8h-0.1v-0.7h0.1c0.5,0,0.9-0.1,1.2-0.4C648.7,71.9,648.8,71.5,648.9,71z M648,70.8c0.2,0,0.3-0.1,0.5-0.2
		s0.3-0.2,0.4-0.4v-0.3c0-0.4-0.1-0.7-0.2-0.9c-0.2-0.2-0.4-0.4-0.6-0.4c-0.3,0-0.5,0.1-0.6,0.3c-0.2,0.2-0.2,0.5-0.2,0.8
		c0,0.3,0.1,0.6,0.2,0.8S647.8,70.8,648,70.8z"/>
	<path class="st0" d="M653.1,71c-0.3,0.3-0.6,0.5-1,0.5c-0.5,0-0.8-0.2-1.1-0.5c-0.3-0.3-0.4-0.8-0.4-1.3c0-0.4,0.1-0.7,0.2-1
		c0.1-0.3,0.3-0.5,0.6-0.7c0.3-0.2,0.6-0.2,0.9-0.2c0.5,0,1,0.2,1.3,0.6c0.3,0.4,0.5,0.9,0.5,1.6v0.2c0,1-0.2,1.7-0.7,2.2
		s-1.1,0.8-1.9,0.8h-0.1v-0.7h0.1c0.5,0,0.9-0.1,1.2-0.4C653,71.9,653.1,71.5,653.1,71z M652.3,70.8c0.2,0,0.3-0.1,0.5-0.2
		s0.3-0.2,0.4-0.4v-0.3c0-0.4-0.1-0.7-0.2-0.9c-0.2-0.2-0.4-0.4-0.6-0.4c-0.3,0-0.5,0.1-0.6,0.3c-0.2,0.2-0.2,0.5-0.2,0.8
		c0,0.3,0.1,0.6,0.2,0.8S652,70.8,652.3,70.8z"/>
	<path class="st0" d="M655.2,73.7h-0.7l2.1-5.8h0.7L655.2,73.7z"/>
	<path class="st0" d="M658.7,69.3l0,0.4c0.3-0.3,0.7-0.5,1.1-0.5c0.5,0,0.9,0.2,1.1,0.6c0.3-0.4,0.7-0.6,1.2-0.6
		c0.4,0,0.8,0.1,1,0.4c0.2,0.2,0.3,0.6,0.3,1.1v2.6h-0.9v-2.6c0-0.3-0.1-0.4-0.2-0.6c-0.1-0.1-0.3-0.2-0.5-0.2
		c-0.2,0-0.4,0.1-0.5,0.2c-0.1,0.1-0.2,0.3-0.3,0.4l0,2.7h-0.9v-2.6c0-0.5-0.3-0.7-0.7-0.7c-0.4,0-0.6,0.1-0.8,0.4v2.9h-0.9v-4
		H658.7z"/>
	<path class="st0" d="M664.3,71.2c0-0.4,0.1-0.7,0.2-1c0.2-0.3,0.4-0.5,0.6-0.7c0.3-0.2,0.6-0.2,1-0.2c0.5,0,1,0.2,1.3,0.5
		c0.3,0.3,0.5,0.8,0.5,1.4l0,0.2c0,0.4-0.1,0.7-0.2,1s-0.4,0.5-0.6,0.7c-0.3,0.2-0.6,0.3-1,0.3c-0.6,0-1-0.2-1.3-0.6
		S664.3,71.9,664.3,71.2L664.3,71.2z M665.2,71.3c0,0.4,0.1,0.7,0.3,1c0.2,0.2,0.4,0.3,0.7,0.3c0.3,0,0.5-0.1,0.7-0.4
		c0.2-0.2,0.3-0.6,0.3-1c0-0.4-0.1-0.7-0.3-1s-0.4-0.4-0.7-0.4c-0.3,0-0.5,0.1-0.7,0.3S665.2,70.8,665.2,71.3z"/>
	<path class="st0" d="M669.5,69.3l0,0.5c0.3-0.4,0.7-0.5,1.2-0.5c0.8,0,1.2,0.5,1.3,1.4v2.6h-0.9v-2.6c0-0.3-0.1-0.4-0.2-0.6
		c-0.1-0.1-0.3-0.2-0.5-0.2c-0.4,0-0.6,0.2-0.8,0.5v2.8h-0.9v-4H669.5z"/>
	<path class="st0" d="M674,68.3v1h0.7v0.7H674v2.2c0,0.2,0,0.3,0.1,0.3c0.1,0.1,0.2,0.1,0.3,0.1c0.1,0,0.2,0,0.3,0v0.7
		c-0.2,0.1-0.4,0.1-0.6,0.1c-0.7,0-1-0.4-1-1.1v-2.2h-0.7v-0.7h0.7v-1H674z"/>
	<path class="st0" d="M676.2,69.7c0.3-0.3,0.7-0.5,1.1-0.5c0.8,0,1.3,0.5,1.3,1.4v2.6h-0.9v-2.6c0-0.3-0.1-0.5-0.2-0.6
		s-0.3-0.2-0.5-0.2c-0.4,0-0.6,0.2-0.8,0.5v2.8h-0.9v-5.6h0.9V69.7z"/>
	<path class="st0" d="M680.1,72.3c0.2,0,0.3,0,0.4,0.1c0.1,0.1,0.1,0.2,0.1,0.4c0,0.1,0,0.3-0.1,0.3c-0.1,0.1-0.2,0.1-0.4,0.1
		c-0.2,0-0.3,0-0.4-0.1c-0.1-0.1-0.1-0.2-0.1-0.3s0-0.3,0.1-0.4C679.8,72.4,679.9,72.3,680.1,72.3z"/>
</g>
</svg>
