<svg id="Layer_1" xmlns="http://www.w3.org/2000/svg" viewBox="0 0 300 250"><style>.st0{fill:#e82d8a}.st1{fill:#fff}</style><path class="st0" d="M231.69 209.27H116.35c-8.98 0-16.26-7.28-16.26-16.26s7.28-16.26 16.26-16.26h115.34c8.98 0 16.26 7.28 16.26 16.26.01 8.98-7.28 16.26-16.26 16.26z"/><path class="st1" d="M123.03 195.07c-.1 1.06-.49 1.89-1.18 2.49s-1.59.89-2.73.89c-.79 0-1.49-.19-2.1-.56-.6-.38-1.07-.91-1.4-1.6-.33-.69-.5-1.5-.51-2.41v-.93c0-.94.17-1.77.5-2.48.33-.71.81-1.27 1.43-1.65.62-.39 1.34-.58 2.16-.58 1.1 0 1.98.3 2.65.89s1.06 1.44 1.17 2.53h-1.72c-.08-.71-.29-1.23-.63-1.55-.33-.32-.83-.48-1.47-.48-.75 0-1.33.28-1.73.83-.4.55-.61 1.36-.62 2.42v.88c0 1.08.19 1.9.58 2.46.38.57.95.85 1.69.85.68 0 1.19-.15 1.53-.46.34-.3.56-.81.65-1.52h1.73zM126.18 198.31h-1.66v-10.5h1.66v10.5zM127.99 189c0-.25.08-.47.24-.64.16-.17.39-.25.69-.25s.53.08.7.25a.9.9 0 0 1 .25.64c0 .25-.08.46-.25.63-.16.17-.4.25-.7.25s-.53-.08-.69-.25a.901.901 0 0 1-.24-.63zm1.76 9.31h-1.66v-7.4h1.66v7.4zM134.6 197.12c.42 0 .76-.12 1.03-.36s.42-.54.44-.9h1.57c-.02.46-.16.89-.43 1.29s-.63.71-1.09.95-.96.35-1.49.35c-1.03 0-1.85-.33-2.46-1s-.91-1.59-.91-2.78v-.17c0-1.12.3-2.03.9-2.7s1.42-1.02 2.46-1.02c.88 0 1.6.26 2.15.77.55.51.84 1.19.87 2.02h-1.57c-.02-.42-.16-.77-.43-1.05-.27-.27-.62-.41-1.04-.41-.54 0-.95.2-1.24.58s-.44.98-.44 1.77v.27c0 .8.14 1.4.43 1.79.29.41.7.6 1.25.6zM141.29 195.14l-.74.76v2.41h-1.66v-10.5h1.66v6.06l.52-.65 2.04-2.3h2l-2.75 3.08 3.04 4.31h-1.92l-2.19-3.17zM151.77 189.12v1.8h1.31v1.23h-1.31v4.13c0 .28.06.49.17.61.11.12.31.19.6.19.19 0 .38-.02.58-.07v1.29c-.38.11-.74.16-1.09.16-1.28 0-1.91-.7-1.91-2.11v-4.19h-1.22v-1.23h1.22v-1.8h1.65zM153.82 194.55c0-.72.14-1.38.43-1.96s.69-1.03 1.21-1.34c.52-.31 1.12-.47 1.79-.47 1 0 1.81.32 2.43.96.62.64.96 1.5 1.01 2.56l.01.39c0 .73-.14 1.38-.42 1.96-.28.57-.68 1.02-1.2 1.33-.52.31-1.12.47-1.81.47-1.04 0-1.88-.35-2.5-1.04-.63-.7-.94-1.62-.94-2.78v-.08zm1.66.14c0 .76.16 1.36.47 1.79s.75.65 1.31.65 1-.22 1.31-.66c.31-.44.47-1.08.47-1.92 0-.75-.16-1.34-.48-1.78-.32-.44-.76-.66-1.31-.66-.54 0-.97.22-1.29.65s-.48 1.07-.48 1.93zM167.36 198.31h-1.66v-10.5h1.66v10.5zM172.42 198.45c-1.05 0-1.91-.33-2.56-.99-.65-.66-.98-1.55-.98-2.65v-.21c0-.74.14-1.4.43-1.98.29-.58.69-1.03 1.2-1.36.51-.32 1.09-.49 1.72-.49 1.01 0 1.79.32 2.33.96.55.64.82 1.55.82 2.73v.67h-4.83c.05.61.25 1.09.61 1.45.36.36.81.53 1.35.53.76 0 1.38-.31 1.86-.92l.9.85c-.3.44-.69.79-1.19 1.03-.49.26-1.04.38-1.66.38zm-.19-6.34c-.46 0-.82.16-1.1.48-.28.32-.46.76-.54 1.33h3.17v-.12c-.04-.56-.18-.98-.44-1.26-.27-.29-.63-.43-1.09-.43zM181.1 198.31c-.07-.14-.14-.37-.19-.69-.53.55-1.18.83-1.94.83-.74 0-1.35-.21-1.82-.64s-.7-.95-.7-1.57c0-.79.29-1.39.88-1.81.58-.42 1.42-.63 2.51-.63h1.02v-.49c0-.38-.11-.69-.32-.92-.21-.23-.54-.35-.98-.35-.38 0-.69.09-.93.28-.24.19-.36.43-.36.72h-1.66c0-.41.13-.79.4-1.14.27-.35.63-.63 1.1-.83.46-.2.98-.3 1.55-.3.87 0 1.56.22 2.07.65.51.43.78 1.05.79 1.83v3.34c0 .67.09 1.2.28 1.59v.12h-1.7zm-1.83-1.19c.33 0 .64-.08.93-.24.29-.16.51-.37.65-.64v-1.39h-.9c-.62 0-1.08.11-1.39.32-.31.21-.46.52-.46.91 0 .32.11.57.32.76.21.18.5.28.85.28zM188.13 192.43c-.22-.04-.44-.05-.68-.05-.76 0-1.27.29-1.54.88v5.06h-1.66v-7.4h1.59l.04.83c.4-.64.96-.96 1.67-.96.24 0 .43.03.59.1l-.01 1.54zM190.72 190.92l.05.85c.55-.66 1.26-.99 2.15-.99 1.54 0 2.32.88 2.35 2.65v4.89h-1.66v-4.79c0-.47-.1-.82-.3-1.04-.2-.23-.54-.34-1-.34-.67 0-1.17.3-1.5.91v5.26h-1.66v-7.4h1.57zM202.01 190.92l.05.77c.52-.61 1.23-.91 2.13-.91.99 0 1.67.38 2.03 1.13.54-.76 1.29-1.13 2.27-1.13.82 0 1.42.23 1.82.68.4.45.6 1.12.61 2v4.86h-1.66v-4.81c0-.47-.1-.81-.31-1.03s-.54-.33-1.02-.33c-.38 0-.69.1-.93.3-.24.2-.41.47-.5.8l.01 5.07h-1.66v-4.87c-.02-.87-.47-1.31-1.33-1.31-.67 0-1.14.27-1.42.81v5.36h-1.66v-7.4h1.57zM212.32 194.55c0-.72.14-1.38.43-1.96s.69-1.03 1.21-1.34c.52-.31 1.12-.47 1.79-.47 1 0 1.81.32 2.43.96.62.64.96 1.5 1.01 2.56l.01.39c0 .73-.14 1.38-.42 1.96-.28.57-.68 1.02-1.2 1.33-.52.31-1.12.47-1.81.47-1.04 0-1.88-.35-2.5-1.04-.63-.7-.94-1.62-.94-2.78v-.08zm1.66.14c0 .76.16 1.36.47 1.79s.75.65 1.31.65 1-.22 1.31-.66c.31-.44.47-1.08.47-1.92 0-.75-.16-1.34-.48-1.78-.32-.44-.76-.66-1.31-.66-.54 0-.97.22-1.29.65s-.48 1.07-.48 1.93zM224.47 192.43c-.22-.04-.44-.05-.68-.05-.76 0-1.27.29-1.54.88v5.06h-1.66v-7.4h1.59l.04.83c.4-.64.96-.96 1.67-.96.24 0 .43.03.59.1l-.01 1.54zM228.78 198.45c-1.05 0-1.91-.33-2.56-.99-.65-.66-.98-1.55-.98-2.65v-.21c0-.74.14-1.4.43-1.98.29-.58.69-1.03 1.2-1.36.51-.32 1.09-.49 1.72-.49 1.01 0 1.79.32 2.33.96.55.64.82 1.55.82 2.73v.67h-4.83c.05.61.25 1.09.61 1.45.36.36.81.53 1.35.53.76 0 1.38-.31 1.86-.92l.9.85c-.3.44-.69.79-1.19 1.03-.49.26-1.05.38-1.66.38zm-.2-6.34c-.46 0-.82.16-1.1.48-.28.32-.46.76-.54 1.33h3.17v-.12c-.04-.56-.18-.98-.44-1.26-.27-.29-.63-.43-1.09-.43z"/></svg>