<svg id="Layer_1" xmlns="http://www.w3.org/2000/svg" viewBox="0 0 970 250"><style>.st0{fill:#e82d8a}</style><path class="st0" d="M715.14 97.64c0 2.25-.47 3.98-1.4 5.19s-2.24 1.82-3.94 1.82c-1.4 0-2.52-.55-3.38-1.66l-.18 1.41h-3.83V84.9h4.28v6.87c.8-.91 1.82-1.36 3.08-1.36 1.71 0 3.03.61 3.96 1.84s1.4 2.95 1.4 5.18v.21zm-4.3-.27c0-1.32-.18-2.26-.53-2.82-.35-.56-.89-.84-1.62-.84-.96 0-1.63.37-2.01 1.1v5.45c.36.73 1.04 1.09 2.03 1.09 1.01 0 1.65-.49 1.92-1.47.15-.49.21-1.32.21-2.51zM724.76 104.39c-.15-.28-.29-.69-.41-1.23-.79.99-1.89 1.49-3.3 1.49-1.29 0-2.4-.39-3.3-1.17s-1.36-1.77-1.36-2.95c0-1.49.55-2.62 1.65-3.38s2.7-1.14 4.8-1.14h1.32v-.73c0-1.27-.55-1.9-1.64-1.9-1.02 0-1.52.5-1.52 1.51h-4.28c0-1.33.57-2.4 1.69-3.23 1.13-.83 2.57-1.24 4.32-1.24s3.14.43 4.15 1.28 1.54 2.03 1.56 3.52v6.08c.02 1.26.21 2.23.58 2.89v.22h-4.26zm-2.68-2.79c.53 0 .98-.11 1.33-.34.35-.23.6-.49.75-.77v-2.2h-1.24c-1.49 0-2.23.67-2.23 2.01 0 .39.13.7.39.95s.59.35 1 .35zM734.75 90.66l.14 1.61c.95-1.24 2.26-1.87 3.92-1.87 1.43 0 2.5.43 3.21 1.28.71.85 1.07 2.14 1.1 3.86v8.85h-4.29v-8.67c0-.69-.14-1.2-.42-1.53s-.79-.49-1.52-.49c-.84 0-1.46.33-1.87.99v9.7h-4.28V90.66h4.01zM751 99.28l-1.21 1.21v3.91h-4.28V84.88h4.28v10.36l.43-.57 3.22-4.01h5.13l-4.81 5.65 5.13 8.09H754l-3-5.12zM773.92 104.39c-.15-.28-.29-.69-.41-1.23-.79.99-1.89 1.49-3.3 1.49-1.29 0-2.4-.39-3.3-1.17s-1.36-1.77-1.36-2.95c0-1.49.55-2.62 1.65-3.38S769.9 96 772 96h1.32v-.73c0-1.27-.55-1.9-1.64-1.9-1.02 0-1.52.5-1.52 1.51h-4.28c0-1.33.57-2.4 1.69-3.23 1.13-.83 2.57-1.24 4.32-1.24s3.14.43 4.15 1.28 1.54 2.03 1.56 3.52v6.08c.02 1.26.21 2.23.58 2.89v.22h-4.26zm-2.68-2.79c.53 0 .98-.11 1.33-.34.35-.23.6-.49.75-.77v-2.2h-1.24c-1.49 0-2.23.67-2.23 2.01 0 .39.13.7.39.95s.59.35 1 .35zM785.79 101.35c.6 0 1.07-.16 1.4-.49s.49-.78.48-1.36h4.01c0 1.51-.54 2.74-1.62 3.71-1.08.96-2.47 1.45-4.17 1.45-2 0-3.57-.63-4.72-1.88s-1.73-2.99-1.73-5.21v-.18c0-1.39.26-2.61.77-3.68.51-1.06 1.25-1.88 2.22-2.45s2.11-.86 3.43-.86c1.79 0 3.2.5 4.25 1.49s1.57 2.33 1.57 4.02h-4.01c0-.71-.17-1.26-.52-1.64s-.81-.57-1.4-.57c-1.11 0-1.76.71-1.94 2.12-.06.45-.09 1.07-.09 1.85 0 1.38.17 2.34.5 2.87s.85.81 1.57.81zM799.29 101.35c.6 0 1.07-.16 1.4-.49s.49-.78.48-1.36h4.01c0 1.51-.54 2.74-1.62 3.71-1.08.96-2.47 1.45-4.17 1.45-2 0-3.57-.63-4.72-1.88s-1.73-2.99-1.73-5.21v-.18c0-1.39.26-2.61.77-3.68.51-1.06 1.25-1.88 2.22-2.45s2.11-.86 3.43-.86c1.79 0 3.2.5 4.25 1.49s1.57 2.33 1.57 4.02h-4.01c0-.71-.17-1.26-.52-1.64s-.81-.57-1.4-.57c-1.11 0-1.76.71-1.94 2.12-.06.45-.09 1.07-.09 1.85 0 1.38.17 2.34.5 2.87s.85.81 1.57.81zM806.45 97.4c0-1.37.27-2.59.8-3.66s1.3-1.89 2.3-2.47 2.17-.86 3.52-.86c2.06 0 3.68.64 4.86 1.91s1.78 3.01 1.78 5.2v.15c0 2.14-.59 3.84-1.78 5.1-1.19 1.26-2.8 1.89-4.83 1.89-1.96 0-3.53-.59-4.71-1.76s-1.82-2.76-1.92-4.77l-.02-.73zm4.28.26c0 1.27.2 2.2.6 2.79s.99.89 1.76.89c1.52 0 2.3-1.17 2.34-3.52v-.42c0-2.46-.79-3.69-2.36-3.69-1.43 0-2.21 1.06-2.32 3.19l-.02.76zM829.77 102.91c-.91 1.16-2.13 1.74-3.67 1.74-1.51 0-2.65-.44-3.42-1.31-.77-.88-1.16-2.13-1.16-3.78v-8.9h4.28v8.92c0 1.18.57 1.76 1.71 1.76.98 0 1.68-.35 2.09-1.05v-9.64h4.3v13.74h-4.01l-.12-1.48zM840.18 90.66l.14 1.61c.95-1.24 2.26-1.87 3.92-1.87 1.43 0 2.5.43 3.21 1.28.71.85 1.07 2.14 1.1 3.86v8.85h-4.29v-8.67c0-.69-.14-1.2-.42-1.53s-.79-.49-1.52-.49c-.84 0-1.46.33-1.87.99v9.7h-4.28V90.66h4.01zM855.9 87.24v3.42h2.26v2.97h-2.26v6.28c0 .52.09.88.28 1.08s.55.3 1.1.3c.42 0 .78-.03 1.07-.08v3.06c-.77.25-1.57.37-2.41.37-1.47 0-2.56-.35-3.26-1.04s-1.05-1.75-1.05-3.16v-6.82h-1.75v-2.97h1.75v-3.42h4.27zM867.04 100.53c0-.36-.19-.66-.57-.88s-1.1-.45-2.17-.69-1.95-.55-2.64-.93-1.22-.85-1.59-1.4-.55-1.18-.55-1.89c0-1.26.52-2.3 1.56-3.12s2.4-1.23 4.09-1.23c1.81 0 3.27.41 4.37 1.23s1.65 1.9 1.65 3.24h-4.29c0-1.1-.58-1.65-1.74-1.65-.45 0-.83.12-1.13.37s-.46.56-.46.93c0 .38.19.69.56.93s.97.43 1.78.58c.82.15 1.53.33 2.15.55 2.07.71 3.1 1.98 3.1 3.82 0 1.25-.56 2.27-1.67 3.06-1.11.79-2.55 1.18-4.32 1.18-1.18 0-2.23-.21-3.15-.63s-1.64-1-2.16-1.73-.77-1.49-.77-2.3h4c.02.63.23 1.1.63 1.39s.93.44 1.56.44c.58 0 1.02-.12 1.31-.36.3-.22.45-.53.45-.91z"/></svg>