<svg id="Layer_1" xmlns="http://www.w3.org/2000/svg" viewBox="0 0 970 250"><style>.st0{fill:#782eeb}</style><path class="st0" d="M708.19 101.35c.6 0 1.07-.16 1.4-.49s.49-.78.48-1.36h4.01c0 1.51-.54 2.74-1.62 3.71-1.08.96-2.47 1.45-4.17 1.45-2 0-3.57-.63-4.72-1.88s-1.73-2.99-1.73-5.21v-.18c0-1.39.26-2.61.77-3.68.51-1.06 1.25-1.88 2.22-2.45s2.11-.86 3.43-.86c1.79 0 3.2.5 4.25 1.49s1.57 2.33 1.57 4.02h-4.01c0-.71-.17-1.26-.52-1.64s-.81-.57-1.4-.57c-1.11 0-1.76.71-1.94 2.12-.06.45-.09 1.07-.09 1.85 0 1.38.17 2.34.5 2.87s.85.81 1.57.81zM724.2 94.53l-1.41-.1c-1.35 0-2.21.42-2.59 1.27v8.7h-4.28V90.66h4.01l.14 1.76c.72-1.35 1.72-2.02 3.01-2.02.46 0 .85.05 1.19.15l-.07 3.98zM732.39 104.65c-2.11 0-3.81-.63-5.12-1.89s-1.96-2.89-1.96-4.91v-.35c0-1.4.26-2.65.78-3.72.52-1.07 1.28-1.91 2.28-2.49s2.18-.88 3.55-.88c1.93 0 3.45.6 4.57 1.8s1.68 2.87 1.68 5.01v1.66h-8.51c.15.77.49 1.38 1 1.82s1.18.66 2.01.66c1.35 0 2.41-.47 3.17-1.42l1.96 2.31c-.53.74-1.29 1.32-2.27 1.76-.96.42-2.01.64-3.14.64zm-.48-10.95c-1.25 0-2 .83-2.23 2.49H734v-.33c.02-.69-.16-1.22-.52-1.59s-.9-.57-1.57-.57zM739.36 97.42c0-2.18.47-3.89 1.41-5.14s2.25-1.88 3.94-1.88c1.23 0 2.26.48 3.1 1.45v-6.96h4.29v19.5h-3.85l-.22-1.47c-.88 1.15-2 1.73-3.35 1.73-1.63 0-2.93-.63-3.88-1.88s-1.44-3.04-1.44-5.35zm4.28.27c0 2.44.71 3.66 2.13 3.66.95 0 1.62-.4 2.03-1.19v-5.23c-.39-.81-1.06-1.22-2.01-1.22-1.32 0-2.04 1.07-2.15 3.2v.78zM754.49 87.11c0-.61.22-1.11.66-1.5s1.01-.58 1.71-.58 1.27.19 1.71.58.66.89.66 1.5-.22 1.11-.66 1.5-1.01.58-1.71.58-1.27-.19-1.71-.58-.66-.89-.66-1.5zm4.55 17.28h-4.29V90.66h4.29v13.73zM766.65 87.24v3.42h2.26v2.97h-2.26v6.28c0 .52.09.88.28 1.08s.55.3 1.1.3c.42 0 .78-.03 1.07-.08v3.06c-.77.25-1.57.37-2.41.37-1.47 0-2.56-.35-3.26-1.04s-1.05-1.75-1.05-3.16v-6.82h-1.75v-2.97h1.75v-3.42h4.27zM782.88 101.35c.6 0 1.07-.16 1.4-.49s.49-.78.48-1.36h4.01c0 1.51-.54 2.74-1.62 3.71-1.08.96-2.47 1.45-4.17 1.45-2 0-3.57-.63-4.72-1.88s-1.73-2.99-1.73-5.21v-.18c0-1.39.26-2.61.77-3.68.51-1.06 1.25-1.88 2.22-2.45s2.11-.86 3.43-.86c1.79 0 3.2.5 4.25 1.49s1.57 2.33 1.57 4.02h-4.01c0-.71-.17-1.26-.52-1.64s-.81-.57-1.4-.57c-1.11 0-1.76.71-1.94 2.12-.06.45-.09 1.07-.09 1.85 0 1.38.17 2.34.5 2.87s.85.81 1.57.81zM798.32 104.39c-.15-.28-.29-.69-.41-1.23-.79.99-1.89 1.49-3.3 1.49-1.29 0-2.4-.39-3.3-1.17s-1.36-1.77-1.36-2.95c0-1.49.55-2.62 1.65-3.38s2.7-1.14 4.8-1.14h1.32v-.73c0-1.27-.55-1.9-1.64-1.9-1.02 0-1.52.5-1.52 1.51h-4.28c0-1.33.57-2.4 1.69-3.23 1.13-.83 2.57-1.24 4.32-1.24s3.14.43 4.15 1.28 1.54 2.03 1.56 3.52v6.08c.02 1.26.21 2.23.58 2.89v.22h-4.26zm-2.68-2.79c.53 0 .98-.11 1.33-.34.35-.23.6-.49.75-.77v-2.2h-1.24c-1.49 0-2.23.67-2.23 2.01 0 .39.13.7.39.95s.59.35 1 .35zM812.69 94.53l-1.41-.1c-1.35 0-2.21.42-2.59 1.27v8.7h-4.28V90.66h4.01l.14 1.76c.72-1.35 1.72-2.02 3.01-2.02.46 0 .85.05 1.19.15l-.07 3.98zM813.69 97.42c0-2.18.47-3.89 1.41-5.14s2.25-1.88 3.94-1.88c1.23 0 2.26.48 3.1 1.45v-6.96h4.29v19.5h-3.85l-.22-1.47c-.88 1.15-2 1.73-3.35 1.73-1.63 0-2.93-.63-3.88-1.88s-1.44-3.04-1.44-5.35zm4.28.27c0 2.44.71 3.66 2.13 3.66.95 0 1.62-.4 2.03-1.19v-5.23c-.39-.81-1.06-1.22-2.01-1.22-1.32 0-2.04 1.07-2.15 3.2v.78zM836.05 100.53c0-.36-.19-.66-.57-.88s-1.1-.45-2.17-.69-1.95-.55-2.64-.93-1.22-.85-1.59-1.4-.55-1.18-.55-1.89c0-1.26.52-2.3 1.56-3.12s2.4-1.23 4.09-1.23c1.81 0 3.27.41 4.37 1.23s1.65 1.9 1.65 3.24h-4.29c0-1.1-.58-1.65-1.74-1.65-.45 0-.83.12-1.13.37s-.46.56-.46.93c0 .38.19.69.56.93s.97.43 1.78.58c.82.15 1.53.33 2.15.55 2.07.71 3.1 1.98 3.1 3.82 0 1.25-.56 2.27-1.67 3.06-1.11.79-2.55 1.18-4.32 1.18-1.18 0-2.23-.21-3.15-.63s-1.64-1-2.16-1.73-.77-1.49-.77-2.3h4c.02.63.23 1.1.63 1.39s.93.44 1.56.44c.58 0 1.02-.12 1.31-.36.3-.22.45-.53.45-.91z"/></svg>