<svg id="Layer_1" xmlns="http://www.w3.org/2000/svg" viewBox="0 0 970 250"><style>.st0{fill:#18b9fb}</style><path class="st0" d="M712.12 99.48c0-.65-.23-1.16-.69-1.52-.46-.36-1.27-.74-2.43-1.13s-2.11-.77-2.84-1.13c-2.4-1.18-3.59-2.79-3.59-4.85 0-1.02.3-1.93.89-2.71.6-.78 1.44-1.39 2.53-1.83s2.32-.65 3.68-.65c1.33 0 2.52.24 3.57.71 1.05.47 1.87 1.15 2.46 2.02s.88 1.88.88 3h-4.44c0-.75-.23-1.34-.69-1.75-.46-.41-1.09-.62-1.87-.62-.8 0-1.42.18-1.88.53-.46.35-.69.8-.69 1.34 0 .47.25.9.76 1.29s1.4.78 2.68 1.19 2.33.85 3.15 1.33c2 1.15 3 2.74 3 4.76 0 1.62-.61 2.89-1.83 3.81s-2.89 1.38-5.01 1.38c-1.5 0-2.85-.27-4.07-.81-1.21-.54-2.13-1.27-2.74-2.21-.61-.94-.92-2.01-.92-3.23h4.47c0 .99.26 1.72.77 2.19s1.34.7 2.5.7c.74 0 1.32-.16 1.75-.48.38-.31.6-.76.6-1.33zM718.12 97.4c0-1.37.27-2.59.8-3.66s1.3-1.89 2.3-2.47 2.17-.86 3.52-.86c2.06 0 3.68.64 4.86 1.91s1.78 3.01 1.78 5.2v.15c0 2.14-.59 3.84-1.78 5.1-1.19 1.26-2.8 1.89-4.83 1.89-1.96 0-3.53-.59-4.71-1.76s-1.82-2.76-1.92-4.77l-.02-.73zm4.28.26c0 1.27.2 2.2.6 2.79s.99.89 1.76.89c1.52 0 2.3-1.17 2.34-3.52v-.42c0-2.46-.79-3.69-2.36-3.69-1.43 0-2.21 1.06-2.32 3.19l-.02.76zM739.07 101.35c.6 0 1.07-.16 1.4-.49s.49-.78.48-1.36h4.01c0 1.51-.54 2.74-1.62 3.71-1.08.96-2.47 1.45-4.17 1.45-2 0-3.57-.63-4.72-1.88s-1.73-2.99-1.73-5.21v-.18c0-1.39.26-2.61.77-3.68.51-1.06 1.25-1.88 2.22-2.45s2.11-.86 3.43-.86c1.79 0 3.2.5 4.25 1.49s1.57 2.33 1.57 4.02h-4.01c0-.71-.17-1.26-.52-1.64s-.81-.57-1.4-.57c-1.11 0-1.76.71-1.94 2.12-.06.45-.09 1.07-.09 1.85 0 1.38.17 2.34.5 2.87s.85.81 1.57.81zM746.74 87.11c0-.61.22-1.11.66-1.5s1.01-.58 1.71-.58 1.27.19 1.71.58.66.89.66 1.5-.22 1.11-.66 1.5-1.01.58-1.71.58-1.27-.19-1.71-.58-.66-.89-.66-1.5zm4.54 17.28h-4.29V90.66h4.29v13.73zM761.65 104.39c-.15-.28-.29-.69-.41-1.23-.79.99-1.89 1.49-3.3 1.49-1.29 0-2.4-.39-3.3-1.17s-1.36-1.77-1.36-2.95c0-1.49.55-2.62 1.65-3.38s2.7-1.14 4.8-1.14h1.32v-.73c0-1.27-.55-1.9-1.64-1.9-1.02 0-1.52.5-1.52 1.51h-4.28c0-1.33.57-2.4 1.69-3.23 1.13-.83 2.57-1.24 4.32-1.24s3.14.43 4.15 1.28 1.54 2.03 1.56 3.52v6.08c.02 1.26.21 2.23.58 2.89v.22h-4.26zm-2.68-2.79c.53 0 .98-.11 1.33-.34.35-.23.6-.49.75-.77v-2.2h-1.24c-1.49 0-2.23.67-2.23 2.01 0 .39.13.7.39.95s.6.35 1 .35zM772.23 104.39h-4.29v-19.5h4.29v19.5zM791.07 99.48c0-.65-.23-1.16-.69-1.52-.46-.36-1.27-.74-2.43-1.13s-2.11-.77-2.84-1.13c-2.4-1.18-3.59-2.79-3.59-4.85 0-1.02.3-1.93.89-2.71.6-.78 1.44-1.39 2.53-1.83s2.32-.65 3.68-.65c1.33 0 2.52.24 3.57.71 1.05.47 1.87 1.15 2.46 2.02s.88 1.88.88 3h-4.44c0-.75-.23-1.34-.69-1.75-.46-.41-1.09-.62-1.87-.62-.8 0-1.42.18-1.88.53-.46.35-.69.8-.69 1.34 0 .47.25.9.76 1.29s1.4.78 2.68 1.19 2.33.85 3.15 1.33c2 1.15 3 2.74 3 4.76 0 1.62-.61 2.89-1.83 3.81s-2.89 1.38-5.01 1.38c-1.5 0-2.85-.27-4.07-.81-1.21-.54-2.13-1.27-2.74-2.21-.61-.94-.92-2.01-.92-3.23h4.47c0 .99.26 1.72.77 2.19s1.34.7 2.5.7c.74 0 1.32-.16 1.75-.48.38-.31.6-.76.6-1.33zM804.26 104.65c-2.11 0-3.81-.63-5.12-1.89s-1.96-2.89-1.96-4.91v-.35c0-1.4.26-2.65.78-3.72.52-1.07 1.28-1.91 2.28-2.49s2.18-.88 3.55-.88c1.93 0 3.45.6 4.57 1.8s1.68 2.87 1.68 5.01v1.66h-8.51c.15.77.49 1.38 1 1.82s1.18.66 2.01.66c1.35 0 2.41-.47 3.17-1.42l1.96 2.31c-.53.74-1.29 1.32-2.27 1.76a7.8 7.8 0 0 1-3.14.64zm-.48-10.95c-1.25 0-2 .83-2.23 2.49h4.32v-.33c.02-.69-.16-1.22-.52-1.59s-.9-.57-1.57-.57zM817.58 101.35c.6 0 1.07-.16 1.4-.49s.49-.78.48-1.36h4.01c0 1.51-.54 2.74-1.62 3.71-1.08.96-2.47 1.45-4.17 1.45-2 0-3.57-.63-4.72-1.88s-1.73-2.99-1.73-5.21v-.18c0-1.39.26-2.61.77-3.68.51-1.06 1.25-1.88 2.22-2.45s2.11-.86 3.43-.86c1.79 0 3.2.5 4.25 1.49s1.57 2.33 1.57 4.02h-4.01c0-.71-.17-1.26-.52-1.64s-.81-.57-1.4-.57c-1.11 0-1.76.71-1.94 2.12-.06.45-.09 1.07-.09 1.85 0 1.38.17 2.34.5 2.87s.85.81 1.57.81zM833.46 102.91c-.91 1.16-2.13 1.74-3.67 1.74-1.51 0-2.65-.44-3.42-1.31-.77-.88-1.16-2.13-1.16-3.78v-8.9h4.28v8.92c0 1.18.57 1.76 1.71 1.76.98 0 1.68-.35 2.09-1.05v-9.64h4.3v13.74h-4.01l-.12-1.48zM848.25 94.53l-1.41-.1c-1.35 0-2.21.42-2.59 1.27v8.7h-4.28V90.66h4.01l.14 1.76c.72-1.35 1.72-2.02 3.01-2.02.46 0 .85.05 1.19.15l-.07 3.98zM849.76 87.11c0-.61.22-1.11.66-1.5s1.01-.58 1.71-.58 1.27.19 1.71.58.66.89.66 1.5-.22 1.11-.66 1.5-1.01.58-1.71.58-1.27-.19-1.71-.58-.66-.89-.66-1.5zm4.54 17.28h-4.29V90.66h4.29v13.73zM861.92 87.24v3.42h2.26v2.97h-2.26v6.28c0 .52.09.88.28 1.08s.55.3 1.1.3c.42 0 .78-.03 1.07-.08v3.06c-.77.25-1.57.37-2.41.37-1.47 0-2.56-.35-3.26-1.04s-1.05-1.75-1.05-3.16v-6.82h-1.75v-2.97h1.75v-3.42h4.27zM871.35 98.4l2.29-7.74h4.58l-5.6 16.03-.24.58c-.8 1.78-2.2 2.67-4.21 2.67-.56 0-1.15-.08-1.76-.25v-3.05h.56c.6 0 1.06-.09 1.38-.26.32-.17.55-.49.7-.93l.34-.91-4.77-13.87h4.57l2.16 7.73zM718.02 135.59h-4.43l-6.55-11.5v11.5h-4.46v-18.48h4.46l6.54 11.5v-11.5h4.44v18.48zM728.82 134.11c-.91 1.16-2.13 1.74-3.67 1.74-1.51 0-2.65-.44-3.42-1.31-.77-.88-1.16-2.13-1.16-3.78v-8.9h4.28v8.92c0 1.18.57 1.76 1.71 1.76.98 0 1.68-.35 2.09-1.05v-9.64h4.3v13.74h-4.01l-.12-1.48zM739.35 121.86l.14 1.61c.97-1.24 2.28-1.87 3.92-1.87 1.74 0 2.91.69 3.52 2.07.93-1.38 2.28-2.07 4.04-2.07 2.78 0 4.21 1.68 4.29 5.05v8.94h-4.29v-8.67c0-.7-.12-1.21-.36-1.54s-.67-.48-1.29-.48c-.85 0-1.48.38-1.89 1.13l.01.18v9.38h-4.29v-8.65c0-.72-.11-1.24-.34-1.56s-.66-.48-1.31-.48c-.82 0-1.45.38-1.88 1.13v9.56h-4.28v-13.74h4.01zM770.45 128.84c0 2.25-.47 3.98-1.4 5.19-.93 1.21-2.24 1.82-3.94 1.82-1.4 0-2.52-.55-3.38-1.66l-.18 1.41h-3.83v-19.5H762v6.87c.8-.91 1.82-1.36 3.08-1.36 1.71 0 3.03.61 3.96 1.84s1.4 2.95 1.4 5.18v.21zm-4.29-.28c0-1.32-.18-2.26-.53-2.82-.35-.56-.89-.84-1.62-.84-.96 0-1.63.37-2.01 1.1v5.45c.36.73 1.04 1.09 2.03 1.09 1.01 0 1.65-.49 1.92-1.47.14-.48.21-1.31.21-2.51zM778.98 135.85c-2.11 0-3.81-.63-5.12-1.89s-1.96-2.89-1.96-4.91v-.36c0-1.41.26-2.65.78-3.72.52-1.07 1.28-1.91 2.28-2.49s2.18-.88 3.55-.88c1.93 0 3.45.6 4.57 1.8s1.68 2.87 1.68 5.01v1.66h-8.51c.15.77.49 1.38 1 1.82.52.44 1.18.66 2.01.66 1.35 0 2.41-.47 3.17-1.42l1.96 2.31c-.53.74-1.29 1.32-2.27 1.76-.96.43-2.01.65-3.14.65zm-.48-10.95c-1.25 0-2 .83-2.23 2.49h4.32v-.33c.02-.69-.16-1.22-.52-1.59s-.89-.57-1.57-.57zM794.8 125.73l-1.41-.1c-1.35 0-2.21.42-2.59 1.27v8.7h-4.28v-13.74h4.01l.14 1.76c.72-1.35 1.72-2.02 3.01-2.02.46 0 .85.05 1.19.15l-.07 3.98z"/></svg>