<svg id="Layer_1" xmlns="http://www.w3.org/2000/svg" viewBox="0 0 970 250"><style>.st0{fill:#021d8b}</style><path class="st0" d="M310.62 183.2c0-.41-.14-.76-.43-1.04s-.77-.54-1.45-.76c-.95-.29-1.64-.67-2.08-1.13s-.65-1.06-.65-1.77c0-.73.21-1.33.64-1.8.42-.47 1.01-.75 1.75-.84v-1.46h1v1.47c.75.1 1.33.42 1.75.94.42.53.62 1.25.62 2.16h-1.23c0-.63-.15-1.13-.45-1.5-.3-.37-.7-.56-1.21-.56-.53 0-.94.14-1.22.41-.28.28-.42.66-.42 1.15 0 .46.15.82.44 1.09.3.27.78.52 1.46.74.68.22 1.21.46 1.59.73.38.26.66.57.84.93.18.35.27.76.27 1.24 0 .75-.23 1.36-.68 1.82-.45.46-1.09.73-1.9.82v1.28h-.99v-1.28c-.83-.08-1.48-.37-1.95-.88-.47-.52-.71-1.21-.71-2.1h1.24c0 .62.16 1.1.49 1.43.33.33.79.5 1.38.5.58 0 1.04-.14 1.38-.42s.52-.69.52-1.17zM317.45 185.71h-1.24v-8.24l-2.49.91v-1.12l3.54-1.33h.19v9.78zM326.27 176.72v1.75h1.35v.96h-1.35v4.49c0 .29.06.51.18.65s.33.22.61.22c.14 0 .34-.03.59-.08v1c-.33.09-.64.13-.95.13-.55 0-.97-.17-1.25-.5-.28-.34-.42-.81-.42-1.42v-4.48h-1.32v-.96h1.32v-1.75h1.24zM332.56 179.58c-.19-.03-.39-.05-.61-.05-.81 0-1.36.35-1.65 1.04v5.13h-1.24v-7.23h1.2l.02.84c.41-.65.98-.97 1.72-.97.24 0 .42.03.55.09v1.15zM333.7 176.55c0-.2.06-.37.18-.51s.3-.21.54-.21.42.07.55.21.19.31.19.51-.06.37-.19.5c-.12.13-.31.2-.55.2s-.42-.07-.54-.2a.697.697 0 0 1-.18-.5zm1.34 9.16h-1.24v-7.23h1.24v7.23zM341.48 185.71c-.07-.14-.13-.4-.17-.76-.58.6-1.26.89-2.06.89-.71 0-1.3-.2-1.75-.6-.46-.4-.68-.92-.68-1.54 0-.75.29-1.34.86-1.75.57-.42 1.38-.62 2.42-.62h1.2v-.57c0-.43-.13-.78-.39-1.03-.26-.26-.64-.38-1.14-.38-.44 0-.81.11-1.11.33s-.45.49-.45.81h-1.24c0-.36.13-.71.38-1.05.26-.34.6-.6 1.04-.8.44-.2.92-.29 1.45-.29.83 0 1.49.21 1.96.62.47.42.72.99.73 1.72v3.33c0 .66.08 1.19.25 1.58v.11h-1.3zm-2.05-.95c.39 0 .75-.1 1.1-.3.35-.2.6-.46.75-.78v-1.48h-.97c-1.51 0-2.27.44-2.27 1.33 0 .39.13.69.39.91.26.21.59.32 1 .32zM345.8 185.71h-1.24v-10.27h1.24v10.27zM351.78 185.71v-6.28h-1.14v-.96h1.14v-.74c0-.78.21-1.37.62-1.8.42-.42 1-.63 1.76-.63.29 0 .57.04.85.11l-.07 1c-.21-.04-.43-.06-.67-.06-.4 0-.71.12-.93.35-.22.23-.33.57-.33 1.01v.76h1.54v.96h-1.54v6.28h-1.23zM355.6 182.02c0-.71.14-1.35.42-1.91.28-.57.67-1 1.16-1.31.5-.31 1.06-.46 1.7-.46.98 0 1.78.34 2.39 1.02s.91 1.59.91 2.72v.09c0 .7-.13 1.33-.4 1.89-.27.56-.66.99-1.16 1.31-.5.31-1.08.47-1.73.47-.98 0-1.77-.34-2.38-1.02s-.91-1.58-.91-2.71v-.09zm1.24.15c0 .8.19 1.45.56 1.93.37.49.87.73 1.49.73.63 0 1.13-.25 1.5-.74.37-.49.55-1.18.55-2.07 0-.79-.19-1.44-.56-1.93-.38-.49-.88-.74-1.5-.74-.61 0-1.1.24-1.48.73-.38.49-.56 1.18-.56 2.09zM367.22 179.58c-.19-.03-.39-.05-.61-.05-.81 0-1.36.35-1.65 1.04v5.13h-1.24v-7.23h1.2l.02.84c.41-.65.98-.97 1.72-.97.24 0 .42.03.55.09v1.15zM373.43 176.72v1.75h1.35v.96h-1.35v4.49c0 .29.06.51.18.65s.33.22.61.22c.14 0 .34-.03.59-.08v1c-.33.09-.64.13-.95.13-.55 0-.97-.17-1.25-.5-.28-.34-.42-.81-.42-1.42v-4.48h-1.32v-.96h1.32v-1.75h1.24zM377.46 179.35c.55-.67 1.26-1.01 2.14-1.01 1.53 0 2.3.86 2.31 2.59v4.78h-1.24v-4.79c0-.52-.12-.91-.36-1.16-.23-.25-.6-.38-1.09-.38-.4 0-.75.11-1.06.32-.3.21-.54.5-.71.84v5.15h-1.24v-10.27h1.24v3.93zM386.76 185.84c-.98 0-1.78-.32-2.39-.96-.62-.64-.92-1.51-.92-2.58v-.23c0-.72.14-1.36.41-1.92.27-.56.66-1 1.15-1.32.49-.32 1.03-.48 1.6-.48.94 0 1.67.31 2.19.93.52.62.78 1.51.78 2.66v.52h-4.9c.02.71.23 1.29.62 1.73.4.44.91.66 1.52.66.44 0 .81-.09 1.11-.27.3-.18.57-.42.79-.71l.75.59c-.59.91-1.5 1.38-2.71 1.38zm-.15-6.48c-.5 0-.92.18-1.26.54s-.55.87-.63 1.53h3.62v-.09c-.04-.63-.21-1.12-.51-1.46s-.71-.52-1.22-.52zM395.01 185.71v-6.28h-1.14v-.96h1.14v-.74c0-.78.21-1.37.62-1.8.42-.42 1-.63 1.76-.63.29 0 .57.04.85.11l-.07 1c-.21-.04-.43-.06-.67-.06-.4 0-.71.12-.93.35-.22.23-.33.57-.33 1.01v.76h1.54v.96h-1.54v6.28h-1.23zM399.16 176.55c0-.2.06-.37.18-.51s.3-.21.54-.21.42.07.55.21.19.31.19.51-.06.37-.19.5c-.12.13-.31.2-.55.2s-.42-.07-.54-.2a.697.697 0 0 1-.18-.5zm1.33 9.16h-1.24v-7.23h1.24v7.23zM405.97 179.58c-.19-.03-.39-.05-.61-.05-.81 0-1.36.35-1.65 1.04v5.13h-1.24v-7.23h1.2l.02.84c.41-.65.98-.97 1.72-.97.24 0 .42.03.55.09v1.15zM411.31 183.79c0-.33-.13-.59-.38-.78s-.69-.34-1.32-.48c-.63-.13-1.12-.29-1.49-.48-.37-.19-.64-.41-.82-.67-.18-.26-.26-.57-.26-.92 0-.59.25-1.09.75-1.5.5-.41 1.14-.62 1.92-.62.82 0 1.48.21 2 .63.51.42.76.96.76 1.62h-1.24c0-.34-.14-.63-.43-.88-.29-.24-.65-.37-1.09-.37-.45 0-.8.1-1.06.29-.25.2-.38.45-.38.77 0 .3.12.52.35.68.24.15.66.29 1.28.43s1.12.3 1.5.49c.38.19.67.42.85.69.18.27.28.6.28.99 0 .65-.26 1.16-.78 1.55-.52.39-1.19.58-2.01.58-.58 0-1.09-.1-1.54-.31s-.79-.49-1.05-.86-.38-.77-.38-1.19h1.24c.02.41.19.74.5.99s.72.36 1.23.36c.47 0 .84-.09 1.13-.28s.44-.42.44-.73zM415.84 176.72v1.75h1.35v.96h-1.35v4.49c0 .29.06.51.18.65s.33.22.61.22c.14 0 .34-.03.59-.08v1c-.33.09-.64.13-.95.13-.55 0-.97-.17-1.25-.5-.28-.34-.42-.81-.42-1.42v-4.48h-1.32v-.96h1.32v-1.75h1.24zM426.67 185.71h-2.26v-7.19l-2.22.65v-1.71l4.27-1.48h.21v9.73zM435.56 181.9h.99v1.74h-.99v2.07h-2.25v-2.07h-3.76l-.13-1.38 3.9-6.27v-.02h2.25v5.93zm-4.01 0h1.75v-2.99l-.14.23-1.61 2.76zM440.69 182.04c0-1.14.25-2.05.74-2.71.49-.66 1.18-.99 2.07-.99.65 0 1.19.25 1.63.76v-3.66h2.26v10.27h-2.02l-.11-.78c-.46.61-1.05.91-1.76.91-.86 0-1.54-.33-2.04-.99-.51-.66-.77-1.6-.77-2.81zm2.26.14c0 1.28.37 1.92 1.12 1.92.5 0 .86-.21 1.07-.63v-2.75c-.21-.43-.56-.64-1.06-.64-.7 0-1.07.56-1.13 1.68v.42zM452.75 185.71c-.08-.15-.15-.36-.21-.65-.41.52-.99.78-1.74.78-.68 0-1.26-.21-1.74-.62s-.71-.93-.71-1.55c0-.78.29-1.38.87-1.78.58-.4 1.42-.6 2.53-.6h.69v-.38c0-.67-.29-1-.86-1-.54 0-.8.26-.8.79h-2.25c0-.7.3-1.27.89-1.7.59-.44 1.35-.65 2.28-.65.92 0 1.65.22 2.19.67.53.45.81 1.07.82 1.85v3.2c.01.66.11 1.17.31 1.53v.11h-2.27zm-1.41-1.48c.28 0 .51-.06.7-.18.18-.12.32-.26.4-.41v-1.16h-.65c-.78 0-1.18.35-1.18 1.05 0 .21.07.37.21.5.13.14.31.2.52.2zM458.83 182.55l1.2-4.08h2.41l-2.95 8.44-.13.31c-.42.94-1.16 1.4-2.22 1.4-.29 0-.6-.04-.93-.13v-1.61h.29c.32 0 .56-.04.72-.14s.29-.26.37-.49l.18-.48-2.51-7.3h2.41l1.16 4.08zM466.82 183.67c0-.19-.1-.34-.3-.46-.2-.12-.58-.24-1.14-.36-.56-.12-1.02-.29-1.39-.49s-.64-.45-.83-.74a1.78 1.78 0 0 1-.29-1c0-.66.27-1.21.82-1.64s1.27-.64 2.15-.64c.95 0 1.72.21 2.3.65.58.43.87 1 .87 1.7h-2.26c0-.58-.3-.87-.92-.87-.24 0-.43.07-.59.2-.16.13-.24.3-.24.49 0 .2.1.36.29.49.2.12.51.23.94.31s.81.18 1.13.29c1.09.38 1.63 1.04 1.63 2.01 0 .66-.29 1.2-.88 1.61s-1.34.62-2.28.62c-.62 0-1.17-.11-1.66-.33-.49-.22-.86-.53-1.14-.91s-.41-.79-.41-1.21h2.1c.01.33.12.58.33.73s.49.23.82.23c.31 0 .54-.06.69-.19.18-.12.26-.29.26-.49zM470.31 187.64l-.7-.48c.42-.58.64-1.19.66-1.8v-1.12h1.21v.97c0 .45-.11.9-.33 1.35-.23.45-.51.81-.84 1.08zM321.46 203.5v3.81h-1.28v-9.73h3.59c1.06 0 1.9.27 2.5.81.6.54.91 1.26.91 2.16 0 .94-.29 1.67-.89 2.18-.59.51-1.44.77-2.54.77h-2.29zm0-1.04h2.31c.69 0 1.21-.16 1.58-.49s.55-.79.55-1.4c0-.58-.18-1.04-.55-1.39s-.87-.53-1.5-.54h-2.38v3.82zM329.96 207.31h-1.24v-10.27h1.24v10.27zM336.4 207.31c-.07-.14-.13-.4-.17-.76-.58.6-1.26.9-2.06.9-.71 0-1.3-.2-1.75-.61-.46-.4-.68-.91-.68-1.53 0-.75.29-1.34.86-1.76.57-.42 1.38-.62 2.42-.62h1.2v-.57c0-.43-.13-.78-.39-1.03-.26-.26-.64-.38-1.14-.38-.44 0-.81.11-1.11.33s-.45.49-.45.81h-1.24c0-.36.13-.71.38-1.04s.6-.6 1.04-.8c.44-.2.92-.29 1.45-.29.83 0 1.49.21 1.96.62.47.42.72.99.73 1.72v3.33c0 .66.08 1.19.25 1.58v.11h-1.3zm-2.05-.94c.39 0 .75-.1 1.1-.3.35-.2.6-.46.75-.78v-1.48h-.97c-1.51 0-2.27.44-2.27 1.33 0 .39.13.69.39.91s.6.32 1 .32zM340.56 200.08l.04.91c.55-.7 1.27-1.04 2.17-1.04 1.53 0 2.3.86 2.31 2.59v4.78h-1.24v-4.79c0-.52-.12-.91-.36-1.16-.23-.25-.6-.37-1.09-.37-.4 0-.75.11-1.06.32-.3.21-.54.49-.71.84v5.15h-1.24v-7.23h1.18zM351.15 205.39a.93.93 0 0 0-.38-.78c-.25-.19-.69-.35-1.32-.48-.63-.13-1.12-.29-1.49-.48-.37-.19-.64-.41-.82-.67-.18-.26-.26-.56-.26-.92 0-.59.25-1.09.75-1.5.5-.41 1.14-.62 1.92-.62.82 0 1.48.21 2 .63.51.42.76.96.76 1.62h-1.24c0-.34-.14-.63-.43-.88s-.65-.37-1.09-.37c-.45 0-.8.1-1.06.29s-.38.45-.38.77c0 .3.12.52.35.67.24.15.66.3 1.28.44s1.12.3 1.5.49c.38.19.67.42.85.69.18.27.28.6.28.99 0 .64-.26 1.16-.78 1.55-.52.39-1.19.59-2.01.59-.58 0-1.09-.1-1.54-.31s-.79-.49-1.05-.86a2.1 2.1 0 0 1-.38-1.19h1.24c.02.41.19.74.5.98s.72.37 1.23.37c.47 0 .84-.09 1.13-.28s.44-.42.44-.74zM361.59 205.39a.93.93 0 0 0-.38-.78c-.25-.19-.69-.35-1.32-.48-.63-.13-1.12-.29-1.49-.48-.37-.19-.64-.41-.82-.67-.18-.26-.26-.56-.26-.92 0-.59.25-1.09.75-1.5.5-.41 1.14-.62 1.92-.62.82 0 1.48.21 2 .63.51.42.76.96.76 1.62h-1.24c0-.34-.14-.63-.43-.88s-.65-.37-1.09-.37c-.45 0-.8.1-1.06.29s-.38.45-.38.77c0 .3.12.52.35.67.24.15.66.3 1.28.44s1.12.3 1.5.49c.38.19.67.42.85.69.18.27.28.6.28.99 0 .64-.26 1.16-.78 1.55-.52.39-1.19.59-2.01.59-.58 0-1.09-.1-1.54-.31s-.79-.49-1.05-.86a2.1 2.1 0 0 1-.38-1.19h1.24c.02.41.19.74.5.98s.72.37 1.23.37c.47 0 .84-.09 1.13-.28s.44-.42.44-.74zM366.12 198.33v1.75h1.35v.96h-1.35v4.49c0 .29.06.51.18.65s.33.22.61.22c.14 0 .34-.03.59-.08v1c-.33.09-.64.13-.95.13-.55 0-.97-.17-1.25-.5s-.42-.81-.42-1.42v-4.48h-1.32v-.96h1.32v-1.75h1.24zM373.38 207.31c-.07-.14-.13-.4-.17-.76-.58.6-1.26.9-2.06.9-.71 0-1.3-.2-1.75-.61-.46-.4-.68-.91-.68-1.53 0-.75.29-1.34.86-1.76.57-.42 1.38-.62 2.42-.62h1.2v-.57c0-.43-.13-.78-.39-1.03-.26-.26-.64-.38-1.14-.38-.44 0-.81.11-1.11.33s-.45.49-.45.81h-1.24c0-.36.13-.71.38-1.04s.6-.6 1.04-.8c.44-.2.92-.29 1.45-.29.83 0 1.49.21 1.96.62.47.42.72.99.73 1.72v3.33c0 .66.08 1.19.25 1.58v.11h-1.3zm-2.06-.94c.39 0 .75-.1 1.1-.3.35-.2.6-.46.75-.78v-1.48h-.97c-1.51 0-2.27.44-2.27 1.33 0 .39.13.69.39.91s.6.32 1 .32zM379.85 201.19c-.19-.03-.39-.05-.61-.05-.81 0-1.36.35-1.65 1.04v5.13h-1.24v-7.23h1.2l.02.83c.41-.64.98-.97 1.72-.97.24 0 .42.03.55.09v1.16zM383 198.33v1.75h1.35v.96H383v4.49c0 .29.06.51.18.65s.33.22.61.22c.14 0 .34-.03.59-.08v1c-.33.09-.64.13-.95.13-.55 0-.97-.17-1.25-.5s-.42-.81-.42-1.42v-4.48h-1.32v-.96h1.32v-1.75H383zM385.8 198.16c0-.2.06-.37.18-.51s.3-.21.54-.21.42.07.55.21c.12.14.19.31.19.51s-.06.37-.19.5c-.12.13-.31.2-.55.2s-.42-.07-.54-.2a.714.714 0 0 1-.18-.5zm1.34 9.15h-1.24v-7.23h1.24v7.23zM390.29 200.08l.04.91c.55-.7 1.27-1.04 2.17-1.04 1.53 0 2.3.86 2.31 2.59v4.78h-1.24v-4.79c0-.52-.12-.91-.36-1.16-.23-.25-.6-.37-1.09-.37-.4 0-.75.11-1.06.32-.3.21-.54.49-.71.84v5.15h-1.24v-7.23h1.18zM396.37 203.64c0-1.13.26-2.02.78-2.69s1.21-1 2.07-1c.88 0 1.57.31 2.07.94l.06-.8h1.13v7.06c0 .94-.28 1.67-.83 2.21s-1.3.81-2.24.81c-.52 0-1.03-.11-1.53-.33s-.88-.53-1.14-.92l.64-.74c.53.66 1.18.98 1.95.98.6 0 1.07-.17 1.41-.51.34-.34.5-.81.5-1.43v-.62c-.49.57-1.17.86-2.02.86-.85 0-1.53-.34-2.06-1.02s-.79-1.63-.79-2.8zm1.25.14c0 .82.17 1.46.5 1.92s.8.7 1.4.7c.78 0 1.35-.35 1.72-1.06v-3.3c-.38-.69-.95-1.04-1.7-1.04-.6 0-1.07.23-1.41.7-.34.47-.51 1.16-.51 2.08zM412.2 207.31c-.07-.14-.13-.4-.17-.76-.58.6-1.26.9-2.06.9-.71 0-1.3-.2-1.75-.61-.46-.4-.68-.91-.68-1.53 0-.75.29-1.34.86-1.76.57-.42 1.38-.62 2.42-.62h1.2v-.57c0-.43-.13-.78-.39-1.03-.26-.26-.64-.38-1.14-.38-.44 0-.81.11-1.11.33s-.45.49-.45.81h-1.24c0-.36.13-.71.38-1.04s.6-.6 1.04-.8c.44-.2.92-.29 1.45-.29.83 0 1.49.21 1.96.62.47.42.72.99.73 1.72v3.33c0 .66.08 1.19.25 1.58v.11h-1.3zm-2.05-.94c.39 0 .75-.1 1.1-.3.35-.2.6-.46.75-.78v-1.48h-.97c-1.51 0-2.27.44-2.27 1.33 0 .39.13.69.39.91s.59.32 1 .32zM416.86 198.33v1.75h1.35v.96h-1.35v4.49c0 .29.06.51.18.65s.33.22.61.22c.14 0 .34-.03.59-.08v1c-.33.09-.64.13-.95.13-.55 0-.97-.17-1.25-.5s-.42-.81-.42-1.42v-4.48h-1.32v-.96h1.32v-1.75h1.24zM427.18 204.73c0-.35-.09-.63-.26-.83s-.48-.39-.92-.57-.84-.36-1.21-.54a4.2 4.2 0 0 1-.96-.63c-.27-.24-.47-.52-.61-.84s-.21-.7-.21-1.15c0-.75.25-1.38.76-1.86.51-.49 1.19-.77 2.03-.85v-1.41h1.06v1.44c.82.12 1.46.46 1.92 1.01s.7 1.25.7 2.1h-2.26c0-.46-.09-.82-.27-1.07-.18-.25-.43-.37-.76-.37-.29 0-.52.09-.68.28-.16.18-.24.44-.24.77s.09.59.28.79c.19.19.49.38.9.55.42.18.81.36 1.17.55.37.19.69.4.95.64.27.24.48.52.63.84.15.32.23.71.23 1.16 0 .76-.24 1.38-.73 1.86-.48.48-1.14.76-1.97.84v1.34h-1.06v-1.35c-.97-.1-1.72-.44-2.24-1-.52-.56-.78-1.31-.78-2.23h2.25c0 .51.11.89.34 1.16s.54.4.96.4c.3 0 .54-.09.71-.27s.27-.44.27-.76zM435.06 203.55c-.49.44-1.03.65-1.63.65-.88 0-1.58-.3-2.1-.89-.52-.6-.78-1.39-.78-2.39 0-.62.14-1.2.43-1.74s.7-.96 1.22-1.27c.52-.31 1.1-.47 1.73-.47.64 0 1.22.16 1.74.48.52.32.92.78 1.21 1.37.29.59.44 1.27.45 2.04v.86c0 1.07-.21 2.01-.63 2.79s-1.02 1.39-1.8 1.82c-.78.42-1.69.63-2.73.63h-.14v-1.8l.43-.01c1.57-.06 2.43-.75 2.6-2.07zm-1.02-.97c.49 0 .84-.21 1.06-.64V201c0-.62-.11-1.08-.31-1.38a.982.982 0 0 0-.85-.45c-.32 0-.58.17-.8.51s-.32.75-.32 1.23c0 .51.11.91.33 1.21.21.31.51.46.89.46zM439.98 205.13c.36 0 .65.11.89.32s.35.48.35.81c0 .33-.12.6-.35.81-.24.21-.53.32-.89.32s-.66-.11-.89-.32c-.23-.21-.35-.48-.35-.81 0-.33.12-.6.35-.81.24-.22.53-.32.89-.32zM447.13 203.55c-.49.44-1.03.65-1.63.65-.88 0-1.58-.3-2.1-.89-.52-.6-.78-1.39-.78-2.39 0-.62.14-1.2.43-1.74s.7-.96 1.22-1.27c.52-.31 1.1-.47 1.73-.47.64 0 1.22.16 1.74.48.52.32.92.78 1.21 1.37.29.59.44 1.27.45 2.04v.86c0 1.07-.21 2.01-.63 2.79s-1.02 1.39-1.8 1.82c-.78.42-1.69.63-2.73.63h-.14v-1.8l.43-.01c1.56-.06 2.42-.75 2.6-2.07zm-1.03-.97c.49 0 .84-.21 1.06-.64V201c0-.62-.11-1.08-.31-1.38a.982.982 0 0 0-.85-.45c-.32 0-.58.17-.8.51s-.32.75-.32 1.23c0 .51.11.91.33 1.21.22.31.52.46.89.46zM455.05 203.55c-.49.44-1.03.65-1.63.65-.88 0-1.58-.3-2.1-.89-.52-.6-.78-1.39-.78-2.39 0-.62.14-1.2.43-1.74s.7-.96 1.22-1.27c.52-.31 1.1-.47 1.73-.47.64 0 1.22.16 1.74.48.52.32.92.78 1.21 1.37.29.59.44 1.27.45 2.04v.86c0 1.07-.21 2.01-.63 2.79s-1.02 1.39-1.8 1.82c-.78.42-1.69.63-2.73.63h-.14v-1.8l.43-.01c1.57-.06 2.43-.75 2.6-2.07zm-1.02-.97c.49 0 .84-.21 1.06-.64V201c0-.62-.11-1.08-.31-1.38a.982.982 0 0 0-.85-.45c-.32 0-.58.17-.8.51s-.32.75-.32 1.23c0 .51.11.91.33 1.21.21.31.51.46.89.46zM339.23 219.94v1.75h1.35v.96h-1.35v4.49c0 .29.06.51.18.65s.33.22.62.22c.14 0 .34-.03.59-.08v1c-.33.09-.64.13-.95.13-.55 0-.97-.17-1.25-.5-.28-.33-.42-.81-.42-1.42v-4.48h-1.32v-.96H338v-1.75h1.23zM341.56 225.24c0-.71.14-1.35.42-1.91.28-.57.67-1 1.16-1.31s1.06-.46 1.7-.46c.98 0 1.78.34 2.39 1.02.61.68.91 1.59.91 2.72v.09c0 .71-.13 1.34-.4 1.89-.27.56-.66 1-1.16 1.31-.5.31-1.08.47-1.73.47-.98 0-1.77-.34-2.38-1.02-.61-.68-.91-1.58-.91-2.71v-.09zm1.24.14c0 .8.19 1.45.56 1.93.37.49.87.73 1.49.73.63 0 1.13-.25 1.5-.74.37-.49.55-1.18.55-2.07 0-.79-.19-1.44-.56-1.93-.38-.49-.88-.74-1.5-.74-.61 0-1.1.24-1.48.73s-.56 1.19-.56 2.09zM357.43 226.36c0-.37-.1-.66-.3-.87-.2-.21-.55-.41-1.03-.6-.49-.18-.9-.36-1.26-.54-.35-.18-.65-.39-.91-.62-.25-.23-.45-.51-.59-.82-.14-.32-.21-.69-.21-1.13 0-.75.24-1.37.72-1.85s1.12-.76 1.92-.84v-1.43h1.07v1.45c.79.11 1.41.44 1.85.99.45.54.67 1.25.67 2.12h-1.93c0-.54-.11-.94-.33-1.2-.22-.27-.52-.4-.89-.4s-.65.1-.85.31c-.2.21-.3.49-.3.86 0 .34.1.61.29.81.2.21.56.41 1.09.63.53.21.97.42 1.31.61.34.19.63.4.87.64s.42.51.54.81c.12.31.19.66.19 1.07 0 .76-.24 1.37-.71 1.84s-1.12.75-1.95.84v1.33h-1.06v-1.32c-.91-.1-1.62-.42-2.12-.97s-.75-1.28-.75-2.2h1.93c0 .53.13.94.38 1.22s.61.42 1.09.42c.39 0 .7-.1.93-.31.22-.22.34-.5.34-.85zM367.33 228.92h-6.67v-1.32l3.15-3.36c.43-.47.75-.88.96-1.24.21-.35.31-.69.31-1 0-.43-.11-.77-.33-1.02-.22-.25-.53-.37-.94-.37-.44 0-.78.15-1.03.45-.25.3-.38.7-.38 1.19h-1.94c0-.59.14-1.13.42-1.62.28-.49.68-.87 1.2-1.15.52-.28 1.1-.42 1.76-.42 1 0 1.78.24 2.34.72s.83 1.16.83 2.04c0 .48-.12.97-.37 1.47s-.68 1.08-1.28 1.74l-2.21 2.33h4.18v1.56zM374.22 225.26h1.1v1.56h-1.1v2.1h-1.93v-2.1h-3.99l-.09-1.22 4.06-6.41h1.95v6.07zm-4.08 0h2.15v-3.43l-.13.22-2.02 3.21zM376.54 227.97c0-.31.1-.56.31-.75s.47-.29.78-.29c.32 0 .58.1.79.29.21.19.31.44.31.75 0 .3-.1.55-.31.74-.21.19-.47.29-.79.29-.32 0-.58-.1-.78-.29a.972.972 0 0 1-.31-.74zM384.85 225.03c-.5.49-1.09.74-1.76.74-.86 0-1.55-.29-2.07-.88-.52-.59-.78-1.39-.78-2.39 0-.64.14-1.22.42-1.75.28-.53.67-.95 1.17-1.24s1.06-.45 1.68-.45c.64 0 1.21.16 1.71.48s.89.78 1.16 1.38.42 1.29.42 2.06v.71c0 1.62-.4 2.9-1.21 3.82-.81.93-1.95 1.42-3.43 1.48l-.47.01v-1.61l.43-.01c1.69-.06 2.6-.85 2.73-2.35zm-1.29-.73c.31 0 .58-.08.81-.24.22-.16.4-.36.51-.58v-.79c0-.66-.12-1.16-.37-1.52-.25-.36-.58-.54-1-.54-.39 0-.71.18-.96.53-.25.35-.37.8-.37 1.33s.12.97.36 1.31.58.5 1.02.5zM392.71 225.03c-.5.49-1.09.74-1.76.74-.86 0-1.55-.29-2.07-.88-.52-.59-.78-1.39-.78-2.39 0-.64.14-1.22.42-1.75.28-.53.67-.95 1.17-1.24s1.06-.45 1.68-.45c.64 0 1.21.16 1.71.48s.89.78 1.16 1.38.42 1.29.42 2.06v.71c0 1.62-.4 2.9-1.21 3.82-.81.93-1.95 1.42-3.43 1.48l-.47.01v-1.61l.43-.01c1.68-.06 2.59-.85 2.73-2.35zm-1.29-.73c.31 0 .58-.08.81-.24.22-.16.4-.36.51-.58v-.79c0-.66-.12-1.16-.37-1.52-.25-.36-.58-.54-1-.54-.39 0-.71.18-.96.53-.25.35-.37.8-.37 1.33s.12.97.36 1.31.58.5 1.02.5zM396.56 229.76h-1.06l4.06-10.56h1.06l-4.06 10.56zM403.12 221.69l.03.8c.53-.62 1.25-.94 2.14-.94 1.01 0 1.7.39 2.07 1.16.24-.35.55-.63.94-.84.39-.21.84-.32 1.37-.32 1.59 0 2.39.84 2.42 2.52v4.84h-1.24v-4.77c0-.52-.12-.9-.35-1.16s-.63-.38-1.19-.38c-.46 0-.84.14-1.14.41-.3.27-.48.64-.53 1.11v4.8h-1.24v-4.74c0-1.05-.51-1.58-1.54-1.58-.81 0-1.37.35-1.66 1.04v5.28h-1.24v-7.23h1.16zM413.62 225.24c0-.71.14-1.35.42-1.91.28-.57.67-1 1.16-1.31s1.06-.46 1.7-.46c.98 0 1.78.34 2.39 1.02.61.68.91 1.59.91 2.72v.09c0 .71-.13 1.34-.4 1.89-.27.56-.66 1-1.16 1.31-.5.31-1.08.47-1.73.47-.98 0-1.77-.34-2.38-1.02-.61-.68-.91-1.58-.91-2.71v-.09zm1.24.14c0 .8.19 1.45.56 1.93.37.49.87.73 1.49.73.63 0 1.13-.25 1.5-.74.37-.49.55-1.18.55-2.07 0-.79-.19-1.44-.56-1.93-.38-.49-.88-.74-1.5-.74-.61 0-1.1.24-1.48.73s-.56 1.19-.56 2.09zM422.92 221.69l.04.91c.55-.7 1.27-1.04 2.17-1.04 1.53 0 2.3.86 2.31 2.59v4.78h-1.24v-4.78c0-.52-.12-.91-.36-1.16-.23-.25-.6-.38-1.09-.38-.4 0-.75.11-1.06.32-.3.21-.54.5-.71.84v5.15h-1.24v-7.23h1.18zM430.98 219.94v1.75h1.35v.96h-1.35v4.49c0 .29.06.51.18.65s.33.22.62.22c.14 0 .34-.03.59-.08v1c-.33.09-.64.13-.95.13-.55 0-.97-.17-1.25-.5-.28-.33-.42-.81-.42-1.42v-4.48h-1.32v-.96h1.32v-1.75h1.23zM435.01 222.57c.55-.67 1.26-1.01 2.14-1.01 1.53 0 2.3.86 2.31 2.59v4.78h-1.24v-4.78c0-.52-.12-.91-.36-1.16-.23-.25-.6-.38-1.09-.38-.4 0-.75.11-1.06.32-.3.21-.54.5-.71.84v5.15h-1.24v-10.26H435v3.91z"/></svg>