<svg id="Layer_1" xmlns="http://www.w3.org/2000/svg" xmlns:xlink="http://www.w3.org/1999/xlink" viewBox="0 0 320 100"><style>.st0{fill:#18b9fb}.st1{clip-path:url(#SVGID_2_)}.st2{fill:#4ac8fc}</style><g id="Background_1_"><path class="st0" d="M0 0h320v100H0z"/><defs><path id="SVGID_1_" d="M0 0h320v100H0z"/></defs><clipPath id="SVGID_2_"><use xlink:href="#SVGID_1_" overflow="visible"/></clipPath><g id="PG_x5F_Glyph_x5F_W_3_" class="st1"><path class="st2" d="M317.68 135.83l-7.22 11.98c-5.68 9.43-17.97 12.48-27.4 6.8a19.937 19.937 0 0 1-7.2-7.5c-1.81-3.3-.6-7.44 2.71-9.25 3.3-1.8 7.45-.59 9.25 2.71.54.99 1.31 1.78 2.27 2.37a6.34 6.34 0 0 0 8.69-2.16L306 128.8c1.94-3.23 6.13-4.26 9.36-2.32 3.23 1.94 4.26 6.12 2.32 9.35zm-53.36-.27c.24-3.76-2.6-7-6.36-7.25-3.76-.24-7 2.61-7.24 6.36-1.04 16.06 6.85 31.17 20.59 39.45 20.19 12.17 46.52 5.63 58.68-14.56l7.22-11.98c1.94-3.23.9-7.41-2.32-9.36s-7.41-.9-9.36 2.32l-7.22 11.98c-8.29 13.75-26.22 18.2-39.97 9.92-9.36-5.63-14.73-15.93-14.02-26.88zM401.35-45.58c-30.56-17.19-70.44-6.25-88.9 24.39l-75.21 124.84c-9.21 15.29-11.77 33.24-7.2 50.55 4.39 16.65 14.83 30.57 29.5 39.41.57.34 1.15.68 1.73 1.01 30.56 17.19 70.44 6.25 88.9-24.39l5.76-9.56c8.89-14.75 4.12-33.99-10.64-42.87l-18.13-10.92a6.827 6.827 0 0 0-9.36 2.32 6.827 6.827 0 0 0 2.32 9.36l18.13 10.92c8.31 5.01 11 15.85 5.99 24.16l-5.76 9.56c-14.69 24.39-46.34 33.16-70.54 19.54-12.33-6.94-21.12-18.31-24.74-32.01-3.62-13.71-1.59-27.93 5.7-40.04l75.21-124.84c14.69-24.39 46.34-33.16 70.54-19.54 12.34 6.92 21.12 18.31 24.74 32.01 3.62 13.71 1.6 27.93-5.7 40.04l-44.18 73.33a6.82 6.82 0 0 0 2.32 9.36c3.23 1.94 7.41.9 9.36-2.32l44.18-73.33c9.21-15.29 11.77-33.24 7.2-50.55-4.55-17.31-15.62-31.65-31.22-40.43zM379.36 77.61l26.5-43.99c12.17-20.19 5.64-46.52-14.56-58.68-20.19-12.17-46.52-5.63-58.68 14.56l-4.08 6.76c-1.94 3.22-.9 7.41 2.32 9.36 3.22 1.94 7.41.9 9.36-2.32l4.08-6.76c8.29-13.75 26.22-18.2 39.97-9.92 13.75 8.29 18.2 26.22 9.92 39.97l-26.5 43.99c-8.29 13.75-26.22 18.2-39.97 9.92a28.76 28.76 0 0 1-8.07-7.22 6.838 6.838 0 0 0-5.79-2.67c-2.25.12-4.3 1.36-5.47 3.29l-24 39.84c-1.3 2.16-4.12 2.86-6.29 1.56-2.16-1.3-2.86-4.12-1.56-6.29l51.71-85.83c1.94-3.22.9-7.41-2.32-9.36-3.22-1.94-7.41-.9-9.36 2.32l-51.71 85.83c-5.18 8.6-2.4 19.82 6.2 25s19.82 2.4 25-6.2L315.5 88.5c1.62 1.34 3.35 2.56 5.18 3.67 20.19 12.17 46.52 5.64 58.68-14.56zm64.76-19.15l-55.58 92.25-.88 1.46-18.61 30.88c-12.36 20.52-32.05 34.86-55.43 40.37-22.67 5.34-45.95 1.69-65.8-10.27-.61-.37-1.22-.75-1.83-1.13-40.14-25.49-52.47-79.97-27.48-121.44l75.07-124.6c12.36-20.52 32.05-34.85 55.43-40.36 23.37-5.51 47.39-1.44 67.63 11.4 40.13 25.49 52.46 79.97 27.48 121.44zm-68.14 86.68l.88-1.46 55.58-92.25c21.2-35.18 10.83-81.34-23.12-102.9-17.11-10.91-37.43-14.3-57.19-9.64-19.78 4.66-36.42 16.78-46.88 34.13l-75.07 124.6c-21.2 35.18-10.83 81.34 23.11 102.9 17.13 10.85 37.43 14.29 57.19 9.64 19.78-4.66 36.43-16.78 46.88-34.13l18.62-30.89zm-50.34-99.89l26.5-43.99c5.68-9.43 17.97-12.48 27.4-6.8 9.43 5.68 12.48 17.97 6.8 27.4l-26.5 43.99c-5.68 9.43-17.97 12.48-27.4 6.8-9.43-5.68-12.48-17.97-6.8-27.4zm11.68 7.03a6.34 6.34 0 0 0 2.16 8.69 6.34 6.34 0 0 0 8.69-2.16l26.5-43.99a6.34 6.34 0 0 0-2.16-8.69 6.34 6.34 0 0 0-8.69 2.16l-26.5 43.99z"/></g><g id="PG_x5F_Glyph_x5F_W_4_" class="st1"><path class="st2" d="M-35.91 135.26l-7.22 11.98c-5.68 9.43-17.97 12.48-27.4 6.8a19.937 19.937 0 0 1-7.2-7.5c-1.81-3.3-.6-7.44 2.71-9.25 3.3-1.8 7.45-.59 9.25 2.71.54.99 1.31 1.78 2.27 2.37a6.34 6.34 0 0 0 8.69-2.16l7.22-11.98c1.94-3.23 6.13-4.26 9.36-2.32a6.796 6.796 0 0 1 2.32 9.35zm-53.36-.27c.24-3.76-2.6-7-6.36-7.25-3.76-.24-7 2.61-7.24 6.36-1.04 16.06 6.85 31.17 20.59 39.45 20.19 12.17 46.52 5.63 58.68-14.56l7.22-11.98c1.94-3.23.9-7.41-2.32-9.36s-7.41-.9-9.36 2.32l-7.22 11.98c-8.29 13.75-26.22 18.2-39.97 9.92-9.36-5.63-14.73-15.93-14.02-26.88zM47.77-46.15c-30.56-17.19-70.44-6.25-88.9 24.39l-75.21 124.84c-9.21 15.29-11.77 33.24-7.2 50.55 4.39 16.65 14.83 30.57 29.5 39.41.57.34 1.15.68 1.73 1.01 30.56 17.19 70.44 6.25 88.9-24.39l5.76-9.56c8.89-14.75 4.12-33.99-10.64-42.87l-18.13-10.92a6.827 6.827 0 0 0-9.36 2.32 6.827 6.827 0 0 0 2.32 9.36l18.13 10.92c8.31 5.01 11 15.85 5.99 24.16l-5.76 9.56c-14.69 24.39-46.34 33.16-70.54 19.54-12.33-6.94-21.12-18.31-24.74-32.01-3.62-13.71-1.59-27.93 5.7-40.04l75.21-124.84c14.69-24.39 46.34-33.16 70.54-19.54C53.42-27.35 62.2-15.95 65.82-2.25c3.62 13.71 1.6 27.93-5.7 40.04l-44.18 73.33a6.82 6.82 0 0 0 2.32 9.36c3.23 1.94 7.41.9 9.36-2.32L71.8 44.82C81.01 29.53 83.57 11.57 79-5.73c-4.56-17.3-15.64-31.64-31.23-40.42zM25.78 77.04l26.5-43.99c12.17-20.19 5.64-46.52-14.56-58.68-20.2-12.16-46.52-5.63-58.69 14.56l-4.08 6.76c-1.94 3.22-.9 7.41 2.32 9.36s7.41.9 9.36-2.32l4.08-6.76c8.29-13.75 26.22-18.2 39.97-9.92 13.75 8.29 18.2 26.22 9.92 39.97L14.1 70.01c-8.29 13.75-26.22 18.2-39.97 9.92a28.76 28.76 0 0 1-8.07-7.22 6.838 6.838 0 0 0-5.79-2.67c-2.25.12-4.3 1.36-5.47 3.29l-24 39.84c-1.3 2.16-4.12 2.86-6.29 1.56-2.16-1.3-2.86-4.12-1.56-6.29l51.71-85.83c1.94-3.22.9-7.41-2.32-9.36s-7.41-.9-9.36 2.32l-51.71 85.83c-5.18 8.6-2.4 19.82 6.2 25s19.82 2.4 25-6.2l19.44-32.27c1.62 1.34 3.35 2.56 5.18 3.67 20.19 12.17 46.52 5.64 58.69-14.56zm64.75-19.15l-55.58 92.25-.88 1.46-18.61 30.88C3.1 203-16.59 217.34-39.97 222.85c-22.67 5.34-45.95 1.69-65.8-10.27-.61-.37-1.22-.75-1.83-1.13-40.14-25.49-52.47-79.97-27.48-121.44l75.07-124.6c12.36-20.52 32.05-34.85 55.43-40.36 23.37-5.51 47.39-1.44 67.63 11.4 40.14 25.49 52.47 79.97 27.48 121.44zM22.4 144.57l.88-1.46 55.58-92.25c21.2-35.18 10.83-81.34-23.12-102.9-17.11-10.91-37.43-14.3-57.19-9.64-19.78 4.66-36.42 16.78-46.88 34.13l-75.07 124.6c-21.2 35.18-10.83 81.34 23.11 102.9 17.13 10.85 37.43 14.29 57.19 9.64 19.78-4.66 36.43-16.78 46.88-34.13l18.62-30.89zm-50.35-99.89L-1.45.69c5.68-9.43 17.97-12.48 27.4-6.8 9.43 5.68 12.48 17.97 6.8 27.4L6.25 65.28c-5.68 9.43-17.97 12.48-27.4 6.8-9.43-5.68-12.48-17.97-6.8-27.4zm11.68 7.04a6.34 6.34 0 0 0 2.16 8.69 6.34 6.34 0 0 0 8.69-2.16l26.5-43.99a6.34 6.34 0 0 0-2.16-8.69 6.34 6.34 0 0 0-8.69 2.16l-26.5 43.99z"/></g></g></svg>