<svg id="Layer_1" xmlns="http://www.w3.org/2000/svg" xmlns:xlink="http://www.w3.org/1999/xlink" viewBox="0 0 320 100"><style>.st0{fill:#18b9fb}.st1{clip-path:url(#SVGID_2_)}.st2{fill:#4ac8fc}.st3{fill:#edf4fd}.st4{fill:#021d8b}.st5{fill:#fff}</style><g id="Background_1_"><path class="st0" d="M0 516.99h320v100H0z"/><defs><path id="SVGID_1_" d="M0 516.99h320v100H0z"/></defs><clipPath id="SVGID_2_"><use xlink:href="#SVGID_1_" overflow="visible"/></clipPath><g id="PG_x5F_Glyph_x5F_W_3_" class="st1"><path class="st2" d="M317.68 652.82l-7.22 11.98c-5.68 9.43-17.97 12.48-27.4 6.8a19.937 19.937 0 0 1-7.2-7.5c-1.81-3.3-.6-7.44 2.71-9.25 3.3-1.8 7.45-.59 9.25 2.71.54.99 1.31 1.78 2.27 2.37a6.34 6.34 0 0 0 8.69-2.16l7.22-11.98c1.94-3.23 6.13-4.26 9.36-2.32 3.23 1.93 4.26 6.12 2.32 9.35zm-53.36-.27c.24-3.76-2.6-7-6.36-7.25-3.76-.24-7 2.61-7.24 6.36-1.04 16.06 6.85 31.17 20.59 39.45 20.19 12.17 46.52 5.63 58.68-14.56l7.22-11.98c1.94-3.23.9-7.41-2.32-9.36s-7.41-.9-9.36 2.32l-7.22 11.98c-8.29 13.75-26.22 18.2-39.97 9.92-9.36-5.63-14.73-15.94-14.02-26.88zm137.03-181.14c-30.56-17.19-70.44-6.25-88.9 24.39l-75.21 124.84c-9.21 15.29-11.77 33.24-7.2 50.55 4.39 16.65 14.83 30.57 29.5 39.41.57.34 1.15.68 1.73 1.01 30.56 17.19 70.44 6.25 88.9-24.39l5.76-9.56c8.89-14.75 4.12-33.99-10.64-42.87l-18.13-10.92a6.827 6.827 0 0 0-9.36 2.32 6.827 6.827 0 0 0 2.32 9.36l18.13 10.92c8.31 5.01 11 15.85 5.99 24.16l-5.76 9.56c-14.69 24.39-46.34 33.16-70.54 19.54-12.33-6.94-21.12-18.31-24.74-32.01-3.62-13.71-1.59-27.93 5.7-40.04l75.21-124.84c14.69-24.39 46.34-33.16 70.54-19.54 12.34 6.92 21.12 18.31 24.74 32.01 3.62 13.71 1.6 27.93-5.7 40.04l-44.18 73.33a6.82 6.82 0 0 0 2.32 9.36c3.23 1.94 7.41.9 9.36-2.32l44.18-73.33c9.21-15.29 11.77-33.24 7.2-50.55-4.55-17.31-15.62-31.65-31.22-40.43zM379.36 594.6l26.5-43.99c12.17-20.19 5.64-46.52-14.56-58.68-20.19-12.17-46.52-5.63-58.68 14.56l-4.08 6.76c-1.94 3.22-.9 7.41 2.32 9.36 3.22 1.94 7.41.9 9.36-2.32l4.08-6.76c8.29-13.75 26.22-18.2 39.97-9.92 13.75 8.29 18.2 26.22 9.92 39.97l-26.5 43.99c-8.29 13.75-26.22 18.2-39.97 9.92a28.76 28.76 0 0 1-8.07-7.22 6.838 6.838 0 0 0-5.79-2.67c-2.25.12-4.3 1.36-5.47 3.29l-24 39.84c-1.3 2.16-4.12 2.86-6.29 1.56-2.16-1.3-2.86-4.12-1.56-6.29l51.71-85.83c1.94-3.22.9-7.41-2.32-9.36-3.22-1.94-7.41-.9-9.36 2.32l-51.71 85.83c-5.18 8.6-2.4 19.82 6.2 25s19.82 2.4 25-6.2l19.44-32.27c1.62 1.34 3.35 2.56 5.18 3.67 20.19 12.16 46.52 5.63 58.68-14.56zm64.76-19.15l-55.58 92.25-.88 1.46-18.61 30.88c-12.36 20.52-32.05 34.86-55.43 40.37-22.67 5.34-45.95 1.69-65.8-10.27-.61-.37-1.22-.75-1.83-1.13-40.14-25.49-52.47-79.97-27.48-121.44l75.07-124.6c12.36-20.52 32.05-34.85 55.43-40.36 23.37-5.51 47.39-1.44 67.63 11.4 40.13 25.49 52.46 79.97 27.48 121.44zm-68.14 86.68l.88-1.46 55.58-92.25c21.2-35.18 10.83-81.34-23.12-102.9-17.11-10.91-37.43-14.3-57.19-9.64-19.78 4.66-36.42 16.78-46.88 34.13l-75.07 124.6c-21.2 35.18-10.83 81.34 23.11 102.9 17.13 10.85 37.43 14.29 57.19 9.64 19.78-4.66 36.43-16.78 46.88-34.13l18.62-30.89zm-50.34-99.89l26.5-43.99c5.68-9.43 17.97-12.48 27.4-6.8 9.43 5.68 12.48 17.97 6.8 27.4l-26.5 43.99c-5.68 9.43-17.97 12.48-27.4 6.8-9.43-5.68-12.48-17.97-6.8-27.4zm11.68 7.03a6.34 6.34 0 0 0 2.16 8.69 6.34 6.34 0 0 0 8.69-2.16l26.5-43.99a6.34 6.34 0 0 0-2.16-8.69 6.34 6.34 0 0 0-8.69 2.16l-26.5 43.99z"/></g><g id="PG_x5F_Glyph_x5F_W_4_" class="st1"><path class="st2" d="M-35.91 652.25l-7.22 11.98c-5.68 9.43-17.97 12.48-27.4 6.8a19.937 19.937 0 0 1-7.2-7.5c-1.81-3.3-.6-7.44 2.71-9.25 3.3-1.8 7.45-.59 9.25 2.71.54.99 1.31 1.78 2.27 2.37a6.34 6.34 0 0 0 8.69-2.16l7.22-11.98c1.94-3.23 6.13-4.26 9.36-2.32 3.23 1.93 4.27 6.12 2.32 9.35zm-53.36-.27c.24-3.76-2.6-7-6.36-7.25-3.76-.24-7 2.61-7.24 6.36-1.04 16.06 6.85 31.17 20.59 39.45 20.19 12.17 46.52 5.63 58.68-14.56l7.22-11.98c1.94-3.23.9-7.41-2.32-9.36s-7.41-.9-9.36 2.32l-7.22 11.98c-8.29 13.75-26.22 18.2-39.97 9.92-9.36-5.63-14.73-15.94-14.02-26.88zM47.77 470.84c-30.56-17.19-70.44-6.25-88.9 24.39l-75.21 124.84c-9.21 15.29-11.77 33.24-7.2 50.55 4.39 16.65 14.83 30.57 29.5 39.41.57.34 1.15.68 1.73 1.01 30.56 17.19 70.44 6.25 88.9-24.39l5.76-9.56c8.89-14.75 4.12-33.99-10.64-42.87l-18.13-10.92a6.827 6.827 0 0 0-9.36 2.32 6.827 6.827 0 0 0 2.32 9.36l18.13 10.92c8.31 5.01 11 15.85 5.99 24.16l-5.76 9.56c-14.69 24.39-46.34 33.16-70.54 19.54-12.33-6.94-21.12-18.31-24.74-32.01-3.62-13.71-1.59-27.93 5.7-40.04l75.21-124.84c14.69-24.39 46.34-33.16 70.54-19.54 12.34 6.92 21.12 18.31 24.74 32.01 3.62 13.71 1.6 27.93-5.7 40.04L15.95 628.1c-1.94 3.22-.91 7.41 2.32 9.36s7.41.9 9.36-2.32L71.8 561.8c9.21-15.29 11.77-33.24 7.2-50.55-4.56-17.29-15.64-31.63-31.23-40.41zM25.78 594.03l26.5-43.99c12.17-20.19 5.64-46.52-14.56-58.68-20.19-12.17-46.52-5.63-58.68 14.56l-4.08 6.76c-1.94 3.22-.9 7.41 2.32 9.36 3.22 1.94 7.41.9 9.36-2.32l4.08-6.76c8.29-13.75 26.22-18.2 39.97-9.92 13.75 8.29 18.2 26.22 9.92 39.97L14.1 587c-8.29 13.75-26.22 18.2-39.97 9.92a28.76 28.76 0 0 1-8.07-7.22 6.838 6.838 0 0 0-5.79-2.67c-2.25.12-4.3 1.36-5.47 3.29l-24 39.84c-1.3 2.16-4.12 2.86-6.29 1.56-2.16-1.3-2.86-4.12-1.56-6.29l51.71-85.83c1.94-3.22.9-7.41-2.32-9.36-3.22-1.94-7.41-.9-9.36 2.32l-51.71 85.83c-5.18 8.6-2.4 19.82 6.2 25s19.82 2.4 25-6.2l19.44-32.27c1.62 1.34 3.35 2.56 5.18 3.67 20.19 12.17 46.52 5.63 58.69-14.56zm64.75-19.15l-55.58 92.25-.88 1.46-18.61 30.88C3.1 720-16.58 734.33-39.96 739.84c-22.67 5.34-45.95 1.69-65.8-10.27-.61-.37-1.22-.75-1.83-1.13-40.14-25.49-52.47-79.97-27.48-121.44L-60 482.4c12.36-20.52 32.05-34.85 55.43-40.36 23.37-5.51 47.39-1.44 67.63 11.4 40.13 25.49 52.46 79.97 27.47 121.44zM22.4 661.56l.88-1.46 55.58-92.25c21.2-35.18 10.83-81.34-23.12-102.9-17.11-10.91-37.43-14.3-57.19-9.64-19.78 4.66-36.42 16.78-46.88 34.13l-75.07 124.6c-21.2 35.18-10.83 81.34 23.11 102.9 17.13 10.85 37.43 14.29 57.19 9.64 19.78-4.66 36.43-16.78 46.88-34.13l18.62-30.89zm-50.35-99.89l26.5-43.99c5.68-9.43 17.97-12.48 27.4-6.8 9.43 5.68 12.48 17.97 6.8 27.4l-26.5 43.99c-5.68 9.43-17.97 12.48-27.4 6.8-9.43-5.68-12.48-17.97-6.8-27.4zm11.68 7.03a6.34 6.34 0 0 0 2.16 8.69 6.34 6.34 0 0 0 8.69-2.16l26.5-43.99a6.34 6.34 0 0 0-2.16-8.69 6.34 6.34 0 0 0-8.69 2.16l-26.5 43.99z"/></g></g><g id="Button_1_"><path class="st3" d="M96.05 579.12h-54.3c-9.35 0-16.94-7.58-16.94-16.94 0-9.35 7.58-16.94 16.94-16.94h54.29c9.35 0 16.94 7.58 16.94 16.94 0 9.36-7.58 16.94-16.93 16.94z"/><path class="st4" d="M49.51 563.62c0 1.46-.33 2.64-1 3.52s-1.56 1.32-2.69 1.32c-.96 0-1.74-.33-2.33-1v4.48h-2.54v-13.17h2.36l.09.93c.62-.74 1.42-1.11 2.41-1.11 1.17 0 2.08.43 2.73 1.3s.98 2.06.98 3.59v.14zm-2.54-.19c0-.88-.16-1.57-.47-2.05s-.77-.72-1.37-.72c-.8 0-1.34.3-1.64.91v3.89c.31.63.86.94 1.66.94 1.22.01 1.82-.98 1.82-2.97zM56.43 561.15c-.35-.05-.65-.07-.91-.07-.96 0-1.59.33-1.89.98v6.22h-2.54v-9.51h2.4l.07 1.13c.51-.87 1.22-1.31 2.12-1.31.28 0 .54.04.79.11l-.04 2.45zM56.94 563.44c0-.94.18-1.78.54-2.52s.89-1.31 1.57-1.71 1.48-.61 2.38-.61c1.28 0 2.33.39 3.14 1.18.81.79 1.26 1.85 1.36 3.2l.02.65c0 1.46-.41 2.63-1.22 3.51-.81.88-1.91 1.32-3.28 1.32s-2.47-.44-3.28-1.32-1.23-2.07-1.23-3.59v-.11zm2.54.18c0 .9.17 1.59.51 2.07.34.48.83.72 1.46.72.62 0 1.1-.24 1.44-.71.35-.47.52-1.23.52-2.27 0-.89-.17-1.57-.52-2.06s-.83-.73-1.46-.73c-.62 0-1.1.24-1.44.73-.34.49-.51 1.24-.51 2.25zM70.55 556.44v2.34h1.63v1.86h-1.63v4.75c0 .35.07.6.2.76s.39.23.77.23c.28 0 .53-.02.75-.06v1.92c-.5.15-1.01.23-1.54.23-1.78 0-2.69-.9-2.72-2.7v-5.12h-1.39v-1.86h1.39v-2.34h2.54zM77.97 568.46c-1.39 0-2.53-.43-3.41-1.28s-1.31-2-1.31-3.42v-.25c0-.96.18-1.81.55-2.56s.89-1.33 1.57-1.74 1.45-.61 2.32-.61c1.3 0 2.32.41 3.07 1.23s1.12 1.98 1.12 3.49v1.04h-6.06c.08.62.33 1.12.74 1.49s.94.56 1.57.56c.98 0 1.74-.35 2.29-1.06l1.25 1.4c-.38.54-.9.96-1.55 1.26s-1.36.45-2.15.45zm-.29-7.81c-.5 0-.91.17-1.23.51s-.51.83-.6 1.47h3.53v-.2c-.01-.56-.16-1-.46-1.31s-.7-.47-1.24-.47zM87.28 566.41c.47 0 .85-.13 1.14-.39s.45-.6.46-1.03h2.38c-.01.64-.18 1.23-.53 1.77s-.82.95-1.42 1.25-1.26.44-1.99.44c-1.36 0-2.43-.43-3.22-1.3s-1.18-2.06-1.18-3.58v-.17c0-1.46.39-2.63 1.17-3.51s1.85-1.31 3.21-1.31c1.19 0 2.14.34 2.86 1.02s1.08 1.58 1.09 2.7h-2.38c-.01-.49-.16-.9-.46-1.21s-.68-.46-1.16-.46c-.59 0-1.04.22-1.34.65s-.45 1.13-.45 2.1v.26c0 .98.15 1.68.45 2.11.3.45.76.66 1.37.66zM95.75 556.44v2.34h1.63v1.86h-1.63v4.75c0 .35.07.6.2.76s.39.23.77.23c.28 0 .53-.02.75-.06v1.92c-.5.15-1.01.23-1.54.23-1.78 0-2.69-.9-2.72-2.7v-5.12h-1.39v-1.86h1.39v-2.34h2.54z"/></g><g id="PG_x5F_Logo_x5F_W_2_"><path class="st5" d="M101.35 598.4c0-.12.04-.22.12-.3.08-.08.18-.12.31-.12.11 0 .21.04.3.12.09.08.13.18.13.3v4.75c0 .12-.04.22-.12.31-.08.08-.18.12-.31.12-.11 0-.21-.04-.3-.12a.387.387 0 0 1-.13-.31v-4.75zM77.39 605.88c-.35.26-.76.39-1.23.39a3.48 3.48 0 0 1-.62-.1c-.15-.04-.29-.11-.42-.2a.413.413 0 0 1-.19-.36c0-.13.04-.23.12-.31.08-.08.18-.12.3-.12.1 0 .18.03.26.08.19.1.39.16.59.16.16 0 .32-.03.45-.09.14-.06.26-.14.37-.24.11-.1.19-.22.25-.35.06-.13.09-.28.1-.44v-3.21a.407.407 0 0 1 .42-.42c.11 0 .21.04.3.12.09.08.13.18.13.3v3.24c.02.62-.29 1.17-.83 1.55zM58.16 596.46a.407.407 0 0 1 .42-.42c.11 0 .21.04.3.12.09.08.13.18.13.3v.33a.407.407 0 0 1-.42.42c-.11 0-.21-.04-.3-.12a.38.38 0 0 1-.13-.3v-.33zm0 1.98a.407.407 0 0 1 .42-.42c.11 0 .21.04.3.12.09.08.13.18.13.3v4.71a.407.407 0 0 1-.42.42c-.11 0-.21-.04-.3-.12a.38.38 0 0 1-.13-.3v-4.71zM54.44 598.55a.407.407 0 0 1 .42-.42c.09 0 .18.03.26.09.08.06.13.14.15.25.34-.26.75-.38 1.21-.38.26.02.46.05.61.1.15.04.29.11.41.19s.19.2.19.36a.407.407 0 0 1-.42.42c-.1 0-.18-.03-.25-.08-.18-.1-.38-.15-.58-.15-.16 0-.31.03-.44.09-.14.06-.26.14-.36.24-.11.1-.19.21-.25.35-.06.13-.09.27-.1.43v3.14a.407.407 0 0 1-.42.42.4.4 0 0 1-.29-.12.416.416 0 0 1-.13-.3v-4.63zM59.59 598.59a.467.467 0 0 1-.03-.17c0-.1.04-.2.11-.29.07-.09.18-.13.3-.13.08 0 .16.02.23.07.07.04.13.11.16.19l1.66 3.87 1.66-3.87a.4.4 0 0 1 .39-.26c.13 0 .23.04.3.13.07.09.11.19.11.29 0 .06-.01.12-.03.17l-2.04 4.77c-.08.17-.21.26-.39.26-.19 0-.33-.09-.39-.26l-2.04-4.77zM64.63 599.98c0-.28.05-.54.16-.79.1-.25.25-.46.44-.64s.4-.33.64-.43c.24-.1.51-.16.79-.16s.54.05.78.16c.25.1.46.25.64.43s.33.4.44.64c.11.25.16.51.16.79v3.16c0 .12-.04.22-.13.3-.09.08-.19.12-.3.12-.1 0-.2-.03-.27-.1a.334.334 0 0 1-.14-.24c-.34.25-.74.38-1.19.38-.28 0-.54-.05-.79-.16-.25-.1-.46-.25-.64-.43s-.33-.4-.44-.64c-.11-.25-.16-.51-.16-.78v-1.61zm.85 1.62c0 .16.03.31.1.45.06.14.15.27.25.38.1.11.23.19.38.25s.3.09.45.09c.16 0 .31-.03.45-.08.14-.06.27-.13.37-.24.1-.1.19-.22.25-.35.06-.13.1-.28.11-.44v-1.67c0-.16-.03-.31-.1-.45-.06-.14-.15-.27-.25-.38-.1-.11-.23-.19-.38-.25a1.204 1.204 0 0 0-.91 0c-.14.06-.27.14-.38.25-.11.11-.19.23-.25.38-.06.14-.09.29-.09.45v1.61zM69.47 599.98c0-.28.05-.55.16-.8s.26-.46.45-.64.41-.32.66-.43c.25-.1.52-.16.8-.16.05 0 .16.01.31.03.15.02.32.07.51.15.19.08.37.21.56.38.18.17.33.4.45.7.02.06.03.11.03.16a.407.407 0 0 1-.42.42.399.399 0 0 1-.39-.27c-.1-.22-.25-.4-.45-.53-.19-.13-.41-.19-.64-.19a1.18 1.18 0 0 0-.84.34c-.11.11-.19.23-.25.38-.06.14-.09.29-.09.45v1.61c0 .16.03.31.1.45.06.14.15.27.25.38.1.11.23.19.38.25s.3.09.45.09c.24 0 .46-.06.65-.19s.34-.3.44-.53c.04-.08.09-.15.16-.2.07-.05.15-.07.24-.07.12 0 .22.04.3.13.08.09.12.18.12.3 0 .05-.01.1-.03.16-.15.33-.33.58-.54.75-.21.17-.41.3-.61.37s-.37.12-.5.12c-.14.01-.21.01-.22.01-.28 0-.54-.05-.79-.16-.25-.1-.46-.25-.64-.43s-.33-.4-.44-.64c-.11-.25-.16-.51-.16-.78v-1.61zM84.92 598.44a.407.407 0 0 1 .42-.42c.11 0 .21.04.3.12.09.08.13.18.13.3v3.16a1.195 1.195 0 0 0 .34.83c.11.11.23.19.38.25.14.06.3.09.46.09.16 0 .31-.03.45-.09.15-.06.27-.14.38-.25.1-.11.19-.23.25-.38.06-.14.1-.29.1-.45v-3.16a.407.407 0 0 1 .42-.42c.11 0 .21.04.3.12.09.08.13.18.13.3v3.16c0 .28-.05.54-.16.78-.11.25-.25.46-.44.64-.18.18-.4.33-.64.43-.25.1-.51.16-.79.16s-.55-.05-.79-.16c-.24-.1-.46-.25-.64-.43-.19-.18-.33-.4-.44-.64-.1-.25-.16-.51-.16-.78v-3.16zM89.78 599.98c0-.28.05-.54.16-.79.1-.25.25-.46.44-.64s.4-.33.64-.43c.24-.1.51-.16.79-.16s.54.05.78.16c.25.1.46.25.64.43s.33.4.44.64c.11.25.16.51.16.79v3.16c0 .12-.04.22-.13.3-.09.08-.19.12-.3.12-.1 0-.2-.03-.27-.1a.334.334 0 0 1-.14-.24c-.34.25-.74.38-1.19.38-.28 0-.54-.05-.79-.16-.25-.1-.46-.25-.64-.43s-.33-.4-.44-.64c-.11-.25-.16-.51-.16-.78v-1.61zm.85 1.62c0 .16.03.31.1.45.06.14.15.27.25.38.1.11.23.19.38.25s.3.09.45.09c.16 0 .31-.03.45-.08.14-.06.27-.13.37-.24.1-.1.19-.22.25-.35.06-.13.1-.28.11-.44v-1.67c0-.16-.03-.31-.1-.45-.06-.14-.15-.27-.25-.38-.1-.11-.23-.19-.38-.25a1.204 1.204 0 0 0-.91 0c-.14.06-.27.14-.38.25-.11.11-.19.23-.25.38-.06.14-.09.29-.09.45v1.61zM94.67 598.55a.407.407 0 0 1 .42-.42c.09 0 .18.03.26.09.08.06.13.14.15.25.34-.26.75-.38 1.21-.38.26.02.46.05.61.1.15.04.29.11.41.19s.19.2.19.36a.407.407 0 0 1-.42.42c-.1 0-.18-.03-.25-.08-.18-.1-.38-.15-.58-.15-.16 0-.31.03-.44.09-.14.06-.26.14-.36.24-.11.1-.19.21-.25.35-.06.13-.09.27-.1.43v3.14a.407.407 0 0 1-.42.42.4.4 0 0 1-.29-.12.416.416 0 0 1-.13-.3v-4.63z"/><path class="st5" d="M101.35 596.46a.407.407 0 0 1 .42-.42c.11 0 .21.04.3.12.09.08.13.18.13.3v5.14c0 .28-.05.54-.16.78-.11.25-.25.46-.44.64-.18.18-.4.33-.64.43-.25.1-.51.16-.78.16-.28 0-.55-.05-.79-.16-.24-.1-.46-.25-.64-.43-.19-.18-.33-.4-.44-.64-.1-.25-.16-.51-.16-.78v-1.61c0-.28.05-.54.16-.79s.25-.46.44-.64c.18-.18.4-.33.64-.43.25-.1.51-.16.79-.16.22 0 .42.03.62.1s.38.16.56.28v-1.89zM99 601.6a1.195 1.195 0 0 0 .34.83c.11.11.23.19.38.25.14.06.3.09.46.09.16 0 .31-.03.45-.09.15-.06.27-.14.38-.25.1-.11.19-.23.25-.38.06-.14.1-.29.1-.45v-1.61a1.195 1.195 0 0 0-.34-.83c-.11-.11-.23-.19-.38-.25-.14-.06-.3-.09-.46-.09-.16 0-.31.03-.45.09-.15.06-.27.14-.38.25-.1.11-.19.23-.25.38-.06.14-.1.29-.1.45v1.61zM74.18 598.44a.407.407 0 0 1 .42-.42c.11 0 .21.04.3.12.09.08.13.18.13.3v3.16a1.195 1.195 0 0 0 .34.83c.11.11.23.19.38.25.14.06.3.09.46.09.16 0 .31-.03.45-.09.15-.06.27-.14.38-.25.1-.11.19-.23.25-.38.06-.14.1-.29.1-.45v-3.16a.407.407 0 0 1 .42-.42c.11 0 .21.04.3.12.09.08.13.18.13.3v3.16c0 .28-.05.54-.16.78-.11.25-.25.46-.44.64-.18.18-.4.33-.64.43-.25.1-.51.16-.79.16s-.55-.05-.79-.16c-.24-.1-.46-.25-.64-.43-.19-.18-.33-.4-.44-.64-.1-.25-.16-.51-.16-.78v-3.16zM83.73 599.81h-1.78c-.24 0-.43.18-.43.41 0 .24.19.43.43.43h1.42v.67c0 .91-.83 1.6-1.7 1.6-.97 0-1.78-.66-1.78-1.78v-2.56c0-1.04.79-1.78 1.75-1.78.82 0 1.44.54 1.68 1.22.08.14.19.23.38.23.33 0 .54-.27.38-.65-.27-.82-1.11-1.67-2.45-1.67-1.53 0-2.63 1.21-2.63 2.6v2.66c0 1.4 1.11 2.61 2.63 2.61 1.38 0 2.54-1.08 2.54-2.31v-1.28c.01-.24-.2-.4-.44-.4z"/><path class="st5" d="M101.35 598.44a.407.407 0 0 1 .42-.42c.11 0 .21.04.3.12.09.08.13.18.13.3v4.71a.407.407 0 0 1-.42.42c-.11 0-.21-.04-.3-.12a.38.38 0 0 1-.13-.3v-4.71z"/><g><path class="st5" d="M49.05 596.75a.407.407 0 0 1 .42-.42h1.69c.36 0 .69.07 1.01.2.31.14.59.32.83.55.24.23.43.5.56.82.14.31.21.65.21 1.01s-.07.69-.21 1c-.14.31-.33.58-.56.82-.23.23-.51.42-.83.55-.32.14-.66.2-1.01.2h-1.27v1.67a.407.407 0 0 1-.42.42.4.4 0 0 1-.29-.12.416.416 0 0 1-.13-.3v-6.4zm.83.42v3.49h1.27c.25 0 .48-.05.7-.14a1.748 1.748 0 0 0 .94-.92 1.723 1.723 0 0 0 0-1.36 1.763 1.763 0 0 0-.94-.92c-.22-.09-.44-.14-.69-.14h-1.28z"/></g><path class="st5" d="M40.74 603.85v.87c0 .68-.56 1.24-1.24 1.24-.22 0-.43-.06-.62-.17a.425.425 0 0 1 .43-.73c.06.04.13.05.2.05.22 0 .39-.18.39-.39v-.87c0-.23.19-.42.42-.42.23-.01.42.18.42.42zm-2.85 1.69a.418.418 0 0 0-.57-.18c-.21.11-.29.36-.18.57.46.89 1.36 1.44 2.36 1.44 1.46 0 2.66-1.19 2.66-2.66v-.87c0-.23-.19-.42-.42-.42s-.42.19-.42.42v.87c0 1-.81 1.81-1.81 1.81-.69 0-1.3-.37-1.62-.98zm1.49-14.03c-2.18.06-3.95 1.93-3.95 4.15v9.05c0 1.11.44 2.15 1.24 2.92a4.02 4.02 0 0 0 2.83 1.15h.12c2.18-.06 3.95-1.93 3.95-4.15v-.69c0-1.07-.87-1.94-1.94-1.94h-1.31c-.23 0-.42.19-.42.42s.19.42.42.42h1.31c.6 0 1.09.49 1.09 1.09v.69c0 1.77-1.4 3.25-3.13 3.3-.88.03-1.71-.3-2.34-.91-.63-.61-.98-1.44-.98-2.31v-9.05c0-1.77 1.4-3.25 3.13-3.3.88-.03 1.71.3 2.34.91.63.61.98 1.44.98 2.31v5.32c0 .23.19.42.42.42s.42-.19.42-.42v-5.32c0-1.11-.44-2.15-1.24-2.92a3.993 3.993 0 0 0-2.94-1.14zm2.78 7.26v-3.19c0-1.46-1.19-2.66-2.66-2.66-1.46 0-2.66 1.19-2.66 2.66v.49c0 .23.19.42.42.42.23 0 .42-.19.42-.42v-.49a1.81 1.81 0 1 1 3.62 0v3.19c0 1-.81 1.81-1.81 1.81-.23 0-.45-.04-.66-.13a.415.415 0 0 0-.39.04.42.42 0 0 0-.19.35v2.89a.28.28 0 1 1-.56 0v-6.23c0-.23-.19-.42-.42-.42-.23 0-.42.19-.42.42v6.23c0 .62.51 1.13 1.13 1.13.62 0 1.13-.51 1.13-1.13v-2.34a2.65 2.65 0 0 0 3.05-2.62zm2.83-3.1V604.71c0 1.49-.59 2.88-1.66 3.93a5.452 5.452 0 0 1-3.83 1.56h-.13c-2.95-.07-5.36-2.57-5.36-5.58v-9.04c0-1.49.59-2.88 1.66-3.92a5.444 5.444 0 0 1 3.96-1.56c2.96.06 5.36 2.57 5.36 5.57zm-.85 6.8V595.67c0-2.55-2.03-4.68-4.53-4.73a4.6 4.6 0 0 0-3.35 1.32c-.9.88-1.4 2.06-1.4 3.32v9.04c0 2.55 2.03 4.68 4.53 4.73a4.6 4.6 0 0 0 3.35-1.32c.9-.88 1.4-2.06 1.4-3.32v-2.24zm-5.88-3.7v-3.19c0-.68.56-1.24 1.24-1.24.68 0 1.24.56 1.24 1.24v3.19c0 .68-.56 1.24-1.24 1.24-.68 0-1.24-.56-1.24-1.24zm.85 0a.39.39 0 0 0 .78 0v-3.19a.39.39 0 0 0-.78 0v3.19z"/><g><path class="st5" d="M102.79 596.21h-.16v-.11h.45v.11h-.16v.47h-.13v-.47zM103.64 596.46c0-.07-.01-.16-.01-.24-.02.07-.04.16-.07.23l-.07.23h-.1l-.06-.23c-.02-.07-.04-.15-.05-.23 0 .08-.01.17-.01.24l-.01.22h-.12l.04-.59h.18l.06.2c.02.07.04.14.05.21.02-.07.04-.15.06-.21l.06-.19h.17l.03.59h-.13l-.02-.23z"/></g></g><path class="st4" d="M138.22 601.76v-67.42c0-.55-.45-1-1-1s-1 .45-1 1v67.42c0 .55.45 1 1 1 .56 0 1-.44 1-1z"/><text transform="translate(24.102 538.093)" class="st3" font-family="Roboto-Bold" font-size="12.265">My identity can...</text><text transform="translate(154.697 545.279)" class="st3" font-family="Roboto-Bold" font-size="17.288">Click to learn more</text><text transform="translate(155.962 560.896)"><tspan x="0" y="0" class="st3" font-family="Roboto-Bold" font-size="11.525">about our Identity Theft and</tspan><tspan x="11.11" y="13.83" class="st3" font-family="Roboto-Bold" font-size="11.525">Credit Monitoring plans</tspan></text><text transform="translate(179.326 592.33)"><tspan x="0" y="0" class="st3" font-family="Roboto-Regular" font-size="8">$1 trial for the first </tspan><tspan x="67.91" y="0" class="st3" font-family="Roboto-Bold" font-size="8">14 days</tspan><tspan x="96.01" y="0" class="st3" font-family="Roboto-Regular" font-size="8">,</tspan><tspan x="-4.34" y="9.6" class="st3" font-family="Roboto-Regular" font-size="8">plans starting at </tspan><tspan x="55.14" y="9.6" class="st3" font-family="Roboto-Bold" font-size="8">$9.99/month</tspan></text><g id="PG_x5F_Logo_x5F_W_1_"><path class="st5" d="M101.35 81.41c0-.12.04-.22.12-.3.08-.08.18-.12.31-.12.11 0 .21.04.3.12.09.08.13.18.13.3v4.75c0 .12-.04.22-.12.31-.08.08-.18.12-.31.12-.11 0-.21-.04-.3-.12a.387.387 0 0 1-.13-.31v-4.75zM77.39 88.89c-.35.26-.76.39-1.23.39a3.48 3.48 0 0 1-.62-.1c-.15-.04-.29-.11-.42-.2a.413.413 0 0 1-.19-.36c0-.13.04-.23.12-.31.08-.08.18-.12.3-.12.1 0 .18.03.26.08.19.1.39.16.59.16.16 0 .32-.03.45-.09.14-.06.26-.14.37-.24.11-.1.19-.22.25-.35.06-.13.09-.28.1-.44V84.1a.407.407 0 0 1 .42-.42c.11 0 .21.04.3.12.09.08.13.18.13.3v3.24c.02.62-.29 1.17-.83 1.55zM58.16 79.48a.407.407 0 0 1 .42-.42c.11 0 .21.04.3.12.09.08.13.18.13.3v.33a.407.407 0 0 1-.42.42c-.11 0-.21-.04-.3-.12a.38.38 0 0 1-.13-.3v-.33zm0 1.97a.407.407 0 0 1 .42-.42c.11 0 .21.04.3.12.09.08.13.18.13.3v4.71a.407.407 0 0 1-.42.42c-.11 0-.21-.04-.3-.12a.38.38 0 0 1-.13-.3v-4.71zM54.44 81.56a.407.407 0 0 1 .42-.42c.09 0 .18.03.26.09.08.06.13.14.15.25.34-.26.75-.38 1.21-.38.26.02.46.05.61.1.15.04.29.11.41.19s.19.2.19.36a.407.407 0 0 1-.42.42c-.1 0-.18-.03-.25-.08-.18-.1-.38-.15-.58-.15-.16 0-.31.03-.44.09-.14.06-.26.14-.36.24-.11.1-.19.21-.25.35-.06.13-.09.27-.1.43v3.14a.407.407 0 0 1-.42.42.4.4 0 0 1-.29-.12.416.416 0 0 1-.13-.3v-4.63zM59.59 81.61a.467.467 0 0 1-.03-.17c0-.1.04-.2.11-.29.07-.09.18-.13.3-.13.08 0 .16.02.23.07.07.04.13.11.16.19l1.66 3.87 1.66-3.87a.4.4 0 0 1 .39-.26c.13 0 .23.04.3.13.07.09.11.19.11.29 0 .06-.01.12-.03.17l-2.04 4.77c-.08.17-.21.26-.39.26-.19 0-.33-.09-.39-.26l-2.04-4.77zM64.63 83c0-.28.05-.54.16-.79.1-.25.25-.46.44-.64s.4-.33.64-.43c.24-.1.51-.16.79-.16s.54.05.78.16c.25.1.46.25.64.43s.33.4.44.64c.11.25.16.51.16.79v3.16c0 .12-.04.22-.13.3-.09.08-.19.12-.3.12-.1 0-.2-.03-.27-.1a.334.334 0 0 1-.14-.24c-.34.25-.74.38-1.19.38-.28 0-.54-.05-.79-.16-.25-.1-.46-.25-.64-.43s-.33-.4-.44-.64c-.11-.25-.16-.51-.16-.78V83zm.85 1.61c0 .16.03.31.1.45.06.14.15.27.25.38.1.11.23.19.38.25s.3.09.45.09c.16 0 .31-.03.45-.08.14-.06.27-.13.37-.24.1-.1.19-.22.25-.35.06-.13.1-.28.11-.44V83c0-.16-.03-.31-.1-.45-.06-.14-.15-.27-.25-.38-.1-.11-.23-.19-.38-.25a1.204 1.204 0 0 0-.91 0c-.14.06-.27.14-.38.25-.11.11-.19.23-.25.38-.06.14-.09.29-.09.45v1.61zM69.47 83c0-.28.05-.55.16-.8s.26-.46.45-.64.41-.32.66-.43c.25-.1.52-.16.8-.16.05 0 .16.01.31.03.15.02.32.07.51.15.19.08.37.21.56.38.18.17.33.4.45.7.02.06.03.11.03.16a.407.407 0 0 1-.42.42.399.399 0 0 1-.39-.27c-.1-.22-.25-.4-.45-.53-.19-.13-.41-.19-.64-.19a1.18 1.18 0 0 0-.84.34c-.11.11-.19.23-.25.38-.06.14-.09.29-.09.45v1.61c0 .16.03.31.1.45.06.14.15.27.25.38.1.11.23.19.38.25s.3.09.45.09c.24 0 .46-.06.65-.19s.34-.3.44-.53c.04-.08.09-.15.16-.2.07-.05.15-.07.24-.07.12 0 .22.04.3.13a.441.441 0 0 1 .09.46c-.15.33-.33.58-.54.75-.21.17-.41.3-.61.37s-.37.12-.5.12c-.14.01-.21.01-.22.01-.28 0-.54-.05-.79-.16-.25-.1-.46-.25-.64-.43s-.33-.4-.44-.64c-.11-.25-.16-.51-.16-.78V83zM84.92 81.45a.407.407 0 0 1 .42-.42c.11 0 .21.04.3.12.09.08.13.18.13.3v3.16a1.195 1.195 0 0 0 .34.83c.11.11.23.19.38.25.14.06.3.09.46.09.16 0 .31-.03.45-.09.15-.06.27-.14.38-.25.1-.11.19-.23.25-.38.06-.14.1-.29.1-.45v-3.16a.407.407 0 0 1 .42-.42c.11 0 .21.04.3.12.09.08.13.18.13.3v3.16c0 .28-.05.54-.16.78-.11.25-.25.46-.44.64-.18.18-.4.33-.64.43-.25.1-.51.16-.79.16s-.55-.05-.79-.16c-.24-.1-.46-.25-.64-.43-.19-.18-.33-.4-.44-.64-.1-.25-.16-.51-.16-.78v-3.16zM89.78 83c0-.28.05-.54.16-.79.1-.25.25-.46.44-.64s.4-.33.64-.43c.24-.1.51-.16.79-.16s.54.05.78.16c.25.1.46.25.64.43s.33.4.44.64c.11.25.16.51.16.79v3.16c0 .12-.04.22-.13.3-.09.08-.19.12-.3.12-.1 0-.2-.03-.27-.1a.334.334 0 0 1-.14-.24c-.34.25-.74.38-1.19.38-.28 0-.54-.05-.79-.16-.25-.1-.46-.25-.64-.43s-.33-.4-.44-.64c-.11-.25-.16-.51-.16-.78V83zm.85 1.61c0 .16.03.31.1.45.06.14.15.27.25.38.1.11.23.19.38.25s.3.09.45.09c.16 0 .31-.03.45-.08.14-.06.27-.13.37-.24.1-.1.19-.22.25-.35.06-.13.1-.28.11-.44V83c0-.16-.03-.31-.1-.45-.06-.14-.15-.27-.25-.38-.1-.11-.23-.19-.38-.25a1.204 1.204 0 0 0-.91 0c-.14.06-.27.14-.38.25-.11.11-.19.23-.25.38-.06.14-.09.29-.09.45v1.61zM94.67 81.56a.407.407 0 0 1 .42-.42c.09 0 .18.03.26.09.08.06.13.14.15.25.34-.26.75-.38 1.21-.38.26.02.46.05.61.1.15.04.29.11.41.19s.19.2.19.36a.407.407 0 0 1-.42.42c-.1 0-.18-.03-.25-.08-.18-.1-.38-.15-.58-.15-.16 0-.31.03-.44.09-.14.06-.26.14-.36.24-.11.1-.19.21-.25.35-.06.13-.09.27-.1.43v3.14a.407.407 0 0 1-.42.42.4.4 0 0 1-.29-.12.416.416 0 0 1-.13-.3v-4.63z"/><path class="st5" d="M101.35 79.48a.407.407 0 0 1 .42-.42c.11 0 .21.04.3.12.09.08.13.18.13.3v5.14c0 .28-.05.54-.16.78-.11.25-.25.46-.44.64-.18.18-.4.33-.64.43-.25.1-.51.16-.78.16-.28 0-.55-.05-.79-.16-.24-.1-.46-.25-.64-.43-.19-.18-.33-.4-.44-.64-.1-.25-.16-.51-.16-.78V83c0-.28.05-.54.16-.79s.25-.46.44-.64c.18-.18.4-.33.64-.43.25-.1.51-.16.79-.16.22 0 .42.03.62.1s.38.16.56.28v-1.88zM99 84.61a1.195 1.195 0 0 0 .34.83c.11.11.23.19.38.25.14.06.3.09.46.09.16 0 .31-.03.45-.09.15-.06.27-.14.38-.25.1-.11.19-.23.25-.38.06-.14.1-.29.1-.45V83a1.195 1.195 0 0 0-.34-.83c-.11-.11-.23-.19-.38-.25-.14-.06-.3-.09-.46-.09-.16 0-.31.03-.45.09-.15.06-.27.14-.38.25-.1.11-.19.23-.25.38-.07.14-.1.29-.1.45v1.61zM74.18 81.45a.407.407 0 0 1 .42-.42c.11 0 .21.04.3.12.09.08.13.18.13.3v3.16a1.195 1.195 0 0 0 .34.83c.11.11.23.19.38.25.14.06.3.09.46.09.16 0 .31-.03.45-.09.15-.06.27-.14.38-.25.1-.11.19-.23.25-.38.06-.14.1-.29.1-.45v-3.16a.407.407 0 0 1 .42-.42c.11 0 .21.04.3.12.09.08.13.18.13.3v3.16c0 .28-.05.54-.16.78-.11.25-.25.46-.44.64-.18.18-.4.33-.64.43-.25.1-.51.16-.79.16s-.55-.05-.79-.16c-.24-.1-.46-.25-.64-.43-.19-.18-.33-.4-.44-.64-.1-.25-.16-.51-.16-.78v-3.16zM83.73 82.83h-1.78c-.24 0-.43.18-.43.41 0 .24.19.43.43.43h1.42v.67c0 .91-.83 1.6-1.7 1.6-.97 0-1.78-.66-1.78-1.78V81.6c0-1.04.79-1.78 1.75-1.78.82 0 1.44.54 1.68 1.22.08.14.19.23.38.23.33 0 .54-.27.38-.65-.27-.82-1.11-1.67-2.45-1.67-1.53 0-2.63 1.21-2.63 2.6v2.66c0 1.4 1.11 2.61 2.63 2.61 1.38 0 2.54-1.08 2.54-2.31v-1.28c.01-.25-.2-.4-.44-.4z"/><path class="st5" d="M101.35 81.45a.407.407 0 0 1 .42-.42c.11 0 .21.04.3.12.09.08.13.18.13.3v4.71a.407.407 0 0 1-.42.42c-.11 0-.21-.04-.3-.12a.38.38 0 0 1-.13-.3v-4.71z"/><g><path class="st5" d="M49.05 79.76a.407.407 0 0 1 .42-.42h1.69c.36 0 .69.07 1.01.2.31.14.59.32.83.55.24.23.43.5.56.82.14.31.21.65.21 1.01s-.07.69-.21 1c-.14.31-.33.58-.56.82-.23.23-.51.42-.83.55-.32.14-.66.2-1.01.2h-1.27v1.67a.407.407 0 0 1-.42.42.4.4 0 0 1-.29-.12.416.416 0 0 1-.13-.3v-6.4zm.83.42v3.49h1.27c.25 0 .48-.05.7-.14a1.748 1.748 0 0 0 .94-.92 1.723 1.723 0 0 0 0-1.36 1.763 1.763 0 0 0-.94-.92c-.22-.09-.44-.14-.69-.14h-1.28z"/></g><path class="st5" d="M40.74 86.86v.87c0 .68-.56 1.24-1.24 1.24-.22 0-.43-.06-.62-.17a.425.425 0 0 1 .43-.73c.06.04.13.05.2.05.22 0 .39-.18.39-.39v-.87c0-.23.19-.42.42-.42.23-.01.42.18.42.42zm-2.85 1.69a.418.418 0 0 0-.57-.18c-.21.11-.29.36-.18.57.46.89 1.36 1.44 2.36 1.44 1.46 0 2.66-1.19 2.66-2.66v-.87c0-.23-.19-.42-.42-.42s-.42.19-.42.42v.87c0 1-.81 1.81-1.81 1.81-.69.01-1.3-.37-1.62-.98zm1.49-14.03c-2.18.06-3.95 1.93-3.95 4.15v9.05c0 1.11.44 2.15 1.24 2.92a4.02 4.02 0 0 0 2.83 1.15h.12c2.18-.06 3.95-1.93 3.95-4.15v-.69c0-1.07-.87-1.94-1.94-1.94h-1.31c-.23 0-.42.19-.42.42 0 .23.19.42.42.42h1.31c.6 0 1.09.49 1.09 1.09v.69c0 1.77-1.4 3.25-3.13 3.3-.88.03-1.71-.3-2.34-.91-.63-.61-.98-1.44-.98-2.31v-9.05c0-1.77 1.4-3.25 3.13-3.3.88-.03 1.71.3 2.34.91.63.61.98 1.44.98 2.31v5.32c0 .23.19.42.42.42s.42-.19.42-.42v-5.32c0-1.11-.44-2.15-1.24-2.92a4.033 4.033 0 0 0-2.94-1.14zm2.78 7.26v-3.19c0-1.46-1.19-2.66-2.66-2.66-1.46 0-2.66 1.19-2.66 2.66v.49c0 .23.19.42.42.42.23 0 .42-.19.42-.42v-.49a1.81 1.81 0 1 1 3.62 0v3.19c0 1-.81 1.81-1.81 1.81-.23 0-.45-.04-.66-.13a.415.415 0 0 0-.39.04.42.42 0 0 0-.19.35v2.89a.28.28 0 1 1-.56 0v-6.23c0-.23-.19-.42-.42-.42-.23 0-.42.19-.42.42v6.23c0 .62.51 1.13 1.13 1.13.62 0 1.13-.51 1.13-1.13V84.4a2.644 2.644 0 0 0 3.05-2.62zm2.83-3.09V87.73c0 1.49-.59 2.88-1.66 3.93a5.452 5.452 0 0 1-3.83 1.56h-.13c-2.95-.07-5.36-2.57-5.36-5.58V78.6c0-1.49.59-2.88 1.66-3.92a5.444 5.444 0 0 1 3.96-1.56c2.96.06 5.36 2.56 5.36 5.57zm-.85 6.79V78.68c0-2.55-2.03-4.68-4.53-4.73a4.6 4.6 0 0 0-3.35 1.32c-.9.88-1.4 2.06-1.4 3.32v9.04c0 2.55 2.03 4.68 4.53 4.73a4.6 4.6 0 0 0 3.35-1.32c.9-.88 1.4-2.06 1.4-3.32v-2.24zm-5.88-3.7v-3.19c0-.68.56-1.24 1.24-1.24.68 0 1.24.56 1.24 1.24v3.19a1.24 1.24 0 1 1-2.48 0zm.85 0a.39.39 0 0 0 .78 0v-3.19a.39.39 0 0 0-.78 0v3.19z"/><g><path class="st5" d="M102.79 79.22h-.16v-.11h.45v.11h-.16v.47h-.13v-.47zM103.64 79.47c0-.07-.01-.16-.01-.24-.02.07-.04.16-.07.23l-.07.23h-.1l-.06-.23c-.02-.07-.04-.15-.05-.23 0 .08-.01.17-.01.24l-.01.22h-.12l.04-.59h.18l.06.2c.02.07.04.14.05.21.02-.07.04-.15.06-.21l.06-.19h.17l.03.59h-.13l-.02-.23z"/></g></g><path class="st4" d="M138.22 84.78V17.35c0-.55-.45-1-1-1s-1 .45-1 1v67.42c0 .55.45 1 1 1 .56.01 1-.44 1-.99z"/><path class="st3" d="M165.57 24.2c-.1 1.32-.58 2.36-1.46 3.12s-2.04 1.14-3.48 1.14c-1.58 0-2.82-.53-3.72-1.59-.9-1.06-1.35-2.52-1.35-4.37v-.75c0-1.18.21-2.22.62-3.12.42-.9 1.01-1.59 1.79-2.07.77-.48 1.67-.72 2.7-.72 1.42 0 2.56.38 3.43 1.14s1.37 1.83 1.5 3.2h-2.53c-.06-.79-.28-1.37-.66-1.73s-.96-.54-1.73-.54c-.84 0-1.48.3-1.9.91-.42.6-.63 1.54-.65 2.82v.93c0 1.33.2 2.3.6 2.91s1.04.92 1.9.92c.78 0 1.37-.18 1.75-.54.38-.36.61-.91.66-1.66h2.53zM169.65 28.29h-2.45V15.33h2.45v12.96zM171.64 16.79c0-.37.12-.67.37-.9.25-.24.58-.35 1-.35.42 0 .75.12 1 .35.25.24.37.54.37.9 0 .37-.12.68-.38.91-.25.24-.58.35-.99.35-.41 0-.74-.12-.99-.35s-.38-.53-.38-.91zm2.59 11.5h-2.45v-9.13h2.45v9.13zM180.04 26.49c.45 0 .82-.12 1.1-.37.28-.25.43-.58.44-.99h2.29c-.01.62-.17 1.19-.51 1.7-.33.51-.79.91-1.36 1.2s-1.21.43-1.91.43c-1.31 0-2.33-.42-3.09-1.25-.75-.83-1.13-1.98-1.13-3.44v-.16c0-1.41.37-2.53 1.12-3.37.75-.84 1.78-1.26 3.08-1.26 1.14 0 2.06.32 2.75.98.69.65 1.04 1.52 1.05 2.6h-2.29c-.01-.48-.16-.86-.44-1.16-.28-.3-.65-.45-1.11-.45-.57 0-1 .21-1.29.62-.29.41-.44 1.09-.44 2.02v.25c0 .94.14 1.62.43 2.03s.72.62 1.31.62zM188.57 24.63l-.88.88v2.79h-2.44V15.33h2.44v7.18l.47-.61 2.34-2.74h2.93l-3.3 3.81 3.59 5.33h-2.8l-2.35-3.67zM201.72 16.91v2.25h1.56v1.79h-1.56v4.56c0 .34.06.58.19.73.13.15.38.22.74.22.27 0 .51-.02.72-.06v1.85c-.48.15-.97.22-1.48.22-1.71 0-2.58-.86-2.62-2.59v-4.92h-1.33v-1.79h1.33v-2.25h2.45zM204 23.64c0-.91.17-1.71.52-2.42s.85-1.26 1.51-1.65c.66-.39 1.42-.58 2.28-.58 1.23 0 2.24.38 3.02 1.13.78.75 1.21 1.78 1.3 3.07l.02.62c0 1.4-.39 2.53-1.17 3.37s-1.83 1.27-3.15 1.27c-1.32 0-2.37-.42-3.15-1.27-.79-.84-1.18-1.99-1.18-3.44v-.1zm2.44.17c0 .87.16 1.53.49 1.99.33.46.79.69 1.4.69.59 0 1.05-.23 1.38-.68s.5-1.18.5-2.18c0-.85-.17-1.51-.5-1.98s-.8-.7-1.4-.7c-.6 0-1.06.23-1.38.7-.32.47-.49 1.19-.49 2.16zM221.04 28.29h-2.45V15.33h2.45v12.96zM227.25 28.46c-1.34 0-2.43-.41-3.27-1.23-.84-.82-1.26-1.92-1.26-3.28v-.24c0-.92.18-1.74.53-2.46s.86-1.28 1.51-1.67c.65-.39 1.39-.59 2.22-.59 1.25 0 2.23.39 2.95 1.18.72.79 1.08 1.9 1.08 3.35v1h-5.82c.08.6.32 1.08.71 1.44.4.36.9.54 1.51.54.94 0 1.67-.34 2.2-1.02l1.2 1.34c-.37.52-.86.92-1.49 1.21-.62.29-1.31.43-2.07.43zm-.28-7.5c-.48 0-.88.16-1.18.49-.3.33-.49.8-.58 1.41h3.39v-.2c-.01-.54-.16-.96-.44-1.26-.27-.3-.67-.44-1.19-.44zM237.68 28.29a2.75 2.75 0 0 1-.24-.82c-.59.66-1.36.99-2.3.99-.89 0-1.64-.26-2.22-.78-.59-.52-.88-1.17-.88-1.96 0-.97.36-1.71 1.08-2.23.72-.52 1.75-.78 3.11-.79h1.12v-.52c0-.42-.11-.76-.33-1.01-.22-.25-.56-.38-1.03-.38-.41 0-.73.1-.97.3-.23.2-.35.47-.35.81h-2.44c0-.53.16-1.02.49-1.47s.79-.8 1.38-1.06c.6-.26 1.27-.38 2.01-.38 1.12 0 2.02.28 2.68.85.66.57.99 1.36.99 2.38v3.96c0 .87.13 1.52.36 1.97v.14h-2.46zm-2.01-1.69c.36 0 .69-.08 1-.24.3-.16.53-.38.67-.65v-1.57h-.91c-1.22 0-1.87.42-1.95 1.27l-.01.14c0 .3.11.55.32.75.21.2.5.3.88.3zM246.79 21.45a5.85 5.85 0 0 0-.88-.07c-.92 0-1.53.31-1.81.94v5.98h-2.44v-9.13h2.3l.07 1.09c.49-.84 1.17-1.26 2.03-1.26.27 0 .52.04.76.11l-.03 2.34zM250.21 19.16l.08 1.06c.65-.82 1.53-1.22 2.62-1.22.97 0 1.69.28 2.16.85s.71 1.42.73 2.55v5.9h-2.44v-5.84c0-.52-.11-.89-.34-1.13-.22-.23-.6-.35-1.12-.35-.69 0-1.2.29-1.54.88v6.44h-2.44v-9.13h2.29zM264.24 19.16l.08 1.02c.65-.79 1.52-1.19 2.62-1.19 1.18 0 1.98.46 2.42 1.39.64-.93 1.56-1.39 2.74-1.39.99 0 1.73.29 2.21.87s.73 1.44.73 2.6v5.83h-2.45v-5.82c0-.52-.1-.9-.3-1.14-.2-.24-.56-.36-1.07-.36-.73 0-1.24.35-1.52 1.05l.01 6.27h-2.44v-5.82c0-.53-.1-.91-.31-1.15-.21-.24-.56-.35-1.06-.35-.69 0-1.19.29-1.5.86v6.46h-2.44v-9.13h2.28zM276.54 23.64c0-.91.17-1.71.52-2.42s.85-1.26 1.51-1.65c.66-.39 1.42-.58 2.28-.58 1.23 0 2.24.38 3.02 1.13.78.75 1.21 1.78 1.3 3.07l.02.62c0 1.4-.39 2.53-1.17 3.37s-1.83 1.27-3.15 1.27c-1.32 0-2.37-.42-3.15-1.27-.79-.84-1.18-1.99-1.18-3.44v-.1zm2.44.17c0 .87.16 1.53.49 1.99.33.46.79.69 1.4.69.59 0 1.05-.23 1.38-.68s.5-1.18.5-2.18c0-.85-.17-1.51-.5-1.98s-.8-.7-1.4-.7c-.6 0-1.06.23-1.38.7-.33.47-.49 1.19-.49 2.16zM291.83 21.45a5.85 5.85 0 0 0-.88-.07c-.92 0-1.53.31-1.81.94v5.98h-2.44v-9.13h2.3l.07 1.09c.49-.84 1.17-1.26 2.03-1.26.27 0 .52.04.76.11l-.03 2.34zM297.2 28.46c-1.34 0-2.43-.41-3.27-1.23-.84-.82-1.26-1.92-1.26-3.28v-.24c0-.92.18-1.74.53-2.46s.86-1.28 1.51-1.67c.65-.39 1.39-.59 2.22-.59 1.25 0 2.23.39 2.95 1.18.72.79 1.08 1.9 1.08 3.35v1h-5.82c.08.6.32 1.08.71 1.44.4.36.9.54 1.51.54.94 0 1.67-.34 2.2-1.02l1.2 1.34c-.37.52-.86.92-1.49 1.21-.61.29-1.31.43-2.07.43zm-.28-7.5c-.48 0-.88.16-1.18.49-.3.33-.49.8-.58 1.41h3.39v-.2c-.01-.54-.16-.96-.44-1.26-.27-.3-.67-.44-1.19-.44z"/><g><path class="st3" d="M160.28 43.91c-.08-.15-.13-.33-.16-.55-.39.44-.91.66-1.54.66-.6 0-1.09-.17-1.48-.52s-.59-.78-.59-1.31c0-.65.24-1.14.72-1.49.48-.35 1.17-.52 2.07-.52h.75v-.35c0-.28-.07-.51-.22-.68s-.37-.25-.68-.25c-.27 0-.49.07-.64.2s-.23.31-.23.54h-1.63c0-.35.11-.68.33-.98.22-.3.52-.54.92-.71.4-.17.84-.26 1.34-.26.75 0 1.35.19 1.79.57.44.38.66.91.66 1.59v2.64c0 .58.08 1.01.24 1.31v.1h-1.65zm-1.34-1.13c.24 0 .46-.05.66-.16s.35-.25.45-.43v-1.05h-.61c-.81 0-1.25.28-1.3.84l-.01.1c0 .2.07.37.21.5s.35.2.6.2zM168.42 40.92c0 .98-.21 1.74-.62 2.28-.42.55-1 .82-1.74.82-.66 0-1.19-.25-1.58-.76l-.07.65h-1.46v-8.64h1.63v3.1c.38-.44.87-.66 1.48-.66.74 0 1.33.27 1.75.82s.63 1.31.63 2.3v.09zm-1.62-.12c0-.62-.1-1.06-.29-1.35-.19-.28-.49-.42-.87-.42-.52 0-.87.21-1.07.64v2.4c.2.43.56.64 1.08.64.53 0 .87-.26 1.04-.78.07-.24.11-.62.11-1.13zM169.17 40.81c0-.6.12-1.14.35-1.62s.57-.84 1-1.1c.44-.26.95-.39 1.52-.39.82 0 1.49.25 2.01.75.52.5.81 1.19.87 2.05l.01.42c0 .93-.26 1.68-.78 2.25s-1.22.85-2.1.85c-.88 0-1.58-.28-2.1-.84-.52-.56-.79-1.33-.79-2.3v-.07zm1.63.11c0 .58.11 1.02.33 1.33.22.31.53.46.93.46.39 0 .7-.15.92-.45.22-.3.33-.79.33-1.45 0-.57-.11-1.01-.33-1.32-.22-.31-.53-.47-.93-.47s-.71.15-.92.46c-.22.31-.33.79-.33 1.44zM179.59 43.29c-.4.49-.96.73-1.67.73-.65 0-1.15-.19-1.49-.56s-.52-.92-.53-1.65v-3.99h1.63v3.94c0 .63.29.95.87.95.55 0 .93-.19 1.14-.57v-4.32h1.63v6.09h-1.53l-.05-.62zM184.34 36.32v1.5h1.04v1.19h-1.04v3.04c0 .23.04.39.13.48s.25.15.5.15c.18 0 .34-.01.48-.04v1.23c-.32.1-.65.15-.98.15-1.14 0-1.72-.58-1.75-1.73v-3.28h-.89v-1.19h.89v-1.5h1.62zM188.9 40.81c0-.6.12-1.14.35-1.62s.57-.84 1-1.1c.44-.26.95-.39 1.52-.39.82 0 1.49.25 2.01.75.52.5.81 1.19.87 2.05l.01.42c0 .93-.26 1.68-.78 2.25s-1.22.85-2.1.85c-.88 0-1.58-.28-2.1-.84-.52-.56-.79-1.33-.79-2.3v-.07zm1.63.11c0 .58.11 1.02.33 1.33.22.31.53.46.93.46.39 0 .7-.15.92-.45.22-.3.33-.79.33-1.45 0-.57-.11-1.01-.33-1.32-.22-.31-.53-.47-.93-.47s-.71.15-.92.46c-.22.31-.33.79-.33 1.44zM199.32 43.29c-.4.49-.96.73-1.67.73-.65 0-1.15-.19-1.49-.56s-.52-.92-.53-1.65v-3.99h1.63v3.94c0 .63.29.95.87.95.55 0 .93-.19 1.14-.57v-4.32h1.63v6.09h-1.53l-.05-.62zM205.54 39.35c-.22-.03-.42-.04-.58-.04-.62 0-1.02.21-1.21.62v3.98h-1.63v-6.09h1.54l.04.73c.33-.56.78-.84 1.36-.84.18 0 .35.02.51.07l-.03 1.57zM211.1 43.91h-1.69v-8.19h1.69v8.19zM212.3 40.82c0-.95.21-1.71.64-2.27s1.01-.84 1.75-.84c.59 0 1.08.22 1.47.66v-3.11h1.63v8.64h-1.47l-.08-.65c-.41.51-.93.76-1.56.76-.72 0-1.29-.28-1.72-.85-.44-.55-.66-1.33-.66-2.34zm1.63.12c0 .57.1 1.01.3 1.31.2.3.49.46.87.46.5 0 .86-.21 1.06-.64v-2.41c-.2-.42-.55-.64-1.05-.64-.79.01-1.18.65-1.18 1.92zM221.85 44.02c-.89 0-1.62-.27-2.18-.82-.56-.55-.84-1.28-.84-2.19v-.16c0-.61.12-1.16.35-1.64.24-.48.57-.85 1-1.11s.93-.39 1.48-.39c.83 0 1.49.26 1.97.79s.72 1.27.72 2.23v.66h-3.88c.05.4.21.72.48.96.26.24.6.36 1 .36.63 0 1.12-.23 1.47-.68l.8.89c-.24.35-.57.61-.99.81s-.87.29-1.38.29zm-.19-5c-.32 0-.58.11-.79.33-.2.22-.33.53-.38.94h2.26v-.13c-.01-.36-.11-.64-.29-.84-.18-.2-.45-.3-.8-.3zM226.77 37.82l.05.7c.44-.54 1.02-.82 1.75-.82.65 0 1.13.19 1.44.57.31.38.48.95.48 1.7v3.93h-1.63v-3.89c0-.35-.08-.6-.22-.75-.15-.16-.4-.23-.75-.23-.46 0-.8.19-1.03.58v4.29h-1.63v-6.09h1.54zM233.68 36.32v1.5h1.04v1.19h-1.04v3.04c0 .23.04.39.13.48s.25.15.5.15c.18 0 .34-.01.48-.04v1.23c-.32.1-.65.15-.99.15-1.14 0-1.72-.58-1.74-1.73v-3.28h-.89v-1.19h.89v-1.5h1.62zM235.62 36.24c0-.24.08-.44.24-.6.16-.16.39-.24.67-.24s.5.08.66.24c.17.16.25.36.25.6 0 .25-.08.45-.25.61-.17.16-.39.24-.66.24s-.49-.08-.66-.24a.792.792 0 0 1-.25-.61zm1.72 7.67h-1.63v-6.09h1.63v6.09zM240.63 36.32v1.5h1.04v1.19h-1.04v3.04c0 .23.04.39.13.48.09.1.25.15.5.15.18 0 .34-.01.48-.04v1.23c-.32.1-.65.15-.99.15-1.14 0-1.72-.58-1.75-1.73v-3.28h-.89v-1.19h.89v-1.5h1.63zM244.85 41.61l1.13-3.79h1.74l-2.45 7.03-.13.32c-.36.8-.96 1.19-1.8 1.19-.24 0-.48-.04-.72-.11v-1.23l.25.01c.31 0 .54-.05.69-.14s.27-.25.36-.47l.19-.5-2.13-6.11h1.75l1.12 3.8zM257.17 37.08h-2.51v6.83h-1.69v-6.83h-2.48v-1.37h6.67v1.37zM259.61 38.48c.43-.52.97-.78 1.63-.78 1.32 0 1.99.77 2.01 2.3v3.9h-1.63v-3.85c0-.35-.07-.61-.22-.77-.15-.17-.4-.25-.75-.25-.48 0-.82.18-1.04.55v4.33h-1.63v-8.64h1.63v3.21zM267.28 44.02c-.89 0-1.62-.27-2.18-.82-.56-.55-.84-1.28-.84-2.19v-.16c0-.61.12-1.16.35-1.64.24-.48.57-.85 1-1.11.43-.26.93-.39 1.48-.39.83 0 1.49.26 1.97.79s.72 1.27.72 2.23v.66h-3.88c.05.4.21.72.48.96.26.24.6.36 1 .36.63 0 1.12-.23 1.47-.68l.8.89c-.24.35-.57.61-.99.81-.42.2-.88.29-1.38.29zm-.19-5c-.32 0-.58.11-.79.33s-.33.53-.39.94h2.26v-.13c-.01-.36-.11-.64-.29-.84-.18-.2-.45-.3-.79-.3zM271.15 43.91v-4.9h-.91v-1.19h.91v-.52c0-.68.2-1.21.59-1.59.39-.38.94-.57 1.65-.57.23 0 .5.04.83.11l-.02 1.26c-.13-.03-.3-.05-.49-.05-.61 0-.92.29-.92.86v.49H274V39h-1.21v4.9h-1.64zM276.78 36.32v1.5h1.04v1.19h-1.04v3.04c0 .23.04.39.13.48.09.1.25.15.49.15.18 0 .34-.01.48-.04v1.23c-.32.1-.65.15-.98.15-1.14 0-1.72-.58-1.74-1.73v-3.28h-.89v-1.19h.89v-1.5h1.62zM285.13 43.91c-.08-.15-.13-.33-.16-.55-.39.44-.91.66-1.54.66-.6 0-1.09-.17-1.48-.52s-.59-.78-.59-1.31c0-.65.24-1.14.72-1.49.48-.35 1.17-.52 2.07-.52h.75v-.35c0-.28-.07-.51-.22-.68s-.37-.25-.68-.25c-.27 0-.49.07-.64.2-.16.13-.23.31-.23.54h-1.63c0-.35.11-.68.33-.98.22-.3.53-.54.92-.71.4-.17.84-.26 1.34-.26.75 0 1.35.19 1.79.57.44.38.66.91.66 1.59v2.64c0 .58.08 1.01.24 1.31v.1h-1.65zm-1.35-1.13c.24 0 .46-.05.66-.16s.35-.25.45-.43v-1.05h-.61c-.81 0-1.25.28-1.3.84v.1c0 .2.07.37.21.5s.34.2.59.2zM289.27 37.82l.05.7c.44-.54 1.02-.82 1.75-.82.65 0 1.12.19 1.44.57.31.38.48.95.48 1.7v3.93h-1.63v-3.89c0-.35-.08-.6-.23-.75s-.4-.23-.75-.23c-.46 0-.8.19-1.03.58v4.29h-1.63v-6.09h1.55zM293.98 40.82c0-.95.21-1.71.64-2.27s1.01-.84 1.75-.84c.59 0 1.08.22 1.47.66v-3.11h1.63v8.64H298l-.08-.65c-.41.51-.93.76-1.56.76-.72 0-1.29-.28-1.72-.85-.44-.55-.66-1.33-.66-2.34zm1.62.12c0 .57.1 1.01.3 1.31.2.3.49.46.87.46.5 0 .86-.21 1.06-.64v-2.41c-.2-.42-.55-.64-1.05-.64-.78.01-1.18.65-1.18 1.92zM174.32 55.01c-.06.88-.39 1.58-.98 2.08-.59.51-1.36.76-2.32.76-1.05 0-1.88-.35-2.48-1.06s-.9-1.68-.9-2.91v-.5c0-.79.14-1.48.42-2.08.28-.6.67-1.06 1.19-1.38s1.12-.48 1.8-.48c.95 0 1.71.25 2.28.76.58.51.91 1.22 1 2.13h-1.69c-.04-.53-.19-.91-.44-1.15-.25-.24-.64-.36-1.16-.36-.56 0-.98.2-1.26.6s-.42 1.03-.43 1.88v.62c0 .89.13 1.53.4 1.94s.69.61 1.27.61c.52 0 .91-.12 1.17-.36.26-.24.4-.61.44-1.11h1.69zM178.74 53.17c-.22-.03-.42-.04-.58-.04-.62 0-1.02.21-1.21.62v3.98h-1.63v-6.09h1.54l.04.73c.33-.56.78-.84 1.36-.84.18 0 .35.02.51.07l-.03 1.57zM182.33 57.85c-.89 0-1.62-.27-2.18-.82s-.84-1.28-.84-2.19v-.16c0-.61.12-1.16.35-1.64s.57-.85 1-1.11c.43-.26.93-.39 1.48-.39.83 0 1.49.26 1.97.79s.72 1.27.72 2.23v.66h-3.88c.05.4.21.72.47.96s.6.36 1 .36c.63 0 1.12-.23 1.47-.68l.8.89c-.24.35-.57.61-.99.81s-.87.29-1.37.29zm-.19-5c-.32 0-.58.11-.79.33-.2.22-.33.53-.39.94h2.26v-.13c-.01-.36-.1-.64-.29-.84s-.44-.3-.79-.3zM185.5 54.65c0-.95.21-1.71.64-2.27.43-.56 1.01-.84 1.75-.84.59 0 1.08.22 1.47.66v-3.1h1.63v8.64h-1.47l-.08-.65c-.41.51-.93.76-1.56.76-.72 0-1.29-.28-1.72-.85-.44-.56-.66-1.34-.66-2.35zm1.63.12c0 .57.1 1.01.3 1.31.2.3.49.46.87.46.5 0 .86-.21 1.06-.64v-2.4c-.2-.42-.55-.64-1.05-.64-.79 0-1.18.64-1.18 1.91zM192.24 50.07c0-.24.08-.44.24-.6.16-.16.39-.24.67-.24s.5.08.66.24c.17.16.25.36.25.6 0 .25-.08.45-.25.61-.17.16-.39.24-.66.24s-.49-.08-.66-.24a.792.792 0 0 1-.25-.61zm1.72 7.67h-1.63v-6.09h1.63v6.09zM197.25 50.15v1.5h1.04v1.19h-1.04v3.04c0 .23.04.39.13.48.09.1.25.15.5.15.18 0 .34-.01.48-.04v1.23c-.32.1-.65.15-.99.15-1.14 0-1.72-.58-1.75-1.73v-3.28h-.89v-1.19h.89v-1.5h1.63zM204.38 49.55l2.1 5.94 2.09-5.94h2.22v8.19h-1.69V55.5l.17-3.87-2.21 6.11h-1.16l-2.21-6.1.17 3.86v2.24h-1.69v-8.19h2.21zM211.91 54.64c0-.6.12-1.14.35-1.62.23-.47.57-.84 1-1.1s.94-.39 1.52-.39c.82 0 1.49.25 2.01.75.52.5.81 1.19.87 2.05l.01.42c0 .93-.26 1.68-.78 2.25s-1.22.85-2.1.85c-.88 0-1.58-.28-2.1-.84-.52-.56-.78-1.33-.78-2.3v-.07zm1.63.11c0 .58.11 1.02.33 1.33s.53.46.93.46c.39 0 .7-.15.92-.45.22-.3.33-.79.33-1.45 0-.57-.11-1.01-.33-1.32-.22-.31-.53-.47-.93-.47s-.71.16-.92.46c-.22.31-.33.79-.33 1.44zM220.18 51.65l.05.7c.43-.54 1.02-.82 1.75-.82.65 0 1.13.19 1.44.57.32.38.48.95.48 1.7v3.93h-1.63v-3.89c0-.34-.07-.6-.22-.75-.15-.16-.4-.23-.75-.23-.46 0-.8.19-1.03.58v4.29h-1.63v-6.09h1.54zM225.12 50.07c0-.24.08-.44.25-.6.16-.16.39-.24.67-.24s.5.08.66.24c.16.16.25.36.25.6 0 .25-.08.45-.25.61-.17.16-.39.24-.66.24s-.49-.08-.66-.24a.8.8 0 0 1-.26-.61zm1.73 7.67h-1.63v-6.09h1.63v6.09zM230.14 50.15v1.5h1.04v1.19h-1.04v3.04c0 .23.04.39.13.48s.25.15.5.15c.18 0 .34-.01.48-.04v1.23c-.32.1-.65.15-.98.15-1.14 0-1.72-.58-1.75-1.73v-3.28h-.89v-1.19h.89v-1.5h1.62zM231.66 54.64c0-.6.12-1.14.35-1.62s.57-.84 1-1.1.95-.39 1.52-.39c.82 0 1.49.25 2.01.75.52.5.81 1.19.87 2.05l.01.42c0 .93-.26 1.68-.78 2.25s-1.22.85-2.1.85c-.88 0-1.58-.28-2.1-.84-.52-.56-.79-1.33-.79-2.3v-.07zm1.63.11c0 .58.11 1.02.33 1.33.22.31.53.46.93.46.39 0 .7-.15.92-.45.22-.3.33-.79.33-1.45 0-.57-.11-1.01-.33-1.32-.22-.31-.53-.47-.93-.47s-.71.16-.92.46c-.22.31-.33.79-.33 1.44zM241.86 53.17c-.22-.03-.42-.04-.58-.04-.62 0-1.02.21-1.21.62v3.98h-1.63v-6.09h1.54l.04.73c.33-.56.78-.84 1.36-.84.18 0 .35.02.51.07l-.03 1.57zM242.63 50.07c0-.24.08-.44.25-.6.16-.16.39-.24.67-.24s.5.08.66.24c.16.16.25.36.25.6 0 .25-.08.45-.25.61-.17.16-.39.24-.66.24s-.49-.08-.66-.24a.767.767 0 0 1-.26-.61zm1.72 7.67h-1.63v-6.09h1.63v6.09zM247.19 51.65l.05.7c.43-.54 1.02-.82 1.75-.82.64 0 1.12.19 1.44.57s.48.95.48 1.7v3.93h-1.63v-3.89c0-.34-.08-.6-.23-.75-.15-.16-.4-.23-.75-.23-.46 0-.8.19-1.03.58v4.29h-1.63v-6.09h1.55zM251.91 54.65c0-.93.22-1.69.67-2.26s1.04-.86 1.8-.86c.67 0 1.19.23 1.56.69l.07-.57h1.47v5.89c0 .53-.12 1-.36 1.39-.24.39-.58.69-1.02.9-.44.21-.95.31-1.54.31-.45 0-.88-.09-1.31-.27-.42-.18-.75-.41-.96-.69l.72-.99c.41.45.9.68 1.47.68.43 0 .77-.12 1.01-.35.24-.23.36-.56.36-.98v-.33c-.38.42-.87.64-1.48.64-.73 0-1.32-.29-1.78-.86-.45-.57-.68-1.33-.68-2.28v-.06zm1.63.12c0 .55.11.99.33 1.3.22.31.53.47.91.47.5 0 .85-.19 1.06-.56v-2.56c-.22-.37-.57-.56-1.05-.56-.39 0-.7.16-.92.48-.22.32-.33.8-.33 1.43zM267.08 54.75c0 .94-.21 1.69-.64 2.25s-1 .85-1.72.85c-.62 0-1.11-.21-1.49-.64v2.87h-1.63v-8.43h1.51l.06.6c.39-.47.91-.71 1.54-.71.75 0 1.33.28 1.75.83.42.56.62 1.32.62 2.3v.08zm-1.63-.12c0-.57-.1-1-.3-1.31-.2-.31-.49-.46-.88-.46-.51 0-.86.19-1.05.58v2.49c.2.4.55.6 1.06.6.78.01 1.17-.63 1.17-1.9zM269.8 57.74h-1.63V49.1h1.63v8.64zM274.67 57.74c-.07-.15-.13-.33-.16-.55-.39.44-.91.66-1.54.66-.6 0-1.09-.17-1.48-.52-.39-.35-.59-.78-.59-1.31 0-.65.24-1.14.72-1.49.48-.35 1.17-.52 2.07-.52h.75v-.35c0-.28-.07-.51-.22-.67s-.37-.25-.68-.25c-.27 0-.49.07-.64.2-.16.13-.23.31-.23.54h-1.63c0-.35.11-.68.33-.98.22-.3.53-.54.92-.71.4-.17.84-.26 1.34-.26.75 0 1.35.19 1.79.57.44.38.66.91.66 1.59v2.64c0 .58.08 1.01.24 1.31v.1h-1.65zm-1.34-1.13c.24 0 .46-.05.66-.16s.35-.25.45-.43v-1.05h-.61c-.81 0-1.25.28-1.3.84v.1c0 .2.07.37.21.5.14.13.34.2.59.2zM278.82 51.65l.05.7c.43-.54 1.02-.82 1.75-.82.65 0 1.13.19 1.44.57.32.38.48.95.48 1.7v3.93h-1.63v-3.89c0-.34-.07-.6-.22-.75-.15-.16-.4-.23-.75-.23-.46 0-.8.19-1.03.58v4.29h-1.63v-6.09h1.54zM287.07 56.06c0-.2-.1-.36-.3-.47-.2-.12-.51-.22-.95-.31-1.45-.3-2.17-.92-2.17-1.85 0-.54.22-.99.67-1.35.45-.36 1.03-.54 1.76-.54.77 0 1.39.18 1.86.55.46.36.69.84.69 1.42H287a.8.8 0 0 0-.23-.58c-.15-.15-.38-.23-.7-.23-.27 0-.49.06-.64.19-.15.12-.23.28-.23.47 0 .18.08.33.26.44.17.11.46.21.86.29.41.08.75.17 1.02.27.86.31 1.29.86 1.29 1.64 0 .55-.24 1-.71 1.35-.48.34-1.09.51-1.85.51-.51 0-.96-.09-1.36-.27-.39-.18-.71-.43-.93-.75s-.34-.66-.34-1.03h1.54c.02.29.12.51.32.66.2.15.47.23.8.23.31 0 .55-.06.71-.18.18-.12.26-.27.26-.46z"/></g><g><path class="st3" d="M182.67 73.88c0-.24-.08-.44-.25-.61s-.45-.31-.85-.45c-.55-.17-.96-.39-1.21-.66s-.38-.62-.38-1.04c0-.43.12-.78.37-1.05s.59-.44 1.03-.49v-.86h.58v.86c.44.06.78.24 1.02.55.24.31.37.73.37 1.26h-.72c0-.37-.09-.66-.26-.88-.17-.22-.41-.33-.71-.33-.31 0-.55.08-.71.24-.16.16-.25.38-.25.67 0 .27.09.48.26.64.17.16.46.3.86.43.4.13.71.27.93.43.22.15.39.33.49.54.11.21.16.45.16.72 0 .44-.13.79-.4 1.06-.26.27-.63.43-1.11.48v.75h-.58v-.75c-.48-.04-.86-.22-1.14-.52-.28-.3-.41-.71-.41-1.22h.72c0 .36.09.64.29.84.19.2.46.29.81.29.34 0 .61-.08.8-.25s.29-.37.29-.65zM186.67 75.34h-.73v-4.82l-1.46.54v-.66l2.07-.78h.11v5.72zM191.82 70.09v1.02h.79v.56h-.79v2.62c0 .17.04.3.11.38.07.08.19.13.36.13.08 0 .2-.02.34-.05v.58c-.19.05-.38.08-.55.08-.32 0-.57-.1-.73-.29s-.25-.47-.25-.83v-2.62h-.77v-.56h.77v-1.02h.72zM195.49 71.76c-.11-.02-.23-.03-.36-.03-.47 0-.8.2-.96.61v3h-.72v-4.23h.7l.01.49c.24-.38.57-.57 1.01-.57.14 0 .25.02.32.05v.68zM196.16 70c0-.12.04-.22.11-.3.07-.08.18-.12.32-.12s.25.04.32.12c.07.08.11.18.11.3s-.04.21-.11.29c-.07.08-.18.12-.32.12s-.25-.04-.32-.12a.436.436 0 0 1-.11-.29zm.78 5.34h-.72v-4.23h.72v4.23zM200.71 75.34c-.04-.08-.08-.23-.1-.45-.34.35-.74.52-1.2.52-.42 0-.76-.12-1.03-.35-.27-.24-.4-.54-.4-.9 0-.44.17-.78.5-1.03.33-.24.8-.37 1.41-.37h.7v-.33c0-.25-.08-.45-.23-.6-.15-.15-.37-.22-.67-.22-.26 0-.47.06-.65.2-.17.13-.26.29-.26.47h-.73c0-.21.07-.42.22-.61.15-.2.35-.35.61-.47s.54-.17.85-.17c.49 0 .87.12 1.14.37.28.24.42.58.43 1.01v1.95c0 .39.05.7.15.93v.06h-.74zm-1.2-.55c.23 0 .44-.06.64-.18s.35-.27.44-.46v-.87h-.57c-.89 0-1.33.26-1.33.78 0 .23.08.4.23.53.16.14.35.2.59.2zM203.24 75.34h-.72v-6h.72v6zM206.73 75.34v-3.67h-.67v-.56h.67v-.43c0-.45.12-.8.36-1.05s.58-.37 1.03-.37c.17 0 .33.02.5.07l-.04.58c-.12-.02-.25-.04-.39-.04-.23 0-.42.07-.54.21-.13.14-.19.33-.19.59v.45h.9v.56h-.9v3.67h-.73zM208.96 73.19c0-.41.08-.79.24-1.12.16-.33.39-.59.68-.77.29-.18.62-.27.99-.27.58 0 1.04.2 1.4.6s.53.93.53 1.59v.05c0 .41-.08.78-.24 1.11-.16.33-.38.58-.68.76-.29.18-.63.27-1.01.27-.57 0-1.04-.2-1.39-.6s-.53-.93-.53-1.58v-.04zm.73.09c0 .47.11.84.33 1.13.22.28.51.43.87.43.37 0 .66-.14.88-.43.22-.29.32-.69.32-1.21 0-.46-.11-.84-.33-1.13a1.04 1.04 0 0 0-.88-.43c-.36 0-.64.14-.86.43-.23.27-.33.68-.33 1.21zM215.76 71.76c-.11-.02-.23-.03-.36-.03-.47 0-.8.2-.96.61v3h-.72v-4.23h.7l.01.49c.24-.38.57-.57 1.01-.57.14 0 .25.02.32.05v.68zM219.38 70.09v1.02h.79v.56h-.79v2.62c0 .17.04.3.11.38.07.08.19.13.36.13.08 0 .2-.02.34-.05v.58c-.19.05-.38.08-.55.08-.32 0-.57-.1-.73-.29s-.25-.47-.25-.83v-2.62h-.77v-.56h.77v-1.02h.72zM221.74 71.63c.32-.39.74-.59 1.25-.59.89 0 1.34.5 1.35 1.51v2.79h-.72v-2.8c0-.3-.07-.53-.21-.68-.14-.15-.35-.22-.64-.22-.23 0-.44.06-.62.19-.18.12-.32.29-.41.49v3.01h-.72v-6h.72v2.3zM227.17 75.42c-.57 0-1.04-.19-1.4-.56-.36-.38-.54-.88-.54-1.51v-.13c0-.42.08-.79.24-1.12.16-.33.38-.59.67-.77.29-.19.6-.28.94-.28.55 0 .98.18 1.28.54.3.36.46.88.46 1.55v.3h-2.86c.01.42.13.75.37 1.01.23.26.53.38.89.38.25 0 .47-.05.65-.16.18-.1.33-.24.46-.41l.44.34c-.36.55-.89.82-1.6.82zm-.09-3.79c-.29 0-.54.11-.73.32-.2.21-.32.51-.37.89h2.12v-.05c-.02-.37-.12-.65-.3-.85-.18-.21-.41-.31-.72-.31zM231.99 75.34v-3.67h-.67v-.56h.67v-.43c0-.45.12-.8.36-1.05s.58-.37 1.03-.37c.17 0 .33.02.5.07l-.04.58c-.12-.02-.25-.04-.39-.04-.23 0-.42.07-.54.21-.13.14-.19.33-.19.59v.45h.9v.56h-.9v3.67h-.73zM234.42 70c0-.12.04-.22.11-.3.07-.08.18-.12.32-.12s.25.04.32.12c.07.08.11.18.11.3s-.04.21-.11.29c-.07.08-.18.12-.32.12s-.25-.04-.32-.12a.436.436 0 0 1-.11-.29zm.78 5.34h-.72v-4.23h.72v4.23zM238.4 71.76c-.11-.02-.23-.03-.36-.03-.47 0-.8.2-.96.61v3h-.72v-4.23h.7l.01.49c.24-.38.57-.57 1.01-.57.14 0 .25.02.32.05v.68zM241.53 74.22c0-.2-.07-.35-.22-.46-.15-.11-.4-.2-.77-.28-.37-.08-.66-.17-.87-.28s-.37-.24-.48-.39a.95.95 0 0 1-.15-.54c0-.35.15-.64.44-.88.29-.24.67-.36 1.12-.36.48 0 .87.12 1.17.37.3.25.45.56.45.95h-.73c0-.2-.08-.37-.25-.51a.958.958 0 0 0-.63-.21c-.26 0-.47.06-.62.17-.15.11-.22.26-.22.45 0 .17.07.31.21.39.14.09.39.17.75.25.36.08.65.18.88.29.22.11.39.25.5.4.11.16.16.35.16.58 0 .38-.15.68-.45.91-.3.23-.69.34-1.18.34-.34 0-.64-.06-.9-.18s-.46-.29-.61-.5c-.15-.21-.22-.45-.22-.7h.72c.01.24.11.43.29.58.18.14.42.21.72.21.27 0 .49-.06.66-.17.14-.1.23-.24.23-.43zM244.17 70.09v1.02h.79v.56h-.79v2.62c0 .17.04.3.11.38.07.08.19.13.36.13.08 0 .2-.02.34-.05v.58c-.19.05-.38.08-.55.08-.32 0-.57-.1-.73-.29s-.25-.47-.25-.83v-2.62h-.77v-.56h.77v-1.02h.72zM250.37 75.34h-1.13v-4.35l-1.35.42v-.92l2.36-.84h.12v5.69zM255.55 73.2h.64v.91h-.64v1.23h-1.13v-1.23h-2.33l-.05-.71 2.37-3.75h1.14v3.55zm-2.38 0h1.26v-2.01l-.07.13-1.19 1.88zM258.67 73.2c0-.66.15-1.18.44-1.57.29-.39.7-.59 1.21-.59.41 0 .75.15 1.02.46v-2.16h1.13v6h-1.02l-.05-.45c-.28.35-.64.53-1.09.53-.5 0-.9-.2-1.2-.59-.29-.39-.44-.93-.44-1.63zm1.12.08c0 .4.07.7.21.91.14.21.34.32.6.32.35 0 .59-.15.74-.44V72.4c-.14-.29-.38-.44-.73-.44-.54 0-.82.44-.82 1.32zM265.8 75.34c-.05-.1-.09-.23-.11-.38-.27.3-.63.46-1.07.46-.41 0-.76-.12-1.03-.36s-.41-.54-.41-.91c0-.45.17-.79.5-1.03.33-.24.81-.36 1.44-.36h.52v-.24c0-.2-.05-.35-.15-.47-.1-.12-.26-.18-.47-.18-.19 0-.34.04-.45.14-.11.09-.16.22-.16.38h-1.13c0-.25.08-.47.23-.68.15-.21.36-.37.64-.49s.59-.18.93-.18c.52 0 .93.13 1.24.39.31.26.46.63.46 1.1v1.83c0 .4.06.7.17.91v.07h-1.15zm-.93-.78c.17 0 .32-.04.46-.11s.24-.17.31-.3v-.73h-.42c-.57 0-.87.2-.9.59v.07c0 .14.05.26.15.35.09.08.22.13.4.13zM269.22 73.75l.78-2.63h1.21l-1.7 4.88-.09.22c-.25.55-.67.83-1.25.83-.16 0-.33-.03-.5-.07v-.86h.17c.21 0 .37-.03.48-.1.11-.07.19-.17.25-.32l.13-.35-1.48-4.24h1.21l.79 2.64zM273.94 74.17c0-.14-.07-.25-.21-.33-.14-.08-.36-.15-.66-.21-1.01-.21-1.51-.64-1.51-1.28 0-.38.16-.69.47-.94.31-.25.72-.38 1.22-.38.54 0 .96.13 1.29.38.32.25.48.58.48.98h-1.13c0-.16-.05-.29-.16-.4-.1-.11-.27-.16-.49-.16-.19 0-.34.04-.44.13-.1.09-.16.2-.16.33 0 .12.06.23.18.3.12.08.32.14.6.2.28.06.52.12.71.19.6.22.89.6.89 1.14 0 .38-.17.7-.5.94-.33.24-.76.36-1.28.36-.35 0-.67-.06-.94-.19-.28-.13-.49-.3-.65-.52a1.18 1.18 0 0 1-.23-.71h1.07c.01.2.08.35.22.46.14.11.32.16.55.16.22 0 .38-.04.49-.12.14-.08.19-.19.19-.33zM275.86 76.48l-.41-.28c.24-.34.37-.69.38-1.05v-.65h.71v.57c0 .26-.06.53-.19.79-.14.25-.3.46-.49.62zM179 82.88c0 .64-.15 1.16-.44 1.55-.29.39-.69.59-1.2.59s-.92-.16-1.21-.49v2.04h-.72v-5.85h.66l.04.47c.29-.36.7-.55 1.23-.55.51 0 .91.19 1.21.57.29.38.44.92.44 1.6v.07zm-.72-.09c0-.48-.1-.85-.3-1.13-.2-.28-.48-.41-.84-.41-.44 0-.77.19-.98.58v2.02c.22.39.55.58.99.58.35 0 .62-.14.83-.41.2-.28.3-.68.3-1.23zM180.71 84.94h-.72v-6h.72v6zM184.47 84.94c-.04-.08-.08-.23-.1-.45-.34.35-.74.52-1.2.52-.42 0-.76-.12-1.03-.35-.27-.24-.4-.53-.4-.9 0-.44.17-.78.5-1.03.33-.24.8-.37 1.41-.37h.7v-.33c0-.25-.08-.45-.23-.6-.15-.15-.37-.22-.67-.22-.26 0-.47.07-.65.2-.17.13-.26.29-.26.47h-.73c0-.21.07-.41.22-.61s.35-.35.61-.47c.26-.11.54-.17.85-.17.49 0 .87.12 1.14.37.28.24.42.58.43 1.01v1.95c0 .39.05.7.15.93v.06h-.74zm-1.2-.55c.23 0 .44-.06.64-.18s.35-.27.44-.46v-.87h-.57c-.89 0-1.33.26-1.33.78 0 .23.08.4.23.53.16.14.36.2.59.2zM186.9 80.72l.02.53c.32-.41.74-.61 1.27-.61.89 0 1.34.5 1.35 1.51v2.79h-.72v-2.8c0-.3-.07-.53-.21-.68-.14-.15-.35-.22-.64-.22-.23 0-.44.06-.62.19-.18.12-.32.29-.41.49v3.01h-.72V80.7h.68zM193.09 83.82c0-.2-.07-.35-.22-.46-.15-.11-.4-.2-.77-.28-.37-.08-.66-.17-.87-.28s-.37-.24-.48-.39a.95.95 0 0 1-.15-.54c0-.35.15-.64.44-.88.29-.24.67-.36 1.12-.36.48 0 .87.12 1.17.37.3.25.45.56.45.95h-.73c0-.2-.08-.37-.25-.51a.958.958 0 0 0-.63-.21c-.26 0-.47.06-.62.17-.15.12-.22.26-.22.45 0 .17.07.31.21.39.14.09.39.17.75.25.36.08.65.18.88.29.22.11.39.25.5.4.11.16.16.35.16.58 0 .38-.15.68-.45.91-.3.23-.69.34-1.18.34-.34 0-.64-.06-.9-.18s-.46-.29-.61-.5c-.15-.21-.22-.45-.22-.7h.72c.01.24.11.43.29.58.18.14.42.21.72.21.27 0 .49-.05.66-.17.15-.1.23-.24.23-.43zM199.2 83.82c0-.2-.07-.35-.22-.46-.15-.11-.4-.2-.77-.28-.37-.08-.66-.17-.87-.28s-.37-.24-.48-.39a.95.95 0 0 1-.15-.54c0-.35.15-.64.44-.88.29-.24.67-.36 1.12-.36.48 0 .87.12 1.17.37.3.25.45.56.45.95h-.73c0-.2-.08-.37-.25-.51a.958.958 0 0 0-.63-.21c-.26 0-.47.06-.62.17-.15.12-.22.26-.22.45 0 .17.07.31.21.39.14.09.39.17.75.25.36.08.65.18.88.29.22.11.39.25.5.4.11.16.16.35.16.58 0 .38-.15.68-.45.91-.3.23-.69.34-1.18.34-.34 0-.64-.06-.9-.18s-.46-.29-.61-.5c-.15-.21-.22-.45-.22-.7h.72c.01.24.11.43.29.58.18.14.42.21.72.21.27 0 .49-.05.66-.17.14-.1.23-.24.23-.43zM201.84 79.69v1.02h.79v.56h-.79v2.62c0 .17.04.3.11.38s.19.13.36.13c.08 0 .2-.02.34-.05v.58c-.19.05-.38.08-.55.08-.32 0-.57-.1-.73-.29s-.25-.47-.25-.83v-2.62h-.77v-.56h.77v-1.02h.72zM206.08 84.94c-.04-.08-.08-.23-.1-.45-.34.35-.74.52-1.2.52-.42 0-.76-.12-1.03-.35-.27-.24-.4-.53-.4-.9 0-.44.17-.78.5-1.03.33-.24.8-.37 1.41-.37h.7v-.33c0-.25-.08-.45-.23-.6-.15-.15-.37-.22-.67-.22-.26 0-.47.07-.65.2-.17.13-.26.29-.26.47h-.73c0-.21.07-.41.22-.61s.35-.35.61-.47c.26-.11.54-.17.85-.17.49 0 .87.12 1.14.37.28.24.42.58.43 1.01v1.95c0 .39.05.7.15.93v.06h-.74zm-1.2-.55c.23 0 .44-.06.64-.18s.35-.27.44-.46v-.87h-.57c-.89 0-1.33.26-1.33.78 0 .23.08.4.23.53.16.14.36.2.59.2zM209.87 81.36c-.11-.02-.23-.03-.36-.03-.47 0-.8.2-.96.61v3h-.72v-4.23h.7l.01.49c.24-.38.57-.57 1.01-.57.14 0 .25.02.32.05v.68zM211.71 79.69v1.02h.79v.56h-.79v2.62c0 .17.04.3.11.38s.19.13.36.13c.08 0 .2-.02.34-.05v.58c-.19.05-.38.08-.55.08-.32 0-.57-.1-.73-.29s-.25-.47-.25-.83v-2.62h-.77v-.56h.77v-1.02h.72zM213.34 79.59c0-.12.04-.22.11-.3.07-.08.18-.12.32-.12s.25.04.32.12c.07.08.11.18.11.3s-.04.21-.11.29c-.07.08-.18.12-.32.12s-.25-.04-.32-.12a.4.4 0 0 1-.11-.29zm.78 5.35h-.72v-4.23h.72v4.23zM215.96 80.72l.02.53c.32-.41.74-.61 1.27-.61.89 0 1.34.5 1.35 1.51v2.79h-.72v-2.8c0-.3-.07-.53-.21-.68-.14-.15-.35-.22-.64-.22-.23 0-.44.06-.62.19-.18.12-.32.29-.41.49v3.01h-.72V80.7h.68zM219.52 82.79c0-.66.15-1.18.46-1.57.3-.39.71-.58 1.21-.58.52 0 .92.18 1.21.55l.04-.47h.66v4.12c0 .55-.16.98-.49 1.29-.32.32-.76.47-1.31.47-.3 0-.6-.06-.89-.2-.29-.13-.51-.31-.67-.54l.38-.43c.31.38.69.57 1.14.57.35 0 .62-.1.82-.3.2-.2.29-.48.29-.84v-.36c-.29.33-.68.5-1.18.5-.5 0-.9-.2-1.2-.6-.31-.38-.47-.92-.47-1.61zm.73.09c0 .48.1.85.29 1.12.2.27.47.41.82.41.46 0 .79-.21 1-.62v-1.93c-.22-.4-.55-.61-1-.61-.35 0-.63.14-.82.41-.19.27-.29.68-.29 1.22zM228.77 84.94c-.04-.08-.08-.23-.1-.45-.34.35-.74.52-1.2.52-.42 0-.76-.12-1.03-.35-.27-.24-.4-.53-.4-.9 0-.44.17-.78.5-1.03.33-.24.8-.37 1.41-.37h.7v-.33c0-.25-.08-.45-.23-.6-.15-.15-.37-.22-.67-.22-.26 0-.47.07-.65.2-.17.13-.26.29-.26.47h-.73c0-.21.07-.41.22-.61s.35-.35.61-.47c.26-.11.54-.17.85-.17.49 0 .87.12 1.14.37.28.24.42.58.43 1.01v1.95c0 .39.05.7.15.93v.06h-.74zm-1.2-.55c.23 0 .44-.06.64-.18s.35-.27.44-.46v-.87h-.57c-.89 0-1.33.26-1.33.78 0 .23.08.4.23.53.16.14.36.2.59.2zM231.5 79.69v1.02h.79v.56h-.79v2.62c0 .17.04.3.11.38s.19.13.36.13c.08 0 .2-.02.34-.05v.58c-.19.05-.38.08-.55.08-.32 0-.57-.1-.73-.29s-.25-.47-.25-.83v-2.62H230v-.56h.77v-1.02h.73zM237.65 83.45c0-.21-.06-.38-.18-.51s-.32-.24-.6-.35c-.28-.11-.53-.21-.73-.32-.21-.11-.38-.23-.53-.36-.15-.14-.26-.3-.34-.48-.08-.18-.12-.4-.12-.66 0-.44.14-.8.42-1.08s.65-.45 1.12-.49v-.84h.62v.85c.46.07.82.26 1.08.58.26.32.39.73.39 1.24h-1.13c0-.31-.06-.55-.19-.7a.653.653 0 0 0-.52-.23c-.21 0-.38.06-.5.18s-.18.29-.18.5c0 .2.06.36.17.48.11.12.33.24.64.37.31.12.57.24.77.35.2.11.37.24.51.38s.24.3.32.48c.07.18.11.39.11.62 0 .44-.14.8-.41 1.08-.28.28-.66.44-1.14.49v.78h-.62v-.77c-.53-.06-.95-.25-1.24-.57-.29-.32-.44-.75-.44-1.28h1.13c0 .31.07.55.22.71.15.17.36.25.63.25.23 0 .41-.06.54-.18s.2-.32.2-.52zM242.18 82.67c-.29.29-.64.43-1.03.43-.5 0-.91-.17-1.21-.52-.3-.34-.45-.81-.45-1.4 0-.37.08-.71.24-1.03.16-.31.39-.55.68-.73.29-.17.62-.26.98-.26.38 0 .71.09 1 .28.29.19.52.46.68.81.16.35.24.75.25 1.21v.42c0 .95-.24 1.69-.71 2.23s-1.14.83-2 .87h-.28v-.94h.25c.99-.03 1.52-.49 1.6-1.37zm-.75-.43c.18 0 .34-.05.47-.14.13-.09.23-.21.3-.34v-.46c0-.38-.07-.68-.22-.89-.15-.21-.34-.32-.59-.32-.23 0-.41.1-.56.31-.15.21-.22.47-.22.78 0 .31.07.56.21.76.15.2.35.3.61.3zM244.23 84.39c0-.18.06-.33.18-.44.12-.11.27-.17.46-.17.18 0 .34.06.46.17.12.11.18.26.18.44s-.06.32-.18.43c-.12.11-.27.17-.46.17s-.34-.05-.46-.17a.551.551 0 0 1-.18-.43zM249.09 82.67c-.29.29-.64.43-1.03.43-.5 0-.91-.17-1.21-.52-.3-.34-.45-.81-.45-1.4 0-.37.08-.71.24-1.03.16-.31.39-.55.68-.73.29-.17.62-.26.98-.26.38 0 .71.09 1 .28.29.19.52.46.68.81.16.35.24.75.25 1.21v.42c0 .95-.24 1.69-.71 2.23s-1.14.83-2 .87h-.28v-.94h.25c.99-.03 1.52-.49 1.6-1.37zm-.75-.43c.18 0 .34-.05.47-.14.13-.09.23-.21.3-.34v-.46c0-.38-.07-.68-.22-.89-.15-.21-.34-.32-.59-.32-.23 0-.41.1-.56.31-.15.21-.22.47-.22.78 0 .31.07.56.21.76.15.2.35.3.61.3zM253.68 82.67c-.29.29-.64.43-1.03.43-.5 0-.91-.17-1.21-.52-.3-.34-.45-.81-.45-1.4 0-.37.08-.71.24-1.03.16-.31.39-.55.68-.73.29-.17.62-.26.98-.26.38 0 .71.09 1 .28.29.19.52.46.68.81.16.35.24.75.25 1.21v.42c0 .95-.24 1.69-.71 2.23s-1.14.83-2 .87h-.28v-.94h.25c.99-.03 1.52-.49 1.6-1.37zm-.75-.43c.18 0 .34-.05.47-.14.13-.09.23-.21.3-.34v-.46c0-.38-.07-.68-.22-.89-.15-.21-.34-.32-.59-.32-.23 0-.41.1-.56.31-.15.21-.22.47-.22.78 0 .31.07.56.21.76.15.2.35.3.61.3zM256.04 85.43h-.84l2.09-6.18h.84l-2.09 6.18zM259.73 80.72l.04.47c.3-.37.7-.55 1.21-.55.54 0 .92.21 1.12.64.3-.43.72-.64 1.27-.64.46 0 .8.13 1.02.4.22.27.34.67.34 1.21v2.7h-1.13v-2.7c0-.24-.05-.41-.14-.53-.09-.11-.26-.17-.5-.17-.34 0-.57.16-.7.48v2.9h-1.13v-2.69c0-.24-.05-.42-.14-.53-.1-.11-.26-.16-.49-.16-.32 0-.55.13-.7.4v2.99h-1.13v-4.23h1.06zM265.42 82.79c0-.42.08-.79.24-1.12.16-.33.39-.58.7-.76.3-.18.66-.27 1.06-.27.57 0 1.04.17 1.4.52.36.35.56.82.6 1.42l.01.29c0 .65-.18 1.17-.54 1.56-.36.39-.85.59-1.46.59s-1.1-.2-1.46-.59-.54-.92-.54-1.59v-.05zm1.13.08c0 .4.08.71.23.92.15.21.37.32.65.32.27 0 .49-.1.64-.31.15-.21.23-.55.23-1.01 0-.39-.08-.7-.23-.92a.742.742 0 0 0-.65-.33.74.74 0 0 0-.64.32c-.16.23-.23.56-.23 1.01zM271.16 80.72l.04.49c.3-.38.71-.57 1.21-.57.45 0 .78.13 1 .39.22.26.33.66.34 1.18v2.73h-1.13v-2.7c0-.24-.05-.41-.16-.52-.1-.11-.28-.16-.52-.16-.32 0-.56.14-.71.41v2.98h-1.13v-4.23h1.06zM275.95 79.68v1.04h.72v.83h-.72v2.11c0 .16.03.27.09.34s.17.1.34.1c.12 0 .24-.01.33-.03v.86c-.22.07-.45.1-.68.1-.79 0-1.2-.4-1.21-1.2v-2.28h-.62v-.83h.62v-1.04h1.13zM278.4 81.18c.3-.36.68-.54 1.13-.54.92 0 1.38.53 1.39 1.6v2.71h-1.13v-2.68c0-.24-.05-.42-.16-.54-.1-.12-.28-.17-.52-.17-.33 0-.57.13-.72.38v3h-1.13v-6h1.13v2.24z"/></g></svg>