<svg id="Layer_1" xmlns="http://www.w3.org/2000/svg" viewBox="0 0 320 100"><style>.st0{fill:#edf4fd}.st1{fill:#021d8b}</style><g id="Button_1_"><path class="st0" d="M96.05 62.14h-54.3c-9.35 0-16.94-7.58-16.94-16.94 0-9.35 7.58-16.94 16.94-16.94h54.29c9.35 0 16.94 7.58 16.94 16.94 0 9.35-7.58 16.94-16.93 16.94z"/><path class="st1" d="M49.51 46.63c0 1.46-.33 2.64-1 3.52s-1.56 1.32-2.69 1.32c-.96 0-1.74-.33-2.33-1v4.48h-2.54V41.79h2.36l.09.93c.62-.74 1.42-1.11 2.41-1.11 1.17 0 2.08.43 2.73 1.3s.98 2.06.98 3.59v.13zm-2.54-.19c0-.88-.16-1.57-.47-2.05s-.77-.72-1.37-.72c-.8 0-1.34.3-1.64.91v3.89c.31.63.86.94 1.66.94 1.22.01 1.82-.98 1.82-2.97zM56.43 44.17c-.35-.05-.65-.07-.91-.07-.96 0-1.59.33-1.89.98v6.22h-2.54v-9.51h2.4l.07 1.13c.51-.87 1.22-1.31 2.12-1.31.28 0 .54.04.79.11l-.04 2.45zM56.94 46.45c0-.94.18-1.78.54-2.52s.89-1.31 1.57-1.71 1.48-.61 2.38-.61c1.28 0 2.33.39 3.14 1.18.81.79 1.26 1.85 1.36 3.2l.02.65c0 1.46-.41 2.63-1.22 3.51-.81.88-1.91 1.32-3.28 1.32s-2.47-.44-3.28-1.32-1.23-2.07-1.23-3.59v-.11zm2.54.18c0 .9.17 1.59.51 2.07.34.48.83.72 1.46.72.62 0 1.1-.24 1.44-.71.35-.47.52-1.23.52-2.27 0-.89-.17-1.57-.52-2.06s-.83-.73-1.46-.73c-.62 0-1.1.24-1.44.73-.34.49-.51 1.24-.51 2.25zM70.55 39.45v2.34h1.63v1.86h-1.63v4.75c0 .35.07.6.2.76s.39.23.77.23c.28 0 .53-.02.75-.06v1.92c-.5.15-1.01.23-1.54.23-1.78 0-2.69-.9-2.72-2.7v-5.12h-1.39V41.8h1.39v-2.34h2.54zM77.97 51.47c-1.39 0-2.53-.43-3.41-1.28s-1.31-2-1.31-3.42v-.25c0-.96.18-1.81.55-2.56s.89-1.33 1.57-1.74 1.45-.61 2.32-.61c1.3 0 2.32.41 3.07 1.23s1.12 1.98 1.12 3.49v1.04h-6.06c.08.62.33 1.12.74 1.49s.94.56 1.57.56c.98 0 1.74-.35 2.29-1.06l1.25 1.4c-.38.54-.9.96-1.55 1.26s-1.36.45-2.15.45zm-.29-7.81c-.5 0-.91.17-1.23.51s-.51.83-.6 1.47h3.53v-.2c-.01-.56-.16-1-.46-1.31s-.7-.47-1.24-.47zM87.28 49.42c.47 0 .85-.13 1.14-.39s.45-.6.46-1.03h2.38c-.01.64-.18 1.23-.53 1.77s-.82.95-1.42 1.25-1.26.44-1.99.44c-1.36 0-2.43-.43-3.22-1.3s-1.18-2.06-1.18-3.58v-.17c0-1.46.39-2.63 1.17-3.51s1.85-1.31 3.21-1.31c1.19 0 2.14.34 2.86 1.02s1.08 1.58 1.09 2.7h-2.38c-.01-.49-.16-.9-.46-1.21s-.68-.46-1.16-.46c-.59 0-1.04.22-1.34.65s-.45 1.13-.45 2.1v.26c0 .98.15 1.68.45 2.11.3.45.76.66 1.37.66zM95.75 39.45v2.34h1.63v1.86h-1.63v4.75c0 .35.07.6.2.76s.39.23.77.23c.28 0 .53-.02.75-.06v1.92c-.5.15-1.01.23-1.54.23-1.78 0-2.69-.9-2.72-2.7v-5.12h-1.39V41.8h1.39v-2.34h2.54z"/></g></svg>