<svg id="Layer_1" xmlns="http://www.w3.org/2000/svg" viewBox="0 0 300 600"><style>.st0{fill:#021d8b}.st1{fill:#fff}</style><path class="st0" d="M57.2 41.19H34.91c-6.98 0-12.63 5.66-12.63 12.63V76.1c0 6.98 5.66 12.63 12.63 12.63H57.2c6.98 0 12.63-5.66 12.63-12.63V53.82c0-6.98-5.66-12.63-12.63-12.63z"/><path class="st1" d="M56.05 54.34h-.25v-.17h.71v.17h-.25v.74h-.21v-.74zM57.39 54.73c0-.11-.01-.24-.01-.38-.03.12-.07.25-.1.36l-.11.36H57l-.1-.36a3.8 3.8 0 0 1-.08-.36c-.01.12-.01.27-.02.38l-.02.35h-.18l.06-.92h.28l.09.31c.03.11.06.22.08.33.03-.11.06-.23.09-.33l.1-.3h.27l.05.92h-.2l-.03-.36z"/><path class="st0" d="M88.53 37.47h-3.77v10.39h-2.08V37.47h-3.73v-1.69h9.58v1.69zM91.91 39.86c.66-.76 1.49-1.15 2.5-1.15 1.91 0 2.88 1.09 2.91 3.28v5.87H95.3v-5.79c0-.62-.13-1.06-.4-1.32s-.66-.39-1.18-.39c-.81 0-1.41.36-1.81 1.08v6.41h-2.02V35.12h2.02v4.74zM103.31 48.03c-1.28 0-2.31-.4-3.11-1.21-.79-.8-1.19-1.88-1.19-3.22v-.25c0-.9.17-1.7.52-2.4.35-.71.83-1.25 1.46-1.65.62-.39 1.32-.59 2.09-.59 1.22 0 2.17.39 2.83 1.17.67.78 1 1.88 1 3.31V44h-5.87c.06.74.31 1.33.74 1.76.43.43.98.65 1.64.65.92 0 1.68-.37 2.26-1.12l1.09 1.04c-.36.54-.84.95-1.44 1.25s-1.27.45-2.02.45zm-.24-7.69c-.55 0-1 .19-1.34.58-.34.39-.56.93-.65 1.62h3.84v-.15c-.04-.67-.22-1.19-.54-1.53s-.75-.52-1.31-.52z"/><g><path class="st0" d="M216.97 77.69c-.09-.17-.17-.45-.23-.84-.64.67-1.43 1-2.36 1-.9 0-1.64-.26-2.21-.77-.57-.51-.85-1.15-.85-1.91 0-.96.36-1.69 1.07-2.2.71-.51 1.73-.77 3.05-.77h1.24v-.59c0-.46-.13-.84-.39-1.12s-.66-.42-1.19-.42c-.46 0-.83.11-1.13.34-.29.23-.44.52-.44.88h-2.02c0-.49.16-.95.49-1.38.33-.43.77-.76 1.33-1.01.56-.24 1.19-.36 1.88-.36 1.05 0 1.89.26 2.51.79s.95 1.27.96 2.23v4.05c0 .81.11 1.45.34 1.93v.14h-2.05zm-2.21-1.45c.4 0 .77-.1 1.12-.29.35-.19.62-.45.79-.78v-1.69h-1.09c-.75 0-1.31.13-1.68.39-.38.26-.56.63-.56 1.1 0 .39.13.7.39.93.25.22.59.34 1.03.34zM228.66 73.29c0 1.39-.32 2.5-.95 3.32-.63.83-1.48 1.24-2.54 1.24-.98 0-1.77-.32-2.36-.97v4.26h-2.02V68.71h1.86l.08.91c.59-.72 1.4-1.08 2.42-1.08 1.1 0 1.95.41 2.58 1.22.62.82.93 1.95.93 3.4v.13zm-2-.17c0-.9-.18-1.61-.54-2.13-.36-.53-.87-.79-1.53-.79-.82 0-1.42.34-1.78 1.02v3.98c.36.7.96 1.05 1.79 1.05.64 0 1.14-.26 1.51-.78s.55-1.3.55-2.35zM238.23 73.29c0 1.39-.32 2.5-.95 3.32-.63.83-1.48 1.24-2.54 1.24-.98 0-1.77-.32-2.36-.97v4.26h-2.02V68.71h1.86l.08.91c.59-.72 1.4-1.08 2.42-1.08 1.1 0 1.95.41 2.58 1.22.62.82.93 1.95.93 3.4v.13zm-2.01-.17c0-.9-.18-1.61-.54-2.13-.36-.53-.87-.79-1.53-.79-.82 0-1.42.34-1.78 1.02v3.98c.36.7.96 1.05 1.79 1.05.64 0 1.14-.26 1.51-.78s.55-1.3.55-2.35zM241.19 75.56c.38 0 .67.11.87.32.2.21.31.48.31.8 0 .31-.1.58-.31.78-.21.21-.5.31-.87.31-.36 0-.64-.1-.85-.31s-.32-.47-.32-.79.1-.59.31-.8c.21-.2.49-.31.86-.31z"/></g><g id="PG_x5F_Logo_x5F_Full_9_"><path class="st0" d="M198.18 64.18c0-.27.09-.5.28-.68.19-.19.41-.28.68-.28.25 0 .48.09.67.28.19.19.29.41.29.68v10.64c0 .27-.09.5-.28.68-.19.19-.41.28-.68.28-.25 0-.48-.09-.67-.28a.922.922 0 0 1-.29-.68V64.18zM144.47 80.96c-.79.59-1.71.88-2.77.88-.59-.05-1.05-.13-1.4-.23-.34-.1-.66-.25-.94-.44a.947.947 0 0 1-.43-.82c0-.29.09-.52.28-.69.18-.18.41-.26.68-.26.22 0 .41.06.58.18.42.23.86.35 1.33.35.37 0 .71-.07 1.02-.2.31-.13.59-.31.83-.54.24-.23.43-.49.57-.79.13-.3.21-.63.23-.98v-7.19c0-.27.09-.49.28-.68.18-.18.41-.28.68-.28.25 0 .47.09.67.28.19.18.29.41.29.68v7.27c-.02 1.37-.7 2.61-1.9 3.46zM101.33 59.84c0-.27.09-.49.28-.68.18-.18.41-.28.68-.28.25 0 .47.09.67.28.19.18.29.41.29.68v.73c0 .27-.09.49-.28.68-.18.18-.41.28-.68.28a.94.94 0 0 1-.67-.28.906.906 0 0 1-.29-.68v-.73zm0 4.43c0-.27.09-.49.28-.68.18-.18.41-.28.68-.28.25 0 .47.09.67.28.19.18.29.41.29.68v10.56c0 .27-.09.49-.28.68-.18.18-.41.28-.68.28a.94.94 0 0 1-.67-.28.906.906 0 0 1-.29-.68V64.27zM93.01 64.52c0-.26.09-.48.27-.66.18-.18.4-.27.66-.27a.9.9 0 0 1 .58.21c.17.14.28.32.33.55.77-.57 1.67-.86 2.71-.86.57.05 1.03.12 1.36.22.34.1.64.24.92.43s.42.46.42.8c0 .28-.09.5-.27.68a.93.93 0 0 1-.66.26c-.21 0-.4-.06-.57-.17-.41-.23-.84-.34-1.3-.34-.36 0-.69.07-1 .2-.3.13-.57.31-.81.53-.24.22-.42.48-.55.77-.13.3-.21.61-.22.96v7.03c0 .26-.09.48-.27.66-.18.18-.4.27-.66.27-.25 0-.46-.09-.65-.27a.87.87 0 0 1-.28-.66V64.52zM104.55 64.62a.957.957 0 0 1 .17-1.03c.17-.2.39-.3.68-.3.18 0 .36.05.52.15.16.1.28.24.36.43l3.72 8.68 3.72-8.68c.17-.39.46-.58.88-.58.28 0 .51.1.68.3.17.2.25.42.25.65 0 .13-.03.26-.08.38l-4.58 10.69c-.18.39-.48.58-.88.58-.44 0-.73-.19-.88-.58l-4.56-10.69zM115.84 67.74a4.478 4.478 0 0 1 1.33-3.21c.42-.41.9-.73 1.45-.97.54-.23 1.14-.35 1.77-.35.62 0 1.21.12 1.76.35.55.24 1.03.56 1.45.97.41.41.74.89.98 1.45.24.55.36 1.14.36 1.76v7.09c0 .27-.1.49-.29.68-.19.18-.41.28-.67.28-.23 0-.44-.07-.62-.21a.792.792 0 0 1-.31-.54c-.77.57-1.66.85-2.67.85a4.531 4.531 0 0 1-4.19-2.77c-.24-.55-.36-1.14-.36-1.76v-3.62zm1.91 3.62c0 .35.07.69.21 1.01a2.714 2.714 0 0 0 1.41 1.41c.33.13.67.2 1.02.2s.69-.06 1.01-.19c.32-.13.59-.3.83-.53.23-.23.42-.49.57-.79.14-.3.22-.63.24-.98v-3.75c0-.35-.07-.69-.21-1.01a2.714 2.714 0 0 0-1.41-1.41c-.33-.13-.67-.2-1.02-.2-.37 0-.71.07-1.03.2-.32.13-.6.32-.84.57-.24.24-.43.52-.57.84-.13.32-.2.65-.2 1.01v3.62zM126.7 67.74c0-.64.12-1.23.36-1.79.24-.55.58-1.03 1.01-1.43.43-.4.92-.72 1.48-.96.56-.23 1.16-.35 1.8-.35.12 0 .35.02.69.06.34.04.72.16 1.14.34.42.18.83.47 1.24.84.41.38.75.9 1.02 1.57.05.13.08.25.08.35 0 .27-.09.49-.28.68-.18.18-.41.28-.68.28-.2 0-.38-.05-.54-.16a.925.925 0 0 1-.34-.44c-.23-.5-.57-.9-1.01-1.18-.44-.28-.91-.43-1.43-.43-.37 0-.71.07-1.03.2-.32.13-.6.32-.84.57-.24.24-.43.52-.57.84-.13.32-.2.65-.2 1.01v3.62c0 .35.07.69.21 1.01a2.714 2.714 0 0 0 1.41 1.41c.33.13.67.2 1.02.2.54 0 1.02-.14 1.46-.43.44-.28.76-.68.98-1.18.08-.18.2-.33.35-.44.15-.11.33-.16.53-.16.27 0 .49.1.68.29.18.19.28.41.28.67 0 .12-.03.23-.08.35-.34.74-.74 1.3-1.21 1.68-.47.39-.93.66-1.37.83-.44.17-.82.26-1.13.28-.31.02-.47.03-.49.03a4.531 4.531 0 0 1-4.19-2.77c-.24-.55-.36-1.14-.36-1.76v-3.63zM161.35 64.27c0-.27.09-.49.28-.68.18-.18.41-.28.68-.28.25 0 .47.09.67.28.19.18.29.41.29.68v7.09c0 .35.07.69.2 1.01.13.32.32.6.57.84.24.24.52.43.84.57.32.13.66.2 1.03.2.35 0 .69-.07 1.02-.2.33-.13.61-.32.84-.57.23-.24.42-.52.57-.84.14-.32.21-.65.21-1.01v-7.09c0-.27.09-.49.28-.68.18-.18.41-.28.68-.28.25 0 .47.09.67.28.19.18.29.41.29.68v7.09c0 .62-.12 1.21-.36 1.76s-.57 1.04-.98 1.45c-.41.41-.89.73-1.45.97-.55.24-1.14.35-1.76.35-.64 0-1.23-.12-1.77-.35a4.73 4.73 0 0 1-1.45-.97c-.42-.41-.75-.89-.98-1.45-.23-.55-.35-1.14-.35-1.76v-7.09zM172.24 67.74a4.478 4.478 0 0 1 1.33-3.21c.42-.41.9-.73 1.45-.97.54-.23 1.14-.35 1.77-.35.62 0 1.21.12 1.76.35.55.24 1.03.56 1.45.97.41.41.74.89.98 1.45.24.55.36 1.14.36 1.76v7.09c0 .27-.1.49-.29.68-.19.18-.41.28-.67.28-.23 0-.44-.07-.62-.21a.792.792 0 0 1-.31-.54c-.77.57-1.66.85-2.67.85a4.531 4.531 0 0 1-4.19-2.77c-.24-.55-.36-1.14-.36-1.76v-3.62zm1.91 3.62c0 .35.07.69.21 1.01a2.714 2.714 0 0 0 1.41 1.41c.33.13.67.2 1.02.2s.69-.06 1.01-.19c.32-.13.59-.3.83-.53.23-.23.42-.49.57-.79.14-.3.22-.63.24-.98v-3.75c0-.35-.07-.69-.21-1.01a2.714 2.714 0 0 0-1.41-1.41c-.33-.13-.67-.2-1.02-.2-.37 0-.71.07-1.03.2-.32.13-.6.32-.84.57-.24.24-.43.52-.57.84-.13.32-.2.65-.2 1.01v3.62zM183.2 64.52c0-.26.09-.48.27-.66.18-.18.4-.27.66-.27a.9.9 0 0 1 .58.21c.17.14.28.32.33.55.77-.57 1.67-.86 2.71-.86.57.05 1.03.12 1.36.22.34.1.64.24.92.43s.42.46.42.8c0 .28-.09.5-.27.68a.93.93 0 0 1-.66.26c-.21 0-.4-.06-.57-.17-.41-.23-.84-.34-1.3-.34-.36 0-.69.07-1 .2-.3.13-.57.31-.81.53-.24.22-.42.48-.55.77-.13.3-.21.61-.22.96v7.03c0 .26-.09.48-.27.66-.18.18-.4.27-.66.27-.25 0-.46-.09-.65-.27a.87.87 0 0 1-.28-.66V64.52z"/><path class="st0" d="M198.19 59.84c0-.27.09-.49.28-.68.18-.18.41-.28.68-.28.25 0 .47.09.67.28.19.18.29.41.29.68v11.52c0 .62-.12 1.21-.36 1.76s-.57 1.04-.98 1.45c-.41.41-.89.73-1.45.97-.55.24-1.14.35-1.76.35-.64 0-1.23-.12-1.77-.35a4.73 4.73 0 0 1-1.45-.97c-.42-.41-.75-.89-.98-1.45-.24-.55-.35-1.14-.35-1.76v-3.62c0-.62.12-1.21.36-1.76s.57-1.03.98-1.45a4.531 4.531 0 0 1 3.21-1.32c.49 0 .95.08 1.4.23.44.15.86.36 1.24.63v-4.23zm-5.28 11.52c0 .35.07.69.2 1.01.13.32.32.6.57.84.24.24.52.43.84.57.32.13.66.2 1.03.2.35 0 .69-.07 1.02-.2.33-.13.61-.32.84-.57.23-.24.42-.52.57-.84.14-.32.21-.65.21-1.01v-3.62c0-.35-.07-.69-.2-1.01-.13-.32-.32-.6-.57-.84-.24-.24-.52-.43-.84-.57a2.7 2.7 0 0 0-1.03-.2c-.35 0-.69.07-1.02.2-.33.13-.61.32-.84.57-.23.24-.42.52-.57.84-.14.32-.21.65-.21 1.01v3.62zM137.25 64.27c0-.27.09-.49.28-.68.18-.18.41-.28.68-.28.25 0 .47.09.67.28.19.18.29.41.29.68v7.09c0 .35.07.69.2 1.01.13.32.32.6.57.84.24.24.52.43.84.57.32.13.66.2 1.03.2.35 0 .69-.07 1.02-.2.33-.13.61-.32.84-.57.23-.24.42-.52.57-.84.14-.32.21-.65.21-1.01v-7.09c0-.27.09-.49.28-.68.18-.18.41-.28.68-.28.25 0 .47.09.67.28.19.18.29.41.29.68v7.09c0 .62-.12 1.21-.36 1.76s-.57 1.04-.98 1.45c-.41.41-.89.73-1.45.97-.55.24-1.14.35-1.76.35-.64 0-1.23-.12-1.77-.35a4.73 4.73 0 0 1-1.45-.97c-.42-.41-.75-.89-.98-1.45-.23-.55-.35-1.14-.35-1.76v-7.09zM158.67 67.35h-3.98c-.54 0-.97.4-.97.93 0 .54.43.97.97.97h3.17v1.5c0 2.05-1.85 3.59-3.81 3.59-2.17 0-4-1.48-4-4v-5.73c0-2.34 1.76-3.99 3.93-3.99 1.83 0 3.23 1.21 3.77 2.73.18.31.43.51.86.51.74 0 1.21-.6.85-1.46-.61-1.84-2.49-3.73-5.48-3.73-3.43 0-5.9 2.72-5.9 5.84v5.97c0 3.15 2.48 5.85 5.9 5.85 3.09 0 5.71-2.42 5.71-5.17v-2.87c-.01-.58-.48-.94-1.02-.94z"/><path class="st0" d="M198.19 64.27c0-.27.09-.49.28-.68.18-.18.41-.28.68-.28.25 0 .47.09.67.28.19.18.29.41.29.68v10.56c0 .27-.09.49-.28.68-.18.18-.41.28-.68.28a.94.94 0 0 1-.67-.28.906.906 0 0 1-.29-.68V64.27z"/><g><path class="st0" d="M80.91 60.49c0-.26.09-.48.27-.66.18-.18.4-.27.66-.27h3.79c.8 0 1.56.15 2.26.46.7.3 1.32.71 1.86 1.23.53.52.95 1.13 1.27 1.83.31.7.47 1.46.47 2.26 0 .8-.16 1.55-.47 2.25-.31.7-.73 1.31-1.25 1.83s-1.14.94-1.86 1.24c-.71.3-1.47.46-2.27.46h-2.86v3.74c0 .26-.09.48-.27.66-.18.18-.4.27-.66.27-.25 0-.46-.09-.65-.27a.87.87 0 0 1-.28-.66V60.49zm1.87.93v7.82h2.86c.56 0 1.08-.1 1.56-.31.48-.2.91-.48 1.27-.84.36-.35.64-.77.85-1.24.2-.48.31-.98.31-1.52s-.11-1.05-.32-1.52c-.21-.48-.5-.89-.86-1.24s-.78-.63-1.27-.84c-.48-.2-1-.31-1.54-.31h-2.86z"/></g><g><path class="st0" d="M201.41 59.27h-.35v-.25h1.01v.25h-.36v1.07h-.3v-1.07zM203.33 59.83c-.01-.16-.01-.35-.01-.54h-.01c-.04.17-.1.35-.15.51l-.16.51h-.23l-.14-.51a6.39 6.39 0 0 1-.12-.51c-.01.18-.01.38-.02.54l-.02.5h-.28l.08-1.31h.4l.13.44c.04.15.08.32.11.47h.01c.04-.15.08-.33.12-.47l.14-.44h.39l.07 1.31h-.29l-.02-.5z"/></g></g></svg>