<svg id="Layer_1" xmlns="http://www.w3.org/2000/svg" viewBox="0 0 970 250"><style>.st0{fill:url(#SVGID_1_)}</style><linearGradient id="SVGID_1_" gradientUnits="userSpaceOnUse" x1="167.621" y1="166.681" x2="655.982" y2="166.681"><stop offset="0" stop-color="#18b9fb"/><stop offset=".5" stop-color="#782eeb"/><stop offset="1" stop-color="#e82d8a"/></linearGradient><path class="st0" d="M187.23 116.85h-7.04v19.09h-5.66v-19.09h-6.91v-4.37h19.61v4.37zm9.25 19.09c-.19-.35-.37-.88-.52-1.56-1 1.26-2.4 1.88-4.19 1.88-1.64 0-3.04-.5-4.19-1.49-1.15-.99-1.72-2.24-1.72-3.75 0-1.89.7-3.32 2.1-4.29 1.4-.97 3.43-1.45 6.09-1.45h1.68v-.92c0-1.61-.69-2.41-2.08-2.41-1.29 0-1.93.64-1.93 1.91h-5.43c0-1.68.72-3.05 2.15-4.1 1.43-1.05 3.26-1.58 5.49-1.58 2.22 0 3.98.54 5.27 1.63s1.95 2.57 1.98 4.46V132c.02 1.6.27 2.83.74 3.67v.27h-5.44zm-3.4-3.54c.68 0 1.24-.14 1.68-.44.45-.29.76-.62.96-.98v-2.79h-1.58c-1.89 0-2.84.85-2.84 2.54 0 .5.17.89.5 1.2.34.32.76.47 1.28.47zm18.09-2.95l-1.53 1.53v4.96h-5.43v-24.77h5.43v13.15l.55-.73 4.09-5.09h6.51l-6.11 7.17 6.51 10.26h-6.22l-3.8-6.48zm19.16 6.82c-2.67 0-4.84-.8-6.49-2.39-1.66-1.6-2.48-3.67-2.48-6.23v-.45c0-1.78.33-3.36.99-4.72.66-1.36 1.62-2.42 2.89-3.17s2.77-1.12 4.51-1.12c2.45 0 4.38.76 5.8 2.28 1.42 1.52 2.13 3.64 2.13 6.36v2.11h-10.8c.19.98.62 1.75 1.27 2.3.65.56 1.5.84 2.54.84 1.72 0 3.06-.6 4.03-1.8l2.48 2.93c-.68.93-1.63 1.68-2.88 2.23-1.22.55-2.56.83-3.99.83zm-.61-13.89c-1.59 0-2.54 1.05-2.84 3.16h5.48v-.42c.02-.87-.2-1.54-.66-2.02s-1.12-.72-1.98-.72zm28.18 13.56c-.19-.35-.37-.88-.52-1.56-1 1.26-2.4 1.88-4.19 1.88-1.64 0-3.04-.5-4.19-1.49-1.15-.99-1.72-2.24-1.72-3.75 0-1.89.7-3.32 2.1-4.29 1.4-.97 3.43-1.45 6.09-1.45h1.68v-.92c0-1.61-.69-2.41-2.08-2.41-1.29 0-1.93.64-1.93 1.91h-5.43c0-1.68.72-3.05 2.15-4.1 1.43-1.05 3.26-1.58 5.49-1.58 2.22 0 3.98.54 5.27 1.63s1.95 2.57 1.98 4.46V132c.02 1.6.27 2.83.74 3.67v.27h-5.44zm-3.4-3.54c.68 0 1.24-.14 1.68-.44.45-.29.76-.62.96-.98v-2.79h-1.58c-1.89 0-2.84.85-2.84 2.54 0 .5.17.89.5 1.2.34.32.77.47 1.28.47zm18.47-.32c.76 0 1.35-.21 1.77-.62.42-.41.62-.99.61-1.73h5.09c0 1.91-.68 3.48-2.05 4.71-1.37 1.22-3.13 1.84-5.29 1.84-2.54 0-4.53-.79-5.99-2.38s-2.19-3.79-2.19-6.61v-.23c0-1.76.33-3.32.97-4.67.65-1.35 1.59-2.38 2.81-3.11s2.67-1.09 4.35-1.09c2.27 0 4.07.63 5.4 1.89 1.33 1.26 2 2.96 2 5.11h-5.09c0-.9-.22-1.6-.66-2.08-.44-.48-1.03-.73-1.77-.73-1.41 0-2.23.9-2.46 2.69-.08.57-.11 1.35-.11 2.35 0 1.75.21 2.96.63 3.64.4.68 1.07 1.02 1.98 1.02zm16.1-17.91v4.33h2.87v3.77h-2.87v7.98c0 .66.12 1.11.35 1.37s.7.39 1.4.39c.54 0 .99-.03 1.35-.1v3.88c-.98.31-2 .47-3.06.47-1.87 0-3.25-.44-4.14-1.32s-1.34-2.22-1.34-4.01v-8.65h-2.22v-3.77h2.22v-4.33h5.44zm4.96-.16c0-.77.28-1.41.84-1.9.56-.49 1.28-.74 2.18-.74.89 0 1.62.25 2.17.74.56.5.84 1.13.84 1.9s-.28 1.41-.84 1.9c-.56.5-1.28.74-2.17.74-.89 0-1.62-.25-2.18-.74s-.84-1.12-.84-1.9zm5.77 21.93h-5.45v-17.43h5.45v17.43zm2.66-8.88c0-1.74.34-3.29 1.02-4.65.68-1.36 1.65-2.4 2.92-3.13s2.76-1.1 4.46-1.1c2.61 0 4.67.81 6.17 2.42 1.5 1.62 2.26 3.82 2.26 6.6v.19c0 2.72-.75 4.87-2.26 6.47-1.51 1.59-3.55 2.39-6.13 2.39-2.48 0-4.47-.74-5.98-2.23-1.5-1.49-2.32-3.5-2.43-6.05l-.03-.91zm5.43.34c0 1.61.25 2.79.76 3.54s1.25 1.13 2.24 1.13c1.93 0 2.92-1.49 2.96-4.46v-.55c0-3.12-1-4.69-3-4.69-1.82 0-2.8 1.35-2.95 4.04l-.01.99zm18.77-8.89l.18 2.05c1.2-1.58 2.86-2.37 4.98-2.37 1.82 0 3.17.54 4.07 1.63.9 1.08 1.36 2.72 1.39 4.9v11.23h-5.45v-11.01c0-.88-.18-1.53-.53-1.94-.35-.41-1-.62-1.93-.62-1.06 0-1.85.42-2.37 1.26v12.31h-5.43v-17.43h5.09zm13.76 15c0-.79.29-1.45.86-1.96.58-.51 1.29-.77 2.15-.77s1.58.25 2.15.77c.57.51.86 1.16.86 1.96s-.29 1.45-.86 1.96c-.58.51-1.29.77-2.15.77s-1.58-.25-2.15-.77c-.57-.51-.86-1.16-.86-1.96zm5.25-4.99h-4.4l-.69-16.03h5.79l-.7 16.03zm-167.51 23.56h5.64v16.1c0 1.49-.35 2.83-1.04 4-.69 1.17-1.66 2.08-2.9 2.72-1.24.64-2.62.97-4.15.97-2.56 0-4.54-.64-5.96-1.93s-2.13-3.12-2.13-5.48h5.67c0 1.07.19 1.85.56 2.34.37.48.99.73 1.86.73.78 0 1.39-.29 1.81-.88.42-.59.64-1.4.64-2.46v-16.11zm19.34 21.58c-1.15 1.47-2.7 2.21-4.66 2.21-1.91 0-3.36-.56-4.34-1.67-.98-1.11-1.47-2.71-1.47-4.79v-11.3h5.43v11.33c0 1.49.73 2.24 2.17 2.24 1.25 0 2.13-.45 2.66-1.34v-12.23h5.46v17.43h-5.09l-.16-1.88zm17.35-3.02c0-.46-.24-.83-.72-1.11s-1.4-.57-2.76-.87c-1.35-.3-2.47-.7-3.35-1.18-.88-.49-1.55-1.08-2.01-1.78-.46-.7-.69-1.5-.69-2.4 0-1.6.66-2.92 1.98-3.96 1.32-1.04 3.05-1.55 5.19-1.55 2.3 0 4.15.52 5.54 1.56s2.09 2.41 2.09 4.11h-5.45c0-1.4-.74-2.09-2.21-2.09-.57 0-1.05.16-1.43.48-.39.32-.58.71-.58 1.18 0 .48.24.88.71 1.18s1.23.55 2.26.74c1.04.19 1.95.42 2.73.69 2.62.9 3.93 2.52 3.93 4.85 0 1.59-.71 2.88-2.12 3.88-1.41 1-3.24 1.5-5.49 1.5-1.49 0-2.83-.27-4-.81s-2.08-1.27-2.74-2.19-.98-1.9-.98-2.92h5.08c.02.81.29 1.39.81 1.76.52.37 1.18.56 1.98.56.74 0 1.3-.15 1.67-.45.37-.3.56-.69.56-1.18zm14.1-16.87v4.33h2.87v3.77h-2.87v7.98c0 .66.12 1.11.35 1.37s.7.39 1.4.39c.54 0 .99-.03 1.35-.1v3.88c-.98.31-2 .47-3.06.47-1.87 0-3.25-.44-4.14-1.32s-1.34-2.22-1.34-4.01v-8.65h-2.22v-3.77h2.22v-4.33h5.44zm23.04 21.77c-.19-.35-.37-.88-.52-1.56-1 1.26-2.4 1.88-4.19 1.88-1.64 0-3.04-.5-4.19-1.49-1.15-.99-1.72-2.24-1.72-3.75 0-1.89.7-3.32 2.1-4.29 1.4-.97 3.43-1.45 6.09-1.45h1.68v-.92c0-1.61-.69-2.41-2.08-2.41-1.29 0-1.93.64-1.93 1.91h-5.43c0-1.68.72-3.05 2.15-4.1 1.43-1.05 3.26-1.58 5.49-1.58 2.22 0 3.98.54 5.27 1.63s1.95 2.57 1.98 4.46v7.72c.02 1.6.27 2.83.74 3.67v.27h-5.44zm-3.4-3.54c.68 0 1.24-.14 1.68-.44.45-.29.76-.62.96-.98v-2.79h-1.58c-1.89 0-2.84.85-2.84 2.54 0 .5.17.89.5 1.2.34.31.76.47 1.28.47zm25.64-18.23v4.33h2.87v3.77h-2.87v7.98c0 .66.12 1.11.35 1.37s.7.39 1.4.39c.54 0 .99-.03 1.35-.1v3.88c-.98.31-2 .47-3.06.47-1.87 0-3.25-.44-4.14-1.32s-1.34-2.22-1.34-4.01v-8.65h-2.22v-3.77h2.22v-4.33h5.44zm14.82 21.77c-.19-.35-.37-.88-.52-1.56-1 1.26-2.4 1.88-4.19 1.88-1.64 0-3.04-.5-4.19-1.49-1.15-.99-1.72-2.24-1.72-3.75 0-1.89.7-3.32 2.1-4.29 1.4-.97 3.43-1.45 6.09-1.45h1.68v-.92c0-1.61-.69-2.41-2.08-2.41-1.29 0-1.93.64-1.93 1.91h-5.43c0-1.68.72-3.05 2.15-4.1 1.43-1.05 3.26-1.58 5.49-1.58 2.22 0 3.98.54 5.27 1.63s1.95 2.57 1.98 4.46v7.72c.02 1.6.27 2.83.74 3.67v.27h-5.44zm-3.4-3.54c.68 0 1.24-.14 1.68-.44.45-.29.76-.62.96-.98v-2.79h-1.58c-1.89 0-2.84.85-2.84 2.54 0 .5.17.89.5 1.2.34.31.76.47 1.28.47zm27.28-5.04c0 2.71-.61 4.87-1.83 6.49-1.22 1.62-2.87 2.42-4.94 2.42-1.6 0-2.92-.58-3.95-1.76v8.14h-5.43v-24.14h5.08l.16 1.61c1.04-1.29 2.41-1.93 4.11-1.93 2.15 0 3.82.79 5.01 2.38 1.19 1.58 1.79 3.76 1.79 6.53v.26zm-5.43-.34c0-3.09-.9-4.64-2.71-4.64-1.29 0-2.15.46-2.58 1.39v6.86c.47.97 1.34 1.45 2.61 1.45 1.73 0 2.62-1.49 2.67-4.48v-.58zm25.86 8.92c-.19-.35-.37-.88-.52-1.56-1 1.26-2.4 1.88-4.19 1.88-1.64 0-3.04-.5-4.19-1.49-1.15-.99-1.72-2.24-1.72-3.75 0-1.89.7-3.32 2.1-4.29 1.4-.97 3.43-1.45 6.09-1.45h1.68v-.92c0-1.61-.69-2.41-2.08-2.41-1.29 0-1.93.64-1.93 1.91h-5.43c0-1.68.72-3.05 2.15-4.1 1.43-1.05 3.26-1.58 5.49-1.58 2.22 0 3.98.54 5.27 1.63s1.95 2.57 1.98 4.46v7.72c.02 1.6.27 2.83.74 3.67v.27h-5.44zm-3.4-3.54c.68 0 1.24-.14 1.68-.44.45-.29.76-.62.96-.98v-2.79h-1.58c-1.89 0-2.84.85-2.84 2.54 0 .5.17.89.5 1.2.34.31.77.47 1.28.47zm26.15-3.61l1.76-10.28h5.2l-4.11 17.43h-4.59l-2.88-10.34-2.9 10.34H344l-4.11-17.43h5.2l1.72 10.52 2.77-10.52h3.79l2.74 10.28zm18.73 7.15c-.19-.35-.37-.88-.52-1.56-1 1.26-2.4 1.88-4.19 1.88-1.64 0-3.04-.5-4.19-1.49-1.15-.99-1.72-2.24-1.72-3.75 0-1.89.7-3.32 2.1-4.29 1.4-.97 3.43-1.45 6.09-1.45h1.68v-.92c0-1.61-.69-2.41-2.08-2.41-1.29 0-1.93.64-1.93 1.91h-5.43c0-1.68.72-3.05 2.15-4.1 1.43-1.05 3.26-1.58 5.49-1.58 2.22 0 3.98.54 5.27 1.63s1.95 2.57 1.98 4.46v7.72c.02 1.6.27 2.83.74 3.67v.27h-5.44zm-3.4-3.54c.68 0 1.24-.14 1.68-.44.45-.29.76-.62.96-.98v-2.79h-1.58c-1.89 0-2.84.85-2.84 2.54 0 .5.17.89.5 1.2.34.31.76.47 1.28.47zm17.82-4.06l2.9-9.83h5.82l-7.11 20.35-.31.74c-1.01 2.26-2.79 3.38-5.35 3.38-.71 0-1.46-.11-2.24-.32v-3.87h.71c.76 0 1.35-.11 1.75-.33.4-.22.7-.62.89-1.19l.44-1.16-6.06-17.61h5.8l2.76 9.84zm19.54 7.6v-13.66h-2.53v-3.77h2.53v-1.39c0-1.99.59-3.53 1.76-4.62s2.81-1.64 4.93-1.64c.77 0 1.62.11 2.55.34l.02 4c-.33-.1-.78-.14-1.34-.14-1.64 0-2.46.71-2.46 2.13v1.34h3.4v3.77h-3.4v13.66h-5.46zm21.31-12.52l-1.79-.13c-1.71 0-2.8.54-3.29 1.61v11.04h-5.43v-17.43h5.09l.18 2.24c.91-1.71 2.19-2.56 3.82-2.56.58 0 1.08.06 1.52.19l-.1 5.04zm.69 3.64c0-1.74.34-3.29 1.02-4.65.68-1.36 1.65-2.4 2.92-3.13s2.76-1.1 4.46-1.1c2.61 0 4.67.81 6.17 2.42 1.5 1.62 2.26 3.82 2.26 6.6v.2c0 2.72-.75 4.87-2.26 6.47-1.51 1.59-3.55 2.39-6.13 2.39-2.48 0-4.47-.74-5.98-2.23-1.5-1.49-2.32-3.5-2.43-6.05l-.03-.92zm5.43.34c0 1.61.25 2.79.76 3.54s1.25 1.13 2.24 1.13c1.93 0 2.92-1.49 2.96-4.46v-.55c0-3.12-1-4.69-3-4.69-1.82 0-2.8 1.35-2.95 4.04l-.01.99zm18.92-8.89l.18 2.05c1.24-1.58 2.89-2.37 4.98-2.37 2.2 0 3.69.88 4.46 2.63 1.18-1.75 2.89-2.63 5.12-2.63 3.53 0 5.35 2.14 5.45 6.41v11.34h-5.45v-11.01c0-.89-.15-1.54-.45-1.95s-.85-.61-1.64-.61c-1.07 0-1.88.48-2.4 1.43l.02.22v11.91h-5.45v-10.97c0-.91-.14-1.57-.44-1.98-.29-.41-.84-.61-1.66-.61-1.04 0-1.84.48-2.38 1.43v12.13h-5.43V158.1h5.09zm41.33 17.43c-.19-.35-.37-.88-.52-1.56-1 1.26-2.4 1.88-4.19 1.88-1.64 0-3.04-.5-4.19-1.49-1.15-.99-1.72-2.24-1.72-3.75 0-1.89.7-3.32 2.1-4.29 1.4-.97 3.43-1.45 6.09-1.45h1.68v-.92c0-1.61-.69-2.41-2.08-2.41-1.29 0-1.93.64-1.93 1.91h-5.43c0-1.68.72-3.05 2.15-4.1 1.43-1.05 3.26-1.58 5.49-1.58 2.22 0 3.98.54 5.27 1.63s1.95 2.57 1.98 4.46v7.72c.02 1.6.27 2.83.74 3.67v.27h-5.44zm-3.4-3.54c.68 0 1.24-.14 1.68-.44.45-.29.76-.62.96-.98v-2.79h-1.58c-1.89 0-2.84.85-2.84 2.54 0 .5.17.89.5 1.2.34.31.76.47 1.28.47zm18.62-5.3c0-2.76.6-4.94 1.79-6.53 1.19-1.59 2.86-2.38 4.99-2.38 1.56 0 2.87.61 3.93 1.84v-8.83h5.45v24.75h-4.88l-.27-1.87c-1.12 1.46-2.54 2.19-4.25 2.19-2.07 0-3.72-.79-4.93-2.38s-1.83-3.86-1.83-6.79zm5.43.34c0 3.09.9 4.64 2.71 4.64 1.2 0 2.06-.5 2.58-1.51v-6.64c-.49-1.03-1.34-1.55-2.54-1.55-1.68 0-2.58 1.35-2.72 4.06l-.03 1zm22.26 8.83c-2.67 0-4.84-.8-6.49-2.39-1.66-1.6-2.48-3.67-2.48-6.23v-.45c0-1.78.33-3.36.99-4.72.66-1.36 1.62-2.42 2.89-3.17s2.77-1.12 4.51-1.12c2.45 0 4.38.76 5.8 2.28 1.42 1.52 2.13 3.64 2.13 6.36v2.11h-10.8c.19.98.62 1.75 1.27 2.3.65.56 1.5.84 2.54.84 1.72 0 3.06-.6 4.03-1.8l2.48 2.93c-.68.93-1.63 1.68-2.88 2.23-1.23.55-2.56.83-3.99.83zm-.62-13.89c-1.59 0-2.54 1.05-2.84 3.16h5.48v-.42c.02-.87-.2-1.54-.66-2.02-.46-.49-1.12-.72-1.98-.72zm9.46 4.72c0-2.76.6-4.94 1.79-6.53 1.19-1.59 2.86-2.38 4.99-2.38 1.56 0 2.87.61 3.93 1.84v-8.83h5.45v24.75h-4.88l-.27-1.87c-1.12 1.46-2.54 2.19-4.25 2.19-2.07 0-3.72-.79-4.93-2.38s-1.83-3.86-1.83-6.79zm5.43.34c0 3.09.9 4.64 2.71 4.64 1.2 0 2.06-.5 2.58-1.51v-6.64c-.49-1.03-1.34-1.55-2.54-1.55-1.68 0-2.58 1.35-2.72 4.06l-.03 1zm13.78-13.43c0-.77.28-1.41.84-1.9.56-.49 1.28-.74 2.18-.74.89 0 1.62.25 2.17.74.56.5.84 1.13.84 1.9s-.28 1.41-.84 1.9c-.56.5-1.28.74-2.17.74-.89 0-1.62-.25-2.18-.74s-.84-1.12-.84-1.9zm5.77 21.93h-5.45v-17.43h5.45v17.43zm10.71-3.86c.76 0 1.35-.21 1.77-.62.42-.41.62-.99.61-1.73h5.09c0 1.91-.68 3.48-2.05 4.71-1.37 1.22-3.13 1.84-5.29 1.84-2.54 0-4.53-.79-5.99-2.38s-2.19-3.79-2.19-6.61v-.23c0-1.76.33-3.32.97-4.67.65-1.35 1.59-2.38 2.81-3.11s2.67-1.09 4.35-1.09c2.27 0 4.07.63 5.4 1.89 1.33 1.26 2 2.96 2 5.11h-5.09c0-.9-.22-1.6-.66-2.08-.44-.48-1.03-.73-1.77-.73-1.41 0-2.23.9-2.46 2.69-.08.57-.11 1.35-.11 2.35 0 1.75.21 2.96.63 3.64.4.68 1.07 1.02 1.98 1.02zm19.6 3.86c-.19-.35-.37-.88-.52-1.56-1 1.26-2.4 1.88-4.19 1.88-1.64 0-3.04-.5-4.19-1.49-1.15-.99-1.72-2.24-1.72-3.75 0-1.89.7-3.32 2.1-4.29 1.4-.97 3.43-1.45 6.09-1.45h1.68v-.92c0-1.61-.69-2.41-2.08-2.41-1.29 0-1.93.64-1.93 1.91h-5.43c0-1.68.72-3.05 2.15-4.1 1.43-1.05 3.26-1.58 5.49-1.58 2.22 0 3.98.54 5.27 1.63s1.95 2.57 1.98 4.46v7.72c.02 1.6.27 2.83.74 3.67v.27h-5.44zm-3.4-3.54c.68 0 1.24-.14 1.68-.44.45-.29.76-.62.96-.98v-2.79h-1.58c-1.89 0-2.84.85-2.84 2.54 0 .5.17.89.5 1.2.34.31.76.47 1.28.47zm17.42-18.23v4.33h2.87v3.77h-2.87v7.98c0 .66.12 1.11.35 1.37s.7.39 1.4.39c.54 0 .99-.03 1.35-.1v3.88c-.98.31-2 .47-3.06.47-1.87 0-3.25-.44-4.14-1.32s-1.34-2.22-1.34-4.01v-8.65h-2.22v-3.77h2.22v-4.33h5.44zm13.43 22.1c-2.67 0-4.84-.8-6.49-2.39-1.66-1.6-2.48-3.67-2.48-6.23v-.45c0-1.78.33-3.36.99-4.72.66-1.36 1.62-2.42 2.89-3.17s2.77-1.12 4.51-1.12c2.45 0 4.38.76 5.8 2.28 1.42 1.52 2.13 3.64 2.13 6.36v2.11h-10.8c.19.98.62 1.75 1.27 2.3.65.56 1.5.84 2.54.84 1.72 0 3.06-.6 4.03-1.8l2.48 2.93c-.68.93-1.63 1.68-2.88 2.23-1.22.55-2.56.83-3.99.83zm-.61-13.89c-1.59 0-2.54 1.05-2.84 3.16H633v-.42c.02-.87-.2-1.54-.66-2.02-.46-.49-1.12-.72-1.98-.72zm9.46 4.72c0-2.76.6-4.94 1.79-6.53 1.19-1.59 2.86-2.38 4.99-2.38 1.56 0 2.87.61 3.93 1.84v-8.83h5.45v24.75h-4.88l-.27-1.87c-1.12 1.46-2.54 2.19-4.25 2.19-2.07 0-3.72-.79-4.93-2.38s-1.83-3.86-1.83-6.79zm5.43.34c0 3.09.9 4.64 2.71 4.64 1.2 0 2.06-.5 2.58-1.51v-6.64c-.49-1.03-1.34-1.55-2.54-1.55-1.68 0-2.58 1.35-2.72 4.06l-.03 1zm-476.73 26.17c0-.77.28-1.41.84-1.9.56-.49 1.28-.74 2.18-.74.89 0 1.62.25 2.17.74.56.5.84 1.13.84 1.9s-.28 1.41-.84 1.9c-.56.5-1.28.74-2.17.74-.89 0-1.62-.25-2.18-.74s-.84-1.12-.84-1.9zm5.77 21.93h-5.45v-17.43h5.45v17.43zm2.66-8.84c0-2.76.6-4.94 1.79-6.53 1.19-1.59 2.86-2.38 4.99-2.38 1.56 0 2.87.61 3.93 1.84v-8.83h5.45v24.75h-4.88l-.27-1.87c-1.12 1.46-2.54 2.19-4.25 2.19-2.07 0-3.72-.79-4.93-2.38s-1.83-3.86-1.83-6.79zm5.43.34c0 3.09.9 4.64 2.71 4.64 1.2 0 2.06-.5 2.58-1.51v-6.64c-.49-1.03-1.34-1.55-2.54-1.55-1.68 0-2.58 1.35-2.72 4.06l-.03 1zm22.25 8.83c-2.67 0-4.84-.8-6.49-2.39-1.66-1.6-2.48-3.67-2.48-6.23v-.45c0-1.78.33-3.36.99-4.72.66-1.36 1.62-2.42 2.89-3.17s2.77-1.12 4.51-1.12c2.45 0 4.38.76 5.8 2.28 1.42 1.52 2.13 3.64 2.13 6.36v2.11h-10.8c.19.98.62 1.75 1.27 2.3.65.56 1.5.84 2.54.84 1.72 0 3.06-.6 4.03-1.8l2.48 2.93c-.68.93-1.63 1.68-2.88 2.23-1.22.55-2.56.83-3.99.83zm-.61-13.89c-1.59 0-2.54 1.05-2.84 3.16h5.48v-.42c.02-.87-.2-1.54-.66-2.02s-1.12-.72-1.98-.72zm15.13-3.87l.18 2.05c1.2-1.58 2.86-2.37 4.98-2.37 1.82 0 3.17.54 4.07 1.63.9 1.08 1.36 2.72 1.39 4.9v11.23h-5.45v-11.01c0-.88-.18-1.53-.53-1.94-.35-.41-1-.62-1.93-.62-1.06 0-1.85.42-2.37 1.26v12.31h-5.43v-17.43h5.09zm19.95-4.34v4.33h2.87v3.77h-2.87v7.98c0 .66.12 1.11.35 1.37s.7.39 1.4.39c.54 0 .99-.03 1.35-.1V215c-.98.31-2 .47-3.06.47-1.87 0-3.25-.44-4.14-1.32s-1.34-2.22-1.34-4.01v-8.65h-2.22v-3.77h2.22v-4.33h5.44zm4.96-.16c0-.77.28-1.41.84-1.9.56-.49 1.28-.74 2.18-.74.89 0 1.62.25 2.17.74.56.5.84 1.13.84 1.9s-.28 1.41-.84 1.9c-.56.5-1.28.74-2.17.74-.89 0-1.62-.25-2.18-.74s-.84-1.12-.84-1.9zm5.77 21.93h-5.45v-17.43h5.45v17.43zm9.67-21.77v4.33h2.87v3.77h-2.87v7.98c0 .66.12 1.11.35 1.37s.7.39 1.4.39c.54 0 .99-.03 1.35-.1V215c-.98.31-2 .47-3.06.47-1.87 0-3.25-.44-4.14-1.32s-1.34-2.22-1.34-4.01v-8.65h-2.22v-3.77h2.22v-4.33h5.44zm11.97 14.17l2.9-9.83h5.82l-7.11 20.35-.31.74c-1.01 2.26-2.79 3.38-5.35 3.38-.71 0-1.46-.11-2.24-.32V218h.71c.76 0 1.35-.11 1.75-.33.4-.22.7-.62.89-1.19l.44-1.16-6.06-17.61h5.8l2.76 9.83zm24.67-14.17v4.33h2.87v3.77h-2.87v7.98c0 .66.12 1.11.35 1.37s.7.39 1.4.39c.54 0 .99-.03 1.35-.1V215c-.98.31-2 .47-3.06.47-1.87 0-3.25-.44-4.14-1.32s-1.34-2.22-1.34-4.01v-8.65h-2.22v-3.77h2.22v-4.33h5.44zm10.31 6.21c1.16-1.46 2.64-2.19 4.45-2.19 1.92 0 3.37.57 4.35 1.71s1.48 2.82 1.5 5.04v11.01h-5.45v-10.88c0-.92-.19-1.6-.56-2.04-.38-.43-1.01-.65-1.92-.65-1.12 0-1.91.35-2.37 1.06v12.5h-5.43v-24.75h5.43v9.19zm21.76 15.89c-2.67 0-4.84-.8-6.49-2.39-1.66-1.6-2.48-3.67-2.48-6.23v-.45c0-1.78.33-3.36.99-4.72.66-1.36 1.62-2.42 2.89-3.17s2.77-1.12 4.51-1.12c2.45 0 4.38.76 5.8 2.28 1.42 1.52 2.13 3.64 2.13 6.36v2.11h-10.8c.19.98.62 1.75 1.27 2.3.65.56 1.5.84 2.54.84 1.72 0 3.06-.6 4.03-1.8l2.48 2.93c-.68.93-1.63 1.68-2.88 2.23-1.23.55-2.57.83-3.99.83zm-.62-13.89c-1.59 0-2.54 1.05-2.84 3.16h5.48v-.42c.02-.87-.2-1.54-.66-2.02s-1.12-.72-1.98-.72zm11.35 13.56v-13.66h-2.53v-3.77h2.53v-1.39c0-1.99.59-3.53 1.76-4.62s2.81-1.64 4.93-1.64c.77 0 1.62.11 2.55.34l.02 4c-.33-.1-.78-.14-1.34-.14-1.64 0-2.46.71-2.46 2.13v1.34h3.4v3.77h-3.4v13.66h-5.46zm17.08-21.77v4.33h2.87v3.77h-2.87v7.98c0 .66.12 1.11.35 1.37s.7.39 1.4.39c.54 0 .99-.03 1.35-.1V215c-.98.31-2 .47-3.06.47-1.87 0-3.25-.44-4.14-1.32s-1.34-2.22-1.34-4.01v-8.65h-2.22v-3.77h2.22v-4.33h5.44zm22.35 16.88c0-.46-.24-.83-.72-1.11s-1.4-.57-2.76-.87c-1.35-.3-2.47-.7-3.35-1.18-.88-.49-1.55-1.08-2.01-1.78-.46-.7-.69-1.5-.69-2.4 0-1.6.66-2.92 1.98-3.96 1.32-1.04 3.05-1.55 5.19-1.55 2.3 0 4.15.52 5.54 1.56s2.09 2.41 2.09 4.11h-5.45c0-1.4-.74-2.09-2.21-2.09-.57 0-1.05.16-1.43.48-.39.32-.58.71-.58 1.18 0 .48.24.88.71 1.18s1.23.55 2.26.74c1.04.19 1.95.42 2.73.69 2.62.9 3.93 2.52 3.93 4.85 0 1.59-.71 2.88-2.12 3.88-1.41 1-3.24 1.5-5.49 1.5-1.49 0-2.83-.27-4-.81s-2.08-1.27-2.74-2.19-.98-1.9-.98-2.92h5.08c.02.81.29 1.39.81 1.76.52.37 1.18.56 1.98.56.74 0 1.3-.15 1.67-.45.37-.31.56-.7.56-1.18zm23.96-3.69c0 2.71-.61 4.87-1.83 6.49-1.22 1.62-2.87 2.42-4.94 2.42-1.6 0-2.92-.58-3.95-1.76v8.14h-5.43v-24.14h5.08l.16 1.61c1.04-1.29 2.41-1.93 4.11-1.93 2.15 0 3.82.79 5.01 2.38 1.19 1.58 1.79 3.76 1.79 6.53v.26zm-5.43-.34c0-3.09-.9-4.64-2.71-4.64-1.29 0-2.15.46-2.58 1.39v6.86c.47.97 1.34 1.45 2.61 1.45 1.73 0 2.62-1.49 2.67-4.48v-.58zm16.26 9.25c-2.67 0-4.84-.8-6.49-2.39-1.66-1.6-2.48-3.67-2.48-6.23v-.45c0-1.78.33-3.36.99-4.72.66-1.36 1.62-2.42 2.89-3.17s2.77-1.12 4.51-1.12c2.45 0 4.38.76 5.8 2.28 1.42 1.52 2.13 3.64 2.13 6.36v2.11h-10.8c.19.98.62 1.75 1.27 2.3.65.56 1.5.84 2.54.84 1.72 0 3.06-.6 4.03-1.8l2.48 2.93c-.68.93-1.63 1.68-2.88 2.23-1.23.55-2.57.83-3.99.83zm-.62-13.89c-1.59 0-2.54 1.05-2.84 3.16h5.48v-.42c.02-.87-.2-1.54-.66-2.02s-1.12-.72-1.98-.72zm17.52 9.7c.76 0 1.35-.21 1.77-.62.42-.41.62-.99.61-1.73h5.09c0 1.91-.68 3.48-2.05 4.71-1.37 1.22-3.13 1.84-5.29 1.84-2.54 0-4.53-.79-5.99-2.38s-2.19-3.79-2.19-6.61v-.23c0-1.76.33-3.32.97-4.67.65-1.35 1.59-2.38 2.81-3.11s2.67-1.09 4.35-1.09c2.27 0 4.07.63 5.4 1.89 1.33 1.26 2 2.96 2 5.11h-5.09c0-.9-.22-1.6-.66-2.08-.44-.48-1.03-.73-1.77-.73-1.41 0-2.23.9-2.46 2.69-.08.57-.11 1.35-.11 2.35 0 1.75.21 2.96.63 3.64.4.68 1.07 1.02 1.98 1.02zm9.73-18.07c0-.77.28-1.41.84-1.9.56-.49 1.28-.74 2.18-.74.89 0 1.62.25 2.17.74.56.5.84 1.13.84 1.9s-.28 1.41-.84 1.9c-.56.5-1.28.74-2.17.74-.89 0-1.62-.25-2.18-.74s-.84-1.12-.84-1.9zm5.77 21.93h-5.45v-17.43h5.45v17.43zm13.16 0c-.19-.35-.37-.88-.52-1.56-1 1.26-2.4 1.88-4.19 1.88-1.64 0-3.04-.5-4.19-1.49-1.15-.99-1.72-2.24-1.72-3.75 0-1.89.7-3.32 2.1-4.29 1.4-.97 3.43-1.45 6.09-1.45h1.68v-.92c0-1.61-.69-2.41-2.08-2.41-1.29 0-1.93.64-1.93 1.91h-5.43c0-1.68.72-3.05 2.15-4.1 1.43-1.05 3.26-1.58 5.49-1.58 2.22 0 3.98.54 5.27 1.63s1.95 2.57 1.98 4.46v7.72c.02 1.6.27 2.83.74 3.67v.27h-5.44zm-3.4-3.54c.68 0 1.24-.14 1.68-.44.45-.29.76-.62.96-.98v-2.79h-1.58c-1.89 0-2.84.85-2.84 2.54 0 .5.17.89.5 1.2.34.32.77.47 1.28.47zm16.83 3.54h-5.45v-24.75h5.45v24.75zm3.3-21.93c0-.77.28-1.41.84-1.9.56-.49 1.28-.74 2.18-.74.89 0 1.62.25 2.17.74.56.5.84 1.13.84 1.9s-.28 1.41-.84 1.9c-.56.5-1.28.74-2.17.74-.89 0-1.62-.25-2.18-.74s-.84-1.12-.84-1.9zm5.77 21.93h-5.45v-17.43h5.45v17.43zm12.47-4.89c0-.46-.24-.83-.72-1.11s-1.4-.57-2.76-.87c-1.35-.3-2.47-.7-3.35-1.18-.88-.49-1.55-1.08-2.01-1.78-.46-.7-.69-1.5-.69-2.4 0-1.6.66-2.92 1.98-3.96 1.32-1.04 3.05-1.55 5.19-1.55 2.3 0 4.15.52 5.54 1.56s2.09 2.41 2.09 4.11h-5.45c0-1.4-.74-2.09-2.21-2.09-.57 0-1.05.16-1.43.48-.39.32-.58.71-.58 1.18 0 .48.24.88.71 1.18s1.23.55 2.26.74c1.04.19 1.95.42 2.73.69 2.62.9 3.93 2.52 3.93 4.85 0 1.59-.71 2.88-2.12 3.88-1.41 1-3.24 1.5-5.49 1.5-1.49 0-2.83-.27-4-.81s-2.08-1.27-2.74-2.19-.98-1.9-.98-2.92h5.08c.02.81.29 1.39.81 1.76.52.37 1.18.56 1.98.56.74 0 1.3-.15 1.67-.45.37-.31.56-.7.56-1.18zm14.1-16.88v4.33h2.87v3.77h-2.87v7.98c0 .66.12 1.11.35 1.37s.7.39 1.4.39c.54 0 .99-.03 1.35-.1V215c-.98.31-2 .47-3.06.47-1.87 0-3.25-.44-4.14-1.32s-1.34-2.22-1.34-4.01v-8.65h-2.22v-3.77h2.22v-4.33h5.44z"/></svg>