<?xml version="1.0" encoding="utf-8"?>
<!-- Generator: Adobe Illustrator 25.3.1, SVG Export Plug-In . SVG Version: 6.00 Build 0)  -->
<svg version="1.1" id="Layer_1" xmlns="http://www.w3.org/2000/svg" xmlns:xlink="http://www.w3.org/1999/xlink" x="0px" y="0px"
	 viewBox="0 0 300 600" style="enable-background:new 0 0 300 600;" xml:space="preserve">
<style type="text/css">
	.st0{fill:#FFFFFF;}
</style>
<g>
	<path class="st0" d="M69.45,322.03c0-1.03-0.25-1.84-0.76-2.42s-1.4-1.14-2.68-1.66s-2.45-1.05-3.54-1.58s-2.01-1.15-2.79-1.86
		s-1.38-1.52-1.8-2.44s-0.62-2.04-0.62-3.36c0-2.2,0.74-4.01,2.23-5.44s3.46-2.26,5.94-2.49v-4.12h3.11v4.2
		c2.38,0.35,4.25,1.33,5.62,2.94s2.04,3.65,2.04,6.12h-6.6c0-1.35-0.26-2.4-0.78-3.12s-1.26-1.09-2.23-1.09
		c-0.86,0-1.53,0.27-2,0.81s-0.71,1.29-0.71,2.24c0,0.96,0.27,1.73,0.82,2.29s1.43,1.11,2.64,1.62s2.35,1.05,3.43,1.6
		s2,1.18,2.78,1.88s1.39,1.52,1.84,2.46s0.66,2.06,0.66,3.38c0,2.23-0.71,4.04-2.12,5.45s-3.34,2.23-5.77,2.46v3.93h-3.11v-3.95
		c-2.84-0.3-5.02-1.27-6.53-2.92s-2.28-3.82-2.28-6.51h6.58c0,1.48,0.33,2.61,0.99,3.39s1.59,1.16,2.8,1.16
		c0.89,0,1.58-0.26,2.09-0.79S69.45,322.95,69.45,322.03z"/>
	<path class="st0" d="M79.9,315.67l1.74-14.55h16.62v5.12H86.98l-0.64,5.65c0.47-0.28,1.08-0.52,1.85-0.73
		c0.76-0.21,1.51-0.31,2.24-0.31c2.83,0,5,0.84,6.51,2.51s2.28,4.02,2.28,7.04c0,1.82-0.41,3.47-1.22,4.95s-1.96,2.61-3.43,3.41
		s-3.21,1.19-5.21,1.19c-1.78,0-3.46-0.37-5.02-1.1c-1.56-0.74-2.79-1.74-3.67-3.03c-0.89-1.28-1.32-2.73-1.31-4.34h6.6
		c0.07,1.04,0.4,1.87,1,2.48c0.6,0.61,1.39,0.92,2.36,0.92c2.21,0,3.32-1.64,3.32-4.91c0-3.03-1.35-4.54-4.06-4.54
		c-1.54,0-2.68,0.49-3.44,1.48L79.9,315.67z"/>
	<path class="st0" d="M118.57,300.72v5.18h-0.29c-2.46,0-4.48,0.59-6.06,1.77s-2.56,2.82-2.92,4.91c1.48-1.46,3.36-2.19,5.62-2.19
		c2.46,0,4.42,0.9,5.88,2.7s2.19,4.15,2.19,7.07c0,1.81-0.43,3.47-1.28,4.98s-2.04,2.69-3.57,3.54s-3.23,1.28-5.09,1.28
		c-2.02,0-3.82-0.46-5.41-1.38s-2.83-2.23-3.71-3.94s-1.34-3.67-1.37-5.9v-2.64c0-2.93,0.63-5.56,1.88-7.9s3.05-4.17,5.38-5.5
		s4.92-1.99,7.75-1.99H118.57z M112.63,315.42c-0.87,0-1.6,0.2-2.19,0.61s-1.02,0.9-1.31,1.48v1.97c0,3.59,1.24,5.39,3.73,5.39
		c1,0,1.84-0.45,2.51-1.35s1.01-2.02,1.01-3.38c0-1.39-0.34-2.53-1.03-3.41S113.76,315.42,112.63,315.42z"/>
	<path class="st0" d="M155.52,319.17c0,3.46-0.72,6.13-2.15,7.99s-3.45,2.79-6.06,2.79c-2.15,0-3.88-0.85-5.2-2.56l-0.27,2.17h-5.9
		v-30h6.58v10.57c1.22-1.39,2.81-2.09,4.75-2.09c2.63,0,4.66,0.94,6.09,2.83s2.15,4.54,2.15,7.97V319.17z M148.92,318.75
		c0-2.03-0.27-3.47-0.81-4.34s-1.37-1.3-2.49-1.3c-1.48,0-2.51,0.57-3.09,1.7v8.38c0.56,1.12,1.6,1.68,3.12,1.68
		c1.55,0,2.53-0.75,2.95-2.26C148.81,321.87,148.92,320.59,148.92,318.75z"/>
	<path class="st0" d="M158.37,302.98c0-0.94,0.34-1.71,1.02-2.3c0.68-0.6,1.56-0.9,2.64-0.9s1.96,0.3,2.64,0.9
		c0.68,0.6,1.02,1.37,1.02,2.3s-0.34,1.71-1.02,2.3s-1.56,0.9-2.64,0.9s-1.96-0.3-2.64-0.9S158.37,303.92,158.37,302.98z
		 M165.36,329.56h-6.6v-21.13h6.6V329.56z"/>
	<path class="st0" d="M176.36,329.56h-6.6v-30h6.6V329.56z"/>
	<path class="st0" d="M187.36,329.56h-6.6v-30h6.6V329.56z"/>
	<path class="st0" d="M191.36,302.98c0-0.94,0.34-1.71,1.02-2.3c0.68-0.6,1.56-0.9,2.64-0.9s1.96,0.3,2.64,0.9
		c0.68,0.6,1.02,1.37,1.02,2.3s-0.34,1.71-1.02,2.3s-1.56,0.9-2.64,0.9s-1.96-0.3-2.64-0.9S191.36,303.92,191.36,302.98z
		 M198.35,329.56h-6.6v-21.13h6.6V329.56z"/>
	<path class="st0" d="M201.58,318.8c0-2.11,0.41-3.99,1.23-5.63s2-2.91,3.54-3.8s3.34-1.33,5.41-1.33c3.16,0,5.66,0.98,7.48,2.94
		s2.73,4.63,2.73,8v0.23c0,3.29-0.92,5.91-2.74,7.84s-4.31,2.9-7.43,2.9c-3.01,0-5.42-0.9-7.25-2.71s-2.81-4.25-2.95-7.33
		L201.58,318.8z M208.16,319.21c0,1.95,0.31,3.39,0.92,4.3s1.52,1.37,2.71,1.37c2.34,0,3.54-1.8,3.59-5.41v-0.66
		c0-3.79-1.21-5.68-3.63-5.68c-2.2,0-3.39,1.63-3.57,4.9L208.16,319.21z"/>
	<path class="st0" d="M230.91,308.43l0.21,2.48c1.46-1.91,3.47-2.87,6.04-2.87c2.2,0,3.84,0.66,4.93,1.97s1.65,3.29,1.69,5.94v13.61
		h-6.6v-13.34c0-1.07-0.21-1.85-0.64-2.35s-1.21-0.75-2.34-0.75c-1.29,0-2.25,0.51-2.87,1.52v14.92h-6.58v-21.13H230.91z"/>
	<path class="st0" d="M78.38,350.98c0-0.94,0.34-1.71,1.02-2.3s1.56-0.9,2.64-0.9s1.96,0.3,2.64,0.9s1.02,1.37,1.02,2.3
		s-0.34,1.71-1.02,2.3s-1.56,0.9-2.64,0.9s-1.96-0.3-2.64-0.9S78.38,351.92,78.38,350.98z M85.37,377.56h-6.6v-21.13h6.6V377.56z"/>
	<path class="st0" d="M95.47,356.43l0.21,2.48c1.46-1.91,3.47-2.87,6.04-2.87c2.2,0,3.84,0.66,4.93,1.97s1.65,3.29,1.69,5.94v13.61
		h-6.6v-13.34c0-1.07-0.21-1.85-0.64-2.35s-1.21-0.75-2.34-0.75c-1.29,0-2.25,0.51-2.87,1.52v14.92H89.3v-21.13H95.47z"/>
	<path class="st0" d="M141.68,377.56h-19.84v-4.3l9.14-9.61c2.25-2.57,3.38-4.6,3.38-6.11c0-1.22-0.27-2.16-0.8-2.79
		s-1.31-0.96-2.32-0.96c-1,0-1.82,0.43-2.44,1.28s-0.94,1.92-0.94,3.19h-6.6c0-1.75,0.44-3.36,1.31-4.83s2.08-2.63,3.63-3.47
		s3.28-1.25,5.2-1.25c3.07,0,5.44,0.71,7.1,2.13s2.49,3.46,2.49,6.11c0,1.12-0.21,2.21-0.62,3.27s-1.06,2.17-1.94,3.34
		s-2.29,2.72-4.25,4.68l-3.67,4.24h11.19V377.56z"/>
	<path class="st0" d="M164.75,365.94c0,3.84-0.86,6.8-2.59,8.89s-4.16,3.12-7.29,3.12c-3.16,0-5.61-1.05-7.34-3.14
		s-2.6-5.05-2.6-8.87v-5.2c0-3.84,0.86-6.8,2.59-8.89s4.16-3.12,7.31-3.12s5.59,1.05,7.32,3.14s2.6,5.06,2.6,8.89V365.94z
		 M158.17,359.91c0-2.04-0.27-3.57-0.8-4.58s-1.38-1.51-2.54-1.51c-1.13,0-1.96,0.47-2.47,1.41s-0.79,2.36-0.83,4.26v7.27
		c0,2.12,0.27,3.67,0.8,4.66s1.38,1.47,2.54,1.47c1.12,0,1.95-0.48,2.48-1.44s0.81-2.46,0.82-4.5V359.91z"/>
	<path class="st0" d="M188.01,377.56h-19.84v-4.3l9.14-9.61c2.25-2.57,3.38-4.6,3.38-6.11c0-1.22-0.27-2.16-0.8-2.79
		s-1.31-0.96-2.32-0.96c-1,0-1.82,0.43-2.44,1.28s-0.94,1.92-0.94,3.19h-6.6c0-1.75,0.44-3.36,1.31-4.83s2.08-2.63,3.63-3.47
		s3.28-1.25,5.2-1.25c3.07,0,5.44,0.71,7.1,2.13s2.49,3.46,2.49,6.11c0,1.12-0.21,2.21-0.62,3.27s-1.06,2.17-1.94,3.34
		s-2.29,2.72-4.25,4.68l-3.67,4.24h11.19V377.56z"/>
	<path class="st0" d="M211.08,365.94c0,3.84-0.86,6.8-2.59,8.89s-4.16,3.12-7.29,3.12c-3.16,0-5.61-1.05-7.34-3.14
		s-2.6-5.05-2.6-8.87v-5.2c0-3.84,0.86-6.8,2.59-8.89s4.16-3.12,7.31-3.12s5.59,1.05,7.32,3.14s2.6,5.06,2.6,8.89V365.94z
		 M204.5,359.91c0-2.04-0.27-3.57-0.8-4.58s-1.38-1.51-2.54-1.51c-1.13,0-1.96,0.47-2.47,1.41s-0.79,2.36-0.83,4.26v7.27
		c0,2.12,0.27,3.67,0.8,4.66s1.38,1.47,2.54,1.47c1.12,0,1.95-0.48,2.48-1.44s0.81-2.46,0.82-4.5V359.91z"/>
	<path class="st0" d="M216.76,353.35l-3.71-1.02l0.74-2.15l3.63,1.49l-0.29-4h2.44l-0.3,4.08l3.53-1.46l0.74,2.17l-3.76,1.02
		l2.49,3.02l-1.97,1.34l-2.08-3.35l-2.09,3.23l-1.97-1.29L216.76,353.35z"/>
</g>
</svg>
