<?xml version="1.0" encoding="utf-8"?>
<!-- Generator: Adobe Illustrator 25.3.1, SVG Export Plug-In . SVG Version: 6.00 Build 0)  -->
<svg version="1.1" id="Layer_1" xmlns="http://www.w3.org/2000/svg" xmlns:xlink="http://www.w3.org/1999/xlink" x="0px" y="0px"
	 viewBox="0 0 300 600" style="enable-background:new 0 0 300 600;" xml:space="preserve">
<style type="text/css">
	.st0{fill:#021D8B;stroke:url(#SVGID_1_);stroke-width:2;stroke-miterlimit:10;}
	.st1{fill:#FFFFFF;}
</style>
<linearGradient id="SVGID_1_" gradientUnits="userSpaceOnUse" x1="34.0653" y1="307.41" x2="267.9347" y2="307.41">
	<stop  offset="0" style="stop-color:#18B9FB"/>
	<stop  offset="0.5" style="stop-color:#782EEB"/>
	<stop  offset="1" style="stop-color:#E82D8A"/>
</linearGradient>
<path class="st0" d="M246.34,342.54H55.66c-11.38,0-20.6-9.22-20.6-20.6v-29.07c0-11.38,9.22-20.6,20.6-20.6h190.68
	c11.38,0,20.6,9.22,20.6,20.6v29.07C266.93,333.32,257.71,342.54,246.34,342.54z"/>
<g>
	<path class="st1" d="M57.52,298.66h7.26v2.75H54.1v-16.6h3.42V298.66z"/>
	<path class="st1" d="M72.21,301.64c-1.81,0-3.28-0.56-4.42-1.67c-1.14-1.11-1.7-2.59-1.7-4.44v-0.32c0-1.24,0.24-2.35,0.72-3.32
		c0.48-0.98,1.16-1.73,2.04-2.26c0.88-0.53,1.88-0.79,3-0.79c1.69,0,3.02,0.53,3.99,1.6c0.97,1.06,1.45,2.57,1.45,4.53v1.35h-7.86
		c0.11,0.81,0.43,1.45,0.96,1.94c0.54,0.49,1.21,0.73,2.04,0.73c1.27,0,2.26-0.46,2.98-1.38l1.62,1.81
		c-0.49,0.7-1.16,1.24-2.01,1.64C74.17,301.44,73.23,301.64,72.21,301.64z M71.83,291.5c-0.65,0-1.18,0.22-1.59,0.66
		s-0.67,1.08-0.78,1.9h4.58v-0.26c-0.01-0.73-0.21-1.3-0.59-1.7C73.07,291.7,72.53,291.5,71.83,291.5z"/>
	<path class="st1" d="M86.3,301.41c-0.15-0.3-0.26-0.67-0.33-1.11c-0.8,0.89-1.84,1.34-3.11,1.34c-1.21,0-2.21-0.35-3-1.05
		c-0.79-0.7-1.19-1.58-1.19-2.65c0-1.31,0.48-2.31,1.45-3.01c0.97-0.7,2.37-1.05,4.2-1.06h1.52v-0.71c0-0.57-0.15-1.03-0.44-1.37
		c-0.29-0.34-0.75-0.51-1.38-0.51c-0.56,0-0.99,0.13-1.31,0.4c-0.32,0.27-0.47,0.63-0.47,1.09h-3.3c0-0.71,0.22-1.38,0.66-1.98
		c0.44-0.61,1.06-1.09,1.87-1.43c0.81-0.35,1.71-0.52,2.71-0.52c1.52,0,2.73,0.38,3.62,1.15c0.89,0.76,1.34,1.84,1.34,3.22v5.35
		c0.01,1.17,0.17,2.06,0.49,2.66v0.19H86.3z M83.58,299.12c0.49,0,0.93-0.11,1.35-0.33c0.41-0.22,0.71-0.51,0.91-0.87v-2.12H84.6
		c-1.65,0-2.53,0.57-2.63,1.71l-0.01,0.19c0,0.41,0.14,0.75,0.43,1.01C82.68,298.99,83.08,299.12,83.58,299.12z"/>
	<path class="st1" d="M98.61,292.16c-0.45-0.06-0.84-0.09-1.19-0.09c-1.25,0-2.06,0.42-2.45,1.27v8.07h-3.3v-12.34h3.11l0.09,1.47
		c0.66-1.13,1.58-1.7,2.75-1.7c0.36,0,0.71,0.05,1.03,0.15L98.61,292.16z"/>
	<path class="st1" d="M103.23,289.07l0.1,1.43c0.88-1.1,2.06-1.65,3.55-1.65c1.31,0,2.28,0.38,2.92,1.15
		c0.64,0.77,0.97,1.92,0.98,3.44v7.97h-3.3v-7.89c0-0.7-0.15-1.21-0.46-1.52c-0.3-0.32-0.81-0.47-1.52-0.47
		c-0.93,0-1.62,0.4-2.09,1.19v8.7h-3.3v-12.34H103.23z"/>
	<path class="st1" d="M132.82,301.41h-3.42v-7.12h-6.67v7.12h-3.42v-16.6h3.42v6.73h6.67v-6.73h3.42V301.41z"/>
	<path class="st1" d="M135.08,295.13c0-1.22,0.24-2.32,0.71-3.27c0.47-0.96,1.15-1.7,2.04-2.22c0.89-0.53,1.91-0.79,3.08-0.79
		c1.67,0,3.02,0.51,4.08,1.53c1.05,1.02,1.64,2.4,1.76,4.15l0.02,0.84c0,1.89-0.53,3.41-1.58,4.56c-1.06,1.15-2.47,1.72-4.25,1.72
		s-3.2-0.57-4.26-1.71c-1.06-1.14-1.59-2.69-1.59-4.65V295.13z M138.37,295.36c0,1.17,0.22,2.07,0.66,2.69
		c0.44,0.62,1.07,0.93,1.89,0.93c0.8,0,1.42-0.31,1.87-0.92c0.45-0.61,0.67-1.59,0.67-2.94c0-1.15-0.22-2.04-0.67-2.67
		s-1.08-0.95-1.89-0.95c-0.81,0-1.43,0.31-1.87,0.94C138.59,293.07,138.37,294.04,138.37,295.36z"/>
	<path class="st1" d="M159.52,296.93l1.62-7.86h3.18l-3.15,12.34h-2.76l-2.34-7.77l-2.34,7.77h-2.75l-3.15-12.34h3.18l1.61,7.85
		l2.26-7.85h2.38L159.52,296.93z"/>
	<path class="st1" d="M183.8,287.58h-5.09v13.83h-3.42v-13.83h-5.02v-2.77h13.53V287.58z"/>
	<path class="st1" d="M182.65,295.13c0-1.22,0.24-2.32,0.71-3.27c0.47-0.96,1.15-1.7,2.04-2.22c0.89-0.53,1.91-0.79,3.09-0.79
		c1.66,0,3.02,0.51,4.08,1.53c1.05,1.02,1.64,2.4,1.76,4.15l0.02,0.84c0,1.89-0.53,3.41-1.59,4.56c-1.06,1.15-2.47,1.72-4.25,1.72
		s-3.2-0.57-4.26-1.71c-1.06-1.14-1.59-2.69-1.59-4.65V295.13z M185.95,295.36c0,1.17,0.22,2.07,0.66,2.69
		c0.44,0.62,1.07,0.93,1.89,0.93c0.8,0,1.42-0.31,1.87-0.92c0.45-0.61,0.67-1.59,0.67-2.94c0-1.15-0.22-2.04-0.67-2.67
		c-0.45-0.63-1.08-0.95-1.89-0.95c-0.81,0-1.43,0.31-1.87,0.94C186.17,293.07,185.95,294.04,185.95,295.36z"/>
	<path class="st1" d="M215.91,301.41h-3.42v-7.12h-6.67v7.12h-3.42v-16.6h3.42v6.73h6.67v-6.73h3.42V301.41z"/>
	<path class="st1" d="M224.36,301.64c-1.81,0-3.28-0.56-4.42-1.67c-1.14-1.11-1.71-2.59-1.71-4.44v-0.32c0-1.24,0.24-2.35,0.72-3.32
		c0.48-0.98,1.16-1.73,2.04-2.26c0.88-0.53,1.88-0.79,3.01-0.79c1.69,0,3.02,0.53,3.98,1.6s1.46,2.57,1.46,4.53v1.35h-7.86
		c0.11,0.81,0.43,1.45,0.96,1.94c0.54,0.49,1.21,0.73,2.04,0.73c1.27,0,2.26-0.46,2.98-1.38l1.62,1.81
		c-0.49,0.7-1.16,1.24-2.01,1.64C226.33,301.44,225.39,301.64,224.36,301.64z M223.99,291.5c-0.65,0-1.19,0.22-1.59,0.66
		s-0.67,1.08-0.78,1.9h4.58v-0.26c-0.01-0.73-0.21-1.3-0.59-1.7C225.23,291.7,224.69,291.5,223.99,291.5z"/>
	<path class="st1" d="M234.79,301.41h-3.31V283.9h3.31V301.41z"/>
	<path class="st1" d="M248.61,295.35c0,1.9-0.43,3.42-1.29,4.57c-0.86,1.15-2.03,1.72-3.5,1.72c-1.25,0-2.25-0.43-3.02-1.3v5.82
		h-3.29v-17.08h3.06l0.11,1.21c0.8-0.96,1.84-1.44,3.12-1.44c1.52,0,2.7,0.56,3.55,1.69c0.84,1.12,1.27,2.68,1.27,4.65V295.35z
		 M245.31,295.12c0-1.15-0.2-2.03-0.61-2.66c-0.41-0.62-1-0.93-1.77-0.93c-1.03,0-1.74,0.4-2.13,1.19v5.05
		c0.4,0.81,1.12,1.22,2.16,1.22C244.53,298.98,245.31,297.69,245.31,295.12z"/>
	<path class="st1" d="M70.67,321.56v5.85h-3.42v-16.6h6.48c1.25,0,2.34,0.23,3.29,0.68c0.95,0.46,1.67,1.1,2.18,1.94
		c0.51,0.84,0.76,1.8,0.76,2.87c0,1.63-0.56,2.91-1.67,3.85c-1.11,0.94-2.66,1.41-4.62,1.41H70.67z M70.67,318.79h3.06
		c0.9,0,1.59-0.21,2.07-0.64c0.47-0.43,0.71-1.03,0.71-1.82c0-0.81-0.24-1.47-0.72-1.97c-0.48-0.5-1.14-0.76-1.98-0.78h-3.14V318.79
		z"/>
	<path class="st1" d="M89.03,318.16c-0.45-0.06-0.84-0.09-1.19-0.09c-1.25,0-2.06,0.42-2.45,1.27v8.07h-3.3v-12.34h3.11l0.09,1.47
		c0.66-1.13,1.58-1.7,2.75-1.7c0.36,0,0.71,0.05,1.03,0.15L89.03,318.16z"/>
	<path class="st1" d="M89.7,321.13c0-1.22,0.24-2.32,0.71-3.27c0.47-0.96,1.15-1.7,2.04-2.22c0.89-0.53,1.91-0.79,3.08-0.79
		c1.67,0,3.02,0.51,4.08,1.53c1.05,1.02,1.64,2.4,1.76,4.15l0.02,0.84c0,1.89-0.53,3.41-1.58,4.56c-1.06,1.14-2.47,1.72-4.25,1.72
		s-3.2-0.57-4.26-1.71s-1.59-2.69-1.59-4.65V321.13z M92.99,321.36c0,1.17,0.22,2.07,0.66,2.69c0.44,0.62,1.07,0.93,1.89,0.93
		c0.8,0,1.42-0.31,1.87-0.92c0.45-0.61,0.67-1.59,0.67-2.94c0-1.15-0.22-2.04-0.67-2.67s-1.08-0.95-1.89-0.95
		c-0.81,0-1.43,0.31-1.87,0.94C93.21,319.07,92.99,320.04,92.99,321.36z"/>
	<path class="st1" d="M107.36,312.04v3.03h2.11v2.42h-2.11v6.16c0,0.46,0.09,0.78,0.26,0.98c0.17,0.2,0.51,0.3,1,0.3
		c0.36,0,0.69-0.03,0.97-0.08v2.5c-0.65,0.2-1.31,0.3-2,0.3c-2.31,0-3.49-1.17-3.54-3.5v-6.65h-1.8v-2.42h1.8v-3.03H107.36z"/>
	<path class="st1" d="M116.98,327.64c-1.81,0-3.28-0.56-4.42-1.67c-1.14-1.11-1.7-2.59-1.7-4.44v-0.32c0-1.24,0.24-2.35,0.72-3.32
		c0.48-0.98,1.16-1.73,2.04-2.26c0.88-0.53,1.88-0.79,3-0.79c1.69,0,3.02,0.53,3.99,1.6c0.97,1.06,1.45,2.57,1.45,4.53v1.35h-7.86
		c0.11,0.81,0.43,1.45,0.96,1.94c0.54,0.49,1.21,0.73,2.04,0.73c1.27,0,2.26-0.46,2.98-1.38l1.62,1.81
		c-0.49,0.7-1.16,1.24-2.01,1.64S118.01,327.64,116.98,327.64z M116.61,317.5c-0.65,0-1.18,0.22-1.59,0.66s-0.67,1.08-0.78,1.9h4.58
		v-0.26c-0.01-0.73-0.21-1.3-0.59-1.7C117.85,317.7,117.31,317.5,116.61,317.5z"/>
	<path class="st1" d="M129.06,324.98c0.61,0,1.1-0.17,1.48-0.5c0.38-0.33,0.58-0.78,0.59-1.33h3.09c-0.01,0.84-0.24,1.6-0.68,2.3
		c-0.45,0.7-1.06,1.24-1.84,1.62s-1.64,0.58-2.58,0.58c-1.76,0-3.15-0.56-4.17-1.68c-1.02-1.12-1.53-2.67-1.53-4.65v-0.22
		c0-1.9,0.5-3.42,1.52-4.55c1.01-1.13,2.4-1.7,4.16-1.7c1.54,0,2.78,0.44,3.71,1.32c0.93,0.88,1.4,2.05,1.42,3.51h-3.09
		c-0.02-0.64-0.21-1.16-0.59-1.56s-0.88-0.6-1.5-0.6c-0.77,0-1.35,0.28-1.74,0.84s-0.59,1.47-0.59,2.72v0.34
		c0,1.27,0.19,2.19,0.58,2.74S128.27,324.98,129.06,324.98z"/>
	<path class="st1" d="M140.05,312.04v3.03h2.11v2.42h-2.11v6.16c0,0.46,0.09,0.78,0.26,0.98c0.17,0.2,0.51,0.3,1,0.3
		c0.36,0,0.69-0.03,0.97-0.08v2.5c-0.65,0.2-1.31,0.3-2,0.3c-2.31,0-3.49-1.17-3.54-3.5v-6.65h-1.8v-2.42h1.8v-3.03H140.05z"/>
	<path class="st1" d="M155.76,318.29l3.46-7.48h3.74l-5.45,10.58v6.02h-3.48v-6.02l-5.45-10.58h3.75L155.76,318.29z"/>
	<path class="st1" d="M163,321.13c0-1.22,0.24-2.32,0.71-3.27c0.47-0.96,1.15-1.7,2.04-2.22c0.89-0.53,1.91-0.79,3.09-0.79
		c1.66,0,3.02,0.51,4.08,1.53c1.05,1.02,1.64,2.4,1.76,4.15l0.02,0.84c0,1.89-0.53,3.41-1.59,4.56c-1.06,1.14-2.47,1.72-4.25,1.72
		s-3.2-0.57-4.26-1.71s-1.59-2.69-1.59-4.65V321.13z M166.29,321.36c0,1.17,0.22,2.07,0.66,2.69c0.44,0.62,1.07,0.93,1.89,0.93
		c0.8,0,1.42-0.31,1.87-0.92c0.45-0.61,0.67-1.59,0.67-2.94c0-1.15-0.22-2.04-0.67-2.67c-0.45-0.63-1.08-0.95-1.89-0.95
		c-0.81,0-1.43,0.31-1.87,0.94C166.51,319.07,166.29,320.04,166.29,321.36z"/>
	<path class="st1" d="M184.1,326.16c-0.81,0.99-1.94,1.48-3.38,1.48c-1.32,0-2.33-0.38-3.03-1.14c-0.7-0.76-1.05-1.87-1.07-3.34
		v-8.08h3.29v7.98c0,1.29,0.59,1.93,1.76,1.93c1.12,0,1.89-0.39,2.3-1.17v-8.75h3.31v12.34h-3.1L184.1,326.16z"/>
	<path class="st1" d="M196.72,318.16c-0.45-0.06-0.84-0.09-1.19-0.09c-1.25,0-2.06,0.42-2.45,1.27v8.07h-3.29v-12.34h3.11l0.09,1.47
		c0.66-1.13,1.58-1.7,2.75-1.7c0.36,0,0.71,0.05,1.03,0.15L196.72,318.16z"/>
	<path class="st1" d="M204.98,324c0-0.4-0.2-0.72-0.6-0.95c-0.4-0.23-1.04-0.44-1.92-0.62c-2.93-0.62-4.4-1.86-4.4-3.74
		c0-1.09,0.45-2.01,1.36-2.74c0.91-0.73,2.1-1.1,3.56-1.1c1.57,0,2.82,0.37,3.76,1.11c0.94,0.74,1.41,1.7,1.41,2.87h-3.3
		c0-0.47-0.15-0.86-0.46-1.17c-0.3-0.31-0.78-0.46-1.43-0.46c-0.55,0-0.98,0.13-1.29,0.38c-0.3,0.25-0.46,0.57-0.46,0.96
		c0,0.36,0.17,0.66,0.52,0.88c0.35,0.22,0.93,0.42,1.75,0.58c0.82,0.16,1.51,0.35,2.07,0.55c1.74,0.64,2.61,1.75,2.61,3.32
		c0,1.13-0.48,2.04-1.45,2.73c-0.97,0.7-2.21,1.04-3.74,1.04c-1.04,0-1.95-0.18-2.75-0.55c-0.8-0.37-1.43-0.87-1.89-1.52
		c-0.46-0.64-0.69-1.34-0.69-2.08h3.12c0.03,0.59,0.25,1.03,0.65,1.35c0.4,0.31,0.94,0.47,1.62,0.47c0.63,0,1.11-0.12,1.43-0.36
		C204.82,324.7,204.98,324.39,204.98,324z"/>
	<path class="st1" d="M215.99,327.64c-1.81,0-3.28-0.56-4.42-1.67c-1.13-1.11-1.7-2.59-1.7-4.44v-0.32c0-1.24,0.24-2.35,0.72-3.32
		c0.48-0.98,1.16-1.73,2.04-2.26c0.88-0.53,1.88-0.79,3-0.79c1.69,0,3.02,0.53,3.99,1.6c0.97,1.06,1.45,2.57,1.45,4.53v1.35h-7.86
		c0.11,0.81,0.43,1.45,0.96,1.94c0.54,0.49,1.21,0.73,2.04,0.73c1.27,0,2.26-0.46,2.98-1.38l1.62,1.81
		c-0.49,0.7-1.16,1.24-2.01,1.64S217.01,327.64,215.99,327.64z M215.61,317.5c-0.65,0-1.18,0.22-1.59,0.66s-0.67,1.08-0.78,1.9h4.58
		v-0.26c-0.02-0.73-0.21-1.3-0.59-1.7C216.85,317.7,216.31,317.5,215.61,317.5z"/>
	<path class="st1" d="M226.41,327.41h-3.31V309.9h3.31V327.41z"/>
	<path class="st1" d="M230.03,327.41v-9.92h-1.84v-2.42h1.84v-1.05c0-1.38,0.4-2.46,1.19-3.22c0.79-0.76,1.91-1.15,3.34-1.15
		c0.46,0,1.02,0.08,1.68,0.23l-0.03,2.55c-0.27-0.07-0.61-0.1-1-0.1c-1.24,0-1.86,0.58-1.86,1.74v0.99h2.45v2.42h-2.45v9.92H230.03z
		"/>
</g>
</svg>
