<?xml version="1.0" encoding="utf-8"?>
<!-- Generator: Adobe Illustrator 25.3.1, SVG Export Plug-In . SVG Version: 6.00 Build 0)  -->
<svg version="1.1" id="Layer_1" xmlns="http://www.w3.org/2000/svg" xmlns:xlink="http://www.w3.org/1999/xlink" x="0px" y="0px"
	 viewBox="0 0 300 600" style="enable-background:new 0 0 300 600;" xml:space="preserve">
<style type="text/css">
	.st0{fill:#FFFFFF;}
</style>
<g>
	<path class="st0" d="M51.93,589.89l-1.19-0.34l0.21-0.66l1.18,0.46L52.08,588h0.7l-0.06,1.37l1.16-0.45l0.21,0.67l-1.21,0.34
		l0.78,1.04l-0.57,0.41l-0.7-1.12l-0.7,1.09l-0.57-0.4L51.93,589.89z"/>
	<path class="st0" d="M58.42,593.69H54.6v-0.65l1.89-2.07c0.27-0.3,0.47-0.56,0.58-0.76c0.12-0.21,0.17-0.41,0.17-0.62
		c0-0.27-0.08-0.49-0.23-0.66c-0.15-0.17-0.36-0.25-0.62-0.25c-0.31,0-0.55,0.09-0.71,0.28s-0.25,0.44-0.25,0.77h-0.95
		c0-0.35,0.08-0.66,0.24-0.94s0.38-0.49,0.68-0.65c0.29-0.15,0.63-0.23,1.01-0.23c0.55,0,0.99,0.14,1.31,0.42s0.48,0.66,0.48,1.15
		c0,0.28-0.08,0.58-0.24,0.89c-0.16,0.31-0.42,0.66-0.79,1.06l-1.39,1.49h2.64V593.69z"/>
	<path class="st0" d="M62.85,591.29c0,0.82-0.15,1.43-0.46,1.85c-0.31,0.42-0.77,0.62-1.4,0.62c-0.61,0-1.08-0.2-1.39-0.61
		c-0.31-0.41-0.47-1-0.48-1.8v-0.98c0-0.82,0.15-1.43,0.46-1.84c0.31-0.41,0.77-0.61,1.4-0.61c0.62,0,1.09,0.2,1.39,0.6
		s0.46,0.99,0.47,1.79V591.29z M61.9,590.23c0-0.53-0.07-0.93-0.22-1.17c-0.15-0.25-0.38-0.37-0.7-0.37c-0.31,0-0.54,0.12-0.68,0.35
		c-0.15,0.24-0.22,0.6-0.23,1.1v1.29c0,0.53,0.07,0.93,0.22,1.19c0.15,0.26,0.38,0.39,0.7,0.39c0.3,0,0.53-0.12,0.68-0.36
		c0.15-0.24,0.22-0.62,0.23-1.13V590.23z"/>
	<path class="st0" d="M67.52,593.69h-3.82v-0.65l1.89-2.07c0.27-0.3,0.47-0.56,0.58-0.76c0.12-0.21,0.17-0.41,0.17-0.62
		c0-0.27-0.08-0.49-0.23-0.66c-0.15-0.17-0.36-0.25-0.62-0.25c-0.31,0-0.55,0.09-0.71,0.28s-0.25,0.44-0.25,0.77h-0.95
		c0-0.35,0.08-0.66,0.24-0.94s0.38-0.49,0.68-0.65c0.29-0.15,0.63-0.23,1.01-0.23c0.55,0,0.99,0.14,1.31,0.42s0.48,0.66,0.48,1.15
		c0,0.28-0.08,0.58-0.24,0.89c-0.16,0.31-0.42,0.66-0.79,1.06l-1.39,1.49h2.64V593.69z"/>
	<path class="st0" d="M70.81,593.69h-0.95v-4.57l-1.39,0.48v-0.8l2.22-0.82h0.12V593.69z"/>
	<path class="st0" d="M75.97,593.69h-0.98V588h0.98V593.69z"/>
	<path class="st0" d="M76.92,591.54c0-0.65,0.15-1.17,0.45-1.57s0.71-0.59,1.21-0.59c0.45,0,0.81,0.16,1.09,0.47v-2.16h0.95v6h-0.86
		l-0.05-0.44c-0.28,0.34-0.66,0.52-1.14,0.52c-0.5,0-0.9-0.2-1.2-0.6S76.92,592.23,76.92,591.54z M77.87,591.63
		c0,0.43,0.08,0.76,0.25,1.01c0.17,0.24,0.4,0.36,0.71,0.36c0.39,0,0.67-0.17,0.85-0.52v-1.8c-0.17-0.34-0.46-0.51-0.84-0.51
		c-0.31,0-0.54,0.12-0.71,0.37C77.95,590.77,77.87,591.14,77.87,591.63z"/>
	<path class="st0" d="M83.47,593.77c-0.6,0-1.09-0.19-1.46-0.57s-0.56-0.88-0.56-1.51v-0.12c0-0.42,0.08-0.8,0.24-1.13
		s0.39-0.59,0.69-0.78c0.29-0.19,0.62-0.28,0.98-0.28c0.58,0,1.02,0.18,1.33,0.55s0.47,0.89,0.47,1.56v0.38h-2.76
		c0.03,0.35,0.15,0.62,0.35,0.83s0.46,0.3,0.77,0.3c0.43,0,0.79-0.18,1.06-0.53l0.51,0.49c-0.17,0.25-0.4,0.45-0.68,0.59
		C84.14,593.7,83.82,593.77,83.47,593.77z M83.36,590.15c-0.26,0-0.47,0.09-0.63,0.27c-0.16,0.18-0.26,0.44-0.31,0.76h1.81v-0.07
		c-0.02-0.32-0.11-0.56-0.25-0.72C83.83,590.23,83.62,590.15,83.36,590.15z"/>
	<path class="st0" d="M86.79,589.46l0.03,0.49c0.31-0.38,0.72-0.57,1.23-0.57c0.88,0,1.33,0.5,1.34,1.51v2.79h-0.95v-2.74
		c0-0.27-0.06-0.47-0.17-0.6s-0.31-0.19-0.57-0.19c-0.38,0-0.67,0.17-0.86,0.52v3.01h-0.95v-4.23H86.79z"/>
	<path class="st0" d="M91.54,588.44v1.03h0.75v0.7h-0.75v2.36c0,0.16,0.03,0.28,0.1,0.35c0.06,0.07,0.18,0.11,0.34,0.11
		c0.11,0,0.22-0.01,0.33-0.04v0.73c-0.22,0.06-0.42,0.09-0.62,0.09c-0.73,0-1.09-0.4-1.09-1.21v-2.39h-0.7v-0.7h0.7v-1.03H91.54z"/>
	<path class="st0" d="M93.02,588.37c0-0.15,0.05-0.27,0.14-0.36c0.09-0.1,0.22-0.14,0.4-0.14s0.3,0.05,0.4,0.14
		c0.09,0.1,0.14,0.22,0.14,0.36c0,0.14-0.05,0.26-0.14,0.36c-0.09,0.09-0.23,0.14-0.4,0.14s-0.3-0.05-0.4-0.14
		C93.06,588.63,93.02,588.51,93.02,588.37z M94.02,593.69h-0.95v-4.23h0.95V593.69z"/>
	<path class="st0" d="M96.25,588.44v1.03h0.75v0.7h-0.75v2.36c0,0.16,0.03,0.28,0.1,0.35c0.06,0.07,0.18,0.11,0.34,0.11
		c0.11,0,0.22-0.01,0.33-0.04v0.73c-0.22,0.06-0.42,0.09-0.62,0.09c-0.73,0-1.09-0.4-1.09-1.21v-2.39h-0.7v-0.7h0.7v-1.03H96.25z"/>
	<path class="st0" d="M99.2,592.33l0.86-2.87h1.01l-1.68,4.87c-0.26,0.71-0.7,1.07-1.31,1.07c-0.14,0-0.29-0.02-0.46-0.07v-0.74
		l0.18,0.01c0.24,0,0.42-0.04,0.54-0.13s0.22-0.23,0.29-0.44l0.14-0.36l-1.48-4.2h1.02L99.2,592.33z"/>
	<path class="st0" d="M106.97,591.28h-2.29v2.41h-0.99V588h3.61v0.8h-2.62v1.69h2.29V591.28z"/>
	<path class="st0" d="M110.11,590.33c-0.12-0.02-0.25-0.03-0.39-0.03c-0.43,0-0.73,0.17-0.88,0.5v2.89h-0.95v-4.23h0.91l0.02,0.47
		c0.23-0.37,0.55-0.55,0.95-0.55c0.14,0,0.25,0.02,0.34,0.05L110.11,590.33z"/>
	<path class="st0" d="M113.12,593.69c-0.04-0.08-0.08-0.21-0.11-0.39c-0.3,0.31-0.67,0.47-1.11,0.47c-0.42,0-0.77-0.12-1.04-0.36
		s-0.4-0.54-0.4-0.9c0-0.45,0.17-0.8,0.5-1.04c0.33-0.24,0.81-0.36,1.44-0.36h0.58v-0.28c0-0.22-0.06-0.39-0.18-0.53
		c-0.12-0.13-0.31-0.2-0.56-0.2c-0.22,0-0.39,0.05-0.53,0.16c-0.14,0.11-0.21,0.25-0.21,0.41h-0.95c0-0.23,0.08-0.45,0.23-0.65
		c0.15-0.2,0.36-0.36,0.63-0.47c0.26-0.12,0.56-0.17,0.88-0.17c0.5,0,0.89,0.12,1.18,0.37c0.29,0.25,0.45,0.6,0.45,1.05v1.91
		c0,0.38,0.05,0.68,0.16,0.91v0.07H113.12z M112.07,593.01c0.19,0,0.36-0.05,0.53-0.14c0.17-0.09,0.29-0.21,0.37-0.37v-0.8h-0.51
		c-0.35,0-0.62,0.06-0.79,0.18c-0.18,0.12-0.27,0.29-0.27,0.52c0,0.18,0.06,0.33,0.18,0.44
		C111.71,592.95,111.87,593.01,112.07,593.01z"/>
	<path class="st0" d="M117.48,593.28c-0.28,0.33-0.67,0.49-1.19,0.49c-0.46,0-0.81-0.13-1.04-0.4c-0.24-0.27-0.35-0.66-0.35-1.16
		v-2.74h0.95v2.73c0,0.54,0.22,0.8,0.67,0.8c0.46,0,0.77-0.17,0.93-0.5v-3.04h0.95v4.23h-0.89L117.48,593.28z"/>
	<path class="st0" d="M119.19,591.54c0-0.65,0.15-1.17,0.45-1.57s0.71-0.59,1.21-0.59c0.45,0,0.81,0.16,1.09,0.47v-2.16h0.95v6
		h-0.86l-0.05-0.44c-0.28,0.34-0.66,0.52-1.14,0.52c-0.5,0-0.9-0.2-1.2-0.6S119.19,592.23,119.19,591.54z M120.14,591.63
		c0,0.43,0.08,0.76,0.25,1.01c0.17,0.24,0.4,0.36,0.71,0.36c0.39,0,0.67-0.17,0.85-0.52v-1.8c-0.17-0.34-0.46-0.51-0.84-0.51
		c-0.31,0-0.54,0.12-0.71,0.37C120.22,590.77,120.14,591.14,120.14,591.63z"/>
	<path class="st0" d="M128.94,592.22c0-0.25-0.09-0.44-0.26-0.58c-0.18-0.14-0.49-0.27-0.95-0.41c-0.46-0.14-0.82-0.29-1.09-0.46
		c-0.52-0.33-0.78-0.75-0.78-1.27c0-0.46,0.19-0.84,0.56-1.13s0.86-0.45,1.46-0.45c0.4,0,0.75,0.07,1.06,0.22
		c0.31,0.15,0.55,0.35,0.73,0.62s0.27,0.57,0.27,0.9h-0.98c0-0.3-0.09-0.53-0.28-0.7s-0.45-0.25-0.8-0.25
		c-0.32,0-0.57,0.07-0.75,0.21c-0.18,0.14-0.27,0.33-0.27,0.58c0,0.21,0.1,0.38,0.29,0.52c0.19,0.14,0.51,0.27,0.95,0.41
		c0.44,0.13,0.8,0.28,1.07,0.45s0.46,0.36,0.59,0.58c0.12,0.22,0.19,0.47,0.19,0.76c0,0.47-0.18,0.85-0.54,1.13
		c-0.36,0.28-0.86,0.42-1.48,0.42c-0.41,0-0.79-0.08-1.13-0.23s-0.61-0.36-0.8-0.63c-0.19-0.27-0.29-0.58-0.29-0.94h0.99
		c0,0.32,0.11,0.57,0.32,0.75c0.21,0.18,0.52,0.27,0.92,0.27c0.34,0,0.6-0.07,0.78-0.21C128.85,592.64,128.94,592.45,128.94,592.22z
		"/>
	<path class="st0" d="M131.89,588.44v1.03h0.75v0.7h-0.75v2.36c0,0.16,0.03,0.28,0.1,0.35c0.06,0.07,0.18,0.11,0.34,0.11
		c0.11,0,0.22-0.01,0.33-0.04v0.73c-0.22,0.06-0.42,0.09-0.62,0.09c-0.73,0-1.09-0.4-1.09-1.21v-2.39h-0.7v-0.7h0.7v-1.03H131.89z"
		/>
	<path class="st0" d="M135.92,593.28c-0.28,0.33-0.67,0.49-1.19,0.49c-0.46,0-0.81-0.13-1.04-0.4c-0.24-0.27-0.35-0.66-0.35-1.16
		v-2.74h0.95v2.73c0,0.54,0.22,0.8,0.67,0.8c0.46,0,0.77-0.17,0.93-0.5v-3.04h0.95v4.23h-0.89L135.92,593.28z"/>
	<path class="st0" d="M137.63,591.54c0-0.65,0.15-1.17,0.45-1.57s0.71-0.59,1.21-0.59c0.45,0,0.81,0.16,1.09,0.47v-2.16h0.95v6
		h-0.86l-0.05-0.44c-0.28,0.34-0.66,0.52-1.14,0.52c-0.5,0-0.9-0.2-1.2-0.6S137.63,592.23,137.63,591.54z M138.58,591.63
		c0,0.43,0.08,0.76,0.25,1.01c0.17,0.24,0.4,0.36,0.71,0.36c0.39,0,0.67-0.17,0.85-0.52v-1.8c-0.17-0.34-0.46-0.51-0.84-0.51
		c-0.31,0-0.54,0.12-0.71,0.37C138.66,590.77,138.58,591.14,138.58,591.63z"/>
	<path class="st0" d="M143.8,592.33l0.86-2.87h1.01l-1.68,4.87c-0.26,0.71-0.7,1.07-1.31,1.07c-0.14,0-0.29-0.02-0.46-0.07v-0.74
		l0.18,0.01c0.24,0,0.42-0.04,0.54-0.13s0.22-0.23,0.29-0.44l0.14-0.36l-1.48-4.2h1.02L143.8,592.33z"/>
	<path class="st0" d="M146.35,594.97l-0.51-0.3c0.15-0.24,0.25-0.44,0.31-0.62s0.08-0.36,0.09-0.54v-0.74h0.86l0,0.68
		c0,0.28-0.07,0.55-0.21,0.83S146.57,594.79,146.35,594.97z"/>
	<path class="st0" d="M152.39,588h0.98v3.99c0,0.54-0.17,0.98-0.51,1.3s-0.79,0.48-1.35,0.48c-0.59,0-1.05-0.15-1.38-0.45
		c-0.32-0.3-0.48-0.72-0.48-1.25h0.98c0,0.3,0.08,0.53,0.22,0.68c0.15,0.15,0.37,0.23,0.65,0.23c0.27,0,0.48-0.09,0.63-0.26
		s0.24-0.42,0.24-0.73V588z"/>
	<path class="st0" d="M156.93,593.69c-0.04-0.08-0.08-0.21-0.11-0.39c-0.3,0.31-0.67,0.47-1.11,0.47c-0.42,0-0.77-0.12-1.04-0.36
		s-0.4-0.54-0.4-0.9c0-0.45,0.17-0.8,0.5-1.04c0.33-0.24,0.81-0.36,1.44-0.36h0.58v-0.28c0-0.22-0.06-0.39-0.18-0.53
		c-0.12-0.13-0.31-0.2-0.56-0.2c-0.22,0-0.39,0.05-0.53,0.16c-0.14,0.11-0.21,0.25-0.21,0.41h-0.95c0-0.23,0.08-0.45,0.23-0.65
		c0.15-0.2,0.36-0.36,0.63-0.47c0.26-0.12,0.56-0.17,0.88-0.17c0.5,0,0.89,0.12,1.18,0.37c0.29,0.25,0.45,0.6,0.45,1.05v1.91
		c0,0.38,0.05,0.68,0.16,0.91v0.07H156.93z M155.89,593.01c0.19,0,0.36-0.05,0.53-0.14c0.17-0.09,0.29-0.21,0.37-0.37v-0.8h-0.51
		c-0.35,0-0.62,0.06-0.79,0.18c-0.18,0.12-0.27,0.29-0.27,0.52c0,0.18,0.06,0.33,0.18,0.44
		C155.53,592.95,155.69,593.01,155.89,593.01z"/>
	<path class="st0" d="M160.17,592.49l0.89-3.02h0.98l-1.46,4.23h-0.82l-1.48-4.23h0.98L160.17,592.49z"/>
	<path class="st0" d="M164.5,593.77c-0.6,0-1.09-0.19-1.46-0.57s-0.56-0.88-0.56-1.51v-0.12c0-0.42,0.08-0.8,0.24-1.13
		s0.39-0.59,0.69-0.78c0.29-0.19,0.62-0.28,0.98-0.28c0.58,0,1.02,0.18,1.33,0.55s0.47,0.89,0.47,1.56v0.38h-2.76
		c0.03,0.35,0.15,0.62,0.35,0.83s0.46,0.3,0.77,0.3c0.43,0,0.79-0.18,1.06-0.53l0.51,0.49c-0.17,0.25-0.4,0.45-0.68,0.59
		C165.17,593.7,164.85,593.77,164.5,593.77z M164.38,590.15c-0.26,0-0.47,0.09-0.63,0.27c-0.16,0.18-0.26,0.44-0.31,0.76h1.81v-0.07
		c-0.02-0.32-0.11-0.56-0.25-0.72C164.85,590.23,164.65,590.15,164.38,590.15z"/>
	<path class="st0" d="M167.94,593.69h-0.95v-6h0.95V593.69z"/>
	<path class="st0" d="M168.97,588.37c0-0.15,0.05-0.27,0.14-0.36c0.09-0.1,0.22-0.14,0.4-0.14s0.3,0.05,0.4,0.14
		c0.09,0.1,0.14,0.22,0.14,0.36c0,0.14-0.05,0.26-0.14,0.36c-0.09,0.09-0.23,0.14-0.4,0.14s-0.3-0.05-0.4-0.14
		C169.02,588.63,168.97,588.51,168.97,588.37z M169.98,593.69h-0.95v-4.23h0.95V593.69z"/>
	<path class="st0" d="M171.9,589.46l0.03,0.49c0.31-0.38,0.72-0.57,1.23-0.57c0.88,0,1.33,0.5,1.34,1.51v2.79h-0.95v-2.74
		c0-0.27-0.06-0.47-0.17-0.6s-0.31-0.19-0.57-0.19c-0.38,0-0.67,0.17-0.86,0.52v3.01H171v-4.23H171.9z"/>
	<path class="st0" d="M180.52,592.22c0-0.25-0.09-0.44-0.26-0.58c-0.18-0.14-0.49-0.27-0.95-0.41c-0.46-0.14-0.82-0.29-1.09-0.46
		c-0.52-0.33-0.78-0.75-0.78-1.27c0-0.46,0.19-0.84,0.56-1.13s0.86-0.45,1.46-0.45c0.4,0,0.75,0.07,1.06,0.22
		c0.31,0.15,0.55,0.35,0.73,0.62s0.27,0.57,0.27,0.9h-0.98c0-0.3-0.09-0.53-0.28-0.7s-0.45-0.25-0.8-0.25
		c-0.32,0-0.57,0.07-0.75,0.21c-0.18,0.14-0.27,0.33-0.27,0.58c0,0.21,0.1,0.38,0.29,0.52c0.19,0.14,0.51,0.27,0.95,0.41
		c0.44,0.13,0.8,0.28,1.07,0.45s0.46,0.36,0.59,0.58c0.12,0.22,0.19,0.47,0.19,0.76c0,0.47-0.18,0.85-0.54,1.13
		c-0.36,0.28-0.86,0.42-1.48,0.42c-0.41,0-0.79-0.08-1.13-0.23s-0.61-0.36-0.8-0.63c-0.19-0.27-0.29-0.58-0.29-0.94h0.99
		c0,0.32,0.11,0.57,0.32,0.75c0.21,0.18,0.52,0.27,0.92,0.27c0.34,0,0.6-0.07,0.78-0.21C180.43,592.64,180.52,592.45,180.52,592.22z
		"/>
	<path class="st0" d="M183.47,588.44v1.03h0.75v0.7h-0.75v2.36c0,0.16,0.03,0.28,0.1,0.35c0.06,0.07,0.18,0.11,0.34,0.11
		c0.11,0,0.22-0.01,0.33-0.04v0.73c-0.22,0.06-0.42,0.09-0.62,0.09c-0.73,0-1.09-0.4-1.09-1.21v-2.39h-0.7v-0.7h0.7v-1.03H183.47z"
		/>
	<path class="st0" d="M187.16,590.33c-0.12-0.02-0.25-0.03-0.39-0.03c-0.43,0-0.73,0.17-0.88,0.5v2.89h-0.95v-4.23h0.91l0.02,0.47
		c0.23-0.37,0.55-0.55,0.95-0.55c0.14,0,0.25,0.02,0.34,0.05L187.16,590.33z"/>
	<path class="st0" d="M190.17,593.69c-0.04-0.08-0.08-0.21-0.11-0.39c-0.3,0.31-0.67,0.47-1.11,0.47c-0.42,0-0.77-0.12-1.04-0.36
		s-0.4-0.54-0.4-0.9c0-0.45,0.17-0.8,0.5-1.04c0.33-0.24,0.81-0.36,1.44-0.36h0.58v-0.28c0-0.22-0.06-0.39-0.18-0.53
		c-0.12-0.13-0.31-0.2-0.56-0.2c-0.22,0-0.39,0.05-0.53,0.16c-0.14,0.11-0.21,0.25-0.21,0.41h-0.95c0-0.23,0.08-0.45,0.23-0.65
		c0.15-0.2,0.36-0.36,0.63-0.47c0.26-0.12,0.56-0.17,0.88-0.17c0.5,0,0.89,0.12,1.18,0.37c0.29,0.25,0.45,0.6,0.45,1.05v1.91
		c0,0.38,0.05,0.68,0.16,0.91v0.07H190.17z M189.12,593.01c0.19,0,0.36-0.05,0.53-0.14c0.17-0.09,0.29-0.21,0.37-0.37v-0.8h-0.51
		c-0.35,0-0.62,0.06-0.79,0.18c-0.18,0.12-0.27,0.29-0.27,0.52c0,0.18,0.06,0.33,0.18,0.44
		C188.76,592.95,188.92,593.01,189.12,593.01z"/>
	<path class="st0" d="M193.16,588.44v1.03h0.75v0.7h-0.75v2.36c0,0.16,0.03,0.28,0.1,0.35c0.06,0.07,0.18,0.11,0.34,0.11
		c0.11,0,0.22-0.01,0.33-0.04v0.73c-0.22,0.06-0.42,0.09-0.62,0.09c-0.73,0-1.09-0.4-1.09-1.21v-2.39h-0.7v-0.7h0.7v-1.03H193.16z"
		/>
	<path class="st0" d="M196.49,593.77c-0.6,0-1.09-0.19-1.46-0.57s-0.56-0.88-0.56-1.51v-0.12c0-0.42,0.08-0.8,0.24-1.13
		s0.39-0.59,0.69-0.78c0.29-0.19,0.62-0.28,0.98-0.28c0.58,0,1.02,0.18,1.33,0.55s0.47,0.89,0.47,1.56v0.38h-2.76
		c0.03,0.35,0.15,0.62,0.35,0.83s0.46,0.3,0.77,0.3c0.43,0,0.79-0.18,1.06-0.53l0.51,0.49c-0.17,0.25-0.4,0.45-0.68,0.59
		C197.16,593.7,196.84,593.77,196.49,593.77z M196.38,590.15c-0.26,0-0.47,0.09-0.63,0.27c-0.16,0.18-0.26,0.44-0.31,0.76h1.81
		v-0.07c-0.02-0.32-0.11-0.56-0.25-0.72C196.84,590.23,196.64,590.15,196.38,590.15z"/>
	<path class="st0" d="M198.75,591.54c0-0.66,0.15-1.18,0.46-1.57c0.31-0.39,0.72-0.59,1.23-0.59c0.48,0,0.86,0.17,1.14,0.5
		l0.04-0.43h0.86v4.1c0,0.55-0.17,0.99-0.52,1.31s-0.81,0.48-1.4,0.48c-0.31,0-0.61-0.06-0.91-0.19s-0.52-0.3-0.67-0.51l0.45-0.57
		c0.29,0.35,0.65,0.52,1.08,0.52c0.32,0,0.56-0.09,0.75-0.26c0.18-0.17,0.27-0.42,0.27-0.75v-0.29c-0.27,0.3-0.64,0.46-1.09,0.46
		c-0.5,0-0.9-0.2-1.21-0.59C198.91,592.78,198.75,592.24,198.75,591.54z M199.7,591.63c0,0.42,0.09,0.76,0.26,1
		c0.17,0.24,0.41,0.37,0.72,0.37c0.38,0,0.67-0.16,0.85-0.49v-1.86c-0.18-0.32-0.46-0.48-0.84-0.48c-0.31,0-0.56,0.12-0.73,0.37
		C199.79,590.78,199.7,591.14,199.7,591.63z"/>
	<path class="st0" d="M204.93,592.33l0.86-2.87h1.01l-1.68,4.87c-0.26,0.71-0.7,1.07-1.31,1.07c-0.14,0-0.29-0.02-0.46-0.07v-0.74
		l0.18,0.01c0.24,0,0.42-0.04,0.54-0.13s0.22-0.23,0.29-0.44l0.14-0.36l-1.48-4.2h1.02L204.93,592.33z"/>
	<path class="st0" d="M209.19,592.15c0-0.26,0.07-0.5,0.21-0.72c0.14-0.22,0.43-0.48,0.85-0.78c-0.22-0.28-0.38-0.52-0.46-0.71
		s-0.13-0.38-0.13-0.57c0-0.45,0.14-0.8,0.41-1.06c0.27-0.26,0.64-0.39,1.09-0.39c0.41,0,0.75,0.12,1.02,0.37
		c0.26,0.24,0.4,0.54,0.4,0.9c0,0.24-0.06,0.46-0.18,0.65s-0.32,0.4-0.59,0.6l-0.39,0.28l1.1,1.3c0.16-0.31,0.24-0.66,0.24-1.04
		h0.82c0,0.7-0.16,1.27-0.49,1.72l0.84,0.99h-1.1l-0.32-0.38c-0.41,0.3-0.89,0.46-1.45,0.46s-1.01-0.15-1.35-0.45
		C209.36,593.02,209.19,592.63,209.19,592.15z M211.08,593.01c0.32,0,0.62-0.11,0.9-0.32l-1.24-1.46l-0.12,0.09
		c-0.31,0.24-0.47,0.51-0.47,0.81c0,0.26,0.08,0.48,0.25,0.64S210.79,593.01,211.08,593.01z M210.55,589.35
		c0,0.22,0.13,0.49,0.4,0.82l0.43-0.3l0.12-0.1c0.16-0.14,0.24-0.33,0.24-0.55c0-0.15-0.06-0.28-0.17-0.38s-0.25-0.16-0.43-0.16
		c-0.18,0-0.33,0.06-0.44,0.19S210.55,589.16,210.55,589.35z"/>
	<path class="st0" d="M218.63,591.5h-1.1v2.19h-0.99V588h2c0.66,0,1.16,0.15,1.52,0.44c0.36,0.29,0.54,0.72,0.54,1.28
		c0,0.38-0.09,0.7-0.28,0.96s-0.44,0.45-0.77,0.59l1.28,2.37v0.05h-1.06L218.63,591.5z M217.53,590.71h1.02
		c0.33,0,0.59-0.08,0.78-0.25s0.28-0.4,0.28-0.69c0-0.3-0.09-0.54-0.26-0.71c-0.17-0.17-0.43-0.25-0.78-0.26h-1.04V590.71z"/>
	<path class="st0" d="M223.3,593.77c-0.6,0-1.09-0.19-1.46-0.57s-0.56-0.88-0.56-1.51v-0.12c0-0.42,0.08-0.8,0.24-1.13
		s0.39-0.59,0.69-0.78c0.29-0.19,0.62-0.28,0.98-0.28c0.58,0,1.02,0.18,1.33,0.55s0.47,0.89,0.47,1.56v0.38h-2.76
		c0.03,0.35,0.15,0.62,0.35,0.83s0.46,0.3,0.77,0.3c0.43,0,0.79-0.18,1.06-0.53l0.51,0.49c-0.17,0.25-0.4,0.45-0.68,0.59
		C223.97,593.7,223.65,593.77,223.3,593.77z M223.19,590.15c-0.26,0-0.47,0.09-0.63,0.27c-0.16,0.18-0.26,0.44-0.31,0.76h1.81v-0.07
		c-0.02-0.32-0.11-0.56-0.25-0.72C223.66,590.23,223.45,590.15,223.19,590.15z"/>
	<path class="st0" d="M228.1,592.54c0-0.17-0.07-0.3-0.21-0.39c-0.14-0.09-0.37-0.17-0.69-0.23c-0.32-0.07-0.59-0.15-0.81-0.26
		c-0.47-0.23-0.71-0.56-0.71-1c0-0.37,0.15-0.67,0.46-0.91c0.31-0.25,0.7-0.37,1.17-0.37c0.5,0,0.91,0.12,1.22,0.38
		s0.47,0.57,0.47,0.97h-0.95c0-0.18-0.07-0.33-0.2-0.46s-0.32-0.18-0.54-0.18c-0.21,0-0.38,0.05-0.51,0.14
		c-0.13,0.1-0.2,0.22-0.2,0.39c0,0.15,0.06,0.26,0.18,0.34c0.12,0.08,0.37,0.16,0.74,0.24s0.67,0.18,0.88,0.29s0.37,0.25,0.47,0.41
		c0.1,0.16,0.15,0.35,0.15,0.58c0,0.38-0.16,0.69-0.47,0.92c-0.32,0.24-0.73,0.35-1.24,0.35c-0.35,0-0.66-0.06-0.93-0.19
		s-0.48-0.3-0.63-0.52s-0.23-0.46-0.23-0.71h0.92c0.01,0.22,0.1,0.4,0.25,0.52s0.36,0.18,0.62,0.18c0.25,0,0.44-0.05,0.57-0.14
		C228.04,592.82,228.1,592.69,228.1,592.54z"/>
	<path class="st0" d="M231.72,593.77c-0.6,0-1.09-0.19-1.46-0.57s-0.56-0.88-0.56-1.51v-0.12c0-0.42,0.08-0.8,0.24-1.13
		s0.39-0.59,0.69-0.78c0.29-0.19,0.62-0.28,0.98-0.28c0.58,0,1.02,0.18,1.33,0.55s0.47,0.89,0.47,1.56v0.38h-2.76
		c0.03,0.35,0.15,0.62,0.35,0.83s0.46,0.3,0.77,0.3c0.43,0,0.79-0.18,1.06-0.53l0.51,0.49c-0.17,0.25-0.4,0.45-0.68,0.59
		C232.39,593.7,232.08,593.77,231.72,593.77z M231.61,590.15c-0.26,0-0.47,0.09-0.63,0.27c-0.16,0.18-0.26,0.44-0.31,0.76h1.81
		v-0.07c-0.02-0.32-0.11-0.56-0.25-0.72C232.08,590.23,231.87,590.15,231.61,590.15z"/>
	<path class="st0" d="M236.68,593.69c-0.04-0.08-0.08-0.21-0.11-0.39c-0.3,0.31-0.67,0.47-1.11,0.47c-0.42,0-0.77-0.12-1.04-0.36
		s-0.4-0.54-0.4-0.9c0-0.45,0.17-0.8,0.5-1.04c0.33-0.24,0.81-0.36,1.44-0.36h0.58v-0.28c0-0.22-0.06-0.39-0.18-0.53
		c-0.12-0.13-0.31-0.2-0.56-0.2c-0.22,0-0.39,0.05-0.53,0.16c-0.14,0.11-0.21,0.25-0.21,0.41h-0.95c0-0.23,0.08-0.45,0.23-0.65
		c0.15-0.2,0.36-0.36,0.63-0.47c0.26-0.12,0.56-0.17,0.88-0.17c0.5,0,0.89,0.12,1.18,0.37c0.29,0.25,0.45,0.6,0.45,1.05v1.91
		c0,0.38,0.05,0.68,0.16,0.91v0.07H236.68z M235.64,593.01c0.19,0,0.36-0.05,0.53-0.14c0.17-0.09,0.29-0.21,0.37-0.37v-0.8h-0.51
		c-0.35,0-0.62,0.06-0.79,0.18c-0.18,0.12-0.27,0.29-0.27,0.52c0,0.18,0.06,0.33,0.18,0.44
		C235.27,592.95,235.43,593.01,235.64,593.01z"/>
	<path class="st0" d="M240.7,590.33c-0.12-0.02-0.25-0.03-0.39-0.03c-0.43,0-0.73,0.17-0.88,0.5v2.89h-0.95v-4.23h0.91l0.02,0.47
		c0.23-0.37,0.55-0.55,0.95-0.55c0.14,0,0.25,0.02,0.34,0.05L240.7,590.33z"/>
	<path class="st0" d="M242.96,593.01c0.24,0,0.43-0.07,0.59-0.21c0.16-0.14,0.24-0.31,0.25-0.51h0.89
		c-0.01,0.26-0.09,0.51-0.25,0.74c-0.15,0.23-0.36,0.41-0.62,0.54s-0.55,0.2-0.85,0.2c-0.59,0-1.06-0.19-1.41-0.57
		s-0.52-0.91-0.52-1.59v-0.1c0-0.64,0.17-1.16,0.52-1.54s0.81-0.58,1.41-0.58c0.5,0,0.91,0.15,1.23,0.44s0.48,0.68,0.5,1.15h-0.89
		c-0.01-0.24-0.09-0.44-0.25-0.6s-0.35-0.23-0.59-0.23c-0.31,0-0.54,0.11-0.71,0.33s-0.25,0.56-0.25,1.01v0.15
		c0,0.46,0.08,0.8,0.25,1.03C242.41,592.9,242.65,593.01,242.96,593.01z"/>
	<path class="st0" d="M246.34,589.92c0.31-0.36,0.7-0.54,1.18-0.54c0.9,0,1.36,0.51,1.37,1.54v2.76h-0.95v-2.73
		c0-0.29-0.06-0.5-0.19-0.62s-0.31-0.18-0.56-0.18c-0.38,0-0.66,0.17-0.85,0.51v3.02h-0.95v-6h0.95V589.92z"/>
</g>
</svg>
