<?xml version="1.0" encoding="utf-8"?>
<!-- Generator: Adobe Illustrator 25.3.1, SVG Export Plug-In . SVG Version: 6.00 Build 0)  -->
<svg version="1.1" id="Layer_1" xmlns="http://www.w3.org/2000/svg" xmlns:xlink="http://www.w3.org/1999/xlink" x="0px" y="0px"
	 viewBox="0 0 300 600" style="enable-background:new 0 0 300 600;" xml:space="preserve">
<style type="text/css">
	.st0{fill:#FFFFFF;}
</style>
<g>
	<path class="st0" d="M76.93,402.45c0-0.39-0.14-0.72-0.41-0.98c-0.27-0.27-0.73-0.51-1.38-0.72c-0.9-0.28-1.56-0.63-1.97-1.08
		c-0.41-0.44-0.62-1-0.62-1.69c0-0.69,0.2-1.26,0.61-1.71s0.96-0.71,1.67-0.79v-1.39h0.95v1.4c0.71,0.1,1.26,0.4,1.66,0.89
		c0.4,0.5,0.59,1.18,0.59,2.05h-1.17c0-0.6-0.14-1.07-0.43-1.43c-0.28-0.35-0.67-0.53-1.15-0.53c-0.5,0-0.89,0.13-1.16,0.39
		c-0.27,0.26-0.4,0.62-0.4,1.09c0,0.43,0.14,0.78,0.42,1.03c0.28,0.26,0.74,0.49,1.39,0.7s1.15,0.44,1.51,0.69
		c0.36,0.25,0.63,0.54,0.8,0.88c0.17,0.33,0.26,0.73,0.26,1.17c0,0.71-0.21,1.29-0.64,1.73c-0.43,0.44-1.03,0.69-1.81,0.77v1.21
		h-0.94v-1.21c-0.79-0.07-1.4-0.35-1.85-0.84c-0.45-0.49-0.67-1.15-0.67-1.99h1.17c0,0.59,0.15,1.04,0.46,1.36
		c0.31,0.32,0.75,0.48,1.31,0.48c0.55,0,0.99-0.13,1.31-0.4C76.77,403.28,76.93,402.92,76.93,402.45z"/>
	<path class="st0" d="M83.43,404.83h-1.18v-7.83l-2.37,0.87v-1.07l3.36-1.26h0.18V404.83z"/>
	<path class="st0" d="M91.8,396.3v1.66h1.28v0.91H91.8v4.26c0,0.28,0.06,0.48,0.17,0.62s0.31,0.21,0.58,0.21
		c0.14,0,0.32-0.03,0.56-0.08v0.95c-0.31,0.08-0.61,0.13-0.9,0.13c-0.52,0-0.92-0.16-1.19-0.48c-0.27-0.32-0.4-0.77-0.4-1.35v-4.26
		h-1.25v-0.91h1.25v-1.66H91.8z"/>
	<path class="st0" d="M97.77,399.02c-0.18-0.03-0.37-0.04-0.58-0.04c-0.77,0-1.29,0.33-1.57,0.98v4.88h-1.17v-6.87h1.14l0.02,0.79
		c0.38-0.61,0.93-0.92,1.64-0.92c0.23,0,0.4,0.03,0.52,0.09V399.02z"/>
	<path class="st0" d="M98.86,396.15c0-0.19,0.06-0.35,0.17-0.48c0.12-0.13,0.29-0.2,0.52-0.2s0.4,0.07,0.52,0.2
		c0.12,0.13,0.18,0.29,0.18,0.48c0,0.19-0.06,0.35-0.18,0.48s-0.29,0.19-0.52,0.19s-0.4-0.06-0.52-0.19S98.86,396.33,98.86,396.15z
		 M100.13,404.83h-1.17v-6.87h1.17V404.83z"/>
	<path class="st0" d="M106.25,404.83c-0.07-0.14-0.12-0.38-0.17-0.72c-0.55,0.57-1.2,0.85-1.96,0.85c-0.68,0-1.23-0.19-1.67-0.57
		s-0.65-0.87-0.65-1.46c0-0.71,0.27-1.27,0.82-1.67s1.31-0.59,2.29-0.59h1.14v-0.54c0-0.41-0.12-0.74-0.37-0.98
		c-0.25-0.24-0.61-0.36-1.08-0.36c-0.42,0-0.77,0.11-1.05,0.32c-0.28,0.21-0.43,0.47-0.43,0.77h-1.18c0-0.34,0.12-0.67,0.36-0.99
		s0.57-0.57,0.99-0.76s0.88-0.28,1.37-0.28c0.79,0,1.41,0.2,1.86,0.59s0.68,0.94,0.7,1.63v3.16c0,0.63,0.08,1.13,0.24,1.5v0.1
		H106.25z M104.3,403.94c0.37,0,0.72-0.1,1.05-0.29s0.57-0.44,0.72-0.74v-1.41h-0.92c-1.44,0-2.16,0.42-2.16,1.26
		c0,0.37,0.12,0.66,0.37,0.86S103.91,403.94,104.3,403.94z"/>
	<path class="st0" d="M110.35,404.83h-1.17v-9.75h1.17V404.83z"/>
	<path class="st0" d="M116.03,404.83v-5.96h-1.09v-0.91h1.09v-0.7c0-0.74,0.2-1.31,0.59-1.71s0.95-0.6,1.67-0.6
		c0.27,0,0.54,0.04,0.81,0.11l-0.06,0.95c-0.2-0.04-0.41-0.06-0.63-0.06c-0.38,0-0.67,0.11-0.88,0.33
		c-0.21,0.22-0.31,0.54-0.31,0.96v0.73h1.47v0.91h-1.47v5.96H116.03z"/>
	<path class="st0" d="M119.65,401.34c0-0.67,0.13-1.28,0.4-1.81c0.26-0.54,0.63-0.95,1.1-1.24c0.47-0.29,1.01-0.44,1.62-0.44
		c0.94,0,1.69,0.32,2.27,0.97c0.58,0.65,0.87,1.51,0.87,2.58v0.08c0,0.67-0.13,1.27-0.38,1.8s-0.62,0.95-1.1,1.24
		c-0.48,0.3-1.02,0.44-1.64,0.44c-0.93,0-1.69-0.32-2.26-0.97c-0.58-0.65-0.87-1.5-0.87-2.57V401.34z M120.83,401.48
		c0,0.76,0.18,1.37,0.53,1.83s0.83,0.69,1.42,0.69c0.6,0,1.07-0.23,1.42-0.7s0.53-1.12,0.53-1.96c0-0.75-0.18-1.36-0.54-1.83
		s-0.83-0.7-1.42-0.7c-0.58,0-1.05,0.23-1.4,0.69C121.01,399.96,120.83,400.62,120.83,401.48z"/>
	<path class="st0" d="M130.7,399.02c-0.18-0.03-0.37-0.04-0.58-0.04c-0.77,0-1.29,0.33-1.57,0.98v4.88h-1.17v-6.87h1.14l0.02,0.79
		c0.38-0.61,0.93-0.92,1.64-0.92c0.23,0,0.4,0.03,0.52,0.09V399.02z"/>
	<path class="st0" d="M136.59,396.3v1.66h1.28v0.91h-1.28v4.26c0,0.28,0.06,0.48,0.17,0.62s0.31,0.21,0.58,0.21
		c0.14,0,0.32-0.03,0.56-0.08v0.95c-0.31,0.08-0.61,0.13-0.9,0.13c-0.52,0-0.92-0.16-1.19-0.48c-0.27-0.32-0.4-0.77-0.4-1.35v-4.26
		h-1.25v-0.91h1.25v-1.66H136.59z"/>
	<path class="st0" d="M140.42,398.8c0.52-0.64,1.2-0.96,2.03-0.96c1.45,0,2.18,0.82,2.2,2.46v4.54h-1.17v-4.54
		c0-0.5-0.12-0.86-0.34-1.1c-0.22-0.24-0.57-0.36-1.04-0.36c-0.38,0-0.71,0.1-1,0.3c-0.29,0.2-0.51,0.47-0.67,0.8v4.89h-1.17v-9.75
		h1.17V398.8z"/>
	<path class="st0" d="M149.25,404.96c-0.93,0-1.69-0.31-2.27-0.92s-0.88-1.43-0.88-2.45v-0.21c0-0.68,0.13-1.29,0.39-1.83
		c0.26-0.54,0.62-0.95,1.09-1.26s0.97-0.45,1.52-0.45c0.89,0,1.59,0.29,2.08,0.88c0.5,0.59,0.74,1.43,0.74,2.53v0.49h-4.65
		c0.02,0.68,0.21,1.22,0.59,1.64s0.86,0.62,1.44,0.62c0.41,0,0.77-0.08,1.05-0.25c0.29-0.17,0.54-0.39,0.76-0.67l0.72,0.56
		C151.27,404.52,150.4,404.96,149.25,404.96z M149.11,398.8c-0.47,0-0.87,0.17-1.19,0.52s-0.52,0.83-0.6,1.45h3.44v-0.09
		c-0.03-0.6-0.19-1.06-0.48-1.39S149.6,398.8,149.11,398.8z"/>
	<path class="st0" d="M157.08,404.83v-5.96H156v-0.91h1.09v-0.7c0-0.74,0.2-1.31,0.59-1.71s0.95-0.6,1.67-0.6
		c0.27,0,0.54,0.04,0.81,0.11l-0.06,0.95c-0.2-0.04-0.41-0.06-0.63-0.06c-0.38,0-0.67,0.11-0.88,0.33
		c-0.21,0.22-0.31,0.54-0.31,0.96v0.73h1.47v0.91h-1.47v5.96H157.08z"/>
	<path class="st0" d="M161.03,396.15c0-0.19,0.06-0.35,0.17-0.48c0.12-0.13,0.29-0.2,0.52-0.2s0.4,0.07,0.52,0.2
		c0.12,0.13,0.18,0.29,0.18,0.48c0,0.19-0.06,0.35-0.18,0.48s-0.29,0.19-0.52,0.19s-0.4-0.06-0.52-0.19S161.03,396.33,161.03,396.15
		z M162.29,404.83h-1.17v-6.87h1.17V404.83z"/>
	<path class="st0" d="M167.5,399.02c-0.18-0.03-0.37-0.04-0.58-0.04c-0.77,0-1.29,0.33-1.57,0.98v4.88h-1.17v-6.87h1.14l0.02,0.79
		c0.38-0.61,0.93-0.92,1.64-0.92c0.23,0,0.4,0.03,0.52,0.09V399.02z"/>
	<path class="st0" d="M172.57,403.01c0-0.32-0.12-0.56-0.36-0.74s-0.66-0.33-1.25-0.45s-1.07-0.28-1.42-0.46
		c-0.35-0.18-0.61-0.39-0.77-0.63c-0.17-0.25-0.25-0.54-0.25-0.88c0-0.56,0.24-1.04,0.71-1.43c0.48-0.39,1.08-0.58,1.83-0.58
		c0.78,0,1.41,0.2,1.89,0.6c0.48,0.4,0.73,0.92,0.73,1.54h-1.18c0-0.32-0.14-0.6-0.41-0.83c-0.27-0.23-0.62-0.35-1.03-0.35
		c-0.43,0-0.76,0.09-1,0.28s-0.36,0.43-0.36,0.73c0,0.28,0.11,0.5,0.34,0.64s0.63,0.28,1.22,0.41c0.59,0.13,1.06,0.29,1.42,0.47
		c0.36,0.18,0.63,0.4,0.81,0.66s0.26,0.57,0.26,0.94c0,0.61-0.25,1.11-0.74,1.48c-0.49,0.37-1.13,0.56-1.91,0.56
		c-0.55,0-1.04-0.1-1.46-0.29s-0.75-0.47-0.99-0.82c-0.24-0.35-0.36-0.73-0.36-1.13h1.17c0.02,0.39,0.18,0.71,0.47,0.94
		s0.68,0.35,1.17,0.35c0.44,0,0.8-0.09,1.07-0.27S172.57,403.31,172.57,403.01z"/>
	<path class="st0" d="M176.87,396.3v1.66h1.28v0.91h-1.28v4.26c0,0.28,0.06,0.48,0.17,0.62s0.31,0.21,0.58,0.21
		c0.14,0,0.32-0.03,0.56-0.08v0.95c-0.31,0.08-0.61,0.13-0.9,0.13c-0.52,0-0.92-0.16-1.19-0.48c-0.27-0.32-0.4-0.77-0.4-1.35v-4.26
		h-1.25v-0.91h1.25v-1.66H176.87z"/>
	<path class="st0" d="M187.16,404.83h-2.15V398l-2.11,0.62V397l4.06-1.4h0.2V404.83z"/>
	<path class="st0" d="M195.6,401.22h0.94v1.65h-0.94v1.96h-2.14v-1.96h-3.57l-0.13-1.31l3.7-5.95v-0.02h2.14V401.22z M191.79,401.22
		h1.66v-2.84l-0.13,0.21L191.79,401.22z"/>
	<path class="st0" d="M200.48,401.35c0-1.09,0.23-1.95,0.71-2.57c0.47-0.63,1.12-0.94,1.97-0.94c0.61,0,1.13,0.24,1.55,0.72v-3.48
		h2.15v9.75h-1.92l-0.11-0.74c-0.44,0.58-1,0.86-1.68,0.86c-0.82,0-1.46-0.31-1.94-0.94C200.72,403.4,200.48,402.5,200.48,401.35z
		 M202.62,401.48c0,1.22,0.36,1.83,1.07,1.83c0.47,0,0.81-0.2,1.02-0.6v-2.62c-0.19-0.41-0.53-0.61-1-0.61
		c-0.66,0-1.02,0.53-1.07,1.6L202.62,401.48z"/>
	<path class="st0" d="M211.93,404.83c-0.08-0.14-0.14-0.34-0.2-0.62c-0.39,0.49-0.94,0.74-1.65,0.74c-0.65,0-1.2-0.2-1.65-0.59
		s-0.68-0.88-0.68-1.48c0-0.75,0.28-1.31,0.83-1.69c0.55-0.38,1.35-0.57,2.4-0.57h0.66v-0.36c0-0.63-0.27-0.95-0.82-0.95
		c-0.51,0-0.76,0.25-0.76,0.75h-2.14c0-0.66,0.28-1.2,0.85-1.62c0.57-0.41,1.29-0.62,2.16-0.62c0.88,0,1.57,0.21,2.08,0.64
		c0.51,0.43,0.77,1.01,0.78,1.76v3.04c0.01,0.63,0.11,1.11,0.29,1.45v0.11H211.93z M210.59,403.44c0.27,0,0.49-0.06,0.66-0.17
		c0.18-0.11,0.3-0.24,0.38-0.39v-1.1h-0.62c-0.75,0-1.12,0.33-1.12,1c0,0.2,0.07,0.35,0.2,0.47
		C210.22,403.38,210.38,403.44,210.59,403.44z"/>
	<path class="st0" d="M217.71,401.84l1.14-3.87h2.29l-2.8,8.02l-0.12,0.29c-0.4,0.89-1.1,1.33-2.11,1.33
		c-0.28,0-0.57-0.04-0.88-0.13v-1.52h0.28c0.3,0,0.53-0.04,0.69-0.13c0.16-0.09,0.28-0.24,0.35-0.47l0.17-0.46l-2.39-6.94h2.29
		L217.71,401.84z"/>
	<path class="st0" d="M225.29,402.91c0-0.18-0.09-0.33-0.29-0.44c-0.19-0.11-0.55-0.22-1.09-0.34c-0.53-0.12-0.97-0.27-1.32-0.47
		c-0.35-0.19-0.61-0.43-0.79-0.7c-0.18-0.27-0.27-0.59-0.27-0.95c0-0.63,0.26-1.15,0.78-1.56s1.2-0.61,2.04-0.61
		c0.91,0,1.63,0.21,2.18,0.62c0.55,0.41,0.83,0.95,0.83,1.62h-2.15c0-0.55-0.29-0.83-0.87-0.83c-0.22,0-0.41,0.06-0.56,0.19
		s-0.23,0.28-0.23,0.47c0,0.19,0.09,0.34,0.28,0.46s0.48,0.22,0.89,0.29s0.77,0.17,1.08,0.27c1.03,0.36,1.55,0.99,1.55,1.91
		c0,0.63-0.28,1.14-0.83,1.53c-0.56,0.39-1.28,0.59-2.16,0.59c-0.59,0-1.11-0.11-1.57-0.32s-0.82-0.5-1.08-0.86
		s-0.39-0.75-0.39-1.15h2c0.01,0.32,0.11,0.55,0.32,0.7c0.2,0.15,0.46,0.22,0.78,0.22c0.29,0,0.51-0.06,0.66-0.18
		C225.22,403.25,225.29,403.1,225.29,402.91z"/>
	<path class="st0" d="M228.68,406.68l-0.67-0.46c0.4-0.55,0.61-1.13,0.62-1.71v-1.06h1.15v0.92c0,0.43-0.1,0.85-0.31,1.28
		C229.26,406.08,229,406.42,228.68,406.68z M228.46,398.61c0-0.2,0.06-0.37,0.18-0.51c0.12-0.14,0.3-0.2,0.54-0.2
		c0.24,0,0.42,0.07,0.55,0.2s0.19,0.3,0.19,0.51c0,0.19-0.06,0.36-0.19,0.49c-0.12,0.13-0.31,0.2-0.55,0.2
		c-0.24,0-0.42-0.07-0.54-0.2C228.52,398.97,228.46,398.81,228.46,398.61z"/>
	<path class="st0" d="M56.83,428.22v3.62h-1.22v-9.24h3.41c1.01,0,1.8,0.26,2.38,0.77s0.86,1.2,0.86,2.05c0,0.9-0.28,1.59-0.84,2.07
		s-1.36,0.73-2.41,0.73H56.83z M56.83,427.22h2.19c0.65,0,1.15-0.15,1.5-0.46c0.35-0.31,0.52-0.75,0.52-1.33
		c0-0.55-0.17-0.99-0.52-1.32s-0.82-0.5-1.43-0.52h-2.26V427.22z"/>
	<path class="st0" d="M64.91,431.83h-1.17v-9.75h1.17V431.83z"/>
	<path class="st0" d="M71.03,431.83c-0.07-0.14-0.12-0.38-0.17-0.72c-0.55,0.57-1.2,0.85-1.96,0.85c-0.68,0-1.23-0.19-1.67-0.57
		s-0.65-0.87-0.65-1.46c0-0.71,0.27-1.27,0.82-1.67s1.31-0.59,2.29-0.59h1.14v-0.54c0-0.41-0.12-0.74-0.37-0.98
		c-0.25-0.24-0.61-0.36-1.08-0.36c-0.42,0-0.77,0.11-1.05,0.32c-0.28,0.21-0.43,0.47-0.43,0.77h-1.18c0-0.34,0.12-0.67,0.36-0.99
		s0.57-0.57,0.99-0.76s0.88-0.28,1.37-0.28c0.79,0,1.41,0.2,1.86,0.59s0.68,0.94,0.7,1.63v3.16c0,0.63,0.08,1.13,0.24,1.5v0.1H71.03
		z M69.08,430.94c0.37,0,0.72-0.1,1.05-0.29s0.57-0.44,0.72-0.74v-1.41h-0.92c-1.44,0-2.16,0.42-2.16,1.26
		c0,0.37,0.12,0.66,0.37,0.86S68.7,430.94,69.08,430.94z"/>
	<path class="st0" d="M74.97,424.97l0.04,0.86c0.53-0.66,1.21-0.99,2.06-0.99c1.45,0,2.18,0.82,2.2,2.46v4.54h-1.17v-4.54
		c0-0.5-0.12-0.86-0.34-1.1c-0.22-0.24-0.57-0.36-1.04-0.36c-0.38,0-0.71,0.1-1,0.3c-0.29,0.2-0.51,0.47-0.67,0.8v4.89h-1.17v-6.87
		H74.97z"/>
	<path class="st0" d="M85.03,430.01c0-0.32-0.12-0.56-0.36-0.74s-0.66-0.33-1.25-0.45s-1.07-0.28-1.42-0.46
		c-0.35-0.18-0.61-0.39-0.77-0.63c-0.17-0.25-0.25-0.54-0.25-0.88c0-0.56,0.24-1.04,0.71-1.43c0.48-0.39,1.08-0.58,1.83-0.58
		c0.78,0,1.41,0.2,1.89,0.6c0.48,0.4,0.73,0.92,0.73,1.54h-1.18c0-0.32-0.14-0.6-0.41-0.83c-0.27-0.23-0.62-0.35-1.03-0.35
		c-0.43,0-0.76,0.09-1,0.28s-0.36,0.43-0.36,0.73c0,0.28,0.11,0.5,0.34,0.64s0.63,0.28,1.22,0.41c0.59,0.13,1.06,0.29,1.42,0.47
		c0.36,0.18,0.63,0.4,0.81,0.66s0.26,0.57,0.26,0.94c0,0.61-0.25,1.11-0.74,1.48c-0.49,0.37-1.13,0.56-1.91,0.56
		c-0.55,0-1.04-0.1-1.46-0.29s-0.75-0.47-0.99-0.82c-0.24-0.35-0.36-0.73-0.36-1.13h1.17c0.02,0.39,0.18,0.71,0.47,0.94
		s0.68,0.35,1.17,0.35c0.44,0,0.8-0.09,1.07-0.27S85.03,430.31,85.03,430.01z"/>
	<path class="st0" d="M95.19,431.83c-0.07-0.14-0.12-0.38-0.17-0.72c-0.55,0.57-1.2,0.85-1.96,0.85c-0.68,0-1.23-0.19-1.67-0.57
		s-0.65-0.87-0.65-1.46c0-0.71,0.27-1.27,0.82-1.67s1.31-0.59,2.29-0.59h1.14v-0.54c0-0.41-0.12-0.74-0.37-0.98
		c-0.25-0.24-0.61-0.36-1.08-0.36c-0.42,0-0.77,0.11-1.05,0.32c-0.28,0.21-0.43,0.47-0.43,0.77H90.9c0-0.34,0.12-0.67,0.36-0.99
		s0.57-0.57,0.99-0.76s0.88-0.28,1.37-0.28c0.79,0,1.41,0.2,1.86,0.59s0.68,0.94,0.7,1.63v3.16c0,0.63,0.08,1.13,0.24,1.5v0.1H95.19
		z M93.25,430.94c0.37,0,0.72-0.1,1.05-0.29s0.57-0.44,0.72-0.74v-1.41h-0.92c-1.44,0-2.16,0.42-2.16,1.26
		c0,0.37,0.12,0.66,0.37,0.86S92.86,430.94,93.25,430.94z"/>
	<path class="st0" d="M101.35,426.02c-0.18-0.03-0.37-0.04-0.58-0.04c-0.77,0-1.29,0.33-1.57,0.98v4.88h-1.17v-6.87h1.14l0.02,0.79
		c0.38-0.61,0.93-0.92,1.64-0.92c0.23,0,0.4,0.03,0.52,0.09V426.02z"/>
	<path class="st0" d="M105.27,431.96c-0.93,0-1.69-0.31-2.27-0.92s-0.88-1.43-0.88-2.45v-0.21c0-0.68,0.13-1.29,0.39-1.83
		c0.26-0.54,0.62-0.95,1.09-1.26s0.97-0.45,1.52-0.45c0.89,0,1.59,0.29,2.08,0.88c0.5,0.59,0.74,1.43,0.74,2.53v0.49h-4.65
		c0.02,0.68,0.21,1.22,0.59,1.64s0.86,0.62,1.44,0.62c0.41,0,0.77-0.08,1.05-0.25c0.29-0.17,0.54-0.39,0.76-0.67l0.72,0.56
		C107.29,431.52,106.42,431.96,105.27,431.96z M105.13,425.8c-0.47,0-0.87,0.17-1.19,0.52s-0.52,0.83-0.6,1.45h3.44v-0.09
		c-0.03-0.6-0.19-1.06-0.48-1.39S105.62,425.8,105.13,425.8z"/>
	<path class="st0" d="M116.46,429.38c0-0.33-0.08-0.6-0.25-0.79c-0.16-0.19-0.45-0.37-0.87-0.54c-0.42-0.17-0.8-0.34-1.15-0.51
		c-0.35-0.17-0.65-0.38-0.91-0.6s-0.45-0.49-0.58-0.79s-0.2-0.66-0.2-1.09c0-0.71,0.24-1.3,0.72-1.77c0.48-0.46,1.13-0.73,1.93-0.81
		v-1.34h1.01v1.36c0.78,0.11,1.38,0.43,1.83,0.96s0.66,1.19,0.66,1.99h-2.14c0-0.44-0.08-0.78-0.25-1.02
		c-0.17-0.24-0.41-0.36-0.72-0.36c-0.28,0-0.5,0.09-0.65,0.26s-0.23,0.42-0.23,0.73c0,0.31,0.09,0.56,0.27,0.75
		c0.18,0.18,0.46,0.36,0.86,0.53c0.39,0.17,0.76,0.34,1.11,0.52c0.35,0.18,0.65,0.38,0.9,0.61s0.45,0.5,0.6,0.8
		c0.14,0.3,0.21,0.67,0.21,1.1c0,0.72-0.23,1.31-0.69,1.77s-1.08,0.72-1.88,0.8v1.28h-1.01v-1.28c-0.92-0.1-1.63-0.41-2.12-0.95
		s-0.74-1.24-0.74-2.12h2.14c0,0.48,0.11,0.85,0.32,1.1s0.52,0.38,0.91,0.38c0.29,0,0.51-0.09,0.68-0.26
		C116.38,429.92,116.46,429.69,116.46,429.38z"/>
	<path class="st0" d="M123.95,428.26c-0.46,0.42-0.98,0.62-1.55,0.62c-0.84,0-1.5-0.28-1.99-0.85c-0.49-0.57-0.74-1.32-0.74-2.27
		c0-0.59,0.14-1.14,0.41-1.65s0.66-0.91,1.16-1.21c0.5-0.3,1.05-0.44,1.65-0.44c0.61,0,1.16,0.15,1.65,0.46s0.88,0.74,1.15,1.3
		s0.42,1.21,0.43,1.94v0.82c0,1.02-0.2,1.9-0.6,2.65c-0.4,0.75-0.97,1.33-1.71,1.73c-0.74,0.4-1.6,0.6-2.59,0.6h-0.13v-1.71
		l0.41-0.01C122.97,430.17,123.79,429.51,123.95,428.26z M122.98,427.34c0.47,0,0.8-0.2,1-0.6v-0.89c0-0.59-0.1-1.03-0.3-1.31
		c-0.2-0.28-0.47-0.42-0.81-0.42c-0.3,0-0.55,0.16-0.76,0.48c-0.2,0.32-0.3,0.71-0.3,1.17c0,0.48,0.1,0.87,0.31,1.15
		C122.33,427.2,122.62,427.34,122.98,427.34z"/>
	<path class="st0" d="M128.62,429.76c0.34,0,0.62,0.1,0.84,0.3s0.34,0.46,0.34,0.77s-0.11,0.57-0.34,0.77s-0.51,0.3-0.84,0.3
		c-0.34,0-0.63-0.1-0.85-0.3c-0.22-0.2-0.33-0.46-0.33-0.77s0.11-0.57,0.33-0.77C128,429.86,128.28,429.76,128.62,429.76z"/>
	<path class="st0" d="M135.41,428.26c-0.46,0.42-0.98,0.62-1.55,0.62c-0.84,0-1.5-0.28-1.99-0.85c-0.49-0.57-0.74-1.32-0.74-2.27
		c0-0.59,0.14-1.14,0.41-1.65s0.66-0.91,1.16-1.21c0.5-0.3,1.05-0.44,1.65-0.44c0.61,0,1.16,0.15,1.65,0.46s0.88,0.74,1.15,1.3
		s0.42,1.21,0.43,1.94v0.82c0,1.02-0.2,1.9-0.6,2.65c-0.4,0.75-0.97,1.33-1.71,1.73c-0.74,0.4-1.6,0.6-2.59,0.6h-0.13v-1.71
		l0.41-0.01C134.42,430.17,135.24,429.51,135.41,428.26z M134.44,427.34c0.47,0,0.8-0.2,1-0.6v-0.89c0-0.59-0.1-1.03-0.3-1.31
		c-0.2-0.28-0.47-0.42-0.81-0.42c-0.3,0-0.55,0.16-0.76,0.48c-0.2,0.32-0.3,0.71-0.3,1.17c0,0.48,0.1,0.87,0.31,1.15
		C133.79,427.2,134.08,427.34,134.44,427.34z"/>
	<path class="st0" d="M142.93,428.26c-0.46,0.42-0.98,0.62-1.55,0.62c-0.84,0-1.5-0.28-1.99-0.85c-0.49-0.57-0.74-1.32-0.74-2.27
		c0-0.59,0.14-1.14,0.41-1.65s0.66-0.91,1.16-1.21c0.5-0.3,1.05-0.44,1.65-0.44c0.61,0,1.16,0.15,1.65,0.46s0.88,0.74,1.15,1.3
		s0.42,1.21,0.43,1.94v0.82c0,1.02-0.2,1.9-0.6,2.65c-0.4,0.75-0.97,1.33-1.71,1.73c-0.74,0.4-1.6,0.6-2.59,0.6h-0.13v-1.71
		l0.41-0.01C141.95,430.17,142.77,429.51,142.93,428.26z M141.96,427.34c0.47,0,0.8-0.2,1-0.6v-0.89c0-0.59-0.1-1.03-0.3-1.31
		c-0.2-0.28-0.47-0.42-0.81-0.42c-0.3,0-0.55,0.16-0.76,0.48c-0.2,0.32-0.3,0.71-0.3,1.17c0,0.48,0.1,0.87,0.31,1.15
		C141.32,427.2,141.6,427.34,141.96,427.34z"/>
	<path class="st0" d="M151.4,423.3v1.66h1.28v0.91h-1.28v4.26c0,0.28,0.06,0.48,0.17,0.62s0.31,0.21,0.58,0.21
		c0.14,0,0.32-0.03,0.56-0.08v0.95c-0.31,0.08-0.61,0.13-0.9,0.13c-0.52,0-0.92-0.16-1.19-0.48c-0.27-0.32-0.4-0.77-0.4-1.35v-4.26
		h-1.25v-0.91h1.25v-1.66H151.4z"/>
	<path class="st0" d="M153.62,428.34c0-0.67,0.13-1.28,0.4-1.81c0.26-0.54,0.63-0.95,1.1-1.24c0.47-0.29,1.01-0.44,1.62-0.44
		c0.94,0,1.69,0.32,2.27,0.97c0.58,0.65,0.87,1.51,0.87,2.58v0.08c0,0.67-0.13,1.27-0.38,1.8s-0.62,0.95-1.1,1.24
		c-0.48,0.3-1.02,0.44-1.64,0.44c-0.93,0-1.69-0.32-2.26-0.97c-0.58-0.65-0.87-1.5-0.87-2.57V428.34z M154.8,428.48
		c0,0.76,0.18,1.37,0.53,1.83s0.83,0.69,1.42,0.69c0.6,0,1.07-0.23,1.42-0.7s0.53-1.12,0.53-1.96c0-0.75-0.18-1.36-0.54-1.83
		s-0.83-0.7-1.42-0.7c-0.58,0-1.05,0.23-1.4,0.69C154.98,426.96,154.8,427.62,154.8,428.48z"/>
	<path class="st0" d="M168.52,429.38c0-0.33-0.08-0.6-0.25-0.79c-0.16-0.19-0.45-0.37-0.87-0.54c-0.42-0.17-0.8-0.34-1.15-0.51
		c-0.35-0.17-0.65-0.38-0.91-0.6s-0.45-0.49-0.58-0.79s-0.2-0.66-0.2-1.09c0-0.71,0.24-1.3,0.72-1.77c0.48-0.46,1.13-0.73,1.93-0.81
		v-1.34h1.01v1.36c0.78,0.11,1.38,0.43,1.83,0.96s0.66,1.19,0.66,1.99h-2.14c0-0.44-0.08-0.78-0.25-1.02
		c-0.17-0.24-0.41-0.36-0.72-0.36c-0.28,0-0.5,0.09-0.65,0.26s-0.23,0.42-0.23,0.73c0,0.31,0.09,0.56,0.27,0.75
		c0.18,0.18,0.46,0.36,0.86,0.53c0.39,0.17,0.76,0.34,1.11,0.52c0.35,0.18,0.65,0.38,0.9,0.61s0.45,0.5,0.6,0.8
		c0.14,0.3,0.21,0.67,0.21,1.1c0,0.72-0.23,1.31-0.69,1.77s-1.08,0.72-1.88,0.8v1.28h-1.01v-1.28c-0.92-0.1-1.63-0.41-2.12-0.95
		s-0.74-1.24-0.74-2.12h2.14c0,0.48,0.11,0.85,0.32,1.1s0.52,0.38,0.91,0.38c0.29,0,0.51-0.09,0.68-0.26
		C168.43,429.92,168.52,429.69,168.52,429.38z"/>
	<path class="st0" d="M178.23,431.83h-6.45v-1.4l2.97-3.12c0.73-0.83,1.1-1.5,1.1-1.99c0-0.4-0.09-0.7-0.26-0.91
		c-0.17-0.21-0.42-0.31-0.75-0.31c-0.33,0-0.59,0.14-0.79,0.42s-0.3,0.62-0.3,1.04h-2.14c0-0.57,0.14-1.09,0.42-1.57
		s0.68-0.86,1.18-1.13c0.5-0.27,1.07-0.41,1.69-0.41c1,0,1.77,0.23,2.31,0.69c0.54,0.46,0.81,1.12,0.81,1.99
		c0,0.36-0.07,0.72-0.2,1.06c-0.13,0.34-0.35,0.71-0.63,1.09c-0.29,0.38-0.75,0.89-1.38,1.52l-1.19,1.38h3.64V431.83z"/>
	<path class="st0" d="M184.96,428.22h0.94v1.65h-0.94v1.96h-2.14v-1.96h-3.57l-0.13-1.31l3.7-5.95v-0.02h2.14V428.22z
		 M181.16,428.22h1.66v-2.84l-0.13,0.21L181.16,428.22z"/>
	<path class="st0" d="M188.2,429.76c0.34,0,0.62,0.1,0.84,0.3s0.34,0.46,0.34,0.77s-0.11,0.57-0.34,0.77s-0.51,0.3-0.84,0.3
		c-0.34,0-0.63-0.1-0.85-0.3c-0.22-0.2-0.33-0.46-0.33-0.77s0.11-0.57,0.33-0.77C187.58,429.86,187.86,429.76,188.2,429.76z"/>
	<path class="st0" d="M194.99,428.26c-0.46,0.42-0.98,0.62-1.55,0.62c-0.84,0-1.5-0.28-1.99-0.85c-0.49-0.57-0.74-1.32-0.74-2.27
		c0-0.59,0.14-1.14,0.41-1.65s0.66-0.91,1.16-1.21c0.5-0.3,1.05-0.44,1.65-0.44c0.61,0,1.16,0.15,1.65,0.46s0.88,0.74,1.15,1.3
		s0.42,1.21,0.43,1.94v0.82c0,1.02-0.2,1.9-0.6,2.65c-0.4,0.75-0.97,1.33-1.71,1.73c-0.74,0.4-1.6,0.6-2.59,0.6h-0.13v-1.71
		l0.41-0.01C194,430.17,194.82,429.51,194.99,428.26z M194.01,427.34c0.47,0,0.8-0.2,1-0.6v-0.89c0-0.59-0.1-1.03-0.3-1.31
		c-0.2-0.28-0.47-0.42-0.81-0.42c-0.3,0-0.55,0.16-0.76,0.48c-0.2,0.32-0.3,0.71-0.3,1.17c0,0.48,0.1,0.87,0.31,1.15
		C193.37,427.2,193.66,427.34,194.01,427.34z"/>
	<path class="st0" d="M202.51,428.26c-0.46,0.42-0.98,0.62-1.55,0.62c-0.84,0-1.5-0.28-1.99-0.85c-0.49-0.57-0.74-1.32-0.74-2.27
		c0-0.59,0.14-1.14,0.41-1.65s0.66-0.91,1.16-1.21c0.5-0.3,1.05-0.44,1.65-0.44c0.61,0,1.16,0.15,1.65,0.46s0.88,0.74,1.15,1.3
		s0.42,1.21,0.43,1.94v0.82c0,1.02-0.2,1.9-0.6,2.65c-0.4,0.75-0.97,1.33-1.71,1.73c-0.74,0.4-1.6,0.6-2.59,0.6h-0.13v-1.71
		l0.41-0.01C201.53,430.17,202.35,429.51,202.51,428.26z M201.54,427.34c0.47,0,0.8-0.2,1-0.6v-0.89c0-0.59-0.1-1.03-0.3-1.31
		c-0.2-0.28-0.47-0.42-0.81-0.42c-0.3,0-0.55,0.16-0.76,0.48c-0.2,0.32-0.3,0.71-0.3,1.17c0,0.48,0.1,0.87,0.31,1.15
		C200.9,427.2,201.18,427.34,201.54,427.34z"/>
	<path class="st0" d="M206.6,432.63h-1.52l3.15-10.04h1.52L206.6,432.63z"/>
	<path class="st0" d="M212.45,424.97l0.07,0.81c0.49-0.62,1.14-0.93,1.96-0.93c0.87,0,1.45,0.34,1.76,1.03
		c0.47-0.69,1.14-1.03,2.02-1.03c1.39,0,2.11,0.84,2.15,2.53v4.47h-2.15v-4.34c0-0.35-0.06-0.61-0.18-0.77s-0.33-0.24-0.65-0.24
		c-0.42,0-0.74,0.19-0.95,0.57l0.01,0.09v4.69h-2.15v-4.32c0-0.36-0.06-0.62-0.17-0.78c-0.11-0.16-0.33-0.24-0.65-0.24
		c-0.41,0-0.72,0.19-0.94,0.57v4.78h-2.14v-6.87H212.45z"/>
	<path class="st0" d="M221.35,428.34c0-0.69,0.13-1.3,0.4-1.83c0.27-0.54,0.65-0.95,1.15-1.23s1.09-0.43,1.76-0.43
		c1.03,0,1.84,0.32,2.43,0.96s0.89,1.5,0.89,2.6v0.08c0,1.07-0.3,1.92-0.89,2.55c-0.59,0.63-1.4,0.94-2.42,0.94
		c-0.98,0-1.76-0.29-2.36-0.88s-0.91-1.38-0.96-2.38L221.35,428.34z M223.49,428.47c0,0.63,0.1,1.1,0.3,1.4s0.49,0.44,0.88,0.44
		c0.76,0,1.15-0.59,1.17-1.76v-0.22c0-1.23-0.39-1.85-1.18-1.85c-0.71,0-1.1,0.53-1.16,1.59L223.49,428.47z"/>
	<path class="st0" d="M230.89,424.97l0.07,0.81c0.47-0.62,1.13-0.93,1.96-0.93c0.71,0,1.25,0.21,1.6,0.64
		c0.35,0.43,0.54,1.07,0.55,1.93v4.42h-2.15v-4.34c0-0.35-0.07-0.6-0.21-0.76s-0.39-0.24-0.76-0.24c-0.42,0-0.73,0.17-0.93,0.5v4.85
		h-2.14v-6.87H230.89z"/>
	<path class="st0" d="M238.75,423.26v1.71h1.13v1.49h-1.13v3.14c0,0.26,0.05,0.44,0.14,0.54c0.09,0.1,0.28,0.15,0.55,0.15
		c0.21,0,0.39-0.01,0.53-0.04v1.53c-0.38,0.12-0.79,0.18-1.21,0.18c-0.74,0-1.28-0.17-1.63-0.52c-0.35-0.35-0.53-0.87-0.53-1.58
		v-3.41h-0.88v-1.49h0.88v-1.71H238.75z"/>
	<path class="st0" d="M242.81,425.7c0.46-0.58,1.04-0.86,1.75-0.86c0.76,0,1.33,0.22,1.71,0.67s0.58,1.11,0.59,1.99v4.34h-2.15
		v-4.29c0-0.36-0.07-0.63-0.22-0.8c-0.15-0.17-0.4-0.26-0.75-0.26c-0.44,0-0.75,0.14-0.93,0.42v4.93h-2.14v-9.75h2.14V425.7z"/>
</g>
</svg>
