<svg id="Layer_1" xmlns="http://www.w3.org/2000/svg" viewBox="0 0 320 468"><style>.st0{fill:#edf4fd}</style><path class="st0" d="M94.95 28.98l3.29 9.28 3.27-9.28h3.46v12.8h-2.65v-3.5l.26-6.04-3.45 9.54h-1.81l-3.45-9.53.26 6.03v3.5h-2.64v-12.8h3.46zM110.66 38.18l1.76-5.92h2.72l-3.82 10.99-.21.5c-.57 1.24-1.51 1.86-2.81 1.86-.37 0-.74-.06-1.12-.17v-1.92l.39.01c.48 0 .84-.07 1.08-.22s.42-.39.56-.73l.3-.78-3.33-9.54h2.73l1.75 5.92zM120.61 29.81c0-.38.13-.69.38-.94s.6-.37 1.04-.37c.43 0 .78.12 1.04.37s.39.56.39.94c0 .39-.13.7-.39.95s-.6.37-1.03.37-.78-.13-1.04-.37-.39-.57-.39-.95zm2.7 11.97h-2.55v-9.51h2.55v9.51zM125 36.95c0-1.48.33-2.66 1-3.54s1.57-1.32 2.73-1.32c.93 0 1.69.35 2.29 1.04v-4.85h2.55v13.5h-2.29l-.12-1.01c-.63.79-1.45 1.19-2.44 1.19-1.12 0-2.02-.44-2.69-1.32S125 38.52 125 36.95zm2.54.19c0 .89.16 1.58.47 2.05.31.48.76.71 1.35.71.79 0 1.34-.33 1.66-.99v-3.76c-.32-.66-.86-.99-1.64-.99-1.23 0-1.84.99-1.84 2.98zM139.92 41.95c-1.39 0-2.53-.43-3.41-1.28s-1.31-2-1.31-3.42V37c0-.96.18-1.81.55-2.56s.89-1.33 1.57-1.74 1.45-.61 2.32-.61c1.3 0 2.32.41 3.07 1.23s1.12 1.98 1.12 3.49v1.04h-6.06c.08.62.33 1.12.74 1.49s.94.56 1.57.56c.98 0 1.74-.35 2.29-1.06l1.25 1.4c-.38.54-.9.96-1.55 1.26s-1.36.45-2.15.45zm-.29-7.81c-.5 0-.91.17-1.23.51s-.51.83-.6 1.47h3.53v-.2c-.01-.56-.16-1-.46-1.31s-.7-.47-1.24-.47zM147.61 32.27l.08 1.1c.68-.85 1.59-1.27 2.73-1.27 1.01 0 1.76.3 2.25.89s.74 1.48.76 2.65v6.14h-2.54V35.7c0-.54-.12-.93-.35-1.17s-.62-.36-1.17-.36c-.71 0-1.25.3-1.61.91v6.71h-2.54v-9.51h2.39zM158.39 29.93v2.34h1.63v1.86h-1.63v4.75c0 .35.07.6.2.76s.39.23.77.23c.28 0 .53-.02.75-.06v1.92c-.5.15-1.01.23-1.54.23-1.78 0-2.69-.9-2.72-2.7v-5.12h-1.39v-1.86h1.39v-2.34h2.54zM161.41 29.81c0-.38.13-.69.38-.94s.6-.37 1.04-.37c.43 0 .78.12 1.04.37s.39.56.39.94c0 .39-.13.7-.39.95s-.6.37-1.03.37-.77-.12-1.03-.37-.4-.57-.4-.95zm2.7 11.97h-2.55v-9.51h2.55v9.51zM169.25 29.93v2.34h1.63v1.86h-1.63v4.75c0 .35.07.6.2.76s.39.23.77.23c.28 0 .53-.02.75-.06v1.92c-.5.15-1.01.23-1.54.23-1.78 0-2.69-.9-2.72-2.7v-5.12h-1.39v-1.86h1.39v-2.34h2.54zM175.84 38.18l1.76-5.92h2.72l-3.82 10.99-.21.5c-.57 1.24-1.51 1.86-2.81 1.86-.37 0-.74-.06-1.12-.17v-1.92l.39.01c.48 0 .84-.07 1.08-.22s.42-.39.56-.73l.3-.78-3.33-9.54h2.73l1.75 5.92zM189.76 39.91c.47 0 .85-.13 1.14-.39s.45-.6.46-1.03h2.38c-.01.64-.18 1.23-.53 1.77s-.82.95-1.42 1.25-1.26.44-1.99.44c-1.36 0-2.43-.43-3.22-1.3s-1.18-2.06-1.18-3.58v-.17c0-1.46.39-2.63 1.17-3.51s1.85-1.31 3.21-1.31c1.19 0 2.14.34 2.86 1.02s1.08 1.58 1.09 2.7h-2.38c-.01-.49-.16-.9-.46-1.21s-.68-.46-1.16-.46c-.59 0-1.04.22-1.34.65s-.45 1.13-.45 2.1v.26c0 .98.15 1.68.45 2.11.31.44.76.66 1.37.66zM200.7 41.78c-.12-.23-.2-.51-.25-.85-.62.69-1.42 1.03-2.4 1.03-.93 0-1.7-.27-2.32-.81s-.92-1.22-.92-2.04c0-1.01.37-1.78 1.12-2.32s1.83-.81 3.24-.82h1.17v-.54c0-.44-.11-.79-.34-1.05s-.58-.4-1.07-.4c-.43 0-.76.1-1.01.31s-.36.49-.36.84h-2.54c0-.55.17-1.06.51-1.53s.82-.84 1.44-1.1 1.32-.4 2.09-.4c1.17 0 2.1.29 2.79.88s1.03 1.42 1.03 2.48v4.12c.01.9.13 1.58.38 2.05v.15h-2.56zm-2.1-1.77c.38 0 .72-.08 1.04-.25s.55-.39.7-.67v-1.63h-.95c-1.27 0-1.95.44-2.03 1.32l-.01.15c0 .32.11.58.33.78s.53.3.92.3zM207.18 32.27l.08 1.1c.68-.85 1.59-1.27 2.73-1.27 1.01 0 1.76.3 2.25.89s.74 1.48.76 2.65v6.14h-2.54V35.7c0-.54-.12-.93-.35-1.17s-.62-.36-1.17-.36c-.71 0-1.25.3-1.61.91v6.71h-2.54v-9.51h2.39zM215.05 40.53c0-.4.14-.73.41-.98s.61-.38 1.02-.38c.42 0 .76.13 1.03.38s.41.58.41.98-.13.72-.4.97-.62.37-1.04.37c-.42 0-.76-.12-1.03-.37s-.4-.57-.4-.97zM220.28 40.53c0-.4.14-.73.41-.98s.61-.38 1.02-.38c.42 0 .76.13 1.03.38s.41.58.41.98-.13.72-.4.97-.62.37-1.04.37c-.42 0-.76-.12-1.03-.37s-.4-.57-.4-.97zM225.51 40.53c0-.4.14-.73.41-.98s.61-.38 1.02-.38c.42 0 .76.13 1.03.38s.41.58.41.98-.13.72-.4.97-.62.37-1.04.37c-.42 0-.76-.12-1.03-.37s-.4-.57-.4-.97z"/></svg>