<?xml version="1.0" encoding="utf-8"?>
<!-- Generator: Adobe Illustrator 24.2.3, SVG Export Plug-In . SVG Version: 6.00 Build 0)  -->
<svg version="1.1" id="Layer_1" xmlns="http://www.w3.org/2000/svg" xmlns:xlink="http://www.w3.org/1999/xlink" x="0px" y="0px"
	 viewBox="0 0 970 250" style="enable-background:new 0 0 970 250;" xml:space="preserve">
<style type="text/css">
	.st0{fill:#001B91;}
</style>
<g>
	<path class="st0" d="M456.65,56.5c0-0.9-0.32-1.61-0.96-2.11s-1.76-1.03-3.37-1.56s-2.92-1.06-3.94-1.56
		c-3.32-1.63-4.97-3.87-4.97-6.71c0-1.42,0.41-2.67,1.24-3.75s2-1.93,3.51-2.53s3.21-0.91,5.1-0.91c1.84,0,3.49,0.33,4.95,0.98
		s2.59,1.59,3.4,2.8s1.21,2.6,1.21,4.16h-6.15c0-1.04-0.32-1.85-0.96-2.43s-1.5-0.86-2.59-0.86c-1.1,0-1.97,0.24-2.61,0.73
		s-0.96,1.1-0.96,1.85c0,0.66,0.35,1.25,1.05,1.78s1.94,1.08,3.71,1.65s3.22,1.18,4.36,1.84c2.77,1.59,4.15,3.79,4.15,6.59
		c0,2.24-0.84,4-2.53,5.27s-4,1.92-6.94,1.92c-2.07,0-3.95-0.37-5.63-1.12s-2.95-1.76-3.8-3.06s-1.27-2.79-1.27-4.47h6.19
		c0,1.37,0.35,2.38,1.06,3.03s1.86,0.98,3.45,0.98c1.02,0,1.83-0.22,2.42-0.66S456.65,57.3,456.65,56.5z"/>
	<path class="st0" d="M464.96,53.62c0-1.9,0.37-3.59,1.11-5.07s1.8-2.62,3.18-3.42s3.01-1.2,4.87-1.2c2.85,0,5.09,0.88,6.73,2.65
		s2.46,4.16,2.46,7.2v0.21c0,2.96-0.82,5.32-2.47,7.06s-3.88,2.61-6.69,2.61c-2.71,0-4.88-0.81-6.52-2.43s-2.53-3.82-2.65-6.6
		L464.96,53.62z M470.88,53.99c0,1.76,0.28,3.05,0.83,3.87s1.37,1.23,2.44,1.23c2.11,0,3.19-1.62,3.23-4.87v-0.6
		c0-3.41-1.09-5.12-3.27-5.12c-1.98,0-3.05,1.47-3.22,4.41L470.88,53.99z"/>
	<path class="st0" d="M502.49,55l3.16-10.72H512l-7.75,22.2l-0.33,0.81c-1.1,2.46-3.05,3.69-5.84,3.69c-0.77,0-1.59-0.12-2.44-0.35
		v-4.22h0.77c0.83,0,1.47-0.12,1.91-0.36c0.44-0.24,0.76-0.67,0.98-1.29l0.47-1.27l-6.61-19.21h6.33L502.49,55z"/>
	<path class="st0" d="M512.79,53.62c0-1.9,0.37-3.59,1.11-5.07s1.8-2.62,3.18-3.42s3.01-1.2,4.87-1.2c2.85,0,5.09,0.88,6.73,2.65
		s2.46,4.16,2.46,7.2v0.21c0,2.96-0.82,5.32-2.47,7.06s-3.88,2.61-6.69,2.61c-2.71,0-4.88-0.81-6.52-2.43s-2.53-3.82-2.65-6.6
		L512.79,53.62z M518.71,53.99c0,1.76,0.28,3.05,0.83,3.87s1.37,1.23,2.44,1.23c2.11,0,3.19-1.62,3.23-4.87v-0.6
		c0-3.41-1.09-5.12-3.27-5.12c-1.98,0-3.05,1.47-3.22,4.41L518.71,53.99z"/>
	<path class="st0" d="M545.08,61.25c-1.25,1.61-2.95,2.41-5.08,2.41c-2.09,0-3.67-0.61-4.74-1.82s-1.61-2.96-1.61-5.23V44.28h5.92
		v12.36c0,1.63,0.79,2.44,2.37,2.44c1.36,0,2.33-0.49,2.9-1.46V44.28h5.96V63.3h-5.55L545.08,61.25z"/>
	<path class="st0" d="M570.66,56.22l-1.67,1.67v5.41h-5.92V36.28h5.92v14.34l0.6-0.79l4.46-5.55h7.1l-6.66,7.82l7.1,11.2h-6.79
		L570.66,56.22z"/>
	<path class="st0" d="M588.15,44.28l0.19,2.23c1.31-1.72,3.12-2.58,5.43-2.58c1.98,0,3.46,0.59,4.44,1.78s1.49,2.96,1.52,5.34V63.3
		h-5.94V51.3c0-0.96-0.19-1.67-0.58-2.12s-1.09-0.68-2.11-0.68c-1.16,0-2.02,0.46-2.58,1.37V63.3h-5.92V44.28H588.15z"/>
	<path class="st0" d="M602.26,53.62c0-1.9,0.37-3.59,1.11-5.07s1.8-2.62,3.18-3.42s3.01-1.2,4.87-1.2c2.85,0,5.09,0.88,6.73,2.65
		s2.46,4.16,2.46,7.2v0.21c0,2.96-0.82,5.32-2.47,7.06s-3.88,2.61-6.69,2.61c-2.71,0-4.88-0.81-6.52-2.43s-2.53-3.82-2.65-6.6
		L602.26,53.62z M608.19,53.99c0,1.76,0.28,3.05,0.83,3.87s1.37,1.23,2.44,1.23c2.11,0,3.19-1.62,3.23-4.87v-0.6
		c0-3.41-1.09-5.12-3.27-5.12c-1.98,0-3.05,1.47-3.22,4.41L608.19,53.99z"/>
	<path class="st0" d="M639.65,55.5l1.92-11.21h5.68l-4.48,19.02h-5.01l-3.15-11.29l-3.16,11.29h-5.01l-4.48-19.02h5.68l1.88,11.48
		l3.02-11.48h4.13L639.65,55.5z"/>
	<path class="st0" d="M674.76,55.5l1.92-11.21h5.68l-4.48,19.02h-5.01l-3.15-11.29l-3.16,11.29h-5.01l-4.48-19.02h5.68l1.88,11.48
		l3.02-11.48h4.13L674.76,55.5z"/>
	<path class="st0" d="M690.26,46.32c1.27-1.59,2.88-2.39,4.85-2.39c2.1,0,3.68,0.62,4.75,1.86s1.61,3.08,1.63,5.5V63.3h-5.94V51.44
		c0-1.01-0.21-1.75-0.62-2.22s-1.11-0.71-2.09-0.71c-1.22,0-2.08,0.39-2.58,1.16V63.3h-5.92v-27h5.92V46.32z"/>
	<path class="st0" d="M713.99,63.65c-2.92,0-5.28-0.87-7.08-2.61s-2.71-4-2.71-6.79v-0.49c0-1.95,0.36-3.66,1.08-5.15
		s1.77-2.64,3.16-3.45s3.02-1.22,4.92-1.22c2.67,0,4.78,0.83,6.33,2.49s2.32,3.97,2.32,6.93v2.3h-11.78
		c0.21,1.07,0.67,1.9,1.39,2.51s1.64,0.91,2.78,0.91c1.88,0,3.34-0.66,4.39-1.97l2.71,3.2c-0.74,1.02-1.78,1.83-3.14,2.43
		S715.55,63.65,713.99,63.65z M713.32,48.5c-1.73,0-2.77,1.15-3.09,3.45h5.98v-0.46c0.02-0.95-0.22-1.68-0.72-2.21
		S714.26,48.5,713.32,48.5z"/>
	<path class="st0" d="M735.89,49.64l-1.95-0.14c-1.86,0-3.06,0.59-3.59,1.76V63.3h-5.92V44.28h5.55l0.19,2.44
		c1-1.86,2.38-2.79,4.17-2.79c0.63,0,1.18,0.07,1.65,0.21L735.89,49.64z"/>
	<path class="st0" d="M747.23,63.65c-2.92,0-5.28-0.87-7.08-2.61s-2.71-4-2.71-6.79v-0.49c0-1.95,0.36-3.66,1.08-5.15
		s1.77-2.64,3.16-3.45s3.02-1.22,4.92-1.22c2.67,0,4.78,0.83,6.33,2.49s2.32,3.97,2.32,6.93v2.3h-11.78
		c0.21,1.07,0.67,1.9,1.39,2.51s1.64,0.91,2.78,0.91c1.88,0,3.34-0.66,4.39-1.97l2.71,3.2c-0.74,1.02-1.78,1.83-3.14,2.43
		S748.79,63.65,747.23,63.65z M746.56,48.5c-1.73,0-2.77,1.15-3.09,3.45h5.98v-0.46c0.02-0.95-0.22-1.68-0.72-2.21
		S747.5,48.5,746.56,48.5z"/>
	<path class="st0" d="M774.2,55l3.16-10.72h6.35l-7.75,22.2l-0.33,0.81c-1.1,2.46-3.05,3.69-5.84,3.69c-0.77,0-1.59-0.12-2.44-0.35
		v-4.22h0.77c0.83,0,1.47-0.12,1.91-0.36c0.44-0.24,0.76-0.67,0.98-1.29l0.47-1.27l-6.61-19.21h6.33L774.2,55z"/>
	<path class="st0" d="M784.5,53.62c0-1.9,0.37-3.59,1.11-5.07s1.8-2.62,3.18-3.42s3.01-1.2,4.87-1.2c2.85,0,5.09,0.88,6.73,2.65
		s2.46,4.16,2.46,7.2v0.21c0,2.96-0.82,5.32-2.47,7.06s-3.88,2.61-6.69,2.61c-2.71,0-4.88-0.81-6.52-2.43s-2.53-3.82-2.65-6.6
		L784.5,53.62z M790.42,53.99c0,1.76,0.28,3.05,0.83,3.87s1.37,1.23,2.44,1.23c2.11,0,3.19-1.62,3.23-4.87v-0.6
		c0-3.41-1.09-5.12-3.27-5.12c-1.98,0-3.05,1.47-3.22,4.41L790.42,53.99z"/>
	<path class="st0" d="M816.79,61.25c-1.25,1.61-2.95,2.41-5.08,2.41c-2.09,0-3.67-0.61-4.74-1.82s-1.61-2.96-1.61-5.23V44.28h5.92
		v12.36c0,1.63,0.79,2.44,2.37,2.44c1.36,0,2.33-0.49,2.9-1.46V44.28h5.96V63.3h-5.55L816.79,61.25z"/>
	<path class="st0" d="M844.68,57.96c0-0.5-0.26-0.91-0.79-1.21s-1.53-0.62-3.01-0.95s-2.7-0.76-3.66-1.29s-1.69-1.18-2.2-1.94
		s-0.76-1.63-0.76-2.62c0-1.75,0.72-3.18,2.16-4.32s3.33-1.7,5.66-1.7c2.51,0,4.52,0.57,6.05,1.71s2.29,2.63,2.29,4.48h-5.94
		c0-1.52-0.8-2.29-2.41-2.29c-0.62,0-1.14,0.17-1.56,0.52s-0.63,0.78-0.63,1.29c0,0.53,0.26,0.96,0.77,1.28s1.34,0.6,2.47,0.81
		s2.12,0.46,2.98,0.76c2.86,0.98,4.29,2.75,4.29,5.29c0,1.73-0.77,3.15-2.31,4.24s-3.54,1.63-5.99,1.63c-1.63,0-3.08-0.29-4.36-0.88
		s-2.27-1.38-2.99-2.39s-1.07-2.07-1.07-3.18h5.54c0.02,0.88,0.32,1.52,0.88,1.92s1.28,0.61,2.16,0.61c0.81,0,1.42-0.16,1.82-0.49
		S844.68,58.49,844.68,57.96z"/>
	<path class="st0" d="M860.06,39.55v4.73h3.13v4.11h-3.13v8.7c0,0.71,0.13,1.21,0.39,1.49s0.77,0.42,1.53,0.42
		c0.59,0,1.08-0.04,1.48-0.11v4.24c-1.07,0.34-2.18,0.51-3.34,0.51c-2.04,0-3.54-0.48-4.52-1.44s-1.46-2.42-1.46-4.38V48.4h-2.43
		v-4.11h2.43v-4.73H860.06z"/>
	<path class="st0" d="M876.24,63.3c-0.21-0.39-0.4-0.96-0.56-1.71c-1.09,1.37-2.61,2.06-4.57,2.06c-1.79,0-3.32-0.54-4.57-1.63
		s-1.88-2.45-1.88-4.09c0-2.06,0.76-3.62,2.29-4.68s3.74-1.58,6.64-1.58h1.83v-1.01c0-1.75-0.76-2.63-2.27-2.63
		c-1.41,0-2.11,0.7-2.11,2.08h-5.92c0-1.84,0.78-3.33,2.35-4.48c1.56-1.15,3.56-1.72,5.99-1.72s4.34,0.59,5.75,1.78
		s2.13,2.81,2.16,4.87V59c0.02,1.75,0.29,3.08,0.81,4.01v0.3H876.24z M872.53,59.43c0.74,0,1.35-0.16,1.84-0.47s0.83-0.67,1.05-1.07
		v-3.04h-1.72c-2.06,0-3.09,0.93-3.09,2.78c0,0.54,0.18,0.98,0.54,1.31S871.96,59.43,872.53,59.43z"/>
	<path class="st0" d="M890.07,44.28l0.19,2.23c1.31-1.72,3.12-2.58,5.43-2.58c1.98,0,3.46,0.59,4.44,1.78s1.49,2.96,1.52,5.34V63.3
		h-5.94V51.3c0-0.96-0.19-1.67-0.58-2.12s-1.09-0.68-2.11-0.68c-1.16,0-2.02,0.46-2.58,1.37V63.3h-5.92V44.28H890.07z"/>
	<path class="st0" d="M904.19,53.65c0-3.01,0.65-5.38,1.95-7.12s3.12-2.6,5.45-2.6c1.7,0,3.13,0.67,4.29,2V36.3h5.94v27h-5.33
		l-0.3-2.04c-1.22,1.59-2.77,2.39-4.64,2.39c-2.26,0-4.05-0.87-5.38-2.6S904.19,56.85,904.19,53.65z M910.11,54.02
		c0,3.38,0.98,5.06,2.95,5.06c1.31,0,2.25-0.55,2.81-1.65v-7.24c-0.54-1.12-1.46-1.69-2.78-1.69c-1.83,0-2.82,1.48-2.97,4.43
		L910.11,54.02z"/>
</g>
</svg>
