<svg id="Layer_1" xmlns="http://www.w3.org/2000/svg" viewBox="0 0 160 600"><style>.st0{fill:#edf3fa}.st1{fill:none;stroke:url(#underline_00000162348268958923711240000013557044465000147125_);stroke-width:4;stroke-linecap:round;stroke-miterlimit:10}</style><path class="st0" d="M24.3 146.2l-2.1 2.3v5.7h-4.1v-19.9h4.1v9l1.8-2.5 5.1-6.5h5l-7.1 8.8 7.3 11.1h-4.9l-5.1-8zM42.4 154.5c-2.2 0-3.9-.7-5.3-2s-2-3.1-2-5.3v-.4c0-1.5.3-2.8.9-4 .6-1.2 1.4-2.1 2.4-2.7 1.1-.6 2.3-1 3.6-1 2 0 3.6.6 4.8 1.9 1.2 1.3 1.7 3.1 1.7 5.4v1.6H39c.1 1 .5 1.7 1.2 2.3.6.6 1.5.9 2.4.9 1.5 0 2.7-.6 3.6-1.7l1.9 2.2c-.6.8-1.4 1.5-2.4 2s-2.1.8-3.3.8zm-.5-12.2c-.8 0-1.4.3-1.9.8s-.8 1.3-.9 2.3h5.5v-.3c0-.9-.3-1.6-.7-2-.5-.5-1.1-.8-2-.8zM57.5 154.5c-2.2 0-3.9-.7-5.3-2s-2-3.1-2-5.3v-.4c0-1.5.3-2.8.9-4 .6-1.2 1.4-2.1 2.4-2.7 1.1-.6 2.3-1 3.6-1 2 0 3.6.6 4.8 1.9 1.2 1.3 1.7 3.1 1.7 5.4v1.6h-9.4c.1 1 .5 1.7 1.2 2.3.6.6 1.5.9 2.4.9 1.5 0 2.7-.6 3.6-1.7l1.9 2.2c-.6.8-1.4 1.5-2.4 2s-2.2.8-3.4.8zm-.4-12.2c-.8 0-1.4.3-1.9.8s-.8 1.3-.9 2.3h5.5v-.3c0-.9-.3-1.6-.7-2-.6-.5-1.2-.8-2-.8zM79.2 147c0 2.3-.5 4.1-1.6 5.5-1 1.4-2.4 2.1-4.2 2.1-1.5 0-2.7-.5-3.6-1.6v7h-4v-20.5h3.7l.1 1.4c1-1.1 2.2-1.7 3.7-1.7 1.8 0 3.2.7 4.3 2 1 1.3 1.5 3.2 1.5 5.6v.2zm-4-.3c0-1.4-.2-2.4-.7-3.2-.5-.7-1.2-1.1-2.1-1.1-1.2 0-2.1.5-2.6 1.4v6.1c.5 1 1.3 1.5 2.6 1.5 1.9-.1 2.8-1.6 2.8-4.7zM94.1 148.6l2.7-9.2h4.2l-5.9 17.1-.3.8c-.9 1.9-2.3 2.9-4.4 2.9-.6 0-1.2-.1-1.8-.3v-3h.6c.7 0 1.3-.1 1.7-.3.4-.2.7-.6.9-1.1l.5-1.2-5.2-14.8h4.3l2.7 9.1zM102 146.7c0-1.5.3-2.8.8-3.9.6-1.1 1.4-2 2.4-2.7 1.1-.6 2.3-.9 3.7-.9 2 0 3.6.6 4.9 1.8 1.3 1.2 2 2.9 2.1 5v1c0 2.3-.6 4.1-1.9 5.5-1.3 1.4-3 2.1-5.1 2.1s-3.8-.7-5.1-2.1-1.9-3.2-1.9-5.6v-.2zm4 .3c0 1.4.3 2.5.8 3.2.5.7 1.3 1.1 2.3 1.1 1 0 1.7-.4 2.2-1.1.5-.7.8-1.9.8-3.5 0-1.4-.3-2.4-.8-3.2-.5-.8-1.3-1.1-2.3-1.1-1 0-1.7.4-2.2 1.1-.6.7-.8 1.9-.8 3.5zM127.3 152.7c-1 1.2-2.3 1.8-4 1.8-1.6 0-2.8-.5-3.6-1.4-.8-.9-1.3-2.2-1.3-4v-9.7h4v9.6c0 1.5.7 2.3 2.1 2.3 1.3 0 2.3-.5 2.8-1.4v-10.5h4v14.8h-3.7l-.3-1.5zM142.4 143.1c-.5-.1-1-.1-1.4-.1-1.5 0-2.5.5-2.9 1.5v9.7h-4v-14.8h3.7l.1 1.8c.8-1.4 1.9-2 3.3-2 .4 0 .8.1 1.2.2v3.7zM50.9 182.3c.7 0 1.3-.2 1.8-.6.5-.4.7-.9.7-1.6h3.7c0 1-.3 1.9-.8 2.8-.5.8-1.3 1.5-2.2 1.9-.9.5-2 .7-3.1.7-2.1 0-3.8-.7-5-2-1.2-1.3-1.8-3.2-1.8-5.6v-.3c0-2.3.6-4.1 1.8-5.5 1.2-1.4 2.9-2 5-2 1.9 0 3.3.5 4.5 1.6 1.1 1.1 1.7 2.5 1.7 4.2h-3.7c0-.8-.3-1.4-.7-1.9-.5-.5-1.1-.7-1.8-.7-.9 0-1.6.3-2.1 1s-.7 1.8-.7 3.3v.4c0 1.5.2 2.6.7 3.3s1.1 1 2 1zM67.7 174.1c-.5-.1-1-.1-1.4-.1-1.5 0-2.5.5-2.9 1.5v9.7h-4v-14.8h3.7l.1 1.8c.8-1.4 1.9-2 3.3-2 .4 0 .8.1 1.2.2v3.7zM76.4 185.5c-2.2 0-3.9-.7-5.3-2s-2-3.1-2-5.3v-.4c0-1.5.3-2.8.9-4 .6-1.2 1.4-2.1 2.4-2.7 1.1-.6 2.3-1 3.6-1 2 0 3.6.6 4.8 1.9 1.2 1.3 1.7 3.1 1.7 5.4v1.6h-9.4c.1 1 .5 1.7 1.2 2.3.6.6 1.5.9 2.4.9 1.5 0 2.7-.6 3.6-1.7l1.9 2.2c-.6.8-1.4 1.5-2.4 2s-2.2.8-3.4.8zm-.5-12.2c-.8 0-1.4.3-1.9.8s-.8 1.3-.9 2.3h5.5v-.3c0-.9-.3-1.6-.7-2-.5-.5-1.1-.8-2-.8zM84.1 177.7c0-2.3.5-4.1 1.6-5.5 1-1.4 2.4-2.1 4.2-2.1 1.4 0 2.6.5 3.6 1.6v-7.5h4v21h-3.6l-.2-1.6c-1 1.2-2.3 1.8-3.8 1.8-1.7 0-3.1-.7-4.2-2.1-1.1-1.2-1.6-3.1-1.6-5.6zm3.9.3c0 1.4.2 2.5.7 3.2.5.7 1.2 1.1 2.1 1.1 1.2 0 2.1-.5 2.6-1.5V175c-.5-1-1.3-1.5-2.6-1.5-1.8-.1-2.8 1.4-2.8 4.5zM100.5 166.6c0-.6.2-1.1.6-1.5s.9-.6 1.6-.6c.7 0 1.2.2 1.6.6.4.4.6.9.6 1.5s-.2 1.1-.6 1.5c-.4.4-.9.6-1.6.6-.7 0-1.2-.2-1.6-.6-.4-.4-.6-.9-.6-1.5zm4.2 18.6h-4v-14.8h4v14.8zM112.6 166.8v3.6h2.5v2.9h-2.5v7.4c0 .5.1.9.3 1.2.2.2.6.4 1.2.4.4 0 .8 0 1.2-.1v3c-.8.2-1.6.4-2.4.4-2.8 0-4.2-1.4-4.2-4.2v-8h-2.2v-2.9h2.2v-3.6h3.9zM46.8 212.1c0-.5-.2-.9-.7-1.1-.5-.3-1.2-.5-2.3-.7-3.5-.7-5.3-2.2-5.3-4.5 0-1.3.5-2.4 1.6-3.3 1.1-.9 2.5-1.3 4.3-1.3 1.9 0 3.4.4 4.5 1.3s1.7 2 1.7 3.4h-4c0-.6-.2-1-.5-1.4-.4-.4-.9-.6-1.7-.6-.7 0-1.2.2-1.5.5-.4.3-.5.7-.5 1.1 0 .4.2.8.6 1.1.4.3 1.1.5 2.1.7 1 .2 1.8.4 2.5.7 2.1.8 3.1 2.1 3.1 4 0 1.3-.6 2.4-1.7 3.3-1.2.8-2.7 1.3-4.5 1.3-1.2 0-2.3-.2-3.3-.7-1-.4-1.7-1-2.3-1.8-.5-.8-.8-1.6-.8-2.5h3.7c0 .7.3 1.2.8 1.6.5.4 1.1.6 1.9.6.8 0 1.3-.1 1.7-.4.4-.4.6-.8.6-1.3zM59.3 213.3c.7 0 1.3-.2 1.8-.6.5-.4.7-.9.7-1.6h3.7c0 1-.3 1.9-.8 2.8-.5.8-1.3 1.5-2.2 1.9-.9.5-2 .7-3.1.7-2.1 0-3.8-.7-5-2-1.2-1.3-1.8-3.2-1.8-5.6v-.3c0-2.3.6-4.1 1.8-5.5 1.2-1.4 2.9-2 5-2 1.9 0 3.3.5 4.5 1.6 1.1 1.1 1.7 2.5 1.7 4.2h-3.7c0-.8-.3-1.4-.7-1.9-.5-.5-1.1-.7-1.8-.7-.9 0-1.6.3-2.1 1s-.7 1.8-.7 3.3v.4c0 1.5.2 2.6.7 3.3s1.1 1 2 1zM67.2 208.7c0-1.5.3-2.8.8-3.9.6-1.1 1.4-2 2.4-2.7 1.1-.6 2.3-.9 3.7-.9 2 0 3.6.6 4.9 1.8 1.3 1.2 2 2.9 2.1 5v1c0 2.3-.6 4.1-1.9 5.5-1.3 1.4-3 2.1-5.1 2.1s-3.8-.7-5.1-2.1-1.9-3.2-1.9-5.6v-.2zm3.9.3c0 1.4.3 2.5.8 3.2.5.7 1.3 1.1 2.3 1.1 1 0 1.7-.4 2.2-1.1.5-.7.8-1.9.8-3.5 0-1.4-.3-2.4-.8-3.2-.5-.8-1.3-1.1-2.3-1.1-1 0-1.7.4-2.2 1.1-.5.7-.8 1.9-.8 3.5zM91.9 205.1c-.5-.1-1-.1-1.4-.1-1.5 0-2.5.5-2.9 1.5v9.7h-4v-14.8h3.7l.1 1.8c.8-1.4 1.9-2 3.3-2 .4 0 .8.1 1.2.2v3.7zM100.6 216.5c-2.2 0-3.9-.7-5.3-2s-2-3.1-2-5.3v-.4c0-1.5.3-2.8.9-4 .6-1.2 1.4-2.1 2.4-2.7 1.1-.6 2.3-1 3.6-1 2 0 3.6.6 4.8 1.9 1.2 1.3 1.7 3.1 1.7 5.4v1.6h-9.4c.1 1 .5 1.7 1.2 2.3.6.6 1.5.9 2.4.9 1.5 0 2.7-.6 3.6-1.7l1.9 2.2c-.6.8-1.4 1.5-2.4 2s-2.1.8-3.4.8zm-.4-12.2c-.8 0-1.4.3-1.9.8s-.8 1.3-.9 2.3h5.5v-.3c0-.9-.3-1.6-.7-2-.5-.5-1.2-.8-2-.8zM117 212.1c0-.5-.2-.9-.7-1.1-.5-.3-1.2-.5-2.3-.7-3.5-.7-5.3-2.2-5.3-4.5 0-1.3.5-2.4 1.6-3.3 1.1-.9 2.5-1.3 4.3-1.3 1.9 0 3.4.4 4.5 1.3s1.7 2 1.7 3.4h-4c0-.6-.2-1-.5-1.4s-.9-.6-1.7-.6c-.7 0-1.2.2-1.5.5s-.5.7-.5 1.1c0 .4.2.8.6 1.1.4.3 1.1.5 2.1.7 1 .2 1.8.4 2.5.7 2.1.8 3.1 2.1 3.1 4 0 1.3-.6 2.4-1.7 3.3s-2.7 1.3-4.5 1.3c-1.2 0-2.3-.2-3.3-.7s-1.7-1-2.3-1.8c-.5-.8-.8-1.6-.8-2.5h3.7c0 .7.3 1.2.8 1.6.5.4 1.1.6 1.9.6.8 0 1.3-.1 1.7-.4s.6-.8.6-1.3zM38.1 228.6c0-.6.2-1.1.6-1.5s.9-.6 1.6-.6c.7 0 1.2.2 1.6.6.4.4.6.9.6 1.5s-.2 1.1-.6 1.5c-.4.4-.9.6-1.6.6-.7 0-1.2-.2-1.6-.6-.4-.4-.6-.9-.6-1.5zm4.2 18.6h-4v-14.8h4v14.8zM49.2 232.4l.1 1.7c1.1-1.3 2.5-2 4.3-2 1.6 0 2.7.5 3.5 1.4s1.2 2.3 1.2 4.1v9.6h-4v-9.5c0-.8-.2-1.4-.5-1.8-.4-.4-1-.6-1.8-.6-1.1 0-1.9.5-2.5 1.4v10.4h-4v-14.8h3.7zM73.7 241.6l2.7-9.2h4.2l-5.9 17.1-.3.8c-.9 1.9-2.3 2.9-4.4 2.9-.6 0-1.2-.1-1.8-.3v-3h.6c.7 0 1.3-.1 1.7-.3s.7-.6.9-1.1l.5-1.2-5.2-14.8H71l2.7 9.1zM81.7 239.7c0-1.5.3-2.8.8-3.9.6-1.1 1.4-2 2.4-2.7 1.1-.6 2.3-.9 3.7-.9 2 0 3.6.6 4.9 1.8 1.3 1.2 2 2.9 2.1 5v1c0 2.3-.6 4.1-1.9 5.5-1.3 1.4-3 2.1-5.1 2.1s-3.8-.7-5.1-2.1-1.9-3.2-1.9-5.6v-.2zm3.9.3c0 1.4.3 2.5.8 3.2.5.7 1.3 1.1 2.3 1.1 1 0 1.7-.4 2.2-1.1.5-.7.8-1.9.8-3.5 0-1.4-.3-2.4-.8-3.2-.5-.8-1.3-1.1-2.3-1.1-1 0-1.7.4-2.2 1.1-.5.7-.8 1.9-.8 3.5zM107 245.7c-1 1.2-2.3 1.8-4 1.8-1.6 0-2.8-.5-3.6-1.4s-1.3-2.2-1.3-4v-9.7h4v9.6c0 1.5.7 2.3 2.1 2.3 1.3 0 2.3-.5 2.8-1.4v-10.5h4v14.8h-3.7l-.3-1.5zM122.1 236.1c-.5-.1-1-.1-1.4-.1-1.5 0-2.5.5-2.9 1.5v9.7h-4v-14.8h3.7l.1 1.8c.8-1.4 1.9-2 3.3-2 .4 0 .8.1 1.2.2v3.7zM47.4 271c0 2.3-.5 4.1-1.6 5.5-1 1.4-2.4 2.1-4.2 2.1-1.5 0-2.7-.5-3.6-1.6v7h-4v-20.5h3.7l.1 1.4c1-1.1 2.2-1.7 3.7-1.7 1.8 0 3.2.7 4.3 2s1.5 3.2 1.5 5.6v.2zm-3.9-.3c0-1.4-.2-2.4-.7-3.2-.5-.7-1.2-1.1-2.1-1.1-1.2 0-2.1.5-2.6 1.4v6.1c.5 1 1.3 1.5 2.6 1.5 1.8-.1 2.8-1.6 2.8-4.7zM49.3 270.7c0-1.5.3-2.8.8-3.9.6-1.1 1.4-2 2.4-2.7 1.1-.6 2.3-.9 3.7-.9 2 0 3.6.6 4.9 1.8 1.3 1.2 2 2.9 2.1 5v1c0 2.3-.6 4.1-1.9 5.5-1.3 1.4-3 2.1-5.1 2.1s-3.8-.7-5.1-2.1-1.9-3.2-1.9-5.6v-.2zm3.9.3c0 1.4.3 2.5.8 3.2.5.7 1.3 1.1 2.3 1.1 1 0 1.7-.4 2.2-1.1.5-.7.8-1.9.8-3.5 0-1.4-.3-2.4-.8-3.2-.5-.8-1.3-1.1-2.3-1.1-1 0-1.7.4-2.2 1.1-.5.7-.8 1.9-.8 3.5zM71.9 275.3c.7 0 1.3-.2 1.8-.6.5-.4.7-.9.7-1.6h3.7c0 1-.3 1.9-.8 2.8-.5.8-1.3 1.5-2.2 1.9-.9.5-2 .7-3.1.7-2.1 0-3.8-.7-5-2-1.2-1.3-1.8-3.2-1.8-5.6v-.3c0-2.3.6-4.1 1.8-5.5 1.2-1.4 2.9-2 5-2 1.9 0 3.3.5 4.5 1.6 1.1 1.1 1.7 2.5 1.7 4.2h-3.7c0-.8-.3-1.4-.7-1.9-.5-.5-1.1-.7-1.8-.7-.9 0-1.6.3-2.1 1s-.7 1.8-.7 3.3v.4c0 1.5.2 2.6.7 3.3.3.7 1 1 2 1zM85.7 272.3l-1.4 1.4v4.5h-4v-21h4v11.6l.8-1 3.8-4.4h4.7l-5.3 6.2 5.8 8.6h-4.5l-3.9-5.9zM102.1 278.5c-2.2 0-3.9-.7-5.3-2s-2-3.1-2-5.3v-.4c0-1.5.3-2.8.9-4s1.4-2.1 2.4-2.7 2.3-1 3.6-1c2 0 3.6.6 4.8 1.9s1.7 3.1 1.7 5.4v1.6h-9.4c.1 1 .5 1.7 1.2 2.3s1.5.9 2.4.9c1.5 0 2.7-.6 3.6-1.7l1.9 2.2c-.6.8-1.4 1.5-2.4 2s-2.2.8-3.4.8zm-.5-12.2c-.8 0-1.4.3-1.9.8s-.8 1.3-.9 2.3h5.5v-.3c0-.9-.3-1.6-.7-2-.5-.5-1.1-.8-2-.8zM115.1 259.8v3.6h2.5v2.9h-2.5v7.4c0 .5.1.9.3 1.2s.6.4 1.2.4c.4 0 .8 0 1.2-.1v3c-.8.2-1.6.4-2.4.4-2.8 0-4.2-1.4-4.2-4.2v-8H109v-2.9h2.2v-3.6h3.9zM120.1 276.3c0-.6.2-1.1.6-1.5s1-.6 1.6-.6c.6 0 1.2.2 1.6.6s.6.9.6 1.5-.2 1.1-.6 1.5-1 .6-1.6.6c-.6 0-1.2-.2-1.6-.6s-.6-.9-.6-1.5z"/><linearGradient id="underline_00000142159497324231473030000018265785415597036727_" gradientUnits="userSpaceOnUse" x1="30.337" y1="296.803" x2="128.769" y2="296.803"><stop offset="0" stop-color="#41b5e8"/><stop offset=".5" stop-color="#6a53a3"/><stop offset="1" stop-color="#e72e8a"/></linearGradient><path id="underline_00000180332011390167824680000009100605743039526075_" fill="none" stroke="url(#underline_00000142159497324231473030000018265785415597036727_)" stroke-width="4" stroke-linecap="round" stroke-miterlimit="10" d="M32.3 296.8h94.5"/></svg>