<svg id="Layer_1" xmlns="http://www.w3.org/2000/svg" viewBox="0 0 160 600"><style>.st0{fill:#fff}</style><path class="st0" d="M133.1 37.5c0-.2.1-.4.2-.5.1-.1.3-.2.5-.2s.3.1.5.2c.1.1.2.3.2.5v7.6c0 .2-.1.4-.2.5-.1.1-.3.2-.5.2s-.3-.1-.5-.2c-.1-.1-.2-.3-.2-.5v-7.6zM94.6 49.5c-.6.4-1.2.6-2 .6-.4 0-.8-.1-1-.2-.2-.1-.5-.2-.7-.3-.2-.1-.3-.3-.3-.6 0-.2.1-.4.2-.5.1-.1.3-.2.5-.2s.3 0 .4.1c.3.2.6.3 1 .3.3 0 .5 0 .7-.1.2-.1.4-.2.6-.4.2-.2.3-.4.4-.6.1-.2.2-.5.2-.7v-5.2c0-.2.1-.4.2-.5.1-.1.3-.2.5-.2s.3.1.5.2c.1.1.2.3.2.5v5.2c0 1.2-.5 2-1.4 2.6zM63.7 34.4c0-.2.1-.4.2-.5.1-.1.3-.2.5-.2s.3.1.5.2c.1.1.2.3.2.5v.5c0 .2-.1.4-.2.5-.1.1-.3.2-.5.2s-.3-.1-.5-.2c-.1-.1-.2-.3-.2-.5v-.5zm0 3.2c0-.2.1-.4.2-.5.1-.1.3-.2.5-.2s.3.1.5.2c.1.1.2.3.2.5v7.6c0 .2-.1.4-.2.5-.1.1-.3.2-.5.2s-.3-.1-.5-.2c-.1-.1-.2-.3-.2-.5v-7.6zM57.7 37.8c0-.2.1-.3.2-.5.1-.1.3-.2.5-.2s.3.1.4.1c.1.1.2.2.2.4.6-.4 1.2-.6 1.9-.6.4 0 .7.1 1 .2.2.1.5.2.7.3.2.1.3.3.3.6 0 .2-.1.4-.2.5-.1.1-.3.2-.5.2s-.3 0-.4-.1c-.3-.2-.6-.2-.9-.2-.3 0-.5 0-.7.1-.2.1-.4.2-.6.4-.2.2-.3.3-.4.6-.1.2-.1.4-.2.7v5c0 .2-.1.3-.2.5-.1.1-.3.2-.5.2s-.3-.1-.5-.2c-.1-.1-.2-.3-.2-.5v-7.5zM66 37.8c0-.1-.1-.2-.1-.3 0-.2.1-.3.2-.5.1-.1.3-.2.5-.2.1 0 .3 0 .4.1l.3.3 2.7 6.2 2.7-6.2c.1-.3.3-.4.6-.4.2 0 .4.1.5.2.1.1.2.3.2.5 0 .1 0 .2-.1.3l-3.3 7.7c-.1.3-.3.4-.6.4s-.5-.1-.6-.4L66 37.8zM74.1 40.1c0-.4.1-.9.3-1.3.2-.4.4-.7.7-1 .3-.3.6-.5 1-.7.4-.2.8-.3 1.3-.3.4 0 .9.1 1.3.3.4.2.7.4 1 .7.3.3.5.6.7 1 .2.4.3.8.3 1.3v5.1c0 .2-.1.4-.2.5-.1.1-.3.2-.5.2s-.3-.1-.4-.2c-.1-.1-.2-.2-.2-.4-.6.4-1.2.6-1.9.6-.4 0-.9-.1-1.3-.3-.4-.2-.7-.4-1-.7-.3-.3-.5-.6-.7-1-.2-.4-.3-.8-.3-1.3v-2.5zm1.4 2.6c0 .3.1.5.2.7.1.2.2.4.4.6.2.2.4.3.6.4.2.1.5.1.7.1.3 0 .5 0 .7-.1.2-.1.4-.2.6-.4.2-.2.3-.4.4-.6.1-.2.2-.5.2-.7V40c0-.3-.1-.5-.2-.7-.1-.2-.2-.4-.4-.6-.2-.2-.4-.3-.6-.4-.2-.1-.5-.1-.7-.1-.3 0-.5 0-.7.1-.2.1-.4.2-.6.4-.2.2-.3.4-.4.6-.1.2-.1.5-.1.7v2.7zM81.9 40.1c0-.5.1-.9.3-1.3.2-.4.4-.7.7-1 .3-.3.7-.5 1.1-.7.4-.2.8-.3 1.3-.3h.5c.2 0 .5.1.8.2.3.1.6.3.9.6.3.3.5.6.7 1.1 0 .1.1.2.1.3 0 .2-.1.4-.2.5-.1.1-.3.2-.5.2-.1 0-.3 0-.4-.1-.1-.1-.2-.2-.2-.3-.2-.4-.4-.6-.7-.8-.3-.2-.7-.3-1-.3-.3 0-.5 0-.7.1-.2.1-.4.2-.6.4-.2.2-.3.4-.4.6-.1.2-.1.5-.1.7v2.6c0 .3.1.5.2.7.1.2.2.4.4.6.2.2.4.3.6.4.2.1.5.1.7.1.4 0 .7-.1 1-.3.3-.2.5-.5.7-.8.1-.1.1-.2.3-.3.1-.1.2-.1.4-.1s.4.1.5.2c.1.1.2.3.2.5 0 .1 0 .2-.1.3-.2.5-.5.9-.9 1.2-.3.3-.7.5-1 .6-.3.1-.6.2-.8.2h-.4c-.4 0-.9-.1-1.3-.3-.4-.2-.7-.4-1-.7-.3-.3-.5-.6-.7-1-.2-.4-.3-.8-.3-1.3v-2.5zM106.7 37.6c0-.2.1-.4.2-.5.1-.1.3-.2.5-.2s.3.1.5.2c.1.1.2.3.2.5v5.1c0 .3 0 .5.1.7.1.2.2.4.4.6.2.2.4.3.6.4.2.1.5.1.7.1.3 0 .5 0 .7-.1.2-.1.4-.2.6-.4.2-.2.3-.4.4-.6.1-.2.2-.5.2-.7v-5.1c0-.2.1-.4.2-.5.1-.1.3-.2.5-.2s.3.1.5.2c.1.1.2.3.2.5v5.1c0 .4-.1.9-.3 1.3-.2.4-.4.7-.7 1-.3.3-.6.5-1 .7-.4.2-.8.3-1.3.3s-.9-.1-1.3-.3c-.4-.2-.7-.4-1-.7-.3-.3-.5-.6-.7-1-.2-.4-.3-.8-.3-1.3v-5.1zM114.5 40.1c0-.4.1-.9.3-1.3.2-.4.4-.7.7-1 .3-.3.6-.5 1-.7.4-.2.8-.3 1.3-.3.4 0 .9.1 1.3.3.4.2.7.4 1 .7.3.3.5.6.7 1 .2.4.3.8.3 1.3v5.1c0 .2-.1.4-.2.5-.1.1-.3.2-.5.2s-.3-.1-.4-.2c-.1-.1-.2-.2-.2-.4-.6.4-1.2.6-1.9.6-.4 0-.9-.1-1.3-.3-.4-.2-.7-.4-1-.7-.3-.3-.5-.6-.7-1-.2-.4-.3-.8-.3-1.3v-2.5zm1.4 2.6c0 .3.1.5.2.7.1.2.2.4.4.6.2.2.4.3.6.4.2.1.5.1.7.1.3 0 .5 0 .7-.1.2-.1.4-.2.6-.4.2-.2.3-.4.4-.6.1-.2.2-.5.2-.7V40c0-.3-.1-.5-.2-.7-.1-.2-.2-.4-.4-.6-.2-.2-.4-.3-.6-.4-.2-.1-.5-.1-.7-.1-.3 0-.5 0-.7.1-.2.1-.4.2-.6.4-.2.2-.3.4-.4.6-.1.2-.1.5-.1.7v2.7zM122.4 37.8c0-.2.1-.3.2-.5.1-.1.3-.2.5-.2s.3.1.4.1c.1.1.2.2.2.4.6-.4 1.2-.6 1.9-.6.4 0 .7.1 1 .2.2.1.5.2.7.3.2.1.3.3.3.6 0 .2-.1.4-.2.5-.1.1-.3.2-.5.2s-.3 0-.4-.1c-.3-.2-.6-.2-.9-.2-.3 0-.5 0-.7.1-.2.1-.4.2-.6.4-.2.2-.3.3-.4.6-.1.2-.1.4-.2.7v5c0 .2-.1.3-.2.5-.1.1-.3.2-.5.2s-.3-.1-.5-.2c-.1-.1-.2-.3-.2-.5v-7.5z"/><path class="st0" d="M133.1 34.4c0-.2.1-.4.2-.5.1-.1.3-.2.5-.2s.3.1.5.2c.1.1.2.3.2.5v8.3c0 .4-.1.9-.3 1.3-.2.4-.4.7-.7 1-.3.3-.6.5-1 .7-.4.2-.8.3-1.3.3s-.9-.1-1.3-.3c-.4-.2-.7-.4-1-.7-.3-.3-.5-.6-.7-1-.2-.4-.3-.8-.3-1.3v-2.6c0-.4.1-.9.3-1.3.2-.4.4-.7.7-1 .3-.3.6-.5 1-.7.4-.2.8-.3 1.3-.3.3 0 .7.1 1 .2.3.1.6.3.9.5v-3.1zm-3.8 8.3c0 .3 0 .5.1.7.1.2.2.4.4.6.2.2.4.3.6.4.2.1.5.1.7.1.3 0 .5 0 .7-.1.2-.1.4-.2.6-.4.2-.2.3-.4.4-.6.1-.2.2-.5.2-.7v-2.6c0-.3 0-.5-.1-.7-.1-.2-.2-.4-.4-.6-.2-.2-.4-.3-.6-.4-.2-.1-.5-.1-.7-.1-.3 0-.5 0-.7.1-.2.1-.4.2-.6.4-.2.2-.3.4-.4.6-.1.2-.2.5-.2.7v2.6zM89.4 37.6c0-.2.1-.4.2-.5.1-.1.3-.2.5-.2s.3.1.5.2c.1.1.2.3.2.5v5.1c0 .3 0 .5.1.7.1.2.2.4.4.6.2.2.4.3.6.4.2.1.5.1.7.1.3 0 .5 0 .7-.1.2-.1.4-.2.6-.4.2-.2.3-.4.4-.6.1-.2.2-.5.2-.7v-5.1c0-.2.1-.4.2-.5.1-.1.3-.2.5-.2s.3.1.5.2c.1.1.2.3.2.5v5.1c0 .4-.1.9-.3 1.3-.2.4-.4.7-.7 1-.3.3-.6.5-1 .7-.4.2-.8.3-1.3.3s-.9-.1-1.3-.3c-.4-.2-.7-.4-1-.7-.3-.3-.5-.6-.7-1-.2-.4-.3-.8-.3-1.3v-5.1zM104.8 39.8h-2.9c-.4 0-.7.3-.7.7 0 .4.3.7.7.7h2.3v1.1c0 1.5-1.3 2.6-2.7 2.6-1.6 0-2.9-1.1-2.9-2.9v-4.1c0-1.7 1.3-2.9 2.8-2.9 1.3 0 2.3.9 2.7 2 .1.2.3.4.6.4.5 0 .9-.4.6-1-.4-1.3-1.8-2.7-3.9-2.7-2.5 0-4.2 1.9-4.2 4.2V42c0 2.3 1.8 4.2 4.2 4.2 2.2 0 4.1-1.7 4.1-3.7v-2.1c0-.4-.3-.6-.7-.6z"/><path class="st0" d="M133.1 37.6c0-.2.1-.4.2-.5.1-.1.3-.2.5-.2s.3.1.5.2c.1.1.2.3.2.5v7.6c0 .2-.1.4-.2.5-.1.1-.3.2-.5.2s-.3-.1-.5-.2c-.1-.1-.2-.3-.2-.5v-7.6z"/><g><path class="st0" d="M49 34.9c0-.2.1-.3.2-.5.1-.1.3-.2.5-.2h2.7c.6 0 1.1.1 1.6.3.5.2.9.5 1.3.9s.7.8.9 1.3c.2.5.3 1 .3 1.6 0 .6-.1 1.1-.3 1.6-.2.5-.5.9-.9 1.3s-.8.7-1.3.9c-.5.2-1.1.3-1.6.3h-2v2.7c0 .2-.1.3-.2.5-.1.1-.3.2-.5.2s-.3-.1-.5-.2c-.1-.1-.2-.3-.2-.5V34.9zm1.4.6v5.6h2c.4 0 .8-.1 1.1-.2.3-.1.6-.3.9-.6.3-.3.5-.5.6-.9.1-.3.2-.7.2-1.1 0-.4-.1-.8-.2-1.1l-.6-.9c-.3-.3-.6-.5-.9-.6-.3-.1-.7-.2-1.1-.2h-2z"/></g><g><path class="st0" d="M135.4 34h-.3v-.2h.7v.2h-.3v.8h-.2V34zM136.8 34.4V34c0 .1-.1.3-.1.4l-.1.4h-.2l-.1-.4c0-.1-.1-.2-.1-.4v.8h-.2l.1-.9h.3l.1.3c0 .1.1.2.1.3 0-.1.1-.2.1-.3l.1-.3h.3l.1.9h-.2l-.2-.4z"/></g></svg>