<svg id="Layer_1" xmlns="http://www.w3.org/2000/svg" viewBox="0 0 300 600"><style>.st0{fill:#fff}</style><path class="st0" d="M69.45 322.03c0-1.03-.25-1.84-.76-2.42s-1.4-1.14-2.68-1.66-2.45-1.05-3.54-1.58-2.01-1.15-2.79-1.86-1.38-1.52-1.8-2.44-.62-2.04-.62-3.36c0-2.2.74-4.01 2.23-5.44s3.46-2.26 5.94-2.49v-4.12h3.11v4.2c2.38.35 4.25 1.33 5.62 2.94s2.04 3.65 2.04 6.12h-6.6c0-1.35-.26-2.4-.78-3.12s-1.26-1.09-2.23-1.09c-.86 0-1.53.27-2 .81s-.71 1.29-.71 2.24c0 .96.27 1.73.82 2.29s1.43 1.11 2.64 1.62 2.35 1.05 3.43 1.6 2 1.18 2.78 1.88 1.39 1.52 1.84 2.46.66 2.06.66 3.38c0 2.23-.71 4.04-2.12 5.45s-3.34 2.23-5.77 2.46v3.93h-3.11v-3.95c-2.84-.3-5.02-1.27-6.53-2.92s-2.28-3.82-2.28-6.51h6.58c0 1.48.33 2.61.99 3.39s1.59 1.16 2.8 1.16c.89 0 1.58-.26 2.09-.79s.75-1.26.75-2.18zM79.9 315.67l1.74-14.55h16.62v5.12H86.98l-.64 5.65c.47-.28 1.08-.52 1.85-.73.76-.21 1.51-.31 2.24-.31 2.83 0 5 .84 6.51 2.51s2.28 4.02 2.28 7.04c0 1.82-.41 3.47-1.22 4.95s-1.96 2.61-3.43 3.41-3.21 1.19-5.21 1.19c-1.78 0-3.46-.37-5.02-1.1-1.56-.74-2.79-1.74-3.67-3.03-.89-1.28-1.32-2.73-1.31-4.34h6.6c.07 1.04.4 1.87 1 2.48.6.61 1.39.92 2.36.92 2.21 0 3.32-1.64 3.32-4.91 0-3.03-1.35-4.54-4.06-4.54-1.54 0-2.68.49-3.44 1.48l-5.24-1.24zM118.57 300.72v5.18h-.29c-2.46 0-4.48.59-6.06 1.77s-2.56 2.82-2.92 4.91c1.48-1.46 3.36-2.19 5.62-2.19 2.46 0 4.42.9 5.88 2.7s2.19 4.15 2.19 7.07c0 1.81-.43 3.47-1.28 4.98s-2.04 2.69-3.57 3.54-3.23 1.28-5.09 1.28c-2.02 0-3.82-.46-5.41-1.38s-2.83-2.23-3.71-3.94-1.34-3.67-1.37-5.9v-2.64c0-2.93.63-5.56 1.88-7.9s3.05-4.17 5.38-5.5 4.92-1.99 7.75-1.99h1zm-5.94 14.7c-.87 0-1.6.2-2.19.61s-1.02.9-1.31 1.48v1.97c0 3.59 1.24 5.39 3.73 5.39 1 0 1.84-.45 2.51-1.35s1.01-2.02 1.01-3.38c0-1.39-.34-2.53-1.03-3.41s-1.59-1.31-2.72-1.31zM155.52 319.17c0 3.46-.72 6.13-2.15 7.99s-3.45 2.79-6.06 2.79c-2.15 0-3.88-.85-5.2-2.56l-.27 2.17h-5.9v-30h6.58v10.57c1.22-1.39 2.81-2.09 4.75-2.09 2.63 0 4.66.94 6.09 2.83s2.15 4.54 2.15 7.97v.33zm-6.6-.42c0-2.03-.27-3.47-.81-4.34s-1.37-1.3-2.49-1.3c-1.48 0-2.51.57-3.09 1.7v8.38c.56 1.12 1.6 1.68 3.12 1.68 1.55 0 2.53-.75 2.95-2.26.21-.74.32-2.02.32-3.86zM158.37 302.98c0-.94.34-1.71 1.02-2.3.68-.6 1.56-.9 2.64-.9s1.96.3 2.64.9c.68.6 1.02 1.37 1.02 2.3s-.34 1.71-1.02 2.3-1.56.9-2.64.9-1.96-.3-2.64-.9-1.02-1.36-1.02-2.3zm6.99 26.58h-6.6v-21.13h6.6v21.13zM176.36 329.56h-6.6v-30h6.6v30zM187.36 329.56h-6.6v-30h6.6v30zM191.36 302.98c0-.94.34-1.71 1.02-2.3.68-.6 1.56-.9 2.64-.9s1.96.3 2.64.9c.68.6 1.02 1.37 1.02 2.3s-.34 1.71-1.02 2.3-1.56.9-2.64.9-1.96-.3-2.64-.9-1.02-1.36-1.02-2.3zm6.99 26.58h-6.6v-21.13h6.6v21.13zM201.58 318.8c0-2.11.41-3.99 1.23-5.63s2-2.91 3.54-3.8 3.34-1.33 5.41-1.33c3.16 0 5.66.98 7.48 2.94s2.73 4.63 2.73 8v.23c0 3.29-.92 5.91-2.74 7.84s-4.31 2.9-7.43 2.9c-3.01 0-5.42-.9-7.25-2.71s-2.81-4.25-2.95-7.33l-.02-1.11zm6.58.41c0 1.95.31 3.39.92 4.3s1.52 1.37 2.71 1.37c2.34 0 3.54-1.8 3.59-5.41v-.66c0-3.79-1.21-5.68-3.63-5.68-2.2 0-3.39 1.63-3.57 4.9l-.02 1.18zM230.91 308.43l.21 2.48c1.46-1.91 3.47-2.87 6.04-2.87 2.2 0 3.84.66 4.93 1.97s1.65 3.29 1.69 5.94v13.61h-6.6v-13.34c0-1.07-.21-1.85-.64-2.35s-1.21-.75-2.34-.75c-1.29 0-2.25.51-2.87 1.52v14.92h-6.58v-21.13h6.16zM78.38 350.98c0-.94.34-1.71 1.02-2.3s1.56-.9 2.64-.9 1.96.3 2.64.9 1.02 1.37 1.02 2.3-.34 1.71-1.02 2.3-1.56.9-2.64.9-1.96-.3-2.64-.9-1.02-1.36-1.02-2.3zm6.99 26.58h-6.6v-21.13h6.6v21.13zM95.47 356.43l.21 2.48c1.46-1.91 3.47-2.87 6.04-2.87 2.2 0 3.84.66 4.93 1.97s1.65 3.29 1.69 5.94v13.61h-6.6v-13.34c0-1.07-.21-1.85-.64-2.35s-1.21-.75-2.34-.75c-1.29 0-2.25.51-2.87 1.52v14.92H89.3v-21.13h6.17zM141.68 377.56h-19.84v-4.3l9.14-9.61c2.25-2.57 3.38-4.6 3.38-6.11 0-1.22-.27-2.16-.8-2.79s-1.31-.96-2.32-.96c-1 0-1.82.43-2.44 1.28s-.94 1.92-.94 3.19h-6.6c0-1.75.44-3.36 1.31-4.83s2.08-2.63 3.63-3.47 3.28-1.25 5.2-1.25c3.07 0 5.44.71 7.1 2.13s2.49 3.46 2.49 6.11c0 1.12-.21 2.21-.62 3.27s-1.06 2.17-1.94 3.34-2.29 2.72-4.25 4.68l-3.67 4.24h11.19v5.08zM164.75 365.94c0 3.84-.86 6.8-2.59 8.89s-4.16 3.12-7.29 3.12c-3.16 0-5.61-1.05-7.34-3.14s-2.6-5.05-2.6-8.87v-5.2c0-3.84.86-6.8 2.59-8.89s4.16-3.12 7.31-3.12 5.59 1.05 7.32 3.14 2.6 5.06 2.6 8.89v5.18zm-6.58-6.03c0-2.04-.27-3.57-.8-4.58s-1.38-1.51-2.54-1.51c-1.13 0-1.96.47-2.47 1.41s-.79 2.36-.83 4.26v7.27c0 2.12.27 3.67.8 4.66s1.38 1.47 2.54 1.47c1.12 0 1.95-.48 2.48-1.44s.81-2.46.82-4.5v-7.04zM188.01 377.56h-19.84v-4.3l9.14-9.61c2.25-2.57 3.38-4.6 3.38-6.11 0-1.22-.27-2.16-.8-2.79s-1.31-.96-2.32-.96c-1 0-1.82.43-2.44 1.28s-.94 1.92-.94 3.19h-6.6c0-1.75.44-3.36 1.31-4.83s2.08-2.63 3.63-3.47 3.28-1.25 5.2-1.25c3.07 0 5.44.71 7.1 2.13s2.49 3.46 2.49 6.11c0 1.12-.21 2.21-.62 3.27s-1.06 2.17-1.94 3.34-2.29 2.72-4.25 4.68l-3.67 4.24h11.19v5.08zM211.08 365.94c0 3.84-.86 6.8-2.59 8.89s-4.16 3.12-7.29 3.12c-3.16 0-5.61-1.05-7.34-3.14s-2.6-5.05-2.6-8.87v-5.2c0-3.84.86-6.8 2.59-8.89s4.16-3.12 7.31-3.12 5.59 1.05 7.32 3.14 2.6 5.06 2.6 8.89v5.18zm-6.58-6.03c0-2.04-.27-3.57-.8-4.58s-1.38-1.51-2.54-1.51c-1.13 0-1.96.47-2.47 1.41s-.79 2.36-.83 4.26v7.27c0 2.12.27 3.67.8 4.66s1.38 1.47 2.54 1.47c1.12 0 1.95-.48 2.48-1.44s.81-2.46.82-4.5v-7.04zM216.76 353.35l-3.71-1.02.74-2.15 3.63 1.49-.29-4h2.44l-.3 4.08 3.53-1.46.74 2.17-3.76 1.02 2.49 3.02-1.97 1.34-2.08-3.35-2.09 3.23-1.97-1.29 2.6-3.08z"/></svg>