<svg id="Layer_1" xmlns="http://www.w3.org/2000/svg" viewBox="0 0 300 600"><style>.st0{fill:#fff}</style><path class="st0" d="M20.72 188.95v-21.33h6.87c1.88 0 3.58.43 5.08 1.28s2.68 2.06 3.52 3.62c.84 1.56 1.27 3.3 1.28 5.24v.98c0 1.95-.41 3.7-1.24 5.25-.83 1.55-1.99 2.76-3.49 3.63-1.5.88-3.17 1.32-5.02 1.33h-7zm5.14-17.36v13.4h1.79c1.47 0 2.61-.52 3.4-1.57s1.19-2.61 1.19-4.68v-.92c0-2.06-.4-3.61-1.19-4.66s-1.94-1.57-3.46-1.57h-1.73zM39.26 180.88c0-1.58.31-2.99.92-4.23s1.5-2.19 2.65-2.85 2.5-1 4.06-1c2.37 0 4.24.73 5.61 2.21 1.37 1.47 2.05 3.47 2.05 6v.18c0 2.47-.69 4.43-2.06 5.88-1.37 1.45-3.23 2.18-5.57 2.18-2.26 0-4.07-.68-5.43-2.03-1.37-1.35-2.1-3.19-2.21-5.5l-.02-.84zm4.94.3c0 1.46.23 2.54.69 3.22s1.14 1.03 2.04 1.03c1.76 0 2.66-1.35 2.7-4.06v-.5c0-2.84-.91-4.26-2.72-4.26-1.65 0-2.54 1.23-2.68 3.68l-.03.89zM61.26 173.1l.16 1.86c1.09-1.44 2.6-2.15 4.53-2.15 1.65 0 2.88.49 3.7 1.48.81.99 1.24 2.47 1.27 4.45v10.21h-4.95v-10c0-.8-.16-1.39-.48-1.76s-.91-.56-1.76-.56c-.97 0-1.68.38-2.15 1.14v11.19h-4.94V173.1h4.62zM75.24 168.82l-.48 6.05h-3.03v-8.42h3.52v2.37zM82.86 169.16v3.94h2.61v3.43h-2.61v7.25c0 .6.11 1.01.32 1.25s.64.35 1.27.35c.49 0 .9-.03 1.23-.09v3.53c-.89.28-1.82.42-2.78.42-1.7 0-2.95-.4-3.76-1.2s-1.22-2.02-1.22-3.65v-7.87H75.9v-3.43h2.02v-3.94h4.94zM109.59 181.15c0 2.6-.54 4.59-1.61 5.99s-2.59 2.09-4.54 2.09c-1.61 0-2.91-.64-3.9-1.92l-.21 1.63h-4.42v-22.5h4.94v7.92c.92-1.04 2.1-1.57 3.56-1.57 1.97 0 3.5.71 4.57 2.12s1.61 3.41 1.61 5.98v.26zm-4.95-.31c0-1.52-.2-2.61-.61-3.25s-1.03-.97-1.87-.97c-1.11 0-1.88.42-2.31 1.27v6.29c.42.84 1.2 1.26 2.34 1.26 1.16 0 1.9-.57 2.21-1.7.16-.56.24-1.53.24-2.9zM119.43 189.24c-2.43 0-4.4-.72-5.9-2.18-1.5-1.45-2.26-3.34-2.26-5.66v-.41c0-1.62.3-3.05.9-4.29.6-1.24 1.48-2.2 2.63-2.88s2.52-1.02 4.1-1.02c2.23 0 3.98.69 5.27 2.07 1.29 1.38 1.93 3.31 1.93 5.78v1.92h-9.81c.18.89.56 1.59 1.16 2.09s1.37.76 2.31.76c1.56 0 2.78-.55 3.66-1.64l2.26 2.67c-.62.85-1.49 1.53-2.61 2.03-1.13.51-2.34.76-3.64.76zm-.55-12.63c-1.45 0-2.3.96-2.58 2.87h4.98v-.38c.02-.79-.18-1.4-.6-1.84s-1.02-.65-1.8-.65zM150.28 181.14c0 2.46-.55 4.43-1.66 5.9-1.11 1.47-2.6 2.21-4.49 2.21-1.46 0-2.65-.53-3.59-1.6v7.4h-4.94V173.1h4.61l.15 1.46c.95-1.17 2.19-1.76 3.74-1.76 1.95 0 3.47.72 4.56 2.16 1.08 1.44 1.63 3.42 1.63 5.94v.24zm-4.93-.31c0-2.81-.82-4.22-2.46-4.22-1.17 0-1.95.42-2.34 1.26v6.24c.43.88 1.22 1.32 2.37 1.32 1.57 0 2.38-1.36 2.43-4.07v-.53zM161.39 188.95c-.18-.32-.33-.8-.47-1.42-.91 1.14-2.18 1.71-3.81 1.71-1.49 0-2.76-.45-3.81-1.36-1.04-.9-1.57-2.04-1.57-3.41 0-1.72.63-3.02 1.9-3.9s3.12-1.32 5.54-1.32h1.52v-.84c0-1.46-.63-2.19-1.89-2.19-1.17 0-1.76.58-1.76 1.74h-4.94c0-1.53.65-2.78 1.96-3.73 1.3-.96 2.97-1.43 4.99-1.43s3.62.49 4.79 1.48 1.77 2.34 1.8 4.06v7.02c.02 1.46.24 2.57.67 3.34v.25h-4.92zm-3.1-3.23c.62 0 1.12-.13 1.53-.4s.7-.56.87-.89v-2.53h-1.44c-1.72 0-2.58.77-2.58 2.31 0 .45.15.81.45 1.09.32.29.71.42 1.17.42zM177.97 177.57l-1.63-.12c-1.55 0-2.55.49-2.99 1.46v10.03h-4.94V173.1h4.63l.16 2.04c.83-1.55 1.99-2.33 3.47-2.33.53 0 .99.06 1.38.18l-.08 4.58zM186.23 169.16v3.94h2.61v3.43h-2.61v7.25c0 .6.11 1.01.32 1.25s.64.35 1.27.35c.49 0 .9-.03 1.23-.09v3.53c-.89.28-1.82.42-2.78.42-1.7 0-2.95-.4-3.76-1.2s-1.22-2.02-1.22-3.65v-7.87h-2.02v-3.43h2.02v-3.94h4.94zM197.63 180.88c0-1.58.31-2.99.92-4.23s1.5-2.19 2.65-2.85 2.5-1 4.06-1c2.37 0 4.24.73 5.61 2.21 1.37 1.47 2.05 3.47 2.05 6v.18c0 2.47-.69 4.43-2.06 5.88-1.37 1.45-3.23 2.18-5.57 2.18-2.26 0-4.07-.68-5.43-2.03-1.37-1.35-2.1-3.19-2.21-5.5l-.02-.84zm4.93.3c0 1.46.23 2.54.69 3.22s1.14 1.03 2.04 1.03c1.76 0 2.66-1.35 2.7-4.06v-.5c0-2.84-.91-4.26-2.72-4.26-1.65 0-2.54 1.23-2.68 3.68l-.03.89zM216.19 188.95v-12.42h-2.3v-3.43h2.3v-1.26c0-1.81.53-3.21 1.6-4.2s2.56-1.49 4.48-1.49c.7 0 1.47.1 2.31.31l.01 3.63c-.3-.09-.71-.13-1.22-.13-1.49 0-2.24.64-2.24 1.93v1.22h3.09v3.43h-3.09v12.42h-4.94zM239.18 169.16v3.94h2.61v3.43h-2.61v7.25c0 .6.11 1.01.32 1.25s.64.35 1.27.35c.49 0 .9-.03 1.23-.09v3.53c-.89.28-1.82.42-2.78.42-1.7 0-2.95-.4-3.76-1.2s-1.22-2.02-1.22-3.65v-7.87h-2.02v-3.43h2.02v-3.94h4.94zM248.56 174.8c1.05-1.33 2.4-1.99 4.04-1.99 1.75 0 3.07.52 3.96 1.55s1.34 2.56 1.36 4.58v10h-4.95v-9.89c0-.84-.17-1.46-.51-1.85-.34-.4-.92-.59-1.74-.59-1.02 0-1.73.32-2.15.97v11.37h-4.94v-22.5h4.94v8.35zM260.63 169.01c0-.7.25-1.28.76-1.73s1.17-.67 1.98-.67 1.47.22 1.98.67.76 1.03.76 1.73-.25 1.28-.76 1.73-1.17.67-1.98.67-1.47-.22-1.98-.67-.76-1.03-.76-1.73zm5.24 19.94h-4.95V173.1h4.95v15.85zM277.21 184.49c0-.42-.22-.76-.66-1.01s-1.27-.52-2.5-.79-2.25-.63-3.05-1.08c-.8-.44-1.41-.98-1.83-1.62s-.63-1.36-.63-2.18c0-1.46.6-2.65 1.8-3.6 1.2-.94 2.77-1.41 4.72-1.41 2.09 0 3.77.47 5.04 1.42s1.9 2.19 1.9 3.74h-4.95c0-1.27-.67-1.9-2.01-1.9-.52 0-.95.14-1.3.43-.35.29-.53.65-.53 1.08 0 .44.21.8.64 1.07s1.12.5 2.06.67c.94.18 1.77.39 2.48.63 2.38.82 3.57 2.29 3.57 4.41 0 1.45-.64 2.62-1.93 3.53-1.29.91-2.95 1.36-4.99 1.36-1.36 0-2.57-.24-3.63-.73s-1.89-1.15-2.49-1.99-.89-1.72-.89-2.65h4.61c.02.73.26 1.27.73 1.6.47.34 1.07.5 1.8.5.67 0 1.18-.14 1.52-.41.35-.27.52-.63.52-1.07zM45.7 217.15c0 2.6-.54 4.59-1.61 5.99s-2.59 2.09-4.54 2.09c-1.61 0-2.91-.64-3.9-1.92l-.21 1.63h-4.42v-22.5h4.94v7.92c.92-1.04 2.1-1.57 3.56-1.57 1.97 0 3.5.71 4.57 2.12s1.61 3.41 1.61 5.98v.26zm-4.95-.31c0-1.52-.2-2.61-.61-3.25s-1.03-.97-1.87-.97c-1.11 0-1.88.42-2.31 1.27v6.29c.42.84 1.2 1.26 2.34 1.26 1.16 0 1.9-.57 2.21-1.7.16-.56.24-1.53.24-2.9zM47.84 205.01c0-.7.25-1.28.76-1.73s1.17-.67 1.98-.67 1.47.22 1.98.67.76 1.03.76 1.73-.25 1.28-.76 1.73-1.17.67-1.98.67-1.47-.22-1.98-.67-.76-1.03-.76-1.73zm5.24 19.94h-4.95V209.1h4.95v15.85zM61.33 224.95h-4.95v-22.5h4.95v22.5zM69.58 224.95h-4.95v-22.5h4.95v22.5zM72.58 205.01c0-.7.25-1.28.76-1.73s1.17-.67 1.98-.67 1.47.22 1.98.67.76 1.03.76 1.73-.25 1.28-.76 1.73-1.17.67-1.98.67-1.47-.22-1.98-.67-.76-1.03-.76-1.73zm5.24 19.94h-4.95V209.1h4.95v15.85zM80.24 216.88c0-1.58.31-2.99.92-4.23s1.5-2.19 2.65-2.85 2.5-1 4.06-1c2.37 0 4.24.74 5.61 2.21s2.05 3.47 2.05 6v.18c0 2.47-.69 4.43-2.06 5.88-1.37 1.45-3.23 2.18-5.57 2.18-2.26 0-4.07-.68-5.43-2.03-1.37-1.35-2.1-3.19-2.21-5.5l-.02-.84zm4.94.3c0 1.46.23 2.54.69 3.22s1.14 1.03 2.04 1.03c1.76 0 2.66-1.35 2.7-4.06v-.5c0-2.84-.91-4.26-2.72-4.26-1.65 0-2.54 1.23-2.68 3.68l-.03.89zM102.24 209.1l.16 1.86c1.09-1.44 2.6-2.15 4.53-2.15 1.65 0 2.88.49 3.7 1.48.81.99 1.24 2.47 1.27 4.45v10.21h-4.95v-10c0-.8-.16-1.39-.48-1.76s-.91-.56-1.76-.56c-.97 0-1.68.38-2.15 1.14v11.19h-4.94V209.1h4.62zM121.48 216.91c0-2.51.54-4.49 1.63-5.93s2.6-2.17 4.54-2.17c1.42 0 2.61.56 3.57 1.67v-8.03h4.95v22.5h-4.44l-.25-1.7c-1.02 1.33-2.3 1.99-3.87 1.99-1.88 0-3.38-.72-4.48-2.17s-1.65-3.5-1.65-6.16zm4.93.3c0 2.81.82 4.22 2.46 4.22 1.09 0 1.88-.46 2.34-1.38v-6.04c-.45-.94-1.22-1.41-2.31-1.41-1.52 0-2.35 1.23-2.48 3.69l-.01.92zM138.35 216.88c0-1.58.31-2.99.92-4.23s1.5-2.19 2.65-2.85 2.5-1 4.06-1c2.37 0 4.24.74 5.61 2.21s2.05 3.47 2.05 6v.18c0 2.47-.69 4.43-2.06 5.88-1.37 1.45-3.23 2.18-5.57 2.18-2.26 0-4.07-.68-5.43-2.03-1.37-1.35-2.1-3.19-2.21-5.5l-.02-.84zm4.94.3c0 1.46.23 2.54.69 3.22s1.14 1.03 2.04 1.03c1.76 0 2.66-1.35 2.7-4.06v-.5c0-2.84-.91-4.26-2.72-4.26-1.65 0-2.54 1.23-2.68 3.68l-.03.89zM161.03 224.95h-4.95v-22.5h4.95v22.5zM169.27 224.95h-4.95v-22.5h4.95v22.5zM181.24 224.95c-.18-.32-.33-.8-.47-1.42-.91 1.14-2.18 1.71-3.81 1.71-1.49 0-2.76-.45-3.81-1.36-1.04-.9-1.57-2.04-1.57-3.41 0-1.72.63-3.02 1.9-3.9s3.12-1.32 5.54-1.32h1.52v-.84c0-1.46-.63-2.19-1.89-2.19-1.17 0-1.76.58-1.76 1.74h-4.94c0-1.53.65-2.78 1.96-3.73 1.3-.96 2.97-1.43 4.99-1.43s3.62.49 4.79 1.48 1.77 2.34 1.8 4.06v7.02c.02 1.46.24 2.57.67 3.34v.25h-4.92zm-3.09-3.23c.62 0 1.12-.13 1.53-.4s.7-.56.87-.89v-2.53h-1.44c-1.72 0-2.58.77-2.58 2.31 0 .45.15.81.45 1.09.32.29.7.42 1.17.42zM197.82 213.57l-1.63-.12c-1.55 0-2.55.49-2.99 1.46v10.03h-4.94V209.1h4.63l.16 2.04c.83-1.55 1.99-2.33 3.47-2.33.53 0 .99.06 1.38.18l-.08 4.58zM213.78 221.43c.69 0 1.23-.19 1.61-.56.38-.38.57-.9.56-1.57h4.63c0 1.74-.62 3.16-1.87 4.28-1.25 1.11-2.85 1.67-4.81 1.67-2.3 0-4.12-.72-5.45-2.17s-1.99-3.45-1.99-6.01v-.21c0-1.6.29-3.01.89-4.24.59-1.23 1.44-2.17 2.56-2.83 1.11-.66 2.43-.99 3.96-.99 2.06 0 3.7.57 4.91 1.71s1.82 2.69 1.82 4.64h-4.63c0-.82-.2-1.45-.6-1.89s-.94-.66-1.61-.66c-1.28 0-2.03.82-2.24 2.45-.07.52-.1 1.23-.1 2.14 0 1.59.19 2.7.57 3.31s.96.93 1.79.93zM227.87 224.95h-4.95v-22.5h4.95v22.5zM240.35 223.23c-1.04 1.34-2.46 2.01-4.23 2.01-1.74 0-3.05-.51-3.95-1.52-.89-1.01-1.34-2.46-1.34-4.36V209.1h4.94v10.3c0 1.36.66 2.04 1.98 2.04 1.13 0 1.94-.41 2.42-1.22V209.1h4.97v15.85h-4.63l-.16-1.72zM262.54 217.15c0 2.6-.54 4.59-1.61 5.99s-2.59 2.09-4.54 2.09c-1.61 0-2.91-.64-3.9-1.92l-.21 1.63h-4.42v-22.5h4.94v7.92c.92-1.04 2.1-1.57 3.56-1.57 1.97 0 3.5.71 4.57 2.12s1.61 3.41 1.61 5.98v.26zm-4.95-.31c0-1.52-.2-2.61-.61-3.25s-1.03-.97-1.87-.97c-1.11 0-1.88.42-2.31 1.27v6.29c.42.84 1.2 1.26 2.34 1.26 1.16 0 1.9-.57 2.21-1.7.16-.56.24-1.53.24-2.9zM267.77 220.16c.78 0 1.43.23 1.95.7s.78 1.06.78 1.78-.26 1.32-.78 1.78c-.52.46-1.17.7-1.95.7-.79 0-1.44-.23-1.96-.7-.51-.47-.77-1.06-.77-1.77s.26-1.3.77-1.77c.52-.49 1.17-.72 1.96-.72z"/></svg>