<svg id="Layer_1" xmlns="http://www.w3.org/2000/svg" viewBox="0 0 728 90"><style>.st0{fill:#fff}</style><path class="st0" d="M100.35 56.97c0-.57-.14-1.01-.42-1.33s-.77-.63-1.47-.91-1.35-.58-1.94-.87-1.11-.63-1.54-1.02-.76-.83-.99-1.34-.34-1.12-.34-1.85c0-1.21.41-2.21 1.22-2.99s1.91-1.24 3.27-1.37v-2.27h1.71v2.31c1.31.19 2.34.73 3.09 1.62.75.88 1.12 2.01 1.12 3.37h-3.63c0-.75-.14-1.32-.43-1.72s-.69-.6-1.22-.6c-.47 0-.84.15-1.1.45-.26.3-.39.71-.39 1.23 0 .53.15.95.45 1.26s.78.61 1.45.89c.67.28 1.29.58 1.89.88.59.3 1.1.65 1.53 1.04s.77.84 1.01 1.35.37 1.13.37 1.86c0 1.22-.39 2.22-1.17 3-.78.77-1.84 1.22-3.17 1.35v2.16h-1.71V61.3c-1.56-.17-2.76-.7-3.59-1.61-.83-.91-1.25-2.1-1.25-3.58h3.62c0 .82.18 1.44.54 1.86.36.43.88.64 1.54.64.49 0 .87-.15 1.15-.44s.4-.69.4-1.2zM115.44 55h1.59v2.79h-1.59v3.32h-3.62v-3.32h-6.05l-.21-2.21 6.26-10.08v-.03h3.62V55zm-6.43 0h2.81v-4.81l-.23.37-2.58 4.44zM121.93 51.78h1.71c1.35 0 2.03-.66 2.03-1.99 0-.52-.16-.94-.48-1.26-.32-.33-.78-.49-1.36-.49-.48 0-.9.14-1.25.42-.36.28-.53.63-.53 1.04h-3.62c0-.82.23-1.56.69-2.2s1.09-1.15 1.91-1.51c.81-.36 1.71-.54 2.68-.54 1.74 0 3.11.4 4.1 1.19 1 .79 1.49 1.89 1.49 3.28 0 .67-.21 1.31-.62 1.91-.41.6-1.01 1.08-1.8 1.46.83.3 1.48.76 1.96 1.37s.71 1.37.71 2.27c0 1.4-.54 2.51-1.61 3.35s-2.49 1.26-4.23 1.26c-1.02 0-1.97-.2-2.85-.59-.88-.39-1.54-.93-1.99-1.62-.45-.69-.68-1.48-.68-2.36h3.64c0 .48.19.9.58 1.25s.86.53 1.43.53c.64 0 1.15-.18 1.53-.53s.57-.81.57-1.36c0-.79-.2-1.35-.59-1.68s-.94-.49-1.63-.49h-1.76v-2.71zM147.69 55.4c0 1.91-.39 3.37-1.18 4.39s-1.9 1.54-3.33 1.54c-1.18 0-2.13-.47-2.86-1.41l-.15 1.19h-3.24v-16.5h3.62v5.81c.67-.77 1.54-1.15 2.61-1.15 1.45 0 2.56.52 3.35 1.56s1.18 2.5 1.18 4.38v.19zm-3.63-.23c0-1.12-.15-1.91-.45-2.39-.3-.48-.75-.71-1.37-.71-.82 0-1.38.31-1.7.93v4.61c.31.62.88.92 1.72.92.85 0 1.39-.42 1.62-1.24.12-.41.18-1.11.18-2.12zM149.26 46.49c0-.52.19-.94.56-1.27.37-.33.86-.49 1.45-.49s1.08.17 1.45.49c.37.33.56.75.56 1.27s-.19.94-.56 1.27-.86.49-1.45.49-1.08-.17-1.45-.49-.56-.75-.56-1.27zm3.84 14.62h-3.63V49.49h3.63v11.62zM159.15 61.11h-3.63v-16.5h3.63v16.5zM165.2 61.11h-3.63v-16.5h3.63v16.5zM167.4 46.49c0-.52.19-.94.56-1.27.37-.33.86-.49 1.45-.49s1.08.17 1.45.49c.37.33.56.75.56 1.27s-.19.94-.56 1.27-.86.49-1.45.49-1.08-.17-1.45-.49-.56-.75-.56-1.27zm3.85 14.62h-3.63V49.49h3.63v11.62zM173.02 55.19c0-1.16.23-2.19.68-3.1.45-.91 1.1-1.6 1.94-2.09s1.84-.73 2.98-.73c1.74 0 3.11.54 4.11 1.62 1 1.08 1.5 2.54 1.5 4.4v.13c0 1.81-.5 3.25-1.51 4.31-1.01 1.06-2.37 1.6-4.09 1.6-1.65 0-2.98-.5-3.99-1.49-1-.99-1.54-2.34-1.62-4.03v-.62zm3.62.23c0 1.07.17 1.86.5 2.36s.83.75 1.49.75c1.29 0 1.95-.99 1.98-2.98v-.37c0-2.08-.67-3.13-2-3.13-1.21 0-1.87.9-1.97 2.7v.67zM189.15 49.49l.12 1.36c.8-1.05 1.91-1.58 3.32-1.58 1.21 0 2.11.36 2.71 1.08.6.72.91 1.81.93 3.27v7.49h-3.63v-7.34c0-.59-.12-1.02-.35-1.29-.24-.28-.67-.41-1.29-.41-.71 0-1.24.28-1.58.84v8.21h-3.62V49.49h3.39zM203.26 55.19c0-1.16.23-2.19.68-3.1.45-.91 1.1-1.6 1.94-2.09s1.84-.73 2.98-.73c1.74 0 3.11.54 4.11 1.62 1 1.08 1.5 2.54 1.5 4.4v.13c0 1.81-.5 3.25-1.51 4.31-1.01 1.06-2.37 1.6-4.09 1.6-1.65 0-2.98-.5-3.99-1.49-1-.99-1.54-2.34-1.62-4.03v-.62zm3.62.23c0 1.07.17 1.86.5 2.36s.83.75 1.49.75c1.29 0 1.95-.99 1.98-2.98v-.37c0-2.08-.67-3.13-2-3.13-1.21 0-1.87.9-1.97 2.7v.67zM216.87 61.11V52h-1.69v-2.51h1.69v-.92c0-1.33.39-2.35 1.17-3.08.78-.73 1.88-1.1 3.29-1.1.52 0 1.08.08 1.7.23l.01 2.66c-.22-.06-.52-.1-.89-.1-1.1 0-1.64.47-1.64 1.42v.89h2.27V52h-2.27v9.11h-3.64zM233.73 46.6v2.89h1.91V52h-1.91v5.32c0 .44.08.74.24.91s.47.26.93.26c.36 0 .66-.02.9-.06v2.59c-.65.21-1.33.31-2.04.31-1.25 0-2.17-.29-2.76-.88s-.89-1.48-.89-2.67V52h-1.48v-2.51h1.48V46.6h3.62zM236.29 55.19c0-1.16.23-2.19.68-3.1.45-.91 1.1-1.6 1.94-2.09s1.84-.73 2.98-.73c1.74 0 3.11.54 4.11 1.62 1 1.08 1.5 2.54 1.5 4.4v.13c0 1.81-.5 3.25-1.51 4.31-1.01 1.06-2.37 1.6-4.09 1.6-1.65 0-2.98-.5-3.99-1.49-1-.99-1.54-2.34-1.62-4.03v-.62zm3.62.23c0 1.07.17 1.86.5 2.36s.83.75 1.49.75c1.29 0 1.95-.99 1.98-2.98v-.37c0-2.08-.67-3.13-2-3.13-1.21 0-1.87.9-1.97 2.7v.67zM253.32 46.6v2.89h1.91V52h-1.91v5.32c0 .44.08.74.24.91s.47.26.93.26c.36 0 .66-.02.9-.06v2.59c-.65.21-1.33.31-2.04.31-1.25 0-2.17-.29-2.76-.88s-.89-1.48-.89-2.67V52h-1.48v-2.51h1.48V46.6h3.62zM263.2 61.11c-.13-.24-.24-.58-.34-1.04-.67.84-1.6 1.26-2.79 1.26-1.1 0-2.03-.33-2.79-.99-.77-.66-1.15-1.49-1.15-2.5 0-1.26.47-2.21 1.4-2.86s2.28-.97 4.06-.97h1.12v-.61c0-1.07-.46-1.61-1.39-1.61-.86 0-1.29.42-1.29 1.27h-3.62c0-1.12.48-2.04 1.43-2.74.96-.7 2.17-1.05 3.66-1.05s2.65.36 3.51 1.08 1.3 1.71 1.32 2.98v5.15c.01 1.07.18 1.88.49 2.45v.18h-3.62zm-2.27-2.36c.45 0 .83-.1 1.12-.29.3-.19.51-.41.64-.66v-1.86h-1.05c-1.26 0-1.89.57-1.89 1.7 0 .33.11.6.33.8s.51.31.85.31zM272.15 61.11h-3.63v-16.5h3.63v16.5zM280.65 61.11V52h-1.69v-2.51h1.69v-.92c0-1.33.39-2.35 1.17-3.08.78-.73 1.88-1.1 3.29-1.1.52 0 1.08.08 1.7.23l.01 2.66c-.22-.06-.52-.1-.89-.1-1.1 0-1.64.47-1.64 1.42v.89h2.27V52h-2.27v9.11h-3.64zM294.86 52.77l-1.19-.09c-1.14 0-1.87.36-2.19 1.07v7.36h-3.62V49.49h3.39l.12 1.49c.61-1.14 1.46-1.71 2.55-1.71.39 0 .72.04 1.01.13l-.07 3.37zM302.39 61.11c-.13-.24-.24-.58-.34-1.04-.67.84-1.6 1.26-2.79 1.26-1.1 0-2.03-.33-2.79-.99-.77-.66-1.15-1.49-1.15-2.5 0-1.26.47-2.21 1.4-2.86s2.28-.97 4.06-.97h1.12v-.61c0-1.07-.46-1.61-1.39-1.61-.86 0-1.29.42-1.29 1.27h-3.62c0-1.12.48-2.04 1.43-2.74.96-.7 2.17-1.05 3.66-1.05s2.65.36 3.51 1.08 1.3 1.71 1.32 2.98v5.15c.01 1.07.18 1.88.49 2.45v.18h-3.62zm-2.27-2.36c.45 0 .83-.1 1.12-.29.3-.19.51-.41.64-.66v-1.86h-1.05c-1.26 0-1.89.57-1.89 1.7 0 .33.11.6.33.8s.51.31.85.31zM314.44 59.86c-.77.98-1.8 1.47-3.1 1.47-1.27 0-2.24-.37-2.89-1.11-.66-.74-.98-1.81-.98-3.2v-7.53h3.62v7.55c0 1 .48 1.49 1.45 1.49.83 0 1.42-.3 1.77-.89v-8.15h3.64v11.62h-3.39l-.12-1.25zM319.47 55.22c0-1.84.4-3.29 1.19-4.35s1.91-1.59 3.33-1.59c1.04 0 1.91.41 2.62 1.22v-5.89h3.63v16.5h-3.25l-.18-1.25c-.75.97-1.69 1.46-2.84 1.46-1.38 0-2.48-.53-3.29-1.59s-1.21-2.56-1.21-4.51zm3.62.22c0 2.06.6 3.09 1.8 3.09.8 0 1.38-.34 1.72-1.01V53.1c-.33-.69-.9-1.03-1.7-1.03-1.12 0-1.72.9-1.82 2.71v.66zM341.6 61.11h-3.63v-16.5h3.63v16.5zM343.37 55.19c0-1.16.23-2.19.68-3.1.45-.91 1.1-1.6 1.94-2.09s1.84-.73 2.98-.73c1.74 0 3.11.54 4.11 1.62 1 1.08 1.5 2.54 1.5 4.4v.13c0 1.81-.5 3.25-1.51 4.31-1.01 1.06-2.37 1.6-4.09 1.6-1.65 0-2.98-.5-3.99-1.49-1-.99-1.54-2.34-1.62-4.03v-.62zm3.62.23c0 1.07.17 1.86.5 2.36s.83.75 1.49.75c1.29 0 1.95-.99 1.98-2.98v-.37c0-2.08-.67-3.13-2-3.13-1.21 0-1.87.9-1.97 2.7v.67zM362.26 57.85c0-.31-.16-.55-.48-.74s-.93-.38-1.84-.58-1.65-.46-2.23-.79c-.59-.33-1.04-.72-1.34-1.19s-.46-1-.46-1.6c0-1.07.44-1.95 1.32-2.64.88-.69 2.03-1.04 3.46-1.04 1.53 0 2.76.35 3.7 1.04.93.69 1.4 1.61 1.4 2.74h-3.63c0-.93-.49-1.4-1.47-1.4-.38 0-.7.11-.96.32a.97.97 0 0 0-.39.79c0 .32.16.58.47.78s.82.37 1.51.49c.69.13 1.3.28 1.82.46 1.75.6 2.62 1.68 2.62 3.23 0 1.06-.47 1.92-1.41 2.59-.94.67-2.16 1-3.66 1-1 0-1.88-.18-2.66-.54-.78-.36-1.39-.84-1.83-1.46s-.66-1.26-.66-1.94h3.38c.01.54.19.93.54 1.18s.78.37 1.32.37c.49 0 .86-.1 1.11-.3.25-.19.37-.45.37-.77zM373.53 57.85c0-.31-.16-.55-.48-.74s-.93-.38-1.84-.58-1.65-.46-2.23-.79c-.59-.33-1.04-.72-1.34-1.19s-.46-1-.46-1.6c0-1.07.44-1.95 1.32-2.64.88-.69 2.03-1.04 3.46-1.04 1.53 0 2.76.35 3.7 1.04s1.4 1.61 1.4 2.74h-3.63c0-.93-.49-1.4-1.47-1.4-.38 0-.7.11-.96.32a.97.97 0 0 0-.39.79c0 .32.16.58.47.78s.82.37 1.51.49c.69.13 1.3.28 1.82.46 1.75.6 2.62 1.68 2.62 3.23 0 1.06-.47 1.92-1.41 2.59-.94.67-2.16 1-3.66 1-1 0-1.88-.18-2.66-.54-.78-.36-1.39-.84-1.83-1.46s-.66-1.26-.66-1.94h3.38c.01.54.19.93.54 1.18s.78.37 1.32.37c.49 0 .86-.1 1.11-.3.25-.19.37-.45.37-.77zM384.34 61.33c-1.78 0-3.23-.53-4.33-1.6s-1.65-2.45-1.65-4.15v-.3c0-1.19.22-2.24.66-3.15.44-.91 1.08-1.61 1.93-2.11.84-.5 1.85-.75 3.01-.75 1.63 0 2.92.51 3.87 1.52.95 1.01 1.42 2.43 1.42 4.24v1.41h-7.2c.13.65.41 1.16.85 1.54s1 .56 1.7.56c1.15 0 2.04-.4 2.69-1.2l1.65 1.96c-.45.62-1.09 1.12-1.92 1.49-.84.35-1.73.54-2.68.54zm-.41-9.26c-1.06 0-1.69.7-1.89 2.11h3.65v-.28c.01-.58-.13-1.03-.44-1.35-.31-.32-.75-.48-1.32-.48zM396.78 57.85c0-.31-.16-.55-.48-.74s-.93-.38-1.84-.58-1.65-.46-2.23-.79c-.59-.33-1.04-.72-1.34-1.19s-.46-1-.46-1.6c0-1.07.44-1.95 1.32-2.64.88-.69 2.03-1.04 3.46-1.04 1.53 0 2.76.35 3.7 1.04s1.4 1.61 1.4 2.74h-3.63c0-.93-.49-1.4-1.47-1.4-.38 0-.7.11-.96.32a.97.97 0 0 0-.39.79c0 .32.16.58.47.78s.82.37 1.51.49c.69.13 1.3.28 1.82.46 1.75.6 2.62 1.68 2.62 3.23 0 1.06-.47 1.92-1.41 2.59-.94.67-2.16 1-3.66 1-1 0-1.88-.18-2.66-.54-.78-.36-1.39-.84-1.83-1.46s-.66-1.26-.66-1.94h3.38c.01.54.19.93.54 1.18s.78.37 1.32.37c.49 0 .86-.1 1.11-.3.24-.19.37-.45.37-.77zM407.41 46.49c0-.52.19-.94.56-1.27.37-.33.86-.49 1.45-.49s1.08.17 1.45.49c.37.33.56.75.56 1.27s-.19.94-.56 1.27-.86.49-1.45.49-1.08-.17-1.45-.49-.56-.75-.56-1.27zm3.85 14.62h-3.63V49.49h3.63v11.62zM416.81 49.49l.12 1.36c.8-1.05 1.91-1.58 3.32-1.58 1.21 0 2.11.36 2.71 1.08.6.72.91 1.81.93 3.27v7.49h-3.63v-7.34c0-.59-.12-1.02-.35-1.29-.24-.28-.67-.41-1.29-.41-.71 0-1.24.28-1.58.84v8.21h-3.62V49.49h3.39zM442.23 61.11h-10.91v-2.36l5.03-5.29c1.24-1.41 1.86-2.53 1.86-3.36 0-.67-.15-1.19-.44-1.54s-.72-.53-1.28-.53c-.55 0-1 .23-1.34.7-.34.47-.52 1.05-.52 1.76H431a5.131 5.131 0 0 1 2.72-4.57c.85-.46 1.8-.69 2.86-.69 1.69 0 2.99.39 3.9 1.17.91.78 1.37 1.9 1.37 3.36 0 .62-.11 1.22-.34 1.8-.23.58-.58 1.2-1.07 1.84-.48.64-1.26 1.5-2.34 2.57l-2.02 2.33h6.16v2.81zM454.91 54.72c0 2.11-.47 3.74-1.42 4.89-.95 1.15-2.29 1.72-4.01 1.72-1.74 0-3.09-.58-4.04-1.73s-1.43-2.78-1.43-4.88v-2.86c0-2.11.47-3.74 1.42-4.89.95-1.15 2.29-1.72 4.02-1.72s3.08.58 4.03 1.73 1.43 2.78 1.43 4.89v2.85zm-3.62-3.32c0-1.12-.15-1.96-.44-2.52-.29-.55-.76-.83-1.4-.83-.62 0-1.08.26-1.36.77-.28.52-.43 1.3-.46 2.34v4c0 1.17.15 2.02.44 2.56.29.54.76.81 1.4.81.62 0 1.07-.26 1.36-.79s.44-1.35.45-2.48V51.4zM467.71 61.11H456.8v-2.36l5.03-5.29c1.24-1.41 1.86-2.53 1.86-3.36 0-.67-.15-1.19-.44-1.54s-.72-.53-1.28-.53c-.55 0-1 .23-1.34.7-.34.47-.52 1.05-.52 1.76h-3.63a5.131 5.131 0 0 1 2.72-4.57c.85-.46 1.8-.69 2.86-.69 1.69 0 2.99.39 3.9 1.17.91.78 1.37 1.9 1.37 3.36 0 .62-.11 1.22-.34 1.8-.23.58-.58 1.2-1.07 1.84-.48.64-1.26 1.5-2.34 2.57l-2.02 2.33h6.16v2.81zM480.39 54.72c0 2.11-.47 3.74-1.42 4.89-.95 1.15-2.29 1.72-4.01 1.72-1.74 0-3.09-.58-4.04-1.73s-1.43-2.78-1.43-4.88v-2.86c0-2.11.47-3.74 1.42-4.89.95-1.15 2.29-1.72 4.02-1.72s3.08.58 4.03 1.73 1.43 2.78 1.43 4.89v2.85zm-3.62-3.32c0-1.12-.15-1.96-.44-2.52-.29-.55-.76-.83-1.4-.83-.62 0-1.08.26-1.36.77-.28.52-.43 1.3-.46 2.34v4c0 1.17.15 2.02.44 2.56.29.54.76.81 1.4.81.62 0 1.07-.26 1.36-.79s.44-1.35.45-2.48V51.4zM484.57 57.6c.57 0 1.05.17 1.43.51.38.34.57.78.57 1.31s-.19.96-.57 1.3c-.38.34-.86.51-1.43.51-.58 0-1.06-.17-1.43-.52-.38-.34-.56-.78-.56-1.3s.19-.96.56-1.3c.38-.34.85-.51 1.43-.51z"/></svg>