<svg id="Layer_1" xmlns="http://www.w3.org/2000/svg" viewBox="0 0 728 90"><style>.st0{fill:#fff}</style><path class="st0" d="M129.34 26.54h-3.59V11.62h3.59v14.92zM131.25 20.92c0-1.76.38-3.14 1.14-4.15.76-1.01 1.82-1.52 3.18-1.52.99 0 1.83.39 2.5 1.17V10.8h3.47v15.75h-3.11l-.17-1.19c-.71.93-1.61 1.39-2.71 1.39-1.32 0-2.37-.51-3.14-1.52s-1.16-2.45-1.16-4.31zm3.46.21c0 1.97.57 2.95 1.72 2.95.77 0 1.31-.32 1.64-.96V18.9c-.31-.66-.85-.98-1.62-.98-1.07 0-1.64.86-1.73 2.58l-.01.63zM148.87 26.75c-1.7 0-3.08-.51-4.13-1.52-1.05-1.02-1.58-2.34-1.58-3.96v-.29c0-1.13.21-2.14.63-3 .42-.87 1.03-1.54 1.84-2.01s1.76-.71 2.87-.71c1.56 0 2.79.48 3.69 1.45s1.35 2.32 1.35 4.04v1.34h-6.87c.12.62.39 1.11.81 1.47.42.36.96.53 1.62.53 1.09 0 1.95-.38 2.56-1.15l1.58 1.87c-.43.59-1.04 1.07-1.83 1.42-.78.34-1.63.52-2.54.52zm-.39-8.84c-1.01 0-1.61.67-1.8 2.01h3.49v-.27c.01-.55-.13-.98-.42-1.29-.3-.3-.72-.45-1.27-.45zM158.11 15.45l.11 1.3c.76-1 1.82-1.51 3.17-1.51 1.16 0 2.02.35 2.59 1.04.57.69.87 1.73.89 3.12v7.15h-3.47v-7c0-.56-.11-.97-.34-1.24-.23-.26-.64-.39-1.23-.39-.68 0-1.18.27-1.51.8v7.83h-3.46v-11.1h3.25zM170.8 12.69v2.76h1.82v2.4h-1.82v5.08c0 .42.07.71.22.87s.45.25.89.25c.34 0 .63-.02.86-.06v2.47c-.62.2-1.27.3-1.95.3-1.19 0-2.07-.28-2.64-.84s-.85-1.41-.85-2.55v-5.51h-1.42v-2.4h1.42V12.7h3.47zM173.96 12.59c0-.49.18-.9.53-1.21s.82-.47 1.38-.47c.57 0 1.03.16 1.38.47s.53.72.53 1.21-.18.9-.53 1.21-.82.47-1.38.47c-.57 0-1.03-.16-1.38-.47s-.53-.72-.53-1.21zm3.67 13.95h-3.47V15.45h3.47v11.09zM183.78 12.69v2.76h1.82v2.4h-1.82v5.08c0 .42.07.71.22.87s.45.25.89.25c.34 0 .63-.02.86-.06v2.47c-.62.2-1.27.3-1.95.3-1.19 0-2.07-.28-2.64-.84s-.85-1.41-.85-2.55v-5.51h-1.42v-2.4h1.42V12.7h3.47zM191.4 21.71l1.85-6.25h3.7l-4.52 12.95-.2.47c-.64 1.44-1.78 2.15-3.4 2.15-.45 0-.93-.07-1.43-.2v-2.46h.45c.49 0 .86-.07 1.11-.21.26-.14.45-.39.57-.75l.28-.74-3.86-11.21h3.69l1.76 6.25zM203.84 26.54v-8.7h-1.61v-2.4h1.61v-.88c0-1.26.37-2.25 1.12-2.94s1.79-1.05 3.14-1.05c.49 0 1.03.07 1.62.22l.01 2.54c-.21-.06-.5-.09-.85-.09-1.05 0-1.57.45-1.57 1.35v.85h2.16v2.4h-2.16v8.7h-3.47zM217.39 18.58l-1.14-.08c-1.09 0-1.78.34-2.09 1.03v7.02h-3.46v-11.1h3.24l.11 1.43c.58-1.09 1.39-1.63 2.43-1.63.37 0 .69.04.96.12l-.05 3.21zM224.58 26.54c-.12-.23-.23-.56-.33-.99-.64.8-1.52 1.2-2.67 1.2-1.05 0-1.93-.32-2.67-.95s-1.1-1.43-1.1-2.38c0-1.2.44-2.11 1.33-2.73.89-.62 2.18-.92 3.88-.92h1.07v-.59c0-1.02-.44-1.54-1.32-1.54-.82 0-1.23.41-1.23 1.22h-3.46c0-1.07.46-1.94 1.37-2.61.91-.67 2.08-1 3.49-1 1.42 0 2.53.35 3.35 1.04s1.24 1.64 1.26 2.84v4.91c.01 1.02.17 1.8.47 2.34v.17h-3.44zm-2.16-2.25c.43 0 .79-.09 1.07-.28.28-.18.49-.39.61-.63v-1.77h-1c-1.2 0-1.8.54-1.8 1.62 0 .31.11.57.32.76.2.2.47.3.8.3zM236.09 25.35c-.73.94-1.72 1.4-2.96 1.4-1.22 0-2.14-.35-2.76-1.06-.62-.71-.94-1.72-.94-3.05v-7.19h3.46v7.21c0 .95.46 1.43 1.38 1.43.79 0 1.36-.28 1.69-.85v-7.78h3.48v11.09h-3.24l-.11-1.2zM240.89 20.92c0-1.76.38-3.14 1.14-4.15.76-1.01 1.82-1.52 3.18-1.52.99 0 1.83.39 2.5 1.17V10.8h3.47v15.75h-3.11l-.17-1.19c-.71.93-1.61 1.39-2.71 1.39-1.32 0-2.37-.51-3.14-1.52s-1.16-2.45-1.16-4.31zm3.45.21c0 1.97.57 2.95 1.72 2.95.77 0 1.31-.32 1.64-.96V18.9c-.31-.66-.85-.98-1.62-.98-1.07 0-1.64.86-1.73 2.58l-.01.63zM264.17 23.43c0-.29-.15-.53-.46-.71s-.89-.36-1.75-.55-1.57-.44-2.13-.75-.99-.69-1.28-1.13-.44-.95-.44-1.53c0-1.02.42-1.86 1.26-2.52.84-.66 1.94-.99 3.3-.99 1.46 0 2.64.33 3.53.99s1.33 1.53 1.33 2.61h-3.47c0-.89-.47-1.33-1.41-1.33-.36 0-.67.1-.91.3s-.37.45-.37.75c0 .31.15.56.45.75s.78.35 1.44.47c.66.12 1.24.27 1.74.44 1.67.57 2.5 1.6 2.5 3.09 0 1.01-.45 1.84-1.35 2.47-.9.64-2.06.95-3.49.95-.95 0-1.8-.17-2.54-.51s-1.33-.81-1.74-1.39-.62-1.21-.62-1.86h3.23c.01.51.18.89.51 1.12.33.24.75.35 1.26.35.47 0 .83-.1 1.06-.29.24-.18.35-.42.35-.73zM273.81 24.08c.49 0 .86-.13 1.13-.39s.4-.63.39-1.1h3.24c0 1.22-.44 2.21-1.31 2.99-.87.78-1.99 1.17-3.37 1.17-1.61 0-2.88-.51-3.81-1.52s-1.39-2.41-1.39-4.2v-.14c0-1.12.21-2.11.62-2.97.41-.86 1.01-1.52 1.79-1.98.78-.46 1.7-.69 2.77-.69 1.44 0 2.59.4 3.44 1.2s1.27 1.88 1.27 3.25h-3.24c0-.57-.14-1.02-.42-1.32-.28-.31-.66-.46-1.13-.46-.9 0-1.42.57-1.57 1.71-.05.36-.07.86-.07 1.5 0 1.11.13 1.89.4 2.32s.68.63 1.26.63zM286.28 26.54c-.12-.23-.23-.56-.33-.99-.64.8-1.52 1.2-2.67 1.2-1.05 0-1.93-.32-2.67-.95s-1.1-1.43-1.1-2.38c0-1.2.44-2.11 1.33-2.73.89-.62 2.18-.92 3.88-.92h1.07v-.59c0-1.02-.44-1.54-1.32-1.54-.82 0-1.23.41-1.23 1.22h-3.46c0-1.07.46-1.94 1.37-2.61.91-.67 2.08-1 3.49-1 1.42 0 2.53.35 3.35 1.04s1.24 1.64 1.26 2.84v4.91c.01 1.02.17 1.8.47 2.34v.17h-3.44zm-2.16-2.25c.43 0 .79-.09 1.07-.28.28-.18.49-.39.61-.63v-1.77h-1c-1.2 0-1.8.54-1.8 1.62 0 .31.11.57.32.76.2.2.47.3.8.3zM294.44 15.45l.11 1.3c.79-1 1.84-1.51 3.17-1.51 1.4 0 2.35.56 2.84 1.67.75-1.11 1.84-1.67 3.26-1.67 2.25 0 3.4 1.36 3.47 4.08v7.22h-3.47v-7c0-.57-.1-.98-.29-1.24s-.54-.39-1.05-.39c-.68 0-1.19.3-1.53.91l.01.14v7.58h-3.47v-6.98c0-.58-.09-1-.28-1.26-.18-.26-.54-.39-1.06-.39-.66 0-1.17.3-1.52.91v7.72h-3.46V15.45h3.27zM315.07 23.43c0-.29-.15-.53-.46-.71s-.89-.36-1.75-.55-1.57-.44-2.13-.75-.99-.69-1.28-1.13-.45-.96-.45-1.54c0-1.02.42-1.86 1.26-2.52.84-.66 1.94-.99 3.3-.99 1.46 0 2.64.33 3.53.99s1.33 1.53 1.33 2.61h-3.47c0-.89-.47-1.33-1.41-1.33-.36 0-.67.1-.91.3s-.37.45-.37.75c0 .31.15.56.45.75s.78.35 1.44.47c.66.12 1.24.27 1.74.44 1.67.57 2.5 1.6 2.5 3.09 0 1.01-.45 1.84-1.35 2.47-.9.64-2.06.95-3.49.95-.95 0-1.8-.17-2.54-.51s-1.33-.81-1.74-1.39-.62-1.21-.62-1.86h3.23c.01.51.18.89.51 1.12.33.24.75.35 1.26.35.47 0 .83-.1 1.06-.29.25-.17.36-.41.36-.72zM331.5 26.54c-.12-.23-.23-.56-.33-.99-.64.8-1.52 1.2-2.67 1.2-1.05 0-1.93-.32-2.67-.95s-1.1-1.43-1.1-2.38c0-1.2.44-2.11 1.33-2.73.89-.62 2.18-.92 3.88-.92h1.07v-.59c0-1.02-.44-1.54-1.32-1.54-.82 0-1.23.41-1.23 1.22H325c0-1.07.46-1.94 1.37-2.61.91-.67 2.08-1 3.49-1 1.42 0 2.53.35 3.35 1.04s1.24 1.64 1.26 2.84v4.91c.01 1.02.17 1.8.47 2.34v.17h-3.44zm-2.16-2.25c.43 0 .79-.09 1.07-.28.28-.18.49-.39.61-.63v-1.77h-1c-1.2 0-1.8.54-1.8 1.62 0 .31.11.57.32.76.2.2.47.3.8.3zM341.09 24.08c.49 0 .86-.13 1.13-.39s.4-.63.39-1.1h3.24c0 1.22-.44 2.21-1.31 2.99-.87.78-1.99 1.17-3.37 1.17-1.61 0-2.88-.51-3.81-1.52s-1.39-2.41-1.39-4.2v-.14c0-1.12.21-2.11.62-2.97.41-.86 1.01-1.52 1.79-1.98.78-.46 1.7-.69 2.77-.69 1.44 0 2.59.4 3.44 1.2s1.27 1.88 1.27 3.25h-3.24c0-.57-.14-1.02-.42-1.32-.28-.31-.66-.46-1.13-.46-.9 0-1.42.57-1.57 1.71-.05.36-.07.86-.07 1.5 0 1.11.13 1.89.4 2.32s.68.63 1.26.63zM352 24.08c.49 0 .86-.13 1.13-.39s.4-.63.39-1.1h3.24c0 1.22-.44 2.21-1.31 2.99-.87.78-1.99 1.17-3.37 1.17-1.61 0-2.88-.51-3.81-1.52s-1.39-2.41-1.39-4.2v-.14c0-1.12.21-2.11.62-2.97.41-.86 1.01-1.52 1.79-1.98.78-.46 1.7-.69 2.77-.69 1.44 0 2.59.4 3.44 1.2s1.27 1.88 1.27 3.25h-3.24c0-.57-.14-1.02-.42-1.32-.28-.31-.66-.46-1.13-.46-.9 0-1.42.57-1.57 1.71-.05.36-.07.86-.07 1.5 0 1.11.13 1.89.4 2.32s.68.63 1.26.63zM357.78 20.9c0-1.11.21-2.09.65-2.96.43-.86 1.05-1.53 1.86-1.99s1.75-.7 2.84-.7c1.66 0 2.97.51 3.93 1.54s1.44 2.43 1.44 4.2v.12c0 1.73-.48 3.1-1.44 4.12-.96 1.01-2.26 1.52-3.9 1.52-1.58 0-2.85-.47-3.8-1.42s-1.47-2.23-1.55-3.85l-.03-.58zm3.46.21c0 1.03.16 1.78.48 2.26s.8.72 1.43.72c1.23 0 1.86-.95 1.89-2.84v-.35c0-1.99-.64-2.98-1.91-2.98-1.16 0-1.78.86-1.88 2.57l-.01.62zM376.62 25.35c-.73.94-1.72 1.4-2.96 1.4-1.22 0-2.14-.35-2.76-1.06-.62-.71-.94-1.72-.94-3.05v-7.19h3.46v7.21c0 .95.46 1.43 1.38 1.43.79 0 1.36-.28 1.69-.85v-7.78h3.48v11.09h-3.24l-.11-1.2zM385.03 15.45l.11 1.3c.76-1 1.82-1.51 3.17-1.51 1.16 0 2.02.35 2.59 1.04.57.69.87 1.73.89 3.12v7.15h-3.47v-7c0-.56-.11-.97-.34-1.24-.23-.26-.64-.39-1.23-.39-.68 0-1.18.27-1.51.8v7.83h-3.46v-11.1h3.25zM397.72 12.69v2.76h1.82v2.4h-1.82v5.08c0 .42.07.71.22.87s.45.25.89.25c.34 0 .63-.02.86-.06v2.47c-.62.2-1.27.3-1.95.3-1.19 0-2.07-.28-2.64-.84s-.85-1.41-.85-2.55v-5.51h-1.42v-2.4h1.42V12.7h3.47zM406.27 26.75c-1.7 0-3.08-.51-4.13-1.52-1.05-1.02-1.58-2.34-1.58-3.96v-.29c0-1.13.21-2.14.63-3 .42-.87 1.03-1.54 1.84-2.01s1.76-.71 2.87-.71c1.56 0 2.79.48 3.69 1.45s1.35 2.32 1.35 4.04v1.34h-6.87c.12.62.39 1.11.81 1.47.42.36.96.53 1.62.53 1.09 0 1.95-.38 2.56-1.15l1.58 1.87c-.43.59-1.04 1.07-1.83 1.42-.78.34-1.63.52-2.54.52zm-.39-8.84c-1.01 0-1.61.67-1.8 2.01h3.49v-.27c.01-.55-.13-.98-.42-1.29-.3-.3-.72-.45-1.27-.45zM411.9 20.92c0-1.76.38-3.14 1.14-4.15.76-1.01 1.82-1.52 3.18-1.52.99 0 1.83.39 2.5 1.17V10.8h3.47v15.75h-3.11l-.17-1.19c-.71.93-1.61 1.39-2.71 1.39-1.32 0-2.37-.51-3.14-1.52s-1.16-2.45-1.16-4.31zm3.46.21c0 1.97.57 2.95 1.72 2.95.77 0 1.31-.32 1.64-.96V18.9c-.31-.66-.85-.98-1.62-.98-1.07 0-1.64.86-1.73 2.58l-.01.63zM430.14 26.54v-8.7h-1.61v-2.4h1.61v-.88c0-1.26.37-2.25 1.12-2.94s1.79-1.05 3.14-1.05c.49 0 1.03.07 1.62.22l.01 2.54c-.21-.06-.5-.09-.85-.09-1.05 0-1.57.45-1.57 1.35v.85h2.16v2.4h-2.16v8.7h-3.47zM436.55 20.9c0-1.11.21-2.09.65-2.96.43-.86 1.05-1.53 1.86-1.99s1.75-.7 2.84-.7c1.66 0 2.97.51 3.93 1.54s1.44 2.43 1.44 4.2v.12c0 1.73-.48 3.1-1.44 4.12-.96 1.01-2.26 1.52-3.9 1.52-1.58 0-2.85-.47-3.8-1.42s-1.47-2.23-1.55-3.85l-.03-.58zm3.46.21c0 1.03.16 1.78.48 2.26s.8.72 1.43.72c1.23 0 1.86-.95 1.89-2.84v-.35c0-1.99-.64-2.98-1.91-2.98-1.16 0-1.78.86-1.88 2.57l-.01.62zM455.49 18.58l-1.14-.08c-1.09 0-1.78.34-2.09 1.03v7.02h-3.46v-11.1h3.24l.11 1.43c.58-1.09 1.39-1.63 2.43-1.63.37 0 .69.04.96.12l-.05 3.21z"/></svg>