<svg id="Layer_1" xmlns="http://www.w3.org/2000/svg" viewBox="0 0 728 90"><style>.st0{fill:#fff}</style><path class="st0" d="M219.98 83.19h-2.79v-.39l1.48-1.64c.22-.25.37-.45.45-.61s.12-.32.12-.48c0-.22-.07-.41-.2-.55s-.31-.21-.54-.21c-.27 0-.48.08-.63.23-.15.15-.22.37-.22.64h-.54c0-.39.13-.71.38-.95s.59-.36 1.01-.36c.4 0 .71.1.94.31s.35.49.35.83c0 .42-.27.92-.8 1.5l-1.14 1.24h2.14v.44zM223.23 81.37c0 .63-.11 1.11-.33 1.42s-.56.46-1.02.46c-.46 0-.79-.15-1.01-.45s-.33-.75-.34-1.35v-.72c0-.63.11-1.09.33-1.4s.56-.46 1.02-.46c.46 0 .8.15 1.01.44s.33.75.33 1.36v.7zm-.55-.74c0-.46-.06-.79-.19-1s-.33-.31-.61-.31c-.28 0-.48.1-.61.31s-.19.53-.2.96v.87c0 .46.07.8.2 1.02.13.22.34.33.61.33.27 0 .47-.1.6-.31s.2-.53.2-.98v-.89zM226.71 83.19h-2.79v-.39l1.48-1.64c.22-.25.37-.45.45-.61s.12-.32.12-.48c0-.22-.07-.41-.2-.55s-.31-.21-.54-.21c-.27 0-.48.08-.63.23-.15.15-.22.37-.22.64h-.54c0-.39.13-.71.38-.95s.59-.36 1.01-.36c.4 0 .71.1.94.31s.35.49.35.83c0 .42-.27.92-.8 1.5l-1.14 1.24h2.14v.44zM229.07 83.19h-.54v-3.61l-1.09.4v-.49l1.55-.58h.08v4.28zM232.89 83.19h-.56v-4.27h.56v4.27zM233.7 81.58c0-.49.12-.88.35-1.17s.53-.44.91-.44c.37 0 .67.13.88.38V78.7h.54v4.5h-.5l-.03-.34c-.22.27-.52.4-.91.4-.37 0-.67-.15-.9-.45-.23-.3-.35-.69-.35-1.18v-.05zm.54.06c0 .36.07.64.22.84s.35.3.62.3c.34 0 .59-.15.75-.46v-1.46a.794.794 0 0 0-.75-.45c-.27 0-.47.1-.62.31s-.22.52-.22.92zM238.53 83.25c-.43 0-.78-.14-1.05-.42s-.4-.66-.4-1.13v-.1c0-.31.06-.6.18-.84.12-.25.29-.44.5-.58.21-.14.45-.21.7-.21.41 0 .73.14.96.41s.34.66.34 1.17v.23h-2.15c.01.31.1.56.27.76s.4.29.67.29c.19 0 .35-.04.49-.12s.25-.18.35-.31l.33.26c-.26.38-.66.59-1.19.59zm-.07-2.84c-.22 0-.4.08-.55.24s-.24.38-.28.67h1.59v-.04c-.02-.28-.09-.49-.22-.64s-.31-.23-.54-.23zM240.91 80.02l.02.4c.24-.3.56-.46.95-.46.67 0 1.01.38 1.01 1.13v2.09h-.54v-2.1c0-.23-.05-.4-.16-.51-.1-.11-.26-.16-.48-.16-.18 0-.33.05-.46.14s-.24.22-.31.37v2.26h-.54v-3.17h.51zM244.44 79.25v.77h.59v.42h-.59v1.97c0 .13.03.22.08.29s.14.1.27.1c.06 0 .15-.01.26-.04v.44c-.14.04-.28.06-.42.06-.24 0-.42-.07-.55-.22s-.18-.35-.18-.62v-1.97h-.58v-.42h.58v-.77h.54zM245.67 79.18c0-.09.03-.16.08-.22s.13-.09.24-.09.19.03.24.09.08.13.08.22-.03.16-.08.22-.13.09-.24.09-.19-.03-.24-.09c-.06-.06-.08-.13-.08-.22zm.58 4.01h-.54v-3.17h.54v3.17zM247.85 79.25v.77h.59v.42h-.59v1.97c0 .13.03.22.08.29s.14.1.27.1c.06 0 .15-.01.26-.04v.44c-.14.04-.28.06-.42.06-.24 0-.42-.07-.55-.22s-.18-.35-.18-.62v-1.97h-.58v-.42h.58v-.77h.54zM250.12 82.4l.74-2.38h.58l-1.27 3.66c-.2.53-.51.79-.94.79l-.1-.01-.2-.04v-.44l.15.01c.18 0 .33-.04.43-.11.1-.07.19-.21.25-.41l.12-.32-1.13-3.13h.59l.78 2.38zM255.84 81.31h-1.79v1.88h-.56v-4.27h2.64v.46h-2.08v1.46h1.79v.47zM258.18 80.51a2.13 2.13 0 0 0-.27-.02c-.36 0-.6.15-.72.45v2.25h-.54v-3.17h.53l.01.37a.85.85 0 0 1 .76-.42c.11 0 .19.01.24.04v.5zM260.51 83.19c-.03-.06-.06-.17-.08-.33-.25.26-.55.39-.9.39-.31 0-.57-.09-.77-.27s-.3-.4-.3-.67c0-.33.12-.59.38-.77s.6-.27 1.06-.27h.53v-.25c0-.19-.06-.34-.17-.45s-.28-.17-.5-.17c-.19 0-.36.05-.49.15s-.2.22-.2.35h-.54c0-.16.06-.31.17-.46.11-.15.26-.26.46-.35.19-.09.4-.13.63-.13.37 0 .65.09.86.27s.31.43.32.75v1.46c0 .29.04.52.11.69v.05h-.57zm-.9-.41c.17 0 .33-.04.48-.13s.26-.2.33-.34v-.65H260c-.66 0-1 .19-1 .58 0 .17.06.3.17.4s.27.14.44.14zM263.78 82.88c-.21.25-.52.37-.93.37-.34 0-.6-.1-.77-.29s-.27-.49-.27-.87v-2.06h.54v2.05c0 .48.2.72.59.72.41 0 .69-.15.83-.46v-2.31h.54v3.17h-.52l-.01-.32zM265 81.58c0-.49.12-.88.35-1.17s.53-.44.91-.44c.37 0 .67.13.88.38V78.7h.54v4.5h-.5l-.03-.34c-.22.27-.52.4-.91.4-.37 0-.67-.15-.9-.45-.23-.3-.35-.69-.35-1.18v-.05zm.54.06c0 .36.07.64.22.84s.35.3.62.3c.34 0 .59-.15.75-.46v-1.46a.794.794 0 0 0-.75-.45c-.27 0-.47.1-.62.31s-.22.52-.22.92zM271.34 81.29c-.48-.14-.83-.31-1.05-.51a.971.971 0 0 1-.33-.75c0-.34.13-.61.4-.83s.62-.33 1.05-.33c.29 0 .55.06.78.17.23.11.41.27.53.47.12.2.19.42.19.65h-.57c0-.26-.08-.46-.25-.61-.16-.15-.4-.22-.69-.22-.28 0-.49.06-.65.18a.62.62 0 0 0-.23.51c0 .17.07.32.22.44s.4.23.75.33.63.21.83.33c.2.12.35.26.45.42.1.16.14.35.14.57 0 .35-.13.62-.4.83s-.63.31-1.08.31c-.29 0-.57-.06-.82-.17s-.45-.27-.59-.46c-.14-.2-.21-.42-.21-.67h.57c0 .26.09.46.29.61.19.15.44.22.76.22.3 0 .52-.06.68-.18s.24-.29.24-.5-.07-.37-.22-.49-.41-.21-.79-.32zM274.29 79.25v.77h.59v.42h-.59v1.97c0 .13.03.22.08.29s.14.1.27.1c.06 0 .15-.01.26-.04v.44c-.14.04-.28.06-.42.06-.24 0-.42-.07-.55-.22s-.18-.35-.18-.62v-1.97h-.58v-.42h.58v-.77h.54zM277.47 82.88c-.21.25-.52.37-.93.37-.34 0-.6-.1-.77-.29s-.27-.49-.27-.87v-2.06h.54v2.05c0 .48.2.72.59.72.41 0 .69-.15.83-.46v-2.31h.54v3.17h-.52l-.01-.32zM278.69 81.58c0-.49.12-.88.35-1.17s.53-.44.91-.44c.37 0 .67.13.88.38V78.7h.54v4.5h-.5l-.03-.34c-.22.27-.52.4-.91.4-.37 0-.67-.15-.9-.45-.23-.3-.35-.69-.35-1.18v-.05zm.54.06c0 .36.07.64.22.84s.35.3.62.3c.34 0 .59-.15.75-.46v-1.46a.794.794 0 0 0-.75-.45c-.27 0-.47.1-.62.31s-.22.52-.22.92zM283.25 82.4l.74-2.38h.58l-1.27 3.66c-.2.53-.51.79-.94.79l-.1-.01-.2-.04v-.44l.15.01c.18 0 .33-.04.43-.11.1-.07.19-.21.25-.41l.12-.32-1.13-3.13h.59l.78 2.38zM285.03 84.04l-.31-.21c.18-.26.28-.52.29-.79v-.49h.53v.42c0 .2-.05.39-.14.59-.1.2-.22.36-.37.48zM289.58 78.92h.57v3.02c0 .41-.12.73-.37.96-.25.23-.57.35-.98.35-.42 0-.75-.11-.99-.33s-.35-.52-.35-.91h.56c0 .24.07.43.2.57s.33.21.58.21c.23 0 .42-.07.56-.22.14-.15.22-.35.22-.62v-3.03zM292.98 83.19c-.03-.06-.06-.17-.08-.33-.25.26-.55.39-.9.39-.31 0-.57-.09-.77-.27s-.3-.4-.3-.67c0-.33.12-.59.38-.77s.6-.27 1.06-.27h.53v-.25c0-.19-.06-.34-.17-.45s-.28-.17-.5-.17c-.19 0-.36.05-.49.15s-.2.22-.2.35H291c0-.16.06-.31.17-.46.11-.15.26-.26.46-.35.19-.09.4-.13.63-.13.37 0 .65.09.86.27s.31.43.32.75v1.46c0 .29.04.52.11.69v.05h-.57zm-.9-.41c.17 0 .33-.04.48-.13s.26-.2.33-.34v-.65h-.42c-.66 0-1 .19-1 .58 0 .17.06.3.17.4s.26.14.44.14zM295.29 82.45l.79-2.43h.55l-1.14 3.17h-.41l-1.15-3.17h.55l.81 2.43zM298.46 83.25c-.43 0-.78-.14-1.05-.42s-.4-.66-.4-1.13v-.1c0-.31.06-.6.18-.84.12-.25.29-.44.5-.58.21-.14.45-.21.7-.21.41 0 .73.14.96.41s.34.66.34 1.17v.23h-2.15c.01.31.1.56.27.76s.4.29.67.29c.19 0 .35-.04.49-.12s.25-.18.35-.31l.33.26c-.26.38-.66.59-1.19.59zm-.06-2.84c-.22 0-.4.08-.55.24s-.24.38-.28.67h1.59v-.04c-.02-.28-.09-.49-.22-.64s-.32-.23-.54-.23zM300.91 83.19h-.54v-4.5h.54v4.5zM301.78 79.18c0-.09.03-.16.08-.22s.13-.09.24-.09.19.03.24.09.08.13.08.22-.03.16-.08.22-.13.09-.24.09-.19-.03-.24-.09a.33.33 0 0 1-.08-.22zm.59 4.01h-.54v-3.17h.54v3.17zM303.75 80.02l.02.4c.24-.3.56-.46.95-.46.67 0 1.01.38 1.01 1.13v2.09h-.54v-2.1c0-.23-.05-.4-.16-.51-.1-.11-.26-.16-.48-.16-.18 0-.33.05-.46.14s-.24.22-.31.37v2.26h-.54v-3.17h.51zM309.38 81.29c-.48-.14-.83-.31-1.05-.51a.971.971 0 0 1-.33-.75c0-.34.13-.61.4-.83s.62-.33 1.05-.33c.29 0 .55.06.78.17.23.11.41.27.53.47.12.2.19.42.19.65h-.57c0-.26-.08-.46-.25-.61-.16-.15-.4-.22-.69-.22-.28 0-.49.06-.65.18a.62.62 0 0 0-.23.51c0 .17.07.32.22.44s.4.23.75.33.63.21.83.33c.2.12.35.26.45.42.1.16.14.35.14.57 0 .35-.13.62-.4.83s-.63.31-1.08.31c-.29 0-.57-.06-.82-.17s-.45-.27-.59-.46c-.14-.2-.21-.42-.21-.67h.57c0 .26.09.46.29.61.19.15.44.22.76.22.3 0 .52-.06.68-.18s.24-.29.24-.5-.07-.37-.22-.49-.41-.21-.79-.32zM312.33 79.25v.77h.59v.42h-.59v1.97c0 .13.03.22.08.29s.14.1.27.1c.06 0 .15-.01.26-.04v.44c-.14.04-.28.06-.42.06-.24 0-.42-.07-.55-.22s-.18-.35-.18-.62v-1.97h-.58v-.42h.58v-.77h.54zM315.09 80.51a2.13 2.13 0 0 0-.27-.02c-.36 0-.6.15-.72.45v2.25h-.54v-3.17h.53l.01.37a.85.85 0 0 1 .76-.42c.11 0 .19.01.24.04v.5zM317.42 83.19c-.03-.06-.06-.17-.08-.33-.25.26-.55.39-.9.39-.31 0-.57-.09-.77-.27s-.3-.4-.3-.67c0-.33.12-.59.38-.77s.6-.27 1.06-.27h.53v-.25c0-.19-.06-.34-.17-.45s-.28-.17-.5-.17c-.19 0-.36.05-.49.15s-.2.22-.2.35h-.54c0-.16.06-.31.17-.46.11-.15.26-.26.46-.35.19-.09.4-.13.63-.13.37 0 .65.09.86.27s.31.43.32.75v1.46c0 .29.04.52.11.69v.05h-.57zm-.9-.41c.17 0 .33-.04.48-.13s.26-.2.33-.34v-.65h-.42c-.66 0-1 .19-1 .58 0 .17.06.3.17.4s.27.14.44.14zM319.47 79.25v.77h.59v.42h-.59v1.97c0 .13.03.22.08.29s.14.1.27.1c.06 0 .15-.01.26-.04v.44c-.14.04-.28.06-.42.06-.24 0-.42-.07-.55-.22s-.18-.35-.18-.62v-1.97h-.58v-.42h.58v-.77h.54zM322.01 83.25c-.43 0-.78-.14-1.05-.42s-.4-.66-.4-1.13v-.1c0-.31.06-.6.18-.84.12-.25.29-.44.5-.58.21-.14.45-.21.7-.21.41 0 .73.14.96.41s.34.66.34 1.17v.23h-2.15c.01.31.1.56.27.76s.4.29.67.29c.19 0 .35-.04.49-.12s.25-.18.35-.31l.33.26c-.26.38-.66.59-1.19.59zm-.07-2.84c-.22 0-.4.08-.55.24s-.24.38-.28.67h1.59v-.04c-.02-.28-.09-.49-.22-.64s-.32-.23-.54-.23zM323.74 81.58c0-.49.11-.89.34-1.18s.53-.44.91-.44c.39 0 .69.14.91.41l.03-.35h.5v3.09c0 .41-.12.73-.37.97-.24.24-.57.35-.98.35-.23 0-.45-.05-.67-.15s-.39-.23-.5-.4l.28-.33c.23.29.52.43.85.43.26 0 .47-.07.62-.22.15-.15.22-.36.22-.63v-.27c-.22.25-.51.38-.89.38-.37 0-.67-.15-.9-.45s-.35-.7-.35-1.21zm.54.06c0 .36.07.64.22.84s.35.31.62.31c.34 0 .59-.16.75-.47v-1.45c-.17-.3-.42-.45-.75-.45-.26 0-.47.1-.62.31s-.22.51-.22.91zM328.27 82.4l.74-2.38h.58l-1.27 3.66c-.2.53-.51.79-.94.79l-.1-.01-.2-.04v-.44l.15.01c.18 0 .33-.04.43-.11.1-.07.19-.21.25-.41l.12-.32-1.13-3.13h.59l.78 2.38zM331.44 82.04c0-.21.06-.39.17-.57.12-.17.33-.37.66-.6-.19-.23-.32-.42-.38-.56s-.1-.28-.1-.42c0-.32.1-.58.29-.76s.45-.28.78-.28c.29 0 .54.08.73.26s.29.39.29.65c0 .17-.04.33-.13.48s-.24.3-.46.46l-.31.23.95 1.13c.13-.25.2-.54.2-.85h.49c0 .5-.12.91-.36 1.24l.61.73h-.65l-.28-.34c-.14.13-.31.23-.51.29-.2.07-.39.1-.59.1-.42 0-.75-.11-1-.33s-.4-.49-.4-.86zm1.38.77c.29 0 .55-.11.79-.33l-1.04-1.25-.1.07c-.33.24-.49.49-.49.74 0 .23.07.42.22.55.16.15.36.22.62.22zm-.48-2.93c0 .19.12.42.35.7l.35-.24c.13-.09.22-.18.27-.27s.07-.19.07-.31c0-.13-.05-.24-.15-.33s-.22-.13-.37-.13c-.16 0-.29.05-.38.16s-.14.26-.14.42zM338.42 81.46h-1v1.73h-.57v-4.27h1.41c.48 0 .85.11 1.11.33.26.22.39.54.39.96 0 .27-.07.5-.22.69-.14.2-.34.34-.6.44l1 1.81v.04h-.6l-.92-1.73zm-1-.46h.86c.28 0 .5-.07.67-.22.17-.14.25-.34.25-.58 0-.26-.08-.47-.24-.61s-.38-.21-.68-.21h-.86V81zM341.78 83.25c-.43 0-.78-.14-1.05-.42s-.4-.66-.4-1.13v-.1c0-.31.06-.6.18-.84.12-.25.29-.44.5-.58.21-.14.45-.21.7-.21.41 0 .73.14.96.41s.34.66.34 1.17v.23h-2.15c.01.31.1.56.27.76s.4.29.67.29c.19 0 .35-.04.49-.12s.25-.18.35-.31l.33.26c-.26.38-.66.59-1.19.59zm-.06-2.84c-.22 0-.4.08-.55.24s-.24.38-.28.67h1.59v-.04c-.02-.28-.09-.49-.22-.64s-.32-.23-.54-.23zM345.49 82.35c0-.15-.06-.26-.17-.34s-.3-.15-.58-.21c-.28-.06-.49-.13-.65-.21-.16-.08-.28-.18-.36-.29s-.12-.25-.12-.4c0-.26.11-.48.33-.66.22-.18.5-.27.84-.27.36 0 .65.09.88.28.22.19.33.42.33.71h-.54a.46.46 0 0 0-.19-.38.714.714 0 0 0-.48-.16c-.2 0-.35.04-.46.13s-.17.2-.17.34c0 .13.05.23.16.3s.29.13.56.19.49.13.66.22.29.18.37.3.12.26.12.43c0 .28-.11.51-.34.68s-.52.26-.88.26c-.25 0-.48-.04-.67-.13s-.35-.22-.46-.38-.17-.33-.17-.52h.54c.01.18.08.33.22.43.13.11.31.16.54.16.21 0 .37-.04.49-.12.14-.11.2-.22.2-.36zM348.06 83.25c-.43 0-.78-.14-1.05-.42s-.4-.66-.4-1.13v-.1c0-.31.06-.6.18-.84.12-.25.29-.44.5-.58.21-.14.45-.21.7-.21.41 0 .73.14.96.41s.34.66.34 1.17v.23h-2.15c.01.31.1.56.27.76s.4.29.67.29c.19 0 .35-.04.49-.12s.25-.18.35-.31l.33.26c-.26.38-.66.59-1.19.59zm-.07-2.84c-.22 0-.4.08-.55.24s-.24.38-.28.67h1.59v-.04c-.02-.28-.09-.49-.22-.64s-.31-.23-.54-.23zM351.88 83.19c-.03-.06-.06-.17-.08-.33-.25.26-.55.39-.9.39-.31 0-.57-.09-.77-.27s-.3-.4-.3-.67c0-.33.12-.59.38-.77s.6-.27 1.06-.27h.53v-.25c0-.19-.06-.34-.17-.45s-.28-.17-.5-.17c-.19 0-.36.05-.49.15s-.2.22-.2.35h-.54c0-.16.06-.31.17-.46.11-.15.26-.26.46-.35.19-.09.4-.13.63-.13.37 0 .65.09.86.27s.31.43.32.75v1.46c0 .29.04.52.11.69v.05h-.57zm-.9-.41c.17 0 .33-.04.48-.13s.26-.2.33-.34v-.65h-.42c-.66 0-1 .19-1 .58 0 .17.06.3.17.4s.26.14.44.14zM354.72 80.51a2.13 2.13 0 0 0-.27-.02c-.36 0-.6.15-.72.45v2.25h-.54v-3.17h.53l.01.37a.85.85 0 0 1 .76-.42c.11 0 .19.01.24.04v.5zM356.43 82.81c.19 0 .36-.06.51-.18s.22-.26.24-.44h.51c-.01.18-.07.35-.19.52s-.27.29-.46.39c-.19.1-.4.15-.61.15-.43 0-.78-.14-1.03-.43-.26-.29-.38-.68-.38-1.18v-.09c0-.31.06-.58.17-.82s.28-.43.49-.56c.21-.13.46-.2.75-.2.36 0 .65.11.89.32s.36.49.38.83h-.51c-.02-.21-.09-.37-.23-.51s-.31-.2-.52-.2c-.28 0-.49.1-.64.3-.15.2-.23.49-.23.86v.1c0 .37.08.65.23.84s.35.3.63.3zM358.84 80.4c.24-.29.55-.44.94-.44.67 0 1.01.38 1.01 1.13v2.09h-.54v-2.1c0-.23-.05-.4-.16-.51-.1-.11-.26-.16-.48-.16-.18 0-.33.05-.46.14s-.24.22-.31.37v2.26h-.54v-4.5h.54v1.72z"/></svg>