<svg id="Layer_1" xmlns="http://www.w3.org/2000/svg" viewBox="0 0 728 90"><style>.st0{fill:#fff}</style><g id="PG_x5F_Logo_x5F_Full_2_"><path class="st0" d="M599.63 51.65v1.36a1.942 1.942 0 0 1-2.91 1.68.657.657 0 0 1-.24-.9c.18-.32.59-.42.9-.24a.612.612 0 0 0 .92-.53v-1.36c0-.37.3-.66.66-.66.38-.01.67.28.67.65zm-4.45 2.65a.662.662 0 0 0-.89-.28c-.32.17-.45.57-.28.89a4.138 4.138 0 0 0 3.69 2.25c2.29 0 4.15-1.86 4.15-4.15v-1.36a.66.66 0 1 0-1.32 0v1.36c0 1.56-1.27 2.83-2.83 2.83-1.07-.01-2.03-.6-2.52-1.54zm2.32-21.92c-3.4.1-6.17 3.01-6.17 6.48V53c0 1.73.69 3.35 1.93 4.56 1.2 1.16 2.76 1.8 4.43 1.8h.19c3.4-.1 6.17-3.01 6.17-6.48V51.8c0-1.67-1.36-3.03-3.03-3.03h-2.05a.66.66 0 1 0 0 1.32h2.05c.94 0 1.71.77 1.71 1.71v1.08c0 2.76-2.19 5.08-4.89 5.16-1.37.04-2.67-.46-3.66-1.42a4.983 4.983 0 0 1-1.53-3.61V38.86c0-2.76 2.19-5.08 4.89-5.16 1.37-.04 2.67.46 3.66 1.42.99.96 1.53 2.24 1.53 3.61v8.31a.66.66 0 1 0 1.32 0v-8.31c0-1.73-.69-3.35-1.93-4.56a6.29 6.29 0 0 0-4.62-1.79zm4.34 11.34v-4.98c0-2.29-1.86-4.15-4.15-4.15s-4.15 1.86-4.15 4.15v.77a.66.66 0 1 0 1.32 0v-.77c0-1.56 1.27-2.83 2.83-2.83s2.83 1.27 2.83 2.83v4.98c0 1.56-1.27 2.83-2.83 2.83-.36 0-.7-.07-1.03-.2a.687.687 0 0 0-.62.07c-.18.12-.29.33-.29.55v4.51c0 .25-.2.44-.44.44s-.44-.2-.44-.44v-9.73a.66.66 0 1 0-1.32 0v9.73c0 .97.79 1.77 1.77 1.77s1.77-.79 1.77-1.77v-3.66c.2.03.41.05.61.05a4.15 4.15 0 0 0 4.14-4.15zm4.43-4.84V53c0 2.33-.92 4.5-2.59 6.13a8.511 8.511 0 0 1-5.98 2.44h-.21c-4.61-.11-8.37-4.02-8.37-8.72V38.73c0-2.33.92-4.5 2.59-6.13a8.53 8.53 0 0 1 6.19-2.44c4.62.11 8.37 4.02 8.37 8.72zm-1.32 10.62V38.88c0-3.99-3.17-7.3-7.08-7.4-1.97-.05-3.83.69-5.24 2.06a7.201 7.201 0 0 0-2.19 5.18v14.12c0 3.99 3.17 7.3 7.08 7.4a7.25 7.25 0 0 0 5.24-2.06 7.207 7.207 0 0 0 2.19-5.19V49.5zm-9.19-5.78v-4.98c0-1.07.87-1.94 1.94-1.94 1.07 0 1.94.87 1.94 1.94v4.98c0 1.07-.87 1.94-1.94 1.94-1.07 0-1.94-.87-1.94-1.94zm1.32 0c0 .34.28.61.61.61.34 0 .61-.28.61-.61v-4.98c0-.34-.28-.61-.61-.61-.34 0-.61.28-.61.61v4.98zM627.97 42.73c.13.13.2.29.2.47v7.36c0 .19-.06.34-.19.47-.13.13-.29.19-.47.19a.62.62 0 0 1-.46-.19.65.65 0 0 1-.2-.47V43.2c0-.19.06-.34.19-.47.13-.13.29-.19.47-.19.17-.01.32.06.46.19zm-.47-3.28c-.19 0-.34.06-.47.19-.13.13-.19.29-.19.47v.51c0 .19.07.34.2.47.13.13.29.19.46.19.19 0 .34-.06.47-.19.13-.13.19-.29.19-.47v-.51c0-.19-.07-.34-.2-.47a.62.62 0 0 0-.46-.19zm-2.34 3.36c-.23-.07-.55-.12-.95-.15-.72 0-1.35.2-1.88.6a.653.653 0 0 0-.23-.39.603.603 0 0 0-.4-.15c-.18 0-.34.06-.46.19a.62.62 0 0 0-.19.46v7.19c0 .18.07.34.2.46.13.13.28.19.45.19.18 0 .34-.06.46-.19a.62.62 0 0 0 .19-.46v-4.9c.01-.24.06-.46.15-.67.09-.21.22-.39.39-.54a2 2 0 0 1 .57-.37c.21-.09.44-.14.69-.14.32 0 .62.08.91.24.11.08.25.12.39.12.18 0 .34-.06.46-.18a.61.61 0 0 0 .19-.47c0-.24-.1-.43-.29-.56-.2-.11-.42-.21-.65-.28zm10.93-.29c-.29 0-.5.13-.61.4l-2.59 6.04-2.59-6.04a.676.676 0 0 0-.61-.41c-.2 0-.36.07-.47.21a.686.686 0 0 0-.13.72l3.19 7.45c.11.27.31.4.61.4.28 0 .48-.13.61-.4l3.19-7.45c.04-.08.05-.17.05-.26 0-.16-.06-.32-.18-.46a.59.59 0 0 0-.47-.2zm6.95 1.87c.17.39.25.79.25 1.23v4.94c0 .19-.07.34-.2.47-.13.13-.29.19-.46.19-.16 0-.31-.05-.43-.15-.12-.1-.2-.22-.22-.38-.54.4-1.16.6-1.86.6-.43 0-.84-.08-1.23-.25-.39-.16-.72-.39-1.01-.67-.29-.29-.51-.62-.68-1.01-.17-.39-.25-.79-.25-1.23v-2.52c0-.43.08-.84.25-1.23a3.127 3.127 0 0 1 1.69-1.68c.38-.16.79-.25 1.24-.25.43 0 .84.08 1.23.25.39.16.72.39 1.01.67.27.3.5.63.67 1.02zm-1.08 1.23c0-.25-.05-.48-.15-.7-.1-.22-.23-.42-.39-.59-.16-.17-.36-.3-.59-.39a1.911 1.911 0 0 0-1.43 0c-.22.09-.42.22-.59.39a1.86 1.86 0 0 0-.53 1.29v2.52c0 .25.05.48.15.7.1.22.23.42.39.59.16.17.36.3.59.39a1.911 1.911 0 0 0 1.41.01c.22-.09.41-.21.58-.37.16-.16.29-.34.39-.55.1-.21.15-.44.17-.68v-2.61zm4.03-.7c.09-.22.22-.42.39-.59.17-.17.36-.3.59-.39.22-.09.46-.14.72-.14.36 0 .69.1 1 .3.3.2.54.47.7.82.05.13.13.23.24.31.11.08.24.11.38.11.19 0 .34-.06.47-.19.13-.13.19-.29.19-.47 0-.07-.02-.15-.05-.25-.19-.47-.42-.83-.71-1.09-.29-.26-.58-.46-.87-.59-.29-.13-.56-.21-.8-.24s-.4-.04-.48-.04c-.44 0-.86.08-1.25.25-.39.16-.74.39-1.03.67a3.054 3.054 0 0 0-.95 2.24v2.52c0 .43.08.84.25 1.23.17.39.4.72.68 1.01.29.29.62.51 1.01.67.39.16.79.25 1.23.25.01 0 .13-.01.34-.02.22-.01.48-.08.79-.19.31-.12.63-.31.95-.58.33-.27.61-.66.84-1.17.04-.08.05-.16.05-.25a.62.62 0 0 0-.19-.46.65.65 0 0 0-.47-.2.67.67 0 0 0-.37.11c-.11.08-.19.18-.25.31a1.83 1.83 0 0 1-1.7 1.12c-.25 0-.48-.05-.71-.14-.23-.09-.42-.22-.59-.39-.16-.17-.3-.37-.39-.59-.1-.22-.15-.46-.15-.7v-2.52c0-.27.04-.5.14-.72zm28.34-2.39c-.19 0-.34.06-.47.19-.13.13-.19.29-.19.47v4.94c0 .25-.05.48-.15.7-.1.22-.23.42-.39.59-.16.17-.36.3-.59.39a1.911 1.911 0 0 1-1.43 0c-.22-.09-.42-.22-.59-.39a1.86 1.86 0 0 1-.53-1.29V43.2c0-.19-.07-.34-.2-.47a.635.635 0 0 0-.46-.19c-.19 0-.34.06-.47.19-.13.13-.19.29-.19.47v4.94c0 .43.08.84.25 1.23a3.127 3.127 0 0 0 1.69 1.68c.38.16.79.25 1.24.25.43 0 .84-.08 1.23-.25.39-.16.72-.39 1.01-.67.29-.29.51-.62.68-1.01.17-.39.25-.79.25-1.23V43.2c0-.19-.07-.34-.2-.47-.16-.13-.31-.2-.49-.2zm8 1.86c.17.39.25.79.25 1.23v4.94c0 .19-.07.34-.2.47-.13.13-.29.19-.46.19-.16 0-.31-.05-.43-.15-.12-.1-.2-.22-.22-.38-.54.4-1.16.6-1.86.6-.43 0-.84-.08-1.23-.25-.39-.16-.72-.39-1.01-.67-.29-.29-.51-.62-.68-1.01-.17-.39-.25-.79-.25-1.23v-2.52c0-.43.08-.84.25-1.23a3.127 3.127 0 0 1 1.69-1.68c.38-.16.79-.25 1.24-.25.43 0 .84.08 1.23.25.39.16.72.39 1.01.67.27.3.5.63.67 1.02zm-1.08 1.23c0-.25-.05-.48-.15-.7-.1-.22-.23-.42-.39-.59-.16-.17-.36-.3-.59-.39a1.911 1.911 0 0 0-1.43 0c-.22.09-.42.22-.59.39a1.86 1.86 0 0 0-.53 1.29v2.52c0 .25.05.48.15.7.1.22.23.42.39.59.16.17.36.3.59.39a1.911 1.911 0 0 0 1.41.01c.22-.09.41-.21.58-.37.16-.16.29-.34.39-.55.1-.21.15-.44.17-.68v-2.61zm6.75-2.81c-.23-.07-.55-.12-.95-.15-.72 0-1.35.2-1.88.6a.653.653 0 0 0-.23-.39.603.603 0 0 0-.4-.15c-.18 0-.34.06-.46.19a.62.62 0 0 0-.19.46v7.19c0 .18.07.34.2.46.13.13.28.19.45.19.18 0 .34-.06.46-.19a.62.62 0 0 0 .19-.46v-4.9c.01-.24.06-.46.15-.67.09-.21.22-.39.39-.54a2 2 0 0 1 .57-.37c.21-.09.44-.14.69-.14.32 0 .62.08.91.24.11.08.25.12.39.12.18 0 .34-.06.46-.18a.61.61 0 0 0 .19-.47c0-.24-.1-.43-.29-.56-.2-.11-.41-.21-.65-.28zm7.45-3.17c.13.13.2.29.2.47v10.44a.648.648 0 0 1-.67.66c-.18 0-.33-.06-.47-.19-.1-.1-.15-.22-.18-.35-.19.14-.4.27-.63.36-.39.16-.79.25-1.23.25-.44 0-.86-.08-1.24-.25-.38-.16-.72-.39-1.01-.67a3.18 3.18 0 0 1-.93-2.24V45.6c0-.43.08-.84.25-1.23.17-.39.4-.72.68-1.01.29-.29.62-.51 1.01-.67.39-.16.79-.25 1.23-.25.34 0 .66.05.97.16.31.11.6.25.87.44V40.1c0-.19.06-.34.19-.47.13-.13.29-.19.47-.19.2.01.36.07.49.2zm-1.28 9.2c.08-.19.13-.39.14-.6V45.5a1.786 1.786 0 0 0-.52-1.18c-.17-.17-.37-.3-.59-.39a1.886 1.886 0 0 0-1.43 0c-.23.09-.42.22-.59.39-.16.17-.3.37-.39.59-.1.22-.15.46-.15.7v2.52c0 .25.05.48.14.7.09.22.22.42.39.59.17.17.36.3.59.39a1.886 1.886 0 0 0 1.43 0c.23-.09.42-.22.59-.39.16-.16.29-.36.39-.58zm-36.63-6.31c-.19 0-.34.06-.47.19-.13.13-.19.29-.19.47v4.94c0 .25-.05.48-.15.7-.1.22-.23.42-.39.59-.16.17-.36.3-.59.39a1.911 1.911 0 0 1-1.43 0c-.22-.09-.42-.22-.59-.39a1.86 1.86 0 0 1-.53-1.29V43.2c0-.19-.07-.34-.2-.47a.635.635 0 0 0-.46-.19c-.19 0-.34.06-.47.19-.13.13-.19.29-.19.47v4.94c0 .43.08.84.25 1.23a3.127 3.127 0 0 0 1.69 1.68c.38.16.79.25 1.24.25a3.041 3.041 0 0 0 1.84-.6v1.66c-.01.25-.06.47-.16.68-.09.21-.22.39-.39.55-.17.16-.36.28-.58.38-.22.09-.45.14-.71.14-.33 0-.64-.08-.93-.25a.698.698 0 0 0-.4-.12c-.19 0-.34.06-.47.18-.13.12-.19.28-.19.48 0 .25.1.44.3.57.2.13.42.24.66.31.24.07.56.12.97.16.74 0 1.38-.2 1.93-.61.84-.59 1.31-1.45 1.31-2.42v-4.27-4.94c0-.19-.07-.34-.2-.47-.17-.13-.32-.2-.5-.2zm9.24 2.82h-2.77c-.37 0-.67.28-.67.65s.3.67.67.67h2.21v1.05c0 1.43-1.29 2.5-2.66 2.5-1.51 0-2.78-1.03-2.78-2.78v-3.99c0-1.63 1.23-2.78 2.74-2.78 1.27 0 2.25.85 2.63 1.9.13.22.3.35.6.35.52 0 .85-.42.59-1.02-.43-1.28-1.74-2.6-3.82-2.6-2.39 0-4.11 1.89-4.11 4.07v4.16c0 2.19 1.73 4.08 4.11 4.08 2.16 0 3.98-1.68 3.98-3.6v-2c-.01-.41-.33-.66-.72-.66zm-47.13-2.99c.22.49.33 1.02.33 1.58s-.11 1.08-.33 1.57c-.22.49-.51.91-.87 1.28-.37.37-.8.65-1.29.87-.5.21-1.03.32-1.58.32h-1.99v2.6c0 .18-.06.34-.19.46a.62.62 0 0 1-.46.19c-.17 0-.32-.06-.45-.19a.629.629 0 0 1-.2-.46V40.57c0-.18.06-.34.19-.46a.62.62 0 0 1 .46-.19h2.64c.56 0 1.08.11 1.58.32.49.21.92.5 1.29.86.36.35.66.77.87 1.26zm-.97 1.58c0-.38-.07-.73-.22-1.06a2.75 2.75 0 0 0-1.48-1.45c-.34-.14-.69-.21-1.07-.21h-1.99v5.45h1.99c.39 0 .75-.07 1.09-.21.34-.14.63-.34.88-.58.25-.25.45-.53.59-.87.14-.34.21-.69.21-1.07zm77.64-4.22h.25v.74h.21v-.74h.25v-.17h-.7v.17zm1.75-.18h-.27l-.1.3c-.03.1-.06.22-.09.33-.02-.11-.05-.22-.08-.33l-.09-.31h-.28l-.06.92h.19l.02-.35c.01-.11.01-.26.02-.38.02.12.05.25.08.36l.1.35h.16l.11-.36c.04-.11.07-.24.1-.35 0 .13 0 .27.01.38l.01.35h.2l-.03-.91z"/></g></svg>