<svg id="Layer_1" xmlns="http://www.w3.org/2000/svg" viewBox="0 0 728 90"><style>.st0{fill:#fff}</style><path class="st0" d="M88.28 63.8c0-.3-.11-.55-.31-.76-.21-.21-.56-.39-1.06-.56-.69-.21-1.2-.49-1.52-.83-.32-.34-.48-.77-.48-1.3s.16-.97.47-1.31c.31-.34.74-.54 1.28-.61v-1.07h.73v1.07c.55.08.97.3 1.28.69.3.38.46.91.46 1.58h-.9c0-.46-.11-.83-.33-1.1-.22-.27-.51-.41-.88-.41-.39 0-.68.1-.89.3s-.31.48-.31.84c0 .33.11.6.33.79.22.2.57.38 1.07.54.5.16.88.34 1.16.53.28.19.48.42.62.68.13.26.2.56.2.9 0 .55-.17.99-.5 1.33-.33.33-.79.53-1.39.6v.93h-.72v-.93c-.61-.06-1.08-.27-1.42-.65-.34-.38-.52-.89-.52-1.53h.9c0 .45.12.8.36 1.04s.57.37 1.01.37c.43 0 .76-.1 1.01-.31s.35-.47.35-.82zM93.28 65.63h-.91v-6.02l-1.82.67v-.82l2.59-.97h.14v7.14zM99.72 59.07v1.28h.99v.7h-.99v3.28c0 .21.04.37.13.48.09.11.24.16.45.16.1 0 .25-.02.43-.06v.73c-.24.06-.47.1-.69.1-.4 0-.71-.12-.91-.37s-.31-.59-.31-1.04v-3.28h-.96v-.7h.96v-1.28h.9zM104.31 61.16c-.14-.02-.29-.03-.44-.03-.59 0-.99.25-1.21.76v3.75h-.9v-5.28h.88l.01.61c.3-.47.72-.71 1.26-.71.18 0 .31.02.4.07v.83zM105.15 58.95c0-.15.04-.27.13-.37.09-.1.22-.15.4-.15s.31.05.4.15.14.22.14.37-.05.27-.14.37-.22.15-.4.15-.31-.05-.4-.15a.558.558 0 0 1-.13-.37zm.97 6.68h-.9v-5.28h.9v5.28zM110.83 65.63c-.05-.1-.09-.29-.13-.56-.42.44-.92.65-1.5.65-.52 0-.95-.15-1.28-.44-.33-.29-.5-.67-.5-1.12 0-.55.21-.98.63-1.28.42-.3 1.01-.46 1.76-.46h.88V62c0-.32-.09-.57-.28-.75-.19-.19-.47-.28-.83-.28-.32 0-.59.08-.81.24s-.33.36-.33.59h-.91c0-.26.09-.52.28-.76.19-.25.44-.44.76-.58.32-.14.67-.21 1.06-.21.61 0 1.09.15 1.43.46.34.3.52.72.54 1.26v2.43c0 .49.06.87.19 1.16v.08h-.96zm-1.5-.69c.28 0 .55-.07.81-.22s.44-.34.55-.57v-1.08h-.71c-1.11 0-1.66.32-1.66.97 0 .28.09.5.28.66s.43.24.73.24zM113.99 65.63h-.9v-7.5h.9v7.5zM118.35 65.63v-4.58h-.83v-.7h.83v-.55c0-.57.15-1 .45-1.31s.73-.46 1.28-.46c.21 0 .42.03.62.08l-.05.73a2.56 2.56 0 0 0-.49-.04c-.29 0-.52.09-.68.26-.16.17-.24.42-.24.74v.56h1.13v.7h-1.13v4.58h-.89zM121.14 62.94c0-.52.1-.98.31-1.4.2-.41.49-.73.85-.96.36-.22.78-.34 1.24-.34.72 0 1.3.25 1.75.75.44.5.67 1.16.67 1.99v.06c0 .51-.1.98-.29 1.38-.2.41-.48.73-.85.96-.37.23-.79.34-1.26.34-.72 0-1.3-.25-1.74-.75-.45-.5-.67-1.16-.67-1.98v-.05zm.91.11c0 .59.14 1.06.41 1.41.27.35.64.53 1.09.53.46 0 .82-.18 1.09-.54.27-.36.41-.86.41-1.51 0-.58-.14-1.05-.41-1.41-.27-.36-.64-.54-1.1-.54-.45 0-.81.18-1.08.53s-.41.87-.41 1.53zM129.64 61.16c-.14-.02-.29-.03-.44-.03-.59 0-.99.25-1.21.76v3.75h-.9v-5.28h.88l.01.61c.3-.47.72-.71 1.26-.71.18 0 .31.02.4.07v.83zM134.17 59.07v1.28h.99v.7h-.99v3.28c0 .21.04.37.13.48.09.11.24.16.45.16.1 0 .25-.02.43-.06v.73c-.24.06-.47.1-.69.1-.4 0-.71-.12-.91-.37s-.31-.59-.31-1.04v-3.28h-.96v-.7h.96v-1.28h.9zM137.11 60.99c.4-.49.92-.74 1.56-.74 1.12 0 1.68.63 1.69 1.89v3.49h-.9v-3.5c0-.38-.09-.66-.26-.84-.17-.18-.44-.27-.8-.27-.29 0-.55.08-.77.23s-.39.36-.52.62v3.76h-.9v-7.5h.9v2.86zM143.91 65.73c-.72 0-1.3-.24-1.75-.71-.45-.47-.67-1.1-.67-1.89v-.17c0-.52.1-.99.3-1.4.2-.41.48-.73.84-.97.36-.23.75-.35 1.17-.35.69 0 1.22.23 1.6.68s.57 1.1.57 1.94v.38h-3.58c.01.52.17.94.46 1.26.29.32.66.48 1.11.48.32 0 .59-.07.81-.2s.42-.3.58-.52l.55.43c-.44.7-1.1 1.04-1.99 1.04zm-.11-4.74c-.36 0-.67.13-.92.4-.25.26-.4.64-.46 1.12h2.65v-.07c-.03-.46-.15-.81-.37-1.07-.23-.25-.52-.38-.9-.38zM149.94 65.63v-4.58h-.83v-.7h.83v-.55c0-.57.15-1 .45-1.31s.73-.46 1.28-.46c.21 0 .42.03.62.08l-.05.73a2.56 2.56 0 0 0-.49-.04c-.29 0-.52.09-.68.26-.16.17-.24.42-.24.74v.56h1.13v.7h-1.13v4.58h-.89zM152.97 58.95c0-.15.04-.27.13-.37.09-.1.22-.15.4-.15s.31.05.4.15.14.22.14.37-.05.27-.14.37-.22.15-.4.15-.31-.05-.4-.15a.558.558 0 0 1-.13-.37zm.97 6.68h-.9v-5.28h.9v5.28zM157.94 61.16c-.14-.02-.29-.03-.44-.03-.59 0-.99.25-1.21.76v3.75h-.9v-5.28h.88l.01.61c.3-.47.72-.71 1.26-.71.18 0 .31.02.4.07v.83zM161.85 64.23c0-.24-.09-.43-.28-.57-.18-.13-.5-.25-.96-.35-.46-.1-.82-.21-1.09-.35-.27-.14-.47-.3-.6-.49s-.19-.41-.19-.67c0-.43.18-.8.55-1.1.37-.3.83-.45 1.4-.45.6 0 1.08.15 1.46.46.37.31.56.71.56 1.19h-.91c0-.25-.1-.46-.32-.64-.21-.18-.47-.27-.79-.27-.33 0-.59.07-.77.21s-.28.33-.28.56c0 .22.09.38.26.49s.48.22.94.32c.45.1.82.22 1.1.36s.49.31.62.5c.13.2.2.44.2.72 0 .47-.19.85-.57 1.13-.38.29-.87.43-1.47.43-.42 0-.8-.08-1.12-.22s-.58-.36-.76-.63a1.55 1.55 0 0 1-.28-.87h.9c.02.3.14.54.36.72.23.18.53.27.9.27.34 0 .62-.07.82-.21.22-.13.32-.31.32-.54zM165.16 59.07v1.28h.99v.7h-.99v3.28c0 .21.04.37.13.48.09.11.24.16.45.16.1 0 .25-.02.43-.06v.73c-.24.06-.47.1-.69.1-.4 0-.71-.12-.91-.37s-.31-.59-.31-1.04v-3.28h-.96v-.7h.96v-1.28h.9zM173.07 65.63h-1.65v-5.25l-1.62.47V59.6l3.12-1.08h.15v7.11zM179.56 62.85h.72v1.27h-.72v1.51h-1.65v-1.51h-2.75l-.1-1.01 2.85-4.58v-.01h1.65v4.33zm-2.93 0h1.28v-2.19l-.1.17-1.18 2.02zM183.31 62.95c0-.84.18-1.5.54-1.98s.87-.72 1.51-.72c.47 0 .87.19 1.19.56v-2.68h1.65v7.5h-1.48l-.08-.57c-.34.44-.77.66-1.29.66-.63 0-1.13-.24-1.49-.72s-.55-1.16-.55-2.05zm1.65.1c0 .94.27 1.41.82 1.41.36 0 .62-.15.78-.46v-2.01c-.15-.31-.41-.47-.77-.47-.51 0-.78.41-.83 1.23v.3zM192.12 65.63a2.11 2.11 0 0 1-.16-.47c-.3.38-.73.57-1.27.57-.5 0-.92-.15-1.27-.45-.35-.3-.52-.68-.52-1.14 0-.57.21-1.01.63-1.3s1.04-.44 1.85-.44h.51v-.28c0-.49-.21-.73-.63-.73-.39 0-.59.19-.59.58h-1.65c0-.51.22-.92.65-1.24.44-.32.99-.48 1.66-.48s1.21.16 1.6.49.59.78.6 1.35v2.34c.01.49.08.86.22 1.11v.08h-1.63zm-1.03-1.07c.21 0 .38-.04.51-.13s.23-.19.29-.3v-.84h-.48c-.57 0-.86.26-.86.77 0 .15.05.27.15.36.11.09.24.14.39.14zM196.57 63.33l.88-2.98h1.76l-2.15 6.17-.09.22c-.31.68-.85 1.03-1.62 1.03-.21 0-.44-.03-.68-.1V66.5h.21c.23 0 .41-.03.53-.1.12-.07.21-.19.27-.36l.13-.35-1.84-5.34h1.76l.84 2.98zM202.4 64.15c0-.14-.07-.25-.22-.34s-.42-.17-.83-.26-.75-.21-1.02-.36-.47-.33-.61-.54-.21-.45-.21-.73c0-.49.2-.88.6-1.2.4-.31.92-.47 1.57-.47.7 0 1.26.16 1.68.47s.63.73.63 1.25h-1.65c0-.42-.22-.63-.67-.63-.17 0-.32.05-.43.14a.44.44 0 0 0-.18.36c0 .15.07.27.21.36s.37.17.69.22c.31.06.59.13.83.21.79.27 1.19.76 1.19 1.47 0 .48-.21.87-.64 1.18-.43.3-.98.45-1.66.45-.45 0-.86-.08-1.21-.24s-.63-.38-.83-.66-.3-.57-.3-.88h1.54c.01.24.09.42.24.53.16.11.36.17.6.17.22 0 .39-.05.5-.14.13-.1.18-.22.18-.36zM205.01 67.05l-.51-.35c.31-.43.47-.87.48-1.32v-.82h.88v.71c0 .33-.08.66-.24.99-.16.32-.37.59-.61.79zm-.17-6.21c0-.16.05-.29.14-.39.09-.1.23-.16.42-.16s.33.05.42.16c.1.1.14.23.14.39 0 .15-.05.28-.14.38-.1.1-.24.15-.42.15s-.33-.05-.42-.15c-.1-.1-.14-.23-.14-.38zM210.65 62.85v2.78h-.94v-7.11h2.62c.78 0 1.39.2 1.83.6.44.4.66.92.66 1.58 0 .69-.22 1.22-.65 1.59-.43.37-1.05.56-1.85.56h-1.67zm0-.77h1.68c.5 0 .89-.12 1.15-.35s.4-.58.4-1.03c0-.42-.13-.76-.4-1.02-.27-.25-.63-.39-1.1-.4h-1.74v2.8zM216.86 65.63h-.9v-7.5h.9v7.5zM221.57 65.63c-.05-.1-.09-.29-.13-.56-.42.44-.92.65-1.5.65-.52 0-.95-.15-1.28-.44-.33-.29-.5-.67-.5-1.12 0-.55.21-.98.63-1.28.42-.3 1.01-.46 1.76-.46h.88V62c0-.32-.09-.57-.28-.75-.19-.19-.47-.28-.83-.28-.32 0-.59.08-.81.24s-.33.36-.33.59h-.91c0-.26.09-.52.28-.76.19-.25.44-.44.76-.58.32-.14.67-.21 1.06-.21.61 0 1.09.15 1.43.46.34.3.52.72.54 1.26v2.43c0 .49.06.87.19 1.16v.08h-.96zm-1.5-.69c.28 0 .55-.07.81-.22s.44-.34.55-.57v-1.08h-.71c-1.11 0-1.66.32-1.66.97 0 .28.09.5.28.66s.43.24.73.24zM224.6 60.35l.03.66c.4-.51.93-.76 1.58-.76 1.12 0 1.68.63 1.69 1.89v3.49h-.9v-3.5c0-.38-.09-.66-.26-.84-.17-.18-.44-.27-.8-.27-.29 0-.55.08-.77.23s-.39.36-.52.62v3.76h-.9v-5.28h.85zM232.34 64.23c0-.24-.09-.43-.28-.57-.18-.13-.5-.25-.96-.35-.46-.1-.82-.21-1.09-.35-.27-.14-.47-.3-.6-.49s-.19-.41-.19-.67c0-.43.18-.8.55-1.1.37-.3.83-.45 1.4-.45.6 0 1.08.15 1.46.46.37.31.56.71.56 1.19h-.91c0-.25-.1-.46-.32-.64-.21-.18-.47-.27-.79-.27-.33 0-.59.07-.77.21s-.28.33-.28.56c0 .22.09.38.26.49s.48.22.94.32c.45.1.82.22 1.1.36s.49.31.62.5c.13.2.2.44.2.72 0 .47-.19.85-.57 1.13-.38.29-.87.43-1.47.43-.42 0-.8-.08-1.12-.22s-.58-.36-.76-.63a1.55 1.55 0 0 1-.28-.87h.9c.02.3.14.54.36.72.23.18.53.27.9.27.34 0 .62-.07.82-.21.21-.13.32-.31.32-.54zM240.16 65.63c-.05-.1-.09-.29-.13-.56-.42.44-.92.65-1.5.65-.52 0-.95-.15-1.28-.44-.33-.29-.5-.67-.5-1.12 0-.55.21-.98.63-1.28.42-.3 1.01-.46 1.76-.46h.88V62c0-.32-.09-.57-.28-.75-.19-.19-.47-.28-.83-.28-.32 0-.59.08-.81.24s-.33.36-.33.59h-.91c0-.26.09-.52.28-.76.19-.25.44-.44.76-.58.32-.14.67-.21 1.06-.21.61 0 1.09.15 1.43.46.34.3.52.72.54 1.26v2.43c0 .49.06.87.19 1.16v.08h-.96zm-1.5-.69c.28 0 .55-.07.81-.22s.44-.34.55-.57v-1.08h-.71c-1.11 0-1.66.32-1.66.97 0 .28.09.5.28.66s.43.24.73.24zM244.89 61.16c-.14-.02-.29-.03-.44-.03-.59 0-.99.25-1.21.76v3.75h-.9v-5.28h.88l.01.61c.3-.47.72-.71 1.26-.71.18 0 .31.02.4.07v.83zM247.91 65.73c-.72 0-1.3-.24-1.75-.71-.45-.47-.67-1.1-.67-1.89v-.17c0-.52.1-.99.3-1.4.2-.41.48-.73.84-.97.36-.23.75-.35 1.17-.35.69 0 1.22.23 1.6.68s.57 1.1.57 1.94v.38h-3.58c.01.52.17.94.46 1.26.29.32.66.48 1.11.48.32 0 .59-.07.81-.2s.42-.3.58-.52l.55.43c-.44.7-1.11 1.04-1.99 1.04zm-.11-4.74c-.36 0-.67.13-.92.4-.25.26-.4.64-.46 1.12h2.65v-.07c-.03-.46-.15-.81-.37-1.07a1.17 1.17 0 0 0-.9-.38zM256.52 63.75c0-.26-.06-.46-.19-.61s-.35-.29-.67-.42-.61-.26-.88-.4-.5-.29-.7-.46-.34-.38-.45-.61-.16-.51-.16-.84c0-.55.19-1 .56-1.36.37-.36.87-.56 1.48-.62V57.4h.78v1.05c.6.09 1.06.33 1.4.73.34.4.51.91.51 1.53h-1.65c0-.34-.07-.6-.2-.78s-.32-.27-.56-.27c-.21 0-.38.07-.5.2s-.18.32-.18.56c0 .24.07.43.21.57.14.14.36.28.66.4.3.13.59.26.86.4s.5.3.7.47.35.38.46.62.17.52.17.84c0 .56-.18 1.01-.53 1.36-.35.35-.83.56-1.44.62v.98h-.78v-.99c-.71-.08-1.25-.32-1.63-.73-.38-.41-.57-.95-.57-1.63h1.65c0 .37.08.65.25.85.17.19.4.29.7.29.22 0 .4-.07.52-.2.11-.11.18-.29.18-.52zM262.27 62.88c-.35.32-.75.48-1.19.48-.64 0-1.16-.22-1.53-.65s-.57-1.02-.57-1.75c0-.46.11-.88.32-1.27a2.41 2.41 0 0 1 2.16-1.27c.47 0 .89.12 1.27.35.38.24.67.57.89 1 .21.43.32.93.33 1.49v.63c0 .78-.15 1.46-.46 2.04-.31.58-.75 1.02-1.32 1.33s-1.23.46-1.99.46h-.1V64.4h.31c1.13-.05 1.76-.56 1.88-1.52zm-.74-.71c.36 0 .62-.15.77-.46v-.68c0-.46-.08-.79-.23-1.01s-.36-.33-.62-.33c-.23 0-.42.12-.58.37s-.23.55-.23.9c0 .37.08.67.24.89.15.21.37.32.65.32zM265.87 64.03c.26 0 .48.08.65.23.17.16.26.35.26.59s-.09.44-.26.59c-.17.15-.39.23-.65.23s-.48-.08-.65-.23c-.17-.16-.26-.35-.26-.59s.08-.43.26-.59c.17-.15.38-.23.65-.23zM271.09 62.88c-.35.32-.75.48-1.19.48-.64 0-1.16-.22-1.53-.65s-.57-1.02-.57-1.75c0-.46.11-.88.32-1.27a2.41 2.41 0 0 1 2.16-1.27c.47 0 .89.12 1.27.35.38.24.67.57.89 1 .21.43.32.93.33 1.49v.63c0 .78-.15 1.46-.46 2.04-.31.58-.75 1.02-1.32 1.33s-1.23.46-1.99.46h-.1V64.4h.31c1.12-.05 1.75-.56 1.88-1.52zm-.75-.71c.36 0 .62-.15.77-.46v-.68c0-.46-.08-.79-.23-1.01s-.36-.33-.62-.33c-.23 0-.42.12-.58.37s-.23.55-.23.9c0 .37.08.67.24.89.16.21.37.32.65.32zM276.88 62.88c-.35.32-.75.48-1.19.48-.64 0-1.16-.22-1.53-.65s-.57-1.02-.57-1.75c0-.46.11-.88.32-1.27a2.41 2.41 0 0 1 2.16-1.27c.47 0 .89.12 1.27.35.38.24.67.57.89 1 .21.43.32.93.33 1.49v.63c0 .78-.15 1.46-.46 2.04-.31.58-.75 1.02-1.32 1.33s-1.23.46-1.99.46h-.1V64.4h.31c1.12-.05 1.75-.56 1.88-1.52zm-.75-.71c.36 0 .62-.15.77-.46v-.68c0-.46-.08-.79-.23-1.01s-.36-.33-.62-.33c-.23 0-.42.12-.58.37s-.23.55-.23.9c0 .37.08.67.24.89.16.21.38.32.65.32zM283.39 59.07v1.28h.99v.7h-.99v3.28c0 .21.04.37.13.48.09.11.24.16.45.16.1 0 .25-.02.43-.06v.73c-.24.06-.47.1-.69.1-.4 0-.71-.12-.91-.37s-.31-.59-.31-1.04v-3.28h-.96v-.7h.96v-1.28h.9zM285.1 62.94c0-.52.1-.98.31-1.4.2-.41.49-.73.85-.96.36-.22.78-.34 1.24-.34.72 0 1.3.25 1.75.75.44.5.67 1.16.67 1.99v.06c0 .51-.1.98-.29 1.38-.2.41-.48.73-.85.96-.37.23-.79.34-1.26.34-.72 0-1.3-.25-1.74-.75-.45-.5-.67-1.16-.67-1.98v-.05zm.9.11c0 .59.14 1.06.41 1.41.27.35.64.53 1.09.53.46 0 .82-.18 1.09-.54.27-.36.41-.86.41-1.51 0-.58-.14-1.05-.41-1.41-.27-.36-.64-.54-1.1-.54-.45 0-.81.18-1.08.53s-.41.87-.41 1.53zM296.56 63.75c0-.26-.06-.46-.19-.61s-.35-.29-.67-.42-.61-.26-.88-.4-.5-.29-.7-.46-.34-.38-.45-.61-.16-.51-.16-.84c0-.55.19-1 .56-1.36.37-.36.87-.56 1.48-.62V57.4h.78v1.05c.6.09 1.06.33 1.4.73.34.4.51.91.51 1.53h-1.65c0-.34-.07-.6-.2-.78s-.32-.27-.56-.27c-.21 0-.38.07-.5.2s-.18.32-.18.56c0 .24.07.43.21.57.14.14.36.28.66.4.3.13.59.26.86.4s.5.3.7.47.35.38.46.62.17.52.17.84c0 .56-.18 1.01-.53 1.36-.35.35-.83.56-1.44.62v.98h-.78v-.99c-.71-.08-1.25-.32-1.63-.73-.38-.41-.57-.95-.57-1.63h1.65c0 .37.08.65.25.85.17.19.4.29.7.29.22 0 .4-.07.52-.2.11-.11.18-.29.18-.52zM304.03 65.63h-4.96v-1.07l2.29-2.4c.56-.64.84-1.15.84-1.53 0-.31-.07-.54-.2-.7s-.33-.24-.58-.24c-.25 0-.45.11-.61.32-.16.21-.23.48-.23.8h-1.65c0-.44.11-.84.33-1.21.22-.37.52-.66.91-.87s.82-.31 1.3-.31c.77 0 1.36.18 1.78.53.41.35.62.86.62 1.53 0 .28-.05.55-.16.82-.1.27-.27.54-.49.84-.22.29-.57.68-1.06 1.17l-.92 1.06h2.8v1.26zM309.21 62.85h.72v1.27h-.72v1.51h-1.65v-1.51h-2.75l-.1-1.01 2.85-4.58v-.01h1.65v4.33zm-2.93 0h1.28v-2.19l-.1.17-1.18 2.02zM311.7 64.03c.26 0 .48.08.65.23.17.16.26.35.26.59s-.09.44-.26.59c-.17.15-.39.23-.65.23s-.48-.08-.65-.23c-.17-.16-.26-.35-.26-.59s.08-.43.26-.59c.17-.15.38-.23.65-.23zM316.92 62.88c-.35.32-.75.48-1.19.48-.64 0-1.16-.22-1.53-.65s-.57-1.02-.57-1.75c0-.46.11-.88.32-1.27a2.41 2.41 0 0 1 2.16-1.27c.47 0 .89.12 1.27.35.38.24.67.57.89 1 .21.43.32.93.33 1.49v.63c0 .78-.15 1.46-.46 2.04-.31.58-.75 1.02-1.32 1.33s-1.23.46-1.99.46h-.1V64.4h.31c1.12-.05 1.75-.56 1.88-1.52zm-.75-.71c.36 0 .62-.15.77-.46v-.68c0-.46-.08-.79-.23-1.01s-.36-.33-.62-.33c-.23 0-.42.12-.58.37s-.23.55-.23.9c0 .37.08.67.24.89.16.21.37.32.65.32zM322.71 62.88c-.35.32-.75.48-1.19.48-.64 0-1.16-.22-1.53-.65s-.57-1.02-.57-1.75c0-.46.11-.88.32-1.27a2.41 2.41 0 0 1 2.16-1.27c.47 0 .89.12 1.27.35.38.24.67.57.89 1 .21.43.32.93.33 1.49v.63c0 .78-.15 1.46-.46 2.04-.31.58-.75 1.02-1.32 1.33s-1.23.46-1.99.46h-.1V64.4h.31c1.12-.05 1.75-.56 1.88-1.52zm-.75-.71c.36 0 .62-.15.77-.46v-.68c0-.46-.08-.79-.23-1.01s-.36-.33-.62-.33c-.23 0-.42.12-.58.37s-.23.55-.23.9c0 .37.08.67.24.89.16.21.38.32.65.32zM325.85 66.24h-1.17l2.43-7.72h1.17l-2.43 7.72zM330.35 60.35l.05.62c.37-.48.88-.72 1.51-.72.67 0 1.12.27 1.35.8.36-.53.88-.8 1.55-.8 1.07 0 1.62.65 1.65 1.94v3.44h-1.65V62.3c0-.27-.05-.47-.14-.59s-.26-.19-.5-.19c-.33 0-.57.14-.73.43V65.63h-1.65V62.3c0-.28-.04-.48-.13-.6s-.26-.19-.5-.19a.77.77 0 0 0-.72.43v3.68h-1.65v-5.28h1.56zM337.2 62.94c0-.53.1-1 .31-1.41.21-.41.5-.73.88-.95s.83-.33 1.35-.33c.79 0 1.41.25 1.87.73.46.49.68 1.16.68 2v.06c0 .82-.23 1.48-.69 1.96-.46.48-1.08.72-1.86.72-.75 0-1.36-.23-1.81-.68-.46-.45-.7-1.06-.74-1.83l.01-.27zm1.65.1c0 .49.08.85.23 1.07s.38.34.68.34c.59 0 .89-.45.9-1.35v-.17c0-.95-.3-1.42-.91-1.42-.55 0-.85.41-.89 1.23l-.01.3zM344.54 60.35l.05.62c.36-.48.87-.72 1.51-.72.55 0 .96.16 1.23.49.27.33.41.82.42 1.48v3.4h-1.65v-3.33c0-.27-.05-.46-.16-.59-.11-.12-.3-.19-.59-.19-.32 0-.56.13-.72.38v3.73h-1.65v-5.28h1.56zM350.58 59.03v1.31h.87v1.14h-.87v2.42c0 .2.04.34.11.42s.21.12.42.12c.16 0 .3-.01.41-.03v1.18c-.3.09-.61.14-.93.14-.57 0-.98-.13-1.25-.4s-.41-.67-.41-1.22v-2.62h-.67v-1.14h.67v-1.31h1.65zM353.71 60.91c.35-.44.8-.66 1.35-.66.58 0 1.02.17 1.32.52s.45.85.45 1.53v3.33h-1.65v-3.3c0-.28-.06-.49-.17-.62-.11-.13-.31-.2-.58-.2-.34 0-.58.11-.72.32v3.79h-1.65v-7.5h1.65v2.79z"/></svg>