<svg id="Layer_1" xmlns="http://www.w3.org/2000/svg" viewBox="0 0 970 250"><style>.st0{fill:#021d8b}</style><path class="st0" d="M483.19 215.23c0-.48-.17-.88-.5-1.21s-.9-.62-1.7-.89c-1.11-.34-1.92-.78-2.43-1.32s-.76-1.24-.76-2.07c0-.85.25-1.55.75-2.1s1.18-.87 2.05-.98v-1.71h1.16v1.72c.88.12 1.56.49 2.04 1.1s.73 1.46.73 2.52h-1.44c0-.74-.17-1.32-.52-1.76s-.82-.65-1.41-.65c-.62 0-1.09.16-1.42.48-.33.32-.49.77-.49 1.34 0 .53.17.96.52 1.27.35.32.92.6 1.71.86.79.26 1.41.54 1.86.85s.77.67.98 1.08.32.89.32 1.45c0 .88-.26 1.59-.79 2.12s-1.27.85-2.22.95v1.49h-1.16v-1.49c-.97-.09-1.73-.43-2.28-1.04s-.82-1.42-.82-2.45h1.45c0 .72.19 1.28.57 1.67s.92.59 1.62.59c.68 0 1.22-.16 1.61-.49s.57-.76.57-1.33zM491.18 218.16h-1.45v-9.63l-2.91 1.07v-1.31l4.14-1.55h.23v11.42zM501.48 207.66v2.05h1.58v1.12h-1.58v5.25c0 .34.07.59.21.76.14.17.38.25.72.25.17 0 .4-.03.69-.09v1.17c-.38.1-.75.16-1.11.16-.65 0-1.13-.2-1.46-.59s-.49-.95-.49-1.66v-5.24h-1.54v-1.12h1.54v-2.05h1.44zM508.84 211c-.22-.04-.46-.05-.71-.05-.95 0-1.59.4-1.93 1.21v6h-1.45v-8.45h1.41l.02.98c.47-.75 1.15-1.13 2.02-1.13.28 0 .5.04.64.11V211zM510.17 207.46c0-.23.07-.43.21-.59s.36-.24.64-.24.5.08.64.24.22.36.22.59-.07.43-.22.59-.36.23-.64.23-.49-.08-.64-.23-.21-.35-.21-.59zm1.56 10.7h-1.45v-8.45h1.45v8.45zM519.27 218.16c-.08-.17-.15-.46-.2-.89-.67.7-1.47 1.05-2.41 1.05-.83 0-1.52-.24-2.05-.71s-.8-1.07-.8-1.79c0-.88.33-1.56 1-2.05s1.61-.73 2.82-.73h1.41v-.66c0-.5-.15-.91-.45-1.21s-.75-.45-1.34-.45c-.52 0-.95.13-1.3.39s-.52.58-.52.95h-1.45c0-.42.15-.83.45-1.22s.71-.7 1.22-.93 1.08-.34 1.69-.34c.97 0 1.74.24 2.29.73s.84 1.16.86 2.01v3.89c0 .78.1 1.39.3 1.85v.12h-1.52zm-2.4-1.1c.45 0 .88-.12 1.29-.35s.7-.54.88-.91v-1.73h-1.13c-1.77 0-2.66.52-2.66 1.55 0 .45.15.81.45 1.06s.69.38 1.17.38zM524.32 218.16h-1.45v-12h1.45v12zM531.3 218.16v-7.34h-1.34v-1.12h1.34v-.87c0-.91.24-1.61.73-2.1s1.17-.74 2.05-.74c.33 0 .66.04.99.13l-.08 1.17c-.25-.05-.5-.07-.78-.07-.47 0-.83.14-1.09.41s-.38.67-.38 1.18v.89h1.8v1.12h-1.8v7.34h-1.44zM535.77 213.85c0-.83.16-1.57.49-2.23s.78-1.17 1.36-1.53 1.24-.54 1.99-.54c1.15 0 2.08.4 2.79 1.2s1.07 1.86 1.07 3.18v.1c0 .82-.16 1.56-.47 2.21s-.77 1.16-1.35 1.53-1.26.55-2.02.55c-1.15 0-2.07-.4-2.79-1.2s-1.07-1.85-1.07-3.16v-.11zm1.45.18c0 .94.22 1.69.65 2.26s1.02.85 1.75.85 1.32-.29 1.75-.86.65-1.38.65-2.42c0-.93-.22-1.68-.66-2.25s-1.02-.86-1.75-.86c-.71 0-1.29.28-1.73.85s-.66 1.37-.66 2.43zM549.36 211c-.22-.04-.46-.05-.71-.05-.95 0-1.59.4-1.93 1.21v6h-1.45v-8.45h1.41l.02.98c.47-.75 1.15-1.13 2.02-1.13.28 0 .5.04.64.11V211zM556.61 207.66v2.05h1.58v1.12h-1.58v5.25c0 .34.07.59.21.76.14.17.38.25.72.25.17 0 .4-.03.69-.09v1.17c-.38.1-.75.16-1.11.16-.65 0-1.13-.2-1.46-.59s-.49-.95-.49-1.66v-5.24h-1.54v-1.12h1.54v-2.05h1.44zM561.32 210.73c.64-.79 1.47-1.18 2.5-1.18 1.79 0 2.69 1.01 2.7 3.02v5.59h-1.45v-5.59c0-.61-.14-1.06-.42-1.35s-.7-.44-1.28-.44c-.47 0-.88.12-1.23.38s-.63.58-.83.98v6.02h-1.45v-12h1.45v4.57zM572.2 218.32c-1.15 0-2.08-.38-2.8-1.13s-1.08-1.76-1.08-3.02v-.27c0-.84.16-1.59.48-2.25s.77-1.17 1.34-1.55 1.2-.56 1.87-.56c1.1 0 1.95.36 2.56 1.09s.91 1.76.91 3.11v.6h-5.73c.02.83.26 1.51.73 2.02s1.06.77 1.78.77c.51 0 .94-.1 1.3-.31s.66-.48.93-.83l.88.69c-.7 1.09-1.76 1.64-3.17 1.64zm-.18-7.58c-.58 0-1.07.21-1.47.64s-.64 1.02-.73 1.79h4.23v-.11c-.04-.73-.24-1.3-.59-1.71s-.84-.61-1.44-.61zM581.84 218.16v-7.34h-1.34v-1.12h1.34v-.87c0-.91.24-1.61.73-2.1s1.17-.74 2.05-.74c.33 0 .66.04.99.13l-.08 1.17c-.25-.05-.5-.07-.78-.07-.47 0-.83.14-1.09.41s-.38.67-.38 1.18v.89h1.8v1.12h-1.8v7.34h-1.44zM586.69 207.46c0-.23.07-.43.21-.59s.36-.24.64-.24.5.08.64.24.22.36.22.59-.07.43-.22.59-.36.23-.64.23-.49-.08-.64-.23-.21-.35-.21-.59zm1.56 10.7h-1.45v-8.45h1.45v8.45zM594.65 211c-.22-.04-.46-.05-.71-.05-.95 0-1.59.4-1.93 1.21v6h-1.45v-8.45h1.41l.02.98c.47-.75 1.15-1.13 2.02-1.13.28 0 .5.04.64.11V211zM600.9 215.92c0-.39-.15-.69-.44-.91s-.81-.4-1.54-.56-1.31-.34-1.74-.56-.75-.48-.95-.78-.31-.66-.31-1.08c0-.69.29-1.28.88-1.76s1.33-.72 2.25-.72c.96 0 1.74.25 2.33.74s.89 1.13.89 1.9h-1.45c0-.4-.17-.74-.5-1.02s-.76-.43-1.27-.43c-.53 0-.94.11-1.23.34s-.45.53-.45.9c0 .35.14.61.41.79s.77.35 1.5.51 1.31.35 1.75.58.78.49 1 .81.32.7.32 1.15c0 .75-.3 1.36-.91 1.82s-1.39.68-2.35.68c-.68 0-1.28-.12-1.8-.36s-.93-.57-1.22-1-.44-.89-.44-1.39h1.45c.03.48.22.87.58 1.15s.84.43 1.43.43c.55 0 .99-.11 1.32-.33s.49-.53.49-.9zM606.19 207.66v2.05h1.58v1.12h-1.58v5.25c0 .34.07.59.21.76.14.17.38.25.72.25.17 0 .4-.03.69-.09v1.17c-.38.1-.75.16-1.11.16-.65 0-1.13-.2-1.46-.59s-.49-.95-.49-1.66v-5.24h-1.54v-1.12h1.54v-2.05h1.44zM618.58 218.16h-2.26v-8.7l-2.7.84v-1.84l4.71-1.69h.24v11.39zM628.95 213.88h1.29v1.82h-1.29v2.46h-2.26v-2.46h-4.66l-.1-1.42 4.74-7.49h2.28v7.09zm-4.77 0h2.52v-4.02l-.15.26-2.37 3.76zM635.18 213.87c0-1.32.3-2.37.89-3.15s1.4-1.17 2.43-1.17c.82 0 1.5.31 2.04.92v-4.31h2.27v12h-2.04l-.11-.9c-.56.7-1.29 1.05-2.17 1.05-1 0-1.79-.39-2.39-1.18s-.92-1.86-.92-3.26zm2.26.17c0 .79.14 1.4.41 1.82s.68.63 1.2.63c.7 0 1.19-.29 1.48-.88v-3.34c-.28-.59-.77-.88-1.46-.88-1.09 0-1.63.88-1.63 2.65zM649.45 218.16c-.1-.2-.18-.46-.23-.76-.55.61-1.26.91-2.13.91-.83 0-1.51-.24-2.06-.72s-.82-1.08-.82-1.81c0-.9.33-1.58 1-2.06s1.62-.72 2.88-.73h1.04v-.48c0-.39-.1-.7-.3-.94s-.52-.35-.95-.35c-.38 0-.68.09-.89.27s-.32.43-.32.75h-2.26c0-.49.15-.94.45-1.36s.73-.74 1.28-.98 1.17-.36 1.86-.36c1.04 0 1.87.26 2.48.79s.92 1.26.92 2.21v3.66c0 .8.12 1.41.34 1.82v.13h-2.29zm-1.87-1.57c.33 0 .64-.07.92-.22s.49-.35.62-.6v-1.45h-.84c-1.13 0-1.73.39-1.8 1.17l-.01.13c0 .28.1.51.3.7s.46.27.81.27zM656.28 214.96l1.56-5.26h2.42l-3.4 9.77-.19.45c-.5 1.1-1.34 1.66-2.5 1.66-.33 0-.66-.05-1-.15v-1.71l.34.01c.43 0 .75-.07.96-.2.21-.13.38-.35.5-.65l.27-.7-2.96-8.48h2.43l1.57 5.26zM665.73 215.82c0-.28-.14-.49-.41-.65s-.71-.3-1.32-.43c-2.01-.42-3.02-1.28-3.02-2.56 0-.75.31-1.38.93-1.88s1.44-.75 2.44-.75c1.07 0 1.93.25 2.57.76s.96 1.16.96 1.97h-2.26c0-.32-.1-.59-.31-.8s-.53-.32-.98-.32c-.38 0-.67.09-.88.26s-.31.39-.31.66c0 .25.12.45.36.61s.64.29 1.2.4 1.04.24 1.42.38c1.19.44 1.79 1.2 1.79 2.27 0 .77-.33 1.39-.99 1.87s-1.52.71-2.56.71c-.71 0-1.34-.13-1.89-.38-.55-.25-.98-.6-1.29-1.04s-.47-.92-.47-1.43h2.14c.02.4.17.71.45.92s.65.32 1.11.32c.43 0 .76-.08.98-.25s.34-.37.34-.64zM669.56 220.42l-.82-.56c.49-.68.75-1.39.77-2.11v-1.3h1.41v1.13c0 .53-.13 1.05-.39 1.58-.25.52-.58.95-.97 1.26zM683.85 214.03c0 1.29-.29 2.32-.88 3.11s-1.39 1.18-2.39 1.18c-1.03 0-1.83-.33-2.42-.98v4.07h-1.45v-11.7h1.32l.07.94c.59-.73 1.41-1.09 2.45-1.09 1.02 0 1.82.38 2.41 1.15s.89 1.83.89 3.2v.12zm-1.44-.17c0-.95-.2-1.71-.61-2.26s-.96-.83-1.67-.83c-.88 0-1.53.39-1.97 1.16v4.04c.43.77 1.09 1.16 1.98 1.16.69 0 1.24-.27 1.65-.82s.62-1.36.62-2.45zM687.26 218.16h-1.45v-12h1.45v12zM694.79 218.16c-.08-.17-.15-.46-.2-.89-.67.7-1.47 1.05-2.41 1.05-.83 0-1.52-.24-2.05-.71s-.8-1.07-.8-1.79c0-.88.33-1.56 1-2.05s1.61-.73 2.82-.73h1.41v-.66c0-.5-.15-.91-.45-1.21s-.75-.45-1.34-.45c-.52 0-.95.13-1.3.39s-.52.58-.52.95h-1.45c0-.42.15-.83.45-1.22s.71-.7 1.22-.93 1.08-.34 1.69-.34c.97 0 1.74.24 2.29.73s.84 1.16.86 2.01v3.89c0 .78.1 1.39.3 1.85v.12h-1.52zm-2.4-1.1c.45 0 .88-.12 1.29-.35s.7-.54.88-.91v-1.73h-1.13c-1.77 0-2.66.52-2.66 1.55 0 .45.15.81.45 1.06s.7.38 1.17.38zM699.64 209.71l.05 1.06c.65-.81 1.49-1.22 2.53-1.22 1.79 0 2.69 1.01 2.7 3.02v5.59h-1.45v-5.59c0-.61-.14-1.06-.42-1.35s-.7-.44-1.28-.44c-.47 0-.88.12-1.23.38s-.63.58-.83.98v6.02h-1.45v-8.45h1.38zM712.02 215.92c0-.39-.15-.69-.44-.91s-.81-.4-1.54-.56-1.31-.34-1.74-.56-.75-.48-.95-.78-.31-.66-.31-1.08c0-.69.29-1.28.88-1.76s1.33-.72 2.25-.72c.96 0 1.74.25 2.33.74s.89 1.13.89 1.9h-1.45c0-.4-.17-.74-.5-1.02s-.76-.43-1.27-.43c-.53 0-.94.11-1.23.34s-.45.53-.45.9c0 .35.14.61.41.79s.77.35 1.5.51 1.31.35 1.75.58.78.49 1 .81.32.7.32 1.15c0 .75-.3 1.36-.91 1.82s-1.39.68-2.35.68c-.68 0-1.28-.12-1.8-.36s-.93-.57-1.22-1-.44-.89-.44-1.39h1.45c.03.48.22.87.58 1.15s.84.43 1.43.43c.55 0 .99-.11 1.32-.33s.49-.53.49-.9zM724.23 215.92c0-.39-.15-.69-.44-.91s-.81-.4-1.54-.56-1.31-.34-1.74-.56-.75-.48-.95-.78-.31-.66-.31-1.08c0-.69.29-1.28.88-1.76s1.33-.72 2.25-.72c.96 0 1.74.25 2.33.74s.89 1.13.89 1.9h-1.45c0-.4-.17-.74-.5-1.02s-.76-.43-1.27-.43c-.53 0-.94.11-1.23.34s-.45.53-.45.9c0 .35.14.61.41.79s.77.35 1.5.51 1.31.35 1.75.58.78.49 1 .81.32.7.32 1.15c0 .75-.3 1.36-.91 1.82s-1.39.68-2.35.68c-.68 0-1.28-.12-1.8-.36s-.93-.57-1.22-1-.44-.89-.44-1.39h1.45c.03.48.22.87.58 1.15s.84.43 1.43.43c.55 0 .99-.11 1.32-.33s.49-.53.49-.9zM729.52 207.66v2.05h1.58v1.12h-1.58v5.25c0 .34.07.59.21.76.14.17.38.25.72.25.17 0 .4-.03.69-.09v1.17c-.38.1-.75.16-1.11.16-.65 0-1.13-.2-1.46-.59s-.49-.95-.49-1.66v-5.24h-1.54v-1.12h1.54v-2.05h1.44zM738.01 218.16c-.08-.17-.15-.46-.2-.89-.67.7-1.47 1.05-2.41 1.05-.83 0-1.52-.24-2.05-.71s-.8-1.07-.8-1.79c0-.88.33-1.56 1-2.05s1.61-.73 2.82-.73h1.41v-.66c0-.5-.15-.91-.45-1.21s-.75-.45-1.34-.45c-.52 0-.95.13-1.3.39s-.52.58-.52.95h-1.45c0-.42.15-.83.45-1.22s.71-.7 1.22-.93 1.08-.34 1.69-.34c.97 0 1.74.24 2.29.73s.84 1.16.86 2.01v3.89c0 .78.1 1.39.3 1.85v.12h-1.52zm-2.4-1.1c.45 0 .88-.12 1.29-.35s.7-.54.88-.91v-1.73h-1.13c-1.77 0-2.66.52-2.66 1.55 0 .45.15.81.45 1.06s.7.38 1.17.38zM745.58 211c-.22-.04-.46-.05-.71-.05-.95 0-1.59.4-1.93 1.21v6h-1.45v-8.45h1.41l.02.98c.47-.75 1.15-1.13 2.02-1.13.28 0 .5.04.64.11V211zM749.26 207.66v2.05h1.58v1.12h-1.58v5.25c0 .34.07.59.21.76.14.17.38.25.72.25.17 0 .4-.03.69-.09v1.17c-.38.1-.75.16-1.11.16-.65 0-1.13-.2-1.46-.59s-.49-.95-.49-1.66v-5.24h-1.54v-1.12h1.54v-2.05h1.44zM752.53 207.46c0-.23.07-.43.21-.59s.36-.24.64-.24.5.08.64.24.22.36.22.59-.07.43-.22.59-.36.23-.64.23-.49-.08-.64-.23-.21-.35-.21-.59zm1.56 10.7h-1.45v-8.45h1.45v8.45zM757.77 209.71l.05 1.06c.65-.81 1.49-1.22 2.53-1.22 1.79 0 2.69 1.01 2.7 3.02v5.59h-1.45v-5.59c0-.61-.14-1.06-.42-1.35s-.7-.44-1.28-.44c-.47 0-.88.12-1.23.38s-.63.58-.83.98v6.02h-1.45v-8.45h1.38zM764.89 213.86c0-1.32.3-2.37.91-3.14s1.42-1.17 2.42-1.17c1.03 0 1.84.36 2.41 1.09l.07-.94h1.32v8.25c0 1.09-.32 1.96-.97 2.59-.65.63-1.52.95-2.61.95-.61 0-1.21-.13-1.79-.39-.58-.26-1.03-.62-1.34-1.07l.75-.87c.62.77 1.38 1.15 2.27 1.15.7 0 1.25-.2 1.64-.59.39-.4.59-.95.59-1.67v-.73c-.58.67-1.37 1-2.37 1-.99 0-1.79-.4-2.4-1.2s-.9-1.88-.9-3.26zm1.45.17c0 .95.2 1.7.59 2.25s.94.82 1.64.82c.91 0 1.58-.41 2.01-1.24V212c-.44-.81-1.11-1.21-1.99-1.21-.7 0-1.25.27-1.65.82s-.6 1.34-.6 2.42zM783.39 218.16c-.08-.17-.15-.46-.2-.89-.67.7-1.47 1.05-2.41 1.05-.83 0-1.52-.24-2.05-.71s-.8-1.07-.8-1.79c0-.88.33-1.56 1-2.05s1.61-.73 2.82-.73h1.41v-.66c0-.5-.15-.91-.45-1.21s-.75-.45-1.34-.45c-.52 0-.95.13-1.3.39s-.52.58-.52.95h-1.45c0-.42.15-.83.45-1.22s.71-.7 1.22-.93 1.08-.34 1.69-.34c.97 0 1.74.24 2.29.73s.84 1.16.86 2.01v3.89c0 .78.1 1.39.3 1.85v.12h-1.52zm-2.4-1.1c.45 0 .88-.12 1.29-.35s.7-.54.88-.91v-1.73h-1.13c-1.77 0-2.66.52-2.66 1.55 0 .45.15.81.45 1.06s.7.38 1.17.38zM788.84 207.66v2.05h1.58v1.12h-1.58v5.25c0 .34.07.59.21.76.14.17.38.25.72.25.17 0 .4-.03.69-.09v1.17c-.38.1-.75.16-1.11.16-.65 0-1.13-.2-1.46-.59s-.49-.95-.49-1.66v-5.24h-1.54v-1.12h1.54v-2.05h1.44zM801.14 215.17c0-.43-.12-.77-.36-1.02s-.64-.49-1.21-.7-1.06-.43-1.47-.64-.76-.45-1.06-.73-.52-.59-.69-.96-.25-.81-.25-1.32c0-.88.28-1.6.84-2.16s1.31-.89 2.24-.98v-1.67h1.25v1.7c.92.13 1.64.51 2.16 1.15s.78 1.46.78 2.48h-2.26c0-.62-.13-1.09-.39-1.4s-.6-.46-1.04-.46c-.43 0-.76.12-.99.36s-.35.58-.35 1c0 .4.11.71.34.95s.66.48 1.28.73 1.13.49 1.54.71.74.47 1.02.75.49.6.63.95.22.77.22 1.25c0 .89-.28 1.6-.83 2.16s-1.31.88-2.28.98v1.55h-1.24v-1.55c-1.07-.12-1.89-.49-2.48-1.14s-.88-1.5-.88-2.57h2.26c0 .62.15 1.09.44 1.43s.72.5 1.27.5c.46 0 .82-.12 1.09-.36s.42-.58.42-.99zM810.2 213.61c-.59.58-1.28.87-2.06.87-1 0-1.81-.34-2.41-1.04s-.91-1.62-.91-2.79c0-.75.16-1.43.49-2.05s.78-1.11 1.36-1.45 1.24-.52 1.97-.52c.75 0 1.42.19 2 .56s1.04.91 1.36 1.62.49 1.51.49 2.41v.84c0 1.9-.47 3.39-1.41 4.47s-2.28 1.66-4.01 1.73l-.55.01v-1.88l.5-.01c1.96-.09 3.02-1.01 3.18-2.77zm-1.5-.86c.36 0 .68-.09.94-.28s.46-.41.6-.68v-.93c0-.77-.15-1.36-.44-1.78s-.68-.63-1.17-.63c-.45 0-.83.21-1.12.62s-.44.93-.44 1.56c0 .62.14 1.13.43 1.53s.68.59 1.2.59zM814.31 217.05c0-.36.12-.65.36-.88s.55-.34.91-.34c.37 0 .68.11.92.34s.36.52.36.88c0 .35-.12.64-.36.86s-.55.33-.92.33-.67-.11-.91-.33-.36-.51-.36-.86zM824.03 213.61c-.59.58-1.28.87-2.06.87-1 0-1.81-.34-2.41-1.04s-.91-1.62-.91-2.79c0-.75.16-1.43.49-2.05s.78-1.11 1.36-1.45 1.24-.52 1.97-.52c.75 0 1.42.19 2 .56s1.04.91 1.36 1.62.49 1.51.49 2.41v.84c0 1.9-.47 3.39-1.41 4.47s-2.28 1.66-4.01 1.73l-.55.01v-1.88l.5-.01c1.96-.09 3.02-1.01 3.18-2.77zm-1.51-.86c.36 0 .68-.09.94-.28s.46-.41.6-.68v-.93c0-.77-.15-1.36-.44-1.78s-.68-.63-1.17-.63c-.45 0-.83.21-1.12.62s-.44.93-.44 1.56c0 .62.14 1.13.43 1.53s.69.59 1.2.59zM833.21 213.61c-.59.58-1.28.87-2.06.87-1 0-1.81-.34-2.41-1.04s-.91-1.62-.91-2.79c0-.75.16-1.43.49-2.05s.78-1.11 1.36-1.45 1.24-.52 1.97-.52c.75 0 1.42.19 2 .56s1.04.91 1.36 1.62.49 1.51.49 2.41v.84c0 1.9-.47 3.39-1.41 4.47s-2.28 1.66-4.01 1.73l-.55.01v-1.88l.5-.01c1.96-.09 3.02-1.01 3.18-2.77zm-1.51-.86c.36 0 .68-.09.94-.28s.46-.41.6-.68v-.93c0-.77-.15-1.36-.44-1.78s-.68-.63-1.17-.63c-.45 0-.83.21-1.12.62s-.44.93-.44 1.56c0 .62.14 1.13.43 1.53s.69.59 1.2.59zM837.91 219.14h-1.68l4.19-12.35h1.68l-4.19 12.35zM845.3 209.71l.07.95c.6-.73 1.41-1.1 2.43-1.1 1.09 0 1.84.43 2.24 1.29.59-.86 1.44-1.29 2.54-1.29.92 0 1.6.27 2.05.8s.67 1.34.67 2.41v5.4h-2.27v-5.39c0-.48-.09-.83-.28-1.05s-.52-.33-.99-.33c-.68 0-1.15.32-1.41.97l.01 5.8h-2.26v-5.38c0-.49-.1-.84-.29-1.06s-.52-.33-.98-.33c-.64 0-1.1.27-1.39.8v5.98h-2.26v-8.45h2.12zM856.68 213.85c0-.84.16-1.59.48-2.24s.79-1.16 1.39-1.52 1.31-.54 2.11-.54c1.14 0 2.07.35 2.79 1.05s1.12 1.65 1.21 2.84l.02.58c0 1.3-.36 2.34-1.09 3.12s-1.7 1.18-2.91 1.18-2.19-.39-2.92-1.17-1.09-1.84-1.09-3.19v-.11zm2.26.16c0 .8.15 1.42.45 1.84s.73.64 1.3.64c.55 0 .97-.21 1.28-.63s.46-1.09.46-2.01c0-.79-.15-1.4-.46-1.83s-.74-.65-1.3-.65c-.55 0-.98.21-1.28.65s-.45 1.09-.45 1.99zM868.16 209.71l.07.98c.6-.75 1.41-1.13 2.43-1.13.9 0 1.56.26 2 .79s.66 1.31.67 2.36v5.46h-2.26v-5.41c0-.48-.1-.83-.31-1.04s-.55-.32-1.04-.32c-.64 0-1.11.27-1.43.81v5.96h-2.26v-8.45h2.13zM877.74 207.63v2.08h1.45v1.66h-1.45v4.22c0 .31.06.54.18.67s.35.2.69.2c.25 0 .47-.02.66-.05v1.71c-.44.13-.9.2-1.37.2-1.58 0-2.39-.8-2.42-2.4v-4.55h-1.23v-1.66h1.23v-2.08h2.26zM882.65 210.63c.6-.72 1.35-1.08 2.26-1.08 1.83 0 2.76 1.07 2.79 3.2v5.41h-2.26v-5.35c0-.48-.1-.84-.31-1.07s-.55-.35-1.04-.35c-.66 0-1.14.25-1.44.77v6.01h-2.26v-12h2.26v4.46z"/></svg>