<svg id="Layer_1" xmlns="http://www.w3.org/2000/svg" viewBox="0 0 728 90"><style>.st0{fill:#fff}</style><path class="st0" d="M24.52 52.05V35.69h5.27c1.45 0 2.74.33 3.9.98 1.15.66 2.05 1.58 2.7 2.77.65 1.19.97 2.53.98 4.01v.75c0 1.5-.32 2.84-.95 4.03s-1.52 2.12-2.67 2.79-2.43 1.01-3.85 1.02h-5.38zm3.94-13.31v10.28h1.37c1.13 0 2-.4 2.61-1.21.61-.81.91-2 .91-3.59v-.71c0-1.58-.3-2.77-.91-3.57-.61-.8-1.49-1.2-2.65-1.2h-1.33zM38.74 45.86c0-1.21.24-2.29.71-3.24.47-.95 1.15-1.68 2.03-2.18s1.92-.76 3.11-.76c1.82 0 3.25.56 4.3 1.69 1.05 1.13 1.57 2.66 1.57 4.6v.14c0 1.89-.53 3.4-1.58 4.51-1.05 1.11-2.48 1.67-4.27 1.67-1.73 0-3.12-.52-4.17-1.56s-1.61-2.44-1.7-4.22v-.65zm3.78.23c0 1.12.18 1.95.53 2.47.35.52.87.79 1.56.79 1.35 0 2.04-1.04 2.07-3.11v-.38c0-2.18-.7-3.27-2.09-3.27-1.27 0-1.95.94-2.06 2.82l-.01.68zM55.6 39.9l.12 1.43c.84-1.1 2-1.65 3.47-1.65 1.27 0 2.21.38 2.84 1.13s.95 1.89.97 3.41v7.83h-3.79v-7.67c0-.61-.12-1.06-.37-1.35-.25-.29-.7-.43-1.35-.43-.74 0-1.29.29-1.65.88v8.58h-3.79V39.9h3.55zM66.32 36.62l-.37 4.64h-2.33V34.8h2.7v1.82zM72.16 36.87v3.02h2v2.63h-2v5.56c0 .46.08.78.25.96.16.18.49.27.98.27.37 0 .69-.02.94-.07v2.71c-.68.22-1.39.33-2.13.33-1.3 0-2.26-.31-2.89-.92-.62-.61-.93-1.55-.93-2.8v-6.03h-1.55V39.9h1.55v-3.02h3.78zM92.65 46.07c0 1.99-.41 3.52-1.23 4.59-.82 1.07-1.98 1.61-3.48 1.61-1.23 0-2.23-.49-2.99-1.47l-.16 1.25H81.4V34.8h3.78v6.08c.7-.8 1.61-1.2 2.73-1.2 1.51 0 2.68.54 3.5 1.63.82 1.09 1.23 2.61 1.23 4.58v.18zm-3.79-.24c0-1.17-.16-2-.47-2.49s-.79-.75-1.43-.75c-.85 0-1.45.33-1.77.98v4.82c.32.64.92.96 1.8.96.89 0 1.46-.43 1.7-1.3.11-.43.17-1.17.17-2.22zM100.2 52.27c-1.86 0-3.37-.56-4.53-1.67-1.15-1.11-1.73-2.56-1.73-4.34v-.31c0-1.24.23-2.34.69-3.29.46-.95 1.13-1.69 2.02-2.21.88-.52 1.93-.78 3.14-.78 1.71 0 3.05.53 4.04 1.59.99 1.06 1.48 2.54 1.48 4.43v1.47H97.8c.13.68.43 1.22.89 1.61.46.39 1.05.58 1.78.58 1.2 0 2.13-.42 2.81-1.26l1.73 2.04c-.47.65-1.14 1.17-2 1.56-.89.39-1.81.58-2.81.58zm-.43-9.68c-1.11 0-1.77.73-1.98 2.2h3.82v-.29c.01-.61-.14-1.08-.46-1.41-.32-.33-.78-.5-1.38-.5zM123.85 46.06c0 1.89-.42 3.39-1.27 4.52s-2 1.69-3.44 1.69c-1.12 0-2.03-.41-2.75-1.22v5.67h-3.78V39.9h3.54l.11 1.12c.73-.9 1.68-1.35 2.86-1.35 1.5 0 2.66.55 3.49 1.66.83 1.1 1.25 2.62 1.25 4.55v.18zm-3.78-.24c0-2.16-.63-3.23-1.89-3.23-.9 0-1.5.32-1.8.97v4.78c.33.67.94 1.01 1.82 1.01 1.21 0 1.83-1.04 1.86-3.12v-.41zM132.36 52.05c-.13-.25-.25-.61-.36-1.09-.7.88-1.67 1.31-2.92 1.31-1.15 0-2.12-.35-2.92-1.04s-1.2-1.56-1.2-2.61c0-1.32.49-2.31 1.46-2.99.97-.67 2.39-1.01 4.25-1.01h1.17v-.64c0-1.12-.48-1.68-1.45-1.68-.9 0-1.35.44-1.35 1.33h-3.79c0-1.17.5-2.13 1.5-2.86s2.27-1.1 3.82-1.1c1.55 0 2.77.38 3.67 1.13s1.36 1.79 1.38 3.11v5.38c.02 1.12.19 1.97.52 2.56v.19h-3.78zM130 49.58c.47 0 .86-.1 1.17-.3s.53-.43.67-.68v-1.94h-1.1c-1.32 0-1.98.59-1.98 1.77 0 .34.12.62.35.84.23.2.53.31.89.31zM145.08 43.32l-1.25-.09c-1.19 0-1.95.37-2.29 1.12v7.69h-3.78V39.9h3.55l.12 1.56c.64-1.19 1.52-1.79 2.66-1.79.4 0 .76.04 1.05.13l-.06 3.52zM151.41 36.87v3.02h2v2.63h-2v5.56c0 .46.08.78.25.96.16.18.49.27.98.27.37 0 .69-.02.94-.07v2.71c-.68.22-1.39.33-2.13.33-1.3 0-2.26-.31-2.89-.92-.62-.61-.93-1.55-.93-2.8v-6.03h-1.55V39.9h1.55v-3.02h3.78zM160.15 45.86c0-1.21.24-2.29.71-3.24.47-.95 1.15-1.68 2.03-2.18s1.92-.76 3.11-.76c1.82 0 3.25.56 4.3 1.69 1.05 1.13 1.57 2.66 1.57 4.6v.14c0 1.89-.53 3.4-1.58 4.51-1.05 1.11-2.48 1.67-4.27 1.67-1.73 0-3.12-.52-4.17-1.56s-1.61-2.44-1.7-4.22v-.65zm3.78.23c0 1.12.18 1.95.53 2.47.35.52.87.79 1.56.79 1.35 0 2.04-1.04 2.07-3.11v-.38c0-2.18-.7-3.27-2.09-3.27-1.27 0-1.95.94-2.06 2.82l-.01.68zM174.38 52.05v-9.52h-1.76V39.9h1.76v-.97c0-1.39.41-2.46 1.22-3.22s1.96-1.15 3.44-1.15c.54 0 1.13.08 1.77.24l.01 2.79c-.23-.07-.54-.1-.93-.1-1.15 0-1.72.49-1.72 1.48v.93h2.37v2.63h-2.37v9.52h-3.79zM192.01 36.87v3.02h2v2.63h-2v5.56c0 .46.08.78.25.96.16.18.49.27.98.27.37 0 .69-.02.94-.07v2.71c-.68.22-1.39.33-2.13.33-1.3 0-2.26-.31-2.89-.92-.62-.61-.93-1.55-.93-2.8v-6.03h-1.55V39.9h1.55v-3.02h3.78zM199.2 41.2c.81-1.02 1.84-1.53 3.1-1.53 1.34 0 2.35.4 3.03 1.19s1.03 1.97 1.04 3.52v7.67h-3.79v-7.58c0-.64-.13-1.12-.39-1.42-.26-.3-.71-.46-1.34-.46-.78 0-1.33.25-1.65.74v8.72h-3.79V34.8h3.79v6.4zM208.45 36.76c0-.54.19-.98.58-1.33s.89-.52 1.52-.52c.62 0 1.13.17 1.52.52s.58.79.58 1.33-.19.98-.58 1.33-.89.52-1.52.52c-.62 0-1.13-.17-1.52-.52s-.58-.79-.58-1.33zm4.02 15.29h-3.8V39.9h3.8v12.15zM221.16 48.63c0-.32-.17-.58-.51-.78-.34-.19-.98-.4-1.92-.61-.94-.21-1.72-.48-2.34-.83-.61-.34-1.08-.75-1.4-1.24s-.48-1.04-.48-1.67c0-1.12.46-2.03 1.38-2.76.92-.72 2.13-1.08 3.62-1.08 1.6 0 2.89.36 3.86 1.09s1.46 1.68 1.46 2.86h-3.8c0-.97-.51-1.46-1.54-1.46-.4 0-.73.11-1 .33-.27.22-.4.5-.4.83 0 .34.17.61.49.82s.86.38 1.58.52 1.36.3 1.9.48c1.83.63 2.74 1.76 2.74 3.38 0 1.11-.49 2.01-1.48 2.71s-2.26 1.04-3.82 1.04c-1.04 0-1.97-.19-2.79-.56-.82-.38-1.45-.88-1.91-1.53-.46-.64-.69-1.32-.69-2.03h3.54c.01.56.2.97.56 1.23.36.26.82.39 1.38.39.52 0 .9-.1 1.16-.31.28-.21.41-.48.41-.82zM243.59 46.07c0 1.99-.41 3.52-1.23 4.59-.82 1.07-1.98 1.61-3.48 1.61-1.23 0-2.23-.49-2.99-1.47l-.16 1.25h-3.39V34.8h3.78v6.08c.7-.8 1.61-1.2 2.73-1.2 1.51 0 2.68.54 3.5 1.63.82 1.09 1.23 2.61 1.23 4.58v.18zm-3.8-.24c0-1.17-.16-2-.47-2.49s-.79-.75-1.43-.75c-.85 0-1.45.33-1.77.98v4.82c.32.64.92.96 1.8.96.89 0 1.46-.43 1.7-1.3.11-.43.17-1.17.17-2.22zM245.23 36.76c0-.54.19-.98.58-1.33s.89-.52 1.52-.52c.62 0 1.13.17 1.52.52s.58.79.58 1.33-.19.98-.58 1.33-.89.52-1.52.52c-.62 0-1.13-.17-1.52-.52s-.58-.79-.58-1.33zm4.02 15.29h-3.8V39.9h3.8v12.15zM255.57 52.05h-3.8V34.8h3.8v17.25zM261.9 52.05h-3.8V34.8h3.8v17.25zM264.2 36.76c0-.54.19-.98.58-1.33s.89-.52 1.52-.52c.62 0 1.13.17 1.52.52s.58.79.58 1.33-.19.98-.58 1.33-.89.52-1.52.52c-.62 0-1.13-.17-1.52-.52s-.58-.79-.58-1.33zm4.02 15.29h-3.8V39.9h3.8v12.15zM270.07 45.86c0-1.21.24-2.29.71-3.24.47-.95 1.15-1.68 2.03-2.18s1.92-.76 3.11-.76c1.82 0 3.25.56 4.3 1.69 1.05 1.13 1.57 2.66 1.57 4.6v.14c0 1.89-.53 3.4-1.58 4.51-1.05 1.11-2.48 1.67-4.27 1.67-1.73 0-3.12-.52-4.17-1.56s-1.61-2.44-1.7-4.22v-.65zm3.79.23c0 1.12.18 1.95.53 2.47.35.52.87.79 1.56.79 1.35 0 2.04-1.04 2.07-3.11v-.38c0-2.18-.7-3.27-2.09-3.27-1.27 0-1.95.94-2.06 2.82l-.01.68zM286.94 39.9l.12 1.43c.84-1.1 2-1.65 3.47-1.65 1.27 0 2.21.38 2.84 1.13s.95 1.89.97 3.41v7.83h-3.79v-7.67c0-.61-.12-1.06-.37-1.35-.25-.29-.7-.43-1.35-.43-.74 0-1.29.29-1.65.88v8.58h-3.79V39.9h3.55zM301.69 45.88c0-1.92.42-3.44 1.25-4.55.83-1.11 1.99-1.66 3.48-1.66 1.08 0 2 .43 2.74 1.28V34.8h3.79v17.25h-3.4l-.19-1.3c-.78 1.02-1.77 1.53-2.96 1.53-1.44 0-2.59-.55-3.44-1.66-.85-1.12-1.27-2.7-1.27-4.74zm3.78.24c0 2.16.63 3.23 1.89 3.23.84 0 1.44-.35 1.8-1.06v-4.63c-.34-.72-.94-1.08-1.78-1.08-1.17 0-1.8.94-1.9 2.83l-.01.71zM314.62 45.86c0-1.21.24-2.29.71-3.24.47-.95 1.15-1.68 2.03-2.18s1.92-.76 3.11-.76c1.82 0 3.25.56 4.3 1.69 1.05 1.13 1.57 2.66 1.57 4.6v.14c0 1.89-.53 3.4-1.58 4.51-1.05 1.11-2.48 1.67-4.27 1.67-1.73 0-3.12-.52-4.17-1.56s-1.61-2.44-1.7-4.22v-.65zm3.79.23c0 1.12.18 1.95.53 2.47.35.52.87.79 1.56.79 1.35 0 2.04-1.04 2.07-3.11v-.38c0-2.18-.7-3.27-2.09-3.27-1.27 0-1.95.94-2.06 2.82l-.01.68zM332.01 52.05h-3.8V34.8h3.8v17.25zM338.33 52.05h-3.8V34.8h3.8v17.25zM347.51 52.05c-.13-.25-.25-.61-.36-1.09-.7.88-1.67 1.31-2.92 1.31-1.15 0-2.12-.35-2.92-1.04s-1.2-1.56-1.2-2.61c0-1.32.49-2.31 1.46-2.99.97-.67 2.39-1.01 4.25-1.01h1.17v-.64c0-1.12-.48-1.68-1.45-1.68-.9 0-1.35.44-1.35 1.33h-3.79c0-1.17.5-2.13 1.5-2.86s2.27-1.1 3.82-1.1c1.55 0 2.77.38 3.67 1.13s1.36 1.79 1.38 3.11v5.38c.02 1.12.19 1.97.52 2.56v.19h-3.78zm-2.37-2.47c.47 0 .86-.1 1.17-.3s.53-.43.67-.68v-1.94h-1.1c-1.32 0-1.98.59-1.98 1.77 0 .34.12.62.35.84.23.2.53.31.89.31zM360.22 43.32l-1.25-.09c-1.19 0-1.95.37-2.29 1.12v7.69h-3.78V39.9h3.55l.12 1.56c.64-1.19 1.52-1.79 2.66-1.79.4 0 .76.04 1.05.13l-.06 3.52zM372.45 49.35c.53 0 .94-.14 1.24-.43s.43-.69.43-1.21h3.55c0 1.33-.48 2.43-1.43 3.28-.96.85-2.18 1.28-3.69 1.28-1.77 0-3.16-.55-4.18-1.66-1.02-1.11-1.53-2.64-1.53-4.6v-.16c0-1.23.23-2.31.68-3.25a4.98 4.98 0 0 1 1.96-2.17c.85-.5 1.87-.76 3.03-.76 1.58 0 2.83.44 3.76 1.31s1.39 2.06 1.39 3.56h-3.55c0-.63-.15-1.11-.46-1.45-.31-.34-.72-.51-1.23-.51-.98 0-1.55.62-1.72 1.88-.05.4-.08.94-.08 1.64 0 1.22.15 2.07.44 2.54s.75.71 1.39.71zM383.25 52.05h-3.8V34.8h3.8v17.25zM392.82 50.73c-.8 1.03-1.88 1.54-3.25 1.54-1.33 0-2.34-.39-3.03-1.16-.69-.78-1.03-1.89-1.03-3.34V39.9h3.78v7.9c0 1.04.5 1.56 1.52 1.56.87 0 1.49-.31 1.85-.93V39.9h3.81v12.15h-3.55l-.1-1.32zM409.83 46.07c0 1.99-.41 3.52-1.23 4.59-.82 1.07-1.98 1.61-3.48 1.61-1.23 0-2.23-.49-2.99-1.47l-.16 1.25h-3.39V34.8h3.78v6.08c.7-.8 1.61-1.2 2.73-1.2 1.51 0 2.68.54 3.5 1.63.82 1.09 1.23 2.61 1.23 4.58v.18zm-3.79-.24c0-1.17-.16-2-.47-2.49s-.79-.75-1.43-.75c-.85 0-1.45.33-1.77.98v4.82c.32.64.92.96 1.8.96.89 0 1.46-.43 1.7-1.3.11-.43.17-1.17.17-2.22zM413.84 48.37c.6 0 1.1.18 1.49.53.4.36.6.81.6 1.36s-.2 1.01-.6 1.36-.89.53-1.49.53c-.61 0-1.11-.18-1.5-.54-.39-.36-.59-.81-.59-1.36s.2-1 .59-1.36c.4-.34.9-.52 1.5-.52z"/></svg>