<svg id="Layer_1" xmlns="http://www.w3.org/2000/svg" viewBox="0 0 728 90"><style>.st0{fill:#fff}</style><path class="st0" d="M16.93 80.58l-.89-.26.16-.49.88.34-.04-1.01h.52l-.04 1.02.87-.34.16.5-.91.26.59.78-.43.32-.53-.84-.52.82-.43-.3.61-.8zM21.8 83.42h-2.87v-.49l1.42-1.55c.21-.23.35-.42.44-.57s.13-.31.13-.46c0-.2-.06-.37-.17-.49a.61.61 0 0 0-.46-.19c-.23 0-.41.07-.54.21s-.19.33-.19.58h-.71c0-.26.06-.49.18-.7s.29-.37.51-.49c.22-.12.47-.17.76-.17.41 0 .74.1.98.31s.36.5.36.86c0 .21-.06.44-.18.67-.12.23-.32.5-.59.79l-1.04 1.12h1.98v.57zM25.12 81.63c0 .61-.12 1.08-.34 1.39-.23.31-.58.47-1.05.47-.46 0-.81-.15-1.04-.46s-.35-.75-.36-1.35v-.74c0-.61.11-1.07.34-1.38.23-.31.58-.46 1.05-.46.47 0 .81.15 1.04.45s.35.75.35 1.34v.74zm-.71-.8c0-.4-.05-.69-.16-.88s-.28-.28-.52-.28c-.23 0-.4.09-.51.27s-.17.45-.17.83v.97c0 .4.06.7.17.89s.29.29.52.29c.23 0 .4-.09.51-.27s.17-.46.17-.85v-.97zM28.62 83.42h-2.87v-.49l1.42-1.55c.21-.23.35-.42.44-.57s.13-.31.13-.46c0-.2-.06-.37-.17-.49a.61.61 0 0 0-.46-.19c-.23 0-.41.07-.54.21s-.19.33-.19.58h-.71c0-.26.06-.49.18-.7s.29-.37.51-.49c.22-.12.47-.17.76-.17.41 0 .74.1.98.31s.36.5.36.86c0 .21-.06.44-.18.67-.12.23-.32.5-.59.79l-1.04 1.12h1.98v.57zM31.09 83.42h-.71V80l-1.05.36v-.6l1.67-.62h.09v4.28zM34.96 83.42h-.74v-4.27h.74v4.27zM35.67 81.82c0-.49.11-.88.34-1.18s.53-.44.91-.44c.34 0 .61.12.81.35v-1.62h.71v4.5h-.64l-.04-.33c-.21.26-.5.39-.85.39-.37 0-.67-.15-.9-.45-.23-.3-.34-.71-.34-1.22zm.71.06c0 .32.06.57.19.75s.3.27.53.27c.29 0 .5-.13.64-.39v-1.35a.664.664 0 0 0-.63-.38c-.23 0-.41.09-.53.27s-.2.46-.2.83zM40.58 83.48c-.45 0-.82-.14-1.1-.43-.28-.28-.42-.66-.42-1.14v-.09c0-.32.06-.6.18-.85s.29-.44.51-.58.47-.21.74-.21c.43 0 .76.14 1 .41.23.28.35.67.35 1.17v.29h-2.07c.02.26.11.47.26.62s.35.23.58.23c.33 0 .59-.13.8-.4l.38.37c-.13.19-.3.34-.51.44-.19.12-.43.17-.7.17zm-.08-2.71c-.2 0-.35.07-.47.21-.12.14-.2.33-.23.57h1.36v-.05c-.02-.24-.08-.42-.19-.54s-.27-.19-.47-.19zM43.07 80.25l.02.37c.23-.28.54-.42.92-.42.66 0 1 .38 1.01 1.13v2.09h-.71v-2.05c0-.2-.04-.35-.13-.45-.09-.1-.23-.15-.43-.15-.29 0-.5.13-.64.39v2.26h-.71v-3.17h.67zM46.64 79.48v.77h.56v.53h-.56v1.77c0 .12.02.21.07.26s.13.08.26.08c.08 0 .17-.01.25-.03v.55c-.16.04-.32.07-.47.07-.55 0-.82-.3-.82-.91v-1.8h-.53v-.53h.52v-.77h.72zM47.74 79.43c0-.11.03-.2.1-.27s.17-.11.3-.11.23.04.3.11.11.16.11.27c0 .11-.04.2-.11.27s-.17.11-.3.11-.23-.04-.3-.11a.406.406 0 0 1-.1-.27zm.76 3.99h-.71v-3.17h.71v3.17zM50.16 79.48v.77h.56v.53h-.56v1.77c0 .12.02.21.07.26s.13.08.26.08c.08 0 .17-.01.25-.03v.55c-.16.04-.32.07-.47.07-.55 0-.82-.3-.82-.91v-1.8h-.52v-.53h.52v-.77h.71zM52.38 82.4l.64-2.15h.76l-1.26 3.65c-.19.53-.52.8-.98.8-.1 0-.22-.02-.34-.05v-.55l.13.01c.18 0 .32-.03.41-.1.09-.07.16-.18.22-.33l.1-.27-1.11-3.15h.77l.66 2.14zM58.21 81.62h-1.72v1.81h-.74v-4.27h2.71v.6h-1.97v1.27h1.72v.59zM60.56 80.9c-.09-.02-.19-.02-.29-.02-.33 0-.55.12-.66.38v2.17h-.71v-3.17h.68l.02.35c.17-.28.41-.41.71-.41.1 0 .19.01.25.04v.66zM62.82 83.42c-.03-.06-.06-.16-.08-.3-.23.24-.5.35-.83.35-.32 0-.58-.09-.78-.27s-.3-.41-.3-.67c0-.34.12-.6.38-.78.25-.18.61-.27 1.08-.27h.44v-.21c0-.16-.05-.29-.14-.39s-.23-.15-.42-.15c-.16 0-.29.04-.4.12s-.16.18-.16.31h-.71c0-.17.06-.34.17-.49s.27-.27.47-.36c.2-.09.42-.13.66-.13.37 0 .67.09.89.28s.33.45.34.79v1.43c0 .29.04.51.12.68v.05h-.73zm-.78-.51c.14 0 .27-.03.4-.1s.22-.16.28-.28v-.6h-.38c-.26 0-.46.05-.59.14s-.2.22-.2.39c0 .14.05.25.14.33.07.08.19.12.35.12zM66.09 83.11c-.21.25-.51.37-.89.37-.34 0-.6-.1-.78-.3s-.26-.49-.26-.87v-2.05h.71v2.04c0 .4.17.6.5.6.35 0 .58-.12.7-.37v-2.28h.71v3.17h-.67l-.02-.31zM67.37 81.82c0-.49.11-.88.34-1.18s.53-.44.91-.44c.34 0 .61.12.81.35v-1.62h.71v4.5h-.64l-.04-.33c-.21.26-.5.39-.85.39-.37 0-.67-.15-.9-.45-.23-.3-.34-.71-.34-1.22zm.71.06c0 .32.06.57.19.75s.3.27.53.27c.29 0 .5-.13.64-.39v-1.35a.664.664 0 0 0-.63-.38c-.23 0-.41.09-.53.27s-.2.46-.2.83zM74.68 82.33a.51.51 0 0 0-.2-.43c-.13-.1-.37-.2-.71-.31s-.62-.22-.82-.35c-.39-.24-.58-.56-.58-.96 0-.34.14-.63.42-.85.28-.22.64-.33 1.09-.33.3 0 .56.05.79.16s.42.27.55.47.2.43.2.67h-.74c0-.22-.07-.4-.21-.52s-.34-.19-.6-.19c-.24 0-.43.05-.56.16-.13.1-.2.25-.2.43 0 .16.07.29.22.39s.38.21.71.3.6.21.8.34.35.27.44.43.14.35.14.57c0 .36-.14.64-.41.85-.27.21-.64.31-1.11.31-.31 0-.59-.06-.85-.17s-.46-.27-.6-.47c-.14-.2-.21-.44-.21-.7h.74c0 .24.08.43.24.56s.39.2.69.2c.26 0 .45-.05.58-.16.13-.09.19-.23.19-.4zM76.9 79.48v.77h.56v.53h-.56v1.77c0 .12.02.21.07.26s.13.08.26.08c.08 0 .17-.01.25-.03v.55c-.16.04-.32.07-.47.07-.55 0-.82-.3-.82-.91v-1.8h-.52v-.53h.52v-.77h.71zM79.92 83.11c-.21.25-.51.37-.89.37-.34 0-.6-.1-.78-.3s-.26-.49-.26-.87v-2.05h.71v2.04c0 .4.17.6.5.6.35 0 .58-.12.7-.37v-2.28h.71v3.17h-.67l-.02-.31zM81.2 81.82c0-.49.11-.88.34-1.18s.53-.44.91-.44c.34 0 .61.12.81.35v-1.62h.71v4.5h-.64l-.03-.33c-.21.26-.5.39-.85.39-.37 0-.67-.15-.9-.45-.23-.3-.35-.71-.35-1.22zm.71.06c0 .32.06.57.19.75s.3.27.53.27c.29 0 .5-.13.64-.39v-1.35a.664.664 0 0 0-.63-.38c-.23 0-.41.09-.53.27s-.2.46-.2.83zM85.83 82.4l.64-2.15h.76l-1.26 3.65c-.19.53-.52.8-.98.8-.1 0-.22-.02-.34-.05v-.55l.13.01c.18 0 .32-.03.41-.1.09-.07.16-.18.22-.33l.1-.27-1.11-3.15h.77l.66 2.14zM87.74 84.38l-.38-.23c.11-.18.19-.33.23-.46s.06-.27.07-.4v-.55h.64v.51c0 .21-.05.42-.16.62-.1.21-.23.38-.4.51zM92.27 79.16h.74v2.99c0 .41-.13.73-.38.97s-.59.36-1.01.36c-.45 0-.79-.11-1.03-.34s-.36-.54-.36-.94h.74c0 .23.06.4.17.51.11.11.27.17.49.17.2 0 .36-.07.48-.2s.18-.31.18-.55v-2.97zM95.68 83.42c-.03-.06-.06-.16-.08-.3-.23.24-.5.35-.83.35-.32 0-.58-.09-.78-.27s-.3-.41-.3-.67c0-.34.12-.6.38-.78.25-.18.61-.27 1.08-.27h.44v-.21c0-.16-.05-.29-.14-.39s-.23-.15-.42-.15c-.16 0-.29.04-.4.12s-.16.18-.16.31h-.71c0-.17.06-.34.17-.49s.27-.27.47-.36c.2-.09.42-.13.66-.13.37 0 .67.09.89.28s.33.45.34.79v1.43c0 .29.04.51.12.68v.05h-.73zm-.78-.51c.14 0 .27-.03.4-.1s.22-.16.28-.28v-.6h-.38c-.26 0-.46.05-.59.14s-.2.22-.2.39c0 .14.05.25.14.33.07.08.2.12.35.12zM98.11 82.52l.67-2.27h.74l-1.1 3.17h-.62l-1.11-3.17h.74l.68 2.27zM101.35 83.48c-.45 0-.82-.14-1.1-.43-.28-.28-.42-.66-.42-1.14v-.09c0-.32.06-.6.18-.85s.29-.44.51-.58.47-.21.74-.21c.43 0 .76.14 1 .41.23.28.35.67.35 1.17v.29h-2.07c.02.26.11.47.26.62s.35.23.58.23c.33 0 .59-.13.8-.4l.38.37c-.13.19-.3.34-.51.44-.2.12-.43.17-.7.17zm-.08-2.71c-.2 0-.35.07-.47.21-.12.14-.2.33-.23.57h1.36v-.05c-.02-.24-.08-.42-.19-.54s-.28-.19-.47-.19zM103.93 83.42h-.71v-4.5h.71v4.5zM104.71 79.43c0-.11.03-.2.1-.27s.17-.11.3-.11.23.04.3.11.11.16.11.27c0 .11-.04.2-.11.27s-.17.11-.3.11-.23-.04-.3-.11a.362.362 0 0 1-.1-.27zm.76 3.99h-.71v-3.17h.71v3.17zM106.9 80.25l.02.37c.23-.28.54-.42.92-.42.66 0 1 .38 1.01 1.13v2.09h-.71v-2.05c0-.2-.04-.35-.13-.45-.09-.1-.23-.15-.43-.15-.29 0-.5.13-.64.39v2.26h-.71v-3.17h.67zM113.37 82.33a.51.51 0 0 0-.2-.43c-.13-.1-.37-.2-.71-.31s-.62-.22-.82-.35c-.39-.24-.58-.56-.58-.96 0-.34.14-.63.42-.85.28-.22.64-.33 1.09-.33.3 0 .56.05.79.16s.42.27.55.47.2.43.2.67h-.74c0-.22-.07-.4-.21-.52s-.34-.19-.6-.19c-.24 0-.43.05-.56.16-.13.1-.2.25-.2.43 0 .16.07.29.22.39s.38.21.71.3.6.21.8.34.35.27.44.43.14.35.14.57c0 .36-.14.64-.41.85-.27.21-.64.31-1.11.31-.31 0-.59-.06-.85-.17s-.46-.27-.6-.47c-.14-.2-.21-.44-.21-.7h.74c0 .24.08.43.24.56s.39.2.69.2c.26 0 .45-.05.58-.16.12-.09.19-.23.19-.4zM115.58 79.48v.77h.56v.53h-.56v1.77c0 .12.02.21.07.26s.13.08.26.08c.08 0 .17-.01.25-.03v.55c-.16.04-.32.07-.47.07-.55 0-.82-.3-.82-.91v-1.8h-.52v-.53h.52v-.77h.71zM118.35 80.9c-.09-.02-.19-.02-.29-.02-.33 0-.55.12-.66.38v2.17h-.71v-3.17h.68l.02.35c.17-.28.41-.41.71-.41.1 0 .19.01.25.04v.66zM120.6 83.42c-.03-.06-.06-.16-.08-.3-.23.24-.5.35-.83.35-.32 0-.58-.09-.78-.27s-.3-.41-.3-.67c0-.34.12-.6.38-.78.25-.18.61-.27 1.08-.27h.44v-.21c0-.16-.05-.29-.14-.39s-.23-.15-.42-.15c-.16 0-.29.04-.4.12s-.16.18-.16.31h-.71c0-.17.06-.34.17-.49s.27-.27.47-.36c.2-.09.42-.13.66-.13.37 0 .67.09.89.28s.33.45.34.79v1.43c0 .29.04.51.12.68v.05h-.73zm-.78-.51c.14 0 .27-.03.4-.1s.22-.16.28-.28v-.6h-.38c-.26 0-.46.05-.59.14s-.2.22-.2.39c0 .14.05.25.14.33.08.08.2.12.35.12zM122.85 79.48v.77h.56v.53h-.56v1.77c0 .12.02.21.07.26s.13.08.26.08c.08 0 .17-.01.25-.03v.55c-.16.04-.32.07-.47.07-.55 0-.82-.3-.82-.91v-1.8h-.52v-.53h.52v-.77h.71zM125.35 83.48c-.45 0-.82-.14-1.1-.43-.28-.28-.42-.66-.42-1.14v-.09c0-.32.06-.6.18-.85s.29-.44.51-.58.47-.21.74-.21c.43 0 .76.14 1 .41.23.28.35.67.35 1.17v.29h-2.07c.02.26.11.47.26.62s.35.23.58.23c.33 0 .59-.13.8-.4l.38.37c-.13.19-.3.34-.51.44-.2.12-.44.17-.7.17zm-.09-2.71c-.2 0-.35.07-.47.21-.12.14-.2.33-.23.57h1.36v-.05c-.02-.24-.08-.42-.19-.54s-.27-.19-.47-.19zM127.05 81.82c0-.49.12-.88.35-1.18.23-.29.54-.44.92-.44.36 0 .65.13.85.38l.03-.32h.64v3.07c0 .42-.13.74-.39.98s-.61.36-1.05.36c-.23 0-.46-.05-.68-.14s-.39-.22-.5-.38l.34-.43c.22.26.49.39.81.39.24 0 .42-.06.56-.19s.21-.32.21-.56v-.21c-.21.23-.48.34-.82.34-.37 0-.67-.15-.91-.44-.25-.3-.36-.71-.36-1.23zm.7.06c0 .32.06.57.2.75.13.18.31.27.54.27.29 0 .5-.12.64-.37v-1.39c-.13-.24-.35-.36-.63-.36-.23 0-.42.09-.55.28-.13.18-.2.46-.2.82zM131.68 82.4l.64-2.15h.76l-1.26 3.65c-.19.53-.52.8-.98.8-.1 0-.22-.02-.34-.05v-.55l.13.01c.18 0 .32-.03.41-.1.09-.07.16-.18.22-.33l.1-.27-1.11-3.15h.77l.66 2.14zM134.87 82.27c0-.2.05-.38.16-.54s.32-.36.64-.59c-.17-.21-.28-.39-.35-.53s-.1-.29-.1-.42c0-.33.1-.6.3-.79s.48-.29.82-.29c.31 0 .56.09.76.27.2.18.3.41.3.68 0 .18-.04.34-.13.49s-.24.3-.44.45l-.29.21.82.97c.12-.23.18-.5.18-.78h.62c0 .53-.12.96-.37 1.29l.63.74h-.83l-.24-.28c-.3.23-.67.34-1.09.34s-.76-.11-1.01-.33-.38-.53-.38-.89zm1.42.64c.24 0 .46-.08.67-.24l-.93-1.1-.09.06c-.23.18-.35.38-.35.61 0 .2.06.36.19.48s.29.19.51.19zm-.4-2.74c0 .16.1.37.3.62l.33-.22.09-.07c.12-.11.18-.25.18-.41 0-.11-.04-.21-.13-.29s-.19-.12-.32-.12c-.14 0-.25.05-.33.14s-.12.2-.12.35zM141.95 81.78h-.83v1.64h-.74v-4.27h1.5c.49 0 .87.11 1.14.33.27.22.4.54.4.96 0 .29-.07.52-.21.72-.14.19-.33.34-.58.44l.96 1.78v.04h-.79l-.85-1.64zm-.82-.59h.76c.25 0 .45-.06.59-.19s.21-.3.21-.52c0-.23-.07-.41-.19-.53-.13-.12-.32-.19-.58-.19h-.78v1.43zM145.46 83.48c-.45 0-.82-.14-1.1-.43-.28-.28-.42-.66-.42-1.14v-.09c0-.32.06-.6.18-.85s.29-.44.51-.58.47-.21.74-.21c.43 0 .76.14 1 .41.23.28.35.67.35 1.17v.29h-2.07c.02.26.11.47.26.62s.35.23.58.23c.33 0 .59-.13.8-.4l.38.37c-.13.19-.3.34-.51.44-.2.12-.44.17-.7.17zm-.09-2.71c-.2 0-.35.07-.47.21-.12.14-.2.33-.23.57h1.36v-.05c-.02-.24-.08-.42-.19-.54s-.27-.19-.47-.19zM149.06 82.56c0-.13-.05-.22-.16-.29s-.28-.12-.52-.18-.44-.12-.61-.19c-.36-.17-.53-.42-.53-.75 0-.27.12-.5.35-.69s.52-.28.88-.28c.38 0 .68.09.92.28.23.19.35.43.35.73h-.71c0-.14-.05-.25-.15-.34s-.24-.14-.4-.14c-.16 0-.28.04-.38.11-.1.07-.15.17-.15.29 0 .11.05.19.14.25s.28.12.56.18.5.13.66.22.28.19.36.31c.08.12.12.26.12.43 0 .29-.12.52-.35.69s-.55.26-.93.26c-.26 0-.49-.05-.69-.14s-.36-.22-.47-.39-.17-.34-.17-.53h.69c.01.17.07.3.19.39s.27.14.47.14c.19 0 .33-.04.43-.11s.1-.13.1-.25zM151.77 83.48c-.45 0-.82-.14-1.1-.43-.28-.28-.42-.66-.42-1.14v-.09c0-.32.06-.6.18-.85s.29-.44.51-.58.47-.21.74-.21c.43 0 .76.14 1 .41.23.28.35.67.35 1.17v.29h-2.07c.02.26.11.47.26.62s.35.23.58.23c.33 0 .59-.13.8-.4l.38.37c-.13.19-.3.34-.51.44-.2.12-.43.17-.7.17zm-.08-2.71c-.2 0-.35.07-.47.21-.12.14-.2.33-.23.57h1.36v-.05c-.02-.24-.08-.42-.19-.54s-.28-.19-.47-.19zM155.49 83.42c-.03-.06-.06-.16-.08-.3-.23.24-.5.35-.83.35-.32 0-.58-.09-.78-.27s-.3-.41-.3-.67c0-.34.12-.6.38-.78.25-.18.61-.27 1.08-.27h.44v-.21c0-.16-.05-.29-.14-.39s-.23-.15-.42-.15c-.16 0-.29.04-.4.12s-.16.18-.16.31h-.71c0-.17.06-.34.17-.49s.27-.27.47-.36c.2-.09.42-.13.66-.13.37 0 .67.09.89.28s.33.45.34.79v1.43c0 .29.04.51.12.68v.05h-.73zm-.78-.51c.14 0 .27-.03.4-.1s.22-.16.28-.28v-.6H155c-.26 0-.46.05-.59.14s-.2.22-.2.39c0 .14.05.25.14.33.08.08.21.12.36.12zM158.5 80.9c-.09-.02-.19-.02-.29-.02-.33 0-.55.12-.66.38v2.17h-.71v-3.17h.68l.02.35c.17-.28.41-.41.71-.41.1 0 .19.01.25.04v.66zM160.2 82.91c.18 0 .33-.05.44-.16s.18-.23.19-.38h.67c-.01.2-.07.38-.18.55s-.27.31-.47.41-.41.15-.64.15c-.44 0-.79-.14-1.05-.43s-.39-.68-.39-1.19v-.07c0-.48.13-.87.39-1.16s.61-.44 1.05-.44c.38 0 .68.11.92.33.24.22.36.51.37.87h-.67a.661.661 0 0 0-.19-.45.588.588 0 0 0-.44-.18c-.23 0-.41.08-.53.25s-.19.42-.19.76v.11c0 .34.06.6.19.77s.29.26.53.26zM162.74 80.6c.23-.27.53-.4.88-.4.68 0 1.02.39 1.03 1.16v2.07h-.71v-2.04c0-.22-.05-.37-.14-.46-.1-.09-.23-.14-.42-.14-.29 0-.5.13-.64.38v2.26h-.71v-4.5h.71v1.67z"/></svg>