<?xml version="1.0" encoding="utf-8"?>
<!-- Generator: Adobe Illustrator 24.2.3, SVG Export Plug-In . SVG Version: 6.00 Build 0)  -->
<svg version="1.1" id="Layer_1" xmlns="http://www.w3.org/2000/svg" xmlns:xlink="http://www.w3.org/1999/xlink" x="0px" y="0px"
	 viewBox="0 0 300 600" style="enable-background:new 0 0 300 600;" xml:space="preserve">
<style type="text/css">
	.st0{fill:none;}
	.st1{fill:url(#SVGID_1_);}
	.st2{fill:#FFFFFF;}
	.st3{font-family:'Roboto-Bold';}
	.st4{font-size:19.2381px;}
	.st5{fill:#021D8B;}
</style>
<line class="st0" x1="0" y1="0" x2="0" y2="600"/>
<linearGradient id="SVGID_1_" gradientUnits="userSpaceOnUse" x1="89.3172" y1="434.1255" x2="208.034" y2="434.1255">
	<stop  offset="0" style="stop-color:#18B9FB"/>
	<stop  offset="0.5" style="stop-color:#782EEB"/>
	<stop  offset="1" style="stop-color:#E82D8A"/>
</linearGradient>
<path class="st1" d="M206.7,435.46H90.65c-0.73,0-1.33-0.6-1.33-1.33v0c0-0.73,0.6-1.33,1.33-1.33H206.7c0.73,0,1.33,0.6,1.33,1.33
	v0C208.03,434.86,207.44,435.46,206.7,435.46z"/>
<g id="Button_3_">
	<text transform="matrix(1 0 0 1 91.9658 390.8525)" class="st2 st3 st4">LEARN MORE</text>
</g>
<g>
	<path class="st5" d="M43.72,287.65c0-0.91,0.3-1.64,0.89-2.21s1.36-0.85,2.31-0.85c0.97,0,1.75,0.28,2.34,0.83s0.88,1.27,0.9,2.17
		v0.53c0,0.91-0.29,1.64-0.88,2.19c-0.58,0.55-1.36,0.83-2.34,0.83c-0.96,0-1.73-0.27-2.32-0.82c-0.59-0.55-0.89-1.26-0.91-2.14
		V287.65z"/>
	<path class="st5" d="M69.04,292.43c0-0.65-0.23-1.16-0.69-1.52c-0.46-0.36-1.27-0.74-2.43-1.13s-2.11-0.77-2.84-1.13
		c-2.4-1.18-3.59-2.79-3.59-4.85c0-1.02,0.3-1.93,0.89-2.71c0.6-0.78,1.44-1.39,2.53-1.83s2.32-0.65,3.68-0.65
		c1.33,0,2.52,0.24,3.57,0.71c1.05,0.47,1.87,1.15,2.46,2.03c0.58,0.88,0.88,1.88,0.88,3h-4.44c0-0.75-0.23-1.34-0.69-1.75
		c-0.46-0.42-1.09-0.62-1.87-0.62c-0.8,0-1.42,0.18-1.88,0.53c-0.46,0.35-0.69,0.8-0.69,1.34c0,0.47,0.25,0.9,0.76,1.29
		c0.51,0.38,1.4,0.78,2.68,1.19c1.28,0.41,2.33,0.85,3.15,1.33c2,1.15,3,2.74,3,4.76c0,1.62-0.61,2.89-1.83,3.81
		s-2.89,1.38-5.01,1.38c-1.5,0-2.85-0.27-4.07-0.81c-1.21-0.54-2.13-1.27-2.74-2.21c-0.61-0.93-0.92-2.01-0.92-3.23h4.47
		c0,0.99,0.26,1.72,0.77,2.19c0.51,0.47,1.34,0.71,2.5,0.71c0.74,0,1.32-0.16,1.75-0.48C68.82,293.45,69.04,293,69.04,292.43z"/>
	<path class="st5" d="M82.23,297.59c-2.11,0-3.81-0.63-5.12-1.88c-1.3-1.26-1.96-2.89-1.96-4.91v-0.36c0-1.41,0.26-2.64,0.78-3.72
		c0.52-1.08,1.28-1.91,2.28-2.49c1-0.59,2.18-0.88,3.55-0.88c1.93,0,3.45,0.6,4.57,1.8c1.12,1.2,1.68,2.87,1.68,5.01v1.66h-8.51
		c0.15,0.77,0.49,1.38,1,1.82s1.18,0.66,2.01,0.66c1.35,0,2.41-0.47,3.17-1.42l1.96,2.31c-0.53,0.74-1.29,1.32-2.27,1.76
		C84.4,297.37,83.35,297.59,82.23,297.59z M81.74,286.65c-1.25,0-2,0.83-2.23,2.49h4.32v-0.33c0.02-0.69-0.16-1.22-0.52-1.59
		C82.94,286.84,82.42,286.65,81.74,286.65z"/>
	<path class="st5" d="M95.54,294.29c0.6,0,1.07-0.16,1.4-0.49c0.33-0.33,0.49-0.78,0.48-1.37h4.01c0,1.51-0.54,2.74-1.62,3.71
		c-1.08,0.96-2.47,1.45-4.17,1.45c-2,0-3.57-0.63-4.72-1.88s-1.73-2.99-1.73-5.21v-0.18c0-1.39,0.26-2.61,0.77-3.68
		c0.51-1.06,1.25-1.88,2.22-2.45c0.96-0.57,2.11-0.86,3.43-0.86c1.79,0,3.2,0.5,4.25,1.49s1.57,2.33,1.57,4.02h-4.01
		c0-0.71-0.17-1.26-0.52-1.64s-0.81-0.57-1.4-0.57c-1.11,0-1.76,0.71-1.94,2.12c-0.06,0.45-0.09,1.07-0.09,1.85
		c0,1.38,0.17,2.34,0.5,2.87S94.82,294.29,95.54,294.29z"/>
	<path class="st5" d="M111.42,295.85c-0.91,1.16-2.13,1.74-3.67,1.74c-1.51,0-2.65-0.44-3.42-1.31c-0.77-0.88-1.16-2.13-1.16-3.78
		v-8.9h4.28v8.92c0,1.18,0.57,1.76,1.71,1.76c0.98,0,1.68-0.35,2.09-1.05v-9.64h4.3v13.74h-4.01L111.42,295.85z"/>
	<path class="st5" d="M126.21,287.47l-1.41-0.1c-1.35,0-2.21,0.42-2.59,1.27v8.7h-4.28V283.6h4.01l0.14,1.76
		c0.72-1.35,1.72-2.02,3.01-2.02c0.46,0,0.85,0.05,1.19,0.15L126.21,287.47z"/>
	<path class="st5" d="M134.4,297.59c-2.11,0-3.81-0.63-5.12-1.88c-1.3-1.26-1.96-2.89-1.96-4.91v-0.36c0-1.41,0.26-2.64,0.78-3.72
		c0.52-1.08,1.28-1.91,2.28-2.49c1-0.59,2.18-0.88,3.55-0.88c1.93,0,3.45,0.6,4.57,1.8c1.12,1.2,1.68,2.87,1.68,5.01v1.66h-8.51
		c0.15,0.77,0.49,1.38,1,1.82s1.18,0.66,2.01,0.66c1.35,0,2.41-0.47,3.17-1.42l1.96,2.31c-0.53,0.74-1.29,1.32-2.27,1.76
		C136.58,297.37,135.53,297.59,134.4,297.59z M133.92,286.65c-1.25,0-2,0.83-2.23,2.49H136v-0.33c0.02-0.69-0.16-1.22-0.52-1.59
		C135.12,286.84,134.6,286.65,133.92,286.65z"/>
	<path class="st5" d="M148.58,297.34v-18.48h6.64c2.38,0,4.19,0.44,5.43,1.31c1.24,0.87,1.86,2.14,1.86,3.8
		c0,0.96-0.22,1.77-0.66,2.45s-1.09,1.18-1.94,1.5c0.96,0.25,1.71,0.73,2.22,1.42s0.77,1.54,0.77,2.54c0,1.81-0.57,3.17-1.72,4.08
		c-1.15,0.91-2.85,1.37-5.1,1.39H148.58z M153.04,286.56h2.32c0.97-0.01,1.67-0.19,2.08-0.54c0.42-0.35,0.62-0.86,0.62-1.54
		c0-0.78-0.22-1.34-0.67-1.69s-1.17-0.52-2.17-0.52h-2.18V286.56z M153.04,289.48v4.43h2.92c0.8,0,1.42-0.18,1.85-0.55
		c0.43-0.37,0.65-0.89,0.65-1.55c0-1.54-0.77-2.31-2.3-2.32H153.04z"/>
	<path class="st5" d="M173.47,287.47l-1.41-0.1c-1.35,0-2.21,0.42-2.59,1.27v8.7h-4.28V283.6h4.01l0.14,1.76
		c0.72-1.35,1.72-2.02,3.01-2.02c0.46,0,0.85,0.05,1.19,0.15L173.47,287.47z"/>
	<path class="st5" d="M174.01,290.34c0-1.37,0.27-2.59,0.8-3.66c0.53-1.07,1.3-1.89,2.3-2.47s2.17-0.86,3.52-0.86
		c2.06,0,3.68,0.64,4.86,1.91c1.18,1.27,1.78,3.01,1.78,5.2v0.15c0,2.14-0.59,3.84-1.78,5.1c-1.19,1.26-2.8,1.88-4.83,1.88
		c-1.96,0-3.53-0.59-4.71-1.76c-1.18-1.17-1.82-2.76-1.92-4.77L174.01,290.34z M178.29,290.61c0,1.27,0.2,2.2,0.6,2.79
		s0.99,0.89,1.76,0.89c1.52,0,2.3-1.17,2.34-3.52v-0.43c0-2.46-0.79-3.69-2.36-3.69c-1.43,0-2.21,1.06-2.32,3.19L178.29,290.61z"/>
	<path class="st5" d="M201.02,291.7l1.38-8.1h4.1l-3.24,13.74h-3.62l-2.27-8.15l-2.29,8.15h-3.62l-3.24-13.74h4.1l1.36,8.29
		l2.18-8.29h2.98L201.02,291.7z"/>
	<path class="st5" d="M215.22,293.48c0-0.36-0.19-0.66-0.57-0.88s-1.1-0.45-2.17-0.69s-1.95-0.55-2.64-0.93
		c-0.69-0.39-1.22-0.85-1.59-1.4s-0.55-1.18-0.55-1.89c0-1.26,0.52-2.3,1.56-3.12c1.04-0.82,2.4-1.22,4.09-1.22
		c1.81,0,3.27,0.41,4.37,1.23s1.65,1.9,1.65,3.24h-4.29c0-1.1-0.58-1.65-1.74-1.65c-0.45,0-0.83,0.12-1.13,0.38
		c-0.3,0.25-0.46,0.56-0.46,0.93c0,0.38,0.19,0.69,0.56,0.93s0.97,0.43,1.78,0.58c0.82,0.15,1.53,0.33,2.15,0.55
		c2.07,0.71,3.1,1.98,3.1,3.82c0,1.25-0.56,2.27-1.67,3.06c-1.11,0.79-2.55,1.18-4.32,1.18c-1.18,0-2.23-0.21-3.15-0.63
		s-1.64-1-2.16-1.73s-0.77-1.49-0.77-2.3h4c0.02,0.63,0.23,1.1,0.63,1.39c0.41,0.29,0.93,0.44,1.56,0.44c0.58,0,1.02-0.12,1.31-0.36
		C215.08,294.17,215.22,293.86,215.22,293.48z"/>
	<path class="st5" d="M227.99,297.59c-2.11,0-3.81-0.63-5.12-1.88c-1.3-1.26-1.96-2.89-1.96-4.91v-0.36c0-1.41,0.26-2.64,0.78-3.72
		c0.52-1.08,1.28-1.91,2.28-2.49c1-0.59,2.18-0.88,3.55-0.88c1.93,0,3.45,0.6,4.57,1.8c1.12,1.2,1.68,2.87,1.68,5.01v1.66h-8.51
		c0.15,0.77,0.49,1.38,1,1.82s1.18,0.66,2.01,0.66c1.35,0,2.41-0.47,3.17-1.42l1.96,2.31c-0.53,0.74-1.29,1.32-2.27,1.76
		C230.17,297.37,229.12,297.59,227.99,297.59z M227.51,286.65c-1.25,0-2,0.83-2.23,2.49h4.32v-0.33c0.02-0.69-0.16-1.22-0.52-1.59
		C228.71,286.84,228.19,286.65,227.51,286.65z"/>
	<path class="st5" d="M243.81,287.47l-1.41-0.1c-1.35,0-2.21,0.42-2.59,1.27v8.7h-4.28V283.6h4.01l0.14,1.76
		c0.72-1.35,1.72-2.02,3.01-2.02c0.46,0,0.85,0.05,1.19,0.15L243.81,287.47z"/>
	<path class="st5" d="M43.72,318.85c0-0.91,0.3-1.64,0.89-2.21s1.36-0.85,2.31-0.85c0.97,0,1.75,0.28,2.34,0.83s0.88,1.27,0.9,2.17
		v0.53c0,0.91-0.29,1.64-0.88,2.19c-0.58,0.55-1.36,0.83-2.34,0.83c-0.96,0-1.73-0.27-2.32-0.82c-0.59-0.55-0.89-1.26-0.91-2.14
		V318.85z"/>
	<path class="st5" d="M69.04,323.62c0-0.65-0.23-1.16-0.69-1.52c-0.46-0.36-1.27-0.74-2.43-1.13s-2.11-0.77-2.84-1.13
		c-2.4-1.18-3.59-2.79-3.59-4.85c0-1.02,0.3-1.93,0.89-2.71c0.6-0.78,1.44-1.39,2.53-1.83c1.09-0.44,2.32-0.65,3.68-0.65
		c1.33,0,2.52,0.24,3.57,0.71c1.05,0.47,1.87,1.15,2.46,2.03c0.58,0.88,0.88,1.88,0.88,3h-4.44c0-0.75-0.23-1.34-0.69-1.75
		c-0.46-0.42-1.09-0.62-1.87-0.62c-0.8,0-1.42,0.18-1.88,0.53c-0.46,0.35-0.69,0.8-0.69,1.34c0,0.47,0.25,0.9,0.76,1.29
		c0.51,0.38,1.4,0.78,2.68,1.19c1.28,0.41,2.33,0.85,3.15,1.33c2,1.15,3,2.74,3,4.76c0,1.62-0.61,2.89-1.83,3.81
		s-2.89,1.38-5.01,1.38c-1.5,0-2.85-0.27-4.07-0.81c-1.21-0.54-2.13-1.27-2.74-2.21c-0.61-0.93-0.92-2.01-0.92-3.23h4.47
		c0,0.99,0.26,1.72,0.77,2.19c0.51,0.47,1.34,0.71,2.5,0.71c0.74,0,1.32-0.16,1.75-0.48C68.82,324.65,69.04,324.2,69.04,323.62z"/>
	<path class="st5" d="M82.23,328.79c-2.11,0-3.81-0.63-5.12-1.88c-1.3-1.26-1.96-2.89-1.96-4.91v-0.36c0-1.41,0.26-2.64,0.78-3.72
		c0.52-1.08,1.28-1.91,2.28-2.49c1-0.59,2.18-0.88,3.55-0.88c1.93,0,3.45,0.6,4.57,1.8c1.12,1.2,1.68,2.87,1.68,5.01v1.66h-8.51
		c0.15,0.77,0.49,1.38,1,1.82s1.18,0.66,2.01,0.66c1.35,0,2.41-0.47,3.17-1.42l1.96,2.31c-0.53,0.74-1.29,1.32-2.27,1.76
		C84.4,328.57,83.35,328.79,82.23,328.79z M81.74,317.85c-1.25,0-2,0.83-2.23,2.49h4.32v-0.33c0.02-0.69-0.16-1.22-0.52-1.59
		C82.94,318.04,82.42,317.85,81.74,317.85z"/>
	<path class="st5" d="M95.54,325.49c0.6,0,1.07-0.16,1.4-0.49c0.33-0.33,0.49-0.78,0.48-1.37h4.01c0,1.51-0.54,2.74-1.62,3.71
		c-1.08,0.96-2.47,1.45-4.17,1.45c-2,0-3.57-0.63-4.72-1.88s-1.73-2.99-1.73-5.21v-0.18c0-1.39,0.26-2.61,0.77-3.68
		c0.51-1.06,1.25-1.88,2.22-2.45c0.96-0.57,2.11-0.86,3.43-0.86c1.79,0,3.2,0.5,4.25,1.49s1.57,2.33,1.57,4.02h-4.01
		c0-0.71-0.17-1.26-0.52-1.64s-0.81-0.57-1.4-0.57c-1.11,0-1.76,0.71-1.94,2.12c-0.06,0.45-0.09,1.07-0.09,1.85
		c0,1.38,0.17,2.34,0.5,2.87S94.82,325.49,95.54,325.49z"/>
	<path class="st5" d="M111.42,327.05c-0.91,1.16-2.13,1.74-3.67,1.74c-1.51,0-2.65-0.44-3.42-1.31c-0.77-0.88-1.16-2.13-1.16-3.78
		v-8.9h4.28v8.92c0,1.18,0.57,1.76,1.71,1.76c0.98,0,1.68-0.35,2.09-1.05v-9.64h4.3v13.74h-4.01L111.42,327.05z"/>
	<path class="st5" d="M126.21,318.67l-1.41-0.1c-1.35,0-2.21,0.42-2.59,1.27v8.7h-4.28V314.8h4.01l0.14,1.76
		c0.72-1.35,1.72-2.02,3.01-2.02c0.46,0,0.85,0.05,1.19,0.15L126.21,318.67z"/>
	<path class="st5" d="M134.4,328.79c-2.11,0-3.81-0.63-5.12-1.88c-1.3-1.26-1.96-2.89-1.96-4.91v-0.36c0-1.41,0.26-2.64,0.78-3.72
		c0.52-1.08,1.28-1.91,2.28-2.49c1-0.59,2.18-0.88,3.55-0.88c1.93,0,3.45,0.6,4.57,1.8c1.12,1.2,1.68,2.87,1.68,5.01v1.66h-8.51
		c0.15,0.77,0.49,1.38,1,1.82s1.18,0.66,2.01,0.66c1.35,0,2.41-0.47,3.17-1.42l1.96,2.31c-0.53,0.74-1.29,1.32-2.27,1.76
		C136.58,328.57,135.53,328.79,134.4,328.79z M133.92,317.85c-1.25,0-2,0.83-2.23,2.49H136v-0.33c0.02-0.69-0.16-1.22-0.52-1.59
		C135.12,318.04,134.6,317.85,133.92,317.85z"/>
	<path class="st5" d="M154.87,321.66l-1.83,2.01v4.88h-4.46v-18.48h4.46v8.15l1.55-2.35l3.99-5.8h5.51l-6.25,8.18l6.25,10.31h-5.28
		L154.87,321.66z"/>
	<path class="st5" d="M171.66,328.79c-2.11,0-3.81-0.63-5.12-1.88c-1.3-1.26-1.96-2.89-1.96-4.91v-0.36c0-1.41,0.26-2.64,0.78-3.72
		c0.52-1.08,1.28-1.91,2.28-2.49c1-0.59,2.18-0.88,3.55-0.88c1.93,0,3.45,0.6,4.57,1.8c1.12,1.2,1.68,2.87,1.68,5.01v1.66h-8.51
		c0.15,0.77,0.49,1.38,1,1.82s1.18,0.66,2.01,0.66c1.35,0,2.41-0.47,3.17-1.42l1.96,2.31c-0.53,0.74-1.29,1.32-2.27,1.76
		C173.84,328.57,172.79,328.79,171.66,328.79z M171.18,317.85c-1.25,0-2,0.83-2.23,2.49h4.32v-0.33c0.02-0.69-0.16-1.22-0.52-1.59
		C172.38,318.04,171.86,317.85,171.18,317.85z"/>
	<path class="st5" d="M184.66,322.55l2.29-7.74h4.58l-5.6,16.03l-0.24,0.58c-0.8,1.78-2.2,2.67-4.21,2.67
		c-0.56,0-1.15-0.08-1.76-0.25v-3.05h0.56c0.6,0,1.06-0.09,1.38-0.26c0.32-0.17,0.55-0.48,0.7-0.93l0.34-0.92l-4.77-13.87h4.57
		L184.66,322.55z"/>
	<path class="st5" d="M205.4,321.78c0,2.25-0.47,3.98-1.4,5.19s-2.24,1.82-3.94,1.82c-1.4,0-2.52-0.55-3.38-1.66l-0.18,1.41h-3.83
		v-19.5h4.28v6.87c0.8-0.91,1.82-1.36,3.08-1.36c1.71,0,3.03,0.61,3.96,1.84s1.4,2.95,1.4,5.18V321.78z M201.1,321.51
		c0-1.32-0.18-2.26-0.53-2.82c-0.35-0.56-0.89-0.84-1.62-0.84c-0.96,0-1.63,0.37-2.01,1.1v5.45c0.36,0.73,1.04,1.09,2.03,1.09
		c1.01,0,1.65-0.49,1.92-1.47C201.04,323.54,201.1,322.7,201.1,321.51z"/>
	<path class="st5" d="M206.74,321.54c0-1.37,0.27-2.59,0.8-3.66c0.53-1.07,1.3-1.89,2.3-2.47s2.17-0.86,3.52-0.86
		c2.06,0,3.68,0.64,4.86,1.91c1.18,1.27,1.78,3.01,1.78,5.2v0.15c0,2.14-0.59,3.84-1.78,5.1c-1.19,1.26-2.8,1.88-4.83,1.88
		c-1.96,0-3.53-0.59-4.71-1.76c-1.18-1.17-1.82-2.76-1.92-4.77L206.74,321.54z M211.02,321.81c0,1.27,0.2,2.2,0.6,2.79
		s0.99,0.89,1.76,0.89c1.52,0,2.3-1.17,2.34-3.52v-0.43c0-2.46-0.79-3.69-2.36-3.69c-1.43,0-2.21,1.06-2.32,3.19L211.02,321.81z"/>
	<path class="st5" d="M229.62,328.54c-0.15-0.28-0.29-0.69-0.41-1.23c-0.79,0.99-1.89,1.49-3.3,1.49c-1.29,0-2.4-0.39-3.3-1.17
		c-0.91-0.78-1.36-1.77-1.36-2.95c0-1.49,0.55-2.62,1.65-3.38s2.7-1.14,4.8-1.14h1.32v-0.73c0-1.27-0.55-1.9-1.64-1.9
		c-1.02,0-1.52,0.5-1.52,1.51h-4.28c0-1.33,0.57-2.41,1.69-3.23c1.13-0.83,2.57-1.24,4.32-1.24s3.14,0.43,4.15,1.28
		s1.54,2.03,1.56,3.52v6.08c0.02,1.26,0.21,2.23,0.58,2.89v0.22H229.62z M226.94,325.75c0.53,0,0.98-0.11,1.33-0.34
		c0.35-0.23,0.6-0.49,0.75-0.77v-2.2h-1.24c-1.49,0-2.23,0.67-2.23,2.01c0,0.39,0.13,0.7,0.39,0.95
		C226.2,325.62,226.53,325.75,226.94,325.75z"/>
	<path class="st5" d="M243.99,318.67l-1.41-0.1c-1.35,0-2.21,0.42-2.59,1.27v8.7h-4.28V314.8h4.01l0.14,1.76
		c0.72-1.35,1.72-2.02,3.01-2.02c0.46,0,0.85,0.05,1.19,0.15L243.99,318.67z"/>
	<path class="st5" d="M244.99,321.57c0-2.17,0.47-3.89,1.41-5.14s2.25-1.88,3.94-1.88c1.23,0,2.26,0.48,3.1,1.45v-6.96h4.29v19.5
		h-3.85l-0.22-1.47c-0.88,1.15-2,1.73-3.35,1.73c-1.63,0-2.93-0.63-3.88-1.88S244.99,323.88,244.99,321.57z M249.27,321.83
		c0,2.44,0.71,3.66,2.13,3.66c0.95,0,1.62-0.4,2.03-1.19v-5.23c-0.39-0.81-1.06-1.22-2.01-1.22c-1.32,0-2.04,1.07-2.15,3.2
		L249.27,321.83z"/>
</g>
</svg>
