<?xml version="1.0" encoding="utf-8"?>
<!-- Generator: Adobe Illustrator 24.2.3, SVG Export Plug-In . SVG Version: 6.00 Build 0)  -->
<svg version="1.1" id="Layer_1" xmlns="http://www.w3.org/2000/svg" xmlns:xlink="http://www.w3.org/1999/xlink" x="0px" y="0px"
	 viewBox="0 0 300 600" style="enable-background:new 0 0 300 600;" xml:space="preserve">
<style type="text/css">
	.st0{fill:#021D8B;}
</style>
<g>
	<g>
		<path class="st0" d="M43.2,259.05c-1.38-0.4-2.38-0.88-3-1.46s-0.94-1.29-0.94-2.13c0-0.96,0.38-1.75,1.15-2.38
			c0.77-0.63,1.76-0.94,2.99-0.94c0.83,0,1.58,0.16,2.23,0.48s1.16,0.77,1.52,1.34c0.36,0.57,0.54,1.19,0.54,1.86h-1.61
			c0-0.74-0.23-1.32-0.7-1.74c-0.47-0.42-1.13-0.63-1.98-0.63c-0.79,0-1.41,0.17-1.85,0.52c-0.44,0.35-0.66,0.83-0.66,1.45
			c0,0.5,0.21,0.92,0.63,1.26s1.14,0.66,2.15,0.94c1.01,0.29,1.8,0.6,2.37,0.94c0.57,0.34,0.99,0.74,1.27,1.2
			c0.28,0.46,0.41,0.99,0.41,1.61c0,0.99-0.38,1.77-1.15,2.37c-0.77,0.59-1.8,0.89-3.08,0.89c-0.83,0-1.61-0.16-2.34-0.48
			c-0.72-0.32-1.28-0.76-1.67-1.32c-0.39-0.56-0.59-1.19-0.59-1.9h1.61c0,0.74,0.27,1.32,0.81,1.74c0.54,0.43,1.27,0.64,2.18,0.64
			c0.85,0,1.49-0.17,1.95-0.52c0.45-0.34,0.68-0.82,0.68-1.41s-0.21-1.06-0.63-1.38C45.06,259.69,44.3,259.37,43.2,259.05z"/>
		<path class="st0" d="M51.07,256.53c0.69-0.84,1.58-1.26,2.67-1.26c1.91,0,2.87,1.08,2.89,3.23v5.97h-1.54v-5.98
			c-0.01-0.65-0.15-1.13-0.45-1.44c-0.29-0.31-0.75-0.47-1.37-0.47c-0.5,0-0.94,0.13-1.32,0.4c-0.38,0.27-0.67,0.62-0.89,1.05v6.44
			h-1.54v-12.83h1.54V256.53z"/>
		<path class="st0" d="M58.53,259.87c0-0.88,0.17-1.68,0.52-2.39c0.35-0.71,0.83-1.25,1.45-1.64c0.62-0.38,1.33-0.58,2.13-0.58
			c1.23,0,2.23,0.43,2.99,1.28c0.76,0.85,1.14,1.98,1.14,3.4v0.11c0,0.88-0.17,1.67-0.51,2.37c-0.34,0.7-0.82,1.24-1.44,1.63
			c-0.63,0.39-1.35,0.58-2.16,0.58c-1.22,0-2.22-0.43-2.98-1.28c-0.76-0.85-1.14-1.98-1.14-3.38V259.87z M60.09,260.05
			c0,1,0.23,1.81,0.7,2.41c0.46,0.61,1.09,0.91,1.87,0.91c0.79,0,1.41-0.31,1.87-0.92c0.46-0.62,0.69-1.48,0.69-2.58
			c0-0.99-0.24-1.79-0.71-2.41c-0.47-0.62-1.1-0.92-1.88-0.92c-0.76,0-1.38,0.3-1.85,0.91C60.32,258.06,60.09,258.92,60.09,260.05z"
			/>
		<path class="st0" d="M76.33,260.05c0,1.38-0.31,2.48-0.94,3.32c-0.63,0.84-1.48,1.26-2.56,1.26c-1.1,0-1.96-0.35-2.59-1.04v4.35
			H68.7v-12.51h1.41l0.08,1c0.63-0.78,1.5-1.17,2.62-1.17c1.09,0,1.94,0.41,2.58,1.23s0.95,1.96,0.95,3.42V260.05z M74.79,259.88
			c0-1.02-0.22-1.82-0.65-2.41c-0.43-0.59-1.03-0.88-1.79-0.88c-0.94,0-1.64,0.42-2.1,1.24v4.32c0.46,0.82,1.17,1.24,2.12,1.24
			c0.74,0,1.33-0.29,1.77-0.88C74.57,261.91,74.79,261.04,74.79,259.88z"/>
		<path class="st0" d="M87.79,262.08c0-0.42-0.16-0.74-0.47-0.97c-0.31-0.23-0.86-0.43-1.65-0.6s-1.4-0.37-1.86-0.6
			c-0.46-0.23-0.8-0.51-1.02-0.83c-0.22-0.32-0.33-0.71-0.33-1.15c0-0.74,0.31-1.37,0.94-1.88c0.63-0.51,1.43-0.77,2.4-0.77
			c1.02,0,1.85,0.26,2.49,0.79c0.64,0.53,0.96,1.21,0.96,2.03H87.7c0-0.42-0.18-0.79-0.54-1.09c-0.36-0.31-0.81-0.46-1.36-0.46
			c-0.56,0-1,0.12-1.32,0.37c-0.32,0.25-0.48,0.57-0.48,0.96c0,0.37,0.15,0.65,0.44,0.84c0.29,0.19,0.83,0.37,1.6,0.54
			c0.77,0.17,1.4,0.38,1.88,0.62c0.48,0.24,0.83,0.53,1.06,0.86c0.23,0.34,0.35,0.75,0.35,1.23c0,0.81-0.32,1.45-0.97,1.94
			c-0.65,0.49-1.48,0.73-2.51,0.73c-0.72,0-1.36-0.13-1.92-0.38c-0.56-0.26-0.99-0.61-1.31-1.07c-0.31-0.46-0.47-0.96-0.47-1.49
			h1.54c0.03,0.52,0.23,0.93,0.62,1.23c0.39,0.3,0.9,0.46,1.53,0.46c0.58,0,1.05-0.12,1.41-0.36
			C87.61,262.79,87.79,262.47,87.79,262.08z"/>
		<path class="st0" d="M96.92,264.47c-0.09-0.18-0.16-0.5-0.22-0.95c-0.72,0.75-1.58,1.12-2.57,1.12c-0.89,0-1.62-0.25-2.19-0.76
			s-0.86-1.14-0.86-1.92c0-0.94,0.36-1.67,1.07-2.19s1.72-0.78,3.02-0.78h1.5v-0.71c0-0.54-0.16-0.97-0.48-1.29s-0.8-0.48-1.43-0.48
			c-0.55,0-1.01,0.14-1.39,0.42c-0.37,0.28-0.56,0.62-0.56,1.01h-1.55c0-0.45,0.16-0.89,0.48-1.31c0.32-0.42,0.75-0.75,1.3-1
			c0.55-0.24,1.15-0.37,1.81-0.37c1.04,0,1.86,0.26,2.45,0.78c0.59,0.52,0.9,1.24,0.92,2.15v4.16c0,0.83,0.11,1.49,0.32,1.98v0.13
			H96.92z M94.36,263.29c0.48,0,0.94-0.12,1.38-0.38c0.43-0.25,0.75-0.58,0.94-0.98v-1.85h-1.21c-1.89,0-2.84,0.55-2.84,1.66
			c0,0.48,0.16,0.86,0.48,1.14C93.44,263.16,93.85,263.29,94.36,263.29z"/>
		<path class="st0" d="M101.41,264.47v-7.84h-1.43v-1.19h1.43v-0.93c0-0.97,0.26-1.72,0.78-2.25c0.52-0.53,1.25-0.79,2.2-0.79
			c0.36,0,0.71,0.05,1.06,0.14l-0.08,1.25c-0.26-0.05-0.54-0.08-0.84-0.08c-0.5,0-0.89,0.15-1.16,0.44
			c-0.27,0.29-0.41,0.71-0.41,1.26v0.96h1.93v1.19h-1.93v7.84H101.41z"/>
		<path class="st0" d="M110.34,264.64c-1.23,0-2.22-0.4-2.99-1.21c-0.77-0.8-1.15-1.88-1.15-3.23v-0.28c0-0.9,0.17-1.7,0.51-2.4
			c0.34-0.7,0.82-1.26,1.44-1.65c0.62-0.4,1.28-0.6,2-0.6c1.17,0,2.09,0.39,2.74,1.16s0.98,1.88,0.98,3.32v0.64h-6.12
			c0.02,0.89,0.28,1.61,0.78,2.16c0.5,0.55,1.13,0.82,1.9,0.82c0.55,0,1.01-0.11,1.39-0.33c0.38-0.22,0.71-0.52,0.99-0.89l0.94,0.74
			C112.99,264.06,111.85,264.64,110.34,264.64z M110.14,256.54c-0.62,0-1.15,0.23-1.57,0.68c-0.42,0.45-0.68,1.09-0.79,1.91h4.53
			v-0.12c-0.04-0.79-0.26-1.39-0.63-1.82C111.3,256.75,110.79,256.54,110.14,256.54z"/>
		<path class="st0" d="M120.01,256.82c-0.23-0.04-0.49-0.06-0.76-0.06c-1.01,0-1.7,0.43-2.06,1.29v6.41h-1.54v-9.04h1.5l0.02,1.04
			c0.51-0.81,1.23-1.21,2.15-1.21c0.3,0,0.53,0.04,0.68,0.12V256.82z"/>
		<path class="st0" d="M133.67,262.34l1.74-6.91h1.54l-2.63,9.04h-1.25l-2.2-6.85l-2.14,6.85h-1.25l-2.62-9.04h1.54l1.78,6.76
			l2.1-6.76h1.24L133.67,262.34z"/>
		<path class="st0" d="M138.53,253.04c0-0.25,0.08-0.46,0.23-0.63c0.15-0.17,0.38-0.26,0.68-0.26c0.3,0,0.53,0.09,0.68,0.26
			s0.23,0.38,0.23,0.63s-0.08,0.46-0.23,0.63s-0.38,0.25-0.68,0.25c-0.3,0-0.53-0.08-0.68-0.25
			C138.61,253.5,138.53,253.29,138.53,253.04z M140.2,264.47h-1.54v-9.04h1.54V264.47z"/>
		<path class="st0" d="M144.77,253.25v2.19h1.69v1.19h-1.69v5.61c0,0.36,0.08,0.63,0.23,0.82c0.15,0.18,0.41,0.27,0.77,0.27
			c0.18,0,0.42-0.03,0.74-0.1v1.25c-0.41,0.11-0.8,0.17-1.19,0.17c-0.69,0-1.21-0.21-1.56-0.63c-0.35-0.42-0.53-1.01-0.53-1.78v-5.6
			h-1.65v-1.19h1.65v-2.19H144.77z"/>
		<path class="st0" d="M149.8,256.53c0.68-0.84,1.58-1.26,2.67-1.26c1.91,0,2.87,1.08,2.89,3.23v5.97h-1.54v-5.98
			c-0.01-0.65-0.16-1.13-0.45-1.44c-0.29-0.31-0.75-0.47-1.37-0.47c-0.5,0-0.94,0.13-1.32,0.4c-0.38,0.27-0.67,0.62-0.89,1.05v6.44
			h-1.54v-12.83h1.54V256.53z"/>
		<path class="st0" d="M163.76,259.71v4.76h-1.6v-12.16h4.48c1.33,0,2.37,0.34,3.13,1.02c0.75,0.68,1.13,1.58,1.13,2.7
			c0,1.18-0.37,2.09-1.11,2.73c-0.74,0.64-1.79,0.96-3.17,0.96H163.76z M163.76,258.4h2.88c0.86,0,1.51-0.2,1.97-0.61
			c0.46-0.4,0.68-0.99,0.68-1.75c0-0.72-0.23-1.3-0.68-1.74c-0.46-0.43-1.08-0.66-1.88-0.68h-2.97V258.4z"/>
		<path class="st0" d="M177.07,256.82c-0.23-0.04-0.49-0.06-0.76-0.06c-1.01,0-1.7,0.43-2.06,1.29v6.41h-1.54v-9.04h1.5l0.03,1.04
			c0.51-0.81,1.22-1.21,2.15-1.21c0.3,0,0.53,0.04,0.69,0.12V256.82z"/>
		<path class="st0" d="M178.5,253.04c0-0.25,0.08-0.46,0.23-0.63s0.38-0.26,0.68-0.26s0.53,0.09,0.68,0.26s0.23,0.38,0.23,0.63
			s-0.08,0.46-0.23,0.63s-0.38,0.25-0.68,0.25s-0.53-0.08-0.68-0.25S178.5,253.29,178.5,253.04z M180.17,264.47h-1.54v-9.04h1.54
			V264.47z"/>
		<path class="st0" d="M185.62,262.38l2.24-6.94h1.58l-3.24,9.04h-1.18l-3.27-9.04h1.58L185.62,262.38z"/>
		<path class="st0" d="M196.38,264.47c-0.09-0.18-0.16-0.5-0.22-0.95c-0.72,0.75-1.58,1.12-2.57,1.12c-0.89,0-1.62-0.25-2.19-0.76
			c-0.57-0.5-0.86-1.14-0.86-1.92c0-0.94,0.36-1.67,1.07-2.19c0.71-0.52,1.72-0.78,3.02-0.78h1.5v-0.71c0-0.54-0.16-0.97-0.48-1.29
			c-0.32-0.32-0.8-0.48-1.43-0.48c-0.55,0-1.01,0.14-1.39,0.42s-0.56,0.62-0.56,1.01h-1.55c0-0.45,0.16-0.89,0.48-1.31
			c0.32-0.42,0.75-0.75,1.3-1c0.55-0.24,1.15-0.37,1.81-0.37c1.04,0,1.86,0.26,2.45,0.78s0.9,1.24,0.92,2.15v4.16
			c0,0.83,0.11,1.49,0.32,1.98v0.13H196.38z M193.81,263.29c0.48,0,0.94-0.12,1.38-0.38c0.43-0.25,0.75-0.58,0.94-0.98v-1.85h-1.21
			c-1.89,0-2.84,0.55-2.84,1.66c0,0.48,0.16,0.86,0.48,1.14C192.89,263.16,193.31,263.29,193.81,263.29z"/>
		<path class="st0" d="M203.73,263.38c0.55,0,1.03-0.17,1.44-0.5s0.64-0.75,0.68-1.25h1.46c-0.03,0.52-0.21,1.01-0.54,1.48
			c-0.33,0.47-0.77,0.84-1.31,1.12c-0.55,0.28-1.13,0.42-1.74,0.42c-1.23,0-2.21-0.41-2.94-1.23s-1.09-1.94-1.09-3.37v-0.26
			c0-0.88,0.16-1.66,0.48-2.35c0.32-0.68,0.79-1.22,1.39-1.59c0.6-0.38,1.32-0.57,2.14-0.57c1.01,0,1.86,0.3,2.53,0.91
			c0.67,0.61,1.03,1.39,1.07,2.36h-1.46c-0.04-0.58-0.27-1.06-0.66-1.44c-0.4-0.38-0.89-0.56-1.47-0.56c-0.79,0-1.39,0.28-1.82,0.85
			c-0.43,0.57-0.65,1.38-0.65,2.45v0.29c0,1.04,0.21,1.84,0.64,2.41S202.93,263.38,203.73,263.38z"/>
		<path class="st0" d="M212.01,262.21l2.1-6.77h1.65l-3.63,10.43c-0.56,1.5-1.46,2.25-2.68,2.25l-0.29-0.03l-0.58-0.11v-1.25
			l0.42,0.03c0.52,0,0.93-0.11,1.22-0.32c0.29-0.21,0.53-0.6,0.72-1.16l0.34-0.92l-3.22-8.94h1.69L212.01,262.21z"/>
		<path class="st0" d="M226.37,262.88c-0.41,0.59-0.99,1.03-1.72,1.32c-0.74,0.29-1.6,0.44-2.58,0.44c-0.99,0-1.87-0.23-2.64-0.7
			s-1.36-1.13-1.78-1.98s-0.64-1.85-0.65-2.98v-1.06c0-1.83,0.43-3.25,1.28-4.26s2.06-1.51,3.6-1.51c1.27,0,2.29,0.32,3.06,0.97
			c0.77,0.65,1.25,1.57,1.42,2.76h-1.6c-0.3-1.61-1.26-2.42-2.87-2.42c-1.07,0-1.89,0.38-2.44,1.13s-0.83,1.85-0.84,3.28v0.99
			c0,1.37,0.31,2.45,0.94,3.26c0.62,0.8,1.47,1.21,2.53,1.21c0.6,0,1.13-0.07,1.58-0.2c0.45-0.13,0.82-0.36,1.12-0.67v-2.72h-2.81
			v-1.31h4.41V262.88z"/>
		<path class="st0" d="M234.38,263.58c-0.6,0.71-1.48,1.06-2.65,1.06c-0.96,0-1.7-0.28-2.2-0.84s-0.76-1.39-0.76-2.48v-5.88h1.54
			v5.84c0,1.37,0.56,2.05,1.67,2.05c1.18,0,1.97-0.44,2.36-1.32v-6.57h1.54v9.04h-1.47L234.38,263.58z"/>
		<path class="st0" d="M243.8,264.47c-0.09-0.18-0.16-0.5-0.22-0.95c-0.72,0.75-1.58,1.12-2.57,1.12c-0.89,0-1.62-0.25-2.19-0.76
			c-0.57-0.5-0.86-1.14-0.86-1.92c0-0.94,0.36-1.67,1.07-2.19c0.71-0.52,1.72-0.78,3.02-0.78h1.5v-0.71c0-0.54-0.16-0.97-0.48-1.29
			c-0.32-0.32-0.8-0.48-1.43-0.48c-0.55,0-1.01,0.14-1.39,0.42s-0.56,0.62-0.56,1.01h-1.55c0-0.45,0.16-0.89,0.48-1.31
			c0.32-0.42,0.75-0.75,1.3-1c0.55-0.24,1.15-0.37,1.81-0.37c1.04,0,1.86,0.26,2.45,0.78s0.9,1.24,0.92,2.15v4.16
			c0,0.83,0.11,1.49,0.32,1.98v0.13H243.8z M241.24,263.29c0.48,0,0.94-0.12,1.38-0.38c0.43-0.25,0.75-0.58,0.94-0.98v-1.85h-1.21
			c-1.89,0-2.84,0.55-2.84,1.66c0,0.48,0.16,0.86,0.48,1.14C240.32,263.16,240.73,263.29,241.24,263.29z"/>
		<path class="st0" d="M251.9,256.82c-0.23-0.04-0.49-0.06-0.76-0.06c-1.01,0-1.7,0.43-2.06,1.29v6.41h-1.54v-9.04h1.5l0.03,1.04
			c0.51-0.81,1.22-1.21,2.15-1.21c0.3,0,0.53,0.04,0.69,0.12V256.82z"/>
		<path class="st0" d="M252.94,259.88c0-1.39,0.33-2.5,0.99-3.34c0.66-0.84,1.52-1.27,2.58-1.27c1.06,0,1.9,0.36,2.51,1.09v-4.71
			h1.54v12.83h-1.42l-0.08-0.97c-0.62,0.76-1.48,1.14-2.58,1.14c-1.05,0-1.9-0.43-2.56-1.29c-0.66-0.86-0.99-1.98-0.99-3.36V259.88z
			 M254.48,260.05c0,1.02,0.21,1.83,0.63,2.41c0.42,0.58,1.01,0.87,1.75,0.87c0.98,0,1.7-0.44,2.15-1.32v-4.15
			c-0.46-0.85-1.17-1.28-2.13-1.28c-0.76,0-1.35,0.29-1.77,0.88C254.7,258.04,254.48,258.91,254.48,260.05z"/>
	</g>
</g>
</svg>
