<?xml version="1.0" encoding="utf-8"?>
<!-- Generator: Adobe Illustrator 24.2.3, SVG Export Plug-In . SVG Version: 6.00 Build 0)  -->
<svg version="1.1" id="Layer_1" xmlns="http://www.w3.org/2000/svg" xmlns:xlink="http://www.w3.org/1999/xlink" x="0px" y="0px"
	 viewBox="0 0 300 250" style="enable-background:new 0 0 300 250;" xml:space="preserve">
<style type="text/css">
	.st0{fill:#021D8B;}
</style>
<g>
	<path class="st0" d="M124.34,162.23l-1.83,1.97v4.88h-3.52v-17.06h3.52v7.73l1.55-2.12l4.35-5.61h4.32l-6.06,7.58l6.23,9.48h-4.18
		L124.34,162.23z"/>
	<path class="st0" d="M137.12,156.39l0.11,1.46c0.91-1.13,2.12-1.7,3.64-1.7c1.34,0,2.34,0.39,3,1.18s0.99,1.97,1.01,3.54v8.19
		h-3.39v-8.11c0-0.72-0.16-1.24-0.47-1.56s-0.83-0.49-1.56-0.49c-0.95,0-1.67,0.41-2.14,1.22v8.94h-3.39v-12.68H137.12z"/>
	<path class="st0" d="M146.92,162.62c0-1.26,0.24-2.38,0.73-3.36s1.18-1.75,2.09-2.29s1.97-0.81,3.17-0.81
		c1.71,0,3.11,0.52,4.19,1.57s1.69,2.47,1.81,4.27l0.02,0.87c0,1.95-0.54,3.51-1.63,4.68s-2.54,1.76-4.37,1.76s-3.29-0.59-4.38-1.76
		s-1.63-2.77-1.63-4.78V162.62z M150.31,162.86c0,1.21,0.23,2.13,0.68,2.76c0.45,0.64,1.1,0.96,1.95,0.96
		c0.82,0,1.46-0.31,1.92-0.95c0.46-0.63,0.69-1.64,0.69-3.02c0-1.18-0.23-2.1-0.69-2.75s-1.11-0.97-1.95-0.97
		c-0.83,0-1.47,0.32-1.92,0.97S150.31,161.5,150.31,162.86z"/>
	<path class="st0" d="M172.04,164.47l1.66-8.07h3.27l-3.23,12.68h-2.84l-2.4-7.98l-2.4,7.98h-2.82l-3.23-12.68h3.27l1.65,8.06
		l2.32-8.06h2.45L172.04,164.47z"/>
	<path class="st0" d="M196.06,162.85c0,2.03-0.43,3.62-1.3,4.75s-2.08,1.71-3.63,1.71c-1.38,0-2.47-0.53-3.29-1.58l-0.15,1.35h-3.05
		v-18h3.39v6.46c0.78-0.91,1.81-1.37,3.08-1.37c1.55,0,2.76,0.57,3.64,1.71s1.32,2.74,1.32,4.8V162.85z M192.67,162.6
		c0-1.28-0.2-2.22-0.61-2.81s-1.01-0.88-1.82-0.88c-1.08,0-1.82,0.44-2.23,1.32v5c0.41,0.89,1.16,1.34,2.25,1.34
		c1.09,0,1.81-0.54,2.16-1.62C192.59,164.44,192.67,163.66,192.67,162.6z"/>
	<path class="st0" d="M203.98,169.31c-1.86,0-3.37-0.57-4.54-1.71s-1.75-2.66-1.75-4.56v-0.33c0-1.27,0.25-2.41,0.74-3.42
		s1.19-1.78,2.09-2.32s1.93-0.81,3.09-0.81c1.73,0,3.1,0.55,4.1,1.64s1.49,2.64,1.49,4.65v1.38h-8.07c0.11,0.83,0.44,1.49,0.99,1.99
		s1.25,0.75,2.09,0.75c1.3,0,2.32-0.47,3.06-1.42l1.66,1.86c-0.51,0.72-1.2,1.28-2.06,1.68S205.03,169.31,203.98,169.31z
		 M203.59,158.89c-0.67,0-1.22,0.23-1.63,0.68c-0.42,0.46-0.69,1.11-0.8,1.95h4.71v-0.27c-0.02-0.75-0.22-1.34-0.61-1.75
		S204.31,158.89,203.59,158.89z"/>
	<path class="st0" d="M212.04,169.07v-10.2h-1.89v-2.48h1.89v-1.08c0-1.42,0.41-2.53,1.22-3.31s1.96-1.18,3.43-1.18
		c0.47,0,1.04,0.08,1.72,0.23l-0.04,2.62c-0.28-0.07-0.62-0.11-1.03-0.11c-1.27,0-1.91,0.6-1.91,1.79v1.02h2.52v2.48h-2.52v10.2
		H212.04z"/>
	<path class="st0" d="M219.19,162.62c0-1.26,0.24-2.38,0.73-3.36s1.18-1.75,2.09-2.29s1.97-0.81,3.17-0.81
		c1.71,0,3.11,0.52,4.19,1.57s1.69,2.47,1.81,4.27l0.02,0.87c0,1.95-0.54,3.51-1.63,4.68s-2.54,1.76-4.37,1.76s-3.29-0.59-4.38-1.76
		s-1.63-2.77-1.63-4.78V162.62z M222.58,162.86c0,1.21,0.23,2.13,0.68,2.76c0.45,0.64,1.1,0.96,1.95,0.96
		c0.82,0,1.46-0.31,1.92-0.95c0.46-0.63,0.69-1.64,0.69-3.02c0-1.18-0.23-2.1-0.69-2.75s-1.11-0.97-1.95-0.97
		c-0.83,0-1.47,0.32-1.92,0.97S222.58,161.5,222.58,162.86z"/>
	<path class="st0" d="M240.41,159.57c-0.46-0.06-0.87-0.09-1.22-0.09c-1.28,0-2.12,0.43-2.52,1.3v8.3h-3.39v-12.68h3.2l0.09,1.51
		c0.68-1.16,1.62-1.75,2.82-1.75c0.38,0,0.73,0.05,1.05,0.15L240.41,159.57z"/>
	<path class="st0" d="M247.88,169.31c-1.86,0-3.37-0.57-4.54-1.71s-1.75-2.66-1.75-4.56v-0.33c0-1.27,0.25-2.41,0.74-3.42
		s1.19-1.78,2.09-2.32s1.93-0.81,3.09-0.81c1.73,0,3.1,0.55,4.1,1.64s1.49,2.64,1.49,4.65v1.38h-8.07c0.11,0.83,0.44,1.49,0.99,1.99
		s1.25,0.75,2.09,0.75c1.3,0,2.32-0.47,3.06-1.42l1.66,1.86c-0.51,0.72-1.2,1.28-2.06,1.68S248.93,169.31,247.88,169.31z
		 M247.49,158.89c-0.67,0-1.22,0.23-1.63,0.68c-0.42,0.46-0.69,1.11-0.8,1.95h4.71v-0.27c-0.02-0.75-0.22-1.34-0.61-1.75
		S248.21,158.89,247.49,158.89z"/>
	<path class="st0" d="M123.51,193.08l2.34-7.89h3.63l-5.1,14.65l-0.28,0.67c-0.76,1.66-2.01,2.48-3.75,2.48
		c-0.49,0-0.99-0.07-1.5-0.22v-2.57l0.52,0.01c0.64,0,1.12-0.1,1.44-0.29s0.56-0.52,0.74-0.97l0.4-1.04l-4.44-12.71h3.64
		L123.51,193.08z"/>
	<path class="st0" d="M130.29,191.42c0-1.26,0.24-2.38,0.73-3.36s1.18-1.75,2.09-2.29s1.97-0.81,3.17-0.81
		c1.71,0,3.11,0.52,4.19,1.57s1.69,2.47,1.81,4.27l0.02,0.87c0,1.95-0.54,3.51-1.63,4.68s-2.54,1.76-4.37,1.76s-3.29-0.59-4.38-1.76
		s-1.63-2.77-1.63-4.78V191.42z M133.68,191.66c0,1.21,0.23,2.13,0.68,2.76c0.45,0.64,1.1,0.96,1.95,0.96
		c0.82,0,1.46-0.31,1.92-0.95c0.46-0.63,0.69-1.64,0.69-3.02c0-1.18-0.23-2.1-0.69-2.75s-1.11-0.97-1.95-0.97
		c-0.83,0-1.47,0.32-1.92,0.97S133.68,190.3,133.68,191.66z"/>
	<path class="st0" d="M151.98,196.58c-0.84,1.02-1.99,1.52-3.47,1.52c-1.36,0-2.4-0.39-3.11-1.17s-1.08-1.93-1.1-3.43v-8.31h3.39
		v8.2c0,1.32,0.6,1.98,1.8,1.98c1.15,0,1.94-0.4,2.37-1.2v-8.99h3.4v12.68h-3.19L151.98,196.58z"/>
	<path class="st0" d="M163.3,191.44c0-1.95,0.46-3.51,1.39-4.7s2.17-1.78,3.74-1.78c1.39,0,2.47,0.48,3.25,1.43l0.14-1.2h3.07v12.26
		c0,1.11-0.25,2.07-0.76,2.89s-1.21,1.45-2.13,1.88s-1.98,0.64-3.21,0.64c-0.93,0-1.84-0.19-2.72-0.56s-1.55-0.85-2-1.44l1.5-2.06
		c0.84,0.95,1.87,1.42,3.07,1.42c0.9,0,1.6-0.24,2.1-0.72s0.75-1.16,0.75-2.04v-0.68c-0.78,0.88-1.81,1.32-3.08,1.32
		c-1.52,0-2.76-0.6-3.7-1.79s-1.41-2.77-1.41-4.74V191.44z M166.69,191.69c0,1.15,0.23,2.05,0.69,2.71c0.46,0.65,1.09,0.98,1.9,0.98
		c1.03,0,1.77-0.39,2.21-1.16v-5.34c-0.45-0.77-1.18-1.16-2.19-1.16c-0.81,0-1.45,0.33-1.92,1S166.69,190.37,166.69,191.69z"/>
	<path class="st0" d="M176.97,191.42c0-1.26,0.24-2.38,0.73-3.36s1.18-1.75,2.09-2.29s1.97-0.81,3.17-0.81
		c1.71,0,3.11,0.52,4.19,1.57s1.69,2.47,1.81,4.27l0.02,0.87c0,1.95-0.54,3.51-1.63,4.68s-2.54,1.76-4.37,1.76s-3.29-0.59-4.38-1.76
		s-1.63-2.77-1.63-4.78V191.42z M180.35,191.66c0,1.21,0.23,2.13,0.68,2.76c0.45,0.64,1.1,0.96,1.95,0.96
		c0.82,0,1.46-0.31,1.92-0.95c0.46-0.63,0.69-1.64,0.69-3.02c0-1.18-0.23-2.1-0.69-2.75s-1.11-0.97-1.95-0.97
		c-0.83,0-1.47,0.32-1.92,0.97S180.35,190.3,180.35,191.66z"/>
	<path class="st0" d="M191.24,196.21c0-0.54,0.18-0.98,0.54-1.31s0.82-0.5,1.37-0.5c0.55,0,1.01,0.17,1.38,0.5s0.54,0.77,0.54,1.31
		c0,0.53-0.18,0.96-0.54,1.29s-0.82,0.5-1.38,0.5c-0.55,0-1.01-0.17-1.37-0.5S191.24,196.74,191.24,196.21z"/>
</g>
</svg>
