<?xml version="1.0" encoding="utf-8"?>
<!-- Generator: Adobe Illustrator 26.3.1, SVG Export Plug-In . SVG Version: 6.00 Build 0)  -->
<svg version="1.1" id="Layer_1" xmlns="http://www.w3.org/2000/svg" xmlns:xlink="http://www.w3.org/1999/xlink" x="0px" y="0px"
	 viewBox="0 0 970 250" style="enable-background:new 0 0 970 250;" xml:space="preserve">
<style type="text/css">
	.st0{fill:#FFFFFF;}
	.st1{fill:#EDF4FD;}
</style>
<g>
	<path class="st0" d="M344.3,196.5c0-0.3-0.1-0.6-0.3-0.7c-0.2-0.2-0.6-0.3-1.2-0.5c-0.6-0.2-1-0.4-1.4-0.6c-0.6-0.4-1-0.9-1-1.6
		c0-0.6,0.2-1,0.7-1.4c0.5-0.4,1.1-0.6,1.8-0.6c0.5,0,0.9,0.1,1.3,0.3c0.4,0.2,0.7,0.4,0.9,0.8s0.3,0.7,0.3,1.1h-1.2
		c0-0.4-0.1-0.7-0.3-0.9c-0.2-0.2-0.6-0.3-1-0.3c-0.4,0-0.7,0.1-0.9,0.3c-0.2,0.2-0.3,0.4-0.3,0.7c0,0.3,0.1,0.5,0.4,0.7
		c0.2,0.2,0.6,0.3,1.2,0.5c0.6,0.2,1,0.4,1.3,0.6s0.6,0.5,0.7,0.7c0.2,0.3,0.2,0.6,0.2,1c0,0.6-0.2,1.1-0.7,1.4
		c-0.5,0.4-1.1,0.5-1.8,0.5c-0.5,0-1-0.1-1.4-0.3c-0.4-0.2-0.8-0.5-1-0.8c-0.2-0.3-0.4-0.7-0.4-1.2h1.2c0,0.4,0.1,0.7,0.4,0.9
		c0.3,0.2,0.6,0.3,1.1,0.3c0.4,0,0.8-0.1,1-0.3C344.2,197,344.3,196.8,344.3,196.5z"/>
	<path class="st0" d="M346.3,195.7c0-0.5,0.1-1,0.3-1.4s0.5-0.7,0.9-1c0.4-0.2,0.8-0.3,1.3-0.3c0.7,0,1.3,0.2,1.7,0.7
		c0.4,0.5,0.7,1.1,0.7,1.8l0,0.3c0,0.5-0.1,1-0.3,1.4c-0.2,0.4-0.5,0.7-0.9,1c-0.4,0.2-0.8,0.3-1.3,0.3c-0.7,0-1.3-0.2-1.8-0.7
		C346.5,197.2,346.3,196.6,346.3,195.7L346.3,195.7z M347.5,195.8c0,0.5,0.1,1,0.3,1.3s0.5,0.5,0.9,0.5s0.7-0.2,0.9-0.5
		c0.2-0.3,0.3-0.8,0.3-1.4c0-0.5-0.1-1-0.3-1.3c-0.2-0.3-0.5-0.5-0.9-0.5c-0.4,0-0.7,0.2-0.9,0.5S347.5,195.2,347.5,195.8z"/>
	<path class="st0" d="M355.4,197.8c-0.3,0.4-0.8,0.6-1.5,0.6c-0.6,0-1-0.2-1.3-0.5c-0.3-0.3-0.4-0.8-0.4-1.5v-3.4h1.2v3.4
		c0,0.7,0.3,1,0.8,1c0.6,0,1-0.2,1.2-0.6v-3.8h1.2v5.3h-1.1L355.4,197.8z"/>
	<path class="st0" d="M360.5,194.2c-0.2,0-0.3,0-0.5,0c-0.5,0-0.9,0.2-1.1,0.6v3.6h-1.2v-5.3h1.1l0,0.6c0.3-0.5,0.7-0.7,1.2-0.7
		c0.2,0,0.3,0,0.4,0.1L360.5,194.2z"/>
	<path class="st0" d="M363.4,197.5c0.3,0,0.5-0.1,0.7-0.3c0.2-0.2,0.3-0.4,0.3-0.6h1.1c0,0.3-0.1,0.6-0.3,0.9
		c-0.2,0.3-0.5,0.5-0.8,0.7s-0.7,0.2-1.1,0.2c-0.7,0-1.3-0.2-1.8-0.7s-0.6-1.1-0.6-2v-0.1c0-0.8,0.2-1.4,0.6-1.9s1-0.7,1.8-0.7
		c0.6,0,1.1,0.2,1.5,0.5c0.4,0.4,0.6,0.8,0.6,1.4h-1.1c0-0.3-0.1-0.6-0.3-0.7c-0.2-0.2-0.4-0.3-0.7-0.3c-0.4,0-0.7,0.1-0.9,0.4
		s-0.3,0.7-0.3,1.3v0.2c0,0.6,0.1,1,0.3,1.3C362.7,197.4,363,197.5,363.4,197.5z"/>
	<path class="st0" d="M368.7,198.5c-0.8,0-1.4-0.2-1.8-0.7c-0.5-0.5-0.7-1.1-0.7-1.9v-0.1c0-0.5,0.1-1,0.3-1.4
		c0.2-0.4,0.5-0.7,0.9-1c0.4-0.2,0.8-0.3,1.2-0.3c0.7,0,1.3,0.2,1.7,0.7c0.4,0.5,0.6,1.1,0.6,1.9v0.5h-3.5c0,0.4,0.2,0.8,0.4,1
		c0.3,0.3,0.6,0.4,1,0.4c0.5,0,1-0.2,1.3-0.7l0.6,0.6c-0.2,0.3-0.5,0.6-0.8,0.7C369.6,198.4,369.2,198.5,368.7,198.5z M368.6,193.9
		c-0.3,0-0.6,0.1-0.8,0.3c-0.2,0.2-0.3,0.5-0.4,1h2.3v-0.1c0-0.4-0.1-0.7-0.3-0.9C369.2,194,368.9,193.9,368.6,193.9z"/>
	<path class="st0" d="M372.5,193c0.2,0,0.4,0.1,0.5,0.2c0.1,0.1,0.2,0.3,0.2,0.5c0,0.2-0.1,0.3-0.2,0.5s-0.3,0.2-0.5,0.2
		c-0.2,0-0.4-0.1-0.5-0.2c-0.1-0.1-0.2-0.3-0.2-0.5c0-0.2,0.1-0.3,0.2-0.5C372.1,193,372.3,193,372.5,193z M372.5,197.1
		c0.2,0,0.4,0.1,0.5,0.2c0.1,0.1,0.2,0.3,0.2,0.5c0,0.2-0.1,0.3-0.2,0.5s-0.3,0.2-0.5,0.2c-0.2,0-0.4-0.1-0.5-0.2
		c-0.1-0.1-0.2-0.3-0.2-0.5c0-0.2,0.1-0.3,0.2-0.5C372.1,197.2,372.3,197.1,372.5,197.1z"/>
	<path class="st0" d="M377.8,193.7c0.4-0.5,0.9-0.7,1.6-0.7c1.1,0,1.7,0.6,1.7,1.9v3.5h-0.9v-3.5c0-0.4-0.1-0.7-0.3-0.8
		c-0.2-0.2-0.4-0.3-0.8-0.3c-0.3,0-0.5,0.1-0.8,0.2s-0.4,0.4-0.5,0.6v3.8h-0.9v-7.5h0.9V193.7z"/>
	<path class="st0" d="M383.7,191.8v1.3h1v0.7h-1v3.3c0,0.2,0,0.4,0.1,0.5c0.1,0.1,0.2,0.2,0.4,0.2c0.1,0,0.2,0,0.4-0.1v0.7
		c-0.2,0.1-0.5,0.1-0.7,0.1c-0.4,0-0.7-0.1-0.9-0.4s-0.3-0.6-0.3-1v-3.3h-1v-0.7h1v-1.3H383.7z"/>
	<path class="st0" d="M386.9,191.8v1.3h1v0.7h-1v3.3c0,0.2,0,0.4,0.1,0.5c0.1,0.1,0.2,0.2,0.4,0.2c0.1,0,0.2,0,0.4-0.1v0.7
		c-0.2,0.1-0.5,0.1-0.7,0.1c-0.4,0-0.7-0.1-0.9-0.4s-0.3-0.6-0.3-1v-3.3h-1v-0.7h1v-1.3H386.9z"/>
	<path class="st0" d="M393.4,195.8c0,0.8-0.2,1.5-0.6,1.9c-0.4,0.5-0.9,0.7-1.5,0.7c-0.6,0-1.1-0.2-1.5-0.6v2.5H389v-7.3h0.8l0,0.6
		c0.4-0.5,0.9-0.7,1.5-0.7c0.6,0,1.1,0.2,1.5,0.7C393.3,194.2,393.4,194.8,393.4,195.8L393.4,195.8z M392.5,195.7
		c0-0.6-0.1-1.1-0.4-1.4c-0.3-0.3-0.6-0.5-1-0.5c-0.5,0-1,0.2-1.2,0.7v2.5c0.3,0.5,0.7,0.7,1.2,0.7c0.4,0,0.8-0.2,1-0.5
		C392.4,196.9,392.5,196.4,392.5,195.7z"/>
	<path class="st0" d="M397.7,197c0-0.2-0.1-0.4-0.3-0.6c-0.2-0.1-0.5-0.3-1-0.3c-0.5-0.1-0.8-0.2-1.1-0.4c-0.3-0.1-0.5-0.3-0.6-0.5
		c-0.1-0.2-0.2-0.4-0.2-0.7c0-0.4,0.2-0.8,0.5-1.1c0.4-0.3,0.8-0.4,1.4-0.4c0.6,0,1.1,0.2,1.5,0.5c0.4,0.3,0.6,0.7,0.6,1.2h-0.9
		c0-0.2-0.1-0.5-0.3-0.6c-0.2-0.2-0.5-0.3-0.8-0.3c-0.3,0-0.6,0.1-0.8,0.2c-0.2,0.1-0.3,0.3-0.3,0.6c0,0.2,0.1,0.4,0.3,0.5
		c0.2,0.1,0.5,0.2,0.9,0.3c0.5,0.1,0.8,0.2,1.1,0.4c0.3,0.1,0.5,0.3,0.6,0.5c0.1,0.2,0.2,0.4,0.2,0.7c0,0.5-0.2,0.9-0.6,1.1
		c-0.4,0.3-0.9,0.4-1.5,0.4c-0.4,0-0.8-0.1-1.1-0.2c-0.3-0.2-0.6-0.4-0.8-0.6c-0.2-0.3-0.3-0.6-0.3-0.9h0.9c0,0.3,0.1,0.5,0.4,0.7
		c0.2,0.2,0.5,0.3,0.9,0.3c0.3,0,0.6-0.1,0.8-0.2C397.6,197.4,397.7,197.2,397.7,197z"/>
	<path class="st0" d="M399.7,197.9c0-0.2,0-0.3,0.1-0.4c0.1-0.1,0.2-0.2,0.4-0.2s0.3,0.1,0.4,0.2c0.1,0.1,0.1,0.2,0.1,0.4
		c0,0.1,0,0.3-0.1,0.4c-0.1,0.1-0.2,0.2-0.4,0.2s-0.3-0.1-0.4-0.2C399.8,198.2,399.7,198,399.7,197.9z M399.7,193.6
		c0-0.2,0-0.3,0.1-0.4c0.1-0.1,0.2-0.2,0.4-0.2s0.3,0.1,0.4,0.2c0.1,0.1,0.1,0.2,0.1,0.4c0,0.1,0,0.3-0.1,0.4
		c-0.1,0.1-0.2,0.2-0.4,0.2s-0.3-0.1-0.4-0.2C399.8,193.8,399.7,193.7,399.7,193.6z"/>
	<path class="st0" d="M402.4,199h-0.8l3-7.7h0.8L402.4,199z"/>
	<path class="st0" d="M405.4,199h-0.8l3-7.7h0.8L405.4,199z"/>
	<path class="st0" d="M414,197.1l1-4h0.9l-1.5,5.3h-0.7l-1.3-4l-1.2,4h-0.7l-1.5-5.3h0.9l1,4l1.2-4h0.7L414,197.1z"/>
	<path class="st0" d="M421.5,197.1l1-4h0.9l-1.5,5.3h-0.7l-1.3-4l-1.2,4h-0.7l-1.5-5.3h0.9l1,4l1.2-4h0.7L421.5,197.1z"/>
	<path class="st0" d="M429,197.1l1-4h0.9l-1.5,5.3h-0.7l-1.3-4l-1.2,4h-0.7l-1.5-5.3h0.9l1,4l1.2-4h0.7L429,197.1z"/>
	<path class="st0" d="M431.3,197.9c0-0.2,0-0.3,0.1-0.4c0.1-0.1,0.2-0.2,0.4-0.2s0.3,0.1,0.4,0.2c0.1,0.1,0.1,0.2,0.1,0.4
		c0,0.1,0,0.3-0.1,0.4c-0.1,0.1-0.2,0.2-0.4,0.2s-0.3-0.1-0.4-0.2C431.3,198.2,431.3,198,431.3,197.9z"/>
	<path class="st0" d="M434.3,198.4v-4.6h-0.8v-0.7h0.8v-0.5c0-0.6,0.2-1,0.5-1.3c0.3-0.3,0.7-0.5,1.3-0.5c0.2,0,0.4,0,0.6,0.1l0,0.7
		c-0.2,0-0.3,0-0.5,0c-0.3,0-0.5,0.1-0.7,0.3c-0.2,0.2-0.2,0.4-0.2,0.7v0.6h1.1v0.7h-1.1v4.6H434.3z"/>
	<path class="st0" d="M438.6,191.8v1.3h1v0.7h-1v3.3c0,0.2,0,0.4,0.1,0.5c0.1,0.1,0.2,0.2,0.4,0.2c0.1,0,0.2,0,0.4-0.1v0.7
		c-0.2,0.1-0.5,0.1-0.7,0.1c-0.4,0-0.7-0.1-0.9-0.4s-0.3-0.6-0.3-1v-3.3h-1v-0.7h1v-1.3H438.6z"/>
	<path class="st0" d="M442.7,197.7c0.3,0,0.6-0.1,0.8-0.3s0.4-0.4,0.4-0.7h0.9c0,0.3-0.1,0.6-0.3,0.9s-0.4,0.5-0.8,0.7
		c-0.3,0.2-0.7,0.2-1,0.2c-0.7,0-1.3-0.2-1.7-0.7c-0.4-0.5-0.6-1.1-0.6-2v-0.2c0-0.5,0.1-1,0.3-1.4s0.5-0.7,0.8-0.9
		c0.4-0.2,0.8-0.3,1.3-0.3c0.6,0,1.1,0.2,1.5,0.5c0.4,0.4,0.6,0.8,0.6,1.4H444c0-0.3-0.2-0.6-0.4-0.8c-0.2-0.2-0.5-0.3-0.9-0.3
		c-0.5,0-0.8,0.2-1.1,0.5c-0.3,0.3-0.4,0.8-0.4,1.4v0.2c0,0.6,0.1,1.1,0.4,1.4C441.9,197.6,442.3,197.7,442.7,197.7z"/>
	<path class="st0" d="M445.9,197.9c0-0.2,0-0.3,0.1-0.4c0.1-0.1,0.2-0.2,0.4-0.2s0.3,0.1,0.4,0.2c0.1,0.1,0.1,0.2,0.1,0.4
		c0,0.1,0,0.3-0.1,0.4c-0.1,0.1-0.2,0.2-0.4,0.2s-0.3-0.1-0.4-0.2C445.9,198.2,445.9,198,445.9,197.9z"/>
	<path class="st0" d="M448.3,195.7c0-0.8,0.2-1.5,0.6-2c0.4-0.5,0.9-0.7,1.5-0.7c0.6,0,1.1,0.2,1.5,0.7l0-0.6h0.8v5.2
		c0,0.7-0.2,1.2-0.6,1.6c-0.4,0.4-1,0.6-1.6,0.6c-0.4,0-0.8-0.1-1.1-0.2c-0.4-0.2-0.6-0.4-0.8-0.7l0.5-0.5c0.4,0.5,0.9,0.7,1.4,0.7
		c0.4,0,0.8-0.1,1-0.4c0.2-0.2,0.4-0.6,0.4-1v-0.5c-0.4,0.4-0.9,0.6-1.5,0.6c-0.6,0-1.1-0.2-1.5-0.7
		C448.5,197.2,448.3,196.5,448.3,195.7z M449.2,195.8c0,0.6,0.1,1.1,0.4,1.4c0.2,0.3,0.6,0.5,1,0.5c0.6,0,1-0.3,1.3-0.8v-2.4
		c-0.3-0.5-0.7-0.8-1.2-0.8c-0.4,0-0.8,0.2-1,0.5S449.2,195.1,449.2,195.8z"/>
	<path class="st0" d="M453.9,195.7c0-0.5,0.1-1,0.3-1.4c0.2-0.4,0.5-0.7,0.8-1c0.4-0.2,0.8-0.3,1.2-0.3c0.7,0,1.3,0.2,1.7,0.7
		c0.4,0.5,0.7,1.2,0.7,2v0.1c0,0.5-0.1,1-0.3,1.4c-0.2,0.4-0.5,0.7-0.8,1c-0.4,0.2-0.8,0.3-1.3,0.3c-0.7,0-1.3-0.2-1.7-0.7
		C454.1,197.2,453.9,196.6,453.9,195.7L453.9,195.7z M454.8,195.8c0,0.6,0.1,1.1,0.4,1.4c0.3,0.4,0.6,0.5,1.1,0.5
		c0.5,0,0.8-0.2,1.1-0.5c0.3-0.4,0.4-0.9,0.4-1.5c0-0.6-0.1-1-0.4-1.4c-0.3-0.4-0.6-0.5-1.1-0.5c-0.4,0-0.8,0.2-1.1,0.5
		C454.9,194.6,454.8,195.1,454.8,195.8z"/>
	<path class="st0" d="M461.5,197.1l1.3-4.1h0.9l-1.9,5.3h-0.7l-1.9-5.3h0.9L461.5,197.1z"/>
	<path class="st0" d="M464.8,199H464l3-7.7h0.8L464.8,199z"/>
	<path class="st0" d="M469.6,193.1l0,0.7c0.4-0.5,0.9-0.8,1.6-0.8c1.1,0,1.7,0.6,1.7,1.9v3.5H472v-3.5c0-0.4-0.1-0.7-0.3-0.8
		c-0.2-0.2-0.4-0.3-0.8-0.3c-0.3,0-0.5,0.1-0.8,0.2s-0.4,0.4-0.5,0.6v3.8h-0.9v-5.3H469.6z"/>
	<path class="st0" d="M476.4,198.5c-0.7,0-1.3-0.2-1.7-0.7c-0.4-0.5-0.7-1.1-0.7-1.9v-0.2c0-0.5,0.1-1,0.3-1.4
		c0.2-0.4,0.5-0.7,0.8-1c0.4-0.2,0.8-0.3,1.2-0.3c0.7,0,1.2,0.2,1.6,0.7c0.4,0.5,0.6,1.1,0.6,1.9v0.4h-3.6c0,0.5,0.2,0.9,0.5,1.3
		c0.3,0.3,0.7,0.5,1.1,0.5c0.3,0,0.6-0.1,0.8-0.2c0.2-0.1,0.4-0.3,0.6-0.5l0.6,0.4C478,198.1,477.3,198.5,476.4,198.5z M476.3,193.7
		c-0.4,0-0.7,0.1-0.9,0.4c-0.2,0.3-0.4,0.6-0.5,1.1h2.6v-0.1c0-0.5-0.1-0.8-0.4-1.1C477,193.8,476.7,193.7,476.3,193.7z"/>
	<path class="st0" d="M484.2,197.1l1-4h0.9l-1.5,5.3h-0.7l-1.3-4l-1.2,4h-0.7l-1.5-5.3h0.9l1,4l1.2-4h0.7L484.2,197.1z"/>
	<path class="st0" d="M490.1,197c0-0.2-0.1-0.4-0.3-0.6c-0.2-0.1-0.5-0.3-1-0.3c-0.5-0.1-0.8-0.2-1.1-0.4c-0.3-0.1-0.5-0.3-0.6-0.5
		c-0.1-0.2-0.2-0.4-0.2-0.7c0-0.4,0.2-0.8,0.5-1.1c0.4-0.3,0.8-0.4,1.4-0.4c0.6,0,1.1,0.2,1.5,0.5c0.4,0.3,0.6,0.7,0.6,1.2h-0.9
		c0-0.2-0.1-0.5-0.3-0.6c-0.2-0.2-0.5-0.3-0.8-0.3c-0.3,0-0.6,0.1-0.8,0.2c-0.2,0.1-0.3,0.3-0.3,0.6c0,0.2,0.1,0.4,0.3,0.5
		c0.2,0.1,0.5,0.2,0.9,0.3c0.5,0.1,0.8,0.2,1.1,0.4c0.3,0.1,0.5,0.3,0.6,0.5c0.1,0.2,0.2,0.4,0.2,0.7c0,0.5-0.2,0.9-0.6,1.1
		c-0.4,0.3-0.9,0.4-1.5,0.4c-0.4,0-0.8-0.1-1.1-0.2c-0.3-0.2-0.6-0.4-0.8-0.6c-0.2-0.3-0.3-0.6-0.3-0.9h0.9c0,0.3,0.1,0.5,0.4,0.7
		c0.2,0.2,0.5,0.3,0.9,0.3c0.3,0,0.6-0.1,0.8-0.2C490,197.4,490.1,197.2,490.1,197z"/>
	<path class="st0" d="M494.1,195.7h-2.4V195h2.4V195.7z"/>
	<path class="st0" d="M497.1,198.5c-0.7,0-1.3-0.2-1.7-0.7c-0.4-0.5-0.7-1.1-0.7-1.9v-0.2c0-0.5,0.1-1,0.3-1.4
		c0.2-0.4,0.5-0.7,0.8-1c0.4-0.2,0.8-0.3,1.2-0.3c0.7,0,1.2,0.2,1.6,0.7c0.4,0.5,0.6,1.1,0.6,1.9v0.4h-3.6c0,0.5,0.2,0.9,0.5,1.3
		c0.3,0.3,0.7,0.5,1.1,0.5c0.3,0,0.6-0.1,0.8-0.2c0.2-0.1,0.4-0.3,0.6-0.5l0.6,0.4C498.7,198.1,498,198.5,497.1,198.5z M497,193.7
		c-0.4,0-0.7,0.1-0.9,0.4c-0.2,0.3-0.4,0.6-0.5,1.1h2.6v-0.1c0-0.5-0.1-0.8-0.4-1.1C497.7,193.8,497.4,193.7,497,193.7z"/>
	<path class="st0" d="M501.9,197.1l1.3-4.1h0.9l-1.9,5.3h-0.7l-1.9-5.3h0.9L501.9,197.1z"/>
	<path class="st0" d="M507.2,198.5c-0.7,0-1.3-0.2-1.7-0.7c-0.4-0.5-0.7-1.1-0.7-1.9v-0.2c0-0.5,0.1-1,0.3-1.4
		c0.2-0.4,0.5-0.7,0.8-1c0.4-0.2,0.8-0.3,1.2-0.3c0.7,0,1.2,0.2,1.6,0.7c0.4,0.5,0.6,1.1,0.6,1.9v0.4h-3.6c0,0.5,0.2,0.9,0.5,1.3
		c0.3,0.3,0.7,0.5,1.1,0.5c0.3,0,0.6-0.1,0.8-0.2c0.2-0.1,0.4-0.3,0.6-0.5l0.6,0.4C508.7,198.1,508,198.5,507.2,198.5z M507,193.7
		c-0.4,0-0.7,0.1-0.9,0.4c-0.2,0.3-0.4,0.6-0.5,1.1h2.6v-0.1c0-0.5-0.1-0.8-0.4-1.1C507.7,193.8,507.4,193.7,507,193.7z"/>
	<path class="st0" d="M511.1,193.1l0,0.7c0.4-0.5,0.9-0.8,1.6-0.8c1.1,0,1.7,0.6,1.7,1.9v3.5h-0.9v-3.5c0-0.4-0.1-0.7-0.3-0.8
		c-0.2-0.2-0.4-0.3-0.8-0.3c-0.3,0-0.5,0.1-0.8,0.2s-0.4,0.4-0.5,0.6v3.8h-0.9v-5.3H511.1z"/>
	<path class="st0" d="M517,191.8v1.3h1v0.7h-1v3.3c0,0.2,0,0.4,0.1,0.5c0.1,0.1,0.2,0.2,0.4,0.2c0.1,0,0.2,0,0.4-0.1v0.7
		c-0.2,0.1-0.5,0.1-0.7,0.1c-0.4,0-0.7-0.1-0.9-0.4s-0.3-0.6-0.3-1v-3.3h-1v-0.7h1v-1.3H517z"/>
	<path class="st0" d="M522.1,197c0-0.2-0.1-0.4-0.3-0.6c-0.2-0.1-0.5-0.3-1-0.3c-0.5-0.1-0.8-0.2-1.1-0.4c-0.3-0.1-0.5-0.3-0.6-0.5
		c-0.1-0.2-0.2-0.4-0.2-0.7c0-0.4,0.2-0.8,0.5-1.1c0.4-0.3,0.8-0.4,1.4-0.4c0.6,0,1.1,0.2,1.5,0.5c0.4,0.3,0.6,0.7,0.6,1.2h-0.9
		c0-0.2-0.1-0.5-0.3-0.6c-0.2-0.2-0.5-0.3-0.8-0.3c-0.3,0-0.6,0.1-0.8,0.2c-0.2,0.1-0.3,0.3-0.3,0.6c0,0.2,0.1,0.4,0.3,0.5
		c0.2,0.1,0.5,0.2,0.9,0.3c0.5,0.1,0.8,0.2,1.1,0.4c0.3,0.1,0.5,0.3,0.6,0.5c0.1,0.2,0.2,0.4,0.2,0.7c0,0.5-0.2,0.9-0.6,1.1
		c-0.4,0.3-0.9,0.4-1.5,0.4c-0.4,0-0.8-0.1-1.1-0.2c-0.3-0.2-0.6-0.4-0.8-0.6c-0.2-0.3-0.3-0.6-0.3-0.9h0.9c0,0.3,0.1,0.5,0.4,0.7
		c0.2,0.2,0.5,0.3,0.9,0.3c0.3,0,0.6-0.1,0.8-0.2C522,197.4,522.1,197.2,522.1,197z"/>
	<path class="st0" d="M524.4,199h-0.8l3-7.7h0.8L524.4,199z"/>
	<path class="st0" d="M529.2,193.1l0,0.7c0.4-0.5,0.9-0.8,1.6-0.8c1.1,0,1.7,0.6,1.7,1.9v3.5h-0.9v-3.5c0-0.4-0.1-0.7-0.3-0.8
		c-0.2-0.2-0.4-0.3-0.8-0.3c-0.3,0-0.5,0.1-0.8,0.2s-0.4,0.4-0.5,0.6v3.8h-0.9v-5.3H529.2z"/>
	<path class="st0" d="M536,198.5c-0.7,0-1.3-0.2-1.7-0.7c-0.4-0.5-0.7-1.1-0.7-1.9v-0.2c0-0.5,0.1-1,0.3-1.4c0.2-0.4,0.5-0.7,0.8-1
		c0.4-0.2,0.8-0.3,1.2-0.3c0.7,0,1.2,0.2,1.6,0.7c0.4,0.5,0.6,1.1,0.6,1.9v0.4h-3.6c0,0.5,0.2,0.9,0.5,1.3c0.3,0.3,0.7,0.5,1.1,0.5
		c0.3,0,0.6-0.1,0.8-0.2c0.2-0.1,0.4-0.3,0.6-0.5l0.6,0.4C537.6,198.1,536.9,198.5,536,198.5z M535.9,193.7c-0.4,0-0.7,0.1-0.9,0.4
		c-0.2,0.3-0.4,0.6-0.5,1.1h2.6v-0.1c0-0.5-0.1-0.8-0.4-1.1C536.6,193.8,536.3,193.7,535.9,193.7z"/>
	<path class="st0" d="M543.8,197.1l1-4h0.9l-1.5,5.3h-0.7l-1.3-4l-1.2,4h-0.7l-1.5-5.3h0.9l1,4l1.2-4h0.7L543.8,197.1z"/>
	<path class="st0" d="M549.7,197c0-0.2-0.1-0.4-0.3-0.6c-0.2-0.1-0.5-0.3-1-0.3c-0.5-0.1-0.8-0.2-1.1-0.4c-0.3-0.1-0.5-0.3-0.6-0.5
		c-0.1-0.2-0.2-0.4-0.2-0.7c0-0.4,0.2-0.8,0.5-1.1c0.4-0.3,0.8-0.4,1.4-0.4c0.6,0,1.1,0.2,1.5,0.5c0.4,0.3,0.6,0.7,0.6,1.2h-0.9
		c0-0.2-0.1-0.5-0.3-0.6c-0.2-0.2-0.5-0.3-0.8-0.3c-0.3,0-0.6,0.1-0.8,0.2c-0.2,0.1-0.3,0.3-0.3,0.6c0,0.2,0.1,0.4,0.3,0.5
		c0.2,0.1,0.5,0.2,0.9,0.3c0.5,0.1,0.8,0.2,1.1,0.4c0.3,0.1,0.5,0.3,0.6,0.5c0.1,0.2,0.2,0.4,0.2,0.7c0,0.5-0.2,0.9-0.6,1.1
		c-0.4,0.3-0.9,0.4-1.5,0.4c-0.4,0-0.8-0.1-1.1-0.2c-0.3-0.2-0.6-0.4-0.8-0.6c-0.2-0.3-0.3-0.6-0.3-0.9h0.9c0,0.3,0.1,0.5,0.4,0.7
		c0.2,0.2,0.5,0.3,0.9,0.3c0.3,0,0.6-0.1,0.8-0.2C549.6,197.4,549.7,197.2,549.7,197z"/>
	<path class="st0" d="M552,199h-0.8l3-7.7h0.8L552,199z"/>
	<path class="st0" d="M560.4,195.8c0,0.8-0.2,1.5-0.6,1.9c-0.4,0.5-0.9,0.7-1.5,0.7c-0.6,0-1.1-0.2-1.5-0.6v2.5h-0.9v-7.3h0.8l0,0.6
		c0.4-0.5,0.9-0.7,1.5-0.7c0.6,0,1.1,0.2,1.5,0.7C560.2,194.2,560.4,194.8,560.4,195.8L560.4,195.8z M559.5,195.7
		c0-0.6-0.1-1.1-0.4-1.4c-0.3-0.3-0.6-0.5-1-0.5c-0.5,0-1,0.2-1.2,0.7v2.5c0.3,0.5,0.7,0.7,1.2,0.7c0.4,0,0.8-0.2,1-0.5
		C559.4,196.9,559.5,196.4,559.5,195.7z"/>
	<path class="st0" d="M564.1,193.9c-0.1,0-0.3,0-0.4,0c-0.6,0-1,0.3-1.2,0.8v3.8h-0.9v-5.3h0.9l0,0.6c0.3-0.5,0.7-0.7,1.3-0.7
		c0.2,0,0.3,0,0.4,0.1V193.9z"/>
	<path class="st0" d="M567,198.5c-0.7,0-1.3-0.2-1.7-0.7c-0.4-0.5-0.7-1.1-0.7-1.9v-0.2c0-0.5,0.1-1,0.3-1.4c0.2-0.4,0.5-0.7,0.8-1
		c0.4-0.2,0.8-0.3,1.2-0.3c0.7,0,1.2,0.2,1.6,0.7c0.4,0.5,0.6,1.1,0.6,1.9v0.4h-3.6c0,0.5,0.2,0.9,0.5,1.3c0.3,0.3,0.7,0.5,1.1,0.5
		c0.3,0,0.6-0.1,0.8-0.2c0.2-0.1,0.4-0.3,0.6-0.5l0.6,0.4C568.6,198.1,567.9,198.5,567,198.5z M566.9,193.7c-0.4,0-0.7,0.1-0.9,0.4
		c-0.2,0.3-0.4,0.6-0.5,1.1h2.6v-0.1c0-0.5-0.1-0.8-0.4-1.1C567.6,193.8,567.3,193.7,566.9,193.7z"/>
	<path class="st0" d="M573.2,197c0-0.2-0.1-0.4-0.3-0.6c-0.2-0.1-0.5-0.3-1-0.3c-0.5-0.1-0.8-0.2-1.1-0.4c-0.3-0.1-0.5-0.3-0.6-0.5
		c-0.1-0.2-0.2-0.4-0.2-0.7c0-0.4,0.2-0.8,0.5-1.1c0.4-0.3,0.8-0.4,1.4-0.4c0.6,0,1.1,0.2,1.5,0.5c0.4,0.3,0.6,0.7,0.6,1.2h-0.9
		c0-0.2-0.1-0.5-0.3-0.6c-0.2-0.2-0.5-0.3-0.8-0.3c-0.3,0-0.6,0.1-0.8,0.2c-0.2,0.1-0.3,0.3-0.3,0.6c0,0.2,0.1,0.4,0.3,0.5
		c0.2,0.1,0.5,0.2,0.9,0.3c0.5,0.1,0.8,0.2,1.1,0.4c0.3,0.1,0.5,0.3,0.6,0.5c0.1,0.2,0.2,0.4,0.2,0.7c0,0.5-0.2,0.9-0.6,1.1
		c-0.4,0.3-0.9,0.4-1.5,0.4c-0.4,0-0.8-0.1-1.1-0.2c-0.3-0.2-0.6-0.4-0.8-0.6c-0.2-0.3-0.3-0.6-0.3-0.9h0.9c0,0.3,0.1,0.5,0.4,0.7
		c0.2,0.2,0.5,0.3,0.9,0.3c0.3,0,0.6-0.1,0.8-0.2C573.1,197.4,573.2,197.2,573.2,197z"/>
	<path class="st0" d="M578.4,197c0-0.2-0.1-0.4-0.3-0.6c-0.2-0.1-0.5-0.3-1-0.3c-0.5-0.1-0.8-0.2-1.1-0.4c-0.3-0.1-0.5-0.3-0.6-0.5
		c-0.1-0.2-0.2-0.4-0.2-0.7c0-0.4,0.2-0.8,0.5-1.1c0.4-0.3,0.8-0.4,1.4-0.4c0.6,0,1.1,0.2,1.5,0.5c0.4,0.3,0.6,0.7,0.6,1.2h-0.9
		c0-0.2-0.1-0.5-0.3-0.6c-0.2-0.2-0.5-0.3-0.8-0.3c-0.3,0-0.6,0.1-0.8,0.2c-0.2,0.1-0.3,0.3-0.3,0.6c0,0.2,0.1,0.4,0.3,0.5
		c0.2,0.1,0.5,0.2,0.9,0.3c0.5,0.1,0.8,0.2,1.1,0.4c0.3,0.1,0.5,0.3,0.6,0.5c0.1,0.2,0.2,0.4,0.2,0.7c0,0.5-0.2,0.9-0.6,1.1
		c-0.4,0.3-0.9,0.4-1.5,0.4c-0.4,0-0.8-0.1-1.1-0.2c-0.3-0.2-0.6-0.4-0.8-0.6c-0.2-0.3-0.3-0.6-0.3-0.9h0.9c0,0.3,0.1,0.5,0.4,0.7
		c0.2,0.2,0.5,0.3,0.9,0.3c0.3,0,0.6-0.1,0.8-0.2C578.3,197.4,578.4,197.2,578.4,197z"/>
	<path class="st0" d="M582.3,195.7h-2.4V195h2.4V195.7z"/>
	<path class="st0" d="M585.8,193.9c-0.1,0-0.3,0-0.4,0c-0.6,0-1,0.3-1.2,0.8v3.8h-0.9v-5.3h0.9l0,0.6c0.3-0.5,0.7-0.7,1.3-0.7
		c0.2,0,0.3,0,0.4,0.1V193.9z"/>
	<path class="st0" d="M588.7,198.5c-0.7,0-1.3-0.2-1.7-0.7c-0.4-0.5-0.7-1.1-0.7-1.9v-0.2c0-0.5,0.1-1,0.3-1.4
		c0.2-0.4,0.5-0.7,0.8-1c0.4-0.2,0.8-0.3,1.2-0.3c0.7,0,1.2,0.2,1.6,0.7c0.4,0.5,0.6,1.1,0.6,1.9v0.4h-3.6c0,0.5,0.2,0.9,0.5,1.3
		c0.3,0.3,0.7,0.5,1.1,0.5c0.3,0,0.6-0.1,0.8-0.2c0.2-0.1,0.4-0.3,0.6-0.5l0.6,0.4C590.2,198.1,589.6,198.5,588.7,198.5z
		 M588.6,193.7c-0.4,0-0.7,0.1-0.9,0.4c-0.2,0.3-0.4,0.6-0.5,1.1h2.6v-0.1c0-0.5-0.1-0.8-0.4-1.1
		C589.2,193.8,588.9,193.7,588.6,193.7z"/>
	<path class="st0" d="M592.8,198.4h-0.9v-7.5h0.9V198.4z"/>
	<path class="st0" d="M596.4,198.5c-0.7,0-1.3-0.2-1.7-0.7c-0.4-0.5-0.7-1.1-0.7-1.9v-0.2c0-0.5,0.1-1,0.3-1.4
		c0.2-0.4,0.5-0.7,0.8-1c0.4-0.2,0.8-0.3,1.2-0.3c0.7,0,1.2,0.2,1.6,0.7c0.4,0.5,0.6,1.1,0.6,1.9v0.4h-3.6c0,0.5,0.2,0.9,0.5,1.3
		c0.3,0.3,0.7,0.5,1.1,0.5c0.3,0,0.6-0.1,0.8-0.2c0.2-0.1,0.4-0.3,0.6-0.5l0.6,0.4C598,198.1,597.3,198.5,596.4,198.5z M596.3,193.7
		c-0.4,0-0.7,0.1-0.9,0.4c-0.2,0.3-0.4,0.6-0.5,1.1h2.6v-0.1c0-0.5-0.1-0.8-0.4-1.1C597,193.8,596.7,193.7,596.3,193.7z"/>
	<path class="st0" d="M602.8,198.4c-0.1-0.1-0.1-0.3-0.1-0.6c-0.4,0.4-0.9,0.7-1.5,0.7c-0.5,0-0.9-0.1-1.3-0.4
		c-0.3-0.3-0.5-0.7-0.5-1.1c0-0.6,0.2-1,0.6-1.3c0.4-0.3,1-0.5,1.8-0.5h0.9v-0.4c0-0.3-0.1-0.6-0.3-0.8c-0.2-0.2-0.5-0.3-0.8-0.3
		c-0.3,0-0.6,0.1-0.8,0.2c-0.2,0.2-0.3,0.4-0.3,0.6h-0.9c0-0.3,0.1-0.5,0.3-0.8c0.2-0.2,0.4-0.4,0.8-0.6c0.3-0.1,0.7-0.2,1.1-0.2
		c0.6,0,1.1,0.2,1.4,0.5c0.3,0.3,0.5,0.7,0.5,1.3v2.4c0,0.5,0.1,0.9,0.2,1.2v0.1H602.8z M601.3,197.7c0.3,0,0.6-0.1,0.8-0.2
		s0.4-0.3,0.6-0.6v-1.1h-0.7c-1.1,0-1.7,0.3-1.7,1c0,0.3,0.1,0.5,0.3,0.7C600.7,197.6,601,197.7,601.3,197.7z"/>
	<path class="st0" d="M608,197c0-0.2-0.1-0.4-0.3-0.6c-0.2-0.1-0.5-0.3-1-0.3c-0.5-0.1-0.8-0.2-1.1-0.4c-0.3-0.1-0.5-0.3-0.6-0.5
		c-0.1-0.2-0.2-0.4-0.2-0.7c0-0.4,0.2-0.8,0.5-1.1c0.4-0.3,0.8-0.4,1.4-0.4c0.6,0,1.1,0.2,1.5,0.5c0.4,0.3,0.6,0.7,0.6,1.2H608
		c0-0.2-0.1-0.5-0.3-0.6c-0.2-0.2-0.5-0.3-0.8-0.3c-0.3,0-0.6,0.1-0.8,0.2c-0.2,0.1-0.3,0.3-0.3,0.6c0,0.2,0.1,0.4,0.3,0.5
		c0.2,0.1,0.5,0.2,0.9,0.3c0.5,0.1,0.8,0.2,1.1,0.4c0.3,0.1,0.5,0.3,0.6,0.5c0.1,0.2,0.2,0.4,0.2,0.7c0,0.5-0.2,0.9-0.6,1.1
		c-0.4,0.3-0.9,0.4-1.5,0.4c-0.4,0-0.8-0.1-1.1-0.2c-0.3-0.2-0.6-0.4-0.8-0.6c-0.2-0.3-0.3-0.6-0.3-0.9h0.9c0,0.3,0.1,0.5,0.4,0.7
		c0.2,0.2,0.5,0.3,0.9,0.3c0.3,0,0.6-0.1,0.8-0.2C607.9,197.4,608,197.2,608,197z"/>
	<path class="st0" d="M612.3,198.5c-0.7,0-1.3-0.2-1.7-0.7c-0.4-0.5-0.7-1.1-0.7-1.9v-0.2c0-0.5,0.1-1,0.3-1.4
		c0.2-0.4,0.5-0.7,0.8-1c0.4-0.2,0.8-0.3,1.2-0.3c0.7,0,1.2,0.2,1.6,0.7c0.4,0.5,0.6,1.1,0.6,1.9v0.4h-3.6c0,0.5,0.2,0.9,0.5,1.3
		c0.3,0.3,0.7,0.5,1.1,0.5c0.3,0,0.6-0.1,0.8-0.2c0.2-0.1,0.4-0.3,0.6-0.5l0.6,0.4C613.9,198.1,613.2,198.5,612.3,198.5z
		 M612.2,193.7c-0.4,0-0.7,0.1-0.9,0.4c-0.2,0.3-0.4,0.6-0.5,1.1h2.6v-0.1c0-0.5-0.1-0.8-0.4-1.1
		C612.9,193.8,612.6,193.7,612.2,193.7z"/>
	<path class="st0" d="M618.5,197c0-0.2-0.1-0.4-0.3-0.6c-0.2-0.1-0.5-0.3-1-0.3c-0.5-0.1-0.8-0.2-1.1-0.4c-0.3-0.1-0.5-0.3-0.6-0.5
		c-0.1-0.2-0.2-0.4-0.2-0.7c0-0.4,0.2-0.8,0.5-1.1c0.4-0.3,0.8-0.4,1.4-0.4c0.6,0,1.1,0.2,1.5,0.5c0.4,0.3,0.6,0.7,0.6,1.2h-0.9
		c0-0.2-0.1-0.5-0.3-0.6c-0.2-0.2-0.5-0.3-0.8-0.3c-0.3,0-0.6,0.1-0.8,0.2c-0.2,0.1-0.3,0.3-0.3,0.6c0,0.2,0.1,0.4,0.3,0.5
		c0.2,0.1,0.5,0.2,0.9,0.3c0.5,0.1,0.8,0.2,1.1,0.4c0.3,0.1,0.5,0.3,0.6,0.5c0.1,0.2,0.2,0.4,0.2,0.7c0,0.5-0.2,0.9-0.6,1.1
		c-0.4,0.3-0.9,0.4-1.5,0.4c-0.4,0-0.8-0.1-1.1-0.2c-0.3-0.2-0.6-0.4-0.8-0.6c-0.2-0.3-0.3-0.6-0.3-0.9h0.9c0,0.3,0.1,0.5,0.4,0.7
		c0.2,0.2,0.5,0.3,0.9,0.3c0.3,0,0.6-0.1,0.8-0.2C618.4,197.4,618.5,197.2,618.5,197z"/>
	<path class="st0" d="M620.7,199H620l3-7.7h0.8L620.7,199z"/>
	<path class="st0" d="M629.2,198.4h-4.7v-0.6l2.5-2.7c0.4-0.4,0.6-0.8,0.8-1c0.1-0.3,0.2-0.5,0.2-0.8c0-0.4-0.1-0.7-0.3-0.9
		c-0.2-0.2-0.5-0.4-0.9-0.4c-0.4,0-0.8,0.1-1,0.4c-0.2,0.3-0.4,0.6-0.4,1.1h-0.9c0-0.7,0.2-1.2,0.6-1.6c0.4-0.4,1-0.6,1.7-0.6
		c0.7,0,1.2,0.2,1.6,0.5s0.6,0.8,0.6,1.4c0,0.7-0.4,1.5-1.3,2.5l-1.9,2.1h3.6V198.4z"/>
	<path class="st0" d="M634.7,195.3c0,1.1-0.2,1.8-0.5,2.4c-0.4,0.5-0.9,0.8-1.7,0.8c-0.8,0-1.3-0.3-1.7-0.8s-0.6-1.3-0.6-2.3v-1.2
		c0-1,0.2-1.8,0.5-2.3s0.9-0.8,1.7-0.8c0.8,0,1.3,0.2,1.7,0.7c0.4,0.5,0.5,1.2,0.6,2.3V195.3z M633.8,194.1c0-0.8-0.1-1.3-0.3-1.7
		c-0.2-0.3-0.6-0.5-1-0.5c-0.5,0-0.8,0.2-1,0.5c-0.2,0.3-0.3,0.9-0.3,1.6v1.4c0,0.8,0.1,1.3,0.3,1.7c0.2,0.4,0.6,0.5,1,0.5
		c0.4,0,0.8-0.2,1-0.5c0.2-0.3,0.3-0.9,0.3-1.6V194.1z"/>
	<path class="st0" d="M640.5,198.4h-4.7v-0.6l2.5-2.7c0.4-0.4,0.6-0.8,0.8-1c0.1-0.3,0.2-0.5,0.2-0.8c0-0.4-0.1-0.7-0.3-0.9
		c-0.2-0.2-0.5-0.4-0.9-0.4c-0.4,0-0.8,0.1-1,0.4c-0.2,0.3-0.4,0.6-0.4,1.1h-0.9c0-0.7,0.2-1.2,0.6-1.6c0.4-0.4,1-0.6,1.7-0.6
		c0.7,0,1.2,0.2,1.6,0.5s0.6,0.8,0.6,1.4c0,0.7-0.4,1.5-1.3,2.5l-1.9,2.1h3.6V198.4z"/>
	<path class="st0" d="M646.1,198.4h-4.7v-0.6l2.5-2.7c0.4-0.4,0.6-0.8,0.8-1c0.1-0.3,0.2-0.5,0.2-0.8c0-0.4-0.1-0.7-0.3-0.9
		c-0.2-0.2-0.5-0.4-0.9-0.4c-0.4,0-0.8,0.1-1,0.4c-0.2,0.3-0.4,0.6-0.4,1.1h-0.9c0-0.7,0.2-1.2,0.6-1.6c0.4-0.4,1-0.6,1.7-0.6
		c0.7,0,1.2,0.2,1.6,0.5s0.6,0.8,0.6,1.4c0,0.7-0.4,1.5-1.3,2.5l-1.9,2.1h3.6V198.4z"/>
	<path class="st0" d="M647.3,199h-0.8l3-7.7h0.8L647.3,199z"/>
	<path class="st0" d="M655.6,195.3c0,1.1-0.2,1.8-0.5,2.4c-0.4,0.5-0.9,0.8-1.7,0.8c-0.8,0-1.3-0.3-1.7-0.8s-0.6-1.3-0.6-2.3v-1.2
		c0-1,0.2-1.8,0.5-2.3s0.9-0.8,1.7-0.8c0.8,0,1.3,0.2,1.7,0.7c0.4,0.5,0.5,1.2,0.6,2.3V195.3z M654.7,194.1c0-0.8-0.1-1.3-0.3-1.7
		c-0.2-0.3-0.6-0.5-1-0.5c-0.5,0-0.8,0.2-1,0.5c-0.2,0.3-0.3,0.9-0.3,1.6v1.4c0,0.8,0.1,1.3,0.3,1.7c0.2,0.4,0.6,0.5,1,0.5
		c0.4,0,0.8-0.2,1-0.5c0.2-0.3,0.3-0.9,0.3-1.6V194.1z"/>
	<path class="st0" d="M661.4,198.4h-4.7v-0.6l2.5-2.7c0.4-0.4,0.6-0.8,0.8-1c0.1-0.3,0.2-0.5,0.2-0.8c0-0.4-0.1-0.7-0.3-0.9
		c-0.2-0.2-0.5-0.4-0.9-0.4c-0.4,0-0.8,0.1-1,0.4c-0.2,0.3-0.4,0.6-0.4,1.1h-0.9c0-0.7,0.2-1.2,0.6-1.6c0.4-0.4,1-0.6,1.7-0.6
		c0.7,0,1.2,0.2,1.6,0.5s0.6,0.8,0.6,1.4c0,0.7-0.4,1.5-1.3,2.5l-1.9,2.1h3.6V198.4z"/>
	<path class="st0" d="M662.7,199h-0.8l3-7.7h0.8L662.7,199z"/>
	<path class="st0" d="M667.5,193.1l0,0.7c0.4-0.5,0.9-0.8,1.6-0.8c1.1,0,1.7,0.6,1.7,1.9v3.5h-0.9v-3.5c0-0.4-0.1-0.7-0.3-0.8
		c-0.2-0.2-0.4-0.3-0.8-0.3c-0.3,0-0.5,0.1-0.8,0.2s-0.4,0.4-0.5,0.6v3.8h-0.9v-5.3H667.5z"/>
	<path class="st0" d="M674.3,198.5c-0.7,0-1.3-0.2-1.7-0.7c-0.4-0.5-0.7-1.1-0.7-1.9v-0.2c0-0.5,0.1-1,0.3-1.4
		c0.2-0.4,0.5-0.7,0.8-1c0.4-0.2,0.8-0.3,1.2-0.3c0.7,0,1.2,0.2,1.6,0.7c0.4,0.5,0.6,1.1,0.6,1.9v0.4h-3.6c0,0.5,0.2,0.9,0.5,1.3
		c0.3,0.3,0.7,0.5,1.1,0.5c0.3,0,0.6-0.1,0.8-0.2c0.2-0.1,0.4-0.3,0.6-0.5l0.6,0.4C675.9,198.1,675.2,198.5,674.3,198.5z
		 M674.2,193.7c-0.4,0-0.7,0.1-0.9,0.4c-0.2,0.3-0.4,0.6-0.5,1.1h2.6v-0.1c0-0.5-0.1-0.8-0.4-1.1
		C674.9,193.8,674.6,193.7,674.2,193.7z"/>
	<path class="st0" d="M682.1,197.1l1-4h0.9l-1.5,5.3h-0.7l-1.3-4l-1.2,4h-0.7l-1.5-5.3h0.9l1,4l1.2-4h0.7L682.1,197.1z"/>
	<path class="st0" d="M686.8,195.7h-2.4V195h2.4V195.7z"/>
	<path class="st0" d="M687.5,195.7c0-0.8,0.2-1.5,0.6-2s0.9-0.7,1.5-0.7c0.6,0,1.1,0.2,1.5,0.6v-2.8h0.9v7.5h-0.8l0-0.6
		c-0.4,0.4-0.9,0.7-1.5,0.7c-0.6,0-1.1-0.3-1.5-0.8C687.7,197.2,687.5,196.5,687.5,195.7L687.5,195.7z M688.4,195.8
		c0,0.6,0.1,1.1,0.4,1.4c0.2,0.3,0.6,0.5,1,0.5c0.6,0,1-0.3,1.3-0.8v-2.4c-0.3-0.5-0.7-0.7-1.2-0.7c-0.4,0-0.8,0.2-1,0.5
		S688.4,195.1,688.4,195.8z"/>
	<path class="st0" d="M696.6,198.4c-0.1-0.1-0.1-0.3-0.1-0.6c-0.4,0.4-0.9,0.7-1.5,0.7c-0.5,0-0.9-0.1-1.3-0.4
		c-0.3-0.3-0.5-0.7-0.5-1.1c0-0.6,0.2-1,0.6-1.3c0.4-0.3,1-0.5,1.8-0.5h0.9v-0.4c0-0.3-0.1-0.6-0.3-0.8c-0.2-0.2-0.5-0.3-0.8-0.3
		c-0.3,0-0.6,0.1-0.8,0.2c-0.2,0.2-0.3,0.4-0.3,0.6h-0.9c0-0.3,0.1-0.5,0.3-0.8c0.2-0.2,0.4-0.4,0.8-0.6c0.3-0.1,0.7-0.2,1.1-0.2
		c0.6,0,1.1,0.2,1.4,0.5c0.3,0.3,0.5,0.7,0.5,1.3v2.4c0,0.5,0.1,0.9,0.2,1.2v0.1H696.6z M695.1,197.7c0.3,0,0.6-0.1,0.8-0.2
		s0.4-0.3,0.6-0.6v-1.1h-0.7c-1.1,0-1.7,0.3-1.7,1c0,0.3,0.1,0.5,0.3,0.7C694.6,197.6,694.8,197.7,695.1,197.7z"/>
	<path class="st0" d="M700,191.8v1.3h1v0.7h-1v3.3c0,0.2,0,0.4,0.1,0.5c0.1,0.1,0.2,0.2,0.4,0.2c0.1,0,0.2,0,0.4-0.1v0.7
		c-0.2,0.1-0.5,0.1-0.7,0.1c-0.4,0-0.7-0.1-0.9-0.4s-0.3-0.6-0.3-1v-3.3h-1v-0.7h1v-1.3H700z"/>
	<path class="st0" d="M705.3,198.4c-0.1-0.1-0.1-0.3-0.1-0.6c-0.4,0.4-0.9,0.7-1.5,0.7c-0.5,0-0.9-0.1-1.3-0.4
		c-0.3-0.3-0.5-0.7-0.5-1.1c0-0.6,0.2-1,0.6-1.3c0.4-0.3,1-0.5,1.8-0.5h0.9v-0.4c0-0.3-0.1-0.6-0.3-0.8c-0.2-0.2-0.5-0.3-0.8-0.3
		c-0.3,0-0.6,0.1-0.8,0.2c-0.2,0.2-0.3,0.4-0.3,0.6H702c0-0.3,0.1-0.5,0.3-0.8c0.2-0.2,0.4-0.4,0.8-0.6c0.3-0.1,0.7-0.2,1.1-0.2
		c0.6,0,1.1,0.2,1.4,0.5c0.3,0.3,0.5,0.7,0.5,1.3v2.4c0,0.5,0.1,0.9,0.2,1.2v0.1H705.3z M703.8,197.7c0.3,0,0.6-0.1,0.8-0.2
		s0.4-0.3,0.6-0.6v-1.1h-0.7c-1.1,0-1.7,0.3-1.7,1c0,0.3,0.1,0.5,0.3,0.7C703.3,197.6,703.5,197.7,703.8,197.7z"/>
	<path class="st0" d="M709.4,195.7H707V195h2.4V195.7z"/>
	<path class="st0" d="M713.3,197c0-0.2-0.1-0.4-0.3-0.6c-0.2-0.1-0.5-0.3-1-0.3c-0.5-0.1-0.8-0.2-1.1-0.4c-0.3-0.1-0.5-0.3-0.6-0.5
		c-0.1-0.2-0.2-0.4-0.2-0.7c0-0.4,0.2-0.8,0.5-1.1c0.4-0.3,0.8-0.4,1.4-0.4c0.6,0,1.1,0.2,1.5,0.5c0.4,0.3,0.6,0.7,0.6,1.2h-0.9
		c0-0.2-0.1-0.5-0.3-0.6c-0.2-0.2-0.5-0.3-0.8-0.3c-0.3,0-0.6,0.1-0.8,0.2c-0.2,0.1-0.3,0.3-0.3,0.6c0,0.2,0.1,0.4,0.3,0.5
		c0.2,0.1,0.5,0.2,0.9,0.3c0.5,0.1,0.8,0.2,1.1,0.4c0.3,0.1,0.5,0.3,0.6,0.5c0.1,0.2,0.2,0.4,0.2,0.7c0,0.5-0.2,0.9-0.6,1.1
		c-0.4,0.3-0.9,0.4-1.5,0.4c-0.4,0-0.8-0.1-1.1-0.2c-0.3-0.2-0.6-0.4-0.8-0.6c-0.2-0.3-0.3-0.6-0.3-0.9h0.9c0,0.3,0.1,0.5,0.4,0.7
		c0.2,0.2,0.5,0.3,0.9,0.3c0.3,0,0.6-0.1,0.8-0.2C713.2,197.4,713.3,197.2,713.3,197z"/>
	<path class="st0" d="M716.3,193.7c0.4-0.5,0.9-0.7,1.6-0.7c1.1,0,1.7,0.6,1.7,1.9v3.5h-0.9v-3.5c0-0.4-0.1-0.7-0.3-0.8
		c-0.2-0.2-0.4-0.3-0.8-0.3c-0.3,0-0.5,0.1-0.8,0.2s-0.4,0.4-0.5,0.6v3.8h-0.9v-7.5h0.9V193.7z"/>
	<path class="st0" d="M720.7,195.7c0-0.5,0.1-1,0.3-1.4c0.2-0.4,0.5-0.7,0.8-1c0.4-0.2,0.8-0.3,1.2-0.3c0.7,0,1.3,0.2,1.7,0.7
		c0.4,0.5,0.7,1.2,0.7,2v0.1c0,0.5-0.1,1-0.3,1.4c-0.2,0.4-0.5,0.7-0.8,1c-0.4,0.2-0.8,0.3-1.3,0.3c-0.7,0-1.3-0.2-1.7-0.7
		C720.9,197.2,720.7,196.6,720.7,195.7L720.7,195.7z M721.6,195.8c0,0.6,0.1,1.1,0.4,1.4c0.3,0.4,0.6,0.5,1.1,0.5
		c0.5,0,0.8-0.2,1.1-0.5c0.3-0.4,0.4-0.9,0.4-1.5c0-0.6-0.1-1-0.4-1.4c-0.3-0.4-0.6-0.5-1.1-0.5c-0.4,0-0.8,0.2-1.1,0.5
		C721.7,194.6,721.6,195.1,721.6,195.8z"/>
	<path class="st0" d="M731.3,197.1l1-4h0.9l-1.5,5.3h-0.7l-1.3-4l-1.2,4h-0.7l-1.5-5.3h0.9l1,4l1.2-4h0.7L731.3,197.1z"/>
	<path class="st0" d="M737.2,197c0-0.2-0.1-0.4-0.3-0.6c-0.2-0.1-0.5-0.3-1-0.3c-0.5-0.1-0.8-0.2-1.1-0.4c-0.3-0.1-0.5-0.3-0.6-0.5
		c-0.1-0.2-0.2-0.4-0.2-0.7c0-0.4,0.2-0.8,0.5-1.1c0.4-0.3,0.8-0.4,1.4-0.4c0.6,0,1.1,0.2,1.5,0.5c0.4,0.3,0.6,0.7,0.6,1.2h-0.9
		c0-0.2-0.1-0.5-0.3-0.6c-0.2-0.2-0.5-0.3-0.8-0.3c-0.3,0-0.6,0.1-0.8,0.2c-0.2,0.1-0.3,0.3-0.3,0.6c0,0.2,0.1,0.4,0.3,0.5
		c0.2,0.1,0.5,0.2,0.9,0.3c0.5,0.1,0.8,0.2,1.1,0.4c0.3,0.1,0.5,0.3,0.6,0.5c0.1,0.2,0.2,0.4,0.2,0.7c0,0.5-0.2,0.9-0.6,1.1
		c-0.4,0.3-0.9,0.4-1.5,0.4c-0.4,0-0.8-0.1-1.1-0.2c-0.3-0.2-0.6-0.4-0.8-0.6c-0.2-0.3-0.3-0.6-0.3-0.9h0.9c0,0.3,0.1,0.5,0.4,0.7
		c0.2,0.2,0.5,0.3,0.9,0.3c0.3,0,0.6-0.1,0.8-0.2C737.1,197.4,737.2,197.2,737.2,197z"/>
	<path class="st0" d="M741.2,195.7h-2.4V195h2.4V195.7z"/>
	<path class="st0" d="M742.5,198.4v-4.6h-0.8v-0.7h0.8v-0.5c0-0.6,0.2-1,0.5-1.3c0.3-0.3,0.7-0.5,1.3-0.5c0.2,0,0.4,0,0.6,0.1l0,0.7
		c-0.2,0-0.3,0-0.5,0c-0.3,0-0.5,0.1-0.7,0.3c-0.2,0.2-0.2,0.4-0.2,0.7v0.6h1.1v0.7h-1.1v4.6H742.5z"/>
	<path class="st0" d="M746.7,191.8v1.3h1v0.7h-1v3.3c0,0.2,0,0.4,0.1,0.5c0.1,0.1,0.2,0.2,0.4,0.2c0.1,0,0.2,0,0.4-0.1v0.7
		c-0.2,0.1-0.5,0.1-0.7,0.1c-0.4,0-0.7-0.1-0.9-0.4s-0.3-0.6-0.3-1v-3.3h-1v-0.7h1v-1.3H746.7z"/>
	<path class="st0" d="M750.9,197.7c0.3,0,0.6-0.1,0.8-0.3s0.4-0.4,0.4-0.7h0.9c0,0.3-0.1,0.6-0.3,0.9s-0.4,0.5-0.8,0.7
		c-0.3,0.2-0.7,0.2-1,0.2c-0.7,0-1.3-0.2-1.7-0.7c-0.4-0.5-0.6-1.1-0.6-2v-0.2c0-0.5,0.1-1,0.3-1.4s0.5-0.7,0.8-0.9
		c0.4-0.2,0.8-0.3,1.3-0.3c0.6,0,1.1,0.2,1.5,0.5c0.4,0.4,0.6,0.8,0.6,1.4h-0.9c0-0.3-0.2-0.6-0.4-0.8c-0.2-0.2-0.5-0.3-0.9-0.3
		c-0.5,0-0.8,0.2-1.1,0.5c-0.3,0.3-0.4,0.8-0.4,1.4v0.2c0,0.6,0.1,1.1,0.4,1.4C750.1,197.6,750.4,197.7,750.9,197.7z"/>
	<path class="st0" d="M755.9,195.7h-2.4V195h2.4V195.7z"/>
	<path class="st0" d="M759.3,193.9c-0.1,0-0.3,0-0.4,0c-0.6,0-1,0.3-1.2,0.8v3.8h-0.9v-5.3h0.9l0,0.6c0.3-0.5,0.7-0.7,1.3-0.7
		c0.2,0,0.3,0,0.4,0.1V193.9z"/>
	<path class="st0" d="M762.3,198.5c-0.7,0-1.3-0.2-1.7-0.7c-0.4-0.5-0.7-1.1-0.7-1.9v-0.2c0-0.5,0.1-1,0.3-1.4
		c0.2-0.4,0.5-0.7,0.8-1c0.4-0.2,0.8-0.3,1.2-0.3c0.7,0,1.2,0.2,1.6,0.7c0.4,0.5,0.6,1.1,0.6,1.9v0.4h-3.6c0,0.5,0.2,0.9,0.5,1.3
		c0.3,0.3,0.7,0.5,1.1,0.5c0.3,0,0.6-0.1,0.8-0.2c0.2-0.1,0.4-0.3,0.6-0.5l0.6,0.4C763.8,198.1,763.1,198.5,762.3,198.5z
		 M762.1,193.7c-0.4,0-0.7,0.1-0.9,0.4c-0.2,0.3-0.4,0.6-0.5,1.1h2.6v-0.1c0-0.5-0.1-0.8-0.4-1.1
		C762.8,193.8,762.5,193.7,762.1,193.7z"/>
	<path class="st0" d="M767.5,197.7c0.3,0,0.6-0.1,0.8-0.3s0.4-0.4,0.4-0.7h0.9c0,0.3-0.1,0.6-0.3,0.9s-0.4,0.5-0.8,0.7
		c-0.3,0.2-0.7,0.2-1,0.2c-0.7,0-1.3-0.2-1.7-0.7c-0.4-0.5-0.6-1.1-0.6-2v-0.2c0-0.5,0.1-1,0.3-1.4s0.5-0.7,0.8-0.9
		c0.4-0.2,0.8-0.3,1.3-0.3c0.6,0,1.1,0.2,1.5,0.5c0.4,0.4,0.6,0.8,0.6,1.4h-0.9c0-0.3-0.2-0.6-0.4-0.8c-0.2-0.2-0.5-0.3-0.9-0.3
		c-0.5,0-0.8,0.2-1.1,0.5c-0.3,0.3-0.4,0.8-0.4,1.4v0.2c0,0.6,0.1,1.1,0.4,1.4C766.7,197.6,767,197.7,767.5,197.7z"/>
	<path class="st0" d="M772.8,198.5c-0.7,0-1.3-0.2-1.7-0.7c-0.4-0.5-0.7-1.1-0.7-1.9v-0.2c0-0.5,0.1-1,0.3-1.4
		c0.2-0.4,0.5-0.7,0.8-1c0.4-0.2,0.8-0.3,1.2-0.3c0.7,0,1.2,0.2,1.6,0.7c0.4,0.5,0.6,1.1,0.6,1.9v0.4h-3.6c0,0.5,0.2,0.9,0.5,1.3
		c0.3,0.3,0.7,0.5,1.1,0.5c0.3,0,0.6-0.1,0.8-0.2c0.2-0.1,0.4-0.3,0.6-0.5l0.6,0.4C774.3,198.1,773.7,198.5,772.8,198.5z
		 M772.7,193.7c-0.4,0-0.7,0.1-0.9,0.4c-0.2,0.3-0.4,0.6-0.5,1.1h2.6v-0.1c0-0.5-0.1-0.8-0.4-1.1
		C773.4,193.8,773.1,193.7,772.7,193.7z"/>
	<path class="st0" d="M775.9,191.7c0-0.1,0-0.3,0.1-0.4c0.1-0.1,0.2-0.2,0.4-0.2s0.3,0,0.4,0.2c0.1,0.1,0.1,0.2,0.1,0.4
		s0,0.3-0.1,0.4s-0.2,0.1-0.4,0.1s-0.3,0-0.4-0.1C775.9,191.9,775.9,191.8,775.9,191.7z M776.9,198.4H776v-5.3h0.9V198.4z"/>
	<path class="st0" d="M780.1,197.1l1.3-4.1h0.9l-1.9,5.3h-0.7l-1.9-5.3h0.9L780.1,197.1z"/>
	<path class="st0" d="M785.3,198.5c-0.7,0-1.3-0.2-1.7-0.7c-0.4-0.5-0.7-1.1-0.7-1.9v-0.2c0-0.5,0.1-1,0.3-1.4
		c0.2-0.4,0.5-0.7,0.8-1c0.4-0.2,0.8-0.3,1.2-0.3c0.7,0,1.2,0.2,1.6,0.7c0.4,0.5,0.6,1.1,0.6,1.9v0.4h-3.6c0,0.5,0.2,0.9,0.5,1.3
		c0.3,0.3,0.7,0.5,1.1,0.5c0.3,0,0.6-0.1,0.8-0.2c0.2-0.1,0.4-0.3,0.6-0.5l0.6,0.4C786.8,198.1,786.2,198.5,785.3,198.5z
		 M785.2,193.7c-0.4,0-0.7,0.1-0.9,0.4c-0.2,0.3-0.4,0.6-0.5,1.1h2.6v-0.1c0-0.5-0.1-0.8-0.4-1.1
		C785.9,193.8,785.6,193.7,785.2,193.7z"/>
	<path class="st0" d="M788.2,195.7c0-0.8,0.2-1.5,0.6-2s0.9-0.7,1.5-0.7c0.6,0,1.1,0.2,1.5,0.6v-2.8h0.9v7.5h-0.8l0-0.6
		c-0.4,0.4-0.9,0.7-1.5,0.7c-0.6,0-1.1-0.3-1.5-0.8C788.4,197.2,788.2,196.5,788.2,195.7L788.2,195.7z M789.1,195.8
		c0,0.6,0.1,1.1,0.4,1.4c0.2,0.3,0.6,0.5,1,0.5c0.6,0,1-0.3,1.3-0.8v-2.4c-0.3-0.5-0.7-0.7-1.2-0.7c-0.4,0-0.8,0.2-1,0.5
		S789.1,195.1,789.1,195.8z"/>
	<path class="st0" d="M795.9,195.7h-2.4V195h2.4V195.7z"/>
	<path class="st0" d="M345.1,210.4h-4.7v-0.6l2.5-2.7c0.4-0.4,0.6-0.8,0.8-1c0.1-0.3,0.2-0.5,0.2-0.8c0-0.4-0.1-0.7-0.3-0.9
		c-0.2-0.2-0.5-0.4-0.9-0.4c-0.4,0-0.8,0.1-1,0.4c-0.2,0.3-0.4,0.6-0.4,1.1h-0.9c0-0.7,0.2-1.2,0.6-1.6c0.4-0.4,1-0.6,1.7-0.6
		c0.7,0,1.2,0.2,1.6,0.5s0.6,0.8,0.6,1.4c0,0.7-0.4,1.5-1.3,2.5l-1.9,2.1h3.6V210.4z"/>
	<path class="st0" d="M350.4,205.1c0,0.4-0.1,0.7-0.3,0.9c-0.2,0.3-0.4,0.5-0.8,0.6c0.4,0.2,0.7,0.4,0.9,0.7c0.2,0.3,0.3,0.7,0.3,1
		c0,0.6-0.2,1.1-0.6,1.5c-0.4,0.4-1,0.5-1.6,0.5c-0.7,0-1.2-0.2-1.6-0.5c-0.4-0.4-0.6-0.9-0.6-1.5c0-0.4,0.1-0.7,0.3-1
		c0.2-0.3,0.5-0.5,0.9-0.7c-0.3-0.2-0.6-0.4-0.7-0.6c-0.2-0.3-0.3-0.6-0.3-0.9c0-0.6,0.2-1.1,0.6-1.4s0.9-0.5,1.5-0.5
		c0.6,0,1.1,0.2,1.5,0.5C350.2,204,350.4,204.5,350.4,205.1z M349.6,208.4c0-0.4-0.1-0.7-0.4-1c-0.3-0.3-0.6-0.4-1-0.4
		s-0.7,0.1-1,0.4c-0.2,0.2-0.4,0.6-0.4,1c0,0.4,0.1,0.7,0.4,1c0.2,0.2,0.6,0.3,1,0.3c0.4,0,0.8-0.1,1-0.3
		C349.5,209.1,349.6,208.8,349.6,208.4z M348.3,203.9c-0.4,0-0.6,0.1-0.9,0.3c-0.2,0.2-0.3,0.5-0.3,0.9c0,0.4,0.1,0.7,0.3,0.9
		c0.2,0.2,0.5,0.3,0.9,0.3s0.7-0.1,0.9-0.3c0.2-0.2,0.3-0.5,0.3-0.9s-0.1-0.7-0.3-0.9C348.9,204,348.6,203.9,348.3,203.9z"/>
	<path class="st0" d="M353.7,207.7h-2.4V207h2.4V207.7z"/>
	<path class="st0" d="M355.4,205.1l0,0.6c0.4-0.5,0.9-0.7,1.6-0.7c0.7,0,1.2,0.3,1.5,0.8c0.2-0.3,0.4-0.5,0.7-0.6
		c0.3-0.2,0.6-0.2,1-0.2c1.2,0,1.7,0.6,1.8,1.8v3.5H361v-3.5c0-0.4-0.1-0.7-0.3-0.8c-0.2-0.2-0.5-0.3-0.9-0.3
		c-0.3,0-0.6,0.1-0.8,0.3s-0.3,0.5-0.4,0.8v3.5h-0.9v-3.5c0-0.8-0.4-1.2-1.1-1.2c-0.6,0-1,0.3-1.2,0.8v3.9h-0.9v-5.3H355.4z"/>
	<path class="st0" d="M363.3,203.7c0-0.1,0-0.3,0.1-0.4c0.1-0.1,0.2-0.2,0.4-0.2s0.3,0,0.4,0.2c0.1,0.1,0.1,0.2,0.1,0.4
		s0,0.3-0.1,0.4s-0.2,0.1-0.4,0.1s-0.3,0-0.4-0.1C363.4,203.9,363.3,203.8,363.3,203.7z M364.3,210.4h-0.9v-5.3h0.9V210.4z"/>
	<path class="st0" d="M366.7,210.4h-0.9v-7.5h0.9V210.4z"/>
	<path class="st0" d="M369.1,210.4h-0.9v-7.5h0.9V210.4z"/>
	<path class="st0" d="M370.6,203.7c0-0.1,0-0.3,0.1-0.4c0.1-0.1,0.2-0.2,0.4-0.2s0.3,0,0.4,0.2c0.1,0.1,0.1,0.2,0.1,0.4
		s0,0.3-0.1,0.4s-0.2,0.1-0.4,0.1s-0.3,0-0.4-0.1C370.6,203.9,370.6,203.8,370.6,203.7z M371.6,210.4h-0.9v-5.3h0.9V210.4z"/>
	<path class="st0" d="M372.8,207.7c0-0.5,0.1-1,0.3-1.4c0.2-0.4,0.5-0.7,0.8-1c0.4-0.2,0.8-0.3,1.2-0.3c0.7,0,1.3,0.2,1.7,0.7
		c0.4,0.5,0.7,1.2,0.7,2v0.1c0,0.5-0.1,1-0.3,1.4c-0.2,0.4-0.5,0.7-0.8,1c-0.4,0.2-0.8,0.3-1.3,0.3c-0.7,0-1.3-0.2-1.7-0.7
		C373,209.2,372.8,208.6,372.8,207.7L372.8,207.7z M373.7,207.8c0,0.6,0.1,1.1,0.4,1.4c0.3,0.4,0.6,0.5,1.1,0.5
		c0.5,0,0.8-0.2,1.1-0.5c0.3-0.4,0.4-0.9,0.4-1.5c0-0.6-0.1-1-0.4-1.4c-0.3-0.4-0.6-0.5-1.1-0.5c-0.4,0-0.8,0.2-1.1,0.5
		C373.8,206.6,373.7,207.1,373.7,207.8z"/>
	<path class="st0" d="M379.6,205.1l0,0.7c0.4-0.5,0.9-0.8,1.6-0.8c1.1,0,1.7,0.6,1.7,1.9v3.5H382v-3.5c0-0.4-0.1-0.7-0.3-0.8
		c-0.2-0.2-0.4-0.3-0.8-0.3c-0.3,0-0.5,0.1-0.8,0.2s-0.4,0.4-0.5,0.6v3.8h-0.9v-5.3H379.6z"/>
	<path class="st0" d="M386.1,207.7h-2.4V207h2.4V207.7z"/>
	<path class="st0" d="M387.4,210.4v-4.6h-0.8v-0.7h0.8v-0.5c0-0.6,0.2-1,0.5-1.3c0.3-0.3,0.7-0.5,1.3-0.5c0.2,0,0.4,0,0.6,0.1l0,0.7
		c-0.2,0-0.3,0-0.5,0c-0.3,0-0.5,0.1-0.7,0.3c-0.2,0.2-0.2,0.4-0.2,0.7v0.6h1.1v0.7h-1.1v4.6H387.4z"/>
	<path class="st0" d="M393,205.9c-0.1,0-0.3,0-0.4,0c-0.6,0-1,0.3-1.2,0.8v3.8h-0.9v-5.3h0.9l0,0.6c0.3-0.5,0.7-0.7,1.3-0.7
		c0.2,0,0.3,0,0.4,0.1V205.9z"/>
	<path class="st0" d="M396.9,210.4c-0.1-0.1-0.1-0.3-0.1-0.6c-0.4,0.4-0.9,0.7-1.5,0.7c-0.5,0-0.9-0.1-1.3-0.4
		c-0.3-0.3-0.5-0.7-0.5-1.1c0-0.6,0.2-1,0.6-1.3c0.4-0.3,1-0.5,1.8-0.5h0.9v-0.4c0-0.3-0.1-0.6-0.3-0.8c-0.2-0.2-0.5-0.3-0.8-0.3
		c-0.3,0-0.6,0.1-0.8,0.2c-0.2,0.2-0.3,0.4-0.3,0.6h-0.9c0-0.3,0.1-0.5,0.3-0.8c0.2-0.2,0.4-0.4,0.8-0.6c0.3-0.1,0.7-0.2,1.1-0.2
		c0.6,0,1.1,0.2,1.4,0.5c0.3,0.3,0.5,0.7,0.5,1.3v2.4c0,0.5,0.1,0.9,0.2,1.2v0.1H396.9z M395.4,209.7c0.3,0,0.6-0.1,0.8-0.2
		s0.4-0.3,0.6-0.6v-1.1h-0.7c-1.1,0-1.7,0.3-1.7,1c0,0.3,0.1,0.5,0.3,0.7C394.9,209.6,395.1,209.7,395.4,209.7z"/>
	<path class="st0" d="M402.4,209.8c-0.4,0.4-0.9,0.6-1.5,0.6c-0.6,0-1-0.2-1.3-0.5c-0.3-0.3-0.4-0.8-0.4-1.5v-3.4h0.9v3.4
		c0,0.8,0.3,1.2,1,1.2c0.7,0,1.1-0.3,1.4-0.8v-3.8h0.9v5.3h-0.9L402.4,209.8z"/>
	<path class="st0" d="M404.4,207.7c0-0.8,0.2-1.5,0.6-2s0.9-0.7,1.5-0.7c0.6,0,1.1,0.2,1.5,0.6v-2.8h0.9v7.5H408l0-0.6
		c-0.4,0.4-0.9,0.7-1.5,0.7c-0.6,0-1.1-0.3-1.5-0.8C404.6,209.2,404.4,208.5,404.4,207.7L404.4,207.7z M405.3,207.8
		c0,0.6,0.1,1.1,0.4,1.4c0.2,0.3,0.6,0.5,1,0.5c0.6,0,1-0.3,1.3-0.8v-2.4c-0.3-0.5-0.7-0.7-1.2-0.7c-0.4,0-0.8,0.2-1,0.5
		S405.3,207.1,405.3,207.8z"/>
	<path class="st0" d="M412.1,207.7h-2.4V207h2.4V207.7z"/>
	<path class="st0" d="M415.6,205.9c-0.1,0-0.3,0-0.4,0c-0.6,0-1,0.3-1.2,0.8v3.8H413v-5.3h0.9l0,0.6c0.3-0.5,0.7-0.7,1.3-0.7
		c0.2,0,0.3,0,0.4,0.1V205.9z"/>
	<path class="st0" d="M418.5,210.5c-0.7,0-1.3-0.2-1.7-0.7c-0.4-0.5-0.7-1.1-0.7-1.9v-0.2c0-0.5,0.1-1,0.3-1.4
		c0.2-0.4,0.5-0.7,0.8-1c0.4-0.2,0.8-0.3,1.2-0.3c0.7,0,1.2,0.2,1.6,0.7c0.4,0.5,0.6,1.1,0.6,1.9v0.4H417c0,0.5,0.2,0.9,0.5,1.3
		c0.3,0.3,0.7,0.5,1.1,0.5c0.3,0,0.6-0.1,0.8-0.2c0.2-0.1,0.4-0.3,0.6-0.5l0.6,0.4C420,210.1,419.4,210.5,418.5,210.5z M418.4,205.7
		c-0.4,0-0.7,0.1-0.9,0.4c-0.2,0.3-0.4,0.6-0.5,1.1h2.6v-0.1c0-0.5-0.1-0.8-0.4-1.1C419.1,205.8,418.8,205.7,418.4,205.7z"/>
	<path class="st0" d="M426.1,207.8c0,0.8-0.2,1.5-0.6,1.9c-0.4,0.5-0.9,0.7-1.5,0.7c-0.6,0-1.1-0.2-1.5-0.6v2.5h-0.9v-7.3h0.8l0,0.6
		c0.4-0.5,0.9-0.7,1.5-0.7c0.6,0,1.1,0.2,1.5,0.7C425.9,206.2,426.1,206.8,426.1,207.8L426.1,207.8z M425.2,207.7
		c0-0.6-0.1-1.1-0.4-1.4c-0.3-0.3-0.6-0.5-1-0.5c-0.5,0-1,0.2-1.2,0.7v2.5c0.3,0.5,0.7,0.7,1.2,0.7c0.4,0,0.8-0.2,1-0.5
		C425,208.9,425.2,208.4,425.2,207.7z"/>
	<path class="st0" d="M427,207.7c0-0.5,0.1-1,0.3-1.4c0.2-0.4,0.5-0.7,0.8-1c0.4-0.2,0.8-0.3,1.2-0.3c0.7,0,1.3,0.2,1.7,0.7
		c0.4,0.5,0.7,1.2,0.7,2v0.1c0,0.5-0.1,1-0.3,1.4c-0.2,0.4-0.5,0.7-0.8,1c-0.4,0.2-0.8,0.3-1.3,0.3c-0.7,0-1.3-0.2-1.7-0.7
		C427.2,209.2,427,208.6,427,207.7L427,207.7z M427.9,207.8c0,0.6,0.1,1.1,0.4,1.4c0.3,0.4,0.6,0.5,1.1,0.5c0.5,0,0.8-0.2,1.1-0.5
		c0.3-0.4,0.4-0.9,0.4-1.5c0-0.6-0.1-1-0.4-1.4c-0.3-0.4-0.6-0.5-1.1-0.5c-0.4,0-0.8,0.2-1.1,0.5C428,206.6,427.9,207.1,427.9,207.8
		z"/>
	<path class="st0" d="M435.5,205.9c-0.1,0-0.3,0-0.4,0c-0.6,0-1,0.3-1.2,0.8v3.8h-0.9v-5.3h0.9l0,0.6c0.3-0.5,0.7-0.7,1.3-0.7
		c0.2,0,0.3,0,0.4,0.1V205.9z"/>
	<path class="st0" d="M437.8,203.8v1.3h1v0.7h-1v3.3c0,0.2,0,0.4,0.1,0.5c0.1,0.1,0.2,0.2,0.4,0.2c0.1,0,0.2,0,0.4-0.1v0.7
		c-0.2,0.1-0.5,0.1-0.7,0.1c-0.4,0-0.7-0.1-0.9-0.4s-0.3-0.6-0.3-1v-3.3h-1v-0.7h1v-1.3H437.8z"/>
	<path class="st0" d="M442.9,209c0-0.2-0.1-0.4-0.3-0.6c-0.2-0.1-0.5-0.3-1-0.3c-0.5-0.1-0.8-0.2-1.1-0.4c-0.3-0.1-0.5-0.3-0.6-0.5
		c-0.1-0.2-0.2-0.4-0.2-0.7c0-0.4,0.2-0.8,0.5-1.1c0.4-0.3,0.8-0.4,1.4-0.4c0.6,0,1.1,0.2,1.5,0.5c0.4,0.3,0.6,0.7,0.6,1.2h-0.9
		c0-0.2-0.1-0.5-0.3-0.6c-0.2-0.2-0.5-0.3-0.8-0.3c-0.3,0-0.6,0.1-0.8,0.2c-0.2,0.1-0.3,0.3-0.3,0.6c0,0.2,0.1,0.4,0.3,0.5
		c0.2,0.1,0.5,0.2,0.9,0.3c0.5,0.1,0.8,0.2,1.1,0.4c0.3,0.1,0.5,0.3,0.6,0.5c0.1,0.2,0.2,0.4,0.2,0.7c0,0.5-0.2,0.9-0.6,1.1
		c-0.4,0.3-0.9,0.4-1.5,0.4c-0.4,0-0.8-0.1-1.1-0.2c-0.3-0.2-0.6-0.4-0.8-0.6c-0.2-0.3-0.3-0.6-0.3-0.9h0.9c0,0.3,0.1,0.5,0.4,0.7
		c0.2,0.2,0.5,0.3,0.9,0.3c0.3,0,0.6-0.1,0.8-0.2C442.8,209.4,442.9,209.2,442.9,209z"/>
	<path class="st0" d="M446.8,207.7h-2.4V207h2.4V207.7z"/>
	<path class="st0" d="M449.8,209.7c0.3,0,0.6-0.1,0.8-0.3s0.4-0.4,0.4-0.7h0.9c0,0.3-0.1,0.6-0.3,0.9s-0.4,0.5-0.8,0.7
		c-0.3,0.2-0.7,0.2-1,0.2c-0.7,0-1.3-0.2-1.7-0.7c-0.4-0.5-0.6-1.1-0.6-2v-0.2c0-0.5,0.1-1,0.3-1.4s0.5-0.7,0.8-0.9
		c0.4-0.2,0.8-0.3,1.3-0.3c0.6,0,1.1,0.2,1.5,0.5c0.4,0.4,0.6,0.8,0.6,1.4h-0.9c0-0.3-0.2-0.6-0.4-0.8c-0.2-0.2-0.5-0.3-0.9-0.3
		c-0.5,0-0.8,0.2-1.1,0.5c-0.3,0.3-0.4,0.8-0.4,1.4v0.2c0,0.6,0.1,1.1,0.4,1.4C449,209.6,449.4,209.7,449.8,209.7z"/>
	<path class="st0" d="M452.7,207.7c0-0.5,0.1-1,0.3-1.4c0.2-0.4,0.5-0.7,0.8-1c0.4-0.2,0.8-0.3,1.2-0.3c0.7,0,1.3,0.2,1.7,0.7
		c0.4,0.5,0.7,1.2,0.7,2v0.1c0,0.5-0.1,1-0.3,1.4c-0.2,0.4-0.5,0.7-0.8,1c-0.4,0.2-0.8,0.3-1.3,0.3c-0.7,0-1.3-0.2-1.7-0.7
		C452.9,209.2,452.7,208.6,452.7,207.7L452.7,207.7z M453.6,207.8c0,0.6,0.1,1.1,0.4,1.4c0.3,0.4,0.6,0.5,1.1,0.5
		c0.5,0,0.8-0.2,1.1-0.5c0.3-0.4,0.4-0.9,0.4-1.5c0-0.6-0.1-1-0.4-1.4c-0.3-0.4-0.6-0.5-1.1-0.5c-0.4,0-0.8,0.2-1.1,0.5
		C453.8,206.6,453.6,207.1,453.6,207.8z"/>
	<path class="st0" d="M459.5,205.1l0,0.7c0.4-0.5,0.9-0.8,1.6-0.8c1.1,0,1.7,0.6,1.7,1.9v3.5h-0.9v-3.5c0-0.4-0.1-0.7-0.3-0.8
		c-0.2-0.2-0.4-0.3-0.8-0.3c-0.3,0-0.5,0.1-0.8,0.2s-0.4,0.4-0.5,0.6v3.8h-0.9v-5.3H459.5z"/>
	<path class="st0" d="M467.2,209c0-0.2-0.1-0.4-0.3-0.6c-0.2-0.1-0.5-0.3-1-0.3c-0.5-0.1-0.8-0.2-1.1-0.4c-0.3-0.1-0.5-0.3-0.6-0.5
		c-0.1-0.2-0.2-0.4-0.2-0.7c0-0.4,0.2-0.8,0.5-1.1c0.4-0.3,0.8-0.4,1.4-0.4c0.6,0,1.1,0.2,1.5,0.5c0.4,0.3,0.6,0.7,0.6,1.2h-0.9
		c0-0.2-0.1-0.5-0.3-0.6c-0.2-0.2-0.5-0.3-0.8-0.3c-0.3,0-0.6,0.1-0.8,0.2c-0.2,0.1-0.3,0.3-0.3,0.6c0,0.2,0.1,0.4,0.3,0.5
		c0.2,0.1,0.5,0.2,0.9,0.3c0.5,0.1,0.8,0.2,1.1,0.4c0.3,0.1,0.5,0.3,0.6,0.5c0.1,0.2,0.2,0.4,0.2,0.7c0,0.5-0.2,0.9-0.6,1.1
		c-0.4,0.3-0.9,0.4-1.5,0.4c-0.4,0-0.8-0.1-1.1-0.2c-0.3-0.2-0.6-0.4-0.8-0.6c-0.2-0.3-0.3-0.6-0.3-0.9h0.9c0,0.3,0.1,0.5,0.4,0.7
		c0.2,0.2,0.5,0.3,0.9,0.3c0.3,0,0.6-0.1,0.8-0.2C467.1,209.4,467.2,209.2,467.2,209z"/>
	<path class="st0" d="M472.6,209.8c-0.4,0.4-0.9,0.6-1.5,0.6c-0.6,0-1-0.2-1.3-0.5c-0.3-0.3-0.4-0.8-0.4-1.5v-3.4h0.9v3.4
		c0,0.8,0.3,1.2,1,1.2c0.7,0,1.1-0.3,1.4-0.8v-3.8h0.9v5.3h-0.9L472.6,209.8z"/>
	<path class="st0" d="M475.7,205.1l0,0.6c0.4-0.5,0.9-0.7,1.6-0.7c0.7,0,1.2,0.3,1.5,0.8c0.2-0.3,0.4-0.5,0.7-0.6
		c0.3-0.2,0.6-0.2,1-0.2c1.2,0,1.7,0.6,1.8,1.8v3.5h-0.9v-3.5c0-0.4-0.1-0.7-0.3-0.8c-0.2-0.2-0.5-0.3-0.9-0.3
		c-0.3,0-0.6,0.1-0.8,0.3s-0.3,0.5-0.4,0.8v3.5h-0.9v-3.5c0-0.8-0.4-1.2-1.1-1.2c-0.6,0-1,0.3-1.2,0.8v3.9h-0.9v-5.3H475.7z"/>
	<path class="st0" d="M485.8,210.5c-0.7,0-1.3-0.2-1.7-0.7c-0.4-0.5-0.7-1.1-0.7-1.9v-0.2c0-0.5,0.1-1,0.3-1.4
		c0.2-0.4,0.5-0.7,0.8-1c0.4-0.2,0.8-0.3,1.2-0.3c0.7,0,1.2,0.2,1.6,0.7c0.4,0.5,0.6,1.1,0.6,1.9v0.4h-3.6c0,0.5,0.2,0.9,0.5,1.3
		c0.3,0.3,0.7,0.5,1.1,0.5c0.3,0,0.6-0.1,0.8-0.2c0.2-0.1,0.4-0.3,0.6-0.5l0.6,0.4C487.3,210.1,486.7,210.5,485.8,210.5z
		 M485.7,205.7c-0.4,0-0.7,0.1-0.9,0.4c-0.2,0.3-0.4,0.6-0.5,1.1h2.6v-0.1c0-0.5-0.1-0.8-0.4-1.1
		C486.4,205.8,486.1,205.7,485.7,205.7z"/>
	<path class="st0" d="M491.5,205.9c-0.1,0-0.3,0-0.4,0c-0.6,0-1,0.3-1.2,0.8v3.8h-0.9v-5.3h0.9l0,0.6c0.3-0.5,0.7-0.7,1.3-0.7
		c0.2,0,0.3,0,0.4,0.1V205.9z"/>
	<path class="st0" d="M495.4,209c0-0.2-0.1-0.4-0.3-0.6c-0.2-0.1-0.5-0.3-1-0.3c-0.5-0.1-0.8-0.2-1.1-0.4c-0.3-0.1-0.5-0.3-0.6-0.5
		c-0.1-0.2-0.2-0.4-0.2-0.7c0-0.4,0.2-0.8,0.5-1.1c0.4-0.3,0.8-0.4,1.4-0.4c0.6,0,1.1,0.2,1.5,0.5c0.4,0.3,0.6,0.7,0.6,1.2h-0.9
		c0-0.2-0.1-0.5-0.3-0.6c-0.2-0.2-0.5-0.3-0.8-0.3c-0.3,0-0.6,0.1-0.8,0.2c-0.2,0.1-0.3,0.3-0.3,0.6c0,0.2,0.1,0.4,0.3,0.5
		c0.2,0.1,0.5,0.2,0.9,0.3c0.5,0.1,0.8,0.2,1.1,0.4c0.3,0.1,0.5,0.3,0.6,0.5c0.1,0.2,0.2,0.4,0.2,0.7c0,0.5-0.2,0.9-0.6,1.1
		c-0.4,0.3-0.9,0.4-1.5,0.4c-0.4,0-0.8-0.1-1.1-0.2c-0.3-0.2-0.6-0.4-0.8-0.6c-0.2-0.3-0.3-0.6-0.3-0.9h0.9c0,0.3,0.1,0.5,0.4,0.7
		c0.2,0.2,0.5,0.3,0.9,0.3c0.3,0,0.6-0.1,0.8-0.2C495.3,209.4,495.4,209.2,495.4,209z"/>
	<path class="st0" d="M499.3,207.7h-2.4V207h2.4V207.7z"/>
	<path class="st0" d="M504.8,210.4h-4.7v-0.6l2.5-2.7c0.4-0.4,0.6-0.8,0.8-1c0.1-0.3,0.2-0.5,0.2-0.8c0-0.4-0.1-0.7-0.3-0.9
		c-0.2-0.2-0.5-0.4-0.9-0.4c-0.4,0-0.8,0.1-1,0.4c-0.2,0.3-0.4,0.6-0.4,1.1H500c0-0.7,0.2-1.2,0.6-1.6c0.4-0.4,1-0.6,1.7-0.6
		c0.7,0,1.2,0.2,1.6,0.5s0.6,0.8,0.6,1.4c0,0.7-0.4,1.5-1.3,2.5l-1.9,2.1h3.6V210.4z"/>
	<path class="st0" d="M510.2,207.3c0,1.1-0.2,1.8-0.5,2.4c-0.4,0.5-0.9,0.8-1.7,0.8c-0.8,0-1.3-0.3-1.7-0.8s-0.6-1.3-0.6-2.3v-1.2
		c0-1,0.2-1.8,0.5-2.3s0.9-0.8,1.7-0.8c0.8,0,1.3,0.2,1.7,0.7c0.4,0.5,0.5,1.2,0.6,2.3V207.3z M509.3,206.1c0-0.8-0.1-1.3-0.3-1.7
		c-0.2-0.3-0.6-0.5-1-0.5c-0.5,0-0.8,0.2-1,0.5c-0.2,0.3-0.3,0.9-0.3,1.6v1.4c0,0.8,0.1,1.3,0.3,1.7c0.2,0.4,0.6,0.5,1,0.5
		c0.4,0,0.8-0.2,1-0.5c0.2-0.3,0.3-0.9,0.3-1.6V206.1z"/>
	<path class="st0" d="M516,210.4h-4.7v-0.6l2.5-2.7c0.4-0.4,0.6-0.8,0.8-1c0.1-0.3,0.2-0.5,0.2-0.8c0-0.4-0.1-0.7-0.3-0.9
		c-0.2-0.2-0.5-0.4-0.9-0.4c-0.4,0-0.8,0.1-1,0.4c-0.2,0.3-0.4,0.6-0.4,1.1h-0.9c0-0.7,0.2-1.2,0.6-1.6c0.4-0.4,1-0.6,1.7-0.6
		c0.7,0,1.2,0.2,1.6,0.5s0.6,0.8,0.6,1.4c0,0.7-0.4,1.5-1.3,2.5l-1.9,2.1h3.6V210.4z"/>
	<path class="st0" d="M519.9,210.4H519v-6l-1.8,0.7v-0.8l2.6-1h0.1V210.4z"/>
	<path class="st0" d="M524.5,207.7h-2.4V207h2.4V207.7z"/>
	<path class="st0" d="M529.8,207.3c0,1.1-0.2,1.8-0.5,2.4c-0.4,0.5-0.9,0.8-1.7,0.8c-0.8,0-1.3-0.3-1.7-0.8s-0.6-1.3-0.6-2.3v-1.2
		c0-1,0.2-1.8,0.5-2.3s0.9-0.8,1.7-0.8c0.8,0,1.3,0.2,1.7,0.7c0.4,0.5,0.5,1.2,0.6,2.3V207.3z M528.9,206.1c0-0.8-0.1-1.3-0.3-1.7
		c-0.2-0.3-0.6-0.5-1-0.5c-0.5,0-0.8,0.2-1,0.5c-0.2,0.3-0.3,0.9-0.3,1.6v1.4c0,0.8,0.1,1.3,0.3,1.7c0.2,0.4,0.6,0.5,1,0.5
		c0.4,0,0.8-0.2,1-0.5c0.2-0.3,0.3-0.9,0.3-1.6V206.1z"/>
</g>
<g>
	<path class="st1" d="M346.2,76.2h-5.6v-27h5.6V76.2z"/>
	<path class="st1" d="M355.9,56.1l0.2,2.3c1.4-1.8,3.4-2.7,5.8-2.7c2.1,0,3.7,0.6,4.8,1.9c1,1.2,1.6,3.1,1.6,5.6v13h-5.4V63.4
		c0-1.1-0.2-2-0.7-2.5c-0.5-0.5-1.3-0.8-2.5-0.8c-1.5,0-2.6,0.6-3.4,1.9v14.2h-5.4V56.1H355.9z"/>
	<path class="st1" d="M400,76.2h-18.5v-3.7l8.7-9.3c1.2-1.3,2.1-2.5,2.7-3.4c0.6-1,0.9-1.9,0.9-2.8c0-1.2-0.3-2.1-0.9-2.8
		c-0.6-0.7-1.5-1-2.6-1c-1.2,0-2.2,0.4-2.9,1.3c-0.7,0.8-1,1.9-1,3.3H381c0-1.6,0.4-3.1,1.2-4.5c0.8-1.4,1.9-2.4,3.3-3.2
		c1.4-0.8,3.1-1.2,4.9-1.2c2.8,0,4.9,0.7,6.5,2c1.5,1.3,2.3,3.2,2.3,5.7c0,1.3-0.3,2.7-1,4.1c-0.7,1.4-1.9,3-3.6,4.8l-6.1,6.5H400
		V76.2z"/>
	<path class="st1" d="M421.5,65c0,3.7-0.8,6.6-2.3,8.6c-1.5,2-3.8,3-6.8,3c-2.9,0-5.2-1-6.8-2.9c-1.6-1.9-2.4-4.7-2.4-8.3v-5
		c0-3.8,0.8-6.6,2.3-8.6c1.6-2,3.8-2.9,6.8-2.9c2.9,0,5.2,1,6.8,2.9c1.6,1.9,2.4,4.7,2.4,8.3V65z M416.1,59.6c0-2.2-0.3-3.9-0.9-4.9
		c-0.6-1-1.6-1.5-2.9-1.5c-1.3,0-2.2,0.5-2.8,1.5c-0.6,1-0.9,2.5-1,4.6v6.6c0,2.2,0.3,3.8,0.9,4.9c0.6,1.1,1.6,1.6,2.9,1.6
		c1.3,0,2.3-0.5,2.8-1.5c0.6-1,0.9-2.6,0.9-4.7V59.6z"/>
	<path class="st1" d="M443.6,76.2h-18.5v-3.7l8.7-9.3c1.2-1.3,2.1-2.5,2.7-3.4c0.6-1,0.9-1.9,0.9-2.8c0-1.2-0.3-2.1-0.9-2.8
		c-0.6-0.7-1.5-1-2.6-1c-1.2,0-2.2,0.4-2.9,1.3c-0.7,0.8-1,1.9-1,3.3h-5.4c0-1.6,0.4-3.1,1.2-4.5c0.8-1.4,1.9-2.4,3.3-3.2
		c1.4-0.8,3.1-1.2,4.9-1.2c2.8,0,4.9,0.7,6.5,2c1.5,1.3,2.3,3.2,2.3,5.7c0,1.3-0.3,2.7-1,4.1c-0.7,1.4-1.9,3-3.6,4.8l-6.1,6.5h11.6
		V76.2z"/>
	<path class="st1" d="M459.9,76.2h-5.4V55.5l-6.4,2v-4.4l11.2-4h0.6V76.2z"/>
	<path class="st1" d="M470.3,83l-2.8-1.5l0.7-1.2c0.8-1.5,1.3-3,1.3-4.5v-4.2h4.5l0,3.7c0,1.4-0.4,2.8-1,4.2
		C472.3,80.9,471.4,82,470.3,83z"/>
	<path class="st1" d="M494.1,51.2v4.9h3.4v3.9h-3.4v10c0,0.7,0.1,1.3,0.4,1.6c0.3,0.3,0.8,0.5,1.6,0.5c0.6,0,1.1,0,1.6-0.1v4.1
		c-1.1,0.3-2.1,0.5-3.2,0.5c-3.8,0-5.7-1.9-5.8-5.7V60.1h-2.9v-3.9h2.9v-4.9H494.1z"/>
	<path class="st1" d="M505.7,58.3c1.4-1.7,3.2-2.6,5.4-2.6c4.4,0,6.6,2.5,6.6,7.6v12.9h-5.4V63.5c0-1.2-0.2-2-0.7-2.6
		c-0.5-0.5-1.3-0.8-2.5-0.8c-1.6,0-2.7,0.6-3.4,1.8v14.3h-5.4V47.7h5.4V58.3z"/>
	<path class="st1" d="M531,76.6c-2.9,0-5.3-0.9-7.2-2.7c-1.8-1.8-2.8-4.2-2.8-7.2v-0.5c0-2,0.4-3.8,1.2-5.4c0.8-1.6,1.9-2.8,3.3-3.7
		c1.4-0.9,3.1-1.3,4.9-1.3c2.7,0,4.9,0.9,6.5,2.6c1.6,1.7,2.4,4.2,2.4,7.4v2.2h-12.8c0.2,1.3,0.7,2.4,1.6,3.2c0.9,0.8,2,1.2,3.3,1.2
		c2.1,0,3.7-0.7,4.8-2.2l2.6,3c-0.8,1.1-1.9,2-3.3,2.7C534.2,76.2,532.7,76.6,531,76.6z M530.4,60.1c-1.1,0-1.9,0.4-2.6,1.1
		c-0.7,0.7-1.1,1.8-1.3,3.1h7.5v-0.4c0-1.2-0.3-2.1-1-2.8C532.4,60.4,531.5,60.1,530.4,60.1z"/>
	<path class="st1" d="M568.4,65.2h-10.7v11h-5.6v-27h17.6v4.5h-12v7h10.7V65.2z"/>
	<path class="st1" d="M593.7,53.7h-8.3v22.5h-5.6V53.7h-8.2v-4.5h22V53.7z"/>
	<path class="st1" d="M617.5,67.2c-0.2,2.9-1.3,5.2-3.2,6.9c-1.9,1.7-4.5,2.5-7.7,2.5c-3.5,0-6.2-1.2-8.2-3.5c-2-2.3-3-5.5-3-9.6
		v-1.7c0-2.6,0.5-4.9,1.4-6.9c0.9-2,2.2-3.5,3.9-4.6c1.7-1.1,3.7-1.6,5.9-1.6c3.1,0,5.6,0.8,7.5,2.5c1.9,1.7,3,4,3.3,7H612
		c-0.1-1.7-0.6-3-1.5-3.8c-0.8-0.8-2.1-1.2-3.8-1.2c-1.9,0-3.2,0.7-4.2,2c-0.9,1.3-1.4,3.4-1.4,6.2v2c0,2.9,0.4,5.1,1.3,6.4
		c0.9,1.3,2.3,2,4.2,2c1.7,0,3-0.4,3.9-1.2c0.8-0.8,1.3-2,1.5-3.6H617.5z"/>
	<path class="st1" d="M641.6,61.1c-0.7-0.1-1.4-0.1-1.9-0.1c-2,0-3.4,0.7-4,2.1v13.1h-5.4V56.1h5.1l0.1,2.4c1.1-1.8,2.6-2.8,4.5-2.8
		c0.6,0,1.2,0.1,1.7,0.2L641.6,61.1z"/>
	<path class="st1" d="M653,76.6c-2.9,0-5.3-0.9-7.2-2.7c-1.8-1.8-2.8-4.2-2.8-7.2v-0.5c0-2,0.4-3.8,1.2-5.4c0.8-1.6,1.9-2.8,3.3-3.7
		c1.4-0.9,3.1-1.3,4.9-1.3c2.7,0,4.9,0.9,6.5,2.6c1.6,1.7,2.4,4.2,2.4,7.4v2.2h-12.8c0.2,1.3,0.7,2.4,1.6,3.2c0.9,0.8,2,1.2,3.3,1.2
		c2.1,0,3.7-0.7,4.8-2.2l2.6,3c-0.8,1.1-1.9,2-3.3,2.7C656.2,76.2,654.7,76.6,653,76.6z M652.4,60.1c-1.1,0-1.9,0.4-2.6,1.1
		c-0.7,0.7-1.1,1.8-1.3,3.1h7.5v-0.4c0-1.2-0.3-2.1-1-2.8C654.4,60.4,653.6,60.1,652.4,60.1z"/>
	<path class="st1" d="M672.7,72.2c1,0,1.8-0.3,2.4-0.8c0.6-0.5,0.9-1.3,1-2.2h5c0,1.4-0.4,2.6-1.1,3.7c-0.7,1.1-1.7,2-3,2.6
		c-1.3,0.6-2.7,0.9-4.2,0.9c-2.9,0-5.1-0.9-6.8-2.7c-1.7-1.8-2.5-4.3-2.5-7.6v-0.4c0-3.1,0.8-5.6,2.5-7.4c1.6-1.8,3.9-2.8,6.8-2.8
		c2.5,0,4.5,0.7,6,2.1c1.5,1.4,2.3,3.3,2.3,5.7h-5c0-1-0.3-1.9-1-2.5c-0.6-0.7-1.4-1-2.4-1c-1.2,0-2.2,0.5-2.8,1.4
		c-0.6,0.9-1,2.4-1,4.4v0.6c0,2.1,0.3,3.6,0.9,4.5S671.4,72.2,672.7,72.2z"/>
	<path class="st1" d="M693.4,76.6c-2.9,0-5.3-0.9-7.2-2.7c-1.8-1.8-2.8-4.2-2.8-7.2v-0.5c0-2,0.4-3.8,1.2-5.4
		c0.8-1.6,1.9-2.8,3.3-3.7c1.4-0.9,3.1-1.3,4.9-1.3c2.7,0,4.9,0.9,6.5,2.6c1.6,1.7,2.4,4.2,2.4,7.4v2.2h-12.8
		c0.2,1.3,0.7,2.4,1.6,3.2c0.9,0.8,2,1.2,3.3,1.2c2.1,0,3.7-0.7,4.8-2.2l2.6,3c-0.8,1.1-1.9,2-3.3,2.7
		C696.6,76.2,695.1,76.6,693.4,76.6z M692.8,60.1c-1.1,0-1.9,0.4-2.6,1.1c-0.7,0.7-1.1,1.8-1.3,3.1h7.5v-0.4c0-1.2-0.3-2.1-1-2.8
		C694.8,60.4,693.9,60.1,692.8,60.1z"/>
	<path class="st1" d="M704.6,50.9c0-0.8,0.3-1.5,0.8-2c0.5-0.5,1.3-0.8,2.2-0.8c0.9,0,1.6,0.3,2.2,0.8c0.5,0.5,0.8,1.2,0.8,2
		c0,0.8-0.3,1.5-0.8,2c-0.6,0.5-1.3,0.8-2.2,0.8c-0.9,0-1.6-0.3-2.2-0.8C704.9,52.4,704.6,51.7,704.6,50.9z M710.3,76.2H705V56.1
		h5.4V76.2z"/>
	<path class="st1" d="M722.3,69.6l3.7-13.5h5.6l-6.8,20.1h-5.1l-6.8-20.1h5.6L722.3,69.6z"/>
	<path class="st1" d="M743,76.6c-2.9,0-5.3-0.9-7.2-2.7c-1.8-1.8-2.8-4.2-2.8-7.2v-0.5c0-2,0.4-3.8,1.2-5.4c0.8-1.6,1.9-2.8,3.3-3.7
		c1.4-0.9,3.1-1.3,4.9-1.3c2.7,0,4.9,0.9,6.5,2.6c1.6,1.7,2.4,4.2,2.4,7.4v2.2h-12.8c0.2,1.3,0.7,2.4,1.6,3.2c0.9,0.8,2,1.2,3.3,1.2
		c2.1,0,3.7-0.7,4.8-2.2l2.6,3c-0.8,1.1-1.9,2-3.3,2.7C746.2,76.2,744.6,76.6,743,76.6z M742.4,60.1c-1.1,0-1.9,0.4-2.6,1.1
		c-0.7,0.7-1.1,1.8-1.3,3.1h7.5v-0.4c0-1.2-0.3-2.1-1-2.8C744.4,60.4,743.5,60.1,742.4,60.1z"/>
	<path class="st1" d="M753.4,66c0-3.1,0.7-5.6,2.1-7.5c1.4-1.9,3.3-2.8,5.8-2.8c2,0,3.6,0.7,4.8,2.2V47.7h5.4v28.5h-4.8l-0.3-2.1
		c-1.3,1.7-3.1,2.5-5.2,2.5c-2.4,0-4.3-0.9-5.7-2.8C754.1,71.9,753.4,69.3,753.4,66z M758.8,66.4c0,1.9,0.3,3.3,1,4.3
		c0.7,1,1.6,1.5,2.9,1.5c1.7,0,2.8-0.7,3.5-2.1v-7.9c-0.7-1.4-1.8-2.1-3.5-2.1C760.1,60.1,758.8,62.2,758.8,66.4z"/>
	<path class="st1" d="M344.8,104.1l0.2,2.3c1.4-1.8,3.4-2.7,5.8-2.7c2.1,0,3.7,0.6,4.8,1.9c1,1.2,1.6,3.1,1.6,5.6v13h-5.4v-12.8
		c0-1.1-0.2-2-0.7-2.5c-0.5-0.5-1.3-0.8-2.5-0.8c-1.5,0-2.6,0.6-3.4,1.9v14.2h-5.4v-20.1H344.8z"/>
	<path class="st1" d="M370.4,124.6c-2.9,0-5.3-0.9-7.2-2.7c-1.8-1.8-2.8-4.2-2.8-7.2v-0.5c0-2,0.4-3.8,1.2-5.4
		c0.8-1.6,1.9-2.8,3.3-3.7c1.4-0.9,3.1-1.3,4.9-1.3c2.7,0,4.9,0.9,6.5,2.6c1.6,1.7,2.4,4.2,2.4,7.4v2.2h-12.8
		c0.2,1.3,0.7,2.4,1.6,3.2c0.9,0.8,2,1.2,3.3,1.2c2.1,0,3.7-0.7,4.8-2.2l2.6,3c-0.8,1.1-1.9,2-3.3,2.7
		C373.6,124.2,372.1,124.6,370.4,124.6z M369.8,108.1c-1.1,0-1.9,0.4-2.6,1.1c-0.7,0.7-1.1,1.8-1.3,3.1h7.5v-0.4
		c0-1.2-0.3-2.1-1-2.8C371.8,108.4,370.9,108.1,369.8,108.1z"/>
	<path class="st1" d="M393.4,124.2c-0.2-0.5-0.4-1.1-0.5-1.8c-1.3,1.4-3,2.2-5.1,2.2c-2,0-3.6-0.6-4.9-1.7c-1.3-1.1-1.9-2.6-1.9-4.3
		c0-2.1,0.8-3.8,2.4-4.9c1.6-1.1,3.9-1.7,6.8-1.7h2.5v-1.2c0-0.9-0.2-1.7-0.7-2.2c-0.5-0.6-1.2-0.8-2.3-0.8c-0.9,0-1.6,0.2-2.1,0.6
		c-0.5,0.4-0.8,1-0.8,1.8h-5.4c0-1.2,0.4-2.2,1.1-3.2c0.7-1,1.7-1.8,3-2.3c1.3-0.6,2.8-0.8,4.4-0.8c2.5,0,4.4,0.6,5.9,1.9
		c1.5,1.2,2.2,3,2.2,5.2v8.7c0,1.9,0.3,3.3,0.8,4.3v0.3H393.4z M388.9,120.5c0.8,0,1.5-0.2,2.2-0.5c0.7-0.4,1.2-0.8,1.5-1.4v-3.5h-2
		c-2.7,0-4.1,0.9-4.3,2.8l0,0.3c0,0.7,0.2,1.2,0.7,1.7C387.5,120.2,388.1,120.5,388.9,120.5z"/>
	<path class="st1" d="M413.4,109.1c-0.7-0.1-1.4-0.1-1.9-0.1c-2,0-3.4,0.7-4,2.1v13.1h-5.4v-20.1h5.1l0.1,2.4
		c1.1-1.8,2.6-2.8,4.5-2.8c0.6,0,1.2,0.1,1.7,0.2L413.4,109.1z"/>
	<path class="st1" d="M421.6,124.2h-5.4V95.7h5.4V124.2z"/>
	<path class="st1" d="M433.5,116.6l3.7-12.5h5.8l-8.1,23.2l-0.4,1.1c-1.2,2.6-3.2,3.9-5.9,3.9c-0.8,0-1.6-0.1-2.4-0.4v-4.1l0.8,0
		c1,0,1.8-0.2,2.3-0.5c0.5-0.3,0.9-0.8,1.2-1.5l0.6-1.7l-7-20.1h5.8L433.5,116.6z"/>
	<path class="st1" d="M467.4,124.2H462v-20.7l-6.4,2v-4.4l11.2-4h0.6V124.2z"/>
	<path class="st1" d="M476.6,121.6c0-0.9,0.3-1.5,0.9-2.1c0.6-0.5,1.3-0.8,2.2-0.8c0.9,0,1.6,0.3,2.2,0.8c0.6,0.5,0.9,1.2,0.9,2.1
		c0,0.8-0.3,1.5-0.9,2.1c-0.6,0.5-1.3,0.8-2.2,0.8c-0.9,0-1.6-0.3-2.2-0.8C476.9,123.1,476.6,122.4,476.6,121.6z"/>
	<path class="st1" d="M503.1,114h3.1v4.3h-3.1v5.8h-5.4v-5.8h-11.1l-0.2-3.4l11.3-17.8h5.4V114z M491.7,114h6v-9.5l-0.4,0.6
		L491.7,114z"/>
	<path class="st1" d="M523.7,104.1l0.2,2.2c1.4-1.7,3.3-2.6,5.8-2.6c2.6,0,4.4,1,5.3,3.1c1.4-2,3.4-3.1,6-3.1c2.2,0,3.8,0.6,4.9,1.9
		c1.1,1.3,1.6,3.2,1.6,5.7v12.8h-5.4v-12.8c0-1.1-0.2-2-0.7-2.5c-0.4-0.5-1.2-0.8-2.4-0.8c-1.6,0-2.7,0.8-3.3,2.3l0,13.8h-5.4v-12.8
		c0-1.2-0.2-2-0.7-2.5c-0.5-0.5-1.2-0.8-2.3-0.8c-1.5,0-2.6,0.6-3.3,1.9v14.2h-5.4v-20.1H523.7z"/>
	<path class="st1" d="M551.5,98.9c0-0.8,0.3-1.5,0.8-2c0.5-0.5,1.3-0.8,2.2-0.8c0.9,0,1.6,0.3,2.2,0.8c0.5,0.5,0.8,1.2,0.8,2
		c0,0.8-0.3,1.5-0.8,2c-0.6,0.5-1.3,0.8-2.2,0.8c-0.9,0-1.6-0.3-2.2-0.8C551.8,100.4,551.5,99.7,551.5,98.9z M557.2,124.2h-5.4
		v-20.1h5.4V124.2z"/>
	<path class="st1" d="M567.3,124.2h-5.4V95.7h5.4V124.2z"/>
	<path class="st1" d="M577.4,124.2H572V95.7h5.4V124.2z"/>
	<path class="st1" d="M581.8,98.9c0-0.8,0.3-1.5,0.8-2c0.5-0.5,1.3-0.8,2.2-0.8c0.9,0,1.6,0.3,2.2,0.8c0.5,0.5,0.8,1.2,0.8,2
		c0,0.8-0.3,1.5-0.8,2c-0.6,0.5-1.3,0.8-2.2,0.8c-0.9,0-1.6-0.3-2.2-0.8C582,100.4,581.8,99.7,581.8,98.9z M587.5,124.2h-5.4v-20.1
		h5.4V124.2z"/>
	<path class="st1" d="M591,114c0-2,0.4-3.8,1.2-5.3c0.8-1.6,1.9-2.8,3.3-3.6c1.4-0.9,3.1-1.3,5-1.3c2.7,0,4.9,0.8,6.6,2.5
		c1.7,1.7,2.7,3.9,2.9,6.8l0,1.4c0,3.1-0.9,5.6-2.6,7.4c-1.7,1.9-4,2.8-6.9,2.8s-5.2-0.9-6.9-2.8c-1.7-1.9-2.6-4.4-2.6-7.6V114z
		 M596.4,114.4c0,1.9,0.4,3.4,1.1,4.4c0.7,1,1.7,1.5,3.1,1.5c1.3,0,2.3-0.5,3-1.5c0.7-1,1.1-2.6,1.1-4.8c0-1.9-0.4-3.3-1.1-4.3
		c-0.7-1-1.8-1.5-3.1-1.5c-1.3,0-2.3,0.5-3,1.5C596.8,110.6,596.4,112.2,596.4,114.4z"/>
	<path class="st1" d="M618.3,104.1l0.2,2.3c1.4-1.8,3.4-2.7,5.8-2.7c2.1,0,3.7,0.6,4.8,1.9c1,1.2,1.6,3.1,1.6,5.6v13h-5.4v-12.8
		c0-1.1-0.2-2-0.7-2.5c-0.5-0.5-1.3-0.8-2.5-0.8c-1.5,0-2.6,0.6-3.4,1.9v14.2h-5.4v-20.1H618.3z"/>
	<path class="st1" d="M655.4,109.1c-0.7-0.1-1.4-0.1-1.9-0.1c-2,0-3.4,0.7-4,2.1v13.1h-5.4v-20.1h5.1l0.1,2.4
		c1.1-1.8,2.6-2.8,4.5-2.8c0.6,0,1.2,0.1,1.7,0.2L655.4,109.1z"/>
	<path class="st1" d="M666.9,124.6c-2.9,0-5.3-0.9-7.2-2.7c-1.8-1.8-2.8-4.2-2.8-7.2v-0.5c0-2,0.4-3.8,1.2-5.4
		c0.8-1.6,1.9-2.8,3.3-3.7c1.4-0.9,3.1-1.3,4.9-1.3c2.7,0,4.9,0.9,6.5,2.6c1.6,1.7,2.4,4.2,2.4,7.4v2.2h-12.8
		c0.2,1.3,0.7,2.4,1.6,3.2c0.9,0.8,2,1.2,3.3,1.2c2.1,0,3.7-0.7,4.8-2.2l2.6,3c-0.8,1.1-1.9,2-3.3,2.7
		C670,124.2,668.5,124.6,666.9,124.6z M666.2,108.1c-1.1,0-1.9,0.4-2.6,1.1c-0.7,0.7-1.1,1.8-1.3,3.1h7.5v-0.4c0-1.2-0.3-2.1-1-2.8
		C668.3,108.4,667.4,108.1,666.2,108.1z"/>
	<path class="st1" d="M696.2,114.3c0,3.1-0.7,5.6-2.1,7.4c-1.4,1.9-3.3,2.8-5.7,2.8c-2,0-3.7-0.7-4.9-2.1v9.5h-5.4v-27.8h5l0.2,2
		c1.3-1.6,3-2.3,5.1-2.3c2.5,0,4.4,0.9,5.8,2.7c1.4,1.8,2.1,4.4,2.1,7.6V114.3z M690.9,114c0-1.9-0.3-3.3-1-4.3
		c-0.7-1-1.6-1.5-2.9-1.5c-1.7,0-2.8,0.6-3.5,1.9v8.2c0.7,1.3,1.8,2,3.5,2C689.6,120.2,690.9,118.1,690.9,114z"/>
	<path class="st1" d="M698.7,114c0-2,0.4-3.8,1.2-5.3c0.8-1.6,1.9-2.8,3.3-3.6c1.4-0.9,3.1-1.3,5-1.3c2.7,0,4.9,0.8,6.6,2.5
		c1.7,1.7,2.7,3.9,2.9,6.8l0,1.4c0,3.1-0.9,5.6-2.6,7.4c-1.7,1.9-4,2.8-6.9,2.8s-5.2-0.9-6.9-2.8c-1.7-1.9-2.6-4.4-2.6-7.6V114z
		 M704.1,114.4c0,1.9,0.4,3.4,1.1,4.4c0.7,1,1.7,1.5,3.1,1.5c1.3,0,2.3-0.5,3-1.5c0.7-1,1.1-2.6,1.1-4.8c0-1.9-0.4-3.3-1.1-4.3
		c-0.7-1-1.8-1.5-3.1-1.5c-1.3,0-2.3,0.5-3,1.5C704.4,110.6,704.1,112.2,704.1,114.4z"/>
	<path class="st1" d="M732.3,109.1c-0.7-0.1-1.4-0.1-1.9-0.1c-2,0-3.4,0.7-4,2.1v13.1H721v-20.1h5.1l0.1,2.4
		c1.1-1.8,2.6-2.8,4.5-2.8c0.6,0,1.2,0.1,1.7,0.2L732.3,109.1z"/>
	<path class="st1" d="M742.2,99.2v4.9h3.4v3.9h-3.4v10c0,0.7,0.1,1.3,0.4,1.6c0.3,0.3,0.8,0.5,1.6,0.5c0.6,0,1.1,0,1.6-0.1v4.1
		c-1.1,0.3-2.1,0.5-3.2,0.5c-3.8,0-5.7-1.9-5.8-5.7v-10.8h-2.9v-3.9h2.9v-4.9H742.2z"/>
	<path class="st1" d="M759.5,118.6c0-0.7-0.3-1.2-1-1.5c-0.7-0.4-1.7-0.7-3.1-1c-4.8-1-7.2-3-7.2-6.1c0-1.8,0.7-3.3,2.2-4.5
		c1.5-1.2,3.4-1.8,5.8-1.8c2.5,0,4.6,0.6,6.1,1.8c1.5,1.2,2.3,2.8,2.3,4.7h-5.4c0-0.8-0.2-1.4-0.7-1.9c-0.5-0.5-1.3-0.8-2.3-0.8
		c-0.9,0-1.6,0.2-2.1,0.6c-0.5,0.4-0.7,0.9-0.7,1.6c0,0.6,0.3,1.1,0.8,1.4c0.6,0.4,1.5,0.7,2.8,0.9c1.3,0.3,2.5,0.6,3.4,0.9
		c2.8,1,4.2,2.8,4.2,5.4c0,1.8-0.8,3.3-2.4,4.4c-1.6,1.1-3.6,1.7-6.1,1.7c-1.7,0-3.2-0.3-4.5-0.9c-1.3-0.6-2.3-1.4-3.1-2.5
		c-0.7-1-1.1-2.2-1.1-3.4h5.1c0,1,0.4,1.7,1.1,2.2c0.7,0.5,1.5,0.8,2.6,0.8c1,0,1.8-0.2,2.3-0.6
		C759.3,119.8,759.5,119.3,759.5,118.6z"/>
	<path class="st1" d="M339.1,162c0-2,0.4-3.8,1.2-5.3c0.8-1.6,1.9-2.8,3.3-3.6c1.4-0.9,3.1-1.3,5-1.3c2.7,0,4.9,0.8,6.6,2.5
		c1.7,1.7,2.7,3.9,2.9,6.8l0,1.4c0,3.1-0.9,5.6-2.6,7.4c-1.7,1.9-4,2.8-6.9,2.8s-5.2-0.9-6.9-2.8c-1.7-1.9-2.6-4.4-2.6-7.6V162z
		 M344.4,162.4c0,1.9,0.4,3.4,1.1,4.4c0.7,1,1.7,1.5,3.1,1.5c1.3,0,2.3-0.5,3-1.5c0.7-1,1.1-2.6,1.1-4.8c0-1.9-0.4-3.3-1.1-4.3
		c-0.7-1-1.8-1.5-3.1-1.5c-1.3,0-2.3,0.5-3,1.5C344.8,158.6,344.4,160.2,344.4,162.4z"/>
	<path class="st1" d="M362.9,172.2v-16.1h-3v-3.9h3v-1.7c0-2.3,0.6-4,1.9-5.2c1.3-1.2,3.1-1.9,5.4-1.9c0.7,0,1.7,0.1,2.7,0.4
		l-0.1,4.2c-0.4-0.1-1-0.2-1.6-0.2c-2,0-3,0.9-3,2.8v1.6h4v3.9h-4v16.1H362.9z"/>
	<path class="st1" d="M384.4,146.9c0-0.8,0.3-1.5,0.8-2c0.5-0.5,1.3-0.8,2.2-0.8c0.9,0,1.6,0.3,2.2,0.8c0.5,0.5,0.8,1.2,0.8,2
		c0,0.8-0.3,1.5-0.8,2c-0.6,0.5-1.3,0.8-2.2,0.8c-0.9,0-1.6-0.3-2.2-0.8C384.7,148.4,384.4,147.7,384.4,146.9z M390.1,172.2h-5.4
		v-20.1h5.4V172.2z"/>
	<path class="st1" d="M393.7,162c0-3.1,0.7-5.6,2.1-7.5c1.4-1.9,3.3-2.8,5.8-2.8c2,0,3.6,0.7,4.8,2.2v-10.2h5.4v28.5H407l-0.3-2.1
		c-1.3,1.7-3.1,2.5-5.2,2.5c-2.4,0-4.3-0.9-5.7-2.8C394.4,167.9,393.7,165.3,393.7,162z M399.1,162.4c0,1.9,0.3,3.3,1,4.3
		c0.7,1,1.6,1.5,2.9,1.5c1.7,0,2.8-0.7,3.5-2.1v-7.9c-0.7-1.4-1.8-2.1-3.5-2.1C400.4,156.1,399.1,158.2,399.1,162.4z"/>
	<path class="st1" d="M425.2,172.6c-2.9,0-5.3-0.9-7.2-2.7c-1.8-1.8-2.8-4.2-2.8-7.2v-0.5c0-2,0.4-3.8,1.2-5.4
		c0.8-1.6,1.9-2.8,3.3-3.7c1.4-0.9,3.1-1.3,4.9-1.3c2.7,0,4.9,0.9,6.5,2.6c1.6,1.7,2.4,4.2,2.4,7.4v2.2h-12.8
		c0.2,1.3,0.7,2.4,1.6,3.2c0.9,0.8,2,1.2,3.3,1.2c2.1,0,3.7-0.7,4.8-2.2l2.6,3c-0.8,1.1-1.9,2-3.3,2.7
		C428.4,172.2,426.9,172.6,425.2,172.6z M424.6,156.1c-1.1,0-1.9,0.4-2.6,1.1c-0.7,0.7-1.1,1.8-1.3,3.1h7.5v-0.4
		c0-1.2-0.3-2.1-1-2.8C426.6,156.4,425.7,156.1,424.6,156.1z"/>
	<path class="st1" d="M441.4,152.1l0.2,2.3c1.4-1.8,3.4-2.7,5.8-2.7c2.1,0,3.7,0.6,4.8,1.9c1,1.2,1.6,3.1,1.6,5.6v13h-5.4v-12.8
		c0-1.1-0.2-2-0.7-2.5c-0.5-0.5-1.3-0.8-2.5-0.8c-1.5,0-2.6,0.6-3.4,1.9v14.2h-5.4v-20.1H441.4z"/>
	<path class="st1" d="M464.2,147.2v4.9h3.4v3.9h-3.4v10c0,0.7,0.1,1.3,0.4,1.6c0.3,0.3,0.8,0.5,1.6,0.5c0.6,0,1.1,0,1.6-0.1v4.1
		c-1.1,0.3-2.1,0.5-3.2,0.5c-3.8,0-5.7-1.9-5.8-5.7v-10.8h-2.9v-3.9h2.9v-4.9H464.2z"/>
	<path class="st1" d="M470.6,146.9c0-0.8,0.3-1.5,0.8-2c0.5-0.5,1.3-0.8,2.2-0.8c0.9,0,1.6,0.3,2.2,0.8c0.5,0.5,0.8,1.2,0.8,2
		c0,0.8-0.3,1.5-0.8,2c-0.6,0.5-1.3,0.8-2.2,0.8c-0.9,0-1.6-0.3-2.2-0.8C470.9,148.4,470.6,147.7,470.6,146.9z M476.3,172.2h-5.4
		v-20.1h5.4V172.2z"/>
	<path class="st1" d="M487.1,147.2v4.9h3.4v3.9h-3.4v10c0,0.7,0.1,1.3,0.4,1.6c0.3,0.3,0.8,0.5,1.6,0.5c0.6,0,1.1,0,1.6-0.1v4.1
		c-1.1,0.3-2.1,0.5-3.2,0.5c-3.8,0-5.7-1.9-5.8-5.7v-10.8h-2.9v-3.9h2.9v-4.9H487.1z"/>
	<path class="st1" d="M501,164.6l3.7-12.5h5.8l-8.1,23.2l-0.4,1.1c-1.2,2.6-3.2,3.9-5.9,3.9c-0.8,0-1.6-0.1-2.4-0.4v-4.1l0.8,0
		c1,0,1.8-0.2,2.3-0.5c0.5-0.3,0.9-0.8,1.2-1.5l0.6-1.7l-7-20.1h5.8L501,164.6z"/>
	<path class="st1" d="M528.5,147.2v4.9h3.4v3.9h-3.4v10c0,0.7,0.1,1.3,0.4,1.6c0.3,0.3,0.8,0.5,1.6,0.5c0.6,0,1.1,0,1.6-0.1v4.1
		c-1.1,0.3-2.1,0.5-3.2,0.5c-3.8,0-5.7-1.9-5.8-5.7v-10.8h-2.9v-3.9h2.9v-4.9H528.5z"/>
	<path class="st1" d="M540.1,154.3c1.4-1.7,3.2-2.6,5.4-2.6c4.4,0,6.6,2.5,6.6,7.6v12.9h-5.4v-12.7c0-1.2-0.2-2-0.7-2.6
		c-0.5-0.5-1.3-0.8-2.5-0.8c-1.6,0-2.7,0.6-3.4,1.8v14.3h-5.4v-28.5h5.4V154.3z"/>
	<path class="st1" d="M565.4,172.6c-2.9,0-5.3-0.9-7.2-2.7c-1.8-1.8-2.8-4.2-2.8-7.2v-0.5c0-2,0.4-3.8,1.2-5.4
		c0.8-1.6,1.9-2.8,3.3-3.7c1.4-0.9,3.1-1.3,4.9-1.3c2.7,0,4.9,0.9,6.5,2.6c1.6,1.7,2.4,4.2,2.4,7.4v2.2h-12.8
		c0.2,1.3,0.7,2.4,1.6,3.2c0.9,0.8,2,1.2,3.3,1.2c2.1,0,3.7-0.7,4.8-2.2l2.6,3c-0.8,1.1-1.9,2-3.3,2.7
		C568.6,172.2,567.1,172.6,565.4,172.6z M564.8,156.1c-1.1,0-1.9,0.4-2.6,1.1c-0.7,0.7-1.1,1.8-1.3,3.1h7.5v-0.4
		c0-1.2-0.3-2.1-1-2.8C566.8,156.4,565.9,156.1,564.8,156.1z"/>
	<path class="st1" d="M578.2,172.2v-16.1h-3v-3.9h3v-1.7c0-2.3,0.6-4,1.9-5.2c1.3-1.2,3.1-1.9,5.4-1.9c0.7,0,1.7,0.1,2.7,0.4
		l-0.1,4.2c-0.4-0.1-1-0.2-1.6-0.2c-2,0-3,0.9-3,2.8v1.6h4v3.9h-4v16.1H578.2z"/>
	<path class="st1" d="M596.8,147.2v4.9h3.4v3.9h-3.4v10c0,0.7,0.1,1.3,0.4,1.6c0.3,0.3,0.8,0.5,1.6,0.5c0.6,0,1.1,0,1.6-0.1v4.1
		c-1.1,0.3-2.1,0.5-3.2,0.5c-3.8,0-5.7-1.9-5.8-5.7v-10.8h-2.9v-3.9h2.9v-4.9H596.8z"/>
	<path class="st1" d="M603.5,169.6c0-0.9,0.3-1.5,0.9-2.1c0.6-0.5,1.3-0.8,2.2-0.8c0.9,0,1.6,0.3,2.2,0.8c0.6,0.5,0.9,1.2,0.9,2.1
		c0,0.8-0.3,1.5-0.9,2.1c-0.6,0.5-1.3,0.8-2.2,0.8c-0.9,0-1.6-0.3-2.2-0.8C603.7,171.1,603.5,170.4,603.5,169.6z"/>
</g>
</svg>
