<?xml version="1.0" encoding="utf-8"?>
<!-- Generator: Adobe Illustrator 24.2.3, SVG Export Plug-In . SVG Version: 6.00 Build 0)  -->
<svg version="1.1" id="Layer_1" xmlns="http://www.w3.org/2000/svg" xmlns:xlink="http://www.w3.org/1999/xlink" x="0px" y="0px"
	 viewBox="0 0 320 468" style="enable-background:new 0 0 320 468;" xml:space="preserve">
<style type="text/css">
	.st0{fill:url(#SVGID_1_);}
</style>
<linearGradient id="SVGID_1_" gradientUnits="userSpaceOnUse" x1="25.1002" y1="224.5671" x2="293.7428" y2="224.5671">
	<stop  offset="0" style="stop-color:#18B9FB"/>
	<stop  offset="0.5" style="stop-color:#782EEB"/>
	<stop  offset="1" style="stop-color:#E82D8A"/>
</linearGradient>
<path class="st0" d="M78.11,175.76l4.01-14.67h5.42l-6.78,20.14h-5.31l-6.72-20.14h5.38L78.11,175.76z M88.76,162.41
	c0-0.66,0.24-1.21,0.72-1.63c0.48-0.42,1.1-0.64,1.87-0.64s1.39,0.21,1.87,0.64c0.48,0.42,0.72,0.97,0.72,1.63s-0.24,1.21-0.72,1.63
	c-0.48,0.42-1.1,0.64-1.87,0.64s-1.39-0.21-1.87-0.64C89,163.62,88.76,163.08,88.76,162.41z M93.72,181.24h-4.68v-14.97h4.68V181.24
	z M103.83,181.52c-2.3,0-4.16-0.69-5.58-2.05c-1.42-1.37-2.13-3.15-2.13-5.35v-0.39c0-1.53,0.28-2.88,0.85-4.05
	c0.57-1.17,1.39-2.08,2.48-2.72c1.09-0.64,2.38-0.96,3.87-0.96c2.1,0,3.76,0.65,4.98,1.96s1.83,3.12,1.83,5.46v1.81h-9.27
	c0.17,0.84,0.53,1.5,1.09,1.98c0.56,0.48,1.29,0.72,2.19,0.72c1.48,0,2.63-0.52,3.46-1.55l2.13,2.52c-0.58,0.8-1.4,1.44-2.47,1.92
	C106.2,181.28,105.06,181.52,103.83,181.52z M103.31,169.59c-1.37,0-2.18,0.9-2.43,2.71h4.7v-0.36c0.02-0.75-0.17-1.33-0.57-1.74
	C104.61,169.8,104.04,169.59,103.31,169.59z M124.94,175.1l1.51-8.83h4.47l-3.53,14.97h-3.94l-2.48-8.88l-2.49,8.88h-3.94
	l-3.53-14.97h4.47l1.48,9.03l2.38-9.03h3.25L124.94,175.1z M153.54,173.87c0,2.32-0.52,4.18-1.57,5.57
	c-1.05,1.39-2.46,2.08-4.24,2.08c-1.38,0-2.5-0.5-3.39-1.51V187h-4.66v-20.73h4.36l0.14,1.38c0.89-1.11,2.07-1.66,3.53-1.66
	c1.84,0,3.28,0.68,4.3,2.04c1.02,1.36,1.54,3.23,1.54,5.61V173.87z M148.88,173.58c0-2.66-0.78-3.98-2.32-3.98
	c-1.11,0-1.85,0.4-2.21,1.19v5.89c0.41,0.83,1.15,1.25,2.24,1.25c1.48,0,2.25-1.28,2.3-3.85V173.58z M162.84,181.52
	c-2.3,0-4.16-0.69-5.58-2.05c-1.42-1.37-2.13-3.15-2.13-5.35v-0.39c0-1.53,0.28-2.88,0.85-4.05c0.57-1.17,1.39-2.08,2.48-2.72
	c1.09-0.64,2.38-0.96,3.87-0.96c2.1,0,3.76,0.65,4.98,1.96s1.83,3.12,1.83,5.46v1.81h-9.27c0.17,0.84,0.53,1.5,1.09,1.98
	c0.56,0.48,1.29,0.72,2.19,0.72c1.48,0,2.63-0.52,3.46-1.55l2.13,2.52c-0.58,0.8-1.4,1.44-2.47,1.92
	C165.21,181.28,164.07,181.52,162.84,181.52z M162.31,169.59c-1.37,0-2.18,0.9-2.43,2.71h4.7v-0.36c0.02-0.75-0.17-1.33-0.57-1.74
	C163.62,169.8,163.05,169.59,162.31,169.59z M180.08,170.49l-1.54-0.11c-1.47,0-2.41,0.46-2.82,1.38v9.48h-4.66v-14.97h4.37
	l0.15,1.92c0.78-1.47,1.88-2.2,3.28-2.2c0.5,0,0.93,0.06,1.3,0.17L180.08,170.49z M189.6,177.04c0-0.4-0.21-0.71-0.62-0.95
	s-1.2-0.49-2.37-0.75s-2.12-0.6-2.88-1.02c-0.76-0.42-1.33-0.93-1.73-1.53s-0.59-1.29-0.59-2.06c0-1.37,0.57-2.51,1.7-3.4
	s2.62-1.33,4.46-1.33c1.97,0,3.56,0.45,4.76,1.34c1.2,0.9,1.8,2.07,1.8,3.53h-4.68c0-1.2-0.63-1.8-1.9-1.8
	c-0.49,0-0.9,0.14-1.23,0.41s-0.5,0.61-0.5,1.02c0,0.42,0.2,0.75,0.61,1.01c0.41,0.26,1.05,0.47,1.94,0.64
	c0.89,0.17,1.67,0.36,2.34,0.6c2.25,0.77,3.38,2.16,3.38,4.16c0,1.37-0.61,2.48-1.82,3.33c-1.21,0.86-2.78,1.29-4.71,1.29
	c-1.28,0-2.43-0.23-3.43-0.69c-1.01-0.46-1.79-1.09-2.35-1.88c-0.56-0.79-0.84-1.63-0.84-2.5h4.36c0.02,0.69,0.25,1.2,0.69,1.51
	c0.44,0.32,1.01,0.48,1.7,0.48c0.64,0,1.11-0.13,1.43-0.39S189.6,177.45,189.6,177.04z M195.69,173.62c0-1.49,0.29-2.82,0.87-3.99
	s1.42-2.06,2.5-2.69c1.09-0.63,2.37-0.94,3.83-0.94c2.24,0,4.01,0.69,5.3,2.08s1.94,3.28,1.94,5.67v0.17c0,2.33-0.65,4.19-1.94,5.56
	s-3.05,2.05-5.26,2.05c-2.13,0-3.84-0.64-5.13-1.92c-1.29-1.28-1.99-3.01-2.09-5.2L195.69,173.62z M200.35,173.91
	c0,1.38,0.22,2.4,0.65,3.04c0.43,0.65,1.07,0.97,1.92,0.97c1.66,0,2.51-1.28,2.55-3.83v-0.47c0-2.68-0.86-4.03-2.57-4.03
	c-1.56,0-2.4,1.16-2.53,3.47L200.35,173.91z M216.47,166.27l0.15,1.76c1.03-1.36,2.46-2.03,4.27-2.03c1.56,0,2.72,0.47,3.49,1.4
	c0.77,0.93,1.17,2.33,1.2,4.21v9.64h-4.68v-9.45c0-0.76-0.15-1.31-0.46-1.67s-0.86-0.53-1.66-0.53c-0.91,0-1.59,0.36-2.03,1.08
	v10.57h-4.66v-14.97H216.47z M236.6,181.24c-0.17-0.3-0.31-0.75-0.44-1.34c-0.86,1.08-2.06,1.62-3.6,1.62
	c-1.41,0-2.61-0.43-3.6-1.28c-0.99-0.85-1.48-1.93-1.48-3.22c0-1.62,0.6-2.85,1.8-3.68c1.2-0.83,2.94-1.25,5.23-1.25h1.44v-0.79
	c0-1.38-0.59-2.07-1.79-2.07c-1.11,0-1.66,0.55-1.66,1.64h-4.66c0-1.45,0.62-2.62,1.85-3.52c1.23-0.9,2.8-1.35,4.71-1.35
	s3.42,0.47,4.52,1.4c1.11,0.93,1.67,2.21,1.7,3.83v6.63c0.02,1.37,0.23,2.43,0.64,3.15v0.24H236.6z M233.68,178.2
	c0.58,0,1.06-0.12,1.45-0.37s0.66-0.53,0.82-0.84v-2.39h-1.36c-1.62,0-2.44,0.73-2.44,2.19c0,0.42,0.14,0.77,0.43,1.03
	C232.87,178.07,233.24,178.2,233.68,178.2z M248.12,181.24h-4.68v-21.25h4.68V181.24z M25.1,196.42c0-0.66,0.24-1.21,0.72-1.63
	c0.48-0.42,1.1-0.64,1.87-0.64s1.39,0.21,1.87,0.64c0.48,0.42,0.72,0.97,0.72,1.63s-0.24,1.21-0.72,1.63
	c-0.48,0.42-1.1,0.64-1.87,0.64s-1.39-0.21-1.87-0.64C25.34,197.62,25.1,197.08,25.1,196.42z M30.05,215.25h-4.68v-14.97h4.68
	V215.25z M32.34,207.65c0-2.37,0.51-4.24,1.54-5.6c1.02-1.36,2.45-2.05,4.29-2.05c1.34,0,2.46,0.53,3.38,1.58v-7.58h4.68v21.25
	h-4.19l-0.24-1.6c-0.96,1.25-2.18,1.88-3.65,1.88c-1.78,0-3.19-0.68-4.23-2.05C32.86,212.11,32.34,210.17,32.34,207.65z M37,207.94
	c0,2.66,0.78,3.98,2.32,3.98c1.03,0,1.77-0.43,2.21-1.3v-5.7c-0.42-0.89-1.15-1.33-2.19-1.33c-1.44,0-2.22,1.16-2.34,3.49L37,207.94
	z M56.11,215.52c-2.3,0-4.16-0.69-5.58-2.05c-1.42-1.37-2.13-3.15-2.13-5.35v-0.39c0-1.53,0.28-2.88,0.85-4.05
	c0.57-1.17,1.39-2.08,2.48-2.72c1.09-0.64,2.38-0.96,3.87-0.96c2.1,0,3.76,0.65,4.98,1.96s1.83,3.12,1.83,5.46v1.81h-9.27
	c0.17,0.84,0.53,1.5,1.09,1.98c0.56,0.48,1.29,0.72,2.19,0.72c1.48,0,2.63-0.52,3.46-1.55l2.13,2.52c-0.58,0.8-1.4,1.44-2.47,1.92
	C58.48,215.28,57.33,215.52,56.11,215.52z M55.58,203.6c-1.37,0-2.18,0.9-2.43,2.71h4.7v-0.36c0.02-0.75-0.17-1.33-0.57-1.74
	C56.89,203.8,56.32,203.6,55.58,203.6z M68.57,200.28l0.15,1.76c1.03-1.36,2.46-2.03,4.27-2.03c1.56,0,2.72,0.47,3.49,1.4
	c0.77,0.93,1.17,2.33,1.2,4.21v9.64h-4.68v-9.45c0-0.76-0.15-1.31-0.46-1.67s-0.86-0.53-1.66-0.53c-0.91,0-1.59,0.36-2.03,1.08
	v10.57H64.2v-14.97H68.57z M85.7,196.55v3.72h2.46v3.24H85.7v6.85c0,0.56,0.1,0.95,0.3,1.18c0.2,0.22,0.6,0.33,1.2,0.33
	c0.46,0,0.85-0.03,1.16-0.08v3.33c-0.84,0.27-1.72,0.4-2.63,0.4c-1.6,0-2.79-0.38-3.56-1.13c-0.77-0.76-1.15-1.9-1.15-3.44v-7.43
	h-1.91v-3.24h1.91v-3.72H85.7z M89.96,196.42c0-0.66,0.24-1.21,0.72-1.63c0.48-0.42,1.1-0.64,1.87-0.64s1.39,0.21,1.87,0.64
	c0.48,0.42,0.72,0.97,0.72,1.63s-0.24,1.21-0.72,1.63c-0.48,0.42-1.1,0.64-1.87,0.64s-1.39-0.21-1.87-0.64
	C90.2,197.62,89.96,197.08,89.96,196.42z M94.91,215.25h-4.68v-14.97h4.68V215.25z M103.22,196.55v3.72h2.46v3.24h-2.46v6.85
	c0,0.56,0.1,0.95,0.3,1.18c0.2,0.22,0.6,0.33,1.2,0.33c0.46,0,0.85-0.03,1.16-0.08v3.33c-0.84,0.27-1.72,0.4-2.63,0.4
	c-1.6,0-2.79-0.38-3.56-1.13c-0.77-0.76-1.15-1.9-1.15-3.44v-7.43h-1.91v-3.24h1.91v-3.72H103.22z M113.5,208.72l2.49-8.44h5
	l-6.1,17.47l-0.26,0.64c-0.87,1.94-2.4,2.91-4.59,2.91c-0.61,0-1.25-0.09-1.92-0.28v-3.32h0.61c0.66,0,1.16-0.09,1.5-0.28
	c0.35-0.19,0.6-0.53,0.77-1.02l0.37-1l-5.2-15.12h4.98L113.5,208.72z M134.68,196.55v3.72h2.46v3.24h-2.46v6.85
	c0,0.56,0.1,0.95,0.3,1.18c0.2,0.22,0.6,0.33,1.2,0.33c0.46,0,0.85-0.03,1.16-0.08v3.33c-0.84,0.27-1.72,0.4-2.63,0.4
	c-1.6,0-2.79-0.38-3.56-1.13c-0.77-0.76-1.15-1.9-1.15-3.44v-7.43h-1.91v-3.24h1.91v-3.72H134.68z M143.53,201.88
	c1-1.25,2.27-1.88,3.82-1.88c1.65,0,2.9,0.49,3.74,1.47c0.84,0.98,1.27,2.42,1.29,4.33v9.45h-4.68v-9.34c0-0.79-0.16-1.38-0.48-1.75
	c-0.32-0.37-0.87-0.56-1.65-0.56c-0.96,0-1.64,0.3-2.03,0.91v10.74h-4.66v-21.25h4.66V201.88z M162.21,215.52
	c-2.3,0-4.16-0.69-5.58-2.05c-1.42-1.37-2.13-3.15-2.13-5.35v-0.39c0-1.53,0.28-2.88,0.85-4.05c0.57-1.17,1.39-2.08,2.48-2.72
	c1.09-0.64,2.38-0.96,3.87-0.96c2.1,0,3.76,0.65,4.98,1.96s1.83,3.12,1.83,5.46v1.81h-9.27c0.17,0.84,0.53,1.5,1.09,1.98
	c0.56,0.48,1.29,0.72,2.19,0.72c1.48,0,2.63-0.52,3.46-1.55l2.13,2.52c-0.58,0.8-1.4,1.44-2.47,1.92
	C164.58,215.28,163.44,215.52,162.21,215.52z M161.69,203.6c-1.37,0-2.18,0.9-2.43,2.71h4.7v-0.36c0.02-0.75-0.17-1.33-0.57-1.74
	C162.99,203.8,162.42,203.6,161.69,203.6z M171.42,215.25v-11.73h-2.17v-3.24h2.17v-1.19c0-1.71,0.5-3.03,1.51-3.97
	c1-0.94,2.42-1.41,4.23-1.41c0.66,0,1.39,0.1,2.19,0.29l0.01,3.43c-0.29-0.08-0.67-0.12-1.15-0.12c-1.41,0-2.12,0.61-2.12,1.83v1.15
	h2.92v3.24h-2.92v11.73H171.42z M186.09,196.55v3.72h2.46v3.24h-2.46v6.85c0,0.56,0.1,0.95,0.3,1.18c0.2,0.22,0.6,0.33,1.2,0.33
	c0.46,0,0.85-0.03,1.16-0.08v3.33c-0.84,0.27-1.72,0.4-2.63,0.4c-1.6,0-2.79-0.38-3.56-1.13c-0.77-0.76-1.15-1.9-1.15-3.44v-7.43
	h-1.91v-3.24h1.91v-3.72H186.09z M205.88,215.25c-0.17-0.3-0.31-0.75-0.44-1.34c-0.86,1.08-2.06,1.62-3.6,1.62
	c-1.41,0-2.61-0.43-3.6-1.28c-0.99-0.85-1.48-1.93-1.48-3.22c0-1.62,0.6-2.85,1.8-3.68c1.2-0.83,2.94-1.25,5.23-1.25h1.44v-0.79
	c0-1.38-0.59-2.07-1.79-2.07c-1.11,0-1.66,0.55-1.66,1.64h-4.66c0-1.45,0.62-2.62,1.85-3.52c1.23-0.9,2.8-1.35,4.71-1.35
	s3.42,0.47,4.52,1.4c1.11,0.93,1.67,2.21,1.7,3.83v6.63c0.02,1.37,0.23,2.43,0.64,3.15v0.24H205.88z M202.96,212.2
	c0.58,0,1.06-0.12,1.45-0.37s0.66-0.53,0.82-0.84v-2.39h-1.36c-1.62,0-2.44,0.73-2.44,2.19c0,0.42,0.14,0.77,0.43,1.03
	C202.15,212.07,202.51,212.2,202.96,212.2z M217.4,215.25h-4.68v-21.25h4.68V215.25z M227.52,215.52c-2.3,0-4.16-0.69-5.58-2.05
	c-1.42-1.37-2.13-3.15-2.13-5.35v-0.39c0-1.53,0.28-2.88,0.85-4.05c0.57-1.17,1.39-2.08,2.48-2.72c1.09-0.64,2.38-0.96,3.87-0.96
	c2.1,0,3.76,0.65,4.98,1.96s1.83,3.12,1.83,5.46v1.81h-9.27c0.17,0.84,0.53,1.5,1.09,1.98c0.56,0.48,1.29,0.72,2.19,0.72
	c1.48,0,2.63-0.52,3.46-1.55l2.13,2.52c-0.58,0.8-1.4,1.44-2.47,1.92C229.89,215.28,228.74,215.52,227.52,215.52z M226.99,203.6
	c-1.37,0-2.18,0.9-2.43,2.71h4.7v-0.36c0.02-0.75-0.17-1.33-0.57-1.74C228.29,203.8,227.73,203.6,226.99,203.6z M244.75,204.5
	l-1.54-0.11c-1.47,0-2.41,0.46-2.82,1.38v9.48h-4.66v-14.97h4.37l0.15,1.92c0.78-1.47,1.88-2.2,3.28-2.2c0.5,0,0.93,0.06,1.3,0.17
	L244.75,204.5z M252.56,196.55v3.72h2.46v3.24h-2.46v6.85c0,0.56,0.1,0.95,0.3,1.18c0.2,0.22,0.6,0.33,1.2,0.33
	c0.46,0,0.85-0.03,1.16-0.08v3.33c-0.84,0.27-1.72,0.4-2.63,0.4c-1.6,0-2.79-0.38-3.56-1.13c-0.77-0.76-1.15-1.9-1.15-3.44v-7.43
	h-1.91v-3.24h1.91v-3.72H252.56z M264.69,211.04c0-0.4-0.21-0.71-0.62-0.95s-1.2-0.49-2.37-0.75s-2.12-0.6-2.88-1.02
	c-0.76-0.42-1.33-0.93-1.73-1.53s-0.59-1.29-0.59-2.06c0-1.37,0.57-2.51,1.7-3.4s2.62-1.33,4.46-1.33c1.97,0,3.56,0.45,4.76,1.34
	c1.2,0.9,1.8,2.07,1.8,3.53h-4.68c0-1.2-0.63-1.8-1.9-1.8c-0.49,0-0.9,0.14-1.23,0.41s-0.5,0.61-0.5,1.02c0,0.42,0.2,0.75,0.61,1.01
	c0.41,0.26,1.05,0.47,1.94,0.64c0.89,0.17,1.67,0.36,2.34,0.6c2.25,0.77,3.38,2.16,3.38,4.16c0,1.37-0.61,2.48-1.82,3.33
	c-1.21,0.86-2.78,1.29-4.71,1.29c-1.28,0-2.43-0.23-3.43-0.69c-1.01-0.46-1.79-1.09-2.35-1.88c-0.56-0.79-0.84-1.63-0.84-2.5h4.36
	c0.02,0.69,0.25,1.2,0.69,1.51c0.44,0.32,1.01,0.48,1.7,0.48c0.64,0,1.11-0.13,1.43-0.39S264.69,211.45,264.69,211.04z
	 M293.74,207.25h-14.59v-3.65h14.59V207.25z M54.67,249.25H40.61v-3.04l6.47-6.81c1.6-1.82,2.39-3.26,2.39-4.33
	c0-0.87-0.19-1.53-0.57-1.98c-0.38-0.45-0.93-0.68-1.65-0.68c-0.71,0-1.29,0.3-1.73,0.91c-0.44,0.6-0.66,1.36-0.66,2.26h-4.68
	c0-1.24,0.31-2.38,0.93-3.42s1.48-1.87,2.57-2.46c1.1-0.59,2.32-0.89,3.68-0.89c2.18,0,3.85,0.5,5.03,1.51
	c1.18,1.01,1.76,2.45,1.76,4.33c0,0.79-0.15,1.57-0.44,2.32c-0.3,0.75-0.75,1.54-1.38,2.37c-0.62,0.83-1.63,1.93-3.01,3.31l-2.6,3
	h7.93V249.25z M69.33,241.37h2.05v3.6h-2.05v4.28h-4.66v-4.28h-7.79l-0.28-2.85l8.07-12.98v-0.04h4.66V241.37z M61.05,241.37h3.62
	v-6.2l-0.29,0.47L61.05,241.37z M75.1,250.98H71.8l6.88-21.87h3.32L75.1,250.98z M97.38,231.59l-7.53,17.65h-4.92l7.54-16.55h-9.6
	v-3.6h14.51V231.59z M111.99,242.41v6.83h-4.86V229.1h8.04c1.54,0,2.9,0.28,4.09,0.85c1.19,0.57,2.1,1.37,2.75,2.42
	c0.65,1.05,0.97,2.23,0.97,3.56c0,1.96-0.7,3.53-2.11,4.71c-1.41,1.18-3.34,1.76-5.79,1.76H111.99z M111.99,238.66h3.18
	c0.94,0,1.66-0.24,2.15-0.71c0.49-0.47,0.74-1.13,0.74-1.99c0-0.94-0.25-1.69-0.76-2.25c-0.51-0.56-1.2-0.85-2.08-0.86h-3.24V238.66
	z M134.28,247.63c-0.99,1.26-2.32,1.9-4,1.9c-1.64,0-2.88-0.48-3.73-1.43s-1.27-2.33-1.27-4.12v-9.7h4.66V244
	c0,1.28,0.62,1.92,1.87,1.92c1.07,0,1.83-0.38,2.28-1.15v-10.5h4.69v14.97h-4.37L134.28,247.63z M155.24,241.89
	c0,2.45-0.51,4.34-1.52,5.66s-2.44,1.98-4.29,1.98c-1.52,0-2.75-0.6-3.68-1.81l-0.19,1.54h-4.18V228h4.66v7.48
	c0.87-0.99,1.99-1.48,3.36-1.48c1.86,0,3.3,0.67,4.32,2.01s1.52,3.22,1.52,5.65V241.89z M150.56,241.59c0-1.44-0.19-2.46-0.57-3.07
	c-0.38-0.61-0.97-0.92-1.76-0.92c-1.05,0-1.78,0.4-2.19,1.2v5.94c0.4,0.79,1.13,1.19,2.21,1.19c1.1,0,1.79-0.53,2.09-1.6
	C150.49,243.8,150.56,242.89,150.56,241.59z M162.21,249.25h-4.68V228h4.68V249.25z M165.05,230.42c0-0.66,0.24-1.21,0.72-1.63
	c0.48-0.42,1.1-0.64,1.87-0.64s1.39,0.21,1.87,0.64c0.48,0.42,0.72,0.97,0.72,1.63s-0.24,1.21-0.72,1.63
	c-0.48,0.42-1.1,0.64-1.87,0.64s-1.39-0.21-1.87-0.64C165.29,231.63,165.05,231.08,165.05,230.42z M170,249.25h-4.68v-14.97H170
	V249.25z M179.2,245.93c0.65,0,1.16-0.18,1.52-0.53s0.54-0.85,0.53-1.49h4.37c0,1.64-0.59,2.99-1.76,4.04
	c-1.18,1.05-2.69,1.58-4.54,1.58c-2.18,0-3.89-0.68-5.15-2.05c-1.25-1.36-1.88-3.26-1.88-5.67v-0.19c0-1.51,0.28-2.85,0.84-4.01
	c0.56-1.16,1.36-2.05,2.41-2.67s2.3-0.93,3.74-0.93c1.95,0,3.49,0.54,4.63,1.62c1.14,1.08,1.72,2.54,1.72,4.39h-4.37
	c0-0.77-0.19-1.37-0.57-1.78c-0.38-0.42-0.88-0.62-1.52-0.62c-1.21,0-1.91,0.77-2.12,2.31c-0.06,0.49-0.1,1.16-0.1,2.02
	c0,1.5,0.18,2.55,0.54,3.13C177.84,245.64,178.42,245.93,179.2,245.93z M197.64,238.64c-0.54-0.77-0.97-1.51-1.28-2.21
	c-0.31-0.7-0.46-1.42-0.46-2.17c0-1.62,0.53-2.94,1.58-3.94c1.05-1,2.43-1.5,4.12-1.5c1.52,0,2.78,0.46,3.78,1.39
	c1,0.93,1.49,2.08,1.49,3.45c0,1.72-0.95,3.24-2.84,4.57l-1.05,0.73l3.1,3.56c0.51-1.01,0.76-2.13,0.76-3.33h3.92
	c0,2.72-0.63,4.9-1.88,6.54l3.07,3.53h-5.2l-0.94-1.07c-0.77,0.46-1.57,0.8-2.37,1.02c-0.81,0.22-1.72,0.33-2.73,0.33
	c-1.99,0-3.59-0.52-4.79-1.57s-1.8-2.42-1.8-4.13c0-0.93,0.24-1.78,0.71-2.53c0.47-0.76,1.4-1.64,2.77-2.64L197.64,238.64z
	 M201.01,245.94c0.81,0,1.59-0.19,2.32-0.57l-3.62-4.12l-0.12,0.08c-0.53,0.65-0.79,1.37-0.79,2.19c0,0.67,0.21,1.25,0.64,1.72
	C199.85,245.71,200.38,245.94,201.01,245.94z M199.93,234.19c0,0.65,0.35,1.43,1.05,2.35l0.93-0.58c0.42-0.28,0.73-0.56,0.93-0.86
	c0.19-0.29,0.29-0.67,0.29-1.12c0-0.42-0.15-0.79-0.44-1.11c-0.29-0.31-0.66-0.47-1.09-0.47c-0.52,0-0.92,0.16-1.22,0.49
	C200.07,233.23,199.93,233.66,199.93,234.19z M221.01,249.25V229.1h6.49c1.78,0,3.38,0.4,4.8,1.21c1.42,0.81,2.53,1.95,3.33,3.42
	s1.2,3.12,1.21,4.95v0.93c0,1.85-0.39,3.5-1.17,4.96s-1.88,2.61-3.29,3.43c-1.42,0.83-3,1.24-4.74,1.25H221.01z M225.87,232.85
	v12.66h1.69c1.39,0,2.46-0.5,3.21-1.49c0.75-0.99,1.12-2.46,1.12-4.42v-0.87c0-1.95-0.37-3.41-1.12-4.4s-1.84-1.48-3.27-1.48H225.87
	z M247.55,249.25c-0.17-0.3-0.31-0.75-0.44-1.34c-0.86,1.08-2.06,1.62-3.6,1.62c-1.41,0-2.61-0.43-3.6-1.28
	c-0.99-0.85-1.48-1.93-1.48-3.22c0-1.62,0.6-2.85,1.8-3.68c1.2-0.83,2.94-1.25,5.23-1.25h1.44v-0.79c0-1.38-0.59-2.07-1.79-2.07
	c-1.11,0-1.66,0.55-1.66,1.64h-4.66c0-1.45,0.62-2.62,1.85-3.52c1.23-0.9,2.8-1.35,4.71-1.35s3.42,0.47,4.52,1.4
	c1.11,0.93,1.67,2.21,1.7,3.83v6.63c0.02,1.37,0.23,2.43,0.64,3.15v0.24H247.55z M244.63,246.2c0.58,0,1.06-0.12,1.45-0.37
	s0.66-0.53,0.82-0.84v-2.39h-1.36c-1.62,0-2.44,0.73-2.44,2.19c0,0.42,0.14,0.77,0.43,1.03C243.82,246.07,244.19,246.2,244.63,246.2
	z M263.21,238.5l-1.54-0.11c-1.47,0-2.41,0.46-2.82,1.38v9.48h-4.66v-14.97h4.37l0.15,1.92c0.78-1.47,1.88-2.2,3.28-2.2
	c0.5,0,0.93,0.06,1.3,0.17L263.21,238.5z M270.9,243.67l-1.31,1.31v4.26h-4.66v-21.27h4.66v11.29l0.47-0.62l3.51-4.37h5.59
	l-5.24,6.16l5.59,8.81h-5.34L270.9,243.67z M85.28,275.74l2.31-12.63h4.82l-4.28,20.14h-5.04l-2.7-11.48l-2.64,11.48h-5.02
	l-4.29-20.14h4.83l2.31,12.63l2.77-12.63h4.12L85.28,275.74z M100.9,283.53c-2.3,0-4.16-0.68-5.58-2.05
	c-1.42-1.37-2.13-3.15-2.13-5.35v-0.39c0-1.53,0.28-2.88,0.85-4.05c0.57-1.17,1.39-2.08,2.48-2.72c1.09-0.64,2.38-0.96,3.87-0.96
	c2.1,0,3.76,0.65,4.98,1.96s1.83,3.12,1.83,5.46v1.81h-9.27c0.17,0.84,0.53,1.5,1.09,1.98c0.56,0.48,1.29,0.72,2.19,0.72
	c1.48,0,2.63-0.52,3.46-1.55l2.13,2.52c-0.58,0.8-1.4,1.44-2.47,1.92C103.27,283.29,102.13,283.53,100.9,283.53z M100.37,271.6
	c-1.37,0-2.18,0.9-2.43,2.71h4.7v-0.36c0.02-0.75-0.17-1.32-0.57-1.74C101.68,271.8,101.11,271.6,100.37,271.6z M122.98,275.89
	c0,2.45-0.51,4.34-1.52,5.66c-1.01,1.32-2.44,1.98-4.29,1.98c-1.52,0-2.75-0.6-3.68-1.81l-0.19,1.54h-4.18V262h4.66v7.48
	c0.87-0.99,1.99-1.48,3.36-1.48c1.86,0,3.3,0.67,4.32,2.01c1.01,1.34,1.52,3.22,1.52,5.64V275.89z M118.3,275.59
	c0-1.44-0.19-2.46-0.57-3.07c-0.38-0.61-0.97-0.92-1.76-0.92c-1.05,0-1.78,0.4-2.19,1.2v5.94c0.4,0.79,1.13,1.19,2.21,1.19
	c1.1,0,1.79-0.54,2.09-1.6C118.23,277.8,118.3,276.89,118.3,275.59z M142.7,277.89c0-0.71-0.25-1.26-0.75-1.66s-1.39-0.81-2.65-1.23
	s-2.3-0.84-3.1-1.23c-2.61-1.28-3.92-3.04-3.92-5.29c0-1.12,0.33-2.1,0.98-2.95s1.57-1.52,2.76-1.99c1.19-0.47,2.53-0.71,4.01-0.71
	c1.45,0,2.75,0.26,3.89,0.78c1.15,0.52,2.04,1.25,2.68,2.21c0.64,0.95,0.95,2.04,0.95,3.27h-4.84c0-0.82-0.25-1.46-0.75-1.91
	c-0.5-0.45-1.18-0.68-2.04-0.68c-0.87,0-1.55,0.19-2.05,0.57c-0.5,0.38-0.75,0.87-0.75,1.46c0,0.52,0.28,0.98,0.83,1.4
	c0.55,0.42,1.53,0.85,2.92,1.3c1.39,0.45,2.54,0.93,3.43,1.45c2.18,1.25,3.26,2.98,3.26,5.19c0,1.76-0.66,3.15-1.99,4.15
	c-1.33,1.01-3.15,1.51-5.46,1.51c-1.63,0-3.11-0.29-4.43-0.88s-2.32-1.39-2.99-2.41s-1-2.19-1-3.52h4.87c0,1.08,0.28,1.88,0.84,2.39
	c0.56,0.51,1.46,0.77,2.72,0.77c0.8,0,1.44-0.17,1.9-0.52S142.7,278.52,142.7,277.89z M156.16,279.93c0.65,0,1.16-0.18,1.52-0.53
	s0.54-0.85,0.53-1.49h4.37c0,1.64-0.59,2.99-1.76,4.04s-2.69,1.58-4.54,1.58c-2.18,0-3.89-0.68-5.15-2.05
	c-1.25-1.37-1.88-3.26-1.88-5.67v-0.2c0-1.51,0.28-2.85,0.84-4c0.56-1.16,1.36-2.05,2.41-2.67c1.05-0.62,2.3-0.94,3.74-0.94
	c1.95,0,3.49,0.54,4.63,1.62c1.14,1.08,1.72,2.54,1.72,4.39h-4.37c0-0.78-0.19-1.37-0.57-1.79c-0.38-0.42-0.88-0.62-1.52-0.62
	c-1.21,0-1.91,0.77-2.12,2.31c-0.06,0.49-0.1,1.16-0.1,2.02c0,1.5,0.18,2.55,0.54,3.13C154.8,279.64,155.37,279.93,156.16,279.93z
	 M172.98,283.25c-0.17-0.3-0.31-0.75-0.44-1.34c-0.86,1.08-2.06,1.62-3.6,1.62c-1.41,0-2.61-0.43-3.6-1.28
	c-0.99-0.85-1.48-1.93-1.48-3.22c0-1.62,0.6-2.85,1.8-3.68s2.94-1.25,5.23-1.25h1.44v-0.79c0-1.38-0.59-2.07-1.79-2.07
	c-1.11,0-1.66,0.55-1.66,1.64h-4.66c0-1.45,0.62-2.62,1.85-3.52s2.8-1.36,4.71-1.36s3.42,0.47,4.52,1.4
	c1.11,0.93,1.67,2.21,1.7,3.83v6.63c0.02,1.38,0.23,2.43,0.64,3.15v0.24H172.98z M170.06,280.21c0.58,0,1.06-0.12,1.45-0.37
	c0.38-0.25,0.66-0.53,0.82-0.84v-2.39h-1.36c-1.62,0-2.44,0.73-2.44,2.19c0,0.42,0.14,0.77,0.43,1.03
	C169.26,280.07,169.62,280.21,170.06,280.21z M183.87,268.28l0.15,1.76c1.03-1.36,2.46-2.04,4.27-2.04c1.56,0,2.72,0.47,3.49,1.4
	c0.77,0.93,1.17,2.33,1.2,4.21v9.64h-4.68v-9.45c0-0.76-0.15-1.31-0.46-1.67s-0.86-0.53-1.66-0.53c-0.91,0-1.59,0.36-2.03,1.08
	v10.57h-4.66v-14.97H183.87z M199.85,268.28l0.15,1.76c1.03-1.36,2.46-2.04,4.27-2.04c1.56,0,2.72,0.47,3.49,1.4
	c0.77,0.93,1.17,2.33,1.2,4.21v9.64h-4.68v-9.45c0-0.76-0.15-1.31-0.46-1.67s-0.86-0.53-1.66-0.53c-0.91,0-1.59,0.36-2.03,1.08
	v10.57h-4.66v-14.97H199.85z M211.51,264.42c0-0.66,0.24-1.21,0.72-1.63s1.1-0.64,1.87-0.64s1.39,0.21,1.87,0.64
	s0.72,0.97,0.72,1.63s-0.24,1.21-0.72,1.63c-0.48,0.42-1.1,0.63-1.87,0.63s-1.39-0.21-1.87-0.63
	C211.75,265.63,211.51,265.08,211.51,264.42z M216.47,283.25h-4.68v-14.97h4.68V283.25z M223.62,268.28l0.15,1.76
	c1.03-1.36,2.46-2.04,4.27-2.04c1.56,0,2.72,0.47,3.49,1.4c0.77,0.93,1.17,2.33,1.2,4.21v9.64h-4.68v-9.45
	c0-0.76-0.15-1.31-0.46-1.67s-0.86-0.53-1.66-0.53c-0.91,0-1.59,0.36-2.03,1.08v10.57h-4.66v-14.97H223.62z M234.77,275.65
	c0-1.51,0.25-2.85,0.75-4.01s1.21-2.06,2.14-2.69c0.93-0.63,2.02-0.95,3.25-0.95c1.56,0,2.78,0.53,3.65,1.58l0.17-1.3h4.23v14.4
	c0,1.32-0.31,2.46-0.92,3.44c-0.61,0.97-1.5,1.72-2.66,2.24s-2.51,0.78-4.04,0.78c-1.1,0-2.16-0.21-3.19-0.62
	c-1.03-0.42-1.81-0.96-2.36-1.62l1.95-2.74c0.87,1.02,2.01,1.54,3.43,1.54c2.07,0,3.1-1.06,3.1-3.18v-0.47
	c-0.89,0.99-2.02,1.48-3.39,1.48c-1.83,0-3.3-0.7-4.43-2.1c-1.13-1.4-1.69-3.27-1.69-5.61V275.65z M239.45,275.95
	c0,1.23,0.23,2.2,0.69,2.91s1.11,1.07,1.94,1.07c1,0,1.74-0.34,2.2-1.01v-6.3c-0.45-0.68-1.18-1.02-2.17-1.02
	c-0.83,0-1.48,0.37-1.95,1.11C239.68,273.46,239.45,274.53,239.45,275.95z"/>
</svg>
