<?xml version="1.0" encoding="utf-8"?>
<!-- Generator: Adobe Illustrator 24.2.3, SVG Export Plug-In . SVG Version: 6.00 Build 0)  -->
<svg version="1.1" id="Layer_1" xmlns="http://www.w3.org/2000/svg" xmlns:xlink="http://www.w3.org/1999/xlink" x="0px" y="0px"
	 viewBox="0 0 320 468" style="enable-background:new 0 0 320 468;" xml:space="preserve">
<style type="text/css">
	.st0{fill:url(#SVGID_1_);}
</style>
<linearGradient id="SVGID_1_" gradientUnits="userSpaceOnUse" x1="34.5132" y1="223.3188" x2="281.6324" y2="223.3188">
	<stop  offset="0" style="stop-color:#18B9FB"/>
	<stop  offset="0.5" style="stop-color:#782EEB"/>
	<stop  offset="1" style="stop-color:#E82D8A"/>
</linearGradient>
<path class="st0" d="M59.95,174.73c-0.79,0.88-1.95,1.59-3.47,2.12s-3.19,0.81-5.01,0.81c-2.79,0-5.02-0.85-6.69-2.56
	s-2.56-4.09-2.68-7.13l-0.01-1.85c0-2.1,0.37-3.93,1.11-5.5c0.74-1.57,1.8-2.77,3.19-3.62c1.38-0.84,2.98-1.27,4.8-1.27
	c2.66,0,4.72,0.61,6.19,1.82c1.47,1.22,2.33,3.03,2.57,5.44h-4.95c-0.18-1.19-0.56-2.04-1.14-2.55s-1.42-0.76-2.49-0.76
	c-1.29,0-2.29,0.55-2.99,1.64s-1.06,2.66-1.07,4.69v1.29c0,2.13,0.36,3.73,1.09,4.8c0.73,1.07,1.87,1.6,3.43,1.6
	c1.34,0,2.33-0.3,2.99-0.89v-3.31h-3.57v-3.53h8.72V174.73z M70.38,177.66c-2.43,0-4.4-0.72-5.9-2.18c-1.5-1.45-2.26-3.34-2.26-5.66
	v-0.41c0-1.62,0.3-3.05,0.9-4.29c0.6-1.24,1.48-2.2,2.63-2.88c1.15-0.68,2.52-1.02,4.1-1.02c2.23,0,3.98,0.69,5.27,2.07
	c1.29,1.38,1.93,3.31,1.93,5.78V171h-9.81c0.18,0.89,0.56,1.59,1.16,2.09c0.6,0.51,1.37,0.76,2.31,0.76c1.56,0,2.78-0.55,3.66-1.64
	l2.26,2.67c-0.62,0.85-1.49,1.53-2.61,2.03C72.89,177.41,71.68,177.66,70.38,177.66z M69.83,165.03c-1.45,0-2.3,0.96-2.58,2.87h4.98
	v-0.38c0.02-0.79-0.18-1.4-0.6-1.84S70.61,165.03,69.83,165.03z M84.8,157.58v3.94h2.61v3.43H84.8v7.25c0,0.6,0.11,1.01,0.32,1.25
	s0.64,0.35,1.27,0.35c0.49,0,0.9-0.03,1.23-0.09v3.53c-0.89,0.28-1.82,0.42-2.78,0.42c-1.7,0-2.95-0.4-3.76-1.2
	s-1.22-2.02-1.22-3.65v-7.87h-2.02v-3.43h2.02v-3.94H84.8z M104.8,157.58v3.94h2.61v3.43h-2.61v7.25c0,0.6,0.11,1.01,0.32,1.25
	s0.64,0.35,1.27,0.35c0.49,0,0.9-0.03,1.23-0.09v3.53c-0.89,0.28-1.82,0.42-2.78,0.42c-1.7,0-2.95-0.4-3.76-1.2
	s-1.22-2.02-1.22-3.65v-7.87h-2.02v-3.43h2.02v-3.94H104.8z M118.93,165.99l-1.63-0.12c-1.55,0-2.55,0.49-2.99,1.46v10.03h-4.94
	v-15.85h4.63l0.16,2.04c0.83-1.55,1.99-2.33,3.47-2.33c0.53,0,0.99,0.06,1.38,0.18L118.93,165.99z M120.68,157.43
	c0-0.7,0.25-1.28,0.76-1.73s1.17-0.67,1.98-0.67s1.47,0.22,1.98,0.67s0.76,1.03,0.76,1.73s-0.25,1.28-0.76,1.73
	s-1.17,0.67-1.98,0.67s-1.47-0.22-1.98-0.67S120.68,158.13,120.68,157.43z M125.92,177.37h-4.95v-15.85h4.95V177.37z M143.67,169.56
	c0,2.46-0.55,4.43-1.66,5.9c-1.11,1.47-2.6,2.21-4.49,2.21c-1.46,0-2.65-0.53-3.59-1.6v7.4H129v-21.94h4.61l0.15,1.46
	c0.95-1.17,2.19-1.76,3.74-1.76c1.95,0,3.47,0.72,4.56,2.16c1.08,1.44,1.63,3.42,1.63,5.94V169.56z M138.74,169.25
	c0-2.81-0.82-4.22-2.46-4.22c-1.17,0-1.95,0.42-2.34,1.26v6.24c0.43,0.88,1.22,1.32,2.37,1.32c1.57,0,2.38-1.36,2.43-4.07V169.25z
	 M151.06,177.37h-4.95v-22.5h4.95V177.37z M161.76,177.66c-2.43,0-4.4-0.72-5.9-2.18c-1.5-1.45-2.26-3.34-2.26-5.66v-0.41
	c0-1.62,0.3-3.05,0.9-4.29c0.6-1.24,1.48-2.2,2.63-2.88c1.15-0.68,2.52-1.02,4.1-1.02c2.23,0,3.98,0.69,5.27,2.07
	c1.29,1.38,1.93,3.31,1.93,5.78V171h-9.81c0.18,0.89,0.56,1.59,1.16,2.09s1.37,0.76,2.31,0.76c1.56,0,2.78-0.55,3.66-1.64l2.26,2.67
	c-0.62,0.85-1.49,1.53-2.61,2.03C164.28,177.41,163.06,177.66,161.76,177.66z M161.21,165.03c-1.45,0-2.3,0.96-2.58,2.87h4.98v-0.38
	c0.02-0.79-0.18-1.4-0.6-1.84S161.99,165.03,161.21,165.03z M180.08,170.07h-8.8v-3.81h8.8V170.07z M198.63,169.57
	c0,2.6-0.54,4.59-1.61,5.99s-2.59,2.09-4.54,2.09c-1.61,0-2.91-0.64-3.9-1.92l-0.21,1.63h-4.42v-22.5h4.94v7.92
	c0.92-1.04,2.1-1.57,3.56-1.57c1.97,0,3.5,0.71,4.57,2.12s1.61,3.41,1.61,5.98V169.57z M193.68,169.26c0-1.52-0.2-2.61-0.61-3.25
	s-1.03-0.97-1.87-0.97c-1.11,0-1.88,0.42-2.31,1.27v6.29c0.42,0.84,1.2,1.26,2.34,1.26c1.16,0,1.9-0.57,2.21-1.7
	C193.61,171.6,193.68,170.63,193.68,169.26z M210.25,175.65c-1.04,1.34-2.46,2.01-4.23,2.01c-1.74,0-3.05-0.51-3.95-1.52
	c-0.89-1.01-1.34-2.46-1.34-4.36v-10.27h4.94v10.3c0,1.36,0.66,2.04,1.98,2.04c1.13,0,1.94-0.41,2.42-1.22v-11.12h4.97v15.85h-4.63
	L210.25,175.65z M227.32,165.99l-1.63-0.12c-1.55,0-2.55,0.49-2.99,1.46v10.03h-4.94v-15.85h4.63l0.16,2.04
	c0.83-1.55,1.99-2.33,3.47-2.33c0.53,0,0.99,0.06,1.38,0.18L227.32,165.99z M236.49,177.66c-2.43,0-4.4-0.72-5.9-2.18
	c-1.5-1.45-2.26-3.34-2.26-5.66v-0.41c0-1.62,0.3-3.05,0.9-4.29c0.6-1.24,1.48-2.2,2.63-2.88c1.15-0.68,2.52-1.02,4.1-1.02
	c2.23,0,3.98,0.69,5.27,2.07c1.29,1.38,1.93,3.31,1.93,5.78V171h-9.81c0.18,0.89,0.56,1.59,1.16,2.09s1.37,0.76,2.31,0.76
	c1.56,0,2.78-0.55,3.66-1.64l2.26,2.67c-0.62,0.85-1.49,1.53-2.61,2.03C239,177.41,237.79,177.66,236.49,177.66z M235.93,165.03
	c-1.45,0-2.3,0.96-2.58,2.87h4.98v-0.38c0.02-0.79-0.18-1.4-0.6-1.84S236.71,165.03,235.93,165.03z M254.08,177.37
	c-0.18-0.32-0.33-0.8-0.47-1.42c-0.91,1.14-2.18,1.71-3.81,1.71c-1.49,0-2.76-0.45-3.81-1.36c-1.04-0.9-1.57-2.04-1.57-3.41
	c0-1.72,0.63-3.02,1.9-3.9s3.12-1.32,5.54-1.32h1.52v-0.84c0-1.46-0.63-2.19-1.89-2.19c-1.17,0-1.76,0.58-1.76,1.74h-4.94
	c0-1.53,0.65-2.78,1.96-3.73c1.3-0.96,2.97-1.43,4.99-1.43s3.62,0.49,4.79,1.48c1.17,0.99,1.77,2.34,1.8,4.06v7.02
	c0.02,1.46,0.24,2.57,0.67,3.34v0.25H254.08z M250.99,174.15c0.62,0,1.12-0.13,1.53-0.4s0.7-0.56,0.87-0.89v-2.53h-1.44
	c-1.72,0-2.58,0.77-2.58,2.31c0,0.45,0.15,0.81,0.45,1.09C250.13,174.01,250.52,174.15,250.99,174.15z M270.51,175.65
	c-1.04,1.34-2.46,2.01-4.23,2.01c-1.74,0-3.05-0.51-3.95-1.52c-0.89-1.01-1.34-2.46-1.34-4.36v-10.27h4.94v10.3
	c0,1.36,0.66,2.04,1.98,2.04c1.13,0,1.94-0.41,2.42-1.22v-11.12h4.97v15.85h-4.63L270.51,175.65z M73.41,209.85
	c0.69,0,1.23-0.19,1.61-0.56c0.38-0.38,0.57-0.9,0.56-1.57h4.63c0,1.74-0.62,3.16-1.87,4.28c-1.25,1.11-2.85,1.67-4.81,1.67
	c-2.3,0-4.12-0.72-5.45-2.17s-1.99-3.45-1.99-6.01v-0.21c0-1.6,0.29-3.01,0.89-4.24c0.59-1.23,1.44-2.17,2.56-2.83
	c1.11-0.66,2.43-0.99,3.96-0.99c2.06,0,3.7,0.57,4.91,1.71c1.21,1.14,1.82,2.69,1.82,4.64h-4.63c0-0.82-0.2-1.45-0.6-1.89
	s-0.94-0.66-1.61-0.66c-1.28,0-2.03,0.82-2.24,2.45c-0.07,0.52-0.1,1.23-0.1,2.14c0,1.59,0.19,2.7,0.57,3.31
	C71.98,209.55,72.58,209.85,73.41,209.85z M91.88,201.99l-1.63-0.12c-1.55,0-2.55,0.49-2.99,1.46v10.03h-4.94v-15.85h4.63l0.16,2.04
	c0.83-1.55,1.99-2.33,3.47-2.33c0.53,0,0.99,0.06,1.38,0.18L91.88,201.99z M101.05,213.66c-2.43,0-4.4-0.72-5.9-2.18
	c-1.5-1.45-2.26-3.34-2.26-5.66v-0.41c0-1.62,0.3-3.05,0.9-4.29c0.6-1.24,1.48-2.2,2.63-2.88c1.15-0.68,2.52-1.02,4.1-1.02
	c2.23,0,3.98,0.69,5.27,2.07c1.29,1.38,1.93,3.31,1.93,5.78V207h-9.81c0.18,0.89,0.56,1.59,1.16,2.09s1.37,0.76,2.31,0.76
	c1.56,0,2.78-0.55,3.66-1.64l2.26,2.67c-0.62,0.85-1.49,1.53-2.61,2.03C103.56,213.41,102.35,213.66,101.05,213.66z M100.5,201.03
	c-1.45,0-2.3,0.96-2.58,2.87h4.98v-0.38c0.02-0.79-0.18-1.4-0.6-1.84S101.28,201.03,100.5,201.03z M109.1,205.33
	c0-2.51,0.54-4.49,1.63-5.93c1.08-1.45,2.6-2.17,4.54-2.17c1.42,0,2.61,0.56,3.57,1.67v-8.03h4.95v22.5h-4.44l-0.25-1.7
	c-1.02,1.33-2.3,1.99-3.87,1.99c-1.88,0-3.38-0.72-4.48-2.17S109.1,207.99,109.1,205.33z M114.03,205.63c0,2.81,0.82,4.22,2.46,4.22
	c1.09,0,1.88-0.46,2.34-1.38v-6.04c-0.45-0.94-1.22-1.41-2.31-1.41c-1.52,0-2.35,1.23-2.48,3.69L114.03,205.63z M126.56,193.43
	c0-0.7,0.25-1.28,0.76-1.73s1.17-0.67,1.98-0.67s1.47,0.22,1.98,0.67s0.76,1.03,0.76,1.73s-0.25,1.28-0.76,1.73
	s-1.17,0.67-1.98,0.67s-1.47-0.22-1.98-0.67S126.56,194.13,126.56,193.43z M131.8,213.37h-4.95v-15.85h4.95V213.37z M140.59,193.58
	v3.94h2.61v3.43h-2.61v7.25c0,0.6,0.11,1.01,0.32,1.25s0.64,0.35,1.27,0.35c0.49,0,0.9-0.03,1.23-0.09v3.53
	c-0.89,0.28-1.82,0.42-2.78,0.42c-1.7,0-2.95-0.4-3.76-1.2s-1.22-2.02-1.22-3.65v-7.87h-2.02v-3.43h2.02v-3.94H140.59z
	 M160.91,208.92c0-0.42-0.22-0.76-0.66-1.01s-1.27-0.52-2.5-0.79s-2.25-0.63-3.05-1.08c-0.8-0.44-1.41-0.98-1.83-1.62
	s-0.63-1.36-0.63-2.18c0-1.46,0.6-2.65,1.8-3.6c1.2-0.94,2.77-1.41,4.72-1.41c2.09,0,3.77,0.47,5.04,1.42
	c1.27,0.95,1.9,2.19,1.9,3.74h-4.95c0-1.27-0.67-1.9-2.01-1.9c-0.52,0-0.95,0.14-1.3,0.43c-0.35,0.29-0.53,0.65-0.53,1.08
	c0,0.44,0.21,0.8,0.64,1.07s1.12,0.5,2.06,0.67c0.94,0.18,1.77,0.39,2.48,0.63c2.38,0.82,3.57,2.29,3.57,4.41
	c0,1.45-0.64,2.62-1.93,3.53c-1.29,0.91-2.95,1.36-4.99,1.36c-1.36,0-2.57-0.24-3.63-0.73s-1.89-1.15-2.49-1.99
	s-0.89-1.72-0.89-2.65h4.61c0.02,0.73,0.26,1.27,0.73,1.6c0.47,0.34,1.07,0.5,1.8,0.5c0.67,0,1.18-0.14,1.52-0.41
	C160.74,209.71,160.91,209.35,160.91,208.92z M174.68,209.85c0.69,0,1.23-0.19,1.61-0.56c0.38-0.38,0.57-0.9,0.56-1.57h4.63
	c0,1.74-0.62,3.16-1.87,4.28c-1.25,1.11-2.85,1.67-4.81,1.67c-2.3,0-4.12-0.72-5.45-2.17s-1.99-3.45-1.99-6.01v-0.21
	c0-1.6,0.29-3.01,0.89-4.24c0.59-1.23,1.44-2.17,2.56-2.83c1.11-0.66,2.43-0.99,3.96-0.99c2.06,0,3.7,0.57,4.91,1.71
	c1.21,1.14,1.82,2.69,1.82,4.64h-4.63c0-0.82-0.2-1.45-0.6-1.89s-0.94-0.66-1.61-0.66c-1.28,0-2.03,0.82-2.24,2.45
	c-0.07,0.52-0.1,1.23-0.1,2.14c0,1.59,0.19,2.7,0.57,3.31S173.85,209.85,174.68,209.85z M182.94,205.3c0-1.58,0.31-2.99,0.92-4.23
	s1.5-2.19,2.65-2.85c1.15-0.66,2.5-1,4.06-1c2.37,0,4.24,0.74,5.61,2.21c1.37,1.47,2.05,3.47,2.05,6v0.18
	c0,2.47-0.69,4.43-2.06,5.88c-1.37,1.45-3.23,2.18-5.57,2.18c-2.26,0-4.07-0.68-5.43-2.03c-1.37-1.35-2.1-3.19-2.21-5.5
	L182.94,205.3z M187.87,205.6c0,1.46,0.23,2.54,0.69,3.22s1.14,1.03,2.04,1.03c1.76,0,2.66-1.35,2.7-4.06v-0.5
	c0-2.84-0.91-4.26-2.72-4.26c-1.65,0-2.54,1.23-2.68,3.68L187.87,205.6z M209.99,201.99l-1.63-0.12c-1.55,0-2.55,0.49-2.99,1.46
	v10.03h-4.94v-15.85h4.63l0.16,2.04c0.83-1.55,1.99-2.33,3.47-2.33c0.53,0,0.99,0.06,1.38,0.18L209.99,201.99z M219.16,213.66
	c-2.43,0-4.4-0.72-5.9-2.18c-1.5-1.45-2.26-3.34-2.26-5.66v-0.41c0-1.62,0.3-3.05,0.9-4.29c0.6-1.24,1.48-2.2,2.63-2.88
	c1.15-0.68,2.52-1.02,4.1-1.02c2.23,0,3.98,0.69,5.27,2.07c1.29,1.38,1.93,3.31,1.93,5.78V207h-9.81c0.18,0.89,0.56,1.59,1.16,2.09
	s1.37,0.76,2.31,0.76c1.56,0,2.78-0.55,3.66-1.64l2.26,2.67c-0.62,0.85-1.49,1.53-2.61,2.03
	C221.68,213.41,220.46,213.66,219.16,213.66z M218.61,201.03c-1.45,0-2.3,0.96-2.58,2.87h4.98v-0.38c0.02-0.79-0.18-1.4-0.6-1.84
	S219.39,201.03,218.61,201.03z M236.13,208.92c0-0.42-0.22-0.76-0.66-1.01s-1.27-0.52-2.5-0.79s-2.25-0.63-3.05-1.08
	c-0.8-0.44-1.41-0.98-1.83-1.62s-0.63-1.36-0.63-2.18c0-1.46,0.6-2.65,1.8-3.6c1.2-0.94,2.77-1.41,4.72-1.41
	c2.09,0,3.77,0.47,5.04,1.42c1.27,0.95,1.9,2.19,1.9,3.74h-4.95c0-1.27-0.67-1.9-2.01-1.9c-0.52,0-0.95,0.14-1.3,0.43
	c-0.35,0.29-0.53,0.65-0.53,1.08c0,0.44,0.21,0.8,0.64,1.07s1.12,0.5,2.06,0.67c0.94,0.18,1.77,0.39,2.48,0.63
	c2.38,0.82,3.57,2.29,3.57,4.41c0,1.45-0.64,2.62-1.93,3.53c-1.29,0.91-2.95,1.36-4.99,1.36c-1.36,0-2.57-0.24-3.63-0.73
	s-1.89-1.15-2.49-1.99s-0.89-1.72-0.89-2.65h4.61c0.02,0.73,0.26,1.27,0.73,1.6c0.47,0.34,1.07,0.5,1.8,0.5
	c0.67,0,1.18-0.14,1.52-0.41C235.96,209.71,236.13,209.35,236.13,208.92z M244.93,219.11l-2.49-1.17l0.5-1
	c0.68-1.27,1.04-2.48,1.07-3.63v-3.66h3.96l-0.01,3.18c-0.01,1.12-0.3,2.27-0.86,3.43S245.8,218.37,244.93,219.11z M102.97,237.99
	l-1.63-0.12c-1.55,0-2.55,0.49-2.99,1.46v10.03h-4.94v-15.85h4.63l0.16,2.04c0.83-1.55,1.99-2.33,3.47-2.33
	c0.53,0,0.99,0.06,1.38,0.18L102.97,237.99z M112.14,249.66c-2.43,0-4.4-0.72-5.9-2.18c-1.5-1.45-2.26-3.34-2.26-5.66v-0.41
	c0-1.62,0.3-3.05,0.9-4.29c0.6-1.24,1.48-2.2,2.63-2.88c1.15-0.68,2.52-1.02,4.1-1.02c2.23,0,3.98,0.69,5.27,2.07
	c1.29,1.38,1.93,3.31,1.93,5.78V243h-9.81c0.18,0.89,0.56,1.59,1.16,2.09s1.37,0.76,2.31,0.76c1.56,0,2.78-0.55,3.66-1.64l2.26,2.67
	c-0.62,0.85-1.49,1.53-2.61,2.03C114.65,249.41,113.44,249.66,112.14,249.66z M111.59,237.03c-1.45,0-2.3,0.96-2.58,2.87h4.98v-0.38
	c0.02-0.79-0.18-1.4-0.6-1.84S112.37,237.03,111.59,237.03z M121.9,249.37v-12.42h-2.3v-3.43h2.3v-1.26c0-1.81,0.53-3.21,1.6-4.2
	s2.56-1.49,4.48-1.49c0.7,0,1.47,0.1,2.31,0.31l0.01,3.63c-0.3-0.09-0.71-0.13-1.22-0.13c-1.49,0-2.24,0.64-2.24,1.93v1.22h3.09
	v3.43h-3.09v12.42H121.9z M141.26,237.99l-1.63-0.12c-1.55,0-2.55,0.49-2.99,1.46v10.03h-4.94v-15.85h4.63l0.16,2.04
	c0.83-1.55,1.99-2.33,3.47-2.33c0.53,0,0.99,0.06,1.38,0.18L141.26,237.99z M150.43,249.66c-2.43,0-4.4-0.72-5.9-2.18
	c-1.5-1.45-2.26-3.34-2.26-5.66v-0.41c0-1.62,0.3-3.05,0.9-4.29c0.6-1.24,1.48-2.2,2.63-2.88c1.15-0.68,2.52-1.02,4.1-1.02
	c2.23,0,3.98,0.69,5.27,2.07c1.29,1.38,1.93,3.31,1.93,5.78V243h-9.81c0.18,0.89,0.56,1.59,1.16,2.09s1.37,0.76,2.31,0.76
	c1.56,0,2.78-0.55,3.66-1.64l2.26,2.67c-0.62,0.85-1.49,1.53-2.61,2.03C152.94,249.41,151.73,249.66,150.43,249.66z M149.88,237.03
	c-1.45,0-2.3,0.96-2.58,2.87h4.98v-0.38c0.02-0.79-0.18-1.4-0.6-1.84S150.66,237.03,149.88,237.03z M167.4,244.92
	c0-0.42-0.22-0.76-0.66-1.01s-1.27-0.52-2.5-0.79s-2.25-0.63-3.05-1.08c-0.8-0.44-1.41-0.98-1.83-1.62s-0.63-1.36-0.63-2.18
	c0-1.46,0.6-2.65,1.8-3.6s2.77-1.41,4.72-1.41c2.09,0,3.77,0.47,5.04,1.42s1.9,2.19,1.9,3.74h-4.95c0-1.27-0.67-1.9-2.01-1.9
	c-0.52,0-0.95,0.14-1.3,0.43c-0.35,0.29-0.53,0.65-0.53,1.08c0,0.44,0.21,0.8,0.64,1.07s1.12,0.5,2.06,0.67
	c0.94,0.18,1.77,0.39,2.48,0.63c2.38,0.82,3.57,2.29,3.57,4.41c0,1.45-0.64,2.62-1.93,3.53c-1.29,0.91-2.95,1.36-4.99,1.36
	c-1.36,0-2.57-0.24-3.63-0.73s-1.89-1.15-2.49-1.99s-0.89-1.72-0.89-2.65h4.61c0.02,0.73,0.26,1.27,0.73,1.6
	c0.47,0.34,1.07,0.5,1.8,0.5c0.67,0,1.18-0.14,1.52-0.41C167.23,245.71,167.4,245.35,167.4,244.92z M179.29,235.22
	c1.05-1.33,2.4-1.99,4.04-1.99c1.75,0,3.07,0.52,3.96,1.55s1.34,2.56,1.36,4.58v10h-4.95v-9.89c0-0.84-0.17-1.46-0.51-1.85
	c-0.34-0.4-0.92-0.59-1.74-0.59c-1.02,0-1.73,0.32-2.15,0.97v11.37h-4.94v-22.5h4.94V235.22z M199.07,249.66
	c-2.43,0-4.4-0.72-5.9-2.18c-1.5-1.45-2.26-3.34-2.26-5.66v-0.41c0-1.62,0.3-3.05,0.9-4.29c0.6-1.24,1.48-2.2,2.63-2.88
	c1.15-0.68,2.52-1.02,4.1-1.02c2.23,0,3.98,0.69,5.27,2.07c1.29,1.38,1.93,3.31,1.93,5.78V243h-9.81c0.18,0.89,0.56,1.59,1.16,2.09
	s1.37,0.76,2.31,0.76c1.56,0,2.78-0.55,3.66-1.64l2.26,2.67c-0.62,0.85-1.49,1.53-2.61,2.03
	C201.58,249.41,200.36,249.66,199.07,249.66z M198.51,237.03c-1.45,0-2.3,0.96-2.58,2.87h4.98v-0.38c0.02-0.79-0.18-1.4-0.6-1.84
	S199.29,237.03,198.51,237.03z M207.11,241.33c0-2.51,0.54-4.49,1.63-5.93s2.6-2.17,4.54-2.17c1.42,0,2.61,0.56,3.57,1.67v-8.03
	h4.95v22.5h-4.44l-0.25-1.7c-1.02,1.33-2.3,1.99-3.87,1.99c-1.88,0-3.38-0.72-4.48-2.17S207.11,243.99,207.11,241.33z
	 M212.04,241.63c0,2.81,0.82,4.22,2.46,4.22c1.09,0,1.88-0.46,2.34-1.38v-6.04c-0.45-0.94-1.22-1.41-2.31-1.41
	c-1.52,0-2.35,1.23-2.48,3.69L212.04,241.63z M38.25,274.13c-0.58-0.82-1.03-1.6-1.35-2.34c-0.33-0.74-0.49-1.51-0.49-2.3
	c0-1.72,0.56-3.11,1.67-4.17c1.11-1.06,2.57-1.59,4.37-1.59c1.61,0,2.94,0.49,4,1.47c1.05,0.98,1.58,2.2,1.58,3.66
	c0,1.82-1,3.43-3,4.83l-1.11,0.78l3.28,3.76c0.54-1.07,0.81-2.25,0.81-3.53h4.15c0,2.88-0.66,5.19-1.99,6.93l3.25,3.74h-5.51
	l-1-1.13c-0.82,0.49-1.66,0.85-2.51,1.08s-1.82,0.35-2.89,0.35c-2.11,0-3.8-0.55-5.07-1.66c-1.27-1.11-1.9-2.57-1.9-4.37
	c0-0.99,0.25-1.88,0.75-2.68s1.48-1.73,2.94-2.8L38.25,274.13z M41.81,281.87c0.86,0,1.68-0.2,2.46-0.6l-3.84-4.37l-0.13,0.09
	c-0.56,0.68-0.83,1.46-0.83,2.31c0,0.71,0.22,1.32,0.67,1.82S41.14,281.87,41.81,281.87z M40.67,269.43c0,0.68,0.37,1.51,1.11,2.49
	l0.98-0.62c0.45-0.29,0.78-0.6,0.98-0.91s0.31-0.71,0.31-1.19c0-0.45-0.16-0.84-0.47-1.17s-0.7-0.5-1.16-0.5
	c-0.55,0-0.98,0.17-1.29,0.52S40.67,268.86,40.67,269.43z M68.51,265.58v3.94h2.61v3.43h-2.61v7.25c0,0.6,0.11,1.01,0.32,1.25
	s0.64,0.35,1.27,0.35c0.49,0,0.9-0.03,1.23-0.09v3.53c-0.89,0.28-1.82,0.42-2.78,0.42c-1.7,0-2.95-0.4-3.76-1.2
	s-1.22-2.02-1.22-3.65v-7.87h-2.02v-3.43h2.02v-3.94H68.51z M82.65,273.99l-1.63-0.12c-1.55,0-2.55,0.49-2.99,1.46v10.03H73.1
	v-15.85h4.63l0.16,2.04c0.83-1.55,1.99-2.33,3.47-2.33c0.53,0,0.99,0.06,1.38,0.18L82.65,273.99z M92.92,285.37
	c-0.18-0.32-0.33-0.8-0.47-1.42c-0.91,1.14-2.18,1.71-3.81,1.71c-1.49,0-2.76-0.45-3.81-1.36c-1.04-0.9-1.57-2.04-1.57-3.41
	c0-1.72,0.63-3.02,1.9-3.9s3.12-1.32,5.54-1.32h1.52v-0.84c0-1.46-0.63-2.19-1.89-2.19c-1.17,0-1.76,0.58-1.76,1.74h-4.94
	c0-1.53,0.65-2.78,1.96-3.73c1.3-0.96,2.97-1.43,4.99-1.43s3.62,0.49,4.79,1.48s1.77,2.34,1.8,4.06v7.02
	c0.02,1.46,0.24,2.57,0.67,3.34v0.25H92.92z M89.83,282.15c0.62,0,1.12-0.13,1.53-0.4s0.7-0.56,0.87-0.89v-2.53h-1.44
	c-1.72,0-2.58,0.77-2.58,2.31c0,0.45,0.15,0.81,0.45,1.09C88.97,282.01,89.36,282.15,89.83,282.15z M106.61,281.85
	c0.69,0,1.23-0.19,1.61-0.56c0.38-0.38,0.57-0.9,0.56-1.57h4.63c0,1.74-0.62,3.16-1.87,4.28c-1.25,1.11-2.85,1.67-4.81,1.67
	c-2.3,0-4.12-0.72-5.45-2.17s-1.99-3.45-1.99-6.01v-0.21c0-1.6,0.29-3.01,0.89-4.24c0.59-1.23,1.44-2.17,2.56-2.83
	c1.11-0.66,2.43-0.99,3.96-0.99c2.06,0,3.7,0.57,4.91,1.71s1.82,2.69,1.82,4.64h-4.63c0-0.82-0.2-1.45-0.6-1.89
	s-0.94-0.66-1.61-0.66c-1.28,0-2.03,0.82-2.24,2.45c-0.07,0.52-0.1,1.23-0.1,2.14c0,1.59,0.19,2.7,0.57,3.31
	S105.78,281.85,106.61,281.85z M121.86,279.47l-1.39,1.39v4.51h-4.94v-22.51h4.94v11.95l0.5-0.66l3.72-4.63h5.92l-5.55,6.52
	l5.92,9.33h-5.65L121.86,279.47z M139.28,285.66c-2.43,0-4.4-0.72-5.9-2.18c-1.5-1.45-2.26-3.34-2.26-5.66v-0.41
	c0-1.62,0.3-3.05,0.9-4.29c0.6-1.24,1.48-2.2,2.63-2.88c1.15-0.68,2.52-1.02,4.1-1.02c2.23,0,3.98,0.69,5.27,2.07
	c1.29,1.38,1.93,3.31,1.93,5.78V279h-9.81c0.18,0.89,0.56,1.59,1.16,2.09s1.37,0.76,2.31,0.76c1.56,0,2.78-0.55,3.66-1.64l2.26,2.67
	c-0.62,0.85-1.49,1.53-2.61,2.03C141.79,285.41,140.58,285.66,139.28,285.66z M138.72,273.03c-1.45,0-2.3,0.96-2.58,2.87h4.98v-0.38
	c0.02-0.79-0.18-1.4-0.6-1.84S139.5,273.03,138.72,273.03z M147.32,277.33c0-2.51,0.54-4.49,1.63-5.93s2.6-2.17,4.54-2.17
	c1.42,0,2.61,0.56,3.57,1.67v-8.03h4.95v22.5h-4.44l-0.25-1.7c-1.02,1.33-2.3,1.99-3.87,1.99c-1.88,0-3.38-0.72-4.48-2.17
	S147.32,279.99,147.32,277.33z M152.26,277.63c0,2.81,0.82,4.22,2.46,4.22c1.09,0,1.88-0.46,2.34-1.38v-6.04
	c-0.45-0.94-1.22-1.41-2.31-1.41c-1.52,0-2.35,1.23-2.48,3.69L152.26,277.63z M176.95,269.52l0.16,1.86
	c1.12-1.44,2.63-2.15,4.53-2.15c2,0,3.35,0.8,4.06,2.39c1.07-1.59,2.63-2.39,4.66-2.39c3.21,0,4.86,1.94,4.95,5.83v10.31h-4.95v-10
	c0-0.81-0.14-1.4-0.41-1.77s-0.77-0.56-1.49-0.56c-0.98,0-1.7,0.43-2.18,1.3l0.01,0.21v10.83h-4.95v-9.98c0-0.83-0.13-1.43-0.4-1.8
	s-0.77-0.56-1.51-0.56c-0.95,0-1.67,0.43-2.17,1.3v11.03h-4.94v-15.85H176.95z M197.51,277.3c0-1.58,0.31-2.99,0.92-4.23
	s1.5-2.19,2.65-2.85s2.5-1,4.06-1c2.37,0,4.24,0.74,5.61,2.21s2.05,3.47,2.05,6v0.18c0,2.47-0.69,4.43-2.06,5.88
	c-1.37,1.45-3.23,2.18-5.57,2.18c-2.26,0-4.07-0.68-5.43-2.03c-1.37-1.35-2.1-3.19-2.21-5.5L197.51,277.3z M202.44,277.6
	c0,1.46,0.23,2.54,0.69,3.22s1.14,1.03,2.04,1.03c1.76,0,2.66-1.35,2.7-4.06v-0.5c0-2.84-0.91-4.26-2.72-4.26
	c-1.65,0-2.54,1.23-2.68,3.68L202.44,277.6z M219.51,269.52l0.16,1.86c1.09-1.44,2.6-2.15,4.53-2.15c1.65,0,2.88,0.49,3.7,1.48
	c0.81,0.99,1.24,2.47,1.27,4.45v10.21h-4.95v-10c0-0.8-0.16-1.39-0.48-1.76s-0.91-0.56-1.76-0.56c-0.97,0-1.68,0.38-2.15,1.14v11.19
	h-4.94v-15.85H219.51z M237.64,265.58v3.94h2.61v3.43h-2.61v7.25c0,0.6,0.11,1.01,0.32,1.25s0.64,0.35,1.27,0.35
	c0.49,0,0.9-0.03,1.23-0.09v3.53c-0.89,0.28-1.82,0.42-2.78,0.42c-1.7,0-2.95-0.4-3.76-1.2s-1.22-2.02-1.22-3.65v-7.87h-2.02v-3.43
	h2.02v-3.94H237.64z M247.02,271.22c1.05-1.33,2.4-1.99,4.04-1.99c1.75,0,3.07,0.52,3.96,1.55s1.34,2.56,1.36,4.58v10h-4.95v-9.89
	c0-0.84-0.17-1.46-0.51-1.85c-0.34-0.4-0.92-0.59-1.74-0.59c-1.02,0-1.73,0.32-2.15,0.97v11.37h-4.94v-22.5h4.94V271.22z
	 M264.33,285.37h-4.95v-22.5h4.95V285.37z M273.71,278.45l2.64-8.94h5.29l-6.46,18.5l-0.28,0.67c-0.92,2.05-2.54,3.08-4.86,3.08
	c-0.64,0-1.32-0.1-2.04-0.29v-3.52h0.64c0.69,0,1.22-0.1,1.59-0.3c0.37-0.2,0.64-0.56,0.81-1.08l0.4-1.06l-5.51-16.01h5.27
	L273.71,278.45z"/>
</svg>
