<?xml version="1.0" encoding="utf-8"?>
<!-- Generator: Adobe Illustrator 24.2.3, SVG Export Plug-In . SVG Version: 6.00 Build 0)  -->
<svg version="1.1" id="Layer_1" xmlns="http://www.w3.org/2000/svg" xmlns:xlink="http://www.w3.org/1999/xlink" x="0px" y="0px"
	 viewBox="0 0 320 468" style="enable-background:new 0 0 320 468;" xml:space="preserve">
<style type="text/css">
	.st0{fill:#E82D8A;}
	.st1{fill:#EDF4FD;}
</style>
<g>
	<rect y="374.4" class="st0" width="320" height="93.48"/>
</g>
<g>
	<path class="st1" d="M92.68,398.26c0-0.54-0.19-0.99-0.57-1.36c-0.38-0.37-1.02-0.7-1.91-1c-1.25-0.38-2.16-0.88-2.73-1.49
		s-0.86-1.39-0.86-2.34c0-0.96,0.28-1.75,0.84-2.37c0.56-0.62,1.33-0.98,2.31-1.1v-1.93h1.31v1.94c0.99,0.13,1.75,0.55,2.3,1.24
		c0.55,0.69,0.82,1.64,0.82,2.84h-1.62c0-0.83-0.2-1.49-0.59-1.98c-0.39-0.49-0.92-0.73-1.59-0.73c-0.7,0-1.23,0.18-1.6,0.54
		s-0.55,0.87-0.55,1.51c0,0.6,0.2,1.08,0.59,1.43s1.03,0.68,1.93,0.97c0.89,0.29,1.59,0.61,2.09,0.96c0.5,0.35,0.87,0.76,1.11,1.22
		c0.24,0.46,0.36,1.01,0.36,1.63c0,0.99-0.3,1.79-0.89,2.39s-1.43,0.96-2.5,1.07v1.68h-1.3v-1.68c-1.09-0.1-1.95-0.49-2.57-1.17
		s-0.93-1.6-0.93-2.76h1.63c0,0.82,0.21,1.44,0.64,1.88c0.43,0.44,1.04,0.66,1.82,0.66c0.77,0,1.37-0.18,1.81-0.55
		C92.46,399.41,92.68,398.9,92.68,398.26z"/>
	<path class="st1" d="M101.68,401.57h-1.64v-10.85l-3.28,1.21v-1.48l4.67-1.75h0.25V401.57z"/>
	<path class="st1" d="M113.29,389.74v2.31h1.78v1.26h-1.78v5.91c0,0.38,0.08,0.67,0.24,0.86c0.16,0.19,0.43,0.29,0.81,0.29
		c0.19,0,0.45-0.04,0.77-0.11v1.31c-0.43,0.12-0.85,0.18-1.25,0.18c-0.73,0-1.28-0.22-1.65-0.66c-0.37-0.44-0.55-1.07-0.55-1.88
		v-5.91h-1.73v-1.26h1.73v-2.31H113.29z"/>
	<path class="st1" d="M121.57,393.5c-0.25-0.04-0.51-0.06-0.8-0.06c-1.07,0-1.79,0.46-2.17,1.36v6.76h-1.63v-9.52h1.58l0.03,1.1
		c0.53-0.85,1.29-1.28,2.27-1.28c0.32,0,0.56,0.04,0.72,0.12V393.5z"/>
	<path class="st1" d="M123.08,389.52c0-0.26,0.08-0.49,0.24-0.67c0.16-0.18,0.4-0.27,0.72-0.27s0.56,0.09,0.72,0.27
		c0.16,0.18,0.25,0.41,0.25,0.67s-0.08,0.48-0.25,0.66c-0.16,0.18-0.4,0.26-0.72,0.26s-0.56-0.09-0.72-0.26
		C123.16,390,123.08,389.78,123.08,389.52z M124.84,401.57h-1.63v-9.52h1.63V401.57z"/>
	<path class="st1" d="M133.32,401.57c-0.09-0.19-0.17-0.52-0.23-1c-0.76,0.79-1.66,1.18-2.71,1.18c-0.94,0-1.71-0.27-2.31-0.8
		c-0.6-0.53-0.9-1.2-0.9-2.02c0-0.99,0.38-1.76,1.13-2.31s1.81-0.82,3.18-0.82h1.58v-0.75c0-0.57-0.17-1.02-0.51-1.36
		c-0.34-0.34-0.84-0.51-1.5-0.51c-0.58,0-1.07,0.15-1.46,0.44c-0.39,0.29-0.59,0.65-0.59,1.07h-1.64c0-0.48,0.17-0.93,0.51-1.38
		c0.34-0.44,0.79-0.79,1.37-1.05c0.58-0.26,1.21-0.39,1.91-0.39c1.1,0,1.96,0.27,2.58,0.82c0.62,0.55,0.94,1.3,0.97,2.27v4.38
		c0,0.87,0.11,1.57,0.33,2.09v0.14H133.32z M130.62,400.32c0.51,0,0.99-0.13,1.45-0.4c0.46-0.26,0.79-0.61,0.99-1.03v-1.95h-1.28
		c-2,0-2.99,0.58-2.99,1.75c0,0.51,0.17,0.91,0.51,1.2C129.65,400.18,130.09,400.32,130.62,400.32z"/>
	<path class="st1" d="M139.02,401.57h-1.63v-13.52h1.63V401.57z"/>
	<path class="st1" d="M146.89,401.57v-8.26h-1.5v-1.26h1.5v-0.98c0-1.02,0.27-1.81,0.82-2.37c0.55-0.56,1.32-0.84,2.31-0.84
		c0.38,0,0.75,0.05,1.12,0.15l-0.09,1.31c-0.28-0.05-0.57-0.08-0.88-0.08c-0.53,0-0.94,0.15-1.22,0.46
		c-0.29,0.31-0.43,0.75-0.43,1.33v1.01h2.03v1.26h-2.03v8.26H146.89z"/>
	<path class="st1" d="M151.91,396.72c0-0.93,0.18-1.77,0.55-2.52s0.88-1.32,1.53-1.72c0.65-0.41,1.4-0.61,2.24-0.61
		c1.3,0,2.35,0.45,3.15,1.35c0.8,0.9,1.2,2.09,1.2,3.58v0.11c0,0.93-0.18,1.76-0.53,2.5c-0.35,0.74-0.86,1.31-1.52,1.72
		c-0.66,0.41-1.42,0.62-2.27,0.62c-1.29,0-2.34-0.45-3.14-1.35c-0.8-0.9-1.2-2.09-1.2-3.56V396.72z M153.55,396.91
		c0,1.06,0.25,1.9,0.74,2.54c0.49,0.64,1.15,0.96,1.97,0.96c0.83,0,1.48-0.32,1.97-0.97c0.49-0.65,0.73-1.56,0.73-2.72
		c0-1.04-0.25-1.89-0.74-2.54c-0.5-0.65-1.15-0.97-1.98-0.97c-0.8,0-1.45,0.32-1.94,0.96C153.8,394.8,153.55,395.72,153.55,396.91z"
		/>
	<path class="st1" d="M167.23,393.5c-0.25-0.04-0.51-0.06-0.8-0.06c-1.07,0-1.79,0.46-2.17,1.36v6.76h-1.63v-9.52h1.58l0.03,1.1
		c0.53-0.85,1.29-1.28,2.27-1.28c0.32,0,0.56,0.04,0.72,0.12V393.5z"/>
	<path class="st1" d="M175.4,389.74v2.31h1.78v1.26h-1.78v5.91c0,0.38,0.08,0.67,0.24,0.86c0.16,0.19,0.43,0.29,0.81,0.29
		c0.19,0,0.45-0.04,0.77-0.11v1.31c-0.43,0.12-0.84,0.18-1.25,0.18c-0.73,0-1.28-0.22-1.65-0.66c-0.37-0.44-0.55-1.07-0.55-1.88
		v-5.91h-1.73v-1.26h1.73v-2.31H175.4z"/>
	<path class="st1" d="M180.71,393.2c0.72-0.89,1.66-1.33,2.82-1.33c2.01,0,3.03,1.13,3.04,3.41v6.29h-1.63v-6.3
		c-0.01-0.69-0.16-1.19-0.47-1.52c-0.31-0.33-0.79-0.49-1.44-0.49c-0.53,0-0.99,0.14-1.39,0.42c-0.4,0.28-0.71,0.65-0.93,1.11v6.79
		h-1.63v-13.52h1.63V393.2z"/>
	<path class="st1" d="M192.96,401.74c-1.29,0-2.34-0.42-3.15-1.27c-0.81-0.85-1.21-1.98-1.21-3.4v-0.3c0-0.94,0.18-1.79,0.54-2.53
		c0.36-0.74,0.87-1.32,1.51-1.74c0.65-0.42,1.35-0.63,2.11-0.63c1.24,0,2.2,0.41,2.89,1.22c0.69,0.82,1.03,1.98,1.03,3.5v0.68h-6.45
		c0.02,0.94,0.3,1.7,0.82,2.28c0.52,0.58,1.19,0.87,2,0.87c0.58,0,1.06-0.12,1.46-0.35c0.4-0.23,0.75-0.55,1.05-0.93l1,0.77
		C195.75,401.13,194.55,401.74,192.96,401.74z M192.76,393.2c-0.66,0-1.21,0.24-1.66,0.72c-0.45,0.48-0.72,1.15-0.83,2.01h4.77
		v-0.12c-0.05-0.83-0.27-1.47-0.67-1.92C193.98,393.43,193.44,393.2,192.76,393.2z"/>
	<path class="st1" d="M203.82,401.57v-8.26h-1.5v-1.26h1.5v-0.98c0-1.02,0.27-1.81,0.82-2.37c0.54-0.56,1.32-0.84,2.31-0.84
		c0.38,0,0.75,0.05,1.12,0.15l-0.09,1.31c-0.28-0.05-0.57-0.08-0.88-0.08c-0.53,0-0.94,0.15-1.22,0.46
		c-0.29,0.31-0.43,0.75-0.43,1.33v1.01h2.03v1.26h-2.03v8.26H203.82z"/>
	<path class="st1" d="M209.29,389.52c0-0.26,0.08-0.49,0.24-0.67c0.16-0.18,0.4-0.27,0.72-0.27c0.32,0,0.56,0.09,0.72,0.27
		c0.17,0.18,0.25,0.41,0.25,0.67s-0.08,0.48-0.25,0.66c-0.16,0.18-0.4,0.26-0.72,0.26c-0.32,0-0.56-0.09-0.72-0.26
		C209.37,390,209.29,389.78,209.29,389.52z M211.05,401.57h-1.63v-9.52h1.63V401.57z"/>
	<path class="st1" d="M218.26,393.5c-0.25-0.04-0.51-0.06-0.8-0.06c-1.07,0-1.79,0.46-2.17,1.36v6.76h-1.63v-9.52h1.58l0.03,1.1
		c0.53-0.85,1.29-1.28,2.27-1.28c0.32,0,0.56,0.04,0.72,0.12V393.5z"/>
	<path class="st1" d="M225.3,399.04c0-0.44-0.17-0.78-0.5-1.03c-0.33-0.24-0.91-0.45-1.73-0.63c-0.82-0.18-1.48-0.39-1.96-0.63
		c-0.48-0.25-0.84-0.54-1.07-0.88c-0.23-0.34-0.35-0.75-0.35-1.21c0-0.78,0.33-1.44,0.99-1.98s1.5-0.81,2.53-0.81
		c1.08,0,1.96,0.28,2.63,0.84c0.67,0.56,1.01,1.27,1.01,2.14h-1.64c0-0.45-0.19-0.83-0.57-1.15c-0.38-0.32-0.86-0.48-1.43-0.48
		c-0.59,0-1.06,0.13-1.39,0.39c-0.33,0.26-0.5,0.6-0.5,1.01c0,0.39,0.16,0.69,0.47,0.89c0.31,0.2,0.87,0.39,1.69,0.57
		s1.47,0.4,1.98,0.65c0.5,0.25,0.88,0.56,1.12,0.91c0.24,0.35,0.37,0.79,0.37,1.3c0,0.85-0.34,1.53-1.02,2.05s-1.56,0.77-2.65,0.77
		c-0.76,0-1.44-0.14-2.02-0.41s-1.05-0.65-1.38-1.13c-0.33-0.48-0.5-1.01-0.5-1.57h1.63c0.03,0.55,0.25,0.98,0.66,1.3
		c0.41,0.32,0.95,0.48,1.62,0.48c0.62,0,1.11-0.12,1.48-0.38C225.11,399.79,225.3,399.46,225.3,399.04z"/>
	<path class="st1" d="M231.26,389.74v2.31h1.78v1.26h-1.78v5.91c0,0.38,0.08,0.67,0.24,0.86c0.16,0.19,0.43,0.29,0.81,0.29
		c0.19,0,0.45-0.04,0.77-0.11v1.31c-0.43,0.12-0.84,0.18-1.25,0.18c-0.73,0-1.28-0.22-1.65-0.66c-0.37-0.44-0.55-1.07-0.55-1.88
		v-5.91h-1.73v-1.26h1.73v-2.31H231.26z"/>
	<path class="st1" d="M75.89,423.2h-2.54v-9.81l-3.04,0.94v-2.07l5.31-1.9h0.27V423.2z"/>
	<path class="st1" d="M87.58,418.37h1.45v2.05h-1.45v2.77h-2.54v-2.77h-5.25l-0.11-1.6l5.34-8.44h2.57V418.37z M82.2,418.37h2.83
		v-4.52l-0.17,0.29L82.2,418.37z"/>
	<path class="st1" d="M94.6,418.37c0-1.48,0.33-2.67,1-3.55c0.67-0.88,1.58-1.32,2.73-1.32c0.93,0,1.69,0.35,2.3,1.04v-4.86h2.55
		v13.52h-2.3l-0.12-1.01c-0.63,0.79-1.45,1.19-2.45,1.19c-1.12,0-2.02-0.44-2.7-1.33S94.6,419.94,94.6,418.37z M97.14,418.55
		c0,0.89,0.16,1.58,0.47,2.05c0.31,0.48,0.76,0.71,1.36,0.71c0.79,0,1.34-0.33,1.66-1v-3.76c-0.32-0.66-0.87-1-1.65-1
		C97.75,415.57,97.14,416.56,97.14,418.55z"/>
	<path class="st1" d="M110.67,423.2c-0.12-0.23-0.2-0.51-0.26-0.85c-0.62,0.69-1.42,1.03-2.4,1.03c-0.93,0-1.71-0.27-2.32-0.81
		c-0.61-0.54-0.92-1.22-0.92-2.04c0-1.01,0.37-1.78,1.12-2.32s1.83-0.81,3.24-0.82h1.17v-0.54c0-0.44-0.11-0.79-0.34-1.06
		c-0.23-0.26-0.58-0.4-1.07-0.4c-0.43,0-0.76,0.1-1.01,0.31s-0.37,0.49-0.37,0.84h-2.54c0-0.55,0.17-1.06,0.51-1.53
		s0.82-0.84,1.44-1.1c0.62-0.27,1.32-0.4,2.1-0.4c1.17,0,2.1,0.29,2.79,0.88c0.69,0.59,1.03,1.42,1.03,2.49V421
		c0.01,0.9,0.13,1.59,0.38,2.05v0.15H110.67z M108.56,421.43c0.38,0,0.72-0.08,1.04-0.25c0.32-0.17,0.55-0.39,0.7-0.67v-1.64h-0.95
		c-1.27,0-1.95,0.44-2.03,1.32l-0.01,0.15c0,0.32,0.11,0.58,0.33,0.78C107.87,421.33,108.18,421.43,108.56,421.43z"/>
	<path class="st1" d="M118.37,419.6l1.76-5.92h2.73l-3.83,11l-0.21,0.5c-0.57,1.24-1.51,1.87-2.82,1.87c-0.37,0-0.75-0.06-1.13-0.17
		v-1.93l0.39,0.01c0.48,0,0.84-0.07,1.08-0.22c0.24-0.15,0.42-0.39,0.56-0.73l0.3-0.78l-3.34-9.55h2.74L118.37,419.6z"/>
	<path class="st1" d="M129.02,420.57c0-0.31-0.15-0.56-0.46-0.73c-0.31-0.18-0.8-0.34-1.48-0.48c-2.27-0.47-3.4-1.44-3.4-2.89
		c0-0.84,0.35-1.55,1.05-2.12c0.7-0.57,1.62-0.85,2.75-0.85c1.21,0,2.18,0.28,2.9,0.85c0.72,0.57,1.09,1.31,1.09,2.22h-2.54
		c0-0.36-0.12-0.66-0.35-0.9c-0.23-0.24-0.6-0.36-1.1-0.36c-0.43,0-0.76,0.1-0.99,0.29c-0.23,0.19-0.35,0.44-0.35,0.74
		c0,0.28,0.13,0.51,0.4,0.68c0.27,0.17,0.72,0.32,1.35,0.45s1.17,0.27,1.6,0.43c1.34,0.49,2.02,1.35,2.02,2.56
		c0,0.87-0.37,1.57-1.12,2.11c-0.75,0.54-1.71,0.81-2.89,0.81c-0.8,0-1.51-0.14-2.13-0.43c-0.62-0.28-1.1-0.67-1.46-1.17
		c-0.35-0.5-0.53-1.03-0.53-1.61h2.41c0.02,0.45,0.19,0.8,0.5,1.04c0.31,0.24,0.73,0.36,1.25,0.36c0.49,0,0.85-0.09,1.1-0.28
		S129.02,420.87,129.02,420.57z"/>
	<path class="st1" d="M133.33,425.75l-0.92-0.63c0.55-0.77,0.84-1.56,0.86-2.38v-1.47h1.59v1.28c0,0.59-0.15,1.19-0.44,1.78
		S133.77,425.39,133.33,425.75z"/>
	<path class="st1" d="M149.43,418.54c0,1.45-0.33,2.62-0.99,3.5c-0.66,0.89-1.56,1.33-2.69,1.33c-1.16,0-2.07-0.37-2.73-1.1v4.59
		h-1.63v-13.19h1.49l0.08,1.06c0.66-0.82,1.58-1.23,2.76-1.23c1.14,0,2.05,0.43,2.72,1.29c0.67,0.86,1,2.06,1,3.6V418.54z
		 M147.8,418.36c0-1.07-0.23-1.92-0.69-2.54s-1.09-0.93-1.88-0.93c-0.99,0-1.73,0.44-2.22,1.31v4.55c0.49,0.87,1.23,1.3,2.24,1.3
		c0.78,0,1.4-0.31,1.86-0.93C147.57,420.5,147.8,419.58,147.8,418.36z"/>
	<path class="st1" d="M153.27,423.2h-1.63v-13.52h1.63V423.2z"/>
	<path class="st1" d="M161.75,423.2c-0.09-0.19-0.17-0.52-0.23-1c-0.76,0.79-1.66,1.18-2.71,1.18c-0.94,0-1.71-0.27-2.31-0.8
		c-0.6-0.53-0.9-1.2-0.9-2.02c0-0.99,0.38-1.76,1.13-2.31s1.81-0.82,3.18-0.82h1.58v-0.75c0-0.57-0.17-1.02-0.51-1.36
		c-0.34-0.34-0.84-0.51-1.5-0.51c-0.58,0-1.07,0.15-1.46,0.44c-0.39,0.29-0.59,0.65-0.59,1.07h-1.64c0-0.48,0.17-0.93,0.51-1.38
		c0.34-0.44,0.79-0.79,1.37-1.05c0.58-0.26,1.21-0.39,1.91-0.39c1.1,0,1.96,0.27,2.58,0.82c0.62,0.55,0.94,1.3,0.97,2.27v4.38
		c0,0.87,0.11,1.57,0.33,2.09v0.14H161.75z M159.05,421.96c0.51,0,0.99-0.13,1.45-0.4c0.46-0.26,0.79-0.61,0.99-1.03v-1.95h-1.28
		c-2,0-2.99,0.58-2.99,1.75c0,0.51,0.17,0.91,0.51,1.2C158.08,421.81,158.52,421.96,159.05,421.96z"/>
	<path class="st1" d="M167.22,413.67l0.05,1.2c0.73-0.92,1.68-1.37,2.85-1.37c2.01,0,3.03,1.13,3.05,3.41v6.29h-1.63v-6.3
		c-0.01-0.69-0.16-1.19-0.47-1.52c-0.31-0.33-0.79-0.49-1.44-0.49c-0.53,0-0.99,0.14-1.39,0.42c-0.4,0.28-0.71,0.65-0.93,1.11v6.79
		h-1.63v-9.52H167.22z"/>
	<path class="st1" d="M181.17,420.67c0-0.44-0.17-0.78-0.5-1.03c-0.33-0.24-0.91-0.45-1.73-0.63s-1.48-0.39-1.96-0.63
		s-0.84-0.54-1.07-0.88c-0.23-0.34-0.35-0.75-0.35-1.21c0-0.78,0.33-1.44,0.99-1.98c0.66-0.54,1.5-0.81,2.53-0.81
		c1.08,0,1.96,0.28,2.63,0.84s1.01,1.27,1.01,2.14h-1.64c0-0.45-0.19-0.83-0.57-1.15c-0.38-0.32-0.85-0.48-1.43-0.48
		c-0.59,0-1.06,0.13-1.39,0.39c-0.33,0.26-0.5,0.6-0.5,1.01c0,0.39,0.16,0.69,0.47,0.89c0.31,0.2,0.87,0.39,1.69,0.57
		c0.81,0.18,1.47,0.4,1.98,0.65s0.88,0.56,1.12,0.91c0.24,0.35,0.37,0.79,0.37,1.3c0,0.85-0.34,1.53-1.02,2.05s-1.56,0.77-2.65,0.77
		c-0.76,0-1.44-0.14-2.02-0.41s-1.05-0.65-1.38-1.13c-0.33-0.48-0.5-1.01-0.5-1.57h1.63c0.03,0.55,0.25,0.98,0.66,1.3
		c0.41,0.32,0.95,0.48,1.62,0.48c0.62,0,1.11-0.12,1.48-0.38C180.99,421.42,181.17,421.09,181.17,420.67z"/>
	<path class="st1" d="M194.93,420.67c0-0.44-0.17-0.78-0.5-1.03c-0.33-0.24-0.91-0.45-1.73-0.63c-0.83-0.18-1.48-0.39-1.96-0.63
		c-0.48-0.25-0.84-0.54-1.07-0.88c-0.23-0.34-0.35-0.75-0.35-1.21c0-0.78,0.33-1.44,0.99-1.98s1.5-0.81,2.53-0.81
		c1.08,0,1.96,0.28,2.63,0.84s1.01,1.27,1.01,2.14h-1.64c0-0.45-0.19-0.83-0.57-1.15c-0.38-0.32-0.86-0.48-1.43-0.48
		c-0.59,0-1.06,0.13-1.39,0.39c-0.33,0.26-0.5,0.6-0.5,1.01c0,0.39,0.16,0.69,0.47,0.89c0.31,0.2,0.87,0.39,1.69,0.57
		s1.47,0.4,1.98,0.65c0.5,0.25,0.88,0.56,1.12,0.91c0.24,0.35,0.37,0.79,0.37,1.3c0,0.85-0.34,1.53-1.02,2.05s-1.56,0.77-2.65,0.77
		c-0.76,0-1.44-0.14-2.02-0.41s-1.05-0.65-1.38-1.13c-0.33-0.48-0.5-1.01-0.5-1.57h1.63c0.03,0.55,0.25,0.98,0.66,1.3
		c0.41,0.32,0.95,0.48,1.62,0.48c0.62,0,1.11-0.12,1.48-0.38C194.74,421.42,194.93,421.09,194.93,420.67z"/>
	<path class="st1" d="M200.89,411.37v2.31h1.78v1.26h-1.78v5.91c0,0.38,0.08,0.67,0.24,0.86c0.16,0.19,0.43,0.29,0.81,0.29
		c0.19,0,0.45-0.04,0.77-0.11v1.31c-0.43,0.12-0.84,0.18-1.25,0.18c-0.73,0-1.28-0.22-1.65-0.66c-0.37-0.44-0.55-1.07-0.55-1.88
		v-5.91h-1.73v-1.26h1.73v-2.31H200.89z"/>
	<path class="st1" d="M210.45,423.2c-0.09-0.19-0.17-0.52-0.23-1c-0.76,0.79-1.66,1.18-2.71,1.18c-0.94,0-1.71-0.27-2.31-0.8
		c-0.6-0.53-0.9-1.2-0.9-2.02c0-0.99,0.38-1.76,1.13-2.31s1.81-0.82,3.18-0.82h1.58v-0.75c0-0.57-0.17-1.02-0.51-1.36
		c-0.34-0.34-0.84-0.51-1.5-0.51c-0.58,0-1.07,0.15-1.46,0.44c-0.39,0.29-0.59,0.65-0.59,1.07h-1.64c0-0.48,0.17-0.93,0.51-1.38
		c0.34-0.44,0.79-0.79,1.37-1.05c0.58-0.26,1.21-0.39,1.91-0.39c1.1,0,1.96,0.27,2.58,0.82c0.62,0.55,0.94,1.3,0.97,2.27v4.38
		c0,0.87,0.11,1.57,0.33,2.09v0.14H210.45z M207.75,421.96c0.51,0,0.99-0.13,1.45-0.4c0.46-0.26,0.79-0.61,1-1.03v-1.95h-1.28
		c-2,0-2.99,0.58-2.99,1.75c0,0.51,0.17,0.91,0.51,1.2C206.77,421.81,207.21,421.96,207.75,421.96z"/>
	<path class="st1" d="M218.98,415.13c-0.25-0.04-0.51-0.06-0.8-0.06c-1.07,0-1.79,0.46-2.17,1.36v6.76h-1.63v-9.52h1.58l0.03,1.1
		c0.53-0.85,1.29-1.28,2.27-1.28c0.32,0,0.56,0.04,0.72,0.12V415.13z"/>
	<path class="st1" d="M223.12,411.37v2.31h1.78v1.26h-1.78v5.91c0,0.38,0.08,0.67,0.24,0.86c0.16,0.19,0.43,0.29,0.81,0.29
		c0.19,0,0.45-0.04,0.77-0.11v1.31c-0.43,0.12-0.84,0.18-1.25,0.18c-0.73,0-1.28-0.22-1.65-0.66c-0.37-0.44-0.55-1.07-0.55-1.88
		v-5.91h-1.73v-1.26h1.73v-2.31H223.12z"/>
	<path class="st1" d="M226.81,411.15c0-0.26,0.08-0.49,0.24-0.67c0.16-0.18,0.4-0.27,0.72-0.27c0.32,0,0.56,0.09,0.72,0.27
		c0.17,0.18,0.25,0.41,0.25,0.67s-0.08,0.48-0.25,0.66c-0.16,0.18-0.4,0.26-0.72,0.26c-0.32,0-0.56-0.09-0.72-0.26
		C226.89,411.63,226.81,411.41,226.81,411.15z M228.57,423.2h-1.63v-9.52h1.63V423.2z"/>
	<path class="st1" d="M232.72,413.67l0.05,1.2c0.73-0.92,1.68-1.37,2.85-1.37c2.01,0,3.03,1.13,3.04,3.41v6.29h-1.63v-6.3
		c-0.01-0.69-0.16-1.19-0.47-1.52c-0.31-0.33-0.79-0.49-1.44-0.49c-0.53,0-0.99,0.14-1.39,0.42c-0.4,0.28-0.71,0.65-0.93,1.11v6.79
		h-1.63v-9.52H232.72z"/>
	<path class="st1" d="M240.74,418.36c0-1.48,0.34-2.67,1.03-3.54s1.6-1.32,2.73-1.32c1.16,0,2.07,0.41,2.72,1.23l0.08-1.06h1.49
		v9.29c0,1.23-0.37,2.2-1.1,2.91s-1.71,1.07-2.94,1.07c-0.69,0-1.36-0.15-2.02-0.44c-0.66-0.29-1.16-0.7-1.5-1.21l0.84-0.98
		c0.7,0.86,1.55,1.29,2.56,1.29c0.79,0,1.41-0.22,1.85-0.67c0.44-0.45,0.67-1.07,0.67-1.88v-0.82c-0.65,0.75-1.54,1.13-2.67,1.13
		c-1.12,0-2.02-0.45-2.71-1.35C241.08,421.13,240.74,419.91,240.74,418.36z M242.37,418.54c0,1.07,0.22,1.92,0.66,2.53
		c0.44,0.61,1.06,0.92,1.85,0.92c1.03,0,1.78-0.47,2.26-1.4v-4.35c-0.5-0.91-1.25-1.36-2.24-1.36c-0.79,0-1.41,0.31-1.86,0.92
		C242.6,416.42,242.37,417.33,242.37,418.54z"/>
	<path class="st1" d="M103.75,444.83c-0.09-0.19-0.17-0.52-0.23-1c-0.76,0.79-1.66,1.18-2.71,1.18c-0.94,0-1.71-0.27-2.31-0.8
		c-0.6-0.53-0.9-1.2-0.9-2.02c0-0.99,0.38-1.76,1.13-2.31s1.81-0.82,3.18-0.82h1.58v-0.75c0-0.57-0.17-1.02-0.51-1.36
		c-0.34-0.34-0.84-0.51-1.5-0.51c-0.58,0-1.07,0.15-1.46,0.44c-0.39,0.29-0.59,0.65-0.59,1.07h-1.64c0-0.48,0.17-0.93,0.51-1.38
		c0.34-0.44,0.79-0.79,1.37-1.05c0.58-0.26,1.21-0.39,1.91-0.39c1.1,0,1.96,0.27,2.58,0.82c0.62,0.55,0.94,1.3,0.97,2.27v4.38
		c0,0.87,0.11,1.57,0.33,2.09v0.14H103.75z M101.05,443.59c0.51,0,0.99-0.13,1.45-0.4c0.46-0.26,0.79-0.61,0.99-1.03v-1.95h-1.28
		c-2,0-2.99,0.58-2.99,1.75c0,0.51,0.17,0.91,0.51,1.2C100.08,443.44,100.51,443.59,101.05,443.59z"/>
	<path class="st1" d="M109.88,433v2.31h1.78v1.26h-1.78v5.91c0,0.38,0.08,0.67,0.24,0.86c0.16,0.19,0.43,0.29,0.81,0.29
		c0.19,0,0.45-0.04,0.77-0.11v1.31c-0.43,0.12-0.85,0.18-1.25,0.18c-0.73,0-1.28-0.22-1.65-0.66c-0.37-0.44-0.55-1.07-0.55-1.88
		v-5.91h-1.73v-1.26h1.73V433H109.88z"/>
	<path class="st1" d="M123.75,441.46c0-0.48-0.13-0.86-0.4-1.15s-0.72-0.55-1.36-0.79c-0.64-0.24-1.19-0.48-1.65-0.72
		c-0.46-0.24-0.86-0.51-1.19-0.82c-0.33-0.31-0.59-0.67-0.77-1.09c-0.19-0.42-0.28-0.91-0.28-1.49c0-0.99,0.32-1.8,0.95-2.44
		s1.48-1,2.53-1.11v-1.88h1.41v1.91c1.04,0.15,1.85,0.58,2.44,1.3s0.88,1.65,0.88,2.79h-2.54c0-0.7-0.15-1.23-0.44-1.58
		c-0.29-0.35-0.68-0.52-1.17-0.52c-0.48,0-0.85,0.14-1.12,0.41c-0.26,0.27-0.4,0.65-0.4,1.13c0,0.45,0.13,0.8,0.39,1.07
		c0.26,0.27,0.74,0.54,1.44,0.83c0.7,0.28,1.28,0.55,1.73,0.8c0.45,0.25,0.83,0.53,1.14,0.84s0.55,0.67,0.71,1.07
		c0.16,0.4,0.25,0.87,0.25,1.4c0,1-0.31,1.81-0.93,2.43s-1.48,0.99-2.57,1.1v1.75h-1.4v-1.74c-1.2-0.13-2.13-0.56-2.79-1.28
		s-0.99-1.69-0.99-2.89h2.54c0,0.7,0.17,1.23,0.5,1.61c0.33,0.37,0.81,0.56,1.43,0.56c0.52,0,0.92-0.14,1.22-0.41
		C123.6,442.29,123.75,441.92,123.75,441.46z"/>
	<path class="st1" d="M133.96,439.71c-0.66,0.65-1.44,0.98-2.32,0.98c-1.13,0-2.04-0.39-2.72-1.17s-1.02-1.83-1.02-3.15
		c0-0.84,0.18-1.61,0.55-2.31c0.37-0.7,0.88-1.25,1.54-1.64c0.66-0.39,1.4-0.58,2.22-0.58c0.85,0,1.6,0.21,2.25,0.63
		c0.66,0.42,1.17,1.03,1.53,1.82c0.36,0.79,0.55,1.7,0.55,2.72v0.94c0,2.14-0.53,3.81-1.59,5.03c-1.06,1.22-2.57,1.87-4.52,1.95
		l-0.62,0.01v-2.12l0.56-0.01C132.58,442.72,133.78,441.68,133.96,439.71z M132.26,438.74c0.41,0,0.76-0.11,1.06-0.32
		c0.3-0.21,0.52-0.47,0.67-0.77v-1.05c0-0.86-0.16-1.53-0.49-2.01s-0.77-0.71-1.32-0.71c-0.51,0-0.93,0.23-1.26,0.7
		c-0.33,0.47-0.49,1.05-0.49,1.76c0,0.7,0.16,1.27,0.48,1.72C131.23,438.51,131.68,438.74,132.26,438.74z"/>
	<path class="st1" d="M138.59,443.58c0-0.4,0.14-0.73,0.41-0.99c0.27-0.25,0.61-0.38,1.03-0.38c0.42,0,0.76,0.13,1.03,0.38
		s0.41,0.58,0.41,0.99c0,0.4-0.14,0.72-0.4,0.97c-0.27,0.25-0.62,0.37-1.04,0.37c-0.42,0-0.76-0.12-1.03-0.37
		C138.72,444.3,138.59,443.98,138.59,443.58z"/>
	<path class="st1" d="M149.54,439.71c-0.66,0.65-1.44,0.98-2.32,0.98c-1.13,0-2.04-0.39-2.72-1.17s-1.02-1.83-1.02-3.15
		c0-0.84,0.18-1.61,0.55-2.31c0.37-0.7,0.88-1.25,1.54-1.64c0.66-0.39,1.4-0.58,2.22-0.58c0.85,0,1.6,0.21,2.25,0.63
		c0.66,0.42,1.17,1.03,1.53,1.82c0.36,0.79,0.55,1.7,0.55,2.72v0.94c0,2.14-0.53,3.81-1.59,5.03c-1.06,1.22-2.57,1.87-4.52,1.95
		l-0.62,0.01v-2.12l0.56-0.01C148.16,442.72,149.36,441.68,149.54,439.71z M147.84,438.74c0.41,0,0.76-0.11,1.06-0.32
		c0.3-0.21,0.52-0.47,0.67-0.77v-1.05c0-0.86-0.16-1.53-0.49-2.01s-0.77-0.71-1.32-0.71c-0.51,0-0.93,0.23-1.26,0.7
		c-0.33,0.47-0.49,1.05-0.49,1.76c0,0.7,0.16,1.27,0.48,1.72C146.81,438.51,147.26,438.74,147.84,438.74z"/>
	<path class="st1" d="M159.88,439.71c-0.66,0.65-1.44,0.98-2.32,0.98c-1.13,0-2.04-0.39-2.72-1.17s-1.02-1.83-1.02-3.15
		c0-0.84,0.18-1.61,0.55-2.31c0.37-0.7,0.88-1.25,1.54-1.64c0.66-0.39,1.4-0.58,2.22-0.58c0.85,0,1.6,0.21,2.25,0.63
		c0.66,0.42,1.17,1.03,1.53,1.82c0.36,0.79,0.55,1.7,0.55,2.72v0.94c0,2.14-0.53,3.81-1.59,5.03c-1.06,1.22-2.57,1.87-4.52,1.95
		l-0.62,0.01v-2.12l0.56-0.01C158.5,442.72,159.7,441.68,159.88,439.71z M158.18,438.74c0.41,0,0.76-0.11,1.06-0.32
		c0.3-0.21,0.52-0.47,0.67-0.77v-1.05c0-0.86-0.16-1.53-0.49-2.01s-0.77-0.71-1.32-0.71c-0.51,0-0.93,0.23-1.26,0.7
		c-0.33,0.47-0.49,1.05-0.49,1.76c0,0.7,0.16,1.27,0.48,1.72C157.15,438.51,157.6,438.74,158.18,438.74z"/>
	<path class="st1" d="M165.18,445.93h-1.89l4.72-13.92h1.89L165.18,445.93z"/>
	<path class="st1" d="M173.5,435.31l0.08,1.06c0.67-0.83,1.59-1.24,2.74-1.24c1.23,0,2.07,0.48,2.53,1.45
		c0.67-0.97,1.62-1.45,2.86-1.45c1.03,0,1.8,0.3,2.31,0.9c0.5,0.6,0.76,1.51,0.76,2.72v6.08h-2.55v-6.07c0-0.54-0.11-0.93-0.32-1.18
		c-0.21-0.25-0.58-0.37-1.12-0.37c-0.76,0-1.29,0.36-1.58,1.09l0.01,6.54h-2.54v-6.06c0-0.55-0.11-0.95-0.33-1.2
		c-0.22-0.25-0.59-0.37-1.11-0.37c-0.72,0-1.24,0.3-1.57,0.9v6.73h-2.54v-9.52H173.5z"/>
	<path class="st1" d="M186.32,439.98c0-0.94,0.18-1.79,0.54-2.53c0.36-0.74,0.89-1.31,1.57-1.72c0.68-0.41,1.48-0.61,2.38-0.61
		c1.29,0,2.33,0.39,3.15,1.18c0.81,0.79,1.27,1.85,1.36,3.2l0.02,0.65c0,1.46-0.41,2.63-1.22,3.52c-0.82,0.88-1.91,1.33-3.28,1.33
		c-1.37,0-2.47-0.44-3.29-1.32c-0.82-0.88-1.23-2.08-1.23-3.59V439.98z M188.86,440.16c0,0.91,0.17,1.6,0.51,2.08
		c0.34,0.48,0.83,0.72,1.46,0.72c0.62,0,1.1-0.24,1.44-0.71c0.35-0.47,0.52-1.23,0.52-2.27c0-0.89-0.17-1.58-0.52-2.06
		c-0.35-0.49-0.83-0.73-1.46-0.73c-0.62,0-1.1,0.24-1.44,0.73C189.04,438.39,188.86,439.14,188.86,440.16z"/>
	<path class="st1" d="M199.25,435.31l0.08,1.1c0.68-0.85,1.59-1.28,2.74-1.28c1.01,0,1.76,0.3,2.25,0.89s0.75,1.48,0.76,2.66v6.15
		h-2.54v-6.09c0-0.54-0.12-0.93-0.35-1.17c-0.24-0.24-0.62-0.37-1.17-0.37c-0.72,0-1.25,0.3-1.61,0.92v6.72h-2.54v-9.52H199.25z"/>
	<path class="st1" d="M210.05,432.96v2.34h1.63v1.87h-1.63v4.75c0,0.35,0.07,0.6,0.2,0.76c0.13,0.15,0.39,0.23,0.77,0.23
		c0.28,0,0.53-0.02,0.75-0.06v1.93c-0.5,0.15-1.01,0.23-1.54,0.23c-1.78,0-2.69-0.9-2.73-2.7v-5.13h-1.39v-1.87h1.39v-2.34H210.05z"
		/>
	<path class="st1" d="M215.58,436.34c0.67-0.81,1.52-1.21,2.54-1.21c2.07,0,3.11,1.2,3.14,3.6v6.1h-2.54v-6.03
		c0-0.55-0.12-0.95-0.35-1.21c-0.23-0.26-0.62-0.39-1.17-0.39c-0.75,0-1.29,0.29-1.62,0.86v6.77h-2.54v-13.52h2.54V436.34z"/>
</g>
</svg>
