<?xml version="1.0" encoding="utf-8"?>
<!-- Generator: Adobe Illustrator 24.2.3, SVG Export Plug-In . SVG Version: 6.00 Build 0)  -->
<svg version="1.1" id="Layer_1" xmlns="http://www.w3.org/2000/svg" xmlns:xlink="http://www.w3.org/1999/xlink" x="0px" y="0px"
	 viewBox="0 0 320 468" style="enable-background:new 0 0 320 468;" xml:space="preserve">
<style type="text/css">
	.st0{fill:url(#SVGID_1_);}
</style>
<linearGradient id="SVGID_1_" gradientUnits="userSpaceOnUse" x1="19.0983" y1="221.9138" x2="298.8395" y2="221.9138">
	<stop  offset="0" style="stop-color:#18B9FB"/>
	<stop  offset="0.5" style="stop-color:#782EEB"/>
	<stop  offset="1" style="stop-color:#E82D8A"/>
</linearGradient>
<path class="st0" d="M95.58,158.77h-6.4v17.36h-5.14v-17.36h-6.28v-3.97h17.83V158.77z M103.99,176.12
	c-0.18-0.32-0.33-0.8-0.47-1.42c-0.91,1.14-2.18,1.71-3.81,1.71c-1.49,0-2.76-0.45-3.81-1.36c-1.04-0.9-1.57-2.04-1.57-3.41
	c0-1.72,0.63-3.02,1.9-3.9s3.12-1.32,5.54-1.32h1.52v-0.84c0-1.46-0.63-2.19-1.89-2.19c-1.17,0-1.76,0.58-1.76,1.74h-4.94
	c0-1.53,0.65-2.78,1.96-3.73c1.3-0.96,2.97-1.43,4.99-1.43s3.62,0.49,4.79,1.48s1.77,2.34,1.8,4.06v7.02
	c0.02,1.46,0.24,2.57,0.67,3.34v0.25H103.99z M100.9,172.9c0.62,0,1.12-0.13,1.53-0.4s0.7-0.56,0.87-0.89v-2.53h-1.44
	c-1.72,0-2.58,0.77-2.58,2.31c0,0.45,0.15,0.81,0.45,1.09C100.05,172.76,100.43,172.9,100.9,172.9z M117.35,170.22l-1.39,1.39v4.51
	h-4.94v-22.51h4.94v11.95l0.5-0.66l3.72-4.63h5.92l-5.55,6.52l5.92,9.33h-5.65L117.35,170.22z M134.77,176.42
	c-2.43,0-4.4-0.72-5.9-2.18c-1.5-1.45-2.26-3.34-2.26-5.66v-0.41c0-1.62,0.3-3.05,0.9-4.29c0.6-1.24,1.48-2.2,2.63-2.88
	c1.15-0.68,2.52-1.02,4.1-1.02c2.23,0,3.98,0.69,5.27,2.07c1.29,1.38,1.93,3.31,1.93,5.78v1.92h-9.81c0.18,0.89,0.56,1.59,1.16,2.09
	s1.37,0.76,2.31,0.76c1.56,0,2.78-0.55,3.66-1.64l2.26,2.67c-0.62,0.85-1.49,1.53-2.61,2.03
	C137.28,176.17,136.07,176.42,134.77,176.42z M134.21,163.79c-1.45,0-2.3,0.96-2.58,2.87h4.98v-0.38c0.02-0.79-0.18-1.4-0.6-1.84
	S134.99,163.79,134.21,163.79z M159.83,176.12c-0.18-0.32-0.33-0.8-0.47-1.42c-0.91,1.14-2.18,1.71-3.81,1.71
	c-1.49,0-2.76-0.45-3.81-1.36c-1.04-0.9-1.57-2.04-1.57-3.41c0-1.72,0.63-3.02,1.9-3.9s3.12-1.32,5.54-1.32h1.52v-0.84
	c0-1.46-0.63-2.19-1.89-2.19c-1.17,0-1.76,0.58-1.76,1.74h-4.94c0-1.53,0.65-2.78,1.96-3.73c1.3-0.96,2.97-1.43,4.99-1.43
	s3.62,0.49,4.79,1.48s1.77,2.34,1.8,4.06v7.02c0.02,1.46,0.24,2.57,0.67,3.34v0.25H159.83z M156.74,172.9c0.62,0,1.12-0.13,1.53-0.4
	s0.7-0.56,0.87-0.89v-2.53h-1.44c-1.72,0-2.58,0.77-2.58,2.31c0,0.45,0.15,0.81,0.45,1.09C155.89,172.76,156.27,172.9,156.74,172.9z
	 M173.53,172.61c0.69,0,1.23-0.19,1.61-0.56c0.38-0.38,0.57-0.9,0.56-1.57h4.63c0,1.74-0.62,3.16-1.87,4.28
	c-1.25,1.11-2.85,1.67-4.81,1.67c-2.3,0-4.12-0.72-5.45-2.17s-1.99-3.45-1.99-6.01v-0.21c0-1.6,0.29-3.01,0.89-4.24
	c0.59-1.23,1.44-2.17,2.56-2.83c1.11-0.66,2.43-0.99,3.96-0.99c2.06,0,3.7,0.57,4.91,1.71s1.82,2.69,1.82,4.64h-4.63
	c0-0.82-0.2-1.45-0.6-1.89s-0.94-0.66-1.61-0.66c-1.28,0-2.03,0.82-2.24,2.45c-0.07,0.52-0.1,1.23-0.1,2.14
	c0,1.59,0.19,2.7,0.57,3.31S172.7,172.61,173.53,172.61z M188.16,156.33v3.94h2.61v3.43h-2.61v7.25c0,0.6,0.11,1.01,0.32,1.25
	s0.64,0.35,1.27,0.35c0.49,0,0.9-0.03,1.23-0.09v3.53c-0.89,0.28-1.82,0.42-2.78,0.42c-1.7,0-2.95-0.4-3.76-1.2
	s-1.22-2.02-1.22-3.65v-7.87h-2.02v-3.43h2.02v-3.94H188.16z M192.67,156.19c0-0.7,0.25-1.28,0.76-1.73s1.17-0.67,1.98-0.67
	s1.47,0.22,1.98,0.67s0.76,1.03,0.76,1.73s-0.25,1.28-0.76,1.73s-1.17,0.67-1.98,0.67s-1.47-0.22-1.98-0.67
	S192.67,156.89,192.67,156.19z M197.92,176.12h-4.95v-15.85h4.95V176.12z M200.34,168.05c0-1.58,0.31-2.99,0.92-4.23
	s1.5-2.19,2.65-2.85s2.5-1,4.06-1c2.37,0,4.24,0.74,5.61,2.21s2.05,3.47,2.05,6v0.18c0,2.47-0.69,4.43-2.06,5.88
	c-1.37,1.45-3.23,2.18-5.57,2.18c-2.26,0-4.07-0.68-5.43-2.03c-1.37-1.35-2.1-3.19-2.21-5.5L200.34,168.05z M205.27,168.36
	c0,1.46,0.23,2.54,0.69,3.22s1.14,1.03,2.04,1.03c1.76,0,2.66-1.35,2.7-4.06v-0.5c0-2.84-0.91-4.26-2.72-4.26
	c-1.65,0-2.54,1.23-2.68,3.68L205.27,168.36z M222.34,160.27l0.16,1.86c1.09-1.44,2.6-2.15,4.53-2.15c1.65,0,2.88,0.49,3.7,1.48
	c0.81,0.99,1.24,2.47,1.27,4.45v10.21h-4.95v-10c0-0.8-0.16-1.39-0.48-1.76s-0.91-0.56-1.76-0.56c-0.97,0-1.68,0.38-2.15,1.14v11.19
	h-4.94v-15.85H222.34z M234.85,173.91c0-0.72,0.26-1.32,0.78-1.78c0.52-0.46,1.17-0.7,1.96-0.7s1.43,0.23,1.96,0.7
	c0.52,0.46,0.78,1.06,0.78,1.78s-0.26,1.32-0.78,1.78c-0.52,0.46-1.17,0.7-1.96,0.7s-1.43-0.23-1.96-0.7
	C235.11,175.23,234.85,174.63,234.85,173.91z M239.62,169.37h-4l-0.63-14.58h5.26L239.62,169.37z M28.68,190.8h5.13v14.63
	c0,1.36-0.31,2.57-0.95,3.63c-0.63,1.06-1.51,1.89-2.64,2.48c-1.13,0.59-2.38,0.88-3.77,0.88c-2.32,0-4.13-0.59-5.42-1.76
	s-1.93-2.83-1.93-4.98h5.16c0,0.98,0.17,1.68,0.51,2.12c0.34,0.44,0.9,0.66,1.69,0.66c0.71,0,1.26-0.27,1.65-0.8
	c0.38-0.53,0.58-1.28,0.58-2.23V190.8z M46.26,210.41c-1.04,1.34-2.46,2.01-4.23,2.01c-1.74,0-3.05-0.51-3.95-1.52
	c-0.89-1.01-1.34-2.46-1.34-4.36v-10.27h4.94v10.3c0,1.36,0.66,2.04,1.98,2.04c1.13,0,1.94-0.41,2.42-1.22v-11.12h4.97v15.85H46.4
	L46.26,210.41z M62.03,207.67c0-0.42-0.22-0.76-0.66-1.01s-1.27-0.52-2.5-0.79s-2.25-0.63-3.05-1.08c-0.8-0.44-1.41-0.98-1.83-1.62
	s-0.63-1.36-0.63-2.18c0-1.46,0.6-2.65,1.8-3.6s2.77-1.41,4.72-1.41c2.09,0,3.77,0.47,5.04,1.42s1.9,2.19,1.9,3.74h-4.95
	c0-1.27-0.67-1.9-2.01-1.9c-0.52,0-0.95,0.14-1.3,0.43c-0.35,0.29-0.53,0.65-0.53,1.08c0,0.44,0.21,0.8,0.64,1.07
	s1.12,0.5,2.06,0.67c0.94,0.18,1.77,0.39,2.48,0.63c2.38,0.82,3.57,2.29,3.57,4.41c0,1.45-0.64,2.62-1.93,3.53
	c-1.29,0.91-2.95,1.36-4.99,1.36c-1.36,0-2.57-0.24-3.63-0.73s-1.89-1.15-2.49-1.99s-0.89-1.72-0.89-2.65h4.61
	c0.02,0.73,0.26,1.27,0.73,1.6c0.47,0.34,1.07,0.5,1.8,0.5c0.67,0,1.18-0.14,1.52-0.41C61.86,208.47,62.03,208.11,62.03,207.67z
	 M74.85,192.33v3.94h2.61v3.43h-2.61v7.25c0,0.6,0.11,1.01,0.32,1.25s0.64,0.35,1.27,0.35c0.49,0,0.9-0.03,1.23-0.09v3.53
	c-0.89,0.28-1.82,0.42-2.78,0.42c-1.7,0-2.95-0.4-3.76-1.2s-1.22-2.02-1.22-3.65v-7.87h-2.02v-3.43h2.02v-3.94H74.85z M95.8,212.12
	c-0.18-0.32-0.33-0.8-0.47-1.42c-0.91,1.14-2.18,1.71-3.81,1.71c-1.49,0-2.76-0.45-3.81-1.36c-1.04-0.9-1.57-2.04-1.57-3.41
	c0-1.72,0.63-3.02,1.9-3.9s3.12-1.32,5.54-1.32h1.52v-0.84c0-1.46-0.63-2.19-1.89-2.19c-1.17,0-1.76,0.58-1.76,1.74h-4.94
	c0-1.53,0.65-2.78,1.96-3.73c1.3-0.96,2.97-1.43,4.99-1.43s3.62,0.49,4.79,1.48s1.77,2.34,1.8,4.06v7.02
	c0.02,1.46,0.24,2.57,0.67,3.34v0.25H95.8z M92.71,208.9c0.62,0,1.12-0.13,1.53-0.4s0.7-0.56,0.87-0.89v-2.53h-1.44
	c-1.72,0-2.58,0.77-2.58,2.31c0,0.45,0.15,0.81,0.45,1.09C91.85,208.76,92.24,208.9,92.71,208.9z M116.01,192.33v3.94h2.61v3.43
	h-2.61v7.25c0,0.6,0.11,1.01,0.32,1.25s0.64,0.35,1.27,0.35c0.49,0,0.9-0.03,1.23-0.09v3.53c-0.89,0.28-1.82,0.42-2.78,0.42
	c-1.7,0-2.95-0.4-3.76-1.2s-1.22-2.02-1.22-3.65v-7.87h-2.02v-3.43h2.02v-3.94H116.01z M129.49,212.12
	c-0.18-0.32-0.33-0.8-0.47-1.42c-0.91,1.14-2.18,1.71-3.81,1.71c-1.49,0-2.76-0.45-3.81-1.36c-1.04-0.9-1.57-2.04-1.57-3.41
	c0-1.72,0.63-3.02,1.9-3.9s3.12-1.32,5.54-1.32h1.52v-0.84c0-1.46-0.63-2.19-1.89-2.19c-1.17,0-1.76,0.58-1.76,1.74h-4.94
	c0-1.53,0.65-2.78,1.96-3.73c1.3-0.96,2.97-1.43,4.99-1.43c2.02,0,3.62,0.49,4.79,1.48s1.77,2.34,1.8,4.06v7.02
	c0.02,1.46,0.24,2.57,0.67,3.34v0.25H129.49z M126.4,208.9c0.62,0,1.12-0.13,1.53-0.4c0.41-0.26,0.7-0.56,0.87-0.89v-2.53h-1.44
	c-1.72,0-2.58,0.77-2.58,2.31c0,0.45,0.15,0.81,0.45,1.09C125.54,208.76,125.93,208.9,126.4,208.9z M151.2,204.32
	c0,2.46-0.55,4.43-1.66,5.9c-1.11,1.47-2.6,2.21-4.49,2.21c-1.46,0-2.65-0.53-3.59-1.6v7.4h-4.94v-21.94h4.61l0.15,1.46
	c0.95-1.17,2.19-1.76,3.74-1.76c1.95,0,3.47,0.72,4.56,2.16c1.08,1.44,1.63,3.42,1.63,5.94V204.32z M146.26,204.01
	c0-2.81-0.82-4.22-2.46-4.22c-1.17,0-1.95,0.42-2.34,1.26v6.24c0.43,0.88,1.22,1.32,2.37,1.32c1.57,0,2.38-1.36,2.43-4.07V204.01z
	 M169.77,212.12c-0.18-0.32-0.33-0.8-0.47-1.42c-0.91,1.14-2.18,1.71-3.81,1.71c-1.49,0-2.76-0.45-3.81-1.36
	c-1.04-0.9-1.57-2.04-1.57-3.41c0-1.72,0.63-3.02,1.9-3.9s3.12-1.32,5.54-1.32h1.52v-0.84c0-1.46-0.63-2.19-1.89-2.19
	c-1.17,0-1.76,0.58-1.76,1.74h-4.94c0-1.53,0.65-2.78,1.96-3.73c1.3-0.96,2.97-1.43,4.99-1.43s3.62,0.49,4.79,1.48
	s1.77,2.34,1.8,4.06v7.02c0.02,1.46,0.24,2.57,0.67,3.34v0.25H169.77z M166.68,208.9c0.62,0,1.12-0.13,1.53-0.4s0.7-0.56,0.87-0.89
	v-2.53h-1.44c-1.72,0-2.58,0.77-2.58,2.31c0,0.45,0.15,0.81,0.45,1.09C165.83,208.76,166.21,208.9,166.68,208.9z M190.46,205.62
	l1.6-9.35h4.73l-3.74,15.85h-4.17l-2.62-9.4l-2.64,9.4h-4.17l-3.74-15.85h4.73l1.57,9.57l2.52-9.57h3.44L190.46,205.62z
	 M207.48,212.12c-0.18-0.32-0.33-0.8-0.47-1.42c-0.91,1.14-2.18,1.71-3.81,1.71c-1.49,0-2.76-0.45-3.81-1.36
	c-1.04-0.9-1.57-2.04-1.57-3.41c0-1.72,0.63-3.02,1.9-3.9s3.12-1.32,5.54-1.32h1.52v-0.84c0-1.46-0.63-2.19-1.89-2.19
	c-1.17,0-1.76,0.58-1.76,1.74h-4.94c0-1.53,0.65-2.78,1.96-3.73c1.3-0.96,2.97-1.43,4.99-1.43s3.62,0.49,4.79,1.48
	s1.77,2.34,1.8,4.06v7.02c0.02,1.46,0.24,2.57,0.67,3.34v0.25H207.48z M204.39,208.9c0.62,0,1.12-0.13,1.53-0.4s0.7-0.56,0.87-0.89
	v-2.53h-1.44c-1.72,0-2.58,0.77-2.58,2.31c0,0.45,0.15,0.81,0.45,1.09C203.53,208.76,203.92,208.9,204.39,208.9z M220.59,205.21
	l2.64-8.94h5.29l-6.46,18.5l-0.28,0.67c-0.92,2.05-2.54,3.08-4.86,3.08c-0.64,0-1.32-0.1-2.04-0.29v-3.52h0.64
	c0.69,0,1.22-0.1,1.59-0.3c0.37-0.2,0.64-0.56,0.81-1.08l0.4-1.06l-5.51-16.01h5.27L220.59,205.21z M238.36,212.12V199.7h-2.3v-3.43
	h2.3v-1.26c0-1.81,0.53-3.21,1.6-4.2s2.56-1.49,4.48-1.49c0.7,0,1.47,0.1,2.31,0.31l0.01,3.63c-0.3-0.09-0.71-0.13-1.22-0.13
	c-1.49,0-2.24,0.64-2.24,1.93v1.22h3.09v3.43h-3.09v12.42H238.36z M257.72,200.74l-1.63-0.12c-1.55,0-2.55,0.49-2.99,1.46v10.03
	h-4.94v-15.85h4.63l0.16,2.04c0.83-1.55,1.99-2.33,3.47-2.33c0.53,0,0.99,0.06,1.38,0.18L257.72,200.74z M258.35,204.05
	c0-1.58,0.31-2.99,0.92-4.23s1.5-2.19,2.65-2.85s2.5-1,4.06-1c2.37,0,4.24,0.74,5.61,2.21s2.05,3.47,2.05,6v0.18
	c0,2.47-0.69,4.43-2.06,5.88c-1.37,1.45-3.23,2.18-5.57,2.18c-2.26,0-4.07-0.68-5.43-2.03c-1.37-1.35-2.1-3.19-2.21-5.5
	L258.35,204.05z M263.29,204.36c0,1.46,0.23,2.54,0.69,3.22s1.14,1.03,2.04,1.03c1.76,0,2.66-1.35,2.7-4.06v-0.5
	c0-2.84-0.91-4.26-2.72-4.26c-1.65,0-2.54,1.23-2.68,3.68L263.29,204.36z M280.49,196.27l0.16,1.86c1.12-1.44,2.63-2.15,4.53-2.15
	c2,0,3.35,0.8,4.06,2.39c1.07-1.59,2.63-2.39,4.66-2.39c3.21,0,4.86,1.94,4.95,5.83v10.31h-4.95v-10c0-0.81-0.14-1.4-0.41-1.77
	s-0.77-0.56-1.49-0.56c-0.98,0-1.7,0.43-2.18,1.3l0.01,0.21v10.83h-4.95v-9.98c0-0.83-0.13-1.43-0.4-1.8s-0.77-0.56-1.51-0.56
	c-0.95,0-1.67,0.43-2.17,1.3v11.03h-4.94v-15.85H280.49z M36.25,248.12c-0.18-0.32-0.33-0.8-0.47-1.42
	c-0.91,1.14-2.18,1.71-3.81,1.71c-1.49,0-2.76-0.45-3.81-1.36c-1.04-0.9-1.57-2.04-1.57-3.41c0-1.72,0.63-3.02,1.9-3.9
	s3.12-1.32,5.54-1.32h1.52v-0.84c0-1.46-0.63-2.19-1.89-2.19c-1.17,0-1.76,0.58-1.76,1.74h-4.94c0-1.53,0.65-2.78,1.96-3.73
	c1.3-0.96,2.97-1.43,4.99-1.43s3.62,0.49,4.79,1.48s1.77,2.34,1.8,4.06v7.02c0.02,1.46,0.24,2.57,0.67,3.34v0.25H36.25z
	 M33.16,244.9c0.62,0,1.12-0.13,1.53-0.4s0.7-0.56,0.87-0.89v-2.53h-1.44c-1.72,0-2.58,0.77-2.58,2.31c0,0.45,0.15,0.81,0.45,1.09
	C32.31,244.76,32.69,244.9,33.16,244.9z M50.09,240.08c0-2.51,0.54-4.49,1.63-5.93s2.6-2.17,4.54-2.17c1.42,0,2.61,0.56,3.57,1.67
	v-8.03h4.95v22.5h-4.44l-0.25-1.7c-1.02,1.33-2.3,1.99-3.87,1.99c-1.88,0-3.38-0.72-4.48-2.17S50.09,242.75,50.09,240.08z
	 M55.03,240.39c0,2.81,0.82,4.22,2.46,4.22c1.09,0,1.88-0.46,2.34-1.38v-6.04c-0.45-0.94-1.22-1.41-2.31-1.41
	c-1.52,0-2.35,1.23-2.48,3.69L55.03,240.39z M75.26,248.42c-2.43,0-4.4-0.72-5.9-2.18c-1.5-1.45-2.26-3.34-2.26-5.66v-0.41
	c0-1.62,0.3-3.05,0.9-4.29c0.6-1.24,1.48-2.2,2.63-2.88c1.15-0.68,2.52-1.02,4.1-1.02c2.23,0,3.98,0.69,5.27,2.07
	c1.29,1.38,1.93,3.31,1.93,5.78v1.92h-9.81c0.18,0.89,0.56,1.59,1.16,2.09s1.37,0.76,2.31,0.76c1.56,0,2.78-0.55,3.66-1.64
	l2.26,2.67c-0.62,0.85-1.49,1.53-2.61,2.03C77.77,248.17,76.56,248.42,75.26,248.42z M74.7,235.79c-1.45,0-2.3,0.96-2.58,2.87h4.98
	v-0.38c0.02-0.79-0.18-1.4-0.6-1.84S75.48,235.79,74.7,235.79z M83.3,240.08c0-2.51,0.54-4.49,1.63-5.93s2.6-2.17,4.54-2.17
	c1.42,0,2.61,0.56,3.57,1.67v-8.03h4.95v22.5h-4.44l-0.25-1.7c-1.02,1.33-2.3,1.99-3.87,1.99c-1.88,0-3.38-0.72-4.48-2.17
	S83.3,242.75,83.3,240.08z M88.24,240.39c0,2.81,0.82,4.22,2.46,4.22c1.09,0,1.88-0.46,2.34-1.38v-6.04
	c-0.45-0.94-1.22-1.41-2.31-1.41c-1.52,0-2.35,1.23-2.48,3.69L88.24,240.39z M100.76,228.19c0-0.7,0.25-1.28,0.76-1.73
	s1.17-0.67,1.98-0.67s1.47,0.22,1.98,0.67s0.76,1.03,0.76,1.73s-0.25,1.28-0.76,1.73s-1.17,0.67-1.98,0.67s-1.47-0.22-1.98-0.67
	S100.76,228.89,100.76,228.19z M106.01,248.12h-4.95v-15.85h4.95V248.12z M115.75,244.61c0.69,0,1.23-0.19,1.61-0.56
	c0.38-0.38,0.57-0.9,0.56-1.57h4.63c0,1.74-0.62,3.16-1.87,4.28c-1.25,1.11-2.85,1.67-4.81,1.67c-2.3,0-4.12-0.72-5.45-2.17
	s-1.99-3.45-1.99-6.01v-0.21c0-1.6,0.29-3.01,0.89-4.24c0.59-1.23,1.44-2.17,2.56-2.83c1.11-0.66,2.43-0.99,3.96-0.99
	c2.06,0,3.7,0.57,4.91,1.71s1.82,2.69,1.82,4.64h-4.63c0-0.82-0.2-1.45-0.6-1.89s-0.94-0.66-1.61-0.66c-1.28,0-2.03,0.82-2.24,2.45
	c-0.07,0.52-0.1,1.23-0.1,2.14c0,1.59,0.19,2.7,0.57,3.31S114.92,244.61,115.75,244.61z M133.56,248.12
	c-0.18-0.32-0.33-0.8-0.47-1.42c-0.91,1.14-2.18,1.71-3.81,1.71c-1.49,0-2.76-0.45-3.81-1.36c-1.04-0.9-1.57-2.04-1.57-3.41
	c0-1.72,0.63-3.02,1.9-3.9s3.12-1.32,5.54-1.32h1.52v-0.84c0-1.46-0.63-2.19-1.89-2.19c-1.17,0-1.76,0.58-1.76,1.74h-4.94
	c0-1.53,0.65-2.78,1.96-3.73c1.3-0.96,2.97-1.43,4.99-1.43s3.62,0.49,4.79,1.48s1.77,2.34,1.8,4.06v7.02
	c0.02,1.46,0.24,2.57,0.67,3.34v0.25H133.56z M130.47,244.9c0.62,0,1.12-0.13,1.53-0.4s0.7-0.56,0.87-0.89v-2.53h-1.44
	c-1.72,0-2.58,0.77-2.58,2.31c0,0.45,0.15,0.81,0.45,1.09C129.61,244.76,130,244.9,130.47,244.9z M146.3,228.33v3.94h2.61v3.43
	h-2.61v7.25c0,0.6,0.11,1.01,0.32,1.25s0.64,0.35,1.27,0.35c0.49,0,0.9-0.03,1.23-0.09v3.53c-0.89,0.28-1.82,0.42-2.78,0.42
	c-1.7,0-2.95-0.4-3.76-1.2s-1.22-2.02-1.22-3.65v-7.87h-2.02v-3.43h2.02v-3.94H146.3z M158.52,248.42c-2.43,0-4.4-0.72-5.9-2.18
	c-1.5-1.45-2.26-3.34-2.26-5.66v-0.41c0-1.62,0.3-3.05,0.9-4.29c0.6-1.24,1.48-2.2,2.63-2.88c1.15-0.68,2.52-1.02,4.1-1.02
	c2.23,0,3.98,0.69,5.27,2.07c1.29,1.38,1.93,3.31,1.93,5.78v1.92h-9.81c0.18,0.89,0.56,1.59,1.16,2.09s1.37,0.76,2.31,0.76
	c1.56,0,2.78-0.55,3.66-1.64l2.26,2.67c-0.62,0.85-1.49,1.53-2.61,2.03C161.03,248.17,159.82,248.42,158.52,248.42z M157.96,235.79
	c-1.45,0-2.3,0.96-2.58,2.87h4.98v-0.38c0.02-0.79-0.18-1.4-0.6-1.84S158.75,235.79,157.96,235.79z M166.56,240.08
	c0-2.51,0.54-4.49,1.63-5.93s2.6-2.17,4.54-2.17c1.42,0,2.61,0.56,3.57,1.67v-8.03h4.95v22.5h-4.44l-0.25-1.7
	c-1.02,1.33-2.3,1.99-3.87,1.99c-1.88,0-3.38-0.72-4.48-2.17S166.56,242.75,166.56,240.08z M171.5,240.39
	c0,2.81,0.82,4.22,2.46,4.22c1.09,0,1.88-0.46,2.34-1.38v-6.04c-0.45-0.94-1.22-1.41-2.31-1.41c-1.52,0-2.35,1.23-2.48,3.69
	L171.5,240.39z M191.49,228.19c0-0.7,0.25-1.28,0.76-1.73s1.17-0.67,1.98-0.67s1.47,0.22,1.98,0.67s0.76,1.03,0.76,1.73
	s-0.25,1.28-0.76,1.73s-1.17,0.67-1.98,0.67s-1.47-0.22-1.98-0.67S191.49,228.89,191.49,228.19z M196.74,248.12h-4.95v-15.85h4.95
	V248.12z M199.16,240.08c0-2.51,0.54-4.49,1.63-5.93s2.6-2.17,4.54-2.17c1.42,0,2.61,0.56,3.57,1.67v-8.03h4.95v22.5h-4.44
	l-0.25-1.7c-1.02,1.33-2.3,1.99-3.87,1.99c-1.88,0-3.38-0.72-4.48-2.17S199.16,242.75,199.16,240.08z M204.09,240.39
	c0,2.81,0.82,4.22,2.46,4.22c1.09,0,1.88-0.46,2.34-1.38v-6.04c-0.45-0.94-1.22-1.41-2.31-1.41c-1.52,0-2.35,1.23-2.48,3.69
	L204.09,240.39z M224.32,248.42c-2.43,0-4.4-0.72-5.9-2.18c-1.5-1.45-2.26-3.34-2.26-5.66v-0.41c0-1.62,0.3-3.05,0.9-4.29
	c0.6-1.24,1.48-2.2,2.63-2.88c1.15-0.68,2.52-1.02,4.1-1.02c2.23,0,3.98,0.69,5.27,2.07c1.29,1.38,1.93,3.31,1.93,5.78v1.92h-9.81
	c0.18,0.89,0.56,1.59,1.16,2.09s1.37,0.76,2.31,0.76c1.56,0,2.78-0.55,3.66-1.64l2.26,2.67c-0.62,0.85-1.49,1.53-2.61,2.03
	C226.83,248.17,225.62,248.42,224.32,248.42z M223.77,235.79c-1.45,0-2.3,0.96-2.58,2.87h4.98v-0.38c0.02-0.79-0.18-1.4-0.6-1.84
	S224.55,235.79,223.77,235.79z M237.52,232.27l0.16,1.86c1.09-1.44,2.6-2.15,4.53-2.15c1.65,0,2.88,0.49,3.7,1.48
	c0.81,0.99,1.24,2.47,1.27,4.45v10.21h-4.95v-10c0-0.8-0.16-1.39-0.48-1.76s-0.91-0.56-1.76-0.56c-0.97,0-1.68,0.38-2.15,1.14v11.19
	h-4.94v-15.85H237.52z M255.65,228.33v3.94h2.61v3.43h-2.61v7.25c0,0.6,0.11,1.01,0.32,1.25s0.64,0.35,1.27,0.35
	c0.49,0,0.9-0.03,1.23-0.09v3.53c-0.89,0.28-1.82,0.42-2.78,0.42c-1.7,0-2.95-0.4-3.76-1.2s-1.22-2.02-1.22-3.65v-7.87h-2.02v-3.43
	h2.02v-3.94H255.65z M260.17,228.19c0-0.7,0.25-1.28,0.76-1.73s1.17-0.67,1.98-0.67s1.47,0.22,1.98,0.67s0.76,1.03,0.76,1.73
	s-0.25,1.28-0.76,1.73s-1.17,0.67-1.98,0.67s-1.47-0.22-1.98-0.67S260.17,228.89,260.17,228.19z M265.41,248.12h-4.95v-15.85h4.95
	V248.12z M274.2,228.33v3.94h2.61v3.43h-2.61v7.25c0,0.6,0.11,1.01,0.32,1.25s0.64,0.35,1.27,0.35c0.49,0,0.9-0.03,1.23-0.09v3.53
	c-0.89,0.28-1.82,0.42-2.78,0.42c-1.7,0-2.95-0.4-3.76-1.2s-1.22-2.02-1.22-3.65v-7.87h-2.02v-3.43h2.02v-3.94H274.2z
	 M285.08,241.21l2.64-8.94h5.29l-6.46,18.5l-0.28,0.67c-0.92,2.05-2.54,3.08-4.86,3.08c-0.64,0-1.32-0.1-2.04-0.29v-3.52h0.64
	c0.69,0,1.22-0.1,1.59-0.3c0.37-0.2,0.64-0.56,0.81-1.08l0.4-1.06l-5.51-16.01h5.27L285.08,241.21z M65.2,264.33v3.94h2.61v3.43
	H65.2v7.25c0,0.6,0.11,1.01,0.32,1.25s0.64,0.35,1.27,0.35c0.49,0,0.9-0.03,1.23-0.09v3.53c-0.89,0.28-1.82,0.42-2.78,0.42
	c-1.7,0-2.95-0.4-3.76-1.2s-1.22-2.02-1.22-3.65v-7.87h-2.02v-3.43h2.02v-3.94H65.2z M74.58,269.97c1.05-1.33,2.4-1.99,4.04-1.99
	c1.75,0,3.07,0.52,3.96,1.55s1.34,2.56,1.36,4.58v10h-4.95v-9.89c0-0.84-0.17-1.46-0.51-1.85c-0.34-0.4-0.92-0.59-1.74-0.59
	c-1.02,0-1.73,0.32-2.15,0.97v11.37h-4.94v-22.5h4.94V269.97z M94.35,284.42c-2.43,0-4.4-0.72-5.9-2.18
	c-1.5-1.45-2.26-3.34-2.26-5.66v-0.41c0-1.62,0.3-3.05,0.9-4.29c0.6-1.24,1.48-2.2,2.63-2.88c1.15-0.68,2.52-1.02,4.1-1.02
	c2.23,0,3.98,0.69,5.27,2.07c1.29,1.38,1.93,3.31,1.93,5.78v1.92h-9.81c0.18,0.89,0.56,1.59,1.16,2.09s1.37,0.76,2.31,0.76
	c1.56,0,2.78-0.55,3.66-1.64l2.26,2.67c-0.62,0.85-1.49,1.53-2.61,2.03C96.87,284.17,95.65,284.42,94.35,284.42z M93.8,271.79
	c-1.45,0-2.3,0.96-2.58,2.87h4.98v-0.38c0.02-0.79-0.18-1.4-0.6-1.84S94.58,271.79,93.8,271.79z M104.11,284.12V271.7h-2.3v-3.43
	h2.3v-1.26c0-1.81,0.53-3.21,1.6-4.2s2.56-1.49,4.48-1.49c0.7,0,1.47,0.1,2.31,0.31l0.01,3.63c-0.3-0.09-0.71-0.13-1.22-0.13
	c-1.49,0-2.24,0.64-2.24,1.93v1.22h3.09v3.43h-3.09v12.42H104.11z M119.64,264.33v3.94h2.61v3.43h-2.61v7.25
	c0,0.6,0.11,1.01,0.32,1.25s0.64,0.35,1.27,0.35c0.49,0,0.9-0.03,1.23-0.09v3.53c-0.89,0.28-1.82,0.42-2.78,0.42
	c-1.7,0-2.95-0.4-3.76-1.2s-1.22-2.02-1.22-3.65v-7.87h-2.02v-3.43h2.02v-3.94H119.64z M139.95,279.67c0-0.42-0.22-0.76-0.66-1.01
	s-1.27-0.52-2.5-0.79s-2.25-0.63-3.05-1.08c-0.8-0.44-1.41-0.98-1.83-1.62s-0.63-1.36-0.63-2.18c0-1.46,0.6-2.65,1.8-3.6
	s2.77-1.41,4.72-1.41c2.09,0,3.77,0.47,5.04,1.42s1.9,2.19,1.9,3.74h-4.95c0-1.27-0.67-1.9-2.01-1.9c-0.52,0-0.95,0.14-1.3,0.43
	c-0.35,0.29-0.53,0.65-0.53,1.08c0,0.44,0.21,0.8,0.64,1.07s1.12,0.5,2.06,0.67c0.94,0.18,1.77,0.39,2.48,0.63
	c2.38,0.82,3.57,2.29,3.57,4.41c0,1.45-0.64,2.62-1.93,3.53c-1.29,0.91-2.95,1.36-4.99,1.36c-1.36,0-2.57-0.24-3.63-0.73
	s-1.89-1.15-2.49-1.99s-0.89-1.72-0.89-2.65h4.61c0.02,0.73,0.26,1.27,0.73,1.6c0.47,0.34,1.07,0.5,1.8,0.5
	c0.67,0,1.18-0.14,1.52-0.41C139.79,280.47,139.95,280.11,139.95,279.67z M161.74,276.32c0,2.46-0.55,4.43-1.66,5.9
	c-1.11,1.47-2.6,2.21-4.49,2.21c-1.46,0-2.65-0.53-3.59-1.6v7.4h-4.94v-21.94h4.61l0.15,1.46c0.95-1.17,2.19-1.76,3.74-1.76
	c1.95,0,3.47,0.72,4.56,2.16c1.08,1.44,1.63,3.42,1.63,5.94V276.32z M156.8,276.01c0-2.81-0.82-4.22-2.46-4.22
	c-1.17,0-1.95,0.42-2.34,1.26v6.24c0.43,0.88,1.22,1.32,2.37,1.32c1.57,0,2.38-1.36,2.43-4.07V276.01z M171.58,284.42
	c-2.43,0-4.4-0.72-5.9-2.18c-1.5-1.45-2.26-3.34-2.26-5.66v-0.41c0-1.62,0.3-3.05,0.9-4.29c0.6-1.24,1.48-2.2,2.63-2.88
	c1.15-0.68,2.52-1.02,4.1-1.02c2.23,0,3.98,0.69,5.27,2.07c1.29,1.38,1.93,3.31,1.93,5.78v1.92h-9.81c0.18,0.89,0.56,1.59,1.16,2.09
	s1.37,0.76,2.31,0.76c1.56,0,2.78-0.55,3.66-1.64l2.26,2.67c-0.62,0.85-1.49,1.53-2.61,2.03
	C174.09,284.17,172.88,284.42,171.58,284.42z M171.02,271.79c-1.45,0-2.3,0.96-2.58,2.87h4.98v-0.38c0.02-0.79-0.18-1.4-0.6-1.84
	S171.81,271.79,171.02,271.79z M186.95,280.61c0.69,0,1.23-0.19,1.61-0.56c0.38-0.38,0.57-0.9,0.56-1.57h4.63
	c0,1.74-0.62,3.16-1.87,4.28c-1.25,1.11-2.85,1.67-4.81,1.67c-2.3,0-4.12-0.72-5.45-2.17s-1.99-3.45-1.99-6.01v-0.21
	c0-1.6,0.29-3.01,0.89-4.24c0.59-1.23,1.44-2.17,2.56-2.83c1.11-0.66,2.43-0.99,3.96-0.99c2.06,0,3.7,0.57,4.91,1.71
	s1.82,2.69,1.82,4.64h-4.63c0-0.82-0.2-1.45-0.6-1.89s-0.94-0.66-1.61-0.66c-1.28,0-2.03,0.82-2.24,2.45
	c-0.07,0.52-0.1,1.23-0.1,2.14c0,1.59,0.19,2.7,0.57,3.31S186.12,280.61,186.95,280.61z M195.79,264.19c0-0.7,0.25-1.28,0.76-1.73
	s1.17-0.67,1.98-0.67s1.47,0.22,1.98,0.67s0.76,1.03,0.76,1.73s-0.25,1.28-0.76,1.73s-1.17,0.67-1.98,0.67s-1.47-0.22-1.98-0.67
	S195.79,264.89,195.79,264.19z M201.04,284.12h-4.95v-15.85h4.95V284.12z M213.01,284.12c-0.18-0.32-0.33-0.8-0.47-1.42
	c-0.91,1.14-2.18,1.71-3.81,1.71c-1.49,0-2.76-0.45-3.81-1.36c-1.04-0.9-1.57-2.04-1.57-3.41c0-1.72,0.63-3.02,1.9-3.9
	s3.12-1.32,5.54-1.32h1.52v-0.84c0-1.46-0.63-2.19-1.89-2.19c-1.17,0-1.76,0.58-1.76,1.74h-4.94c0-1.53,0.65-2.78,1.96-3.73
	c1.3-0.96,2.97-1.43,4.99-1.43s3.62,0.49,4.79,1.48s1.77,2.34,1.8,4.06v7.02c0.02,1.46,0.24,2.57,0.67,3.34v0.25H213.01z
	 M209.92,280.9c0.62,0,1.12-0.13,1.53-0.4s0.7-0.56,0.87-0.89v-2.53h-1.44c-1.72,0-2.58,0.77-2.58,2.31c0,0.45,0.15,0.81,0.45,1.09
	C209.06,280.76,209.45,280.9,209.92,280.9z M225.21,284.12h-4.95v-22.5h4.95V284.12z M228.21,264.19c0-0.7,0.25-1.28,0.76-1.73
	s1.17-0.67,1.98-0.67s1.47,0.22,1.98,0.67s0.76,1.03,0.76,1.73s-0.25,1.28-0.76,1.73s-1.17,0.67-1.98,0.67s-1.47-0.22-1.98-0.67
	S228.21,264.89,228.21,264.19z M233.46,284.12h-4.95v-15.85h4.95V284.12z M244.79,279.67c0-0.42-0.22-0.76-0.66-1.01
	s-1.27-0.52-2.5-0.79s-2.25-0.63-3.05-1.08c-0.8-0.44-1.41-0.98-1.83-1.62s-0.63-1.36-0.63-2.18c0-1.46,0.6-2.65,1.8-3.6
	s2.77-1.41,4.72-1.41c2.09,0,3.77,0.47,5.04,1.42s1.9,2.19,1.9,3.74h-4.95c0-1.27-0.67-1.9-2.01-1.9c-0.52,0-0.95,0.14-1.3,0.43
	c-0.35,0.29-0.53,0.65-0.53,1.08c0,0.44,0.21,0.8,0.64,1.07s1.12,0.5,2.06,0.67c0.94,0.18,1.77,0.39,2.48,0.63
	c2.38,0.82,3.57,2.29,3.57,4.41c0,1.45-0.64,2.62-1.93,3.53c-1.29,0.91-2.95,1.36-4.99,1.36c-1.36,0-2.57-0.24-3.63-0.73
	s-1.89-1.15-2.49-1.99s-0.89-1.72-0.89-2.65h4.61c0.02,0.73,0.26,1.27,0.73,1.6c0.47,0.34,1.07,0.5,1.8,0.5
	c0.67,0,1.18-0.14,1.52-0.41C244.62,280.47,244.79,280.11,244.79,279.67z M257.61,264.33v3.94h2.61v3.43h-2.61v7.25
	c0,0.6,0.11,1.01,0.32,1.25s0.64,0.35,1.27,0.35c0.49,0,0.9-0.03,1.23-0.09v3.53c-0.89,0.28-1.82,0.42-2.78,0.42
	c-1.7,0-2.95-0.4-3.76-1.2s-1.22-2.02-1.22-3.65v-7.87h-2.02v-3.43h2.02v-3.94H257.61z"/>
</svg>
