<?xml version="1.0" encoding="utf-8"?>
<!-- Generator: Adobe Illustrator 26.0.3, SVG Export Plug-In . SVG Version: 6.00 Build 0)  -->
<svg version="1.1" id="Layer_1" xmlns="http://www.w3.org/2000/svg" xmlns:xlink="http://www.w3.org/1999/xlink" x="0px" y="0px"
	 viewBox="0 0 970 250" style="enable-background:new 0 0 970 250;" xml:space="preserve">
<style type="text/css">
	.st0{fill:#EDF4FD;}
	
		.st1{fill:none;stroke:url(#underline_00000158724741761877826800000002744808182627222924_);stroke-width:5;stroke-linecap:round;stroke-miterlimit:10;}
</style>
<g>
	<path class="st0" d="M311.5,58.5h-14.6v9.9H314v6.1h-24.8v-37H314v6.2h-17.1v8.8h14.6V58.5z"/>
	<path class="st0" d="M324.8,47.1l0.2,3.2c2-2.5,4.6-3.7,7.9-3.7c2.9,0,5.1,0.9,6.5,2.6s2.1,4.3,2.2,7.7v17.7h-7.3V57
		c0-1.6-0.3-2.7-1-3.4s-1.8-1.1-3.4-1.1c-2.1,0-3.6,0.9-4.6,2.6v19.4h-7.3V47.1H324.8z"/>
	<path class="st0" d="M362.6,54c-1-0.1-1.9-0.2-2.6-0.2c-2.8,0-4.6,0.9-5.5,2.8v18h-7.3V47.1h6.9l0.2,3.3c1.5-2.5,3.5-3.8,6.1-3.8
		c0.8,0,1.6,0.1,2.3,0.3L362.6,54z"/>
	<path class="st0" d="M364,60.6c0-2.7,0.5-5.2,1.6-7.3s2.6-3.8,4.5-5s4.3-1.8,6.9-1.8c3.7,0,6.7,1.1,9.1,3.4s3.7,5.3,3.9,9.2
		l0.1,1.9c0,4.2-1.2,7.6-3.5,10.1s-5.5,3.8-9.5,3.8s-7.1-1.3-9.5-3.8s-3.5-6-3.5-10.4V60.6z M371.4,61.1c0,2.6,0.5,4.6,1.5,6
		s2.4,2.1,4.2,2.1c1.8,0,3.2-0.7,4.2-2c1-1.4,1.5-3.5,1.5-6.5c0-2.6-0.5-4.5-1.5-6c-1-1.4-2.4-2.1-4.2-2.1c-1.8,0-3.2,0.7-4.2,2.1
		C371.9,56,371.4,58.1,371.4,61.1z"/>
	<path class="st0" d="M402.3,74.6H395v-39h7.4V74.6z"/>
	<path class="st0" d="M416.1,74.6h-7.4v-39h7.4V74.6z"/>
	<path class="st0" d="M443.9,40.3v6.8h4.7v5.4h-4.7v13.7c0,1,0.2,1.7,0.6,2.2s1.1,0.7,2.2,0.7c0.8,0,1.5-0.1,2.2-0.2v5.6
		c-1.4,0.4-2.9,0.7-4.4,0.7c-5.1,0-7.8-2.6-7.9-7.8V52.5h-4v-5.4h4v-6.8H443.9z"/>
	<path class="st0" d="M450.8,60.6c0-2.7,0.5-5.2,1.6-7.3s2.6-3.8,4.5-5s4.3-1.8,6.9-1.8c3.7,0,6.7,1.1,9.1,3.4s3.7,5.3,3.9,9.2
		l0.1,1.9c0,4.2-1.2,7.6-3.5,10.1s-5.5,3.8-9.5,3.8s-7.1-1.3-9.5-3.8s-3.5-6-3.5-10.4V60.6z M458.1,61.1c0,2.6,0.5,4.6,1.5,6
		s2.4,2.1,4.2,2.1c1.8,0,3.2-0.7,4.2-2c1-1.4,1.5-3.5,1.5-6.5c0-2.6-0.5-4.5-1.5-6c-1-1.4-2.4-2.1-4.2-2.1c-1.8,0-3.2,0.7-4.2,2.1
		C458.6,56,458.1,58.1,458.1,61.1z"/>
	<path class="st0" d="M480.2,60.6c0-4.3,1-7.7,2.9-10.2s4.5-3.8,7.9-3.8c2.7,0,4.9,1,6.6,3v-14h7.4v39h-6.6l-0.4-2.9
		c-1.8,2.3-4.2,3.4-7.1,3.4c-3.2,0-5.8-1.3-7.8-3.8S480.2,65.1,480.2,60.6z M487.5,61.2c0,2.6,0.4,4.6,1.3,5.9
		c0.9,1.4,2.2,2.1,3.9,2.1c2.3,0,3.9-1,4.8-2.9V55.4c-0.9-1.9-2.5-2.9-4.7-2.9C489.3,52.5,487.5,55.4,487.5,61.2z"/>
	<path class="st0" d="M526.5,74.6c-0.3-0.7-0.6-1.5-0.7-2.5c-1.8,2-4.1,3-6.9,3c-2.7,0-4.9-0.8-6.7-2.3c-1.8-1.6-2.7-3.5-2.7-5.9
		c0-2.9,1.1-5.1,3.2-6.7s5.3-2.3,9.4-2.4h3.4v-1.6c0-1.3-0.3-2.3-1-3c-0.7-0.8-1.7-1.1-3.1-1.1c-1.2,0-2.2,0.3-2.9,0.9
		c-0.7,0.6-1.1,1.4-1.1,2.4h-7.3c0-1.6,0.5-3.1,1.5-4.4c1-1.4,2.4-2.4,4.2-3.2c1.8-0.8,3.8-1.2,6-1.2c3.4,0,6.1,0.9,8.1,2.6
		c2,1.7,3,4.1,3,7.2v11.9c0,2.6,0.4,4.6,1.1,5.9v0.4H526.5z M520.5,69.4c1.1,0,2.1-0.2,3-0.7s1.6-1.1,2-1.9v-4.7h-2.7
		c-3.7,0-5.6,1.3-5.9,3.8l0,0.4c0,0.9,0.3,1.7,1,2.3C518.5,69.2,519.4,69.4,520.5,69.4z"/>
	<path class="st0" d="M548.8,64.2l5.1-17.1h7.9l-11,31.7l-0.6,1.4c-1.6,3.6-4.4,5.4-8.1,5.4c-1.1,0-2.2-0.2-3.2-0.5v-5.6l1.1,0
		c1.4,0,2.4-0.2,3.1-0.6s1.2-1.1,1.6-2.1l0.9-2.3l-9.6-27.5h7.9L548.8,64.2z"/>
	<path class="st0" d="M576.4,60.6c0-2.7,0.5-5.2,1.6-7.3c1-2.1,2.6-3.8,4.5-5c2-1.2,4.3-1.8,6.9-1.8c3.7,0,6.7,1.1,9.1,3.4
		c2.3,2.3,3.7,5.3,3.9,9.2l0.1,1.9c0,4.2-1.2,7.6-3.5,10.1c-2.4,2.5-5.5,3.8-9.5,3.8s-7.1-1.3-9.5-3.8s-3.5-6-3.5-10.4V60.6z
		 M583.7,61.1c0,2.6,0.5,4.6,1.5,6c1,1.4,2.4,2.1,4.2,2.1c1.8,0,3.2-0.7,4.2-2c1-1.4,1.5-3.5,1.5-6.5c0-2.6-0.5-4.5-1.5-6
		c-1-1.4-2.4-2.1-4.2-2.1c-1.8,0-3.2,0.7-4.2,2.1C584.2,56,583.7,58.1,583.7,61.1z"/>
	<path class="st0" d="M613.7,47.1l0.2,3.2c2-2.5,4.6-3.7,7.9-3.7c2.9,0,5.1,0.9,6.5,2.6s2.1,4.3,2.2,7.7v17.7h-7.3V57
		c0-1.6-0.3-2.7-1-3.4c-0.7-0.7-1.8-1.1-3.4-1.1c-2.1,0-3.6,0.9-4.6,2.6v19.4h-7.3V47.1H613.7z"/>
	<path class="st0" d="M317.1,103.8h-11.3v30.8h-7.6v-30.8H287v-6.2h30.1V103.8z"/>
	<path class="st0" d="M328.1,110.1c1.9-2.3,4.4-3.5,7.3-3.5c6,0,9,3.5,9.1,10.4v17.6h-7.3v-17.4c0-1.6-0.3-2.7-1-3.5
		s-1.8-1.1-3.4-1.1c-2.1,0-3.7,0.8-4.7,2.5v19.5h-7.3v-39h7.3V110.1z"/>
	<path class="st0" d="M362.7,135.1c-4,0-7.3-1.2-9.8-3.7s-3.8-5.8-3.8-9.9v-0.7c0-2.8,0.5-5.2,1.6-7.4s2.6-3.9,4.5-5
		s4.2-1.8,6.7-1.8c3.8,0,6.7,1.2,8.9,3.6s3.2,5.7,3.2,10.1v3h-17.5c0.2,1.8,1,3.2,2.1,4.3s2.7,1.6,4.5,1.6c2.8,0,5-1,6.6-3.1l3.6,4
		c-1.1,1.6-2.6,2.8-4.5,3.6S365,135.1,362.7,135.1z M361.8,112.5c-1.5,0-2.6,0.5-3.5,1.5s-1.5,2.4-1.7,4.2h10.2v-0.6
		c0-1.6-0.5-2.9-1.3-3.8S363.4,112.5,361.8,112.5z"/>
	<path class="st0" d="M399.2,121.5v13h-7.6v-37H406c2.8,0,5.2,0.5,7.3,1.5s3.7,2.5,4.9,4.3s1.7,4,1.7,6.4c0,3.6-1.2,6.5-3.7,8.6
		s-5.9,3.1-10.3,3.1H399.2z M399.2,115.4h6.8c2,0,3.6-0.5,4.6-1.4s1.6-2.3,1.6-4.1c0-1.8-0.5-3.3-1.6-4.4s-2.5-1.7-4.4-1.7h-7V115.4
		z"/>
	<path class="st0" d="M440.1,114c-1-0.1-1.9-0.2-2.6-0.2c-2.8,0-4.6,0.9-5.5,2.8v18h-7.3v-27.5h6.9l0.2,3.3c1.5-2.5,3.5-3.8,6.1-3.8
		c0.8,0,1.6,0.1,2.3,0.3L440.1,114z"/>
	<path class="st0" d="M443.5,100c0-1.1,0.4-2,1.1-2.7s1.7-1.1,3-1.1c1.3,0,2.3,0.4,3,1.1s1.1,1.6,1.1,2.7c0,1.1-0.4,2-1.1,2.7
		s-1.7,1.1-3,1.1s-2.2-0.4-3-1.1S443.5,101.1,443.5,100z M451.3,134.6H444v-27.5h7.4V134.6z"/>
	<path class="st0" d="M467.7,125.6l5.1-18.5h7.7l-9.3,27.5h-7l-9.3-27.5h7.7L467.7,125.6z"/>
	<path class="st0" d="M499.2,134.6c-0.3-0.7-0.6-1.5-0.7-2.5c-1.8,2-4.1,3-6.9,3c-2.7,0-4.9-0.8-6.7-2.3c-1.8-1.6-2.7-3.5-2.7-5.9
		c0-2.9,1.1-5.1,3.2-6.7c2.2-1.6,5.3-2.3,9.4-2.4h3.4v-1.6c0-1.3-0.3-2.3-1-3c-0.7-0.8-1.7-1.1-3.1-1.1c-1.2,0-2.2,0.3-2.9,0.9
		c-0.7,0.6-1.1,1.4-1.1,2.4h-7.3c0-1.6,0.5-3.1,1.5-4.4s2.4-2.4,4.2-3.2c1.8-0.8,3.8-1.2,6-1.2c3.4,0,6.1,0.9,8.1,2.6
		c2,1.7,3,4.1,3,7.2v11.9c0,2.6,0.4,4.6,1.1,5.9v0.4H499.2z M493.1,129.4c1.1,0,2.1-0.2,3-0.7s1.6-1.1,2-1.9v-4.7h-2.7
		c-3.7,0-5.6,1.3-5.9,3.8l0,0.4c0,0.9,0.3,1.7,1,2.3C491.1,129.2,492,129.4,493.1,129.4z"/>
	<path class="st0" d="M522.6,129.1c1.4,0,2.5-0.4,3.3-1.1c0.8-0.7,1.3-1.7,1.3-3h6.9c0,1.9-0.5,3.6-1.5,5.1c-1,1.5-2.4,2.8-4.1,3.6
		c-1.7,0.9-3.7,1.3-5.8,1.3c-3.9,0-7-1.2-9.3-3.7c-2.3-2.5-3.4-5.9-3.4-10.3v-0.5c0-4.2,1.1-7.6,3.4-10.1c2.2-2.5,5.3-3.8,9.3-3.8
		c3.4,0,6.2,1,8.3,2.9c2.1,2,3.1,4.6,3.2,7.8h-6.9c0-1.4-0.5-2.6-1.3-3.5c-0.8-0.9-2-1.3-3.4-1.3c-1.7,0-3,0.6-3.9,1.9
		c-0.9,1.2-1.3,3.3-1.3,6.1v0.8c0,2.8,0.4,4.9,1.3,6.1C519.5,128.5,520.8,129.1,522.6,129.1z"/>
	<path class="st0" d="M548.5,124.2l5.1-17.1h7.9l-11,31.7l-0.6,1.4c-1.6,3.6-4.4,5.4-8.1,5.4c-1.1,0-2.2-0.2-3.2-0.5v-5.6l1.1,0
		c1.4,0,2.4-0.2,3.1-0.6s1.2-1.1,1.6-2.1l0.9-2.3l-9.6-27.5h7.9L548.5,124.2z"/>
	<path class="st0" d="M594.1,129.9c-1.4,1.6-3.3,2.9-5.8,3.8c-2.5,0.9-5.3,1.4-8.3,1.4c-3.2,0-6-0.7-8.4-2.1s-4.3-3.4-5.6-6.1
		c-1.3-2.7-2-5.8-2-9.4V115c0-3.7,0.6-6.9,1.9-9.6s3-4.8,5.4-6.2c2.3-1.4,5.1-2.1,8.2-2.1c4.4,0,7.8,1,10.3,3.1
		c2.5,2.1,3.9,5.1,4.4,9.1h-7.4c-0.3-2.1-1.1-3.7-2.2-4.6c-1.2-1-2.8-1.5-4.8-1.5c-2.6,0-4.6,1-5.9,2.9c-1.4,1.9-2,4.8-2.1,8.7v2.4
		c0,3.9,0.7,6.8,2.2,8.8s3.6,3,6.5,3c2.9,0,4.9-0.6,6.1-1.8v-6.4h-6.9v-5.6h14.5V129.9z"/>
	<path class="st0" d="M616.2,131.8c-1.8,2.2-4.3,3.3-7.5,3.3c-2.9,0-5.2-0.8-6.7-2.5s-2.3-4.2-2.4-7.4v-18h7.3v17.8
		c0,2.9,1.3,4.3,3.9,4.3c2.5,0,4.2-0.9,5.1-2.6v-19.5h7.4v27.5h-6.9L616.2,131.8z"/>
	<path class="st0" d="M644.8,134.6c-0.3-0.7-0.6-1.5-0.7-2.5c-1.8,2-4.1,3-6.9,3c-2.7,0-4.9-0.8-6.7-2.3c-1.8-1.6-2.7-3.5-2.7-5.9
		c0-2.9,1.1-5.1,3.2-6.7s5.3-2.3,9.4-2.4h3.4v-1.6c0-1.3-0.3-2.3-1-3c-0.7-0.8-1.7-1.1-3.1-1.1c-1.2,0-2.2,0.3-2.9,0.9
		c-0.7,0.6-1.1,1.4-1.1,2.4h-7.3c0-1.6,0.5-3.1,1.5-4.4c1-1.4,2.4-2.4,4.2-3.2c1.8-0.8,3.8-1.2,6-1.2c3.4,0,6.1,0.9,8.1,2.6
		c2,1.7,3,4.1,3,7.2v11.9c0,2.6,0.4,4.6,1.1,5.9v0.4H644.8z M638.7,129.4c1.1,0,2.1-0.2,3-0.7s1.6-1.1,2-1.9v-4.7H641
		c-3.7,0-5.6,1.3-5.9,3.8l0,0.4c0,0.9,0.3,1.7,1,2.3C636.7,129.2,637.6,129.4,638.7,129.4z"/>
	<path class="st0" d="M672.2,114c-1-0.1-1.9-0.2-2.6-0.2c-2.8,0-4.6,0.9-5.5,2.8v18h-7.3v-27.5h6.9l0.2,3.3c1.5-2.5,3.5-3.8,6.1-3.8
		c0.8,0,1.6,0.1,2.3,0.3L672.2,114z"/>
	<path class="st0" d="M674.6,120.6c0-4.3,1-7.7,2.9-10.2c1.9-2.5,4.5-3.8,7.9-3.8c2.7,0,4.9,1,6.6,3v-14h7.4v39h-6.6l-0.4-2.9
		c-1.8,2.3-4.2,3.4-7.1,3.4c-3.2,0-5.8-1.3-7.8-3.8S674.6,125.1,674.6,120.6z M681.9,121.2c0,2.6,0.4,4.6,1.3,5.9
		c0.9,1.4,2.2,2.1,3.9,2.1c2.3,0,3.9-1,4.8-2.9v-10.9c-0.9-1.9-2.5-2.9-4.7-2.9C683.7,112.5,681.9,115.4,681.9,121.2z"/>
	<path class="st0" d="M739.3,126.9H726l-2.5,7.6h-8.1l13.8-37h7.1l13.8,37h-8.1L739.3,126.9z M728,120.8h9.2l-4.6-13.8L728,120.8z"
		/>
	<path class="st0" d="M777.7,121.1c0,4.2-1,7.6-2.9,10.2c-1.9,2.5-4.5,3.8-7.8,3.8c-2.8,0-5-1-6.7-2.9v12.9H753v-38h6.8l0.3,2.7
		c1.8-2.1,4.1-3.2,7-3.2c3.4,0,6,1.3,7.9,3.8s2.8,6,2.8,10.4V121.1z M770.4,120.5c0-2.6-0.5-4.5-1.4-5.9c-0.9-1.4-2.2-2.1-3.9-2.1
		c-2.3,0-3.9,0.9-4.7,2.6v11.2c0.9,1.8,2.5,2.7,4.8,2.7C768.6,129.1,770.4,126.3,770.4,120.5z"/>
	<path class="st0" d="M807,121.1c0,4.2-1,7.6-2.9,10.2c-1.9,2.5-4.5,3.8-7.8,3.8c-2.8,0-5-1-6.7-2.9v12.9h-7.3v-38h6.8l0.3,2.7
		c1.8-2.1,4.1-3.2,7-3.2c3.4,0,6,1.3,7.9,3.8s2.8,6,2.8,10.4V121.1z M799.6,120.5c0-2.6-0.5-4.5-1.4-5.9c-0.9-1.4-2.2-2.1-3.9-2.1
		c-2.3,0-3.9,0.9-4.7,2.6v11.2c0.9,1.8,2.5,2.7,4.8,2.7C797.9,129.1,799.6,126.3,799.6,120.5z"/>
	<path class="st0" d="M811.9,130.9c0-1.2,0.4-2.1,1.2-2.8s1.8-1.1,3-1.1c1.2,0,2.2,0.4,3,1.1s1.2,1.7,1.2,2.8c0,1.2-0.4,2.1-1.2,2.8
		c-0.8,0.7-1.8,1.1-3,1.1c-1.2,0-2.2-0.4-3-1.1C812.3,133,811.9,132.1,811.9,130.9z"/>
</g>
<linearGradient id="underline_00000103262212552546250630000010546719817482762422_" gradientUnits="userSpaceOnUse" x1="222.8317" y1="1017.8256" x2="340.8655" y2="1017.8256" gradientTransform="matrix(0 1 -1 0 1282.6865 -194.188)">
	<stop  offset="0" style="stop-color:#18B9FB"/>
	<stop  offset="0.5" style="stop-color:#782EEB"/>
	<stop  offset="1" style="stop-color:#E82D8A"/>
</linearGradient>
<line id="underline_8_" style="fill:none;stroke:url(#underline_00000103262212552546250630000010546719817482762422_);stroke-width:5;stroke-linecap:round;stroke-miterlimit:10;" x1="264.9" y1="31.1" x2="264.9" y2="144.2"/>
</svg>
