<?xml version="1.0" encoding="utf-8"?>
<!-- Generator: Adobe Illustrator 26.0.3, SVG Export Plug-In . SVG Version: 6.00 Build 0)  -->
<svg version="1.1" id="Layer_1" xmlns="http://www.w3.org/2000/svg" xmlns:xlink="http://www.w3.org/1999/xlink" x="0px" y="0px"
	 viewBox="0 0 970 250" style="enable-background:new 0 0 970 250;" xml:space="preserve">
<style type="text/css">
	.st0{fill:#E82D8A;stroke:#FFFFFF;stroke-width:0.75;stroke-miterlimit:10;}
	.st1{fill:#FFFFFF;}
</style>
<path class="st0" d="M497.9,218.6H307.7c-11.4,0-20.7-9.3-20.7-20.7v0c0-11.4,9.3-20.7,20.7-20.7h190.3c11.4,0,20.7,9.3,20.7,20.7v0
	C518.6,209.4,509.3,218.6,497.9,218.6z"/>
<g>
	<path class="st1" d="M321,200.9c-0.1,1.7-0.8,3-1.9,4c-1.1,1-2.6,1.5-4.5,1.5c-2,0-3.6-0.7-4.8-2c-1.2-1.4-1.7-3.2-1.7-5.6v-1
		c0-1.5,0.3-2.9,0.8-4c0.5-1.2,1.3-2,2.3-2.7s2.2-0.9,3.5-0.9c1.8,0,3.3,0.5,4.4,1.5c1.1,1,1.8,2.3,1.9,4.1h-3.3
		c-0.1-1-0.4-1.8-0.9-2.2c-0.5-0.5-1.2-0.7-2.2-0.7c-1.1,0-1.9,0.4-2.4,1.2c-0.5,0.8-0.8,2-0.8,3.6v1.2c0,1.7,0.3,3,0.8,3.7
		s1.3,1.2,2.4,1.2c1,0,1.8-0.2,2.3-0.7s0.8-1.2,0.9-2.1H321z"/>
	<path class="st1" d="M326.3,206.2h-3.1v-16.7h3.1V206.2z"/>
	<path class="st1" d="M328.8,191.4c0-0.5,0.2-0.9,0.5-1.2c0.3-0.3,0.7-0.5,1.3-0.5c0.5,0,1,0.2,1.3,0.5c0.3,0.3,0.5,0.7,0.5,1.2
		c0,0.5-0.2,0.9-0.5,1.2c-0.3,0.3-0.7,0.5-1.3,0.5s-1-0.2-1.3-0.5C329,192.3,328.8,191.9,328.8,191.4z M332.2,206.2H329v-11.7h3.1
		V206.2z"/>
	<path class="st1" d="M339.6,203.9c0.6,0,1-0.2,1.4-0.5c0.4-0.3,0.5-0.7,0.6-1.3h2.9c0,0.8-0.2,1.5-0.7,2.2c-0.4,0.7-1,1.2-1.8,1.5
		s-1.6,0.5-2.5,0.5c-1.7,0-3-0.5-4-1.6c-1-1.1-1.5-2.5-1.5-4.4v-0.2c0-1.8,0.5-3.3,1.4-4.3c1-1.1,2.3-1.6,4-1.6
		c1.5,0,2.6,0.4,3.5,1.3c0.9,0.8,1.3,1.9,1.4,3.3h-2.9c0-0.6-0.2-1.1-0.6-1.5c-0.4-0.4-0.8-0.6-1.4-0.6c-0.7,0-1.3,0.3-1.7,0.8
		c-0.4,0.5-0.6,1.4-0.6,2.6v0.3c0,1.2,0.2,2.1,0.6,2.6C338.3,203.6,338.9,203.9,339.6,203.9z"/>
	<path class="st1" d="M350.6,201.5l-1.1,1.1v3.6h-3.1v-16.7h3.1v9.2l0.6-0.8l3-3.5h3.8l-4.2,4.9l4.6,6.9h-3.6L350.6,201.5z"/>
	<path class="st1" d="M367.5,191.6v2.9h2v2.3h-2v5.9c0,0.4,0.1,0.7,0.2,0.9c0.2,0.2,0.5,0.3,1,0.3c0.3,0,0.7,0,0.9-0.1v2.4
		c-0.6,0.2-1.2,0.3-1.9,0.3c-2.2,0-3.3-1.1-3.4-3.3v-6.3h-1.7v-2.3h1.7v-2.9H367.5z"/>
	<path class="st1" d="M370.4,200.2c0-1.2,0.2-2.2,0.7-3.1c0.4-0.9,1.1-1.6,1.9-2.1c0.8-0.5,1.8-0.7,2.9-0.7c1.6,0,2.9,0.5,3.9,1.5
		c1,1,1.6,2.3,1.7,4l0,0.8c0,1.8-0.5,3.2-1.5,4.3c-1,1.1-2.4,1.6-4,1.6c-1.7,0-3-0.5-4.1-1.6c-1-1.1-1.5-2.6-1.5-4.4V200.2z
		 M373.6,200.5c0,1.1,0.2,2,0.6,2.6s1,0.9,1.8,0.9c0.8,0,1.4-0.3,1.8-0.9c0.4-0.6,0.6-1.5,0.6-2.8c0-1.1-0.2-1.9-0.6-2.5
		c-0.4-0.6-1-0.9-1.8-0.9c-0.8,0-1.4,0.3-1.8,0.9S373.6,199.2,373.6,200.5z"/>
	<path class="st1" d="M392.4,206.2h-3.1v-16.7h3.1V206.2z"/>
	<path class="st1" d="M400.3,206.4c-1.7,0-3.1-0.5-4.2-1.6s-1.6-2.5-1.6-4.2v-0.3c0-1.2,0.2-2.2,0.7-3.2s1.1-1.6,1.9-2.1
		s1.8-0.8,2.9-0.8c1.6,0,2.9,0.5,3.8,1.5c0.9,1,1.4,2.4,1.4,4.3v1.3h-7.5c0.1,0.8,0.4,1.4,0.9,1.8c0.5,0.5,1.2,0.7,1.9,0.7
		c1.2,0,2.2-0.4,2.8-1.3l1.5,1.7c-0.5,0.7-1.1,1.2-1.9,1.6C402.2,206.2,401.3,206.4,400.3,206.4z M400,196.8c-0.6,0-1.1,0.2-1.5,0.6
		c-0.4,0.4-0.6,1-0.7,1.8h4.4V199c0-0.7-0.2-1.2-0.6-1.6C401.2,197,400.7,196.8,400,196.8z"/>
	<path class="st1" d="M413.8,206.2c-0.1-0.3-0.2-0.6-0.3-1.1c-0.8,0.8-1.7,1.3-3,1.3c-1.2,0-2.1-0.3-2.9-1c-0.8-0.7-1.1-1.5-1.1-2.5
		c0-1.2,0.5-2.2,1.4-2.9s2.3-1,4-1h1.4v-0.7c0-0.5-0.1-1-0.4-1.3c-0.3-0.3-0.7-0.5-1.3-0.5c-0.5,0-0.9,0.1-1.2,0.4
		c-0.3,0.3-0.5,0.6-0.5,1h-3.1c0-0.7,0.2-1.3,0.6-1.9c0.4-0.6,1-1,1.8-1.4c0.8-0.3,1.6-0.5,2.6-0.5c1.4,0,2.6,0.4,3.4,1.1
		c0.9,0.7,1.3,1.8,1.3,3.1v5.1c0,1.1,0.2,2,0.5,2.5v0.2H413.8z M411.2,204c0.5,0,0.9-0.1,1.3-0.3c0.4-0.2,0.7-0.5,0.9-0.8v-2h-1.2
		c-1.6,0-2.4,0.5-2.5,1.6l0,0.2c0,0.4,0.1,0.7,0.4,1C410.3,203.9,410.7,204,411.2,204z"/>
	<path class="st1" d="M425.5,197.4c-0.4-0.1-0.8-0.1-1.1-0.1c-1.2,0-2,0.4-2.3,1.2v7.7h-3.1v-11.7h3l0.1,1.4
		c0.6-1.1,1.5-1.6,2.6-1.6c0.3,0,0.7,0,1,0.1L425.5,197.4z"/>
	<path class="st1" d="M429.9,194.5l0.1,1.4c0.8-1,2-1.6,3.4-1.6c1.2,0,2.2,0.4,2.8,1.1c0.6,0.7,0.9,1.8,0.9,3.3v7.6h-3.1v-7.5
		c0-0.7-0.1-1.1-0.4-1.4c-0.3-0.3-0.8-0.5-1.4-0.5c-0.9,0-1.5,0.4-2,1.1v8.3h-3.1v-11.7H429.9z"/>
	<path class="st1" d="M447.9,194.5l0.1,1.3c0.8-1,2-1.5,3.4-1.5c1.5,0,2.6,0.6,3.1,1.8c0.8-1.2,2-1.8,3.5-1.8c1.3,0,2.2,0.4,2.8,1.1
		c0.6,0.7,0.9,1.9,0.9,3.3v7.5h-3.1v-7.5c0-0.7-0.1-1.2-0.4-1.5s-0.7-0.5-1.4-0.5c-0.9,0-1.6,0.4-2,1.3l0,8.1h-3.1v-7.5
		c0-0.7-0.1-1.2-0.4-1.5c-0.3-0.3-0.7-0.5-1.4-0.5c-0.9,0-1.5,0.4-1.9,1.1v8.3H445v-11.7H447.9z"/>
	<path class="st1" d="M463.7,200.2c0-1.2,0.2-2.2,0.7-3.1c0.4-0.9,1.1-1.6,1.9-2.1c0.8-0.5,1.8-0.7,2.9-0.7c1.6,0,2.9,0.5,3.9,1.5
		c1,1,1.6,2.3,1.7,4l0,0.8c0,1.8-0.5,3.2-1.5,4.3c-1,1.1-2.4,1.6-4,1.6c-1.7,0-3-0.5-4.1-1.6c-1-1.1-1.5-2.6-1.5-4.4V200.2z
		 M466.9,200.5c0,1.1,0.2,2,0.6,2.6s1,0.9,1.8,0.9c0.8,0,1.4-0.3,1.8-0.9c0.4-0.6,0.6-1.5,0.6-2.8c0-1.1-0.2-1.9-0.6-2.5
		c-0.4-0.6-1-0.9-1.8-0.9c-0.8,0-1.4,0.3-1.8,0.9S466.9,199.2,466.9,200.5z"/>
	<path class="st1" d="M483.4,197.4c-0.4-0.1-0.8-0.1-1.1-0.1c-1.2,0-2,0.4-2.3,1.2v7.7h-3.1v-11.7h3l0.1,1.4
		c0.6-1.1,1.5-1.6,2.6-1.6c0.3,0,0.7,0,1,0.1L483.4,197.4z"/>
	<path class="st1" d="M490.3,206.4c-1.7,0-3.1-0.5-4.2-1.6s-1.6-2.5-1.6-4.2v-0.3c0-1.2,0.2-2.2,0.7-3.2s1.1-1.6,1.9-2.1
		s1.8-0.8,2.9-0.8c1.6,0,2.9,0.5,3.8,1.5c0.9,1,1.4,2.4,1.4,4.3v1.3h-7.5c0.1,0.8,0.4,1.4,0.9,1.8c0.5,0.5,1.2,0.7,1.9,0.7
		c1.2,0,2.2-0.4,2.8-1.3l1.5,1.7c-0.5,0.7-1.1,1.2-1.9,1.6C492.2,206.2,491.3,206.4,490.3,206.4z M490,196.8c-0.6,0-1.1,0.2-1.5,0.6
		c-0.4,0.4-0.6,1-0.7,1.8h4.4V199c0-0.7-0.2-1.2-0.6-1.6C491.1,197,490.6,196.8,490,196.8z"/>
</g>
</svg>
