<?xml version="1.0" encoding="utf-8"?>
<!-- Generator: Adobe Illustrator 26.0.3, SVG Export Plug-In . SVG Version: 6.00 Build 0)  -->
<svg version="1.1" id="Layer_1" xmlns="http://www.w3.org/2000/svg" xmlns:xlink="http://www.w3.org/1999/xlink" x="0px" y="0px"
	 viewBox="0 0 970 250" style="enable-background:new 0 0 970 250;" xml:space="preserve">
<style type="text/css">
	.st0{fill:#EDF4FD;}
</style>
<g>
	<path class="st0" d="M546.1,192.4c0-0.3-0.1-0.6-0.3-0.8s-0.6-0.4-1.1-0.6s-0.9-0.3-1.1-0.5c-0.9-0.5-1.4-1.2-1.4-2.2
		c0-0.6,0.2-1.2,0.6-1.6s0.9-0.7,1.6-0.7v-1.3h0.9v1.3c0.7,0.1,1.2,0.4,1.6,0.9s0.6,1.1,0.6,1.9H546c0-0.5-0.1-0.9-0.3-1.2
		s-0.5-0.4-0.9-0.4c-0.4,0-0.7,0.1-0.9,0.3s-0.3,0.5-0.3,0.9c0,0.3,0.1,0.6,0.3,0.8s0.6,0.4,1.1,0.6s0.9,0.4,1.2,0.5
		s0.5,0.3,0.7,0.5s0.3,0.4,0.5,0.7s0.2,0.6,0.2,0.9c0,0.7-0.2,1.2-0.6,1.6s-1,0.7-1.7,0.7v1.1h-0.9v-1.1c-0.8-0.1-1.4-0.4-1.8-0.8
		s-0.6-1.1-0.6-1.9h1.4c0,0.5,0.1,0.9,0.4,1.1s0.6,0.4,1.1,0.4c0.4,0,0.8-0.1,1-0.3S546.1,192.8,546.1,192.4z"/>
	<path class="st0" d="M552.6,194.6h-1.4v-6.9l-2.1,0.7v-1.2l3.3-1.2h0.2V194.6z"/>
	<path class="st0" d="M560.4,186.7v1.5h1.1v1.1h-1.1v3.5c0,0.2,0,0.4,0.1,0.5s0.3,0.2,0.5,0.2c0.2,0,0.3,0,0.5-0.1v1.1
		c-0.3,0.1-0.6,0.1-0.9,0.1c-1.1,0-1.6-0.6-1.6-1.8v-3.6h-1v-1.1h1v-1.5H560.4z"/>
	<path class="st0" d="M565.9,189.6c-0.2,0-0.4,0-0.6,0c-0.7,0-1.1,0.2-1.3,0.8v4.3h-1.4v-6.3h1.4l0,0.7c0.3-0.6,0.8-0.8,1.4-0.8
		c0.2,0,0.4,0,0.5,0.1L565.9,189.6z"/>
	<path class="st0" d="M566.8,186.6c0-0.2,0.1-0.4,0.2-0.5s0.3-0.2,0.6-0.2s0.5,0.1,0.6,0.2s0.2,0.3,0.2,0.5c0,0.2-0.1,0.4-0.2,0.5
		s-0.3,0.2-0.6,0.2s-0.5-0.1-0.6-0.2S566.8,186.9,566.8,186.6z M568.3,194.6h-1.4v-6.3h1.4V194.6z"/>
	<path class="st0" d="M573.7,194.6c-0.1-0.1-0.1-0.3-0.2-0.6c-0.5,0.5-1,0.7-1.7,0.7c-0.6,0-1.2-0.2-1.6-0.5s-0.6-0.8-0.6-1.3
		c0-0.7,0.3-1.2,0.8-1.6s1.2-0.5,2.2-0.5h0.9v-0.4c0-0.3-0.1-0.6-0.3-0.8s-0.5-0.3-0.8-0.3c-0.3,0-0.6,0.1-0.8,0.2s-0.3,0.4-0.3,0.6
		h-1.4c0-0.3,0.1-0.7,0.3-1s0.5-0.5,0.9-0.7s0.8-0.3,1.3-0.3c0.7,0,1.3,0.2,1.8,0.6s0.7,0.9,0.7,1.6v2.9c0,0.6,0.1,1,0.2,1.4v0.1
		H573.7z M572.1,193.6c0.3,0,0.5-0.1,0.8-0.2s0.4-0.3,0.6-0.6v-1.2h-0.8c-0.5,0-0.9,0.1-1.2,0.3s-0.4,0.4-0.4,0.8
		c0,0.3,0.1,0.5,0.3,0.7S571.8,193.6,572.1,193.6z"/>
	<path class="st0" d="M577.9,194.6h-1.4v-9h1.4V194.6z"/>
	<path class="st0" d="M582.9,194.6v-5.3h-1v-1.1h1v-0.6c0-0.7,0.2-1.2,0.6-1.6s0.9-0.6,1.6-0.6c0.2,0,0.5,0,0.8,0.1l0,1.1
		c-0.2,0-0.3,0-0.5,0c-0.7,0-1,0.3-1,1v0.6h1.3v1.1h-1.3v5.3H582.9z"/>
	<path class="st0" d="M586.4,191.4c0-0.6,0.1-1.2,0.4-1.7s0.6-0.9,1-1.1s1-0.4,1.5-0.4c0.9,0,1.5,0.3,2.1,0.8s0.8,1.3,0.9,2.2l0,0.3
		c0,0.6-0.1,1.2-0.4,1.7s-0.6,0.9-1,1.1s-1,0.4-1.5,0.4c-0.9,0-1.6-0.3-2.1-0.9S586.4,192.5,586.4,191.4L586.4,191.4z M587.9,191.5
		c0,0.7,0.1,1.2,0.4,1.5s0.6,0.6,1.1,0.6s0.9-0.2,1.1-0.6s0.4-0.9,0.4-1.6c0-0.6-0.1-1.1-0.4-1.5s-0.6-0.6-1.1-0.6
		c-0.5,0-0.8,0.2-1.1,0.6S587.9,190.8,587.9,191.5z"/>
	<path class="st0" d="M596.8,189.6c-0.2,0-0.4,0-0.6,0c-0.7,0-1.1,0.2-1.3,0.8v4.3h-1.4v-6.3h1.4l0,0.7c0.3-0.6,0.8-0.8,1.4-0.8
		c0.2,0,0.4,0,0.5,0.1L596.8,189.6z"/>
	<path class="st0" d="M602.5,186.7v1.5h1.1v1.1h-1.1v3.5c0,0.2,0,0.4,0.1,0.5s0.3,0.2,0.5,0.2c0.2,0,0.3,0,0.5-0.1v1.1
		c-0.3,0.1-0.6,0.1-0.9,0.1c-1.1,0-1.6-0.6-1.6-1.8v-3.6h-1v-1.1h1v-1.5H602.5z"/>
	<path class="st0" d="M606.1,189c0.5-0.5,1.1-0.8,1.8-0.8c1.4,0,2,0.8,2.1,2.3v4.1h-1.4v-4.1c0-0.4-0.1-0.7-0.3-0.9
		s-0.5-0.3-0.8-0.3c-0.6,0-1,0.3-1.3,0.8v4.5h-1.4v-9h1.4V189z"/>
	<path class="st0" d="M614.2,194.7c-0.9,0-1.6-0.3-2.2-0.9s-0.8-1.3-0.8-2.3v-0.2c0-0.6,0.1-1.2,0.4-1.7s0.6-0.9,1-1.2
		s0.9-0.4,1.5-0.4c0.9,0,1.5,0.3,2,0.8s0.7,1.3,0.7,2.3v0.6h-4.1c0,0.5,0.2,0.9,0.5,1.2s0.7,0.5,1.2,0.5c0.7,0,1.2-0.3,1.6-0.8
		l0.8,0.7c-0.3,0.4-0.6,0.7-1,0.9S614.7,194.7,614.2,194.7z M614,189.3c-0.4,0-0.7,0.1-0.9,0.4s-0.4,0.7-0.5,1.1h2.7v-0.1
		c0-0.5-0.2-0.8-0.4-1.1S614.4,189.3,614,189.3z"/>
	<path class="st0" d="M621.3,194.6v-5.3h-1v-1.1h1v-0.6c0-0.7,0.2-1.2,0.6-1.6s0.9-0.6,1.6-0.6c0.2,0,0.5,0,0.8,0.1l0,1.1
		c-0.2,0-0.3,0-0.5,0c-0.7,0-1,0.3-1,1v0.6h1.3v1.1h-1.3v5.3H621.3z"/>
	<path class="st0" d="M625.1,186.6c0-0.2,0.1-0.4,0.2-0.5s0.3-0.2,0.6-0.2s0.5,0.1,0.6,0.2s0.2,0.3,0.2,0.5c0,0.2-0.1,0.4-0.2,0.5
		s-0.3,0.2-0.6,0.2s-0.5-0.1-0.6-0.2S625.1,186.9,625.1,186.6z M626.6,194.6h-1.4v-6.3h1.4V194.6z"/>
	<path class="st0" d="M631.5,189.6c-0.2,0-0.4,0-0.6,0c-0.7,0-1.1,0.2-1.3,0.8v4.3h-1.4v-6.3h1.4l0,0.7c0.3-0.6,0.8-0.8,1.4-0.8
		c0.2,0,0.4,0,0.5,0.1L631.5,189.6z"/>
	<path class="st0" d="M635.9,192.9c0-0.3-0.1-0.4-0.3-0.6s-0.6-0.2-1-0.4s-0.9-0.2-1.2-0.4c-0.7-0.3-1.1-0.8-1.1-1.5
		c0-0.5,0.2-1,0.7-1.4s1-0.6,1.8-0.6c0.8,0,1.4,0.2,1.8,0.6s0.7,0.9,0.7,1.5h-1.4c0-0.3-0.1-0.5-0.3-0.7s-0.5-0.3-0.8-0.3
		c-0.3,0-0.6,0.1-0.8,0.2s-0.3,0.3-0.3,0.6c0,0.2,0.1,0.4,0.3,0.5s0.6,0.2,1.1,0.4s1,0.3,1.3,0.4s0.6,0.4,0.7,0.6s0.2,0.5,0.2,0.9
		c0,0.6-0.2,1-0.7,1.4s-1.1,0.5-1.9,0.5c-0.5,0-1-0.1-1.4-0.3s-0.7-0.4-0.9-0.8s-0.3-0.7-0.3-1.1h1.4c0,0.3,0.1,0.6,0.4,0.8
		s0.5,0.3,0.9,0.3c0.4,0,0.7-0.1,0.9-0.2S635.9,193.1,635.9,192.9z"/>
	<path class="st0" d="M640.3,186.7v1.5h1.1v1.1h-1.1v3.5c0,0.2,0,0.4,0.1,0.5s0.3,0.2,0.5,0.2c0.2,0,0.3,0,0.5-0.1v1.1
		c-0.3,0.1-0.6,0.1-0.9,0.1c-1.1,0-1.6-0.6-1.6-1.8v-3.6h-1v-1.1h1v-1.5H640.3z"/>
	<path class="st0" d="M649.3,194.6h-1.4v-6.9l-2.1,0.7v-1.2l3.3-1.2h0.2V194.6z"/>
	<path class="st0" d="M657.1,191.6h1.1v1.1h-1.1v1.9h-1.4v-1.9H652l0-0.9l3.7-5.8h1.5V191.6z M653.4,191.6h2.2V188l-0.1,0.2
		L653.4,191.6z"/>
	<path class="st0" d="M661.9,191.4c0-1,0.2-1.8,0.7-2.4s1.1-0.9,1.8-0.9c0.7,0,1.2,0.2,1.6,0.7v-3.2h1.4v9h-1.3l-0.1-0.7
		c-0.4,0.5-1,0.8-1.7,0.8c-0.7,0-1.3-0.3-1.8-0.9S661.9,192.4,661.9,191.4z M663.3,191.5c0,0.6,0.1,1.1,0.4,1.5s0.6,0.5,1.1,0.5
		c0.6,0,1-0.3,1.3-0.8v-2.7c-0.3-0.5-0.7-0.8-1.3-0.8c-0.5,0-0.8,0.2-1.1,0.5S663.3,190.8,663.3,191.5z"/>
	<path class="st0" d="M672.7,194.6c-0.1-0.1-0.1-0.3-0.2-0.6c-0.5,0.5-1,0.7-1.7,0.7c-0.6,0-1.2-0.2-1.6-0.5s-0.6-0.8-0.6-1.3
		c0-0.7,0.3-1.2,0.8-1.6s1.2-0.5,2.2-0.5h0.9v-0.4c0-0.3-0.1-0.6-0.3-0.8s-0.5-0.3-0.8-0.3c-0.3,0-0.6,0.1-0.8,0.2s-0.3,0.4-0.3,0.6
		h-1.4c0-0.3,0.1-0.7,0.3-1s0.5-0.5,0.9-0.7s0.8-0.3,1.3-0.3c0.7,0,1.3,0.2,1.8,0.6s0.7,0.9,0.7,1.6v2.9c0,0.6,0.1,1,0.2,1.4v0.1
		H672.7z M671.2,193.6c0.3,0,0.5-0.1,0.8-0.2s0.4-0.3,0.6-0.6v-1.2h-0.8c-0.5,0-0.9,0.1-1.2,0.3s-0.4,0.4-0.4,0.8
		c0,0.3,0.1,0.5,0.3,0.7S670.8,193.6,671.2,193.6z"/>
	<path class="st0" d="M677.6,192.6l1.3-4.3h1.5l-2.5,7.3c-0.4,1.1-1,1.6-2,1.6c-0.2,0-0.4,0-0.7-0.1V196l0.3,0
		c0.4,0,0.6-0.1,0.8-0.2s0.3-0.4,0.4-0.7l0.2-0.5l-2.2-6.3h1.5L677.6,192.6z"/>
	<path class="st0" d="M684.8,192.9c0-0.3-0.1-0.4-0.3-0.6s-0.6-0.2-1-0.4s-0.9-0.2-1.2-0.4c-0.7-0.3-1.1-0.8-1.1-1.5
		c0-0.5,0.2-1,0.7-1.4s1-0.6,1.8-0.6c0.8,0,1.4,0.2,1.8,0.6s0.7,0.9,0.7,1.5h-1.4c0-0.3-0.1-0.5-0.3-0.7s-0.5-0.3-0.8-0.3
		c-0.3,0-0.6,0.1-0.8,0.2s-0.3,0.3-0.3,0.6c0,0.2,0.1,0.4,0.3,0.5s0.6,0.2,1.1,0.4s1,0.3,1.3,0.4s0.6,0.4,0.7,0.6s0.2,0.5,0.2,0.9
		c0,0.6-0.2,1-0.7,1.4s-1.1,0.5-1.9,0.5c-0.5,0-1-0.1-1.4-0.3s-0.7-0.4-0.9-0.8s-0.3-0.7-0.3-1.1h1.4c0,0.3,0.1,0.6,0.4,0.8
		s0.5,0.3,0.9,0.3c0.4,0,0.7-0.1,0.9-0.2S684.8,193.1,684.8,192.9z"/>
	<path class="st0" d="M688.3,193.1c0.3,0,0.5,0.1,0.6,0.2s0.2,0.3,0.2,0.6c0,0.2-0.1,0.4-0.2,0.6s-0.3,0.2-0.6,0.2
		c-0.3,0-0.5-0.1-0.6-0.2s-0.2-0.3-0.2-0.6s0.1-0.4,0.2-0.6S688.1,193.1,688.3,193.1z"/>
	<path class="st0" d="M543.6,205.9v3.2h-1.5v-8.5h3.3c1,0,1.7,0.2,2.3,0.7c0.6,0.5,0.8,1.2,0.8,2c0,0.8-0.3,1.5-0.8,2
		c-0.5,0.5-1.3,0.7-2.3,0.7H543.6z M543.6,204.7h1.8c0.5,0,0.9-0.1,1.2-0.4s0.4-0.6,0.4-1.1c0-0.5-0.1-0.8-0.4-1.1s-0.7-0.4-1.2-0.4
		h-1.8V204.7z"/>
	<path class="st0" d="M551.2,209h-1.4v-9h1.4V209z"/>
	<path class="st0" d="M556.5,209c-0.1-0.1-0.1-0.3-0.2-0.6c-0.5,0.5-1,0.7-1.7,0.7c-0.6,0-1.2-0.2-1.6-0.5s-0.6-0.8-0.6-1.3
		c0-0.7,0.3-1.2,0.8-1.6s1.2-0.5,2.2-0.5h0.9v-0.4c0-0.3-0.1-0.6-0.3-0.8s-0.5-0.3-0.8-0.3c-0.3,0-0.6,0.1-0.8,0.2s-0.3,0.4-0.3,0.6
		h-1.4c0-0.3,0.1-0.7,0.3-1s0.5-0.5,0.9-0.7s0.8-0.3,1.3-0.3c0.7,0,1.3,0.2,1.8,0.6s0.7,0.9,0.7,1.6v2.9c0,0.6,0.1,1,0.2,1.4v0.1
		H556.5z M555,208c0.3,0,0.5-0.1,0.8-0.2s0.4-0.3,0.6-0.6v-1.2h-0.8c-0.5,0-0.9,0.1-1.2,0.3s-0.4,0.4-0.4,0.8c0,0.3,0.1,0.5,0.3,0.7
		S554.6,208,555,208z"/>
	<path class="st0" d="M560.5,202.7l0,0.7c0.5-0.6,1.1-0.8,1.8-0.8c1.3,0,2,0.8,2,2.3v4.2H563v-4.1c0-0.4-0.1-0.7-0.3-0.9
		s-0.5-0.3-0.9-0.3c-0.6,0-1,0.3-1.3,0.8v4.5h-1.4v-6.3H560.5z"/>
	<path class="st0" d="M569.5,207.3c0-0.3-0.1-0.4-0.3-0.6s-0.6-0.2-1-0.4s-0.9-0.2-1.2-0.4c-0.7-0.3-1.1-0.8-1.1-1.5
		c0-0.5,0.2-1,0.7-1.4s1-0.6,1.8-0.6c0.8,0,1.4,0.2,1.8,0.6s0.7,0.9,0.7,1.5h-1.4c0-0.3-0.1-0.5-0.3-0.7s-0.5-0.3-0.8-0.3
		c-0.3,0-0.6,0.1-0.8,0.2s-0.3,0.3-0.3,0.6c0,0.2,0.1,0.4,0.3,0.5s0.6,0.2,1.1,0.4s1,0.3,1.3,0.4s0.6,0.4,0.7,0.6s0.2,0.5,0.2,0.9
		c0,0.6-0.2,1-0.7,1.4s-1.1,0.5-1.9,0.5c-0.5,0-1-0.1-1.4-0.3s-0.7-0.4-0.9-0.8s-0.3-0.7-0.3-1.1h1.4c0,0.3,0.1,0.6,0.4,0.8
		s0.5,0.3,0.9,0.3c0.4,0,0.7-0.1,0.9-0.2S569.5,207.5,569.5,207.3z"/>
	<path class="st0" d="M578.6,207.3c0-0.3-0.1-0.4-0.3-0.6s-0.6-0.2-1-0.4s-0.9-0.2-1.2-0.4c-0.7-0.3-1.1-0.8-1.1-1.5
		c0-0.5,0.2-1,0.7-1.4s1-0.6,1.8-0.6c0.8,0,1.4,0.2,1.8,0.6s0.7,0.9,0.7,1.5h-1.4c0-0.3-0.1-0.5-0.3-0.7s-0.5-0.3-0.8-0.3
		c-0.3,0-0.6,0.1-0.8,0.2s-0.3,0.3-0.3,0.6c0,0.2,0.1,0.4,0.3,0.5s0.6,0.2,1.1,0.4s1,0.3,1.3,0.4s0.6,0.4,0.7,0.6s0.2,0.5,0.2,0.9
		c0,0.6-0.2,1-0.7,1.4s-1.1,0.5-1.9,0.5c-0.5,0-1-0.1-1.4-0.3s-0.7-0.4-0.9-0.8s-0.3-0.7-0.3-1.1h1.4c0,0.3,0.1,0.6,0.4,0.8
		s0.5,0.3,0.9,0.3c0.4,0,0.7-0.1,0.9-0.2S578.6,207.5,578.6,207.3z"/>
	<path class="st0" d="M583.1,201.1v1.5h1.1v1.1h-1.1v3.5c0,0.2,0,0.4,0.1,0.5s0.3,0.2,0.5,0.2c0.2,0,0.3,0,0.5-0.1v1.1
		c-0.3,0.1-0.6,0.1-0.9,0.1c-1.1,0-1.6-0.6-1.6-1.8v-3.6h-1v-1.1h1v-1.5H583.1z"/>
	<path class="st0" d="M589,209c-0.1-0.1-0.1-0.3-0.2-0.6c-0.5,0.5-1,0.7-1.7,0.7c-0.6,0-1.2-0.2-1.6-0.5s-0.6-0.8-0.6-1.3
		c0-0.7,0.3-1.2,0.8-1.6s1.2-0.5,2.2-0.5h0.9v-0.4c0-0.3-0.1-0.6-0.3-0.8s-0.5-0.3-0.8-0.3c-0.3,0-0.6,0.1-0.8,0.2s-0.3,0.4-0.3,0.6
		h-1.4c0-0.3,0.1-0.7,0.3-1s0.5-0.5,0.9-0.7s0.8-0.3,1.3-0.3c0.7,0,1.3,0.2,1.8,0.6s0.7,0.9,0.7,1.6v2.9c0,0.6,0.1,1,0.2,1.4v0.1
		H589z M587.5,208c0.3,0,0.5-0.1,0.8-0.2s0.4-0.3,0.6-0.6v-1.2h-0.8c-0.5,0-0.9,0.1-1.2,0.3s-0.4,0.4-0.4,0.8c0,0.3,0.1,0.5,0.3,0.7
		S587.2,208,587.5,208z"/>
	<path class="st0" d="M595.1,204c-0.2,0-0.4,0-0.6,0c-0.7,0-1.1,0.2-1.3,0.8v4.3h-1.4v-6.3h1.4l0,0.7c0.3-0.6,0.8-0.8,1.4-0.8
		c0.2,0,0.4,0,0.5,0.1L595.1,204z"/>
	<path class="st0" d="M598,201.1v1.5h1.1v1.1H598v3.5c0,0.2,0,0.4,0.1,0.5s0.3,0.2,0.5,0.2c0.2,0,0.3,0,0.5-0.1v1.1
		c-0.3,0.1-0.6,0.1-0.9,0.1c-1.1,0-1.6-0.6-1.6-1.8v-3.6h-1v-1.1h1v-1.5H598z"/>
	<path class="st0" d="M600.3,201c0-0.2,0.1-0.4,0.2-0.5s0.3-0.2,0.6-0.2s0.5,0.1,0.6,0.2s0.2,0.3,0.2,0.5c0,0.2-0.1,0.4-0.2,0.5
		s-0.3,0.2-0.6,0.2s-0.5-0.1-0.6-0.2S600.3,201.3,600.3,201z M601.8,209h-1.4v-6.3h1.4V209z"/>
	<path class="st0" d="M604.6,202.7l0,0.7c0.5-0.6,1.1-0.8,1.8-0.8c1.3,0,2,0.8,2,2.3v4.2h-1.4v-4.1c0-0.4-0.1-0.7-0.3-0.9
		s-0.5-0.3-0.9-0.3c-0.6,0-1,0.3-1.3,0.8v4.5h-1.4v-6.3H604.6z"/>
	<path class="st0" d="M609.7,205.8c0-1,0.2-1.8,0.7-2.4s1.1-0.9,1.8-0.9c0.7,0,1.3,0.3,1.7,0.8l0.1-0.6h1.3v6.1c0,0.8-0.3,1.5-0.8,2
		s-1.2,0.7-2.1,0.7c-0.5,0-0.9-0.1-1.4-0.3s-0.8-0.4-1-0.8l0.7-0.9c0.4,0.5,1,0.8,1.6,0.8c0.5,0,0.8-0.1,1.1-0.4s0.4-0.6,0.4-1.1
		v-0.4c-0.4,0.5-1,0.7-1.6,0.7c-0.7,0-1.3-0.3-1.8-0.9S609.7,206.9,609.7,205.8z M611.2,205.9c0,0.6,0.1,1.1,0.4,1.5
		s0.6,0.5,1.1,0.5c0.6,0,1-0.2,1.3-0.7v-2.8c-0.3-0.5-0.7-0.7-1.3-0.7c-0.5,0-0.8,0.2-1.1,0.6S611.2,205.2,611.2,205.9z"/>
	<path class="st0" d="M623.6,209c-0.1-0.1-0.1-0.3-0.2-0.6c-0.5,0.5-1,0.7-1.7,0.7c-0.6,0-1.2-0.2-1.6-0.5s-0.6-0.8-0.6-1.3
		c0-0.7,0.3-1.2,0.8-1.6s1.2-0.5,2.2-0.5h0.9v-0.4c0-0.3-0.1-0.6-0.3-0.8s-0.5-0.3-0.8-0.3c-0.3,0-0.6,0.1-0.8,0.2s-0.3,0.4-0.3,0.6
		h-1.4c0-0.3,0.1-0.7,0.3-1s0.5-0.5,0.9-0.7s0.8-0.3,1.3-0.3c0.7,0,1.3,0.2,1.8,0.6s0.7,0.9,0.7,1.6v2.9c0,0.6,0.1,1,0.2,1.4v0.1
		H623.6z M622,208c0.3,0,0.5-0.1,0.8-0.2s0.4-0.3,0.6-0.6v-1.2h-0.8c-0.5,0-0.9,0.1-1.2,0.3s-0.4,0.4-0.4,0.8c0,0.3,0.1,0.5,0.3,0.7
		S621.7,208,622,208z"/>
	<path class="st0" d="M628.1,201.1v1.5h1.1v1.1h-1.1v3.5c0,0.2,0,0.4,0.1,0.5s0.3,0.2,0.5,0.2c0.2,0,0.3,0,0.5-0.1v1.1
		c-0.3,0.1-0.6,0.1-0.9,0.1c-1.1,0-1.6-0.6-1.6-1.8v-3.6h-1v-1.1h1v-1.5H628.1z"/>
	<path class="st0" d="M637.3,206.8c0-0.3-0.1-0.6-0.3-0.8s-0.6-0.4-1.1-0.6s-0.9-0.3-1.1-0.5c-0.9-0.5-1.4-1.2-1.4-2.2
		c0-0.6,0.2-1.2,0.6-1.6s0.9-0.7,1.6-0.7v-1.3h0.9v1.3c0.7,0.1,1.2,0.4,1.6,0.9s0.6,1.1,0.6,1.9h-1.4c0-0.5-0.1-0.9-0.3-1.2
		s-0.5-0.4-0.9-0.4c-0.4,0-0.7,0.1-0.9,0.3s-0.3,0.5-0.3,0.9c0,0.3,0.1,0.6,0.3,0.8s0.6,0.4,1.1,0.6s0.9,0.4,1.2,0.5
		s0.5,0.3,0.7,0.5s0.3,0.4,0.5,0.7s0.2,0.6,0.2,0.9c0,0.7-0.2,1.2-0.6,1.6s-1,0.7-1.7,0.7v1.1h-0.9v-1.1c-0.8-0.1-1.4-0.4-1.8-0.8
		s-0.6-1.1-0.6-1.9h1.4c0,0.5,0.1,0.9,0.4,1.1s0.6,0.4,1.1,0.4c0.4,0,0.8-0.1,1-0.3S637.3,207.2,637.3,206.8z"/>
	<path class="st0" d="M644,205.5c-0.5,0.5-1,0.8-1.7,0.8c-0.8,0-1.3-0.3-1.8-0.8s-0.7-1.2-0.7-2.1c0-0.6,0.1-1.1,0.3-1.5
		s0.5-0.8,1-1.1s0.9-0.4,1.5-0.4c0.9,0,1.5,0.3,2,1s0.8,1.5,0.8,2.6v0.4c0,1.5-0.3,2.7-1,3.5s-1.7,1.2-3.1,1.2h-0.2v-1.2h0.2
		c0.8,0,1.5-0.2,1.9-0.6S644,206.3,644,205.5z M642.7,205.1c0.3,0,0.6-0.1,0.8-0.2s0.4-0.4,0.6-0.7v-0.6c0-0.6-0.1-1.1-0.4-1.5
		s-0.6-0.6-1-0.6s-0.7,0.2-1,0.5s-0.4,0.8-0.4,1.3c0,0.5,0.1,1,0.4,1.3S642.2,205.1,642.7,205.1z"/>
	<path class="st0" d="M647.8,207.5c0.3,0,0.5,0.1,0.6,0.2s0.2,0.3,0.2,0.6c0,0.2-0.1,0.4-0.2,0.6s-0.3,0.2-0.6,0.2
		c-0.3,0-0.5-0.1-0.6-0.2s-0.2-0.3-0.2-0.6s0.1-0.4,0.2-0.6S647.5,207.5,647.8,207.5z"/>
	<path class="st0" d="M654.2,205.5c-0.5,0.5-1,0.8-1.7,0.8c-0.8,0-1.3-0.3-1.8-0.8s-0.7-1.2-0.7-2.1c0-0.6,0.1-1.1,0.3-1.5
		s0.5-0.8,1-1.1s0.9-0.4,1.5-0.4c0.9,0,1.5,0.3,2,1s0.8,1.5,0.8,2.6v0.4c0,1.5-0.3,2.7-1,3.5s-1.7,1.2-3.1,1.2h-0.2v-1.2h0.2
		c0.8,0,1.5-0.2,1.9-0.6S654.1,206.3,654.2,205.5z M652.8,205.1c0.3,0,0.6-0.1,0.8-0.2s0.4-0.4,0.6-0.7v-0.6c0-0.6-0.1-1.1-0.4-1.5
		s-0.6-0.6-1-0.6s-0.7,0.2-1,0.5s-0.4,0.8-0.4,1.3c0,0.5,0.1,1,0.4,1.3S652.4,205.1,652.8,205.1z"/>
	<path class="st0" d="M661,205.5c-0.5,0.5-1,0.8-1.7,0.8c-0.8,0-1.3-0.3-1.8-0.8s-0.7-1.2-0.7-2.1c0-0.6,0.1-1.1,0.3-1.5
		s0.5-0.8,1-1.1s0.9-0.4,1.5-0.4c0.9,0,1.5,0.3,2,1s0.8,1.5,0.8,2.6v0.4c0,1.5-0.3,2.7-1,3.5s-1.7,1.2-3.1,1.2h-0.2v-1.2h0.2
		c0.8,0,1.5-0.2,1.9-0.6S661,206.3,661,205.5z M659.6,205.1c0.3,0,0.6-0.1,0.8-0.2s0.4-0.4,0.6-0.7v-0.6c0-0.6-0.1-1.1-0.4-1.5
		s-0.6-0.6-1-0.6s-0.7,0.2-1,0.5s-0.4,0.8-0.4,1.3c0,0.5,0.1,1,0.4,1.3S659.2,205.1,659.6,205.1z"/>
	<path class="st0" d="M668.7,201.1v1.5h1.1v1.1h-1.1v3.5c0,0.2,0,0.4,0.1,0.5s0.3,0.2,0.5,0.2c0.2,0,0.3,0,0.5-0.1v1.1
		c-0.3,0.1-0.6,0.1-0.9,0.1c-1.1,0-1.6-0.6-1.6-1.8v-3.6h-1v-1.1h1v-1.5H668.7z"/>
	<path class="st0" d="M670.4,205.8c0-0.6,0.1-1.2,0.4-1.7s0.6-0.9,1-1.1s1-0.4,1.5-0.4c0.9,0,1.5,0.3,2.1,0.8s0.8,1.3,0.9,2.2l0,0.3
		c0,0.6-0.1,1.2-0.4,1.7s-0.6,0.9-1,1.1s-1,0.4-1.5,0.4c-0.9,0-1.6-0.3-2.1-0.9S670.4,206.9,670.4,205.8L670.4,205.8z M671.8,205.9
		c0,0.7,0.1,1.2,0.4,1.5s0.6,0.6,1.1,0.6s0.9-0.2,1.1-0.6s0.4-0.9,0.4-1.6c0-0.6-0.1-1.1-0.4-1.5s-0.6-0.6-1.1-0.6
		c-0.5,0-0.8,0.2-1.1,0.6S671.8,205.2,671.8,205.9z"/>
	<path class="st0" d="M684.6,206.8c0-0.3-0.1-0.6-0.3-0.8s-0.6-0.4-1.1-0.6s-0.9-0.3-1.1-0.5c-0.9-0.5-1.4-1.2-1.4-2.2
		c0-0.6,0.2-1.2,0.6-1.6s0.9-0.7,1.6-0.7v-1.3h0.9v1.3c0.7,0.1,1.2,0.4,1.6,0.9s0.6,1.1,0.6,1.9h-1.4c0-0.5-0.1-0.9-0.3-1.2
		s-0.5-0.4-0.9-0.4c-0.4,0-0.7,0.1-0.9,0.3s-0.3,0.5-0.3,0.9c0,0.3,0.1,0.6,0.3,0.8s0.6,0.4,1.1,0.6s0.9,0.4,1.2,0.5
		s0.5,0.3,0.7,0.5s0.3,0.4,0.5,0.7s0.2,0.6,0.2,0.9c0,0.7-0.2,1.2-0.6,1.6s-1,0.7-1.7,0.7v1.1h-0.9v-1.1c-0.8-0.1-1.4-0.4-1.8-0.8
		s-0.6-1.1-0.6-1.9h1.4c0,0.5,0.1,0.9,0.4,1.1s0.6,0.4,1.1,0.4c0.4,0,0.8-0.1,1-0.3S684.6,207.2,684.6,206.8z"/>
	<path class="st0" d="M693,209h-5.7v-1l2.8-3.1c0.4-0.5,0.7-0.8,0.9-1.1s0.3-0.6,0.3-0.9c0-0.4-0.1-0.7-0.3-1s-0.5-0.4-0.9-0.4
		c-0.5,0-0.8,0.1-1.1,0.4s-0.4,0.7-0.4,1.2h-1.4c0-0.5,0.1-1,0.4-1.4s0.6-0.7,1-1s0.9-0.3,1.5-0.3c0.8,0,1.5,0.2,2,0.6
		s0.7,1,0.7,1.7c0,0.4-0.1,0.9-0.4,1.3s-0.6,1-1.2,1.6l-2.1,2.2h4V209z"/>
	<path class="st0" d="M698.9,206h1.1v1.1h-1.1v1.9h-1.4v-1.9h-3.7l0-0.9l3.7-5.8h1.5V206z M695.2,206h2.2v-3.6l-0.1,0.2L695.2,206z"
		/>
	<path class="st0" d="M701.9,207.5c0.3,0,0.5,0.1,0.6,0.2s0.2,0.3,0.2,0.6c0,0.2-0.1,0.4-0.2,0.6s-0.3,0.2-0.6,0.2
		c-0.3,0-0.5-0.1-0.6-0.2s-0.2-0.3-0.2-0.6s0.1-0.4,0.2-0.6S701.6,207.5,701.9,207.5z"/>
	<path class="st0" d="M708.3,205.5c-0.5,0.5-1,0.8-1.7,0.8c-0.8,0-1.3-0.3-1.8-0.8s-0.7-1.2-0.7-2.1c0-0.6,0.1-1.1,0.3-1.5
		s0.5-0.8,1-1.1s0.9-0.4,1.5-0.4c0.9,0,1.5,0.3,2,1s0.8,1.5,0.8,2.6v0.4c0,1.5-0.3,2.7-1,3.5s-1.7,1.2-3.1,1.2h-0.2v-1.2h0.2
		c0.8,0,1.5-0.2,1.9-0.6S708.2,206.3,708.3,205.5z M706.9,205.1c0.3,0,0.6-0.1,0.8-0.2s0.4-0.4,0.6-0.7v-0.6c0-0.6-0.1-1.1-0.4-1.5
		s-0.6-0.6-1-0.6s-0.7,0.2-1,0.5s-0.4,0.8-0.4,1.3c0,0.5,0.1,1,0.4,1.3S706.5,205.1,706.9,205.1z"/>
	<path class="st0" d="M715.1,205.5c-0.5,0.5-1,0.8-1.7,0.8c-0.8,0-1.3-0.3-1.8-0.8s-0.7-1.2-0.7-2.1c0-0.6,0.1-1.1,0.3-1.5
		s0.5-0.8,1-1.1s0.9-0.4,1.5-0.4c0.9,0,1.5,0.3,2,1s0.8,1.5,0.8,2.6v0.4c0,1.5-0.3,2.7-1,3.5s-1.7,1.2-3.1,1.2h-0.2v-1.2h0.2
		c0.8,0,1.5-0.2,1.9-0.6S715,206.3,715.1,205.5z M713.7,205.1c0.3,0,0.6-0.1,0.8-0.2s0.4-0.4,0.6-0.7v-0.6c0-0.6-0.1-1.1-0.4-1.5
		s-0.6-0.6-1-0.6s-0.7,0.2-1,0.5s-0.4,0.8-0.4,1.3c0,0.5,0.1,1,0.4,1.3S713.3,205.1,713.7,205.1z"/>
	<path class="st0" d="M718.4,209.8h-1.1l3.4-9.3h1.1L718.4,209.8z"/>
	<path class="st0" d="M724,202.7l0,0.7c0.4-0.5,1.1-0.8,1.8-0.8c0.8,0,1.4,0.3,1.7,1c0.5-0.6,1.1-1,1.9-1c0.7,0,1.2,0.2,1.6,0.6
		s0.5,1,0.5,1.7v4.2h-1.4v-4.1c0-0.4-0.1-0.7-0.3-0.9s-0.5-0.3-0.9-0.3c-0.3,0-0.6,0.1-0.8,0.3s-0.3,0.4-0.4,0.7l0,4.3h-1.4v-4.2
		c0-0.7-0.4-1.1-1.1-1.1c-0.6,0-1,0.2-1.2,0.7v4.6h-1.4v-6.3H724z"/>
	<path class="st0" d="M732.9,205.8c0-0.6,0.1-1.2,0.4-1.7s0.6-0.9,1-1.1s1-0.4,1.5-0.4c0.9,0,1.5,0.3,2.1,0.8s0.8,1.3,0.9,2.2l0,0.3
		c0,0.6-0.1,1.2-0.4,1.7s-0.6,0.9-1,1.1s-1,0.4-1.5,0.4c-0.9,0-1.6-0.3-2.1-0.9S732.9,206.9,732.9,205.8L732.9,205.8z M734.3,205.9
		c0,0.7,0.1,1.2,0.4,1.5s0.6,0.6,1.1,0.6s0.9-0.2,1.1-0.6s0.4-0.9,0.4-1.6c0-0.6-0.1-1.1-0.4-1.5s-0.6-0.6-1.1-0.6
		c-0.5,0-0.8,0.2-1.1,0.6S734.3,205.2,734.3,205.9z"/>
	<path class="st0" d="M741.3,202.7l0,0.7c0.5-0.6,1.1-0.8,1.8-0.8c1.3,0,2,0.8,2,2.3v4.2h-1.4v-4.1c0-0.4-0.1-0.7-0.3-0.9
		s-0.5-0.3-0.9-0.3c-0.6,0-1,0.3-1.3,0.8v4.5H740v-6.3H741.3z"/>
	<path class="st0" d="M748.4,201.1v1.5h1.1v1.1h-1.1v3.5c0,0.2,0,0.4,0.1,0.5s0.3,0.2,0.5,0.2c0.2,0,0.3,0,0.5-0.1v1.1
		c-0.3,0.1-0.6,0.1-0.9,0.1c-1.1,0-1.6-0.6-1.6-1.8v-3.6h-1v-1.1h1v-1.5H748.4z"/>
	<path class="st0" d="M752.1,203.4c0.5-0.5,1.1-0.8,1.8-0.8c1.4,0,2,0.8,2.1,2.3v4.1h-1.4v-4.1c0-0.4-0.1-0.7-0.3-0.9
		s-0.5-0.3-0.8-0.3c-0.6,0-1,0.3-1.3,0.8v4.5h-1.4v-9h1.4V203.4z"/>
	<path class="st0" d="M758.2,207.5c0.3,0,0.5,0.1,0.6,0.2s0.2,0.3,0.2,0.6c0,0.2-0.1,0.4-0.2,0.6s-0.3,0.2-0.6,0.2
		c-0.3,0-0.5-0.1-0.6-0.2s-0.2-0.3-0.2-0.6s0.1-0.4,0.2-0.6S757.9,207.5,758.2,207.5z"/>
</g>
</svg>
