<?xml version="1.0" encoding="utf-8"?>
<!-- Generator: Adobe Illustrator 24.2.3, SVG Export Plug-In . SVG Version: 6.00 Build 0)  -->
<svg version="1.1" id="Layer_1" xmlns="http://www.w3.org/2000/svg" xmlns:xlink="http://www.w3.org/1999/xlink" x="0px" y="0px"
	 viewBox="0 0 300 250" style="enable-background:new 0 0 300 250;" xml:space="preserve">
<style type="text/css">
	.st0{fill:url(#SVGID_1_);}
</style>
<linearGradient id="SVGID_1_" gradientUnits="userSpaceOnUse" x1="16.543" y1="110.6316" x2="282.9219" y2="110.6316">
	<stop  offset="0" style="stop-color:#18B9FB"/>
	<stop  offset="0.5" style="stop-color:#782EEB"/>
	<stop  offset="1" style="stop-color:#E82D8A"/>
</linearGradient>
<path class="st0" d="M111.7,83.45h-3.84v10.42h-3.08V83.45H101v-2.38h10.7V83.45z M116.74,93.87c-0.11-0.19-0.2-0.48-0.28-0.85
	c-0.54,0.69-1.31,1.03-2.29,1.03c-0.9,0-1.66-0.27-2.29-0.81s-0.94-1.22-0.94-2.04c0-1.03,0.38-1.81,1.14-2.34s1.87-0.79,3.32-0.79
	h0.91v-0.5c0-0.88-0.38-1.32-1.13-1.32c-0.7,0-1.05,0.35-1.05,1.04h-2.96c0-0.92,0.39-1.67,1.17-2.24c0.78-0.57,1.78-0.86,2.99-0.86
	s2.17,0.3,2.87,0.89s1.06,1.4,1.08,2.43v4.21c0.01,0.87,0.15,1.54,0.4,2v0.15H116.74z M114.89,91.93c0.37,0,0.67-0.08,0.92-0.24
	c0.24-0.16,0.42-0.34,0.52-0.54v-1.52h-0.86c-1.03,0-1.55,0.46-1.55,1.39c0,0.27,0.09,0.49,0.27,0.66
	C114.38,91.85,114.61,91.93,114.89,91.93z M124.76,90.32l-0.83,0.83v2.71h-2.96V80.36h2.96v7.17l0.3-0.4l2.23-2.78H130l-3.33,3.91
	l3.55,5.6h-3.39L124.76,90.32z M135.21,94.04c-1.46,0-2.64-0.44-3.54-1.3c-0.9-0.87-1.35-2-1.35-3.4v-0.25
	c0-0.97,0.18-1.83,0.54-2.58c0.36-0.74,0.89-1.32,1.58-1.73s1.51-0.61,2.46-0.61c1.34,0,2.39,0.42,3.16,1.24s1.16,1.98,1.16,3.47
	v1.15h-5.89c0.11,0.53,0.34,0.95,0.69,1.26s0.82,0.46,1.39,0.46c0.94,0,1.67-0.33,2.2-0.98l1.35,1.6c-0.37,0.51-0.89,0.92-1.57,1.22
	C136.72,93.89,135.99,94.04,135.21,94.04z M134.87,86.47c-0.87,0-1.38,0.57-1.55,1.72h2.99v-0.23c0.01-0.47-0.11-0.84-0.36-1.1
	C135.7,86.6,135.34,86.47,134.87,86.47z M150.25,93.87c-0.11-0.19-0.2-0.48-0.28-0.85c-0.54,0.69-1.31,1.03-2.29,1.03
	c-0.9,0-1.66-0.27-2.29-0.81s-0.94-1.22-0.94-2.04c0-1.03,0.38-1.81,1.14-2.34s1.87-0.79,3.32-0.79h0.91v-0.5
	c0-0.88-0.38-1.32-1.13-1.32c-0.7,0-1.05,0.35-1.05,1.04h-2.96c0-0.92,0.39-1.67,1.17-2.24c0.78-0.57,1.78-0.86,2.99-0.86
	s2.17,0.3,2.87,0.89s1.06,1.4,1.08,2.43v4.21c0.01,0.87,0.15,1.54,0.4,2v0.15H150.25z M148.39,91.93c0.37,0,0.67-0.08,0.92-0.24
	c0.24-0.16,0.42-0.34,0.52-0.54v-1.52h-0.86c-1.03,0-1.55,0.46-1.55,1.39c0,0.27,0.09,0.49,0.27,0.66
	C147.88,91.85,148.11,91.93,148.39,91.93z M158.46,91.76c0.42,0,0.74-0.11,0.97-0.34s0.34-0.54,0.33-0.95h2.78
	c0,1.04-0.37,1.9-1.12,2.57c-0.75,0.67-1.71,1-2.89,1c-1.38,0-2.47-0.43-3.27-1.3s-1.2-2.07-1.2-3.6v-0.12
	c0-0.96,0.18-1.81,0.53-2.54c0.35-0.73,0.87-1.3,1.53-1.7c0.67-0.4,1.46-0.59,2.37-0.59c1.24,0,2.22,0.34,2.94,1.03
	s1.09,1.61,1.09,2.79h-2.78c0-0.49-0.12-0.87-0.36-1.13s-0.56-0.4-0.97-0.4c-0.77,0-1.22,0.49-1.34,1.47
	c-0.04,0.31-0.06,0.74-0.06,1.28c0,0.96,0.11,1.62,0.34,1.99S157.97,91.76,158.46,91.76z M167.24,81.99v2.36h1.56v2.06h-1.56v4.35
	c0,0.36,0.06,0.61,0.19,0.75c0.13,0.14,0.38,0.21,0.76,0.21c0.29,0,0.54-0.02,0.74-0.05v2.12c-0.53,0.17-1.09,0.25-1.67,0.25
	c-1.02,0-1.77-0.24-2.26-0.72s-0.73-1.21-0.73-2.19v-4.72h-1.21v-2.06h1.21v-2.36H167.24z M169.95,81.9c0-0.42,0.15-0.77,0.46-1.04
	s0.7-0.4,1.19-0.4s0.88,0.13,1.19,0.4s0.46,0.62,0.46,1.04s-0.15,0.77-0.46,1.04s-0.7,0.4-1.19,0.4s-0.88-0.13-1.19-0.4
	S169.95,82.33,169.95,81.9z M173.1,93.87h-2.97v-9.51h2.97V93.87z M174.55,89.02c0-0.95,0.18-1.79,0.55-2.54
	c0.37-0.74,0.9-1.31,1.59-1.71s1.5-0.6,2.43-0.6c1.42,0,2.55,0.44,3.37,1.32c0.82,0.88,1.23,2.08,1.23,3.6v0.11
	c0,1.48-0.41,2.66-1.23,3.53c-0.82,0.87-1.94,1.3-3.34,1.3c-1.35,0-2.44-0.4-3.26-1.22s-1.26-1.91-1.33-3.3L174.55,89.02z
	 M177.51,89.21c0,0.88,0.14,1.52,0.41,1.93s0.68,0.62,1.22,0.62c1.05,0,1.59-0.81,1.62-2.43v-0.3c0-1.71-0.54-2.56-1.63-2.56
	c-0.99,0-1.53,0.74-1.61,2.21L177.51,89.21z M187.75,84.36l0.1,1.12c0.66-0.86,1.56-1.29,2.72-1.29c0.99,0,1.73,0.3,2.22,0.89
	s0.74,1.48,0.76,2.67v6.13h-2.97v-6c0-0.48-0.1-0.83-0.29-1.06c-0.19-0.22-0.54-0.34-1.05-0.34c-0.58,0-1.01,0.23-1.29,0.69v6.71
	h-2.96v-9.51H187.75z M195.25,92.54c0-0.43,0.16-0.79,0.47-1.07s0.71-0.42,1.17-0.42s0.86,0.14,1.17,0.42
	c0.31,0.28,0.47,0.63,0.47,1.07s-0.16,0.79-0.47,1.07c-0.31,0.28-0.71,0.42-1.17,0.42s-0.86-0.14-1.17-0.42
	C195.41,93.33,195.25,92.97,195.25,92.54z M198.12,89.81h-2.4l-0.38-8.75h3.16L198.12,89.81z M22.29,102.67h3.08v8.78
	c0,0.81-0.19,1.54-0.57,2.18c-0.38,0.64-0.91,1.13-1.58,1.49c-0.68,0.35-1.43,0.53-2.26,0.53c-1.39,0-2.48-0.35-3.25-1.05
	s-1.16-1.7-1.16-2.99h3.09c0,0.59,0.1,1.01,0.3,1.27c0.2,0.26,0.54,0.4,1.02,0.4c0.43,0,0.76-0.16,0.99-0.48s0.35-0.77,0.35-1.34
	V102.67z M32.84,114.44c-0.63,0.8-1.47,1.2-2.54,1.2c-1.04,0-1.83-0.3-2.37-0.91c-0.54-0.61-0.8-1.48-0.8-2.61v-6.16h2.96v6.18
	c0,0.81,0.4,1.22,1.19,1.22c0.68,0,1.16-0.24,1.45-0.73v-6.67h2.98v9.51h-2.78L32.84,114.44z M42.3,112.79
	c0-0.25-0.13-0.45-0.4-0.61s-0.76-0.31-1.5-0.47s-1.35-0.38-1.83-0.65s-0.85-0.59-1.1-0.97s-0.38-0.82-0.38-1.31
	c0-0.87,0.36-1.59,1.08-2.16c0.72-0.56,1.66-0.85,2.83-0.85c1.25,0,2.26,0.28,3.02,0.85s1.14,1.32,1.14,2.24h-2.97
	c0-0.76-0.4-1.14-1.2-1.14c-0.31,0-0.57,0.09-0.78,0.26s-0.32,0.39-0.32,0.65c0,0.26,0.13,0.48,0.39,0.64s0.67,0.3,1.23,0.4
	s1.06,0.23,1.49,0.38c1.43,0.49,2.14,1.37,2.14,2.65c0,0.87-0.39,1.57-1.16,2.12s-1.77,0.82-2.99,0.82c-0.81,0-1.54-0.15-2.18-0.44
	s-1.14-0.69-1.49-1.2s-0.54-1.03-0.54-1.59h2.77c0.01,0.44,0.16,0.76,0.44,0.96c0.28,0.2,0.64,0.3,1.08,0.3
	c0.4,0,0.71-0.08,0.91-0.25C42.2,113.27,42.3,113.06,42.3,112.79z M49.99,103.59v2.36h1.56v2.06h-1.56v4.35
	c0,0.36,0.06,0.61,0.19,0.75c0.13,0.14,0.38,0.21,0.76,0.21c0.29,0,0.54-0.02,0.74-0.05v2.12c-0.53,0.17-1.09,0.25-1.67,0.25
	c-1.02,0-1.77-0.24-2.26-0.72s-0.73-1.21-0.73-2.19v-4.72h-1.21v-2.06h1.21v-2.36H49.99z M62.56,115.46
	c-0.11-0.19-0.2-0.48-0.28-0.85c-0.54,0.69-1.31,1.03-2.29,1.03c-0.9,0-1.66-0.27-2.29-0.81s-0.94-1.22-0.94-2.04
	c0-1.03,0.38-1.81,1.14-2.34s1.87-0.79,3.32-0.79h0.91v-0.5c0-0.88-0.38-1.32-1.13-1.32c-0.7,0-1.05,0.35-1.05,1.04H57
	c0-0.92,0.39-1.67,1.17-2.24c0.78-0.57,1.78-0.86,2.99-0.86s2.17,0.3,2.87,0.89s1.06,1.4,1.08,2.43v4.21c0.01,0.87,0.15,1.54,0.4,2
	v0.15H62.56z M60.71,113.53c0.37,0,0.67-0.08,0.92-0.24c0.24-0.16,0.42-0.34,0.52-0.54v-1.52h-0.86c-1.03,0-1.55,0.46-1.55,1.39
	c0,0.27,0.09,0.49,0.27,0.66C60.2,113.45,60.43,113.53,60.71,113.53z M74.69,103.59v2.36h1.56v2.06h-1.56v4.35
	c0,0.36,0.06,0.61,0.19,0.75s0.38,0.21,0.76,0.21c0.29,0,0.54-0.02,0.74-0.05v2.12c-0.53,0.17-1.09,0.25-1.67,0.25
	c-1.02,0-1.77-0.24-2.26-0.72s-0.73-1.21-0.73-2.19v-4.72h-1.21v-2.06h1.21v-2.36H74.69z M82.78,115.46
	c-0.11-0.19-0.2-0.48-0.28-0.85c-0.54,0.69-1.31,1.03-2.29,1.03c-0.9,0-1.66-0.27-2.29-0.81s-0.94-1.22-0.94-2.04
	c0-1.03,0.38-1.81,1.14-2.34s1.87-0.79,3.32-0.79h0.91v-0.5c0-0.88-0.38-1.32-1.13-1.32c-0.7,0-1.05,0.35-1.05,1.04h-2.96
	c0-0.92,0.39-1.67,1.17-2.24c0.78-0.57,1.78-0.86,2.99-0.86s2.17,0.3,2.87,0.89s1.06,1.4,1.08,2.43v4.21c0.01,0.87,0.15,1.54,0.4,2
	v0.15H82.78z M80.92,113.53c0.37,0,0.67-0.08,0.92-0.24c0.24-0.16,0.42-0.34,0.52-0.54v-1.52H81.5c-1.03,0-1.55,0.46-1.55,1.39
	c0,0.27,0.09,0.49,0.27,0.66C80.41,113.45,80.64,113.53,80.92,113.53z M95.8,110.78c0,1.48-0.33,2.66-1,3.54
	c-0.67,0.88-1.56,1.32-2.69,1.32c-0.87,0-1.59-0.32-2.15-0.96v4.44H87v-13.17h2.77l0.09,0.88c0.57-0.7,1.32-1.05,2.24-1.05
	c1.17,0,2.08,0.43,2.73,1.3s0.98,2.05,0.98,3.56V110.78z M92.84,110.6c0-1.69-0.49-2.53-1.48-2.53c-0.7,0-1.17,0.25-1.41,0.76v3.74
	c0.26,0.53,0.73,0.79,1.42,0.79c0.94,0,1.43-0.81,1.46-2.44V110.6z M106.95,115.46c-0.11-0.19-0.2-0.48-0.28-0.85
	c-0.54,0.69-1.31,1.03-2.29,1.03c-0.9,0-1.66-0.27-2.29-0.81s-0.94-1.22-0.94-2.04c0-1.03,0.38-1.81,1.14-2.34s1.87-0.79,3.32-0.79
	h0.91v-0.5c0-0.88-0.38-1.32-1.13-1.32c-0.7,0-1.05,0.35-1.05,1.04h-2.96c0-0.92,0.39-1.67,1.17-2.24c0.78-0.57,1.78-0.86,2.99-0.86
	s2.17,0.3,2.87,0.89s1.06,1.4,1.08,2.43v4.21c0.01,0.87,0.15,1.54,0.4,2v0.15H106.95z M105.09,113.53c0.37,0,0.67-0.08,0.92-0.24
	c0.24-0.16,0.42-0.34,0.52-0.54v-1.52h-0.86c-1.03,0-1.55,0.46-1.55,1.39c0,0.27,0.09,0.49,0.27,0.66
	C104.58,113.45,104.81,113.53,105.09,113.53z M119.36,111.56l0.96-5.61h2.84l-2.24,9.51h-2.5l-1.57-5.64l-1.58,5.64h-2.5l-2.24-9.51
	h2.84l0.94,5.74l1.51-5.74h2.07L119.36,111.56z M129.57,115.46c-0.11-0.19-0.2-0.48-0.28-0.85c-0.54,0.69-1.31,1.03-2.29,1.03
	c-0.9,0-1.66-0.27-2.29-0.81s-0.94-1.22-0.94-2.04c0-1.03,0.38-1.81,1.14-2.34s1.87-0.79,3.32-0.79h0.91v-0.5
	c0-0.88-0.38-1.32-1.13-1.32c-0.7,0-1.05,0.35-1.05,1.04h-2.96c0-0.92,0.39-1.67,1.17-2.24c0.78-0.57,1.78-0.86,2.99-0.86
	s2.17,0.3,2.87,0.89s1.06,1.4,1.08,2.43v4.21c0.01,0.87,0.15,1.54,0.4,2v0.15H129.57z M127.72,113.53c0.37,0,0.67-0.08,0.92-0.24
	c0.24-0.16,0.42-0.34,0.52-0.54v-1.52h-0.86c-1.03,0-1.55,0.46-1.55,1.39c0,0.27,0.09,0.49,0.27,0.66
	C127.2,113.45,127.43,113.53,127.72,113.53z M137.44,111.32l1.58-5.36h3.17l-3.88,11.1l-0.17,0.4c-0.55,1.23-1.52,1.85-2.92,1.85
	c-0.39,0-0.79-0.06-1.22-0.17v-2.11h0.39c0.42,0,0.73-0.06,0.95-0.18c0.22-0.12,0.38-0.33,0.49-0.65l0.24-0.63l-3.3-9.61h3.16
	L137.44,111.32z M148.1,115.46v-7.45h-1.38v-2.06h1.38v-0.76c0-1.08,0.32-1.92,0.96-2.52s1.54-0.9,2.69-0.9
	c0.42,0,0.88,0.06,1.39,0.18l0.01,2.18c-0.18-0.05-0.42-0.08-0.73-0.08c-0.9,0-1.34,0.39-1.34,1.16v0.73h1.85v2.06h-1.85v7.45H148.1
	z M159.72,108.64l-0.98-0.07c-0.93,0-1.53,0.29-1.79,0.88v6.02h-2.96v-9.51h2.78l0.1,1.22c0.5-0.93,1.19-1.4,2.08-1.4
	c0.32,0,0.59,0.04,0.83,0.11L159.72,108.64z M160.09,110.62c0-0.95,0.18-1.79,0.55-2.54c0.37-0.74,0.9-1.31,1.59-1.71
	s1.5-0.6,2.43-0.6c1.42,0,2.55,0.44,3.37,1.32c0.82,0.88,1.23,2.08,1.23,3.6v0.11c0,1.48-0.41,2.66-1.23,3.53
	c-0.82,0.87-1.94,1.3-3.34,1.3c-1.35,0-2.44-0.41-3.26-1.22s-1.26-1.91-1.33-3.3L160.09,110.62z M163.06,110.81
	c0,0.88,0.14,1.52,0.41,1.93s0.68,0.62,1.22,0.62c1.05,0,1.59-0.81,1.62-2.43v-0.3c0-1.71-0.54-2.56-1.63-2.56
	c-0.99,0-1.53,0.74-1.61,2.21L163.06,110.81z M173.38,105.96l0.1,1.12c0.67-0.86,1.58-1.29,2.72-1.29c1.2,0,2.01,0.48,2.43,1.43
	c0.64-0.96,1.58-1.43,2.79-1.43c1.93,0,2.92,1.17,2.97,3.5v6.19h-2.97v-6c0-0.49-0.08-0.84-0.25-1.06s-0.46-0.33-0.9-0.33
	c-0.59,0-1.02,0.26-1.31,0.78l0.01,0.12v6.5H176v-5.99c0-0.5-0.08-0.86-0.24-1.08s-0.46-0.33-0.91-0.33c-0.57,0-1,0.26-1.3,0.78
	v6.62h-2.96v-9.51H173.38z M195.92,115.46c-0.11-0.19-0.2-0.48-0.28-0.85c-0.54,0.69-1.31,1.03-2.29,1.03
	c-0.9,0-1.66-0.27-2.29-0.81s-0.94-1.22-0.94-2.04c0-1.03,0.38-1.81,1.14-2.34s1.87-0.79,3.32-0.79h0.91v-0.5
	c0-0.88-0.38-1.32-1.13-1.32c-0.7,0-1.05,0.35-1.05,1.04h-2.96c0-0.92,0.39-1.67,1.17-2.24c0.78-0.57,1.78-0.86,2.99-0.86
	s2.17,0.3,2.87,0.89s1.06,1.4,1.08,2.43v4.21c0.01,0.87,0.15,1.54,0.4,2v0.15H195.92z M194.06,113.53c0.37,0,0.67-0.08,0.92-0.24
	c0.24-0.16,0.42-0.34,0.52-0.54v-1.52h-0.86c-1.03,0-1.55,0.46-1.55,1.39c0,0.27,0.09,0.49,0.27,0.66
	C193.55,113.45,193.78,113.53,194.06,113.53z M204.22,110.64c0-1.51,0.33-2.69,0.98-3.56s1.56-1.3,2.72-1.3c0.85,0,1.56,0.33,2.14,1
	v-4.82h2.97v13.5h-2.66l-0.15-1.02c-0.61,0.8-1.38,1.2-2.32,1.2c-1.13,0-2.03-0.43-2.69-1.3S204.22,112.24,204.22,110.64z
	 M207.19,110.82c0,1.69,0.49,2.53,1.48,2.53c0.66,0,1.12-0.28,1.41-0.83v-3.62c-0.27-0.56-0.73-0.84-1.39-0.84
	c-0.91,0-1.41,0.74-1.49,2.21L207.19,110.82z M219.32,115.64c-1.46,0-2.64-0.44-3.54-1.3c-0.9-0.87-1.35-2-1.35-3.4v-0.25
	c0-0.97,0.18-1.83,0.54-2.58c0.36-0.74,0.89-1.32,1.58-1.73s1.51-0.61,2.46-0.61c1.34,0,2.39,0.42,3.16,1.24s1.16,1.98,1.16,3.47
	v1.15h-5.89c0.11,0.53,0.34,0.95,0.69,1.26s0.82,0.46,1.39,0.46c0.94,0,1.67-0.33,2.2-0.98l1.35,1.6c-0.37,0.51-0.89,0.92-1.57,1.22
	C220.83,115.49,220.1,115.64,219.32,115.64z M218.99,108.06c-0.87,0-1.38,0.57-1.55,1.72h2.99v-0.23c0.01-0.47-0.11-0.84-0.36-1.1
	C219.82,108.2,219.46,108.06,218.99,108.06z M224.15,110.64c0-1.51,0.33-2.69,0.98-3.56s1.56-1.3,2.72-1.3c0.85,0,1.56,0.33,2.14,1
	v-4.82h2.97v13.5h-2.66l-0.15-1.02c-0.61,0.8-1.38,1.2-2.32,1.2c-1.13,0-2.03-0.43-2.69-1.3S224.15,112.24,224.15,110.64z
	 M227.11,110.82c0,1.69,0.49,2.53,1.48,2.53c0.66,0,1.12-0.28,1.41-0.83v-3.62c-0.27-0.56-0.73-0.84-1.39-0.84
	c-0.91,0-1.41,0.74-1.49,2.21L227.11,110.82z M234.63,103.5c0-0.42,0.15-0.77,0.46-1.04s0.7-0.4,1.19-0.4s0.88,0.13,1.19,0.4
	s0.46,0.62,0.46,1.04s-0.15,0.77-0.46,1.04s-0.7,0.4-1.19,0.4s-0.88-0.13-1.19-0.4S234.63,103.92,234.63,103.5z M237.77,115.46
	h-2.97v-9.51h2.97V115.46z M243.62,113.36c0.42,0,0.74-0.11,0.97-0.34c0.23-0.23,0.34-0.54,0.33-0.95h2.78
	c0,1.04-0.37,1.9-1.12,2.57c-0.75,0.67-1.71,1-2.89,1c-1.38,0-2.47-0.43-3.27-1.3s-1.2-2.07-1.2-3.6v-0.12
	c0-0.96,0.18-1.81,0.53-2.54c0.35-0.73,0.87-1.3,1.53-1.7c0.67-0.4,1.46-0.59,2.37-0.59c1.24,0,2.22,0.34,2.94,1.03
	s1.09,1.61,1.09,2.79h-2.78c0-0.49-0.12-0.87-0.36-1.13s-0.56-0.4-0.97-0.4c-0.77,0-1.22,0.49-1.34,1.47
	c-0.04,0.31-0.06,0.74-0.06,1.28c0,0.96,0.11,1.62,0.34,1.99S243.12,113.36,243.62,113.36z M254.3,115.46
	c-0.11-0.19-0.2-0.48-0.28-0.85c-0.54,0.69-1.31,1.03-2.29,1.03c-0.9,0-1.66-0.27-2.29-0.81s-0.94-1.22-0.94-2.04
	c0-1.03,0.38-1.81,1.14-2.34s1.87-0.79,3.32-0.79h0.91v-0.5c0-0.88-0.38-1.32-1.13-1.32c-0.7,0-1.05,0.35-1.05,1.04h-2.96
	c0-0.92,0.39-1.67,1.17-2.24c0.78-0.57,1.78-0.86,2.99-0.86s2.17,0.3,2.87,0.89s1.06,1.4,1.08,2.43v4.21c0.01,0.87,0.15,1.54,0.4,2
	v0.15H254.3z M252.45,113.53c0.37,0,0.67-0.08,0.92-0.24c0.24-0.16,0.42-0.34,0.52-0.54v-1.52h-0.86c-1.03,0-1.55,0.46-1.55,1.39
	c0,0.27,0.09,0.49,0.27,0.66C251.94,113.45,252.17,113.53,252.45,113.53z M261.95,103.59v2.36h1.56v2.06h-1.56v4.35
	c0,0.36,0.06,0.61,0.19,0.75s0.38,0.21,0.76,0.21c0.29,0,0.54-0.02,0.74-0.05v2.12c-0.53,0.17-1.09,0.25-1.67,0.25
	c-1.02,0-1.77-0.24-2.26-0.72s-0.73-1.21-0.73-2.19v-4.72h-1.21v-2.06h1.21v-2.36H261.95z M269.28,115.64
	c-1.46,0-2.64-0.44-3.54-1.3c-0.9-0.87-1.35-2-1.35-3.4v-0.25c0-0.97,0.18-1.83,0.54-2.58c0.36-0.74,0.89-1.32,1.58-1.73
	s1.51-0.61,2.46-0.61c1.34,0,2.39,0.42,3.16,1.24s1.16,1.98,1.16,3.47v1.15h-5.89c0.11,0.53,0.34,0.95,0.69,1.26
	s0.82,0.46,1.39,0.46c0.94,0,1.67-0.33,2.2-0.98l1.35,1.6c-0.37,0.51-0.89,0.92-1.57,1.22
	C270.79,115.49,270.06,115.64,269.28,115.64z M268.95,108.06c-0.87,0-1.38,0.57-1.55,1.72h2.99v-0.23c0.01-0.47-0.11-0.84-0.36-1.1
	C269.78,108.2,269.42,108.06,268.95,108.06z M274.11,110.64c0-1.51,0.33-2.69,0.98-3.56s1.56-1.3,2.72-1.3c0.85,0,1.56,0.33,2.14,1
	v-4.82h2.97v13.5h-2.66l-0.15-1.02c-0.61,0.8-1.38,1.2-2.32,1.2c-1.13,0-2.03-0.43-2.69-1.3S274.11,112.24,274.11,110.64z
	 M277.07,110.82c0,1.69,0.49,2.53,1.48,2.53c0.66,0,1.12-0.28,1.41-0.83v-3.62c-0.27-0.56-0.73-0.84-1.39-0.84
	c-0.91,0-1.41,0.74-1.49,2.21L277.07,110.82z M56.93,125.1c0-0.42,0.15-0.77,0.46-1.04s0.7-0.4,1.19-0.4s0.88,0.13,1.19,0.4
	c0.3,0.27,0.46,0.62,0.46,1.04s-0.15,0.77-0.46,1.04c-0.3,0.27-0.7,0.4-1.19,0.4s-0.88-0.13-1.19-0.4S56.93,125.53,56.93,125.1z
	 M60.07,137.07H57.1v-9.51h2.97V137.07z M61.52,132.24c0-1.51,0.33-2.69,0.98-3.56s1.56-1.3,2.72-1.3c0.85,0,1.56,0.33,2.14,1v-4.82
	h2.97v13.5h-2.66l-0.15-1.02c-0.61,0.8-1.38,1.2-2.32,1.2c-1.13,0-2.03-0.43-2.69-1.3S61.52,133.84,61.52,132.24z M64.49,132.42
	c0,1.69,0.49,2.53,1.48,2.53c0.66,0,1.12-0.28,1.41-0.83v-3.62c-0.27-0.56-0.73-0.84-1.39-0.84c-0.91,0-1.41,0.74-1.49,2.21
	L64.49,132.42z M76.62,137.24c-1.46,0-2.64-0.44-3.54-1.3c-0.9-0.87-1.35-2-1.35-3.4v-0.25c0-0.97,0.18-1.83,0.54-2.58
	c0.36-0.74,0.89-1.32,1.58-1.73s1.51-0.61,2.46-0.61c1.34,0,2.39,0.42,3.16,1.24s1.16,1.98,1.16,3.47v1.15h-5.89
	c0.11,0.53,0.34,0.95,0.69,1.26c0.36,0.3,0.82,0.46,1.39,0.46c0.94,0,1.67-0.33,2.2-0.98l1.35,1.6c-0.37,0.51-0.89,0.92-1.57,1.22
	C78.13,137.09,77.4,137.24,76.62,137.24z M76.29,129.67c-0.87,0-1.38,0.57-1.55,1.72h2.99v-0.23c0.01-0.47-0.11-0.84-0.36-1.1
	C77.12,129.8,76.76,129.67,76.29,129.67z M84.54,127.56l0.1,1.12c0.66-0.86,1.56-1.29,2.72-1.29c0.99,0,1.73,0.3,2.22,0.89
	s0.74,1.48,0.76,2.67v6.13h-2.97v-6c0-0.48-0.1-0.83-0.29-1.06c-0.19-0.22-0.54-0.34-1.05-0.34c-0.58,0-1.01,0.23-1.29,0.69v6.71
	h-2.96v-9.51H84.54z M95.42,125.19v2.36h1.56v2.06h-1.56v4.35c0,0.36,0.06,0.61,0.19,0.75s0.38,0.21,0.76,0.21
	c0.29,0,0.54-0.02,0.74-0.05v2.12c-0.53,0.17-1.09,0.25-1.67,0.25c-1.02,0-1.77-0.24-2.26-0.72s-0.73-1.21-0.73-2.19v-4.72h-1.21
	v-2.06h1.21v-2.36H95.42z M98.13,125.1c0-0.42,0.15-0.77,0.46-1.04s0.7-0.4,1.19-0.4s0.88,0.13,1.19,0.4s0.46,0.62,0.46,1.04
	s-0.15,0.77-0.46,1.04s-0.7,0.4-1.19,0.4s-0.88-0.13-1.19-0.4S98.13,125.53,98.13,125.1z M101.28,137.07h-2.97v-9.51h2.97V137.07z
	 M106.55,125.19v2.36h1.56v2.06h-1.56v4.35c0,0.36,0.06,0.61,0.19,0.75s0.38,0.21,0.76,0.21c0.29,0,0.54-0.02,0.74-0.05v2.12
	c-0.53,0.17-1.09,0.25-1.67,0.25c-1.02,0-1.77-0.24-2.26-0.72s-0.73-1.21-0.73-2.19v-4.72h-1.21v-2.06h1.21v-2.36H106.55z
	 M113.08,132.92l1.58-5.36h3.17l-3.88,11.1l-0.17,0.4c-0.55,1.23-1.52,1.85-2.92,1.85c-0.39,0-0.79-0.06-1.22-0.17v-2.11h0.39
	c0.42,0,0.73-0.06,0.95-0.18c0.22-0.12,0.38-0.33,0.49-0.65l0.24-0.63l-3.3-9.61h3.16L113.08,132.92z M126.54,125.19v2.36h1.56v2.06
	h-1.56v4.35c0,0.36,0.06,0.61,0.19,0.75s0.38,0.21,0.76,0.21c0.29,0,0.54-0.02,0.74-0.05v2.12c-0.53,0.17-1.09,0.25-1.67,0.25
	c-1.02,0-1.77-0.24-2.26-0.72s-0.73-1.21-0.73-2.19v-4.72h-1.21v-2.06h1.21v-2.36H126.54z M132.16,128.58
	c0.63-0.8,1.44-1.2,2.43-1.2c1.05,0,1.84,0.31,2.37,0.93s0.81,1.54,0.82,2.75v6h-2.97v-5.93c0-0.5-0.1-0.87-0.31-1.11
	c-0.21-0.24-0.55-0.36-1.05-0.36c-0.61,0-1.04,0.19-1.29,0.58v6.82h-2.96v-13.5h2.96V128.58z M144.03,137.24
	c-1.46,0-2.64-0.44-3.54-1.3c-0.9-0.87-1.35-2-1.35-3.4v-0.25c0-0.97,0.18-1.83,0.54-2.58c0.36-0.74,0.89-1.32,1.58-1.73
	s1.51-0.61,2.46-0.61c1.34,0,2.39,0.42,3.16,1.24s1.16,1.98,1.16,3.47v1.15h-5.89c0.11,0.53,0.34,0.95,0.69,1.26
	s0.82,0.46,1.39,0.46c0.94,0,1.67-0.33,2.2-0.98l1.35,1.6c-0.37,0.51-0.89,0.92-1.57,1.22
	C145.54,137.09,144.81,137.24,144.03,137.24z M143.69,129.67c-0.87,0-1.38,0.57-1.55,1.72h2.99v-0.23c0.01-0.47-0.11-0.84-0.36-1.1
	C144.52,129.8,144.16,129.67,143.69,129.67z M149.88,137.07v-7.45h-1.38v-2.06h1.38v-0.76c0-1.08,0.32-1.92,0.96-2.52
	s1.54-0.9,2.69-0.9c0.42,0,0.88,0.06,1.39,0.18l0.01,2.18c-0.18-0.05-0.42-0.08-0.73-0.08c-0.9,0-1.34,0.39-1.34,1.16v0.73h1.85
	v2.06h-1.85v7.45H149.88z M159.2,125.19v2.36h1.56v2.06h-1.56v4.35c0,0.36,0.06,0.61,0.19,0.75s0.38,0.21,0.76,0.21
	c0.29,0,0.54-0.02,0.74-0.05v2.12c-0.53,0.17-1.09,0.25-1.67,0.25c-1.02,0-1.77-0.24-2.26-0.72s-0.73-1.21-0.73-2.19v-4.72h-1.21
	v-2.06h1.21v-2.36H159.2z M171.39,134.39c0-0.25-0.13-0.45-0.4-0.61s-0.76-0.31-1.5-0.47s-1.35-0.38-1.83-0.65s-0.85-0.59-1.1-0.97
	c-0.25-0.38-0.38-0.82-0.38-1.31c0-0.87,0.36-1.59,1.08-2.16c0.72-0.56,1.66-0.85,2.83-0.85c1.25,0,2.26,0.28,3.02,0.85
	s1.14,1.32,1.14,2.24h-2.97c0-0.76-0.4-1.14-1.2-1.14c-0.31,0-0.57,0.09-0.78,0.26s-0.32,0.39-0.32,0.65c0,0.26,0.13,0.48,0.39,0.64
	s0.67,0.3,1.23,0.4s1.06,0.23,1.49,0.38c1.43,0.49,2.14,1.37,2.14,2.65c0,0.87-0.39,1.57-1.16,2.12s-1.77,0.82-2.99,0.82
	c-0.81,0-1.54-0.15-2.18-0.44s-1.14-0.69-1.49-1.2s-0.54-1.03-0.54-1.59h2.77c0.01,0.44,0.16,0.76,0.44,0.96
	c0.28,0.2,0.64,0.3,1.08,0.3c0.4,0,0.71-0.08,0.91-0.25C171.29,134.87,171.39,134.66,171.39,134.39z M184.46,132.38
	c0,1.48-0.33,2.66-1,3.54c-0.67,0.88-1.56,1.32-2.69,1.32c-0.87,0-1.59-0.32-2.15-0.96v4.44h-2.96v-13.17h2.77l0.09,0.88
	c0.57-0.7,1.32-1.05,2.24-1.05c1.17,0,2.08,0.43,2.73,1.3s0.98,2.05,0.98,3.56V132.38z M181.5,132.2c0-1.69-0.49-2.53-1.48-2.53
	c-0.7,0-1.17,0.25-1.41,0.76v3.74c0.26,0.53,0.73,0.79,1.42,0.79c0.94,0,1.43-0.81,1.46-2.44V132.2z M190.36,137.24
	c-1.46,0-2.64-0.44-3.54-1.3c-0.9-0.87-1.35-2-1.35-3.4v-0.25c0-0.97,0.18-1.83,0.54-2.58c0.36-0.74,0.89-1.32,1.58-1.73
	s1.51-0.61,2.46-0.61c1.34,0,2.39,0.42,3.16,1.24c0.77,0.83,1.16,1.98,1.16,3.47v1.15h-5.89c0.11,0.53,0.34,0.95,0.69,1.26
	s0.82,0.46,1.39,0.46c0.94,0,1.67-0.33,2.2-0.98l1.35,1.6c-0.37,0.51-0.89,0.92-1.57,1.22
	C191.87,137.09,191.14,137.24,190.36,137.24z M190.03,129.67c-0.87,0-1.38,0.57-1.55,1.72h2.99v-0.23c0.01-0.47-0.11-0.84-0.36-1.1
	C190.86,129.8,190.5,129.67,190.03,129.67z M199.58,134.96c0.42,0,0.74-0.11,0.97-0.34s0.34-0.54,0.33-0.95h2.78
	c0,1.04-0.37,1.9-1.12,2.57c-0.75,0.67-1.71,1-2.89,1c-1.38,0-2.47-0.43-3.27-1.3s-1.2-2.07-1.2-3.6v-0.12
	c0-0.96,0.18-1.81,0.53-2.54c0.35-0.73,0.87-1.3,1.53-1.7c0.67-0.4,1.46-0.59,2.37-0.59c1.24,0,2.22,0.34,2.94,1.03
	s1.09,1.61,1.09,2.79h-2.78c0-0.49-0.12-0.87-0.36-1.13s-0.56-0.4-0.97-0.4c-0.77,0-1.22,0.49-1.34,1.47
	c-0.04,0.31-0.06,0.74-0.06,1.28c0,0.96,0.11,1.62,0.34,1.99S199.08,134.96,199.58,134.96z M204.89,125.1
	c0-0.42,0.15-0.77,0.46-1.04s0.7-0.4,1.19-0.4s0.88,0.13,1.19,0.4s0.46,0.62,0.46,1.04s-0.15,0.77-0.46,1.04s-0.7,0.4-1.19,0.4
	s-0.88-0.13-1.19-0.4S204.89,125.53,204.89,125.1z M208.04,137.07h-2.97v-9.51h2.97V137.07z M215.22,137.07
	c-0.11-0.19-0.2-0.48-0.28-0.85c-0.54,0.69-1.31,1.03-2.29,1.03c-0.9,0-1.66-0.27-2.29-0.81s-0.94-1.22-0.94-2.04
	c0-1.03,0.38-1.81,1.14-2.34s1.87-0.79,3.32-0.79h0.91v-0.5c0-0.88-0.38-1.32-1.13-1.32c-0.7,0-1.05,0.35-1.05,1.04h-2.96
	c0-0.92,0.39-1.67,1.17-2.24c0.78-0.57,1.78-0.86,2.99-0.86s2.17,0.3,2.87,0.89s1.06,1.4,1.08,2.43v4.21c0.01,0.87,0.15,1.54,0.4,2
	v0.15H215.22z M213.36,135.13c0.37,0,0.67-0.08,0.92-0.24c0.24-0.16,0.42-0.34,0.52-0.54v-1.52h-0.86c-1.03,0-1.55,0.46-1.55,1.39
	c0,0.27,0.09,0.49,0.27,0.66C212.85,135.05,213.08,135.13,213.36,135.13z M222.54,137.07h-2.97v-13.5h2.97V137.07z M224.34,125.1
	c0-0.42,0.15-0.77,0.46-1.04s0.7-0.4,1.19-0.4s0.88,0.13,1.19,0.4s0.46,0.62,0.46,1.04s-0.15,0.77-0.46,1.04s-0.7,0.4-1.19,0.4
	s-0.88-0.13-1.19-0.4S224.34,125.53,224.34,125.1z M227.49,137.07h-2.97v-9.51h2.97V137.07z M234.29,134.39
	c0-0.25-0.13-0.45-0.4-0.61s-0.76-0.31-1.5-0.47s-1.35-0.38-1.83-0.65s-0.85-0.59-1.1-0.97s-0.38-0.82-0.38-1.31
	c0-0.87,0.36-1.59,1.08-2.16c0.72-0.56,1.66-0.85,2.83-0.85c1.25,0,2.26,0.28,3.02,0.85s1.14,1.32,1.14,2.24h-2.97
	c0-0.76-0.4-1.14-1.2-1.14c-0.31,0-0.57,0.09-0.78,0.26s-0.32,0.39-0.32,0.65c0,0.26,0.13,0.48,0.39,0.64s0.67,0.3,1.23,0.4
	s1.06,0.23,1.49,0.38c1.43,0.49,2.14,1.37,2.14,2.65c0,0.87-0.39,1.57-1.16,2.12s-1.77,0.82-2.99,0.82c-0.81,0-1.54-0.15-2.18-0.44
	s-1.14-0.69-1.49-1.2s-0.54-1.03-0.54-1.59h2.77c0.01,0.44,0.16,0.76,0.44,0.96c0.28,0.2,0.64,0.3,1.08,0.3
	c0.4,0,0.71-0.08,0.91-0.25C234.19,134.87,234.29,134.66,234.29,134.39z M241.98,125.19v2.36h1.56v2.06h-1.56v4.35
	c0,0.36,0.06,0.61,0.19,0.75s0.38,0.21,0.76,0.21c0.29,0,0.54-0.02,0.74-0.05v2.12c-0.53,0.17-1.09,0.25-1.67,0.25
	c-1.02,0-1.77-0.24-2.26-0.72s-0.73-1.21-0.73-2.19v-4.72h-1.21v-2.06h1.21v-2.36H241.98z"/>
</svg>
