<?xml version="1.0" encoding="utf-8"?>
<!-- Generator: Adobe Illustrator 24.3.0, SVG Export Plug-In . SVG Version: 6.00 Build 0)  -->
<svg version="1.1" id="Layer_1" xmlns="http://www.w3.org/2000/svg" xmlns:xlink="http://www.w3.org/1999/xlink" x="0px" y="0px"
	 viewBox="0 0 300 250" style="enable-background:new 0 0 300 250;" xml:space="preserve">
<style type="text/css">
	.st0{fill:#2A3480;}
	.st1{fill:#FFFFFF;}
</style>
<path class="st0" d="M63,13H43.6c-6.1,0-11,4.9-11,11v19.5c0,6.1,4.9,11,11,11H63c6.1,0,11-4.9,11-11V24C74.1,17.9,69.1,13,63,13z"
	/>
<path class="st1" d="M62,24.4h-0.2v-0.2h0.6v0.2h-0.2v0.6H62V24.4z"/>
<path class="st1" d="M63.2,24.8c0-0.1,0-0.2,0-0.3h0C63.2,24.6,63.1,24.7,63.2,24.8L63,25.1h-0.1l-0.1-0.3c0-0.1-0.1-0.2-0.1-0.3h0
	c0,0.1,0,0.2,0,0.3l0,0.3h-0.2l0.1-0.8h0.2l0.1,0.3c0,0.1,0,0.2,0.1,0.3h0c0-0.1,0-0.2,0.1-0.3l0.1-0.3h0.2l0,0.8h-0.2L63.2,24.8z"
	/>
<g>
	<path class="st0" d="M88.8,12h-2.7v7.3h-1.5V12H82v-1.2h6.8V12z"/>
	<path class="st0" d="M91.1,13.7c0.5-0.5,1.1-0.8,1.8-0.8c1.4,0,2,0.8,2.1,2.3v4.1h-1.4v-4.1c0-0.4-0.1-0.7-0.3-0.9S92.8,14,92.4,14
		c-0.6,0-1,0.3-1.3,0.8v4.5h-1.4v-9h1.4V13.7z"/>
	<path class="st0" d="M99.2,19.4c-0.9,0-1.6-0.3-2.2-0.9s-0.8-1.3-0.8-2.3v-0.2c0-0.6,0.1-1.2,0.4-1.7s0.6-0.9,1-1.2
		s0.9-0.4,1.5-0.4c0.9,0,1.5,0.3,2,0.8s0.7,1.3,0.7,2.3v0.6h-4.1c0,0.5,0.2,0.9,0.5,1.2s0.7,0.5,1.2,0.5c0.7,0,1.2-0.3,1.6-0.8
		l0.8,0.7c-0.3,0.4-0.6,0.7-1,0.9S99.7,19.4,99.2,19.4z M99,14c-0.4,0-0.7,0.1-0.9,0.4s-0.4,0.7-0.5,1.1h2.7v-0.1
		c0-0.5-0.2-0.8-0.4-1.1S99.4,14,99,14z"/>
</g>
<g>
	<path class="st0" d="M182.3,40.4c-0.1-0.1-0.1-0.3-0.2-0.6c-0.5,0.5-1,0.7-1.7,0.7c-0.6,0-1.2-0.2-1.6-0.5s-0.6-0.8-0.6-1.3
		c0-0.7,0.3-1.2,0.8-1.6s1.2-0.5,2.2-0.5h0.9v-0.4c0-0.3-0.1-0.6-0.3-0.8s-0.5-0.3-0.8-0.3c-0.3,0-0.6,0.1-0.8,0.2s-0.3,0.4-0.3,0.6
		h-1.4c0-0.3,0.1-0.7,0.3-1s0.5-0.5,0.9-0.7s0.8-0.3,1.3-0.3c0.7,0,1.3,0.2,1.8,0.6s0.7,0.9,0.7,1.6v2.9c0,0.6,0.1,1,0.2,1.4v0.1
		H182.3z M180.7,39.4c0.3,0,0.5-0.1,0.8-0.2s0.4-0.3,0.6-0.6v-1.2h-0.8c-0.5,0-0.9,0.1-1.2,0.3s-0.4,0.4-0.4,0.8
		c0,0.3,0.1,0.5,0.3,0.7S180.4,39.4,180.7,39.4z"/>
	<path class="st0" d="M190.5,37.3c0,1-0.2,1.8-0.7,2.3s-1,0.9-1.8,0.9c-0.7,0-1.3-0.2-1.7-0.7v3H185V34h1.3l0.1,0.6
		c0.4-0.5,1-0.8,1.7-0.8c0.8,0,1.4,0.3,1.8,0.9S190.5,36.2,190.5,37.3L190.5,37.3z M189.1,37.2c0-0.6-0.1-1.1-0.4-1.5
		s-0.6-0.6-1.1-0.6c-0.6,0-1,0.2-1.3,0.7v2.8c0.3,0.5,0.7,0.7,1.3,0.7c0.5,0,0.8-0.2,1.1-0.5S189.1,37.9,189.1,37.2z"/>
	<path class="st0" d="M197.3,37.3c0,1-0.2,1.8-0.7,2.3s-1,0.9-1.8,0.9c-0.7,0-1.3-0.2-1.7-0.7v3h-1.4V34h1.3l0.1,0.6
		c0.4-0.5,1-0.8,1.7-0.8c0.8,0,1.4,0.3,1.8,0.9S197.3,36.2,197.3,37.3L197.3,37.3z M195.9,37.2c0-0.6-0.1-1.1-0.4-1.5
		s-0.6-0.6-1.1-0.6c-0.6,0-1,0.2-1.3,0.7v2.8c0.3,0.5,0.7,0.7,1.3,0.7c0.5,0,0.8-0.2,1.1-0.5S195.9,37.9,195.9,37.2z"/>
	<path class="st0" d="M199.4,38.9c0.3,0,0.5,0.1,0.6,0.2s0.2,0.3,0.2,0.6c0,0.2-0.1,0.4-0.2,0.6s-0.3,0.2-0.6,0.2
		c-0.3,0-0.5-0.1-0.6-0.2s-0.2-0.3-0.2-0.6s0.1-0.4,0.2-0.6S199.1,38.9,199.4,38.9z"/>
</g>
<g id="PG_x5F_Logo_x5F_Full_8_">
	<path class="st0" d="M166.2,30.9c0-0.2,0.1-0.4,0.2-0.5c0.1-0.1,0.3-0.2,0.5-0.2c0.2,0,0.3,0.1,0.5,0.2c0.1,0.1,0.2,0.3,0.2,0.5
		v7.5c0,0.2-0.1,0.4-0.2,0.5c-0.1,0.1-0.3,0.2-0.5,0.2c-0.2,0-0.3-0.1-0.5-0.2c-0.1-0.1-0.2-0.3-0.2-0.5V30.9z"/>
	<g>
		<g>
			<g>
				<path class="st0" d="M128.3,42.7c-0.6,0.4-1.2,0.6-2,0.6c-0.4,0-0.7-0.1-1-0.2c-0.2-0.1-0.5-0.2-0.7-0.3
					c-0.2-0.1-0.3-0.3-0.3-0.6c0-0.2,0.1-0.4,0.2-0.5c0.1-0.1,0.3-0.2,0.5-0.2c0.2,0,0.3,0,0.4,0.1c0.3,0.2,0.6,0.2,0.9,0.2
					c0.3,0,0.5,0,0.7-0.1c0.2-0.1,0.4-0.2,0.6-0.4c0.2-0.2,0.3-0.3,0.4-0.6c0.1-0.2,0.1-0.4,0.2-0.7v-5.1c0-0.2,0.1-0.3,0.2-0.5
					c0.1-0.1,0.3-0.2,0.5-0.2c0.2,0,0.3,0.1,0.5,0.2c0.1,0.1,0.2,0.3,0.2,0.5c0,0,0,4.2,0,5.1C129.6,41.2,129.1,42.1,128.3,42.7z"/>
				<path class="st0" d="M97.8,27.8c0-0.2,0.1-0.3,0.2-0.5c0.1-0.1,0.3-0.2,0.5-0.2c0.2,0,0.3,0.1,0.5,0.2c0.1,0.1,0.2,0.3,0.2,0.5
					v0.5c0,0.2-0.1,0.3-0.2,0.5c-0.1,0.1-0.3,0.2-0.5,0.2c-0.2,0-0.3-0.1-0.5-0.2c-0.1-0.1-0.2-0.3-0.2-0.5V27.8z M97.8,30.9
					c0-0.2,0.1-0.3,0.2-0.5c0.1-0.1,0.3-0.2,0.5-0.2c0.2,0,0.3,0.1,0.5,0.2c0.1,0.1,0.2,0.3,0.2,0.5v7.5c0,0.2-0.1,0.3-0.2,0.5
					C98.8,39,98.7,39,98.5,39c-0.2,0-0.3-0.1-0.5-0.2c-0.1-0.1-0.2-0.3-0.2-0.5V30.9z"/>
				<g>
					<path class="st0" d="M91.9,31.1c0-0.2,0.1-0.3,0.2-0.5c0.1-0.1,0.3-0.2,0.5-0.2c0.2,0,0.3,0,0.4,0.1c0.1,0.1,0.2,0.2,0.2,0.4
						c0.5-0.4,1.2-0.6,1.9-0.6c0.4,0,0.7,0.1,1,0.2c0.2,0.1,0.5,0.2,0.7,0.3c0.2,0.1,0.3,0.3,0.3,0.6c0,0.2-0.1,0.4-0.2,0.5
						C96.7,32,96.6,32,96.4,32c-0.2,0-0.3,0-0.4-0.1c-0.3-0.2-0.6-0.2-0.9-0.2c-0.3,0-0.5,0-0.7,0.1c-0.2,0.1-0.4,0.2-0.6,0.4
						c-0.2,0.2-0.3,0.3-0.4,0.5c-0.1,0.2-0.1,0.4-0.2,0.7v5c0,0.2-0.1,0.3-0.2,0.5C92.9,39,92.8,39,92.6,39c-0.2,0-0.3-0.1-0.5-0.2
						c-0.1-0.1-0.2-0.3-0.2-0.5v-5V31.1z"/>
				</g>
				<path class="st0" d="M100.1,31.2c0-0.1-0.1-0.2-0.1-0.3c0-0.2,0.1-0.3,0.2-0.5c0.1-0.1,0.3-0.2,0.5-0.2c0.1,0,0.3,0,0.4,0.1
					c0.1,0.1,0.2,0.2,0.3,0.3l2.6,6.1l2.6-6.1c0.1-0.3,0.3-0.4,0.6-0.4c0.2,0,0.4,0.1,0.5,0.2c0.1,0.1,0.2,0.3,0.2,0.5
					c0,0.1,0,0.2-0.1,0.3l-3.2,7.5c-0.1,0.3-0.3,0.4-0.6,0.4c-0.3,0-0.5-0.1-0.6-0.4L100.1,31.2z"/>
				<path class="st0" d="M108,33.4c0-0.4,0.1-0.9,0.2-1.2c0.2-0.4,0.4-0.7,0.7-1c0.3-0.3,0.6-0.5,1-0.7c0.4-0.2,0.8-0.2,1.3-0.2
					c0.4,0,0.9,0.1,1.2,0.2c0.4,0.2,0.7,0.4,1,0.7c0.3,0.3,0.5,0.6,0.7,1c0.2,0.4,0.3,0.8,0.3,1.2v5c0,0.2-0.1,0.3-0.2,0.5
					c-0.1,0.1-0.3,0.2-0.5,0.2c-0.2,0-0.3-0.1-0.4-0.2c-0.1-0.1-0.2-0.2-0.2-0.4c-0.5,0.4-1.2,0.6-1.9,0.6c-0.4,0-0.9-0.1-1.2-0.2
					c-0.4-0.2-0.7-0.4-1-0.7c-0.3-0.3-0.5-0.6-0.7-1c-0.2-0.4-0.3-0.8-0.3-1.2V33.4z M109.4,35.9c0,0.2,0.1,0.5,0.2,0.7
					c0.1,0.2,0.2,0.4,0.4,0.6c0.2,0.2,0.4,0.3,0.6,0.4c0.2,0.1,0.5,0.1,0.7,0.1c0.2,0,0.5,0,0.7-0.1c0.2-0.1,0.4-0.2,0.6-0.4
					c0.2-0.2,0.3-0.3,0.4-0.6c0.1-0.2,0.2-0.4,0.2-0.7v-2.6c0-0.2-0.1-0.5-0.2-0.7c-0.1-0.2-0.2-0.4-0.4-0.6
					c-0.2-0.2-0.4-0.3-0.6-0.4c-0.2-0.1-0.5-0.1-0.7-0.1c-0.3,0-0.5,0-0.7,0.1c-0.2,0.1-0.4,0.2-0.6,0.4c-0.2,0.2-0.3,0.4-0.4,0.6
					c-0.1,0.2-0.1,0.5-0.1,0.7V35.9z"/>
				<path class="st0" d="M115.7,33.4c0-0.4,0.1-0.9,0.3-1.3c0.2-0.4,0.4-0.7,0.7-1c0.3-0.3,0.7-0.5,1-0.7c0.4-0.2,0.8-0.2,1.3-0.2
					c0.1,0,0.2,0,0.5,0c0.2,0,0.5,0.1,0.8,0.2c0.3,0.1,0.6,0.3,0.9,0.6c0.3,0.3,0.5,0.6,0.7,1.1c0,0.1,0.1,0.2,0.1,0.2
					c0,0.2-0.1,0.3-0.2,0.5c-0.1,0.1-0.3,0.2-0.5,0.2c-0.1,0-0.3,0-0.4-0.1c-0.1-0.1-0.2-0.2-0.2-0.3c-0.2-0.4-0.4-0.6-0.7-0.8
					c-0.3-0.2-0.6-0.3-1-0.3c-0.3,0-0.5,0-0.7,0.1c-0.2,0.1-0.4,0.2-0.6,0.4c-0.2,0.2-0.3,0.4-0.4,0.6c-0.1,0.2-0.1,0.5-0.1,0.7v2.6
					c0,0.2,0.1,0.5,0.2,0.7c0.1,0.2,0.2,0.4,0.4,0.6c0.2,0.2,0.4,0.3,0.6,0.4c0.2,0.1,0.5,0.1,0.7,0.1c0.4,0,0.7-0.1,1-0.3
					c0.3-0.2,0.5-0.5,0.7-0.8c0.1-0.1,0.1-0.2,0.2-0.3c0.1-0.1,0.2-0.1,0.4-0.1c0.2,0,0.3,0.1,0.5,0.2c0.1,0.1,0.2,0.3,0.2,0.5
					c0,0.1,0,0.2-0.1,0.2c-0.2,0.5-0.5,0.9-0.9,1.2c-0.3,0.3-0.7,0.5-1,0.6c-0.3,0.1-0.6,0.2-0.8,0.2c-0.2,0-0.3,0-0.3,0
					c-0.4,0-0.9-0.1-1.2-0.2c-0.4-0.2-0.7-0.4-1-0.7c-0.3-0.3-0.5-0.6-0.7-1c-0.2-0.4-0.3-0.8-0.3-1.2V33.4z"/>
				<path class="st0" d="M140.2,30.9c0-0.2,0.1-0.3,0.2-0.5c0.1-0.1,0.3-0.2,0.5-0.2c0.2,0,0.3,0.1,0.5,0.2c0.1,0.1,0.2,0.3,0.2,0.5
					v5c0,0.2,0,0.5,0.1,0.7c0.1,0.2,0.2,0.4,0.4,0.6c0.2,0.2,0.4,0.3,0.6,0.4c0.2,0.1,0.5,0.1,0.7,0.1c0.2,0,0.5,0,0.7-0.1
					c0.2-0.1,0.4-0.2,0.6-0.4c0.2-0.2,0.3-0.4,0.4-0.6c0.1-0.2,0.2-0.5,0.2-0.7v-5c0-0.2,0.1-0.3,0.2-0.5c0.1-0.1,0.3-0.2,0.5-0.2
					c0.2,0,0.3,0.1,0.5,0.2c0.1,0.1,0.2,0.3,0.2,0.5v5c0,0.4-0.1,0.9-0.3,1.2c-0.2,0.4-0.4,0.7-0.7,1c-0.3,0.3-0.6,0.5-1,0.7
					c-0.4,0.2-0.8,0.2-1.2,0.2c-0.4,0-0.9-0.1-1.3-0.2c-0.4-0.2-0.7-0.4-1-0.7c-0.3-0.3-0.5-0.6-0.7-1c-0.2-0.4-0.2-0.8-0.2-1.2
					V30.9z"/>
				<path class="st0" d="M147.9,33.4c0-0.4,0.1-0.9,0.2-1.2c0.2-0.4,0.4-0.7,0.7-1c0.3-0.3,0.6-0.5,1-0.7c0.4-0.2,0.8-0.2,1.3-0.2
					c0.4,0,0.9,0.1,1.2,0.2c0.4,0.2,0.7,0.4,1,0.7c0.3,0.3,0.5,0.6,0.7,1c0.2,0.4,0.3,0.8,0.3,1.2v5c0,0.2-0.1,0.3-0.2,0.5
					c-0.1,0.1-0.3,0.2-0.5,0.2c-0.2,0-0.3-0.1-0.4-0.2c-0.1-0.1-0.2-0.2-0.2-0.4c-0.5,0.4-1.2,0.6-1.9,0.6c-0.4,0-0.9-0.1-1.2-0.2
					c-0.4-0.2-0.7-0.4-1-0.7c-0.3-0.3-0.5-0.6-0.7-1c-0.2-0.4-0.3-0.8-0.3-1.2V33.4z M149.2,35.9c0,0.2,0.1,0.5,0.2,0.7
					c0.1,0.2,0.2,0.4,0.4,0.6c0.2,0.2,0.4,0.3,0.6,0.4c0.2,0.1,0.5,0.1,0.7,0.1c0.2,0,0.5,0,0.7-0.1c0.2-0.1,0.4-0.2,0.6-0.4
					c0.2-0.2,0.3-0.3,0.4-0.6c0.1-0.2,0.2-0.4,0.2-0.7v-2.6c0-0.2-0.1-0.5-0.2-0.7c-0.1-0.2-0.2-0.4-0.4-0.6
					c-0.2-0.2-0.4-0.3-0.6-0.4c-0.2-0.1-0.5-0.1-0.7-0.1c-0.3,0-0.5,0-0.7,0.1c-0.2,0.1-0.4,0.2-0.6,0.4c-0.2,0.2-0.3,0.4-0.4,0.6
					c-0.1,0.2-0.1,0.5-0.1,0.7V35.9z"/>
				<g>
					<path class="st0" d="M155.6,31.1c0-0.2,0.1-0.3,0.2-0.5c0.1-0.1,0.3-0.2,0.5-0.2c0.2,0,0.3,0,0.4,0.1c0.1,0.1,0.2,0.2,0.2,0.4
						c0.5-0.4,1.2-0.6,1.9-0.6c0.4,0,0.7,0.1,1,0.2c0.2,0.1,0.5,0.2,0.7,0.3c0.2,0.1,0.3,0.3,0.3,0.6c0,0.2-0.1,0.4-0.2,0.5
						c-0.1,0.1-0.3,0.2-0.5,0.2c-0.2,0-0.3,0-0.4-0.1c-0.3-0.2-0.6-0.2-0.9-0.2c-0.3,0-0.5,0-0.7,0.1c-0.2,0.1-0.4,0.2-0.6,0.4
						c-0.2,0.2-0.3,0.3-0.4,0.5c-0.1,0.2-0.1,0.4-0.2,0.7v5c0,0.2-0.1,0.3-0.2,0.5c-0.1,0.1-0.3,0.2-0.5,0.2c-0.2,0-0.3-0.1-0.5-0.2
						c-0.1-0.1-0.2-0.3-0.2-0.5v-5V31.1z"/>
				</g>
				<path class="st0" d="M166.2,27.8c0-0.2,0.1-0.3,0.2-0.5c0.1-0.1,0.3-0.2,0.5-0.2c0.2,0,0.3,0.1,0.5,0.2c0.1,0.1,0.2,0.3,0.2,0.5
					v8.1c0,0.4-0.1,0.9-0.3,1.2c-0.2,0.4-0.4,0.7-0.7,1c-0.3,0.3-0.6,0.5-1,0.7c-0.4,0.2-0.8,0.2-1.2,0.2c-0.5,0-0.9-0.1-1.3-0.2
					c-0.4-0.2-0.7-0.4-1-0.7c-0.3-0.3-0.5-0.6-0.7-1c-0.2-0.4-0.2-0.8-0.2-1.2v-2.6c0-0.4,0.1-0.9,0.3-1.2c0.2-0.4,0.4-0.7,0.7-1
					c0.3-0.3,0.6-0.5,1-0.7c0.4-0.2,0.8-0.2,1.2-0.2c0.3,0,0.7,0.1,1,0.2c0.3,0.1,0.6,0.3,0.9,0.4V27.8z M162.5,35.9
					c0,0.2,0,0.5,0.1,0.7c0.1,0.2,0.2,0.4,0.4,0.6c0.2,0.2,0.4,0.3,0.6,0.4c0.2,0.1,0.5,0.1,0.7,0.1c0.2,0,0.5,0,0.7-0.1
					c0.2-0.1,0.4-0.2,0.6-0.4c0.2-0.2,0.3-0.4,0.4-0.6c0.1-0.2,0.2-0.5,0.2-0.7v-2.6c0-0.2,0-0.5-0.1-0.7c-0.1-0.2-0.2-0.4-0.4-0.6
					c-0.2-0.2-0.4-0.3-0.6-0.4c-0.2-0.1-0.5-0.1-0.7-0.1c-0.2,0-0.5,0-0.7,0.1c-0.2,0.1-0.4,0.2-0.6,0.4c-0.2,0.2-0.3,0.4-0.4,0.6
					c-0.1,0.2-0.2,0.5-0.2,0.7V35.9z"/>
				<path class="st0" d="M123.2,30.9c0-0.2,0.1-0.3,0.2-0.5c0.1-0.1,0.3-0.2,0.5-0.2c0.2,0,0.3,0.1,0.5,0.2c0.1,0.1,0.2,0.3,0.2,0.5
					v5c0,0.2,0,0.5,0.1,0.7c0.1,0.2,0.2,0.4,0.4,0.6c0.2,0.2,0.4,0.3,0.6,0.4c0.2,0.1,0.5,0.1,0.7,0.1c0.2,0,0.5,0,0.7-0.1
					c0.2-0.1,0.4-0.2,0.6-0.4c0.2-0.2,0.3-0.4,0.4-0.6c0.1-0.2,0.2-0.5,0.2-0.7v-5c0-0.2,0.1-0.3,0.2-0.5c0.1-0.1,0.3-0.2,0.5-0.2
					c0.2,0,0.3,0.1,0.5,0.2c0.1,0.1,0.2,0.3,0.2,0.5v5c0,0.4-0.1,0.9-0.3,1.2c-0.2,0.4-0.4,0.7-0.7,1c-0.3,0.3-0.6,0.5-1,0.7
					c-0.4,0.2-0.8,0.2-1.2,0.2c-0.4,0-0.9-0.1-1.3-0.2c-0.4-0.2-0.7-0.4-1-0.7c-0.3-0.3-0.5-0.6-0.7-1c-0.2-0.4-0.2-0.8-0.2-1.2
					V30.9z"/>
				<path class="st0" d="M138.3,33.1h-2.8c-0.4,0-0.7,0.3-0.7,0.7c0,0.4,0.3,0.7,0.7,0.7h2.2v1.1c0,1.4-1.3,2.5-2.7,2.5
					c-1.5,0-2.8-1-2.8-2.8v-4c0-1.6,1.2-2.8,2.8-2.8c1.3,0,2.3,0.9,2.7,1.9c0.1,0.2,0.3,0.4,0.6,0.4c0.5,0,0.9-0.4,0.6-1
					c-0.4-1.3-1.8-2.6-3.9-2.6c-2.4,0-4.2,1.9-4.2,4.1v4.2c0,2.2,1.8,4.1,4.2,4.1c2.2,0,4-1.7,4-3.7v-2
					C139,33.3,138.7,33.1,138.3,33.1z"/>
			</g>
		</g>
		<path class="st0" d="M166.2,30.9c0-0.2,0.1-0.3,0.2-0.5c0.1-0.1,0.3-0.2,0.5-0.2c0.2,0,0.3,0.1,0.5,0.2c0.1,0.1,0.2,0.3,0.2,0.5
			v7.5c0,0.2-0.1,0.3-0.2,0.5c-0.1,0.1-0.3,0.2-0.5,0.2c-0.2,0-0.3-0.1-0.5-0.2c-0.1-0.1-0.2-0.3-0.2-0.5V30.9z"/>
		<g>
			<path class="st0" d="M83.4,28.2c0-0.2,0.1-0.3,0.2-0.5c0.1-0.1,0.3-0.2,0.5-0.2h2.7h0c0.6,0,1.1,0.1,1.6,0.3
				c0.5,0.2,0.9,0.5,1.3,0.9c0.4,0.4,0.7,0.8,0.9,1.3c0.2,0.5,0.3,1,0.3,1.6c0,0.6-0.1,1.1-0.3,1.6c-0.2,0.5-0.5,0.9-0.9,1.3
				c-0.4,0.4-0.8,0.7-1.3,0.9c-0.5,0.2-1,0.3-1.6,0.3h-2v2.6c0,0.2-0.1,0.3-0.2,0.5C84.4,39,84.2,39,84,39c-0.2,0-0.3-0.1-0.5-0.2
				c-0.1-0.1-0.2-0.3-0.2-0.5V28.2z M84.7,28.9v5.5h2c0.4,0,0.8-0.1,1.1-0.2c0.3-0.1,0.6-0.3,0.9-0.6c0.3-0.2,0.5-0.5,0.6-0.9
				c0.1-0.3,0.2-0.7,0.2-1.1c0-0.4-0.1-0.7-0.2-1.1c-0.2-0.3-0.4-0.6-0.6-0.9c-0.3-0.2-0.6-0.4-0.9-0.6c-0.3-0.1-0.7-0.2-1.1-0.2
				H84.7z"/>
		</g>
	</g>
	<g>
		<path class="st0" d="M168.5,27.4h-0.2v-0.2h0.7v0.2h-0.3v0.8h-0.2V27.4z"/>
		<path class="st0" d="M169.8,27.8c0-0.1,0-0.2,0-0.4h0c0,0.1-0.1,0.3-0.1,0.4l-0.1,0.4h-0.2l-0.1-0.4c0-0.1-0.1-0.2-0.1-0.4h0
			c0,0.1,0,0.3,0,0.4l0,0.4H169l0.1-0.9h0.3l0.1,0.3c0,0.1,0.1,0.2,0.1,0.3h0c0-0.1,0.1-0.2,0.1-0.3l0.1-0.3h0.3l0.1,0.9h-0.2
			L169.8,27.8z"/>
	</g>
</g>
</svg>
