<svg id="Layer_1" xmlns="http://www.w3.org/2000/svg" viewBox="0 0 300 250"><style>.st0{fill:url(#SVGID_1_)}</style><linearGradient id="SVGID_1_" gradientUnits="userSpaceOnUse" x1="18.949" y1="111.346" x2="280.758" y2="111.346"><stop offset="0" stop-color="#18b9fb"/><stop offset=".5" stop-color="#782eeb"/><stop offset="1" stop-color="#e82d8a"/></linearGradient><path class="st0" d="M33.21 91.95h-5.12v13.89h-4.11V91.95h-5.03v-3.18h14.26v3.18zm8.46 4.78l-1.3-.09c-1.24 0-2.04.39-2.39 1.17v8.03h-3.95V93.15h3.7l.13 1.63c.66-1.24 1.59-1.86 2.78-1.86.42 0 .79.05 1.1.14l-.07 3.67zm8.22 9.1c-.14-.26-.27-.64-.38-1.14-.73.91-1.74 1.37-3.05 1.37-1.2 0-2.21-.36-3.05-1.08s-1.25-1.63-1.25-2.72c0-1.38.51-2.41 1.52-3.12 1.02-.7 2.49-1.05 4.43-1.05h1.22v-.67c0-1.17-.5-1.75-1.51-1.75-.94 0-1.41.46-1.41 1.39h-3.95c0-1.22.52-2.22 1.56-2.98 1.04-.76 2.37-1.15 3.99-1.15s2.89.39 3.83 1.18c.94.79 1.42 1.87 1.44 3.25v5.61c.02 1.16.2 2.05.54 2.67v.2h-3.93zm-2.48-2.57c.49 0 .9-.11 1.22-.32s.56-.45.7-.71v-2.03h-1.15c-1.38 0-2.06.62-2.06 1.85 0 .36.12.65.36.87s.56.34.93.34zm13.43-.24c.55 0 .98-.15 1.29-.45.3-.3.45-.72.45-1.26h3.7c0 1.39-.5 2.53-1.49 3.42s-2.28 1.34-3.85 1.34c-1.84 0-3.3-.58-4.36-1.73s-1.59-2.76-1.59-4.8v-.16c0-1.28.24-2.41.71-3.39s1.15-1.73 2.04-2.26c.89-.53 1.95-.79 3.16-.79 1.65 0 2.96.46 3.93 1.37.97.91 1.45 2.15 1.45 3.71h-3.7c0-.66-.16-1.16-.48-1.51s-.75-.53-1.29-.53c-1.02 0-1.62.65-1.79 1.96-.05.41-.08.98-.08 1.71 0 1.27.15 2.16.46 2.65s.78.72 1.44.72zm12.2-1.91l-1.11 1.11v3.61h-3.95V87.82h3.95v9.56l.4-.53 2.98-3.7h4.73l-4.44 5.21 4.73 7.46h-4.52l-2.77-4.71zm19.08-.81l2.11-7.15h4.23l-5.17 14.8-.22.54c-.73 1.64-2.03 2.46-3.89 2.46-.52 0-1.06-.08-1.63-.23v-2.81h.52c.55 0 .98-.08 1.27-.24s.51-.45.65-.86l.32-.84-4.41-12.82h4.22l2 7.15zm6.69-.92c0-1.27.25-2.39.74-3.38s1.2-1.75 2.12-2.28c.92-.53 2-.8 3.25-.8 1.9 0 3.39.59 4.49 1.76 1.09 1.18 1.64 2.78 1.64 4.8v.14c0 1.98-.55 3.54-1.65 4.71s-2.58 1.74-4.46 1.74c-1.8 0-3.25-.54-4.35-1.62-1.09-1.08-1.68-2.55-1.77-4.4l-.01-.67zm3.95.24c0 1.17.18 2.03.55 2.58.37.55.91.82 1.63.82 1.41 0 2.12-1.08 2.16-3.25v-.4c0-2.27-.73-3.41-2.18-3.41-1.32 0-2.04.98-2.14 2.94l-.02.72zm17.58 4.84c-.84 1.07-1.96 1.61-3.39 1.61-1.39 0-2.44-.4-3.16-1.21s-1.07-1.97-1.07-3.49v-8.21h3.95v8.24c0 1.09.53 1.63 1.58 1.63.91 0 1.55-.32 1.93-.97v-8.89h3.97v12.68h-3.7l-.11-1.39zm13.65-7.73l-1.3-.09c-1.24 0-2.04.39-2.39 1.17v8.03h-3.95V93.15h3.7l.13 1.63c.66-1.24 1.59-1.86 2.78-1.86.42 0 .79.05 1.1.14l-.07 3.67zm12.76 6.29c.55 0 .98-.15 1.29-.45s.45-.72.45-1.26h3.7c0 1.39-.5 2.53-1.49 3.42s-2.28 1.34-3.85 1.34c-1.84 0-3.3-.58-4.36-1.73s-1.59-2.76-1.59-4.8v-.16c0-1.28.24-2.41.71-3.39s1.15-1.73 2.04-2.26c.89-.53 1.95-.79 3.16-.79 1.65 0 2.96.46 3.93 1.37.97.91 1.45 2.15 1.45 3.71h-3.7c0-.66-.16-1.16-.48-1.51-.32-.35-.75-.53-1.29-.53-1.02 0-1.62.65-1.79 1.96-.05.41-.08.98-.08 1.71 0 1.27.15 2.16.46 2.65s.78.72 1.44.72zm14.78-6.29l-1.3-.09c-1.24 0-2.04.39-2.39 1.17v8.03h-3.95V93.15h3.7l.13 1.63c.66-1.24 1.59-1.86 2.78-1.86.42 0 .79.05 1.1.14l-.07 3.67zm7.34 9.34c-1.95 0-3.52-.58-4.72-1.74s-1.8-2.67-1.8-4.53v-.33c0-1.3.24-2.44.72-3.43s1.18-1.76 2.1-2.3c.92-.54 2.02-.81 3.28-.81 1.78 0 3.19.55 4.22 1.66 1.03 1.11 1.55 2.65 1.55 4.62v1.54h-7.85c.14.71.45 1.27.93 1.68s1.09.61 1.85.61c1.25 0 2.23-.44 2.93-1.31l1.8 2.13c-.49.68-1.19 1.22-2.09 1.62s-1.88.59-2.92.59zm-.45-10.1c-1.16 0-1.84.77-2.06 2.3h3.98v-.3c.02-.63-.14-1.12-.48-1.47s-.81-.53-1.44-.53zm6.88 3.43c0-2.01.43-3.59 1.3-4.75.87-1.16 2.08-1.73 3.63-1.73 1.13 0 2.09.45 2.86 1.34v-6.42h3.96v18h-3.55l-.2-1.36c-.81 1.06-1.84 1.59-3.09 1.59-1.51 0-2.7-.58-3.59-1.73s-1.32-2.81-1.32-4.94zm3.95.25c0 2.25.66 3.38 1.97 3.38.88 0 1.5-.37 1.88-1.1V97.1c-.36-.75-.98-1.12-1.85-1.12-1.22 0-1.88.98-1.98 2.95l-.02.72zm10.02-9.76c0-.56.2-1.02.61-1.38s.93-.54 1.58-.54 1.18.18 1.58.54.61.82.61 1.38-.2 1.02-.61 1.38-.93.54-1.58.54-1.18-.18-1.58-.54-.61-.82-.61-1.38zm4.19 15.94h-3.96V93.15h3.96v12.68zM200.5 90v3.15h2.09v2.74h-2.09v5.8c0 .48.09.81.26 1s.51.28 1.02.28c.39 0 .72-.02.98-.07v2.82c-.71.23-1.45.34-2.23.34-1.36 0-2.36-.32-3.01-.96s-.97-1.61-.97-2.92V95.9h-1.62v-2.74h1.62V90h3.95zm16.25 12.27c0-.34-.18-.61-.53-.81s-1.02-.41-2-.63-1.8-.51-2.44-.86-1.13-.79-1.46-1.29-.5-1.09-.5-1.75c0-1.16.48-2.12 1.44-2.88.96-.75 2.22-1.13 3.77-1.13 1.67 0 3.02.38 4.03 1.14 1.02.76 1.52 1.75 1.52 2.99h-3.96c0-1.02-.54-1.52-1.61-1.52-.41 0-.76.12-1.04.35s-.42.52-.42.86c0 .35.17.64.52.86s.89.4 1.65.54 1.42.31 1.99.5c1.91.66 2.86 1.83 2.86 3.53 0 1.16-.51 2.1-1.54 2.82s-2.36 1.09-3.99 1.09c-1.09 0-2.05-.2-2.91-.59s-1.52-.92-1.99-1.59-.71-1.38-.71-2.12h3.69c.02.59.21 1.01.59 1.28s.86.4 1.44.4c.54 0 .94-.11 1.21-.33s.39-.51.39-.86zm11.02.75c.55 0 .98-.15 1.29-.45s.45-.72.45-1.26h3.7c0 1.39-.5 2.53-1.49 3.42s-2.28 1.34-3.85 1.34c-1.84 0-3.3-.58-4.36-1.73-1.06-1.16-1.59-2.76-1.59-4.8v-.16c0-1.28.24-2.41.71-3.39s1.15-1.73 2.04-2.26c.89-.53 1.95-.79 3.16-.79 1.65 0 2.96.46 3.93 1.37.97.91 1.45 2.15 1.45 3.71h-3.7c0-.66-.16-1.16-.48-1.51s-.75-.53-1.29-.53c-1.02 0-1.62.65-1.79 1.96-.05.41-.08.98-.08 1.71 0 1.27.15 2.16.46 2.65.29.48.77.72 1.44.72zm6.61-3.64c0-1.27.25-2.39.74-3.38s1.2-1.75 2.12-2.28c.92-.53 2-.8 3.25-.8 1.9 0 3.39.59 4.49 1.76 1.09 1.18 1.64 2.78 1.64 4.8v.14c0 1.98-.55 3.54-1.65 4.71s-2.58 1.74-4.46 1.74c-1.8 0-3.25-.54-4.35-1.62-1.09-1.08-1.68-2.55-1.77-4.4l-.01-.67zm3.94.24c0 1.17.18 2.03.55 2.58s.91.82 1.63.82c1.41 0 2.12-1.08 2.16-3.25v-.4c0-2.27-.73-3.41-2.18-3.41-1.32 0-2.04.98-2.14 2.94l-.02.72zm17.7-2.89l-1.3-.09c-1.24 0-2.04.39-2.39 1.17v8.03h-3.95V93.15h3.7l.13 1.63c.66-1.24 1.59-1.86 2.78-1.86.42 0 .79.05 1.1.14l-.07 3.67zm7.34 9.34c-1.95 0-3.52-.58-4.72-1.74s-1.8-2.67-1.8-4.53v-.33c0-1.3.24-2.44.72-3.43s1.18-1.76 2.1-2.3c.92-.54 2.02-.81 3.28-.81 1.78 0 3.19.55 4.22 1.66 1.03 1.11 1.55 2.65 1.55 4.62v1.54h-7.85c.14.71.45 1.27.93 1.68s1.09.61 1.85.61c1.25 0 2.23-.44 2.93-1.31l1.8 2.13c-.49.68-1.19 1.22-2.09 1.62s-1.89.59-2.92.59zm-.45-10.1c-1.16 0-1.84.77-2.06 2.3h3.98v-.3c.02-.63-.14-1.12-.48-1.47s-.81-.53-1.44-.53zm14.02 6.3c0-.34-.18-.61-.53-.81s-1.02-.41-2-.63-1.8-.51-2.44-.86-1.13-.79-1.46-1.29-.5-1.09-.5-1.75c0-1.16.48-2.12 1.44-2.88.96-.75 2.22-1.13 3.77-1.13 1.67 0 3.02.38 4.03 1.14 1.02.76 1.52 1.75 1.52 2.99h-3.96c0-1.02-.54-1.52-1.61-1.52-.41 0-.76.12-1.04.35s-.42.52-.42.86c0 .35.17.64.52.86s.89.4 1.65.54 1.42.31 1.99.5c1.91.66 2.86 1.83 2.86 3.53 0 1.16-.51 2.1-1.54 2.82s-2.36 1.09-3.99 1.09c-1.09 0-2.05-.2-2.91-.59s-1.52-.92-1.99-1.59-.71-1.38-.71-2.12h3.69c.02.59.21 1.01.59 1.28s.86.4 1.44.4c.54 0 .94-.11 1.21-.33s.39-.51.39-.86zm-183.32 32.6c-1.95 0-3.52-.58-4.72-1.74s-1.8-2.67-1.8-4.53v-.33c0-1.3.24-2.44.72-3.43s1.18-1.76 2.1-2.3 2.02-.81 3.28-.81c1.78 0 3.19.55 4.22 1.66 1.03 1.11 1.55 2.65 1.55 4.62v1.54H91.1c.14.71.45 1.27.93 1.68s1.09.61 1.85.61c1.25 0 2.23-.44 2.93-1.31l1.8 2.13c-.49.68-1.19 1.22-2.09 1.62s-1.87.59-2.91.59zm-.45-10.1c-1.16 0-1.84.77-2.06 2.3h3.98v-.3c.02-.63-.14-1.12-.48-1.47s-.81-.53-1.44-.53zm14.52 9.86c-.14-.26-.27-.64-.38-1.14-.73.91-1.74 1.37-3.05 1.37-1.2 0-2.21-.36-3.05-1.08s-1.25-1.63-1.25-2.72c0-1.38.51-2.41 1.52-3.12s2.49-1.05 4.43-1.05h1.22v-.67c0-1.17-.5-1.75-1.51-1.75-.94 0-1.41.46-1.41 1.39h-3.95c0-1.22.52-2.22 1.56-2.98s2.37-1.15 3.99-1.15 2.89.39 3.83 1.18 1.42 1.87 1.44 3.25v5.61c.02 1.16.2 2.05.54 2.67v.2h-3.93zm-2.47-2.57c.49 0 .9-.11 1.22-.32s.56-.45.7-.71V129h-1.15c-1.38 0-2.06.62-2.06 1.85 0 .36.12.65.36.87s.56.34.93.34zm13.43-.24c.55 0 .98-.15 1.29-.45s.45-.72.45-1.26h3.7c0 1.39-.5 2.53-1.49 3.42s-2.28 1.34-3.85 1.34c-1.84 0-3.3-.58-4.36-1.73-1.06-1.16-1.59-2.76-1.59-4.8v-.16c0-1.28.24-2.41.71-3.39s1.15-1.73 2.04-2.26 1.95-.79 3.16-.79c1.65 0 2.96.46 3.93 1.37s1.45 2.15 1.45 3.71h-3.7c0-.66-.16-1.16-.48-1.51s-.75-.53-1.29-.53c-1.02 0-1.62.65-1.79 1.96-.05.41-.08.98-.08 1.71 0 1.27.15 2.16.46 2.65.29.48.78.72 1.44.72zm10.97-8.51c.84-1.06 1.92-1.59 3.23-1.59 1.4 0 2.45.41 3.16 1.24s1.07 2.05 1.09 3.67v8h-3.96v-7.91c0-.67-.14-1.17-.41-1.48s-.74-.47-1.39-.47c-.81 0-1.39.26-1.72.77v9.09h-3.95v-18h3.95v6.68zm19.39-1.36l.13 1.49c.9-1.15 2.11-1.72 3.62-1.72 1.6 0 2.68.64 3.25 1.91.86-1.27 2.1-1.91 3.73-1.91 2.57 0 3.89 1.55 3.96 4.66v8.25h-3.96v-8c0-.65-.11-1.12-.33-1.42s-.62-.45-1.2-.45c-.78 0-1.36.35-1.75 1.04l.01.16v8.66h-3.96v-7.98c0-.66-.11-1.14-.32-1.44s-.61-.45-1.21-.45c-.76 0-1.34.35-1.73 1.04v8.82h-3.95v-12.68H149zm16.45 6.23c0-1.27.25-2.39.74-3.38s1.2-1.75 2.12-2.28 2-.8 3.25-.8c1.9 0 3.39.59 4.49 1.76s1.64 2.78 1.64 4.8v.14c0 1.98-.55 3.54-1.65 4.71s-2.58 1.74-4.46 1.74c-1.8 0-3.25-.54-4.35-1.62s-1.68-2.55-1.77-4.4l-.01-.67zm3.94.24c0 1.17.18 2.03.55 2.58.37.55.91.82 1.63.82 1.41 0 2.12-1.08 2.16-3.25v-.4c0-2.27-.73-3.41-2.18-3.41-1.32 0-2.04.98-2.14 2.94l-.02.72zm13.66-6.47l.13 1.49c.88-1.15 2.08-1.72 3.62-1.72 1.32 0 2.31.39 2.96 1.18s.99 1.98 1.01 3.56v8.17h-3.96v-8c0-.64-.13-1.11-.39-1.41s-.73-.45-1.41-.45c-.77 0-1.35.3-1.72.91v8.95h-3.95v-12.68h3.71zm14.5-3.15v3.15h2.09v2.74h-2.09v5.8c0 .48.09.81.26 1 .17.19.51.28 1.02.28.39 0 .72-.02.98-.07v2.82c-.71.23-1.45.34-2.23.34-1.36 0-2.36-.32-3.01-.96s-.97-1.61-.97-2.92v-6.29h-1.62v-2.74h1.62v-3.15h3.95zm7.5 4.51c.84-1.06 1.92-1.59 3.23-1.59 1.4 0 2.45.41 3.16 1.24s1.07 2.05 1.09 3.67v8h-3.96v-7.91c0-.67-.14-1.17-.41-1.48s-.74-.47-1.39-.47c-.81 0-1.39.26-1.72.77v9.09h-3.95v-18h3.95v6.68z"/></svg>