<svg id="Layer_1" xmlns="http://www.w3.org/2000/svg" viewBox="0 0 300 250"><style>.st0{fill:#e72f8a}</style><path class="st0" d="M87.3 51.9h-3.4v3.5h-1.8v-8.5h5.6v1.4h-3.8v2.2h3.4v1.4zM92 50.7h-.6c-.6 0-1.1.2-1.3.7v4.1h-1.7v-6.3H90v.8c.3-.6.8-.9 1.4-.9.2 0 .4 0 .5.1l.1 1.5zM95.8 55.5c-.9 0-1.7-.3-2.3-.9s-.9-1.3-.9-2.3v-.2c0-.6.1-1.2.4-1.7s.6-.9 1-1.2 1-.4 1.5-.4c.9 0 1.5.3 2 .8s.7 1.3.7 2.3v.7h-4c.1.4.2.7.5 1s.6.4 1 .4c.7 0 1.2-.2 1.5-.7l.8.9c-.3.4-.6.6-1 .8s-.7.5-1.2.5zm-.2-5.2c-.3 0-.6.1-.8.3s-.3.6-.4 1h2.4v-.1c0-.4-.1-.7-.3-.9s-.6-.3-.9-.3zM102.2 55.5c-.9 0-1.7-.3-2.3-.9s-.9-1.3-.9-2.3v-.2c0-.6.1-1.2.4-1.7s.6-.9 1-1.2 1-.4 1.5-.4c.9 0 1.5.3 2 .8s.7 1.3.7 2.3v.7h-4c.1.4.2.7.5 1s.6.4 1 .4c.7 0 1.2-.2 1.5-.7l.8.9c-.3.4-.6.6-1 .8s-.6.5-1.2.5zm-.1-5.2c-.3 0-.6.1-.8.3s-.3.6-.4 1h2.4v-.1c0-.4-.1-.7-.3-.9s-.6-.3-.9-.3zM109.5 55.4v-5.5h-1v-.8h1v-.7c0-.7.2-1.2.5-1.6s.9-.6 1.5-.6c.2 0 .5 0 .7.1l-.1.9c-.2 0-.4-.1-.6-.1-.4 0-.6.1-.8.3s-.3.5-.3.9v.7h1.4v.8h-1.4v5.5h-.9zM112.9 52.2c0-.6.1-1.2.4-1.7s.6-.9 1-1.1.9-.4 1.5-.4c.9 0 1.6.3 2.1.9s.8 1.4.8 2.4v.1c0 .6-.1 1.2-.4 1.7s-.6.9-1 1.1-.9.4-1.5.4c-.9 0-1.6-.3-2.1-.9s-.8-1.5-.8-2.5zm1 .1c0 .7.2 1.3.5 1.7s.8.6 1.3.6c.6 0 1-.2 1.3-.6s.5-1 .5-1.8c0-.7-.2-1.3-.5-1.7s-.8-.6-1.3-.6-1 .2-1.3.6-.5 1-.5 1.8zM123 50.1h-.5c-.7 0-1.2.3-1.4.9v4.5H120v-6.3h1.1v.7c.4-.6.9-.8 1.5-.8.2 0 .4 0 .5.1v.9zM128.3 52.1v3.3h-1.1v-8.5h3.1c.9 0 1.7.2 2.2.7s.8 1.1.8 1.9c0 .8-.3 1.5-.8 1.9s-1.3.7-2.2.7h-2zm0-.9h2c.6 0 1.1-.1 1.4-.4.3-.3.5-.7.5-1.2s-.2-.9-.5-1.2-.8-.5-1.3-.5h-2.1v3.3zM137.6 50.1h-.5c-.7 0-1.2.3-1.4.9v4.5h-1.1v-6.3h1.1v.7c.4-.6.9-.8 1.5-.8.2 0 .4 0 .5.1v.9zM138.6 47.4c0-.2.1-.3.2-.4s.3-.2.5-.2.4.1.5.2.2.3.2.4-.1.3-.2.4-.3.2-.5.2-.4-.1-.5-.2-.2-.2-.2-.4zm1.2 8h-1.1v-6.3h1.1v6.3zM143.6 53.9l1.6-4.9h1.1l-2.3 6.3h-.8l-2.3-6.3h1.1l1.6 4.9zM151.2 55.4c-.1-.1-.1-.3-.2-.7-.5.5-1.1.8-1.8.8-.6 0-1.1-.2-1.5-.5s-.6-.8-.6-1.3c0-.7.3-1.2.8-1.5s1.2-.5 2.1-.5h1.1v-.5c0-.4-.1-.7-.3-.9s-.6-.3-1-.3-.7.1-1 .3-.4.4-.4.7h-1.1c0-.3.1-.6.3-.9s.5-.5.9-.7.8-.3 1.3-.3c.7 0 1.3.2 1.7.5s.6.9.6 1.5V54c0 .6.1 1 .2 1.4v.1h-1.1zm-1.8-.8c.3 0 .7-.1 1-.3s.5-.4.7-.7v-1.3h-.8c-1.3 0-2 .4-2 1.2 0 .3.1.6.3.8s.4.3.8.3zM156.4 54.6c.4 0 .7-.1 1-.4s.4-.5.5-.9h1c0 .4-.1.7-.4 1s-.5.6-.9.8-.8.3-1.2.3c-.9 0-1.5-.3-2.1-.9s-.8-1.4-.8-2.4v-.2c0-.6.1-1.2.3-1.6s.6-.9 1-1.1.9-.4 1.5-.4c.7 0 1.3.2 1.8.6s.7 1 .8 1.7h-1c0-.4-.2-.7-.5-1s-.6-.4-1-.4c-.6 0-1 .2-1.3.6s-.5 1-.5 1.7v.2c0 .7.2 1.3.5 1.7s.7.7 1.3.7zM162.2 53.8l1.5-4.8h1.2l-2.5 7.3c-.4 1.1-1 1.6-1.9 1.6h-.2l-.4-.1V57h.3c.4 0 .7-.1.9-.2s.4-.4.5-.8l.2-.6-2.3-6.3h1.2l1.5 4.7zM172.2 54.3c-.3.4-.7.7-1.2.9s-1.1.3-1.8.3-1.3-.2-1.9-.5-1-.8-1.3-1.4-.4-1.3-.5-2.1v-.7c0-1.3.3-2.3.9-3s1.4-1.1 2.5-1.1c.9 0 1.6.2 2.2.7s.9 1.1 1 1.9H171c-.2-1.1-.9-1.7-2-1.7-.8 0-1.3.3-1.7.8-.4.5-.6 1.3-.6 2.3v.7c0 1 .2 1.7.7 2.3.4.6 1 .8 1.8.8.4 0 .8 0 1.1-.1.3-.1.6-.3.8-.5V52h-2v-.9h3.1v3.2zM177.9 54.8c-.4.5-1 .7-1.9.7-.7 0-1.2-.2-1.5-.6s-.5-1-.5-1.7v-4.1h1.1v4.1c0 1 .4 1.4 1.2 1.4.8 0 1.4-.3 1.7-.9v-4.6h1.1v6.3h-1l-.2-.6zM184.5 55.4c-.1-.1-.1-.3-.2-.7-.5.5-1.1.8-1.8.8-.6 0-1.1-.2-1.5-.5s-.6-.8-.6-1.3c0-.7.3-1.2.8-1.5s1.2-.5 2.1-.5h1.1v-.5c0-.4-.1-.7-.3-.9s-.6-.3-1-.3-.7.1-1 .3-.4.4-.4.7h-1.1c0-.3.1-.6.3-.9s.5-.5.9-.7.8-.3 1.3-.3c.7 0 1.3.2 1.7.5s.6.9.6 1.5V54c0 .6.1 1 .2 1.4v.1h-1.1zm-1.8-.8c.3 0 .7-.1 1-.3s.5-.4.7-.7v-1.3h-.8c-1.3 0-2 .4-2 1.2 0 .3.1.6.3.8s.4.3.8.3zM190.1 50.1h-.5c-.7 0-1.2.3-1.4.9v4.5h-1.1v-6.3h1.1v.7c.4-.6.9-.8 1.5-.8.2 0 .4 0 .5.1v.9zM190.9 52.2c0-1 .2-1.8.7-2.3s1.1-.9 1.8-.9 1.3.3 1.8.8v-3.3h1.1v9h-1l-.1-.7c-.4.5-1 .8-1.8.8-.7 0-1.3-.3-1.8-.9s-.7-1.5-.7-2.5zm1.1.1c0 .7.1 1.3.4 1.7s.7.6 1.2.6c.7 0 1.2-.3 1.5-.9v-2.9c-.3-.6-.8-.9-1.5-.9-.5 0-.9.2-1.2.6s-.4 1-.4 1.8zM201.9 49.1v.7c.5-.5 1.1-.8 1.9-.8.9 0 1.5.3 1.8 1 .2-.3.5-.6.8-.7s.7-.3 1.2-.3c1.4 0 2.1.7 2.1 2.2v4.2h-1.1v-4.2c0-.5-.1-.8-.3-1s-.6-.3-1-.3-.7.1-1 .4-.4.6-.5 1v4.2h-1.1v-4.2c0-.9-.5-1.4-1.4-1.4-.7 0-1.2.3-1.5.9v4.6h-1.1v-6.3h1.2zM214 55.5c-.9 0-1.6-.3-2.1-.8s-.8-1.3-.8-2.3v-.2c0-.6.1-1.2.4-1.7s.6-.9 1-1.2.9-.4 1.4-.4c.8 0 1.5.3 1.9.8s.7 1.3.7 2.3v.5h-4.3c0 .6.2 1.1.5 1.5s.8.6 1.3.6c.4 0 .7-.1 1-.2s.5-.4.7-.6l.7.5c-.5.8-1.3 1.2-2.4 1.2zm-.1-5.6c-.4 0-.8.2-1.1.5s-.5.8-.6 1.3h3.2v-.1c0-.6-.2-1-.4-1.3s-.7-.4-1.1-.4zM218.8 49.1v.7c.5-.5 1.1-.8 1.9-.8.9 0 1.5.3 1.8 1 .2-.3.5-.6.8-.7s.7-.3 1.2-.3c1.4 0 2.1.7 2.1 2.2v4.2h-1.1v-4.2c0-.5-.1-.8-.3-1s-.6-.3-1-.3-.7.1-1 .4-.4.6-.5 1v4.2h-1.1v-4.2c0-.9-.5-1.4-1.4-1.4-.7 0-1.2.3-1.5.9v4.6h-1.1v-6.3h1.2zM233.6 52.3c0 1-.2 1.7-.7 2.3s-1 .9-1.8.9-1.4-.3-1.9-.8l-.1.7h-1v-9h1.1v3.4c.4-.5 1-.8 1.8-.8s1.4.3 1.8.9.8 1.3.8 2.4zm-1-.1c0-.7-.1-1.3-.4-1.7s-.7-.6-1.2-.6c-.7 0-1.2.3-1.5 1v2.7c.3.7.8 1 1.6 1 .5 0 .9-.2 1.2-.6s.3-1 .3-1.8zM237.6 55.5c-.9 0-1.6-.3-2.1-.8s-.8-1.3-.8-2.3v-.2c0-.6.1-1.2.4-1.7s.6-.9 1-1.2.9-.4 1.4-.4c.8 0 1.5.3 1.9.8s.7 1.3.7 2.3v.5h-4.3c0 .6.2 1.1.5 1.5s.8.6 1.3.6c.4 0 .7-.1 1-.2s.5-.4.7-.6l.7.5c-.5.8-1.3 1.2-2.4 1.2zm-.1-5.6c-.4 0-.8.2-1.1.5s-.5.8-.6 1.3h3.2v-.1c0-.6-.2-1-.4-1.3s-.6-.4-1.1-.4zM244.4 50.1h-.5c-.7 0-1.2.3-1.4.9v4.5h-1.1v-6.3h1.1v.7c.4-.6.9-.8 1.5-.8.2 0 .4 0 .5.1v.9zM249.1 53.7c0-.3-.1-.5-.3-.7s-.6-.3-1.2-.4-1-.3-1.3-.4-.6-.4-.7-.6-.2-.5-.2-.8c0-.5.2-1 .7-1.3s1-.5 1.7-.5 1.3.2 1.7.6.7.8.7 1.4h-1.1c0-.3-.1-.6-.4-.8s-.6-.3-1-.3-.7.1-.9.3-.3.4-.3.7c0 .3.1.5.3.6s.6.3 1.1.4 1 .3 1.3.4.6.4.7.6.2.5.2.9c0 .6-.2 1-.7 1.4s-1 .5-1.8.5c-.5 0-1-.1-1.3-.3s-.7-.4-.9-.8-.3-.7-.3-1h1.1c0 .4.2.7.4.9s.6.3 1.1.3c.4 0 .7-.1 1-.2s.4-.6.4-.9zM251.6 54.8c0-.2.1-.3.2-.5s.3-.2.5-.2.4.1.5.2.2.3.2.5-.1.3-.2.5-.3.2-.5.2-.4-.1-.5-.2-.2-.3-.2-.5z"/></svg>