<svg id="Layer_1" xmlns="http://www.w3.org/2000/svg" viewBox="0 0 300 250"><style>.st0{fill:url(#SVGID_1_)}.st1{fill:url(#SVGID_2_)}.st2{fill:url(#SVGID_3_)}.st3{fill:url(#SVGID_4_)}.st4{fill:url(#SVGID_5_)}</style><g id="Receive"><linearGradient id="SVGID_1_" gradientUnits="userSpaceOnUse" x1="-259.935" y1="116.027" x2="-124.132" y2="116.027"><stop offset="0" stop-color="#41b5e8"/><stop offset=".5" stop-color="#6a53a3"/><stop offset="1" stop-color="#e72e8a"/></linearGradient><path class="st0" d="M-228.7 47.6h-2.6v7h-4.8V34.7h7.8c2.4 0 4.2.5 5.5 1.6 1.3 1 2 2.5 2 4.4 0 1.4-.3 2.5-.8 3.4-.6.9-1.4 1.6-2.6 2.2l4.2 8v.2h-5.1l-3.6-6.9zm-2.6-3.7h3c.9 0 1.6-.2 2.1-.7.5-.5.7-1.1.7-2 0-.9-.2-1.5-.7-2-.5-.5-1.1-.7-2.1-.7h-3v5.4zm20.4 11c-2.3 0-4.1-.7-5.5-2s-2.1-3.1-2.1-5.3v-.4c0-1.5.3-2.8.8-4s1.4-2.1 2.5-2.7 2.4-1 3.8-1c2.1 0 3.7.6 4.9 1.9s1.8 3.1 1.8 5.4v1.8h-9.2c.2.8.5 1.5 1.1 2s1.3.7 2.2.7c1.5 0 2.6-.5 3.4-1.5l2.1 2.5c-.6.8-1.4 1.4-2.4 1.9s-2.1.7-3.4.7zm-.5-11.8c-1.3 0-2.2.9-2.4 2.7h4.6v-.4c0-.7-.2-1.3-.6-1.7s-.8-.6-1.6-.6zm14.4 6l2.3-9.3h4.9l-4.8 14.8h-4.7l-4.8-14.8h4.9l2.2 9.3zm8.5-13.1c0-.7.2-1.2.7-1.6s1.1-.6 1.8-.6 1.4.2 1.8.6.7 1 .7 1.6-.2 1.2-.7 1.6-1.1.6-1.8.6-1.4-.2-1.8-.6-.7-.9-.7-1.6zm4.9 18.6h-4.6V39.8h4.6v14.8zm10 .3c-2.3 0-4.1-.7-5.5-2s-2.1-3.1-2.1-5.3v-.4c0-1.5.3-2.8.8-4s1.4-2.1 2.5-2.7 2.4-1 3.8-1c2.1 0 3.7.6 4.9 1.9s1.8 3.1 1.8 5.4v1.8h-9.2c.2.8.5 1.5 1.1 2s1.3.7 2.2.7c1.5 0 2.6-.5 3.4-1.5l2.1 2.5c-.6.8-1.4 1.4-2.4 1.9s-2.2.7-3.4.7zm-.5-11.8c-1.3 0-2.2.9-2.4 2.7h4.6v-.4c0-.7-.2-1.3-.6-1.7s-.9-.6-1.6-.6zm21.3 5.4l1.5-8.7h4.4l-3.5 14.8h-3.9l-2.4-8.8-2.5 8.8h-3.9l-3.5-14.8h4.4l1.5 8.9 2.4-8.9h3.2l2.3 8.7zm-68.3 36.4c.6 0 1.1-.2 1.5-.5s.5-.8.5-1.5h4.3c0 1.6-.6 3-1.7 4s-2.7 1.6-4.5 1.6c-2.2 0-3.8-.7-5.1-2s-1.9-3.2-1.9-5.6v-.2c0-1.5.3-2.8.8-4s1.3-2 2.4-2.6 2.3-.9 3.7-.9c1.9 0 3.5.5 4.6 1.6s1.7 2.5 1.7 4.3h-4.3c0-.8-.2-1.4-.6-1.8s-.9-.6-1.5-.6c-1.2 0-1.9.8-2.1 2.3-.1.5-.1 1.1-.1 2 0 1.5.2 2.5.5 3.1s1 .8 1.8.8zm17.3-7.3l-1.5-.1c-1.4 0-2.4.5-2.8 1.4v9.4h-4.6V73.4h4.3l.2 1.9c.8-1.4 1.9-2.2 3.2-2.2.5 0 .9.1 1.3.2l-.1 4.3zm8.5 10.9c-2.3 0-4.1-.7-5.5-2s-2.1-3.1-2.1-5.3v-.4c0-1.5.3-2.8.8-4s1.4-2.1 2.5-2.7 2.4-1 3.8-1c2.1 0 3.7.6 4.9 1.9s1.8 3.1 1.8 5.4v1.8h-9.2c.2.8.5 1.5 1.1 2s1.3.7 2.2.7c1.5 0 2.6-.5 3.4-1.5l2.1 2.5c-.6.8-1.4 1.4-2.4 1.9s-2.2.7-3.4.7zm-.5-11.8c-1.3 0-2.2.9-2.4 2.7h4.6V79c0-.7-.2-1.3-.6-1.7s-.9-.6-1.6-.6zm8 4c0-2.3.5-4.2 1.5-5.5s2.4-2 4.2-2c1.3 0 2.4.5 3.3 1.6v-7.5h4.6v21h-4.1l-.2-1.6c-.9 1.2-2.2 1.9-3.6 1.9-1.8 0-3.2-.7-4.2-2s-1.5-3.4-1.5-5.9zm4.6.3c0 2.6.8 3.9 2.3 3.9 1 0 1.8-.4 2.2-1.3V78c-.4-.9-1.1-1.3-2.2-1.3-1.4 0-2.2 1.1-2.3 3.4v.9zm11.7-11.4c0-.7.2-1.2.7-1.6s1.1-.6 1.8-.6 1.4.2 1.8.6.7 1 .7 1.6-.2 1.2-.7 1.6-1.1.6-1.8.6-1.4-.2-1.8-.6-.7-.9-.7-1.6zm4.9 18.6h-4.6V73.4h4.6v14.8zm8.2-18.5v3.7h2.4v3.2h-2.4v6.8c0 .6.1.9.3 1.2s.6.3 1.2.3c.5 0 .8 0 1.1-.1v3.3c-.8.3-1.7.4-2.6.4-1.6 0-2.8-.4-3.5-1.1s-1.1-1.9-1.1-3.4v-7.3h-1.9v-3.2h1.9v-3.7h4.6zm-97.2 37.3l.2 1.7c1-1.3 2.5-2 4.2-2 1.9 0 3.1.7 3.8 2.2 1-1.5 2.5-2.2 4.3-2.2 3 0 4.5 1.8 4.6 5.4v9.6h-4.6v-9.3c0-.8-.1-1.3-.4-1.7s-.7-.5-1.4-.5c-.9 0-1.6.4-2 1.2V121.7h-4.6v-9.3c0-.8-.1-1.3-.4-1.7s-.7-.5-1.4-.5c-.9 0-1.6.4-2 1.2v10.3h-4.6V107h4.3zm19.2 7.3c0-1.5.3-2.8.9-3.9s1.4-2 2.5-2.7 2.3-.9 3.8-.9c2.2 0 4 .7 5.2 2.1s1.9 3.2 1.9 5.6v.2c0 2.3-.6 4.1-1.9 5.5s-3 2-5.2 2c-2.1 0-3.8-.6-5.1-1.9s-2-3-2.1-5.1v-.9zm4.6.3c0 1.4.2 2.4.6 3s1.1 1 1.9 1c1.6 0 2.5-1.3 2.5-3.8v-.5c0-2.7-.8-4-2.5-4-1.5 0-2.4 1.1-2.5 3.4v.9zm15.9-7.6l.2 1.7c1-1.3 2.4-2 4.2-2 1.5 0 2.7.5 3.5 1.4s1.2 2.3 1.2 4.2v9.5h-4.6v-9.3c0-.7-.2-1.3-.5-1.6s-.8-.5-1.6-.5c-.9 0-1.6.4-2 1.1v10.4h-4.6V107h4.2zm11.5-3.8c0-.7.2-1.2.7-1.6s1.1-.6 1.8-.6 1.4.2 1.8.6.7 1 .7 1.6-.2 1.2-.7 1.6-1.1.6-1.8.6-1.4-.2-1.8-.6-.7-.9-.7-1.6zm4.9 18.6h-4.6V107h4.6v14.8zm8.2-18.5v3.7h2.4v3.2h-2.4v6.8c0 .6.1.9.3 1.2s.6.3 1.2.3c.5 0 .8 0 1.1-.1v3.3c-.8.3-1.7.4-2.6.4-1.6 0-2.8-.4-3.5-1.1s-1.1-1.9-1.1-3.4v-7.3h-1.9V107h1.9v-3.7h4.6zm3.3 11c0-1.5.3-2.8.9-3.9s1.4-2 2.5-2.7 2.3-.9 3.8-.9c2.2 0 4 .7 5.2 2.1s1.9 3.2 1.9 5.6v.2c0 2.3-.6 4.1-1.9 5.5s-3 2-5.2 2c-2.1 0-3.8-.6-5.1-1.9s-2-3-2.1-5.1v-.9zm4.6.3c0 1.4.2 2.4.6 3s1.1 1 1.9 1c1.6 0 2.5-1.3 2.5-3.8v-.5c0-2.7-.8-4-2.5-4-1.5 0-2.4 1.1-2.5 3.4v.9zm20.6-3.4l-1.5-.1c-1.4 0-2.4.5-2.8 1.4v9.4h-4.6V107h4.3l.2 1.9c.8-1.4 1.9-2.2 3.2-2.2.5 0 .9.1 1.3.2l-.1 4.3zm1.7-8c0-.7.2-1.2.7-1.6s1.1-.6 1.8-.6 1.4.2 1.8.6.7 1 .7 1.6-.2 1.2-.7 1.6-1.1.6-1.8.6-1.4-.2-1.8-.6-.7-.9-.7-1.6zm4.9 18.6h-4.6V107h4.6v14.8zm7-14.8l.2 1.7c1-1.3 2.4-2 4.2-2 1.5 0 2.7.5 3.5 1.4s1.2 2.3 1.2 4.2v9.5h-4.6v-9.3c0-.7-.2-1.3-.5-1.6s-.8-.5-1.6-.5c-.9 0-1.6.4-2 1.1v10.4h-4.6V107h4.2zm11 7.3c0-1.5.2-2.8.7-4s1.2-2 2.1-2.7 2-.9 3.2-.9c1.5 0 2.7.5 3.6 1.6l.2-1.3h4.2v14.2c0 1.3-.3 2.4-.9 3.4s-1.5 1.7-2.6 2.2-2.5.8-4 .8c-1.1 0-2.1-.2-3.2-.6s-1.8-.9-2.3-1.6l1.9-2.7c.9 1 2 1.5 3.4 1.5 2 0 3.1-1 3.1-3.1v-.5c-.9 1-2 1.5-3.3 1.5-1.8 0-3.3-.7-4.4-2.1s-1.7-3.2-1.7-5.5v-.2zm4.7.3c0 1.2.2 2.2.7 2.9s1.1 1.1 1.9 1.1c1 0 1.7-.3 2.2-1v-6.2c-.4-.7-1.2-1-2.1-1-.8 0-1.5.4-1.9 1.1s-.8 1.7-.8 3.1zm-89.2 40.8c-.2-.3-.3-.7-.4-1.3-.8 1.1-2 1.6-3.6 1.6-1.4 0-2.6-.4-3.6-1.3s-1.5-1.9-1.5-3.2c0-1.6.6-2.8 1.8-3.6s2.9-1.2 5.2-1.2h1.4v-.8c0-1.4-.6-2-1.8-2-1.1 0-1.6.5-1.6 1.6h-4.6c0-1.4.6-2.6 1.8-3.5 1.2-.9 2.8-1.3 4.7-1.3s3.4.5 4.5 1.4 1.7 2.2 1.7 3.8v6.5c0 1.4.2 2.4.6 3.1v.2h-4.6zm-2.9-3c.6 0 1.1-.1 1.4-.4s.6-.5.8-.8v-2.4h-1.3c-1.6 0-2.4.7-2.4 2.2 0 .4.1.8.4 1s.7.4 1.1.4zm14.3 3h-4.6v-21h4.6v21zm10 .3c-2.3 0-4.1-.7-5.5-2s-2.1-3.1-2.1-5.3v-.4c0-1.5.3-2.8.8-4s1.4-2.1 2.5-2.7 2.4-1 3.8-1c2.1 0 3.7.6 4.9 1.9s1.8 3.1 1.8 5.4v1.8h-9.2c.2.8.5 1.5 1.1 2s1.3.7 2.2.7c1.5 0 2.6-.5 3.4-1.5l2.1 2.5c-.6.8-1.4 1.4-2.4 1.9s-2.2.7-3.4.7zm-.5-11.8c-1.3 0-2.2.9-2.4 2.7h4.6v-.4c0-.7-.2-1.3-.6-1.7s-.9-.6-1.6-.6zm17.5.9l-1.5-.1c-1.4 0-2.4.5-2.8 1.4v9.4h-4.6v-14.8h4.3l.2 1.9c.8-1.4 1.9-2.2 3.2-2.2.5 0 .9.1 1.3.2l-.1 4.2zm7.7-7.9v3.7h2.4v3.2h-2.4v6.8c0 .6.1.9.3 1.2s.6.3 1.2.3c.5 0 .8 0 1.1-.1v3.3c-.8.3-1.7.4-2.6.4-1.6 0-2.8-.4-3.5-1.1s-1.1-1.9-1.1-3.4v-7.3h-1.9v-3.2h1.9V137h4.6zm12 14.4c0-.4-.2-.7-.6-.9s-1.2-.5-2.3-.7-2.1-.6-2.8-1-1.3-.9-1.7-1.5-.6-1.3-.6-2c0-1.4.6-2.5 1.7-3.4s2.6-1.3 4.4-1.3c2 0 3.5.4 4.7 1.3s1.8 2 1.8 3.5h-4.6c0-1.2-.6-1.8-1.9-1.8-.5 0-.9.1-1.2.4s-.5.6-.5 1 .2.7.6 1 1 .5 1.9.6 1.7.4 2.3.6c2.2.8 3.3 2.1 3.3 4.1 0 1.3-.6 2.4-1.8 3.3s-2.8 1.3-4.7 1.3c-1.3 0-2.4-.2-3.4-.7s-1.8-1.1-2.3-1.9-.8-1.6-.8-2.5h4.3c0 .7.2 1.2.7 1.5s1 .5 1.7.5c.6 0 1.1-.1 1.4-.4s.4-.6.4-1zm8.2 9.5l-2.3-1.1.5-.9c.6-1.2 1-2.3 1-3.4V152h3.7v3c0 1-.3 2.1-.8 3.2s-1.3 1.9-2.1 2.6zm-52.8 35.4h-16.9v-3.7l7.8-8.2c1.9-2.2 2.9-3.9 2.9-5.2 0-1-.2-1.8-.7-2.4s-1.1-.8-2-.8c-.9 0-1.5.4-2.1 1.1-.5.7-.8 1.6-.8 2.7h-5.6c0-1.5.4-2.9 1.1-4.1.7-1.3 1.8-2.2 3.1-2.9s2.8-1.1 4.4-1.1c2.6 0 4.6.6 6 1.8 1.4 1.2 2.1 2.9 2.1 5.2 0 1-.2 1.9-.5 2.8-.4.9-.9 1.8-1.7 2.8-.7 1-2 2.3-3.6 4l-3.1 3.6h9.5v4.4zm17.6-9.4h2.5v4.3h-2.5v5.1h-5.6v-5.1h-9.3l-.3-3.4 9.7-15.6h5.6v14.7zm-9.9 0h4.3v-7.4l-.3.6-4 6.8zm16.8 11.5h-4l8.3-26.2h4l-8.3 26.2zm26.8-23.3l-9 21.2h-5.9l9-19.9h-11.5V172h17.4v3z"/><linearGradient id="SVGID_2_" gradientUnits="userSpaceOnUse" x1="-38.541" y1="-287.081" x2="212.487" y2="-287.081"><stop offset="0" stop-color="#41b5e8"/><stop offset=".5" stop-color="#6a53a3"/><stop offset="1" stop-color="#e72e8a"/></linearGradient><path class="st1" d="M-32.1-300.6h-2v5.5h-3.7v-15.4h6.1c1.8 0 3.3.4 4.3 1.2 1 .8 1.5 2 1.5 3.4 0 1.1-.2 2-.7 2.7-.4.7-1.1 1.3-2 1.7l3.2 6.2v.2h-4l-2.7-5.5zm-2-2.8h2.4c.7 0 1.2-.2 1.6-.6.4-.4.5-.9.5-1.6 0-.7-.2-1.2-.5-1.6-.4-.4-.9-.6-1.6-.6h-2.4v4.4zm15.8 8.5c-1.8 0-3.2-.5-4.3-1.6-1.1-1-1.6-2.4-1.6-4.1v-.3c0-1.2.2-2.2.7-3.1.4-.9 1.1-1.6 1.9-2.1.8-.5 1.8-.7 3-.7 1.6 0 2.9.5 3.8 1.5s1.4 2.4 1.4 4.2v1.4h-7.1c.1.6.4 1.1.8 1.5.4.4 1 .6 1.7.6 1.1 0 2-.4 2.6-1.2l1.6 1.9c-.4.6-1.1 1.1-1.9 1.5-.8.3-1.7.5-2.6.5zm-.4-9.1c-1 0-1.7.7-1.9 2.1h3.6v-.3c0-.6-.1-1-.4-1.3-.3-.4-.8-.5-1.3-.5zm11.5 6.3c.5 0 .9-.1 1.2-.4s.4-.7.4-1.1h3.3c0 1.3-.4 2.3-1.3 3.1s-2.1 1.2-3.5 1.2c-1.7 0-3-.5-3.9-1.6s-1.4-2.5-1.4-4.3v-.1c0-1.2.2-2.2.6-3.1.4-.9 1-1.6 1.8-2 .8-.5 1.8-.7 2.9-.7 1.5 0 2.7.4 3.5 1.2s1.3 1.9 1.3 3.4h-3.3c0-.6-.1-1-.4-1.4-.3-.3-.7-.5-1.2-.5-.9 0-1.5.6-1.6 1.8 0 .4-.1.9-.1 1.5 0 1.2.1 1.9.4 2.4.2.4.7.6 1.3.6zm11.9 2.8c-1.8 0-3.2-.5-4.3-1.6s-1.6-2.4-1.6-4.1v-.3c0-1.2.2-2.2.7-3.1.4-.9 1.1-1.6 1.9-2.1.8-.5 1.8-.7 3-.7 1.6 0 2.9.5 3.8 1.5.9 1 1.4 2.4 1.4 4.2v1.4H2.5c.1.6.4 1.1.8 1.5.4.4 1 .6 1.7.6 1.1 0 2-.4 2.6-1.2l1.6 1.9c-.4.6-1.1 1.1-1.9 1.5-.7.3-1.6.5-2.6.5zm-.4-9.1c-1 0-1.7.7-1.9 2.1H6v-.3c0-.6-.1-1-.4-1.3s-.7-.5-1.3-.5zm6.7-5.5c0-.5.2-.9.6-1.2s.8-.5 1.4-.5c.6 0 1.1.2 1.4.5s.6.7.6 1.2-.2.9-.6 1.2-.8.5-1.4.5c-.6 0-1.1-.2-1.4-.5s-.6-.7-.6-1.2zm3.8 14.4h-3.6v-11.5h3.6v11.5zm6.7-4.3l1.8-7.2h3.8l-3.7 11.5h-3.6L16-306.6h3.8l1.7 7.2zm12.1 4.5c-1.8 0-3.2-.5-4.3-1.6s-1.6-2.4-1.6-4.1v-.3c0-1.2.2-2.2.7-3.1.4-.9 1.1-1.6 1.9-2.1.8-.5 1.8-.7 3-.7 1.6 0 2.9.5 3.8 1.5.9 1 1.4 2.4 1.4 4.2v1.4h-7.1c.1.6.4 1.1.8 1.5.4.4 1 .6 1.7.6 1.1 0 2-.4 2.6-1.2l1.6 1.9c-.4.6-1.1 1.1-1.9 1.5-.8.3-1.7.5-2.6.5zm-.4-9.1c-1 0-1.7.7-1.9 2.1h3.6v-.3c0-.6-.1-1-.4-1.3-.3-.4-.8-.5-1.3-.5zm16.9 6.3c.5 0 .9-.1 1.2-.4s.4-.7.4-1.1H55c0 1.3-.4 2.3-1.3 3.1s-2.1 1.2-3.5 1.2c-1.7 0-3-.5-3.9-1.6s-1.4-2.5-1.4-4.3v-.1c0-1.2.2-2.2.6-3.1.4-.9 1-1.6 1.8-2 .8-.5 1.8-.7 2.9-.7 1.5 0 2.7.4 3.5 1.2.9.8 1.3 1.9 1.3 3.4h-3.3c0-.6-.1-1-.4-1.4s-.8-.5-1.3-.5c-.9 0-1.5.6-1.6 1.8 0 .4-.1.9-.1 1.5 0 1.2.1 1.9.4 2.4s.8.6 1.4.6zm13.3-5.6l-1.2-.1c-1.1 0-1.8.4-2.2 1.1v7.3h-3.6v-11.5h3.3l.1 1.5c.6-1.1 1.4-1.7 2.5-1.7.4 0 .7 0 1 .1l.1 3.3zm6.6 8.4c-1.8 0-3.2-.5-4.3-1.6-1.1-1-1.6-2.4-1.6-4.1v-.3c0-1.2.2-2.2.7-3.1.4-.9 1.1-1.6 1.9-2.1.8-.5 1.8-.7 3-.7 1.6 0 2.9.5 3.8 1.5s1.4 2.4 1.4 4.2v1.4h-7.1c.1.6.4 1.1.8 1.5.4.4 1 .6 1.7.6 1.1 0 2-.4 2.6-1.2l1.6 1.9c-.4.6-1.1 1.1-1.9 1.5-.7.3-1.6.5-2.6.5zm-.4-9.1c-1 0-1.7.7-1.9 2.1h3.6v-.3c0-.6-.1-1-.4-1.3s-.7-.5-1.3-.5zm6.3 3.1c0-1.8.4-3.2 1.2-4.3.8-1 1.9-1.6 3.3-1.6 1 0 1.9.4 2.6 1.2v-5.8h3.6v16.3h-3.2l-.2-1.2c-.7 1-1.7 1.4-2.8 1.4-1.4 0-2.4-.5-3.2-1.6-.9-1-1.3-2.5-1.3-4.4zm3.5.2c0 2 .6 3 1.8 3 .8 0 1.4-.3 1.7-1v-4.4c-.3-.7-.9-1-1.7-1-1.1 0-1.7.9-1.8 2.7v.7zm9.1-8.8c0-.5.2-.9.6-1.2.4-.3.8-.5 1.4-.5.6 0 1.1.2 1.4.5.4.3.6.7.6 1.2s-.2.9-.6 1.2c-.4.3-.8.5-1.4.5-.6 0-1.1-.2-1.4-.5-.4-.3-.6-.7-.6-1.2zm3.8 14.4h-3.6v-11.5h3.6v11.5zm6.3-14.3v2.8h1.9v2.5h-1.9v5.2c0 .4.1.7.2.9.2.2.5.3.9.3s.6 0 .9-.1v2.6c-.6.2-1.3.3-2 .3-1.2 0-2.1-.3-2.7-.9-.6-.6-.9-1.5-.9-2.6v-5.7h-1.5v-2.5H95v-2.8h3.6zm12.1 2.8l.1 1.3c.8-1 1.9-1.6 3.3-1.6s2.4.6 2.9 1.7c.8-1.2 1.9-1.7 3.4-1.7 2.3 0 3.5 1.4 3.6 4.2v7.5h-3.6v-7.2c0-.6-.1-1-.3-1.3-.2-.3-.6-.4-1.1-.4-.7 0-1.2.3-1.6.9V-295.3h-3.6v-7.2c0-.6-.1-1-.3-1.3-.2-.3-.6-.4-1.1-.4-.7 0-1.2.3-1.6.9v8h-3.6v-11.5h3.5zm14.8 5.6c0-1.1.2-2.2.7-3.1s1.1-1.6 1.9-2.1c.8-.5 1.8-.7 2.9-.7 1.7 0 3.1.5 4.1 1.6s1.5 2.5 1.5 4.3v.1c0 1.8-.5 3.2-1.5 4.3s-2.3 1.6-4 1.6c-1.6 0-2.9-.5-3.9-1.5s-1.5-2.3-1.6-4l-.1-.5zm3.6.3c0 1.1.2 1.8.5 2.3.3.5.8.7 1.5.7 1.3 0 1.9-1 1.9-2.9v-.4c0-2.1-.7-3.1-2-3.1-1.2 0-1.8.9-1.9 2.7v.7zm12.3-5.9l.1 1.3c.8-1 1.9-1.6 3.3-1.6 1.2 0 2.1.4 2.7 1.1.6.7.9 1.8.9 3.2v7.4h-3.6v-7.2c0-.6-.1-1-.3-1.3-.2-.3-.7-.4-1.3-.4-.7 0-1.2.3-1.6.8v8.1H138v-11.5h3.4zm9-2.9c0-.5.2-.9.6-1.2s.8-.5 1.4-.5 1.1.2 1.4.5.6.7.6 1.2-.2.9-.6 1.2-.8.5-1.4.5-1.1-.2-1.4-.5-.6-.7-.6-1.2zm3.7 14.4h-3.6v-11.5h3.6v11.5zm6.4-14.3v2.8h1.9v2.5h-1.9v5.2c0 .4.1.7.2.9.2.2.5.3.9.3s.6 0 .9-.1v2.6c-.6.2-1.3.3-2 .3-1.2 0-2.1-.3-2.7-.9-.6-.6-.9-1.5-.9-2.6v-5.7h-1.5v-2.5h1.5v-2.8h3.6zm2.5 8.4c0-1.1.2-2.2.7-3.1.4-.9 1.1-1.6 1.9-2.1.8-.5 1.8-.7 2.9-.7 1.7 0 3.1.5 4.1 1.6 1 1.1 1.5 2.5 1.5 4.3v.1c0 1.8-.5 3.2-1.5 4.3s-2.3 1.6-4 1.6c-1.6 0-2.9-.5-3.9-1.5s-1.5-2.3-1.6-4l-.1-.5zm3.6.3c0 1.1.2 1.8.5 2.3.3.5.8.7 1.5.7 1.3 0 1.9-1 1.9-2.9v-.4c0-2.1-.7-3.1-2-3.1-1.2 0-1.8.9-1.9 2.7v.7zm16-2.6l-1.2-.1c-1.1 0-1.8.4-2.2 1.1v7.3h-3.6v-11.5h3.3l.1 1.5c.6-1.1 1.4-1.7 2.5-1.7.4 0 .7 0 1 .1l.1 3.3zm1.2-6.2c0-.5.2-.9.6-1.2s.8-.5 1.4-.5 1.1.2 1.4.5.6.7.6 1.2-.2.9-.6 1.2-.8.5-1.4.5-1.1-.2-1.4-.5-.6-.7-.6-1.2zm3.8 14.4H184v-11.5h3.6v11.5zm5.5-11.5l.1 1.3c.8-1 1.9-1.6 3.3-1.6 1.2 0 2.1.4 2.7 1.1.6.7.9 1.8.9 3.2v7.4h-3.6v-7.2c0-.6-.1-1-.3-1.3-.2-.3-.7-.4-1.3-.4-.7 0-1.2.3-1.6.8v8.1h-3.6v-11.5h3.4zm8.5 5.7c0-1.2.2-2.2.6-3.1.4-.9.9-1.6 1.6-2.1.7-.5 1.5-.7 2.5-.7 1.2 0 2.1.4 2.8 1.2l.1-1h3.2v11c0 1-.2 1.9-.7 2.6-.5.7-1.1 1.3-2 1.7s-1.9.6-3.1.6c-.8 0-1.7-.2-2.4-.5s-1.4-.7-1.8-1.2l1.5-2.1c.7.8 1.5 1.2 2.6 1.2 1.6 0 2.4-.8 2.4-2.4v-.4c-.7.8-1.5 1.1-2.6 1.1-1.4 0-2.5-.5-3.4-1.6s-1.3-2.5-1.3-4.3zm3.6.2c0 .9.2 1.7.5 2.2.4.5.8.8 1.5.8.8 0 1.3-.3 1.7-.8v-4.8c-.3-.5-.9-.8-1.7-.8-.6 0-1.1.3-1.5.9-.3.6-.5 1.4-.5 2.5zm-236.8 33.8c-.1-.2-.2-.6-.3-1-.7.8-1.6 1.2-2.8 1.2-1.1 0-2-.3-2.8-1-.8-.7-1.1-1.5-1.1-2.5 0-1.2.5-2.2 1.4-2.8s2.3-1 4-1h1.1v-.6c0-1.1-.5-1.6-1.4-1.6-.8 0-1.3.4-1.3 1.3h-3.6c0-1.1.5-2 1.4-2.7.9-.7 2.1-1 3.6-1s2.6.4 3.5 1.1c.8.7 1.3 1.7 1.3 2.9v5.1c0 1.1.2 1.9.5 2.4v.2h-3.5zm-2.2-2.4c.4 0 .8-.1 1.1-.3s.5-.4.6-.6v-1.8h-1c-1.2 0-1.9.6-1.9 1.7 0 .3.1.6.3.8.3.1.6.2.9.2zm11.1 2.4h-3.6v-16.3h3.6v16.3zm7.7.2c-1.8 0-3.2-.5-4.3-1.6s-1.6-2.4-1.6-4.1v-.3c0-1.2.2-2.2.7-3.1.4-.9 1.1-1.6 1.9-2.1.8-.5 1.8-.7 3-.7 1.6 0 2.9.5 3.8 1.5.9 1 1.4 2.4 1.4 4.2v1.4h-7.1c.1.6.4 1.1.8 1.5.4.4 1 .6 1.7.6 1.1 0 2-.4 2.6-1.2l1.6 1.9c-.4.6-1.1 1.1-1.9 1.5s-1.7.5-2.6.5zm-.4-9.1c-1 0-1.7.7-1.9 2.1h3.6v-.3c0-.6-.1-1-.4-1.3s-.7-.5-1.3-.5zm13.6.6l-1.2-.1c-1.1 0-1.8.4-2.2 1.1v7.3h-3.6v-11.5h3.3l.1 1.5c.6-1.1 1.4-1.7 2.5-1.7.4 0 .7 0 1 .1l.1 3.3zm6-6v2.8H6v2.5H4.2v5.2c0 .4.1.7.2.9.2.2.5.3.9.3s.6 0 .9-.1v2.6c-.6.2-1.3.3-2 .3-1.2 0-2.1-.3-2.7-.9-.6-.6-.9-1.5-.9-2.6v-5.7H-.9v-2.5H.6v-2.8h3.6zm9.2 11c0-.3-.2-.5-.5-.7-.3-.2-.9-.4-1.8-.6-.9-.2-1.6-.5-2.2-.8s-1-.7-1.3-1.2c-.3-.5-.5-1-.5-1.6 0-1.1.4-1.9 1.3-2.6.9-.7 2-1 3.4-1 1.5 0 2.7.3 3.6 1 .9.7 1.4 1.6 1.4 2.7h-3.6c0-.9-.5-1.4-1.5-1.4-.4 0-.7.1-.9.3-.3.2-.4.5-.4.8 0 .3.2.6.5.8s.8.4 1.5.5 1.3.3 1.8.5c1.7.6 2.6 1.7 2.6 3.2 0 1-.5 1.9-1.4 2.6s-2.1 1-3.6 1c-1 0-1.9-.2-2.6-.5-.8-.4-1.4-.8-1.8-1.4-.4-.6-.6-1.2-.6-1.9h3.3c0 .5.2.9.5 1.2.3.2.8.4 1.3.4s.9-.1 1.1-.3c.3-.4.4-.6.4-1zm6.4 7.4l-1.8-.8.4-.7c.5-.9.8-1.8.8-2.6v-2.6H22v2.3c0 .8-.2 1.6-.6 2.5-.5.7-1 1.4-1.6 1.9zm24.2-4.1H30v-3l6.4-6.8c1.6-1.8 2.4-3.2 2.4-4.3 0-.9-.2-1.5-.6-2-.4-.4-.9-.7-1.6-.7-.7 0-1.3.3-1.7.9-.4.6-.7 1.4-.7 2.3h-4.7c0-1.2.3-2.4.9-3.4.6-1 1.5-1.9 2.6-2.4 1.1-.6 2.3-.9 3.7-.9 2.2 0 3.8.5 5 1.5 1.2 1 1.8 2.4 1.8 4.3 0 .8-.1 1.6-.4 2.3-.3.7-.8 1.5-1.4 2.4-.6.8-1.6 1.9-3 3.3l-2.6 3H44v3.5zm14.6-7.9h2v3.6h-2v4.3H54v-4.3h-7.7L46-274l8-12.9h4.6v12.1zm-8.3 0h3.6v-6.2l-.3.5-3.3 5.7zm14 9.6H61l6.8-21.8h3.3l-6.8 21.8zm22.2-19.3L79-266.9h-4.9l7.5-16.5H72v-3.6h14.4v2.5z"/><linearGradient id="SVGID_3_" gradientUnits="userSpaceOnUse" x1="62.51" y1="110.619" x2="237.64" y2="110.619"><stop offset="0" stop-color="#41b5e8"/><stop offset=".5" stop-color="#6a53a3"/><stop offset="1" stop-color="#e72e8a"/></linearGradient><path class="st2" d="M86.3 82.5h-2V88h-3.8V72.4h6.2c1.9 0 3.3.4 4.4 1.2 1 .8 1.6 2 1.6 3.5 0 1.1-.2 2-.7 2.7-.4.7-1.1 1.3-2.1 1.7l3.3 6.3v.2h-4l-2.9-5.5zm-2.1-2.9h2.4c.7 0 1.3-.2 1.6-.6.4-.4.5-.9.5-1.6 0-.7-.2-1.2-.5-1.6s-.9-.6-1.6-.6h-2.4v4.4zm16.1 8.6c-1.8 0-3.2-.5-4.3-1.6-1.1-1.1-1.7-2.4-1.7-4.2v-.3c0-1.2.2-2.2.7-3.1.4-.9 1.1-1.6 1.9-2.1.8-.5 1.8-.7 3-.7 1.6 0 2.9.5 3.9 1.5.9 1 1.4 2.4 1.4 4.2v1.4H98c.1.7.4 1.2.8 1.5s1 .6 1.7.6c1.1 0 2-.4 2.7-1.2l1.7 2c-.5.6-1.1 1.1-1.9 1.5-.9.3-1.8.5-2.7.5zm-.4-9.2c-1.1 0-1.7.7-1.9 2.1h3.7v-.3c0-.6-.1-1-.4-1.3-.4-.4-.9-.5-1.4-.5zm11.6 6.4c.5 0 .9-.1 1.2-.4.3-.3.4-.7.4-1.2h3.4c0 1.3-.5 2.3-1.4 3.1-.9.8-2.1 1.2-3.5 1.2-1.7 0-3-.5-4-1.6s-1.5-2.5-1.5-4.4v-.2c0-1.2.2-2.2.7-3.1.4-.9 1.1-1.6 1.9-2.1.8-.5 1.8-.7 2.9-.7 1.5 0 2.7.4 3.6 1.3s1.3 2 1.3 3.4h-3.4c0-.6-.1-1.1-.4-1.4s-.7-.3-1.2-.3c-.9 0-1.5.6-1.6 1.8 0 .4-.1.9-.1 1.6 0 1.2.1 2 .4 2.4s.7.6 1.3.6zm12.2 2.8c-1.8 0-3.2-.5-4.3-1.6-1.1-1.1-1.7-2.4-1.7-4.2v-.3c0-1.2.2-2.2.7-3.1.4-.9 1.1-1.6 1.9-2.1.8-.5 1.8-.7 3-.7 1.6 0 2.9.5 3.9 1.5.9 1 1.4 2.4 1.4 4.2v1.4h-7.2c.1.7.4 1.2.8 1.5s1 .6 1.7.6c1.1 0 2-.4 2.7-1.2l1.7 2c-.5.6-1.1 1.1-1.9 1.5-.9.3-1.8.5-2.7.5zm-.4-9.2c-1.1 0-1.7.7-1.9 2.1h3.7v-.3c0-.6-.1-1-.4-1.3-.4-.4-.9-.5-1.4-.5zm6.7-5.6c0-.5.2-.9.6-1.3s.9-.5 1.5-.5 1.1.2 1.5.5.6.8.6 1.3-.2.9-.6 1.3-.9.5-1.5.5-1.1-.2-1.5-.5-.6-.8-.6-1.3zm3.8 14.6h-3.6V76.4h3.6V88zm6.9-4.3l1.8-7.3h3.8L142.6 88h-3.7l-3.8-11.6h3.8l1.8 7.3zm12.2 4.5c-1.8 0-3.2-.5-4.3-1.6-1.1-1.1-1.7-2.4-1.7-4.2v-.3c0-1.2.2-2.2.7-3.1.4-.9 1.1-1.6 1.9-2.1.8-.5 1.8-.7 3-.7 1.6 0 2.9.5 3.9 1.5.9 1 1.4 2.4 1.4 4.2v1.4h-7.2c.1.7.4 1.2.8 1.5s1 .6 1.7.6c1.1 0 2-.4 2.7-1.2l1.7 2c-.5.6-1.1 1.1-1.9 1.5-.8.3-1.7.5-2.7.5zm-.4-9.2c-1.1 0-1.7.7-1.9 2.1h3.7v-.3c0-.6-.1-1-.4-1.3-.4-.4-.8-.5-1.4-.5zm17.2 6.4c.5 0 .9-.1 1.2-.4.3-.3.4-.7.4-1.2h3.4c0 1.3-.5 2.3-1.4 3.1-.9.8-2.1 1.2-3.5 1.2-1.7 0-3-.5-4-1.6s-1.5-2.5-1.5-4.4v-.2c0-1.2.2-2.2.7-3.1.4-.9 1.1-1.6 1.9-2.1.8-.5 1.8-.7 2.9-.7 1.5 0 2.7.4 3.6 1.3s1.3 2 1.3 3.4h-3.4c0-.6-.1-1.1-.4-1.4s-.7-.5-1.2-.5c-.9 0-1.5.6-1.6 1.8 0 .4-.1.9-.1 1.6 0 1.2.1 2 .4 2.4s.7.8 1.3.8zm13.5-5.7l-1.2-.1c-1.1 0-1.9.4-2.2 1.1V88h-3.6V76.4h3.4l.1 1.5c.6-1.1 1.5-1.7 2.5-1.7.4 0 .7 0 1 .1v3.4zm6.7 8.5c-1.8 0-3.2-.5-4.3-1.6-1.1-1.1-1.7-2.4-1.7-4.2v-.3c0-1.2.2-2.2.7-3.1.4-.9 1.1-1.6 1.9-2.1.8-.5 1.8-.7 3-.7 1.6 0 2.9.5 3.9 1.5.9 1 1.4 2.4 1.4 4.2v1.4h-7.2c.1.7.4 1.2.8 1.5s1 .6 1.7.6c1.1 0 2-.4 2.7-1.2l1.7 2c-.5.6-1.1 1.1-1.9 1.5-.8.3-1.7.5-2.7.5zm-.4-9.2c-1.1 0-1.7.7-1.9 2.1h3.7v-.3c0-.6-.1-1-.4-1.3-.4-.4-.8-.5-1.4-.5zm6.3 3.1c0-1.8.4-3.3 1.2-4.4s1.9-1.6 3.3-1.6c1 0 1.9.4 2.6 1.2v-5.9h3.6V88h-3.3l-.2-1.2c-.7 1-1.7 1.5-2.8 1.5-1.4 0-2.5-.5-3.3-1.6s-1.1-2.6-1.1-4.6zm3.7.2c0 2.1.6 3.1 1.8 3.1.8 0 1.4-.3 1.7-1V80c-.3-.7-.9-1-1.7-1-1.1 0-1.7.9-1.8 2.7v.6zm9.1-8.9c0-.5.2-.9.6-1.3s.9-.5 1.5-.5 1.1.2 1.5.5.6.8.6 1.3-.2.9-.6 1.3-.9.5-1.5.5-1.1-.2-1.5-.5-.6-.8-.6-1.3zm3.9 14.6h-3.6V76.4h3.6V88zm6.4-14.5v2.9h1.9v2.5h-1.9v5.3c0 .4.1.7.2.9.2.2.5.3.9.3s.7 0 .9-.1v2.6c-.7.2-1.3.3-2 .3-1.2 0-2.2-.3-2.8-.9s-.9-1.5-.9-2.7v-5.8h-1.5v-2.5h1.5v-2.9h3.7zm-153 29.3l.1 1.4c.8-1.1 1.9-1.6 3.3-1.6 1.5 0 2.5.6 3 1.8.8-1.2 1.9-1.8 3.4-1.8 2.4 0 3.6 1.4 3.6 4.3v7.6h-3.6v-7.3c0-.6-.1-1-.3-1.3s-.6-.4-1.1-.4c-.7 0-1.2.3-1.6 1v8.1h-3.6v-7.3c0-.6-.1-1-.3-1.3s-.6-.4-1.1-.4c-.7 0-1.2.3-1.6 1v8.1h-3.6v-11.6h3.4zm15.1 5.7c0-1.2.2-2.2.7-3.1.5-.9 1.1-1.6 1.9-2.1s1.8-.7 3-.7c1.7 0 3.1.5 4.1 1.6 1 1.1 1.5 2.5 1.5 4.4v.1c0 1.8-.5 3.2-1.5 4.3-1 1.1-2.4 1.6-4.1 1.6-1.7 0-3-.5-4-1.5s-1.5-2.3-1.6-4v-.6zm3.6.2c0 1.1.2 1.9.5 2.4s.8.8 1.5.8c1.3 0 1.9-1 2-3v-.4c0-2.1-.7-3.1-2-3.1-1.2 0-1.9.9-2 2.7v.6zm12.5-5.9l.1 1.4c.8-1.1 1.9-1.6 3.3-1.6 1.2 0 2.1.4 2.7 1.1.6.7.9 1.8.9 3.3v7.5h-3.6v-7.3c0-.6-.1-1-.4-1.3-.2-.3-.7-.4-1.3-.4-.7 0-1.2.3-1.6.8v8.2h-3.6v-11.6h3.5zm9.1-3c0-.5.2-.9.6-1.3s.9-.5 1.5-.5 1.1.2 1.5.5.6.8.6 1.3-.2.9-.6 1.3-.9.5-1.5.5-1.1-.2-1.5-.5-.6-.8-.6-1.3zm3.8 14.6h-3.6v-11.6h3.6v11.6zm6.5-14.5v2.9h1.9v2.5h-1.9v5.3c0 .4.1.7.2.9s.5.3.9.3.7 0 .9-.1v2.6c-.7.2-1.3.3-2 .3-1.2 0-2.2-.3-2.8-.9s-.9-1.5-.9-2.7v-5.8h-1.5v-2.5h1.5v-2.9h3.7zm2.5 8.6c0-1.2.2-2.2.7-3.1.5-.9 1.1-1.6 1.9-2.1s1.8-.7 3-.7c1.7 0 3.1.5 4.1 1.6 1 1.1 1.5 2.5 1.5 4.4v.1c0 1.8-.5 3.2-1.5 4.3-1 1.1-2.4 1.6-4.1 1.6-1.7 0-3-.5-4-1.5s-1.5-2.3-1.6-4v-.6zm3.6.2c0 1.1.2 1.9.5 2.4s.8.8 1.5.8c1.3 0 1.9-1 2-3v-.4c0-2.1-.7-3.1-2-3.1-1.2 0-1.9.9-2 2.7v.6zm16.3-2.6l-1.2-.1c-1.1 0-1.9.4-2.2 1.1v7.4h-3.6v-11.6h3.4l.1 1.5c.6-1.1 1.5-1.7 2.5-1.7.4 0 .7 0 1 .1v3.3zm1.2-6.3c0-.5.2-.9.6-1.3s.9-.5 1.5-.5 1.1.2 1.5.5.6.8.6 1.3-.2.9-.6 1.3-.9.5-1.5.5-1.1-.2-1.5-.5-.6-.8-.6-1.3zm3.9 14.6h-3.6v-11.6h3.6v11.6zm5.5-11.6l.1 1.4c.8-1.1 1.9-1.6 3.3-1.6 1.2 0 2.1.4 2.7 1.1.6.7.9 1.8.9 3.3v7.5H153v-7.3c0-.6-.1-1-.4-1.3-.2-.3-.7-.4-1.3-.4-.7 0-1.2.3-1.6.8v8.2h-3.6v-11.6h3.4zm8.7 5.7c0-1.2.2-2.2.6-3.1s.9-1.6 1.7-2.1c.7-.5 1.6-.7 2.5-.7 1.2 0 2.2.4 2.8 1.2l.1-1h3.3V114c0 1-.2 1.9-.7 2.7-.5.8-1.2 1.3-2.1 1.7-.9.4-1.9.6-3.1.6-.9 0-1.7-.2-2.5-.5s-1.4-.7-1.8-1.3l1.5-2.1c.7.8 1.6 1.2 2.7 1.2 1.6 0 2.4-.8 2.4-2.5v-.4c-.7.8-1.6 1.1-2.6 1.1-1.4 0-2.6-.5-3.4-1.6-.9-1.1-1.3-2.5-1.3-4.4zm3.6.2c0 1 .2 1.7.5 2.3.4.6.9.8 1.5.8.8 0 1.3-.3 1.7-.8v-4.9c-.4-.5-.9-.8-1.7-.8-.6 0-1.1.3-1.5.9-.3.6-.5 1.4-.5 2.5zm21.5 5.7c-.1-.2-.2-.6-.3-1-.7.8-1.6 1.3-2.8 1.3-1.1 0-2-.3-2.8-1-.8-.7-1.1-1.5-1.1-2.5 0-1.3.5-2.2 1.4-2.9s2.3-1 4.1-1h1.1v-.6c0-1.1-.5-1.6-1.4-1.6-.9 0-1.3.4-1.3 1.3h-3.6c0-1.1.5-2 1.4-2.7 1-.7 2.2-1.1 3.7-1.1s2.7.4 3.5 1.1 1.3 1.7 1.3 3v5.1c0 1.1.2 1.9.5 2.4v.2h-3.7zm-2.3-2.3c.5 0 .8-.1 1.1-.3.3-.2.5-.4.6-.7v-1.9h-1.1c-1.3 0-1.9.6-1.9 1.7 0 .3.1.6.3.8.4.2.7.4 1 .4zm11.2 2.3h-3.6V97.9h3.6v16.5zm7.9.2c-1.8 0-3.2-.5-4.3-1.6-1.1-1.1-1.7-2.4-1.7-4.2v-.3c0-1.2.2-2.2.7-3.1.4-.9 1.1-1.6 1.9-2.1.8-.5 1.8-.7 3-.7 1.6 0 2.9.5 3.9 1.5.9 1 1.4 2.4 1.4 4.2v1.4h-7.2c.1.7.4 1.2.8 1.5s1 .6 1.7.6c1.1 0 2-.4 2.7-1.2l1.7 2c-.5.6-1.1 1.1-1.9 1.5-.9.3-1.8.5-2.7.5zm-.4-9.2c-1.1 0-1.7.7-1.9 2.1h3.7v-.3c0-.6-.1-1-.4-1.3-.4-.4-.8-.5-1.4-.5zm13.8.7l-1.2-.1c-1.1 0-1.9.4-2.2 1.1v7.4h-3.6v-11.6h3.4l.1 1.5c.6-1.1 1.5-1.7 2.5-1.7.4 0 .7 0 1 .1v3.3zm6-6.2v2.9h1.9v2.5h-1.9v5.3c0 .4.1.7.2.9s.5.3.9.3.7 0 .9-.1v2.6c-.7.2-1.3.3-2 .3-1.2 0-2.2-.3-2.8-.9s-.9-1.5-.9-2.7v-5.8h-1.5v-2.5h1.5v-2.9h3.7zm9.5 11.2c0-.3-.2-.6-.5-.7s-.9-.4-1.8-.6-1.6-.5-2.2-.8c-.6-.3-1-.7-1.3-1.2s-.5-1-.5-1.6c0-1.1.4-1.9 1.3-2.6.9-.7 2-1 3.5-1s2.8.3 3.7 1 1.4 1.6 1.4 2.7H229c0-.9-.5-1.4-1.5-1.4-.4 0-.7.1-1 .3-.3.2-.4.5-.4.8 0 .3.2.6.5.8s.8.4 1.5.5c.7.1 1.3.3 1.8.5 1.7.6 2.6 1.7 2.6 3.2 0 1.1-.5 1.9-1.4 2.6-.9.7-2.2 1-3.7 1-1 0-1.9-.2-2.7-.5s-1.4-.8-1.8-1.5-.7-1.3-.7-1.9h3.4c0 .5.2.9.5 1.2.3.2.8.4 1.3.4s.9-.1 1.1-.3c.3-.3.5-.5.5-.9zm6.4 7.5l-1.8-.9.4-.7c.5-.9.8-1.8.8-2.7v-2.7h2.9v2.3c0 .8-.2 1.7-.6 2.5s-1 1.7-1.7 2.2zM136.1 148h-13.9v-3l6.4-6.7c1.6-1.8 2.4-3.2 2.4-4.3 0-.9-.2-1.5-.6-2s-.9-.7-1.6-.7c-.7 0-1.3.3-1.7.9s-.7 1.3-.7 2.2h-4.6c0-1.2.3-2.3.9-3.4s1.5-1.8 2.5-2.4 2.3-.9 3.6-.9c2.2 0 3.8.5 5 1.5s1.7 2.4 1.7 4.3c0 .8-.1 1.5-.4 2.3s-.7 1.5-1.4 2.3-1.6 1.9-3 3.3l-2.6 3h7.8v3.6zm14.5-7.8h2v3.6h-2v4.2H146v-4.2h-7.7l-.3-2.8 8-12.8h4.6v12zm-8.2 0h3.6v-6.1l-.3.5-3.3 5.6zm13.9 9.5H153l6.8-21.6h3.3l-6.8 21.6zm22-19.1l-7.4 17.4H166l7.5-16.4H164V128h14.3v2.6z"/><linearGradient id="SVGID_4_" gradientUnits="userSpaceOnUse" x1="420.201" y1="108.822" x2="674.935" y2="108.822"><stop offset="0" stop-color="#41b5e8"/><stop offset=".5" stop-color="#6a53a3"/><stop offset="1" stop-color="#e72e8a"/></linearGradient><path class="st3" d="M454.8 68.4h-3v8h-5.5V53.7h9c2.7 0 4.8.6 6.3 1.8 1.5 1.2 2.3 2.9 2.3 5.1 0 1.6-.3 2.9-1 3.9-.6 1-1.6 1.9-3 2.5l4.8 9.2v.2h-5.9l-4-8zm-3-4.3h3.5c1 0 1.8-.3 2.4-.8.5-.5.8-1.3.8-2.3s-.3-1.8-.8-2.3-1.3-.8-2.3-.8h-3.5v6.2zm23.3 12.6c-2.6 0-4.7-.8-6.3-2.3-1.6-1.5-2.4-3.6-2.4-6V68c0-1.7.3-3.3 1-4.6.6-1.3 1.6-2.3 2.8-3.1 1.2-.7 2.7-1.1 4.4-1.1 2.4 0 4.2.7 5.6 2.2 1.4 1.5 2.1 3.5 2.1 6.2v2h-10.5c.2.9.6 1.7 1.2 2.2.6.5 1.5.8 2.5.8 1.7 0 3-.6 3.9-1.8l2.4 2.8c-.7.9-1.6 1.6-2.8 2.2-1.2.6-2.5.9-3.9.9zm-.6-13.5c-1.5 0-2.5 1-2.8 3.1h5.3v-.4c0-.8-.2-1.5-.6-2-.4-.4-1-.7-1.9-.7zm17 9.5c.7 0 1.3-.2 1.7-.6.4-.4.6-1 .6-1.7h4.9c0 1.9-.7 3.4-2 4.6s-3 1.8-5.1 1.8c-2.5 0-4.4-.8-5.8-2.3-1.4-1.5-2.1-3.7-2.1-6.4v-.2c0-1.7.3-3.2.9-4.5.6-1.3 1.5-2.3 2.7-3s2.6-1.1 4.2-1.1c2.2 0 3.9.6 5.2 1.8 1.3 1.2 1.9 2.9 1.9 5h-4.9c0-.9-.2-1.5-.6-2-.4-.5-1-.7-1.7-.7-1.4 0-2.2.9-2.4 2.6-.1.6-.1 1.3-.1 2.3 0 1.7.2 2.9.6 3.5s1.1.9 2 .9zm17.7 4c-2.6 0-4.7-.8-6.3-2.3-1.6-1.5-2.4-3.6-2.4-6V68c0-1.7.3-3.3 1-4.6.6-1.3 1.6-2.3 2.8-3.1 1.2-.7 2.7-1.1 4.4-1.1 2.4 0 4.2.7 5.6 2.2 1.4 1.5 2.1 3.5 2.1 6.2v2h-10.5c.2.9.6 1.7 1.2 2.2.6.5 1.5.8 2.5.8 1.7 0 3-.6 3.9-1.8l2.4 2.8c-.7.9-1.6 1.6-2.8 2.2s-2.6.9-3.9.9zm-.6-13.5c-1.5 0-2.5 1-2.8 3.1h5.3v-.4c0-.8-.2-1.5-.6-2-.5-.4-1.1-.7-1.9-.7zm9.8-8.1c0-.8.3-1.4.8-1.8.5-.5 1.2-.7 2.1-.7.9 0 1.6.2 2.1.7.5.5.8 1.1.8 1.8s-.3 1.4-.8 1.8c-.5.5-1.2.7-2.1.7-.9 0-1.6-.2-2.1-.7-.6-.4-.8-1-.8-1.8zm5.6 21.3h-5.3V59.5h5.3v16.9zm9.9-6.3l2.7-10.6h5.5l-5.5 16.9h-5.4l-5.5-16.9h5.6l2.6 10.6zm17.8 6.6c-2.6 0-4.7-.8-6.3-2.3-1.6-1.5-2.4-3.6-2.4-6V68c0-1.7.3-3.3 1-4.6.6-1.3 1.6-2.3 2.8-3.1 1.2-.7 2.7-1.1 4.4-1.1 2.4 0 4.2.7 5.6 2.2 1.4 1.5 2.1 3.5 2.1 6.2v2h-10.5c.2.9.6 1.7 1.2 2.2.6.5 1.5.8 2.5.8 1.7 0 3-.6 3.9-1.8l2.4 2.8c-.7.9-1.6 1.6-2.8 2.2s-2.5.9-3.9.9zm-.6-13.5c-1.5 0-2.5 1-2.8 3.1h5.3v-.4c0-.8-.2-1.5-.6-2-.4-.4-1.1-.7-1.9-.7zm25 9.5c.7 0 1.3-.2 1.7-.6.4-.4.6-1 .6-1.7h4.9c0 1.9-.7 3.4-2 4.6s-3 1.8-5.1 1.8c-2.5 0-4.4-.8-5.8-2.3-1.4-1.5-2.1-3.7-2.1-6.4v-.2c0-1.7.3-3.2.9-4.5.6-1.3 1.5-2.3 2.7-3s2.6-1.1 4.2-1.1c2.2 0 3.9.6 5.2 1.8 1.3 1.2 1.9 2.9 1.9 5h-4.9c0-.9-.2-1.5-.6-2-.4-.5-1-.7-1.7-.7-1.4 0-2.2.9-2.4 2.6-.1.6-.1 1.3-.1 2.3 0 1.7.2 2.9.6 3.5s1.1.9 2 .9zm19.7-8.4l-1.7-.1c-1.7 0-2.7.5-3.2 1.6v10.7h-5.3v-17h4.9l.2 2.2c.9-1.7 2.1-2.5 3.7-2.5.6 0 1.1.1 1.5.2l-.1 4.9zm9.8 12.4c-2.6 0-4.7-.8-6.3-2.3-1.6-1.5-2.4-3.6-2.4-6V68c0-1.7.3-3.3 1-4.6.6-1.3 1.6-2.3 2.8-3.1 1.2-.7 2.7-1.1 4.4-1.1 2.4 0 4.2.7 5.6 2.2 1.4 1.5 2.1 3.5 2.1 6.2v2h-10.5c.2.9.6 1.7 1.2 2.2.6.5 1.5.8 2.5.8 1.7 0 3-.6 3.9-1.8l2.4 2.8c-.7.9-1.6 1.6-2.8 2.2s-2.6.9-3.9.9zm-.6-13.5c-1.5 0-2.5 1-2.8 3.1h5.3v-.4c0-.8-.2-1.5-.6-2-.5-.4-1.1-.7-1.9-.7zm9.1 4.6c0-2.7.6-4.8 1.7-6.3 1.2-1.5 2.8-2.3 4.8-2.3 1.5 0 2.8.6 3.8 1.8v-8.6h5.3v24H625l-.3-1.8c-1.1 1.4-2.5 2.1-4.1 2.1-2 0-3.6-.8-4.8-2.3-1.1-1.5-1.7-3.7-1.7-6.6zm5.3.4c0 3 .9 4.5 2.6 4.5 1.2 0 2-.5 2.5-1.5v-6.4c-.5-1-1.3-1.5-2.5-1.5-1.6 0-2.5 1.3-2.6 3.9v1zm13.4-13.1c0-.8.3-1.4.8-1.8.5-.5 1.2-.7 2.1-.7.9 0 1.6.2 2.1.7.5.5.8 1.1.8 1.8s-.3 1.4-.8 1.8c-.5.5-1.2.7-2.1.7-.9 0-1.6-.2-2.1-.7-.6-.4-.8-1-.8-1.8zm5.5 21.3H633V59.5h5.3v16.9zm9.4-21.1v4.2h2.8v3.7h-2.8v7.7c0 .6.1 1.1.3 1.3.2.2.7.4 1.4.4.5 0 1 0 1.3-.1v3.8c-.9.3-1.9.5-3 .5-1.8 0-3.2-.4-4-1.3-.9-.9-1.3-2.2-1.3-3.9v-8.4h-2.2v-3.7h2.2v-4.2h5.3zM425.1 97.9l.2 2c1.2-1.5 2.8-2.3 4.8-2.3 2.1 0 3.6.8 4.3 2.5 1.1-1.7 2.8-2.5 5-2.5 3.4 0 5.2 2.1 5.3 6.2v11h-5.3v-10.7c0-.9-.1-1.5-.4-1.9-.3-.4-.8-.6-1.6-.6-1 0-1.8.5-2.3 1.4v11.7h-5.3v-10.6c0-.9-.1-1.5-.4-1.9-.3-.4-.8-.6-1.6-.6-1 0-1.8.5-2.3 1.4v11.8h-5.3V97.9h4.9zm22 8.3c0-1.7.3-3.2 1-4.5.7-1.3 1.6-2.3 2.8-3 1.2-.7 2.7-1.1 4.3-1.1 2.5 0 4.5.8 6 2.4 1.5 1.6 2.2 3.7 2.2 6.4v.2c0 2.6-.7 4.7-2.2 6.3-1.5 1.5-3.4 2.3-5.9 2.3-2.4 0-4.3-.7-5.8-2.2-1.5-1.4-2.2-3.4-2.4-5.9v-.9zm5.2.3c0 1.6.2 2.7.7 3.4.5.7 1.2 1.1 2.2 1.1 1.9 0 2.8-1.4 2.9-4.3v-.5c0-3-1-4.5-2.9-4.5-1.8 0-2.7 1.3-2.9 3.9v.9zm18.2-8.6l.2 2c1.2-1.5 2.8-2.3 4.8-2.3 1.8 0 3.1.5 3.9 1.6.9 1.1 1.3 2.6 1.4 4.8v10.9h-5.3v-10.7c0-.9-.2-1.5-.5-1.9-.3-.4-1-.6-1.9-.6-1 0-1.8.4-2.3 1.2v11.9h-5.3V97.9h5zm13.2-4.4c0-.8.3-1.4.8-1.8.5-.5 1.2-.7 2.1-.7.9 0 1.6.2 2.1.7.5.5.8 1.1.8 1.8s-.3 1.4-.8 1.8c-.5.5-1.2.7-2.1.7-.9 0-1.6-.2-2.1-.7-.5-.4-.8-1-.8-1.8zm5.6 21.3H484V97.9h5.3v16.9zm9.4-21.1v4.2h2.8v3.7h-2.8v7.7c0 .6.1 1.1.3 1.3.2.2.7.4 1.4.4.5 0 1 0 1.3-.1v3.8c-.9.3-1.9.5-3 .5-1.8 0-3.2-.4-4-1.3-.9-.9-1.3-2.2-1.3-3.9v-8.4h-2.2v-3.7h2.2v-4.2h5.3zm3.7 12.5c0-1.7.3-3.2 1-4.5.7-1.3 1.6-2.3 2.8-3 1.2-.7 2.7-1.1 4.3-1.1 2.5 0 4.5.8 6 2.4 1.5 1.6 2.2 3.7 2.2 6.4v.2c0 2.6-.7 4.7-2.2 6.3-1.5 1.5-3.4 2.3-5.9 2.3-2.4 0-4.3-.7-5.8-2.2-1.5-1.4-2.2-3.4-2.4-5.9v-.9zm5.3.3c0 1.6.2 2.7.7 3.4.5.7 1.2 1.1 2.2 1.1 1.9 0 2.8-1.4 2.9-4.3v-.5c0-3-1-4.5-2.9-4.5-1.8 0-2.7 1.3-2.9 3.9v.9zm23.5-3.8l-1.7-.1c-1.7 0-2.7.5-3.2 1.6v10.7H521v-17h4.9l.2 2.2c.9-1.7 2.1-2.5 3.7-2.5.6 0 1.1.1 1.5.2l-.1 4.9zm1.9-9.2c0-.8.3-1.4.8-1.8.5-.5 1.2-.7 2.1-.7.9 0 1.6.2 2.1.7.5.5.8 1.1.8 1.8s-.3 1.4-.8 1.8c-.5.5-1.2.7-2.1.7-.9 0-1.6-.2-2.1-.7-.5-.4-.8-1-.8-1.8zm5.6 21.3h-5.3V97.9h5.3v16.9zm8.1-16.9l.2 2c1.2-1.5 2.8-2.3 4.8-2.3 1.8 0 3.1.5 3.9 1.6.9 1.1 1.3 2.6 1.4 4.8v10.9h-5.3v-10.7c0-.9-.2-1.5-.5-1.9-.3-.4-1-.6-1.9-.6-1 0-1.8.4-2.3 1.2v11.9h-5.3V97.9h5zm12.6 8.3c0-1.7.3-3.2.8-4.5s1.4-2.3 2.4-3c1.1-.7 2.3-1.1 3.7-1.1 1.8 0 3.1.6 4.1 1.8l.2-1.5h4.8v16.3c0 1.5-.3 2.8-1 3.9s-1.7 1.9-3 2.5c-1.3.6-2.8.9-4.6.9-1.2 0-2.4-.2-3.6-.7-1.2-.5-2-1.1-2.7-1.8l2.2-3.1c1 1.2 2.3 1.7 3.9 1.7 2.3 0 3.5-1.2 3.5-3.6v-.5c-1 1.1-2.3 1.7-3.8 1.7-2.1 0-3.7-.8-5-2.4-1.3-1.6-1.9-3.7-1.9-6.3v-.3zm5.3.4c0 1.4.3 2.5.8 3.3.5.8 1.2 1.2 2.2 1.2 1.1 0 2-.4 2.5-1.1v-7.1c-.5-.8-1.3-1.2-2.5-1.2-.9 0-1.7.4-2.2 1.3-.6.7-.8 2-.8 3.6zm31.2 8.2c-.2-.3-.4-.8-.5-1.5-1 1.2-2.3 1.8-4.1 1.8-1.6 0-2.9-.5-4.1-1.4-1.1-1-1.7-2.2-1.7-3.6 0-1.8.7-3.2 2-4.2 1.4-.9 3.3-1.4 5.9-1.4h1.6v-.9c0-1.6-.7-2.3-2-2.3-1.2 0-1.9.6-1.9 1.9H586c0-1.6.7-3 2.1-4s3.2-1.5 5.3-1.5 3.9.5 5.1 1.6c1.2 1.1 1.9 2.5 1.9 4.3v7.5c0 1.6.3 2.7.7 3.6v.3h-5.2zm-3.3-3.4c.7 0 1.2-.1 1.6-.4.4-.3.7-.6.9-1v-2.7h-1.5c-1.8 0-2.8.8-2.8 2.5 0 .5.2.9.5 1.2.4.2.8.4 1.3.4zm16.3 3.4h-5.3v-24h5.3v24zm11.4.3c-2.6 0-4.7-.8-6.3-2.3-1.6-1.5-2.4-3.6-2.4-6v-.4c0-1.7.3-3.3 1-4.6.6-1.3 1.6-2.3 2.8-3.1 1.2-.7 2.7-1.1 4.4-1.1 2.4 0 4.2.7 5.6 2.2 1.4 1.5 2.1 3.5 2.1 6.2v2H617c.2.9.6 1.7 1.2 2.2.6.5 1.5.8 2.5.8 1.7 0 3-.6 3.9-1.8l2.4 2.8c-.7.9-1.6 1.6-2.8 2.2s-2.5.9-3.9.9zm-.6-13.5c-1.5 0-2.5 1-2.8 3.1h5.3v-.4c0-.8-.2-1.5-.6-2-.4-.4-1-.7-1.9-.7zm20.1 1.1l-1.7-.1c-1.7 0-2.7.5-3.2 1.6v10.7h-5.3v-17h4.9l.2 2.2c.9-1.7 2.1-2.5 3.7-2.5.6 0 1.1.1 1.5.2l-.1 4.9zm8.8-9v4.2h2.8v3.7h-2.8v7.7c0 .6.1 1.1.3 1.3.2.2.7.4 1.4.4.5 0 1 0 1.3-.1v3.8c-.9.3-1.9.5-3 .5-1.8 0-3.2-.4-4-1.3-.9-.9-1.3-2.2-1.3-3.9v-8.4h-2.2v-3.7h2.2v-4.2h5.3zm13.7 16.4c0-.4-.2-.8-.7-1.1-.5-.3-1.4-.6-2.7-.8-1.3-.3-2.4-.7-3.2-1.1-.9-.5-1.5-1-2-1.7-.4-.7-.7-1.5-.7-2.3 0-1.6.6-2.8 1.9-3.8 1.3-1 3-1.5 5-1.5 2.2 0 4 .5 5.4 1.5 1.4 1 2 2.3 2 4H662c0-1.4-.7-2-2.1-2-.6 0-1 .2-1.4.5-.4.3-.6.7-.6 1.1 0 .5.2.8.7 1.1.5.3 1.2.5 2.2.7 1 .2 1.9.4 2.6.7 2.5.9 3.8 2.4 3.8 4.7 0 1.5-.7 2.8-2.1 3.8-1.4 1-3.1 1.5-5.3 1.5-1.4 0-2.7-.3-3.9-.8-1.1-.5-2-1.2-2.7-2.1-.6-.9-1-1.8-1-2.8h4.9c0 .8.3 1.4.8 1.7s1.1.5 1.9.5c.7 0 1.3-.1 1.6-.4.7-.6.9-1 .9-1.4zm9.4 10.8l-2.7-1.2.5-1.1c.7-1.4 1.1-2.6 1.1-3.9v-3.9h4.2v3.4c0 1.2-.3 2.4-.9 3.7-.5 1.2-1.3 2.2-2.2 3zm-144 41.9h-19.8v-4.3l9.1-9.6c2.3-2.6 3.4-4.6 3.4-6.1 0-1.2-.3-2.2-.8-2.8s-1.3-1-2.3-1c-1 0-1.8.4-2.4 1.3s-.9 1.9-.9 3.2h-6.6c0-1.7.4-3.4 1.3-4.8s2.1-2.6 3.6-3.5 3.3-1.2 5.2-1.2c3.1 0 5.4.7 7.1 2.1s2.5 3.5 2.5 6.1c0 1.1-.2 2.2-.6 3.3s-1.1 2.2-1.9 3.3-2.3 2.7-4.2 4.7l-3.7 4.2h11.2v5.1zm20.7-11.1h2.9v5.1h-2.9v6h-6.6v-6h-11l-.4-4 11.4-18.3v-.1h6.6v17.3zm-11.7 0h5.1v-8.8l-.4.7-4.7 8.1zm19.8 13.5h-4.7l9.7-30.9h4.7l-9.7 30.9zm31.4-27.3l-10.6 24.9h-7l10.6-23.4h-13.6v-5.1h20.5v3.6z"/><linearGradient id="SVGID_5_" gradientUnits="userSpaceOnUse" x1="-104.317" y1="720.752" x2="358.808" y2="720.752"><stop offset="0" stop-color="#41b5e8"/><stop offset=".5" stop-color="#6a53a3"/><stop offset="1" stop-color="#e72e8a"/></linearGradient><path class="st4" d="M-92.5 693.1h-3.7v10.1h-6.9v-28.4h11.2c3.4 0 6 .7 7.9 2.2 1.9 1.5 2.9 3.6 2.9 6.3 0 2-.4 3.6-1.2 4.9s-2.1 2.4-3.8 3.2l5.9 11.5v.3h-7.3l-5-10.1zm-3.7-5.3h4.3c1.3 0 2.3-.3 2.9-1 .7-.7 1-1.6 1-2.9 0-1.2-.3-2.2-1-2.9s-1.6-1-2.9-1h-4.3v7.8zm29.2 15.7c-3.2 0-5.9-1-7.9-2.9s-3-4.5-3-7.5v-.5c0-2.2.4-4.1 1.2-5.7s2-2.9 3.5-3.8 3.4-1.4 5.5-1.4c3 0 5.3.9 7 2.8s2.6 4.4 2.6 7.7v2.6h-13.1c.2 1.2.7 2.1 1.5 2.8s1.8 1 3.1 1c2.1 0 3.7-.7 4.9-2.2l3 3.6c-.8 1.1-2 2-3.5 2.7-1.5.5-3.1.8-4.8.8zm-.8-16.8c-1.9 0-3.1 1.3-3.4 3.8h6.6v-.5c0-1.1-.2-1.9-.8-2.5s-1.3-.8-2.4-.8zm21.3 11.7c.9 0 1.6-.3 2.1-.8s.8-1.2.7-2.1h6.2c0 2.3-.8 4.2-2.5 5.7s-3.8 2.2-6.4 2.2c-3.1 0-5.5-1-7.3-2.9s-2.7-4.6-2.7-8v-.3c0-2.1.4-4 1.2-5.7s1.9-2.9 3.4-3.8 3.2-1.3 5.3-1.3c2.7 0 4.9.8 6.5 2.3s2.4 3.6 2.4 6.2h-6.2c0-1.1-.3-1.9-.8-2.5s-1.2-.9-2.1-.9c-1.7 0-2.7 1.1-3 3.3-.1.7-.1 1.6-.1 2.9 0 2.1.3 3.6.8 4.4s1.4 1.3 2.5 1.3zm22 5.1c-3.2 0-5.9-1-7.9-2.9s-3-4.5-3-7.5v-.5c0-2.2.4-4.1 1.2-5.7s2-2.9 3.5-3.8 3.4-1.4 5.5-1.4c3 0 5.3.9 7 2.8s2.6 4.4 2.6 7.7v2.6h-13.1c.2 1.2.7 2.1 1.5 2.8s1.8 1 3.1 1c2.1 0 3.7-.7 4.9-2.2l3 3.6c-.8 1.1-2 2-3.5 2.7s-3 .8-4.8.8zm-.7-16.8c-1.9 0-3.1 1.3-3.4 3.8h6.6v-.5c0-1.1-.2-1.9-.8-2.5s-1.4-.8-2.4-.8zm12.2-10.2c0-.9.3-1.7 1-2.3s1.6-.9 2.6-.9 2 .3 2.6.9 1 1.4 1 2.3-.3 1.7-1 2.3-1.6.9-2.6.9-2-.3-2.6-.9-1-1.3-1-2.3zm7 26.6h-6.6V682H-6v21.1zm12.5-7.8L9.8 682h6.9l-6.9 21.1H3.2L-3.7 682h7l3.2 13.3zm22.2 8.2c-3.2 0-5.9-1-7.9-2.9s-3-4.5-3-7.5v-.5c0-2.2.4-4.1 1.2-5.7s2-2.9 3.5-3.8 3.4-1.4 5.5-1.4c3 0 5.3.9 7 2.8s2.6 4.4 2.6 7.7v2.6H24.5c.2 1.2.7 2.1 1.5 2.8s1.8 1 3.1 1c2.1 0 3.7-.7 4.9-2.2l3 3.6c-.8 1.1-2 2-3.5 2.7s-3.1.8-4.8.8zm-.7-16.8c-1.9 0-3.1 1.3-3.4 3.8h6.6v-.5c0-1.1-.2-1.9-.8-2.5s-1.4-.8-2.4-.8zm31.2 11.7c.9 0 1.6-.3 2.1-.8s.8-1.2.7-2.1h6.2c0 2.3-.8 4.2-2.5 5.7s-3.8 2.2-6.4 2.2c-3.1 0-5.5-1-7.3-2.9s-2.7-4.6-2.7-8v-.3c0-2.1.4-4 1.2-5.7.8-1.6 1.9-2.9 3.4-3.8s3.2-1.3 5.3-1.3c2.7 0 4.9.8 6.5 2.3s2.4 3.6 2.4 6.2h-6.2c0-1.1-.3-1.9-.8-2.5s-1.2-.9-2.1-.9c-1.7 0-2.7 1.1-3 3.3-.1.7-.1 1.6-.1 2.9 0 2.1.3 3.6.8 4.4s1.4 1.3 2.5 1.3zm24.6-10.5l-2.2-.2c-2.1 0-3.4.7-4 2v13.4H71V682h6.2l.2 2.7c1.1-2.1 2.6-3.1 4.6-3.1.7 0 1.3.1 1.8.2v6.1zM96 703.5c-3.2 0-5.9-1-7.9-2.9s-3-4.5-3-7.5v-.5c0-2.2.4-4.1 1.2-5.7s2-2.9 3.5-3.8 3.4-1.4 5.5-1.4c3 0 5.3.9 7 2.8s2.6 4.4 2.6 7.7v2.6H91.8c.2 1.2.7 2.1 1.5 2.8s1.8 1 3.1 1c2.1 0 3.7-.7 4.9-2.2l3 3.6c-.8 1.1-2 2-3.5 2.7s-3.1.8-4.8.8zm-.7-16.8c-1.9 0-3.1 1.3-3.4 3.8h6.6v-.5c0-1.1-.2-1.9-.8-2.5s-1.4-.8-2.4-.8zm11.4 5.7c0-3.3.7-6 2.2-7.9s3.5-2.9 6.1-2.9c1.9 0 3.5.7 4.8 2.2v-10.7h6.6v30h-5.9l-.3-2.3c-1.4 1.8-3.1 2.7-5.2 2.7-2.5 0-4.5-1-6-2.9s-2.3-4.6-2.3-8.2zm6.6.4c0 3.8 1.1 5.6 3.3 5.6 1.5 0 2.5-.6 3.1-1.8v-8c-.6-1.2-1.6-1.9-3.1-1.9-2 0-3.1 1.6-3.3 4.9v1.2zm16.7-16.3c0-.9.3-1.7 1-2.3s1.6-.9 2.6-.9 2 .3 2.6.9 1 1.4 1 2.3-.3 1.7-1 2.3-1.6.9-2.6.9-2-.3-2.6-.9-1-1.3-1-2.3zm7 26.6h-6.6V682h6.6v21.1zm11.7-26.4v5.3h3.5v4.6h-3.5v9.7c0 .8.1 1.3.4 1.7s.9.5 1.7.5c.7 0 1.2 0 1.6-.1v4.7c-1.2.4-2.4.6-3.7.6-2.3 0-3.9-.5-5-1.6s-1.6-2.7-1.6-4.9v-10.5h-2.7V682h2.7v-5.3h6.6zM171 682l.2 2.5c1.5-1.9 3.5-2.9 6-2.9 2.7 0 4.5 1.1 5.4 3.2 1.4-2.1 3.5-3.2 6.2-3.2 4.3 0 6.5 2.6 6.6 7.8v13.8h-6.6v-13.3c0-1.1-.2-1.9-.5-2.4s-1-.7-2-.7c-1.3 0-2.3.6-2.9 1.7V703.2h-6.6v-13.3c0-1.1-.2-1.9-.5-2.4s-1-.7-2-.7c-1.3 0-2.2.6-2.9 1.7v14.7h-6.6V682h6.2zm27.4 10.4c0-2.1.4-4 1.2-5.6s2-2.9 3.5-3.8 3.3-1.3 5.4-1.3c3.2 0 5.7 1 7.5 2.9s2.7 4.6 2.7 8v.2c0 3.3-.9 5.9-2.7 7.8s-4.3 2.9-7.4 2.9c-3 0-5.4-.9-7.2-2.7s-2.8-4.2-2.9-7.3l-.1-1.1zm6.6.4c0 2 .3 3.4.9 4.3s1.5 1.4 2.7 1.4c2.3 0 3.5-1.8 3.6-5.4v-.7c0-3.8-1.2-5.7-3.6-5.7-2.2 0-3.4 1.6-3.6 4.9v1.2zm22.7-10.8l.2 2.5c1.5-1.9 3.5-2.9 6-2.9 2.2 0 3.8.7 4.9 2s1.7 3.3 1.7 5.9v13.6H234v-13.3c0-1.1-.2-1.9-.6-2.4s-1.2-.8-2.3-.8c-1.3 0-2.2.5-2.9 1.5V703h-6.6v-21h6.1zm16.5-5.5c0-.9.3-1.7 1-2.3s1.6-.9 2.6-.9 2 .3 2.6.9 1 1.4 1 2.3-.3 1.7-1 2.3-1.6.9-2.6.9-2-.3-2.6-.9-1-1.3-1-2.3zm7 26.6h-6.6V682h6.6v21.1zm11.7-26.4v5.3h3.5v4.6h-3.5v9.7c0 .8.1 1.3.4 1.7s.9.5 1.7.5c.7 0 1.2 0 1.6-.1v4.7c-1.2.4-2.4.6-3.7.6-2.3 0-3.9-.5-5-1.6s-1.6-2.7-1.6-4.9v-10.5h-2.7V682h2.7v-5.3h6.6zm4.6 15.7c0-2.1.4-4 1.2-5.6s2-2.9 3.5-3.8 3.3-1.3 5.4-1.3c3.2 0 5.7 1 7.5 2.9s2.7 4.6 2.7 8v.2c0 3.3-.9 5.9-2.7 7.8s-4.3 2.9-7.4 2.9c-3 0-5.4-.9-7.2-2.7s-2.8-4.2-2.9-7.3l-.1-1.1zm6.6.4c0 2 .3 3.4.9 4.3s1.5 1.4 2.7 1.4c2.3 0 3.5-1.8 3.6-5.4v-.7c0-3.8-1.2-5.7-3.6-5.7-2.2 0-3.4 1.6-3.6 4.9v1.2zm29.5-4.9l-2.2-.2c-2.1 0-3.4.7-4 2v13.4h-6.6V682h6.2l.2 2.7c1.1-2.1 2.6-3.1 4.6-3.1.7 0 1.3.1 1.8.2v6.1zm2.3-11.4c0-.9.3-1.7 1-2.3s1.6-.9 2.6-.9 2 .3 2.6.9 1 1.4 1 2.3-.3 1.7-1 2.3-1.6.9-2.6.9-2-.3-2.6-.9-1-1.3-1-2.3zm7 26.6h-6.6V682h6.6v21.1zM323 682l.2 2.5c1.5-1.9 3.5-2.9 6-2.9 2.2 0 3.8.7 4.9 2s1.7 3.3 1.7 5.9v13.6h-6.6v-13.3c0-1.1-.2-1.9-.6-2.4s-1.2-.8-2.3-.8c-1.3 0-2.2.5-2.9 1.5V703h-6.6v-21h6.2zm15.8 10.4c0-2.1.4-4 1.1-5.7s1.7-2.9 3-3.8 2.8-1.3 4.6-1.3c2.2 0 3.9.7 5.2 2.2l.2-1.8h6v20.3c0 1.9-.4 3.5-1.3 4.9s-2.1 2.4-3.8 3.2-3.5 1.1-5.7 1.1c-1.5 0-3-.3-4.5-.9s-2.6-1.3-3.3-2.3l2.8-3.9c1.2 1.4 2.8 2.2 4.8 2.2 2.9 0 4.4-1.5 4.4-4.5v-.7c-1.3 1.4-2.9 2.1-4.8 2.1-2.6 0-4.7-1-6.2-3s-2.4-4.6-2.4-7.9v-.2zm6.6.4c0 1.7.3 3.1 1 4.1s1.6 1.5 2.7 1.5c1.4 0 2.5-.5 3.1-1.4v-8.9c-.6-1-1.7-1.4-3.1-1.4-1.2 0-2.1.5-2.8 1.6s-.9 2.5-.9 4.5zm-436.8 67.9c-.2-.4-.4-1.1-.6-1.9-1.2 1.5-2.9 2.3-5.1 2.3-2 0-3.7-.6-5.1-1.8s-2.1-2.7-2.1-4.5c0-2.3.8-4 2.5-5.2s4.2-1.8 7.4-1.8h2v-1.1c0-1.9-.8-2.9-2.5-2.9-1.6 0-2.3.8-2.3 2.3h-6.6c0-2 .9-3.7 2.6-5s4-1.9 6.7-1.9 4.8.7 6.4 2 2.4 3.1 2.4 5.4v9.4c0 1.9.3 3.4.9 4.5v.3h-6.6zm-4.2-4.3c.8 0 1.5-.2 2-.5s.9-.7 1.2-1.2v-3.4h-1.9c-2.3 0-3.4 1-3.4 3.1 0 .6.2 1.1.6 1.5s.9.5 1.5.5zm20.4 4.3h-6.6v-30h6.6v30zm14.3.4c-3.2 0-5.9-1-7.9-2.9s-3-4.5-3-7.5v-.5c0-2.2.4-4.1 1.2-5.7s2-2.9 3.5-3.8 3.4-1.4 5.5-1.4c3 0 5.3.9 7 2.8s2.6 4.4 2.6 7.7v2.6h-13.1c.2 1.2.7 2.1 1.5 2.8s1.8 1 3.1 1c2.1 0 3.7-.7 4.9-2.2l3 3.6c-.8 1.1-2 2-3.5 2.7-1.4.5-3.1.8-4.8.8zm-.7-16.8c-1.9 0-3.1 1.3-3.4 3.8h6.6v-.5c0-1.1-.2-1.9-.8-2.5s-1.4-.8-2.4-.8zm25 1.2l-2.2-.2c-2.1 0-3.4.7-4 2v13.4h-6.6v-21.1h6.2l.2 2.7c1.1-2.1 2.6-3.1 4.6-3.1.7 0 1.3.1 1.8.2v6.1zm11.1-11.2v5.3h3.5v4.6h-3.5v9.7c0 .8.1 1.3.4 1.7s.9.5 1.7.5c.7 0 1.2 0 1.6-.1v4.7c-1.2.4-2.4.6-3.7.6-2.3 0-3.9-.5-5-1.6s-1.6-2.7-1.6-4.9v-10.5h-2.7v-4.6h2.7v-5.3h6.6zm17.1 20.5c0-.6-.3-1-.9-1.3s-1.7-.7-3.3-1.1-3-.8-4.1-1.4-1.9-1.3-2.4-2.2-.8-1.8-.8-2.9c0-1.9.8-3.5 2.4-4.8s3.7-1.9 6.3-1.9c2.8 0 5 .6 6.7 1.9s2.5 2.9 2.5 5h-6.6c0-1.7-.9-2.5-2.7-2.5-.7 0-1.3.2-1.7.6s-.7.9-.7 1.4c0 .6.3 1.1.9 1.4s1.5.7 2.7.9 2.4.5 3.3.8c3.2 1.1 4.8 3.1 4.8 5.9 0 1.9-.9 3.5-2.6 4.7s-3.9 1.8-6.7 1.8c-1.8 0-3.4-.3-4.8-1s-2.5-1.5-3.3-2.7-1.2-2.3-1.2-3.5h6.2c0 1 .4 1.7 1 2.1s1.4.7 2.4.7c.9 0 1.6-.2 2-.5s.6-.8.6-1.4zm11.7 13.6L0 766.8l.7-1.3c.9-1.7 1.4-3.3 1.4-4.8v-4.9h5.3v4.2c0 1.5-.4 3-1.2 4.6s-1.7 2.8-2.9 3.8zm42.5-7.7H22v-5.2L33 744c2.7-3.1 4.1-5.5 4.1-7.3 0-1.5-.3-2.6-1-3.4s-1.6-1.1-2.8-1.1c-1.2 0-2.2.5-2.9 1.5s-1.1 2.3-1.1 3.8h-7.9c0-2.1.5-4 1.6-5.8s2.5-3.2 4.4-4.2 3.9-1.5 6.2-1.5c3.7 0 6.5.9 8.5 2.6s3 4.1 3 7.3c0 1.3-.2 2.7-.8 3.9s-1.3 2.6-2.3 4-2.8 3.3-5.1 5.6l-4.4 5.1h13.4v6.2zm24.8-13.3h3.5v6.1h-3.5v7.2h-7.9v-7.2H49.6l-.5-4.8 13.7-22v-.1h7.9v20.8zm-14 0h6.1v-10.5l-.5.8-5.6 9.7zm23.8 16.3h-5.6l11.6-37.1H92l-11.6 37.1zm37.8-32.9l-12.8 29.9h-8.3l12.8-28H93.6v-6.1h24.6v4.2z"/></g></svg>