<?xml version="1.0" encoding="utf-8"?>
<!-- Generator: Adobe Illustrator 24.2.3, SVG Export Plug-In . SVG Version: 6.00 Build 0)  -->
<svg version="1.1" id="Layer_1" xmlns="http://www.w3.org/2000/svg" xmlns:xlink="http://www.w3.org/1999/xlink" x="0px" y="0px"
	 viewBox="0 0 320 50" style="enable-background:new 0 0 320 50;" xml:space="preserve">
<style type="text/css">
	.st0{fill:#E82D8A;}
	.st1{fill:#EDF4FD;}
</style>
<g>
	<rect x="249.13" class="st0" width="70.87" height="49.94"/>
</g>
<g>
	<path class="st1" d="M261.97,31.12c0-0.12-0.04-0.22-0.12-0.3c-0.08-0.08-0.22-0.16-0.42-0.22c-0.28-0.08-0.48-0.19-0.6-0.33
		c-0.13-0.14-0.19-0.31-0.19-0.52c0-0.21,0.06-0.39,0.19-0.52c0.12-0.14,0.29-0.22,0.51-0.24v-0.42h0.29v0.43
		c0.22,0.03,0.39,0.12,0.51,0.27c0.12,0.15,0.18,0.36,0.18,0.63h-0.36c0-0.18-0.04-0.33-0.13-0.44s-0.2-0.16-0.35-0.16
		c-0.15,0-0.27,0.04-0.35,0.12s-0.12,0.19-0.12,0.33c0,0.13,0.04,0.24,0.13,0.32c0.09,0.08,0.23,0.15,0.42,0.21
		c0.2,0.06,0.35,0.13,0.46,0.21c0.11,0.08,0.19,0.17,0.24,0.27c0.05,0.1,0.08,0.22,0.08,0.36c0,0.22-0.07,0.39-0.2,0.53
		c-0.13,0.13-0.32,0.21-0.55,0.24v0.37h-0.29v-0.37c-0.24-0.02-0.43-0.11-0.57-0.26c-0.14-0.15-0.21-0.35-0.21-0.61h0.36
		c0,0.18,0.05,0.32,0.14,0.42c0.09,0.1,0.23,0.15,0.4,0.15c0.17,0,0.3-0.04,0.4-0.12C261.92,31.38,261.97,31.26,261.97,31.12z"/>
	<path class="st1" d="M263.96,31.85h-0.36v-2.39l-0.72,0.27V29.4l1.03-0.39h0.06V31.85z"/>
	<path class="st1" d="M266.52,29.24v0.51h0.39v0.28h-0.39v1.3c0,0.08,0.02,0.15,0.05,0.19s0.09,0.06,0.18,0.06
		c0.04,0,0.1-0.01,0.17-0.02v0.29c-0.09,0.03-0.19,0.04-0.28,0.04c-0.16,0-0.28-0.05-0.36-0.15c-0.08-0.1-0.12-0.24-0.12-0.41v-1.3
		h-0.38v-0.28h0.38v-0.51H266.52z"/>
	<path class="st1" d="M268.35,30.07c-0.05-0.01-0.11-0.01-0.18-0.01c-0.24,0-0.4,0.1-0.48,0.3v1.49h-0.36v-2.1h0.35l0.01,0.24
		c0.12-0.19,0.29-0.28,0.5-0.28c0.07,0,0.12,0.01,0.16,0.03V30.07z"/>
	<path class="st1" d="M268.68,29.19c0-0.06,0.02-0.11,0.05-0.15c0.04-0.04,0.09-0.06,0.16-0.06c0.07,0,0.12,0.02,0.16,0.06
		s0.05,0.09,0.05,0.15s-0.02,0.11-0.05,0.15s-0.09,0.06-0.16,0.06c-0.07,0-0.12-0.02-0.16-0.06
		C268.7,29.3,268.68,29.25,268.68,29.19z M269.07,31.85h-0.36v-2.1h0.36V31.85z"/>
	<path class="st1" d="M270.94,31.85c-0.02-0.04-0.04-0.12-0.05-0.22c-0.17,0.17-0.37,0.26-0.6,0.26c-0.21,0-0.38-0.06-0.51-0.18
		s-0.2-0.27-0.2-0.45c0-0.22,0.08-0.39,0.25-0.51c0.17-0.12,0.4-0.18,0.7-0.18h0.35v-0.17c0-0.13-0.04-0.23-0.11-0.3
		c-0.08-0.08-0.19-0.11-0.33-0.11c-0.13,0-0.24,0.03-0.32,0.1c-0.09,0.06-0.13,0.14-0.13,0.23h-0.36c0-0.1,0.04-0.21,0.11-0.3
		s0.18-0.17,0.3-0.23c0.13-0.06,0.27-0.08,0.42-0.08c0.24,0,0.43,0.06,0.57,0.18c0.14,0.12,0.21,0.29,0.21,0.5v0.97
		c0,0.19,0.02,0.35,0.07,0.46v0.03H270.94z M270.34,31.58c0.11,0,0.22-0.03,0.32-0.09c0.1-0.06,0.17-0.13,0.22-0.23v-0.43h-0.28
		c-0.44,0-0.66,0.13-0.66,0.39c0,0.11,0.04,0.2,0.11,0.26S270.22,31.58,270.34,31.58z"/>
	<path class="st1" d="M272.2,31.85h-0.36v-2.98h0.36V31.85z"/>
	<path class="st1" d="M273.93,31.85v-1.82h-0.33v-0.28h0.33v-0.22c0-0.23,0.06-0.4,0.18-0.52c0.12-0.12,0.29-0.18,0.51-0.18
		c0.08,0,0.17,0.01,0.25,0.03l-0.02,0.29c-0.06-0.01-0.12-0.02-0.19-0.02c-0.12,0-0.21,0.03-0.27,0.1s-0.1,0.17-0.1,0.29v0.22h0.45
		v0.28h-0.45v1.82H273.93z"/>
	<path class="st1" d="M275.04,30.78c0-0.21,0.04-0.39,0.12-0.56c0.08-0.17,0.19-0.29,0.34-0.38c0.14-0.09,0.31-0.13,0.49-0.13
		c0.29,0,0.52,0.1,0.69,0.3s0.26,0.46,0.26,0.79v0.03c0,0.21-0.04,0.39-0.12,0.55s-0.19,0.29-0.34,0.38s-0.31,0.14-0.5,0.14
		c-0.29,0-0.52-0.1-0.69-0.3s-0.26-0.46-0.26-0.79V30.78z M275.4,30.82c0,0.23,0.05,0.42,0.16,0.56c0.11,0.14,0.25,0.21,0.43,0.21
		c0.18,0,0.33-0.07,0.43-0.21c0.11-0.14,0.16-0.34,0.16-0.6c0-0.23-0.05-0.42-0.16-0.56c-0.11-0.14-0.25-0.21-0.44-0.21
		c-0.18,0-0.32,0.07-0.43,0.21C275.46,30.36,275.4,30.56,275.4,30.82z"/>
	<path class="st1" d="M278.42,30.07c-0.05-0.01-0.11-0.01-0.18-0.01c-0.24,0-0.4,0.1-0.48,0.3v1.49h-0.36v-2.1h0.35l0.01,0.24
		c0.12-0.19,0.28-0.28,0.5-0.28c0.07,0,0.12,0.01,0.16,0.03V30.07z"/>
	<path class="st1" d="M280.22,29.24v0.51h0.39v0.28h-0.39v1.3c0,0.08,0.02,0.15,0.05,0.19s0.09,0.06,0.18,0.06
		c0.04,0,0.1-0.01,0.17-0.02v0.29c-0.09,0.03-0.19,0.04-0.28,0.04c-0.16,0-0.28-0.05-0.36-0.15c-0.08-0.1-0.12-0.24-0.12-0.41v-1.3
		h-0.38v-0.28h0.38v-0.51H280.22z"/>
	<path class="st1" d="M281.39,30c0.16-0.2,0.37-0.29,0.62-0.29c0.44,0,0.67,0.25,0.67,0.75v1.39h-0.36v-1.39
		c0-0.15-0.04-0.26-0.1-0.34c-0.07-0.07-0.17-0.11-0.32-0.11c-0.12,0-0.22,0.03-0.31,0.09c-0.09,0.06-0.16,0.14-0.21,0.24v1.5h-0.36
		v-2.98h0.36V30z"/>
	<path class="st1" d="M284.1,31.89c-0.29,0-0.52-0.09-0.7-0.28c-0.18-0.19-0.27-0.44-0.27-0.75v-0.07c0-0.21,0.04-0.39,0.12-0.56
		c0.08-0.16,0.19-0.29,0.33-0.38c0.14-0.09,0.3-0.14,0.46-0.14c0.27,0,0.49,0.09,0.64,0.27c0.15,0.18,0.23,0.44,0.23,0.77v0.15
		h-1.42c0,0.21,0.07,0.37,0.18,0.5c0.12,0.13,0.26,0.19,0.44,0.19c0.13,0,0.23-0.03,0.32-0.08c0.09-0.05,0.17-0.12,0.23-0.21
		l0.22,0.17C284.71,31.75,284.45,31.89,284.1,31.89z M284.05,30.01c-0.15,0-0.27,0.05-0.37,0.16s-0.16,0.25-0.18,0.44h1.05v-0.03
		c-0.01-0.18-0.06-0.32-0.15-0.42C284.32,30.06,284.2,30.01,284.05,30.01z"/>
	<path class="st1" d="M286.49,31.85v-1.82h-0.33v-0.28h0.33v-0.22c0-0.23,0.06-0.4,0.18-0.52s0.29-0.18,0.51-0.18
		c0.08,0,0.17,0.01,0.25,0.03l-0.02,0.29c-0.06-0.01-0.13-0.02-0.19-0.02c-0.12,0-0.21,0.03-0.27,0.1s-0.09,0.17-0.09,0.29v0.22
		h0.45v0.28h-0.45v1.82H286.49z"/>
	<path class="st1" d="M287.7,29.19c0-0.06,0.02-0.11,0.05-0.15c0.04-0.04,0.09-0.06,0.16-0.06c0.07,0,0.12,0.02,0.16,0.06
		s0.05,0.09,0.05,0.15s-0.02,0.11-0.05,0.15s-0.09,0.06-0.16,0.06c-0.07,0-0.12-0.02-0.16-0.06C287.71,29.3,287.7,29.25,287.7,29.19
		z M288.09,31.85h-0.36v-2.1h0.36V31.85z"/>
	<path class="st1" d="M289.68,30.07c-0.05-0.01-0.11-0.01-0.18-0.01c-0.24,0-0.4,0.1-0.48,0.3v1.49h-0.36v-2.1h0.35l0.01,0.24
		c0.12-0.19,0.28-0.28,0.5-0.28c0.07,0,0.12,0.01,0.16,0.03V30.07z"/>
	<path class="st1" d="M291.23,31.29c0-0.1-0.04-0.17-0.11-0.23s-0.2-0.1-0.38-0.14c-0.18-0.04-0.33-0.09-0.43-0.14
		c-0.11-0.05-0.19-0.12-0.24-0.19c-0.05-0.08-0.08-0.17-0.08-0.27c0-0.17,0.07-0.32,0.22-0.44c0.15-0.12,0.33-0.18,0.56-0.18
		c0.24,0,0.43,0.06,0.58,0.18s0.22,0.28,0.22,0.47h-0.36c0-0.1-0.04-0.18-0.13-0.25c-0.08-0.07-0.19-0.11-0.32-0.11
		c-0.13,0-0.23,0.03-0.31,0.09c-0.07,0.06-0.11,0.13-0.11,0.22c0,0.09,0.03,0.15,0.1,0.2s0.19,0.09,0.37,0.13
		c0.18,0.04,0.32,0.09,0.44,0.14s0.19,0.12,0.25,0.2c0.05,0.08,0.08,0.17,0.08,0.29c0,0.19-0.08,0.34-0.22,0.45
		c-0.15,0.11-0.35,0.17-0.58,0.17c-0.17,0-0.32-0.03-0.45-0.09c-0.13-0.06-0.23-0.14-0.3-0.25c-0.07-0.11-0.11-0.22-0.11-0.35h0.36
		c0.01,0.12,0.05,0.22,0.14,0.29c0.09,0.07,0.21,0.11,0.36,0.11c0.14,0,0.25-0.03,0.33-0.08C291.19,31.46,291.23,31.39,291.23,31.29
		z"/>
	<path class="st1" d="M292.54,29.24v0.51h0.39v0.28h-0.39v1.3c0,0.08,0.02,0.15,0.05,0.19s0.09,0.06,0.18,0.06
		c0.04,0,0.1-0.01,0.17-0.02v0.29c-0.09,0.03-0.19,0.04-0.28,0.04c-0.16,0-0.28-0.05-0.36-0.15c-0.08-0.1-0.12-0.24-0.12-0.41v-1.3
		h-0.38v-0.28h0.38v-0.51H292.54z"/>
	<path class="st1" d="M295.62,31.85h-0.56v-2.16l-0.67,0.21v-0.46l1.17-0.42h0.06V31.85z"/>
	<path class="st1" d="M298.2,30.79h0.32v0.45h-0.32v0.61h-0.56v-0.61h-1.16l-0.02-0.35l1.18-1.86h0.57V30.79z M297.02,30.79h0.63v-1
		l-0.04,0.06L297.02,30.79z"/>
	<path class="st1" d="M299.75,30.79c0-0.33,0.07-0.59,0.22-0.78c0.15-0.19,0.35-0.29,0.6-0.29c0.21,0,0.37,0.08,0.51,0.23v-1.07
		h0.56v2.98h-0.51l-0.03-0.22c-0.14,0.17-0.32,0.26-0.54,0.26c-0.25,0-0.45-0.1-0.59-0.29C299.83,31.4,299.75,31.13,299.75,30.79z
		 M300.31,30.83c0,0.2,0.03,0.35,0.1,0.45c0.07,0.11,0.17,0.16,0.3,0.16c0.17,0,0.3-0.07,0.37-0.22v-0.83
		c-0.07-0.15-0.19-0.22-0.36-0.22C300.45,30.17,300.31,30.39,300.31,30.83z"/>
	<path class="st1" d="M303.3,31.85c-0.03-0.05-0.04-0.11-0.06-0.19c-0.14,0.15-0.31,0.23-0.53,0.23c-0.21,0-0.38-0.06-0.51-0.18
		c-0.13-0.12-0.2-0.27-0.2-0.45c0-0.22,0.08-0.39,0.25-0.51s0.4-0.18,0.72-0.18h0.26v-0.12c0-0.1-0.02-0.17-0.07-0.23
		s-0.13-0.09-0.24-0.09c-0.09,0-0.17,0.02-0.22,0.07s-0.08,0.11-0.08,0.19h-0.56c0-0.12,0.04-0.23,0.11-0.34
		c0.07-0.1,0.18-0.18,0.32-0.24c0.14-0.06,0.29-0.09,0.46-0.09c0.26,0,0.46,0.06,0.62,0.2c0.15,0.13,0.23,0.31,0.23,0.55v0.91
		c0,0.2,0.03,0.35,0.08,0.45v0.03H303.3z M302.83,31.46c0.08,0,0.16-0.02,0.23-0.06c0.07-0.04,0.12-0.09,0.16-0.15V30.9h-0.21
		c-0.28,0-0.43,0.1-0.45,0.29l0,0.03c0,0.07,0.02,0.13,0.07,0.17C302.68,31.44,302.75,31.46,302.83,31.46z"/>
	<path class="st1" d="M305,31.06l0.39-1.31h0.6l-0.84,2.43l-0.05,0.11c-0.12,0.27-0.33,0.41-0.62,0.41c-0.08,0-0.16-0.01-0.25-0.04
		v-0.42l0.09,0c0.11,0,0.19-0.02,0.24-0.05c0.05-0.03,0.09-0.09,0.12-0.16l0.07-0.17L304,29.75h0.6L305,31.06z"/>
	<path class="st1" d="M307.35,31.27c0-0.07-0.03-0.12-0.1-0.16c-0.07-0.04-0.18-0.08-0.33-0.11c-0.5-0.1-0.75-0.32-0.75-0.64
		c0-0.19,0.08-0.34,0.23-0.47c0.15-0.12,0.36-0.19,0.61-0.19c0.27,0,0.48,0.06,0.64,0.19c0.16,0.12,0.24,0.29,0.24,0.49h-0.56
		c0-0.08-0.03-0.15-0.08-0.2s-0.13-0.08-0.24-0.08c-0.09,0-0.17,0.02-0.22,0.06s-0.08,0.1-0.08,0.16c0,0.06,0.03,0.11,0.09,0.15
		c0.06,0.04,0.16,0.07,0.3,0.1c0.14,0.03,0.26,0.06,0.35,0.09c0.3,0.11,0.44,0.3,0.44,0.57c0,0.19-0.08,0.35-0.25,0.46
		c-0.17,0.12-0.38,0.18-0.64,0.18c-0.18,0-0.33-0.03-0.47-0.09c-0.14-0.06-0.24-0.15-0.32-0.26c-0.08-0.11-0.12-0.23-0.12-0.35h0.53
		c0.01,0.1,0.04,0.18,0.11,0.23c0.07,0.05,0.16,0.08,0.28,0.08c0.11,0,0.19-0.02,0.24-0.06C307.32,31.39,307.35,31.34,307.35,31.27z
		"/>
	<path class="st1" d="M308.3,32.41l-0.2-0.14c0.12-0.17,0.18-0.34,0.19-0.52v-0.32h0.35v0.28c0,0.13-0.03,0.26-0.1,0.39
		C308.48,32.23,308.39,32.33,308.3,32.41z"/>
	<path class="st1" d="M260.15,35.6c0,0.32-0.07,0.58-0.22,0.77s-0.34,0.29-0.59,0.29c-0.25,0-0.46-0.08-0.6-0.24v1.01h-0.36v-2.91
		h0.33l0.02,0.23c0.15-0.18,0.35-0.27,0.61-0.27c0.25,0,0.45,0.09,0.6,0.29s0.22,0.46,0.22,0.79V35.6z M259.79,35.56
		c0-0.24-0.05-0.42-0.15-0.56c-0.1-0.14-0.24-0.21-0.42-0.21c-0.22,0-0.38,0.1-0.49,0.29v1c0.11,0.19,0.27,0.29,0.49,0.29
		c0.17,0,0.31-0.07,0.41-0.21S259.79,35.82,259.79,35.56z"/>
	<path class="st1" d="M261,36.62h-0.36v-2.98H261V36.62z"/>
	<path class="st1" d="M262.87,36.62c-0.02-0.04-0.04-0.12-0.05-0.22c-0.17,0.17-0.37,0.26-0.6,0.26c-0.21,0-0.38-0.06-0.51-0.18
		s-0.2-0.27-0.2-0.45c0-0.22,0.08-0.39,0.25-0.51s0.4-0.18,0.7-0.18h0.35v-0.17c0-0.13-0.04-0.23-0.11-0.3
		c-0.07-0.08-0.19-0.11-0.33-0.11c-0.13,0-0.24,0.03-0.32,0.1c-0.09,0.06-0.13,0.14-0.13,0.23h-0.36c0-0.1,0.04-0.21,0.11-0.3
		c0.07-0.1,0.17-0.17,0.3-0.23c0.13-0.06,0.27-0.08,0.42-0.08c0.24,0,0.43,0.06,0.57,0.18c0.14,0.12,0.21,0.29,0.21,0.5v0.97
		c0,0.19,0.02,0.35,0.07,0.46v0.03H262.87z M262.27,36.35c0.11,0,0.22-0.03,0.32-0.09c0.1-0.06,0.17-0.13,0.22-0.23V35.6h-0.28
		c-0.44,0-0.66,0.13-0.66,0.39c0,0.11,0.04,0.2,0.11,0.26S262.15,36.35,262.27,36.35z"/>
	<path class="st1" d="M264.07,34.52l0.01,0.26c0.16-0.2,0.37-0.3,0.63-0.3c0.44,0,0.67,0.25,0.67,0.75v1.39h-0.36v-1.39
		c0-0.15-0.04-0.26-0.1-0.34c-0.07-0.07-0.17-0.11-0.32-0.11c-0.12,0-0.22,0.03-0.31,0.09c-0.09,0.06-0.16,0.14-0.21,0.24v1.5h-0.36
		v-2.1H264.07z"/>
	<path class="st1" d="M267.15,36.07c0-0.1-0.04-0.17-0.11-0.23s-0.2-0.1-0.38-0.14c-0.18-0.04-0.33-0.09-0.43-0.14
		c-0.11-0.05-0.19-0.12-0.24-0.19c-0.05-0.08-0.08-0.17-0.08-0.27c0-0.17,0.07-0.32,0.22-0.44c0.15-0.12,0.33-0.18,0.56-0.18
		c0.24,0,0.43,0.06,0.58,0.18s0.22,0.28,0.22,0.47h-0.36c0-0.1-0.04-0.18-0.13-0.25c-0.08-0.07-0.19-0.11-0.32-0.11
		c-0.13,0-0.23,0.03-0.31,0.09c-0.07,0.06-0.11,0.13-0.11,0.22c0,0.09,0.03,0.15,0.1,0.2s0.19,0.09,0.37,0.13
		c0.18,0.04,0.32,0.09,0.44,0.14s0.19,0.12,0.25,0.2c0.05,0.08,0.08,0.17,0.08,0.29c0,0.19-0.08,0.34-0.22,0.45
		c-0.15,0.11-0.35,0.17-0.58,0.17c-0.17,0-0.32-0.03-0.45-0.09c-0.13-0.06-0.23-0.14-0.3-0.25c-0.07-0.11-0.11-0.22-0.11-0.35h0.36
		c0.01,0.12,0.05,0.22,0.14,0.29c0.09,0.07,0.21,0.11,0.36,0.11c0.14,0,0.25-0.03,0.33-0.08C267.11,36.23,267.15,36.16,267.15,36.07
		z"/>
	<path class="st1" d="M270.19,36.07c0-0.1-0.04-0.17-0.11-0.23s-0.2-0.1-0.38-0.14c-0.18-0.04-0.33-0.09-0.43-0.14
		c-0.11-0.05-0.19-0.12-0.24-0.19c-0.05-0.08-0.08-0.17-0.08-0.27c0-0.17,0.07-0.32,0.22-0.44c0.15-0.12,0.33-0.18,0.56-0.18
		c0.24,0,0.43,0.06,0.58,0.18s0.22,0.28,0.22,0.47h-0.36c0-0.1-0.04-0.18-0.13-0.25c-0.08-0.07-0.19-0.11-0.32-0.11
		c-0.13,0-0.23,0.03-0.31,0.09c-0.07,0.06-0.11,0.13-0.11,0.22c0,0.09,0.03,0.15,0.1,0.2s0.19,0.09,0.37,0.13
		c0.18,0.04,0.32,0.09,0.44,0.14s0.19,0.12,0.25,0.2c0.05,0.08,0.08,0.17,0.08,0.29c0,0.19-0.08,0.34-0.22,0.45
		c-0.15,0.11-0.35,0.17-0.58,0.17c-0.17,0-0.32-0.03-0.45-0.09c-0.13-0.06-0.23-0.14-0.3-0.25c-0.07-0.11-0.11-0.22-0.11-0.35h0.36
		c0.01,0.12,0.05,0.22,0.14,0.29c0.09,0.07,0.21,0.11,0.36,0.11c0.14,0,0.25-0.03,0.33-0.08C270.14,36.23,270.19,36.16,270.19,36.07
		z"/>
	<path class="st1" d="M271.5,34.01v0.51h0.39v0.28h-0.39v1.3c0,0.08,0.02,0.15,0.05,0.19c0.04,0.04,0.09,0.06,0.18,0.06
		c0.04,0,0.1-0.01,0.17-0.02v0.29c-0.09,0.03-0.19,0.04-0.28,0.04c-0.16,0-0.28-0.05-0.36-0.15c-0.08-0.1-0.12-0.24-0.12-0.41v-1.3
		h-0.38v-0.28h0.38v-0.51H271.5z"/>
	<path class="st1" d="M273.61,36.62c-0.02-0.04-0.04-0.12-0.05-0.22c-0.17,0.17-0.37,0.26-0.6,0.26c-0.21,0-0.38-0.06-0.51-0.18
		s-0.2-0.27-0.2-0.45c0-0.22,0.08-0.39,0.25-0.51c0.17-0.12,0.4-0.18,0.7-0.18h0.35v-0.17c0-0.13-0.04-0.23-0.11-0.3
		c-0.08-0.08-0.19-0.11-0.33-0.11c-0.13,0-0.24,0.03-0.32,0.1c-0.09,0.06-0.13,0.14-0.13,0.23h-0.36c0-0.1,0.04-0.21,0.11-0.3
		s0.18-0.17,0.3-0.23c0.13-0.06,0.27-0.08,0.42-0.08c0.24,0,0.43,0.06,0.57,0.18c0.14,0.12,0.21,0.29,0.21,0.5v0.97
		c0,0.19,0.02,0.35,0.07,0.46v0.03H273.61z M273.01,36.35c0.11,0,0.22-0.03,0.32-0.09c0.1-0.06,0.17-0.13,0.22-0.23V35.6h-0.28
		c-0.44,0-0.66,0.13-0.66,0.39c0,0.11,0.04,0.2,0.11,0.26S272.9,36.35,273.01,36.35z"/>
	<path class="st1" d="M275.49,34.84c-0.05-0.01-0.11-0.01-0.18-0.01c-0.24,0-0.4,0.1-0.48,0.3v1.49h-0.36v-2.1h0.35l0.01,0.24
		c0.12-0.19,0.29-0.28,0.5-0.28c0.07,0,0.12,0.01,0.16,0.03V34.84z"/>
	<path class="st1" d="M276.41,34.01v0.51h0.39v0.28h-0.39v1.3c0,0.08,0.02,0.15,0.05,0.19c0.04,0.04,0.09,0.06,0.18,0.06
		c0.04,0,0.1-0.01,0.17-0.02v0.29c-0.09,0.03-0.19,0.04-0.28,0.04c-0.16,0-0.28-0.05-0.36-0.15c-0.08-0.1-0.12-0.24-0.12-0.41v-1.3
		h-0.38v-0.28h0.38v-0.51H276.41z"/>
	<path class="st1" d="M277.22,33.96c0-0.06,0.02-0.11,0.05-0.15c0.04-0.04,0.09-0.06,0.16-0.06c0.07,0,0.12,0.02,0.16,0.06
		s0.05,0.09,0.05,0.15s-0.02,0.11-0.05,0.15s-0.09,0.06-0.16,0.06c-0.07,0-0.12-0.02-0.16-0.06
		C277.24,34.07,277.22,34.02,277.22,33.96z M277.61,36.62h-0.36v-2.1h0.36V36.62z"/>
	<path class="st1" d="M278.52,34.52l0.01,0.26c0.16-0.2,0.37-0.3,0.63-0.3c0.44,0,0.67,0.25,0.67,0.75v1.39h-0.36v-1.39
		c0-0.15-0.04-0.26-0.1-0.34c-0.07-0.07-0.17-0.11-0.32-0.11c-0.12,0-0.22,0.03-0.31,0.09c-0.09,0.06-0.16,0.14-0.21,0.24v1.5h-0.36
		v-2.1H278.52z"/>
	<path class="st1" d="M280.29,35.56c0-0.33,0.08-0.59,0.23-0.78s0.35-0.29,0.6-0.29c0.26,0,0.46,0.09,0.6,0.27l0.02-0.23h0.33v2.05
		c0,0.27-0.08,0.49-0.24,0.64c-0.16,0.16-0.38,0.23-0.65,0.23c-0.15,0-0.3-0.03-0.44-0.1c-0.14-0.06-0.26-0.15-0.33-0.27l0.19-0.22
		c0.15,0.19,0.34,0.29,0.57,0.29c0.17,0,0.31-0.05,0.41-0.15s0.15-0.24,0.15-0.42v-0.18c-0.14,0.17-0.34,0.25-0.59,0.25
		c-0.25,0-0.45-0.1-0.6-0.3C280.37,36.17,280.29,35.9,280.29,35.56z M280.65,35.6c0,0.24,0.05,0.42,0.15,0.56
		c0.1,0.14,0.23,0.2,0.41,0.2c0.23,0,0.39-0.1,0.5-0.31v-0.96c-0.11-0.2-0.27-0.3-0.5-0.3c-0.17,0-0.31,0.07-0.41,0.2
		C280.7,35.13,280.65,35.33,280.65,35.6z"/>
	<path class="st1" d="M284.89,36.62c-0.02-0.04-0.04-0.12-0.05-0.22c-0.17,0.17-0.37,0.26-0.6,0.26c-0.21,0-0.38-0.06-0.51-0.18
		s-0.2-0.27-0.2-0.45c0-0.22,0.08-0.39,0.25-0.51s0.4-0.18,0.7-0.18h0.35v-0.17c0-0.13-0.04-0.23-0.11-0.3
		c-0.07-0.08-0.19-0.11-0.33-0.11c-0.13,0-0.24,0.03-0.32,0.1c-0.09,0.06-0.13,0.14-0.13,0.23h-0.36c0-0.1,0.04-0.21,0.11-0.3
		c0.07-0.1,0.17-0.17,0.3-0.23c0.13-0.06,0.27-0.08,0.42-0.08c0.24,0,0.43,0.06,0.57,0.18c0.14,0.12,0.21,0.29,0.21,0.5v0.97
		c0,0.19,0.02,0.35,0.07,0.46v0.03H284.89z M284.29,36.35c0.11,0,0.22-0.03,0.32-0.09c0.1-0.06,0.17-0.13,0.22-0.23V35.6h-0.28
		c-0.44,0-0.66,0.13-0.66,0.39c0,0.11,0.04,0.2,0.11,0.26S284.18,36.35,284.29,36.35z"/>
	<path class="st1" d="M286.24,34.01v0.51h0.39v0.28h-0.39v1.3c0,0.08,0.02,0.15,0.05,0.19c0.04,0.04,0.09,0.06,0.18,0.06
		c0.04,0,0.1-0.01,0.17-0.02v0.29c-0.09,0.03-0.19,0.04-0.28,0.04c-0.16,0-0.28-0.05-0.36-0.15c-0.08-0.1-0.12-0.24-0.12-0.41v-1.3
		h-0.38v-0.28h0.38v-0.51H286.24z"/>
	<path class="st1" d="M289.3,35.88c0-0.11-0.03-0.19-0.09-0.25c-0.06-0.06-0.16-0.12-0.3-0.17c-0.14-0.05-0.26-0.11-0.37-0.16
		s-0.19-0.11-0.26-0.18c-0.07-0.07-0.13-0.15-0.17-0.24c-0.04-0.09-0.06-0.2-0.06-0.33c0-0.22,0.07-0.4,0.21-0.54
		c0.14-0.14,0.33-0.22,0.56-0.25v-0.42h0.31v0.42c0.23,0.03,0.41,0.13,0.54,0.29c0.13,0.16,0.19,0.36,0.19,0.62h-0.56
		c0-0.16-0.03-0.27-0.1-0.35c-0.06-0.08-0.15-0.12-0.26-0.12c-0.11,0-0.19,0.03-0.25,0.09c-0.06,0.06-0.09,0.14-0.09,0.25
		c0,0.1,0.03,0.18,0.08,0.24c0.06,0.06,0.16,0.12,0.32,0.18c0.16,0.06,0.28,0.12,0.38,0.18s0.18,0.12,0.25,0.19
		c0.07,0.07,0.12,0.15,0.16,0.24c0.04,0.09,0.05,0.19,0.05,0.31c0,0.22-0.07,0.4-0.21,0.54c-0.14,0.14-0.33,0.22-0.57,0.24v0.39
		h-0.31v-0.38c-0.27-0.03-0.47-0.12-0.62-0.28c-0.15-0.16-0.22-0.37-0.22-0.64h0.56c0,0.15,0.04,0.27,0.11,0.35
		c0.07,0.08,0.18,0.12,0.32,0.12c0.11,0,0.2-0.03,0.27-0.09C289.27,36.06,289.3,35.98,289.3,35.88z"/>
	<path class="st1" d="M291.55,35.49c-0.15,0.14-0.32,0.22-0.51,0.22c-0.25,0-0.45-0.09-0.6-0.26c-0.15-0.17-0.23-0.4-0.23-0.69
		c0-0.18,0.04-0.35,0.12-0.51c0.08-0.15,0.19-0.27,0.34-0.36c0.14-0.09,0.31-0.13,0.49-0.13c0.19,0,0.35,0.05,0.5,0.14
		c0.14,0.09,0.26,0.23,0.34,0.4s0.12,0.38,0.12,0.6v0.21c0,0.47-0.12,0.84-0.35,1.11c-0.23,0.27-0.57,0.41-1,0.43l-0.14,0v-0.47
		l0.12,0C291.25,36.16,291.51,35.93,291.55,35.49z M291.18,35.28c0.09,0,0.17-0.02,0.23-0.07c0.07-0.05,0.12-0.1,0.15-0.17v-0.23
		c0-0.19-0.04-0.34-0.11-0.44c-0.07-0.11-0.17-0.16-0.29-0.16c-0.11,0-0.21,0.05-0.28,0.16c-0.07,0.1-0.11,0.23-0.11,0.39
		c0,0.15,0.04,0.28,0.11,0.38C290.95,35.23,291.05,35.28,291.18,35.28z"/>
	<path class="st1" d="M292.58,36.35c0-0.09,0.03-0.16,0.09-0.22c0.06-0.06,0.14-0.08,0.23-0.08c0.09,0,0.17,0.03,0.23,0.08
		s0.09,0.13,0.09,0.22c0,0.09-0.03,0.16-0.09,0.21c-0.06,0.05-0.14,0.08-0.23,0.08c-0.09,0-0.17-0.03-0.23-0.08
		C292.61,36.51,292.58,36.44,292.58,36.35z"/>
	<path class="st1" d="M294.99,35.49c-0.15,0.14-0.32,0.22-0.51,0.22c-0.25,0-0.45-0.09-0.6-0.26c-0.15-0.17-0.22-0.4-0.22-0.69
		c0-0.18,0.04-0.35,0.12-0.51c0.08-0.15,0.19-0.27,0.34-0.36c0.15-0.09,0.31-0.13,0.49-0.13c0.19,0,0.35,0.05,0.5,0.14
		c0.15,0.09,0.26,0.23,0.34,0.4s0.12,0.38,0.12,0.6v0.21c0,0.47-0.12,0.84-0.35,1.11c-0.23,0.27-0.57,0.41-1,0.43l-0.14,0v-0.47
		l0.12,0C294.69,36.16,294.95,35.93,294.99,35.49z M294.62,35.28c0.09,0,0.17-0.02,0.23-0.07c0.07-0.05,0.11-0.1,0.15-0.17v-0.23
		c0-0.19-0.04-0.34-0.11-0.44c-0.07-0.11-0.17-0.16-0.29-0.16c-0.11,0-0.21,0.05-0.28,0.16c-0.07,0.1-0.11,0.23-0.11,0.39
		c0,0.15,0.04,0.28,0.11,0.38S294.49,35.28,294.62,35.28z"/>
	<path class="st1" d="M297.27,35.49c-0.15,0.14-0.32,0.22-0.51,0.22c-0.25,0-0.45-0.09-0.6-0.26c-0.15-0.17-0.23-0.4-0.23-0.69
		c0-0.18,0.04-0.35,0.12-0.51c0.08-0.15,0.19-0.27,0.34-0.36c0.14-0.09,0.31-0.13,0.49-0.13c0.19,0,0.35,0.05,0.5,0.14
		c0.14,0.09,0.26,0.23,0.34,0.4s0.12,0.38,0.12,0.6v0.21c0,0.47-0.12,0.84-0.35,1.11c-0.23,0.27-0.57,0.41-1,0.43l-0.14,0v-0.47
		l0.12,0C296.97,36.16,297.23,35.93,297.27,35.49z M296.9,35.28c0.09,0,0.17-0.02,0.23-0.07c0.07-0.05,0.12-0.1,0.15-0.17v-0.23
		c0-0.19-0.04-0.34-0.11-0.44c-0.07-0.11-0.17-0.16-0.29-0.16c-0.11,0-0.21,0.05-0.28,0.16c-0.07,0.1-0.11,0.23-0.11,0.39
		c0,0.15,0.04,0.28,0.11,0.38C296.67,35.23,296.77,35.28,296.9,35.28z"/>
	<path class="st1" d="M298.44,36.87h-0.42l1.04-3.07h0.42L298.44,36.87z"/>
	<path class="st1" d="M300.28,34.52l0.02,0.23c0.15-0.18,0.35-0.27,0.6-0.27c0.27,0,0.46,0.11,0.56,0.32
		c0.15-0.21,0.36-0.32,0.63-0.32c0.23,0,0.4,0.07,0.51,0.2s0.17,0.33,0.17,0.6v1.34h-0.56v-1.34c0-0.12-0.02-0.21-0.07-0.26
		c-0.05-0.06-0.13-0.08-0.25-0.08c-0.17,0-0.28,0.08-0.35,0.24l0,1.44h-0.56v-1.34c0-0.12-0.02-0.21-0.07-0.26
		c-0.05-0.05-0.13-0.08-0.24-0.08c-0.16,0-0.27,0.07-0.35,0.2v1.49h-0.56v-2.1H300.28z"/>
	<path class="st1" d="M303.11,35.55c0-0.21,0.04-0.39,0.12-0.56s0.2-0.29,0.35-0.38c0.15-0.09,0.33-0.13,0.53-0.13
		c0.28,0,0.51,0.09,0.69,0.26c0.18,0.17,0.28,0.41,0.3,0.71l0,0.14c0,0.32-0.09,0.58-0.27,0.78c-0.18,0.19-0.42,0.29-0.72,0.29
		s-0.54-0.1-0.73-0.29s-0.27-0.46-0.27-0.79V35.55z M303.67,35.59c0,0.2,0.04,0.35,0.11,0.46c0.08,0.11,0.18,0.16,0.32,0.16
		c0.14,0,0.24-0.05,0.32-0.16s0.12-0.27,0.12-0.5c0-0.2-0.04-0.35-0.12-0.46c-0.08-0.11-0.18-0.16-0.32-0.16
		c-0.14,0-0.24,0.05-0.32,0.16C303.71,35.2,303.67,35.37,303.67,35.59z"/>
	<path class="st1" d="M305.96,34.52l0.02,0.24c0.15-0.19,0.35-0.28,0.6-0.28c0.22,0,0.39,0.07,0.5,0.2
		c0.11,0.13,0.16,0.33,0.17,0.59v1.36h-0.56v-1.34c0-0.12-0.03-0.21-0.08-0.26s-0.14-0.08-0.26-0.08c-0.16,0-0.28,0.07-0.36,0.2
		v1.48h-0.56v-2.1H305.96z"/>
	<path class="st1" d="M308.34,34.01v0.52h0.36v0.41h-0.36v1.05c0,0.08,0.01,0.13,0.04,0.17c0.03,0.03,0.09,0.05,0.17,0.05
		c0.06,0,0.12,0,0.17-0.01v0.42c-0.11,0.03-0.22,0.05-0.34,0.05c-0.39,0-0.59-0.2-0.6-0.6v-1.13h-0.31v-0.41h0.31v-0.52H308.34z"/>
	<path class="st1" d="M309.56,34.75c0.15-0.18,0.34-0.27,0.56-0.27c0.46,0,0.69,0.26,0.69,0.79v1.35h-0.56v-1.33
		c0-0.12-0.03-0.21-0.08-0.27s-0.14-0.09-0.26-0.09c-0.16,0-0.28,0.06-0.36,0.19v1.49H309v-2.98h0.56V34.75z"/>
</g>
</svg>
