<?xml version="1.0" encoding="utf-8"?>
<!-- Generator: Adobe Illustrator 24.2.3, SVG Export Plug-In . SVG Version: 6.00 Build 0)  -->
<svg version="1.1" id="Layer_1" xmlns="http://www.w3.org/2000/svg" xmlns:xlink="http://www.w3.org/1999/xlink" x="0px" y="0px"
	 viewBox="0 0 320 50" style="enable-background:new 0 0 320 50;" xml:space="preserve">
<style type="text/css">
	.st0{fill:#E82D8A;}
</style>
<g>
	<path class="st0" d="M12.32,39.01h-1.58v1.63H9.92v-3.99h2.6v0.67h-1.78v1.03h1.58V39.01z"/>
	<path class="st0" d="M14.54,38.42c-0.11-0.01-0.2-0.02-0.29-0.02c-0.3,0-0.5,0.1-0.59,0.3v1.94h-0.79v-2.97h0.75l0.02,0.35
		c0.16-0.27,0.38-0.41,0.66-0.41c0.09,0,0.17,0.01,0.25,0.04L14.54,38.42z"/>
	<path class="st0" d="M16.29,40.7c-0.44,0-0.79-0.13-1.06-0.4c-0.27-0.27-0.41-0.62-0.41-1.07v-0.08c0-0.3,0.06-0.56,0.17-0.8
		c0.12-0.24,0.28-0.42,0.49-0.54c0.21-0.13,0.45-0.19,0.72-0.19c0.41,0,0.73,0.13,0.96,0.38s0.35,0.62,0.35,1.09v0.32h-1.89
		c0.03,0.19,0.1,0.35,0.23,0.47c0.13,0.12,0.29,0.17,0.49,0.17c0.31,0,0.54-0.11,0.72-0.33l0.39,0.44c-0.12,0.17-0.28,0.3-0.48,0.39
		C16.76,40.65,16.53,40.7,16.29,40.7z M16.2,38.26c-0.16,0-0.28,0.05-0.38,0.16s-0.16,0.26-0.19,0.46h1.1v-0.06
		c0-0.18-0.05-0.31-0.14-0.41C16.49,38.31,16.36,38.26,16.2,38.26z"/>
	<path class="st0" d="M19.32,40.7c-0.44,0-0.79-0.13-1.06-0.4c-0.27-0.27-0.41-0.62-0.41-1.07v-0.08c0-0.3,0.06-0.56,0.17-0.8
		c0.12-0.24,0.28-0.42,0.49-0.54c0.21-0.13,0.45-0.19,0.72-0.19c0.41,0,0.73,0.13,0.96,0.38s0.35,0.62,0.35,1.09v0.32h-1.89
		c0.03,0.19,0.1,0.35,0.23,0.47c0.13,0.12,0.29,0.17,0.49,0.17c0.31,0,0.54-0.11,0.72-0.33l0.39,0.44c-0.12,0.17-0.28,0.3-0.48,0.39
		C19.79,40.65,19.57,40.7,19.32,40.7z M19.23,38.26c-0.16,0-0.28,0.05-0.38,0.16s-0.16,0.26-0.19,0.46h1.1v-0.06
		c0-0.18-0.05-0.31-0.14-0.41C19.53,38.31,19.4,38.26,19.23,38.26z"/>
	<path class="st0" d="M22.72,40.64v-2.57h-0.47v-0.39h0.47v-0.3c0-0.32,0.08-0.56,0.25-0.74s0.41-0.26,0.72-0.26
		c0.12,0,0.23,0.02,0.35,0.05l-0.03,0.41c-0.09-0.02-0.18-0.02-0.27-0.02c-0.16,0-0.29,0.05-0.38,0.14
		c-0.09,0.1-0.13,0.23-0.13,0.41v0.31h0.63v0.39h-0.63v2.57H22.72z"/>
	<path class="st0" d="M24.28,39.13c0-0.29,0.06-0.55,0.17-0.78c0.11-0.23,0.27-0.41,0.48-0.54c0.2-0.13,0.44-0.19,0.7-0.19
		c0.4,0,0.73,0.14,0.98,0.42s0.37,0.65,0.37,1.12v0.04c0,0.29-0.06,0.55-0.17,0.78c-0.11,0.23-0.27,0.41-0.47,0.54
		c-0.21,0.13-0.44,0.19-0.71,0.19c-0.4,0-0.73-0.14-0.98-0.42s-0.37-0.65-0.37-1.11V39.13z M24.79,39.19c0,0.33,0.08,0.59,0.23,0.79
		c0.15,0.2,0.36,0.3,0.61,0.3c0.26,0,0.46-0.1,0.61-0.3c0.15-0.2,0.23-0.48,0.23-0.85c0-0.33-0.08-0.59-0.23-0.79
		c-0.15-0.2-0.36-0.3-0.62-0.3c-0.25,0-0.45,0.1-0.61,0.3C24.87,38.54,24.79,38.82,24.79,39.19z"/>
	<path class="st0" d="M29.06,38.13c-0.08-0.01-0.16-0.02-0.25-0.02c-0.33,0-0.56,0.14-0.68,0.42v2.11h-0.51v-2.97h0.49l0.01,0.34
		c0.17-0.27,0.4-0.4,0.71-0.4c0.1,0,0.17,0.01,0.23,0.04V38.13z"/>
	<path class="st0" d="M31.52,39.08v1.56h-0.53v-3.99h1.47c0.44,0,0.78,0.11,1.03,0.33c0.25,0.22,0.37,0.52,0.37,0.89
		c0,0.39-0.12,0.69-0.36,0.9c-0.24,0.21-0.59,0.31-1.04,0.31H31.52z M31.52,38.65h0.95c0.28,0,0.5-0.07,0.65-0.2
		c0.15-0.13,0.22-0.32,0.22-0.58c0-0.24-0.07-0.43-0.22-0.57c-0.15-0.14-0.36-0.22-0.62-0.22h-0.98V38.65z"/>
	<path class="st0" d="M35.89,38.13c-0.08-0.01-0.16-0.02-0.25-0.02c-0.33,0-0.56,0.14-0.68,0.42v2.11h-0.51v-2.97h0.49l0.01,0.34
		c0.17-0.27,0.4-0.4,0.71-0.4c0.1,0,0.17,0.01,0.23,0.04V38.13z"/>
	<path class="st0" d="M36.36,36.89c0-0.08,0.02-0.15,0.08-0.21s0.12-0.08,0.22-0.08s0.17,0.03,0.22,0.08s0.08,0.13,0.08,0.21
		s-0.03,0.15-0.08,0.21c-0.05,0.05-0.13,0.08-0.22,0.08s-0.17-0.03-0.22-0.08C36.38,37.04,36.36,36.97,36.36,36.89z M36.9,40.64
		H36.4v-2.97h0.51V40.64z"/>
	<path class="st0" d="M38.69,39.96l0.73-2.28h0.52l-1.06,2.97H38.5l-1.07-2.97h0.52L38.69,39.96z"/>
	<path class="st0" d="M42.23,40.64c-0.03-0.06-0.05-0.16-0.07-0.31c-0.24,0.25-0.52,0.37-0.84,0.37c-0.29,0-0.53-0.08-0.72-0.25
		c-0.19-0.17-0.28-0.38-0.28-0.63c0-0.31,0.12-0.55,0.35-0.72s0.57-0.26,0.99-0.26h0.49v-0.23c0-0.18-0.05-0.32-0.16-0.42
		c-0.11-0.1-0.26-0.16-0.47-0.16c-0.18,0-0.33,0.05-0.46,0.14c-0.12,0.09-0.18,0.2-0.18,0.33h-0.51c0-0.15,0.05-0.29,0.16-0.43
		c0.11-0.14,0.25-0.25,0.43-0.33c0.18-0.08,0.38-0.12,0.59-0.12c0.34,0,0.61,0.08,0.8,0.26s0.29,0.41,0.3,0.71v1.37
		c0,0.27,0.03,0.49,0.1,0.65v0.04H42.23z M41.38,40.26c0.16,0,0.31-0.04,0.45-0.12s0.25-0.19,0.31-0.32V39.2h-0.4
		c-0.62,0-0.93,0.18-0.93,0.55c0,0.16,0.05,0.28,0.16,0.37S41.22,40.26,41.38,40.26z"/>
	<path class="st0" d="M44.64,40.28c0.18,0,0.34-0.05,0.47-0.16s0.21-0.25,0.23-0.41h0.48c-0.01,0.17-0.07,0.33-0.18,0.49
		s-0.25,0.28-0.43,0.37c-0.18,0.09-0.37,0.14-0.57,0.14c-0.4,0-0.73-0.13-0.96-0.4c-0.24-0.27-0.36-0.64-0.36-1.11V39.1
		c0-0.29,0.05-0.55,0.16-0.77c0.11-0.23,0.26-0.4,0.46-0.52c0.2-0.12,0.43-0.19,0.7-0.19c0.33,0,0.61,0.1,0.83,0.3
		s0.34,0.46,0.35,0.78h-0.48c-0.01-0.19-0.09-0.35-0.22-0.47c-0.13-0.12-0.29-0.19-0.48-0.19c-0.26,0-0.46,0.09-0.6,0.28
		s-0.21,0.45-0.21,0.8v0.1c0,0.34,0.07,0.61,0.21,0.79C44.18,40.19,44.38,40.28,44.64,40.28z"/>
	<path class="st0" d="M47.36,39.9l0.69-2.22h0.54L47.4,41.1c-0.18,0.49-0.48,0.74-0.88,0.74l-0.1-0.01l-0.19-0.04v-0.41l0.14,0.01
		c0.17,0,0.31-0.03,0.4-0.1c0.1-0.07,0.17-0.2,0.24-0.38l0.11-0.3l-1.06-2.93h0.55L47.36,39.9z"/>
	<path class="st0" d="M52.07,40.12c-0.14,0.19-0.32,0.34-0.57,0.43s-0.52,0.14-0.85,0.14c-0.33,0-0.61-0.08-0.87-0.23
		c-0.25-0.15-0.45-0.37-0.59-0.65s-0.21-0.61-0.21-0.98v-0.35c0-0.6,0.14-1.07,0.42-1.4c0.28-0.33,0.67-0.5,1.18-0.5
		c0.42,0,0.75,0.11,1.01,0.32s0.41,0.51,0.47,0.91h-0.53c-0.1-0.53-0.41-0.79-0.94-0.79c-0.35,0-0.62,0.12-0.8,0.37
		c-0.18,0.25-0.27,0.61-0.28,1.08v0.33c0,0.45,0.1,0.8,0.31,1.07c0.21,0.26,0.48,0.4,0.83,0.4c0.2,0,0.37-0.02,0.52-0.07
		c0.15-0.04,0.27-0.12,0.37-0.22v-0.89h-0.92v-0.43h1.45V40.12z"/>
	<path class="st0" d="M54.7,40.35c-0.2,0.23-0.49,0.35-0.87,0.35c-0.32,0-0.56-0.09-0.72-0.28c-0.17-0.18-0.25-0.46-0.25-0.82v-1.93
		h0.51v1.92c0,0.45,0.18,0.67,0.55,0.67c0.39,0,0.65-0.14,0.77-0.43v-2.16h0.51v2.97h-0.48L54.7,40.35z"/>
	<path class="st0" d="M57.79,40.64c-0.03-0.06-0.05-0.16-0.07-0.31c-0.24,0.25-0.52,0.37-0.84,0.37c-0.29,0-0.53-0.08-0.72-0.25
		c-0.19-0.17-0.28-0.38-0.28-0.63c0-0.31,0.12-0.55,0.35-0.72s0.57-0.26,0.99-0.26h0.49v-0.23c0-0.18-0.05-0.32-0.16-0.42
		c-0.11-0.1-0.26-0.16-0.47-0.16c-0.18,0-0.33,0.05-0.46,0.14c-0.12,0.09-0.18,0.2-0.18,0.33h-0.51c0-0.15,0.05-0.29,0.16-0.43
		c0.11-0.14,0.25-0.25,0.43-0.33c0.18-0.08,0.38-0.12,0.59-0.12c0.34,0,0.61,0.08,0.8,0.26s0.29,0.41,0.3,0.71v1.37
		c0,0.27,0.03,0.49,0.1,0.65v0.04H57.79z M56.95,40.26c0.16,0,0.31-0.04,0.45-0.12s0.25-0.19,0.31-0.32V39.2h-0.4
		c-0.62,0-0.93,0.18-0.93,0.55c0,0.16,0.05,0.28,0.16,0.37S56.79,40.26,56.95,40.26z"/>
	<path class="st0" d="M60.45,38.13c-0.08-0.01-0.16-0.02-0.25-0.02c-0.33,0-0.56,0.14-0.68,0.42v2.11h-0.51v-2.97h0.49l0.01,0.34
		c0.17-0.27,0.4-0.4,0.71-0.4c0.1,0,0.17,0.01,0.23,0.04V38.13z"/>
	<path class="st0" d="M60.79,39.14c0-0.46,0.11-0.82,0.32-1.1c0.22-0.28,0.5-0.42,0.85-0.42c0.35,0,0.62,0.12,0.83,0.36v-1.55h0.51
		v4.21h-0.47l-0.02-0.32c-0.2,0.25-0.49,0.37-0.85,0.37c-0.34,0-0.62-0.14-0.84-0.42c-0.22-0.28-0.33-0.65-0.33-1.1V39.14z
		 M61.3,39.19c0,0.34,0.07,0.6,0.21,0.79c0.14,0.19,0.33,0.29,0.58,0.29c0.32,0,0.56-0.14,0.7-0.43v-1.36
		c-0.15-0.28-0.38-0.42-0.7-0.42c-0.25,0-0.44,0.1-0.58,0.29C61.37,38.53,61.3,38.82,61.3,39.19z"/>
	<path class="st0" d="M65.95,37.68l0.01,0.33c0.22-0.26,0.51-0.38,0.88-0.38c0.42,0,0.7,0.16,0.85,0.48
		c0.1-0.14,0.23-0.26,0.39-0.35s0.35-0.13,0.56-0.13c0.65,0,0.98,0.34,0.99,1.03v1.99h-0.51v-1.96c0-0.21-0.05-0.37-0.15-0.48
		c-0.1-0.11-0.26-0.16-0.49-0.16c-0.19,0-0.34,0.06-0.47,0.17c-0.12,0.11-0.2,0.26-0.22,0.45v1.97h-0.51V38.7
		c0-0.43-0.21-0.65-0.63-0.65c-0.33,0-0.56,0.14-0.68,0.42v2.17h-0.51v-2.97H65.95z"/>
	<path class="st0" d="M71.63,40.7c-0.4,0-0.73-0.13-0.98-0.4c-0.25-0.26-0.38-0.62-0.38-1.06v-0.09c0-0.29,0.06-0.56,0.17-0.79
		c0.11-0.23,0.27-0.41,0.47-0.54c0.2-0.13,0.42-0.2,0.66-0.2c0.39,0,0.69,0.13,0.9,0.38s0.32,0.62,0.32,1.09v0.21h-2.01
		c0.01,0.29,0.09,0.53,0.26,0.71s0.37,0.27,0.62,0.27c0.18,0,0.33-0.04,0.46-0.11c0.12-0.07,0.23-0.17,0.33-0.29l0.31,0.24
		C72.5,40.51,72.12,40.7,71.63,40.7z M71.56,38.04c-0.2,0-0.38,0.08-0.52,0.22c-0.14,0.15-0.22,0.36-0.26,0.63h1.49v-0.04
		c-0.01-0.26-0.08-0.46-0.21-0.6S71.77,38.04,71.56,38.04z"/>
	<path class="st0" d="M73.85,37.68l0.01,0.33c0.22-0.26,0.51-0.38,0.88-0.38c0.42,0,0.7,0.16,0.85,0.48
		c0.1-0.14,0.23-0.26,0.39-0.35s0.35-0.13,0.56-0.13c0.65,0,0.98,0.34,0.99,1.03v1.99h-0.51v-1.96c0-0.21-0.05-0.37-0.15-0.48
		c-0.1-0.11-0.26-0.16-0.49-0.16c-0.19,0-0.34,0.06-0.47,0.17c-0.12,0.11-0.2,0.26-0.22,0.45v1.97h-0.51V38.7
		c0-0.43-0.21-0.65-0.63-0.65c-0.33,0-0.56,0.14-0.68,0.42v2.17h-0.51v-2.97H73.85z"/>
	<path class="st0" d="M80.8,39.19c0,0.45-0.1,0.82-0.31,1.09S80,40.7,79.65,40.7c-0.37,0-0.66-0.13-0.87-0.4l-0.02,0.34h-0.47v-4.21
		h0.51V38c0.2-0.25,0.49-0.38,0.85-0.38c0.36,0,0.64,0.14,0.85,0.41c0.21,0.27,0.31,0.65,0.31,1.12V39.19z M80.29,39.14
		c0-0.35-0.07-0.61-0.2-0.8c-0.13-0.19-0.33-0.28-0.58-0.28c-0.33,0-0.57,0.16-0.72,0.47v1.28c0.16,0.31,0.4,0.47,0.73,0.47
		c0.24,0,0.43-0.09,0.57-0.28C80.23,39.8,80.29,39.51,80.29,39.14z"/>
	<path class="st0" d="M82.67,40.7c-0.4,0-0.73-0.13-0.98-0.4c-0.25-0.26-0.38-0.62-0.38-1.06v-0.09c0-0.29,0.06-0.56,0.17-0.79
		c0.11-0.23,0.27-0.41,0.47-0.54c0.2-0.13,0.42-0.2,0.66-0.2c0.39,0,0.69,0.13,0.9,0.38s0.32,0.62,0.32,1.09v0.21h-2.01
		c0.01,0.29,0.09,0.53,0.26,0.71s0.37,0.27,0.62,0.27c0.18,0,0.33-0.04,0.46-0.11c0.12-0.07,0.23-0.17,0.33-0.29l0.31,0.24
		C83.54,40.51,83.17,40.7,82.67,40.7z M82.61,38.04c-0.2,0-0.38,0.08-0.52,0.22c-0.14,0.15-0.22,0.36-0.26,0.63h1.49v-0.04
		c-0.01-0.26-0.08-0.46-0.21-0.6S82.82,38.04,82.61,38.04z"/>
	<path class="st0" d="M85.85,38.13c-0.08-0.01-0.16-0.02-0.25-0.02c-0.33,0-0.56,0.14-0.68,0.42v2.11h-0.51v-2.97h0.49l0.01,0.34
		c0.17-0.27,0.4-0.4,0.71-0.4c0.1,0,0.17,0.01,0.23,0.04V38.13z"/>
	<path class="st0" d="M88.04,39.86c0-0.14-0.05-0.24-0.15-0.32c-0.1-0.08-0.28-0.14-0.54-0.2s-0.46-0.12-0.61-0.2
		c-0.15-0.08-0.26-0.17-0.33-0.27c-0.07-0.11-0.11-0.23-0.11-0.38c0-0.24,0.1-0.45,0.31-0.62s0.47-0.25,0.79-0.25
		c0.34,0,0.61,0.09,0.82,0.26s0.31,0.4,0.31,0.67h-0.51c0-0.14-0.06-0.26-0.18-0.36c-0.12-0.1-0.27-0.15-0.45-0.15
		c-0.18,0-0.33,0.04-0.43,0.12c-0.1,0.08-0.16,0.19-0.16,0.32c0,0.12,0.05,0.21,0.15,0.28c0.1,0.06,0.27,0.12,0.53,0.18
		c0.25,0.06,0.46,0.12,0.62,0.2c0.16,0.08,0.27,0.17,0.35,0.28s0.11,0.25,0.11,0.4c0,0.26-0.11,0.48-0.32,0.64
		c-0.21,0.16-0.49,0.24-0.83,0.24c-0.24,0-0.45-0.04-0.63-0.13c-0.18-0.08-0.33-0.2-0.43-0.35c-0.1-0.15-0.16-0.31-0.16-0.49h0.51
		c0.01,0.17,0.08,0.3,0.2,0.4c0.13,0.1,0.29,0.15,0.5,0.15c0.19,0,0.35-0.04,0.46-0.12C87.98,40.09,88.04,39.99,88.04,39.86z"/>
	<path class="st0" d="M89.22,40.38c0-0.09,0.03-0.16,0.08-0.22c0.05-0.06,0.13-0.09,0.23-0.09c0.1,0,0.18,0.03,0.24,0.09
		c0.05,0.06,0.08,0.13,0.08,0.22c0,0.08-0.03,0.15-0.08,0.21c-0.05,0.06-0.13,0.08-0.24,0.08c-0.1,0-0.18-0.03-0.23-0.08
		C89.25,40.53,89.22,40.46,89.22,40.38z"/>
</g>
</svg>
