<?xml version="1.0" encoding="utf-8"?>
<!-- Generator: Adobe Illustrator 24.2.3, SVG Export Plug-In . SVG Version: 6.00 Build 0)  -->
<svg version="1.1" id="Layer_1" xmlns="http://www.w3.org/2000/svg" xmlns:xlink="http://www.w3.org/1999/xlink" x="0px" y="0px"
	 viewBox="0 0 320 50" style="enable-background:new 0 0 320 50;" xml:space="preserve">
<style type="text/css">
	.st0{fill:url(#SVGID_1_);}
</style>
<linearGradient id="SVGID_1_" gradientUnits="userSpaceOnUse" x1="103.9326" y1="26.4456" x2="239.1457" y2="26.4456">
	<stop  offset="0" style="stop-color:#18B9FB"/>
	<stop  offset="0.5" style="stop-color:#782EEB"/>
	<stop  offset="1" style="stop-color:#E82D8A"/>
</linearGradient>
<path class="st0" d="M106.7,22.12l1.18-4.33h1.6l-2,5.95h-1.57l-1.99-5.95h1.59L106.7,22.12z M109.85,18.18
	c0-0.2,0.07-0.36,0.21-0.48c0.14-0.13,0.33-0.19,0.55-0.19c0.23,0,0.41,0.06,0.55,0.19c0.14,0.13,0.21,0.29,0.21,0.48
	c0,0.2-0.07,0.36-0.21,0.48c-0.14,0.13-0.33,0.19-0.55,0.19c-0.23,0-0.41-0.06-0.55-0.19C109.92,18.53,109.85,18.37,109.85,18.18z
	 M111.31,23.74h-1.38v-4.42h1.38V23.74z M114.3,23.82c-0.68,0-1.23-0.2-1.65-0.61c-0.42-0.4-0.63-0.93-0.63-1.58v-0.11
	c0-0.45,0.08-0.85,0.25-1.2c0.17-0.35,0.41-0.61,0.73-0.8c0.32-0.19,0.7-0.28,1.14-0.28c0.62,0,1.11,0.19,1.47,0.58
	c0.36,0.39,0.54,0.92,0.54,1.61v0.54h-2.74c0.05,0.25,0.16,0.44,0.32,0.58c0.17,0.14,0.38,0.21,0.65,0.21
	c0.44,0,0.78-0.15,1.02-0.46l0.63,0.74c-0.17,0.24-0.41,0.43-0.73,0.57C115,23.75,114.66,23.82,114.3,23.82z M114.14,20.3
	c-0.4,0-0.64,0.27-0.72,0.8h1.39v-0.11c0.01-0.22-0.05-0.39-0.17-0.51C114.53,20.36,114.36,20.3,114.14,20.3z M120.53,21.92
	l0.45-2.61h1.32l-1.04,4.42h-1.16l-0.73-2.62l-0.74,2.62h-1.16l-1.04-4.42h1.32l0.44,2.67l0.7-2.67h0.96L120.53,21.92z
	 M128.98,21.56c0,0.69-0.15,1.23-0.46,1.64c-0.31,0.41-0.73,0.61-1.25,0.61c-0.41,0-0.74-0.15-1-0.45v2.06h-1.38v-6.12h1.29
	l0.04,0.41c0.26-0.33,0.61-0.49,1.04-0.49c0.54,0,0.97,0.2,1.27,0.6c0.3,0.4,0.45,0.95,0.45,1.66V21.56z M127.6,21.47
	c0-0.78-0.23-1.18-0.69-1.18c-0.33,0-0.54,0.12-0.65,0.35v1.74c0.12,0.25,0.34,0.37,0.66,0.37c0.44,0,0.66-0.38,0.68-1.14V21.47z
	 M131.72,23.82c-0.68,0-1.23-0.2-1.65-0.61c-0.42-0.4-0.63-0.93-0.63-1.58v-0.11c0-0.45,0.08-0.85,0.25-1.2
	c0.17-0.35,0.41-0.61,0.73-0.8c0.32-0.19,0.7-0.28,1.14-0.28c0.62,0,1.11,0.19,1.47,0.58c0.36,0.39,0.54,0.92,0.54,1.61v0.54h-2.74
	c0.05,0.25,0.16,0.44,0.32,0.58c0.17,0.14,0.38,0.21,0.65,0.21c0.44,0,0.78-0.15,1.02-0.46l0.63,0.74
	c-0.17,0.24-0.41,0.43-0.73,0.57C132.42,23.75,132.08,23.82,131.72,23.82z M131.57,20.3c-0.4,0-0.64,0.27-0.72,0.8h1.39v-0.11
	c0.01-0.22-0.05-0.39-0.17-0.51C131.95,20.36,131.78,20.3,131.57,20.3z M136.81,20.56l-0.45-0.03c-0.43,0-0.71,0.14-0.83,0.41v2.8
	h-1.38v-4.42h1.29l0.04,0.57c0.23-0.43,0.55-0.65,0.97-0.65c0.15,0,0.27,0.02,0.38,0.05L136.81,20.56z M139.62,22.49
	c0-0.12-0.06-0.21-0.18-0.28c-0.12-0.07-0.36-0.14-0.7-0.22c-0.34-0.08-0.63-0.18-0.85-0.3c-0.22-0.12-0.39-0.27-0.51-0.45
	c-0.12-0.18-0.18-0.38-0.18-0.61c0-0.41,0.17-0.74,0.5-1c0.33-0.26,0.77-0.39,1.32-0.39c0.58,0,1.05,0.13,1.41,0.4
	c0.35,0.26,0.53,0.61,0.53,1.04h-1.38c0-0.35-0.19-0.53-0.56-0.53c-0.14,0-0.27,0.04-0.36,0.12c-0.1,0.08-0.15,0.18-0.15,0.3
	c0,0.12,0.06,0.22,0.18,0.3s0.31,0.14,0.57,0.19c0.26,0.05,0.49,0.11,0.69,0.18c0.66,0.23,1,0.64,1,1.23c0,0.4-0.18,0.73-0.54,0.98
	c-0.36,0.25-0.82,0.38-1.39,0.38c-0.38,0-0.72-0.07-1.01-0.2c-0.3-0.14-0.53-0.32-0.69-0.56c-0.17-0.23-0.25-0.48-0.25-0.74h1.29
	c0.01,0.2,0.07,0.35,0.2,0.45c0.13,0.09,0.3,0.14,0.5,0.14c0.19,0,0.33-0.04,0.42-0.11C139.57,22.72,139.62,22.62,139.62,22.49z
	 M141.42,21.49c0-0.44,0.09-0.83,0.26-1.18c0.17-0.34,0.42-0.61,0.74-0.79s0.7-0.28,1.13-0.28c0.66,0,1.18,0.21,1.56,0.61
	c0.38,0.41,0.57,0.97,0.57,1.67v0.05c0,0.69-0.19,1.24-0.57,1.64c-0.38,0.4-0.9,0.61-1.55,0.61c-0.63,0-1.13-0.19-1.52-0.57
	c-0.38-0.38-0.59-0.89-0.62-1.53L141.42,21.49z M142.8,21.57c0,0.41,0.06,0.71,0.19,0.9c0.13,0.19,0.32,0.29,0.57,0.29
	c0.49,0,0.74-0.38,0.75-1.13v-0.14c0-0.79-0.25-1.19-0.76-1.19c-0.46,0-0.71,0.34-0.75,1.03L142.8,21.57z M147.56,19.32l0.04,0.52
	c0.31-0.4,0.73-0.6,1.26-0.6c0.46,0,0.8,0.14,1.03,0.41c0.23,0.28,0.35,0.69,0.35,1.24v2.85h-1.38v-2.79c0-0.22-0.05-0.39-0.13-0.49
	c-0.09-0.1-0.25-0.16-0.49-0.16c-0.27,0-0.47,0.11-0.6,0.32v3.12h-1.38v-4.42H147.56z M153.5,23.74c-0.05-0.09-0.09-0.22-0.13-0.4
	c-0.25,0.32-0.61,0.48-1.06,0.48c-0.42,0-0.77-0.13-1.06-0.38c-0.29-0.25-0.44-0.57-0.44-0.95c0-0.48,0.18-0.84,0.53-1.09
	c0.35-0.25,0.87-0.37,1.54-0.37h0.42V20.8c0-0.41-0.18-0.61-0.53-0.61c-0.33,0-0.49,0.16-0.49,0.48h-1.38
	c0-0.43,0.18-0.77,0.55-1.04c0.36-0.27,0.83-0.4,1.39-0.4c0.56,0,1.01,0.14,1.34,0.41c0.33,0.28,0.49,0.65,0.5,1.13v1.96
	c0.01,0.41,0.07,0.72,0.19,0.93v0.07H153.5z M152.64,22.84c0.17,0,0.31-0.04,0.43-0.11c0.11-0.07,0.19-0.16,0.24-0.25v-0.71h-0.4
	c-0.48,0-0.72,0.22-0.72,0.65c0,0.13,0.04,0.23,0.13,0.3C152.4,22.8,152.51,22.84,152.64,22.84z M156.9,23.74h-1.38v-6.27h1.38
	V23.74z M159.82,18.18c0-0.2,0.07-0.36,0.21-0.48c0.14-0.13,0.33-0.19,0.55-0.19c0.23,0,0.41,0.06,0.55,0.19
	c0.14,0.13,0.21,0.29,0.21,0.48c0,0.2-0.07,0.36-0.21,0.48c-0.14,0.13-0.33,0.19-0.55,0.19c-0.23,0-0.41-0.06-0.55-0.19
	C159.89,18.53,159.82,18.37,159.82,18.18z M161.29,23.74h-1.38v-4.42h1.38V23.74z M161.96,21.49c0-0.7,0.15-1.25,0.45-1.65
	c0.3-0.4,0.72-0.6,1.27-0.6c0.39,0,0.73,0.16,1,0.47v-2.24h1.38v6.27h-1.24l-0.07-0.47c-0.28,0.37-0.64,0.56-1.08,0.56
	c-0.53,0-0.94-0.2-1.25-0.6C162.11,22.81,161.96,22.24,161.96,21.49z M163.34,21.58c0,0.78,0.23,1.18,0.69,1.18
	c0.3,0,0.52-0.13,0.65-0.38v-1.68c-0.13-0.26-0.34-0.39-0.65-0.39c-0.42,0-0.65,0.34-0.69,1.03L163.34,21.58z M168.98,23.82
	c-0.68,0-1.23-0.2-1.65-0.61c-0.42-0.4-0.63-0.93-0.63-1.58v-0.11c0-0.45,0.08-0.85,0.25-1.2c0.17-0.35,0.41-0.61,0.73-0.8
	c0.32-0.19,0.7-0.28,1.14-0.28c0.62,0,1.11,0.19,1.47,0.58c0.36,0.39,0.54,0.92,0.54,1.61v0.54h-2.74c0.05,0.25,0.16,0.44,0.32,0.58
	c0.17,0.14,0.38,0.21,0.65,0.21c0.44,0,0.78-0.15,1.02-0.46l0.63,0.74c-0.17,0.24-0.41,0.43-0.73,0.57
	C169.68,23.75,169.34,23.82,168.98,23.82z M168.82,20.3c-0.4,0-0.64,0.27-0.72,0.8h1.39v-0.11c0.01-0.22-0.05-0.39-0.17-0.51
	C169.21,20.36,169.04,20.3,168.82,20.3z M172.66,19.32l0.04,0.52c0.31-0.4,0.73-0.6,1.26-0.6c0.46,0,0.8,0.14,1.03,0.41
	c0.23,0.28,0.35,0.69,0.35,1.24v2.85h-1.38v-2.79c0-0.22-0.05-0.39-0.13-0.49c-0.09-0.1-0.25-0.16-0.49-0.16
	c-0.27,0-0.47,0.11-0.6,0.32v3.12h-1.38v-4.42H172.66z M177.72,18.22v1.1h0.73v0.96h-0.73v2.02c0,0.17,0.03,0.28,0.09,0.35
	c0.06,0.07,0.18,0.1,0.36,0.1c0.14,0,0.25-0.01,0.34-0.02v0.98c-0.25,0.08-0.51,0.12-0.78,0.12c-0.47,0-0.82-0.11-1.05-0.33
	c-0.23-0.22-0.34-0.56-0.34-1.02v-2.19h-0.56v-0.96h0.56v-1.1H177.72z M178.97,18.18c0-0.2,0.07-0.36,0.21-0.48
	c0.14-0.13,0.33-0.19,0.55-0.19c0.23,0,0.41,0.06,0.55,0.19c0.14,0.13,0.21,0.29,0.21,0.48c0,0.2-0.07,0.36-0.21,0.48
	c-0.14,0.13-0.33,0.19-0.55,0.19c-0.23,0-0.41-0.06-0.55-0.19C179.05,18.53,178.97,18.37,178.97,18.18z M180.44,23.74h-1.38v-4.42
	h1.38V23.74z M182.89,18.22v1.1h0.73v0.96h-0.73v2.02c0,0.17,0.03,0.28,0.09,0.35c0.06,0.07,0.18,0.1,0.36,0.1
	c0.14,0,0.25-0.01,0.34-0.02v0.98c-0.25,0.08-0.51,0.12-0.78,0.12c-0.47,0-0.82-0.11-1.05-0.33c-0.23-0.22-0.34-0.56-0.34-1.02
	v-2.19h-0.56v-0.96h0.56v-1.1H182.89z M185.92,21.81l0.74-2.49h1.47l-1.8,5.16l-0.08,0.19c-0.26,0.57-0.71,0.86-1.36,0.86
	c-0.18,0-0.37-0.03-0.57-0.08v-0.98h0.18c0.19,0,0.34-0.03,0.44-0.08c0.1-0.06,0.18-0.16,0.23-0.3l0.11-0.29l-1.54-4.46h1.47
	L185.92,21.81z M192.18,18.22v1.1h0.73v0.96h-0.73v2.02c0,0.17,0.03,0.28,0.09,0.35c0.06,0.07,0.18,0.1,0.36,0.1
	c0.14,0,0.25-0.01,0.34-0.02v0.98c-0.25,0.08-0.51,0.12-0.78,0.12c-0.47,0-0.82-0.11-1.05-0.33c-0.23-0.22-0.34-0.56-0.34-1.02
	v-2.19h-0.56v-0.96h0.56v-1.1H192.18z M194.79,19.79c0.29-0.37,0.67-0.56,1.13-0.56c0.49,0,0.86,0.14,1.1,0.43
	c0.25,0.29,0.37,0.71,0.38,1.28v2.79h-1.38v-2.76c0-0.23-0.05-0.41-0.14-0.52c-0.1-0.11-0.26-0.17-0.49-0.17
	c-0.28,0-0.48,0.09-0.6,0.27v3.17h-1.38v-6.27h1.38V19.79z M200.31,23.82c-0.68,0-1.23-0.2-1.65-0.61c-0.42-0.4-0.63-0.93-0.63-1.58
	v-0.11c0-0.45,0.08-0.85,0.25-1.2c0.17-0.35,0.41-0.61,0.73-0.8c0.32-0.19,0.7-0.28,1.14-0.28c0.62,0,1.11,0.19,1.47,0.58
	c0.36,0.39,0.54,0.92,0.54,1.61v0.54h-2.74c0.05,0.25,0.16,0.44,0.32,0.58c0.17,0.14,0.38,0.21,0.65,0.21
	c0.44,0,0.78-0.15,1.02-0.46l0.63,0.74c-0.17,0.24-0.41,0.43-0.73,0.57C201.01,23.75,200.67,23.82,200.31,23.82z M200.15,20.3
	c-0.4,0-0.64,0.27-0.72,0.8h1.39v-0.11c0.01-0.22-0.05-0.39-0.17-0.51C200.54,20.36,200.37,20.3,200.15,20.3z M203.03,23.74v-3.46
	h-0.64v-0.96h0.64v-0.35c0-0.5,0.15-0.89,0.45-1.17c0.3-0.28,0.71-0.42,1.25-0.42c0.2,0,0.41,0.03,0.65,0.09l0,1.01
	c-0.08-0.02-0.2-0.04-0.34-0.04c-0.42,0-0.63,0.18-0.63,0.54v0.34h0.86v0.96h-0.86v3.46H203.03z M207.36,18.22v1.1h0.73v0.96h-0.73
	v2.02c0,0.17,0.03,0.28,0.09,0.35c0.06,0.07,0.18,0.1,0.36,0.1c0.14,0,0.25-0.01,0.34-0.02v0.98c-0.25,0.08-0.51,0.12-0.78,0.12
	c-0.47,0-0.82-0.11-1.05-0.33c-0.23-0.22-0.34-0.56-0.34-1.02v-2.19h-0.56v-0.96h0.56v-1.1H207.36z M213.2,23.74
	c-0.05-0.09-0.09-0.22-0.13-0.4c-0.25,0.32-0.61,0.48-1.06,0.48c-0.42,0-0.77-0.13-1.06-0.38c-0.29-0.25-0.44-0.57-0.44-0.95
	c0-0.48,0.18-0.84,0.53-1.09c0.35-0.25,0.87-0.37,1.54-0.37h0.42V20.8c0-0.41-0.18-0.61-0.53-0.61c-0.33,0-0.49,0.16-0.49,0.48
	h-1.38c0-0.43,0.18-0.77,0.55-1.04c0.36-0.27,0.83-0.4,1.39-0.4c0.56,0,1.01,0.14,1.34,0.41c0.33,0.28,0.49,0.65,0.5,1.13v1.96
	c0.01,0.41,0.07,0.72,0.19,0.93v0.07H213.2z M212.34,22.84c0.17,0,0.31-0.04,0.43-0.11c0.11-0.07,0.19-0.16,0.24-0.25v-0.71h-0.4
	c-0.48,0-0.72,0.22-0.72,0.65c0,0.13,0.04,0.23,0.13,0.3C212.1,22.8,212.21,22.84,212.34,22.84z M216.6,23.74h-1.38v-6.27h1.38
	V23.74z M219.59,23.82c-0.68,0-1.23-0.2-1.65-0.61c-0.42-0.4-0.63-0.93-0.63-1.58v-0.11c0-0.45,0.08-0.85,0.25-1.2
	c0.17-0.35,0.41-0.61,0.73-0.8c0.32-0.19,0.7-0.28,1.14-0.28c0.62,0,1.11,0.19,1.47,0.58c0.36,0.39,0.54,0.92,0.54,1.61v0.54h-2.74
	c0.05,0.25,0.16,0.44,0.32,0.58c0.17,0.14,0.38,0.21,0.65,0.21c0.44,0,0.78-0.15,1.02-0.46l0.63,0.74
	c-0.17,0.24-0.41,0.43-0.73,0.57C220.29,23.75,219.95,23.82,219.59,23.82z M219.44,20.3c-0.4,0-0.64,0.27-0.72,0.8h1.39v-0.11
	c0.01-0.22-0.05-0.39-0.17-0.51C219.82,20.36,219.65,20.3,219.44,20.3z M224.68,20.56l-0.45-0.03c-0.43,0-0.71,0.14-0.83,0.41v2.8
	h-1.38v-4.42h1.29l0.04,0.57c0.23-0.43,0.55-0.65,0.97-0.65c0.15,0,0.27,0.02,0.38,0.05L224.68,20.56z M226.98,18.22v1.1h0.73v0.96
	h-0.73v2.02c0,0.17,0.03,0.28,0.09,0.35c0.06,0.07,0.18,0.1,0.36,0.1c0.14,0,0.25-0.01,0.34-0.02v0.98
	c-0.25,0.08-0.51,0.12-0.78,0.12c-0.47,0-0.82-0.11-1.05-0.33c-0.23-0.22-0.34-0.56-0.34-1.02v-2.19h-0.56v-0.96h0.56v-1.1H226.98z
	 M230.57,22.49c0-0.12-0.06-0.21-0.18-0.28c-0.12-0.07-0.36-0.14-0.7-0.22c-0.34-0.08-0.63-0.18-0.85-0.3
	c-0.22-0.12-0.39-0.27-0.51-0.45c-0.12-0.18-0.18-0.38-0.18-0.61c0-0.41,0.17-0.74,0.5-1c0.33-0.26,0.77-0.39,1.32-0.39
	c0.58,0,1.05,0.13,1.41,0.4c0.35,0.26,0.53,0.61,0.53,1.04h-1.38c0-0.35-0.19-0.53-0.56-0.53c-0.14,0-0.27,0.04-0.36,0.12
	c-0.1,0.08-0.15,0.18-0.15,0.3c0,0.12,0.06,0.22,0.18,0.3c0.12,0.08,0.31,0.14,0.57,0.19c0.26,0.05,0.49,0.11,0.69,0.18
	c0.66,0.23,1,0.64,1,1.23c0,0.4-0.18,0.73-0.54,0.98c-0.36,0.25-0.82,0.38-1.39,0.38c-0.38,0-0.72-0.07-1.01-0.2
	c-0.3-0.14-0.53-0.32-0.69-0.56c-0.17-0.23-0.25-0.48-0.25-0.74h1.29c0.01,0.2,0.07,0.35,0.2,0.45c0.13,0.09,0.3,0.14,0.5,0.14
	c0.19,0,0.33-0.04,0.42-0.11C230.52,22.72,230.57,22.62,230.57,22.49z M239.15,21.37h-4.31V20.3h4.31V21.37z M108.46,33.78h-4.15
	v-0.9l1.91-2.01c0.47-0.54,0.71-0.96,0.71-1.28c0-0.26-0.06-0.45-0.17-0.58c-0.11-0.13-0.27-0.2-0.49-0.2
	c-0.21,0-0.38,0.09-0.51,0.27c-0.13,0.18-0.2,0.4-0.2,0.67h-1.38c0-0.37,0.09-0.7,0.27-1.01s0.44-0.55,0.76-0.73
	c0.32-0.17,0.69-0.26,1.09-0.26c0.64,0,1.14,0.15,1.48,0.45c0.35,0.3,0.52,0.72,0.52,1.28c0,0.23-0.04,0.46-0.13,0.68
	c-0.09,0.22-0.22,0.45-0.41,0.7c-0.18,0.24-0.48,0.57-0.89,0.98l-0.77,0.89h2.34V33.78z M112.79,31.45h0.6v1.06h-0.6v1.26h-1.38
	v-1.26h-2.3l-0.08-0.84l2.38-3.83v-0.01h1.38V31.45z M110.34,31.45h1.07v-1.83l-0.09,0.14L110.34,31.45z M114.49,34.29h-0.98
	l2.03-6.46h0.98L114.49,34.29z M121.07,28.56l-2.22,5.21h-1.45l2.23-4.89h-2.84v-1.06h4.29V28.56z M125.38,31.76v2.02h-1.43v-5.95
	h2.37c0.45,0,0.86,0.08,1.21,0.25c0.35,0.17,0.62,0.41,0.81,0.72c0.19,0.31,0.29,0.66,0.29,1.05c0,0.58-0.21,1.04-0.62,1.39
	c-0.42,0.35-0.99,0.52-1.71,0.52H125.38z M125.38,30.65h0.94c0.28,0,0.49-0.07,0.64-0.21c0.15-0.14,0.22-0.33,0.22-0.59
	c0-0.28-0.07-0.5-0.22-0.67c-0.15-0.17-0.35-0.25-0.61-0.25h-0.96V30.65z M131.97,33.3c-0.29,0.37-0.68,0.56-1.18,0.56
	c-0.48,0-0.85-0.14-1.1-0.42c-0.25-0.28-0.37-0.69-0.37-1.22v-2.86h1.38v2.87c0,0.38,0.18,0.57,0.55,0.57
	c0.32,0,0.54-0.11,0.67-0.34v-3.1h1.39v4.42h-1.29L131.97,33.3z M138.15,31.6c0,0.72-0.15,1.28-0.45,1.67
	c-0.3,0.39-0.72,0.58-1.27,0.58c-0.45,0-0.81-0.18-1.09-0.54l-0.06,0.45h-1.23V27.5h1.38v2.21c0.26-0.29,0.59-0.44,0.99-0.44
	c0.55,0,0.97,0.2,1.27,0.59c0.3,0.4,0.45,0.95,0.45,1.67V31.6z M136.77,31.51c0-0.42-0.06-0.73-0.17-0.91
	c-0.11-0.18-0.29-0.27-0.52-0.27c-0.31,0-0.53,0.12-0.65,0.35v1.75c0.12,0.23,0.33,0.35,0.65,0.35c0.32,0,0.53-0.16,0.62-0.47
	C136.75,32.17,136.77,31.9,136.77,31.51z M140.21,33.78h-1.38V27.5h1.38V33.78z M141.05,28.22c0-0.2,0.07-0.36,0.21-0.48
	c0.14-0.13,0.33-0.19,0.55-0.19c0.23,0,0.41,0.06,0.55,0.19c0.14,0.13,0.21,0.29,0.21,0.48c0,0.2-0.07,0.36-0.21,0.48
	c-0.14,0.13-0.33,0.19-0.55,0.19c-0.23,0-0.41-0.06-0.55-0.19C141.12,28.57,141.05,28.41,141.05,28.22z M142.51,33.78h-1.38v-4.42
	h1.38V33.78z M145.23,32.8c0.19,0,0.34-0.05,0.45-0.16c0.11-0.1,0.16-0.25,0.16-0.44h1.29c0,0.48-0.17,0.88-0.52,1.19
	c-0.35,0.31-0.79,0.47-1.34,0.47c-0.64,0-1.15-0.2-1.52-0.6c-0.37-0.4-0.56-0.96-0.56-1.67v-0.06c0-0.45,0.08-0.84,0.25-1.18
	c0.16-0.34,0.4-0.6,0.71-0.79c0.31-0.18,0.68-0.28,1.1-0.28c0.57,0,1.03,0.16,1.37,0.48c0.34,0.32,0.51,0.75,0.51,1.3h-1.29
	c0-0.23-0.06-0.4-0.17-0.53c-0.11-0.12-0.26-0.18-0.45-0.18c-0.36,0-0.57,0.23-0.63,0.68c-0.02,0.14-0.03,0.34-0.03,0.6
	c0,0.44,0.05,0.75,0.16,0.92C144.83,32.71,145,32.8,145.23,32.8z M150.68,30.64c-0.16-0.23-0.29-0.45-0.38-0.65
	c-0.09-0.21-0.14-0.42-0.14-0.64c0-0.48,0.15-0.87,0.47-1.16c0.31-0.3,0.72-0.44,1.22-0.44c0.45,0,0.82,0.14,1.12,0.41
	c0.29,0.27,0.44,0.61,0.44,1.02c0,0.51-0.28,0.96-0.84,1.35l-0.31,0.22l0.92,1.05c0.15-0.3,0.22-0.63,0.22-0.98h1.16
	c0,0.8-0.19,1.45-0.56,1.93l0.91,1.04h-1.54l-0.28-0.31c-0.23,0.14-0.46,0.24-0.7,0.3s-0.51,0.1-0.81,0.1
	c-0.59,0-1.06-0.15-1.41-0.46c-0.35-0.31-0.53-0.72-0.53-1.22c0-0.28,0.07-0.52,0.21-0.75c0.14-0.22,0.41-0.48,0.82-0.78
	L150.68,30.64z M151.67,32.8c0.24,0,0.47-0.06,0.69-0.17l-1.07-1.22l-0.04,0.02c-0.15,0.19-0.23,0.41-0.23,0.65
	c0,0.2,0.06,0.37,0.19,0.51S151.48,32.8,151.67,32.8z M151.35,29.33c0,0.19,0.1,0.42,0.31,0.69l0.27-0.17
	c0.13-0.08,0.22-0.17,0.27-0.25s0.09-0.2,0.09-0.33c0-0.13-0.04-0.23-0.13-0.33c-0.09-0.09-0.19-0.14-0.32-0.14
	c-0.15,0-0.27,0.05-0.36,0.15C151.39,29.05,151.35,29.17,151.35,29.33z M157.58,33.78v-5.95h1.92c0.53,0,1,0.12,1.42,0.36
	c0.42,0.24,0.75,0.57,0.98,1.01c0.24,0.43,0.35,0.92,0.36,1.46v0.27c0,0.54-0.12,1.03-0.35,1.46c-0.23,0.43-0.55,0.77-0.97,1.01
	c-0.42,0.24-0.88,0.37-1.4,0.37H157.58z M159.01,28.93v3.74h0.5c0.41,0,0.73-0.15,0.95-0.44c0.22-0.29,0.33-0.73,0.33-1.31v-0.26
	c0-0.57-0.11-1.01-0.33-1.3c-0.22-0.29-0.54-0.44-0.96-0.44H159.01z M165.41,33.78c-0.05-0.09-0.09-0.22-0.13-0.4
	c-0.25,0.32-0.61,0.48-1.06,0.48c-0.42,0-0.77-0.13-1.06-0.38c-0.29-0.25-0.44-0.57-0.44-0.95c0-0.48,0.18-0.84,0.53-1.09
	c0.35-0.25,0.87-0.37,1.54-0.37h0.42v-0.23c0-0.41-0.18-0.61-0.53-0.61c-0.33,0-0.49,0.16-0.49,0.48h-1.38
	c0-0.43,0.18-0.77,0.55-1.04c0.36-0.27,0.83-0.4,1.39-0.4c0.56,0,1.01,0.14,1.34,0.41c0.33,0.28,0.49,0.65,0.5,1.13v1.96
	c0.01,0.41,0.07,0.72,0.19,0.93v0.07H165.41z M164.55,32.88c0.17,0,0.31-0.04,0.43-0.11c0.11-0.07,0.19-0.16,0.24-0.25v-0.71h-0.4
	c-0.48,0-0.72,0.22-0.72,0.65c0,0.13,0.04,0.23,0.13,0.3C164.31,32.84,164.42,32.88,164.55,32.88z M170.04,30.6l-0.45-0.03
	c-0.43,0-0.71,0.14-0.83,0.41v2.8h-1.38v-4.42h1.29l0.04,0.57c0.23-0.43,0.55-0.65,0.97-0.65c0.15,0,0.27,0.02,0.38,0.05
	L170.04,30.6z M172.31,32.13l-0.39,0.39v1.26h-1.38V27.5h1.38v3.33l0.14-0.18l1.04-1.29h1.65l-1.55,1.82l1.65,2.6h-1.58
	L172.31,32.13z M181.86,31.56l0.68-3.73h1.42l-1.26,5.95h-1.49l-0.8-3.39l-0.78,3.39h-1.48l-1.27-5.95h1.43l0.68,3.73l0.82-3.73
	h1.22L181.86,31.56z M186.48,33.86c-0.68,0-1.23-0.2-1.65-0.61c-0.42-0.4-0.63-0.93-0.63-1.58v-0.11c0-0.45,0.08-0.85,0.25-1.2
	c0.17-0.35,0.41-0.61,0.73-0.8c0.32-0.19,0.7-0.28,1.14-0.28c0.62,0,1.11,0.19,1.47,0.58c0.36,0.39,0.54,0.92,0.54,1.61V32h-2.74
	c0.05,0.25,0.16,0.44,0.32,0.58c0.17,0.14,0.38,0.21,0.65,0.21c0.44,0,0.78-0.15,1.02-0.46l0.63,0.74
	c-0.17,0.24-0.41,0.43-0.73,0.57C187.18,33.79,186.84,33.86,186.48,33.86z M186.32,30.34c-0.4,0-0.64,0.27-0.72,0.8h1.39v-0.11
	c0.01-0.22-0.05-0.39-0.17-0.51C186.71,30.4,186.54,30.34,186.32,30.34z M193,31.6c0,0.72-0.15,1.28-0.45,1.67
	c-0.3,0.39-0.72,0.58-1.27,0.58c-0.45,0-0.81-0.18-1.09-0.54l-0.06,0.45h-1.23V27.5h1.38v2.21c0.26-0.29,0.59-0.44,0.99-0.44
	c0.55,0,0.97,0.2,1.27,0.59c0.3,0.4,0.45,0.95,0.45,1.67V31.6z M191.61,31.51c0-0.42-0.06-0.73-0.17-0.91
	c-0.11-0.18-0.29-0.27-0.52-0.27c-0.31,0-0.53,0.12-0.65,0.35v1.75c0.12,0.23,0.33,0.35,0.65,0.35c0.32,0,0.53-0.16,0.62-0.47
	C191.59,32.17,191.61,31.9,191.61,31.51z M198.82,32.2c0-0.21-0.07-0.37-0.22-0.49c-0.15-0.12-0.41-0.24-0.78-0.36
	c-0.37-0.13-0.68-0.25-0.92-0.36c-0.77-0.38-1.16-0.9-1.16-1.56c0-0.33,0.1-0.62,0.29-0.87c0.19-0.25,0.46-0.45,0.81-0.59
	c0.35-0.14,0.75-0.21,1.18-0.21c0.43,0,0.81,0.08,1.15,0.23c0.34,0.15,0.6,0.37,0.79,0.65c0.19,0.28,0.28,0.6,0.28,0.97h-1.43
	c0-0.24-0.07-0.43-0.22-0.56c-0.15-0.13-0.35-0.2-0.6-0.2c-0.26,0-0.46,0.06-0.61,0.17s-0.22,0.26-0.22,0.43
	c0,0.15,0.08,0.29,0.25,0.41c0.16,0.12,0.45,0.25,0.86,0.38c0.41,0.13,0.75,0.27,1.01,0.43c0.64,0.37,0.96,0.88,0.96,1.53
	c0,0.52-0.2,0.93-0.59,1.23c-0.39,0.3-0.93,0.45-1.61,0.45c-0.48,0-0.92-0.09-1.31-0.26c-0.39-0.17-0.69-0.41-0.88-0.71
	c-0.2-0.3-0.3-0.65-0.3-1.04H197c0,0.32,0.08,0.55,0.25,0.7c0.16,0.15,0.43,0.23,0.8,0.23c0.24,0,0.42-0.05,0.56-0.15
	C198.75,32.52,198.82,32.38,198.82,32.2z M202.79,32.8c0.19,0,0.34-0.05,0.45-0.16c0.11-0.1,0.16-0.25,0.16-0.44h1.29
	c0,0.48-0.17,0.88-0.52,1.19c-0.35,0.31-0.79,0.47-1.34,0.47c-0.64,0-1.15-0.2-1.52-0.6c-0.37-0.4-0.56-0.96-0.56-1.67v-0.06
	c0-0.45,0.08-0.84,0.25-1.18c0.16-0.34,0.4-0.6,0.71-0.79c0.31-0.18,0.68-0.28,1.1-0.28c0.57,0,1.03,0.16,1.37,0.48
	c0.34,0.32,0.51,0.75,0.51,1.3h-1.29c0-0.23-0.06-0.4-0.17-0.53c-0.11-0.12-0.26-0.18-0.45-0.18c-0.36,0-0.57,0.23-0.63,0.68
	c-0.02,0.14-0.03,0.34-0.03,0.6c0,0.44,0.05,0.75,0.16,0.92C202.39,32.71,202.56,32.8,202.79,32.8z M207.76,33.78
	c-0.05-0.09-0.09-0.22-0.13-0.4c-0.25,0.32-0.61,0.48-1.06,0.48c-0.42,0-0.77-0.13-1.06-0.38c-0.29-0.25-0.44-0.57-0.44-0.95
	c0-0.48,0.18-0.84,0.53-1.09c0.35-0.25,0.87-0.37,1.54-0.37h0.42v-0.23c0-0.41-0.18-0.61-0.53-0.61c-0.33,0-0.49,0.16-0.49,0.48
	h-1.38c0-0.43,0.18-0.77,0.55-1.04c0.36-0.27,0.83-0.4,1.39-0.4c0.56,0,1.01,0.14,1.34,0.41c0.33,0.28,0.49,0.65,0.5,1.13v1.96
	c0.01,0.41,0.07,0.72,0.19,0.93v0.07H207.76z M206.9,32.88c0.17,0,0.31-0.04,0.43-0.11c0.11-0.07,0.19-0.16,0.24-0.25v-0.71h-0.4
	c-0.48,0-0.72,0.22-0.72,0.65c0,0.13,0.04,0.23,0.13,0.3C206.66,32.84,206.77,32.88,206.9,32.88z M210.97,29.36l0.04,0.52
	c0.31-0.4,0.73-0.6,1.26-0.6c0.46,0,0.8,0.14,1.03,0.41c0.23,0.28,0.35,0.69,0.35,1.24v2.85h-1.38v-2.79c0-0.22-0.05-0.39-0.13-0.49
	c-0.09-0.1-0.25-0.16-0.49-0.16c-0.27,0-0.47,0.11-0.6,0.32v3.12h-1.38v-4.42H210.97z M215.69,29.36l0.04,0.52
	c0.31-0.4,0.73-0.6,1.26-0.6c0.46,0,0.8,0.14,1.03,0.41c0.23,0.28,0.35,0.69,0.35,1.24v2.85H217v-2.79c0-0.22-0.05-0.39-0.13-0.49
	c-0.09-0.1-0.25-0.16-0.49-0.16c-0.27,0-0.47,0.11-0.6,0.32v3.12h-1.38v-4.42H215.69z M219.14,28.22c0-0.2,0.07-0.36,0.21-0.48
	c0.14-0.13,0.33-0.19,0.55-0.19c0.23,0,0.41,0.06,0.55,0.19c0.14,0.13,0.21,0.29,0.21,0.48c0,0.2-0.07,0.36-0.21,0.48
	c-0.14,0.13-0.33,0.19-0.55,0.19c-0.23,0-0.41-0.06-0.55-0.19C219.21,28.57,219.14,28.41,219.14,28.22z M220.6,33.78h-1.38v-4.42
	h1.38V33.78z M222.71,29.36l0.04,0.52c0.31-0.4,0.73-0.6,1.26-0.6c0.46,0,0.8,0.14,1.03,0.41c0.23,0.28,0.35,0.69,0.35,1.24v2.85
	h-1.38v-2.79c0-0.22-0.05-0.39-0.13-0.49c-0.09-0.1-0.25-0.16-0.49-0.16c-0.27,0-0.47,0.11-0.6,0.32v3.12h-1.38v-4.42H222.71z
	 M226,31.53c0-0.45,0.07-0.84,0.22-1.18c0.15-0.34,0.36-0.61,0.63-0.79c0.28-0.19,0.6-0.28,0.96-0.28c0.46,0,0.82,0.16,1.08,0.47
	l0.05-0.38h1.25v4.25c0,0.39-0.09,0.73-0.27,1.02c-0.18,0.29-0.44,0.51-0.79,0.66c-0.34,0.15-0.74,0.23-1.19,0.23
	c-0.32,0-0.64-0.06-0.94-0.18c-0.3-0.12-0.54-0.28-0.7-0.48l0.58-0.81c0.26,0.3,0.59,0.45,1.01,0.45c0.61,0,0.92-0.31,0.92-0.94
	v-0.14c-0.26,0.29-0.6,0.44-1,0.44c-0.54,0-0.98-0.21-1.31-0.62c-0.33-0.41-0.5-0.96-0.5-1.66V31.53z M227.39,31.62
	c0,0.36,0.07,0.65,0.2,0.86c0.14,0.21,0.33,0.32,0.57,0.32c0.3,0,0.51-0.1,0.65-0.3v-1.86c-0.13-0.2-0.35-0.3-0.64-0.3
	c-0.25,0-0.44,0.11-0.58,0.33C227.45,30.88,227.39,31.2,227.39,31.62z"/>
</svg>
