<?xml version="1.0" encoding="utf-8"?>
<!-- Generator: Adobe Illustrator 24.2.3, SVG Export Plug-In . SVG Version: 6.00 Build 0)  -->
<svg version="1.1" id="Layer_1" xmlns="http://www.w3.org/2000/svg" xmlns:xlink="http://www.w3.org/1999/xlink" x="0px" y="0px"
	 viewBox="0 0 320 50" style="enable-background:new 0 0 320 50;" xml:space="preserve">
<style type="text/css">
	.st0{fill:url(#SVGID_1_);}
</style>
<linearGradient id="SVGID_1_" gradientUnits="userSpaceOnUse" x1="101.73" y1="26.109" x2="242.5386" y2="26.109">
	<stop  offset="0" style="stop-color:#18B9FB"/>
	<stop  offset="0.5" style="stop-color:#782EEB"/>
	<stop  offset="1" style="stop-color:#E82D8A"/>
</linearGradient>
<path class="st0" d="M104.56,20.46h-0.9v2.44H102v-6.89h2.71c0.82,0,1.46,0.18,1.92,0.54c0.46,0.36,0.69,0.88,0.69,1.54
	c0,0.48-0.1,0.88-0.29,1.19c-0.19,0.32-0.5,0.57-0.91,0.77l1.44,2.78v0.07h-1.78L104.56,20.46z M103.66,19.18h1.05
	c0.32,0,0.55-0.08,0.71-0.25s0.24-0.4,0.24-0.69c0-0.3-0.08-0.53-0.24-0.7c-0.16-0.17-0.4-0.25-0.71-0.25h-1.05V19.18z
	 M110.73,22.99c-0.79,0-1.42-0.23-1.91-0.7c-0.49-0.47-0.73-1.08-0.73-1.83v-0.13c0-0.52,0.1-0.99,0.29-1.39
	c0.19-0.4,0.48-0.71,0.85-0.93c0.37-0.22,0.81-0.33,1.32-0.33c0.72,0,1.29,0.22,1.7,0.67c0.42,0.45,0.62,1.07,0.62,1.87v0.62h-3.17
	c0.06,0.29,0.18,0.51,0.37,0.68s0.44,0.25,0.75,0.25c0.5,0,0.9-0.18,1.18-0.53l0.73,0.86c-0.2,0.27-0.48,0.49-0.84,0.65
	C111.54,22.91,111.15,22.99,110.73,22.99z M110.55,18.91c-0.47,0-0.74,0.31-0.83,0.93h1.61v-0.12c0.01-0.25-0.06-0.45-0.19-0.59
	C110.99,18.98,110.8,18.91,110.55,18.91z M115.5,21l0.81-3.22h1.68l-1.67,5.12h-1.63l-1.67-5.12h1.68L115.5,21z M118.45,16.46
	c0-0.23,0.08-0.41,0.25-0.56c0.16-0.15,0.38-0.22,0.64-0.22s0.47,0.07,0.64,0.22c0.16,0.14,0.25,0.33,0.25,0.56
	c0,0.23-0.08,0.41-0.25,0.56c-0.16,0.14-0.38,0.22-0.64,0.22s-0.47-0.07-0.64-0.22C118.54,16.87,118.45,16.69,118.45,16.46z
	 M120.15,22.9h-1.6v-5.12h1.6V22.9z M123.6,22.99c-0.79,0-1.42-0.23-1.91-0.7c-0.49-0.47-0.73-1.08-0.73-1.83v-0.13
	c0-0.52,0.1-0.99,0.29-1.39c0.19-0.4,0.48-0.71,0.85-0.93c0.37-0.22,0.81-0.33,1.32-0.33c0.72,0,1.29,0.22,1.7,0.67
	c0.42,0.45,0.62,1.07,0.62,1.87v0.62h-3.17c0.06,0.29,0.18,0.51,0.37,0.68s0.44,0.25,0.75,0.25c0.5,0,0.9-0.18,1.18-0.53l0.73,0.86
	c-0.2,0.27-0.48,0.49-0.84,0.65C124.42,22.91,124.02,22.99,123.6,22.99z M123.43,18.91c-0.47,0-0.74,0.31-0.83,0.93h1.61v-0.12
	c0.01-0.25-0.06-0.45-0.19-0.59C123.87,18.98,123.68,18.91,123.43,18.91z M130.82,20.8l0.52-3.02h1.53l-1.21,5.12h-1.35l-0.85-3.04
	l-0.85,3.04h-1.35l-1.21-5.12h1.53l0.51,3.09l0.81-3.09h1.11L130.82,20.8z M137.89,20.66l0.85-2.89h1.71l-2.09,5.97l-0.09,0.22
	c-0.3,0.66-0.82,0.99-1.57,0.99c-0.21,0-0.43-0.03-0.66-0.09v-1.14h0.21c0.22,0,0.39-0.03,0.51-0.1s0.21-0.18,0.26-0.35l0.13-0.34
	l-1.78-5.17h1.7L137.89,20.66z M140.6,20.29c0-0.51,0.1-0.97,0.3-1.36c0.2-0.4,0.48-0.71,0.86-0.92s0.81-0.32,1.31-0.32
	c0.77,0,1.37,0.24,1.81,0.71c0.44,0.47,0.66,1.12,0.66,1.94v0.06c0,0.8-0.22,1.43-0.66,1.9c-0.44,0.47-1.04,0.7-1.8,0.7
	c-0.73,0-1.31-0.22-1.75-0.66s-0.68-1.03-0.71-1.78L140.6,20.29z M142.19,20.39c0,0.47,0.07,0.82,0.22,1.04
	c0.15,0.22,0.37,0.33,0.66,0.33c0.57,0,0.86-0.44,0.87-1.31v-0.16c0-0.92-0.29-1.38-0.88-1.38c-0.53,0-0.82,0.4-0.87,1.19
	L142.19,20.39z M149.28,22.34c-0.34,0.43-0.79,0.65-1.37,0.65c-0.56,0-0.99-0.16-1.28-0.49c-0.29-0.33-0.43-0.8-0.43-1.41v-3.32
	h1.59v3.33c0,0.44,0.21,0.66,0.64,0.66c0.37,0,0.63-0.13,0.78-0.39v-3.59h1.6v5.12h-1.49L149.28,22.34z M154.79,19.22l-0.53-0.04
	c-0.5,0-0.82,0.16-0.96,0.47v3.24h-1.59v-5.12h1.49l0.05,0.66c0.27-0.5,0.64-0.75,1.12-0.75c0.17,0,0.32,0.02,0.45,0.06
	L154.79,19.22z M159.64,16.51v1.27h0.84v1.11h-0.84v2.34c0,0.19,0.03,0.33,0.1,0.4c0.07,0.08,0.21,0.11,0.41,0.11
	c0.16,0,0.29-0.01,0.4-0.03v1.14c-0.29,0.09-0.59,0.14-0.9,0.14c-0.55,0-0.95-0.13-1.21-0.39c-0.26-0.26-0.39-0.65-0.39-1.18v-2.54
	h-0.65v-1.11h0.65v-1.27H159.64z M164.2,19.22l-0.53-0.04c-0.5,0-0.82,0.16-0.96,0.47v3.24h-1.59v-5.12h1.49l0.05,0.66
	c0.27-0.5,0.64-0.75,1.12-0.75c0.17,0,0.32,0.02,0.45,0.06L164.2,19.22z M164.77,16.46c0-0.23,0.08-0.41,0.25-0.56
	c0.16-0.15,0.38-0.22,0.64-0.22s0.47,0.07,0.64,0.22c0.16,0.14,0.25,0.33,0.25,0.56c0,0.23-0.08,0.41-0.25,0.56
	c-0.16,0.14-0.38,0.22-0.64,0.22s-0.47-0.07-0.64-0.22C164.85,16.87,164.77,16.69,164.77,16.46z M166.46,22.9h-1.6v-5.12h1.6V22.9z
	 M172.19,20.37c0,0.79-0.18,1.43-0.54,1.9c-0.36,0.47-0.84,0.71-1.45,0.71c-0.47,0-0.86-0.17-1.16-0.52v2.39h-1.59v-7.09h1.49
	l0.05,0.47c0.31-0.38,0.71-0.57,1.21-0.57c0.63,0,1.12,0.23,1.47,0.7c0.35,0.46,0.53,1.1,0.53,1.92V20.37z M170.6,20.28
	c0-0.91-0.27-1.36-0.79-1.36c-0.38,0-0.63,0.14-0.76,0.41v2.02c0.14,0.28,0.39,0.43,0.77,0.43c0.51,0,0.77-0.44,0.79-1.32V20.28z
	 M174.57,22.9h-1.6v-7.26h1.6V22.9z M178.03,22.99c-0.79,0-1.42-0.23-1.91-0.7c-0.49-0.47-0.73-1.08-0.73-1.83v-0.13
	c0-0.52,0.1-0.99,0.29-1.39c0.19-0.4,0.48-0.71,0.85-0.93c0.37-0.22,0.81-0.33,1.32-0.33c0.72,0,1.29,0.22,1.7,0.67
	c0.42,0.45,0.62,1.07,0.62,1.87v0.62h-3.17c0.06,0.29,0.18,0.51,0.37,0.68s0.44,0.25,0.75,0.25c0.5,0,0.9-0.18,1.18-0.53l0.73,0.86
	c-0.2,0.27-0.48,0.49-0.84,0.65C178.84,22.91,178.45,22.99,178.03,22.99z M177.85,18.91c-0.47,0-0.74,0.31-0.83,0.93h1.61v-0.12
	c0.01-0.25-0.06-0.45-0.19-0.59C178.3,18.98,178.1,18.91,177.85,18.91z M183.94,20.54h-2.84v-1.23h2.84V20.54z M189.94,20.38
	c0,0.84-0.17,1.48-0.52,1.93c-0.35,0.45-0.84,0.68-1.47,0.68c-0.52,0-0.94-0.21-1.26-0.62l-0.07,0.53h-1.43v-7.26h1.59v2.56
	c0.3-0.34,0.68-0.51,1.15-0.51c0.64,0,1.13,0.23,1.48,0.69c0.35,0.46,0.52,1.1,0.52,1.93V20.38z M188.34,20.28
	c0-0.49-0.07-0.84-0.2-1.05c-0.13-0.21-0.33-0.31-0.6-0.31c-0.36,0-0.61,0.14-0.75,0.41v2.03c0.14,0.27,0.39,0.41,0.76,0.41
	c0.38,0,0.61-0.18,0.71-0.55C188.31,21.03,188.34,20.72,188.34,20.28z M193.69,22.34c-0.34,0.43-0.79,0.65-1.37,0.65
	c-0.56,0-0.99-0.16-1.28-0.49c-0.29-0.33-0.43-0.8-0.43-1.41v-3.32h1.59v3.33c0,0.44,0.21,0.66,0.64,0.66
	c0.37,0,0.63-0.13,0.78-0.39v-3.59h1.6v5.12h-1.49L193.69,22.34z M199.2,19.22l-0.53-0.04c-0.5,0-0.82,0.16-0.96,0.47v3.24h-1.59
	v-5.12h1.49l0.05,0.66c0.27-0.5,0.64-0.75,1.12-0.75c0.17,0,0.32,0.02,0.45,0.06L199.2,19.22z M202.16,22.99
	c-0.79,0-1.42-0.23-1.91-0.7c-0.49-0.47-0.73-1.08-0.73-1.83v-0.13c0-0.52,0.1-0.99,0.29-1.39c0.19-0.4,0.48-0.71,0.85-0.93
	c0.37-0.22,0.81-0.33,1.32-0.33c0.72,0,1.29,0.22,1.7,0.67c0.42,0.45,0.62,1.07,0.62,1.87v0.62h-3.17c0.06,0.29,0.18,0.51,0.37,0.68
	s0.44,0.25,0.75,0.25c0.5,0,0.9-0.18,1.18-0.53l0.73,0.86c-0.2,0.27-0.48,0.49-0.84,0.65C202.97,22.91,202.58,22.99,202.16,22.99z
	 M201.98,18.91c-0.47,0-0.74,0.31-0.83,0.93h1.61v-0.12c0.01-0.25-0.06-0.45-0.19-0.59C202.43,18.98,202.23,18.91,201.98,18.91z
	 M207.84,22.9c-0.06-0.1-0.11-0.26-0.15-0.46c-0.29,0.37-0.7,0.55-1.23,0.55c-0.48,0-0.89-0.15-1.23-0.44
	c-0.34-0.29-0.51-0.66-0.51-1.1c0-0.56,0.21-0.97,0.62-1.26c0.41-0.28,1.01-0.42,1.79-0.42h0.49V19.5c0-0.47-0.2-0.71-0.61-0.71
	c-0.38,0-0.57,0.19-0.57,0.56h-1.59c0-0.49,0.21-0.9,0.63-1.2c0.42-0.31,0.96-0.46,1.61-0.46c0.65,0,1.17,0.16,1.55,0.48
	c0.38,0.32,0.57,0.75,0.58,1.31v2.27c0.01,0.47,0.08,0.83,0.22,1.08v0.08H207.84z M206.84,21.85c0.2,0,0.36-0.04,0.49-0.13
	s0.22-0.18,0.28-0.29v-0.82h-0.46c-0.55,0-0.83,0.25-0.83,0.75c0,0.14,0.05,0.26,0.15,0.35S206.69,21.85,206.84,21.85z
	 M213.15,22.34c-0.34,0.43-0.79,0.65-1.37,0.65c-0.56,0-0.99-0.16-1.28-0.49c-0.29-0.33-0.43-0.8-0.43-1.41v-3.32h1.59v3.33
	c0,0.44,0.21,0.66,0.64,0.66c0.37,0,0.63-0.13,0.78-0.39v-3.59h1.6v5.12h-1.49L213.15,22.34z M104.1,33.38
	c0.22,0,0.4-0.06,0.52-0.18s0.18-0.29,0.18-0.51h1.5c0,0.56-0.2,1.02-0.6,1.38c-0.4,0.36-0.92,0.54-1.55,0.54
	c-0.74,0-1.33-0.23-1.76-0.7c-0.43-0.47-0.64-1.11-0.64-1.94v-0.07c0-0.52,0.09-0.97,0.29-1.37c0.19-0.4,0.47-0.7,0.83-0.91
	c0.36-0.21,0.79-0.32,1.28-0.32c0.67,0,1.19,0.18,1.58,0.55c0.39,0.37,0.59,0.87,0.59,1.5h-1.5c0-0.27-0.06-0.47-0.19-0.61
	c-0.13-0.14-0.3-0.21-0.52-0.21c-0.41,0-0.65,0.26-0.72,0.79c-0.02,0.17-0.03,0.4-0.03,0.69c0,0.51,0.06,0.87,0.18,1.07
	C103.63,33.29,103.83,33.38,104.1,33.38z M110.06,30.84l-0.53-0.04c-0.5,0-0.82,0.16-0.96,0.47v3.24h-1.59V29.4h1.49l0.05,0.66
	c0.27-0.5,0.64-0.75,1.12-0.75c0.17,0,0.32,0.02,0.45,0.06L110.06,30.84z M113.02,34.61c-0.79,0-1.42-0.23-1.91-0.7
	c-0.49-0.47-0.73-1.08-0.73-1.83v-0.13c0-0.52,0.1-0.99,0.29-1.39c0.19-0.4,0.48-0.71,0.85-0.93c0.37-0.22,0.81-0.33,1.32-0.33
	c0.72,0,1.29,0.22,1.7,0.67c0.42,0.45,0.62,1.07,0.62,1.87v0.62h-3.17c0.06,0.29,0.18,0.51,0.37,0.68s0.44,0.25,0.75,0.25
	c0.5,0,0.9-0.18,1.18-0.53l0.73,0.86c-0.2,0.27-0.48,0.49-0.84,0.65C113.83,34.53,113.44,34.61,113.02,34.61z M112.84,30.54
	c-0.47,0-0.74,0.31-0.83,0.93h1.61v-0.12c0.01-0.25-0.06-0.45-0.19-0.59C113.29,30.61,113.09,30.54,112.84,30.54z M115.62,31.92
	c0-0.81,0.17-1.45,0.52-1.92c0.35-0.47,0.84-0.7,1.47-0.7c0.46,0,0.84,0.18,1.15,0.54v-2.59h1.6v7.26h-1.43l-0.08-0.55
	c-0.33,0.43-0.74,0.64-1.25,0.64c-0.61,0-1.09-0.23-1.45-0.7S115.62,32.78,115.62,31.92z M117.21,32.02c0,0.91,0.26,1.36,0.79,1.36
	c0.35,0,0.61-0.15,0.76-0.45v-1.95c-0.15-0.3-0.39-0.45-0.75-0.45c-0.49,0-0.76,0.4-0.8,1.19L117.21,32.02z M121.26,28.08
	c0-0.23,0.08-0.41,0.25-0.56c0.16-0.15,0.38-0.22,0.64-0.22s0.47,0.07,0.64,0.22c0.16,0.14,0.25,0.33,0.25,0.56
	c0,0.23-0.08,0.41-0.25,0.56c-0.16,0.14-0.38,0.22-0.64,0.22s-0.47-0.07-0.64-0.22C121.34,28.5,121.26,28.31,121.26,28.08z
	 M122.95,34.52h-1.6V29.4h1.6V34.52z M125.79,28.13v1.27h0.84v1.11h-0.84v2.34c0,0.19,0.03,0.33,0.1,0.4
	c0.07,0.08,0.21,0.11,0.41,0.11c0.16,0,0.29-0.01,0.4-0.03v1.14c-0.29,0.09-0.59,0.14-0.9,0.14c-0.55,0-0.95-0.13-1.21-0.39
	c-0.26-0.26-0.39-0.65-0.39-1.18v-2.54h-0.65V29.4h0.65v-1.27H125.79z M132.76,30.84l-0.53-0.04c-0.5,0-0.82,0.16-0.96,0.47v3.24
	h-1.59V29.4h1.49l0.05,0.66c0.27-0.5,0.64-0.75,1.12-0.75c0.17,0,0.32,0.02,0.45,0.06L132.76,30.84z M135.72,34.61
	c-0.79,0-1.42-0.23-1.91-0.7c-0.49-0.47-0.73-1.08-0.73-1.83v-0.13c0-0.52,0.1-0.99,0.29-1.39c0.19-0.4,0.48-0.71,0.85-0.93
	c0.37-0.22,0.81-0.33,1.32-0.33c0.72,0,1.29,0.22,1.7,0.67c0.42,0.45,0.62,1.07,0.62,1.87v0.62h-3.17c0.06,0.29,0.18,0.51,0.37,0.68
	s0.44,0.25,0.75,0.25c0.5,0,0.9-0.18,1.18-0.53l0.73,0.86c-0.2,0.27-0.48,0.49-0.84,0.65C136.53,34.53,136.14,34.61,135.72,34.61z
	 M135.54,30.54c-0.47,0-0.74,0.31-0.83,0.93h1.61v-0.12c0.01-0.25-0.06-0.45-0.19-0.59C135.99,30.61,135.8,30.54,135.54,30.54z
	 M143.27,32c0,0.79-0.18,1.43-0.54,1.9c-0.36,0.47-0.84,0.71-1.45,0.71c-0.47,0-0.86-0.17-1.16-0.52v2.39h-1.59V29.4h1.49l0.05,0.47
	c0.31-0.38,0.71-0.57,1.21-0.57c0.63,0,1.12,0.23,1.47,0.7c0.35,0.46,0.53,1.1,0.53,1.92V32z M141.68,31.9
	c0-0.91-0.27-1.36-0.79-1.36c-0.38,0-0.63,0.14-0.76,0.41v2.02c0.14,0.28,0.39,0.43,0.77,0.43c0.51,0,0.77-0.44,0.79-1.32V31.9z
	 M143.77,31.91c0-0.51,0.1-0.97,0.3-1.36s0.48-0.71,0.86-0.92s0.81-0.32,1.31-0.32c0.77,0,1.37,0.24,1.81,0.71s0.66,1.12,0.66,1.94
	v0.06c0,0.8-0.22,1.43-0.66,1.9c-0.44,0.47-1.04,0.7-1.8,0.7c-0.73,0-1.31-0.22-1.75-0.66s-0.68-1.03-0.71-1.78L143.77,31.91z
	 M145.37,32.01c0,0.47,0.07,0.82,0.22,1.04c0.15,0.22,0.37,0.33,0.66,0.33c0.57,0,0.86-0.44,0.87-1.31v-0.16
	c0-0.92-0.29-1.38-0.88-1.38c-0.53,0-0.82,0.4-0.87,1.19L145.37,32.01z M152.51,30.84l-0.53-0.04c-0.5,0-0.82,0.16-0.96,0.47v3.24
	h-1.59V29.4h1.49l0.05,0.66c0.27-0.5,0.64-0.75,1.12-0.75c0.17,0,0.32,0.02,0.45,0.06L152.51,30.84z M155.18,28.13v1.27h0.84v1.11
	h-0.84v2.34c0,0.19,0.03,0.33,0.1,0.4c0.07,0.08,0.21,0.11,0.41,0.11c0.16,0,0.29-0.01,0.4-0.03v1.14c-0.29,0.09-0.59,0.14-0.9,0.14
	c-0.55,0-0.95-0.13-1.21-0.39c-0.26-0.26-0.39-0.65-0.39-1.18v-2.54h-0.65V29.4h0.65v-1.27H155.18z M159.32,33.08
	c0-0.14-0.07-0.25-0.21-0.33c-0.14-0.08-0.41-0.17-0.81-0.25s-0.72-0.2-0.98-0.35s-0.46-0.32-0.59-0.52
	c-0.13-0.21-0.2-0.44-0.2-0.71c0-0.47,0.19-0.86,0.58-1.16s0.9-0.46,1.52-0.46c0.67,0,1.22,0.15,1.63,0.46
	c0.41,0.31,0.61,0.71,0.61,1.21h-1.6c0-0.41-0.22-0.61-0.65-0.61c-0.17,0-0.31,0.05-0.42,0.14c-0.11,0.09-0.17,0.21-0.17,0.35
	c0,0.14,0.07,0.26,0.21,0.34c0.14,0.09,0.36,0.16,0.67,0.22c0.3,0.06,0.57,0.12,0.8,0.2c0.77,0.27,1.15,0.74,1.15,1.42
	c0,0.47-0.21,0.85-0.62,1.14c-0.42,0.29-0.95,0.44-1.61,0.44c-0.44,0-0.83-0.08-1.17-0.24c-0.34-0.16-0.61-0.37-0.8-0.64
	s-0.29-0.56-0.29-0.86h1.49c0.01,0.24,0.08,0.41,0.24,0.52c0.15,0.11,0.35,0.16,0.58,0.16c0.22,0,0.38-0.04,0.49-0.13
	C159.27,33.34,159.32,33.22,159.32,33.08z M165.04,30.89c-0.19-0.26-0.33-0.52-0.44-0.76c-0.11-0.24-0.16-0.49-0.16-0.74
	c0-0.56,0.18-1,0.54-1.35s0.83-0.51,1.41-0.51c0.52,0,0.95,0.16,1.29,0.48c0.34,0.32,0.51,0.71,0.51,1.18
	c0,0.59-0.32,1.11-0.97,1.56L166.87,31l1.06,1.21c0.17-0.35,0.26-0.73,0.26-1.14h1.34c0,0.93-0.21,1.68-0.64,2.24l1.05,1.21h-1.78
	l-0.32-0.36c-0.26,0.16-0.54,0.27-0.81,0.35c-0.28,0.08-0.59,0.11-0.93,0.11c-0.68,0-1.23-0.18-1.64-0.54s-0.62-0.83-0.62-1.41
	c0-0.32,0.08-0.61,0.24-0.87c0.16-0.26,0.48-0.56,0.95-0.9L165.04,30.89z M166.19,33.39c0.28,0,0.54-0.06,0.79-0.19l-1.24-1.41
	l-0.04,0.03c-0.18,0.22-0.27,0.47-0.27,0.75c0,0.23,0.07,0.43,0.22,0.59C165.8,33.31,165.98,33.39,166.19,33.39z M165.82,29.37
	c0,0.22,0.12,0.49,0.36,0.8l0.32-0.2c0.15-0.09,0.25-0.19,0.32-0.29c0.07-0.1,0.1-0.23,0.1-0.38c0-0.15-0.05-0.27-0.15-0.38
	c-0.1-0.11-0.23-0.16-0.37-0.16c-0.18,0-0.32,0.06-0.42,0.17C165.87,29.04,165.82,29.19,165.82,29.37z M175.64,33.08
	c0-0.14-0.07-0.25-0.21-0.33c-0.14-0.08-0.41-0.17-0.81-0.25s-0.72-0.2-0.98-0.35s-0.46-0.32-0.59-0.52
	c-0.13-0.21-0.2-0.44-0.2-0.71c0-0.47,0.19-0.86,0.58-1.16s0.9-0.46,1.52-0.46c0.67,0,1.22,0.15,1.63,0.46
	c0.41,0.31,0.61,0.71,0.61,1.21h-1.6c0-0.41-0.22-0.61-0.65-0.61c-0.17,0-0.31,0.05-0.42,0.14c-0.11,0.09-0.17,0.21-0.17,0.35
	c0,0.14,0.07,0.26,0.21,0.34c0.14,0.09,0.36,0.16,0.67,0.22c0.3,0.06,0.57,0.12,0.8,0.2c0.77,0.27,1.15,0.74,1.15,1.42
	c0,0.47-0.21,0.85-0.62,1.14c-0.42,0.29-0.95,0.44-1.61,0.44c-0.44,0-0.83-0.08-1.17-0.24c-0.34-0.16-0.61-0.37-0.8-0.64
	s-0.29-0.56-0.29-0.86h1.49c0.01,0.24,0.08,0.41,0.24,0.52c0.15,0.11,0.35,0.16,0.58,0.16c0.22,0,0.38-0.04,0.49-0.13
	C175.58,33.34,175.64,33.22,175.64,33.08z M180.09,33.38c0.22,0,0.4-0.06,0.52-0.18s0.18-0.29,0.18-0.51h1.5
	c0,0.56-0.2,1.02-0.6,1.38c-0.4,0.36-0.92,0.54-1.55,0.54c-0.74,0-1.33-0.23-1.76-0.7c-0.43-0.47-0.64-1.11-0.64-1.94v-0.07
	c0-0.52,0.09-0.97,0.29-1.37c0.19-0.4,0.47-0.7,0.83-0.91c0.36-0.21,0.79-0.32,1.28-0.32c0.67,0,1.19,0.18,1.58,0.55
	c0.39,0.37,0.59,0.87,0.59,1.5h-1.5c0-0.27-0.06-0.47-0.19-0.61c-0.13-0.14-0.3-0.21-0.52-0.21c-0.41,0-0.65,0.26-0.72,0.79
	c-0.02,0.17-0.03,0.4-0.03,0.69c0,0.51,0.06,0.87,0.18,1.07C179.62,33.29,179.82,33.38,180.09,33.38z M182.75,31.91
	c0-0.51,0.1-0.97,0.3-1.36s0.48-0.71,0.86-0.92s0.81-0.32,1.31-0.32c0.77,0,1.37,0.24,1.81,0.71s0.66,1.12,0.66,1.94v0.06
	c0,0.8-0.22,1.43-0.66,1.9c-0.44,0.47-1.04,0.7-1.8,0.7c-0.73,0-1.31-0.22-1.75-0.66s-0.68-1.03-0.71-1.78L182.75,31.91z
	 M184.35,32.01c0,0.47,0.07,0.82,0.22,1.04c0.15,0.22,0.37,0.33,0.66,0.33c0.57,0,0.86-0.44,0.87-1.31v-0.16
	c0-0.92-0.29-1.38-0.88-1.38c-0.53,0-0.82,0.4-0.87,1.19L184.35,32.01z M191.49,30.84l-0.53-0.04c-0.5,0-0.82,0.16-0.96,0.47v3.24
	h-1.59V29.4h1.49l0.05,0.66c0.27-0.5,0.64-0.75,1.12-0.75c0.17,0,0.32,0.02,0.45,0.06L191.49,30.84z M194.45,34.61
	c-0.79,0-1.42-0.23-1.91-0.7c-0.49-0.47-0.73-1.08-0.73-1.83v-0.13c0-0.52,0.1-0.99,0.29-1.39c0.19-0.4,0.48-0.71,0.85-0.93
	c0.37-0.22,0.81-0.33,1.32-0.33c0.72,0,1.29,0.22,1.7,0.67c0.42,0.45,0.62,1.07,0.62,1.87v0.62h-3.17c0.06,0.29,0.18,0.51,0.37,0.68
	s0.44,0.25,0.75,0.25c0.5,0,0.9-0.18,1.18-0.53l0.73,0.86c-0.2,0.27-0.48,0.49-0.84,0.65C195.26,34.53,194.87,34.61,194.45,34.61z
	 M194.27,30.54c-0.47,0-0.74,0.31-0.83,0.93h1.61v-0.12c0.01-0.25-0.06-0.45-0.19-0.59C194.72,30.61,194.52,30.54,194.27,30.54z
	 M199.93,33.08c0-0.14-0.07-0.25-0.21-0.33c-0.14-0.08-0.41-0.17-0.81-0.25s-0.72-0.2-0.98-0.35s-0.46-0.32-0.59-0.52
	c-0.13-0.21-0.2-0.44-0.2-0.71c0-0.47,0.19-0.86,0.58-1.16s0.9-0.46,1.52-0.46c0.67,0,1.22,0.15,1.63,0.46
	c0.41,0.31,0.61,0.71,0.61,1.21h-1.6c0-0.41-0.22-0.61-0.65-0.61c-0.17,0-0.31,0.05-0.42,0.14c-0.11,0.09-0.17,0.21-0.17,0.35
	c0,0.14,0.07,0.26,0.21,0.34c0.14,0.09,0.36,0.16,0.67,0.22c0.3,0.06,0.57,0.12,0.8,0.2c0.77,0.27,1.15,0.74,1.15,1.42
	c0,0.47-0.21,0.85-0.62,1.14c-0.42,0.29-0.95,0.44-1.61,0.44c-0.44,0-0.83-0.08-1.17-0.24c-0.34-0.16-0.61-0.37-0.8-0.64
	s-0.29-0.56-0.29-0.86h1.49c0.01,0.24,0.08,0.41,0.24,0.52c0.15,0.11,0.35,0.16,0.58,0.16c0.22,0,0.38-0.04,0.49-0.13
	C199.87,33.34,199.93,33.22,199.93,33.08z M202.77,36.37l-0.8-0.38l0.16-0.32c0.22-0.41,0.34-0.8,0.35-1.17v-1.18h1.28l0,1.03
	c0,0.36-0.1,0.73-0.28,1.11C203.28,35.83,203.05,36.13,202.77,36.37z M208.74,29.4l0.05,0.6c0.36-0.46,0.85-0.7,1.46-0.7
	c0.65,0,1.08,0.26,1.31,0.77c0.35-0.51,0.85-0.77,1.5-0.77c1.04,0,1.57,0.63,1.6,1.88v3.33h-1.6v-3.23c0-0.26-0.04-0.45-0.13-0.57
	c-0.09-0.12-0.25-0.18-0.48-0.18c-0.32,0-0.55,0.14-0.7,0.42l0,0.07v3.5h-1.6V31.3c0-0.27-0.04-0.46-0.13-0.58s-0.25-0.18-0.49-0.18
	c-0.31,0-0.54,0.14-0.7,0.42v3.56h-1.59V29.4H208.74z M215.37,31.91c0-0.51,0.1-0.97,0.3-1.36s0.48-0.71,0.86-0.92
	s0.81-0.32,1.31-0.32c0.77,0,1.37,0.24,1.81,0.71s0.66,1.12,0.66,1.94v0.06c0,0.8-0.22,1.43-0.66,1.9c-0.44,0.47-1.04,0.7-1.8,0.7
	c-0.73,0-1.31-0.22-1.75-0.66s-0.68-1.03-0.71-1.78L215.37,31.91z M216.97,32.01c0,0.47,0.07,0.82,0.22,1.04
	c0.15,0.22,0.37,0.33,0.66,0.33c0.57,0,0.86-0.44,0.87-1.31v-0.16c0-0.92-0.29-1.38-0.88-1.38c-0.53,0-0.82,0.4-0.87,1.19
	L216.97,32.01z M222.48,29.4l0.05,0.6c0.35-0.46,0.84-0.7,1.46-0.7c0.53,0,0.93,0.16,1.19,0.48c0.26,0.32,0.4,0.8,0.41,1.44v3.3H224
	v-3.23c0-0.26-0.05-0.45-0.16-0.57c-0.1-0.12-0.29-0.18-0.57-0.18c-0.31,0-0.54,0.12-0.7,0.37v3.61h-1.59V29.4H222.48z
	 M228.33,28.13v1.27h0.84v1.11h-0.84v2.34c0,0.19,0.03,0.33,0.1,0.4c0.07,0.08,0.21,0.11,0.41,0.11c0.16,0,0.29-0.01,0.4-0.03v1.14
	c-0.29,0.09-0.59,0.14-0.9,0.14c-0.55,0-0.95-0.13-1.21-0.39c-0.26-0.26-0.39-0.65-0.39-1.18v-2.54h-0.65V29.4h0.65v-1.27H228.33z
	 M231.36,29.95c0.34-0.43,0.78-0.64,1.3-0.64c0.56,0,0.99,0.17,1.28,0.5s0.43,0.83,0.44,1.48v3.23h-1.6v-3.19
	c0-0.27-0.05-0.47-0.17-0.6s-0.3-0.19-0.56-0.19c-0.33,0-0.56,0.1-0.7,0.31v3.67h-1.59v-7.26h1.59V29.95z M236.95,34.52h-1.6v-7.26
	h1.6V34.52z M239.98,32.29l0.85-2.89h1.71l-2.09,5.97l-0.09,0.22c-0.3,0.66-0.82,0.99-1.57,0.99c-0.21,0-0.43-0.03-0.66-0.09v-1.14
	h0.21c0.22,0,0.39-0.03,0.51-0.1s0.21-0.18,0.26-0.35l0.13-0.34l-1.78-5.17h1.7L239.98,32.29z"/>
</svg>
