<?xml version="1.0" encoding="utf-8"?>
<!-- Generator: Adobe Illustrator 24.2.3, SVG Export Plug-In . SVG Version: 6.00 Build 0)  -->
<svg version="1.1" id="Layer_1" xmlns="http://www.w3.org/2000/svg" xmlns:xlink="http://www.w3.org/1999/xlink" x="0px" y="0px"
	 viewBox="0 0 320 50" style="enable-background:new 0 0 320 50;" xml:space="preserve">
<style type="text/css">
	.st0{fill:#EDF4FD;}
	.st1{fill:#021D8B;}
</style>
<g>
	<path class="st0" d="M305.35,24.12h-41.57c-3.07,0-5.57-2.49-5.57-5.57v0c0-3.07,2.49-5.57,5.57-5.57h41.57
		c3.07,0,5.57,2.49,5.57,5.57v0C310.91,21.63,308.42,24.12,305.35,24.12z"/>
</g>
<g>
	<path class="st1" d="M267.92,19.28c-0.03,0.35-0.16,0.63-0.39,0.83s-0.54,0.3-0.93,0.3c-0.42,0-0.75-0.14-0.99-0.42
		s-0.36-0.67-0.36-1.16v-0.2c0-0.31,0.06-0.59,0.17-0.83c0.11-0.24,0.27-0.42,0.48-0.55c0.21-0.13,0.45-0.19,0.72-0.19
		c0.38,0,0.68,0.1,0.91,0.3c0.23,0.2,0.36,0.49,0.4,0.85h-0.67c-0.02-0.21-0.08-0.36-0.18-0.46c-0.1-0.1-0.25-0.14-0.46-0.14
		c-0.22,0-0.39,0.08-0.5,0.24c-0.11,0.16-0.17,0.41-0.17,0.75v0.25c0,0.35,0.05,0.61,0.16,0.78c0.11,0.16,0.28,0.24,0.51,0.24
		c0.21,0,0.36-0.05,0.47-0.14s0.16-0.24,0.18-0.44H267.92z"/>
	<path class="st1" d="M269,20.37h-0.65v-3.45H269V20.37z"/>
	<path class="st1" d="M269.53,17.31c0-0.1,0.03-0.18,0.1-0.24s0.15-0.09,0.27-0.09c0.11,0,0.2,0.03,0.26,0.09s0.1,0.14,0.1,0.24
		c0,0.1-0.03,0.18-0.1,0.24s-0.15,0.09-0.26,0.09s-0.2-0.03-0.26-0.09C269.57,17.49,269.53,17.41,269.53,17.31z M270.22,20.37h-0.65
		v-2.43h0.65V20.37z"/>
	<path class="st1" d="M271.77,19.9c0.12,0,0.22-0.03,0.29-0.1c0.07-0.07,0.11-0.15,0.12-0.26h0.61c0,0.17-0.05,0.32-0.13,0.45
		c-0.09,0.14-0.21,0.24-0.36,0.32s-0.32,0.11-0.51,0.11c-0.35,0-0.62-0.11-0.82-0.33c-0.2-0.22-0.3-0.53-0.3-0.92v-0.04
		c0-0.37,0.1-0.67,0.3-0.9s0.47-0.33,0.82-0.33c0.3,0,0.55,0.09,0.73,0.26s0.28,0.4,0.28,0.69h-0.61c0-0.13-0.04-0.23-0.12-0.31
		c-0.08-0.08-0.17-0.12-0.3-0.12c-0.15,0-0.27,0.06-0.34,0.17s-0.12,0.29-0.12,0.54v0.07c0,0.25,0.04,0.43,0.11,0.54
		S271.61,19.9,271.77,19.9z"/>
	<path class="st1" d="M274.04,19.4l-0.23,0.23v0.74h-0.65v-3.45h0.65v1.91l0.13-0.16l0.62-0.73h0.78l-0.88,1.01l0.95,1.42h-0.75
		L274.04,19.4z"/>
	<path class="st1" d="M277.54,17.35v0.6h0.42v0.48h-0.42v1.21c0,0.09,0.02,0.15,0.05,0.19c0.04,0.04,0.1,0.06,0.2,0.06
		c0.07,0,0.13-0.01,0.19-0.02v0.49c-0.13,0.04-0.26,0.06-0.39,0.06c-0.46,0-0.69-0.23-0.7-0.69v-1.31h-0.36v-0.48h0.36v-0.6H277.54z
		"/>
	<path class="st1" d="M278.15,19.14c0-0.24,0.05-0.46,0.14-0.64s0.23-0.33,0.4-0.44c0.17-0.1,0.38-0.15,0.61-0.15
		c0.33,0,0.6,0.1,0.8,0.3c0.21,0.2,0.32,0.47,0.35,0.82l0,0.17c0,0.37-0.1,0.67-0.31,0.9c-0.21,0.23-0.49,0.34-0.84,0.34
		c-0.35,0-0.63-0.11-0.84-0.34c-0.21-0.22-0.31-0.53-0.31-0.92V19.14z M278.79,19.18c0,0.23,0.04,0.41,0.13,0.53
		c0.09,0.12,0.21,0.18,0.37,0.18c0.16,0,0.28-0.06,0.37-0.18c0.09-0.12,0.13-0.31,0.13-0.58c0-0.23-0.04-0.4-0.13-0.53
		c-0.09-0.12-0.21-0.19-0.37-0.19c-0.16,0-0.28,0.06-0.37,0.19C278.84,18.73,278.79,18.92,278.79,19.18z"/>
	<path class="st1" d="M282.68,20.37h-0.65v-3.45h0.65V20.37z"/>
	<path class="st1" d="M284.33,20.42c-0.36,0-0.65-0.11-0.87-0.33c-0.22-0.22-0.34-0.51-0.34-0.87v-0.06c0-0.24,0.05-0.46,0.14-0.65
		c0.09-0.19,0.23-0.34,0.4-0.44s0.37-0.16,0.59-0.16c0.33,0,0.59,0.1,0.79,0.31c0.19,0.21,0.29,0.51,0.29,0.89v0.27h-1.55
		c0.02,0.16,0.08,0.29,0.19,0.38c0.11,0.1,0.24,0.14,0.4,0.14c0.25,0,0.45-0.09,0.59-0.27l0.32,0.36c-0.1,0.14-0.23,0.25-0.4,0.32
		C284.72,20.38,284.54,20.42,284.33,20.42z M284.26,18.42c-0.13,0-0.23,0.04-0.31,0.13c-0.08,0.09-0.13,0.21-0.15,0.37h0.9v-0.05
		c0-0.14-0.04-0.26-0.12-0.33C284.5,18.46,284.4,18.42,284.26,18.42z"/>
	<path class="st1" d="M287.11,20.37c-0.03-0.06-0.05-0.13-0.06-0.22c-0.16,0.18-0.36,0.26-0.61,0.26c-0.24,0-0.44-0.07-0.59-0.21
		c-0.16-0.14-0.24-0.31-0.24-0.52c0-0.26,0.1-0.46,0.29-0.59c0.19-0.14,0.47-0.21,0.83-0.21h0.3v-0.14c0-0.11-0.03-0.2-0.09-0.27
		s-0.15-0.1-0.27-0.1c-0.11,0-0.2,0.03-0.26,0.08c-0.06,0.05-0.09,0.12-0.09,0.22h-0.65c0-0.14,0.04-0.27,0.13-0.39
		c0.09-0.12,0.21-0.21,0.37-0.28c0.16-0.07,0.34-0.1,0.53-0.1c0.3,0,0.54,0.08,0.71,0.23s0.26,0.36,0.26,0.63v1.05
		c0,0.23,0.03,0.41,0.1,0.52v0.04H287.11z M286.57,19.92c0.1,0,0.18-0.02,0.26-0.06c0.08-0.04,0.14-0.1,0.18-0.17v-0.42h-0.24
		c-0.33,0-0.5,0.11-0.52,0.34l0,0.04c0,0.08,0.03,0.15,0.08,0.2C286.4,19.9,286.47,19.92,286.57,19.92z"/>
	<path class="st1" d="M289.53,18.55c-0.09-0.01-0.17-0.02-0.23-0.02c-0.25,0-0.41,0.08-0.48,0.25v1.59h-0.65v-2.43h0.61l0.02,0.29
		c0.13-0.22,0.31-0.33,0.54-0.33c0.07,0,0.14,0.01,0.2,0.03L289.53,18.55z"/>
	<path class="st1" d="M290.44,17.94l0.02,0.28c0.17-0.22,0.41-0.33,0.7-0.33c0.26,0,0.45,0.08,0.58,0.23s0.19,0.38,0.19,0.68v1.57
		h-0.65v-1.55c0-0.14-0.03-0.24-0.09-0.3c-0.06-0.06-0.16-0.09-0.3-0.09c-0.18,0-0.32,0.08-0.41,0.23v1.71h-0.65v-2.43H290.44z"/>
	<path class="st1" d="M294.17,17.94l0.02,0.27c0.17-0.21,0.41-0.32,0.7-0.32c0.31,0,0.53,0.12,0.65,0.37
		c0.17-0.25,0.41-0.37,0.73-0.37c0.26,0,0.46,0.08,0.59,0.23s0.19,0.38,0.19,0.69v1.55h-0.65v-1.55c0-0.14-0.03-0.24-0.08-0.3
		s-0.15-0.1-0.29-0.1c-0.2,0-0.33,0.09-0.4,0.28l0,1.67h-0.65v-1.55c0-0.14-0.03-0.24-0.08-0.31s-0.15-0.09-0.28-0.09
		c-0.18,0-0.32,0.08-0.4,0.23v1.72h-0.65v-2.43H294.17z"/>
	<path class="st1" d="M297.45,19.14c0-0.24,0.05-0.46,0.14-0.64s0.23-0.33,0.4-0.44c0.17-0.1,0.38-0.15,0.61-0.15
		c0.33,0,0.6,0.1,0.8,0.3c0.21,0.2,0.32,0.47,0.35,0.82l0,0.17c0,0.37-0.1,0.67-0.31,0.9c-0.21,0.23-0.49,0.34-0.84,0.34
		c-0.35,0-0.63-0.11-0.84-0.34c-0.21-0.22-0.31-0.53-0.31-0.92V19.14z M298.1,19.18c0,0.23,0.04,0.41,0.13,0.53
		c0.09,0.12,0.21,0.18,0.37,0.18c0.16,0,0.28-0.06,0.37-0.18c0.09-0.12,0.13-0.31,0.13-0.58c0-0.23-0.04-0.4-0.13-0.53
		c-0.09-0.12-0.21-0.19-0.37-0.19c-0.16,0-0.28,0.06-0.37,0.19C298.14,18.73,298.1,18.92,298.1,19.18z"/>
	<path class="st1" d="M301.52,18.55c-0.09-0.01-0.17-0.02-0.23-0.02c-0.25,0-0.41,0.08-0.48,0.25v1.59h-0.65v-2.43h0.61l0.02,0.29
		c0.13-0.22,0.31-0.33,0.54-0.33c0.07,0,0.14,0.01,0.2,0.03L301.52,18.55z"/>
	<path class="st1" d="M302.95,20.42c-0.36,0-0.65-0.11-0.87-0.33c-0.22-0.22-0.34-0.51-0.34-0.87v-0.06c0-0.24,0.05-0.46,0.14-0.65
		c0.09-0.19,0.23-0.34,0.4-0.44s0.37-0.16,0.59-0.16c0.33,0,0.59,0.1,0.79,0.31c0.19,0.21,0.29,0.51,0.29,0.89v0.27h-1.55
		c0.02,0.16,0.08,0.29,0.19,0.38c0.11,0.1,0.24,0.14,0.4,0.14c0.25,0,0.45-0.09,0.59-0.27l0.32,0.36c-0.1,0.14-0.23,0.25-0.4,0.32
		C303.33,20.38,303.15,20.42,302.95,20.42z M302.87,18.42c-0.13,0-0.23,0.04-0.31,0.13c-0.08,0.09-0.13,0.21-0.15,0.37h0.9v-0.05
		c0-0.14-0.04-0.26-0.12-0.33C303.12,18.46,303.01,18.42,302.87,18.42z"/>
</g>
</svg>
