<svg id="Layer_1" xmlns="http://www.w3.org/2000/svg" viewBox="0 0 970 250"><style>.st0{fill:#fff}.st1{fill:#edf4fd}</style><path class="st0" d="M344.3 196.5c0-.3-.1-.6-.3-.7-.2-.2-.6-.3-1.2-.5s-1-.4-1.4-.6c-.6-.4-1-.9-1-1.6 0-.6.2-1 .7-1.4.5-.4 1.1-.6 1.8-.6.5 0 .9.1 1.3.3.4.2.7.4.9.8s.3.7.3 1.1h-1.2c0-.4-.1-.7-.3-.9-.2-.2-.6-.3-1-.3s-.7.1-.9.3c-.2.2-.3.4-.3.7 0 .3.1.5.4.7.2.2.6.3 1.2.5s1 .4 1.3.6.6.5.7.7c.2.3.2.6.2 1 0 .6-.2 1.1-.7 1.4-.5.4-1.1.5-1.8.5-.5 0-1-.1-1.4-.3-.4-.2-.8-.5-1-.8-.2-.3-.4-.7-.4-1.2h1.2c0 .4.1.7.4.9.3.2.6.3 1.1.3.4 0 .8-.1 1-.3.3-.1.4-.3.4-.6zM346.3 195.7c0-.5.1-1 .3-1.4s.5-.7.9-1c.4-.2.8-.3 1.3-.3.7 0 1.3.2 1.7.7.4.5.7 1.1.7 1.8v.3c0 .5-.1 1-.3 1.4-.2.4-.5.7-.9 1-.4.2-.8.3-1.3.3-.7 0-1.3-.2-1.8-.7-.4-.6-.6-1.2-.6-2.1zm1.2.1c0 .5.1 1 .3 1.3s.5.5.9.5.7-.2.9-.5c.2-.3.3-.8.3-1.4 0-.5-.1-1-.3-1.3-.2-.3-.5-.5-.9-.5s-.7.2-.9.5-.3.8-.3 1.4zM355.4 197.8c-.3.4-.8.6-1.5.6-.6 0-1-.2-1.3-.5-.3-.3-.4-.8-.4-1.5V193h1.2v3.4c0 .7.3 1 .8 1 .6 0 1-.2 1.2-.6V193h1.2v5.3h-1.1l-.1-.5zM360.5 194.2h-.5c-.5 0-.9.2-1.1.6v3.6h-1.2v-5.3h1.1v.6c.3-.5.7-.7 1.2-.7.2 0 .3 0 .4.1l.1 1.1zM363.4 197.5c.3 0 .5-.1.7-.3.2-.2.3-.4.3-.6h1.1c0 .3-.1.6-.3.9-.2.3-.5.5-.8.7s-.7.2-1.1.2c-.7 0-1.3-.2-1.8-.7s-.6-1.1-.6-2v-.1c0-.8.2-1.4.6-1.9s1-.7 1.8-.7c.6 0 1.1.2 1.5.5.4.4.6.8.6 1.4h-1.1c0-.3-.1-.6-.3-.7-.2-.2-.4-.3-.7-.3-.4 0-.7.1-.9.4s-.3.7-.3 1.3v.2c0 .6.1 1 .3 1.3.3.3.6.4 1 .4zM368.7 198.5c-.8 0-1.4-.2-1.8-.7-.5-.5-.7-1.1-.7-1.9v-.1c0-.5.1-1 .3-1.4.2-.4.5-.7.9-1 .4-.2.8-.3 1.2-.3.7 0 1.3.2 1.7.7.4.5.6 1.1.6 1.9v.5h-3.5c0 .4.2.8.4 1 .3.3.6.4 1 .4.5 0 1-.2 1.3-.7l.6.6c-.2.3-.5.6-.8.7-.3.2-.7.3-1.2.3zm-.1-4.6c-.3 0-.6.1-.8.3-.2.2-.3.5-.4 1h2.3v-.1c0-.4-.1-.7-.3-.9-.2-.2-.5-.3-.8-.3zM372.5 193c.2 0 .4.1.5.2.1.1.2.3.2.5s-.1.3-.2.5-.3.2-.5.2-.4-.1-.5-.2c-.1-.1-.2-.3-.2-.5s.1-.3.2-.5.3-.2.5-.2zm0 4.1c.2 0 .4.1.5.2.1.1.2.3.2.5s-.1.3-.2.5-.3.2-.5.2-.4-.1-.5-.2c-.1-.1-.2-.3-.2-.5s.1-.3.2-.5c.1-.1.3-.2.5-.2zM377.8 193.7c.4-.5.9-.7 1.6-.7 1.1 0 1.7.6 1.7 1.9v3.5h-.9v-3.5c0-.4-.1-.7-.3-.8-.2-.2-.4-.3-.8-.3-.3 0-.5.1-.8.2s-.4.4-.5.6v3.8h-.9v-7.5h.9v2.8zM383.7 191.8v1.3h1v.7h-1v3.3c0 .2 0 .4.1.5.1.1.2.2.4.2.1 0 .2 0 .4-.1v.7c-.2.1-.5.1-.7.1-.4 0-.7-.1-.9-.4s-.3-.6-.3-1v-3.3h-1v-.7h1v-1.3h1zM386.9 191.8v1.3h1v.7h-1v3.3c0 .2 0 .4.1.5.1.1.2.2.4.2.1 0 .2 0 .4-.1v.7c-.2.1-.5.1-.7.1-.4 0-.7-.1-.9-.4s-.3-.6-.3-1v-3.3h-1v-.7h1v-1.3h1zM393.4 195.8c0 .8-.2 1.5-.6 1.9-.4.5-.9.7-1.5.7s-1.1-.2-1.5-.6v2.5h-.8V193h.8v.6c.4-.5.9-.7 1.5-.7s1.1.2 1.5.7c.5.6.6 1.2.6 2.2zm-.9-.1c0-.6-.1-1.1-.4-1.4-.3-.3-.6-.5-1-.5-.5 0-1 .2-1.2.7v2.5c.3.5.7.7 1.2.7.4 0 .8-.2 1-.5.3-.3.4-.8.4-1.5zM397.7 197c0-.2-.1-.4-.3-.6-.2-.1-.5-.3-1-.3-.5-.1-.8-.2-1.1-.4-.3-.1-.5-.3-.6-.5-.1-.2-.2-.4-.2-.7 0-.4.2-.8.5-1.1.4-.3.8-.4 1.4-.4.6 0 1.1.2 1.5.5.4.3.6.7.6 1.2h-.9c0-.2-.1-.5-.3-.6-.2-.2-.5-.3-.8-.3-.3 0-.6.1-.8.2-.2.1-.3.3-.3.6 0 .2.1.4.3.5.2.1.5.2.9.3.5.1.8.2 1.1.4.3.1.5.3.6.5.1.2.2.4.2.7 0 .5-.2.9-.6 1.1-.4.3-.9.4-1.5.4-.4 0-.8-.1-1.1-.2-.3-.2-.6-.4-.8-.6-.2-.3-.3-.6-.3-.9h.9c0 .3.1.5.4.7.2.2.5.3.9.3.3 0 .6-.1.8-.2.4-.2.5-.4.5-.6zM399.7 197.9c0-.2 0-.3.1-.4.1-.1.2-.2.4-.2s.3.1.4.2c.1.1.1.2.1.4 0 .1 0 .3-.1.4-.1.1-.2.2-.4.2s-.3-.1-.4-.2c0-.1-.1-.3-.1-.4zm0-4.3c0-.2 0-.3.1-.4.1-.1.2-.2.4-.2s.3.1.4.2c.1.1.1.2.1.4 0 .1 0 .3-.1.4-.1.1-.2.2-.4.2s-.3-.1-.4-.2c0-.2-.1-.3-.1-.4zM402.4 199h-.8l3-7.7h.8l-3 7.7zM405.4 199h-.8l3-7.7h.8l-3 7.7zM414 197.1l1-4h.9l-1.5 5.3h-.7l-1.3-4-1.2 4h-.7l-1.5-5.3h.9l1 4 1.2-4h.7l1.2 4zM421.5 197.1l1-4h.9l-1.5 5.3h-.7l-1.3-4-1.2 4h-.7l-1.5-5.3h.9l1 4 1.2-4h.7l1.2 4zM429 197.1l1-4h.9l-1.5 5.3h-.7l-1.3-4-1.2 4h-.7l-1.5-5.3h.9l1 4 1.2-4h.7l1.2 4zM431.3 197.9c0-.2 0-.3.1-.4.1-.1.2-.2.4-.2s.3.1.4.2c.1.1.1.2.1.4 0 .1 0 .3-.1.4-.1.1-.2.2-.4.2s-.3-.1-.4-.2c-.1-.1-.1-.3-.1-.4zM434.3 198.4v-4.6h-.8v-.7h.8v-.5c0-.6.2-1 .5-1.3.3-.3.7-.5 1.3-.5.2 0 .4 0 .6.1v.7h-.5c-.3 0-.5.1-.7.3-.2.2-.2.4-.2.7v.6h1.1v.7h-1.1v4.6h-1zM438.6 191.8v1.3h1v.7h-1v3.3c0 .2 0 .4.1.5.1.1.2.2.4.2.1 0 .2 0 .4-.1v.7c-.2.1-.5.1-.7.1-.4 0-.7-.1-.9-.4s-.3-.6-.3-1v-3.3h-1v-.7h1v-1.3h1zM442.7 197.7c.3 0 .6-.1.8-.3s.4-.4.4-.7h.9c0 .3-.1.6-.3.9s-.4.5-.8.7c-.3.2-.7.2-1 .2-.7 0-1.3-.2-1.7-.7-.4-.5-.6-1.1-.6-2v-.2c0-.5.1-1 .3-1.4s.5-.7.8-.9c.4-.2.8-.3 1.3-.3.6 0 1.1.2 1.5.5.4.4.6.8.6 1.4h-.9c0-.3-.2-.6-.4-.8-.2-.2-.5-.3-.9-.3-.5 0-.8.2-1.1.5-.3.3-.4.8-.4 1.4v.2c0 .6.1 1.1.4 1.4.3.3.7.4 1.1.4zM445.9 197.9c0-.2 0-.3.1-.4.1-.1.2-.2.4-.2s.3.1.4.2c.1.1.1.2.1.4 0 .1 0 .3-.1.4-.1.1-.2.2-.4.2s-.3-.1-.4-.2c-.1-.1-.1-.3-.1-.4zM448.3 195.7c0-.8.2-1.5.6-2 .4-.5.9-.7 1.5-.7s1.1.2 1.5.7v-.6h.8v5.2c0 .7-.2 1.2-.6 1.6-.4.4-1 .6-1.6.6-.4 0-.8-.1-1.1-.2-.4-.2-.6-.4-.8-.7l.5-.5c.4.5.9.7 1.4.7.4 0 .8-.1 1-.4.2-.2.4-.6.4-1v-.5c-.4.4-.9.6-1.5.6s-1.1-.2-1.5-.7c-.4-.6-.6-1.3-.6-2.1zm.9.1c0 .6.1 1.1.4 1.4.2.3.6.5 1 .5.6 0 1-.3 1.3-.8v-2.4c-.3-.5-.7-.8-1.2-.8-.4 0-.8.2-1 .5s-.5.9-.5 1.6zM453.9 195.7c0-.5.1-1 .3-1.4.2-.4.5-.7.8-1 .4-.2.8-.3 1.2-.3.7 0 1.3.2 1.7.7.4.5.7 1.2.7 2v.1c0 .5-.1 1-.3 1.4-.2.4-.5.7-.8 1-.4.2-.8.3-1.3.3-.7 0-1.3-.2-1.7-.7-.4-.6-.6-1.2-.6-2.1zm.9.1c0 .6.1 1.1.4 1.4.3.4.6.5 1.1.5.5 0 .8-.2 1.1-.5.3-.4.4-.9.4-1.5s-.1-1-.4-1.4c-.3-.4-.6-.5-1.1-.5-.4 0-.8.2-1.1.5-.3.3-.4.8-.4 1.5zM461.5 197.1l1.3-4.1h.9l-1.9 5.3h-.7l-1.9-5.3h.9l1.4 4.1zM464.8 199h-.8l3-7.7h.8l-3 7.7zM469.6 193.1v.7c.4-.5.9-.8 1.6-.8 1.1 0 1.7.6 1.7 1.9v3.5h-.9v-3.5c0-.4-.1-.7-.3-.8-.2-.2-.4-.3-.8-.3-.3 0-.5.1-.8.2s-.4.4-.5.6v3.8h-.9v-5.3h.9zM476.4 198.5c-.7 0-1.3-.2-1.7-.7-.4-.5-.7-1.1-.7-1.9v-.2c0-.5.1-1 .3-1.4.2-.4.5-.7.8-1 .4-.2.8-.3 1.2-.3.7 0 1.2.2 1.6.7.4.5.6 1.1.6 1.9v.4h-3.6c0 .5.2.9.5 1.3.3.3.7.5 1.1.5.3 0 .6-.1.8-.2.2-.1.4-.3.6-.5l.6.4c-.5.6-1.2 1-2.1 1zm-.1-4.8c-.4 0-.7.1-.9.4-.2.3-.4.6-.5 1.1h2.6v-.1c0-.5-.1-.8-.4-1.1-.1-.2-.4-.3-.8-.3zM484.2 197.1l1-4h.9l-1.5 5.3h-.7l-1.3-4-1.2 4h-.7l-1.5-5.3h.9l1 4 1.2-4h.7l1.2 4zM490.1 197c0-.2-.1-.4-.3-.6-.2-.1-.5-.3-1-.3-.5-.1-.8-.2-1.1-.4-.3-.1-.5-.3-.6-.5-.1-.2-.2-.4-.2-.7 0-.4.2-.8.5-1.1.4-.3.8-.4 1.4-.4.6 0 1.1.2 1.5.5.4.3.6.7.6 1.2h-.9c0-.2-.1-.5-.3-.6-.2-.2-.5-.3-.8-.3-.3 0-.6.1-.8.2-.2.1-.3.3-.3.6 0 .2.1.4.3.5.2.1.5.2.9.3.5.1.8.2 1.1.4.3.1.5.3.6.5.1.2.2.4.2.7 0 .5-.2.9-.6 1.1-.4.3-.9.4-1.5.4-.4 0-.8-.1-1.1-.2-.3-.2-.6-.4-.8-.6-.2-.3-.3-.6-.3-.9h.9c0 .3.1.5.4.7.2.2.5.3.9.3.3 0 .6-.1.8-.2.4-.2.5-.4.5-.6zM494.1 195.7h-2.4v-.7h2.4v.7zM497.1 198.5c-.7 0-1.3-.2-1.7-.7-.4-.5-.7-1.1-.7-1.9v-.2c0-.5.1-1 .3-1.4.2-.4.5-.7.8-1 .4-.2.8-.3 1.2-.3.7 0 1.2.2 1.6.7.4.5.6 1.1.6 1.9v.4h-3.6c0 .5.2.9.5 1.3.3.3.7.5 1.1.5.3 0 .6-.1.8-.2.2-.1.4-.3.6-.5l.6.4c-.5.6-1.2 1-2.1 1zm-.1-4.8c-.4 0-.7.1-.9.4-.2.3-.4.6-.5 1.1h2.6v-.1c0-.5-.1-.8-.4-1.1-.1-.2-.4-.3-.8-.3zM501.9 197.1l1.3-4.1h.9l-1.9 5.3h-.7l-1.9-5.3h.9l1.4 4.1zM507.2 198.5c-.7 0-1.3-.2-1.7-.7-.4-.5-.7-1.1-.7-1.9v-.2c0-.5.1-1 .3-1.4.2-.4.5-.7.8-1 .4-.2.8-.3 1.2-.3.7 0 1.2.2 1.6.7.4.5.6 1.1.6 1.9v.4h-3.6c0 .5.2.9.5 1.3.3.3.7.5 1.1.5.3 0 .6-.1.8-.2.2-.1.4-.3.6-.5l.6.4c-.6.6-1.3 1-2.1 1zm-.2-4.8c-.4 0-.7.1-.9.4-.2.3-.4.6-.5 1.1h2.6v-.1c0-.5-.1-.8-.4-1.1-.1-.2-.4-.3-.8-.3zM511.1 193.1v.7c.4-.5.9-.8 1.6-.8 1.1 0 1.7.6 1.7 1.9v3.5h-.9v-3.5c0-.4-.1-.7-.3-.8-.2-.2-.4-.3-.8-.3-.3 0-.5.1-.8.2s-.4.4-.5.6v3.8h-.9v-5.3h.9zM517 191.8v1.3h1v.7h-1v3.3c0 .2 0 .4.1.5.1.1.2.2.4.2.1 0 .2 0 .4-.1v.7c-.2.1-.5.1-.7.1-.4 0-.7-.1-.9-.4s-.3-.6-.3-1v-3.3h-1v-.7h1v-1.3h1zM522.1 197c0-.2-.1-.4-.3-.6-.2-.1-.5-.3-1-.3-.5-.1-.8-.2-1.1-.4-.3-.1-.5-.3-.6-.5-.1-.2-.2-.4-.2-.7 0-.4.2-.8.5-1.1.4-.3.8-.4 1.4-.4.6 0 1.1.2 1.5.5.4.3.6.7.6 1.2h-.9c0-.2-.1-.5-.3-.6-.2-.2-.5-.3-.8-.3-.3 0-.6.1-.8.2-.2.1-.3.3-.3.6 0 .2.1.4.3.5.2.1.5.2.9.3.5.1.8.2 1.1.4.3.1.5.3.6.5.1.2.2.4.2.7 0 .5-.2.9-.6 1.1-.4.3-.9.4-1.5.4-.4 0-.8-.1-1.1-.2-.3-.2-.6-.4-.8-.6-.2-.3-.3-.6-.3-.9h.9c0 .3.1.5.4.7.2.2.5.3.9.3.3 0 .6-.1.8-.2.4-.2.5-.4.5-.6zM524.4 199h-.8l3-7.7h.8l-3 7.7zM529.2 193.1v.7c.4-.5.9-.8 1.6-.8 1.1 0 1.7.6 1.7 1.9v3.5h-.9v-3.5c0-.4-.1-.7-.3-.8-.2-.2-.4-.3-.8-.3-.3 0-.5.1-.8.2s-.4.4-.5.6v3.8h-.9v-5.3h.9zM536 198.5c-.7 0-1.3-.2-1.7-.7-.4-.5-.7-1.1-.7-1.9v-.2c0-.5.1-1 .3-1.4.2-.4.5-.7.8-1 .4-.2.8-.3 1.2-.3.7 0 1.2.2 1.6.7.4.5.6 1.1.6 1.9v.4h-3.6c0 .5.2.9.5 1.3.3.3.7.5 1.1.5.3 0 .6-.1.8-.2.2-.1.4-.3.6-.5l.6.4c-.5.6-1.2 1-2.1 1zm-.1-4.8c-.4 0-.7.1-.9.4-.2.3-.4.6-.5 1.1h2.6v-.1c0-.5-.1-.8-.4-1.1-.1-.2-.4-.3-.8-.3zM543.8 197.1l1-4h.9l-1.5 5.3h-.7l-1.3-4-1.2 4h-.7l-1.5-5.3h.9l1 4 1.2-4h.7l1.2 4zM549.7 197c0-.2-.1-.4-.3-.6-.2-.1-.5-.3-1-.3-.5-.1-.8-.2-1.1-.4-.3-.1-.5-.3-.6-.5-.1-.2-.2-.4-.2-.7 0-.4.2-.8.5-1.1.4-.3.8-.4 1.4-.4.6 0 1.1.2 1.5.5.4.3.6.7.6 1.2h-.9c0-.2-.1-.5-.3-.6-.2-.2-.5-.3-.8-.3-.3 0-.6.1-.8.2-.2.1-.3.3-.3.6 0 .2.1.4.3.5.2.1.5.2.9.3.5.1.8.2 1.1.4.3.1.5.3.6.5.1.2.2.4.2.7 0 .5-.2.9-.6 1.1-.4.3-.9.4-1.5.4-.4 0-.8-.1-1.1-.2-.3-.2-.6-.4-.8-.6-.2-.3-.3-.6-.3-.9h.9c0 .3.1.5.4.7.2.2.5.3.9.3.3 0 .6-.1.8-.2.4-.2.5-.4.5-.6zM552 199h-.8l3-7.7h.8l-3 7.7zM560.4 195.8c0 .8-.2 1.5-.6 1.9-.4.5-.9.7-1.5.7s-1.1-.2-1.5-.6v2.5h-.9V193h.8v.6c.4-.5.9-.7 1.5-.7s1.1.2 1.5.7c.5.6.7 1.2.7 2.2zm-.9-.1c0-.6-.1-1.1-.4-1.4-.3-.3-.6-.5-1-.5-.5 0-1 .2-1.2.7v2.5c.3.5.7.7 1.2.7.4 0 .8-.2 1-.5.3-.3.4-.8.4-1.5zM564.1 193.9h-.4c-.6 0-1 .3-1.2.8v3.8h-.9v-5.3h.9v.6c.3-.5.7-.7 1.3-.7.2 0 .3 0 .4.1v.7zM567 198.5c-.7 0-1.3-.2-1.7-.7-.4-.5-.7-1.1-.7-1.9v-.2c0-.5.1-1 .3-1.4.2-.4.5-.7.8-1 .4-.2.8-.3 1.2-.3.7 0 1.2.2 1.6.7.4.5.6 1.1.6 1.9v.4h-3.6c0 .5.2.9.5 1.3.3.3.7.5 1.1.5.3 0 .6-.1.8-.2.2-.1.4-.3.6-.5l.6.4c-.5.6-1.2 1-2.1 1zm-.1-4.8c-.4 0-.7.1-.9.4-.2.3-.4.6-.5 1.1h2.6v-.1c0-.5-.1-.8-.4-1.1-.1-.2-.4-.3-.8-.3zM573.2 197c0-.2-.1-.4-.3-.6-.2-.1-.5-.3-1-.3-.5-.1-.8-.2-1.1-.4-.3-.1-.5-.3-.6-.5-.1-.2-.2-.4-.2-.7 0-.4.2-.8.5-1.1.4-.3.8-.4 1.4-.4.6 0 1.1.2 1.5.5.4.3.6.7.6 1.2h-.9c0-.2-.1-.5-.3-.6-.2-.2-.5-.3-.8-.3-.3 0-.6.1-.8.2-.2.1-.3.3-.3.6 0 .2.1.4.3.5.2.1.5.2.9.3.5.1.8.2 1.1.4.3.1.5.3.6.5.1.2.2.4.2.7 0 .5-.2.9-.6 1.1-.4.3-.9.4-1.5.4-.4 0-.8-.1-1.1-.2-.3-.2-.6-.4-.8-.6-.2-.3-.3-.6-.3-.9h.9c0 .3.1.5.4.7.2.2.5.3.9.3.3 0 .6-.1.8-.2.4-.2.5-.4.5-.6zM578.4 197c0-.2-.1-.4-.3-.6-.2-.1-.5-.3-1-.3-.5-.1-.8-.2-1.1-.4-.3-.1-.5-.3-.6-.5-.1-.2-.2-.4-.2-.7 0-.4.2-.8.5-1.1.4-.3.8-.4 1.4-.4.6 0 1.1.2 1.5.5.4.3.6.7.6 1.2h-.9c0-.2-.1-.5-.3-.6-.2-.2-.5-.3-.8-.3-.3 0-.6.1-.8.2-.2.1-.3.3-.3.6 0 .2.1.4.3.5.2.1.5.2.9.3.5.1.8.2 1.1.4.3.1.5.3.6.5.1.2.2.4.2.7 0 .5-.2.9-.6 1.1-.4.3-.9.4-1.5.4-.4 0-.8-.1-1.1-.2-.3-.2-.6-.4-.8-.6-.2-.3-.3-.6-.3-.9h.9c0 .3.1.5.4.7.2.2.5.3.9.3.3 0 .6-.1.8-.2.4-.2.5-.4.5-.6zM582.3 195.7h-2.4v-.7h2.4v.7zM585.8 193.9h-.4c-.6 0-1 .3-1.2.8v3.8h-.9v-5.3h.9v.6c.3-.5.7-.7 1.3-.7.2 0 .3 0 .4.1v.7zM588.7 198.5c-.7 0-1.3-.2-1.7-.7-.4-.5-.7-1.1-.7-1.9v-.2c0-.5.1-1 .3-1.4.2-.4.5-.7.8-1 .4-.2.8-.3 1.2-.3.7 0 1.2.2 1.6.7.4.5.6 1.1.6 1.9v.4h-3.6c0 .5.2.9.5 1.3.3.3.7.5 1.1.5.3 0 .6-.1.8-.2.2-.1.4-.3.6-.5l.6.4c-.6.6-1.2 1-2.1 1zm-.1-4.8c-.4 0-.7.1-.9.4-.2.3-.4.6-.5 1.1h2.6v-.1c0-.5-.1-.8-.4-1.1-.2-.2-.5-.3-.8-.3zM592.8 198.4h-.9v-7.5h.9v7.5zM596.4 198.5c-.7 0-1.3-.2-1.7-.7-.4-.5-.7-1.1-.7-1.9v-.2c0-.5.1-1 .3-1.4.2-.4.5-.7.8-1 .4-.2.8-.3 1.2-.3.7 0 1.2.2 1.6.7.4.5.6 1.1.6 1.9v.4h-3.6c0 .5.2.9.5 1.3.3.3.7.5 1.1.5.3 0 .6-.1.8-.2.2-.1.4-.3.6-.5l.6.4c-.5.6-1.2 1-2.1 1zm-.1-4.8c-.4 0-.7.1-.9.4-.2.3-.4.6-.5 1.1h2.6v-.1c0-.5-.1-.8-.4-1.1-.1-.2-.4-.3-.8-.3zM602.8 198.4c-.1-.1-.1-.3-.1-.6-.4.4-.9.7-1.5.7-.5 0-.9-.1-1.3-.4-.3-.3-.5-.7-.5-1.1 0-.6.2-1 .6-1.3.4-.3 1-.5 1.8-.5h.9v-.4c0-.3-.1-.6-.3-.8-.2-.2-.5-.3-.8-.3-.3 0-.6.1-.8.2-.2.2-.3.4-.3.6h-.9c0-.3.1-.5.3-.8.2-.2.4-.4.8-.6.3-.1.7-.2 1.1-.2.6 0 1.1.2 1.4.5.3.3.5.7.5 1.3v2.4c0 .5.1.9.2 1.2v.1h-1.1zm-1.5-.7c.3 0 .6-.1.8-.2s.4-.3.6-.6v-1.1h-.7c-1.1 0-1.7.3-1.7 1 0 .3.1.5.3.7.1.1.4.2.7.2zM608 197c0-.2-.1-.4-.3-.6-.2-.1-.5-.3-1-.3-.5-.1-.8-.2-1.1-.4-.3-.1-.5-.3-.6-.5-.1-.2-.2-.4-.2-.7 0-.4.2-.8.5-1.1.4-.3.8-.4 1.4-.4.6 0 1.1.2 1.5.5.4.3.6.7.6 1.2h-.8c0-.2-.1-.5-.3-.6-.2-.2-.5-.3-.8-.3-.3 0-.6.1-.8.2-.2.1-.3.3-.3.6 0 .2.1.4.3.5.2.1.5.2.9.3.5.1.8.2 1.1.4.3.1.5.3.6.5.1.2.2.4.2.7 0 .5-.2.9-.6 1.1-.4.3-.9.4-1.5.4-.4 0-.8-.1-1.1-.2-.3-.2-.6-.4-.8-.6-.2-.3-.3-.6-.3-.9h.9c0 .3.1.5.4.7.2.2.5.3.9.3.3 0 .6-.1.8-.2.3-.2.4-.4.4-.6zM612.3 198.5c-.7 0-1.3-.2-1.7-.7-.4-.5-.7-1.1-.7-1.9v-.2c0-.5.1-1 .3-1.4.2-.4.5-.7.8-1 .4-.2.8-.3 1.2-.3.7 0 1.2.2 1.6.7.4.5.6 1.1.6 1.9v.4h-3.6c0 .5.2.9.5 1.3.3.3.7.5 1.1.5.3 0 .6-.1.8-.2.2-.1.4-.3.6-.5l.6.4c-.5.6-1.2 1-2.1 1zm-.1-4.8c-.4 0-.7.1-.9.4-.2.3-.4.6-.5 1.1h2.6v-.1c0-.5-.1-.8-.4-1.1-.1-.2-.4-.3-.8-.3zM618.5 197c0-.2-.1-.4-.3-.6-.2-.1-.5-.3-1-.3-.5-.1-.8-.2-1.1-.4-.3-.1-.5-.3-.6-.5-.1-.2-.2-.4-.2-.7 0-.4.2-.8.5-1.1.4-.3.8-.4 1.4-.4.6 0 1.1.2 1.5.5.4.3.6.7.6 1.2h-.9c0-.2-.1-.5-.3-.6-.2-.2-.5-.3-.8-.3-.3 0-.6.1-.8.2-.2.1-.3.3-.3.6 0 .2.1.4.3.5.2.1.5.2.9.3.5.1.8.2 1.1.4.3.1.5.3.6.5.1.2.2.4.2.7 0 .5-.2.9-.6 1.1-.4.3-.9.4-1.5.4-.4 0-.8-.1-1.1-.2-.3-.2-.6-.4-.8-.6-.2-.3-.3-.6-.3-.9h.9c0 .3.1.5.4.7.2.2.5.3.9.3.3 0 .6-.1.8-.2.4-.2.5-.4.5-.6zM620.7 199h-.7l3-7.7h.8l-3.1 7.7zM629.2 198.4h-4.7v-.6l2.5-2.7c.4-.4.6-.8.8-1 .1-.3.2-.5.2-.8 0-.4-.1-.7-.3-.9-.2-.2-.5-.4-.9-.4s-.8.1-1 .4c-.2.3-.4.6-.4 1.1h-.9c0-.7.2-1.2.6-1.6.4-.4 1-.6 1.7-.6s1.2.2 1.6.5.6.8.6 1.4c0 .7-.4 1.5-1.3 2.5l-1.9 2.1h3.6v.6zM634.7 195.3c0 1.1-.2 1.8-.5 2.4-.4.5-.9.8-1.7.8-.8 0-1.3-.3-1.7-.8s-.6-1.3-.6-2.3v-1.2c0-1 .2-1.8.5-2.3s.9-.8 1.7-.8c.8 0 1.3.2 1.7.7.4.5.5 1.2.6 2.3v1.2zm-.9-1.2c0-.8-.1-1.3-.3-1.7-.2-.3-.6-.5-1-.5-.5 0-.8.2-1 .5-.2.3-.3.9-.3 1.6v1.4c0 .8.1 1.3.3 1.7.2.4.6.5 1 .5s.8-.2 1-.5c.2-.3.3-.9.3-1.6v-1.4zM640.5 198.4h-4.7v-.6l2.5-2.7c.4-.4.6-.8.8-1 .1-.3.2-.5.2-.8 0-.4-.1-.7-.3-.9-.2-.2-.5-.4-.9-.4s-.8.1-1 .4c-.2.3-.4.6-.4 1.1h-.9c0-.7.2-1.2.6-1.6.4-.4 1-.6 1.7-.6s1.2.2 1.6.5.6.8.6 1.4c0 .7-.4 1.5-1.3 2.5l-1.9 2.1h3.6v.6zM646.1 198.4h-4.7v-.6l2.5-2.7c.4-.4.6-.8.8-1 .1-.3.2-.5.2-.8 0-.4-.1-.7-.3-.9-.2-.2-.5-.4-.9-.4s-.8.1-1 .4c-.2.3-.4.6-.4 1.1h-.9c0-.7.2-1.2.6-1.6.4-.4 1-.6 1.7-.6s1.2.2 1.6.5.6.8.6 1.4c0 .7-.4 1.5-1.3 2.5l-1.9 2.1h3.6v.6zM647.3 199h-.8l3-7.7h.8l-3 7.7zM655.6 195.3c0 1.1-.2 1.8-.5 2.4-.4.5-.9.8-1.7.8-.8 0-1.3-.3-1.7-.8s-.6-1.3-.6-2.3v-1.2c0-1 .2-1.8.5-2.3s.9-.8 1.7-.8c.8 0 1.3.2 1.7.7.4.5.5 1.2.6 2.3v1.2zm-.9-1.2c0-.8-.1-1.3-.3-1.7-.2-.3-.6-.5-1-.5-.5 0-.8.2-1 .5-.2.3-.3.9-.3 1.6v1.4c0 .8.1 1.3.3 1.7.2.4.6.5 1 .5s.8-.2 1-.5c.2-.3.3-.9.3-1.6v-1.4zM661.4 198.4h-4.7v-.6l2.5-2.7c.4-.4.6-.8.8-1 .1-.3.2-.5.2-.8 0-.4-.1-.7-.3-.9-.2-.2-.5-.4-.9-.4s-.8.1-1 .4c-.2.3-.4.6-.4 1.1h-.9c0-.7.2-1.2.6-1.6.4-.4 1-.6 1.7-.6s1.2.2 1.6.5.6.8.6 1.4c0 .7-.4 1.5-1.3 2.5l-1.9 2.1h3.6v.6zM662.7 199h-.8l3-7.7h.8l-3 7.7zM667.5 193.1v.7c.4-.5.9-.8 1.6-.8 1.1 0 1.7.6 1.7 1.9v3.5h-.9v-3.5c0-.4-.1-.7-.3-.8-.2-.2-.4-.3-.8-.3-.3 0-.5.1-.8.2s-.4.4-.5.6v3.8h-.9v-5.3h.9zM674.3 198.5c-.7 0-1.3-.2-1.7-.7-.4-.5-.7-1.1-.7-1.9v-.2c0-.5.1-1 .3-1.4.2-.4.5-.7.8-1 .4-.2.8-.3 1.2-.3.7 0 1.2.2 1.6.7.4.5.6 1.1.6 1.9v.4h-3.6c0 .5.2.9.5 1.3.3.3.7.5 1.1.5.3 0 .6-.1.8-.2.2-.1.4-.3.6-.5l.6.4c-.5.6-1.2 1-2.1 1zm-.1-4.8c-.4 0-.7.1-.9.4-.2.3-.4.6-.5 1.1h2.6v-.1c0-.5-.1-.8-.4-1.1-.1-.2-.4-.3-.8-.3zM682.1 197.1l1-4h.9l-1.5 5.3h-.7l-1.3-4-1.2 4h-.7l-1.5-5.3h.9l1 4 1.2-4h.7l1.2 4zM686.8 195.7h-2.4v-.7h2.4v.7zM687.5 195.7c0-.8.2-1.5.6-2s.9-.7 1.5-.7 1.1.2 1.5.6v-2.8h.9v7.5h-.8v-.6c-.4.4-.9.7-1.5.7s-1.1-.3-1.5-.8c-.5-.4-.7-1.1-.7-1.9zm.9.1c0 .6.1 1.1.4 1.4.2.3.6.5 1 .5.6 0 1-.3 1.3-.8v-2.4c-.3-.5-.7-.7-1.2-.7-.4 0-.8.2-1 .5s-.5.8-.5 1.5zM696.6 198.4c-.1-.1-.1-.3-.1-.6-.4.4-.9.7-1.5.7-.5 0-.9-.1-1.3-.4-.3-.3-.5-.7-.5-1.1 0-.6.2-1 .6-1.3.4-.3 1-.5 1.8-.5h.9v-.4c0-.3-.1-.6-.3-.8-.2-.2-.5-.3-.8-.3-.3 0-.6.1-.8.2-.2.2-.3.4-.3.6h-.9c0-.3.1-.5.3-.8.2-.2.4-.4.8-.6.3-.1.7-.2 1.1-.2.6 0 1.1.2 1.4.5.3.3.5.7.5 1.3v2.4c0 .5.1.9.2 1.2v.1h-1.1zm-1.5-.7c.3 0 .6-.1.8-.2s.4-.3.6-.6v-1.1h-.7c-1.1 0-1.7.3-1.7 1 0 .3.1.5.3.7.2.1.4.2.7.2zM700 191.8v1.3h1v.7h-1v3.3c0 .2 0 .4.1.5.1.1.2.2.4.2.1 0 .2 0 .4-.1v.7c-.2.1-.5.1-.7.1-.4 0-.7-.1-.9-.4s-.3-.6-.3-1v-3.3h-1v-.7h1v-1.3h1zM705.3 198.4c-.1-.1-.1-.3-.1-.6-.4.4-.9.7-1.5.7-.5 0-.9-.1-1.3-.4-.3-.3-.5-.7-.5-1.1 0-.6.2-1 .6-1.3.4-.3 1-.5 1.8-.5h.9v-.4c0-.3-.1-.6-.3-.8-.2-.2-.5-.3-.8-.3-.3 0-.6.1-.8.2-.2.2-.3.4-.3.6h-1c0-.3.1-.5.3-.8.2-.2.4-.4.8-.6.3-.1.7-.2 1.1-.2.6 0 1.1.2 1.4.5.3.3.5.7.5 1.3v2.4c0 .5.1.9.2 1.2v.1h-1zm-1.5-.7c.3 0 .6-.1.8-.2s.4-.3.6-.6v-1.1h-.7c-1.1 0-1.7.3-1.7 1 0 .3.1.5.3.7.2.1.4.2.7.2zM709.4 195.7H707v-.7h2.4v.7zM713.3 197c0-.2-.1-.4-.3-.6-.2-.1-.5-.3-1-.3-.5-.1-.8-.2-1.1-.4-.3-.1-.5-.3-.6-.5-.1-.2-.2-.4-.2-.7 0-.4.2-.8.5-1.1.4-.3.8-.4 1.4-.4.6 0 1.1.2 1.5.5.4.3.6.7.6 1.2h-.9c0-.2-.1-.5-.3-.6-.2-.2-.5-.3-.8-.3-.3 0-.6.1-.8.2-.2.1-.3.3-.3.6 0 .2.1.4.3.5.2.1.5.2.9.3.5.1.8.2 1.1.4.3.1.5.3.6.5.1.2.2.4.2.7 0 .5-.2.9-.6 1.1-.4.3-.9.4-1.5.4-.4 0-.8-.1-1.1-.2-.3-.2-.6-.4-.8-.6-.2-.3-.3-.6-.3-.9h.9c0 .3.1.5.4.7.2.2.5.3.9.3.3 0 .6-.1.8-.2.4-.2.5-.4.5-.6zM716.3 193.7c.4-.5.9-.7 1.6-.7 1.1 0 1.7.6 1.7 1.9v3.5h-.9v-3.5c0-.4-.1-.7-.3-.8-.2-.2-.4-.3-.8-.3-.3 0-.5.1-.8.2s-.4.4-.5.6v3.8h-.9v-7.5h.9v2.8zM720.7 195.7c0-.5.1-1 .3-1.4.2-.4.5-.7.8-1 .4-.2.8-.3 1.2-.3.7 0 1.3.2 1.7.7.4.5.7 1.2.7 2v.1c0 .5-.1 1-.3 1.4-.2.4-.5.7-.8 1-.4.2-.8.3-1.3.3-.7 0-1.3-.2-1.7-.7-.4-.6-.6-1.2-.6-2.1zm.9.1c0 .6.1 1.1.4 1.4.3.4.6.5 1.1.5.5 0 .8-.2 1.1-.5.3-.4.4-.9.4-1.5s-.1-1-.4-1.4c-.3-.4-.6-.5-1.1-.5-.4 0-.8.2-1.1.5-.3.3-.4.8-.4 1.5zM731.3 197.1l1-4h.9l-1.5 5.3h-.7l-1.3-4-1.2 4h-.7l-1.5-5.3h.9l1 4 1.2-4h.7l1.2 4zM737.2 197c0-.2-.1-.4-.3-.6-.2-.1-.5-.3-1-.3-.5-.1-.8-.2-1.1-.4-.3-.1-.5-.3-.6-.5-.1-.2-.2-.4-.2-.7 0-.4.2-.8.5-1.1.4-.3.8-.4 1.4-.4.6 0 1.1.2 1.5.5.4.3.6.7.6 1.2h-.9c0-.2-.1-.5-.3-.6-.2-.2-.5-.3-.8-.3-.3 0-.6.1-.8.2-.2.1-.3.3-.3.6 0 .2.1.4.3.5.2.1.5.2.9.3.5.1.8.2 1.1.4.3.1.5.3.6.5.1.2.2.4.2.7 0 .5-.2.9-.6 1.1-.4.3-.9.4-1.5.4-.4 0-.8-.1-1.1-.2-.3-.2-.6-.4-.8-.6-.2-.3-.3-.6-.3-.9h.9c0 .3.1.5.4.7.2.2.5.3.9.3.3 0 .6-.1.8-.2.4-.2.5-.4.5-.6zM741.2 195.7h-2.4v-.7h2.4v.7zM742.5 198.4v-4.6h-.8v-.7h.8v-.5c0-.6.2-1 .5-1.3.3-.3.7-.5 1.3-.5.2 0 .4 0 .6.1v.7h-.5c-.3 0-.5.1-.7.3-.2.2-.2.4-.2.7v.6h1.1v.7h-1.1v4.6h-1z"/><path class="st0" d="M746.7 191.8v1.3h1v.7h-1v3.3c0 .2 0 .4.1.5.1.1.2.2.4.2.1 0 .2 0 .4-.1v.7c-.2.1-.5.1-.7.1-.4 0-.7-.1-.9-.4s-.3-.6-.3-1v-3.3h-1v-.7h1v-1.3h1zM750.9 197.7c.3 0 .6-.1.8-.3s.4-.4.4-.7h.9c0 .3-.1.6-.3.9s-.4.5-.8.7c-.3.2-.7.2-1 .2-.7 0-1.3-.2-1.7-.7-.4-.5-.6-1.1-.6-2v-.2c0-.5.1-1 .3-1.4s.5-.7.8-.9c.4-.2.8-.3 1.3-.3.6 0 1.1.2 1.5.5.4.4.6.8.6 1.4h-.9c0-.3-.2-.6-.4-.8-.2-.2-.5-.3-.9-.3-.5 0-.8.2-1.1.5-.3.3-.4.8-.4 1.4v.2c0 .6.1 1.1.4 1.4.3.3.6.4 1.1.4zM755.9 195.7h-2.4v-.7h2.4v.7zM759.3 193.9h-.4c-.6 0-1 .3-1.2.8v3.8h-.9v-5.3h.9v.6c.3-.5.7-.7 1.3-.7.2 0 .3 0 .4.1v.7zM762.3 198.5c-.7 0-1.3-.2-1.7-.7-.4-.5-.7-1.1-.7-1.9v-.2c0-.5.1-1 .3-1.4.2-.4.5-.7.8-1 .4-.2.8-.3 1.2-.3.7 0 1.2.2 1.6.7.4.5.6 1.1.6 1.9v.4h-3.6c0 .5.2.9.5 1.3.3.3.7.5 1.1.5.3 0 .6-.1.8-.2.2-.1.4-.3.6-.5l.6.4c-.6.6-1.3 1-2.1 1zm-.2-4.8c-.4 0-.7.1-.9.4-.2.3-.4.6-.5 1.1h2.6v-.1c0-.5-.1-.8-.4-1.1-.1-.2-.4-.3-.8-.3zM767.5 197.7c.3 0 .6-.1.8-.3s.4-.4.4-.7h.9c0 .3-.1.6-.3.9s-.4.5-.8.7c-.3.2-.7.2-1 .2-.7 0-1.3-.2-1.7-.7-.4-.5-.6-1.1-.6-2v-.2c0-.5.1-1 .3-1.4s.5-.7.8-.9c.4-.2.8-.3 1.3-.3.6 0 1.1.2 1.5.5.4.4.6.8.6 1.4h-.9c0-.3-.2-.6-.4-.8-.2-.2-.5-.3-.9-.3-.5 0-.8.2-1.1.5-.3.3-.4.8-.4 1.4v.2c0 .6.1 1.1.4 1.4.3.3.6.4 1.1.4zM772.8 198.5c-.7 0-1.3-.2-1.7-.7-.4-.5-.7-1.1-.7-1.9v-.2c0-.5.1-1 .3-1.4.2-.4.5-.7.8-1 .4-.2.8-.3 1.2-.3.7 0 1.2.2 1.6.7.4.5.6 1.1.6 1.9v.4h-3.6c0 .5.2.9.5 1.3.3.3.7.5 1.1.5.3 0 .6-.1.8-.2.2-.1.4-.3.6-.5l.6.4c-.6.6-1.2 1-2.1 1zm-.1-4.8c-.4 0-.7.1-.9.4-.2.3-.4.6-.5 1.1h2.6v-.1c0-.5-.1-.8-.4-1.1-.1-.2-.4-.3-.8-.3zM775.9 191.7c0-.1 0-.3.1-.4.1-.1.2-.2.4-.2s.3 0 .4.2c.1.1.1.2.1.4s0 .3-.1.4-.2.1-.4.1-.3 0-.4-.1c-.1-.2-.1-.3-.1-.4zm1 6.7h-.9v-5.3h.9v5.3zM780.1 197.1l1.3-4.1h.9l-1.9 5.3h-.7l-1.9-5.3h.9l1.4 4.1zM785.3 198.5c-.7 0-1.3-.2-1.7-.7-.4-.5-.7-1.1-.7-1.9v-.2c0-.5.1-1 .3-1.4.2-.4.5-.7.8-1 .4-.2.8-.3 1.2-.3.7 0 1.2.2 1.6.7.4.5.6 1.1.6 1.9v.4h-3.6c0 .5.2.9.5 1.3.3.3.7.5 1.1.5.3 0 .6-.1.8-.2.2-.1.4-.3.6-.5l.6.4c-.6.6-1.2 1-2.1 1zm-.1-4.8c-.4 0-.7.1-.9.4-.2.3-.4.6-.5 1.1h2.6v-.1c0-.5-.1-.8-.4-1.1-.1-.2-.4-.3-.8-.3zM788.2 195.7c0-.8.2-1.5.6-2s.9-.7 1.5-.7 1.1.2 1.5.6v-2.8h.9v7.5h-.8v-.6c-.4.4-.9.7-1.5.7s-1.1-.3-1.5-.8c-.5-.4-.7-1.1-.7-1.9zm.9.1c0 .6.1 1.1.4 1.4.2.3.6.5 1 .5.6 0 1-.3 1.3-.8v-2.4c-.3-.5-.7-.7-1.2-.7-.4 0-.8.2-1 .5s-.5.8-.5 1.5zM795.9 195.7h-2.4v-.7h2.4v.7zM345.1 210.4h-4.7v-.6l2.5-2.7c.4-.4.6-.8.8-1 .1-.3.2-.5.2-.8 0-.4-.1-.7-.3-.9-.2-.2-.5-.4-.9-.4s-.8.1-1 .4c-.2.3-.4.6-.4 1.1h-.9c0-.7.2-1.2.6-1.6.4-.4 1-.6 1.7-.6s1.2.2 1.6.5.6.8.6 1.4c0 .7-.4 1.5-1.3 2.5l-1.9 2.1h3.6v.6zM350.4 205.1c0 .4-.1.7-.3.9-.2.3-.4.5-.8.6.4.2.7.4.9.7.2.3.3.7.3 1 0 .6-.2 1.1-.6 1.5-.4.4-1 .5-1.6.5-.7 0-1.2-.2-1.6-.5-.4-.4-.6-.9-.6-1.5 0-.4.1-.7.3-1 .2-.3.5-.5.9-.7-.3-.2-.6-.4-.7-.6-.2-.3-.3-.6-.3-.9 0-.6.2-1.1.6-1.4s.9-.5 1.5-.5 1.1.2 1.5.5c.3.3.5.8.5 1.4zm-.8 3.3c0-.4-.1-.7-.4-1-.3-.3-.6-.4-1-.4s-.7.1-1 .4c-.2.2-.4.6-.4 1s.1.7.4 1c.2.2.6.3 1 .3s.8-.1 1-.3c.3-.3.4-.6.4-1zm-1.3-4.5c-.4 0-.6.1-.9.3-.2.2-.3.5-.3.9s.1.7.3.9c.2.2.5.3.9.3s.7-.1.9-.3c.2-.2.3-.5.3-.9s-.1-.7-.3-.9c-.3-.2-.6-.3-.9-.3zM353.7 207.7h-2.4v-.7h2.4v.7zM355.4 205.1v.6c.4-.5.9-.7 1.6-.7.7 0 1.2.3 1.5.8.2-.3.4-.5.7-.6.3-.2.6-.2 1-.2 1.2 0 1.7.6 1.8 1.8v3.5h-1v-3.5c0-.4-.1-.7-.3-.8-.2-.2-.5-.3-.9-.3-.3 0-.6.1-.8.3s-.3.5-.4.8v3.5h-.9v-3.5c0-.8-.4-1.2-1.1-1.2-.6 0-1 .3-1.2.8v3.9h-.9V205h.9zM363.3 203.7c0-.1 0-.3.1-.4.1-.1.2-.2.4-.2s.3 0 .4.2c.1.1.1.2.1.4s0 .3-.1.4-.2.1-.4.1-.3 0-.4-.1c0-.2-.1-.3-.1-.4zm1 6.7h-.9v-5.3h.9v5.3zM366.7 210.4h-.9v-7.5h.9v7.5zM369.1 210.4h-.9v-7.5h.9v7.5zM370.6 203.7c0-.1 0-.3.1-.4.1-.1.2-.2.4-.2s.3 0 .4.2c.1.1.1.2.1.4s0 .3-.1.4-.2.1-.4.1-.3 0-.4-.1c-.1-.2-.1-.3-.1-.4zm1 6.7h-.9v-5.3h.9v5.3zM372.8 207.7c0-.5.1-1 .3-1.4.2-.4.5-.7.8-1 .4-.2.8-.3 1.2-.3.7 0 1.3.2 1.7.7.4.5.7 1.2.7 2v.1c0 .5-.1 1-.3 1.4-.2.4-.5.7-.8 1-.4.2-.8.3-1.3.3-.7 0-1.3-.2-1.7-.7-.4-.6-.6-1.2-.6-2.1zm.9.1c0 .6.1 1.1.4 1.4.3.4.6.5 1.1.5.5 0 .8-.2 1.1-.5.3-.4.4-.9.4-1.5s-.1-1-.4-1.4c-.3-.4-.6-.5-1.1-.5-.4 0-.8.2-1.1.5-.3.3-.4.8-.4 1.5zM379.6 205.1v.7c.4-.5.9-.8 1.6-.8 1.1 0 1.7.6 1.7 1.9v3.5h-.9v-3.5c0-.4-.1-.7-.3-.8-.2-.2-.4-.3-.8-.3-.3 0-.5.1-.8.2s-.4.4-.5.6v3.8h-.9v-5.3h.9zM386.1 207.7h-2.4v-.7h2.4v.7zM387.4 210.4v-4.6h-.8v-.7h.8v-.5c0-.6.2-1 .5-1.3.3-.3.7-.5 1.3-.5.2 0 .4 0 .6.1v.7h-.5c-.3 0-.5.1-.7.3-.2.2-.2.4-.2.7v.6h1.1v.7h-1.1v4.6h-1zM393 205.9h-.4c-.6 0-1 .3-1.2.8v3.8h-.9v-5.3h.9v.6c.3-.5.7-.7 1.3-.7.2 0 .3 0 .4.1v.7zM396.9 210.4c-.1-.1-.1-.3-.1-.6-.4.4-.9.7-1.5.7-.5 0-.9-.1-1.3-.4-.3-.3-.5-.7-.5-1.1 0-.6.2-1 .6-1.3.4-.3 1-.5 1.8-.5h.9v-.4c0-.3-.1-.6-.3-.8-.2-.2-.5-.3-.8-.3-.3 0-.6.1-.8.2-.2.2-.3.4-.3.6h-.9c0-.3.1-.5.3-.8.2-.2.4-.4.8-.6.3-.1.7-.2 1.1-.2.6 0 1.1.2 1.4.5.3.3.5.7.5 1.3v2.4c0 .5.1.9.2 1.2v.1h-1.1zm-1.5-.7c.3 0 .6-.1.8-.2s.4-.3.6-.6v-1.1h-.7c-1.1 0-1.7.3-1.7 1 0 .3.1.5.3.7.2.1.4.2.7.2zM402.4 209.8c-.4.4-.9.6-1.5.6s-1-.2-1.3-.5c-.3-.3-.4-.8-.4-1.5V205h.9v3.4c0 .8.3 1.2 1 1.2s1.1-.3 1.4-.8V205h.9v5.3h-.9l-.1-.5zM404.4 207.7c0-.8.2-1.5.6-2s.9-.7 1.5-.7 1.1.2 1.5.6v-2.8h.9v7.5h-.9v-.6c-.4.4-.9.7-1.5.7s-1.1-.3-1.5-.8c-.4-.4-.6-1.1-.6-1.9zm.9.1c0 .6.1 1.1.4 1.4.2.3.6.5 1 .5.6 0 1-.3 1.3-.8v-2.4c-.3-.5-.7-.7-1.2-.7-.4 0-.8.2-1 .5s-.5.8-.5 1.5zM412.1 207.7h-2.4v-.7h2.4v.7zM415.6 205.9h-.4c-.6 0-1 .3-1.2.8v3.8h-1v-5.3h.9v.6c.3-.5.7-.7 1.3-.7.2 0 .3 0 .4.1v.7zM418.5 210.5c-.7 0-1.3-.2-1.7-.7-.4-.5-.7-1.1-.7-1.9v-.2c0-.5.1-1 .3-1.4.2-.4.5-.7.8-1 .4-.2.8-.3 1.2-.3.7 0 1.2.2 1.6.7.4.5.6 1.1.6 1.9v.4H417c0 .5.2.9.5 1.3.3.3.7.5 1.1.5.3 0 .6-.1.8-.2.2-.1.4-.3.6-.5l.6.4c-.6.6-1.2 1-2.1 1zm-.1-4.8c-.4 0-.7.1-.9.4-.2.3-.4.6-.5 1.1h2.6v-.1c0-.5-.1-.8-.4-1.1-.1-.2-.4-.3-.8-.3zM426.1 207.8c0 .8-.2 1.5-.6 1.9-.4.5-.9.7-1.5.7s-1.1-.2-1.5-.6v2.5h-.9V205h.8v.6c.4-.5.9-.7 1.5-.7s1.1.2 1.5.7c.5.6.7 1.2.7 2.2zm-.9-.1c0-.6-.1-1.1-.4-1.4-.3-.3-.6-.5-1-.5-.5 0-1 .2-1.2.7v2.5c.3.5.7.7 1.2.7.4 0 .8-.2 1-.5.2-.3.4-.8.4-1.5zM427 207.7c0-.5.1-1 .3-1.4.2-.4.5-.7.8-1 .4-.2.8-.3 1.2-.3.7 0 1.3.2 1.7.7.4.5.7 1.2.7 2v.1c0 .5-.1 1-.3 1.4-.2.4-.5.7-.8 1-.4.2-.8.3-1.3.3-.7 0-1.3-.2-1.7-.7-.4-.6-.6-1.2-.6-2.1zm.9.1c0 .6.1 1.1.4 1.4.3.4.6.5 1.1.5.5 0 .8-.2 1.1-.5.3-.4.4-.9.4-1.5s-.1-1-.4-1.4c-.3-.4-.6-.5-1.1-.5-.4 0-.8.2-1.1.5-.3.3-.4.8-.4 1.5zM435.5 205.9h-.4c-.6 0-1 .3-1.2.8v3.8h-.9v-5.3h.9v.6c.3-.5.7-.7 1.3-.7.2 0 .3 0 .4.1v.7zM437.8 203.8v1.3h1v.7h-1v3.3c0 .2 0 .4.1.5.1.1.2.2.4.2.1 0 .2 0 .4-.1v.7c-.2.1-.5.1-.7.1-.4 0-.7-.1-.9-.4s-.3-.6-.3-1v-3.3h-1v-.7h1v-1.3h1zM442.9 209c0-.2-.1-.4-.3-.6-.2-.1-.5-.3-1-.3-.5-.1-.8-.2-1.1-.4-.3-.1-.5-.3-.6-.5-.1-.2-.2-.4-.2-.7 0-.4.2-.8.5-1.1.4-.3.8-.4 1.4-.4.6 0 1.1.2 1.5.5.4.3.6.7.6 1.2h-.9c0-.2-.1-.5-.3-.6-.2-.2-.5-.3-.8-.3-.3 0-.6.1-.8.2-.2.1-.3.3-.3.6 0 .2.1.4.3.5.2.1.5.2.9.3.5.1.8.2 1.1.4.3.1.5.3.6.5.1.2.2.4.2.7 0 .5-.2.9-.6 1.1-.4.3-.9.4-1.5.4-.4 0-.8-.1-1.1-.2-.3-.2-.6-.4-.8-.6-.2-.3-.3-.6-.3-.9h.9c0 .3.1.5.4.7.2.2.5.3.9.3.3 0 .6-.1.8-.2.4-.2.5-.4.5-.6zM446.8 207.7h-2.4v-.7h2.4v.7zM449.8 209.7c.3 0 .6-.1.8-.3s.4-.4.4-.7h.9c0 .3-.1.6-.3.9s-.4.5-.8.7c-.3.2-.7.2-1 .2-.7 0-1.3-.2-1.7-.7-.4-.5-.6-1.1-.6-2v-.2c0-.5.1-1 .3-1.4s.5-.7.8-.9c.4-.2.8-.3 1.3-.3.6 0 1.1.2 1.5.5.4.4.6.8.6 1.4h-.9c0-.3-.2-.6-.4-.8-.2-.2-.5-.3-.9-.3-.5 0-.8.2-1.1.5-.3.3-.4.8-.4 1.4v.2c0 .6.1 1.1.4 1.4.3.3.7.4 1.1.4zM452.7 207.7c0-.5.1-1 .3-1.4.2-.4.5-.7.8-1 .4-.2.8-.3 1.2-.3.7 0 1.3.2 1.7.7.4.5.7 1.2.7 2v.1c0 .5-.1 1-.3 1.4-.2.4-.5.7-.8 1-.4.2-.8.3-1.3.3-.7 0-1.3-.2-1.7-.7-.4-.6-.6-1.2-.6-2.1zm.9.1c0 .6.1 1.1.4 1.4.3.4.6.5 1.1.5.5 0 .8-.2 1.1-.5.3-.4.4-.9.4-1.5s-.1-1-.4-1.4c-.3-.4-.6-.5-1.1-.5-.4 0-.8.2-1.1.5-.2.3-.4.8-.4 1.5zM459.5 205.1v.7c.4-.5.9-.8 1.6-.8 1.1 0 1.7.6 1.7 1.9v3.5h-.9v-3.5c0-.4-.1-.7-.3-.8-.2-.2-.4-.3-.8-.3-.3 0-.5.1-.8.2s-.4.4-.5.6v3.8h-.9v-5.3h.9zM467.2 209c0-.2-.1-.4-.3-.6-.2-.1-.5-.3-1-.3-.5-.1-.8-.2-1.1-.4-.3-.1-.5-.3-.6-.5-.1-.2-.2-.4-.2-.7 0-.4.2-.8.5-1.1.4-.3.8-.4 1.4-.4.6 0 1.1.2 1.5.5.4.3.6.7.6 1.2h-.9c0-.2-.1-.5-.3-.6-.2-.2-.5-.3-.8-.3-.3 0-.6.1-.8.2-.2.1-.3.3-.3.6 0 .2.1.4.3.5.2.1.5.2.9.3.5.1.8.2 1.1.4.3.1.5.3.6.5.1.2.2.4.2.7 0 .5-.2.9-.6 1.1-.4.3-.9.4-1.5.4-.4 0-.8-.1-1.1-.2-.3-.2-.6-.4-.8-.6-.2-.3-.3-.6-.3-.9h.9c0 .3.1.5.4.7.2.2.5.3.9.3.3 0 .6-.1.8-.2.4-.2.5-.4.5-.6zM472.6 209.8c-.4.4-.9.6-1.5.6s-1-.2-1.3-.5c-.3-.3-.4-.8-.4-1.5V205h.9v3.4c0 .8.3 1.2 1 1.2s1.1-.3 1.4-.8V205h.9v5.3h-.9l-.1-.5zM475.7 205.1v.6c.4-.5.9-.7 1.6-.7.7 0 1.2.3 1.5.8.2-.3.4-.5.7-.6.3-.2.6-.2 1-.2 1.2 0 1.7.6 1.8 1.8v3.5h-.9v-3.5c0-.4-.1-.7-.3-.8-.2-.2-.5-.3-.9-.3-.3 0-.6.1-.8.3s-.3.5-.4.8v3.5h-.9v-3.5c0-.8-.4-1.2-1.1-1.2-.6 0-1 .3-1.2.8v3.9h-.9V205h.8zM485.8 210.5c-.7 0-1.3-.2-1.7-.7-.4-.5-.7-1.1-.7-1.9v-.2c0-.5.1-1 .3-1.4.2-.4.5-.7.8-1 .4-.2.8-.3 1.2-.3.7 0 1.2.2 1.6.7.4.5.6 1.1.6 1.9v.4h-3.6c0 .5.2.9.5 1.3.3.3.7.5 1.1.5.3 0 .6-.1.8-.2.2-.1.4-.3.6-.5l.6.4c-.6.6-1.2 1-2.1 1zm-.1-4.8c-.4 0-.7.1-.9.4-.2.3-.4.6-.5 1.1h2.6v-.1c0-.5-.1-.8-.4-1.1-.1-.2-.4-.3-.8-.3zM491.5 205.9h-.4c-.6 0-1 .3-1.2.8v3.8h-.9v-5.3h.9v.6c.3-.5.7-.7 1.3-.7.2 0 .3 0 .4.1v.7zM495.4 209c0-.2-.1-.4-.3-.6-.2-.1-.5-.3-1-.3-.5-.1-.8-.2-1.1-.4-.3-.1-.5-.3-.6-.5-.1-.2-.2-.4-.2-.7 0-.4.2-.8.5-1.1.4-.3.8-.4 1.4-.4.6 0 1.1.2 1.5.5.4.3.6.7.6 1.2h-.9c0-.2-.1-.5-.3-.6-.2-.2-.5-.3-.8-.3-.3 0-.6.1-.8.2-.2.1-.3.3-.3.6 0 .2.1.4.3.5.2.1.5.2.9.3.5.1.8.2 1.1.4.3.1.5.3.6.5.1.2.2.4.2.7 0 .5-.2.9-.6 1.1-.4.3-.9.4-1.5.4-.4 0-.8-.1-1.1-.2-.3-.2-.6-.4-.8-.6-.2-.3-.3-.6-.3-.9h.9c0 .3.1.5.4.7.2.2.5.3.9.3.3 0 .6-.1.8-.2.4-.2.5-.4.5-.6zM499.3 207.7h-2.4v-.7h2.4v.7zM504.8 210.4h-4.7v-.6l2.5-2.7c.4-.4.6-.8.8-1 .1-.3.2-.5.2-.8 0-.4-.1-.7-.3-.9-.2-.2-.5-.4-.9-.4s-.8.1-1 .4c-.2.3-.4.6-.4 1.1h-1c0-.7.2-1.2.6-1.6.4-.4 1-.6 1.7-.6s1.2.2 1.6.5.6.8.6 1.4c0 .7-.4 1.5-1.3 2.5l-1.9 2.1h3.6v.6zM510.2 207.3c0 1.1-.2 1.8-.5 2.4-.4.5-.9.8-1.7.8-.8 0-1.3-.3-1.7-.8s-.6-1.3-.6-2.3v-1.2c0-1 .2-1.8.5-2.3s.9-.8 1.7-.8c.8 0 1.3.2 1.7.7.4.5.5 1.2.6 2.3v1.2zm-.9-1.2c0-.8-.1-1.3-.3-1.7-.2-.3-.6-.5-1-.5-.5 0-.8.2-1 .5-.2.3-.3.9-.3 1.6v1.4c0 .8.1 1.3.3 1.7.2.4.6.5 1 .5s.8-.2 1-.5c.2-.3.3-.9.3-1.6v-1.4zM516 210.4h-4.7v-.6l2.5-2.7c.4-.4.6-.8.8-1 .1-.3.2-.5.2-.8 0-.4-.1-.7-.3-.9-.2-.2-.5-.4-.9-.4s-.8.1-1 .4c-.2.3-.4.6-.4 1.1h-.9c0-.7.2-1.2.6-1.6.4-.4 1-.6 1.7-.6s1.2.2 1.6.5.6.8.6 1.4c0 .7-.4 1.5-1.3 2.5l-1.9 2.1h3.6v.6zM519.9 210.4h-.9v-6l-1.8.7v-.8l2.6-1h.1v7.1zM524.5 207.7h-2.4v-.7h2.4v.7zM529.8 207.3c0 1.1-.2 1.8-.5 2.4-.4.5-.9.8-1.7.8-.8 0-1.3-.3-1.7-.8s-.6-1.3-.6-2.3v-1.2c0-1 .2-1.8.5-2.3s.9-.8 1.7-.8c.8 0 1.3.2 1.7.7.4.5.5 1.2.6 2.3v1.2zm-.9-1.2c0-.8-.1-1.3-.3-1.7-.2-.3-.6-.5-1-.5-.5 0-.8.2-1 .5-.2.3-.3.9-.3 1.6v1.4c0 .8.1 1.3.3 1.7.2.4.6.5 1 .5s.8-.2 1-.5c.2-.3.3-.9.3-1.6v-1.4z"/><g><path class="st1" d="M346.2 76.2h-5.6v-27h5.6v27zM355.9 56.1l.2 2.3c1.4-1.8 3.4-2.7 5.8-2.7 2.1 0 3.7.6 4.8 1.9 1 1.2 1.6 3.1 1.6 5.6v13h-5.4V63.4c0-1.1-.2-2-.7-2.5-.5-.5-1.3-.8-2.5-.8-1.5 0-2.6.6-3.4 1.9v14.2h-5.4V56.1h5zM400 76.2h-18.5v-3.7l8.7-9.3c1.2-1.3 2.1-2.5 2.7-3.4.6-1 .9-1.9.9-2.8 0-1.2-.3-2.1-.9-2.8-.6-.7-1.5-1-2.6-1-1.2 0-2.2.4-2.9 1.3-.7.8-1 1.9-1 3.3H381c0-1.6.4-3.1 1.2-4.5.8-1.4 1.9-2.4 3.3-3.2 1.4-.8 3.1-1.2 4.9-1.2 2.8 0 4.9.7 6.5 2 1.5 1.3 2.3 3.2 2.3 5.7 0 1.3-.3 2.7-1 4.1-.7 1.4-1.9 3-3.6 4.8l-6.1 6.5H400v4.2zM421.5 65c0 3.7-.8 6.6-2.3 8.6-1.5 2-3.8 3-6.8 3-2.9 0-5.2-1-6.8-2.9-1.6-1.9-2.4-4.7-2.4-8.3v-5c0-3.8.8-6.6 2.3-8.6 1.6-2 3.8-2.9 6.8-2.9 2.9 0 5.2 1 6.8 2.9 1.6 1.9 2.4 4.7 2.4 8.3V65zm-5.4-5.4c0-2.2-.3-3.9-.9-4.9-.6-1-1.6-1.5-2.9-1.5-1.3 0-2.2.5-2.8 1.5-.6 1-.9 2.5-1 4.6v6.6c0 2.2.3 3.8.9 4.9.6 1.1 1.6 1.6 2.9 1.6 1.3 0 2.3-.5 2.8-1.5.6-1 .9-2.6.9-4.7v-6.6zM443.6 76.2h-18.5v-3.7l8.7-9.3c1.2-1.3 2.1-2.5 2.7-3.4.6-1 .9-1.9.9-2.8 0-1.2-.3-2.1-.9-2.8-.6-.7-1.5-1-2.6-1-1.2 0-2.2.4-2.9 1.3-.7.8-1 1.9-1 3.3h-5.4c0-1.6.4-3.1 1.2-4.5.8-1.4 1.9-2.4 3.3-3.2 1.4-.8 3.1-1.2 4.9-1.2 2.8 0 4.9.7 6.5 2 1.5 1.3 2.3 3.2 2.3 5.7 0 1.3-.3 2.7-1 4.1-.7 1.4-1.9 3-3.6 4.8l-6.1 6.5h11.6v4.2zM459.9 76.2h-5.4V55.5l-6.4 2v-4.4l11.2-4h.6v27.1zM470.3 83l-2.8-1.5.7-1.2c.8-1.5 1.3-3 1.3-4.5v-4.2h4.5v3.7c0 1.4-.4 2.8-1 4.2-.7 1.4-1.6 2.5-2.7 3.5zM494.1 51.2v4.9h3.4V60h-3.4v10c0 .7.1 1.3.4 1.6.3.3.8.5 1.6.5.6 0 1.1 0 1.6-.1v4.1c-1.1.3-2.1.5-3.2.5-3.8 0-5.7-1.9-5.8-5.7V60.1h-2.9v-3.9h2.9v-4.9h5.4zM505.7 58.3c1.4-1.7 3.2-2.6 5.4-2.6 4.4 0 6.6 2.5 6.6 7.6v12.9h-5.4V63.5c0-1.2-.2-2-.7-2.6-.5-.5-1.3-.8-2.5-.8-1.6 0-2.7.6-3.4 1.8v14.3h-5.4V47.7h5.4v10.6zM531 76.6c-2.9 0-5.3-.9-7.2-2.7-1.8-1.8-2.8-4.2-2.8-7.2v-.5c0-2 .4-3.8 1.2-5.4.8-1.6 1.9-2.8 3.3-3.7 1.4-.9 3.1-1.3 4.9-1.3 2.7 0 4.9.9 6.5 2.6 1.6 1.7 2.4 4.2 2.4 7.4V68h-12.8c.2 1.3.7 2.4 1.6 3.2.9.8 2 1.2 3.3 1.2 2.1 0 3.7-.7 4.8-2.2l2.6 3c-.8 1.1-1.9 2-3.3 2.7-1.3.3-2.8.7-4.5.7zm-.6-16.5c-1.1 0-1.9.4-2.6 1.1-.7.7-1.1 1.8-1.3 3.1h7.5v-.4c0-1.2-.3-2.1-1-2.8-.6-.7-1.5-1-2.6-1zM568.4 65.2h-10.7v11h-5.6v-27h17.6v4.5h-12v7h10.7v4.5zM593.7 53.7h-8.3v22.5h-5.6V53.7h-8.2v-4.5h22v4.5zM617.5 67.2c-.2 2.9-1.3 5.2-3.2 6.9-1.9 1.7-4.5 2.5-7.7 2.5-3.5 0-6.2-1.2-8.2-3.5-2-2.3-3-5.5-3-9.6v-1.7c0-2.6.5-4.9 1.4-6.9.9-2 2.2-3.5 3.9-4.6 1.7-1.1 3.7-1.6 5.9-1.6 3.1 0 5.6.8 7.5 2.5 1.9 1.7 3 4 3.3 7H612c-.1-1.7-.6-3-1.5-3.8-.8-.8-2.1-1.2-3.8-1.2-1.9 0-3.2.7-4.2 2-.9 1.3-1.4 3.4-1.4 6.2v2c0 2.9.4 5.1 1.3 6.4.9 1.3 2.3 2 4.2 2 1.7 0 3-.4 3.9-1.2.8-.8 1.3-2 1.5-3.6h5.5zM641.6 61.1c-.7-.1-1.4-.1-1.9-.1-2 0-3.4.7-4 2.1v13.1h-5.4V56.1h5.1l.1 2.4c1.1-1.8 2.6-2.8 4.5-2.8.6 0 1.2.1 1.7.2l-.1 5.2zM653 76.6c-2.9 0-5.3-.9-7.2-2.7-1.8-1.8-2.8-4.2-2.8-7.2v-.5c0-2 .4-3.8 1.2-5.4.8-1.6 1.9-2.8 3.3-3.7 1.4-.9 3.1-1.3 4.9-1.3 2.7 0 4.9.9 6.5 2.6 1.6 1.7 2.4 4.2 2.4 7.4V68h-12.8c.2 1.3.7 2.4 1.6 3.2.9.8 2 1.2 3.3 1.2 2.1 0 3.7-.7 4.8-2.2l2.6 3c-.8 1.1-1.9 2-3.3 2.7-1.3.3-2.8.7-4.5.7zm-.6-16.5c-1.1 0-1.9.4-2.6 1.1-.7.7-1.1 1.8-1.3 3.1h7.5v-.4c0-1.2-.3-2.1-1-2.8-.6-.7-1.4-1-2.6-1zM672.7 72.2c1 0 1.8-.3 2.4-.8.6-.5.9-1.3 1-2.2h5c0 1.4-.4 2.6-1.1 3.7-.7 1.1-1.7 2-3 2.6-1.3.6-2.7.9-4.2.9-2.9 0-5.1-.9-6.8-2.7-1.7-1.8-2.5-4.3-2.5-7.6v-.4c0-3.1.8-5.6 2.5-7.4 1.6-1.8 3.9-2.8 6.8-2.8 2.5 0 4.5.7 6 2.1 1.5 1.4 2.3 3.3 2.3 5.7h-5c0-1-.3-1.9-1-2.5-.6-.7-1.4-1-2.4-1-1.2 0-2.2.5-2.8 1.4-.6.9-1 2.4-1 4.4v.6c0 2.1.3 3.6.9 4.5s1.6 1.5 2.9 1.5zM693.4 76.6c-2.9 0-5.3-.9-7.2-2.7-1.8-1.8-2.8-4.2-2.8-7.2v-.5c0-2 .4-3.8 1.2-5.4.8-1.6 1.9-2.8 3.3-3.7 1.4-.9 3.1-1.3 4.9-1.3 2.7 0 4.9.9 6.5 2.6 1.6 1.7 2.4 4.2 2.4 7.4V68h-12.8c.2 1.3.7 2.4 1.6 3.2.9.8 2 1.2 3.3 1.2 2.1 0 3.7-.7 4.8-2.2l2.6 3c-.8 1.1-1.9 2-3.3 2.7-1.3.3-2.8.7-4.5.7zm-.6-16.5c-1.1 0-1.9.4-2.6 1.1-.7.7-1.1 1.8-1.3 3.1h7.5v-.4c0-1.2-.3-2.1-1-2.8-.6-.7-1.5-1-2.6-1zM704.6 50.9c0-.8.3-1.5.8-2s1.3-.8 2.2-.8c.9 0 1.6.3 2.2.8.5.5.8 1.2.8 2s-.3 1.5-.8 2c-.6.5-1.3.8-2.2.8-.9 0-1.6-.3-2.2-.8-.5-.5-.8-1.2-.8-2zm5.7 25.3H705V56.1h5.4v20.1zM722.3 69.6l3.7-13.5h5.6l-6.8 20.1h-5.1l-6.8-20.1h5.6l3.8 13.5zM743 76.6c-2.9 0-5.3-.9-7.2-2.7-1.8-1.8-2.8-4.2-2.8-7.2v-.5c0-2 .4-3.8 1.2-5.4.8-1.6 1.9-2.8 3.3-3.7 1.4-.9 3.1-1.3 4.9-1.3 2.7 0 4.9.9 6.5 2.6 1.6 1.7 2.4 4.2 2.4 7.4V68h-12.8c.2 1.3.7 2.4 1.6 3.2.9.8 2 1.2 3.3 1.2 2.1 0 3.7-.7 4.8-2.2l2.6 3c-.8 1.1-1.9 2-3.3 2.7-1.3.3-2.9.7-4.5.7zm-.6-16.5c-1.1 0-1.9.4-2.6 1.1-.7.7-1.1 1.8-1.3 3.1h7.5v-.4c0-1.2-.3-2.1-1-2.8-.6-.7-1.5-1-2.6-1zM753.4 66c0-3.1.7-5.6 2.1-7.5 1.4-1.9 3.3-2.8 5.8-2.8 2 0 3.6.7 4.8 2.2V47.7h5.4v28.5h-4.8l-.3-2.1c-1.3 1.7-3.1 2.5-5.2 2.5-2.4 0-4.3-.9-5.7-2.8-1.4-1.9-2.1-4.5-2.1-7.8zm5.4.4c0 1.9.3 3.3 1 4.3s1.6 1.5 2.9 1.5c1.7 0 2.8-.7 3.5-2.1v-7.9c-.7-1.4-1.8-2.1-3.5-2.1-2.6 0-3.9 2.1-3.9 6.3zM344.8 104.1l.2 2.3c1.4-1.8 3.4-2.7 5.8-2.7 2.1 0 3.7.6 4.8 1.9 1 1.2 1.6 3.1 1.6 5.6v13h-5.4v-12.8c0-1.1-.2-2-.7-2.5-.5-.5-1.3-.8-2.5-.8-1.5 0-2.6.6-3.4 1.9v14.2h-5.4v-20.1h5zM370.4 124.6c-2.9 0-5.3-.9-7.2-2.7-1.8-1.8-2.8-4.2-2.8-7.2v-.5c0-2 .4-3.8 1.2-5.4.8-1.6 1.9-2.8 3.3-3.7 1.4-.9 3.1-1.3 4.9-1.3 2.7 0 4.9.9 6.5 2.6 1.6 1.7 2.4 4.2 2.4 7.4v2.2h-12.8c.2 1.3.7 2.4 1.6 3.2.9.8 2 1.2 3.3 1.2 2.1 0 3.7-.7 4.8-2.2l2.6 3c-.8 1.1-1.9 2-3.3 2.7-1.3.3-2.8.7-4.5.7zm-.6-16.5c-1.1 0-1.9.4-2.6 1.1-.7.7-1.1 1.8-1.3 3.1h7.5v-.4c0-1.2-.3-2.1-1-2.8-.6-.7-1.5-1-2.6-1zM393.4 124.2c-.2-.5-.4-1.1-.5-1.8-1.3 1.4-3 2.2-5.1 2.2-2 0-3.6-.6-4.9-1.7-1.3-1.1-1.9-2.6-1.9-4.3 0-2.1.8-3.8 2.4-4.9 1.6-1.1 3.9-1.7 6.8-1.7h2.5v-1.2c0-.9-.2-1.7-.7-2.2-.5-.6-1.2-.8-2.3-.8-.9 0-1.6.2-2.1.6-.5.4-.8 1-.8 1.8h-5.4c0-1.2.4-2.2 1.1-3.2.7-1 1.7-1.8 3-2.3 1.3-.6 2.8-.8 4.4-.8 2.5 0 4.4.6 5.9 1.9 1.5 1.2 2.2 3 2.2 5.2v8.7c0 1.9.3 3.3.8 4.3v.3h-5.4zm-4.5-3.7c.8 0 1.5-.2 2.2-.5.7-.4 1.2-.8 1.5-1.4v-3.5h-2c-2.7 0-4.1.9-4.3 2.8v.3c0 .7.2 1.2.7 1.7.5.3 1.1.6 1.9.6zM413.4 109.1c-.7-.1-1.4-.1-1.9-.1-2 0-3.4.7-4 2.1v13.1h-5.4v-20.1h5.1l.1 2.4c1.1-1.8 2.6-2.8 4.5-2.8.6 0 1.2.1 1.7.2l-.1 5.2zM421.6 124.2h-5.4V95.7h5.4v28.5zM433.5 116.6l3.7-12.5h5.8l-8.1 23.2-.4 1.1c-1.2 2.6-3.2 3.9-5.9 3.9-.8 0-1.6-.1-2.4-.4v-4.1h.8c1 0 1.8-.2 2.3-.5.5-.3.9-.8 1.2-1.5l.6-1.7-7-20.1h5.8l3.6 12.6zM467.4 124.2H462v-20.7l-6.4 2v-4.4l11.2-4h.6v27.1zM476.6 121.6c0-.9.3-1.5.9-2.1.6-.5 1.3-.8 2.2-.8.9 0 1.6.3 2.2.8.6.5.9 1.2.9 2.1 0 .8-.3 1.5-.9 2.1-.6.5-1.3.8-2.2.8-.9 0-1.6-.3-2.2-.8-.6-.6-.9-1.3-.9-2.1zM503.1 114h3.1v4.3h-3.1v5.8h-5.4v-5.8h-11.1l-.2-3.4 11.3-17.8h5.4V114zm-11.4 0h6v-9.5l-.4.6-5.6 8.9zM523.7 104.1l.2 2.2c1.4-1.7 3.3-2.6 5.8-2.6 2.6 0 4.4 1 5.3 3.1 1.4-2 3.4-3.1 6-3.1 2.2 0 3.8.6 4.9 1.9 1.1 1.3 1.6 3.2 1.6 5.7v12.8h-5.4v-12.8c0-1.1-.2-2-.7-2.5-.4-.5-1.2-.8-2.4-.8-1.6 0-2.7.8-3.3 2.3v13.8h-5.4v-12.8c0-1.2-.2-2-.7-2.5-.5-.5-1.2-.8-2.3-.8-1.5 0-2.6.6-3.3 1.9v14.2h-5.4V104h5.1zM551.5 98.9c0-.8.3-1.5.8-2s1.3-.8 2.2-.8c.9 0 1.6.3 2.2.8.5.5.8 1.2.8 2s-.3 1.5-.8 2c-.6.5-1.3.8-2.2.8-.9 0-1.6-.3-2.2-.8-.5-.5-.8-1.2-.8-2zm5.7 25.3h-5.4v-20.1h5.4v20.1zM567.3 124.2h-5.4V95.7h5.4v28.5zM577.4 124.2H572V95.7h5.4v28.5zM581.8 98.9c0-.8.3-1.5.8-2s1.3-.8 2.2-.8c.9 0 1.6.3 2.2.8.5.5.8 1.2.8 2s-.3 1.5-.8 2c-.6.5-1.3.8-2.2.8-.9 0-1.6-.3-2.2-.8-.6-.5-.8-1.2-.8-2zm5.7 25.3h-5.4v-20.1h5.4v20.1zM591 114c0-2 .4-3.8 1.2-5.3.8-1.6 1.9-2.8 3.3-3.6 1.4-.9 3.1-1.3 5-1.3 2.7 0 4.9.8 6.6 2.5 1.7 1.7 2.7 3.9 2.9 6.8v1.4c0 3.1-.9 5.6-2.6 7.4-1.7 1.9-4 2.8-6.9 2.8s-5.2-.9-6.9-2.8c-1.7-1.9-2.6-4.4-2.6-7.6v-.3zm5.4.4c0 1.9.4 3.4 1.1 4.4.7 1 1.7 1.5 3.1 1.5 1.3 0 2.3-.5 3-1.5.7-1 1.1-2.6 1.1-4.8 0-1.9-.4-3.3-1.1-4.3-.7-1-1.8-1.5-3.1-1.5s-2.3.5-3 1.5c-.7.9-1.1 2.5-1.1 4.7zM618.3 104.1l.2 2.3c1.4-1.8 3.4-2.7 5.8-2.7 2.1 0 3.7.6 4.8 1.9 1 1.2 1.6 3.1 1.6 5.6v13h-5.4v-12.8c0-1.1-.2-2-.7-2.5-.5-.5-1.3-.8-2.5-.8-1.5 0-2.6.6-3.4 1.9v14.2h-5.4v-20.1h5zM655.4 109.1c-.7-.1-1.4-.1-1.9-.1-2 0-3.4.7-4 2.1v13.1h-5.4v-20.1h5.1l.1 2.4c1.1-1.8 2.6-2.8 4.5-2.8.6 0 1.2.1 1.7.2l-.1 5.2zM666.9 124.6c-2.9 0-5.3-.9-7.2-2.7-1.8-1.8-2.8-4.2-2.8-7.2v-.5c0-2 .4-3.8 1.2-5.4.8-1.6 1.9-2.8 3.3-3.7 1.4-.9 3.1-1.3 4.9-1.3 2.7 0 4.9.9 6.5 2.6 1.6 1.7 2.4 4.2 2.4 7.4v2.2h-12.8c.2 1.3.7 2.4 1.6 3.2.9.8 2 1.2 3.3 1.2 2.1 0 3.7-.7 4.8-2.2l2.6 3c-.8 1.1-1.9 2-3.3 2.7-1.4.3-2.9.7-4.5.7zm-.7-16.5c-1.1 0-1.9.4-2.6 1.1-.7.7-1.1 1.8-1.3 3.1h7.5v-.4c0-1.2-.3-2.1-1-2.8-.5-.7-1.4-1-2.6-1zM696.2 114.3c0 3.1-.7 5.6-2.1 7.4-1.4 1.9-3.3 2.8-5.7 2.8-2 0-3.7-.7-4.9-2.1v9.5h-5.4v-27.8h5l.2 2c1.3-1.6 3-2.3 5.1-2.3 2.5 0 4.4.9 5.8 2.7 1.4 1.8 2.1 4.4 2.1 7.6v.2zm-5.3-.3c0-1.9-.3-3.3-1-4.3s-1.6-1.5-2.9-1.5c-1.7 0-2.8.6-3.5 1.9v8.2c.7 1.3 1.8 2 3.5 2 2.6-.1 3.9-2.2 3.9-6.3zM698.7 114c0-2 .4-3.8 1.2-5.3.8-1.6 1.9-2.8 3.3-3.6 1.4-.9 3.1-1.3 5-1.3 2.7 0 4.9.8 6.6 2.5 1.7 1.7 2.7 3.9 2.9 6.8v1.4c0 3.1-.9 5.6-2.6 7.4-1.7 1.9-4 2.8-6.9 2.8s-5.2-.9-6.9-2.8c-1.7-1.9-2.6-4.4-2.6-7.6v-.3zm5.4.4c0 1.9.4 3.4 1.1 4.4.7 1 1.7 1.5 3.1 1.5 1.3 0 2.3-.5 3-1.5.7-1 1.1-2.6 1.1-4.8 0-1.9-.4-3.3-1.1-4.3-.7-1-1.8-1.5-3.1-1.5s-2.3.5-3 1.5c-.8.9-1.1 2.5-1.1 4.7zM732.3 109.1c-.7-.1-1.4-.1-1.9-.1-2 0-3.4.7-4 2.1v13.1H721v-20.1h5.1l.1 2.4c1.1-1.8 2.6-2.8 4.5-2.8.6 0 1.2.1 1.7.2l-.1 5.2zM742.2 99.2v4.9h3.4v3.9h-3.4v10c0 .7.1 1.3.4 1.6.3.3.8.5 1.6.5.6 0 1.1 0 1.6-.1v4.1c-1.1.3-2.1.5-3.2.5-3.8 0-5.7-1.9-5.8-5.7v-10.8h-2.9v-3.9h2.9v-4.9h5.4zM759.5 118.6c0-.7-.3-1.2-1-1.5-.7-.4-1.7-.7-3.1-1-4.8-1-7.2-3-7.2-6.1 0-1.8.7-3.3 2.2-4.5 1.5-1.2 3.4-1.8 5.8-1.8 2.5 0 4.6.6 6.1 1.8 1.5 1.2 2.3 2.8 2.3 4.7h-5.4c0-.8-.2-1.4-.7-1.9-.5-.5-1.3-.8-2.3-.8-.9 0-1.6.2-2.1.6-.5.4-.7.9-.7 1.6 0 .6.3 1.1.8 1.4.6.4 1.5.7 2.8.9 1.3.3 2.5.6 3.4.9 2.8 1 4.2 2.8 4.2 5.4 0 1.8-.8 3.3-2.4 4.4-1.6 1.1-3.6 1.7-6.1 1.7-1.7 0-3.2-.3-4.5-.9-1.3-.6-2.3-1.4-3.1-2.5-.7-1-1.1-2.2-1.1-3.4h5.1c0 1 .4 1.7 1.1 2.2.7.5 1.5.8 2.6.8 1 0 1.8-.2 2.3-.6.8-.2 1-.7 1-1.4zM339.1 162c0-2 .4-3.8 1.2-5.3.8-1.6 1.9-2.8 3.3-3.6 1.4-.9 3.1-1.3 5-1.3 2.7 0 4.9.8 6.6 2.5 1.7 1.7 2.7 3.9 2.9 6.8v1.4c0 3.1-.9 5.6-2.6 7.4-1.7 1.9-4 2.8-6.9 2.8s-5.2-.9-6.9-2.8c-1.7-1.9-2.6-4.4-2.6-7.6v-.3zm5.3.4c0 1.9.4 3.4 1.1 4.4.7 1 1.7 1.5 3.1 1.5 1.3 0 2.3-.5 3-1.5.7-1 1.1-2.6 1.1-4.8 0-1.9-.4-3.3-1.1-4.3-.7-1-1.8-1.5-3.1-1.5s-2.3.5-3 1.5c-.7.9-1.1 2.5-1.1 4.7zM362.9 172.2v-16.1h-3v-3.9h3v-1.7c0-2.3.6-4 1.9-5.2 1.3-1.2 3.1-1.9 5.4-1.9.7 0 1.7.1 2.7.4l-.1 4.2c-.4-.1-1-.2-1.6-.2-2 0-3 .9-3 2.8v1.6h4v3.9h-4v16.1h-5.3zM384.4 146.9c0-.8.3-1.5.8-2s1.3-.8 2.2-.8c.9 0 1.6.3 2.2.8.5.5.8 1.2.8 2s-.3 1.5-.8 2c-.6.5-1.3.8-2.2.8-.9 0-1.6-.3-2.2-.8-.5-.5-.8-1.2-.8-2zm5.7 25.3h-5.4v-20.1h5.4v20.1zM393.7 162c0-3.1.7-5.6 2.1-7.5 1.4-1.9 3.3-2.8 5.8-2.8 2 0 3.6.7 4.8 2.2v-10.2h5.4v28.5H407l-.3-2.1c-1.3 1.7-3.1 2.5-5.2 2.5-2.4 0-4.3-.9-5.7-2.8-1.4-1.9-2.1-4.5-2.1-7.8zm5.4.4c0 1.9.3 3.3 1 4.3s1.6 1.5 2.9 1.5c1.7 0 2.8-.7 3.5-2.1v-7.9c-.7-1.4-1.8-2.1-3.5-2.1-2.6 0-3.9 2.1-3.9 6.3zM425.2 172.6c-2.9 0-5.3-.9-7.2-2.7-1.8-1.8-2.8-4.2-2.8-7.2v-.5c0-2 .4-3.8 1.2-5.4.8-1.6 1.9-2.8 3.3-3.7 1.4-.9 3.1-1.3 4.9-1.3 2.7 0 4.9.9 6.5 2.6 1.6 1.7 2.4 4.2 2.4 7.4v2.2h-12.8c.2 1.3.7 2.4 1.6 3.2.9.8 2 1.2 3.3 1.2 2.1 0 3.7-.7 4.8-2.2l2.6 3c-.8 1.1-1.9 2-3.3 2.7-1.3.3-2.8.7-4.5.7zm-.6-16.5c-1.1 0-1.9.4-2.6 1.1-.7.7-1.1 1.8-1.3 3.1h7.5v-.4c0-1.2-.3-2.1-1-2.8-.6-.7-1.5-1-2.6-1zM441.4 152.1l.2 2.3c1.4-1.8 3.4-2.7 5.8-2.7 2.1 0 3.7.6 4.8 1.9 1 1.2 1.6 3.1 1.6 5.6v13h-5.4v-12.8c0-1.1-.2-2-.7-2.5-.5-.5-1.3-.8-2.5-.8-1.5 0-2.6.6-3.4 1.9v14.2h-5.4v-20.1h5zM464.2 147.2v4.9h3.4v3.9h-3.4v10c0 .7.1 1.3.4 1.6.3.3.8.5 1.6.5.6 0 1.1 0 1.6-.1v4.1c-1.1.3-2.1.5-3.2.5-3.8 0-5.7-1.9-5.8-5.7v-10.8h-2.9v-3.9h2.9v-4.9h5.4zM470.6 146.9c0-.8.3-1.5.8-2s1.3-.8 2.2-.8c.9 0 1.6.3 2.2.8.5.5.8 1.2.8 2s-.3 1.5-.8 2c-.6.5-1.3.8-2.2.8-.9 0-1.6-.3-2.2-.8-.5-.5-.8-1.2-.8-2zm5.7 25.3h-5.4v-20.1h5.4v20.1zM487.1 147.2v4.9h3.4v3.9h-3.4v10c0 .7.1 1.3.4 1.6.3.3.8.5 1.6.5.6 0 1.1 0 1.6-.1v4.1c-1.1.3-2.1.5-3.2.5-3.8 0-5.7-1.9-5.8-5.7v-10.8h-2.9v-3.9h2.9v-4.9h5.4zM501 164.6l3.7-12.5h5.8l-8.1 23.2-.4 1.1c-1.2 2.6-3.2 3.9-5.9 3.9-.8 0-1.6-.1-2.4-.4v-4.1h.8c1 0 1.8-.2 2.3-.5.5-.3.9-.8 1.2-1.5l.6-1.7-7-20.1h5.8l3.6 12.6zM528.5 147.2v4.9h3.4v3.9h-3.4v10c0 .7.1 1.3.4 1.6.3.3.8.5 1.6.5.6 0 1.1 0 1.6-.1v4.1c-1.1.3-2.1.5-3.2.5-3.8 0-5.7-1.9-5.8-5.7v-10.8h-2.9v-3.9h2.9v-4.9h5.4zM540.1 154.3c1.4-1.7 3.2-2.6 5.4-2.6 4.4 0 6.6 2.5 6.6 7.6v12.9h-5.4v-12.7c0-1.2-.2-2-.7-2.6-.5-.5-1.3-.8-2.5-.8-1.6 0-2.7.6-3.4 1.8v14.3h-5.4v-28.5h5.4v10.6zM565.4 172.6c-2.9 0-5.3-.9-7.2-2.7-1.8-1.8-2.8-4.2-2.8-7.2v-.5c0-2 .4-3.8 1.2-5.4.8-1.6 1.9-2.8 3.3-3.7 1.4-.9 3.1-1.3 4.9-1.3 2.7 0 4.9.9 6.5 2.6 1.6 1.7 2.4 4.2 2.4 7.4v2.2h-12.8c.2 1.3.7 2.4 1.6 3.2.9.8 2 1.2 3.3 1.2 2.1 0 3.7-.7 4.8-2.2l2.6 3c-.8 1.1-1.9 2-3.3 2.7-1.3.3-2.8.7-4.5.7zm-.6-16.5c-1.1 0-1.9.4-2.6 1.1-.7.7-1.1 1.8-1.3 3.1h7.5v-.4c0-1.2-.3-2.1-1-2.8-.6-.7-1.5-1-2.6-1zM578.2 172.2v-16.1h-3v-3.9h3v-1.7c0-2.3.6-4 1.9-5.2 1.3-1.2 3.1-1.9 5.4-1.9.7 0 1.7.1 2.7.4l-.1 4.2c-.4-.1-1-.2-1.6-.2-2 0-3 .9-3 2.8v1.6h4v3.9h-4v16.1h-5.3zM596.8 147.2v4.9h3.4v3.9h-3.4v10c0 .7.1 1.3.4 1.6.3.3.8.5 1.6.5.6 0 1.1 0 1.6-.1v4.1c-1.1.3-2.1.5-3.2.5-3.8 0-5.7-1.9-5.8-5.7v-10.8h-2.9v-3.9h2.9v-4.9h5.4zM603.5 169.6c0-.9.3-1.5.9-2.1.6-.5 1.3-.8 2.2-.8.9 0 1.6.3 2.2.8.6.5.9 1.2.9 2.1 0 .8-.3 1.5-.9 2.1-.6.5-1.3.8-2.2.8-.9 0-1.6-.3-2.2-.8-.7-.6-.9-1.3-.9-2.1z"/></g></svg>