<svg id="Layer_1" xmlns="http://www.w3.org/2000/svg" viewBox="0 0 970 250"><style>.st0{fill:#edf4fd}</style><path class="st0" d="M64.1 64.8v-27h8.3c2.4 0 4.5.5 6.4 1.6 1.9 1.1 3.3 2.6 4.4 4.6 1.1 2 1.6 4.2 1.6 6.7v1.2c0 2.5-.5 4.7-1.5 6.7s-2.5 3.5-4.4 4.5c-1.9 1.1-4 1.6-6.4 1.6h-8.4zm5.6-22.5v18h2.7c2.2 0 3.8-.7 5-2.1 1.2-1.4 1.7-3.5 1.8-6.1v-1.4c0-2.7-.6-4.8-1.7-6.2-1.1-1.4-2.8-2.1-5-2.1h-2.8zM87.6 54.6c0-2 .4-3.8 1.2-5.3.8-1.6 1.9-2.8 3.3-3.6 1.4-.9 3.1-1.3 5-1.3 2.7 0 4.9.8 6.6 2.5 1.7 1.7 2.7 3.9 2.9 6.8v1.4c0 3.1-.9 5.6-2.6 7.4-1.7 1.9-4 2.8-6.9 2.8s-5.2-.9-6.9-2.8c-1.7-1.9-2.6-4.4-2.6-7.6v-.3zm5.4.4c0 1.9.4 3.4 1.1 4.4.7 1 1.7 1.5 3.1 1.5 1.3 0 2.3-.5 3-1.5.7-1 1.1-2.6 1.1-4.8 0-1.9-.4-3.3-1.1-4.3-.7-1-1.8-1.5-3.1-1.5s-2.3.5-3 1.5c-.8.9-1.1 2.5-1.1 4.7zM127.4 57.5l2.6-12.8h5.2l-5.1 20.1h-4.5l-3.8-12.6-3.8 12.6h-4.5l-5.1-20.1h5.2l2.6 12.8 3.7-12.8h3.9l3.6 12.8zM142.8 44.7l.2 2.3c1.4-1.8 3.4-2.7 5.8-2.7 2.1 0 3.7.6 4.8 1.9 1 1.2 1.6 3.1 1.6 5.6v13h-5.4V52c0-1.1-.2-2-.7-2.5-.5-.5-1.3-.8-2.5-.8-1.5 0-2.6.6-3.4 1.9v14.2h-5.4V44.7h5zM164.8 64.8h-5.4V36.3h5.4v28.5zM168.4 54.6c0-2 .4-3.8 1.2-5.3.8-1.6 1.9-2.8 3.3-3.6 1.4-.9 3.1-1.3 5-1.3 2.7 0 4.9.8 6.6 2.5 1.7 1.7 2.7 3.9 2.9 6.8v1.4c0 3.1-.9 5.6-2.6 7.4-1.7 1.9-4 2.8-6.9 2.8s-5.2-.9-6.9-2.8c-1.7-1.9-2.6-4.4-2.6-7.6v-.3zm5.4.4c0 1.9.4 3.4 1.1 4.4.7 1 1.7 1.5 3.1 1.5 1.3 0 2.3-.5 3-1.5.7-1 1.1-2.6 1.1-4.8 0-1.9-.4-3.3-1.1-4.3-.7-1-1.8-1.5-3.1-1.5s-2.3.5-3 1.5c-.8.9-1.1 2.5-1.1 4.7zM202.3 64.8c-.2-.5-.4-1.1-.5-1.8-1.3 1.4-3 2.2-5.1 2.2-2 0-3.6-.6-4.9-1.7-1.3-1.1-1.9-2.6-1.9-4.3 0-2.1.8-3.8 2.4-4.9 1.6-1.1 3.9-1.7 6.8-1.7h2.5v-1.2c0-.9-.2-1.7-.7-2.2-.5-.6-1.2-.8-2.3-.8-.9 0-1.6.2-2.1.6-.5.4-.8 1-.8 1.8h-5.4c0-1.2.4-2.2 1.1-3.2.7-1 1.7-1.8 3-2.3 1.3-.6 2.8-.8 4.4-.8 2.5 0 4.4.6 5.9 1.9 1.5 1.2 2.2 3 2.2 5.2v8.7c0 1.9.3 3.3.8 4.3v.3h-5.4zm-4.4-3.7c.8 0 1.5-.2 2.2-.5.7-.4 1.2-.8 1.5-1.4v-3.5h-2c-2.7 0-4.1.9-4.3 2.8v.3c0 .7.2 1.2.7 1.7.4.4 1.1.6 1.9.6zM210.2 54.6c0-3.1.7-5.6 2.1-7.5 1.4-1.9 3.3-2.8 5.8-2.8 2 0 3.6.7 4.8 2.2V36.3h5.4v28.5h-4.8l-.3-2.1c-1.3 1.7-3.1 2.5-5.2 2.5-2.4 0-4.3-.9-5.7-2.8-1.3-1.9-2.1-4.5-2.1-7.8zm5.4.4c0 1.9.3 3.3 1 4.3s1.6 1.5 2.9 1.5c1.7 0 2.8-.7 3.5-2.1v-7.9c-.7-1.4-1.8-2.1-3.5-2.1-2.6 0-3.9 2.1-3.9 6.3zM261.5 42.3h-8.3v22.5h-5.6V42.3h-8.2v-4.5h22v4.5zM269.6 46.9c1.4-1.7 3.2-2.6 5.4-2.6 4.4 0 6.6 2.5 6.6 7.6v12.9h-5.4V52.1c0-1.2-.2-2-.7-2.6-.5-.5-1.3-.8-2.5-.8-1.6 0-2.7.6-3.4 1.8v14.3h-5.4V36.3h5.4v10.6zM294.9 65.2c-2.9 0-5.3-.9-7.2-2.7-1.8-1.8-2.8-4.2-2.8-7.2v-.5c0-2 .4-3.8 1.2-5.4.8-1.6 1.9-2.8 3.3-3.7 1.4-.9 3.1-1.3 4.9-1.3 2.7 0 4.9.9 6.5 2.6 1.6 1.7 2.4 4.2 2.4 7.4v2.2h-12.8c.2 1.3.7 2.4 1.6 3.2.9.8 2 1.2 3.3 1.2 2.1 0 3.7-.7 4.8-2.2l2.6 3c-.8 1.1-1.9 2-3.3 2.7-1.4.4-2.9.7-4.5.7zm-.7-16.5c-1.1 0-1.9.4-2.6 1.1-.7.7-1.1 1.8-1.3 3.1h7.5v-.4c0-1.2-.3-2.1-1-2.8-.5-.7-1.4-1-2.6-1zM321.5 55.3v9.5H316v-27h10.5c2 0 3.8.4 5.4 1.1 1.5.7 2.7 1.8 3.6 3.2.8 1.4 1.2 2.9 1.2 4.7 0 2.6-.9 4.7-2.7 6.3-1.8 1.5-4.3 2.3-7.5 2.3h-5zm0-4.5h5c1.5 0 2.6-.3 3.4-1 .8-.7 1.2-1.7 1.2-3s-.4-2.4-1.2-3.2-1.9-1.2-3.2-1.3h-5.1v8.5zM351.4 49.8c-.7-.1-1.4-.1-1.9-.1-2 0-3.4.7-4 2.1v13.1h-5.4V44.7h5.1l.1 2.4c1.1-1.8 2.6-2.8 4.5-2.8.6 0 1.2.1 1.7.2l-.1 5.3zM354 39.5c0-.8.3-1.5.8-2s1.3-.8 2.2-.8c.9 0 1.6.3 2.2.8.5.5.8 1.2.8 2s-.3 1.5-.8 2c-.6.5-1.3.8-2.2.8-.9 0-1.6-.3-2.2-.8-.6-.5-.8-1.1-.8-2zm5.7 25.3h-5.4V44.7h5.4v20.1zM371.6 58.3l3.7-13.5h5.6l-6.8 20.1H369l-6.8-20.1h5.6l3.8 13.5zM394.6 64.8c-.2-.5-.4-1.1-.5-1.8-1.3 1.4-3 2.2-5.1 2.2-2 0-3.6-.6-4.9-1.7-1.3-1.1-1.9-2.6-1.9-4.3 0-2.1.8-3.8 2.4-4.9 1.6-1.1 3.9-1.7 6.8-1.7h2.5v-1.2c0-.9-.2-1.7-.7-2.2-.5-.6-1.2-.8-2.3-.8-.9 0-1.6.2-2.1.6-.5.4-.8 1-.8 1.8h-5.4c0-1.2.4-2.2 1.1-3.2.7-1 1.7-1.8 3-2.3 1.3-.6 2.8-.8 4.4-.8 2.5 0 4.4.6 5.9 1.9 1.5 1.2 2.2 3 2.2 5.2v8.7c0 1.9.3 3.3.8 4.3v.3h-5.4zm-4.4-3.7c.8 0 1.5-.2 2.2-.5.7-.4 1.2-.8 1.5-1.4v-3.5h-2c-2.7 0-4.1.9-4.3 2.8v.3c0 .7.2 1.2.7 1.7.4.4 1.1.6 1.9.6zM411.7 60.9c1 0 1.8-.3 2.4-.8.6-.5.9-1.3 1-2.2h5c0 1.4-.4 2.6-1.1 3.7-.7 1.1-1.7 2-3 2.6-1.3.6-2.7.9-4.2.9-2.9 0-5.1-.9-6.8-2.7-1.7-1.8-2.5-4.3-2.5-7.6v-.4c0-3.1.8-5.6 2.5-7.4 1.6-1.8 3.9-2.8 6.8-2.8 2.5 0 4.5.7 6 2.1 1.5 1.4 2.3 3.3 2.3 5.7h-5c0-1-.3-1.9-1-2.5-.6-.7-1.4-1-2.4-1-1.2 0-2.2.5-2.8 1.4-.6.9-1 2.4-1 4.4v.7c0 2.1.3 3.6.9 4.5s1.6 1.4 2.9 1.4zM430.7 57.2l3.7-12.5h5.8l-8.1 23.2-.4 1.1c-1.2 2.6-3.2 3.9-5.9 3.9-.8 0-1.6-.1-2.4-.4v-4.1h.8c1 0 1.8-.2 2.3-.5.5-.3.9-.8 1.2-1.5l.6-1.7-7-20.1h5.8l3.6 12.6zM464 61.4c-1 1.2-2.4 2.1-4.2 2.8-1.8.7-3.9 1-6.1 1-2.3 0-4.4-.5-6.2-1.5-1.8-1-3.1-2.5-4.1-4.4-1-1.9-1.5-4.2-1.5-6.8v-1.8c0-2.7.5-5 1.4-7 .9-2 2.2-3.5 3.9-4.5 1.7-1 3.7-1.6 6-1.6 3.2 0 5.7.8 7.5 2.3 1.8 1.5 2.9 3.8 3.2 6.7h-5.4c-.2-1.5-.8-2.7-1.6-3.4-.8-.7-2-1.1-3.5-1.1-1.9 0-3.3.7-4.3 2.1-1 1.4-1.5 3.5-1.5 6.3v1.7c0 2.8.5 5 1.6 6.4s2.7 2.2 4.7 2.2c2.1 0 3.6-.4 4.5-1.3v-4.7h-5.1v-4.1H464v10.7zM480.2 62.8c-1.3 1.6-3.2 2.4-5.5 2.4-2.2 0-3.8-.6-4.9-1.9-1.1-1.2-1.7-3-1.7-5.4V44.7h5.4v13c0 2.1 1 3.1 2.9 3.1 1.8 0 3.1-.6 3.7-1.9V44.7h5.4v20.1h-5l-.3-2zM501 64.8c-.2-.5-.4-1.1-.5-1.8-1.3 1.4-3 2.2-5.1 2.2-2 0-3.6-.6-4.9-1.7-1.3-1.1-1.9-2.6-1.9-4.3 0-2.1.8-3.8 2.4-4.9 1.6-1.1 3.9-1.7 6.8-1.7h2.5v-1.2c0-.9-.2-1.7-.7-2.2-.5-.6-1.2-.8-2.3-.8-.9 0-1.6.2-2.1.6-.5.4-.8 1-.8 1.8H489c0-1.2.4-2.2 1.1-3.2.7-1 1.7-1.8 3-2.3 1.3-.6 2.8-.8 4.4-.8 2.5 0 4.4.6 5.9 1.9 1.5 1.2 2.2 3 2.2 5.2v8.7c0 1.9.3 3.3.8 4.3v.3H501zm-4.4-3.7c.8 0 1.5-.2 2.2-.5.7-.4 1.2-.8 1.5-1.4v-3.5h-2c-2.7 0-4.1.9-4.3 2.8v.3c0 .7.2 1.2.7 1.7.4.4 1.1.6 1.9.6zM521.1 49.8c-.7-.1-1.4-.1-1.9-.1-2 0-3.4.7-4 2.1v13.1h-5.4V44.7h5.1l.1 2.4c1.1-1.8 2.6-2.8 4.5-2.8.6 0 1.2.1 1.7.2l-.1 5.3zM522.8 54.6c0-3.1.7-5.6 2.1-7.5 1.4-1.9 3.3-2.8 5.8-2.8 2 0 3.6.7 4.8 2.2V36.3h5.4v28.5H536l-.3-2.1c-1.3 1.7-3.1 2.5-5.2 2.5-2.4 0-4.3-.9-5.7-2.8-1.3-1.9-2-4.5-2-7.8zm5.4.4c0 1.9.3 3.3 1 4.3s1.6 1.5 2.9 1.5c1.7 0 2.8-.7 3.5-2.1v-7.9c-.7-1.4-1.8-2.1-3.5-2.1-2.6 0-3.9 2.1-3.9 6.3zM570.1 59.2h-9.8l-1.9 5.6h-5.9l10.1-27h5.2l10.1 27H572l-1.9-5.6zm-8.2-4.5h6.8l-3.4-10.1-3.4 10.1zM598.2 55c0 3.1-.7 5.6-2.1 7.4-1.4 1.9-3.3 2.8-5.7 2.8-2 0-3.7-.7-4.9-2.1v9.5h-5.4V44.7h5l.2 2c1.3-1.6 3-2.3 5.1-2.3 2.5 0 4.4.9 5.8 2.7 1.4 1.8 2.1 4.4 2.1 7.6v.3zm-5.4-.4c0-1.9-.3-3.3-1-4.3s-1.6-1.5-2.9-1.5c-1.7 0-2.8.6-3.5 1.9v8.2c.7 1.3 1.8 2 3.5 2 2.6 0 3.9-2.1 3.9-6.3zM619.5 55c0 3.1-.7 5.6-2.1 7.4-1.4 1.9-3.3 2.8-5.7 2.8-2 0-3.7-.7-4.9-2.1v9.5h-5.4V44.7h5l.2 2c1.3-1.6 3-2.3 5.1-2.3 2.5 0 4.4.9 5.8 2.7 1.4 1.8 2.1 4.4 2.1 7.6v.3zm-5.3-.4c0-1.9-.3-3.3-1-4.3s-1.6-1.5-2.9-1.5c-1.7 0-2.8.6-3.5 1.9v8.2c.7 1.3 1.8 2 3.5 2 2.6 0 3.9-2.1 3.9-6.3zM70.2 87.8v4.9h3.4v3.9h-3.4v10c0 .7.1 1.3.4 1.6.3.3.8.5 1.6.5.6 0 1.1 0 1.6-.1v4.1c-1.1.3-2.1.5-3.2.5-3.8 0-5.7-1.9-5.8-5.7V96.7h-2.9v-3.9h2.9v-4.9h5.4zM75.2 102.6c0-2 .4-3.8 1.2-5.3.8-1.6 1.9-2.8 3.3-3.6 1.4-.9 3.1-1.3 5-1.3 2.7 0 4.9.8 6.6 2.5 1.7 1.7 2.7 3.9 2.9 6.8v1.4c0 3.1-.9 5.6-2.6 7.4-1.7 1.9-4 2.8-6.9 2.8s-5.2-.9-6.9-2.8c-1.7-1.9-2.6-4.4-2.6-7.6v-.3zm5.4.4c0 1.9.4 3.4 1.1 4.4.7 1 1.7 1.5 3.1 1.5 1.3 0 2.3-.5 3-1.5.7-1 1.1-2.6 1.1-4.8 0-1.9-.4-3.3-1.1-4.3-.7-1-1.8-1.5-3.1-1.5s-2.3.5-3 1.5c-.8.9-1.1 2.5-1.1 4.7zM112.2 94.9c1.4-1.7 3.2-2.6 5.4-2.6 4.4 0 6.6 2.5 6.6 7.6v12.9h-5.4v-12.7c0-1.2-.2-2-.7-2.6-.5-.5-1.3-.8-2.5-.8-1.6 0-2.7.6-3.4 1.8v14.3h-5.4V84.3h5.4v10.6zM137.5 113.2c-2.9 0-5.3-.9-7.2-2.7-1.8-1.8-2.8-4.2-2.8-7.2v-.5c0-2 .4-3.8 1.2-5.4.8-1.6 1.9-2.8 3.3-3.7 1.4-.9 3.1-1.3 4.9-1.3 2.7 0 4.9.9 6.5 2.6 1.6 1.7 2.4 4.2 2.4 7.4v2.2H133c.2 1.3.7 2.4 1.6 3.2.9.8 2 1.2 3.3 1.2 2.1 0 3.7-.7 4.8-2.2l2.6 3c-.8 1.1-1.9 2-3.3 2.7-1.3.4-2.8.7-4.5.7zm-.6-16.5c-1.1 0-1.9.4-2.6 1.1-.7.7-1.1 1.8-1.3 3.1h7.5v-.4c0-1.2-.3-2.1-1-2.8-.6-.7-1.5-1-2.6-1zM154.5 112.8h-5.4V84.3h5.4v28.5zM176.9 103c0 3.1-.7 5.6-2.1 7.4-1.4 1.9-3.3 2.8-5.7 2.8-2 0-3.7-.7-4.9-2.1v9.5h-5.4V92.7h5l.2 2c1.3-1.6 3-2.3 5.1-2.3 2.5 0 4.4.9 5.8 2.7 1.4 1.8 2.1 4.4 2.1 7.6v.3zm-5.3-.4c0-1.9-.3-3.3-1-4.3s-1.6-1.5-2.9-1.5c-1.7 0-2.8.6-3.5 1.9v8.2c.7 1.3 1.8 2 3.5 2 2.6 0 3.9-2.1 3.9-6.3zM207.8 103c0 3.1-.7 5.6-2.1 7.4-1.4 1.9-3.3 2.8-5.7 2.8-2 0-3.7-.7-4.9-2.1v9.5h-5.4V92.7h5l.2 2c1.3-1.6 3-2.3 5.1-2.3 2.5 0 4.4.9 5.8 2.7 1.4 1.8 2.1 4.4 2.1 7.6v.3zm-5.4-.4c0-1.9-.3-3.3-1-4.3s-1.6-1.5-2.9-1.5c-1.7 0-2.8.6-3.5 1.9v8.2c.7 1.3 1.8 2 3.5 2 2.7 0 3.9-2.1 3.9-6.3zM222.4 97.8c-.7-.1-1.4-.1-1.9-.1-2 0-3.4.7-4 2.1v13.1h-5.4V92.7h5.1l.1 2.4c1.1-1.8 2.6-2.8 4.5-2.8.6 0 1.2.1 1.7.2l-.1 5.3zM223.5 102.6c0-2 .4-3.8 1.2-5.3.8-1.6 1.9-2.8 3.3-3.6 1.4-.9 3.1-1.3 5-1.3 2.7 0 4.9.8 6.6 2.5 1.7 1.7 2.7 3.9 2.9 6.8v1.4c0 3.1-.9 5.6-2.6 7.4-1.7 1.9-4 2.8-6.9 2.8s-5.2-.9-6.9-2.8c-1.7-1.9-2.6-4.4-2.6-7.6v-.3zm5.3.4c0 1.9.4 3.4 1.1 4.4.7 1 1.7 1.5 3.1 1.5 1.3 0 2.3-.5 3-1.5.7-1 1.1-2.6 1.1-4.8 0-1.9-.4-3.3-1.1-4.3-.7-1-1.8-1.5-3.1-1.5s-2.3.5-3 1.5c-.7.9-1.1 2.5-1.1 4.7zM252.2 87.8v4.9h3.4v3.9h-3.4v10c0 .7.1 1.3.4 1.6.3.3.8.5 1.6.5.6 0 1.1 0 1.6-.1v4.1c-1.1.3-2.1.5-3.2.5-3.8 0-5.7-1.9-5.8-5.7V96.7h-2.9v-3.9h2.9v-4.9h5.4zM267.9 113.2c-2.9 0-5.3-.9-7.2-2.7-1.8-1.8-2.8-4.2-2.8-7.2v-.5c0-2 .4-3.8 1.2-5.4.8-1.6 1.9-2.8 3.3-3.7 1.4-.9 3.1-1.3 4.9-1.3 2.7 0 4.9.9 6.5 2.6 1.6 1.7 2.4 4.2 2.4 7.4v2.2h-12.8c.2 1.3.7 2.4 1.6 3.2.9.8 2 1.2 3.3 1.2 2.1 0 3.7-.7 4.8-2.2l2.6 3c-.8 1.1-1.9 2-3.3 2.7-1.3.4-2.9.7-4.5.7zm-.6-16.5c-1.1 0-1.9.4-2.6 1.1-.7.7-1.1 1.8-1.3 3.1h7.5v-.4c0-1.2-.3-2.1-1-2.8-.6-.7-1.5-1-2.6-1zM287.5 108.9c1 0 1.8-.3 2.4-.8.6-.5.9-1.3 1-2.2h5c0 1.4-.4 2.6-1.1 3.7-.7 1.1-1.7 2-3 2.6-1.3.6-2.7.9-4.2.9-2.9 0-5.1-.9-6.8-2.7-1.7-1.8-2.5-4.3-2.5-7.6v-.4c0-3.1.8-5.6 2.5-7.4 1.6-1.8 3.9-2.8 6.8-2.8 2.5 0 4.5.7 6 2.1 1.5 1.4 2.3 3.3 2.3 5.7h-5c0-1-.3-1.9-1-2.5-.6-.7-1.4-1-2.4-1-1.2 0-2.2.5-2.8 1.4-.6.9-1 2.4-1 4.4v.6c0 2.1.3 3.6.9 4.5s1.6 1.5 2.9 1.5zM305.4 87.8v4.9h3.4v3.9h-3.4v10c0 .7.1 1.3.4 1.6.3.3.8.5 1.6.5.6 0 1.1 0 1.6-.1v4.1c-1.1.3-2.1.5-3.2.5-3.8 0-5.7-1.9-5.8-5.7V96.7h-2.9v-3.9h2.9v-4.9h5.4zM332.9 112.8c-.2-.5-.4-1.1-.5-1.8-1.3 1.4-3 2.2-5.1 2.2-2 0-3.6-.6-4.9-1.7-1.3-1.1-1.9-2.6-1.9-4.3 0-2.1.8-3.8 2.4-4.9 1.6-1.1 3.9-1.7 6.8-1.7h2.5v-1.2c0-.9-.2-1.7-.7-2.2-.5-.6-1.2-.8-2.3-.8-.9 0-1.6.2-2.1.6-.5.4-.8 1-.8 1.8h-5.4c0-1.2.4-2.2 1.1-3.2.7-1 1.7-1.8 3-2.3 1.3-.6 2.8-.8 4.4-.8 2.5 0 4.4.6 5.9 1.9 1.5 1.2 2.2 3 2.2 5.2v8.7c0 1.9.3 3.3.8 4.3v.3h-5.4zm-4.4-3.7c.8 0 1.5-.2 2.2-.5.7-.4 1.2-.8 1.5-1.4v-3.5h-2c-2.7 0-4.1.9-4.3 2.8v.3c0 .7.2 1.2.7 1.7.4.4 1.1.6 1.9.6zM340.9 102.6c0-3.1.7-5.6 2.2-7.4 1.5-1.9 3.4-2.8 5.9-2.8 2.2 0 3.9.8 5.1 2.3l.2-1.9h4.9v19.4c0 1.8-.4 3.3-1.2 4.6-.8 1.3-1.9 2.3-3.4 3-1.4.7-3.1 1-5.1 1-1.5 0-2.9-.3-4.3-.9-1.4-.6-2.5-1.3-3.2-2.3l2.4-3.3c1.3 1.5 3 2.2 4.9 2.2 1.4 0 2.5-.4 3.3-1.1.8-.8 1.2-1.8 1.2-3.2v-1.1c-1.2 1.4-2.9 2.1-4.9 2.1-2.4 0-4.4-.9-5.9-2.8s-2.2-4.4-2.2-7.5v-.3zm5.4.4c0 1.8.4 3.2 1.1 4.3.7 1 1.7 1.6 3 1.6 1.6 0 2.8-.6 3.5-1.8v-8.5c-.7-1.2-1.9-1.8-3.5-1.8-1.3 0-2.3.5-3 1.6-.8 1-1.1 2.5-1.1 4.6zM375 112.8c-.2-.5-.4-1.1-.5-1.8-1.3 1.4-3 2.2-5.1 2.2-2 0-3.6-.6-4.9-1.7-1.3-1.1-1.9-2.6-1.9-4.3 0-2.1.8-3.8 2.4-4.9 1.6-1.1 3.9-1.7 6.8-1.7h2.5v-1.2c0-.9-.2-1.7-.7-2.2-.5-.6-1.2-.8-2.3-.8-.9 0-1.6.2-2.1.6-.5.4-.8 1-.8 1.8H363c0-1.2.4-2.2 1.1-3.2.7-1 1.7-1.8 3-2.3 1.3-.6 2.8-.8 4.4-.8 2.5 0 4.4.6 5.9 1.9 1.5 1.2 2.2 3 2.2 5.2v8.7c0 1.9.3 3.3.8 4.3v.3H375zm-4.4-3.7c.8 0 1.5-.2 2.2-.5.7-.4 1.2-.8 1.5-1.4v-3.5h-2c-2.7 0-4.1.9-4.3 2.8v.3c0 .7.2 1.2.7 1.7.4.4 1 .6 1.9.6zM383.7 87.5c0-.8.3-1.5.8-2s1.3-.8 2.2-.8c.9 0 1.6.3 2.2.8.5.5.8 1.2.8 2s-.3 1.5-.8 2c-.6.5-1.3.8-2.2.8-.9 0-1.6-.3-2.2-.8-.5-.5-.8-1.1-.8-2zm5.7 25.3H384V92.7h5.4v20.1zM398.7 92.7l.2 2.3c1.4-1.8 3.4-2.7 5.8-2.7 2.1 0 3.7.6 4.8 1.9 1 1.2 1.6 3.1 1.6 5.6v13h-5.4V100c0-1.1-.2-2-.7-2.5-.5-.5-1.3-.8-2.5-.8-1.5 0-2.6.6-3.4 1.9v14.2h-5.4V92.7h5zM426 107.3c0-.7-.3-1.2-1-1.5-.7-.4-1.7-.7-3.1-1-4.8-1-7.2-3-7.2-6.1 0-1.8.7-3.3 2.2-4.5 1.5-1.2 3.4-1.8 5.8-1.8 2.5 0 4.6.6 6.1 1.8 1.5 1.2 2.3 2.8 2.3 4.7h-5.4c0-.8-.2-1.4-.7-1.9-.5-.5-1.3-.8-2.3-.8-.9 0-1.6.2-2.1.6-.5.4-.7.9-.7 1.6 0 .6.3 1.1.8 1.4.6.4 1.5.7 2.8.9 1.3.3 2.5.6 3.4.9 2.8 1 4.2 2.8 4.2 5.4 0 1.8-.8 3.3-2.4 4.4-1.6 1.1-3.6 1.7-6.1 1.7-1.7 0-3.2-.3-4.5-.9-1.3-.6-2.3-1.4-3.1-2.5-.7-1-1.1-2.2-1.1-3.4h5.1c0 1 .4 1.7 1.1 2.2.7.5 1.5.8 2.6.8 1 0 1.8-.2 2.3-.6.7-.3 1-.8 1-1.4zM441 87.8v4.9h3.4v3.9H441v10c0 .7.1 1.3.4 1.6.3.3.8.5 1.6.5.6 0 1.1 0 1.6-.1v4.1c-1.1.3-2.1.5-3.2.5-3.8 0-5.7-1.9-5.8-5.7V96.7h-2.9v-3.9h2.9v-4.9h5.4zM456.9 87.5c0-.8.3-1.5.8-2s1.3-.8 2.2-.8c.9 0 1.6.3 2.2.8.5.5.8 1.2.8 2s-.3 1.5-.8 2c-.6.5-1.3.8-2.2.8-.9 0-1.6-.3-2.2-.8-.5-.5-.8-1.1-.8-2zm5.7 25.3h-5.4V92.7h5.4v20.1zM466.2 102.6c0-3.1.7-5.6 2.1-7.5 1.4-1.9 3.3-2.8 5.8-2.8 2 0 3.6.7 4.8 2.2V84.3h5.4v28.5h-4.8l-.3-2.1c-1.3 1.7-3.1 2.5-5.2 2.5-2.4 0-4.3-.9-5.7-2.8-1.4-1.9-2.1-4.5-2.1-7.8zm5.3.4c0 1.9.3 3.3 1 4.3s1.6 1.5 2.9 1.5c1.7 0 2.8-.7 3.5-2.1v-7.9c-.7-1.4-1.8-2.1-3.5-2.1-2.6 0-3.9 2.1-3.9 6.3zM497.7 113.2c-2.9 0-5.3-.9-7.2-2.7-1.8-1.8-2.8-4.2-2.8-7.2v-.5c0-2 .4-3.8 1.2-5.4.8-1.6 1.9-2.8 3.3-3.7 1.4-.9 3.1-1.3 4.9-1.3 2.7 0 4.9.9 6.5 2.6 1.6 1.7 2.4 4.2 2.4 7.4v2.2h-12.8c.2 1.3.7 2.4 1.6 3.2.9.8 2 1.2 3.3 1.2 2.1 0 3.7-.7 4.8-2.2l2.6 3c-.8 1.1-1.9 2-3.3 2.7-1.3.4-2.9.7-4.5.7zm-.7-16.5c-1.1 0-1.9.4-2.6 1.1-.7.7-1.1 1.8-1.3 3.1h7.5v-.4c0-1.2-.3-2.1-1-2.8-.5-.7-1.4-1-2.6-1zM513.9 92.7l.2 2.3c1.4-1.8 3.4-2.7 5.8-2.7 2.1 0 3.7.6 4.8 1.9 1 1.2 1.6 3.1 1.6 5.6v13h-5.4V100c0-1.1-.2-2-.7-2.5-.5-.5-1.3-.8-2.5-.8-1.5 0-2.6.6-3.4 1.9v14.2h-5.4V92.7h5zM536.7 87.8v4.9h3.4v3.9h-3.4v10c0 .7.1 1.3.4 1.6.3.3.8.5 1.6.5.6 0 1.1 0 1.6-.1v4.1c-1.1.3-2.1.5-3.2.5-3.8 0-5.7-1.9-5.8-5.7V96.7h-2.9v-3.9h2.9v-4.9h5.4zM543 87.5c0-.8.3-1.5.8-2s1.3-.8 2.2-.8c.9 0 1.6.3 2.2.8.5.5.8 1.2.8 2s-.3 1.5-.8 2c-.6.5-1.3.8-2.2.8-.9 0-1.6-.3-2.2-.8-.5-.5-.8-1.1-.8-2zm5.7 25.3h-5.4V92.7h5.4v20.1zM559.6 87.8v4.9h3.4v3.9h-3.4v10c0 .7.1 1.3.4 1.6.3.3.8.5 1.6.5.6 0 1.1 0 1.6-.1v4.1c-1.1.3-2.1.5-3.2.5-3.8 0-5.7-1.9-5.8-5.7V96.7h-2.9v-3.9h2.9v-4.9h5.4zM573.5 105.2l3.7-12.5h5.8l-8.1 23.2-.4 1.1c-1.2 2.6-3.2 3.9-5.9 3.9-.8 0-1.6-.1-2.4-.4v-4.1h.8c1 0 1.8-.2 2.3-.5.5-.3.9-.8 1.2-1.5l.6-1.7-7-20.1h5.8l3.6 12.6zM601 87.8v4.9h3.4v3.9H601v10c0 .7.1 1.3.4 1.6.3.3.8.5 1.6.5.6 0 1.1 0 1.6-.1v4.1c-1.1.3-2.1.5-3.2.5-3.8 0-5.7-1.9-5.8-5.7V96.7h-2.9v-3.9h2.9v-4.9h5.4zM612.6 94.9c1.4-1.7 3.2-2.6 5.4-2.6 4.4 0 6.6 2.5 6.6 7.6v12.9h-5.4v-12.7c0-1.2-.2-2-.7-2.6-.5-.5-1.3-.8-2.5-.8-1.6 0-2.7.6-3.4 1.8v14.3h-5.4V84.3h5.4v10.6zM637.9 113.2c-2.9 0-5.3-.9-7.2-2.7-1.8-1.8-2.8-4.2-2.8-7.2v-.5c0-2 .4-3.8 1.2-5.4.8-1.6 1.9-2.8 3.3-3.7 1.4-.9 3.1-1.3 4.9-1.3 2.7 0 4.9.9 6.5 2.6 1.6 1.7 2.4 4.2 2.4 7.4v2.2h-12.8c.2 1.3.7 2.4 1.6 3.2.9.8 2 1.2 3.3 1.2 2.1 0 3.7-.7 4.8-2.2l2.6 3c-.8 1.1-1.9 2-3.3 2.7-1.3.4-2.9.7-4.5.7zm-.6-16.5c-1.1 0-1.9.4-2.6 1.1-.7.7-1.1 1.8-1.3 3.1h7.5v-.4c0-1.2-.3-2.1-1-2.8-.6-.7-1.5-1-2.6-1zM650.6 112.8V96.7h-3v-3.9h3V91c0-2.3.6-4 1.9-5.2 1.3-1.2 3.1-1.9 5.4-1.9.7 0 1.7.1 2.7.4l-.1 4.2c-.4-.1-1-.2-1.6-.2-2 0-3 .9-3 2.8v1.6h4v3.9h-4v16.1h-5.3zM669.2 87.8v4.9h3.4v3.9h-3.4v10c0 .7.1 1.3.4 1.6.3.3.8.5 1.6.5.6 0 1.1 0 1.6-.1v4.1c-1.1.3-2.1.5-3.2.5-3.8 0-5.7-1.9-5.8-5.7V96.7h-2.9v-3.9h2.9v-4.9h5.4zM691.5 87.8v4.9h3.4v3.9h-3.4v10c0 .7.1 1.3.4 1.6.3.3.8.5 1.6.5.6 0 1.1 0 1.6-.1v4.1c-1.1.3-2.1.5-3.2.5-3.8 0-5.7-1.9-5.8-5.7V96.7h-2.9v-3.9h2.9v-4.9h5.4zM696.5 102.6c0-2 .4-3.8 1.2-5.3.8-1.6 1.9-2.8 3.3-3.6 1.4-.9 3.1-1.3 5-1.3 2.7 0 4.9.8 6.6 2.5 1.7 1.7 2.7 3.9 2.9 6.8v1.4c0 3.1-.9 5.6-2.6 7.4-1.7 1.9-4 2.8-6.9 2.8s-5.2-.9-6.9-2.8c-1.7-1.9-2.6-4.4-2.6-7.6v-.3zm5.4.4c0 1.9.4 3.4 1.1 4.4.7 1 1.7 1.5 3.1 1.5 1.3 0 2.3-.5 3-1.5.7-1 1.1-2.6 1.1-4.8 0-1.9-.4-3.3-1.1-4.3-.7-1-1.8-1.5-3.1-1.5s-2.3.5-3 1.5c-.7.9-1.1 2.5-1.1 4.7zM718 102.6c0-3.1.7-5.6 2.1-7.5 1.4-1.9 3.3-2.8 5.8-2.8 2 0 3.6.7 4.8 2.2V84.3h5.4v28.5h-4.8l-.3-2.1c-1.3 1.7-3.1 2.5-5.2 2.5-2.4 0-4.3-.9-5.7-2.8-1.4-1.9-2.1-4.5-2.1-7.8zm5.4.4c0 1.9.3 3.3 1 4.3s1.6 1.5 2.9 1.5c1.7 0 2.8-.7 3.5-2.1v-7.9c-.7-1.4-1.8-2.1-3.5-2.1-2.6 0-3.9 2.1-3.9 6.3zM751.9 112.8c-.2-.5-.4-1.1-.5-1.8-1.3 1.4-3 2.2-5.1 2.2-2 0-3.6-.6-4.9-1.7-1.3-1.1-1.9-2.6-1.9-4.3 0-2.1.8-3.8 2.4-4.9 1.6-1.1 3.9-1.7 6.8-1.7h2.5v-1.2c0-.9-.2-1.7-.7-2.2-.5-.6-1.2-.8-2.3-.8-.9 0-1.6.2-2.1.6-.5.4-.8 1-.8 1.8h-5.4c0-1.2.4-2.2 1.1-3.2.7-1 1.7-1.8 3-2.3 1.3-.6 2.8-.8 4.4-.8 2.5 0 4.4.6 5.9 1.9 1.5 1.2 2.2 3 2.2 5.2v8.7c0 1.9.3 3.3.8 4.3v.3h-5.4zm-4.4-3.7c.8 0 1.5-.2 2.2-.5.7-.4 1.2-.8 1.5-1.4v-3.5h-2c-2.7 0-4.1.9-4.3 2.8v.3c0 .7.2 1.2.7 1.7.4.4 1.1.6 1.9.6zM768.2 105.2l3.7-12.5h5.8l-8.1 23.2-.4 1.1c-1.2 2.6-3.2 3.9-5.9 3.9-.8 0-1.6-.1-2.4-.4v-4.1h.8c1 0 1.8-.2 2.3-.5.5-.3.9-.8 1.2-1.5l.6-1.7-7-20.1h5.8l3.6 12.6zM780 110.2c0-.9.3-1.5.9-2.1.6-.5 1.3-.8 2.2-.8.9 0 1.6.3 2.2.8.6.5.9 1.2.9 2.1 0 .8-.3 1.5-.9 2.1-.6.5-1.3.8-2.2.8-.9 0-1.6-.3-2.2-.8-.6-.6-.9-1.3-.9-2.1z"/><g><path class="st0" d="M69.6 215.2c0-.4-.1-.8-.4-1.1s-.8-.5-1.4-.8-1.2-.4-1.5-.6c-1.2-.7-1.8-1.6-1.8-2.9 0-.9.3-1.6.8-2.1.5-.6 1.2-.9 2.1-1V205h1.2v1.7c.9.1 1.6.5 2.1 1.2.5.6.7 1.5.7 2.5h-1.9c0-.7-.1-1.2-.4-1.6-.3-.4-.7-.6-1.2-.6s-.9.1-1.2.4-.4.7-.4 1.2.1.8.4 1.1c.3.3.8.5 1.4.8.7.2 1.2.5 1.6.7.4.2.7.4 1 .7.3.3.5.6.6.9s.2.8.2 1.2c0 .9-.3 1.6-.8 2.1s-1.3.9-2.3 1v1.5h-1.2v-1.5c-1-.1-1.8-.5-2.4-1.1s-.8-1.5-.8-2.5h1.9c0 .7.2 1.2.5 1.5.3.4.8.5 1.4.5.6 0 1-.1 1.4-.4.2-.3.4-.7.4-1.1zM78.3 218.1h-1.9V209l-2.8 1v-1.6l4.4-1.6h.2v11.3zM88.7 207.6v2.1h1.5v1.4h-1.5v4.7c0 .3.1.6.2.7.1.1.4.2.7.2.2 0 .4 0 .7-.1v1.5c-.4.1-.8.2-1.2.2-1.5 0-2.2-.8-2.2-2.4v-4.8h-1.4v-1.4h1.4v-2.1h1.8zM96.1 211.4c-.2 0-.5-.1-.8-.1-.9 0-1.5.3-1.8 1v5.8h-1.9v-8.5h1.8v.9c.5-.7 1.1-1.1 1.9-1.1.3 0 .5 0 .7.1l.1 1.9zM97.3 207.5c0-.3.1-.5.3-.7.2-.2.4-.3.8-.3s.6.1.8.3.3.4.3.7c0 .3-.1.5-.3.7s-.5.3-.8.3-.6-.1-.8-.3c-.2-.2-.3-.4-.3-.7zm2 10.6h-1.9v-8.5h1.9v8.5zM106.4 218.1c-.1-.2-.2-.4-.2-.8-.6.6-1.3.9-2.2.9-.8 0-1.5-.2-2.1-.7-.5-.5-.8-1.1-.8-1.8 0-.9.3-1.6 1-2.1s1.6-.7 2.9-.7h1.2v-.6c0-.4-.1-.8-.4-1.1-.2-.3-.6-.4-1.1-.4-.4 0-.8.1-1.1.3-.3.2-.4.5-.4.8h-1.9c0-.5.2-.9.5-1.3s.7-.7 1.3-.9c.5-.2 1.1-.3 1.8-.3 1 0 1.8.2 2.4.7.6.5.9 1.2.9 2.1v3.8c0 .8.1 1.4.3 1.8v.1h-2.1zm-2.1-1.3c.4 0 .7-.1 1.1-.3.3-.2.6-.4.7-.7v-1.6h-1c-.7 0-1.2.1-1.6.4-.4.2-.5.6-.5 1s.1.7.4.9.5.3.9.3zM112 218.1h-1.9v-12h1.9v12zM118.8 218.1v-7h-1.3v-1.4h1.3v-.8c0-.9.3-1.7.8-2.2.5-.5 1.2-.8 2.2-.8.3 0 .7 0 1.1.1v1.5c-.2 0-.5-.1-.7-.1-.9 0-1.4.5-1.4 1.4v.8h1.7v1.4h-1.7v7h-2zM123.4 213.8c0-.8.2-1.6.5-2.2s.8-1.2 1.4-1.5 1.3-.5 2-.5c1.1 0 2.1.4 2.8 1.1s1.1 1.7 1.2 2.9v.4c0 .8-.2 1.6-.5 2.2s-.8 1.2-1.4 1.5c-.6.4-1.3.5-2.1.5-1.2 0-2.1-.4-2.9-1.2-.6-.7-1-1.8-1-3.2zm1.9.2c0 .9.2 1.6.5 2s.9.7 1.5.7 1.1-.2 1.5-.8c.4-.5.5-1.2.5-2.2 0-.9-.2-1.5-.6-2s-.9-.8-1.5-.8-1.1.2-1.5.7c-.2.7-.4 1.4-.4 2.4zM137.3 211.4c-.2 0-.5-.1-.8-.1-.9 0-1.5.3-1.8 1v5.8h-1.9v-8.5h1.8v.9c.5-.7 1.1-1.1 1.9-1.1.3 0 .5 0 .7.1l.1 1.9zM144.9 207.6v2.1h1.5v1.4h-1.5v4.7c0 .3.1.6.2.7.1.1.4.2.7.2.2 0 .4 0 .7-.1v1.5c-.4.1-.8.2-1.2.2-1.5 0-2.2-.8-2.2-2.4v-4.8h-1.4v-1.4h1.4v-2.1h1.8zM149.7 210.6c.6-.7 1.4-1.1 2.4-1.1 1.8 0 2.7 1 2.7 3.1v5.5h-1.9v-5.5c0-.6-.1-1-.4-1.2-.3-.2-.6-.4-1.1-.4-.8 0-1.3.3-1.7 1v6h-1.9v-12h1.9v4.6zM160.4 218.3c-1.2 0-2.2-.4-2.9-1.1-.7-.8-1.1-1.8-1.1-3v-.2c0-.8.2-1.6.5-2.3.3-.7.8-1.2 1.4-1.6.6-.4 1.2-.6 2-.6 1.2 0 2 .4 2.7 1.1.6.7.9 1.8.9 3.1v.8h-5.5c.1.7.3 1.2.7 1.7.4.4.9.6 1.5.6.9 0 1.6-.4 2.1-1.1l1 1c-.3.5-.8.9-1.4 1.2-.6.2-1.2.4-1.9.4zm-.2-7.3c-.5 0-.9.2-1.3.5s-.5.9-.6 1.5h3.6c0-.6-.2-1.1-.5-1.4s-.7-.6-1.2-.6zM169.9 218.1v-7h-1.3v-1.4h1.3v-.8c0-.9.3-1.7.8-2.2.5-.5 1.2-.8 2.2-.8.3 0 .7 0 1.1.1v1.5c-.2 0-.5-.1-.7-.1-.9 0-1.4.5-1.4 1.4v.8h1.7v1.4h-1.7v7h-2zM174.9 207.5c0-.3.1-.5.3-.7.2-.2.4-.3.8-.3s.6.1.8.3.3.4.3.7c0 .3-.1.5-.3.7s-.5.3-.8.3-.6-.1-.8-.3c-.2-.2-.3-.4-.3-.7zm2 10.6H175v-8.5h1.9v8.5zM183.4 211.4c-.2 0-.5-.1-.8-.1-.9 0-1.5.3-1.8 1v5.8H179v-8.5h1.8v.9c.5-.7 1.1-1.1 1.9-1.1.3 0 .5 0 .7.1v1.9zM189.4 215.8c0-.3-.1-.6-.4-.8-.3-.2-.7-.3-1.4-.5-.6-.1-1.2-.3-1.6-.5-.9-.5-1.4-1.1-1.4-2 0-.7.3-1.3.9-1.8.6-.5 1.4-.7 2.3-.7 1 0 1.8.2 2.4.8.6.5.9 1.1.9 1.9h-1.9c0-.4-.1-.7-.4-.9-.3-.2-.6-.4-1.1-.4-.4 0-.8.1-1 .3-.3.2-.4.5-.4.8 0 .3.1.5.4.7.2.2.7.3 1.5.5.7.2 1.3.4 1.8.6.4.2.7.5.9.8.2.3.3.7.3 1.2 0 .8-.3 1.4-.9 1.8-.6.5-1.5.7-2.5.7-.7 0-1.3-.1-1.9-.4-.5-.2-1-.6-1.3-1-.3-.4-.5-.9-.5-1.4h1.8c0 .4.2.8.5 1s.7.4 1.2.4.9-.1 1.1-.3c.5-.2.7-.5.7-.8zM195.3 207.6v2.1h1.5v1.4h-1.5v4.7c0 .3.1.6.2.7.1.1.4.2.7.2.2 0 .4 0 .7-.1v1.5c-.4.1-.8.2-1.2.2-1.5 0-2.2-.8-2.2-2.4v-4.8H192v-1.4h1.4v-2.1h1.9zM207.2 218.1h-1.9V209l-2.8 1v-1.6l4.4-1.6h.2v11.3zM217.6 214.1h1.4v1.5h-1.4v2.5h-1.9v-2.5h-4.9l-.1-1.2 4.9-7.7h2v7.4zm-4.9 0h3v-4.8l-.1.2-2.9 4.6zM224 213.8c0-1.3.3-2.3.9-3.1s1.4-1.2 2.4-1.2c.9 0 1.6.3 2.2.9v-4.3h1.9v12h-1.7l-.1-.9c-.6.7-1.3 1-2.3 1-1 0-1.8-.4-2.4-1.2s-.9-1.8-.9-3.2zm1.9.2c0 .9.2 1.5.5 2s.8.7 1.4.7c.8 0 1.3-.3 1.7-1v-3.6c-.3-.7-.9-1-1.7-1-.6 0-1.1.2-1.4.7s-.5 1.2-.5 2.2zM238.5 218.1c-.1-.2-.2-.4-.2-.8-.6.6-1.3.9-2.2.9-.8 0-1.5-.2-2.1-.7s-.8-1.1-.8-1.8c0-.9.3-1.6 1-2.1s1.6-.7 2.9-.7h1.2v-.6c0-.4-.1-.8-.4-1.1s-.6-.4-1.1-.4c-.4 0-.8.1-1.1.3s-.4.5-.4.8h-1.9c0-.5.2-.9.5-1.3s.7-.7 1.3-.9 1.1-.3 1.8-.3c1 0 1.8.2 2.4.7s.9 1.2.9 2.1v3.8c0 .8.1 1.4.3 1.8v.1h-2.1zm-2.1-1.3c.4 0 .7-.1 1.1-.3s.6-.4.7-.7v-1.6h-1c-.7 0-1.2.1-1.6.4s-.5.6-.5 1 .1.7.4.9.5.3.9.3zM245 215.4l1.7-5.7h2l-3.4 9.7c-.5 1.4-1.4 2.1-2.6 2.1-.3 0-.6 0-.9-.1v-1.5h.4c.5 0 .8-.1 1.1-.3.2-.2.4-.5.6-.9l.3-.7-3-8.4h2l1.8 5.8zM254.6 215.8c0-.3-.1-.6-.4-.8s-.7-.3-1.4-.5-1.2-.3-1.6-.5c-.9-.5-1.4-1.1-1.4-2 0-.7.3-1.3.9-1.8s1.4-.7 2.3-.7c1 0 1.8.2 2.4.8s.9 1.1.9 1.9h-1.9c0-.4-.1-.7-.4-.9s-.6-.4-1.1-.4c-.4 0-.8.1-1 .3s-.4.5-.4.8c0 .3.1.5.4.7s.7.3 1.5.5 1.3.4 1.8.6.7.5.9.8.3.7.3 1.2c0 .8-.3 1.4-.9 1.8s-1.5.7-2.5.7c-.7 0-1.3-.1-1.9-.4s-1-.6-1.3-1-.5-.9-.5-1.4h1.8c0 .4.2.8.5 1s.7.4 1.2.4.9-.1 1.1-.3.7-.5.7-.8zM259.3 216.1c.4 0 .6.1.8.3s.3.5.3.8c0 .3-.1.5-.3.7s-.5.3-.8.3c-.3 0-.6-.1-.8-.3s-.3-.4-.3-.7.1-.6.3-.8.4-.3.8-.3zM268.7 213.9v4.2h-2v-11.4h4.4c1.3 0 2.3.3 3 1s1.1 1.5 1.1 2.6-.4 2-1.1 2.6-1.8.9-3.1.9h-2.3zm0-1.6h2.4c.7 0 1.2-.2 1.6-.5s.6-.8.6-1.4c0-.6-.2-1.1-.6-1.5s-.9-.6-1.5-.6h-2.4v4zM278.8 218.1h-1.9v-12h1.9v12zM285.9 218.1c-.1-.2-.2-.4-.2-.8-.6.6-1.3.9-2.2.9-.8 0-1.5-.2-2.1-.7s-.8-1.1-.8-1.8c0-.9.3-1.6 1-2.1s1.6-.7 2.9-.7h1.2v-.6c0-.4-.1-.8-.4-1.1s-.6-.4-1.1-.4c-.4 0-.8.1-1.1.3s-.4.5-.4.8h-1.9c0-.5.2-.9.5-1.3s.7-.7 1.3-.9 1.1-.3 1.8-.3c1 0 1.8.2 2.4.7s.9 1.2.9 2.1v3.8c0 .8.1 1.4.3 1.8v.1h-2.1zm-2.1-1.3c.4 0 .7-.1 1.1-.3s.6-.4.7-.7v-1.6h-1c-.7 0-1.2.1-1.6.4s-.5.6-.5 1 .1.7.4.9.5.3.9.3zM291.3 209.7l.1 1c.6-.8 1.4-1.1 2.5-1.1 1.8 0 2.7 1 2.7 3v5.6h-1.9v-5.5c0-.5-.1-.9-.3-1.2s-.6-.4-1.1-.4c-.8 0-1.3.3-1.7 1v6h-1.9v-8.5h1.6zM303.2 215.8c0-.3-.1-.6-.4-.8s-.7-.3-1.4-.5-1.2-.3-1.6-.5c-.9-.5-1.4-1.1-1.4-2 0-.7.3-1.3.9-1.8s1.4-.7 2.3-.7c1 0 1.8.2 2.4.8s.9 1.1.9 1.9H303c0-.4-.1-.7-.4-.9s-.6-.4-1.1-.4c-.4 0-.8.1-1 .3s-.4.5-.4.8c0 .3.1.5.4.7s.7.3 1.5.5 1.3.4 1.8.6.7.5.9.8.3.7.3 1.2c0 .8-.3 1.4-.9 1.8s-1.5.7-2.5.7c-.7 0-1.3-.1-1.9-.4s-1-.6-1.3-1-.5-.9-.5-1.4h1.8c0 .4.2.8.5 1s.7.4 1.2.4.9-.1 1.1-.3.7-.5.7-.8zM315.4 215.8c0-.3-.1-.6-.4-.8s-.7-.3-1.4-.5-1.2-.3-1.6-.5c-.9-.5-1.4-1.1-1.4-2 0-.7.3-1.3.9-1.8s1.4-.7 2.3-.7c1 0 1.8.2 2.4.8s.9 1.1.9 1.9h-1.9c0-.4-.1-.7-.4-.9s-.6-.4-1.1-.4c-.4 0-.8.1-1 .3s-.4.5-.4.8c0 .3.1.5.4.7s.7.3 1.5.5 1.3.4 1.8.6.7.5.9.8.3.7.3 1.2c0 .8-.3 1.4-.9 1.8s-1.5.7-2.5.7c-.7 0-1.3-.1-1.9-.4s-1-.6-1.3-1-.5-.9-.5-1.4h1.8c0 .4.2.8.5 1s.7.4 1.2.4.9-.1 1.1-.3.7-.5.7-.8zM321.3 207.6v2.1h1.5v1.4h-1.5v4.7c0 .3.1.6.2.7s.4.2.7.2c.2 0 .4 0 .7-.1v1.5c-.4.1-.8.2-1.2.2-1.5 0-2.2-.8-2.2-2.4v-4.8H318v-1.4h1.4v-2.1h1.9zM329.3 218.1c-.1-.2-.2-.4-.2-.8-.6.6-1.3.9-2.2.9-.8 0-1.5-.2-2.1-.7s-.8-1.1-.8-1.8c0-.9.3-1.6 1-2.1s1.6-.7 2.9-.7h1.2v-.6c0-.4-.1-.8-.4-1.1s-.6-.4-1.1-.4c-.4 0-.8.1-1.1.3s-.4.5-.4.8h-1.9c0-.5.2-.9.5-1.3s.7-.7 1.3-.9 1.1-.3 1.8-.3c1 0 1.8.2 2.4.7s.9 1.2.9 2.1v3.8c0 .8.1 1.4.3 1.8v.1h-2.1zm-2.1-1.3c.4 0 .7-.1 1.1-.3s.6-.4.7-.7v-1.6h-1c-.7 0-1.2.1-1.6.4s-.5.6-.5 1 .1.7.4.9.5.3.9.3zM337.3 211.4c-.2 0-.5-.1-.8-.1-.9 0-1.5.3-1.8 1v5.8h-1.9v-8.5h1.8v.9c.5-.7 1.1-1.1 1.9-1.1.3 0 .5 0 .7.1l.1 1.9zM341.3 207.6v2.1h1.5v1.4h-1.5v4.7c0 .3.1.6.2.7s.4.2.7.2c.2 0 .4 0 .7-.1v1.5c-.4.1-.8.2-1.2.2-1.5 0-2.2-.8-2.2-2.4v-4.8H338v-1.4h1.4v-2.1h1.9zM344.2 207.5c0-.3.1-.5.3-.7s.4-.3.8-.3.6.1.8.3.3.4.3.7c0 .3-.1.5-.3.7s-.5.3-.8.3-.6-.1-.8-.3-.3-.4-.3-.7zm2.1 10.6h-1.9v-8.5h1.9v8.5zM350.1 209.7l.1 1c.6-.8 1.4-1.1 2.5-1.1 1.8 0 2.7 1 2.7 3v5.6h-1.9v-5.5c0-.5-.1-.9-.3-1.2s-.6-.4-1.1-.4c-.8 0-1.3.3-1.7 1v6h-1.9v-8.5h1.6zM356.9 213.8c0-1.3.3-2.4.9-3.1s1.4-1.2 2.5-1.2c1 0 1.7.3 2.3 1l.1-.9h1.7v8.2c0 1.1-.3 2-1 2.6s-1.6 1-2.8 1c-.6 0-1.2-.1-1.8-.4s-1-.6-1.3-1l.9-1.1c.6.7 1.3 1 2.2 1 .6 0 1.1-.2 1.5-.5s.5-.8.5-1.5v-.6c-.5.6-1.3.9-2.2.9-1 0-1.8-.4-2.4-1.2s-1.1-1.8-1.1-3.2zm1.9.2c0 .8.2 1.5.5 2s.8.7 1.4.7c.8 0 1.3-.3 1.7-1V212c-.4-.6-.9-1-1.7-1-.6 0-1.1.2-1.5.7s-.4 1.3-.4 2.3zM375.3 218.1c-.1-.2-.2-.4-.2-.8-.6.6-1.3.9-2.2.9-.8 0-1.5-.2-2.1-.7s-.8-1.1-.8-1.8c0-.9.3-1.6 1-2.1s1.6-.7 2.9-.7h1.2v-.6c0-.4-.1-.8-.4-1.1s-.6-.4-1.1-.4c-.4 0-.8.1-1.1.3s-.4.5-.4.8h-1.9c0-.5.2-.9.5-1.3s.7-.7 1.3-.9 1.1-.3 1.8-.3c1 0 1.8.2 2.4.7s.9 1.2.9 2.1v3.8c0 .8.1 1.4.3 1.8v.1h-2.1zm-2.1-1.3c.4 0 .7-.1 1.1-.3s.6-.4.7-.7v-1.6h-1c-.7 0-1.2.1-1.6.4s-.5.6-.5 1 .1.7.4.9.5.3.9.3zM381.3 207.6v2.1h1.5v1.4h-1.5v4.7c0 .3.1.6.2.7s.4.2.7.2c.2 0 .4 0 .7-.1v1.5c-.4.1-.8.2-1.2.2-1.5 0-2.2-.8-2.2-2.4v-4.8H378v-1.4h1.4v-2.1h1.9zM393.7 215.2c0-.4-.1-.8-.4-1.1s-.8-.5-1.4-.8-1.2-.4-1.5-.6c-1.2-.7-1.8-1.6-1.8-2.9 0-.9.3-1.6.8-2.1s1.2-.9 2.1-1V205h1.2v1.7c.9.1 1.6.5 2.1 1.2s.7 1.5.7 2.5h-1.9c0-.7-.1-1.2-.4-1.6s-.7-.6-1.2-.6-.9.1-1.2.4-.4.7-.4 1.2.1.8.4 1.1.8.5 1.4.8 1.2.5 1.6.7.7.4 1 .7.5.6.6.9.2.8.2 1.2c0 .9-.3 1.6-.8 2.1s-1.3.9-2.3 1v1.5h-1.2v-1.5c-1-.1-1.8-.5-2.4-1.1s-.8-1.5-.8-2.5h1.9c0 .7.2 1.2.5 1.5s.8.5 1.4.5c.6 0 1-.1 1.4-.4s.4-.7.4-1.1zM402.6 213.4c-.6.7-1.4 1-2.2 1-1 0-1.8-.4-2.4-1.1s-.9-1.6-.9-2.8c0-.8.2-1.4.5-2s.7-1.1 1.3-1.4 1.2-.5 1.9-.5c1.1 0 2.1.4 2.7 1.3s1 2 1 3.4v.5c0 2.1-.5 3.6-1.4 4.7s-2.3 1.6-4.1 1.6h-.2v-1.6h.3c1.1 0 2-.3 2.6-.8s.8-1.2.9-2.3zm-1.8-.5c.4 0 .7-.1 1.1-.3s.6-.5.8-.9v-.7c0-.8-.2-1.5-.5-2s-.8-.8-1.3-.8-1 .2-1.3.7-.5 1-.5 1.7.2 1.3.5 1.7.6.6 1.2.6zM407.6 216.1c.4 0 .6.1.8.3s.3.5.3.8c0 .3-.1.5-.3.7s-.5.3-.8.3c-.3 0-.6-.1-.8-.3s-.3-.4-.3-.7.1-.6.3-.8.5-.3.8-.3zM416.2 213.4c-.6.7-1.4 1-2.2 1-1 0-1.8-.4-2.4-1.1s-.9-1.6-.9-2.8c0-.8.2-1.4.5-2s.7-1.1 1.3-1.4 1.2-.5 1.9-.5c1.1 0 2.1.4 2.7 1.3s1 2 1 3.4v.5c0 2.1-.5 3.6-1.4 4.7s-2.3 1.6-4.1 1.6h-.2v-1.6h.3c1.1 0 2-.3 2.6-.8s.8-1.2.9-2.3zm-1.9-.5c.4 0 .7-.1 1.1-.3s.6-.5.8-.9v-.7c0-.8-.2-1.5-.5-2s-.8-.8-1.3-.8-1 .2-1.3.7-.5 1-.5 1.7.2 1.3.5 1.7.7.6 1.2.6zM425.2 213.4c-.6.7-1.4 1-2.2 1-1 0-1.8-.4-2.4-1.1s-.9-1.6-.9-2.8c0-.8.2-1.4.5-2s.7-1.1 1.3-1.4 1.2-.5 1.9-.5c1.1 0 2.1.4 2.7 1.3s1 2 1 3.4v.5c0 2.1-.5 3.6-1.4 4.7s-2.3 1.6-4.1 1.6h-.2v-1.6h.3c1.1 0 2-.3 2.6-.8s.9-1.2.9-2.3zm-1.8-.5c.4 0 .7-.1 1.1-.3s.6-.5.8-.9v-.7c0-.8-.2-1.5-.5-2s-.8-.8-1.3-.8-1 .2-1.3.7-.5 1-.5 1.7.2 1.3.5 1.7.7.6 1.2.6zM435.4 207.6v2.1h1.5v1.4h-1.5v4.7c0 .3.1.6.2.7s.4.2.7.2c.2 0 .4 0 .7-.1v1.5c-.4.1-.8.2-1.2.2-1.5 0-2.2-.8-2.2-2.4v-4.8h-1.4v-1.4h1.4v-2.1h1.8zM437.8 213.8c0-.8.2-1.6.5-2.2s.8-1.2 1.4-1.5 1.3-.5 2-.5c1.1 0 2.1.4 2.8 1.1s1.1 1.7 1.2 2.9v.4c0 .8-.2 1.6-.5 2.2s-.8 1.2-1.4 1.5-1.3.5-2.1.5c-1.2 0-2.1-.4-2.9-1.2s-1-1.8-1-3.2zm1.9.2c0 .9.2 1.6.5 2s.9.7 1.5.7 1.1-.2 1.5-.8.5-1.2.5-2.2c0-.9-.2-1.5-.6-2s-.9-.8-1.5-.8-1.1.2-1.5.7-.4 1.4-.4 2.4z"/></g></svg>