<svg id="Layer_1" xmlns="http://www.w3.org/2000/svg" viewBox="0 0 160 600"><style>.st0{fill:#fff}</style><path class="st0" d="M46.1 260.4c0-.3-.1-.6-.3-.8s-.5-.4-.9-.5-.8-.3-1.1-.5-.6-.3-.8-.5-.4-.4-.5-.7-.2-.6-.2-1c0-.7.2-1.2.6-1.6s1-.7 1.7-.7v-1.3h.9v1.3c.7.1 1.2.4 1.6.9s.6 1.1.6 1.9H46c0-.5-.1-.8-.3-1.1s-.5-.3-.8-.3c-.3 0-.6.1-.7.3s-.2.2-.2.6c0 .3.1.5.3.7s.5.4 1 .6.9.4 1.2.5.6.4.8.6.4.4.5.7.2.6.2.9c0 .7-.2 1.2-.6 1.6s-1 .7-1.7.7v1.2h-.9v-1.2c-.8-.1-1.4-.4-1.9-.9s-.7-1.1-.7-1.9h1.7c0 .5.1.8.3 1.1s.5.4 1 .4c.3 0 .6-.1.8-.3s.1-.4.1-.7zM53.1 262.6h-1.7v-6.5l-2 .6v-1.4l3.5-1.3h.2v8.6zM60.5 254.7v1.5h1.2v.8h-1.2v3.9c0 .3.1.4.2.6.1.1.3.2.5.2.1 0 .3 0 .5-.1v.9c-.3.1-.6.1-.8.1-.5 0-.8-.1-1.1-.4s-.4-.7-.4-1.2v-3.9h-1.2v-.8h1.2v-1.5h1.1zM66 257.3h-.5c-.7 0-1.2.3-1.4.9v4.5H63v-6.3h1v.7c.4-.6.9-.8 1.5-.8.2 0 .4 0 .5.1v.9zM67 254.6c0-.2.1-.3.2-.4s.3-.2.5-.2.4.1.5.2.2.3.2.4-.1.3-.2.4-.3.2-.5.2-.4-.1-.5-.2-.2-.2-.2-.4zm1.2 8h-1.1v-6.3h1.1v6.3zM73.8 262.6c-.1-.1-.1-.3-.2-.7-.5.5-1.1.8-1.8.8-.6 0-1.1-.2-1.5-.5s-.6-.8-.6-1.3c0-.7.3-1.2.8-1.5s1.2-.5 2.1-.5h1.1v-.5c0-.4-.1-.7-.3-.9s-.6-.3-1-.3-.7.1-1 .3-.4.3-.4.5h-1.1c0-.3.1-.6.3-.9s.5-.5.9-.7.8-.3 1.3-.3c.7 0 1.3.2 1.7.5s.6.9.6 1.5v2.9c0 .6.1 1 .2 1.4v.1h-1.1zm-1.8-.8c.3 0 .7-.1 1-.3s.5-.4.7-.7v-1.3h-.8c-1.3 0-2 .4-2 1.2 0 .3.1.6.3.8s.5.3.8.3zM77.6 262.6h-1.1v-9h1.1v9zM82.9 262.6v-5.5h-1v-.8h1v-.7c0-.7.2-1.2.5-1.6s.9-.6 1.5-.6c.2 0 .5 0 .7.1l-.1.9c-.2 0-.4-.1-.6-.1-.4 0-.6.1-.8.3s-.3.5-.3.9v.7h1.4v.8H84v5.5h-1.1zM86.2 259.4c0-.6.1-1.2.4-1.7s.6-.9 1-1.1.9-.4 1.5-.4c.9 0 1.6.3 2.1.9s.8 1.4.8 2.4v.1c0 .6-.1 1.2-.4 1.7s-.6.9-1 1.1-.9.4-1.5.4c-.9 0-1.6-.3-2.1-.9s-.8-1.4-.8-2.5zm1.1.1c0 .7.2 1.3.5 1.7s.8.6 1.3.6c.6 0 1-.2 1.3-.6s.5-1 .5-1.8c0-.7-.2-1.3-.5-1.7s-.8-.6-1.3-.6-1 .2-1.3.6-.5 1-.5 1.8zM96.4 257.3h-.5c-.7 0-1.2.3-1.4.9v4.5h-1.1v-6.3h1.1v.7c.4-.6.9-.8 1.5-.8.2 0 .4 0 .5.1v.9zM101.9 254.7v1.5h1.2v.8h-1.2v3.9c0 .3.1.4.2.6.1.1.3.2.5.2.1 0 .3 0 .5-.1v.9c-.3.1-.6.1-.8.1-.5 0-.8-.1-1.1-.4s-.4-.7-.4-1.2v-3.9h-1.2v-.8h1.2v-1.5h1.1zM105.4 257c.5-.6 1.1-.9 1.9-.9 1.3 0 2 .8 2 2.3v4.2h-1.1v-4.2c0-.5-.1-.8-.3-1s-.5-.3-1-.3c-.4 0-.7.1-.9.3s-.5.4-.6.7v4.5h-1.1v-9h1.1v3.4zM113.5 262.7c-.9 0-1.6-.3-2.1-.8s-.8-1.3-.8-2.3v-.2c0-.6.1-1.2.4-1.7s.6-.9 1-1.2.9-.4 1.4-.4c.8 0 1.5.3 1.9.8s.7 1.3.7 2.3v.5h-4.3c0 .6.2 1.1.5 1.5s.8.6 1.3.6c.4 0 .7-.1 1-.2s.5-.4.7-.6l.7.5c-.5.8-1.3 1.2-2.4 1.2zm-.1-5.6c-.4 0-.8.2-1.1.5s-.5.8-.6 1.3h3.2v-.1c0-.6-.2-1-.4-1.3s-.6-.4-1.1-.4zM45.8 276.6v-5.5h-1v-.8h1v-.7c0-.7.2-1.2.5-1.6s.9-.6 1.5-.6c.2 0 .5 0 .7.1l-.1.9c-.2 0-.4-.1-.6-.1-.4 0-.6.1-.8.3s-.3.5-.3.9v.7h1.4v.8h-1.4v5.5h-.9zM49.5 268.6c0-.2.1-.3.2-.4s.3-.2.5-.2.4.1.5.2.2.3.2.4-.1.3-.2.4-.3.2-.5.2-.4-.1-.5-.2-.2-.2-.2-.4zm1.1 8h-1.1v-6.3h1.1v6.3zM55.4 271.3h-.5c-.7 0-1.2.3-1.4.9v4.5h-1.1v-6.3h1.1v.7c.4-.6.9-.8 1.5-.8.2 0 .4 0 .5.1v.9zM60.1 274.9c0-.3-.1-.5-.3-.7s-.6-.3-1.2-.4-1-.3-1.3-.4-.6-.4-.7-.6-.2-.5-.2-.8c0-.5.2-1 .7-1.3s1-.5 1.7-.5 1.3.2 1.7.6.7.8.7 1.4h-1.1c0-.3-.1-.6-.4-.8s-.6-.3-1-.3-.7.1-.9.3-.3.4-.3.7c0 .3.1.5.3.6s.6.3 1.1.4 1 .3 1.3.4.6.4.7.6.2.5.2.9c0 .6-.2 1-.7 1.4s-1 .5-1.8.5c-.5 0-1-.1-1.3-.3s-.7-.4-.9-.8-.3-.7-.3-1h1.1c0 .4.2.7.4.9s.6.3 1.1.3c.4 0 .7-.1 1-.2s.4-.6.4-.9zM64.1 268.7v1.5h1.2v.8h-1.2v3.9c0 .3.1.4.2.6s.3.2.5.2c.1 0 .3 0 .5-.1v.9c-.3.1-.6.1-.8.1-.5 0-.8-.1-1.1-.4s-.4-.6-.4-1.2v-3.9h-1.2v-.8H63v-1.5h1.1zM73 276.6h-1.1v-7.2l-2.2.8v-1l3.1-1.2h.2v8.6zM80.7 273.8h1.2v.9h-1.2v2h-1.1v-2h-3.9v-.7l3.8-5.9h1.2v5.7zm-3.7 0h2.7v-4.2l-.1.2-2.6 4zM85.7 273.4c0-1 .2-1.8.7-2.3s1.1-.9 1.8-.9 1.3.3 1.8.8v-3.3h1v9h-1l-.1-.7c-.4.5-1 .8-1.8.8-.7 0-1.3-.3-1.8-.9s-.6-1.5-.6-2.5zm1.1.1c0 .7.1 1.3.4 1.7s.7.6 1.2.6c.7 0 1.2-.3 1.5-.9V272c-.3-.6-.8-.9-1.5-.9-.5 0-.9.2-1.2.6s-.4 1-.4 1.8zM96.6 276.6c-.1-.1-.1-.3-.2-.7-.5.5-1.1.8-1.8.8-.6 0-1.1-.2-1.5-.5s-.6-.8-.6-1.3c0-.7.3-1.2.8-1.5s1.2-.5 2.1-.5h1.1v-.5c0-.4-.1-.7-.3-.9s-.6-.3-1-.3-.7.1-1 .3-.4.4-.4.7h-1.1c0-.3.1-.6.3-.9s.5-.5.9-.7.8-.3 1.3-.3c.7 0 1.3.2 1.7.5s.6.9.6 1.5v2.9c0 .6.1 1 .2 1.4v.1h-1.1zm-1.8-.8c.3 0 .7-.1 1-.3s.5-.4.7-.7v-1.3h-.8c-1.3 0-2 .4-2 1.2 0 .3.1.6.3.8s.5.3.8.3zM101.3 275l1.5-4.8h1.2l-2.5 7.3c-.4 1.1-1 1.6-1.9 1.6h-.2l-.4-.1v-.9h.3c.4 0 .7-.1.9-.2s.4-.4.5-.8l.2-.6-2.3-6.3h1.2l1.5 4.8zM108.6 274.9c0-.3-.1-.5-.3-.7s-.6-.3-1.2-.4-1-.3-1.3-.4-.6-.4-.7-.6-.2-.5-.2-.8c0-.5.2-1 .7-1.3s1-.5 1.7-.5 1.3.2 1.7.6.7.8.7 1.4h-1.1c0-.3-.1-.6-.4-.8s-.6-.3-1-.3-.7.1-.9.3-.3.4-.3.7c0 .3.1.5.3.6s.6.3 1.1.4 1 .3 1.3.4.6.4.7.6.2.5.2.9c0 .6-.2 1-.7 1.4s-1 .5-1.8.5c-.5 0-1-.1-1.3-.3s-.7-.4-.9-.8-.3-.7-.3-1h1.1c0 .4.2.7.4.9s.6.3 1.1.3c.4 0 .7-.1 1-.2s.4-.6.4-.9zM111.1 276.1c0-.2.1-.3.2-.5s.3-.2.5-.2.4.1.5.2.2.3.2.5-.1.3-.2.5-.3.2-.5.2-.4-.1-.5-.2-.2-.4-.2-.5zM37.4 287.3v3.3h-1.1v-8.5h3.1c.9 0 1.7.2 2.2.7s.8 1.1.8 1.9c0 .8-.3 1.5-.8 1.9s-1.3.7-2.2.7h-2zm0-.9h2c.6 0 1.1-.1 1.4-.4.3-.3.5-.7.5-1.2s-.2-.9-.5-1.2c-.3-.3-.8-.5-1.3-.5h-2.1v3.3zM44.8 290.6h-1.1v-9h1.1v9zM50.5 290.6c-.1-.1-.1-.3-.2-.7-.5.5-1.1.8-1.8.8-.6 0-1.1-.2-1.5-.5s-.6-.8-.6-1.3c0-.7.3-1.2.8-1.5s1.2-.5 2.1-.5h1.1v-.5c0-.4-.1-.7-.3-.9s-.6-.3-1-.3-.7.1-1 .3-.4.4-.4.7h-1.1c0-.3.1-.6.3-.9s.5-.5.9-.7.8-.3 1.3-.3c.7 0 1.3.2 1.7.5s.6.9.6 1.5v2.9c0 .6.1 1 .2 1.4v.1h-1.1zm-1.8-.8c.3 0 .7-.1 1-.3s.5-.4.7-.7v-1.3h-.8c-1.3 0-2 .4-2 1.2 0 .3.1.6.3.8s.4.3.8.3zM54.1 284.3v.8c.5-.6 1.1-.9 1.9-.9 1.3 0 2 .8 2 2.3v4.2h-1v-4.2c0-.5-.1-.8-.3-1s-.5-.3-1-.3c-.4 0-.7.1-.9.3s-.5.4-.6.7v4.5h-1.1v-6.3h1zM63.4 288.9c0-.3-.1-.5-.3-.7s-.6-.3-1.2-.4-1-.3-1.3-.4-.6-.4-.7-.6-.2-.5-.2-.8c0-.5.2-1 .7-1.3s1-.5 1.7-.5 1.3.2 1.7.6.7.8.7 1.4h-1.1c0-.3-.1-.6-.4-.8s-.6-.3-1-.3-.7.1-.9.3-.3.4-.3.7c0 .3.1.5.3.6s.6.3 1.1.4 1 .3 1.3.4.6.4.7.6.2.5.2.9c0 .6-.2 1-.7 1.4s-1 .5-1.8.5c-.5 0-1-.1-1.3-.3s-.7-.4-.9-.8-.3-.7-.3-1h1.1c0 .4.2.7.4.9s.6.3 1.1.3c.4 0 .7-.1 1-.2s.4-.6.4-.9zM72.6 288.9c0-.3-.1-.5-.3-.7s-.6-.3-1.2-.4-1-.3-1.3-.4-.6-.4-.7-.6-.2-.5-.2-.8c0-.5.2-1 .7-1.3s1-.5 1.7-.5 1.3.2 1.7.6.7.8.7 1.4h-1.1c0-.3-.1-.6-.4-.8s-.6-.3-1-.3-.7.1-.9.3-.3.4-.3.7c0 .3.1.5.3.6s.6.3 1.1.4 1 .3 1.3.4.6.4.7.6.2.5.2.9c0 .6-.2 1-.7 1.4s-1 .5-1.8.5c-.5 0-1-.1-1.3-.3s-.7-.4-.9-.8-.3-.7-.3-1h1.1c0 .4.2.7.4.9s.6.3 1.1.3c.4 0 .7-.1 1-.2s.4-.6.4-.9zM76.5 282.7v1.5h1.2v.8h-1.2v3.9c0 .3.1.4.2.6s.3.2.5.2c.1 0 .3 0 .5-.1v.9c-.3.1-.6.1-.8.1-.5 0-.8-.1-1.1-.4s-.4-.7-.4-1.2v-3.9h-1.2v-.8h1.2v-1.5h1.1zM82.9 290.6c-.1-.1-.1-.3-.2-.7-.5.5-1.1.8-1.8.8-.6 0-1.1-.2-1.5-.5s-.6-.8-.6-1.3c0-.7.3-1.2.8-1.5s1.2-.5 2.1-.5h1.1v-.5c0-.4-.1-.7-.3-.9s-.6-.3-1-.3-.7.1-1 .3-.5.3-.5.5h-1.1c0-.3.1-.6.3-.9s.5-.5.9-.7.8-.3 1.3-.3c.7 0 1.3.2 1.7.5s.6.9.6 1.5v2.9c0 .6.1 1 .2 1.4v.1h-1zm-1.8-.8c.3 0 .7-.1 1-.3s.5-.4.7-.7v-1.3H82c-1.3 0-2 .4-2 1.2 0 .3.1.6.3.8s.5.3.8.3zM88.6 285.3h-.5c-.7 0-1.2.3-1.4.9v4.5h-1.1v-6.3h1.1v.7c.4-.6.9-.8 1.5-.8.2 0 .4 0 .5.1v.9zM91.3 282.7v1.5h1.2v.8h-1.2v3.9c0 .3.1.4.2.6s.3.2.5.2c.1 0 .3 0 .5-.1v.9c-.3.1-.6.1-.8.1-.5 0-.8-.1-1.1-.4s-.4-.7-.4-1.2v-3.9H89v-.8h1.2v-1.5h1.1zM93.8 282.6c0-.2.1-.3.2-.4s.3-.2.5-.2.4.1.5.2.2.3.2.4-.1.3-.2.4-.3.2-.5.2-.4-.1-.5-.2-.2-.2-.2-.4zm1.2 8h-1.1v-6.3H95v6.3zM97.7 284.3v.8c.5-.6 1.1-.9 1.9-.9 1.3 0 2 .8 2 2.3v4.2h-1.1v-4.2c0-.5-.1-.8-.3-1s-.5-.3-1-.3c-.4 0-.7.1-.9.3s-.5.4-.6.7v4.5h-1.1v-6.3h1.1zM103.1 287.4c0-1 .2-1.8.7-2.4s1.1-.9 1.8-.9c.8 0 1.4.3 1.8.8l.1-.7h1v6.2c0 .8-.2 1.5-.7 1.9s-1.1.7-2 .7c-.5 0-.9-.1-1.3-.3s-.8-.5-1-.8l.6-.7c.5.6 1 .9 1.7.9.5 0 .9-.1 1.2-.4s.4-.7.4-1.3v-.4c-.4.5-1 .8-1.8.8-.7 0-1.3-.3-1.8-.9s-.7-1.5-.7-2.5zm1.1.1c0 .7.1 1.3.4 1.7s.7.6 1.2.6c.7 0 1.2-.3 1.5-.9V286c-.3-.6-.8-.9-1.5-.9-.5 0-.9.2-1.2.6s-.4 1-.4 1.8zM116.9 290.6c-.1-.1-.1-.3-.2-.7-.5.5-1.1.8-1.8.8-.6 0-1.1-.2-1.5-.5s-.6-.8-.6-1.3c0-.7.3-1.2.8-1.5s1.2-.5 2.1-.5h1.1v-.5c0-.4-.1-.7-.3-.9s-.6-.3-1-.3-.7.1-1 .3-.4.4-.4.7H113c0-.3.1-.6.3-.9s.5-.5.9-.7.8-.3 1.3-.3c.7 0 1.3.2 1.7.5s.6.9.6 1.5v2.9c0 .6.1 1 .2 1.4v.1h-1.1zm-1.8-.8c.3 0 .7-.1 1-.3s.5-.4.7-.7v-1.3h-.8c-1.3 0-2 .4-2 1.2 0 .3.1.6.3.8s.5.3.8.3zM121 282.7v1.5h1.2v.8H121v3.9c0 .3.1.4.2.6s.3.2.5.2c.1 0 .3 0 .5-.1v.9c-.3.1-.6.1-.8.1-.5 0-.8-.1-1.1-.4s-.4-.7-.4-1.2v-3.9h-1.2v-.8h1.2v-1.5h1.1zM21 302.4c0-.3-.1-.6-.3-.8s-.5-.4-.9-.5c-.4-.2-.8-.3-1.1-.5s-.6-.3-.8-.5-.4-.4-.5-.7-.2-.6-.2-1c0-.7.2-1.2.6-1.6s1-.7 1.7-.7v-1.3h.9v1.3c.7.1 1.2.4 1.6.9s.6 1.1.6 1.9H21c0-.5-.1-.8-.3-1.1s-.5-.3-.8-.3c-.3 0-.6.1-.7.3s-.3.4-.3.8c0 .3.1.5.3.7s.5.4 1 .6.9.4 1.2.5.6.4.8.6.4.4.5.7.2.6.2.9c0 .7-.2 1.2-.6 1.6s-1 .7-1.7.7v1.2h-.9v-1.2c-.8-.1-1.4-.4-1.9-.9s-.7-1.1-.7-1.9h1.7c0 .5.1.8.3 1.1s.5.4 1 .4c.3 0 .6-.1.8-.3s.1-.6.1-.9zM27.8 301.2c-.4.4-1 .7-1.5.7-.8 0-1.4-.3-1.8-.8-.5-.5-.7-1.2-.7-2.1 0-.6.1-1.1.4-1.5s.6-.8 1-1.1.9-.4 1.5-.4 1.1.1 1.5.4.8.7 1 1.2.4 1.1.4 1.8v.6c0 1.4-.4 2.5-1.1 3.4s-1.7 1.2-3 1.3h-.4v-1.4h.4c1.4-.1 2.2-.8 2.3-2.1zm-1.1-.6c.3 0 .5-.1.7-.2s.3-.3.4-.5v-.7c0-.6-.1-1-.3-1.3s-.5-.5-.9-.5c-.3 0-.6.2-.8.5s-.3.7-.3 1.2.1.8.3 1.1.5.4.9.4zM30.9 303.8c0-.3.1-.5.3-.7s.4-.3.7-.3c.3 0 .5.1.7.3s.3.4.3.7c0 .3-.1.5-.3.6s-.4.2-.7.2c-.3 0-.5-.1-.7-.2s-.3-.3-.3-.6zM38.2 301.2c-.4.4-1 .7-1.5.7-.8 0-1.4-.3-1.8-.8-.5-.5-.7-1.2-.7-2.1 0-.6.1-1.1.4-1.5s.6-.8 1-1.1.9-.4 1.5-.4 1.1.1 1.5.4.8.7 1 1.2.4 1.1.4 1.8v.6c0 1.4-.4 2.5-1.1 3.4s-1.7 1.2-3 1.3h-.4v-1.4h.4c1.4-.1 2.2-.8 2.3-2.1zm-1.2-.6c.3 0 .5-.1.7-.2s.3-.3.4-.5v-.7c0-.6-.1-1-.3-1.3s-.5-.5-.9-.5c-.3 0-.6.2-.8.5s-.3.7-.3 1.2.1.8.3 1.1.6.4.9.4zM45.1 301.2c-.4.4-1 .7-1.5.7-.8 0-1.4-.3-1.8-.8-.5-.5-.7-1.2-.7-2.1 0-.6.1-1.1.4-1.5s.6-.8 1-1.1.9-.4 1.5-.4 1.1.1 1.5.4.8.7 1 1.2.4 1.1.4 1.8v.6c0 1.4-.4 2.5-1.1 3.4s-1.7 1.2-3 1.3h-.4v-1.4h.4c1.3-.1 2.1-.8 2.3-2.1zm-1.2-.6c.3 0 .5-.1.7-.2s.3-.3.4-.5v-.7c0-.6-.1-1-.3-1.3s-.5-.5-.9-.5c-.3 0-.6.2-.8.5s-.3.7-.3 1.2.1.8.3 1.1.5.4.9.4zM52.7 296.7v1.5h1.2v.8h-1.2v3.9c0 .3.1.4.2.6s.3.2.5.2c.1 0 .3 0 .5-.1v.9c-.3.1-.6.1-.8.1-.5 0-.8-.1-1.1-.4s-.4-.7-.4-1.2v-3.9h-1.2v-.8h1.2v-1.5h1.1zM54.7 301.4c0-.6.1-1.2.4-1.7s.6-.9 1-1.1.9-.4 1.5-.4c.9 0 1.6.3 2.1.9s.8 1.4.8 2.4v.1c0 .6-.1 1.2-.4 1.7s-.6.9-1 1.1-.9.4-1.5.4c-.9 0-1.6-.3-2.1-.9s-.8-1.4-.8-2.5zm1.1.1c0 .7.2 1.3.5 1.7s.8.6 1.3.6c.6 0 1-.2 1.3-.6s.5-1 .5-1.8c0-.7-.2-1.3-.5-1.7s-.8-.6-1.3-.6-1 .2-1.3.6-.5 1-.5 1.8zM68.6 302.4c0-.3-.1-.6-.3-.8s-.5-.4-.9-.5c-.4-.2-.8-.3-1.1-.5s-.6-.3-.8-.5-.4-.4-.5-.7-.2-.6-.2-1c0-.7.2-1.2.6-1.6s1-.7 1.7-.7v-1.3h.9v1.3c.7.1 1.2.4 1.6.9s.6 1.1.6 1.9h-1.7c0-.5-.1-.8-.3-1.1s-.5-.3-.8-.3c-.3 0-.6.1-.7.3s-.3.4-.3.8c0 .3.1.5.3.7s.5.4 1 .6.9.4 1.2.5.6.4.8.6.4.4.5.7.2.6.2.9c0 .7-.2 1.2-.6 1.6s-1 .7-1.7.7v1.2h-.9v-1.2c-.8-.1-1.4-.4-1.9-.9s-.7-1.1-.7-1.9h1.7c0 .5.1.8.3 1.1s.5.4 1 .4c.3 0 .6-.1.8-.3s.2-.6.2-.9zM77.3 304.6h-5.8v-1.2l2.8-2.9c.4-.4.7-.8.8-1.1s.3-.6.3-.9c0-.4-.1-.7-.3-.9s-.5-.3-.8-.3c-.4 0-.7.1-.9.4s-.3.6-.3 1h-1.7c0-.5.1-1 .4-1.4s.6-.8 1.1-1 1-.4 1.5-.4c.9 0 1.6.2 2 .6s.7 1 .7 1.8c0 .4-.1.9-.3 1.3s-.6.9-1.1 1.5l-1.9 2h3.7v1.5zM83.4 301.4h1v1.4h-1v1.8h-1.7v-1.8h-3.5l-.1-1.1 3.6-5.6h1.7v5.3zm-3.6 0h1.9v-3l-.1.2-1.8 2.8zM85.4 303.8c0-.3.1-.5.3-.7s.4-.3.7-.3c.3 0 .5.1.7.3s.3.4.3.7c0 .3-.1.5-.3.6s-.4.2-.7.2c-.3 0-.5-.1-.7-.2s-.3-.3-.3-.6zM92.7 301.2c-.4.4-1 .7-1.5.7-.8 0-1.4-.3-1.8-.8-.5-.5-.7-1.2-.7-2.1 0-.6.1-1.1.4-1.5s.6-.8 1-1.1.9-.4 1.5-.4 1.1.1 1.5.4.8.7 1 1.2.4 1.1.4 1.8v.6c0 1.4-.4 2.5-1.1 3.4s-1.7 1.2-3 1.3H90v-1.4h.4c1.4-.1 2.2-.8 2.3-2.1zm-1.2-.6c.3 0 .5-.1.7-.2s.3-.3.4-.5v-.7c0-.6-.1-1-.3-1.3s-.5-.5-.9-.5c-.3 0-.6.2-.8.5s-.3.7-.3 1.2.1.8.3 1.1.6.4.9.4zM99.6 301.2c-.4.4-1 .7-1.5.7-.8 0-1.4-.3-1.8-.8-.5-.5-.7-1.2-.7-2.1 0-.6.1-1.1.4-1.5s.6-.8 1-1.1.9-.4 1.5-.4 1.1.1 1.5.4.8.7 1 1.2.4 1.1.4 1.8v.6c0 1.4-.4 2.5-1.1 3.4s-1.7 1.2-3 1.3h-.4v-1.4h.4c1.3-.1 2.1-.8 2.3-2.1zm-1.2-.6c.3 0 .5-.1.7-.2s.3-.3.4-.5v-.7c0-.6-.1-1-.3-1.3s-.5-.5-.9-.5c-.3 0-.6.2-.8.5s-.3.7-.3 1.2.1.8.3 1.1.5.4.9.4zM102.9 305.4h-.9l3.6-9.3h.9l-3.6 9.3zM108.7 298.3v.7c.5-.5 1.1-.8 1.9-.8.9 0 1.5.3 1.8 1 .2-.3.5-.6.8-.7s.7-.3 1.2-.3c1.4 0 2.1.7 2.1 2.2v4.2h-1.1v-4.2c0-.5-.1-.8-.3-1s-.6-.3-1-.3-.7.1-1 .4-.4.6-.5 1v4.2h-1.1v-4.2c0-.9-.5-1.4-1.4-1.4-.7 0-1.2.3-1.5.9v4.6h-1.1v-6.3h1.2zM117.9 301.4c0-.6.1-1.2.4-1.7s.6-.9 1-1.1.9-.4 1.5-.4c.9 0 1.6.3 2.1.9s.8 1.4.8 2.4v.1c0 .6-.1 1.2-.4 1.7s-.6.9-1 1.1-.9.4-1.5.4c-.9 0-1.6-.3-2.1-.9s-.8-1.4-.8-2.5zm1.1.1c0 .7.2 1.3.5 1.7s.8.6 1.3.6c.6 0 1-.2 1.3-.6s.5-1 .5-1.8c0-.7-.2-1.3-.5-1.7s-.8-.6-1.3-.6-1 .2-1.3.6-.5 1-.5 1.8zM126.1 298.3v.8c.5-.6 1.1-.9 1.9-.9 1.3 0 2 .8 2 2.3v4.2h-1.1v-4.2c0-.5-.1-.8-.3-1s-.5-.3-1-.3c-.4 0-.7.1-.9.3s-.5.4-.6.7v4.5H125v-6.3h1.1zM133.1 296.7v1.5h1.2v.8h-1.2v3.9c0 .3.1.4.2.6s.3.2.5.2c.1 0 .3 0 .5-.1v.9c-.3.1-.6.1-.8.1-.5 0-.8-.1-1.1-.4s-.4-.7-.4-1.2v-3.9h-1.2v-.8h1.2v-1.5h1.1zM136.7 299c.5-.6 1.1-.9 1.9-.9 1.3 0 2 .8 2 2.3v4.2h-1.1v-4.2c0-.5-.1-.8-.3-1s-.5-.3-1-.3c-.4 0-.7.1-.9.3s-.5.4-.6.7v4.5h-1.1v-9h1.1v3.4zM142.2 304c0-.2.1-.3.2-.5s.3-.2.5-.2.4.1.5.2.2.3.2.5-.1.3-.2.5-.3.2-.5.2-.4-.1-.5-.2-.2-.3-.2-.5z"/></svg>