<svg id="Layer_1" xmlns="http://www.w3.org/2000/svg" xmlns:xlink="http://www.w3.org/1999/xlink" viewBox="0 0 160 600"><style>.st0{clip-path:url(#SVGID_00000026866935438122080560000015968090313525098666_)}.st1{clip-path:url(#SVGID_00000014624414547069371180000017031521635421829760_);fill:#fff}</style><defs><path id="SVGID_1_" d="M23.3 13.6h113.2v32.6H23.3z"/></defs><clipPath id="SVGID_00000149381310912571760240000005161027678625130634_"><use xlink:href="#SVGID_1_" overflow="visible"/></clipPath><g clip-path="url(#SVGID_00000149381310912571760240000005161027678625130634_)"><defs><path id="SVGID_00000148631144005448259640000002474498290856549292_" d="M23.3 13.6h113.2v32.6H23.3z"/></defs><clipPath id="SVGID_00000155131709031832825490000005963800537181160327_"><use xlink:href="#SVGID_00000148631144005448259640000002474498290856549292_" overflow="visible"/></clipPath><path d="M132.6 27c0-.2.1-.4.2-.5.1-.1.3-.2.5-.2s.3.1.5.2c.1.1.2.3.2.5v7.7c0 .2-.1.4-.2.5-.1.1-.3.2-.5.2s-.3-.1-.5-.2c-.1-.1-.2-.3-.2-.5V27zM93.7 39.2c-.6.4-1.2.6-2 .6-.4 0-.8-.1-1-.2-.2-.1-.5-.2-.7-.3-.2-.1-.3-.3-.3-.6 0-.2.1-.4.2-.5.1-.1.3-.2.5-.2s.3 0 .4.1c.3.2.6.3 1 .3.3 0 .5 0 .7-.1.2-.1.4-.2.6-.4.2-.2.3-.4.4-.6.1-.2.2-.5.2-.7v-5.2c0-.2.1-.4.2-.5.1-.1.3-.2.5-.2s.3.1.5.2c.1.1.2.3.2.5v5.3c0 1-.5 1.9-1.4 2.5M62.5 23.9c0-.2.1-.4.2-.5.1-.1.3-.2.5-.2s.3.1.5.2c.1.1.2.3.2.5v.5c0 .2-.1.4-.2.5-.1.1-.3.2-.5.2s-.3-.1-.5-.2c-.1-.1-.2-.3-.2-.5v-.5zm0 3.2c0-.2.1-.4.2-.5.1-.1.3-.2.5-.2s.3.1.5.2c.1.1.2.3.2.5v7.6c0 .2-.1.4-.2.5-.1.1-.3.2-.5.2s-.3-.1-.5-.2c-.1-.1-.2-.3-.2-.5v-7.6zM56.5 27.3c0-.2.1-.3.2-.5.1-.1.3-.2.5-.2s.3.1.4.2c.1.1.2.2.2.4.6-.4 1.2-.6 2-.6.4 0 .7.1 1 .2.2.1.5.2.7.3.2.1.3.3.3.6 0 .2-.1.4-.2.5-.1.1-.3.2-.5.2s-.3 0-.4-.1c-.3-.2-.6-.2-.9-.2-.3 0-.5 0-.7.1-.2.1-.4.2-.6.4-.2.2-.3.3-.4.6-.1.2-.1.4-.2.7V35c0 .2-.1.4-.2.5-.1.1-.3.2-.5.2s-.3-.1-.5-.2c-.1-.1-.2-.3-.2-.5V27.3zM64.8 27.4c0-.1-.1-.2-.1-.3 0-.2.1-.3.2-.5.1-.1.3-.2.5-.2.1 0 .3 0 .4.1l.3.3 2.7 6.3 2.7-6.3c.1-.3.3-.4.6-.4.2 0 .4.1.5.2.1.1.2.3.2.5 0 .1 0 .2-.1.3l-3.3 7.7c-.1.3-.3.4-.6.4s-.5-.1-.6-.4l-3.4-7.7zM73 29.6c0-.4.1-.9.3-1.3.2-.4.4-.7.7-1 .3-.3.7-.5 1-.7.4-.2.8-.3 1.3-.3.4 0 .9.1 1.3.3.4.2.7.4 1 .7.3.3.5.6.7 1s.3.8.3 1.3v5.1c0 .2-.1.4-.2.5-.1.1-.3.2-.5.2s-.3-.1-.4-.2c-.1-.1-.2-.2-.2-.4-.6.4-1.2.6-1.9.6-.4 0-.9-.1-1.3-.3-.4-.2-.7-.4-1-.7-.3-.3-.5-.6-.7-1-.2-.4-.3-.8-.3-1.3v-2.5zm1.4 2.6c0 .3.1.5.2.7.1.2.2.4.4.6.2.2.4.3.6.4.2.1.5.1.7.1s.5 0 .7-.1c.2-.1.4-.2.6-.4.2-.2.3-.4.4-.6s.2-.5.2-.7v-2.7c0-.3-.1-.5-.2-.7-.1-.2-.2-.4-.4-.6-.2-.2-.4-.3-.6-.4-.2-.1-.5-.1-.7-.1-.3 0-.5 0-.7.1-.2.1-.4.2-.6.4-.2.2-.3.4-.4.6-.1.2-.1.5-.1.7v2.7zM80.9 29.6c0-.5.1-.9.3-1.3.2-.4.4-.7.7-1 .3-.3.7-.5 1.1-.7.4-.2.8-.3 1.3-.3h.5c.2 0 .5.1.8.2.3.1.6.3.9.6.3.3.5.7.7 1.1 0 .1.1.2.1.3 0 .2-.1.4-.2.5-.1.1-.3.2-.5.2-.1 0-.3 0-.4-.1-.1-.1-.2-.2-.2-.3-.2-.4-.4-.6-.7-.9-.3-.2-.7-.3-1-.3-.3 0-.5 0-.7.1-.2.1-.4.2-.6.4-.2.2-.3.4-.4.6-.1.2-.1.5-.1.7V32c0 .3.1.5.2.7.1.2.2.4.4.6.2.2.4.3.6.4.2.1.5.1.7.1.4 0 .7-.1 1.1-.3.3-.2.6-.5.7-.9.1-.1.1-.2.3-.3.1-.1.2-.1.4-.1s.4.1.5.2c.1.1.2.3.2.5 0 .1 0 .2-.1.3-.2.5-.5.9-.9 1.2-.3.3-.7.5-1 .6-.3.1-.6.2-.8.2h-.4c-.4 0-.9-.1-1.3-.3-.4-.2-.7-.4-1-.7-.3-.3-.5-.6-.7-1-.2-.4-.3-.8-.3-1.3v-2.3zM105.9 27.1c0-.2.1-.4.2-.5.1-.1.3-.2.5-.2s.3.1.5.2c.1.1.2.3.2.5v5.1c0 .3 0 .5.1.7.1.2.2.4.4.6.2.2.4.3.6.4.2.1.5.1.7.1.3 0 .5 0 .7-.1.2-.1.4-.2.6-.4.2-.2.3-.4.4-.6.1-.2.2-.5.2-.7v-5.1c0-.2.1-.4.2-.5.1-.1.3-.2.5-.2s.3.1.5.2c.1.1.2.3.2.5v5.1c0 .4-.1.9-.3 1.3-.2.4-.4.7-.7 1-.3.3-.6.5-1 .7-.4.2-.8.3-1.3.3s-.9-.1-1.3-.3c-.4-.2-.7-.4-1-.7-.3-.3-.5-.6-.7-1-.2-.4-.3-.8-.3-1.3v-5.1zM113.8 29.6c0-.4.1-.9.3-1.3.2-.4.4-.7.7-1 .3-.3.7-.5 1-.7.4-.2.8-.3 1.3-.3.4 0 .9.1 1.3.3.4.2.7.4 1 .7.3.3.5.6.7 1s.3.8.3 1.3v5.1c0 .2-.1.4-.2.5-.1.1-.3.2-.5.2s-.3-.1-.4-.2c-.1-.1-.2-.2-.2-.4-.6.4-1.2.6-1.9.6-.4 0-.9-.1-1.3-.3-.4-.2-.7-.4-1-.7-.3-.3-.5-.6-.7-1-.2-.4-.3-.8-.3-1.3v-2.5zm1.4 2.6c0 .3.1.5.2.7.1.2.2.4.4.6.2.2.4.3.6.4.2.1.5.1.7.1.3 0 .5 0 .7-.1.2-.1.4-.2.6-.4.2-.2.3-.4.4-.6.1-.2.2-.5.2-.7v-2.7c0-.3-.1-.5-.2-.7-.1-.2-.2-.4-.4-.6-.2-.2-.4-.3-.6-.4-.2-.1-.5-.1-.7-.1-.3 0-.5 0-.7.1-.2.1-.4.2-.6.4-.2.2-.3.4-.4.6-.1.2-.1.5-.1.7v2.7zM121.8 27.3c0-.2.1-.3.2-.5.1-.1.3-.2.5-.2s.3.1.4.2c.1.1.2.2.2.4.6-.4 1.2-.6 2-.6.4 0 .7.1 1 .2.2.1.5.2.7.3.2.1.3.3.3.6 0 .2-.1.4-.2.5-.1.1-.3.2-.5.2s-.3 0-.4-.1c-.3-.2-.6-.2-.9-.2-.3 0-.5 0-.7.1-.2.1-.4.2-.6.4-.2.2-.3.3-.4.6-.1.2-.1.4-.2.7V35c0 .2-.1.4-.2.5-.1.1-.3.2-.5.2s-.3-.1-.5-.2-.2-.3-.2-.5V27.3z" clip-path="url(#SVGID_00000155131709031832825490000005963800537181160327_)" fill="#fff"/><path d="M132.6 23.9c0-.2.1-.4.2-.5.1-.1.3-.2.5-.2s.3.1.5.2c.1.1.2.3.2.5v8.3c0 .4-.1.9-.3 1.3-.2.4-.4.7-.7 1-.3.3-.6.5-1 .7-.4.2-.8.3-1.3.3s-.9-.1-1.3-.3c-.4-.2-.7-.4-1-.7-.3-.3-.5-.6-.7-1-.2-.4-.3-.8-.3-1.3v-2.6c0-.4.1-.9.3-1.3.2-.4.4-.7.7-1 .3-.3.6-.5 1-.7.4-.2.8-.3 1.3-.3.4 0 .7.1 1 .2.3.1.6.3.9.5v-3.1zm-3.8 8.3c0 .3 0 .5.1.7.1.2.2.4.4.6.2.2.4.3.6.4.2.1.5.1.7.1.3 0 .5 0 .7-.1.2-.1.4-.2.6-.4.2-.2.3-.4.4-.6.1-.2.2-.5.2-.7v-2.6c0-.3 0-.5-.1-.7-.1-.2-.2-.4-.4-.6-.2-.2-.4-.3-.6-.4-.2-.1-.5-.1-.7-.1-.3 0-.5 0-.7.1-.2.1-.4.2-.6.4-.2.2-.3.4-.4.6-.1.2-.2.5-.2.7v2.6zM88.5 27.1c0-.2.1-.4.2-.5.1-.1.3-.2.5-.2s.3.1.5.2c.1.1.2.3.2.5v5.1c0 .3 0 .5.1.7.1.2.2.4.4.6.2.2.4.3.6.4.2.1.5.1.7.1.3 0 .5 0 .7-.1.2-.1.4-.2.6-.4.2-.2.3-.4.4-.6.1-.2.2-.5.2-.7v-5.1c0-.2.1-.4.2-.5.1-.1.3-.2.5-.2s.3.1.5.2c.1.1.2.3.2.5v5.1c0 .4-.1.9-.3 1.3-.2.4-.4.7-.7 1-.3.3-.6.5-1 .7-.4.2-.8.3-1.3.3s-.9-.1-1.3-.3c-.4-.2-.7-.4-1-.7-.3-.3-.5-.6-.7-1-.2-.4-.3-.8-.3-1.3v-5.1zM104 29.3h-2.9c-.4 0-.7.3-.7.7 0 .4.3.7.7.7h2.3v1.1c0 1.5-1.3 2.6-2.8 2.6-1.6 0-2.9-1.1-2.9-2.9v-4.1c0-1.7 1.3-2.9 2.8-2.9 1.3 0 2.3.9 2.7 2 .1.2.3.4.6.4.5 0 .9-.4.6-1.1-.4-1.3-1.8-2.7-4-2.7-2.5 0-4.3 2-4.3 4.2v4.3c0 2.3 1.8 4.2 4.3 4.2 2.2 0 4.1-1.7 4.1-3.7V30c.2-.4-.1-.7-.5-.7" clip-path="url(#SVGID_00000155131709031832825490000005963800537181160327_)" fill="#fff"/><path d="M132.6 27.1c0-.2.1-.4.2-.5.1-.1.3-.2.5-.2s.3.1.5.2c.1.1.2.3.2.5v7.6c0 .2-.1.4-.2.5-.1.1-.3.2-.5.2s-.3-.1-.5-.2c-.1-.1-.2-.3-.2-.5v-7.6zM47.7 24.4c0-.2.1-.4.2-.5.1-.1.3-.2.5-.2h2.7c.6 0 1.1.1 1.6.3.5.2 1 .5 1.3.9.4.4.7.8.9 1.3.2.5.3 1.1.3 1.6 0 .6-.1 1.1-.3 1.6-.2.5-.5.9-.9 1.3s-.8.7-1.3.9c-.5.2-1.1.3-1.6.3H49v2.7c0 .2-.1.4-.2.5-.1.1-.3.2-.5.2s-.3-.1-.5-.2c-.1-.1-.2-.3-.2-.5V24.4zm1.4.6v5.7h2.1c.4 0 .8-.1 1.1-.2.3-.1.7-.4.9-.6.3-.3.5-.6.6-.9.1-.3.2-.7.2-1.1 0-.4-.1-.8-.2-1.1l-.6-.9c-.3-.3-.6-.5-.9-.6-.4-.1-.7-.2-1.1-.2h-2.1zM34.2 35.9v1.4c0 1.1-.9 2-2 2-.4 0-.7-.1-1-.3-.3-.2-.4-.6-.2-.9.2-.3.6-.4.9-.2.1.1.2.1.3.1.4 0 .6-.3.6-.6V36c0-.4.3-.7.7-.7s.7.2.7.6m-4.6 2.7c-.2-.3-.6-.5-.9-.3-.3.2-.5.6-.3.9.7 1.4 2.2 2.3 3.8 2.3 2.4 0 4.3-1.9 4.3-4.3v-1.4c0-.4-.3-.7-.7-.7s-.7.3-.7.7v1.4c0 1.6-1.3 2.9-2.9 2.9-1.1.1-2.1-.5-2.6-1.5M32 15.9c-3.5.1-6.4 3.1-6.4 6.7v14.7c0 1.8.7 3.5 2 4.7 1.2 1.2 2.9 1.9 4.6 1.9h.2c3.5-.1 6.4-3.1 6.4-6.7V36c0-1.7-1.4-3.1-3.1-3.1h-2.1c-.4 0-.7.3-.7.7s.3.7.7.7h2.1c1 0 1.8.8 1.8 1.8v1.1c0 2.9-2.3 5.3-5.1 5.4-1.4 0-2.8-.5-3.8-1.5S27 38.8 27 37.3V22.6c0-2.9 2.3-5.3 5.1-5.4 1.4 0 2.8.5 3.8 1.5s1.6 2.3 1.6 3.8v8.6c0 .4.3.7.7.7.4 0 .7-.3.7-.7v-8.6c0-1.8-.7-3.5-2-4.7-1.4-1.3-3.1-2-4.9-1.9m4.5 11.7v-5.2c0-2.4-1.9-4.3-4.3-4.3s-4.3 1.9-4.3 4.3v.8c0 .4.3.7.7.7.4 0 .7-.3.7-.7v-.8c0-1.6 1.3-2.9 2.9-2.9 1.6 0 2.9 1.3 2.9 2.9v5.2c0 1.6-1.3 2.9-2.9 2.9-.4 0-.7-.1-1.1-.2-.2-.1-.5-.1-.6.1-.2.1-.3.3-.3.6v4.7c0 .3-.2.5-.5.5s-.5-.2-.5-.5V25.6c0-.4-.3-.7-.7-.7-.4 0-.7.3-.7.7v10.1c0 1 .8 1.8 1.8 1.8s1.8-.8 1.8-1.8v-3.8h.6c2.6 0 4.5-1.9 4.5-4.3m4.6-5v14.7c0 2.4-1 4.7-2.7 6.4-1.7 1.6-3.9 2.5-6.2 2.5H32c-4.8-.1-8.7-4.2-8.7-9.1V22.5c0-2.4 1-4.7 2.7-6.4 1.7-1.7 4-2.6 6.4-2.5 4.8.1 8.7 4.1 8.7 9m-1.3 11v-11c0-4.1-3.3-7.6-7.3-7.7-2-.1-4 .7-5.4 2.1-1.5 1.4-2.3 3.3-2.3 5.4v14.7c0 4.1 3.3 7.6 7.3 7.7 2 0 4-.7 5.4-2.1 1.5-1.4 2.3-3.3 2.3-5.4v-3.7zm-9.6-6v-5.2c0-1.1.9-2 2-2s2 .9 2 2v5.2c0 1.1-.9 2-2 2-1.1.1-2-.9-2-2m1.4 0c0 .4.3.6.6.6.4 0 .6-.3.6-.6v-5.2c0-.4-.3-.6-.6-.6-.4 0-.6.3-.6.6v5.2zM134.9 23.5h-.2v-.2h.7v.2h-.2v.7h-.3zM136.3 23.9v-.4c0 .1-.1.3-.1.4l-.1.4h-.2l-.1-.4c0-.1-.1-.2-.1-.4v.8h-.2l.1-1h.3l.1.3c0 .1.1.2.1.3 0-.1.1-.2.1-.3l.1-.3h.3l.1 1h-.2l-.2-.4z" clip-path="url(#SVGID_00000155131709031832825490000005963800537181160327_)" fill="#fff"/></g></svg>