<?xml version="1.0" encoding="utf-8"?>
<!-- Generator: Adobe Illustrator 24.2.3, SVG Export Plug-In . SVG Version: 6.00 Build 0)  -->
<svg version="1.1" id="Layer_1" xmlns="http://www.w3.org/2000/svg" xmlns:xlink="http://www.w3.org/1999/xlink" x="0px" y="0px"
	 viewBox="0 0 320 100" style="enable-background:new 0 0 320 100;" xml:space="preserve">
<style type="text/css">
	.st0{fill:#021D8B;}
	.st1{fill:url(#SVGID_1_);}
</style>
<g>
	<path class="st0" d="M130.85,24.6c-0.29,0.41-0.69,0.72-1.21,0.93s-1.12,0.31-1.81,0.31c-0.7,0-1.31-0.16-1.85-0.49
		s-0.96-0.79-1.25-1.39s-0.45-1.3-0.45-2.09v-0.74c0-1.29,0.3-2.28,0.9-2.99s1.44-1.06,2.53-1.06c0.89,0,1.61,0.23,2.15,0.68
		s0.88,1.1,1,1.94h-1.12c-0.21-1.13-0.88-1.7-2.02-1.7c-0.75,0-1.33,0.27-1.71,0.79c-0.39,0.53-0.58,1.3-0.59,2.3v0.7
		c0,0.96,0.22,1.72,0.66,2.28c0.44,0.57,1.03,0.85,1.78,0.85c0.42,0,0.79-0.05,1.11-0.14c0.32-0.09,0.58-0.25,0.79-0.47v-1.91h-1.97
		v-0.92h3.09V24.6z"/>
	<path class="st0" d="M135.19,25.84c-0.86,0-1.56-0.28-2.1-0.85s-0.81-1.32-0.81-2.26v-0.2c0-0.63,0.12-1.19,0.36-1.68
		s0.58-0.88,1.01-1.16s0.9-0.42,1.4-0.42c0.82,0,1.46,0.27,1.92,0.81s0.69,1.32,0.69,2.33v0.45h-4.29c0.02,0.62,0.2,1.13,0.55,1.51
		s0.79,0.58,1.33,0.58c0.38,0,0.71-0.08,0.97-0.23s0.5-0.36,0.7-0.62l0.66,0.52C137.05,25.43,136.25,25.84,135.19,25.84z
		 M135.05,20.15c-0.44,0-0.8,0.16-1.1,0.48s-0.48,0.76-0.55,1.34h3.18v-0.08c-0.03-0.55-0.18-0.98-0.45-1.28
		S135.51,20.15,135.05,20.15z"/>
	<path class="st0" d="M140.38,17.85v1.54h1.18v0.84h-1.18v3.94c0,0.25,0.05,0.44,0.16,0.57c0.11,0.13,0.29,0.19,0.54,0.19
		c0.12,0,0.3-0.02,0.52-0.07v0.87c-0.29,0.08-0.56,0.12-0.83,0.12c-0.48,0-0.85-0.15-1.1-0.44s-0.37-0.71-0.37-1.25v-3.93h-1.15
		v-0.84h1.15v-1.54H140.38z"/>
	<path class="st0" d="M147.1,22.38v3.34h-1.12v-8.53h3.15c0.93,0,1.67,0.24,2.19,0.71s0.79,1.11,0.79,1.89
		c0,0.83-0.26,1.47-0.78,1.91s-1.26,0.67-2.22,0.67H147.1z M147.1,21.46h2.02c0.6,0,1.06-0.14,1.38-0.43
		c0.32-0.28,0.48-0.69,0.48-1.23c0-0.51-0.16-0.92-0.48-1.22s-0.76-0.46-1.32-0.48h-2.09V21.46z"/>
	<path class="st0" d="M156.44,20.35c-0.16-0.03-0.34-0.04-0.53-0.04c-0.71,0-1.19,0.3-1.45,0.91v4.5h-1.08v-6.34h1.05l0.02,0.73
		c0.36-0.57,0.86-0.85,1.51-0.85c0.21,0,0.37,0.03,0.48,0.08V20.35z"/>
	<path class="st0" d="M157.44,17.7c0-0.18,0.05-0.32,0.16-0.45s0.27-0.18,0.48-0.18s0.37,0.06,0.48,0.18s0.16,0.27,0.16,0.45
		s-0.05,0.32-0.16,0.44s-0.27,0.18-0.48,0.18s-0.37-0.06-0.48-0.18S157.44,17.87,157.44,17.7z M158.61,25.72h-1.08v-6.34h1.08V25.72
		z"/>
	<path class="st0" d="M162.44,24.25l1.57-4.87h1.11l-2.27,6.34h-0.83l-2.3-6.34h1.11L162.44,24.25z"/>
	<path class="st0" d="M169.99,25.72c-0.06-0.12-0.11-0.35-0.15-0.67c-0.5,0.52-1.11,0.79-1.8,0.79c-0.62,0-1.14-0.18-1.54-0.53
		s-0.6-0.8-0.6-1.34c0-0.66,0.25-1.17,0.75-1.54s1.21-0.55,2.12-0.55h1.05v-0.5c0-0.38-0.11-0.68-0.34-0.91s-0.56-0.34-1-0.34
		c-0.39,0-0.71,0.1-0.97,0.29s-0.39,0.43-0.39,0.71h-1.09c0-0.32,0.11-0.62,0.34-0.92s0.53-0.53,0.91-0.7s0.81-0.26,1.27-0.26
		c0.73,0,1.3,0.18,1.72,0.55s0.63,0.87,0.64,1.51v2.92c0,0.58,0.07,1.04,0.22,1.39v0.09H169.99z M168.19,24.89
		c0.34,0,0.66-0.09,0.97-0.26s0.53-0.4,0.66-0.69v-1.3h-0.85c-1.33,0-1.99,0.39-1.99,1.17c0,0.34,0.11,0.61,0.34,0.8
		S167.83,24.89,168.19,24.89z"/>
	<path class="st0" d="M175.14,24.95c0.39,0,0.72-0.12,1.01-0.35s0.45-0.53,0.48-0.88h1.03c-0.02,0.36-0.14,0.71-0.38,1.04
		s-0.54,0.59-0.92,0.79s-0.79,0.29-1.22,0.29c-0.86,0-1.55-0.29-2.06-0.86s-0.76-1.36-0.76-2.36v-0.18c0-0.62,0.11-1.17,0.34-1.65
		s0.55-0.85,0.98-1.12s0.92-0.4,1.5-0.4c0.71,0,1.3,0.21,1.77,0.64s0.72,0.98,0.75,1.66h-1.03c-0.03-0.41-0.19-0.75-0.47-1.01
		s-0.62-0.4-1.03-0.4c-0.55,0-0.98,0.2-1.28,0.59s-0.45,0.97-0.45,1.72v0.21c0,0.73,0.15,1.29,0.45,1.69S174.58,24.95,175.14,24.95z
		"/>
	<path class="st0" d="M180.96,24.13l1.48-4.75h1.16l-2.55,7.32c-0.39,1.05-1.02,1.58-1.88,1.58l-0.21-0.02l-0.4-0.08v-0.88
		l0.29,0.02c0.37,0,0.65-0.07,0.86-0.22s0.37-0.42,0.51-0.81l0.24-0.64l-2.26-6.27h1.18L180.96,24.13z"/>
	<path class="st0" d="M191.03,24.6c-0.29,0.41-0.69,0.72-1.21,0.93s-1.12,0.31-1.81,0.31c-0.7,0-1.31-0.16-1.85-0.49
		s-0.96-0.79-1.25-1.39s-0.45-1.3-0.45-2.09v-0.74c0-1.29,0.3-2.28,0.9-2.99s1.44-1.06,2.53-1.06c0.89,0,1.61,0.23,2.15,0.68
		s0.88,1.1,1,1.94h-1.12c-0.21-1.13-0.88-1.7-2.02-1.7c-0.75,0-1.33,0.27-1.71,0.79c-0.39,0.53-0.58,1.3-0.59,2.3v0.7
		c0,0.96,0.22,1.72,0.66,2.28c0.44,0.57,1.03,0.85,1.78,0.85c0.42,0,0.79-0.05,1.11-0.14c0.32-0.09,0.58-0.25,0.79-0.47v-1.91h-1.97
		v-0.92h3.09V24.6z"/>
	<path class="st0" d="M196.65,25.09c-0.42,0.5-1.04,0.74-1.86,0.74c-0.68,0-1.19-0.2-1.54-0.59s-0.53-0.97-0.54-1.74v-4.12h1.08v4.1
		c0,0.96,0.39,1.44,1.17,1.44c0.83,0,1.38-0.31,1.65-0.93v-4.61h1.08v6.34h-1.03L196.65,25.09z"/>
	<path class="st0" d="M203.26,25.72c-0.06-0.12-0.11-0.35-0.15-0.67c-0.5,0.52-1.11,0.79-1.8,0.79c-0.62,0-1.14-0.18-1.54-0.53
		s-0.6-0.8-0.6-1.34c0-0.66,0.25-1.17,0.75-1.54s1.21-0.55,2.12-0.55h1.05v-0.5c0-0.38-0.11-0.68-0.34-0.91s-0.56-0.34-1-0.34
		c-0.39,0-0.71,0.1-0.97,0.29s-0.39,0.43-0.39,0.71h-1.09c0-0.32,0.11-0.62,0.34-0.92s0.53-0.53,0.91-0.7s0.81-0.26,1.27-0.26
		c0.73,0,1.3,0.18,1.72,0.55s0.63,0.87,0.64,1.51v2.92c0,0.58,0.07,1.04,0.22,1.39v0.09H203.26z M201.46,24.89
		c0.34,0,0.66-0.09,0.97-0.26s0.53-0.4,0.66-0.69v-1.3h-0.85c-1.33,0-1.99,0.39-1.99,1.17c0,0.34,0.11,0.61,0.34,0.8
		S201.11,24.89,201.46,24.89z"/>
	<path class="st0" d="M208.94,20.35c-0.16-0.03-0.34-0.04-0.53-0.04c-0.71,0-1.19,0.3-1.45,0.91v4.5h-1.08v-6.34h1.05l0.02,0.73
		c0.36-0.57,0.86-0.85,1.51-0.85c0.21,0,0.37,0.03,0.48,0.08V20.35z"/>
	<path class="st0" d="M209.67,22.5c0-0.97,0.23-1.75,0.69-2.35s1.06-0.89,1.81-0.89c0.74,0,1.33,0.25,1.76,0.76v-3.3h1.08v9h-1
		l-0.05-0.68c-0.43,0.53-1.04,0.8-1.81,0.8c-0.73,0-1.33-0.3-1.8-0.9s-0.69-1.39-0.69-2.36V22.5z M210.76,22.62
		c0,0.72,0.15,1.28,0.45,1.69s0.71,0.61,1.23,0.61c0.69,0,1.19-0.31,1.51-0.93v-2.91c-0.32-0.6-0.82-0.9-1.49-0.9
		c-0.53,0-0.95,0.21-1.24,0.62S210.76,21.82,210.76,22.62z"/>
	<path class="st0" d="M225.29,24.23l1.22-4.85h1.08l-1.85,6.34h-0.88l-1.54-4.8l-1.5,4.8h-0.88l-1.84-6.34h1.08l1.25,4.75l1.48-4.75
		h0.87L225.29,24.23z"/>
	<path class="st0" d="M228.7,17.7c0-0.18,0.05-0.32,0.16-0.45s0.27-0.18,0.48-0.18s0.37,0.06,0.48,0.18s0.16,0.27,0.16,0.45
		s-0.05,0.32-0.16,0.44s-0.27,0.18-0.48,0.18s-0.37-0.06-0.48-0.18S228.7,17.87,228.7,17.7z M229.87,25.72h-1.08v-6.34h1.08V25.72z"
		/>
	<path class="st0" d="M233.07,17.85v1.54h1.18v0.84h-1.18v3.94c0,0.25,0.05,0.44,0.16,0.57c0.11,0.13,0.29,0.19,0.54,0.19
		c0.12,0,0.3-0.02,0.52-0.07v0.87c-0.29,0.08-0.56,0.12-0.83,0.12c-0.48,0-0.85-0.15-1.1-0.44s-0.37-0.71-0.37-1.25v-3.93h-1.15
		v-0.84h1.15v-1.54H233.07z"/>
	<path class="st0" d="M236.61,20.15c0.48-0.59,1.11-0.88,1.88-0.88c1.34,0,2.02,0.76,2.03,2.27v4.19h-1.08v-4.2
		c0-0.46-0.11-0.79-0.31-1.01s-0.52-0.33-0.96-0.33c-0.35,0-0.66,0.09-0.93,0.28s-0.47,0.43-0.62,0.74v4.52h-1.08v-9h1.08V20.15z"/>
	<path class="st0" d="M246.54,19.38l0.05,0.71c0.45-0.55,1.06-0.83,1.82-0.83c0.82,0,1.38,0.32,1.68,0.97
		c0.45-0.64,1.08-0.97,1.9-0.97c0.69,0,1.2,0.2,1.54,0.6s0.5,1,0.5,1.81v4.05h-1.7v-4.04c0-0.36-0.07-0.62-0.21-0.79
		s-0.39-0.25-0.74-0.25c-0.51,0-0.86,0.24-1.05,0.73l0.01,4.35h-1.69v-4.04c0-0.37-0.07-0.63-0.22-0.8s-0.39-0.25-0.74-0.25
		c-0.48,0-0.83,0.2-1.04,0.6v4.48h-1.69v-6.34H246.54z"/>
	<path class="st0" d="M255.08,22.49c0-0.63,0.12-1.19,0.36-1.68s0.59-0.87,1.05-1.14s0.98-0.4,1.58-0.4c0.86,0,1.55,0.26,2.09,0.79
		s0.84,1.23,0.91,2.13l0.01,0.43c0,0.97-0.27,1.75-0.81,2.34s-1.27,0.88-2.19,0.88s-1.64-0.29-2.19-0.88s-0.82-1.38-0.82-2.39V22.49
		z M256.77,22.61c0,0.6,0.11,1.06,0.34,1.38c0.23,0.32,0.55,0.48,0.97,0.48c0.41,0,0.73-0.16,0.96-0.47
		c0.23-0.31,0.35-0.82,0.35-1.51c0-0.59-0.12-1.05-0.35-1.37s-0.55-0.49-0.97-0.49c-0.41,0-0.73,0.16-0.96,0.48
		S256.77,21.94,256.77,22.61z"/>
	<path class="st0" d="M263.68,19.38l0.05,0.73c0.45-0.57,1.06-0.85,1.82-0.85c0.67,0,1.17,0.2,1.5,0.59s0.5,0.98,0.5,1.77v4.1h-1.69
		v-4.05c0-0.36-0.08-0.62-0.23-0.78s-0.42-0.24-0.78-0.24c-0.48,0-0.83,0.2-1.07,0.61v4.47h-1.69v-6.34H263.68z"/>
	<path class="st0" d="M270.87,17.82v1.56h1.08v1.24h-1.08v3.16c0,0.23,0.04,0.4,0.13,0.5s0.26,0.15,0.52,0.15
		c0.19,0,0.35-0.01,0.5-0.04v1.28c-0.33,0.1-0.67,0.15-1.03,0.15c-1.19,0-1.79-0.6-1.82-1.8v-3.42h-0.93v-1.24h0.93v-1.56H270.87z"
		/>
	<path class="st0" d="M274.55,20.07c0.45-0.54,1.01-0.81,1.69-0.81c1.38,0,2.07,0.8,2.09,2.4v4.06h-1.69v-4.01
		c0-0.36-0.08-0.63-0.23-0.81s-0.42-0.26-0.78-0.26c-0.5,0-0.86,0.19-1.08,0.57v4.51h-1.69v-9h1.69V20.07z"/>
	<path class="st0" d="M281.4,25.72h-1.7v-9h1.7V25.72z"/>
	<path class="st0" d="M285.16,23.32l1.17-3.94h1.82l-2.55,7.32l-0.14,0.33c-0.38,0.83-1,1.24-1.88,1.24c-0.25,0-0.5-0.04-0.75-0.11
		v-1.28l0.26,0.01c0.32,0,0.56-0.05,0.72-0.15s0.28-0.26,0.37-0.49l0.2-0.52l-2.22-6.36h1.82L285.16,23.32z"/>
	<path class="st0" d="M108.72,32.22v1.56h1.08v1.24h-1.08v3.16c0,0.23,0.04,0.4,0.13,0.5s0.26,0.15,0.52,0.15
		c0.19,0,0.35-0.01,0.5-0.04v1.28c-0.33,0.1-0.67,0.15-1.03,0.15c-1.19,0-1.79-0.6-1.82-1.8v-3.42h-0.93v-1.24h0.93v-1.56H108.72z"
		/>
	<path class="st0" d="M114.31,35.37c-0.23-0.03-0.43-0.05-0.61-0.05c-0.64,0-1.06,0.22-1.26,0.65v4.15h-1.69v-6.34h1.6l0.05,0.76
		c0.34-0.58,0.81-0.87,1.41-0.87c0.19,0,0.36,0.03,0.53,0.08L114.31,35.37z"/>
	<path class="st0" d="M115.11,32.14c0-0.25,0.08-0.46,0.25-0.63s0.4-0.25,0.69-0.25c0.29,0,0.52,0.08,0.69,0.25s0.26,0.37,0.26,0.63
		c0,0.26-0.09,0.47-0.26,0.63s-0.4,0.25-0.69,0.25s-0.51-0.08-0.69-0.25S115.11,32.4,115.11,32.14z M116.91,40.12h-1.7v-6.34h1.7
		V40.12z"/>
	<path class="st0" d="M124.01,37.01c0,0.98-0.22,1.76-0.67,2.35s-1.04,0.88-1.8,0.88c-0.64,0-1.16-0.22-1.55-0.67v2.99h-1.69v-8.78
		h1.57l0.06,0.62c0.41-0.49,0.95-0.74,1.61-0.74c0.78,0,1.39,0.29,1.82,0.87s0.65,1.38,0.65,2.39V37.01z M122.32,36.89
		c0-0.59-0.1-1.04-0.31-1.37s-0.51-0.48-0.91-0.48c-0.53,0-0.9,0.2-1.1,0.61v2.6c0.21,0.42,0.58,0.63,1.11,0.63
		C121.91,38.87,122.32,38.21,122.32,36.89z"/>
	<path class="st0" d="M126.85,40.12h-1.7v-9h1.7V40.12z"/>
	<path class="st0" d="M131.16,40.24c-0.93,0-1.69-0.29-2.27-0.86s-0.88-1.33-0.88-2.28v-0.16c0-0.64,0.12-1.21,0.37-1.71
		s0.59-0.89,1.05-1.16s0.97-0.41,1.54-0.41c0.87,0,1.55,0.27,2.05,0.82s0.75,1.32,0.75,2.33v0.69h-4.04c0.05,0.41,0.22,0.75,0.5,1
		s0.62,0.38,1.05,0.38c0.65,0,1.16-0.24,1.53-0.71l0.83,0.93c-0.25,0.36-0.6,0.64-1.03,0.84S131.69,40.24,131.16,40.24z
		 M130.97,35.03c-0.34,0-0.61,0.11-0.82,0.34s-0.34,0.55-0.4,0.98h2.36v-0.14c-0.01-0.38-0.11-0.67-0.3-0.87
		S131.33,35.03,130.97,35.03z"/>
	<path class="st0" d="M138.02,37.15h-3.3v-1.37h3.3V37.15z"/>
	<path class="st0" d="M145.09,37.01c0,1.02-0.22,1.81-0.65,2.38s-1.04,0.85-1.82,0.85c-0.69,0-1.24-0.26-1.65-0.79l-0.08,0.67h-1.52
		v-9h1.69v3.23c0.39-0.46,0.9-0.69,1.54-0.69c0.77,0,1.38,0.28,1.82,0.85s0.66,1.37,0.66,2.4V37.01z M143.4,36.89
		c0-0.64-0.1-1.11-0.3-1.4s-0.51-0.44-0.91-0.44c-0.54,0-0.91,0.22-1.11,0.66v2.5c0.21,0.45,0.58,0.67,1.12,0.67
		c0.55,0,0.91-0.27,1.08-0.81C143.36,37.81,143.4,37.41,143.4,36.89z"/>
	<path class="st0" d="M149.93,39.48c-0.42,0.51-1,0.76-1.73,0.76c-0.68,0-1.2-0.2-1.56-0.59s-0.54-0.96-0.55-1.72v-4.15h1.69v4.1
		c0,0.66,0.3,0.99,0.9,0.99c0.57,0,0.97-0.2,1.18-0.6v-4.49h1.7v6.34h-1.59L149.93,39.48z"/>
	<path class="st0" d="M156.41,35.37c-0.23-0.03-0.43-0.05-0.61-0.05c-0.64,0-1.06,0.22-1.26,0.65v4.15h-1.69v-6.34h1.6l0.05,0.76
		c0.34-0.58,0.81-0.87,1.41-0.87c0.19,0,0.36,0.03,0.53,0.08L156.41,35.37z"/>
	<path class="st0" d="M160.15,40.24c-0.93,0-1.69-0.29-2.27-0.86S157,38.05,157,37.1v-0.16c0-0.64,0.12-1.21,0.37-1.71
		s0.59-0.89,1.05-1.16s0.97-0.41,1.54-0.41c0.87,0,1.55,0.27,2.05,0.82s0.75,1.32,0.75,2.33v0.69h-4.04c0.05,0.41,0.22,0.75,0.5,1
		s0.62,0.38,1.05,0.38c0.65,0,1.16-0.24,1.53-0.71l0.83,0.93c-0.25,0.36-0.6,0.64-1.03,0.84S160.67,40.24,160.15,40.24z
		 M159.95,35.03c-0.34,0-0.61,0.11-0.82,0.34s-0.34,0.55-0.4,0.98h2.36v-0.14c-0.01-0.38-0.11-0.67-0.3-0.87
		S160.31,35.03,159.95,35.03z"/>
	<path class="st0" d="M167.39,40.12c-0.08-0.15-0.13-0.34-0.17-0.57c-0.41,0.46-0.94,0.69-1.6,0.69c-0.62,0-1.14-0.18-1.54-0.54
		s-0.61-0.81-0.61-1.36c0-0.67,0.25-1.19,0.75-1.55s1.22-0.54,2.16-0.54h0.78v-0.36c0-0.29-0.08-0.53-0.23-0.7s-0.39-0.26-0.71-0.26
		c-0.29,0-0.51,0.07-0.67,0.21s-0.24,0.32-0.24,0.56h-1.69c0-0.37,0.11-0.71,0.34-1.02s0.55-0.56,0.96-0.74s0.88-0.27,1.39-0.27
		c0.78,0,1.4,0.2,1.86,0.59s0.69,0.94,0.69,1.66v2.75c0,0.6,0.09,1.06,0.25,1.37v0.1H167.39z M165.99,38.94
		c0.25,0,0.48-0.06,0.69-0.17s0.37-0.26,0.47-0.45v-1.09h-0.63c-0.85,0-1.3,0.29-1.35,0.88l-0.01,0.1c0,0.21,0.07,0.38,0.22,0.52
		S165.73,38.94,165.99,38.94z"/>
	<path class="st0" d="M173.94,39.48c-0.42,0.51-1,0.76-1.73,0.76c-0.68,0-1.2-0.2-1.56-0.59s-0.54-0.96-0.55-1.72v-4.15h1.69v4.1
		c0,0.66,0.3,0.99,0.9,0.99c0.57,0,0.97-0.2,1.18-0.6v-4.49h1.7v6.34h-1.59L173.94,39.48z"/>
	<path class="st0" d="M182.49,38.87c0.31,0,0.57-0.09,0.76-0.26s0.3-0.4,0.3-0.69h1.59c0,0.43-0.12,0.82-0.35,1.18
		s-0.55,0.63-0.95,0.83s-0.84,0.3-1.33,0.3c-0.91,0-1.62-0.29-2.14-0.86s-0.79-1.37-0.79-2.39v-0.11c0-0.98,0.26-1.76,0.78-2.34
		s1.23-0.87,2.14-0.87c0.79,0,1.43,0.23,1.91,0.68s0.72,1.05,0.73,1.8h-1.59c-0.01-0.33-0.11-0.6-0.3-0.8
		c-0.2-0.21-0.45-0.31-0.77-0.31c-0.39,0-0.69,0.14-0.89,0.43c-0.2,0.29-0.3,0.75-0.3,1.4v0.18c0,0.65,0.1,1.12,0.3,1.41
		S182.08,38.87,182.49,38.87z"/>
	<path class="st0" d="M189.67,35.37c-0.23-0.03-0.43-0.05-0.61-0.05c-0.64,0-1.06,0.22-1.26,0.65v4.15h-1.69v-6.34h1.6l0.05,0.76
		c0.34-0.58,0.81-0.87,1.41-0.87c0.19,0,0.36,0.03,0.53,0.08L189.67,35.37z"/>
	<path class="st0" d="M193.4,40.24c-0.93,0-1.69-0.29-2.27-0.86s-0.88-1.33-0.88-2.28v-0.16c0-0.64,0.12-1.21,0.37-1.71
		s0.59-0.89,1.05-1.16s0.97-0.41,1.54-0.41c0.87,0,1.55,0.27,2.05,0.82s0.75,1.32,0.75,2.33v0.69h-4.04c0.05,0.41,0.22,0.75,0.5,1
		s0.62,0.38,1.05,0.38c0.65,0,1.16-0.24,1.53-0.71l0.83,0.93c-0.25,0.36-0.6,0.64-1.03,0.84S193.93,40.24,193.4,40.24z
		 M193.21,35.03c-0.34,0-0.61,0.11-0.82,0.34s-0.34,0.55-0.4,0.98h2.36v-0.14c-0.01-0.38-0.11-0.67-0.3-0.87
		S193.57,35.03,193.21,35.03z"/>
	<path class="st0" d="M196.71,36.9c0-0.99,0.22-1.78,0.67-2.36s1.05-0.88,1.82-0.88c0.62,0,1.13,0.23,1.53,0.69v-3.23h1.7v9h-1.53
		l-0.08-0.67c-0.42,0.53-0.96,0.79-1.63,0.79c-0.75,0-1.34-0.29-1.8-0.88S196.71,37.95,196.71,36.9z M198.4,37.03
		c0,0.59,0.1,1.05,0.31,1.37c0.21,0.32,0.51,0.48,0.9,0.48c0.52,0,0.89-0.22,1.11-0.66V35.7c-0.21-0.44-0.58-0.66-1.1-0.66
		C198.81,35.04,198.4,35.7,198.4,37.03z"/>
	<path class="st0" d="M203.72,32.14c0-0.25,0.08-0.46,0.25-0.63s0.4-0.25,0.69-0.25c0.29,0,0.52,0.08,0.69,0.25s0.26,0.37,0.26,0.63
		c0,0.26-0.09,0.47-0.26,0.63s-0.4,0.25-0.69,0.25s-0.51-0.08-0.69-0.25S203.72,32.4,203.72,32.14z M205.52,40.12h-1.7v-6.34h1.7
		V40.12z"/>
	<path class="st0" d="M208.94,32.22v1.56h1.08v1.24h-1.08v3.16c0,0.23,0.04,0.4,0.13,0.5s0.26,0.15,0.52,0.15
		c0.19,0,0.35-0.01,0.5-0.04v1.28c-0.33,0.1-0.67,0.15-1.03,0.15c-1.19,0-1.79-0.6-1.82-1.8v-3.42h-0.93v-1.24h0.93v-1.56H208.94z"
		/>
	<path class="st0" d="M217.39,38.37c0-0.21-0.1-0.37-0.31-0.49s-0.53-0.23-0.99-0.32c-1.51-0.32-2.26-0.96-2.26-1.92
		c0-0.56,0.23-1.03,0.7-1.41s1.08-0.57,1.83-0.57c0.8,0,1.45,0.19,1.93,0.57s0.72,0.87,0.72,1.48h-1.69c0-0.24-0.08-0.44-0.23-0.6
		s-0.4-0.24-0.73-0.24c-0.29,0-0.51,0.06-0.66,0.19s-0.23,0.29-0.23,0.49c0,0.19,0.09,0.34,0.27,0.45s0.48,0.21,0.9,0.3
		s0.78,0.18,1.07,0.28c0.89,0.33,1.34,0.9,1.34,1.71c0,0.58-0.25,1.05-0.74,1.4s-1.14,0.54-1.92,0.54c-0.53,0-1-0.09-1.42-0.28
		s-0.74-0.45-0.97-0.78s-0.35-0.69-0.35-1.07h1.61c0.02,0.3,0.13,0.53,0.33,0.69s0.48,0.24,0.83,0.24c0.32,0,0.57-0.06,0.74-0.18
		S217.39,38.57,217.39,38.37z"/>
	<path class="st0" d="M222.76,38.87c0.31,0,0.57-0.09,0.76-0.26s0.3-0.4,0.3-0.69h1.59c0,0.43-0.12,0.82-0.35,1.18
		s-0.55,0.63-0.95,0.83s-0.84,0.3-1.33,0.3c-0.91,0-1.62-0.29-2.14-0.86s-0.79-1.37-0.79-2.39v-0.11c0-0.98,0.26-1.76,0.78-2.34
		s1.23-0.87,2.14-0.87c0.79,0,1.43,0.23,1.91,0.68s0.72,1.05,0.73,1.8h-1.59c-0.01-0.33-0.11-0.6-0.3-0.8
		c-0.2-0.21-0.45-0.31-0.77-0.31c-0.39,0-0.69,0.14-0.89,0.43c-0.2,0.29-0.3,0.75-0.3,1.4v0.18c0,0.65,0.1,1.12,0.3,1.41
		S222.36,38.87,222.76,38.87z"/>
	<path class="st0" d="M226.12,36.89c0-0.63,0.12-1.19,0.36-1.68s0.59-0.87,1.05-1.14s0.98-0.4,1.58-0.4c0.86,0,1.55,0.26,2.09,0.79
		s0.84,1.23,0.91,2.13l0.01,0.43c0,0.97-0.27,1.75-0.81,2.34s-1.27,0.88-2.19,0.88s-1.64-0.29-2.19-0.88s-0.82-1.38-0.82-2.39V36.89
		z M227.82,37.01c0,0.6,0.11,1.06,0.34,1.38c0.23,0.32,0.55,0.48,0.97,0.48c0.41,0,0.73-0.16,0.96-0.47
		c0.23-0.31,0.35-0.82,0.35-1.51c0-0.59-0.12-1.05-0.35-1.37s-0.55-0.49-0.97-0.49c-0.41,0-0.73,0.16-0.96,0.48
		S227.82,36.33,227.82,37.01z"/>
	<path class="st0" d="M236.73,35.37c-0.23-0.03-0.43-0.05-0.61-0.05c-0.64,0-1.06,0.22-1.26,0.65v4.15h-1.69v-6.34h1.6l0.05,0.76
		c0.34-0.58,0.81-0.87,1.41-0.87c0.19,0,0.36,0.03,0.53,0.08L236.73,35.37z"/>
	<path class="st0" d="M240.47,40.24c-0.93,0-1.69-0.29-2.27-0.86s-0.88-1.33-0.88-2.28v-0.16c0-0.64,0.12-1.21,0.37-1.71
		s0.59-0.89,1.05-1.16s0.97-0.41,1.54-0.41c0.87,0,1.55,0.27,2.05,0.82s0.75,1.32,0.75,2.33v0.69h-4.04c0.05,0.41,0.22,0.75,0.5,1
		s0.62,0.38,1.05,0.38c0.65,0,1.16-0.24,1.53-0.71l0.83,0.93c-0.25,0.36-0.6,0.64-1.03,0.84S240.99,40.24,240.47,40.24z
		 M240.27,35.03c-0.34,0-0.61,0.11-0.82,0.34s-0.34,0.55-0.4,0.98h2.36v-0.14c-0.01-0.38-0.11-0.67-0.3-0.87
		S240.63,35.03,240.27,35.03z"/>
	<path class="st0" d="M247.47,38.37c0-0.21-0.1-0.37-0.31-0.49s-0.53-0.23-0.99-0.32c-1.51-0.32-2.26-0.96-2.26-1.92
		c0-0.56,0.23-1.03,0.7-1.41s1.08-0.57,1.83-0.57c0.8,0,1.45,0.19,1.93,0.57s0.72,0.87,0.72,1.48h-1.69c0-0.24-0.08-0.44-0.23-0.6
		s-0.4-0.24-0.73-0.24c-0.29,0-0.51,0.06-0.66,0.19s-0.23,0.29-0.23,0.49c0,0.19,0.09,0.34,0.27,0.45s0.48,0.21,0.9,0.3
		s0.78,0.18,1.07,0.28c0.89,0.33,1.34,0.9,1.34,1.71c0,0.58-0.25,1.05-0.74,1.4s-1.14,0.54-1.92,0.54c-0.53,0-1-0.09-1.42-0.28
		s-0.74-0.45-0.97-0.78s-0.35-0.69-0.35-1.07h1.61c0.02,0.3,0.13,0.53,0.33,0.69s0.48,0.24,0.83,0.24c0.32,0,0.57-0.06,0.74-0.18
		S247.47,38.57,247.47,38.37z"/>
	<path class="st0" d="M252.96,37.82c0-0.39,0.11-0.76,0.33-1.1s0.63-0.71,1.22-1.12c-0.25-0.34-0.45-0.66-0.6-0.96
		s-0.22-0.61-0.22-0.93c0-0.66,0.21-1.2,0.63-1.62s0.99-0.62,1.7-0.62c0.64,0,1.16,0.19,1.57,0.57s0.61,0.85,0.61,1.42
		c0,0.68-0.34,1.28-1.03,1.8l-0.66,0.47l1.47,1.71c0.23-0.45,0.35-0.95,0.35-1.5h1.44c0,1.11-0.26,2.01-0.77,2.7l1.28,1.48h-1.92
		l-0.44-0.5c-0.63,0.41-1.35,0.62-2.17,0.62c-0.84,0-1.52-0.22-2.03-0.67S252.96,38.55,252.96,37.82z M255.83,38.87
		c0.41,0,0.79-0.11,1.15-0.34l-1.68-1.94l-0.12,0.09c-0.35,0.3-0.52,0.64-0.52,1.05c0,0.34,0.11,0.61,0.33,0.83
		S255.48,38.87,255.83,38.87z M255.21,33.69c0,0.29,0.17,0.66,0.52,1.11l0.45-0.3c0.23-0.15,0.39-0.29,0.48-0.43s0.13-0.31,0.13-0.5
		s-0.07-0.37-0.22-0.51s-0.33-0.22-0.56-0.22c-0.24,0-0.44,0.08-0.58,0.23S255.21,33.43,255.21,33.69z"/>
	<path class="st0" d="M267.62,35.37c-0.23-0.03-0.43-0.05-0.61-0.05c-0.64,0-1.06,0.22-1.26,0.65v4.15h-1.69v-6.34h1.6l0.05,0.76
		c0.34-0.58,0.81-0.87,1.41-0.87c0.19,0,0.36,0.03,0.53,0.08L267.62,35.37z"/>
	<path class="st0" d="M271.35,40.24c-0.93,0-1.69-0.29-2.27-0.86s-0.88-1.33-0.88-2.28v-0.16c0-0.64,0.12-1.21,0.37-1.71
		s0.59-0.89,1.05-1.16s0.97-0.41,1.54-0.41c0.87,0,1.55,0.27,2.05,0.82s0.75,1.32,0.75,2.33v0.69h-4.04c0.05,0.41,0.22,0.75,0.5,1
		s0.62,0.38,1.05,0.38c0.65,0,1.16-0.24,1.53-0.71l0.83,0.93c-0.25,0.36-0.6,0.64-1.03,0.84S271.88,40.24,271.35,40.24z
		 M271.16,35.03c-0.34,0-0.61,0.11-0.82,0.34s-0.34,0.55-0.4,0.98h2.36v-0.14c-0.01-0.38-0.11-0.67-0.3-0.87
		S271.52,35.03,271.16,35.03z"/>
	<path class="st0" d="M280.63,37.01c0,0.98-0.22,1.76-0.67,2.35s-1.04,0.88-1.8,0.88c-0.64,0-1.16-0.22-1.55-0.67v2.99h-1.69v-8.78
		h1.57l0.06,0.62c0.41-0.49,0.95-0.74,1.61-0.74c0.78,0,1.39,0.29,1.82,0.87s0.65,1.38,0.65,2.39V37.01z M278.93,36.89
		c0-0.59-0.1-1.04-0.31-1.37s-0.51-0.48-0.91-0.48c-0.53,0-0.9,0.2-1.1,0.61v2.6c0.21,0.42,0.58,0.63,1.11,0.63
		C278.53,38.87,278.93,38.21,278.93,36.89z"/>
	<path class="st0" d="M281.41,36.89c0-0.63,0.12-1.19,0.36-1.68s0.59-0.87,1.05-1.14s0.98-0.4,1.58-0.4c0.86,0,1.55,0.26,2.09,0.79
		s0.84,1.23,0.91,2.13l0.01,0.43c0,0.97-0.27,1.75-0.81,2.34s-1.27,0.88-2.19,0.88s-1.64-0.29-2.19-0.88s-0.82-1.38-0.82-2.39V36.89
		z M283.1,37.01c0,0.6,0.11,1.06,0.34,1.38c0.23,0.32,0.55,0.48,0.97,0.48c0.41,0,0.73-0.16,0.96-0.47
		c0.23-0.31,0.35-0.82,0.35-1.51c0-0.59-0.12-1.05-0.35-1.37s-0.55-0.49-0.97-0.49c-0.41,0-0.73,0.16-0.96,0.48
		S283.1,36.33,283.1,37.01z"/>
	<path class="st0" d="M292.02,35.37c-0.23-0.03-0.43-0.05-0.61-0.05c-0.64,0-1.06,0.22-1.26,0.65v4.15h-1.69v-6.34h1.6l0.05,0.76
		c0.34-0.58,0.81-0.87,1.41-0.87c0.19,0,0.36,0.03,0.53,0.08L292.02,35.37z"/>
	<path class="st0" d="M295.16,32.22v1.56h1.08v1.24h-1.08v3.16c0,0.23,0.04,0.4,0.13,0.5s0.26,0.15,0.52,0.15
		c0.19,0,0.35-0.01,0.5-0.04v1.28c-0.33,0.1-0.67,0.15-1.03,0.15c-1.19,0-1.79-0.6-1.82-1.8v-3.42h-0.93v-1.24h0.93v-1.56H295.16z"
		/>
	<path class="st0" d="M300.62,38.37c0-0.21-0.1-0.37-0.31-0.49s-0.53-0.23-0.99-0.32c-1.51-0.32-2.26-0.96-2.26-1.92
		c0-0.56,0.23-1.03,0.7-1.41s1.08-0.57,1.83-0.57c0.8,0,1.45,0.19,1.93,0.57s0.72,0.87,0.72,1.48h-1.69c0-0.24-0.08-0.44-0.23-0.6
		s-0.4-0.24-0.73-0.24c-0.29,0-0.51,0.06-0.66,0.19s-0.23,0.29-0.23,0.49c0,0.19,0.09,0.34,0.27,0.45s0.48,0.21,0.9,0.3
		s0.78,0.18,1.07,0.28c0.89,0.33,1.34,0.9,1.34,1.71c0,0.58-0.25,1.05-0.74,1.4s-1.14,0.54-1.92,0.54c-0.53,0-1-0.09-1.42-0.28
		s-0.74-0.45-0.97-0.78s-0.35-0.69-0.35-1.07h1.61c0.02,0.3,0.13,0.53,0.33,0.69s0.48,0.24,0.83,0.24c0.32,0,0.57-0.06,0.74-0.18
		S300.62,38.57,300.62,38.37z"/>
</g>
<linearGradient id="SVGID_1_" gradientUnits="userSpaceOnUse" x1="168.108" y1="53.4256" x2="238.108" y2="53.4256">
	<stop  offset="0" style="stop-color:#18B9FB"/>
	<stop  offset="0.5" style="stop-color:#782EEB"/>
	<stop  offset="1" style="stop-color:#E82D8A"/>
</linearGradient>
<path class="st1" d="M236.61,54.93h-67c-0.83,0-1.5-0.67-1.5-1.5l0,0c0-0.83,0.67-1.5,1.5-1.5h67c0.83,0,1.5,0.67,1.5,1.5l0,0
	C238.11,54.25,237.44,54.93,236.61,54.93z"/>
</svg>
