<?xml version="1.0" encoding="utf-8"?>
<!-- Generator: Adobe Illustrator 24.2.3, SVG Export Plug-In . SVG Version: 6.00 Build 0)  -->
<svg version="1.1" id="Layer_1" xmlns="http://www.w3.org/2000/svg" xmlns:xlink="http://www.w3.org/1999/xlink" x="0px" y="0px"
	 viewBox="0 0 320 100" style="enable-background:new 0 0 320 100;" xml:space="preserve">
<style type="text/css">
	.st0{fill:#021D8B;}
</style>
<g>
	<path class="st0" d="M115.18,19.6c0-0.35-0.12-0.62-0.37-0.82s-0.68-0.4-1.31-0.61s-1.13-0.41-1.53-0.61
		c-1.29-0.63-1.93-1.5-1.93-2.61c0-0.55,0.16-1.04,0.48-1.46s0.78-0.75,1.36-0.98s1.25-0.35,1.98-0.35c0.72,0,1.36,0.13,1.92,0.38
		s1.01,0.62,1.32,1.09s0.47,1.01,0.47,1.62h-2.39c0-0.41-0.12-0.72-0.37-0.94s-0.58-0.33-1.01-0.33c-0.43,0-0.77,0.09-1.02,0.28
		s-0.37,0.43-0.37,0.72c0,0.26,0.14,0.49,0.41,0.69s0.75,0.42,1.44,0.64s1.25,0.46,1.7,0.71c1.08,0.62,1.61,1.47,1.61,2.56
		c0,0.87-0.33,1.55-0.98,2.05s-1.56,0.75-2.7,0.75c-0.81,0-1.54-0.14-2.19-0.43s-1.15-0.69-1.48-1.19s-0.5-1.08-0.5-1.74h2.41
		c0,0.53,0.14,0.93,0.41,1.18s0.72,0.38,1.34,0.38c0.4,0,0.71-0.09,0.94-0.26S115.18,19.91,115.18,19.6z"/>
	<path class="st0" d="M118.41,18.48c0-0.74,0.14-1.4,0.43-1.97s0.7-1.02,1.24-1.33s1.17-0.46,1.89-0.46c1.11,0,1.98,0.34,2.62,1.03
		s0.96,1.62,0.96,2.8v0.08c0,1.15-0.32,2.07-0.96,2.74s-1.51,1.02-2.6,1.02c-1.05,0-1.9-0.32-2.54-0.95s-0.98-1.49-1.03-2.57
		L118.41,18.48z M120.71,18.62c0,0.68,0.11,1.19,0.32,1.5s0.53,0.48,0.95,0.48c0.82,0,1.24-0.63,1.26-1.89v-0.23
		c0-1.33-0.42-1.99-1.27-1.99c-0.77,0-1.19,0.57-1.25,1.72L120.71,18.62z"/>
	<path class="st0" d="M133,19.02l1.23-4.17h2.47l-3.01,8.63l-0.13,0.31c-0.43,0.96-1.19,1.44-2.27,1.44c-0.3,0-0.62-0.05-0.95-0.14
		v-1.64h0.3c0.32,0,0.57-0.05,0.74-0.14c0.17-0.09,0.3-0.26,0.38-0.5l0.18-0.49l-2.57-7.47h2.46L133,19.02z"/>
	<path class="st0" d="M137.01,18.48c0-0.74,0.14-1.4,0.43-1.97s0.7-1.02,1.24-1.33s1.17-0.46,1.89-0.46c1.11,0,1.98,0.34,2.62,1.03
		s0.96,1.62,0.96,2.8v0.08c0,1.15-0.32,2.07-0.96,2.74s-1.51,1.02-2.6,1.02c-1.05,0-1.9-0.32-2.54-0.95s-0.98-1.49-1.03-2.57
		L137.01,18.48z M139.31,18.62c0,0.68,0.11,1.19,0.32,1.5s0.53,0.48,0.95,0.48c0.82,0,1.24-0.63,1.26-1.89v-0.23
		c0-1.33-0.42-1.99-1.27-1.99c-0.77,0-1.19,0.57-1.25,1.72L139.31,18.62z"/>
	<path class="st0" d="M149.57,21.45c-0.49,0.62-1.15,0.94-1.98,0.94c-0.81,0-1.43-0.24-1.84-0.71s-0.63-1.15-0.63-2.03v-4.79h2.3
		v4.81c0,0.63,0.31,0.95,0.92,0.95c0.53,0,0.9-0.19,1.13-0.57v-5.19h2.32v7.4h-2.16L149.57,21.45z"/>
	<path class="st0" d="M159.51,19.49l-0.65,0.65v2.11h-2.3V11.74h2.3v5.58l0.23-0.31l1.74-2.16h2.76L161,17.89l2.76,4.35h-2.64
		L159.51,19.49z"/>
	<path class="st0" d="M166.32,14.85l0.08,0.87c0.51-0.67,1.21-1,2.11-1c0.77,0,1.35,0.23,1.73,0.69c0.38,0.46,0.58,1.15,0.59,2.08
		v4.76h-2.31v-4.67c0-0.37-0.08-0.65-0.23-0.82s-0.42-0.26-0.82-0.26c-0.45,0-0.79,0.18-1,0.53v5.22h-2.3v-7.4H166.32z"/>
	<path class="st0" d="M171.8,18.48c0-0.74,0.14-1.4,0.43-1.97s0.7-1.02,1.24-1.33c0.54-0.31,1.17-0.46,1.89-0.46
		c1.11,0,1.98,0.34,2.62,1.03c0.64,0.69,0.96,1.62,0.96,2.8v0.08c0,1.15-0.32,2.07-0.96,2.74c-0.64,0.68-1.51,1.02-2.6,1.02
		c-1.05,0-1.9-0.32-2.54-0.95c-0.64-0.63-0.98-1.49-1.03-2.57L171.8,18.48z M174.11,18.62c0,0.68,0.11,1.19,0.32,1.5
		c0.21,0.32,0.53,0.48,0.95,0.48c0.82,0,1.24-0.63,1.26-1.89v-0.23c0-1.33-0.42-1.99-1.27-1.99c-0.77,0-1.19,0.57-1.25,1.72
		L174.11,18.62z"/>
	<path class="st0" d="M186.34,19.21l0.75-4.36h2.21l-1.74,7.4h-1.95l-1.22-4.39l-1.23,4.39h-1.95l-1.74-7.4h2.21l0.73,4.46
		l1.18-4.46h1.61L186.34,19.21z"/>
	<path class="st0" d="M200,19.21l0.75-4.36h2.21l-1.74,7.4h-1.95l-1.22-4.39l-1.23,4.39h-1.95l-1.74-7.4h2.21l0.73,4.46l1.18-4.46
		h1.61L200,19.21z"/>
	<path class="st0" d="M206.03,15.64c0.49-0.62,1.12-0.93,1.89-0.93c0.82,0,1.43,0.24,1.85,0.72c0.41,0.48,0.63,1.2,0.64,2.14v4.67
		h-2.31v-4.61c0-0.39-0.08-0.68-0.24-0.86c-0.16-0.18-0.43-0.28-0.81-0.28c-0.47,0-0.81,0.15-1,0.45v5.3h-2.3v-10.5h2.3V15.64z"/>
	<path class="st0" d="M215.25,22.38c-1.13,0-2.05-0.34-2.75-1.02c-0.7-0.68-1.05-1.56-1.05-2.64v-0.19c0-0.76,0.14-1.42,0.42-2
		s0.69-1.03,1.23-1.34c0.54-0.32,1.18-0.48,1.91-0.48c1.04,0,1.86,0.32,2.46,0.97s0.9,1.54,0.9,2.7v0.9h-4.58
		c0.08,0.41,0.26,0.74,0.54,0.98c0.28,0.24,0.64,0.36,1.08,0.36c0.73,0,1.3-0.26,1.71-0.77l1.05,1.24c-0.29,0.4-0.69,0.71-1.22,0.95
		S215.86,22.38,215.25,22.38z M214.99,16.49c-0.67,0-1.08,0.45-1.2,1.34h2.32v-0.18c0.01-0.37-0.08-0.66-0.28-0.86
		C215.64,16.59,215.36,16.49,214.99,16.49z"/>
	<path class="st0" d="M223.77,16.94l-0.76-0.05c-0.72,0-1.19,0.23-1.39,0.68v4.68h-2.3v-7.4h2.16l0.08,0.95
		c0.39-0.72,0.93-1.09,1.62-1.09c0.25,0,0.46,0.03,0.64,0.08L223.77,16.94z"/>
	<path class="st0" d="M228.18,22.38c-1.13,0-2.05-0.34-2.75-1.02c-0.7-0.68-1.05-1.56-1.05-2.64v-0.19c0-0.76,0.14-1.42,0.42-2
		s0.69-1.03,1.23-1.34c0.54-0.32,1.18-0.48,1.91-0.48c1.04,0,1.86,0.32,2.46,0.97s0.9,1.54,0.9,2.7v0.9h-4.58
		c0.08,0.41,0.26,0.74,0.54,0.98c0.28,0.24,0.64,0.36,1.08,0.36c0.73,0,1.3-0.26,1.71-0.77l1.05,1.24c-0.29,0.4-0.69,0.71-1.22,0.95
		S228.79,22.38,228.18,22.38z M227.92,16.49c-0.67,0-1.08,0.45-1.2,1.34h2.32v-0.18c0.01-0.37-0.08-0.66-0.28-0.86
		C228.57,16.59,228.29,16.49,227.92,16.49z"/>
	<path class="st0" d="M238.67,19.02l1.23-4.17h2.47l-3.01,8.63l-0.13,0.31c-0.43,0.96-1.19,1.44-2.27,1.44
		c-0.3,0-0.62-0.05-0.95-0.14v-1.64h0.3c0.32,0,0.57-0.05,0.74-0.14c0.17-0.09,0.3-0.26,0.38-0.5l0.18-0.49l-2.57-7.47h2.46
		L238.67,19.02z"/>
	<path class="st0" d="M242.67,18.48c0-0.74,0.14-1.4,0.43-1.97s0.7-1.02,1.24-1.33c0.54-0.31,1.17-0.46,1.89-0.46
		c1.11,0,1.98,0.34,2.62,1.03c0.64,0.69,0.96,1.62,0.96,2.8v0.08c0,1.15-0.32,2.07-0.96,2.74c-0.64,0.68-1.51,1.02-2.6,1.02
		c-1.05,0-1.9-0.32-2.54-0.95c-0.64-0.63-0.98-1.49-1.03-2.57L242.67,18.48z M244.98,18.62c0,0.68,0.11,1.19,0.32,1.5
		c0.21,0.32,0.53,0.48,0.95,0.48c0.82,0,1.24-0.63,1.26-1.89v-0.23c0-1.33-0.42-1.99-1.27-1.99c-0.77,0-1.19,0.57-1.25,1.72
		L244.98,18.62z"/>
	<path class="st0" d="M255.23,21.45c-0.49,0.62-1.15,0.94-1.98,0.94c-0.81,0-1.43-0.24-1.84-0.71s-0.62-1.15-0.62-2.03v-4.79h2.3
		v4.81c0,0.63,0.31,0.95,0.92,0.95c0.53,0,0.9-0.19,1.13-0.57v-5.19h2.32v7.4h-2.16L255.23,21.45z"/>
	<path class="st0" d="M266.08,20.17c0-0.2-0.1-0.35-0.31-0.47s-0.59-0.24-1.17-0.37s-1.05-0.29-1.42-0.5
		c-0.37-0.21-0.66-0.46-0.85-0.76c-0.2-0.3-0.29-0.64-0.29-1.02c0-0.68,0.28-1.24,0.84-1.68s1.29-0.66,2.2-0.66
		c0.97,0,1.76,0.22,2.35,0.66c0.59,0.44,0.89,1.02,0.89,1.74H266c0-0.59-0.31-0.89-0.94-0.89c-0.24,0-0.44,0.07-0.61,0.2
		s-0.25,0.3-0.25,0.5c0,0.21,0.1,0.37,0.3,0.5c0.2,0.13,0.52,0.23,0.96,0.31c0.44,0.08,0.83,0.18,1.16,0.29
		c1.11,0.38,1.67,1.07,1.67,2.06c0,0.67-0.3,1.22-0.9,1.65c-0.6,0.42-1.38,0.64-2.33,0.64c-0.63,0-1.2-0.11-1.7-0.34
		c-0.5-0.23-0.88-0.54-1.16-0.93c-0.28-0.39-0.42-0.8-0.42-1.24h2.15c0.01,0.34,0.12,0.59,0.34,0.75s0.5,0.24,0.84,0.24
		c0.31,0,0.55-0.06,0.71-0.19S266.08,20.38,266.08,20.17z"/>
	<path class="st0" d="M272.06,13.01v1.84h1.22v1.6h-1.22v3.38c0,0.28,0.05,0.47,0.15,0.58c0.1,0.11,0.3,0.16,0.59,0.16
		c0.23,0,0.42-0.01,0.57-0.04v1.65c-0.42,0.13-0.85,0.2-1.3,0.2c-0.79,0-1.38-0.19-1.76-0.56c-0.38-0.37-0.57-0.94-0.57-1.7v-3.67
		h-0.94v-1.6h0.94v-1.84H272.06z"/>
	<path class="st0" d="M278.35,22.25c-0.08-0.15-0.16-0.37-0.22-0.66c-0.42,0.53-1.02,0.8-1.78,0.8c-0.7,0-1.29-0.21-1.78-0.63
		c-0.49-0.42-0.73-0.95-0.73-1.59c0-0.8,0.3-1.41,0.89-1.82c0.59-0.41,1.45-0.62,2.58-0.62h0.71v-0.39c0-0.68-0.29-1.02-0.88-1.02
		c-0.55,0-0.82,0.27-0.82,0.81h-2.3c0-0.71,0.3-1.29,0.91-1.74c0.61-0.45,1.38-0.67,2.33-0.67s1.69,0.23,2.24,0.69
		s0.83,1.09,0.84,1.89v3.27c0.01,0.68,0.11,1.2,0.31,1.56v0.12H278.35z M276.91,20.74c0.29,0,0.53-0.06,0.71-0.18
		c0.19-0.12,0.33-0.26,0.41-0.42v-1.18h-0.67c-0.8,0-1.2,0.36-1.2,1.08c0,0.21,0.07,0.38,0.21,0.51
		C276.51,20.68,276.69,20.74,276.91,20.74z"/>
	<path class="st0" d="M283.73,14.85l0.08,0.87c0.51-0.67,1.21-1,2.11-1c0.77,0,1.35,0.23,1.73,0.69c0.38,0.46,0.58,1.15,0.59,2.08
		v4.76h-2.31v-4.67c0-0.37-0.08-0.65-0.23-0.82s-0.42-0.26-0.82-0.26c-0.45,0-0.79,0.18-1,0.53v5.22h-2.3v-7.4H283.73z"/>
	<path class="st0" d="M289.22,18.5c0-1.17,0.25-2.09,0.76-2.77s1.21-1.01,2.12-1.01c0.66,0,1.22,0.26,1.67,0.78v-3.75h2.31v10.5H294
		l-0.12-0.79c-0.47,0.62-1.08,0.93-1.8,0.93c-0.88,0-1.58-0.34-2.09-1.01C289.48,20.7,289.22,19.74,289.22,18.5z M291.52,18.64
		c0,1.31,0.38,1.97,1.15,1.97c0.51,0,0.88-0.21,1.09-0.64v-2.82c-0.21-0.44-0.57-0.66-1.08-0.66c-0.71,0-1.1,0.57-1.16,1.72
		L291.52,18.64z"/>
</g>
</svg>
