<?xml version="1.0" encoding="utf-8"?>
<!-- Generator: Adobe Illustrator 24.2.3, SVG Export Plug-In . SVG Version: 6.00 Build 0)  -->
<svg version="1.1" id="Layer_1" xmlns="http://www.w3.org/2000/svg" xmlns:xlink="http://www.w3.org/1999/xlink" x="0px" y="0px"
	 viewBox="0 0 320 100" style="enable-background:new 0 0 320 100;" xml:space="preserve">
<style type="text/css">
	.st0{fill:#021D8B;stroke:url(#SVGID_1_);stroke-width:2;stroke-miterlimit:10;}
	.st1{fill:#FFFFFF;}
</style>
<linearGradient id="SVGID_1_" gradientUnits="userSpaceOnUse" x1="163.9891" y1="43.5981" x2="242.0385" y2="43.5981">
	<stop  offset="0" style="stop-color:#18B9FB"/>
	<stop  offset="0.5" style="stop-color:#782EEB"/>
	<stop  offset="1" style="stop-color:#E82D8A"/>
</linearGradient>
<path class="st0" d="M230.04,54.6h-54.05c-6.08,0-11-4.92-11-11v0c0-6.08,4.92-11,11-11h54.05c6.08,0,11,4.92,11,11v0
	C241.04,49.67,236.11,54.6,230.04,54.6z"/>
<g>
	<path class="st1" d="M181.55,45.23h2.83v1.07h-4.17v-6.48h1.34V45.23z"/>
	<path class="st1" d="M187.29,46.4c-0.71,0-1.28-0.22-1.73-0.65c-0.44-0.43-0.67-1.01-0.67-1.73v-0.12c0-0.48,0.09-0.92,0.28-1.3
		c0.19-0.38,0.45-0.68,0.79-0.88c0.34-0.21,0.73-0.31,1.17-0.31c0.66,0,1.18,0.21,1.56,0.62c0.38,0.42,0.57,1,0.57,1.77v0.53h-3.07
		c0.04,0.31,0.17,0.57,0.38,0.76c0.21,0.19,0.47,0.28,0.79,0.28c0.5,0,0.88-0.18,1.16-0.54l0.63,0.71
		c-0.19,0.27-0.45,0.49-0.78,0.64S187.69,46.4,187.29,46.4z M187.14,42.44c-0.25,0-0.46,0.09-0.62,0.26
		c-0.16,0.17-0.26,0.42-0.3,0.74H188v-0.1c-0.01-0.29-0.08-0.51-0.23-0.66C187.62,42.52,187.41,42.44,187.14,42.44z"/>
	<path class="st1" d="M192.79,46.31c-0.06-0.12-0.1-0.26-0.13-0.43c-0.31,0.35-0.72,0.52-1.21,0.52c-0.47,0-0.86-0.14-1.17-0.41
		c-0.31-0.27-0.47-0.62-0.47-1.03c0-0.51,0.19-0.9,0.57-1.18c0.38-0.27,0.93-0.41,1.64-0.41h0.59v-0.28c0-0.22-0.06-0.4-0.17-0.53
		c-0.11-0.13-0.29-0.2-0.54-0.2c-0.22,0-0.39,0.05-0.51,0.16s-0.18,0.25-0.18,0.43h-1.29c0-0.28,0.09-0.54,0.26-0.77
		s0.42-0.42,0.73-0.56c0.32-0.14,0.67-0.2,1.06-0.2c0.59,0,1.06,0.15,1.41,0.45c0.35,0.3,0.52,0.72,0.52,1.26v2.09
		c0,0.46,0.07,0.8,0.19,1.04v0.08H192.79z M191.72,45.41c0.19,0,0.36-0.04,0.53-0.13c0.16-0.08,0.28-0.2,0.36-0.34v-0.83h-0.48
		c-0.64,0-0.99,0.22-1.03,0.67l0,0.08c0,0.16,0.06,0.29,0.17,0.4C191.37,45.36,191.53,45.41,191.72,45.41z"/>
	<path class="st1" d="M197.59,42.7c-0.17-0.02-0.33-0.04-0.46-0.04c-0.49,0-0.81,0.16-0.96,0.49v3.15h-1.29v-4.82h1.21l0.04,0.57
		c0.26-0.44,0.62-0.66,1.07-0.66c0.14,0,0.28,0.02,0.4,0.06L197.59,42.7z"/>
	<path class="st1" d="M199.39,41.49l0.04,0.56c0.34-0.43,0.81-0.65,1.38-0.65c0.51,0,0.89,0.15,1.14,0.45
		c0.25,0.3,0.38,0.75,0.38,1.34v3.11h-1.29v-3.08c0-0.27-0.06-0.47-0.18-0.59c-0.12-0.12-0.32-0.19-0.59-0.19
		c-0.36,0-0.63,0.15-0.81,0.46v3.4h-1.29v-4.82H199.39z"/>
	<path class="st1" d="M206.79,41.49l0.04,0.54c0.34-0.42,0.8-0.63,1.38-0.63c0.62,0,1.05,0.25,1.28,0.73
		c0.34-0.49,0.82-0.73,1.45-0.73c0.52,0,0.91,0.15,1.17,0.46c0.25,0.3,0.38,0.76,0.38,1.37v3.08h-1.29v-3.07
		c0-0.27-0.05-0.47-0.16-0.6c-0.11-0.13-0.3-0.19-0.57-0.19c-0.39,0-0.65,0.18-0.8,0.55l0,3.31h-1.29v-3.07
		c0-0.28-0.06-0.48-0.17-0.61c-0.11-0.12-0.3-0.19-0.56-0.19c-0.37,0-0.63,0.15-0.79,0.45v3.41h-1.29v-4.82H206.79z"/>
	<path class="st1" d="M213.28,43.85c0-0.48,0.09-0.9,0.28-1.28c0.18-0.37,0.45-0.66,0.79-0.87s0.75-0.31,1.2-0.31
		c0.65,0,1.18,0.2,1.59,0.6c0.41,0.4,0.64,0.94,0.69,1.62l0.01,0.33c0,0.74-0.21,1.33-0.62,1.78c-0.41,0.45-0.97,0.67-1.66,0.67
		s-1.25-0.22-1.66-0.67c-0.41-0.45-0.62-1.05-0.62-1.82V43.85z M214.56,43.95c0,0.46,0.09,0.81,0.26,1.05s0.42,0.36,0.74,0.36
		c0.31,0,0.55-0.12,0.73-0.36c0.18-0.24,0.26-0.62,0.26-1.15c0-0.45-0.09-0.8-0.26-1.04c-0.17-0.25-0.42-0.37-0.74-0.37
		c-0.31,0-0.56,0.12-0.73,0.37C214.65,43.05,214.56,43.43,214.56,43.95z"/>
	<path class="st1" d="M221.34,42.7c-0.17-0.02-0.33-0.04-0.46-0.04c-0.49,0-0.81,0.16-0.96,0.49v3.15h-1.29v-4.82h1.21l0.04,0.57
		c0.26-0.44,0.62-0.66,1.07-0.66c0.14,0,0.28,0.02,0.4,0.06L221.34,42.7z"/>
	<path class="st1" d="M224.17,46.4c-0.71,0-1.28-0.22-1.73-0.65c-0.44-0.43-0.67-1.01-0.67-1.73v-0.12c0-0.48,0.09-0.92,0.28-1.3
		c0.19-0.38,0.45-0.68,0.79-0.88c0.34-0.21,0.73-0.31,1.17-0.31c0.66,0,1.18,0.21,1.56,0.62c0.38,0.42,0.57,1,0.57,1.77v0.53h-3.07
		c0.04,0.31,0.17,0.57,0.38,0.76c0.21,0.19,0.47,0.28,0.79,0.28c0.5,0,0.88-0.18,1.16-0.54l0.63,0.71
		c-0.19,0.27-0.45,0.49-0.78,0.64S224.57,46.4,224.17,46.4z M224.03,42.44c-0.25,0-0.46,0.09-0.62,0.26
		c-0.16,0.17-0.26,0.42-0.3,0.74h1.79v-0.1c-0.01-0.29-0.08-0.51-0.23-0.66C224.51,42.52,224.3,42.44,224.03,42.44z"/>
</g>
</svg>
