<?xml version="1.0" encoding="utf-8"?>
<!-- Generator: Adobe Illustrator 24.2.3, SVG Export Plug-In . SVG Version: 6.00 Build 0)  -->
<svg version="1.1" id="Layer_1" xmlns="http://www.w3.org/2000/svg" xmlns:xlink="http://www.w3.org/1999/xlink" x="0px" y="0px"
	 viewBox="0 0 970 250" style="enable-background:new 0 0 970 250;" xml:space="preserve">
<style type="text/css">
	.st0{fill:url(#SVGID_1_);}
</style>
<linearGradient id="SVGID_1_" gradientUnits="userSpaceOnUse" x1="167.6211" y1="166.6812" x2="655.9824" y2="166.6812">
	<stop  offset="0" style="stop-color:#18B9FB"/>
	<stop  offset="0.5" style="stop-color:#782EEB"/>
	<stop  offset="1" style="stop-color:#E82D8A"/>
</linearGradient>
<path class="st0" d="M187.23,116.85h-7.04v19.09h-5.66v-19.09h-6.91v-4.37h19.61V116.85z M196.48,135.94
	c-0.19-0.35-0.37-0.88-0.52-1.56c-1,1.26-2.4,1.88-4.19,1.88c-1.64,0-3.04-0.5-4.19-1.49c-1.15-0.99-1.72-2.24-1.72-3.75
	c0-1.89,0.7-3.32,2.1-4.29c1.4-0.97,3.43-1.45,6.09-1.45h1.68v-0.92c0-1.61-0.69-2.41-2.08-2.41c-1.29,0-1.93,0.64-1.93,1.91h-5.43
	c0-1.68,0.72-3.05,2.15-4.1c1.43-1.05,3.26-1.58,5.49-1.58c2.22,0,3.98,0.54,5.27,1.63s1.95,2.57,1.98,4.46V132
	c0.02,1.6,0.27,2.83,0.74,3.67v0.27H196.48z M193.08,132.4c0.68,0,1.24-0.14,1.68-0.44c0.45-0.29,0.76-0.62,0.96-0.98v-2.79h-1.58
	c-1.89,0-2.84,0.85-2.84,2.54c0,0.5,0.17,0.89,0.5,1.2C192.14,132.25,192.56,132.4,193.08,132.4z M211.17,129.45l-1.53,1.53v4.96
	h-5.43v-24.77h5.43v13.15l0.55-0.73l4.09-5.09h6.51l-6.11,7.17l6.51,10.26h-6.22L211.17,129.45z M230.33,136.27
	c-2.67,0-4.84-0.8-6.49-2.39c-1.66-1.6-2.48-3.67-2.48-6.23v-0.45c0-1.78,0.33-3.36,0.99-4.72c0.66-1.36,1.62-2.42,2.89-3.17
	c1.27-0.75,2.77-1.12,4.51-1.12c2.45,0,4.38,0.76,5.8,2.28c1.42,1.52,2.13,3.64,2.13,6.36v2.11h-10.8c0.19,0.98,0.62,1.75,1.27,2.3
	c0.65,0.56,1.5,0.84,2.54,0.84c1.72,0,3.06-0.6,4.03-1.8l2.48,2.93c-0.68,0.93-1.63,1.68-2.88,2.23
	C233.1,135.99,231.76,136.27,230.33,136.27z M229.72,122.38c-1.59,0-2.54,1.05-2.84,3.16h5.48v-0.42c0.02-0.87-0.2-1.54-0.66-2.02
	C231.24,122.62,230.58,122.38,229.72,122.38z M257.9,135.94c-0.19-0.35-0.37-0.88-0.52-1.56c-1,1.26-2.4,1.88-4.19,1.88
	c-1.64,0-3.04-0.5-4.19-1.49c-1.15-0.99-1.72-2.24-1.72-3.75c0-1.89,0.7-3.32,2.1-4.29c1.4-0.97,3.43-1.45,6.09-1.45h1.68v-0.92
	c0-1.61-0.69-2.41-2.08-2.41c-1.29,0-1.93,0.64-1.93,1.91h-5.43c0-1.68,0.72-3.05,2.15-4.1c1.43-1.05,3.26-1.58,5.49-1.58
	c2.22,0,3.98,0.54,5.27,1.63s1.95,2.57,1.98,4.46V132c0.02,1.6,0.27,2.83,0.74,3.67v0.27H257.9z M254.5,132.4
	c0.68,0,1.24-0.14,1.68-0.44c0.45-0.29,0.76-0.62,0.96-0.98v-2.79h-1.58c-1.89,0-2.84,0.85-2.84,2.54c0,0.5,0.17,0.89,0.5,1.2
	C253.56,132.25,253.99,132.4,254.5,132.4z M272.97,132.08c0.76,0,1.35-0.21,1.77-0.62c0.42-0.41,0.62-0.99,0.61-1.73h5.09
	c0,1.91-0.68,3.48-2.05,4.71c-1.37,1.22-3.13,1.84-5.29,1.84c-2.54,0-4.53-0.79-5.99-2.38s-2.19-3.79-2.19-6.61v-0.23
	c0-1.76,0.33-3.32,0.97-4.67c0.65-1.35,1.59-2.38,2.81-3.11c1.22-0.73,2.67-1.09,4.35-1.09c2.27,0,4.07,0.63,5.4,1.89
	c1.33,1.26,2,2.96,2,5.11h-5.09c0-0.9-0.22-1.6-0.66-2.08c-0.44-0.48-1.03-0.73-1.77-0.73c-1.41,0-2.23,0.9-2.46,2.69
	c-0.08,0.57-0.11,1.35-0.11,2.35c0,1.75,0.21,2.96,0.63,3.64C271.39,131.74,272.06,132.08,272.97,132.08z M289.07,114.17v4.33h2.87
	v3.77h-2.87v7.98c0,0.66,0.12,1.11,0.35,1.37s0.7,0.39,1.4,0.39c0.54,0,0.99-0.03,1.35-0.1v3.88c-0.98,0.31-2,0.47-3.06,0.47
	c-1.87,0-3.25-0.44-4.14-1.32s-1.34-2.22-1.34-4.01v-8.65h-2.22v-3.77h2.22v-4.33H289.07z M294.03,114.01c0-0.77,0.28-1.41,0.84-1.9
	c0.56-0.49,1.28-0.74,2.18-0.74c0.89,0,1.62,0.25,2.17,0.74c0.56,0.5,0.84,1.13,0.84,1.9s-0.28,1.41-0.84,1.9
	c-0.56,0.5-1.28,0.74-2.17,0.74c-0.89,0-1.62-0.25-2.18-0.74C294.31,115.42,294.03,114.79,294.03,114.01z M299.8,135.94h-5.45
	v-17.43h5.45V135.94z M302.46,127.06c0-1.74,0.34-3.29,1.02-4.65c0.68-1.36,1.65-2.4,2.92-3.13s2.76-1.1,4.46-1.1
	c2.61,0,4.67,0.81,6.17,2.42c1.5,1.62,2.26,3.82,2.26,6.6v0.19c0,2.72-0.75,4.87-2.26,6.47c-1.51,1.59-3.55,2.39-6.13,2.39
	c-2.48,0-4.47-0.74-5.98-2.23c-1.5-1.49-2.32-3.5-2.43-6.05L302.46,127.06z M307.89,127.4c0,1.61,0.25,2.79,0.76,3.54
	s1.25,1.13,2.24,1.13c1.93,0,2.92-1.49,2.96-4.46v-0.55c0-3.12-1-4.69-3-4.69c-1.82,0-2.8,1.35-2.95,4.04L307.89,127.4z
	 M326.66,118.51l0.18,2.05c1.2-1.58,2.86-2.37,4.98-2.37c1.82,0,3.17,0.54,4.07,1.63c0.9,1.08,1.36,2.72,1.39,4.9v11.23h-5.45
	v-11.01c0-0.88-0.18-1.53-0.53-1.94c-0.35-0.41-1-0.62-1.93-0.62c-1.06,0-1.85,0.42-2.37,1.26v12.31h-5.43v-17.43H326.66z
	 M340.42,133.51c0-0.79,0.29-1.45,0.86-1.96c0.58-0.51,1.29-0.77,2.15-0.77s1.58,0.25,2.15,0.77c0.57,0.51,0.86,1.16,0.86,1.96
	c0,0.8-0.29,1.45-0.86,1.96c-0.58,0.51-1.29,0.77-2.15,0.77s-1.58-0.25-2.15-0.77C340.71,134.96,340.42,134.31,340.42,133.51z
	 M345.67,128.52h-4.4l-0.69-16.03h5.79L345.67,128.52z M178.16,152.08h5.64v16.1c0,1.49-0.35,2.83-1.04,4
	c-0.69,1.17-1.66,2.08-2.9,2.72c-1.24,0.64-2.62,0.97-4.15,0.97c-2.56,0-4.54-0.64-5.96-1.93s-2.13-3.12-2.13-5.48h5.67
	c0,1.07,0.19,1.85,0.56,2.34c0.37,0.48,0.99,0.73,1.86,0.73c0.78,0,1.39-0.29,1.81-0.88c0.42-0.59,0.64-1.4,0.64-2.46V152.08z
	 M197.5,173.66c-1.15,1.47-2.7,2.21-4.66,2.21c-1.91,0-3.36-0.56-4.34-1.67c-0.98-1.11-1.47-2.71-1.47-4.79v-11.3h5.43v11.33
	c0,1.49,0.73,2.24,2.17,2.24c1.25,0,2.13-0.45,2.66-1.34v-12.23h5.46v17.43h-5.09L197.5,173.66z M214.85,170.64
	c0-0.46-0.24-0.83-0.72-1.11s-1.4-0.57-2.76-0.87c-1.35-0.3-2.47-0.7-3.35-1.18c-0.88-0.49-1.55-1.08-2.01-1.78
	c-0.46-0.7-0.69-1.5-0.69-2.4c0-1.6,0.66-2.92,1.98-3.96c1.32-1.04,3.05-1.55,5.19-1.55c2.3,0,4.15,0.52,5.54,1.56
	s2.09,2.41,2.09,4.11h-5.45c0-1.4-0.74-2.09-2.21-2.09c-0.57,0-1.05,0.16-1.43,0.48c-0.39,0.32-0.58,0.71-0.58,1.18
	c0,0.48,0.24,0.88,0.71,1.18s1.23,0.55,2.26,0.74c1.04,0.19,1.95,0.42,2.73,0.69c2.62,0.9,3.93,2.52,3.93,4.85
	c0,1.59-0.71,2.88-2.12,3.88c-1.41,1-3.24,1.5-5.49,1.5c-1.49,0-2.83-0.27-4-0.81s-2.08-1.27-2.74-2.19s-0.98-1.9-0.98-2.92h5.08
	c0.02,0.81,0.29,1.39,0.81,1.76c0.52,0.37,1.18,0.56,1.98,0.56c0.74,0,1.3-0.15,1.67-0.45
	C214.66,171.52,214.85,171.13,214.85,170.64z M228.95,153.77v4.33h2.87v3.77h-2.87v7.98c0,0.66,0.12,1.11,0.35,1.37
	s0.7,0.39,1.4,0.39c0.54,0,0.99-0.03,1.35-0.1v3.88c-0.98,0.31-2,0.47-3.06,0.47c-1.87,0-3.25-0.44-4.14-1.32s-1.34-2.22-1.34-4.01
	v-8.65h-2.22v-3.77h2.22v-4.33H228.95z M251.99,175.54c-0.19-0.35-0.37-0.88-0.52-1.56c-1,1.26-2.4,1.88-4.19,1.88
	c-1.64,0-3.04-0.5-4.19-1.49c-1.15-0.99-1.72-2.24-1.72-3.75c0-1.89,0.7-3.32,2.1-4.29c1.4-0.97,3.43-1.45,6.09-1.45h1.68v-0.92
	c0-1.61-0.69-2.41-2.08-2.41c-1.29,0-1.93,0.64-1.93,1.91h-5.43c0-1.68,0.72-3.05,2.15-4.1c1.43-1.05,3.26-1.58,5.49-1.58
	c2.22,0,3.98,0.54,5.27,1.63s1.95,2.57,1.98,4.46v7.72c0.02,1.6,0.27,2.83,0.74,3.67v0.27H251.99z M248.59,172
	c0.68,0,1.24-0.14,1.68-0.44c0.45-0.29,0.76-0.62,0.96-0.98v-2.79h-1.58c-1.89,0-2.84,0.85-2.84,2.54c0,0.5,0.17,0.89,0.5,1.2
	C247.65,171.84,248.07,172,248.59,172z M274.23,153.77v4.33h2.87v3.77h-2.87v7.98c0,0.66,0.12,1.11,0.35,1.37s0.7,0.39,1.4,0.39
	c0.54,0,0.99-0.03,1.35-0.1v3.88c-0.98,0.31-2,0.47-3.06,0.47c-1.87,0-3.25-0.44-4.14-1.32s-1.34-2.22-1.34-4.01v-8.65h-2.22v-3.77
	h2.22v-4.33H274.23z M289.05,175.54c-0.19-0.35-0.37-0.88-0.52-1.56c-1,1.26-2.4,1.88-4.19,1.88c-1.64,0-3.04-0.5-4.19-1.49
	c-1.15-0.99-1.72-2.24-1.72-3.75c0-1.89,0.7-3.32,2.1-4.29c1.4-0.97,3.43-1.45,6.09-1.45h1.68v-0.92c0-1.61-0.69-2.41-2.08-2.41
	c-1.29,0-1.93,0.64-1.93,1.91h-5.43c0-1.68,0.72-3.05,2.15-4.1c1.43-1.05,3.26-1.58,5.49-1.58c2.22,0,3.98,0.54,5.27,1.63
	s1.95,2.57,1.98,4.46v7.72c0.02,1.6,0.27,2.83,0.74,3.67v0.27H289.05z M285.65,172c0.68,0,1.24-0.14,1.68-0.44
	c0.45-0.29,0.76-0.62,0.96-0.98v-2.79h-1.58c-1.89,0-2.84,0.85-2.84,2.54c0,0.5,0.17,0.89,0.5,1.2
	C284.71,171.84,285.13,172,285.65,172z M312.93,166.96c0,2.71-0.61,4.87-1.83,6.49c-1.22,1.62-2.87,2.42-4.94,2.42
	c-1.6,0-2.92-0.58-3.95-1.76v8.14h-5.43v-24.14h5.08l0.16,1.61c1.04-1.29,2.41-1.93,4.11-1.93c2.15,0,3.82,0.79,5.01,2.38
	c1.19,1.58,1.79,3.76,1.79,6.53V166.96z M307.5,166.62c0-3.09-0.9-4.64-2.71-4.64c-1.29,0-2.15,0.46-2.58,1.39v6.86
	c0.47,0.97,1.34,1.45,2.61,1.45c1.73,0,2.62-1.49,2.67-4.48V166.62z M333.36,175.54c-0.19-0.35-0.37-0.88-0.52-1.56
	c-1,1.26-2.4,1.88-4.19,1.88c-1.64,0-3.04-0.5-4.19-1.49c-1.15-0.99-1.72-2.24-1.72-3.75c0-1.89,0.7-3.32,2.1-4.29
	c1.4-0.97,3.43-1.45,6.09-1.45h1.68v-0.92c0-1.61-0.69-2.41-2.08-2.41c-1.29,0-1.93,0.64-1.93,1.91h-5.43c0-1.68,0.72-3.05,2.15-4.1
	c1.43-1.05,3.26-1.58,5.49-1.58c2.22,0,3.98,0.54,5.27,1.63s1.95,2.57,1.98,4.46v7.72c0.02,1.6,0.27,2.83,0.74,3.67v0.27H333.36z
	 M329.96,172c0.68,0,1.24-0.14,1.68-0.44c0.45-0.29,0.76-0.62,0.96-0.98v-2.79h-1.58c-1.89,0-2.84,0.85-2.84,2.54
	c0,0.5,0.17,0.89,0.5,1.2C329.02,171.84,329.45,172,329.96,172z M356.11,168.39l1.76-10.28h5.2l-4.11,17.43h-4.59l-2.88-10.34
	l-2.9,10.34H344l-4.11-17.43h5.2l1.72,10.52l2.77-10.52h3.79L356.11,168.39z M374.84,175.54c-0.19-0.35-0.37-0.88-0.52-1.56
	c-1,1.26-2.4,1.88-4.19,1.88c-1.64,0-3.04-0.5-4.19-1.49c-1.15-0.99-1.72-2.24-1.72-3.75c0-1.89,0.7-3.32,2.1-4.29
	c1.4-0.97,3.43-1.45,6.09-1.45h1.68v-0.92c0-1.61-0.69-2.41-2.08-2.41c-1.29,0-1.93,0.64-1.93,1.91h-5.43c0-1.68,0.72-3.05,2.15-4.1
	c1.43-1.05,3.26-1.58,5.49-1.58c2.22,0,3.98,0.54,5.27,1.63s1.95,2.57,1.98,4.46v7.72c0.02,1.6,0.27,2.83,0.74,3.67v0.27H374.84z
	 M371.44,172c0.68,0,1.24-0.14,1.68-0.44c0.45-0.29,0.76-0.62,0.96-0.98v-2.79h-1.58c-1.89,0-2.84,0.85-2.84,2.54
	c0,0.5,0.17,0.89,0.5,1.2C370.5,171.84,370.92,172,371.44,172z M389.26,167.94l2.9-9.83h5.82l-7.11,20.35l-0.31,0.74
	c-1.01,2.26-2.79,3.38-5.35,3.38c-0.71,0-1.46-0.11-2.24-0.32v-3.87h0.71c0.76,0,1.35-0.11,1.75-0.33c0.4-0.22,0.7-0.62,0.89-1.19
	l0.44-1.16l-6.06-17.61h5.8L389.26,167.94z M408.8,175.54v-13.66h-2.53v-3.77h2.53v-1.39c0-1.99,0.59-3.53,1.76-4.62
	s2.81-1.64,4.93-1.64c0.77,0,1.62,0.11,2.55,0.34l0.02,4c-0.33-0.1-0.78-0.14-1.34-0.14c-1.64,0-2.46,0.71-2.46,2.13v1.34h3.4v3.77
	h-3.4v13.66H408.8z M430.11,163.02l-1.79-0.13c-1.71,0-2.8,0.54-3.29,1.61v11.04h-5.43v-17.43h5.09l0.18,2.24
	c0.91-1.71,2.19-2.56,3.82-2.56c0.58,0,1.08,0.06,1.52,0.19L430.11,163.02z M430.8,166.66c0-1.74,0.34-3.29,1.02-4.65
	c0.68-1.36,1.65-2.4,2.92-3.13s2.76-1.1,4.46-1.1c2.61,0,4.67,0.81,6.17,2.42c1.5,1.62,2.26,3.82,2.26,6.6V167
	c0,2.72-0.75,4.87-2.26,6.47c-1.51,1.59-3.55,2.39-6.13,2.39c-2.48,0-4.47-0.74-5.98-2.23c-1.5-1.49-2.32-3.5-2.43-6.05
	L430.8,166.66z M436.23,167c0,1.61,0.25,2.79,0.76,3.54s1.25,1.13,2.24,1.13c1.93,0,2.92-1.49,2.96-4.46v-0.55c0-3.12-1-4.69-3-4.69
	c-1.82,0-2.8,1.35-2.95,4.04L436.23,167z M455.15,158.11l0.18,2.05c1.24-1.58,2.89-2.37,4.98-2.37c2.2,0,3.69,0.88,4.46,2.63
	c1.18-1.75,2.89-2.63,5.12-2.63c3.53,0,5.35,2.14,5.45,6.41v11.34h-5.45v-11.01c0-0.89-0.15-1.54-0.45-1.95s-0.85-0.61-1.64-0.61
	c-1.07,0-1.88,0.48-2.4,1.43l0.02,0.22v11.91h-5.45v-10.97c0-0.91-0.14-1.57-0.44-1.98c-0.29-0.41-0.84-0.61-1.66-0.61
	c-1.04,0-1.84,0.48-2.38,1.43v12.13h-5.43v-17.43H455.15z M496.48,175.54c-0.19-0.35-0.37-0.88-0.52-1.56
	c-1,1.26-2.4,1.88-4.19,1.88c-1.64,0-3.04-0.5-4.19-1.49c-1.15-0.99-1.72-2.24-1.72-3.75c0-1.89,0.7-3.32,2.1-4.29
	c1.4-0.97,3.43-1.45,6.09-1.45h1.68v-0.92c0-1.61-0.69-2.41-2.08-2.41c-1.29,0-1.93,0.64-1.93,1.91h-5.43c0-1.68,0.72-3.05,2.15-4.1
	c1.43-1.05,3.26-1.58,5.49-1.58c2.22,0,3.98,0.54,5.27,1.63s1.95,2.57,1.98,4.46v7.72c0.02,1.6,0.27,2.83,0.74,3.67v0.27H496.48z
	 M493.08,172c0.68,0,1.24-0.14,1.68-0.44c0.45-0.29,0.76-0.62,0.96-0.98v-2.79h-1.58c-1.89,0-2.84,0.85-2.84,2.54
	c0,0.5,0.17,0.89,0.5,1.2C492.14,171.84,492.56,172,493.08,172z M511.7,166.7c0-2.76,0.6-4.94,1.79-6.53
	c1.19-1.59,2.86-2.38,4.99-2.38c1.56,0,2.87,0.61,3.93,1.84v-8.83h5.45v24.75h-4.88l-0.27-1.87c-1.12,1.46-2.54,2.19-4.25,2.19
	c-2.07,0-3.72-0.79-4.93-2.38S511.7,169.63,511.7,166.7z M517.13,167.04c0,3.09,0.9,4.64,2.71,4.64c1.2,0,2.06-0.5,2.58-1.51v-6.64
	c-0.49-1.03-1.34-1.55-2.54-1.55c-1.68,0-2.58,1.35-2.72,4.06L517.13,167.04z M539.39,175.87c-2.67,0-4.84-0.8-6.49-2.39
	c-1.66-1.6-2.48-3.67-2.48-6.23v-0.45c0-1.78,0.33-3.36,0.99-4.72c0.66-1.36,1.62-2.42,2.89-3.17c1.27-0.75,2.77-1.12,4.51-1.12
	c2.45,0,4.38,0.76,5.8,2.28c1.42,1.52,2.13,3.64,2.13,6.36v2.11h-10.8c0.19,0.98,0.62,1.75,1.27,2.3c0.65,0.56,1.5,0.84,2.54,0.84
	c1.72,0,3.06-0.6,4.03-1.8l2.48,2.93c-0.68,0.93-1.63,1.68-2.88,2.23C542.15,175.59,540.82,175.87,539.39,175.87z M538.77,161.98
	c-1.59,0-2.54,1.05-2.84,3.16h5.48v-0.42c0.02-0.87-0.2-1.54-0.66-2.02C540.29,162.21,539.63,161.98,538.77,161.98z M548.23,166.7
	c0-2.76,0.6-4.94,1.79-6.53c1.19-1.59,2.86-2.38,4.99-2.38c1.56,0,2.87,0.61,3.93,1.84v-8.83h5.45v24.75h-4.88l-0.27-1.87
	c-1.12,1.46-2.54,2.19-4.25,2.19c-2.07,0-3.72-0.79-4.93-2.38S548.23,169.63,548.23,166.7z M553.66,167.04
	c0,3.09,0.9,4.64,2.71,4.64c1.2,0,2.06-0.5,2.58-1.51v-6.64c-0.49-1.03-1.34-1.55-2.54-1.55c-1.68,0-2.58,1.35-2.72,4.06
	L553.66,167.04z M567.44,153.61c0-0.77,0.28-1.41,0.84-1.9c0.56-0.49,1.28-0.74,2.18-0.74c0.89,0,1.62,0.25,2.17,0.74
	c0.56,0.5,0.84,1.13,0.84,1.9s-0.28,1.41-0.84,1.9c-0.56,0.5-1.28,0.74-2.17,0.74c-0.89,0-1.62-0.25-2.18-0.74
	C567.72,155.02,567.44,154.39,567.44,153.61z M573.21,175.54h-5.45v-17.43h5.45V175.54z M583.92,171.68c0.76,0,1.35-0.21,1.77-0.62
	c0.42-0.41,0.62-0.99,0.61-1.73h5.09c0,1.91-0.68,3.48-2.05,4.71c-1.37,1.22-3.13,1.84-5.29,1.84c-2.54,0-4.53-0.79-5.99-2.38
	s-2.19-3.79-2.19-6.61v-0.23c0-1.76,0.33-3.32,0.97-4.67c0.65-1.35,1.59-2.38,2.81-3.11c1.22-0.73,2.67-1.09,4.35-1.09
	c2.27,0,4.07,0.63,5.4,1.89c1.33,1.26,2,2.96,2,5.11h-5.09c0-0.9-0.22-1.6-0.66-2.08c-0.44-0.48-1.03-0.73-1.77-0.73
	c-1.41,0-2.23,0.9-2.46,2.69c-0.08,0.57-0.11,1.35-0.11,2.35c0,1.75,0.21,2.96,0.63,3.64C582.34,171.34,583.01,171.68,583.92,171.68
	z M603.52,175.54c-0.19-0.35-0.37-0.88-0.52-1.56c-1,1.26-2.4,1.88-4.19,1.88c-1.64,0-3.04-0.5-4.19-1.49
	c-1.15-0.99-1.72-2.24-1.72-3.75c0-1.89,0.7-3.32,2.1-4.29c1.4-0.97,3.43-1.45,6.09-1.45h1.68v-0.92c0-1.61-0.69-2.41-2.08-2.41
	c-1.29,0-1.93,0.64-1.93,1.91h-5.43c0-1.68,0.72-3.05,2.15-4.1c1.43-1.05,3.26-1.58,5.49-1.58c2.22,0,3.98,0.54,5.27,1.63
	s1.95,2.57,1.98,4.46v7.72c0.02,1.6,0.27,2.83,0.74,3.67v0.27H603.52z M600.12,172c0.68,0,1.24-0.14,1.68-0.44
	c0.45-0.29,0.76-0.62,0.96-0.98v-2.79h-1.58c-1.89,0-2.84,0.85-2.84,2.54c0,0.5,0.17,0.89,0.5,1.2
	C599.18,171.84,599.6,172,600.12,172z M617.54,153.77v4.33h2.87v3.77h-2.87v7.98c0,0.66,0.12,1.11,0.35,1.37s0.7,0.39,1.4,0.39
	c0.54,0,0.99-0.03,1.35-0.1v3.88c-0.98,0.31-2,0.47-3.06,0.47c-1.87,0-3.25-0.44-4.14-1.32s-1.34-2.22-1.34-4.01v-8.65h-2.22v-3.77
	h2.22v-4.33H617.54z M630.97,175.87c-2.67,0-4.84-0.8-6.49-2.39c-1.66-1.6-2.48-3.67-2.48-6.23v-0.45c0-1.78,0.33-3.36,0.99-4.72
	c0.66-1.36,1.62-2.42,2.89-3.17c1.27-0.75,2.77-1.12,4.51-1.12c2.45,0,4.38,0.76,5.8,2.28c1.42,1.52,2.13,3.64,2.13,6.36v2.11h-10.8
	c0.19,0.98,0.62,1.75,1.27,2.3c0.65,0.56,1.5,0.84,2.54,0.84c1.72,0,3.06-0.6,4.03-1.8l2.48,2.93c-0.68,0.93-1.63,1.68-2.88,2.23
	C633.74,175.59,632.4,175.87,630.97,175.87z M630.36,161.98c-1.59,0-2.54,1.05-2.84,3.16H633v-0.42c0.02-0.87-0.2-1.54-0.66-2.02
	C631.88,162.21,631.22,161.98,630.36,161.98z M639.82,166.7c0-2.76,0.6-4.94,1.79-6.53c1.19-1.59,2.86-2.38,4.99-2.38
	c1.56,0,2.87,0.61,3.93,1.84v-8.83h5.45v24.75h-4.88l-0.27-1.87c-1.12,1.46-2.54,2.19-4.25,2.19c-2.07,0-3.72-0.79-4.93-2.38
	S639.82,169.63,639.82,166.7z M645.25,167.04c0,3.09,0.9,4.64,2.71,4.64c1.2,0,2.06-0.5,2.58-1.51v-6.64
	c-0.49-1.03-1.34-1.55-2.54-1.55c-1.68,0-2.58,1.35-2.72,4.06L645.25,167.04z M168.52,193.21c0-0.77,0.28-1.41,0.84-1.9
	c0.56-0.49,1.28-0.74,2.18-0.74c0.89,0,1.62,0.25,2.17,0.74c0.56,0.5,0.84,1.13,0.84,1.9s-0.28,1.41-0.84,1.9
	c-0.56,0.5-1.28,0.74-2.17,0.74c-0.89,0-1.62-0.25-2.18-0.74C168.8,194.62,168.52,193.99,168.52,193.21z M174.29,215.14h-5.45
	v-17.43h5.45V215.14z M176.95,206.3c0-2.76,0.6-4.94,1.79-6.53c1.19-1.59,2.86-2.38,4.99-2.38c1.56,0,2.87,0.61,3.93,1.84v-8.83
	h5.45v24.75h-4.88l-0.27-1.87c-1.12,1.46-2.54,2.19-4.25,2.19c-2.07,0-3.72-0.79-4.93-2.38S176.95,209.23,176.95,206.3z
	 M182.38,206.64c0,3.09,0.9,4.64,2.71,4.64c1.2,0,2.06-0.5,2.58-1.51v-6.64c-0.49-1.03-1.34-1.55-2.54-1.55
	c-1.68,0-2.58,1.35-2.72,4.06L182.38,206.64z M204.63,215.47c-2.67,0-4.84-0.8-6.49-2.39c-1.66-1.6-2.48-3.67-2.48-6.23v-0.45
	c0-1.78,0.33-3.36,0.99-4.72c0.66-1.36,1.62-2.42,2.89-3.17c1.27-0.75,2.77-1.12,4.51-1.12c2.45,0,4.38,0.76,5.8,2.28
	c1.42,1.52,2.13,3.64,2.13,6.36v2.11h-10.8c0.19,0.98,0.62,1.75,1.27,2.3c0.65,0.56,1.5,0.84,2.54,0.84c1.72,0,3.06-0.6,4.03-1.8
	l2.48,2.93c-0.68,0.93-1.63,1.68-2.88,2.23C207.4,215.19,206.06,215.47,204.63,215.47z M204.02,201.58c-1.59,0-2.54,1.05-2.84,3.16
	h5.48v-0.42c0.02-0.87-0.2-1.54-0.66-2.02C205.54,201.82,204.88,201.58,204.02,201.58z M219.15,197.71l0.18,2.05
	c1.2-1.58,2.86-2.37,4.98-2.37c1.82,0,3.17,0.54,4.07,1.63c0.9,1.08,1.36,2.72,1.39,4.9v11.23h-5.45v-11.01
	c0-0.88-0.18-1.53-0.53-1.94c-0.35-0.41-1-0.62-1.93-0.62c-1.06,0-1.85,0.42-2.37,1.26v12.31h-5.43v-17.43H219.15z M239.1,193.37
	v4.33h2.87v3.77h-2.87v7.98c0,0.66,0.12,1.11,0.35,1.37s0.7,0.39,1.4,0.39c0.54,0,0.99-0.03,1.35-0.1V215
	c-0.98,0.31-2,0.47-3.06,0.47c-1.87,0-3.25-0.44-4.14-1.32s-1.34-2.22-1.34-4.01v-8.65h-2.22v-3.77h2.22v-4.33H239.1z
	 M244.06,193.21c0-0.77,0.28-1.41,0.84-1.9c0.56-0.49,1.28-0.74,2.18-0.74c0.89,0,1.62,0.25,2.17,0.74c0.56,0.5,0.84,1.13,0.84,1.9
	s-0.28,1.41-0.84,1.9c-0.56,0.5-1.28,0.74-2.17,0.74c-0.89,0-1.62-0.25-2.18-0.74C244.34,194.62,244.06,193.99,244.06,193.21z
	 M249.83,215.14h-5.45v-17.43h5.45V215.14z M259.5,193.37v4.33h2.87v3.77h-2.87v7.98c0,0.66,0.12,1.11,0.35,1.37s0.7,0.39,1.4,0.39
	c0.54,0,0.99-0.03,1.35-0.1V215c-0.98,0.31-2,0.47-3.06,0.47c-1.87,0-3.25-0.44-4.14-1.32s-1.34-2.22-1.34-4.01v-8.65h-2.22v-3.77
	h2.22v-4.33H259.5z M271.47,207.54l2.9-9.83h5.82l-7.11,20.35l-0.31,0.74c-1.01,2.26-2.79,3.38-5.35,3.38
	c-0.71,0-1.46-0.11-2.24-0.32V218h0.71c0.76,0,1.35-0.11,1.75-0.33c0.4-0.22,0.7-0.62,0.89-1.19l0.44-1.16l-6.06-17.61h5.8
	L271.47,207.54z M296.14,193.37v4.33h2.87v3.77h-2.87v7.98c0,0.66,0.12,1.11,0.35,1.37s0.7,0.39,1.4,0.39c0.54,0,0.99-0.03,1.35-0.1
	V215c-0.98,0.31-2,0.47-3.06,0.47c-1.87,0-3.25-0.44-4.14-1.32s-1.34-2.22-1.34-4.01v-8.65h-2.22v-3.77h2.22v-4.33H296.14z
	 M306.45,199.58c1.16-1.46,2.64-2.19,4.45-2.19c1.92,0,3.37,0.57,4.35,1.71s1.48,2.82,1.5,5.04v11.01h-5.45v-10.88
	c0-0.92-0.19-1.6-0.56-2.04c-0.38-0.43-1.01-0.65-1.92-0.65c-1.12,0-1.91,0.35-2.37,1.06v12.5h-5.43v-24.75h5.43V199.58z
	 M328.21,215.47c-2.67,0-4.84-0.8-6.49-2.39c-1.66-1.6-2.48-3.67-2.48-6.23v-0.45c0-1.78,0.33-3.36,0.99-4.72
	c0.66-1.36,1.62-2.42,2.89-3.17c1.27-0.75,2.77-1.12,4.51-1.12c2.45,0,4.38,0.76,5.8,2.28c1.42,1.52,2.13,3.64,2.13,6.36v2.11h-10.8
	c0.19,0.98,0.62,1.75,1.27,2.3c0.65,0.56,1.5,0.84,2.54,0.84c1.72,0,3.06-0.6,4.03-1.8l2.48,2.93c-0.68,0.93-1.63,1.68-2.88,2.23
	C330.97,215.19,329.63,215.47,328.21,215.47z M327.59,201.58c-1.59,0-2.54,1.05-2.84,3.16h5.48v-0.42c0.02-0.87-0.2-1.54-0.66-2.02
	C329.11,201.82,328.45,201.58,327.59,201.58z M338.94,215.14v-13.66h-2.53v-3.77h2.53v-1.39c0-1.99,0.59-3.53,1.76-4.62
	s2.81-1.64,4.93-1.64c0.77,0,1.62,0.11,2.55,0.34l0.02,4c-0.33-0.1-0.78-0.14-1.34-0.14c-1.64,0-2.46,0.71-2.46,2.13v1.34h3.4v3.77
	h-3.4v13.66H338.94z M356.02,193.37v4.33h2.87v3.77h-2.87v7.98c0,0.66,0.12,1.11,0.35,1.37s0.7,0.39,1.4,0.39
	c0.54,0,0.99-0.03,1.35-0.1V215c-0.98,0.31-2,0.47-3.06,0.47c-1.87,0-3.25-0.44-4.14-1.32s-1.34-2.22-1.34-4.01v-8.65h-2.22v-3.77
	h2.22v-4.33H356.02z M378.37,210.25c0-0.46-0.24-0.83-0.72-1.11s-1.4-0.57-2.76-0.87c-1.35-0.3-2.47-0.7-3.35-1.18
	c-0.88-0.49-1.55-1.08-2.01-1.78c-0.46-0.7-0.69-1.5-0.69-2.4c0-1.6,0.66-2.92,1.98-3.96c1.32-1.04,3.05-1.55,5.19-1.55
	c2.3,0,4.15,0.52,5.54,1.56s2.09,2.41,2.09,4.11h-5.45c0-1.4-0.74-2.09-2.21-2.09c-0.57,0-1.05,0.16-1.43,0.48
	c-0.39,0.32-0.58,0.71-0.58,1.18c0,0.48,0.24,0.88,0.71,1.18s1.23,0.55,2.26,0.74c1.04,0.19,1.95,0.42,2.73,0.69
	c2.62,0.9,3.93,2.52,3.93,4.85c0,1.59-0.71,2.88-2.12,3.88c-1.41,1-3.24,1.5-5.49,1.5c-1.49,0-2.83-0.27-4-0.81
	s-2.08-1.27-2.74-2.19s-0.98-1.9-0.98-2.92h5.08c0.02,0.81,0.29,1.39,0.81,1.76c0.52,0.37,1.18,0.56,1.98,0.56
	c0.74,0,1.3-0.15,1.67-0.45C378.18,211.12,378.37,210.73,378.37,210.25z M402.33,206.56c0,2.71-0.61,4.87-1.83,6.49
	c-1.22,1.62-2.87,2.42-4.94,2.42c-1.6,0-2.92-0.58-3.95-1.76v8.14h-5.43v-24.14h5.08l0.16,1.61c1.04-1.29,2.41-1.93,4.11-1.93
	c2.15,0,3.82,0.79,5.01,2.38c1.19,1.58,1.79,3.76,1.79,6.53V206.56z M396.9,206.22c0-3.09-0.9-4.64-2.71-4.64
	c-1.29,0-2.15,0.46-2.58,1.39v6.86c0.47,0.97,1.34,1.45,2.61,1.45c1.73,0,2.62-1.49,2.67-4.48V206.22z M413.16,215.47
	c-2.67,0-4.84-0.8-6.49-2.39c-1.66-1.6-2.48-3.67-2.48-6.23v-0.45c0-1.78,0.33-3.36,0.99-4.72c0.66-1.36,1.62-2.42,2.89-3.17
	c1.27-0.75,2.77-1.12,4.51-1.12c2.45,0,4.38,0.76,5.8,2.28c1.42,1.52,2.13,3.64,2.13,6.36v2.11h-10.8c0.19,0.98,0.62,1.75,1.27,2.3
	c0.65,0.56,1.5,0.84,2.54,0.84c1.72,0,3.06-0.6,4.03-1.8l2.48,2.93c-0.68,0.93-1.63,1.68-2.88,2.23
	C415.92,215.19,414.58,215.47,413.16,215.47z M412.54,201.58c-1.59,0-2.54,1.05-2.84,3.16h5.48v-0.42c0.02-0.87-0.2-1.54-0.66-2.02
	C414.06,201.82,413.4,201.58,412.54,201.58z M430.06,211.28c0.76,0,1.35-0.21,1.77-0.62c0.42-0.41,0.62-0.99,0.61-1.73h5.09
	c0,1.91-0.68,3.48-2.05,4.71c-1.37,1.22-3.13,1.84-5.29,1.84c-2.54,0-4.53-0.79-5.99-2.38s-2.19-3.79-2.19-6.61v-0.23
	c0-1.76,0.33-3.32,0.97-4.67c0.65-1.35,1.59-2.38,2.81-3.11c1.22-0.73,2.67-1.09,4.35-1.09c2.27,0,4.07,0.63,5.4,1.89
	c1.33,1.26,2,2.96,2,5.11h-5.09c0-0.9-0.22-1.6-0.66-2.08c-0.44-0.48-1.03-0.73-1.77-0.73c-1.41,0-2.23,0.9-2.46,2.69
	c-0.08,0.57-0.11,1.35-0.11,2.35c0,1.75,0.21,2.96,0.63,3.64C428.48,210.94,429.15,211.28,430.06,211.28z M439.79,193.21
	c0-0.77,0.28-1.41,0.84-1.9c0.56-0.49,1.28-0.74,2.18-0.74c0.89,0,1.62,0.25,2.17,0.74c0.56,0.5,0.84,1.13,0.84,1.9
	s-0.28,1.41-0.84,1.9c-0.56,0.5-1.28,0.74-2.17,0.74c-0.89,0-1.62-0.25-2.18-0.74C440.07,194.62,439.79,193.99,439.79,193.21z
	 M445.56,215.14h-5.45v-17.43h5.45V215.14z M458.72,215.14c-0.19-0.35-0.37-0.88-0.52-1.56c-1,1.26-2.4,1.88-4.19,1.88
	c-1.64,0-3.04-0.5-4.19-1.49c-1.15-0.99-1.72-2.24-1.72-3.75c0-1.89,0.7-3.32,2.1-4.29c1.4-0.97,3.43-1.45,6.09-1.45h1.68v-0.92
	c0-1.61-0.69-2.41-2.08-2.41c-1.29,0-1.93,0.64-1.93,1.91h-5.43c0-1.68,0.72-3.05,2.15-4.1c1.43-1.05,3.26-1.58,5.49-1.58
	c2.22,0,3.98,0.54,5.27,1.63s1.95,2.57,1.98,4.46v7.72c0.02,1.6,0.27,2.83,0.74,3.67v0.27H458.72z M455.32,211.6
	c0.68,0,1.24-0.14,1.68-0.44c0.45-0.29,0.76-0.62,0.96-0.98v-2.79h-1.58c-1.89,0-2.84,0.85-2.84,2.54c0,0.5,0.17,0.89,0.5,1.2
	C454.38,211.45,454.81,211.6,455.32,211.6z M472.15,215.14h-5.45v-24.75h5.45V215.14z M475.45,193.21c0-0.77,0.28-1.41,0.84-1.9
	c0.56-0.49,1.28-0.74,2.18-0.74c0.89,0,1.62,0.25,2.17,0.74c0.56,0.5,0.84,1.13,0.84,1.9s-0.28,1.41-0.84,1.9
	c-0.56,0.5-1.28,0.74-2.17,0.74c-0.89,0-1.62-0.25-2.18-0.74C475.73,194.62,475.45,193.99,475.45,193.21z M481.22,215.14h-5.45
	v-17.43h5.45V215.14z M493.69,210.25c0-0.46-0.24-0.83-0.72-1.11s-1.4-0.57-2.76-0.87c-1.35-0.3-2.47-0.7-3.35-1.18
	c-0.88-0.49-1.55-1.08-2.01-1.78c-0.46-0.7-0.69-1.5-0.69-2.4c0-1.6,0.66-2.92,1.98-3.96c1.32-1.04,3.05-1.55,5.19-1.55
	c2.3,0,4.15,0.52,5.54,1.56s2.09,2.41,2.09,4.11h-5.45c0-1.4-0.74-2.09-2.21-2.09c-0.57,0-1.05,0.16-1.43,0.48
	c-0.39,0.32-0.58,0.71-0.58,1.18c0,0.48,0.24,0.88,0.71,1.18s1.23,0.55,2.26,0.74c1.04,0.19,1.95,0.42,2.73,0.69
	c2.62,0.9,3.93,2.52,3.93,4.85c0,1.59-0.71,2.88-2.12,3.88c-1.41,1-3.24,1.5-5.49,1.5c-1.49,0-2.83-0.27-4-0.81
	s-2.08-1.27-2.74-2.19s-0.98-1.9-0.98-2.92h5.08c0.02,0.81,0.29,1.39,0.81,1.76c0.52,0.37,1.18,0.56,1.98,0.56
	c0.74,0,1.3-0.15,1.67-0.45C493.5,211.12,493.69,210.73,493.69,210.25z M507.79,193.37v4.33h2.87v3.77h-2.87v7.98
	c0,0.66,0.12,1.11,0.35,1.37s0.7,0.39,1.4,0.39c0.54,0,0.99-0.03,1.35-0.1V215c-0.98,0.31-2,0.47-3.06,0.47
	c-1.87,0-3.25-0.44-4.14-1.32s-1.34-2.22-1.34-4.01v-8.65h-2.22v-3.77h2.22v-4.33H507.79z"/>
</svg>
