<?xml version="1.0" encoding="utf-8"?>
<!-- Generator: Adobe Illustrator 24.2.3, SVG Export Plug-In . SVG Version: 6.00 Build 0)  -->
<svg version="1.1" id="Layer_1" xmlns="http://www.w3.org/2000/svg" xmlns:xlink="http://www.w3.org/1999/xlink" x="0px" y="0px"
	 viewBox="0 0 970 250" style="enable-background:new 0 0 970 250;" xml:space="preserve">
<style type="text/css">
	.st0{fill:url(#SVGID_1_);}
</style>
<linearGradient id="SVGID_1_" gradientUnits="userSpaceOnUse" x1="167.1338" y1="157.9932" x2="631.7764" y2="157.9932">
	<stop  offset="0" style="stop-color:#18B9FB"/>
	<stop  offset="0.5" style="stop-color:#782EEB"/>
	<stop  offset="1" style="stop-color:#E82D8A"/>
</linearGradient>
<path class="st0" d="M186.79,144.15c-0.87,0.97-2.14,1.75-3.82,2.34c-1.68,0.59-3.51,0.89-5.51,0.89c-3.07,0-5.53-0.94-7.36-2.82
	c-1.84-1.88-2.82-4.5-2.95-7.85l-0.02-2.03c0-2.31,0.41-4.33,1.22-6.05c0.82-1.72,1.98-3.05,3.5-3.98c1.52-0.93,3.28-1.39,5.28-1.39
	c2.92,0,5.19,0.67,6.81,2.01c1.62,1.34,2.56,3.33,2.83,5.99h-5.45c-0.19-1.31-0.61-2.25-1.26-2.8c-0.64-0.56-1.56-0.84-2.74-0.84
	c-1.42,0-2.51,0.6-3.29,1.8c-0.77,1.2-1.17,2.92-1.18,5.16v1.42c0,2.34,0.4,4.1,1.2,5.28c0.8,1.18,2.06,1.76,3.78,1.76
	c1.47,0,2.57-0.33,3.29-0.98v-3.64h-3.93v-3.88h9.59V144.15z M198.26,147.37c-2.67,0-4.84-0.8-6.49-2.39
	c-1.66-1.6-2.48-3.67-2.48-6.23v-0.45c0-1.78,0.33-3.36,0.99-4.72c0.66-1.36,1.62-2.42,2.89-3.17c1.27-0.75,2.77-1.12,4.51-1.12
	c2.45,0,4.38,0.76,5.8,2.28c1.42,1.52,2.13,3.64,2.13,6.36v2.11h-10.8c0.19,0.98,0.62,1.75,1.27,2.3c0.65,0.56,1.5,0.84,2.54,0.84
	c1.72,0,3.06-0.6,4.03-1.8l2.48,2.93c-0.68,0.93-1.63,1.68-2.88,2.23C201.03,147.09,199.69,147.37,198.26,147.37z M197.65,133.48
	c-1.59,0-2.54,1.05-2.84,3.16h5.48v-0.42c0.02-0.87-0.2-1.54-0.66-2.02C199.17,133.72,198.51,133.48,197.65,133.48z M214.12,125.28
	v4.33h2.87v3.77h-2.87v7.98c0,0.66,0.12,1.11,0.35,1.37s0.7,0.39,1.4,0.39c0.54,0,0.99-0.03,1.35-0.1v3.88
	c-0.98,0.31-2,0.47-3.06,0.47c-1.87,0-3.25-0.44-4.14-1.32s-1.34-2.22-1.34-4.01v-8.65h-2.22v-3.77h2.22v-4.33H214.12z
	 M233.67,125.28v4.33h2.87v3.77h-2.87v7.98c0,0.66,0.12,1.11,0.35,1.37s0.7,0.39,1.4,0.39c0.54,0,0.99-0.03,1.35-0.1v3.88
	c-0.98,0.31-2,0.47-3.06,0.47c-1.87,0-3.25-0.44-4.14-1.32s-1.34-2.22-1.34-4.01v-8.65h-2.22v-3.77h2.22v-4.33H233.67z
	 M249.21,134.53l-1.79-0.13c-1.71,0-2.8,0.54-3.29,1.61v11.04h-5.43v-17.43h5.09l0.18,2.24c0.91-1.71,2.19-2.56,3.82-2.56
	c0.58,0,1.08,0.06,1.52,0.19L249.21,134.53z M251.13,125.12c0-0.77,0.28-1.41,0.84-1.9c0.56-0.49,1.28-0.74,2.18-0.74
	c0.89,0,1.62,0.25,2.17,0.74c0.56,0.5,0.84,1.13,0.84,1.9s-0.28,1.41-0.84,1.9c-0.56,0.5-1.28,0.74-2.17,0.74
	c-0.89,0-1.62-0.25-2.18-0.74C251.41,126.53,251.13,125.89,251.13,125.12z M256.9,147.05h-5.45v-17.43h5.45V147.05z M276.43,138.46
	c0,2.71-0.61,4.87-1.83,6.49c-1.22,1.62-2.87,2.42-4.94,2.42c-1.6,0-2.92-0.58-3.95-1.76v8.14h-5.43v-24.14h5.08l0.16,1.61
	c1.04-1.29,2.41-1.93,4.11-1.93c2.15,0,3.82,0.79,5.01,2.38c1.19,1.58,1.79,3.76,1.79,6.53V138.46z M271,138.12
	c0-3.09-0.9-4.64-2.71-4.64c-1.29,0-2.15,0.46-2.58,1.39v6.86c0.47,0.97,1.34,1.45,2.61,1.45c1.73,0,2.62-1.49,2.67-4.48V138.12z
	 M284.55,147.05h-5.45V122.3h5.45V147.05z M296.33,147.37c-2.67,0-4.84-0.8-6.49-2.39c-1.66-1.6-2.48-3.67-2.48-6.23v-0.45
	c0-1.78,0.33-3.36,0.99-4.72c0.66-1.36,1.62-2.42,2.89-3.17c1.27-0.75,2.77-1.12,4.51-1.12c2.45,0,4.38,0.76,5.8,2.28
	c1.42,1.52,2.13,3.64,2.13,6.36v2.11h-10.8c0.19,0.98,0.62,1.75,1.27,2.3c0.65,0.56,1.5,0.84,2.54,0.84c1.72,0,3.06-0.6,4.03-1.8
	l2.48,2.93c-0.68,0.93-1.63,1.68-2.88,2.23C299.09,147.09,297.76,147.37,296.33,147.37z M295.72,133.48c-1.59,0-2.54,1.05-2.84,3.16
	h5.48v-0.42c0.02-0.87-0.2-1.54-0.66-2.02C297.24,133.72,296.58,133.48,295.72,133.48z M316.47,139.02h-9.68v-4.19h9.68V139.02z
	 M336.89,138.48c0,2.86-0.59,5.05-1.77,6.59c-1.18,1.54-2.85,2.3-4.99,2.3c-1.77,0-3.2-0.7-4.29-2.11l-0.22,1.79h-4.87V122.3h5.43
	v8.72c1.01-1.15,2.31-1.72,3.92-1.72c2.17,0,3.85,0.78,5.03,2.34s1.77,3.75,1.77,6.57V138.48z M331.44,138.13
	c0-1.67-0.22-2.87-0.67-3.58c-0.45-0.71-1.13-1.07-2.05-1.07c-1.22,0-2.07,0.47-2.55,1.4v6.92c0.46,0.92,1.32,1.38,2.58,1.38
	c1.28,0,2.09-0.62,2.43-1.87C331.35,140.7,331.44,139.64,331.44,138.13z M349.67,145.16c-1.15,1.47-2.7,2.21-4.66,2.21
	c-1.91,0-3.36-0.56-4.34-1.67c-0.98-1.11-1.47-2.71-1.47-4.79v-11.3h5.43v11.33c0,1.49,0.73,2.24,2.17,2.24
	c1.25,0,2.13-0.45,2.66-1.34v-12.23h5.46v17.43h-5.09L349.67,145.16z M368.44,134.53l-1.79-0.13c-1.71,0-2.8,0.54-3.29,1.61v11.04
	h-5.43v-17.43h5.09l0.18,2.24c0.91-1.71,2.19-2.56,3.82-2.56c0.58,0,1.08,0.06,1.52,0.19L368.44,134.53z M378.52,147.37
	c-2.67,0-4.84-0.8-6.49-2.39c-1.66-1.6-2.48-3.67-2.48-6.23v-0.45c0-1.78,0.33-3.36,0.99-4.72c0.66-1.36,1.62-2.42,2.89-3.17
	c1.27-0.75,2.77-1.12,4.51-1.12c2.45,0,4.38,0.76,5.8,2.28c1.42,1.52,2.13,3.64,2.13,6.36v2.11h-10.8c0.19,0.98,0.62,1.75,1.27,2.3
	c0.65,0.56,1.5,0.84,2.54,0.84c1.72,0,3.06-0.6,4.03-1.8l2.48,2.93c-0.68,0.93-1.63,1.68-2.88,2.23
	C381.29,147.09,379.95,147.37,378.52,147.37z M377.91,133.48c-1.59,0-2.54,1.05-2.84,3.16h5.48v-0.42c0.02-0.87-0.2-1.54-0.66-2.02
	C379.43,133.72,378.77,133.48,377.91,133.48z M397.88,147.05c-0.19-0.35-0.37-0.88-0.52-1.56c-1,1.26-2.4,1.88-4.19,1.88
	c-1.64,0-3.04-0.5-4.19-1.49c-1.15-0.99-1.72-2.24-1.72-3.75c0-1.89,0.7-3.32,2.1-4.29c1.4-0.97,3.43-1.45,6.09-1.45h1.68v-0.92
	c0-1.61-0.69-2.41-2.08-2.41c-1.29,0-1.93,0.64-1.93,1.91h-5.43c0-1.68,0.72-3.05,2.15-4.1c1.43-1.05,3.26-1.58,5.49-1.58
	c2.22,0,3.98,0.54,5.27,1.63s1.95,2.57,1.98,4.46v7.72c0.02,1.6,0.27,2.83,0.74,3.67v0.27H397.88z M394.48,143.5
	c0.68,0,1.24-0.14,1.68-0.44c0.45-0.29,0.76-0.62,0.96-0.98v-2.79h-1.58c-1.89,0-2.84,0.85-2.84,2.54c0,0.5,0.17,0.89,0.5,1.2
	C393.54,143.35,393.96,143.5,394.48,143.5z M415.96,145.16c-1.15,1.47-2.7,2.21-4.66,2.21c-1.91,0-3.36-0.56-4.34-1.67
	c-0.98-1.11-1.47-2.71-1.47-4.79v-11.3h5.43v11.33c0,1.49,0.73,2.24,2.17,2.24c1.25,0,2.13-0.45,2.66-1.34v-12.23h5.46v17.43h-5.09
	L415.96,145.16z M439.77,143.18c0.76,0,1.35-0.21,1.77-0.62c0.42-0.41,0.62-0.99,0.61-1.73h5.09c0,1.91-0.68,3.48-2.05,4.71
	c-1.37,1.22-3.13,1.84-5.29,1.84c-2.54,0-4.53-0.79-5.99-2.38s-2.19-3.79-2.19-6.61v-0.23c0-1.76,0.33-3.32,0.97-4.67
	c0.65-1.35,1.59-2.38,2.81-3.11c1.22-0.73,2.67-1.09,4.35-1.09c2.27,0,4.07,0.63,5.4,1.89c1.33,1.26,2,2.96,2,5.11h-5.09
	c0-0.9-0.22-1.6-0.66-2.08c-0.44-0.48-1.03-0.73-1.77-0.73c-1.41,0-2.23,0.9-2.46,2.69c-0.08,0.57-0.11,1.35-0.11,2.35
	c0,1.75,0.21,2.96,0.63,3.64C438.19,142.84,438.86,143.18,439.77,143.18z M460.09,134.53l-1.79-0.13c-1.71,0-2.8,0.54-3.29,1.61
	v11.04h-5.43v-17.43h5.09l0.18,2.24c0.91-1.71,2.19-2.56,3.82-2.56c0.58,0,1.08,0.06,1.52,0.19L460.09,134.53z M470.18,147.37
	c-2.67,0-4.84-0.8-6.49-2.39c-1.66-1.6-2.48-3.67-2.48-6.23v-0.45c0-1.78,0.33-3.36,0.99-4.72c0.66-1.36,1.62-2.42,2.89-3.17
	c1.27-0.75,2.77-1.12,4.51-1.12c2.45,0,4.38,0.76,5.8,2.28c1.42,1.52,2.13,3.64,2.13,6.36v2.11h-10.8c0.19,0.98,0.62,1.75,1.27,2.3
	c0.65,0.56,1.5,0.84,2.54,0.84c1.72,0,3.06-0.6,4.03-1.8l2.48,2.93c-0.68,0.93-1.63,1.68-2.88,2.23
	C472.94,147.09,471.61,147.37,470.18,147.37z M469.56,133.48c-1.59,0-2.54,1.05-2.84,3.16h5.48v-0.42c0.02-0.87-0.2-1.54-0.66-2.02
	C471.08,133.72,470.42,133.48,469.56,133.48z M479.02,138.2c0-2.76,0.6-4.94,1.79-6.53c1.19-1.59,2.86-2.38,4.99-2.38
	c1.56,0,2.87,0.61,3.93,1.84v-8.83h5.45v24.75h-4.88l-0.27-1.87c-1.12,1.46-2.54,2.19-4.25,2.19c-2.07,0-3.72-0.79-4.93-2.38
	S479.02,141.13,479.02,138.2z M484.45,138.54c0,3.09,0.9,4.64,2.71,4.64c1.2,0,2.06-0.5,2.58-1.51v-6.64
	c-0.49-1.03-1.34-1.55-2.54-1.55c-1.68,0-2.58,1.35-2.72,4.06L484.45,138.54z M498.23,125.12c0-0.77,0.28-1.41,0.84-1.9
	c0.56-0.49,1.28-0.74,2.18-0.74c0.89,0,1.62,0.25,2.17,0.74c0.56,0.5,0.84,1.13,0.84,1.9s-0.28,1.41-0.84,1.9
	c-0.56,0.5-1.28,0.74-2.17,0.74c-0.89,0-1.62-0.25-2.18-0.74C498.51,126.53,498.23,125.89,498.23,125.12z M504,147.05h-5.45v-17.43
	H504V147.05z M513.67,125.28v4.33h2.87v3.77h-2.87v7.98c0,0.66,0.12,1.11,0.35,1.37s0.7,0.39,1.4,0.39c0.54,0,0.99-0.03,1.35-0.1
	v3.88c-0.98,0.31-2,0.47-3.06,0.47c-1.87,0-3.25-0.44-4.14-1.32s-1.34-2.22-1.34-4.01v-8.65h-2.22v-3.77h2.22v-4.33H513.67z
	 M536.01,142.15c0-0.46-0.24-0.83-0.72-1.11s-1.4-0.57-2.76-0.87c-1.35-0.3-2.47-0.7-3.35-1.18c-0.88-0.49-1.55-1.08-2.01-1.78
	c-0.46-0.7-0.69-1.5-0.69-2.4c0-1.6,0.66-2.92,1.98-3.96c1.32-1.04,3.05-1.55,5.19-1.55c2.3,0,4.15,0.52,5.54,1.56
	s2.09,2.41,2.09,4.11h-5.45c0-1.4-0.74-2.09-2.21-2.09c-0.57,0-1.05,0.16-1.43,0.48c-0.39,0.32-0.58,0.71-0.58,1.18
	c0,0.48,0.24,0.88,0.71,1.18s1.23,0.55,2.26,0.74c1.04,0.19,1.95,0.42,2.73,0.69c2.62,0.9,3.93,2.52,3.93,4.85
	c0,1.59-0.71,2.88-2.12,3.88c-1.41,1-3.24,1.5-5.49,1.5c-1.49,0-2.83-0.27-4-0.81s-2.08-1.27-2.74-2.19s-0.98-1.9-0.98-2.92H531
	c0.02,0.81,0.29,1.39,0.81,1.76c0.52,0.37,1.18,0.56,1.98,0.56c0.74,0,1.3-0.15,1.67-0.45
	C535.83,143.03,536.01,142.63,536.01,142.15z M551.16,143.18c0.76,0,1.35-0.21,1.77-0.62c0.42-0.41,0.62-0.99,0.61-1.73h5.09
	c0,1.91-0.68,3.48-2.05,4.71c-1.37,1.22-3.13,1.84-5.29,1.84c-2.54,0-4.53-0.79-5.99-2.38s-2.19-3.79-2.19-6.61v-0.23
	c0-1.76,0.33-3.32,0.97-4.67c0.65-1.35,1.59-2.38,2.81-3.11c1.22-0.73,2.67-1.09,4.35-1.09c2.27,0,4.07,0.63,5.4,1.89
	c1.33,1.26,2,2.96,2,5.11h-5.09c0-0.9-0.22-1.6-0.66-2.08c-0.44-0.48-1.03-0.73-1.77-0.73c-1.41,0-2.23,0.9-2.46,2.69
	c-0.08,0.57-0.11,1.35-0.11,2.35c0,1.75,0.21,2.96,0.63,3.64C549.58,142.84,550.25,143.18,551.16,143.18z M560.25,138.17
	c0-1.74,0.34-3.29,1.02-4.65c0.68-1.36,1.65-2.4,2.92-3.13s2.76-1.1,4.46-1.1c2.61,0,4.67,0.81,6.17,2.42
	c1.5,1.62,2.26,3.82,2.26,6.6v0.19c0,2.72-0.75,4.87-2.26,6.47c-1.51,1.59-3.55,2.39-6.13,2.39c-2.48,0-4.47-0.74-5.98-2.23
	c-1.5-1.49-2.32-3.5-2.43-6.05L560.25,138.17z M565.68,138.51c0,1.61,0.25,2.79,0.76,3.54s1.25,1.13,2.24,1.13
	c1.93,0,2.92-1.49,2.96-4.46v-0.55c0-3.12-1-4.69-3-4.69c-1.82,0-2.8,1.35-2.95,4.04L565.68,138.51z M590.01,134.53l-1.79-0.13
	c-1.71,0-2.8,0.54-3.29,1.61v11.04h-5.43v-17.43h5.09l0.18,2.24c0.91-1.71,2.19-2.56,3.82-2.56c0.58,0,1.08,0.06,1.52,0.19
	L590.01,134.53z M600.1,147.37c-2.67,0-4.84-0.8-6.49-2.39c-1.66-1.6-2.48-3.67-2.48-6.23v-0.45c0-1.78,0.33-3.36,0.99-4.72
	c0.66-1.36,1.62-2.42,2.89-3.17c1.27-0.75,2.77-1.12,4.51-1.12c2.45,0,4.38,0.76,5.8,2.28c1.42,1.52,2.13,3.64,2.13,6.36v2.11h-10.8
	c0.19,0.98,0.62,1.75,1.27,2.3c0.65,0.56,1.5,0.84,2.54,0.84c1.72,0,3.06-0.6,4.03-1.8l2.48,2.93c-0.68,0.93-1.63,1.68-2.88,2.23
	C602.86,147.09,601.53,147.37,600.1,147.37z M599.49,133.48c-1.59,0-2.54,1.05-2.84,3.16h5.48v-0.42c0.02-0.87-0.2-1.54-0.66-2.02
	C601,133.72,600.34,133.48,599.49,133.48z M618.76,142.15c0-0.46-0.24-0.83-0.72-1.11s-1.4-0.57-2.76-0.87
	c-1.35-0.3-2.47-0.7-3.35-1.18c-0.88-0.49-1.55-1.08-2.01-1.78c-0.46-0.7-0.69-1.5-0.69-2.4c0-1.6,0.66-2.92,1.98-3.96
	c1.32-1.04,3.05-1.55,5.19-1.55c2.3,0,4.15,0.52,5.54,1.56s2.09,2.41,2.09,4.11h-5.45c0-1.4-0.74-2.09-2.21-2.09
	c-0.57,0-1.05,0.16-1.43,0.48c-0.39,0.32-0.58,0.71-0.58,1.18c0,0.48,0.24,0.88,0.71,1.18s1.23,0.55,2.26,0.74
	c1.04,0.19,1.95,0.42,2.73,0.69c2.62,0.9,3.93,2.52,3.93,4.85c0,1.59-0.71,2.88-2.12,3.88c-1.41,1-3.24,1.5-5.49,1.5
	c-1.49,0-2.83-0.27-4-0.81s-2.08-1.27-2.74-2.19s-0.98-1.9-0.98-2.92h5.08c0.02,0.81,0.29,1.39,0.81,1.76
	c0.52,0.37,1.18,0.56,1.98,0.56c0.74,0,1.3-0.15,1.67-0.45C618.57,143.03,618.76,142.63,618.76,142.15z M628.44,153.36l-2.74-1.29
	l0.55-1.1c0.75-1.4,1.14-2.73,1.18-4v-4.03h4.35l-0.02,3.5c-0.01,1.23-0.33,2.49-0.95,3.77S629.4,152.55,628.44,153.36z
	 M177.88,174.13l-1.79-0.13c-1.71,0-2.8,0.54-3.29,1.61v11.04h-5.43v-17.43h5.09l0.18,2.24c0.91-1.71,2.19-2.56,3.82-2.56
	c0.58,0,1.08,0.06,1.52,0.19L177.88,174.13z M187.97,186.97c-2.67,0-4.84-0.8-6.49-2.39c-1.66-1.6-2.48-3.67-2.48-6.23v-0.45
	c0-1.78,0.33-3.36,0.99-4.72c0.66-1.36,1.62-2.42,2.89-3.17c1.27-0.75,2.77-1.12,4.51-1.12c2.45,0,4.38,0.76,5.8,2.28
	c1.42,1.52,2.13,3.64,2.13,6.36v2.11h-10.8c0.19,0.98,0.62,1.75,1.27,2.3c0.65,0.56,1.5,0.84,2.54,0.84c1.72,0,3.06-0.6,4.03-1.8
	l2.48,2.93c-0.68,0.93-1.63,1.68-2.88,2.23C190.73,186.69,189.4,186.97,187.97,186.97z M187.36,173.08c-1.59,0-2.54,1.05-2.84,3.16
	H190v-0.42c0.02-0.87-0.2-1.54-0.66-2.02C188.88,173.32,188.21,173.08,187.36,173.08z M198.7,186.65v-13.66h-2.53v-3.77h2.53v-1.39
	c0-1.99,0.59-3.53,1.76-4.62s2.81-1.64,4.93-1.64c0.77,0,1.62,0.11,2.55,0.34l0.02,4c-0.33-0.1-0.78-0.14-1.34-0.14
	c-1.64,0-2.46,0.71-2.46,2.13v1.34h3.4v3.77h-3.4v13.66H198.7z M220,174.13l-1.79-0.13c-1.71,0-2.8,0.54-3.29,1.61v11.04h-5.43
	v-17.43h5.09l0.18,2.24c0.91-1.71,2.19-2.56,3.82-2.56c0.58,0,1.08,0.06,1.52,0.19L220,174.13z M230.09,186.97
	c-2.67,0-4.84-0.8-6.49-2.39c-1.66-1.6-2.48-3.67-2.48-6.23v-0.45c0-1.78,0.33-3.36,0.99-4.72c0.66-1.36,1.62-2.42,2.89-3.17
	c1.27-0.75,2.77-1.12,4.51-1.12c2.45,0,4.38,0.76,5.8,2.28c1.42,1.52,2.13,3.64,2.13,6.36v2.11h-10.8c0.19,0.98,0.62,1.75,1.27,2.3
	c0.65,0.56,1.5,0.84,2.54,0.84c1.72,0,3.06-0.6,4.03-1.8l2.48,2.93c-0.68,0.93-1.63,1.68-2.88,2.23
	C232.85,186.69,231.52,186.97,230.09,186.97z M229.48,173.08c-1.59,0-2.54,1.05-2.84,3.16h5.48v-0.42c0.02-0.87-0.2-1.54-0.66-2.02
	C231,173.32,230.34,173.08,229.48,173.08z M248.75,181.75c0-0.46-0.24-0.83-0.72-1.11s-1.4-0.57-2.76-0.87
	c-1.35-0.3-2.47-0.7-3.35-1.18c-0.88-0.49-1.55-1.08-2.01-1.78c-0.46-0.7-0.69-1.5-0.69-2.4c0-1.6,0.66-2.92,1.98-3.96
	c1.32-1.04,3.05-1.55,5.19-1.55c2.3,0,4.15,0.52,5.54,1.56s2.09,2.41,2.09,4.11h-5.45c0-1.4-0.74-2.09-2.21-2.09
	c-0.57,0-1.05,0.16-1.43,0.48c-0.39,0.32-0.58,0.71-0.58,1.18c0,0.48,0.24,0.88,0.71,1.18s1.23,0.55,2.26,0.74
	c1.04,0.19,1.95,0.42,2.73,0.69c2.62,0.9,3.93,2.52,3.93,4.85c0,1.59-0.71,2.88-2.12,3.88c-1.41,1-3.24,1.5-5.49,1.5
	c-1.49,0-2.83-0.27-4-0.81s-2.08-1.27-2.74-2.19s-0.98-1.9-0.98-2.92h5.08c0.02,0.81,0.29,1.39,0.81,1.76
	c0.52,0.37,1.18,0.56,1.98,0.56c0.74,0,1.3-0.15,1.67-0.45C248.56,182.62,248.75,182.23,248.75,181.75z M261.83,171.08
	c1.16-1.46,2.64-2.19,4.45-2.19c1.92,0,3.37,0.57,4.35,1.71s1.48,2.82,1.5,5.04v11.01h-5.45v-10.88c0-0.92-0.19-1.6-0.56-2.04
	c-0.38-0.43-1.01-0.65-1.92-0.65c-1.12,0-1.91,0.35-2.37,1.06v12.5h-5.43V161.9h5.43V171.08z M283.58,186.97
	c-2.67,0-4.84-0.8-6.49-2.39c-1.66-1.6-2.48-3.67-2.48-6.23v-0.45c0-1.78,0.33-3.36,0.99-4.72c0.66-1.36,1.62-2.42,2.89-3.17
	c1.27-0.75,2.77-1.12,4.51-1.12c2.45,0,4.38,0.76,5.8,2.28c1.42,1.52,2.13,3.64,2.13,6.36v2.11h-10.8c0.19,0.98,0.62,1.75,1.27,2.3
	c0.65,0.56,1.5,0.84,2.54,0.84c1.72,0,3.06-0.6,4.03-1.8l2.48,2.93c-0.68,0.93-1.63,1.68-2.88,2.23
	C286.35,186.69,285.01,186.97,283.58,186.97z M282.97,173.08c-1.59,0-2.54,1.05-2.84,3.16h5.48v-0.42c0.02-0.87-0.2-1.54-0.66-2.02
	C284.49,173.32,283.83,173.08,282.97,173.08z M292.43,177.8c0-2.76,0.6-4.94,1.79-6.53c1.19-1.59,2.86-2.38,4.99-2.38
	c1.56,0,2.87,0.61,3.93,1.84v-8.83h5.45v24.75h-4.88l-0.27-1.87c-1.12,1.46-2.54,2.19-4.25,2.19c-2.07,0-3.72-0.79-4.93-2.38
	S292.43,180.73,292.43,177.8z M297.86,178.14c0,3.09,0.9,4.64,2.71,4.64c1.2,0,2.06-0.5,2.58-1.51v-6.64
	c-0.49-1.03-1.34-1.55-2.54-1.55c-1.68,0-2.58,1.35-2.72,4.06L297.86,178.14z M323.38,174.29c-0.63-0.9-1.13-1.76-1.49-2.58
	c-0.36-0.82-0.54-1.66-0.54-2.53c0-1.89,0.61-3.42,1.84-4.58c1.22-1.17,2.82-1.75,4.8-1.75c1.77,0,3.24,0.54,4.4,1.62
	c1.16,1.08,1.74,2.42,1.74,4.02c0,2-1.1,3.77-3.3,5.32l-1.22,0.85l3.61,4.14c0.59-1.18,0.89-2.48,0.89-3.88h4.56
	c0,3.17-0.73,5.71-2.19,7.62l3.58,4.11h-6.06l-1.1-1.24c-0.9,0.54-1.82,0.93-2.76,1.19c-0.94,0.26-2,0.39-3.18,0.39
	c-2.32,0-4.18-0.61-5.58-1.83c-1.4-1.22-2.09-2.82-2.09-4.81c0-1.08,0.28-2.07,0.83-2.95c0.55-0.88,1.63-1.91,3.23-3.08
	L323.38,174.29z M327.3,182.8c0.95,0,1.85-0.22,2.71-0.66l-4.22-4.8l-0.14,0.1c-0.61,0.75-0.92,1.6-0.92,2.55
	c0,0.78,0.25,1.45,0.74,2S326.57,182.8,327.3,182.8z M326.04,169.12c0,0.75,0.41,1.67,1.22,2.74l1.08-0.68
	c0.49-0.32,0.85-0.66,1.08-1s0.34-0.78,0.34-1.31c0-0.49-0.17-0.92-0.52-1.29c-0.34-0.36-0.77-0.55-1.27-0.55
	c-0.6,0-1.07,0.19-1.42,0.57C326.21,167.99,326.04,168.49,326.04,169.12z M356.67,164.88v4.33h2.87v3.77h-2.87v7.98
	c0,0.66,0.12,1.11,0.35,1.37s0.7,0.39,1.4,0.39c0.54,0,0.99-0.03,1.35-0.1v3.88c-0.98,0.31-2,0.47-3.06,0.47
	c-1.87,0-3.25-0.44-4.14-1.32s-1.34-2.22-1.34-4.01v-8.65h-2.22v-3.77h2.22v-4.33H356.67z M372.22,174.13l-1.79-0.13
	c-1.71,0-2.8,0.54-3.29,1.61v11.04h-5.43v-17.43h5.09l0.18,2.24c0.91-1.71,2.19-2.56,3.82-2.56c0.58,0,1.08,0.06,1.52,0.19
	L372.22,174.13z M383.52,186.65c-0.19-0.35-0.37-0.88-0.52-1.56c-1,1.26-2.4,1.88-4.19,1.88c-1.64,0-3.04-0.5-4.19-1.49
	c-1.15-0.99-1.72-2.24-1.72-3.75c0-1.89,0.7-3.32,2.1-4.29c1.4-0.97,3.43-1.45,6.09-1.45h1.68v-0.92c0-1.61-0.69-2.41-2.08-2.41
	c-1.29,0-1.93,0.64-1.93,1.91h-5.43c0-1.68,0.72-3.05,2.15-4.1c1.43-1.05,3.26-1.58,5.49-1.58c2.22,0,3.98,0.54,5.27,1.63
	s1.95,2.57,1.98,4.46v7.72c0.02,1.6,0.27,2.83,0.74,3.67v0.27H383.52z M380.12,183.1c0.68,0,1.24-0.14,1.68-0.44
	c0.45-0.29,0.76-0.62,0.96-0.98v-2.79h-1.58c-1.89,0-2.84,0.85-2.84,2.54c0,0.5,0.17,0.89,0.5,1.2
	C379.18,182.95,379.6,183.1,380.12,183.1z M398.58,182.78c0.76,0,1.35-0.21,1.77-0.62c0.42-0.41,0.62-0.99,0.61-1.73h5.09
	c0,1.91-0.68,3.48-2.05,4.71c-1.37,1.22-3.13,1.84-5.29,1.84c-2.54,0-4.53-0.79-5.99-2.38s-2.19-3.79-2.19-6.61v-0.23
	c0-1.76,0.33-3.32,0.97-4.67c0.65-1.35,1.59-2.38,2.81-3.11c1.22-0.73,2.67-1.09,4.35-1.09c2.27,0,4.07,0.63,5.4,1.89
	c1.33,1.26,2,2.96,2,5.11h-5.09c0-0.9-0.22-1.6-0.66-2.08c-0.44-0.48-1.03-0.73-1.77-0.73c-1.41,0-2.23,0.9-2.46,2.69
	c-0.08,0.57-0.11,1.35-0.11,2.35c0,1.75,0.21,2.96,0.63,3.64C397.01,182.44,397.67,182.78,398.58,182.78z M415.36,180.15l-1.53,1.53
	v4.96h-5.43v-24.77h5.43v13.15l0.55-0.73l4.09-5.09h6.51l-6.11,7.17l6.51,10.26h-6.22L415.36,180.15z M434.52,186.97
	c-2.67,0-4.84-0.8-6.49-2.39c-1.66-1.6-2.48-3.67-2.48-6.23v-0.45c0-1.78,0.33-3.36,0.99-4.72c0.66-1.36,1.62-2.42,2.89-3.17
	c1.27-0.75,2.77-1.12,4.51-1.12c2.45,0,4.38,0.76,5.8,2.28c1.42,1.52,2.13,3.64,2.13,6.36v2.11h-10.8c0.19,0.98,0.62,1.75,1.27,2.3
	c0.65,0.56,1.5,0.84,2.54,0.84c1.72,0,3.06-0.6,4.03-1.8l2.48,2.93c-0.68,0.93-1.63,1.68-2.88,2.23
	C437.28,186.69,435.95,186.97,434.52,186.97z M433.91,173.08c-1.59,0-2.54,1.05-2.84,3.16h5.48v-0.42c0.02-0.87-0.2-1.54-0.66-2.02
	C435.42,173.32,434.76,173.08,433.91,173.08z M443.36,177.8c0-2.76,0.6-4.94,1.79-6.53c1.19-1.59,2.86-2.38,4.99-2.38
	c1.56,0,2.87,0.61,3.93,1.84v-8.83h5.45v24.75h-4.88l-0.27-1.87c-1.12,1.46-2.54,2.19-4.25,2.19c-2.07,0-3.72-0.79-4.93-2.38
	S443.36,180.73,443.36,177.8z M448.79,178.14c0,3.09,0.9,4.64,2.71,4.64c1.2,0,2.06-0.5,2.58-1.51v-6.64
	c-0.49-1.03-1.34-1.55-2.54-1.55c-1.68,0-2.58,1.35-2.72,4.06L448.79,178.14z M475.96,169.21l0.18,2.05
	c1.24-1.58,2.89-2.37,4.98-2.37c2.2,0,3.69,0.88,4.46,2.63c1.18-1.75,2.89-2.63,5.12-2.63c3.53,0,5.35,2.14,5.45,6.41v11.34h-5.45
	v-11.01c0-0.89-0.15-1.54-0.45-1.95s-0.85-0.61-1.64-0.61c-1.07,0-1.88,0.48-2.4,1.43l0.02,0.22v11.91h-5.45v-10.97
	c0-0.91-0.14-1.57-0.44-1.98c-0.29-0.41-0.84-0.61-1.66-0.61c-1.04,0-1.84,0.48-2.38,1.43v12.13h-5.43v-17.43H475.96z
	 M498.57,177.77c0-1.74,0.34-3.29,1.02-4.65c0.68-1.36,1.65-2.4,2.92-3.13s2.76-1.1,4.46-1.1c2.61,0,4.67,0.81,6.17,2.42
	c1.5,1.62,2.26,3.82,2.26,6.6v0.19c0,2.72-0.75,4.87-2.26,6.47c-1.51,1.59-3.55,2.39-6.13,2.39c-2.48,0-4.47-0.74-5.98-2.23
	c-1.5-1.49-2.32-3.5-2.43-6.05L498.57,177.77z M504,178.11c0,1.61,0.25,2.79,0.76,3.54s1.25,1.13,2.24,1.13
	c1.93,0,2.92-1.49,2.96-4.46v-0.55c0-3.12-1-4.69-3-4.69c-1.82,0-2.8,1.35-2.95,4.04L504,178.11z M522.77,169.21l0.18,2.05
	c1.2-1.58,2.86-2.37,4.98-2.37c1.82,0,3.17,0.54,4.07,1.63c0.9,1.08,1.36,2.72,1.39,4.9v11.23h-5.45v-11.01
	c0-0.88-0.18-1.53-0.53-1.94c-0.35-0.41-1-0.62-1.93-0.62c-1.06,0-1.85,0.42-2.37,1.26v12.31h-5.43v-17.43H522.77z M542.72,164.88
	v4.33h2.87v3.77h-2.87v7.98c0,0.66,0.12,1.11,0.35,1.37s0.7,0.39,1.4,0.39c0.54,0,0.99-0.03,1.35-0.1v3.88
	c-0.98,0.31-2,0.47-3.06,0.47c-1.87,0-3.25-0.44-4.14-1.32s-1.34-2.22-1.34-4.01v-8.65h-2.22v-3.77h2.22v-4.33H542.72z
	 M553.03,171.08c1.16-1.46,2.64-2.19,4.45-2.19c1.92,0,3.37,0.57,4.35,1.71s1.48,2.82,1.5,5.04v11.01h-5.45v-10.88
	c0-0.92-0.19-1.6-0.56-2.04c-0.38-0.43-1.01-0.65-1.92-0.65c-1.12,0-1.91,0.35-2.37,1.06v12.5h-5.43V161.9h5.43V171.08z
	 M572.08,186.65h-5.45V161.9h5.45V186.65z M582.39,179.04l2.9-9.83h5.82L584,189.56l-0.31,0.74c-1.01,2.26-2.79,3.38-5.35,3.38
	c-0.71,0-1.46-0.11-2.24-0.32v-3.87h0.71c0.76,0,1.35-0.11,1.75-0.33c0.4-0.22,0.7-0.62,0.89-1.19l0.44-1.16l-6.06-17.61h5.8
	L582.39,179.04z"/>
</svg>
