<?xml version="1.0" encoding="utf-8"?>
<!-- Generator: Adobe Illustrator 24.2.3, SVG Export Plug-In . SVG Version: 6.00 Build 0)  -->
<svg version="1.1" id="Layer_1" xmlns="http://www.w3.org/2000/svg" xmlns:xlink="http://www.w3.org/1999/xlink" x="0px" y="0px"
	 viewBox="0 0 970 250" style="enable-background:new 0 0 970 250;" xml:space="preserve">
<style type="text/css">
	.st0{fill:#EDF4FD;}
	.st1{fill:#021D8B;}
</style>
<path class="st0" d="M917.22,116.21H743.43c-13.2,0-23.9-10.7-23.9-23.9V91.3c0-13.2,10.7-23.9,23.9-23.9h173.79
	c13.2,0,23.9,10.7,23.9,23.9v1.01C941.12,105.51,930.42,116.21,917.22,116.21z"/>
<g>
	<path class="st1" d="M757.34,95c-0.11,1.54-0.68,2.76-1.71,3.64s-2.38,1.33-4.06,1.33c-1.84,0-3.29-0.62-4.34-1.86
		c-1.05-1.24-1.58-2.94-1.58-5.1v-0.88c0-1.38,0.24-2.59,0.73-3.64c0.49-1.05,1.18-1.86,2.08-2.42c0.9-0.56,1.95-0.84,3.15-0.84
		c1.65,0,2.99,0.44,4,1.33c1.01,0.89,1.6,2.13,1.75,3.73h-2.96c-0.07-0.93-0.33-1.6-0.77-2.01c-0.44-0.42-1.12-0.62-2.02-0.62
		c-0.99,0-1.72,0.35-2.21,1.06s-0.74,1.8-0.75,3.29v1.08c0,1.55,0.24,2.68,0.7,3.4c0.47,0.72,1.21,1.07,2.22,1.07
		c0.91,0,1.59-0.21,2.04-0.63c0.45-0.42,0.71-1.06,0.77-1.93H757.34z"/>
	<path class="st1" d="M762.1,99.77h-2.86V84.64h2.86V99.77z"/>
	<path class="st1" d="M764.43,86.36c0-0.43,0.14-0.78,0.43-1.05c0.29-0.28,0.67-0.41,1.17-0.41c0.49,0,0.87,0.14,1.16,0.41
		c0.29,0.28,0.43,0.63,0.43,1.05c0,0.43-0.15,0.79-0.44,1.06c-0.29,0.28-0.68,0.41-1.16,0.41s-0.87-0.14-1.16-0.41
		C764.57,87.14,764.43,86.79,764.43,86.36z M767.45,99.77h-2.86V89.12h2.86V99.77z"/>
	<path class="st1" d="M774.23,97.67c0.53,0,0.95-0.14,1.28-0.43s0.5-0.67,0.51-1.15h2.67c-0.01,0.72-0.2,1.38-0.59,1.98
		c-0.39,0.6-0.92,1.07-1.59,1.4c-0.67,0.33-1.42,0.5-2.23,0.5c-1.52,0-2.72-0.48-3.6-1.45s-1.32-2.31-1.32-4.01v-0.19
		c0-1.64,0.44-2.95,1.31-3.93c0.87-0.98,2.07-1.47,3.59-1.47c1.33,0,2.4,0.38,3.21,1.14c0.8,0.76,1.21,1.77,1.23,3.03h-2.67
		c-0.01-0.55-0.18-1-0.51-1.35s-0.76-0.52-1.3-0.52c-0.66,0-1.16,0.24-1.5,0.72c-0.34,0.48-0.51,1.27-0.51,2.35v0.3
		c0,1.1,0.17,1.89,0.5,2.37C773.03,97.43,773.54,97.67,774.23,97.67z"/>
	<path class="st1" d="M784.18,95.5l-1.02,1.02v3.25h-2.85V84.64h2.85v8.38l0.55-0.71l2.73-3.2h3.42l-3.85,4.44l4.19,6.21h-3.27
		L784.18,95.5z"/>
	<path class="st1" d="M799.52,86.5v2.62h1.82v2.09h-1.82v5.32c0,0.39,0.08,0.68,0.23,0.85s0.44,0.26,0.87,0.26
		c0.31,0,0.59-0.02,0.84-0.07v2.16c-0.56,0.17-1.13,0.26-1.72,0.26c-2,0-3.01-1.01-3.05-3.02V91.2h-1.56v-2.09h1.56V86.5H799.52z"/>
	<path class="st1" d="M802.19,94.34c0-1.06,0.2-2,0.61-2.83c0.41-0.83,0.99-1.47,1.76-1.92s1.65-0.68,2.66-0.68
		c1.44,0,2.61,0.44,3.52,1.32s1.42,2.08,1.52,3.58l0.02,0.73c0,1.63-0.46,2.95-1.37,3.93c-0.91,0.99-2.14,1.48-3.67,1.48
		c-1.54,0-2.76-0.49-3.68-1.48c-0.92-0.99-1.37-2.32-1.37-4.02V94.34z M805.03,94.55c0,1.01,0.19,1.79,0.57,2.32
		c0.38,0.54,0.93,0.8,1.63,0.8c0.69,0,1.23-0.26,1.62-0.79c0.39-0.53,0.58-1.38,0.58-2.54c0-0.99-0.19-1.76-0.58-2.31
		c-0.39-0.55-0.93-0.82-1.63-0.82c-0.7,0-1.23,0.27-1.62,0.81C805.22,92.57,805.03,93.41,805.03,94.55z"/>
	<path class="st1" d="M822.06,99.77h-2.86V84.64h2.86V99.77z"/>
	<path class="st1" d="M829.31,99.97c-1.56,0-2.83-0.48-3.82-1.44c-0.98-0.96-1.47-2.24-1.47-3.83v-0.28c0-1.07,0.21-2.03,0.62-2.87
		c0.41-0.84,1-1.49,1.76-1.95c0.76-0.46,1.62-0.68,2.59-0.68c1.46,0,2.61,0.46,3.44,1.38s1.26,2.22,1.26,3.91v1.16h-6.79
		c0.09,0.7,0.37,1.25,0.83,1.67c0.46,0.42,1.05,0.63,1.76,0.63c1.1,0,1.95-0.4,2.57-1.19l1.4,1.57c-0.43,0.6-1,1.08-1.73,1.41
		C831.01,99.8,830.2,99.97,829.31,99.97z M828.99,91.21c-0.56,0-1.02,0.19-1.37,0.57c-0.35,0.38-0.58,0.93-0.67,1.64h3.96V93.2
		c-0.01-0.63-0.18-1.12-0.51-1.47C830.06,91.39,829.59,91.21,828.99,91.21z"/>
	<path class="st1" d="M841.49,99.77c-0.13-0.26-0.23-0.57-0.29-0.96c-0.69,0.77-1.59,1.15-2.69,1.15c-1.04,0-1.91-0.3-2.59-0.91
		c-0.69-0.6-1.03-1.37-1.03-2.29c0-1.13,0.42-2,1.26-2.6c0.84-0.6,2.05-0.91,3.63-0.92h1.31v-0.61c0-0.49-0.13-0.89-0.38-1.18
		s-0.65-0.44-1.2-0.44c-0.48,0-0.86,0.12-1.13,0.34c-0.27,0.23-0.41,0.54-0.41,0.95h-2.85c0-0.62,0.19-1.19,0.57-1.71
		c0.38-0.52,0.92-0.94,1.62-1.24c0.7-0.3,1.48-0.45,2.34-0.45c1.31,0,2.36,0.33,3.13,0.99c0.77,0.66,1.16,1.59,1.16,2.78v4.62
		c0.01,1.01,0.15,1.78,0.42,2.29v0.17H841.49z M839.13,97.79c0.42,0,0.81-0.09,1.16-0.28c0.35-0.19,0.62-0.44,0.79-0.75v-1.83h-1.06
		c-1.42,0-2.18,0.49-2.27,1.48l-0.01,0.17c0,0.35,0.12,0.65,0.37,0.88C838.36,97.68,838.7,97.79,839.13,97.79z"/>
	<path class="st1" d="M852.11,91.78c-0.39-0.05-0.73-0.08-1.02-0.08c-1.08,0-1.78,0.36-2.12,1.09v6.97h-2.85V89.12h2.69l0.08,1.27
		c0.57-0.98,1.36-1.47,2.37-1.47c0.32,0,0.61,0.04,0.89,0.13L852.11,91.78z"/>
	<path class="st1" d="M856.1,89.12l0.09,1.23c0.76-0.95,1.78-1.43,3.06-1.43c1.13,0,1.97,0.33,2.52,0.99
		c0.55,0.66,0.83,1.66,0.85,2.97v6.88h-2.85v-6.82c0-0.6-0.13-1.04-0.39-1.32c-0.26-0.27-0.7-0.41-1.31-0.41
		c-0.8,0-1.4,0.34-1.8,1.02v7.51h-2.85V89.12H856.1z"/>
	<path class="st1" d="M872.47,89.12l0.09,1.19c0.76-0.93,1.78-1.39,3.06-1.39c1.37,0,2.31,0.54,2.83,1.62
		c0.75-1.08,1.82-1.62,3.2-1.62c1.16,0,2.02,0.34,2.58,1.01c0.56,0.67,0.85,1.69,0.85,3.04v6.81h-2.86v-6.8
		c0-0.6-0.12-1.05-0.35-1.32c-0.24-0.28-0.65-0.42-1.25-0.42c-0.85,0-1.44,0.41-1.77,1.22l0.01,7.32h-2.85v-6.79
		c0-0.62-0.12-1.06-0.36-1.34c-0.24-0.28-0.66-0.41-1.24-0.41c-0.81,0-1.39,0.33-1.75,1v7.53h-2.85V89.12H872.47z"/>
	<path class="st1" d="M886.82,94.34c0-1.06,0.2-2,0.61-2.83c0.41-0.83,0.99-1.47,1.76-1.92s1.65-0.68,2.66-0.68
		c1.44,0,2.61,0.44,3.52,1.32s1.42,2.08,1.52,3.58l0.02,0.73c0,1.63-0.46,2.95-1.37,3.93c-0.91,0.99-2.14,1.48-3.67,1.48
		c-1.54,0-2.76-0.49-3.68-1.48c-0.92-0.99-1.37-2.32-1.37-4.02V94.34z M889.67,94.55c0,1.01,0.19,1.79,0.57,2.32
		c0.38,0.54,0.93,0.8,1.63,0.8c0.69,0,1.23-0.26,1.62-0.79c0.39-0.53,0.58-1.38,0.58-2.54c0-0.99-0.19-1.76-0.58-2.31
		c-0.39-0.55-0.93-0.82-1.63-0.82c-0.7,0-1.23,0.27-1.62,0.81C889.86,92.57,889.67,93.41,889.67,94.55z"/>
	<path class="st1" d="M904.66,91.78c-0.39-0.05-0.73-0.08-1.02-0.08c-1.08,0-1.78,0.36-2.12,1.09v6.97h-2.85V89.12h2.69l0.08,1.27
		c0.57-0.98,1.36-1.47,2.37-1.47c0.32,0,0.61,0.04,0.89,0.13L904.66,91.78z"/>
	<path class="st1" d="M910.93,99.97c-1.56,0-2.83-0.48-3.82-1.44c-0.98-0.96-1.47-2.24-1.47-3.83v-0.28c0-1.07,0.21-2.03,0.62-2.87
		c0.41-0.84,1-1.49,1.76-1.95c0.76-0.46,1.62-0.68,2.59-0.68c1.46,0,2.61,0.46,3.44,1.38s1.26,2.22,1.26,3.91v1.16h-6.79
		c0.09,0.7,0.37,1.25,0.83,1.67c0.46,0.42,1.05,0.63,1.76,0.63c1.1,0,1.95-0.4,2.57-1.19l1.4,1.57c-0.43,0.6-1,1.08-1.73,1.41
		C912.62,99.8,911.82,99.97,910.93,99.97z M910.61,91.21c-0.56,0-1.02,0.19-1.37,0.57c-0.35,0.38-0.58,0.93-0.67,1.64h3.96V93.2
		c-0.01-0.63-0.18-1.12-0.51-1.47C911.68,91.39,911.21,91.21,910.61,91.21z"/>
</g>
</svg>
