<svg id="Layer_1" xmlns="http://www.w3.org/2000/svg" viewBox="0 0 160 600"><style>.st0{fill:#021d8b}.st1{fill:#e82d8a}</style><path class="st0" d="M72.66 382.78l1.79-9.81h3.74l-3.32 15.64h-3.91l-2.09-8.92-2.05 8.92h-3.9l-3.33-15.64h3.75l1.79 9.81 2.15-9.81h3.2l2.18 9.81zM85.12 388.83c-1.78 0-3.23-.53-4.33-1.6s-1.65-2.45-1.65-4.15v-.3c0-1.19.22-2.24.66-3.15.44-.91 1.08-1.61 1.93-2.11.84-.5 1.85-.75 3.01-.75 1.63 0 2.92.51 3.87 1.52.95 1.01 1.42 2.43 1.42 4.24v1.41h-7.2c.13.65.41 1.16.85 1.54s1 .56 1.7.56c1.15 0 2.04-.4 2.69-1.2l1.65 1.96c-.45.62-1.09 1.12-1.92 1.49-.84.35-1.73.54-2.68.54zm-.41-9.26c-1.06 0-1.69.7-1.89 2.11h3.65v-.28c.01-.58-.13-1.03-.44-1.35-.3-.32-.74-.48-1.32-.48zM93.35 373.85l-.35 4.44h-2.22v-6.18h2.58v1.74zM98.54 388.61h-3.63v-16.5h3.63v16.5zM104.59 388.61h-3.63v-16.5h3.63v16.5zM23.19 403.39l.12 1.36c.82-1.05 1.93-1.58 3.32-1.58 1.47 0 2.46.58 2.98 1.75.79-1.17 1.93-1.75 3.42-1.75 2.36 0 3.57 1.43 3.63 4.28v7.56h-3.63v-7.34c0-.59-.1-1.03-.3-1.3-.2-.27-.57-.41-1.1-.41-.72 0-1.25.32-1.6.96l.01.15v7.94h-3.63v-7.32c0-.61-.1-1.05-.29-1.32-.19-.27-.56-.41-1.11-.41-.69 0-1.22.32-1.59.96v8.09H19.8v-11.62h3.39zM38.26 409.09c0-1.16.23-2.19.68-3.1s1.1-1.6 1.94-2.09c.84-.49 1.84-.73 2.98-.73 1.74 0 3.11.54 4.11 1.62s1.5 2.54 1.5 4.4v.13c0 1.81-.5 3.25-1.51 4.31-1.01 1.06-2.37 1.59-4.09 1.59-1.65 0-2.98-.5-3.99-1.49s-1.54-2.34-1.62-4.03v-.61zm3.62.23c0 1.07.17 1.86.5 2.36.34.5.83.75 1.49.75 1.29 0 1.95-.99 1.98-2.98v-.37c0-2.08-.67-3.13-2-3.13-1.21 0-1.87.9-1.97 2.7v.67zM54.4 403.39l.12 1.36c.8-1.05 1.91-1.58 3.32-1.58 1.21 0 2.11.36 2.71 1.08.6.72.91 1.81.93 3.27v7.49h-3.63v-7.34c0-.59-.12-1.02-.35-1.29s-.67-.41-1.29-.41c-.71 0-1.24.28-1.58.84v8.21H51V403.4h3.4zM63.46 400.39c0-.52.19-.94.56-1.27.37-.33.86-.49 1.45-.49s1.08.17 1.45.49c.37.33.56.75.56 1.27s-.19.94-.56 1.27c-.37.33-.86.49-1.45.49s-1.08-.16-1.45-.49c-.38-.33-.56-.75-.56-1.27zm3.84 14.62h-3.63v-11.62h3.63v11.62zM73.75 400.5v2.89h1.91v2.51h-1.91v5.32c0 .44.08.74.24.91s.47.26.93.26c.36 0 .66-.02.9-.06v2.59c-.65.21-1.33.31-2.04.31-1.25 0-2.17-.29-2.76-.88-.59-.59-.89-1.48-.89-2.67v-5.77h-1.48v-2.51h1.48v-2.89h3.62zM76.3 409.09c0-1.16.23-2.19.68-3.1s1.1-1.6 1.94-2.09c.84-.49 1.84-.73 2.98-.73 1.74 0 3.11.54 4.11 1.62s1.5 2.54 1.5 4.4v.13c0 1.81-.5 3.25-1.51 4.31-1.01 1.06-2.37 1.59-4.09 1.59-1.65 0-2.98-.5-3.99-1.49s-1.54-2.34-1.62-4.03v-.61zm3.62.23c0 1.07.17 1.86.5 2.36.34.5.83.75 1.49.75 1.29 0 1.95-.99 1.98-2.98v-.37c0-2.08-.67-3.13-2-3.13-1.21 0-1.87.9-1.97 2.7v.67zM96.14 406.66l-1.19-.09c-1.14 0-1.87.36-2.19 1.07V415h-3.62v-11.62h3.39l.12 1.49c.61-1.14 1.46-1.71 2.55-1.71.39 0 .72.04 1.01.13l-.07 3.37zM107.57 409.94l1.93-6.55h3.88l-4.74 13.57-.2.49c-.67 1.5-1.86 2.26-3.57 2.26-.47 0-.97-.07-1.49-.21v-2.58h.47c.51 0 .9-.07 1.17-.22.27-.15.47-.41.6-.79l.29-.77-4.04-11.74h3.87l1.83 6.54zM113.87 409.09c0-1.16.23-2.19.68-3.1s1.1-1.6 1.94-2.09c.84-.49 1.84-.73 2.98-.73 1.74 0 3.11.54 4.11 1.62s1.5 2.54 1.5 4.4v.13c0 1.81-.5 3.25-1.51 4.31-1.01 1.06-2.37 1.59-4.09 1.59-1.65 0-2.98-.5-3.99-1.49s-1.54-2.34-1.62-4.03v-.61zm3.62.23c0 1.07.17 1.86.5 2.36.34.5.83.75 1.49.75 1.29 0 1.95-.99 1.98-2.98v-.37c0-2.08-.67-3.13-2-3.13-1.21 0-1.87.9-1.97 2.7v.67zM133.6 413.75c-.77.98-1.8 1.47-3.1 1.47-1.27 0-2.24-.37-2.89-1.11-.66-.74-.98-1.81-.98-3.2v-7.53h3.62v7.55c0 1 .48 1.49 1.45 1.49.83 0 1.42-.3 1.77-.89v-8.15h3.64V415h-3.39l-.12-1.25zM146.12 406.66l-1.19-.09c-1.14 0-1.87.36-2.19 1.07V415h-3.62v-11.62h3.39l.12 1.49c.61-1.14 1.46-1.71 2.55-1.71.39 0 .72.04 1.01.13l-.07 3.37z"/><path class="st1" d="M27.77 435.7c0 1.91-.39 3.37-1.18 4.39s-1.9 1.54-3.33 1.54c-1.18 0-2.13-.47-2.86-1.41l-.15 1.19h-3.24v-16.5h3.62v5.81c.67-.77 1.54-1.15 2.61-1.15 1.45 0 2.56.52 3.35 1.56s1.18 2.5 1.18 4.38v.19zm-3.63-.24c0-1.12-.15-1.91-.45-2.39-.3-.48-.75-.71-1.37-.71-.82 0-1.38.31-1.7.93v4.61c.31.62.88.92 1.72.92.85 0 1.39-.42 1.62-1.24.12-.4.18-1.11.18-2.12zM35.91 441.41c-.13-.24-.24-.58-.34-1.04-.67.84-1.6 1.26-2.79 1.26-1.1 0-2.03-.33-2.79-.99-.77-.66-1.15-1.49-1.15-2.5 0-1.26.47-2.21 1.4-2.86s2.28-.97 4.06-.97h1.12v-.62c0-1.07-.46-1.61-1.39-1.61-.86 0-1.29.42-1.29 1.27h-3.62c0-1.12.48-2.04 1.43-2.74.96-.7 2.17-1.05 3.66-1.05s2.65.36 3.51 1.08 1.3 1.71 1.32 2.98v5.15c.01 1.07.18 1.88.49 2.45v.18h-3.62zm-2.26-2.36c.45 0 .83-.1 1.12-.29.3-.19.51-.41.64-.66v-1.86h-1.05c-1.26 0-1.89.57-1.89 1.7 0 .33.11.6.33.8s.5.31.85.31zM44.37 429.79l.12 1.36c.8-1.05 1.91-1.58 3.32-1.58 1.21 0 2.11.36 2.71 1.08.6.72.91 1.81.93 3.27v7.49h-3.63v-7.34c0-.59-.12-1.02-.35-1.29-.24-.28-.67-.41-1.29-.41-.71 0-1.24.28-1.58.84v8.21h-3.62V429.8h3.39zM58.12 437.08l-1.02 1.02v3.31h-3.62V424.9h3.62v8.77l.37-.48 2.73-3.39h4.34l-4.07 4.78 4.34 6.84h-4.15l-2.54-4.34zM77.51 441.41c-.13-.24-.24-.58-.34-1.04-.67.84-1.6 1.26-2.79 1.26-1.1 0-2.03-.33-2.79-.99-.77-.66-1.15-1.49-1.15-2.5 0-1.26.47-2.21 1.4-2.86s2.28-.97 4.06-.97H77v-.62c0-1.07-.46-1.61-1.39-1.61-.86 0-1.29.42-1.29 1.27H70.7c0-1.12.48-2.04 1.43-2.74.96-.7 2.17-1.05 3.66-1.05s2.65.36 3.51 1.08 1.3 1.71 1.32 2.98v5.15c.01 1.07.18 1.88.49 2.45v.18h-3.6zm-2.27-2.36c.45 0 .83-.1 1.12-.29.3-.19.51-.41.64-.66v-1.86h-1.05c-1.26 0-1.89.57-1.89 1.7 0 .33.11.6.33.8s.51.31.85.31zM87.55 438.83c.51 0 .9-.14 1.18-.41.28-.28.42-.66.41-1.15h3.39c0 1.27-.46 2.32-1.37 3.14-.91.82-2.09 1.22-3.53 1.22-1.69 0-3.02-.53-4-1.59s-1.46-2.53-1.46-4.4v-.15c0-1.17.22-2.21.65-3.11.43-.9 1.06-1.59 1.87-2.07s1.78-.72 2.9-.72c1.51 0 2.71.42 3.6 1.26s1.33 1.97 1.33 3.41h-3.39c0-.6-.15-1.06-.44-1.39s-.69-.48-1.18-.48c-.94 0-1.49.6-1.64 1.79-.05.38-.08.9-.08 1.57 0 1.17.14 1.98.42 2.43s.73.65 1.34.65zM98.98 438.83c.51 0 .9-.14 1.18-.41.28-.28.42-.66.41-1.15h3.39c0 1.27-.46 2.32-1.37 3.14-.91.82-2.09 1.22-3.53 1.22-1.69 0-3.02-.53-4-1.59s-1.46-2.53-1.46-4.4v-.15c0-1.17.22-2.21.65-3.11.43-.9 1.06-1.59 1.87-2.07s1.78-.72 2.9-.72c1.51 0 2.71.42 3.6 1.26s1.33 1.97 1.33 3.41h-3.39c0-.6-.15-1.06-.44-1.39s-.69-.48-1.18-.48c-.94 0-1.49.6-1.64 1.79-.05.38-.08.9-.08 1.57 0 1.17.14 1.98.42 2.43s.73.65 1.34.65zM105.04 435.49c0-1.16.23-2.19.68-3.1.45-.91 1.1-1.6 1.94-2.09s1.84-.73 2.98-.73c1.74 0 3.11.54 4.11 1.62 1 1.08 1.5 2.54 1.5 4.4v.13c0 1.81-.5 3.25-1.51 4.31-1.01 1.06-2.37 1.6-4.09 1.6-1.65 0-2.98-.5-3.99-1.49-1-.99-1.54-2.34-1.62-4.03v-.62zm3.62.23c0 1.07.17 1.86.5 2.36s.83.75 1.49.75c1.29 0 1.95-.99 1.98-2.98v-.37c0-2.08-.67-3.13-2-3.13-1.21 0-1.87.9-1.97 2.7v.67zM124.77 440.15c-.77.98-1.8 1.47-3.1 1.47-1.27 0-2.24-.37-2.89-1.11-.66-.74-.98-1.81-.98-3.2v-7.53h3.62v7.55c0 1 .48 1.49 1.45 1.49.83 0 1.42-.3 1.77-.89v-8.15h3.64v11.62h-3.39l-.12-1.25zM133.58 429.79l.12 1.36c.8-1.05 1.91-1.58 3.32-1.58 1.21 0 2.11.36 2.71 1.08.6.72.91 1.81.93 3.27v7.49h-3.63v-7.34c0-.59-.12-1.02-.35-1.29-.24-.28-.67-.41-1.29-.41-.71 0-1.24.28-1.58.84v8.21h-3.62V429.8h3.39zM146.88 426.9v2.89h1.91v2.51h-1.91v5.32c0 .44.08.74.24.91s.47.26.93.26c.36 0 .66-.02.9-.06v2.59c-.65.21-1.33.31-2.04.31-1.25 0-2.17-.29-2.76-.88s-.89-1.48-.89-2.67v-5.77h-1.48v-2.51h1.48v-2.89h3.62z"/></svg>