<svg id="Layer_1" xmlns="http://www.w3.org/2000/svg" viewBox="0 0 320 100"><style>.st0{fill:#fff}.st1{fill:#021d8b}.st2{fill:#edf4fd}</style><g id="PG_x5F_Logo_x5F_W_2_"><path class="st0" d="M101.35 81.41c0-.12.04-.22.12-.3.08-.08.18-.12.31-.12.11 0 .21.04.3.12.09.08.13.18.13.3v4.75c0 .12-.04.22-.12.31-.08.08-.18.12-.31.12-.11 0-.21-.04-.3-.12a.387.387 0 0 1-.13-.31v-4.75zM77.39 88.89c-.35.26-.76.39-1.23.39a3.48 3.48 0 0 1-.62-.1c-.15-.04-.29-.11-.42-.2a.413.413 0 0 1-.19-.36c0-.13.04-.23.12-.31.08-.08.18-.12.3-.12.1 0 .18.03.26.08.19.1.39.16.59.16.16 0 .32-.03.45-.09.14-.06.26-.14.37-.24.11-.1.19-.22.25-.35.06-.13.09-.28.1-.44V84.1a.407.407 0 0 1 .42-.42c.11 0 .21.04.3.12.09.08.13.18.13.3v3.24c.02.62-.29 1.17-.83 1.55zM58.16 79.48a.407.407 0 0 1 .42-.42c.11 0 .21.04.3.12.09.08.13.18.13.3v.33a.407.407 0 0 1-.42.42c-.11 0-.21-.04-.3-.12a.38.38 0 0 1-.13-.3v-.33zm0 1.97a.407.407 0 0 1 .42-.42c.11 0 .21.04.3.12.09.08.13.18.13.3v4.71a.407.407 0 0 1-.42.42c-.11 0-.21-.04-.3-.12a.38.38 0 0 1-.13-.3v-4.71zM54.44 81.56a.407.407 0 0 1 .42-.42c.09 0 .18.03.26.09.08.06.13.14.15.25.34-.26.75-.38 1.21-.38.26.02.46.05.61.1.15.04.29.11.41.19s.19.2.19.36a.407.407 0 0 1-.42.42c-.1 0-.18-.03-.25-.08-.18-.1-.38-.15-.58-.15-.16 0-.31.03-.44.09-.14.06-.26.14-.36.24-.11.1-.19.21-.25.35-.06.13-.09.27-.1.43v3.14a.407.407 0 0 1-.42.42.4.4 0 0 1-.29-.12.416.416 0 0 1-.13-.3v-4.63zM59.59 81.61a.467.467 0 0 1-.03-.17c0-.1.04-.2.11-.29.07-.09.18-.13.3-.13.08 0 .16.02.23.07.07.04.13.11.16.19l1.66 3.87 1.66-3.87a.4.4 0 0 1 .39-.26c.13 0 .23.04.3.13.07.09.11.19.11.29 0 .06-.01.12-.03.17l-2.04 4.77c-.08.17-.21.26-.39.26-.19 0-.33-.09-.39-.26l-2.04-4.77zM64.63 83c0-.28.05-.54.16-.79.1-.25.25-.46.44-.64s.4-.33.64-.43c.24-.1.51-.16.79-.16s.54.05.78.16c.25.1.46.25.64.43s.33.4.44.64c.11.25.16.51.16.79v3.16c0 .12-.04.22-.13.3-.09.08-.19.12-.3.12-.1 0-.2-.03-.27-.1a.334.334 0 0 1-.14-.24c-.34.25-.74.38-1.19.38-.28 0-.54-.05-.79-.16-.25-.1-.46-.25-.64-.43s-.33-.4-.44-.64c-.11-.25-.16-.51-.16-.78V83zm.85 1.61c0 .16.03.31.1.45.06.14.15.27.25.38.1.11.23.19.38.25s.3.09.45.09c.16 0 .31-.03.45-.08.14-.06.27-.13.37-.24.1-.1.19-.22.25-.35.06-.13.1-.28.11-.44V83c0-.16-.03-.31-.1-.45-.06-.14-.15-.27-.25-.38-.1-.11-.23-.19-.38-.25a1.204 1.204 0 0 0-.91 0c-.14.06-.27.14-.38.25-.11.11-.19.23-.25.38-.06.14-.09.29-.09.45v1.61zM69.47 83c0-.28.05-.55.16-.8s.26-.46.45-.64.41-.32.66-.43c.25-.1.52-.16.8-.16.05 0 .16.01.31.03.15.02.32.07.51.15.19.08.37.21.56.38.18.17.33.4.45.7.02.06.03.11.03.16a.407.407 0 0 1-.42.42.399.399 0 0 1-.39-.27c-.1-.22-.25-.4-.45-.53-.19-.13-.41-.19-.64-.19a1.18 1.18 0 0 0-.84.34c-.11.11-.19.23-.25.38-.06.14-.09.29-.09.45v1.61c0 .16.03.31.1.45.06.14.15.27.25.38.1.11.23.19.38.25s.3.09.45.09c.24 0 .46-.06.65-.19s.34-.3.44-.53c.04-.08.09-.15.16-.2.07-.05.15-.07.24-.07.12 0 .22.04.3.13a.441.441 0 0 1 .09.46c-.15.33-.33.58-.54.75-.21.17-.41.3-.61.37s-.37.12-.5.12c-.14.01-.21.01-.22.01-.28 0-.54-.05-.79-.16-.25-.1-.46-.25-.64-.43s-.33-.4-.44-.64c-.11-.25-.16-.51-.16-.78V83zM84.92 81.45a.407.407 0 0 1 .42-.42c.11 0 .21.04.3.12.09.08.13.18.13.3v3.16a1.195 1.195 0 0 0 .34.83c.11.11.23.19.38.25.14.06.3.09.46.09.16 0 .31-.03.45-.09.15-.06.27-.14.38-.25.1-.11.19-.23.25-.38.06-.14.1-.29.1-.45v-3.16a.407.407 0 0 1 .42-.42c.11 0 .21.04.3.12.09.08.13.18.13.3v3.16c0 .28-.05.54-.16.78-.11.25-.25.46-.44.64-.18.18-.4.33-.64.43-.25.1-.51.16-.79.16s-.55-.05-.79-.16c-.24-.1-.46-.25-.64-.43-.19-.18-.33-.4-.44-.64-.1-.25-.16-.51-.16-.78v-3.16zM89.78 83c0-.28.05-.54.16-.79.1-.25.25-.46.44-.64s.4-.33.64-.43c.24-.1.51-.16.79-.16s.54.05.78.16c.25.1.46.25.64.43s.33.4.44.64c.11.25.16.51.16.79v3.16c0 .12-.04.22-.13.3-.09.08-.19.12-.3.12-.1 0-.2-.03-.27-.1a.334.334 0 0 1-.14-.24c-.34.25-.74.38-1.19.38-.28 0-.54-.05-.79-.16-.25-.1-.46-.25-.64-.43s-.33-.4-.44-.64c-.11-.25-.16-.51-.16-.78V83zm.85 1.61c0 .16.03.31.1.45.06.14.15.27.25.38.1.11.23.19.38.25s.3.09.45.09c.16 0 .31-.03.45-.08.14-.06.27-.13.37-.24.1-.1.19-.22.25-.35.06-.13.1-.28.11-.44V83c0-.16-.03-.31-.1-.45-.06-.14-.15-.27-.25-.38-.1-.11-.23-.19-.38-.25a1.204 1.204 0 0 0-.91 0c-.14.06-.27.14-.38.25-.11.11-.19.23-.25.38-.06.14-.09.29-.09.45v1.61zM94.67 81.56a.407.407 0 0 1 .42-.42c.09 0 .18.03.26.09.08.06.13.14.15.25.34-.26.75-.38 1.21-.38.26.02.46.05.61.1.15.04.29.11.41.19s.19.2.19.36a.407.407 0 0 1-.42.42c-.1 0-.18-.03-.25-.08-.18-.1-.38-.15-.58-.15-.16 0-.31.03-.44.09-.14.06-.26.14-.36.24-.11.1-.19.21-.25.35-.06.13-.09.27-.1.43v3.14a.407.407 0 0 1-.42.42.4.4 0 0 1-.29-.12.416.416 0 0 1-.13-.3v-4.63z"/><path class="st0" d="M101.35 79.48a.407.407 0 0 1 .42-.42c.11 0 .21.04.3.12.09.08.13.18.13.3v5.14c0 .28-.05.54-.16.78-.11.25-.25.46-.44.64-.18.18-.4.33-.64.43-.25.1-.51.16-.78.16-.28 0-.55-.05-.79-.16-.24-.1-.46-.25-.64-.43-.19-.18-.33-.4-.44-.64-.1-.25-.16-.51-.16-.78V83c0-.28.05-.54.16-.79s.25-.46.44-.64c.18-.18.4-.33.64-.43.25-.1.51-.16.79-.16.22 0 .42.03.62.1s.38.16.56.28v-1.88zM99 84.61a1.195 1.195 0 0 0 .34.83c.11.11.23.19.38.25.14.06.3.09.46.09.16 0 .31-.03.45-.09.15-.06.27-.14.38-.25.1-.11.19-.23.25-.38.06-.14.1-.29.1-.45V83a1.195 1.195 0 0 0-.34-.83c-.11-.11-.23-.19-.38-.25-.14-.06-.3-.09-.46-.09-.16 0-.31.03-.45.09-.15.06-.27.14-.38.25-.1.11-.19.23-.25.38-.07.14-.1.29-.1.45v1.61zM74.18 81.45a.407.407 0 0 1 .42-.42c.11 0 .21.04.3.12.09.08.13.18.13.3v3.16a1.195 1.195 0 0 0 .34.83c.11.11.23.19.38.25.14.06.3.09.46.09.16 0 .31-.03.45-.09.15-.06.27-.14.38-.25.1-.11.19-.23.25-.38.06-.14.1-.29.1-.45v-3.16a.407.407 0 0 1 .42-.42c.11 0 .21.04.3.12.09.08.13.18.13.3v3.16c0 .28-.05.54-.16.78-.11.25-.25.46-.44.64-.18.18-.4.33-.64.43-.25.1-.51.16-.79.16s-.55-.05-.79-.16c-.24-.1-.46-.25-.64-.43-.19-.18-.33-.4-.44-.64-.1-.25-.16-.51-.16-.78v-3.16zM83.73 82.83h-1.78c-.24 0-.43.18-.43.41 0 .24.19.43.43.43h1.42v.67c0 .91-.83 1.6-1.7 1.6-.97 0-1.78-.66-1.78-1.78V81.6c0-1.04.79-1.78 1.75-1.78.82 0 1.44.54 1.68 1.22.08.14.19.23.38.23.33 0 .54-.27.38-.65-.27-.82-1.11-1.67-2.45-1.67-1.53 0-2.63 1.21-2.63 2.6v2.66c0 1.4 1.11 2.61 2.63 2.61 1.38 0 2.54-1.08 2.54-2.31v-1.28c.01-.25-.2-.4-.44-.4z"/><path class="st0" d="M101.35 81.45a.407.407 0 0 1 .42-.42c.11 0 .21.04.3.12.09.08.13.18.13.3v4.71a.407.407 0 0 1-.42.42c-.11 0-.21-.04-.3-.12a.38.38 0 0 1-.13-.3v-4.71z"/><g><path class="st0" d="M49.05 79.76a.407.407 0 0 1 .42-.42h1.69c.36 0 .69.07 1.01.2.31.14.59.32.83.55.24.23.43.5.56.82.14.31.21.65.21 1.01s-.07.69-.21 1c-.14.31-.33.58-.56.82-.23.23-.51.42-.83.55-.32.14-.66.2-1.01.2h-1.27v1.67a.407.407 0 0 1-.42.42.4.4 0 0 1-.29-.12.416.416 0 0 1-.13-.3v-6.4zm.83.42v3.49h1.27c.25 0 .48-.05.7-.14a1.748 1.748 0 0 0 .94-.92 1.723 1.723 0 0 0 0-1.36 1.763 1.763 0 0 0-.94-.92c-.22-.09-.44-.14-.69-.14h-1.28z"/></g><path class="st0" d="M40.74 86.86v.87c0 .68-.56 1.24-1.24 1.24-.22 0-.43-.06-.62-.17a.425.425 0 0 1 .43-.73c.06.04.13.05.2.05.22 0 .39-.18.39-.39v-.87c0-.23.19-.42.42-.42.23-.01.42.18.42.42zm-2.85 1.69a.418.418 0 0 0-.57-.18c-.21.11-.29.36-.18.57.46.89 1.36 1.44 2.36 1.44 1.46 0 2.66-1.19 2.66-2.66v-.87c0-.23-.19-.42-.42-.42s-.42.19-.42.42v.87c0 1-.81 1.81-1.81 1.81-.69.01-1.3-.37-1.62-.98zm1.49-14.03c-2.18.06-3.95 1.93-3.95 4.15v9.05c0 1.11.44 2.15 1.24 2.92a4.02 4.02 0 0 0 2.83 1.15h.12c2.18-.06 3.95-1.93 3.95-4.15v-.69c0-1.07-.87-1.94-1.94-1.94h-1.31c-.23 0-.42.19-.42.42 0 .23.19.42.42.42h1.31c.6 0 1.09.49 1.09 1.09v.69c0 1.77-1.4 3.25-3.13 3.3-.88.03-1.71-.3-2.34-.91-.63-.61-.98-1.44-.98-2.31v-9.05c0-1.77 1.4-3.25 3.13-3.3.88-.03 1.71.3 2.34.91.63.61.98 1.44.98 2.31v5.32c0 .23.19.42.42.42s.42-.19.42-.42v-5.32c0-1.11-.44-2.15-1.24-2.92a4.033 4.033 0 0 0-2.94-1.14zm2.78 7.26v-3.19c0-1.46-1.19-2.66-2.66-2.66-1.46 0-2.66 1.19-2.66 2.66v.49c0 .23.19.42.42.42.23 0 .42-.19.42-.42v-.49a1.81 1.81 0 1 1 3.62 0v3.19c0 1-.81 1.81-1.81 1.81-.23 0-.45-.04-.66-.13a.415.415 0 0 0-.39.04.42.42 0 0 0-.19.35v2.89a.28.28 0 1 1-.56 0v-6.23c0-.23-.19-.42-.42-.42-.23 0-.42.19-.42.42v6.23c0 .62.51 1.13 1.13 1.13.62 0 1.13-.51 1.13-1.13V84.4a2.644 2.644 0 0 0 3.05-2.62zm2.83-3.09V87.73c0 1.49-.59 2.88-1.66 3.93a5.452 5.452 0 0 1-3.83 1.56h-.13c-2.95-.07-5.36-2.57-5.36-5.58V78.6c0-1.49.59-2.88 1.66-3.92a5.444 5.444 0 0 1 3.96-1.56c2.96.06 5.36 2.56 5.36 5.57zm-.85 6.79V78.68c0-2.55-2.03-4.68-4.53-4.73a4.6 4.6 0 0 0-3.35 1.32c-.9.88-1.4 2.06-1.4 3.32v9.04c0 2.55 2.03 4.68 4.53 4.73a4.6 4.6 0 0 0 3.35-1.32c.9-.88 1.4-2.06 1.4-3.32v-2.24zm-5.88-3.7v-3.19c0-.68.56-1.24 1.24-1.24.68 0 1.24.56 1.24 1.24v3.19a1.24 1.24 0 1 1-2.48 0zm.85 0a.39.39 0 0 0 .78 0v-3.19a.39.39 0 0 0-.78 0v3.19z"/><g><path class="st0" d="M102.79 79.22h-.16v-.11h.45v.11h-.16v.47h-.13v-.47zM103.64 79.47c0-.07-.01-.16-.01-.24-.02.07-.04.16-.07.23l-.07.23h-.1l-.06-.23c-.02-.07-.04-.15-.05-.23 0 .08-.01.17-.01.24l-.01.22h-.12l.04-.59h.18l.06.2c.02.07.04.14.05.21.02-.07.04-.15.06-.21l.06-.19h.17l.03.59h-.13l-.02-.23z"/></g></g><path class="st1" d="M138.22 84.78V17.35c0-.55-.45-1-1-1s-1 .45-1 1v67.42c0 .55.45 1 1 1 .56.01 1-.44 1-.99z"/><path class="st2" d="M165.65 26.2c-.1 1.32-.58 2.36-1.46 3.12s-2.04 1.14-3.48 1.14c-1.58 0-2.82-.53-3.72-1.59-.9-1.06-1.35-2.52-1.35-4.37v-.75c0-1.18.21-2.22.62-3.12.42-.9 1.01-1.59 1.79-2.07.77-.48 1.67-.72 2.7-.72 1.42 0 2.56.38 3.43 1.14.87.76 1.37 1.83 1.5 3.2h-2.53c-.06-.79-.28-1.37-.66-1.73s-.96-.54-1.73-.54c-.84 0-1.48.3-1.9.91-.42.6-.63 1.54-.65 2.82v.93c0 1.33.2 2.3.6 2.91s1.04.92 1.9.92c.78 0 1.37-.18 1.75-.54.39-.36.61-.91.66-1.66h2.53zM169.73 30.29h-2.45V17.33h2.45v12.96zM171.72 18.79c0-.37.12-.67.37-.9.25-.24.58-.35 1-.35.42 0 .75.12 1 .35s.37.54.37.9c0 .37-.13.68-.38.91s-.58.35-.99.35-.74-.12-.99-.35c-.26-.23-.38-.53-.38-.91zm2.59 11.5h-2.45v-9.13h2.45v9.13zM180.12 28.49c.45 0 .82-.12 1.1-.37.28-.25.43-.58.44-.99h2.29c-.01.62-.17 1.19-.51 1.7-.33.51-.79.91-1.36 1.2-.58.28-1.21.43-1.91.43-1.31 0-2.34-.42-3.09-1.25-.75-.83-1.13-1.98-1.13-3.44v-.16c0-1.41.37-2.53 1.12-3.37s1.78-1.26 3.08-1.26c1.14 0 2.06.32 2.75.98.69.65 1.04 1.52 1.05 2.6h-2.29c-.01-.48-.16-.86-.44-1.16-.28-.3-.65-.45-1.11-.45-.57 0-1 .21-1.29.62-.29.41-.44 1.09-.44 2.02v.25c0 .94.14 1.62.43 2.03s.72.62 1.31.62zM188.65 26.63l-.88.88v2.79h-2.44V17.33h2.44v7.18l.47-.61 2.34-2.74h2.93l-3.3 3.81 3.59 5.33H191l-2.35-3.67zM201.8 18.91v2.25h1.56v1.79h-1.56v4.56c0 .34.06.58.19.73s.38.22.74.22c.27 0 .51-.02.72-.06v1.85c-.48.15-.97.22-1.48.22-1.71 0-2.58-.86-2.62-2.59v-4.92h-1.33v-1.79h1.33v-2.25h2.45zM204.08 25.64c0-.91.17-1.71.52-2.42s.85-1.26 1.51-1.65c.66-.39 1.42-.58 2.28-.58 1.23 0 2.24.38 3.02 1.13.78.75 1.21 1.78 1.3 3.07l.02.62c0 1.4-.39 2.53-1.17 3.37s-1.83 1.27-3.15 1.27-2.37-.42-3.15-1.27c-.79-.84-1.18-1.99-1.18-3.44v-.1zm2.44.17c0 .87.16 1.53.49 1.99.33.46.79.69 1.4.69.59 0 1.05-.23 1.38-.68s.5-1.18.5-2.18c0-.85-.17-1.51-.5-1.98s-.8-.7-1.4-.7c-.6 0-1.06.23-1.38.7-.32.47-.49 1.19-.49 2.16zM221.12 30.29h-2.45V17.33h2.45v12.96zM227.33 30.46c-1.34 0-2.43-.41-3.27-1.23s-1.26-1.92-1.26-3.28v-.24c0-.92.18-1.74.53-2.46s.86-1.28 1.51-1.67 1.39-.59 2.22-.59c1.25 0 2.23.39 2.95 1.18.72.79 1.08 1.9 1.08 3.35v1h-5.82c.08.6.32 1.08.71 1.44.4.36.9.54 1.51.54.94 0 1.67-.34 2.2-1.02l1.2 1.34c-.37.52-.86.92-1.49 1.21-.62.29-1.31.43-2.07.43zm-.28-7.5c-.48 0-.88.16-1.18.49-.3.33-.49.8-.58 1.41h3.39v-.2c-.01-.54-.16-.96-.44-1.26-.27-.3-.67-.44-1.19-.44zM237.76 30.29a2.75 2.75 0 0 1-.24-.82c-.59.66-1.36.99-2.3.99-.89 0-1.64-.26-2.22-.78-.59-.52-.88-1.17-.88-1.96 0-.97.36-1.71 1.08-2.23.72-.52 1.75-.78 3.11-.79h1.12v-.52c0-.42-.11-.76-.33-1.01-.22-.25-.56-.38-1.03-.38-.41 0-.73.1-.97.3-.23.2-.35.47-.35.81h-2.44c0-.53.16-1.02.49-1.47s.79-.8 1.38-1.06c.6-.26 1.27-.38 2.01-.38 1.13 0 2.02.28 2.68.85.66.57.99 1.36.99 2.38v3.96c.01.87.13 1.52.36 1.97v.14h-2.46zm-2.01-1.69c.36 0 .69-.08 1-.24.3-.16.53-.38.68-.65v-1.57h-.91c-1.22 0-1.87.42-1.95 1.27l-.01.14c0 .3.11.55.32.75.2.2.5.3.87.3zM246.87 23.45a5.85 5.85 0 0 0-.88-.07c-.92 0-1.53.31-1.81.94v5.98h-2.44v-9.13h2.3l.07 1.09c.49-.84 1.17-1.26 2.03-1.26.27 0 .52.04.76.11l-.03 2.34zM250.29 21.16l.08 1.06c.65-.82 1.53-1.22 2.63-1.22.97 0 1.69.28 2.16.85s.71 1.42.73 2.55v5.9h-2.44v-5.84c0-.52-.11-.89-.34-1.13s-.6-.35-1.12-.35c-.69 0-1.2.29-1.54.88v6.44H248v-9.13h2.29zM264.32 21.16l.08 1.02c.65-.79 1.52-1.19 2.62-1.19 1.18 0 1.98.46 2.42 1.39.64-.93 1.56-1.39 2.74-1.39.99 0 1.73.29 2.21.87.48.58.73 1.44.73 2.6v5.83h-2.45v-5.82c0-.52-.1-.9-.3-1.14-.2-.24-.56-.36-1.07-.36-.73 0-1.24.35-1.52 1.05l.01 6.27h-2.44v-5.82c0-.53-.1-.91-.31-1.15-.21-.24-.56-.35-1.06-.35-.69 0-1.19.29-1.5.86v6.46h-2.44v-9.13h2.28zM276.62 25.64c0-.91.17-1.71.52-2.42s.85-1.26 1.51-1.65c.66-.39 1.42-.58 2.28-.58 1.23 0 2.24.38 3.02 1.13.78.75 1.21 1.78 1.3 3.07l.02.62c0 1.4-.39 2.53-1.17 3.37s-1.83 1.27-3.15 1.27-2.37-.42-3.15-1.27c-.79-.84-1.18-1.99-1.18-3.44v-.1zm2.44.17c0 .87.16 1.53.49 1.99.33.46.79.69 1.4.69.59 0 1.05-.23 1.38-.68s.5-1.18.5-2.18c0-.85-.17-1.51-.5-1.98s-.8-.7-1.4-.7c-.6 0-1.06.23-1.38.7-.33.47-.49 1.19-.49 2.16zM291.91 23.45a5.85 5.85 0 0 0-.88-.07c-.92 0-1.53.31-1.81.94v5.98h-2.44v-9.13h2.3l.07 1.09c.49-.84 1.17-1.26 2.03-1.26.27 0 .52.04.76.11l-.03 2.34zM297.12 30.46c-1.34 0-2.43-.41-3.27-1.23s-1.26-1.92-1.26-3.28v-.24c0-.92.18-1.74.53-2.46s.86-1.28 1.51-1.67 1.39-.59 2.22-.59c1.25 0 2.23.39 2.95 1.18.72.79 1.08 1.9 1.08 3.35v1h-5.82c.08.6.32 1.08.71 1.44.4.36.9.54 1.51.54.94 0 1.67-.34 2.2-1.02l1.2 1.34c-.37.52-.86.92-1.49 1.21-.61.29-1.31.43-2.07.43zm-.27-7.5c-.48 0-.88.16-1.18.49-.3.33-.49.8-.58 1.41h3.39v-.2c-.01-.54-.16-.96-.44-1.26-.28-.3-.68-.44-1.19-.44z"/><g><path class="st2" d="M160.28 45.91c-.08-.15-.13-.33-.16-.55-.39.44-.91.66-1.54.66-.6 0-1.09-.17-1.48-.52s-.59-.78-.59-1.31c0-.65.24-1.14.72-1.49.48-.35 1.17-.52 2.07-.52h.75v-.35c0-.28-.07-.51-.22-.68s-.37-.25-.68-.25c-.27 0-.49.07-.64.2s-.23.31-.23.54h-1.63c0-.35.11-.68.33-.98.22-.3.52-.54.92-.71.4-.17.84-.26 1.34-.26.75 0 1.35.19 1.79.57.44.38.66.91.66 1.59v2.64c0 .58.08 1.01.24 1.31v.1h-1.65zm-1.34-1.13c.24 0 .46-.05.66-.16s.35-.25.45-.43v-1.05h-.61c-.81 0-1.25.28-1.3.84l-.01.1c0 .2.07.37.21.5s.35.2.6.2zM168.42 42.92c0 .98-.21 1.74-.62 2.28s-1 .82-1.74.82c-.66 0-1.19-.25-1.58-.76l-.07.65h-1.46v-8.64h1.63v3.1c.38-.44.87-.66 1.48-.66.74 0 1.33.27 1.75.82.42.55.63 1.31.63 2.3v.09zm-1.62-.12c0-.62-.1-1.06-.29-1.35-.19-.28-.49-.42-.87-.42-.52 0-.87.21-1.07.64v2.4c.2.43.56.64 1.08.64.53 0 .87-.26 1.04-.78.07-.24.11-.62.11-1.13zM169.17 42.81c0-.6.12-1.14.35-1.62a2.6 2.6 0 0 1 1-1.1c.44-.26.94-.39 1.52-.39.82 0 1.49.25 2.01.75.52.5.81 1.19.87 2.05l.01.42c0 .93-.26 1.68-.78 2.25s-1.22.85-2.1.85-1.58-.28-2.1-.84c-.52-.56-.78-1.33-.78-2.3v-.07zm1.63.11c0 .58.11 1.02.33 1.33.22.31.53.46.93.46.39 0 .7-.15.92-.45.22-.3.33-.79.33-1.45 0-.57-.11-1.01-.33-1.32-.22-.31-.53-.47-.93-.47s-.71.15-.92.46c-.22.31-.33.79-.33 1.44zM179.59 45.29c-.4.49-.96.73-1.67.73-.65 0-1.15-.19-1.49-.56s-.52-.92-.53-1.65v-3.99h1.63v3.94c0 .63.29.95.87.95.55 0 .93-.19 1.14-.57v-4.32h1.63v6.09h-1.53l-.05-.62zM184.34 38.32v1.5h1.04v1.19h-1.04v3.04c0 .23.04.39.13.48s.25.15.5.15c.18 0 .34-.01.48-.04v1.23c-.32.1-.65.15-.98.15-1.14 0-1.72-.58-1.74-1.73v-3.28h-.89v-1.19h.89v-1.5h1.61zM188.9 42.81c0-.6.12-1.14.35-1.62a2.6 2.6 0 0 1 1-1.1c.44-.26.94-.39 1.52-.39.82 0 1.49.25 2.01.75.52.5.81 1.19.87 2.05l.01.42c0 .93-.26 1.68-.78 2.25s-1.22.85-2.1.85-1.58-.28-2.1-.84c-.52-.56-.78-1.33-.78-2.3v-.07zm1.63.11c0 .58.11 1.02.33 1.33.22.31.53.46.93.46.39 0 .7-.15.92-.45.22-.3.33-.79.33-1.45 0-.57-.11-1.01-.33-1.32-.22-.31-.53-.47-.93-.47s-.71.15-.92.46c-.22.31-.33.79-.33 1.44zM199.32 45.29c-.4.49-.96.73-1.67.73-.65 0-1.15-.19-1.49-.56s-.52-.92-.53-1.65v-3.99h1.63v3.94c0 .63.29.95.87.95.55 0 .93-.19 1.14-.57v-4.32h1.63v6.09h-1.53l-.05-.62zM205.54 41.35c-.22-.03-.42-.04-.59-.04-.62 0-1.02.21-1.21.62v3.98h-1.63v-6.09h1.54l.04.73c.33-.56.78-.84 1.36-.84.18 0 .35.02.51.07l-.02 1.57zM211.1 45.91h-1.69v-8.19h1.69v8.19zM212.3 42.82c0-.95.21-1.71.64-2.27s1.01-.84 1.75-.84c.59 0 1.08.22 1.47.66v-3.11h1.63v8.64h-1.47l-.08-.65c-.4.51-.93.76-1.56.76-.72 0-1.29-.28-1.72-.85-.44-.55-.66-1.33-.66-2.34zm1.63.12c0 .57.1 1.01.3 1.31.2.3.49.46.87.46.5 0 .86-.21 1.06-.64v-2.41c-.2-.42-.55-.64-1.05-.64-.79.01-1.18.65-1.18 1.92zM221.85 46.02c-.89 0-1.62-.27-2.18-.82-.56-.55-.84-1.28-.84-2.19v-.16c0-.61.12-1.16.35-1.64.24-.48.57-.85 1-1.11.43-.26.93-.39 1.48-.39.83 0 1.49.26 1.97.79s.72 1.27.72 2.23v.66h-3.88c.05.4.21.72.48.96.26.24.6.36 1 .36.63 0 1.12-.23 1.47-.68l.8.89c-.24.35-.57.61-.99.81s-.87.29-1.38.29zm-.19-5c-.32 0-.58.11-.79.33s-.33.53-.39.94h2.26v-.13c-.01-.36-.1-.64-.29-.84-.17-.2-.44-.3-.79-.3zM226.77 39.82l.05.7c.44-.54 1.02-.82 1.75-.82.65 0 1.13.19 1.44.57.31.38.48.95.48 1.7v3.93h-1.63v-3.89c0-.35-.08-.6-.23-.75s-.4-.23-.75-.23c-.46 0-.8.19-1.03.58v4.29h-1.63v-6.09h1.55zM233.68 38.32v1.5h1.04v1.19h-1.04v3.04c0 .23.04.39.13.48s.25.15.5.15c.18 0 .34-.01.48-.04v1.23c-.32.1-.65.15-.98.15-1.14 0-1.72-.58-1.74-1.73v-3.28h-.89v-1.19h.89v-1.5h1.61zM235.61 38.24c0-.24.08-.44.25-.6.16-.16.39-.24.67-.24s.5.08.66.24c.17.16.25.36.25.6 0 .25-.08.45-.25.61-.17.16-.39.24-.66.24s-.49-.08-.66-.24a.8.8 0 0 1-.26-.61zm1.73 7.67h-1.63v-6.09h1.63v6.09zM240.63 38.32v1.5h1.04v1.19h-1.04v3.04c0 .23.04.39.13.48s.25.15.5.15c.18 0 .34-.01.48-.04v1.23c-.32.1-.65.15-.98.15-1.14 0-1.72-.58-1.74-1.73v-3.28h-.89v-1.19h.87v-1.5h1.63zM244.85 43.61l1.13-3.79h1.74l-2.45 7.03-.14.32c-.36.8-.96 1.19-1.8 1.19-.24 0-.48-.04-.72-.11v-1.23l.25.01c.31 0 .54-.05.69-.14s.27-.25.36-.47l.19-.5-2.13-6.11h1.75l1.13 3.8zM257.17 39.08h-2.51v6.83h-1.69v-6.83h-2.48v-1.37h6.67v1.37zM259.61 40.48c.43-.52.97-.78 1.63-.78 1.32 0 1.99.77 2.01 2.3v3.9h-1.63v-3.85c0-.35-.08-.61-.23-.77-.15-.17-.4-.25-.75-.25-.48 0-.82.18-1.04.55v4.33h-1.63v-8.64h1.63v3.21zM267.28 46.02c-.89 0-1.62-.27-2.18-.82-.56-.55-.84-1.28-.84-2.19v-.16c0-.61.12-1.16.35-1.64.24-.48.57-.85 1-1.11.43-.26.93-.39 1.48-.39.83 0 1.49.26 1.97.79s.72 1.27.72 2.23v.66h-3.88c.05.4.21.72.48.96.26.24.6.36 1 .36.63 0 1.12-.23 1.47-.68l.8.89c-.24.35-.57.61-.99.81s-.88.29-1.38.29zm-.19-5c-.32 0-.58.11-.79.33s-.33.53-.39.94h2.26v-.13c-.01-.36-.1-.64-.29-.84-.18-.2-.45-.3-.79-.3zM271.15 45.91v-4.9h-.91v-1.19h.91v-.52c0-.68.2-1.21.59-1.59.39-.38.94-.57 1.65-.57.23 0 .5.04.83.11l-.02 1.26c-.14-.03-.3-.05-.5-.05-.61 0-.92.29-.92.86v.49h1.21V41h-1.21v4.9h-1.63zM276.78 38.32v1.5h1.04v1.19h-1.04v3.04c0 .23.04.39.13.48s.25.15.5.15c.18 0 .34-.01.48-.04v1.23c-.32.1-.65.15-.98.15-1.14 0-1.72-.58-1.74-1.73v-3.28h-.89v-1.19h.89v-1.5h1.61zM285.13 45.91c-.08-.15-.13-.33-.16-.55-.39.44-.91.66-1.54.66-.6 0-1.09-.17-1.48-.52s-.59-.78-.59-1.31c0-.65.24-1.14.72-1.49.48-.35 1.17-.52 2.07-.52h.75v-.35c0-.28-.07-.51-.22-.68s-.37-.25-.68-.25c-.27 0-.49.07-.64.2s-.23.31-.23.54h-1.63c0-.35.11-.68.33-.98.22-.3.52-.54.92-.71.4-.17.84-.26 1.34-.26.75 0 1.35.19 1.79.57.44.38.66.91.66 1.59v2.64c0 .58.08 1.01.24 1.31v.1h-1.65zm-1.35-1.13c.24 0 .46-.05.66-.16s.35-.25.45-.43v-1.05h-.61c-.81 0-1.25.28-1.3.84l-.01.1c0 .2.07.37.21.5s.35.2.6.2zM289.27 39.82l.05.7c.44-.54 1.02-.82 1.75-.82.65 0 1.13.19 1.44.57.31.38.48.95.48 1.7v3.93h-1.63v-3.89c0-.35-.08-.6-.23-.75s-.4-.23-.75-.23c-.46 0-.8.19-1.03.58v4.29h-1.63v-6.09h1.55zM293.98 42.82c0-.95.21-1.71.64-2.27s1.01-.84 1.75-.84c.59 0 1.08.22 1.47.66v-3.11h1.63v8.64H298l-.08-.65c-.4.51-.93.76-1.56.76-.72 0-1.29-.28-1.72-.85-.45-.55-.66-1.33-.66-2.34zm1.62.12c0 .57.1 1.01.3 1.31.2.3.49.46.87.46.5 0 .86-.21 1.06-.64v-2.41c-.2-.42-.55-.64-1.05-.64-.78.01-1.18.65-1.18 1.92zM174.37 57.01c-.06.88-.39 1.58-.98 2.08-.59.51-1.36.76-2.32.76-1.05 0-1.88-.35-2.48-1.06s-.9-1.68-.9-2.91v-.5c0-.79.14-1.48.42-2.08.28-.6.67-1.06 1.19-1.38.52-.32 1.11-.48 1.8-.48.95 0 1.71.25 2.28.76.58.51.91 1.22 1 2.13h-1.69c-.04-.53-.19-.91-.44-1.15-.25-.24-.64-.36-1.16-.36-.56 0-.98.2-1.26.6-.28.4-.42 1.03-.43 1.88v.62c0 .89.13 1.53.4 1.94.27.41.69.61 1.27.61.52 0 .91-.12 1.17-.36.26-.24.4-.61.44-1.11h1.69zM178.8 55.18c-.22-.03-.42-.04-.59-.04-.62 0-1.02.21-1.21.62v3.98h-1.63v-6.09h1.54l.04.73c.33-.56.78-.84 1.36-.84.18 0 .35.02.51.07l-.02 1.57zM182.27 59.85c-.89 0-1.62-.27-2.18-.82-.56-.55-.84-1.28-.84-2.19v-.16c0-.61.12-1.16.35-1.64.24-.48.57-.85 1-1.11.43-.26.93-.39 1.48-.39.83 0 1.49.26 1.97.79s.72 1.27.72 2.23v.66h-3.88c.05.4.21.72.48.96.26.24.6.36 1 .36.63 0 1.12-.23 1.47-.68l.8.89c-.24.35-.57.61-.99.81s-.87.29-1.38.29zm-.18-5c-.32 0-.58.11-.79.33s-.33.53-.39.94h2.26v-.13c-.01-.36-.1-.64-.29-.84-.18-.2-.45-.3-.79-.3zM185.45 56.65c0-.95.21-1.71.64-2.27s1.01-.84 1.75-.84c.59 0 1.08.22 1.47.66v-3.1h1.63v8.64h-1.47l-.08-.65c-.4.51-.93.76-1.56.76-.72 0-1.29-.28-1.72-.85-.45-.56-.66-1.34-.66-2.35zm1.62.12c0 .57.1 1.01.3 1.31.2.3.49.46.87.46.5 0 .86-.21 1.06-.64v-2.4c-.2-.42-.55-.64-1.05-.64-.78 0-1.18.64-1.18 1.91zM192.18 52.07c0-.24.08-.44.25-.6.16-.16.39-.24.67-.24s.5.08.66.24c.17.16.25.36.25.6 0 .25-.08.45-.25.61-.17.16-.39.24-.66.24s-.49-.08-.66-.24a.8.8 0 0 1-.26-.61zm1.73 7.67h-1.63v-6.09h1.63v6.09zM197.2 52.15v1.5h1.04v1.19h-1.04v3.04c0 .23.04.39.13.48s.25.15.5.15c.18 0 .34-.01.48-.04v1.23c-.32.1-.65.15-.98.15-1.14 0-1.72-.58-1.74-1.73v-3.28h-.89v-1.19h.89v-1.5h1.61zM204.33 51.55l2.1 5.94 2.09-5.94h2.22v8.19h-1.69V57.5l.17-3.87-2.21 6.11h-1.16l-2.21-6.1.17 3.86v2.24h-1.69v-8.19h2.21zM211.86 56.64c0-.6.12-1.14.35-1.62a2.6 2.6 0 0 1 1-1.1c.44-.26.94-.39 1.52-.39.82 0 1.49.25 2.01.75.52.5.81 1.19.87 2.05l.01.42c0 .93-.26 1.68-.78 2.25s-1.22.85-2.1.85-1.58-.28-2.1-.84c-.52-.56-.78-1.33-.78-2.3v-.07zm1.62.11c0 .58.11 1.02.33 1.33.22.31.53.46.93.46.39 0 .7-.15.92-.45.22-.3.33-.79.33-1.45 0-.57-.11-1.01-.33-1.32-.22-.31-.53-.47-.93-.47s-.71.15-.92.46c-.22.31-.33.79-.33 1.44zM220.13 53.65l.05.7c.44-.54 1.02-.82 1.75-.82.65 0 1.13.19 1.44.57.31.38.48.95.48 1.7v3.93h-1.63v-3.89c0-.35-.08-.6-.23-.75s-.4-.23-.75-.23c-.46 0-.8.19-1.03.58v4.29h-1.63v-6.09h1.55zM225.07 52.07c0-.24.08-.44.25-.6.16-.16.39-.24.67-.24s.5.08.66.24c.17.16.25.36.25.6 0 .25-.08.45-.25.61-.17.16-.39.24-.66.24s-.49-.08-.66-.24a.767.767 0 0 1-.26-.61zm1.73 7.67h-1.63v-6.09h1.63v6.09zM230.09 52.15v1.5h1.04v1.19h-1.04v3.04c0 .23.04.39.13.48s.25.15.5.15c.18 0 .34-.01.48-.04v1.23c-.32.1-.65.15-.98.15-1.14 0-1.72-.58-1.74-1.73v-3.28h-.89v-1.19h.89v-1.5h1.61zM231.61 56.64c0-.6.12-1.14.35-1.62a2.6 2.6 0 0 1 1-1.1c.44-.26.94-.39 1.52-.39.82 0 1.49.25 2.01.75.52.5.81 1.19.87 2.05l.01.42c0 .93-.26 1.68-.78 2.25s-1.22.85-2.1.85-1.58-.28-2.1-.84c-.52-.56-.78-1.33-.78-2.3v-.07zm1.63.11c0 .58.11 1.02.33 1.33.22.31.53.46.93.46.39 0 .7-.15.92-.45.22-.3.33-.79.33-1.45 0-.57-.11-1.01-.33-1.32-.22-.31-.53-.47-.93-.47s-.71.15-.92.46c-.22.31-.33.79-.33 1.44zM241.8 55.18c-.22-.03-.42-.04-.59-.04-.62 0-1.02.21-1.21.62v3.98h-1.63v-6.09h1.54l.04.73c.33-.56.78-.84 1.36-.84.18 0 .35.02.51.07l-.02 1.57zM242.57 52.07c0-.24.08-.44.25-.6.16-.16.39-.24.67-.24s.5.08.66.24c.17.16.25.36.25.6 0 .25-.08.45-.25.61-.17.16-.39.24-.66.24s-.49-.08-.66-.24a.8.8 0 0 1-.26-.61zm1.73 7.67h-1.63v-6.09h1.63v6.09zM247.14 53.65l.05.7c.44-.54 1.02-.82 1.75-.82.65 0 1.13.19 1.44.57.31.38.48.95.48 1.7v3.93h-1.63v-3.89c0-.35-.08-.6-.23-.75s-.4-.23-.75-.23c-.46 0-.8.19-1.03.58v4.29h-1.63v-6.09h1.55zM251.86 56.65c0-.93.22-1.69.67-2.26.44-.57 1.04-.86 1.8-.86.67 0 1.19.23 1.56.69l.07-.57h1.47v5.89c0 .53-.12 1-.36 1.39-.24.39-.58.69-1.02.9-.44.21-.95.31-1.54.31-.45 0-.88-.09-1.31-.27-.42-.18-.75-.41-.96-.69l.72-.99c.41.45.9.68 1.47.68.43 0 .77-.12 1.01-.35.24-.23.36-.56.36-.98v-.33c-.38.42-.87.64-1.48.64-.73 0-1.32-.29-1.78-.86s-.68-1.33-.68-2.28v-.06zm1.62.12c0 .55.11.99.33 1.3.22.31.53.47.91.47.5 0 .85-.19 1.06-.56v-2.56c-.22-.37-.57-.56-1.05-.56-.39 0-.7.16-.92.48s-.33.8-.33 1.43zM267.02 56.75c0 .94-.21 1.69-.64 2.25s-1 .85-1.73.85c-.62 0-1.11-.21-1.49-.64v2.87h-1.63v-8.43h1.51l.06.6c.39-.47.91-.71 1.54-.71.75 0 1.33.28 1.75.83.42.56.62 1.32.62 2.3v.08zm-1.62-.12c0-.57-.1-1-.3-1.31s-.49-.46-.88-.46c-.51 0-.86.19-1.05.58v2.49c.2.4.55.6 1.06.6.78.01 1.17-.63 1.17-1.9zM269.75 59.74h-1.63V51.1h1.63v8.64zM274.62 59.74c-.08-.15-.13-.33-.16-.55-.39.44-.91.66-1.54.66-.6 0-1.09-.17-1.48-.52s-.59-.78-.59-1.31c0-.65.24-1.14.72-1.49.48-.35 1.17-.52 2.07-.52h.75v-.35c0-.28-.07-.51-.22-.68s-.37-.25-.68-.25c-.27 0-.49.07-.64.2s-.23.31-.23.54h-1.63c0-.35.11-.68.33-.98.22-.3.52-.54.92-.71.4-.17.84-.26 1.34-.26.75 0 1.35.19 1.79.57.44.38.66.91.66 1.59v2.64c0 .58.08 1.01.24 1.31v.1h-1.65zm-1.35-1.13c.24 0 .46-.05.66-.16s.35-.25.45-.43v-1.05h-.61c-.81 0-1.25.28-1.3.84l-.01.1c0 .2.07.37.21.5s.35.2.6.2zM278.76 53.65l.05.7c.44-.54 1.02-.82 1.75-.82.65 0 1.13.19 1.44.57.31.38.48.95.48 1.7v3.93h-1.63v-3.89c0-.35-.08-.6-.23-.75s-.4-.23-.75-.23c-.46 0-.8.19-1.03.58v4.29h-1.63v-6.09h1.55zM287.02 58.06c0-.2-.1-.36-.3-.47-.2-.11-.51-.22-.95-.31-1.45-.3-2.17-.92-2.17-1.85 0-.54.22-.99.67-1.35.45-.36 1.03-.54 1.76-.54.77 0 1.39.18 1.85.55.46.36.69.84.69 1.42h-1.63c0-.23-.07-.43-.23-.58-.15-.15-.38-.23-.7-.23-.27 0-.49.06-.64.19-.15.12-.23.28-.23.47 0 .18.09.33.26.44.17.11.46.21.86.29s.75.17 1.02.27c.86.31 1.29.86 1.29 1.64 0 .56-.24 1-.71 1.35s-1.09.52-1.85.52c-.51 0-.96-.09-1.36-.27-.4-.18-.71-.43-.93-.75-.23-.32-.34-.66-.34-1.03h1.54c.02.29.12.51.32.66s.47.23.8.23c.31 0 .55-.06.71-.18.19-.13.27-.28.27-.47z"/></g><g><path class="st2" d="M190.73 74.9c0-.2-.07-.36-.21-.5-.14-.13-.37-.26-.7-.37-.46-.14-.79-.32-1-.54-.21-.22-.31-.51-.31-.85 0-.35.1-.64.31-.86.21-.23.49-.36.84-.4v-.7h.48v.71c.36.05.64.2.84.45.2.25.3.6.3 1.04h-.59c0-.3-.07-.54-.22-.72a.703.703 0 0 0-.58-.27c-.25 0-.45.07-.58.2-.14.13-.2.32-.2.55 0 .22.07.39.21.52s.38.25.7.35c.33.11.58.22.77.35.18.13.32.28.41.45.09.17.13.37.13.6 0 .36-.11.65-.33.87-.22.22-.52.35-.92.39v.61h-.48v-.61c-.4-.04-.71-.18-.94-.43-.23-.25-.34-.58-.34-1.01h.6c0 .3.08.53.23.69.16.16.38.24.67.24.28 0 .5-.07.66-.2s.25-.33.25-.56zM194.02 76.1h-.6v-3.97l-1.2.44v-.54l1.7-.64h.09v4.71zM198.26 71.78v.84h.65v.46h-.65v2.16c0 .14.03.24.09.31s.16.1.3.1c.07 0 .16-.01.28-.04v.48c-.16.04-.31.06-.46.06-.27 0-.47-.08-.6-.24-.14-.16-.2-.39-.2-.69v-2.16h-.63v-.46h.63v-.84h.59zM201.28 73.16c-.09-.02-.19-.02-.29-.02-.39 0-.65.17-.79.5v2.47h-.6v-3.48h.58l.01.4c.2-.31.47-.47.83-.47.12 0 .2.02.26.04v.56zM201.83 71.7c0-.1.03-.18.09-.24s.15-.1.26-.1c.12 0 .2.03.26.1s.09.15.09.24c0 .1-.03.18-.09.24s-.15.1-.26.1c-.12 0-.2-.03-.26-.1a.324.324 0 0 1-.09-.24zm.65 4.4h-.6v-3.48h.6v3.48zM205.58 76.1a1.39 1.39 0 0 1-.08-.37c-.28.29-.61.43-.99.43-.34 0-.62-.1-.84-.29a.937.937 0 0 1-.33-.74c0-.36.14-.64.41-.84.28-.2.66-.3 1.16-.3h.58v-.27c0-.21-.06-.37-.19-.5-.12-.12-.31-.19-.55-.19-.21 0-.39.05-.53.16s-.22.24-.22.39h-.6c0-.17.06-.34.19-.5.12-.16.29-.29.5-.38.21-.09.44-.14.7-.14.4 0 .71.1.94.3.23.2.35.48.35.83v1.6c0 .32.04.57.12.76v.05h-.62zm-.99-.45c.19 0 .36-.05.53-.14.17-.1.29-.22.36-.38v-.71h-.47c-.73 0-1.09.21-1.09.64 0 .19.06.33.19.44.12.1.28.15.48.15zM207.66 76.1h-.6v-4.94h.6v4.94zM210.53 76.1v-3.02h-.55v-.46h.55v-.36c0-.37.1-.66.3-.87s.48-.31.85-.31c.14 0 .27.02.41.05l-.03.48c-.1-.02-.21-.03-.32-.03a.61.61 0 0 0-.45.17c-.11.11-.16.27-.16.49v.37h.74v.46h-.74v3.02h-.6zM212.37 74.33c0-.34.07-.65.2-.92s.32-.48.56-.63.51-.22.82-.22c.47 0 .86.16 1.15.49.29.33.44.76.44 1.31v.04c0 .34-.06.64-.19.91s-.31.48-.56.63c-.24.15-.52.23-.83.23-.47 0-.85-.16-1.15-.49-.29-.33-.44-.76-.44-1.3v-.05zm.6.07c0 .39.09.7.27.93.18.23.42.35.72.35s.54-.12.72-.36c.18-.24.27-.57.27-1 0-.38-.09-.69-.27-.93s-.42-.36-.72-.36c-.29 0-.53.12-.71.35-.19.25-.28.59-.28 1.02zM217.96 73.16c-.09-.02-.19-.02-.29-.02-.39 0-.65.17-.79.5v2.47h-.6v-3.48h.58l.01.4c.2-.31.47-.47.83-.47.12 0 .2.02.26.04v.56zM220.95 71.78v.84h.65v.46h-.65v2.16c0 .14.03.24.09.31s.16.1.3.1c.07 0 .16-.01.28-.04v.48c-.16.04-.31.06-.46.06-.27 0-.47-.08-.6-.24-.14-.16-.2-.39-.2-.69v-2.16h-.63v-.46h.63v-.84h.59zM222.89 73.05c.26-.32.61-.49 1.03-.49.74 0 1.11.42 1.11 1.24v2.3h-.59v-2.3c0-.25-.06-.44-.17-.56-.11-.12-.29-.18-.53-.18-.19 0-.36.05-.51.15-.15.1-.26.24-.34.41v2.48h-.6v-4.94h.6v1.89zM227.36 76.17c-.47 0-.86-.15-1.15-.46-.3-.31-.44-.72-.44-1.24v-.11c0-.34.07-.65.2-.92s.32-.48.55-.64c.24-.15.49-.23.77-.23.45 0 .8.15 1.05.45.25.3.38.73.38 1.28v.25h-2.36c.01.34.11.62.3.83.19.21.44.32.73.32.21 0 .39-.04.53-.13.15-.09.27-.2.38-.34l.36.28c-.27.43-.71.66-1.3.66zm-.07-3.12c-.24 0-.44.09-.6.26-.16.17-.26.42-.3.73h1.74V74c-.02-.3-.1-.54-.24-.7-.15-.17-.35-.25-.6-.25zM231.33 76.1v-3.02h-.55v-.46h.55v-.36c0-.37.1-.66.3-.87s.48-.31.85-.31c.14 0 .27.02.41.05l-.03.48c-.1-.02-.21-.03-.32-.03a.61.61 0 0 0-.45.17c-.11.11-.16.27-.16.49v.37h.74v.46h-.74v3.02h-.6zM233.33 71.7c0-.1.03-.18.09-.24s.15-.1.26-.1c.12 0 .2.03.26.1s.09.15.09.24c0 .1-.03.18-.09.24s-.15.1-.26.1c-.12 0-.2-.03-.26-.1a.324.324 0 0 1-.09-.24zm.64 4.4h-.6v-3.48h.6v3.48zM236.61 73.16c-.09-.02-.19-.02-.29-.02-.39 0-.65.17-.79.5v2.47h-.6v-3.48h.58l.01.4c.2-.31.47-.47.83-.47.12 0 .2.02.26.04v.56zM239.18 75.18c0-.16-.06-.29-.18-.38-.12-.09-.33-.17-.63-.23s-.54-.14-.72-.23a.988.988 0 0 1-.39-.32.788.788 0 0 1-.13-.44c0-.29.12-.53.36-.72s.55-.3.92-.3c.39 0 .71.1.96.31.25.2.37.46.37.78h-.6c0-.16-.07-.3-.21-.42a.765.765 0 0 0-.52-.18c-.22 0-.39.05-.51.14-.12.09-.18.22-.18.37 0 .14.06.25.17.32.11.07.32.14.62.21s.54.15.72.24c.18.09.32.2.41.33.09.13.13.29.13.47 0 .31-.12.56-.37.75-.25.19-.57.28-.97.28-.28 0-.52-.05-.74-.15-.21-.1-.38-.24-.5-.41a1.01 1.01 0 0 1-.18-.57h.59c.01.2.09.36.24.47.15.12.35.18.59.18.23 0 .41-.05.54-.14a.4.4 0 0 0 .21-.36zM241.36 71.78v.84h.65v.46h-.65v2.16c0 .14.03.24.09.31s.16.1.3.1c.07 0 .16-.01.28-.04v.48c-.16.04-.31.06-.46.06-.27 0-.47-.08-.6-.24-.14-.16-.2-.39-.2-.69v-2.16h-.63v-.46h.63v-.84h.59zM246.46 76.1h-.93v-3.58l-1.11.34v-.76l1.94-.69h.1v4.69zM250.73 74.34h.53v.75h-.53v1.01h-.93v-1.01h-1.92l-.04-.58 1.95-3.08h.94v2.91zm-1.97 0h1.04v-1.65l-.06.11-.98 1.54zM253.29 74.34c0-.54.12-.97.36-1.3.24-.32.58-.48 1-.48.34 0 .62.13.84.38v-1.78h.93v4.94h-.84l-.04-.37c-.23.29-.53.43-.89.43-.41 0-.74-.16-.99-.48-.24-.32-.37-.77-.37-1.34zm.93.07c0 .33.06.58.17.75s.28.26.5.26c.29 0 .49-.12.61-.36v-1.38c-.12-.24-.32-.36-.6-.36-.45 0-.68.36-.68 1.09zM259.16 76.1c-.04-.08-.07-.19-.09-.31-.23.25-.52.38-.88.38-.34 0-.62-.1-.85-.3s-.34-.45-.34-.75c0-.37.14-.65.41-.85.27-.2.67-.3 1.19-.3h.43v-.2c0-.16-.04-.29-.12-.39-.08-.1-.21-.15-.39-.15-.16 0-.28.04-.37.11-.09.08-.13.18-.13.31h-.93c0-.2.06-.39.19-.56s.3-.31.53-.4c.23-.1.48-.15.77-.15.43 0 .77.11 1.02.32s.38.52.38.91v1.51c0 .33.05.58.14.75v.05h-.96zm-.76-.64c.14 0 .26-.03.38-.09s.2-.14.26-.25v-.6h-.35c-.47 0-.71.16-.74.48v.05c0 .12.04.21.12.29.07.08.18.12.33.12zM261.93 74.79l.64-2.16h1l-1.4 4.02-.08.18c-.21.45-.55.68-1.03.68-.13 0-.27-.02-.41-.06v-.7h.14c.18 0 .31-.03.39-.08.09-.05.15-.14.2-.27l.11-.29-1.22-3.49h1l.66 2.17zM265.82 75.14c0-.11-.06-.2-.17-.27-.11-.07-.29-.12-.54-.18-.83-.17-1.24-.53-1.24-1.06 0-.31.13-.57.38-.77.26-.21.59-.31 1-.31.44 0 .79.1 1.06.31s.4.48.4.81h-.93c0-.13-.04-.24-.13-.33-.09-.09-.22-.13-.4-.13-.16 0-.28.04-.36.11-.09.07-.13.16-.13.27 0 .1.05.19.15.25.1.06.26.12.49.16.23.05.43.1.59.16.49.18.74.49.74.94 0 .32-.14.57-.41.77s-.62.29-1.05.29c-.29 0-.55-.05-.78-.16s-.4-.25-.53-.43-.19-.38-.19-.59h.88c.01.17.07.29.18.38.11.09.27.13.46.13.18 0 .31-.03.4-.1.09-.05.13-.14.13-.25zM267.4 77.04l-.34-.23c.2-.28.31-.57.31-.87v-.54h.58v.47c0 .22-.05.43-.16.65-.1.21-.23.39-.39.52zM187.68 82.31c0 .53-.12.96-.36 1.28-.24.32-.57.49-.98.49-.42 0-.75-.13-1-.4v1.68h-.6v-4.82h.54l.03.39c.24-.3.58-.45 1.01-.45.42 0 .75.16.99.47.24.32.37.75.37 1.32v.04zm-.59-.07c0-.39-.08-.7-.25-.93a.81.81 0 0 0-.69-.34c-.36 0-.63.16-.81.48v1.66c.18.32.45.48.82.48.29 0 .51-.11.68-.34.16-.23.25-.56.25-1.01zM189.09 84.01h-.6v-4.94h.6v4.94zM192.19 84.01a1.39 1.39 0 0 1-.08-.37c-.28.29-.61.43-.99.43-.34 0-.62-.1-.84-.29a.937.937 0 0 1-.33-.74c0-.36.14-.64.41-.84.28-.2.66-.3 1.16-.3h.58v-.27c0-.21-.06-.37-.19-.5-.12-.12-.31-.19-.55-.19-.21 0-.39.05-.53.16s-.22.24-.22.39h-.6c0-.17.06-.34.19-.5.12-.16.29-.29.5-.38.21-.09.44-.14.7-.14.4 0 .71.1.94.3.23.2.35.48.35.83v1.6c0 .32.04.57.12.76v.05h-.62zm-.99-.46c.19 0 .36-.05.53-.14.17-.1.29-.22.36-.38v-.71h-.47c-.73 0-1.09.21-1.09.64 0 .19.06.33.19.44.12.1.28.15.48.15zM194.18 80.53l.02.44c.27-.33.61-.5 1.04-.5.74 0 1.11.42 1.11 1.24v2.3h-.59v-2.3c0-.25-.06-.44-.17-.56-.11-.12-.29-.18-.53-.18-.19 0-.36.05-.51.15-.15.1-.26.24-.34.41v2.48h-.6v-3.48h.57zM199.28 83.09c0-.16-.06-.29-.18-.38-.12-.09-.33-.17-.63-.23s-.54-.14-.72-.23a.988.988 0 0 1-.39-.32.788.788 0 0 1-.13-.44c0-.29.12-.53.36-.72s.55-.3.92-.3c.39 0 .71.1.96.31.25.2.37.46.37.78h-.6c0-.16-.07-.3-.21-.42a.765.765 0 0 0-.52-.18c-.22 0-.39.05-.51.14-.12.09-.18.22-.18.37 0 .14.06.25.17.32.11.07.32.14.62.21s.54.15.72.24c.18.09.32.2.41.33.09.13.13.29.13.47 0 .31-.12.56-.37.75-.25.19-.57.28-.97.28-.28 0-.52-.05-.74-.15-.21-.1-.38-.24-.5-.41a1.01 1.01 0 0 1-.18-.57h.59c.01.2.09.36.24.47.15.12.35.18.59.18.23 0 .41-.05.54-.14.14-.09.21-.21.21-.36zM204.31 83.09c0-.16-.06-.29-.18-.38-.12-.09-.33-.17-.63-.23s-.54-.14-.72-.23a.988.988 0 0 1-.39-.32.788.788 0 0 1-.13-.44c0-.29.12-.53.36-.72s.55-.3.92-.3c.39 0 .71.1.96.31.25.2.37.46.37.78h-.6c0-.16-.07-.3-.21-.42a.765.765 0 0 0-.52-.18c-.22 0-.39.05-.51.14-.12.09-.18.22-.18.37 0 .14.06.25.17.32.11.07.32.14.62.21s.54.15.72.24c.18.09.32.2.41.33.09.13.13.29.13.47 0 .31-.12.56-.37.75-.25.19-.57.28-.97.28-.28 0-.52-.05-.74-.15-.21-.1-.38-.24-.5-.41a1.01 1.01 0 0 1-.18-.57h.59c.01.2.09.36.24.47.15.12.35.18.59.18.23 0 .41-.05.54-.14.14-.09.21-.21.21-.36zM206.48 79.69v.84h.65v.46h-.65v2.16c0 .14.03.24.09.31s.16.1.3.1c.07 0 .16-.01.28-.04V84c-.16.04-.31.06-.46.06-.27 0-.47-.08-.6-.24-.14-.16-.2-.39-.2-.69v-2.16h-.63v-.46h.63v-.84h.59zM209.98 84.01a1.39 1.39 0 0 1-.08-.37c-.28.29-.61.43-.99.43-.34 0-.62-.1-.84-.29a.937.937 0 0 1-.33-.74c0-.36.14-.64.41-.84.28-.2.66-.3 1.16-.3h.58v-.27c0-.21-.06-.37-.19-.5-.12-.12-.31-.19-.55-.19-.21 0-.39.05-.53.16s-.22.24-.22.39h-.6c0-.17.06-.34.19-.5.12-.16.29-.29.5-.38.21-.09.44-.14.7-.14.4 0 .71.1.94.3.23.2.35.48.35.83v1.6c0 .32.04.57.12.76v.05h-.62zm-.99-.46c.19 0 .36-.05.53-.14.17-.1.29-.22.36-.38v-.71h-.47c-.73 0-1.09.21-1.09.64 0 .19.06.33.19.44.12.1.28.15.48.15zM213.09 81.06c-.09-.02-.19-.02-.29-.02-.39 0-.65.17-.79.5v2.47h-.6v-3.48h.58l.01.4c.2-.31.47-.47.83-.47.12 0 .2.02.26.04v.56zM214.61 79.69v.84h.65v.46h-.65v2.16c0 .14.03.24.09.31s.16.1.3.1c.07 0 .16-.01.28-.04V84c-.16.04-.31.06-.46.06-.27 0-.47-.08-.6-.24-.14-.16-.2-.39-.2-.69v-2.16h-.63v-.46h.63v-.84h.59zM215.95 79.61c0-.1.03-.18.09-.24s.15-.1.26-.1c.12 0 .2.03.26.1s.09.15.09.24c0 .1-.03.18-.09.24s-.15.1-.26.1c-.12 0-.2-.03-.26-.1a.358.358 0 0 1-.09-.24zm.65 4.4h-.6v-3.48h.6v3.48zM218.11 80.53l.02.44c.27-.33.61-.5 1.04-.5.74 0 1.11.42 1.11 1.24v2.3h-.59v-2.3c0-.25-.06-.44-.17-.56-.11-.12-.29-.18-.53-.18-.19 0-.36.05-.51.15-.15.1-.26.24-.34.41v2.48h-.6v-3.48h.57zM221.04 82.24c0-.54.13-.97.38-1.29a1.2 1.2 0 0 1 1-.48c.42 0 .76.15.99.45l.03-.39h.54v3.4c0 .45-.13.8-.4 1.06s-.63.39-1.08.39c-.25 0-.5-.05-.74-.16s-.42-.25-.55-.44l.31-.36c.25.32.57.47.94.47.29 0 .52-.08.68-.24.16-.16.24-.39.24-.69v-.3c-.24.27-.56.41-.97.41-.41 0-.74-.16-.99-.49s-.38-.77-.38-1.34zm.6.07c0 .39.08.7.24.92.16.22.39.34.68.34.38 0 .65-.17.83-.51v-1.59c-.18-.33-.46-.5-.82-.5-.29 0-.52.11-.68.34-.17.22-.25.56-.25 1zM228.66 84.01a1.39 1.39 0 0 1-.08-.37c-.28.29-.61.43-.99.43-.34 0-.62-.1-.84-.29a.937.937 0 0 1-.33-.74c0-.36.14-.64.41-.84.28-.2.66-.3 1.16-.3h.58v-.27c0-.21-.06-.37-.19-.5-.12-.12-.31-.19-.55-.19-.21 0-.39.05-.53.16s-.22.24-.22.39h-.6c0-.17.06-.34.19-.5.12-.16.29-.29.5-.38.21-.09.44-.14.7-.14.4 0 .71.1.94.3.23.2.35.48.35.83v1.6c0 .32.04.57.12.76v.05h-.62zm-.99-.46c.19 0 .36-.05.53-.14.17-.1.29-.22.36-.38v-.71h-.47c-.73 0-1.09.21-1.09.64 0 .19.06.33.19.44.13.1.29.15.48.15zM230.9 79.69v.84h.65v.46h-.65v2.16c0 .14.03.24.09.31s.16.1.3.1c.07 0 .16-.01.28-.04V84c-.16.04-.31.06-.46.06-.27 0-.47-.08-.6-.24-.14-.16-.2-.39-.2-.69v-2.16h-.63v-.46h.63v-.84h.59zM235.96 82.78c0-.18-.05-.32-.15-.42-.1-.1-.26-.2-.5-.29-.23-.09-.44-.17-.6-.26s-.31-.19-.44-.3c-.12-.11-.22-.24-.28-.4-.07-.15-.1-.33-.1-.54 0-.36.12-.66.35-.89.23-.23.54-.37.92-.41v-.69h.51v.7c.38.05.68.21.89.47s.32.6.32 1.02h-.93c0-.26-.05-.45-.16-.58a.528.528 0 0 0-.43-.19c-.18 0-.31.05-.41.15s-.14.24-.14.41c0 .16.05.29.14.39.09.1.27.2.53.3.26.1.47.2.63.29.17.09.3.19.42.31.11.11.2.25.26.39s.09.32.09.51c0 .36-.11.66-.34.89-.23.23-.54.36-.94.4v.64h-.51v-.64c-.44-.05-.78-.2-1.02-.47-.24-.27-.36-.62-.36-1.06h.93c0 .26.06.45.18.59.12.14.29.2.52.2.19 0 .34-.05.45-.15s.17-.2.17-.37zM239.69 82.14c-.24.24-.52.36-.85.36-.41 0-.75-.14-.99-.43-.25-.28-.37-.67-.37-1.15 0-.31.07-.59.2-.84.13-.26.32-.46.56-.6.24-.14.51-.21.81-.21.31 0 .58.08.82.23s.43.38.56.67.2.62.2.99v.34c0 .78-.19 1.39-.58 1.84-.39.45-.94.68-1.65.71h-.23v-.77h.21c.81-.04 1.25-.42 1.31-1.14zm-.62-.36c.15 0 .28-.04.39-.12s.19-.17.25-.28V81c0-.31-.06-.56-.18-.73a.565.565 0 0 0-.48-.26c-.19 0-.34.09-.46.26s-.18.38-.18.64c0 .25.06.46.18.63.11.16.27.24.48.24zM241.39 83.55c0-.15.05-.27.15-.36s.22-.14.37-.14.28.05.38.14c.1.09.15.21.15.36s-.05.26-.15.36c-.1.09-.23.14-.38.14s-.28-.05-.38-.14a.49.49 0 0 1-.14-.36zM245.39 82.14c-.24.24-.52.36-.85.36-.41 0-.75-.14-.99-.43-.25-.28-.37-.67-.37-1.15 0-.31.07-.59.2-.84.13-.26.32-.46.56-.6.24-.14.51-.21.81-.21.31 0 .58.08.82.23s.43.38.56.67.2.62.2.99v.34c0 .78-.19 1.39-.58 1.84-.39.45-.94.68-1.65.71h-.23v-.77h.21c.8-.04 1.24-.42 1.31-1.14zm-.62-.36c.15 0 .28-.04.39-.12s.19-.17.25-.28V81c0-.31-.06-.56-.18-.73a.565.565 0 0 0-.48-.26c-.19 0-.34.09-.46.26s-.18.38-.18.64c0 .25.06.46.18.63.1.16.26.24.48.24zM249.17 82.14c-.24.24-.52.36-.85.36-.41 0-.75-.14-.99-.43-.25-.28-.37-.67-.37-1.15 0-.31.07-.59.2-.84.13-.26.32-.46.56-.6.24-.14.51-.21.81-.21.31 0 .58.08.82.23s.43.38.56.67.2.62.2.99v.34c0 .78-.19 1.39-.58 1.84-.39.45-.94.68-1.65.71h-.23v-.77h.21c.8-.04 1.24-.42 1.31-1.14zm-.63-.36c.15 0 .28-.04.39-.12s.19-.17.25-.28V81c0-.31-.06-.56-.18-.73a.565.565 0 0 0-.48-.26c-.19 0-.34.09-.46.26s-.18.38-.18.64c0 .25.06.46.18.63.11.16.27.24.48.24zM251.1 84.41h-.69l1.72-5.08h.69l-1.72 5.08zM254.14 80.53l.03.39c.25-.3.58-.45 1-.45.45 0 .76.18.92.53.24-.35.59-.53 1.04-.53.38 0 .66.11.84.33s.28.55.28.99v2.22h-.93v-2.22c0-.2-.04-.34-.12-.43-.08-.09-.21-.14-.41-.14-.28 0-.47.13-.58.4v2.39h-.93v-2.22c0-.2-.04-.35-.12-.44-.08-.09-.21-.13-.41-.13-.26 0-.45.11-.57.33v2.46h-.93v-3.48h.89zM258.83 82.24c0-.35.07-.65.2-.92s.32-.48.57-.63c.25-.15.54-.22.87-.22.47 0 .85.14 1.15.43.3.29.46.68.5 1.17l.01.24c0 .53-.15.96-.45 1.28-.3.32-.7.48-1.2.48s-.9-.16-1.2-.48c-.3-.32-.45-.76-.45-1.31v-.04zm.93.06c0 .33.06.58.19.76.12.17.3.26.53.26.23 0 .4-.09.53-.26s.19-.45.19-.83c0-.32-.06-.58-.19-.75a.612.612 0 0 0-.53-.27c-.23 0-.4.09-.53.27s-.19.45-.19.82zM263.55 80.53l.03.4c.25-.31.58-.47 1-.47.37 0 .64.11.82.32.18.22.27.54.28.97V84h-.93v-2.23c0-.2-.04-.34-.13-.43-.09-.09-.23-.13-.43-.13-.26 0-.46.11-.59.33v2.45h-.93v-3.48h.88zM267.5 79.67v.86h.59v.68h-.59v1.74c0 .13.02.22.07.28s.14.08.28.08c.1 0 .19-.01.27-.02v.7c-.18.06-.37.08-.56.08-.65 0-.98-.33-1-.99V81.2h-.51v-.68h.51v-.86h.94zM269.52 80.91c.25-.3.56-.44.93-.44.75 0 1.14.44 1.15 1.32v2.23h-.93v-2.2c0-.2-.04-.35-.13-.44-.09-.1-.23-.14-.43-.14-.27 0-.47.1-.59.31v2.47h-.93v-4.94h.93v1.83z"/></g></svg>