<?xml version="1.0" encoding="utf-8"?>
<!-- Generator: Adobe Illustrator 24.2.3, SVG Export Plug-In . SVG Version: 6.00 Build 0)  -->
<svg version="1.1" id="Layer_1" xmlns="http://www.w3.org/2000/svg" xmlns:xlink="http://www.w3.org/1999/xlink" x="0px" y="0px"
	 viewBox="0 0 300 600" style="enable-background:new 0 0 300 600;" xml:space="preserve">
<style type="text/css">
	.st0{fill:url(#SVGID_1_);}
</style>
<linearGradient id="SVGID_1_" gradientUnits="userSpaceOnUse" x1="21.9375" y1="269.6418" x2="276.6719" y2="269.6418">
	<stop  offset="0" style="stop-color:#18B9FB"/>
	<stop  offset="0.5" style="stop-color:#782EEB"/>
	<stop  offset="1" style="stop-color:#E82D8A"/>
</linearGradient>
<path class="st0" d="M56.49,229.17h-2.97v8.05h-5.48v-22.75h8.95c2.7,0,4.81,0.6,6.33,1.79c1.52,1.2,2.28,2.89,2.28,5.07
	c0,1.58-0.32,2.89-0.96,3.93c-0.64,1.04-1.64,1.88-3.01,2.53l4.75,9.19v0.23h-5.88L56.49,229.17z M53.52,224.96h3.47
	c1.04,0,1.83-0.27,2.35-0.82c0.53-0.55,0.79-1.31,0.79-2.29s-0.27-1.75-0.8-2.31s-1.31-0.84-2.34-0.84h-3.47V224.96z M76.85,237.53
	c-2.59,0-4.69-0.77-6.3-2.32c-1.6-1.55-2.41-3.56-2.41-6.04v-0.44c0-1.73,0.32-3.25,0.96-4.58c0.64-1.32,1.58-2.35,2.8-3.07
	c1.23-0.72,2.69-1.09,4.38-1.09c2.38,0,4.25,0.74,5.62,2.21c1.38,1.47,2.06,3.53,2.06,6.16v2.05H73.51c0.19,0.95,0.6,1.69,1.23,2.23
	c0.63,0.54,1.46,0.81,2.47,0.81c1.67,0,2.97-0.58,3.91-1.75l2.41,2.84c-0.66,0.91-1.59,1.63-2.79,2.16
	C79.53,237.27,78.24,237.53,76.85,237.53z M76.26,224.06c-1.54,0-2.46,1.02-2.75,3.06h5.31v-0.41c0.02-0.84-0.19-1.5-0.64-1.96
	C77.73,224.3,77.09,224.06,76.26,224.06z M93.24,233.47c0.74,0,1.31-0.2,1.72-0.6c0.41-0.4,0.6-0.96,0.59-1.68h4.94
	c0,1.85-0.66,3.38-1.99,4.56s-3.04,1.78-5.13,1.78c-2.46,0-4.4-0.77-5.81-2.31c-1.42-1.54-2.12-3.68-2.12-6.41v-0.22
	c0-1.71,0.31-3.22,0.95-4.52c0.63-1.31,1.54-2.31,2.73-3.02S91.7,220,93.32,220c2.2,0,3.94,0.61,5.23,1.83
	c1.29,1.22,1.94,2.87,1.94,4.95h-4.94c0-0.88-0.21-1.55-0.64-2.02c-0.43-0.47-1-0.7-1.72-0.7c-1.37,0-2.16,0.87-2.39,2.61
	c-0.07,0.55-0.11,1.31-0.11,2.28c0,1.7,0.2,2.88,0.61,3.53S92.36,233.47,93.24,233.47z M110.9,237.53c-2.59,0-4.69-0.77-6.3-2.32
	c-1.6-1.55-2.41-3.56-2.41-6.04v-0.44c0-1.73,0.32-3.25,0.96-4.58c0.64-1.32,1.58-2.35,2.8-3.07c1.23-0.72,2.69-1.09,4.38-1.09
	c2.38,0,4.25,0.74,5.62,2.21c1.38,1.47,2.06,3.53,2.06,6.16v2.05h-10.47c0.19,0.95,0.6,1.69,1.23,2.23
	c0.63,0.54,1.46,0.81,2.47,0.81c1.67,0,2.97-0.58,3.91-1.75l2.41,2.84c-0.66,0.91-1.59,1.63-2.79,2.16S112.28,237.53,110.9,237.53z
	 M110.3,224.06c-1.54,0-2.46,1.02-2.75,3.06h5.31v-0.41c0.02-0.84-0.19-1.5-0.64-1.96C111.78,224.3,111.14,224.06,110.3,224.06z
	 M120.1,215.96c0-0.75,0.27-1.36,0.81-1.84c0.54-0.48,1.24-0.72,2.11-0.72c0.86,0,1.57,0.24,2.11,0.72
	c0.54,0.48,0.81,1.09,0.81,1.84s-0.27,1.37-0.81,1.84c-0.54,0.48-1.25,0.72-2.11,0.72c-0.87,0-1.57-0.24-2.11-0.72
	C120.37,217.32,120.1,216.71,120.1,215.96z M125.7,237.22h-5.28v-16.91h5.28V237.22z M135.68,230.96l2.67-10.64h5.55l-5.52,16.91
	h-5.38l-5.52-16.91h5.56L135.68,230.96z M153.45,237.53c-2.59,0-4.69-0.77-6.3-2.32c-1.6-1.55-2.41-3.56-2.41-6.04v-0.44
	c0-1.73,0.32-3.25,0.96-4.58c0.64-1.32,1.58-2.35,2.8-3.07c1.23-0.72,2.69-1.09,4.38-1.09c2.38,0,4.25,0.74,5.62,2.21
	c1.38,1.47,2.06,3.53,2.06,6.16v2.05H150.1c0.19,0.95,0.6,1.69,1.23,2.23c0.63,0.54,1.46,0.81,2.47,0.81c1.67,0,2.97-0.58,3.91-1.75
	l2.41,2.84c-0.66,0.91-1.59,1.63-2.79,2.16S154.83,237.53,153.45,237.53z M152.85,224.06c-1.54,0-2.46,1.02-2.75,3.06h5.31v-0.41
	c0.02-0.84-0.19-1.5-0.64-1.96C154.33,224.3,153.68,224.06,152.85,224.06z M177.8,233.47c0.74,0,1.31-0.2,1.72-0.6
	c0.41-0.4,0.6-0.96,0.59-1.68h4.94c0,1.85-0.66,3.38-1.99,4.56c-1.33,1.19-3.04,1.78-5.13,1.78c-2.46,0-4.4-0.77-5.81-2.31
	c-1.42-1.54-2.12-3.68-2.12-6.41v-0.22c0-1.71,0.31-3.22,0.95-4.52c0.63-1.31,1.54-2.31,2.73-3.02s2.59-1.05,4.22-1.05
	c2.2,0,3.94,0.61,5.23,1.83c1.29,1.22,1.94,2.87,1.94,4.95h-4.94c0-0.88-0.21-1.55-0.64-2.02c-0.43-0.47-1-0.7-1.72-0.7
	c-1.37,0-2.16,0.87-2.39,2.61c-0.07,0.55-0.11,1.31-0.11,2.28c0,1.7,0.2,2.88,0.61,3.53S176.92,233.47,177.8,233.47z M197.51,225.08
	l-1.73-0.12c-1.66,0-2.72,0.52-3.19,1.56v10.7h-5.27v-16.91h4.94l0.17,2.17c0.88-1.66,2.12-2.48,3.7-2.48
	c0.56,0,1.05,0.06,1.47,0.19L197.51,225.08z M207.29,237.53c-2.59,0-4.69-0.77-6.3-2.32c-1.6-1.55-2.41-3.56-2.41-6.04v-0.44
	c0-1.73,0.32-3.25,0.96-4.58c0.64-1.32,1.58-2.35,2.8-3.07c1.23-0.72,2.69-1.09,4.38-1.09c2.38,0,4.25,0.74,5.62,2.21
	c1.38,1.47,2.06,3.53,2.06,6.16v2.05h-10.47c0.19,0.95,0.6,1.69,1.23,2.23c0.63,0.54,1.46,0.81,2.47,0.81
	c1.67,0,2.97-0.58,3.91-1.75l2.41,2.84c-0.66,0.91-1.59,1.63-2.79,2.16S208.67,237.53,207.29,237.53z M206.7,224.06
	c-1.54,0-2.46,1.02-2.75,3.06h5.31v-0.41c0.02-0.84-0.19-1.5-0.64-1.96C208.17,224.3,207.53,224.06,206.7,224.06z M215.87,228.64
	c0-2.68,0.58-4.79,1.73-6.33c1.16-1.54,2.77-2.31,4.84-2.31c1.51,0,2.78,0.59,3.81,1.78v-8.56h5.28v24h-4.73l-0.27-1.81
	c-1.08,1.42-2.46,2.12-4.12,2.12c-2.01,0-3.6-0.77-4.78-2.31C216.46,233.68,215.87,231.49,215.87,228.64z M221.13,228.97
	c0,3,0.88,4.5,2.62,4.5c1.17,0,2-0.49,2.5-1.47v-6.44c-0.48-1-1.3-1.5-2.47-1.5c-1.62,0-2.51,1.31-2.64,3.94L221.13,228.97z
	 M234.49,215.96c0-0.75,0.27-1.36,0.81-1.84c0.54-0.48,1.24-0.72,2.11-0.72c0.86,0,1.57,0.24,2.11,0.72
	c0.54,0.48,0.81,1.09,0.81,1.84s-0.27,1.37-0.81,1.84c-0.54,0.48-1.25,0.72-2.11,0.72c-0.87,0-1.57-0.24-2.11-0.72
	C234.76,217.32,234.49,216.71,234.49,215.96z M240.09,237.22h-5.28v-16.91h5.28V237.22z M249.46,216.11v4.2h2.78v3.66h-2.78v7.73
	c0,0.64,0.11,1.08,0.34,1.33c0.23,0.25,0.68,0.38,1.36,0.38c0.52,0,0.96-0.03,1.31-0.09v3.77c-0.95,0.3-1.94,0.45-2.97,0.45
	c-1.81,0-3.15-0.43-4.02-1.28c-0.87-0.85-1.3-2.15-1.3-3.89v-8.39h-2.16v-3.66h2.16v-4.2H249.46z M26.88,258.71l0.17,1.98
	c1.2-1.53,2.81-2.3,4.83-2.3c2.13,0,3.58,0.85,4.33,2.55c1.15-1.7,2.8-2.55,4.97-2.55c3.43,0,5.19,2.07,5.28,6.22v11h-5.28v-10.67
	c0-0.86-0.15-1.49-0.44-1.89c-0.29-0.4-0.82-0.59-1.59-0.59c-1.04,0-1.82,0.46-2.33,1.39l0.02,0.22v11.55h-5.28v-10.64
	c0-0.88-0.14-1.53-0.42-1.92c-0.28-0.4-0.82-0.59-1.61-0.59c-1.01,0-1.78,0.46-2.31,1.39v11.77h-5.27v-16.91H26.88z M48.8,267.01
	c0-1.69,0.33-3.19,0.98-4.51c0.66-1.32,1.6-2.33,2.83-3.04c1.23-0.71,2.67-1.06,4.33-1.06c2.53,0,4.53,0.78,5.98,2.35
	c1.46,1.57,2.19,3.7,2.19,6.4v0.19c0,2.64-0.73,4.73-2.2,6.27c-1.46,1.55-3.45,2.32-5.95,2.32c-2.41,0-4.34-0.72-5.8-2.16
	c-1.46-1.44-2.25-3.4-2.36-5.87L48.8,267.01z M54.06,267.34c0,1.56,0.24,2.71,0.73,3.44c0.49,0.73,1.21,1.09,2.17,1.09
	c1.88,0,2.83-1.44,2.88-4.33v-0.53c0-3.03-0.97-4.55-2.91-4.55c-1.76,0-2.71,1.31-2.86,3.92L54.06,267.34z M72.27,258.71l0.17,1.98
	c1.17-1.53,2.78-2.3,4.83-2.3c1.76,0,3.08,0.53,3.95,1.58c0.87,1.05,1.32,2.64,1.35,4.75v10.89h-5.28v-10.67
	c0-0.85-0.17-1.48-0.52-1.88c-0.34-0.4-0.97-0.6-1.88-0.6c-1.03,0-1.8,0.41-2.3,1.22v11.94h-5.27v-16.91H72.27z M85.44,254.36
	c0-0.75,0.27-1.36,0.81-1.84c0.54-0.48,1.24-0.72,2.11-0.72c0.86,0,1.57,0.24,2.11,0.72c0.54,0.48,0.81,1.09,0.81,1.84
	c0,0.75-0.27,1.36-0.81,1.84c-0.54,0.48-1.25,0.72-2.11,0.72c-0.87,0-1.57-0.24-2.11-0.72C85.71,255.72,85.44,255.11,85.44,254.36z
	 M91.03,275.62h-5.28v-16.91h5.28V275.62z M100.41,254.51v4.2h2.78v3.66h-2.78v7.73c0,0.64,0.11,1.08,0.34,1.33
	c0.23,0.25,0.68,0.38,1.36,0.38c0.52,0,0.96-0.03,1.31-0.09v3.77c-0.95,0.3-1.94,0.45-2.97,0.45c-1.81,0-3.15-0.43-4.02-1.28
	c-0.87-0.85-1.3-2.15-1.3-3.89v-8.39h-2.16v-3.66h2.16v-4.2H100.41z M104.12,267.01c0-1.69,0.33-3.19,0.98-4.51
	c0.66-1.32,1.6-2.33,2.83-3.04c1.23-0.71,2.67-1.06,4.33-1.06c2.53,0,4.53,0.78,5.98,2.35c1.46,1.57,2.19,3.7,2.19,6.4v0.19
	c0,2.64-0.73,4.73-2.2,6.27c-1.46,1.55-3.45,2.32-5.95,2.32c-2.41,0-4.34-0.72-5.8-2.16c-1.46-1.44-2.25-3.4-2.36-5.87
	L104.12,267.01z M109.39,267.34c0,1.56,0.24,2.71,0.73,3.44c0.49,0.73,1.21,1.09,2.17,1.09c1.88,0,2.83-1.44,2.88-4.33v-0.53
	c0-3.03-0.97-4.55-2.91-4.55c-1.76,0-2.71,1.31-2.86,3.92L109.39,267.34z M132.98,263.48l-1.73-0.12c-1.66,0-2.72,0.52-3.19,1.56
	v10.7h-5.27v-16.91h4.94l0.17,2.17c0.88-1.66,2.12-2.48,3.7-2.48c0.56,0,1.05,0.06,1.47,0.19L132.98,263.48z M134.84,254.36
	c0-0.75,0.27-1.36,0.81-1.84c0.54-0.48,1.24-0.72,2.11-0.72c0.86,0,1.57,0.24,2.11,0.72c0.54,0.48,0.81,1.09,0.81,1.84
	c0,0.75-0.27,1.36-0.81,1.84c-0.54,0.48-1.25,0.72-2.11,0.72c-0.87,0-1.57-0.24-2.11-0.72
	C135.11,255.72,134.84,255.11,134.84,254.36z M140.44,275.62h-5.28v-16.91h5.28V275.62z M148.52,258.71l0.17,1.98
	c1.17-1.53,2.78-2.3,4.83-2.3c1.76,0,3.08,0.53,3.95,1.58c0.87,1.05,1.32,2.64,1.35,4.75v10.89h-5.28v-10.67
	c0-0.85-0.17-1.48-0.52-1.88c-0.34-0.4-0.97-0.6-1.88-0.6c-1.03,0-1.8,0.41-2.3,1.22v11.94h-5.27v-16.91H148.52z M161.11,267.04
	c0-1.71,0.28-3.22,0.84-4.53s1.37-2.33,2.42-3.04c1.05-0.71,2.28-1.07,3.67-1.07c1.76,0,3.13,0.59,4.12,1.78l0.19-1.47h4.78v16.27
	c0,1.49-0.35,2.78-1.04,3.88c-0.69,1.1-1.7,1.94-3.01,2.53c-1.31,0.59-2.83,0.88-4.56,0.88c-1.24,0-2.44-0.23-3.6-0.7
	c-1.16-0.47-2.05-1.08-2.66-1.83l2.2-3.09c0.98,1.16,2.27,1.73,3.88,1.73c2.33,0,3.5-1.2,3.5-3.59v-0.53
	c-1.01,1.12-2.29,1.67-3.83,1.67c-2.06,0-3.73-0.79-5-2.37c-1.27-1.58-1.91-3.69-1.91-6.34V267.04z M166.39,267.37
	c0,1.39,0.26,2.48,0.78,3.29c0.52,0.81,1.25,1.21,2.19,1.21c1.13,0,1.96-0.38,2.48-1.14v-7.11c-0.51-0.77-1.33-1.16-2.45-1.16
	c-0.94,0-1.67,0.42-2.2,1.26C166.66,264.56,166.39,265.78,166.39,267.37z M197.62,275.62c-0.19-0.34-0.35-0.85-0.5-1.52
	c-0.97,1.22-2.32,1.83-4.06,1.83c-1.59,0-2.95-0.48-4.06-1.45c-1.12-0.96-1.67-2.17-1.67-3.63c0-1.83,0.68-3.22,2.03-4.16
	c1.35-0.94,3.32-1.41,5.91-1.41h1.62v-0.89c0-1.56-0.67-2.34-2.02-2.34c-1.25,0-1.88,0.62-1.88,1.85h-5.27
	c0-1.63,0.7-2.96,2.09-3.98s3.16-1.53,5.32-1.53s3.86,0.53,5.11,1.58c1.25,1.05,1.89,2.5,1.92,4.33v7.48
	c0.02,1.55,0.26,2.74,0.72,3.56v0.27H197.62z M194.33,272.18c0.66,0,1.2-0.14,1.63-0.42c0.43-0.28,0.74-0.6,0.93-0.95v-2.7h-1.53
	c-1.83,0-2.75,0.82-2.75,2.47c0,0.48,0.16,0.87,0.48,1.16C193.42,272.04,193.83,272.18,194.33,272.18z M210.64,275.62h-5.28v-24
	h5.28V275.62z M222.06,275.93c-2.59,0-4.69-0.77-6.3-2.32c-1.6-1.55-2.41-3.56-2.41-6.04v-0.44c0-1.73,0.32-3.25,0.96-4.58
	c0.64-1.32,1.58-2.35,2.8-3.07c1.23-0.72,2.69-1.09,4.38-1.09c2.38,0,4.25,0.74,5.62,2.21c1.38,1.47,2.06,3.53,2.06,6.16v2.05
	h-10.47c0.19,0.95,0.6,1.69,1.23,2.23c0.63,0.54,1.46,0.81,2.47,0.81c1.67,0,2.97-0.58,3.91-1.75l2.41,2.84
	c-0.66,0.91-1.59,1.63-2.79,2.16S223.45,275.93,222.06,275.93z M221.47,262.46c-1.54,0-2.46,1.02-2.75,3.06h5.31v-0.41
	c0.02-0.84-0.19-1.5-0.64-1.96C222.94,262.7,222.3,262.46,221.47,262.46z M241.53,263.48l-1.73-0.12c-1.66,0-2.72,0.52-3.19,1.56
	v10.7h-5.27v-16.91h4.94l0.17,2.17c0.88-1.66,2.12-2.48,3.7-2.48c0.56,0,1.05,0.06,1.47,0.19L241.53,263.48z M250.34,254.51v4.2
	h2.78v3.66h-2.78v7.73c0,0.64,0.11,1.08,0.34,1.33c0.23,0.25,0.68,0.38,1.36,0.38c0.52,0,0.96-0.03,1.31-0.09v3.77
	c-0.95,0.3-1.94,0.45-2.97,0.45c-1.81,0-3.15-0.43-4.02-1.28c-0.87-0.85-1.3-2.15-1.3-3.89v-8.39h-2.16v-3.66h2.16v-4.2H250.34z
	 M264.05,270.87c0-0.45-0.23-0.81-0.7-1.08c-0.47-0.27-1.36-0.55-2.67-0.84c-1.31-0.29-2.4-0.67-3.25-1.15
	c-0.85-0.47-1.51-1.05-1.95-1.73c-0.45-0.68-0.67-1.45-0.67-2.33c0-1.55,0.64-2.83,1.92-3.84c1.28-1,2.96-1.51,5.03-1.51
	c2.23,0,4.02,0.51,5.38,1.52c1.35,1.01,2.03,2.34,2.03,3.98h-5.28c0-1.35-0.71-2.03-2.14-2.03c-0.55,0-1.02,0.15-1.39,0.46
	c-0.38,0.31-0.56,0.69-0.56,1.15c0,0.47,0.23,0.85,0.69,1.14c0.46,0.29,1.19,0.53,2.2,0.72c1,0.19,1.89,0.41,2.65,0.67
	c2.54,0.88,3.81,2.44,3.81,4.7c0,1.54-0.69,2.8-2.05,3.77c-1.37,0.97-3.14,1.45-5.32,1.45c-1.45,0-2.74-0.26-3.88-0.78
	c-1.14-0.52-2.02-1.23-2.66-2.12c-0.64-0.9-0.95-1.84-0.95-2.83h4.92c0.02,0.78,0.28,1.35,0.78,1.71s1.14,0.54,1.92,0.54
	c0.72,0,1.26-0.15,1.62-0.44C263.87,271.72,264.05,271.34,264.05,270.87z M273.44,281.75l-2.66-1.25l0.53-1.06
	c0.73-1.35,1.11-2.65,1.14-3.88v-3.91h4.22l-0.02,3.39c-0.01,1.2-0.32,2.42-0.92,3.66C275.13,279.94,274.36,280.95,273.44,281.75z
	 M129.39,323.62h-19.84v-4.3l9.14-9.61c2.25-2.57,3.38-4.6,3.38-6.11c0-1.22-0.27-2.16-0.8-2.79s-1.31-0.96-2.32-0.96
	c-1,0-1.82,0.43-2.44,1.28s-0.94,1.92-0.94,3.19h-6.6c0-1.75,0.44-3.36,1.31-4.83s2.08-2.63,3.63-3.47s3.28-1.25,5.2-1.25
	c3.07,0,5.44,0.71,7.1,2.13s2.49,3.46,2.49,6.11c0,1.12-0.21,2.21-0.62,3.27s-1.06,2.17-1.94,3.34s-2.29,2.72-4.25,4.68l-3.67,4.24
	h11.19V323.62z M150.1,312.51h2.89v5.08h-2.89v6.04h-6.58v-6.04h-11l-0.39-4.02l11.39-18.32v-0.06h6.58V312.51z M138.4,312.51h5.12
	v-8.75l-0.41,0.66L138.4,312.51z M158.24,326.06h-4.67l9.71-30.88h4.69L158.24,326.06z M189.69,298.7l-10.62,24.92h-6.95
	l10.64-23.36H169.2v-5.08h20.49V298.7z"/>
</svg>
