<?xml version="1.0" encoding="utf-8"?>
<!-- Generator: Adobe Illustrator 24.2.3, SVG Export Plug-In . SVG Version: 6.00 Build 0)  -->
<svg version="1.1" id="Layer_1" xmlns="http://www.w3.org/2000/svg" xmlns:xlink="http://www.w3.org/1999/xlink" x="0px" y="0px"
	 viewBox="0 0 320 100" style="enable-background:new 0 0 320 100;" xml:space="preserve">
<style type="text/css">
	.st0{fill:url(#SVGID_1_);}
</style>
<linearGradient id="SVGID_1_" gradientUnits="userSpaceOnUse" x1="16.0068" y1="69.3137" x2="235.6045" y2="69.3137">
	<stop  offset="0" style="stop-color:#18B9FB"/>
	<stop  offset="0.5" style="stop-color:#782EEB"/>
	<stop  offset="1" style="stop-color:#E82D8A"/>
</linearGradient>
<path class="st0" d="M19.61,56.01l2.26,7.03l2.25-7.03h3.21v10.11h-2.44v-2.36l0.24-4.83l-2.44,7.19h-1.61l-2.45-7.2l0.24,4.84v2.36
	h-2.44V56.01H19.61z M28.47,62.29c0-0.75,0.15-1.42,0.44-2s0.71-1.04,1.26-1.35c0.55-0.31,1.19-0.47,1.92-0.47
	c1.12,0,2.01,0.35,2.66,1.05c0.65,0.7,0.97,1.64,0.97,2.84v0.08c0,1.17-0.33,2.1-0.98,2.79c-0.65,0.69-1.53,1.03-2.64,1.03
	c-1.07,0-1.93-0.32-2.58-0.96c-0.65-0.64-1-1.51-1.05-2.61L28.47,62.29z M30.81,62.44c0,0.69,0.11,1.2,0.33,1.53
	s0.54,0.49,0.97,0.49c0.83,0,1.26-0.64,1.28-1.92v-0.24c0-1.35-0.43-2.02-1.29-2.02c-0.78,0-1.21,0.58-1.27,1.74L30.81,62.44z
	 M38.9,58.6l0.08,0.88c0.52-0.68,1.23-1.02,2.15-1.02c0.78,0,1.37,0.23,1.75,0.7c0.39,0.47,0.59,1.17,0.6,2.11v4.84h-2.35v-4.74
	c0-0.38-0.08-0.66-0.23-0.84c-0.15-0.18-0.43-0.27-0.83-0.27c-0.46,0-0.8,0.18-1.02,0.54v5.3H36.7V58.6H38.9z M44.75,56.67
	c0-0.33,0.12-0.61,0.36-0.82c0.24-0.21,0.55-0.32,0.94-0.32c0.38,0,0.7,0.11,0.94,0.32c0.24,0.21,0.36,0.49,0.36,0.82
	c0,0.33-0.12,0.61-0.36,0.82s-0.55,0.32-0.94,0.32c-0.38,0-0.7-0.11-0.94-0.32S44.75,57,44.75,56.67z M47.23,66.11h-2.35V58.6h2.35
	V66.11z M51.4,56.74v1.87h1.24v1.62H51.4v3.44c0,0.28,0.05,0.48,0.15,0.59c0.1,0.11,0.3,0.17,0.6,0.17c0.23,0,0.43-0.01,0.58-0.04
	v1.67c-0.42,0.13-0.86,0.2-1.32,0.2c-0.81,0-1.4-0.19-1.78-0.57s-0.58-0.96-0.58-1.73v-3.73H48.1V58.6h0.96v-1.87H51.4z
	 M53.05,62.29c0-0.75,0.15-1.42,0.44-2s0.71-1.04,1.26-1.35c0.55-0.31,1.19-0.47,1.92-0.47c1.12,0,2.01,0.35,2.66,1.05
	c0.65,0.7,0.97,1.64,0.97,2.84v0.08c0,1.17-0.33,2.1-0.98,2.79c-0.65,0.69-1.53,1.03-2.64,1.03c-1.07,0-1.93-0.32-2.58-0.96
	c-0.65-0.64-1-1.51-1.05-2.61L53.05,62.29z M55.39,62.44c0,0.69,0.11,1.2,0.33,1.53c0.22,0.32,0.54,0.49,0.97,0.49
	c0.83,0,1.26-0.64,1.28-1.92v-0.24c0-1.35-0.43-2.02-1.29-2.02c-0.78,0-1.21,0.58-1.27,1.74L55.39,62.44z M65.87,60.72l-0.77-0.06
	c-0.74,0-1.21,0.23-1.42,0.69v4.76h-2.34V58.6h2.19l0.08,0.97c0.39-0.74,0.94-1.1,1.65-1.1c0.25,0,0.47,0.03,0.65,0.08L65.87,60.72z
	 M73.26,62.84l1.25-4.23h2.51l-3.06,8.77l-0.13,0.32c-0.44,0.97-1.2,1.46-2.3,1.46c-0.31,0-0.63-0.05-0.97-0.14v-1.67h0.31
	c0.33,0,0.58-0.05,0.75-0.14c0.17-0.09,0.3-0.27,0.39-0.51l0.19-0.5l-2.61-7.59h2.5L73.26,62.84z M77.23,62.29
	c0-0.75,0.15-1.42,0.44-2c0.29-0.59,0.71-1.04,1.26-1.35c0.55-0.31,1.19-0.47,1.92-0.47c1.12,0,2.01,0.35,2.66,1.05
	c0.65,0.7,0.97,1.64,0.97,2.84v0.08c0,1.17-0.33,2.1-0.98,2.79c-0.65,0.69-1.53,1.03-2.64,1.03c-1.07,0-1.93-0.32-2.58-0.96
	c-0.65-0.64-1-1.51-1.05-2.61L77.23,62.29z M79.57,62.44c0,0.69,0.11,1.2,0.33,1.53c0.22,0.32,0.54,0.49,0.97,0.49
	c0.83,0,1.26-0.64,1.28-1.92v-0.24c0-1.35-0.43-2.02-1.29-2.02c-0.78,0-1.21,0.58-1.27,1.74L79.57,62.44z M89.98,65.3
	c-0.5,0.63-1.16,0.95-2.01,0.95c-0.82,0-1.45-0.24-1.87-0.72c-0.42-0.48-0.64-1.17-0.64-2.07V58.6h2.34v4.88
	c0,0.64,0.31,0.97,0.94,0.97c0.54,0,0.92-0.19,1.15-0.58V58.6h2.35v7.51h-2.19L89.98,65.3z M98.07,60.72l-0.77-0.06
	c-0.74,0-1.21,0.23-1.42,0.69v4.76h-2.34V58.6h2.19l0.08,0.97c0.39-0.74,0.94-1.1,1.65-1.1c0.25,0,0.47,0.03,0.65,0.08L98.07,60.72z
	 M109.42,62.41c0,1.17-0.26,2.1-0.79,2.79c-0.53,0.7-1.23,1.05-2.13,1.05c-0.69,0-1.26-0.25-1.7-0.76V69h-2.34V58.6h2.19l0.07,0.69
	c0.45-0.56,1.04-0.83,1.77-0.83c0.93,0,1.65,0.34,2.16,1.02c0.51,0.68,0.77,1.62,0.77,2.82V62.41z M107.09,62.27
	c0-1.33-0.39-2-1.17-2c-0.56,0-0.93,0.2-1.11,0.6v2.96c0.2,0.42,0.58,0.62,1.12,0.62c0.75,0,1.13-0.64,1.15-1.93V62.27z
	 M114.09,66.25c-1.15,0-2.09-0.34-2.8-1.03c-0.71-0.69-1.07-1.58-1.07-2.68v-0.19c0-0.77,0.14-1.45,0.43-2.03
	c0.28-0.59,0.7-1.04,1.25-1.36c0.55-0.32,1.19-0.48,1.94-0.48c1.06,0,1.89,0.33,2.5,0.98c0.61,0.66,0.92,1.57,0.92,2.74v0.91h-4.65
	c0.08,0.42,0.27,0.75,0.55,0.99c0.28,0.24,0.65,0.36,1.1,0.36c0.74,0,1.32-0.26,1.74-0.78l1.07,1.26c-0.29,0.4-0.7,0.72-1.24,0.96
	C115.28,66.13,114.71,66.25,114.09,66.25z M113.83,60.27c-0.68,0-1.09,0.45-1.22,1.36h2.36v-0.18c0.01-0.37-0.09-0.67-0.28-0.87
	S114.2,60.27,113.83,60.27z M122.74,60.72l-0.77-0.06c-0.74,0-1.21,0.23-1.42,0.69v4.76h-2.34V58.6h2.19l0.08,0.97
	c0.39-0.74,0.94-1.1,1.65-1.1c0.25,0,0.47,0.03,0.65,0.08L122.74,60.72z M127.52,64c0-0.2-0.1-0.36-0.31-0.48s-0.6-0.25-1.19-0.37
	s-1.06-0.3-1.44-0.51c-0.38-0.21-0.67-0.47-0.87-0.77c-0.2-0.3-0.3-0.65-0.3-1.03c0-0.69,0.28-1.26,0.85-1.7
	c0.57-0.45,1.31-0.67,2.24-0.67c0.99,0,1.79,0.22,2.39,0.67s0.9,1.04,0.9,1.77h-2.35c0-0.6-0.32-0.9-0.95-0.9
	c-0.25,0-0.45,0.07-0.62,0.2c-0.17,0.14-0.25,0.31-0.25,0.51c0,0.21,0.1,0.38,0.31,0.51c0.2,0.13,0.53,0.24,0.98,0.32
	c0.45,0.08,0.84,0.18,1.18,0.3c1.13,0.39,1.69,1.09,1.69,2.09c0,0.68-0.3,1.24-0.91,1.67c-0.61,0.43-1.4,0.65-2.36,0.65
	c-0.64,0-1.22-0.12-1.72-0.35c-0.5-0.23-0.9-0.55-1.18-0.94c-0.28-0.4-0.42-0.82-0.42-1.26h2.19c0.01,0.35,0.12,0.6,0.35,0.76
	c0.22,0.16,0.51,0.24,0.85,0.24c0.32,0,0.56-0.06,0.72-0.19C127.44,64.38,127.52,64.21,127.52,64z M130.57,62.29
	c0-0.75,0.15-1.42,0.44-2c0.29-0.59,0.71-1.04,1.26-1.35c0.55-0.31,1.19-0.47,1.92-0.47c1.12,0,2.01,0.35,2.66,1.05
	c0.65,0.7,0.97,1.64,0.97,2.84v0.08c0,1.17-0.33,2.1-0.98,2.79c-0.65,0.69-1.53,1.03-2.64,1.03c-1.07,0-1.93-0.32-2.58-0.96
	c-0.65-0.64-1-1.51-1.05-2.61L130.57,62.29z M132.91,62.44c0,0.69,0.11,1.2,0.33,1.53s0.54,0.49,0.97,0.49
	c0.83,0,1.26-0.64,1.28-1.92v-0.24c0-1.35-0.43-2.02-1.29-2.02c-0.78,0-1.21,0.58-1.27,1.74L132.91,62.44z M141,58.6l0.08,0.88
	c0.52-0.68,1.23-1.02,2.15-1.02c0.78,0,1.37,0.23,1.75,0.7c0.39,0.47,0.59,1.17,0.6,2.11v4.84h-2.35v-4.74
	c0-0.38-0.08-0.66-0.23-0.84c-0.15-0.18-0.43-0.27-0.83-0.27c-0.46,0-0.8,0.18-1.02,0.54v5.3h-2.34V58.6H141z M151.1,66.11
	c-0.08-0.15-0.16-0.38-0.22-0.67c-0.43,0.54-1.03,0.81-1.81,0.81c-0.71,0-1.31-0.21-1.81-0.64c-0.5-0.43-0.74-0.97-0.74-1.61
	c0-0.81,0.3-1.43,0.9-1.85s1.48-0.62,2.62-0.62h0.72v-0.4c0-0.69-0.3-1.04-0.9-1.04c-0.56,0-0.83,0.27-0.83,0.82h-2.34
	c0-0.73,0.31-1.32,0.93-1.77c0.62-0.45,1.41-0.68,2.36-0.68c0.96,0,1.71,0.23,2.27,0.7c0.56,0.47,0.84,1.11,0.85,1.92v3.33
	c0.01,0.69,0.12,1.22,0.32,1.58v0.12H151.1z M149.64,64.59c0.29,0,0.53-0.06,0.73-0.19c0.19-0.12,0.33-0.27,0.41-0.42v-1.2h-0.68
	c-0.81,0-1.22,0.37-1.22,1.1c0,0.21,0.07,0.39,0.22,0.52C149.23,64.52,149.41,64.59,149.64,64.59z M156.88,66.11h-2.35V55.45h2.35
	V66.11z M161.85,56.67c0-0.33,0.12-0.61,0.36-0.82c0.24-0.21,0.55-0.32,0.94-0.32c0.38,0,0.7,0.11,0.94,0.32
	c0.24,0.21,0.36,0.49,0.36,0.82c0,0.33-0.12,0.61-0.36,0.82s-0.55,0.32-0.94,0.32c-0.38,0-0.7-0.11-0.94-0.32
	S161.85,57,161.85,56.67z M164.33,66.11h-2.35V58.6h2.35V66.11z M167.92,58.6l0.08,0.88c0.52-0.68,1.23-1.02,2.15-1.02
	c0.78,0,1.37,0.23,1.75,0.7c0.39,0.47,0.59,1.17,0.6,2.11v4.84h-2.35v-4.74c0-0.38-0.08-0.66-0.23-0.84
	c-0.15-0.18-0.43-0.27-0.83-0.27c-0.46,0-0.8,0.18-1.02,0.54v5.3h-2.34V58.6H167.92z M174.31,66.11v-5.89h-1.09V58.6h1.09v-0.6
	c0-0.86,0.25-1.52,0.76-1.99s1.21-0.71,2.12-0.71c0.33,0,0.7,0.05,1.1,0.15l0.01,1.72c-0.14-0.04-0.34-0.06-0.58-0.06
	c-0.71,0-1.06,0.31-1.06,0.92v0.58h1.46v1.62h-1.46v5.89H174.31z M178.65,62.29c0-0.75,0.15-1.42,0.44-2s0.71-1.04,1.26-1.35
	c0.55-0.31,1.19-0.47,1.92-0.47c1.12,0,2.01,0.35,2.66,1.05c0.65,0.7,0.97,1.64,0.97,2.84v0.08c0,1.17-0.33,2.1-0.98,2.79
	c-0.65,0.69-1.53,1.03-2.64,1.03c-1.07,0-1.93-0.32-2.58-0.96c-0.65-0.64-1-1.51-1.05-2.61L178.65,62.29z M180.99,62.44
	c0,0.69,0.11,1.2,0.33,1.53s0.54,0.49,0.97,0.49c0.83,0,1.26-0.64,1.28-1.92v-0.24c0-1.35-0.43-2.02-1.29-2.02
	c-0.78,0-1.21,0.58-1.27,1.74L180.99,62.44z M191.47,60.72l-0.77-0.06c-0.74,0-1.21,0.23-1.42,0.69v4.76h-2.34V58.6h2.19l0.08,0.97
	c0.39-0.74,0.94-1.1,1.65-1.1c0.25,0,0.47,0.03,0.65,0.08L191.47,60.72z M194.53,58.6l0.08,0.88c0.53-0.68,1.25-1.02,2.15-1.02
	c0.95,0,1.59,0.38,1.92,1.13c0.51-0.75,1.25-1.13,2.21-1.13c1.52,0,2.3,0.92,2.35,2.76v4.89h-2.35v-4.74c0-0.38-0.06-0.66-0.19-0.84
	s-0.37-0.26-0.71-0.26c-0.46,0-0.81,0.21-1.03,0.62l0.01,0.1v5.13h-2.35v-4.73c0-0.39-0.06-0.68-0.19-0.85
	c-0.12-0.18-0.36-0.26-0.72-0.26c-0.45,0-0.79,0.21-1.03,0.62v5.23h-2.34V58.6H194.53z M208.79,66.11
	c-0.08-0.15-0.16-0.38-0.22-0.67c-0.43,0.54-1.03,0.81-1.81,0.81c-0.71,0-1.31-0.21-1.81-0.64c-0.5-0.43-0.74-0.97-0.74-1.61
	c0-0.81,0.3-1.43,0.9-1.85s1.48-0.62,2.62-0.62h0.72v-0.4c0-0.69-0.3-1.04-0.9-1.04c-0.56,0-0.83,0.27-0.83,0.82h-2.34
	c0-0.73,0.31-1.32,0.93-1.77c0.62-0.45,1.41-0.68,2.36-0.68c0.96,0,1.71,0.23,2.27,0.7c0.56,0.47,0.84,1.11,0.85,1.92v3.33
	c0.01,0.69,0.12,1.22,0.32,1.58v0.12H208.79z M207.33,64.59c0.29,0,0.53-0.06,0.73-0.19c0.19-0.12,0.33-0.27,0.41-0.42v-1.2h-0.68
	c-0.81,0-1.22,0.37-1.22,1.1c0,0.21,0.07,0.39,0.22,0.52C206.92,64.52,207.11,64.59,207.33,64.59z M214.83,56.74v1.87h1.24v1.62
	h-1.24v3.44c0,0.28,0.05,0.48,0.15,0.59c0.1,0.11,0.3,0.17,0.6,0.17c0.23,0,0.43-0.01,0.58-0.04v1.67c-0.42,0.13-0.86,0.2-1.32,0.2
	c-0.81,0-1.4-0.19-1.78-0.57s-0.58-0.96-0.58-1.73v-3.73h-0.96V58.6h0.96v-1.87H214.83z M216.97,56.67c0-0.33,0.12-0.61,0.36-0.82
	c0.24-0.21,0.55-0.32,0.94-0.32s0.7,0.11,0.94,0.32c0.24,0.21,0.36,0.49,0.36,0.82c0,0.33-0.12,0.61-0.36,0.82
	c-0.24,0.21-0.55,0.32-0.94,0.32s-0.7-0.11-0.94-0.32C217.09,57.27,216.97,57,216.97,56.67z M219.46,66.11h-2.35V58.6h2.35V66.11z
	 M220.6,62.29c0-0.75,0.15-1.42,0.44-2s0.71-1.04,1.26-1.35c0.55-0.31,1.19-0.47,1.92-0.47c1.12,0,2.01,0.35,2.66,1.05
	c0.65,0.7,0.97,1.64,0.97,2.84v0.08c0,1.17-0.33,2.1-0.98,2.79c-0.65,0.69-1.53,1.03-2.64,1.03c-1.07,0-1.93-0.32-2.58-0.96
	c-0.65-0.64-1-1.51-1.05-2.61L220.6,62.29z M222.94,62.44c0,0.69,0.11,1.2,0.33,1.53c0.22,0.32,0.54,0.49,0.96,0.49
	c0.83,0,1.26-0.64,1.28-1.92v-0.24c0-1.35-0.43-2.02-1.29-2.02c-0.78,0-1.21,0.58-1.27,1.74L222.94,62.44z M231.03,58.6l0.08,0.88
	c0.52-0.68,1.23-1.02,2.15-1.02c0.78,0,1.37,0.23,1.75,0.7c0.39,0.47,0.59,1.17,0.6,2.11v4.84h-2.35v-4.74
	c0-0.38-0.08-0.66-0.23-0.84c-0.15-0.18-0.43-0.27-0.83-0.27c-0.46,0-0.8,0.18-1.02,0.54v5.3h-2.34V58.6H231.03z M16.01,79.35
	c0-0.75,0.15-1.42,0.44-2c0.29-0.59,0.71-1.04,1.26-1.35s1.19-0.47,1.92-0.47c1.12,0,2.01,0.35,2.66,1.05
	c0.65,0.7,0.97,1.64,0.97,2.84v0.08c0,1.17-0.33,2.1-0.98,2.79c-0.65,0.69-1.53,1.03-2.64,1.03c-1.07,0-1.93-0.32-2.58-0.96
	c-0.65-0.64-1-1.51-1.05-2.61L16.01,79.35z M18.35,79.5c0,0.69,0.11,1.2,0.33,1.53s0.54,0.49,0.97,0.49c0.83,0,1.26-0.64,1.28-1.92
	v-0.24c0-1.35-0.43-2.02-1.29-2.02c-0.78,0-1.21,0.58-1.27,1.74L18.35,79.5z M26.43,75.66l0.08,0.88c0.52-0.68,1.23-1.02,2.15-1.02
	c0.78,0,1.37,0.23,1.75,0.7c0.39,0.47,0.59,1.17,0.6,2.11v4.84h-2.35v-4.74c0-0.38-0.08-0.66-0.23-0.84S28,77.33,27.6,77.33
	c-0.46,0-0.8,0.18-1.02,0.54v5.3h-2.34v-7.51H26.43z M38.57,73.8v1.87h1.24v1.62h-1.24v3.44c0,0.28,0.05,0.48,0.15,0.59
	c0.1,0.11,0.3,0.17,0.6,0.17c0.23,0,0.43-0.01,0.58-0.04v1.67c-0.42,0.13-0.86,0.2-1.32,0.2c-0.81,0-1.4-0.19-1.78-0.57
	s-0.58-0.96-0.58-1.73v-3.73h-0.96v-1.62h0.96V73.8H38.57z M43.01,76.47c0.5-0.63,1.14-0.94,1.92-0.94c0.83,0,1.45,0.25,1.87,0.74
	c0.42,0.49,0.64,1.21,0.65,2.17v4.74H45.1v-4.69c0-0.4-0.08-0.69-0.24-0.88c-0.16-0.19-0.44-0.28-0.83-0.28
	c-0.48,0-0.82,0.15-1.02,0.46v5.39h-2.34V72.51h2.34V76.47z M52.39,83.32c-1.15,0-2.09-0.34-2.8-1.03
	c-0.71-0.69-1.07-1.58-1.07-2.68v-0.19c0-0.77,0.14-1.45,0.43-2.03c0.28-0.59,0.7-1.04,1.25-1.36c0.55-0.32,1.19-0.48,1.94-0.48
	c1.06,0,1.89,0.33,2.5,0.98c0.61,0.66,0.92,1.57,0.92,2.74v0.91H50.9c0.08,0.42,0.27,0.75,0.55,0.99c0.28,0.24,0.65,0.36,1.1,0.36
	c0.74,0,1.32-0.26,1.74-0.78L55.35,82c-0.29,0.4-0.7,0.72-1.24,0.96C53.58,83.2,53,83.32,52.39,83.32z M52.12,77.33
	c-0.68,0-1.09,0.45-1.22,1.36h2.36v-0.18c0.01-0.37-0.09-0.67-0.28-0.87C52.78,77.43,52.49,77.33,52.12,77.33z M62.58,79.75v3.43
	h-2.44V73.07h4.03c0.77,0,1.46,0.14,2.05,0.43c0.59,0.29,1.06,0.69,1.38,1.22c0.33,0.53,0.49,1.12,0.49,1.79
	c0,0.99-0.35,1.77-1.06,2.36c-0.71,0.59-1.67,0.88-2.91,0.88H62.58z M62.58,77.87h1.6c0.47,0,0.83-0.12,1.08-0.35
	c0.25-0.24,0.37-0.57,0.37-1c0-0.47-0.13-0.85-0.38-1.13c-0.25-0.28-0.6-0.43-1.04-0.43h-1.62V77.87z M73.76,82.36
	c-0.5,0.63-1.16,0.95-2.01,0.95c-0.82,0-1.45-0.24-1.87-0.72c-0.42-0.48-0.64-1.17-0.64-2.07v-4.87h2.34v4.88
	c0,0.64,0.31,0.97,0.94,0.97c0.54,0,0.92-0.19,1.15-0.58v-5.27h2.35v7.51h-2.19L73.76,82.36z M84.28,79.48
	c0,1.23-0.25,2.18-0.76,2.84c-0.51,0.66-1.23,0.99-2.15,0.99c-0.76,0-1.38-0.3-1.85-0.91l-0.1,0.77h-2.1V72.51h2.34v3.76
	c0.44-0.5,1-0.74,1.69-0.74c0.93,0,1.66,0.34,2.17,1.01c0.51,0.67,0.76,1.62,0.76,2.83V79.48z M81.93,79.33
	c0-0.72-0.1-1.23-0.29-1.54c-0.19-0.31-0.49-0.46-0.88-0.46c-0.53,0-0.89,0.2-1.1,0.6v2.98c0.2,0.4,0.57,0.6,1.11,0.6
	c0.55,0,0.9-0.27,1.05-0.8C81.9,80.44,81.93,79.99,81.93,79.33z M87.78,83.18h-2.35V72.51h2.35V83.18z M89.2,73.73
	c0-0.33,0.12-0.61,0.36-0.82c0.24-0.21,0.55-0.32,0.94-0.32c0.38,0,0.7,0.11,0.94,0.32c0.24,0.21,0.36,0.49,0.36,0.82
	s-0.12,0.61-0.36,0.82c-0.24,0.21-0.55,0.32-0.94,0.32c-0.38,0-0.7-0.11-0.94-0.32C89.32,74.33,89.2,74.06,89.2,73.73z M91.69,83.18
	h-2.35v-7.51h2.35V83.18z M96.3,81.51c0.33,0,0.58-0.09,0.76-0.27c0.18-0.18,0.27-0.43,0.26-0.75h2.19c0,0.82-0.3,1.5-0.88,2.03
	c-0.59,0.53-1.35,0.79-2.28,0.79c-1.09,0-1.95-0.34-2.58-1.03c-0.63-0.68-0.94-1.63-0.94-2.85v-0.1c0-0.76,0.14-1.43,0.42-2.01
	c0.28-0.58,0.68-1.03,1.21-1.34c0.53-0.31,1.15-0.47,1.87-0.47c0.98,0,1.75,0.27,2.33,0.81s0.86,1.28,0.86,2.2h-2.19
	c0-0.39-0.09-0.69-0.28-0.9c-0.19-0.21-0.44-0.31-0.76-0.31c-0.61,0-0.96,0.39-1.06,1.16c-0.03,0.25-0.05,0.58-0.05,1.01
	c0,0.75,0.09,1.28,0.27,1.57C95.62,81.36,95.91,81.51,96.3,81.51z M105.56,77.85c-0.27-0.39-0.49-0.76-0.64-1.11
	c-0.16-0.35-0.23-0.72-0.23-1.09c0-0.81,0.26-1.47,0.79-1.98c0.53-0.5,1.22-0.75,2.07-0.75c0.76,0,1.4,0.23,1.9,0.7
	c0.5,0.47,0.75,1.04,0.75,1.73c0,0.86-0.47,1.62-1.42,2.29l-0.53,0.37l1.56,1.78c0.25-0.51,0.38-1.07,0.38-1.67h1.96
	c0,1.37-0.31,2.46-0.94,3.28l1.54,1.77h-2.61l-0.47-0.53c-0.39,0.23-0.79,0.4-1.19,0.51c-0.4,0.11-0.86,0.17-1.37,0.17
	c-1,0-1.8-0.26-2.4-0.79c-0.6-0.52-0.9-1.22-0.9-2.07c0-0.47,0.12-0.89,0.36-1.27s0.7-0.82,1.39-1.33L105.56,77.85z M107.24,81.52
	c0.41,0,0.8-0.09,1.17-0.28l-1.82-2.07l-0.06,0.04c-0.26,0.32-0.4,0.69-0.4,1.1c0,0.34,0.11,0.62,0.32,0.86
	S106.93,81.52,107.24,81.52z M106.7,75.62c0,0.32,0.18,0.72,0.53,1.18l0.47-0.29c0.21-0.14,0.37-0.28,0.47-0.43
	c0.1-0.15,0.15-0.34,0.15-0.56c0-0.21-0.07-0.4-0.22-0.56c-0.15-0.16-0.33-0.24-0.55-0.24c-0.26,0-0.46,0.08-0.61,0.25
	C106.78,75.14,106.7,75.35,106.7,75.62z M117.28,83.18V73.07h3.26c0.89,0,1.7,0.2,2.41,0.61c0.71,0.41,1.27,0.98,1.67,1.72
	c0.4,0.74,0.6,1.57,0.61,2.48v0.47c0,0.93-0.2,1.76-0.59,2.49c-0.39,0.73-0.94,1.31-1.65,1.72c-0.71,0.41-1.5,0.62-2.38,0.63H117.28
	z M119.72,74.95v6.35h0.85c0.7,0,1.24-0.25,1.61-0.75c0.37-0.5,0.56-1.24,0.56-2.22V77.9c0-0.98-0.19-1.71-0.56-2.21
	c-0.37-0.5-0.92-0.74-1.64-0.74H119.72z M130.6,83.18c-0.08-0.15-0.16-0.38-0.22-0.67c-0.43,0.54-1.03,0.81-1.81,0.81
	c-0.71,0-1.31-0.21-1.81-0.64c-0.5-0.43-0.74-0.97-0.74-1.61c0-0.81,0.3-1.43,0.9-1.85c0.6-0.42,1.48-0.62,2.62-0.62h0.72v-0.4
	c0-0.69-0.3-1.04-0.9-1.04c-0.56,0-0.83,0.27-0.83,0.82h-2.34c0-0.73,0.31-1.32,0.93-1.77c0.62-0.45,1.41-0.68,2.36-0.68
	c0.96,0,1.71,0.23,2.27,0.7c0.56,0.47,0.84,1.11,0.85,1.92v3.33c0.01,0.69,0.12,1.22,0.32,1.58v0.12H130.6z M129.13,81.65
	c0.29,0,0.53-0.06,0.73-0.19c0.19-0.12,0.33-0.27,0.41-0.42v-1.2h-0.68c-0.81,0-1.22,0.37-1.22,1.1c0,0.21,0.07,0.39,0.22,0.52
	C128.73,81.58,128.91,81.65,129.13,81.65z M138.46,77.78l-0.77-0.06c-0.74,0-1.21,0.23-1.42,0.69v4.76h-2.34v-7.51h2.19l0.08,0.97
	c0.39-0.74,0.94-1.1,1.65-1.1c0.25,0,0.47,0.03,0.65,0.08L138.46,77.78z M142.32,80.38l-0.66,0.66v2.14h-2.34V72.51h2.34v5.67
	l0.24-0.31l1.76-2.19h2.8l-2.63,3.09l2.8,4.42h-2.68L142.32,80.38z M158.56,79.41l1.16-6.34h2.42l-2.15,10.11h-2.53l-1.35-5.76
	l-1.33,5.76h-2.52l-2.15-10.11h2.42l1.16,6.34l1.39-6.34h2.07L158.56,79.41z M166.39,83.32c-1.15,0-2.09-0.34-2.8-1.03
	c-0.71-0.69-1.07-1.58-1.07-2.68v-0.19c0-0.77,0.14-1.45,0.43-2.03c0.28-0.59,0.7-1.04,1.25-1.36c0.55-0.32,1.19-0.48,1.94-0.48
	c1.06,0,1.89,0.33,2.5,0.98c0.61,0.66,0.92,1.57,0.92,2.74v0.91h-4.65c0.08,0.42,0.27,0.75,0.55,0.99c0.28,0.24,0.65,0.36,1.1,0.36
	c0.74,0,1.32-0.26,1.74-0.78l1.07,1.26c-0.29,0.4-0.7,0.72-1.24,0.96C167.59,83.2,167.01,83.32,166.39,83.32z M166.13,77.33
	c-0.68,0-1.09,0.45-1.22,1.36h2.36v-0.18c0.01-0.37-0.09-0.67-0.28-0.87S166.5,77.33,166.13,77.33z M177.48,79.48
	c0,1.23-0.25,2.18-0.76,2.84c-0.51,0.66-1.23,0.99-2.15,0.99c-0.76,0-1.38-0.3-1.85-0.91l-0.1,0.77h-2.1V72.51h2.34v3.76
	c0.44-0.5,1-0.74,1.69-0.74c0.93,0,1.66,0.34,2.17,1.01c0.51,0.67,0.76,1.62,0.76,2.83V79.48z M175.13,79.33
	c0-0.72-0.1-1.23-0.29-1.54s-0.49-0.46-0.88-0.46c-0.53,0-0.89,0.2-1.1,0.6v2.98c0.2,0.4,0.57,0.6,1.11,0.6
	c0.55,0,0.9-0.27,1.05-0.8C175.09,80.44,175.13,79.99,175.13,79.33z"/>
</svg>
