<svg id="Layer_1" xmlns="http://www.w3.org/2000/svg" viewBox="0 0 970 250"><style>.st0{fill:#021d8b}</style><path class="st0" d="M473.31 80.31c0-.82.27-1.48.8-2s1.23-.77 2.09-.77c.88 0 1.58.25 2.11.75.53.5.8 1.15.81 1.96v.48c0 .82-.26 1.48-.79 1.98s-1.23.75-2.11.75c-.86 0-1.56-.25-2.09-.74-.53-.49-.8-1.14-.82-1.93v-.48zM496.19 84.62c0-.59-.21-1.05-.62-1.38s-1.15-.67-2.2-1.02c-1.05-.35-1.91-.69-2.57-1.02-2.17-1.06-3.25-2.52-3.25-4.38 0-.92.27-1.74.81-2.45.54-.71 1.3-1.26 2.29-1.65.99-.39 2.1-.59 3.33-.59 1.2 0 2.28.21 3.23.64s1.69 1.04 2.22 1.83c.53.79.79 1.7.79 2.71h-4.02c0-.68-.21-1.21-.62-1.58-.42-.37-.98-.56-1.69-.56-.72 0-1.29.16-1.7.48s-.63.72-.63 1.21c0 .43.23.82.69 1.16.46.35 1.27.71 2.42 1.08 1.15.37 2.1.77 2.84 1.2 1.81 1.04 2.71 2.47 2.71 4.3 0 1.46-.55 2.61-1.65 3.44-1.1.83-2.61 1.25-4.53 1.25-1.35 0-2.58-.24-3.68-.73s-1.92-1.15-2.48-2c-.55-.85-.83-1.82-.83-2.92h4.04c0 .9.23 1.55.69 1.98.46.42 1.21.64 2.25.64.67 0 1.19-.14 1.58-.43.38-.29.58-.69.58-1.21zM508.11 89.29c-1.9 0-3.45-.57-4.62-1.7s-1.77-2.61-1.77-4.43v-.32c0-1.27.24-2.39.71-3.36.47-.97 1.16-1.72 2.06-2.25.9-.53 1.97-.8 3.21-.8 1.74 0 3.12.54 4.13 1.62 1.01 1.08 1.51 2.59 1.51 4.53v1.5h-7.69c.14.7.44 1.24.91 1.64.47.4 1.07.6 1.81.6 1.22 0 2.18-.43 2.87-1.29l1.77 2.09c-.48.67-1.16 1.2-2.05 1.59s-1.84.58-2.85.58zm-.44-9.89c-1.13 0-1.81.75-2.02 2.25h3.9v-.3c.01-.62-.14-1.1-.47-1.44-.33-.34-.8-.51-1.41-.51zM520.14 86.31c.54 0 .96-.15 1.26-.44.3-.29.44-.71.44-1.23h3.62c0 1.36-.49 2.48-1.46 3.35-.97.87-2.23 1.31-3.77 1.31-1.81 0-3.23-.57-4.27-1.7s-1.56-2.7-1.56-4.7v-.16c0-1.25.23-2.36.69-3.32s1.13-1.7 2-2.21c.87-.52 1.9-.77 3.1-.77 1.61 0 2.9.45 3.84 1.34.95.89 1.42 2.11 1.42 3.64h-3.62c0-.64-.16-1.14-.47-1.48-.31-.34-.73-.52-1.26-.52-1 0-1.59.64-1.75 1.92-.05.41-.08.96-.08 1.68 0 1.25.15 2.11.45 2.59.3.46.77.7 1.42.7zM534.5 87.72c-.82 1.05-1.92 1.57-3.32 1.57-1.36 0-2.39-.4-3.09-1.19-.7-.79-1.05-1.93-1.05-3.41v-8.04h3.87v8.07c0 1.06.52 1.59 1.55 1.59.89 0 1.52-.32 1.89-.95v-8.71h3.89v12.42h-3.63l-.11-1.35zM547.86 80.15l-1.27-.09c-1.22 0-2 .38-2.34 1.15v7.86h-3.87V76.65H544l.13 1.59c.65-1.22 1.56-1.82 2.72-1.82.41 0 .77.05 1.08.14l-.07 3.59zM555.27 89.29c-1.9 0-3.45-.57-4.62-1.7s-1.77-2.61-1.77-4.43v-.32c0-1.27.24-2.39.71-3.36.47-.97 1.16-1.72 2.06-2.25.9-.53 1.97-.8 3.21-.8 1.74 0 3.12.54 4.13 1.62 1.01 1.08 1.51 2.59 1.51 4.53v1.5h-7.69c.14.7.44 1.24.91 1.64.47.4 1.07.6 1.81.6 1.22 0 2.18-.43 2.87-1.29l1.77 2.09c-.48.67-1.16 1.2-2.05 1.59s-1.84.58-2.85.58zm-.44-9.89c-1.13 0-1.81.75-2.02 2.25h3.9v-.3c.01-.62-.14-1.1-.47-1.44-.33-.34-.8-.51-1.41-.51zM568.08 89.06V72.35h6c2.15 0 3.79.39 4.91 1.18 1.12.79 1.68 1.93 1.68 3.43 0 .86-.2 1.6-.6 2.21-.4.61-.98 1.06-1.75 1.35.87.23 1.54.66 2.01 1.29.47.63.7 1.39.7 2.29 0 1.64-.52 2.87-1.55 3.69-1.04.82-2.57 1.24-4.61 1.26h-6.79zm4.03-9.74h2.1c.88-.01 1.51-.17 1.88-.48.38-.31.56-.78.56-1.39 0-.71-.2-1.21-.61-1.52-.41-.31-1.06-.47-1.96-.47h-1.97v3.86zm0 2.64v4h2.64c.73 0 1.29-.17 1.67-.5.39-.33.58-.8.58-1.41 0-1.39-.69-2.09-2.08-2.1h-2.81zM590.57 80.15l-1.27-.09c-1.22 0-2 .38-2.34 1.15v7.86h-3.87V76.65h3.62l.13 1.59c.65-1.22 1.56-1.82 2.72-1.82.41 0 .77.05 1.08.14l-.07 3.59zM591.06 82.74c0-1.24.24-2.34.72-3.31.48-.97 1.17-1.71 2.08-2.23.9-.52 1.96-.78 3.18-.78 1.86 0 3.32.58 4.39 1.73 1.07 1.15 1.61 2.72 1.61 4.7v.14c0 1.94-.54 3.47-1.61 4.61-1.07 1.14-2.53 1.7-4.37 1.7-1.77 0-3.19-.53-4.26-1.59-1.07-1.06-1.65-2.5-1.73-4.31l-.01-.66zm3.87.24c0 1.15.18 1.99.54 2.52.36.54.89.8 1.59.8 1.38 0 2.08-1.06 2.11-3.18v-.39c0-2.23-.71-3.34-2.13-3.34-1.29 0-1.99.96-2.1 2.88l-.01.71zM615.47 83.97l1.25-7.32h3.71l-2.93 12.42h-3.27l-2.05-7.37-2.07 7.37h-3.27l-2.93-12.42h3.71l1.23 7.49 1.97-7.49h2.7l1.95 7.32zM628.31 85.57c0-.33-.17-.59-.52-.79-.34-.2-1-.41-1.96-.62-.96-.21-1.76-.5-2.39-.84-.63-.35-1.11-.77-1.43-1.27s-.49-1.07-.49-1.71c0-1.14.47-2.08 1.41-2.82.94-.74 2.17-1.11 3.69-1.11 1.64 0 2.95.37 3.95 1.11s1.49 1.72 1.49 2.93h-3.88c0-.99-.52-1.49-1.57-1.49-.41 0-.75.11-1.02.34s-.41.51-.41.84c0 .34.17.62.5.84.34.21.87.39 1.61.53.74.14 1.39.3 1.95.49 1.87.64 2.8 1.79 2.8 3.45 0 1.13-.5 2.05-1.51 2.76s-2.31 1.07-3.91 1.07c-1.06 0-2.01-.19-2.85-.57-.83-.38-1.48-.9-1.95-1.56s-.7-1.35-.7-2.08h3.61c.02.57.21.99.57 1.26.37.26.84.4 1.41.4.53 0 .92-.11 1.19-.32s.41-.49.41-.84zM639.85 89.29c-1.9 0-3.45-.57-4.62-1.7s-1.77-2.61-1.77-4.43v-.32c0-1.27.24-2.39.71-3.36.47-.97 1.16-1.72 2.06-2.25.9-.53 1.97-.8 3.21-.8 1.74 0 3.12.54 4.13 1.62 1.01 1.08 1.51 2.59 1.51 4.53v1.5h-7.69c.14.7.44 1.24.91 1.64.47.4 1.07.6 1.81.6 1.22 0 2.18-.43 2.87-1.29l1.77 2.09c-.48.67-1.16 1.2-2.05 1.59s-1.83.58-2.85.58zm-.43-9.89c-1.13 0-1.81.75-2.02 2.25h3.9v-.3c.01-.62-.14-1.1-.47-1.44-.33-.34-.8-.51-1.41-.51zM654.15 80.15l-1.27-.09c-1.22 0-2 .38-2.34 1.15v7.86h-3.87V76.65h3.62l.13 1.59c.65-1.22 1.56-1.82 2.72-1.82.41 0 .77.05 1.08.14l-.07 3.59zM667.7 80.31c0-.82.27-1.48.8-2s1.23-.77 2.09-.77c.88 0 1.58.25 2.11.75.53.5.8 1.15.81 1.96v.48c0 .82-.26 1.48-.79 1.98s-1.23.75-2.11.75c-.86 0-1.56-.25-2.09-.74-.53-.49-.8-1.14-.82-1.93v-.48zM690.58 84.62c0-.59-.21-1.05-.62-1.38s-1.15-.67-2.2-1.02c-1.05-.35-1.91-.69-2.57-1.02-2.17-1.06-3.25-2.52-3.25-4.38 0-.92.27-1.74.81-2.45.54-.71 1.3-1.26 2.29-1.65.99-.39 2.1-.59 3.33-.59 1.2 0 2.28.21 3.23.64s1.69 1.04 2.22 1.83c.53.79.79 1.7.79 2.71h-4.02c0-.68-.21-1.21-.62-1.58-.42-.37-.98-.56-1.69-.56-.72 0-1.29.16-1.7.48s-.63.72-.63 1.21c0 .43.23.82.69 1.16.46.35 1.27.71 2.42 1.08 1.15.37 2.1.77 2.84 1.2 1.81 1.04 2.71 2.47 2.71 4.3 0 1.46-.55 2.61-1.65 3.44-1.1.83-2.61 1.25-4.53 1.25-1.35 0-2.58-.24-3.68-.73s-1.92-1.15-2.48-2c-.55-.85-.83-1.82-.83-2.92h4.04c0 .9.23 1.55.69 1.98.46.42 1.21.64 2.25.64.67 0 1.19-.14 1.58-.43.38-.29.58-.69.58-1.21zM702.5 89.29c-1.9 0-3.45-.57-4.62-1.7s-1.77-2.61-1.77-4.43v-.32c0-1.27.24-2.39.71-3.36.47-.97 1.16-1.72 2.06-2.25.9-.53 1.97-.8 3.21-.8 1.74 0 3.12.54 4.13 1.62 1.01 1.08 1.51 2.59 1.51 4.53v1.5h-7.69c.14.7.44 1.24.91 1.64.47.4 1.07.6 1.81.6 1.22 0 2.18-.43 2.87-1.29l1.77 2.09c-.48.67-1.16 1.2-2.05 1.59s-1.83.58-2.85.58zm-.44-9.89c-1.13 0-1.81.75-2.02 2.25h3.9v-.3c.01-.62-.14-1.1-.47-1.44-.32-.34-.8-.51-1.41-.51zM714.54 86.31c.54 0 .96-.15 1.26-.44.3-.29.44-.71.44-1.23h3.62c0 1.36-.49 2.48-1.46 3.35-.97.87-2.23 1.31-3.77 1.31-1.81 0-3.23-.57-4.27-1.7s-1.56-2.7-1.56-4.7v-.16c0-1.25.23-2.36.69-3.32s1.13-1.7 2-2.21c.87-.52 1.9-.77 3.1-.77 1.61 0 2.9.45 3.84 1.34.95.89 1.42 2.11 1.42 3.64h-3.62c0-.64-.16-1.14-.47-1.48-.31-.34-.73-.52-1.26-.52-1 0-1.59.64-1.75 1.92-.05.41-.08.96-.08 1.68 0 1.25.15 2.11.45 2.59.29.46.77.7 1.42.7zM728.89 87.72c-.82 1.05-1.92 1.57-3.32 1.57-1.36 0-2.39-.4-3.09-1.19-.7-.79-1.05-1.93-1.05-3.41v-8.04h3.87v8.07c0 1.06.52 1.59 1.55 1.59.89 0 1.52-.32 1.89-.95v-8.71h3.89v12.42H729l-.11-1.35zM742.26 80.15l-1.27-.09c-1.22 0-2 .38-2.34 1.15v7.86h-3.87V76.65h3.62l.13 1.59c.65-1.22 1.56-1.82 2.72-1.82.41 0 .77.05 1.08.14l-.07 3.59zM749.66 89.29c-1.9 0-3.45-.57-4.62-1.7s-1.77-2.61-1.77-4.43v-.32c0-1.27.24-2.39.71-3.36.47-.97 1.16-1.72 2.06-2.25.9-.53 1.97-.8 3.21-.8 1.74 0 3.12.54 4.13 1.62 1.01 1.08 1.51 2.59 1.51 4.53v1.5h-7.69c.14.7.44 1.24.91 1.64.47.4 1.07.6 1.81.6 1.22 0 2.18-.43 2.87-1.29l1.77 2.09c-.48.67-1.16 1.2-2.05 1.59s-1.84.58-2.85.58zm-.44-9.89c-1.13 0-1.81.75-2.02 2.25h3.9v-.3c.01-.62-.14-1.1-.47-1.44-.33-.34-.8-.51-1.41-.51zM768.15 82.84l-1.65 1.81v4.41h-4.03V72.35h4.03v7.37l1.4-2.12 3.6-5.24h4.98l-5.64 7.39 5.64 9.32h-4.77l-3.56-6.23zM783.33 89.29c-1.9 0-3.45-.57-4.62-1.7s-1.77-2.61-1.77-4.43v-.32c0-1.27.24-2.39.71-3.36.47-.97 1.16-1.72 2.06-2.25.9-.53 1.97-.8 3.21-.8 1.74 0 3.12.54 4.13 1.62 1.01 1.08 1.51 2.59 1.51 4.53v1.5h-7.69c.14.7.44 1.24.91 1.64.47.4 1.07.6 1.81.6 1.22 0 2.18-.43 2.87-1.29l1.77 2.09c-.48.67-1.16 1.2-2.05 1.59s-1.83.58-2.85.58zm-.43-9.89c-1.13 0-1.81.75-2.02 2.25h3.9v-.3c.01-.62-.14-1.1-.47-1.44-.33-.34-.8-.51-1.41-.51zM795.08 83.64l2.07-7h4.14l-5.06 14.49-.22.53c-.72 1.61-1.99 2.41-3.81 2.41-.5 0-1.04-.08-1.59-.23v-2.75h.5c.54 0 .96-.08 1.24-.24.29-.16.5-.44.64-.84l.31-.83-4.31-12.54h4.13l1.96 7zM813.82 82.96c0 2.04-.42 3.6-1.26 4.69s-2.03 1.64-3.56 1.64c-1.26 0-2.28-.5-3.05-1.5l-.16 1.27h-3.46V71.44h3.87v6.21c.72-.82 1.65-1.23 2.79-1.23 1.54 0 2.74.55 3.58 1.66s1.26 2.67 1.26 4.68v.2zm-3.88-.25c0-1.19-.16-2.04-.48-2.55s-.81-.76-1.46-.76c-.87 0-1.48.33-1.81 1v4.92c.33.66.94.99 1.84.99.91 0 1.49-.44 1.73-1.33.12-.44.18-1.19.18-2.27zM815.04 82.74c0-1.24.24-2.34.72-3.31.48-.97 1.17-1.71 2.08-2.23.9-.52 1.96-.78 3.18-.78 1.86 0 3.32.58 4.39 1.73 1.07 1.15 1.61 2.72 1.61 4.7v.14c0 1.94-.54 3.47-1.61 4.61-1.07 1.14-2.53 1.7-4.37 1.7-1.77 0-3.19-.53-4.26-1.59-1.07-1.06-1.65-2.5-1.73-4.31l-.01-.66zm3.86.24c0 1.15.18 1.99.54 2.52.36.54.89.8 1.59.8 1.38 0 2.08-1.06 2.11-3.18v-.39c0-2.23-.71-3.34-2.13-3.34-1.29 0-1.99.96-2.1 2.88l-.01.71zM835.71 89.06c-.14-.25-.26-.62-.37-1.11-.71.9-1.71 1.34-2.98 1.34-1.17 0-2.17-.35-2.98-1.06-.82-.71-1.23-1.6-1.23-2.67 0-1.35.5-2.36 1.49-3.05s2.44-1.03 4.34-1.03h1.19v-.66c0-1.15-.49-1.72-1.48-1.72-.92 0-1.38.45-1.38 1.36h-3.87c0-1.2.51-2.17 1.53-2.92s2.32-1.12 3.91-1.12c1.58 0 2.83.39 3.75 1.16s1.39 1.83 1.41 3.18v5.5c.01 1.14.19 2.01.53 2.62v.2h-3.86zm-2.42-2.52c.48 0 .88-.1 1.2-.31.32-.21.54-.44.68-.7v-1.98h-1.12c-1.35 0-2.02.6-2.02 1.81 0 .35.12.64.36.85.23.22.53.33.9.33zM848.7 80.15l-1.27-.09c-1.22 0-2 .38-2.34 1.15v7.86h-3.87V76.65h3.62l.13 1.59c.65-1.22 1.56-1.82 2.72-1.82.41 0 .77.05 1.08.14l-.07 3.59zM849.61 82.76c0-1.97.42-3.52 1.27-4.65.85-1.13 2.04-1.7 3.56-1.7 1.11 0 2.04.44 2.8 1.31v-6.29h3.88v17.62h-3.48l-.2-1.33c-.8 1.04-1.81 1.56-3.03 1.56-1.48 0-2.65-.57-3.51-1.7-.86-1.12-1.29-2.73-1.29-4.82zm3.86.24c0 2.2.64 3.3 1.93 3.3.86 0 1.47-.36 1.84-1.08V80.5c-.35-.73-.96-1.1-1.81-1.1-1.19 0-1.84.96-1.94 2.89l-.02.71z"/></svg>