<svg id="Layer_1" xmlns="http://www.w3.org/2000/svg" viewBox="0 0 970 250"><style>.st0{fill:#021d8b}</style><path class="st0" d="M584.26 121.95c0-.44-.15-.8-.46-1.1-.3-.3-.82-.57-1.54-.81-1.01-.31-1.74-.71-2.2-1.2-.46-.5-.69-1.12-.69-1.89 0-.78.23-1.41.68-1.91s1.07-.79 1.86-.89v-1.55h1.06v1.56c.79.11 1.41.44 1.86 1s.66 1.32.66 2.29h-1.31c0-.67-.16-1.2-.48-1.6-.32-.39-.75-.59-1.29-.59-.56 0-.99.15-1.29.44-.3.29-.45.7-.45 1.22 0 .48.16.87.47 1.16.32.29.83.55 1.56.78.72.23 1.28.49 1.69.77.4.28.7.61.89.98s.29.81.29 1.31c0 .8-.24 1.44-.72 1.93s-1.15.78-2.02.87v1.36h-1.05v-1.36c-.88-.08-1.57-.39-2.07-.94-.5-.55-.75-1.29-.75-2.23h1.31c0 .66.17 1.16.52 1.52.35.35.84.53 1.47.53.62 0 1.11-.15 1.46-.45.37-.28.54-.69.54-1.2zM591.53 124.61h-1.32v-8.75l-2.65.97v-1.19l3.76-1.41h.21v10.38zM600.89 115.07v1.86h1.43v1.01h-1.43v4.77c0 .31.06.54.19.69.13.15.35.23.65.23.15 0 .36-.03.62-.08v1.06c-.35.09-.68.14-1.01.14-.59 0-1.03-.18-1.33-.53-.3-.35-.45-.86-.45-1.51v-4.76h-1.4v-1.01h1.4v-1.86h1.33zM607.57 118.11c-.2-.03-.41-.05-.65-.05-.86 0-1.45.37-1.75 1.1v5.45h-1.31v-7.68h1.28l.02.89c.43-.69 1.04-1.03 1.83-1.03.26 0 .45.03.58.1v1.22zM608.79 114.89a.8.8 0 0 1 .2-.54c.13-.15.32-.22.58-.22.25 0 .45.07.58.22.13.15.2.33.2.54s-.07.39-.2.53-.33.21-.58.21c-.26 0-.45-.07-.58-.21a.716.716 0 0 1-.2-.53zm1.42 9.72h-1.31v-7.68h1.31v7.68zM617.05 124.61c-.08-.15-.14-.42-.18-.81-.61.63-1.34.95-2.19.95-.76 0-1.38-.21-1.86-.64-.49-.43-.73-.97-.73-1.63 0-.8.3-1.42.91-1.86.61-.44 1.46-.66 2.57-.66h1.28v-.6c0-.46-.14-.83-.41-1.1-.27-.27-.68-.41-1.21-.41-.47 0-.86.12-1.18.36-.32.24-.48.52-.48.86h-1.32c0-.38.14-.75.41-1.11.27-.36.64-.64 1.11-.85.47-.21.98-.31 1.54-.31.88 0 1.58.22 2.08.66s.76 1.05.78 1.83v3.54c0 .71.09 1.27.27 1.68v.11h-1.39zm-2.18-1c.41 0 .8-.11 1.17-.32s.64-.49.8-.83v-1.58h-1.03c-1.61 0-2.41.47-2.41 1.41 0 .41.14.73.41.97.28.23.63.35 1.06.35zM621.64 124.61h-1.31V113.7h1.31v10.91zM627.99 124.61v-6.67h-1.21v-1.01h1.21v-.79c0-.82.22-1.46.66-1.91.44-.45 1.06-.67 1.87-.67.3 0 .6.04.9.12l-.07 1.06c-.22-.04-.46-.06-.71-.06-.43 0-.75.12-.99.37-.23.25-.35.61-.35 1.07v.81h1.64v1.01h-1.64v6.67h-1.31zM632.05 120.7c0-.75.15-1.43.44-2.03.3-.6.71-1.07 1.24-1.39.53-.33 1.13-.49 1.81-.49 1.05 0 1.89.36 2.54 1.09.65.72.97 1.69.97 2.89v.09c0 .75-.14 1.42-.43 2.01s-.7 1.06-1.23 1.39c-.53.33-1.14.5-1.83.5-1.04 0-1.88-.36-2.53-1.09s-.97-1.68-.97-2.88v-.09zm1.32.15c0 .85.2 1.54.59 2.05s.92.77 1.59.77 1.2-.26 1.59-.79c.39-.52.59-1.25.59-2.2 0-.84-.2-1.53-.6-2.05-.4-.52-.93-.79-1.59-.79-.65 0-1.17.26-1.57.77-.4.55-.6 1.28-.6 2.24zM644.4 118.11c-.2-.03-.41-.05-.65-.05-.86 0-1.45.37-1.75 1.1v5.45h-1.31v-7.68h1.28l.02.89c.43-.69 1.04-1.03 1.83-1.03.26 0 .45.03.58.1v1.22zM650.99 115.07v1.86h1.43v1.01h-1.43v4.77c0 .31.06.54.19.69.13.15.35.23.65.23.15 0 .36-.03.62-.08v1.06c-.35.09-.68.14-1.01.14-.59 0-1.03-.18-1.33-.53-.3-.35-.45-.86-.45-1.51v-4.76h-1.4v-1.01h1.4v-1.86h1.33zM655.27 117.86c.58-.71 1.34-1.07 2.27-1.07 1.62 0 2.44.92 2.46 2.75v5.08h-1.31v-5.08c0-.55-.13-.96-.38-1.23s-.64-.4-1.16-.4c-.43 0-.8.11-1.12.34-.32.23-.57.53-.75.89v5.47h-1.31V113.7h1.31v4.16zM665.15 124.75c-1.04 0-1.89-.34-2.54-1.03-.65-.68-.98-1.6-.98-2.74v-.24c0-.76.15-1.44.44-2.04.29-.6.7-1.07 1.22-1.41.52-.34 1.09-.51 1.7-.51 1 0 1.78.33 2.33.99.55.66.83 1.6.83 2.83v.55h-5.2c.02.76.24 1.37.66 1.83.42.47.96.7 1.62.7.46 0 .86-.09 1.18-.28.32-.19.6-.44.84-.75l.8.62c-.64.99-1.61 1.48-2.9 1.48zm-.16-6.88c-.53 0-.98.19-1.33.58s-.58.93-.67 1.62h3.85v-.1c-.04-.67-.22-1.18-.54-1.55-.33-.37-.76-.55-1.31-.55zM673.91 124.61v-6.67h-1.21v-1.01h1.21v-.79c0-.82.22-1.46.66-1.91.44-.45 1.06-.67 1.87-.67.3 0 .6.04.9.12l-.07 1.06c-.22-.04-.46-.06-.71-.06-.43 0-.75.12-.99.37-.23.25-.35.61-.35 1.07v.81h1.64v1.01h-1.64v6.67h-1.31zM678.32 114.89a.8.8 0 0 1 .2-.54c.13-.15.32-.22.58-.22.25 0 .45.07.58.22.13.15.2.33.2.54s-.07.39-.2.53-.33.21-.58.21c-.26 0-.45-.07-.58-.21a.758.758 0 0 1-.2-.53zm1.42 9.72h-1.31v-7.68h1.31v7.68zM685.56 118.11c-.2-.03-.41-.05-.65-.05-.86 0-1.45.37-1.75 1.1v5.45h-1.31v-7.68h1.28l.02.89c.43-.69 1.04-1.03 1.83-1.03.26 0 .45.03.58.1v1.22zM691.24 122.57c0-.35-.13-.63-.4-.83-.27-.2-.73-.37-1.4-.51-.67-.14-1.19-.31-1.58-.51-.39-.2-.68-.44-.87-.71-.19-.27-.28-.6-.28-.98 0-.63.27-1.16.8-1.6.53-.44 1.21-.65 2.04-.65.87 0 1.58.22 2.12.67.54.45.81 1.02.81 1.72h-1.32c0-.36-.15-.67-.46-.93-.3-.26-.69-.39-1.15-.39-.48 0-.85.1-1.12.31s-.4.48-.4.82c0 .32.12.56.38.72.25.16.7.32 1.36.46.66.15 1.19.32 1.59.53.41.2.71.45.91.74.2.29.29.63.29 1.05 0 .69-.27 1.24-.82 1.65-.55.41-1.26.62-2.14.62-.62 0-1.16-.11-1.63-.33-.47-.22-.84-.52-1.11-.91-.27-.39-.4-.81-.4-1.27h1.31c.02.44.2.79.53 1.05s.76.39 1.3.39c.5 0 .9-.1 1.2-.3.29-.2.44-.47.44-.81zM696.04 115.07v1.86h1.43v1.01h-1.43v4.77c0 .31.06.54.19.69.13.15.35.23.65.23.15 0 .36-.03.62-.08v1.06c-.35.09-.68.14-1.01.14-.59 0-1.03-.18-1.33-.53-.3-.35-.45-.86-.45-1.51v-4.76h-1.4v-1.01h1.4v-1.86h1.33zM707.55 124.61h-2.4v-7.64l-2.36.69v-1.82l4.54-1.57h.22v10.34zM716.99 120.57h1.05v1.85h-1.05v2.19h-2.39v-2.19h-4l-.14-1.46 4.14-6.66v-.02h2.39v6.29zm-4.25 0h1.86v-3.18l-.15.24-1.71 2.94zM722.45 120.71c0-1.22.26-2.17.79-2.88.53-.7 1.26-1.05 2.2-1.05.69 0 1.26.27 1.73.81v-3.89h2.4v10.91h-2.15l-.12-.82c-.49.64-1.12.96-1.88.96-.91 0-1.64-.35-2.17-1.05-.53-.7-.8-1.7-.8-2.99zm2.39.15c0 1.36.4 2.04 1.19 2.04.53 0 .91-.22 1.14-.67v-2.93c-.22-.45-.59-.68-1.12-.68-.74 0-1.14.6-1.2 1.79l-.01.45zM735.26 124.61c-.08-.16-.16-.39-.23-.69-.44.55-1.06.83-1.85.83-.72 0-1.34-.22-1.85-.66s-.76-.99-.76-1.65c0-.83.31-1.46.92-1.89.62-.43 1.51-.64 2.68-.64h.74v-.41c0-.71-.31-1.06-.92-1.06-.57 0-.85.28-.85.84h-2.39c0-.74.32-1.34.95-1.81.63-.46 1.44-.7 2.42-.7s1.75.24 2.32.72c.57.48.86 1.13.87 1.97v3.4c.01.71.12 1.25.33 1.62v.12h-2.38zm-1.5-1.56c.3 0 .55-.06.74-.19s.34-.27.42-.43v-1.23h-.7c-.83 0-1.25.37-1.25 1.12 0 .22.07.39.22.53s.34.2.57.2zM741.72 121.26l1.28-4.33h2.56l-3.13 8.97-.13.33c-.44.99-1.23 1.49-2.36 1.49a4 4 0 0 1-.99-.14v-1.7h.31c.34 0 .59-.05.77-.15.18-.1.31-.27.39-.52l.19-.51-2.67-7.76h2.56l1.22 4.32zM750.2 122.45c0-.2-.11-.37-.32-.49-.21-.12-.62-.25-1.21-.38-.6-.13-1.09-.31-1.48-.52-.39-.21-.68-.48-.89-.78-.2-.31-.3-.66-.3-1.06 0-.71.29-1.29.87-1.74s1.34-.69 2.29-.69c1.01 0 1.83.23 2.44.69.62.46.92 1.06.92 1.81h-2.4c0-.62-.32-.92-.97-.92-.25 0-.46.07-.63.21-.17.14-.26.31-.26.52 0 .21.1.39.31.52s.54.24 1 .33.86.19 1.2.31c1.15.4 1.73 1.11 1.73 2.14 0 .7-.31 1.27-.93 1.71-.62.44-1.43.66-2.42.66-.66 0-1.25-.12-1.76-.35s-.92-.56-1.21-.97-.43-.83-.43-1.29H748c.01.36.13.61.35.78.23.16.52.25.87.25.33 0 .57-.07.74-.2a.7.7 0 0 0 .24-.54zM753.91 126.67l-.75-.51c.44-.62.68-1.26.7-1.92v-1.19h1.29v1.03c0 .48-.12.96-.35 1.43-.24.49-.54.87-.89 1.16zM572.19 142.56v4.05h-1.36v-10.34h3.81c1.13 0 2.02.29 2.66.87.64.58.96 1.34.96 2.29 0 1-.31 1.78-.94 2.32-.63.54-1.53.81-2.69.81h-2.44zm0-1.11h2.45c.73 0 1.29-.17 1.68-.52.39-.34.58-.84.58-1.49 0-.62-.19-1.11-.58-1.48-.39-.37-.92-.56-1.6-.58h-2.53v4.07zM581.22 146.61h-1.31V135.7h1.31v10.91zM588.06 146.61c-.08-.15-.14-.42-.18-.81-.61.63-1.34.95-2.19.95-.76 0-1.38-.21-1.86-.64-.49-.43-.73-.97-.73-1.63 0-.8.3-1.42.91-1.86.61-.44 1.46-.66 2.57-.66h1.28v-.6c0-.46-.14-.83-.41-1.1-.27-.27-.68-.41-1.21-.41-.47 0-.86.12-1.18.36-.32.24-.48.52-.48.86h-1.32c0-.38.14-.75.41-1.11.27-.36.64-.64 1.11-.85.47-.21.98-.31 1.54-.31.88 0 1.58.22 2.08.66s.76 1.05.78 1.83v3.54c0 .71.09 1.27.27 1.68v.11h-1.39zm-2.18-1c.41 0 .8-.11 1.17-.32s.64-.49.8-.83v-1.58h-1.03c-1.61 0-2.41.47-2.41 1.41 0 .41.14.73.41.97.28.23.63.35 1.06.35zM592.47 138.93l.04.96c.59-.74 1.35-1.11 2.3-1.11 1.62 0 2.44.92 2.46 2.75v5.08h-1.31v-5.08c0-.55-.13-.96-.38-1.23s-.64-.4-1.16-.4c-.43 0-.8.11-1.12.34-.32.23-.57.53-.75.89v5.47h-1.31v-7.68h1.23zM603.72 144.57c0-.35-.13-.63-.4-.83-.27-.2-.73-.37-1.4-.51-.67-.14-1.19-.31-1.58-.51-.39-.2-.68-.44-.87-.71-.19-.27-.28-.6-.28-.98 0-.63.27-1.16.8-1.6.53-.44 1.21-.65 2.04-.65.87 0 1.58.22 2.12.67.54.45.81 1.02.81 1.72h-1.32c0-.36-.15-.67-.46-.93-.3-.26-.69-.39-1.15-.39-.48 0-.85.1-1.12.31s-.4.48-.4.82c0 .32.12.56.38.72.25.16.7.32 1.36.46.66.15 1.19.32 1.59.53.41.2.71.45.91.74.2.29.29.63.29 1.05 0 .69-.27 1.24-.82 1.65-.55.41-1.26.62-2.14.62-.62 0-1.16-.11-1.63-.33-.47-.22-.84-.52-1.11-.91-.27-.39-.4-.81-.4-1.27h1.31c.02.44.2.79.53 1.05s.76.39 1.3.39c.5 0 .9-.1 1.2-.3.29-.2.44-.47.44-.81zM614.82 144.57c0-.35-.13-.63-.4-.83-.27-.2-.73-.37-1.4-.51-.67-.14-1.19-.31-1.58-.51-.39-.2-.68-.44-.87-.71-.19-.27-.28-.6-.28-.98 0-.63.27-1.16.8-1.6.53-.44 1.21-.65 2.04-.65.87 0 1.58.22 2.12.67.54.45.81 1.02.81 1.72h-1.32c0-.36-.15-.67-.46-.93-.3-.26-.69-.39-1.15-.39-.48 0-.85.1-1.12.31s-.4.48-.4.82c0 .32.12.56.38.72.25.16.7.32 1.36.46.66.15 1.19.32 1.59.53.41.2.71.45.91.74.2.29.29.63.29 1.05 0 .69-.27 1.24-.82 1.65-.55.41-1.26.62-2.14.62-.62 0-1.16-.11-1.63-.33-.47-.22-.84-.52-1.11-.91-.27-.39-.4-.81-.4-1.27h1.31c.02.44.2.79.53 1.05s.76.39 1.3.39c.5 0 .9-.1 1.2-.3.29-.2.44-.47.44-.81zM619.63 137.07v1.86h1.43v1.01h-1.43v4.77c0 .31.06.54.19.69.13.15.35.23.65.23.15 0 .36-.03.62-.08v1.06c-.35.09-.68.14-1.01.14-.59 0-1.03-.18-1.33-.53-.3-.35-.45-.86-.45-1.51v-4.76h-1.4v-1.01h1.4v-1.86h1.33zM627.34 146.61c-.08-.15-.14-.42-.18-.81-.61.63-1.34.95-2.19.95-.76 0-1.38-.21-1.86-.64-.49-.43-.73-.97-.73-1.63 0-.8.3-1.42.91-1.86.61-.44 1.46-.66 2.57-.66h1.28v-.6c0-.46-.14-.83-.41-1.1-.27-.27-.68-.41-1.21-.41-.47 0-.86.12-1.18.36-.32.24-.48.52-.48.86h-1.32c0-.38.14-.75.41-1.11.27-.36.64-.64 1.11-.85.47-.21.98-.31 1.54-.31.88 0 1.58.22 2.08.66s.76 1.05.78 1.83v3.54c0 .71.09 1.27.27 1.68v.11h-1.39zm-2.18-1c.41 0 .8-.11 1.17-.32s.64-.49.8-.83v-1.58h-1.03c-1.61 0-2.41.47-2.41 1.41 0 .41.14.73.41.97.28.23.63.35 1.06.35zM634.22 140.11c-.2-.03-.41-.05-.65-.05-.86 0-1.45.37-1.75 1.1v5.45h-1.31v-7.68h1.28l.02.89c.43-.69 1.04-1.03 1.83-1.03.26 0 .45.03.58.1v1.22zM637.56 137.07v1.86H639v1.01h-1.43v4.77c0 .31.06.54.19.69.13.15.35.23.65.23.15 0 .36-.03.62-.08v1.06c-.35.09-.68.14-1.01.14-.59 0-1.03-.18-1.33-.53-.3-.35-.45-.86-.45-1.51v-4.76h-1.4v-1.01h1.4v-1.86h1.32zM640.54 136.89a.8.8 0 0 1 .2-.54c.13-.15.32-.22.58-.22.25 0 .45.07.58.22.13.15.2.33.2.54s-.07.39-.2.53-.33.21-.58.21c-.26 0-.45-.07-.58-.21a.716.716 0 0 1-.2-.53zm1.42 9.72h-1.31v-7.68h1.31v7.68zM645.3 138.93l.04.96c.59-.74 1.35-1.11 2.3-1.11 1.62 0 2.44.92 2.46 2.75v5.08h-1.31v-5.08c0-.55-.13-.96-.38-1.23s-.64-.4-1.16-.4c-.43 0-.8.11-1.12.34-.32.23-.57.53-.75.89v5.47h-1.31v-7.68h1.23zM651.77 142.71c0-1.2.28-2.15.83-2.86.55-.71 1.29-1.06 2.2-1.06.94 0 1.67.33 2.19.99l.06-.85h1.2v7.5c0 .99-.29 1.78-.88 2.35-.59.57-1.38.86-2.38.86-.55 0-1.1-.12-1.63-.35-.53-.24-.93-.56-1.21-.97l.68-.79c.56.7 1.25 1.04 2.07 1.04.64 0 1.14-.18 1.5-.54.36-.36.54-.87.54-1.52v-.66c-.53.61-1.24.91-2.15.91-.9 0-1.63-.36-2.18-1.09-.56-.73-.84-1.71-.84-2.96zm1.32.14c0 .87.18 1.55.53 2.04.36.5.85.74 1.49.74.83 0 1.44-.38 1.83-1.13V141c-.4-.73-1.01-1.1-1.81-1.1-.64 0-1.14.25-1.5.75-.36.49-.54 1.23-.54 2.2zM668.58 146.61c-.08-.15-.14-.42-.18-.81-.61.63-1.34.95-2.19.95-.76 0-1.38-.21-1.86-.64-.49-.43-.73-.97-.73-1.63 0-.8.3-1.42.91-1.86.61-.44 1.46-.66 2.57-.66h1.28v-.6c0-.46-.14-.83-.41-1.1-.27-.27-.68-.41-1.21-.41-.47 0-.86.12-1.18.36-.32.24-.48.52-.48.86h-1.32c0-.38.14-.75.41-1.11.27-.36.64-.64 1.11-.85.47-.21.98-.31 1.54-.31.88 0 1.58.22 2.08.66s.76 1.05.78 1.83v3.54c0 .71.09 1.27.27 1.68v.11h-1.39zm-2.18-1c.41 0 .8-.11 1.17-.32s.64-.49.8-.83v-1.58h-1.03c-1.61 0-2.41.47-2.41 1.41 0 .41.14.73.41.97.28.23.63.35 1.06.35zM673.53 137.07v1.86h1.43v1.01h-1.43v4.77c0 .31.06.54.19.69.13.15.35.23.65.23.15 0 .36-.03.62-.08v1.06c-.35.09-.68.14-1.01.14-.59 0-1.03-.18-1.33-.53-.3-.35-.45-.86-.45-1.51v-4.76h-1.4v-1.01h1.4v-1.86h1.33zM684.5 143.87c0-.37-.09-.67-.28-.88s-.51-.41-.97-.6-.89-.38-1.29-.58a4.74 4.74 0 0 1-1.02-.67c-.28-.26-.5-.55-.65-.89s-.23-.74-.23-1.22c0-.8.27-1.46.81-1.98s1.26-.82 2.16-.91v-1.5h1.13v1.53c.87.13 1.55.48 2.04 1.07.49.58.74 1.33.74 2.23h-2.4c0-.49-.09-.87-.28-1.14-.19-.27-.46-.4-.81-.4-.31 0-.56.1-.73.29-.17.2-.26.47-.26.81 0 .35.1.63.3.83.2.21.52.4.96.59.44.19.86.38 1.25.58s.73.43 1.01.68c.28.26.51.55.67.89.16.34.24.75.24 1.23 0 .81-.26 1.47-.77 1.98s-1.21.81-2.1.89v1.43h-1.13v-1.43c-1.03-.11-1.82-.46-2.38-1.06-.55-.6-.83-1.39-.83-2.37h2.39c0 .54.12.95.36 1.23s.58.42 1.02.42c.32 0 .58-.1.76-.29.2-.16.29-.42.29-.76zM692.87 142.61c-.52.46-1.09.7-1.73.7-.94 0-1.68-.32-2.23-.95-.55-.63-.82-1.48-.82-2.54 0-.66.15-1.28.46-1.85s.74-1.02 1.3-1.35c.56-.33 1.17-.5 1.84-.5.68 0 1.3.17 1.85.51.55.34.98.83 1.29 1.46.31.63.47 1.35.48 2.17v.92c0 1.14-.22 2.13-.67 2.97s-1.08 1.48-1.91 1.93c-.83.45-1.79.67-2.9.67h-.15v-1.92l.45-.01c1.64-.07 2.56-.81 2.74-2.21zm-1.09-1.03c.52 0 .89-.23 1.12-.67v-.99c0-.66-.11-1.15-.33-1.47s-.52-.48-.9-.48c-.34 0-.62.18-.84.54-.23.36-.34.79-.34 1.31 0 .54.12.97.35 1.29.22.31.54.47.94.47zM698.1 144.29c.38 0 .69.11.94.34s.38.51.38.86-.12.64-.38.86c-.25.22-.57.34-.94.34-.38 0-.7-.11-.95-.34-.25-.23-.37-.51-.37-.86 0-.34.12-.63.37-.86.25-.23.56-.34.95-.34zM705.69 142.61c-.52.46-1.09.7-1.73.7-.94 0-1.68-.32-2.23-.95-.55-.63-.82-1.48-.82-2.54 0-.66.15-1.28.46-1.85s.74-1.02 1.3-1.35c.56-.33 1.17-.5 1.84-.5.68 0 1.3.17 1.85.51.55.34.98.83 1.29 1.46.31.63.47 1.35.48 2.17v.92c0 1.14-.22 2.13-.67 2.97s-1.08 1.48-1.91 1.93c-.83.45-1.79.67-2.9.67h-.15v-1.92l.45-.01c1.64-.07 2.55-.81 2.74-2.21zm-1.09-1.03c.52 0 .89-.23 1.12-.67v-.99c0-.66-.11-1.15-.33-1.47s-.52-.48-.9-.48c-.34 0-.62.18-.84.54-.23.36-.34.79-.34 1.31 0 .54.12.97.35 1.29.22.31.54.47.94.47zM714.11 142.61c-.52.46-1.09.7-1.73.7-.94 0-1.68-.32-2.23-.95-.55-.63-.82-1.48-.82-2.54 0-.66.15-1.28.46-1.85s.74-1.02 1.3-1.35c.56-.33 1.17-.5 1.84-.5.68 0 1.3.17 1.85.51.55.34.98.83 1.29 1.46.31.63.47 1.35.48 2.17v.92c0 1.14-.22 2.13-.67 2.97s-1.08 1.48-1.91 1.93c-.83.45-1.79.67-2.9.67h-.15v-1.92l.45-.01c1.64-.07 2.55-.81 2.74-2.21zm-1.09-1.03c.52 0 .89-.23 1.12-.67v-.99c0-.66-.11-1.15-.33-1.47s-.52-.48-.9-.48c-.34 0-.62.18-.84.54-.23.36-.34.79-.34 1.31 0 .54.12.97.35 1.29.22.31.54.47.94.47zM718.67 147.5h-1.7l3.53-11.23h1.7l-3.53 11.23zM725.22 138.93l.08.9c.54-.7 1.28-1.04 2.19-1.04.97 0 1.63.39 1.97 1.16.52-.77 1.27-1.16 2.26-1.16 1.56 0 2.36.94 2.4 2.83v5h-2.4v-4.85c0-.39-.07-.68-.2-.86-.13-.18-.37-.27-.72-.27-.47 0-.83.21-1.06.63l.01.1v5.25h-2.4v-4.83c0-.4-.06-.69-.19-.87s-.37-.27-.73-.27c-.46 0-.81.21-1.05.63v5.35h-2.39v-7.68h2.23zM735.18 142.7c0-.77.15-1.45.45-2.05.3-.6.73-1.06 1.29-1.38.56-.32 1.21-.48 1.97-.48 1.15 0 2.06.36 2.72 1.07.66.71.99 1.68.99 2.91v.09c0 1.2-.33 2.15-1 2.85s-1.57 1.05-2.7 1.05c-1.09 0-1.97-.33-2.63-.98-.66-.66-1.02-1.54-1.07-2.67l-.02-.41zm2.39.15c0 .71.11 1.23.33 1.56.22.33.55.5.99.5.85 0 1.29-.66 1.31-1.97v-.24c0-1.38-.44-2.07-1.32-2.07-.8 0-1.23.59-1.3 1.78l-.01.44zM745.84 138.93l.08.9c.53-.7 1.26-1.04 2.19-1.04.8 0 1.4.24 1.79.72.4.48.6 1.2.61 2.16v4.95h-2.4v-4.85c0-.39-.08-.67-.23-.86-.16-.18-.44-.27-.85-.27-.47 0-.82.18-1.04.55v5.42h-2.39v-7.68h2.24zM754.63 137.02v1.91h1.26v1.66h-1.26v3.51c0 .29.05.49.16.6.1.11.31.17.62.17.24 0 .44-.01.6-.04v1.71c-.43.14-.88.21-1.35.21-.82 0-1.43-.19-1.82-.58-.39-.39-.59-.98-.59-1.77v-3.81h-.98v-1.66h.98v-1.91h2.38zM759.18 139.75c.51-.64 1.16-.97 1.96-.97.85 0 1.49.25 1.92.75s.65 1.24.66 2.22v4.85h-2.4v-4.79c0-.41-.08-.71-.25-.9-.17-.19-.45-.29-.85-.29-.49 0-.84.16-1.04.47v5.51h-2.39v-10.91h2.39v4.06z"/></svg>