<?xml version="1.0" encoding="utf-8"?>
<!-- Generator: Adobe Illustrator 26.0.3, SVG Export Plug-In . SVG Version: 6.00 Build 0)  -->
<svg version="1.1" id="Layer_1" xmlns="http://www.w3.org/2000/svg" xmlns:xlink="http://www.w3.org/1999/xlink" x="0px" y="0px"
	 viewBox="0 0 160 600" style="enable-background:new 0 0 160 600;" xml:space="preserve">
<style type="text/css">
	.st0{fill:#EDF3FA;}
	
		.st1{fill:none;stroke:url(#underline_00000162348268958923711240000013557044465000147125_);stroke-width:4;stroke-linecap:round;stroke-miterlimit:10;}
</style>
<g>
	<path class="st0" d="M24.3,146.2l-2.1,2.3v5.7h-4.1v-19.9h4.1v9l1.8-2.5l5.1-6.5h5l-7.1,8.8l7.3,11.1h-4.9L24.3,146.2z"/>
	<path class="st0" d="M42.4,154.5c-2.2,0-3.9-0.7-5.3-2c-1.4-1.3-2-3.1-2-5.3v-0.4c0-1.5,0.3-2.8,0.9-4c0.6-1.2,1.4-2.1,2.4-2.7
		c1.1-0.6,2.3-1,3.6-1c2,0,3.6,0.6,4.8,1.9c1.2,1.3,1.7,3.1,1.7,5.4v1.6H39c0.1,1,0.5,1.7,1.2,2.3c0.6,0.6,1.5,0.9,2.4,0.9
		c1.5,0,2.7-0.6,3.6-1.7l1.9,2.2c-0.6,0.8-1.4,1.5-2.4,2S43.6,154.5,42.4,154.5z M41.9,142.3c-0.8,0-1.4,0.3-1.9,0.8
		c-0.5,0.5-0.8,1.3-0.9,2.3h5.5v-0.3c0-0.9-0.3-1.6-0.7-2C43.4,142.6,42.8,142.3,41.9,142.3z"/>
	<path class="st0" d="M57.5,154.5c-2.2,0-3.9-0.7-5.3-2c-1.4-1.3-2-3.1-2-5.3v-0.4c0-1.5,0.3-2.8,0.9-4c0.6-1.2,1.4-2.1,2.4-2.7
		c1.1-0.6,2.3-1,3.6-1c2,0,3.6,0.6,4.8,1.9c1.2,1.3,1.7,3.1,1.7,5.4v1.6h-9.4c0.1,1,0.5,1.7,1.2,2.3c0.6,0.6,1.5,0.9,2.4,0.9
		c1.5,0,2.7-0.6,3.6-1.7l1.9,2.2c-0.6,0.8-1.4,1.5-2.4,2S58.7,154.5,57.5,154.5z M57.1,142.3c-0.8,0-1.4,0.3-1.9,0.8
		c-0.5,0.5-0.8,1.3-0.9,2.3h5.5v-0.3c0-0.9-0.3-1.6-0.7-2C58.5,142.6,57.9,142.3,57.1,142.3z"/>
	<path class="st0" d="M79.2,147c0,2.3-0.5,4.1-1.6,5.5c-1,1.4-2.4,2.1-4.2,2.1c-1.5,0-2.7-0.5-3.6-1.6v7h-4v-20.5h3.7l0.1,1.4
		c1-1.1,2.2-1.7,3.7-1.7c1.8,0,3.2,0.7,4.3,2c1,1.3,1.5,3.2,1.5,5.6V147z M75.2,146.7c0-1.4-0.2-2.4-0.7-3.2
		c-0.5-0.7-1.2-1.1-2.1-1.1c-1.2,0-2.1,0.5-2.6,1.4v6.1c0.5,1,1.3,1.5,2.6,1.5C74.3,151.3,75.2,149.8,75.2,146.7z"/>
	<path class="st0" d="M94.1,148.6l2.7-9.2h4.2l-5.9,17.1l-0.3,0.8c-0.9,1.9-2.3,2.9-4.4,2.9c-0.6,0-1.2-0.1-1.8-0.3v-3l0.6,0
		c0.7,0,1.3-0.1,1.7-0.3c0.4-0.2,0.7-0.6,0.9-1.1l0.5-1.2l-5.2-14.8h4.3L94.1,148.6z"/>
	<path class="st0" d="M102,146.7c0-1.5,0.3-2.8,0.8-3.9c0.6-1.1,1.4-2,2.4-2.7c1.1-0.6,2.3-0.9,3.7-0.9c2,0,3.6,0.6,4.9,1.8
		c1.3,1.2,2,2.9,2.1,5l0,1c0,2.3-0.6,4.1-1.9,5.5c-1.3,1.4-3,2.1-5.1,2.1s-3.8-0.7-5.1-2.1s-1.9-3.2-1.9-5.6V146.7z M106,147
		c0,1.4,0.3,2.5,0.8,3.2c0.5,0.7,1.3,1.1,2.3,1.1c1,0,1.7-0.4,2.2-1.1c0.5-0.7,0.8-1.9,0.8-3.5c0-1.4-0.3-2.4-0.8-3.2
		c-0.5-0.8-1.3-1.1-2.3-1.1c-1,0-1.7,0.4-2.2,1.1C106.2,144.2,106,145.4,106,147z"/>
	<path class="st0" d="M127.3,152.7c-1,1.2-2.3,1.8-4,1.8c-1.6,0-2.8-0.5-3.6-1.4c-0.8-0.9-1.3-2.2-1.3-4v-9.7h4v9.6
		c0,1.5,0.7,2.3,2.1,2.3c1.3,0,2.3-0.5,2.8-1.4v-10.5h4v14.8h-3.7L127.3,152.7z"/>
	<path class="st0" d="M142.4,143.1c-0.5-0.1-1-0.1-1.4-0.1c-1.5,0-2.5,0.5-2.9,1.5v9.7h-4v-14.8h3.7l0.1,1.8c0.8-1.4,1.9-2,3.3-2
		c0.4,0,0.8,0.1,1.2,0.2L142.4,143.1z"/>
	<path class="st0" d="M50.9,182.3c0.7,0,1.3-0.2,1.8-0.6c0.5-0.4,0.7-0.9,0.7-1.6h3.7c0,1-0.3,1.9-0.8,2.8c-0.5,0.8-1.3,1.5-2.2,1.9
		c-0.9,0.5-2,0.7-3.1,0.7c-2.1,0-3.8-0.7-5-2c-1.2-1.3-1.8-3.2-1.8-5.6v-0.3c0-2.3,0.6-4.1,1.8-5.5c1.2-1.4,2.9-2,5-2
		c1.9,0,3.3,0.5,4.5,1.6c1.1,1.1,1.7,2.5,1.7,4.2h-3.7c0-0.8-0.3-1.4-0.7-1.9c-0.5-0.5-1.1-0.7-1.8-0.7c-0.9,0-1.6,0.3-2.1,1
		c-0.5,0.7-0.7,1.8-0.7,3.3v0.4c0,1.5,0.2,2.6,0.7,3.3S50,182.3,50.9,182.3z"/>
	<path class="st0" d="M67.7,174.1c-0.5-0.1-1-0.1-1.4-0.1c-1.5,0-2.5,0.5-2.9,1.5v9.7h-4v-14.8h3.7l0.1,1.8c0.8-1.4,1.9-2,3.3-2
		c0.4,0,0.8,0.1,1.2,0.2L67.7,174.1z"/>
	<path class="st0" d="M76.4,185.5c-2.2,0-3.9-0.7-5.3-2c-1.4-1.3-2-3.1-2-5.3v-0.4c0-1.5,0.3-2.8,0.9-4c0.6-1.2,1.4-2.1,2.4-2.7
		c1.1-0.6,2.3-1,3.6-1c2,0,3.6,0.6,4.8,1.9c1.2,1.3,1.7,3.1,1.7,5.4v1.6h-9.4c0.1,1,0.5,1.7,1.2,2.3c0.6,0.6,1.5,0.9,2.4,0.9
		c1.5,0,2.7-0.6,3.6-1.7l1.9,2.2c-0.6,0.8-1.4,1.5-2.4,2S77.6,185.5,76.4,185.5z M75.9,173.3c-0.8,0-1.4,0.3-1.9,0.8
		c-0.5,0.5-0.8,1.3-0.9,2.3h5.5v-0.3c0-0.9-0.3-1.6-0.7-2C77.4,173.6,76.8,173.3,75.9,173.3z"/>
	<path class="st0" d="M84.1,177.7c0-2.3,0.5-4.1,1.6-5.5c1-1.4,2.4-2.1,4.2-2.1c1.4,0,2.6,0.5,3.6,1.6v-7.5h4v21h-3.6l-0.2-1.6
		c-1,1.2-2.3,1.8-3.8,1.8c-1.7,0-3.1-0.7-4.2-2.1C84.6,182.1,84.1,180.2,84.1,177.7z M88,178c0,1.4,0.2,2.5,0.7,3.2
		c0.5,0.7,1.2,1.1,2.1,1.1c1.2,0,2.1-0.5,2.6-1.5v-5.8c-0.5-1-1.3-1.5-2.6-1.5C89,173.4,88,174.9,88,178z"/>
	<path class="st0" d="M100.5,166.6c0-0.6,0.2-1.1,0.6-1.5s0.9-0.6,1.6-0.6c0.7,0,1.2,0.2,1.6,0.6c0.4,0.4,0.6,0.9,0.6,1.5
		c0,0.6-0.2,1.1-0.6,1.5c-0.4,0.4-0.9,0.6-1.6,0.6c-0.7,0-1.2-0.2-1.6-0.6C100.7,167.7,100.5,167.2,100.5,166.6z M104.7,185.2h-4
		v-14.8h4V185.2z"/>
	<path class="st0" d="M112.6,166.8v3.6h2.5v2.9h-2.5v7.4c0,0.5,0.1,0.9,0.3,1.2c0.2,0.2,0.6,0.4,1.2,0.4c0.4,0,0.8,0,1.2-0.1v3
		c-0.8,0.2-1.6,0.4-2.4,0.4c-2.8,0-4.2-1.4-4.2-4.2v-8h-2.2v-2.9h2.2v-3.6H112.6z"/>
	<path class="st0" d="M46.8,212.1c0-0.5-0.2-0.9-0.7-1.1c-0.5-0.3-1.2-0.5-2.3-0.7c-3.5-0.7-5.3-2.2-5.3-4.5c0-1.3,0.5-2.4,1.6-3.3
		c1.1-0.9,2.5-1.3,4.3-1.3c1.9,0,3.4,0.4,4.5,1.3c1.1,0.9,1.7,2,1.7,3.4h-4c0-0.6-0.2-1-0.5-1.4c-0.4-0.4-0.9-0.6-1.7-0.6
		c-0.7,0-1.2,0.2-1.5,0.5c-0.4,0.3-0.5,0.7-0.5,1.1c0,0.4,0.2,0.8,0.6,1.1c0.4,0.3,1.1,0.5,2.1,0.7c1,0.2,1.8,0.4,2.5,0.7
		c2.1,0.8,3.1,2.1,3.1,4c0,1.3-0.6,2.4-1.7,3.3c-1.2,0.8-2.7,1.3-4.5,1.3c-1.2,0-2.3-0.2-3.3-0.7c-1-0.4-1.7-1-2.3-1.8
		c-0.5-0.8-0.8-1.6-0.8-2.5h3.7c0,0.7,0.3,1.2,0.8,1.6c0.5,0.4,1.1,0.6,1.9,0.6c0.8,0,1.3-0.1,1.7-0.4
		C46.6,213,46.8,212.6,46.8,212.1z"/>
	<path class="st0" d="M59.3,213.3c0.7,0,1.3-0.2,1.8-0.6c0.5-0.4,0.7-0.9,0.7-1.6h3.7c0,1-0.3,1.9-0.8,2.8c-0.5,0.8-1.3,1.5-2.2,1.9
		c-0.9,0.5-2,0.7-3.1,0.7c-2.1,0-3.8-0.7-5-2c-1.2-1.3-1.8-3.2-1.8-5.6v-0.3c0-2.3,0.6-4.1,1.8-5.5c1.2-1.4,2.9-2,5-2
		c1.9,0,3.3,0.5,4.5,1.6c1.1,1.1,1.7,2.5,1.7,4.2h-3.7c0-0.8-0.3-1.4-0.7-1.9c-0.5-0.5-1.1-0.7-1.8-0.7c-0.9,0-1.6,0.3-2.1,1
		c-0.5,0.7-0.7,1.8-0.7,3.3v0.4c0,1.5,0.2,2.6,0.7,3.3S58.4,213.3,59.3,213.3z"/>
	<path class="st0" d="M67.2,208.7c0-1.5,0.3-2.8,0.8-3.9c0.6-1.1,1.4-2,2.4-2.7c1.1-0.6,2.3-0.9,3.7-0.9c2,0,3.6,0.6,4.9,1.8
		c1.3,1.2,2,2.9,2.1,5l0,1c0,2.3-0.6,4.1-1.9,5.5c-1.3,1.4-3,2.1-5.1,2.1s-3.8-0.7-5.1-2.1s-1.9-3.2-1.9-5.6V208.7z M71.1,209
		c0,1.4,0.3,2.5,0.8,3.2c0.5,0.7,1.3,1.1,2.3,1.1c1,0,1.7-0.4,2.2-1.1c0.5-0.7,0.8-1.9,0.8-3.5c0-1.4-0.3-2.4-0.8-3.2
		c-0.5-0.8-1.3-1.1-2.3-1.1c-1,0-1.7,0.4-2.2,1.1C71.4,206.2,71.1,207.4,71.1,209z"/>
	<path class="st0" d="M91.9,205.1c-0.5-0.1-1-0.1-1.4-0.1c-1.5,0-2.5,0.5-2.9,1.5v9.7h-4v-14.8h3.7l0.1,1.8c0.8-1.4,1.9-2,3.3-2
		c0.4,0,0.8,0.1,1.2,0.2L91.9,205.1z"/>
	<path class="st0" d="M100.6,216.5c-2.2,0-3.9-0.7-5.3-2c-1.4-1.3-2-3.1-2-5.3v-0.4c0-1.5,0.3-2.8,0.9-4c0.6-1.2,1.4-2.1,2.4-2.7
		c1.1-0.6,2.3-1,3.6-1c2,0,3.6,0.6,4.8,1.9c1.2,1.3,1.7,3.1,1.7,5.4v1.6h-9.4c0.1,1,0.5,1.7,1.2,2.3c0.6,0.6,1.5,0.9,2.4,0.9
		c1.5,0,2.7-0.6,3.6-1.7l1.9,2.2c-0.6,0.8-1.4,1.5-2.4,2S101.9,216.5,100.6,216.5z M100.2,204.3c-0.8,0-1.4,0.3-1.9,0.8
		c-0.5,0.5-0.8,1.3-0.9,2.3h5.5v-0.3c0-0.9-0.3-1.6-0.7-2C101.7,204.6,101,204.3,100.2,204.3z"/>
	<path class="st0" d="M117,212.1c0-0.5-0.2-0.9-0.7-1.1c-0.5-0.3-1.2-0.5-2.3-0.7c-3.5-0.7-5.3-2.2-5.3-4.5c0-1.3,0.5-2.4,1.6-3.3
		c1.1-0.9,2.5-1.3,4.3-1.3c1.9,0,3.4,0.4,4.5,1.3c1.1,0.9,1.7,2,1.7,3.4h-4c0-0.6-0.2-1-0.5-1.4s-0.9-0.6-1.7-0.6
		c-0.7,0-1.2,0.2-1.5,0.5s-0.5,0.7-0.5,1.1c0,0.4,0.2,0.8,0.6,1.1c0.4,0.3,1.1,0.5,2.1,0.7c1,0.2,1.8,0.4,2.5,0.7
		c2.1,0.8,3.1,2.1,3.1,4c0,1.3-0.6,2.4-1.7,3.3s-2.7,1.3-4.5,1.3c-1.2,0-2.3-0.2-3.3-0.7s-1.7-1-2.3-1.8c-0.5-0.8-0.8-1.6-0.8-2.5
		h3.7c0,0.7,0.3,1.2,0.8,1.6c0.5,0.4,1.1,0.6,1.9,0.6c0.8,0,1.3-0.1,1.7-0.4S117,212.6,117,212.1z"/>
	<path class="st0" d="M38.1,228.6c0-0.6,0.2-1.1,0.6-1.5s0.9-0.6,1.6-0.6c0.7,0,1.2,0.2,1.6,0.6c0.4,0.4,0.6,0.9,0.6,1.5
		c0,0.6-0.2,1.1-0.6,1.5c-0.4,0.4-0.9,0.6-1.6,0.6c-0.7,0-1.2-0.2-1.6-0.6C38.3,229.7,38.1,229.2,38.1,228.6z M42.3,247.2h-4v-14.8
		h4V247.2z"/>
	<path class="st0" d="M49.2,232.4l0.1,1.7c1.1-1.3,2.5-2,4.3-2c1.6,0,2.7,0.5,3.5,1.4s1.2,2.3,1.2,4.1v9.6h-4v-9.5
		c0-0.8-0.2-1.4-0.5-1.8c-0.4-0.4-1-0.6-1.8-0.6c-1.1,0-1.9,0.5-2.5,1.4v10.4h-4v-14.8H49.2z"/>
	<path class="st0" d="M73.7,241.6l2.7-9.2h4.2l-5.9,17.1l-0.3,0.8c-0.9,1.9-2.3,2.9-4.4,2.9c-0.6,0-1.2-0.1-1.8-0.3v-3l0.6,0
		c0.7,0,1.3-0.1,1.7-0.3s0.7-0.6,0.9-1.1l0.5-1.2l-5.2-14.8H71L73.7,241.6z"/>
	<path class="st0" d="M81.7,239.7c0-1.5,0.3-2.8,0.8-3.9c0.6-1.1,1.4-2,2.4-2.7c1.1-0.6,2.3-0.9,3.7-0.9c2,0,3.6,0.6,4.9,1.8
		c1.3,1.2,2,2.9,2.1,5l0,1c0,2.3-0.6,4.1-1.9,5.5c-1.3,1.4-3,2.1-5.1,2.1s-3.8-0.7-5.1-2.1s-1.9-3.2-1.9-5.6V239.7z M85.6,240
		c0,1.4,0.3,2.5,0.8,3.2c0.5,0.7,1.3,1.1,2.3,1.1c1,0,1.7-0.4,2.2-1.1c0.5-0.7,0.8-1.9,0.8-3.5c0-1.4-0.3-2.4-0.8-3.2
		c-0.5-0.8-1.3-1.1-2.3-1.1c-1,0-1.7,0.4-2.2,1.1C85.9,237.2,85.6,238.4,85.6,240z"/>
	<path class="st0" d="M107,245.7c-1,1.2-2.3,1.8-4,1.8c-1.6,0-2.8-0.5-3.6-1.4s-1.3-2.2-1.3-4v-9.7h4v9.6c0,1.5,0.7,2.3,2.1,2.3
		c1.3,0,2.3-0.5,2.8-1.4v-10.5h4v14.8h-3.7L107,245.7z"/>
	<path class="st0" d="M122.1,236.1c-0.5-0.1-1-0.1-1.4-0.1c-1.5,0-2.5,0.5-2.9,1.5v9.7h-4v-14.8h3.7l0.1,1.8c0.8-1.4,1.9-2,3.3-2
		c0.4,0,0.8,0.1,1.2,0.2L122.1,236.1z"/>
	<path class="st0" d="M47.4,271c0,2.3-0.5,4.1-1.6,5.5c-1,1.4-2.4,2.1-4.2,2.1c-1.5,0-2.7-0.5-3.6-1.6v7h-4v-20.5h3.7l0.1,1.4
		c1-1.1,2.2-1.7,3.7-1.7c1.8,0,3.2,0.7,4.3,2s1.5,3.2,1.5,5.6V271z M43.5,270.7c0-1.4-0.2-2.4-0.7-3.2c-0.5-0.7-1.2-1.1-2.1-1.1
		c-1.2,0-2.1,0.5-2.6,1.4v6.1c0.5,1,1.3,1.5,2.6,1.5C42.5,275.3,43.5,273.8,43.5,270.7z"/>
	<path class="st0" d="M49.3,270.7c0-1.5,0.3-2.8,0.8-3.9c0.6-1.1,1.4-2,2.4-2.7c1.1-0.6,2.3-0.9,3.7-0.9c2,0,3.6,0.6,4.9,1.8
		c1.3,1.2,2,2.9,2.1,5l0,1c0,2.3-0.6,4.1-1.9,5.5c-1.3,1.4-3,2.1-5.1,2.1s-3.8-0.7-5.1-2.1s-1.9-3.2-1.9-5.6V270.7z M53.2,271
		c0,1.4,0.3,2.5,0.8,3.2c0.5,0.7,1.3,1.1,2.3,1.1c1,0,1.7-0.4,2.2-1.1c0.5-0.7,0.8-1.9,0.8-3.5c0-1.4-0.3-2.4-0.8-3.2
		c-0.5-0.8-1.3-1.1-2.3-1.1c-1,0-1.7,0.4-2.2,1.1C53.5,268.2,53.2,269.4,53.2,271z"/>
	<path class="st0" d="M71.9,275.3c0.7,0,1.3-0.2,1.8-0.6c0.5-0.4,0.7-0.9,0.7-1.6h3.7c0,1-0.3,1.9-0.8,2.8c-0.5,0.8-1.3,1.5-2.2,1.9
		c-0.9,0.5-2,0.7-3.1,0.7c-2.1,0-3.8-0.7-5-2c-1.2-1.3-1.8-3.2-1.8-5.6v-0.3c0-2.3,0.6-4.1,1.8-5.5c1.2-1.4,2.9-2,5-2
		c1.9,0,3.3,0.5,4.5,1.6c1.1,1.1,1.7,2.5,1.7,4.2h-3.7c0-0.8-0.3-1.4-0.7-1.9c-0.5-0.5-1.1-0.7-1.8-0.7c-0.9,0-1.6,0.3-2.1,1
		c-0.5,0.7-0.7,1.8-0.7,3.3v0.4c0,1.5,0.2,2.6,0.7,3.3C70.2,275,70.9,275.3,71.9,275.3z"/>
	<path class="st0" d="M85.7,272.3l-1.4,1.4v4.5h-4v-21h4v11.6l0.8-1l3.8-4.4h4.7l-5.3,6.2l5.8,8.6h-4.5L85.7,272.3z"/>
	<path class="st0" d="M102.1,278.5c-2.2,0-3.9-0.7-5.3-2c-1.4-1.3-2-3.1-2-5.3v-0.4c0-1.5,0.3-2.8,0.9-4s1.4-2.1,2.4-2.7
		s2.3-1,3.6-1c2,0,3.6,0.6,4.8,1.9s1.7,3.1,1.7,5.4v1.6h-9.4c0.1,1,0.5,1.7,1.2,2.3s1.5,0.9,2.4,0.9c1.5,0,2.7-0.6,3.6-1.7l1.9,2.2
		c-0.6,0.8-1.4,1.5-2.4,2S103.3,278.5,102.1,278.5z M101.6,266.3c-0.8,0-1.4,0.3-1.9,0.8c-0.5,0.5-0.8,1.3-0.9,2.3h5.5v-0.3
		c0-0.9-0.3-1.6-0.7-2C103.1,266.6,102.5,266.3,101.6,266.3z"/>
	<path class="st0" d="M115.1,259.8v3.6h2.5v2.9h-2.5v7.4c0,0.5,0.1,0.9,0.3,1.2s0.6,0.4,1.2,0.4c0.4,0,0.8,0,1.2-0.1v3
		c-0.8,0.2-1.6,0.4-2.4,0.4c-2.8,0-4.2-1.4-4.2-4.2v-8H109v-2.9h2.2v-3.6H115.1z"/>
	<path class="st0" d="M120.1,276.3c0-0.6,0.2-1.1,0.6-1.5s1-0.6,1.6-0.6c0.6,0,1.2,0.2,1.6,0.6s0.6,0.9,0.6,1.5
		c0,0.6-0.2,1.1-0.6,1.5s-1,0.6-1.6,0.6c-0.6,0-1.2-0.2-1.6-0.6S120.1,276.9,120.1,276.3z"/>
</g>
<linearGradient id="underline_00000142159497324231473030000018265785415597036727_" gradientUnits="userSpaceOnUse" x1="30.3366" y1="296.8028" x2="128.7687" y2="296.8028">
	<stop  offset="0" style="stop-color:#41B5E8"/>
	<stop  offset="0.5" style="stop-color:#6A53A3"/>
	<stop  offset="1" style="stop-color:#E72E8A"/>
</linearGradient>
<line id="underline_00000180332011390167824680000009100605743039526075_" style="fill:none;stroke:url(#underline_00000142159497324231473030000018265785415597036727_);stroke-width:4;stroke-linecap:round;stroke-miterlimit:10;" x1="32.3" y1="296.8" x2="126.8" y2="296.8"/>
</svg>
