<?xml version="1.0" encoding="utf-8"?>
<!-- Generator: Adobe Illustrator 26.0.3, SVG Export Plug-In . SVG Version: 6.00 Build 0)  -->
<svg version="1.1" id="Layer_1" xmlns="http://www.w3.org/2000/svg" xmlns:xlink="http://www.w3.org/1999/xlink" x="0px" y="0px"
	 viewBox="0 0 160 600" style="enable-background:new 0 0 160 600;" xml:space="preserve">
<style type="text/css">
	.st0{fill:#E82D8A;stroke:#FFFFFF;stroke-width:0.75;stroke-miterlimit:10;}
	.st1{fill:#FFFFFF;}
</style>
<path class="st0" d="M133.5,293.3H26.5c-6.4,0-11.6-5.2-11.6-11.6v0c0-6.4,5.2-11.6,11.6-11.6h106.9c6.4,0,11.6,5.2,11.6,11.6v0
	C145.1,288.1,139.9,293.3,133.5,293.3z"/>
<g>
	<path class="st1" d="M34.1,283.4c-0.1,1-0.4,1.7-1.1,2.3c-0.6,0.5-1.5,0.8-2.5,0.8c-1.1,0-2-0.4-2.7-1.2s-1-1.8-1-3.2v-0.5
		c0-0.9,0.2-1.6,0.5-2.3s0.7-1.2,1.3-1.5c0.6-0.3,1.2-0.5,1.9-0.5c1,0,1.9,0.3,2.5,0.8c0.6,0.5,1,1.3,1.1,2.3h-1.8
		c0-0.6-0.2-1-0.5-1.2c-0.3-0.3-0.7-0.4-1.3-0.4c-0.6,0-1.1,0.2-1.4,0.7c-0.3,0.4-0.5,1.1-0.5,2v0.7c0,1,0.1,1.7,0.4,2.1
		c0.3,0.4,0.7,0.7,1.4,0.7c0.6,0,1-0.1,1.3-0.4c0.3-0.3,0.4-0.7,0.5-1.2H34.1z"/>
	<path class="st1" d="M37,286.4h-1.8V277H37V286.4z"/>
	<path class="st1" d="M38.4,278.1c0-0.3,0.1-0.5,0.3-0.7c0.2-0.2,0.4-0.3,0.7-0.3c0.3,0,0.5,0.1,0.7,0.3c0.2,0.2,0.3,0.4,0.3,0.7
		c0,0.3-0.1,0.5-0.3,0.7s-0.4,0.3-0.7,0.3s-0.5-0.1-0.7-0.3C38.5,278.5,38.4,278.3,38.4,278.1z M40.3,286.4h-1.8v-6.6h1.8V286.4z"/>
	<path class="st1" d="M44.5,285.1c0.3,0,0.6-0.1,0.8-0.3c0.2-0.2,0.3-0.4,0.3-0.7h1.7c0,0.4-0.1,0.9-0.4,1.2c-0.2,0.4-0.6,0.7-1,0.9
		c-0.4,0.2-0.9,0.3-1.4,0.3c-0.9,0-1.7-0.3-2.2-0.9c-0.5-0.6-0.8-1.4-0.8-2.5V283c0-1,0.3-1.8,0.8-2.4c0.5-0.6,1.3-0.9,2.2-0.9
		c0.8,0,1.5,0.2,2,0.7s0.8,1.1,0.8,1.9h-1.7c0-0.3-0.1-0.6-0.3-0.8c-0.2-0.2-0.5-0.3-0.8-0.3c-0.4,0-0.7,0.1-0.9,0.4
		s-0.3,0.8-0.3,1.5v0.2c0,0.7,0.1,1.2,0.3,1.5C43.8,284.9,44.1,285.1,44.5,285.1z"/>
	<path class="st1" d="M50.7,283.7l-0.6,0.6v2h-1.8V277H50v5.2l0.3-0.4l1.7-2h2.1l-2.4,2.8l2.6,3.8h-2L50.7,283.7z"/>
	<path class="st1" d="M60.2,278.1v1.6h1.1v1.3h-1.1v3.3c0,0.2,0,0.4,0.1,0.5c0.1,0.1,0.3,0.2,0.5,0.2c0.2,0,0.4,0,0.5,0v1.3
		c-0.3,0.1-0.7,0.2-1.1,0.2c-1.2,0-1.9-0.6-1.9-1.9v-3.6h-1v-1.3h1v-1.6H60.2z"/>
	<path class="st1" d="M61.8,283c0-0.7,0.1-1.2,0.4-1.8c0.3-0.5,0.6-0.9,1.1-1.2c0.5-0.3,1-0.4,1.6-0.4c0.9,0,1.6,0.3,2.2,0.8
		s0.9,1.3,0.9,2.2l0,0.5c0,1-0.3,1.8-0.8,2.4s-1.3,0.9-2.3,0.9c-1,0-1.7-0.3-2.3-0.9S61.8,284.1,61.8,283L61.8,283z M63.6,283.1
		c0,0.6,0.1,1.1,0.4,1.4s0.6,0.5,1,0.5c0.4,0,0.8-0.2,1-0.5c0.2-0.3,0.4-0.9,0.4-1.6c0-0.6-0.1-1.1-0.4-1.4c-0.2-0.3-0.6-0.5-1-0.5
		c-0.4,0-0.8,0.2-1,0.5S63.6,282.4,63.6,283.1z"/>
	<path class="st1" d="M74.1,286.4h-1.8V277h1.8V286.4z"/>
	<path class="st1" d="M78.6,286.5c-1,0-1.8-0.3-2.4-0.9c-0.6-0.6-0.9-1.4-0.9-2.4V283c0-0.7,0.1-1.3,0.4-1.8s0.6-0.9,1.1-1.2
		c0.5-0.3,1-0.4,1.6-0.4c0.9,0,1.6,0.3,2.1,0.9s0.8,1.4,0.8,2.4v0.7h-4.2c0.1,0.4,0.2,0.8,0.5,1c0.3,0.3,0.6,0.4,1.1,0.4
		c0.7,0,1.2-0.2,1.6-0.7l0.9,1c-0.3,0.4-0.6,0.7-1.1,0.9C79.7,286.4,79.2,286.5,78.6,286.5z M78.4,281.1c-0.4,0-0.6,0.1-0.9,0.4
		c-0.2,0.2-0.4,0.6-0.4,1h2.5v-0.1c0-0.4-0.1-0.7-0.3-0.9C79.1,281.2,78.8,281.1,78.4,281.1z"/>
	<path class="st1" d="M86.2,286.4c-0.1-0.2-0.1-0.4-0.2-0.6c-0.4,0.5-1,0.7-1.7,0.7c-0.6,0-1.2-0.2-1.6-0.6
		c-0.4-0.4-0.6-0.8-0.6-1.4c0-0.7,0.3-1.2,0.8-1.6c0.5-0.4,1.3-0.6,2.2-0.6h0.8v-0.4c0-0.3-0.1-0.5-0.2-0.7
		c-0.2-0.2-0.4-0.3-0.7-0.3c-0.3,0-0.5,0.1-0.7,0.2c-0.2,0.1-0.3,0.3-0.3,0.6h-1.8c0-0.4,0.1-0.7,0.4-1.1s0.6-0.6,1-0.8
		c0.4-0.2,0.9-0.3,1.5-0.3c0.8,0,1.5,0.2,1.9,0.6c0.5,0.4,0.7,1,0.7,1.7v2.9c0,0.6,0.1,1.1,0.3,1.4v0.1H86.2z M84.7,285.1
		c0.3,0,0.5-0.1,0.7-0.2c0.2-0.1,0.4-0.3,0.5-0.5v-1.1h-0.7c-0.9,0-1.4,0.3-1.4,0.9l0,0.1c0,0.2,0.1,0.4,0.2,0.5
		C84.2,285.1,84.4,285.1,84.7,285.1z"/>
	<path class="st1" d="M92.8,281.4c-0.2,0-0.5,0-0.6,0c-0.7,0-1.1,0.2-1.3,0.7v4.3H89v-6.6h1.7l0,0.8c0.4-0.6,0.8-0.9,1.5-0.9
		c0.2,0,0.4,0,0.5,0.1L92.8,281.4z"/>
	<path class="st1" d="M95.2,279.8l0.1,0.8c0.5-0.6,1.1-0.9,1.9-0.9c0.7,0,1.2,0.2,1.6,0.6c0.3,0.4,0.5,1,0.5,1.8v4.3h-1.8v-4.2
		c0-0.4-0.1-0.6-0.2-0.8s-0.4-0.3-0.8-0.3c-0.5,0-0.9,0.2-1.1,0.6v4.7h-1.8v-6.6H95.2z"/>
	<path class="st1" d="M105.4,279.8l0.1,0.7c0.5-0.6,1.1-0.9,1.9-0.9c0.9,0,1.4,0.3,1.8,1c0.5-0.7,1.1-1,2-1c0.7,0,1.2,0.2,1.6,0.6
		s0.5,1,0.5,1.9v4.2h-1.8v-4.2c0-0.4-0.1-0.6-0.2-0.8s-0.4-0.3-0.8-0.3c-0.5,0-0.9,0.3-1.1,0.8l0,4.5h-1.8v-4.2
		c0-0.4-0.1-0.7-0.2-0.8s-0.4-0.3-0.8-0.3c-0.5,0-0.9,0.2-1.1,0.6v4.7h-1.8v-6.6H105.4z"/>
	<path class="st1" d="M114.3,283c0-0.7,0.1-1.2,0.4-1.8c0.3-0.5,0.6-0.9,1.1-1.2c0.5-0.3,1-0.4,1.7-0.4c0.9,0,1.6,0.3,2.2,0.8
		s0.9,1.3,0.9,2.2l0,0.5c0,1-0.3,1.8-0.8,2.4s-1.3,0.9-2.3,0.9c-1,0-1.7-0.3-2.3-0.9S114.3,284.1,114.3,283L114.3,283z M116,283.1
		c0,0.6,0.1,1.1,0.4,1.4c0.2,0.3,0.6,0.5,1,0.5c0.4,0,0.8-0.2,1-0.5c0.2-0.3,0.4-0.9,0.4-1.6c0-0.6-0.1-1.1-0.4-1.4
		c-0.2-0.3-0.6-0.5-1-0.5c-0.4,0-0.8,0.2-1,0.5C116.1,281.9,116,282.4,116,283.1z"/>
	<path class="st1" d="M125.3,281.4c-0.2,0-0.5,0-0.6,0c-0.7,0-1.1,0.2-1.3,0.7v4.3h-1.8v-6.6h1.7l0,0.8c0.4-0.6,0.8-0.9,1.5-0.9
		c0.2,0,0.4,0,0.5,0.1L125.3,281.4z"/>
	<path class="st1" d="M129.2,286.5c-1,0-1.8-0.3-2.4-0.9c-0.6-0.6-0.9-1.4-0.9-2.4V283c0-0.7,0.1-1.3,0.4-1.8
		c0.3-0.5,0.6-0.9,1.1-1.2c0.5-0.3,1-0.4,1.6-0.4c0.9,0,1.6,0.3,2.1,0.9s0.8,1.4,0.8,2.4v0.7h-4.2c0.1,0.4,0.2,0.8,0.5,1
		c0.3,0.3,0.7,0.4,1.1,0.4c0.7,0,1.2-0.2,1.6-0.7l0.9,1c-0.3,0.4-0.6,0.7-1.1,0.9C130.2,286.4,129.7,286.5,129.2,286.5z M129,281.1
		c-0.3,0-0.6,0.1-0.9,0.4s-0.4,0.6-0.4,1h2.5v-0.1c0-0.4-0.1-0.7-0.3-0.9C129.7,281.2,129.4,281.1,129,281.1z"/>
</g>
</svg>
