<?xml version="1.0" encoding="utf-8"?>
<!-- Generator: Adobe Illustrator 26.0.3, SVG Export Plug-In . SVG Version: 6.00 Build 0)  -->
<svg version="1.1" id="Layer_1" xmlns="http://www.w3.org/2000/svg" xmlns:xlink="http://www.w3.org/1999/xlink" x="0px" y="0px"
	 viewBox="0 0 160 600" style="enable-background:new 0 0 160 600;" xml:space="preserve">
<style type="text/css">
	.st0{fill:#EDF4FD;}
</style>
<g>
	<path class="st0" d="M36.9,316.8c0-0.2-0.1-0.4-0.2-0.5s-0.4-0.3-0.7-0.4s-0.5-0.2-0.7-0.3c-0.6-0.3-0.9-0.8-0.9-1.4
		c0-0.4,0.1-0.7,0.4-1c0.2-0.3,0.6-0.4,1-0.5V312h0.6v0.8c0.4,0.1,0.8,0.2,1,0.5s0.3,0.7,0.3,1.2h-0.9c0-0.3-0.1-0.5-0.2-0.7
		c-0.1-0.2-0.3-0.3-0.6-0.3c-0.2,0-0.4,0.1-0.5,0.2s-0.2,0.3-0.2,0.5c0,0.2,0.1,0.4,0.2,0.5c0.1,0.1,0.4,0.2,0.7,0.4
		c0.3,0.1,0.6,0.2,0.7,0.3s0.3,0.2,0.5,0.3c0.1,0.1,0.2,0.3,0.3,0.4c0.1,0.2,0.1,0.4,0.1,0.6c0,0.4-0.1,0.7-0.4,1
		c-0.3,0.3-0.6,0.4-1.1,0.5v0.7h-0.6v-0.7c-0.5-0.1-0.9-0.2-1.1-0.5c-0.3-0.3-0.4-0.7-0.4-1.2h0.9c0,0.3,0.1,0.5,0.2,0.7
		c0.2,0.2,0.4,0.3,0.7,0.3c0.3,0,0.5-0.1,0.6-0.2C36.8,317.2,36.9,317,36.9,316.8z"/>
	<path class="st0" d="M40.9,318.2h-0.9v-4.3l-1.3,0.4v-0.7l2.1-0.8h0.1V318.2z"/>
	<path class="st0" d="M45.8,313.2v1h0.7v0.7h-0.7v2.2c0,0.2,0,0.3,0.1,0.3c0.1,0.1,0.2,0.1,0.3,0.1c0.1,0,0.2,0,0.3,0v0.7
		c-0.2,0.1-0.4,0.1-0.6,0.1c-0.7,0-1-0.4-1-1.1v-2.2h-0.7v-0.7h0.7v-1H45.8z"/>
	<path class="st0" d="M49.3,315c-0.1,0-0.2,0-0.4,0c-0.4,0-0.7,0.2-0.8,0.5v2.7h-0.9v-4h0.8l0,0.4c0.2-0.3,0.5-0.5,0.9-0.5
		c0.1,0,0.2,0,0.3,0.1L49.3,315z"/>
	<path class="st0" d="M49.9,313.2c0-0.1,0-0.2,0.1-0.3c0.1-0.1,0.2-0.1,0.4-0.1s0.3,0,0.4,0.1c0.1,0.1,0.1,0.2,0.1,0.3
		c0,0.1,0,0.2-0.1,0.3s-0.2,0.1-0.4,0.1s-0.3,0-0.4-0.1C49.9,313.4,49.9,313.3,49.9,313.2z M50.8,318.2h-0.9v-4h0.9V318.2z"/>
	<path class="st0" d="M54.1,318.2c0-0.1-0.1-0.2-0.1-0.4c-0.3,0.3-0.6,0.4-1,0.4c-0.4,0-0.7-0.1-1-0.3c-0.3-0.2-0.4-0.5-0.4-0.8
		c0-0.4,0.2-0.7,0.5-1c0.3-0.2,0.8-0.3,1.3-0.3H54v-0.3c0-0.2-0.1-0.4-0.2-0.5c-0.1-0.1-0.3-0.2-0.5-0.2c-0.2,0-0.4,0.1-0.5,0.2
		c-0.1,0.1-0.2,0.2-0.2,0.4h-0.9c0-0.2,0.1-0.4,0.2-0.6s0.3-0.3,0.6-0.4c0.2-0.1,0.5-0.2,0.8-0.2c0.5,0,0.8,0.1,1.1,0.3
		c0.3,0.2,0.4,0.6,0.4,1v1.8c0,0.4,0,0.6,0.1,0.9v0.1H54.1z M53.2,317.5c0.2,0,0.3,0,0.5-0.1c0.2-0.1,0.3-0.2,0.3-0.3v-0.7h-0.5
		c-0.3,0-0.6,0.1-0.7,0.2c-0.2,0.1-0.2,0.3-0.2,0.5c0,0.2,0.1,0.3,0.2,0.4C52.8,317.5,53,317.5,53.2,317.5z"/>
	<path class="st0" d="M56.8,318.2h-0.9v-5.6h0.9V318.2z"/>
	<path class="st0" d="M59.9,318.2v-3.3h-0.6v-0.7h0.6v-0.4c0-0.4,0.1-0.8,0.4-1s0.6-0.4,1-0.4c0.2,0,0.3,0,0.5,0.1l0,0.7
		c-0.1,0-0.2,0-0.3,0c-0.4,0-0.6,0.2-0.6,0.7v0.4h0.8v0.7h-0.8v3.3H59.9z"/>
	<path class="st0" d="M62.1,316.2c0-0.4,0.1-0.7,0.2-1c0.2-0.3,0.4-0.5,0.6-0.7c0.3-0.2,0.6-0.2,1-0.2c0.5,0,1,0.2,1.3,0.5
		c0.3,0.3,0.5,0.8,0.5,1.4l0,0.2c0,0.4-0.1,0.7-0.2,1c-0.1,0.3-0.4,0.5-0.6,0.7c-0.3,0.2-0.6,0.3-1,0.3c-0.6,0-1-0.2-1.3-0.6
		C62.3,317.3,62.1,316.8,62.1,316.2L62.1,316.2z M63,316.2c0,0.4,0.1,0.7,0.3,1c0.2,0.2,0.4,0.3,0.7,0.3c0.3,0,0.5-0.1,0.7-0.4
		c0.2-0.2,0.3-0.6,0.3-1c0-0.4-0.1-0.7-0.3-1c-0.2-0.2-0.4-0.4-0.7-0.4c-0.3,0-0.5,0.1-0.7,0.3S63,315.8,63,316.2z"/>
	<path class="st0" d="M68.6,315c-0.1,0-0.2,0-0.4,0c-0.4,0-0.7,0.2-0.8,0.5v2.7h-0.9v-4h0.8l0,0.4c0.2-0.3,0.5-0.5,0.9-0.5
		c0.1,0,0.2,0,0.3,0.1L68.6,315z"/>
	<path class="st0" d="M72.2,313.2v1h0.7v0.7h-0.7v2.2c0,0.2,0,0.3,0.1,0.3c0.1,0.1,0.2,0.1,0.3,0.1c0.1,0,0.2,0,0.3,0v0.7
		c-0.2,0.1-0.4,0.1-0.6,0.1c-0.7,0-1-0.4-1-1.1v-2.2h-0.7v-0.7h0.7v-1H72.2z"/>
	<path class="st0" d="M74.4,314.6c0.3-0.3,0.7-0.5,1.1-0.5c0.8,0,1.3,0.5,1.3,1.4v2.6h-0.9v-2.6c0-0.3-0.1-0.5-0.2-0.6
		c-0.1-0.1-0.3-0.2-0.5-0.2c-0.4,0-0.6,0.2-0.8,0.5v2.8h-0.9v-5.6h0.9V314.6z"/>
	<path class="st0" d="M79.4,318.2c-0.6,0-1-0.2-1.4-0.5c-0.4-0.4-0.5-0.8-0.5-1.4v-0.1c0-0.4,0.1-0.7,0.2-1.1
		c0.2-0.3,0.4-0.6,0.6-0.7c0.3-0.2,0.6-0.3,0.9-0.3c0.5,0,1,0.2,1.3,0.5c0.3,0.3,0.4,0.8,0.4,1.5v0.4h-2.6c0,0.3,0.1,0.6,0.3,0.8
		c0.2,0.2,0.4,0.3,0.7,0.3c0.4,0,0.7-0.2,1-0.5l0.5,0.5c-0.2,0.2-0.4,0.4-0.6,0.6C80.1,318.2,79.8,318.2,79.4,318.2z M79.3,314.8
		c-0.2,0-0.4,0.1-0.6,0.3c-0.2,0.2-0.2,0.4-0.3,0.7h1.7v-0.1c0-0.3-0.1-0.5-0.2-0.7S79.6,314.8,79.3,314.8z"/>
	<path class="st0" d="M83.9,318.2v-3.3h-0.6v-0.7h0.6v-0.4c0-0.4,0.1-0.8,0.4-1s0.6-0.4,1-0.4c0.2,0,0.3,0,0.5,0.1l0,0.7
		c-0.1,0-0.2,0-0.3,0c-0.4,0-0.6,0.2-0.6,0.7v0.4h0.8v0.7h-0.8v3.3H83.9z"/>
	<path class="st0" d="M86.3,313.2c0-0.1,0-0.2,0.1-0.3c0.1-0.1,0.2-0.1,0.4-0.1s0.3,0,0.4,0.1c0.1,0.1,0.1,0.2,0.1,0.3
		c0,0.1,0,0.2-0.1,0.3s-0.2,0.1-0.4,0.1s-0.3,0-0.4-0.1S86.3,313.3,86.3,313.2z M87.2,318.2h-0.9v-4h0.9V318.2z"/>
	<path class="st0" d="M90.2,315c-0.1,0-0.2,0-0.4,0c-0.4,0-0.7,0.2-0.8,0.5v2.7h-0.9v-4H89l0,0.4c0.2-0.3,0.5-0.5,0.9-0.5
		c0.1,0,0.2,0,0.3,0.1L90.2,315z"/>
	<path class="st0" d="M93,317.1c0-0.2-0.1-0.3-0.2-0.4s-0.3-0.2-0.7-0.2s-0.6-0.1-0.8-0.2c-0.4-0.2-0.7-0.5-0.7-0.9
		c0-0.3,0.1-0.6,0.4-0.9s0.7-0.3,1.1-0.3c0.5,0,0.9,0.1,1.1,0.4c0.3,0.2,0.4,0.5,0.4,0.9H93c0-0.2-0.1-0.3-0.2-0.4
		c-0.1-0.1-0.3-0.2-0.5-0.2c-0.2,0-0.4,0-0.5,0.1c-0.1,0.1-0.2,0.2-0.2,0.4c0,0.1,0.1,0.2,0.2,0.3c0.1,0.1,0.3,0.2,0.7,0.2
		c0.3,0.1,0.6,0.2,0.8,0.3s0.3,0.2,0.4,0.4c0.1,0.1,0.1,0.3,0.1,0.5c0,0.4-0.1,0.6-0.4,0.9c-0.3,0.2-0.7,0.3-1.2,0.3
		c-0.3,0-0.6-0.1-0.9-0.2s-0.5-0.3-0.6-0.5s-0.2-0.4-0.2-0.7h0.9c0,0.2,0.1,0.4,0.2,0.5s0.3,0.2,0.6,0.2c0.2,0,0.4,0,0.5-0.1
		C93,317.4,93,317.2,93,317.1z"/>
	<path class="st0" d="M95.8,313.2v1h0.7v0.7h-0.7v2.2c0,0.2,0,0.3,0.1,0.3s0.2,0.1,0.3,0.1c0.1,0,0.2,0,0.3,0v0.7
		c-0.2,0.1-0.4,0.1-0.6,0.1c-0.7,0-1-0.4-1-1.1v-2.2h-0.7v-0.7h0.7v-1H95.8z"/>
	<path class="st0" d="M101.4,318.2h-0.9v-4.3l-1.3,0.4v-0.7l2.1-0.8h0.1V318.2z"/>
	<path class="st0" d="M106.3,316.3h0.7v0.7h-0.7v1.2h-0.9V317h-2.3l0-0.5l2.3-3.6h0.9V316.3z M104,316.3h1.4V314l-0.1,0.1L104,316.3
		z"/>
	<path class="st0" d="M109.3,316.2c0-0.6,0.1-1.1,0.4-1.5c0.3-0.4,0.7-0.6,1.1-0.6c0.4,0,0.8,0.1,1,0.4v-2h0.9v5.6h-0.8l0-0.4
		c-0.3,0.3-0.6,0.5-1.1,0.5c-0.5,0-0.8-0.2-1.1-0.6C109.4,317.3,109.3,316.8,109.3,316.2z M110.2,316.2c0,0.4,0.1,0.7,0.2,0.9
		c0.2,0.2,0.4,0.3,0.7,0.3c0.4,0,0.6-0.2,0.8-0.5v-1.7c-0.2-0.3-0.4-0.5-0.8-0.5c-0.3,0-0.5,0.1-0.7,0.3
		C110.2,315.4,110.2,315.8,110.2,316.2z"/>
	<path class="st0" d="M116,318.2c0-0.1-0.1-0.2-0.1-0.4c-0.3,0.3-0.6,0.4-1,0.4c-0.4,0-0.7-0.1-1-0.3c-0.3-0.2-0.4-0.5-0.4-0.8
		c0-0.4,0.2-0.7,0.5-1c0.3-0.2,0.8-0.3,1.3-0.3h0.5v-0.3c0-0.2-0.1-0.4-0.2-0.5c-0.1-0.1-0.3-0.2-0.5-0.2c-0.2,0-0.4,0.1-0.5,0.2
		c-0.1,0.1-0.2,0.2-0.2,0.4h-0.9c0-0.2,0.1-0.4,0.2-0.6c0.1-0.2,0.3-0.3,0.6-0.4c0.2-0.1,0.5-0.2,0.8-0.2c0.5,0,0.8,0.1,1.1,0.3
		c0.3,0.2,0.4,0.6,0.4,1v1.8c0,0.4,0,0.6,0.1,0.9v0.1H116z M115.1,317.5c0.2,0,0.3,0,0.5-0.1c0.2-0.1,0.3-0.2,0.3-0.3v-0.7h-0.5
		c-0.3,0-0.6,0.1-0.7,0.2c-0.2,0.1-0.2,0.3-0.2,0.5c0,0.2,0.1,0.3,0.2,0.4S114.9,317.5,115.1,317.5z"/>
	<path class="st0" d="M119.1,316.9l0.8-2.7h0.9l-1.6,4.6c-0.2,0.7-0.7,1-1.2,1c-0.1,0-0.3,0-0.4-0.1V319l0.2,0c0.2,0,0.4,0,0.5-0.1
		c0.1-0.1,0.2-0.2,0.3-0.4l0.1-0.3l-1.4-3.9h1L119.1,316.9z"/>
	<path class="st0" d="M123.6,317.1c0-0.2-0.1-0.3-0.2-0.4c-0.1-0.1-0.3-0.2-0.7-0.2s-0.6-0.1-0.8-0.2c-0.4-0.2-0.7-0.5-0.7-0.9
		c0-0.3,0.1-0.6,0.4-0.9s0.7-0.3,1.1-0.3c0.5,0,0.9,0.1,1.1,0.4c0.3,0.2,0.4,0.5,0.4,0.9h-0.9c0-0.2-0.1-0.3-0.2-0.4
		c-0.1-0.1-0.3-0.2-0.5-0.2c-0.2,0-0.4,0-0.5,0.1c-0.1,0.1-0.2,0.2-0.2,0.4c0,0.1,0.1,0.2,0.2,0.3c0.1,0.1,0.3,0.2,0.7,0.2
		c0.3,0.1,0.6,0.2,0.8,0.3c0.2,0.1,0.3,0.2,0.4,0.4c0.1,0.1,0.1,0.3,0.1,0.5c0,0.4-0.1,0.6-0.4,0.9c-0.3,0.2-0.7,0.3-1.2,0.3
		c-0.3,0-0.6-0.1-0.9-0.2s-0.5-0.3-0.6-0.5s-0.2-0.4-0.2-0.7h0.9c0,0.2,0.1,0.4,0.2,0.5s0.3,0.2,0.6,0.2c0.2,0,0.4,0,0.5-0.1
		C123.5,317.4,123.6,317.2,123.6,317.1z"/>
	<path class="st0" d="M125.8,317.2c0.2,0,0.3,0,0.4,0.1c0.1,0.1,0.1,0.2,0.1,0.4c0,0.1,0,0.3-0.1,0.3c-0.1,0.1-0.2,0.1-0.4,0.1
		c-0.2,0-0.3,0-0.4-0.1c-0.1-0.1-0.1-0.2-0.1-0.3s0-0.3,0.1-0.4C125.5,317.3,125.6,317.2,125.8,317.2z"/>
	<path class="st0" d="M13.5,325.2v2h-0.9v-5.3h2c0.6,0,1.1,0.2,1.4,0.5c0.4,0.3,0.5,0.7,0.5,1.2c0,0.5-0.2,0.9-0.5,1.2
		c-0.3,0.3-0.8,0.4-1.4,0.4H13.5z M13.5,324.4h1.1c0.3,0,0.6-0.1,0.8-0.2s0.3-0.4,0.3-0.7c0-0.3-0.1-0.5-0.3-0.7s-0.4-0.3-0.7-0.3
		h-1.1V324.4z"/>
	<path class="st0" d="M18.2,327.2h-0.9v-5.6h0.9V327.2z"/>
	<path class="st0" d="M21.6,327.2c0-0.1-0.1-0.2-0.1-0.4c-0.3,0.3-0.6,0.4-1,0.4c-0.4,0-0.7-0.1-1-0.3c-0.3-0.2-0.4-0.5-0.4-0.8
		c0-0.4,0.2-0.7,0.5-1c0.3-0.2,0.8-0.3,1.3-0.3h0.5v-0.3c0-0.2-0.1-0.4-0.2-0.5c-0.1-0.1-0.3-0.2-0.5-0.2c-0.2,0-0.4,0.1-0.5,0.2
		c-0.1,0.1-0.2,0.2-0.2,0.4h-0.9c0-0.2,0.1-0.4,0.2-0.6s0.3-0.3,0.6-0.4c0.2-0.1,0.5-0.2,0.8-0.2c0.5,0,0.8,0.1,1.1,0.3
		c0.3,0.2,0.4,0.6,0.4,1v1.8c0,0.4,0,0.6,0.1,0.9v0.1H21.6z M20.6,326.5c0.2,0,0.3,0,0.5-0.1c0.2-0.1,0.3-0.2,0.3-0.3v-0.7H21
		c-0.3,0-0.6,0.1-0.7,0.2c-0.2,0.1-0.2,0.3-0.2,0.5c0,0.2,0.1,0.3,0.2,0.4C20.3,326.5,20.4,326.5,20.6,326.5z"/>
	<path class="st0" d="M24.1,323.2l0,0.5c0.3-0.4,0.7-0.5,1.2-0.5c0.8,0,1.2,0.5,1.3,1.4v2.6h-0.9v-2.6c0-0.3-0.1-0.4-0.2-0.6
		c-0.1-0.1-0.3-0.2-0.5-0.2c-0.4,0-0.6,0.2-0.8,0.5v2.8h-0.9v-4H24.1z"/>
	<path class="st0" d="M29.7,326.1c0-0.2-0.1-0.3-0.2-0.4c-0.1-0.1-0.3-0.2-0.6-0.2s-0.6-0.1-0.8-0.2c-0.4-0.2-0.7-0.5-0.7-0.9
		c0-0.3,0.1-0.6,0.4-0.9c0.3-0.2,0.7-0.3,1.1-0.3c0.5,0,0.9,0.1,1.1,0.4c0.3,0.2,0.4,0.5,0.4,0.9h-0.9c0-0.2-0.1-0.3-0.2-0.4
		c-0.1-0.1-0.3-0.2-0.5-0.2c-0.2,0-0.4,0-0.5,0.1c-0.1,0.1-0.2,0.2-0.2,0.4c0,0.1,0.1,0.2,0.2,0.3c0.1,0.1,0.3,0.2,0.7,0.2
		c0.3,0.1,0.6,0.2,0.8,0.3c0.2,0.1,0.3,0.2,0.4,0.4c0.1,0.1,0.1,0.3,0.1,0.5c0,0.4-0.1,0.6-0.4,0.9c-0.3,0.2-0.7,0.3-1.2,0.3
		c-0.3,0-0.6-0.1-0.9-0.2s-0.5-0.3-0.6-0.5c-0.1-0.2-0.2-0.4-0.2-0.7h0.9c0,0.2,0.1,0.4,0.2,0.5s0.3,0.2,0.6,0.2
		c0.2,0,0.4,0,0.5-0.1C29.6,326.4,29.7,326.2,29.7,326.1z"/>
	<path class="st0" d="M35.4,326.1c0-0.2-0.1-0.3-0.2-0.4c-0.1-0.1-0.3-0.2-0.6-0.2s-0.6-0.1-0.8-0.2c-0.4-0.2-0.7-0.5-0.7-0.9
		c0-0.3,0.1-0.6,0.4-0.9c0.3-0.2,0.7-0.3,1.1-0.3c0.5,0,0.9,0.1,1.1,0.4c0.3,0.2,0.4,0.5,0.4,0.9h-0.9c0-0.2-0.1-0.3-0.2-0.4
		c-0.1-0.1-0.3-0.2-0.5-0.2c-0.2,0-0.4,0-0.5,0.1c-0.1,0.1-0.2,0.2-0.2,0.4c0,0.1,0.1,0.2,0.2,0.3c0.1,0.1,0.3,0.2,0.7,0.2
		c0.3,0.1,0.6,0.2,0.8,0.3c0.2,0.1,0.3,0.2,0.4,0.4c0.1,0.1,0.1,0.3,0.1,0.5c0,0.4-0.1,0.6-0.4,0.9c-0.3,0.2-0.7,0.3-1.2,0.3
		c-0.3,0-0.6-0.1-0.9-0.2s-0.5-0.3-0.6-0.5c-0.1-0.2-0.2-0.4-0.2-0.7h0.9c0,0.2,0.1,0.4,0.2,0.5s0.3,0.2,0.6,0.2
		c0.2,0,0.4,0,0.5-0.1C35.3,326.4,35.4,326.2,35.4,326.1z"/>
	<path class="st0" d="M38.2,322.2v1h0.7v0.7h-0.7v2.2c0,0.2,0,0.3,0.1,0.3c0.1,0.1,0.2,0.1,0.3,0.1c0.1,0,0.2,0,0.3,0v0.7
		c-0.2,0.1-0.4,0.1-0.6,0.1c-0.7,0-1-0.4-1-1.1v-2.2h-0.7v-0.7h0.7v-1H38.2z"/>
	<path class="st0" d="M41.9,327.2c0-0.1-0.1-0.2-0.1-0.4c-0.3,0.3-0.6,0.4-1,0.4c-0.4,0-0.7-0.1-1-0.3c-0.3-0.2-0.4-0.5-0.4-0.8
		c0-0.4,0.2-0.7,0.5-1c0.3-0.2,0.8-0.3,1.3-0.3h0.5v-0.3c0-0.2-0.1-0.4-0.2-0.5c-0.1-0.1-0.3-0.2-0.5-0.2c-0.2,0-0.4,0.1-0.5,0.2
		c-0.1,0.1-0.2,0.2-0.2,0.4h-0.9c0-0.2,0.1-0.4,0.2-0.6s0.3-0.3,0.6-0.4c0.2-0.1,0.5-0.2,0.8-0.2c0.5,0,0.8,0.1,1.1,0.3
		c0.3,0.2,0.4,0.6,0.4,1v1.8c0,0.4,0,0.6,0.1,0.9v0.1H41.9z M40.9,326.5c0.2,0,0.3,0,0.5-0.1c0.2-0.1,0.3-0.2,0.3-0.3v-0.7h-0.5
		c-0.3,0-0.6,0.1-0.7,0.2c-0.2,0.1-0.2,0.3-0.2,0.5c0,0.2,0.1,0.3,0.2,0.4C40.6,326.5,40.7,326.5,40.9,326.5z"/>
	<path class="st0" d="M45.7,324c-0.1,0-0.2,0-0.4,0c-0.4,0-0.7,0.2-0.8,0.5v2.7h-0.9v-4h0.8l0,0.4c0.2-0.3,0.5-0.5,0.9-0.5
		c0.1,0,0.2,0,0.3,0.1L45.7,324z"/>
	<path class="st0" d="M47.5,322.2v1h0.7v0.7h-0.7v2.2c0,0.2,0,0.3,0.1,0.3c0.1,0.1,0.2,0.1,0.3,0.1c0.1,0,0.2,0,0.3,0v0.7
		c-0.2,0.1-0.4,0.1-0.6,0.1c-0.7,0-1-0.4-1-1.1v-2.2H46v-0.7h0.7v-1H47.5z"/>
	<path class="st0" d="M48.9,322.2c0-0.1,0-0.2,0.1-0.3c0.1-0.1,0.2-0.1,0.4-0.1s0.3,0,0.4,0.1c0.1,0.1,0.1,0.2,0.1,0.3
		c0,0.1,0,0.2-0.1,0.3s-0.2,0.1-0.4,0.1s-0.3,0-0.4-0.1C49,322.4,48.9,322.3,48.9,322.2z M49.9,327.2H49v-4h0.9V327.2z"/>
	<path class="st0" d="M51.7,323.2l0,0.5c0.3-0.4,0.7-0.5,1.2-0.5c0.8,0,1.2,0.5,1.3,1.4v2.6h-0.9v-2.6c0-0.3-0.1-0.4-0.2-0.6
		c-0.1-0.1-0.3-0.2-0.5-0.2c-0.4,0-0.6,0.2-0.8,0.5v2.8h-0.9v-4H51.7z"/>
	<path class="st0" d="M54.8,325.2c0-0.6,0.1-1.1,0.4-1.5c0.3-0.4,0.7-0.6,1.2-0.6c0.5,0,0.8,0.2,1.1,0.5l0-0.4h0.8v3.8
		c0,0.5-0.2,0.9-0.5,1.2c-0.3,0.3-0.8,0.5-1.3,0.5c-0.3,0-0.6-0.1-0.9-0.2c-0.3-0.1-0.5-0.3-0.6-0.5l0.4-0.5c0.3,0.3,0.6,0.5,1,0.5
		c0.3,0,0.5-0.1,0.7-0.2s0.3-0.4,0.3-0.7v-0.3c-0.3,0.3-0.6,0.4-1,0.4c-0.5,0-0.8-0.2-1.1-0.6C55,326.3,54.8,325.8,54.8,325.2z
		 M55.7,325.2c0,0.4,0.1,0.7,0.2,0.9c0.2,0.2,0.4,0.3,0.7,0.3c0.4,0,0.6-0.2,0.8-0.5v-1.7c-0.2-0.3-0.4-0.5-0.8-0.5
		c-0.3,0-0.5,0.1-0.7,0.3C55.8,324.4,55.7,324.8,55.7,325.2z"/>
	<path class="st0" d="M63.5,327.2c0-0.1-0.1-0.2-0.1-0.4c-0.3,0.3-0.6,0.4-1,0.4c-0.4,0-0.7-0.1-1-0.3c-0.3-0.2-0.4-0.5-0.4-0.8
		c0-0.4,0.2-0.7,0.5-1c0.3-0.2,0.8-0.3,1.3-0.3h0.5v-0.3c0-0.2-0.1-0.4-0.2-0.5c-0.1-0.1-0.3-0.2-0.5-0.2c-0.2,0-0.4,0.1-0.5,0.2
		c-0.1,0.1-0.2,0.2-0.2,0.4h-0.9c0-0.2,0.1-0.4,0.2-0.6s0.3-0.3,0.6-0.4c0.2-0.1,0.5-0.2,0.8-0.2c0.5,0,0.8,0.1,1.1,0.3
		c0.3,0.2,0.4,0.6,0.4,1v1.8c0,0.4,0,0.6,0.1,0.9v0.1H63.5z M62.5,326.5c0.2,0,0.3,0,0.5-0.1c0.2-0.1,0.3-0.2,0.3-0.3v-0.7h-0.5
		c-0.3,0-0.6,0.1-0.7,0.2c-0.2,0.1-0.2,0.3-0.2,0.5c0,0.2,0.1,0.3,0.2,0.4C62.2,326.5,62.3,326.5,62.5,326.5z"/>
	<path class="st0" d="M66.3,322.2v1H67v0.7h-0.7v2.2c0,0.2,0,0.3,0.1,0.3c0.1,0.1,0.2,0.1,0.3,0.1c0.1,0,0.2,0,0.3,0v0.7
		c-0.2,0.1-0.4,0.1-0.6,0.1c-0.7,0-1-0.4-1-1.1v-2.2h-0.7v-0.7h0.7v-1H66.3z"/>
	<path class="st0" d="M72.1,325.8c0-0.2-0.1-0.4-0.2-0.5s-0.4-0.3-0.7-0.4s-0.5-0.2-0.7-0.3c-0.6-0.3-0.9-0.8-0.9-1.4
		c0-0.4,0.1-0.7,0.4-1c0.2-0.3,0.6-0.4,1-0.5V321h0.6v0.8c0.4,0.1,0.8,0.2,1,0.5s0.3,0.7,0.3,1.2h-0.9c0-0.3-0.1-0.5-0.2-0.7
		c-0.1-0.2-0.3-0.3-0.6-0.3c-0.2,0-0.4,0.1-0.5,0.2s-0.2,0.3-0.2,0.5c0,0.2,0.1,0.4,0.2,0.5c0.1,0.1,0.4,0.2,0.7,0.4
		c0.3,0.1,0.6,0.2,0.7,0.3s0.3,0.2,0.5,0.3c0.1,0.1,0.2,0.3,0.3,0.4c0.1,0.2,0.1,0.4,0.1,0.6c0,0.4-0.1,0.7-0.4,1
		c-0.3,0.3-0.6,0.4-1.1,0.5v0.7H71v-0.7c-0.5-0.1-0.9-0.2-1.1-0.5c-0.3-0.3-0.4-0.7-0.4-1.2h0.9c0,0.3,0.1,0.5,0.2,0.7
		c0.2,0.2,0.4,0.3,0.7,0.3c0.3,0,0.5-0.1,0.6-0.2C72,326.2,72.1,326,72.1,325.8z"/>
	<path class="st0" d="M76.3,324.9c-0.3,0.3-0.6,0.5-1,0.5c-0.5,0-0.8-0.2-1.1-0.5c-0.3-0.3-0.4-0.8-0.4-1.3c0-0.4,0.1-0.7,0.2-1
		c0.1-0.3,0.3-0.5,0.6-0.7c0.3-0.2,0.6-0.2,0.9-0.2c0.5,0,1,0.2,1.3,0.6c0.3,0.4,0.5,0.9,0.5,1.6v0.2c0,1-0.2,1.7-0.7,2.2
		s-1.1,0.8-1.9,0.8h-0.1v-0.7h0.1c0.5,0,0.9-0.1,1.2-0.4C76.1,325.8,76.2,325.5,76.3,324.9z M75.4,324.7c0.2,0,0.3-0.1,0.5-0.2
		c0.2-0.1,0.3-0.2,0.4-0.4v-0.3c0-0.4-0.1-0.7-0.2-0.9s-0.4-0.4-0.6-0.4c-0.3,0-0.5,0.1-0.6,0.3c-0.2,0.2-0.2,0.5-0.2,0.8
		c0,0.3,0.1,0.6,0.2,0.8S75.2,324.7,75.4,324.7z"/>
	<path class="st0" d="M78.6,326.2c0.2,0,0.3,0,0.4,0.1c0.1,0.1,0.1,0.2,0.1,0.4c0,0.1,0,0.3-0.1,0.3c-0.1,0.1-0.2,0.1-0.4,0.1
		c-0.2,0-0.3,0-0.4-0.1c-0.1-0.1-0.1-0.2-0.1-0.3s0-0.3,0.1-0.4C78.3,326.3,78.5,326.2,78.6,326.2z"/>
	<path class="st0" d="M82.6,324.9c-0.3,0.3-0.6,0.5-1,0.5c-0.5,0-0.8-0.2-1.1-0.5c-0.3-0.3-0.4-0.8-0.4-1.3c0-0.4,0.1-0.7,0.2-1
		c0.1-0.3,0.3-0.5,0.6-0.7c0.3-0.2,0.6-0.2,0.9-0.2c0.5,0,1,0.2,1.3,0.6c0.3,0.4,0.5,0.9,0.5,1.6v0.2c0,1-0.2,1.7-0.7,2.2
		s-1.1,0.8-1.9,0.8h-0.1v-0.7h0.1c0.5,0,0.9-0.1,1.2-0.4C82.4,325.8,82.6,325.5,82.6,324.9z M81.8,324.7c0.2,0,0.3-0.1,0.5-0.2
		s0.3-0.2,0.4-0.4v-0.3c0-0.4-0.1-0.7-0.2-0.9s-0.4-0.4-0.6-0.4c-0.3,0-0.5,0.1-0.6,0.3c-0.2,0.2-0.2,0.5-0.2,0.8
		c0,0.3,0.1,0.6,0.2,0.8C81.3,324.6,81.5,324.7,81.8,324.7z"/>
	<path class="st0" d="M86.9,324.9c-0.3,0.3-0.6,0.5-1,0.5c-0.5,0-0.8-0.2-1.1-0.5c-0.3-0.3-0.4-0.8-0.4-1.3c0-0.4,0.1-0.7,0.2-1
		c0.1-0.3,0.3-0.5,0.6-0.7c0.3-0.2,0.6-0.2,0.9-0.2c0.5,0,1,0.2,1.3,0.6c0.3,0.4,0.5,0.9,0.5,1.6v0.2c0,1-0.2,1.7-0.7,2.2
		s-1.1,0.8-1.9,0.8h-0.1v-0.7h0.1c0.5,0,0.9-0.1,1.2-0.4C86.7,325.8,86.9,325.5,86.9,324.9z M86,324.7c0.2,0,0.3-0.1,0.5-0.2
		s0.3-0.2,0.4-0.4v-0.3c0-0.4-0.1-0.7-0.2-0.9s-0.4-0.4-0.6-0.4c-0.3,0-0.5,0.1-0.6,0.3c-0.2,0.2-0.2,0.5-0.2,0.8
		c0,0.3,0.1,0.6,0.2,0.8C85.6,324.6,85.8,324.7,86,324.7z"/>
	<path class="st0" d="M91.7,322.2v1h0.7v0.7h-0.7v2.2c0,0.2,0,0.3,0.1,0.3c0.1,0.1,0.2,0.1,0.3,0.1c0.1,0,0.2,0,0.3,0v0.7
		c-0.2,0.1-0.4,0.1-0.6,0.1c-0.7,0-1-0.4-1-1.1v-2.2h-0.7v-0.7h0.7v-1H91.7z"/>
	<path class="st0" d="M92.8,325.2c0-0.4,0.1-0.7,0.2-1c0.2-0.3,0.4-0.5,0.6-0.7c0.3-0.2,0.6-0.2,1-0.2c0.5,0,1,0.2,1.3,0.5
		c0.3,0.3,0.5,0.8,0.5,1.4l0,0.2c0,0.4-0.1,0.7-0.2,1c-0.1,0.3-0.4,0.5-0.6,0.7c-0.3,0.2-0.6,0.3-1,0.3c-0.6,0-1-0.2-1.3-0.6
		S92.8,325.8,92.8,325.2L92.8,325.2z M93.7,325.2c0,0.4,0.1,0.7,0.3,1c0.2,0.2,0.4,0.3,0.7,0.3c0.3,0,0.5-0.1,0.7-0.4
		c0.2-0.2,0.2-0.6,0.2-1c0-0.4-0.1-0.7-0.3-1s-0.4-0.4-0.7-0.4c-0.3,0-0.5,0.1-0.7,0.3S93.7,324.8,93.7,325.2z"/>
	<path class="st0" d="M101.6,325.8c0-0.2-0.1-0.4-0.2-0.5s-0.4-0.3-0.7-0.4s-0.5-0.2-0.7-0.3c-0.6-0.3-0.9-0.8-0.9-1.4
		c0-0.4,0.1-0.7,0.4-1c0.2-0.3,0.6-0.4,1-0.5V321h0.6v0.8c0.4,0.1,0.8,0.2,1,0.5c0.2,0.3,0.3,0.7,0.3,1.2h-0.9
		c0-0.3-0.1-0.5-0.2-0.7s-0.3-0.3-0.6-0.3c-0.2,0-0.4,0.1-0.5,0.2s-0.2,0.3-0.2,0.5c0,0.2,0.1,0.4,0.2,0.5s0.4,0.2,0.7,0.4
		c0.3,0.1,0.6,0.2,0.7,0.3c0.2,0.1,0.3,0.2,0.5,0.3c0.1,0.1,0.2,0.3,0.3,0.4c0.1,0.2,0.1,0.4,0.1,0.6c0,0.4-0.1,0.7-0.4,1
		c-0.3,0.3-0.6,0.4-1.1,0.5v0.7h-0.6v-0.7c-0.5-0.1-0.9-0.2-1.1-0.5c-0.3-0.3-0.4-0.7-0.4-1.2h0.9c0,0.3,0.1,0.5,0.2,0.7
		c0.2,0.2,0.4,0.3,0.7,0.3c0.3,0,0.5-0.1,0.6-0.2C101.5,326.2,101.6,326,101.6,325.8z"/>
	<path class="st0" d="M106.9,327.2h-3.6v-0.6l1.8-1.9c0.3-0.3,0.4-0.5,0.5-0.7c0.1-0.2,0.2-0.4,0.2-0.6c0-0.3-0.1-0.5-0.2-0.6
		s-0.3-0.2-0.6-0.2c-0.3,0-0.5,0.1-0.7,0.3c-0.2,0.2-0.2,0.4-0.2,0.7h-0.9c0-0.3,0.1-0.6,0.2-0.9s0.4-0.5,0.6-0.6
		c0.3-0.1,0.6-0.2,1-0.2c0.5,0,0.9,0.1,1.2,0.4c0.3,0.3,0.4,0.6,0.4,1.1c0,0.3-0.1,0.5-0.2,0.8c-0.2,0.3-0.4,0.6-0.7,1l-1.3,1.4h2.5
		V327.2z"/>
	<path class="st0" d="M110.6,325.3h0.7v0.7h-0.7v1.2h-0.9V326h-2.3l0-0.5l2.3-3.6h0.9V325.3z M108.3,325.3h1.4V323l-0.1,0.1
		L108.3,325.3z"/>
	<path class="st0" d="M112.4,326.2c0.2,0,0.3,0,0.4,0.1c0.1,0.1,0.1,0.2,0.1,0.4c0,0.1,0,0.3-0.1,0.3c-0.1,0.1-0.2,0.1-0.4,0.1
		c-0.2,0-0.3,0-0.4-0.1c-0.1-0.1-0.1-0.2-0.1-0.3s0-0.3,0.1-0.4C112.1,326.3,112.3,326.2,112.4,326.2z"/>
	<path class="st0" d="M116.4,324.9c-0.3,0.3-0.6,0.5-1,0.5c-0.5,0-0.8-0.2-1.1-0.5c-0.3-0.3-0.4-0.8-0.4-1.3c0-0.4,0.1-0.7,0.2-1
		c0.1-0.3,0.3-0.5,0.6-0.7c0.3-0.2,0.6-0.2,0.9-0.2c0.5,0,1,0.2,1.3,0.6c0.3,0.4,0.5,0.9,0.5,1.6v0.2c0,1-0.2,1.7-0.7,2.2
		s-1.1,0.8-1.9,0.8h-0.1v-0.7h0.1c0.5,0,0.9-0.1,1.2-0.4C116.2,325.8,116.4,325.5,116.4,324.9z M115.6,324.7c0.2,0,0.3-0.1,0.5-0.2
		s0.3-0.2,0.4-0.4v-0.3c0-0.4-0.1-0.7-0.2-0.9c-0.2-0.2-0.4-0.4-0.6-0.4c-0.3,0-0.5,0.1-0.6,0.3c-0.2,0.2-0.2,0.5-0.2,0.8
		c0,0.3,0.1,0.6,0.2,0.8S115.3,324.7,115.6,324.7z"/>
	<path class="st0" d="M120.7,324.9c-0.3,0.3-0.6,0.5-1,0.5c-0.5,0-0.8-0.2-1.1-0.5c-0.3-0.3-0.4-0.8-0.4-1.3c0-0.4,0.1-0.7,0.2-1
		c0.1-0.3,0.3-0.5,0.6-0.7c0.3-0.2,0.6-0.2,0.9-0.2c0.5,0,1,0.2,1.3,0.6c0.3,0.4,0.5,0.9,0.5,1.6v0.2c0,1-0.2,1.7-0.7,2.2
		s-1.1,0.8-1.9,0.8h-0.1v-0.7h0.1c0.5,0,0.9-0.1,1.2-0.4C120.5,325.8,120.6,325.5,120.7,324.9z M119.8,324.7c0.2,0,0.3-0.1,0.5-0.2
		s0.3-0.2,0.4-0.4v-0.3c0-0.4-0.1-0.7-0.2-0.9c-0.2-0.2-0.4-0.4-0.6-0.4c-0.3,0-0.5,0.1-0.6,0.3c-0.2,0.2-0.2,0.5-0.2,0.8
		c0,0.3,0.1,0.6,0.2,0.8S119.6,324.7,119.8,324.7z"/>
	<path class="st0" d="M122.7,327.6H122l2.1-5.8h0.7L122.7,327.6z"/>
	<path class="st0" d="M126.3,323.2l0,0.4c0.3-0.3,0.7-0.5,1.1-0.5c0.5,0,0.9,0.2,1.1,0.6c0.3-0.4,0.7-0.6,1.2-0.6
		c0.4,0,0.8,0.1,1,0.4c0.2,0.2,0.3,0.6,0.3,1.1v2.6h-0.9v-2.6c0-0.3-0.1-0.4-0.2-0.6c-0.1-0.1-0.3-0.2-0.5-0.2
		c-0.2,0-0.4,0.1-0.5,0.2c-0.1,0.1-0.2,0.3-0.3,0.4l0,2.7h-0.9v-2.6c0-0.5-0.3-0.7-0.7-0.7c-0.4,0-0.6,0.1-0.8,0.4v2.9h-0.9v-4
		H126.3z"/>
	<path class="st0" d="M131.8,325.2c0-0.4,0.1-0.7,0.2-1c0.2-0.3,0.4-0.5,0.6-0.7c0.3-0.2,0.6-0.2,1-0.2c0.5,0,1,0.2,1.3,0.5
		c0.3,0.3,0.5,0.8,0.5,1.4l0,0.2c0,0.4-0.1,0.7-0.2,1s-0.4,0.5-0.6,0.7c-0.3,0.2-0.6,0.3-1,0.3c-0.6,0-1-0.2-1.3-0.6
		S131.8,325.8,131.8,325.2L131.8,325.2z M132.7,325.2c0,0.4,0.1,0.7,0.3,1c0.2,0.2,0.4,0.3,0.7,0.3c0.3,0,0.5-0.1,0.7-0.4
		c0.2-0.2,0.3-0.6,0.3-1c0-0.4-0.1-0.7-0.3-1s-0.4-0.4-0.7-0.4c-0.3,0-0.5,0.1-0.7,0.3S132.7,324.8,132.7,325.2z"/>
	<path class="st0" d="M137.1,323.2l0,0.5c0.3-0.4,0.7-0.5,1.2-0.5c0.8,0,1.2,0.5,1.3,1.4v2.6h-0.9v-2.6c0-0.3-0.1-0.4-0.2-0.6
		c-0.1-0.1-0.3-0.2-0.5-0.2c-0.4,0-0.6,0.2-0.8,0.5v2.8h-0.9v-4H137.1z"/>
	<path class="st0" d="M141.5,322.2v1h0.7v0.7h-0.7v2.2c0,0.2,0,0.3,0.1,0.3c0.1,0.1,0.2,0.1,0.3,0.1c0.1,0,0.2,0,0.3,0v0.7
		c-0.2,0.1-0.4,0.1-0.6,0.1c-0.7,0-1-0.4-1-1.1v-2.2H140v-0.7h0.7v-1H141.5z"/>
	<path class="st0" d="M143.8,323.6c0.3-0.3,0.7-0.5,1.1-0.5c0.8,0,1.3,0.5,1.3,1.4v2.6h-0.9v-2.6c0-0.3-0.1-0.5-0.2-0.6
		s-0.3-0.2-0.5-0.2c-0.4,0-0.6,0.2-0.8,0.5v2.8h-0.9v-5.6h0.9V323.6z"/>
	<path class="st0" d="M147.6,326.2c0.2,0,0.3,0,0.4,0.1c0.1,0.1,0.1,0.2,0.1,0.4c0,0.1,0,0.3-0.1,0.3c-0.1,0.1-0.2,0.1-0.4,0.1
		c-0.2,0-0.3,0-0.4-0.1c-0.1-0.1-0.1-0.2-0.1-0.3s0-0.3,0.1-0.4C147.3,326.3,147.5,326.2,147.6,326.2z"/>
</g>
</svg>
