<svg id="Layer_1" xmlns="https://www.w3.org/2000/svg" viewBox="0 0 970 250"><style>.st0{fill:#fff}</style><path class="st0" d="M351.11 58.1v8.42h-4.92V42.63h9.32c1.79 0 3.37.33 4.73.98 1.36.66 2.41 1.59 3.14 2.8.73 1.21 1.1 2.58 1.1 4.13 0 2.34-.8 4.19-2.4 5.54-1.6 1.35-3.82 2.03-6.65 2.03h-4.32zm0-3.98h4.4c1.3 0 2.29-.31 2.98-.92.68-.61 1.03-1.49 1.03-2.62 0-1.17-.34-2.12-1.03-2.84-.69-.72-1.64-1.09-2.85-1.12h-4.51v7.5zM377.53 53.22c-.65-.09-1.21-.13-1.71-.13-1.79 0-2.97.61-3.53 1.82v11.62h-4.74V48.77h4.48l.13 2.12c.95-1.63 2.27-2.44 3.95-2.44.53 0 1.02.07 1.48.21l-.06 4.56zM379.77 44.18c0-.71.24-1.3.71-1.76.48-.46 1.12-.69 1.94-.69.81 0 1.45.23 1.94.69.48.46.72 1.04.72 1.76s-.24 1.31-.73 1.77c-.49.46-1.13.69-1.93.69s-1.44-.23-1.93-.69c-.47-.46-.72-1.05-.72-1.77zm5.04 22.34h-4.76V48.77h4.76v17.75zM395.36 60.73l3.3-11.96h4.95l-5.99 17.75h-4.53l-5.99-17.75h4.96l3.3 11.96zM415.74 66.52c-.22-.43-.38-.96-.48-1.59-1.15 1.28-2.64 1.92-4.48 1.92-1.74 0-3.18-.5-4.32-1.51s-1.71-2.27-1.71-3.81c0-1.88.7-3.33 2.09-4.33 1.39-1.01 3.41-1.51 6.05-1.53h2.18v-1.02c0-.82-.21-1.48-.63-1.97s-1.09-.74-1.99-.74c-.8 0-1.42.19-1.88.57-.45.38-.68.91-.68 1.58h-4.74c0-1.03.32-1.98.95-2.85.63-.87 1.53-1.56 2.69-2.06s2.46-.75 3.91-.75c2.19 0 3.92.55 5.21 1.65 1.29 1.1 1.93 2.64 1.93 4.63v7.69c.01 1.68.25 2.96.71 3.82v.28h-4.81zm-3.92-3.3c.7 0 1.35-.16 1.94-.47.59-.31 1.03-.73 1.31-1.26v-3.05h-1.77c-2.37 0-3.64.82-3.79 2.46l-.02.28c0 .59.21 1.08.62 1.46.42.39.98.58 1.71.58zM430.85 63.03c.88 0 1.59-.24 2.13-.72s.83-1.12.85-1.92h4.45c-.01 1.2-.34 2.3-.98 3.31s-1.53 1.78-2.65 2.33-2.36.83-3.72.83c-2.54 0-4.54-.81-6-2.42s-2.2-3.84-2.2-6.69v-.31c0-2.73.73-4.92 2.18-6.55 1.46-1.63 3.45-2.44 5.99-2.44 2.22 0 4 .63 5.34 1.9 1.34 1.26 2.02 2.94 2.04 5.04h-4.45c-.02-.92-.31-1.67-.85-2.25s-1.27-.87-2.17-.87c-1.1 0-1.94.4-2.5 1.21s-.84 2.11-.84 3.92v.49c0 1.83.28 3.14.84 3.94s1.4 1.2 2.54 1.2zM447.61 59.81l3.28-11.04h5.09l-7.14 20.51-.39.94c-1.06 2.32-2.81 3.48-5.25 3.48-.69 0-1.39-.1-2.1-.31V69.8l.72.02c.9 0 1.57-.14 2.01-.41.44-.27.79-.73 1.04-1.36l.56-1.46-6.22-17.8h5.1l3.3 11.02zM477.06 63.5c-.89 1.06-2.14 1.88-3.76 2.47-1.62.58-3.41.88-5.38.88-2.07 0-3.88-.45-5.44-1.35s-2.76-2.21-3.61-3.93-1.28-3.73-1.3-6.05V53.9c0-2.38.4-4.45 1.21-6.19s1.96-3.08 3.48-4c1.51-.92 3.29-1.39 5.32-1.39 2.83 0 5.05.68 6.64 2.03 1.6 1.35 2.54 3.32 2.84 5.9h-4.79c-.22-1.37-.7-2.37-1.45-3-.75-.63-1.78-.95-3.09-.95-1.67 0-2.95.63-3.82 1.89s-1.32 3.13-1.33 5.61v1.53c0 2.5.48 4.4 1.43 5.68.95 1.28 2.35 1.92 4.18 1.92 1.85 0 3.17-.39 3.95-1.18V57.6h-4.48v-3.63h9.4v9.53zM491.37 64.72c-1.17 1.42-2.79 2.13-4.86 2.13-1.9 0-3.35-.55-4.36-1.64s-1.51-2.7-1.53-4.81V48.77h4.74v11.48c0 1.85.84 2.78 2.53 2.78 1.61 0 2.71-.56 3.31-1.68V48.77h4.76v17.75h-4.46l-.13-1.8zM509.83 66.52c-.22-.43-.38-.96-.48-1.59-1.15 1.28-2.64 1.92-4.48 1.92-1.74 0-3.18-.5-4.32-1.51s-1.71-2.27-1.71-3.81c0-1.88.7-3.33 2.09-4.33 1.39-1.01 3.41-1.51 6.05-1.53h2.18v-1.02c0-.82-.21-1.48-.63-1.97s-1.09-.74-1.99-.74c-.8 0-1.42.19-1.88.57-.45.38-.68.91-.68 1.58h-4.74c0-1.03.32-1.98.95-2.85.63-.87 1.53-1.56 2.69-2.06s2.46-.75 3.91-.75c2.19 0 3.92.55 5.21 1.65 1.29 1.1 1.93 2.64 1.93 4.63v7.69c.01 1.68.25 2.96.71 3.82v.28h-4.81zm-3.93-3.3c.7 0 1.35-.16 1.94-.47.59-.31 1.03-.73 1.31-1.26v-3.05h-1.77c-2.37 0-3.64.82-3.79 2.46l-.02.28c0 .59.21 1.08.62 1.46.42.39.99.58 1.71.58zM527.53 53.22c-.65-.09-1.21-.13-1.71-.13-1.79 0-2.97.61-3.53 1.82v11.62h-4.74V48.77h4.48l.13 2.12c.95-1.63 2.27-2.44 3.95-2.44.53 0 1.02.07 1.48.21l-.06 4.56zM529.07 57.51c0-2.77.62-4.97 1.86-6.61 1.24-1.64 2.94-2.46 5.09-2.46 1.73 0 3.16.65 4.28 1.94v-9.06h4.76v25.2h-4.28l-.23-1.89c-1.18 1.48-2.7 2.21-4.56 2.21-2.09 0-3.76-.82-5.03-2.47-1.26-1.64-1.89-3.92-1.89-6.86zm4.74.36c0 1.67.29 2.94.87 3.83.58.89 1.42 1.33 2.53 1.33 1.46 0 2.5-.62 3.1-1.86v-7.02c-.59-1.24-1.61-1.86-3.07-1.86-2.29.01-3.43 1.86-3.43 5.58zM263.77 104.69c1.08 0 2.03-.33 2.84-.98.81-.66 1.26-1.48 1.34-2.46h2.87c-.05 1.02-.4 1.99-1.05 2.9-.65.92-1.51 1.65-2.58 2.2s-2.22.82-3.42.82c-2.42 0-4.34-.81-5.77-2.42s-2.14-3.82-2.14-6.62v-.51c0-1.73.32-3.27.95-4.61.63-1.35 1.54-2.39 2.73-3.13s2.59-1.12 4.21-1.12c1.99 0 3.65.6 4.96 1.79 1.32 1.19 2.02 2.74 2.11 4.64h-2.87c-.09-1.15-.52-2.09-1.3-2.83-.78-.74-1.75-1.11-2.9-1.11-1.54 0-2.74.56-3.58 1.67-.85 1.11-1.27 2.72-1.27 4.82v.57c0 2.05.42 3.62 1.26 4.73.84 1.1 2.04 1.65 3.61 1.65zM285.19 106.84c-.17-.35-.32-.97-.43-1.87-1.41 1.47-3.1 2.2-5.05 2.2-1.75 0-3.19-.49-4.31-1.48-1.12-.99-1.68-2.24-1.68-3.77 0-1.85.7-3.28 2.11-4.31 1.41-1.02 3.38-1.53 5.93-1.53h2.95v-1.39c0-1.06-.32-1.91-.95-2.53-.63-.63-1.57-.94-2.81-.94-1.08 0-1.99.27-2.72.82-.73.55-1.1 1.21-1.1 1.99h-3.05c0-.89.31-1.74.94-2.57.63-.83 1.48-1.48 2.56-1.96s2.26-.72 3.55-.72c2.04 0 3.65.51 4.81 1.53 1.16 1.02 1.76 2.43 1.8 4.22v8.17c0 1.63.21 2.93.62 3.89v.26h-3.17zm-5.03-2.31c.95 0 1.85-.25 2.71-.74.85-.49 1.47-1.13 1.85-1.92v-3.64h-2.38c-3.72 0-5.58 1.09-5.58 3.26 0 .95.32 1.7.95 2.23.64.54 1.45.81 2.45.81zM295.38 89.09l.1 2.23c1.36-1.71 3.13-2.56 5.32-2.56 3.75 0 5.64 2.12 5.68 6.35v11.73h-3.04V95.09c-.01-1.28-.3-2.23-.88-2.84-.57-.61-1.47-.92-2.68-.92-.98 0-1.85.26-2.59.79-.74.52-1.32 1.21-1.74 2.07v12.65h-3.04V89.09h2.87zM322.4 91.24c1.35-1.65 3.09-2.48 5.25-2.48 3.75 0 5.64 2.12 5.68 6.35v11.73h-3.04V95.09c-.01-1.28-.3-2.23-.88-2.84-.57-.61-1.47-.92-2.68-.92-.98 0-1.85.26-2.59.79-.74.52-1.32 1.21-1.74 2.07v12.65h-3.04v-25.2h3.04v9.6zM345.24 107.17c-2.41 0-4.36-.79-5.87-2.37-1.51-1.58-2.26-3.69-2.26-6.34v-.56c0-1.76.34-3.33 1.01-4.72.67-1.38 1.61-2.47 2.82-3.25a7.116 7.116 0 0 1 3.93-1.17c2.31 0 4.1.76 5.38 2.28 1.28 1.52 1.92 3.7 1.92 6.53v1.26h-12.03c.04 1.75.56 3.16 1.53 4.24s2.22 1.62 3.73 1.62c1.07 0 1.98-.22 2.72-.66.74-.44 1.39-1.02 1.95-1.74l1.85 1.44c-1.47 2.3-3.71 3.44-6.68 3.44zm-.38-15.92c-1.23 0-2.25.45-3.08 1.34-.83.89-1.34 2.14-1.54 3.75h8.89v-.23c-.09-1.54-.5-2.74-1.25-3.58s-1.75-1.28-3.02-1.28zM358.97 106.84h-3.04v-25.2h3.04v25.2zM378.82 98.16c0 2.7-.62 4.88-1.85 6.53-1.24 1.65-2.91 2.48-5.02 2.48-2.16 0-3.85-.68-5.09-2.05v8.55h-3.04V89.09h2.77l.15 1.97c1.24-1.53 2.95-2.3 5.15-2.3 2.13 0 3.82.8 5.06 2.41s1.86 3.84 1.86 6.71v.28zm-3.03-.34c0-2-.43-3.58-1.28-4.74-.85-1.16-2.02-1.74-3.51-1.74-1.84 0-3.22.81-4.13 2.44v8.48c.91 1.62 2.3 2.43 4.17 2.43 1.46 0 2.61-.58 3.47-1.73.85-1.15 1.28-2.87 1.28-5.14zM405.99 98.16c0 2.7-.62 4.88-1.85 6.53-1.24 1.65-2.91 2.48-5.02 2.48-2.16 0-3.85-.68-5.09-2.05v8.55H391V89.09h2.77l.15 1.97c1.24-1.53 2.95-2.3 5.15-2.3 2.13 0 3.82.8 5.06 2.41s1.86 3.84 1.86 6.71v.28zm-3.03-.34c0-2-.43-3.58-1.28-4.74-.85-1.16-2.02-1.74-3.51-1.74-1.84 0-3.22.81-4.13 2.44v8.48c.91 1.62 2.3 2.43 4.17 2.43 1.46 0 2.61-.58 3.47-1.73.85-1.15 1.28-2.87 1.28-5.14zM418.43 91.81c-.46-.08-.96-.11-1.49-.11-1.99 0-3.34.85-4.05 2.54v12.6h-3.04V89.09h2.95l.05 2.05c1-1.59 2.41-2.38 4.23-2.38.59 0 1.04.08 1.34.23v2.82zM420.08 97.8c0-1.74.34-3.3 1.03-4.69s1.63-2.46 2.85-3.22c1.22-.75 2.61-1.13 4.18-1.13 2.42 0 4.37.84 5.87 2.51 1.49 1.67 2.24 3.9 2.24 6.68v.21c0 1.73-.33 3.28-.99 4.65-.66 1.37-1.61 2.44-2.84 3.21s-2.64 1.15-4.24 1.15c-2.41 0-4.36-.84-5.85-2.51s-2.24-3.89-2.24-6.64v-.22zm3.06.36c0 1.97.46 3.55 1.37 4.74.91 1.19 2.14 1.79 3.67 1.79 1.54 0 2.77-.6 3.67-1.81.91-1.21 1.36-2.9 1.36-5.08 0-1.95-.46-3.52-1.39-4.73-.92-1.21-2.15-1.81-3.68-1.81-1.5 0-2.71.6-3.63 1.79-.91 1.19-1.37 2.89-1.37 5.11zM444.17 84.79v4.3h3.31v2.35h-3.31v11.02c0 .71.15 1.25.44 1.6.3.36.8.53 1.51.53.35 0 .83-.07 1.44-.2v2.45c-.8.22-1.57.33-2.33.33-1.36 0-2.38-.41-3.07-1.23-.69-.82-1.03-1.99-1.03-3.49V91.44h-3.23v-2.35h3.23v-4.3h3.04zM458.39 107.17c-2.41 0-4.36-.79-5.87-2.37-1.51-1.58-2.26-3.69-2.26-6.34v-.56c0-1.76.34-3.33 1.01-4.72.67-1.38 1.61-2.47 2.82-3.25a7.116 7.116 0 0 1 3.93-1.17c2.31 0 4.1.76 5.38 2.28 1.28 1.52 1.92 3.7 1.92 6.53v1.26h-12.03c.04 1.75.56 3.16 1.53 4.24s2.22 1.62 3.73 1.62c1.07 0 1.98-.22 2.72-.66.74-.44 1.39-1.02 1.95-1.74l1.85 1.44c-1.47 2.3-3.7 3.44-6.68 3.44zm-.37-15.92c-1.23 0-2.25.45-3.08 1.34-.83.89-1.34 2.14-1.54 3.75h8.89v-.23c-.09-1.54-.5-2.74-1.25-3.58s-1.76-1.28-3.02-1.28zM475.95 104.69c1.08 0 2.03-.33 2.84-.98.81-.66 1.26-1.48 1.34-2.46H483c-.05 1.02-.4 1.99-1.05 2.9-.65.92-1.51 1.65-2.58 2.2s-2.22.82-3.42.82c-2.42 0-4.34-.81-5.77-2.42s-2.14-3.82-2.14-6.62v-.51c0-1.73.32-3.27.95-4.61.63-1.35 1.54-2.39 2.73-3.13s2.59-1.12 4.21-1.12c1.99 0 3.65.6 4.96 1.79 1.32 1.19 2.02 2.74 2.11 4.64h-2.87c-.09-1.15-.52-2.09-1.3-2.83-.78-.74-1.75-1.11-2.9-1.11-1.54 0-2.74.56-3.58 1.67-.85 1.11-1.27 2.72-1.27 4.82v.57c0 2.05.42 3.62 1.26 4.73.84 1.1 2.04 1.65 3.61 1.65zM490.53 84.79v4.3h3.31v2.35h-3.31v11.02c0 .71.15 1.25.44 1.6.3.36.8.53 1.51.53.35 0 .83-.07 1.44-.2v2.45c-.8.22-1.57.33-2.33.33-1.36 0-2.38-.41-3.07-1.23-.69-.82-1.03-1.99-1.03-3.49V91.44h-3.23v-2.35h3.23v-4.3h3.04zM511.52 102.39l4.13-13.31h3.25l-7.14 20.49c-1.1 2.95-2.86 4.43-5.27 4.43l-.57-.05-1.13-.21v-2.46l.82.07c1.03 0 1.83-.21 2.4-.62s1.05-1.18 1.42-2.28l.67-1.8-6.33-17.55h3.31l4.44 13.29zM520.8 97.8c0-1.74.34-3.3 1.03-4.69s1.63-2.46 2.85-3.22c1.22-.75 2.61-1.13 4.18-1.13 2.42 0 4.37.84 5.87 2.51 1.49 1.67 2.24 3.9 2.24 6.68v.21c0 1.73-.33 3.28-.99 4.65-.66 1.37-1.61 2.44-2.84 3.21s-2.64 1.15-4.24 1.15c-2.41 0-4.36-.84-5.85-2.51s-2.24-3.89-2.24-6.64v-.22zm3.05.36c0 1.97.46 3.55 1.37 4.74.91 1.19 2.14 1.79 3.67 1.79 1.54 0 2.77-.6 3.67-1.81.91-1.21 1.36-2.9 1.36-5.08 0-1.95-.46-3.52-1.39-4.73-.92-1.21-2.15-1.81-3.68-1.81-1.5 0-2.71.6-3.63 1.79-.91 1.19-1.37 2.89-1.37 5.11zM551.73 105.09c-1.18 1.39-2.91 2.08-5.2 2.08-1.89 0-3.33-.55-4.32-1.65s-1.49-2.73-1.5-4.88V89.09h3.04v11.47c0 2.69 1.09 4.04 3.28 4.04 2.32 0 3.86-.86 4.63-2.59V89.09h3.04v17.75h-2.89l-.08-1.75zM569.1 106.84v-15.4h-2.81v-2.35h2.81v-1.82c0-1.9.51-3.37 1.53-4.41s2.46-1.56 4.32-1.56c.7 0 1.39.09 2.08.28l-.16 2.45c-.51-.1-1.06-.15-1.64-.15-.98 0-1.74.29-2.28.86-.54.58-.8 1.4-.8 2.48v1.88h3.79v2.35h-3.79v15.41h-3.05zM587.85 91.81c-.46-.08-.96-.11-1.49-.11-1.99 0-3.34.85-4.05 2.54v12.6h-3.04V89.09h2.95l.05 2.05c1-1.59 2.41-2.38 4.23-2.38.59 0 1.04.08 1.34.23v2.82zM589.51 97.8c0-1.74.34-3.3 1.03-4.69s1.63-2.46 2.85-3.22c1.22-.75 2.61-1.13 4.18-1.13 2.42 0 4.37.84 5.87 2.51 1.49 1.67 2.24 3.9 2.24 6.68v.21c0 1.73-.33 3.28-.99 4.65-.66 1.37-1.61 2.44-2.84 3.21s-2.64 1.15-4.24 1.15c-2.41 0-4.36-.84-5.85-2.51s-2.24-3.89-2.24-6.64v-.22zm3.05.36c0 1.97.46 3.55 1.37 4.74.91 1.19 2.14 1.79 3.67 1.79 1.54 0 2.77-.6 3.67-1.81.91-1.21 1.36-2.9 1.36-5.08 0-1.95-.46-3.52-1.39-4.73-.92-1.21-2.15-1.81-3.68-1.81-1.5 0-2.71.6-3.63 1.79-.91 1.19-1.37 2.89-1.37 5.11zM612.33 89.09l.08 1.97c1.3-1.53 3.06-2.3 5.27-2.3 2.48 0 4.17.95 5.07 2.85a6.79 6.79 0 0 1 2.31-2.07c.95-.53 2.06-.79 3.35-.79 3.89 0 5.87 2.06 5.94 6.19v11.89h-3.04v-11.7c0-1.27-.29-2.22-.87-2.85-.58-.63-1.55-.94-2.92-.94-1.13 0-2.06.34-2.81 1.01-.74.67-1.18 1.58-1.3 2.72v11.78h-3.05V95.21c0-2.58-1.26-3.87-3.79-3.87-1.99 0-3.35.85-4.08 2.54v12.96h-3.04V89.09h2.88zM346.17 124.82c0-.71.24-1.3.71-1.76.48-.46 1.12-.69 1.94-.69.81 0 1.45.23 1.94.69.48.46.72 1.04.72 1.76s-.24 1.31-.73 1.77c-.49.46-1.13.69-1.93.69s-1.44-.23-1.93-.69c-.48-.46-.72-1.05-.72-1.77zm5.03 22.34h-4.76v-17.75h4.76v17.75zM354.37 138.15c0-2.77.62-4.97 1.86-6.61 1.24-1.64 2.94-2.46 5.09-2.46 1.73 0 3.16.65 4.28 1.94v-9.06h4.76v25.2h-4.28l-.23-1.89c-1.18 1.48-2.7 2.21-4.56 2.21-2.09 0-3.76-.82-5.03-2.47-1.26-1.64-1.89-3.93-1.89-6.86zm4.74.36c0 1.67.29 2.94.87 3.83.58.89 1.42 1.33 2.53 1.33 1.46 0 2.5-.62 3.1-1.86v-7.02c-.59-1.24-1.61-1.86-3.07-1.86-2.29.01-3.43 1.86-3.43 5.58zM382.21 147.49c-2.6 0-4.72-.8-6.36-2.4-1.63-1.6-2.45-3.72-2.45-6.38v-.46c0-1.78.34-3.38 1.03-4.78s1.67-2.49 2.93-3.25c1.26-.76 2.7-1.14 4.32-1.14 2.43 0 4.34.77 5.73 2.3s2.09 3.7 2.09 6.51v1.94h-11.3c.15 1.16.62 2.09 1.39 2.79.77.7 1.75 1.05 2.93 1.05 1.83 0 3.25-.66 4.28-1.99l2.33 2.61c-.71 1.01-1.67 1.79-2.89 2.35s-2.55.85-4.03.85zm-.54-14.59c-.94 0-1.7.32-2.29.96-.58.64-.96 1.55-1.12 2.74h6.6v-.38c-.02-1.05-.31-1.87-.85-2.45s-1.34-.87-2.34-.87zM396.57 129.41l.15 2.05c1.27-1.59 2.97-2.38 5.1-2.38 1.88 0 3.28.55 4.2 1.66.92 1.11 1.39 2.76 1.41 4.96v11.47h-4.74v-11.35c0-1.01-.22-1.74-.66-2.19s-1.17-.68-2.18-.68c-1.33 0-2.34.57-3 1.71v12.52h-4.74v-17.75h4.46zM416.7 125.04v4.36h3.04v3.48h-3.04v8.86c0 .66.12 1.13.38 1.41s.73.43 1.44.43c.53 0 .99-.04 1.39-.12v3.59c-.93.29-1.89.43-2.87.43-3.32 0-5.02-1.68-5.09-5.04v-9.57h-2.59v-3.48h2.59v-4.36h4.75zM422.34 124.82c0-.71.24-1.3.71-1.76.48-.46 1.12-.69 1.94-.69.81 0 1.45.23 1.94.69.48.46.72 1.04.72 1.76s-.24 1.31-.73 1.77c-.49.46-1.13.69-1.93.69s-1.44-.23-1.93-.69c-.48-.46-.72-1.05-.72-1.77zm5.04 22.34h-4.76v-17.75h4.76v17.75zM436.96 125.04v4.36H440v3.48h-3.04v8.86c0 .66.12 1.13.38 1.41s.73.43 1.44.43c.53 0 .99-.04 1.39-.12v3.59c-.93.29-1.89.43-2.87.43-3.32 0-5.02-1.68-5.09-5.04v-9.57h-2.59v-3.48h2.59v-4.36h4.75zM449.26 140.45l3.28-11.04h5.09l-7.14 20.51-.39.93c-1.06 2.32-2.81 3.48-5.25 3.48-.69 0-1.39-.1-2.1-.31v-3.59l.72.02c.9 0 1.57-.14 2.01-.41.44-.27.79-.73 1.04-1.36l.56-1.46-6.22-17.8h5.1l3.3 11.03zM473.54 125.04v4.36h3.04v3.48h-3.04v8.86c0 .66.12 1.13.38 1.41s.73.43 1.44.43c.53 0 .99-.04 1.39-.12v3.59c-.93.29-1.89.43-2.87.43-3.32 0-5.02-1.68-5.09-5.04v-9.57h-2.59v-3.48h2.59v-4.36h4.75zM483.85 131.34c1.26-1.51 2.84-2.26 4.74-2.26 3.85 0 5.8 2.24 5.86 6.71v11.37h-4.74v-11.24c0-1.02-.22-1.77-.66-2.26-.44-.49-1.17-.73-2.18-.73-1.39 0-2.4.54-3.02 1.61v12.62h-4.74v-25.2h4.74v9.38zM506.19 147.49c-2.6 0-4.72-.8-6.36-2.4-1.63-1.6-2.45-3.72-2.45-6.38v-.46c0-1.78.34-3.38 1.03-4.78s1.67-2.49 2.93-3.25c1.26-.76 2.7-1.14 4.32-1.14 2.43 0 4.34.77 5.73 2.3s2.09 3.7 2.09 6.51v1.94h-11.3c.15 1.16.62 2.09 1.39 2.79.77.7 1.75 1.05 2.93 1.05 1.83 0 3.25-.66 4.28-1.99l2.33 2.61c-.71 1.01-1.67 1.79-2.89 2.35s-2.55.85-4.03.85zm-.54-14.59c-.94 0-1.7.32-2.29.96-.58.64-.96 1.55-1.12 2.74h6.6v-.38c-.02-1.05-.31-1.87-.85-2.45s-1.33-.87-2.34-.87zM517.48 147.16v-14.27h-2.64v-3.48h2.64v-1.51c0-1.99.57-3.54 1.71-4.63 1.14-1.1 2.74-1.65 4.8-1.65.66 0 1.46.11 2.41.33l-.05 3.67c-.39-.1-.88-.15-1.44-.15-1.78 0-2.67.84-2.67 2.51v1.43h3.53v3.48h-3.53v14.27h-4.76zM533.9 125.04v4.36h3.04v3.48h-3.04v8.86c0 .66.12 1.13.38 1.41s.73.43 1.44.43c.53 0 .99-.04 1.39-.12v3.59c-.93.29-1.89.43-2.87.43-3.32 0-5.02-1.68-5.09-5.04v-9.57h-2.59v-3.48h2.59v-4.36h4.75zM540.12 145.57c0-.53.16-.96.47-1.31.31-.35.78-.53 1.4-.53.62 0 1.1.17 1.42.53.32.35.48.79.48 1.31 0 .5-.16.92-.48 1.26-.32.34-.8.51-1.42.51-.62 0-1.09-.17-1.4-.51s-.47-.76-.47-1.26z"/><g><path class="st0" d="M745.86 198.03c0-.48-.17-.88-.5-1.21s-.9-.62-1.7-.89c-1.11-.34-1.92-.78-2.43-1.32-.51-.54-.76-1.24-.76-2.07 0-.85.25-1.55.75-2.1s1.18-.87 2.05-.98v-1.71h1.16v1.72c.88.12 1.56.49 2.04 1.1.49.62.73 1.46.73 2.52h-1.44c0-.74-.17-1.32-.52-1.76s-.82-.65-1.41-.65c-.62 0-1.09.16-1.42.48s-.49.77-.49 1.34c0 .53.17.96.52 1.27.35.32.92.6 1.71.86.79.26 1.41.54 1.86.85.45.31.77.67.98 1.08.21.41.32.89.32 1.45 0 .88-.26 1.59-.79 2.12-.53.54-1.27.85-2.22.95v1.49h-1.16v-1.49c-.97-.09-1.73-.43-2.28-1.04s-.82-1.42-.82-2.45h1.45c0 .72.19 1.28.57 1.67s.92.59 1.62.59c.68 0 1.22-.16 1.61-.49s.57-.76.57-1.33zM753.85 200.96h-1.45v-9.63l-2.91 1.07v-1.31l4.14-1.55h.23v11.42zM764.16 190.46v2.05h1.58v1.12h-1.58v5.25c0 .34.07.59.21.76.14.17.38.25.72.25.17 0 .4-.03.69-.09v1.17c-.38.1-.75.16-1.11.16-.65 0-1.13-.2-1.46-.59s-.49-.95-.49-1.66v-5.24h-1.54v-1.12h1.54v-2.05h1.44zM771.51 193.8c-.22-.04-.46-.05-.71-.05-.95 0-1.59.4-1.93 1.21v6h-1.45v-8.45h1.41l.02.98c.47-.75 1.15-1.13 2.02-1.13.28 0 .5.04.64.11v1.33zM772.84 190.27c0-.23.07-.43.21-.59.14-.16.36-.24.64-.24s.5.08.64.24c.15.16.22.36.22.59s-.07.43-.22.59-.36.23-.64.23-.49-.08-.64-.23-.21-.36-.21-.59zm1.57 10.69h-1.45v-8.45h1.45v8.45zM781.94 200.96c-.08-.17-.15-.46-.2-.89-.67.7-1.47 1.05-2.41 1.05-.83 0-1.52-.24-2.05-.71-.53-.47-.8-1.07-.8-1.79 0-.88.33-1.56 1-2.05.67-.49 1.61-.73 2.82-.73h1.41v-.66c0-.5-.15-.91-.45-1.21-.3-.3-.75-.45-1.34-.45-.52 0-.95.13-1.3.39-.35.26-.52.58-.52.95h-1.45c0-.42.15-.83.45-1.22.3-.39.71-.7 1.22-.93.51-.23 1.08-.34 1.69-.34.97 0 1.74.24 2.29.73s.84 1.16.86 2.01V199c0 .78.1 1.39.3 1.85v.12h-1.52zm-2.4-1.1c.45 0 .88-.12 1.29-.35s.7-.54.88-.91v-1.73h-1.13c-1.77 0-2.66.52-2.66 1.55 0 .45.15.81.45 1.06.31.25.7.38 1.17.38zM786.99 200.96h-1.45v-12h1.45v12zM793.98 200.96v-7.34h-1.34v-1.12h1.34v-.87c0-.91.24-1.61.73-2.1.48-.49 1.17-.74 2.05-.74.33 0 .66.04.99.13l-.08 1.17c-.25-.05-.5-.07-.78-.07-.47 0-.83.14-1.09.41-.25.27-.38.67-.38 1.18v.89h1.8v1.12h-1.8v7.34h-1.44zM798.44 196.66c0-.83.16-1.57.49-2.23.33-.66.78-1.17 1.36-1.53s1.24-.54 1.99-.54c1.15 0 2.08.4 2.79 1.2s1.07 1.86 1.07 3.18v.1c0 .82-.16 1.56-.47 2.21a3.72 3.72 0 0 1-1.35 1.53c-.59.37-1.26.55-2.02.55-1.15 0-2.07-.4-2.79-1.2s-1.07-1.85-1.07-3.16v-.11zm1.45.17c0 .94.22 1.69.65 2.26.43.57 1.02.85 1.75.85s1.32-.29 1.75-.86c.43-.58.65-1.38.65-2.42 0-.93-.22-1.68-.66-2.25-.44-.58-1.02-.86-1.75-.86-.71 0-1.29.28-1.73.85-.44.56-.66 1.37-.66 2.43zM812.03 193.8c-.22-.04-.46-.05-.71-.05-.95 0-1.59.4-1.93 1.21v6h-1.45v-8.45h1.41l.02.98c.47-.75 1.15-1.13 2.02-1.13.28 0 .5.04.64.11v1.33zM819.28 190.46v2.05h1.58v1.12h-1.58v5.25c0 .34.07.59.21.76.14.17.38.25.72.25.17 0 .4-.03.69-.09v1.17c-.38.1-.75.16-1.11.16-.65 0-1.13-.2-1.46-.59s-.49-.95-.49-1.66v-5.24h-1.54v-1.12h1.54v-2.05h1.44zM823.99 193.53c.64-.79 1.47-1.18 2.5-1.18 1.79 0 2.69 1.01 2.7 3.02v5.59h-1.45v-5.59c0-.61-.14-1.06-.42-1.35-.27-.29-.7-.44-1.28-.44-.47 0-.88.12-1.23.38s-.63.58-.83.98v6.02h-1.45v-12h1.45v4.57zM834.87 201.12c-1.15 0-2.08-.38-2.8-1.13-.72-.75-1.08-1.76-1.08-3.02v-.27c0-.84.16-1.59.48-2.25.32-.66.77-1.17 1.34-1.55.58-.37 1.2-.56 1.87-.56 1.1 0 1.95.36 2.56 1.09.61.72.91 1.76.91 3.11v.6h-5.73c.02.83.26 1.51.73 2.02s1.06.77 1.78.77c.51 0 .94-.1 1.3-.31.35-.21.66-.48.93-.83l.88.69c-.69 1.09-1.76 1.64-3.17 1.64zm-.18-7.58c-.58 0-1.07.21-1.47.64-.4.42-.64 1.02-.73 1.79h4.23v-.11c-.04-.73-.24-1.3-.59-1.71-.36-.41-.84-.61-1.44-.61zM844.51 200.96v-7.34h-1.34v-1.12h1.34v-.87c0-.91.24-1.61.73-2.1.48-.49 1.17-.74 2.05-.74.33 0 .66.04.99.13l-.08 1.17c-.25-.05-.5-.07-.78-.07-.47 0-.83.14-1.09.41-.25.27-.38.67-.38 1.18v.89h1.8v1.12h-1.8v7.34h-1.44zM849.36 190.27c0-.23.07-.43.21-.59.14-.16.36-.24.64-.24s.5.08.64.24c.15.16.22.36.22.59s-.07.43-.22.59-.36.23-.64.23-.49-.08-.64-.23-.21-.36-.21-.59zm1.56 10.69h-1.45v-8.45h1.45v8.45zM857.32 193.8c-.22-.04-.46-.05-.71-.05-.95 0-1.59.4-1.93 1.21v6h-1.45v-8.45h1.41l.02.98c.47-.75 1.15-1.13 2.02-1.13.28 0 .5.04.64.11v1.33zM863.57 198.72c0-.39-.15-.69-.44-.91-.29-.22-.81-.4-1.54-.56s-1.31-.34-1.74-.56-.75-.48-.95-.78c-.21-.3-.31-.66-.31-1.08 0-.69.29-1.28.88-1.76.59-.48 1.33-.72 2.25-.72.96 0 1.74.25 2.33.74.6.5.89 1.13.89 1.9h-1.45c0-.4-.17-.74-.5-1.02-.34-.29-.76-.43-1.27-.43-.53 0-.94.12-1.23.34-.3.23-.45.53-.45.9 0 .35.14.61.41.79.28.18.77.35 1.5.51.72.16 1.31.35 1.75.58.45.22.78.49 1 .81.22.32.32.7.32 1.15 0 .76-.3 1.36-.91 1.82-.6.46-1.39.68-2.35.68-.68 0-1.28-.12-1.8-.36s-.93-.57-1.22-1-.44-.89-.44-1.39h1.45c.03.48.22.87.58 1.15.36.28.84.43 1.43.43.55 0 .99-.11 1.32-.33.33-.24.49-.53.49-.9zM868.86 190.46v2.05h1.58v1.12h-1.58v5.25c0 .34.07.59.21.76.14.17.38.25.72.25.17 0 .4-.03.69-.09v1.17c-.38.1-.75.16-1.11.16-.65 0-1.13-.2-1.46-.59s-.49-.95-.49-1.66v-5.24h-1.54v-1.12h1.54v-2.05h1.44zM881.25 200.96h-2.26v-8.7l-2.7.84v-1.84l4.71-1.69h.24v11.39zM891.62 196.68h1.29v1.82h-1.29v2.46h-2.26v-2.46h-4.66l-.1-1.42 4.74-7.49h2.28v7.09zm-4.77 0h2.52v-4.02l-.15.26-2.37 3.76zM897.85 196.67c0-1.32.3-2.37.89-3.15s1.4-1.17 2.43-1.17c.82 0 1.5.31 2.04.92v-4.31h2.27v12h-2.04l-.11-.9c-.56.7-1.29 1.05-2.17 1.05-1 0-1.79-.39-2.39-1.18-.62-.77-.92-1.86-.92-3.26zm2.26.17c0 .79.14 1.4.41 1.82s.68.63 1.2.63c.7 0 1.19-.29 1.48-.88v-3.34c-.28-.59-.77-.88-1.46-.88-1.09 0-1.63.88-1.63 2.65zM912.12 200.96c-.1-.2-.18-.46-.23-.76-.55.61-1.26.91-2.13.91-.83 0-1.51-.24-2.06-.72-.54-.48-.82-1.08-.82-1.81 0-.9.33-1.58 1-2.06.66-.48 1.62-.72 2.88-.73h1.04v-.48c0-.39-.1-.7-.3-.94s-.52-.35-.95-.35c-.38 0-.68.09-.89.27-.22.18-.32.43-.32.75h-2.26c0-.49.15-.94.45-1.36.3-.42.73-.74 1.28-.98s1.17-.36 1.86-.36c1.04 0 1.87.26 2.48.79s.92 1.26.92 2.21V199c0 .8.12 1.41.34 1.82v.13h-2.29zm-1.87-1.57c.33 0 .64-.07.92-.22s.49-.35.62-.6v-1.45h-.84c-1.13 0-1.73.39-1.8 1.17l-.01.13c0 .28.1.51.3.7.2.18.47.27.81.27zM918.95 197.77l1.56-5.26h2.42l-3.4 9.77-.19.45c-.5 1.1-1.34 1.66-2.5 1.66-.33 0-.66-.05-1-.15v-1.71l.34.01c.43 0 .75-.07.96-.2.21-.13.38-.35.5-.65l.27-.7-2.96-8.48h2.43l1.57 5.26zM928.41 198.62c0-.28-.14-.49-.41-.65-.27-.16-.71-.3-1.32-.43-2.01-.42-3.02-1.28-3.02-2.56 0-.75.31-1.38.93-1.88.62-.5 1.44-.75 2.44-.75 1.07 0 1.93.25 2.57.76.64.51.96 1.16.96 1.97h-2.26c0-.32-.1-.59-.31-.8s-.53-.32-.98-.32c-.38 0-.67.09-.88.26s-.31.39-.31.66c0 .25.12.45.36.61.24.15.64.29 1.2.4.56.11 1.04.24 1.42.38 1.19.44 1.79 1.2 1.79 2.27 0 .77-.33 1.39-.99 1.87s-1.52.71-2.56.71c-.71 0-1.34-.13-1.89-.38s-.98-.6-1.29-1.04c-.31-.44-.47-.92-.47-1.43h2.14c.02.4.17.71.45.92.28.21.65.32 1.11.32.43 0 .76-.08.98-.25s.34-.37.34-.64zM932.23 203.23l-.82-.56c.49-.68.75-1.39.77-2.11v-1.3h1.41v1.13c0 .53-.13 1.05-.39 1.58-.25.52-.58.94-.97 1.26zM738.53 216.03c0 1.29-.29 2.32-.88 3.11s-1.39 1.18-2.39 1.18c-1.03 0-1.83-.33-2.42-.98v4.07h-1.45v-11.7h1.32l.07.94c.59-.73 1.41-1.09 2.45-1.09 1.02 0 1.82.38 2.41 1.15s.89 1.83.89 3.2v.12zm-1.45-.17c0-.95-.2-1.71-.61-2.26s-.96-.83-1.67-.83c-.88 0-1.53.39-1.97 1.16v4.04c.43.77 1.09 1.16 1.98 1.16.69 0 1.24-.27 1.65-.82s.62-1.36.62-2.45zM741.93 220.16h-1.45v-12h1.45v12zM749.46 220.16c-.08-.17-.15-.46-.2-.89-.67.7-1.47 1.05-2.41 1.05-.83 0-1.52-.24-2.05-.71s-.8-1.07-.8-1.79c0-.88.33-1.56 1-2.05s1.61-.73 2.82-.73h1.41v-.66c0-.5-.15-.91-.45-1.21s-.75-.45-1.34-.45c-.52 0-.95.13-1.3.39s-.52.58-.52.95h-1.45c0-.42.15-.83.45-1.22s.71-.7 1.22-.93 1.08-.34 1.69-.34c.97 0 1.74.24 2.29.73s.84 1.16.86 2.01v3.89c0 .78.1 1.39.3 1.85v.12h-1.52zm-2.39-1.1c.45 0 .88-.12 1.29-.35s.7-.54.88-.91v-1.73h-1.13c-1.77 0-2.66.52-2.66 1.55 0 .45.15.81.45 1.06s.69.38 1.17.38zM754.32 211.71l.05 1.06c.65-.81 1.49-1.22 2.53-1.22 1.79 0 2.69 1.01 2.7 3.02v5.59h-1.45v-5.59c0-.61-.14-1.06-.42-1.35s-.7-.44-1.28-.44c-.47 0-.88.12-1.23.38s-.63.58-.83.98v6.02h-1.45v-8.45h1.38zM766.7 217.92c0-.39-.15-.69-.44-.91s-.81-.4-1.54-.56-1.31-.34-1.74-.56-.75-.48-.95-.78-.31-.66-.31-1.08c0-.69.29-1.28.88-1.76s1.33-.72 2.25-.72c.96 0 1.74.25 2.33.74s.89 1.13.89 1.9h-1.45c0-.4-.17-.74-.5-1.02s-.76-.43-1.27-.43c-.53 0-.94.11-1.23.34s-.45.53-.45.9c0 .35.14.61.41.79s.77.35 1.5.51 1.31.35 1.75.58.78.49 1 .81.32.7.32 1.15c0 .75-.3 1.36-.91 1.82s-1.39.68-2.35.68c-.68 0-1.28-.12-1.8-.36s-.93-.57-1.22-1-.44-.89-.44-1.39h1.45c.03.48.22.87.58 1.15s.84.43 1.43.43c.55 0 .99-.11 1.32-.33s.49-.53.49-.9zM778.91 217.92c0-.39-.15-.69-.44-.91s-.81-.4-1.54-.56-1.31-.34-1.74-.56-.75-.48-.95-.78-.31-.66-.31-1.08c0-.69.29-1.28.88-1.76s1.33-.72 2.25-.72c.96 0 1.74.25 2.33.74s.89 1.13.89 1.9h-1.45c0-.4-.17-.74-.5-1.02s-.76-.43-1.27-.43c-.53 0-.94.11-1.23.34s-.45.53-.45.9c0 .35.14.61.41.79s.77.35 1.5.51 1.31.35 1.75.58.78.49 1 .81.32.7.32 1.15c0 .75-.3 1.36-.91 1.82s-1.39.68-2.35.68c-.68 0-1.28-.12-1.8-.36s-.93-.57-1.22-1-.44-.89-.44-1.39h1.45c.03.48.22.87.58 1.15s.84.43 1.43.43c.55 0 .99-.11 1.32-.33s.49-.53.49-.9zM784.2 209.66v2.05h1.58v1.12h-1.58v5.25c0 .34.07.59.21.76.14.17.38.25.72.25.17 0 .4-.03.69-.09v1.17c-.38.1-.75.16-1.11.16-.65 0-1.13-.2-1.46-.59s-.49-.95-.49-1.66v-5.24h-1.54v-1.12h1.54v-2.05h1.44zM792.68 220.16c-.08-.17-.15-.46-.2-.89-.67.7-1.47 1.05-2.41 1.05-.83 0-1.52-.24-2.05-.71s-.8-1.07-.8-1.79c0-.88.33-1.56 1-2.05s1.61-.73 2.82-.73h1.41v-.66c0-.5-.15-.91-.45-1.21s-.75-.45-1.34-.45c-.52 0-.95.13-1.3.39s-.52.58-.52.95h-1.45c0-.42.15-.83.45-1.22s.71-.7 1.22-.93 1.08-.34 1.69-.34c.97 0 1.74.24 2.29.73s.84 1.16.86 2.01v3.89c0 .78.1 1.39.3 1.85v.12h-1.52zm-2.39-1.1c.45 0 .88-.12 1.29-.35s.7-.54.88-.91v-1.73h-1.13c-1.77 0-2.66.52-2.66 1.55 0 .45.15.81.45 1.06s.69.38 1.17.38zM800.25 213c-.22-.04-.46-.05-.71-.05-.95 0-1.59.4-1.93 1.21v6h-1.45v-8.45h1.41l.02.98c.47-.75 1.15-1.13 2.02-1.13.28 0 .5.04.64.11V213zM803.93 209.66v2.05h1.58v1.12h-1.58v5.25c0 .34.07.59.21.76.14.17.38.25.72.25.17 0 .4-.03.69-.09v1.17c-.38.1-.75.16-1.11.16-.65 0-1.13-.2-1.46-.59s-.49-.95-.49-1.66v-5.24h-1.54v-1.12h1.54v-2.05h1.44zM807.21 209.47c0-.23.07-.43.21-.59s.36-.24.64-.24.5.08.64.24.22.36.22.59-.07.43-.22.59-.36.23-.64.23-.49-.08-.64-.23-.21-.36-.21-.59zm1.56 10.69h-1.45v-8.45h1.45v8.45zM812.45 211.71l.05 1.06c.65-.81 1.49-1.22 2.53-1.22 1.79 0 2.69 1.01 2.7 3.02v5.59h-1.45v-5.59c0-.61-.14-1.06-.42-1.35s-.7-.44-1.28-.44c-.47 0-.88.12-1.23.38s-.63.58-.83.98v6.02h-1.45v-8.45h1.38zM819.57 215.86c0-1.32.3-2.37.91-3.14s1.42-1.17 2.42-1.17c1.03 0 1.84.36 2.41 1.09l.07-.94h1.32v8.25c0 1.09-.32 1.96-.97 2.59s-1.52.95-2.61.95c-.61 0-1.21-.13-1.79-.39s-1.03-.62-1.34-1.07l.75-.87c.62.77 1.38 1.15 2.27 1.15.7 0 1.25-.2 1.64-.59s.59-.95.59-1.67v-.73c-.58.67-1.37 1-2.37 1-.99 0-1.79-.4-2.4-1.2s-.9-1.88-.9-3.26zm1.45.17c0 .95.2 1.7.59 2.25s.94.82 1.64.82c.91 0 1.58-.41 2.01-1.24V214c-.44-.81-1.11-1.21-1.99-1.21-.7 0-1.25.27-1.65.82s-.6 1.35-.6 2.42zM838.07 220.16c-.08-.17-.15-.46-.2-.89-.67.7-1.47 1.05-2.41 1.05-.83 0-1.52-.24-2.05-.71s-.8-1.07-.8-1.79c0-.88.33-1.56 1-2.05s1.61-.73 2.82-.73h1.41v-.66c0-.5-.15-.91-.45-1.21s-.75-.45-1.34-.45c-.52 0-.95.13-1.3.39s-.52.58-.52.95h-1.45c0-.42.15-.83.45-1.22s.71-.7 1.22-.93 1.08-.34 1.69-.34c.97 0 1.74.24 2.29.73s.84 1.16.86 2.01v3.89c0 .78.1 1.39.3 1.85v.12h-1.52zm-2.4-1.1c.45 0 .88-.12 1.29-.35s.7-.54.88-.91v-1.73h-1.13c-1.77 0-2.66.52-2.66 1.55 0 .45.15.81.45 1.06s.69.38 1.17.38zM843.51 209.66v2.05h1.58v1.12h-1.58v5.25c0 .34.07.59.21.76.14.17.38.25.72.25.17 0 .4-.03.69-.09v1.17c-.38.1-.75.16-1.11.16-.65 0-1.13-.2-1.46-.59s-.49-.95-.49-1.66v-5.24h-1.54v-1.12h1.54v-2.05h1.44zM855.82 217.17c0-.43-.12-.77-.36-1.02s-.64-.49-1.21-.7-1.06-.43-1.47-.64-.76-.45-1.06-.73-.52-.59-.69-.96-.25-.81-.25-1.32c0-.88.28-1.6.84-2.16s1.31-.89 2.24-.98v-1.67h1.25v1.7c.92.13 1.64.51 2.16 1.15s.78 1.46.78 2.48h-2.26c0-.62-.13-1.09-.39-1.4s-.6-.46-1.04-.46c-.43 0-.76.12-.99.36s-.35.58-.35 1c0 .4.11.71.34.95s.66.48 1.28.73 1.13.49 1.54.71.74.47 1.02.75.49.6.63.95.22.77.22 1.25c0 .89-.28 1.6-.83 2.16s-1.31.88-2.28.98v1.55h-1.24v-1.55c-1.07-.11-1.89-.49-2.48-1.14s-.88-1.5-.88-2.57h2.26c0 .62.15 1.09.44 1.43s.72.5 1.27.5c.46 0 .82-.12 1.09-.36s.42-.58.42-.99zM864.88 215.61c-.59.58-1.28.87-2.06.87-1 0-1.81-.34-2.41-1.04s-.91-1.62-.91-2.79c0-.75.16-1.43.49-2.05s.78-1.11 1.36-1.45 1.24-.52 1.97-.52c.75 0 1.42.19 2 .56s1.04.91 1.36 1.62.49 1.51.49 2.41v.84c0 1.9-.47 3.39-1.41 4.47s-2.28 1.66-4.01 1.73l-.55.01v-1.88l.5-.01c1.96-.09 3.02-1.01 3.18-2.77zm-1.51-.86c.36 0 .68-.09.94-.28s.46-.41.6-.68v-.93c0-.77-.15-1.36-.44-1.78s-.68-.63-1.17-.63c-.45 0-.83.21-1.12.62s-.44.93-.44 1.56c0 .62.14 1.13.43 1.53s.69.59 1.2.59zM868.99 219.05c0-.36.12-.65.36-.88s.55-.34.91-.34c.37 0 .68.11.92.34s.36.52.36.88c0 .35-.12.64-.36.86s-.55.33-.92.33-.67-.11-.91-.33-.36-.5-.36-.86zM878.71 215.61c-.59.58-1.28.87-2.06.87-1 0-1.81-.34-2.41-1.04s-.91-1.62-.91-2.79c0-.75.16-1.43.49-2.05s.78-1.11 1.36-1.45 1.24-.52 1.97-.52c.75 0 1.42.19 2 .56s1.04.91 1.36 1.62.49 1.51.49 2.41v.84c0 1.9-.47 3.39-1.41 4.47s-2.28 1.66-4.01 1.73l-.55.01v-1.88l.5-.01c1.95-.09 3.02-1.01 3.18-2.77zm-1.51-.86c.36 0 .68-.09.94-.28s.46-.41.6-.68v-.93c0-.77-.15-1.36-.44-1.78s-.68-.63-1.17-.63c-.45 0-.83.21-1.12.62s-.44.93-.44 1.56c0 .62.14 1.13.43 1.53s.68.59 1.2.59zM887.89 215.61c-.59.58-1.28.87-2.06.87-1 0-1.81-.34-2.41-1.04s-.91-1.62-.91-2.79c0-.75.16-1.43.49-2.05s.78-1.11 1.36-1.45 1.24-.52 1.97-.52c.75 0 1.42.19 2 .56s1.04.91 1.36 1.62.49 1.51.49 2.41v.84c0 1.9-.47 3.39-1.41 4.47s-2.28 1.66-4.01 1.73l-.55.01v-1.88l.5-.01c1.95-.09 3.02-1.01 3.18-2.77zm-1.51-.86c.36 0 .68-.09.94-.28s.46-.41.6-.68v-.93c0-.77-.15-1.36-.44-1.78s-.68-.63-1.17-.63c-.45 0-.83.21-1.12.62s-.44.93-.44 1.56c0 .62.14 1.13.43 1.53s.68.59 1.2.59zM892.59 221.14h-1.68l4.19-12.35h1.68l-4.19 12.35zM899.97 211.71l.07.95c.6-.73 1.41-1.1 2.43-1.1 1.09 0 1.84.43 2.24 1.29.59-.86 1.44-1.29 2.54-1.29.92 0 1.6.27 2.05.8s.67 1.34.67 2.41v5.4h-2.27v-5.39c0-.48-.09-.83-.28-1.05s-.52-.33-.99-.33c-.68 0-1.15.32-1.41.97l.01 5.8h-2.26v-5.38c0-.49-.1-.84-.29-1.06s-.52-.33-.98-.33c-.64 0-1.1.27-1.39.8v5.98h-2.26v-8.45h2.12zM911.36 215.86c0-.84.16-1.59.48-2.24s.79-1.16 1.39-1.52 1.31-.54 2.11-.54c1.14 0 2.07.35 2.79 1.05s1.12 1.65 1.21 2.84l.02.58c0 1.3-.36 2.34-1.09 3.12s-1.7 1.18-2.91 1.18-2.19-.39-2.92-1.17-1.09-1.84-1.09-3.19v-.11zm2.25.16c0 .8.15 1.42.45 1.84.3.43.73.64 1.3.64.55 0 .97-.21 1.28-.63s.46-1.09.46-2.01c0-.79-.15-1.4-.46-1.83-.31-.43-.74-.65-1.3-.65-.55 0-.98.22-1.28.65-.3.42-.45 1.08-.45 1.99zM922.83 211.71l.07.98c.6-.75 1.41-1.13 2.43-1.13.9 0 1.56.26 2 .79s.66 1.31.67 2.36v5.46h-2.26v-5.41c0-.48-.1-.83-.31-1.04s-.55-.32-1.04-.32c-.64 0-1.11.27-1.43.81v5.96h-2.26v-8.45h2.13zM932.42 209.63v2.08h1.45v1.66h-1.45v4.22c0 .31.06.54.18.67s.35.2.69.2c.25 0 .47-.02.66-.05v1.71c-.44.14-.9.2-1.37.2-1.58 0-2.39-.8-2.42-2.4v-4.55h-1.23v-1.66h1.23v-2.08h2.26zM937.32 212.63c.6-.72 1.35-1.08 2.26-1.08 1.83 0 2.76 1.07 2.79 3.2v5.41h-2.26v-5.35c0-.48-.1-.84-.31-1.07s-.55-.35-1.04-.35c-.66 0-1.14.25-1.44.77v6.01h-2.26v-12h2.26v4.46z"/></g></svg>