<svg id="Layer_1" xmlns="https://www.w3.org/2000/svg" viewBox="0 0 970 250"><style>.st0{fill:#fff}</style><path class="st0" d="M351.22 33.19h-9.31v25.68h-5.15V33.19h-9.23v-4.18h23.69v4.18zM359.56 39.1c1.63-1.89 3.68-2.83 6.17-2.83 4.73 0 7.13 2.7 7.2 8.1v14.5h-4.98V44.55c0-1.53-.33-2.61-1-3.25s-1.64-.95-2.92-.95c-2 0-3.49.89-4.47 2.67v15.85h-4.98v-31.5h4.98V39.1zM387.74 59.28c-3.16 0-5.72-.99-7.68-2.98s-2.94-4.64-2.94-7.95v-.62c0-2.21.43-4.19 1.28-5.94.85-1.74 2.05-3.1 3.6-4.07s3.27-1.46 5.17-1.46c3.02 0 5.36.96 7 2.89s2.47 4.66 2.47 8.18v2.01h-14.5c.15 1.83.76 3.28 1.84 4.35 1.07 1.07 2.42 1.6 4.05 1.6 2.28 0 4.14-.92 5.58-2.77l2.69 2.56c-.89 1.33-2.08 2.35-3.56 3.09s-3.15 1.11-5 1.11zm-.59-19.02c-1.37 0-2.47.48-3.31 1.44-.84.96-1.38 2.29-1.61 4h9.5v-.37c-.11-1.67-.55-2.93-1.33-3.78s-1.87-1.29-3.25-1.29zM412.12 41.23c-.66-.11-1.33-.16-2.03-.16-2.28 0-3.82.88-4.61 2.62v15.18h-4.98V36.68h4.76l.12 2.48c1.2-1.93 2.87-2.89 5-2.89.71 0 1.3.1 1.76.29l-.02 4.67zM425.04 59.28c-3.16 0-5.72-.99-7.68-2.98s-2.94-4.64-2.94-7.95v-.62c0-2.21.43-4.19 1.28-5.94.85-1.74 2.05-3.1 3.6-4.07s3.27-1.46 5.17-1.46c3.02 0 5.36.96 7 2.89s2.47 4.66 2.47 8.18v2.01h-14.5c.15 1.83.76 3.28 1.84 4.35 1.07 1.07 2.42 1.6 4.05 1.6 2.28 0 4.14-.92 5.58-2.77l2.69 2.56c-.89 1.33-2.08 2.35-3.56 3.09s-3.15 1.11-5 1.11zm-.59-19.02c-1.37 0-2.47.48-3.31 1.44-.84.96-1.38 2.29-1.61 4h9.5v-.37c-.11-1.67-.55-2.93-1.33-3.78s-1.87-1.29-3.25-1.29zM467.76 52l3.53-15.32h4.86l-6.05 22.19H466l-4.76-15.24-4.68 15.24h-4.1l-6.07-22.19h4.86l3.59 15.16 4.55-15.16h3.75L467.76 52zM489.25 59.28c-3.16 0-5.72-.99-7.68-2.98s-2.94-4.64-2.94-7.95v-.62c0-2.21.43-4.19 1.28-5.94.85-1.74 2.05-3.1 3.6-4.07s3.27-1.46 5.17-1.46c3.02 0 5.36.96 7 2.89 1.65 1.93 2.47 4.66 2.47 8.18v2.01h-14.5c.15 1.83.76 3.28 1.84 4.35 1.07 1.07 2.42 1.6 4.05 1.6 2.28 0 4.14-.92 5.58-2.77l2.69 2.56c-.89 1.33-2.08 2.35-3.56 3.09-1.49.74-3.15 1.11-5 1.11zm-.59-19.02c-1.37 0-2.47.48-3.31 1.44-.84.96-1.38 2.29-1.61 4h9.49v-.37c-.11-1.67-.55-2.93-1.33-3.78s-1.86-1.29-3.24-1.29zM513.64 41.23c-.66-.11-1.33-.16-2.03-.16-2.28 0-3.82.88-4.61 2.62v15.18h-4.98V36.68h4.76l.12 2.48c1.2-1.93 2.87-2.89 5-2.89.71 0 1.3.1 1.76.29l-.02 4.67zM526.56 59.28c-3.16 0-5.72-.99-7.68-2.98s-2.94-4.64-2.94-7.95v-.62c0-2.21.43-4.19 1.28-5.94.85-1.74 2.05-3.1 3.6-4.07s3.27-1.46 5.17-1.46c3.02 0 5.36.96 7 2.89 1.65 1.93 2.47 4.66 2.47 8.18v2.01h-14.5c.15 1.83.76 3.28 1.84 4.35 1.07 1.07 2.42 1.6 4.05 1.6 2.28 0 4.14-.92 5.58-2.77l2.69 2.56c-.89 1.33-2.07 2.35-3.56 3.09-1.49.74-3.16 1.11-5 1.11zm-.6-19.02c-1.37 0-2.47.48-3.31 1.44-.84.96-1.38 2.29-1.61 4h9.5v-.37c-.11-1.67-.55-2.93-1.33-3.78s-1.87-1.29-3.25-1.29zM241.54 131.71c0-.77.24-1.4.73-1.91s1.18-.76 2.08-.76 1.6.25 2.09.76.74 1.14.74 1.91c0 .75-.25 1.38-.74 1.88s-1.19.75-2.09.75-1.6-.25-2.08-.75c-.49-.5-.73-1.13-.73-1.88zm5.29 27.96h-4.98v-22.19h4.98v22.19zM251.32 148.41c0-3.42.79-6.16 2.38-8.23 1.59-2.07 3.71-3.11 6.38-3.11 2.35 0 4.25.82 5.7 2.46v-11.36h4.98v31.5h-4.51l-.25-2.3c-1.49 1.8-3.48 2.71-5.97 2.71-2.6 0-4.7-1.05-6.31-3.14s-2.4-4.94-2.4-8.53zm4.99.43c0 2.26.43 4.02 1.3 5.28.87 1.27 2.1 1.9 3.7 1.9 2.04 0 3.53-.91 4.47-2.73v-9.47c-.92-1.78-2.39-2.67-4.43-2.67-1.61 0-2.86.64-3.73 1.92-.88 1.27-1.31 3.2-1.31 5.77zM285.74 160.08c-3.16 0-5.72-1-7.68-2.98-1.96-1.99-2.94-4.64-2.94-7.95v-.62c0-2.21.43-4.19 1.28-5.94.85-1.74 2.05-3.1 3.6-4.07s3.27-1.46 5.17-1.46c3.02 0 5.36.96 7 2.89s2.47 4.66 2.47 8.18v2.01h-14.5c.15 1.83.76 3.28 1.84 4.35 1.07 1.07 2.42 1.6 4.05 1.6 2.28 0 4.14-.92 5.58-2.77l2.69 2.56c-.89 1.33-2.08 2.35-3.56 3.09-1.49.74-3.16 1.11-5 1.11zm-.6-19.02c-1.37 0-2.47.48-3.31 1.44-.84.96-1.38 2.29-1.61 4h9.5v-.37c-.11-1.67-.55-2.93-1.33-3.78-.79-.86-1.87-1.29-3.25-1.29zM303.13 137.48l.14 2.56c1.64-1.98 3.79-2.97 6.46-2.97 4.62 0 6.97 2.65 7.05 7.94v14.66h-4.98v-14.38c0-1.41-.3-2.45-.91-3.13-.61-.68-1.6-1.02-2.98-1.02-2.01 0-3.51.91-4.49 2.73v15.79h-4.98v-22.19h4.69zM328.1 132.08v5.39h3.92v3.69h-3.92v12.39c0 .85.17 1.46.5 1.83.33.38.93.56 1.79.56.57 0 1.16-.07 1.74-.21v3.86c-1.13.31-2.23.47-3.28.47-3.83 0-5.74-2.11-5.74-6.34v-12.57h-3.65v-3.69h3.65v-5.39h4.99zM335.84 131.71c0-.77.24-1.4.73-1.91s1.18-.76 2.08-.76 1.6.25 2.09.76.74 1.14.74 1.91c0 .75-.25 1.38-.74 1.88s-1.19.75-2.09.75-1.6-.25-2.08-.75c-.49-.5-.73-1.13-.73-1.88zm5.29 27.96h-4.98v-22.19h4.98v22.19zM352.8 132.08v5.39h3.92v3.69h-3.92v12.39c0 .85.17 1.46.5 1.83.33.38.93.56 1.79.56.57 0 1.16-.07 1.74-.21v3.86c-1.13.31-2.23.47-3.28.47-3.83 0-5.74-2.11-5.74-6.34v-12.57h-3.65v-3.69h3.65v-5.39h4.99zM368.28 152.53l4.51-15.05h5.31l-8.82 25.55c-1.35 3.73-3.65 5.6-6.89 5.6-.72 0-1.52-.12-2.4-.37v-3.87l.94.06c1.26 0 2.2-.23 2.84-.69.63-.46 1.14-1.23 1.51-2.31l.72-1.91-7.79-22.07h5.37l4.7 15.06zM397.67 132.08v5.39h3.92v3.69h-3.92v12.39c0 .85.17 1.46.5 1.83.33.38.93.56 1.79.56.57 0 1.16-.07 1.74-.21v3.86c-1.13.31-2.23.47-3.28.47-3.83 0-5.74-2.11-5.74-6.34v-12.57h-3.65v-3.69h3.65v-5.39h4.99zM410.3 139.9c1.63-1.89 3.68-2.83 6.17-2.83 4.73 0 7.13 2.7 7.2 8.1v14.5h-4.98v-14.31c0-1.53-.33-2.61-1-3.25-.66-.63-1.64-.95-2.92-.95-2 0-3.49.89-4.47 2.67v15.85h-4.98v-31.5h4.98v11.72zM438.48 160.08c-3.16 0-5.72-1-7.68-2.98-1.96-1.99-2.94-4.64-2.94-7.95v-.62c0-2.21.43-4.19 1.28-5.94.85-1.74 2.05-3.1 3.6-4.07s3.27-1.46 5.17-1.46c3.02 0 5.36.96 7 2.89s2.47 4.66 2.47 8.18v2.01h-14.5c.15 1.83.76 3.28 1.84 4.35 1.07 1.07 2.42 1.6 4.05 1.6 2.28 0 4.14-.92 5.58-2.77l2.69 2.56c-.89 1.33-2.08 2.35-3.56 3.09-1.49.74-3.16 1.11-5 1.11zm-.6-19.02c-1.37 0-2.47.48-3.31 1.44-.84.96-1.38 2.29-1.61 4h9.5v-.37c-.11-1.67-.55-2.93-1.33-3.78-.79-.86-1.87-1.29-3.25-1.29zM453 159.67v-18.5h-3.38v-3.69H453v-2.03c0-2.46.68-4.36 2.05-5.7s3.28-2.01 5.74-2.01c.88 0 1.8.12 2.79.37l-.12 3.9c-.55-.11-1.18-.16-1.91-.16-2.38 0-3.57 1.22-3.57 3.67v1.97h4.51v3.69h-4.51v18.5H453zM472.38 132.08v5.39h3.92v3.69h-3.92v12.39c0 .85.17 1.46.5 1.83.33.38.93.56 1.79.56.57 0 1.16-.07 1.74-.21v3.86c-1.13.31-2.23.47-3.28.47-3.83 0-5.74-2.11-5.74-6.34v-12.57h-3.65v-3.69h3.65v-5.39h4.99zM498.38 153.35l4.7-15.87h5.15l-7.69 22.19h-4.33l-7.75-22.19h5.17l4.75 15.87zM511.34 131.71c0-.77.24-1.4.73-1.91.48-.51 1.18-.76 2.08-.76s1.6.25 2.09.76.74 1.14.74 1.91c0 .75-.25 1.38-.74 1.88s-1.19.75-2.09.75-1.6-.25-2.08-.75c-.49-.5-.73-1.13-.73-1.88zm5.29 27.96h-4.98v-22.19h4.98v22.19zM531.17 156.1c1.24 0 2.28-.36 3.1-1.09s1.26-1.62 1.31-2.69h4.7c-.05 1.38-.49 2.67-1.29 3.87-.81 1.2-1.9 2.14-3.28 2.84s-2.87 1.05-4.47 1.05c-3.1 0-5.56-1-7.38-3.01s-2.73-4.79-2.73-8.33v-.51c0-3.38.9-6.08 2.71-8.11 1.8-2.03 4.27-3.05 7.38-3.05 2.64 0 4.79.77 6.45 2.31 1.66 1.54 2.53 3.56 2.62 6.06h-4.7c-.05-1.27-.49-2.32-1.3-3.14-.81-.82-1.85-1.23-3.11-1.23-1.61 0-2.86.58-3.73 1.75-.88 1.17-1.32 2.94-1.33 5.32v.8c0 2.41.43 4.2 1.3 5.38.86 1.19 2.11 1.78 3.75 1.78zM550.29 132.08v5.39h3.92v3.69h-3.92v12.39c0 .85.17 1.46.5 1.83.33.38.93.56 1.79.56.57 0 1.15-.07 1.74-.21v3.86c-1.13.31-2.23.47-3.28.47-3.83 0-5.74-2.11-5.74-6.34v-12.57h-3.65v-3.69h3.65v-5.39h4.99zM558.02 131.71c0-.77.24-1.4.73-1.91.48-.51 1.18-.76 2.08-.76s1.6.25 2.09.76.74 1.14.74 1.91c0 .75-.25 1.38-.74 1.88s-1.19.75-2.09.75-1.6-.25-2.08-.75c-.49-.5-.73-1.13-.73-1.88zm5.29 27.96h-4.98v-22.19h4.98v22.19zM573.42 137.48l.14 2.32c1.56-1.82 3.69-2.73 6.4-2.73 2.97 0 5 1.13 6.09 3.4 1.61-2.27 3.88-3.4 6.81-3.4 2.45 0 4.27.68 5.46 2.03 1.2 1.35 1.81 3.35 1.84 5.99v14.58h-4.98v-14.44c0-1.41-.31-2.44-.92-3.1s-1.63-.98-3.06-.98c-1.13 0-2.06.3-2.78.91-.72.61-1.22 1.41-1.51 2.39l.02 15.22h-4.98v-14.6c-.07-2.61-1.4-3.92-4-3.92-2 0-3.41.81-4.24 2.44v16.08h-4.98v-22.19h4.69zM617.72 153.64c0-.89-.37-1.57-1.1-2.03-.73-.46-1.95-.88-3.64-1.23s-3.11-.81-4.24-1.35c-2.49-1.2-3.73-2.95-3.73-5.23 0-1.91.81-3.51 2.42-4.8s3.66-1.93 6.15-1.93c2.65 0 4.79.66 6.43 1.97 1.63 1.31 2.45 3.01 2.45 5.11h-4.98c0-.96-.36-1.75-1.07-2.39-.71-.64-1.65-.95-2.83-.95-1.09 0-1.99.25-2.68.76-.69.51-1.04 1.18-1.04 2.03 0 .77.32 1.36.96 1.78s1.94.85 3.9 1.28c1.96.43 3.49.94 4.6 1.54 1.11.59 1.94 1.31 2.48 2.14.54.83.81 1.85.81 3.04 0 2-.83 3.61-2.48 4.85-1.65 1.24-3.82 1.86-6.5 1.86-1.82 0-3.44-.33-4.86-.98s-2.53-1.56-3.32-2.71-1.19-2.39-1.19-3.71h4.84c.07 1.18.51 2.08 1.33 2.72.82.64 1.91.95 3.26.95 1.31 0 2.31-.25 2.99-.75.7-.51 1.04-1.17 1.04-1.97zM358.37 182.11c0-.77.24-1.4.73-1.91s1.18-.76 2.08-.76 1.6.25 2.09.76.74 1.14.74 1.91c0 .75-.25 1.38-.74 1.88s-1.19.75-2.09.75-1.6-.25-2.08-.75-.73-1.12-.73-1.88zm5.29 27.96h-4.98v-22.19h4.98v22.19zM373.71 187.88l.14 2.56c1.64-1.98 3.79-2.97 6.46-2.97 4.62 0 6.97 2.65 7.05 7.94v14.66h-4.98v-14.38c0-1.41-.3-2.45-.91-3.13-.61-.68-1.6-1.02-2.98-1.02-2.01 0-3.51.91-4.49 2.73v15.79h-4.98v-22.19h4.69zM422.67 210.07h-20.08v-3.42l9.95-10.85c1.44-1.6 2.46-2.94 3.07-4.01.61-1.07.91-2.15.91-3.23 0-1.42-.4-2.57-1.2-3.45-.8-.88-1.88-1.31-3.23-1.31-1.61 0-2.86.49-3.75 1.48s-1.33 2.33-1.33 4.04h-4.98c0-1.82.41-3.46 1.24-4.91.83-1.46 2.01-2.59 3.55-3.39 1.54-.81 3.31-1.21 5.32-1.21 2.9 0 5.18.73 6.86 2.18 1.67 1.46 2.51 3.47 2.51 6.04 0 1.49-.42 3.05-1.26 4.69-.84 1.63-2.22 3.49-4.13 5.57l-7.3 7.81h13.86v3.97zM445.92 197.49c0 4.29-.8 7.53-2.41 9.71-1.61 2.18-4.05 3.27-7.33 3.27-3.23 0-5.66-1.06-7.29-3.19s-2.47-5.27-2.51-9.44v-5.17c0-4.29.8-7.51 2.41-9.66s4.06-3.22 7.35-3.22c3.27 0 5.7 1.05 7.31 3.14 1.61 2.09 2.43 5.22 2.47 9.39v5.17zm-4.98-5.57c0-2.8-.38-4.86-1.15-6.16-.77-1.31-1.98-1.96-3.65-1.96-1.63 0-2.82.62-3.59 1.86-.77 1.24-1.17 3.17-1.21 5.79v6.77c0 2.79.39 4.87 1.17 6.23s2 2.05 3.67 2.05c1.6 0 2.78-.63 3.55-1.9.77-1.26 1.17-3.24 1.21-5.94v-6.74zM463.82 210.07h-4.96v-23.99l-7.32 2.5v-4.18l11.65-4.29h.64v29.96zM488.33 197.58c-1.67 1.76-3.62 2.65-5.85 2.65-2.62 0-4.72-.92-6.28-2.76-1.56-1.84-2.34-4.25-2.34-7.25 0-1.97.4-3.75 1.19-5.35s1.92-2.84 3.38-3.73 3.16-1.33 5.09-1.33c3.01 0 5.39 1.12 7.16 3.36s2.65 5.24 2.65 9v1.39c0 5.39-1.22 9.5-3.65 12.33s-6.06 4.27-10.89 4.31h-.59v-4.12h.72c2.94-.04 5.2-.75 6.77-2.12 1.57-1.39 2.45-3.51 2.64-6.38zm-4.8-1.25c1 0 1.93-.29 2.81-.86.88-.57 1.55-1.37 2.03-2.38v-1.95c0-2.2-.45-3.97-1.35-5.31s-2.07-2.01-3.51-2.01-2.58.59-3.43 1.77c-.86 1.18-1.28 2.68-1.28 4.48 0 1.87.43 3.38 1.29 4.53s2.01 1.73 3.44 1.73zM501.5 204.82c.93 0 1.65.26 2.15.79.51.53.76 1.19.76 1.98 0 .78-.25 1.43-.76 1.94s-1.22.77-2.15.77c-.89 0-1.59-.25-2.11-.76s-.78-1.16-.78-1.95.25-1.45.76-1.98c.5-.53 1.21-.79 2.13-.79z"/><g><path class="st0" d="M510.69 197.6l-3.68-1.04.69-2.12 3.64 1.46-.23-4.08h2.3l-.23 4.17 3.55-1.44.69 2.14-3.75 1.04 2.46 3.12-1.86 1.32-2.13-3.42-2.11 3.3-1.86-1.27 2.52-3.18z"/></g><g><path class="st0" d="M340.93 90.02h3.91c1.86 0 3.24-.47 4.14-1.4s1.35-2.17 1.35-3.71c0-1.49-.44-2.65-1.33-3.48s-2.11-1.24-3.67-1.24c-1.41 0-2.58.38-3.53 1.16s-1.42 1.77-1.42 3.01h-7.34c0-1.93.52-3.66 1.56-5.19s2.5-2.73 4.37-3.59 3.93-1.29 6.18-1.29c3.91 0 6.97.94 9.19 2.81s3.33 4.45 3.33 7.73c0 1.69-.52 3.25-1.55 4.67s-2.39 2.51-4.06 3.28c2.08.75 3.63 1.86 4.66 3.35s1.54 3.25 1.54 5.28c0 3.28-1.2 5.92-3.59 7.9s-5.56 2.97-9.51 2.97c-3.69 0-6.71-.97-9.05-2.92s-3.52-4.52-3.52-7.72h7.34c0 1.39.52 2.52 1.56 3.4s2.32 1.32 3.85 1.32c1.74 0 3.11-.46 4.1-1.38s1.49-2.15 1.49-3.67c0-3.69-2.03-5.54-6.09-5.54h-3.88v-5.75zM383.43 84.28l.23 3.07c1.95-2.39 4.58-3.58 7.9-3.58 3.54 0 5.97 1.4 7.29 4.19 1.93-2.79 4.68-4.19 8.25-4.19 2.98 0 5.2.87 6.65 2.6s2.18 4.35 2.18 7.83v17.54h-7.36v-17.5c0-1.56-.3-2.7-.91-3.42s-1.68-1.08-3.22-1.08c-2.2 0-3.72 1.05-4.57 3.15l.03 18.87h-7.34v-17.5c0-1.59-.31-2.74-.94-3.45s-1.69-1.07-3.2-1.07c-2.08 0-3.59.86-4.52 2.59v19.42h-7.34V84.28h6.87zM421.52 77.17c0-1.1.37-2.01 1.1-2.72s1.74-1.07 3.01-1.07c1.25 0 2.25.36 3 1.07s1.12 1.62 1.12 2.72c0 1.12-.38 2.03-1.13 2.74s-1.75 1.07-2.98 1.07-2.23-.36-2.98-1.07-1.14-1.62-1.14-2.74zm7.8 34.59h-7.36V84.28h7.36v27.48zM443.1 111.76h-7.36v-39h7.36v39zM456.89 111.76h-7.36v-39h7.36v39zM462.88 77.17c0-1.1.37-2.01 1.1-2.72s1.74-1.07 3.01-1.07c1.25 0 2.25.36 3 1.07s1.12 1.62 1.12 2.72c0 1.12-.38 2.03-1.13 2.74s-1.75 1.07-2.98 1.07-2.23-.36-2.98-1.07-1.14-1.62-1.14-2.74zm7.8 34.59h-7.36V84.28h7.36v27.48zM475.58 97.77c0-2.73.52-5.15 1.57-7.29s2.56-3.78 4.53-4.95 4.26-1.75 6.87-1.75c3.71 0 6.73 1.13 9.08 3.4s3.65 5.35 3.92 9.24l.05 1.88c0 4.21-1.18 7.6-3.53 10.14s-5.51 3.82-9.47 3.82-7.12-1.27-9.48-3.81-3.54-5.99-3.54-10.36v-.32zm7.34.52c0 2.61.49 4.61 1.47 5.99s2.39 2.07 4.21 2.07c1.78 0 3.17-.68 4.16-2.05 1-1.37 1.5-3.55 1.5-6.55 0-2.56-.5-4.54-1.5-5.95-1-1.41-2.4-2.11-4.21-2.11-1.79 0-3.18.7-4.16 2.1-.98 1.4-1.47 3.56-1.47 6.5zM512.88 84.28l.23 3.17c1.96-2.45 4.6-3.68 7.9-3.68 2.91 0 5.08.85 6.5 2.56s2.15 4.27 2.18 7.67v17.75h-7.34V94.19c0-1.56-.34-2.69-1.02-3.39s-1.8-1.05-3.38-1.05c-2.07 0-3.61.88-4.65 2.64v19.37h-7.34V84.28h6.92z"/></g></svg>