<svg id="Layer_1" xmlns="http://www.w3.org/2000/svg" viewBox="0 0 970 250"><style>.st0{fill:#e82d8a}.st1{fill:#fff}.st2{font-family:&apos;Roboto-Medium&apos;}.st3{font-size:21.1888px}</style><g id="Button_4_"><path class="st0" d="M542.05 220.68H355.4c-14.54 0-26.33-11.79-26.33-26.33s11.79-26.33 26.33-26.33h186.65c14.54 0 26.33 11.79 26.33 26.33s-11.79 26.33-26.33 26.33z"/><text transform="translate(360.18 200.749)" class="st1 st2 st3">Click to learn more</text></g><path class="st0" d="M542.05 220.68H355.4c-14.54 0-26.33-11.79-26.33-26.33s11.79-26.33 26.33-26.33h186.65c14.54 0 26.33 11.79 26.33 26.33s-11.79 26.33-26.33 26.33z"/><path class="st1" d="M373.36 195.84c-.15 1.61-.74 2.86-1.78 3.76-1.03.9-2.41 1.35-4.13 1.35-1.2 0-2.26-.28-3.17-.85s-1.62-1.38-2.12-2.43c-.5-1.05-.75-2.27-.78-3.65v-1.41c0-1.42.25-2.67.75-3.76s1.23-1.92 2.17-2.5c.94-.59 2.03-.88 3.26-.88 1.66 0 3 .45 4.01 1.35 1.01.9 1.6 2.17 1.77 3.82h-2.61c-.12-1.08-.44-1.86-.95-2.34s-1.25-.72-2.23-.72c-1.14 0-2.01.42-2.62 1.25s-.92 2.05-.94 3.66v1.34c0 1.63.29 2.87.87 3.73s1.44 1.28 2.56 1.28c1.03 0 1.8-.23 2.32-.69s.84-1.23.98-2.31h2.64zM378.13 200.75h-2.51v-15.89h2.51v15.89zM380.87 186.65c0-.39.12-.71.37-.96.25-.26.6-.38 1.05-.38s.81.13 1.05.38c.25.25.37.58.37.96s-.12.69-.37.95c-.25.25-.6.38-1.05.38s-.81-.13-1.05-.38c-.24-.26-.37-.57-.37-.95zm2.67 14.1h-2.51v-11.19h2.51v11.19zM390.88 198.95c.63 0 1.15-.18 1.56-.55.41-.37.63-.82.66-1.36h2.37c-.03.7-.25 1.35-.65 1.95-.41.6-.96 1.08-1.66 1.43-.7.35-1.45.53-2.26.53-1.57 0-2.81-.51-3.72-1.52-.92-1.01-1.38-2.41-1.38-4.2v-.26c0-1.7.46-3.07 1.37-4.09.91-1.02 2.15-1.54 3.72-1.54 1.33 0 2.42.39 3.25 1.16.84.78 1.28 1.79 1.32 3.06h-2.37c-.03-.64-.25-1.17-.66-1.58s-.93-.62-1.57-.62c-.81 0-1.44.29-1.88.88s-.67 1.48-.67 2.68v.4c0 1.21.22 2.12.66 2.72.45.61 1.08.91 1.91.91zM401.01 195.95l-1.12 1.15v3.65h-2.51v-15.89h2.51v9.17l.79-.98 3.09-3.49h3.02l-4.16 4.67 4.6 6.53h-2.91l-3.31-4.81zM416.86 186.83v2.72h1.98v1.86h-1.98v6.25c0 .43.08.74.25.93.17.19.47.28.91.28.29 0 .58-.03.88-.1v1.95c-.57.16-1.12.24-1.66.24-1.93 0-2.9-1.07-2.9-3.2v-6.34h-1.84v-1.86h1.84v-2.72l2.52-.01zM419.97 195.05c0-1.1.22-2.08.65-2.96s1.04-1.55 1.83-2.03c.79-.47 1.69-.71 2.71-.71 1.51 0 2.74.49 3.68 1.46s1.45 2.26 1.53 3.87l.01.59c0 1.1-.21 2.09-.64 2.96-.42.87-1.03 1.54-1.82 2.02s-1.7.71-2.74.71c-1.58 0-2.84-.53-3.79-1.58s-1.42-2.45-1.42-4.21v-.12zm2.51.22c0 1.15.24 2.05.71 2.71.48.65 1.14.98 1.99.98.85 0 1.51-.33 1.98-.99s.71-1.63.71-2.91c0-1.13-.24-2.03-.73-2.69s-1.15-.99-1.98-.99c-.82 0-1.47.33-1.96.98s-.72 1.61-.72 2.91zM440.46 200.75h-2.51v-15.89h2.51v15.89zM448.12 200.96c-1.59 0-2.88-.5-3.87-1.51-.99-1-1.49-2.34-1.49-4.01v-.31c0-1.12.22-2.12.65-3s1.04-1.56 1.82-2.05 1.65-.73 2.61-.73c1.52 0 2.7.49 3.53 1.46s1.25 2.35 1.25 4.13v1.01h-7.31c.08.92.38 1.66.93 2.19.54.54 1.22.81 2.04.81 1.15 0 2.09-.47 2.81-1.4l1.36 1.29c-.45.67-1.05 1.19-1.79 1.56s-1.61.56-2.54.56zm-.3-9.59c-.69 0-1.25.24-1.67.72s-.7 1.16-.81 2.02h4.79v-.19c-.06-.84-.28-1.48-.67-1.91-.4-.43-.94-.64-1.64-.64zM461.25 200.75c-.11-.21-.21-.56-.29-1.04-.8.83-1.78 1.25-2.94 1.25-1.12 0-2.04-.32-2.75-.96s-1.07-1.43-1.07-2.38c0-1.19.44-2.11 1.33-2.75.89-.64 2.15-.96 3.8-.96h1.54v-.73c0-.58-.16-1.04-.49-1.39s-.82-.52-1.48-.52c-.57 0-1.04.14-1.41.43s-.55.65-.55 1.09h-2.51c0-.61.2-1.19.61-1.72s.96-.95 1.66-1.26c.7-.3 1.48-.46 2.34-.46 1.31 0 2.36.33 3.13.99.78.66 1.18 1.58 1.2 2.78v5.05c0 1.01.14 1.81.42 2.41v.18l-2.54-.01zm-2.76-1.81c.5 0 .96-.12 1.4-.36s.77-.57.99-.97v-2.11h-1.36c-.93 0-1.63.16-2.1.49-.47.32-.7.78-.7 1.38 0 .48.16.87.48 1.15.32.27.75.42 1.29.42zM471.89 191.85c-.33-.06-.67-.08-1.02-.08-1.15 0-1.93.44-2.33 1.32v7.66h-2.51v-11.19h2.4l.06 1.25c.61-.97 1.45-1.46 2.52-1.46.36 0 .66.05.89.14l-.01 2.36zM475.81 189.55l.07 1.29c.83-1 1.91-1.5 3.26-1.5 2.33 0 3.52 1.33 3.56 4v7.4h-2.51v-7.25c0-.71-.15-1.24-.46-1.58s-.81-.51-1.5-.51c-1.01 0-1.77.46-2.27 1.38v7.97h-2.51v-11.19l2.36-.01zM492.9 189.55l.07 1.17c.79-.92 1.86-1.38 3.23-1.38 1.5 0 2.52.57 3.07 1.72.81-1.15 1.96-1.72 3.43-1.72 1.24 0 2.15.34 2.76 1.02s.91 1.69.93 3.02v7.36h-2.51v-7.28c0-.71-.16-1.23-.47-1.56s-.82-.5-1.54-.5c-.57 0-1.04.15-1.4.46-.36.31-.62.71-.76 1.21l.01 7.68h-2.51v-7.37c-.03-1.32-.71-1.98-2.02-1.98-1.01 0-1.72.41-2.14 1.23v8.11h-2.51v-11.19h2.36zM508.5 195.05c0-1.1.22-2.08.65-2.96s1.04-1.55 1.83-2.03c.79-.47 1.69-.71 2.71-.71 1.51 0 2.74.49 3.68 1.46s1.45 2.26 1.53 3.87l.01.59c0 1.1-.21 2.09-.64 2.96-.42.87-1.03 1.54-1.82 2.02s-1.7.71-2.74.71c-1.58 0-2.84-.53-3.79-1.58s-1.42-2.45-1.42-4.21v-.12zm2.52.22c0 1.15.24 2.05.71 2.71.48.65 1.14.98 1.99.98s1.51-.33 1.98-.99.71-1.63.71-2.91c0-1.13-.24-2.03-.73-2.69s-1.15-.99-1.98-.99c-.82 0-1.47.33-1.96.98s-.72 1.61-.72 2.91zM526.9 191.85c-.33-.06-.67-.08-1.02-.08-1.15 0-1.93.44-2.33 1.32v7.66h-2.51v-11.19h2.4l.06 1.25c.61-.97 1.45-1.46 2.52-1.46.36 0 .66.05.89.14l-.01 2.36zM533.42 200.96c-1.59 0-2.88-.5-3.87-1.51-.99-1-1.49-2.34-1.49-4.01v-.31c0-1.12.22-2.12.65-3 .43-.88 1.04-1.56 1.82-2.05s1.65-.73 2.61-.73c1.52 0 2.7.49 3.53 1.46s1.25 2.35 1.25 4.13v1.01h-7.31c.08.92.38 1.66.93 2.19.54.54 1.22.81 2.04.81 1.15 0 2.09-.47 2.81-1.4l1.36 1.29c-.45.67-1.05 1.19-1.79 1.56s-1.61.56-2.54.56zm-.3-9.59c-.69 0-1.25.24-1.67.72s-.7 1.16-.81 2.02h4.79v-.19c-.06-.84-.28-1.48-.67-1.91-.4-.43-.95-.64-1.64-.64z"/></svg>