<svg id="Layer_1" xmlns="https://www.w3.org/2000/svg" viewBox="0 0 970 250"><style>.st0{fill:#fff}</style><path class="st0" d="M767.46 208.45l-1.77-.53.27-.88 1.77.66-.05-2.01h.9l-.06 2.04 1.74-.64.27.89-1.8.53 1.16 1.59-.73.55-1.09-1.69-1.05 1.65-.73-.53 1.17-1.63zM779 214.21h-5.59v-.78l2.95-3.28c.44-.5.74-.9.91-1.21s.25-.63.25-.96c0-.45-.13-.81-.4-1.1s-.63-.43-1.08-.43c-.54 0-.96.15-1.26.46s-.45.73-.45 1.28h-1.08c0-.79.25-1.42.76-1.9s1.18-.73 2.03-.73c.79 0 1.42.21 1.88.62s.69.97.69 1.66c0 .84-.54 1.84-1.61 3l-2.29 2.48H779v.89zM785.5 210.57c0 1.27-.22 2.21-.65 2.83s-1.11.93-2.03.93c-.91 0-1.58-.3-2.02-.91s-.66-1.5-.68-2.7v-1.45c0-1.25.22-2.19.65-2.79s1.11-.91 2.04-.91c.92 0 1.59.29 2.03.88s.66 1.5.67 2.72l-.01 1.4zm-1.09-1.48c0-.92-.13-1.59-.39-2.01s-.67-.63-1.22-.63-.96.21-1.21.63-.38 1.06-.39 1.93v1.73c0 .92.13 1.6.4 2.04s.67.66 1.22.66c.54 0 .93-.21 1.19-.62s.4-1.07.41-1.96l-.01-1.77zM792.48 214.21h-5.59v-.78l2.95-3.28c.44-.5.74-.9.91-1.21s.25-.63.25-.96c0-.45-.13-.81-.4-1.1s-.63-.43-1.08-.43c-.54 0-.96.15-1.26.46s-.45.73-.45 1.28h-1.08c0-.79.25-1.42.76-1.9s1.18-.73 2.03-.73c.79 0 1.42.21 1.88.62s.69.97.69 1.66c0 .84-.54 1.84-1.61 3l-2.29 2.48h4.28v.89h.01zM798.97 210.57c0 1.27-.22 2.21-.65 2.83s-1.11.93-2.03.93c-.91 0-1.58-.3-2.02-.91s-.66-1.5-.68-2.7v-1.45c0-1.25.22-2.19.65-2.79s1.11-.91 2.04-.91c.92 0 1.59.29 2.03.88s.66 1.5.67 2.72l-.01 1.4zm-1.08-1.48c0-.92-.13-1.59-.39-2.01s-.67-.63-1.22-.63-.96.21-1.21.63-.38 1.06-.39 1.93v1.73c0 .92.13 1.6.4 2.04s.67.66 1.22.66c.54 0 .93-.21 1.19-.62s.4-1.07.41-1.96l-.01-1.77zM804.82 214.21h-1.12v-8.53h1.12v8.53zM806.45 210.99c0-.97.23-1.75.69-2.35s1.06-.89 1.81-.89c.74 0 1.33.25 1.76.76v-3.3h1.08v9h-1l-.05-.68c-.43.53-1.04.8-1.81.8-.73 0-1.33-.3-1.8-.9s-.69-1.39-.69-2.36l.01-.08zm1.08.12c0 .72.15 1.28.45 1.69s.71.61 1.23.61c.69 0 1.19-.31 1.51-.93v-2.91c-.32-.6-.82-.9-1.49-.9-.53 0-.95.21-1.24.62s-.46 1.02-.46 1.82zM816.11 214.33c-.86 0-1.56-.28-2.1-.85s-.81-1.32-.81-2.26v-.2c0-.63.12-1.19.36-1.68s.58-.88 1.01-1.16.9-.42 1.4-.42c.82 0 1.46.27 1.92.81s.69 1.32.69 2.33v.45h-4.29c.02.62.2 1.13.55 1.51s.79.58 1.33.58c.38 0 .71-.08.97-.23s.5-.36.7-.62l.66.52c-.53.81-1.33 1.22-2.39 1.22zm-.14-5.69c-.44 0-.8.16-1.1.48s-.48.76-.55 1.34h3.18v-.08c-.03-.55-.18-.98-.45-1.28s-.62-.46-1.08-.46zM820.86 207.87l.04.8c.48-.61 1.12-.91 1.9-.91 1.34 0 2.02.76 2.03 2.27v4.19h-1.08v-4.2c0-.46-.11-.79-.31-1.01s-.52-.33-.96-.33c-.35 0-.66.09-.93.28s-.47.43-.62.74v4.52h-1.08v-6.34h1.01v-.01zM827.93 206.34v1.54h1.18v.84h-1.18v3.94c0 .25.05.45.16.57s.29.19.54.19c.12 0 .3-.02.52-.07v.87c-.29.08-.56.12-.83.12-.48 0-.85-.15-1.1-.44s-.37-.71-.37-1.25v-3.93h-1.15v-.84h1.15v-1.54h1.08zM830.38 206.19c0-.18.05-.32.16-.45s.27-.18.48-.18.37.06.48.18.16.27.16.45-.05.32-.16.44-.27.18-.48.18-.37-.06-.48-.18-.16-.26-.16-.44zm1.17 8.02h-1.08v-6.34h1.08v6.34zM834.76 206.34v1.54h1.18v.84h-1.18v3.94c0 .25.05.45.16.57s.29.19.54.19c.12 0 .3-.02.52-.07v.87c-.29.08-.56.12-.83.12-.48 0-.85-.15-1.1-.44s-.37-.71-.37-1.25v-3.93h-1.15v-.84h1.15v-1.54h1.08zM839.28 212.62l1.48-4.75h1.16l-2.55 7.32c-.39 1.05-1.02 1.58-1.88 1.58l-.21-.02-.4-.08v-.88l.29.02c.37 0 .65-.07.86-.22s.37-.42.51-.81l.24-.64-2.26-6.27h1.18l1.58 4.75zM850.73 210.44h-3.58v3.77h-1.12v-8.53h5.29v.92h-4.16v2.92h3.58v.92h-.01zM855.4 208.84c-.16-.03-.34-.04-.53-.04-.71 0-1.19.3-1.45.91v4.5h-1.08v-6.34h1.05l.02.73c.36-.57.86-.85 1.51-.85.21 0 .37.03.48.08v1.01zM860.08 214.21c-.06-.12-.11-.35-.15-.67-.5.52-1.11.79-1.8.79-.62 0-1.14-.18-1.54-.53s-.6-.8-.6-1.34c0-.66.25-1.17.75-1.54s1.21-.55 2.12-.55h1.05v-.5c0-.38-.11-.68-.34-.91s-.56-.34-1-.34c-.39 0-.71.1-.97.29s-.39.43-.39.71h-1.09c0-.32.11-.62.34-.92s.53-.53.91-.7.81-.26 1.27-.26c.73 0 1.3.18 1.72.55s.63.87.64 1.51v2.92c0 .58.07 1.04.22 1.39v.09l-1.14.01zm-1.8-.83c.34 0 .66-.09.97-.26s.53-.4.66-.69v-1.3h-.85c-1.33 0-1.99.39-1.99 1.17 0 .34.11.61.34.8s.51.28.87.28zM866.6 213.58c-.42.5-1.04.74-1.86.74-.68 0-1.19-.2-1.54-.59s-.53-.97-.54-1.74v-4.12h1.08v4.1c0 .96.39 1.44 1.17 1.44.83 0 1.38-.31 1.65-.93v-4.61h1.08v6.34h-1.03l-.01-.63zM869.04 210.99c0-.97.23-1.75.69-2.35s1.06-.89 1.81-.89c.74 0 1.33.25 1.76.76v-3.3h1.08v9h-1l-.05-.68c-.43.53-1.04.8-1.81.8-.73 0-1.33-.3-1.8-.9s-.69-1.39-.69-2.36l.01-.08zm1.08.12c0 .72.15 1.28.45 1.69s.71.61 1.23.61c.69 0 1.19-.31 1.51-.93v-2.91c-.32-.6-.82-.9-1.49-.9-.53 0-.95.21-1.24.62s-.46 1.02-.46 1.82zM881.73 210.41c-.96-.28-1.67-.62-2.11-1.02s-.66-.9-.66-1.5c0-.67.27-1.23.81-1.67s1.24-.66 2.09-.66c.59 0 1.11.11 1.57.34s.81.54 1.07.94.38.83.38 1.31h-1.13c0-.52-.16-.92-.49-1.22s-.79-.44-1.39-.44c-.55 0-.99.12-1.3.37-.31.24-.47.58-.47 1.02 0 .35.15.64.44.88s.8.46 1.51.66 1.26.42 1.66.66.7.52.89.84.29.7.29 1.13c0 .69-.27 1.25-.81 1.66s-1.26.62-2.16.62c-.59 0-1.13-.11-1.64-.34s-.9-.53-1.17-.92-.41-.83-.41-1.33h1.13c0 .52.19.92.57 1.22s.89.45 1.53.45c.59 0 1.05-.12 1.37-.36s.47-.57.47-.99-.15-.74-.44-.97-.83-.46-1.6-.68zM887.63 206.34v1.54h1.18v.84h-1.18v3.94c0 .25.05.45.16.57s.29.19.54.19c.12 0 .3-.02.52-.07v.87c-.29.08-.56.12-.83.12-.48 0-.85-.15-1.1-.44s-.37-.71-.37-1.25v-3.93h-1.15v-.84h1.15v-1.54h1.08zM894 213.58c-.42.5-1.04.74-1.86.74-.68 0-1.19-.2-1.54-.59s-.53-.97-.54-1.74v-4.12h1.08v4.1c0 .96.39 1.44 1.17 1.44.83 0 1.38-.31 1.65-.93v-4.61h1.08v6.34h-1.03l-.01-.63zM896.43 210.99c0-.97.23-1.75.69-2.35s1.06-.89 1.81-.89c.74 0 1.33.25 1.76.76v-3.3h1.08v9h-1l-.05-.68c-.43.53-1.04.8-1.81.8-.73 0-1.33-.3-1.8-.9s-.69-1.39-.69-2.36l.01-.08zm1.09.12c0 .72.15 1.28.45 1.69s.71.61 1.23.61c.69 0 1.19-.31 1.51-.93v-2.91c-.32-.6-.82-.9-1.49-.9-.53 0-.95.21-1.24.62s-.46 1.02-.46 1.82zM905.54 212.62l1.48-4.75h1.16l-2.55 7.32c-.39 1.05-1.02 1.58-1.88 1.58l-.21-.02-.4-.08v-.88l.29.02c.37 0 .65-.07.86-.22s.37-.42.51-.81l.24-.64-2.26-6.27h1.18l1.58 4.75zM909.11 215.91l-.62-.42c.37-.51.56-1.04.57-1.58v-.98h1.06v.85c0 .39-.1.79-.29 1.18s-.43.71-.72.95zM768.77 220.08h1.13v6.04c0 .82-.25 1.46-.74 1.92s-1.14.69-1.96.69c-.85 0-1.51-.22-1.98-.65s-.71-1.04-.71-1.82h1.12c0 .49.13.87.4 1.14s.66.41 1.16.41c.46 0 .84-.15 1.13-.44s.43-.7.44-1.23v-6.06h.01zM775.56 228.61c-.06-.12-.11-.35-.15-.67-.5.52-1.11.79-1.8.79-.62 0-1.14-.18-1.54-.53s-.6-.8-.6-1.34c0-.66.25-1.17.75-1.54s1.21-.55 2.12-.55h1.05v-.5c0-.38-.11-.68-.34-.91s-.56-.34-1-.34c-.39 0-.71.1-.97.29s-.39.43-.39.71h-1.09c0-.32.11-.62.34-.92s.53-.53.91-.7.81-.26 1.27-.26c.73 0 1.3.18 1.72.55s.63.87.64 1.51v2.92c0 .58.07 1.04.22 1.39v.09l-1.14.01zm-1.8-.82c.34 0 .66-.09.97-.26s.53-.4.66-.69v-1.3h-.85c-1.33 0-1.99.39-1.99 1.17 0 .34.11.61.34.8s.52.28.87.28zM780.18 227.14l1.57-4.87h1.11l-2.27 6.34h-.83l-2.3-6.34h1.11l1.61 4.87zM786.53 228.73c-.86 0-1.56-.28-2.1-.85s-.81-1.32-.81-2.26v-.2c0-.63.12-1.19.36-1.68s.58-.88 1.01-1.16.9-.42 1.4-.42c.82 0 1.46.27 1.92.81s.69 1.32.69 2.33v.45h-4.29c.02.62.2 1.13.55 1.51s.79.58 1.33.58c.38 0 .71-.08.97-.23s.5-.36.7-.62l.66.52c-.53.81-1.33 1.22-2.39 1.22zm-.13-5.69c-.44 0-.8.16-1.1.48s-.48.76-.55 1.34h3.18v-.08c-.03-.55-.18-.98-.45-1.28s-.63-.46-1.08-.46zM791.44 228.61h-1.08v-9h1.08v9zM793.18 220.59c0-.18.05-.32.16-.45s.27-.18.48-.18.37.06.48.18.16.27.16.45-.05.32-.16.44-.27.18-.48.18-.37-.06-.48-.18-.16-.26-.16-.44zm1.17 8.02h-1.08v-6.34h1.08v6.34zM797.11 222.27l.04.8c.48-.61 1.12-.91 1.9-.91 1.34 0 2.02.76 2.03 2.27v4.19H800v-4.2c0-.46-.11-.79-.31-1.01s-.52-.33-.96-.33c-.35 0-.66.09-.93.28s-.47.43-.62.74v4.52h-1.08v-6.34h1.01v-.01zM808.36 224.81c-.96-.28-1.67-.62-2.11-1.02s-.66-.9-.66-1.5c0-.67.27-1.23.81-1.67s1.24-.66 2.09-.66c.59 0 1.11.11 1.57.34s.81.54 1.07.94.38.83.38 1.31h-1.13c0-.52-.16-.92-.49-1.22s-.79-.44-1.39-.44c-.55 0-.99.12-1.3.37-.31.24-.47.58-.47 1.02 0 .35.15.64.44.88s.8.46 1.51.66 1.26.42 1.66.66.7.52.89.84.29.7.29 1.13c0 .69-.27 1.25-.81 1.66s-1.26.62-2.16.62c-.59 0-1.13-.11-1.64-.34s-.9-.53-1.17-.92-.41-.83-.41-1.33h1.13c0 .52.19.92.57 1.22s.89.45 1.53.45c.59 0 1.05-.12 1.37-.36s.47-.57.47-.99-.15-.74-.44-.97-.83-.46-1.6-.68zM814.26 220.74v1.54h1.18v.84h-1.18v3.94c0 .25.05.45.16.57s.29.19.54.19c.12 0 .3-.02.52-.07v.87c-.29.08-.56.12-.83.12-.48 0-.85-.15-1.1-.44s-.37-.71-.37-1.25v-3.93h-1.15v-.84h1.15v-1.54h1.08zM819.78 223.24c-.16-.03-.34-.04-.53-.04-.71 0-1.19.3-1.45.91v4.5h-1.08v-6.34h1.05l.02.73c.36-.57.86-.85 1.51-.85.21 0 .37.03.48.08v1.01zM824.45 228.61c-.06-.12-.11-.35-.15-.67-.5.52-1.11.79-1.8.79-.62 0-1.14-.18-1.54-.53s-.6-.8-.6-1.34c0-.66.25-1.17.75-1.54s1.21-.55 2.12-.55h1.05v-.5c0-.38-.11-.68-.34-.91s-.56-.34-1-.34c-.39 0-.71.1-.97.29s-.39.43-.39.71h-1.09c0-.32.11-.62.34-.92s.53-.53.91-.7.81-.26 1.27-.26c.73 0 1.3.18 1.72.55s.63.87.64 1.51v2.92c0 .58.07 1.04.22 1.39v.09l-1.14.01zm-1.8-.82c.34 0 .66-.09.97-.26s.53-.4.66-.69v-1.3h-.85c-1.33 0-1.99.39-1.99 1.17 0 .34.11.61.34.8s.52.28.87.28zM828.54 220.74v1.54h1.18v.84h-1.18v3.94c0 .25.05.45.16.57s.29.19.54.19c.12 0 .3-.02.52-.07v.87c-.29.08-.56.12-.83.12-.48 0-.85-.15-1.1-.44s-.37-.71-.37-1.25v-3.93h-1.15v-.84h1.15v-1.54h1.08zM833.62 228.73c-.86 0-1.56-.28-2.1-.85s-.81-1.32-.81-2.26v-.2c0-.63.12-1.19.36-1.68s.58-.88 1.01-1.16.9-.42 1.4-.42c.82 0 1.46.27 1.92.81s.69 1.32.69 2.33v.45h-4.29c.02.62.2 1.13.55 1.51s.79.58 1.33.58c.38 0 .71-.08.97-.23s.5-.36.7-.62l.66.52c-.53.81-1.33 1.22-2.39 1.22zm-.14-5.69c-.44 0-.8.16-1.1.48s-.48.76-.55 1.34h3.18v-.08c-.03-.55-.18-.98-.45-1.28s-.62-.46-1.08-.46zM837.09 225.39c0-.99.23-1.77.69-2.36s1.06-.88 1.82-.88c.77 0 1.38.27 1.81.82l.05-.7h.99v6.19c0 .82-.24 1.47-.73 1.94s-1.14.71-1.96.71c-.46 0-.9-.1-1.34-.29s-.77-.46-1-.8l.56-.65c.46.57 1.03.86 1.71.86.53 0 .94-.15 1.23-.45s.44-.71.44-1.25v-.54c-.43.5-1.03.75-1.78.75-.74 0-1.34-.3-1.8-.9s-.69-1.42-.69-2.45zm1.09.12c0 .71.15 1.28.44 1.68s.7.61 1.23.61c.68 0 1.19-.31 1.51-.93v-2.89c-.33-.61-.83-.91-1.49-.91-.53 0-.94.21-1.24.62s-.45 1.02-.45 1.82zM846.15 227.02l1.48-4.75h1.16l-2.55 7.32c-.39 1.05-1.02 1.58-1.88 1.58l-.21-.02-.4-.08v-.88l.29.02c.37 0 .65-.07.86-.22s.37-.42.51-.81l.24-.64-2.26-6.27h1.18l1.58 4.75zM852.5 226.32c0-.41.11-.79.34-1.13s.67-.74 1.31-1.2c-.38-.46-.63-.83-.76-1.11s-.19-.56-.19-.84c0-.65.19-1.16.57-1.52s.9-.55 1.56-.55c.59 0 1.07.17 1.45.51s.57.77.57 1.29c0 .34-.09.66-.26.95s-.48.6-.91.92l-.63.46 1.9 2.27c.27-.51.4-1.07.4-1.69h.98c0 1-.24 1.82-.72 2.48l1.22 1.46h-1.3l-.57-.67c-.29.26-.63.45-1.02.59s-.78.2-1.19.2c-.83 0-1.5-.22-2-.66s-.75-1.04-.75-1.76zm2.76 1.52c.57 0 1.1-.22 1.58-.66l-2.08-2.49-.19.14c-.65.48-.98.97-.98 1.48 0 .46.15.83.45 1.11s.7.42 1.22.42zm-.98-5.84c0 .38.23.84.69 1.41l.69-.49c.27-.19.45-.37.54-.54s.15-.38.15-.62c0-.26-.1-.48-.29-.65s-.44-.26-.74-.26c-.32 0-.57.11-.76.33s-.28.49-.28.82zM866.45 225.16h-2v3.45h-1.13v-8.53h2.82c.96 0 1.7.22 2.22.66s.78 1.07.78 1.91c0 .53-.14.99-.43 1.39s-.69.69-1.2.88l2 3.62v.07h-1.21l-1.85-3.45zm-2-.92h1.73c.56 0 1-.14 1.33-.43s.5-.68.5-1.16c0-.53-.16-.93-.47-1.21-.31-.28-.77-.42-1.36-.43h-1.72v3.23h-.01zM873.17 228.73c-.86 0-1.56-.28-2.1-.85s-.81-1.32-.81-2.26v-.2c0-.63.12-1.19.36-1.68s.58-.88 1.01-1.16.9-.42 1.4-.42c.82 0 1.46.27 1.92.81s.69 1.32.69 2.33v.45h-4.29c.02.62.2 1.13.55 1.51s.79.58 1.33.58c.38 0 .71-.08.97-.23s.5-.36.7-.62l.66.52c-.53.81-1.32 1.22-2.39 1.22zm-.13-5.69c-.44 0-.8.16-1.1.48s-.48.76-.55 1.34h3.18v-.08c-.03-.55-.18-.98-.45-1.28s-.63-.46-1.08-.46zM880.59 226.93c0-.29-.11-.52-.33-.68s-.61-.3-1.15-.42-.98-.26-1.31-.42-.56-.36-.71-.59-.23-.5-.23-.81c0-.52.22-.96.66-1.32s1-.54 1.68-.54c.72 0 1.3.19 1.75.56s.67.85.67 1.42h-1.09c0-.3-.13-.55-.38-.77s-.57-.32-.95-.32c-.39 0-.7.09-.93.26s-.33.4-.33.67c0 .26.1.46.31.59s.58.26 1.12.38.98.27 1.32.43.58.37.75.61.24.52.24.86c0 .57-.23 1.02-.68 1.36s-1.04.51-1.76.51c-.51 0-.96-.09-1.35-.27s-.7-.43-.92-.75-.33-.67-.33-1.05h1.08c.02.36.17.65.44.86s.63.32 1.08.32c.41 0 .74-.08.99-.25s.36-.36.36-.64zM885.72 228.73c-.86 0-1.56-.28-2.1-.85s-.81-1.32-.81-2.26v-.2c0-.63.12-1.19.36-1.68s.58-.88 1.01-1.16.9-.42 1.4-.42c.82 0 1.46.27 1.92.81s.69 1.32.69 2.33v.45h-4.29c.02.62.2 1.13.55 1.51s.79.58 1.33.58c.38 0 .71-.08.97-.23s.5-.36.7-.62l.66.52c-.53.81-1.33 1.22-2.39 1.22zm-.14-5.69c-.44 0-.8.16-1.1.48s-.48.76-.55 1.34h3.18v-.08c-.03-.55-.18-.98-.45-1.28s-.62-.46-1.08-.46zM893.36 228.61c-.06-.12-.11-.35-.15-.67-.5.52-1.11.79-1.8.79-.62 0-1.14-.18-1.54-.53s-.6-.8-.6-1.34c0-.66.25-1.17.75-1.54s1.21-.55 2.12-.55h1.05v-.5c0-.38-.11-.68-.34-.91s-.56-.34-1-.34c-.39 0-.71.1-.97.29s-.39.43-.39.71h-1.09c0-.32.11-.62.34-.92s.53-.53.91-.7.81-.26 1.27-.26c.73 0 1.3.18 1.72.55s.63.87.64 1.51v2.92c0 .58.07 1.04.22 1.39v.09l-1.14.01zm-1.8-.82c.34 0 .66-.09.97-.26s.53-.4.66-.69v-1.3h-.85c-1.33 0-1.99.39-1.99 1.17 0 .34.11.61.34.8s.52.28.87.28zM899.04 223.24c-.16-.03-.34-.04-.53-.04-.71 0-1.19.3-1.45.91v4.5h-1.08v-6.34h1.05l.02.73c.36-.57.86-.85 1.51-.85.21 0 .37.03.48.08v1.01zM902.46 227.84c.39 0 .72-.12 1.01-.35s.45-.53.48-.88h1.03c-.02.36-.14.71-.38 1.04s-.54.59-.92.79-.79.29-1.22.29c-.86 0-1.55-.29-2.06-.86s-.76-1.36-.76-2.36v-.18c0-.62.11-1.17.34-1.65s.55-.85.98-1.12.92-.4 1.5-.4c.71 0 1.3.21 1.77.64s.72.98.75 1.66h-1.03c-.03-.41-.19-.75-.47-1.01s-.62-.4-1.03-.4c-.55 0-.98.2-1.28.59s-.45.97-.45 1.72v.21c0 .73.15 1.29.45 1.69s.74.58 1.29.58zM907.29 223.04c.48-.59 1.11-.88 1.88-.88 1.34 0 2.02.76 2.03 2.27v4.19h-1.08v-4.2c0-.46-.11-.79-.31-1.01s-.52-.33-.96-.33c-.35 0-.66.09-.93.28s-.47.43-.62.74v4.52h-1.08v-9h1.08v3.42h-.01z"/></svg>