<svg id="Layer_1" xmlns="http://www.w3.org/2000/svg" viewBox="0 0 970 250"><style>.st0{fill:#fff}</style><path id="Logo_4_" class="st0" d="M816.01 39.07c.2.19.3.42.3.7v10.91c0 .28-.1.51-.29.7a.978.978 0 0 1-1.39 0c-.2-.19-.3-.42-.3-.7V39.77c0-.28.1-.51.29-.7a.95.95 0 0 1 .7-.29c.26.01.49.1.69.29zm-.69-4.85c-.28 0-.51.1-.7.29a.95.95 0 0 0-.29.7v.75c0 .28.1.51.3.7.2.19.43.29.69.29.28 0 .51-.09.7-.29a.95.95 0 0 0 .29-.7v-.76c0-.28-.1-.51-.3-.7a.968.968 0 0 0-.69-.28zm-3.48 4.98c-.35-.1-.82-.18-1.41-.23-1.07 0-2 .3-2.79.89a.98.98 0 0 0-.94-.79c-.27 0-.5.09-.69.28-.19.19-.28.42-.28.69v10.67c0 .27.1.5.29.69.19.19.42.28.67.28.27 0 .5-.09.69-.28a.92.92 0 0 0 .28-.69v-7.26c.02-.36.09-.69.23-.99.14-.3.33-.57.57-.8.25-.23.52-.41.84-.55.31-.14.66-.2 1.03-.2.47 0 .92.12 1.35.36.17.12.36.18.58.18.27 0 .5-.09.69-.27.19-.18.28-.41.28-.7 0-.36-.14-.63-.43-.83-.29-.2-.61-.35-.96-.45zm16.21-.44c-.43 0-.74.2-.91.6l-3.84 8.96-3.84-8.96a.966.966 0 0 0-.38-.44.998.998 0 0 0-.53-.16c-.29 0-.53.1-.7.31-.17.21-.26.43-.26.68 0 .14.03.27.08.39l4.73 11.04c.16.4.46.6.91.6.42 0 .72-.2.91-.6l4.73-11.04c.05-.12.08-.25.08-.39 0-.24-.09-.47-.26-.68a.96.96 0 0 0-.72-.31zm10.3 2.78c.25.57.38 1.18.38 1.82v7.32c0 .28-.1.51-.3.7-.2.19-.43.29-.69.29-.24 0-.45-.07-.64-.22a.848.848 0 0 1-.32-.56c-.8.59-1.71.88-2.75.88a4.654 4.654 0 0 1-3.31-1.36c-.42-.42-.76-.92-1.01-1.49s-.38-1.18-.38-1.82v-3.74c0-.64.12-1.25.36-1.82.24-.57.58-1.07 1.01-1.49.43-.42.93-.76 1.49-1 .56-.24 1.17-.36 1.83-.36a4.654 4.654 0 0 1 3.31 1.36c.43.42.77.92 1.02 1.49zm-1.6 1.82c0-.36-.07-.71-.22-1.04-.15-.33-.34-.62-.58-.87-.24-.25-.53-.45-.87-.58-.34-.14-.69-.21-1.05-.21a2.723 2.723 0 0 0-1.94.79c-.25.25-.45.54-.58.87-.14.33-.21.68-.21 1.04v3.74c0 .36.07.71.22 1.04.15.33.34.62.58.87.24.25.53.45.87.58a2.82 2.82 0 0 0 2.09.02 2.654 2.654 0 0 0 1.44-1.37c.15-.31.23-.65.25-1.01v-3.87zm5.97-1.04c.14-.33.33-.62.58-.87.25-.25.54-.45.87-.58.33-.14.68-.21 1.07-.21.54 0 1.03.15 1.48.44.45.29.8.7 1.04 1.22.07.19.19.34.35.45.16.11.35.17.56.17.28 0 .51-.1.7-.29a.95.95 0 0 0 .29-.7c0-.1-.03-.22-.08-.36-.28-.69-.63-1.23-1.05-1.62-.42-.39-.85-.68-1.29-.87-.43-.19-.83-.31-1.18-.35-.36-.04-.59-.07-.71-.07-.66 0-1.28.12-1.86.36-.58.24-1.09.57-1.53.99a4.556 4.556 0 0 0-1.42 3.32v3.74c0 .64.13 1.25.38 1.82.25.57.59 1.07 1.01 1.49a4.649 4.649 0 0 0 3.31 1.36c.02 0 .19-.01.51-.03.32-.02.71-.11 1.17-.29.46-.17.93-.46 1.42-.86.48-.4.9-.98 1.25-1.74.05-.12.08-.24.08-.36 0-.26-.1-.49-.29-.69-.19-.2-.42-.3-.7-.3-.21 0-.39.06-.55.17-.16.11-.28.26-.36.45-.23.52-.56.93-1.01 1.22-.45.29-.95.44-1.51.44-.36 0-.71-.07-1.05-.21-.34-.14-.63-.33-.87-.58a2.88 2.88 0 0 1-.58-.87c-.15-.33-.22-.68-.22-1.04v-3.74c-.01-.33.05-.68.19-1.01zm42.03-3.53c-.28 0-.51.1-.7.29a.95.95 0 0 0-.29.7v7.32c0 .36-.07.71-.22 1.04-.15.33-.34.62-.58.87-.24.25-.53.45-.87.58-.34.14-.69.21-1.05.21a2.723 2.723 0 0 1-1.94-.79c-.25-.25-.45-.54-.58-.87-.14-.33-.21-.68-.21-1.04v-7.32c0-.28-.1-.51-.3-.7a.978.978 0 0 0-1.39 0 .95.95 0 0 0-.29.7v7.32c0 .64.12 1.25.36 1.82.24.57.58 1.07 1.01 1.49.43.42.93.76 1.49 1 .56.24 1.17.36 1.83.36a4.654 4.654 0 0 0 3.31-1.36c.42-.42.76-.92 1.01-1.49s.38-1.18.38-1.82v-7.32c0-.28-.1-.51-.3-.7a.865.865 0 0 0-.67-.29zm11.86 2.75c.25.57.38 1.18.38 1.82v7.32c0 .28-.1.51-.3.7-.2.19-.43.29-.69.29-.24 0-.45-.07-.64-.22a.848.848 0 0 1-.32-.56c-.8.59-1.71.88-2.75.88a4.654 4.654 0 0 1-3.31-1.36c-.42-.42-.76-.92-1.01-1.49s-.38-1.18-.38-1.82v-3.74c0-.64.12-1.25.36-1.82.24-.57.58-1.07 1.01-1.49.43-.42.93-.76 1.49-1 .56-.24 1.17-.36 1.83-.36a4.654 4.654 0 0 1 3.31 1.36c.43.42.77.92 1.02 1.49zm-1.6 1.82c0-.36-.07-.71-.22-1.04-.15-.33-.34-.62-.58-.87-.24-.25-.53-.45-.87-.58-.34-.14-.69-.21-1.05-.21a2.723 2.723 0 0 0-1.94.79c-.25.25-.45.54-.58.87-.14.33-.21.68-.21 1.04v3.74c0 .36.07.71.22 1.04.15.33.34.62.58.87.24.25.53.45.87.58a2.82 2.82 0 0 0 2.09.02 2.654 2.654 0 0 0 1.44-1.37c.15-.31.23-.65.25-1.01v-3.87zm10-4.16c-.35-.1-.82-.18-1.41-.23-1.07 0-2 .3-2.79.89a.98.98 0 0 0-.94-.79c-.27 0-.5.09-.69.28-.19.19-.28.42-.28.69v10.67c0 .27.1.5.29.69.19.19.42.28.67.28.27 0 .5-.09.69-.28a.92.92 0 0 0 .28-.69v-7.26c.02-.36.09-.69.23-.99.14-.3.33-.57.57-.8.25-.23.52-.41.84-.55.31-.14.66-.2 1.03-.2.47 0 .92.12 1.35.36.17.12.36.18.58.18.27 0 .5-.09.69-.27.19-.18.28-.41.28-.7 0-.36-.14-.63-.43-.83-.29-.2-.61-.35-.96-.45zm11.05-4.7c.2.19.3.42.3.7v15.47c0 .28-.1.51-.29.7-.19.19-.43.29-.71.29-.26 0-.49-.1-.69-.29a.867.867 0 0 1-.26-.51c-.29.21-.59.39-.93.54-.57.24-1.18.36-1.82.36-.66 0-1.27-.12-1.83-.36s-1.06-.58-1.49-1c-.43-.42-.77-.92-1.01-1.49s-.36-1.18-.36-1.82v-3.74c0-.64.13-1.25.38-1.82.25-.57.59-1.07 1.01-1.49a4.649 4.649 0 0 1 3.31-1.36c.5 0 .98.08 1.44.23.46.16.89.37 1.29.65V35.2c0-.28.1-.51.29-.7a.95.95 0 0 1 .7-.29c.24.01.47.1.67.29zm-1.89 13.64c.13-.28.19-.58.2-.88V43.2c-.02-.3-.07-.6-.19-.87-.14-.33-.33-.62-.58-.87-.25-.25-.54-.45-.87-.58-.33-.14-.68-.21-1.06-.21-.36 0-.71.07-1.05.21-.34.14-.63.33-.87.58-.24.25-.44.54-.58.87-.15.33-.22.68-.22 1.04v3.74c0 .36.07.71.21 1.04.14.33.33.62.58.87.25.25.54.45.87.58.33.14.68.21 1.07.21.36 0 .71-.07 1.05-.21.34-.14.63-.33.87-.58.22-.26.42-.55.57-.88zm-54.32-9.35c-.28 0-.51.1-.7.29a.95.95 0 0 0-.29.7v7.32c0 .36-.07.71-.22 1.04-.15.33-.34.62-.58.87-.24.25-.53.45-.87.58-.34.14-.69.21-1.05.21a2.723 2.723 0 0 1-1.94-.79c-.25-.25-.45-.54-.58-.87-.14-.33-.21-.68-.21-1.04v-7.32c0-.28-.1-.51-.3-.7a.978.978 0 0 0-1.39 0 .95.95 0 0 0-.29.7v7.32c0 .64.12 1.25.36 1.82.24.57.58 1.07 1.01 1.49.43.42.93.76 1.49 1 .56.24 1.17.36 1.83.36.64 0 1.25-.12 1.82-.36.33-.14.63-.32.91-.52v2.47c-.02.36-.1.7-.23 1.01-.14.31-.33.58-.58.82-.25.23-.54.42-.86.56-.32.14-.67.21-1.05.21-.48 0-.94-.12-1.38-.36-.17-.12-.37-.18-.6-.18-.28 0-.51.09-.7.27-.19.18-.29.42-.29.71 0 .36.15.65.44.84.29.2.62.35.97.45.36.1.84.18 1.44.23 1.09 0 2.04-.3 2.86-.91 1.24-.88 1.95-2.15 1.95-3.58v-6.34-7.32c0-.28-.1-.51-.3-.7a.891.891 0 0 0-.67-.28zm13.71 4.18h-4.11c-.55 0-1 .42-1 .96 0 .55.44 1 1 1h3.28v1.55c0 2.12-1.92 3.71-3.94 3.71-2.24 0-4.13-1.52-4.13-4.13v-5.92c0-2.41 1.82-4.13 4.06-4.13 1.89 0 3.33 1.25 3.9 2.82.19.32.45.53.89.53.77 0 1.25-.62.88-1.51-.63-1.9-2.58-3.86-5.66-3.86-3.55 0-6.1 2.81-6.1 6.03v6.16c0 3.25 2.56 6.04 6.1 6.04 3.2 0 5.89-2.49 5.89-5.34v-2.97c-.01-.58-.5-.94-1.06-.94zm-69.88-4.43c.32.73.48 1.51.48 2.34 0 .83-.16 1.6-.48 2.32-.32.72-.75 1.35-1.3 1.89-.54.54-1.18.97-1.92 1.28-.74.31-1.52.47-2.35.47h-2.95v3.86c0 .27-.09.5-.28.69-.19.19-.42.28-.69.28-.25 0-.48-.09-.67-.28a.928.928 0 0 1-.29-.69V35.87c0-.27.09-.5.28-.69a.92.92 0 0 1 .69-.28h3.92c.83 0 1.61.16 2.34.47.73.31 1.37.74 1.92 1.27.54.54.98 1.17 1.3 1.9zm-1.45 2.34c0-.56-.11-1.08-.33-1.57-.22-.49-.52-.92-.89-1.28a4.197 4.197 0 0 0-2.9-1.18h-2.95v8.08h2.95a4.197 4.197 0 0 0 2.92-1.18c.37-.36.66-.79.88-1.28.22-.51.32-1.04.32-1.59zm-24.95-.33v-7.39c0-3.39-2.76-6.15-6.15-6.15-3.39 0-6.15 2.76-6.15 6.15v1.14c0 .54.44.98.98.98s.98-.44.98-.98v-1.14c0-2.31 1.88-4.19 4.19-4.19 2.31 0 4.19 1.88 4.19 4.19v7.39c0 2.31-1.88 4.19-4.19 4.19a4.2 4.2 0 0 1-1.53-.29.979.979 0 0 0-1.34.91v6.69c0 .36-.3.66-.66.66s-.66-.3-.66-.66V37.63c0-.54-.44-.98-.98-.98s-.98.44-.98.98v14.42c0 1.45 1.18 2.62 2.62 2.62s2.62-1.18 2.62-2.62v-5.42c.3.04.6.07.91.07 3.39 0 6.15-2.76 6.15-6.15zm-9.88 15.68a.98.98 0 1 0-1.74.9 6.125 6.125 0 0 0 5.47 3.33c3.39 0 6.15-2.76 6.15-6.15V52.3c0-.54-.44-.98-.98-.98s-.98.44-.98.98v2.01c0 2.31-1.88 4.19-4.19 4.19a4.14 4.14 0 0 1-3.73-2.27zm5.62-4.91c-.54 0-.98.44-.98.98v2.01a.913.913 0 0 1-1.37.79.987.987 0 0 0-1.34.35.987.987 0 0 0 .35 1.34c.44.26.94.39 1.44.39 1.58 0 2.87-1.29 2.87-2.87V52.3a.967.967 0 0 0-.97-.98zm-2.18-27.59c-5.04.15-9.15 4.46-9.15 9.61v20.97a9.37 9.37 0 0 0 2.87 6.77 9.344 9.344 0 0 0 6.56 2.67h.29c5.04-.15 9.15-4.46 9.15-9.61v-1.61c0-2.48-2.02-4.49-4.49-4.49h-3.05c-.54 0-.98.44-.98.98s.44.98.98.98h3.05c1.4 0 2.53 1.14 2.53 2.53v1.61c0 4.1-3.25 7.53-7.24 7.65-2.03.06-3.96-.69-5.43-2.11a7.418 7.418 0 0 1-2.27-5.36V33.34c0-4.1 3.25-7.53 7.24-7.65a7.43 7.43 0 0 1 5.43 2.11 7.418 7.418 0 0 1 2.27 5.36v12.32c0 .54.44.98.98.98s.98-.44.98-.98V33.16a9.37 9.37 0 0 0-2.87-6.77 9.358 9.358 0 0 0-6.85-2.66zm-2.59 16.82v-7.39c0-1.58 1.29-2.87 2.87-2.87s2.87 1.29 2.87 2.87v7.39c0 1.58-1.29 2.87-2.87 2.87s-2.87-1.29-2.87-2.87zm1.96 0c0 .5.41.91.91.91s.91-.41.91-.91v-7.39c0-.5-.41-.91-.91-.91s-.91.41-.91.91v7.39zm13.63-7.17v20.94c0 3.45-1.36 6.68-3.83 9.09-2.4 2.34-5.54 3.62-8.87 3.62h-.31c-6.84-.16-12.41-5.96-12.41-12.93V33.16c0-3.45 1.36-6.68 3.83-9.09 2.47-2.41 5.73-3.7 9.18-3.62 6.84.16 12.41 5.96 12.41 12.93zm-1.97 0c0-5.91-4.71-10.83-10.49-10.97-2.92-.07-5.68 1.02-7.77 3.06a10.66 10.66 0 0 0-3.24 7.69v20.93c0 5.91 4.71 10.83 10.49 10.97 2.92.06 5.67-1.02 7.77-3.06a10.66 10.66 0 0 0 3.24-7.69V33.38zm135.48 1.23h.36v1.1h.31v-1.1h.37v-.26h-1.04v.26zm2.59-.26h-.4l-.14.45c-.04.15-.09.33-.13.49h-.01c-.03-.16-.07-.33-.11-.49l-.13-.45h-.41l-.09 1.36h.28l.02-.52c.01-.17.02-.38.02-.56.03.18.08.37.12.53l.15.53h.24l.17-.53c.05-.16.11-.35.15-.53h.01c0 .2.01.39.01.56l.02.52h.3l-.07-1.36z"/></svg>