<?xml version="1.0" encoding="utf-8"?>
<!-- Generator: Adobe Illustrator 25.4.1, SVG Export Plug-In . SVG Version: 6.00 Build 0)  -->
<svg version="1.1" id="Layer_1" xmlns="http://www.w3.org/2000/svg" xmlns:xlink="http://www.w3.org/1999/xlink" x="0px" y="0px"
	 viewBox="0 0 160 600" style="enable-background:new 0 0 160 600;" xml:space="preserve">
<style type="text/css">
	.st0{fill:#E72F8A;stroke:url(#SVGID_1_);stroke-width:0.9465;stroke-miterlimit:10;}
	.st1{fill:#FFFFFF;}
</style>
<linearGradient id="SVGID_1_" gradientUnits="userSpaceOnUse" x1="40.6377" y1="200.1325" x2="125.2686" y2="200.1325">
	<stop  offset="0" style="stop-color:#41B5E8"/>
	<stop  offset="0.5" style="stop-color:#6A53A3"/>
	<stop  offset="1" style="stop-color:#E72E8A"/>
</linearGradient>
<path class="st0" d="M108.2,216.8H57.7c-9.2,0-16.6-7.4-16.6-16.6v0c0-9.2,7.4-16.6,16.6-16.6h50.4c9.2,0,16.6,7.4,16.6,16.6v0
	C124.8,209.3,117.4,216.8,108.2,216.8z"/>
<g>
	<path class="st1" d="M60.9,196.3h-3.1v8.4h-2.1v-8.4h-3.1v-1.7h8.2V196.3z"/>
	<path class="st1" d="M65.8,199.1c-0.3,0-0.5-0.1-0.7-0.1c-0.8,0-1.3,0.3-1.5,0.8v4.9h-2v-7.5h1.9l0.1,0.9c0.4-0.7,1-1,1.7-1
		c0.2,0,0.4,0,0.6,0.1L65.8,199.1z"/>
	<path class="st1" d="M69.5,201.9l1.4-4.7h2.2l-3,8.7l-0.2,0.4c-0.4,1-1.2,1.5-2.2,1.5c-0.3,0-0.6,0-0.9-0.1v-1.5l0.3,0
		c0.4,0,0.7-0.1,0.8-0.2c0.2-0.1,0.3-0.3,0.4-0.6l0.2-0.6l-2.6-7.5h2.2L69.5,201.9z"/>
	<path class="st1" d="M84.7,196.3h-3.1v8.4h-2.1v-8.4h-3.1v-1.7h8.2V196.3z"/>
	<path class="st1" d="M84,200.9c0-0.7,0.1-1.4,0.4-2c0.3-0.6,0.7-1,1.2-1.4s1.2-0.5,1.9-0.5c1,0,1.8,0.3,2.5,0.9s1,1.5,1.1,2.5
		l0,0.5c0,1.2-0.3,2.1-1,2.8c-0.6,0.7-1.5,1-2.6,1s-1.9-0.3-2.6-1C84.3,203.2,84,202.2,84,200.9L84,200.9z M86,201.1
		c0,0.7,0.1,1.3,0.4,1.6c0.3,0.4,0.7,0.6,1.2,0.6c0.5,0,0.9-0.2,1.1-0.6c0.3-0.4,0.4-1,0.4-1.8c0-0.7-0.1-1.2-0.4-1.6
		c-0.3-0.4-0.7-0.6-1.2-0.6c-0.5,0-0.9,0.2-1.1,0.6C86.2,199.7,86,200.3,86,201.1z"/>
	<path class="st1" d="M92.1,200.9c0-1.2,0.3-2.1,0.8-2.8c0.5-0.7,1.2-1,2.2-1c0.7,0,1.3,0.3,1.8,0.8v-3.8h2v10.7H97l-0.1-0.8
		c-0.5,0.6-1.1,0.9-1.9,0.9c-0.9,0-1.6-0.3-2.1-1S92.1,202.2,92.1,200.9z M94.1,201.1c0,0.7,0.1,1.2,0.4,1.6s0.6,0.6,1.1,0.6
		c0.6,0,1.1-0.3,1.3-0.8v-3c-0.2-0.5-0.7-0.8-1.3-0.8C94.5,198.7,94.1,199.5,94.1,201.1z"/>
	<path class="st1" d="M104.7,204.8c-0.1-0.2-0.2-0.4-0.2-0.7c-0.5,0.5-1.1,0.8-1.9,0.8c-0.7,0-1.3-0.2-1.8-0.6
		c-0.5-0.4-0.7-1-0.7-1.6c0-0.8,0.3-1.4,0.9-1.8s1.4-0.6,2.6-0.6h0.9v-0.4c0-0.3-0.1-0.6-0.3-0.8c-0.2-0.2-0.5-0.3-0.8-0.3
		c-0.3,0-0.6,0.1-0.8,0.2s-0.3,0.4-0.3,0.7h-2c0-0.4,0.1-0.8,0.4-1.2c0.3-0.4,0.6-0.7,1.1-0.9c0.5-0.2,1-0.3,1.7-0.3
		c0.9,0,1.7,0.2,2.2,0.7s0.8,1.1,0.8,2v3.3c0,0.7,0.1,1.3,0.3,1.6v0.1H104.7z M103.1,203.4c0.3,0,0.6-0.1,0.8-0.2s0.4-0.3,0.6-0.5
		v-1.3h-0.7c-1,0-1.5,0.3-1.6,1l0,0.1c0,0.2,0.1,0.5,0.3,0.6S102.8,203.4,103.1,203.4z"/>
	<path class="st1" d="M110.8,201.9l1.4-4.7h2.2l-3,8.7l-0.2,0.4c-0.4,1-1.2,1.5-2.2,1.5c-0.3,0-0.6,0-0.9-0.1v-1.5l0.3,0
		c0.4,0,0.7-0.1,0.8-0.2c0.2-0.1,0.3-0.3,0.4-0.6l0.2-0.6l-2.6-7.5h2.2L110.8,201.9z"/>
</g>
</svg>
