<svg id="Layer_1" xmlns="http://www.w3.org/2000/svg" viewBox="0 0 970 250"><style>.st0{fill:#2a3380}.st1{fill:#e72e8a}</style><path class="st0" d="M333.1 112.6h-9.8v10.1h-5.1V97.9h16.2v4.1h-11.1v6.4h9.8v4.2zM337 99.5c0-.7.2-1.3.7-1.8s1.2-.7 2-.7 1.5.2 2 .7.8 1.1.8 1.8c0 .8-.3 1.4-.8 1.8-.5.5-1.2.7-2 .7s-1.5-.2-2-.7c-.5-.4-.7-1-.7-1.8zm5.2 23.2h-4.9v-18.5h4.9v18.5zM350.8 104.3l.2 2.1c1.3-1.6 3.1-2.5 5.3-2.5 2 0 3.4.6 4.4 1.7s1.4 2.9 1.5 5.2v11.9h-4.9v-11.8c0-1-.2-1.8-.7-2.3-.5-.5-1.2-.7-2.3-.7-1.4 0-2.4.6-3.1 1.8v13h-4.9v-18.5h4.5zM365 113.4c0-2.9.6-5.2 1.9-6.9 1.3-1.7 3.1-2.6 5.3-2.6 1.8 0 3.3.7 4.5 2v-9.4h4.9v26.2h-4.5l-.2-2c-1.2 1.5-2.8 2.3-4.7 2.3-2.2 0-3.9-.9-5.2-2.6-1.3-1.6-2-4-2-7zm5 .3c0 1.7.3 3.1.9 4s1.5 1.4 2.6 1.4c1.5 0 2.6-.6 3.2-1.9v-7.3c-.6-1.3-1.7-1.9-3.2-1.9-2.3 0-3.5 1.9-3.5 5.7zM393.4 113.3c0-1.8.4-3.5 1.1-4.9.7-1.4 1.7-2.5 3-3.3 1.3-.8 2.9-1.2 4.6-1.2 2.5 0 4.5.8 6.1 2.3 1.6 1.5 2.5 3.6 2.6 6.2v1.3c0 2.8-.8 5.1-2.4 6.8-1.6 1.7-3.7 2.6-6.4 2.6s-4.8-.9-6.4-2.6c-1.6-1.7-2.4-4-2.4-7v-.2zm5 .4c0 1.8.3 3.1 1 4 .7.9 1.6 1.4 2.8 1.4 1.2 0 2.1-.5 2.8-1.4.7-.9 1-2.4 1-4.4 0-1.7-.3-3.1-1-4s-1.6-1.4-2.8-1.4c-1.2 0-2.1.5-2.8 1.4-.7 1-1 2.4-1 4.4zM425 120.9c-1.2 1.5-2.9 2.2-5 2.2-2 0-3.5-.6-4.5-1.7s-1.6-2.8-1.6-5v-12.1h4.9v11.9c0 1.9.9 2.9 2.6 2.9 1.7 0 2.8-.6 3.4-1.7v-13.1h4.9v18.5h-4.6l-.1-1.9zM439.4 99.7v4.5h3.2v3.6h-3.2v9.2c0 .7.1 1.2.4 1.5.3.3.8.4 1.5.4.5 0 1 0 1.4-.1v3.7c-1 .3-2 .4-3 .4-3.5 0-5.2-1.7-5.3-5.2v-9.9h-2.7v-3.6h2.7v-4.5h5zM454 99.5c0-.7.2-1.3.7-1.8.5-.5 1.2-.7 2-.7s1.5.2 2 .7.8 1.1.8 1.8c0 .8-.3 1.4-.8 1.8s-1.2.7-2 .7-1.5-.2-2-.7-.7-1-.7-1.8zm5.2 23.2h-4.9v-18.5h4.9v18.5zM464.6 122.7v-14.8h-2.7v-3.6h2.7v-1.6c0-2.1.6-3.7 1.8-4.8 1.2-1.1 2.9-1.7 5-1.7.7 0 1.5.1 2.5.3l-.1 3.8c-.4-.1-.9-.2-1.5-.2-1.9 0-2.8.9-2.8 2.6v1.5h3.7v3.6h-3.7v14.8h-4.9zM491.4 115.8l3.4-11.5h5.3l-7.4 21.3-.4 1c-1.1 2.4-2.9 3.6-5.5 3.6-.7 0-1.4-.1-2.2-.3v-3.7h.8c.9 0 1.6-.1 2.1-.4.5-.3.8-.8 1.1-1.4l.6-1.5-6.5-18.5h5.3l3.4 11.4zM501.2 113.3c0-1.8.4-3.5 1.1-4.9.7-1.4 1.7-2.5 3-3.3 1.3-.8 2.9-1.2 4.6-1.2 2.5 0 4.5.8 6.1 2.3 1.6 1.5 2.5 3.6 2.6 6.2v1.3c0 2.8-.8 5.1-2.4 6.8-1.6 1.7-3.7 2.6-6.4 2.6s-4.8-.9-6.4-2.6c-1.6-1.7-2.4-4-2.4-7v-.2zm5 .4c0 1.8.3 3.1 1 4 .7.9 1.6 1.4 2.8 1.4 1.2 0 2.1-.5 2.8-1.4.7-.9 1-2.4 1-4.4 0-1.7-.3-3.1-1-4s-1.6-1.4-2.8-1.4c-1.2 0-2.1.5-2.8 1.4-.7 1-1 2.4-1 4.4zM532.8 120.9c-1.2 1.5-2.9 2.2-5 2.2-2 0-3.5-.6-4.5-1.7s-1.6-2.8-1.6-5v-12.1h4.9v11.9c0 1.9.9 2.9 2.6 2.9 1.7 0 2.8-.6 3.4-1.7v-13.1h4.9v18.5h-4.6l-.1-1.9zM551.7 108.9c-.7-.1-1.3-.1-1.8-.1-1.9 0-3.1.6-3.7 1.9v12.1h-4.9v-18.5h4.7l.1 2.2c1-1.7 2.4-2.5 4.1-2.5.5 0 1.1.1 1.5.2v4.7z"/><path class="st1" d="M325.5 161c.9 0 1.6-.2 2.2-.8.6-.5.9-1.2.9-2h4.6c0 1.3-.4 2.4-1 3.4-.7 1-1.6 1.8-2.8 2.4s-2.5.9-3.9.9c-2.6 0-4.7-.8-6.2-2.5s-2.3-4-2.3-7v-.3c0-2.8.8-5.1 2.3-6.8s3.6-2.5 6.2-2.5c2.3 0 4.2.7 5.6 2 1.4 1.3 2.1 3.1 2.1 5.2h-4.6c0-1-.3-1.7-.9-2.3-.6-.6-1.3-.9-2.3-.9-1.1 0-2 .4-2.6 1.3-.6.8-.9 2.2-.9 4.1v.5c0 1.9.3 3.3.9 4.1.7.8 1.5 1.2 2.7 1.2zM346.4 150.8c-.7-.1-1.3-.1-1.8-.1-1.9 0-3.1.6-3.7 1.9v12.1H336v-18.5h4.7l.1 2.2c1-1.7 2.4-2.5 4.1-2.5.5 0 1.1.1 1.5.2v4.7zM357.3 165c-2.7 0-4.9-.8-6.6-2.5-1.7-1.7-2.5-3.9-2.5-6.6v-.5c0-1.9.4-3.5 1.1-5 .7-1.5 1.7-2.6 3-3.4 1.3-.8 2.8-1.2 4.5-1.2 2.5 0 4.5.8 6 2.4s2.2 3.8 2.2 6.8v2h-11.8c.2 1.2.6 2.2 1.4 2.9s1.8 1.1 3 1.1c1.9 0 3.4-.7 4.5-2.1l2.4 2.7c-.7 1-1.7 1.9-3 2.4-1.3.7-2.7 1-4.2 1zm-.6-15.2c-1 0-1.8.3-2.4 1-.6.7-1 1.6-1.2 2.8h6.9v-.4c0-1.1-.3-1.9-.9-2.5s-1.3-.9-2.4-.9zM366.9 155.3c0-2.9.6-5.2 1.9-6.9 1.3-1.7 3.1-2.6 5.3-2.6 1.8 0 3.3.7 4.5 2v-9.4h4.9v26.2H379l-.2-2c-1.2 1.5-2.8 2.3-4.7 2.3-2.2 0-3.9-.9-5.2-2.6-1.3-1.6-2-4-2-7zm4.9.4c0 1.7.3 3.1.9 4s1.5 1.4 2.6 1.4c1.5 0 2.6-.6 3.2-1.9v-7.3c-.6-1.3-1.7-1.9-3.2-1.9-2.3-.1-3.5 1.8-3.5 5.7zM387.3 141.4c0-.7.2-1.3.7-1.8.5-.5 1.2-.7 2-.7s1.5.2 2 .7.8 1.1.8 1.8c0 .8-.3 1.4-.8 1.8s-1.2.7-2 .7-1.5-.2-2-.7-.7-1-.7-1.8zm5.3 23.3h-4.9v-18.5h4.9v18.5zM402.5 141.7v4.5h3.2v3.6h-3.2v9.2c0 .7.1 1.2.4 1.5.3.3.8.4 1.5.4.5 0 1 0 1.4-.1v3.7c-1 .3-2 .4-3 .4-3.5 0-5.2-1.7-5.3-5.2v-9.9h-2.7v-3.6h2.7v-4.5h5zM427.1 159.6c0-.6-.3-1.1-.9-1.4-.6-.3-1.6-.7-2.9-.9-4.4-.9-6.6-2.8-6.6-5.6 0-1.6.7-3 2-4.1 1.4-1.1 3.1-1.6 5.3-1.6 2.3 0 4.2.6 5.6 1.7s2.1 2.5 2.1 4.3h-4.9c0-.7-.2-1.3-.7-1.7-.5-.5-1.2-.7-2.1-.7-.8 0-1.5.2-1.9.6s-.7.9-.7 1.4c0 .5.3 1 .8 1.3.5.3 1.4.6 2.6.9 1.2.2 2.3.5 3.1.8 2.6 1 3.9 2.6 3.9 5 0 1.7-.7 3-2.2 4.1-1.4 1-3.3 1.6-5.6 1.6-1.5 0-2.9-.3-4.1-.8-1.2-.6-2.1-1.3-2.8-2.3s-1-2-1-3.1h4.7c0 .9.4 1.5 1 2s1.4.7 2.4.7c.9 0 1.7-.2 2.1-.5.6-.7.8-1.2.8-1.7zM442.8 161c.9 0 1.6-.2 2.2-.8.6-.5.9-1.2.9-2h4.6c0 1.3-.4 2.4-1 3.4-.7 1-1.6 1.8-2.8 2.4-1.2.6-2.5.9-3.9.9-2.6 0-4.7-.8-6.2-2.5s-2.3-4-2.3-7v-.3c0-2.8.8-5.1 2.3-6.8 1.5-1.7 3.6-2.5 6.2-2.5 2.3 0 4.2.7 5.6 2 1.4 1.3 2.1 3.1 2.1 5.2h-4.6c0-1-.3-1.7-.9-2.3-.6-.6-1.3-.9-2.3-.9-1.1 0-2 .4-2.6 1.3-.6.8-.9 2.2-.9 4.1v.5c0 1.9.3 3.3.9 4.1s1.5 1.2 2.7 1.2zM452.5 155.3c0-1.8.4-3.5 1.1-4.9.7-1.4 1.7-2.5 3-3.3 1.3-.8 2.9-1.2 4.6-1.2 2.5 0 4.5.8 6.1 2.3 1.6 1.5 2.5 3.6 2.6 6.2v1.3c0 2.8-.8 5.1-2.4 6.8-1.6 1.7-3.7 2.6-6.4 2.6s-4.8-.9-6.4-2.6c-1.6-1.7-2.4-4-2.4-7v-.2zm5 .3c0 1.8.3 3.1 1 4 .7.9 1.6 1.4 2.8 1.4 1.2 0 2.1-.5 2.8-1.4.7-.9 1-2.4 1-4.4 0-1.7-.3-3.1-1-4s-1.6-1.4-2.8-1.4c-1.2 0-2.1.5-2.8 1.4-.7 1-1 2.4-1 4.4zM483.4 150.8c-.7-.1-1.3-.1-1.8-.1-1.9 0-3.1.6-3.7 1.9v12.1H473v-18.5h4.7l.1 2.2c1-1.7 2.4-2.5 4.1-2.5.5 0 1.1.1 1.5.2v4.7zM494.3 165c-2.7 0-4.9-.8-6.6-2.5-1.7-1.7-2.6-3.9-2.6-6.6v-.5c0-1.9.4-3.5 1.1-5 .7-1.5 1.7-2.6 3-3.4 1.3-.8 2.8-1.2 4.5-1.2 2.5 0 4.5.8 6 2.4s2.2 3.8 2.2 6.8v2h-11.8c.2 1.2.6 2.2 1.4 2.9s1.8 1.1 3 1.1c1.9 0 3.4-.7 4.5-2.1l2.4 2.7c-.7 1-1.7 1.9-3 2.4-1.2.7-2.6 1-4.1 1zm-.6-15.2c-1 0-1.8.3-2.4 1-.6.7-1 1.6-1.2 2.8h6.9v-.4c0-1.1-.3-1.9-.9-2.5s-1.3-.9-2.4-.9z"/><path class="st0" d="M518.2 148.2c1.3-1.6 3-2.4 4.9-2.4 4 0 6 2.3 6.1 7v11.8h-4.9V153c0-1.1-.2-1.8-.7-2.3-.5-.5-1.2-.8-2.3-.8-1.4 0-2.5.6-3.1 1.7v13.1h-4.9v-26.2h4.9v9.7zM543.6 164.7c-.2-.4-.4-1-.5-1.7-1.2 1.3-2.7 2-4.7 2-1.8 0-3.3-.5-4.5-1.6-1.2-1-1.8-2.4-1.8-4 0-2 .7-3.5 2.2-4.5 1.4-1 3.5-1.6 6.3-1.6h2.3v-1.1c0-.9-.2-1.5-.7-2s-1.1-.8-2.1-.8c-.8 0-1.5.2-2 .6-.5.4-.7.9-.7 1.6h-4.9c0-1.1.3-2.1 1-3 .7-.9 1.6-1.6 2.8-2.1 1.2-.5 2.6-.8 4.1-.8 2.3 0 4.1.6 5.4 1.7 1.3 1.1 2 2.7 2 4.8v8c0 1.8.3 3.1.7 4v.3h-4.9zm-4.1-3.5c.7 0 1.4-.2 2-.5.6-.3 1.1-.8 1.4-1.3v-3.2h-1.8c-2.5 0-3.8.9-3.9 2.6v.3c0 .6.2 1.1.6 1.5.4.4 1 .6 1.7.6zM561.7 159.6c0-.6-.3-1.1-.9-1.4-.6-.3-1.6-.7-2.9-.9-4.4-.9-6.6-2.8-6.6-5.6 0-1.6.7-3 2-4.1 1.4-1.1 3.1-1.6 5.3-1.6 2.3 0 4.2.6 5.6 1.7s2.1 2.5 2.1 4.3h-4.9c0-.7-.2-1.3-.7-1.7-.5-.5-1.2-.7-2.1-.7-.8 0-1.5.2-1.9.6s-.7.9-.7 1.4c0 .5.3 1 .8 1.3.5.3 1.4.6 2.6.9 1.2.2 2.3.5 3.1.8 2.6 1 3.9 2.6 3.9 5 0 1.7-.7 3-2.2 4.1-1.4 1-3.3 1.6-5.6 1.6-1.5 0-2.9-.3-4.1-.8-1.2-.6-2.1-1.3-2.8-2.3s-1-2-1-3.1h4.7c0 .9.4 1.5 1 2s1.4.7 2.4.7c.9 0 1.7-.2 2.1-.5.5-.7.8-1.2.8-1.7zM586 161c.9 0 1.6-.2 2.2-.8.6-.5.9-1.2.9-2h4.6c0 1.3-.4 2.4-1 3.4-.7 1-1.6 1.8-2.8 2.4-1.2.6-2.5.9-3.9.9-2.6 0-4.7-.8-6.2-2.5s-2.3-4-2.3-7v-.3c0-2.8.8-5.1 2.3-6.8 1.5-1.7 3.6-2.5 6.2-2.5 2.3 0 4.2.7 5.6 2 1.4 1.3 2.1 3.1 2.1 5.2h-4.6c0-1-.3-1.7-.9-2.3-.6-.6-1.3-.9-2.3-.9-1.1 0-2 .4-2.6 1.3-.6.8-.9 2.2-.9 4.1v.5c0 1.9.3 3.3.9 4.1s1.5 1.2 2.7 1.2zM601.3 148.2c1.3-1.6 3-2.4 4.9-2.4 4 0 6 2.3 6.1 7v11.8h-4.9V153c0-1.1-.2-1.8-.7-2.3-.5-.5-1.2-.8-2.3-.8-1.4 0-2.5.6-3.1 1.7v13.1h-4.9v-26.2h4.9v9.7zM626.8 164.7c-.2-.4-.4-1-.5-1.7-1.2 1.3-2.7 2-4.7 2-1.8 0-3.3-.5-4.5-1.6-1.2-1-1.8-2.4-1.8-4 0-2 .7-3.5 2.2-4.5 1.4-1 3.5-1.6 6.3-1.6h2.3v-1.1c0-.9-.2-1.5-.7-2s-1.1-.8-2.1-.8c-.8 0-1.5.2-2 .6-.5.4-.7.9-.7 1.6h-4.9c0-1.1.3-2.1 1-3 .7-.9 1.6-1.6 2.8-2.1 1.2-.5 2.6-.8 4.1-.8 2.3 0 4.1.6 5.4 1.7 1.3 1.1 2 2.7 2 4.8v8c0 1.8.3 3.1.7 4v.3h-4.9zm-4.1-3.5c.7 0 1.4-.2 2-.5.6-.3 1.1-.8 1.4-1.3v-3.2h-1.8c-2.5 0-3.8.9-3.9 2.6v.3c0 .6.2 1.1.6 1.5.4.4.9.6 1.7.6zM639.3 146.2l.2 2.1c1.3-1.6 3.1-2.5 5.3-2.5 2 0 3.4.6 4.4 1.7s1.4 2.9 1.5 5.2v11.9h-4.9v-11.8c0-1-.2-1.8-.7-2.3-.5-.5-1.2-.7-2.3-.7-1.4 0-2.4.6-3.1 1.8v13h-4.9v-18.5h4.5zM653.7 155.3c0-2.8.7-5.1 2-6.8s3.2-2.6 5.4-2.6c2 0 3.6.7 4.7 2.1l.2-1.7h4.5V164c0 1.6-.4 3-1.1 4.2-.7 1.2-1.8 2.1-3.1 2.7-1.3.6-2.9.9-4.7.9-1.4 0-2.7-.3-4-.8-1.3-.5-2.3-1.2-2.9-2.1l2.2-3c1.2 1.4 2.7 2.1 4.5 2.1 1.3 0 2.3-.3 3.1-1 .7-.7 1.1-1.7 1.1-3v-1c-1.1 1.3-2.6 1.9-4.5 1.9-2.2 0-4-.9-5.4-2.6-1.4-1.7-2.1-4-2.1-6.9v-.1zm4.9.4c0 1.7.3 3 1 3.9.7 1 1.6 1.4 2.8 1.4 1.5 0 2.6-.6 3.2-1.7v-7.8c-.7-1.1-1.7-1.7-3.2-1.7-1.2 0-2.1.5-2.8 1.5s-1 2.4-1 4.4zM682.8 165c-2.7 0-4.9-.8-6.6-2.5-1.7-1.7-2.5-3.9-2.5-6.6v-.5c0-1.9.4-3.5 1.1-5 .7-1.5 1.7-2.6 3-3.4 1.3-.8 2.8-1.2 4.5-1.2 2.5 0 4.5.8 6 2.4s2.2 3.8 2.2 6.8v2h-11.8c.2 1.2.6 2.2 1.4 2.9s1.8 1.1 3 1.1c1.9 0 3.4-.7 4.5-2.1l2.4 2.7c-.7 1-1.7 1.9-3 2.4-1.3.7-2.7 1-4.2 1zm-.6-15.2c-1 0-1.8.3-2.4 1-.6.7-1 1.6-1.2 2.8h6.9v-.4c0-1.1-.3-1.9-.9-2.5s-1.3-.9-2.4-.9zM692.4 155.3c0-2.9.6-5.2 1.9-6.9 1.3-1.7 3.1-2.6 5.3-2.6 1.8 0 3.3.7 4.5 2v-9.4h4.9v26.2h-4.5l-.2-2c-1.2 1.5-2.8 2.3-4.7 2.3-2.2 0-3.9-.9-5.2-2.6-1.3-1.6-2-4-2-7zm5 .4c0 1.7.3 3.1.9 4s1.5 1.4 2.6 1.4c1.5 0 2.6-.6 3.2-1.9v-7.3c-.6-1.3-1.7-1.9-3.2-1.9-2.4-.1-3.5 1.8-3.5 5.7zM713.1 162.2c0-.8.3-1.4.8-1.9s1.2-.7 2-.7 1.5.2 2 .7c.5.5.8 1.1.8 1.9 0 .8-.3 1.4-.8 1.9s-1.2.7-2 .7-1.5-.2-2-.7-.8-1.1-.8-1.9z"/></svg>