<svg id="Layer_1" xmlns="http://www.w3.org/2000/svg" viewBox="0 0 970 250"><style>.st0{fill:#2a3380}</style><path class="st0" d="M328.7 189.7h-5.5v4.5h6.4v1.4h-8.1v-12.8h8v1.4h-6.4v4.1h5.5v1.4zM332.9 186.1l.1 1.2c.7-.9 1.7-1.4 2.8-1.4 2 0 3 1.1 3 3.4v6.3h-1.6v-6.3c0-.7-.2-1.2-.5-1.5-.3-.3-.8-.5-1.4-.5-.5 0-1 .1-1.4.4s-.7.7-.9 1.1v6.8h-1.6v-9.5h1.5zM345.9 187.5c-.2 0-.5-.1-.8-.1-1.1 0-1.8.5-2.2 1.4v6.8h-1.6v-9.5h1.6v1.1c.5-.8 1.3-1.3 2.3-1.3.3 0 .6 0 .7.1v1.5zM346.8 190.7c0-.9.2-1.8.5-2.5.4-.7.9-1.3 1.5-1.7.7-.4 1.4-.6 2.2-.6 1.3 0 2.3.4 3.1 1.3.8.9 1.2 2.1 1.2 3.6v.1c0 .9-.2 1.8-.5 2.5-.4.7-.9 1.3-1.5 1.7-.7.4-1.4.6-2.3.6-1.3 0-2.3-.4-3.1-1.3-.8-.9-1.2-2.1-1.2-3.6v-.1zm1.7.2c0 1.1.2 1.9.7 2.5s1.1 1 2 1c.8 0 1.5-.3 2-1s.7-1.6.7-2.7c0-1-.2-1.9-.7-2.5s-1.2-1-2-1-1.5.3-1.9 1-.8 1.5-.8 2.7zM359.3 195.6h-1.6v-13.5h1.6v13.5zM363.7 195.6H362v-13.5h1.6v13.5zM370.7 183.5c0-.3.1-.5.2-.7s.4-.3.7-.3.6.1.7.3.2.4.2.7-.1.5-.2.7-.4.3-.7.3-.6-.1-.7-.3-.2-.4-.2-.7zm1.8 12.1h-1.6v-9.5h1.6v9.5zM376.6 186.1l.1 1.2c.7-.9 1.7-1.4 2.8-1.4 2 0 3 1.1 3 3.4v6.3h-1.6v-6.3c0-.7-.2-1.2-.5-1.5-.3-.3-.8-.5-1.4-.5-.5 0-1 .1-1.4.4s-.7.7-.9 1.1v6.8h-1.6v-9.5h1.5zM391.4 190.6v5h-1.7v-12.8h4.7c1.4 0 2.5.4 3.3 1.1s1.2 1.7 1.2 2.8c0 1.2-.4 2.2-1.2 2.9-.8.7-1.9 1-3.3 1h-3zm0-1.4h3c.9 0 1.6-.2 2.1-.6s.7-1 .7-1.8-.2-1.4-.7-1.8-1.1-.7-2-.7h-3.1v4.9zM405.4 187.5c-.2 0-.5-.1-.8-.1-1.1 0-1.8.5-2.2 1.4v6.8h-1.6v-9.5h1.6v1.1c.5-.8 1.3-1.3 2.3-1.3.3 0 .6 0 .7.1v1.5zM406.9 183.5c0-.3.1-.5.2-.7s.4-.3.7-.3.6.1.7.3.2.4.2.7-.1.5-.2.7-.4.3-.7.3-.6-.1-.7-.3-.2-.4-.2-.7zm1.8 12.1h-1.6v-9.5h1.6v9.5zM414.4 193.4l2.4-7.3h1.7l-3.4 9.5h-1.2l-3.4-9.5h1.7l2.2 7.3zM425.7 195.6c-.1-.2-.2-.5-.2-1-.8.8-1.7 1.2-2.7 1.2-.9 0-1.7-.3-2.3-.8-.6-.5-.9-1.2-.9-2 0-1 .4-1.8 1.1-2.3.8-.5 1.8-.8 3.2-.8h1.6v-.7c0-.6-.2-1-.5-1.4s-.8-.5-1.5-.5c-.6 0-1.1.1-1.5.4s-.6.6-.6 1.1h-1.6c0-.5.2-.9.5-1.4s.8-.8 1.4-1 1.2-.4 1.9-.4c1.1 0 2 .3 2.6.8s.9 1.3 1 2.3v4.4c0 .9.1 1.6.3 2.1v.1h-1.8zm-2.7-1.3c.5 0 1-.1 1.5-.4s.8-.6 1-1v-2h-1.3c-2 0-3 .6-3 1.7 0 .5.2.9.5 1.2s.8.5 1.3.5zM433.5 194.4c.6 0 1.1-.2 1.5-.5s.7-.8.7-1.3h1.5c0 .5-.2 1.1-.6 1.6s-.8.9-1.4 1.2-1.2.4-1.8.4c-1.3 0-2.3-.4-3.1-1.3-.8-.9-1.1-2-1.1-3.5v-.3c0-.9.2-1.7.5-2.5s.8-1.3 1.5-1.7 1.4-.6 2.3-.6c1.1 0 2 .3 2.7 1 .7.6 1.1 1.5 1.1 2.5h-1.5c0-.6-.3-1.1-.7-1.5-.4-.4-.9-.6-1.6-.6-.8 0-1.5.3-1.9.9s-.7 1.5-.7 2.6v.3c0 1.1.2 1.9.7 2.5s1 .8 1.9.8zM442.2 193.2l2.2-7.1h1.7l-3.8 11c-.6 1.6-1.5 2.4-2.8 2.4h-.3l-.6-.1V198h.4c.6 0 1-.1 1.3-.3.3-.2.6-.6.8-1.2l.4-1-3.4-9.4h1.8l2.3 7.1zM457.3 193.9c-.4.6-1 1.1-1.8 1.4-.8.3-1.7.5-2.7.5-1 0-2-.2-2.8-.7s-1.4-1.2-1.9-2.1c-.4-.9-.7-1.9-.7-3.1v-1.1c0-1.9.4-3.4 1.3-4.5s2.2-1.6 3.8-1.6c1.3 0 2.4.3 3.2 1s1.3 1.7 1.5 2.9h-1.7c-.3-1.7-1.3-2.5-3-2.5-1.1 0-2 .4-2.6 1.2-.6.8-.9 1.9-.9 3.5v1c0 1.4.3 2.6 1 3.4s1.5 1.3 2.7 1.3c.6 0 1.2-.1 1.7-.2s.9-.4 1.2-.7v-2.9h-3v-1.4h4.6v4.6zM465.7 194.6c-.6.7-1.6 1.1-2.8 1.1-1 0-1.8-.3-2.3-.9-.5-.6-.8-1.5-.8-2.6V186h1.6v6.1c0 1.4.6 2.2 1.8 2.2 1.2 0 2.1-.5 2.5-1.4V186h1.6v9.5h-1.5l-.1-.9zM475.7 195.6c-.1-.2-.2-.5-.2-1-.8.8-1.7 1.2-2.7 1.2-.9 0-1.7-.3-2.3-.8-.6-.5-.9-1.2-.9-2 0-1 .4-1.8 1.1-2.3.8-.5 1.8-.8 3.2-.8h1.6v-.7c0-.6-.2-1-.5-1.4s-.8-.5-1.5-.5c-.6 0-1.1.1-1.5.4s-.6.6-.6 1.1h-1.6c0-.5.2-.9.5-1.4s.8-.8 1.4-1 1.2-.4 1.9-.4c1.1 0 2 .3 2.6.8s.9 1.3 1 2.3v4.4c0 .9.1 1.6.3 2.1v.1h-1.8zm-2.7-1.3c.5 0 1-.1 1.5-.4s.8-.6 1-1v-2h-1.3c-2 0-3 .6-3 1.7 0 .5.2.9.5 1.2s.7.5 1.3.5zM484.2 187.5c-.2 0-.5-.1-.8-.1-1.1 0-1.8.5-2.2 1.4v6.8h-1.6v-9.5h1.6v1.1c.5-.8 1.3-1.3 2.3-1.3.3 0 .6 0 .7.1v1.5zM485.3 190.7c0-1.5.3-2.6 1-3.5s1.6-1.3 2.7-1.3 2 .4 2.6 1.1v-5h1.6v13.5h-1.5l-.1-1c-.7.8-1.6 1.2-2.7 1.2s-2-.5-2.7-1.4c-.7-.9-1-2.1-1-3.5v-.1zm1.6.2c0 1.1.2 1.9.7 2.5s1.1.9 1.8.9c1 0 1.8-.5 2.3-1.4v-4.4c-.5-.9-1.2-1.3-2.2-1.3-.8 0-1.4.3-1.9.9s-.7 1.6-.7 2.8zM501.1 195.6v-8.3h-1.5V186h1.5v-1c0-1 .3-1.8.8-2.4s1.3-.8 2.3-.8c.4 0 .7 0 1.1.1l-.1 1.3c-.3-.1-.6-.1-.9-.1-.5 0-.9.2-1.2.5s-.4.8-.4 1.3v1h2v1.3h-2v8.3h-1.6zM506.1 190.7c0-.9.2-1.8.5-2.5.4-.7.9-1.3 1.5-1.7.7-.4 1.4-.6 2.2-.6 1.3 0 2.3.4 3.1 1.3.8.9 1.2 2.1 1.2 3.6v.1c0 .9-.2 1.8-.5 2.5-.4.7-.9 1.3-1.5 1.7-.7.4-1.4.6-2.3.6-1.3 0-2.3-.4-3.1-1.3-.8-.9-1.2-2.1-1.2-3.6v-.1zm1.6.2c0 1.1.2 1.9.7 2.5s1.1 1 2 1c.8 0 1.5-.3 2-1s.7-1.6.7-2.7c0-1-.2-1.9-.7-2.5s-1.2-1-2-1-1.5.3-1.9 1-.8 1.5-.8 2.7zM521.4 187.5c-.2 0-.5-.1-.8-.1-1.1 0-1.8.5-2.2 1.4v6.8h-1.6v-9.5h1.6v1.1c.5-.8 1.3-1.3 2.3-1.3.3 0 .6 0 .7.1v1.5zM535.6 195.6h-8.4v-1.2l4.4-4.9c.7-.7 1.1-1.3 1.4-1.8.2-.5.4-.9.4-1.4 0-.7-.2-1.2-.6-1.6s-.9-.6-1.6-.6c-.8 0-1.4.2-1.9.7-.4.5-.7 1.1-.7 1.9H527c0-1.2.4-2.1 1.1-2.9s1.8-1.1 3-1.1 2.1.3 2.8.9 1 1.5 1 2.5c0 1.3-.8 2.8-2.4 4.5l-3.4 3.7h6.4v1.3zM544.1 191.3h1.8v1.3h-1.8v3h-1.6v-3h-5.8v-1l5.7-8.9h1.7v8.6zm-5.6 0h4V185l-.2.4-3.8 5.9zM547.9 196.7h-1.4l5.3-13.9h1.4l-5.3 13.9zM563.1 183.7l-5.3 11.9h-1.7l5.3-11.5h-6.9v-1.3h8.6v.9zM573.3 194.4c.6 0 1.1-.2 1.5-.5s.7-.8.7-1.3h1.5c0 .5-.2 1.1-.6 1.6s-.8.9-1.4 1.2-1.2.4-1.8.4c-1.3 0-2.3-.4-3.1-1.3-.8-.9-1.1-2-1.1-3.5v-.3c0-.9.2-1.7.5-2.5s.8-1.3 1.5-1.7 1.4-.6 2.3-.6c1.1 0 2 .3 2.7 1 .7.6 1.1 1.5 1.1 2.5h-1.5c0-.6-.3-1.1-.7-1.5-.4-.4-.9-.6-1.6-.6-.8 0-1.5.3-1.9.9s-.7 1.5-.7 2.6v.3c0 1.1.2 1.9.7 2.5s1.1.8 1.9.8zM583.5 187.5c-.2 0-.5-.1-.8-.1-1.1 0-1.8.5-2.2 1.4v6.8H579v-9.5h1.6v1.1c.5-.8 1.3-1.3 2.3-1.3.3 0 .6 0 .7.1v1.5zM589 195.8c-1.3 0-2.3-.4-3.1-1.3s-1.2-2-1.2-3.4v-.3c0-.9.2-1.8.5-2.5.4-.7.9-1.3 1.5-1.7s1.3-.6 2.1-.6c1.2 0 2.2.4 2.9 1.2s1 2 1 3.5v.7h-6.4c0 .9.3 1.7.8 2.3.5.6 1.2.9 2 .9.6 0 1.1-.1 1.5-.4s.7-.5 1-.9l1 .8c-.8 1-2 1.7-3.6 1.7zm-.2-8.6c-.7 0-1.2.2-1.7.7s-.7 1.1-.8 2h4.8v-.1c0-.8-.3-1.5-.7-1.9s-.9-.7-1.6-.7zM594.2 190.7c0-1.5.3-2.6 1-3.5s1.6-1.3 2.7-1.3 2 .4 2.6 1.1v-5h1.6v13.5h-1.5l-.1-1c-.7.8-1.6 1.2-2.7 1.2s-2-.5-2.7-1.4c-.7-.9-1-2.1-1-3.5v-.1zm1.6.2c0 1.1.2 1.9.7 2.5s1.1.9 1.8.9c1 0 1.8-.5 2.3-1.4v-4.4c-.5-.9-1.2-1.3-2.2-1.3-.8 0-1.4.3-1.9.9s-.7 1.6-.7 2.8zM604.7 183.5c0-.3.1-.5.2-.7s.4-.3.7-.3.6.1.7.3.2.4.2.7-.1.5-.2.7-.4.3-.7.3-.6-.1-.7-.3-.2-.4-.2-.7zm1.8 12.1h-1.6v-9.5h1.6v9.5zM611.3 183.8v2.3h1.8v1.3h-1.8v5.9c0 .4.1.7.2.9s.4.3.8.3c.2 0 .4 0 .8-.1v1.3c-.4.1-.8.2-1.2.2-.7 0-1.3-.2-1.6-.7s-.6-1.1-.6-1.9v-5.9H608v-1.3h1.7v-2.3h1.6zM621 186.1v1.1c.7-.8 1.6-1.2 2.8-1.2 1.3 0 2.2.5 2.7 1.5.3-.5.7-.8 1.2-1.1.5-.3 1.1-.4 1.8-.4 2.1 0 3.1 1.1 3.2 3.3v6.4h-1.6v-6.3c0-.7-.2-1.2-.5-1.5s-.8-.5-1.6-.5c-.6 0-1.1.2-1.5.5s-.6.8-.7 1.5v6.3h-1.6v-6.2c0-1.4-.7-2.1-2-2.1-1.1 0-1.8.5-2.2 1.4v6.9h-1.6v-9.5h1.6zM634.8 190.7c0-.9.2-1.8.5-2.5.4-.7.9-1.3 1.5-1.7.7-.4 1.4-.6 2.2-.6 1.3 0 2.3.4 3.1 1.3.8.9 1.2 2.1 1.2 3.6v.1c0 .9-.2 1.8-.5 2.5-.4.7-.9 1.3-1.5 1.7-.7.4-1.4.6-2.3.6-1.3 0-2.3-.4-3.1-1.3-.8-.9-1.2-2.1-1.2-3.6v-.1zm1.6.2c0 1.1.2 1.9.7 2.5s1.1 1 2 1c.8 0 1.5-.3 2-1s.7-1.6.7-2.7c0-1-.2-1.9-.7-2.5s-1.2-1-2-1-1.5.3-1.9 1-.8 1.5-.8 2.7zM647 186.1l.1 1.2c.7-.9 1.7-1.4 2.8-1.4 2 0 3 1.1 3 3.4v6.3h-1.6v-6.3c0-.7-.2-1.2-.5-1.5-.3-.3-.8-.5-1.4-.5-.5 0-1 .1-1.4.4s-.7.7-.9 1.1v6.8h-1.6v-9.5h1.5zM655.4 183.5c0-.3.1-.5.2-.7s.4-.3.7-.3.6.1.7.3.2.4.2.7-.1.5-.2.7-.4.3-.7.3-.6-.1-.7-.3-.2-.4-.2-.7zm1.8 12.1h-1.6v-9.5h1.6v9.5zM662 183.8v2.3h1.8v1.3H662v5.9c0 .4.1.7.2.9s.4.3.8.3c.2 0 .4 0 .8-.1v1.3c-.4.1-.8.2-1.2.2-.7 0-1.3-.2-1.6-.7s-.6-1.1-.6-1.9v-5.9h-1.7v-1.3h1.7v-2.3h1.6zM665 190.7c0-.9.2-1.8.5-2.5.4-.7.9-1.3 1.5-1.7.7-.4 1.4-.6 2.2-.6 1.3 0 2.3.4 3.1 1.3.8.9 1.2 2.1 1.2 3.6v.1c0 .9-.2 1.8-.5 2.5-.4.7-.9 1.3-1.5 1.7-.7.4-1.4.6-2.3.6-1.3 0-2.3-.4-3.1-1.3-.8-.9-1.2-2.1-1.2-3.6v-.1zm1.7.2c0 1.1.2 1.9.7 2.5s1.1 1 2 1c.8 0 1.5-.3 2-1s.7-1.6.7-2.7c0-1-.2-1.9-.7-2.5s-1.2-1-2-1-1.5.3-1.9 1-.8 1.5-.8 2.7zM680.3 187.5c-.2 0-.5-.1-.8-.1-1.1 0-1.8.5-2.2 1.4v6.8h-1.6v-9.5h1.6v1.1c.5-.8 1.3-1.3 2.3-1.3.3 0 .6 0 .7.1v1.5zM681.8 183.5c0-.3.1-.5.2-.7s.4-.3.7-.3.6.1.7.3.2.4.2.7-.1.5-.2.7-.4.3-.7.3-.6-.1-.7-.3-.2-.4-.2-.7zm1.8 12.1H682v-9.5h1.6v9.5zM687.7 186.1l.1 1.2c.7-.9 1.7-1.4 2.8-1.4 2 0 3 1.1 3 3.4v6.3H692v-6.3c0-.7-.2-1.2-.5-1.5-.3-.3-.8-.5-1.4-.5-.5 0-1 .1-1.4.4s-.7.7-.9 1.1v6.8h-1.6v-9.5h1.5zM695.7 190.7c0-1.5.3-2.7 1-3.5s1.6-1.3 2.7-1.3c1.2 0 2.1.4 2.7 1.2l.1-1.1h1.5v9.3c0 1.2-.4 2.2-1.1 2.9-.7.7-1.7 1.1-2.9 1.1-.7 0-1.4-.1-2-.4s-1.2-.7-1.5-1.2l.8-1c.7.9 1.5 1.3 2.6 1.3.8 0 1.4-.2 1.8-.7s.7-1.1.7-1.9v-.8c-.7.8-1.5 1.1-2.7 1.1-1.1 0-2-.4-2.7-1.3-.6-.9-1-2.1-1-3.7zm1.7.2c0 1.1.2 1.9.7 2.5s1.1.9 1.8.9c1 0 1.8-.5 2.3-1.4v-4.3c-.5-.9-1.2-1.4-2.2-1.4-.8 0-1.4.3-1.9.9s-.7 1.6-.7 2.8zM706.3 194.7c0-.3.1-.5.2-.7.2-.2.4-.3.8-.3s.6.1.8.3.3.4.3.7c0 .3-.1.5-.3.7s-.4.3-.8.3-.6-.1-.8-.3c-.1-.2-.2-.4-.2-.7z"/></svg>