<svg id="Layer_1" xmlns="http://www.w3.org/2000/svg" viewBox="0 0 970 250"><style>.st0{fill:#e72f8a;stroke:url(#SVGID_1_);stroke-width:.9465;stroke-miterlimit:10}.st1{fill:#fff}</style><linearGradient id="SVGID_1_" gradientUnits="userSpaceOnUse" x1="804.521" y1="137.523" x2="912.744" y2="137.523"><stop offset="0" stop-color="#41b5e8"/><stop offset=".5" stop-color="#6a53a3"/><stop offset="1" stop-color="#e72e8a"/></linearGradient><path class="st0" d="M895.6 158.8h-74c-9.2 0-16.6-7.4-16.6-16.6v-9.4c0-9.2 7.4-16.6 16.6-16.6h74c9.2 0 16.6 7.4 16.6 16.6v9.4c.1 9.2-7.4 16.6-16.6 16.6z"/><path class="st1" d="M830.4 132.7h-4v10.8h-2.7v-10.8h-3.9v-2.2h10.5v2.2zM836.6 136.2c-.3 0-.7-.1-.9-.1-1 0-1.6.3-1.9 1v6.3h-2.6v-9.6h2.4l.1 1.1c.5-.9 1.2-1.3 2.1-1.3.3 0 .6 0 .8.1v2.5zM841.4 139.8l1.8-6h2.8l-3.9 11.1-.2.5c-.6 1.3-1.5 1.9-2.8 1.9-.4 0-.8-.1-1.1-.2v-1.9h.4c.5 0 .8-.1 1.1-.2s.4-.4.6-.7l.3-.8-3.4-9.7h2.8l1.6 6zM860.9 132.7h-4v10.8h-2.7v-10.8h-3.9v-2.2h10.5v2.2zM860 138.5c0-1 .2-1.8.6-2.6.4-.7.9-1.3 1.6-1.7.7-.4 1.5-.6 2.4-.6 1.3 0 2.4.4 3.2 1.2s1.3 1.9 1.4 3.2v.7c0 1.5-.4 2.7-1.2 3.6-.8.9-1.9 1.3-3.3 1.3s-2.5-.4-3.3-1.3-1.2-2.1-1.2-3.6v-.2zm2.6.2c0 .9.2 1.6.5 2.1s.8.7 1.5.7c.6 0 1.1-.2 1.5-.7.3-.5.5-1.2.5-2.3 0-.9-.2-1.6-.5-2.1-.4-.5-.8-.7-1.5-.7-.6 0-1.1.2-1.5.7-.4.5-.5 1.3-.5 2.3zM870.3 138.6c0-1.5.3-2.7 1-3.6s1.6-1.3 2.8-1.3c.9 0 1.7.4 2.3 1v-4.9h2.6v13.7h-2.3l-.1-1c-.6.8-1.5 1.2-2.5 1.2-1.1 0-2-.4-2.7-1.3-.8-1-1.1-2.2-1.1-3.8zm2.6.2c0 .9.2 1.6.5 2.1s.8.7 1.4.7c.8 0 1.4-.3 1.7-1v-3.8c-.3-.7-.9-1-1.7-1-1.3-.1-1.9.9-1.9 3zM886.5 143.5c-.1-.2-.2-.5-.3-.9-.6.7-1.4 1-2.4 1-.9 0-1.7-.3-2.3-.8-.6-.5-.9-1.2-.9-2.1 0-1 .4-1.8 1.1-2.3.8-.5 1.8-.8 3.3-.8h1.2v-.6c0-.4-.1-.8-.3-1.1-.2-.3-.6-.4-1.1-.4-.4 0-.8.1-1 .3-.2.2-.4.5-.4.9h-2.6c0-.6.2-1.1.5-1.5s.8-.8 1.5-1.1 1.3-.4 2.1-.4c1.2 0 2.1.3 2.8.9.7.6 1 1.4 1 2.5v4.2c0 .9.1 1.6.4 2.1v.2h-2.6zm-2.1-1.8c.4 0 .7-.1 1-.3s.6-.4.7-.7V139h-1c-1.3 0-2 .4-2.1 1.3v.2c0 .3.1.6.3.8.4.3.7.4 1.1.4zM894.3 139.8l1.8-6h2.8l-3.9 11.1-.2.5c-.6 1.3-1.5 1.9-2.8 1.9-.4 0-.8-.1-1.1-.2v-1.9h.4c.5 0 .8-.1 1.1-.2s.4-.4.6-.7l.3-.8-3.4-9.7h2.8l1.6 6z"/></svg>