<svg id="Layer_1" xmlns="http://www.w3.org/2000/svg" viewBox="0 0 970 250"><style>.st0{fill:#2a3380}.st1{fill:url(#SVGID_1_)}</style><g id="PG_x5F_Logo_x5F_W_00000163037804713499684890000015855969171249929344_"><path class="st0" d="M446.6 50.1c0-.2.1-.4.2-.6.2-.2.4-.2.6-.2.2 0 .4.1.6.2.2.2.3.4.3.6v9.3c0 .2-.1.4-.2.6-.2.2-.4.2-.6.2-.2 0-.4-.1-.6-.2-.2-.2-.3-.4-.3-.6v-9.3zM399.8 64.7c-.7.5-1.5.8-2.4.8-.5 0-.9-.1-1.2-.2-.3-.1-.6-.2-.8-.4-.2-.2-.4-.4-.4-.7 0-.2.1-.4.2-.6.2-.2.4-.2.6-.2.2 0 .4.1.5.2.4.2.8.3 1.2.3.3 0 .6-.1.9-.2.3-.1.5-.3.7-.5.2-.2.4-.4.5-.7.1-.3.2-.5.2-.9v-6.3c0-.2.1-.4.2-.6.2-.2.4-.2.6-.2.2 0 .4.1.6.2.2.2.3.4.3.6v6.3c0 1.3-.6 2.3-1.7 3.1zM362.3 46.3c0-.2.1-.4.2-.6.2-.2.4-.2.6-.2.2 0 .4.1.6.2.2.2.3.4.3.6v.6c0 .2-.1.4-.2.6-.2.2-.4.2-.6.2-.2 0-.4-.1-.6-.2-.2-.2-.3-.4-.3-.6v-.6zm0 3.8c0-.2.1-.4.2-.6.2-.2.4-.2.6-.2.2 0 .4.1.6.2.2.2.3.4.3.6v9.2c0 .2-.1.4-.2.6-.2.2-.4.2-.6.2-.2 0-.4-.1-.6-.2-.2-.2-.3-.4-.3-.6v-9.2zM355.1 50.4c0-.2.1-.4.2-.6.2-.2.3-.2.6-.2.2 0 .4.1.5.2.1.1.2.3.3.5.7-.5 1.5-.7 2.4-.7.5 0 .9.1 1.2.2.3.1.6.2.8.4.2.2.4.4.4.7 0 .2-.1.4-.2.6-.2.1-.3.2-.6.2-.2 0-.3 0-.5-.1-.4-.2-.7-.3-1.1-.3-.3 0-.6.1-.9.2-.3.1-.5.3-.7.5-.2.2-.4.4-.5.7-.1.3-.2.5-.2.8v6.1c0 .2-.1.4-.2.6-.2.2-.3.2-.6.2-.2 0-.4-.1-.6-.2-.2-.2-.2-.3-.2-.6v-9.2zM365.1 50.5c0-.1-.1-.2-.1-.3 0-.2.1-.4.2-.6.1-.2.3-.3.6-.3.2 0 .3 0 .4.1.1.1.2.2.3.4l3.2 7.5 3.2-7.5c.1-.3.4-.5.8-.5.2 0 .4.1.6.3.1.2.2.4.2.6 0 .1 0 .2-.1.3l-4 9.3c-.2.3-.4.5-.8.5s-.6-.2-.8-.5l-3.7-9.3zM374.9 53.2c0-.5.1-1.1.3-1.5.2-.5.5-.9.9-1.3s.8-.6 1.3-.8c.5-.2 1-.3 1.5-.3s1.1.1 1.5.3c.5.2.9.5 1.3.8.4.4.6.8.9 1.3.2.5.3 1 .3 1.5v6.2c0 .2-.1.4-.3.6-.2.2-.4.2-.6.2-.2 0-.4-.1-.5-.2-.2-.1-.2-.3-.3-.5-.7.5-1.4.7-2.3.7-.5 0-1.1-.1-1.5-.3-.5-.2-.9-.5-1.3-.8-.4-.4-.6-.8-.9-1.3-.2-.5-.3-1-.3-1.5v-3.1zm1.7 3.1c0 .3.1.6.2.9.1.3.3.5.5.7.2.2.4.4.7.5.3.1.6.2.9.2.3 0 .6-.1.9-.2.3-.1.5-.3.7-.5.2-.2.4-.4.5-.7.1-.3.2-.5.2-.9V53c0-.3-.1-.6-.2-.9-.1-.3-.3-.5-.5-.7-.2-.2-.4-.4-.7-.5-.3-.1-.6-.2-.9-.2-.3 0-.6.1-.9.2-.3.1-.5.3-.7.5-.2.2-.4.5-.5.7-.1.3-.2.6-.2.9v3.3zM384.4 53.2c0-.6.1-1.1.3-1.6.2-.5.5-.9.9-1.2.4-.4.8-.6 1.3-.8.5-.2 1-.3 1.6-.3.1 0 .3 0 .6.1.3 0 .6.1 1 .3.4.2.7.4 1.1.7.4.3.7.8.9 1.4 0 .1.1.2.1.3 0 .2-.1.4-.2.6-.2.2-.4.2-.6.2-.2 0-.3 0-.5-.1-.1-.1-.2-.2-.3-.4-.2-.4-.5-.8-.9-1-.4-.2-.8-.4-1.2-.4-.3 0-.6.1-.9.2-.3.1-.5.3-.7.5-.2.2-.4.5-.5.7-.1.3-.2.6-.2.9v3.2c0 .3.1.6.2.9.1.3.3.5.5.7.2.2.4.4.7.5.3.1.6.2.9.2.5 0 .9-.1 1.3-.4.4-.2.7-.6.9-1 .1-.2.2-.3.3-.4.1-.1.3-.1.5-.1s.4.1.6.3c.2.2.2.4.2.6 0 .1 0 .2-.1.3-.3.6-.6 1.1-1.1 1.5-.4.3-.8.6-1.2.7-.4.1-.7.2-1 .2h-.4c-.5 0-1.1-.1-1.5-.3-.5-.2-.9-.5-1.3-.8-.4-.4-.6-.8-.9-1.3-.2-.5-.3-1-.3-1.5v-3.4zM414.5 50.1c0-.2.1-.4.2-.6.2-.2.4-.2.6-.2.2 0 .4.1.6.2.2.2.3.4.3.6v6.2c0 .3.1.6.2.9.1.3.3.5.5.7.2.2.5.4.7.5.3.1.6.2.9.2.3 0 .6-.1.9-.2.3-.1.5-.3.7-.5.2-.2.4-.5.5-.7.1-.3.2-.6.2-.9v-6.2c0-.2.1-.4.2-.6.2-.2.4-.2.6-.2.2 0 .4.1.6.2.2.2.3.4.3.6v6.2c0 .5-.1 1.1-.3 1.5-.2.5-.5.9-.9 1.3s-.8.6-1.3.8c-.5.2-1 .3-1.5.3-.6 0-1.1-.1-1.5-.3-.5-.2-.9-.5-1.3-.8-.4-.4-.6-.8-.9-1.3-.2-.5-.3-1-.3-1.5v-6.2zM424 53.2c0-.5.1-1.1.3-1.5.2-.5.5-.9.9-1.3s.8-.6 1.3-.8c.5-.2 1-.3 1.5-.3s1.1.1 1.5.3c.5.2.9.5 1.3.8.4.4.6.8.9 1.3.2.5.3 1 .3 1.5v6.2c0 .2-.1.4-.3.6-.2.2-.4.2-.6.2-.2 0-.4-.1-.5-.2-.2-.1-.2-.3-.3-.5-.7.5-1.4.7-2.3.7-.5 0-1.1-.1-1.5-.3-.5-.2-.9-.5-1.3-.8-.4-.4-.6-.8-.9-1.3-.2-.5-.3-1-.3-1.5v-3.1zm1.7 3.1c0 .3.1.6.2.9.1.3.3.5.5.7.2.2.4.4.7.5.3.1.6.2.9.2.3 0 .6-.1.9-.2.3-.1.5-.3.7-.5.2-.2.4-.4.5-.7.1-.3.2-.5.2-.9V53c0-.3-.1-.6-.2-.9-.1-.3-.3-.5-.5-.7-.2-.2-.4-.4-.7-.5-.3-.1-.6-.2-.9-.2-.3 0-.6.1-.9.2-.3.1-.5.3-.7.5-.2.2-.4.5-.5.7-.1.3-.2.6-.2.9v3.3zM433.6 50.4c0-.2.1-.4.2-.6.2-.2.3-.2.6-.2.2 0 .4.1.5.2.1.1.2.3.3.5.7-.5 1.5-.7 2.4-.7.5 0 .9.1 1.2.2.3.1.6.2.8.4.2.2.4.4.4.7 0 .2-.1.4-.2.6-.2.1-.3.2-.6.2-.2 0-.3 0-.5-.1-.4-.2-.7-.3-1.1-.3-.3 0-.6.1-.9.2-.3.1-.5.3-.7.5-.2.2-.4.4-.5.7-.1.3-.2.5-.2.8v6.1c0 .2-.1.4-.2.6-.2.2-.3.2-.6.2-.2 0-.4-.1-.6-.2-.2-.2-.2-.3-.2-.6v-9.2z"/><path class="st0" d="M446.6 46.3c0-.2.1-.4.2-.6.2-.2.4-.2.6-.2.2 0 .4.1.6.2.2.2.3.4.3.6v10c0 .5-.1 1.1-.3 1.5-.2.5-.5.9-.9 1.3s-.8.6-1.3.8c-.5.2-1 .3-1.5.3-.6 0-1.1-.1-1.5-.3-.5-.2-.9-.5-1.3-.8-.4-.4-.6-.8-.9-1.3-.2-.5-.3-1-.3-1.5v-3.2c0-.5.1-1.1.3-1.5.2-.5.5-.9.9-1.3s.8-.6 1.3-.8c.5-.2 1-.3 1.5-.3.4 0 .8.1 1.2.2.4.1.7.3 1.1.5v-3.6zm-4.6 10c0 .3.1.6.2.9.1.3.3.5.5.7.2.2.5.4.7.5.3.1.6.2.9.2.3 0 .6-.1.9-.2.3-.1.5-.3.7-.5.2-.2.4-.5.5-.7.1-.3.2-.6.2-.9v-3.2c0-.3-.1-.6-.2-.9-.1-.3-.3-.5-.5-.7-.2-.2-.5-.4-.7-.5-.3-.1-.6-.2-.9-.2-.3 0-.6.1-.9.2-.3.1-.5.3-.7.5-.2.2-.4.5-.5.7-.1.3-.2.6-.2.9v3.2zM393.6 50.1c0-.2.1-.4.2-.6.2-.2.4-.2.6-.2.2 0 .4.1.6.2.2.2.3.4.3.6v6.2c0 .3.1.6.2.9.1.3.3.5.5.7.2.2.5.4.7.5.3.1.6.2.9.2.3 0 .6-.1.9-.2.3-.1.5-.3.7-.5.2-.2.4-.5.5-.7.1-.3.2-.6.2-.9v-6.2c0-.2.1-.4.2-.6.2-.2.4-.2.6-.2.2 0 .4.1.6.2.2.2.3.4.3.6v6.2c0 .5-.1 1.1-.3 1.5-.2.5-.5.9-.9 1.3s-.8.6-1.3.8c-.5.2-1 .3-1.5.3-.6 0-1.1-.1-1.5-.3-.5-.2-.9-.5-1.3-.8-.4-.4-.6-.8-.9-1.3-.2-.5-.3-1-.3-1.5v-6.2zM412.2 52.8h-3.5c-.5 0-.8.4-.8.8 0 .5.4.8.8.8h2.8v1.3c0 1.8-1.6 3.1-3.3 3.1-1.9 0-3.5-1.3-3.5-3.5v-5c0-2 1.5-3.5 3.4-3.5 1.6 0 2.8 1.1 3.3 2.4.2.3.4.4.7.4.6 0 1.1-.5.7-1.3-.5-1.6-2.2-3.2-4.8-3.2-3 0-5.1 2.4-5.1 5.1v5.2c0 2.7 2.2 5.1 5.1 5.1 2.7 0 5-2.1 5-4.5v-2.5c.1-.4-.3-.7-.8-.7z"/><path class="st0" d="M446.6 50.1c0-.2.1-.4.2-.6.2-.2.4-.2.6-.2.2 0 .4.1.6.2.2.2.3.4.3.6v9.2c0 .2-.1.4-.2.6-.2.2-.4.2-.6.2-.2 0-.4-.1-.6-.2-.2-.2-.3-.4-.3-.6v-9.2z"/><g><path class="st0" d="M344.5 46.9c0-.2.1-.4.2-.6.2-.2.3-.2.6-.2h3.3c.7 0 1.4.1 2 .4.6.3 1.2.6 1.6 1.1.5.4.8 1 1.1 1.6.3.6.4 1.3.4 2s-.1 1.4-.4 2c-.3.6-.6 1.1-1.1 1.6-.5.5-1 .8-1.6 1.1-.6.3-1.3.4-2 .4h-2.5v3.3c0 .2-.1.4-.2.6-.2.2-.3.2-.6.2-.2 0-.4-.1-.6-.2-.2-.2-.2-.3-.2-.6V46.9zm1.7.8v6.8h2.5c.5 0 .9-.1 1.4-.3.4-.2.8-.4 1.1-.7.3-.3.6-.7.7-1.1.2-.4.3-.9.3-1.3 0-.5-.1-.9-.3-1.3-.2-.4-.4-.8-.7-1.1-.3-.3-.7-.5-1.1-.7-.4-.2-.9-.3-1.3-.3h-2.6z"/></g><linearGradient id="SVGID_1_" gradientUnits="userSpaceOnUse" x1="325.884" y1="45.734" x2="325.909" y2="67.153"><stop offset="0" stop-color="#41b5e8"/><stop offset=".5" stop-color="#6a53a3"/><stop offset="1" stop-color="#e72e8a"/></linearGradient><path class="st1" d="M328.3 60.7v1.7c0 1.3-1.1 2.4-2.4 2.4-.4 0-.8-.1-1.2-.3-.4-.2-.5-.7-.3-1.1.2-.4.7-.5 1.1-.3.1.1.2.1.4.1.4 0 .8-.3.8-.8v-1.7c0-.5.4-.8.8-.8s.8.3.8.8zm-5.5 3.3c-.2-.4-.7-.6-1.1-.4-.4.2-.6.7-.4 1.1.9 1.7 2.7 2.8 4.6 2.8 2.9 0 5.2-2.3 5.2-5.2v-1.7c0-.5-.4-.8-.8-.8-.5 0-.8.4-.8.8v1.7c0 1.9-1.6 3.5-3.5 3.5-1.4.1-2.6-.6-3.2-1.8zm2.9-27.4c-4.2.1-7.7 3.8-7.7 8.1v17.7c0 2.2.9 4.2 2.4 5.7s3.5 2.2 5.5 2.2h.2c4.2-.1 7.7-3.8 7.7-8.1v-1.4c0-2.1-1.7-3.8-3.8-3.8h-2.6c-.5 0-.8.4-.8.8 0 .5.4.8.8.8h2.6c1.2 0 2.1 1 2.1 2.1v1.4c0 3.5-2.7 6.3-6.1 6.4-1.7.1-3.3-.6-4.6-1.8-1.2-1.2-1.9-2.8-1.9-4.5V44.7c0-3.5 2.7-6.3 6.1-6.4 1.7-.1 3.3.6 4.6 1.8 1.2 1.2 1.9 2.8 1.9 4.5V55c0 .5.4.8.8.8.5 0 .8-.4.8-.8V44.6c0-2.2-.9-4.2-2.4-5.7-1.4-1.5-3.5-2.3-5.6-2.3zm5.4 14.2v-6.2c0-2.9-2.3-5.2-5.2-5.2-2.9 0-5.2 2.3-5.2 5.2v1c0 .5.4.8.8.8.5 0 .8-.4.8-.8v-1c0-1.9 1.6-3.5 3.5-3.5s3.5 1.6 3.5 3.5v6.2c0 1.9-1.6 3.5-3.5 3.5-.4 0-.9-.1-1.3-.2-.3-.1-.5-.1-.8.1-.2.2-.4.4-.4.7v5.6c0 .3-.2.6-.6.6s-.6-.2-.6-.6V48.3c0-.5-.4-.8-.8-.8-.5 0-.8.4-.8.8v12.1c0 1.2 1 2.2 2.2 2.2 1.2 0 2.2-1 2.2-2.2v-4.6c.3 0 .5.1.8.1 3.1.1 5.4-2.2 5.4-5.1zm5.5-6v17.6c0 2.9-1.1 5.6-3.2 7.7-2 2-4.7 3.1-7.5 3.1h-.3c-5.8-.1-10.5-5-10.5-10.9V44.6c0-2.9 1.1-5.6 3.2-7.7 2.1-2 4.8-3.1 7.7-3 5.9.1 10.6 5 10.6 10.9zM334.9 58V44.8c0-5-4-9.1-8.8-9.2-2.5-.1-4.8.9-6.5 2.6-1.8 1.7-2.7 4-2.7 6.5v17.6c0 5 4 9.1 8.8 9.2 2.5.1 4.8-.9 6.5-2.6 1.8-1.7 2.7-4 2.7-6.5V58zm-11.4-7.2v-6.2c0-1.3 1.1-2.4 2.4-2.4 1.3 0 2.4 1.1 2.4 2.4v6.2c0 1.3-1.1 2.4-2.4 2.4-1.3 0-2.4-1.1-2.4-2.4zm1.6 0c0 .4.3.8.8.8.4 0 .8-.3.8-.8v-6.2c0-.4-.3-.8-.8-.8-.4 0-.8.3-.8.8v6.2z"/><g><path class="st0" d="M449.4 45.8h-.3v-.2h.9v.2h-.3v.9h-.3v-.9zM451.1 46.3v-.5c0 .1-.1.3-.1.4l-.1.4h-.2l-.1-.4c0-.1-.1-.3-.1-.4v.9h-.2l.1-1.1h.3l.1.4c0 .1.1.3.1.4 0-.1.1-.3.1-.4l.1-.4h.3l.1 1.1h-.3l-.1-.4z"/></g></g></svg>