<?xml version="1.0" encoding="utf-8"?>
<!-- Generator: Adobe Illustrator 24.2.3, SVG Export Plug-In . SVG Version: 6.00 Build 0)  -->
<svg version="1.1" id="Layer_1" xmlns="http://www.w3.org/2000/svg" xmlns:xlink="http://www.w3.org/1999/xlink" x="0px" y="0px"
	 viewBox="0 0 160 600" style="enable-background:new 0 0 160 600;" xml:space="preserve">
<style type="text/css">
	.st0{fill:#021D8B;}
</style>
<g>
	<path class="st0" d="M25.97,383.77l-1.55,1.7v4.12h-3.77v-15.64h3.77v6.9l1.31-1.99l3.37-4.91h4.66l-5.29,6.92l5.29,8.72H29.3
		L25.97,383.77z"/>
	<path class="st0" d="M37.88,377.97l0.12,1.36c0.8-1.05,1.91-1.58,3.32-1.58c1.21,0,2.11,0.36,2.71,1.08
		c0.6,0.72,0.91,1.81,0.93,3.27v7.49h-3.63v-7.34c0-0.59-0.12-1.02-0.35-1.29c-0.24-0.28-0.67-0.41-1.29-0.41
		c-0.71,0-1.24,0.28-1.58,0.84v8.21h-3.62v-11.62H37.88z"/>
	<path class="st0" d="M46.51,383.67c0-1.16,0.23-2.19,0.68-3.1c0.45-0.91,1.1-1.6,1.94-2.09c0.84-0.49,1.84-0.73,2.98-0.73
		c1.74,0,3.11,0.54,4.11,1.62c1,1.08,1.5,2.54,1.5,4.4v0.13c0,1.81-0.5,3.25-1.51,4.31c-1.01,1.06-2.37,1.6-4.09,1.6
		c-1.65,0-2.98-0.5-3.99-1.49c-1-0.99-1.54-2.34-1.62-4.03L46.51,383.67z M50.13,383.9c0,1.07,0.17,1.86,0.5,2.36
		c0.34,0.5,0.83,0.75,1.49,0.75c1.29,0,1.95-0.99,1.98-2.98v-0.37c0-2.08-0.67-3.13-2-3.13c-1.21,0-1.87,0.9-1.97,2.7L50.13,383.9z"
		/>
	<path class="st0" d="M69.36,384.82l1.17-6.85H74l-2.74,11.62H68.2l-1.92-6.9l-1.93,6.9h-3.06l-2.74-11.62h3.47l1.15,7.01l1.85-7.01
		h2.52L69.36,384.82z"/>
	<path class="st0" d="M91.56,383.88c0,1.91-0.39,3.37-1.18,4.39s-1.9,1.54-3.33,1.54c-1.18,0-2.13-0.47-2.86-1.41l-0.15,1.19H80.8
		v-16.5h3.62v5.81c0.67-0.77,1.54-1.15,2.61-1.15c1.45,0,2.56,0.52,3.35,1.56s1.18,2.5,1.18,4.38V383.88z M87.93,383.65
		c0-1.12-0.15-1.91-0.45-2.39c-0.3-0.47-0.75-0.71-1.37-0.71c-0.82,0-1.38,0.31-1.7,0.93v4.61c0.31,0.61,0.88,0.92,1.72,0.92
		c0.85,0,1.39-0.42,1.62-1.24C87.87,385.36,87.93,384.66,87.93,383.65z"/>
	<path class="st0" d="M98.78,389.81c-1.78,0-3.23-0.53-4.33-1.6c-1.1-1.06-1.65-2.45-1.65-4.15v-0.3c0-1.19,0.22-2.24,0.66-3.15
		c0.44-0.91,1.08-1.61,1.93-2.11c0.84-0.5,1.85-0.75,3.01-0.75c1.63,0,2.92,0.51,3.87,1.52c0.95,1.01,1.42,2.43,1.42,4.24v1.41h-7.2
		c0.13,0.65,0.41,1.16,0.85,1.54c0.44,0.37,1,0.56,1.7,0.56c1.15,0,2.04-0.4,2.69-1.2l1.65,1.96c-0.45,0.62-1.09,1.12-1.92,1.49
		C100.62,389.62,99.73,389.81,98.78,389.81z M98.37,380.55c-1.06,0-1.69,0.7-1.89,2.11h3.65v-0.28c0.01-0.58-0.13-1.03-0.44-1.35
		C99.38,380.71,98.95,380.55,98.37,380.55z"/>
	<path class="st0" d="M105.93,389.59v-9.11h-1.69v-2.51h1.69v-0.92c0-1.32,0.39-2.35,1.17-3.08c0.78-0.73,1.88-1.1,3.29-1.1
		c0.52,0,1.08,0.08,1.7,0.23l0.01,2.66c-0.22-0.06-0.52-0.1-0.89-0.1c-1.1,0-1.64,0.47-1.64,1.42v0.89h2.27v2.51h-2.27v9.11H105.93z
		"/>
	<path class="st0" d="M112.65,383.67c0-1.16,0.23-2.19,0.68-3.1c0.45-0.91,1.1-1.6,1.94-2.09s1.84-0.73,2.98-0.73
		c1.74,0,3.11,0.54,4.11,1.62c1,1.08,1.5,2.54,1.5,4.4v0.13c0,1.81-0.5,3.25-1.51,4.31c-1.01,1.06-2.37,1.6-4.09,1.6
		c-1.65,0-2.98-0.5-3.99-1.49c-1-0.99-1.54-2.34-1.62-4.03L112.65,383.67z M116.27,383.9c0,1.07,0.17,1.86,0.5,2.36
		s0.83,0.75,1.49,0.75c1.29,0,1.95-0.99,1.98-2.98v-0.37c0-2.08-0.67-3.13-2-3.13c-1.21,0-1.87,0.9-1.97,2.7L116.27,383.9z"/>
	<path class="st0" d="M132.49,381.25l-1.19-0.09c-1.14,0-1.87,0.36-2.19,1.07v7.36h-3.62v-11.62h3.39l0.12,1.49
		c0.61-1.14,1.46-1.71,2.55-1.71c0.39,0,0.72,0.04,1.01,0.13L132.49,381.25z"/>
	<path class="st0" d="M139.42,389.81c-1.78,0-3.23-0.53-4.33-1.6c-1.1-1.06-1.65-2.45-1.65-4.15v-0.3c0-1.19,0.22-2.24,0.66-3.15
		c0.44-0.91,1.08-1.61,1.93-2.11c0.84-0.5,1.85-0.75,3.01-0.75c1.63,0,2.92,0.51,3.87,1.52c0.95,1.01,1.42,2.43,1.42,4.24v1.41h-7.2
		c0.13,0.65,0.41,1.16,0.85,1.54s1,0.56,1.7,0.56c1.15,0,2.04-0.4,2.69-1.2l1.65,1.96c-0.45,0.62-1.09,1.12-1.92,1.49
		C141.26,389.62,140.37,389.81,139.42,389.81z M139.01,380.55c-1.06,0-1.69,0.7-1.89,2.11h3.65v-0.28c0.01-0.58-0.13-1.03-0.44-1.35
		C140.02,380.71,139.58,380.55,139.01,380.55z"/>
	<path class="st0" d="M51.13,402.09l1.93-6.55h3.88l-4.74,13.57L52,409.6c-0.67,1.5-1.86,2.26-3.57,2.26
		c-0.47,0-0.97-0.07-1.49-0.21v-2.58h0.47c0.51,0,0.9-0.07,1.17-0.22c0.27-0.15,0.47-0.41,0.6-0.79l0.29-0.77l-4.04-11.74h3.87
		L51.13,402.09z"/>
	<path class="st0" d="M57.42,401.24c0-1.16,0.23-2.19,0.68-3.1c0.45-0.91,1.1-1.6,1.94-2.09c0.84-0.49,1.84-0.73,2.98-0.73
		c1.74,0,3.11,0.54,4.11,1.62c1,1.08,1.5,2.54,1.5,4.4v0.13c0,1.81-0.5,3.25-1.51,4.31c-1.01,1.06-2.37,1.6-4.09,1.6
		c-1.65,0-2.98-0.5-3.99-1.49c-1-0.99-1.54-2.34-1.62-4.03L57.42,401.24z M61.04,401.47c0,1.07,0.17,1.86,0.5,2.36
		c0.34,0.5,0.83,0.75,1.49,0.75c1.29,0,1.95-0.99,1.98-2.98v-0.37c0-2.08-0.67-3.13-2-3.13c-1.21,0-1.87,0.9-1.97,2.7L61.04,401.47z
		"/>
	<path class="st0" d="M77.16,405.91c-0.77,0.98-1.8,1.47-3.1,1.47c-1.27,0-2.24-0.37-2.9-1.11c-0.66-0.74-0.98-1.81-0.98-3.2v-7.53
		h3.62v7.55c0,1,0.48,1.49,1.45,1.49c0.83,0,1.42-0.3,1.77-0.89v-8.15h3.64v11.62h-3.39L77.16,405.91z"/>
	<path class="st0" d="M87.69,401.27c0-1.17,0.19-2.21,0.58-3.12s0.94-1.6,1.67-2.09c0.72-0.49,1.56-0.74,2.52-0.74
		c1.21,0,2.16,0.41,2.84,1.22l0.13-1.01h3.29v11.18c0,1.02-0.24,1.91-0.71,2.67c-0.48,0.76-1.17,1.34-2.07,1.74
		c-0.9,0.41-1.95,0.61-3.14,0.61c-0.85,0-1.68-0.16-2.48-0.48s-1.41-0.74-1.83-1.26l1.51-2.13c0.67,0.79,1.56,1.19,2.66,1.19
		c1.6,0,2.41-0.82,2.41-2.47v-0.37c-0.7,0.77-1.57,1.15-2.63,1.15c-1.42,0-2.56-0.54-3.44-1.63c-0.87-1.09-1.31-2.54-1.31-4.36
		V401.27z M91.33,401.49c0,0.95,0.18,1.71,0.54,2.26c0.36,0.55,0.86,0.83,1.5,0.83c0.78,0,1.35-0.26,1.71-0.78v-4.89
		c-0.35-0.53-0.91-0.79-1.69-0.79c-0.64,0-1.15,0.29-1.51,0.87C91.51,399.56,91.33,400.4,91.33,401.49z"/>
	<path class="st0" d="M100.32,401.24c0-1.16,0.23-2.19,0.68-3.1c0.45-0.91,1.1-1.6,1.94-2.09c0.84-0.49,1.84-0.73,2.98-0.73
		c1.74,0,3.11,0.54,4.11,1.62c1,1.08,1.5,2.54,1.5,4.4v0.13c0,1.81-0.5,3.25-1.51,4.31c-1.01,1.06-2.37,1.6-4.09,1.6
		c-1.65,0-2.98-0.5-3.99-1.49c-1-0.99-1.54-2.34-1.62-4.03L100.32,401.24z M103.94,401.47c0,1.07,0.17,1.86,0.5,2.36
		c0.34,0.5,0.83,0.75,1.49,0.75c1.29,0,1.95-0.99,1.98-2.98v-0.37c0-2.08-0.67-3.13-2-3.13c-1.21,0-1.87,0.9-1.97,2.7L103.94,401.47
		z"/>
	<path class="st0" d="M115.37,403.65c0.57,0,1.05,0.17,1.43,0.51c0.38,0.34,0.57,0.77,0.57,1.3s-0.19,0.96-0.57,1.3
		c-0.38,0.34-0.86,0.51-1.43,0.51c-0.58,0-1.06-0.17-1.43-0.52c-0.38-0.34-0.56-0.78-0.56-1.3s0.19-0.96,0.56-1.3
		C114.31,403.82,114.79,403.65,115.37,403.65z"/>
</g>
</svg>
