<?xml version="1.0" encoding="utf-8"?>
<!-- Generator: Adobe Illustrator 24.2.3, SVG Export Plug-In . SVG Version: 6.00 Build 0)  -->
<svg version="1.1" id="Layer_1" xmlns="http://www.w3.org/2000/svg" xmlns:xlink="http://www.w3.org/1999/xlink" x="0px" y="0px"
	 viewBox="0 0 160 600" style="enable-background:new 0 0 160 600;" xml:space="preserve">
<style type="text/css">
	.st0{fill:#021D8B;}
</style>
<g>
	<path class="st0" d="M30.63,266.8v5.51h-3.22v-15.64h6.1c1.17,0,2.21,0.21,3.1,0.64s1.58,1.04,2.06,1.83
		c0.48,0.79,0.72,1.69,0.72,2.7c0,1.53-0.52,2.74-1.57,3.62c-1.05,0.88-2.5,1.33-4.36,1.33H30.63z M30.63,264.19h2.88
		c0.85,0,1.5-0.2,1.95-0.6c0.45-0.4,0.67-0.97,0.67-1.72c0-0.77-0.23-1.39-0.68-1.86s-1.07-0.72-1.87-0.73h-2.95V264.19z"/>
	<path class="st0" d="M44.67,272.32h-3.12v-16.5h3.12V272.32z"/>
	<path class="st0" d="M53.96,272.32c-0.14-0.28-0.25-0.63-0.31-1.04c-0.75,0.84-1.73,1.26-2.93,1.26c-1.14,0-2.08-0.33-2.83-0.99
		c-0.75-0.66-1.12-1.49-1.12-2.49c0-1.23,0.46-2.18,1.37-2.84s2.23-0.99,3.96-1h1.43v-0.67c0-0.54-0.14-0.97-0.41-1.29
		c-0.28-0.32-0.71-0.48-1.31-0.48c-0.52,0-0.93,0.12-1.23,0.38c-0.3,0.25-0.45,0.59-0.45,1.03h-3.1c0-0.67,0.21-1.3,0.62-1.87
		c0.42-0.57,1-1.02,1.76-1.35c0.76-0.33,1.61-0.49,2.56-0.49c1.43,0,2.57,0.36,3.41,1.08c0.84,0.72,1.26,1.73,1.26,3.03v5.04
		c0.01,1.1,0.16,1.94,0.46,2.5v0.18H53.96z M51.4,270.16c0.46,0,0.88-0.1,1.27-0.31c0.39-0.21,0.67-0.48,0.86-0.82v-2h-1.16
		c-1.55,0-2.38,0.54-2.48,1.61l-0.01,0.18c0,0.39,0.14,0.71,0.41,0.96C50.55,270.03,50.92,270.16,51.4,270.16z"/>
	<path class="st0" d="M61.88,260.69l0.1,1.34c0.83-1.04,1.94-1.56,3.34-1.56c1.23,0,2.15,0.36,2.75,1.08s0.91,1.8,0.92,3.24v7.51
		h-3.1v-7.43c0-0.66-0.14-1.14-0.43-1.43c-0.29-0.3-0.76-0.45-1.43-0.45c-0.87,0-1.53,0.37-1.97,1.12v8.2h-3.1v-11.62H61.88z"/>
	<path class="st0" d="M74.2,260.69l0.1,1.34c0.83-1.04,1.94-1.56,3.34-1.56c1.23,0,2.15,0.36,2.75,1.08s0.91,1.8,0.92,3.24v7.51
		h-3.1v-7.43c0-0.66-0.14-1.14-0.43-1.43c-0.29-0.3-0.76-0.45-1.43-0.45c-0.87,0-1.53,0.37-1.97,1.12v8.2h-3.1v-11.62H74.2z"/>
	<path class="st0" d="M83.64,257.68c0-0.47,0.16-0.85,0.47-1.15c0.31-0.3,0.74-0.45,1.27-0.45c0.53,0,0.95,0.15,1.27,0.45
		c0.31,0.3,0.47,0.68,0.47,1.15c0,0.47-0.16,0.86-0.48,1.16s-0.74,0.45-1.26,0.45c-0.52,0-0.94-0.15-1.26-0.45
		C83.8,258.54,83.64,258.16,83.64,257.68z M86.94,272.32h-3.12v-11.62h3.12V272.32z"/>
	<path class="st0" d="M92.36,260.69l0.1,1.34c0.83-1.04,1.94-1.56,3.34-1.56c1.23,0,2.15,0.36,2.75,1.08s0.91,1.8,0.92,3.24v7.51
		h-3.1v-7.43c0-0.66-0.14-1.14-0.43-1.43c-0.29-0.3-0.76-0.45-1.43-0.45c-0.87,0-1.53,0.37-1.97,1.12v8.2h-3.1v-11.62H92.36z"/>
	<path class="st0" d="M101.37,266.42c0-1.78,0.42-3.22,1.27-4.31c0.85-1.09,1.99-1.63,3.43-1.63c1.27,0,2.27,0.44,2.98,1.31
		l0.13-1.1h2.81v11.24c0,1.02-0.23,1.9-0.69,2.65c-0.46,0.75-1.11,1.33-1.95,1.72s-1.82,0.59-2.94,0.59c-0.85,0-1.68-0.17-2.49-0.51
		c-0.81-0.34-1.42-0.78-1.84-1.32l1.38-1.89c0.77,0.87,1.71,1.3,2.81,1.3c0.82,0,1.46-0.22,1.92-0.66c0.46-0.44,0.69-1.06,0.69-1.87
		v-0.62c-0.72,0.81-1.66,1.21-2.83,1.21c-1.4,0-2.53-0.55-3.39-1.64c-0.86-1.09-1.29-2.54-1.29-4.34V266.42z M104.47,266.65
		c0,1.05,0.21,1.88,0.63,2.48c0.42,0.6,1,0.9,1.74,0.9c0.95,0,1.62-0.36,2.03-1.07v-4.89c-0.42-0.71-1.08-1.07-2.01-1.07
		c-0.75,0-1.33,0.3-1.76,0.92C104.69,264.53,104.47,265.44,104.47,266.65z"/>
	<path class="st0" d="M123.57,257.83v2.86h1.99v2.28h-1.99v5.8c0,0.43,0.08,0.74,0.25,0.92s0.48,0.28,0.95,0.28
		c0.34,0,0.65-0.03,0.91-0.08v2.35c-0.61,0.19-1.24,0.28-1.88,0.28c-2.18,0-3.29-1.1-3.33-3.3v-6.26h-1.7v-2.28h1.7v-2.86H123.57z"
		/>
	<path class="st0" d="M126.48,266.4c0-1.15,0.22-2.18,0.67-3.08s1.08-1.6,1.92-2.09c0.83-0.49,1.8-0.74,2.91-0.74
		c1.57,0,2.85,0.48,3.84,1.44c0.99,0.96,1.54,2.26,1.66,3.91l0.02,0.79c0,1.78-0.5,3.21-1.49,4.29c-1,1.08-2.33,1.62-4.01,1.62
		s-3.01-0.54-4.01-1.61c-1-1.07-1.5-2.54-1.5-4.38V266.4z M129.59,266.62c0,1.1,0.21,1.95,0.62,2.53c0.42,0.58,1.01,0.88,1.78,0.88
		c0.75,0,1.34-0.29,1.76-0.87s0.63-1.5,0.63-2.77c0-1.08-0.21-1.92-0.63-2.52c-0.42-0.59-1.02-0.89-1.78-0.89
		c-0.76,0-1.35,0.3-1.76,0.89S129.59,265.38,129.59,266.62z"/>
	<path class="st0" d="M50.34,287.09l0.1,1.3c0.82-1.01,1.94-1.51,3.34-1.51c1.5,0,2.52,0.59,3.08,1.77
		c0.82-1.18,1.98-1.77,3.49-1.77c1.26,0,2.2,0.37,2.81,1.1c0.62,0.73,0.92,1.84,0.92,3.31v7.42h-3.12v-7.41
		c0-0.66-0.13-1.14-0.39-1.45c-0.26-0.3-0.71-0.46-1.36-0.46c-0.93,0-1.58,0.44-1.93,1.33l0.01,7.98h-3.1v-7.4
		c0-0.67-0.13-1.16-0.4-1.46c-0.27-0.3-0.72-0.45-1.35-0.45c-0.88,0-1.52,0.37-1.91,1.1v8.22h-3.1v-11.62H50.34z"/>
	<path class="st0" d="M73.21,298.72c-0.14-0.28-0.25-0.63-0.31-1.04c-0.75,0.84-1.73,1.26-2.93,1.26c-1.14,0-2.08-0.33-2.83-0.99
		c-0.75-0.66-1.12-1.49-1.12-2.49c0-1.23,0.46-2.18,1.37-2.84s2.23-0.99,3.96-1h1.43v-0.67c0-0.54-0.14-0.97-0.41-1.29
		c-0.28-0.32-0.71-0.48-1.31-0.48c-0.52,0-0.93,0.12-1.23,0.38c-0.3,0.25-0.45,0.59-0.45,1.03h-3.1c0-0.67,0.21-1.3,0.62-1.87
		c0.42-0.57,1-1.02,1.76-1.35c0.76-0.33,1.61-0.49,2.56-0.49c1.43,0,2.57,0.36,3.41,1.08c0.84,0.72,1.26,1.73,1.26,3.03v5.04
		c0.01,1.1,0.16,1.94,0.46,2.5v0.18H73.21z M70.64,296.56c0.46,0,0.88-0.1,1.27-0.31c0.39-0.21,0.67-0.48,0.86-0.82v-2h-1.16
		c-1.55,0-2.38,0.54-2.48,1.61l-0.01,0.18c0,0.39,0.14,0.71,0.41,0.96C69.8,296.43,70.17,296.56,70.64,296.56z"/>
	<path class="st0" d="M82.49,294.05l-1.12,1.12v3.54h-3.1v-16.5h3.1v9.14l0.6-0.77l2.97-3.49h3.73l-4.2,4.84l4.57,6.78h-3.57
		L82.49,294.05z"/>
	<path class="st0" d="M95.37,298.93c-1.7,0-3.09-0.52-4.16-1.57s-1.61-2.44-1.61-4.18v-0.3c0-1.17,0.22-2.21,0.68-3.13
		c0.45-0.92,1.09-1.63,1.92-2.13c0.83-0.5,1.77-0.75,2.83-0.75c1.59,0,2.84,0.5,3.75,1.5s1.37,2.42,1.37,4.26v1.27h-7.4
		c0.1,0.76,0.4,1.37,0.91,1.83s1.14,0.69,1.92,0.69c1.2,0,2.13-0.43,2.8-1.3l1.53,1.71c-0.46,0.66-1.1,1.17-1.89,1.54
		C97.22,298.75,96.34,298.93,95.37,298.93z M95.02,289.38c-0.62,0-1.12,0.21-1.5,0.63c-0.38,0.42-0.63,1.01-0.74,1.79h4.32v-0.25
		c-0.02-0.69-0.2-1.22-0.56-1.6C96.18,289.57,95.67,289.38,95.02,289.38z"/>
	<path class="st0" d="M114.12,298.72c-0.14-0.28-0.25-0.63-0.31-1.04c-0.75,0.84-1.73,1.26-2.93,1.26c-1.14,0-2.08-0.33-2.83-0.99
		s-1.12-1.49-1.12-2.49c0-1.23,0.46-2.18,1.37-2.84s2.23-0.99,3.96-1h1.43v-0.67c0-0.54-0.14-0.97-0.41-1.29s-0.71-0.48-1.3-0.48
		c-0.52,0-0.93,0.12-1.23,0.38s-0.45,0.59-0.45,1.03h-3.11c0-0.67,0.21-1.3,0.62-1.87c0.42-0.57,1-1.02,1.76-1.35
		c0.76-0.33,1.61-0.49,2.56-0.49c1.43,0,2.57,0.36,3.41,1.08c0.84,0.72,1.26,1.73,1.26,3.03v5.04c0.01,1.1,0.16,1.94,0.46,2.5v0.18
		H114.12z M111.56,296.56c0.46,0,0.88-0.1,1.27-0.31c0.39-0.21,0.67-0.48,0.86-0.82v-2h-1.16c-1.55,0-2.38,0.54-2.48,1.61
		l-0.01,0.18c0,0.39,0.13,0.71,0.41,0.96C110.71,296.43,111.09,296.56,111.56,296.56z"/>
	<path class="st0" d="M24.53,319.41c0,1.86-0.4,3.31-1.19,4.36c-0.79,1.04-1.91,1.56-3.33,1.56c-1.26,0-2.27-0.48-3.02-1.45
		l-0.14,1.24h-2.79v-16.5h3.1v5.92c0.72-0.84,1.66-1.26,2.83-1.26c1.42,0,2.53,0.52,3.34,1.56c0.81,1.04,1.21,2.51,1.21,4.4V319.41z
		 M21.43,319.19c0-1.17-0.19-2.03-0.56-2.57c-0.37-0.54-0.93-0.81-1.67-0.81c-0.99,0-1.67,0.4-2.04,1.21v4.59
		c0.38,0.82,1.07,1.22,2.06,1.22c1,0,1.66-0.49,1.98-1.48C21.35,320.87,21.43,320.15,21.43,319.19z"/>
	<path class="st0" d="M26.42,310.48c0-0.47,0.16-0.85,0.47-1.15s0.74-0.45,1.27-0.45c0.53,0,0.95,0.15,1.27,0.45
		c0.31,0.3,0.47,0.68,0.47,1.15c0,0.47-0.16,0.86-0.48,1.16c-0.32,0.3-0.74,0.45-1.26,0.45c-0.52,0-0.94-0.15-1.26-0.45
		C26.58,311.34,26.42,310.96,26.42,310.48z M29.72,325.12H26.6v-11.62h3.12V325.12z"/>
	<path class="st0" d="M31.82,319.22c0-1.78,0.42-3.22,1.27-4.31s1.99-1.63,3.43-1.63c1.27,0,2.27,0.44,2.98,1.31l0.13-1.1h2.81
		v11.24c0,1.02-0.23,1.9-0.69,2.65s-1.11,1.33-1.95,1.72s-1.82,0.59-2.94,0.59c-0.85,0-1.68-0.17-2.49-0.51
		c-0.81-0.34-1.42-0.78-1.84-1.32l1.38-1.89c0.77,0.87,1.71,1.3,2.81,1.3c0.82,0,1.46-0.22,1.92-0.66c0.46-0.44,0.69-1.06,0.69-1.87
		v-0.62c-0.72,0.81-1.66,1.21-2.83,1.21c-1.4,0-2.53-0.55-3.39-1.64c-0.86-1.09-1.29-2.54-1.29-4.34V319.22z M34.93,319.45
		c0,1.05,0.21,1.88,0.63,2.48c0.42,0.6,1,0.9,1.74,0.9c0.95,0,1.62-0.36,2.03-1.07v-4.89c-0.42-0.71-1.08-1.07-2.01-1.07
		c-0.75,0-1.33,0.3-1.76,0.92C35.14,317.33,34.93,318.24,34.93,319.45z"/>
	<path class="st0" d="M60.77,319.41c0,1.79-0.41,3.22-1.22,4.3c-0.81,1.08-1.91,1.62-3.29,1.62c-1.17,0-2.12-0.41-2.85-1.22v5.48
		h-3.1v-16.09h2.88l0.11,1.14c0.75-0.9,1.73-1.35,2.94-1.35c1.43,0,2.55,0.53,3.34,1.59s1.19,2.52,1.19,4.38V319.41z M57.67,319.19
		c0-1.08-0.19-1.92-0.57-2.5c-0.38-0.59-0.94-0.88-1.67-0.88c-0.97,0-1.64,0.37-2.01,1.12v4.76c0.38,0.77,1.06,1.15,2.03,1.15
		C56.93,322.83,57.67,321.61,57.67,319.19z"/>
	<path class="st0" d="M69.66,323.93c-0.77,0.93-1.83,1.4-3.18,1.4c-1.25,0-2.2-0.36-2.85-1.07s-0.99-1.77-1-3.15v-7.62h3.1v7.52
		c0,1.21,0.55,1.82,1.65,1.82c1.05,0,1.78-0.37,2.17-1.1v-8.24h3.12v11.62h-2.92L69.66,323.93z"/>
	<path class="st0" d="M81.54,316.4c-0.42-0.06-0.79-0.09-1.12-0.09c-1.17,0-1.94,0.4-2.31,1.19v7.61h-3.1v-11.62h2.93l0.09,1.39
		c0.62-1.07,1.49-1.6,2.59-1.6c0.34,0,0.67,0.05,0.97,0.14L81.54,316.4z"/>
	<path class="st0" d="M87.66,322.83c0.57,0,1.04-0.16,1.4-0.47c0.36-0.32,0.54-0.73,0.56-1.26h2.91c-0.01,0.79-0.22,1.51-0.64,2.16
		c-0.42,0.66-1,1.16-1.74,1.53c-0.73,0.36-1.54,0.54-2.43,0.54c-1.66,0-2.97-0.53-3.93-1.58c-0.96-1.06-1.44-2.52-1.44-4.38v-0.2
		c0-1.79,0.48-3.22,1.43-4.29c0.95-1.07,2.26-1.6,3.92-1.6c1.45,0,2.62,0.41,3.5,1.24c0.88,0.83,1.32,1.93,1.34,3.3h-2.91
		c-0.01-0.6-0.2-1.1-0.56-1.47c-0.36-0.38-0.83-0.57-1.42-0.57c-0.72,0-1.27,0.26-1.64,0.79s-0.55,1.38-0.55,2.57v0.32
		c0,1.2,0.18,2.06,0.55,2.58S86.92,322.83,87.66,322.83z"/>
	<path class="st0" d="M97.33,314.76c0.82-0.99,1.86-1.48,3.1-1.48c2.52,0,3.8,1.46,3.83,4.39v7.44h-3.1v-7.36
		c0-0.67-0.14-1.16-0.43-1.48c-0.29-0.32-0.76-0.48-1.43-0.48c-0.91,0-1.57,0.35-1.98,1.05v8.26h-3.1v-16.5h3.1V314.76z"/>
	<path class="st0" d="M113.35,325.12c-0.14-0.28-0.25-0.63-0.31-1.04c-0.75,0.84-1.73,1.26-2.93,1.26c-1.14,0-2.08-0.33-2.83-0.99
		s-1.12-1.49-1.12-2.49c0-1.23,0.46-2.18,1.37-2.84c0.91-0.66,2.23-0.99,3.96-1h1.43v-0.67c0-0.54-0.14-0.97-0.41-1.29
		c-0.28-0.32-0.71-0.48-1.31-0.48c-0.52,0-0.93,0.12-1.23,0.38s-0.45,0.59-0.45,1.03h-3.1c0-0.67,0.21-1.3,0.62-1.87
		s1-1.02,1.76-1.35c0.76-0.33,1.61-0.49,2.56-0.49c1.43,0,2.57,0.36,3.41,1.08c0.84,0.72,1.26,1.73,1.26,3.03v5.04
		c0.01,1.1,0.16,1.94,0.46,2.5v0.18H113.35z M110.78,322.96c0.46,0,0.88-0.1,1.27-0.31c0.39-0.21,0.67-0.48,0.86-0.82v-2h-1.16
		c-1.55,0-2.38,0.54-2.48,1.61l-0.01,0.18c0,0.39,0.14,0.71,0.41,0.96C109.93,322.83,110.31,322.96,110.78,322.96z"/>
	<path class="st0" d="M124.7,321.9c0-0.38-0.19-0.68-0.56-0.9c-0.38-0.22-0.98-0.41-1.81-0.58c-2.76-0.58-4.15-1.75-4.15-3.52
		c0-1.03,0.43-1.89,1.28-2.58c0.86-0.69,1.98-1.04,3.36-1.04c1.48,0,2.66,0.35,3.54,1.04c0.88,0.69,1.33,1.6,1.33,2.71h-3.1
		c0-0.44-0.14-0.81-0.43-1.1c-0.29-0.29-0.73-0.44-1.34-0.44c-0.52,0-0.93,0.12-1.21,0.35s-0.43,0.54-0.43,0.9
		c0,0.34,0.16,0.62,0.49,0.83c0.33,0.21,0.88,0.39,1.65,0.55c0.77,0.15,1.42,0.33,1.96,0.52c1.64,0.6,2.46,1.64,2.46,3.13
		c0,1.06-0.46,1.92-1.36,2.57c-0.91,0.65-2.08,0.98-3.52,0.98c-0.97,0-1.84-0.17-2.59-0.52c-0.75-0.35-1.35-0.82-1.78-1.43
		c-0.43-0.61-0.64-1.26-0.64-1.96h2.94c0.03,0.55,0.23,0.97,0.61,1.27s0.89,0.44,1.53,0.44c0.59,0,1.04-0.11,1.35-0.34
		C124.55,322.56,124.7,322.27,124.7,321.9z"/>
	<path class="st0" d="M135.07,325.33c-1.7,0-3.09-0.52-4.16-1.57c-1.07-1.05-1.61-2.44-1.61-4.18v-0.3c0-1.17,0.23-2.21,0.68-3.13
		c0.45-0.92,1.09-1.63,1.92-2.13c0.83-0.5,1.77-0.75,2.83-0.75c1.59,0,2.84,0.5,3.75,1.5c0.91,1,1.37,2.42,1.37,4.26v1.27h-7.4
		c0.1,0.76,0.4,1.37,0.91,1.83c0.51,0.46,1.14,0.69,1.92,0.69c1.2,0,2.13-0.43,2.8-1.3l1.53,1.71c-0.47,0.66-1.1,1.17-1.89,1.54
		C136.92,325.15,136.03,325.33,135.07,325.33z M134.71,315.78c-0.62,0-1.12,0.21-1.5,0.63c-0.38,0.42-0.63,1.01-0.74,1.79h4.32
		v-0.25c-0.01-0.69-0.2-1.22-0.56-1.6S135.37,315.78,134.71,315.78z"/>
	<path class="st0" d="M144.14,320.32c0-1,0.12-1.8,0.37-2.4c0.24-0.6,0.69-1.18,1.34-1.76c0.65-0.58,1.08-1.05,1.29-1.41
		s0.32-0.74,0.32-1.15c0-1.21-0.56-1.82-1.68-1.82c-0.53,0-0.95,0.16-1.27,0.49c-0.32,0.33-0.48,0.78-0.5,1.35h-3.12
		c0.01-1.37,0.46-2.44,1.33-3.21c0.87-0.77,2.06-1.16,3.56-1.16c1.52,0,2.7,0.37,3.53,1.1c0.84,0.73,1.26,1.77,1.26,3.11
		c0,0.61-0.14,1.18-0.41,1.73c-0.27,0.54-0.75,1.14-1.43,1.8l-0.87,0.83c-0.54,0.52-0.86,1.14-0.93,1.84l-0.04,0.66H144.14z
		 M143.83,323.62c0-0.48,0.16-0.87,0.49-1.18c0.33-0.31,0.74-0.47,1.25-0.47s0.93,0.16,1.25,0.47c0.33,0.31,0.49,0.71,0.49,1.18
		c0,0.47-0.16,0.86-0.48,1.17c-0.32,0.31-0.74,0.46-1.26,0.46s-0.94-0.15-1.26-0.46C143.99,324.48,143.83,324.09,143.83,323.62z"/>
</g>
</svg>
