<?xml version="1.0" encoding="utf-8"?>
<!-- Generator: Adobe Illustrator 24.2.3, SVG Export Plug-In . SVG Version: 6.00 Build 0)  -->
<svg version="1.1" id="Layer_1" xmlns="http://www.w3.org/2000/svg" xmlns:xlink="http://www.w3.org/1999/xlink" x="0px" y="0px"
	 viewBox="0 0 160 600" style="enable-background:new 0 0 160 600;" xml:space="preserve">
<style type="text/css">
	.st0{fill:#021D8B;}
</style>
<g>
	<path class="st0" d="M35.78,461.16c0-0.36-0.13-0.66-0.38-0.91s-0.68-0.47-1.27-0.67c-0.83-0.25-1.44-0.58-1.82-0.99
		s-0.57-0.93-0.57-1.56c0-0.64,0.19-1.17,0.56-1.58s0.89-0.65,1.54-0.73v-1.28h0.87v1.29c0.66,0.09,1.17,0.37,1.53,0.83
		s0.55,1.09,0.55,1.89h-1.08c0-0.55-0.13-0.99-0.39-1.32c-0.26-0.33-0.62-0.49-1.06-0.49c-0.46,0-0.82,0.12-1.07,0.36
		c-0.25,0.24-0.37,0.58-0.37,1.01c0,0.4,0.13,0.72,0.39,0.95c0.26,0.24,0.69,0.45,1.28,0.65c0.6,0.19,1.06,0.41,1.39,0.64
		s0.58,0.5,0.74,0.81s0.24,0.67,0.24,1.08c0,0.66-0.2,1.19-0.59,1.59s-0.95,0.64-1.67,0.71v1.12h-0.87v-1.12
		c-0.73-0.07-1.3-0.33-1.71-0.78s-0.62-1.06-0.62-1.84h1.08c0,0.54,0.14,0.96,0.43,1.25s0.69,0.44,1.21,0.44
		c0.51,0,0.91-0.12,1.21-0.37S35.78,461.59,35.78,461.16z"/>
	<path class="st0" d="M41.77,463.36h-1.09v-7.22l-2.19,0.8v-0.98l3.11-1.17h0.17V463.36z"/>
	<path class="st0" d="M49.5,455.49v1.54h1.18v0.84H49.5v3.94c0,0.25,0.05,0.44,0.16,0.57c0.11,0.13,0.29,0.19,0.54,0.19
		c0.12,0,0.3-0.02,0.52-0.07v0.87c-0.29,0.08-0.56,0.12-0.83,0.12c-0.48,0-0.85-0.15-1.1-0.44s-0.37-0.71-0.37-1.25v-3.93h-1.15
		v-0.84h1.15v-1.54H49.5z"/>
	<path class="st0" d="M55.01,457.99c-0.16-0.03-0.34-0.04-0.53-0.04c-0.71,0-1.19,0.3-1.45,0.91v4.5h-1.08v-6.34H53l0.02,0.73
		c0.36-0.57,0.86-0.85,1.51-0.85c0.21,0,0.37,0.03,0.48,0.08V457.99z"/>
	<path class="st0" d="M56.01,455.34c0-0.18,0.05-0.32,0.16-0.45s0.27-0.18,0.48-0.18s0.37,0.06,0.48,0.18s0.16,0.27,0.16,0.45
		s-0.05,0.32-0.16,0.44s-0.27,0.18-0.48,0.18s-0.37-0.06-0.48-0.18S56.01,455.51,56.01,455.34z M57.19,463.36H56.1v-6.34h1.08
		V463.36z"/>
	<path class="st0" d="M62.83,463.36c-0.06-0.12-0.11-0.35-0.15-0.67c-0.5,0.52-1.11,0.79-1.8,0.79c-0.62,0-1.14-0.18-1.54-0.53
		s-0.6-0.8-0.6-1.34c0-0.66,0.25-1.17,0.75-1.54s1.21-0.55,2.12-0.55h1.05v-0.5c0-0.38-0.11-0.68-0.34-0.91s-0.56-0.34-1-0.34
		c-0.39,0-0.71,0.1-0.97,0.29s-0.39,0.43-0.39,0.71h-1.09c0-0.32,0.11-0.62,0.34-0.92s0.53-0.53,0.91-0.7s0.81-0.26,1.27-0.26
		c0.73,0,1.3,0.18,1.72,0.55s0.63,0.87,0.64,1.51v2.92c0,0.58,0.07,1.04,0.22,1.39v0.09H62.83z M61.04,462.53
		c0.34,0,0.66-0.09,0.97-0.26s0.53-0.4,0.66-0.69v-1.3h-0.85c-1.33,0-1.99,0.39-1.99,1.17c0,0.34,0.11,0.61,0.34,0.8
		S60.68,462.53,61.04,462.53z"/>
	<path class="st0" d="M66.63,463.36h-1.08v-9h1.08V463.36z"/>
	<path class="st0" d="M71.86,463.36v-5.5h-1v-0.84h1v-0.65c0-0.68,0.18-1.21,0.54-1.58s0.88-0.56,1.54-0.56
		c0.25,0,0.5,0.03,0.74,0.1l-0.06,0.87c-0.18-0.04-0.38-0.05-0.59-0.05c-0.35,0-0.62,0.1-0.81,0.31c-0.19,0.21-0.29,0.5-0.29,0.88
		v0.67h1.35v0.84h-1.35v5.5H71.86z"/>
	<path class="st0" d="M75.21,460.13c0-0.62,0.12-1.18,0.37-1.68s0.58-0.88,1.02-1.15s0.93-0.4,1.49-0.4c0.86,0,1.56,0.3,2.09,0.9
		s0.8,1.39,0.8,2.38v0.08c0,0.62-0.12,1.17-0.35,1.66s-0.57,0.87-1.01,1.15s-0.94,0.41-1.51,0.41c-0.86,0-1.56-0.3-2.09-0.9
		s-0.8-1.39-0.8-2.37V460.13z M76.3,460.26c0,0.7,0.16,1.27,0.49,1.69s0.76,0.64,1.31,0.64c0.55,0,0.99-0.22,1.31-0.65
		s0.49-1.04,0.49-1.81c0-0.7-0.17-1.26-0.5-1.69s-0.77-0.65-1.32-0.65c-0.54,0-0.97,0.21-1.29,0.64S76.3,459.47,76.3,460.26z"/>
	<path class="st0" d="M85.4,457.99c-0.16-0.03-0.34-0.04-0.53-0.04c-0.71,0-1.19,0.3-1.45,0.91v4.5h-1.08v-6.34h1.05l0.02,0.73
		c0.36-0.57,0.86-0.85,1.51-0.85c0.21,0,0.37,0.03,0.48,0.08V457.99z"/>
	<path class="st0" d="M90.84,455.49v1.54h1.18v0.84h-1.18v3.94c0,0.25,0.05,0.44,0.16,0.57c0.11,0.13,0.29,0.19,0.54,0.19
		c0.12,0,0.3-0.02,0.52-0.07v0.87c-0.29,0.08-0.56,0.12-0.83,0.12c-0.48,0-0.85-0.15-1.1-0.44s-0.37-0.71-0.37-1.25v-3.93H88.6
		v-0.84h1.15v-1.54H90.84z"/>
	<path class="st0" d="M94.38,457.79c0.48-0.59,1.11-0.88,1.88-0.88c1.34,0,2.02,0.76,2.03,2.27v4.19h-1.08v-4.2
		c0-0.46-0.11-0.79-0.31-1.01s-0.52-0.33-0.96-0.33c-0.35,0-0.66,0.09-0.93,0.28s-0.47,0.43-0.62,0.74v4.52h-1.08v-9h1.08V457.79z"
		/>
	<path class="st0" d="M102.53,463.48c-0.86,0-1.56-0.28-2.1-0.85s-0.81-1.32-0.81-2.26v-0.2c0-0.63,0.12-1.19,0.36-1.68
		s0.58-0.88,1.01-1.16s0.9-0.42,1.4-0.42c0.82,0,1.46,0.27,1.92,0.81s0.69,1.32,0.69,2.33v0.45h-4.29c0.02,0.62,0.2,1.13,0.55,1.51
		s0.79,0.58,1.33,0.58c0.38,0,0.71-0.08,0.97-0.23s0.5-0.36,0.7-0.62l0.66,0.52C104.39,463.07,103.59,463.48,102.53,463.48z
		 M102.4,457.79c-0.44,0-0.8,0.16-1.1,0.48s-0.48,0.76-0.55,1.34h3.18v-0.08c-0.03-0.55-0.18-0.98-0.45-1.28
		S102.85,457.79,102.4,457.79z"/>
	<path class="st0" d="M109.76,463.36v-5.5h-1v-0.84h1v-0.65c0-0.68,0.18-1.21,0.54-1.58s0.88-0.56,1.54-0.56
		c0.25,0,0.5,0.03,0.74,0.1l-0.06,0.87c-0.18-0.04-0.38-0.05-0.59-0.05c-0.35,0-0.62,0.1-0.81,0.31c-0.19,0.21-0.29,0.5-0.29,0.88
		v0.67h1.35v0.84h-1.35v5.5H109.76z"/>
	<path class="st0" d="M113.4,455.34c0-0.18,0.05-0.32,0.16-0.45s0.27-0.18,0.48-0.18s0.37,0.06,0.48,0.18s0.16,0.27,0.16,0.45
		s-0.05,0.32-0.16,0.44s-0.27,0.18-0.48,0.18s-0.37-0.06-0.48-0.18S113.4,455.51,113.4,455.34z M114.57,463.36h-1.08v-6.34h1.08
		V463.36z"/>
	<path class="st0" d="M119.37,457.99c-0.16-0.03-0.34-0.04-0.53-0.04c-0.71,0-1.19,0.3-1.45,0.91v4.5h-1.08v-6.34h1.05l0.02,0.73
		c0.36-0.57,0.86-0.85,1.51-0.85c0.21,0,0.37,0.03,0.48,0.08V457.99z"/>
	<path class="st0" d="M124.06,461.68c0-0.29-0.11-0.52-0.33-0.68s-0.61-0.3-1.15-0.42s-0.98-0.26-1.31-0.42s-0.56-0.36-0.71-0.59
		s-0.23-0.5-0.23-0.81c0-0.52,0.22-0.96,0.66-1.32s1-0.54,1.68-0.54c0.72,0,1.3,0.19,1.75,0.56s0.67,0.85,0.67,1.42h-1.09
		c0-0.3-0.13-0.55-0.38-0.77s-0.57-0.32-0.95-0.32c-0.39,0-0.7,0.09-0.93,0.26s-0.33,0.4-0.33,0.67c0,0.26,0.1,0.46,0.31,0.59
		s0.58,0.26,1.12,0.38s0.98,0.27,1.32,0.43s0.58,0.37,0.75,0.61s0.24,0.52,0.24,0.86c0,0.57-0.23,1.02-0.68,1.36
		s-1.04,0.51-1.76,0.51c-0.51,0-0.96-0.09-1.35-0.27s-0.7-0.43-0.92-0.75s-0.33-0.67-0.33-1.05h1.08c0.02,0.36,0.17,0.65,0.44,0.86
		s0.63,0.32,1.08,0.32c0.41,0,0.74-0.08,0.99-0.25S124.06,461.96,124.06,461.68z"/>
	<path class="st0" d="M128.03,455.49v1.54h1.18v0.84h-1.18v3.94c0,0.25,0.05,0.44,0.16,0.57c0.11,0.13,0.29,0.19,0.54,0.19
		c0.12,0,0.3-0.02,0.52-0.07v0.87c-0.29,0.08-0.56,0.12-0.83,0.12c-0.48,0-0.85-0.15-1.1-0.44s-0.37-0.71-0.37-1.25v-3.93h-1.15
		v-0.84h1.15v-1.54H128.03z"/>
	<path class="st0" d="M24.6,477.76h-1.69v-6.53l-2.02,0.63v-1.38l3.53-1.27h0.18V477.76z"/>
	<path class="st0" d="M32.38,474.55h0.97v1.37h-0.97v1.85h-1.69v-1.85h-3.5l-0.08-1.07l3.56-5.62h1.71V474.55z M28.8,474.55h1.89
		v-3.01l-0.11,0.19L28.8,474.55z"/>
	<path class="st0" d="M37.05,474.54c0-0.99,0.22-1.78,0.67-2.36s1.05-0.88,1.82-0.88c0.62,0,1.13,0.23,1.53,0.69v-3.23h1.7v9h-1.53
		l-0.08-0.67c-0.42,0.53-0.96,0.79-1.63,0.79c-0.75,0-1.34-0.29-1.8-0.88S37.05,475.59,37.05,474.54z M38.75,474.67
		c0,0.59,0.1,1.05,0.31,1.37c0.21,0.32,0.51,0.48,0.9,0.48c0.52,0,0.89-0.22,1.11-0.66v-2.51c-0.21-0.44-0.58-0.66-1.1-0.66
		C39.15,472.68,38.75,473.34,38.75,474.67z"/>
	<path class="st0" d="M47.75,477.76c-0.08-0.15-0.13-0.34-0.17-0.57c-0.41,0.46-0.94,0.69-1.6,0.69c-0.62,0-1.14-0.18-1.54-0.54
		s-0.61-0.81-0.61-1.36c0-0.67,0.25-1.19,0.75-1.55s1.22-0.54,2.16-0.54h0.78v-0.36c0-0.29-0.08-0.53-0.23-0.7s-0.39-0.26-0.71-0.26
		c-0.29,0-0.51,0.07-0.67,0.21s-0.24,0.32-0.24,0.56h-1.69c0-0.37,0.11-0.71,0.34-1.02s0.55-0.56,0.96-0.74s0.88-0.27,1.39-0.27
		c0.78,0,1.4,0.2,1.86,0.59s0.69,0.94,0.69,1.66v2.75c0,0.6,0.09,1.06,0.25,1.37v0.1H47.75z M46.35,476.58
		c0.25,0,0.48-0.06,0.69-0.17s0.37-0.26,0.47-0.45v-1.09h-0.63c-0.85,0-1.3,0.29-1.35,0.88l-0.01,0.1c0,0.21,0.07,0.38,0.22,0.52
		S46.09,476.58,46.35,476.58z"/>
	<path class="st0" d="M52.88,475.36l1.17-3.94h1.82l-2.55,7.32l-0.14,0.33c-0.38,0.83-1,1.24-1.88,1.24c-0.25,0-0.5-0.04-0.75-0.11
		v-1.28l0.26,0.01c0.32,0,0.56-0.05,0.72-0.15s0.28-0.26,0.37-0.49l0.2-0.52l-2.22-6.36h1.82L52.88,475.36z"/>
	<path class="st0" d="M59.97,476.01c0-0.21-0.1-0.37-0.31-0.49s-0.53-0.23-0.99-0.32c-1.51-0.32-2.26-0.96-2.26-1.92
		c0-0.56,0.23-1.03,0.7-1.41s1.08-0.57,1.83-0.57c0.8,0,1.45,0.19,1.93,0.57s0.72,0.87,0.72,1.48H59.9c0-0.24-0.08-0.44-0.23-0.6
		s-0.4-0.24-0.73-0.24c-0.29,0-0.51,0.06-0.66,0.19s-0.23,0.29-0.23,0.49c0,0.19,0.09,0.34,0.27,0.45s0.48,0.21,0.9,0.3
		s0.78,0.18,1.07,0.28c0.89,0.33,1.34,0.9,1.34,1.71c0,0.58-0.25,1.05-0.74,1.4s-1.14,0.54-1.92,0.54c-0.53,0-1-0.09-1.42-0.28
		s-0.74-0.45-0.97-0.78s-0.35-0.69-0.35-1.07h1.61c0.02,0.3,0.13,0.53,0.33,0.69s0.48,0.24,0.83,0.24c0.32,0,0.57-0.06,0.74-0.18
		S59.97,476.21,59.97,476.01z"/>
	<path class="st0" d="M62.84,479.46l-0.62-0.42c0.37-0.51,0.56-1.04,0.57-1.58v-0.98h1.06v0.85c0,0.39-0.1,0.79-0.29,1.18
		S63.13,479.22,62.84,479.46z"/>
	<path class="st0" d="M73.56,474.66c0,0.96-0.22,1.74-0.66,2.33s-1.04,0.88-1.79,0.88c-0.77,0-1.38-0.24-1.82-0.73v3.05H68.2v-8.78
		h0.99l0.05,0.7c0.44-0.55,1.05-0.82,1.84-0.82c0.76,0,1.36,0.29,1.81,0.86s0.67,1.37,0.67,2.4V474.66z M72.47,474.54
		c0-0.71-0.15-1.28-0.46-1.69s-0.72-0.62-1.25-0.62c-0.66,0-1.15,0.29-1.48,0.87v3.03c0.32,0.58,0.82,0.87,1.49,0.87
		c0.52,0,0.93-0.21,1.24-0.62S72.47,475.35,72.47,474.54z"/>
	<path class="st0" d="M76.11,477.76h-1.08v-9h1.08V477.76z"/>
	<path class="st0" d="M81.76,477.76c-0.06-0.12-0.11-0.35-0.15-0.67c-0.5,0.52-1.1,0.79-1.8,0.79c-0.62,0-1.14-0.18-1.54-0.53
		s-0.6-0.8-0.6-1.34c0-0.66,0.25-1.17,0.75-1.54s1.21-0.55,2.12-0.55h1.05v-0.5c0-0.38-0.11-0.68-0.34-0.91s-0.56-0.34-1-0.34
		c-0.39,0-0.71,0.1-0.97,0.29s-0.39,0.43-0.39,0.71h-1.09c0-0.32,0.11-0.62,0.34-0.92s0.53-0.53,0.91-0.7s0.81-0.26,1.27-0.26
		c0.73,0,1.3,0.18,1.72,0.55s0.63,0.87,0.64,1.51v2.92c0,0.58,0.07,1.04,0.22,1.39v0.09H81.76z M79.96,476.93
		c0.34,0,0.66-0.09,0.97-0.26c0.3-0.18,0.52-0.4,0.66-0.69v-1.3h-0.85c-1.33,0-1.99,0.39-1.99,1.17c0,0.34,0.11,0.61,0.34,0.8
		S79.61,476.93,79.96,476.93z"/>
	<path class="st0" d="M85.4,471.42l0.04,0.8c0.48-0.61,1.12-0.91,1.9-0.91c1.34,0,2.02,0.76,2.03,2.27v4.19h-1.08v-4.2
		c0-0.46-0.11-0.79-0.31-1.01s-0.52-0.33-0.96-0.33c-0.35,0-0.66,0.09-0.93,0.28s-0.47,0.43-0.62,0.74v4.52h-1.08v-6.34H85.4z"/>
	<path class="st0" d="M94.69,476.08c0-0.29-0.11-0.52-0.33-0.68s-0.61-0.3-1.15-0.42s-0.98-0.26-1.31-0.42s-0.56-0.36-0.71-0.59
		s-0.23-0.5-0.23-0.81c0-0.52,0.22-0.96,0.66-1.32s1-0.54,1.68-0.54c0.72,0,1.3,0.19,1.75,0.56s0.67,0.85,0.67,1.42h-1.09
		c0-0.3-0.13-0.55-0.38-0.77s-0.57-0.32-0.95-0.32c-0.39,0-0.7,0.09-0.93,0.26s-0.33,0.4-0.33,0.67c0,0.26,0.1,0.46,0.31,0.59
		s0.58,0.26,1.12,0.38s0.98,0.27,1.32,0.43s0.58,0.37,0.75,0.61s0.24,0.52,0.24,0.86c0,0.57-0.23,1.02-0.68,1.36
		s-1.04,0.51-1.76,0.51c-0.51,0-0.96-0.09-1.35-0.27s-0.7-0.43-0.92-0.75s-0.33-0.67-0.33-1.05h1.08c0.02,0.36,0.17,0.65,0.44,0.86
		s0.63,0.32,1.08,0.32c0.41,0,0.74-0.08,0.99-0.25S94.69,476.36,94.69,476.08z"/>
	<path class="st0" d="M103.84,476.08c0-0.29-0.11-0.52-0.33-0.68s-0.61-0.3-1.15-0.42s-0.98-0.26-1.31-0.42s-0.56-0.36-0.71-0.59
		s-0.23-0.5-0.23-0.81c0-0.52,0.22-0.96,0.66-1.32s1-0.54,1.68-0.54c0.72,0,1.3,0.19,1.75,0.56s0.67,0.85,0.67,1.42h-1.09
		c0-0.3-0.13-0.55-0.38-0.77s-0.57-0.32-0.95-0.32c-0.39,0-0.7,0.09-0.93,0.26s-0.33,0.4-0.33,0.67c0,0.26,0.1,0.46,0.31,0.59
		s0.58,0.26,1.12,0.38s0.98,0.27,1.32,0.43s0.58,0.37,0.75,0.61s0.24,0.52,0.24,0.86c0,0.57-0.23,1.02-0.68,1.36
		s-1.04,0.51-1.76,0.51c-0.51,0-0.96-0.09-1.35-0.27s-0.7-0.43-0.92-0.75s-0.33-0.67-0.33-1.05h1.08c0.02,0.36,0.17,0.65,0.44,0.86
		s0.63,0.32,1.08,0.32c0.41,0,0.74-0.08,0.99-0.25S103.84,476.36,103.84,476.08z"/>
	<path class="st0" d="M107.81,469.88v1.54h1.18v0.84h-1.18v3.94c0,0.25,0.05,0.45,0.16,0.57s0.29,0.19,0.54,0.19
		c0.12,0,0.3-0.02,0.52-0.07v0.87c-0.29,0.08-0.56,0.12-0.83,0.12c-0.48,0-0.85-0.15-1.1-0.44s-0.37-0.71-0.37-1.25v-3.93h-1.15
		v-0.84h1.15v-1.54H107.81z"/>
	<path class="st0" d="M114.17,477.76c-0.06-0.12-0.11-0.35-0.15-0.67c-0.5,0.52-1.11,0.79-1.8,0.79c-0.62,0-1.14-0.18-1.54-0.53
		s-0.6-0.8-0.6-1.34c0-0.66,0.25-1.17,0.75-1.54s1.21-0.55,2.12-0.55H114v-0.5c0-0.38-0.11-0.68-0.34-0.91s-0.56-0.34-1-0.34
		c-0.39,0-0.71,0.1-0.97,0.29s-0.39,0.43-0.39,0.71h-1.09c0-0.32,0.11-0.62,0.34-0.92s0.53-0.53,0.91-0.7s0.81-0.26,1.27-0.26
		c0.73,0,1.3,0.18,1.72,0.55s0.63,0.87,0.64,1.51v2.92c0,0.58,0.07,1.04,0.22,1.39v0.09H114.17z M112.38,476.93
		c0.34,0,0.66-0.09,0.97-0.26s0.53-0.4,0.66-0.69v-1.3h-0.85c-1.33,0-1.99,0.39-1.99,1.17c0,0.34,0.11,0.61,0.34,0.8
		S112.02,476.93,112.38,476.93z"/>
	<path class="st0" d="M119.85,472.39c-0.16-0.03-0.34-0.04-0.53-0.04c-0.71,0-1.19,0.3-1.45,0.91v4.5h-1.08v-6.34h1.05l0.02,0.73
		c0.36-0.57,0.86-0.85,1.51-0.85c0.21,0,0.37,0.03,0.48,0.08V472.39z"/>
	<path class="st0" d="M122.61,469.88v1.54h1.18v0.84h-1.18v3.94c0,0.25,0.05,0.45,0.16,0.57s0.29,0.19,0.54,0.19
		c0.12,0,0.3-0.02,0.52-0.07v0.87c-0.29,0.08-0.56,0.12-0.83,0.12c-0.48,0-0.85-0.15-1.1-0.44s-0.37-0.71-0.37-1.25v-3.93h-1.15
		v-0.84h1.15v-1.54H122.61z"/>
	<path class="st0" d="M125.07,469.74c0-0.18,0.05-0.32,0.16-0.45s0.27-0.18,0.48-0.18s0.37,0.06,0.48,0.18s0.16,0.27,0.16,0.45
		s-0.05,0.32-0.16,0.44s-0.27,0.18-0.48,0.18s-0.37-0.06-0.48-0.18S125.07,469.91,125.07,469.74z M126.24,477.76h-1.08v-6.34h1.08
		V477.76z"/>
	<path class="st0" d="M129,471.42l0.04,0.8c0.48-0.61,1.12-0.91,1.9-0.91c1.34,0,2.02,0.76,2.03,2.27v4.19h-1.08v-4.2
		c0-0.46-0.11-0.79-0.31-1.01s-0.52-0.33-0.96-0.33c-0.35,0-0.66,0.09-0.93,0.28s-0.47,0.43-0.62,0.74v4.52h-1.08v-6.34H129z"/>
	<path class="st0" d="M134.34,474.54c0-0.99,0.23-1.77,0.69-2.36s1.06-0.88,1.82-0.88c0.77,0,1.38,0.27,1.81,0.82l0.05-0.7h0.99
		v6.19c0,0.82-0.24,1.47-0.73,1.94s-1.14,0.71-1.96,0.71c-0.46,0-0.9-0.1-1.34-0.29s-0.77-0.46-1-0.8l0.56-0.65
		c0.46,0.57,1.03,0.86,1.71,0.86c0.53,0,0.94-0.15,1.23-0.45s0.44-0.71,0.44-1.25v-0.54c-0.43,0.5-1.03,0.75-1.78,0.75
		c-0.74,0-1.34-0.3-1.8-0.9S134.34,475.57,134.34,474.54z M135.43,474.66c0,0.71,0.15,1.28,0.44,1.68s0.7,0.61,1.23,0.61
		c0.68,0,1.19-0.31,1.51-0.93v-2.89c-0.33-0.61-0.83-0.91-1.49-0.91c-0.53,0-0.94,0.21-1.24,0.62S135.43,473.86,135.43,474.66z"/>
	<path class="st0" d="M43.15,492.16c-0.06-0.12-0.11-0.35-0.15-0.67c-0.5,0.52-1.11,0.79-1.8,0.79c-0.62,0-1.14-0.18-1.54-0.53
		s-0.6-0.8-0.6-1.34c0-0.66,0.25-1.17,0.75-1.54s1.21-0.55,2.12-0.55h1.05v-0.5c0-0.38-0.11-0.68-0.34-0.91s-0.56-0.34-1-0.34
		c-0.39,0-0.71,0.1-0.97,0.29s-0.39,0.43-0.39,0.71h-1.09c0-0.32,0.11-0.62,0.34-0.92s0.53-0.53,0.91-0.7s0.81-0.26,1.27-0.26
		c0.73,0,1.3,0.18,1.72,0.55s0.63,0.87,0.64,1.51v2.92c0,0.58,0.07,1.04,0.22,1.39v0.09H43.15z M41.35,491.33
		c0.34,0,0.66-0.09,0.97-0.26s0.53-0.4,0.66-0.69v-1.3h-0.85c-1.33,0-1.99,0.39-1.99,1.17c0,0.34,0.11,0.61,0.34,0.8
		S40.99,491.33,41.35,491.33z"/>
	<path class="st0" d="M47.23,484.29v1.54h1.18v0.84h-1.18v3.94c0,0.25,0.05,0.44,0.16,0.57c0.11,0.13,0.29,0.19,0.54,0.19
		c0.12,0,0.3-0.02,0.52-0.07v0.87c-0.29,0.08-0.56,0.12-0.83,0.12c-0.48,0-0.85-0.15-1.1-0.44s-0.37-0.71-0.37-1.25v-3.93h-1.15
		v-0.84h1.15v-1.54H47.23z"/>
	<path class="st0" d="M56.46,489.92c0-0.32-0.09-0.58-0.27-0.76s-0.48-0.36-0.91-0.52s-0.79-0.32-1.1-0.48s-0.57-0.34-0.79-0.54
		s-0.39-0.45-0.52-0.72s-0.18-0.61-0.18-0.99c0-0.66,0.21-1.2,0.63-1.62s0.98-0.67,1.68-0.74v-1.25h0.94v1.27
		c0.69,0.1,1.23,0.39,1.62,0.86s0.59,1.1,0.59,1.86h-1.69c0-0.47-0.1-0.82-0.29-1.05s-0.45-0.35-0.78-0.35
		c-0.32,0-0.57,0.09-0.74,0.27s-0.26,0.43-0.26,0.75c0,0.3,0.09,0.54,0.26,0.71s0.49,0.36,0.96,0.55s0.85,0.36,1.15,0.53
		s0.55,0.35,0.76,0.56s0.37,0.45,0.47,0.71s0.16,0.58,0.16,0.93c0,0.66-0.21,1.2-0.62,1.62s-0.98,0.66-1.71,0.73v1.17h-0.93v-1.16
		c-0.8-0.09-1.42-0.37-1.86-0.85s-0.66-1.12-0.66-1.92h1.69c0,0.46,0.11,0.82,0.33,1.07s0.54,0.37,0.95,0.37
		c0.34,0,0.62-0.09,0.81-0.27S56.46,490.22,56.46,489.92z"/>
	<path class="st0" d="M63.26,488.75c-0.44,0.43-0.96,0.65-1.55,0.65c-0.75,0-1.36-0.26-1.81-0.78s-0.68-1.22-0.68-2.09
		c0-0.56,0.12-1.07,0.37-1.54s0.58-0.83,1.02-1.09s0.93-0.39,1.48-0.39c0.56,0,1.06,0.14,1.5,0.42s0.78,0.69,1.02,1.21
		s0.37,1.13,0.37,1.81v0.63c0,1.42-0.35,2.54-1.06,3.35s-1.71,1.25-3.01,1.3l-0.42,0.01v-1.41l0.38-0.01
		C62.34,490.76,63.14,490.07,63.26,488.75z M62.13,488.11c0.27,0,0.51-0.07,0.71-0.21s0.35-0.31,0.45-0.51v-0.7
		c0-0.57-0.11-1.02-0.33-1.34s-0.51-0.47-0.88-0.47c-0.34,0-0.62,0.16-0.84,0.47s-0.33,0.7-0.33,1.17c0,0.46,0.11,0.85,0.32,1.15
		S61.74,488.11,62.13,488.11z"/>
	<path class="st0" d="M66.34,491.33c0-0.27,0.09-0.49,0.27-0.66s0.41-0.25,0.68-0.25c0.28,0,0.51,0.08,0.69,0.25
		s0.27,0.39,0.27,0.66c0,0.27-0.09,0.48-0.27,0.65s-0.41,0.25-0.69,0.25c-0.28,0-0.51-0.08-0.69-0.25S66.34,491.59,66.34,491.33z"/>
	<path class="st0" d="M73.63,488.75c-0.44,0.43-0.96,0.65-1.55,0.65c-0.75,0-1.36-0.26-1.81-0.78s-0.68-1.22-0.68-2.09
		c0-0.56,0.12-1.07,0.37-1.54s0.58-0.83,1.02-1.09s0.93-0.39,1.48-0.39c0.56,0,1.06,0.14,1.5,0.42s0.78,0.69,1.02,1.21
		s0.37,1.13,0.37,1.81v0.63c0,1.42-0.35,2.54-1.06,3.35s-1.71,1.25-3.01,1.3l-0.42,0.01v-1.41l0.38-0.01
		C72.71,490.76,73.51,490.07,73.63,488.75z M72.5,488.11c0.27,0,0.51-0.07,0.71-0.21s0.35-0.31,0.45-0.51v-0.7
		c0-0.57-0.11-1.02-0.33-1.34s-0.51-0.47-0.88-0.47c-0.34,0-0.62,0.16-0.84,0.47s-0.33,0.7-0.33,1.17c0,0.46,0.11,0.85,0.32,1.15
		S72.11,488.11,72.5,488.11z"/>
	<path class="st0" d="M80.51,488.75c-0.44,0.43-0.96,0.65-1.55,0.65c-0.75,0-1.36-0.26-1.81-0.78s-0.68-1.22-0.68-2.09
		c0-0.56,0.12-1.07,0.37-1.54s0.58-0.83,1.02-1.09s0.93-0.39,1.48-0.39c0.56,0,1.06,0.14,1.5,0.42c0.44,0.28,0.78,0.69,1.02,1.21
		s0.37,1.13,0.37,1.81v0.63c0,1.42-0.35,2.54-1.06,3.35c-0.71,0.81-1.71,1.25-3.01,1.3l-0.42,0.01v-1.41l0.38-0.01
		C79.59,490.76,80.39,490.07,80.51,488.75z M79.38,488.11c0.27,0,0.51-0.07,0.71-0.21s0.35-0.31,0.45-0.51v-0.7
		c0-0.57-0.11-1.02-0.33-1.34s-0.51-0.47-0.88-0.47c-0.34,0-0.62,0.16-0.84,0.47s-0.33,0.7-0.33,1.17c0,0.46,0.11,0.85,0.32,1.15
		S78.99,488.11,79.38,488.11z"/>
	<path class="st0" d="M84.04,492.89h-1.26l3.14-9.26h1.26L84.04,492.89z"/>
	<path class="st0" d="M89.58,485.82l0.05,0.71c0.45-0.55,1.06-0.83,1.82-0.83c0.82,0,1.38,0.32,1.68,0.97
		c0.45-0.64,1.08-0.97,1.9-0.97c0.69,0,1.2,0.2,1.54,0.6s0.5,1,0.5,1.81v4.05h-1.7v-4.04c0-0.36-0.07-0.62-0.21-0.79
		s-0.39-0.25-0.74-0.25c-0.51,0-0.86,0.24-1.05,0.73l0.01,4.35h-1.69v-4.04c0-0.37-0.07-0.63-0.22-0.8s-0.39-0.25-0.74-0.25
		c-0.48,0-0.83,0.2-1.04,0.6v4.48h-1.69v-6.34H89.58z"/>
	<path class="st0" d="M98.11,488.93c0-0.63,0.12-1.19,0.36-1.68s0.59-0.87,1.05-1.14s0.98-0.4,1.58-0.4c0.86,0,1.55,0.26,2.09,0.79
		s0.84,1.23,0.91,2.13l0.01,0.43c0,0.97-0.27,1.75-0.81,2.34s-1.27,0.88-2.19,0.88s-1.64-0.29-2.19-0.88s-0.82-1.38-0.82-2.39
		V488.93z M99.81,489.05c0,0.6,0.11,1.06,0.34,1.38c0.23,0.32,0.55,0.48,0.97,0.48c0.41,0,0.73-0.16,0.96-0.47
		c0.23-0.31,0.35-0.82,0.35-1.51c0-0.59-0.12-1.05-0.35-1.37c-0.23-0.33-0.55-0.49-0.97-0.49c-0.41,0-0.73,0.16-0.96,0.48
		C99.92,487.88,99.81,488.38,99.81,489.05z"/>
	<path class="st0" d="M106.72,485.82l0.05,0.73c0.45-0.57,1.06-0.85,1.82-0.85c0.67,0,1.17,0.2,1.5,0.59s0.5,0.98,0.5,1.77v4.1
		h-1.69v-4.05c0-0.36-0.08-0.62-0.23-0.78s-0.42-0.24-0.78-0.24c-0.48,0-0.83,0.2-1.07,0.61v4.47h-1.69v-6.34H106.72z"/>
	<path class="st0" d="M113.91,484.26v1.56h1.08v1.24h-1.08v3.16c0,0.23,0.04,0.4,0.13,0.5s0.26,0.15,0.52,0.15
		c0.19,0,0.35-0.01,0.5-0.04v1.28c-0.33,0.1-0.67,0.15-1.03,0.15c-1.19,0-1.79-0.6-1.82-1.8v-3.42h-0.93v-1.24h0.93v-1.56H113.91z"
		/>
	<path class="st0" d="M117.59,486.51c0.45-0.54,1.01-0.81,1.69-0.81c1.38,0,2.07,0.8,2.09,2.4v4.06h-1.69v-4.01
		c0-0.36-0.08-0.63-0.23-0.81s-0.42-0.26-0.78-0.26c-0.5,0-0.86,0.19-1.08,0.57v4.51h-1.69v-9h1.69V486.51z"/>
</g>
</svg>
