<?xml version="1.0" encoding="utf-8"?>
<!-- Generator: Adobe Illustrator 24.2.3, SVG Export Plug-In . SVG Version: 6.00 Build 0)  -->
<svg version="1.1" id="Layer_1" xmlns="http://www.w3.org/2000/svg" xmlns:xlink="http://www.w3.org/1999/xlink" x="0px" y="0px"
	 viewBox="0 0 160 600" style="enable-background:new 0 0 160 600;" xml:space="preserve">
<style type="text/css">
	.st0{fill:#021D8B;}
</style>
<g>
	<path class="st0" d="M23.31,267.64c-0.43,0.62-1.04,1.08-1.81,1.39c-0.78,0.31-1.68,0.46-2.71,0.46c-1.04,0-1.97-0.24-2.78-0.73
		c-0.81-0.49-1.43-1.18-1.88-2.09s-0.67-1.95-0.68-3.14v-1.12c0-1.93,0.45-3.42,1.35-4.48s2.16-1.59,3.79-1.59
		c1.34,0,2.41,0.34,3.23,1.02s1.31,1.65,1.49,2.9h-1.69c-0.32-1.7-1.32-2.55-3.02-2.55c-1.13,0-1.99,0.4-2.57,1.19
		c-0.58,0.79-0.88,1.95-0.88,3.45v1.05c0,1.44,0.33,2.58,0.98,3.43c0.66,0.85,1.54,1.27,2.66,1.27c0.63,0,1.19-0.07,1.66-0.21
		c0.47-0.14,0.87-0.38,1.18-0.71v-2.87h-2.96v-1.38h4.64V267.64z"/>
	<path class="st0" d="M29.81,269.49c-1.29,0-2.34-0.42-3.15-1.27s-1.21-1.98-1.21-3.4v-0.3c0-0.94,0.18-1.79,0.54-2.53
		s0.86-1.32,1.51-1.74s1.35-0.63,2.1-0.63c1.24,0,2.2,0.41,2.88,1.22s1.03,1.98,1.03,3.5v0.68h-6.44c0.02,0.94,0.3,1.7,0.82,2.27
		c0.52,0.58,1.19,0.87,2,0.87c0.57,0,1.06-0.12,1.46-0.35s0.75-0.54,1.05-0.93l0.99,0.77C32.6,268.88,31.4,269.49,29.81,269.49z
		 M29.61,260.97c-0.66,0-1.21,0.24-1.65,0.72s-0.72,1.15-0.83,2.01h4.76v-0.12c-0.05-0.83-0.27-1.47-0.67-1.92
		S30.29,260.97,29.61,260.97z"/>
	<path class="st0" d="M37.61,257.5v2.3h1.78v1.26h-1.78v5.91c0,0.38,0.08,0.67,0.24,0.86s0.43,0.29,0.81,0.29
		c0.19,0,0.45-0.04,0.77-0.11v1.31c-0.43,0.12-0.84,0.17-1.25,0.17c-0.73,0-1.27-0.22-1.64-0.66s-0.55-1.06-0.55-1.87v-5.9h-1.73
		v-1.26h1.73v-2.3H37.61z"/>
	<path class="st0" d="M47.68,264.31v5.01h-1.69v-12.8h4.72c1.4,0,2.5,0.36,3.29,1.07s1.19,1.66,1.19,2.84c0,1.24-0.39,2.2-1.16,2.87
		s-1.89,1.01-3.34,1.01H47.68z M47.68,262.93h3.03c0.9,0,1.59-0.21,2.07-0.64c0.48-0.42,0.72-1.04,0.72-1.84
		c0-0.76-0.24-1.37-0.72-1.83c-0.48-0.46-1.14-0.7-1.98-0.71h-3.13V262.93z"/>
	<path class="st0" d="M61.69,261.26c-0.25-0.04-0.51-0.06-0.8-0.06c-1.07,0-1.79,0.45-2.17,1.36v6.75h-1.63v-9.51h1.58l0.03,1.1
		c0.53-0.85,1.29-1.27,2.27-1.27c0.32,0,0.56,0.04,0.72,0.12V261.26z"/>
	<path class="st0" d="M63.19,257.28c0-0.26,0.08-0.49,0.24-0.67s0.4-0.27,0.72-0.27s0.56,0.09,0.72,0.27s0.25,0.4,0.25,0.67
		s-0.08,0.48-0.25,0.66s-0.4,0.26-0.72,0.26s-0.56-0.09-0.72-0.26S63.19,257.55,63.19,257.28z M64.95,269.32h-1.63v-9.51h1.63
		V269.32z"/>
	<path class="st0" d="M70.69,267.11l2.36-7.3h1.66l-3.41,9.51h-1.24l-3.45-9.51h1.66L70.69,267.11z"/>
	<path class="st0" d="M82.01,269.32c-0.09-0.19-0.17-0.52-0.23-1c-0.76,0.79-1.66,1.18-2.71,1.18c-0.94,0-1.71-0.26-2.31-0.79
		s-0.9-1.2-0.9-2.02c0-0.99,0.38-1.76,1.13-2.31s1.81-0.82,3.18-0.82h1.58v-0.75c0-0.57-0.17-1.02-0.51-1.36
		c-0.34-0.34-0.84-0.5-1.5-0.5c-0.58,0-1.07,0.15-1.46,0.44s-0.59,0.65-0.59,1.06h-1.63c0-0.47,0.17-0.93,0.51-1.38
		s0.79-0.79,1.37-1.05s1.21-0.39,1.9-0.39c1.1,0,1.95,0.27,2.58,0.82s0.94,1.3,0.97,2.26v4.38c0,0.87,0.11,1.57,0.33,2.08v0.14
		H82.01z M79.31,268.08c0.51,0,0.99-0.13,1.45-0.4c0.46-0.26,0.79-0.61,0.99-1.03v-1.95h-1.27c-1.99,0-2.99,0.58-2.99,1.75
		c0,0.51,0.17,0.91,0.51,1.2S78.78,268.08,79.31,268.08z"/>
	<path class="st0" d="M89.74,268.16c0.58,0,1.09-0.18,1.52-0.53s0.67-0.79,0.72-1.32h1.54c-0.03,0.54-0.22,1.06-0.56,1.56
		s-0.81,0.88-1.38,1.18s-1.19,0.44-1.83,0.44c-1.29,0-2.33-0.43-3.09-1.3c-0.76-0.86-1.15-2.05-1.15-3.55v-0.27
		c0-0.93,0.17-1.75,0.51-2.47s0.83-1.28,1.46-1.68s1.39-0.6,2.25-0.6c1.07,0,1.95,0.32,2.66,0.96s1.08,1.47,1.13,2.49h-1.54
		c-0.05-0.62-0.28-1.12-0.7-1.52c-0.42-0.4-0.94-0.59-1.55-0.59c-0.83,0-1.47,0.3-1.92,0.89s-0.68,1.45-0.68,2.58v0.31
		c0,1.1,0.23,1.94,0.68,2.53S88.91,268.16,89.74,268.16z"/>
	<path class="st0" d="M98.46,266.93l2.21-7.13h1.74l-3.82,10.98c-0.59,1.58-1.53,2.37-2.82,2.37l-0.31-0.03l-0.61-0.11v-1.32
		l0.44,0.04c0.55,0,0.98-0.11,1.29-0.33s0.56-0.63,0.76-1.22l0.36-0.97l-3.39-9.4h1.78L98.46,266.93z"/>
	<path class="st0" d="M113.57,267.64c-0.43,0.62-1.04,1.08-1.81,1.39c-0.78,0.31-1.68,0.46-2.71,0.46c-1.04,0-1.97-0.24-2.78-0.73
		c-0.81-0.49-1.43-1.18-1.88-2.09s-0.67-1.95-0.68-3.14v-1.12c0-1.93,0.45-3.42,1.35-4.48s2.16-1.59,3.79-1.59
		c1.34,0,2.41,0.34,3.22,1.02s1.31,1.65,1.49,2.9h-1.69c-0.32-1.7-1.32-2.55-3.02-2.55c-1.13,0-1.99,0.4-2.57,1.19
		c-0.58,0.79-0.88,1.95-0.88,3.45v1.05c0,1.44,0.33,2.58,0.98,3.43c0.66,0.85,1.54,1.27,2.66,1.27c0.63,0,1.19-0.07,1.66-0.21
		c0.47-0.14,0.87-0.38,1.18-0.71v-2.87h-2.96v-1.38h4.64V267.64z"/>
	<path class="st0" d="M122,268.38c-0.63,0.74-1.56,1.12-2.79,1.12c-1.01,0-1.79-0.29-2.32-0.88c-0.53-0.59-0.8-1.46-0.8-2.62v-6.19
		h1.63v6.14c0,1.44,0.59,2.16,1.76,2.16c1.24,0,2.07-0.46,2.48-1.39v-6.92h1.63v9.51h-1.55L122,268.38z"/>
	<path class="st0" d="M131.92,269.32c-0.09-0.19-0.17-0.52-0.23-1c-0.76,0.79-1.66,1.18-2.71,1.18c-0.94,0-1.71-0.26-2.31-0.79
		c-0.6-0.53-0.9-1.2-0.9-2.02c0-0.99,0.38-1.76,1.13-2.31c0.75-0.55,1.81-0.82,3.18-0.82h1.58v-0.75c0-0.57-0.17-1.02-0.51-1.36
		c-0.34-0.34-0.84-0.5-1.5-0.5c-0.58,0-1.07,0.15-1.46,0.44s-0.59,0.65-0.59,1.06h-1.63c0-0.47,0.17-0.93,0.5-1.38
		s0.79-0.79,1.37-1.05s1.21-0.39,1.9-0.39c1.1,0,1.95,0.27,2.58,0.82s0.94,1.3,0.97,2.26v4.38c0,0.87,0.11,1.57,0.33,2.08v0.14
		H131.92z M129.22,268.08c0.51,0,0.99-0.13,1.45-0.4s0.79-0.61,0.99-1.03v-1.95h-1.27c-1.99,0-2.99,0.58-2.99,1.75
		c0,0.51,0.17,0.91,0.51,1.2S128.69,268.08,129.22,268.08z"/>
	<path class="st0" d="M140.44,261.26c-0.25-0.04-0.51-0.06-0.8-0.06c-1.07,0-1.79,0.45-2.17,1.36v6.75h-1.63v-9.51h1.58l0.03,1.1
		c0.53-0.85,1.29-1.27,2.27-1.27c0.32,0,0.56,0.04,0.72,0.12V261.26z"/>
	<path class="st0" d="M141.54,264.48c0-1.46,0.35-2.63,1.04-3.52c0.69-0.89,1.6-1.33,2.72-1.33c1.11,0,2,0.38,2.65,1.14v-4.96h1.63
		v13.5h-1.49l-0.08-1.02c-0.65,0.8-1.56,1.2-2.72,1.2c-1.1,0-2-0.45-2.69-1.35c-0.7-0.9-1.04-2.08-1.04-3.53V264.48z M143.16,264.67
		c0,1.08,0.22,1.92,0.67,2.53s1.06,0.91,1.85,0.91c1.03,0,1.78-0.46,2.26-1.39v-4.37c-0.49-0.9-1.23-1.34-2.24-1.34
		c-0.8,0-1.42,0.31-1.86,0.92S143.16,263.46,143.16,264.67z"/>
	<path class="st0" d="M74.42,288.67l1.83-7.27h1.63l-2.77,9.51h-1.32l-2.31-7.21l-2.25,7.21h-1.32l-2.76-9.51h1.62l1.87,7.12
		l2.21-7.12h1.31L74.42,288.67z"/>
	<path class="st0" d="M79.54,278.88c0-0.26,0.08-0.49,0.24-0.67s0.4-0.27,0.72-0.27s0.56,0.09,0.72,0.27s0.25,0.4,0.25,0.67
		s-0.08,0.48-0.25,0.66s-0.4,0.26-0.72,0.26s-0.56-0.09-0.72-0.26S79.54,279.15,79.54,278.88z M81.29,290.92h-1.63v-9.51h1.63
		V290.92z"/>
	<path class="st0" d="M86.1,279.1v2.3h1.78v1.26H86.1v5.91c0,0.38,0.08,0.67,0.24,0.86s0.43,0.29,0.81,0.29
		c0.19,0,0.45-0.04,0.77-0.11v1.31c-0.43,0.12-0.84,0.17-1.25,0.17c-0.73,0-1.27-0.22-1.64-0.66s-0.55-1.06-0.55-1.87v-5.9h-1.73
		v-1.26h1.73v-2.3H86.1z"/>
	<path class="st0" d="M91.4,282.56c0.72-0.88,1.66-1.33,2.81-1.33c2.01,0,3.02,1.13,3.04,3.4v6.28h-1.63v-6.29
		c-0.01-0.69-0.16-1.19-0.47-1.52c-0.31-0.33-0.79-0.49-1.44-0.49c-0.53,0-0.99,0.14-1.39,0.42s-0.71,0.65-0.93,1.11v6.78h-1.63
		v-13.5h1.63V282.56z"/>
	<path class="st0" d="M28.8,303.01l0.08,1.06c0.67-0.83,1.58-1.24,2.73-1.24c1.22,0,2.07,0.48,2.52,1.45
		c0.67-0.97,1.62-1.45,2.86-1.45c1.03,0,1.8,0.3,2.3,0.9c0.5,0.6,0.76,1.5,0.76,2.71v6.07H37.5v-6.06c0-0.54-0.11-0.93-0.32-1.18
		s-0.58-0.37-1.12-0.37c-0.76,0-1.29,0.36-1.58,1.09l0.01,6.53h-2.54v-6.06c0-0.55-0.11-0.95-0.33-1.2s-0.59-0.37-1.11-0.37
		c-0.72,0-1.24,0.3-1.56,0.9v6.72h-2.54v-9.51H28.8z"/>
	<path class="st0" d="M41.61,307.67c0-0.94,0.18-1.78,0.54-2.52s0.89-1.31,1.57-1.71s1.48-0.61,2.38-0.61
		c1.28,0,2.33,0.39,3.14,1.18s1.26,1.85,1.36,3.2l0.02,0.65c0,1.46-0.41,2.63-1.22,3.51s-1.91,1.32-3.28,1.32s-2.47-0.44-3.28-1.32
		s-1.23-2.07-1.23-3.59V307.67z M44.15,307.85c0,0.9,0.17,1.59,0.51,2.07c0.34,0.48,0.83,0.72,1.46,0.72c0.62,0,1.1-0.24,1.44-0.71
		c0.35-0.47,0.52-1.23,0.52-2.27c0-0.89-0.17-1.57-0.52-2.06s-0.83-0.73-1.46-0.73c-0.62,0-1.1,0.24-1.44,0.73
		C44.32,306.09,44.15,306.84,44.15,307.85z"/>
	<path class="st0" d="M54.52,303.01l0.08,1.1c0.68-0.85,1.59-1.27,2.73-1.27c1.01,0,1.76,0.3,2.25,0.89s0.74,1.48,0.76,2.65v6.14
		H57.8v-6.08c0-0.54-0.12-0.93-0.35-1.17c-0.23-0.24-0.62-0.36-1.17-0.36c-0.71,0-1.25,0.3-1.61,0.91v6.71h-2.54v-9.51H54.52z"/>
	<path class="st0" d="M65.3,300.67v2.34h1.63v1.86H65.3v4.75c0,0.35,0.07,0.6,0.2,0.76s0.39,0.23,0.77,0.23
		c0.28,0,0.53-0.02,0.75-0.06v1.92c-0.5,0.15-1.01,0.23-1.54,0.23c-1.78,0-2.69-0.9-2.72-2.7v-5.12h-1.39v-1.86h1.39v-2.34H65.3z"/>
	<path class="st0" d="M70.82,304.04c0.67-0.81,1.52-1.21,2.54-1.21c2.06,0,3.11,1.2,3.14,3.59v6.09h-2.54v-6.02
		c0-0.54-0.12-0.95-0.35-1.21s-0.62-0.39-1.17-0.39c-0.74,0-1.28,0.29-1.62,0.86v6.76h-2.54v-13.5h2.54V304.04z"/>
	<path class="st0" d="M81.1,312.52h-2.55v-13.5h2.55V312.52z"/>
	<path class="st0" d="M86.74,308.92l1.76-5.92h2.72l-3.82,10.99l-0.21,0.5c-0.57,1.24-1.51,1.86-2.81,1.86
		c-0.37,0-0.74-0.06-1.12-0.17v-1.92l0.39,0.01c0.48,0,0.84-0.07,1.08-0.22s0.42-0.39,0.56-0.73l0.3-0.78l-3.33-9.54h2.73
		L86.74,308.92z"/>
	<path class="st0" d="M99.75,300.67v2.34h1.62v1.86h-1.62v4.75c0,0.35,0.07,0.6,0.2,0.76s0.39,0.23,0.77,0.23
		c0.28,0,0.53-0.02,0.75-0.06v1.92c-0.5,0.15-1.01,0.23-1.54,0.23c-1.78,0-2.69-0.9-2.72-2.7v-5.12h-1.39v-1.86h1.39v-2.34H99.75z"
		/>
	<path class="st0" d="M108.13,305.39c-0.35-0.05-0.65-0.07-0.91-0.07c-0.96,0-1.59,0.33-1.89,0.98v6.22h-2.54v-9.51h2.4l0.07,1.13
		c0.51-0.87,1.22-1.31,2.12-1.31c0.28,0,0.54,0.04,0.79,0.11L108.13,305.39z"/>
	<path class="st0" d="M109.33,300.54c0-0.38,0.13-0.69,0.38-0.94c0.26-0.25,0.6-0.37,1.04-0.37c0.43,0,0.78,0.12,1.04,0.37
		s0.39,0.56,0.39,0.94c0,0.39-0.13,0.7-0.39,0.95c-0.26,0.25-0.61,0.37-1.03,0.37s-0.77-0.12-1.03-0.37
		C109.46,301.25,109.33,300.93,109.33,300.54z M112.03,312.52h-2.55v-9.51h2.55V312.52z"/>
	<path class="st0" d="M122.68,307.85c0,1.46-0.33,2.64-1,3.52c-0.67,0.88-1.56,1.32-2.69,1.32c-0.96,0-1.74-0.33-2.33-1v4.48h-2.54
		v-13.17h2.36l0.09,0.93c0.62-0.74,1.42-1.11,2.41-1.11c1.17,0,2.08,0.43,2.73,1.3s0.98,2.06,0.98,3.59V307.85z M120.14,307.66
		c0-0.88-0.16-1.57-0.47-2.05s-0.77-0.72-1.37-0.72c-0.8,0-1.34,0.3-1.64,0.91v3.89c0.31,0.63,0.86,0.94,1.66,0.94
		C119.54,310.64,120.14,309.65,120.14,307.66z"/>
	<path class="st0" d="M126.94,312.52h-2.55v-13.5h2.55V312.52z"/>
	<path class="st0" d="M133.41,312.69c-1.39,0-2.53-0.43-3.41-1.28c-0.88-0.86-1.31-2-1.31-3.42v-0.25c0-0.96,0.18-1.81,0.55-2.56
		s0.89-1.33,1.57-1.74c0.68-0.41,1.45-0.61,2.32-0.61c1.3,0,2.33,0.41,3.07,1.23c0.75,0.82,1.12,1.98,1.12,3.49v1.04h-6.06
		c0.08,0.62,0.33,1.12,0.74,1.49c0.41,0.38,0.94,0.56,1.57,0.56c0.98,0,1.74-0.35,2.29-1.06l1.25,1.4c-0.38,0.54-0.9,0.96-1.55,1.26
		C134.92,312.54,134.2,312.69,133.41,312.69z M133.12,304.88c-0.5,0-0.91,0.17-1.23,0.51c-0.31,0.34-0.51,0.83-0.6,1.47h3.53v-0.2
		c-0.01-0.57-0.16-1-0.46-1.31C134.07,305.03,133.66,304.88,133.12,304.88z"/>
	<path class="st0" d="M37.47,329.45c0,1.52-0.33,2.71-0.98,3.56c-0.65,0.85-1.56,1.28-2.72,1.28c-1.03,0-1.85-0.4-2.47-1.19
		l-0.11,1.01H28.9v-13.5h2.54v4.84c0.59-0.69,1.36-1.03,2.31-1.03c1.16,0,2.07,0.43,2.73,1.28c0.66,0.85,0.99,2.05,0.99,3.6V329.45z
		 M34.93,329.26c0-0.96-0.15-1.66-0.46-2.11c-0.3-0.44-0.76-0.66-1.36-0.66c-0.81,0-1.37,0.33-1.67,0.99v3.75
		c0.31,0.67,0.87,1,1.69,1c0.82,0,1.36-0.4,1.62-1.21C34.86,330.64,34.93,330.05,34.93,329.26z"/>
	<path class="st0" d="M44.73,333.15c-0.63,0.76-1.49,1.14-2.6,1.14c-1.02,0-1.8-0.29-2.33-0.88s-0.81-1.44-0.82-2.58v-6.23h2.54
		v6.15c0,0.99,0.45,1.49,1.35,1.49c0.86,0,1.45-0.3,1.78-0.9v-6.74h2.55v9.51H44.8L44.73,333.15z"/>
	<path class="st0" d="M54.45,326.99c-0.35-0.05-0.65-0.07-0.91-0.07c-0.96,0-1.59,0.33-1.89,0.98v6.22H49.1v-9.51h2.4l0.07,1.13
		c0.51-0.87,1.22-1.31,2.12-1.31c0.28,0,0.54,0.04,0.79,0.11L54.45,326.99z"/>
	<path class="st0" d="M60.05,334.29c-1.39,0-2.53-0.43-3.41-1.28s-1.31-2-1.31-3.42v-0.25c0-0.96,0.18-1.81,0.55-2.56
		s0.89-1.33,1.57-1.74s1.45-0.61,2.32-0.61c1.3,0,2.32,0.41,3.07,1.23s1.12,1.98,1.12,3.49v1.04H57.9c0.08,0.62,0.33,1.12,0.74,1.49
		s0.94,0.56,1.57,0.56c0.98,0,1.74-0.35,2.29-1.06l1.25,1.4c-0.38,0.54-0.9,0.96-1.55,1.26C61.56,334.14,60.84,334.29,60.05,334.29z
		 M59.76,326.48c-0.5,0-0.91,0.17-1.23,0.51c-0.31,0.34-0.51,0.83-0.6,1.47h3.53v-0.2c-0.01-0.57-0.16-1-0.46-1.31
		C60.71,326.63,60.29,326.48,59.76,326.48z"/>
	<path class="st0" d="M70.91,334.12c-0.12-0.23-0.2-0.51-0.25-0.85c-0.62,0.69-1.42,1.03-2.4,1.03c-0.93,0-1.7-0.27-2.32-0.81
		s-0.92-1.22-0.92-2.04c0-1.01,0.37-1.78,1.12-2.32s1.83-0.81,3.24-0.82h1.17v-0.54c0-0.44-0.11-0.79-0.34-1.05s-0.58-0.4-1.07-0.4
		c-0.43,0-0.76,0.1-1.01,0.31s-0.36,0.49-0.36,0.84h-2.54c0-0.55,0.17-1.06,0.51-1.53s0.82-0.84,1.44-1.1s1.32-0.4,2.09-0.4
		c1.17,0,2.1,0.29,2.79,0.88c0.69,0.59,1.03,1.42,1.03,2.48v4.12c0.01,0.9,0.13,1.58,0.38,2.05v0.15H70.91z M68.81,332.35
		c0.38,0,0.72-0.08,1.04-0.25c0.32-0.17,0.55-0.39,0.7-0.67v-1.63H69.6c-1.27,0-1.95,0.44-2.03,1.32l-0.01,0.15
		c0,0.32,0.11,0.58,0.33,0.78S68.42,332.35,68.81,332.35z"/>
	<path class="st0" d="M80.74,333.15c-0.63,0.76-1.49,1.14-2.6,1.14c-1.02,0-1.8-0.29-2.33-0.88s-0.81-1.44-0.82-2.58v-6.23h2.54
		v6.15c0,0.99,0.45,1.49,1.35,1.49c0.86,0,1.45-0.3,1.78-0.9v-6.74h2.55v9.51h-2.39L80.74,333.15z"/>
	<path class="st0" d="M93.56,332.24c0.47,0,0.85-0.13,1.14-0.39s0.45-0.6,0.46-1.03h2.38c-0.01,0.64-0.18,1.23-0.53,1.77
		c-0.35,0.54-0.82,0.95-1.42,1.25c-0.6,0.29-1.26,0.44-1.99,0.44c-1.36,0-2.43-0.43-3.22-1.3c-0.79-0.86-1.18-2.06-1.18-3.58v-0.17
		c0-1.46,0.39-2.63,1.17-3.51s1.85-1.31,3.21-1.31c1.19,0,2.14,0.34,2.86,1.02c0.72,0.68,1.08,1.58,1.09,2.7h-2.38
		c-0.01-0.5-0.16-0.9-0.46-1.21s-0.68-0.46-1.16-0.46c-0.59,0-1.04,0.22-1.34,0.65c-0.3,0.43-0.45,1.13-0.45,2.1v0.26
		c0,0.98,0.15,1.68,0.45,2.11S92.95,332.24,93.56,332.24z"/>
	<path class="st0" d="M104.33,326.99c-0.35-0.05-0.65-0.07-0.91-0.07c-0.96,0-1.59,0.33-1.89,0.98v6.22h-2.54v-9.51h2.4l0.07,1.13
		c0.51-0.87,1.22-1.31,2.12-1.31c0.28,0,0.54,0.04,0.79,0.11L104.33,326.99z"/>
	<path class="st0" d="M109.93,334.29c-1.39,0-2.53-0.43-3.41-1.28s-1.31-2-1.31-3.42v-0.25c0-0.96,0.18-1.81,0.55-2.56
		s0.89-1.33,1.57-1.74s1.45-0.61,2.32-0.61c1.3,0,2.33,0.41,3.07,1.23c0.75,0.82,1.12,1.98,1.12,3.49v1.04h-6.06
		c0.08,0.62,0.33,1.12,0.74,1.49s0.94,0.56,1.57,0.56c0.98,0,1.74-0.35,2.29-1.06l1.25,1.4c-0.38,0.54-0.9,0.96-1.55,1.26
		C111.44,334.14,110.72,334.29,109.93,334.29z M109.64,326.48c-0.5,0-0.91,0.17-1.23,0.51c-0.31,0.34-0.51,0.83-0.6,1.47h3.53v-0.2
		c-0.01-0.57-0.16-1-0.46-1.31C110.6,326.63,110.18,326.48,109.64,326.48z"/>
	<path class="st0" d="M114.89,329.29c0-1.48,0.33-2.66,1-3.54c0.66-0.88,1.57-1.32,2.73-1.32c0.93,0,1.69,0.35,2.29,1.04v-4.85h2.55
		v13.5h-2.29l-0.12-1.01c-0.63,0.79-1.45,1.19-2.44,1.19c-1.12,0-2.02-0.44-2.69-1.32C115.23,332.09,114.89,330.86,114.89,329.29z
		 M117.43,329.48c0,0.89,0.16,1.58,0.47,2.05s0.76,0.71,1.35,0.71c0.79,0,1.34-0.33,1.66-1v-3.76c-0.32-0.66-0.86-1-1.64-1
		C118.04,326.5,117.43,327.49,117.43,329.48z"/>
	<path class="st0" d="M125.41,322.14c0-0.38,0.13-0.69,0.38-0.94c0.26-0.25,0.6-0.37,1.04-0.37c0.43,0,0.78,0.12,1.04,0.37
		s0.39,0.56,0.39,0.94c0,0.39-0.13,0.7-0.39,0.95s-0.6,0.37-1.03,0.37s-0.77-0.12-1.03-0.37
		C125.54,322.85,125.41,322.53,125.41,322.14z M128.11,334.12h-2.55v-9.51h2.55V334.12z"/>
	<path class="st0" d="M133.24,322.27v2.34h1.63v1.86h-1.63v4.75c0,0.35,0.07,0.6,0.2,0.76s0.39,0.23,0.77,0.23
		c0.28,0,0.53-0.02,0.75-0.06v1.92c-0.5,0.15-1.01,0.23-1.54,0.23c-1.78,0-2.69-0.9-2.72-2.7v-5.12h-1.39v-1.86h1.39v-2.34H133.24z"
		/>
	<path class="st0" d="M20.69,353.09c0-0.31-0.15-0.55-0.46-0.73s-0.8-0.34-1.48-0.48c-2.26-0.47-3.39-1.44-3.39-2.88
		c0-0.84,0.35-1.55,1.05-2.11c0.7-0.56,1.62-0.85,2.75-0.85c1.21,0,2.17,0.28,2.9,0.85s1.09,1.31,1.09,2.21H20.6
		c0-0.36-0.12-0.66-0.35-0.9c-0.23-0.24-0.6-0.36-1.1-0.36c-0.43,0-0.76,0.1-0.99,0.29s-0.35,0.44-0.35,0.74
		c0,0.28,0.13,0.51,0.4,0.68c0.27,0.17,0.72,0.32,1.35,0.45s1.17,0.27,1.6,0.43c1.34,0.49,2.01,1.34,2.01,2.56
		c0,0.87-0.37,1.57-1.12,2.1c-0.74,0.54-1.71,0.8-2.88,0.8c-0.8,0-1.5-0.14-2.12-0.43c-0.62-0.28-1.1-0.67-1.45-1.17
		c-0.35-0.49-0.53-1.03-0.53-1.6h2.41c0.02,0.45,0.19,0.8,0.5,1.04s0.73,0.36,1.25,0.36c0.49,0,0.85-0.09,1.1-0.28
		C20.57,353.63,20.69,353.39,20.69,353.09z"/>
	<path class="st0" d="M28.75,353.84c0.47,0,0.85-0.13,1.14-0.39s0.45-0.6,0.46-1.03h2.38c-0.01,0.64-0.18,1.23-0.53,1.77
		c-0.35,0.54-0.82,0.95-1.42,1.25c-0.6,0.29-1.26,0.44-1.99,0.44c-1.36,0-2.43-0.43-3.22-1.3c-0.79-0.86-1.18-2.06-1.18-3.58v-0.17
		c0-1.46,0.39-2.63,1.17-3.51s1.85-1.31,3.21-1.31c1.19,0,2.14,0.34,2.86,1.02c0.72,0.68,1.08,1.58,1.09,2.7h-2.38
		c-0.01-0.5-0.16-0.9-0.46-1.21s-0.68-0.46-1.16-0.46c-0.59,0-1.04,0.22-1.34,0.65c-0.3,0.43-0.45,1.13-0.45,2.1v0.26
		c0,0.98,0.15,1.68,0.45,2.11S28.14,353.84,28.75,353.84z"/>
	<path class="st0" d="M33.79,350.87c0-0.94,0.18-1.78,0.54-2.52s0.89-1.31,1.57-1.71s1.48-0.61,2.38-0.61
		c1.28,0,2.33,0.39,3.14,1.18s1.26,1.85,1.36,3.2l0.02,0.65c0,1.46-0.41,2.63-1.22,3.51s-1.91,1.32-3.28,1.32s-2.47-0.44-3.28-1.32
		s-1.23-2.07-1.23-3.59V350.87z M36.33,351.05c0,0.9,0.17,1.59,0.51,2.07c0.34,0.48,0.83,0.72,1.46,0.72c0.62,0,1.1-0.24,1.44-0.71
		c0.35-0.47,0.52-1.23,0.52-2.27c0-0.89-0.17-1.57-0.52-2.06s-0.83-0.73-1.46-0.73c-0.62,0-1.1,0.24-1.44,0.73
		C36.5,349.29,36.33,350.04,36.33,351.05z"/>
	<path class="st0" d="M49.71,348.59c-0.35-0.05-0.65-0.07-0.91-0.07c-0.96,0-1.59,0.33-1.89,0.98v6.22h-2.54v-9.51h2.4l0.07,1.13
		c0.51-0.87,1.22-1.31,2.12-1.31c0.28,0,0.54,0.04,0.79,0.11L49.71,348.59z"/>
	<path class="st0" d="M55.3,355.89c-1.39,0-2.53-0.43-3.41-1.28s-1.31-2-1.31-3.42v-0.25c0-0.96,0.18-1.81,0.55-2.56
		s0.89-1.33,1.57-1.74s1.45-0.61,2.32-0.61c1.3,0,2.32,0.41,3.07,1.23s1.12,1.98,1.12,3.49v1.04h-6.06
		c0.08,0.62,0.33,1.12,0.74,1.49s0.94,0.56,1.57,0.56c0.98,0,1.74-0.35,2.29-1.06l1.25,1.4c-0.38,0.54-0.9,0.96-1.55,1.26
		C56.82,355.74,56.09,355.89,55.3,355.89z M55.01,348.08c-0.5,0-0.91,0.17-1.23,0.51c-0.31,0.34-0.51,0.83-0.6,1.47h3.53v-0.2
		c-0.01-0.57-0.16-1-0.46-1.31C55.97,348.23,55.55,348.08,55.01,348.08z"/>
	<path class="st0" d="M65.81,353.09c0-0.31-0.15-0.55-0.46-0.73s-0.8-0.34-1.48-0.48c-2.26-0.47-3.39-1.44-3.39-2.88
		c0-0.84,0.35-1.55,1.05-2.11c0.7-0.56,1.62-0.85,2.75-0.85c1.21,0,2.17,0.28,2.9,0.85s1.09,1.31,1.09,2.21h-2.54
		c0-0.36-0.12-0.66-0.35-0.9c-0.23-0.24-0.6-0.36-1.1-0.36c-0.43,0-0.76,0.1-0.99,0.29s-0.35,0.44-0.35,0.74
		c0,0.28,0.13,0.51,0.4,0.68c0.27,0.17,0.72,0.32,1.35,0.45s1.17,0.27,1.6,0.43c1.34,0.49,2.01,1.34,2.01,2.56
		c0,0.87-0.37,1.57-1.12,2.1c-0.74,0.54-1.71,0.8-2.88,0.8c-0.8,0-1.5-0.14-2.12-0.43c-0.62-0.28-1.1-0.67-1.45-1.17
		c-0.35-0.49-0.53-1.03-0.53-1.6h2.41c0.02,0.45,0.19,0.8,0.5,1.04s0.73,0.36,1.25,0.36c0.49,0,0.85-0.09,1.1-0.28
		C65.68,353.63,65.81,353.39,65.81,353.09z"/>
	<path class="st0" d="M74.04,352.27c0-0.59,0.17-1.14,0.5-1.64s0.94-1.06,1.82-1.68c-0.38-0.51-0.68-0.99-0.9-1.44
		c-0.22-0.45-0.33-0.92-0.33-1.4c0-1,0.31-1.81,0.94-2.43c0.63-0.62,1.48-0.94,2.54-0.94c0.96,0,1.74,0.28,2.35,0.85
		c0.61,0.57,0.92,1.28,0.92,2.13c0,1.02-0.52,1.92-1.55,2.7l-0.98,0.71l2.21,2.57c0.35-0.68,0.52-1.43,0.52-2.25h2.16
		c0,1.66-0.38,3.01-1.15,4.04l1.92,2.22h-2.88l-0.66-0.76c-0.94,0.62-2.03,0.93-3.25,0.93c-1.27,0-2.28-0.33-3.04-1
		C74.42,354.23,74.04,353.35,74.04,352.27z M78.35,353.84c0.61,0,1.19-0.17,1.73-0.51l-2.52-2.91l-0.18,0.13
		c-0.52,0.44-0.78,0.97-0.78,1.57c0,0.51,0.16,0.92,0.49,1.24S77.83,353.84,78.35,353.84z M77.42,346.07c0,0.44,0.26,0.99,0.77,1.66
		l0.68-0.45c0.35-0.22,0.58-0.44,0.72-0.65s0.2-0.46,0.2-0.76s-0.11-0.55-0.33-0.76s-0.5-0.33-0.83-0.33
		c-0.36,0-0.65,0.12-0.87,0.35S77.42,345.69,77.42,346.07z"/>
	<path class="st0" d="M96.03,348.59c-0.35-0.05-0.65-0.07-0.91-0.07c-0.96,0-1.59,0.33-1.89,0.98v6.22h-2.54v-9.51h2.4l0.07,1.13
		c0.51-0.87,1.22-1.31,2.12-1.31c0.28,0,0.54,0.04,0.79,0.11L96.03,348.59z"/>
	<path class="st0" d="M101.63,355.89c-1.39,0-2.53-0.43-3.41-1.28c-0.88-0.86-1.31-2-1.31-3.42v-0.25c0-0.96,0.18-1.81,0.55-2.56
		s0.89-1.33,1.57-1.74c0.68-0.41,1.45-0.61,2.32-0.61c1.3,0,2.32,0.41,3.07,1.23c0.75,0.82,1.12,1.98,1.12,3.49v1.04h-6.06
		c0.08,0.62,0.33,1.12,0.74,1.49c0.41,0.38,0.94,0.56,1.57,0.56c0.98,0,1.74-0.35,2.29-1.06l1.25,1.4c-0.38,0.54-0.9,0.96-1.55,1.26
		C103.14,355.74,102.42,355.89,101.63,355.89z M101.34,348.08c-0.5,0-0.91,0.17-1.23,0.51c-0.31,0.34-0.51,0.83-0.6,1.47h3.53v-0.2
		c-0.01-0.57-0.16-1-0.46-1.31C102.3,348.23,101.88,348.08,101.34,348.08z"/>
	<path class="st0" d="M115.54,351.05c0,1.46-0.33,2.64-1,3.52c-0.67,0.88-1.56,1.32-2.69,1.32c-0.96,0-1.74-0.33-2.33-1v4.48h-2.54
		v-13.17h2.36l0.09,0.93c0.62-0.74,1.42-1.11,2.41-1.11c1.17,0,2.08,0.43,2.73,1.3s0.98,2.06,0.98,3.59V351.05z M113,350.86
		c0-0.88-0.16-1.57-0.47-2.05s-0.77-0.72-1.37-0.72c-0.8,0-1.34,0.3-1.64,0.91v3.89c0.31,0.63,0.86,0.94,1.66,0.94
		C112.4,353.84,113,352.85,113,350.86z"/>
	<path class="st0" d="M116.72,350.87c0-0.94,0.18-1.78,0.54-2.52s0.89-1.31,1.57-1.71s1.48-0.61,2.38-0.61
		c1.28,0,2.33,0.39,3.14,1.18s1.26,1.85,1.36,3.2l0.02,0.65c0,1.46-0.41,2.63-1.22,3.51s-1.91,1.32-3.28,1.32s-2.47-0.44-3.28-1.32
		c-0.82-0.88-1.23-2.07-1.23-3.59V350.87z M119.26,351.05c0,0.9,0.17,1.59,0.51,2.07c0.34,0.48,0.83,0.72,1.46,0.72
		c0.62,0,1.1-0.24,1.44-0.71c0.35-0.47,0.52-1.23,0.52-2.27c0-0.89-0.17-1.57-0.52-2.06s-0.83-0.73-1.46-0.73
		c-0.62,0-1.1,0.24-1.44,0.73C119.43,349.29,119.26,350.04,119.26,351.05z"/>
	<path class="st0" d="M132.64,348.59c-0.35-0.05-0.65-0.07-0.91-0.07c-0.96,0-1.59,0.33-1.89,0.98v6.22h-2.54v-9.51h2.4l0.07,1.13
		c0.51-0.87,1.22-1.31,2.12-1.31c0.28,0,0.54,0.04,0.79,0.11L132.64,348.59z"/>
	<path class="st0" d="M137.34,343.87v2.34h1.63v1.86h-1.63v4.75c0,0.35,0.07,0.6,0.2,0.76s0.39,0.23,0.77,0.23
		c0.28,0,0.53-0.02,0.75-0.06v1.92c-0.5,0.15-1.01,0.23-1.54,0.23c-1.78,0-2.69-0.9-2.72-2.7v-5.12h-1.39v-1.86h1.39v-2.34H137.34z"
		/>
	<path class="st0" d="M145.53,353.09c0-0.31-0.15-0.55-0.46-0.73c-0.31-0.18-0.8-0.34-1.48-0.48c-2.26-0.47-3.39-1.44-3.39-2.88
		c0-0.84,0.35-1.55,1.05-2.11c0.7-0.56,1.62-0.85,2.75-0.85c1.21,0,2.17,0.28,2.9,0.85c0.72,0.57,1.08,1.31,1.08,2.21h-2.54
		c0-0.36-0.12-0.66-0.35-0.9c-0.23-0.24-0.6-0.36-1.1-0.36c-0.43,0-0.76,0.1-0.99,0.29s-0.35,0.44-0.35,0.74
		c0,0.28,0.13,0.51,0.4,0.68c0.27,0.17,0.72,0.32,1.35,0.45s1.17,0.27,1.6,0.43c1.34,0.49,2.01,1.34,2.01,2.56
		c0,0.87-0.37,1.57-1.12,2.1c-0.74,0.54-1.71,0.8-2.88,0.8c-0.8,0-1.5-0.14-2.12-0.43c-0.62-0.28-1.1-0.67-1.46-1.17
		c-0.35-0.49-0.53-1.03-0.53-1.6h2.41c0.02,0.45,0.19,0.8,0.5,1.04s0.73,0.36,1.25,0.36c0.49,0,0.85-0.09,1.1-0.28
		C145.41,353.63,145.53,353.39,145.53,353.09z"/>
</g>
</svg>
