<?xml version="1.0" encoding="utf-8"?>
<!-- Generator: Adobe Illustrator 24.2.3, SVG Export Plug-In . SVG Version: 6.00 Build 0)  -->
<svg version="1.1" id="Layer_1" xmlns="http://www.w3.org/2000/svg" xmlns:xlink="http://www.w3.org/1999/xlink" x="0px" y="0px"
	 viewBox="0 0 320 100" style="enable-background:new 0 0 320 100;" xml:space="preserve">
<style type="text/css">
	.st0{fill:#18B9FB;}
	.st1{clip-path:url(#SVGID_2_);}
	.st2{fill:#4AC8FC;}
	.st3{fill:#EDF4FD;}
	.st4{fill:#021D8B;}
	.st5{fill:#FFFFFF;}
</style>
<g id="Background_1_">
	<g>
		<rect x="0" y="516.99" class="st0" width="320" height="100"/>
	</g>
	<g>
		<defs>
			<rect id="SVGID_1_" x="0" y="516.99" width="320" height="100"/>
		</defs>
		<clipPath id="SVGID_2_">
			<use xlink:href="#SVGID_1_"  style="overflow:visible;"/>
		</clipPath>
		<g id="PG_x5F_Glyph_x5F_W_3_" class="st1">
			<path class="st2" d="M317.68,652.82l-7.22,11.98c-5.68,9.43-17.97,12.48-27.4,6.8c-3.02-1.82-5.51-4.41-7.2-7.5
				c-1.81-3.3-0.6-7.44,2.71-9.25c3.3-1.8,7.45-0.59,9.25,2.71c0.54,0.99,1.31,1.78,2.27,2.37c2.99,1.8,6.89,0.83,8.69-2.16
				l7.22-11.98c1.94-3.23,6.13-4.26,9.36-2.32C318.59,645.4,319.62,649.59,317.68,652.82z M264.32,652.55c0.24-3.76-2.6-7-6.36-7.25
				c-3.76-0.24-7,2.61-7.24,6.36c-1.04,16.06,6.85,31.17,20.59,39.45c20.19,12.17,46.52,5.63,58.68-14.56l7.22-11.98
				c1.94-3.23,0.9-7.41-2.32-9.36s-7.41-0.9-9.36,2.32l-7.22,11.98c-8.29,13.75-26.22,18.2-39.97,9.92
				C268.98,673.8,263.61,663.49,264.32,652.55z M401.35,471.41c-30.56-17.19-70.44-6.25-88.9,24.39l-75.21,124.84
				c-9.21,15.29-11.77,33.24-7.2,50.55c4.39,16.65,14.83,30.57,29.5,39.41c0.57,0.34,1.15,0.68,1.73,1.01
				c30.56,17.19,70.44,6.25,88.9-24.39l5.76-9.56c8.89-14.75,4.12-33.99-10.64-42.87l-18.13-10.92c-3.23-1.94-7.41-0.9-9.36,2.32
				c-1.94,3.23-0.9,7.41,2.32,9.36l18.13,10.92c8.31,5.01,11,15.85,5.99,24.16l-5.76,9.56c-14.69,24.39-46.34,33.16-70.54,19.54
				c-12.33-6.94-21.12-18.31-24.74-32.01c-3.62-13.71-1.59-27.93,5.7-40.04l75.21-124.84c14.69-24.39,46.34-33.16,70.54-19.54
				c12.34,6.92,21.12,18.31,24.74,32.01c3.62,13.71,1.6,27.93-5.7,40.04l-44.18,73.33c-1.94,3.22-0.91,7.41,2.32,9.36
				c3.23,1.94,7.41,0.9,9.36-2.32l44.18-73.33c9.21-15.29,11.77-33.24,7.2-50.55C428.02,494.53,416.95,480.19,401.35,471.41z
				 M379.36,594.6l26.5-43.99c12.17-20.19,5.64-46.52-14.56-58.68c-20.19-12.17-46.52-5.63-58.68,14.56l-4.08,6.76
				c-1.94,3.22-0.9,7.41,2.32,9.36c3.22,1.94,7.41,0.9,9.36-2.32l4.08-6.76c8.29-13.75,26.22-18.2,39.97-9.92
				c13.75,8.29,18.2,26.22,9.92,39.97l-26.5,43.99c-8.29,13.75-26.22,18.2-39.97,9.92c-3.15-1.9-5.87-4.33-8.07-7.22
				c-1.37-1.79-3.54-2.79-5.79-2.67c-2.25,0.12-4.3,1.36-5.47,3.29l-24,39.84c-1.3,2.16-4.12,2.86-6.29,1.56
				c-2.16-1.3-2.86-4.12-1.56-6.29l51.71-85.83c1.94-3.22,0.9-7.41-2.32-9.36c-3.22-1.94-7.41-0.9-9.36,2.32l-51.71,85.83
				c-5.18,8.6-2.4,19.82,6.2,25c8.6,5.18,19.82,2.4,25-6.2l19.44-32.27c1.62,1.34,3.35,2.56,5.18,3.67
				C340.87,621.32,367.2,614.79,379.36,594.6z M444.12,575.45l-55.58,92.25l-0.88,1.46l-18.61,30.88
				c-12.36,20.52-32.05,34.86-55.43,40.37c-22.67,5.34-45.95,1.69-65.8-10.27c-0.61-0.37-1.22-0.75-1.83-1.13
				c-40.14-25.49-52.47-79.97-27.48-121.44l75.07-124.6c12.36-20.52,32.05-34.85,55.43-40.36c23.37-5.51,47.39-1.44,67.63,11.4
				C456.77,479.5,469.1,533.98,444.12,575.45z M375.98,662.13l0.88-1.46l55.58-92.25c21.2-35.18,10.83-81.34-23.12-102.9
				c-17.11-10.91-37.43-14.3-57.19-9.64c-19.78,4.66-36.42,16.78-46.88,34.13l-75.07,124.6c-21.2,35.18-10.83,81.34,23.11,102.9
				c17.13,10.85,37.43,14.29,57.19,9.64c19.78-4.66,36.43-16.78,46.88-34.13L375.98,662.13z M325.64,562.24l26.5-43.99
				c5.68-9.43,17.97-12.48,27.4-6.8c9.43,5.68,12.48,17.97,6.8,27.4l-26.5,43.99c-5.68,9.43-17.97,12.48-27.4,6.8
				C323.01,583.96,319.96,571.67,325.64,562.24z M337.32,569.27c-1.8,2.99-0.83,6.89,2.16,8.69c2.99,1.8,6.89,0.83,8.69-2.16
				l26.5-43.99c1.8-2.99,0.83-6.89-2.16-8.69c-2.99-1.8-6.89-0.83-8.69,2.16L337.32,569.27z"/>
		</g>
		<g id="PG_x5F_Glyph_x5F_W_4_" class="st1">
			<path class="st2" d="M-35.91,652.25l-7.22,11.98c-5.68,9.43-17.97,12.48-27.4,6.8c-3.02-1.82-5.51-4.41-7.2-7.5
				c-1.81-3.3-0.6-7.44,2.71-9.25c3.3-1.8,7.45-0.59,9.25,2.71c0.54,0.99,1.31,1.78,2.27,2.37c2.99,1.8,6.89,0.83,8.69-2.16
				l7.22-11.98c1.94-3.23,6.13-4.26,9.36-2.32C-35,644.83-33.96,649.02-35.91,652.25z M-89.27,651.98c0.24-3.76-2.6-7-6.36-7.25
				c-3.76-0.24-7,2.61-7.24,6.36c-1.04,16.06,6.85,31.17,20.59,39.45c20.19,12.17,46.52,5.63,58.68-14.56l7.22-11.98
				c1.94-3.23,0.9-7.41-2.32-9.36s-7.41-0.9-9.36,2.32l-7.22,11.98c-8.29,13.75-26.22,18.2-39.97,9.92
				C-84.61,673.23-89.98,662.92-89.27,651.98z M47.77,470.84c-30.56-17.19-70.44-6.25-88.9,24.39l-75.21,124.84
				c-9.21,15.29-11.77,33.24-7.2,50.55c4.39,16.65,14.83,30.57,29.5,39.41c0.57,0.34,1.15,0.68,1.73,1.01
				c30.56,17.19,70.44,6.25,88.9-24.39l5.76-9.56c8.89-14.75,4.12-33.99-10.64-42.87l-18.13-10.92c-3.23-1.94-7.41-0.9-9.36,2.32
				c-1.94,3.23-0.9,7.41,2.32,9.36l18.13,10.92c8.31,5.01,11,15.85,5.99,24.16l-5.76,9.56c-14.69,24.39-46.34,33.16-70.54,19.54
				c-12.33-6.94-21.12-18.31-24.74-32.01c-3.62-13.71-1.59-27.93,5.7-40.04l75.21-124.84c14.69-24.39,46.34-33.16,70.54-19.54
				c12.34,6.92,21.12,18.31,24.74,32.01c3.62,13.71,1.6,27.93-5.7,40.04L15.95,628.1c-1.94,3.22-0.91,7.41,2.32,9.36
				s7.41,0.9,9.36-2.32L71.8,561.8c9.21-15.29,11.77-33.24,7.2-50.55C74.44,493.96,63.36,479.62,47.77,470.84z M25.78,594.03
				l26.5-43.99c12.17-20.19,5.64-46.52-14.56-58.68c-20.19-12.17-46.52-5.63-58.68,14.56l-4.08,6.76c-1.94,3.22-0.9,7.41,2.32,9.36
				c3.22,1.94,7.41,0.9,9.36-2.32l4.08-6.76c8.29-13.75,26.22-18.2,39.97-9.92c13.75,8.29,18.2,26.22,9.92,39.97L14.1,587
				c-8.29,13.75-26.22,18.2-39.97,9.92c-3.15-1.9-5.87-4.33-8.07-7.22c-1.37-1.79-3.54-2.79-5.79-2.67
				c-2.25,0.12-4.3,1.36-5.47,3.29l-24,39.84c-1.3,2.16-4.12,2.86-6.29,1.56c-2.16-1.3-2.86-4.12-1.56-6.29l51.71-85.83
				c1.94-3.22,0.9-7.41-2.32-9.36c-3.22-1.94-7.41-0.9-9.36,2.32l-51.71,85.83c-5.18,8.6-2.4,19.82,6.2,25s19.82,2.4,25-6.2
				l19.44-32.27c1.62,1.34,3.35,2.56,5.18,3.67C-12.72,620.76,13.61,614.22,25.78,594.03z M90.53,574.88l-55.58,92.25l-0.88,1.46
				l-18.61,30.88C3.1,720-16.58,734.33-39.96,739.84c-22.67,5.34-45.95,1.69-65.8-10.27c-0.61-0.37-1.22-0.75-1.83-1.13
				c-40.14-25.49-52.47-79.97-27.48-121.44l75.07-124.6c12.36-20.52,32.05-34.85,55.43-40.36c23.37-5.51,47.39-1.44,67.63,11.4
				C103.19,478.93,115.52,533.41,90.53,574.88z M22.4,661.56l0.88-1.46l55.58-92.25c21.2-35.18,10.83-81.34-23.12-102.9
				c-17.11-10.91-37.43-14.3-57.19-9.64c-19.78,4.66-36.42,16.78-46.88,34.13l-75.07,124.6c-21.2,35.18-10.83,81.34,23.11,102.9
				c17.13,10.85,37.43,14.29,57.19,9.64c19.78-4.66,36.43-16.78,46.88-34.13L22.4,661.56z M-27.95,561.67l26.5-43.99
				c5.68-9.43,17.97-12.48,27.4-6.8c9.43,5.68,12.48,17.97,6.8,27.4l-26.5,43.99c-5.68,9.43-17.97,12.48-27.4,6.8
				C-30.58,583.39-33.63,571.1-27.95,561.67z M-16.27,568.7c-1.8,2.99-0.83,6.89,2.16,8.69c2.99,1.8,6.89,0.83,8.69-2.16l26.5-43.99
				c1.8-2.99,0.83-6.89-2.16-8.69c-2.99-1.8-6.89-0.83-8.69,2.16L-16.27,568.7z"/>
		</g>
	</g>
</g>
<g id="Button_1_">
	<g>
		<path class="st3" d="M96.05,579.12H41.75c-9.35,0-16.94-7.58-16.94-16.94v0c0-9.35,7.58-16.94,16.94-16.94h54.29
			c9.35,0,16.94,7.58,16.94,16.94v0C112.98,571.54,105.4,579.12,96.05,579.12z"/>
	</g>
	<g>
		<path class="st4" d="M49.51,563.62c0,1.46-0.33,2.64-1,3.52s-1.56,1.32-2.69,1.32c-0.96,0-1.74-0.33-2.33-1v4.48h-2.54v-13.17
			h2.36l0.09,0.93c0.62-0.74,1.42-1.11,2.41-1.11c1.17,0,2.08,0.43,2.73,1.3s0.98,2.06,0.98,3.59V563.62z M46.97,563.43
			c0-0.88-0.16-1.57-0.47-2.05s-0.77-0.72-1.37-0.72c-0.8,0-1.34,0.3-1.64,0.91v3.89c0.31,0.63,0.86,0.94,1.66,0.94
			C46.37,566.41,46.97,565.42,46.97,563.43z"/>
		<path class="st4" d="M56.43,561.15c-0.35-0.05-0.65-0.07-0.91-0.07c-0.96,0-1.59,0.33-1.89,0.98v6.22h-2.54v-9.51h2.4l0.07,1.13
			c0.51-0.87,1.22-1.31,2.12-1.31c0.28,0,0.54,0.04,0.79,0.11L56.43,561.15z"/>
		<path class="st4" d="M56.94,563.44c0-0.94,0.18-1.78,0.54-2.52s0.89-1.31,1.57-1.71s1.48-0.61,2.38-0.61
			c1.28,0,2.33,0.39,3.14,1.18c0.81,0.79,1.26,1.85,1.36,3.2l0.02,0.65c0,1.46-0.41,2.63-1.22,3.51c-0.81,0.88-1.91,1.32-3.28,1.32
			s-2.47-0.44-3.28-1.32s-1.23-2.07-1.23-3.59V563.44z M59.48,563.62c0,0.9,0.17,1.59,0.51,2.07c0.34,0.48,0.83,0.72,1.46,0.72
			c0.62,0,1.1-0.24,1.44-0.71c0.35-0.47,0.52-1.23,0.52-2.27c0-0.89-0.17-1.57-0.52-2.06c-0.35-0.49-0.83-0.73-1.46-0.73
			c-0.62,0-1.1,0.24-1.44,0.73C59.65,561.86,59.48,562.61,59.48,563.62z"/>
		<path class="st4" d="M70.55,556.44v2.34h1.63v1.86h-1.63v4.75c0,0.35,0.07,0.6,0.2,0.76s0.39,0.23,0.77,0.23
			c0.28,0,0.53-0.02,0.75-0.06v1.92c-0.5,0.15-1.01,0.23-1.54,0.23c-1.78,0-2.69-0.9-2.72-2.7v-5.12h-1.39v-1.86h1.39v-2.34H70.55z"
			/>
		<path class="st4" d="M77.97,568.46c-1.39,0-2.53-0.43-3.41-1.28s-1.31-2-1.31-3.42v-0.25c0-0.96,0.18-1.81,0.55-2.56
			s0.89-1.33,1.57-1.74s1.45-0.61,2.32-0.61c1.3,0,2.32,0.41,3.07,1.23s1.12,1.98,1.12,3.49v1.04h-6.06
			c0.08,0.62,0.33,1.12,0.74,1.49s0.94,0.56,1.57,0.56c0.98,0,1.74-0.35,2.29-1.06l1.25,1.4c-0.38,0.54-0.9,0.96-1.55,1.26
			S78.76,568.46,77.97,568.46z M77.68,560.65c-0.5,0-0.91,0.17-1.23,0.51s-0.51,0.83-0.6,1.47h3.53v-0.2
			c-0.01-0.56-0.16-1-0.46-1.31S78.22,560.65,77.68,560.65z"/>
		<path class="st4" d="M87.28,566.41c0.47,0,0.85-0.13,1.14-0.39s0.45-0.6,0.46-1.03h2.38c-0.01,0.64-0.18,1.23-0.53,1.77
			s-0.82,0.95-1.42,1.25s-1.26,0.44-1.99,0.44c-1.36,0-2.43-0.43-3.22-1.3s-1.18-2.06-1.18-3.58v-0.17c0-1.46,0.39-2.63,1.17-3.51
			s1.85-1.31,3.21-1.31c1.19,0,2.14,0.34,2.86,1.02s1.08,1.58,1.09,2.7h-2.38c-0.01-0.49-0.16-0.9-0.46-1.21s-0.68-0.46-1.16-0.46
			c-0.59,0-1.04,0.22-1.34,0.65s-0.45,1.13-0.45,2.1v0.26c0,0.98,0.15,1.68,0.45,2.11C86.21,566.2,86.67,566.41,87.28,566.41z"/>
		<path class="st4" d="M95.75,556.44v2.34h1.63v1.86h-1.63v4.75c0,0.35,0.07,0.6,0.2,0.76s0.39,0.23,0.77,0.23
			c0.28,0,0.53-0.02,0.75-0.06v1.92c-0.5,0.15-1.01,0.23-1.54,0.23c-1.78,0-2.69-0.9-2.72-2.7v-5.12h-1.39v-1.86h1.39v-2.34H95.75z"
			/>
	</g>
</g>
<g id="PG_x5F_Logo_x5F_W_2_">
	<path class="st5" d="M101.35,598.4c0-0.12,0.04-0.22,0.12-0.3c0.08-0.08,0.18-0.12,0.31-0.12c0.11,0,0.21,0.04,0.3,0.12
		c0.09,0.08,0.13,0.18,0.13,0.3v4.75c0,0.12-0.04,0.22-0.12,0.31c-0.08,0.08-0.18,0.12-0.31,0.12c-0.11,0-0.21-0.04-0.3-0.12
		c-0.09-0.08-0.13-0.18-0.13-0.31V598.4z"/>
	<g>
		<g>
			<g>
				<path class="st5" d="M77.39,605.88c-0.35,0.26-0.76,0.39-1.23,0.39c-0.26-0.02-0.47-0.06-0.62-0.1
					c-0.15-0.04-0.29-0.11-0.42-0.2c-0.13-0.09-0.19-0.21-0.19-0.36c0-0.13,0.04-0.23,0.12-0.31c0.08-0.08,0.18-0.12,0.3-0.12
					c0.1,0,0.18,0.03,0.26,0.08c0.19,0.1,0.39,0.16,0.59,0.16c0.16,0,0.32-0.03,0.45-0.09c0.14-0.06,0.26-0.14,0.37-0.24
					c0.11-0.1,0.19-0.22,0.25-0.35c0.06-0.13,0.09-0.28,0.1-0.44v-3.21c0-0.12,0.04-0.22,0.12-0.3c0.08-0.08,0.18-0.12,0.3-0.12
					c0.11,0,0.21,0.04,0.3,0.12c0.09,0.08,0.13,0.18,0.13,0.3c0,0,0,2.66,0,3.24C78.24,604.95,77.93,605.5,77.39,605.88z"/>
				<path class="st5" d="M58.16,596.46c0-0.12,0.04-0.22,0.12-0.3c0.08-0.08,0.18-0.12,0.3-0.12c0.11,0,0.21,0.04,0.3,0.12
					c0.09,0.08,0.13,0.18,0.13,0.3v0.33c0,0.12-0.04,0.22-0.12,0.3c-0.08,0.08-0.18,0.12-0.3,0.12c-0.11,0-0.21-0.04-0.3-0.12
					c-0.09-0.08-0.13-0.18-0.13-0.3V596.46z M58.16,598.44c0-0.12,0.04-0.22,0.12-0.3c0.08-0.08,0.18-0.12,0.3-0.12
					c0.11,0,0.21,0.04,0.3,0.12c0.09,0.08,0.13,0.18,0.13,0.3v4.71c0,0.12-0.04,0.22-0.12,0.3c-0.08,0.08-0.18,0.12-0.3,0.12
					c-0.11,0-0.21-0.04-0.3-0.12c-0.09-0.08-0.13-0.18-0.13-0.3V598.44z"/>
				<g>
					<path class="st5" d="M54.44,598.55c0-0.12,0.04-0.22,0.12-0.3c0.08-0.08,0.18-0.12,0.3-0.12c0.09,0,0.18,0.03,0.26,0.09
						c0.08,0.06,0.13,0.14,0.15,0.25c0.34-0.26,0.75-0.38,1.21-0.38c0.26,0.02,0.46,0.05,0.61,0.1c0.15,0.04,0.29,0.11,0.41,0.19
						c0.12,0.08,0.19,0.2,0.19,0.36c0,0.12-0.04,0.22-0.12,0.3c-0.08,0.08-0.18,0.12-0.3,0.12c-0.1,0-0.18-0.03-0.25-0.08
						c-0.18-0.1-0.38-0.15-0.58-0.15c-0.16,0-0.31,0.03-0.44,0.09c-0.14,0.06-0.26,0.14-0.36,0.24c-0.11,0.1-0.19,0.21-0.25,0.35
						c-0.06,0.13-0.09,0.27-0.1,0.43v3.14c0,0.12-0.04,0.22-0.12,0.3c-0.08,0.08-0.18,0.12-0.3,0.12c-0.11,0-0.21-0.04-0.29-0.12
						c-0.08-0.08-0.13-0.18-0.13-0.3v-3.17V598.55z"/>
				</g>
				<path class="st5" d="M59.59,598.59c-0.02-0.05-0.03-0.11-0.03-0.17c0-0.1,0.04-0.2,0.11-0.29c0.07-0.09,0.18-0.13,0.3-0.13
					c0.08,0,0.16,0.02,0.23,0.07c0.07,0.04,0.13,0.11,0.16,0.19l1.66,3.87l1.66-3.87c0.07-0.17,0.21-0.26,0.39-0.26
					c0.13,0,0.23,0.04,0.3,0.13c0.07,0.09,0.11,0.19,0.11,0.29c0,0.06-0.01,0.12-0.03,0.17l-2.04,4.77
					c-0.08,0.17-0.21,0.26-0.39,0.26c-0.19,0-0.33-0.09-0.39-0.26L59.59,598.59z"/>
				<path class="st5" d="M64.63,599.98c0-0.28,0.05-0.54,0.16-0.79c0.1-0.25,0.25-0.46,0.44-0.64c0.19-0.18,0.4-0.33,0.64-0.43
					c0.24-0.1,0.51-0.16,0.79-0.16c0.28,0,0.54,0.05,0.78,0.16c0.25,0.1,0.46,0.25,0.64,0.43c0.18,0.18,0.33,0.4,0.44,0.64
					c0.11,0.25,0.16,0.51,0.16,0.79v3.16c0,0.12-0.04,0.22-0.13,0.3c-0.09,0.08-0.19,0.12-0.3,0.12c-0.1,0-0.2-0.03-0.27-0.1
					c-0.08-0.06-0.13-0.14-0.14-0.24c-0.34,0.25-0.74,0.38-1.19,0.38c-0.28,0-0.54-0.05-0.79-0.16c-0.25-0.1-0.46-0.25-0.64-0.43
					c-0.18-0.18-0.33-0.4-0.44-0.64c-0.11-0.25-0.16-0.51-0.16-0.78V599.98z M65.48,601.6c0,0.16,0.03,0.31,0.1,0.45
					c0.06,0.14,0.15,0.27,0.25,0.38c0.1,0.11,0.23,0.19,0.38,0.25c0.15,0.06,0.3,0.09,0.45,0.09c0.16,0,0.31-0.03,0.45-0.08
					c0.14-0.06,0.27-0.13,0.37-0.24c0.1-0.1,0.19-0.22,0.25-0.35c0.06-0.13,0.1-0.28,0.11-0.44v-1.67c0-0.16-0.03-0.31-0.1-0.45
					c-0.06-0.14-0.15-0.27-0.25-0.38c-0.1-0.11-0.23-0.19-0.38-0.25c-0.15-0.06-0.3-0.09-0.45-0.09c-0.16,0-0.32,0.03-0.46,0.09
					c-0.14,0.06-0.27,0.14-0.38,0.25c-0.11,0.11-0.19,0.23-0.25,0.38c-0.06,0.14-0.09,0.29-0.09,0.45V601.6z"/>
				<path class="st5" d="M69.47,599.98c0-0.28,0.05-0.55,0.16-0.8c0.11-0.25,0.26-0.46,0.45-0.64c0.19-0.18,0.41-0.32,0.66-0.43
					c0.25-0.1,0.52-0.16,0.8-0.16c0.05,0,0.16,0.01,0.31,0.03c0.15,0.02,0.32,0.07,0.51,0.15c0.19,0.08,0.37,0.21,0.56,0.38
					c0.18,0.17,0.33,0.4,0.45,0.7c0.02,0.06,0.03,0.11,0.03,0.16c0,0.12-0.04,0.22-0.12,0.3c-0.08,0.08-0.18,0.12-0.3,0.12
					c-0.09,0-0.17-0.02-0.24-0.07c-0.07-0.05-0.12-0.11-0.15-0.2c-0.1-0.22-0.25-0.4-0.45-0.53c-0.19-0.13-0.41-0.19-0.64-0.19
					c-0.16,0-0.32,0.03-0.46,0.09c-0.14,0.06-0.27,0.14-0.38,0.25c-0.11,0.11-0.19,0.23-0.25,0.38c-0.06,0.14-0.09,0.29-0.09,0.45
					v1.61c0,0.16,0.03,0.31,0.1,0.45c0.06,0.14,0.15,0.27,0.25,0.38c0.1,0.11,0.23,0.19,0.38,0.25c0.15,0.06,0.3,0.09,0.45,0.09
					c0.24,0,0.46-0.06,0.65-0.19c0.19-0.13,0.34-0.3,0.44-0.53c0.04-0.08,0.09-0.15,0.16-0.2c0.07-0.05,0.15-0.07,0.24-0.07
					c0.12,0,0.22,0.04,0.3,0.13c0.08,0.09,0.12,0.18,0.12,0.3c0,0.05-0.01,0.1-0.03,0.16c-0.15,0.33-0.33,0.58-0.54,0.75
					c-0.21,0.17-0.41,0.3-0.61,0.37c-0.2,0.07-0.37,0.12-0.5,0.12c-0.14,0.01-0.21,0.01-0.22,0.01c-0.28,0-0.54-0.05-0.79-0.16
					c-0.25-0.1-0.46-0.25-0.64-0.43c-0.18-0.18-0.33-0.4-0.44-0.64c-0.11-0.25-0.16-0.51-0.16-0.78V599.98z"/>
				<path class="st5" d="M84.92,598.44c0-0.12,0.04-0.22,0.12-0.3c0.08-0.08,0.18-0.12,0.3-0.12c0.11,0,0.21,0.04,0.3,0.12
					c0.09,0.08,0.13,0.18,0.13,0.3v3.16c0,0.16,0.03,0.31,0.09,0.45c0.06,0.14,0.14,0.27,0.25,0.38c0.11,0.11,0.23,0.19,0.38,0.25
					c0.14,0.06,0.3,0.09,0.46,0.09c0.16,0,0.31-0.03,0.45-0.09c0.15-0.06,0.27-0.14,0.38-0.25c0.1-0.11,0.19-0.23,0.25-0.38
					c0.06-0.14,0.1-0.29,0.1-0.45v-3.16c0-0.12,0.04-0.22,0.12-0.3c0.08-0.08,0.18-0.12,0.3-0.12c0.11,0,0.21,0.04,0.3,0.12
					c0.09,0.08,0.13,0.18,0.13,0.3v3.16c0,0.28-0.05,0.54-0.16,0.78c-0.11,0.25-0.25,0.46-0.44,0.64c-0.18,0.18-0.4,0.33-0.64,0.43
					c-0.25,0.1-0.51,0.16-0.79,0.16c-0.28,0-0.55-0.05-0.79-0.16c-0.24-0.1-0.46-0.25-0.64-0.43c-0.19-0.18-0.33-0.4-0.44-0.64
					c-0.1-0.25-0.16-0.51-0.16-0.78V598.44z"/>
				<path class="st5" d="M89.78,599.98c0-0.28,0.05-0.54,0.16-0.79c0.1-0.25,0.25-0.46,0.44-0.64c0.19-0.18,0.4-0.33,0.64-0.43
					c0.24-0.1,0.51-0.16,0.79-0.16c0.28,0,0.54,0.05,0.78,0.16c0.25,0.1,0.46,0.25,0.64,0.43c0.18,0.18,0.33,0.4,0.44,0.64
					c0.11,0.25,0.16,0.51,0.16,0.79v3.16c0,0.12-0.04,0.22-0.13,0.3c-0.09,0.08-0.19,0.12-0.3,0.12c-0.1,0-0.2-0.03-0.27-0.1
					c-0.08-0.06-0.13-0.14-0.14-0.24c-0.34,0.25-0.74,0.38-1.19,0.38c-0.28,0-0.54-0.05-0.79-0.16c-0.25-0.1-0.46-0.25-0.64-0.43
					c-0.18-0.18-0.33-0.4-0.44-0.64c-0.11-0.25-0.16-0.51-0.16-0.78V599.98z M90.63,601.6c0,0.16,0.03,0.31,0.1,0.45
					c0.06,0.14,0.15,0.27,0.25,0.38c0.1,0.11,0.23,0.19,0.38,0.25c0.15,0.06,0.3,0.09,0.45,0.09c0.16,0,0.31-0.03,0.45-0.08
					c0.14-0.06,0.27-0.13,0.37-0.24c0.1-0.1,0.19-0.22,0.25-0.35c0.06-0.13,0.1-0.28,0.11-0.44v-1.67c0-0.16-0.03-0.31-0.1-0.45
					c-0.06-0.14-0.15-0.27-0.25-0.38c-0.1-0.11-0.23-0.19-0.38-0.25c-0.15-0.06-0.3-0.09-0.45-0.09c-0.16,0-0.32,0.03-0.46,0.09
					c-0.14,0.06-0.27,0.14-0.38,0.25c-0.11,0.11-0.19,0.23-0.25,0.38c-0.06,0.14-0.09,0.29-0.09,0.45V601.6z"/>
				<g>
					<path class="st5" d="M94.67,598.55c0-0.12,0.04-0.22,0.12-0.3c0.08-0.08,0.18-0.12,0.3-0.12c0.09,0,0.18,0.03,0.26,0.09
						c0.08,0.06,0.13,0.14,0.15,0.25c0.34-0.26,0.75-0.38,1.21-0.38c0.26,0.02,0.46,0.05,0.61,0.1c0.15,0.04,0.29,0.11,0.41,0.19
						c0.12,0.08,0.19,0.2,0.19,0.36c0,0.12-0.04,0.22-0.12,0.3c-0.08,0.08-0.18,0.12-0.3,0.12c-0.1,0-0.18-0.03-0.25-0.08
						c-0.18-0.1-0.38-0.15-0.58-0.15c-0.16,0-0.31,0.03-0.44,0.09c-0.14,0.06-0.26,0.14-0.36,0.24c-0.11,0.1-0.19,0.21-0.25,0.35
						c-0.06,0.13-0.09,0.27-0.1,0.43v3.14c0,0.12-0.04,0.22-0.12,0.3c-0.08,0.08-0.18,0.12-0.3,0.12c-0.11,0-0.21-0.04-0.29-0.12
						c-0.08-0.08-0.13-0.18-0.13-0.3v-3.17V598.55z"/>
				</g>
				<path class="st5" d="M101.35,596.46c0-0.12,0.04-0.22,0.12-0.3c0.08-0.08,0.18-0.12,0.3-0.12c0.11,0,0.21,0.04,0.3,0.12
					c0.09,0.08,0.13,0.18,0.13,0.3v5.14c0,0.28-0.05,0.54-0.16,0.78c-0.11,0.25-0.25,0.46-0.44,0.64c-0.18,0.18-0.4,0.33-0.64,0.43
					c-0.25,0.1-0.51,0.16-0.78,0.16c-0.28,0-0.55-0.05-0.79-0.16c-0.24-0.1-0.46-0.25-0.64-0.43c-0.19-0.18-0.33-0.4-0.44-0.64
					c-0.1-0.25-0.16-0.51-0.16-0.78v-1.61c0-0.28,0.05-0.54,0.16-0.79c0.11-0.25,0.25-0.46,0.44-0.64c0.18-0.18,0.4-0.33,0.64-0.43
					c0.25-0.1,0.51-0.16,0.79-0.16c0.22,0,0.42,0.03,0.62,0.1c0.2,0.07,0.38,0.16,0.56,0.28V596.46z M99,601.6
					c0,0.16,0.03,0.31,0.09,0.45c0.06,0.14,0.14,0.27,0.25,0.38c0.11,0.11,0.23,0.19,0.38,0.25c0.14,0.06,0.3,0.09,0.46,0.09
					c0.16,0,0.31-0.03,0.45-0.09c0.15-0.06,0.27-0.14,0.38-0.25c0.1-0.11,0.19-0.23,0.25-0.38c0.06-0.14,0.1-0.29,0.1-0.45v-1.61
					c0-0.16-0.03-0.31-0.09-0.45c-0.06-0.14-0.14-0.27-0.25-0.38c-0.11-0.11-0.23-0.19-0.38-0.25c-0.14-0.06-0.3-0.09-0.46-0.09
					c-0.16,0-0.31,0.03-0.45,0.09c-0.15,0.06-0.27,0.14-0.38,0.25c-0.1,0.11-0.19,0.23-0.25,0.38c-0.06,0.14-0.1,0.29-0.1,0.45
					V601.6z"/>
				<path class="st5" d="M74.18,598.44c0-0.12,0.04-0.22,0.12-0.3c0.08-0.08,0.18-0.12,0.3-0.12c0.11,0,0.21,0.04,0.3,0.12
					c0.09,0.08,0.13,0.18,0.13,0.3v3.16c0,0.16,0.03,0.31,0.09,0.45c0.06,0.14,0.14,0.27,0.25,0.38c0.11,0.11,0.23,0.19,0.38,0.25
					c0.14,0.06,0.3,0.09,0.46,0.09c0.16,0,0.31-0.03,0.45-0.09c0.15-0.06,0.27-0.14,0.38-0.25c0.1-0.11,0.19-0.23,0.25-0.38
					c0.06-0.14,0.1-0.29,0.1-0.45v-3.16c0-0.12,0.04-0.22,0.12-0.3c0.08-0.08,0.18-0.12,0.3-0.12c0.11,0,0.21,0.04,0.3,0.12
					c0.09,0.08,0.13,0.18,0.13,0.3v3.16c0,0.28-0.05,0.54-0.16,0.78c-0.11,0.25-0.25,0.46-0.44,0.64c-0.18,0.18-0.4,0.33-0.64,0.43
					c-0.25,0.1-0.51,0.16-0.79,0.16c-0.28,0-0.55-0.05-0.79-0.16c-0.24-0.1-0.46-0.25-0.64-0.43c-0.19-0.18-0.33-0.4-0.44-0.64
					c-0.1-0.25-0.16-0.51-0.16-0.78V598.44z"/>
				<path class="st5" d="M83.73,599.81h-1.78c-0.24,0-0.43,0.18-0.43,0.41c0,0.24,0.19,0.43,0.43,0.43h1.42v0.67
					c0,0.91-0.83,1.6-1.7,1.6c-0.97,0-1.78-0.66-1.78-1.78v-2.56c0-1.04,0.79-1.78,1.75-1.78c0.82,0,1.44,0.54,1.68,1.22
					c0.08,0.14,0.19,0.23,0.38,0.23c0.33,0,0.54-0.27,0.38-0.65c-0.27-0.82-1.11-1.67-2.45-1.67c-1.53,0-2.63,1.21-2.63,2.6v2.66
					c0,1.4,1.11,2.61,2.63,2.61c1.38,0,2.54-1.08,2.54-2.31v-1.28C84.18,599.97,83.97,599.81,83.73,599.81z"/>
			</g>
		</g>
		<path class="st5" d="M101.35,598.44c0-0.12,0.04-0.22,0.12-0.3c0.08-0.08,0.18-0.12,0.3-0.12c0.11,0,0.21,0.04,0.3,0.12
			c0.09,0.08,0.13,0.18,0.13,0.3v4.71c0,0.12-0.04,0.22-0.12,0.3c-0.08,0.08-0.18,0.12-0.3,0.12c-0.11,0-0.21-0.04-0.3-0.12
			c-0.09-0.08-0.13-0.18-0.13-0.3V598.44z"/>
		<g>
			<path class="st5" d="M49.05,596.75c0-0.12,0.04-0.22,0.12-0.3c0.08-0.08,0.18-0.12,0.3-0.12h1.68h0.01c0.36,0,0.69,0.07,1.01,0.2
				c0.31,0.14,0.59,0.32,0.83,0.55c0.24,0.23,0.43,0.5,0.56,0.82c0.14,0.31,0.21,0.65,0.21,1.01c0,0.36-0.07,0.69-0.21,1
				c-0.14,0.31-0.33,0.58-0.56,0.82c-0.23,0.23-0.51,0.42-0.83,0.55c-0.32,0.14-0.66,0.2-1.01,0.2h-1.27v1.67
				c0,0.12-0.04,0.22-0.12,0.3c-0.08,0.08-0.18,0.12-0.3,0.12c-0.11,0-0.21-0.04-0.29-0.12c-0.08-0.08-0.13-0.18-0.13-0.3V596.75z
				 M49.88,597.17v3.49h1.27c0.25,0,0.48-0.05,0.7-0.14c0.22-0.09,0.4-0.22,0.56-0.37c0.16-0.16,0.29-0.34,0.38-0.55
				c0.09-0.21,0.14-0.44,0.14-0.68c0-0.24-0.05-0.47-0.14-0.68c-0.1-0.21-0.22-0.4-0.38-0.55c-0.16-0.16-0.35-0.28-0.56-0.37
				c-0.22-0.09-0.44-0.14-0.69-0.14H49.88z"/>
		</g>
	</g>
	<path class="st5" d="M40.74,603.85v0.87c0,0.68-0.56,1.24-1.24,1.24c-0.22,0-0.43-0.06-0.62-0.17c-0.2-0.12-0.27-0.38-0.15-0.58
		c0.12-0.2,0.38-0.27,0.58-0.15c0.06,0.04,0.13,0.05,0.2,0.05c0.22,0,0.39-0.18,0.39-0.39v-0.87c0-0.23,0.19-0.42,0.42-0.42
		C40.55,603.42,40.74,603.61,40.74,603.85z M37.89,605.54c-0.11-0.21-0.36-0.29-0.57-0.18c-0.21,0.11-0.29,0.36-0.18,0.57
		c0.46,0.89,1.36,1.44,2.36,1.44c1.46,0,2.66-1.19,2.66-2.66v-0.87c0-0.23-0.19-0.42-0.42-0.42s-0.42,0.19-0.42,0.42v0.87
		c0,1-0.81,1.81-1.81,1.81C38.82,606.52,38.21,606.15,37.89,605.54z M39.38,591.51c-2.18,0.06-3.95,1.93-3.95,4.15v9.05
		c0,1.11,0.44,2.15,1.24,2.92c0.77,0.75,1.77,1.15,2.83,1.15c0.04,0,0.08,0,0.12,0c2.18-0.06,3.95-1.93,3.95-4.15v-0.69
		c0-1.07-0.87-1.94-1.94-1.94h-1.31c-0.23,0-0.42,0.19-0.42,0.42s0.19,0.42,0.42,0.42h1.31c0.6,0,1.09,0.49,1.09,1.09v0.69
		c0,1.77-1.4,3.25-3.13,3.3c-0.88,0.03-1.71-0.3-2.34-0.91c-0.63-0.61-0.98-1.44-0.98-2.31v-9.05c0-1.77,1.4-3.25,3.13-3.3
		c0.88-0.03,1.71,0.3,2.34,0.91c0.63,0.61,0.98,1.44,0.98,2.31v5.32c0,0.23,0.19,0.42,0.42,0.42s0.42-0.19,0.42-0.42v-5.32
		c0-1.11-0.44-2.15-1.24-2.92C41.54,591.88,40.49,591.48,39.38,591.51z M42.16,598.77v-3.19c0-1.46-1.19-2.66-2.66-2.66
		c-1.46,0-2.66,1.19-2.66,2.66v0.49c0,0.23,0.19,0.42,0.42,0.42c0.23,0,0.42-0.19,0.42-0.42v-0.49c0-1,0.81-1.81,1.81-1.81
		c1,0,1.81,0.81,1.81,1.81v3.19c0,1-0.81,1.81-1.81,1.81c-0.23,0-0.45-0.04-0.66-0.13c-0.13-0.05-0.28-0.04-0.39,0.04
		c-0.12,0.08-0.19,0.21-0.19,0.35v2.89c0,0.16-0.13,0.28-0.28,0.28c-0.16,0-0.28-0.13-0.28-0.28v-6.23c0-0.23-0.19-0.42-0.42-0.42
		c-0.23,0-0.42,0.19-0.42,0.42v6.23c0,0.62,0.51,1.13,1.13,1.13c0.62,0,1.13-0.51,1.13-1.13l0-2.34c0.13,0.02,0.26,0.03,0.39,0.03
		C40.97,601.43,42.16,600.23,42.16,598.77z M44.99,595.67v6.69v0.11v2.24c0,1.49-0.59,2.88-1.66,3.93
		c-1.04,1.01-2.39,1.56-3.83,1.56c-0.04,0-0.09,0-0.13,0c-2.95-0.07-5.36-2.57-5.36-5.58v-9.04c0-1.49,0.59-2.88,1.66-3.92
		c1.07-1.04,2.48-1.6,3.96-1.56C42.59,590.16,44.99,592.67,44.99,595.67z M44.14,602.47v-0.11v-6.69c0-2.55-2.03-4.68-4.53-4.73
		c-1.26-0.03-2.45,0.44-3.35,1.32c-0.9,0.88-1.4,2.06-1.4,3.32v9.04c0,2.55,2.03,4.68,4.53,4.73c1.26,0.03,2.45-0.44,3.35-1.32
		c0.9-0.88,1.4-2.06,1.4-3.32V602.47z M38.26,598.77v-3.19c0-0.68,0.56-1.24,1.24-1.24c0.68,0,1.24,0.56,1.24,1.24v3.19
		c0,0.68-0.56,1.24-1.24,1.24C38.82,600.01,38.26,599.45,38.26,598.77z M39.11,598.77c0,0.22,0.18,0.39,0.39,0.39
		c0.22,0,0.39-0.18,0.39-0.39v-3.19c0-0.22-0.18-0.39-0.39-0.39c-0.22,0-0.39,0.18-0.39,0.39V598.77z"/>
	<g>
		<path class="st5" d="M102.79,596.21h-0.16v-0.11h0.45v0.11h-0.16v0.47h-0.13V596.21z"/>
		<path class="st5" d="M103.64,596.46c0-0.07-0.01-0.16-0.01-0.24h0c-0.02,0.07-0.04,0.16-0.07,0.23l-0.07,0.23h-0.1l-0.06-0.23
			c-0.02-0.07-0.04-0.15-0.05-0.23h0c0,0.08-0.01,0.17-0.01,0.24l-0.01,0.22h-0.12l0.04-0.59h0.18l0.06,0.2
			c0.02,0.07,0.04,0.14,0.05,0.21h0c0.02-0.07,0.04-0.15,0.06-0.21l0.06-0.19h0.17l0.03,0.59h-0.13L103.64,596.46z"/>
	</g>
</g>
<path class="st4" d="M138.22,601.76v-67.42c0-0.55-0.45-1-1-1l0,0c-0.55,0-1,0.45-1,1v67.42c0,0.55,0.45,1,1,1l0,0
	C137.78,602.76,138.22,602.32,138.22,601.76z"/>
<text transform="matrix(1 0 0 1 24.1016 538.0927)" class="st3" style="font-family:'Roboto-Bold'; font-size:12.2648px;">My identity can...</text>
<text transform="matrix(1 0 0 1 154.6973 545.2789)" class="st3" style="font-family:'Roboto-Bold'; font-size:17.2878px;">Click to learn more</text>
<text transform="matrix(1 0 0 1 155.9624 560.8961)"><tspan x="0" y="0" class="st3" style="font-family:'Roboto-Bold'; font-size:11.5252px;">about our Identity Theft and</tspan><tspan x="11.11" y="13.83" class="st3" style="font-family:'Roboto-Bold'; font-size:11.5252px;">Credit Monitoring plans</tspan></text>
<text transform="matrix(1 0 0 1 179.3257 592.3297)"><tspan x="0" y="0" class="st3" style="font-family:'Roboto-Regular'; font-size:8px;">$1 trial for the first </tspan><tspan x="67.91" y="0" class="st3" style="font-family:'Roboto-Bold'; font-size:8px;">14 days</tspan><tspan x="96.01" y="0" class="st3" style="font-family:'Roboto-Regular'; font-size:8px;">,</tspan><tspan x="-4.34" y="9.6" class="st3" style="font-family:'Roboto-Regular'; font-size:8px;">plans starting at </tspan><tspan x="55.14" y="9.6" class="st3" style="font-family:'Roboto-Bold'; font-size:8px;">$9.99/month</tspan></text>
<g id="PG_x5F_Logo_x5F_W_1_">
	<path class="st5" d="M101.35,81.41c0-0.12,0.04-0.22,0.12-0.3c0.08-0.08,0.18-0.12,0.31-0.12c0.11,0,0.21,0.04,0.3,0.12
		c0.09,0.08,0.13,0.18,0.13,0.3v4.75c0,0.12-0.04,0.22-0.12,0.31c-0.08,0.08-0.18,0.12-0.31,0.12c-0.11,0-0.21-0.04-0.3-0.12
		c-0.09-0.08-0.13-0.18-0.13-0.31V81.41z"/>
	<g>
		<g>
			<g>
				<path class="st5" d="M77.39,88.89c-0.35,0.26-0.76,0.39-1.23,0.39c-0.26-0.02-0.47-0.06-0.62-0.1c-0.15-0.04-0.29-0.11-0.42-0.2
					c-0.13-0.09-0.19-0.21-0.19-0.36c0-0.13,0.04-0.23,0.12-0.31c0.08-0.08,0.18-0.12,0.3-0.12c0.1,0,0.18,0.03,0.26,0.08
					c0.19,0.1,0.39,0.16,0.59,0.16c0.16,0,0.32-0.03,0.45-0.09c0.14-0.06,0.26-0.14,0.37-0.24c0.11-0.1,0.19-0.22,0.25-0.35
					c0.06-0.13,0.09-0.28,0.1-0.44v-3.21c0-0.12,0.04-0.22,0.12-0.3c0.08-0.08,0.18-0.12,0.3-0.12c0.11,0,0.21,0.04,0.3,0.12
					c0.09,0.08,0.13,0.18,0.13,0.3c0,0,0,2.66,0,3.24C78.24,87.96,77.93,88.51,77.39,88.89z"/>
				<path class="st5" d="M58.16,79.48c0-0.12,0.04-0.22,0.12-0.3c0.08-0.08,0.18-0.12,0.3-0.12c0.11,0,0.21,0.04,0.3,0.12
					c0.09,0.08,0.13,0.18,0.13,0.3v0.33c0,0.12-0.04,0.22-0.12,0.3c-0.08,0.08-0.18,0.12-0.3,0.12c-0.11,0-0.21-0.04-0.3-0.12
					c-0.09-0.08-0.13-0.18-0.13-0.3V79.48z M58.16,81.45c0-0.12,0.04-0.22,0.12-0.3c0.08-0.08,0.18-0.12,0.3-0.12
					c0.11,0,0.21,0.04,0.3,0.12c0.09,0.08,0.13,0.18,0.13,0.3v4.71c0,0.12-0.04,0.22-0.12,0.3c-0.08,0.08-0.18,0.12-0.3,0.12
					c-0.11,0-0.21-0.04-0.3-0.12c-0.09-0.08-0.13-0.18-0.13-0.3V81.45z"/>
				<g>
					<path class="st5" d="M54.44,81.56c0-0.12,0.04-0.22,0.12-0.3c0.08-0.08,0.18-0.12,0.3-0.12c0.09,0,0.18,0.03,0.26,0.09
						c0.08,0.06,0.13,0.14,0.15,0.25c0.34-0.26,0.75-0.38,1.21-0.38c0.26,0.02,0.46,0.05,0.61,0.1c0.15,0.04,0.29,0.11,0.41,0.19
						c0.12,0.08,0.19,0.2,0.19,0.36c0,0.12-0.04,0.22-0.12,0.3c-0.08,0.08-0.18,0.12-0.3,0.12c-0.1,0-0.18-0.03-0.25-0.08
						c-0.18-0.1-0.38-0.15-0.58-0.15c-0.16,0-0.31,0.03-0.44,0.09c-0.14,0.06-0.26,0.14-0.36,0.24c-0.11,0.1-0.19,0.21-0.25,0.35
						c-0.06,0.13-0.09,0.27-0.1,0.43v3.14c0,0.12-0.04,0.22-0.12,0.3c-0.08,0.08-0.18,0.12-0.3,0.12c-0.11,0-0.21-0.04-0.29-0.12
						c-0.08-0.08-0.13-0.18-0.13-0.3V83V81.56z"/>
				</g>
				<path class="st5" d="M59.59,81.61c-0.02-0.05-0.03-0.11-0.03-0.17c0-0.1,0.04-0.2,0.11-0.29c0.07-0.09,0.18-0.13,0.3-0.13
					c0.08,0,0.16,0.02,0.23,0.07c0.07,0.04,0.13,0.11,0.16,0.19l1.66,3.87l1.66-3.87c0.07-0.17,0.21-0.26,0.39-0.26
					c0.13,0,0.23,0.04,0.3,0.13c0.07,0.09,0.11,0.19,0.11,0.29c0,0.06-0.01,0.12-0.03,0.17l-2.04,4.77
					c-0.08,0.17-0.21,0.26-0.39,0.26c-0.19,0-0.33-0.09-0.39-0.26L59.59,81.61z"/>
				<path class="st5" d="M64.63,83c0-0.28,0.05-0.54,0.16-0.79c0.1-0.25,0.25-0.46,0.44-0.64c0.19-0.18,0.4-0.33,0.64-0.43
					c0.24-0.1,0.51-0.16,0.79-0.16c0.28,0,0.54,0.05,0.78,0.16c0.25,0.1,0.46,0.25,0.64,0.43c0.18,0.18,0.33,0.4,0.44,0.64
					c0.11,0.25,0.16,0.51,0.16,0.79v3.16c0,0.12-0.04,0.22-0.13,0.3c-0.09,0.08-0.19,0.12-0.3,0.12c-0.1,0-0.2-0.03-0.27-0.1
					c-0.08-0.06-0.13-0.14-0.14-0.24c-0.34,0.25-0.74,0.38-1.19,0.38c-0.28,0-0.54-0.05-0.79-0.16c-0.25-0.1-0.46-0.25-0.64-0.43
					c-0.18-0.18-0.33-0.4-0.44-0.64c-0.11-0.25-0.16-0.51-0.16-0.78V83z M65.48,84.61c0,0.16,0.03,0.31,0.1,0.45
					c0.06,0.14,0.15,0.27,0.25,0.38c0.1,0.11,0.23,0.19,0.38,0.25c0.15,0.06,0.3,0.09,0.45,0.09c0.16,0,0.31-0.03,0.45-0.08
					c0.14-0.06,0.27-0.13,0.37-0.24c0.1-0.1,0.19-0.22,0.25-0.35c0.06-0.13,0.1-0.28,0.11-0.44V83c0-0.16-0.03-0.31-0.1-0.45
					c-0.06-0.14-0.15-0.27-0.25-0.38c-0.1-0.11-0.23-0.19-0.38-0.25c-0.15-0.06-0.3-0.09-0.45-0.09c-0.16,0-0.32,0.03-0.46,0.09
					c-0.14,0.06-0.27,0.14-0.38,0.25c-0.11,0.11-0.19,0.23-0.25,0.38c-0.06,0.14-0.09,0.29-0.09,0.45V84.61z"/>
				<path class="st5" d="M69.47,83c0-0.28,0.05-0.55,0.16-0.8c0.11-0.25,0.26-0.46,0.45-0.64c0.19-0.18,0.41-0.32,0.66-0.43
					c0.25-0.1,0.52-0.16,0.8-0.16c0.05,0,0.16,0.01,0.31,0.03c0.15,0.02,0.32,0.07,0.51,0.15c0.19,0.08,0.37,0.21,0.56,0.38
					c0.18,0.17,0.33,0.4,0.45,0.7c0.02,0.06,0.03,0.11,0.03,0.16c0,0.12-0.04,0.22-0.12,0.3c-0.08,0.08-0.18,0.12-0.3,0.12
					c-0.09,0-0.17-0.02-0.24-0.07c-0.07-0.05-0.12-0.11-0.15-0.2c-0.1-0.22-0.25-0.4-0.45-0.53c-0.19-0.13-0.41-0.19-0.64-0.19
					c-0.16,0-0.32,0.03-0.46,0.09c-0.14,0.06-0.27,0.14-0.38,0.25c-0.11,0.11-0.19,0.23-0.25,0.38c-0.06,0.14-0.09,0.29-0.09,0.45
					v1.61c0,0.16,0.03,0.31,0.1,0.45c0.06,0.14,0.15,0.27,0.25,0.38c0.1,0.11,0.23,0.19,0.38,0.25c0.15,0.06,0.3,0.09,0.45,0.09
					c0.24,0,0.46-0.06,0.65-0.19c0.19-0.13,0.34-0.3,0.44-0.53c0.04-0.08,0.09-0.15,0.16-0.2c0.07-0.05,0.15-0.07,0.24-0.07
					c0.12,0,0.22,0.04,0.3,0.13c0.08,0.09,0.12,0.19,0.12,0.3c0,0.05-0.01,0.1-0.03,0.16c-0.15,0.33-0.33,0.58-0.54,0.75
					c-0.21,0.17-0.41,0.3-0.61,0.37c-0.2,0.07-0.37,0.12-0.5,0.12c-0.14,0.01-0.21,0.01-0.22,0.01c-0.28,0-0.54-0.05-0.79-0.16
					c-0.25-0.1-0.46-0.25-0.64-0.43c-0.18-0.18-0.33-0.4-0.44-0.64c-0.11-0.25-0.16-0.51-0.16-0.78V83z"/>
				<path class="st5" d="M84.92,81.45c0-0.12,0.04-0.22,0.12-0.3c0.08-0.08,0.18-0.12,0.3-0.12c0.11,0,0.21,0.04,0.3,0.12
					c0.09,0.08,0.13,0.18,0.13,0.3v3.16c0,0.16,0.03,0.31,0.09,0.45c0.06,0.14,0.14,0.27,0.25,0.38c0.11,0.11,0.23,0.19,0.38,0.25
					c0.14,0.06,0.3,0.09,0.46,0.09c0.16,0,0.31-0.03,0.45-0.09c0.15-0.06,0.27-0.14,0.38-0.25c0.1-0.11,0.19-0.23,0.25-0.38
					c0.06-0.14,0.1-0.29,0.1-0.45v-3.16c0-0.12,0.04-0.22,0.12-0.3c0.08-0.08,0.18-0.12,0.3-0.12c0.11,0,0.21,0.04,0.3,0.12
					c0.09,0.08,0.13,0.18,0.13,0.3v3.16c0,0.28-0.05,0.54-0.16,0.78c-0.11,0.25-0.25,0.46-0.44,0.64c-0.18,0.18-0.4,0.33-0.64,0.43
					c-0.25,0.1-0.51,0.16-0.79,0.16c-0.28,0-0.55-0.05-0.79-0.16c-0.24-0.1-0.46-0.25-0.64-0.43c-0.19-0.18-0.33-0.4-0.44-0.64
					c-0.1-0.25-0.16-0.51-0.16-0.78V81.45z"/>
				<path class="st5" d="M89.78,83c0-0.28,0.05-0.54,0.16-0.79c0.1-0.25,0.25-0.46,0.44-0.64c0.19-0.18,0.4-0.33,0.64-0.43
					c0.24-0.1,0.51-0.16,0.79-0.16c0.28,0,0.54,0.05,0.78,0.16c0.25,0.1,0.46,0.25,0.64,0.43c0.18,0.18,0.33,0.4,0.44,0.64
					c0.11,0.25,0.16,0.51,0.16,0.79v3.16c0,0.12-0.04,0.22-0.13,0.3c-0.09,0.08-0.19,0.12-0.3,0.12c-0.1,0-0.2-0.03-0.27-0.1
					c-0.08-0.06-0.13-0.14-0.14-0.24c-0.34,0.25-0.74,0.38-1.19,0.38c-0.28,0-0.54-0.05-0.79-0.16c-0.25-0.1-0.46-0.25-0.64-0.43
					c-0.18-0.18-0.33-0.4-0.44-0.64c-0.11-0.25-0.16-0.51-0.16-0.78V83z M90.63,84.61c0,0.16,0.03,0.31,0.1,0.45
					c0.06,0.14,0.15,0.27,0.25,0.38c0.1,0.11,0.23,0.19,0.38,0.25c0.15,0.06,0.3,0.09,0.45,0.09c0.16,0,0.31-0.03,0.45-0.08
					c0.14-0.06,0.27-0.13,0.37-0.24c0.1-0.1,0.19-0.22,0.25-0.35c0.06-0.13,0.1-0.28,0.11-0.44V83c0-0.16-0.03-0.31-0.1-0.45
					c-0.06-0.14-0.15-0.27-0.25-0.38c-0.1-0.11-0.23-0.19-0.38-0.25c-0.15-0.06-0.3-0.09-0.45-0.09c-0.16,0-0.32,0.03-0.46,0.09
					c-0.14,0.06-0.27,0.14-0.38,0.25c-0.11,0.11-0.19,0.23-0.25,0.38c-0.06,0.14-0.09,0.29-0.09,0.45V84.61z"/>
				<g>
					<path class="st5" d="M94.67,81.56c0-0.12,0.04-0.22,0.12-0.3c0.08-0.08,0.18-0.12,0.3-0.12c0.09,0,0.18,0.03,0.26,0.09
						c0.08,0.06,0.13,0.14,0.15,0.25c0.34-0.26,0.75-0.38,1.21-0.38c0.26,0.02,0.46,0.05,0.61,0.1c0.15,0.04,0.29,0.11,0.41,0.19
						c0.12,0.08,0.19,0.2,0.19,0.36c0,0.12-0.04,0.22-0.12,0.3c-0.08,0.08-0.18,0.12-0.3,0.12c-0.1,0-0.18-0.03-0.25-0.08
						c-0.18-0.1-0.38-0.15-0.58-0.15c-0.16,0-0.31,0.03-0.44,0.09c-0.14,0.06-0.26,0.14-0.36,0.24c-0.11,0.1-0.19,0.21-0.25,0.35
						c-0.06,0.13-0.09,0.27-0.1,0.43v3.14c0,0.12-0.04,0.22-0.12,0.3c-0.08,0.08-0.18,0.12-0.3,0.12c-0.11,0-0.21-0.04-0.29-0.12
						c-0.08-0.08-0.13-0.18-0.13-0.3V83V81.56z"/>
				</g>
				<path class="st5" d="M101.35,79.48c0-0.12,0.04-0.22,0.12-0.3c0.08-0.08,0.18-0.12,0.3-0.12c0.11,0,0.21,0.04,0.3,0.12
					c0.09,0.08,0.13,0.18,0.13,0.3v5.14c0,0.28-0.05,0.54-0.16,0.78c-0.11,0.25-0.25,0.46-0.44,0.64c-0.18,0.18-0.4,0.33-0.64,0.43
					c-0.25,0.1-0.51,0.16-0.78,0.16c-0.28,0-0.55-0.05-0.79-0.16c-0.24-0.1-0.46-0.25-0.64-0.43c-0.19-0.18-0.33-0.4-0.44-0.64
					c-0.1-0.25-0.16-0.51-0.16-0.78V83c0-0.28,0.05-0.54,0.16-0.79c0.11-0.25,0.25-0.46,0.44-0.64c0.18-0.18,0.4-0.33,0.64-0.43
					c0.25-0.1,0.51-0.16,0.79-0.16c0.22,0,0.42,0.03,0.62,0.1c0.2,0.07,0.38,0.16,0.56,0.28V79.48z M99,84.61
					c0,0.16,0.03,0.31,0.09,0.45c0.06,0.14,0.14,0.27,0.25,0.38c0.11,0.11,0.23,0.19,0.38,0.25c0.14,0.06,0.3,0.09,0.46,0.09
					c0.16,0,0.31-0.03,0.45-0.09c0.15-0.06,0.27-0.14,0.38-0.25c0.1-0.11,0.19-0.23,0.25-0.38c0.06-0.14,0.1-0.29,0.1-0.45V83
					c0-0.16-0.03-0.31-0.09-0.45c-0.06-0.14-0.14-0.27-0.25-0.38c-0.11-0.11-0.23-0.19-0.38-0.25c-0.14-0.06-0.3-0.09-0.46-0.09
					c-0.16,0-0.31,0.03-0.45,0.09c-0.15,0.06-0.27,0.14-0.38,0.25c-0.1,0.11-0.19,0.23-0.25,0.38C99.03,82.69,99,82.84,99,83V84.61z
					"/>
				<path class="st5" d="M74.18,81.45c0-0.12,0.04-0.22,0.12-0.3c0.08-0.08,0.18-0.12,0.3-0.12c0.11,0,0.21,0.04,0.3,0.12
					c0.09,0.08,0.13,0.18,0.13,0.3v3.16c0,0.16,0.03,0.31,0.09,0.45c0.06,0.14,0.14,0.27,0.25,0.38c0.11,0.11,0.23,0.19,0.38,0.25
					c0.14,0.06,0.3,0.09,0.46,0.09c0.16,0,0.31-0.03,0.45-0.09c0.15-0.06,0.27-0.14,0.38-0.25c0.1-0.11,0.19-0.23,0.25-0.38
					c0.06-0.14,0.1-0.29,0.1-0.45v-3.16c0-0.12,0.04-0.22,0.12-0.3c0.08-0.08,0.18-0.12,0.3-0.12c0.11,0,0.21,0.04,0.3,0.12
					c0.09,0.08,0.13,0.18,0.13,0.3v3.16c0,0.28-0.05,0.54-0.16,0.78c-0.11,0.25-0.25,0.46-0.44,0.64c-0.18,0.18-0.4,0.33-0.64,0.43
					c-0.25,0.1-0.51,0.16-0.79,0.16c-0.28,0-0.55-0.05-0.79-0.16c-0.24-0.1-0.46-0.25-0.64-0.43c-0.19-0.18-0.33-0.4-0.44-0.64
					c-0.1-0.25-0.16-0.51-0.16-0.78V81.45z"/>
				<path class="st5" d="M83.73,82.83h-1.78c-0.24,0-0.43,0.18-0.43,0.41c0,0.24,0.19,0.43,0.43,0.43h1.42v0.67
					c0,0.91-0.83,1.6-1.7,1.6c-0.97,0-1.78-0.66-1.78-1.78V81.6c0-1.04,0.79-1.78,1.75-1.78c0.82,0,1.44,0.54,1.68,1.22
					c0.08,0.14,0.19,0.23,0.38,0.23c0.33,0,0.54-0.27,0.38-0.65c-0.27-0.82-1.11-1.67-2.45-1.67c-1.53,0-2.63,1.21-2.63,2.6v2.66
					c0,1.4,1.11,2.61,2.63,2.61c1.38,0,2.54-1.08,2.54-2.31v-1.28C84.18,82.98,83.97,82.83,83.73,82.83z"/>
			</g>
		</g>
		<path class="st5" d="M101.35,81.45c0-0.12,0.04-0.22,0.12-0.3c0.08-0.08,0.18-0.12,0.3-0.12c0.11,0,0.21,0.04,0.3,0.12
			c0.09,0.08,0.13,0.18,0.13,0.3v4.71c0,0.12-0.04,0.22-0.12,0.3c-0.08,0.08-0.18,0.12-0.3,0.12c-0.11,0-0.21-0.04-0.3-0.12
			c-0.09-0.08-0.13-0.18-0.13-0.3V81.45z"/>
		<g>
			<path class="st5" d="M49.05,79.76c0-0.12,0.04-0.22,0.12-0.3c0.08-0.08,0.18-0.12,0.3-0.12h1.68h0.01c0.36,0,0.69,0.07,1.01,0.2
				c0.31,0.14,0.59,0.32,0.83,0.55c0.24,0.23,0.43,0.5,0.56,0.82c0.14,0.31,0.21,0.65,0.21,1.01c0,0.36-0.07,0.69-0.21,1
				c-0.14,0.31-0.33,0.58-0.56,0.82c-0.23,0.23-0.51,0.42-0.83,0.55c-0.32,0.14-0.66,0.2-1.01,0.2h-1.27v1.67
				c0,0.12-0.04,0.22-0.12,0.3c-0.08,0.08-0.18,0.12-0.3,0.12c-0.11,0-0.21-0.04-0.29-0.12c-0.08-0.08-0.13-0.18-0.13-0.3V79.76z
				 M49.88,80.18v3.49h1.27c0.25,0,0.48-0.05,0.7-0.14c0.22-0.09,0.4-0.22,0.56-0.37c0.16-0.16,0.29-0.34,0.38-0.55
				c0.09-0.21,0.14-0.44,0.14-0.68c0-0.24-0.05-0.47-0.14-0.68c-0.1-0.21-0.22-0.4-0.38-0.55c-0.16-0.16-0.35-0.28-0.56-0.37
				c-0.22-0.09-0.44-0.14-0.69-0.14H49.88z"/>
		</g>
	</g>
	<path class="st5" d="M40.74,86.86v0.87c0,0.68-0.56,1.24-1.24,1.24c-0.22,0-0.43-0.06-0.62-0.17c-0.2-0.12-0.27-0.38-0.15-0.58
		c0.12-0.2,0.38-0.27,0.58-0.15c0.06,0.04,0.13,0.05,0.2,0.05c0.22,0,0.39-0.18,0.39-0.39v-0.87c0-0.23,0.19-0.42,0.42-0.42
		C40.55,86.43,40.74,86.62,40.74,86.86z M37.89,88.55c-0.11-0.21-0.36-0.29-0.57-0.18c-0.21,0.11-0.29,0.36-0.18,0.57
		c0.46,0.89,1.36,1.44,2.36,1.44c1.46,0,2.66-1.19,2.66-2.66v-0.87c0-0.23-0.19-0.42-0.42-0.42s-0.42,0.19-0.42,0.42v0.87
		c0,1-0.81,1.81-1.81,1.81C38.82,89.54,38.21,89.16,37.89,88.55z M39.38,74.52c-2.18,0.06-3.95,1.93-3.95,4.15v9.05
		c0,1.11,0.44,2.15,1.24,2.92c0.77,0.75,1.77,1.15,2.83,1.15c0.04,0,0.08,0,0.12,0c2.18-0.06,3.95-1.93,3.95-4.15v-0.69
		c0-1.07-0.87-1.94-1.94-1.94h-1.31c-0.23,0-0.42,0.19-0.42,0.42c0,0.23,0.19,0.42,0.42,0.42h1.31c0.6,0,1.09,0.49,1.09,1.09v0.69
		c0,1.77-1.4,3.25-3.13,3.3c-0.88,0.03-1.71-0.3-2.34-0.91c-0.63-0.61-0.98-1.44-0.98-2.31v-9.05c0-1.77,1.4-3.25,3.13-3.3
		c0.88-0.03,1.71,0.3,2.34,0.91c0.63,0.61,0.98,1.44,0.98,2.31v5.32c0,0.23,0.19,0.42,0.42,0.42s0.42-0.19,0.42-0.42v-5.32
		c0-1.11-0.44-2.15-1.24-2.92C41.54,74.9,40.49,74.49,39.38,74.52z M42.16,81.78v-3.19c0-1.46-1.19-2.66-2.66-2.66
		c-1.46,0-2.66,1.19-2.66,2.66v0.49c0,0.23,0.19,0.42,0.42,0.42c0.23,0,0.42-0.19,0.42-0.42v-0.49c0-1,0.81-1.81,1.81-1.81
		c1,0,1.81,0.81,1.81,1.81v3.19c0,1-0.81,1.81-1.81,1.81c-0.23,0-0.45-0.04-0.66-0.13c-0.13-0.05-0.28-0.04-0.39,0.04
		c-0.12,0.08-0.19,0.21-0.19,0.35v2.89c0,0.16-0.13,0.28-0.28,0.28c-0.16,0-0.28-0.13-0.28-0.28v-6.23c0-0.23-0.19-0.42-0.42-0.42
		c-0.23,0-0.42,0.19-0.42,0.42v6.23c0,0.62,0.51,1.13,1.13,1.13c0.62,0,1.13-0.51,1.13-1.13l0-2.34c0.13,0.02,0.26,0.03,0.39,0.03
		C40.97,84.44,42.16,83.25,42.16,81.78z M44.99,78.69v6.69v0.11v2.24c0,1.49-0.59,2.88-1.66,3.93c-1.04,1.01-2.39,1.56-3.83,1.56
		c-0.04,0-0.09,0-0.13,0c-2.95-0.07-5.36-2.57-5.36-5.58v-9.04c0-1.49,0.59-2.88,1.66-3.92c1.07-1.04,2.48-1.6,3.96-1.56
		C42.59,73.18,44.99,75.68,44.99,78.69z M44.14,85.48v-0.11v-6.69c0-2.55-2.03-4.68-4.53-4.73c-1.26-0.03-2.45,0.44-3.35,1.32
		c-0.9,0.88-1.4,2.06-1.4,3.32v9.04c0,2.55,2.03,4.68,4.53,4.73c1.26,0.03,2.45-0.44,3.35-1.32c0.9-0.88,1.4-2.06,1.4-3.32V85.48z
		 M38.26,81.78v-3.19c0-0.68,0.56-1.24,1.24-1.24c0.68,0,1.24,0.56,1.24,1.24v3.19c0,0.68-0.56,1.24-1.24,1.24
		C38.82,83.02,38.26,82.47,38.26,81.78z M39.11,81.78c0,0.22,0.18,0.39,0.39,0.39c0.22,0,0.39-0.18,0.39-0.39v-3.19
		c0-0.22-0.18-0.39-0.39-0.39c-0.22,0-0.39,0.18-0.39,0.39V81.78z"/>
	<g>
		<path class="st5" d="M102.79,79.22h-0.16v-0.11h0.45v0.11h-0.16v0.47h-0.13V79.22z"/>
		<path class="st5" d="M103.64,79.47c0-0.07-0.01-0.16-0.01-0.24h0c-0.02,0.07-0.04,0.16-0.07,0.23l-0.07,0.23h-0.1l-0.06-0.23
			c-0.02-0.07-0.04-0.15-0.05-0.23h0c0,0.08-0.01,0.17-0.01,0.24l-0.01,0.22h-0.12l0.04-0.59h0.18l0.06,0.2
			c0.02,0.07,0.04,0.14,0.05,0.21h0c0.02-0.07,0.04-0.15,0.06-0.21l0.06-0.19h0.17l0.03,0.59h-0.13L103.64,79.47z"/>
	</g>
</g>
<path class="st4" d="M138.22,84.78V17.35c0-0.55-0.45-1-1-1l0,0c-0.55,0-1,0.45-1,1v67.42c0,0.55,0.45,1,1,1l0,0
	C137.78,85.78,138.22,85.33,138.22,84.78z"/>
<g>
	<path class="st3" d="M165.57,24.2c-0.1,1.32-0.58,2.36-1.46,3.12s-2.04,1.14-3.48,1.14c-1.58,0-2.82-0.53-3.72-1.59
		c-0.9-1.06-1.35-2.52-1.35-4.37v-0.75c0-1.18,0.21-2.22,0.62-3.12c0.42-0.9,1.01-1.59,1.79-2.07c0.77-0.48,1.67-0.72,2.7-0.72
		c1.42,0,2.56,0.38,3.43,1.14s1.37,1.83,1.5,3.2h-2.53c-0.06-0.79-0.28-1.37-0.66-1.73s-0.96-0.54-1.73-0.54
		c-0.84,0-1.48,0.3-1.9,0.91c-0.42,0.6-0.63,1.54-0.65,2.82v0.93c0,1.33,0.2,2.3,0.6,2.91s1.04,0.92,1.9,0.92
		c0.78,0,1.37-0.18,1.75-0.54c0.38-0.36,0.61-0.91,0.66-1.66H165.57z"/>
	<path class="st3" d="M169.65,28.29h-2.45V15.33h2.45V28.29z"/>
	<path class="st3" d="M171.64,16.79c0-0.37,0.12-0.67,0.37-0.9c0.25-0.24,0.58-0.35,1-0.35c0.42,0,0.75,0.12,1,0.35
		c0.25,0.24,0.37,0.54,0.37,0.9c0,0.37-0.12,0.68-0.38,0.91c-0.25,0.24-0.58,0.35-0.99,0.35c-0.41,0-0.74-0.12-0.99-0.35
		S171.64,17.17,171.64,16.79z M174.23,28.29h-2.45v-9.13h2.45V28.29z"/>
	<path class="st3" d="M180.04,26.49c0.45,0,0.82-0.12,1.1-0.37c0.28-0.25,0.43-0.58,0.44-0.99h2.29c-0.01,0.62-0.17,1.19-0.51,1.7
		c-0.33,0.51-0.79,0.91-1.36,1.2s-1.21,0.43-1.91,0.43c-1.31,0-2.33-0.42-3.09-1.25c-0.75-0.83-1.13-1.98-1.13-3.44v-0.16
		c0-1.41,0.37-2.53,1.12-3.37c0.75-0.84,1.78-1.26,3.08-1.26c1.14,0,2.06,0.32,2.75,0.98c0.69,0.65,1.04,1.52,1.05,2.6h-2.29
		c-0.01-0.48-0.16-0.86-0.44-1.16c-0.28-0.3-0.65-0.45-1.11-0.45c-0.57,0-1,0.21-1.29,0.62c-0.29,0.41-0.44,1.09-0.44,2.02v0.25
		c0,0.94,0.14,1.62,0.43,2.03S179.45,26.49,180.04,26.49z"/>
	<path class="st3" d="M188.57,24.63l-0.88,0.88v2.79h-2.44V15.33h2.44v7.18l0.47-0.61l2.34-2.74h2.93l-3.3,3.81l3.59,5.33h-2.8
		L188.57,24.63z"/>
	<path class="st3" d="M201.72,16.91v2.25h1.56v1.79h-1.56v4.56c0,0.34,0.06,0.58,0.19,0.73c0.13,0.15,0.38,0.22,0.74,0.22
		c0.27,0,0.51-0.02,0.72-0.06v1.85c-0.48,0.15-0.97,0.22-1.48,0.22c-1.71,0-2.58-0.86-2.62-2.59v-4.92h-1.33v-1.79h1.33v-2.25
		H201.72z"/>
	<path class="st3" d="M204,23.64c0-0.91,0.17-1.71,0.52-2.42s0.85-1.26,1.51-1.65c0.66-0.39,1.42-0.58,2.28-0.58
		c1.23,0,2.24,0.38,3.02,1.13c0.78,0.75,1.21,1.78,1.3,3.07l0.02,0.62c0,1.4-0.39,2.53-1.17,3.37s-1.83,1.27-3.15,1.27
		c-1.32,0-2.37-0.42-3.15-1.27c-0.79-0.84-1.18-1.99-1.18-3.44V23.64z M206.44,23.81c0,0.87,0.16,1.53,0.49,1.99
		c0.33,0.46,0.79,0.69,1.4,0.69c0.59,0,1.05-0.23,1.38-0.68s0.5-1.18,0.5-2.18c0-0.85-0.17-1.51-0.5-1.98s-0.8-0.7-1.4-0.7
		c-0.6,0-1.06,0.23-1.38,0.7C206.61,22.12,206.44,22.84,206.44,23.81z"/>
	<path class="st3" d="M221.04,28.29h-2.45V15.33h2.45V28.29z"/>
	<path class="st3" d="M227.25,28.46c-1.34,0-2.43-0.41-3.27-1.23c-0.84-0.82-1.26-1.92-1.26-3.28v-0.24c0-0.92,0.18-1.74,0.53-2.46
		s0.86-1.28,1.51-1.67c0.65-0.39,1.39-0.59,2.22-0.59c1.25,0,2.23,0.39,2.95,1.18c0.72,0.79,1.08,1.9,1.08,3.35v1h-5.82
		c0.08,0.6,0.32,1.08,0.71,1.44c0.4,0.36,0.9,0.54,1.51,0.54c0.94,0,1.67-0.34,2.2-1.02l1.2,1.34c-0.37,0.52-0.86,0.92-1.49,1.21
		C228.7,28.32,228.01,28.46,227.25,28.46z M226.97,20.96c-0.48,0-0.88,0.16-1.18,0.49c-0.3,0.33-0.49,0.8-0.58,1.41h3.39v-0.2
		c-0.01-0.54-0.16-0.96-0.44-1.26C227.89,21.1,227.49,20.96,226.97,20.96z"/>
	<path class="st3" d="M237.68,28.29c-0.11-0.22-0.19-0.49-0.24-0.82c-0.59,0.66-1.36,0.99-2.3,0.99c-0.89,0-1.64-0.26-2.22-0.78
		c-0.59-0.52-0.88-1.17-0.88-1.96c0-0.97,0.36-1.71,1.08-2.23c0.72-0.52,1.75-0.78,3.11-0.79h1.12v-0.52c0-0.42-0.11-0.76-0.33-1.01
		c-0.22-0.25-0.56-0.38-1.03-0.38c-0.41,0-0.73,0.1-0.97,0.3c-0.23,0.2-0.35,0.47-0.35,0.81h-2.44c0-0.53,0.16-1.02,0.49-1.47
		s0.79-0.8,1.38-1.06c0.6-0.26,1.27-0.38,2.01-0.38c1.12,0,2.02,0.28,2.68,0.85c0.66,0.57,0.99,1.36,0.99,2.38v3.96
		c0,0.87,0.13,1.52,0.36,1.97v0.14H237.68z M235.67,26.6c0.36,0,0.69-0.08,1-0.24c0.3-0.16,0.53-0.38,0.67-0.65v-1.57h-0.91
		c-1.22,0-1.87,0.42-1.95,1.27l-0.01,0.14c0,0.3,0.11,0.55,0.32,0.75C235,26.5,235.29,26.6,235.67,26.6z"/>
	<path class="st3" d="M246.79,21.45c-0.33-0.05-0.62-0.07-0.88-0.07c-0.92,0-1.53,0.31-1.81,0.94v5.98h-2.44v-9.13h2.3l0.07,1.09
		c0.49-0.84,1.17-1.26,2.03-1.26c0.27,0,0.52,0.04,0.76,0.11L246.79,21.45z"/>
	<path class="st3" d="M250.21,19.16l0.08,1.06c0.65-0.82,1.53-1.22,2.62-1.22c0.97,0,1.69,0.28,2.16,0.85s0.71,1.42,0.73,2.55v5.9
		h-2.44v-5.84c0-0.52-0.11-0.89-0.34-1.13c-0.22-0.23-0.6-0.35-1.12-0.35c-0.69,0-1.2,0.29-1.54,0.88v6.44h-2.44v-9.13H250.21z"/>
	<path class="st3" d="M264.24,19.16l0.08,1.02c0.65-0.79,1.52-1.19,2.62-1.19c1.18,0,1.98,0.46,2.42,1.39
		c0.64-0.93,1.56-1.39,2.74-1.39c0.99,0,1.73,0.29,2.21,0.87s0.73,1.44,0.73,2.6v5.83h-2.45v-5.82c0-0.52-0.1-0.9-0.3-1.14
		c-0.2-0.24-0.56-0.36-1.07-0.36c-0.73,0-1.24,0.35-1.52,1.05l0.01,6.27h-2.44v-5.82c0-0.53-0.1-0.91-0.31-1.15
		c-0.21-0.24-0.56-0.35-1.06-0.35c-0.69,0-1.19,0.29-1.5,0.86v6.46h-2.44v-9.13H264.24z"/>
	<path class="st3" d="M276.54,23.64c0-0.91,0.17-1.71,0.52-2.42s0.85-1.26,1.51-1.65c0.66-0.39,1.42-0.58,2.28-0.58
		c1.23,0,2.24,0.38,3.02,1.13c0.78,0.75,1.21,1.78,1.3,3.07l0.02,0.62c0,1.4-0.39,2.53-1.17,3.37s-1.83,1.27-3.15,1.27
		c-1.32,0-2.37-0.42-3.15-1.27c-0.79-0.84-1.18-1.99-1.18-3.44V23.64z M278.98,23.81c0,0.87,0.16,1.53,0.49,1.99
		c0.33,0.46,0.79,0.69,1.4,0.69c0.59,0,1.05-0.23,1.38-0.68s0.5-1.18,0.5-2.18c0-0.85-0.17-1.51-0.5-1.98s-0.8-0.7-1.4-0.7
		c-0.6,0-1.06,0.23-1.38,0.7C279.14,22.12,278.98,22.84,278.98,23.81z"/>
	<path class="st3" d="M291.83,21.45c-0.33-0.05-0.62-0.07-0.88-0.07c-0.92,0-1.53,0.31-1.81,0.94v5.98h-2.44v-9.13h2.3l0.07,1.09
		c0.49-0.84,1.17-1.26,2.03-1.26c0.27,0,0.52,0.04,0.76,0.11L291.83,21.45z"/>
	<path class="st3" d="M297.2,28.46c-1.34,0-2.43-0.41-3.27-1.23c-0.84-0.82-1.26-1.92-1.26-3.28v-0.24c0-0.92,0.18-1.74,0.53-2.46
		s0.86-1.28,1.51-1.67c0.65-0.39,1.39-0.59,2.22-0.59c1.25,0,2.23,0.39,2.95,1.18c0.72,0.79,1.08,1.9,1.08,3.35v1h-5.82
		c0.08,0.6,0.32,1.08,0.71,1.44c0.4,0.36,0.9,0.54,1.51,0.54c0.94,0,1.67-0.34,2.2-1.02l1.2,1.34c-0.37,0.52-0.86,0.92-1.49,1.21
		C298.66,28.32,297.96,28.46,297.2,28.46z M296.92,20.96c-0.48,0-0.88,0.16-1.18,0.49c-0.3,0.33-0.49,0.8-0.58,1.41h3.39v-0.2
		c-0.01-0.54-0.16-0.96-0.44-1.26C297.84,21.1,297.44,20.96,296.92,20.96z"/>
</g>
<g>
	<path class="st3" d="M160.28,43.91c-0.08-0.15-0.13-0.33-0.16-0.55c-0.39,0.44-0.91,0.66-1.54,0.66c-0.6,0-1.09-0.17-1.48-0.52
		s-0.59-0.78-0.59-1.31c0-0.65,0.24-1.14,0.72-1.49c0.48-0.35,1.17-0.52,2.07-0.52h0.75v-0.35c0-0.28-0.07-0.51-0.22-0.68
		s-0.37-0.25-0.68-0.25c-0.27,0-0.49,0.07-0.64,0.2s-0.23,0.31-0.23,0.54h-1.63c0-0.35,0.11-0.68,0.33-0.98
		c0.22-0.3,0.52-0.54,0.92-0.71c0.4-0.17,0.84-0.26,1.34-0.26c0.75,0,1.35,0.19,1.79,0.57c0.44,0.38,0.66,0.91,0.66,1.59v2.64
		c0,0.58,0.08,1.01,0.24,1.31v0.1H160.28z M158.94,42.78c0.24,0,0.46-0.05,0.66-0.16s0.35-0.25,0.45-0.43v-1.05h-0.61
		c-0.81,0-1.25,0.28-1.3,0.84l-0.01,0.1c0,0.2,0.07,0.37,0.21,0.5S158.69,42.78,158.94,42.78z"/>
	<path class="st3" d="M168.42,40.92c0,0.98-0.21,1.74-0.62,2.28c-0.42,0.55-1,0.82-1.74,0.82c-0.66,0-1.19-0.25-1.58-0.76
		l-0.07,0.65h-1.46v-8.64h1.63v3.1c0.38-0.44,0.87-0.66,1.48-0.66c0.74,0,1.33,0.27,1.75,0.82s0.63,1.31,0.63,2.3V40.92z
		 M166.8,40.8c0-0.62-0.1-1.06-0.29-1.35c-0.19-0.28-0.49-0.42-0.87-0.42c-0.52,0-0.87,0.21-1.07,0.64v2.4
		c0.2,0.43,0.56,0.64,1.08,0.64c0.53,0,0.87-0.26,1.04-0.78C166.76,41.69,166.8,41.31,166.8,40.8z"/>
	<path class="st3" d="M169.17,40.81c0-0.6,0.12-1.14,0.35-1.62s0.57-0.84,1-1.1c0.44-0.26,0.95-0.39,1.52-0.39
		c0.82,0,1.49,0.25,2.01,0.75c0.52,0.5,0.81,1.19,0.87,2.05l0.01,0.42c0,0.93-0.26,1.68-0.78,2.25s-1.22,0.85-2.1,0.85
		c-0.88,0-1.58-0.28-2.1-0.84c-0.52-0.56-0.79-1.33-0.79-2.3V40.81z M170.8,40.92c0,0.58,0.11,1.02,0.33,1.33
		c0.22,0.31,0.53,0.46,0.93,0.46c0.39,0,0.7-0.15,0.92-0.45c0.22-0.3,0.33-0.79,0.33-1.45c0-0.57-0.11-1.01-0.33-1.32
		c-0.22-0.31-0.53-0.47-0.93-0.47c-0.4,0-0.71,0.15-0.92,0.46C170.91,39.79,170.8,40.27,170.8,40.92z"/>
	<path class="st3" d="M179.59,43.29c-0.4,0.49-0.96,0.73-1.67,0.73c-0.65,0-1.15-0.19-1.49-0.56s-0.52-0.92-0.53-1.65v-3.99h1.63
		v3.94c0,0.63,0.29,0.95,0.87,0.95c0.55,0,0.93-0.19,1.14-0.57v-4.32h1.63v6.09h-1.53L179.59,43.29z"/>
	<path class="st3" d="M184.34,36.32v1.5h1.04v1.19h-1.04v3.04c0,0.23,0.04,0.39,0.13,0.48s0.25,0.15,0.5,0.15
		c0.18,0,0.34-0.01,0.48-0.04v1.23c-0.32,0.1-0.65,0.15-0.98,0.15c-1.14,0-1.72-0.58-1.75-1.73v-3.28h-0.89v-1.19h0.89v-1.5H184.34z
		"/>
	<path class="st3" d="M188.9,40.81c0-0.6,0.12-1.14,0.35-1.62s0.57-0.84,1-1.1c0.44-0.26,0.95-0.39,1.52-0.39
		c0.82,0,1.49,0.25,2.01,0.75c0.52,0.5,0.81,1.19,0.87,2.05l0.01,0.42c0,0.93-0.26,1.68-0.78,2.25s-1.22,0.85-2.1,0.85
		c-0.88,0-1.58-0.28-2.1-0.84c-0.52-0.56-0.79-1.33-0.79-2.3V40.81z M190.53,40.92c0,0.58,0.11,1.02,0.33,1.33
		c0.22,0.31,0.53,0.46,0.93,0.46c0.39,0,0.7-0.15,0.92-0.45c0.22-0.3,0.33-0.79,0.33-1.45c0-0.57-0.11-1.01-0.33-1.32
		c-0.22-0.31-0.53-0.47-0.93-0.47c-0.4,0-0.71,0.15-0.92,0.46C190.64,39.79,190.53,40.27,190.53,40.92z"/>
	<path class="st3" d="M199.32,43.29c-0.4,0.49-0.96,0.73-1.67,0.73c-0.65,0-1.15-0.19-1.49-0.56s-0.52-0.92-0.53-1.65v-3.99h1.63
		v3.94c0,0.63,0.29,0.95,0.87,0.95c0.55,0,0.93-0.19,1.14-0.57v-4.32h1.63v6.09h-1.53L199.32,43.29z"/>
	<path class="st3" d="M205.54,39.35c-0.22-0.03-0.42-0.04-0.58-0.04c-0.62,0-1.02,0.21-1.21,0.62v3.98h-1.63v-6.09h1.54l0.04,0.73
		c0.33-0.56,0.78-0.84,1.36-0.84c0.18,0,0.35,0.02,0.51,0.07L205.54,39.35z"/>
	<path class="st3" d="M211.1,43.91h-1.69v-8.19h1.69V43.91z"/>
	<path class="st3" d="M212.3,40.82c0-0.95,0.21-1.71,0.64-2.27s1.01-0.84,1.75-0.84c0.59,0,1.08,0.22,1.47,0.66v-3.11h1.63v8.64
		h-1.47l-0.08-0.65c-0.41,0.51-0.93,0.76-1.56,0.76c-0.72,0-1.29-0.28-1.72-0.85C212.52,42.61,212.3,41.83,212.3,40.82z
		 M213.93,40.94c0,0.57,0.1,1.01,0.3,1.31c0.2,0.3,0.49,0.46,0.87,0.46c0.5,0,0.86-0.21,1.06-0.64v-2.41
		c-0.2-0.42-0.55-0.64-1.05-0.64C214.32,39.03,213.93,39.67,213.93,40.94z"/>
	<path class="st3" d="M221.85,44.02c-0.89,0-1.62-0.27-2.18-0.82c-0.56-0.55-0.84-1.28-0.84-2.19v-0.16c0-0.61,0.12-1.16,0.35-1.64
		c0.24-0.48,0.57-0.85,1-1.11s0.93-0.39,1.48-0.39c0.83,0,1.49,0.26,1.97,0.79s0.72,1.27,0.72,2.23v0.66h-3.88
		c0.05,0.4,0.21,0.72,0.48,0.96c0.26,0.24,0.6,0.36,1,0.36c0.63,0,1.12-0.23,1.47-0.68l0.8,0.89c-0.24,0.35-0.57,0.61-0.99,0.81
		S222.36,44.02,221.85,44.02z M221.66,39.02c-0.32,0-0.58,0.11-0.79,0.33c-0.2,0.22-0.33,0.53-0.38,0.94h2.26v-0.13
		c-0.01-0.36-0.11-0.64-0.29-0.84C222.28,39.12,222.01,39.02,221.66,39.02z"/>
	<path class="st3" d="M226.77,37.82l0.05,0.7c0.44-0.54,1.02-0.82,1.75-0.82c0.65,0,1.13,0.19,1.44,0.57
		c0.31,0.38,0.48,0.95,0.48,1.7v3.93h-1.63v-3.89c0-0.35-0.08-0.6-0.22-0.75c-0.15-0.16-0.4-0.23-0.75-0.23
		c-0.46,0-0.8,0.19-1.03,0.58v4.29h-1.63v-6.09H226.77z"/>
	<path class="st3" d="M233.68,36.32v1.5h1.04v1.19h-1.04v3.04c0,0.23,0.04,0.39,0.13,0.48s0.25,0.15,0.5,0.15
		c0.18,0,0.34-0.01,0.48-0.04v1.23c-0.32,0.1-0.65,0.15-0.99,0.15c-1.14,0-1.72-0.58-1.74-1.73v-3.28h-0.89v-1.19h0.89v-1.5H233.68z
		"/>
	<path class="st3" d="M235.62,36.24c0-0.24,0.08-0.44,0.24-0.6c0.16-0.16,0.39-0.24,0.67-0.24c0.28,0,0.5,0.08,0.66,0.24
		c0.17,0.16,0.25,0.36,0.25,0.6c0,0.25-0.08,0.45-0.25,0.61c-0.17,0.16-0.39,0.24-0.66,0.24s-0.49-0.08-0.66-0.24
		C235.7,36.69,235.62,36.49,235.62,36.24z M237.34,43.91h-1.63v-6.09h1.63V43.91z"/>
	<path class="st3" d="M240.63,36.32v1.5h1.04v1.19h-1.04v3.04c0,0.23,0.04,0.39,0.13,0.48c0.09,0.1,0.25,0.15,0.5,0.15
		c0.18,0,0.34-0.01,0.48-0.04v1.23c-0.32,0.1-0.65,0.15-0.99,0.15c-1.14,0-1.72-0.58-1.75-1.73v-3.28h-0.89v-1.19H239v-1.5H240.63z"
		/>
	<path class="st3" d="M244.85,41.61l1.13-3.79h1.74l-2.45,7.03l-0.13,0.32c-0.36,0.8-0.96,1.19-1.8,1.19
		c-0.24,0-0.48-0.04-0.72-0.11v-1.23l0.25,0.01c0.31,0,0.54-0.05,0.69-0.14s0.27-0.25,0.36-0.47l0.19-0.5l-2.13-6.11h1.75
		L244.85,41.61z"/>
	<path class="st3" d="M257.17,37.08h-2.51v6.83h-1.69v-6.83h-2.48v-1.37h6.67V37.08z"/>
	<path class="st3" d="M259.61,38.48c0.43-0.52,0.97-0.78,1.63-0.78c1.32,0,1.99,0.77,2.01,2.3v3.9h-1.63v-3.85
		c0-0.35-0.07-0.61-0.22-0.77c-0.15-0.17-0.4-0.25-0.75-0.25c-0.48,0-0.82,0.18-1.04,0.55v4.33h-1.63v-8.64h1.63V38.48z"/>
	<path class="st3" d="M267.28,44.02c-0.89,0-1.62-0.27-2.18-0.82c-0.56-0.55-0.84-1.28-0.84-2.19v-0.16c0-0.61,0.12-1.16,0.35-1.64
		c0.24-0.48,0.57-0.85,1-1.11c0.43-0.26,0.93-0.39,1.48-0.39c0.83,0,1.49,0.26,1.97,0.79s0.72,1.27,0.72,2.23v0.66h-3.88
		c0.05,0.4,0.21,0.72,0.48,0.96c0.26,0.24,0.6,0.36,1,0.36c0.63,0,1.12-0.23,1.47-0.68l0.8,0.89c-0.24,0.35-0.57,0.61-0.99,0.81
		C268.24,43.93,267.78,44.02,267.28,44.02z M267.09,39.02c-0.32,0-0.58,0.11-0.79,0.33s-0.33,0.53-0.39,0.94h2.26v-0.13
		c-0.01-0.36-0.11-0.64-0.29-0.84C267.7,39.12,267.43,39.02,267.09,39.02z"/>
	<path class="st3" d="M271.15,43.91v-4.9h-0.91v-1.19h0.91V37.3c0-0.68,0.2-1.21,0.59-1.59c0.39-0.38,0.94-0.57,1.65-0.57
		c0.23,0,0.5,0.04,0.83,0.11l-0.02,1.26c-0.13-0.03-0.3-0.05-0.49-0.05c-0.61,0-0.92,0.29-0.92,0.86v0.49h1.21v1.19h-1.21v4.9
		H271.15z"/>
	<path class="st3" d="M276.78,36.32v1.5h1.04v1.19h-1.04v3.04c0,0.23,0.04,0.39,0.13,0.48c0.09,0.1,0.25,0.15,0.49,0.15
		c0.18,0,0.34-0.01,0.48-0.04v1.23c-0.32,0.1-0.65,0.15-0.98,0.15c-1.14,0-1.72-0.58-1.74-1.73v-3.28h-0.89v-1.19h0.89v-1.5H276.78z
		"/>
	<path class="st3" d="M285.13,43.91c-0.08-0.15-0.13-0.33-0.16-0.55c-0.39,0.44-0.91,0.66-1.54,0.66c-0.6,0-1.09-0.17-1.48-0.52
		s-0.59-0.78-0.59-1.31c0-0.65,0.24-1.14,0.72-1.49c0.48-0.35,1.17-0.52,2.07-0.52h0.75v-0.35c0-0.28-0.07-0.51-0.22-0.68
		s-0.37-0.25-0.68-0.25c-0.27,0-0.49,0.07-0.64,0.2c-0.16,0.13-0.23,0.31-0.23,0.54h-1.63c0-0.35,0.11-0.68,0.33-0.98
		c0.22-0.3,0.53-0.54,0.92-0.71c0.4-0.17,0.84-0.26,1.34-0.26c0.75,0,1.35,0.19,1.79,0.57c0.44,0.38,0.66,0.91,0.66,1.59v2.64
		c0,0.58,0.08,1.01,0.24,1.31v0.1H285.13z M283.78,42.78c0.24,0,0.46-0.05,0.66-0.16c0.2-0.11,0.35-0.25,0.45-0.43v-1.05h-0.61
		c-0.81,0-1.25,0.28-1.3,0.84l0,0.1c0,0.2,0.07,0.37,0.21,0.5S283.53,42.78,283.78,42.78z"/>
	<path class="st3" d="M289.27,37.82l0.05,0.7c0.44-0.54,1.02-0.82,1.75-0.82c0.65,0,1.12,0.19,1.44,0.57
		c0.31,0.38,0.48,0.95,0.48,1.7v3.93h-1.63v-3.89c0-0.35-0.08-0.6-0.23-0.75s-0.4-0.23-0.75-0.23c-0.46,0-0.8,0.19-1.03,0.58v4.29
		h-1.63v-6.09H289.27z"/>
	<path class="st3" d="M293.98,40.82c0-0.95,0.21-1.71,0.64-2.27s1.01-0.84,1.75-0.84c0.59,0,1.08,0.22,1.47,0.66v-3.11h1.63v8.64
		H298l-0.08-0.65c-0.41,0.51-0.93,0.76-1.56,0.76c-0.72,0-1.29-0.28-1.72-0.85C294.2,42.61,293.98,41.83,293.98,40.82z M295.6,40.94
		c0,0.57,0.1,1.01,0.3,1.31c0.2,0.3,0.49,0.46,0.87,0.46c0.5,0,0.86-0.21,1.06-0.64v-2.41c-0.2-0.42-0.55-0.64-1.05-0.64
		C296,39.03,295.6,39.67,295.6,40.94z"/>
	<path class="st3" d="M174.32,55.01c-0.06,0.88-0.39,1.58-0.98,2.08c-0.59,0.51-1.36,0.76-2.32,0.76c-1.05,0-1.88-0.35-2.48-1.06
		s-0.9-1.68-0.9-2.91v-0.5c0-0.79,0.14-1.48,0.42-2.08c0.28-0.6,0.67-1.06,1.19-1.38s1.12-0.48,1.8-0.48c0.95,0,1.71,0.25,2.28,0.76
		c0.58,0.51,0.91,1.22,1,2.13h-1.69c-0.04-0.53-0.19-0.91-0.44-1.15c-0.25-0.24-0.64-0.36-1.16-0.36c-0.56,0-0.98,0.2-1.26,0.6
		s-0.42,1.03-0.43,1.88v0.62c0,0.89,0.13,1.53,0.4,1.94s0.69,0.61,1.27,0.61c0.52,0,0.91-0.12,1.17-0.36
		c0.26-0.24,0.4-0.61,0.44-1.11H174.32z"/>
	<path class="st3" d="M178.74,53.17c-0.22-0.03-0.42-0.04-0.58-0.04c-0.62,0-1.02,0.21-1.21,0.62v3.98h-1.63v-6.09h1.54l0.04,0.73
		c0.33-0.56,0.78-0.84,1.36-0.84c0.18,0,0.35,0.02,0.51,0.07L178.74,53.17z"/>
	<path class="st3" d="M182.33,57.85c-0.89,0-1.62-0.27-2.18-0.82s-0.84-1.28-0.84-2.19v-0.16c0-0.61,0.12-1.16,0.35-1.64
		s0.57-0.85,1-1.11c0.43-0.26,0.93-0.39,1.48-0.39c0.83,0,1.49,0.26,1.97,0.79s0.72,1.27,0.72,2.23v0.66h-3.88
		c0.05,0.4,0.21,0.72,0.47,0.96c0.26,0.24,0.6,0.36,1,0.36c0.63,0,1.12-0.23,1.47-0.68l0.8,0.89c-0.24,0.35-0.57,0.61-0.99,0.81
		S182.83,57.85,182.33,57.85z M182.14,52.85c-0.32,0-0.58,0.11-0.79,0.33c-0.2,0.22-0.33,0.53-0.39,0.94h2.26v-0.13
		c-0.01-0.36-0.1-0.64-0.29-0.84S182.49,52.85,182.14,52.85z"/>
	<path class="st3" d="M185.5,54.65c0-0.95,0.21-1.71,0.64-2.27c0.43-0.56,1.01-0.84,1.75-0.84c0.59,0,1.08,0.22,1.47,0.66V49.1h1.63
		v8.64h-1.47l-0.08-0.65c-0.41,0.51-0.93,0.76-1.56,0.76c-0.72,0-1.29-0.28-1.72-0.85C185.72,56.44,185.5,55.66,185.5,54.65z
		 M187.13,54.77c0,0.57,0.1,1.01,0.3,1.31c0.2,0.3,0.49,0.46,0.87,0.46c0.5,0,0.86-0.21,1.06-0.64V53.5
		c-0.2-0.42-0.55-0.64-1.05-0.64C187.52,52.86,187.13,53.5,187.13,54.77z"/>
	<path class="st3" d="M192.24,50.07c0-0.24,0.08-0.44,0.24-0.6c0.16-0.16,0.39-0.24,0.67-0.24c0.28,0,0.5,0.08,0.66,0.24
		c0.17,0.16,0.25,0.36,0.25,0.6c0,0.25-0.08,0.45-0.25,0.61c-0.17,0.16-0.39,0.24-0.66,0.24s-0.49-0.08-0.66-0.24
		C192.32,50.52,192.24,50.32,192.24,50.07z M193.96,57.74h-1.63v-6.09h1.63V57.74z"/>
	<path class="st3" d="M197.25,50.15v1.5h1.04v1.19h-1.04v3.04c0,0.23,0.04,0.39,0.13,0.48c0.09,0.1,0.25,0.15,0.5,0.15
		c0.18,0,0.34-0.01,0.48-0.04v1.23c-0.32,0.1-0.65,0.15-0.99,0.15c-1.14,0-1.72-0.58-1.75-1.73v-3.28h-0.89v-1.19h0.89v-1.5H197.25z
		"/>
	<path class="st3" d="M204.38,49.55l2.1,5.94l2.09-5.94h2.22v8.19h-1.69V55.5l0.17-3.87l-2.21,6.11h-1.16l-2.21-6.1l0.17,3.86v2.24
		h-1.69v-8.19H204.38z"/>
	<path class="st3" d="M211.91,54.64c0-0.6,0.12-1.14,0.35-1.62c0.23-0.47,0.57-0.84,1-1.1s0.94-0.39,1.52-0.39
		c0.82,0,1.49,0.25,2.01,0.75c0.52,0.5,0.81,1.19,0.87,2.05l0.01,0.42c0,0.93-0.26,1.68-0.78,2.25s-1.22,0.85-2.1,0.85
		c-0.88,0-1.58-0.28-2.1-0.84c-0.52-0.56-0.78-1.33-0.78-2.3V54.64z M213.54,54.75c0,0.58,0.11,1.02,0.33,1.33s0.53,0.46,0.93,0.46
		c0.39,0,0.7-0.15,0.92-0.45c0.22-0.3,0.33-0.79,0.33-1.45c0-0.57-0.11-1.01-0.33-1.32c-0.22-0.31-0.53-0.47-0.93-0.47
		c-0.4,0-0.71,0.16-0.92,0.46C213.65,53.62,213.54,54.1,213.54,54.75z"/>
	<path class="st3" d="M220.18,51.65l0.05,0.7c0.43-0.54,1.02-0.82,1.75-0.82c0.65,0,1.13,0.19,1.44,0.57
		c0.32,0.38,0.48,0.95,0.48,1.7v3.93h-1.63v-3.89c0-0.34-0.07-0.6-0.22-0.75c-0.15-0.16-0.4-0.23-0.75-0.23
		c-0.46,0-0.8,0.19-1.03,0.58v4.29h-1.63v-6.09H220.18z"/>
	<path class="st3" d="M225.12,50.07c0-0.24,0.08-0.44,0.25-0.6c0.16-0.16,0.39-0.24,0.67-0.24c0.28,0,0.5,0.08,0.66,0.24
		c0.16,0.16,0.25,0.36,0.25,0.6c0,0.25-0.08,0.45-0.25,0.61c-0.17,0.16-0.39,0.24-0.66,0.24c-0.27,0-0.49-0.08-0.66-0.24
		C225.21,50.52,225.12,50.32,225.12,50.07z M226.85,57.74h-1.63v-6.09h1.63V57.74z"/>
	<path class="st3" d="M230.14,50.15v1.5h1.04v1.19h-1.04v3.04c0,0.23,0.04,0.39,0.13,0.48s0.25,0.15,0.5,0.15
		c0.18,0,0.34-0.01,0.48-0.04v1.23c-0.32,0.1-0.65,0.15-0.98,0.15c-1.14,0-1.72-0.58-1.75-1.73v-3.28h-0.89v-1.19h0.89v-1.5H230.14z
		"/>
	<path class="st3" d="M231.66,54.64c0-0.6,0.12-1.14,0.35-1.62s0.57-0.84,1-1.1s0.95-0.39,1.52-0.39c0.82,0,1.49,0.25,2.01,0.75
		c0.52,0.5,0.81,1.19,0.87,2.05l0.01,0.42c0,0.93-0.26,1.68-0.78,2.25s-1.22,0.85-2.1,0.85c-0.88,0-1.58-0.28-2.1-0.84
		c-0.52-0.56-0.79-1.33-0.79-2.3V54.64z M233.29,54.75c0,0.58,0.11,1.02,0.33,1.33c0.22,0.31,0.53,0.46,0.93,0.46
		c0.39,0,0.7-0.15,0.92-0.45c0.22-0.3,0.33-0.79,0.33-1.45c0-0.57-0.11-1.01-0.33-1.32c-0.22-0.31-0.53-0.47-0.93-0.47
		c-0.4,0-0.71,0.16-0.92,0.46C233.4,53.62,233.29,54.1,233.29,54.75z"/>
	<path class="st3" d="M241.86,53.17c-0.22-0.03-0.42-0.04-0.58-0.04c-0.62,0-1.02,0.21-1.21,0.62v3.98h-1.63v-6.09h1.54l0.04,0.73
		c0.33-0.56,0.78-0.84,1.36-0.84c0.18,0,0.35,0.02,0.51,0.07L241.86,53.17z"/>
	<path class="st3" d="M242.63,50.07c0-0.24,0.08-0.44,0.25-0.6c0.16-0.16,0.39-0.24,0.67-0.24c0.28,0,0.5,0.08,0.66,0.24
		c0.16,0.16,0.25,0.36,0.25,0.6c0,0.25-0.08,0.45-0.25,0.61c-0.17,0.16-0.39,0.24-0.66,0.24c-0.27,0-0.49-0.08-0.66-0.24
		C242.71,50.52,242.63,50.32,242.63,50.07z M244.35,57.74h-1.63v-6.09h1.63V57.74z"/>
	<path class="st3" d="M247.19,51.65l0.05,0.7c0.43-0.54,1.02-0.82,1.75-0.82c0.64,0,1.12,0.19,1.44,0.57s0.48,0.95,0.48,1.7v3.93
		h-1.63v-3.89c0-0.34-0.08-0.6-0.23-0.75c-0.15-0.16-0.4-0.23-0.75-0.23c-0.46,0-0.8,0.19-1.03,0.58v4.29h-1.63v-6.09H247.19z"/>
	<path class="st3" d="M251.91,54.65c0-0.93,0.22-1.69,0.67-2.26s1.04-0.86,1.8-0.86c0.67,0,1.19,0.23,1.56,0.69l0.07-0.57h1.47v5.89
		c0,0.53-0.12,1-0.36,1.39c-0.24,0.39-0.58,0.69-1.02,0.9c-0.44,0.21-0.95,0.31-1.54,0.31c-0.45,0-0.88-0.09-1.31-0.27
		c-0.42-0.18-0.75-0.41-0.96-0.69l0.72-0.99c0.41,0.45,0.9,0.68,1.47,0.68c0.43,0,0.77-0.12,1.01-0.35
		c0.24-0.23,0.36-0.56,0.36-0.98v-0.33c-0.38,0.42-0.87,0.64-1.48,0.64c-0.73,0-1.32-0.29-1.78-0.86c-0.45-0.57-0.68-1.33-0.68-2.28
		V54.65z M253.54,54.77c0,0.55,0.11,0.99,0.33,1.3c0.22,0.31,0.53,0.47,0.91,0.47c0.5,0,0.85-0.19,1.06-0.56v-2.56
		c-0.22-0.37-0.57-0.56-1.05-0.56c-0.39,0-0.7,0.16-0.92,0.48C253.65,53.66,253.54,54.14,253.54,54.77z"/>
	<path class="st3" d="M267.08,54.75c0,0.94-0.21,1.69-0.64,2.25s-1,0.85-1.72,0.85c-0.62,0-1.11-0.21-1.49-0.64v2.87h-1.63v-8.43
		h1.51l0.06,0.6c0.39-0.47,0.91-0.71,1.54-0.71c0.75,0,1.33,0.28,1.75,0.83c0.42,0.56,0.62,1.32,0.62,2.3V54.75z M265.45,54.63
		c0-0.57-0.1-1-0.3-1.31c-0.2-0.31-0.49-0.46-0.88-0.46c-0.51,0-0.86,0.19-1.05,0.58v2.49c0.2,0.4,0.55,0.6,1.06,0.6
		C265.06,56.54,265.45,55.9,265.45,54.63z"/>
	<path class="st3" d="M269.8,57.74h-1.63V49.1h1.63V57.74z"/>
	<path class="st3" d="M274.67,57.74c-0.07-0.15-0.13-0.33-0.16-0.55c-0.39,0.44-0.91,0.66-1.54,0.66c-0.6,0-1.09-0.17-1.48-0.52
		c-0.39-0.35-0.59-0.78-0.59-1.31c0-0.65,0.24-1.14,0.72-1.49c0.48-0.35,1.17-0.52,2.07-0.52h0.75v-0.35c0-0.28-0.07-0.51-0.22-0.67
		s-0.37-0.25-0.68-0.25c-0.27,0-0.49,0.07-0.64,0.2c-0.16,0.13-0.23,0.31-0.23,0.54h-1.63c0-0.35,0.11-0.68,0.33-0.98
		c0.22-0.3,0.53-0.54,0.92-0.71c0.4-0.17,0.84-0.26,1.34-0.26c0.75,0,1.35,0.19,1.79,0.57c0.44,0.38,0.66,0.91,0.66,1.59v2.64
		c0,0.58,0.08,1.01,0.24,1.31v0.1H274.67z M273.33,56.61c0.24,0,0.46-0.05,0.66-0.16c0.2-0.11,0.35-0.25,0.45-0.43v-1.05h-0.61
		c-0.81,0-1.25,0.28-1.3,0.84l0,0.1c0,0.2,0.07,0.37,0.21,0.5C272.88,56.54,273.08,56.61,273.33,56.61z"/>
	<path class="st3" d="M278.82,51.65l0.05,0.7c0.43-0.54,1.02-0.82,1.75-0.82c0.65,0,1.13,0.19,1.44,0.57
		c0.32,0.38,0.48,0.95,0.48,1.7v3.93h-1.63v-3.89c0-0.34-0.07-0.6-0.22-0.75c-0.15-0.16-0.4-0.23-0.75-0.23
		c-0.46,0-0.8,0.19-1.03,0.58v4.29h-1.63v-6.09H278.82z"/>
	<path class="st3" d="M287.07,56.06c0-0.2-0.1-0.36-0.3-0.47c-0.2-0.12-0.51-0.22-0.95-0.31c-1.45-0.3-2.17-0.92-2.17-1.85
		c0-0.54,0.22-0.99,0.67-1.35c0.45-0.36,1.03-0.54,1.76-0.54c0.77,0,1.39,0.18,1.86,0.55c0.46,0.36,0.69,0.84,0.69,1.42h-1.63
		c0-0.23-0.08-0.43-0.23-0.58c-0.15-0.15-0.38-0.23-0.7-0.23c-0.27,0-0.49,0.06-0.64,0.19c-0.15,0.12-0.23,0.28-0.23,0.47
		c0,0.18,0.08,0.33,0.26,0.44c0.17,0.11,0.46,0.21,0.86,0.29c0.41,0.08,0.75,0.17,1.02,0.27c0.86,0.31,1.29,0.86,1.29,1.64
		c0,0.55-0.24,1-0.71,1.35c-0.48,0.34-1.09,0.51-1.85,0.51c-0.51,0-0.96-0.09-1.36-0.27c-0.39-0.18-0.71-0.43-0.93-0.75
		s-0.34-0.66-0.34-1.03h1.54c0.02,0.29,0.12,0.51,0.32,0.66c0.2,0.15,0.47,0.23,0.8,0.23c0.31,0,0.55-0.06,0.71-0.18
		C286.99,56.4,287.07,56.25,287.07,56.06z"/>
</g>
<g>
	<path class="st3" d="M182.67,73.88c0-0.24-0.08-0.44-0.25-0.61s-0.45-0.31-0.85-0.45c-0.55-0.17-0.96-0.39-1.21-0.66
		c-0.25-0.27-0.38-0.62-0.38-1.04c0-0.43,0.12-0.78,0.37-1.05c0.25-0.27,0.59-0.44,1.03-0.49v-0.86h0.58v0.86
		c0.44,0.06,0.78,0.24,1.02,0.55c0.24,0.31,0.37,0.73,0.37,1.26h-0.72c0-0.37-0.09-0.66-0.26-0.88c-0.17-0.22-0.41-0.33-0.71-0.33
		c-0.31,0-0.55,0.08-0.71,0.24c-0.16,0.16-0.25,0.38-0.25,0.67c0,0.27,0.09,0.48,0.26,0.64c0.17,0.16,0.46,0.3,0.86,0.43
		c0.4,0.13,0.71,0.27,0.93,0.43c0.22,0.15,0.39,0.33,0.49,0.54c0.11,0.21,0.16,0.45,0.16,0.72c0,0.44-0.13,0.79-0.4,1.06
		c-0.26,0.27-0.63,0.43-1.11,0.48v0.75h-0.58v-0.75c-0.48-0.04-0.86-0.22-1.14-0.52c-0.28-0.3-0.41-0.71-0.41-1.22h0.72
		c0,0.36,0.09,0.64,0.29,0.84c0.19,0.2,0.46,0.29,0.81,0.29c0.34,0,0.61-0.08,0.8-0.25S182.67,74.16,182.67,73.88z"/>
	<path class="st3" d="M186.67,75.34h-0.73v-4.82l-1.46,0.54v-0.66l2.07-0.78h0.11V75.34z"/>
	<path class="st3" d="M191.82,70.09v1.02h0.79v0.56h-0.79v2.62c0,0.17,0.04,0.3,0.11,0.38c0.07,0.08,0.19,0.13,0.36,0.13
		c0.08,0,0.2-0.02,0.34-0.05v0.58c-0.19,0.05-0.38,0.08-0.55,0.08c-0.32,0-0.57-0.1-0.73-0.29s-0.25-0.47-0.25-0.83v-2.62h-0.77
		v-0.56h0.77v-1.02H191.82z"/>
	<path class="st3" d="M195.49,71.76c-0.11-0.02-0.23-0.03-0.36-0.03c-0.47,0-0.8,0.2-0.96,0.61v3h-0.72v-4.23h0.7l0.01,0.49
		c0.24-0.38,0.57-0.57,1.01-0.57c0.14,0,0.25,0.02,0.32,0.05V71.76z"/>
	<path class="st3" d="M196.16,70c0-0.12,0.04-0.22,0.11-0.3c0.07-0.08,0.18-0.12,0.32-0.12s0.25,0.04,0.32,0.12
		c0.07,0.08,0.11,0.18,0.11,0.3s-0.04,0.21-0.11,0.29c-0.07,0.08-0.18,0.12-0.32,0.12s-0.25-0.04-0.32-0.12
		C196.2,70.21,196.16,70.11,196.16,70z M196.94,75.34h-0.72v-4.23h0.72V75.34z"/>
	<path class="st3" d="M200.71,75.34c-0.04-0.08-0.08-0.23-0.1-0.45c-0.34,0.35-0.74,0.52-1.2,0.52c-0.42,0-0.76-0.12-1.03-0.35
		c-0.27-0.24-0.4-0.54-0.4-0.9c0-0.44,0.17-0.78,0.5-1.03c0.33-0.24,0.8-0.37,1.41-0.37h0.7v-0.33c0-0.25-0.08-0.45-0.23-0.6
		c-0.15-0.15-0.37-0.22-0.67-0.22c-0.26,0-0.47,0.06-0.65,0.2c-0.17,0.13-0.26,0.29-0.26,0.47h-0.73c0-0.21,0.07-0.42,0.22-0.61
		c0.15-0.2,0.35-0.35,0.61-0.47c0.26-0.12,0.54-0.17,0.85-0.17c0.49,0,0.87,0.12,1.14,0.37c0.28,0.24,0.42,0.58,0.43,1.01v1.95
		c0,0.39,0.05,0.7,0.15,0.93v0.06H200.71z M199.51,74.79c0.23,0,0.44-0.06,0.64-0.18s0.35-0.27,0.44-0.46v-0.87h-0.57
		c-0.89,0-1.33,0.26-1.33,0.78c0,0.23,0.08,0.4,0.23,0.53C199.08,74.73,199.27,74.79,199.51,74.79z"/>
	<path class="st3" d="M203.24,75.34h-0.72v-6h0.72V75.34z"/>
	<path class="st3" d="M206.73,75.34v-3.67h-0.67v-0.56h0.67v-0.43c0-0.45,0.12-0.8,0.36-1.05c0.24-0.25,0.58-0.37,1.03-0.37
		c0.17,0,0.33,0.02,0.5,0.07l-0.04,0.58c-0.12-0.02-0.25-0.04-0.39-0.04c-0.23,0-0.42,0.07-0.54,0.21
		c-0.13,0.14-0.19,0.33-0.19,0.59v0.45h0.9v0.56h-0.9v3.67H206.73z"/>
	<path class="st3" d="M208.96,73.19c0-0.41,0.08-0.79,0.24-1.12c0.16-0.33,0.39-0.59,0.68-0.77c0.29-0.18,0.62-0.27,0.99-0.27
		c0.58,0,1.04,0.2,1.4,0.6s0.53,0.93,0.53,1.59v0.05c0,0.41-0.08,0.78-0.24,1.11c-0.16,0.33-0.38,0.58-0.68,0.76
		c-0.29,0.18-0.63,0.27-1.01,0.27c-0.57,0-1.04-0.2-1.39-0.6s-0.53-0.93-0.53-1.58V73.19z M209.69,73.28c0,0.47,0.11,0.84,0.33,1.13
		c0.22,0.28,0.51,0.43,0.87,0.43c0.37,0,0.66-0.14,0.88-0.43c0.22-0.29,0.32-0.69,0.32-1.21c0-0.46-0.11-0.84-0.33-1.13
		c-0.22-0.29-0.51-0.43-0.88-0.43c-0.36,0-0.64,0.14-0.86,0.43C209.79,72.34,209.69,72.75,209.69,73.28z"/>
	<path class="st3" d="M215.76,71.76c-0.11-0.02-0.23-0.03-0.36-0.03c-0.47,0-0.8,0.2-0.96,0.61v3h-0.72v-4.23h0.7l0.01,0.49
		c0.24-0.38,0.57-0.57,1.01-0.57c0.14,0,0.25,0.02,0.32,0.05V71.76z"/>
	<path class="st3" d="M219.38,70.09v1.02h0.79v0.56h-0.79v2.62c0,0.17,0.04,0.3,0.11,0.38c0.07,0.08,0.19,0.13,0.36,0.13
		c0.08,0,0.2-0.02,0.34-0.05v0.58c-0.19,0.05-0.38,0.08-0.55,0.08c-0.32,0-0.57-0.1-0.73-0.29s-0.25-0.47-0.25-0.83v-2.62h-0.77
		v-0.56h0.77v-1.02H219.38z"/>
	<path class="st3" d="M221.74,71.63c0.32-0.39,0.74-0.59,1.25-0.59c0.89,0,1.34,0.5,1.35,1.51v2.79h-0.72v-2.8
		c0-0.3-0.07-0.53-0.21-0.68c-0.14-0.15-0.35-0.22-0.64-0.22c-0.23,0-0.44,0.06-0.62,0.19c-0.18,0.12-0.32,0.29-0.41,0.49v3.01
		h-0.72v-6h0.72V71.63z"/>
	<path class="st3" d="M227.17,75.42c-0.57,0-1.04-0.19-1.4-0.56c-0.36-0.38-0.54-0.88-0.54-1.51v-0.13c0-0.42,0.08-0.79,0.24-1.12
		c0.16-0.33,0.38-0.59,0.67-0.77c0.29-0.19,0.6-0.28,0.94-0.28c0.55,0,0.98,0.18,1.28,0.54c0.3,0.36,0.46,0.88,0.46,1.55v0.3h-2.86
		c0.01,0.42,0.13,0.75,0.37,1.01c0.23,0.26,0.53,0.38,0.89,0.38c0.25,0,0.47-0.05,0.65-0.16c0.18-0.1,0.33-0.24,0.46-0.41l0.44,0.34
		C228.41,75.15,227.88,75.42,227.17,75.42z M227.08,71.63c-0.29,0-0.54,0.11-0.73,0.32c-0.2,0.21-0.32,0.51-0.37,0.89h2.12v-0.05
		c-0.02-0.37-0.12-0.65-0.3-0.85C227.62,71.73,227.39,71.63,227.08,71.63z"/>
	<path class="st3" d="M231.99,75.34v-3.67h-0.67v-0.56h0.67v-0.43c0-0.45,0.12-0.8,0.36-1.05c0.24-0.25,0.58-0.37,1.03-0.37
		c0.17,0,0.33,0.02,0.5,0.07l-0.04,0.58c-0.12-0.02-0.25-0.04-0.39-0.04c-0.23,0-0.42,0.07-0.54,0.21
		c-0.13,0.14-0.19,0.33-0.19,0.59v0.45h0.9v0.56h-0.9v3.67H231.99z"/>
	<path class="st3" d="M234.42,70c0-0.12,0.04-0.22,0.11-0.3c0.07-0.08,0.18-0.12,0.32-0.12s0.25,0.04,0.32,0.12
		c0.07,0.08,0.11,0.18,0.11,0.3s-0.04,0.21-0.11,0.29c-0.07,0.08-0.18,0.12-0.32,0.12s-0.25-0.04-0.32-0.12
		C234.46,70.21,234.42,70.11,234.42,70z M235.2,75.34h-0.72v-4.23h0.72V75.34z"/>
	<path class="st3" d="M238.4,71.76c-0.11-0.02-0.23-0.03-0.36-0.03c-0.47,0-0.8,0.2-0.96,0.61v3h-0.72v-4.23h0.7l0.01,0.49
		c0.24-0.38,0.57-0.57,1.01-0.57c0.14,0,0.25,0.02,0.32,0.05V71.76z"/>
	<path class="st3" d="M241.53,74.22c0-0.2-0.07-0.35-0.22-0.46c-0.15-0.11-0.4-0.2-0.77-0.28c-0.37-0.08-0.66-0.17-0.87-0.28
		s-0.37-0.24-0.48-0.39c-0.1-0.15-0.15-0.33-0.15-0.54c0-0.35,0.15-0.64,0.44-0.88c0.29-0.24,0.67-0.36,1.12-0.36
		c0.48,0,0.87,0.12,1.17,0.37c0.3,0.25,0.45,0.56,0.45,0.95h-0.73c0-0.2-0.08-0.37-0.25-0.51c-0.17-0.14-0.38-0.21-0.63-0.21
		c-0.26,0-0.47,0.06-0.62,0.17c-0.15,0.11-0.22,0.26-0.22,0.45c0,0.17,0.07,0.31,0.21,0.39c0.14,0.09,0.39,0.17,0.75,0.25
		c0.36,0.08,0.65,0.18,0.88,0.29c0.22,0.11,0.39,0.25,0.5,0.4c0.11,0.16,0.16,0.35,0.16,0.58c0,0.38-0.15,0.68-0.45,0.91
		c-0.3,0.23-0.69,0.34-1.18,0.34c-0.34,0-0.64-0.06-0.9-0.18c-0.26-0.12-0.46-0.29-0.61-0.5c-0.15-0.21-0.22-0.45-0.22-0.7h0.72
		c0.01,0.24,0.11,0.43,0.29,0.58c0.18,0.14,0.42,0.21,0.72,0.21c0.27,0,0.49-0.06,0.66-0.17C241.44,74.55,241.53,74.41,241.53,74.22
		z"/>
	<path class="st3" d="M244.17,70.09v1.02h0.79v0.56h-0.79v2.62c0,0.17,0.04,0.3,0.11,0.38c0.07,0.08,0.19,0.13,0.36,0.13
		c0.08,0,0.2-0.02,0.34-0.05v0.58c-0.19,0.05-0.38,0.08-0.55,0.08c-0.32,0-0.57-0.1-0.73-0.29s-0.25-0.47-0.25-0.83v-2.62h-0.77
		v-0.56h0.77v-1.02H244.17z"/>
	<path class="st3" d="M250.37,75.34h-1.13v-4.35l-1.35,0.42v-0.92l2.36-0.84h0.12V75.34z"/>
	<path class="st3" d="M255.55,73.2h0.64v0.91h-0.64v1.23h-1.13v-1.23h-2.33l-0.05-0.71l2.37-3.75h1.14V73.2z M253.17,73.2h1.26
		v-2.01l-0.07,0.13L253.17,73.2z"/>
	<path class="st3" d="M258.67,73.2c0-0.66,0.15-1.18,0.44-1.57c0.29-0.39,0.7-0.59,1.21-0.59c0.41,0,0.75,0.15,1.02,0.46v-2.16h1.13
		v6h-1.02l-0.05-0.45c-0.28,0.35-0.64,0.53-1.09,0.53c-0.5,0-0.9-0.2-1.2-0.59C258.82,74.44,258.67,73.9,258.67,73.2z M259.79,73.28
		c0,0.4,0.07,0.7,0.21,0.91c0.14,0.21,0.34,0.32,0.6,0.32c0.35,0,0.59-0.15,0.74-0.44V72.4c-0.14-0.29-0.38-0.44-0.73-0.44
		C260.07,71.96,259.79,72.4,259.79,73.28z"/>
	<path class="st3" d="M265.8,75.34c-0.05-0.1-0.09-0.23-0.11-0.38c-0.27,0.3-0.63,0.46-1.07,0.46c-0.41,0-0.76-0.12-1.03-0.36
		c-0.27-0.24-0.41-0.54-0.41-0.91c0-0.45,0.17-0.79,0.5-1.03c0.33-0.24,0.81-0.36,1.44-0.36h0.52v-0.24c0-0.2-0.05-0.35-0.15-0.47
		c-0.1-0.12-0.26-0.18-0.47-0.18c-0.19,0-0.34,0.04-0.45,0.14c-0.11,0.09-0.16,0.22-0.16,0.38h-1.13c0-0.25,0.08-0.47,0.23-0.68
		c0.15-0.21,0.36-0.37,0.64-0.49c0.28-0.12,0.59-0.18,0.93-0.18c0.52,0,0.93,0.13,1.24,0.39c0.31,0.26,0.46,0.63,0.46,1.1v1.83
		c0,0.4,0.06,0.7,0.17,0.91v0.07H265.8z M264.87,74.56c0.17,0,0.32-0.04,0.46-0.11s0.24-0.17,0.31-0.3v-0.73h-0.42
		c-0.57,0-0.87,0.2-0.9,0.59l0,0.07c0,0.14,0.05,0.26,0.15,0.35C264.56,74.51,264.69,74.56,264.87,74.56z"/>
	<path class="st3" d="M269.22,73.75l0.78-2.63h1.21l-1.7,4.88l-0.09,0.22c-0.25,0.55-0.67,0.83-1.25,0.83
		c-0.16,0-0.33-0.03-0.5-0.07v-0.86l0.17,0c0.21,0,0.37-0.03,0.48-0.1c0.11-0.07,0.19-0.17,0.25-0.32l0.13-0.35l-1.48-4.24h1.21
		L269.22,73.75z"/>
	<path class="st3" d="M273.94,74.17c0-0.14-0.07-0.25-0.21-0.33c-0.14-0.08-0.36-0.15-0.66-0.21c-1.01-0.21-1.51-0.64-1.51-1.28
		c0-0.38,0.16-0.69,0.47-0.94c0.31-0.25,0.72-0.38,1.22-0.38c0.54,0,0.96,0.13,1.29,0.38c0.32,0.25,0.48,0.58,0.48,0.98h-1.13
		c0-0.16-0.05-0.29-0.16-0.4c-0.1-0.11-0.27-0.16-0.49-0.16c-0.19,0-0.34,0.04-0.44,0.13c-0.1,0.09-0.16,0.2-0.16,0.33
		c0,0.12,0.06,0.23,0.18,0.3c0.12,0.08,0.32,0.14,0.6,0.2c0.28,0.06,0.52,0.12,0.71,0.19c0.6,0.22,0.89,0.6,0.89,1.14
		c0,0.38-0.17,0.7-0.5,0.94c-0.33,0.24-0.76,0.36-1.28,0.36c-0.35,0-0.67-0.06-0.94-0.19c-0.28-0.13-0.49-0.3-0.65-0.52
		c-0.16-0.22-0.23-0.46-0.23-0.71h1.07c0.01,0.2,0.08,0.35,0.22,0.46c0.14,0.11,0.32,0.16,0.55,0.16c0.22,0,0.38-0.04,0.49-0.12
		C273.89,74.42,273.94,74.31,273.94,74.17z"/>
	<path class="st3" d="M275.86,76.48l-0.41-0.28c0.24-0.34,0.37-0.69,0.38-1.05v-0.65h0.71v0.57c0,0.26-0.06,0.53-0.19,0.79
		C276.21,76.11,276.05,76.32,275.86,76.48z"/>
	<path class="st3" d="M179,82.88c0,0.64-0.15,1.16-0.44,1.55c-0.29,0.39-0.69,0.59-1.2,0.59c-0.51,0-0.92-0.16-1.21-0.49v2.04h-0.72
		v-5.85h0.66l0.04,0.47c0.29-0.36,0.7-0.55,1.23-0.55c0.51,0,0.91,0.19,1.21,0.57c0.29,0.38,0.44,0.92,0.44,1.6V82.88z
		 M178.28,82.79c0-0.48-0.1-0.85-0.3-1.13c-0.2-0.28-0.48-0.41-0.84-0.41c-0.44,0-0.77,0.19-0.98,0.58v2.02
		c0.22,0.39,0.55,0.58,0.99,0.58c0.35,0,0.62-0.14,0.83-0.41C178.18,83.74,178.28,83.34,178.28,82.79z"/>
	<path class="st3" d="M180.71,84.94h-0.72v-6h0.72V84.94z"/>
	<path class="st3" d="M184.47,84.94c-0.04-0.08-0.08-0.23-0.1-0.45c-0.34,0.35-0.74,0.52-1.2,0.52c-0.42,0-0.76-0.12-1.03-0.35
		c-0.27-0.24-0.4-0.53-0.4-0.9c0-0.44,0.17-0.78,0.5-1.03c0.33-0.24,0.8-0.37,1.41-0.37h0.7v-0.33c0-0.25-0.08-0.45-0.23-0.6
		c-0.15-0.15-0.37-0.22-0.67-0.22c-0.26,0-0.47,0.07-0.65,0.2c-0.17,0.13-0.26,0.29-0.26,0.47h-0.73c0-0.21,0.07-0.41,0.22-0.61
		c0.15-0.2,0.35-0.35,0.61-0.47c0.26-0.11,0.54-0.17,0.85-0.17c0.49,0,0.87,0.12,1.14,0.37c0.28,0.24,0.42,0.58,0.43,1.01v1.95
		c0,0.39,0.05,0.7,0.15,0.93v0.06H184.47z M183.27,84.39c0.23,0,0.44-0.06,0.64-0.18s0.35-0.27,0.44-0.46v-0.87h-0.57
		c-0.89,0-1.33,0.26-1.33,0.78c0,0.23,0.08,0.4,0.23,0.53C182.84,84.33,183.04,84.39,183.27,84.39z"/>
	<path class="st3" d="M186.9,80.72l0.02,0.53c0.32-0.41,0.74-0.61,1.27-0.61c0.89,0,1.34,0.5,1.35,1.51v2.79h-0.72v-2.8
		c0-0.3-0.07-0.53-0.21-0.68c-0.14-0.15-0.35-0.22-0.64-0.22c-0.23,0-0.44,0.06-0.62,0.19c-0.18,0.12-0.32,0.29-0.41,0.49v3.01
		h-0.72v-4.23H186.9z"/>
	<path class="st3" d="M193.09,83.82c0-0.2-0.07-0.35-0.22-0.46c-0.15-0.11-0.4-0.2-0.77-0.28c-0.37-0.08-0.66-0.17-0.87-0.28
		s-0.37-0.24-0.48-0.39c-0.1-0.15-0.15-0.33-0.15-0.54c0-0.35,0.15-0.64,0.44-0.88c0.29-0.24,0.67-0.36,1.12-0.36
		c0.48,0,0.87,0.12,1.17,0.37c0.3,0.25,0.45,0.56,0.45,0.95h-0.73c0-0.2-0.08-0.37-0.25-0.51c-0.17-0.14-0.38-0.21-0.63-0.21
		c-0.26,0-0.47,0.06-0.62,0.17c-0.15,0.12-0.22,0.26-0.22,0.45c0,0.17,0.07,0.31,0.21,0.39c0.14,0.09,0.39,0.17,0.75,0.25
		c0.36,0.08,0.65,0.18,0.88,0.29c0.22,0.11,0.39,0.25,0.5,0.4c0.11,0.16,0.16,0.35,0.16,0.58c0,0.38-0.15,0.68-0.45,0.91
		c-0.3,0.23-0.69,0.34-1.18,0.34c-0.34,0-0.64-0.06-0.9-0.18c-0.26-0.12-0.46-0.29-0.61-0.5c-0.15-0.21-0.22-0.45-0.22-0.7h0.72
		c0.01,0.24,0.11,0.43,0.29,0.58c0.18,0.14,0.42,0.21,0.72,0.21c0.27,0,0.49-0.05,0.66-0.17C193.01,84.15,193.09,84.01,193.09,83.82
		z"/>
	<path class="st3" d="M199.2,83.82c0-0.2-0.07-0.35-0.22-0.46c-0.15-0.11-0.4-0.2-0.77-0.28c-0.37-0.08-0.66-0.17-0.87-0.28
		s-0.37-0.24-0.48-0.39c-0.1-0.15-0.15-0.33-0.15-0.54c0-0.35,0.15-0.64,0.44-0.88c0.29-0.24,0.67-0.36,1.12-0.36
		c0.48,0,0.87,0.12,1.17,0.37c0.3,0.25,0.45,0.56,0.45,0.95h-0.73c0-0.2-0.08-0.37-0.25-0.51c-0.17-0.14-0.38-0.21-0.63-0.21
		c-0.26,0-0.47,0.06-0.62,0.17c-0.15,0.12-0.22,0.26-0.22,0.45c0,0.17,0.07,0.31,0.21,0.39c0.14,0.09,0.39,0.17,0.75,0.25
		c0.36,0.08,0.65,0.18,0.88,0.29c0.22,0.11,0.39,0.25,0.5,0.4c0.11,0.16,0.16,0.35,0.16,0.58c0,0.38-0.15,0.68-0.45,0.91
		c-0.3,0.23-0.69,0.34-1.18,0.34c-0.34,0-0.64-0.06-0.9-0.18c-0.26-0.12-0.46-0.29-0.61-0.5c-0.15-0.21-0.22-0.45-0.22-0.7h0.72
		c0.01,0.24,0.11,0.43,0.29,0.58c0.18,0.14,0.42,0.21,0.72,0.21c0.27,0,0.49-0.05,0.66-0.17C199.11,84.15,199.2,84.01,199.2,83.82z"
		/>
	<path class="st3" d="M201.84,79.69v1.02h0.79v0.56h-0.79v2.62c0,0.17,0.04,0.3,0.11,0.38s0.19,0.13,0.36,0.13
		c0.08,0,0.2-0.02,0.34-0.05v0.58c-0.19,0.05-0.38,0.08-0.55,0.08c-0.32,0-0.57-0.1-0.73-0.29s-0.25-0.47-0.25-0.83v-2.62h-0.77
		v-0.56h0.77v-1.02H201.84z"/>
	<path class="st3" d="M206.08,84.94c-0.04-0.08-0.08-0.23-0.1-0.45c-0.34,0.35-0.74,0.52-1.2,0.52c-0.42,0-0.76-0.12-1.03-0.35
		c-0.27-0.24-0.4-0.53-0.4-0.9c0-0.44,0.17-0.78,0.5-1.03c0.33-0.24,0.8-0.37,1.41-0.37h0.7v-0.33c0-0.25-0.08-0.45-0.23-0.6
		c-0.15-0.15-0.37-0.22-0.67-0.22c-0.26,0-0.47,0.07-0.65,0.2c-0.17,0.13-0.26,0.29-0.26,0.47h-0.73c0-0.21,0.07-0.41,0.22-0.61
		c0.15-0.2,0.35-0.35,0.61-0.47c0.26-0.11,0.54-0.17,0.85-0.17c0.49,0,0.87,0.12,1.14,0.37c0.28,0.24,0.42,0.58,0.43,1.01v1.95
		c0,0.39,0.05,0.7,0.15,0.93v0.06H206.08z M204.88,84.39c0.23,0,0.44-0.06,0.64-0.18s0.35-0.27,0.44-0.46v-0.87h-0.57
		c-0.89,0-1.33,0.26-1.33,0.78c0,0.23,0.08,0.4,0.23,0.53C204.45,84.33,204.65,84.39,204.88,84.39z"/>
	<path class="st3" d="M209.87,81.36c-0.11-0.02-0.23-0.03-0.36-0.03c-0.47,0-0.8,0.2-0.96,0.61v3h-0.72v-4.23h0.7l0.01,0.49
		c0.24-0.38,0.57-0.57,1.01-0.57c0.14,0,0.25,0.02,0.32,0.05V81.36z"/>
	<path class="st3" d="M211.71,79.69v1.02h0.79v0.56h-0.79v2.62c0,0.17,0.04,0.3,0.11,0.38s0.19,0.13,0.36,0.13
		c0.08,0,0.2-0.02,0.34-0.05v0.58c-0.19,0.05-0.38,0.08-0.55,0.08c-0.32,0-0.57-0.1-0.73-0.29s-0.25-0.47-0.25-0.83v-2.62h-0.77
		v-0.56h0.77v-1.02H211.71z"/>
	<path class="st3" d="M213.34,79.59c0-0.12,0.04-0.22,0.11-0.3c0.07-0.08,0.18-0.12,0.32-0.12s0.25,0.04,0.32,0.12
		c0.07,0.08,0.11,0.18,0.11,0.3s-0.04,0.21-0.11,0.29c-0.07,0.08-0.18,0.12-0.32,0.12s-0.25-0.04-0.32-0.12
		C213.38,79.81,213.34,79.71,213.34,79.59z M214.12,84.94h-0.72v-4.23h0.72V84.94z"/>
	<path class="st3" d="M215.96,80.72l0.02,0.53c0.32-0.41,0.74-0.61,1.27-0.61c0.89,0,1.34,0.5,1.35,1.51v2.79h-0.72v-2.8
		c0-0.3-0.07-0.53-0.21-0.68c-0.14-0.15-0.35-0.22-0.64-0.22c-0.23,0-0.44,0.06-0.62,0.19c-0.18,0.12-0.32,0.29-0.41,0.49v3.01
		h-0.72v-4.23H215.96z"/>
	<path class="st3" d="M219.52,82.79c0-0.66,0.15-1.18,0.46-1.57c0.3-0.39,0.71-0.58,1.21-0.58c0.52,0,0.92,0.18,1.21,0.55l0.04-0.47
		h0.66v4.12c0,0.55-0.16,0.98-0.49,1.29c-0.32,0.32-0.76,0.47-1.31,0.47c-0.3,0-0.6-0.06-0.89-0.2c-0.29-0.13-0.51-0.31-0.67-0.54
		l0.38-0.43c0.31,0.38,0.69,0.57,1.14,0.57c0.35,0,0.62-0.1,0.82-0.3c0.2-0.2,0.29-0.48,0.29-0.84v-0.36
		c-0.29,0.33-0.68,0.5-1.18,0.5c-0.5,0-0.9-0.2-1.2-0.6C219.68,84.02,219.52,83.48,219.52,82.79z M220.25,82.88
		c0,0.48,0.1,0.85,0.29,1.12c0.2,0.27,0.47,0.41,0.82,0.41c0.46,0,0.79-0.21,1-0.62v-1.93c-0.22-0.4-0.55-0.61-1-0.61
		c-0.35,0-0.63,0.14-0.82,0.41C220.35,81.93,220.25,82.34,220.25,82.88z"/>
	<path class="st3" d="M228.77,84.94c-0.04-0.08-0.08-0.23-0.1-0.45c-0.34,0.35-0.74,0.52-1.2,0.52c-0.42,0-0.76-0.12-1.03-0.35
		c-0.27-0.24-0.4-0.53-0.4-0.9c0-0.44,0.17-0.78,0.5-1.03c0.33-0.24,0.8-0.37,1.41-0.37h0.7v-0.33c0-0.25-0.08-0.45-0.23-0.6
		c-0.15-0.15-0.37-0.22-0.67-0.22c-0.26,0-0.47,0.07-0.65,0.2c-0.17,0.13-0.26,0.29-0.26,0.47h-0.73c0-0.21,0.07-0.41,0.22-0.61
		c0.15-0.2,0.35-0.35,0.61-0.47c0.26-0.11,0.54-0.17,0.85-0.17c0.49,0,0.87,0.12,1.14,0.37c0.28,0.24,0.42,0.58,0.43,1.01v1.95
		c0,0.39,0.05,0.7,0.15,0.93v0.06H228.77z M227.57,84.39c0.23,0,0.44-0.06,0.64-0.18s0.35-0.27,0.44-0.46v-0.87h-0.57
		c-0.89,0-1.33,0.26-1.33,0.78c0,0.23,0.08,0.4,0.23,0.53C227.14,84.33,227.34,84.39,227.57,84.39z"/>
	<path class="st3" d="M231.5,79.69v1.02h0.79v0.56h-0.79v2.62c0,0.17,0.04,0.3,0.11,0.38s0.19,0.13,0.36,0.13
		c0.08,0,0.2-0.02,0.34-0.05v0.58c-0.19,0.05-0.38,0.08-0.55,0.08c-0.32,0-0.57-0.1-0.73-0.29s-0.25-0.47-0.25-0.83v-2.62H230v-0.56
		h0.77v-1.02H231.5z"/>
	<path class="st3" d="M237.65,83.45c0-0.21-0.06-0.38-0.18-0.51c-0.12-0.13-0.32-0.24-0.6-0.35c-0.28-0.11-0.53-0.21-0.73-0.32
		c-0.21-0.11-0.38-0.23-0.53-0.36c-0.15-0.14-0.26-0.3-0.34-0.48c-0.08-0.18-0.12-0.4-0.12-0.66c0-0.44,0.14-0.8,0.42-1.08
		s0.65-0.45,1.12-0.49v-0.84h0.62v0.85c0.46,0.07,0.82,0.26,1.08,0.58c0.26,0.32,0.39,0.73,0.39,1.24h-1.13
		c0-0.31-0.06-0.55-0.19-0.7c-0.13-0.15-0.3-0.23-0.52-0.23c-0.21,0-0.38,0.06-0.5,0.18s-0.18,0.29-0.18,0.5
		c0,0.2,0.06,0.36,0.17,0.48c0.11,0.12,0.33,0.24,0.64,0.37c0.31,0.12,0.57,0.24,0.77,0.35c0.2,0.11,0.37,0.24,0.51,0.38
		c0.14,0.14,0.24,0.3,0.32,0.48c0.07,0.18,0.11,0.39,0.11,0.62c0,0.44-0.14,0.8-0.41,1.08c-0.28,0.28-0.66,0.44-1.14,0.49v0.78
		h-0.62v-0.77c-0.53-0.06-0.95-0.25-1.24-0.57c-0.29-0.32-0.44-0.75-0.44-1.28h1.13c0,0.31,0.07,0.55,0.22,0.71
		c0.15,0.17,0.36,0.25,0.63,0.25c0.23,0,0.41-0.06,0.54-0.18S237.65,83.65,237.65,83.45z"/>
	<path class="st3" d="M242.18,82.67c-0.29,0.29-0.64,0.43-1.03,0.43c-0.5,0-0.91-0.17-1.21-0.52c-0.3-0.34-0.45-0.81-0.45-1.4
		c0-0.37,0.08-0.71,0.24-1.03c0.16-0.31,0.39-0.55,0.68-0.73c0.29-0.17,0.62-0.26,0.98-0.26c0.38,0,0.71,0.09,1,0.28
		c0.29,0.19,0.52,0.46,0.68,0.81c0.16,0.35,0.24,0.75,0.25,1.21v0.42c0,0.95-0.24,1.69-0.71,2.23c-0.47,0.54-1.14,0.83-2,0.87
		l-0.28,0v-0.94l0.25,0C241.57,84.01,242.1,83.55,242.18,82.67z M241.43,82.24c0.18,0,0.34-0.05,0.47-0.14
		c0.13-0.09,0.23-0.21,0.3-0.34v-0.46c0-0.38-0.07-0.68-0.22-0.89c-0.15-0.21-0.34-0.32-0.59-0.32c-0.23,0-0.41,0.1-0.56,0.31
		c-0.15,0.21-0.22,0.47-0.22,0.78c0,0.31,0.07,0.56,0.21,0.76C240.97,82.14,241.17,82.24,241.43,82.24z"/>
	<path class="st3" d="M244.23,84.39c0-0.18,0.06-0.33,0.18-0.44c0.12-0.11,0.27-0.17,0.46-0.17c0.18,0,0.34,0.06,0.46,0.17
		c0.12,0.11,0.18,0.26,0.18,0.44c0,0.18-0.06,0.32-0.18,0.43c-0.12,0.11-0.27,0.17-0.46,0.17c-0.19,0-0.34-0.05-0.46-0.17
		C244.29,84.71,244.23,84.57,244.23,84.39z"/>
	<path class="st3" d="M249.09,82.67c-0.29,0.29-0.64,0.43-1.03,0.43c-0.5,0-0.91-0.17-1.21-0.52c-0.3-0.34-0.45-0.81-0.45-1.4
		c0-0.37,0.08-0.71,0.24-1.03c0.16-0.31,0.39-0.55,0.68-0.73c0.29-0.17,0.62-0.26,0.98-0.26c0.38,0,0.71,0.09,1,0.28
		c0.29,0.19,0.52,0.46,0.68,0.81c0.16,0.35,0.24,0.75,0.25,1.21v0.42c0,0.95-0.24,1.69-0.71,2.23c-0.47,0.54-1.14,0.83-2,0.87
		l-0.28,0v-0.94l0.25,0C248.48,84.01,249.01,83.55,249.09,82.67z M248.34,82.24c0.18,0,0.34-0.05,0.47-0.14
		c0.13-0.09,0.23-0.21,0.3-0.34v-0.46c0-0.38-0.07-0.68-0.22-0.89c-0.15-0.21-0.34-0.32-0.59-0.32c-0.23,0-0.41,0.1-0.56,0.31
		c-0.15,0.21-0.22,0.47-0.22,0.78c0,0.31,0.07,0.56,0.21,0.76C247.88,82.14,248.08,82.24,248.34,82.24z"/>
	<path class="st3" d="M253.68,82.67c-0.29,0.29-0.64,0.43-1.03,0.43c-0.5,0-0.91-0.17-1.21-0.52c-0.3-0.34-0.45-0.81-0.45-1.4
		c0-0.37,0.08-0.71,0.24-1.03c0.16-0.31,0.39-0.55,0.68-0.73c0.29-0.17,0.62-0.26,0.98-0.26c0.38,0,0.71,0.09,1,0.28
		c0.29,0.19,0.52,0.46,0.68,0.81c0.16,0.35,0.24,0.75,0.25,1.21v0.42c0,0.95-0.24,1.69-0.71,2.23c-0.47,0.54-1.14,0.83-2,0.87
		l-0.28,0v-0.94l0.25,0C253.07,84.01,253.6,83.55,253.68,82.67z M252.93,82.24c0.18,0,0.34-0.05,0.47-0.14
		c0.13-0.09,0.23-0.21,0.3-0.34v-0.46c0-0.38-0.07-0.68-0.22-0.89c-0.15-0.21-0.34-0.32-0.59-0.32c-0.23,0-0.41,0.1-0.56,0.31
		c-0.15,0.21-0.22,0.47-0.22,0.78c0,0.31,0.07,0.56,0.21,0.76C252.47,82.14,252.67,82.24,252.93,82.24z"/>
	<path class="st3" d="M256.04,85.43h-0.84l2.09-6.18h0.84L256.04,85.43z"/>
	<path class="st3" d="M259.73,80.72l0.04,0.47c0.3-0.37,0.7-0.55,1.21-0.55c0.54,0,0.92,0.21,1.12,0.64
		c0.3-0.43,0.72-0.64,1.27-0.64c0.46,0,0.8,0.13,1.02,0.4c0.22,0.27,0.34,0.67,0.34,1.21v2.7h-1.13v-2.7c0-0.24-0.05-0.41-0.14-0.53
		c-0.09-0.11-0.26-0.17-0.5-0.17c-0.34,0-0.57,0.16-0.7,0.48l0,2.9h-1.13v-2.69c0-0.24-0.05-0.42-0.14-0.53
		c-0.1-0.11-0.26-0.16-0.49-0.16c-0.32,0-0.55,0.13-0.7,0.4v2.99h-1.13v-4.23H259.73z"/>
	<path class="st3" d="M265.42,82.79c0-0.42,0.08-0.79,0.24-1.12c0.16-0.33,0.39-0.58,0.7-0.76c0.3-0.18,0.66-0.27,1.06-0.27
		c0.57,0,1.04,0.17,1.4,0.52c0.36,0.35,0.56,0.82,0.6,1.42l0.01,0.29c0,0.65-0.18,1.17-0.54,1.56c-0.36,0.39-0.85,0.59-1.46,0.59
		s-1.1-0.2-1.46-0.59s-0.54-0.92-0.54-1.59V82.79z M266.55,82.87c0,0.4,0.08,0.71,0.23,0.92c0.15,0.21,0.37,0.32,0.65,0.32
		c0.27,0,0.49-0.1,0.64-0.31c0.15-0.21,0.23-0.55,0.23-1.01c0-0.39-0.08-0.7-0.23-0.92c-0.15-0.22-0.37-0.33-0.65-0.33
		c-0.28,0-0.49,0.11-0.64,0.32C266.62,82.09,266.55,82.42,266.55,82.87z"/>
	<path class="st3" d="M271.16,80.72l0.04,0.49c0.3-0.38,0.71-0.57,1.21-0.57c0.45,0,0.78,0.13,1,0.39c0.22,0.26,0.33,0.66,0.34,1.18
		v2.73h-1.13v-2.7c0-0.24-0.05-0.41-0.16-0.52c-0.1-0.11-0.28-0.16-0.52-0.16c-0.32,0-0.56,0.14-0.71,0.41v2.98h-1.13v-4.23H271.16z
		"/>
	<path class="st3" d="M275.95,79.68v1.04h0.72v0.83h-0.72v2.11c0,0.16,0.03,0.27,0.09,0.34c0.06,0.07,0.17,0.1,0.34,0.1
		c0.12,0,0.24-0.01,0.33-0.03v0.86c-0.22,0.07-0.45,0.1-0.68,0.1c-0.79,0-1.2-0.4-1.21-1.2v-2.28h-0.62v-0.83h0.62v-1.04H275.95z"/>
	<path class="st3" d="M278.4,81.18c0.3-0.36,0.68-0.54,1.13-0.54c0.92,0,1.38,0.53,1.39,1.6v2.71h-1.13v-2.68
		c0-0.24-0.05-0.42-0.16-0.54c-0.1-0.12-0.28-0.17-0.52-0.17c-0.33,0-0.57,0.13-0.72,0.38v3h-1.13v-6h1.13V81.18z"/>
</g>
</svg>
