<svg id="Layer_1" xmlns="http://www.w3.org/2000/svg" viewBox="0 0 300 250"><style>.st0{fill:#021d8b}</style><path class="st0" d="M128.28 83.46c-.41.59-.98 1.03-1.71 1.32-.73.29-1.59.44-2.56.44-.98 0-1.86-.23-2.62-.69s-1.35-1.12-1.77-1.97c-.42-.85-.63-1.84-.64-2.96v-1.05c0-1.82.42-3.23 1.27-4.23.85-1 2.04-1.5 3.58-1.5 1.26 0 2.28.32 3.05.97.77.65 1.24 1.56 1.41 2.74h-1.59c-.3-1.61-1.25-2.41-2.86-2.41-1.07 0-1.88.38-2.43 1.13-.55.75-.83 1.84-.83 3.26v.99c0 1.36.31 2.44.93 3.24.62.8 1.46 1.2 2.52 1.2.6 0 1.12-.07 1.57-.2s.82-.36 1.11-.67v-2.71h-2.8v-1.3h4.38v4.4zM134.43 85.21c-1.22 0-2.21-.4-2.97-1.2s-1.15-1.87-1.15-3.21v-.28c0-.89.17-1.69.51-2.39.34-.7.82-1.25 1.43-1.64.61-.4 1.27-.59 1.99-.59 1.17 0 2.08.38 2.72 1.15.65.77.97 1.87.97 3.3v.64h-6.08c.02.89.28 1.6.78 2.15.5.54 1.12.82 1.89.82.54 0 1-.11 1.38-.33.38-.22.71-.51.99-.88l.94.73c-.77 1.15-1.9 1.73-3.4 1.73zm-.2-8.05c-.62 0-1.14.23-1.56.68s-.68 1.08-.78 1.9h4.5v-.12c-.04-.78-.25-1.38-.63-1.81s-.88-.65-1.53-.65zM141.79 73.89v2.17h1.68v1.19h-1.68v5.58c0 .36.07.63.22.81s.4.27.76.27c.18 0 .42-.03.73-.1v1.24c-.4.11-.8.17-1.18.17-.69 0-1.2-.21-1.55-.62-.35-.41-.52-1-.52-1.77v-5.57h-1.64v-1.19h1.64V73.9h1.54zM151.3 80.31v4.73h-1.59V72.96h4.46c1.32 0 2.36.34 3.11 1.01.75.68 1.12 1.57 1.12 2.68 0 1.17-.37 2.08-1.1 2.71s-1.78.95-3.15.95h-2.85zm0-1.3h2.86c.85 0 1.51-.2 1.96-.6.45-.4.68-.98.68-1.74 0-.72-.23-1.3-.68-1.73-.45-.43-1.08-.66-1.87-.67h-2.96v4.74zM164.53 77.44a4.42 4.42 0 0 0-.76-.06c-1.01 0-1.69.43-2.05 1.29v6.38h-1.54v-8.98h1.49l.03 1.04c.5-.8 1.22-1.2 2.14-1.2.3 0 .53.04.68.12v1.41zM165.95 73.68c0-.25.08-.46.23-.63s.38-.26.68-.26.53.09.68.26c.15.17.23.38.23.63s-.08.46-.23.62c-.16.17-.38.25-.68.25s-.52-.08-.68-.25-.23-.37-.23-.62zm1.66 11.37h-1.54v-8.98h1.54v8.98zM173.03 82.96l2.22-6.9h1.57l-3.22 8.98h-1.17l-3.25-8.98h1.57l2.28 6.9zM183.72 85.05c-.09-.18-.16-.49-.22-.95-.71.74-1.57 1.11-2.56 1.11-.89 0-1.61-.25-2.18-.75-.57-.5-.85-1.14-.85-1.91 0-.94.36-1.66 1.07-2.18.71-.52 1.71-.78 3-.78h1.49v-.69c0-.54-.16-.96-.48-1.28-.32-.32-.79-.48-1.42-.48-.55 0-1.01.14-1.38.41-.37.28-.56.61-.56 1h-1.54c0-.45.16-.88.48-1.3s.75-.75 1.29-.99 1.14-.37 1.8-.37c1.04 0 1.85.26 2.43.78.59.52.89 1.23.91 2.14v4.13c0 .82.1 1.48.32 1.97v.13h-1.6zm-2.54-1.17c.48 0 .94-.12 1.37-.37s.74-.57.94-.97V80.7h-1.2c-1.88 0-2.82.55-2.82 1.65 0 .48.16.86.48 1.13.31.26.72.4 1.23.4zM191.03 83.96c.55 0 1.03-.17 1.44-.5.41-.33.64-.75.68-1.24h1.45c-.03.51-.21 1-.53 1.47-.33.46-.76.84-1.31 1.11s-1.12.42-1.73.42c-1.22 0-2.2-.41-2.92-1.22-.72-.82-1.08-1.93-1.08-3.35v-.26c0-.87.16-1.65.48-2.33.32-.68.78-1.21 1.38-1.58s1.31-.56 2.13-.56c1.01 0 1.84.3 2.51.91.67.6 1.02 1.39 1.07 2.35h-1.45c-.04-.58-.26-1.06-.66-1.43-.4-.37-.88-.56-1.47-.56-.78 0-1.38.28-1.81.84s-.64 1.37-.64 2.44v.29c0 1.04.21 1.83.64 2.39.42.53 1.03.81 1.82.81zM199.26 82.8l2.09-6.73H203l-3.61 10.37c-.56 1.49-1.45 2.24-2.66 2.24l-.29-.02-.57-.11V87.3l.42.03c.52 0 .93-.11 1.22-.32.29-.21.53-.59.72-1.15l.34-.91-3.2-8.88h1.68l2.21 6.73zM213.53 83.46c-.41.59-.98 1.03-1.71 1.32-.73.29-1.59.44-2.56.44-.99 0-1.86-.23-2.62-.69s-1.35-1.12-1.77-1.97c-.42-.85-.63-1.84-.64-2.96v-1.05c0-1.82.42-3.23 1.27-4.23s2.04-1.5 3.58-1.5c1.26 0 2.28.32 3.05.97.77.65 1.24 1.56 1.41 2.74h-1.59c-.3-1.61-1.25-2.41-2.86-2.41-1.07 0-1.88.38-2.43 1.13-.55.75-.83 1.84-.83 3.26v.99c0 1.36.31 2.44.93 3.24.62.8 1.46 1.2 2.51 1.2.6 0 1.12-.07 1.57-.2s.82-.36 1.11-.67v-2.71h-2.8v-1.3h4.38v4.4zM221.49 84.16c-.6.7-1.47 1.05-2.63 1.05-.96 0-1.69-.28-2.19-.83-.5-.56-.75-1.38-.76-2.47v-5.84h1.54v5.8c0 1.36.55 2.04 1.66 2.04 1.17 0 1.96-.44 2.34-1.31v-6.53h1.54v8.98h-1.46l-.04-.89zM230.86 85.05c-.09-.18-.16-.49-.22-.95-.71.74-1.57 1.11-2.56 1.11-.89 0-1.61-.25-2.18-.75s-.85-1.14-.85-1.91c0-.94.36-1.66 1.07-2.18s1.71-.78 3-.78h1.49v-.69c0-.54-.16-.96-.48-1.28-.32-.32-.79-.48-1.42-.48-.55 0-1.01.14-1.38.41-.37.28-.56.61-.56 1h-1.54c0-.45.16-.88.48-1.3s.75-.75 1.29-.99 1.14-.37 1.8-.37c1.04 0 1.85.26 2.43.78s.89 1.23.91 2.14v4.13c0 .82.11 1.48.32 1.97v.13h-1.6zm-2.55-1.17c.48 0 .94-.12 1.37-.37s.74-.57.94-.97V80.7h-1.2c-1.88 0-2.82.55-2.82 1.65 0 .48.16.86.48 1.13s.73.4 1.23.4zM238.91 77.44a4.42 4.42 0 0 0-.76-.06c-1.01 0-1.69.43-2.05 1.29v6.38h-1.54v-8.98h1.49l.03 1.04c.5-.8 1.22-1.2 2.14-1.2.3 0 .53.04.68.12v1.41zM239.95 80.48c0-1.38.33-2.49.98-3.32.65-.84 1.51-1.26 2.57-1.26 1.05 0 1.88.36 2.5 1.08V72.3h1.54v12.75h-1.41l-.08-.96c-.61.75-1.47 1.13-2.56 1.13-1.04 0-1.89-.43-2.54-1.28-.66-.85-.98-1.96-.98-3.34v-.12zm1.53.17c0 1.02.21 1.81.63 2.39.42.58 1 .86 1.74.86.97 0 1.68-.44 2.13-1.31v-4.12c-.46-.85-1.17-1.27-2.12-1.27-.75 0-1.34.29-1.76.87s-.62 1.44-.62 2.58zM262.07 82.93l1.73-6.86h1.54l-2.62 8.98h-1.25l-2.18-6.81-2.12 6.81h-1.25l-2.61-8.98h1.53l1.77 6.72 2.09-6.72h1.24l2.13 6.86zM266.9 73.68c0-.25.08-.46.23-.63s.38-.26.68-.26.53.09.68.26.23.38.23.63-.08.46-.23.62-.38.25-.68.25-.52-.08-.68-.25-.23-.37-.23-.62zm1.66 11.37h-1.54v-8.98h1.54v8.98zM273.1 73.89v2.17h1.68v1.19h-1.68v5.58c0 .36.07.63.22.81s.4.27.76.27c.18 0 .42-.03.73-.1v1.24c-.4.11-.8.17-1.18.17-.69 0-1.2-.21-1.55-.62-.35-.41-.52-1-.52-1.77v-5.57h-1.64v-1.19h1.64V73.9h1.54zM278.1 77.15c.68-.83 1.57-1.25 2.66-1.25 1.9 0 2.86 1.07 2.87 3.21v5.94h-1.54V79.1c-.01-.65-.15-1.13-.44-1.44-.29-.31-.74-.46-1.36-.46-.5 0-.93.13-1.31.4s-.67.61-.88 1.04v6.4h-1.54V72.3h1.54v4.85zM121.13 96.46l.07 1c.64-.78 1.5-1.17 2.58-1.17 1.16 0 1.95.46 2.38 1.37.63-.91 1.53-1.37 2.7-1.37.97 0 1.7.28 2.17.85s.71 1.42.71 2.56v5.74h-2.41v-5.73c0-.51-.1-.88-.3-1.12s-.55-.35-1.05-.35c-.72 0-1.22.34-1.49 1.03l.01 6.17h-2.4v-5.72c0-.52-.1-.9-.31-1.13s-.55-.35-1.05-.35c-.68 0-1.17.28-1.48.85v6.35h-2.4v-8.98h2.27zM133.22 100.87c0-.89.17-1.68.51-2.38s.84-1.24 1.48-1.62c.65-.38 1.39-.57 2.25-.57 1.21 0 2.2.37 2.97 1.11.77.74 1.19 1.75 1.28 3.02l.02.61c0 1.38-.38 2.48-1.15 3.32s-1.8 1.25-3.1 1.25-2.33-.42-3.1-1.25c-.77-.83-1.16-1.96-1.16-3.39v-.1zm2.4.17c0 .85.16 1.51.48 1.96.32.45.78.68 1.38.68.58 0 1.03-.22 1.36-.67s.49-1.16.49-2.14c0-.84-.16-1.49-.49-1.95s-.79-.69-1.38-.69c-.59 0-1.04.23-1.36.69s-.48 1.16-.48 2.12zM145.42 96.46l.07 1.04c.64-.8 1.5-1.2 2.58-1.2.95 0 1.66.28 2.12.84.46.56.7 1.39.71 2.51v5.8h-2.4V99.7c0-.51-.11-.88-.33-1.11s-.59-.34-1.1-.34c-.68 0-1.18.29-1.52.86v6.33h-2.4v-8.98h2.27zM155.6 94.26v2.21h1.54v1.76h-1.54v4.48c0 .33.06.57.19.71s.37.22.73.22c.27 0 .5-.02.71-.06v1.82c-.47.14-.96.22-1.45.22-1.68 0-2.54-.85-2.57-2.55v-4.84h-1.31v-1.76h1.31v-2.21h2.39zM160.81 97.44c.64-.76 1.44-1.15 2.4-1.15 1.95 0 2.94 1.13 2.96 3.4v5.75h-2.4v-5.69c0-.52-.11-.9-.33-1.14-.22-.25-.59-.37-1.1-.37-.7 0-1.21.27-1.53.81v6.38h-2.4V92.7h2.4v4.74zM170.52 105.45h-2.41V92.7h2.41v12.75zM175.85 102.05l1.66-5.59h2.57l-3.61 10.38-.2.47c-.54 1.17-1.42 1.76-2.66 1.76-.35 0-.7-.05-1.06-.16v-1.82l.37.01c.45 0 .79-.07 1.02-.21.22-.14.4-.37.53-.69l.28-.74-3.15-9.01h2.58l1.67 5.6zM188.13 94.26v2.21h1.54v1.76h-1.54v4.48c0 .33.06.57.19.71s.37.22.73.22c.27 0 .5-.02.71-.06v1.82c-.47.14-.95.22-1.45.22-1.68 0-2.54-.85-2.57-2.55v-4.84h-1.31v-1.76h1.31v-2.21h2.39zM196.05 98.71c-.33-.04-.61-.07-.86-.07-.91 0-1.5.31-1.78.92v5.88H191v-8.98h2.27l.07 1.07c.48-.83 1.15-1.24 2-1.24.27 0 .51.04.75.11l-.04 2.31zM197.19 94.14c0-.36.12-.66.36-.89.24-.23.57-.35.98-.35.41 0 .74.12.98.35.24.23.37.53.37.89 0 .37-.12.66-.37.9-.25.23-.57.35-.97.35s-.73-.12-.98-.35-.37-.53-.37-.9zm2.55 11.31h-2.41v-8.98h2.41v8.98zM209.8 101.04c0 1.38-.31 2.49-.94 3.33-.63.83-1.48 1.25-2.54 1.25-.91 0-1.64-.32-2.2-.95v4.23h-2.4V96.46h2.22l.08.88c.58-.7 1.34-1.05 2.27-1.05 1.11 0 1.97.41 2.58 1.23s.92 1.95.92 3.39v.13zm-2.4-.18c0-.84-.15-1.48-.44-1.93-.3-.45-.73-.68-1.29-.68-.75 0-1.27.29-1.55.86v3.68c.29.59.82.89 1.57.89 1.14 0 1.71-.94 1.71-2.82zM213.81 105.45h-2.41V92.7h2.41v12.75zM219.92 105.61c-1.32 0-2.39-.4-3.22-1.21-.83-.81-1.24-1.88-1.24-3.23v-.23c0-.9.17-1.71.52-2.42s.84-1.26 1.48-1.64c.64-.38 1.37-.58 2.19-.58 1.23 0 2.2.39 2.9 1.16.71.77 1.06 1.87 1.06 3.3v.98h-5.72c.08.59.31 1.06.7 1.41.39.35.88.53 1.48.53.92 0 1.65-.33 2.17-1l1.18 1.32c-.36.51-.85.91-1.46 1.19-.61.28-1.29.42-2.04.42zm-.27-7.38c-.48 0-.86.16-1.16.48-.3.32-.49.78-.57 1.38h3.34v-.19c-.01-.53-.15-.95-.43-1.24-.28-.28-.67-.43-1.18-.43zM126.97 121.44c0 1.44-.31 2.56-.92 3.37-.61.81-1.47 1.21-2.57 1.21-.97 0-1.75-.37-2.33-1.12l-.11.96h-2.16V113.1h2.4v4.57c.55-.65 1.28-.97 2.18-.97 1.1 0 1.95.4 2.58 1.21.62.8.93 1.94.93 3.4v.13zm-2.4-.18c0-.91-.14-1.57-.43-1.99s-.72-.63-1.29-.63c-.76 0-1.29.31-1.58.94v3.54c.29.63.82.95 1.59.95.77 0 1.28-.38 1.53-1.15.12-.35.18-.91.18-1.66zM133.83 124.93c-.59.72-1.41 1.08-2.46 1.08-.96 0-1.7-.28-2.2-.83-.51-.55-.77-1.36-.78-2.43v-5.89h2.4v5.81c0 .94.43 1.41 1.28 1.41.81 0 1.37-.28 1.68-.85v-6.37h2.41v8.98h-2.26l-.07-.91zM143.01 119.11c-.33-.04-.61-.07-.86-.07-.91 0-1.5.31-1.78.92v5.88h-2.4v-8.98h2.27l.07 1.07c.48-.83 1.15-1.24 2-1.24.27 0 .51.04.75.11l-.05 2.31zM148.3 126.01c-1.32 0-2.39-.4-3.22-1.21-.83-.81-1.24-1.88-1.24-3.23v-.23c0-.9.17-1.71.52-2.42s.84-1.26 1.48-1.64c.64-.38 1.37-.58 2.19-.58 1.23 0 2.2.39 2.9 1.16.71.77 1.06 1.87 1.06 3.3v.98h-5.72c.08.59.31 1.06.7 1.41.39.35.88.53 1.48.53.92 0 1.65-.33 2.17-1l1.18 1.32c-.36.51-.85.91-1.46 1.19s-1.3.42-2.04.42zm-.28-7.38c-.48 0-.86.16-1.16.48-.3.32-.49.78-.57 1.38h3.34v-.19c-.01-.53-.15-.95-.43-1.24s-.67-.43-1.18-.43zM158.56 125.85a2.7 2.7 0 0 1-.24-.8c-.58.65-1.34.97-2.27.97-.88 0-1.61-.25-2.19-.76s-.87-1.15-.87-1.93c0-.95.35-1.68 1.06-2.19.71-.51 1.72-.77 3.06-.77h1.1v-.52c0-.41-.11-.75-.32-1-.21-.25-.55-.37-1.01-.37-.4 0-.72.1-.95.29-.23.19-.34.46-.34.8h-2.4c0-.52.16-1 .48-1.45.32-.44.77-.79 1.36-1.04.59-.25 1.25-.38 1.98-.38 1.11 0 1.99.28 2.64.83.65.56.97 1.34.97 2.34v3.89c.01.85.12 1.5.36 1.93v.14h-2.42zm-1.99-1.67c.35 0 .68-.08.98-.24.3-.16.52-.37.66-.63v-1.54h-.9c-1.2 0-1.84.42-1.92 1.25l-.01.14c0 .3.11.54.32.74.22.18.51.28.87.28zM167.84 124.93c-.59.72-1.41 1.08-2.46 1.08-.96 0-1.7-.28-2.2-.83-.51-.55-.77-1.36-.78-2.43v-5.89h2.4v5.81c0 .94.43 1.41 1.28 1.41.81 0 1.37-.28 1.68-.85v-6.37h2.41v8.98h-2.26l-.07-.91zM179.95 124.08c.44 0 .8-.12 1.08-.37.28-.24.42-.57.43-.97h2.25a3.06 3.06 0 0 1-.5 1.67c-.33.51-.77.9-1.34 1.18s-1.19.42-1.88.42c-1.28 0-2.3-.41-3.04-1.22-.74-.82-1.11-1.94-1.11-3.38v-.16c0-1.38.37-2.49 1.1-3.31.74-.83 1.75-1.24 3.03-1.24 1.12 0 2.02.32 2.7.96.68.64 1.02 1.49 1.03 2.55h-2.25c-.01-.47-.15-.85-.43-1.14-.28-.29-.64-.44-1.1-.44-.56 0-.98.2-1.27.61s-.43 1.07-.43 1.98v.25c0 .93.14 1.59.42 2s.73.61 1.31.61zM190.12 119.11c-.33-.04-.61-.07-.86-.07-.91 0-1.5.31-1.78.92v5.88h-2.4v-8.98h2.27l.07 1.07c.48-.83 1.15-1.24 2-1.24.27 0 .51.04.75.11l-.05 2.31zM195.41 126.01c-1.32 0-2.39-.4-3.22-1.21s-1.24-1.88-1.24-3.23v-.23c0-.9.17-1.71.52-2.42s.84-1.26 1.48-1.64c.64-.38 1.37-.58 2.19-.58 1.23 0 2.2.39 2.9 1.16.71.77 1.06 1.87 1.06 3.3v.98h-5.72c.08.59.31 1.06.7 1.41.39.35.88.53 1.48.53.92 0 1.65-.33 2.17-1l1.18 1.32c-.36.51-.85.91-1.46 1.19s-1.29.42-2.04.42zm-.27-7.38c-.48 0-.86.16-1.16.48-.3.32-.49.78-.57 1.38h3.34v-.19c-.01-.53-.15-.95-.43-1.24-.28-.28-.67-.43-1.18-.43zM200.09 121.29c0-1.4.31-2.52.94-3.35.63-.83 1.49-1.25 2.58-1.25.87 0 1.6.33 2.17.98v-4.58h2.41v12.75h-2.17l-.12-.96c-.6.75-1.37 1.12-2.31 1.12-1.06 0-1.91-.42-2.54-1.25-.64-.82-.96-1.98-.96-3.46zm2.4.18c0 .84.15 1.49.44 1.94.29.45.72.67 1.28.67.74 0 1.26-.31 1.57-.94v-3.55c-.3-.63-.82-.94-1.55-.94-1.16 0-1.74.94-1.74 2.82zM210.03 114.54c0-.36.12-.66.36-.89.24-.23.57-.35.98-.35.41 0 .74.12.98.35.24.23.37.53.37.89 0 .37-.12.66-.37.9s-.57.35-.98.35c-.4 0-.73-.12-.97-.35-.25-.24-.37-.53-.37-.9zm2.55 11.31h-2.41v-8.98h2.41v8.98zM217.43 114.66v2.21h1.54v1.76h-1.54v4.48c0 .33.06.57.19.71s.37.22.73.22c.27 0 .5-.02.71-.06v1.82c-.47.14-.95.22-1.45.22-1.68 0-2.54-.85-2.57-2.55v-4.84h-1.31v-1.76h1.31v-2.21h2.39zM123.74 143.76c0-.29-.15-.52-.44-.69-.29-.17-.76-.32-1.4-.45-2.14-.45-3.2-1.36-3.2-2.72 0-.8.33-1.46.99-2 .66-.53 1.53-.8 2.59-.8 1.14 0 2.05.27 2.74.81.68.54 1.02 1.23 1.02 2.09h-2.4c0-.34-.11-.63-.33-.85-.22-.22-.57-.34-1.04-.34-.4 0-.72.09-.94.27-.22.18-.33.42-.33.7 0 .27.13.48.38.64.25.16.68.3 1.27.42s1.1.25 1.51.4c1.27.46 1.9 1.27 1.9 2.42 0 .82-.35 1.48-1.05 1.99-.7.51-1.61.76-2.72.76-.75 0-1.42-.13-2-.4-.58-.27-1.04-.64-1.37-1.1s-.5-.97-.5-1.51h2.27c.02.43.18.75.47.98s.69.34 1.18.34c.46 0 .81-.09 1.04-.26.24-.19.36-.41.36-.7zM131.35 144.48c.44 0 .8-.12 1.08-.37.28-.24.42-.57.43-.97h2.25a3.06 3.06 0 0 1-.5 1.67c-.33.51-.77.9-1.34 1.18-.57.28-1.19.42-1.88.42-1.28 0-2.3-.41-3.04-1.22s-1.11-1.94-1.11-3.38v-.16c0-1.38.37-2.49 1.1-3.31.74-.83 1.75-1.24 3.03-1.24 1.12 0 2.02.32 2.7.96.68.64 1.02 1.49 1.03 2.55h-2.25c-.01-.47-.15-.85-.43-1.14s-.64-.44-1.1-.44c-.56 0-.98.2-1.27.61-.28.41-.43 1.07-.43 1.98v.25c0 .93.14 1.59.42 2s.74.61 1.31.61zM136.11 141.67c0-.89.17-1.68.51-2.38s.84-1.24 1.48-1.62c.65-.38 1.39-.57 2.25-.57 1.21 0 2.2.37 2.97 1.11.77.74 1.19 1.75 1.28 3.02l.02.61c0 1.38-.38 2.48-1.15 3.32s-1.8 1.25-3.1 1.25-2.33-.42-3.1-1.25c-.77-.83-1.16-1.96-1.16-3.39v-.1zm2.4.17c0 .85.16 1.51.48 1.96.32.45.78.68 1.38.68.58 0 1.03-.22 1.36-.67s.49-1.16.49-2.14c0-.84-.16-1.49-.49-1.95s-.79-.69-1.38-.69c-.59 0-1.04.23-1.36.69s-.48 1.16-.48 2.12zM151.14 139.51c-.33-.04-.61-.07-.86-.07-.91 0-1.5.31-1.78.92v5.88h-2.4v-8.98h2.27l.07 1.07c.48-.83 1.15-1.24 2-1.24.27 0 .51.04.75.11l-.05 2.31zM156.43 146.41c-1.32 0-2.39-.4-3.22-1.21s-1.24-1.88-1.24-3.23v-.23c0-.9.17-1.71.52-2.42s.84-1.26 1.48-1.64c.64-.38 1.37-.58 2.19-.58 1.23 0 2.2.39 2.9 1.16.71.77 1.06 1.87 1.06 3.3v.98h-5.72c.08.59.31 1.06.7 1.41.39.35.88.53 1.48.53.92 0 1.65-.33 2.17-1l1.18 1.32c-.36.51-.85.91-1.46 1.19s-1.29.42-2.04.42zm-.27-7.38c-.48 0-.86.16-1.16.48-.3.32-.49.78-.57 1.38h3.34v-.19c-.01-.53-.15-.95-.43-1.24-.28-.28-.67-.43-1.18-.43zM166.35 143.76c0-.29-.14-.52-.44-.69-.29-.17-.76-.32-1.4-.45-2.14-.45-3.2-1.36-3.2-2.72 0-.8.33-1.46.99-2 .66-.53 1.53-.8 2.59-.8 1.14 0 2.05.27 2.74.81.68.54 1.02 1.23 1.02 2.09h-2.4c0-.34-.11-.63-.33-.85-.22-.22-.57-.34-1.04-.34-.4 0-.72.09-.94.27-.22.18-.33.42-.33.7 0 .27.13.48.38.64.25.16.68.3 1.27.42s1.1.25 1.51.4c1.27.46 1.9 1.27 1.9 2.42 0 .82-.35 1.48-1.05 1.99-.7.51-1.61.76-2.72.76-.75 0-1.42-.13-2-.4-.58-.27-1.04-.64-1.37-1.1s-.5-.97-.5-1.51h2.27c.02.43.18.75.47.98.29.23.69.34 1.18.34.46 0 .81-.09 1.04-.26.24-.19.36-.41.36-.7zM174.13 142.99c0-.56.16-1.08.47-1.55.31-.48.89-1 1.72-1.58-.36-.48-.64-.93-.85-1.36a2.91 2.91 0 0 1-.31-1.32c0-.94.3-1.71.89-2.3.59-.59 1.4-.88 2.4-.88.9 0 1.64.27 2.22.8.58.54.87 1.21.87 2.01 0 .96-.49 1.81-1.46 2.55l-.93.67 2.08 2.42c.33-.64.49-1.35.49-2.12h2.04c0 1.57-.36 2.84-1.09 3.82l1.81 2.1h-2.72l-.62-.71c-.89.59-1.92.88-3.07.88-1.2 0-2.15-.31-2.87-.94-.71-.64-1.07-1.47-1.07-2.49zm4.07 1.49c.58 0 1.12-.16 1.63-.48l-2.38-2.75-.17.12c-.49.42-.74.91-.74 1.48 0 .48.15.87.46 1.17.3.31.7.46 1.2.46zm-.88-7.34c0 .41.24.94.73 1.57l.64-.42c.33-.21.55-.41.68-.61.12-.2.19-.44.19-.71 0-.28-.1-.52-.31-.72-.21-.21-.47-.31-.79-.31-.34 0-.62.11-.83.33-.21.21-.31.5-.31.87zM194.9 139.51c-.33-.04-.61-.07-.86-.07-.91 0-1.5.31-1.79.92v5.88h-2.4v-8.98h2.27l.07 1.07c.48-.83 1.15-1.24 2-1.24.27 0 .51.04.75.11l-.04 2.31zM200.18 146.41c-1.32 0-2.39-.4-3.22-1.21-.83-.81-1.24-1.88-1.24-3.23v-.23c0-.9.17-1.71.52-2.42s.84-1.26 1.48-1.64c.64-.38 1.37-.58 2.19-.58 1.23 0 2.2.39 2.9 1.16.71.77 1.06 1.87 1.06 3.3v.98h-5.72c.08.59.31 1.06.7 1.41.39.35.88.53 1.48.53.92 0 1.65-.33 2.17-1l1.18 1.32c-.36.51-.85.91-1.46 1.19s-1.29.42-2.04.42zm-.27-7.38c-.48 0-.86.16-1.16.48s-.49.78-.57 1.38h3.34v-.19c-.01-.53-.16-.95-.43-1.24-.28-.28-.67-.43-1.18-.43zM213.33 141.84c0 1.38-.31 2.49-.94 3.33s-1.48 1.25-2.54 1.25c-.91 0-1.64-.32-2.2-.95v4.23h-2.4v-12.43h2.22l.08.88c.58-.7 1.34-1.05 2.27-1.05 1.11 0 1.97.41 2.58 1.23s.92 1.95.92 3.39v.12zm-2.4-.18c0-.84-.15-1.48-.44-1.93-.3-.45-.73-.68-1.29-.68-.75 0-1.27.29-1.55.86v3.68c.29.59.82.89 1.57.89 1.13 0 1.71-.94 1.71-2.82zM214.44 141.67c0-.89.17-1.68.51-2.38.34-.7.84-1.24 1.48-1.62.64-.38 1.39-.57 2.25-.57 1.21 0 2.2.37 2.97 1.11.77.74 1.19 1.75 1.28 3.02l.02.61c0 1.38-.38 2.48-1.15 3.32s-1.8 1.25-3.1 1.25-2.33-.42-3.1-1.25c-.77-.83-1.16-1.96-1.16-3.39v-.1zm2.4.17c0 .85.16 1.51.48 1.96.32.45.78.68 1.38.68.58 0 1.04-.22 1.36-.67s.49-1.16.49-2.14c0-.84-.16-1.49-.49-1.95s-.79-.69-1.38-.69c-.59 0-1.04.23-1.36.69-.32.45-.48 1.16-.48 2.12zM229.47 139.51c-.33-.04-.62-.07-.86-.07-.91 0-1.5.31-1.79.92v5.88h-2.4v-8.98h2.27l.07 1.07c.48-.83 1.15-1.24 2-1.24.27 0 .52.04.75.11l-.04 2.31zM233.91 135.06v2.21h1.54v1.76h-1.54v4.48c0 .33.06.57.19.71s.37.22.73.22c.27 0 .5-.02.71-.06v1.82c-.47.14-.95.22-1.45.22-1.68 0-2.54-.85-2.57-2.55v-4.84h-1.31v-1.76h1.31v-2.21h2.39zM241.65 143.76c0-.29-.14-.52-.44-.69-.29-.17-.76-.32-1.4-.45-2.14-.45-3.2-1.36-3.2-2.72 0-.8.33-1.46.99-2s1.53-.8 2.59-.8c1.14 0 2.05.27 2.74.81.68.54 1.03 1.23 1.03 2.09h-2.4c0-.34-.11-.63-.33-.85-.22-.22-.57-.34-1.04-.34-.4 0-.72.09-.94.27-.22.18-.33.42-.33.7 0 .27.13.48.38.64s.68.3 1.27.42 1.1.25 1.51.4c1.27.46 1.9 1.27 1.9 2.42 0 .82-.35 1.48-1.05 1.99-.7.51-1.61.76-2.72.76-.75 0-1.42-.13-2-.4s-1.04-.64-1.37-1.1-.5-.97-.5-1.51h2.27c.02.43.18.75.47.98.29.23.69.34 1.18.34.46 0 .81-.09 1.04-.26.23-.19.35-.41.35-.7z"/></svg>