<svg id="Layer_1" xmlns="http://www.w3.org/2000/svg" viewBox="0 0 300 600"><style>.st0{fill:#021d8b;stroke:url(#SVGID_1_);stroke-width:1.2697;stroke-miterlimit:10}.st1{fill:#fff}</style><linearGradient id="SVGID_1_" gradientUnits="userSpaceOnUse" x1="98.845" y1="337.428" x2="200.411" y2="337.428"><stop offset="0" stop-color="#18b9fb"/><stop offset=".5" stop-color="#782eeb"/><stop offset="1" stop-color="#e82d8a"/></linearGradient><path class="st0" d="M182.9 354.3h-66.6c-9.3 0-16.9-7.5-16.9-16.9 0-9.3 7.5-16.9 16.9-16.9h66.6c9.3 0 16.9 7.5 16.9 16.9 0 9.3-7.6 16.9-16.9 16.9z"/><path class="st1" d="M116.7 339.9h4.3v1.6h-6.4v-9.9h2v8.3zM125.5 341.7c-1.1 0-2-.3-2.6-1s-1-1.5-1-2.7v-.2c0-.7.1-1.4.4-2 .3-.6.7-1 1.2-1.3.5-.3 1.1-.5 1.8-.5 1 0 1.8.3 2.4 1s.9 1.5.9 2.7v.8h-4.7c.1.5.3.9.6 1.2s.7.4 1.2.4c.8 0 1.4-.3 1.8-.8l1 1.1c-.3.4-.7.7-1.2 1-.6.2-1.2.3-1.8.3zm-.2-6c-.4 0-.7.1-1 .4-.2.3-.4.6-.5 1.1h2.7v-.2c0-.4-.1-.8-.4-1-.1-.2-.4-.3-.8-.3zM134 341.6c-.1-.2-.2-.4-.2-.7-.5.5-1.1.8-1.9.8-.7 0-1.3-.2-1.8-.6-.5-.4-.7-.9-.7-1.6 0-.8.3-1.4.9-1.8.6-.4 1.4-.6 2.5-.6h.9v-.4c0-.3-.1-.6-.3-.8-.2-.2-.5-.3-.8-.3-.3 0-.6.1-.8.2-.2.2-.3.4-.3.7h-2c0-.4.1-.8.4-1.2.3-.4.6-.6 1.1-.9.5-.2 1-.3 1.6-.3.9 0 1.6.2 2.2.7s.8 1.1.8 1.9v3.2c0 .7.1 1.2.3 1.6v.1H134zm-1.7-1.4c.3 0 .6-.1.8-.2.2-.1.4-.3.5-.5v-1.3h-.7c-1 0-1.5.3-1.6 1v.1c0 .2.1.4.3.6s.4.3.7.3zM141.3 336c-.3 0-.5-.1-.7-.1-.7 0-1.2.3-1.5.8v4.8h-2v-7.4h1.9l.1.9c.4-.7.9-1 1.6-1 .2 0 .4 0 .6.1v1.9zM144.1 334.2l.1.9c.5-.7 1.2-1 2.1-1 .8 0 1.4.2 1.7.7s.6 1.1.6 2.1v4.8h-2V337c0-.4-.1-.7-.3-.9-.2-.2-.5-.3-.9-.3-.6 0-1 .2-1.2.7v5.2h-2v-7.4h1.9zM155.4 334.2l.1.8c.5-.6 1.2-1 2.1-1 1 0 1.6.4 2 1.1.5-.8 1.3-1.1 2.2-1.1.8 0 1.4.2 1.8.7.4.5.6 1.2.6 2.1v4.7h-2v-4.7c0-.4-.1-.7-.2-.9-.2-.2-.5-.3-.9-.3-.6 0-1 .3-1.2.8v5.1h-2v-4.7c0-.4-.1-.7-.3-.9-.2-.2-.5-.3-.9-.3-.6 0-1 .2-1.2.7v5.2h-2v-7.4h1.9zM165.4 337.8c0-.7.1-1.4.4-2 .3-.6.7-1 1.2-1.3.5-.3 1.1-.5 1.8-.5 1 0 1.8.3 2.4.9s1 1.4 1.1 2.5v.5c0 1.1-.3 2-.9 2.7-.6.7-1.5 1-2.5 1-1.1 0-1.9-.3-2.5-1-.7-.6-1-1.5-1-2.8zm1.9.2c0 .7.1 1.2.4 1.6s.6.6 1.1.6c.5 0 .9-.2 1.1-.5.3-.4.4-1 .4-1.8 0-.7-.1-1.2-.4-1.6-.3-.4-.6-.6-1.1-.6-.5 0-.9.2-1.1.6-.2.3-.4.9-.4 1.7zM177.7 336c-.3 0-.5-.1-.7-.1-.7 0-1.2.3-1.5.8v4.8h-2v-7.4h1.9l.1.9c.4-.7.9-1 1.6-1 .2 0 .4 0 .6.1v1.9zM182 341.7c-1.1 0-2-.3-2.6-1s-1-1.5-1-2.7v-.2c0-.7.1-1.4.4-2 .3-.6.7-1 1.2-1.3.5-.3 1.1-.5 1.8-.5 1 0 1.8.3 2.4 1s.9 1.5.9 2.7v.8h-4.7c.1.5.3.9.6 1.2s.7.4 1.2.4c.8 0 1.4-.3 1.8-.8l1 1.1c-.3.4-.7.7-1.2 1-.6.2-1.1.3-1.8.3zm-.2-6c-.4 0-.7.1-1 .4-.2.3-.4.6-.5 1.1h2.7v-.2c0-.4-.1-.8-.4-1 0-.2-.4-.3-.8-.3z"/></svg>