<svg id="Layer_1" xmlns="http://www.w3.org/2000/svg" xmlns:xlink="http://www.w3.org/1999/xlink" viewBox="0 0 300 600"><style>.st0{clip-path:url(#SVGID_00000149354910336602779270000005188677059689475759_)}.st1{clip-path:url(#SVGID_00000088126328757978572080000000766132264189513381_);fill:#fff}</style><g id="PG_x5F_Logo_x5F_W_00000004523146021379530360000009172388435568106636_"><defs><path id="SVGID_1_" d="M75.2 17.1h149.5v43.1H75.2z"/></defs><clipPath id="SVGID_00000158009406790915868550000009264474670312248199_"><use xlink:href="#SVGID_1_" overflow="visible"/></clipPath><g clip-path="url(#SVGID_00000158009406790915868550000009264474670312248199_)"><defs><path id="SVGID_00000128457390945157871190000004502869918958181016_" d="M75.2 17.1h149.5v43.1H75.2z"/></defs><clipPath id="SVGID_00000127759215713140889160000012623087101451292848_"><use xlink:href="#SVGID_00000128457390945157871190000004502869918958181016_" overflow="visible"/></clipPath><path d="M219.5 34.9c0-.3.1-.5.3-.7.2-.2.4-.3.7-.3.2 0 .5.1.6.3.2.2.3.4.3.7V45c0 .3-.1.5-.3.7-.2.2-.4.3-.7.3-.2 0-.5-.1-.6-.3-.2-.2-.3-.4-.3-.7V34.9zM168.2 50.9c-.8.6-1.6.8-2.6.8-.6 0-1-.1-1.3-.2-.3-.1-.6-.2-.9-.4-.3-.2-.4-.4-.4-.8 0-.3.1-.5.3-.7.2-.2.4-.3.6-.3.2 0 .4.1.6.2.4.2.8.3 1.3.3.4 0 .7-.1 1-.2.3-.1.6-.3.8-.5.2-.2.4-.5.5-.8.1-.3.2-.6.2-.9v-6.9c0-.3.1-.5.3-.6.2-.2.4-.3.6-.3.2 0 .5.1.6.3s.3.4.3.6v6.9c-.1 1.5-.8 2.7-1.9 3.5M126.9 30.7c0-.3.1-.5.3-.6.2-.2.4-.3.6-.3.2 0 .5.1.6.3.2.2.3.4.3.6v.7c0 .3-.1.5-.3.6-.2.2-.4.3-.6.3-.2 0-.5-.1-.6-.3-.2-.2-.3-.4-.3-.6v-.7zm0 4.3c0-.3.1-.5.3-.6.2-.2.4-.3.6-.3.2 0 .5.1.6.3.2.2.3.4.3.6v10c0 .3-.1.5-.3.6-.2.2-.4.3-.6.3-.2 0-.5-.1-.6-.3-.2-.2-.3-.4-.3-.6V35zM119 35.2c0-.3.1-.5.3-.6.2-.2.4-.3.6-.3.2 0 .4.1.6.2.2.1.3.3.3.5.7-.5 1.6-.8 2.6-.8.5 0 1 .1 1.3.2.3.1.6.2.9.4.3.2.4.4.4.8 0 .3-.1.5-.3.6-.2.2-.4.2-.6.2-.2 0-.4-.1-.5-.2-.4-.2-.8-.3-1.2-.3-.3 0-.7.1-1 .2-.3.1-.5.3-.8.5-.2.2-.4.5-.5.7-.1.3-.2.6-.2.9v6.7c0 .3-.1.5-.3.6-.2.2-.4.3-.6.3-.2 0-.4-.1-.6-.3-.2-.2-.3-.4-.3-.6v-9.7zM130 35.3c0-.1-.1-.2-.1-.4s.1-.4.2-.6c.2-.2.4-.3.6-.3.2 0 .3 0 .5.1s.3.2.3.4l3.6 8.3 3.6-8.3c.2-.4.4-.6.8-.6.3 0 .5.1.6.3.2.2.2.4.2.6 0 .1 0 .2-.1.4L136 45.5c-.2.4-.5.6-.8.6-.4 0-.7-.2-.8-.6L130 35.3zM140.8 38.3c0-.6.1-1.2.3-1.7.2-.5.5-1 .9-1.4.4-.4.9-.7 1.4-.9.5-.2 1.1-.3 1.7-.3.6 0 1.2.1 1.7.3.5.2 1 .5 1.4.9.4.4.7.9.9 1.4.2.5.3 1.1.3 1.7V45c0 .3-.1.5-.3.6-.2.2-.4.3-.6.3-.2 0-.4-.1-.6-.2-.2-.1-.3-.3-.3-.5-.7.5-1.6.8-2.5.8-.6 0-1.2-.1-1.7-.3-.5-.2-1-.5-1.4-.9-.4-.4-.7-.9-.9-1.4-.2-.5-.3-1.1-.3-1.7v-3.4zm1.8 3.4c0 .3.1.7.2 1 .1.3.3.6.5.8.2.2.5.4.8.5.3.1.6.2 1 .2.3 0 .7-.1 1-.2.3-.1.6-.3.8-.5.2-.2.4-.5.5-.8.1-.3.2-.6.2-.9v-3.6c0-.3-.1-.7-.2-1-.1-.3-.3-.6-.5-.8-.2-.2-.5-.4-.8-.5-.3-.1-.6-.2-1-.2s-.7.1-1 .2c-.3.1-.6.3-.8.5-.2.2-.4.5-.5.8-.1.3-.2.6-.2 1v3.5zM151.2 38.3c0-.6.1-1.2.3-1.7.2-.5.6-1 1-1.4.4-.4.9-.7 1.4-.9.5-.2 1.1-.3 1.7-.3.1 0 .3 0 .7.1.3 0 .7.1 1.1.3.4.2.8.4 1.2.8.4.4.7.9 1 1.5 0 .1.1.2.1.3 0 .3-.1.5-.3.6-.2.2-.4.3-.6.3-.2 0-.4-.1-.5-.2-.2-.1-.3-.2-.3-.4-.2-.5-.5-.9-1-1.1-.4-.3-.9-.4-1.4-.4-.4 0-.7.1-1 .2-.3.1-.6.3-.8.5-.2.2-.4.5-.5.8-.1.3-.2.6-.2 1v3.5c0 .3.1.7.2 1 .1.3.3.6.5.8.2.2.5.4.8.5.3.1.6.2 1 .2.5 0 1-.1 1.4-.4.4-.3.7-.6.9-1.1.1-.2.2-.3.3-.4.1-.1.3-.2.5-.2.3 0 .5.1.6.3.2.2.3.4.3.6 0 .1 0 .2-.1.3-.3.7-.7 1.2-1.2 1.6-.4.4-.9.6-1.3.8-.4.2-.8.2-1.1.3h-.5c-.6 0-1.2-.1-1.7-.3s-1-.5-1.4-.9c-.4-.4-.7-.9-.9-1.4-.2-.5-.3-1.1-.3-1.7v-3.5zM184.3 35c0-.3.1-.5.3-.6.2-.2.4-.3.6-.3.2 0 .5.1.6.3.2.2.3.4.3.6v6.8c0 .3.1.7.2 1 .1.3.3.6.5.8.2.2.5.4.8.5.3.1.6.2 1 .2.3 0 .7-.1 1-.2.3-.1.6-.3.8-.5.2-.2.4-.5.5-.8.1-.3.2-.6.2-1V35c0-.3.1-.5.3-.6.2-.2.4-.3.6-.3.2 0 .5.1.6.3.2.2.3.4.3.6v6.8c0 .6-.1 1.2-.3 1.7-.2.5-.5 1-.9 1.4-.4.4-.9.7-1.4.9-.5.2-1.1.3-1.7.3-.6 0-1.2-.1-1.7-.3-.5-.2-1-.5-1.4-.9-.4-.4-.7-.9-.9-1.4-.2-.5-.3-1.1-.3-1.7V35zM194.7 38.3c0-.6.1-1.2.3-1.7.2-.5.5-1 .9-1.4.4-.4.9-.7 1.4-.9.5-.2 1.1-.3 1.7-.3.6 0 1.2.1 1.7.3.5.2 1 .5 1.4.9.4.4.7.9.9 1.4.2.5.3 1.1.3 1.7V45c0 .3-.1.5-.3.6-.2.2-.4.3-.6.3-.2 0-.4-.1-.6-.2-.2-.1-.3-.3-.3-.5-.7.5-1.6.8-2.5.8-.6 0-1.2-.1-1.7-.3-.5-.2-1-.5-1.4-.9-.4-.4-.7-.9-.9-1.4-.2-.5-.3-1.1-.3-1.7v-3.4zm1.8 3.4c0 .3.1.7.2 1 .1.3.3.6.5.8.2.2.5.4.8.5.3.1.6.2 1 .2.3 0 .7-.1 1-.2.3-.1.6-.3.8-.5.2-.2.4-.5.5-.8.1-.3.2-.6.2-.9v-3.6c0-.3-.1-.7-.2-1-.1-.3-.3-.6-.5-.8-.2-.2-.5-.4-.8-.5-.3-.1-.6-.2-1-.2s-.7.1-1 .2c-.3.1-.6.3-.8.5-.2.2-.4.5-.5.8-.1.3-.2.6-.2 1v3.5zM205.2 35.2c0-.3.1-.5.3-.6.2-.2.4-.3.6-.3.2 0 .4.1.6.2.2.1.3.3.3.5.7-.5 1.6-.8 2.6-.8.5 0 1 .1 1.3.2.3.1.6.2.9.4.3.2.4.4.4.8 0 .3-.1.5-.3.6-.2.2-.4.2-.6.2-.2 0-.4-.1-.5-.2-.4-.2-.8-.3-1.2-.3-.3 0-.7.1-1 .2-.3.1-.5.3-.8.5-.2.2-.4.5-.5.7-.1.3-.2.6-.2.9v6.7c0 .3-.1.5-.3.6-.2.2-.4.3-.6.3-.2 0-.4-.1-.6-.3-.2-.2-.3-.4-.3-.6v-9.7z" clip-path="url(#SVGID_00000127759215713140889160000012623087101451292848_)" fill="#fff"/><path d="M219.5 30.7c0-.3.1-.5.3-.6.2-.2.4-.3.6-.3.2 0 .5.1.6.3.2.2.3.4.3.6v11c0 .6-.1 1.2-.3 1.7-.2.5-.5 1-.9 1.4-.4.4-.9.7-1.4.9-.5.2-1.1.3-1.7.3-.6 0-1.2-.1-1.7-.3-.5-.2-1-.5-1.4-.9-.4-.4-.7-.9-.9-1.4-.2-.5-.3-1.1-.3-1.7v-3.5c0-.6.1-1.2.3-1.7.2-.5.5-1 .9-1.4.4-.4.9-.7 1.4-.9.5-.2 1.1-.3 1.7-.3.5 0 .9.1 1.3.2s.8.3 1.2.6v-4zm-5 11c0 .3.1.7.2 1 .1.3.3.6.5.8.2.2.5.4.8.5.3.1.6.2 1 .2.3 0 .7-.1 1-.2.3-.1.6-.3.8-.5.2-.2.4-.5.5-.8.1-.3.2-.6.2-1v-3.5c0-.3-.1-.7-.2-1-.1-.3-.3-.6-.5-.8-.2-.2-.5-.4-.8-.5-.3-.1-.6-.2-1-.2-.3 0-.7.1-1 .2-.3.1-.6.3-.8.5-.2.2-.4.5-.5.8-.1.3-.2.6-.2 1v3.5zM161.3 35c0-.3.1-.5.3-.6.2-.2.4-.3.6-.3.2 0 .5.1.6.3.2.2.3.4.3.6v6.8c0 .3.1.7.2 1 .1.3.3.6.5.8.2.2.5.4.8.5.3.1.6.2 1 .2.3 0 .7-.1 1-.2.3-.1.6-.3.8-.5.2-.2.4-.5.5-.8.1-.3.2-.6.2-1V35c0-.3.1-.5.3-.6.2-.2.4-.3.6-.3.2 0 .5.1.6.3.2.2.3.4.3.6v6.8c0 .6-.1 1.2-.3 1.7-.2.5-.5 1-.9 1.4-.4.4-.9.7-1.4.9-.5.2-1.1.3-1.7.3-.6 0-1.2-.1-1.7-.3s-1-.5-1.4-.9c-.4-.4-.7-.9-.9-1.4-.2-.5-.3-1.1-.3-1.7V35zM181.7 37.9h-3.8c-.5 0-.9.4-.9.9s.4.9.9.9h3v1.4c0 2-1.8 3.4-3.6 3.4-2.1 0-3.8-1.4-3.8-3.8v-5.5c0-2.2 1.7-3.8 3.8-3.8 1.7 0 3.1 1.2 3.6 2.6.2.3.4.5.8.5.7 0 1.2-.6.8-1.4-.6-1.8-2.4-3.6-5.2-3.6-3.3 0-5.6 2.6-5.6 5.6v5.7c0 3 2.4 5.6 5.6 5.6 3 0 5.5-2.3 5.5-4.9v-2.7c-.1-.6-.6-.9-1.1-.9" clip-path="url(#SVGID_00000127759215713140889160000012623087101451292848_)" fill="#fff"/><path d="M219.5 35c0-.3.1-.5.3-.6.2-.2.4-.3.6-.3.2 0 .5.1.6.3.2.2.3.4.3.6v10c0 .3-.1.5-.3.6-.2.2-.4.3-.6.3-.2 0-.5-.1-.6-.3-.2-.2-.3-.4-.3-.6V35zM107.4 31.3c0-.3.1-.5.3-.6.2-.2.4-.3.6-.3h3.6c.8 0 1.5.1 2.2.4.7.3 1.3.7 1.8 1.2s.9 1.1 1.2 1.8c.3.7.4 1.4.4 2.2 0 .8-.1 1.5-.4 2.2-.3.7-.7 1.2-1.2 1.8-.5.5-1.1.9-1.8 1.2-.7.3-1.4.4-2.2.4h-2.7v3.6c0 .3-.1.5-.3.6-.2.2-.4.3-.6.3-.2 0-.4-.1-.6-.3-.2-.2-.3-.4-.3-.6V31.3zm1.8.9v7.5h2.7c.5 0 1-.1 1.5-.3.5-.2.9-.5 1.2-.8.3-.3.6-.7.8-1.2.2-.5.3-.9.3-1.5 0-.5-.1-1-.3-1.5-.2-.5-.5-.8-.8-1.2-.3-.3-.7-.6-1.2-.8-.5-.2-1-.3-1.5-.3h-2.7zM89.6 46.5v1.9c0 1.5-1.2 2.7-2.7 2.7-.5 0-.9-.1-1.3-.4-.4-.3-.6-.8-.3-1.2.3-.4.8-.6 1.2-.3.1.1.3.1.4.1.5 0 .8-.4.8-.8v-1.9c0-.5.4-.9.9-.9s1 .3 1 .8m-6.1 3.7c-.2-.4-.8-.6-1.2-.4-.4.2-.6.8-.4 1.2 1 1.9 2.9 3.1 5.1 3.1 3.1 0 5.7-2.6 5.7-5.7v-1.9c0-.5-.4-.9-.9-.9s-.9.4-.9.9v1.9c0 2.1-1.7 3.9-3.9 3.9-1.5 0-2.8-.8-3.5-2.1m3.2-30.1c-4.7.1-8.5 4.1-8.5 8.9v19.4c0 2.4.9 4.6 2.7 6.3 1.6 1.6 3.8 2.5 6.1 2.5h.3c4.7-.1 8.5-4.1 8.5-8.9v-1.5c0-2.3-1.9-4.2-4.2-4.2h-2.8c-.5 0-.9.4-.9.9s.4.9.9.9h2.8c1.3 0 2.3 1.1 2.3 2.3v1.5c0 3.8-3 7-6.7 7.1-1.9.1-3.7-.6-5-2-1.4-1.3-2.1-3.1-2.1-5V29c0-3.8 3-7 6.7-7.1 1.9-.1 3.7.6 5 2 1.4 1.3 2.1 3.1 2.1 5v11.4c0 .5.4.9.9.9s.9-.4.9-.9V28.8c0-2.4-.9-4.6-2.7-6.3-1.7-1.6-4-2.5-6.3-2.4m5.9 15.6v-6.8c0-3.1-2.6-5.7-5.7-5.7s-5.7 2.6-5.7 5.7V30c0 .5.4.9.9.9s.9-.4.9-.9v-1.1c0-2.1 1.7-3.9 3.9-3.9s3.9 1.7 3.9 3.9v6.8c0 2.1-1.7 3.9-3.9 3.9-.5 0-1-.1-1.4-.3-.3-.1-.6-.1-.8.1-.2.2-.4.5-.4.8v6.2c0 .3-.3.6-.6.6s-.6-.3-.6-.6V33c0-.5-.4-.9-.9-.9s-.9.4-.9.9v13.3c0 1.3 1.1 2.4 2.4 2.4s2.4-1.1 2.4-2.4v-5c.3 0 .6.1.8.1 3.2 0 5.7-2.6 5.7-5.7m6.1-6.7v19.3c0 3.2-1.3 6.2-3.5 8.4s-5.1 3.4-8.2 3.4h-.3c-6.3-.1-11.5-5.5-11.5-12V28.8c0-3.2 1.3-6.2 3.5-8.4 2.3-2.2 5.3-3.4 8.5-3.3 6.3.1 11.5 5.5 11.5 11.9m-1.8 14.6V29c0-5.5-4.4-10-9.7-10.1-2.7-.1-5.3.9-7.2 2.8-1.9 1.9-3 4.4-3 7.1v19.4c0 5.5 4.4 10 9.7 10.1 2.7.1 5.3-.9 7.2-2.8 1.9-1.9 3-4.4 3-7.1v-4.8zm-12.6-7.9v-6.8c0-1.5 1.2-2.7 2.7-2.7 1.5 0 2.7 1.2 2.7 2.7v6.8c0 1.5-1.2 2.7-2.7 2.7-1.5-.1-2.7-1.3-2.7-2.7m1.8 0c0 .5.4.8.8.8.5 0 .8-.4.8-.8v-6.8c0-.5-.4-.8-.8-.8-.5 0-.8.4-.8.8v6.8zM222.6 30.2h-.4v-.3h1v.3h-.3v1h-.3zM224.4 30.7v-.5c0 .2-.1.3-.1.5l-.2.5h-.2l-.1-.5c0-.1-.1-.3-.1-.5v1h-.3l.1-1.3h.4l.1.4c0 .1.1.3.1.4 0-.1.1-.3.1-.5l.1-.4h.4l.1 1.3h-.3l-.1-.4z" clip-path="url(#SVGID_00000127759215713140889160000012623087101451292848_)" fill="#fff"/></g></g></svg>