<?xml version="1.0" encoding="utf-8"?>
<!-- Generator: Adobe Illustrator 26.0.3, SVG Export Plug-In . SVG Version: 6.00 Build 0)  -->
<svg version="1.1" id="Layer_1" xmlns="http://www.w3.org/2000/svg" xmlns:xlink="http://www.w3.org/1999/xlink" x="0px" y="0px"
	 viewBox="0 0 160 600" style="enable-background:new 0 0 160 600;" xml:space="preserve">
<style type="text/css">
	.st0{fill:#FFFFFF;}
	.st1{fill:#021D8B;}
</style>
<g>
	<path class="st0" d="M136.5,281.4h-113c-6.3,0-11.5-5.2-11.5-11.5v0c0-6.3,5.2-11.5,11.5-11.5h113c6.3,0,11.5,5.2,11.5,11.5v0
		C147.9,276.3,142.8,281.4,136.5,281.4z"/>
	<path class="st0" d="M136.5,307.5h-113c-6.3,0-11.5-5.2-11.5-11.5l0,0c0-6.3,5.2-11.5,11.5-11.5h113c6.3,0,11.5,5.2,11.5,11.5l0,0
		C147.9,302.3,142.8,307.5,136.5,307.5z"/>
</g>
<g>
	<path class="st0" d="M48.7,183.7h-3.2l-4.8-8.4v8.4h-3.2v-13.4h3.2l4.8,8.4v-8.4h3.2V183.7z"/>
	<path class="st0" d="M55.4,183.9c-1.5,0-2.8-0.5-3.7-1.4c-0.9-0.9-1.4-2.1-1.4-3.6v-0.3c0-1,0.2-1.9,0.6-2.7
		c0.4-0.8,0.9-1.4,1.7-1.8s1.6-0.6,2.6-0.6c1.4,0,2.5,0.4,3.3,1.3c0.8,0.9,1.2,2.1,1.2,3.6v1.2h-6.2c0.1,0.6,0.4,1,0.7,1.3
		c0.4,0.3,0.9,0.5,1.5,0.5c1,0,1.8-0.3,2.3-1l1.4,1.7c-0.4,0.5-0.9,1-1.6,1.3C57,183.7,56.2,183.9,55.4,183.9z M55.1,175.9
		c-0.9,0-1.5,0.6-1.6,1.8h3.1v-0.2c0-0.5-0.1-0.9-0.4-1.2C55.9,176.1,55.6,175.9,55.1,175.9z"/>
	<path class="st0" d="M65.7,183.9c-1.5,0-2.8-0.5-3.7-1.4c-0.9-0.9-1.4-2.1-1.4-3.6v-0.3c0-1,0.2-1.9,0.6-2.7
		c0.4-0.8,0.9-1.4,1.7-1.8s1.6-0.6,2.6-0.6c1.4,0,2.5,0.4,3.3,1.3c0.8,0.9,1.2,2.1,1.2,3.6v1.2h-6.2c0.1,0.6,0.4,1,0.7,1.3
		c0.4,0.3,0.9,0.5,1.5,0.5c1,0,1.8-0.3,2.3-1l1.4,1.7c-0.4,0.5-0.9,1-1.6,1.3C67.3,183.7,66.5,183.9,65.7,183.9z M65.4,175.9
		c-0.9,0-1.5,0.6-1.6,1.8h3.1v-0.2c0-0.5-0.1-0.9-0.4-1.2C66.2,176.1,65.9,175.9,65.4,175.9z"/>
	<path class="st0" d="M70.8,178.6c0-1.6,0.3-2.8,1-3.7c0.7-0.9,1.6-1.4,2.9-1.4c0.9,0,1.6,0.4,2.3,1.1v-5.1h3.1v14.2h-2.8l-0.2-1.1
		c-0.6,0.8-1.5,1.3-2.4,1.3c-1.2,0-2.1-0.5-2.8-1.4C71.1,181.6,70.8,180.3,70.8,178.6z M73.9,178.8c0,1.8,0.5,2.7,1.6,2.7
		c0.7,0,1.2-0.3,1.5-0.9v-3.8c-0.3-0.6-0.8-0.9-1.5-0.9c-1,0-1.5,0.8-1.6,2.3L73.9,178.8z"/>
	<path class="st0" d="M87.2,183.7v-7.8h-1.5v-2.2h1.5v-0.8c0-1.1,0.3-2,1-2.7c0.7-0.6,1.6-0.9,2.8-0.9c0.4,0,0.9,0.1,1.5,0.2l0,2.3
		c-0.2-0.1-0.4-0.1-0.8-0.1c-0.9,0-1.4,0.4-1.4,1.2v0.8h1.9v2.2h-1.9v7.8H87.2z"/>
	<path class="st0" d="M99,183.7c-0.1-0.2-0.2-0.5-0.3-0.9c-0.6,0.7-1.4,1.1-2.4,1.1c-0.9,0-1.7-0.3-2.4-0.9s-1-1.3-1-2.1
		c0-1.1,0.4-1.9,1.2-2.5c0.8-0.6,2-0.8,3.5-0.8h1v-0.5c0-0.9-0.4-1.4-1.2-1.4c-0.7,0-1.1,0.4-1.1,1.1h-3.1c0-1,0.4-1.7,1.2-2.4
		c0.8-0.6,1.9-0.9,3.1-0.9s2.3,0.3,3,0.9c0.7,0.6,1.1,1.5,1.1,2.6v4.4c0,0.9,0.2,1.6,0.4,2.1v0.2H99z M97.1,181.7
		c0.4,0,0.7-0.1,1-0.2c0.3-0.2,0.4-0.4,0.5-0.6v-1.6h-0.9c-1.1,0-1.6,0.5-1.6,1.5c0,0.3,0.1,0.5,0.3,0.7
		C96.5,181.6,96.8,181.7,97.1,181.7z"/>
	<path class="st0" d="M108.7,180.9c0-0.3-0.1-0.5-0.4-0.6c-0.3-0.2-0.8-0.3-1.6-0.5c-0.8-0.2-1.4-0.4-1.9-0.7s-0.9-0.6-1.2-1
		s-0.4-0.9-0.4-1.4c0-0.9,0.4-1.7,1.1-2.3c0.8-0.6,1.7-0.9,3-0.9c1.3,0,2.4,0.3,3.2,0.9c0.8,0.6,1.2,1.4,1.2,2.4h-3.1
		c0-0.8-0.4-1.2-1.3-1.2c-0.3,0-0.6,0.1-0.8,0.3s-0.3,0.4-0.3,0.7c0,0.3,0.1,0.5,0.4,0.7c0.3,0.2,0.7,0.3,1.3,0.4
		c0.6,0.1,1.1,0.2,1.6,0.4c1.5,0.5,2.3,1.4,2.3,2.8c0,0.9-0.4,1.7-1.2,2.2c-0.8,0.6-1.9,0.9-3.1,0.9c-0.9,0-1.6-0.2-2.3-0.5
		c-0.7-0.3-1.2-0.7-1.6-1.3c-0.4-0.5-0.6-1.1-0.6-1.7h2.9c0,0.5,0.2,0.8,0.5,1s0.7,0.3,1.1,0.3c0.4,0,0.7-0.1,1-0.3
		C108.5,181.4,108.7,181.2,108.7,180.9z"/>
	<path class="st0" d="M116.7,171.2v2.5h1.6v2.2h-1.6v4.6c0,0.4,0.1,0.6,0.2,0.8c0.1,0.1,0.4,0.2,0.8,0.2c0.3,0,0.6,0,0.8-0.1v2.2
		c-0.6,0.2-1.1,0.3-1.8,0.3c-1.1,0-1.9-0.3-2.4-0.8c-0.5-0.5-0.8-1.3-0.8-2.3v-5h-1.3v-2.2h1.3v-2.5H116.7z"/>
	<path class="st0" d="M22.2,206.1c-0.1-0.2-0.2-0.5-0.3-0.9c-0.6,0.7-1.4,1.1-2.4,1.1c-0.9,0-1.7-0.3-2.4-0.9c-0.7-0.6-1-1.3-1-2.1
		c0-1.1,0.4-1.9,1.2-2.5c0.8-0.6,2-0.8,3.5-0.8h1v-0.5c0-0.9-0.4-1.4-1.2-1.4c-0.7,0-1.1,0.4-1.1,1.1h-3.1c0-1,0.4-1.7,1.2-2.4
		s1.9-0.9,3.1-0.9s2.3,0.3,3,0.9c0.7,0.6,1.1,1.5,1.1,2.6v4.4c0,0.9,0.2,1.6,0.4,2.1v0.2H22.2z M20.2,204c0.4,0,0.7-0.1,1-0.2
		c0.3-0.2,0.4-0.4,0.5-0.6v-1.6h-0.9c-1.1,0-1.6,0.5-1.6,1.5c0,0.3,0.1,0.5,0.3,0.7S19.9,204,20.2,204z"/>
	<path class="st0" d="M30.8,203.9c0.4,0,0.8-0.1,1-0.4c0.2-0.2,0.4-0.6,0.4-1h2.9c0,1.1-0.4,2-1.2,2.7c-0.8,0.7-1.8,1.1-3,1.1
		c-1.5,0-2.6-0.5-3.4-1.4c-0.8-0.9-1.3-2.2-1.3-3.8V201c0-1,0.2-1.9,0.6-2.7c0.4-0.8,0.9-1.4,1.6-1.8c0.7-0.4,1.5-0.6,2.5-0.6
		c1.3,0,2.3,0.4,3.1,1.1c0.8,0.7,1.1,1.7,1.1,2.9h-2.9c0-0.5-0.1-0.9-0.4-1.2s-0.6-0.4-1-0.4c-0.8,0-1.3,0.5-1.4,1.5
		c0,0.3-0.1,0.8-0.1,1.3c0,1,0.1,1.7,0.4,2.1C29.9,203.7,30.3,203.9,30.8,203.9z"/>
	<path class="st0" d="M40.6,203.9c0.4,0,0.8-0.1,1-0.4c0.2-0.2,0.4-0.6,0.4-1h2.9c0,1.1-0.4,2-1.2,2.7c-0.8,0.7-1.8,1.1-3,1.1
		c-1.5,0-2.6-0.5-3.4-1.4c-0.8-0.9-1.3-2.2-1.3-3.8V201c0-1,0.2-1.9,0.6-2.7c0.4-0.8,0.9-1.4,1.6-1.8c0.7-0.4,1.5-0.6,2.5-0.6
		c1.3,0,2.3,0.4,3.1,1.1c0.8,0.7,1.1,1.7,1.1,2.9H42c0-0.5-0.1-0.9-0.4-1.2s-0.6-0.4-1-0.4c-0.8,0-1.3,0.5-1.4,1.5
		c0,0.3-0.1,0.8-0.1,1.3c0,1,0.1,1.7,0.4,2.1C39.7,203.7,40.1,203.9,40.6,203.9z"/>
	<path class="st0" d="M51,206.3c-1.5,0-2.8-0.5-3.7-1.4c-0.9-0.9-1.4-2.1-1.4-3.6v-0.3c0-1,0.2-1.9,0.6-2.7c0.4-0.8,0.9-1.4,1.7-1.8
		s1.6-0.6,2.6-0.6c1.4,0,2.5,0.4,3.3,1.3c0.8,0.9,1.2,2.1,1.2,3.6v1.2h-6.2c0.1,0.6,0.4,1,0.7,1.3c0.4,0.3,0.9,0.5,1.5,0.5
		c1,0,1.8-0.3,2.3-1l1.4,1.7c-0.4,0.5-0.9,1-1.6,1.3C52.6,206.1,51.9,206.3,51,206.3z M50.7,198.3c-0.9,0-1.5,0.6-1.6,1.8h3.1v-0.2
		c0-0.5-0.1-0.9-0.4-1.2C51.6,198.4,51.2,198.3,50.7,198.3z"/>
	<path class="st0" d="M61.7,203.3c0-0.3-0.1-0.5-0.4-0.6c-0.3-0.2-0.8-0.3-1.6-0.5c-0.8-0.2-1.4-0.4-1.9-0.7s-0.9-0.6-1.2-1
		s-0.4-0.9-0.4-1.4c0-0.9,0.4-1.7,1.1-2.3c0.8-0.6,1.7-0.9,3-0.9c1.3,0,2.4,0.3,3.2,0.9s1.2,1.4,1.2,2.4h-3.1c0-0.8-0.4-1.2-1.3-1.2
		c-0.3,0-0.6,0.1-0.8,0.3s-0.3,0.4-0.3,0.7c0,0.3,0.1,0.5,0.4,0.7c0.3,0.2,0.7,0.3,1.3,0.4s1.1,0.2,1.6,0.4c1.5,0.5,2.3,1.4,2.3,2.8
		c0,0.9-0.4,1.7-1.2,2.2c-0.8,0.6-1.9,0.9-3.1,0.9c-0.9,0-1.6-0.2-2.3-0.5c-0.7-0.3-1.2-0.7-1.6-1.3c-0.4-0.5-0.6-1.1-0.6-1.7h2.9
		c0,0.5,0.2,0.8,0.5,1c0.3,0.2,0.7,0.3,1.1,0.3c0.4,0,0.7-0.1,1-0.3S61.7,203.6,61.7,203.3z"/>
	<path class="st0" d="M71.4,203.3c0-0.3-0.1-0.5-0.4-0.6c-0.3-0.2-0.8-0.3-1.6-0.5c-0.8-0.2-1.4-0.4-1.9-0.7s-0.9-0.6-1.2-1
		s-0.4-0.9-0.4-1.4c0-0.9,0.4-1.7,1.1-2.3c0.8-0.6,1.7-0.9,3-0.9c1.3,0,2.4,0.3,3.2,0.9s1.2,1.4,1.2,2.4h-3.1c0-0.8-0.4-1.2-1.3-1.2
		c-0.3,0-0.6,0.1-0.8,0.3s-0.3,0.4-0.3,0.7c0,0.3,0.1,0.5,0.4,0.7c0.3,0.2,0.7,0.3,1.3,0.4s1.1,0.2,1.6,0.4c1.5,0.5,2.3,1.4,2.3,2.8
		c0,0.9-0.4,1.7-1.2,2.2c-0.8,0.6-1.9,0.9-3.1,0.9c-0.9,0-1.6-0.2-2.3-0.5c-0.7-0.3-1.2-0.7-1.6-1.3c-0.4-0.5-0.6-1.1-0.6-1.7h2.9
		c0,0.5,0.2,0.8,0.5,1c0.3,0.2,0.7,0.3,1.1,0.3c0.4,0,0.7-0.1,1-0.3S71.4,203.6,71.4,203.3z"/>
	<path class="st0" d="M84.2,193.6v2.5h1.6v2.2h-1.6v4.6c0,0.4,0.1,0.6,0.2,0.8c0.1,0.1,0.4,0.2,0.8,0.2c0.3,0,0.6,0,0.8-0.1v2.2
		c-0.6,0.2-1.1,0.3-1.8,0.3c-1.1,0-1.9-0.3-2.4-0.8c-0.5-0.5-0.8-1.3-0.8-2.3v-5h-1.3v-2.2h1.3v-2.5H84.2z"/>
	<path class="st0" d="M86.4,201c0-1,0.2-1.9,0.6-2.7s0.9-1.4,1.7-1.8c0.7-0.4,1.6-0.6,2.6-0.6c1.5,0,2.7,0.5,3.5,1.4
		c0.9,0.9,1.3,2.2,1.3,3.8v0.1c0,1.6-0.4,2.8-1.3,3.7c-0.9,0.9-2,1.4-3.5,1.4c-1.4,0-2.6-0.4-3.4-1.3s-1.3-2-1.4-3.5L86.4,201z
		 M89.5,201.2c0,0.9,0.1,1.6,0.4,2c0.3,0.4,0.7,0.6,1.3,0.6c1.1,0,1.7-0.9,1.7-2.6V201c0-1.8-0.6-2.7-1.7-2.7c-1,0-1.6,0.8-1.7,2.3
		L89.5,201.2z"/>
	<path class="st0" d="M106.1,201.7l1.7-5.6h3.3l-4.1,11.7l-0.2,0.4c-0.6,1.3-1.6,1.9-3.1,1.9c-0.4,0-0.8-0.1-1.3-0.2v-2.2h0.4
		c0.4,0,0.8-0.1,1-0.2c0.2-0.1,0.4-0.4,0.5-0.7l0.2-0.7l-3.5-10.1h3.3L106.1,201.7z"/>
	<path class="st0" d="M111.5,201c0-1,0.2-1.9,0.6-2.7c0.4-0.8,0.9-1.4,1.7-1.8c0.7-0.4,1.6-0.6,2.6-0.6c1.5,0,2.7,0.5,3.5,1.4
		c0.9,0.9,1.3,2.2,1.3,3.8v0.1c0,1.6-0.4,2.8-1.3,3.7c-0.9,0.9-2,1.4-3.5,1.4c-1.4,0-2.6-0.4-3.4-1.3s-1.3-2-1.4-3.5L111.5,201z
		 M114.7,201.2c0,0.9,0.1,1.6,0.4,2s0.7,0.6,1.3,0.6c1.1,0,1.7-0.9,1.7-2.6V201c0-1.8-0.6-2.7-1.7-2.7c-1,0-1.6,0.8-1.7,2.3
		L114.7,201.2z"/>
	<path class="st0" d="M128.5,205c-0.7,0.8-1.5,1.3-2.7,1.3c-1.1,0-1.9-0.3-2.5-1s-0.8-1.6-0.8-2.7v-6.5h3.1v6.5
		c0,0.9,0.4,1.3,1.2,1.3c0.7,0,1.2-0.3,1.5-0.8v-7h3.1v10h-2.9L128.5,205z"/>
	<path class="st0" d="M139.3,198.9l-1-0.1c-1,0-1.6,0.3-1.9,0.9v6.3h-3.1v-10h2.9l0.1,1.3c0.5-1,1.3-1.5,2.2-1.5
		c0.3,0,0.6,0,0.9,0.1L139.3,198.9z"/>
	<path class="st0" d="M27.9,216v2.5h1.6v2.2h-1.6v4.6c0,0.4,0.1,0.6,0.2,0.8c0.1,0.1,0.4,0.2,0.8,0.2c0.3,0,0.6,0,0.8-0.1v2.2
		c-0.6,0.2-1.1,0.3-1.8,0.3c-1.1,0-1.9-0.3-2.4-0.8c-0.5-0.5-0.8-1.3-0.8-2.3v-5h-1.3v-2.2h1.3V216H27.9z"/>
	<path class="st0" d="M36.9,221.3l-1-0.1c-1,0-1.6,0.3-1.9,0.9v6.3h-3.1v-10h2.9l0.1,1.3c0.5-1,1.3-1.5,2.2-1.5c0.3,0,0.6,0,0.9,0.1
		L36.9,221.3z"/>
	<path class="st0" d="M38,215.9c0-0.4,0.2-0.8,0.5-1.1c0.3-0.3,0.7-0.4,1.2-0.4c0.5,0,0.9,0.1,1.2,0.4s0.5,0.6,0.5,1.1
		s-0.2,0.8-0.5,1.1s-0.7,0.4-1.2,0.4c-0.5,0-0.9-0.1-1.2-0.4C38.1,216.7,38,216.3,38,215.9z M41.3,228.4h-3.1v-10h3.1V228.4z"/>
	<path class="st0" d="M52.5,223.5c0,1.6-0.3,2.8-1,3.7s-1.6,1.4-2.8,1.4c-0.9,0-1.7-0.3-2.3-1v4.7h-3.1v-13.8h2.9l0.1,0.9
		c0.6-0.7,1.4-1.1,2.4-1.1c1.2,0,2.2,0.5,2.9,1.4c0.7,0.9,1,2.2,1,3.7V223.5z M49.3,223.3c0-1.8-0.5-2.7-1.6-2.7
		c-0.7,0-1.2,0.3-1.5,0.8v3.9c0.3,0.6,0.8,0.8,1.5,0.8c1,0,1.5-0.9,1.5-2.6V223.3z"/>
	<path class="st0" d="M57.1,228.4H54v-14.2h3.1V228.4z"/>
	<path class="st0" d="M63.9,228.6c-1.5,0-2.8-0.5-3.7-1.4c-0.9-0.9-1.4-2.1-1.4-3.6v-0.3c0-1,0.2-1.9,0.6-2.7
		c0.4-0.8,0.9-1.4,1.7-1.8s1.6-0.6,2.6-0.6c1.4,0,2.5,0.4,3.3,1.3c0.8,0.9,1.2,2.1,1.2,3.6v1.2h-6.2c0.1,0.6,0.4,1,0.7,1.3
		c0.4,0.3,0.9,0.5,1.5,0.5c1,0,1.8-0.3,2.3-1l1.4,1.7c-0.4,0.5-0.9,1-1.6,1.3C65.4,228.5,64.7,228.6,63.9,228.6z M63.5,220.7
		c-0.9,0-1.5,0.6-1.6,1.8H65v-0.2c0-0.5-0.1-0.9-0.4-1.2C64.4,220.8,64,220.7,63.5,220.7z"/>
	<path class="st0" d="M75.4,223.8h-5.6v-2.4h5.6V223.8z"/>
	<path class="st0" d="M87.1,223.5c0,1.6-0.3,2.9-1,3.8c-0.7,0.9-1.6,1.3-2.9,1.3c-1,0-1.8-0.4-2.5-1.2l-0.1,1h-2.8v-14.2H81v5
		c0.6-0.7,1.3-1,2.2-1c1.2,0,2.2,0.4,2.9,1.3c0.7,0.9,1,2.1,1,3.8V223.5z M84,223.3c0-1-0.1-1.6-0.4-2.1c-0.3-0.4-0.6-0.6-1.2-0.6
		c-0.7,0-1.2,0.3-1.5,0.8v4c0.3,0.5,0.8,0.8,1.5,0.8c0.7,0,1.2-0.4,1.4-1.1C83.9,224.8,84,224.2,84,223.3z"/>
	<path class="st0" d="M94.4,227.4c-0.7,0.8-1.5,1.3-2.7,1.3c-1.1,0-1.9-0.3-2.5-1s-0.8-1.6-0.8-2.7v-6.5h3.1v6.5
		c0,0.9,0.4,1.3,1.2,1.3c0.7,0,1.2-0.3,1.5-0.8v-7h3.1v10h-2.9L94.4,227.4z"/>
	<path class="st0" d="M105.2,221.3l-1-0.1c-1,0-1.6,0.3-1.9,0.9v6.3h-3.1v-10h2.9l0.1,1.3c0.5-1,1.3-1.5,2.2-1.5
		c0.3,0,0.6,0,0.9,0.1L105.2,221.3z"/>
	<path class="st0" d="M111.1,228.6c-1.5,0-2.8-0.5-3.7-1.4c-0.9-0.9-1.4-2.1-1.4-3.6v-0.3c0-1,0.2-1.9,0.6-2.7
		c0.4-0.8,0.9-1.4,1.7-1.8s1.6-0.6,2.6-0.6c1.4,0,2.5,0.4,3.3,1.3s1.2,2.1,1.2,3.6v1.2h-6.2c0.1,0.6,0.4,1,0.7,1.3
		c0.4,0.3,0.9,0.5,1.5,0.5c1,0,1.8-0.3,2.3-1l1.4,1.7c-0.4,0.5-0.9,1-1.6,1.3S112,228.6,111.1,228.6z M110.8,220.7
		c-0.9,0-1.5,0.6-1.6,1.8h3.1v-0.2c0-0.5-0.1-0.9-0.4-1.2C111.7,220.8,111.3,220.7,110.8,220.7z"/>
	<path class="st0" d="M122.2,228.4c-0.1-0.2-0.2-0.5-0.3-0.9c-0.6,0.7-1.4,1.1-2.4,1.1c-0.9,0-1.7-0.3-2.4-0.9c-0.7-0.6-1-1.3-1-2.1
		c0-1.1,0.4-1.9,1.2-2.5c0.8-0.6,2-0.8,3.5-0.8h1v-0.5c0-0.9-0.4-1.4-1.2-1.4c-0.7,0-1.1,0.4-1.1,1.1h-3.1c0-1,0.4-1.7,1.2-2.4
		s1.9-0.9,3.1-0.9s2.3,0.3,3,0.9c0.7,0.6,1.1,1.5,1.1,2.6v4.4c0,0.9,0.2,1.6,0.4,2.1v0.2H122.2z M120.3,226.4c0.4,0,0.7-0.1,1-0.2
		c0.3-0.2,0.4-0.4,0.5-0.6V224h-0.9c-1.1,0-1.6,0.5-1.6,1.5c0,0.3,0.1,0.5,0.3,0.7S120,226.4,120.3,226.4z"/>
	<path class="st0" d="M132.6,227.4c-0.7,0.8-1.5,1.3-2.7,1.3c-1.1,0-1.9-0.3-2.5-1s-0.8-1.6-0.8-2.7v-6.5h3.1v6.5
		c0,0.9,0.4,1.3,1.2,1.3c0.7,0,1.2-0.3,1.5-0.8v-7h3.1v10h-2.9L132.6,227.4z"/>
	<path class="st0" d="M48.9,240.8L49,242c0.7-0.9,1.7-1.4,2.9-1.4c1.3,0,2.1,0.5,2.6,1.5c0.7-1,1.7-1.5,2.9-1.5c2,0,3.1,1.2,3.1,3.7
		v6.5h-3.1v-6.3c0-0.5-0.1-0.9-0.3-1.1c-0.2-0.2-0.5-0.4-0.9-0.4c-0.6,0-1.1,0.3-1.4,0.8l0,0.1v6.8h-3.1v-6.3c0-0.5-0.1-0.9-0.2-1.1
		c-0.2-0.2-0.5-0.4-1-0.4c-0.6,0-1.1,0.3-1.4,0.8v7H46v-10H48.9z"/>
	<path class="st0" d="M61.8,245.7c0-1,0.2-1.9,0.6-2.7s0.9-1.4,1.7-1.8c0.7-0.4,1.6-0.6,2.6-0.6c1.5,0,2.7,0.5,3.5,1.4
		s1.3,2.2,1.3,3.8v0.1c0,1.6-0.4,2.8-1.3,3.7c-0.9,0.9-2,1.4-3.5,1.4c-1.4,0-2.6-0.4-3.4-1.3c-0.9-0.9-1.3-2-1.4-3.5L61.8,245.7z
		 M65,245.9c0,0.9,0.1,1.6,0.4,2c0.3,0.4,0.7,0.6,1.3,0.6c1.1,0,1.7-0.9,1.7-2.6v-0.3c0-1.8-0.6-2.7-1.7-2.7c-1,0-1.6,0.8-1.7,2.3
		L65,245.9z"/>
	<path class="st0" d="M75.7,240.8l0.1,1.2c0.7-0.9,1.6-1.4,2.9-1.4c1,0,1.8,0.3,2.3,0.9s0.8,1.6,0.8,2.8v6.4h-3.1v-6.3
		c0-0.5-0.1-0.9-0.3-1.1c-0.2-0.2-0.6-0.4-1.1-0.4c-0.6,0-1.1,0.2-1.4,0.7v7.1h-3.1v-10H75.7z"/>
	<path class="st0" d="M87.1,238.3v2.5h1.6v2.2h-1.6v4.6c0,0.4,0.1,0.6,0.2,0.8c0.1,0.1,0.4,0.2,0.8,0.2c0.3,0,0.6,0,0.8-0.1v2.2
		c-0.6,0.2-1.1,0.3-1.8,0.3c-1.1,0-1.9-0.3-2.4-0.8c-0.5-0.5-0.8-1.3-0.8-2.3v-5h-1.3v-2.2H84v-2.5H87.1z"/>
	<path class="st0" d="M93.1,241.9c0.7-0.8,1.5-1.3,2.5-1.3c1.1,0,1.9,0.3,2.5,1c0.6,0.7,0.8,1.6,0.9,2.9v6.3h-3.1v-6.2
		c0-0.5-0.1-0.9-0.3-1.2c-0.2-0.2-0.6-0.4-1.1-0.4c-0.6,0-1.1,0.2-1.4,0.6v7.2h-3.1v-14.2h3.1V241.9z"/>
	<path class="st0" d="M104,250.8h-3.1v-14.2h3.1V250.8z"/>
	<path class="st0" d="M109.9,246.4l1.7-5.6h3.3l-4.1,11.7l-0.2,0.4c-0.6,1.3-1.6,1.9-3.1,1.9c-0.4,0-0.8-0.1-1.3-0.2v-2.2h0.4
		c0.4,0,0.8-0.1,1-0.2c0.2-0.1,0.4-0.4,0.5-0.7l0.2-0.7l-3.5-10.1h3.3L109.9,246.4z"/>
	<path class="st1" d="M26.6,274c0.4,0,0.8-0.1,1-0.4c0.2-0.2,0.4-0.6,0.4-1h2.9c0,1.1-0.4,2-1.2,2.7c-0.8,0.7-1.8,1.1-3,1.1
		c-1.5,0-2.6-0.5-3.4-1.4c-0.8-0.9-1.3-2.2-1.3-3.8v-0.1c0-1,0.2-1.9,0.6-2.7s0.9-1.4,1.6-1.8c0.7-0.4,1.5-0.6,2.5-0.6
		c1.3,0,2.3,0.4,3.1,1.1c0.8,0.7,1.1,1.7,1.1,2.9H28c0-0.5-0.1-0.9-0.4-1.2s-0.6-0.4-1-0.4c-0.8,0-1.3,0.5-1.4,1.5
		c0,0.3-0.1,0.8-0.1,1.3c0,1,0.1,1.7,0.4,2.1C25.7,273.8,26.1,274,26.6,274z"/>
	<path class="st1" d="M38.2,269l-1-0.1c-1,0-1.6,0.3-1.9,0.9v6.3h-3.1v-10h2.9l0.1,1.3c0.5-1,1.3-1.5,2.2-1.5c0.3,0,0.6,0,0.9,0.1
		L38.2,269z"/>
	<path class="st1" d="M44.2,276.4c-1.5,0-2.8-0.5-3.7-1.4c-0.9-0.9-1.4-2.1-1.4-3.6v-0.3c0-1,0.2-1.9,0.6-2.7
		c0.4-0.8,0.9-1.4,1.7-1.8s1.6-0.6,2.6-0.6c1.4,0,2.5,0.4,3.3,1.3c0.8,0.9,1.2,2.1,1.2,3.6v1.2h-6.2c0.1,0.6,0.4,1,0.7,1.3
		s0.9,0.5,1.5,0.5c1,0,1.8-0.3,2.3-1l1.4,1.7c-0.4,0.5-0.9,1-1.6,1.3C45.8,276.2,45,276.4,44.2,276.4z M43.9,268.4
		c-0.9,0-1.5,0.6-1.6,1.8h3.1V270c0-0.5-0.1-0.9-0.4-1.2C44.7,268.5,44.3,268.4,43.9,268.4z"/>
	<path class="st1" d="M49.3,271.1c0-1.6,0.3-2.8,1-3.7c0.7-0.9,1.6-1.4,2.9-1.4c0.9,0,1.6,0.4,2.3,1.1V262h3.1v14.2h-2.8l-0.2-1.1
		c-0.6,0.8-1.5,1.3-2.4,1.3c-1.2,0-2.1-0.5-2.8-1.4C49.6,274.1,49.3,272.8,49.3,271.1z M52.4,271.3c0,1.8,0.5,2.7,1.6,2.7
		c0.7,0,1.2-0.3,1.5-0.9v-3.8c-0.3-0.6-0.8-0.9-1.5-0.9c-1,0-1.5,0.8-1.6,2.3L52.4,271.3z"/>
	<path class="st1" d="M60.3,263.6c0-0.4,0.2-0.8,0.5-1.1c0.3-0.3,0.7-0.4,1.2-0.4c0.5,0,0.9,0.1,1.2,0.4c0.3,0.3,0.5,0.6,0.5,1.1
		s-0.2,0.8-0.5,1.1s-0.7,0.4-1.2,0.4c-0.5,0-0.9-0.1-1.2-0.4C60.4,264.4,60.3,264.1,60.3,263.6z M63.6,276.2h-3.1v-10h3.1V276.2z"/>
	<path class="st1" d="M69.1,263.7v2.5h1.6v2.2h-1.6v4.6c0,0.4,0.1,0.6,0.2,0.8c0.1,0.1,0.4,0.2,0.8,0.2c0.3,0,0.6,0,0.8-0.1v2.2
		c-0.6,0.2-1.1,0.3-1.8,0.3c-1.1,0-1.9-0.3-2.4-0.8c-0.5-0.5-0.8-1.3-0.8-2.3v-5h-1.3v-2.2H66v-2.5H69.1z"/>
	<path class="st1" d="M82.8,269l-1-0.1c-1,0-1.6,0.3-1.9,0.9v6.3h-3.1v-10h2.9l0.1,1.3c0.5-1,1.3-1.5,2.2-1.5c0.3,0,0.6,0,0.9,0.1
		L82.8,269z"/>
	<path class="st1" d="M88.7,276.4c-1.5,0-2.8-0.5-3.7-1.4c-0.9-0.9-1.4-2.1-1.4-3.6v-0.3c0-1,0.2-1.9,0.6-2.7
		c0.4-0.8,0.9-1.4,1.7-1.8s1.6-0.6,2.6-0.6c1.4,0,2.5,0.4,3.3,1.3c0.8,0.9,1.2,2.1,1.2,3.6v1.2h-6.2c0.1,0.6,0.4,1,0.7,1.3
		c0.4,0.3,0.9,0.5,1.5,0.5c1,0,1.8-0.3,2.3-1l1.4,1.7c-0.4,0.5-0.9,1-1.6,1.3C90.3,276.2,89.5,276.4,88.7,276.4z M88.4,268.4
		c-0.9,0-1.5,0.6-1.6,1.8h3.1V270c0-0.5-0.1-0.9-0.4-1.2C89.2,268.5,88.8,268.4,88.4,268.4z"/>
	<path class="st1" d="M103.4,271.3c0,1.6-0.3,2.8-1,3.7c-0.7,0.9-1.6,1.4-2.8,1.4c-0.9,0-1.7-0.3-2.3-1v4.7h-3.1v-13.8h2.9l0.1,0.9
		c0.6-0.7,1.4-1.1,2.4-1.1c1.2,0,2.2,0.5,2.9,1.4c0.7,0.9,1,2.2,1,3.7V271.3z M100.3,271.1c0-1.8-0.5-2.7-1.6-2.7
		c-0.7,0-1.2,0.3-1.5,0.8v3.9c0.3,0.6,0.8,0.8,1.5,0.8c1,0,1.5-0.9,1.5-2.6V271.1z"/>
	<path class="st1" d="M104.4,271.1c0-1,0.2-1.9,0.6-2.7c0.4-0.8,0.9-1.4,1.7-1.8s1.6-0.6,2.6-0.6c1.5,0,2.7,0.5,3.5,1.4
		s1.3,2.2,1.3,3.8v0.1c0,1.6-0.4,2.8-1.3,3.7s-2,1.4-3.5,1.4c-1.4,0-2.6-0.4-3.4-1.3c-0.9-0.9-1.3-2-1.4-3.5L104.4,271.1z
		 M107.5,271.3c0,0.9,0.1,1.6,0.4,2c0.3,0.4,0.7,0.6,1.3,0.6c1.1,0,1.7-0.9,1.7-2.6v-0.3c0-1.8-0.6-2.7-1.7-2.7
		c-1,0-1.6,0.8-1.7,2.3L107.5,271.3z"/>
	<path class="st1" d="M121.5,269l-1-0.1c-1,0-1.6,0.3-1.9,0.9v6.3h-3.1v-10h2.9l0.1,1.3c0.5-1,1.3-1.5,2.2-1.5c0.3,0,0.6,0,0.9,0.1
		L121.5,269z"/>
	<path class="st1" d="M126.7,263.7v2.5h1.6v2.2h-1.6v4.6c0,0.4,0.1,0.6,0.2,0.8c0.1,0.1,0.4,0.2,0.8,0.2c0.3,0,0.6,0,0.8-0.1v2.2
		c-0.6,0.2-1.1,0.3-1.8,0.3c-1.1,0-1.9-0.3-2.4-0.8c-0.5-0.5-0.8-1.3-0.8-2.3v-5h-1.3v-2.2h1.3v-2.5H126.7z"/>
	<path class="st1" d="M134.8,273.4c0-0.3-0.1-0.5-0.4-0.6c-0.3-0.2-0.8-0.3-1.6-0.5c-0.8-0.2-1.4-0.4-1.9-0.7s-0.9-0.6-1.2-1
		s-0.4-0.9-0.4-1.4c0-0.9,0.4-1.7,1.1-2.3c0.8-0.6,1.7-0.9,3-0.9c1.3,0,2.4,0.3,3.2,0.9c0.8,0.6,1.2,1.4,1.2,2.4h-3.1
		c0-0.8-0.4-1.2-1.3-1.2c-0.3,0-0.6,0.1-0.8,0.3s-0.3,0.4-0.3,0.7c0,0.3,0.1,0.5,0.4,0.7c0.3,0.2,0.7,0.3,1.3,0.4
		c0.6,0.1,1.1,0.2,1.6,0.4c1.5,0.5,2.3,1.4,2.3,2.8c0,0.9-0.4,1.7-1.2,2.2c-0.8,0.6-1.9,0.9-3.1,0.9c-0.9,0-1.6-0.2-2.3-0.5
		c-0.7-0.3-1.2-0.7-1.6-1.3c-0.4-0.5-0.6-1.1-0.6-1.7h2.9c0,0.5,0.2,0.8,0.5,1c0.3,0.2,0.7,0.3,1.1,0.3c0.4,0,0.7-0.1,1-0.3
		C134.7,273.9,134.8,273.6,134.8,273.4z"/>
	<path class="st1" d="M37.2,301.6c-0.1-0.2-0.2-0.5-0.3-0.9c-0.6,0.7-1.4,1.1-2.4,1.1c-0.9,0-1.7-0.3-2.4-0.9c-0.7-0.6-1-1.3-1-2.1
		c0-1.1,0.4-1.9,1.2-2.5c0.8-0.6,2-0.8,3.5-0.8h1v-0.5c0-0.9-0.4-1.4-1.2-1.4c-0.7,0-1.1,0.4-1.1,1.1h-3.1c0-1,0.4-1.8,1.2-2.4
		s1.9-0.9,3.1-0.9s2.3,0.3,3,0.9c0.7,0.6,1.1,1.5,1.1,2.6v4.4c0,0.9,0.2,1.6,0.4,2.1v0.2H37.2z M35.3,299.5c0.4,0,0.7-0.1,1-0.2
		c0.3-0.2,0.4-0.4,0.5-0.6v-1.6h-0.9c-1.1,0-1.6,0.5-1.6,1.5c0,0.3,0.1,0.5,0.3,0.7S35,299.5,35.3,299.5z"/>
	<path class="st1" d="M44.5,291.6l0.1,1.2c0.7-0.9,1.6-1.4,2.9-1.4c1,0,1.8,0.3,2.3,0.9s0.8,1.6,0.8,2.8v6.4h-3.1v-6.3
		c0-0.5-0.1-0.9-0.3-1.1c-0.2-0.2-0.6-0.4-1.1-0.4c-0.6,0-1.1,0.2-1.4,0.7v7.1h-3.1v-10H44.5z"/>
	<path class="st1" d="M51.9,296.5c0-1.6,0.3-2.8,1-3.7c0.7-0.9,1.6-1.4,2.9-1.4c0.9,0,1.6,0.4,2.3,1.1v-5.1h3.1v14.2h-2.8l-0.2-1.1
		c-0.6,0.8-1.5,1.3-2.4,1.3c-1.2,0-2.1-0.5-2.8-1.4C52.3,299.5,51.9,298.2,51.9,296.5z M55,296.7c0,1.8,0.5,2.7,1.6,2.7
		c0.7,0,1.2-0.3,1.5-0.9v-3.8c-0.3-0.6-0.8-0.9-1.5-0.9c-1,0-1.5,0.8-1.6,2.3L55,296.7z"/>
	<path class="st1" d="M72.9,298.7c0-0.3-0.1-0.5-0.4-0.6c-0.3-0.2-0.8-0.3-1.6-0.5c-0.8-0.2-1.4-0.4-1.9-0.7s-0.9-0.6-1.2-1
		s-0.4-0.9-0.4-1.4c0-0.9,0.4-1.7,1.1-2.3c0.8-0.6,1.7-0.9,3-0.9c1.3,0,2.4,0.3,3.2,0.9c0.8,0.6,1.2,1.4,1.2,2.4h-3.1
		c0-0.8-0.4-1.2-1.3-1.2c-0.3,0-0.6,0.1-0.8,0.3s-0.3,0.4-0.3,0.7c0,0.3,0.1,0.5,0.4,0.7c0.3,0.2,0.7,0.3,1.3,0.4
		c0.6,0.1,1.1,0.2,1.6,0.4c1.5,0.5,2.3,1.4,2.3,2.8c0,0.9-0.4,1.7-1.2,2.2c-0.8,0.6-1.9,0.9-3.1,0.9c-0.9,0-1.6-0.2-2.3-0.5
		c-0.7-0.3-1.2-0.7-1.6-1.3c-0.4-0.5-0.6-1.1-0.6-1.7H70c0,0.5,0.2,0.8,0.5,1c0.3,0.2,0.7,0.3,1.1,0.3c0.4,0,0.7-0.1,1-0.3
		C72.8,299.3,72.9,299,72.9,298.7z"/>
	<path class="st1" d="M81.6,299.3c0.4,0,0.8-0.1,1-0.4c0.2-0.2,0.4-0.6,0.4-1h2.9c0,1.1-0.4,2-1.2,2.7c-0.8,0.7-1.8,1.1-3,1.1
		c-1.5,0-2.6-0.5-3.4-1.4c-0.8-0.9-1.3-2.2-1.3-3.8v-0.1c0-1,0.2-1.9,0.6-2.7s0.9-1.4,1.6-1.8c0.7-0.4,1.5-0.6,2.5-0.6
		c1.3,0,2.3,0.4,3.1,1.1s1.1,1.7,1.1,2.9h-2.9c0-0.5-0.1-0.9-0.4-1.2c-0.3-0.3-0.6-0.4-1-0.4c-0.8,0-1.3,0.5-1.4,1.5
		c0,0.3-0.1,0.8-0.1,1.3c0,1,0.1,1.7,0.4,2.1C80.7,299.1,81,299.3,81.6,299.3z"/>
	<path class="st1" d="M86.8,296.5c0-1,0.2-1.9,0.6-2.7c0.4-0.8,0.9-1.4,1.7-1.8s1.6-0.6,2.6-0.6c1.5,0,2.7,0.5,3.5,1.4
		c0.9,0.9,1.3,2.2,1.3,3.8v0.1c0,1.6-0.4,2.8-1.3,3.7c-0.9,0.9-2,1.4-3.5,1.4c-1.4,0-2.6-0.4-3.4-1.3c-0.9-0.9-1.3-2-1.4-3.5
		L86.8,296.5z M89.9,296.7c0,0.9,0.1,1.6,0.4,2c0.3,0.4,0.7,0.6,1.3,0.6c1.1,0,1.7-0.9,1.7-2.6v-0.3c0-1.8-0.6-2.7-1.7-2.7
		c-1,0-1.6,0.8-1.7,2.3L89.9,296.7z"/>
	<path class="st1" d="M103.8,294.4l-1-0.1c-1,0-1.6,0.3-1.9,0.9v6.3h-3.1v-10h2.9l0.1,1.3c0.5-1,1.3-1.5,2.2-1.5
		c0.3,0,0.6,0,0.9,0.1L103.8,294.4z"/>
	<path class="st1" d="M109.8,301.7c-1.5,0-2.8-0.5-3.7-1.4c-0.9-0.9-1.4-2.1-1.4-3.6v-0.3c0-1,0.2-1.9,0.6-2.7
		c0.4-0.8,0.9-1.4,1.7-1.8s1.6-0.6,2.6-0.6c1.4,0,2.5,0.4,3.3,1.3s1.2,2.1,1.2,3.6v1.2h-6.2c0.1,0.6,0.4,1,0.7,1.3
		c0.4,0.3,0.9,0.5,1.5,0.5c1,0,1.8-0.3,2.3-1l1.4,1.7c-0.4,0.5-0.9,1-1.6,1.3C111.4,301.6,110.6,301.7,109.8,301.7z M109.4,293.8
		c-0.9,0-1.5,0.6-1.6,1.8h3.1v-0.2c0-0.5-0.1-0.9-0.4-1.2C110.3,293.9,109.9,293.8,109.4,293.8z"/>
	<path class="st1" d="M120.5,298.7c0-0.3-0.1-0.5-0.4-0.6c-0.3-0.2-0.8-0.3-1.6-0.5c-0.8-0.2-1.4-0.4-1.9-0.7s-0.9-0.6-1.2-1
		s-0.4-0.9-0.4-1.4c0-0.9,0.4-1.7,1.1-2.3c0.8-0.6,1.7-0.9,3-0.9c1.3,0,2.4,0.3,3.2,0.9c0.8,0.6,1.2,1.4,1.2,2.4h-3.1
		c0-0.8-0.4-1.2-1.3-1.2c-0.3,0-0.6,0.1-0.8,0.3s-0.3,0.4-0.3,0.7c0,0.3,0.1,0.5,0.4,0.7c0.3,0.2,0.7,0.3,1.3,0.4
		c0.6,0.1,1.1,0.2,1.6,0.4c1.5,0.5,2.3,1.4,2.3,2.8c0,0.9-0.4,1.7-1.2,2.2c-0.8,0.6-1.9,0.9-3.1,0.9c-0.9,0-1.6-0.2-2.3-0.5
		c-0.7-0.3-1.2-0.7-1.6-1.3c-0.4-0.5-0.6-1.1-0.6-1.7h2.9c0,0.5,0.2,0.8,0.5,1c0.3,0.2,0.7,0.3,1.1,0.3c0.4,0,0.7-0.1,1-0.3
		C120.4,299.3,120.5,299,120.5,298.7z"/>
	<path class="st1" d="M126,305.2l-1.6-0.7l0.3-0.6c0.4-0.8,0.7-1.6,0.7-2.3v-2.3h2.5l0,2c0,0.7-0.2,1.4-0.5,2.2
		C127,304.1,126.6,304.7,126,305.2z"/>
	<path class="st0" d="M17.6,325.7c-0.1-0.2-0.2-0.5-0.3-0.9c-0.6,0.7-1.4,1.1-2.4,1.1c-0.9,0-1.7-0.3-2.4-0.9c-0.7-0.6-1-1.3-1-2.1
		c0-1.1,0.4-1.9,1.2-2.5c0.8-0.6,2-0.8,3.5-0.8h1v-0.5c0-0.9-0.4-1.4-1.2-1.4c-0.7,0-1.1,0.4-1.1,1.1h-3.1c0-1,0.4-1.8,1.2-2.4
		s1.9-0.9,3.1-0.9s2.3,0.3,3,0.9c0.7,0.6,1.1,1.5,1.1,2.6v4.4c0,0.9,0.2,1.6,0.4,2.1v0.2H17.6z M15.7,323.7c0.4,0,0.7-0.1,1-0.2
		c0.3-0.2,0.4-0.4,0.5-0.6v-1.6h-0.9c-1.1,0-1.6,0.5-1.6,1.5c0,0.3,0.1,0.5,0.3,0.7S15.4,323.7,15.7,323.7z"/>
	<path class="st0" d="M25.3,325.7h-3.1v-14.2h3.1V325.7z"/>
	<path class="st0" d="M30.5,325.7h-3.1v-14.2h3.1V325.7z"/>
	<path class="st0" d="M37.1,313.1c0-0.4,0.2-0.8,0.5-1.1c0.3-0.3,0.7-0.4,1.2-0.4c0.5,0,0.9,0.1,1.2,0.4c0.3,0.3,0.5,0.6,0.5,1.1
		s-0.2,0.8-0.5,1.1s-0.7,0.4-1.2,0.4c-0.5,0-0.9-0.1-1.2-0.4C37.3,314,37.1,313.6,37.1,313.1z M40.4,325.7h-3.1v-10h3.1V325.7z"/>
	<path class="st0" d="M45.2,315.7l0.1,1.2c0.7-0.9,1.6-1.4,2.9-1.4c1,0,1.8,0.3,2.3,0.9s0.8,1.6,0.8,2.8v6.4h-3.1v-6.3
		c0-0.5-0.1-0.9-0.3-1.1c-0.2-0.2-0.6-0.4-1.1-0.4c-0.6,0-1.1,0.2-1.4,0.7v7.1h-3.1v-10H45.2z"/>
	<path class="st0" d="M57.3,320.6c0-1,0.2-1.9,0.6-2.7c0.4-0.8,0.9-1.4,1.7-1.8s1.6-0.6,2.6-0.6c1.5,0,2.7,0.5,3.5,1.4
		s1.3,2.2,1.3,3.8v0.1c0,1.6-0.4,2.8-1.3,3.7c-0.9,0.9-2,1.4-3.5,1.4c-1.4,0-2.6-0.4-3.4-1.3c-0.9-0.9-1.3-2-1.4-3.5L57.3,320.6z
		 M60.4,320.8c0,0.9,0.1,1.6,0.4,2c0.3,0.4,0.7,0.6,1.3,0.6c1.1,0,1.7-0.9,1.7-2.6v-0.3c0-1.8-0.6-2.7-1.7-2.7c-1,0-1.6,0.8-1.7,2.3
		L60.4,320.8z"/>
	<path class="st0" d="M71.2,315.7l0.1,1.2c0.7-0.9,1.6-1.4,2.9-1.4c1,0,1.8,0.3,2.3,0.9s0.8,1.6,0.8,2.8v6.4h-3.1v-6.3
		c0-0.5-0.1-0.9-0.3-1.1c-0.2-0.2-0.6-0.4-1.1-0.4c-0.6,0-1.1,0.2-1.4,0.7v7.1h-3.1v-10H71.2z"/>
	<path class="st0" d="M83.8,325.9c-1.5,0-2.8-0.5-3.7-1.4s-1.4-2.1-1.4-3.6v-0.3c0-1,0.2-1.9,0.6-2.7c0.4-0.8,0.9-1.4,1.7-1.8
		c0.7-0.4,1.6-0.6,2.6-0.6c1.4,0,2.5,0.4,3.3,1.3c0.8,0.9,1.2,2.1,1.2,3.6v1.2h-6.2c0.1,0.6,0.4,1,0.7,1.3c0.4,0.3,0.9,0.5,1.5,0.5
		c1,0,1.8-0.3,2.3-1l1.4,1.7c-0.4,0.5-0.9,1-1.6,1.3C85.4,325.7,84.6,325.9,83.8,325.9z M83.5,317.9c-0.9,0-1.5,0.6-1.6,1.8H85v-0.2
		c0-0.5-0.1-0.9-0.4-1.2C84.3,318.1,84,317.9,83.5,317.9z"/>
	<path class="st0" d="M103.3,320.8c0,1.6-0.3,2.8-1,3.7c-0.7,0.9-1.6,1.4-2.8,1.4c-0.9,0-1.7-0.3-2.3-1v4.7H94v-13.8h2.9l0.1,0.9
		c0.6-0.7,1.4-1.1,2.4-1.1c1.2,0,2.2,0.5,2.9,1.4s1,2.2,1,3.7V320.8z M100.2,320.6c0-1.8-0.5-2.7-1.6-2.7c-0.7,0-1.2,0.3-1.5,0.8
		v3.9c0.3,0.6,0.8,0.8,1.5,0.8c1,0,1.5-0.9,1.5-2.6V320.6z"/>
	<path class="st0" d="M107.9,325.7h-3.1v-14.2h3.1V325.7z"/>
	<path class="st0" d="M115.5,325.7c-0.1-0.2-0.2-0.5-0.3-0.9c-0.6,0.7-1.4,1.1-2.4,1.1c-0.9,0-1.7-0.3-2.4-0.9c-0.7-0.6-1-1.3-1-2.1
		c0-1.1,0.4-1.9,1.2-2.5c0.8-0.6,2-0.8,3.5-0.8h1v-0.5c0-0.9-0.4-1.4-1.2-1.4c-0.7,0-1.1,0.4-1.1,1.1h-3.1c0-1,0.4-1.8,1.2-2.4
		s1.9-0.9,3.1-0.9s2.3,0.3,3,0.9c0.7,0.6,1.1,1.5,1.1,2.6v4.4c0,0.9,0.2,1.6,0.4,2.1v0.2H115.5z M113.5,323.7c0.4,0,0.7-0.1,1-0.2
		c0.3-0.2,0.4-0.4,0.5-0.6v-1.6h-0.9c-1.1,0-1.6,0.5-1.6,1.5c0,0.3,0.1,0.5,0.3,0.7S113.2,323.7,113.5,323.7z"/>
	<path class="st0" d="M124.1,323.5c0.4,0,0.8-0.1,1-0.4c0.2-0.2,0.4-0.6,0.4-1h2.9c0,1.1-0.4,2-1.2,2.7s-1.8,1.1-3,1.1
		c-1.5,0-2.6-0.5-3.4-1.4c-0.8-0.9-1.3-2.2-1.3-3.8v-0.1c0-1,0.2-1.9,0.6-2.7c0.4-0.8,0.9-1.4,1.6-1.8s1.5-0.6,2.5-0.6
		c1.3,0,2.3,0.4,3.1,1.1c0.8,0.7,1.1,1.7,1.1,2.9h-2.9c0-0.5-0.1-0.9-0.4-1.2c-0.3-0.3-0.6-0.4-1-0.4c-0.8,0-1.3,0.5-1.4,1.5
		c0,0.3-0.1,0.8-0.1,1.3c0,1,0.1,1.7,0.4,2.1C123.2,323.3,123.6,323.5,124.1,323.5z"/>
	<path class="st0" d="M134.5,325.9c-1.5,0-2.8-0.5-3.7-1.4s-1.4-2.1-1.4-3.6v-0.3c0-1,0.2-1.9,0.6-2.7c0.4-0.8,0.9-1.4,1.7-1.8
		s1.6-0.6,2.6-0.6c1.4,0,2.5,0.4,3.3,1.3s1.2,2.1,1.2,3.6v1.2h-6.2c0.1,0.6,0.4,1,0.7,1.3c0.4,0.3,0.9,0.5,1.5,0.5
		c1,0,1.8-0.3,2.3-1l1.4,1.7c-0.4,0.5-0.9,1-1.6,1.3S135.4,325.9,134.5,325.9z M134.2,317.9c-0.9,0-1.5,0.6-1.6,1.8h3.1v-0.2
		c0-0.5-0.1-0.9-0.4-1.2C135.1,318.1,134.7,317.9,134.2,317.9z"/>
	<path class="st0" d="M142.3,321.5c0-0.9,0.1-1.6,0.3-2.1c0.2-0.5,0.5-1,1-1.4s0.8-0.7,1-1s0.4-0.7,0.4-1c0-0.9-0.4-1.4-1.2-1.4
		c-0.4,0-0.7,0.1-0.9,0.4c-0.2,0.3-0.3,0.6-0.4,1.1h-3.1c0-1.2,0.4-2.2,1.2-2.9c0.8-0.7,1.8-1,3.2-1c1.4,0,2.4,0.3,3.2,1
		s1.1,1.5,1.1,2.7c0,0.5-0.1,1-0.3,1.4c-0.2,0.4-0.5,0.8-1,1.3l-1.1,1c-0.3,0.3-0.5,0.6-0.6,0.9c-0.1,0.3-0.2,0.7-0.2,1.2H142.3z
		 M141.9,324.3c0-0.5,0.2-0.8,0.5-1.1c0.3-0.3,0.7-0.4,1.2-0.4c0.5,0,0.9,0.1,1.2,0.4c0.3,0.3,0.5,0.7,0.5,1.1
		c0,0.5-0.2,0.8-0.5,1.1c-0.3,0.3-0.7,0.4-1.2,0.4c-0.5,0-0.9-0.1-1.2-0.4C142.1,325.1,141.9,324.7,141.9,324.3z"/>
</g>
</svg>
