<?xml version="1.0" encoding="utf-8"?>
<!-- Generator: Adobe Illustrator 26.0.3, SVG Export Plug-In . SVG Version: 6.00 Build 0)  -->
<svg version="1.1" id="Layer_1" xmlns="http://www.w3.org/2000/svg" xmlns:xlink="http://www.w3.org/1999/xlink" x="0px" y="0px"
	 viewBox="0 0 160 600" style="enable-background:new 0 0 160 600;" xml:space="preserve">
<style type="text/css">
	.st0{clip-path:url(#SVGID_00000026866935438122080560000015968090313525098666_);}
	.st1{clip-path:url(#SVGID_00000014624414547069371180000017031521635421829760_);fill:#FFFFFF;}
</style>
<g>
	<defs>
		<rect id="SVGID_1_" x="23.3" y="13.6" width="113.2" height="32.6"/>
	</defs>
	<clipPath id="SVGID_00000149381310912571760240000005161027678625130634_">
		<use xlink:href="#SVGID_1_"  style="overflow:visible;"/>
	</clipPath>
	<g style="clip-path:url(#SVGID_00000149381310912571760240000005161027678625130634_);">
		<defs>
			<rect id="SVGID_00000148631144005448259640000002474498290856549292_" x="23.3" y="13.6" width="113.2" height="32.6"/>
		</defs>
		<clipPath id="SVGID_00000155131709031832825490000005963800537181160327_">
			<use xlink:href="#SVGID_00000148631144005448259640000002474498290856549292_"  style="overflow:visible;"/>
		</clipPath>
		<path style="clip-path:url(#SVGID_00000155131709031832825490000005963800537181160327_);fill:#FFFFFF;" d="M132.6,27
			c0-0.2,0.1-0.4,0.2-0.5c0.1-0.1,0.3-0.2,0.5-0.2c0.2,0,0.3,0.1,0.5,0.2c0.1,0.1,0.2,0.3,0.2,0.5v7.7c0,0.2-0.1,0.4-0.2,0.5
			c-0.1,0.1-0.3,0.2-0.5,0.2c-0.2,0-0.3-0.1-0.5-0.2c-0.1-0.1-0.2-0.3-0.2-0.5V27z"/>
		<path style="clip-path:url(#SVGID_00000155131709031832825490000005963800537181160327_);fill:#FFFFFF;" d="M93.7,39.2
			c-0.6,0.4-1.2,0.6-2,0.6c-0.4,0-0.8-0.1-1-0.2c-0.2-0.1-0.5-0.2-0.7-0.3c-0.2-0.1-0.3-0.3-0.3-0.6c0-0.2,0.1-0.4,0.2-0.5
			c0.1-0.1,0.3-0.2,0.5-0.2c0.2,0,0.3,0,0.4,0.1c0.3,0.2,0.6,0.3,1,0.3c0.3,0,0.5,0,0.7-0.1c0.2-0.1,0.4-0.2,0.6-0.4
			c0.2-0.2,0.3-0.4,0.4-0.6c0.1-0.2,0.2-0.5,0.2-0.7v-5.2c0-0.2,0.1-0.4,0.2-0.5c0.1-0.1,0.3-0.2,0.5-0.2c0.2,0,0.3,0.1,0.5,0.2
			c0.1,0.1,0.2,0.3,0.2,0.5v5.3C95.1,37.7,94.6,38.6,93.7,39.2"/>
		<path style="clip-path:url(#SVGID_00000155131709031832825490000005963800537181160327_);fill:#FFFFFF;" d="M62.5,23.9
			c0-0.2,0.1-0.4,0.2-0.5c0.1-0.1,0.3-0.2,0.5-0.2c0.2,0,0.3,0.1,0.5,0.2c0.1,0.1,0.2,0.3,0.2,0.5v0.5c0,0.2-0.1,0.4-0.2,0.5
			c-0.1,0.1-0.3,0.2-0.5,0.2c-0.2,0-0.3-0.1-0.5-0.2c-0.1-0.1-0.2-0.3-0.2-0.5V23.9z M62.5,27.1c0-0.2,0.1-0.4,0.2-0.5
			c0.1-0.1,0.3-0.2,0.5-0.2c0.2,0,0.3,0.1,0.5,0.2c0.1,0.1,0.2,0.3,0.2,0.5v7.6c0,0.2-0.1,0.4-0.2,0.5c-0.1,0.1-0.3,0.2-0.5,0.2
			c-0.2,0-0.3-0.1-0.5-0.2c-0.1-0.1-0.2-0.3-0.2-0.5V27.1z"/>
		<path style="clip-path:url(#SVGID_00000155131709031832825490000005963800537181160327_);fill:#FFFFFF;" d="M56.5,27.3
			c0-0.2,0.1-0.3,0.2-0.5c0.1-0.1,0.3-0.2,0.5-0.2c0.2,0,0.3,0.1,0.4,0.2c0.1,0.1,0.2,0.2,0.2,0.4c0.6-0.4,1.2-0.6,2-0.6
			c0.4,0,0.7,0.1,1,0.2c0.2,0.1,0.5,0.2,0.7,0.3c0.2,0.1,0.3,0.3,0.3,0.6c0,0.2-0.1,0.4-0.2,0.5c-0.1,0.1-0.3,0.2-0.5,0.2
			c-0.2,0-0.3,0-0.4-0.1c-0.3-0.2-0.6-0.2-0.9-0.2c-0.3,0-0.5,0-0.7,0.1c-0.2,0.1-0.4,0.2-0.6,0.4c-0.2,0.2-0.3,0.3-0.4,0.6
			c-0.1,0.2-0.1,0.4-0.2,0.7v5.1c0,0.2-0.1,0.4-0.2,0.5c-0.1,0.1-0.3,0.2-0.5,0.2c-0.2,0-0.3-0.1-0.5-0.2c-0.1-0.1-0.2-0.3-0.2-0.5
			v-5.1V27.3z"/>
		<path style="clip-path:url(#SVGID_00000155131709031832825490000005963800537181160327_);fill:#FFFFFF;" d="M64.8,27.4
			c0-0.1-0.1-0.2-0.1-0.3c0-0.2,0.1-0.3,0.2-0.5c0.1-0.1,0.3-0.2,0.5-0.2c0.1,0,0.3,0,0.4,0.1c0.1,0.1,0.2,0.2,0.3,0.3l2.7,6.3
			l2.7-6.3c0.1-0.3,0.3-0.4,0.6-0.4c0.2,0,0.4,0.1,0.5,0.2c0.1,0.1,0.2,0.3,0.2,0.5c0,0.1,0,0.2-0.1,0.3l-3.3,7.7
			c-0.1,0.3-0.3,0.4-0.6,0.4c-0.3,0-0.5-0.1-0.6-0.4L64.8,27.4z"/>
		<path style="clip-path:url(#SVGID_00000155131709031832825490000005963800537181160327_);fill:#FFFFFF;" d="M73,29.6
			c0-0.4,0.1-0.9,0.3-1.3c0.2-0.4,0.4-0.7,0.7-1c0.3-0.3,0.7-0.5,1-0.7c0.4-0.2,0.8-0.3,1.3-0.3c0.4,0,0.9,0.1,1.3,0.3
			c0.4,0.2,0.7,0.4,1,0.7c0.3,0.3,0.5,0.6,0.7,1s0.3,0.8,0.3,1.3v5.1c0,0.2-0.1,0.4-0.2,0.5c-0.1,0.1-0.3,0.2-0.5,0.2
			c-0.2,0-0.3-0.1-0.4-0.2c-0.1-0.1-0.2-0.2-0.2-0.4c-0.6,0.4-1.2,0.6-1.9,0.6c-0.4,0-0.9-0.1-1.3-0.3c-0.4-0.2-0.7-0.4-1-0.7
			c-0.3-0.3-0.5-0.6-0.7-1c-0.2-0.4-0.3-0.8-0.3-1.3V29.6z M74.4,32.2c0,0.3,0.1,0.5,0.2,0.7c0.1,0.2,0.2,0.4,0.4,0.6
			c0.2,0.2,0.4,0.3,0.6,0.4c0.2,0.1,0.5,0.1,0.7,0.1s0.5,0,0.7-0.1c0.2-0.1,0.4-0.2,0.6-0.4c0.2-0.2,0.3-0.4,0.4-0.6
			s0.2-0.5,0.2-0.7v-2.7c0-0.3-0.1-0.5-0.2-0.7c-0.1-0.2-0.2-0.4-0.4-0.6c-0.2-0.2-0.4-0.3-0.6-0.4c-0.2-0.1-0.5-0.1-0.7-0.1
			c-0.3,0-0.5,0-0.7,0.1c-0.2,0.1-0.4,0.2-0.6,0.4c-0.2,0.2-0.3,0.4-0.4,0.6c-0.1,0.2-0.1,0.5-0.1,0.7V32.2z"/>
		<path style="clip-path:url(#SVGID_00000155131709031832825490000005963800537181160327_);fill:#FFFFFF;" d="M80.9,29.6
			c0-0.5,0.1-0.9,0.3-1.3c0.2-0.4,0.4-0.7,0.7-1c0.3-0.3,0.7-0.5,1.1-0.7c0.4-0.2,0.8-0.3,1.3-0.3c0.1,0,0.3,0,0.5,0
			c0.2,0,0.5,0.1,0.8,0.2c0.3,0.1,0.6,0.3,0.9,0.6c0.3,0.3,0.5,0.7,0.7,1.1c0,0.1,0.1,0.2,0.1,0.3c0,0.2-0.1,0.4-0.2,0.5
			c-0.1,0.1-0.3,0.2-0.5,0.2c-0.1,0-0.3,0-0.4-0.1c-0.1-0.1-0.2-0.2-0.2-0.3c-0.2-0.4-0.4-0.6-0.7-0.9c-0.3-0.2-0.7-0.3-1-0.3
			c-0.3,0-0.5,0-0.7,0.1c-0.2,0.1-0.4,0.2-0.6,0.4c-0.2,0.2-0.3,0.4-0.4,0.6c-0.1,0.2-0.1,0.5-0.1,0.7v2.6c0,0.3,0.1,0.5,0.2,0.7
			c0.1,0.2,0.2,0.4,0.4,0.6c0.2,0.2,0.4,0.3,0.6,0.4c0.2,0.1,0.5,0.1,0.7,0.1c0.4,0,0.7-0.1,1.1-0.3c0.3-0.2,0.6-0.5,0.7-0.9
			c0.1-0.1,0.1-0.2,0.3-0.3c0.1-0.1,0.2-0.1,0.4-0.1c0.2,0,0.4,0.1,0.5,0.2c0.1,0.1,0.2,0.3,0.2,0.5c0,0.1,0,0.2-0.1,0.3
			c-0.2,0.5-0.5,0.9-0.9,1.2c-0.3,0.3-0.7,0.5-1,0.6c-0.3,0.1-0.6,0.2-0.8,0.2c-0.2,0-0.3,0-0.4,0c-0.4,0-0.9-0.1-1.3-0.3
			c-0.4-0.2-0.7-0.4-1-0.7c-0.3-0.3-0.5-0.6-0.7-1c-0.2-0.4-0.3-0.8-0.3-1.3V29.6z"/>
		<path style="clip-path:url(#SVGID_00000155131709031832825490000005963800537181160327_);fill:#FFFFFF;" d="M105.9,27.1
			c0-0.2,0.1-0.4,0.2-0.5c0.1-0.1,0.3-0.2,0.5-0.2c0.2,0,0.3,0.1,0.5,0.2c0.1,0.1,0.2,0.3,0.2,0.5v5.1c0,0.3,0,0.5,0.1,0.7
			c0.1,0.2,0.2,0.4,0.4,0.6c0.2,0.2,0.4,0.3,0.6,0.4c0.2,0.1,0.5,0.1,0.7,0.1c0.3,0,0.5,0,0.7-0.1c0.2-0.1,0.4-0.2,0.6-0.4
			c0.2-0.2,0.3-0.4,0.4-0.6c0.1-0.2,0.2-0.5,0.2-0.7v-5.1c0-0.2,0.1-0.4,0.2-0.5c0.1-0.1,0.3-0.2,0.5-0.2c0.2,0,0.3,0.1,0.5,0.2
			c0.1,0.1,0.2,0.3,0.2,0.5v5.1c0,0.4-0.1,0.9-0.3,1.3c-0.2,0.4-0.4,0.7-0.7,1c-0.3,0.3-0.6,0.5-1,0.7c-0.4,0.2-0.8,0.3-1.3,0.3
			c-0.5,0-0.9-0.1-1.3-0.3c-0.4-0.2-0.7-0.4-1-0.7c-0.3-0.3-0.5-0.6-0.7-1c-0.2-0.4-0.3-0.8-0.3-1.3V27.1z"/>
		<path style="clip-path:url(#SVGID_00000155131709031832825490000005963800537181160327_);fill:#FFFFFF;" d="M113.8,29.6
			c0-0.4,0.1-0.9,0.3-1.3c0.2-0.4,0.4-0.7,0.7-1c0.3-0.3,0.7-0.5,1-0.7c0.4-0.2,0.8-0.3,1.3-0.3c0.4,0,0.9,0.1,1.3,0.3
			c0.4,0.2,0.7,0.4,1,0.7c0.3,0.3,0.5,0.6,0.7,1s0.3,0.8,0.3,1.3v5.1c0,0.2-0.1,0.4-0.2,0.5c-0.1,0.1-0.3,0.2-0.5,0.2
			c-0.2,0-0.3-0.1-0.4-0.2c-0.1-0.1-0.2-0.2-0.2-0.4c-0.6,0.4-1.2,0.6-1.9,0.6c-0.4,0-0.9-0.1-1.3-0.3c-0.4-0.2-0.7-0.4-1-0.7
			c-0.3-0.3-0.5-0.6-0.7-1c-0.2-0.4-0.3-0.8-0.3-1.3V29.6z M115.2,32.2c0,0.3,0.1,0.5,0.2,0.7c0.1,0.2,0.2,0.4,0.4,0.6
			c0.2,0.2,0.4,0.3,0.6,0.4c0.2,0.1,0.5,0.1,0.7,0.1c0.3,0,0.5,0,0.7-0.1c0.2-0.1,0.4-0.2,0.6-0.4c0.2-0.2,0.3-0.4,0.4-0.6
			c0.1-0.2,0.2-0.5,0.2-0.7v-2.7c0-0.3-0.1-0.5-0.2-0.7c-0.1-0.2-0.2-0.4-0.4-0.6c-0.2-0.2-0.4-0.3-0.6-0.4
			c-0.2-0.1-0.5-0.1-0.7-0.1c-0.3,0-0.5,0-0.7,0.1c-0.2,0.1-0.4,0.2-0.6,0.4c-0.2,0.2-0.3,0.4-0.4,0.6c-0.1,0.2-0.1,0.5-0.1,0.7
			V32.2z"/>
		<path style="clip-path:url(#SVGID_00000155131709031832825490000005963800537181160327_);fill:#FFFFFF;" d="M121.8,27.3
			c0-0.2,0.1-0.3,0.2-0.5c0.1-0.1,0.3-0.2,0.5-0.2c0.2,0,0.3,0.1,0.4,0.2c0.1,0.1,0.2,0.2,0.2,0.4c0.6-0.4,1.2-0.6,2-0.6
			c0.4,0,0.7,0.1,1,0.2c0.2,0.1,0.5,0.2,0.7,0.3c0.2,0.1,0.3,0.3,0.3,0.6c0,0.2-0.1,0.4-0.2,0.5c-0.1,0.1-0.3,0.2-0.5,0.2
			c-0.2,0-0.3,0-0.4-0.1c-0.3-0.2-0.6-0.2-0.9-0.2c-0.3,0-0.5,0-0.7,0.1c-0.2,0.1-0.4,0.2-0.6,0.4c-0.2,0.2-0.3,0.3-0.4,0.6
			c-0.1,0.2-0.1,0.4-0.2,0.7v5.1c0,0.2-0.1,0.4-0.2,0.5c-0.1,0.1-0.3,0.2-0.5,0.2c-0.2,0-0.3-0.1-0.5-0.2s-0.2-0.3-0.2-0.5v-5.1
			V27.3z"/>
		<path style="clip-path:url(#SVGID_00000155131709031832825490000005963800537181160327_);fill:#FFFFFF;" d="M132.6,23.9
			c0-0.2,0.1-0.4,0.2-0.5c0.1-0.1,0.3-0.2,0.5-0.2c0.2,0,0.3,0.1,0.5,0.2c0.1,0.1,0.2,0.3,0.2,0.5v8.3c0,0.4-0.1,0.9-0.3,1.3
			c-0.2,0.4-0.4,0.7-0.7,1c-0.3,0.3-0.6,0.5-1,0.7c-0.4,0.2-0.8,0.3-1.3,0.3c-0.5,0-0.9-0.1-1.3-0.3c-0.4-0.2-0.7-0.4-1-0.7
			c-0.3-0.3-0.5-0.6-0.7-1c-0.2-0.4-0.3-0.8-0.3-1.3v-2.6c0-0.4,0.1-0.9,0.3-1.3c0.2-0.4,0.4-0.7,0.7-1c0.3-0.3,0.6-0.5,1-0.7
			c0.4-0.2,0.8-0.3,1.3-0.3c0.4,0,0.7,0.1,1,0.2c0.3,0.1,0.6,0.3,0.9,0.5V23.9z M128.8,32.2c0,0.3,0,0.5,0.1,0.7
			c0.1,0.2,0.2,0.4,0.4,0.6c0.2,0.2,0.4,0.3,0.6,0.4c0.2,0.1,0.5,0.1,0.7,0.1c0.3,0,0.5,0,0.7-0.1c0.2-0.1,0.4-0.2,0.6-0.4
			c0.2-0.2,0.3-0.4,0.4-0.6c0.1-0.2,0.2-0.5,0.2-0.7v-2.6c0-0.3,0-0.5-0.1-0.7c-0.1-0.2-0.2-0.4-0.4-0.6c-0.2-0.2-0.4-0.3-0.6-0.4
			c-0.2-0.1-0.5-0.1-0.7-0.1c-0.3,0-0.5,0-0.7,0.1c-0.2,0.1-0.4,0.2-0.6,0.4c-0.2,0.2-0.3,0.4-0.4,0.6c-0.1,0.2-0.2,0.5-0.2,0.7
			V32.2z"/>
		<path style="clip-path:url(#SVGID_00000155131709031832825490000005963800537181160327_);fill:#FFFFFF;" d="M88.5,27.1
			c0-0.2,0.1-0.4,0.2-0.5c0.1-0.1,0.3-0.2,0.5-0.2c0.2,0,0.3,0.1,0.5,0.2c0.1,0.1,0.2,0.3,0.2,0.5v5.1c0,0.3,0,0.5,0.1,0.7
			c0.1,0.2,0.2,0.4,0.4,0.6c0.2,0.2,0.4,0.3,0.6,0.4c0.2,0.1,0.5,0.1,0.7,0.1c0.3,0,0.5,0,0.7-0.1c0.2-0.1,0.4-0.2,0.6-0.4
			c0.2-0.2,0.3-0.4,0.4-0.6c0.1-0.2,0.2-0.5,0.2-0.7v-5.1c0-0.2,0.1-0.4,0.2-0.5c0.1-0.1,0.3-0.2,0.5-0.2c0.2,0,0.3,0.1,0.5,0.2
			c0.1,0.1,0.2,0.3,0.2,0.5v5.1c0,0.4-0.1,0.9-0.3,1.3c-0.2,0.4-0.4,0.7-0.7,1c-0.3,0.3-0.6,0.5-1,0.7c-0.4,0.2-0.8,0.3-1.3,0.3
			c-0.5,0-0.9-0.1-1.3-0.3c-0.4-0.2-0.7-0.4-1-0.7c-0.3-0.3-0.5-0.6-0.7-1c-0.2-0.4-0.3-0.8-0.3-1.3V27.1z"/>
		<path style="clip-path:url(#SVGID_00000155131709031832825490000005963800537181160327_);fill:#FFFFFF;" d="M104,29.3h-2.9
			c-0.4,0-0.7,0.3-0.7,0.7c0,0.4,0.3,0.7,0.7,0.7h2.3v1.1c0,1.5-1.3,2.6-2.8,2.6c-1.6,0-2.9-1.1-2.9-2.9v-4.1c0-1.7,1.3-2.9,2.8-2.9
			c1.3,0,2.3,0.9,2.7,2c0.1,0.2,0.3,0.4,0.6,0.4c0.5,0,0.9-0.4,0.6-1.1c-0.4-1.3-1.8-2.7-4-2.7c-2.5,0-4.3,2-4.3,4.2v4.3
			c0,2.3,1.8,4.2,4.3,4.2c2.2,0,4.1-1.7,4.1-3.7V30C104.7,29.6,104.4,29.3,104,29.3"/>
		<path style="clip-path:url(#SVGID_00000155131709031832825490000005963800537181160327_);fill:#FFFFFF;" d="M132.6,27.1
			c0-0.2,0.1-0.4,0.2-0.5c0.1-0.1,0.3-0.2,0.5-0.2c0.2,0,0.3,0.1,0.5,0.2c0.1,0.1,0.2,0.3,0.2,0.5v7.6c0,0.2-0.1,0.4-0.2,0.5
			c-0.1,0.1-0.3,0.2-0.5,0.2c-0.2,0-0.3-0.1-0.5-0.2c-0.1-0.1-0.2-0.3-0.2-0.5V27.1z"/>
		<path style="clip-path:url(#SVGID_00000155131709031832825490000005963800537181160327_);fill:#FFFFFF;" d="M47.7,24.4
			c0-0.2,0.1-0.4,0.2-0.5c0.1-0.1,0.3-0.2,0.5-0.2h2.7h0c0.6,0,1.1,0.1,1.6,0.3c0.5,0.2,1,0.5,1.3,0.9c0.4,0.4,0.7,0.8,0.9,1.3
			c0.2,0.5,0.3,1.1,0.3,1.6c0,0.6-0.1,1.1-0.3,1.6c-0.2,0.5-0.5,0.9-0.9,1.3c-0.4,0.4-0.8,0.7-1.3,0.9c-0.5,0.2-1.1,0.3-1.6,0.3
			h-2.1v2.7c0,0.2-0.1,0.4-0.2,0.5c-0.1,0.1-0.3,0.2-0.5,0.2c-0.2,0-0.3-0.1-0.5-0.2c-0.1-0.1-0.2-0.3-0.2-0.5V24.4z M49.1,25v5.7
			h2.1c0.4,0,0.8-0.1,1.1-0.2c0.3-0.1,0.7-0.4,0.9-0.6c0.3-0.3,0.5-0.6,0.6-0.9c0.1-0.3,0.2-0.7,0.2-1.1c0-0.4-0.1-0.8-0.2-1.1
			c-0.2-0.3-0.4-0.6-0.6-0.9c-0.3-0.3-0.6-0.5-0.9-0.6c-0.4-0.1-0.7-0.2-1.1-0.2H49.1z"/>
		<path style="clip-path:url(#SVGID_00000155131709031832825490000005963800537181160327_);fill:#FFFFFF;" d="M34.2,35.9v1.4
			c0,1.1-0.9,2-2,2c-0.4,0-0.7-0.1-1-0.3c-0.3-0.2-0.4-0.6-0.2-0.9c0.2-0.3,0.6-0.4,0.9-0.2c0.1,0.1,0.2,0.1,0.3,0.1
			c0.4,0,0.6-0.3,0.6-0.6v-1.4c0-0.4,0.3-0.7,0.7-0.7S34.2,35.5,34.2,35.9 M29.6,38.6c-0.2-0.3-0.6-0.5-0.9-0.3
			c-0.3,0.2-0.5,0.6-0.3,0.9c0.7,1.4,2.2,2.3,3.8,2.3c2.4,0,4.3-1.9,4.3-4.3v-1.4c0-0.4-0.3-0.7-0.7-0.7s-0.7,0.3-0.7,0.7v1.4
			c0,1.6-1.3,2.9-2.9,2.9C31.1,40.2,30.1,39.6,29.6,38.6 M32,15.9c-3.5,0.1-6.4,3.1-6.4,6.7v14.7c0,1.8,0.7,3.5,2,4.7
			c1.2,1.2,2.9,1.9,4.6,1.9c0.1,0,0.1,0,0.2,0c3.5-0.1,6.4-3.1,6.4-6.7V36c0-1.7-1.4-3.1-3.1-3.1h-2.1c-0.4,0-0.7,0.3-0.7,0.7
			s0.3,0.7,0.7,0.7h2.1c1,0,1.8,0.8,1.8,1.8v1.1c0,2.9-2.3,5.3-5.1,5.4c-1.4,0-2.8-0.5-3.8-1.5c-1-1-1.6-2.3-1.6-3.8V22.6
			c0-2.9,2.3-5.3,5.1-5.4c1.4,0,2.8,0.5,3.8,1.5c1,1,1.6,2.3,1.6,3.8v8.6c0,0.4,0.3,0.7,0.7,0.7c0.4,0,0.7-0.3,0.7-0.7v-8.6
			c0-1.8-0.7-3.5-2-4.7C35.5,16.5,33.8,15.8,32,15.9 M36.5,27.6v-5.2c0-2.4-1.9-4.3-4.3-4.3c-2.4,0-4.3,1.9-4.3,4.3v0.8
			c0,0.4,0.3,0.7,0.7,0.7c0.4,0,0.7-0.3,0.7-0.7v-0.8c0-1.6,1.3-2.9,2.9-2.9c1.6,0,2.9,1.3,2.9,2.9v5.2c0,1.6-1.3,2.9-2.9,2.9
			c-0.4,0-0.7-0.1-1.1-0.2c-0.2-0.1-0.5-0.1-0.6,0.1c-0.2,0.1-0.3,0.3-0.3,0.6v4.7c0,0.3-0.2,0.5-0.5,0.5c-0.3,0-0.5-0.2-0.5-0.5
			V25.6c0-0.4-0.3-0.7-0.7-0.7c-0.4,0-0.7,0.3-0.7,0.7v10.1c0,1,0.8,1.8,1.8,1.8s1.8-0.8,1.8-1.8v-3.8c0.2,0,0.4,0,0.6,0
			C34.6,31.9,36.5,30,36.5,27.6 M41.1,22.6v10.9v0.2v3.6c0,2.4-1,4.7-2.7,6.4c-1.7,1.6-3.9,2.5-6.2,2.5c-0.1,0-0.1,0-0.2,0
			c-4.8-0.1-8.7-4.2-8.7-9.1V22.5c0-2.4,1-4.7,2.7-6.4c1.7-1.7,4-2.6,6.4-2.5C37.2,13.7,41.1,17.7,41.1,22.6 M39.8,33.6v-0.2V22.6
			c0-4.1-3.3-7.6-7.3-7.7c-2-0.1-4,0.7-5.4,2.1c-1.5,1.4-2.3,3.3-2.3,5.4v14.7c0,4.1,3.3,7.6,7.3,7.7c2,0,4-0.7,5.4-2.1
			c1.5-1.4,2.3-3.3,2.3-5.4V33.6z M30.2,27.6v-5.2c0-1.1,0.9-2,2-2c1.1,0,2,0.9,2,2v5.2c0,1.1-0.9,2-2,2
			C31.1,29.7,30.2,28.7,30.2,27.6 M31.6,27.6c0,0.4,0.3,0.6,0.6,0.6c0.4,0,0.6-0.3,0.6-0.6v-5.2c0-0.4-0.3-0.6-0.6-0.6
			c-0.4,0-0.6,0.3-0.6,0.6V27.6z"/>
		<polygon style="clip-path:url(#SVGID_00000155131709031832825490000005963800537181160327_);fill:#FFFFFF;" points="134.9,23.5 
			134.7,23.5 134.7,23.3 135.4,23.3 135.4,23.5 135.2,23.5 135.2,24.2 134.9,24.2 		"/>
		<path style="clip-path:url(#SVGID_00000155131709031832825490000005963800537181160327_);fill:#FFFFFF;" d="M136.3,23.9
			c0-0.1,0-0.3,0-0.4h0c0,0.1-0.1,0.3-0.1,0.4l-0.1,0.4h-0.2l-0.1-0.4c0-0.1-0.1-0.2-0.1-0.4h0c0,0.1,0,0.3,0,0.4l0,0.4h-0.2l0.1-1
			h0.3l0.1,0.3c0,0.1,0.1,0.2,0.1,0.3h0c0-0.1,0.1-0.2,0.1-0.3l0.1-0.3h0.3l0.1,1h-0.2L136.3,23.9z"/>
	</g>
</g>
</svg>
