<svg id="Layer_1" xmlns="http://www.w3.org/2000/svg" viewBox="0 0 320 100"><style>.st0{fill:url(#SVGID_1_)}</style><linearGradient id="SVGID_1_" gradientUnits="userSpaceOnUse" x1="16.007" y1="69.314" x2="235.605" y2="69.314"><stop offset="0" stop-color="#18b9fb"/><stop offset=".5" stop-color="#782eeb"/><stop offset="1" stop-color="#e82d8a"/></linearGradient><path class="st0" d="M19.61 56.01l2.26 7.03 2.25-7.03h3.21v10.11h-2.44v-2.36l.24-4.83-2.44 7.19h-1.61l-2.45-7.2.24 4.84v2.36h-2.44V56.01h3.18zm8.86 6.28c0-.75.15-1.42.44-2s.71-1.04 1.26-1.35c.55-.31 1.19-.47 1.92-.47 1.12 0 2.01.35 2.66 1.05.65.7.97 1.64.97 2.84v.08c0 1.17-.33 2.1-.98 2.79-.65.69-1.53 1.03-2.64 1.03-1.07 0-1.93-.32-2.58-.96-.65-.64-1-1.51-1.05-2.61v-.4zm2.34.15c0 .69.11 1.2.33 1.53s.54.49.97.49c.83 0 1.26-.64 1.28-1.92v-.24c0-1.35-.43-2.02-1.29-2.02-.78 0-1.21.58-1.27 1.74l-.02.42zm8.09-3.84l.08.88c.52-.68 1.23-1.02 2.15-1.02.78 0 1.37.23 1.75.7.39.47.59 1.17.6 2.11v4.84h-2.35v-4.74c0-.38-.08-.66-.23-.84-.15-.18-.43-.27-.83-.27-.46 0-.8.18-1.02.54v5.3H36.7v-7.5h2.2zm5.85-1.93c0-.33.12-.61.36-.82.24-.21.55-.32.94-.32.38 0 .7.11.94.32.24.21.36.49.36.82 0 .33-.12.61-.36.82s-.55.32-.94.32c-.38 0-.7-.11-.94-.32s-.36-.49-.36-.82zm2.48 9.44h-2.35V58.6h2.35v7.51zm4.17-9.37v1.87h1.24v1.62H51.4v3.44c0 .28.05.48.15.59.1.11.3.17.6.17.23 0 .43-.01.58-.04v1.67c-.42.13-.86.2-1.32.2-.81 0-1.4-.19-1.78-.57s-.58-.96-.58-1.73v-3.73h-.95V58.6h.96v-1.87h2.34zm1.65 5.55c0-.75.15-1.42.44-2s.71-1.04 1.26-1.35c.55-.31 1.19-.47 1.92-.47 1.12 0 2.01.35 2.66 1.05.65.7.97 1.64.97 2.84v.08c0 1.17-.33 2.1-.98 2.79-.65.69-1.53 1.03-2.64 1.03-1.07 0-1.93-.32-2.58-.96-.65-.64-1-1.51-1.05-2.61v-.4zm2.34.15c0 .69.11 1.2.33 1.53.22.32.54.49.97.49.83 0 1.26-.64 1.28-1.92v-.24c0-1.35-.43-2.02-1.29-2.02-.78 0-1.21.58-1.27 1.74l-.02.42zm10.48-1.72l-.77-.06c-.74 0-1.21.23-1.42.69v4.76h-2.34V58.6h2.19l.08.97c.39-.74.94-1.1 1.65-1.1.25 0 .47.03.65.08l-.04 2.17zm7.39 2.12l1.25-4.23h2.51l-3.06 8.77-.13.32c-.44.97-1.2 1.46-2.3 1.46-.31 0-.63-.05-.97-.14v-1.67h.31c.33 0 .58-.05.75-.14.17-.09.3-.27.39-.51l.19-.5-2.61-7.59h2.5l1.17 4.23zm3.97-.55c0-.75.15-1.42.44-2 .29-.59.71-1.04 1.26-1.35.55-.31 1.19-.47 1.92-.47 1.12 0 2.01.35 2.66 1.05.65.7.97 1.64.97 2.84v.08c0 1.17-.33 2.1-.98 2.79-.65.69-1.53 1.03-2.64 1.03-1.07 0-1.93-.32-2.58-.96-.65-.64-1-1.51-1.05-2.61v-.4zm2.34.15c0 .69.11 1.2.33 1.53.22.32.54.49.97.49.83 0 1.26-.64 1.28-1.92v-.24c0-1.35-.43-2.02-1.29-2.02-.78 0-1.21.58-1.27 1.74l-.02.42zm10.41 2.86c-.5.63-1.16.95-2.01.95-.82 0-1.45-.24-1.87-.72-.42-.48-.64-1.17-.64-2.07V58.6h2.34v4.88c0 .64.31.97.94.97.54 0 .92-.19 1.15-.58V58.6h2.35v7.51h-2.19l-.07-.81zm8.09-4.58l-.77-.06c-.74 0-1.21.23-1.42.69v4.76h-2.34V58.6h2.19l.08.97c.39-.74.94-1.1 1.65-1.1.25 0 .47.03.65.08l-.04 2.17zm11.35 1.69c0 1.17-.26 2.1-.79 2.79-.53.7-1.23 1.05-2.13 1.05-.69 0-1.26-.25-1.7-.76V69h-2.34V58.6h2.19l.07.69c.45-.56 1.04-.83 1.77-.83.93 0 1.65.34 2.16 1.02.51.68.77 1.62.77 2.82v.11zm-2.33-.14c0-1.33-.39-2-1.17-2-.56 0-.93.2-1.11.6v2.96c.2.42.58.62 1.12.62.75 0 1.13-.64 1.15-1.93v-.25zm7 3.98c-1.15 0-2.09-.34-2.8-1.03s-1.07-1.58-1.07-2.68v-.19c0-.77.14-1.45.43-2.03.28-.59.7-1.04 1.25-1.36.55-.32 1.19-.48 1.94-.48 1.06 0 1.89.33 2.5.98.61.66.92 1.57.92 2.74v.91h-4.65c.08.42.27.75.55.99s.65.36 1.1.36c.74 0 1.32-.26 1.74-.78l1.07 1.26c-.29.4-.7.72-1.24.96-.55.23-1.12.35-1.74.35zm-.26-5.98c-.68 0-1.09.45-1.22 1.36h2.36v-.18c.01-.37-.09-.67-.28-.87s-.49-.31-.86-.31zm8.91.45l-.77-.06c-.74 0-1.21.23-1.42.69v4.76h-2.34V58.6h2.19l.08.97c.39-.74.94-1.1 1.65-1.1.25 0 .47.03.65.08l-.04 2.17zm4.78 3.28c0-.2-.1-.36-.31-.48s-.6-.25-1.19-.37-1.06-.3-1.44-.51a2.44 2.44 0 0 1-.87-.77c-.2-.3-.3-.65-.3-1.03 0-.69.28-1.26.85-1.7.57-.45 1.31-.67 2.24-.67.99 0 1.79.22 2.39.67s.9 1.04.9 1.77h-2.35c0-.6-.32-.9-.95-.9a.98.98 0 0 0-.62.2c-.17.14-.25.31-.25.51 0 .21.1.38.31.51.2.13.53.24.98.32.45.08.84.18 1.18.3 1.13.39 1.69 1.09 1.69 2.09 0 .68-.3 1.24-.91 1.67-.61.43-1.4.65-2.36.65-.64 0-1.22-.12-1.72-.35-.5-.23-.9-.55-1.18-.94-.28-.4-.42-.82-.42-1.26h2.19c.01.35.12.6.35.76.22.16.51.24.85.24.32 0 .56-.06.72-.19a.71.71 0 0 0 .22-.52zm3.05-1.71c0-.75.15-1.42.44-2 .29-.59.71-1.04 1.26-1.35.55-.31 1.19-.47 1.92-.47 1.12 0 2.01.35 2.66 1.05.65.7.97 1.64.97 2.84v.08c0 1.17-.33 2.1-.98 2.79-.65.69-1.53 1.03-2.64 1.03-1.07 0-1.93-.32-2.58-.96-.65-.64-1-1.51-1.05-2.61v-.4zm2.34.15c0 .69.11 1.2.33 1.53s.54.49.97.49c.83 0 1.26-.64 1.28-1.92v-.24c0-1.35-.43-2.02-1.29-2.02-.78 0-1.21.58-1.27 1.74l-.02.42zM141 58.6l.08.88c.52-.68 1.23-1.02 2.15-1.02.78 0 1.37.23 1.75.7.39.47.59 1.17.6 2.11v4.84h-2.35v-4.74c0-.38-.08-.66-.23-.84-.15-.18-.43-.27-.83-.27-.46 0-.8.18-1.02.54v5.3h-2.34v-7.5H141zm10.1 7.51c-.08-.15-.16-.38-.22-.67-.43.54-1.03.81-1.81.81-.71 0-1.31-.21-1.81-.64-.5-.43-.74-.97-.74-1.61 0-.81.3-1.43.9-1.85s1.48-.62 2.62-.62h.72v-.4c0-.69-.3-1.04-.9-1.04-.56 0-.83.27-.83.82h-2.34c0-.73.31-1.32.93-1.77.62-.45 1.41-.68 2.36-.68.96 0 1.71.23 2.27.7s.84 1.11.85 1.92v3.33c.01.69.12 1.22.32 1.58v.12h-2.32zm-1.46-1.52c.29 0 .53-.06.73-.19.19-.12.33-.27.41-.42v-1.2h-.68c-.81 0-1.22.37-1.22 1.1 0 .21.07.39.22.52.13.12.31.19.54.19zm7.24 1.52h-2.35V55.45h2.35v10.66zm4.97-9.44c0-.33.12-.61.36-.82.24-.21.55-.32.94-.32.38 0 .7.11.94.32.24.21.36.49.36.82 0 .33-.12.61-.36.82s-.55.32-.94.32c-.38 0-.7-.11-.94-.32s-.36-.49-.36-.82zm2.48 9.44h-2.35V58.6h2.35v7.51zm3.59-7.51l.08.88c.52-.68 1.23-1.02 2.15-1.02.78 0 1.37.23 1.75.7.39.47.59 1.17.6 2.11v4.84h-2.35v-4.74c0-.38-.08-.66-.23-.84-.15-.18-.43-.27-.83-.27-.46 0-.8.18-1.02.54v5.3h-2.34v-7.5h2.19zm6.39 7.51v-5.89h-1.09V58.6h1.09V58c0-.86.25-1.52.76-1.99s1.21-.71 2.12-.71c.33 0 .7.05 1.1.15l.01 1.72c-.14-.04-.34-.06-.58-.06-.71 0-1.06.31-1.06.92v.58h1.46v1.62h-1.46v5.89h-2.35zm4.34-3.82c0-.75.15-1.42.44-2s.71-1.04 1.26-1.35c.55-.31 1.19-.47 1.92-.47 1.12 0 2.01.35 2.66 1.05.65.7.97 1.64.97 2.84v.08c0 1.17-.33 2.1-.98 2.79-.65.69-1.53 1.03-2.64 1.03-1.07 0-1.93-.32-2.58-.96-.65-.64-1-1.51-1.05-2.61v-.4zm2.34.15c0 .69.11 1.2.33 1.53s.54.49.97.49c.83 0 1.26-.64 1.28-1.92v-.24c0-1.35-.43-2.02-1.29-2.02-.78 0-1.21.58-1.27 1.74l-.02.42zm10.48-1.72l-.77-.06c-.74 0-1.21.23-1.42.69v4.76h-2.34V58.6h2.19l.08.97c.39-.74.94-1.1 1.65-1.1.25 0 .47.03.65.08l-.04 2.17zm3.06-2.12l.08.88c.53-.68 1.25-1.02 2.15-1.02.95 0 1.59.38 1.92 1.13.51-.75 1.25-1.13 2.21-1.13 1.52 0 2.3.92 2.35 2.76v4.89h-2.35v-4.74c0-.38-.06-.66-.19-.84s-.37-.26-.71-.26c-.46 0-.81.21-1.03.62l.01.1v5.13h-2.35v-4.73c0-.39-.06-.68-.19-.85-.12-.18-.36-.26-.72-.26-.45 0-.79.21-1.03.62v5.23h-2.34V58.6h2.19zm14.26 7.51c-.08-.15-.16-.38-.22-.67-.43.54-1.03.81-1.81.81-.71 0-1.31-.21-1.81-.64-.5-.43-.74-.97-.74-1.61 0-.81.3-1.43.9-1.85s1.48-.62 2.62-.62h.72v-.4c0-.69-.3-1.04-.9-1.04-.56 0-.83.27-.83.82h-2.34c0-.73.31-1.32.93-1.77.62-.45 1.41-.68 2.36-.68.96 0 1.71.23 2.27.7s.84 1.11.85 1.92v3.33c.01.69.12 1.22.32 1.58v.12h-2.32zm-1.46-1.52c.29 0 .53-.06.73-.19.19-.12.33-.27.41-.42v-1.2h-.68c-.81 0-1.22.37-1.22 1.1 0 .21.07.39.22.52.13.12.32.19.54.19zm7.5-7.85v1.87h1.24v1.62h-1.24v3.44c0 .28.05.48.15.59.1.11.3.17.6.17.23 0 .43-.01.58-.04v1.67c-.42.13-.86.2-1.32.2-.81 0-1.4-.19-1.78-.57s-.58-.96-.58-1.73v-3.73h-.96V58.6h.96v-1.87h2.35zm2.14-.07c0-.33.12-.61.36-.82.24-.21.55-.32.94-.32s.7.11.94.32c.24.21.36.49.36.82 0 .33-.12.61-.36.82-.24.21-.55.32-.94.32s-.7-.11-.94-.32c-.24-.22-.36-.49-.36-.82zm2.49 9.44h-2.35V58.6h2.35v7.51zm1.14-3.82c0-.75.15-1.42.44-2s.71-1.04 1.26-1.35c.55-.31 1.19-.47 1.92-.47 1.12 0 2.01.35 2.66 1.05.65.7.97 1.64.97 2.84v.08c0 1.17-.33 2.1-.98 2.79-.65.69-1.53 1.03-2.64 1.03-1.07 0-1.93-.32-2.58-.96-.65-.64-1-1.51-1.05-2.61v-.4zm2.34.15c0 .69.11 1.2.33 1.53.22.32.54.49.96.49.83 0 1.26-.64 1.28-1.92v-.24c0-1.35-.43-2.02-1.29-2.02-.78 0-1.21.58-1.27 1.74l-.01.42zm8.09-3.84l.08.88c.52-.68 1.23-1.02 2.15-1.02.78 0 1.37.23 1.75.7.39.47.59 1.17.6 2.11v4.84h-2.35v-4.74c0-.38-.08-.66-.23-.84-.15-.18-.43-.27-.83-.27-.46 0-.8.18-1.02.54v5.3h-2.34v-7.5h2.19zM16.01 79.35c0-.75.15-1.42.44-2 .29-.59.71-1.04 1.26-1.35s1.19-.47 1.92-.47c1.12 0 2.01.35 2.66 1.05.65.7.97 1.64.97 2.84v.08c0 1.17-.33 2.1-.98 2.79-.65.69-1.53 1.03-2.64 1.03-1.07 0-1.93-.32-2.58-.96-.65-.64-1-1.51-1.05-2.61v-.4zm2.34.15c0 .69.11 1.2.33 1.53s.54.49.97.49c.83 0 1.26-.64 1.28-1.92v-.24c0-1.35-.43-2.02-1.29-2.02-.78 0-1.21.58-1.27 1.74l-.02.42zm8.08-3.84l.08.88c.52-.68 1.23-1.02 2.15-1.02.78 0 1.37.23 1.75.7.39.47.59 1.17.6 2.11v4.84h-2.35v-4.74c0-.38-.08-.66-.23-.84s-.43-.26-.83-.26c-.46 0-.8.18-1.02.54v5.3h-2.34v-7.51h2.19zm12.14-1.86v1.87h1.24v1.62h-1.24v3.44c0 .28.05.48.15.59.1.11.3.17.6.17.23 0 .43-.01.58-.04v1.67c-.42.13-.86.2-1.32.2-.81 0-1.4-.19-1.78-.57s-.58-.96-.58-1.73v-3.73h-.96v-1.62h.96V73.8h2.35zm4.44 2.67c.5-.63 1.14-.94 1.92-.94.83 0 1.45.25 1.87.74.42.49.64 1.21.65 2.17v4.74H45.1v-4.69c0-.4-.08-.69-.24-.88-.16-.19-.44-.28-.83-.28-.48 0-.82.15-1.02.46v5.39h-2.34V72.51h2.34v3.96zm9.38 6.85c-1.15 0-2.09-.34-2.8-1.03s-1.07-1.58-1.07-2.68v-.19c0-.77.14-1.45.43-2.03.28-.59.7-1.04 1.25-1.36.55-.32 1.19-.48 1.94-.48 1.06 0 1.89.33 2.5.98.61.66.92 1.57.92 2.74v.91H50.9c.08.42.27.75.55.99s.65.36 1.1.36c.74 0 1.32-.26 1.74-.78L55.35 82c-.29.4-.7.72-1.24.96-.53.24-1.11.36-1.72.36zm-.27-5.99c-.68 0-1.09.45-1.22 1.36h2.36v-.18c.01-.37-.09-.67-.28-.87-.2-.21-.49-.31-.86-.31zm10.46 2.42v3.43h-2.44V73.07h4.03c.77 0 1.46.14 2.05.43.59.29 1.06.69 1.38 1.22.33.53.49 1.12.49 1.79 0 .99-.35 1.77-1.06 2.36-.71.59-1.67.88-2.91.88h-1.54zm0-1.88h1.6c.47 0 .83-.12 1.08-.35.25-.24.37-.57.37-1 0-.47-.13-.85-.38-1.13-.25-.28-.6-.43-1.04-.43h-1.62v2.91zm11.18 4.49c-.5.63-1.16.95-2.01.95-.82 0-1.45-.24-1.87-.72-.42-.48-.64-1.17-.64-2.07v-4.87h2.34v4.88c0 .64.31.97.94.97.54 0 .92-.19 1.15-.58v-5.27h2.35v7.51h-2.19l-.07-.8zm10.52-2.88c0 1.23-.25 2.18-.76 2.84-.51.66-1.23.99-2.15.99-.76 0-1.38-.3-1.85-.91l-.1.77h-2.1V72.51h2.34v3.76c.44-.5 1-.74 1.69-.74.93 0 1.66.34 2.17 1.01.51.67.76 1.62.76 2.83v.11zm-2.35-.15c0-.72-.1-1.23-.29-1.54-.19-.31-.49-.46-.88-.46-.53 0-.89.2-1.1.6v2.98c.2.4.57.6 1.11.6.55 0 .9-.27 1.05-.8.08-.27.11-.72.11-1.38zm5.85 3.85h-2.35V72.51h2.35v10.67zm1.42-9.45c0-.33.12-.61.36-.82.24-.21.55-.32.94-.32.38 0 .7.11.94.32.24.21.36.49.36.82s-.12.61-.36.82c-.24.21-.55.32-.94.32-.38 0-.7-.11-.94-.32-.24-.22-.36-.49-.36-.82zm2.49 9.45h-2.35v-7.51h2.35v7.51zm4.61-1.67c.33 0 .58-.09.76-.27.18-.18.27-.43.26-.75h2.19c0 .82-.3 1.5-.88 2.03-.59.53-1.35.79-2.28.79-1.09 0-1.95-.34-2.58-1.03-.63-.68-.94-1.63-.94-2.85v-.1c0-.76.14-1.43.42-2.01.28-.58.68-1.03 1.21-1.34.53-.31 1.15-.47 1.87-.47.98 0 1.75.27 2.33.81s.86 1.28.86 2.2h-2.19c0-.39-.09-.69-.28-.9-.19-.21-.44-.31-.76-.31-.61 0-.96.39-1.06 1.16-.03.25-.05.58-.05 1.01 0 .75.09 1.28.27 1.57.17.31.46.46.85.46zm9.26-3.66c-.27-.39-.49-.76-.64-1.11-.16-.35-.23-.72-.23-1.09 0-.81.26-1.47.79-1.98.53-.5 1.22-.75 2.07-.75.76 0 1.4.23 1.9.7s.75 1.04.75 1.73c0 .86-.47 1.62-1.42 2.29l-.53.37 1.56 1.78c.25-.51.38-1.07.38-1.67h1.96c0 1.37-.31 2.46-.94 3.28l1.54 1.77h-2.61l-.47-.53c-.39.23-.79.4-1.19.51-.4.11-.86.17-1.37.17-1 0-1.8-.26-2.4-.79-.6-.52-.9-1.22-.9-2.07 0-.47.12-.89.36-1.27s.7-.82 1.39-1.33v-.01zm1.68 3.67c.41 0 .8-.09 1.17-.28l-1.82-2.07-.06.04c-.26.32-.4.69-.4 1.1 0 .34.11.62.32.86s.48.35.79.35zm-.54-5.9c0 .32.18.72.53 1.18l.47-.29c.21-.14.37-.28.47-.43.1-.15.15-.34.15-.56 0-.21-.07-.4-.22-.56a.72.72 0 0 0-.55-.24c-.26 0-.46.08-.61.25a.9.9 0 0 0-.24.65zm10.58 7.56V73.07h3.26c.89 0 1.7.2 2.41.61.71.41 1.27.98 1.67 1.72.4.74.6 1.57.61 2.48v.47c0 .93-.2 1.76-.59 2.49a4.27 4.27 0 0 1-1.65 1.72c-.71.41-1.5.62-2.38.63h-3.33zm2.44-8.23v6.35h.85c.7 0 1.24-.25 1.61-.75.37-.5.56-1.24.56-2.22v-.43c0-.98-.19-1.71-.56-2.21-.37-.5-.92-.74-1.64-.74h-.82zm10.88 8.23c-.08-.15-.16-.38-.22-.67-.43.54-1.03.81-1.81.81-.71 0-1.31-.21-1.81-.64-.5-.43-.74-.97-.74-1.61 0-.81.3-1.43.9-1.85.6-.42 1.48-.62 2.62-.62h.72v-.4c0-.69-.3-1.04-.9-1.04-.56 0-.83.27-.83.82h-2.34c0-.73.31-1.32.93-1.77.62-.45 1.41-.68 2.36-.68.96 0 1.71.23 2.27.7s.84 1.11.85 1.92v3.33c.01.69.12 1.22.32 1.58v.12h-2.32zm-1.47-1.53c.29 0 .53-.06.73-.19.19-.12.33-.27.41-.42v-1.2h-.68c-.81 0-1.22.37-1.22 1.1 0 .21.07.39.22.52.14.12.32.19.54.19zm9.33-3.87l-.77-.06c-.74 0-1.21.23-1.42.69v4.76h-2.34v-7.51h2.19l.08.97c.39-.74.94-1.1 1.65-1.1.25 0 .47.03.65.08l-.04 2.17zm3.86 2.6l-.66.66v2.14h-2.34V72.51h2.34v5.67l.24-.31 1.76-2.19h2.8l-2.63 3.09 2.8 4.42h-2.68l-1.63-2.81zm16.24-.97l1.16-6.34h2.42l-2.15 10.11h-2.53l-1.35-5.76-1.33 5.76h-2.52l-2.15-10.11h2.42l1.16 6.34 1.39-6.34h2.07l1.41 6.34zm7.83 3.91c-1.15 0-2.09-.34-2.8-1.03s-1.07-1.58-1.07-2.68v-.19c0-.77.14-1.45.43-2.03.28-.59.7-1.04 1.25-1.36.55-.32 1.19-.48 1.94-.48 1.06 0 1.89.33 2.5.98.61.66.92 1.57.92 2.74v.91h-4.65c.08.42.27.75.55.99s.65.36 1.1.36c.74 0 1.32-.26 1.74-.78l1.07 1.26c-.29.4-.7.72-1.24.96-.54.23-1.12.35-1.74.35zm-.26-5.99c-.68 0-1.09.45-1.22 1.36h2.36v-.18c.01-.37-.09-.67-.28-.87s-.49-.31-.86-.31zm11.35 2.15c0 1.23-.25 2.18-.76 2.84-.51.66-1.23.99-2.15.99-.76 0-1.38-.3-1.85-.91l-.1.77h-2.1V72.51h2.34v3.76c.44-.5 1-.74 1.69-.74.93 0 1.66.34 2.17 1.01.51.67.76 1.62.76 2.83v.11zm-2.35-.15c0-.72-.1-1.23-.29-1.54s-.49-.46-.88-.46c-.53 0-.89.2-1.1.6v2.98c.2.4.57.6 1.11.6.55 0 .9-.27 1.05-.8.07-.27.11-.72.11-1.38z"/></svg>