<svg id="Layer_1" xmlns="http://www.w3.org/2000/svg" viewBox="0 0 320 468"><style>.st0{fill:url(#SVGID_1_)}</style><linearGradient id="SVGID_1_" gradientUnits="userSpaceOnUse" x1="54.456" y1="221.975" x2="262.388" y2="221.975"><stop offset="0" stop-color="#18b9fb"/><stop offset=".5" stop-color="#782eeb"/><stop offset="1" stop-color="#e82d8a"/></linearGradient><path class="st0" d="M104.63 182.95h-3.34V192h-6.17v-25.59h10.07c3.04 0 5.41.67 7.12 2.02s2.57 3.25 2.57 5.71c0 1.78-.36 3.25-1.08 4.42-.72 1.17-1.85 2.12-3.38 2.84l5.34 10.33v.27h-6.61l-4.52-9.05zm-3.34-4.75h3.9c1.17 0 2.05-.31 2.65-.92.59-.62.89-1.48.89-2.58s-.3-1.97-.9-2.6c-.6-.63-1.48-.94-2.64-.94h-3.9v7.04zm26.25 14.15c-2.92 0-5.28-.87-7.08-2.61s-2.71-4-2.71-6.79v-.49c0-1.95.36-3.66 1.08-5.15s1.77-2.64 3.16-3.45 3.02-1.22 4.92-1.22c2.67 0 4.78.83 6.33 2.49s2.32 3.97 2.32 6.93v2.3h-11.78c.21 1.07.67 1.9 1.39 2.51s1.64.91 2.78.91c1.87 0 3.34-.66 4.39-1.97l2.71 3.2c-.74 1.02-1.78 1.83-3.14 2.43s-2.81.91-4.37.91zm-.67-15.15c-1.73 0-2.77 1.15-3.09 3.45h5.98v-.46c.02-.95-.22-1.68-.72-2.21s-1.23-.78-2.17-.78zm19.11 10.58c.83 0 1.48-.23 1.93-.68s.68-1.08.67-1.89h5.55c0 2.09-.75 3.8-2.24 5.13s-3.42 2-5.77 2c-2.77 0-4.95-.87-6.54-2.6s-2.39-4.14-2.39-7.21v-.25c0-1.92.35-3.62 1.06-5.09s1.73-2.6 3.07-3.39 2.92-1.19 4.75-1.19c2.47 0 4.44.69 5.89 2.06s2.18 3.23 2.18 5.57h-5.55c0-.98-.24-1.74-.72-2.27s-1.12-.79-1.93-.79c-1.54 0-2.43.98-2.69 2.94-.08.62-.12 1.48-.12 2.57 0 1.91.23 3.23.69 3.97s1.16 1.12 2.16 1.12zm19.86 4.57c-2.92 0-5.28-.87-7.08-2.61s-2.71-4-2.71-6.79v-.49c0-1.95.36-3.66 1.08-5.15s1.77-2.64 3.16-3.45 3.02-1.22 4.92-1.22c2.67 0 4.78.83 6.33 2.49s2.32 3.97 2.32 6.93v2.3h-11.78c.21 1.07.67 1.9 1.39 2.51s1.64.91 2.78.91c1.88 0 3.34-.66 4.39-1.97l2.71 3.2c-.74 1.02-1.78 1.83-3.14 2.43s-2.81.91-4.37.91zm-.67-15.15c-1.73 0-2.77 1.15-3.09 3.45h5.98v-.46c.02-.95-.22-1.68-.72-2.21s-1.23-.78-2.17-.78zm11.02-9.12c0-.84.3-1.54.91-2.07s1.4-.81 2.37-.81 1.76.27 2.37.81.91 1.23.91 2.07-.3 1.54-.91 2.07-1.4.81-2.37.81-1.76-.27-2.37-.81-.91-1.23-.91-2.07zm6.3 23.92h-5.94v-19.02h5.94V192zm11.23-7.05l3.01-11.97h6.24L196.76 192h-6.05l-6.21-19.02h6.26l2.96 11.97zm19.99 7.4c-2.92 0-5.28-.87-7.08-2.61s-2.71-4-2.71-6.79v-.49c0-1.95.36-3.66 1.08-5.15s1.77-2.64 3.16-3.45 3.02-1.22 4.92-1.22c2.67 0 4.78.83 6.33 2.49s2.32 3.97 2.32 6.93v2.3h-11.78c.21 1.07.67 1.9 1.39 2.51s1.64.91 2.78.91c1.88 0 3.34-.66 4.39-1.97l2.71 3.2c-.74 1.02-1.78 1.83-3.14 2.43s-2.82.91-4.37.91zm-.67-15.15c-1.73 0-2.77 1.15-3.09 3.45h5.98v-.46c.02-.95-.22-1.68-.72-2.21s-1.24-.78-2.17-.78zM54.46 211.28c0-.84.3-1.54.91-2.07s1.4-.81 2.37-.81 1.76.27 2.37.81.91 1.23.91 2.07-.3 1.54-.91 2.07-1.4.81-2.37.81-1.76-.27-2.37-.81-.91-1.23-.91-2.07zm6.29 23.92h-5.94v-19.02h5.94v19.02zm2.9-9.65c0-3.01.65-5.38 1.95-7.12 1.3-1.73 3.12-2.6 5.45-2.6 1.7 0 3.13.67 4.29 2v-9.63h5.94v27h-5.33l-.3-2.04c-1.22 1.59-2.77 2.39-4.64 2.39-2.26 0-4.05-.87-5.38-2.6s-1.98-4.2-1.98-7.4zm5.92.37c0 3.38.98 5.06 2.95 5.06 1.31 0 2.25-.55 2.81-1.65v-7.24c-.54-1.12-1.46-1.69-2.78-1.69-1.83 0-2.82 1.48-2.97 4.43l-.01 1.09zm24.28 9.63c-2.92 0-5.28-.87-7.08-2.61s-2.71-4-2.71-6.79v-.49c0-1.95.36-3.66 1.08-5.15s1.77-2.64 3.16-3.45 3.02-1.22 4.92-1.22c2.67 0 4.78.83 6.33 2.49 1.55 1.66 2.32 3.97 2.32 6.94v2.3H90.09c.21 1.07.67 1.9 1.39 2.51s1.64.91 2.78.91c1.88 0 3.34-.66 4.39-1.97l2.71 3.2c-.74 1.02-1.78 1.83-3.14 2.43s-2.81.9-4.37.9zm-.67-15.15c-1.73 0-2.77 1.15-3.09 3.45h5.98v-.46c.02-.95-.22-1.68-.72-2.21s-1.23-.78-2.17-.78zm16.51-4.22l.19 2.23c1.31-1.72 3.12-2.58 5.43-2.58 1.98 0 3.46.59 4.44 1.78s1.49 2.97 1.52 5.34v12.25h-5.94v-12c0-.96-.19-1.67-.58-2.12s-1.09-.68-2.11-.68c-1.16 0-2.02.46-2.58 1.37v13.43h-5.92v-19.02h5.55zm21.76-4.73v4.73h3.13v4.11h-3.13v8.7c0 .71.13 1.21.39 1.49s.77.42 1.53.42c.59 0 1.08-.04 1.48-.11v4.24c-1.07.34-2.18.51-3.34.51-2.04 0-3.54-.48-4.52-1.44s-1.46-2.42-1.46-4.38v-9.44h-2.43v-4.11h2.43v-4.73h5.92zm5.41-.17c0-.84.3-1.54.91-2.07s1.4-.81 2.37-.81 1.76.27 2.37.81.91 1.23.91 2.07-.3 1.54-.91 2.07-1.4.81-2.37.81-1.76-.27-2.37-.81-.91-1.23-.91-2.07zm6.3 23.92h-5.94v-19.02h5.94v19.02zm10.54-23.75v4.73h3.13v4.11h-3.13v8.7c0 .71.13 1.21.39 1.49s.77.42 1.53.42c.59 0 1.08-.04 1.48-.11v4.24c-1.07.34-2.18.51-3.34.51-2.04 0-3.54-.48-4.52-1.44s-1.46-2.42-1.46-4.38v-9.44h-2.43v-4.11h2.43v-4.73h5.92zm13.06 15.46l3.16-10.72h6.35l-7.75 22.2-.33.81c-1.1 2.46-3.05 3.69-5.84 3.69-.77 0-1.59-.12-2.44-.35v-4.22h.77c.83 0 1.47-.12 1.91-.36.44-.24.76-.67.98-1.29l.47-1.27-6.61-19.21h6.33l3 10.72zm26.91-15.46v4.73h3.13v4.11h-3.13v8.7c0 .71.13 1.21.39 1.49s.77.42 1.53.42c.59 0 1.08-.04 1.48-.11v4.24c-1.07.34-2.18.51-3.34.51-2.04 0-3.54-.48-4.52-1.44s-1.46-2.42-1.46-4.38v-9.44h-2.43v-4.11h2.43v-4.73h5.92zm11.25 6.77c1.27-1.59 2.88-2.39 4.85-2.39 2.1 0 3.68.62 4.75 1.86s1.61 3.08 1.63 5.5v12.01h-5.94v-11.87c0-1.01-.21-1.75-.62-2.22s-1.11-.71-2.09-.71c-1.22 0-2.08.39-2.58 1.16v13.64H199v-27h5.92v10.02zm23.74 17.33c-2.92 0-5.28-.87-7.08-2.61s-2.71-4-2.71-6.79v-.49c0-1.95.36-3.66 1.08-5.15s1.77-2.64 3.16-3.45 3.02-1.22 4.92-1.22c2.67 0 4.78.83 6.33 2.49 1.55 1.66 2.32 3.97 2.32 6.94v2.3H224.9c.21 1.07.67 1.9 1.39 2.51s1.64.91 2.78.91c1.88 0 3.34-.66 4.39-1.97l2.71 3.2c-.74 1.02-1.78 1.83-3.14 2.43s-2.82.9-4.37.9zm-.67-15.15c-1.73 0-2.77 1.15-3.09 3.45h5.98v-.46c.02-.95-.22-1.68-.72-2.21s-1.24-.78-2.17-.78zm12.37 14.8v-14.9h-2.76v-4.11h2.76v-1.51c0-2.17.64-3.85 1.92-5.04s3.07-1.79 5.38-1.79c.84 0 1.77.12 2.78.37l.02 4.36c-.36-.11-.85-.16-1.46-.16-1.79 0-2.69.77-2.69 2.32v1.46h3.71v4.11h-3.71v14.91h-5.95zM259 211.45v4.73h3.13v4.11H259v8.7c0 .71.13 1.21.39 1.49s.77.42 1.53.42c.59 0 1.08-.04 1.48-.11v4.24c-1.07.34-2.18.51-3.34.51-2.04 0-3.54-.48-4.52-1.44s-1.46-2.42-1.46-4.38v-9.44h-2.43v-4.11h2.43v-4.73H259zM123.23 278.4c-.21-.39-.4-.96-.56-1.71-1.09 1.37-2.61 2.06-4.57 2.06-1.79 0-3.32-.54-4.57-1.63s-1.88-2.45-1.88-4.09c0-2.06.76-3.62 2.29-4.68s3.74-1.58 6.64-1.58h1.83v-1.01c0-1.75-.76-2.63-2.27-2.63-1.41 0-2.11.7-2.11 2.08h-5.92c0-1.84.78-3.33 2.35-4.48 1.56-1.15 3.56-1.72 5.99-1.72s4.34.59 5.75 1.78 2.13 2.81 2.16 4.87v8.42c.02 1.75.29 3.08.81 4.01v.3h-5.94zm-3.71-3.86c.74 0 1.35-.16 1.84-.47s.83-.67 1.05-1.07v-3.04h-1.72c-2.06 0-3.09.93-3.09 2.78 0 .54.18.98.54 1.31s.82.49 1.38.49zm18.35 3.86h-5.94v-27h5.94v27zm12.85.35c-2.92 0-5.28-.87-7.08-2.61s-2.71-4-2.71-6.79v-.49c0-1.95.36-3.66 1.08-5.15s1.77-2.64 3.16-3.45 3.02-1.22 4.92-1.22c2.67 0 4.78.83 6.33 2.49s2.32 3.97 2.32 6.93v2.3h-11.78c.21 1.07.67 1.9 1.39 2.51s1.64.91 2.78.91c1.88 0 3.34-.66 4.39-1.97l2.71 3.2c-.74 1.02-1.78 1.83-3.14 2.43s-2.81.91-4.37.91zm-.67-15.15c-1.73 0-2.77 1.15-3.09 3.45h5.98v-.46c.02-.95-.22-1.68-.72-2.21s-1.23-.78-2.17-.78zm22.58 1.14l-1.95-.14c-1.86 0-3.06.59-3.59 1.76v12.04h-5.92v-19.02h5.55l.19 2.44c1-1.86 2.38-2.79 4.17-2.79.63 0 1.18.07 1.65.21l-.1 5.5zm9.91-10.09v4.73h3.13v4.11h-3.13v8.7c0 .71.13 1.21.39 1.49s.77.42 1.53.42c.59 0 1.08-.04 1.48-.11v4.24c-1.07.34-2.18.51-3.34.51-2.04 0-3.54-.48-4.52-1.44s-1.46-2.42-1.46-4.38v-9.44h-2.43v-4.11h2.43v-4.73h5.92zm15.42 18.41c0-.5-.26-.91-.79-1.21s-1.53-.62-3.01-.95-2.7-.76-3.66-1.29-1.69-1.18-2.2-1.94-.76-1.63-.76-2.62c0-1.75.72-3.18 2.16-4.32s3.33-1.7 5.66-1.7c2.51 0 4.52.57 6.05 1.71s2.29 2.63 2.29 4.48h-5.94c0-1.52-.8-2.29-2.41-2.29-.62 0-1.14.17-1.56.52s-.63.78-.63 1.29c0 .53.26.96.77 1.28s1.34.6 2.47.81 2.12.46 2.98.76c2.86.98 4.29 2.75 4.29 5.29 0 1.73-.77 3.15-2.31 4.24s-3.54 1.63-5.99 1.63c-1.63 0-3.08-.29-4.36-.88s-2.27-1.38-2.99-2.39-1.07-2.07-1.07-3.18h5.54c.02.88.32 1.52.88 1.92s1.28.61 2.16.61c.81 0 1.42-.16 1.82-.49s.61-.75.61-1.28z"/></svg>