<svg id="Layer_1" xmlns="http://www.w3.org/2000/svg" viewBox="0 0 320 468"><style>.st0{fill:#021d8b}.st1{fill:#fff}</style><path class="st0" d="M196.72 357.13h-76.59c-12.77 0-23.12-10.35-23.12-23.12 0-12.77 10.35-23.12 23.12-23.12h76.59c12.77 0 23.12 10.35 23.12 23.12 0 12.76-10.35 23.12-23.12 23.12z"/><path class="st1" d="M142.48 327.48c-.08 1.07-.47 1.91-1.19 2.53s-1.65.92-2.82.92c-1.28 0-2.28-.43-3.01-1.29-.73-.86-1.1-2.04-1.1-3.54v-.61c0-.96.17-1.8.51-2.53s.82-1.29 1.45-1.68c.63-.39 1.35-.58 2.18-.58 1.15 0 2.07.31 2.78.92s1.11 1.48 1.22 2.59h-2.05c-.05-.64-.23-1.11-.54-1.4-.31-.29-.78-.43-1.4-.43-.68 0-1.2.25-1.53.73-.34.49-.51 1.25-.52 2.28v.75c0 1.08.16 1.86.49 2.36s.84.75 1.54.75c.63 0 1.11-.14 1.42-.43.31-.29.49-.74.54-1.34h2.03zM145.78 330.8h-1.98v-10.5h1.98v10.5zM147.39 321.49c0-.3.1-.54.3-.73s.47-.29.81-.29c.34 0 .61.1.81.29s.3.44.3.73c0 .3-.1.55-.3.74s-.47.29-.8.29-.6-.1-.8-.29-.32-.44-.32-.74zm2.1 9.31h-1.98v-7.4h1.98v7.4zM154.19 329.34c.36 0 .66-.1.89-.3s.35-.47.36-.8h1.85c0 .5-.14.96-.41 1.38-.27.42-.64.74-1.1.97-.47.23-.98.35-1.55.35-1.06 0-1.89-.34-2.5-1.01-.61-.67-.92-1.6-.92-2.79v-.13c0-1.14.3-2.05.91-2.73s1.44-1.02 2.5-1.02c.93 0 1.67.26 2.23.79s.84 1.23.85 2.1h-1.85c-.01-.38-.13-.7-.36-.94-.23-.24-.53-.36-.9-.36-.46 0-.81.17-1.04.5-.23.34-.35.88-.35 1.63v.21c0 .76.12 1.31.35 1.64s.57.51 1.04.51zM161.1 327.83l-.71.71v2.26h-1.98v-10.5h1.98v5.82l.38-.49 1.89-2.22h2.37l-2.67 3.08 2.91 4.31H163l-1.9-2.97zM171.75 321.58v1.82h1.26v1.45h-1.26v3.69c0 .27.05.47.16.59s.31.18.6.18c.22 0 .41-.02.58-.05v1.5c-.39.12-.79.18-1.2.18-1.38 0-2.09-.7-2.12-2.1v-3.99h-1.08v-1.45h1.08v-1.82h1.98zM173.6 327.03c0-.73.14-1.39.42-1.96.28-.57.69-1.02 1.22-1.33.53-.31 1.15-.47 1.85-.47 1 0 1.81.31 2.44.92.63.61.98 1.44 1.06 2.49l.01.51c0 1.13-.32 2.04-.95 2.73-.63.69-1.48 1.03-2.55 1.03s-1.92-.34-2.55-1.03-.95-1.61-.95-2.79v-.1zm1.98.14c0 .7.13 1.24.4 1.61.26.37.64.56 1.13.56.48 0 .85-.18 1.12-.55.27-.37.4-.96.4-1.76 0-.69-.13-1.22-.4-1.6-.27-.38-.65-.57-1.13-.57-.48 0-.86.19-1.12.56-.27.38-.4.96-.4 1.75zM126.3 347.6h-1.98v-10.5h1.98v10.5zM131.33 347.73c-1.08 0-1.97-.33-2.65-1s-1.02-1.55-1.02-2.66v-.19c0-.74.14-1.41.43-1.99.29-.58.69-1.04 1.22-1.35.53-.32 1.13-.47 1.8-.47 1.01 0 1.81.32 2.39.96s.87 1.54.87 2.71v.81h-4.71c.06.48.26.87.58 1.16s.73.44 1.22.44c.76 0 1.36-.28 1.78-.83l.97 1.09c-.3.42-.7.75-1.2.98-.5.23-1.06.34-1.68.34zm-.23-6.07c-.39 0-.71.13-.95.4s-.4.65-.47 1.14h2.75v-.16c-.01-.44-.13-.78-.36-1.02s-.55-.36-.97-.36zM139.78 347.6c-.09-.18-.16-.4-.2-.66-.48.53-1.1.8-1.87.8-.72 0-1.33-.21-1.8-.63s-.71-.95-.71-1.59c0-.78.29-1.39.87-1.8s1.42-.63 2.52-.64h.91v-.42c0-.34-.09-.62-.26-.82s-.45-.31-.83-.31c-.33 0-.59.08-.78.24s-.28.38-.28.66h-1.98c0-.43.13-.83.4-1.19s.64-.65 1.12-.86c.48-.21 1.03-.31 1.63-.31.91 0 1.63.23 2.17.69.54.46.8 1.1.8 1.93v3.21c0 .7.1 1.23.29 1.59v.12h-2zm-1.63-1.38c.29 0 .56-.07.81-.19.25-.13.43-.3.55-.52v-1.27h-.74c-.99 0-1.52.34-1.58 1.03l-.01.12c0 .25.09.45.26.61s.41.22.71.22zM147.16 342.05c-.27-.04-.51-.05-.71-.05-.75 0-1.24.25-1.47.76v4.84H143v-7.4h1.87l.05.88c.4-.68.95-1.02 1.65-1.02.22 0 .42.03.62.09l-.03 1.9zM149.92 340.2l.06.85c.53-.66 1.24-.99 2.13-.99.78 0 1.37.23 1.75.69s.58 1.15.59 2.06v4.78h-1.98v-4.73c0-.42-.09-.72-.27-.91-.18-.19-.49-.28-.91-.28-.56 0-.97.24-1.25.71v5.22h-1.98v-7.4h1.86zM161.29 340.2l.06.83c.52-.64 1.23-.96 2.13-.96.95 0 1.61.38 1.96 1.13.52-.75 1.26-1.13 2.22-1.13.8 0 1.4.23 1.79.7.39.47.59 1.17.59 2.11v4.72h-1.98v-4.72c0-.42-.08-.73-.25-.92-.16-.19-.45-.29-.87-.29-.59 0-1 .28-1.23.85l.01 5.08h-1.98v-4.71c0-.43-.08-.74-.25-.93-.17-.19-.46-.29-.86-.29-.56 0-.97.23-1.22.7v5.23h-1.98v-7.4h1.86zM171.25 343.83c0-.73.14-1.39.42-1.96.28-.57.69-1.02 1.22-1.33.53-.31 1.15-.47 1.85-.47 1 0 1.81.31 2.44.92.63.61.98 1.44 1.06 2.49l.01.51c0 1.13-.32 2.04-.95 2.73-.63.69-1.48 1.03-2.55 1.03s-1.92-.34-2.55-1.03-.95-1.61-.95-2.79v-.1zm1.97.14c0 .7.13 1.24.4 1.61.26.37.64.56 1.13.56.48 0 .85-.18 1.12-.55.27-.37.4-.96.4-1.76 0-.69-.13-1.22-.4-1.6-.27-.38-.65-.57-1.13-.57-.48 0-.86.19-1.12.56-.27.38-.4.96-.4 1.75zM183.63 342.05c-.27-.04-.51-.05-.71-.05-.75 0-1.24.25-1.47.76v4.84h-1.98v-7.4h1.87l.05.88c.4-.68.95-1.02 1.65-1.02.22 0 .42.03.62.09l-.03 1.9zM187.98 347.73c-1.08 0-1.97-.33-2.65-1-.68-.67-1.02-1.55-1.02-2.66v-.19c0-.74.14-1.41.43-1.99.29-.58.69-1.04 1.22-1.35.53-.32 1.13-.47 1.8-.47 1.01 0 1.81.32 2.39.96.58.64.87 1.54.87 2.71v.81h-4.71c.06.48.26.87.58 1.16s.73.44 1.22.44c.76 0 1.36-.28 1.78-.83l.97 1.09c-.3.42-.7.75-1.2.98-.5.23-1.06.34-1.68.34zm-.23-6.07c-.39 0-.71.13-.95.4s-.4.65-.47 1.14h2.75v-.16c-.01-.44-.13-.78-.36-1.02s-.55-.36-.97-.36z"/></svg>