<svg id="Layer_1" xmlns="http://www.w3.org/2000/svg" viewBox="0 0 160 600"><style>.st0{fill:url(#SVGID_1_)}</style><linearGradient id="SVGID_1_" gradientUnits="userSpaceOnUse" x1="15.61" y1="260.099" x2="144.839" y2="260.099"><stop offset="0" stop-color="#18b9fb"/><stop offset=".5" stop-color="#782eeb"/><stop offset="1" stop-color="#e82d8a"/></linearGradient><path class="st0" d="M22.43 199.74l3.49 10.88 3.48-10.88h4.96v15.64h-3.78v-3.65l.37-7.48-3.78 11.13h-2.49l-3.79-11.14.37 7.49v3.65h-3.77v-15.64h4.94zm13.7 9.72c0-1.16.23-2.19.68-3.1.45-.91 1.1-1.6 1.94-2.09s1.84-.73 2.98-.73c1.74 0 3.11.54 4.11 1.62 1 1.08 1.5 2.54 1.5 4.4v.13c0 1.81-.5 3.25-1.51 4.31-1.01 1.06-2.37 1.6-4.09 1.6-1.65 0-2.98-.5-3.99-1.49-1-.99-1.54-2.34-1.62-4.03v-.62zm3.62.22c0 1.07.17 1.86.5 2.36s.83.75 1.49.75c1.29 0 1.95-.99 1.98-2.98v-.37c0-2.08-.67-3.13-2-3.13-1.21 0-1.87.9-1.97 2.7v.67zm12.52-5.93l.12 1.36c.8-1.05 1.91-1.58 3.32-1.58 1.21 0 2.11.36 2.71 1.08.6.72.91 1.81.93 3.27v7.49h-3.63v-7.34c0-.59-.12-1.02-.35-1.29-.24-.28-.67-.41-1.29-.41-.71 0-1.24.28-1.58.84v8.21h-3.62v-11.62h3.39zm9.05-2.99c0-.52.19-.94.56-1.27s.86-.49 1.45-.49 1.08.17 1.45.49.56.75.56 1.27-.19.94-.56 1.27-.86.49-1.45.49-1.08-.17-1.45-.49-.56-.76-.56-1.27zm3.85 14.62h-3.63v-11.62h3.63v11.62zm6.45-14.52v2.89h1.91v2.51h-1.91v5.32c0 .44.08.74.24.91s.47.26.93.26c.36 0 .66-.02.9-.06v2.59c-.65.21-1.33.31-2.04.31-1.25 0-2.17-.29-2.76-.88s-.89-1.48-.89-2.67v-5.77h-1.48v-2.51H68v-2.89h3.62zm2.55 8.6c0-1.16.23-2.19.68-3.1.45-.91 1.1-1.6 1.94-2.09s1.84-.73 2.98-.73c1.74 0 3.11.54 4.11 1.62 1 1.08 1.5 2.54 1.5 4.4v.13c0 1.81-.5 3.25-1.51 4.31-1.01 1.06-2.37 1.6-4.09 1.6-1.65 0-2.98-.5-3.99-1.49-1-.99-1.54-2.34-1.62-4.03v-.62zm3.62.22c0 1.07.17 1.86.5 2.36s.83.75 1.49.75c1.29 0 1.95-.99 1.98-2.98v-.37c0-2.08-.67-3.13-2-3.13-1.21 0-1.87.9-1.97 2.7v.67zm16.22-2.65l-1.19-.09c-1.14 0-1.87.36-2.19 1.07v7.36h-3.62v-11.62h3.39l.12 1.49c.61-1.14 1.46-1.71 2.55-1.71.39 0 .72.04 1.01.13l-.07 3.37zm11.43 3.28l1.93-6.55h3.88l-4.74 13.57-.2.49c-.67 1.5-1.86 2.26-3.57 2.26-.47 0-.97-.07-1.49-.21v-2.58h.47c.51 0 .9-.07 1.17-.22.27-.15.47-.41.6-.79l.29-.77-4.04-11.74h3.87l1.83 6.54zm6.14-.85c0-1.16.23-2.19.68-3.1.45-.91 1.1-1.6 1.94-2.09s1.84-.73 2.98-.73c1.74 0 3.11.54 4.11 1.62 1 1.08 1.5 2.54 1.5 4.4v.13c0 1.81-.5 3.25-1.51 4.31-1.01 1.06-2.37 1.6-4.09 1.6-1.65 0-2.98-.5-3.99-1.49-1-.99-1.54-2.34-1.62-4.03v-.62zm3.62.22c0 1.07.17 1.86.5 2.36s.83.75 1.49.75c1.29 0 1.95-.99 1.98-2.98v-.37c0-2.08-.67-3.13-2-3.13-1.21 0-1.87.9-1.97 2.7v.67zm16.11 4.44c-.77.98-1.8 1.47-3.1 1.47-1.27 0-2.24-.37-2.89-1.11-.66-.74-.98-1.81-.98-3.2v-7.53h3.62v7.55c0 1 .48 1.49 1.45 1.49.83 0 1.42-.3 1.77-.89v-8.15h3.64v11.62h-3.39l-.12-1.25zm12.51-7.09l-1.19-.09c-1.14 0-1.87.36-2.19 1.07v7.36h-3.62v-11.62h3.39l.12 1.49c.61-1.14 1.46-1.71 2.55-1.71.39 0 .72.04 1.01.13l-.07 3.37zm-95.04 29.02c0 1.8-.41 3.25-1.22 4.32-.81 1.08-1.91 1.62-3.29 1.62-1.07 0-1.94-.39-2.63-1.17v5.42h-3.62v-16.09h3.38l.11 1.07c.69-.86 1.61-1.29 2.74-1.29 1.43 0 2.55.53 3.34 1.58.79 1.06 1.19 2.51 1.19 4.36v.18zm-3.62-.22c0-2.06-.6-3.09-1.8-3.09-.86 0-1.43.31-1.72.92v4.58c.32.64.9.97 1.74.97 1.15 0 1.75-1 1.78-2.99v-.39zM56 241.99c-1.78 0-3.23-.53-4.33-1.6-1.1-1.06-1.65-2.45-1.65-4.15v-.3c0-1.19.22-2.24.66-3.15.44-.91 1.08-1.61 1.93-2.11.84-.5 1.85-.75 3.01-.75 1.63 0 2.92.51 3.87 1.52.95 1.01 1.42 2.43 1.42 4.24v1.41h-7.2c.13.65.41 1.16.85 1.54s1 .56 1.7.56c1.15 0 2.04-.4 2.69-1.2l1.65 1.96c-.45.62-1.09 1.12-1.92 1.49-.84.36-1.73.54-2.68.54zm-.41-9.26c-1.06 0-1.69.7-1.89 2.11h3.65v-.28c.01-.58-.13-1.03-.44-1.35-.3-.32-.74-.48-1.32-.48zm13.8.7l-1.19-.09c-1.14 0-1.87.36-2.19 1.07v7.36h-3.62v-11.62h3.39l.12 1.49c.61-1.14 1.46-1.71 2.55-1.71.39 0 .72.04 1.01.13l-.07 3.37zm7.39 5.08c0-.31-.16-.55-.48-.74s-.93-.38-1.84-.58-1.65-.46-2.23-.79c-.59-.33-1.04-.72-1.34-1.19s-.46-1-.46-1.6c0-1.07.44-1.95 1.32-2.64.88-.69 2.03-1.04 3.46-1.04 1.53 0 2.76.35 3.7 1.04s1.4 1.61 1.4 2.74h-3.63c0-.93-.49-1.4-1.47-1.4-.38 0-.7.11-.96.32a.97.97 0 0 0-.39.79c0 .32.16.58.47.78s.82.37 1.51.49c.69.13 1.3.28 1.82.46 1.75.6 2.62 1.68 2.62 3.23 0 1.06-.47 1.92-1.41 2.59-.94.67-2.16 1-3.66 1-1 0-1.88-.18-2.66-.54s-1.39-.84-1.83-1.46-.66-1.26-.66-1.94h3.38c.01.54.19.93.54 1.18.34.25.78.37 1.32.37.49 0 .86-.1 1.11-.3a.93.93 0 0 0 .37-.77zm4.72-2.65c0-1.16.23-2.19.68-3.1.45-.91 1.1-1.6 1.94-2.09s1.84-.73 2.98-.73c1.74 0 3.11.54 4.11 1.62 1 1.08 1.5 2.54 1.5 4.4v.13c0 1.81-.5 3.25-1.51 4.31-1.01 1.06-2.37 1.6-4.09 1.6-1.65 0-2.98-.5-3.99-1.49-1-.99-1.54-2.34-1.62-4.03v-.62zm3.62.22c0 1.07.17 1.86.5 2.36s.83.75 1.49.75c1.29 0 1.95-.99 1.98-2.98v-.37c0-2.08-.67-3.13-2-3.13-1.21 0-1.87.9-1.97 2.7v.67zm12.52-5.93l.12 1.36c.8-1.05 1.91-1.58 3.32-1.58 1.21 0 2.11.36 2.71 1.08.6.72.91 1.81.93 3.27v7.49h-3.63v-7.34c0-.59-.12-1.02-.35-1.29-.24-.28-.67-.41-1.29-.41-.71 0-1.24.28-1.58.84v8.21h-3.62v-11.62h3.39zm15.63 11.63c-.13-.24-.24-.58-.34-1.04-.67.84-1.6 1.26-2.79 1.26-1.1 0-2.03-.33-2.79-.99-.77-.66-1.15-1.49-1.15-2.5 0-1.26.47-2.21 1.4-2.86s2.28-.97 4.06-.97h1.12v-.62c0-1.07-.46-1.61-1.39-1.61-.86 0-1.29.42-1.29 1.27h-3.62c0-1.12.48-2.03 1.43-2.74.96-.7 2.17-1.05 3.66-1.05s2.65.36 3.51 1.08 1.3 1.71 1.32 2.98v5.15c.01 1.07.18 1.88.49 2.45v.18h-3.62zm-2.27-2.37c.45 0 .83-.1 1.12-.29.3-.19.51-.41.64-.66v-1.86h-1.05c-1.26 0-1.89.57-1.89 1.7 0 .33.11.6.33.8.22.21.51.31.85.31zm11.22 2.37h-3.63v-16.5h3.63v16.5zm-99.08 11.78c0-.52.19-.94.56-1.27s.86-.49 1.45-.49 1.08.17 1.45.49.56.75.56 1.27-.19.94-.56 1.27-.86.49-1.45.49-1.08-.17-1.45-.49-.56-.76-.56-1.27zm3.85 14.62h-3.63v-11.62h3.63v11.62zm5.55-11.63l.12 1.36c.8-1.05 1.91-1.58 3.32-1.58 1.21 0 2.11.36 2.71 1.08.6.72.91 1.81.93 3.27v7.49h-3.63v-7.34c0-.59-.12-1.02-.35-1.29-.24-.28-.67-.41-1.29-.41-.71 0-1.24.28-1.58.84v8.21h-3.62v-11.62h3.39zm9.88 11.63v-9.11h-1.69v-2.51h1.69v-.92c0-1.33.39-2.35 1.17-3.08s1.88-1.1 3.29-1.1c.52 0 1.08.08 1.7.23l.01 2.66c-.22-.06-.52-.1-.89-.1-1.1 0-1.64.47-1.64 1.42v.89h2.27v2.51h-2.27v9.11h-3.64zm6.72-5.92c0-1.16.23-2.19.68-3.1.45-.91 1.1-1.6 1.94-2.09s1.84-.73 2.98-.73c1.74 0 3.11.54 4.11 1.62 1 1.08 1.5 2.54 1.5 4.4v.13c0 1.81-.5 3.25-1.51 4.31-1.01 1.06-2.37 1.6-4.09 1.6-1.65 0-2.98-.5-3.99-1.49-1-.99-1.54-2.34-1.62-4.03v-.62zm3.62.22c0 1.07.17 1.86.5 2.36s.83.75 1.49.75c1.29 0 1.95-.99 1.98-2.98v-.37c0-2.08-.67-3.13-2-3.13-1.21 0-1.87.9-1.97 2.7v.67zm16.22-2.65l-1.19-.09c-1.14 0-1.87.36-2.19 1.07v7.36h-3.62v-11.62h3.39l.12 1.49c.61-1.14 1.46-1.71 2.55-1.71.39 0 .72.04 1.01.13l-.07 3.37zm4.72-3.28l.12 1.36c.82-1.05 1.93-1.58 3.32-1.58 1.47 0 2.46.58 2.98 1.75.79-1.17 1.93-1.75 3.42-1.75 2.36 0 3.57 1.42 3.63 4.28v7.56h-3.63v-7.34c0-.59-.1-1.03-.3-1.3s-.57-.41-1.1-.41c-.72 0-1.25.32-1.6.96l.01.15v7.94h-3.63v-7.32c0-.61-.1-1.05-.29-1.32s-.56-.41-1.11-.41c-.69 0-1.22.32-1.59.96v8.09h-3.62v-11.62h3.39zm22.08 11.63c-.13-.24-.24-.58-.34-1.04-.67.84-1.6 1.26-2.79 1.26-1.1 0-2.03-.33-2.79-.99-.77-.66-1.15-1.49-1.15-2.5 0-1.26.47-2.21 1.4-2.86s2.28-.97 4.06-.97h1.12v-.62c0-1.07-.46-1.61-1.39-1.61-.86 0-1.29.42-1.29 1.27h-3.62c0-1.12.48-2.03 1.43-2.74.96-.7 2.17-1.05 3.66-1.05s2.65.36 3.51 1.08 1.3 1.71 1.32 2.98v5.15c.01 1.07.18 1.88.49 2.45v.18h-3.62zm-2.27-2.37c.45 0 .83-.1 1.12-.29.3-.19.51-.41.64-.66V263h-1.05c-1.26 0-1.89.57-1.89 1.7 0 .33.11.6.33.8.23.21.51.31.85.31zm11.61-12.15v2.89h1.91v2.51h-1.91v5.32c0 .44.08.74.24.91s.47.26.93.26c.36 0 .66-.02.9-.06v2.59c-.65.21-1.33.31-2.04.31-1.25 0-2.17-.29-2.76-.88s-.89-1.48-.89-2.67v-5.77h-1.48v-2.51h1.48v-2.89h3.62zm3.31-.1c0-.52.19-.94.56-1.27s.86-.49 1.45-.49 1.08.17 1.45.49.56.75.56 1.27-.19.94-.56 1.27-.86.49-1.45.49-1.08-.17-1.45-.49-.56-.76-.56-1.27zm3.85 14.62h-3.63v-11.62h3.63v11.62zm1.77-5.92c0-1.16.23-2.19.68-3.1.45-.91 1.1-1.6 1.94-2.09s1.84-.73 2.98-.73c1.74 0 3.11.54 4.11 1.62 1 1.08 1.5 2.54 1.5 4.4v.13c0 1.81-.5 3.25-1.51 4.31-1.01 1.06-2.37 1.6-4.09 1.6-1.65 0-2.98-.5-3.99-1.49-1-.99-1.54-2.34-1.62-4.03v-.62zm3.62.22c0 1.07.17 1.86.5 2.36s.83.75 1.49.75c1.29 0 1.95-.99 1.98-2.98v-.37c0-2.08-.67-3.13-2-3.13-1.21 0-1.87.9-1.97 2.7v.67zm12.52-5.93l.12 1.36c.8-1.05 1.91-1.58 3.32-1.58 1.21 0 2.11.36 2.71 1.08.6.72.91 1.81.93 3.27v7.49h-3.63v-7.34c0-.59-.12-1.02-.35-1.29-.24-.28-.67-.41-1.29-.41-.71 0-1.24.28-1.58.84v8.21h-3.62v-11.62h3.39zM15.61 288.66c0-1.16.23-2.19.68-3.1.45-.91 1.1-1.6 1.94-2.09s1.84-.73 2.98-.73c1.74 0 3.11.54 4.11 1.62 1 1.08 1.5 2.54 1.5 4.4v.13c0 1.81-.5 3.25-1.51 4.31-1.01 1.06-2.37 1.6-4.09 1.6-1.65 0-2.98-.5-3.99-1.49-1-.99-1.54-2.34-1.62-4.03v-.62zm3.62.22c0 1.07.17 1.86.5 2.36s.83.75 1.49.75c1.29 0 1.95-.99 1.98-2.98v-.37c0-2.08-.67-3.13-2-3.13-1.21 0-1.87.9-1.97 2.7v.67zm12.52-5.93l.12 1.36c.8-1.05 1.91-1.58 3.32-1.58 1.21 0 2.11.36 2.71 1.08.6.72.91 1.81.93 3.27v7.49H35.2v-7.34c0-.59-.12-1.02-.35-1.29-.24-.28-.67-.41-1.29-.41-.71 0-1.24.28-1.58.84v8.21h-3.62v-11.62h3.39zm18.77-2.89v2.89h1.91v2.51h-1.91v5.32c0 .44.08.74.24.91s.47.26.93.26c.36 0 .66-.02.9-.06v2.59c-.65.21-1.33.31-2.04.31-1.25 0-2.17-.29-2.76-.88s-.89-1.48-.89-2.67v-5.77h-1.48v-2.51h1.48v-2.89h3.62zm6.88 4.14c.77-.97 1.76-1.46 2.96-1.46 1.28 0 2.25.38 2.9 1.14s.98 1.88 1 3.36v7.34h-3.63v-7.25c0-.62-.12-1.07-.38-1.36-.25-.29-.68-.44-1.28-.44-.75 0-1.27.24-1.58.71v8.34h-3.62v-16.5h3.62v6.12zm14.5 10.59c-1.78 0-3.23-.53-4.33-1.6-1.1-1.06-1.65-2.45-1.65-4.15v-.3c0-1.19.22-2.24.66-3.15.44-.91 1.08-1.61 1.93-2.11.84-.5 1.85-.75 3.01-.75 1.63 0 2.92.51 3.87 1.52.95 1.01 1.42 2.43 1.42 4.24v1.41h-7.2c.13.65.41 1.16.85 1.54s1 .56 1.7.56c1.15 0 2.04-.4 2.69-1.2l1.65 1.96c-.45.62-1.09 1.12-1.92 1.49-.84.36-1.73.54-2.68.54zm-.41-9.26c-1.06 0-1.69.7-1.89 2.11h3.65v-.28c.01-.58-.13-1.03-.44-1.35-.31-.32-.75-.48-1.32-.48zm16.18 3.74v5.31H83.9v-15.64h6.24c1.2 0 2.25.22 3.17.66.92.44 1.63 1.07 2.14 1.88.51.81.76 1.73.76 2.77 0 1.53-.55 2.74-1.64 3.66-1.09.91-2.59 1.37-4.5 1.37h-2.4zm0-2.91h2.47c.73 0 1.29-.18 1.67-.55.38-.37.57-.88.57-1.55 0-.73-.2-1.31-.59-1.75s-.93-.66-1.61-.67h-2.51v4.52zm17.3 6.96c-.77.98-1.8 1.47-3.1 1.47-1.27 0-2.24-.37-2.89-1.11-.66-.74-.98-1.81-.98-3.2v-7.53h3.62v7.55c0 1 .48 1.49 1.45 1.49.83 0 1.42-.3 1.77-.89v-8.15h3.64v11.62h-3.39l-.12-1.25zm16.28-4.46c0 1.91-.39 3.37-1.18 4.39s-1.9 1.54-3.33 1.54c-1.18 0-2.13-.47-2.86-1.41l-.15 1.19h-3.24v-16.5h3.62v5.81c.67-.77 1.54-1.15 2.61-1.15 1.45 0 2.56.52 3.35 1.56s1.18 2.5 1.18 4.38v.19zm-3.63-.23c0-1.12-.15-1.91-.45-2.39-.3-.47-.75-.71-1.37-.71-.82 0-1.38.31-1.7.93v4.61c.31.61.88.92 1.72.92.85 0 1.39-.42 1.62-1.24.12-.4.18-1.11.18-2.12zm9.04 5.95h-3.63v-16.5h3.63v16.5zm2.21-14.62c0-.52.19-.94.56-1.27s.86-.49 1.45-.49 1.08.17 1.45.49.56.75.56 1.27-.19.94-.56 1.27-.86.49-1.45.49-1.08-.17-1.45-.49-.56-.76-.56-1.27zm3.84 14.62h-3.63v-11.62h3.63v11.62zm7.14-2.58c.51 0 .9-.14 1.18-.41.28-.28.42-.66.41-1.15h3.39c0 1.27-.46 2.32-1.37 3.14-.91.82-2.09 1.22-3.53 1.22-1.69 0-3.02-.53-4-1.59s-1.46-2.53-1.46-4.4v-.15c0-1.17.22-2.21.65-3.11.43-.9 1.06-1.59 1.87-2.07.82-.48 1.78-.72 2.9-.72 1.51 0 2.71.42 3.6 1.26s1.33 1.97 1.33 3.41h-3.39c0-.6-.15-1.06-.44-1.39s-.69-.48-1.18-.48c-.94 0-1.49.6-1.64 1.79-.05.38-.08.9-.08 1.57 0 1.17.14 1.98.42 2.43s.74.65 1.34.65zM25.94 312.74c-.42-.6-.75-1.17-.99-1.72a4.14 4.14 0 0 1-.36-1.69c0-1.26.41-2.28 1.22-3.06.82-.78 1.88-1.17 3.2-1.17 1.18 0 2.16.36 2.93 1.08.77.72 1.16 1.61 1.16 2.68 0 1.33-.73 2.51-2.2 3.54l-.82.57 2.41 2.76c.39-.79.59-1.65.59-2.59h3.04c0 2.11-.49 3.81-1.46 5.08l2.38 2.74H33l-.73-.83c-.6.36-1.22.62-1.84.79-.63.17-1.33.26-2.12.26-1.55 0-2.79-.41-3.72-1.22-.93-.81-1.4-1.88-1.4-3.21 0-.72.18-1.38.55-1.97.37-.59 1.09-1.27 2.15-2.05l.05.01zm2.61 5.67c.63 0 1.23-.15 1.8-.44l-2.81-3.2-.1.06c-.41.5-.61 1.07-.61 1.7 0 .52.17.97.49 1.33s.75.55 1.23.55zm-.83-9.12c0 .5.27 1.11.82 1.83l.72-.45c.33-.21.57-.44.72-.67s.23-.52.23-.87c0-.33-.11-.62-.34-.86s-.51-.37-.85-.37c-.4 0-.72.13-.95.38-.24.26-.35.59-.35 1.01zm16.37 11.69v-15.64h5.04c1.38 0 2.62.31 3.73.94 1.1.63 1.96 1.51 2.58 2.65.62 1.14.93 2.42.94 3.84v.72c0 1.43-.3 2.72-.91 3.85a6.559 6.559 0 0 1-2.56 2.66c-1.1.64-2.33.97-3.68.97h-5.14zm3.77-12.73v9.83h1.31c1.08 0 1.91-.38 2.49-1.15.58-.77.87-1.91.87-3.43v-.68c0-1.51-.29-2.65-.87-3.42s-1.42-1.15-2.54-1.15h-1.26zm16.83 12.73c-.13-.24-.24-.58-.34-1.04-.67.84-1.6 1.26-2.79 1.26-1.1 0-2.03-.33-2.79-.99-.77-.66-1.15-1.49-1.15-2.5 0-1.26.47-2.21 1.4-2.86s2.28-.97 4.06-.97h1.12v-.62c0-1.07-.46-1.61-1.39-1.61-.86 0-1.29.42-1.29 1.27H57.9c0-1.12.48-2.03 1.43-2.74.96-.7 2.17-1.05 3.66-1.05s2.65.36 3.51 1.08 1.3 1.71 1.32 2.98v5.15c.01 1.07.18 1.88.49 2.45v.18h-3.62zm-2.27-2.37c.45 0 .83-.1 1.12-.29.3-.19.51-.41.64-.66v-1.86h-1.05c-1.26 0-1.89.57-1.89 1.7 0 .33.11.6.33.8.23.21.51.31.85.31zm14.43-5.98l-1.19-.09c-1.14 0-1.87.36-2.19 1.07v7.36h-3.62v-11.62h3.39l.12 1.49c.61-1.14 1.46-1.71 2.55-1.71.39 0 .72.04 1.01.13l-.07 3.37zm5.97 4.02l-1.02 1.02v3.31h-3.62v-16.51h3.62v8.77l.37-.48 2.73-3.39h4.34l-4.07 4.78 4.34 6.84h-4.15l-2.54-4.34zm25.13-1.51l1.79-9.81h3.74l-3.32 15.64h-3.91l-2.09-8.92-2.05 8.92h-3.9l-3.33-15.64h3.75l1.79 9.81 2.15-9.81h3.2l2.18 9.81zm12.13 6.05c-1.78 0-3.23-.53-4.33-1.6-1.1-1.06-1.65-2.45-1.65-4.15v-.3c0-1.19.22-2.24.66-3.15.44-.91 1.08-1.61 1.93-2.11.84-.5 1.85-.75 3.01-.75 1.63 0 2.92.51 3.87 1.52.95 1.01 1.42 2.43 1.42 4.24v1.41h-7.2c.13.65.41 1.16.85 1.54s1 .56 1.7.56c1.15 0 2.04-.4 2.69-1.2l1.65 1.96c-.45.62-1.09 1.12-1.92 1.49-.84.36-1.73.54-2.68.54zm-.41-9.26c-1.06 0-1.69.7-1.89 2.11h3.65v-.28c.01-.58-.13-1.03-.44-1.35-.31-.32-.75-.48-1.32-.48zm17.55 3.33c0 1.91-.39 3.37-1.18 4.39s-1.9 1.54-3.33 1.54c-1.18 0-2.13-.47-2.86-1.41l-.15 1.19h-3.24v-16.5h3.62v5.81c.67-.77 1.54-1.15 2.61-1.15 1.45 0 2.56.52 3.35 1.56s1.18 2.5 1.18 4.38v.19zm-3.63-.23c0-1.12-.15-1.91-.45-2.39-.3-.47-.75-.71-1.37-.71-.82 0-1.38.31-1.7.93v4.61c.31.61.88.92 1.72.92.85 0 1.39-.42 1.62-1.24.12-.4.18-1.11.18-2.12z"/></svg>