<?xml version="1.0" encoding="utf-8"?>
<!-- Generator: Adobe Illustrator 24.2.3, SVG Export Plug-In . SVG Version: 6.00 Build 0)  -->
<svg version="1.1" id="Layer_1" xmlns="http://www.w3.org/2000/svg" xmlns:xlink="http://www.w3.org/1999/xlink" x="0px" y="0px"
	 viewBox="0 0 320 50" style="enable-background:new 0 0 320 50;" xml:space="preserve">
<style type="text/css">
	.st0{fill:#021D8B;}
	.st1{fill:url(#SVGID_1_);}
</style>
<g id="C3_-_O_1_">
	<g>
		<path class="st0" d="M146.99,41.5c0-0.19-0.07-0.36-0.2-0.49c-0.14-0.13-0.36-0.25-0.69-0.36c-0.45-0.14-0.77-0.31-0.98-0.53
			c-0.2-0.22-0.31-0.5-0.31-0.84c0-0.34,0.1-0.63,0.3-0.85c0.2-0.22,0.48-0.35,0.83-0.39v-0.69h0.47v0.69
			c0.35,0.05,0.63,0.2,0.82,0.44c0.2,0.25,0.29,0.59,0.29,1.02h-0.58c0-0.3-0.07-0.53-0.21-0.71s-0.33-0.26-0.57-0.26
			c-0.25,0-0.44,0.06-0.57,0.19s-0.2,0.31-0.2,0.54c0,0.21,0.07,0.39,0.21,0.51c0.14,0.13,0.37,0.24,0.69,0.35
			c0.32,0.1,0.57,0.22,0.75,0.34c0.18,0.12,0.31,0.27,0.4,0.44c0.08,0.17,0.13,0.36,0.13,0.58c0,0.35-0.11,0.64-0.32,0.86
			s-0.51,0.34-0.9,0.38v0.6h-0.47v-0.6c-0.39-0.04-0.7-0.17-0.92-0.42c-0.22-0.24-0.33-0.57-0.33-0.99h0.58
			c0,0.29,0.08,0.52,0.23,0.67c0.15,0.16,0.37,0.24,0.65,0.24c0.27,0,0.49-0.07,0.65-0.2C146.91,41.91,146.99,41.73,146.99,41.5z"/>
		<path class="st0" d="M150.21,42.68h-0.59V38.8l-1.17,0.43V38.7l1.67-0.63h0.09V42.68z"/>
		<path class="st0" d="M154.36,38.45v0.83H155v0.45h-0.64v2.12c0,0.14,0.03,0.24,0.08,0.31s0.15,0.1,0.29,0.1
			c0.07,0,0.16-0.01,0.28-0.04v0.47c-0.15,0.04-0.3,0.06-0.45,0.06c-0.26,0-0.46-0.08-0.59-0.24c-0.13-0.16-0.2-0.38-0.2-0.67v-2.11
			h-0.62v-0.45h0.62v-0.83H154.36z"/>
		<path class="st0" d="M157.33,39.79c-0.09-0.01-0.18-0.02-0.29-0.02c-0.38,0-0.64,0.16-0.78,0.49v2.42h-0.58v-3.41h0.57l0.01,0.39
			c0.19-0.3,0.46-0.46,0.81-0.46c0.11,0,0.2,0.01,0.26,0.04V39.79z"/>
		<path class="st0" d="M157.86,38.37c0-0.09,0.03-0.17,0.09-0.24c0.06-0.06,0.14-0.1,0.26-0.1s0.2,0.03,0.26,0.1
			c0.06,0.07,0.09,0.15,0.09,0.24c0,0.09-0.03,0.17-0.09,0.24c-0.06,0.06-0.14,0.09-0.26,0.09s-0.2-0.03-0.26-0.09
			S157.86,38.46,157.86,38.37z M158.49,42.68h-0.58v-3.41h0.58V42.68z"/>
		<path class="st0" d="M161.53,42.68c-0.03-0.07-0.06-0.19-0.08-0.36c-0.27,0.28-0.59,0.42-0.97,0.42c-0.34,0-0.61-0.09-0.83-0.29
			c-0.22-0.19-0.32-0.43-0.32-0.72c0-0.35,0.13-0.63,0.4-0.83s0.65-0.29,1.14-0.29h0.57v-0.27c0-0.2-0.06-0.37-0.18-0.49
			s-0.3-0.18-0.54-0.18c-0.21,0-0.38,0.05-0.52,0.16c-0.14,0.1-0.21,0.23-0.21,0.38h-0.59c0-0.17,0.06-0.33,0.18-0.49
			c0.12-0.16,0.28-0.28,0.49-0.38s0.43-0.14,0.68-0.14c0.39,0,0.7,0.1,0.92,0.29c0.22,0.2,0.34,0.47,0.35,0.81v1.57
			c0,0.31,0.04,0.56,0.12,0.75v0.05H161.53z M160.56,42.23c0.18,0,0.36-0.05,0.52-0.14c0.16-0.09,0.28-0.22,0.36-0.37v-0.7h-0.46
			c-0.71,0-1.07,0.21-1.07,0.63c0,0.18,0.06,0.33,0.18,0.43C160.21,42.18,160.37,42.23,160.56,42.23z"/>
		<path class="st0" d="M163.57,42.68h-0.58v-4.83h0.58V42.68z"/>
		<path class="st0" d="M166.38,42.68v-2.96h-0.54v-0.45h0.54v-0.35c0-0.37,0.1-0.65,0.29-0.85c0.19-0.2,0.47-0.3,0.83-0.3
			c0.13,0,0.27,0.02,0.4,0.05l-0.03,0.47c-0.1-0.02-0.2-0.03-0.31-0.03c-0.19,0-0.33,0.06-0.44,0.17c-0.1,0.11-0.15,0.27-0.15,0.48
			v0.36h0.73v0.45h-0.73v2.96H166.38z"/>
		<path class="st0" d="M168.18,40.94c0-0.33,0.07-0.63,0.2-0.9c0.13-0.27,0.31-0.47,0.55-0.62c0.23-0.14,0.5-0.22,0.8-0.22
			c0.46,0,0.84,0.16,1.13,0.48c0.29,0.32,0.43,0.75,0.43,1.28v0.04c0,0.33-0.06,0.63-0.19,0.89c-0.13,0.26-0.31,0.47-0.54,0.62
			c-0.24,0.15-0.51,0.22-0.81,0.22c-0.46,0-0.84-0.16-1.12-0.48c-0.29-0.32-0.43-0.75-0.43-1.27V40.94z M168.76,41.01
			c0,0.38,0.09,0.68,0.26,0.91c0.18,0.23,0.41,0.34,0.7,0.34c0.3,0,0.53-0.12,0.71-0.35s0.26-0.56,0.26-0.97
			c0-0.37-0.09-0.68-0.27-0.91c-0.18-0.23-0.41-0.35-0.71-0.35c-0.29,0-0.52,0.11-0.7,0.34C168.85,40.26,168.76,40.59,168.76,41.01z
			"/>
		<path class="st0" d="M173.65,39.79c-0.09-0.01-0.18-0.02-0.29-0.02c-0.38,0-0.64,0.16-0.78,0.49v2.42h-0.58v-3.41h0.57l0.01,0.39
			c0.19-0.3,0.46-0.46,0.81-0.46c0.11,0,0.2,0.01,0.26,0.04V39.79z"/>
		<path class="st0" d="M176.58,38.45v0.83h0.64v0.45h-0.64v2.12c0,0.14,0.03,0.24,0.08,0.31s0.15,0.1,0.29,0.1
			c0.07,0,0.16-0.01,0.28-0.04v0.47c-0.15,0.04-0.3,0.06-0.45,0.06c-0.26,0-0.46-0.08-0.59-0.24c-0.13-0.16-0.2-0.38-0.2-0.67v-2.11
			h-0.62v-0.45h0.62v-0.83H176.58z"/>
		<path class="st0" d="M178.47,39.68c0.26-0.32,0.59-0.48,1.01-0.48c0.72,0,1.08,0.41,1.09,1.22v2.25h-0.58v-2.25
			c0-0.25-0.06-0.43-0.17-0.54c-0.11-0.12-0.28-0.18-0.51-0.18c-0.19,0-0.35,0.05-0.5,0.15c-0.14,0.1-0.25,0.23-0.33,0.4v2.43h-0.58
			v-4.83h0.58V39.68z"/>
		<path class="st0" d="M182.86,42.74c-0.46,0-0.84-0.15-1.13-0.46s-0.43-0.71-0.43-1.22v-0.11c0-0.34,0.06-0.64,0.19-0.9
			s0.31-0.47,0.54-0.62c0.23-0.15,0.48-0.23,0.75-0.23c0.44,0,0.79,0.15,1.03,0.44c0.25,0.29,0.37,0.71,0.37,1.25v0.24h-2.31
			c0.01,0.34,0.11,0.61,0.29,0.81c0.19,0.21,0.43,0.31,0.72,0.31c0.21,0,0.38-0.04,0.52-0.13s0.27-0.2,0.37-0.33l0.36,0.28
			C183.85,42.52,183.43,42.74,182.86,42.74z M182.78,39.69c-0.23,0-0.43,0.09-0.59,0.26c-0.16,0.17-0.26,0.41-0.3,0.72h1.71v-0.04
			c-0.02-0.3-0.1-0.53-0.24-0.69S183.03,39.69,182.78,39.69z"/>
		<path class="st0" d="M186.74,42.68v-2.96h-0.54v-0.45h0.54v-0.35c0-0.37,0.1-0.65,0.29-0.85c0.19-0.2,0.47-0.3,0.83-0.3
			c0.13,0,0.27,0.02,0.4,0.05l-0.03,0.47c-0.1-0.02-0.2-0.03-0.31-0.03c-0.19,0-0.33,0.06-0.44,0.17c-0.1,0.11-0.15,0.27-0.15,0.48
			v0.36h0.73v0.45h-0.73v2.96H186.74z"/>
		<path class="st0" d="M188.69,38.37c0-0.09,0.03-0.17,0.09-0.24c0.06-0.06,0.14-0.1,0.26-0.1s0.2,0.03,0.26,0.1
			c0.06,0.07,0.09,0.15,0.09,0.24c0,0.09-0.03,0.17-0.09,0.24c-0.06,0.06-0.14,0.09-0.26,0.09s-0.2-0.03-0.26-0.09
			S188.69,38.46,188.69,38.37z M189.32,42.68h-0.58v-3.41h0.58V42.68z"/>
		<path class="st0" d="M191.9,39.79c-0.09-0.01-0.18-0.02-0.29-0.02c-0.38,0-0.64,0.16-0.78,0.49v2.42h-0.58v-3.41h0.57l0.01,0.39
			c0.19-0.3,0.46-0.46,0.81-0.46c0.11,0,0.2,0.01,0.26,0.04V39.79z"/>
		<path class="st0" d="M194.42,41.77c0-0.16-0.06-0.28-0.18-0.37c-0.12-0.09-0.33-0.16-0.62-0.23s-0.53-0.14-0.7-0.23
			c-0.17-0.09-0.3-0.19-0.38-0.31c-0.08-0.12-0.12-0.27-0.12-0.43c0-0.28,0.12-0.52,0.35-0.71c0.24-0.19,0.54-0.29,0.91-0.29
			c0.39,0,0.7,0.1,0.94,0.3s0.36,0.45,0.36,0.77h-0.59c0-0.16-0.07-0.3-0.2-0.41c-0.14-0.12-0.31-0.17-0.51-0.17
			c-0.21,0-0.38,0.05-0.5,0.14s-0.18,0.21-0.18,0.36c0,0.14,0.06,0.25,0.17,0.32s0.31,0.14,0.6,0.2s0.53,0.14,0.71,0.23
			c0.18,0.09,0.31,0.2,0.4,0.33s0.13,0.28,0.13,0.46c0,0.3-0.12,0.55-0.37,0.73c-0.24,0.18-0.56,0.28-0.95,0.28
			c-0.27,0-0.51-0.05-0.72-0.15c-0.21-0.1-0.37-0.23-0.49-0.4c-0.12-0.17-0.18-0.36-0.18-0.56h0.58c0.01,0.2,0.09,0.35,0.23,0.46
			c0.15,0.11,0.34,0.17,0.58,0.17c0.22,0,0.4-0.04,0.53-0.13C194.35,42.04,194.42,41.92,194.42,41.77z"/>
		<path class="st0" d="M196.55,38.45v0.83h0.64v0.45h-0.64v2.12c0,0.14,0.03,0.24,0.08,0.31s0.15,0.1,0.29,0.1
			c0.07,0,0.16-0.01,0.28-0.04v0.47c-0.15,0.04-0.3,0.06-0.45,0.06c-0.26,0-0.46-0.08-0.59-0.24c-0.13-0.16-0.2-0.38-0.2-0.67v-2.11
			h-0.62v-0.45h0.62v-0.83H196.55z"/>
		<path class="st0" d="M201.54,42.68h-0.91v-3.51l-1.09,0.34v-0.74l1.9-0.68h0.1V42.68z"/>
		<path class="st0" d="M205.72,40.95h0.52v0.73h-0.52v0.99h-0.91v-0.99h-1.88l-0.04-0.57l1.91-3.02h0.92V40.95z M203.8,40.95h1.01
			v-1.62l-0.06,0.1L203.8,40.95z"/>
		<path class="st0" d="M208.23,40.95c0-0.53,0.12-0.95,0.36-1.27c0.24-0.31,0.56-0.47,0.98-0.47c0.33,0,0.61,0.12,0.82,0.37v-1.74
			h0.91v4.83h-0.82l-0.04-0.36c-0.23,0.28-0.52,0.42-0.88,0.42c-0.4,0-0.72-0.16-0.96-0.47C208.35,41.95,208.23,41.51,208.23,40.95z
			 M209.14,41.02c0,0.32,0.06,0.56,0.17,0.73s0.27,0.26,0.48,0.26c0.28,0,0.48-0.12,0.6-0.36V40.3c-0.11-0.24-0.31-0.36-0.59-0.36
			C209.36,39.95,209.14,40.3,209.14,41.02z"/>
		<path class="st0" d="M213.98,42.68c-0.04-0.08-0.07-0.18-0.09-0.31c-0.22,0.25-0.51,0.37-0.86,0.37c-0.33,0-0.61-0.1-0.83-0.29
			c-0.22-0.19-0.33-0.44-0.33-0.73c0-0.36,0.13-0.64,0.4-0.83c0.27-0.19,0.65-0.29,1.16-0.29h0.42v-0.2c0-0.16-0.04-0.28-0.12-0.38
			c-0.08-0.09-0.21-0.14-0.38-0.14c-0.15,0-0.27,0.04-0.36,0.11c-0.09,0.07-0.13,0.17-0.13,0.3h-0.91c0-0.2,0.06-0.38,0.18-0.55
			s0.29-0.3,0.52-0.4c0.22-0.1,0.47-0.14,0.75-0.14c0.42,0,0.75,0.11,1,0.32c0.25,0.21,0.37,0.51,0.37,0.89v1.48
			c0,0.32,0.05,0.57,0.14,0.73v0.05H213.98z M213.23,42.04c0.13,0,0.26-0.03,0.37-0.09c0.11-0.06,0.2-0.14,0.25-0.24v-0.59h-0.34
			c-0.46,0-0.7,0.16-0.73,0.47l0,0.05c0,0.11,0.04,0.21,0.12,0.28C212.98,42.01,213.09,42.04,213.23,42.04z"/>
		<path class="st0" d="M216.69,41.39l0.63-2.12h0.98l-1.37,3.93l-0.08,0.18c-0.2,0.44-0.54,0.67-1.01,0.67
			c-0.13,0-0.27-0.02-0.4-0.06V43.3l0.14,0c0.17,0,0.3-0.03,0.39-0.08c0.08-0.05,0.15-0.14,0.2-0.26l0.11-0.28l-1.19-3.42h0.98
			L216.69,41.39z"/>
		<path class="st0" d="M220.5,41.74c0-0.11-0.05-0.2-0.17-0.26s-0.29-0.12-0.53-0.17c-0.81-0.17-1.22-0.51-1.22-1.03
			c0-0.3,0.13-0.55,0.38-0.76c0.25-0.2,0.58-0.3,0.98-0.3c0.43,0,0.78,0.1,1.04,0.31c0.26,0.2,0.39,0.47,0.39,0.79h-0.91
			c0-0.13-0.04-0.24-0.13-0.32s-0.22-0.13-0.39-0.13c-0.15,0-0.27,0.03-0.36,0.1c-0.08,0.07-0.13,0.16-0.13,0.26
			c0,0.1,0.05,0.18,0.14,0.24c0.1,0.06,0.26,0.12,0.48,0.16c0.23,0.05,0.42,0.1,0.57,0.15c0.48,0.18,0.72,0.48,0.72,0.92
			c0,0.31-0.13,0.56-0.4,0.75s-0.61,0.29-1.03,0.29c-0.29,0-0.54-0.05-0.76-0.15c-0.22-0.1-0.4-0.24-0.52-0.42s-0.19-0.37-0.19-0.57
			h0.86c0.01,0.16,0.07,0.29,0.18,0.37s0.26,0.13,0.45,0.13c0.17,0,0.31-0.03,0.4-0.1C220.45,41.93,220.5,41.84,220.5,41.74z"/>
		<path class="st0" d="M222.04,43.59l-0.33-0.23c0.2-0.27,0.3-0.56,0.31-0.85v-0.53h0.57v0.46c0,0.21-0.05,0.42-0.16,0.64
			C222.33,43.29,222.2,43.46,222.04,43.59z"/>
		<path class="st0" d="M227.8,41.01c0,0.52-0.12,0.94-0.36,1.25c-0.24,0.32-0.56,0.48-0.96,0.48c-0.41,0-0.74-0.13-0.98-0.39v1.64
			h-0.58v-4.72h0.53l0.03,0.38c0.24-0.29,0.57-0.44,0.99-0.44c0.41,0,0.73,0.15,0.97,0.46s0.36,0.74,0.36,1.29V41.01z M227.21,40.95
			c0-0.38-0.08-0.69-0.25-0.91c-0.16-0.22-0.39-0.33-0.67-0.33c-0.35,0-0.62,0.16-0.79,0.47v1.63c0.17,0.31,0.44,0.47,0.8,0.47
			c0.28,0,0.5-0.11,0.67-0.33C227.13,41.71,227.21,41.38,227.21,40.95z"/>
		<path class="st0" d="M229.17,42.68h-0.58v-4.83h0.58V42.68z"/>
		<path class="st0" d="M232.2,42.68c-0.03-0.07-0.06-0.19-0.08-0.36c-0.27,0.28-0.59,0.42-0.97,0.42c-0.34,0-0.61-0.09-0.83-0.29
			c-0.22-0.19-0.32-0.43-0.32-0.72c0-0.35,0.13-0.63,0.4-0.83s0.65-0.29,1.14-0.29h0.57v-0.27c0-0.2-0.06-0.37-0.18-0.49
			s-0.3-0.18-0.54-0.18c-0.21,0-0.38,0.05-0.52,0.16c-0.14,0.1-0.21,0.23-0.21,0.38h-0.59c0-0.17,0.06-0.33,0.18-0.49
			c0.12-0.16,0.28-0.28,0.49-0.38s0.43-0.14,0.68-0.14c0.39,0,0.7,0.1,0.92,0.29c0.22,0.2,0.34,0.47,0.35,0.81v1.57
			c0,0.31,0.04,0.56,0.12,0.75v0.05H232.2z M231.24,42.23c0.18,0,0.36-0.05,0.52-0.14c0.16-0.09,0.28-0.22,0.36-0.37v-0.7h-0.46
			c-0.71,0-1.07,0.21-1.07,0.63c0,0.18,0.06,0.33,0.18,0.43C230.89,42.18,231.05,42.23,231.24,42.23z"/>
		<path class="st0" d="M234.16,39.27l0.02,0.43c0.26-0.33,0.6-0.49,1.02-0.49c0.72,0,1.08,0.41,1.09,1.22v2.25h-0.58v-2.25
			c0-0.25-0.06-0.43-0.17-0.54c-0.11-0.12-0.28-0.18-0.51-0.18c-0.19,0-0.35,0.05-0.5,0.15c-0.14,0.1-0.25,0.23-0.33,0.4v2.43h-0.58
			v-3.41H234.16z"/>
		<path class="st0" d="M239.15,41.77c0-0.16-0.06-0.28-0.18-0.37c-0.12-0.09-0.33-0.16-0.62-0.23s-0.53-0.14-0.7-0.23
			c-0.17-0.09-0.3-0.19-0.38-0.31c-0.08-0.12-0.12-0.27-0.12-0.43c0-0.28,0.12-0.52,0.35-0.71c0.24-0.19,0.54-0.29,0.91-0.29
			c0.39,0,0.7,0.1,0.94,0.3s0.36,0.45,0.36,0.77h-0.59c0-0.16-0.07-0.3-0.2-0.41c-0.14-0.12-0.31-0.17-0.51-0.17
			c-0.21,0-0.38,0.05-0.5,0.14s-0.18,0.21-0.18,0.36c0,0.14,0.06,0.25,0.17,0.32s0.31,0.14,0.6,0.2s0.53,0.14,0.71,0.23
			c0.18,0.09,0.31,0.2,0.4,0.33s0.13,0.28,0.13,0.46c0,0.3-0.12,0.55-0.37,0.73c-0.24,0.18-0.56,0.28-0.95,0.28
			c-0.27,0-0.51-0.05-0.72-0.15c-0.21-0.1-0.37-0.23-0.49-0.4c-0.12-0.17-0.18-0.36-0.18-0.56h0.58c0.01,0.2,0.09,0.35,0.23,0.46
			c0.15,0.11,0.34,0.17,0.58,0.17c0.22,0,0.4-0.04,0.53-0.13C239.08,42.04,239.15,41.92,239.15,41.77z"/>
		<path class="st0" d="M244.07,41.77c0-0.16-0.06-0.28-0.18-0.37c-0.12-0.09-0.33-0.16-0.62-0.23s-0.53-0.14-0.7-0.23
			c-0.17-0.09-0.3-0.19-0.38-0.31c-0.08-0.12-0.12-0.27-0.12-0.43c0-0.28,0.12-0.52,0.35-0.71c0.24-0.19,0.54-0.29,0.91-0.29
			c0.39,0,0.7,0.1,0.94,0.3s0.36,0.45,0.36,0.77h-0.59c0-0.16-0.07-0.3-0.2-0.41c-0.14-0.12-0.31-0.17-0.51-0.17
			c-0.21,0-0.38,0.05-0.5,0.14s-0.18,0.21-0.18,0.36c0,0.14,0.06,0.25,0.17,0.32s0.31,0.14,0.6,0.2s0.53,0.14,0.71,0.23
			c0.18,0.09,0.31,0.2,0.4,0.33s0.13,0.28,0.13,0.46c0,0.3-0.12,0.55-0.37,0.73c-0.24,0.18-0.56,0.28-0.95,0.28
			c-0.27,0-0.51-0.05-0.72-0.15c-0.21-0.1-0.37-0.23-0.49-0.4c-0.12-0.17-0.18-0.36-0.18-0.56h0.58c0.01,0.2,0.09,0.35,0.23,0.46
			c0.15,0.11,0.34,0.17,0.58,0.17c0.22,0,0.4-0.04,0.53-0.13C244,42.04,244.07,41.92,244.07,41.77z"/>
		<path class="st0" d="M246.2,38.45v0.83h0.64v0.45h-0.64v2.12c0,0.14,0.03,0.24,0.08,0.31s0.15,0.1,0.29,0.1
			c0.07,0,0.16-0.01,0.28-0.04v0.47c-0.15,0.04-0.3,0.06-0.45,0.06c-0.26,0-0.46-0.08-0.59-0.24c-0.13-0.16-0.2-0.38-0.2-0.67v-2.11
			H245v-0.45h0.62v-0.83H246.2z"/>
		<path class="st0" d="M249.62,42.68c-0.03-0.07-0.06-0.19-0.08-0.36c-0.27,0.28-0.59,0.42-0.97,0.42c-0.34,0-0.61-0.09-0.83-0.29
			c-0.22-0.19-0.32-0.43-0.32-0.72c0-0.35,0.13-0.63,0.4-0.83s0.65-0.29,1.14-0.29h0.57v-0.27c0-0.2-0.06-0.37-0.18-0.49
			s-0.3-0.18-0.54-0.18c-0.21,0-0.38,0.05-0.52,0.16c-0.14,0.1-0.21,0.23-0.21,0.38h-0.59c0-0.17,0.06-0.33,0.18-0.49
			c0.12-0.16,0.28-0.28,0.49-0.38s0.43-0.14,0.68-0.14c0.39,0,0.7,0.1,0.92,0.29c0.22,0.2,0.34,0.47,0.35,0.81v1.57
			c0,0.31,0.04,0.56,0.12,0.75v0.05H249.62z M248.65,42.23c0.18,0,0.36-0.05,0.52-0.14c0.16-0.09,0.28-0.22,0.36-0.37v-0.7h-0.46
			c-0.71,0-1.07,0.21-1.07,0.63c0,0.18,0.06,0.33,0.18,0.43C248.3,42.18,248.46,42.23,248.65,42.23z"/>
		<path class="st0" d="M252.67,39.79c-0.09-0.01-0.18-0.02-0.29-0.02c-0.38,0-0.64,0.16-0.78,0.49v2.42h-0.58v-3.41h0.57l0.01,0.39
			c0.19-0.3,0.46-0.46,0.81-0.46c0.11,0,0.2,0.01,0.26,0.04V39.79z"/>
		<path class="st0" d="M254.15,38.45v0.83h0.64v0.45h-0.64v2.12c0,0.14,0.03,0.24,0.08,0.31s0.15,0.1,0.29,0.1
			c0.07,0,0.16-0.01,0.28-0.04v0.47c-0.15,0.04-0.3,0.06-0.45,0.06c-0.26,0-0.46-0.08-0.59-0.24c-0.13-0.16-0.2-0.38-0.2-0.67v-2.11
			h-0.62v-0.45h0.62v-0.83H254.15z"/>
		<path class="st0" d="M255.47,38.37c0-0.09,0.03-0.17,0.09-0.24c0.06-0.06,0.14-0.1,0.26-0.1s0.2,0.03,0.26,0.1
			c0.06,0.07,0.09,0.15,0.09,0.24c0,0.09-0.03,0.17-0.09,0.24c-0.06,0.06-0.14,0.09-0.26,0.09s-0.2-0.03-0.26-0.09
			S255.47,38.46,255.47,38.37z M256.1,42.68h-0.58v-3.41h0.58V42.68z"/>
		<path class="st0" d="M257.58,39.27l0.02,0.43c0.26-0.33,0.6-0.49,1.02-0.49c0.72,0,1.08,0.41,1.09,1.22v2.25h-0.58v-2.25
			c0-0.25-0.06-0.43-0.17-0.54c-0.11-0.12-0.28-0.18-0.51-0.18c-0.19,0-0.35,0.05-0.5,0.15c-0.14,0.1-0.25,0.23-0.33,0.4v2.43h-0.58
			v-3.41H257.58z"/>
		<path class="st0" d="M260.45,40.95c0-0.53,0.12-0.95,0.37-1.27c0.25-0.31,0.57-0.47,0.98-0.47c0.42,0,0.74,0.15,0.97,0.44
			l0.03-0.38h0.53v3.32c0,0.44-0.13,0.79-0.39,1.04s-0.61,0.38-1.05,0.38c-0.25,0-0.49-0.05-0.72-0.16
			c-0.24-0.1-0.41-0.25-0.54-0.43l0.3-0.35c0.25,0.31,0.56,0.46,0.92,0.46c0.28,0,0.5-0.08,0.66-0.24c0.16-0.16,0.24-0.38,0.24-0.67
			v-0.29c-0.23,0.27-0.55,0.4-0.95,0.4c-0.4,0-0.72-0.16-0.97-0.48C260.57,41.94,260.45,41.5,260.45,40.95z M261.04,41.01
			c0,0.38,0.08,0.69,0.24,0.9c0.16,0.22,0.38,0.33,0.66,0.33c0.37,0,0.64-0.17,0.81-0.5v-1.56c-0.18-0.33-0.45-0.49-0.8-0.49
			c-0.28,0-0.5,0.11-0.66,0.33C261.11,40.25,261.04,40.58,261.04,41.01z"/>
		<path class="st0" d="M267.9,42.68c-0.03-0.07-0.06-0.19-0.08-0.36c-0.27,0.28-0.59,0.42-0.97,0.42c-0.34,0-0.61-0.09-0.83-0.29
			c-0.22-0.19-0.32-0.43-0.32-0.72c0-0.35,0.13-0.63,0.4-0.83s0.65-0.29,1.14-0.29h0.57v-0.27c0-0.2-0.06-0.37-0.18-0.49
			s-0.3-0.18-0.54-0.18c-0.21,0-0.38,0.05-0.52,0.16c-0.14,0.1-0.21,0.23-0.21,0.38h-0.59c0-0.17,0.06-0.33,0.18-0.49
			c0.12-0.16,0.28-0.28,0.49-0.38s0.43-0.14,0.68-0.14c0.39,0,0.7,0.1,0.92,0.29c0.22,0.2,0.34,0.47,0.35,0.81v1.57
			c0,0.31,0.04,0.56,0.12,0.75v0.05H267.9z M266.94,42.23c0.18,0,0.36-0.05,0.52-0.14c0.16-0.09,0.28-0.22,0.36-0.37v-0.7h-0.46
			c-0.71,0-1.07,0.21-1.07,0.63c0,0.18,0.06,0.33,0.18,0.43C266.59,42.18,266.75,42.23,266.94,42.23z"/>
		<path class="st0" d="M270.1,38.45v0.83h0.64v0.45h-0.64v2.12c0,0.14,0.03,0.24,0.08,0.31s0.15,0.1,0.29,0.1
			c0.07,0,0.16-0.01,0.28-0.04v0.47c-0.15,0.04-0.3,0.06-0.45,0.06c-0.26,0-0.46-0.08-0.59-0.24c-0.13-0.16-0.2-0.38-0.2-0.67v-2.11
			h-0.62v-0.45h0.62v-0.83H270.1z"/>
		<path class="st0" d="M275.06,41.47c0-0.17-0.05-0.31-0.14-0.41c-0.1-0.1-0.26-0.2-0.49-0.28c-0.23-0.09-0.43-0.17-0.59-0.26
			c-0.17-0.08-0.31-0.18-0.43-0.29c-0.12-0.11-0.21-0.24-0.28-0.39c-0.07-0.15-0.1-0.33-0.1-0.53c0-0.35,0.11-0.65,0.34-0.87
			s0.53-0.36,0.9-0.4v-0.67h0.5v0.68c0.37,0.05,0.66,0.21,0.87,0.46c0.21,0.26,0.31,0.59,0.31,1h-0.91c0-0.25-0.05-0.44-0.16-0.56
			c-0.1-0.12-0.24-0.19-0.42-0.19c-0.17,0-0.31,0.05-0.4,0.15s-0.14,0.23-0.14,0.4c0,0.16,0.05,0.29,0.14,0.38
			c0.09,0.1,0.26,0.2,0.52,0.3c0.25,0.1,0.46,0.2,0.62,0.28c0.16,0.09,0.3,0.19,0.41,0.3c0.11,0.11,0.2,0.24,0.26,0.38
			c0.06,0.14,0.09,0.31,0.09,0.5c0,0.36-0.11,0.65-0.33,0.87c-0.22,0.22-0.53,0.35-0.92,0.39v0.63h-0.5v-0.62
			c-0.43-0.05-0.76-0.2-1-0.46c-0.24-0.26-0.35-0.6-0.35-1.03h0.91c0,0.25,0.06,0.44,0.18,0.57c0.12,0.13,0.29,0.2,0.51,0.2
			c0.18,0,0.33-0.05,0.44-0.15S275.06,41.64,275.06,41.47z"/>
		<path class="st0" d="M278.71,40.84c-0.24,0.23-0.51,0.35-0.83,0.35c-0.4,0-0.73-0.14-0.97-0.42c-0.24-0.28-0.37-0.65-0.37-1.12
			c0-0.3,0.07-0.58,0.2-0.83c0.13-0.25,0.31-0.45,0.55-0.59c0.24-0.14,0.5-0.21,0.79-0.21c0.3,0,0.57,0.08,0.81,0.23
			c0.24,0.15,0.42,0.37,0.55,0.65c0.13,0.28,0.2,0.61,0.2,0.97v0.34c0,0.76-0.19,1.36-0.57,1.8s-0.92,0.67-1.61,0.7l-0.22,0v-0.76
			l0.2,0C278.21,41.92,278.64,41.55,278.71,40.84z M278.1,40.5c0.15,0,0.27-0.04,0.38-0.11c0.11-0.08,0.19-0.17,0.24-0.27v-0.37
			c0-0.31-0.06-0.55-0.18-0.72s-0.27-0.25-0.47-0.25c-0.18,0-0.33,0.08-0.45,0.25s-0.18,0.38-0.18,0.63c0,0.25,0.06,0.46,0.17,0.62
			C277.73,40.42,277.89,40.5,278.1,40.5z"/>
		<path class="st0" d="M280.36,42.23c0-0.15,0.05-0.26,0.15-0.35c0.1-0.09,0.22-0.14,0.37-0.14c0.15,0,0.27,0.05,0.37,0.14
			c0.1,0.09,0.15,0.21,0.15,0.35c0,0.14-0.05,0.26-0.14,0.35c-0.1,0.09-0.22,0.13-0.37,0.13c-0.15,0-0.27-0.04-0.37-0.13
			C280.41,42.49,280.36,42.37,280.36,42.23z"/>
		<path class="st0" d="M284.28,40.84c-0.24,0.23-0.51,0.35-0.83,0.35c-0.4,0-0.73-0.14-0.97-0.42c-0.24-0.28-0.37-0.65-0.37-1.12
			c0-0.3,0.07-0.58,0.2-0.83c0.13-0.25,0.31-0.45,0.55-0.59c0.24-0.14,0.5-0.21,0.79-0.21c0.3,0,0.57,0.08,0.81,0.23
			c0.24,0.15,0.42,0.37,0.55,0.65c0.13,0.28,0.2,0.61,0.2,0.97v0.34c0,0.76-0.19,1.36-0.57,1.8s-0.92,0.67-1.61,0.7l-0.22,0v-0.76
			l0.2,0C283.79,41.92,284.21,41.55,284.28,40.84z M283.67,40.5c0.15,0,0.27-0.04,0.38-0.11c0.11-0.08,0.19-0.17,0.24-0.27v-0.37
			c0-0.31-0.06-0.55-0.18-0.72s-0.27-0.25-0.47-0.25c-0.18,0-0.33,0.08-0.45,0.25s-0.18,0.38-0.18,0.63c0,0.25,0.06,0.46,0.17,0.62
			C283.3,40.42,283.46,40.5,283.67,40.5z"/>
		<path class="st0" d="M287.98,40.84c-0.24,0.23-0.51,0.35-0.83,0.35c-0.4,0-0.73-0.14-0.97-0.42c-0.24-0.28-0.37-0.65-0.37-1.12
			c0-0.3,0.07-0.58,0.2-0.83c0.13-0.25,0.31-0.45,0.55-0.59c0.24-0.14,0.5-0.21,0.79-0.21c0.3,0,0.57,0.08,0.81,0.23
			c0.24,0.15,0.42,0.37,0.55,0.65c0.13,0.28,0.2,0.61,0.2,0.97v0.34c0,0.76-0.19,1.36-0.57,1.8s-0.92,0.67-1.61,0.7l-0.22,0v-0.76
			l0.2,0C287.48,41.92,287.91,41.55,287.98,40.84z M287.37,40.5c0.15,0,0.27-0.04,0.38-0.11c0.11-0.08,0.19-0.17,0.24-0.27v-0.37
			c0-0.31-0.06-0.55-0.18-0.72s-0.27-0.25-0.47-0.25c-0.18,0-0.33,0.08-0.45,0.25s-0.18,0.38-0.18,0.63c0,0.25,0.06,0.46,0.17,0.62
			C287,40.42,287.16,40.5,287.37,40.5z"/>
		<path class="st0" d="M289.87,43.07h-0.68l1.69-4.98h0.68L289.87,43.07z"/>
		<path class="st0" d="M292.85,39.27l0.03,0.38c0.24-0.3,0.57-0.44,0.98-0.44c0.44,0,0.74,0.17,0.9,0.52
			c0.24-0.35,0.58-0.52,1.02-0.52c0.37,0,0.64,0.11,0.82,0.32c0.18,0.22,0.27,0.54,0.27,0.97v2.18h-0.91V40.5
			c0-0.19-0.04-0.33-0.11-0.42c-0.08-0.09-0.21-0.13-0.4-0.13c-0.27,0-0.46,0.13-0.57,0.39l0,2.34h-0.91v-2.17
			c0-0.2-0.04-0.34-0.12-0.43c-0.08-0.09-0.21-0.13-0.4-0.13c-0.26,0-0.44,0.11-0.56,0.32v2.41h-0.91v-3.41H292.85z"/>
		<path class="st0" d="M297.43,40.94c0-0.34,0.07-0.64,0.2-0.9c0.13-0.26,0.32-0.47,0.56-0.61c0.24-0.14,0.53-0.22,0.85-0.22
			c0.46,0,0.83,0.14,1.13,0.42c0.29,0.28,0.45,0.66,0.49,1.15l0.01,0.23c0,0.52-0.15,0.94-0.44,1.26c-0.29,0.32-0.68,0.47-1.17,0.47
			c-0.49,0-0.88-0.16-1.18-0.47c-0.29-0.31-0.44-0.74-0.44-1.28V40.94z M298.34,41.01c0,0.32,0.06,0.57,0.18,0.74
			c0.12,0.17,0.3,0.26,0.52,0.26c0.22,0,0.39-0.08,0.52-0.25c0.12-0.17,0.19-0.44,0.19-0.81c0-0.32-0.06-0.56-0.19-0.74
			c-0.12-0.17-0.3-0.26-0.52-0.26c-0.22,0-0.39,0.09-0.52,0.26C298.4,40.37,298.34,40.64,298.34,41.01z"/>
		<path class="st0" d="M302.06,39.27l0.03,0.39c0.24-0.3,0.57-0.46,0.98-0.46c0.36,0,0.63,0.11,0.81,0.32s0.27,0.53,0.27,0.95v2.2
			h-0.91V40.5c0-0.19-0.04-0.33-0.13-0.42c-0.08-0.09-0.22-0.13-0.42-0.13c-0.26,0-0.45,0.11-0.58,0.33v2.4h-0.91v-3.41H302.06z"/>
		<path class="st0" d="M305.92,38.43v0.84h0.58v0.67h-0.58v1.7c0,0.13,0.02,0.22,0.07,0.27c0.05,0.05,0.14,0.08,0.28,0.08
			c0.1,0,0.19-0.01,0.27-0.02v0.69c-0.18,0.05-0.36,0.08-0.55,0.08c-0.64,0-0.96-0.32-0.98-0.97v-1.84h-0.5v-0.67h0.5v-0.84H305.92z
			"/>
		<path class="st0" d="M307.9,39.64c0.24-0.29,0.54-0.43,0.91-0.43c0.74,0,1.11,0.43,1.12,1.29v2.18h-0.91v-2.16
			c0-0.2-0.04-0.34-0.13-0.43c-0.08-0.09-0.22-0.14-0.42-0.14c-0.27,0-0.46,0.1-0.58,0.31v2.42h-0.91v-4.83h0.91V39.64z"/>
	</g>
	<g>
		<path class="st0" d="M171.06,12.33c-0.22,0.31-0.52,0.54-0.91,0.7c-0.39,0.15-0.84,0.23-1.36,0.23c-0.52,0-0.98-0.12-1.39-0.37
			c-0.4-0.24-0.72-0.59-0.94-1.04c-0.22-0.45-0.33-0.97-0.34-1.57V9.72c0-0.96,0.22-1.71,0.67-2.24c0.45-0.53,1.08-0.8,1.9-0.8
			c0.67,0,1.21,0.17,1.61,0.51c0.41,0.34,0.66,0.83,0.75,1.45h-0.84c-0.16-0.85-0.66-1.27-1.51-1.27c-0.57,0-0.99,0.2-1.29,0.6
			c-0.29,0.4-0.44,0.97-0.44,1.73v0.52c0,0.72,0.16,1.29,0.49,1.71c0.33,0.42,0.77,0.64,1.33,0.64c0.32,0,0.59-0.04,0.83-0.1
			c0.24-0.07,0.43-0.19,0.59-0.36v-1.43h-1.48V9.99h2.32V12.33z"/>
		<path class="st0" d="M174.32,13.26c-0.64,0-1.17-0.21-1.57-0.63s-0.61-0.99-0.61-1.7v-0.15c0-0.47,0.09-0.89,0.27-1.26
			c0.18-0.37,0.43-0.66,0.76-0.87s0.67-0.31,1.05-0.31c0.62,0,1.1,0.2,1.44,0.61s0.51,0.99,0.51,1.75v0.34h-3.22
			c0.01,0.47,0.15,0.85,0.41,1.14c0.26,0.29,0.6,0.43,1,0.43c0.29,0,0.53-0.06,0.73-0.18s0.37-0.27,0.52-0.47l0.5,0.39
			C175.71,12.96,175.11,13.26,174.32,13.26z M174.21,9c-0.33,0-0.6,0.12-0.83,0.36s-0.36,0.57-0.41,1h2.38V10.3
			c-0.02-0.41-0.13-0.73-0.33-0.96S174.55,9,174.21,9z"/>
		<path class="st0" d="M178.21,7.27v1.15h0.89v0.63h-0.89V12c0,0.19,0.04,0.33,0.12,0.43s0.21,0.14,0.4,0.14
			c0.09,0,0.22-0.02,0.39-0.05v0.66c-0.21,0.06-0.42,0.09-0.62,0.09c-0.36,0-0.64-0.11-0.82-0.33S177.4,12.4,177.4,12V9.05h-0.87
			V8.42h0.87V7.27H178.21z"/>
		<path class="st0" d="M183.25,10.67v2.5h-0.84v-6.4h2.36c0.7,0,1.25,0.18,1.65,0.54s0.6,0.83,0.6,1.42c0,0.62-0.19,1.1-0.58,1.44
			c-0.39,0.34-0.94,0.5-1.67,0.5H183.25z M183.25,9.98h1.52c0.45,0,0.8-0.11,1.04-0.32c0.24-0.21,0.36-0.52,0.36-0.92
			c0-0.38-0.12-0.69-0.36-0.92s-0.57-0.35-0.99-0.36h-1.56V9.98z"/>
		<path class="st0" d="M190.25,9.15c-0.12-0.02-0.26-0.03-0.4-0.03c-0.53,0-0.9,0.23-1.09,0.68v3.38h-0.81V8.42h0.79l0.01,0.55
			c0.27-0.42,0.64-0.64,1.13-0.64c0.16,0,0.28,0.02,0.36,0.06V9.15z"/>
		<path class="st0" d="M191.01,7.16c0-0.13,0.04-0.24,0.12-0.33s0.2-0.14,0.36-0.14s0.28,0.05,0.36,0.14s0.12,0.2,0.12,0.33
			s-0.04,0.24-0.12,0.33s-0.2,0.13-0.36,0.13s-0.28-0.04-0.36-0.13S191.01,7.29,191.01,7.16z M191.88,13.17h-0.81V8.42h0.81V13.17z"
			/>
		<path class="st0" d="M194.75,12.07l1.18-3.65h0.83l-1.71,4.75h-0.62l-1.72-4.75h0.83L194.75,12.07z"/>
		<path class="st0" d="M200.41,13.17c-0.05-0.09-0.08-0.26-0.11-0.5c-0.38,0.39-0.83,0.59-1.35,0.59c-0.47,0-0.85-0.13-1.15-0.4
			c-0.3-0.27-0.45-0.6-0.45-1.01c0-0.5,0.19-0.88,0.56-1.15c0.38-0.27,0.91-0.41,1.59-0.41h0.79V9.92c0-0.28-0.08-0.51-0.25-0.68
			c-0.17-0.17-0.42-0.25-0.75-0.25c-0.29,0-0.53,0.07-0.73,0.22s-0.29,0.32-0.29,0.53h-0.82c0-0.24,0.08-0.47,0.25-0.69
			s0.4-0.4,0.69-0.53s0.61-0.19,0.95-0.19c0.55,0,0.98,0.14,1.29,0.41s0.47,0.65,0.48,1.13v2.19c0,0.44,0.06,0.78,0.17,1.04v0.07
			H200.41z M199.07,12.55c0.25,0,0.5-0.07,0.73-0.2s0.39-0.3,0.5-0.51v-0.98h-0.64c-1,0-1.49,0.29-1.49,0.87
			c0,0.25,0.08,0.45,0.25,0.6S198.8,12.55,199.07,12.55z"/>
		<path class="st0" d="M204.28,12.6c0.29,0,0.54-0.09,0.76-0.26s0.34-0.4,0.36-0.66h0.77c-0.01,0.27-0.11,0.53-0.28,0.78
			s-0.4,0.44-0.69,0.59s-0.59,0.22-0.92,0.22c-0.65,0-1.16-0.22-1.54-0.65c-0.38-0.43-0.57-1.02-0.57-1.77V10.7
			c0-0.46,0.08-0.87,0.25-1.23s0.41-0.64,0.73-0.84s0.69-0.3,1.13-0.3c0.53,0,0.98,0.16,1.33,0.48c0.35,0.32,0.54,0.73,0.56,1.24
			h-0.77c-0.02-0.31-0.14-0.56-0.35-0.76c-0.21-0.2-0.47-0.3-0.78-0.3c-0.41,0-0.73,0.15-0.96,0.45s-0.34,0.73-0.34,1.29v0.15
			c0,0.55,0.11,0.97,0.34,1.27S203.86,12.6,204.28,12.6z"/>
		<path class="st0" d="M208.64,11.98l1.11-3.56h0.87l-1.91,5.49c-0.3,0.79-0.77,1.19-1.41,1.19l-0.15-0.01l-0.3-0.06v-0.66
			l0.22,0.02c0.28,0,0.49-0.06,0.64-0.17c0.15-0.11,0.28-0.31,0.38-0.61l0.18-0.48l-1.7-4.7h0.89L208.64,11.98z"/>
		<path class="st0" d="M216.19,12.33c-0.22,0.31-0.52,0.54-0.91,0.7c-0.39,0.15-0.84,0.23-1.36,0.23c-0.52,0-0.98-0.12-1.39-0.37
			c-0.4-0.24-0.72-0.59-0.94-1.04c-0.22-0.45-0.33-0.97-0.34-1.57V9.72c0-0.96,0.22-1.71,0.67-2.24c0.45-0.53,1.08-0.8,1.9-0.8
			c0.67,0,1.21,0.17,1.61,0.51c0.41,0.34,0.66,0.83,0.75,1.45h-0.84c-0.16-0.85-0.66-1.27-1.51-1.27c-0.57,0-0.99,0.2-1.29,0.6
			c-0.29,0.4-0.44,0.97-0.44,1.73v0.52c0,0.72,0.16,1.29,0.49,1.71c0.33,0.42,0.77,0.64,1.33,0.64c0.32,0,0.59-0.04,0.83-0.1
			c0.24-0.07,0.43-0.19,0.59-0.36v-1.43h-1.48V9.99h2.32V12.33z"/>
		<path class="st0" d="M220.41,12.7c-0.32,0.37-0.78,0.56-1.39,0.56c-0.51,0-0.89-0.15-1.16-0.44c-0.27-0.29-0.4-0.73-0.4-1.31V8.42
			h0.81v3.07c0,0.72,0.29,1.08,0.88,1.08c0.62,0,1.03-0.23,1.24-0.69V8.42h0.81v4.75h-0.77L220.41,12.7z"/>
		<path class="st0" d="M225.37,13.17c-0.05-0.09-0.08-0.26-0.11-0.5c-0.38,0.39-0.83,0.59-1.35,0.59c-0.47,0-0.85-0.13-1.15-0.4
			c-0.3-0.27-0.45-0.6-0.45-1.01c0-0.5,0.19-0.88,0.56-1.15c0.38-0.27,0.91-0.41,1.59-0.41h0.79V9.92c0-0.28-0.08-0.51-0.25-0.68
			c-0.17-0.17-0.42-0.25-0.75-0.25c-0.29,0-0.53,0.07-0.73,0.22s-0.29,0.32-0.29,0.53h-0.82c0-0.24,0.08-0.47,0.25-0.69
			s0.4-0.4,0.69-0.53s0.61-0.19,0.95-0.19c0.55,0,0.98,0.14,1.29,0.41s0.47,0.65,0.48,1.13v2.19c0,0.44,0.06,0.78,0.17,1.04v0.07
			H225.37z M224.02,12.55c0.25,0,0.5-0.07,0.73-0.2s0.39-0.3,0.5-0.51v-0.98h-0.64c-1,0-1.49,0.29-1.49,0.87
			c0,0.25,0.08,0.45,0.25,0.6S223.75,12.55,224.02,12.55z"/>
		<path class="st0" d="M229.63,9.15c-0.12-0.02-0.26-0.03-0.4-0.03c-0.53,0-0.9,0.23-1.09,0.68v3.38h-0.81V8.42h0.79l0.01,0.55
			c0.27-0.42,0.64-0.64,1.13-0.64c0.16,0,0.28,0.02,0.36,0.06V9.15z"/>
		<path class="st0" d="M230.09,10.76c0-0.73,0.17-1.32,0.52-1.76c0.35-0.44,0.8-0.67,1.36-0.67c0.56,0,1,0.19,1.32,0.57V6.42h0.81
			v6.75h-0.75l-0.04-0.51c-0.33,0.4-0.78,0.6-1.36,0.6c-0.55,0-1-0.23-1.35-0.68c-0.35-0.45-0.52-1.04-0.52-1.77V10.76z
			 M230.91,10.85c0,0.54,0.11,0.96,0.33,1.27s0.53,0.46,0.92,0.46c0.52,0,0.89-0.23,1.13-0.69V9.69c-0.24-0.45-0.62-0.67-1.12-0.67
			c-0.4,0-0.71,0.15-0.93,0.46S230.91,10.25,230.91,10.85z"/>
		<path class="st0" d="M241.81,12.05l0.91-3.63h0.81l-1.38,4.75h-0.66l-1.16-3.6l-1.12,3.6h-0.66l-1.38-4.75h0.81l0.94,3.56
			l1.11-3.56h0.65L241.81,12.05z"/>
		<path class="st0" d="M244.36,7.16c0-0.13,0.04-0.24,0.12-0.33s0.2-0.14,0.36-0.14s0.28,0.05,0.36,0.14s0.12,0.2,0.12,0.33
			s-0.04,0.24-0.12,0.33s-0.2,0.13-0.36,0.13s-0.28-0.04-0.36-0.13S244.36,7.29,244.36,7.16z M245.24,13.17h-0.81V8.42h0.81V13.17z"
			/>
		<path class="st0" d="M247.65,7.27v1.15h0.89v0.63h-0.89V12c0,0.19,0.04,0.33,0.12,0.43s0.21,0.14,0.4,0.14
			c0.09,0,0.22-0.02,0.39-0.05v0.66c-0.21,0.06-0.42,0.09-0.62,0.09c-0.36,0-0.64-0.11-0.82-0.33s-0.28-0.53-0.28-0.94V9.05h-0.87
			V8.42h0.87V7.27H247.65z"/>
		<path class="st0" d="M250.3,8.99c0.36-0.44,0.83-0.66,1.41-0.66c1,0,1.51,0.57,1.52,1.7v3.14h-0.81v-3.15
			c0-0.34-0.08-0.6-0.24-0.76c-0.15-0.16-0.39-0.25-0.72-0.25c-0.26,0-0.5,0.07-0.69,0.21s-0.35,0.33-0.47,0.55v3.39h-0.81V6.42
			h0.81V8.99z"/>
		<path class="st0" d="M257.75,8.42l0.04,0.53c0.34-0.41,0.79-0.62,1.37-0.62c0.61,0,1.03,0.24,1.26,0.73
			c0.33-0.48,0.81-0.73,1.43-0.73c0.52,0,0.9,0.15,1.15,0.45c0.25,0.3,0.38,0.75,0.38,1.36v3.04h-1.27v-3.03
			c0-0.27-0.05-0.47-0.16-0.59s-0.29-0.19-0.56-0.19c-0.38,0-0.64,0.18-0.79,0.54l0,3.27h-1.27v-3.03c0-0.28-0.05-0.47-0.16-0.6
			s-0.29-0.18-0.55-0.18c-0.36,0-0.62,0.15-0.78,0.45v3.36h-1.27V8.42H257.75z"/>
		<path class="st0" d="M264.15,10.75c0-0.47,0.09-0.89,0.27-1.26s0.44-0.65,0.78-0.86s0.74-0.3,1.19-0.3c0.64,0,1.17,0.2,1.57,0.59
			s0.63,0.93,0.68,1.6l0.01,0.33c0,0.73-0.2,1.31-0.61,1.76s-0.95,0.66-1.64,0.66s-1.23-0.22-1.64-0.66
			c-0.41-0.44-0.61-1.04-0.61-1.79V10.75z M265.42,10.84c0,0.45,0.08,0.8,0.25,1.04c0.17,0.24,0.41,0.36,0.73,0.36
			c0.31,0,0.55-0.12,0.72-0.35c0.17-0.24,0.26-0.61,0.26-1.13c0-0.44-0.09-0.79-0.26-1.03s-0.42-0.37-0.73-0.37
			c-0.31,0-0.55,0.12-0.72,0.36C265.5,9.96,265.42,10.33,265.42,10.84z"/>
		<path class="st0" d="M270.6,8.42l0.04,0.55c0.34-0.42,0.8-0.64,1.37-0.64c0.5,0,0.88,0.15,1.12,0.44s0.37,0.74,0.38,1.33v3.07
			h-1.27v-3.04c0-0.27-0.06-0.46-0.18-0.59c-0.12-0.12-0.31-0.18-0.58-0.18c-0.36,0-0.63,0.15-0.8,0.46v3.35h-1.27V8.42H270.6z"/>
		<path class="st0" d="M276,7.25v1.17h0.81v0.93H276v2.37c0,0.18,0.03,0.3,0.1,0.38s0.2,0.11,0.39,0.11c0.14,0,0.27-0.01,0.37-0.03
			v0.96c-0.25,0.08-0.51,0.11-0.77,0.11c-0.89,0-1.34-0.45-1.36-1.35V9.35h-0.69V8.42h0.69V7.25H276z"/>
		<path class="st0" d="M278.76,8.94c0.34-0.4,0.76-0.61,1.27-0.61c1.03,0,1.55,0.6,1.57,1.8v3.05h-1.27v-3.01
			c0-0.27-0.06-0.47-0.18-0.6s-0.31-0.2-0.58-0.2c-0.37,0-0.64,0.14-0.81,0.43v3.38h-1.27V6.42h1.27V8.94z"/>
		<path class="st0" d="M283.89,13.17h-1.27V6.42h1.27V13.17z"/>
		<path class="st0" d="M286.71,11.38l0.88-2.96h1.36l-1.91,5.49l-0.11,0.25c-0.28,0.62-0.75,0.93-1.41,0.93
			c-0.18,0-0.37-0.03-0.56-0.08v-0.96l0.19,0c0.24,0,0.42-0.04,0.54-0.11c0.12-0.07,0.21-0.19,0.28-0.36l0.15-0.39l-1.67-4.77h1.37
			L286.71,11.38z"/>
		<path class="st0" d="M154.59,18.05v1.17h0.81v0.93h-0.81v2.37c0,0.18,0.03,0.3,0.1,0.38s0.2,0.11,0.39,0.11
			c0.14,0,0.27-0.01,0.37-0.03v0.96c-0.25,0.08-0.51,0.11-0.77,0.11c-0.89,0-1.34-0.45-1.36-1.35v-2.56h-0.69v-0.93h0.69v-1.17
			H154.59z"/>
		<path class="st0" d="M158.78,20.41c-0.17-0.02-0.33-0.04-0.46-0.04c-0.48,0-0.8,0.16-0.94,0.49v3.11h-1.27v-4.75h1.2l0.04,0.57
			c0.25-0.44,0.61-0.65,1.06-0.65c0.14,0,0.27,0.02,0.4,0.06L158.78,20.41z"/>
		<path class="st0" d="M159.38,17.99c0-0.19,0.06-0.35,0.19-0.47c0.13-0.12,0.3-0.18,0.52-0.18c0.22,0,0.39,0.06,0.52,0.18
			s0.19,0.28,0.19,0.47c0,0.19-0.07,0.35-0.2,0.47s-0.3,0.18-0.52,0.18s-0.39-0.06-0.52-0.18
			C159.45,18.34,159.38,18.18,159.38,17.99z M160.73,23.97h-1.27v-4.75h1.27V23.97z"/>
		<path class="st0" d="M166.06,21.64c0,0.73-0.17,1.32-0.5,1.76c-0.33,0.44-0.78,0.66-1.35,0.66c-0.48,0-0.87-0.17-1.16-0.5v2.24
			h-1.27v-6.58h1.18l0.04,0.47c0.31-0.37,0.71-0.55,1.2-0.55c0.59,0,1.04,0.22,1.37,0.65s0.49,1.03,0.49,1.79V21.64z M164.79,21.55
			c0-0.44-0.08-0.78-0.24-1.02s-0.38-0.36-0.68-0.36c-0.4,0-0.67,0.15-0.82,0.46v1.95c0.16,0.31,0.43,0.47,0.83,0.47
			C164.48,23.04,164.79,22.54,164.79,21.55z"/>
		<path class="st0" d="M168.18,23.97h-1.27v-6.75h1.27V23.97z"/>
		<path class="st0" d="M171.42,24.06c-0.7,0-1.27-0.21-1.7-0.64c-0.44-0.43-0.66-1-0.66-1.71v-0.12c0-0.48,0.09-0.9,0.28-1.28
			s0.45-0.67,0.78-0.87c0.34-0.2,0.72-0.31,1.16-0.31c0.65,0,1.16,0.21,1.54,0.62c0.37,0.41,0.56,0.99,0.56,1.74v0.52h-3.03
			c0.04,0.31,0.16,0.56,0.37,0.75c0.21,0.19,0.47,0.28,0.78,0.28c0.49,0,0.87-0.18,1.15-0.53l0.62,0.7
			c-0.19,0.27-0.45,0.48-0.77,0.63C172.17,23.99,171.81,24.06,171.42,24.06z M171.27,20.15c-0.25,0-0.46,0.09-0.61,0.26
			c-0.16,0.17-0.26,0.42-0.3,0.73h1.77v-0.1c-0.01-0.28-0.08-0.5-0.23-0.66C171.75,20.23,171.54,20.15,171.27,20.15z"/>
		<path class="st0" d="M176.57,21.75h-2.47v-1.02h2.47V21.75z"/>
		<path class="st0" d="M181.87,21.64c0,0.76-0.16,1.36-0.49,1.78c-0.33,0.43-0.78,0.64-1.36,0.64c-0.52,0-0.93-0.2-1.23-0.59
			l-0.06,0.51h-1.14v-6.75h1.27v2.42c0.29-0.34,0.68-0.51,1.16-0.51c0.58,0,1.03,0.21,1.36,0.64c0.33,0.43,0.49,1.03,0.49,1.8V21.64
			z M180.6,21.55c0-0.48-0.08-0.83-0.23-1.05c-0.15-0.22-0.38-0.33-0.68-0.33c-0.4,0-0.68,0.17-0.83,0.5v1.88
			c0.16,0.33,0.44,0.5,0.84,0.5c0.41,0,0.68-0.2,0.81-0.61C180.57,22.24,180.6,21.94,180.6,21.55z"/>
		<path class="st0" d="M185.5,23.49c-0.31,0.38-0.75,0.57-1.3,0.57c-0.51,0-0.9-0.15-1.17-0.44c-0.27-0.29-0.41-0.72-0.41-1.29
			v-3.12h1.27v3.08c0,0.5,0.23,0.74,0.68,0.74c0.43,0,0.73-0.15,0.89-0.45v-3.37h1.27v4.75h-1.2L185.5,23.49z"/>
		<path class="st0" d="M190.36,20.41c-0.17-0.02-0.33-0.04-0.46-0.04c-0.48,0-0.8,0.16-0.94,0.49v3.11h-1.27v-4.75h1.2l0.04,0.57
			c0.25-0.44,0.61-0.65,1.06-0.65c0.14,0,0.27,0.02,0.4,0.06L190.36,20.41z"/>
		<path class="st0" d="M193.08,24.06c-0.7,0-1.27-0.21-1.7-0.64c-0.44-0.43-0.66-1-0.66-1.71v-0.12c0-0.48,0.09-0.9,0.28-1.28
			s0.45-0.67,0.78-0.87c0.34-0.2,0.72-0.31,1.16-0.31c0.65,0,1.16,0.21,1.54,0.62c0.37,0.41,0.56,0.99,0.56,1.74v0.52H192
			c0.04,0.31,0.16,0.56,0.37,0.75c0.21,0.19,0.47,0.28,0.78,0.28c0.49,0,0.87-0.18,1.15-0.53l0.62,0.7
			c-0.19,0.27-0.45,0.48-0.77,0.63C193.83,23.99,193.47,24.06,193.08,24.06z M192.93,20.15c-0.25,0-0.46,0.09-0.61,0.26
			c-0.16,0.17-0.26,0.42-0.3,0.73h1.77v-0.1c-0.01-0.28-0.08-0.5-0.23-0.66C193.41,20.23,193.2,20.15,192.93,20.15z"/>
		<path class="st0" d="M198.51,23.97c-0.06-0.11-0.1-0.26-0.13-0.43c-0.31,0.34-0.71,0.51-1.2,0.51c-0.47,0-0.85-0.13-1.16-0.4
			s-0.46-0.61-0.46-1.02c0-0.5,0.19-0.89,0.56-1.16c0.37-0.27,0.91-0.41,1.62-0.41h0.58V20.8c0-0.22-0.06-0.4-0.17-0.53
			s-0.29-0.2-0.53-0.2c-0.21,0-0.38,0.05-0.5,0.15s-0.18,0.24-0.18,0.42h-1.27c0-0.28,0.08-0.53,0.25-0.76s0.41-0.42,0.72-0.55
			s0.66-0.2,1.05-0.2c0.59,0,1.05,0.15,1.4,0.44c0.34,0.29,0.52,0.71,0.52,1.24v2.06c0,0.45,0.07,0.79,0.19,1.02v0.07H198.51z
			 M197.46,23.09c0.19,0,0.36-0.04,0.52-0.13c0.16-0.08,0.28-0.2,0.35-0.34v-0.82h-0.47c-0.64,0-0.97,0.22-1.02,0.66l0,0.07
			c0,0.16,0.06,0.29,0.17,0.39S197.26,23.09,197.46,23.09z"/>
		<path class="st0" d="M203.42,23.49c-0.31,0.38-0.75,0.57-1.3,0.57c-0.51,0-0.9-0.15-1.17-0.44c-0.27-0.29-0.41-0.72-0.41-1.29
			v-3.12h1.27v3.08c0,0.5,0.23,0.74,0.68,0.74c0.43,0,0.73-0.15,0.89-0.45v-3.37h1.27v4.75h-1.2L203.42,23.49z"/>
		<path class="st0" d="M209.83,23.04c0.23,0,0.42-0.06,0.57-0.19s0.22-0.3,0.23-0.51h1.19c0,0.32-0.09,0.62-0.26,0.89
			c-0.17,0.27-0.41,0.48-0.71,0.62c-0.3,0.15-0.63,0.22-1,0.22c-0.68,0-1.22-0.22-1.61-0.65c-0.39-0.43-0.59-1.03-0.59-1.79v-0.08
			c0-0.73,0.19-1.32,0.58-1.75s0.92-0.65,1.6-0.65c0.59,0,1.07,0.17,1.43,0.51c0.36,0.34,0.54,0.79,0.55,1.35h-1.19
			c-0.01-0.25-0.08-0.45-0.23-0.6s-0.34-0.23-0.58-0.23c-0.3,0-0.52,0.11-0.67,0.32c-0.15,0.22-0.23,0.57-0.23,1.05v0.13
			c0,0.49,0.07,0.84,0.22,1.06S209.53,23.04,209.83,23.04z"/>
		<path class="st0" d="M215.22,20.41c-0.17-0.02-0.33-0.04-0.46-0.04c-0.48,0-0.8,0.16-0.94,0.49v3.11h-1.27v-4.75h1.2l0.04,0.57
			c0.25-0.44,0.61-0.65,1.06-0.65c0.14,0,0.27,0.02,0.4,0.06L215.22,20.41z"/>
		<path class="st0" d="M217.94,24.06c-0.7,0-1.27-0.21-1.7-0.64c-0.44-0.43-0.66-1-0.66-1.71v-0.12c0-0.48,0.09-0.9,0.28-1.28
			s0.45-0.67,0.78-0.87c0.34-0.2,0.72-0.31,1.16-0.31c0.65,0,1.16,0.21,1.54,0.62c0.37,0.41,0.56,0.99,0.56,1.74v0.52h-3.03
			c0.04,0.31,0.16,0.56,0.37,0.75c0.21,0.19,0.47,0.28,0.78,0.28c0.49,0,0.87-0.18,1.15-0.53l0.62,0.7
			c-0.19,0.27-0.45,0.48-0.77,0.63C218.69,23.99,218.33,24.06,217.94,24.06z M217.79,20.15c-0.25,0-0.46,0.09-0.61,0.26
			c-0.16,0.17-0.26,0.42-0.3,0.73h1.77v-0.1c-0.01-0.28-0.08-0.5-0.23-0.66C218.27,20.23,218.06,20.15,217.79,20.15z"/>
		<path class="st0" d="M220.41,21.56c0-0.74,0.17-1.33,0.5-1.77c0.33-0.44,0.79-0.66,1.36-0.66c0.46,0,0.85,0.17,1.15,0.52v-2.43
			h1.27v6.75h-1.15l-0.06-0.51c-0.32,0.4-0.72,0.59-1.22,0.59c-0.56,0-1.01-0.22-1.35-0.66C220.58,22.96,220.41,22.35,220.41,21.56z
			 M221.68,21.66c0,0.45,0.08,0.79,0.23,1.03s0.38,0.36,0.68,0.36c0.39,0,0.67-0.17,0.83-0.5v-1.88c-0.16-0.33-0.43-0.5-0.82-0.5
			C221.99,20.16,221.68,20.66,221.68,21.66z"/>
		<path class="st0" d="M225.67,17.99c0-0.19,0.06-0.35,0.19-0.47c0.13-0.12,0.3-0.18,0.52-0.18c0.22,0,0.39,0.06,0.52,0.18
			s0.19,0.28,0.19,0.47c0,0.19-0.07,0.35-0.2,0.47s-0.3,0.18-0.52,0.18s-0.39-0.06-0.52-0.18
			C225.74,18.34,225.67,18.18,225.67,17.99z M227.02,23.97h-1.27v-4.75h1.27V23.97z"/>
		<path class="st0" d="M229.59,18.05v1.17h0.81v0.93h-0.81v2.37c0,0.18,0.03,0.3,0.1,0.38s0.2,0.11,0.39,0.11
			c0.14,0,0.27-0.01,0.37-0.03v0.96c-0.25,0.08-0.51,0.11-0.77,0.11c-0.89,0-1.34-0.45-1.36-1.35v-2.56h-0.69v-0.93h0.69v-1.17
			H229.59z"/>
		<path class="st0" d="M235.93,22.66c0-0.16-0.08-0.28-0.23-0.37c-0.15-0.09-0.4-0.17-0.74-0.24c-1.13-0.24-1.7-0.72-1.7-1.44
			c0-0.42,0.17-0.77,0.53-1.06c0.35-0.28,0.81-0.42,1.37-0.42c0.6,0,1.09,0.14,1.45,0.43c0.36,0.28,0.54,0.65,0.54,1.11h-1.27
			c0-0.18-0.06-0.33-0.18-0.45c-0.12-0.12-0.3-0.18-0.55-0.18c-0.21,0-0.38,0.05-0.5,0.15s-0.18,0.22-0.18,0.37
			c0,0.14,0.07,0.25,0.2,0.34c0.13,0.09,0.36,0.16,0.67,0.22s0.58,0.13,0.8,0.21c0.67,0.25,1.01,0.67,1.01,1.28
			c0,0.43-0.19,0.78-0.56,1.05c-0.37,0.27-0.85,0.4-1.44,0.4c-0.4,0-0.75-0.07-1.06-0.21c-0.31-0.14-0.55-0.34-0.73-0.58
			c-0.18-0.25-0.26-0.51-0.26-0.8h1.2c0.01,0.23,0.1,0.4,0.25,0.52s0.36,0.18,0.62,0.18c0.24,0,0.43-0.05,0.55-0.14
			C235.86,22.93,235.93,22.81,235.93,22.66z"/>
		<path class="st0" d="M239.96,23.04c0.23,0,0.42-0.06,0.57-0.19s0.22-0.3,0.23-0.51h1.19c0,0.32-0.09,0.62-0.26,0.89
			c-0.17,0.27-0.41,0.48-0.71,0.62c-0.3,0.15-0.63,0.22-1,0.22c-0.68,0-1.22-0.22-1.61-0.65c-0.39-0.43-0.59-1.03-0.59-1.79v-0.08
			c0-0.73,0.19-1.32,0.58-1.75s0.92-0.65,1.6-0.65c0.59,0,1.07,0.17,1.43,0.51c0.36,0.34,0.54,0.79,0.55,1.35h-1.19
			c-0.01-0.25-0.08-0.45-0.23-0.6s-0.34-0.23-0.58-0.23c-0.3,0-0.52,0.11-0.67,0.32c-0.15,0.22-0.23,0.57-0.23,1.05v0.13
			c0,0.49,0.07,0.84,0.22,1.06S239.65,23.04,239.96,23.04z"/>
		<path class="st0" d="M242.47,21.55c0-0.47,0.09-0.89,0.27-1.26s0.44-0.65,0.78-0.86s0.74-0.3,1.19-0.3c0.64,0,1.17,0.2,1.57,0.59
			s0.63,0.93,0.68,1.6l0.01,0.33c0,0.73-0.2,1.31-0.61,1.76s-0.95,0.66-1.64,0.66s-1.23-0.22-1.64-0.66
			c-0.41-0.44-0.61-1.04-0.61-1.79V21.55z M243.74,21.64c0,0.45,0.08,0.8,0.25,1.04c0.17,0.24,0.41,0.36,0.73,0.36
			c0.31,0,0.55-0.12,0.72-0.35c0.17-0.24,0.26-0.61,0.26-1.13c0-0.44-0.09-0.79-0.26-1.03s-0.42-0.37-0.73-0.37
			c-0.31,0-0.55,0.12-0.72,0.36C243.83,20.76,243.74,21.13,243.74,21.64z"/>
		<path class="st0" d="M250.43,20.41c-0.17-0.02-0.33-0.04-0.46-0.04c-0.48,0-0.8,0.16-0.94,0.49v3.11h-1.27v-4.75h1.2l0.04,0.57
			c0.25-0.44,0.61-0.65,1.06-0.65c0.14,0,0.27,0.02,0.4,0.06L250.43,20.41z"/>
		<path class="st0" d="M253.15,24.06c-0.7,0-1.27-0.21-1.7-0.64c-0.44-0.43-0.66-1-0.66-1.71v-0.12c0-0.48,0.09-0.9,0.28-1.28
			s0.45-0.67,0.78-0.87c0.34-0.2,0.72-0.31,1.16-0.31c0.65,0,1.16,0.21,1.54,0.62c0.37,0.41,0.56,0.99,0.56,1.74v0.52h-3.03
			c0.04,0.31,0.16,0.56,0.37,0.75c0.21,0.19,0.47,0.28,0.78,0.28c0.49,0,0.87-0.18,1.15-0.53l0.62,0.7
			c-0.19,0.27-0.45,0.48-0.77,0.63C253.9,23.99,253.54,24.06,253.15,24.06z M253,20.15c-0.25,0-0.46,0.09-0.61,0.26
			c-0.16,0.17-0.26,0.42-0.3,0.73h1.77v-0.1c-0.01-0.28-0.08-0.5-0.23-0.66C253.48,20.23,253.27,20.15,253,20.15z"/>
		<path class="st0" d="M258.4,22.66c0-0.16-0.08-0.28-0.23-0.37c-0.15-0.09-0.4-0.17-0.74-0.24c-1.13-0.24-1.7-0.72-1.7-1.44
			c0-0.42,0.17-0.77,0.53-1.06c0.35-0.28,0.81-0.42,1.37-0.42c0.6,0,1.09,0.14,1.45,0.43c0.36,0.28,0.54,0.65,0.54,1.11h-1.27
			c0-0.18-0.06-0.33-0.18-0.45c-0.12-0.12-0.3-0.18-0.55-0.18c-0.21,0-0.38,0.05-0.5,0.15s-0.18,0.22-0.18,0.37
			c0,0.14,0.07,0.25,0.2,0.34c0.13,0.09,0.36,0.16,0.67,0.22s0.58,0.13,0.8,0.21c0.67,0.25,1.01,0.67,1.01,1.28
			c0,0.43-0.19,0.78-0.56,1.05c-0.37,0.27-0.85,0.4-1.44,0.4c-0.4,0-0.75-0.07-1.06-0.21c-0.31-0.14-0.55-0.34-0.73-0.58
			c-0.18-0.25-0.26-0.51-0.26-0.8h1.2c0.01,0.23,0.1,0.4,0.25,0.52s0.36,0.18,0.62,0.18c0.24,0,0.43-0.05,0.55-0.14
			C258.34,22.93,258.4,22.81,258.4,22.66z"/>
		<path class="st0" d="M262.52,22.25c0-0.3,0.08-0.57,0.25-0.82c0.17-0.25,0.47-0.53,0.91-0.84c-0.19-0.25-0.34-0.49-0.45-0.72
			c-0.11-0.22-0.16-0.46-0.16-0.7c0-0.5,0.16-0.9,0.47-1.22c0.31-0.31,0.74-0.47,1.27-0.47c0.48,0,0.87,0.14,1.18,0.43
			s0.46,0.64,0.46,1.06c0,0.51-0.26,0.96-0.77,1.35l-0.49,0.36l1.1,1.28c0.17-0.34,0.26-0.71,0.26-1.12h1.08
			c0,0.83-0.19,1.51-0.58,2.02l0.96,1.11h-1.44l-0.33-0.38c-0.47,0.31-1.01,0.47-1.63,0.47c-0.63,0-1.14-0.17-1.52-0.5
			C262.71,23.23,262.52,22.79,262.52,22.25z M264.67,23.04c0.3,0,0.59-0.08,0.87-0.25l-1.26-1.46l-0.09,0.07
			c-0.26,0.22-0.39,0.48-0.39,0.78c0,0.25,0.08,0.46,0.24,0.62C264.2,22.96,264.41,23.04,264.67,23.04z M264.21,19.15
			c0,0.22,0.13,0.5,0.39,0.83l0.34-0.22c0.17-0.11,0.29-0.22,0.36-0.33c0.07-0.11,0.1-0.23,0.1-0.38s-0.05-0.27-0.16-0.38
			s-0.25-0.16-0.42-0.16c-0.18,0-0.33,0.06-0.44,0.18C264.26,18.8,264.21,18.96,264.21,19.15z"/>
		<path class="st0" d="M273.51,20.41c-0.17-0.02-0.33-0.04-0.46-0.04c-0.48,0-0.8,0.16-0.94,0.49v3.11h-1.27v-4.75h1.2l0.04,0.57
			c0.25-0.44,0.61-0.65,1.06-0.65c0.14,0,0.27,0.02,0.4,0.06L273.51,20.41z"/>
		<path class="st0" d="M276.23,24.06c-0.7,0-1.27-0.21-1.7-0.64c-0.44-0.43-0.66-1-0.66-1.71v-0.12c0-0.48,0.09-0.9,0.28-1.28
			s0.45-0.67,0.78-0.87c0.34-0.2,0.72-0.31,1.16-0.31c0.65,0,1.16,0.21,1.54,0.62c0.37,0.41,0.56,0.99,0.56,1.74v0.52h-3.03
			c0.04,0.31,0.16,0.56,0.37,0.75c0.21,0.19,0.47,0.28,0.78,0.28c0.49,0,0.87-0.18,1.15-0.53l0.62,0.7
			c-0.19,0.27-0.45,0.48-0.77,0.63C276.98,23.99,276.62,24.06,276.23,24.06z M276.08,20.15c-0.25,0-0.46,0.09-0.61,0.26
			c-0.16,0.17-0.26,0.42-0.3,0.73h1.77v-0.1c-0.01-0.28-0.08-0.5-0.23-0.66C276.56,20.23,276.35,20.15,276.08,20.15z"/>
		<path class="st0" d="M283.19,21.64c0,0.73-0.17,1.32-0.5,1.76c-0.33,0.44-0.78,0.66-1.35,0.66c-0.48,0-0.87-0.17-1.16-0.5v2.24
			h-1.27v-6.58h1.18l0.04,0.47c0.31-0.37,0.71-0.55,1.2-0.55c0.59,0,1.04,0.22,1.37,0.65s0.49,1.03,0.49,1.79V21.64z M281.92,21.55
			c0-0.44-0.08-0.78-0.24-1.02s-0.38-0.36-0.68-0.36c-0.4,0-0.67,0.15-0.82,0.46v1.95c0.16,0.31,0.43,0.47,0.83,0.47
			C281.61,23.04,281.92,22.54,281.92,21.55z"/>
		<path class="st0" d="M283.77,21.55c0-0.47,0.09-0.89,0.27-1.26s0.44-0.65,0.78-0.86s0.74-0.3,1.19-0.3c0.64,0,1.17,0.2,1.57,0.59
			s0.63,0.93,0.68,1.6l0.01,0.33c0,0.73-0.2,1.31-0.61,1.76s-0.95,0.66-1.64,0.66s-1.23-0.22-1.64-0.66
			c-0.41-0.44-0.61-1.04-0.61-1.79V21.55z M285.04,21.64c0,0.45,0.08,0.8,0.25,1.04c0.17,0.24,0.41,0.36,0.73,0.36
			c0.31,0,0.55-0.12,0.72-0.35c0.17-0.24,0.26-0.61,0.26-1.13c0-0.44-0.09-0.79-0.26-1.03s-0.42-0.37-0.73-0.37
			c-0.31,0-0.55,0.12-0.72,0.36C285.13,20.76,285.04,21.13,285.04,21.64z"/>
		<path class="st0" d="M291.73,20.41c-0.17-0.02-0.33-0.04-0.46-0.04c-0.48,0-0.8,0.16-0.94,0.49v3.11h-1.27v-4.75h1.2l0.04,0.57
			c0.25-0.44,0.61-0.65,1.06-0.65c0.14,0,0.27,0.02,0.4,0.06L291.73,20.41z"/>
		<path class="st0" d="M294.08,18.05v1.17h0.81v0.93h-0.81v2.37c0,0.18,0.03,0.3,0.1,0.38s0.2,0.11,0.39,0.11
			c0.14,0,0.27-0.01,0.37-0.03v0.96c-0.25,0.08-0.51,0.11-0.77,0.11c-0.89,0-1.34-0.45-1.36-1.35v-2.56h-0.69v-0.93h0.69v-1.17
			H294.08z"/>
		<path class="st0" d="M298.18,22.66c0-0.16-0.08-0.28-0.23-0.37c-0.15-0.09-0.4-0.17-0.74-0.24c-1.13-0.24-1.7-0.72-1.7-1.44
			c0-0.42,0.17-0.77,0.53-1.06c0.35-0.28,0.81-0.42,1.37-0.42c0.6,0,1.09,0.14,1.45,0.43c0.36,0.28,0.54,0.65,0.54,1.11h-1.27
			c0-0.18-0.06-0.33-0.18-0.45c-0.12-0.12-0.3-0.18-0.55-0.18c-0.21,0-0.38,0.05-0.5,0.15s-0.18,0.22-0.18,0.37
			c0,0.14,0.07,0.25,0.2,0.34c0.13,0.09,0.36,0.16,0.67,0.22s0.58,0.13,0.8,0.21c0.67,0.25,1.01,0.67,1.01,1.28
			c0,0.43-0.19,0.78-0.56,1.05c-0.37,0.27-0.85,0.4-1.44,0.4c-0.4,0-0.75-0.07-1.06-0.21c-0.31-0.14-0.55-0.34-0.73-0.58
			c-0.18-0.25-0.26-0.51-0.26-0.8h1.2c0.01,0.23,0.1,0.4,0.25,0.52s0.36,0.18,0.62,0.18c0.24,0,0.43-0.05,0.55-0.14
			C298.12,22.93,298.18,22.81,298.18,22.66z"/>
	</g>
	<linearGradient id="SVGID_1_" gradientUnits="userSpaceOnUse" x1="191.1134" y1="31.5" x2="261.1134" y2="31.5">
		<stop  offset="0" style="stop-color:#18B9FB"/>
		<stop  offset="0.5" style="stop-color:#782EEB"/>
		<stop  offset="1" style="stop-color:#E82D8A"/>
	</linearGradient>
	<path class="st1" d="M260.11,32.5h-68c-0.55,0-1-0.45-1-1v0c0-0.55,0.45-1,1-1h68c0.55,0,1,0.45,1,1v0
		C261.11,32.05,260.67,32.5,260.11,32.5z"/>
</g>
</svg>
