<?xml version="1.0" encoding="utf-8"?>
<!-- Generator: Adobe Illustrator 24.2.3, SVG Export Plug-In . SVG Version: 6.00 Build 0)  -->
<svg version="1.1" id="Layer_1" xmlns="http://www.w3.org/2000/svg" xmlns:xlink="http://www.w3.org/1999/xlink" x="0px" y="0px"
	 viewBox="0 0 320 50" style="enable-background:new 0 0 320 50;" xml:space="preserve">
<style type="text/css">
	.st0{fill:#021D8B;}
</style>
<path class="st0" d="M62.1,12.54c0-0.09,0.03-0.16,0.09-0.22c0.06-0.06,0.13-0.09,0.22-0.09c0.08,0,0.15,0.03,0.21,0.09
	c0.06,0.06,0.09,0.13,0.09,0.22v3.4c0,0.09-0.03,0.16-0.09,0.22c-0.06,0.06-0.13,0.09-0.22,0.09c-0.08,0-0.15-0.03-0.21-0.09
	c-0.06-0.06-0.09-0.13-0.09-0.22V12.54z"/>
<g>
	<g>
		<g>
			<path class="st0" d="M44.94,17.91c-0.25,0.19-0.55,0.28-0.88,0.28c-0.19-0.02-0.34-0.04-0.45-0.07c-0.11-0.03-0.21-0.08-0.3-0.14
				c-0.09-0.06-0.14-0.15-0.14-0.26c0-0.09,0.03-0.16,0.09-0.22c0.06-0.06,0.13-0.08,0.22-0.08c0.07,0,0.13,0.02,0.18,0.06
				c0.13,0.07,0.28,0.11,0.43,0.11c0.12,0,0.23-0.02,0.33-0.06c0.1-0.04,0.19-0.1,0.27-0.17c0.08-0.07,0.14-0.16,0.18-0.25
				c0.04-0.1,0.07-0.2,0.07-0.31v-2.3c0-0.09,0.03-0.16,0.09-0.22c0.06-0.06,0.13-0.09,0.22-0.09c0.08,0,0.15,0.03,0.21,0.09
				c0.06,0.06,0.09,0.13,0.09,0.22c0,0,0,1.91,0,2.32C45.54,17.24,45.32,17.63,44.94,17.91z"/>
			<path class="st0" d="M31.15,11.16c0-0.09,0.03-0.16,0.09-0.22c0.06-0.06,0.13-0.09,0.22-0.09c0.08,0,0.15,0.03,0.21,0.09
				c0.06,0.06,0.09,0.13,0.09,0.22v0.23c0,0.09-0.03,0.16-0.09,0.22c-0.06,0.06-0.13,0.09-0.22,0.09c-0.08,0-0.15-0.03-0.21-0.09
				c-0.06-0.06-0.09-0.13-0.09-0.22V11.16z M31.15,12.57c0-0.09,0.03-0.16,0.09-0.22c0.06-0.06,0.13-0.09,0.22-0.09
				c0.08,0,0.15,0.03,0.21,0.09c0.06,0.06,0.09,0.13,0.09,0.22v3.38c0,0.09-0.03,0.16-0.09,0.22c-0.06,0.06-0.13,0.09-0.22,0.09
				c-0.08,0-0.15-0.03-0.21-0.09c-0.06-0.06-0.09-0.13-0.09-0.22V12.57z"/>
			<g>
				<path class="st0" d="M28.49,12.65c0-0.08,0.03-0.15,0.09-0.21c0.06-0.06,0.13-0.09,0.21-0.09c0.07,0,0.13,0.02,0.18,0.07
					c0.05,0.04,0.09,0.1,0.11,0.18c0.25-0.18,0.53-0.28,0.86-0.28c0.18,0.02,0.33,0.04,0.44,0.07c0.11,0.03,0.21,0.08,0.29,0.14
					c0.09,0.06,0.13,0.15,0.13,0.26c0,0.09-0.03,0.16-0.09,0.22c-0.06,0.06-0.13,0.08-0.21,0.08c-0.07,0-0.13-0.02-0.18-0.06
					c-0.13-0.07-0.27-0.11-0.42-0.11c-0.12,0-0.22,0.02-0.32,0.06c-0.1,0.04-0.18,0.1-0.26,0.17c-0.08,0.07-0.13,0.15-0.18,0.25
					c-0.04,0.09-0.07,0.2-0.07,0.31v2.25c0,0.08-0.03,0.15-0.09,0.21c-0.06,0.06-0.13,0.09-0.21,0.09c-0.08,0-0.15-0.03-0.21-0.09
					c-0.06-0.06-0.09-0.13-0.09-0.21v-2.27V12.65z"/>
			</g>
			<path class="st0" d="M32.18,12.68c-0.02-0.04-0.02-0.08-0.02-0.12c0-0.07,0.03-0.14,0.08-0.21c0.05-0.06,0.13-0.1,0.22-0.1
				c0.06,0,0.11,0.02,0.16,0.05c0.05,0.03,0.09,0.08,0.12,0.14l1.19,2.77l1.19-2.77c0.05-0.12,0.15-0.18,0.28-0.18
				c0.09,0,0.16,0.03,0.22,0.1c0.05,0.06,0.08,0.13,0.08,0.21c0,0.04-0.01,0.08-0.02,0.12l-1.46,3.42
				c-0.06,0.12-0.15,0.18-0.28,0.18c-0.14,0-0.23-0.06-0.28-0.18L32.18,12.68z"/>
			<path class="st0" d="M35.79,13.68c0-0.2,0.04-0.39,0.11-0.56c0.07-0.18,0.18-0.33,0.31-0.46c0.13-0.13,0.29-0.23,0.46-0.31
				c0.17-0.07,0.36-0.11,0.57-0.11c0.2,0,0.39,0.04,0.56,0.11c0.18,0.08,0.33,0.18,0.46,0.31c0.13,0.13,0.24,0.29,0.31,0.46
				c0.08,0.18,0.12,0.36,0.12,0.56v2.27c0,0.09-0.03,0.16-0.09,0.22c-0.06,0.06-0.13,0.09-0.21,0.09c-0.08,0-0.14-0.02-0.2-0.07
				c-0.06-0.05-0.09-0.1-0.1-0.17c-0.25,0.18-0.53,0.27-0.85,0.27c-0.2,0-0.39-0.04-0.56-0.11c-0.18-0.07-0.33-0.18-0.46-0.31
				c-0.13-0.13-0.24-0.29-0.31-0.46c-0.08-0.18-0.12-0.36-0.12-0.56V13.68z M36.4,14.84c0,0.11,0.02,0.22,0.07,0.32
				c0.05,0.1,0.11,0.19,0.18,0.27c0.07,0.08,0.16,0.14,0.27,0.18c0.1,0.04,0.21,0.06,0.33,0.06c0.11,0,0.22-0.02,0.32-0.06
				c0.1-0.04,0.19-0.1,0.27-0.17c0.07-0.07,0.14-0.16,0.18-0.25c0.05-0.1,0.07-0.2,0.08-0.31v-1.2c0-0.11-0.02-0.22-0.07-0.32
				c-0.05-0.1-0.11-0.19-0.18-0.27c-0.08-0.08-0.16-0.14-0.27-0.18c-0.1-0.04-0.21-0.06-0.33-0.06c-0.12,0-0.23,0.02-0.33,0.06
				c-0.1,0.04-0.19,0.1-0.27,0.18c-0.08,0.08-0.14,0.17-0.18,0.27c-0.04,0.1-0.06,0.21-0.06,0.32V14.84z"/>
			<path class="st0" d="M39.26,13.68c0-0.2,0.04-0.39,0.12-0.57c0.08-0.18,0.18-0.33,0.32-0.46c0.14-0.13,0.29-0.23,0.47-0.31
				c0.18-0.07,0.37-0.11,0.57-0.11c0.04,0,0.11,0.01,0.22,0.02c0.11,0.01,0.23,0.05,0.37,0.11c0.13,0.06,0.27,0.15,0.4,0.27
				c0.13,0.12,0.24,0.29,0.33,0.5c0.02,0.04,0.02,0.08,0.02,0.11c0,0.09-0.03,0.16-0.09,0.22c-0.06,0.06-0.13,0.09-0.22,0.09
				c-0.06,0-0.12-0.02-0.17-0.05c-0.05-0.03-0.09-0.08-0.11-0.14c-0.08-0.16-0.18-0.29-0.32-0.38c-0.14-0.09-0.29-0.14-0.46-0.14
				c-0.12,0-0.23,0.02-0.33,0.06c-0.1,0.04-0.19,0.1-0.27,0.18c-0.08,0.08-0.14,0.17-0.18,0.27c-0.04,0.1-0.06,0.21-0.06,0.32v1.16
				c0,0.11,0.02,0.22,0.07,0.32c0.05,0.1,0.11,0.19,0.18,0.27c0.07,0.08,0.16,0.14,0.27,0.18c0.1,0.04,0.21,0.06,0.33,0.06
				c0.17,0,0.33-0.05,0.47-0.14c0.14-0.09,0.24-0.22,0.31-0.38c0.03-0.06,0.06-0.11,0.11-0.14c0.05-0.03,0.1-0.05,0.17-0.05
				c0.09,0,0.16,0.03,0.22,0.09c0.06,0.06,0.09,0.13,0.09,0.21c0,0.04-0.01,0.08-0.02,0.11c-0.11,0.24-0.24,0.42-0.39,0.54
				c-0.15,0.12-0.3,0.21-0.44,0.27c-0.14,0.05-0.26,0.08-0.36,0.09c-0.1,0.01-0.15,0.01-0.16,0.01c-0.2,0-0.39-0.04-0.56-0.11
				c-0.18-0.07-0.33-0.18-0.46-0.31c-0.13-0.13-0.24-0.29-0.31-0.46c-0.08-0.18-0.12-0.36-0.12-0.56V13.68z"/>
			<path class="st0" d="M50.33,12.57c0-0.09,0.03-0.16,0.09-0.22c0.06-0.06,0.13-0.09,0.22-0.09c0.08,0,0.15,0.03,0.21,0.09
				c0.06,0.06,0.09,0.13,0.09,0.22v2.27c0,0.11,0.02,0.22,0.06,0.32c0.04,0.1,0.1,0.19,0.18,0.27c0.08,0.08,0.17,0.14,0.27,0.18
				c0.1,0.04,0.21,0.06,0.33,0.06c0.11,0,0.22-0.02,0.33-0.06c0.1-0.04,0.19-0.1,0.27-0.18c0.07-0.08,0.14-0.17,0.18-0.27
				c0.05-0.1,0.07-0.21,0.07-0.32v-2.27c0-0.09,0.03-0.16,0.09-0.22c0.06-0.06,0.13-0.09,0.22-0.09c0.08,0,0.15,0.03,0.21,0.09
				c0.06,0.06,0.09,0.13,0.09,0.22v2.27c0,0.2-0.04,0.39-0.12,0.56c-0.08,0.18-0.18,0.33-0.31,0.46c-0.13,0.13-0.29,0.23-0.46,0.31
				c-0.18,0.08-0.36,0.11-0.56,0.11c-0.2,0-0.39-0.04-0.57-0.11c-0.17-0.07-0.33-0.18-0.46-0.31c-0.13-0.13-0.24-0.29-0.31-0.46
				c-0.08-0.18-0.11-0.36-0.11-0.56V12.57z"/>
			<path class="st0" d="M53.81,13.68c0-0.2,0.04-0.39,0.11-0.56c0.07-0.18,0.18-0.33,0.31-0.46c0.13-0.13,0.29-0.23,0.46-0.31
				c0.17-0.07,0.36-0.11,0.57-0.11c0.2,0,0.39,0.04,0.56,0.11c0.18,0.08,0.33,0.18,0.46,0.31c0.13,0.13,0.24,0.29,0.31,0.46
				c0.08,0.18,0.12,0.36,0.12,0.56v2.27c0,0.09-0.03,0.16-0.09,0.22c-0.06,0.06-0.13,0.09-0.21,0.09c-0.08,0-0.14-0.02-0.2-0.07
				c-0.06-0.05-0.09-0.1-0.1-0.17c-0.25,0.18-0.53,0.27-0.85,0.27c-0.2,0-0.39-0.04-0.56-0.11c-0.18-0.07-0.33-0.18-0.46-0.31
				c-0.13-0.13-0.24-0.29-0.31-0.46c-0.08-0.18-0.12-0.36-0.12-0.56V13.68z M54.43,14.84c0,0.11,0.02,0.22,0.07,0.32
				c0.05,0.1,0.11,0.19,0.18,0.27c0.07,0.08,0.16,0.14,0.27,0.18c0.1,0.04,0.21,0.06,0.33,0.06c0.11,0,0.22-0.02,0.32-0.06
				c0.1-0.04,0.19-0.1,0.27-0.17c0.07-0.07,0.14-0.16,0.18-0.25c0.05-0.1,0.07-0.2,0.08-0.31v-1.2c0-0.11-0.02-0.22-0.07-0.32
				c-0.05-0.1-0.11-0.19-0.18-0.27c-0.08-0.08-0.16-0.14-0.27-0.18c-0.1-0.04-0.21-0.06-0.33-0.06c-0.12,0-0.23,0.02-0.33,0.06
				c-0.1,0.04-0.19,0.1-0.27,0.18c-0.08,0.08-0.14,0.17-0.18,0.27c-0.04,0.1-0.06,0.21-0.06,0.32V14.84z"/>
			<g>
				<path class="st0" d="M57.32,12.65c0-0.08,0.03-0.15,0.09-0.21c0.06-0.06,0.13-0.09,0.21-0.09c0.07,0,0.13,0.02,0.18,0.07
					c0.05,0.04,0.09,0.1,0.11,0.18c0.25-0.18,0.53-0.28,0.86-0.28c0.18,0.02,0.33,0.04,0.44,0.07c0.11,0.03,0.21,0.08,0.29,0.14
					c0.09,0.06,0.13,0.15,0.13,0.26c0,0.09-0.03,0.16-0.09,0.22c-0.06,0.06-0.13,0.08-0.21,0.08c-0.07,0-0.13-0.02-0.18-0.06
					c-0.13-0.07-0.27-0.11-0.42-0.11c-0.12,0-0.22,0.02-0.32,0.06c-0.1,0.04-0.18,0.1-0.26,0.17c-0.08,0.07-0.13,0.15-0.18,0.25
					c-0.04,0.09-0.07,0.2-0.07,0.31v2.25c0,0.08-0.03,0.15-0.09,0.21c-0.06,0.06-0.13,0.09-0.21,0.09c-0.08,0-0.15-0.03-0.21-0.09
					c-0.06-0.06-0.09-0.13-0.09-0.21v-2.27V12.65z"/>
			</g>
			<path class="st0" d="M62.11,11.16c0-0.09,0.03-0.16,0.09-0.22c0.06-0.06,0.13-0.09,0.22-0.09c0.08,0,0.15,0.03,0.21,0.09
				c0.06,0.06,0.09,0.13,0.09,0.22v3.68c0,0.2-0.04,0.39-0.12,0.56c-0.08,0.18-0.18,0.33-0.31,0.46c-0.13,0.13-0.29,0.23-0.46,0.31
				c-0.18,0.08-0.36,0.11-0.56,0.11c-0.2,0-0.39-0.04-0.57-0.11c-0.17-0.07-0.33-0.18-0.46-0.31c-0.13-0.13-0.24-0.29-0.31-0.46
				c-0.08-0.18-0.11-0.36-0.11-0.56v-1.16c0-0.2,0.04-0.39,0.12-0.56c0.08-0.18,0.18-0.33,0.31-0.46c0.13-0.13,0.29-0.23,0.46-0.31
				c0.18-0.07,0.36-0.11,0.56-0.11c0.16,0,0.3,0.02,0.45,0.07c0.14,0.05,0.27,0.12,0.4,0.2V11.16z M60.42,14.84
				c0,0.11,0.02,0.22,0.06,0.32c0.04,0.1,0.1,0.19,0.18,0.27c0.08,0.08,0.17,0.14,0.27,0.18c0.1,0.04,0.21,0.06,0.33,0.06
				c0.11,0,0.22-0.02,0.33-0.06c0.1-0.04,0.19-0.1,0.27-0.18c0.07-0.08,0.14-0.17,0.18-0.27c0.05-0.1,0.07-0.21,0.07-0.32v-1.16
				c0-0.11-0.02-0.22-0.06-0.32c-0.04-0.1-0.1-0.19-0.18-0.27c-0.08-0.08-0.17-0.14-0.27-0.18c-0.1-0.04-0.21-0.06-0.33-0.06
				c-0.11,0-0.22,0.02-0.33,0.06c-0.1,0.04-0.19,0.1-0.27,0.18c-0.08,0.08-0.14,0.17-0.18,0.27c-0.05,0.1-0.07,0.21-0.07,0.32V14.84
				z"/>
			<path class="st0" d="M42.63,12.57c0-0.09,0.03-0.16,0.09-0.22c0.06-0.06,0.13-0.09,0.22-0.09c0.08,0,0.15,0.03,0.21,0.09
				c0.06,0.06,0.09,0.13,0.09,0.22v2.27c0,0.11,0.02,0.22,0.06,0.32c0.04,0.1,0.1,0.19,0.18,0.27c0.08,0.08,0.17,0.14,0.27,0.18
				c0.1,0.04,0.21,0.06,0.33,0.06c0.11,0,0.22-0.02,0.33-0.06c0.1-0.04,0.19-0.1,0.27-0.18c0.07-0.08,0.14-0.17,0.18-0.27
				c0.05-0.1,0.07-0.21,0.07-0.32v-2.27c0-0.09,0.03-0.16,0.09-0.22c0.06-0.06,0.13-0.09,0.22-0.09c0.08,0,0.15,0.03,0.21,0.09
				c0.06,0.06,0.09,0.13,0.09,0.22v2.27c0,0.2-0.04,0.39-0.12,0.56c-0.08,0.18-0.18,0.33-0.31,0.46c-0.13,0.13-0.29,0.23-0.46,0.31
				c-0.18,0.08-0.36,0.11-0.56,0.11c-0.2,0-0.39-0.04-0.57-0.11c-0.17-0.07-0.33-0.18-0.46-0.31c-0.13-0.13-0.24-0.29-0.31-0.46
				c-0.08-0.18-0.11-0.36-0.11-0.56V12.57z"/>
			<path class="st0" d="M49.48,13.56H48.2c-0.17,0-0.31,0.13-0.31,0.3c0,0.17,0.14,0.31,0.31,0.31h1.01v0.48
				c0,0.66-0.59,1.15-1.22,1.15c-0.69,0-1.28-0.47-1.28-1.28v-1.83c0-0.75,0.56-1.28,1.26-1.28c0.58,0,1.03,0.39,1.21,0.87
				c0.06,0.1,0.14,0.16,0.28,0.16c0.24,0,0.39-0.19,0.27-0.47c-0.2-0.59-0.8-1.19-1.75-1.19c-1.1,0-1.89,0.87-1.89,1.87v1.91
				c0,1.01,0.79,1.87,1.89,1.87c0.99,0,1.82-0.77,1.82-1.65v-0.92C49.8,13.67,49.65,13.56,49.48,13.56z"/>
		</g>
	</g>
	<path class="st0" d="M62.11,12.57c0-0.09,0.03-0.16,0.09-0.22c0.06-0.06,0.13-0.09,0.22-0.09c0.08,0,0.15,0.03,0.21,0.09
		c0.06,0.06,0.09,0.13,0.09,0.22v3.38c0,0.09-0.03,0.16-0.09,0.22c-0.06,0.06-0.13,0.09-0.22,0.09c-0.08,0-0.15-0.03-0.21-0.09
		c-0.06-0.06-0.09-0.13-0.09-0.22V12.57z"/>
	<g>
		<path class="st0" d="M24.62,11.36c0-0.08,0.03-0.15,0.09-0.21c0.06-0.06,0.13-0.09,0.21-0.09h1.2h0.01c0.26,0,0.5,0.05,0.72,0.15
			c0.23,0.1,0.42,0.23,0.59,0.39c0.17,0.17,0.31,0.36,0.4,0.59c0.1,0.23,0.15,0.47,0.15,0.72c0,0.26-0.05,0.5-0.15,0.72
			c-0.1,0.22-0.23,0.42-0.4,0.59c-0.17,0.17-0.37,0.3-0.59,0.4c-0.23,0.1-0.47,0.15-0.73,0.15h-0.91v1.19
			c0,0.08-0.03,0.15-0.09,0.21c-0.06,0.06-0.13,0.09-0.21,0.09c-0.08,0-0.15-0.03-0.21-0.09c-0.06-0.06-0.09-0.13-0.09-0.21V11.36z
			 M25.22,11.66v2.5h0.91c0.18,0,0.34-0.03,0.5-0.1c0.15-0.07,0.29-0.15,0.4-0.27c0.12-0.11,0.21-0.24,0.27-0.4
			c0.07-0.15,0.1-0.31,0.1-0.49c0-0.17-0.03-0.34-0.1-0.49c-0.07-0.15-0.16-0.28-0.28-0.4c-0.12-0.11-0.25-0.2-0.4-0.27
			c-0.15-0.07-0.32-0.1-0.49-0.1H25.22z"/>
	</g>
</g>
<g>
	<path class="st0" d="M63.14,10.97h-0.11v-0.08h0.32v0.08h-0.11v0.34h-0.1V10.97z"/>
	<path class="st0" d="M63.75,11.15c0-0.05,0-0.11,0-0.17h0c-0.01,0.05-0.03,0.11-0.05,0.16l-0.05,0.16h-0.07l-0.04-0.16
		c-0.01-0.05-0.03-0.11-0.04-0.16h0c0,0.06,0,0.12-0.01,0.17l-0.01,0.16h-0.09l0.03-0.42h0.13l0.04,0.14
		c0.01,0.05,0.03,0.1,0.04,0.15h0c0.01-0.05,0.03-0.1,0.04-0.15l0.04-0.14h0.12l0.02,0.42h-0.09L63.75,11.15z"/>
</g>
</svg>
