<svg id="Layer_1" xmlns="http://www.w3.org/2000/svg" viewBox="0 0 728 90"><style>.st0{fill:#021d8b;stroke:url(#SVGID_1_);stroke-width:2;stroke-miterlimit:10}.st1{fill:#fff}</style><linearGradient id="SVGID_1_" gradientUnits="userSpaceOnUse" x1="484.164" y1="45.371" x2="574" y2="45.371"><stop offset="0" stop-color="#18b9fb"/><stop offset=".5" stop-color="#782eeb"/><stop offset="1" stop-color="#e82d8a"/></linearGradient><path class="st0" d="M556.36 66.67H501.8c-9.19 0-16.64-7.45-16.64-16.64V40.7c0-9.19 7.45-16.64 16.64-16.64h54.57c9.19 0 16.64 7.45 16.64 16.64v9.33c-.01 9.19-7.46 16.64-16.65 16.64z"/><path class="st1" d="M523.31 33.9h-3.56v9.67h-2.39V33.9h-3.51v-1.94h9.46v1.94zM528.98 39.32h-1.91v4.25h-2.39V31.96h4.31c1.37 0 2.43.31 3.17.92.74.61 1.12 1.48 1.12 2.59 0 .79-.17 1.45-.51 1.98-.34.53-.86.95-1.56 1.26l2.51 4.75v.11h-2.57l-2.17-4.25zm-1.91-1.94H529c.6 0 1.07-.15 1.4-.46.33-.31.5-.73.5-1.26 0-.55-.16-.98-.47-1.29-.31-.31-.79-.47-1.43-.47h-1.92v3.48zM538.72 37.19l2.42-5.23h2.62l-3.81 7.4v4.21h-2.43v-4.21l-3.81-7.4h2.62l2.39 5.23zM512.6 49.65h-3.56v9.67h-2.39v-9.67h-3.51v-1.94h9.46v1.94zM523.28 53.79c0 1.14-.2 2.15-.61 3.01s-.98 1.53-1.74 1.99c-.75.47-1.61.7-2.59.7-.96 0-1.82-.23-2.58-.69-.75-.46-1.34-1.12-1.75-1.98-.42-.86-.62-1.85-.63-2.96v-.57c0-1.14.21-2.15.62-3.02s.99-1.54 1.75-2c.75-.46 1.61-.7 2.58-.7s1.83.23 2.58.7c.75.46 1.33 1.13 1.75 2 .41.87.62 1.87.62 3.01v.51zm-2.42-.53c0-1.22-.22-2.14-.65-2.78s-1.06-.95-1.87-.95c-.8 0-1.42.31-1.86.94-.44.62-.66 1.54-.66 2.75v.57c0 1.19.22 2.11.65 2.76.44.65 1.06.98 1.88.98.8 0 1.42-.31 1.85-.95.43-.63.65-1.55.65-2.76v-.56zM525.02 59.33V47.72h3.57c1.02 0 1.93.23 2.74.69s1.43 1.11 1.89 1.96c.45.85.68 1.81.68 2.89v.53c0 1.08-.22 2.04-.67 2.88-.44.84-1.07 1.49-1.88 1.96-.81.46-1.72.7-2.74.7h-3.59zm2.39-9.68v7.75h1.16c.94 0 1.65-.31 2.15-.92s.75-1.49.76-2.62v-.62c0-1.18-.25-2.07-.73-2.68-.49-.61-1.2-.91-2.14-.91h-1.2zM542.19 56.94H538l-.8 2.39h-2.54l4.32-11.61h2.22l4.35 11.61H543l-.81-2.39zM538.64 55h2.9l-1.46-4.35-1.44 4.35zM549.43 52.95l2.42-5.23h2.62l-3.81 7.4v4.21h-2.43v-4.21l-3.81-7.4h2.62l2.39 5.23z"/></svg>