<svg id="Layer_1" xmlns="http://www.w3.org/2000/svg" viewBox="0 0 320 100"><style>.st0{fill:#021d8b}</style><path class="st0" d="M116.43 52.17l-1.41 1.54v3.75h-3.43V43.25h3.43v6.27l1.19-1.81 3.07-4.46h4.24l-4.8 6.29 4.8 7.93h-4.06l-3.03-5.3zM127.26 46.9l.11 1.24c.73-.96 1.73-1.44 3.02-1.44 1.1 0 1.92.33 2.47.99s.83 1.65.84 2.97v6.81h-3.3V50.8c0-.53-.11-.93-.32-1.18s-.61-.38-1.17-.38c-.64 0-1.12.25-1.44.76v7.46h-3.29V46.9h3.08zM135.1 52.08c0-1.05.21-1.99.62-2.82s1-1.46 1.77-1.9 1.67-.66 2.71-.66c1.58 0 2.83.49 3.74 1.47s1.37 2.31 1.37 4v.12c0 1.65-.46 2.95-1.37 3.92s-2.15 1.45-3.72 1.45c-1.5 0-2.71-.45-3.62-1.35s-1.4-2.12-1.47-3.67l-.03-.56zm3.29.21c0 .98.15 1.69.46 2.15s.76.68 1.36.68c1.17 0 1.77-.9 1.8-2.71v-.33c0-1.89-.61-2.84-1.82-2.84-1.1 0-1.7.82-1.79 2.45l-.01.6zM155.87 53.13l1.06-6.23h3.15l-2.49 10.57h-2.78l-1.75-6.27-1.76 6.27h-2.78l-2.49-10.57h3.15l1.04 6.38 1.68-6.38h2.29l1.68 6.23zM176.06 52.27c0 1.73-.36 3.06-1.07 3.99s-1.73 1.4-3.03 1.4c-1.07 0-1.94-.43-2.6-1.28l-.14 1.08h-2.95v-15h3.29v5.28c.61-.7 1.4-1.04 2.37-1.04 1.31 0 2.33.47 3.05 1.42s1.07 2.27 1.07 3.98v.17zm-3.3-.21c0-1.01-.14-1.74-.41-2.17s-.69-.65-1.25-.65c-.74 0-1.26.28-1.54.85v4.19c.28.56.8.84 1.56.84.77 0 1.27-.38 1.47-1.13.11-.37.17-1.01.17-1.93zM182.62 57.66c-1.62 0-2.93-.48-3.94-1.45s-1.5-2.23-1.5-3.77v-.27c0-1.08.2-2.03.6-2.86s.98-1.47 1.75-1.92 1.68-.68 2.73-.68c1.48 0 2.66.46 3.52 1.38s1.29 2.21 1.29 3.85v1.28h-6.54c.12.59.37 1.06.77 1.4s.91.51 1.54.51c1.04 0 1.86-.36 2.44-1.09l1.5 1.78c-.41.57-.99 1.02-1.74 1.35s-1.55.49-2.42.49zm-.37-8.42c-.96 0-1.54.64-1.72 1.91h3.32v-.25c.01-.53-.12-.94-.4-1.23s-.68-.43-1.2-.43zM189.12 57.46v-8.28h-1.53V46.9h1.53v-.84c0-1.2.35-2.14 1.06-2.8s1.71-1 2.99-1c.47 0 .98.07 1.54.21l.01 2.42c-.2-.06-.47-.09-.81-.09-1 0-1.49.43-1.49 1.29v.81h2.06v2.29h-2.06v8.28h-3.3zM195.23 52.08c0-1.05.21-1.99.62-2.82s1-1.46 1.77-1.9 1.67-.66 2.71-.66c1.58 0 2.83.49 3.74 1.47s1.37 2.31 1.37 4v.12c0 1.65-.46 2.95-1.37 3.92s-2.15 1.45-3.72 1.45c-1.5 0-2.71-.45-3.62-1.35s-1.4-2.12-1.47-3.67l-.03-.56zm3.29.21c0 .98.15 1.69.46 2.15s.76.68 1.36.68c1.17 0 1.77-.9 1.8-2.71v-.33c0-1.89-.61-2.84-1.82-2.84-1.1 0-1.7.82-1.79 2.45l-.01.6zM213.26 49.88l-1.08-.08c-1.04 0-1.7.33-1.99.98v6.69h-3.29V46.9h3.09l.11 1.36c.55-1.04 1.32-1.55 2.31-1.55.35 0 .66.04.92.12l-.07 3.05zM219.38 57.66c-1.62 0-2.93-.48-3.94-1.45s-1.5-2.23-1.5-3.77v-.27c0-1.08.2-2.03.6-2.86s.98-1.47 1.75-1.92 1.68-.68 2.73-.68c1.48 0 2.66.46 3.52 1.38s1.29 2.21 1.29 3.85v1.28h-6.54c.12.59.37 1.06.77 1.4s.91.51 1.54.51c1.04 0 1.86-.36 2.44-1.09l1.5 1.78c-.41.57-.99 1.02-1.74 1.35s-1.56.49-2.42.49zm-.37-8.42c-.96 0-1.54.64-1.72 1.91h3.32v-.25c.01-.53-.12-.94-.4-1.23s-.68-.43-1.2-.43zM234.36 52.86l1.76-5.96h3.53l-4.31 12.33-.19.45c-.61 1.37-1.69 2.05-3.24 2.05-.43 0-.88-.06-1.36-.19V59.2h.43c.46 0 .82-.07 1.06-.2.24-.13.42-.37.54-.72l.26-.7-3.67-10.67h3.52l1.67 5.95zM239.93 52.08c0-1.05.21-1.99.62-2.82s1-1.46 1.77-1.9 1.67-.66 2.71-.66c1.58 0 2.83.49 3.74 1.47s1.37 2.31 1.37 4v.12c0 1.65-.46 2.95-1.37 3.92s-2.15 1.45-3.72 1.45c-1.5 0-2.71-.45-3.62-1.35s-1.4-2.12-1.47-3.67l-.03-.56zm3.3.21c0 .98.15 1.69.46 2.15s.76.68 1.36.68c1.17 0 1.77-.9 1.8-2.71v-.33c0-1.89-.61-2.84-1.82-2.84-1.1 0-1.7.82-1.79 2.45l-.01.6zM257.87 56.32c-.7.89-1.64 1.34-2.82 1.34-1.16 0-2.04-.34-2.63-1.01s-.89-1.64-.89-2.91V46.9h3.29v6.87c0 .9.44 1.36 1.32 1.36.76 0 1.29-.27 1.61-.81V46.9h3.31v10.57h-3.09l-.1-1.15zM267.45 52.1c0-1.07.18-2.01.53-2.83s.86-1.45 1.51-1.9 1.42-.67 2.29-.67c1.1 0 1.96.37 2.58 1.11l.12-.92h2.99v10.17c0 .93-.22 1.74-.65 2.43s-1.06 1.21-1.88 1.58-1.77.55-2.85.55c-.77 0-1.52-.15-2.25-.44s-1.28-.67-1.67-1.14l1.38-1.93c.61.72 1.42 1.08 2.42 1.08 1.46 0 2.19-.75 2.19-2.25v-.33c-.63.7-1.43 1.04-2.39 1.04-1.29 0-2.33-.49-3.12-1.48s-1.19-2.31-1.19-3.96v-.11zm3.3.21c0 .87.16 1.55.49 2.06s.78.76 1.37.76c.71 0 1.23-.24 1.55-.71v-4.44c-.32-.48-.83-.72-1.53-.72-.59 0-1.04.26-1.38.79s-.5 1.26-.5 2.26zM278.93 52.08c0-1.05.21-1.99.62-2.82s1-1.46 1.77-1.9 1.67-.66 2.71-.66c1.58 0 2.83.49 3.74 1.47s1.37 2.31 1.37 4v.12c0 1.65-.46 2.95-1.37 3.92s-2.15 1.45-3.72 1.45c-1.5 0-2.71-.45-3.62-1.35s-1.4-2.12-1.47-3.67l-.03-.56zm3.29.21c0 .98.15 1.69.46 2.15s.76.68 1.36.68c1.17 0 1.77-.9 1.8-2.71v-.33c0-1.89-.61-2.84-1.82-2.84-1.1 0-1.7.82-1.79 2.45l-.01.6zM292.61 54.27c.52 0 .95.15 1.3.46s.52.7.52 1.19-.17.88-.52 1.19-.78.46-1.3.46c-.53 0-.96-.16-1.3-.47s-.51-.71-.51-1.18.17-.87.51-1.18.77-.47 1.3-.47z"/></svg>