<?xml version="1.0" encoding="utf-8"?>
<!-- Generator: Adobe Illustrator 26.0.3, SVG Export Plug-In . SVG Version: 6.00 Build 0)  -->
<svg version="1.1" id="Layer_1" xmlns="http://www.w3.org/2000/svg" xmlns:xlink="http://www.w3.org/1999/xlink" x="0px" y="0px"
	 viewBox="0 0 300 600" style="enable-background:new 0 0 300 600;" xml:space="preserve">
<style type="text/css">
	.st0{fill:#FFFFFF;}
	.st1{fill:#2A3480;}
</style>
<path class="st0" d="M267.4,270.3h-235c-7.2,0-13.1-5.9-13.1-13.1v0c0-7.2,5.9-13.1,13.1-13.1h235c7.2,0,13.1,5.9,13.1,13.1v0
	C280.6,264.4,274.7,270.3,267.4,270.3z"/>
<g>
	<path class="st0" d="M42.1,210.7h-3.6l-5.4-9.4v9.4h-3.7v-15.2h3.7l5.4,9.4v-9.4h3.6V210.7z"/>
	<path class="st0" d="M49.7,210.9c-1.7,0-3.1-0.5-4.2-1.5c-1.1-1-1.6-2.4-1.6-4V205c0-1.2,0.2-2.2,0.6-3.1c0.4-0.9,1.1-1.6,1.9-2
		c0.8-0.5,1.8-0.7,2.9-0.7c1.6,0,2.8,0.5,3.8,1.5c0.9,1,1.4,2.4,1.4,4.1v1.4h-7c0.1,0.6,0.4,1.1,0.8,1.5s1,0.5,1.6,0.5
		c1.1,0,2-0.4,2.6-1.2l1.6,1.9c-0.4,0.6-1.1,1.1-1.9,1.4C51.5,210.7,50.6,210.9,49.7,210.9z M49.3,201.9c-1,0-1.6,0.7-1.8,2H51v-0.3
		c0-0.6-0.1-1-0.4-1.3S49.9,201.9,49.3,201.9z"/>
	<path class="st0" d="M61.3,210.9c-1.7,0-3.1-0.5-4.2-1.5c-1.1-1-1.6-2.4-1.6-4V205c0-1.2,0.2-2.2,0.6-3.1c0.4-0.9,1.1-1.6,1.9-2
		c0.8-0.5,1.8-0.7,2.9-0.7c1.6,0,2.8,0.5,3.8,1.5c0.9,1,1.4,2.4,1.4,4.1v1.4h-7c0.1,0.6,0.4,1.1,0.8,1.5s1,0.5,1.6,0.5
		c1.1,0,2-0.4,2.6-1.2l1.6,1.9c-0.4,0.6-1.1,1.1-1.9,1.4C63.1,210.7,62.3,210.9,61.3,210.9z M60.9,201.9c-1,0-1.6,0.7-1.8,2h3.5
		v-0.3c0-0.6-0.1-1-0.4-1.3S61.5,201.9,60.9,201.9z"/>
	<path class="st0" d="M67.1,205c0-1.8,0.4-3.2,1.2-4.2c0.8-1,1.8-1.5,3.2-1.5c1,0,1.9,0.4,2.5,1.2v-5.7h3.5v16h-3.2l-0.2-1.2
		c-0.7,0.9-1.6,1.4-2.8,1.4c-1.3,0-2.4-0.5-3.2-1.5S67.1,206.9,67.1,205z M70.6,205.2c0,2,0.6,3,1.8,3c0.8,0,1.3-0.3,1.7-1v-4.3
		c-0.3-0.7-0.9-1-1.6-1c-1.1,0-1.7,0.9-1.8,2.6L70.6,205.2z"/>
	<path class="st0" d="M85.6,210.7v-8.8H84v-2.4h1.6v-0.9c0-1.3,0.4-2.3,1.1-3c0.8-0.7,1.8-1.1,3.2-1.1c0.5,0,1,0.1,1.6,0.2l0,2.6
		c-0.2-0.1-0.5-0.1-0.9-0.1c-1.1,0-1.6,0.5-1.6,1.4v0.9h2.2v2.4h-2.2v8.8H85.6z"/>
	<path class="st0" d="M98.9,210.7c-0.1-0.2-0.2-0.6-0.3-1c-0.6,0.8-1.5,1.2-2.7,1.2c-1.1,0-2-0.3-2.7-1s-1.1-1.5-1.1-2.4
		c0-1.2,0.5-2.1,1.4-2.8c0.9-0.6,2.2-0.9,3.9-0.9h1.1v-0.6c0-1-0.4-1.6-1.3-1.6c-0.8,0-1.3,0.4-1.3,1.2h-3.5c0-1.1,0.5-2,1.4-2.7
		c0.9-0.7,2.1-1,3.5-1s2.6,0.4,3.4,1.1c0.8,0.7,1.3,1.7,1.3,2.9v5c0,1,0.2,1.8,0.5,2.4v0.2H98.9z M96.7,208.4c0.4,0,0.8-0.1,1.1-0.3
		s0.5-0.4,0.6-0.6v-1.8h-1c-1.2,0-1.8,0.5-1.8,1.6c0,0.3,0.1,0.6,0.3,0.8C96.1,208.3,96.4,208.4,96.7,208.4z"/>
	<path class="st0" d="M109.8,207.5c0-0.3-0.2-0.5-0.5-0.7s-0.9-0.4-1.8-0.6c-0.9-0.2-1.6-0.4-2.2-0.8c-0.6-0.3-1-0.7-1.3-1.2
		s-0.4-1-0.4-1.6c0-1,0.4-1.9,1.3-2.6c0.9-0.7,2-1,3.4-1c1.5,0,2.7,0.3,3.6,1s1.4,1.6,1.4,2.7h-3.5c0-0.9-0.5-1.4-1.4-1.4
		c-0.4,0-0.7,0.1-0.9,0.3c-0.2,0.2-0.4,0.5-0.4,0.8c0,0.3,0.2,0.6,0.5,0.8c0.3,0.2,0.8,0.4,1.5,0.5c0.7,0.1,1.3,0.3,1.8,0.4
		c1.7,0.6,2.5,1.6,2.5,3.1c0,1-0.5,1.9-1.4,2.5c-0.9,0.6-2.1,1-3.5,1c-1,0-1.8-0.2-2.6-0.5c-0.8-0.3-1.3-0.8-1.8-1.4
		s-0.6-1.2-0.6-1.9h3.3c0,0.5,0.2,0.9,0.5,1.1c0.3,0.2,0.8,0.4,1.3,0.4c0.5,0,0.8-0.1,1.1-0.3C109.7,208.1,109.8,207.8,109.8,207.5z
		"/>
	<path class="st0" d="M118.9,196.6v2.8h1.9v2.4h-1.9v5.2c0,0.4,0.1,0.7,0.2,0.9c0.2,0.2,0.5,0.2,0.9,0.2c0.3,0,0.6,0,0.9-0.1v2.5
		c-0.6,0.2-1.3,0.3-2,0.3c-1.2,0-2.1-0.3-2.7-0.9c-0.6-0.6-0.9-1.4-0.9-2.6v-5.6H114v-2.4h1.4v-2.8H118.9z"/>
	<path class="st0" d="M133.8,210.7c-0.1-0.2-0.2-0.6-0.3-1c-0.6,0.8-1.5,1.2-2.7,1.2c-1.1,0-2-0.3-2.7-1s-1.1-1.5-1.1-2.4
		c0-1.2,0.5-2.1,1.4-2.8c0.9-0.6,2.2-0.9,3.9-0.9h1.1v-0.6c0-1-0.4-1.6-1.3-1.6c-0.8,0-1.3,0.4-1.3,1.2h-3.5c0-1.1,0.5-2,1.4-2.7
		c0.9-0.7,2.1-1,3.5-1s2.6,0.4,3.4,1.1c0.8,0.7,1.3,1.7,1.3,2.9v5c0,1,0.2,1.8,0.5,2.4v0.2H133.8z M131.6,208.4
		c0.4,0,0.8-0.1,1.1-0.3s0.5-0.4,0.6-0.6v-1.8h-1c-1.2,0-1.8,0.5-1.8,1.6c0,0.3,0.1,0.6,0.3,0.8C131,208.3,131.3,208.4,131.6,208.4z
		"/>
	<path class="st0" d="M143.6,208.2c0.5,0,0.9-0.1,1.1-0.4c0.3-0.3,0.4-0.6,0.4-1.1h3.3c0,1.2-0.4,2.3-1.3,3s-2,1.2-3.4,1.2
		c-1.6,0-2.9-0.5-3.9-1.5c-0.9-1-1.4-2.5-1.4-4.3V205c0-1.1,0.2-2.1,0.6-3c0.4-0.9,1-1.5,1.8-2c0.8-0.5,1.7-0.7,2.8-0.7
		c1.5,0,2.6,0.4,3.5,1.2s1.3,1.9,1.3,3.3h-3.3c0-0.6-0.1-1-0.4-1.3c-0.3-0.3-0.7-0.5-1.1-0.5c-0.9,0-1.4,0.6-1.6,1.7
		c0,0.4-0.1,0.9-0.1,1.5c0,1.1,0.1,1.9,0.4,2.4C142.5,208,143,208.2,143.6,208.2z"/>
	<path class="st0" d="M154.6,208.2c0.5,0,0.9-0.1,1.1-0.4c0.3-0.3,0.4-0.6,0.4-1.1h3.3c0,1.2-0.4,2.3-1.3,3s-2,1.2-3.4,1.2
		c-1.6,0-2.9-0.5-3.9-1.5c-0.9-1-1.4-2.5-1.4-4.3V205c0-1.1,0.2-2.1,0.6-3c0.4-0.9,1-1.5,1.8-2c0.8-0.5,1.7-0.7,2.8-0.7
		c1.5,0,2.6,0.4,3.5,1.2s1.3,1.9,1.3,3.3h-3.3c0-0.6-0.1-1-0.4-1.3c-0.3-0.3-0.7-0.5-1.1-0.5c-0.9,0-1.4,0.6-1.6,1.7
		c0,0.4-0.1,0.9-0.1,1.5c0,1.1,0.1,1.9,0.4,2.4C153.6,208,154.1,208.2,154.6,208.2z"/>
	<path class="st0" d="M166.4,210.9c-1.7,0-3.1-0.5-4.2-1.5c-1.1-1-1.6-2.4-1.6-4V205c0-1.2,0.2-2.2,0.6-3.1c0.4-0.9,1.1-1.6,1.9-2
		c0.8-0.5,1.8-0.7,2.9-0.7c1.6,0,2.8,0.5,3.8,1.5c0.9,1,1.4,2.4,1.4,4.1v1.4h-7c0.1,0.6,0.4,1.1,0.8,1.5s1,0.5,1.6,0.5
		c1.1,0,2-0.4,2.6-1.2l1.6,1.9c-0.4,0.6-1.1,1.1-1.9,1.4C168.2,210.7,167.3,210.9,166.4,210.9z M166,201.9c-1,0-1.6,0.7-1.8,2h3.5
		v-0.3c0-0.6-0.1-1-0.4-1.3S166.6,201.9,166,201.9z"/>
	<path class="st0" d="M178.5,207.5c0-0.3-0.2-0.5-0.5-0.7s-0.9-0.4-1.8-0.6c-0.9-0.2-1.6-0.4-2.2-0.8c-0.6-0.3-1-0.7-1.3-1.2
		s-0.4-1-0.4-1.6c0-1,0.4-1.9,1.3-2.6c0.9-0.7,2-1,3.4-1c1.5,0,2.7,0.3,3.6,1s1.4,1.6,1.4,2.7h-3.5c0-0.9-0.5-1.4-1.4-1.4
		c-0.4,0-0.7,0.1-0.9,0.3c-0.2,0.2-0.4,0.5-0.4,0.8c0,0.3,0.2,0.6,0.5,0.8c0.3,0.2,0.8,0.4,1.5,0.5c0.7,0.1,1.3,0.3,1.8,0.4
		c1.7,0.6,2.5,1.6,2.5,3.1c0,1-0.5,1.9-1.4,2.5c-0.9,0.6-2.1,1-3.5,1c-1,0-1.8-0.2-2.6-0.5c-0.8-0.3-1.3-0.8-1.8-1.4
		s-0.6-1.2-0.6-1.9h3.3c0,0.5,0.2,0.9,0.5,1.1c0.3,0.2,0.8,0.4,1.3,0.4c0.5,0,0.8-0.1,1.1-0.3C178.4,208.1,178.5,207.8,178.5,207.5z
		"/>
	<path class="st0" d="M189.4,207.5c0-0.3-0.2-0.5-0.5-0.7s-0.9-0.4-1.8-0.6c-0.9-0.2-1.6-0.4-2.2-0.8c-0.6-0.3-1-0.7-1.3-1.2
		s-0.4-1-0.4-1.6c0-1,0.4-1.9,1.3-2.6c0.9-0.7,2-1,3.4-1c1.5,0,2.7,0.3,3.6,1s1.4,1.6,1.4,2.7h-3.5c0-0.9-0.5-1.4-1.4-1.4
		c-0.4,0-0.7,0.1-0.9,0.3c-0.2,0.2-0.4,0.5-0.4,0.8c0,0.3,0.2,0.6,0.5,0.8c0.3,0.2,0.8,0.4,1.5,0.5c0.7,0.1,1.3,0.3,1.8,0.4
		c1.7,0.6,2.5,1.6,2.5,3.1c0,1-0.5,1.9-1.4,2.5c-0.9,0.6-2.1,1-3.5,1c-1,0-1.8-0.2-2.6-0.5c-0.8-0.3-1.3-0.8-1.8-1.4
		s-0.6-1.2-0.6-1.9h3.3c0,0.5,0.2,0.9,0.5,1.1c0.3,0.2,0.8,0.4,1.3,0.4c0.5,0,0.8-0.1,1.1-0.3C189.3,208.1,189.4,207.8,189.4,207.5z
		"/>
	<path class="st0" d="M203.9,196.6v2.8h1.9v2.4h-1.9v5.2c0,0.4,0.1,0.7,0.2,0.9c0.2,0.2,0.5,0.2,0.9,0.2c0.3,0,0.6,0,0.9-0.1v2.5
		c-0.6,0.2-1.3,0.3-2,0.3c-1.2,0-2.1-0.3-2.7-0.9c-0.6-0.6-0.9-1.4-0.9-2.6v-5.6h-1.4v-2.4h1.4v-2.8H203.9z"/>
	<path class="st0" d="M206.3,205c0-1.1,0.2-2.1,0.7-3s1.1-1.6,1.9-2c0.8-0.5,1.8-0.7,2.9-0.7c1.7,0,3,0.5,4,1.6c1,1,1.5,2.5,1.5,4.3
		v0.1c0,1.8-0.5,3.2-1.5,4.2c-1,1-2.3,1.5-4,1.5c-1.6,0-2.9-0.5-3.9-1.4s-1.5-2.3-1.6-3.9L206.3,205z M209.9,205.2
		c0,1,0.2,1.8,0.5,2.3c0.3,0.5,0.8,0.7,1.4,0.7c1.3,0,1.9-1,1.9-2.9V205c0-2-0.6-3-1.9-3c-1.2,0-1.8,0.9-1.9,2.6L209.9,205.2z"/>
	<path class="st0" d="M228.6,205.8l1.9-6.4h3.8l-4.6,13.2l-0.2,0.5c-0.7,1.5-1.8,2.2-3.5,2.2c-0.5,0-0.9-0.1-1.4-0.2v-2.5h0.5
		c0.5,0,0.9-0.1,1.1-0.2c0.3-0.1,0.5-0.4,0.6-0.8l0.3-0.8l-3.9-11.4h3.8L228.6,205.8z"/>
	<path class="st0" d="M234.7,205c0-1.1,0.2-2.1,0.7-3s1.1-1.6,1.9-2c0.8-0.5,1.8-0.7,2.9-0.7c1.7,0,3,0.5,4,1.6c1,1,1.5,2.5,1.5,4.3
		v0.1c0,1.8-0.5,3.2-1.5,4.2c-1,1-2.3,1.5-4,1.5c-1.6,0-2.9-0.5-3.9-1.4s-1.5-2.3-1.6-3.9L234.7,205z M238.2,205.2
		c0,1,0.2,1.8,0.5,2.3c0.3,0.5,0.8,0.7,1.4,0.7c1.3,0,1.9-1,1.9-2.9V205c0-2-0.6-3-1.9-3c-1.2,0-1.8,0.9-1.9,2.6L238.2,205.2z"/>
	<path class="st0" d="M253.8,209.5c-0.7,1-1.7,1.4-3,1.4c-1.2,0-2.2-0.4-2.8-1.1s-1-1.8-1-3.1v-7.3h3.5v7.3c0,1,0.5,1.4,1.4,1.4
		c0.8,0,1.4-0.3,1.7-0.9v-7.9h3.5v11.3h-3.3L253.8,209.5z"/>
	<path class="st0" d="M266,202.6l-1.2-0.1c-1.1,0-1.8,0.3-2.1,1v7.1h-3.5v-11.3h3.3l0.1,1.4c0.6-1.1,1.4-1.7,2.5-1.7
		c0.4,0,0.7,0,1,0.1L266,202.6z"/>
	<path class="st0" d="M47.1,221.9v2.8H49v2.4h-1.9v5.2c0,0.4,0.1,0.7,0.2,0.9c0.2,0.2,0.5,0.2,0.9,0.2c0.3,0,0.6,0,0.9-0.1v2.5
		c-0.6,0.2-1.3,0.3-2,0.3c-1.2,0-2.1-0.3-2.7-0.9c-0.6-0.6-0.9-1.4-0.9-2.6v-5.6h-1.4v-2.4h1.4v-2.8H47.1z"/>
	<path class="st0" d="M57.2,227.8l-1.2-0.1c-1.1,0-1.8,0.3-2.1,1v7.1h-3.5v-11.3h3.3l0.1,1.4c0.6-1.1,1.4-1.7,2.5-1.7
		c0.4,0,0.7,0,1,0.1L57.2,227.8z"/>
	<path class="st0" d="M58.4,221.8c0-0.5,0.2-0.9,0.5-1.2c0.4-0.3,0.8-0.5,1.4-0.5c0.6,0,1,0.2,1.4,0.5c0.4,0.3,0.5,0.7,0.5,1.2
		c0,0.5-0.2,0.9-0.5,1.2c-0.4,0.3-0.8,0.5-1.4,0.5c-0.6,0-1-0.2-1.4-0.5C58.6,222.7,58.4,222.3,58.4,221.8z M62.1,235.9h-3.5v-11.3
		h3.5V235.9z"/>
	<path class="st0" d="M74.8,230.4c0,1.8-0.4,3.1-1.2,4.2c-0.8,1-1.9,1.6-3.2,1.6c-1,0-1.9-0.4-2.6-1.1v5.3h-3.5v-15.6h3.3l0.1,1
		c0.7-0.8,1.6-1.3,2.7-1.3c1.4,0,2.5,0.5,3.2,1.5c0.8,1,1.2,2.4,1.2,4.2V230.4z M71.2,230.2c0-2-0.6-3-1.8-3c-0.8,0-1.4,0.3-1.7,0.9
		v4.4c0.3,0.6,0.9,0.9,1.7,0.9c1.1,0,1.7-1,1.7-2.9V230.2z"/>
	<path class="st0" d="M80,235.9h-3.5v-16H80V235.9z"/>
	<path class="st0" d="M87.6,236.1c-1.7,0-3.1-0.5-4.2-1.5c-1.1-1-1.6-2.4-1.6-4v-0.3c0-1.2,0.2-2.2,0.6-3.1c0.4-0.9,1.1-1.6,1.9-2
		c0.8-0.5,1.8-0.7,2.9-0.7c1.6,0,2.8,0.5,3.8,1.5c0.9,1,1.4,2.4,1.4,4.1v1.4h-7c0.1,0.6,0.4,1.1,0.8,1.5s1,0.5,1.6,0.5
		c1.1,0,2-0.4,2.6-1.2l1.6,1.9c-0.4,0.6-1.1,1.1-1.9,1.4C89.4,236,88.6,236.1,87.6,236.1z M87.2,227.2c-1,0-1.6,0.7-1.8,2h3.5v-0.3
		c0-0.6-0.1-1-0.4-1.3S87.8,227.2,87.2,227.2z"/>
	<path class="st0" d="M100.7,230.7h-6.3V228h6.3V230.7z"/>
	<path class="st0" d="M113.9,230.4c0,1.8-0.4,3.3-1.1,4.3c-0.8,1-1.8,1.5-3.2,1.5c-1.1,0-2.1-0.5-2.8-1.4l-0.1,1.2h-3.1v-16h3.5v5.6
		c0.7-0.7,1.5-1.1,2.5-1.1c1.4,0,2.5,0.5,3.3,1.5c0.8,1,1.1,2.4,1.1,4.3V230.4z M110.3,230.2c0-1.1-0.1-1.9-0.4-2.3
		s-0.7-0.7-1.3-0.7c-0.8,0-1.3,0.3-1.6,0.9v4.5c0.3,0.6,0.9,0.9,1.7,0.9c0.8,0,1.4-0.4,1.6-1.2C110.3,231.8,110.3,231.1,110.3,230.2
		z"/>
	<path class="st0" d="M122.1,234.7c-0.7,1-1.7,1.4-3,1.4c-1.2,0-2.2-0.4-2.8-1.1s-1-1.8-1-3.1v-7.3h3.5v7.3c0,1,0.5,1.4,1.4,1.4
		c0.8,0,1.4-0.3,1.7-0.9v-7.9h3.5v11.3h-3.3L122.1,234.7z"/>
	<path class="st0" d="M134.3,227.8l-1.2-0.1c-1.1,0-1.8,0.3-2.1,1v7.1h-3.5v-11.3h3.3l0.1,1.4c0.6-1.1,1.4-1.7,2.5-1.7
		c0.4,0,0.7,0,1,0.1L134.3,227.8z"/>
	<path class="st0" d="M141,236.1c-1.7,0-3.1-0.5-4.2-1.5c-1.1-1-1.6-2.4-1.6-4v-0.3c0-1.2,0.2-2.2,0.6-3.1c0.4-0.9,1.1-1.6,1.9-2
		c0.8-0.5,1.8-0.7,2.9-0.7c1.6,0,2.8,0.5,3.8,1.5c0.9,1,1.4,2.4,1.4,4.1v1.4h-7c0.1,0.6,0.4,1.1,0.8,1.5s1,0.5,1.6,0.5
		c1.1,0,2-0.4,2.6-1.2l1.6,1.9c-0.4,0.6-1.1,1.1-1.9,1.4C142.8,236,141.9,236.1,141,236.1z M140.6,227.2c-1,0-1.6,0.7-1.8,2h3.5
		v-0.3c0-0.6-0.1-1-0.4-1.3S141.1,227.2,140.6,227.2z"/>
	<path class="st0" d="M153.5,235.9c-0.1-0.2-0.2-0.6-0.3-1c-0.6,0.8-1.5,1.2-2.7,1.2c-1.1,0-2-0.3-2.7-1s-1.1-1.5-1.1-2.4
		c0-1.2,0.5-2.1,1.4-2.8c0.9-0.6,2.2-0.9,3.9-0.9h1.1v-0.6c0-1-0.4-1.6-1.3-1.6c-0.8,0-1.3,0.4-1.3,1.2h-3.5c0-1.1,0.5-2,1.4-2.7
		c0.9-0.7,2.1-1,3.5-1s2.6,0.4,3.4,1.1c0.8,0.7,1.3,1.7,1.3,2.9v5c0,1,0.2,1.8,0.5,2.4v0.2H153.5z M151.3,233.6
		c0.4,0,0.8-0.1,1.1-0.3s0.5-0.4,0.6-0.6v-1.8h-1c-1.2,0-1.8,0.5-1.8,1.6c0,0.3,0.1,0.6,0.3,0.8C150.7,233.5,151,233.6,151.3,233.6z
		"/>
	<path class="st0" d="M165.2,234.7c-0.7,1-1.7,1.4-3,1.4c-1.2,0-2.2-0.4-2.8-1.1s-1-1.8-1-3.1v-7.3h3.5v7.3c0,1,0.5,1.4,1.4,1.4
		c0.8,0,1.4-0.3,1.7-0.9v-7.9h3.5v11.3h-3.3L165.2,234.7z"/>
	<path class="st0" d="M179.2,224.7l0.1,1.3c0.8-1,1.9-1.5,3.2-1.5c1.4,0,2.4,0.6,2.9,1.7c0.8-1.1,1.9-1.7,3.3-1.7
		c2.3,0,3.5,1.4,3.5,4.1v7.3h-3.5v-7.1c0-0.6-0.1-1-0.3-1.3s-0.5-0.4-1.1-0.4c-0.7,0-1.2,0.3-1.6,0.9l0,0.1v7.7h-3.5v-7.1
		c0-0.6-0.1-1-0.3-1.3s-0.5-0.4-1.1-0.4c-0.7,0-1.2,0.3-1.5,0.9v7.8h-3.5v-11.3H179.2z"/>
	<path class="st0" d="M193.8,230.2c0-1.1,0.2-2.1,0.7-3s1.1-1.6,1.9-2c0.8-0.5,1.8-0.7,2.9-0.7c1.7,0,3,0.5,4,1.6
		c1,1,1.5,2.5,1.5,4.3v0.1c0,1.8-0.5,3.2-1.5,4.2c-1,1-2.3,1.5-4,1.5c-1.6,0-2.9-0.5-3.9-1.4s-1.5-2.3-1.6-3.9L193.8,230.2z
		 M197.3,230.4c0,1,0.2,1.8,0.5,2.3c0.3,0.5,0.8,0.7,1.4,0.7c1.3,0,1.9-1,1.9-2.9v-0.4c0-2-0.6-3-1.9-3c-1.2,0-1.8,0.9-1.9,2.6
		L197.3,230.4z"/>
	<path class="st0" d="M209.4,224.7l0.1,1.3c0.8-1,1.9-1.5,3.2-1.5c1.2,0,2.1,0.4,2.6,1.1c0.6,0.7,0.9,1.8,0.9,3.2v7.3h-3.5v-7.1
		c0-0.6-0.1-1-0.3-1.3s-0.6-0.4-1.3-0.4c-0.7,0-1.2,0.3-1.5,0.8v8h-3.5v-11.3H209.4z"/>
	<path class="st0" d="M222.3,221.9v2.8h1.9v2.4h-1.9v5.2c0,0.4,0.1,0.7,0.2,0.9c0.2,0.2,0.5,0.2,0.9,0.2c0.3,0,0.6,0,0.9-0.1v2.5
		c-0.6,0.2-1.3,0.3-2,0.3c-1.2,0-2.1-0.3-2.7-0.9c-0.6-0.6-0.9-1.4-0.9-2.6v-5.6h-1.4v-2.4h1.4v-2.8H222.3z"/>
	<path class="st0" d="M229,225.9c0.8-0.9,1.7-1.4,2.9-1.4c1.2,0,2.2,0.4,2.8,1.1c0.6,0.7,1,1.8,1,3.3v7.1h-3.5v-7
		c0-0.6-0.1-1-0.4-1.3c-0.2-0.3-0.7-0.4-1.2-0.4c-0.7,0-1.2,0.2-1.5,0.7v8.1h-3.5v-16h3.5V225.9z"/>
	<path class="st0" d="M241.3,235.9h-3.5v-16h3.5V235.9z"/>
	<path class="st0" d="M248,231l1.9-6.4h3.8l-4.6,13.2l-0.2,0.5c-0.7,1.5-1.8,2.2-3.5,2.2c-0.5,0-0.9-0.1-1.4-0.2v-2.5h0.5
		c0.5,0,0.9-0.1,1.1-0.2c0.3-0.1,0.5-0.4,0.6-0.8l0.3-0.8l-3.9-11.4h3.8L248,231z"/>
	<path class="st1" d="M31.5,262.1c0.5,0,0.9-0.1,1.1-0.4c0.3-0.3,0.4-0.6,0.4-1.1h3.3c0,1.2-0.4,2.3-1.3,3s-2,1.2-3.4,1.2
		c-1.6,0-2.9-0.5-3.9-1.5c-0.9-1-1.4-2.5-1.4-4.3v-0.1c0-1.1,0.2-2.1,0.6-3c0.4-0.9,1-1.5,1.8-2c0.8-0.5,1.7-0.7,2.8-0.7
		c1.5,0,2.6,0.4,3.5,1.2s1.3,1.9,1.3,3.3h-3.3c0-0.6-0.1-1-0.4-1.3c-0.3-0.3-0.7-0.5-1.1-0.5c-0.9,0-1.4,0.6-1.6,1.7
		c0,0.4-0.1,0.9-0.1,1.5c0,1.1,0.1,1.9,0.4,2.4C30.5,261.9,31,262.1,31.5,262.1z"/>
	<path class="st1" d="M44.7,256.5l-1.2-0.1c-1.1,0-1.8,0.3-2.1,1v7.1h-3.5v-11.3h3.3l0.1,1.4c0.6-1.1,1.4-1.7,2.5-1.7
		c0.4,0,0.7,0,1,0.1L44.7,256.5z"/>
	<path class="st1" d="M51.4,264.8c-1.7,0-3.1-0.5-4.2-1.5c-1.1-1-1.6-2.4-1.6-4v-0.3c0-1.2,0.2-2.2,0.6-3.1c0.4-0.9,1.1-1.6,1.9-2
		c0.8-0.5,1.8-0.7,2.9-0.7c1.6,0,2.8,0.5,3.8,1.5s1.4,2.4,1.4,4.1v1.4h-7c0.1,0.6,0.4,1.1,0.8,1.5s1,0.5,1.6,0.5
		c1.1,0,2-0.4,2.6-1.2l1.6,1.9c-0.4,0.6-1.1,1.1-1.9,1.4S52.3,264.8,51.4,264.8z M51,255.8c-1,0-1.6,0.7-1.8,2h3.5v-0.3
		c0-0.6-0.1-1-0.4-1.3C52,256,51.6,255.8,51,255.8z"/>
	<path class="st1" d="M57.1,258.9c0-1.8,0.4-3.2,1.2-4.2c0.8-1,1.8-1.5,3.2-1.5c1,0,1.9,0.4,2.5,1.2v-5.7h3.5v16h-3.2l-0.2-1.2
		c-0.7,0.9-1.6,1.4-2.8,1.4c-1.3,0-2.4-0.5-3.2-1.5S57.1,260.7,57.1,258.9z M60.6,259.1c0,2,0.6,3,1.8,3c0.8,0,1.3-0.3,1.7-1v-4.3
		c-0.3-0.7-0.9-1-1.6-1c-1.1,0-1.7,0.9-1.8,2.6L60.6,259.1z"/>
	<path class="st1" d="M69.6,250.4c0-0.5,0.2-0.9,0.5-1.2c0.4-0.3,0.8-0.5,1.4-0.5c0.6,0,1,0.2,1.4,0.5c0.4,0.3,0.5,0.7,0.5,1.2
		c0,0.5-0.2,0.9-0.5,1.2c-0.4,0.3-0.8,0.5-1.4,0.5c-0.6,0-1-0.2-1.4-0.5C69.7,251.3,69.6,250.9,69.6,250.4z M73.3,264.6h-3.5v-11.3
		h3.5V264.6z"/>
	<path class="st1" d="M79.5,250.5v2.8h1.9v2.4h-1.9v5.2c0,0.4,0.1,0.7,0.2,0.9c0.2,0.2,0.5,0.2,0.9,0.2c0.3,0,0.6,0,0.9-0.1v2.5
		c-0.6,0.2-1.3,0.3-2,0.3c-1.2,0-2.1-0.3-2.7-0.9c-0.6-0.6-0.9-1.4-0.9-2.6v-5.6h-1.4v-2.4H76v-2.8H79.5z"/>
	<path class="st1" d="M94.9,256.5l-1.2-0.1c-1.1,0-1.8,0.3-2.1,1v7.1h-3.5v-11.3h3.3l0.1,1.4c0.6-1.1,1.4-1.7,2.5-1.7
		c0.4,0,0.7,0,1,0.1L94.9,256.5z"/>
	<path class="st1" d="M101.6,264.8c-1.7,0-3.1-0.5-4.2-1.5c-1.1-1-1.6-2.4-1.6-4v-0.3c0-1.2,0.2-2.2,0.6-3.1c0.4-0.9,1.1-1.6,1.9-2
		c0.8-0.5,1.8-0.7,2.9-0.7c1.6,0,2.8,0.5,3.8,1.5s1.4,2.4,1.4,4.1v1.4h-7c0.1,0.6,0.4,1.1,0.8,1.5s1,0.5,1.6,0.5
		c1.1,0,2-0.4,2.6-1.2l1.6,1.9c-0.4,0.6-1.1,1.1-1.9,1.4S102.6,264.8,101.6,264.8z M101.2,255.8c-1,0-1.6,0.7-1.8,2h3.5v-0.3
		c0-0.6-0.1-1-0.4-1.3C102.2,256,101.8,255.8,101.2,255.8z"/>
	<path class="st1" d="M118.3,259c0,1.8-0.4,3.1-1.2,4.2c-0.8,1-1.9,1.6-3.2,1.6c-1,0-1.9-0.4-2.6-1.1v5.3h-3.5v-15.6h3.3l0.1,1
		c0.7-0.8,1.6-1.3,2.7-1.3c1.4,0,2.5,0.5,3.2,1.5c0.8,1,1.2,2.4,1.2,4.2V259z M114.8,258.8c0-2-0.6-3-1.8-3c-0.8,0-1.4,0.3-1.7,0.9
		v4.4c0.3,0.6,0.9,0.9,1.7,0.9c1.1,0,1.7-1,1.7-2.9V258.8z"/>
	<path class="st1" d="M119.4,258.8c0-1.1,0.2-2.1,0.7-3s1.1-1.6,1.9-2c0.8-0.5,1.8-0.7,2.9-0.7c1.7,0,3,0.5,4,1.6s1.5,2.5,1.5,4.3
		v0.1c0,1.8-0.5,3.2-1.5,4.2c-1,1-2.3,1.5-4,1.5c-1.6,0-2.9-0.5-3.9-1.4c-1-1-1.5-2.3-1.6-3.9L119.4,258.8z M122.9,259.1
		c0,1,0.2,1.8,0.5,2.3c0.3,0.5,0.8,0.7,1.4,0.7c1.3,0,1.9-1,1.9-2.9v-0.4c0-2-0.6-3-1.9-3c-1.2,0-1.8,0.9-1.9,2.6L122.9,259.1z"/>
	<path class="st1" d="M138.6,256.5l-1.2-0.1c-1.1,0-1.8,0.3-2.1,1v7.1h-3.5v-11.3h3.3l0.1,1.4c0.6-1.1,1.4-1.7,2.5-1.7
		c0.4,0,0.7,0,1,0.1L138.6,256.5z"/>
	<path class="st1" d="M144.5,250.5v2.8h1.9v2.4h-1.9v5.2c0,0.4,0.1,0.7,0.2,0.9c0.2,0.2,0.5,0.2,0.9,0.2c0.3,0,0.6,0,0.9-0.1v2.5
		c-0.6,0.2-1.3,0.3-2,0.3c-1.2,0-2.1-0.3-2.7-0.9c-0.6-0.6-0.9-1.4-0.9-2.6v-5.6h-1.4v-2.4h1.4v-2.8H144.5z"/>
	<path class="st1" d="M153.6,261.4c0-0.3-0.2-0.5-0.5-0.7c-0.3-0.2-0.9-0.4-1.8-0.6c-0.9-0.2-1.6-0.4-2.2-0.8s-1-0.7-1.3-1.2
		c-0.3-0.5-0.4-1-0.4-1.6c0-1,0.4-1.9,1.3-2.6c0.9-0.7,2-1,3.4-1c1.5,0,2.7,0.3,3.6,1s1.4,1.6,1.4,2.7h-3.5c0-0.9-0.5-1.4-1.4-1.4
		c-0.4,0-0.7,0.1-0.9,0.3s-0.4,0.5-0.4,0.8c0,0.3,0.2,0.6,0.5,0.8s0.8,0.4,1.5,0.5c0.7,0.1,1.3,0.3,1.8,0.4c1.7,0.6,2.5,1.6,2.5,3.1
		c0,1-0.5,1.9-1.4,2.5c-0.9,0.6-2.1,1-3.5,1c-1,0-1.8-0.2-2.6-0.5c-0.8-0.3-1.3-0.8-1.8-1.4c-0.4-0.6-0.6-1.2-0.6-1.9h3.3
		c0,0.5,0.2,0.9,0.5,1.1c0.3,0.2,0.8,0.4,1.3,0.4c0.5,0,0.8-0.1,1.1-0.3C153.5,262,153.6,261.7,153.6,261.4z"/>
	<path class="st1" d="M170.3,264.6c-0.1-0.2-0.2-0.6-0.3-1c-0.6,0.8-1.5,1.2-2.7,1.2c-1.1,0-2-0.3-2.7-1s-1.1-1.5-1.1-2.4
		c0-1.2,0.5-2.1,1.4-2.8c0.9-0.6,2.2-0.9,3.9-0.9h1.1v-0.6c0-1-0.4-1.6-1.3-1.6c-0.8,0-1.3,0.4-1.3,1.2h-3.5c0-1.1,0.5-2,1.4-2.7
		c0.9-0.7,2.1-1,3.5-1s2.6,0.4,3.4,1.1c0.8,0.7,1.3,1.7,1.3,2.9v5c0,1,0.2,1.8,0.5,2.4v0.2H170.3z M168.1,262.3
		c0.4,0,0.8-0.1,1.1-0.3s0.5-0.4,0.6-0.6v-1.8h-1c-1.2,0-1.8,0.5-1.8,1.6c0,0.3,0.1,0.6,0.3,0.8S167.8,262.3,168.1,262.3z"/>
	<path class="st1" d="M178.5,253.3l0.1,1.3c0.8-1,1.9-1.5,3.2-1.5c1.2,0,2.1,0.4,2.6,1.1c0.6,0.7,0.9,1.8,0.9,3.2v7.3h-3.5v-7.1
		c0-0.6-0.1-1-0.3-1.3c-0.2-0.3-0.6-0.4-1.3-0.4c-0.7,0-1.2,0.3-1.5,0.8v8h-3.5v-11.3H178.5z"/>
	<path class="st1" d="M186.9,258.9c0-1.8,0.4-3.2,1.2-4.2c0.8-1,1.8-1.5,3.2-1.5c1,0,1.9,0.4,2.5,1.2v-5.7h3.5v16h-3.2l-0.2-1.2
		c-0.7,0.9-1.6,1.4-2.8,1.4c-1.3,0-2.4-0.5-3.2-1.5S186.9,260.7,186.9,258.9z M190.4,259.1c0,2,0.6,3,1.8,3c0.8,0,1.3-0.3,1.7-1
		v-4.3c-0.3-0.7-0.9-1-1.6-1c-1.1,0-1.7,0.9-1.8,2.6L190.4,259.1z"/>
	<path class="st1" d="M210.6,261.4c0-0.3-0.2-0.5-0.5-0.7c-0.3-0.2-0.9-0.4-1.8-0.6c-0.9-0.2-1.6-0.4-2.2-0.8s-1-0.7-1.3-1.2
		c-0.3-0.5-0.4-1-0.4-1.6c0-1,0.4-1.9,1.3-2.6c0.9-0.7,2-1,3.4-1c1.5,0,2.7,0.3,3.6,1s1.4,1.6,1.4,2.7h-3.5c0-0.9-0.5-1.4-1.4-1.4
		c-0.4,0-0.7,0.1-0.9,0.3s-0.4,0.5-0.4,0.8c0,0.3,0.2,0.6,0.5,0.8s0.8,0.4,1.5,0.5c0.7,0.1,1.3,0.3,1.8,0.4c1.7,0.6,2.5,1.6,2.5,3.1
		c0,1-0.5,1.9-1.4,2.5c-0.9,0.6-2.1,1-3.5,1c-1,0-1.8-0.2-2.6-0.5c-0.8-0.3-1.3-0.8-1.8-1.4c-0.4-0.6-0.6-1.2-0.6-1.9h3.3
		c0,0.5,0.2,0.9,0.5,1.1c0.3,0.2,0.8,0.4,1.3,0.4c0.5,0,0.8-0.1,1.1-0.3C210.5,262,210.6,261.7,210.6,261.4z"/>
	<path class="st1" d="M220.4,262.1c0.5,0,0.9-0.1,1.1-0.4c0.3-0.3,0.4-0.6,0.4-1.1h3.3c0,1.2-0.4,2.3-1.3,3s-2,1.2-3.4,1.2
		c-1.6,0-2.9-0.5-3.9-1.5c-0.9-1-1.4-2.5-1.4-4.3v-0.1c0-1.1,0.2-2.1,0.6-3c0.4-0.9,1-1.5,1.8-2c0.8-0.5,1.7-0.7,2.8-0.7
		c1.5,0,2.6,0.4,3.5,1.2s1.3,1.9,1.3,3.3h-3.3c0-0.6-0.1-1-0.4-1.3c-0.3-0.3-0.7-0.5-1.1-0.5c-0.9,0-1.4,0.6-1.6,1.7
		c0,0.4-0.1,0.9-0.1,1.5c0,1.1,0.1,1.9,0.4,2.4C219.3,261.9,219.8,262.1,220.4,262.1z"/>
	<path class="st1" d="M226.2,258.8c0-1.1,0.2-2.1,0.7-3s1.1-1.6,1.9-2c0.8-0.5,1.8-0.7,2.9-0.7c1.7,0,3,0.5,4,1.6s1.5,2.5,1.5,4.3
		v0.1c0,1.8-0.5,3.2-1.5,4.2c-1,1-2.3,1.5-4,1.5c-1.6,0-2.9-0.5-3.9-1.4c-1-1-1.5-2.3-1.6-3.9L226.2,258.8z M229.8,259.1
		c0,1,0.2,1.8,0.5,2.3c0.3,0.5,0.8,0.7,1.4,0.7c1.3,0,1.9-1,1.9-2.9v-0.4c0-2-0.6-3-1.9-3c-1.2,0-1.8,0.9-1.9,2.6L229.8,259.1z"/>
	<path class="st1" d="M245.5,256.5l-1.2-0.1c-1.1,0-1.8,0.3-2.1,1v7.1h-3.5v-11.3h3.3l0.1,1.4c0.6-1.1,1.4-1.7,2.5-1.7
		c0.4,0,0.7,0,1,0.1L245.5,256.5z"/>
	<path class="st1" d="M252.2,264.8c-1.7,0-3.1-0.5-4.2-1.5c-1.1-1-1.6-2.4-1.6-4v-0.3c0-1.2,0.2-2.2,0.6-3.1c0.4-0.9,1.1-1.6,1.9-2
		c0.8-0.5,1.8-0.7,2.9-0.7c1.6,0,2.8,0.5,3.8,1.5s1.4,2.4,1.4,4.1v1.4h-7c0.1,0.6,0.4,1.1,0.8,1.5s1,0.5,1.6,0.5
		c1.1,0,2-0.4,2.6-1.2l1.6,1.9c-0.4,0.6-1.1,1.1-1.9,1.4S253.1,264.8,252.2,264.8z M251.8,255.8c-1,0-1.6,0.7-1.8,2h3.5v-0.3
		c0-0.6-0.1-1-0.4-1.3C252.8,256,252.4,255.8,251.8,255.8z"/>
	<path class="st1" d="M264.3,261.4c0-0.3-0.2-0.5-0.5-0.7c-0.3-0.2-0.9-0.4-1.8-0.6c-0.9-0.2-1.6-0.4-2.2-0.8s-1-0.7-1.3-1.2
		c-0.3-0.5-0.4-1-0.4-1.6c0-1,0.4-1.9,1.3-2.6c0.9-0.7,2-1,3.4-1c1.5,0,2.7,0.3,3.6,1s1.4,1.6,1.4,2.7h-3.5c0-0.9-0.5-1.4-1.4-1.4
		c-0.4,0-0.7,0.1-0.9,0.3s-0.4,0.5-0.4,0.8c0,0.3,0.2,0.6,0.5,0.8s0.8,0.4,1.5,0.5c0.7,0.1,1.3,0.3,1.8,0.4c1.7,0.6,2.5,1.6,2.5,3.1
		c0,1-0.5,1.9-1.4,2.5c-0.9,0.6-2.1,1-3.5,1c-1,0-1.8-0.2-2.6-0.5c-0.8-0.3-1.3-0.8-1.8-1.4c-0.4-0.6-0.6-1.2-0.6-1.9h3.3
		c0,0.5,0.2,0.9,0.5,1.1c0.3,0.2,0.8,0.4,1.3,0.4c0.5,0,0.8-0.1,1.1-0.3C264.2,262,264.3,261.7,264.3,261.4z"/>
	<path class="st1" d="M270.5,268.7l-1.8-0.8l0.4-0.7c0.5-0.9,0.7-1.8,0.8-2.6v-2.6h2.8l0,2.3c0,0.8-0.2,1.6-0.6,2.4
		C271.7,267.5,271.2,268.1,270.5,268.7z"/>
	<path class="st0" d="M79.6,291.8c-0.1-0.2-0.2-0.6-0.3-1c-0.6,0.8-1.5,1.2-2.7,1.2c-1.1,0-2-0.3-2.7-1s-1.1-1.5-1.1-2.4
		c0-1.2,0.5-2.1,1.4-2.8c0.9-0.6,2.2-0.9,3.9-0.9h1.1v-0.6c0-1-0.4-1.6-1.3-1.6c-0.8,0-1.3,0.4-1.3,1.2H73c0-1.1,0.5-2,1.4-2.7
		c0.9-0.7,2.1-1,3.5-1s2.6,0.4,3.4,1.1c0.8,0.7,1.3,1.7,1.3,2.9v5c0,1,0.2,1.8,0.5,2.4v0.2H79.6z M77.4,289.5c0.4,0,0.8-0.1,1.1-0.3
		s0.5-0.4,0.6-0.6v-1.8h-1c-1.2,0-1.8,0.5-1.8,1.6c0,0.3,0.1,0.6,0.3,0.8S77.1,289.5,77.4,289.5z"/>
	<path class="st0" d="M88.3,291.8h-3.5v-16h3.5V291.8z"/>
	<path class="st0" d="M94.2,291.8h-3.5v-16h3.5V291.8z"/>
	<path class="st0" d="M101.6,277.7c0-0.5,0.2-0.9,0.5-1.2c0.4-0.3,0.8-0.5,1.4-0.5c0.6,0,1,0.2,1.4,0.5c0.4,0.3,0.5,0.7,0.5,1.2
		s-0.2,0.9-0.5,1.2s-0.8,0.5-1.4,0.5c-0.6,0-1-0.2-1.4-0.5S101.6,278.2,101.6,277.7z M105.3,291.8h-3.5v-11.3h3.5V291.8z"/>
	<path class="st0" d="M110.7,280.6l0.1,1.3c0.8-1,1.9-1.5,3.2-1.5c1.2,0,2.1,0.4,2.6,1.1c0.6,0.7,0.9,1.8,0.9,3.2v7.3h-3.5v-7.1
		c0-0.6-0.1-1-0.3-1.3c-0.2-0.3-0.6-0.4-1.3-0.4c-0.7,0-1.2,0.3-1.5,0.8v8h-3.5v-11.3H110.7z"/>
	<path class="st0" d="M124.4,286.1c0-1.1,0.2-2.1,0.7-3s1.1-1.6,1.9-2c0.8-0.5,1.8-0.7,2.9-0.7c1.7,0,3,0.5,4,1.6s1.5,2.5,1.5,4.3
		v0.1c0,1.8-0.5,3.2-1.5,4.2c-1,1-2.3,1.5-4,1.5c-1.6,0-2.9-0.5-3.9-1.4c-1-1-1.5-2.3-1.6-3.9L124.4,286.1z M127.9,286.3
		c0,1,0.2,1.8,0.5,2.3c0.3,0.5,0.8,0.7,1.4,0.7c1.3,0,1.9-1,1.9-2.9v-0.4c0-2-0.6-3-1.9-3c-1.2,0-1.8,0.9-1.9,2.6L127.9,286.3z"/>
	<path class="st0" d="M140.1,280.6l0.1,1.3c0.8-1,1.9-1.5,3.2-1.5c1.2,0,2.1,0.4,2.6,1.1c0.6,0.7,0.9,1.8,0.9,3.2v7.3h-3.5v-7.1
		c0-0.6-0.1-1-0.3-1.3c-0.2-0.3-0.6-0.4-1.3-0.4c-0.7,0-1.2,0.3-1.5,0.8v8h-3.5v-11.3H140.1z"/>
	<path class="st0" d="M154.3,292c-1.7,0-3.1-0.5-4.2-1.5c-1.1-1-1.6-2.4-1.6-4v-0.3c0-1.2,0.2-2.2,0.6-3.1c0.4-0.9,1.1-1.6,1.9-2
		c0.8-0.5,1.8-0.7,2.9-0.7c1.6,0,2.8,0.5,3.8,1.5s1.4,2.4,1.4,4.1v1.4h-7c0.1,0.6,0.4,1.1,0.8,1.5s1,0.5,1.6,0.5
		c1.1,0,2-0.4,2.6-1.2l1.6,1.9c-0.4,0.6-1.1,1.1-1.9,1.4S155.2,292,154.3,292z M153.9,283.1c-1,0-1.6,0.7-1.8,2h3.5v-0.3
		c0-0.6-0.1-1-0.4-1.3C154.9,283.2,154.5,283.1,153.9,283.1z"/>
	<path class="st0" d="M176.3,286.3c0,1.8-0.4,3.1-1.2,4.2c-0.8,1-1.9,1.6-3.2,1.6c-1,0-1.9-0.4-2.6-1.1v5.3h-3.5v-15.6h3.3l0.1,1
		c0.7-0.8,1.6-1.2,2.7-1.2c1.4,0,2.5,0.5,3.2,1.5c0.8,1,1.2,2.4,1.2,4.2V286.3z M172.8,286.1c0-2-0.6-3-1.8-3
		c-0.8,0-1.4,0.3-1.7,0.9v4.4c0.3,0.6,0.9,0.9,1.7,0.9c1.1,0,1.7-1,1.7-2.9V286.1z"/>
	<path class="st0" d="M181.5,291.8H178v-16h3.5V291.8z"/>
	<path class="st0" d="M190,291.8c-0.1-0.2-0.2-0.6-0.3-1c-0.6,0.8-1.5,1.2-2.7,1.2c-1.1,0-2-0.3-2.7-1s-1.1-1.5-1.1-2.4
		c0-1.2,0.5-2.1,1.4-2.8c0.9-0.6,2.2-0.9,3.9-0.9h1.1v-0.6c0-1-0.4-1.6-1.3-1.6c-0.8,0-1.3,0.4-1.3,1.2h-3.5c0-1.1,0.5-2,1.4-2.7
		c0.9-0.7,2.1-1,3.5-1s2.6,0.4,3.4,1.1c0.8,0.7,1.3,1.7,1.3,2.9v5c0,1,0.2,1.8,0.5,2.4v0.2H190z M187.8,289.5c0.4,0,0.8-0.1,1.1-0.3
		s0.5-0.4,0.6-0.6v-1.8h-1c-1.2,0-1.8,0.5-1.8,1.6c0,0.3,0.1,0.6,0.3,0.8S187.5,289.5,187.8,289.5z"/>
	<path class="st0" d="M199.8,289.3c0.5,0,0.9-0.1,1.1-0.4c0.3-0.3,0.4-0.6,0.4-1.1h3.3c0,1.2-0.4,2.3-1.3,3s-2,1.2-3.4,1.2
		c-1.6,0-2.9-0.5-3.9-1.5c-0.9-1-1.4-2.5-1.4-4.3v-0.1c0-1.1,0.2-2.1,0.6-3c0.4-0.9,1-1.5,1.8-2s1.7-0.7,2.8-0.7
		c1.5,0,2.6,0.4,3.5,1.2c0.9,0.8,1.3,1.9,1.3,3.3h-3.3c0-0.6-0.1-1-0.4-1.3c-0.3-0.3-0.7-0.5-1.1-0.5c-0.9,0-1.4,0.6-1.6,1.7
		c0,0.4-0.1,0.9-0.1,1.5c0,1.1,0.1,1.9,0.4,2.4C198.8,289.1,199.2,289.3,199.8,289.3z"/>
	<path class="st0" d="M211.6,292c-1.7,0-3.1-0.5-4.2-1.5c-1.1-1-1.6-2.4-1.6-4v-0.3c0-1.2,0.2-2.2,0.6-3.1c0.4-0.9,1.1-1.6,1.9-2
		c0.8-0.5,1.8-0.7,2.9-0.7c1.6,0,2.8,0.5,3.8,1.5s1.4,2.4,1.4,4.1v1.4h-7c0.1,0.6,0.4,1.1,0.8,1.5s1,0.5,1.6,0.5
		c1.1,0,2-0.4,2.6-1.2l1.6,1.9c-0.4,0.6-1.1,1.1-1.9,1.4S212.5,292,211.6,292z M211.2,283.1c-1,0-1.6,0.7-1.8,2h3.5v-0.3
		c0-0.6-0.1-1-0.4-1.3C212.1,283.2,211.7,283.1,211.2,283.1z"/>
	<path class="st0" d="M220.3,287c0-1,0.1-1.8,0.3-2.4c0.2-0.6,0.6-1.1,1.1-1.5c0.5-0.4,0.9-0.8,1.2-1.2c0.3-0.4,0.4-0.8,0.4-1.2
		c0-1-0.5-1.6-1.4-1.6c-0.4,0-0.8,0.2-1,0.5s-0.4,0.7-0.4,1.2h-3.5c0-1.4,0.5-2.5,1.3-3.2c0.9-0.8,2.1-1.2,3.6-1.2
		c1.5,0,2.8,0.4,3.6,1.1c0.9,0.7,1.3,1.7,1.3,3.1c0,0.6-0.1,1.1-0.3,1.6c-0.2,0.5-0.6,1-1.1,1.4l-1.2,1.1c-0.3,0.3-0.6,0.7-0.7,1
		s-0.2,0.8-0.2,1.3H220.3z M219.9,290.2c0-0.5,0.2-0.9,0.6-1.3c0.4-0.3,0.8-0.5,1.4-0.5s1,0.2,1.4,0.5c0.4,0.3,0.6,0.8,0.6,1.3
		c0,0.5-0.2,0.9-0.6,1.3c-0.4,0.3-0.8,0.5-1.4,0.5s-1-0.2-1.4-0.5C220.1,291.1,219.9,290.7,219.9,290.2z"/>
</g>
</svg>
