<?xml version="1.0" encoding="utf-8"?>
<!-- Generator: Adobe Illustrator 26.0.3, SVG Export Plug-In . SVG Version: 6.00 Build 0)  -->
<svg version="1.1" id="Layer_1" xmlns="http://www.w3.org/2000/svg" xmlns:xlink="http://www.w3.org/1999/xlink" x="0px" y="0px"
	 viewBox="0 0 300 600" style="enable-background:new 0 0 300 600;" xml:space="preserve">
<style type="text/css">
	.st0{fill:#FFFFFF;}
</style>
<g>
	<path class="st0" d="M67.4,271.6c0-0.4-0.1-0.7-0.3-0.9c-0.2-0.2-0.6-0.4-1.1-0.6c-0.5-0.2-0.9-0.4-1.3-0.6s-0.7-0.4-0.9-0.6
		s-0.5-0.5-0.6-0.8c-0.1-0.3-0.2-0.7-0.2-1.2c0-0.8,0.2-1.4,0.7-1.9s1.2-0.8,2-0.9v-1.5h1.1v1.5c0.8,0.1,1.4,0.5,1.9,1
		c0.5,0.6,0.7,1.3,0.7,2.2h-2c0-0.5-0.1-1-0.3-1.2c-0.2-0.3-0.5-0.4-0.9-0.4c-0.4,0-0.7,0.1-0.9,0.3c-0.2,0.2-0.3,0.5-0.3,0.9
		c0,0.3,0.1,0.6,0.3,0.8c0.2,0.2,0.6,0.4,1.1,0.6c0.5,0.2,1,0.4,1.4,0.6s0.7,0.4,0.9,0.7c0.2,0.2,0.4,0.5,0.6,0.8
		c0.1,0.3,0.2,0.7,0.2,1.1c0,0.8-0.2,1.4-0.7,1.9c-0.5,0.5-1.2,0.8-2,0.9v1.4h-1.1v-1.4c-0.9-0.1-1.7-0.4-2.2-1s-0.8-1.3-0.8-2.3h2
		c0,0.5,0.1,1,0.4,1.3c0.3,0.3,0.6,0.4,1.1,0.4c0.4,0,0.7-0.1,1-0.3C67.3,272.3,67.4,272,67.4,271.6z"/>
	<path class="st0" d="M75.6,274.2h-2v-7.7l-2.4,0.7v-1.6l4.1-1.5h0.2V274.2z"/>
	<path class="st0" d="M84.3,265v1.8h1.4v1h-1.4v4.6c0,0.3,0.1,0.5,0.2,0.7c0.1,0.1,0.3,0.2,0.6,0.2c0.1,0,0.3,0,0.6-0.1v1
		c-0.3,0.1-0.7,0.1-1,0.1c-0.6,0-1-0.2-1.3-0.5c-0.3-0.3-0.4-0.8-0.4-1.5v-4.6h-1.4v-1h1.4V265H84.3z"/>
	<path class="st0" d="M90.8,267.9c-0.2,0-0.4,0-0.6,0c-0.8,0-1.4,0.4-1.7,1.1v5.3h-1.3v-7.4h1.2l0,0.9c0.4-0.7,1-1,1.8-1
		c0.2,0,0.4,0,0.6,0.1V267.9z"/>
	<path class="st0" d="M92,264.8c0-0.2,0.1-0.4,0.2-0.5s0.3-0.2,0.6-0.2c0.2,0,0.4,0.1,0.6,0.2s0.2,0.3,0.2,0.5
		c0,0.2-0.1,0.4-0.2,0.5s-0.3,0.2-0.6,0.2c-0.2,0-0.4-0.1-0.6-0.2S92,265,92,264.8z M93.4,274.2h-1.3v-7.4h1.3V274.2z"/>
	<path class="st0" d="M100,274.2c-0.1-0.1-0.1-0.4-0.2-0.8c-0.6,0.6-1.3,0.9-2.1,0.9c-0.7,0-1.3-0.2-1.8-0.6
		c-0.5-0.4-0.7-0.9-0.7-1.6c0-0.8,0.3-1.4,0.9-1.8c0.6-0.4,1.4-0.6,2.5-0.6h1.2v-0.6c0-0.4-0.1-0.8-0.4-1.1
		c-0.3-0.3-0.7-0.4-1.2-0.4c-0.5,0-0.8,0.1-1.1,0.3s-0.5,0.5-0.5,0.8h-1.3c0-0.4,0.1-0.7,0.4-1.1c0.3-0.3,0.6-0.6,1.1-0.8
		s0.9-0.3,1.5-0.3c0.9,0,1.5,0.2,2,0.6c0.5,0.4,0.7,1,0.8,1.8v3.4c0,0.7,0.1,1.2,0.3,1.6v0.1H100z M97.9,273.3
		c0.4,0,0.8-0.1,1.1-0.3c0.4-0.2,0.6-0.5,0.8-0.8v-1.5h-1c-1.6,0-2.3,0.5-2.3,1.4c0,0.4,0.1,0.7,0.4,0.9S97.5,273.3,97.9,273.3z"/>
	<path class="st0" d="M104.4,274.2h-1.3v-10.6h1.3V274.2z"/>
	<path class="st0" d="M110.6,274.2v-6.5h-1.2v-1h1.2V266c0-0.8,0.2-1.4,0.6-1.8c0.4-0.4,1-0.7,1.8-0.7c0.3,0,0.6,0,0.9,0.1l-0.1,1
		c-0.2,0-0.4-0.1-0.7-0.1c-0.4,0-0.7,0.1-1,0.4c-0.2,0.2-0.3,0.6-0.3,1v0.8h1.6v1h-1.6v6.5H110.6z"/>
	<path class="st0" d="M114.5,270.5c0-0.7,0.1-1.4,0.4-2c0.3-0.6,0.7-1,1.2-1.3c0.5-0.3,1.1-0.5,1.8-0.5c1,0,1.8,0.4,2.5,1.1
		c0.6,0.7,0.9,1.6,0.9,2.8v0.1c0,0.7-0.1,1.4-0.4,1.9s-0.7,1-1.2,1.3s-1.1,0.5-1.8,0.5c-1,0-1.8-0.4-2.5-1.1
		C114.8,272.6,114.5,271.7,114.5,270.5L114.5,270.5z M115.8,270.6c0,0.8,0.2,1.5,0.6,2c0.4,0.5,0.9,0.7,1.5,0.7
		c0.6,0,1.2-0.3,1.5-0.8c0.4-0.5,0.6-1.2,0.6-2.1c0-0.8-0.2-1.5-0.6-2c-0.4-0.5-0.9-0.8-1.5-0.8c-0.6,0-1.1,0.2-1.5,0.7
		S115.8,269.7,115.8,270.6z"/>
	<path class="st0" d="M126.5,267.9c-0.2,0-0.4,0-0.6,0c-0.8,0-1.4,0.4-1.7,1.1v5.3h-1.3v-7.4h1.2l0,0.9c0.4-0.7,1-1,1.8-1
		c0.2,0,0.4,0,0.6,0.1V267.9z"/>
	<path class="st0" d="M132.8,265v1.8h1.4v1h-1.4v4.6c0,0.3,0.1,0.5,0.2,0.7c0.1,0.1,0.3,0.2,0.6,0.2c0.1,0,0.3,0,0.6-0.1v1
		c-0.3,0.1-0.7,0.1-1,0.1c-0.6,0-1-0.2-1.3-0.5c-0.3-0.3-0.4-0.8-0.4-1.5v-4.6h-1.4v-1h1.4V265H132.8z"/>
	<path class="st0" d="M137,267.7c0.6-0.7,1.3-1,2.2-1c1.6,0,2.4,0.9,2.4,2.7v4.9h-1.3v-4.9c0-0.5-0.1-0.9-0.4-1.2
		c-0.2-0.3-0.6-0.4-1.1-0.4c-0.4,0-0.8,0.1-1.1,0.3c-0.3,0.2-0.6,0.5-0.7,0.9v5.3h-1.3v-10.6h1.3V267.7z"/>
	<path class="st0" d="M146.6,274.4c-1,0-1.8-0.3-2.5-1c-0.6-0.7-0.9-1.5-0.9-2.7v-0.2c0-0.7,0.1-1.4,0.4-2c0.3-0.6,0.7-1,1.2-1.4
		c0.5-0.3,1.1-0.5,1.6-0.5c1,0,1.7,0.3,2.3,1c0.5,0.6,0.8,1.5,0.8,2.7v0.5h-5c0,0.7,0.2,1.3,0.6,1.8c0.4,0.5,0.9,0.7,1.6,0.7
		c0.4,0,0.8-0.1,1.1-0.3c0.3-0.2,0.6-0.4,0.8-0.7l0.8,0.6C148.7,273.9,147.8,274.4,146.6,274.4z M146.4,267.7
		c-0.5,0-0.9,0.2-1.3,0.6c-0.3,0.4-0.6,0.9-0.6,1.6h3.7v-0.1c0-0.6-0.2-1.1-0.5-1.5C147.4,267.9,146.9,267.7,146.4,267.7z"/>
	<path class="st0" d="M155,274.2v-6.5h-1.2v-1h1.2V266c0-0.8,0.2-1.4,0.6-1.8c0.4-0.4,1-0.7,1.8-0.7c0.3,0,0.6,0,0.9,0.1l-0.1,1
		c-0.2,0-0.4-0.1-0.7-0.1c-0.4,0-0.7,0.1-1,0.4c-0.2,0.2-0.3,0.6-0.3,1v0.8h1.6v1h-1.6v6.5H155z"/>
	<path class="st0" d="M159.3,264.8c0-0.2,0.1-0.4,0.2-0.5s0.3-0.2,0.6-0.2c0.2,0,0.4,0.1,0.6,0.2s0.2,0.3,0.2,0.5
		c0,0.2-0.1,0.4-0.2,0.5s-0.3,0.2-0.6,0.2c-0.2,0-0.4-0.1-0.6-0.2S159.3,265,159.3,264.8z M160.7,274.2h-1.3v-7.4h1.3V274.2z"/>
	<path class="st0" d="M166.3,267.9c-0.2,0-0.4,0-0.6,0c-0.8,0-1.4,0.4-1.7,1.1v5.3h-1.3v-7.4h1.2l0,0.9c0.4-0.7,1-1,1.8-1
		c0.2,0,0.4,0,0.6,0.1V267.9z"/>
	<path class="st0" d="M171.8,272.3c0-0.3-0.1-0.6-0.4-0.8c-0.3-0.2-0.7-0.4-1.4-0.5c-0.6-0.1-1.2-0.3-1.5-0.5s-0.7-0.4-0.8-0.7
		c-0.2-0.3-0.3-0.6-0.3-0.9c0-0.6,0.3-1.1,0.8-1.5c0.5-0.4,1.2-0.6,2-0.6c0.8,0,1.5,0.2,2.1,0.7c0.5,0.4,0.8,1,0.8,1.7h-1.3
		c0-0.3-0.1-0.6-0.4-0.9c-0.3-0.3-0.7-0.4-1.1-0.4c-0.5,0-0.8,0.1-1.1,0.3c-0.3,0.2-0.4,0.5-0.4,0.8c0,0.3,0.1,0.5,0.4,0.7
		c0.2,0.2,0.7,0.3,1.3,0.4s1.1,0.3,1.5,0.5c0.4,0.2,0.7,0.4,0.9,0.7c0.2,0.3,0.3,0.6,0.3,1c0,0.7-0.3,1.2-0.8,1.6
		c-0.5,0.4-1.2,0.6-2.1,0.6c-0.6,0-1.1-0.1-1.6-0.3s-0.8-0.5-1.1-0.9c-0.3-0.4-0.4-0.8-0.4-1.2h1.3c0,0.4,0.2,0.8,0.5,1
		c0.3,0.2,0.7,0.4,1.3,0.4c0.5,0,0.9-0.1,1.2-0.3C171.7,272.9,171.8,272.6,171.8,272.3z"/>
	<path class="st0" d="M176.5,265v1.8h1.4v1h-1.4v4.6c0,0.3,0.1,0.5,0.2,0.7c0.1,0.1,0.3,0.2,0.6,0.2c0.1,0,0.3,0,0.6-0.1v1
		c-0.3,0.1-0.7,0.1-1,0.1c-0.6,0-1-0.2-1.3-0.5c-0.3-0.3-0.4-0.8-0.4-1.5v-4.6h-1.4v-1h1.4V265H176.5z"/>
	<path class="st0" d="M186.9,274.2h-1.3v-8.5l-2.6,0.9v-1.2l3.6-1.4h0.2V274.2z"/>
	<path class="st0" d="M196,270.9h1.4v1H196v2.3h-1.3v-2.3h-4.6v-0.7l4.5-6.9h1.4V270.9z M191.6,270.9h3.1V266l-0.2,0.3L191.6,270.9z
		"/>
	<path class="st0" d="M201.8,270.5c0-1.1,0.3-2.1,0.8-2.8c0.5-0.7,1.2-1,2.1-1c0.9,0,1.6,0.3,2.1,0.9v-3.9h1.3v10.6h-1.2l-0.1-0.8
		c-0.5,0.6-1.2,0.9-2.1,0.9c-0.9,0-1.6-0.4-2.1-1.1C202.1,272.6,201.8,271.7,201.8,270.5L201.8,270.5z M203.1,270.6
		c0,0.8,0.2,1.5,0.5,2s0.8,0.7,1.4,0.7c0.8,0,1.4-0.4,1.8-1.1v-3.4c-0.4-0.7-1-1.1-1.8-1.1c-0.6,0-1.1,0.2-1.5,0.7
		C203.3,269,203.1,269.7,203.1,270.6z"/>
	<path class="st0" d="M214.7,274.2c-0.1-0.1-0.1-0.4-0.2-0.8c-0.6,0.6-1.3,0.9-2.1,0.9c-0.7,0-1.3-0.2-1.8-0.6
		c-0.5-0.4-0.7-0.9-0.7-1.6c0-0.8,0.3-1.4,0.9-1.8c0.6-0.4,1.4-0.6,2.5-0.6h1.2v-0.6c0-0.4-0.1-0.8-0.4-1.1
		c-0.3-0.3-0.7-0.4-1.2-0.4c-0.5,0-0.8,0.1-1.1,0.3s-0.5,0.5-0.5,0.8H210c0-0.4,0.1-0.7,0.4-1.1c0.3-0.3,0.6-0.6,1.1-0.8
		s0.9-0.3,1.5-0.3c0.9,0,1.5,0.2,2,0.6c0.5,0.4,0.7,1,0.8,1.8v3.4c0,0.7,0.1,1.2,0.3,1.6v0.1H214.7z M212.5,273.3
		c0.4,0,0.8-0.1,1.1-0.3c0.4-0.2,0.6-0.5,0.8-0.8v-1.5h-1c-1.6,0-2.3,0.5-2.3,1.4c0,0.4,0.1,0.7,0.4,0.9S212.1,273.3,212.5,273.3z"
		/>
	<path class="st0" d="M220.2,272.4l1.7-5.6h1.4l-3,8.6c-0.5,1.2-1.2,1.9-2.2,1.9l-0.2,0l-0.5-0.1v-1l0.3,0c0.4,0,0.8-0.1,1-0.3
		c0.2-0.2,0.4-0.5,0.6-1l0.3-0.8l-2.7-7.4h1.4L220.2,272.4z"/>
	<path class="st0" d="M228.7,272.3c0-0.3-0.1-0.6-0.4-0.8c-0.3-0.2-0.7-0.4-1.4-0.5c-0.6-0.1-1.2-0.3-1.5-0.5s-0.7-0.4-0.8-0.7
		c-0.2-0.3-0.3-0.6-0.3-0.9c0-0.6,0.3-1.1,0.8-1.5c0.5-0.4,1.2-0.6,2-0.6c0.8,0,1.5,0.2,2.1,0.7c0.5,0.4,0.8,1,0.8,1.7h-1.3
		c0-0.3-0.1-0.6-0.4-0.9c-0.3-0.3-0.7-0.4-1.1-0.4c-0.5,0-0.8,0.1-1.1,0.3c-0.3,0.2-0.4,0.5-0.4,0.8c0,0.3,0.1,0.5,0.4,0.7
		c0.2,0.2,0.7,0.3,1.3,0.4s1.1,0.3,1.5,0.5c0.4,0.2,0.7,0.4,0.9,0.7c0.2,0.3,0.3,0.6,0.3,1c0,0.7-0.3,1.2-0.8,1.6
		c-0.5,0.4-1.2,0.6-2.1,0.6c-0.6,0-1.1-0.1-1.6-0.3s-0.8-0.5-1.1-0.9c-0.3-0.4-0.4-0.8-0.4-1.2h1.3c0,0.4,0.2,0.8,0.5,1
		c0.3,0.2,0.7,0.4,1.3,0.4c0.5,0,0.9-0.1,1.2-0.3C228.6,272.9,228.7,272.6,228.7,272.3z"/>
	<path class="st0" d="M231.7,273.6c0-0.2,0.1-0.4,0.2-0.5c0.1-0.1,0.3-0.2,0.6-0.2c0.3,0,0.5,0.1,0.6,0.2c0.1,0.1,0.2,0.3,0.2,0.5
		c0,0.2-0.1,0.4-0.2,0.5c-0.1,0.1-0.3,0.2-0.6,0.2c-0.3,0-0.5-0.1-0.6-0.2C231.7,274,231.7,273.8,231.7,273.6z"/>
	<path class="st0" d="M24.3,288.3v3.9h-1.3v-10h3.7c1.1,0,2,0.3,2.6,0.8c0.6,0.6,0.9,1.3,0.9,2.2c0,1-0.3,1.7-0.9,2.2
		c-0.6,0.5-1.5,0.8-2.6,0.8H24.3z M24.3,287.2h2.4c0.7,0,1.2-0.2,1.6-0.5s0.6-0.8,0.6-1.4c0-0.6-0.2-1.1-0.6-1.4s-0.9-0.5-1.5-0.6
		h-2.4V287.2z"/>
	<path class="st0" d="M33,292.2h-1.3v-10.6H33V292.2z"/>
	<path class="st0" d="M39.6,292.2c-0.1-0.1-0.1-0.4-0.2-0.8c-0.6,0.6-1.3,0.9-2.1,0.9c-0.7,0-1.3-0.2-1.8-0.6s-0.7-0.9-0.7-1.6
		c0-0.8,0.3-1.4,0.9-1.8c0.6-0.4,1.4-0.6,2.5-0.6h1.2v-0.6c0-0.4-0.1-0.8-0.4-1.1c-0.3-0.3-0.7-0.4-1.2-0.4c-0.5,0-0.8,0.1-1.1,0.3
		c-0.3,0.2-0.5,0.5-0.5,0.8H35c0-0.4,0.1-0.7,0.4-1.1c0.3-0.3,0.6-0.6,1.1-0.8c0.5-0.2,0.9-0.3,1.5-0.3c0.9,0,1.5,0.2,2,0.6
		c0.5,0.4,0.7,1,0.8,1.8v3.4c0,0.7,0.1,1.2,0.3,1.6v0.1H39.6z M37.5,291.3c0.4,0,0.8-0.1,1.1-0.3c0.4-0.2,0.6-0.5,0.8-0.8v-1.5h-1
		c-1.6,0-2.3,0.5-2.3,1.4c0,0.4,0.1,0.7,0.4,0.9S37.1,291.3,37.5,291.3z"/>
	<path class="st0" d="M43.9,284.8l0,0.9c0.6-0.7,1.3-1.1,2.2-1.1c1.6,0,2.4,0.9,2.4,2.7v4.9h-1.3v-4.9c0-0.5-0.1-0.9-0.4-1.2
		c-0.2-0.3-0.6-0.4-1.1-0.4c-0.4,0-0.8,0.1-1.1,0.3c-0.3,0.2-0.6,0.5-0.7,0.9v5.3h-1.3v-7.4H43.9z"/>
	<path class="st0" d="M54.8,290.3c0-0.3-0.1-0.6-0.4-0.8c-0.3-0.2-0.7-0.4-1.4-0.5c-0.6-0.1-1.2-0.3-1.5-0.5
		c-0.4-0.2-0.7-0.4-0.8-0.7c-0.2-0.3-0.3-0.6-0.3-0.9c0-0.6,0.3-1.1,0.8-1.5c0.5-0.4,1.2-0.6,2-0.6c0.8,0,1.5,0.2,2.1,0.7
		c0.5,0.4,0.8,1,0.8,1.7h-1.3c0-0.3-0.1-0.6-0.4-0.9s-0.7-0.4-1.1-0.4c-0.5,0-0.8,0.1-1.1,0.3c-0.3,0.2-0.4,0.5-0.4,0.8
		c0,0.3,0.1,0.5,0.4,0.7c0.2,0.2,0.7,0.3,1.3,0.4c0.6,0.1,1.1,0.3,1.5,0.5c0.4,0.2,0.7,0.4,0.9,0.7c0.2,0.3,0.3,0.6,0.3,1
		c0,0.7-0.3,1.2-0.8,1.6s-1.2,0.6-2.1,0.6c-0.6,0-1.1-0.1-1.6-0.3s-0.8-0.5-1.1-0.9c-0.3-0.4-0.4-0.8-0.4-1.2h1.3
		c0,0.4,0.2,0.8,0.5,1c0.3,0.2,0.7,0.4,1.3,0.4c0.5,0,0.9-0.1,1.2-0.3C54.6,290.9,54.8,290.6,54.8,290.3z"/>
	<path class="st0" d="M65.5,290.3c0-0.3-0.1-0.6-0.4-0.8c-0.3-0.2-0.7-0.4-1.4-0.5c-0.6-0.1-1.2-0.3-1.5-0.5
		c-0.4-0.2-0.7-0.4-0.8-0.7c-0.2-0.3-0.3-0.6-0.3-0.9c0-0.6,0.3-1.1,0.8-1.5c0.5-0.4,1.2-0.6,2-0.6c0.8,0,1.5,0.2,2.1,0.7
		c0.5,0.4,0.8,1,0.8,1.7h-1.3c0-0.3-0.1-0.6-0.4-0.9s-0.7-0.4-1.1-0.4c-0.5,0-0.8,0.1-1.1,0.3c-0.3,0.2-0.4,0.5-0.4,0.8
		c0,0.3,0.1,0.5,0.4,0.7c0.2,0.2,0.7,0.3,1.3,0.4c0.6,0.1,1.1,0.3,1.5,0.5c0.4,0.2,0.7,0.4,0.9,0.7c0.2,0.3,0.3,0.6,0.3,1
		c0,0.7-0.3,1.2-0.8,1.6s-1.2,0.6-2.1,0.6c-0.6,0-1.1-0.1-1.6-0.3s-0.8-0.5-1.1-0.9c-0.3-0.4-0.4-0.8-0.4-1.2h1.3
		c0,0.4,0.2,0.8,0.5,1c0.3,0.2,0.7,0.4,1.3,0.4c0.5,0,0.9-0.1,1.2-0.3C65.4,290.9,65.5,290.6,65.5,290.3z"/>
	<path class="st0" d="M70.2,283v1.8h1.4v1h-1.4v4.6c0,0.3,0.1,0.5,0.2,0.7c0.1,0.1,0.3,0.2,0.6,0.2c0.1,0,0.3,0,0.6-0.1v1
		c-0.3,0.1-0.7,0.1-1,0.1c-0.6,0-1-0.2-1.3-0.5c-0.3-0.3-0.4-0.8-0.4-1.5v-4.6h-1.4v-1h1.4V283H70.2z"/>
	<path class="st0" d="M77.7,292.2c-0.1-0.1-0.1-0.4-0.2-0.8c-0.6,0.6-1.3,0.9-2.1,0.9c-0.7,0-1.3-0.2-1.8-0.6s-0.7-0.9-0.7-1.6
		c0-0.8,0.3-1.4,0.9-1.8c0.6-0.4,1.4-0.6,2.5-0.6h1.2v-0.6c0-0.4-0.1-0.8-0.4-1.1c-0.3-0.3-0.7-0.4-1.2-0.4c-0.5,0-0.8,0.1-1.1,0.3
		c-0.3,0.2-0.5,0.5-0.5,0.8H73c0-0.4,0.1-0.7,0.4-1.1c0.3-0.3,0.6-0.6,1.1-0.8c0.5-0.2,0.9-0.3,1.5-0.3c0.9,0,1.5,0.2,2,0.6
		c0.5,0.4,0.7,1,0.8,1.8v3.4c0,0.7,0.1,1.2,0.3,1.6v0.1H77.7z M75.5,291.3c0.4,0,0.8-0.1,1.1-0.3c0.4-0.2,0.6-0.5,0.8-0.8v-1.5h-1
		c-1.6,0-2.3,0.5-2.3,1.4c0,0.4,0.1,0.7,0.4,0.9S75.1,291.3,75.5,291.3z"/>
	<path class="st0" d="M84.3,285.9c-0.2,0-0.4,0-0.6,0c-0.8,0-1.4,0.4-1.7,1.1v5.3h-1.3v-7.4H82l0,0.9c0.4-0.7,1-1,1.8-1
		c0.2,0,0.4,0,0.6,0.1V285.9z"/>
	<path class="st0" d="M87.5,283v1.8h1.4v1h-1.4v4.6c0,0.3,0.1,0.5,0.2,0.7c0.1,0.1,0.3,0.2,0.6,0.2c0.1,0,0.3,0,0.6-0.1v1
		c-0.3,0.1-0.7,0.1-1,0.1c-0.6,0-1-0.2-1.3-0.5c-0.3-0.3-0.4-0.8-0.4-1.5v-4.6h-1.4v-1h1.4V283H87.5z"/>
	<path class="st0" d="M90.4,282.8c0-0.2,0.1-0.4,0.2-0.5c0.1-0.1,0.3-0.2,0.6-0.2c0.2,0,0.4,0.1,0.6,0.2c0.1,0.1,0.2,0.3,0.2,0.5
		s-0.1,0.4-0.2,0.5s-0.3,0.2-0.6,0.2c-0.2,0-0.4-0.1-0.6-0.2S90.4,283,90.4,282.8z M91.8,292.2h-1.3v-7.4h1.3V292.2z"/>
	<path class="st0" d="M95,284.8l0,0.9c0.6-0.7,1.3-1.1,2.2-1.1c1.6,0,2.4,0.9,2.4,2.7v4.9h-1.3v-4.9c0-0.5-0.1-0.9-0.4-1.2
		c-0.2-0.3-0.6-0.4-1.1-0.4c-0.4,0-0.8,0.1-1.1,0.3c-0.3,0.2-0.6,0.5-0.7,0.9v5.3h-1.3v-7.4H95z"/>
	<path class="st0" d="M101.3,288.5c0-1.2,0.3-2.1,0.8-2.8s1.2-1,2.1-1c0.9,0,1.6,0.3,2.1,1l0.1-0.8h1.2v7.3c0,1-0.3,1.7-0.9,2.3
		c-0.6,0.6-1.3,0.8-2.3,0.8c-0.5,0-1.1-0.1-1.6-0.3c-0.5-0.2-0.9-0.5-1.2-0.9l0.7-0.8c0.5,0.7,1.2,1,2,1c0.6,0,1.1-0.2,1.4-0.5
		c0.3-0.3,0.5-0.8,0.5-1.5v-0.6c-0.5,0.6-1.2,0.9-2.1,0.9c-0.9,0-1.6-0.4-2.1-1.1C101.6,290.6,101.3,289.7,101.3,288.5z
		 M102.6,288.6c0,0.8,0.2,1.5,0.5,2s0.8,0.7,1.4,0.7c0.8,0,1.4-0.4,1.8-1.1v-3.4c-0.4-0.7-1-1.1-1.8-1.1c-0.6,0-1.1,0.2-1.5,0.7
		S102.6,287.7,102.6,288.6z"/>
	<path class="st0" d="M117.6,292.2c-0.1-0.1-0.1-0.4-0.2-0.8c-0.6,0.6-1.3,0.9-2.1,0.9c-0.7,0-1.3-0.2-1.8-0.6s-0.7-0.9-0.7-1.6
		c0-0.8,0.3-1.4,0.9-1.8c0.6-0.4,1.4-0.6,2.5-0.6h1.2v-0.6c0-0.4-0.1-0.8-0.4-1.1c-0.3-0.3-0.7-0.4-1.2-0.4c-0.5,0-0.8,0.1-1.1,0.3
		c-0.3,0.2-0.5,0.5-0.5,0.8h-1.3c0-0.4,0.1-0.7,0.4-1.1c0.3-0.3,0.6-0.6,1.1-0.8c0.5-0.2,0.9-0.3,1.5-0.3c0.9,0,1.5,0.2,2,0.6
		c0.5,0.4,0.7,1,0.8,1.8v3.4c0,0.7,0.1,1.2,0.3,1.6v0.1H117.6z M115.5,291.3c0.4,0,0.8-0.1,1.1-0.3c0.4-0.2,0.6-0.5,0.8-0.8v-1.5h-1
		c-1.6,0-2.3,0.5-2.3,1.4c0,0.4,0.1,0.7,0.4,0.9S115.1,291.3,115.5,291.3z"/>
	<path class="st0" d="M122.4,283v1.8h1.4v1h-1.4v4.6c0,0.3,0.1,0.5,0.2,0.7c0.1,0.1,0.3,0.2,0.6,0.2c0.1,0,0.3,0,0.6-0.1v1
		c-0.3,0.1-0.7,0.1-1,0.1c-0.6,0-1-0.2-1.3-0.5c-0.3-0.3-0.4-0.8-0.4-1.5v-4.6h-1.4v-1h1.4V283H122.4z"/>
	<path class="st0" d="M133.2,289.6c0-0.4-0.1-0.7-0.3-0.9c-0.2-0.2-0.6-0.4-1.1-0.6c-0.5-0.2-0.9-0.4-1.3-0.6
		c-0.4-0.2-0.7-0.4-0.9-0.6c-0.3-0.2-0.5-0.5-0.6-0.8c-0.1-0.3-0.2-0.7-0.2-1.2c0-0.8,0.2-1.4,0.7-1.9s1.2-0.8,2-0.9v-1.5h1.1v1.5
		c0.8,0.1,1.4,0.5,1.9,1c0.5,0.6,0.7,1.3,0.7,2.2h-2c0-0.5-0.1-1-0.3-1.2c-0.2-0.3-0.5-0.4-0.9-0.4c-0.4,0-0.7,0.1-0.9,0.3
		c-0.2,0.2-0.3,0.5-0.3,0.9c0,0.3,0.1,0.6,0.3,0.8c0.2,0.2,0.6,0.4,1.1,0.6c0.5,0.2,1,0.4,1.4,0.6c0.4,0.2,0.7,0.4,0.9,0.7
		s0.4,0.5,0.6,0.8c0.1,0.3,0.2,0.7,0.2,1.1c0,0.8-0.2,1.4-0.7,1.9c-0.5,0.5-1.2,0.8-2,0.9v1.4h-1.1v-1.4c-0.9-0.1-1.7-0.4-2.2-1
		c-0.5-0.6-0.8-1.3-0.8-2.3h2c0,0.5,0.1,1,0.4,1.3s0.6,0.4,1.1,0.4c0.4,0,0.7-0.1,1-0.3C133.1,290.3,133.2,290,133.2,289.6z"/>
	<path class="st0" d="M141.2,288.2c-0.5,0.5-1.1,0.8-1.8,0.8c-0.9,0-1.6-0.3-2.1-0.9s-0.8-1.4-0.8-2.5c0-0.7,0.1-1.3,0.4-1.8
		c0.3-0.5,0.7-1,1.2-1.3c0.5-0.3,1.1-0.5,1.7-0.5c0.7,0,1.2,0.2,1.8,0.5c0.5,0.3,0.9,0.8,1.2,1.4c0.3,0.6,0.4,1.3,0.4,2.1v0.7
		c0,1.7-0.4,3-1.2,3.9c-0.8,1-2,1.5-3.5,1.5l-0.5,0v-1.7l0.4,0C140.1,290.6,141,289.8,141.2,288.2z M139.9,287.5
		c0.3,0,0.6-0.1,0.8-0.2s0.4-0.4,0.5-0.6v-0.8c0-0.7-0.1-1.2-0.4-1.6c-0.3-0.4-0.6-0.6-1-0.6c-0.4,0-0.7,0.2-1,0.5s-0.4,0.8-0.4,1.4
		c0,0.5,0.1,1,0.4,1.3C139,287.3,139.4,287.5,139.9,287.5z"/>
	<path class="st0" d="M144.8,291.3c0-0.3,0.1-0.6,0.3-0.8c0.2-0.2,0.5-0.3,0.8-0.3c0.3,0,0.6,0.1,0.8,0.3c0.2,0.2,0.3,0.5,0.3,0.8
		c0,0.3-0.1,0.6-0.3,0.8c-0.2,0.2-0.5,0.3-0.8,0.3c-0.3,0-0.6-0.1-0.8-0.3C144.9,291.8,144.8,291.6,144.8,291.3z"/>
	<path class="st0" d="M153.3,288.2c-0.5,0.5-1.1,0.8-1.8,0.8c-0.9,0-1.6-0.3-2.1-0.9s-0.8-1.4-0.8-2.5c0-0.7,0.1-1.3,0.4-1.8
		c0.3-0.5,0.7-1,1.2-1.3c0.5-0.3,1.1-0.5,1.7-0.5c0.7,0,1.2,0.2,1.8,0.5c0.5,0.3,0.9,0.8,1.2,1.4c0.3,0.6,0.4,1.3,0.4,2.1v0.7
		c0,1.7-0.4,3-1.2,3.9c-0.8,1-2,1.5-3.5,1.5l-0.5,0v-1.7l0.4,0C152.3,290.6,153.2,289.8,153.3,288.2z M152,287.5
		c0.3,0,0.6-0.1,0.8-0.2s0.4-0.4,0.5-0.6v-0.8c0-0.7-0.1-1.2-0.4-1.6c-0.3-0.4-0.6-0.6-1-0.6c-0.4,0-0.7,0.2-1,0.5
		c-0.3,0.4-0.4,0.8-0.4,1.4c0,0.5,0.1,1,0.4,1.3C151.2,287.3,151.6,287.5,152,287.5z"/>
	<path class="st0" d="M161.4,288.2c-0.5,0.5-1.1,0.8-1.8,0.8c-0.9,0-1.6-0.3-2.1-0.9s-0.8-1.4-0.8-2.5c0-0.7,0.1-1.3,0.4-1.8
		c0.3-0.5,0.7-1,1.2-1.3c0.5-0.3,1.1-0.5,1.7-0.5c0.7,0,1.2,0.2,1.8,0.5c0.5,0.3,0.9,0.8,1.2,1.4c0.3,0.6,0.4,1.3,0.4,2.1v0.7
		c0,1.7-0.4,3-1.2,3.9c-0.8,1-2,1.5-3.5,1.5l-0.5,0v-1.7l0.4,0C160.3,290.6,161.3,289.8,161.4,288.2z M160.1,287.5
		c0.3,0,0.6-0.1,0.8-0.2s0.4-0.4,0.5-0.6v-0.8c0-0.7-0.1-1.2-0.4-1.6c-0.3-0.4-0.6-0.6-1-0.6c-0.4,0-0.7,0.2-1,0.5s-0.4,0.8-0.4,1.4
		c0,0.5,0.1,1,0.4,1.3C159.3,287.3,159.6,287.5,160.1,287.5z"/>
	<path class="st0" d="M170.3,283v1.8h1.4v1h-1.4v4.6c0,0.3,0.1,0.5,0.2,0.7c0.1,0.1,0.3,0.2,0.6,0.2c0.1,0,0.3,0,0.6-0.1v1
		c-0.3,0.1-0.7,0.1-1,0.1c-0.6,0-1-0.2-1.3-0.5c-0.3-0.3-0.4-0.8-0.4-1.5v-4.6h-1.4v-1h1.4V283H170.3z"/>
	<path class="st0" d="M172.7,288.5c0-0.7,0.1-1.4,0.4-2c0.3-0.6,0.7-1,1.2-1.3c0.5-0.3,1.1-0.5,1.8-0.5c1,0,1.8,0.4,2.5,1.1
		c0.6,0.7,0.9,1.6,0.9,2.8v0.1c0,0.7-0.1,1.4-0.4,1.9s-0.7,1-1.2,1.3c-0.5,0.3-1.1,0.5-1.8,0.5c-1,0-1.8-0.4-2.5-1.1
		C173.1,290.6,172.7,289.7,172.7,288.5L172.7,288.5z M174,288.6c0,0.8,0.2,1.5,0.6,2c0.4,0.5,0.9,0.7,1.5,0.7c0.6,0,1.2-0.3,1.5-0.8
		c0.4-0.5,0.6-1.2,0.6-2.1c0-0.8-0.2-1.5-0.6-2c-0.4-0.5-0.9-0.8-1.5-0.8c-0.6,0-1.1,0.2-1.5,0.7C174.2,287,174,287.7,174,288.6z"/>
	<path class="st0" d="M189.1,289.6c0-0.4-0.1-0.7-0.3-0.9c-0.2-0.2-0.6-0.4-1.1-0.6c-0.5-0.2-0.9-0.4-1.3-0.6
		c-0.4-0.2-0.7-0.4-0.9-0.6c-0.3-0.2-0.5-0.5-0.6-0.8c-0.1-0.3-0.2-0.7-0.2-1.2c0-0.8,0.2-1.4,0.7-1.9s1.2-0.8,2-0.9v-1.5h1.1v1.5
		c0.8,0.1,1.4,0.5,1.9,1c0.5,0.6,0.7,1.3,0.7,2.2h-2c0-0.5-0.1-1-0.3-1.2c-0.2-0.3-0.5-0.4-0.9-0.4c-0.4,0-0.7,0.1-0.9,0.3
		c-0.2,0.2-0.3,0.5-0.3,0.9c0,0.3,0.1,0.6,0.3,0.8c0.2,0.2,0.6,0.4,1.1,0.6c0.5,0.2,1,0.4,1.4,0.6c0.4,0.2,0.7,0.4,0.9,0.7
		s0.4,0.5,0.6,0.8c0.1,0.3,0.2,0.7,0.2,1.1c0,0.8-0.2,1.4-0.7,1.9c-0.5,0.5-1.2,0.8-2,0.9v1.4h-1.1v-1.4c-0.9-0.1-1.7-0.4-2.2-1
		c-0.5-0.6-0.8-1.3-0.8-2.3h2c0,0.5,0.1,1,0.4,1.3s0.6,0.4,1.1,0.4c0.4,0,0.7-0.1,1-0.3C188.9,290.3,189.1,290,189.1,289.6z"/>
	<path class="st0" d="M199.3,292.2h-6.9v-1.4l3.2-3.5c0.4-0.5,0.8-0.9,1-1.3c0.2-0.4,0.3-0.7,0.3-1c0-0.4-0.1-0.8-0.3-1
		c-0.2-0.3-0.5-0.4-1-0.4c-0.4,0-0.8,0.2-1.1,0.5s-0.4,0.7-0.4,1.2h-2c0-0.6,0.1-1.2,0.4-1.7s0.7-0.9,1.2-1.2
		c0.5-0.3,1.1-0.4,1.8-0.4c1,0,1.8,0.2,2.4,0.7s0.9,1.2,0.9,2.1c0,0.5-0.1,1-0.4,1.5c-0.3,0.5-0.7,1.1-1.3,1.8l-2.3,2.4h4.3V292.2z"
		/>
	<path class="st0" d="M206.3,288.5h1.1v1.6h-1.1v2.2h-2v-2.2h-4.1l-0.1-1.3l4.2-6.6h2V288.5z M202.1,288.5h2.2v-3.5l-0.1,0.2
		L202.1,288.5z"/>
	<path class="st0" d="M208.7,291.3c0-0.3,0.1-0.6,0.3-0.8c0.2-0.2,0.5-0.3,0.8-0.3c0.3,0,0.6,0.1,0.8,0.3c0.2,0.2,0.3,0.5,0.3,0.8
		c0,0.3-0.1,0.6-0.3,0.8c-0.2,0.2-0.5,0.3-0.8,0.3c-0.3,0-0.6-0.1-0.8-0.3C208.8,291.8,208.7,291.6,208.7,291.3z"/>
	<path class="st0" d="M217.3,288.2c-0.5,0.5-1.1,0.8-1.8,0.8c-0.9,0-1.6-0.3-2.1-0.9s-0.8-1.4-0.8-2.5c0-0.7,0.1-1.3,0.4-1.8
		c0.3-0.5,0.7-1,1.2-1.3c0.5-0.3,1.1-0.5,1.7-0.5c0.7,0,1.2,0.2,1.8,0.5c0.5,0.3,0.9,0.8,1.2,1.4c0.3,0.6,0.4,1.3,0.4,2.1v0.7
		c0,1.7-0.4,3-1.2,3.9c-0.8,1-2,1.5-3.5,1.5l-0.5,0v-1.7l0.4,0C216.2,290.6,217.1,289.8,217.3,288.2z M216,287.5
		c0.3,0,0.6-0.1,0.8-0.2s0.4-0.4,0.5-0.6v-0.8c0-0.7-0.1-1.2-0.4-1.6c-0.3-0.4-0.6-0.6-1-0.6c-0.4,0-0.7,0.2-1,0.5s-0.4,0.8-0.4,1.4
		c0,0.5,0.1,1,0.4,1.3C215.2,287.3,215.5,287.5,216,287.5z"/>
	<path class="st0" d="M225.4,288.2c-0.5,0.5-1.1,0.8-1.8,0.8c-0.9,0-1.6-0.3-2.1-0.9s-0.8-1.4-0.8-2.5c0-0.7,0.1-1.3,0.4-1.8
		c0.3-0.5,0.7-1,1.2-1.3c0.5-0.3,1.1-0.5,1.7-0.5c0.7,0,1.2,0.2,1.8,0.5c0.5,0.3,0.9,0.8,1.2,1.4c0.3,0.6,0.4,1.3,0.4,2.1v0.7
		c0,1.7-0.4,3-1.2,3.9c-0.8,1-2,1.5-3.5,1.5l-0.5,0v-1.7l0.4,0C224.3,290.6,225.2,289.8,225.4,288.2z M224,287.5
		c0.3,0,0.6-0.1,0.8-0.2s0.4-0.4,0.5-0.6v-0.8c0-0.7-0.1-1.2-0.4-1.6c-0.3-0.4-0.6-0.6-1-0.6c-0.4,0-0.7,0.2-1,0.5s-0.4,0.8-0.4,1.4
		c0,0.5,0.1,1,0.4,1.3C223.2,287.3,223.6,287.5,224,287.5z"/>
	<path class="st0" d="M229.3,293.1h-1.1l4.2-10.9h1.1L229.3,293.1z"/>
	<path class="st0" d="M236.1,284.8l0,0.8c0.5-0.6,1.3-1,2.2-1c1,0,1.7,0.4,2.1,1.2c0.2-0.4,0.6-0.6,1-0.9c0.4-0.2,0.9-0.3,1.4-0.3
		c1.6,0,2.5,0.9,2.5,2.6v5H244v-4.9c0-0.5-0.1-0.9-0.4-1.2c-0.2-0.3-0.7-0.4-1.2-0.4c-0.5,0-0.9,0.1-1.2,0.4
		c-0.3,0.3-0.5,0.7-0.5,1.1v4.9h-1.3v-4.9c0-1.1-0.5-1.6-1.6-1.6c-0.8,0-1.4,0.4-1.7,1.1v5.4h-1.3v-7.4H236.1z"/>
	<path class="st0" d="M246.9,288.5c0-0.7,0.1-1.4,0.4-2c0.3-0.6,0.7-1,1.2-1.3c0.5-0.3,1.1-0.5,1.8-0.5c1,0,1.8,0.4,2.5,1.1
		c0.6,0.7,0.9,1.6,0.9,2.8v0.1c0,0.7-0.1,1.4-0.4,1.9s-0.7,1-1.2,1.3c-0.5,0.3-1.1,0.5-1.8,0.5c-1,0-1.8-0.4-2.5-1.1
		C247.2,290.6,246.9,289.7,246.9,288.5L246.9,288.5z M248.2,288.6c0,0.8,0.2,1.5,0.6,2c0.4,0.5,0.9,0.7,1.5,0.7
		c0.6,0,1.2-0.3,1.5-0.8c0.4-0.5,0.6-1.2,0.6-2.1c0-0.8-0.2-1.5-0.6-2c-0.4-0.5-0.9-0.8-1.5-0.8c-0.6,0-1.1,0.2-1.5,0.7
		C248.3,287,248.2,287.7,248.2,288.6z"/>
	<path class="st0" d="M256.4,284.8l0,0.9c0.6-0.7,1.3-1.1,2.2-1.1c1.6,0,2.4,0.9,2.4,2.7v4.9h-1.3v-4.9c0-0.5-0.1-0.9-0.4-1.2
		c-0.2-0.3-0.6-0.4-1.1-0.4c-0.4,0-0.8,0.1-1.1,0.3c-0.3,0.2-0.6,0.5-0.7,0.9v5.3h-1.3v-7.4H256.4z"/>
	<path class="st0" d="M264.7,283v1.8h1.4v1h-1.4v4.6c0,0.3,0.1,0.5,0.2,0.7c0.1,0.1,0.3,0.2,0.6,0.2c0.1,0,0.3,0,0.6-0.1v1
		c-0.3,0.1-0.7,0.1-1,0.1c-0.6,0-1-0.2-1.3-0.5c-0.3-0.3-0.4-0.8-0.4-1.5v-4.6h-1.4v-1h1.4V283H264.7z"/>
	<path class="st0" d="M268.9,285.7c0.6-0.7,1.3-1,2.2-1c1.6,0,2.4,0.9,2.4,2.7v4.9h-1.3v-4.9c0-0.5-0.1-0.9-0.4-1.2
		c-0.2-0.3-0.6-0.4-1.1-0.4c-0.4,0-0.8,0.1-1.1,0.3c-0.3,0.2-0.6,0.5-0.7,0.9v5.3h-1.3v-10.6h1.3V285.7z"/>
	<path class="st0" d="M275.4,291.6c0-0.2,0.1-0.4,0.2-0.5c0.1-0.1,0.3-0.2,0.6-0.2c0.3,0,0.5,0.1,0.6,0.2s0.2,0.3,0.2,0.5
		c0,0.2-0.1,0.4-0.2,0.5c-0.1,0.1-0.3,0.2-0.6,0.2c-0.3,0-0.5-0.1-0.6-0.2C275.5,292,275.4,291.8,275.4,291.6z"/>
</g>
</svg>
