<?xml version="1.0" encoding="utf-8"?>
<!-- Generator: Adobe Illustrator 26.0.3, SVG Export Plug-In . SVG Version: 6.00 Build 0)  -->
<svg version="1.1" id="Layer_1" xmlns="http://www.w3.org/2000/svg" xmlns:xlink="http://www.w3.org/1999/xlink" x="0px" y="0px"
	 viewBox="0 0 300 600" style="enable-background:new 0 0 300 600;" xml:space="preserve">
<style type="text/css">
	.st0{clip-path:url(#SVGID_00000149354910336602779270000005188677059689475759_);}
	.st1{clip-path:url(#SVGID_00000088126328757978572080000000766132264189513381_);fill:#FFFFFF;}
</style>
<g id="PG_x5F_Logo_x5F_W_00000004523146021379530360000009172388435568106636_">
	<g>
		<defs>
			<rect id="SVGID_1_" x="75.2" y="17.1" width="149.5" height="43.1"/>
		</defs>
		<clipPath id="SVGID_00000158009406790915868550000009264474670312248199_">
			<use xlink:href="#SVGID_1_"  style="overflow:visible;"/>
		</clipPath>
		<g style="clip-path:url(#SVGID_00000158009406790915868550000009264474670312248199_);">
			<defs>
				<rect id="SVGID_00000128457390945157871190000004502869918958181016_" x="75.2" y="17.1" width="149.5" height="43.1"/>
			</defs>
			<clipPath id="SVGID_00000127759215713140889160000012623087101451292848_">
				<use xlink:href="#SVGID_00000128457390945157871190000004502869918958181016_"  style="overflow:visible;"/>
			</clipPath>
			<path style="clip-path:url(#SVGID_00000127759215713140889160000012623087101451292848_);fill:#FFFFFF;" d="M219.5,34.9
				c0-0.3,0.1-0.5,0.3-0.7c0.2-0.2,0.4-0.3,0.7-0.3c0.2,0,0.5,0.1,0.6,0.3c0.2,0.2,0.3,0.4,0.3,0.7V45c0,0.3-0.1,0.5-0.3,0.7
				c-0.2,0.2-0.4,0.3-0.7,0.3c-0.2,0-0.5-0.1-0.6-0.3c-0.2-0.2-0.3-0.4-0.3-0.7V34.9z"/>
			<path style="clip-path:url(#SVGID_00000127759215713140889160000012623087101451292848_);fill:#FFFFFF;" d="M168.2,50.9
				c-0.8,0.6-1.6,0.8-2.6,0.8c-0.6,0-1-0.1-1.3-0.2c-0.3-0.1-0.6-0.2-0.9-0.4c-0.3-0.2-0.4-0.4-0.4-0.8c0-0.3,0.1-0.5,0.3-0.7
				c0.2-0.2,0.4-0.3,0.6-0.3c0.2,0,0.4,0.1,0.6,0.2c0.4,0.2,0.8,0.3,1.3,0.3c0.4,0,0.7-0.1,1-0.2c0.3-0.1,0.6-0.3,0.8-0.5
				c0.2-0.2,0.4-0.5,0.5-0.8c0.1-0.3,0.2-0.6,0.2-0.9v-6.9c0-0.3,0.1-0.5,0.3-0.6c0.2-0.2,0.4-0.3,0.6-0.3c0.2,0,0.5,0.1,0.6,0.3
				s0.3,0.4,0.3,0.6v6.9C170,48.9,169.3,50.1,168.2,50.9"/>
			<path style="clip-path:url(#SVGID_00000127759215713140889160000012623087101451292848_);fill:#FFFFFF;" d="M126.9,30.7
				c0-0.3,0.1-0.5,0.3-0.6c0.2-0.2,0.4-0.3,0.6-0.3c0.2,0,0.5,0.1,0.6,0.3c0.2,0.2,0.3,0.4,0.3,0.6v0.7c0,0.3-0.1,0.5-0.3,0.6
				c-0.2,0.2-0.4,0.3-0.6,0.3c-0.2,0-0.5-0.1-0.6-0.3c-0.2-0.2-0.3-0.4-0.3-0.6V30.7z M126.9,35c0-0.3,0.1-0.5,0.3-0.6
				c0.2-0.2,0.4-0.3,0.6-0.3c0.2,0,0.5,0.1,0.6,0.3c0.2,0.2,0.3,0.4,0.3,0.6V45c0,0.3-0.1,0.5-0.3,0.6c-0.2,0.2-0.4,0.3-0.6,0.3
				c-0.2,0-0.5-0.1-0.6-0.3c-0.2-0.2-0.3-0.4-0.3-0.6V35z"/>
			<path style="clip-path:url(#SVGID_00000127759215713140889160000012623087101451292848_);fill:#FFFFFF;" d="M119,35.2
				c0-0.3,0.1-0.5,0.3-0.6c0.2-0.2,0.4-0.3,0.6-0.3c0.2,0,0.4,0.1,0.6,0.2c0.2,0.1,0.3,0.3,0.3,0.5c0.7-0.5,1.6-0.8,2.6-0.8
				c0.5,0,1,0.1,1.3,0.2c0.3,0.1,0.6,0.2,0.9,0.4c0.3,0.2,0.4,0.4,0.4,0.8c0,0.3-0.1,0.5-0.3,0.6c-0.2,0.2-0.4,0.2-0.6,0.2
				c-0.2,0-0.4-0.1-0.5-0.2c-0.4-0.2-0.8-0.3-1.2-0.3c-0.3,0-0.7,0.1-1,0.2c-0.3,0.1-0.5,0.3-0.8,0.5c-0.2,0.2-0.4,0.5-0.5,0.7
				c-0.1,0.3-0.2,0.6-0.2,0.9v6.7c0,0.3-0.1,0.5-0.3,0.6c-0.2,0.2-0.4,0.3-0.6,0.3c-0.2,0-0.4-0.1-0.6-0.3c-0.2-0.2-0.3-0.4-0.3-0.6
				v-6.8V35.2z"/>
			<path style="clip-path:url(#SVGID_00000127759215713140889160000012623087101451292848_);fill:#FFFFFF;" d="M130,35.3
				c0-0.1-0.1-0.2-0.1-0.4c0-0.2,0.1-0.4,0.2-0.6c0.2-0.2,0.4-0.3,0.6-0.3c0.2,0,0.3,0,0.5,0.1c0.2,0.1,0.3,0.2,0.3,0.4l3.6,8.3
				l3.6-8.3c0.2-0.4,0.4-0.6,0.8-0.6c0.3,0,0.5,0.1,0.6,0.3c0.2,0.2,0.2,0.4,0.2,0.6c0,0.1,0,0.2-0.1,0.4L136,45.5
				c-0.2,0.4-0.5,0.6-0.8,0.6c-0.4,0-0.7-0.2-0.8-0.6L130,35.3z"/>
			<path style="clip-path:url(#SVGID_00000127759215713140889160000012623087101451292848_);fill:#FFFFFF;" d="M140.8,38.3
				c0-0.6,0.1-1.2,0.3-1.7c0.2-0.5,0.5-1,0.9-1.4c0.4-0.4,0.9-0.7,1.4-0.9c0.5-0.2,1.1-0.3,1.7-0.3c0.6,0,1.2,0.1,1.7,0.3
				c0.5,0.2,1,0.5,1.4,0.9c0.4,0.4,0.7,0.9,0.9,1.4c0.2,0.5,0.3,1.1,0.3,1.7V45c0,0.3-0.1,0.5-0.3,0.6c-0.2,0.2-0.4,0.3-0.6,0.3
				c-0.2,0-0.4-0.1-0.6-0.2c-0.2-0.1-0.3-0.3-0.3-0.5c-0.7,0.5-1.6,0.8-2.5,0.8c-0.6,0-1.2-0.1-1.7-0.3c-0.5-0.2-1-0.5-1.4-0.9
				c-0.4-0.4-0.7-0.9-0.9-1.4c-0.2-0.5-0.3-1.1-0.3-1.7V38.3z M142.6,41.7c0,0.3,0.1,0.7,0.2,1c0.1,0.3,0.3,0.6,0.5,0.8
				c0.2,0.2,0.5,0.4,0.8,0.5c0.3,0.1,0.6,0.2,1,0.2c0.3,0,0.7-0.1,1-0.2c0.3-0.1,0.6-0.3,0.8-0.5c0.2-0.2,0.4-0.5,0.5-0.8
				c0.1-0.3,0.2-0.6,0.2-0.9v-3.6c0-0.3-0.1-0.7-0.2-1c-0.1-0.3-0.3-0.6-0.5-0.8c-0.2-0.2-0.5-0.4-0.8-0.5c-0.3-0.1-0.6-0.2-1-0.2
				c-0.4,0-0.7,0.1-1,0.2c-0.3,0.1-0.6,0.3-0.8,0.5c-0.2,0.2-0.4,0.5-0.5,0.8c-0.1,0.3-0.2,0.6-0.2,1V41.7z"/>
			<path style="clip-path:url(#SVGID_00000127759215713140889160000012623087101451292848_);fill:#FFFFFF;" d="M151.2,38.3
				c0-0.6,0.1-1.2,0.3-1.7c0.2-0.5,0.6-1,1-1.4c0.4-0.4,0.9-0.7,1.4-0.9c0.5-0.2,1.1-0.3,1.7-0.3c0.1,0,0.3,0,0.7,0.1
				c0.3,0,0.7,0.1,1.1,0.3c0.4,0.2,0.8,0.4,1.2,0.8c0.4,0.4,0.7,0.9,1,1.5c0,0.1,0.1,0.2,0.1,0.3c0,0.3-0.1,0.5-0.3,0.6
				c-0.2,0.2-0.4,0.3-0.6,0.3c-0.2,0-0.4-0.1-0.5-0.2c-0.2-0.1-0.3-0.2-0.3-0.4c-0.2-0.5-0.5-0.9-1-1.1c-0.4-0.3-0.9-0.4-1.4-0.4
				c-0.4,0-0.7,0.1-1,0.2c-0.3,0.1-0.6,0.3-0.8,0.5c-0.2,0.2-0.4,0.5-0.5,0.8c-0.1,0.3-0.2,0.6-0.2,1v3.5c0,0.3,0.1,0.7,0.2,1
				c0.1,0.3,0.3,0.6,0.5,0.8c0.2,0.2,0.5,0.4,0.8,0.5c0.3,0.1,0.6,0.2,1,0.2c0.5,0,1-0.1,1.4-0.4c0.4-0.3,0.7-0.6,0.9-1.1
				c0.1-0.2,0.2-0.3,0.3-0.4c0.1-0.1,0.3-0.2,0.5-0.2c0.3,0,0.5,0.1,0.6,0.3c0.2,0.2,0.3,0.4,0.3,0.6c0,0.1,0,0.2-0.1,0.3
				c-0.3,0.7-0.7,1.2-1.2,1.6c-0.4,0.4-0.9,0.6-1.3,0.8c-0.4,0.2-0.8,0.2-1.1,0.3c-0.3,0-0.5,0-0.5,0c-0.6,0-1.2-0.1-1.7-0.3
				s-1-0.5-1.4-0.9c-0.4-0.4-0.7-0.9-0.9-1.4c-0.2-0.5-0.3-1.1-0.3-1.7V38.3z"/>
			<path style="clip-path:url(#SVGID_00000127759215713140889160000012623087101451292848_);fill:#FFFFFF;" d="M184.3,35
				c0-0.3,0.1-0.5,0.3-0.6c0.2-0.2,0.4-0.3,0.6-0.3c0.2,0,0.5,0.1,0.6,0.3c0.2,0.2,0.3,0.4,0.3,0.6v6.8c0,0.3,0.1,0.7,0.2,1
				c0.1,0.3,0.3,0.6,0.5,0.8c0.2,0.2,0.5,0.4,0.8,0.5c0.3,0.1,0.6,0.2,1,0.2c0.3,0,0.7-0.1,1-0.2c0.3-0.1,0.6-0.3,0.8-0.5
				c0.2-0.2,0.4-0.5,0.5-0.8c0.1-0.3,0.2-0.6,0.2-1V35c0-0.3,0.1-0.5,0.3-0.6c0.2-0.2,0.4-0.3,0.6-0.3c0.2,0,0.5,0.1,0.6,0.3
				c0.2,0.2,0.3,0.4,0.3,0.6v6.8c0,0.6-0.1,1.2-0.3,1.7c-0.2,0.5-0.5,1-0.9,1.4c-0.4,0.4-0.9,0.7-1.4,0.9c-0.5,0.2-1.1,0.3-1.7,0.3
				c-0.6,0-1.2-0.1-1.7-0.3c-0.5-0.2-1-0.5-1.4-0.9c-0.4-0.4-0.7-0.9-0.9-1.4c-0.2-0.5-0.3-1.1-0.3-1.7V35z"/>
			<path style="clip-path:url(#SVGID_00000127759215713140889160000012623087101451292848_);fill:#FFFFFF;" d="M194.7,38.3
				c0-0.6,0.1-1.2,0.3-1.7c0.2-0.5,0.5-1,0.9-1.4c0.4-0.4,0.9-0.7,1.4-0.9c0.5-0.2,1.1-0.3,1.7-0.3c0.6,0,1.2,0.1,1.7,0.3
				c0.5,0.2,1,0.5,1.4,0.9c0.4,0.4,0.7,0.9,0.9,1.4c0.2,0.5,0.3,1.1,0.3,1.7V45c0,0.3-0.1,0.5-0.3,0.6c-0.2,0.2-0.4,0.3-0.6,0.3
				c-0.2,0-0.4-0.1-0.6-0.2c-0.2-0.1-0.3-0.3-0.3-0.5c-0.7,0.5-1.6,0.8-2.5,0.8c-0.6,0-1.2-0.1-1.7-0.3c-0.5-0.2-1-0.5-1.4-0.9
				c-0.4-0.4-0.7-0.9-0.9-1.4c-0.2-0.5-0.3-1.1-0.3-1.7V38.3z M196.5,41.7c0,0.3,0.1,0.7,0.2,1c0.1,0.3,0.3,0.6,0.5,0.8
				c0.2,0.2,0.5,0.4,0.8,0.5c0.3,0.1,0.6,0.2,1,0.2c0.3,0,0.7-0.1,1-0.2c0.3-0.1,0.6-0.3,0.8-0.5c0.2-0.2,0.4-0.5,0.5-0.8
				c0.1-0.3,0.2-0.6,0.2-0.9v-3.6c0-0.3-0.1-0.7-0.2-1c-0.1-0.3-0.3-0.6-0.5-0.8c-0.2-0.2-0.5-0.4-0.8-0.5c-0.3-0.1-0.6-0.2-1-0.2
				c-0.4,0-0.7,0.1-1,0.2c-0.3,0.1-0.6,0.3-0.8,0.5c-0.2,0.2-0.4,0.5-0.5,0.8c-0.1,0.3-0.2,0.6-0.2,1V41.7z"/>
			<path style="clip-path:url(#SVGID_00000127759215713140889160000012623087101451292848_);fill:#FFFFFF;" d="M205.2,35.2
				c0-0.3,0.1-0.5,0.3-0.6c0.2-0.2,0.4-0.3,0.6-0.3c0.2,0,0.4,0.1,0.6,0.2c0.2,0.1,0.3,0.3,0.3,0.5c0.7-0.5,1.6-0.8,2.6-0.8
				c0.5,0,1,0.1,1.3,0.2c0.3,0.1,0.6,0.2,0.9,0.4c0.3,0.2,0.4,0.4,0.4,0.8c0,0.3-0.1,0.5-0.3,0.6c-0.2,0.2-0.4,0.2-0.6,0.2
				c-0.2,0-0.4-0.1-0.5-0.2c-0.4-0.2-0.8-0.3-1.2-0.3c-0.3,0-0.7,0.1-1,0.2c-0.3,0.1-0.5,0.3-0.8,0.5c-0.2,0.2-0.4,0.5-0.5,0.7
				c-0.1,0.3-0.2,0.6-0.2,0.9v6.7c0,0.3-0.1,0.5-0.3,0.6c-0.2,0.2-0.4,0.3-0.6,0.3c-0.2,0-0.4-0.1-0.6-0.3c-0.2-0.2-0.3-0.4-0.3-0.6
				v-6.8V35.2z"/>
			<path style="clip-path:url(#SVGID_00000127759215713140889160000012623087101451292848_);fill:#FFFFFF;" d="M219.5,30.7
				c0-0.3,0.1-0.5,0.3-0.6c0.2-0.2,0.4-0.3,0.6-0.3c0.2,0,0.5,0.1,0.6,0.3c0.2,0.2,0.3,0.4,0.3,0.6v11c0,0.6-0.1,1.2-0.3,1.7
				c-0.2,0.5-0.5,1-0.9,1.4c-0.4,0.4-0.9,0.7-1.4,0.9c-0.5,0.2-1.1,0.3-1.7,0.3c-0.6,0-1.2-0.1-1.7-0.3c-0.5-0.2-1-0.5-1.4-0.9
				c-0.4-0.4-0.7-0.9-0.9-1.4c-0.2-0.5-0.3-1.1-0.3-1.7v-3.5c0-0.6,0.1-1.2,0.3-1.7c0.2-0.5,0.5-1,0.9-1.4c0.4-0.4,0.9-0.7,1.4-0.9
				c0.5-0.2,1.1-0.3,1.7-0.3c0.5,0,0.9,0.1,1.3,0.2c0.4,0.1,0.8,0.3,1.2,0.6V30.7z M214.5,41.7c0,0.3,0.1,0.7,0.2,1
				c0.1,0.3,0.3,0.6,0.5,0.8c0.2,0.2,0.5,0.4,0.8,0.5c0.3,0.1,0.6,0.2,1,0.2c0.3,0,0.7-0.1,1-0.2c0.3-0.1,0.6-0.3,0.8-0.5
				c0.2-0.2,0.4-0.5,0.5-0.8c0.1-0.3,0.2-0.6,0.2-1v-3.5c0-0.3-0.1-0.7-0.2-1c-0.1-0.3-0.3-0.6-0.5-0.8c-0.2-0.2-0.5-0.4-0.8-0.5
				c-0.3-0.1-0.6-0.2-1-0.2c-0.3,0-0.7,0.1-1,0.2c-0.3,0.1-0.6,0.3-0.8,0.5c-0.2,0.2-0.4,0.5-0.5,0.8c-0.1,0.3-0.2,0.6-0.2,1V41.7z"
				/>
			<path style="clip-path:url(#SVGID_00000127759215713140889160000012623087101451292848_);fill:#FFFFFF;" d="M161.3,35
				c0-0.3,0.1-0.5,0.3-0.6c0.2-0.2,0.4-0.3,0.6-0.3c0.2,0,0.5,0.1,0.6,0.3c0.2,0.2,0.3,0.4,0.3,0.6v6.8c0,0.3,0.1,0.7,0.2,1
				c0.1,0.3,0.3,0.6,0.5,0.8c0.2,0.2,0.5,0.4,0.8,0.5c0.3,0.1,0.6,0.2,1,0.2c0.3,0,0.7-0.1,1-0.2c0.3-0.1,0.6-0.3,0.8-0.5
				c0.2-0.2,0.4-0.5,0.5-0.8c0.1-0.3,0.2-0.6,0.2-1V35c0-0.3,0.1-0.5,0.3-0.6c0.2-0.2,0.4-0.3,0.6-0.3c0.2,0,0.5,0.1,0.6,0.3
				c0.2,0.2,0.3,0.4,0.3,0.6v6.8c0,0.6-0.1,1.2-0.3,1.7c-0.2,0.5-0.5,1-0.9,1.4c-0.4,0.4-0.9,0.7-1.4,0.9c-0.5,0.2-1.1,0.3-1.7,0.3
				c-0.6,0-1.2-0.1-1.7-0.3s-1-0.5-1.4-0.9c-0.4-0.4-0.7-0.9-0.9-1.4c-0.2-0.5-0.3-1.1-0.3-1.7V35z"/>
			<path style="clip-path:url(#SVGID_00000127759215713140889160000012623087101451292848_);fill:#FFFFFF;" d="M181.7,37.9h-3.8
				c-0.5,0-0.9,0.4-0.9,0.9c0,0.5,0.4,0.9,0.9,0.9h3v1.4c0,2-1.8,3.4-3.6,3.4c-2.1,0-3.8-1.4-3.8-3.8v-5.5c0-2.2,1.7-3.8,3.8-3.8
				c1.7,0,3.1,1.2,3.6,2.6c0.2,0.3,0.4,0.5,0.8,0.5c0.7,0,1.2-0.6,0.8-1.4c-0.6-1.8-2.4-3.6-5.2-3.6c-3.3,0-5.6,2.6-5.6,5.6v5.7
				c0,3,2.4,5.6,5.6,5.6c3,0,5.5-2.3,5.5-4.9v-2.7C182.7,38.2,182.2,37.9,181.7,37.9"/>
			<path style="clip-path:url(#SVGID_00000127759215713140889160000012623087101451292848_);fill:#FFFFFF;" d="M219.5,35
				c0-0.3,0.1-0.5,0.3-0.6c0.2-0.2,0.4-0.3,0.6-0.3c0.2,0,0.5,0.1,0.6,0.3c0.2,0.2,0.3,0.4,0.3,0.6V45c0,0.3-0.1,0.5-0.3,0.6
				c-0.2,0.2-0.4,0.3-0.6,0.3c-0.2,0-0.5-0.1-0.6-0.3c-0.2-0.2-0.3-0.4-0.3-0.6V35z"/>
			<path style="clip-path:url(#SVGID_00000127759215713140889160000012623087101451292848_);fill:#FFFFFF;" d="M107.4,31.3
				c0-0.3,0.1-0.5,0.3-0.6c0.2-0.2,0.4-0.3,0.6-0.3h3.6h0c0.8,0,1.5,0.1,2.2,0.4c0.7,0.3,1.3,0.7,1.8,1.2c0.5,0.5,0.9,1.1,1.2,1.8
				c0.3,0.7,0.4,1.4,0.4,2.2c0,0.8-0.1,1.5-0.4,2.2c-0.3,0.7-0.7,1.2-1.2,1.8c-0.5,0.5-1.1,0.9-1.8,1.2c-0.7,0.3-1.4,0.4-2.2,0.4
				h-2.7v3.6c0,0.3-0.1,0.5-0.3,0.6c-0.2,0.2-0.4,0.3-0.6,0.3c-0.2,0-0.4-0.1-0.6-0.3c-0.2-0.2-0.3-0.4-0.3-0.6V31.3z M109.2,32.2
				v7.5h2.7c0.5,0,1-0.1,1.5-0.3c0.5-0.2,0.9-0.5,1.2-0.8c0.3-0.3,0.6-0.7,0.8-1.2c0.2-0.5,0.3-0.9,0.3-1.5c0-0.5-0.1-1-0.3-1.5
				c-0.2-0.5-0.5-0.8-0.8-1.2c-0.3-0.3-0.7-0.6-1.2-0.8c-0.5-0.2-1-0.3-1.5-0.3H109.2z"/>
			<path style="clip-path:url(#SVGID_00000127759215713140889160000012623087101451292848_);fill:#FFFFFF;" d="M89.6,46.5v1.9
				c0,1.5-1.2,2.7-2.7,2.7c-0.5,0-0.9-0.1-1.3-0.4c-0.4-0.3-0.6-0.8-0.3-1.2c0.3-0.4,0.8-0.6,1.2-0.3c0.1,0.1,0.3,0.1,0.4,0.1
				c0.5,0,0.8-0.4,0.8-0.8v-1.9c0-0.5,0.4-0.9,0.9-0.9S89.6,46,89.6,46.5 M83.5,50.2c-0.2-0.4-0.8-0.6-1.2-0.4
				c-0.4,0.2-0.6,0.8-0.4,1.2c1,1.9,2.9,3.1,5.1,3.1c3.1,0,5.7-2.6,5.7-5.7v-1.9c0-0.5-0.4-0.9-0.9-0.9s-0.9,0.4-0.9,0.9v1.9
				c0,2.1-1.7,3.9-3.9,3.9C85.5,52.3,84.2,51.5,83.5,50.2 M86.7,20.1c-4.7,0.1-8.5,4.1-8.5,8.9v19.4c0,2.4,0.9,4.6,2.7,6.3
				c1.6,1.6,3.8,2.5,6.1,2.5c0.1,0,0.2,0,0.3,0c4.7-0.1,8.5-4.1,8.5-8.9v-1.5c0-2.3-1.9-4.2-4.2-4.2h-2.8c-0.5,0-0.9,0.4-0.9,0.9
				c0,0.5,0.4,0.9,0.9,0.9h2.8c1.3,0,2.3,1.1,2.3,2.3v1.5c0,3.8-3,7-6.7,7.1c-1.9,0.1-3.7-0.6-5-2c-1.4-1.3-2.1-3.1-2.1-5V29
				c0-3.8,3-7,6.7-7.1c1.9-0.1,3.7,0.6,5,2c1.4,1.3,2.1,3.1,2.1,5v11.4c0,0.5,0.4,0.9,0.9,0.9c0.5,0,0.9-0.4,0.9-0.9V28.8
				c0-2.4-0.9-4.6-2.7-6.3C91.3,20.9,89,20,86.7,20.1 M92.6,35.7v-6.8c0-3.1-2.6-5.7-5.7-5.7c-3.1,0-5.7,2.6-5.7,5.7v1.1
				c0,0.5,0.4,0.9,0.9,0.9s0.9-0.4,0.9-0.9v-1.1c0-2.1,1.7-3.9,3.9-3.9s3.9,1.7,3.9,3.9v6.8c0,2.1-1.7,3.9-3.9,3.9
				c-0.5,0-1-0.1-1.4-0.3c-0.3-0.1-0.6-0.1-0.8,0.1c-0.2,0.2-0.4,0.5-0.4,0.8v6.2c0,0.3-0.3,0.6-0.6,0.6c-0.3,0-0.6-0.3-0.6-0.6V33
				c0-0.5-0.4-0.9-0.9-0.9s-0.9,0.4-0.9,0.9v13.3c0,1.3,1.1,2.4,2.4,2.4s2.4-1.1,2.4-2.4v-5c0.3,0,0.6,0.1,0.8,0.1
				C90.1,41.4,92.6,38.8,92.6,35.7 M98.7,29v14.3v0.2v4.8c0,3.2-1.3,6.2-3.5,8.4c-2.2,2.2-5.1,3.4-8.2,3.4c-0.1,0-0.2,0-0.3,0
				c-6.3-0.1-11.5-5.5-11.5-12V28.8c0-3.2,1.3-6.2,3.5-8.4c2.3-2.2,5.3-3.4,8.5-3.3C93.5,17.2,98.7,22.6,98.7,29 M96.9,43.6v-0.2V29
				c0-5.5-4.4-10-9.7-10.1c-2.7-0.1-5.3,0.9-7.2,2.8c-1.9,1.9-3,4.4-3,7.1v19.4c0,5.5,4.4,10,9.7,10.1c2.7,0.1,5.3-0.9,7.2-2.8
				c1.9-1.9,3-4.4,3-7.1V43.6z M84.3,35.7v-6.8c0-1.5,1.2-2.7,2.7-2.7c1.5,0,2.7,1.2,2.7,2.7v6.8c0,1.5-1.2,2.7-2.7,2.7
				C85.5,38.3,84.3,37.1,84.3,35.7 M86.1,35.7c0,0.5,0.4,0.8,0.8,0.8c0.5,0,0.8-0.4,0.8-0.8v-6.8c0-0.5-0.4-0.8-0.8-0.8
				c-0.5,0-0.8,0.4-0.8,0.8V35.7z"/>
			<polygon style="clip-path:url(#SVGID_00000127759215713140889160000012623087101451292848_);fill:#FFFFFF;" points="222.6,30.2 
				222.2,30.2 222.2,29.9 223.2,29.9 223.2,30.2 222.9,30.2 222.9,31.2 222.6,31.2 			"/>
			<path style="clip-path:url(#SVGID_00000127759215713140889160000012623087101451292848_);fill:#FFFFFF;" d="M224.4,30.7
				c0-0.2,0-0.3,0-0.5h0c0,0.2-0.1,0.3-0.1,0.5l-0.2,0.5h-0.2l-0.1-0.5c0-0.1-0.1-0.3-0.1-0.5h0c0,0.2,0,0.4,0,0.5l0,0.5h-0.3
				l0.1-1.3h0.4l0.1,0.4c0,0.1,0.1,0.3,0.1,0.4h0c0-0.1,0.1-0.3,0.1-0.5l0.1-0.4h0.4l0.1,1.3h-0.3L224.4,30.7z"/>
		</g>
	</g>
</g>
</svg>
