<svg id="Layer_1" xmlns="http://www.w3.org/2000/svg" viewBox="0 0 320 50"><style>.st0{fill:#edf4fd}.st1{fill:#021d8b}</style><g id="Button_6_"><path class="st0" d="M65.92 44.66H27.15c-7.16 0-12.97-5.81-12.97-12.97 0-7.16 5.81-12.97 12.97-12.97h38.77c7.16 0 12.97 5.81 12.97 12.97-.01 7.17-5.81 12.97-12.97 12.97z"/><path class="st1" d="M32.53 32.32c0 1.06-.24 1.91-.72 2.54-.48.64-1.13.96-1.95.96-.69 0-1.25-.24-1.68-.72v3.24h-1.83v-9.51h1.7l.06.67c.44-.53 1.02-.8 1.74-.8.85 0 1.5.31 1.97.94s.7 1.49.7 2.59v.09zm-1.83-.13c0-.64-.11-1.13-.34-1.48-.23-.35-.56-.52-.99-.52-.58 0-.97.22-1.19.66v2.81c.22.45.62.68 1.2.68.88 0 1.32-.72 1.32-2.15zM37.53 30.54a5.73 5.73 0 0 0-.66-.05c-.69 0-1.15.23-1.36.7v4.49h-1.83v-6.87h1.73l.05.82c.37-.63.88-.95 1.53-.95.2 0 .39.03.57.08l-.03 1.78zM37.9 32.19c0-.68.13-1.29.39-1.82s.64-.95 1.13-1.24c.49-.29 1.07-.44 1.72-.44.93 0 1.68.28 2.27.85.59.57.91 1.34.98 2.31l.01.47c0 1.05-.29 1.9-.88 2.54-.59.64-1.38.96-2.37.96s-1.78-.32-2.37-.95c-.59-.63-.89-1.5-.89-2.59v-.09zm1.83.13c0 .65.12 1.15.37 1.5s.6.52 1.05.52c.44 0 .79-.17 1.04-.51s.37-.89.37-1.64c0-.64-.12-1.14-.37-1.49-.25-.35-.6-.53-1.05-.53-.45 0-.8.17-1.04.52s-.37.9-.37 1.63zM47.73 27.13v1.69h1.17v1.35h-1.17v3.43c0 .25.05.44.15.55s.28.17.56.17c.2 0 .38-.01.54-.04v1.39c-.36.11-.73.17-1.11.17-1.29 0-1.94-.65-1.97-1.95v-3.7h-1v-1.35h1v-1.69h1.83zM53.09 35.82c-1.01 0-1.83-.31-2.46-.93-.63-.62-.95-1.44-.95-2.47v-.18c0-.69.13-1.31.4-1.85s.64-.96 1.13-1.26c.49-.29 1.05-.44 1.67-.44.94 0 1.68.3 2.22.89.54.59.81 1.43.81 2.52v.75h-4.37c.06.45.24.81.54 1.08.3.27.68.41 1.13.41.71 0 1.26-.26 1.66-.77l.9 1.01c-.27.39-.65.69-1.12.91-.47.22-.99.33-1.56.33zm-.21-5.65c-.36 0-.66.12-.89.37-.23.25-.37.6-.43 1.06h2.55v-.15c-.01-.41-.12-.72-.33-.95s-.51-.33-.9-.33zM59.81 34.34c.34 0 .61-.09.83-.28s.32-.43.33-.74h1.72c0 .47-.13.89-.38 1.28s-.59.69-1.03.9c-.43.21-.91.32-1.44.32-.98 0-1.76-.31-2.32-.94-.57-.62-.85-1.49-.85-2.59v-.12c0-1.06.28-1.9.84-2.53s1.33-.95 2.32-.95c.86 0 1.55.24 2.07.73.52.49.78 1.14.79 1.95h-1.72c-.01-.36-.12-.65-.33-.87-.21-.22-.49-.33-.84-.33-.43 0-.75.16-.97.47-.22.31-.33.82-.33 1.52v.19c0 .71.11 1.22.32 1.53.22.3.55.46.99.46zM65.93 27.13v1.69h1.17v1.35h-1.17v3.43c0 .25.05.44.15.55s.28.17.56.17c.2 0 .38-.01.54-.04v1.39c-.36.11-.73.17-1.11.17-1.29 0-1.94-.65-1.97-1.95v-3.7h-1v-1.35h1v-1.69h1.83z"/></g></svg>