<?xml version="1.0" encoding="utf-8"?>
<!-- Generator: Adobe Illustrator 26.3.1, SVG Export Plug-In . SVG Version: 6.00 Build 0)  -->
<svg version="1.1" id="Layer_1" xmlns="http://www.w3.org/2000/svg" xmlns:xlink="http://www.w3.org/1999/xlink" x="0px" y="0px"
	 viewBox="0 0 300 250" style="enable-background:new 0 0 300 250;" xml:space="preserve">
<style type="text/css">
	.st0{fill:#E82D8A;stroke:#FFFFFF;stroke-width:0.75;stroke-miterlimit:10;}
	.st1{fill:#FFFFFF;}
</style>
<path class="st0" d="M198.1,187.7H102c-13.4,0-24.3-10.9-24.3-24.3v0c0-13.4,10.9-24.3,24.3-24.3h96.1c13.4,0,24.3,10.9,24.3,24.3v0
	C222.3,176.9,211.5,187.7,198.1,187.7z"/>
<g>
	<path class="st1" d="M131.2,156.9c-0.1,1.3-0.6,2.3-1.4,3.1s-2,1.1-3.4,1.1c-1.5,0-2.8-0.5-3.6-1.6c-0.9-1-1.3-2.5-1.3-4.3v-0.7
		c0-1.2,0.2-2.2,0.6-3.1c0.4-0.9,1-1.6,1.7-2c0.8-0.5,1.6-0.7,2.6-0.7c1.4,0,2.5,0.4,3.4,1.1s1.3,1.8,1.5,3.1h-2.5
		c-0.1-0.8-0.3-1.3-0.6-1.7s-0.9-0.5-1.7-0.5c-0.8,0-1.4,0.3-1.9,0.9s-0.6,1.5-0.6,2.8v0.9c0,1.3,0.2,2.2,0.6,2.8
		c0.4,0.6,1,0.9,1.9,0.9c0.8,0,1.3-0.2,1.7-0.5s0.6-0.9,0.6-1.6H131.2z"/>
	<path class="st1" d="M135.2,160.9h-2.4v-12.7h2.4V160.9z"/>
	<path class="st1" d="M137.2,149.7c0-0.4,0.1-0.7,0.4-0.9c0.2-0.2,0.6-0.3,1-0.3c0.4,0,0.7,0.1,1,0.3s0.4,0.5,0.4,0.9
		c0,0.4-0.1,0.7-0.4,0.9c-0.2,0.2-0.6,0.3-1,0.3c-0.4,0-0.7-0.1-1-0.3C137.3,150.4,137.2,150.1,137.2,149.7z M139.7,160.9h-2.4V152
		h2.4V160.9z"/>
	<path class="st1" d="M145.4,159.2c0.4,0,0.8-0.1,1.1-0.4c0.3-0.2,0.4-0.6,0.4-1h2.2c0,0.6-0.2,1.2-0.5,1.7
		c-0.3,0.5-0.8,0.9-1.3,1.2c-0.6,0.3-1.2,0.4-1.9,0.4c-1.3,0-2.3-0.4-3-1.2c-0.7-0.8-1.1-1.9-1.1-3.4v-0.2c0-1.4,0.4-2.5,1.1-3.3
		s1.7-1.2,3-1.2c1.1,0,2,0.3,2.7,1c0.7,0.6,1,1.5,1,2.5h-2.2c0-0.5-0.2-0.8-0.4-1.1c-0.3-0.3-0.6-0.4-1.1-0.4c-0.6,0-1,0.2-1.3,0.6
		c-0.3,0.4-0.4,1.1-0.4,2v0.2c0,0.9,0.1,1.6,0.4,2S144.8,159.2,145.4,159.2z"/>
	<path class="st1" d="M153.7,157.4l-0.9,0.9v2.7h-2.4v-12.7h2.4v7l0.5-0.6l2.3-2.7h2.9l-3.2,3.7l3.5,5.2H156L153.7,157.4z"/>
	<path class="st1" d="M166.6,149.8v2.2h1.5v1.8h-1.5v4.5c0,0.3,0.1,0.6,0.2,0.7c0.1,0.1,0.4,0.2,0.7,0.2c0.3,0,0.5,0,0.7-0.1v1.8
		c-0.5,0.1-0.9,0.2-1.4,0.2c-1.7,0-2.5-0.8-2.6-2.5v-4.8h-1.3V152h1.3v-2.2H166.6z"/>
	<path class="st1" d="M168.8,156.4c0-0.9,0.2-1.7,0.5-2.4c0.3-0.7,0.8-1.2,1.5-1.6c0.6-0.4,1.4-0.6,2.2-0.6c1.2,0,2.2,0.4,3,1.1
		c0.8,0.7,1.2,1.7,1.3,3l0,0.6c0,1.4-0.4,2.5-1.1,3.3c-0.8,0.8-1.8,1.2-3.1,1.2c-1.3,0-2.3-0.4-3.1-1.2s-1.2-1.9-1.2-3.4V156.4z
		 M171.2,156.6c0,0.8,0.2,1.5,0.5,1.9s0.8,0.7,1.4,0.7c0.6,0,1-0.2,1.4-0.7c0.3-0.4,0.5-1.2,0.5-2.1c0-0.8-0.2-1.5-0.5-1.9
		c-0.3-0.5-0.8-0.7-1.4-0.7c-0.6,0-1,0.2-1.4,0.7C171.4,154.9,171.2,155.6,171.2,156.6z"/>
	<path class="st1" d="M111.7,178.9h-2.4v-12.7h2.4V178.9z"/>
	<path class="st1" d="M117.8,179.1c-1.3,0-2.4-0.4-3.2-1.2s-1.2-1.9-1.2-3.2v-0.2c0-0.9,0.2-1.7,0.5-2.4c0.3-0.7,0.8-1.3,1.5-1.6
		c0.6-0.4,1.4-0.6,2.2-0.6c1.2,0,2.2,0.4,2.9,1.2s1.1,1.9,1.1,3.3v1h-5.7c0.1,0.6,0.3,1.1,0.7,1.4c0.4,0.4,0.9,0.5,1.5,0.5
		c0.9,0,1.6-0.3,2.2-1l1.2,1.3c-0.4,0.5-0.8,0.9-1.5,1.2C119.2,179,118.5,179.1,117.8,179.1z M117.5,171.8c-0.5,0-0.9,0.2-1.2,0.5
		c-0.3,0.3-0.5,0.8-0.6,1.4h3.3v-0.2c0-0.5-0.2-0.9-0.4-1.2S118,171.8,117.5,171.8z"/>
	<path class="st1" d="M128,178.9c-0.1-0.2-0.2-0.5-0.2-0.8c-0.6,0.6-1.3,1-2.3,1c-0.9,0-1.6-0.3-2.2-0.8c-0.6-0.5-0.9-1.1-0.9-1.9
		c0-0.9,0.4-1.7,1.1-2.2c0.7-0.5,1.7-0.8,3-0.8h1.1V173c0-0.4-0.1-0.7-0.3-1c-0.2-0.2-0.5-0.4-1-0.4c-0.4,0-0.7,0.1-0.9,0.3
		c-0.2,0.2-0.3,0.5-0.3,0.8h-2.4c0-0.5,0.2-1,0.5-1.4s0.8-0.8,1.4-1c0.6-0.3,1.2-0.4,2-0.4c1.1,0,2,0.3,2.6,0.8c0.6,0.6,1,1.3,1,2.3
		v3.9c0,0.8,0.1,1.5,0.4,1.9v0.1H128z M126,177.3c0.4,0,0.7-0.1,1-0.2c0.3-0.2,0.5-0.4,0.7-0.6v-1.5h-0.9c-1.2,0-1.8,0.4-1.9,1.2
		l0,0.1c0,0.3,0.1,0.5,0.3,0.7S125.7,177.3,126,177.3z"/>
	<path class="st1" d="M136.9,172.2c-0.3,0-0.6-0.1-0.9-0.1c-0.9,0-1.5,0.3-1.8,0.9v5.8h-2.4V170h2.3l0.1,1.1c0.5-0.8,1.1-1.2,2-1.2
		c0.3,0,0.5,0,0.7,0.1L136.9,172.2z"/>
	<path class="st1" d="M140.2,170l0.1,1c0.6-0.8,1.5-1.2,2.6-1.2c0.9,0,1.7,0.3,2.1,0.8c0.5,0.6,0.7,1.4,0.7,2.5v5.8h-2.4v-5.7
		c0-0.5-0.1-0.9-0.3-1.1s-0.6-0.3-1.1-0.3c-0.7,0-1.2,0.3-1.5,0.9v6.3H138V170H140.2z"/>
	<path class="st1" d="M154,170l0.1,1c0.6-0.8,1.5-1.2,2.6-1.2c1.2,0,1.9,0.5,2.4,1.4c0.6-0.9,1.5-1.4,2.7-1.4c1,0,1.7,0.3,2.2,0.8
		c0.5,0.6,0.7,1.4,0.7,2.5v5.7h-2.4v-5.7c0-0.5-0.1-0.9-0.3-1.1c-0.2-0.2-0.5-0.4-1-0.4c-0.7,0-1.2,0.3-1.5,1l0,6.1h-2.4v-5.7
		c0-0.5-0.1-0.9-0.3-1.1c-0.2-0.2-0.6-0.3-1-0.3c-0.7,0-1.2,0.3-1.5,0.8v6.3h-2.4V170H154z"/>
	<path class="st1" d="M166,174.4c0-0.9,0.2-1.7,0.5-2.4c0.3-0.7,0.8-1.2,1.5-1.6c0.6-0.4,1.4-0.6,2.2-0.6c1.2,0,2.2,0.4,3,1.1
		c0.8,0.7,1.2,1.7,1.3,3l0,0.6c0,1.4-0.4,2.5-1.1,3.3c-0.8,0.8-1.8,1.2-3.1,1.2c-1.3,0-2.3-0.4-3.1-1.2s-1.2-1.9-1.2-3.4V174.4z
		 M168.4,174.6c0,0.8,0.2,1.5,0.5,1.9s0.8,0.7,1.4,0.7c0.6,0,1-0.2,1.4-0.7c0.3-0.4,0.5-1.2,0.5-2.1c0-0.8-0.2-1.5-0.5-1.9
		c-0.3-0.5-0.8-0.7-1.4-0.7c-0.6,0-1,0.2-1.4,0.7C168.5,172.9,168.4,173.6,168.4,174.6z"/>
	<path class="st1" d="M180.9,172.2c-0.3,0-0.6-0.1-0.9-0.1c-0.9,0-1.5,0.3-1.8,0.9v5.8h-2.4V170h2.3l0.1,1.1c0.5-0.8,1.1-1.2,2-1.2
		c0.3,0,0.5,0,0.7,0.1L180.9,172.2z"/>
	<path class="st1" d="M186.2,179.1c-1.3,0-2.4-0.4-3.2-1.2c-0.8-0.8-1.2-1.9-1.2-3.2v-0.2c0-0.9,0.2-1.7,0.5-2.4
		c0.3-0.7,0.8-1.3,1.5-1.6s1.4-0.6,2.2-0.6c1.2,0,2.2,0.4,2.9,1.2c0.7,0.8,1.1,1.9,1.1,3.3v1h-5.7c0.1,0.6,0.3,1.1,0.7,1.4
		c0.4,0.4,0.9,0.5,1.5,0.5c0.9,0,1.6-0.3,2.2-1l1.2,1.3c-0.4,0.5-0.8,0.9-1.5,1.2C187.6,179,186.9,179.1,186.2,179.1z M185.9,171.8
		c-0.5,0-0.9,0.2-1.2,0.5c-0.3,0.3-0.5,0.8-0.6,1.4h3.3v-0.2c0-0.5-0.2-0.9-0.4-1.2C186.8,171.9,186.4,171.8,185.9,171.8z"/>
</g>
</svg>
