<svg id="Layer_1" xmlns="http://www.w3.org/2000/svg" viewBox="0 0 320 50"><style>.st0{fill:url(#SVGID_1_)}</style><linearGradient id="SVGID_1_" gradientUnits="userSpaceOnUse" x1="104.203" y1="26.002" x2="241.619" y2="26.002"><stop offset="0" stop-color="#18b9fb"/><stop offset=".5" stop-color="#782eeb"/><stop offset="1" stop-color="#e82d8a"/></linearGradient><path class="st0" d="M110.02 21.91c-.26.29-.63.52-1.13.69-.5.17-1.04.26-1.63.26-.91 0-1.63-.28-2.18-.83-.54-.56-.83-1.33-.87-2.32v-.6c0-.68.12-1.28.36-1.79s.59-.9 1.04-1.18c.45-.27.97-.41 1.56-.41.86 0 1.54.2 2.01.59.48.4.76.99.84 1.77h-1.61c-.06-.39-.18-.66-.37-.83-.19-.16-.46-.25-.81-.25-.42 0-.74.18-.97.53-.23.36-.34.86-.35 1.52v.42c0 .69.12 1.21.35 1.56.24.35.61.52 1.12.52.43 0 .76-.1.97-.29v-1.08h-1.16v-1.15h2.84v2.87zm3.39.95c-.79 0-1.43-.24-1.92-.71s-.73-1.09-.73-1.84v-.13c0-.53.1-.99.29-1.4.2-.4.48-.72.86-.94.37-.22.82-.33 1.33-.33.72 0 1.3.22 1.72.67.42.45.63 1.08.63 1.88v.62h-3.19c.06.29.18.52.38.68.19.17.44.25.75.25.51 0 .91-.18 1.19-.53l.73.87c-.2.28-.48.5-.85.66-.37.17-.77.25-1.19.25zm-.18-4.11c-.47 0-.75.31-.84.93h1.62v-.12c.01-.26-.06-.46-.2-.6-.13-.14-.33-.21-.58-.21zm4.87-2.42v1.28h.85v1.12h-.85v2.36c0 .19.03.33.1.4.07.08.21.11.41.11.16 0 .29-.01.4-.03v1.15c-.29.09-.59.14-.91.14-.55 0-.96-.13-1.22-.39s-.4-.66-.4-1.19v-2.56h-.66V17.6h.66v-1.28h1.62zm5.78 0v1.28h.85v1.12h-.85v2.36c0 .19.03.33.1.4.07.08.21.11.41.11.16 0 .29-.01.4-.03v1.15c-.29.09-.59.14-.91.14-.55 0-.96-.13-1.22-.39s-.4-.66-.4-1.19v-2.56h-.66V17.6h.66v-1.28h1.62zm4.6 2.73l-.53-.04c-.51 0-.83.16-.97.48v3.26h-1.61V17.6h1.51l.05.66c.27-.5.65-.76 1.13-.76.17 0 .32.02.45.06l-.03 1.5zm.57-2.78c0-.23.08-.42.25-.56.17-.15.38-.22.64-.22s.48.07.64.22c.17.15.25.33.25.56 0 .23-.08.42-.25.56-.17.15-.38.22-.64.22s-.48-.07-.64-.22a.69.69 0 0 1-.25-.56zm1.7 6.49h-1.61v-5.16h1.61v5.16zm5.78-2.54c0 .8-.18 1.44-.54 1.92-.36.48-.85.72-1.46.72-.47 0-.86-.17-1.17-.52v2.41h-1.61v-7.14h1.5l.05.48c.31-.38.71-.57 1.22-.57.64 0 1.13.23 1.48.7.35.47.53 1.11.53 1.93v.07zm-1.61-.1c0-.91-.27-1.37-.8-1.37-.38 0-.64.14-.76.41v2.03c.14.29.4.43.77.43.51 0 .78-.44.79-1.32v-.18zm4.01 2.64h-1.61v-7.32h1.61v7.32zm3.48.09c-.79 0-1.43-.24-1.92-.71s-.73-1.09-.73-1.84v-.13c0-.53.1-.99.29-1.4.2-.4.48-.72.86-.94.37-.22.82-.33 1.33-.33.72 0 1.3.22 1.72.67.42.45.63 1.08.63 1.88v.62h-3.19c.06.29.18.52.38.68.19.17.44.25.75.25.51 0 .91-.18 1.19-.53l.73.87c-.2.28-.48.5-.85.66-.37.17-.77.25-1.19.25zm-.18-4.11c-.47 0-.75.31-.84.93h1.62v-.12c.01-.26-.06-.46-.2-.6-.13-.14-.32-.21-.58-.21zm6.14 1.64h-2.86v-1.24h2.86v1.24zm6.04-.16c0 .85-.18 1.49-.52 1.95-.35.45-.84.68-1.48.68-.52 0-.95-.21-1.27-.62l-.07.53h-1.44v-7.32h1.61v2.58c.3-.34.68-.51 1.16-.51.64 0 1.14.23 1.49.69.35.46.52 1.11.52 1.94v.08zm-1.61-.1c0-.49-.07-.85-.2-1.06-.13-.21-.33-.32-.61-.32-.36 0-.61.14-.75.41v2.05c.14.27.39.41.76.41.38 0 .62-.18.72-.55.05-.18.08-.5.08-.94zm5.39 2.08c-.34.44-.8.65-1.38.65-.57 0-.99-.16-1.28-.49-.29-.33-.44-.8-.44-1.42v-3.34h1.61v3.35c0 .44.21.66.64.66.37 0 .63-.13.79-.4V17.6h1.62v5.16h-1.51l-.05-.55zm5.55-3.15l-.53-.04c-.51 0-.83.16-.97.48v3.26h-1.61V17.6h1.51l.05.66c.27-.5.65-.76 1.13-.76.17 0 .32.02.45.06l-.03 1.5zm2.98 3.8c-.79 0-1.43-.24-1.92-.71s-.73-1.09-.73-1.84v-.13c0-.53.1-.99.29-1.4.2-.4.48-.72.86-.94.37-.22.82-.33 1.33-.33.72 0 1.3.22 1.72.67.42.45.63 1.08.63 1.88v.62h-3.19c.06.29.18.52.38.68.19.17.44.25.75.25.51 0 .91-.18 1.19-.53l.73.87c-.2.28-.48.5-.85.66-.37.17-.77.25-1.19.25zm-.18-4.11c-.47 0-.75.31-.84.93h1.62v-.12c.01-.26-.06-.46-.2-.6-.13-.14-.33-.21-.58-.21zm5.9 4.02c-.06-.1-.11-.26-.15-.46-.3.37-.71.56-1.24.56-.49 0-.9-.15-1.24-.44-.34-.29-.51-.66-.51-1.11 0-.56.21-.98.62-1.27.41-.29 1.01-.43 1.8-.43h.5v-.27c0-.48-.2-.71-.61-.71-.38 0-.57.19-.57.57h-1.61c0-.5.21-.9.64-1.21.42-.31.97-.47 1.62-.47.66 0 1.18.16 1.56.48.38.32.58.76.59 1.32v2.28c.01.47.08.84.22 1.09v.08h-1.62zm-1-1.05c.2 0 .37-.04.5-.13s.23-.18.28-.29v-.82h-.47c-.56 0-.84.25-.84.75 0 .15.05.26.15.36.1.08.23.13.38.13zm6.35.49c-.34.44-.8.65-1.38.65-.57 0-.99-.16-1.28-.49-.29-.33-.44-.8-.44-1.42v-3.34h1.61v3.35c0 .44.21.66.64.66.37 0 .63-.13.79-.4V17.6h1.62v5.16h-1.51l-.05-.55zm7.04-.59c.23 0 .4-.06.52-.18s.18-.29.18-.51h1.51c0 .57-.2 1.03-.61 1.39-.4.36-.93.54-1.57.54-.75 0-1.34-.24-1.77-.71s-.65-1.12-.65-1.95v-.07c0-.52.1-.98.29-1.38.19-.4.47-.71.83-.92.36-.21.79-.32 1.29-.32.67 0 1.2.19 1.6.56.39.37.59.88.59 1.51h-1.51c0-.27-.07-.47-.2-.61a.67.67 0 0 0-.52-.21c-.42 0-.66.27-.73.8-.02.17-.03.4-.03.7 0 .52.06.88.19 1.08.13.18.32.28.59.28zm6.01-2.56l-.53-.04c-.51 0-.83.16-.97.48v3.26h-1.61V17.6h1.51l.05.66c.27-.5.65-.76 1.13-.76.17 0 .32.02.45.06l-.03 1.5zm2.99 3.8c-.79 0-1.43-.24-1.92-.71s-.73-1.09-.73-1.84v-.13c0-.53.1-.99.29-1.4.2-.4.48-.72.86-.94.37-.22.82-.33 1.33-.33.72 0 1.3.22 1.72.67.42.45.63 1.08.63 1.88v.62h-3.19c.06.29.18.52.38.68.19.17.44.25.75.25.51 0 .91-.18 1.19-.53l.73.87c-.2.28-.48.5-.85.66-.38.17-.77.25-1.19.25zm-.18-4.11c-.47 0-.75.31-.84.93h1.62v-.12c.01-.26-.06-.46-.2-.6-.14-.14-.33-.21-.58-.21zm2.79 1.4c0-.82.18-1.46.53-1.93.35-.47.84-.71 1.48-.71.46 0 .85.18 1.16.54v-2.61h1.61v7.32h-1.44l-.08-.55c-.33.43-.75.65-1.26.65-.61 0-1.1-.24-1.46-.71s-.54-1.13-.54-2zm1.61.1c0 .91.27 1.37.8 1.37.36 0 .61-.15.76-.45v-1.96c-.15-.3-.4-.46-.75-.46-.5 0-.76.4-.81 1.2v.3zm4.07-3.97c0-.23.08-.42.25-.56.17-.15.38-.22.64-.22s.48.07.64.22c.17.15.25.33.25.56 0 .23-.08.42-.25.56-.17.15-.38.22-.64.22s-.48-.07-.64-.22a.72.72 0 0 1-.25-.56zm1.71 6.49h-1.61v-5.16h1.61v5.16zm2.86-6.44v1.28h.85v1.12h-.85v2.36c0 .19.03.33.1.4.07.08.21.11.41.11.16 0 .29-.01.4-.03v1.15c-.29.09-.59.14-.91.14-.55 0-.96-.13-1.22-.39s-.4-.66-.4-1.19v-2.56h-.66V17.6h.66v-1.28h1.62zm6.61 4.99c0-.14-.07-.25-.21-.33-.14-.08-.41-.17-.82-.26-.4-.09-.73-.21-.99-.35-.26-.14-.46-.32-.6-.53-.14-.21-.21-.44-.21-.71 0-.47.2-.86.59-1.17.39-.31.9-.46 1.53-.46.68 0 1.23.15 1.64.46.41.31.62.71.62 1.22h-1.61c0-.41-.22-.62-.65-.62-.17 0-.31.05-.42.14a.44.44 0 0 0-.17.35c0 .14.07.26.21.35.14.09.36.16.67.22.31.06.58.13.81.2.78.27 1.16.75 1.16 1.43 0 .47-.21.85-.63 1.15-.42.3-.96.44-1.62.44-.44 0-.84-.08-1.18-.24-.35-.16-.62-.37-.81-.65-.19-.27-.29-.56-.29-.86h1.5c.01.24.09.41.24.52.15.11.35.16.59.16.22 0 .38-.04.49-.13.1-.07.16-.19.16-.33zm4.48.3c.23 0 .4-.06.52-.18s.18-.29.18-.51h1.51c0 .57-.2 1.03-.61 1.39-.4.36-.93.54-1.57.54-.75 0-1.34-.24-1.77-.71s-.65-1.12-.65-1.95v-.07c0-.52.1-.98.29-1.38.19-.4.47-.71.83-.92.36-.21.79-.32 1.29-.32.67 0 1.2.19 1.6.56.39.37.59.88.59 1.51h-1.51c0-.27-.07-.47-.2-.61a.67.67 0 0 0-.52-.21c-.42 0-.66.27-.73.8-.02.17-.03.4-.03.7 0 .52.06.88.19 1.08.12.18.32.28.59.28zm2.68-1.48c0-.51.1-.97.3-1.37.2-.4.49-.71.86-.93.37-.22.82-.32 1.32-.32.77 0 1.38.24 1.83.72.44.48.67 1.13.67 1.95v.06c0 .8-.22 1.44-.67 1.91-.45.47-1.05.71-1.81.71-.73 0-1.32-.22-1.77-.66-.44-.44-.68-1.04-.72-1.79l-.01-.28zm1.61.1c0 .48.07.83.22 1.05.15.22.37.33.66.33.57 0 .86-.44.88-1.32v-.16c0-.92-.3-1.39-.89-1.39-.54 0-.83.4-.87 1.2v.29zm7.2-1.18l-.53-.04c-.51 0-.83.16-.97.48v3.26h-1.61V17.6h1.51l.05.66c.27-.5.65-.76 1.13-.76.17 0 .32.02.45.06l-.03 1.5zm2.98 3.8c-.79 0-1.43-.24-1.92-.71s-.73-1.09-.73-1.84v-.13c0-.53.1-.99.29-1.4.2-.4.48-.72.86-.94.37-.22.82-.33 1.33-.33.72 0 1.3.22 1.72.67.42.45.63 1.08.63 1.88v.62h-3.19c.06.29.18.52.38.68.19.17.44.25.75.25.51 0 .91-.18 1.19-.53l.73.87c-.2.28-.48.5-.85.66-.37.17-.77.25-1.19.25zm-.18-4.11c-.47 0-.75.31-.84.93h1.62v-.12c.01-.26-.06-.46-.2-.6-.13-.14-.33-.21-.58-.21zm5.7 2.57c0-.14-.07-.25-.21-.33-.14-.08-.41-.17-.82-.26-.4-.09-.73-.21-.99-.35-.26-.14-.46-.32-.6-.53-.14-.21-.21-.44-.21-.71 0-.47.2-.86.59-1.17.39-.31.9-.46 1.53-.46.68 0 1.23.15 1.64.46.41.31.62.71.62 1.22h-1.61c0-.41-.22-.62-.65-.62-.17 0-.31.05-.42.14a.44.44 0 0 0-.17.35c0 .14.07.26.21.35.14.09.36.16.67.22.31.06.58.13.81.2.78.27 1.16.75 1.16 1.43 0 .47-.21.85-.63 1.15-.42.3-.96.44-1.62.44-.44 0-.84-.08-1.18-.24-.35-.16-.62-.37-.81-.65-.19-.27-.29-.56-.29-.86h1.5c.01.24.09.41.24.52.15.11.35.16.59.16.22 0 .38-.04.49-.13.1-.07.16-.19.16-.33zm2.86 3.31l-.81-.38.16-.32c.22-.41.34-.81.35-1.18v-1.19h1.29v1.03c0 .37-.1.74-.28 1.11-.19.38-.43.69-.71.93zm-133.25 6.14l-.53-.04c-.51 0-.83.16-.97.48v3.26h-1.61v-5.16h1.51l.05.66c.27-.5.65-.76 1.13-.76.17 0 .32.02.45.06l-.03 1.5zm2.98 3.8c-.79 0-1.43-.24-1.92-.71s-.73-1.09-.73-1.84v-.13c0-.53.1-.99.29-1.4.2-.4.48-.72.86-.94.37-.22.82-.33 1.33-.33.72 0 1.3.22 1.72.67.42.45.63 1.08.63 1.88v.62h-3.19c.06.29.18.52.38.68.19.17.44.25.75.25.51 0 .91-.18 1.19-.53l.73.87c-.2.28-.48.5-.85.66-.37.17-.76.25-1.19.25zm-.18-4.11c-.47 0-.75.31-.84.93h1.62v-.12c.01-.26-.06-.46-.2-.6-.13-.14-.32-.21-.58-.21zm3.36 4.02v-4.04h-.75v-1.12h.75v-.41c0-.59.17-1.04.52-1.37.35-.32.83-.49 1.46-.49.23 0 .48.03.75.1v1.18c-.1-.03-.23-.04-.4-.04-.49 0-.73.21-.73.63v.4h1.01v1.12h-1.01v4.04h-1.6zm6.3-3.71l-.53-.04c-.51 0-.83.16-.97.48v3.26h-1.61v-5.16h1.51l.05.66c.27-.5.65-.76 1.13-.76.17 0 .32.02.45.06l-.03 1.5zm2.98 3.8c-.79 0-1.43-.24-1.92-.71s-.73-1.09-.73-1.84v-.13c0-.53.1-.99.29-1.4.2-.4.48-.72.86-.94.37-.22.82-.33 1.33-.33.72 0 1.3.22 1.72.67.42.45.63 1.08.63 1.88v.62h-3.19c.06.29.18.52.38.68.19.17.44.25.75.25.51 0 .91-.18 1.19-.53l.73.87c-.2.28-.48.5-.85.66-.37.17-.77.25-1.19.25zm-.18-4.11c-.47 0-.75.31-.84.93h1.62v-.12c.01-.26-.06-.46-.2-.6-.13-.14-.33-.21-.58-.21zm5.7 2.57c0-.14-.07-.25-.21-.33s-.41-.17-.82-.26c-.4-.09-.73-.21-.99-.35-.26-.14-.46-.32-.6-.53-.14-.21-.21-.44-.21-.71 0-.47.2-.86.59-1.17.39-.31.9-.46 1.53-.46.68 0 1.23.15 1.64.46.41.31.62.71.62 1.22h-1.61c0-.41-.22-.62-.65-.62-.17 0-.31.05-.42.14a.44.44 0 0 0-.17.35c0 .14.07.26.21.35.14.09.36.16.67.22.31.06.58.13.81.2.78.27 1.16.75 1.16 1.43 0 .47-.21.85-.63 1.15-.42.3-.96.44-1.62.44-.44 0-.84-.08-1.18-.24-.35-.16-.62-.37-.81-.65-.19-.27-.29-.56-.29-.86h1.5c.01.24.09.41.24.52.15.11.35.16.59.16.22 0 .38-.04.49-.13.11-.07.16-.19.16-.33zm3.87-3.16c.34-.43.78-.65 1.32-.65.57 0 1 .17 1.29.51.29.34.44.83.44 1.49v3.25h-1.61v-3.22c0-.27-.06-.47-.17-.6-.11-.13-.3-.19-.57-.19-.33 0-.56.1-.7.31v3.7h-1.61v-7.32h1.61v2.72zm6.43 4.7c-.79 0-1.43-.24-1.92-.71s-.73-1.09-.73-1.84v-.13c0-.53.1-.99.29-1.4.2-.4.48-.72.86-.94.37-.22.82-.33 1.33-.33.72 0 1.3.22 1.72.67.42.45.63 1.08.63 1.88v.62h-3.19c.06.29.18.52.38.68.19.17.44.25.75.25.51 0 .91-.18 1.19-.53l.73.87c-.2.28-.48.5-.85.66-.37.17-.76.25-1.19.25zm-.18-4.11c-.47 0-.75.31-.84.93h1.62v-.12c.01-.26-.06-.46-.2-.6-.13-.14-.32-.21-.58-.21zm2.8 1.4c0-.82.18-1.46.53-1.93.35-.47.84-.71 1.48-.71.46 0 .85.18 1.16.54v-2.61h1.61v7.32h-1.44l-.08-.55c-.33.43-.75.65-1.26.65-.61 0-1.1-.24-1.46-.71s-.54-1.13-.54-2zm1.6.1c0 .91.27 1.37.8 1.37.36 0 .61-.15.76-.45v-1.96c-.15-.3-.4-.46-.75-.46-.5 0-.76.4-.81 1.2v.3zm7.55-1.14c-.19-.27-.33-.52-.44-.76-.11-.24-.16-.49-.16-.75 0-.56.18-1.01.54-1.36.36-.34.84-.52 1.42-.52.52 0 .96.16 1.3.48.34.32.51.72.51 1.19 0 .59-.33 1.12-.98 1.57l-.36.25 1.07 1.22c.17-.35.26-.73.26-1.15h1.35c0 .94-.22 1.69-.65 2.25l1.06 1.22h-1.79l-.32-.37c-.27.16-.54.28-.82.35-.28.08-.59.11-.94.11-.69 0-1.24-.18-1.65-.54-.41-.36-.62-.83-.62-1.42 0-.32.08-.61.25-.87.16-.26.48-.56.96-.91l.01.01zm1.16 2.52c.28 0 .55-.06.8-.2l-1.25-1.42-.04.03c-.18.22-.27.47-.27.75 0 .23.07.43.22.59.14.17.33.25.54.25zm-.37-4.05c0 .22.12.49.36.81l.32-.2c.15-.1.25-.19.32-.3.07-.1.1-.23.1-.39 0-.15-.05-.27-.15-.38a.492.492 0 0 0-.38-.16c-.18 0-.32.06-.42.17a.68.68 0 0 0-.15.45zm9.06-1.25v1.28h.85v1.12h-.85v2.36c0 .19.03.33.1.4.07.08.21.11.41.11.16 0 .29-.01.4-.03v1.15c-.29.09-.59.14-.91.14-.55 0-.96-.13-1.22-.39s-.4-.66-.4-1.19v-2.56H158v-1.12h.66v-1.28h1.6zm4.6 2.73l-.53-.04c-.51 0-.83.16-.97.48v3.26h-1.61v-5.16h1.51l.05.66c.27-.5.65-.76 1.13-.76.17 0 .32.02.45.06l-.03 1.5zm3.34 3.71c-.06-.1-.11-.26-.15-.46-.3.37-.71.56-1.24.56-.49 0-.9-.15-1.24-.44-.34-.29-.51-.66-.51-1.11 0-.56.21-.98.62-1.27.41-.29 1.01-.43 1.8-.43h.5v-.27c0-.48-.2-.71-.61-.71-.38 0-.57.19-.57.57h-1.61c0-.5.21-.9.64-1.21.42-.31.97-.47 1.62-.47.66 0 1.18.16 1.56.48.38.32.58.76.59 1.32v2.28c.01.47.08.84.22 1.09v.08h-1.62zm-1.01-1.05c.2 0 .37-.04.5-.13s.23-.18.28-.29v-.82h-.47c-.56 0-.84.25-.84.75 0 .15.05.26.15.36.1.08.23.13.38.13zm5.46-.1c.23 0 .4-.06.52-.18s.18-.29.18-.51h1.51c0 .57-.2 1.03-.61 1.39-.4.36-.93.54-1.57.54-.75 0-1.34-.24-1.77-.71-.43-.47-.65-1.12-.65-1.95v-.07c0-.52.1-.98.29-1.38.19-.4.47-.71.83-.92.36-.21.79-.32 1.29-.32.67 0 1.2.19 1.6.56.39.37.59.88.59 1.51h-1.51c0-.27-.07-.47-.2-.61a.67.67 0 0 0-.52-.21c-.42 0-.66.27-.73.8-.02.17-.03.4-.03.7 0 .52.06.88.19 1.08.13.18.32.28.59.28zm4.96-.77l-.45.45v1.47h-1.61v-7.32h1.61v3.89l.16-.21 1.21-1.51h1.93l-1.81 2.12 1.93 3.04h-1.84l-1.13-1.93zm5.67 2.01c-.79 0-1.43-.24-1.92-.71s-.73-1.09-.73-1.84v-.13c0-.53.1-.99.29-1.4.2-.4.48-.72.86-.94.37-.22.82-.33 1.33-.33.72 0 1.3.22 1.72.67.42.45.63 1.08.63 1.88v.62h-3.19c.06.29.18.52.38.68.19.17.44.25.75.25.51 0 .91-.18 1.19-.53l.73.87c-.2.28-.48.5-.85.66-.37.17-.77.25-1.19.25zm-.18-4.11c-.47 0-.75.31-.84.93h1.62v-.12c.01-.26-.06-.46-.2-.6-.13-.14-.33-.21-.58-.21zm2.8 1.4c0-.82.18-1.46.53-1.93.35-.47.84-.71 1.48-.71.46 0 .85.18 1.16.54v-2.61h1.61v7.32h-1.44l-.08-.55c-.33.43-.75.65-1.26.65-.61 0-1.1-.24-1.46-.71s-.54-1.13-.54-2zm1.6.1c0 .91.27 1.37.8 1.37.36 0 .61-.15.76-.45v-1.96c-.15-.3-.4-.46-.75-.46-.5 0-.76.4-.81 1.2v.3zm8.04-2.64l.05.61c.37-.47.86-.7 1.47-.7.65 0 1.09.26 1.32.78.35-.52.85-.78 1.52-.78 1.05 0 1.58.63 1.61 1.9v3.35h-1.61v-3.25c0-.26-.04-.46-.13-.58-.09-.12-.25-.18-.49-.18-.32 0-.55.14-.71.42v3.59h-1.61v-3.25c0-.27-.04-.47-.13-.59s-.25-.18-.49-.18c-.31 0-.54.14-.71.42v3.59h-1.61v-5.16h1.52zm6.68 2.53c0-.51.1-.97.3-1.37.2-.4.49-.71.86-.93s.82-.32 1.32-.32c.77 0 1.38.24 1.83.72.44.48.67 1.13.67 1.95v.06c0 .8-.22 1.44-.67 1.91-.45.47-1.05.71-1.81.71-.73 0-1.32-.22-1.77-.66-.44-.44-.68-1.04-.72-1.79l-.01-.28zm1.61.1c0 .48.07.83.22 1.05.15.22.37.33.66.33.57 0 .86-.44.88-1.32v-.16c0-.92-.3-1.39-.89-1.39-.54 0-.83.4-.87 1.2v.29zm5.55-2.63l.05.61c.36-.47.85-.7 1.47-.7.54 0 .94.16 1.2.48.27.32.4.8.41 1.45v3.32h-1.61v-3.25c0-.26-.05-.45-.16-.57-.1-.12-.3-.18-.57-.18-.31 0-.55.12-.7.37v3.64h-1.61v-5.16h1.52zm5.9-1.28v1.28h.85v1.12h-.85v2.36c0 .19.03.33.1.4.07.08.21.11.41.11.16 0 .29-.01.4-.03v1.15c-.29.09-.59.14-.91.14-.55 0-.96-.13-1.22-.39s-.4-.66-.4-1.19v-2.56H213v-1.12h.66v-1.28h1.62zm3.05 1.83c.34-.43.78-.65 1.32-.65.57 0 1 .17 1.29.51.29.34.44.83.44 1.49v3.25h-1.61v-3.22c0-.27-.06-.47-.17-.6-.11-.13-.3-.19-.57-.19-.33 0-.56.1-.7.31v3.7h-1.61v-7.32h1.61v2.72zm5.63 4.61h-1.61v-7.32h1.61v7.32zm3.05-2.25l.86-2.91h1.72l-2.1 6.02-.09.22c-.3.67-.83 1-1.58 1-.21 0-.43-.03-.66-.09v-1.14h.21c.23 0 .4-.03.52-.1s.21-.18.26-.35l.13-.34-1.79-5.21h1.72l.8 2.9z"/></svg>