<svg id="Layer_1" xmlns="http://www.w3.org/2000/svg" viewBox="0 0 320 50"><style>.st0{fill:url(#SVGID_1_)}</style><linearGradient id="SVGID_1_" gradientUnits="userSpaceOnUse" x1="104.073" y1="26.219" x2="240.913" y2="26.219"><stop offset="0" stop-color="#18b9fb"/><stop offset=".5" stop-color="#782eeb"/><stop offset="1" stop-color="#e82d8a"/></linearGradient><path class="st0" d="M109.57 12.26h-1.97v5.35h-1.58v-5.35h-1.94v-1.22h5.49v1.22zm2.59 5.35c-.05-.1-.1-.25-.14-.44-.28.35-.67.53-1.17.53-.46 0-.85-.14-1.17-.42-.32-.28-.48-.63-.48-1.05 0-.53.2-.93.59-1.2.39-.27.96-.41 1.71-.41h.47v-.26c0-.45-.19-.68-.58-.68-.36 0-.54.18-.54.54h-1.52c0-.47.2-.86.6-1.15.4-.29.91-.44 1.54-.44.62 0 1.12.15 1.48.46.36.3.55.72.56 1.25v2.16c.01.45.07.79.21 1.03v.08h-1.56zm-.95-1c.19 0 .35-.04.47-.12.12-.08.21-.17.27-.28v-.78h-.44c-.53 0-.79.24-.79.71 0 .14.05.25.14.34.08.09.2.13.35.13zm5.07-.82l-.43.43v1.39h-1.52v-6.94h1.52v3.68l.15-.2 1.15-1.43h1.82l-1.71 2.01 1.82 2.88h-1.74l-1.06-1.82zm5.36 1.91c-.75 0-1.36-.22-1.82-.67-.46-.45-.7-1.03-.7-1.75v-.13c0-.5.09-.94.28-1.32.19-.38.46-.68.81-.89.36-.21.78-.31 1.26-.31.69 0 1.23.21 1.63.64.4.43.6 1.02.6 1.78v.59h-3.03c.05.27.17.49.36.65.18.16.42.23.71.23.48 0 .86-.17 1.13-.51l.7.82c-.19.26-.46.47-.81.63-.34.16-.71.24-1.12.24zm-.17-3.9c-.45 0-.71.29-.79.88h1.54v-.12a.798.798 0 0 0-.18-.57.85.85 0 0 0-.57-.19zm7.9 3.81c-.05-.1-.1-.25-.14-.44-.28.35-.67.53-1.17.53-.46 0-.85-.14-1.17-.42-.32-.28-.48-.63-.48-1.05 0-.53.2-.93.59-1.2.39-.27.96-.41 1.71-.41h.47v-.26c0-.45-.19-.68-.58-.68-.36 0-.54.18-.54.54h-1.52c0-.47.2-.86.6-1.15.4-.29.91-.44 1.54-.44.62 0 1.12.15 1.48.46.36.3.55.72.56 1.25v2.16c.01.45.07.79.21 1.03v.08h-1.56zm-.95-1c.19 0 .35-.04.47-.12.12-.08.21-.17.27-.28v-.78h-.44c-.53 0-.79.24-.79.71 0 .14.05.25.14.34.08.09.2.13.35.13zm5.17-.09c.21 0 .38-.06.5-.17.12-.12.17-.28.17-.49h1.43c0 .54-.19.98-.58 1.32-.38.34-.88.51-1.48.51-.71 0-1.27-.22-1.68-.67-.41-.45-.61-1.06-.61-1.85v-.06c0-.49.09-.93.27-1.31.18-.38.44-.67.79-.87.34-.2.75-.3 1.22-.3.64 0 1.14.18 1.51.53.37.35.56.83.56 1.43h-1.43c0-.25-.06-.45-.18-.58-.12-.14-.29-.2-.5-.2-.39 0-.62.25-.69.75-.02.16-.03.38-.03.66 0 .49.06.83.18 1.02.11.19.3.28.55.28zm4.51-5.01v1.21h.8v1.06h-.8v2.24c0 .18.03.31.1.38s.2.11.39.11c.15 0 .28-.01.38-.03v1.09c-.27.09-.56.13-.86.13-.52 0-.91-.12-1.16-.37-.25-.25-.37-.62-.37-1.12v-2.42h-.62v-1.06h.62v-1.21h1.52zm1.39-.05c0-.22.08-.39.23-.53.16-.14.36-.21.61-.21s.45.07.61.21c.16.14.23.32.23.53 0 .22-.08.39-.23.53-.16.14-.36.21-.61.21s-.45-.07-.61-.21a.674.674 0 0 1-.23-.53zm1.62 6.15h-1.53v-4.89h1.53v4.89zm.74-2.49c0-.49.09-.92.28-1.3.19-.38.46-.67.82-.88.36-.2.77-.31 1.25-.31.73 0 1.31.23 1.73.68.42.45.63 1.07.63 1.85v.05c0 .76-.21 1.37-.63 1.81-.42.45-1 .67-1.72.67-.7 0-1.25-.21-1.68-.63-.42-.42-.65-.98-.68-1.7v-.24zm1.53.09c0 .45.07.78.21.99s.35.32.63.32c.54 0 .82-.42.83-1.25v-.15c0-.88-.28-1.31-.84-1.31-.51 0-.78.38-.83 1.13v.27zm5.26-2.49l.05.57c.34-.44.8-.66 1.39-.66.51 0 .89.15 1.14.46.25.3.38.76.39 1.37v3.15h-1.53v-3.08c0-.25-.05-.43-.15-.54-.1-.12-.28-.17-.54-.17-.3 0-.52.12-.66.35v3.45h-1.52v-4.89h1.43zm3.85 4.2c0-.22.08-.41.24-.55.16-.14.36-.21.6-.21s.44.07.6.21c.16.14.24.33.24.55 0 .22-.08.41-.24.55-.16.14-.36.21-.6.21s-.44-.07-.6-.21a.691.691 0 0 1-.24-.55zm1.47-1.39h-1.23l-.19-4.49h1.62l-.2 4.49zm-46.93 6.6h1.58v4.51c0 .42-.1.79-.29 1.12-.19.33-.47.58-.81.76-.35.18-.74.27-1.16.27-.72 0-1.27-.18-1.67-.54-.4-.36-.6-.87-.6-1.54h1.59c0 .3.05.52.16.65.1.14.28.2.52.2.22 0 .39-.08.51-.25.12-.16.18-.39.18-.69v-4.49zm5.41 6.04c-.32.41-.76.62-1.3.62s-.94-.16-1.22-.47c-.28-.31-.41-.76-.41-1.34v-3.17h1.52v3.17c0 .42.2.63.61.63.35 0 .6-.12.75-.37v-3.43h1.53v4.89h-1.43l-.05-.53zm4.87-.84c0-.13-.07-.23-.2-.31-.14-.08-.39-.16-.77-.24-.38-.08-.69-.19-.94-.33s-.43-.3-.56-.5c-.13-.2-.19-.42-.19-.67 0-.45.19-.82.56-1.11.37-.29.85-.44 1.45-.44.64 0 1.16.15 1.55.44.39.29.59.68.59 1.15h-1.53c0-.39-.21-.59-.62-.59-.16 0-.29.04-.4.13-.11.09-.16.2-.16.33 0 .14.07.25.2.33s.34.15.63.21c.29.05.55.12.77.19.73.25 1.1.71 1.1 1.36 0 .45-.2.81-.59 1.09-.4.28-.91.42-1.54.42-.42 0-.79-.08-1.12-.23s-.58-.36-.77-.61c-.18-.26-.28-.53-.28-.82h1.42c.01.23.08.39.23.49.14.1.33.16.56.16.21 0 .36-.04.47-.13.08-.07.14-.18.14-.32zm3.95-4.73v1.21h.8v1.06h-.8v2.24c0 .18.03.31.1.38s.2.11.39.11c.15 0 .28-.01.38-.03v1.09c-.27.09-.56.13-.86.13-.52 0-.91-.12-1.16-.37-.25-.25-.37-.62-.37-1.12v-2.42h-.62v-1.06h.62V22.6h1.52zm6.45 6.1c-.05-.1-.1-.25-.14-.44-.28.35-.67.53-1.17.53-.46 0-.85-.14-1.17-.42-.32-.28-.48-.63-.48-1.05 0-.53.2-.93.59-1.2.39-.27.96-.41 1.71-.41h.47v-.26c0-.45-.19-.68-.58-.68-.36 0-.54.18-.54.54h-1.52c0-.47.2-.86.6-1.15.4-.29.91-.44 1.54-.44.62 0 1.12.15 1.48.46.36.3.55.72.56 1.25v2.16c.01.45.07.79.21 1.03v.08h-1.56zm-.95-.99c.19 0 .35-.04.47-.12.12-.08.21-.17.27-.28v-.78h-.44c-.53 0-.79.24-.79.71a.46.46 0 0 0 .49.47zm7.18-5.11v1.21h.8v1.06h-.8v2.24c0 .18.03.31.1.38s.2.11.39.11c.15 0 .28-.01.38-.03v1.09c-.27.09-.56.13-.86.13-.52 0-.91-.12-1.16-.37-.25-.25-.37-.62-.37-1.12v-2.42h-.62v-1.06h.62V22.6h1.52zm4.16 6.1c-.05-.1-.1-.25-.14-.44-.28.35-.67.53-1.17.53-.46 0-.85-.14-1.17-.42-.32-.28-.48-.63-.48-1.05 0-.53.2-.93.59-1.2.39-.27.96-.41 1.71-.41h.47v-.26c0-.45-.19-.68-.58-.68-.36 0-.54.18-.54.54h-1.52c0-.47.2-.86.6-1.15.4-.29.91-.44 1.54-.44.62 0 1.12.15 1.48.46.36.3.55.72.56 1.25v2.16c.01.45.07.79.21 1.03v.08h-1.56zm-.96-.99c.19 0 .35-.04.47-.12.12-.08.21-.17.27-.28v-.78h-.44c-.53 0-.79.24-.79.71a.46.46 0 0 0 .49.47zm7.65-1.41c0 .76-.17 1.36-.51 1.82-.34.45-.8.68-1.38.68-.45 0-.82-.16-1.11-.49v2.28h-1.52v-6.76h1.42l.05.45c.29-.36.68-.54 1.15-.54.6 0 1.07.22 1.4.67.33.44.5 1.05.5 1.83v.06zm-1.52-.1c0-.87-.25-1.3-.76-1.3-.36 0-.6.13-.72.39v1.92c.13.27.38.41.73.41.48 0 .73-.42.75-1.26v-.16zm7.24 2.5c-.05-.1-.1-.25-.14-.44-.28.35-.67.53-1.17.53-.46 0-.85-.14-1.17-.42-.32-.28-.48-.63-.48-1.05 0-.53.2-.93.59-1.2.39-.27.96-.41 1.71-.41h.47v-.26c0-.45-.19-.68-.58-.68-.36 0-.54.18-.54.54h-1.52c0-.47.2-.86.6-1.15.4-.29.91-.44 1.54-.44.62 0 1.12.15 1.48.46.36.3.55.72.56 1.25v2.16c.01.45.07.79.21 1.03v.08h-1.56zm-.95-.99c.19 0 .35-.04.47-.12.12-.08.21-.17.27-.28v-.78h-.44c-.53 0-.79.24-.79.71a.46.46 0 0 0 .49.47zm7.33-1.01l.49-2.88h1.46l-1.15 4.89h-1.29l-.81-2.9-.81 2.9h-1.29l-1.15-4.89h1.46l.48 2.95.78-2.95h1.06l.77 2.88zm5.25 2c-.05-.1-.1-.25-.14-.44-.28.35-.67.53-1.17.53-.46 0-.85-.14-1.17-.42-.32-.28-.48-.63-.48-1.05 0-.53.2-.93.59-1.2.39-.27.96-.41 1.71-.41h.47v-.26c0-.45-.19-.68-.58-.68-.36 0-.54.18-.54.54h-1.52c0-.47.2-.86.6-1.15.4-.29.91-.44 1.54-.44.62 0 1.12.15 1.48.46.36.3.55.72.56 1.25v2.16c.01.45.07.79.21 1.03v.08h-1.56zm-.96-.99c.19 0 .35-.04.47-.12.12-.08.21-.17.27-.28v-.78h-.44c-.53 0-.79.24-.79.71a.46.46 0 0 0 .49.47zm5-1.14l.81-2.75h1.63l-1.99 5.7-.09.21c-.28.63-.78.95-1.5.95-.2 0-.41-.03-.63-.09V29.5h.2c.21 0 .38-.03.49-.09.11-.06.2-.17.25-.33l.12-.33-1.7-4.93h1.63l.78 2.75zm5.47 2.13v-3.83h-.71v-1.06h.71v-.39c0-.56.16-.99.49-1.3.33-.31.79-.46 1.38-.46.22 0 .45.03.71.09v1.12c-.09-.03-.22-.04-.37-.04-.46 0-.69.2-.69.6v.37h.95v1.06h-.95v3.83h-1.52zm5.97-3.51l-.5-.04c-.48 0-.79.15-.92.45v3.09h-1.52V23.8h1.43l.05.63c.26-.48.61-.72 1.07-.72.16 0 .3.02.42.05l-.03 1.43zm.2 1.02c0-.49.09-.92.28-1.3.19-.38.46-.67.82-.88s.77-.31 1.25-.31c.73 0 1.31.23 1.73.68.42.45.63 1.07.63 1.85v.05c0 .76-.21 1.37-.63 1.81-.42.45-1 .67-1.72.67-.7 0-1.25-.21-1.68-.63-.42-.42-.65-.98-.68-1.7v-.24zm1.52.1c0 .45.07.78.21.99s.35.32.63.32c.54 0 .82-.42.83-1.25v-.15c0-.88-.28-1.31-.84-1.31-.51 0-.78.38-.83 1.13v.27zm5.3-2.49l.05.57c.35-.44.81-.66 1.39-.66.62 0 1.03.25 1.25.74.33-.49.81-.74 1.44-.74.99 0 1.5.6 1.53 1.8v3.18h-1.53v-3.08c0-.25-.04-.43-.13-.55s-.24-.17-.46-.17c-.3 0-.53.13-.67.4v3.4h-1.53v-3.07c0-.26-.04-.44-.12-.56-.08-.11-.24-.17-.46-.17-.29 0-.51.13-.67.4v3.4h-1.52v-4.89h1.43zm11.58 4.88c-.05-.1-.1-.25-.14-.44-.28.35-.67.53-1.17.53-.46 0-.85-.14-1.17-.42-.32-.28-.48-.63-.48-1.05 0-.53.2-.93.59-1.2.39-.27.96-.41 1.71-.41h.47v-.26c0-.45-.19-.68-.58-.68-.36 0-.54.18-.54.54h-1.52c0-.47.2-.86.6-1.15.4-.29.91-.44 1.54-.44.62 0 1.12.15 1.48.46.36.3.55.72.56 1.25v2.16c.01.45.07.79.21 1.03v.08h-1.56zm-.95-.99c.19 0 .35-.04.47-.12.12-.08.21-.17.27-.28v-.78h-.44c-.53 0-.79.24-.79.71 0 .14.05.25.14.34.08.09.2.13.35.13zm5.22-1.49c0-.77.17-1.38.5-1.83.33-.45.8-.67 1.4-.67.44 0 .8.17 1.1.51v-2.47h1.53v6.94h-1.37l-.08-.52c-.31.41-.71.61-1.19.61-.58 0-1.04-.22-1.38-.67-.34-.44-.51-1.07-.51-1.9zm1.52.1c0 .87.25 1.3.76 1.3.34 0 .58-.14.72-.42v-1.86c-.14-.29-.38-.43-.71-.43-.47 0-.72.38-.76 1.14l-.01.27zm6.23 2.47c-.75 0-1.36-.22-1.82-.67-.46-.45-.7-1.03-.7-1.75v-.13c0-.5.09-.94.28-1.32.19-.38.46-.68.81-.89.36-.21.78-.31 1.26-.31.69 0 1.23.21 1.63.64.4.43.6 1.02.6 1.78v.59h-3.03c.05.27.17.49.36.65.18.16.42.23.71.23.48 0 .86-.17 1.13-.51l.7.82c-.19.26-.46.47-.81.63-.34.17-.72.24-1.12.24zm-.17-3.89c-.45 0-.71.29-.79.88h1.54v-.12a.798.798 0 0 0-.18-.57.85.85 0 0 0-.57-.19zm2.65 1.32c0-.77.17-1.38.5-1.83.33-.45.8-.67 1.4-.67.44 0 .8.17 1.1.51v-2.47h1.53v6.94h-1.37l-.08-.52c-.31.41-.71.61-1.19.61-.58 0-1.04-.22-1.38-.67-.34-.44-.51-1.07-.51-1.9zm1.52.1c0 .87.25 1.3.76 1.3.34 0 .58-.14.72-.42v-1.86c-.14-.29-.38-.43-.71-.43-.47 0-.72.38-.76 1.14l-.01.27zm3.86-3.76c0-.22.08-.39.23-.53.16-.14.36-.21.61-.21s.45.07.61.21c.16.14.23.32.23.53 0 .22-.08.39-.23.53-.16.14-.36.21-.61.21s-.45-.07-.61-.21a.703.703 0 0 1-.23-.53zm1.62 6.14h-1.53v-4.89h1.53v4.89zm3-1.08c.21 0 .38-.06.5-.17.12-.12.17-.28.17-.49h1.43c0 .54-.19.98-.58 1.32-.38.34-.88.51-1.48.51-.71 0-1.27-.22-1.68-.67s-.61-1.06-.61-1.85v-.06c0-.49.09-.93.27-1.31.18-.38.44-.67.79-.87.34-.2.75-.3 1.22-.3.64 0 1.14.18 1.51.53.37.35.56.83.56 1.43h-1.43c0-.25-.06-.45-.18-.58-.12-.14-.29-.2-.5-.2-.39 0-.62.25-.69.75-.02.16-.03.38-.03.66 0 .49.06.83.18 1.02.11.18.3.28.55.28zm5.49 1.08c-.05-.1-.1-.25-.14-.44-.28.35-.67.53-1.17.53-.46 0-.85-.14-1.17-.42-.32-.28-.48-.63-.48-1.05 0-.53.2-.93.59-1.2.39-.27.96-.41 1.71-.41h.45v-.26c0-.45-.19-.68-.58-.68-.36 0-.54.18-.54.54h-1.52c0-.47.2-.86.6-1.15.4-.29.91-.44 1.54-.44.62 0 1.12.15 1.48.46.36.3.55.72.56 1.25v2.16c.01.45.07.79.21 1.03v.08h-1.54zm-.95-.99c.19 0 .35-.04.47-.12.12-.08.21-.17.27-.28v-.78h-.44c-.53 0-.79.24-.79.71a.46.46 0 0 0 .49.47zm4.88-5.11v1.21h.8v1.06h-.8v2.24c0 .18.03.31.1.38s.2.11.39.11c.15 0 .28-.01.38-.03v1.09c-.27.09-.56.13-.86.13-.52 0-.91-.12-1.16-.37-.25-.25-.37-.62-.37-1.12v-2.42H228v-1.06h.62V22.6h1.52zm3.77 6.19c-.75 0-1.36-.22-1.82-.67-.46-.45-.7-1.03-.7-1.75v-.13c0-.5.09-.94.28-1.32.19-.38.46-.68.81-.89.36-.21.78-.31 1.26-.31.69 0 1.23.21 1.63.64.4.43.6 1.02.6 1.78v.59h-3.03c.05.27.17.49.36.65.18.16.42.23.71.23.48 0 .86-.17 1.13-.51l.7.82c-.19.26-.46.47-.81.63-.35.17-.72.24-1.12.24zm-.18-3.89c-.45 0-.71.29-.79.88h1.54v-.12a.798.798 0 0 0-.18-.57.85.85 0 0 0-.57-.19zm2.65 1.32c0-.77.17-1.38.5-1.83.33-.45.8-.67 1.4-.67.44 0 .8.17 1.1.51v-2.47h1.53v6.94h-1.37l-.08-.52c-.31.41-.71.61-1.19.61-.58 0-1.04-.22-1.38-.67s-.51-1.07-.51-1.9zm1.53.1c0 .87.25 1.3.76 1.3.34 0 .58-.14.72-.42v-1.86c-.14-.29-.38-.43-.71-.43-.47 0-.72.38-.76 1.14l-.01.27zm-133.58 7.33c0-.22.08-.39.23-.53.16-.14.36-.21.61-.21s.45.07.61.21c.16.14.23.32.23.53 0 .22-.08.39-.23.53-.16.14-.36.21-.61.21s-.45-.07-.61-.21c-.16-.13-.23-.31-.23-.53zm1.61 6.15h-1.53v-4.89h1.53v4.89zm.75-2.48c0-.77.17-1.38.5-1.83.33-.45.8-.67 1.4-.67.44 0 .8.17 1.1.51v-2.47h1.53v6.94h-1.37l-.08-.52c-.31.41-.71.61-1.19.61-.58 0-1.04-.22-1.38-.67-.34-.44-.51-1.08-.51-1.9zm1.52.09c0 .87.25 1.3.76 1.3.34 0 .58-.14.72-.42v-1.86c-.14-.29-.38-.43-.71-.43-.47 0-.72.38-.76 1.14l-.01.27zm6.23 2.48c-.75 0-1.36-.22-1.82-.67-.46-.45-.7-1.03-.7-1.75v-.13c0-.5.09-.94.28-1.32.19-.38.46-.68.81-.89.36-.21.78-.31 1.26-.31.69 0 1.23.21 1.63.64.4.43.6 1.02.6 1.78v.59h-3.03c.05.27.17.49.36.65.18.16.42.23.71.23.48 0 .86-.17 1.13-.51l.7.82c-.19.26-.46.47-.81.63-.34.16-.72.24-1.12.24zm-.17-3.89c-.45 0-.71.29-.79.88h1.54v-.12a.798.798 0 0 0-.18-.57c-.14-.13-.33-.19-.57-.19zm4.24-1.09l.05.57c.34-.44.8-.66 1.39-.66.51 0 .89.15 1.14.46.25.3.38.76.39 1.37v3.15h-1.53v-3.08c0-.25-.05-.43-.15-.54-.1-.12-.28-.17-.54-.17-.3 0-.52.12-.66.35v3.45h-1.52v-4.89h1.43zm5.59-1.21v1.21h.8v1.06h-.8v2.24c0 .18.03.31.1.38s.2.11.39.11c.15 0 .28-.01.38-.03v1.09c-.27.09-.56.13-.86.13-.52 0-.91-.12-1.16-.37-.25-.25-.37-.62-.37-1.12v-2.42h-.62v-1.06h.62V33.7h1.52zm1.39-.05c0-.22.08-.39.23-.53.16-.14.36-.21.61-.21s.45.07.61.21c.16.14.23.32.23.53 0 .22-.08.39-.23.53-.16.14-.36.21-.61.21s-.45-.07-.61-.21a.674.674 0 0 1-.23-.53zm1.62 6.15h-1.53v-4.89h1.53v4.89zm2.71-6.1v1.21h.8v1.06h-.8v2.24c0 .18.03.31.1.38s.2.11.39.11c.15 0 .28-.01.38-.03v1.09c-.27.09-.56.13-.86.13-.52 0-.91-.12-1.16-.37s-.37-.62-.37-1.12v-2.42h-.62v-1.06h.62V33.7h1.52zm3.35 3.97l.81-2.75h1.63l-1.99 5.7-.09.21c-.28.63-.78.95-1.5.95-.2 0-.41-.03-.63-.09V40.6h.2c.21 0 .38-.03.49-.09.11-.06.2-.17.25-.33l.12-.33-1.7-4.93h1.63l.78 2.75zm6.91-3.97v1.21h.8v1.06h-.8v2.24c0 .18.03.31.1.38s.2.11.39.11c.15 0 .28-.01.38-.03v1.09c-.27.09-.56.13-.86.13-.52 0-.91-.12-1.16-.37-.25-.25-.37-.62-.37-1.12v-2.42h-.62v-1.06h.62V33.7h1.52zm2.89 1.74c.33-.41.74-.61 1.25-.61.54 0 .95.16 1.22.48.27.32.41.79.42 1.41v3.08h-1.53v-3.05c0-.26-.05-.45-.16-.57-.11-.12-.28-.18-.54-.18-.31 0-.53.1-.66.3v3.5h-1.52v-6.94h1.52v2.58zm6.1 4.45c-.75 0-1.36-.22-1.82-.67-.46-.45-.7-1.03-.7-1.75v-.13c0-.5.09-.94.28-1.32.19-.38.46-.68.81-.89.36-.21.78-.31 1.26-.31.69 0 1.23.21 1.63.64.4.43.6 1.02.6 1.78v.59h-3.03c.05.27.17.49.36.65.18.16.42.23.71.23.48 0 .86-.17 1.13-.51l.7.82c-.19.26-.46.47-.81.63-.35.16-.72.24-1.12.24zM148.9 36c-.45 0-.71.29-.79.88h1.54v-.12a.798.798 0 0 0-.18-.57c-.15-.13-.33-.19-.57-.19zm3.18 3.8v-3.83h-.71v-1.06h.71v-.39c0-.56.16-.99.49-1.3.33-.31.79-.46 1.38-.46.22 0 .45.03.71.09v1.12c-.09-.03-.22-.04-.37-.04-.46 0-.69.2-.69.6v.37h.95v1.06h-.95v3.83h-1.52zm4.78-6.1v1.21h.8v1.06h-.8v2.24c0 .18.03.31.1.38s.2.11.39.11c.15 0 .28-.01.38-.03v1.09c-.27.09-.56.13-.86.13-.52 0-.91-.12-1.16-.37-.25-.25-.37-.62-.37-1.12v-2.42h-.62v-1.06h.62V33.7h1.52zm6.26 4.73c0-.13-.07-.23-.2-.31s-.39-.16-.77-.24c-.38-.08-.69-.19-.94-.33s-.43-.3-.56-.5c-.13-.2-.19-.42-.19-.67 0-.45.19-.82.56-1.11.37-.29.85-.44 1.45-.44.64 0 1.16.15 1.55.44s.59.68.59 1.15h-1.53c0-.39-.21-.59-.62-.59-.16 0-.29.04-.4.13-.11.09-.16.2-.16.33 0 .14.07.25.2.33.13.08.34.15.63.21.29.05.55.12.77.19.73.25 1.1.71 1.1 1.36 0 .45-.2.81-.59 1.09-.4.28-.91.42-1.54.42-.42 0-.79-.08-1.12-.23-.33-.15-.58-.36-.77-.61-.18-.26-.28-.53-.28-.82h1.42c.01.23.08.39.23.49.14.1.33.16.56.16.21 0 .36-.04.47-.13.09-.08.14-.19.14-.32zm6.72-1.04c0 .76-.17 1.36-.51 1.82-.34.45-.8.68-1.38.68-.45 0-.82-.16-1.11-.49v2.28h-1.52v-6.76h1.42l.05.45c.29-.36.68-.54 1.15-.54.6 0 1.07.22 1.4.67.33.44.5 1.05.5 1.83v.06zm-1.52-.09c0-.87-.25-1.3-.76-1.3-.36 0-.6.13-.72.39v1.92c.13.27.38.41.73.41.48 0 .73-.42.75-1.26v-.16zm4.55 2.59c-.75 0-1.36-.22-1.82-.67-.46-.45-.7-1.03-.7-1.75v-.13c0-.5.09-.94.28-1.32.19-.38.46-.68.81-.89.36-.21.78-.31 1.26-.31.69 0 1.23.21 1.63.64.4.43.6 1.02.6 1.78v.59h-3.03c.05.27.17.49.36.65.18.16.42.23.71.23.48 0 .86-.17 1.13-.51l.7.82c-.19.26-.46.47-.81.63-.34.16-.72.24-1.12.24zM172.7 36c-.45 0-.71.29-.79.88h1.54v-.12a.798.798 0 0 0-.18-.57c-.14-.13-.33-.19-.57-.19zm4.91 2.72c.21 0 .38-.06.5-.17.12-.12.17-.28.17-.49h1.43c0 .54-.19.98-.58 1.32-.38.34-.88.51-1.48.51-.71 0-1.27-.22-1.68-.67-.41-.45-.61-1.06-.61-1.85v-.06c0-.49.09-.93.27-1.31.18-.38.44-.67.79-.87.34-.2.75-.3 1.22-.3.64 0 1.14.18 1.51.53.37.35.56.83.56 1.43h-1.43c0-.25-.06-.45-.18-.58-.12-.14-.29-.2-.5-.2-.39 0-.62.25-.69.75-.02.16-.03.38-.03.66 0 .49.06.83.18 1.02.11.18.29.28.55.28zm2.73-5.07c0-.22.08-.39.23-.53.16-.14.36-.21.61-.21s.45.07.61.21c.16.14.23.32.23.53 0 .22-.08.39-.23.53-.16.14-.36.21-.61.21s-.45-.07-.61-.21c-.16-.13-.23-.31-.23-.53zm1.61 6.15h-1.53v-4.89h1.53v4.89zm3.69 0c-.05-.1-.1-.25-.14-.44-.28.35-.67.53-1.17.53-.46 0-.85-.14-1.17-.42-.32-.28-.48-.63-.48-1.05 0-.53.2-.93.59-1.2.39-.27.96-.41 1.71-.41h.47v-.26c0-.45-.19-.68-.58-.68-.36 0-.54.18-.54.54h-1.52c0-.47.2-.86.6-1.15.4-.29.91-.44 1.54-.44.62 0 1.12.15 1.48.46.36.3.55.72.56 1.25v2.16c.01.45.07.79.21 1.03v.08h-1.56zm-.95-.99c.19 0 .35-.04.47-.12.12-.08.21-.17.27-.28v-.78h-.44c-.53 0-.79.24-.79.71a.46.46 0 0 0 .49.47zm4.71.99h-1.53v-6.94h1.53v6.94zm.93-6.15c0-.22.08-.39.23-.53.16-.14.36-.21.61-.21s.45.07.61.21c.16.14.23.32.23.53 0 .22-.08.39-.23.53-.16.14-.36.21-.61.21s-.45-.07-.61-.21a.674.674 0 0 1-.23-.53zm1.61 6.15h-1.53v-4.89h1.53v4.89zm3.5-1.37c0-.13-.07-.23-.2-.31s-.39-.16-.77-.24c-.38-.08-.69-.19-.94-.33s-.43-.3-.56-.5c-.13-.2-.19-.42-.19-.67 0-.45.19-.82.56-1.11.37-.29.85-.44 1.45-.44.64 0 1.16.15 1.55.44s.59.68.59 1.15h-1.53c0-.39-.21-.59-.62-.59-.16 0-.29.04-.4.13-.11.09-.16.2-.16.33 0 .14.07.25.2.33.13.08.34.15.63.21.29.05.55.12.77.19.73.25 1.1.71 1.1 1.36 0 .45-.2.81-.59 1.09-.4.28-.91.42-1.54.42-.42 0-.79-.08-1.12-.23-.33-.15-.58-.36-.77-.61-.18-.26-.28-.53-.28-.82h1.42c.01.23.08.39.23.49.14.1.33.16.56.16.21 0 .36-.04.47-.13.09-.08.14-.19.14-.32zm3.95-4.73v1.21h.8v1.06h-.8v2.24c0 .18.03.31.1.38s.2.11.39.11c.15 0 .28-.01.38-.03v1.09c-.27.09-.56.13-.86.13-.52 0-.91-.12-1.16-.37s-.37-.62-.37-1.12v-2.42h-.62v-1.06h.62V33.7h1.52z"/></svg>