<svg id="Layer_1" xmlns="http://www.w3.org/2000/svg" viewBox="0 0 320 50"><style>.st0{fill:url(#SVGID_1_)}</style><linearGradient id="SVGID_1_" gradientUnits="userSpaceOnUse" x1="103.933" y1="26.446" x2="239.146" y2="26.446"><stop offset="0" stop-color="#18b9fb"/><stop offset=".5" stop-color="#782eeb"/><stop offset="1" stop-color="#e82d8a"/></linearGradient><path class="st0" d="M106.7 22.12l1.18-4.33h1.6l-2 5.95h-1.57l-1.99-5.95h1.59l1.19 4.33zm3.15-3.94c0-.2.07-.36.21-.48.14-.13.33-.19.55-.19.23 0 .41.06.55.19.14.13.21.29.21.48a.6.6 0 0 1-.21.48c-.14.13-.33.19-.55.19-.23 0-.41-.06-.55-.19a.63.63 0 0 1-.21-.48zm1.46 5.56h-1.38v-4.42h1.38v4.42zm2.99.08c-.68 0-1.23-.2-1.65-.61-.42-.4-.63-.93-.63-1.58v-.11c0-.45.08-.85.25-1.2.17-.35.41-.61.73-.8.32-.19.7-.28 1.14-.28.62 0 1.11.19 1.47.58.36.39.54.92.54 1.61v.54h-2.74c.05.25.16.44.32.58.17.14.38.21.65.21.44 0 .78-.15 1.02-.46l.63.74a1.7 1.7 0 0 1-.73.57c-.3.14-.64.21-1 .21zm-.16-3.52c-.4 0-.64.27-.72.8h1.39v-.11c.01-.22-.05-.39-.17-.51-.11-.12-.28-.18-.5-.18zm6.39 1.62l.45-2.61h1.32l-1.04 4.42h-1.16l-.73-2.62-.74 2.62h-1.16l-1.04-4.42h1.32l.44 2.67.7-2.67h.96l.68 2.61zm8.45-.36c0 .69-.15 1.23-.46 1.64-.31.41-.73.61-1.25.61-.41 0-.74-.15-1-.45v2.06h-1.38V19.3h1.29l.04.41c.26-.33.61-.49 1.04-.49.54 0 .97.2 1.27.6.3.4.45.95.45 1.66v.08zm-1.38-.09c0-.78-.23-1.18-.69-1.18-.33 0-.54.12-.65.35v1.74c.12.25.34.37.66.37.44 0 .66-.38.68-1.14v-.14zm4.12 2.35c-.68 0-1.23-.2-1.65-.61-.42-.4-.63-.93-.63-1.58v-.11c0-.45.08-.85.25-1.2.17-.35.41-.61.73-.8.32-.19.7-.28 1.14-.28.62 0 1.11.19 1.47.58.36.39.54.92.54 1.61v.54h-2.74c.05.25.16.44.32.58.17.14.38.21.65.21.44 0 .78-.15 1.02-.46l.63.74a1.7 1.7 0 0 1-.73.57c-.3.14-.64.21-1 .21zm-.15-3.52c-.4 0-.64.27-.72.8h1.39v-.11c.01-.22-.05-.39-.17-.51-.12-.12-.29-.18-.5-.18zm5.24.26l-.45-.03c-.43 0-.71.14-.83.41v2.8h-1.38v-4.42h1.29l.04.57c.23-.43.55-.65.97-.65.15 0 .27.02.38.05l-.02 1.27zm2.81 1.93c0-.12-.06-.21-.18-.28-.12-.07-.36-.14-.7-.22-.34-.08-.63-.18-.85-.3-.22-.12-.39-.27-.51-.45s-.18-.38-.18-.61c0-.41.17-.74.5-1 .33-.26.77-.39 1.32-.39.58 0 1.05.13 1.41.4.35.26.53.61.53 1.04h-1.38c0-.35-.19-.53-.56-.53a.54.54 0 0 0-.36.12.37.37 0 0 0-.15.3c0 .12.06.22.18.3s.31.14.57.19c.26.05.49.11.69.18.66.23 1 .64 1 1.23 0 .4-.18.73-.54.98-.36.25-.82.38-1.39.38-.38 0-.72-.07-1.01-.2-.3-.14-.53-.32-.69-.56-.17-.23-.25-.48-.25-.74h1.29c.01.2.07.35.2.45.13.09.3.14.5.14.19 0 .33-.04.42-.11.09-.09.14-.19.14-.32zm1.8-1c0-.44.09-.83.26-1.18.17-.34.42-.61.74-.79s.7-.28 1.13-.28c.66 0 1.18.21 1.56.61.38.41.57.97.57 1.67v.05c0 .69-.19 1.24-.57 1.64-.38.4-.9.61-1.55.61-.63 0-1.13-.19-1.52-.57-.38-.38-.59-.89-.62-1.53v-.23zm1.38.08c0 .41.06.71.19.9.13.19.32.29.57.29.49 0 .74-.38.75-1.13v-.14c0-.79-.25-1.19-.76-1.19-.46 0-.71.34-.75 1.03v.24zm4.76-2.25l.04.52c.31-.4.73-.6 1.26-.6.46 0 .8.14 1.03.41.23.28.35.69.35 1.24v2.85h-1.38v-2.79c0-.22-.05-.39-.13-.49-.09-.1-.25-.16-.49-.16-.27 0-.47.11-.6.32v3.12h-1.38v-4.42h1.3zm5.94 4.42c-.05-.09-.09-.22-.13-.4-.25.32-.61.48-1.06.48-.42 0-.77-.13-1.06-.38a1.21 1.21 0 0 1-.44-.95c0-.48.18-.84.53-1.09.35-.25.87-.37 1.54-.37h.42v-.23c0-.41-.18-.61-.53-.61-.33 0-.49.16-.49.48h-1.38c0-.43.18-.77.55-1.04.36-.27.83-.4 1.39-.4.56 0 1.01.14 1.34.41.33.28.49.65.5 1.13v1.96c.01.41.07.72.19.93v.07h-1.37zm-.86-.9c.17 0 .31-.04.43-.11a.71.71 0 0 0 .24-.25v-.71h-.4c-.48 0-.72.22-.72.65 0 .13.04.23.13.3.08.08.19.12.32.12zm4.26.9h-1.38v-6.27h1.38v6.27zm2.92-5.56c0-.2.07-.36.21-.48.14-.13.33-.19.55-.19.23 0 .41.06.55.19.14.13.21.29.21.48a.6.6 0 0 1-.21.48c-.14.13-.33.19-.55.19-.23 0-.41-.06-.55-.19a.63.63 0 0 1-.21-.48zm1.47 5.56h-1.38v-4.42h1.38v4.42zm.67-2.25c0-.7.15-1.25.45-1.65.3-.4.72-.6 1.27-.6.39 0 .73.16 1 .47v-2.24h1.38v6.27h-1.24l-.07-.47c-.28.37-.64.56-1.08.56-.53 0-.94-.2-1.25-.6-.31-.42-.46-.99-.46-1.74zm1.38.09c0 .78.23 1.18.69 1.18.3 0 .52-.13.65-.38V20.7c-.13-.26-.34-.39-.65-.39-.42 0-.65.34-.69 1.03v.24zm5.64 2.24c-.68 0-1.23-.2-1.65-.61-.42-.4-.63-.93-.63-1.58v-.11c0-.45.08-.85.25-1.2.17-.35.41-.61.73-.8.32-.19.7-.28 1.14-.28.62 0 1.11.19 1.47.58.36.39.54.92.54 1.61v.54h-2.74c.05.25.16.44.32.58.17.14.38.21.65.21.44 0 .78-.15 1.02-.46l.63.74a1.7 1.7 0 0 1-.73.57c-.3.14-.64.21-1 .21zm-.16-3.52c-.4 0-.64.27-.72.8h1.39v-.11c.01-.22-.05-.39-.17-.51-.11-.12-.28-.18-.5-.18zm3.84-.98l.04.52c.31-.4.73-.6 1.26-.6.46 0 .8.14 1.03.41.23.28.35.69.35 1.24v2.85h-1.38v-2.79c0-.22-.05-.39-.13-.49-.09-.1-.25-.16-.49-.16-.27 0-.47.11-.6.32v3.12h-1.38v-4.42h1.3zm5.06-1.1v1.1h.73v.96h-.73v2.02c0 .17.03.28.09.35.06.07.18.1.36.1.14 0 .25-.01.34-.02v.98c-.25.08-.51.12-.78.12-.47 0-.82-.11-1.05-.33-.23-.22-.34-.56-.34-1.02v-2.19h-.56v-.96h.56v-1.1h1.38zm1.25-.04c0-.2.07-.36.21-.48.14-.13.33-.19.55-.19.23 0 .41.06.55.19.14.13.21.29.21.48a.6.6 0 0 1-.21.48c-.14.13-.33.19-.55.19-.23 0-.41-.06-.55-.19a.666.666 0 0 1-.21-.48zm1.47 5.56h-1.38v-4.42h1.38v4.42zm2.45-5.52v1.1h.73v.96h-.73v2.02c0 .17.03.28.09.35.06.07.18.1.36.1.14 0 .25-.01.34-.02v.98c-.25.08-.51.12-.78.12-.47 0-.82-.11-1.05-.33-.23-.22-.34-.56-.34-1.02v-2.19h-.56v-.96h.56v-1.1h1.38zm3.03 3.59l.74-2.49h1.47l-1.8 5.16-.08.19c-.26.57-.71.86-1.36.86-.18 0-.37-.03-.57-.08v-.98h.18c.19 0 .34-.03.44-.08.1-.06.18-.16.23-.3l.11-.29-1.54-4.46h1.47l.71 2.47zm6.26-3.59v1.1h.73v.96h-.73v2.02c0 .17.03.28.09.35.06.07.18.1.36.1.14 0 .25-.01.34-.02v.98c-.25.08-.51.12-.78.12-.47 0-.82-.11-1.05-.33-.23-.22-.34-.56-.34-1.02v-2.19h-.56v-.96h.56v-1.1h1.38zm2.61 1.57c.29-.37.67-.56 1.13-.56.49 0 .86.14 1.1.43.25.29.37.71.38 1.28v2.79h-1.38v-2.76c0-.23-.05-.41-.14-.52-.1-.11-.26-.17-.49-.17-.28 0-.48.09-.6.27v3.17h-1.38v-6.27h1.38v2.34zm5.52 4.03c-.68 0-1.23-.2-1.65-.61-.42-.4-.63-.93-.63-1.58v-.11c0-.45.08-.85.25-1.2.17-.35.41-.61.73-.8.32-.19.7-.28 1.14-.28.62 0 1.11.19 1.47.58.36.39.54.92.54 1.61v.54h-2.74c.05.25.16.44.32.58.17.14.38.21.65.21.44 0 .78-.15 1.02-.46l.63.74a1.7 1.7 0 0 1-.73.57c-.3.14-.64.21-1 .21zm-.16-3.52c-.4 0-.64.27-.72.8h1.39v-.11c.01-.22-.05-.39-.17-.51-.11-.12-.28-.18-.5-.18zm2.88 3.44v-3.46h-.64v-.96h.64v-.35c0-.5.15-.89.45-1.17.3-.28.71-.42 1.25-.42.2 0 .41.03.65.09v1.01c-.08-.02-.2-.04-.34-.04-.42 0-.63.18-.63.54v.34h.86v.96h-.86v3.46h-1.38zm4.33-5.52v1.1h.73v.96h-.73v2.02c0 .17.03.28.09.35.06.07.18.1.36.1.14 0 .25-.01.34-.02v.98c-.25.08-.51.12-.78.12-.47 0-.82-.11-1.05-.33-.23-.22-.34-.56-.34-1.02v-2.19h-.56v-.96h.56v-1.1h1.38zm5.84 5.52c-.05-.09-.09-.22-.13-.4-.25.32-.61.48-1.06.48-.42 0-.77-.13-1.06-.38a1.21 1.21 0 0 1-.44-.95c0-.48.18-.84.53-1.09.35-.25.87-.37 1.54-.37h.42v-.23c0-.41-.18-.61-.53-.61-.33 0-.49.16-.49.48h-1.38c0-.43.18-.77.55-1.04.36-.27.83-.4 1.39-.4.56 0 1.01.14 1.34.41.33.28.49.65.5 1.13v1.96c.01.41.07.72.19.93v.07h-1.37zm-.86-.9c.17 0 .31-.04.43-.11a.71.71 0 0 0 .24-.25v-.71h-.4c-.48 0-.72.22-.72.65 0 .13.04.23.13.3.08.08.19.12.32.12zm4.26.9h-1.38v-6.27h1.38v6.27zm2.99.08c-.68 0-1.23-.2-1.65-.61-.42-.4-.63-.93-.63-1.58v-.11c0-.45.08-.85.25-1.2.17-.35.41-.61.73-.8.32-.19.7-.28 1.14-.28.62 0 1.11.19 1.47.58.36.39.54.92.54 1.61v.54h-2.74c.05.25.16.44.32.58.17.14.38.21.65.21.44 0 .78-.15 1.02-.46l.63.74a1.7 1.7 0 0 1-.73.57c-.3.14-.64.21-1 .21zm-.15-3.52c-.4 0-.64.27-.72.8h1.39v-.11c.01-.22-.05-.39-.17-.51-.12-.12-.29-.18-.5-.18zm5.24.26l-.45-.03c-.43 0-.71.14-.83.41v2.8h-1.38v-4.42h1.29l.04.57c.23-.43.55-.65.97-.65.15 0 .27.02.38.05l-.02 1.27zm2.3-2.34v1.1h.73v.96h-.73v2.02c0 .17.03.28.09.35.06.07.18.1.36.1.14 0 .25-.01.34-.02v.98c-.25.08-.51.12-.78.12-.47 0-.82-.11-1.05-.33-.23-.22-.34-.56-.34-1.02v-2.19h-.56v-.96h.56v-1.1h1.38zm3.59 4.27c0-.12-.06-.21-.18-.28-.12-.07-.36-.14-.7-.22-.34-.08-.63-.18-.85-.3-.22-.12-.39-.27-.51-.45s-.18-.38-.18-.61c0-.41.17-.74.5-1 .33-.26.77-.39 1.32-.39.58 0 1.05.13 1.41.4.35.26.53.61.53 1.04h-1.38c0-.35-.19-.53-.56-.53a.54.54 0 0 0-.36.12.37.37 0 0 0-.15.3c0 .12.06.22.18.3.12.08.31.14.57.19.26.05.49.11.69.18.66.23 1 .64 1 1.23 0 .4-.18.73-.54.98-.36.25-.82.38-1.39.38-.38 0-.72-.07-1.01-.2-.3-.14-.53-.32-.69-.56-.17-.23-.25-.48-.25-.74h1.29c.01.2.07.35.2.45.13.09.3.14.5.14.19 0 .33-.04.42-.11.09-.09.14-.19.14-.32zm8.58-1.12h-4.31V20.3h4.31v1.07zM108.46 33.78h-4.15v-.9l1.91-2.01c.47-.54.71-.96.71-1.28 0-.26-.06-.45-.17-.58-.11-.13-.27-.2-.49-.2-.21 0-.38.09-.51.27-.13.18-.2.4-.2.67h-1.38c0-.37.09-.7.27-1.01s.44-.55.76-.73c.32-.17.69-.26 1.09-.26.64 0 1.14.15 1.48.45.35.3.52.72.52 1.28 0 .23-.04.46-.13.68-.09.22-.22.45-.41.7-.18.24-.48.57-.89.98l-.77.89h2.34v1.05zm4.33-2.33h.6v1.06h-.6v1.26h-1.38v-1.26h-2.3l-.08-.84 2.38-3.83v-.01h1.38v3.62zm-2.45 0h1.07v-1.83l-.09.14-.98 1.69zm4.15 2.84h-.98l2.03-6.46h.98l-2.03 6.46zm6.58-5.73l-2.22 5.21h-1.45l2.23-4.89h-2.84v-1.06h4.29v.74zm4.31 3.2v2.02h-1.43v-5.95h2.37c.45 0 .86.08 1.21.25.35.17.62.41.81.72.19.31.29.66.29 1.05 0 .58-.21 1.04-.62 1.39-.42.35-.99.52-1.71.52h-.92zm0-1.11h.94c.28 0 .49-.07.64-.21.15-.14.22-.33.22-.59 0-.28-.07-.5-.22-.67-.15-.17-.35-.25-.61-.25h-.96v1.72zm6.59 2.65c-.29.37-.68.56-1.18.56-.48 0-.85-.14-1.1-.42-.25-.28-.37-.69-.37-1.22v-2.86h1.38v2.87c0 .38.18.57.55.57.32 0 .54-.11.67-.34v-3.1h1.39v4.42h-1.29l-.05-.48zm6.18-1.7c0 .72-.15 1.28-.45 1.67-.3.39-.72.58-1.27.58-.45 0-.81-.18-1.09-.54l-.06.45h-1.23V27.5h1.38v2.21c.26-.29.59-.44.99-.44.55 0 .97.2 1.27.59.3.4.45.95.45 1.67v.07zm-1.38-.09c0-.42-.06-.73-.17-.91-.11-.18-.29-.27-.52-.27-.31 0-.53.12-.65.35v1.75c.12.23.33.35.65.35s.53-.16.62-.47c.05-.14.07-.41.07-.8zm3.44 2.27h-1.38V27.5h1.38v6.28zm.84-5.56c0-.2.07-.36.21-.48.14-.13.33-.19.55-.19.23 0 .41.06.55.19.14.13.21.29.21.48a.6.6 0 0 1-.21.48c-.14.13-.33.19-.55.19-.23 0-.41-.06-.55-.19a.63.63 0 0 1-.21-.48zm1.46 5.56h-1.38v-4.42h1.38v4.42zm2.72-.98c.19 0 .34-.05.45-.16.11-.1.16-.25.16-.44h1.29c0 .48-.17.88-.52 1.19-.35.31-.79.47-1.34.47-.64 0-1.15-.2-1.52-.6-.37-.4-.56-.96-.56-1.67v-.06c0-.45.08-.84.25-1.18.16-.34.4-.6.71-.79.31-.18.68-.28 1.1-.28.57 0 1.03.16 1.37.48.34.32.51.75.51 1.3h-1.29c0-.23-.06-.4-.17-.53a.58.58 0 0 0-.45-.18c-.36 0-.57.23-.63.68-.02.14-.03.34-.03.6 0 .44.05.75.16.92.11.16.28.25.51.25zm5.45-2.16c-.16-.23-.29-.45-.38-.65-.09-.21-.14-.42-.14-.64 0-.48.15-.87.47-1.16.31-.3.72-.44 1.22-.44.45 0 .82.14 1.12.41.29.27.44.61.44 1.02 0 .51-.28.96-.84 1.35l-.31.22.92 1.05c.15-.3.22-.63.22-.98h1.16c0 .8-.19 1.45-.56 1.93l.91 1.04h-1.54l-.28-.31c-.23.14-.46.24-.7.3s-.51.1-.81.1c-.59 0-1.06-.15-1.41-.46-.35-.31-.53-.72-.53-1.22 0-.28.07-.52.21-.75.14-.22.41-.48.82-.78l.01-.03zm.99 2.16c.24 0 .47-.06.69-.17l-1.07-1.22-.04.02c-.15.19-.23.41-.23.65 0 .2.06.37.19.51s.27.21.46.21zm-.32-3.47c0 .19.1.42.31.69l.27-.17c.13-.08.22-.17.27-.25s.09-.2.09-.33a.46.46 0 0 0-.13-.33.431.431 0 0 0-.32-.14.46.46 0 0 0-.36.15c-.09.1-.13.22-.13.38zm6.23 4.45v-5.95h1.92c.53 0 1 .12 1.42.36.42.24.75.57.98 1.01.24.43.35.92.36 1.46v.27c0 .54-.12 1.03-.35 1.46-.23.43-.55.77-.97 1.01-.42.24-.88.37-1.4.37h-1.96zm1.43-4.85v3.74h.5c.41 0 .73-.15.95-.44.22-.29.33-.73.33-1.31v-.26c0-.57-.11-1.01-.33-1.3-.22-.29-.54-.44-.96-.44h-.49zm6.4 4.85c-.05-.09-.09-.22-.13-.4-.25.32-.61.48-1.06.48-.42 0-.77-.13-1.06-.38a1.21 1.21 0 0 1-.44-.95c0-.48.18-.84.53-1.09.35-.25.87-.37 1.54-.37h.42v-.23c0-.41-.18-.61-.53-.61-.33 0-.49.16-.49.48h-1.38c0-.43.18-.77.55-1.04.36-.27.83-.4 1.39-.4.56 0 1.01.14 1.34.41.33.28.49.65.5 1.13v1.96c.01.41.07.72.19.93v.07h-1.37zm-.86-.9c.17 0 .31-.04.43-.11a.71.71 0 0 0 .24-.25v-.71h-.4c-.48 0-.72.22-.72.65 0 .13.04.23.13.3.08.08.19.12.32.12zm5.49-2.28l-.45-.03c-.43 0-.71.14-.83.41v2.8h-1.38v-4.42h1.29l.04.57c.23-.43.55-.65.97-.65.15 0 .27.02.38.05l-.02 1.27zm2.27 1.53l-.39.39v1.26h-1.38V27.5h1.38v3.33l.14-.18 1.04-1.29h1.65l-1.55 1.82 1.65 2.6h-1.58l-.96-1.65zm9.55-.57l.68-3.73h1.42l-1.26 5.95h-1.49l-.8-3.39-.78 3.39h-1.48l-1.27-5.95h1.43l.68 3.73.82-3.73h1.22l.83 3.73zm4.62 2.3c-.68 0-1.23-.2-1.65-.61-.42-.4-.63-.93-.63-1.58v-.11c0-.45.08-.85.25-1.2.17-.35.41-.61.73-.8.32-.19.7-.28 1.14-.28.62 0 1.11.19 1.47.58.36.39.54.92.54 1.61V32h-2.74c.05.25.16.44.32.58.17.14.38.21.65.21.44 0 .78-.15 1.02-.46l.63.74a1.7 1.7 0 0 1-.73.57c-.3.15-.64.22-1 .22zm-.16-3.52c-.4 0-.64.27-.72.8h1.39v-.11c.01-.22-.05-.39-.17-.51-.11-.12-.28-.18-.5-.18zM193 31.6c0 .72-.15 1.28-.45 1.67-.3.39-.72.58-1.27.58-.45 0-.81-.18-1.09-.54l-.06.45h-1.23V27.5h1.38v2.21c.26-.29.59-.44.99-.44.55 0 .97.2 1.27.59.3.4.45.95.45 1.67v.07zm-1.39-.09c0-.42-.06-.73-.17-.91-.11-.18-.29-.27-.52-.27-.31 0-.53.12-.65.35v1.75c.12.23.33.35.65.35s.53-.16.62-.47c.05-.14.07-.41.07-.8zm7.21.69c0-.21-.07-.37-.22-.49s-.41-.24-.78-.36c-.37-.13-.68-.25-.92-.36-.77-.38-1.16-.9-1.16-1.56 0-.33.1-.62.29-.87.19-.25.46-.45.81-.59.35-.14.75-.21 1.18-.21.43 0 .81.08 1.15.23.34.15.6.37.79.65.19.28.28.6.28.97h-1.43c0-.24-.07-.43-.22-.56-.15-.13-.35-.2-.6-.2-.26 0-.46.06-.61.17s-.22.26-.22.43c0 .15.08.29.25.41.16.12.45.25.86.38s.75.27 1.01.43c.64.37.96.88.96 1.53 0 .52-.2.93-.59 1.23-.39.3-.93.45-1.61.45-.48 0-.92-.09-1.31-.26s-.69-.41-.88-.71c-.2-.3-.3-.65-.3-1.04H197c0 .32.08.55.25.7.16.15.43.23.8.23.24 0 .42-.05.56-.15.14-.13.21-.27.21-.45zm3.97.6c.19 0 .34-.05.45-.16.11-.1.16-.25.16-.44h1.29c0 .48-.17.88-.52 1.19-.35.31-.79.47-1.34.47-.64 0-1.15-.2-1.52-.6-.37-.4-.56-.96-.56-1.67v-.06c0-.45.08-.84.25-1.18.16-.34.4-.6.71-.79.31-.18.68-.28 1.1-.28.57 0 1.03.16 1.37.48.34.32.51.75.51 1.3h-1.29c0-.23-.06-.4-.17-.53a.58.58 0 0 0-.45-.18c-.36 0-.57.23-.63.68-.02.14-.03.34-.03.6 0 .44.05.75.16.92.11.16.28.25.51.25zm4.97.98c-.05-.09-.09-.22-.13-.4-.25.32-.61.48-1.06.48-.42 0-.77-.13-1.06-.38a1.21 1.21 0 0 1-.44-.95c0-.48.18-.84.53-1.09.35-.25.87-.37 1.54-.37h.42v-.23c0-.41-.18-.61-.53-.61-.33 0-.49.16-.49.48h-1.38c0-.43.18-.77.55-1.04.36-.27.83-.4 1.39-.4.56 0 1.01.14 1.34.41.33.28.49.65.5 1.13v1.96c.01.41.07.72.19.93v.07h-1.37zm-.86-.9c.17 0 .31-.04.43-.11a.71.71 0 0 0 .24-.25v-.71h-.4c-.48 0-.72.22-.72.65 0 .13.04.23.13.3.08.08.19.12.32.12zm4.07-3.52l.04.52c.31-.4.73-.6 1.26-.6.46 0 .8.14 1.03.41.23.28.35.69.35 1.24v2.85h-1.38v-2.79c0-.22-.05-.39-.13-.49-.09-.1-.25-.16-.49-.16-.27 0-.47.11-.6.32v3.12h-1.38v-4.42h1.3zm4.72 0l.04.52c.31-.4.73-.6 1.26-.6.46 0 .8.14 1.03.41.23.28.35.69.35 1.24v2.85H217v-2.79c0-.22-.05-.39-.13-.49-.09-.1-.25-.16-.49-.16-.27 0-.47.11-.6.32v3.12h-1.38v-4.42h1.29zm3.45-1.14c0-.2.07-.36.21-.48.14-.13.33-.19.55-.19.23 0 .41.06.55.19.14.13.21.29.21.48a.6.6 0 0 1-.21.48c-.14.13-.33.19-.55.19-.23 0-.41-.06-.55-.19a.63.63 0 0 1-.21-.48zm1.46 5.56h-1.38v-4.42h1.38v4.42zm2.11-4.42l.04.52c.31-.4.73-.6 1.26-.6.46 0 .8.14 1.03.41.23.28.35.69.35 1.24v2.85h-1.38v-2.79c0-.22-.05-.39-.13-.49-.09-.1-.25-.16-.49-.16-.27 0-.47.11-.6.32v3.12h-1.38v-4.42h1.3zm3.29 2.17c0-.45.07-.84.22-1.18.15-.34.36-.61.63-.79.28-.19.6-.28.96-.28.46 0 .82.16 1.08.47l.05-.38h1.25v4.25c0 .39-.09.73-.27 1.02-.18.29-.44.51-.79.66-.34.15-.74.23-1.19.23-.32 0-.64-.06-.94-.18-.3-.12-.54-.28-.7-.48l.58-.81c.26.3.59.45 1.01.45.61 0 .92-.31.92-.94v-.14c-.26.29-.6.44-1 .44-.54 0-.98-.21-1.31-.62-.33-.41-.5-.96-.5-1.66v-.06zm1.39.09c0 .36.07.65.2.86.14.21.33.32.57.32.3 0 .51-.1.65-.3v-1.86c-.13-.2-.35-.3-.64-.3-.25 0-.44.11-.58.33-.14.21-.2.53-.2.95z"/></svg>