<?xml version="1.0" encoding="utf-8"?>
<!-- Generator: Adobe Illustrator 24.2.3, SVG Export Plug-In . SVG Version: 6.00 Build 0)  -->
<svg version="1.1" id="Layer_1" xmlns="http://www.w3.org/2000/svg" xmlns:xlink="http://www.w3.org/1999/xlink" x="0px" y="0px"
	 viewBox="0 0 320 468" style="enable-background:new 0 0 320 468;" xml:space="preserve">
<style type="text/css">
	.st0{fill:#021D8B;}
	.st1{fill:url(#SVGID_1_);}
</style>
<g>
	<path class="st0" d="M56.83,222.71c-0.58,0.83-1.38,1.45-2.42,1.86s-2.24,0.62-3.62,0.62c-1.39,0-2.62-0.33-3.7-0.98
		s-1.91-1.58-2.5-2.78s-0.89-2.6-0.91-4.18v-1.49c0-2.57,0.6-4.56,1.8-5.98s2.88-2.12,5.06-2.12c1.78,0,3.21,0.46,4.3,1.37
		s1.75,2.2,1.99,3.87h-2.25c-0.42-2.27-1.77-3.4-4.03-3.4c-1.51,0-2.65,0.53-3.43,1.59c-0.78,1.06-1.17,2.59-1.18,4.6v1.4
		c0,1.92,0.44,3.44,1.31,4.57c0.88,1.13,2.06,1.7,3.55,1.7c0.84,0,1.58-0.09,2.21-0.28c0.63-0.19,1.16-0.5,1.57-0.95v-3.82h-3.95
		v-1.84h6.19V222.71z"/>
	<path class="st0" d="M65.5,225.19c-1.72,0-3.12-0.56-4.2-1.69s-1.62-2.64-1.62-4.53v-0.4c0-1.26,0.24-2.38,0.72-3.37
		s1.15-1.76,2.02-2.32s1.8-0.84,2.81-0.84c1.65,0,2.93,0.54,3.84,1.63s1.37,2.64,1.37,4.66v0.9h-8.59c0.03,1.25,0.4,2.26,1.1,3.03
		s1.59,1.15,2.67,1.15c0.77,0,1.41-0.16,1.95-0.47s1-0.73,1.39-1.24l1.32,1.03C69.22,224.37,67.62,225.19,65.5,225.19z
		 M65.23,213.82c-0.88,0-1.61,0.32-2.2,0.96s-0.96,1.53-1.1,2.68h6.35v-0.16c-0.06-1.1-0.36-1.96-0.89-2.56
		S66.14,213.82,65.23,213.82z"/>
	<path class="st0" d="M75.89,209.2v3.07h2.37v1.68h-2.37v7.87c0,0.51,0.11,0.89,0.32,1.14c0.21,0.25,0.57,0.38,1.08,0.38
		c0.25,0,0.59-0.05,1.03-0.14v1.75c-0.57,0.15-1.12,0.23-1.66,0.23c-0.97,0-1.7-0.29-2.19-0.88s-0.74-1.42-0.74-2.5v-7.86h-2.31
		v-1.68h2.31v-3.07H75.89z"/>
	<path class="st0" d="M89.32,218.27v6.68h-2.25v-17.06h6.29c1.87,0,3.33,0.48,4.39,1.43s1.59,2.21,1.59,3.79
		c0,1.66-0.52,2.93-1.55,3.83s-2.52,1.34-4.45,1.34H89.32z M89.32,216.43h4.04c1.2,0,2.12-0.28,2.77-0.85
		c0.64-0.57,0.96-1.39,0.96-2.46c0-1.02-0.32-1.83-0.96-2.44s-1.52-0.93-2.64-0.95h-4.17V216.43z"/>
	<path class="st0" d="M108,214.22c-0.33-0.05-0.68-0.08-1.07-0.08c-1.42,0-2.39,0.61-2.89,1.82v9h-2.17v-12.68h2.11l0.04,1.46
		c0.71-1.13,1.72-1.7,3.02-1.7c0.42,0,0.74,0.05,0.96,0.16V214.22z"/>
	<path class="st0" d="M110.01,208.91c0-0.35,0.11-0.65,0.32-0.89s0.53-0.36,0.96-0.36s0.74,0.12,0.96,0.36s0.33,0.54,0.33,0.89
		s-0.11,0.64-0.33,0.88s-0.54,0.35-0.96,0.35s-0.74-0.12-0.96-0.35S110.01,209.26,110.01,208.91z M112.35,224.95h-2.17v-12.68h2.17
		V224.95z"/>
	<path class="st0" d="M120,222.01l3.14-9.74h2.21l-4.55,12.68h-1.65l-4.59-12.68h2.21L120,222.01z"/>
	<path class="st0" d="M135.1,224.95c-0.12-0.25-0.23-0.7-0.3-1.34c-1.01,1.05-2.21,1.57-3.61,1.57c-1.25,0-2.28-0.35-3.08-1.06
		s-1.2-1.6-1.2-2.69c0-1.32,0.5-2.35,1.51-3.08s2.42-1.1,4.24-1.1h2.11v-1c0-0.76-0.23-1.36-0.68-1.81s-1.12-0.67-2-0.67
		c-0.77,0-1.42,0.2-1.95,0.59s-0.79,0.86-0.79,1.42h-2.18c0-0.63,0.22-1.24,0.67-1.83s1.06-1.06,1.83-1.4s1.62-0.52,2.54-0.52
		c1.46,0,2.61,0.37,3.43,1.1s1.26,1.74,1.29,3.02v5.84c0,1.16,0.15,2.09,0.45,2.78v0.19H135.1z M131.5,223.3
		c0.68,0,1.32-0.18,1.93-0.53s1.05-0.81,1.32-1.37v-2.6h-1.7c-2.66,0-3.98,0.78-3.98,2.33c0,0.68,0.23,1.21,0.68,1.59
		S130.79,223.3,131.5,223.3z"/>
	<path class="st0" d="M145.41,223.42c0.77,0,1.45-0.23,2.03-0.7s0.9-1.05,0.96-1.76h2.05c-0.04,0.73-0.29,1.42-0.75,2.07
		s-1.08,1.18-1.85,1.57s-1.58,0.59-2.44,0.59c-1.73,0-3.1-0.58-4.12-1.73s-1.53-2.73-1.53-4.73v-0.36c0-1.23,0.23-2.33,0.68-3.29
		s1.1-1.71,1.95-2.24s1.85-0.8,3.01-0.8c1.42,0,2.6,0.43,3.54,1.28s1.44,1.96,1.51,3.32h-2.05c-0.06-0.82-0.37-1.49-0.93-2.02
		s-1.25-0.79-2.07-0.79c-1.1,0-1.96,0.4-2.56,1.19s-0.91,1.94-0.91,3.44v0.41c0,1.46,0.3,2.59,0.9,3.38S144.29,223.42,145.41,223.42
		z"/>
	<path class="st0" d="M157.03,221.78l2.95-9.5h2.32l-5.1,14.64c-0.79,2.11-2.04,3.16-3.76,3.16l-0.41-0.04l-0.81-0.15v-1.76
		l0.59,0.05c0.73,0,1.31-0.15,1.72-0.45s0.75-0.84,1.01-1.63l0.48-1.29l-4.52-12.54h2.37L157.03,221.78z"/>
	<path class="st0" d="M177.18,222.71c-0.58,0.83-1.38,1.45-2.42,1.86s-2.24,0.62-3.62,0.62c-1.39,0-2.62-0.33-3.7-0.98
		s-1.91-1.58-2.5-2.78s-0.89-2.6-0.91-4.18v-1.49c0-2.57,0.6-4.56,1.8-5.98s2.88-2.12,5.06-2.12c1.78,0,3.21,0.46,4.3,1.37
		s1.75,2.2,1.99,3.87h-2.25c-0.42-2.27-1.77-3.4-4.03-3.4c-1.51,0-2.65,0.53-3.43,1.59c-0.78,1.06-1.17,2.59-1.18,4.6v1.4
		c0,1.92,0.44,3.44,1.31,4.57c0.88,1.13,2.06,1.7,3.55,1.7c0.84,0,1.58-0.09,2.21-0.28c0.63-0.19,1.16-0.5,1.57-0.95v-3.82h-3.95
		v-1.84h6.19V222.71z"/>
	<path class="st0" d="M188.42,223.7c-0.84,0.99-2.08,1.49-3.71,1.49c-1.35,0-2.38-0.39-3.09-1.18s-1.06-1.95-1.07-3.49v-8.25h2.17
		v8.19c0,1.92,0.78,2.88,2.34,2.88c1.66,0,2.76-0.62,3.3-1.85v-9.22h2.17v12.68h-2.06L188.42,223.7z"/>
	<path class="st0" d="M201.65,224.95c-0.12-0.25-0.23-0.7-0.3-1.34c-1.01,1.05-2.21,1.57-3.61,1.57c-1.25,0-2.28-0.35-3.08-1.06
		s-1.2-1.6-1.2-2.69c0-1.32,0.5-2.35,1.51-3.08s2.42-1.1,4.24-1.1h2.11v-1c0-0.76-0.23-1.36-0.68-1.81s-1.12-0.67-2-0.67
		c-0.77,0-1.42,0.2-1.95,0.59s-0.79,0.86-0.79,1.42h-2.18c0-0.63,0.22-1.24,0.67-1.83s1.06-1.06,1.83-1.4s1.62-0.52,2.54-0.52
		c1.46,0,2.61,0.37,3.43,1.1s1.26,1.74,1.29,3.02v5.84c0,1.16,0.15,2.09,0.45,2.78v0.19H201.65z M198.05,223.3
		c0.68,0,1.32-0.18,1.93-0.53s1.05-0.81,1.32-1.37v-2.6h-1.7c-2.66,0-3.98,0.78-3.98,2.33c0,0.68,0.23,1.21,0.68,1.59
		S197.34,223.3,198.05,223.3z"/>
	<path class="st0" d="M213,214.22c-0.33-0.05-0.68-0.08-1.07-0.08c-1.42,0-2.39,0.61-2.89,1.82v9h-2.17v-12.68h2.11l0.04,1.46
		c0.71-1.13,1.72-1.7,3.02-1.7c0.42,0,0.74,0.05,0.96,0.16V214.22z"/>
	<path class="st0" d="M214.47,218.51c0-1.95,0.46-3.51,1.38-4.69s2.13-1.78,3.62-1.78c1.48,0,2.66,0.51,3.53,1.52v-6.61h2.17v18
		h-1.99l-0.11-1.36c-0.87,1.06-2.07,1.59-3.62,1.59c-1.47,0-2.67-0.6-3.59-1.8s-1.39-2.77-1.39-4.71V218.51z M216.64,218.75
		c0,1.44,0.3,2.56,0.89,3.38s1.41,1.22,2.46,1.22c1.38,0,2.38-0.62,3.01-1.85v-5.82c-0.65-1.2-1.64-1.79-2.99-1.79
		c-1.06,0-1.89,0.41-2.48,1.23S216.64,217.14,216.64,218.75z"/>
	<path class="st0" d="M245.7,221.96l2.44-9.69h2.17l-3.69,12.68h-1.76l-3.08-9.61l-3,9.61h-1.76l-3.68-12.68h2.16l2.5,9.49
		l2.95-9.49h1.75L245.7,221.96z"/>
	<path class="st0" d="M252.52,208.91c0-0.35,0.11-0.65,0.32-0.89s0.53-0.36,0.96-0.36s0.74,0.12,0.96,0.36s0.33,0.54,0.33,0.89
		s-0.11,0.64-0.33,0.88s-0.54,0.35-0.96,0.35s-0.74-0.12-0.96-0.35S252.52,209.26,252.52,208.91z M254.86,224.95h-2.17v-12.68h2.17
		V224.95z"/>
	<path class="st0" d="M261.27,209.2v3.07h2.37v1.68h-2.37v7.87c0,0.51,0.11,0.89,0.32,1.14c0.21,0.25,0.57,0.38,1.08,0.38
		c0.25,0,0.59-0.05,1.03-0.14v1.75c-0.57,0.15-1.12,0.23-1.66,0.23c-0.97,0-1.7-0.29-2.19-0.88s-0.74-1.42-0.74-2.5v-7.86h-2.31
		v-1.68h2.31v-3.07H261.27z"/>
	<path class="st0" d="M268.34,213.81c0.96-1.18,2.21-1.77,3.75-1.77c2.68,0,4.03,1.51,4.05,4.54v8.38h-2.17v-8.39
		c-0.01-0.91-0.22-1.59-0.63-2.03s-1.05-0.66-1.92-0.66c-0.7,0-1.32,0.19-1.85,0.56s-0.95,0.87-1.24,1.48v9.04h-2.17v-18h2.17
		V213.81z"/>
	<path class="st0" d="M47.45,241.07l0.11,1.42c0.9-1.1,2.11-1.65,3.64-1.65c1.63,0,2.75,0.64,3.36,1.93
		c0.89-1.29,2.16-1.93,3.81-1.93c1.38,0,2.4,0.4,3.07,1.2s1.01,2.01,1.01,3.62v8.1h-3.4v-8.09c0-0.72-0.14-1.24-0.42-1.58
		s-0.78-0.5-1.49-0.5c-1.02,0-1.72,0.48-2.11,1.45l0.01,8.71h-3.39v-8.07c0-0.73-0.14-1.27-0.43-1.59s-0.78-0.49-1.48-0.49
		c-0.96,0-1.66,0.4-2.09,1.2v8.96h-3.39v-12.68H47.45z"/>
	<path class="st0" d="M64.52,247.3c0-1.26,0.24-2.38,0.73-3.36s1.18-1.75,2.09-2.29s1.97-0.81,3.17-0.81c1.71,0,3.11,0.52,4.19,1.57
		s1.69,2.47,1.81,4.27l0.02,0.87c0,1.95-0.54,3.51-1.63,4.68s-2.54,1.76-4.37,1.76s-3.29-0.59-4.38-1.76s-1.63-2.77-1.63-4.78V247.3
		z M67.91,247.54c0,1.21,0.23,2.13,0.68,2.76c0.45,0.64,1.1,0.96,1.95,0.96c0.82,0,1.46-0.31,1.92-0.95
		c0.46-0.63,0.69-1.64,0.69-3.02c0-1.18-0.23-2.1-0.69-2.75s-1.11-0.97-1.95-0.97c-0.83,0-1.47,0.32-1.92,0.97
		S67.91,246.18,67.91,247.54z"/>
	<path class="st0" d="M81.74,241.07l0.11,1.46c0.91-1.13,2.12-1.7,3.64-1.7c1.34,0,2.34,0.39,3,1.18s0.99,1.97,1.01,3.54v8.19h-3.39
		v-8.11c0-0.72-0.16-1.24-0.47-1.56s-0.83-0.49-1.56-0.49c-0.95,0-1.67,0.41-2.14,1.22v8.94h-3.39v-12.68H81.74z"/>
	<path class="st0" d="M96.11,237.96v3.12h2.17v2.48h-2.17v6.33c0,0.47,0.09,0.8,0.27,1.01s0.52,0.3,1.03,0.3
		c0.38,0,0.71-0.03,1-0.08v2.57c-0.66,0.2-1.35,0.3-2.05,0.3c-2.38,0-3.59-1.2-3.63-3.6v-6.83h-1.85v-2.48h1.85v-3.12H96.11z"/>
	<path class="st0" d="M103.47,242.46c0.9-1.08,2.03-1.62,3.39-1.62c2.75,0,4.14,1.6,4.18,4.79v8.12h-3.39v-8.03
		c0-0.73-0.16-1.26-0.47-1.61s-0.83-0.52-1.56-0.52c-0.99,0-1.71,0.38-2.16,1.15v9.01h-3.39v-18h3.39V242.46z"/>
	<path class="st0" d="M117.17,253.75h-3.4v-18h3.4V253.75z"/>
	<path class="st0" d="M124.7,248.96l2.34-7.89h3.63l-5.1,14.65l-0.28,0.67c-0.76,1.66-2.01,2.48-3.75,2.48
		c-0.49,0-0.99-0.07-1.5-0.22v-2.57l0.52,0.01c0.64,0,1.12-0.1,1.44-0.29s0.56-0.52,0.74-0.97l0.4-1.04l-4.44-12.71h3.64
		L124.7,248.96z"/>
	<path class="st0" d="M142.04,237.96v3.12h2.17v2.48h-2.17v6.33c0,0.47,0.09,0.8,0.27,1.01s0.52,0.3,1.03,0.3
		c0.38,0,0.71-0.03,1-0.08v2.57c-0.66,0.2-1.35,0.3-2.05,0.3c-2.38,0-3.59-1.2-3.63-3.6v-6.83h-1.85v-2.48h1.85v-3.12H142.04z"/>
	<path class="st0" d="M153.22,244.25c-0.46-0.06-0.87-0.09-1.22-0.09c-1.28,0-2.12,0.43-2.52,1.3v8.3h-3.39v-12.68h3.2l0.09,1.51
		c0.68-1.16,1.62-1.75,2.82-1.75c0.38,0,0.73,0.05,1.05,0.15L153.22,244.25z"/>
	<path class="st0" d="M154.83,237.79c0-0.51,0.17-0.93,0.51-1.25s0.8-0.49,1.39-0.49c0.58,0,1.04,0.16,1.38,0.49
		s0.52,0.75,0.52,1.25c0,0.52-0.17,0.94-0.52,1.27s-0.81,0.49-1.38,0.49s-1.03-0.16-1.38-0.49S154.83,238.31,154.83,237.79z
		 M158.42,253.75h-3.4v-12.68h3.4V253.75z"/>
	<path class="st0" d="M172.63,247.53c0,1.95-0.44,3.52-1.33,4.69s-2.08,1.76-3.59,1.76c-1.28,0-2.32-0.45-3.11-1.34v5.98h-3.39
		v-17.55h3.14l0.12,1.24c0.82-0.98,1.89-1.48,3.21-1.48c1.56,0,2.78,0.58,3.64,1.73s1.3,2.75,1.3,4.78V247.53z M169.24,247.28
		c0-1.18-0.21-2.09-0.63-2.73s-1.03-0.96-1.82-0.96c-1.06,0-1.79,0.41-2.19,1.22V250c0.41,0.84,1.15,1.25,2.21,1.25
		C168.43,251.26,169.24,249.93,169.24,247.28z"/>
	<path class="st0" d="M178.3,253.75h-3.4v-18h3.4V253.75z"/>
	<path class="st0" d="M186.92,253.99c-1.86,0-3.37-0.57-4.54-1.71s-1.75-2.66-1.75-4.56v-0.33c0-1.27,0.25-2.41,0.74-3.42
		s1.19-1.78,2.09-2.32s1.93-0.81,3.09-0.81c1.73,0,3.1,0.55,4.1,1.64s1.49,2.64,1.49,4.65v1.38h-8.07c0.11,0.83,0.44,1.49,0.99,1.99
		s1.25,0.75,2.09,0.75c1.3,0,2.32-0.47,3.06-1.42l1.66,1.86c-0.51,0.72-1.2,1.28-2.06,1.68S187.98,253.99,186.92,253.99z
		 M186.54,243.57c-0.67,0-1.22,0.23-1.63,0.68s-0.69,1.11-0.8,1.95h4.71v-0.27c-0.02-0.75-0.22-1.34-0.61-1.75
		S187.26,243.57,186.54,243.57z"/>
	<path class="st0" d="M200.65,247.81h-6.6v-2.73h6.6V247.81z"/>
	<path class="st0" d="M214.79,247.53c0,2.03-0.43,3.62-1.3,4.75s-2.08,1.71-3.63,1.71c-1.38,0-2.47-0.53-3.29-1.58l-0.15,1.35h-3.05
		v-18h3.39v6.46c0.78-0.91,1.81-1.37,3.08-1.37c1.55,0,2.76,0.57,3.64,1.71s1.32,2.74,1.32,4.8V247.53z M211.4,247.28
		c0-1.28-0.2-2.22-0.61-2.81s-1.01-0.88-1.82-0.88c-1.08,0-1.82,0.44-2.23,1.32v5c0.41,0.89,1.16,1.34,2.25,1.34
		c1.09,0,1.81-0.54,2.16-1.62C211.32,249.12,211.4,248.34,211.4,247.28z"/>
	<path class="st0" d="M224.47,252.46c-0.84,1.02-1.99,1.52-3.47,1.52c-1.36,0-2.4-0.39-3.11-1.17s-1.08-1.93-1.1-3.43v-8.31h3.39
		v8.2c0,1.32,0.6,1.98,1.8,1.98c1.15,0,1.94-0.4,2.37-1.2v-8.99h3.4v12.68h-3.19L224.47,252.46z"/>
	<path class="st0" d="M237.43,244.25c-0.46-0.06-0.87-0.09-1.22-0.09c-1.28,0-2.12,0.43-2.52,1.3v8.3h-3.39v-12.68h3.2l0.09,1.51
		c0.68-1.16,1.62-1.75,2.82-1.75c0.38,0,0.73,0.05,1.05,0.15L237.43,244.25z"/>
	<path class="st0" d="M244.9,253.99c-1.86,0-3.37-0.57-4.54-1.71s-1.75-2.66-1.75-4.56v-0.33c0-1.27,0.25-2.41,0.74-3.42
		s1.19-1.78,2.09-2.32s1.93-0.81,3.09-0.81c1.73,0,3.1,0.55,4.1,1.64s1.49,2.64,1.49,4.65v1.38h-8.07c0.11,0.83,0.44,1.49,0.99,1.99
		s1.25,0.75,2.09,0.75c1.3,0,2.32-0.47,3.06-1.42l1.66,1.86c-0.51,0.72-1.2,1.28-2.06,1.68S245.95,253.99,244.9,253.99z
		 M244.51,243.57c-0.67,0-1.22,0.23-1.63,0.68s-0.69,1.11-0.8,1.95h4.71v-0.27c-0.02-0.75-0.22-1.34-0.61-1.75
		S245.23,243.57,244.51,243.57z"/>
	<path class="st0" d="M259.38,253.75c-0.16-0.3-0.27-0.68-0.34-1.14c-0.82,0.91-1.89,1.37-3.2,1.37c-1.24,0-2.27-0.36-3.09-1.08
		s-1.22-1.62-1.22-2.72c0-1.34,0.5-2.38,1.49-3.09s2.44-1.08,4.32-1.09h1.56v-0.73c0-0.59-0.15-1.05-0.45-1.41s-0.78-0.53-1.42-0.53
		c-0.57,0-1.02,0.14-1.34,0.41s-0.49,0.65-0.49,1.12h-3.39c0-0.73,0.23-1.41,0.68-2.04s1.09-1.12,1.92-1.47s1.76-0.53,2.79-0.53
		c1.56,0,2.8,0.39,3.72,1.18s1.38,1.89,1.38,3.31v5.5c0.01,1.2,0.18,2.11,0.5,2.73v0.2H259.38z M256.58,251.4
		c0.5,0,0.96-0.11,1.38-0.33s0.73-0.52,0.94-0.9v-2.18h-1.27c-1.7,0-2.6,0.59-2.71,1.76l-0.01,0.2c0,0.42,0.15,0.77,0.45,1.04
		S256.06,251.4,256.58,251.4z"/>
	<path class="st0" d="M272.49,252.46c-0.84,1.02-1.99,1.52-3.47,1.52c-1.36,0-2.4-0.39-3.11-1.17s-1.08-1.93-1.1-3.43v-8.31h3.39
		v8.2c0,1.32,0.6,1.98,1.8,1.98c1.15,0,1.94-0.4,2.37-1.2v-8.99h3.4v12.68h-3.19L272.49,252.46z"/>
	<path class="st0" d="M43.07,280.06c0.62,0,1.13-0.17,1.52-0.52s0.59-0.8,0.61-1.37h3.18c-0.01,0.86-0.24,1.65-0.7,2.36
		s-1.09,1.27-1.89,1.66s-1.69,0.59-2.65,0.59c-1.81,0-3.24-0.58-4.29-1.73s-1.57-2.74-1.57-4.78v-0.22c0-1.95,0.52-3.51,1.56-4.68
		s2.46-1.75,4.28-1.75c1.59,0,2.86,0.45,3.81,1.35s1.44,2.1,1.46,3.6H45.2c-0.02-0.66-0.22-1.2-0.61-1.61
		c-0.39-0.41-0.91-0.62-1.55-0.62c-0.79,0-1.38,0.29-1.79,0.86c-0.4,0.58-0.6,1.51-0.6,2.8v0.35c0,1.31,0.2,2.25,0.6,2.82
		S42.26,280.06,43.07,280.06z"/>
	<path class="st0" d="M57.44,273.05c-0.46-0.06-0.87-0.09-1.22-0.09c-1.28,0-2.12,0.43-2.52,1.3v8.3h-3.39v-12.68h3.2l0.09,1.51
		c0.68-1.16,1.62-1.75,2.82-1.75c0.38,0,0.73,0.05,1.05,0.15L57.44,273.05z"/>
	<path class="st0" d="M64.9,282.79c-1.86,0-3.37-0.57-4.54-1.71s-1.75-2.66-1.75-4.56v-0.33c0-1.27,0.25-2.41,0.74-3.42
		s1.19-1.78,2.09-2.32s1.93-0.81,3.09-0.81c1.73,0,3.1,0.55,4.1,1.64s1.49,2.64,1.49,4.65v1.38h-8.07c0.11,0.83,0.44,1.49,0.99,1.99
		s1.25,0.75,2.09,0.75c1.3,0,2.32-0.47,3.06-1.42l1.66,1.86c-0.51,0.72-1.2,1.28-2.06,1.68S65.96,282.79,64.9,282.79z M64.52,272.37
		c-0.67,0-1.22,0.23-1.63,0.68s-0.69,1.11-0.8,1.95h4.71v-0.27c-0.02-0.75-0.22-1.34-0.61-1.75S65.23,272.37,64.52,272.37z"/>
	<path class="st0" d="M71.51,276.12c0-1.98,0.44-3.55,1.33-4.72s2.1-1.76,3.64-1.76c1.23,0,2.25,0.46,3.06,1.38v-6.47h3.4v18h-3.06
		l-0.16-1.35c-0.84,1.05-1.93,1.58-3.26,1.58c-1.49,0-2.69-0.59-3.59-1.76S71.51,278.21,71.51,276.12z M74.9,276.37
		c0,1.19,0.21,2.1,0.62,2.73c0.41,0.63,1.02,0.95,1.8,0.95c1.05,0,1.79-0.44,2.21-1.33v-5.01c-0.42-0.88-1.15-1.33-2.19-1.33
		C75.71,272.39,74.9,273.72,74.9,276.37z"/>
	<path class="st0" d="M85.54,266.59c0-0.51,0.17-0.93,0.51-1.25s0.8-0.49,1.39-0.49c0.58,0,1.04,0.16,1.38,0.49s0.52,0.75,0.52,1.25
		c0,0.52-0.17,0.94-0.52,1.27s-0.81,0.49-1.38,0.49s-1.03-0.16-1.38-0.49S85.54,267.11,85.54,266.59z M89.14,282.55h-3.4v-12.68h3.4
		V282.55z"/>
	<path class="st0" d="M95.98,266.76v3.12h2.17v2.48h-2.17v6.33c0,0.47,0.09,0.8,0.27,1.01s0.52,0.3,1.03,0.3
		c0.38,0,0.71-0.03,1-0.08v2.57c-0.66,0.2-1.35,0.3-2.05,0.3c-2.38,0-3.59-1.2-3.63-3.6v-6.83h-1.85v-2.48h1.85v-3.12H95.98z"/>
	<path class="st0" d="M112.88,279.05c0-0.41-0.21-0.74-0.62-0.98s-1.07-0.45-1.97-0.64c-3.02-0.63-4.52-1.91-4.52-3.84
		c0-1.12,0.47-2.06,1.4-2.82s2.15-1.13,3.66-1.13c1.61,0,2.9,0.38,3.86,1.14s1.45,1.74,1.45,2.95h-3.39c0-0.48-0.16-0.88-0.47-1.2
		s-0.8-0.47-1.46-0.47c-0.57,0-1.01,0.13-1.32,0.39s-0.47,0.59-0.47,0.98c0,0.38,0.18,0.68,0.53,0.91s0.96,0.43,1.8,0.6
		s1.55,0.36,2.13,0.57c1.79,0.66,2.68,1.79,2.68,3.41c0,1.16-0.5,2.09-1.49,2.81s-2.27,1.07-3.84,1.07c-1.06,0-2.01-0.19-2.83-0.57
		s-1.47-0.9-1.94-1.56s-0.7-1.37-0.7-2.14h3.21c0.03,0.6,0.25,1.06,0.67,1.38s0.97,0.48,1.66,0.48c0.65,0,1.14-0.12,1.47-0.37
		S112.88,279.45,112.88,279.05z"/>
	<path class="st0" d="M123.62,280.06c0.62,0,1.13-0.17,1.52-0.52s0.59-0.8,0.61-1.37h3.18c-0.01,0.86-0.24,1.65-0.7,2.36
		s-1.09,1.27-1.89,1.66s-1.69,0.59-2.65,0.59c-1.81,0-3.24-0.58-4.29-1.73s-1.57-2.74-1.57-4.78v-0.22c0-1.95,0.52-3.51,1.56-4.68
		s2.46-1.75,4.28-1.75c1.59,0,2.86,0.45,3.81,1.35s1.44,2.1,1.46,3.6h-3.18c-0.02-0.66-0.22-1.2-0.61-1.61
		c-0.39-0.41-0.91-0.62-1.55-0.62c-0.79,0-1.38,0.29-1.79,0.86c-0.4,0.58-0.6,1.51-0.6,2.8v0.35c0,1.31,0.2,2.25,0.6,2.82
		S122.81,280.06,123.62,280.06z"/>
	<path class="st0" d="M130.34,276.1c0-1.26,0.24-2.38,0.73-3.36s1.18-1.75,2.09-2.29s1.97-0.81,3.17-0.81
		c1.71,0,3.11,0.52,4.19,1.57s1.69,2.47,1.81,4.27l0.02,0.87c0,1.95-0.54,3.51-1.63,4.68s-2.54,1.76-4.37,1.76s-3.29-0.59-4.38-1.76
		s-1.63-2.77-1.63-4.78V276.1z M133.73,276.34c0,1.21,0.23,2.13,0.68,2.76c0.45,0.64,1.1,0.96,1.95,0.96c0.82,0,1.46-0.31,1.92-0.95
		c0.46-0.63,0.69-1.64,0.69-3.02c0-1.18-0.23-2.1-0.69-2.75s-1.11-0.97-1.95-0.97c-0.83,0-1.47,0.32-1.92,0.97
		S133.73,274.98,133.73,276.34z"/>
	<path class="st0" d="M151.56,273.05c-0.46-0.06-0.87-0.09-1.22-0.09c-1.28,0-2.12,0.43-2.52,1.3v8.3h-3.39v-12.68h3.2l0.09,1.51
		c0.68-1.16,1.62-1.75,2.82-1.75c0.38,0,0.73,0.05,1.05,0.15L151.56,273.05z"/>
	<path class="st0" d="M159.03,282.79c-1.86,0-3.37-0.57-4.54-1.71s-1.75-2.66-1.75-4.56v-0.33c0-1.27,0.25-2.41,0.74-3.42
		s1.19-1.78,2.09-2.32s1.93-0.81,3.09-0.81c1.73,0,3.1,0.55,4.1,1.64s1.49,2.64,1.49,4.65v1.38h-8.07c0.11,0.83,0.44,1.49,0.99,1.99
		s1.25,0.75,2.09,0.75c1.3,0,2.32-0.47,3.06-1.42l1.66,1.86c-0.51,0.72-1.2,1.28-2.06,1.68S160.08,282.79,159.03,282.79z
		 M158.64,272.37c-0.67,0-1.22,0.23-1.63,0.68s-0.69,1.11-0.8,1.95h4.71v-0.27c-0.02-0.75-0.22-1.34-0.61-1.75
		S159.36,272.37,158.64,272.37z"/>
	<path class="st0" d="M173.03,279.05c0-0.41-0.21-0.74-0.62-0.98s-1.07-0.45-1.97-0.64c-3.02-0.63-4.52-1.91-4.52-3.84
		c0-1.12,0.47-2.06,1.4-2.82s2.15-1.13,3.66-1.13c1.61,0,2.9,0.38,3.86,1.14s1.45,1.74,1.45,2.95h-3.39c0-0.48-0.16-0.88-0.47-1.2
		s-0.8-0.47-1.46-0.47c-0.57,0-1.01,0.13-1.32,0.39s-0.47,0.59-0.47,0.98c0,0.38,0.18,0.68,0.53,0.91s0.96,0.43,1.8,0.6
		s1.55,0.36,2.13,0.57c1.79,0.66,2.68,1.79,2.68,3.41c0,1.16-0.5,2.09-1.49,2.81s-2.27,1.07-3.84,1.07c-1.06,0-2.01-0.19-2.83-0.57
		s-1.47-0.9-1.94-1.56s-0.7-1.37-0.7-2.14h3.21c0.03,0.6,0.25,1.06,0.67,1.38s0.97,0.48,1.66,0.48c0.65,0,1.14-0.12,1.47-0.37
		S173.03,279.45,173.03,279.05z"/>
	<path class="st0" d="M184.01,277.96c0-0.79,0.22-1.52,0.66-2.19s1.25-1.42,2.43-2.24c-0.51-0.68-0.91-1.32-1.2-1.92
		s-0.43-1.22-0.43-1.87c0-1.33,0.42-2.41,1.26-3.24s1.97-1.25,3.39-1.25c1.27,0,2.32,0.38,3.13,1.14s1.22,1.7,1.22,2.84
		c0,1.36-0.69,2.56-2.06,3.6l-1.31,0.95l2.94,3.42c0.46-0.91,0.69-1.91,0.69-3h2.88c0,2.22-0.51,4.02-1.54,5.39l2.55,2.96h-3.84
		l-0.88-1.01c-1.26,0.83-2.7,1.24-4.34,1.24c-1.69,0-3.04-0.44-4.05-1.33S184.01,279.4,184.01,277.96z M189.75,280.06
		c0.81,0,1.58-0.23,2.31-0.68l-3.36-3.88l-0.25,0.18c-0.7,0.59-1.04,1.29-1.04,2.09c0,0.68,0.22,1.23,0.65,1.65
		S189.06,280.06,189.75,280.06z M188.51,269.7c0,0.59,0.34,1.32,1.03,2.21l0.9-0.6c0.46-0.3,0.78-0.59,0.96-0.87
		s0.26-0.62,0.26-1.01s-0.14-0.73-0.43-1.02s-0.66-0.43-1.11-0.43c-0.48,0-0.87,0.16-1.17,0.47S188.51,269.18,188.51,269.7z"/>
	<path class="st0" d="M213.33,273.05c-0.46-0.06-0.87-0.09-1.22-0.09c-1.28,0-2.12,0.43-2.52,1.3v8.3h-3.39v-12.68h3.2l0.09,1.51
		c0.68-1.16,1.62-1.75,2.82-1.75c0.38,0,0.73,0.05,1.05,0.15L213.33,273.05z"/>
	<path class="st0" d="M220.8,282.79c-1.86,0-3.37-0.57-4.54-1.71s-1.75-2.66-1.75-4.56v-0.33c0-1.27,0.25-2.41,0.74-3.42
		s1.19-1.78,2.09-2.32s1.93-0.81,3.09-0.81c1.73,0,3.1,0.55,4.1,1.64s1.49,2.64,1.49,4.65v1.38h-8.07c0.11,0.83,0.44,1.49,0.99,1.99
		s1.25,0.75,2.09,0.75c1.3,0,2.32-0.47,3.06-1.42l1.66,1.86c-0.51,0.72-1.2,1.28-2.06,1.68S221.85,282.79,220.8,282.79z
		 M220.41,272.37c-0.67,0-1.22,0.23-1.63,0.68s-0.69,1.11-0.8,1.95h4.71v-0.27c-0.02-0.75-0.22-1.34-0.61-1.75
		S221.13,272.37,220.41,272.37z"/>
	<path class="st0" d="M239.35,276.33c0,1.95-0.44,3.52-1.33,4.69s-2.08,1.76-3.59,1.76c-1.28,0-2.32-0.45-3.11-1.34v5.98h-3.39
		v-17.55h3.14l0.12,1.24c0.82-0.98,1.89-1.48,3.21-1.48c1.56,0,2.78,0.58,3.64,1.73s1.3,2.75,1.3,4.78V276.33z M235.96,276.08
		c0-1.18-0.21-2.09-0.63-2.73s-1.03-0.96-1.82-0.96c-1.06,0-1.79,0.41-2.19,1.22v5.19c0.41,0.84,1.15,1.25,2.21,1.25
		C235.15,280.06,235.96,278.73,235.96,276.08z"/>
	<path class="st0" d="M240.92,276.1c0-1.26,0.24-2.38,0.73-3.36s1.18-1.75,2.09-2.29s1.97-0.81,3.17-0.81
		c1.71,0,3.11,0.52,4.19,1.57s1.69,2.47,1.81,4.27l0.02,0.87c0,1.95-0.54,3.51-1.63,4.68s-2.54,1.76-4.37,1.76s-3.29-0.59-4.38-1.76
		s-1.63-2.77-1.63-4.78V276.1z M244.3,276.34c0,1.21,0.23,2.13,0.68,2.76c0.45,0.64,1.1,0.96,1.95,0.96c0.82,0,1.46-0.31,1.92-0.95
		c0.46-0.63,0.69-1.64,0.69-3.02c0-1.18-0.23-2.1-0.69-2.75s-1.11-0.97-1.95-0.97c-0.83,0-1.47,0.32-1.92,0.97
		S244.3,274.98,244.3,276.34z"/>
	<path class="st0" d="M262.14,273.05c-0.46-0.06-0.87-0.09-1.22-0.09c-1.28,0-2.12,0.43-2.52,1.3v8.3h-3.39v-12.68h3.2l0.09,1.51
		c0.68-1.16,1.62-1.75,2.82-1.75c0.38,0,0.73,0.05,1.05,0.15L262.14,273.05z"/>
	<path class="st0" d="M268.41,266.76v3.12h2.17v2.48h-2.17v6.33c0,0.47,0.09,0.8,0.27,1.01s0.52,0.3,1.03,0.3
		c0.38,0,0.71-0.03,1-0.08v2.57c-0.66,0.2-1.35,0.3-2.05,0.3c-2.38,0-3.59-1.2-3.63-3.6v-6.83h-1.85v-2.48h1.85v-3.12H268.41z"/>
	<path class="st0" d="M279.33,279.05c0-0.41-0.21-0.74-0.62-0.98s-1.07-0.45-1.97-0.64c-3.02-0.63-4.52-1.91-4.52-3.84
		c0-1.12,0.47-2.06,1.4-2.82s2.15-1.13,3.66-1.13c1.61,0,2.9,0.38,3.86,1.14s1.45,1.74,1.45,2.95h-3.39c0-0.48-0.16-0.88-0.47-1.2
		s-0.8-0.47-1.46-0.47c-0.57,0-1.01,0.13-1.32,0.39s-0.47,0.59-0.47,0.98c0,0.38,0.18,0.68,0.53,0.91s0.96,0.43,1.8,0.6
		s1.55,0.36,2.13,0.57c1.79,0.66,2.68,1.79,2.68,3.41c0,1.16-0.5,2.09-1.49,2.81s-2.27,1.07-3.84,1.07c-1.06,0-2.01-0.19-2.83-0.57
		s-1.47-0.9-1.94-1.56s-0.7-1.37-0.7-2.14h3.21c0.03,0.6,0.25,1.06,0.67,1.38s0.97,0.48,1.66,0.48c0.65,0,1.14-0.12,1.47-0.37
		S279.33,279.45,279.33,279.05z"/>
</g>
<g>
	<path class="st0" d="M79.06,346.08c0-0.42-0.15-0.77-0.44-1.06c-0.29-0.29-0.79-0.55-1.49-0.78c-0.97-0.3-1.68-0.68-2.12-1.16
		c-0.44-0.48-0.67-1.08-0.67-1.81c0-0.75,0.22-1.36,0.65-1.84c0.44-0.48,1.03-0.76,1.79-0.85v-1.5h1.02v1.5
		c0.77,0.1,1.36,0.43,1.79,0.96c0.43,0.54,0.64,1.27,0.64,2.21h-1.26c0-0.64-0.15-1.16-0.46-1.54c-0.31-0.38-0.72-0.57-1.24-0.57
		c-0.54,0-0.96,0.14-1.24,0.42c-0.29,0.28-0.43,0.67-0.43,1.17c0,0.47,0.15,0.84,0.45,1.11c0.3,0.28,0.8,0.53,1.5,0.75
		c0.69,0.23,1.24,0.47,1.63,0.75c0.39,0.27,0.68,0.59,0.86,0.95c0.18,0.36,0.28,0.78,0.28,1.26c0,0.77-0.23,1.39-0.69,1.86
		c-0.46,0.47-1.11,0.75-1.94,0.83v1.31h-1.01v-1.31c-0.85-0.08-1.51-0.38-1.99-0.91c-0.48-0.53-0.72-1.24-0.72-2.14h1.26
		c0,0.63,0.17,1.12,0.5,1.46s0.8,0.51,1.42,0.51c0.6,0,1.07-0.14,1.41-0.43S79.06,346.58,79.06,346.08z"/>
	<path class="st0" d="M86.06,348.65h-1.27v-8.43l-2.55,0.94v-1.15l3.62-1.36h0.2V348.65z"/>
	<path class="st0" d="M95.07,339.46v1.79h1.38v0.98h-1.38v4.59c0,0.3,0.06,0.52,0.18,0.67s0.33,0.22,0.63,0.22
		c0.15,0,0.35-0.03,0.6-0.08v1.02c-0.33,0.09-0.66,0.14-0.97,0.14c-0.57,0-0.99-0.17-1.28-0.51s-0.43-0.83-0.43-1.46v-4.59h-1.35
		v-0.98h1.35v-1.79H95.07z"/>
	<path class="st0" d="M101.51,342.39c-0.19-0.03-0.4-0.05-0.62-0.05c-0.83,0-1.39,0.35-1.69,1.06v5.25h-1.26v-7.4h1.23l0.02,0.85
		c0.42-0.66,1-0.99,1.76-0.99c0.25,0,0.43,0.03,0.56,0.1V342.39z"/>
	<path class="st0" d="M102.68,339.29c0-0.21,0.06-0.38,0.19-0.52c0.12-0.14,0.31-0.21,0.56-0.21s0.43,0.07,0.56,0.21
		c0.13,0.14,0.19,0.31,0.19,0.52s-0.06,0.38-0.19,0.51s-0.31,0.21-0.56,0.21s-0.43-0.07-0.56-0.21
		C102.74,339.67,102.68,339.5,102.68,339.29z M104.04,348.65h-1.26v-7.4h1.26V348.65z"/>
	<path class="st0" d="M110.63,348.65c-0.07-0.15-0.13-0.41-0.18-0.78c-0.59,0.61-1.29,0.92-2.11,0.92c-0.73,0-1.33-0.21-1.79-0.62
		c-0.47-0.41-0.7-0.94-0.7-1.57c0-0.77,0.29-1.37,0.88-1.79c0.59-0.43,1.41-0.64,2.47-0.64h1.23v-0.58c0-0.44-0.13-0.79-0.4-1.06
		c-0.26-0.26-0.65-0.39-1.17-0.39c-0.45,0-0.83,0.11-1.13,0.34c-0.31,0.23-0.46,0.5-0.46,0.83H106c0-0.37,0.13-0.73,0.39-1.07
		c0.26-0.34,0.62-0.62,1.07-0.82c0.45-0.2,0.94-0.3,1.48-0.3c0.85,0,1.52,0.21,2,0.64c0.48,0.43,0.73,1.01,0.75,1.76v3.4
		c0,0.68,0.09,1.22,0.26,1.62v0.11H110.63z M108.53,347.68c0.4,0,0.77-0.1,1.13-0.31s0.61-0.47,0.77-0.8v-1.52h-0.99
		c-1.55,0-2.32,0.45-2.32,1.36c0,0.4,0.13,0.71,0.4,0.93C107.78,347.57,108.12,347.68,108.53,347.68z"/>
	<path class="st0" d="M115.06,348.65h-1.26v-10.5h1.26V348.65z"/>
	<path class="st0" d="M121.17,348.65v-6.42H120v-0.98h1.17v-0.76c0-0.79,0.21-1.41,0.64-1.84c0.42-0.43,1.02-0.65,1.8-0.65
		c0.29,0,0.58,0.04,0.87,0.12l-0.07,1.02c-0.21-0.04-0.44-0.06-0.68-0.06c-0.41,0-0.73,0.12-0.95,0.36
		c-0.22,0.24-0.33,0.58-0.33,1.03v0.78h1.58v0.98h-1.58v6.42H121.17z"/>
	<path class="st0" d="M125.07,344.88c0-0.72,0.14-1.38,0.43-1.96c0.29-0.58,0.68-1.03,1.19-1.34c0.51-0.31,1.09-0.47,1.74-0.47
		c1.01,0,1.82,0.35,2.44,1.05c0.62,0.7,0.93,1.62,0.93,2.78v0.09c0,0.72-0.14,1.37-0.41,1.94c-0.28,0.57-0.67,1.02-1.18,1.34
		c-0.51,0.32-1.1,0.48-1.77,0.48c-1,0-1.81-0.35-2.44-1.05c-0.62-0.7-0.93-1.62-0.93-2.77V344.88z M126.34,345.03
		c0,0.82,0.19,1.48,0.57,1.98c0.38,0.5,0.89,0.75,1.53,0.75c0.64,0,1.15-0.25,1.53-0.76c0.38-0.5,0.57-1.21,0.57-2.12
		c0-0.81-0.19-1.47-0.58-1.97c-0.39-0.5-0.9-0.75-1.54-0.75c-0.62,0-1.13,0.25-1.51,0.75C126.53,343.4,126.34,344.11,126.34,345.03z
		"/>
	<path class="st0" d="M136.96,342.39c-0.19-0.03-0.4-0.05-0.62-0.05c-0.83,0-1.39,0.35-1.69,1.06v5.25h-1.26v-7.4h1.23l0.02,0.85
		c0.42-0.66,1-0.99,1.76-0.99c0.25,0,0.43,0.03,0.56,0.1V342.39z"/>
	<path class="st0" d="M143.31,339.46v1.79h1.38v0.98h-1.38v4.59c0,0.3,0.06,0.52,0.18,0.67s0.33,0.22,0.63,0.22
		c0.15,0,0.35-0.03,0.6-0.08v1.02c-0.33,0.09-0.66,0.14-0.97,0.14c-0.57,0-0.99-0.17-1.28-0.51s-0.43-0.83-0.43-1.46v-4.59h-1.35
		v-0.98h1.35v-1.79H143.31z"/>
	<path class="st0" d="M147.43,342.15c0.56-0.69,1.29-1.03,2.19-1.03c1.56,0,2.35,0.88,2.37,2.65v4.89h-1.26v-4.89
		c0-0.53-0.13-0.93-0.37-1.18c-0.24-0.26-0.61-0.38-1.12-0.38c-0.41,0-0.77,0.11-1.08,0.33s-0.55,0.51-0.72,0.86v5.27h-1.26v-10.5
		h1.26V342.15z"/>
	<path class="st0" d="M156.95,348.79c-1,0-1.82-0.33-2.45-0.99c-0.63-0.66-0.94-1.54-0.94-2.64v-0.23c0-0.73,0.14-1.39,0.42-1.97
		c0.28-0.58,0.67-1.03,1.18-1.35c0.5-0.33,1.05-0.49,1.64-0.49c0.96,0,1.71,0.32,2.24,0.95c0.53,0.63,0.8,1.54,0.8,2.72v0.53h-5.01
		c0.02,0.73,0.23,1.32,0.64,1.77c0.41,0.45,0.93,0.67,1.56,0.67c0.45,0,0.83-0.09,1.13-0.27c0.31-0.18,0.58-0.42,0.81-0.72l0.77,0.6
		C159.12,348.31,158.19,348.79,156.95,348.79z M156.79,342.15c-0.51,0-0.94,0.19-1.29,0.56c-0.35,0.37-0.56,0.89-0.64,1.56h3.71
		v-0.1c-0.04-0.64-0.21-1.14-0.52-1.49C157.74,342.33,157.32,342.15,156.79,342.15z"/>
	<path class="st0" d="M165.38,348.65v-6.42h-1.17v-0.98h1.17v-0.76c0-0.79,0.21-1.41,0.64-1.84c0.42-0.43,1.02-0.65,1.8-0.65
		c0.29,0,0.58,0.04,0.87,0.12l-0.07,1.02c-0.21-0.04-0.44-0.06-0.68-0.06c-0.41,0-0.73,0.12-0.95,0.36
		c-0.22,0.24-0.33,0.58-0.33,1.03v0.78h1.58v0.98h-1.58v6.42H165.38z"/>
	<path class="st0" d="M169.63,339.29c0-0.21,0.06-0.38,0.19-0.52c0.12-0.14,0.31-0.21,0.56-0.21s0.43,0.07,0.56,0.21
		c0.13,0.14,0.19,0.31,0.19,0.52s-0.06,0.38-0.19,0.51s-0.31,0.21-0.56,0.21s-0.43-0.07-0.56-0.21
		C169.69,339.67,169.63,339.5,169.63,339.29z M170.99,348.65h-1.26v-7.4h1.26V348.65z"/>
	<path class="st0" d="M176.59,342.39c-0.19-0.03-0.4-0.05-0.62-0.05c-0.83,0-1.39,0.35-1.69,1.06v5.25h-1.26v-7.4h1.23l0.02,0.85
		c0.42-0.66,1-0.99,1.76-0.99c0.25,0,0.43,0.03,0.56,0.1V342.39z"/>
	<path class="st0" d="M182.06,346.69c0-0.34-0.13-0.61-0.39-0.8c-0.26-0.19-0.71-0.35-1.35-0.49c-0.64-0.14-1.15-0.3-1.53-0.49
		c-0.38-0.19-0.65-0.42-0.83-0.68c-0.18-0.26-0.27-0.58-0.27-0.94c0-0.61,0.26-1.12,0.77-1.54c0.51-0.42,1.17-0.63,1.96-0.63
		c0.84,0,1.52,0.22,2.04,0.65c0.52,0.43,0.78,0.99,0.78,1.66h-1.27c0-0.35-0.15-0.65-0.44-0.9c-0.29-0.25-0.67-0.38-1.11-0.38
		c-0.46,0-0.82,0.1-1.08,0.3c-0.26,0.2-0.39,0.46-0.39,0.79c0,0.3,0.12,0.54,0.36,0.69c0.24,0.15,0.68,0.3,1.31,0.44
		c0.63,0.14,1.14,0.31,1.54,0.51c0.39,0.2,0.68,0.43,0.87,0.71c0.19,0.28,0.28,0.61,0.28,1.01c0,0.66-0.26,1.19-0.79,1.59
		c-0.53,0.4-1.21,0.6-2.06,0.6c-0.59,0-1.12-0.11-1.57-0.31c-0.46-0.21-0.81-0.5-1.07-0.88c-0.26-0.38-0.39-0.78-0.39-1.22h1.26
		c0.02,0.42,0.19,0.76,0.51,1.01c0.32,0.25,0.73,0.37,1.25,0.37c0.48,0,0.86-0.1,1.15-0.29
		C181.92,347.27,182.06,347.01,182.06,346.69z"/>
	<path class="st0" d="M186.69,339.46v1.79h1.38v0.98h-1.38v4.59c0,0.3,0.06,0.52,0.18,0.67s0.33,0.22,0.63,0.22
		c0.15,0,0.35-0.03,0.6-0.08v1.02c-0.33,0.09-0.66,0.14-0.97,0.14c-0.57,0-0.99-0.17-1.28-0.51s-0.43-0.83-0.43-1.46v-4.59h-1.35
		v-0.98h1.35v-1.79H186.69z"/>
	<path class="st0" d="M197.53,348.65h-1.98v-7.62l-2.36,0.73v-1.61l4.12-1.48h0.21V348.65z"/>
	<path class="st0" d="M206.61,344.9h1.13v1.59h-1.13v2.15h-1.98v-2.15h-4.08l-0.09-1.24l4.15-6.56h2V344.9z M202.43,344.9h2.2v-3.51
		l-0.13,0.23L202.43,344.9z"/>
	<path class="st0" d="M212.06,344.9c0-1.15,0.26-2.07,0.78-2.75c0.52-0.68,1.23-1.03,2.12-1.03c0.72,0,1.31,0.27,1.78,0.81v-3.77
		h1.98v10.5h-1.78l-0.1-0.79c-0.49,0.62-1.13,0.92-1.9,0.92c-0.87,0-1.57-0.34-2.1-1.03C212.32,347.07,212.06,346.12,212.06,344.9z
		 M214.03,345.04c0,0.69,0.12,1.23,0.36,1.6s0.59,0.55,1.05,0.55c0.61,0,1.04-0.26,1.29-0.77v-2.92c-0.25-0.52-0.67-0.77-1.28-0.77
		C214.51,342.72,214.03,343.5,214.03,345.04z"/>
	<path class="st0" d="M224.54,348.65c-0.09-0.18-0.16-0.4-0.2-0.66c-0.48,0.53-1.1,0.8-1.87,0.8c-0.72,0-1.33-0.21-1.8-0.63
		c-0.48-0.42-0.71-0.95-0.71-1.59c0-0.78,0.29-1.39,0.87-1.8c0.58-0.42,1.42-0.63,2.52-0.64h0.91v-0.42c0-0.34-0.09-0.62-0.26-0.82
		c-0.18-0.21-0.45-0.31-0.83-0.31c-0.33,0-0.59,0.08-0.78,0.24c-0.19,0.16-0.28,0.38-0.28,0.66h-1.98c0-0.43,0.13-0.83,0.4-1.19
		c0.26-0.37,0.64-0.65,1.12-0.86c0.48-0.21,1.03-0.31,1.63-0.31c0.91,0,1.63,0.23,2.17,0.69c0.54,0.46,0.8,1.1,0.8,1.93v3.21
		c0,0.7,0.1,1.23,0.29,1.59v0.12H224.54z M222.91,347.27c0.29,0,0.56-0.07,0.81-0.2s0.43-0.3,0.55-0.52v-1.27h-0.74
		c-0.99,0-1.52,0.34-1.58,1.03l-0.01,0.12c0,0.25,0.09,0.45,0.26,0.61C222.37,347.19,222.61,347.27,222.91,347.27z"/>
	<path class="st0" d="M230.52,345.85l1.37-4.6h2.12l-2.97,8.54l-0.16,0.39c-0.44,0.97-1.17,1.45-2.19,1.45
		c-0.29,0-0.58-0.04-0.88-0.13v-1.5l0.3,0.01c0.37,0,0.65-0.06,0.84-0.17c0.18-0.11,0.33-0.3,0.43-0.57l0.23-0.61l-2.59-7.42h2.13
		L230.52,345.85z"/>
	<path class="st0" d="M238.79,346.6c0-0.24-0.12-0.43-0.36-0.57c-0.24-0.14-0.62-0.26-1.15-0.37c-1.76-0.37-2.64-1.12-2.64-2.24
		c0-0.66,0.27-1.2,0.82-1.64c0.54-0.44,1.26-0.66,2.14-0.66c0.94,0,1.69,0.22,2.25,0.66c0.56,0.44,0.84,1.02,0.84,1.72h-1.98
		c0-0.28-0.09-0.52-0.27-0.7s-0.47-0.28-0.85-0.28c-0.33,0-0.59,0.08-0.77,0.23s-0.27,0.34-0.27,0.57c0,0.22,0.1,0.4,0.31,0.53
		c0.21,0.13,0.56,0.25,1.05,0.35c0.49,0.1,0.91,0.21,1.24,0.33c1.04,0.38,1.57,1.05,1.57,1.99c0,0.67-0.29,1.22-0.87,1.64
		s-1.33,0.63-2.24,0.63c-0.62,0-1.17-0.11-1.65-0.33c-0.48-0.22-0.86-0.52-1.13-0.91c-0.27-0.38-0.41-0.8-0.41-1.25h1.87
		c0.02,0.35,0.15,0.62,0.39,0.81c0.24,0.19,0.57,0.28,0.97,0.28c0.38,0,0.66-0.07,0.86-0.22
		C238.7,347.02,238.79,346.84,238.79,346.6z"/>
	<path class="st0" d="M242.14,350.63l-0.72-0.49c0.43-0.6,0.65-1.21,0.67-1.85v-1.14h1.24v0.99c0,0.46-0.11,0.92-0.34,1.38
		C242.77,349.98,242.48,350.35,242.14,350.63z"/>
	<path class="st0" d="M72.65,361.83c0,1.12-0.26,2.03-0.77,2.72c-0.51,0.69-1.21,1.03-2.09,1.03c-0.9,0-1.6-0.29-2.12-0.85v3.56
		H66.4v-10.24h1.16l0.06,0.82c0.51-0.64,1.23-0.96,2.15-0.96c0.89,0,1.59,0.33,2.11,1c0.52,0.67,0.78,1.6,0.78,2.8V361.83z
		 M71.38,361.69c0-0.83-0.18-1.49-0.53-1.98c-0.36-0.48-0.84-0.72-1.46-0.72c-0.77,0-1.34,0.34-1.72,1.02v3.53
		c0.38,0.67,0.96,1.01,1.74,1.01c0.61,0,1.09-0.24,1.45-0.72C71.21,363.35,71.38,362.64,71.38,361.69z"/>
	<path class="st0" d="M75.63,365.45h-1.26v-10.5h1.26V365.45z"/>
	<path class="st0" d="M82.22,365.45c-0.07-0.15-0.13-0.41-0.18-0.78c-0.59,0.61-1.29,0.92-2.11,0.92c-0.73,0-1.33-0.21-1.79-0.62
		c-0.47-0.41-0.7-0.94-0.7-1.57c0-0.77,0.29-1.37,0.88-1.79c0.59-0.43,1.41-0.64,2.47-0.64h1.23v-0.58c0-0.44-0.13-0.79-0.4-1.06
		c-0.26-0.26-0.65-0.39-1.17-0.39c-0.45,0-0.83,0.11-1.13,0.34c-0.31,0.23-0.46,0.5-0.46,0.83h-1.27c0-0.37,0.13-0.73,0.39-1.07
		c0.26-0.34,0.62-0.62,1.07-0.82c0.45-0.2,0.94-0.3,1.48-0.3c0.85,0,1.52,0.21,2,0.64c0.48,0.43,0.73,1.01,0.75,1.76v3.4
		c0,0.68,0.09,1.22,0.26,1.62v0.11H82.22z M80.12,364.48c0.4,0,0.77-0.1,1.13-0.31s0.61-0.47,0.77-0.8v-1.52h-0.99
		c-1.55,0-2.32,0.45-2.32,1.36c0,0.4,0.13,0.71,0.4,0.93C79.37,364.37,79.71,364.48,80.12,364.48z"/>
	<path class="st0" d="M86.46,358.05l0.04,0.93c0.57-0.71,1.3-1.07,2.21-1.07c1.56,0,2.35,0.88,2.37,2.65v4.89h-1.26v-4.89
		c0-0.53-0.13-0.93-0.37-1.18c-0.24-0.26-0.61-0.38-1.12-0.38c-0.41,0-0.77,0.11-1.08,0.33s-0.55,0.51-0.72,0.86v5.27h-1.26v-7.4
		H86.46z"/>
	<path class="st0" d="M97.3,363.49c0-0.34-0.13-0.61-0.39-0.8c-0.26-0.19-0.71-0.35-1.35-0.49c-0.64-0.14-1.15-0.3-1.53-0.49
		c-0.38-0.19-0.65-0.42-0.83-0.68c-0.18-0.26-0.27-0.58-0.27-0.94c0-0.61,0.26-1.12,0.77-1.54c0.51-0.42,1.17-0.63,1.96-0.63
		c0.84,0,1.52,0.22,2.04,0.65c0.52,0.43,0.78,0.99,0.78,1.66h-1.27c0-0.35-0.15-0.65-0.44-0.9c-0.29-0.25-0.67-0.38-1.11-0.38
		c-0.46,0-0.82,0.1-1.08,0.3c-0.26,0.2-0.39,0.46-0.39,0.79c0,0.3,0.12,0.54,0.36,0.69c0.24,0.15,0.68,0.3,1.31,0.44
		c0.63,0.14,1.14,0.31,1.54,0.51c0.39,0.2,0.68,0.43,0.87,0.71c0.19,0.28,0.28,0.61,0.28,1.01c0,0.66-0.26,1.19-0.79,1.59
		c-0.53,0.4-1.21,0.6-2.06,0.6c-0.59,0-1.12-0.11-1.57-0.31c-0.46-0.21-0.81-0.5-1.07-0.88c-0.26-0.38-0.39-0.78-0.39-1.22h1.26
		c0.02,0.42,0.19,0.76,0.51,1.01c0.32,0.25,0.73,0.37,1.25,0.37c0.48,0,0.86-0.1,1.15-0.29C97.16,364.07,97.3,363.81,97.3,363.49z"
		/>
	<path class="st0" d="M107.98,363.49c0-0.34-0.13-0.61-0.39-0.8c-0.26-0.19-0.71-0.35-1.35-0.49c-0.64-0.14-1.15-0.3-1.53-0.49
		c-0.38-0.19-0.65-0.42-0.83-0.68c-0.18-0.26-0.27-0.58-0.27-0.94c0-0.61,0.26-1.12,0.77-1.54c0.51-0.42,1.17-0.63,1.96-0.63
		c0.84,0,1.52,0.22,2.04,0.65c0.52,0.43,0.78,0.99,0.78,1.66h-1.27c0-0.35-0.15-0.65-0.44-0.9c-0.29-0.25-0.67-0.38-1.11-0.38
		c-0.46,0-0.82,0.1-1.08,0.3c-0.26,0.2-0.39,0.46-0.39,0.79c0,0.3,0.12,0.54,0.36,0.69c0.24,0.15,0.68,0.3,1.31,0.44
		c0.63,0.14,1.14,0.31,1.54,0.51c0.39,0.2,0.68,0.43,0.87,0.71c0.19,0.28,0.28,0.61,0.28,1.01c0,0.66-0.26,1.19-0.79,1.59
		c-0.53,0.4-1.21,0.6-2.06,0.6c-0.59,0-1.12-0.11-1.57-0.31c-0.46-0.21-0.81-0.5-1.07-0.88c-0.26-0.38-0.39-0.78-0.39-1.22h1.26
		c0.02,0.42,0.19,0.76,0.51,1.01c0.32,0.25,0.73,0.37,1.25,0.37c0.48,0,0.86-0.1,1.15-0.29
		C107.84,364.07,107.98,363.81,107.98,363.49z"/>
	<path class="st0" d="M112.61,356.26v1.79h1.38v0.98h-1.38v4.59c0,0.3,0.06,0.52,0.18,0.67s0.33,0.22,0.63,0.22
		c0.15,0,0.35-0.03,0.6-0.08v1.02c-0.33,0.09-0.66,0.14-0.97,0.14c-0.57,0-0.99-0.17-1.28-0.51s-0.43-0.83-0.43-1.46v-4.59H110
		v-0.98h1.35v-1.79H112.61z"/>
	<path class="st0" d="M120.04,365.45c-0.07-0.15-0.13-0.41-0.18-0.78c-0.59,0.61-1.29,0.92-2.11,0.92c-0.73,0-1.33-0.21-1.79-0.62
		c-0.47-0.41-0.7-0.94-0.7-1.57c0-0.77,0.29-1.37,0.88-1.79c0.59-0.43,1.41-0.64,2.47-0.64h1.23v-0.58c0-0.44-0.13-0.79-0.4-1.06
		c-0.26-0.26-0.65-0.39-1.17-0.39c-0.45,0-0.83,0.11-1.13,0.34c-0.31,0.23-0.46,0.5-0.46,0.83h-1.27c0-0.37,0.13-0.73,0.39-1.07
		c0.26-0.34,0.62-0.62,1.07-0.82c0.45-0.2,0.94-0.3,1.48-0.3c0.85,0,1.52,0.21,2,0.64c0.48,0.43,0.73,1.01,0.75,1.76v3.4
		c0,0.68,0.09,1.22,0.26,1.62v0.11H120.04z M117.94,364.48c0.4,0,0.77-0.1,1.13-0.31s0.61-0.47,0.77-0.8v-1.52h-0.99
		c-1.55,0-2.32,0.45-2.32,1.36c0,0.4,0.13,0.71,0.4,0.93C117.18,364.37,117.52,364.48,117.94,364.48z"/>
	<path class="st0" d="M126.66,359.19c-0.19-0.03-0.4-0.05-0.62-0.05c-0.83,0-1.39,0.35-1.69,1.06v5.25h-1.26v-7.4h1.23l0.02,0.85
		c0.42-0.66,1-0.99,1.76-0.99c0.25,0,0.43,0.03,0.56,0.1V359.19z"/>
	<path class="st0" d="M129.88,356.26v1.79h1.38v0.98h-1.38v4.59c0,0.3,0.06,0.52,0.18,0.67s0.33,0.22,0.63,0.22
		c0.15,0,0.35-0.03,0.6-0.08v1.02c-0.33,0.09-0.66,0.14-0.97,0.14c-0.57,0-0.99-0.17-1.28-0.51s-0.43-0.83-0.43-1.46v-4.59h-1.35
		v-0.98h1.35v-1.79H129.88z"/>
	<path class="st0" d="M132.74,356.09c0-0.21,0.06-0.38,0.19-0.52c0.12-0.14,0.31-0.21,0.56-0.21s0.43,0.07,0.56,0.21
		c0.13,0.14,0.19,0.31,0.19,0.52s-0.06,0.38-0.19,0.51s-0.31,0.21-0.56,0.21s-0.43-0.07-0.56-0.21
		C132.81,356.47,132.74,356.29,132.74,356.09z M134.11,365.45h-1.26v-7.4h1.26V365.45z"/>
	<path class="st0" d="M137.33,358.05l0.04,0.93c0.57-0.71,1.3-1.07,2.21-1.07c1.56,0,2.35,0.88,2.37,2.65v4.89h-1.26v-4.89
		c0-0.53-0.13-0.93-0.37-1.18c-0.24-0.26-0.61-0.38-1.12-0.38c-0.41,0-0.77,0.11-1.08,0.33s-0.55,0.51-0.72,0.86v5.27h-1.26v-7.4
		H137.33z"/>
	<path class="st0" d="M143.56,361.69c0-1.15,0.27-2.07,0.8-2.75c0.53-0.68,1.24-1.02,2.12-1.02c0.9,0,1.61,0.32,2.11,0.96l0.06-0.82
		h1.16v7.22c0,0.96-0.28,1.71-0.85,2.26c-0.57,0.55-1.33,0.83-2.29,0.83c-0.53,0-1.05-0.11-1.57-0.34c-0.51-0.23-0.9-0.54-1.17-0.94
		l0.66-0.76c0.54,0.67,1.21,1,1.99,1c0.62,0,1.09-0.17,1.44-0.52c0.34-0.35,0.52-0.83,0.52-1.46v-0.64
		c-0.51,0.58-1.2,0.88-2.07,0.88c-0.87,0-1.57-0.35-2.1-1.05C143.83,363.84,143.56,362.89,143.56,361.69z M144.83,361.83
		c0,0.83,0.17,1.49,0.51,1.96c0.34,0.48,0.82,0.71,1.44,0.71c0.8,0,1.38-0.36,1.76-1.09v-3.38c-0.39-0.71-0.97-1.06-1.74-1.06
		c-0.62,0-1.1,0.24-1.44,0.72S144.83,360.89,144.83,361.83z"/>
	<path class="st0" d="M159.75,365.45c-0.07-0.15-0.13-0.41-0.18-0.78c-0.59,0.61-1.29,0.92-2.11,0.92c-0.73,0-1.33-0.21-1.79-0.62
		c-0.47-0.41-0.7-0.94-0.7-1.57c0-0.77,0.29-1.37,0.88-1.79c0.59-0.43,1.41-0.64,2.47-0.64h1.23v-0.58c0-0.44-0.13-0.79-0.4-1.06
		c-0.26-0.26-0.65-0.39-1.17-0.39c-0.45,0-0.83,0.11-1.13,0.34c-0.31,0.23-0.46,0.5-0.46,0.83h-1.27c0-0.37,0.13-0.73,0.39-1.07
		c0.26-0.34,0.62-0.62,1.07-0.82c0.45-0.2,0.94-0.3,1.48-0.3c0.85,0,1.52,0.21,2,0.64c0.48,0.43,0.73,1.01,0.75,1.76v3.4
		c0,0.68,0.09,1.22,0.26,1.62v0.11H159.75z M157.65,364.48c0.4,0,0.77-0.1,1.13-0.31s0.61-0.47,0.77-0.8v-1.52h-0.99
		c-1.55,0-2.32,0.45-2.32,1.36c0,0.4,0.13,0.71,0.4,0.93C156.89,364.37,157.23,364.48,157.65,364.48z"/>
	<path class="st0" d="M164.51,356.26v1.79h1.38v0.98h-1.38v4.59c0,0.3,0.06,0.52,0.18,0.67s0.33,0.22,0.63,0.22
		c0.15,0,0.35-0.03,0.6-0.08v1.02c-0.33,0.09-0.66,0.14-0.97,0.14c-0.57,0-0.99-0.17-1.28-0.51s-0.43-0.83-0.43-1.46v-4.59h-1.35
		v-0.98h1.35v-1.79H164.51z"/>
	<path class="st0" d="M175.28,362.83c0-0.37-0.1-0.67-0.31-0.89c-0.21-0.22-0.56-0.42-1.06-0.61c-0.5-0.19-0.92-0.37-1.29-0.56
		s-0.67-0.4-0.93-0.64c-0.26-0.24-0.46-0.52-0.6-0.84c-0.14-0.32-0.22-0.71-0.22-1.16c0-0.77,0.25-1.4,0.74-1.89
		s1.15-0.78,1.96-0.86v-1.46h1.09v1.48c0.81,0.11,1.44,0.45,1.89,1.01c0.46,0.56,0.68,1.28,0.68,2.17h-1.98
		c0-0.55-0.11-0.96-0.34-1.23c-0.23-0.27-0.53-0.41-0.91-0.41c-0.37,0-0.66,0.11-0.87,0.32s-0.31,0.5-0.31,0.88
		c0,0.35,0.1,0.62,0.3,0.83c0.2,0.21,0.57,0.42,1.12,0.64c0.54,0.22,0.99,0.42,1.34,0.62c0.35,0.19,0.65,0.41,0.89,0.66
		c0.24,0.24,0.43,0.52,0.55,0.83c0.13,0.31,0.19,0.68,0.19,1.09c0,0.77-0.24,1.4-0.72,1.89c-0.48,0.48-1.15,0.77-2,0.85v1.36h-1.09
		v-1.35c-0.93-0.1-1.66-0.43-2.17-1c-0.51-0.56-0.77-1.31-0.77-2.25h1.98c0,0.54,0.13,0.96,0.39,1.25c0.26,0.29,0.63,0.43,1.11,0.43
		c0.4,0,0.72-0.11,0.95-0.32S175.28,363.19,175.28,362.83z"/>
	<path class="st0" d="M183.21,361.47c-0.51,0.51-1.12,0.76-1.8,0.76c-0.88,0-1.58-0.3-2.11-0.91c-0.53-0.6-0.79-1.42-0.79-2.44
		c0-0.65,0.14-1.25,0.43-1.79c0.28-0.54,0.68-0.97,1.19-1.27c0.51-0.3,1.08-0.45,1.72-0.45c0.66,0,1.24,0.16,1.75,0.49
		s0.91,0.8,1.19,1.42s0.43,1.32,0.43,2.11v0.73c0,1.66-0.41,2.96-1.24,3.91c-0.83,0.95-1.99,1.45-3.51,1.52l-0.49,0.01v-1.65
		l0.44-0.01C182.14,363.81,183.07,363,183.21,361.47z M181.89,360.72c0.32,0,0.59-0.08,0.82-0.25c0.23-0.16,0.4-0.36,0.52-0.59
		v-0.81c0-0.67-0.13-1.19-0.38-1.56s-0.6-0.55-1.03-0.55c-0.4,0-0.72,0.18-0.98,0.54s-0.38,0.82-0.38,1.36
		c0,0.54,0.12,0.99,0.37,1.34C181.09,360.54,181.44,360.72,181.89,360.72z"/>
	<path class="st0" d="M186.8,364.48c0-0.31,0.11-0.57,0.32-0.77c0.21-0.2,0.48-0.29,0.8-0.29c0.32,0,0.59,0.1,0.8,0.29
		c0.21,0.2,0.32,0.45,0.32,0.77c0,0.31-0.1,0.56-0.31,0.75c-0.21,0.19-0.48,0.29-0.81,0.29c-0.32,0-0.59-0.1-0.8-0.29
		C186.91,365.04,186.8,364.79,186.8,364.48z"/>
	<path class="st0" d="M195.31,361.47c-0.51,0.51-1.12,0.76-1.8,0.76c-0.88,0-1.58-0.3-2.11-0.91c-0.53-0.6-0.79-1.42-0.79-2.44
		c0-0.65,0.14-1.25,0.43-1.79c0.28-0.54,0.68-0.97,1.19-1.27c0.51-0.3,1.08-0.45,1.72-0.45c0.66,0,1.24,0.16,1.75,0.49
		s0.91,0.8,1.19,1.42s0.43,1.32,0.43,2.11v0.73c0,1.66-0.41,2.96-1.24,3.91c-0.83,0.95-1.99,1.45-3.51,1.52l-0.49,0.01v-1.65
		l0.44-0.01C194.24,363.81,195.17,363,195.31,361.47z M193.99,360.72c0.32,0,0.59-0.08,0.82-0.25c0.23-0.16,0.4-0.36,0.52-0.59
		v-0.81c0-0.67-0.13-1.19-0.38-1.56s-0.6-0.55-1.03-0.55c-0.4,0-0.72,0.18-0.98,0.54s-0.38,0.82-0.38,1.36
		c0,0.54,0.12,0.99,0.37,1.34C193.19,360.54,193.54,360.72,193.99,360.72z"/>
	<path class="st0" d="M203.34,361.47c-0.51,0.51-1.12,0.76-1.8,0.76c-0.88,0-1.58-0.3-2.11-0.91c-0.53-0.6-0.79-1.42-0.79-2.44
		c0-0.65,0.14-1.25,0.43-1.79c0.28-0.54,0.68-0.97,1.19-1.27c0.51-0.3,1.08-0.45,1.72-0.45c0.66,0,1.24,0.16,1.75,0.49
		s0.91,0.8,1.19,1.42s0.43,1.32,0.43,2.11v0.73c0,1.66-0.41,2.96-1.24,3.91c-0.83,0.95-1.99,1.45-3.51,1.52l-0.49,0.01v-1.65
		l0.44-0.01C202.27,363.81,203.2,363,203.34,361.47z M202.02,360.72c0.32,0,0.59-0.08,0.82-0.25c0.23-0.16,0.4-0.36,0.52-0.59v-0.81
		c0-0.67-0.13-1.19-0.38-1.56s-0.6-0.55-1.03-0.55c-0.4,0-0.72,0.18-0.98,0.54s-0.38,0.82-0.38,1.36c0,0.54,0.12,0.99,0.37,1.34
		C201.22,360.54,201.57,360.72,202.02,360.72z"/>
	<path class="st0" d="M207.45,366.3h-1.47l3.66-10.81h1.47L207.45,366.3z"/>
	<path class="st0" d="M213.91,358.05l0.06,0.83c0.52-0.64,1.23-0.96,2.13-0.96c0.95,0,1.61,0.38,1.96,1.13
		c0.52-0.75,1.26-1.13,2.22-1.13c0.8,0,1.4,0.23,1.79,0.7c0.39,0.47,0.59,1.17,0.59,2.11v4.72h-1.98v-4.72
		c0-0.42-0.08-0.73-0.25-0.92c-0.16-0.19-0.45-0.29-0.87-0.29c-0.59,0-1,0.28-1.23,0.85l0.01,5.08h-1.98v-4.71
		c0-0.43-0.08-0.74-0.25-0.93s-0.46-0.29-0.86-0.29c-0.56,0-0.97,0.23-1.22,0.7v5.23h-1.98v-7.4H213.91z"/>
	<path class="st0" d="M223.87,361.68c0-0.73,0.14-1.39,0.42-1.96s0.69-1.02,1.22-1.33c0.53-0.31,1.15-0.47,1.85-0.47
		c1,0,1.81,0.3,2.44,0.92c0.63,0.61,0.98,1.44,1.06,2.49l0.01,0.51c0,1.13-0.32,2.04-0.95,2.73c-0.63,0.69-1.48,1.03-2.55,1.03
		s-1.92-0.34-2.55-1.03c-0.63-0.68-0.95-1.61-0.95-2.79V361.68z M225.85,361.82c0,0.7,0.13,1.24,0.4,1.61
		c0.26,0.37,0.64,0.56,1.13,0.56c0.48,0,0.85-0.18,1.12-0.55c0.27-0.37,0.4-0.96,0.4-1.76c0-0.69-0.13-1.22-0.4-1.6
		s-0.65-0.57-1.13-0.57c-0.48,0-0.86,0.19-1.12,0.56C225.98,360.45,225.85,361.03,225.85,361.82z"/>
	<path class="st0" d="M233.92,358.05l0.06,0.85c0.53-0.66,1.24-0.99,2.13-0.99c0.78,0,1.37,0.23,1.75,0.69
		c0.38,0.46,0.58,1.15,0.59,2.06v4.78h-1.98v-4.73c0-0.42-0.09-0.72-0.27-0.91c-0.18-0.19-0.49-0.28-0.91-0.28
		c-0.56,0-0.97,0.24-1.25,0.71v5.22h-1.98v-7.4H233.92z"/>
	<path class="st0" d="M242.3,356.23v1.82h1.26v1.45h-1.26v3.69c0,0.27,0.05,0.47,0.16,0.59c0.1,0.12,0.31,0.18,0.6,0.18
		c0.22,0,0.41-0.02,0.58-0.05v1.5c-0.39,0.12-0.79,0.18-1.2,0.18c-1.39,0-2.09-0.7-2.12-2.1v-3.99h-1.08v-1.45h1.08v-1.82H242.3z"/>
	<path class="st0" d="M246.6,358.86c0.52-0.63,1.18-0.94,1.98-0.94c1.6,0,2.42,0.93,2.44,2.8v4.74h-1.98v-4.68
		c0-0.42-0.09-0.74-0.27-0.94c-0.18-0.2-0.49-0.3-0.91-0.3c-0.58,0-1,0.22-1.26,0.67v5.26h-1.98v-10.5h1.98V358.86z"/>
</g>
<linearGradient id="SVGID_1_" gradientUnits="userSpaceOnUse" x1="104.1806" y1="309.6627" x2="215.8194" y2="309.6627">
	<stop  offset="0" style="stop-color:#18B9FB"/>
	<stop  offset="0.5" style="stop-color:#782EEB"/>
	<stop  offset="1" style="stop-color:#E82D8A"/>
</linearGradient>
<path class="st1" d="M212.82,312.66H107.18c-1.66,0-3-1.34-3-3l0,0c0-1.66,1.34-3,3-3h105.64c1.66,0,3,1.34,3,3l0,0
	C215.82,311.32,214.48,312.66,212.82,312.66z"/>
</svg>
