<?xml version="1.0" encoding="utf-8"?>
<!-- Generator: Adobe Illustrator 24.2.3, SVG Export Plug-In . SVG Version: 6.00 Build 0)  -->
<svg version="1.1" id="Layer_1" xmlns="http://www.w3.org/2000/svg" xmlns:xlink="http://www.w3.org/1999/xlink" x="0px" y="0px"
	 viewBox="0 0 320 468" style="enable-background:new 0 0 320 468;" xml:space="preserve">
<style type="text/css">
	.st0{fill:#021D8B;}
</style>
<path class="st0" d="M231.58,411.39c0-0.27,0.09-0.49,0.27-0.67c0.18-0.18,0.41-0.27,0.67-0.27c0.25,0,0.47,0.09,0.66,0.27
	c0.19,0.18,0.29,0.41,0.29,0.67v10.47c0,0.27-0.09,0.49-0.27,0.67c-0.18,0.18-0.41,0.27-0.67,0.27c-0.25,0-0.47-0.09-0.66-0.27
	c-0.19-0.18-0.29-0.41-0.29-0.67V411.39z"/>
<g>
	<g>
		<g>
			<path class="st0" d="M178.74,427.9c-0.77,0.58-1.68,0.87-2.72,0.87c-0.58-0.05-1.03-0.12-1.37-0.22
				c-0.34-0.1-0.65-0.24-0.93-0.43c-0.28-0.19-0.42-0.46-0.42-0.8c0-0.28,0.09-0.51,0.27-0.68c0.18-0.17,0.4-0.26,0.67-0.26
				c0.21,0,0.4,0.06,0.57,0.17c0.41,0.23,0.85,0.35,1.31,0.35c0.36,0,0.7-0.07,1-0.2c0.31-0.13,0.58-0.31,0.82-0.53
				c0.24-0.22,0.42-0.48,0.56-0.78c0.13-0.3,0.21-0.62,0.22-0.96v-7.08c0-0.26,0.09-0.49,0.27-0.67c0.18-0.18,0.4-0.27,0.67-0.27
				c0.25,0,0.47,0.09,0.66,0.27c0.19,0.18,0.28,0.4,0.28,0.67c0,0,0,5.87,0,7.15C180.6,425.84,179.92,427.06,178.74,427.9z"/>
			<path class="st0" d="M136.3,407.12c0-0.26,0.09-0.49,0.27-0.67c0.18-0.18,0.4-0.27,0.67-0.27c0.25,0,0.47,0.09,0.66,0.27
				c0.19,0.18,0.28,0.4,0.28,0.67v0.72c0,0.26-0.09,0.49-0.27,0.67c-0.18,0.18-0.4,0.27-0.67,0.27c-0.25,0-0.47-0.09-0.66-0.27
				c-0.19-0.18-0.28-0.4-0.28-0.67V407.12z M136.3,411.47c0-0.26,0.09-0.49,0.27-0.67c0.18-0.18,0.4-0.27,0.67-0.27
				c0.25,0,0.47,0.09,0.66,0.27c0.19,0.18,0.28,0.4,0.28,0.67v10.39c0,0.26-0.09,0.49-0.27,0.67c-0.18,0.18-0.4,0.27-0.67,0.27
				c-0.25,0-0.47-0.09-0.66-0.27c-0.19-0.18-0.28-0.4-0.28-0.67V411.47z"/>
			<g>
				<path class="st0" d="M128.11,411.72c0-0.26,0.09-0.48,0.27-0.65c0.18-0.18,0.4-0.27,0.65-0.27c0.21,0,0.4,0.07,0.57,0.21
					c0.17,0.14,0.28,0.32,0.33,0.54c0.76-0.56,1.65-0.85,2.66-0.85c0.56,0.05,1.01,0.12,1.34,0.22c0.33,0.1,0.63,0.24,0.91,0.42
					c0.27,0.19,0.41,0.45,0.41,0.79c0,0.27-0.09,0.5-0.27,0.67c-0.18,0.17-0.4,0.25-0.65,0.25c-0.21,0-0.4-0.06-0.56-0.17
					c-0.4-0.23-0.83-0.34-1.28-0.34c-0.35,0-0.68,0.06-0.98,0.19c-0.3,0.13-0.56,0.3-0.8,0.52c-0.23,0.22-0.42,0.47-0.54,0.76
					c-0.13,0.29-0.2,0.6-0.22,0.94v6.92c0,0.26-0.09,0.48-0.27,0.65c-0.18,0.18-0.4,0.27-0.65,0.27c-0.24,0-0.46-0.09-0.64-0.27
					c-0.19-0.18-0.28-0.4-0.28-0.65v-6.99V411.72z"/>
			</g>
			<path class="st0" d="M139.47,411.82c-0.05-0.12-0.07-0.24-0.07-0.37c0-0.23,0.08-0.45,0.25-0.64c0.16-0.2,0.39-0.3,0.67-0.3
				c0.18,0,0.35,0.05,0.51,0.15c0.16,0.1,0.28,0.24,0.36,0.42l3.66,8.54l3.66-8.54c0.16-0.38,0.45-0.57,0.87-0.57
				c0.28,0,0.5,0.1,0.67,0.3c0.16,0.2,0.25,0.41,0.25,0.64c0,0.13-0.02,0.26-0.07,0.37l-4.5,10.51c-0.18,0.38-0.47,0.57-0.87,0.57
				c-0.43,0-0.72-0.19-0.87-0.57L139.47,411.82z"/>
			<path class="st0" d="M150.58,414.88c0-0.61,0.12-1.19,0.35-1.73c0.23-0.54,0.55-1.02,0.96-1.42c0.41-0.4,0.89-0.72,1.42-0.95
				c0.54-0.23,1.12-0.35,1.74-0.35c0.61,0,1.19,0.12,1.73,0.35c0.54,0.23,1.02,0.55,1.42,0.95c0.4,0.4,0.73,0.88,0.96,1.42
				c0.24,0.54,0.36,1.12,0.36,1.73v6.98c0,0.26-0.09,0.49-0.28,0.67c-0.19,0.18-0.41,0.27-0.66,0.27c-0.23,0-0.43-0.07-0.61-0.21
				c-0.17-0.14-0.28-0.32-0.31-0.53c-0.76,0.56-1.63,0.84-2.62,0.84c-0.61,0-1.19-0.12-1.73-0.35c-0.54-0.23-1.02-0.55-1.42-0.95
				c-0.4-0.4-0.73-0.88-0.96-1.42c-0.24-0.54-0.36-1.12-0.36-1.73V414.88z M152.46,418.45c0,0.35,0.07,0.68,0.21,0.99
				c0.14,0.31,0.33,0.59,0.56,0.83c0.23,0.24,0.51,0.42,0.83,0.56c0.32,0.13,0.66,0.2,1,0.2c0.35,0,0.68-0.06,0.99-0.19
				c0.31-0.12,0.59-0.3,0.82-0.52c0.23-0.22,0.42-0.48,0.56-0.78c0.14-0.3,0.22-0.62,0.24-0.96v-3.69c0-0.35-0.07-0.68-0.21-0.99
				c-0.14-0.31-0.33-0.59-0.56-0.83c-0.23-0.24-0.51-0.42-0.83-0.56c-0.32-0.13-0.66-0.2-1-0.2c-0.36,0-0.7,0.07-1.01,0.2
				c-0.31,0.13-0.59,0.32-0.83,0.56c-0.24,0.24-0.42,0.52-0.56,0.83c-0.13,0.31-0.2,0.64-0.2,0.99V418.45z"/>
			<path class="st0" d="M161.26,414.88c0-0.63,0.12-1.21,0.36-1.76c0.24-0.54,0.57-1.01,0.99-1.41c0.42-0.4,0.91-0.71,1.46-0.94
				c0.55-0.23,1.14-0.35,1.77-0.35c0.12,0,0.34,0.02,0.68,0.06c0.34,0.04,0.71,0.15,1.13,0.33c0.41,0.18,0.82,0.46,1.22,0.83
				c0.4,0.37,0.74,0.89,1,1.55c0.05,0.13,0.07,0.25,0.07,0.35c0,0.26-0.09,0.49-0.27,0.67c-0.18,0.18-0.4,0.27-0.67,0.27
				c-0.2,0-0.38-0.05-0.53-0.16c-0.16-0.11-0.27-0.25-0.33-0.43c-0.23-0.49-0.56-0.88-0.99-1.16c-0.43-0.28-0.9-0.42-1.41-0.42
				c-0.36,0-0.7,0.07-1.01,0.2c-0.31,0.13-0.59,0.32-0.83,0.56c-0.24,0.24-0.42,0.52-0.56,0.83c-0.13,0.31-0.2,0.64-0.2,0.99v3.56
				c0,0.35,0.07,0.68,0.21,0.99c0.14,0.31,0.33,0.59,0.56,0.83c0.23,0.24,0.51,0.42,0.83,0.56c0.32,0.13,0.66,0.2,1,0.2
				c0.53,0,1.01-0.14,1.43-0.42c0.43-0.28,0.75-0.67,0.96-1.16c0.08-0.18,0.2-0.33,0.35-0.43c0.15-0.11,0.32-0.16,0.52-0.16
				c0.26,0,0.49,0.1,0.67,0.28c0.18,0.19,0.27,0.41,0.27,0.66c0,0.12-0.02,0.23-0.07,0.35c-0.33,0.73-0.73,1.28-1.19,1.66
				c-0.46,0.38-0.91,0.65-1.35,0.82c-0.44,0.17-0.81,0.26-1.11,0.27c-0.31,0.02-0.47,0.02-0.48,0.02c-0.61,0-1.19-0.12-1.73-0.35
				c-0.54-0.23-1.02-0.55-1.42-0.95c-0.4-0.4-0.73-0.88-0.96-1.42c-0.24-0.54-0.36-1.12-0.36-1.73V414.88z"/>
			<path class="st0" d="M195.36,411.47c0-0.26,0.09-0.49,0.27-0.67c0.18-0.18,0.4-0.27,0.67-0.27c0.25,0,0.47,0.09,0.66,0.27
				c0.19,0.18,0.28,0.4,0.28,0.67v6.98c0,0.35,0.07,0.68,0.2,0.99c0.13,0.31,0.32,0.59,0.56,0.83c0.24,0.24,0.52,0.42,0.83,0.56
				c0.31,0.13,0.65,0.2,1.01,0.2c0.35,0,0.68-0.07,1-0.2c0.32-0.13,0.6-0.32,0.83-0.56c0.23-0.24,0.42-0.52,0.56-0.83
				c0.14-0.31,0.21-0.64,0.21-0.99v-6.98c0-0.26,0.09-0.49,0.27-0.67c0.18-0.18,0.4-0.27,0.67-0.27c0.25,0,0.47,0.09,0.66,0.27
				c0.19,0.18,0.28,0.4,0.28,0.67v6.98c0,0.61-0.12,1.19-0.36,1.73c-0.24,0.54-0.56,1.02-0.96,1.42c-0.4,0.4-0.88,0.72-1.42,0.95
				c-0.54,0.23-1.12,0.35-1.73,0.35c-0.63,0-1.21-0.12-1.74-0.35c-0.54-0.23-1.01-0.55-1.42-0.95c-0.41-0.4-0.73-0.88-0.96-1.42
				c-0.23-0.54-0.35-1.12-0.35-1.73V411.47z"/>
			<path class="st0" d="M206.07,414.88c0-0.61,0.12-1.19,0.35-1.73c0.23-0.54,0.55-1.02,0.96-1.42c0.41-0.4,0.89-0.72,1.42-0.95
				c0.54-0.23,1.12-0.35,1.74-0.35c0.61,0,1.19,0.12,1.73,0.35c0.54,0.23,1.02,0.55,1.42,0.95c0.4,0.4,0.73,0.88,0.96,1.42
				c0.24,0.54,0.36,1.12,0.36,1.73v6.98c0,0.26-0.09,0.49-0.28,0.67c-0.19,0.18-0.41,0.27-0.66,0.27c-0.23,0-0.43-0.07-0.61-0.21
				c-0.17-0.14-0.28-0.32-0.31-0.53c-0.76,0.56-1.63,0.84-2.62,0.84c-0.61,0-1.19-0.12-1.73-0.35c-0.54-0.23-1.02-0.55-1.42-0.95
				c-0.4-0.4-0.73-0.88-0.96-1.42c-0.24-0.54-0.36-1.12-0.36-1.73V414.88z M207.95,418.45c0,0.35,0.07,0.68,0.21,0.99
				c0.14,0.31,0.33,0.59,0.56,0.83c0.23,0.24,0.51,0.42,0.83,0.56c0.32,0.13,0.66,0.2,1,0.2c0.35,0,0.68-0.06,0.99-0.19
				c0.31-0.12,0.59-0.3,0.82-0.52c0.23-0.22,0.42-0.48,0.56-0.78c0.14-0.3,0.22-0.62,0.24-0.96v-3.69c0-0.35-0.07-0.68-0.21-0.99
				c-0.14-0.31-0.33-0.59-0.56-0.83c-0.23-0.24-0.51-0.42-0.83-0.56c-0.32-0.13-0.66-0.2-1-0.2c-0.36,0-0.7,0.07-1.01,0.2
				c-0.31,0.13-0.59,0.32-0.83,0.56c-0.24,0.24-0.42,0.52-0.56,0.83c-0.13,0.31-0.2,0.64-0.2,0.99V418.45z"/>
			<g>
				<path class="st0" d="M216.85,411.72c0-0.26,0.09-0.48,0.27-0.65c0.18-0.18,0.4-0.27,0.65-0.27c0.21,0,0.4,0.07,0.57,0.21
					c0.17,0.14,0.28,0.32,0.33,0.54c0.76-0.56,1.65-0.85,2.66-0.85c0.56,0.05,1.01,0.12,1.34,0.22c0.33,0.1,0.63,0.24,0.91,0.42
					c0.27,0.19,0.41,0.45,0.41,0.79c0,0.27-0.09,0.5-0.27,0.67c-0.18,0.17-0.4,0.25-0.65,0.25c-0.21,0-0.4-0.06-0.56-0.17
					c-0.4-0.23-0.83-0.34-1.28-0.34c-0.35,0-0.68,0.06-0.98,0.19c-0.3,0.13-0.56,0.3-0.8,0.52c-0.23,0.22-0.42,0.47-0.54,0.76
					c-0.13,0.29-0.2,0.6-0.22,0.94v6.92c0,0.26-0.09,0.48-0.27,0.65c-0.18,0.18-0.4,0.27-0.65,0.27c-0.24,0-0.46-0.09-0.64-0.27
					c-0.19-0.18-0.28-0.4-0.28-0.65v-6.99V411.72z"/>
			</g>
			<path class="st0" d="M231.6,407.12c0-0.26,0.09-0.49,0.27-0.67c0.18-0.18,0.4-0.27,0.67-0.27c0.25,0,0.47,0.09,0.66,0.27
				c0.19,0.18,0.28,0.4,0.28,0.67v11.33c0,0.61-0.12,1.19-0.36,1.73c-0.24,0.54-0.56,1.02-0.96,1.42c-0.4,0.4-0.88,0.72-1.42,0.95
				c-0.54,0.23-1.12,0.35-1.73,0.35c-0.63,0-1.21-0.12-1.74-0.35c-0.54-0.23-1.01-0.55-1.42-0.95c-0.41-0.4-0.73-0.88-0.96-1.42
				c-0.23-0.54-0.35-1.12-0.35-1.73v-3.56c0-0.61,0.12-1.19,0.36-1.73c0.24-0.54,0.56-1.02,0.96-1.42c0.4-0.4,0.88-0.72,1.42-0.95
				c0.54-0.23,1.12-0.35,1.73-0.35c0.48,0,0.94,0.07,1.37,0.22c0.44,0.15,0.85,0.35,1.22,0.62V407.12z M226.4,418.45
				c0,0.35,0.07,0.68,0.2,0.99c0.13,0.31,0.32,0.59,0.56,0.83c0.24,0.24,0.52,0.42,0.83,0.56c0.31,0.13,0.65,0.2,1.01,0.2
				c0.35,0,0.68-0.07,1-0.2c0.32-0.13,0.6-0.32,0.83-0.56c0.23-0.24,0.42-0.52,0.56-0.83c0.14-0.31,0.21-0.64,0.21-0.99v-3.56
				c0-0.35-0.07-0.68-0.2-0.99c-0.13-0.31-0.32-0.59-0.56-0.83c-0.24-0.24-0.52-0.42-0.83-0.56c-0.31-0.13-0.65-0.2-1.01-0.2
				c-0.35,0-0.68,0.07-1,0.2c-0.32,0.13-0.6,0.32-0.83,0.56c-0.23,0.24-0.42,0.52-0.56,0.83c-0.14,0.31-0.21,0.64-0.21,0.99V418.45z
				"/>
			<path class="st0" d="M171.64,411.47c0-0.26,0.09-0.49,0.27-0.67c0.18-0.18,0.4-0.27,0.67-0.27c0.25,0,0.47,0.09,0.66,0.27
				c0.19,0.18,0.28,0.4,0.28,0.67v6.98c0,0.35,0.07,0.68,0.2,0.99c0.13,0.31,0.32,0.59,0.56,0.83c0.24,0.24,0.52,0.42,0.83,0.56
				c0.31,0.13,0.65,0.2,1.01,0.2c0.35,0,0.68-0.07,1-0.2c0.32-0.13,0.6-0.32,0.83-0.56c0.23-0.24,0.42-0.52,0.56-0.83
				c0.14-0.31,0.21-0.64,0.21-0.99v-6.98c0-0.26,0.09-0.49,0.27-0.67c0.18-0.18,0.4-0.27,0.67-0.27c0.25,0,0.47,0.09,0.66,0.27
				c0.19,0.18,0.28,0.4,0.28,0.67v6.98c0,0.61-0.12,1.19-0.36,1.73c-0.24,0.54-0.56,1.02-0.96,1.42c-0.4,0.4-0.88,0.72-1.42,0.95
				c-0.54,0.23-1.12,0.35-1.73,0.35c-0.63,0-1.21-0.12-1.74-0.35c-0.54-0.23-1.01-0.55-1.42-0.95c-0.41-0.4-0.73-0.88-0.96-1.42
				c-0.23-0.54-0.35-1.12-0.35-1.73V411.47z"/>
			<path class="st0" d="M192.71,414.51h-3.92c-0.53,0-0.95,0.4-0.95,0.91c0,0.53,0.42,0.95,0.95,0.95h3.12v1.48
				c0,2.02-1.82,3.53-3.75,3.53c-2.13,0-3.93-1.45-3.93-3.93v-5.64c0-2.3,1.73-3.93,3.87-3.93c1.8,0,3.17,1.19,3.71,2.68
				c0.18,0.31,0.42,0.5,0.85,0.5c0.73,0,1.19-0.59,0.84-1.44c-0.6-1.81-2.45-3.67-5.4-3.67c-3.38,0-5.81,2.67-5.81,5.74v5.87
				c0,3.1,2.44,5.75,5.81,5.75c3.04,0,5.61-2.38,5.61-5.09v-2.83C193.71,414.86,193.25,414.51,192.71,414.51z"/>
		</g>
	</g>
	<path class="st0" d="M231.6,411.47c0-0.26,0.09-0.49,0.27-0.67c0.18-0.18,0.4-0.27,0.67-0.27c0.25,0,0.47,0.09,0.66,0.27
		c0.19,0.18,0.28,0.4,0.28,0.67v10.39c0,0.26-0.09,0.49-0.27,0.67c-0.18,0.18-0.4,0.27-0.67,0.27c-0.25,0-0.47-0.09-0.66-0.27
		c-0.19-0.18-0.28-0.4-0.28-0.67V411.47z"/>
	<g>
		<path class="st0" d="M116.21,407.75c0-0.26,0.09-0.48,0.27-0.65c0.18-0.18,0.4-0.27,0.65-0.27h3.7h0.02
			c0.79,0,1.53,0.15,2.23,0.45c0.69,0.3,1.3,0.7,1.83,1.21c0.52,0.51,0.94,1.11,1.25,1.8c0.31,0.69,0.46,1.44,0.46,2.23
			c0,0.79-0.15,1.53-0.46,2.21c-0.31,0.69-0.72,1.29-1.23,1.8c-0.52,0.52-1.13,0.92-1.83,1.22c-0.7,0.3-1.45,0.45-2.24,0.45h-2.81
			v3.68c0,0.26-0.09,0.48-0.27,0.65c-0.18,0.18-0.4,0.27-0.65,0.27c-0.24,0-0.46-0.09-0.64-0.27c-0.19-0.18-0.28-0.4-0.28-0.65
			V407.75z M118.05,408.67v7.69h2.81c0.55,0,1.06-0.1,1.54-0.3c0.48-0.2,0.89-0.48,1.25-0.82c0.35-0.35,0.63-0.75,0.83-1.22
			c0.2-0.47,0.3-0.97,0.3-1.5c0-0.53-0.11-1.03-0.31-1.5c-0.21-0.47-0.49-0.87-0.85-1.22c-0.35-0.35-0.77-0.62-1.25-0.82
			c-0.48-0.2-0.98-0.3-1.51-0.3H118.05z"/>
	</g>
</g>
<g>
	<path class="st0" d="M234.77,406.55h-0.35v-0.25h0.99v0.25h-0.35v1.05h-0.29V406.55z"/>
	<path class="st0" d="M236.65,407.1c-0.01-0.16-0.01-0.34-0.01-0.53h-0.01c-0.04,0.17-0.09,0.35-0.14,0.5l-0.16,0.5h-0.23l-0.14-0.5
		c-0.04-0.15-0.09-0.34-0.12-0.5h0c-0.01,0.17-0.01,0.37-0.02,0.54l-0.02,0.49h-0.27l0.08-1.29H236l0.13,0.43
		c0.04,0.15,0.08,0.31,0.11,0.46h0.01c0.04-0.15,0.08-0.32,0.12-0.46l0.14-0.43h0.38l0.07,1.29h-0.29L236.65,407.1z"/>
</g>
</svg>
