<svg id="Layer_1" xmlns="http://www.w3.org/2000/svg" viewBox="0 0 970 250"><style>.st0{fill:url(#SVGID_1_)}</style><linearGradient id="SVGID_1_" gradientUnits="userSpaceOnUse" x1="167.716" y1="146.193" x2="630.822" y2="146.193"><stop offset="0" stop-color="#18b9fb"/><stop offset=".5" stop-color="#782eeb"/><stop offset="1" stop-color="#e82d8a"/></linearGradient><path class="st0" d="M175.31 118.12l4.76 14.84 4.74-14.84h6.76v21.33h-5.15v-4.98l.5-10.2-5.15 15.18h-3.4l-5.17-15.19.5 10.21v4.98h-5.14v-21.33h6.75zM194 131.37c0-1.58.31-2.99.92-4.23.61-1.24 1.5-2.19 2.65-2.85s2.5-1 4.06-1c2.37 0 4.24.74 5.61 2.21s2.05 3.47 2.05 6v.18c0 2.47-.69 4.43-2.06 5.88-1.37 1.45-3.23 2.18-5.57 2.18-2.25 0-4.07-.68-5.43-2.03-1.37-1.35-2.1-3.19-2.21-5.5l-.02-.84zm4.93.31c0 1.46.23 2.54.69 3.22.46.68 1.14 1.03 2.04 1.03 1.76 0 2.65-1.35 2.69-4.06v-.5c0-2.84-.91-4.26-2.72-4.26-1.65 0-2.54 1.23-2.68 3.68l-.02.89zm17.06-8.09l.16 1.86c1.09-1.44 2.6-2.15 4.52-2.15 1.65 0 2.88.49 3.7 1.48.81.99 1.24 2.47 1.27 4.45v10.21h-4.95v-10c0-.8-.16-1.39-.48-1.76s-.91-.56-1.76-.56c-.97 0-1.68.38-2.15 1.14v11.19h-4.93V123.6h4.62zm12.34-4.08c0-.7.25-1.28.76-1.73s1.17-.67 1.98-.67 1.47.22 1.98.67c.51.45.76 1.03.76 1.73s-.25 1.28-.76 1.73c-.51.45-1.17.67-1.98.67s-1.47-.22-1.98-.67-.76-1.03-.76-1.73zm5.24 19.93h-4.95v-15.85h4.95v15.85zm8.79-19.79v3.94h2.61v3.43h-2.61v7.25c0 .6.11 1.01.32 1.25s.64.35 1.27.35c.49 0 .9-.03 1.23-.09v3.53c-.89.28-1.82.42-2.78.42-1.7 0-2.95-.4-3.76-1.2-.81-.8-1.22-2.02-1.22-3.65v-7.87h-2.02v-3.43h2.02v-3.94h4.94zm3.48 11.72c0-1.58.31-2.99.92-4.23s1.5-2.19 2.65-2.85c1.15-.66 2.5-1 4.06-1 2.37 0 4.24.74 5.61 2.21s2.05 3.47 2.05 6v.18c0 2.47-.69 4.43-2.06 5.88-1.37 1.45-3.23 2.18-5.57 2.18-2.25 0-4.07-.68-5.43-2.03-1.37-1.35-2.1-3.19-2.21-5.5l-.02-.84zm4.93.31c0 1.46.23 2.54.69 3.22.46.68 1.14 1.03 2.04 1.03 1.76 0 2.65-1.35 2.69-4.06v-.5c0-2.84-.91-4.26-2.72-4.26-1.65 0-2.54 1.23-2.68 3.68l-.02.89zm22.11-3.62l-1.63-.12c-1.55 0-2.55.49-2.99 1.46v10.03h-4.93v-15.85h4.63l.16 2.04c.83-1.55 1.99-2.33 3.47-2.33.53 0 .99.06 1.38.18l-.09 4.59zm15.58 4.47l2.64-8.94h5.29l-6.46 18.5-.28.67c-.92 2.05-2.54 3.08-4.86 3.08-.64 0-1.32-.1-2.04-.29v-3.52h.64c.69 0 1.22-.1 1.59-.3.37-.2.64-.56.81-1.08l.4-1.06-5.5-16.01h5.27l2.5 8.95zm8.36-1.16c0-1.58.31-2.99.92-4.23s1.5-2.19 2.65-2.85c1.15-.66 2.5-1 4.06-1 2.37 0 4.24.74 5.61 2.21s2.05 3.47 2.05 6v.18c0 2.47-.69 4.43-2.06 5.88-1.37 1.45-3.23 2.18-5.57 2.18-2.25 0-4.07-.68-5.43-2.03-1.37-1.35-2.1-3.19-2.21-5.5l-.02-.84zm4.93.31c0 1.46.23 2.54.69 3.22.46.68 1.14 1.03 2.04 1.03 1.76 0 2.65-1.35 2.69-4.06v-.5c0-2.84-.91-4.26-2.72-4.26-1.65 0-2.54 1.23-2.68 3.68l-.02.89zm21.96 6.05c-1.04 1.34-2.45 2.01-4.23 2.01-1.74 0-3.05-.51-3.95-1.52-.89-1.01-1.34-2.46-1.34-4.36v-10.27h4.93v10.3c0 1.36.66 2.04 1.98 2.04 1.13 0 1.94-.41 2.42-1.22v-11.12h4.96v15.85h-4.63l-.14-1.71zm17.06-9.67l-1.63-.12c-1.55 0-2.55.49-2.99 1.46v10.03h-4.93v-15.85h4.63l.16 2.04c.83-1.55 1.99-2.33 3.47-2.33.53 0 .99.06 1.38.18l-.09 4.59zm23.95 3.58c0 2.46-.55 4.43-1.66 5.9-1.11 1.47-2.6 2.21-4.49 2.21-1.45 0-2.65-.53-3.59-1.6v7.4h-4.93v-21.94h4.61l.15 1.46c.95-1.17 2.19-1.76 3.73-1.76 1.95 0 3.47.72 4.55 2.16 1.08 1.44 1.63 3.42 1.63 5.94v.23zm-4.93-.31c0-2.81-.82-4.22-2.46-4.22-1.17 0-1.95.42-2.34 1.26v6.24c.43.88 1.22 1.32 2.37 1.32 1.57 0 2.38-1.36 2.43-4.07v-.53zm14.77 8.41c-2.43 0-4.4-.72-5.9-2.18-1.5-1.45-2.25-3.34-2.25-5.66v-.41c0-1.62.3-3.05.9-4.29.6-1.24 1.48-2.2 2.63-2.88 1.15-.68 2.52-1.02 4.1-1.02 2.23 0 3.98.69 5.27 2.07 1.29 1.38 1.93 3.31 1.93 5.78v1.92h-9.81c.18.89.56 1.59 1.16 2.09s1.37.76 2.31.76c1.56 0 2.78-.55 3.66-1.64l2.25 2.67c-.61.85-1.49 1.53-2.61 2.03-1.13.5-2.34.76-3.64.76zm-.55-12.63c-1.44 0-2.3.96-2.58 2.87h4.98v-.38c.02-.79-.18-1.4-.6-1.84s-1.02-.65-1.8-.65zm18.8.95l-1.63-.12c-1.55 0-2.55.49-2.99 1.46v10.03h-4.93v-15.85h4.63l.16 2.04c.83-1.55 1.99-2.33 3.47-2.33.53 0 .99.06 1.38.18l-.09 4.59zm10.07 6.93c0-.42-.22-.76-.66-1.01-.44-.25-1.27-.52-2.5-.79s-2.24-.63-3.05-1.08c-.8-.44-1.41-.98-1.83-1.62s-.63-1.36-.63-2.18c0-1.46.6-2.65 1.8-3.6s2.77-1.41 4.71-1.41c2.09 0 3.77.47 5.04 1.42s1.9 2.19 1.9 3.74h-4.95c0-1.27-.67-1.9-2.01-1.9-.52 0-.95.14-1.3.43-.35.29-.53.65-.53 1.08 0 .44.21.8.64 1.07.43.27 1.11.5 2.06.67.94.18 1.77.39 2.48.63 2.38.82 3.57 2.29 3.57 4.41 0 1.45-.64 2.62-1.92 3.53-1.28.91-2.95 1.36-4.99 1.36-1.36 0-2.57-.24-3.63-.73s-1.89-1.15-2.49-1.99-.89-1.72-.89-2.65h4.61c.02.73.26 1.27.73 1.6.47.34 1.07.5 1.8.5.67 0 1.18-.14 1.52-.41.35-.27.52-.63.52-1.07zm6.44-3.62c0-1.58.31-2.99.92-4.23.61-1.24 1.5-2.19 2.65-2.85 1.15-.66 2.5-1 4.06-1 2.37 0 4.24.74 5.61 2.21s2.05 3.47 2.05 6v.18c0 2.47-.69 4.43-2.06 5.88-1.37 1.45-3.23 2.18-5.57 2.18-2.25 0-4.07-.68-5.43-2.03-1.37-1.35-2.1-3.19-2.21-5.5l-.02-.84zm4.93.31c0 1.46.23 2.54.69 3.22.46.68 1.14 1.03 2.04 1.03 1.76 0 2.65-1.35 2.69-4.06v-.5c0-2.84-.91-4.26-2.72-4.26-1.65 0-2.54 1.23-2.68 3.68l-.02.89zm17.06-8.09l.16 1.86c1.09-1.44 2.6-2.15 4.52-2.15 1.65 0 2.88.49 3.7 1.48.81.99 1.24 2.47 1.27 4.45v10.21h-4.95v-10c0-.8-.16-1.39-.48-1.76-.32-.38-.91-.56-1.76-.56-.97 0-1.68.38-2.15 1.14v11.19h-4.93V123.6h4.62zm21.3 15.85c-.18-.32-.33-.8-.47-1.42-.91 1.14-2.18 1.71-3.81 1.71-1.49 0-2.76-.45-3.81-1.36-1.04-.9-1.57-2.04-1.57-3.41 0-1.72.63-3.02 1.9-3.9 1.27-.88 3.11-1.32 5.53-1.32h1.52v-.84c0-1.46-.63-2.19-1.89-2.19-1.17 0-1.76.58-1.76 1.74h-4.93c0-1.53.65-2.78 1.96-3.73 1.3-.96 2.96-1.43 4.98-1.43s3.62.49 4.79 1.48 1.77 2.34 1.8 4.06v7.02c.02 1.46.24 2.57.67 3.34v.25h-4.91zm-3.09-3.22c.61 0 1.12-.13 1.53-.4.41-.26.7-.56.87-.89v-2.53h-1.43c-1.72 0-2.58.77-2.58 2.31 0 .45.15.81.45 1.09.31.28.7.42 1.16.42zm15.29 3.22h-4.95v-22.5h4.95v22.5zm10.47-19.93c0-.7.25-1.28.76-1.73.51-.45 1.17-.67 1.98-.67s1.47.22 1.98.67c.51.45.76 1.03.76 1.73s-.25 1.28-.76 1.73c-.51.45-1.17.67-1.98.67s-1.47-.22-1.98-.67c-.51-.45-.76-1.03-.76-1.73zm5.24 19.93h-4.95v-15.85h4.95v15.85zm7.57-15.85l.16 1.86c1.09-1.44 2.6-2.15 4.52-2.15 1.65 0 2.88.49 3.7 1.48.81.99 1.24 2.47 1.27 4.45v10.21h-4.95v-10c0-.8-.16-1.39-.48-1.76-.32-.38-.91-.56-1.76-.56-.97 0-1.68.38-2.15 1.14v11.19h-4.93V123.6h4.62zm13.47 15.85v-12.42h-2.3v-3.43h2.3v-1.26c0-1.81.53-3.21 1.6-4.2s2.56-1.49 4.48-1.49c.7 0 1.47.1 2.31.31l.01 3.63c-.3-.09-.71-.13-1.22-.13-1.49 0-2.24.64-2.24 1.93v1.22h3.09v3.43h-3.09v12.42h-4.94zm9.15-8.07c0-1.58.31-2.99.92-4.23.61-1.24 1.5-2.19 2.65-2.85 1.15-.66 2.5-1 4.06-1 2.37 0 4.24.74 5.61 2.21s2.05 3.47 2.05 6v.18c0 2.47-.69 4.43-2.06 5.88-1.37 1.45-3.23 2.18-5.57 2.18-2.25 0-4.07-.68-5.43-2.03-1.37-1.35-2.1-3.19-2.21-5.5l-.02-.84zm4.93.31c0 1.46.23 2.54.69 3.22.46.68 1.14 1.03 2.04 1.03 1.76 0 2.65-1.35 2.69-4.06v-.5c0-2.84-.91-4.26-2.72-4.26-1.65 0-2.54 1.23-2.68 3.68l-.02.89zm22.11-3.62l-1.63-.12c-1.55 0-2.55.49-2.99 1.46v10.03h-4.93v-15.85h4.63l.16 2.04c.83-1.55 1.99-2.33 3.47-2.33.53 0 .99.06 1.38.18l-.09 4.59zm6.44-4.47l.16 1.86c1.12-1.44 2.63-2.15 4.52-2.15 2 0 3.35.8 4.06 2.39 1.07-1.59 2.63-2.39 4.66-2.39 3.21 0 4.86 1.94 4.95 5.83v10.31h-4.95v-10c0-.81-.14-1.4-.41-1.77-.27-.37-.77-.56-1.49-.56-.98 0-1.7.43-2.18 1.3l.01.21v10.83h-4.95v-9.98c0-.83-.13-1.43-.4-1.8-.26-.37-.77-.56-1.51-.56-.95 0-1.67.43-2.17 1.3v11.03h-4.93v-15.85h4.63zm30.09 15.85c-.18-.32-.33-.8-.47-1.42-.91 1.14-2.18 1.71-3.81 1.71-1.49 0-2.76-.45-3.81-1.36-1.04-.9-1.57-2.04-1.57-3.41 0-1.72.63-3.02 1.9-3.9 1.27-.88 3.11-1.32 5.53-1.32h1.52v-.84c0-1.46-.63-2.19-1.89-2.19-1.17 0-1.76.58-1.76 1.74h-4.93c0-1.53.65-2.78 1.96-3.73 1.3-.96 2.96-1.43 4.98-1.43s3.62.49 4.79 1.48 1.77 2.34 1.8 4.06v7.02c.02 1.46.24 2.57.67 3.34v.25h-4.91zm-3.09-3.22c.61 0 1.12-.13 1.53-.4.41-.26.7-.56.87-.89v-2.53h-1.43c-1.72 0-2.58.77-2.58 2.31 0 .45.15.81.45 1.09.31.28.69.42 1.16.42zm15.83-16.57v3.94h2.61v3.43h-2.61v7.25c0 .6.11 1.01.32 1.25s.64.35 1.27.35c.49 0 .9-.03 1.23-.09v3.53c-.89.28-1.82.42-2.78.42-1.7 0-2.95-.4-3.76-1.2s-1.22-2.02-1.22-3.65v-7.87h-2.02v-3.43h2.02v-3.94h4.94zm4.51-.14c0-.7.25-1.28.76-1.73s1.17-.67 1.98-.67 1.47.22 1.98.67c.51.45.76 1.03.76 1.73s-.25 1.28-.76 1.73c-.51.45-1.17.67-1.98.67s-1.47-.22-1.98-.67-.76-1.03-.76-1.73zm5.24 19.93h-4.95v-15.85h4.95v15.85zm2.41-8.07c0-1.58.31-2.99.92-4.23s1.5-2.19 2.65-2.85c1.15-.66 2.5-1 4.06-1 2.37 0 4.24.74 5.61 2.21s2.05 3.47 2.05 6v.18c0 2.47-.69 4.43-2.06 5.88-1.37 1.45-3.23 2.18-5.57 2.18-2.25 0-4.07-.68-5.43-2.03-1.37-1.35-2.1-3.19-2.21-5.5l-.02-.84zm4.94.31c0 1.46.23 2.54.69 3.22s1.14 1.03 2.04 1.03c1.76 0 2.65-1.35 2.69-4.06v-.5c0-2.84-.91-4.26-2.72-4.26-1.65 0-2.54 1.23-2.68 3.68l-.02.89zm17.05-8.09l.16 1.86c1.09-1.44 2.6-2.15 4.52-2.15 1.65 0 2.88.49 3.7 1.48.81.99 1.24 2.47 1.27 4.45v10.21h-4.95v-10c0-.8-.16-1.39-.48-1.76-.32-.38-.91-.56-1.76-.56-.97 0-1.68.38-2.15 1.14v11.19h-4.93V123.6h4.62zm-453.45 43.78c0-1.58.31-2.99.92-4.23s1.5-2.19 2.65-2.85 2.5-1 4.06-1c2.37 0 4.24.74 5.61 2.21s2.05 3.47 2.05 6v.18c0 2.47-.69 4.43-2.06 5.88-1.37 1.45-3.23 2.18-5.57 2.18-2.25 0-4.07-.68-5.43-2.03-1.37-1.35-2.1-3.19-2.21-5.5l-.02-.84zm4.93.31c0 1.46.23 2.54.69 3.22.46.68 1.14 1.03 2.04 1.03 1.76 0 2.65-1.35 2.69-4.06v-.5c0-2.84-.91-4.26-2.72-4.26-1.65 0-2.54 1.23-2.68 3.68l-.02.89zm17.06-8.09l.16 1.86c1.09-1.44 2.6-2.15 4.52-2.15 1.65 0 2.88.49 3.7 1.48.81.99 1.24 2.47 1.27 4.45v10.21h-4.95v-10c0-.8-.16-1.39-.48-1.76s-.91-.56-1.76-.56c-.97 0-1.68.38-2.15 1.14v11.19h-4.93V159.6h4.62zm25.59-3.94v3.94h2.61v3.43h-2.61v7.25c0 .6.11 1.01.32 1.25s.64.35 1.27.35c.49 0 .9-.03 1.23-.09v3.53c-.89.28-1.82.42-2.78.42-1.7 0-2.95-.4-3.76-1.2-.81-.8-1.22-2.02-1.22-3.65v-7.87h-2.02v-3.43h2.02v-3.94h4.94zm9.37 5.64c1.05-1.33 2.4-1.99 4.04-1.99 1.75 0 3.06.52 3.95 1.55s1.34 2.56 1.36 4.58v10h-4.95v-9.89c0-.84-.17-1.46-.51-1.85-.34-.4-.92-.59-1.74-.59-1.02 0-1.73.32-2.15.97v11.37h-4.93v-22.5h4.93v8.35zm19.76 14.45c-2.43 0-4.4-.72-5.9-2.18-1.5-1.45-2.25-3.34-2.25-5.66v-.41c0-1.62.3-3.05.9-4.29.6-1.24 1.48-2.2 2.63-2.88 1.15-.68 2.52-1.02 4.1-1.02 2.23 0 3.98.69 5.27 2.07 1.29 1.38 1.93 3.31 1.93 5.78v1.92h-9.81c.18.89.56 1.59 1.16 2.09.6.51 1.37.76 2.31.76 1.56 0 2.78-.55 3.66-1.64l2.25 2.67c-.61.85-1.49 1.53-2.61 2.03-1.13.5-2.34.76-3.64.76zm-.55-12.63c-1.44 0-2.3.96-2.58 2.87h4.98v-.38c.02-.79-.18-1.4-.6-1.84-.42-.43-1.02-.65-1.8-.65zm22.05 5.1v7.24h-5.14v-21.33h8.51c1.63 0 3.07.3 4.33.9 1.25.6 2.23 1.46 2.91 2.56.69 1.11 1.03 2.37 1.03 3.77 0 2.08-.74 3.74-2.23 4.99-1.49 1.24-3.53 1.87-6.13 1.87h-3.28zm0-3.97h3.37c1 0 1.75-.25 2.28-.75.52-.5.78-1.2.78-2.11 0-1-.27-1.79-.81-2.39s-1.27-.9-2.2-.91h-3.43v6.16zm23.58 9.49c-1.04 1.34-2.45 2.01-4.23 2.01-1.74 0-3.05-.51-3.95-1.52-.89-1.01-1.34-2.46-1.34-4.36v-10.27h4.93v10.3c0 1.36.66 2.04 1.98 2.04 1.13 0 1.94-.41 2.42-1.22v-11.12h4.96v15.85h-4.63l-.14-1.71zm22.18-6.08c0 2.6-.54 4.59-1.61 5.99-1.07 1.4-2.59 2.09-4.54 2.09-1.61 0-2.91-.64-3.89-1.92l-.2 1.63h-4.42v-22.5h4.93v7.92c.92-1.04 2.1-1.57 3.56-1.57 1.97 0 3.49.71 4.57 2.12 1.07 1.42 1.61 3.41 1.61 5.98v.26zm-4.94-.31c0-1.52-.2-2.61-.61-3.25s-1.03-.97-1.87-.97c-1.11 0-1.88.42-2.31 1.27v6.29c.42.84 1.2 1.26 2.34 1.26 1.16 0 1.9-.57 2.21-1.7.16-.56.24-1.53.24-2.9zm12.32 8.1h-4.95v-22.5h4.95v22.5zm3.01-19.93c0-.7.25-1.28.76-1.73s1.17-.67 1.98-.67 1.47.22 1.98.67c.51.45.76 1.03.76 1.73s-.25 1.28-.76 1.73c-.51.45-1.17.67-1.98.67s-1.47-.22-1.98-.67-.76-1.03-.76-1.73zm5.24 19.93h-4.95v-15.85h4.95v15.85zm9.73-3.51c.69 0 1.23-.19 1.61-.56.38-.38.57-.9.56-1.57h4.63c0 1.74-.62 3.16-1.87 4.28-1.25 1.11-2.85 1.67-4.81 1.67-2.3 0-4.12-.72-5.45-2.17s-1.99-3.45-1.99-6.01v-.21c0-1.6.29-3.01.89-4.24.59-1.23 1.44-2.17 2.55-2.83 1.11-.66 2.43-.99 3.95-.99 2.06 0 3.69.57 4.9 1.71 1.21 1.14 1.82 2.69 1.82 4.64h-4.63c0-.82-.2-1.45-.6-1.89-.4-.44-.94-.66-1.61-.66-1.28 0-2.03.82-2.24 2.45-.07.52-.1 1.23-.1 2.14 0 1.59.19 2.7.57 3.31.39.62.99.93 1.82.93zm19.52-7.72c-.58-.82-1.03-1.6-1.35-2.34-.33-.74-.49-1.51-.49-2.3 0-1.72.56-3.11 1.67-4.17 1.11-1.06 2.57-1.59 4.36-1.59 1.61 0 2.94.49 4 1.47 1.05.98 1.58 2.2 1.58 3.66 0 1.82-1 3.43-3 4.83l-1.11.78 3.28 3.76c.54-1.07.81-2.25.81-3.53h4.14c0 2.88-.66 5.19-1.99 6.93l3.25 3.74h-5.5l-1-1.13c-.82.49-1.66.85-2.51 1.08-.85.23-1.82.35-2.89.35-2.11 0-3.8-.55-5.07-1.66-1.27-1.11-1.9-2.57-1.9-4.37 0-.99.25-1.88.75-2.68.5-.8 1.48-1.73 2.94-2.8l.03-.03zm3.56 7.73c.86 0 1.68-.2 2.46-.6l-3.84-4.37-.13.09c-.56.68-.83 1.46-.83 2.31 0 .71.22 1.32.67 1.82.45.5 1 .75 1.67.75zm-1.15-12.43c0 .68.37 1.51 1.11 2.49l.98-.62c.45-.29.78-.6.98-.91.2-.31.31-.71.31-1.19 0-.45-.16-.84-.47-1.17-.31-.33-.7-.5-1.16-.5-.55 0-.98.17-1.29.52-.3.35-.46.81-.46 1.38zm22.32 15.93v-21.33h6.87c1.88 0 3.58.43 5.08 1.28 1.5.86 2.68 2.06 3.52 3.62.84 1.56 1.27 3.3 1.28 5.24v.98c0 1.95-.41 3.7-1.24 5.25a9.012 9.012 0 0 1-3.48 3.63c-1.5.88-3.17 1.32-5.01 1.33h-7.02zm5.14-17.36v13.4h1.79c1.47 0 2.61-.52 3.4-1.57s1.19-2.61 1.19-4.68v-.92c0-2.06-.4-3.61-1.19-4.66-.79-1.04-1.94-1.57-3.46-1.57h-1.73zm22.94 17.36c-.18-.32-.33-.8-.47-1.42-.91 1.14-2.18 1.71-3.81 1.71-1.49 0-2.76-.45-3.81-1.36-1.04-.9-1.57-2.04-1.57-3.41 0-1.72.63-3.02 1.9-3.9 1.27-.88 3.11-1.32 5.53-1.32h1.52v-.84c0-1.46-.63-2.19-1.89-2.19-1.17 0-1.76.58-1.76 1.74h-4.93c0-1.53.65-2.78 1.96-3.73 1.3-.96 2.96-1.43 4.98-1.43 2.02 0 3.62.49 4.79 1.48s1.77 2.34 1.8 4.06v7.02c.02 1.46.24 2.57.67 3.34v.25h-4.91zm-3.09-3.22c.61 0 1.12-.13 1.53-.4.41-.26.7-.56.87-.89v-2.53h-1.43c-1.72 0-2.58.77-2.58 2.31 0 .45.15.81.45 1.09.31.28.69.42 1.16.42zm19.66-8.16l-1.63-.12c-1.55 0-2.55.49-2.99 1.46v10.03h-4.93v-15.85h4.63l.16 2.04c.83-1.55 1.99-2.33 3.47-2.33.53 0 .99.06 1.38.18l-.09 4.59zm8.14 5.48l-1.39 1.39v4.51h-4.93v-22.51h4.93v11.95l.5-.66 3.72-4.63h5.91l-5.55 6.52 5.91 9.33h-5.65l-3.45-5.9zm34.25-2.05l2.45-13.37h5.1l-4.52 21.33h-5.33l-2.85-12.16-2.8 12.16h-5.31l-4.54-21.33h5.11l2.45 13.37 2.93-13.37h4.36l2.95 13.37zm16.53 8.25c-2.43 0-4.4-.72-5.9-2.18-1.5-1.45-2.25-3.34-2.25-5.66v-.41c0-1.62.3-3.05.9-4.29.6-1.24 1.48-2.2 2.63-2.88 1.15-.68 2.52-1.02 4.1-1.02 2.23 0 3.98.69 5.27 2.07 1.29 1.38 1.93 3.31 1.93 5.78v1.92h-9.81c.18.89.56 1.59 1.16 2.09s1.37.76 2.31.76c1.56 0 2.78-.55 3.66-1.64l2.25 2.67c-.61.85-1.49 1.53-2.61 2.03-1.13.5-2.34.76-3.64.76zm-.56-12.63c-1.44 0-2.3.96-2.58 2.87h4.98v-.38c.02-.79-.18-1.4-.6-1.84s-1.02-.65-1.8-.65zm23.92 4.54c0 2.6-.54 4.59-1.61 5.99s-2.59 2.09-4.54 2.09c-1.61 0-2.91-.64-3.89-1.92l-.2 1.63h-4.42v-22.5h4.93v7.92c.92-1.04 2.1-1.57 3.56-1.57 1.97 0 3.49.71 4.57 2.12s1.61 3.41 1.61 5.98v.26zm-4.94-.31c0-1.52-.2-2.61-.61-3.25-.41-.65-1.03-.97-1.87-.97-1.11 0-1.88.42-2.31 1.27v6.29c.42.84 1.2 1.26 2.34 1.26 1.16 0 1.9-.57 2.21-1.7.16-.56.24-1.53.24-2.9z"/></svg>