<svg id="Layer_1" xmlns="http://www.w3.org/2000/svg" viewBox="0 0 970 250"><style>.st0{fill:url(#SVGID_1_)}</style><linearGradient id="SVGID_1_" gradientUnits="userSpaceOnUse" x1="168.995" y1="155.053" x2="641.692" y2="155.053"><stop offset="0" stop-color="#18b9fb"/><stop offset=".5" stop-color="#782eeb"/><stop offset="1" stop-color="#e82d8a"/></linearGradient><path class="st0" d="M179.03 155.89h-3.52v9.56H169v-27.02h10.63c3.2 0 5.71.71 7.51 2.13 1.8 1.42 2.71 3.43 2.71 6.02 0 1.88-.38 3.44-1.14 4.67-.76 1.24-1.95 2.24-3.57 3l5.64 10.91v.28h-6.97l-4.78-9.55zm-3.53-5.01h4.12c1.24 0 2.17-.33 2.79-.98.62-.65.94-1.56.94-2.73s-.32-2.08-.95-2.74-1.56-1-2.78-1h-4.12v7.45zm27.69 14.93c-3.08 0-5.57-.92-7.47-2.76-1.9-1.84-2.86-4.23-2.86-7.17v-.52c0-2.05.38-3.87 1.14-5.44.76-1.57 1.87-2.79 3.33-3.65 1.46-.86 3.19-1.29 5.19-1.29 2.82 0 5.04.88 6.68 2.62 1.63 1.75 2.45 4.19 2.45 7.32v2.43h-12.43c.22 1.13.71 2.01 1.47 2.65.75.64 1.73.96 2.93.96 1.98 0 3.52-.69 4.64-2.08l2.86 3.38c-.78 1.08-1.88 1.93-3.31 2.57-1.44.67-2.97.98-4.62.98zm-.7-15.99c-1.83 0-2.92 1.21-3.26 3.64h6.31v-.48c.02-1-.23-1.78-.76-2.33-.54-.55-1.3-.83-2.29-.83zm20.16 11.17c.88 0 1.56-.24 2.04-.71.48-.48.72-1.14.7-1.99h5.86c0 2.2-.79 4.01-2.36 5.42-1.58 1.41-3.61 2.12-6.09 2.12-2.92 0-5.22-.92-6.9-2.75-1.68-1.83-2.52-4.37-2.52-7.61v-.26c0-2.03.37-3.82 1.12-5.37.75-1.55 1.83-2.75 3.24-3.58 1.41-.83 3.08-1.25 5.01-1.25 2.61 0 4.68.72 6.21 2.17 1.53 1.45 2.3 3.41 2.3 5.88h-5.86c0-1.04-.25-1.84-.76-2.39-.51-.56-1.19-.83-2.04-.83-1.62 0-2.57 1.03-2.84 3.1-.09.66-.13 1.56-.13 2.71 0 2.02.24 3.41.72 4.19.48.76 1.24 1.15 2.3 1.15zm20.95 4.82c-3.08 0-5.57-.92-7.47-2.76-1.9-1.84-2.86-4.23-2.86-7.17v-.52c0-2.05.38-3.87 1.14-5.44.76-1.57 1.87-2.79 3.33-3.65 1.46-.86 3.19-1.29 5.19-1.29 2.82 0 5.04.88 6.68 2.62 1.63 1.75 2.45 4.19 2.45 7.32v2.43h-12.43c.22 1.13.71 2.01 1.47 2.65.75.64 1.73.96 2.93.96 1.98 0 3.52-.69 4.64-2.08l2.86 3.38c-.78 1.08-1.88 1.93-3.31 2.57-1.44.67-2.97.98-4.62.98zm-.7-15.99c-1.83 0-2.92 1.21-3.26 3.64h6.31v-.48c.02-1-.23-1.78-.76-2.33-.54-.55-1.3-.83-2.29-.83zm11.63-9.63c0-.89.32-1.62.96-2.19.64-.57 1.48-.85 2.5-.85 1.03 0 1.86.29 2.5.85.64.57.96 1.3.96 2.19s-.32 1.62-.96 2.19c-.64.57-1.48.85-2.5.85-1.03 0-1.86-.28-2.5-.85-.64-.57-.96-1.3-.96-2.19zm6.63 25.25h-6.27v-20.08h6.27v20.08zm11.85-7.44l3.17-12.64h6.58l-6.55 20.08h-6.38l-6.55-20.08h6.6l3.13 12.64zm21.09 7.81c-3.08 0-5.57-.92-7.47-2.76-1.9-1.84-2.86-4.23-2.86-7.17v-.52c0-2.05.38-3.87 1.14-5.44.76-1.57 1.87-2.79 3.33-3.65 1.46-.86 3.19-1.29 5.19-1.29 2.82 0 5.04.88 6.68 2.62 1.63 1.75 2.45 4.19 2.45 7.32v2.43h-12.43c.22 1.13.71 2.01 1.47 2.65.75.64 1.73.96 2.93.96 1.98 0 3.52-.69 4.64-2.08l2.86 3.38c-.78 1.08-1.88 1.93-3.31 2.57-1.44.67-2.98.98-4.62.98zm-.7-15.99c-1.83 0-2.92 1.21-3.26 3.64h6.31v-.48c.02-1-.23-1.78-.76-2.33-.55-.55-1.31-.83-2.29-.83zm21.08-9.63c0-.89.32-1.62.96-2.19.64-.57 1.48-.85 2.5-.85 1.03 0 1.86.29 2.5.85.64.57.96 1.3.96 2.19s-.32 1.62-.96 2.19c-.64.57-1.48.85-2.5.85-1.03 0-1.86-.28-2.5-.85-.64-.57-.96-1.3-.96-2.19zm6.64 25.25h-6.27v-20.08h6.27v20.08zm3.06-10.18c0-3.18.69-5.68 2.06-7.51s3.29-2.75 5.75-2.75c1.79 0 3.3.71 4.53 2.12v-10.17h6.27v28.5h-5.62l-.32-2.15c-1.29 1.68-2.92 2.52-4.9 2.52-2.39 0-4.28-.92-5.67-2.75-1.4-1.83-2.1-4.44-2.1-7.81zm6.25.39c0 3.56 1.04 5.34 3.12 5.34 1.38 0 2.37-.58 2.97-1.74v-7.64c-.57-1.19-1.55-1.78-2.93-1.78-1.93 0-2.97 1.56-3.13 4.68l-.03 1.14zm25.61 10.16c-3.08 0-5.57-.92-7.47-2.76-1.9-1.84-2.86-4.23-2.86-7.17v-.52c0-2.05.38-3.87 1.14-5.44.76-1.57 1.87-2.79 3.33-3.65 1.46-.86 3.19-1.29 5.19-1.29 2.82 0 5.04.88 6.68 2.62 1.63 1.75 2.45 4.19 2.45 7.32v2.43h-12.43c.22 1.13.71 2.01 1.47 2.65.75.64 1.73.96 2.93.96 1.98 0 3.52-.69 4.64-2.08l2.86 3.38c-.78 1.08-1.88 1.93-3.31 2.57-1.44.67-2.98.98-4.62.98zm-.7-15.99c-1.83 0-2.92 1.21-3.26 3.64h6.31v-.48c.02-1-.23-1.78-.76-2.33-.54-.55-1.3-.83-2.29-.83zm17.41-4.45l.2 2.36c1.38-1.82 3.29-2.73 5.73-2.73 2.09 0 3.65.62 4.68 1.87 1.03 1.25 1.57 3.13 1.6 5.64v12.93h-6.27v-12.67c0-1.01-.2-1.76-.61-2.24-.41-.48-1.15-.71-2.23-.71-1.22 0-2.13.48-2.73 1.45v14.18h-6.25v-20.08h5.88zm22.96-4.99v4.99h3.3v4.34h-3.3v9.18c0 .75.14 1.28.41 1.58.27.3.81.45 1.61.45.62 0 1.14-.04 1.56-.11v4.47c-1.13.36-2.3.54-3.52.54-2.15 0-3.74-.51-4.77-1.52-1.03-1.01-1.54-2.55-1.54-4.62v-9.96h-2.56v-4.34h2.56v-4.99h6.25zm5.71-.19c0-.89.32-1.62.96-2.19.64-.57 1.48-.85 2.5-.85 1.03 0 1.86.29 2.5.85.64.57.96 1.3.96 2.19s-.32 1.62-.96 2.19c-.64.57-1.48.85-2.5.85-1.03 0-1.86-.28-2.5-.85-.64-.57-.96-1.3-.96-2.19zm6.64 25.25h-6.27v-20.08h6.27v20.08zm11.13-25.06v4.99h3.3v4.34h-3.3v9.18c0 .75.14 1.28.41 1.58.27.3.81.45 1.61.45.62 0 1.14-.04 1.56-.11v4.47c-1.13.36-2.3.54-3.52.54-2.15 0-3.74-.51-4.77-1.52-1.03-1.01-1.54-2.55-1.54-4.62v-9.96h-2.56v-4.34h2.56v-4.99h6.25zm13.78 16.31l3.34-11.32H443l-8.18 23.43-.35.85c-1.16 2.6-3.22 3.9-6.16 3.9-.82 0-1.68-.12-2.58-.37v-4.45h.82c.88 0 1.55-.13 2.01-.38.46-.25.81-.71 1.03-1.36l.5-1.34-6.97-20.28h6.68l3.17 11.32zm28.39-16.31v4.99h3.3v4.34h-3.3v9.18c0 .75.14 1.28.41 1.58.27.3.81.45 1.61.45.62 0 1.14-.04 1.56-.11v4.47c-1.13.36-2.3.54-3.52.54-2.15 0-3.74-.51-4.77-1.52-1.03-1.01-1.54-2.55-1.54-4.62v-9.96h-2.56v-4.34h2.56v-4.99h6.25zm11.87 7.14c1.34-1.68 3.04-2.52 5.12-2.52 2.21 0 3.88.66 5.01 1.97 1.12 1.31 1.7 3.25 1.72 5.81v12.67h-6.27v-12.52c0-1.06-.22-1.85-.65-2.35-.43-.5-1.17-.75-2.21-.75-1.29 0-2.2.41-2.73 1.22v14.4h-6.25v-28.5h6.25v10.57zm25.03 18.29c-3.08 0-5.57-.92-7.47-2.76-1.9-1.84-2.86-4.23-2.86-7.17v-.52c0-2.05.38-3.87 1.14-5.44.76-1.57 1.87-2.79 3.33-3.65 1.46-.86 3.19-1.29 5.19-1.29 2.82 0 5.04.88 6.68 2.62 1.63 1.75 2.45 4.19 2.45 7.32v2.43H494.3c.22 1.13.71 2.01 1.47 2.65.75.64 1.73.96 2.93.96 1.98 0 3.52-.69 4.64-2.08l2.86 3.38c-.78 1.08-1.88 1.93-3.31 2.57-1.45.67-2.98.98-4.63.98zm-.7-15.99c-1.83 0-2.92 1.21-3.26 3.64h6.31v-.48c.02-1-.23-1.78-.76-2.33-.54-.55-1.3-.83-2.29-.83zm13.05 15.62v-15.73h-2.91v-4.34h2.91v-1.6c0-2.29.67-4.06 2.02-5.33 1.35-1.26 3.24-1.89 5.67-1.89.89 0 1.87.13 2.93.39l.02 4.6c-.38-.11-.9-.17-1.54-.17-1.89 0-2.84.82-2.84 2.45v1.54h3.91v4.34h-3.91v15.73h-6.26zm19.66-25.06v4.99h3.3v4.34h-3.3v9.18c0 .75.14 1.28.41 1.58.27.3.81.45 1.61.45.62 0 1.14-.04 1.56-.11v4.47c-1.13.36-2.3.54-3.52.54-2.15 0-3.74-.51-4.77-1.52-1.03-1.01-1.54-2.55-1.54-4.62v-9.96h-2.56v-4.34h2.56v-4.99h6.25zm26.52 25.06c-.22-.41-.42-1.01-.59-1.8-1.15 1.45-2.76 2.17-4.82 2.17-1.89 0-3.5-.57-4.82-1.72-1.32-1.14-1.98-2.58-1.98-4.31 0-2.18.8-3.82 2.41-4.94 1.61-1.11 3.94-1.67 7.01-1.67h1.93v-1.06c0-1.85-.8-2.78-2.39-2.78-1.48 0-2.23.73-2.23 2.2h-6.25c0-1.94.82-3.51 2.48-4.73 1.65-1.21 3.75-1.82 6.31-1.82 2.56 0 4.58.62 6.06 1.87 1.48 1.25 2.24 2.96 2.28 5.14v8.89c.02 1.84.31 3.25.85 4.23v.32h-6.25zm-3.91-4.08c.78 0 1.43-.17 1.94-.5.51-.33.88-.71 1.1-1.13v-3.21h-1.82c-2.18 0-3.26.98-3.26 2.93 0 .57.19 1.03.57 1.38.39.36.88.53 1.47.53zm19.36 4.08h-6.27v-28.5h6.27v28.5zm13.56.37c-3.08 0-5.57-.92-7.47-2.76-1.9-1.84-2.86-4.23-2.86-7.17v-.52c0-2.05.38-3.87 1.14-5.44.76-1.57 1.87-2.79 3.33-3.65 1.46-.86 3.19-1.29 5.19-1.29 2.82 0 5.04.88 6.68 2.62 1.63 1.75 2.45 4.19 2.45 7.32v2.43h-12.43c.22 1.13.71 2.01 1.47 2.65.75.64 1.73.96 2.93.96 1.98 0 3.52-.69 4.64-2.08l2.86 3.38c-.78 1.08-1.88 1.93-3.31 2.57-1.44.67-2.98.98-4.62.98zm-.71-15.99c-1.83 0-2.92 1.21-3.26 3.64h6.31v-.48c.02-1-.23-1.78-.76-2.33-.54-.55-1.3-.83-2.29-.83zm23.81 1.21l-2.06-.15c-1.97 0-3.23.62-3.78 1.86v12.71h-6.25v-20.08h5.86l.2 2.58c1.05-1.97 2.52-2.95 4.4-2.95.67 0 1.25.07 1.74.22l-.11 5.81zm10.46-10.65v4.99h3.3v4.34h-3.3v9.18c0 .75.14 1.28.41 1.58.27.3.81.45 1.61.45.62 0 1.14-.04 1.56-.11v4.47c-1.13.36-2.3.54-3.52.54-2.15 0-3.74-.51-4.77-1.52-1.03-1.01-1.54-2.55-1.54-4.62v-9.96h-2.56v-4.34h2.56v-4.99h6.25zm16.27 19.42c0-.53-.28-.96-.83-1.28-.56-.32-1.61-.66-3.17-1-1.56-.35-2.84-.8-3.86-1.36-1.01-.56-1.79-1.25-2.32-2.05-.53-.8-.8-1.73-.8-2.76 0-1.84.76-3.36 2.28-4.55 1.52-1.19 3.51-1.79 5.97-1.79 2.65 0 4.77.6 6.38 1.8 1.61 1.2 2.41 2.78 2.41 4.73h-6.27c0-1.61-.85-2.41-2.54-2.41-.66 0-1.21.18-1.65.55-.45.37-.67.82-.67 1.36 0 .56.27 1.01.82 1.35.54.35 1.41.63 2.61.85 1.19.22 2.24.49 3.14.8 3.02 1.04 4.53 2.9 4.53 5.58 0 1.83-.81 3.32-2.44 4.47s-3.73 1.73-6.32 1.73c-1.72 0-3.25-.31-4.6-.93-1.35-.62-2.4-1.46-3.15-2.52s-1.13-2.18-1.13-3.36h5.84c.02.93.33 1.6.93 2.03.59.43 1.35.64 2.28.64.85 0 1.49-.17 1.92-.52.42-.35.64-.8.64-1.36z"/></svg>