<svg id="Layer_1" xmlns="http://www.w3.org/2000/svg" xmlns:xlink="http://www.w3.org/1999/xlink" viewBox="0 0 160 600"><style>.st0{fill:#2a3480}.st1{fill:#fff}.st2{clip-path:url(#SVGID_2_)}</style><path class="st0" d="M42.8 32.1H23.3c-6.1 0-11 4.9-11 11v19.5c0 6.1 4.9 11 11 11h19.5c6.1 0 11-4.9 11-11V43.1c0-6.1-4.9-11-11-11z"/><path class="st1" d="M41.8 43.6h-.3v-.2h.7v.2h-.3v.6h-.1zM42.9 43.9v-.3c0 .1-.1.2-.1.3l-.1.3h-.1l-.1-.3c0-.1-.1-.2-.1-.3v.6h-.2l.1-.8h.2l.1.3c0 .1.1.2.1.3 0-.1 0-.2.1-.3l.1-.3h.2v.8h-.2v-.3z"/><defs><path id="SVGID_1_" d="M34.9 58.4v1.2c0 .9-.8 1.7-1.7 1.7-.3 0-.6-.1-.9-.2-.3-.2-.4-.5-.2-.8.2-.3.5-.4.8-.2.1 0 .2.1.3.1.3 0 .5-.2.5-.5v-1.2c0-.3.3-.6.6-.6.3-.1.6.1.6.5zM31 60.7c-.1-.3-.5-.4-.8-.2-.3.1-.4.5-.2.8.6 1.2 1.9 2 3.2 2 2 0 3.6-1.6 3.6-3.6v-1.2c0-.3-.3-.6-.6-.6s-.6.3-.6.6v1.2c0 1.4-1.1 2.5-2.5 2.5-.8-.2-1.7-.7-2.1-1.5zm2-19.2c-3 .1-5.4 2.6-5.4 5.7v12.4c0 1.5.6 2.9 1.7 4 1 1 2.4 1.6 3.9 1.6h.2c3-.1 5.4-2.6 5.4-5.7v-.9c0-1.5-1.2-2.7-2.7-2.7h-1.8c-.3 0-.6.3-.6.6s.3.6.6.6h1.8c.8 0 1.5.7 1.5 1.5v.9c0 2.4-1.9 4.4-4.3 4.5-1.2 0-2.3-.4-3.2-1.2-.9-.8-1.3-2-1.3-3.2V47.2c0-2.4 1.9-4.4 4.3-4.5 1.2 0 2.3.4 3.2 1.2.9.8 1.3 2 1.3 3.2v7.3c0 .3.3.6.6.6s.6-.3.6-.6V47c0-1.5-.6-2.9-1.7-4-1.1-1-2.6-1.6-4.1-1.5zm3.8 9.9V47c0-2-1.6-3.6-3.6-3.6S29.6 45 29.6 47v.7c0 .3.3.6.6.6s.6-.3.6-.6V47c0-1.4 1.1-2.5 2.5-2.5s2.5 1.1 2.5 2.5v4.4c0 1.4-1.1 2.5-2.5 2.5-.3 0-.6-.1-.9-.2-.2-.1-.4 0-.5.1-.2.1-.3.3-.3.5v4c0 .2-.2.4-.4.4s-.4-.2-.4-.4v-8.5c0-.3-.3-.6-.6-.6s-.6.3-.6.6v8.5c0 .9.7 1.5 1.5 1.5s1.5-.7 1.5-1.5V55h.5c2.1 0 3.7-1.6 3.7-3.6zm3.9-4.2V59.6c0 2-.8 3.9-2.3 5.4-1.4 1.3-3.2 2-5.2 2H33c-4-.1-7.3-3.5-7.3-7.6V47c0-2 .8-3.9 2.3-5.4 1.5-1.4 3.4-2.2 5.4-2.1 4 .1 7.3 3.6 7.3 7.7zm-1.2 9.3V47.2c0-3.5-2.8-6.4-6.2-6.5-1.7 0-3.4.6-4.6 1.8-1.2 1.2-1.9 2.8-1.9 4.5v12.4c0 3.5 2.8 6.4 6.2 6.5 1.7 0 3.4-.6 4.6-1.8 1.2-1.2 1.9-2.8 1.9-4.5v-3.1zm-8-5.1V47c0-.9.8-1.7 1.7-1.7s1.7.8 1.7 1.7v4.4c0 .9-.8 1.7-1.7 1.7s-1.7-.8-1.7-1.7zm1.2 0c0 .3.2.5.5.5s.5-.2.5-.5V47c0-.3-.2-.5-.5-.5s-.5.2-.5.5v4.4z"/></defs><clipPath id="SVGID_2_"><use xlink:href="#SVGID_1_" overflow="visible"/></clipPath><g class="st2"><defs><path id="SVGID_3_" d="M20.7 34.5h25V72h-25z"/></defs><clipPath id="SVGID_4_"><use xlink:href="#SVGID_3_" overflow="visible"/></clipPath><g clip-path="url(#SVGID_4_)"><image width="53" height="80" xlink:href="B19E184856513812.jpg" transform="matrix(.48 0 0 .48 20.64 34.08)" overflow="visible"/></g></g></svg>