<svg id="Layer_1" xmlns="http://www.w3.org/2000/svg" viewBox="0 0 728 90"><style>.st0{fill:#fff}</style><path class="st0" d="M149.7 65.9c0-.4-.1-.7-.3-.9s-.6-.4-1.1-.6c-.5-.2-.9-.4-1.3-.6-.4-.2-.7-.4-.9-.7-.3-.2-.5-.5-.6-.9-.1-.3-.2-.7-.2-1.2 0-.8.3-1.4.8-1.9s1.2-.8 2-.9v-1.5h1.1v1.5c.8.1 1.5.5 1.9 1s.7 1.3.7 2.2h-2c0-.6-.1-1-.3-1.3-.2-.3-.5-.4-.9-.4s-.7.1-.9.3c-.2.2-.3.5-.3.9s.1.6.3.9c.2.2.6.4 1.1.7s1 .4 1.4.6c.4.2.7.4.9.7.2.2.4.5.6.9.1.3.2.7.2 1.1 0 .8-.2 1.4-.7 1.9-.5.5-1.2.8-2 .9V70h-1.1v-1.4c-1-.1-1.7-.4-2.2-1-.5-.6-.8-1.3-.8-2.3h2c0 .6.1 1 .4 1.3s.6.4 1.1.4c.4 0 .7-.1 1-.3 0-.1.1-.4.1-.8zM158 68.6h-2v-7.8l-2.4.7v-1.6l4.2-1.5h.2v10.2zM166.9 59.2V61h1.4v1h-1.4v4.7c0 .3.1.5.2.7.1.2.3.2.6.2.1 0 .4 0 .6-.1v1c-.3.1-.7.1-1 .1-.6 0-1-.2-1.3-.5-.3-.3-.4-.8-.4-1.5V62h-1.4v-1h1.4v-1.8h1.3zM173.5 62.2h-.6c-.8 0-1.4.4-1.7 1.1v5.4h-1.3V61h1.3v.9c.4-.7 1-1 1.8-1 .3 0 .4 0 .6.1v1.2zM174.7 59c0-.2.1-.4.2-.5.1-.1.3-.2.6-.2s.4.1.6.2c.1.1.2.3.2.5s-.1.4-.2.5c-.1.1-.3.2-.6.2s-.4-.1-.6-.2-.2-.3-.2-.5zm1.4 9.6h-1.3V61h1.3v7.6zM182.8 68.6c-.1-.1-.1-.4-.2-.8-.6.6-1.3.9-2.2.9-.7 0-1.4-.2-1.8-.6-.5-.4-.7-1-.7-1.6 0-.8.3-1.4.9-1.8s1.4-.7 2.5-.7h1.3v-.6c0-.5-.1-.8-.4-1.1-.3-.3-.7-.4-1.2-.4s-.8.1-1.2.3c-.3.2-.5.5-.5.8H178c0-.4.1-.7.4-1.1.3-.4.6-.6 1.1-.8.5-.2 1-.3 1.5-.3.9 0 1.6.2 2 .7.5.4.8 1 .8 1.8v3.5c0 .7.1 1.2.3 1.7v.1h-1.3zm-2.1-1c.4 0 .8-.1 1.2-.3s.6-.5.8-.8v-1.6h-1c-1.6 0-2.4.5-2.4 1.4 0 .4.1.7.4 1 .2.2.5.3 1 .3zM187.3 68.6H186V57.8h1.3v10.8zM193.6 68.6V62h-1.2v-1h1.2v-.8c0-.8.2-1.4.6-1.9s1-.7 1.8-.7c.3 0 .6 0 .9.1l-.1 1c-.2 0-.5-.1-.7-.1-.4 0-.7.1-1 .4-.2.2-.3.6-.3 1.1v.9h1.6v1h-1.6v6.6h-1.2zM197.6 64.7c0-.7.1-1.4.4-2 .3-.6.7-1 1.2-1.4s1.1-.5 1.8-.5c1 0 1.9.4 2.5 1.1s1 1.7 1 2.8v.1c0 .7-.1 1.4-.4 2-.3.6-.7 1-1.2 1.4-.5.3-1.1.5-1.8.5-1 0-1.9-.4-2.5-1.1s-1-1.6-1-2.9zm1.3.2c0 .8.2 1.5.6 2s.9.8 1.6.8c.7 0 1.2-.3 1.6-.8s.6-1.2.6-2.2c0-.8-.2-1.5-.6-2s-.9-.8-1.6-.8c-.6 0-1.2.3-1.5.8-.5.5-.7 1.2-.7 2.2zM209.7 62.2h-.6c-.8 0-1.4.4-1.7 1.1v5.4h-1.3V61h1.3v.9c.4-.7 1-1 1.8-1 .3 0 .4 0 .6.1v1.2zM216.2 59.2V61h1.4v1h-1.4v4.7c0 .3.1.5.2.7.1.2.3.2.6.2.1 0 .4 0 .6-.1v1c-.3.1-.7.1-1 .1-.6 0-1-.2-1.3-.5-.3-.3-.4-.8-.4-1.5V62h-1.4v-1h1.4v-1.8h1.3zM220.4 61.9c.6-.7 1.3-1.1 2.2-1.1 1.6 0 2.4.9 2.4 2.7v5h-1.3v-5c0-.5-.1-.9-.4-1.2-.2-.3-.6-.4-1.1-.4-.4 0-.8.1-1.1.3-.3.2-.6.5-.7.9v5.4h-1.3V57.8h1.3v4.1zM230.1 68.7c-1 0-1.9-.3-2.5-1-.6-.7-1-1.6-1-2.7v-.2c0-.8.1-1.4.4-2 .3-.6.7-1.1 1.2-1.4s1.1-.5 1.7-.5c1 0 1.7.3 2.3 1s.8 1.6.8 2.8v.5h-5c0 .7.2 1.3.7 1.8s.9.7 1.6.7c.5 0 .8-.1 1.2-.3.3-.2.6-.4.8-.7l.8.6c-.7.9-1.7 1.4-3 1.4zm-.1-6.8c-.5 0-1 .2-1.3.6-.4.4-.6.9-.7 1.6h3.8V64c0-.7-.2-1.2-.5-1.5-.3-.4-.8-.6-1.3-.6zM238.8 68.6V62h-1.2v-1h1.2v-.8c0-.8.2-1.4.6-1.9s1-.7 1.8-.7c.3 0 .6 0 .9.1l-.1 1c-.2 0-.5-.1-.7-.1-.4 0-.7.1-1 .4-.2.2-.3.6-.3 1.1v.9h1.6v1H240v6.6h-1.2zM243.1 59c0-.2.1-.4.2-.5.1-.1.3-.2.6-.2s.4.1.6.2c.1.1.2.3.2.5s-.1.4-.2.5c-.1.1-.3.2-.6.2s-.4-.1-.6-.2c-.1-.1-.2-.3-.2-.5zm1.4 9.6h-1.3V61h1.3v7.6zM250.2 62.2h-.6c-.8 0-1.4.4-1.7 1.1v5.4h-1.3V61h1.3v.9c.4-.7 1-1 1.8-1 .3 0 .4 0 .6.1v1.2zM255.8 66.6c0-.3-.1-.6-.4-.8-.3-.2-.7-.4-1.4-.5s-1.2-.3-1.6-.5c-.4-.2-.7-.4-.9-.7-.2-.3-.3-.6-.3-1 0-.6.3-1.1.8-1.6.5-.4 1.2-.6 2-.6.9 0 1.6.2 2.1.7s.8 1 .8 1.7h-1.3c0-.4-.2-.7-.5-.9-.3-.3-.7-.4-1.1-.4-.5 0-.8.1-1.1.3s-.4.5-.4.8c0 .3.1.5.4.7s.7.3 1.3.5c.6.1 1.2.3 1.6.5.4.2.7.4.9.7.2.3.3.6.3 1 0 .7-.3 1.2-.8 1.6-.5.4-1.2.6-2.1.6-.6 0-1.1-.1-1.6-.3-.5-.2-.8-.5-1.1-.9-.3-.4-.4-.8-.4-1.2h1.3c0 .4.2.8.5 1 .3.3.8.4 1.3.4s.9-.1 1.2-.3c.4-.2.5-.5.5-.8zM260.5 59.2V61h1.4v1h-1.4v4.7c0 .3.1.5.2.7.1.2.3.2.6.2.1 0 .4 0 .6-.1v1c-.3.1-.7.1-1 .1-.6 0-1-.2-1.3-.5-.3-.3-.4-.8-.4-1.5V62h-1.4v-1h1.4v-1.8h1.3zM271.1 68.6h-1.3V60l-2.6 1v-1.2l3.7-1.4h.2v10.2zM280.4 65.2h1.4v1.1h-1.4v2.4h-1.3v-2.4h-4.6v-.8l4.6-7h1.4v6.7zm-4.5 0h3.2v-5l-.2.3-3 4.7zM286.3 64.7c0-1.2.3-2.1.8-2.8.5-.7 1.3-1.1 2.2-1.1.9 0 1.6.3 2.1.9v-3.9h1.3v10.7h-1.2l-.1-.8c-.5.6-1.2 1-2.2 1-.9 0-1.6-.4-2.1-1.1-.5-.7-.8-1.6-.8-2.9zm1.3.2c0 .9.2 1.5.5 2 .4.5.8.7 1.5.7.8 0 1.4-.4 1.8-1.1V63c-.4-.7-1-1.1-1.8-1.1-.6 0-1.1.2-1.5.7-.3.6-.5 1.3-.5 2.3zM299.4 68.6c-.1-.1-.1-.4-.2-.8-.6.6-1.3.9-2.2.9-.7 0-1.4-.2-1.8-.6-.5-.4-.7-1-.7-1.6 0-.8.3-1.4.9-1.8s1.4-.7 2.5-.7h1.3v-.6c0-.5-.1-.8-.4-1.1-.3-.3-.7-.4-1.2-.4s-.8.1-1.2.3c-.3.2-.5.5-.5.8h-1.3c0-.4.1-.7.4-1.1.3-.4.6-.6 1.1-.8.5-.2 1-.3 1.5-.3.9 0 1.6.2 2 .7.5.4.8 1 .8 1.8v3.5c0 .7.1 1.2.3 1.7v.1h-1.3zm-2.2-1c.4 0 .8-.1 1.2-.3s.6-.5.8-.8v-1.6h-1c-1.6 0-2.4.5-2.4 1.4 0 .4.1.7.4 1 .2.2.6.3 1 .3zM304.9 66.7l1.8-5.7h1.4l-3 8.7c-.5 1.3-1.2 1.9-2.2 1.9h-.2l-.5-.1v-1h.3c.4 0 .8-.1 1-.3.2-.2.4-.5.6-1l.3-.8-2.7-7.5h1.4l1.8 5.8zM313.6 66.6c0-.3-.1-.6-.4-.8-.3-.2-.7-.4-1.4-.5s-1.2-.3-1.6-.5c-.4-.2-.7-.4-.9-.7-.2-.3-.3-.6-.3-1 0-.6.3-1.1.8-1.6.5-.4 1.2-.6 2-.6.9 0 1.6.2 2.1.7s.8 1 .8 1.7h-1.3c0-.4-.2-.7-.5-.9-.3-.3-.7-.4-1.1-.4-.5 0-.8.1-1.1.3s-.4.5-.4.8c0 .3.1.5.4.7s.7.3 1.3.5c.6.1 1.2.3 1.6.5.4.2.7.4.9.7.2.3.3.6.3 1 0 .7-.3 1.2-.8 1.6-.5.4-1.2.6-2.1.6-.6 0-1.1-.1-1.6-.3-.5-.2-.8-.5-1.1-.9-.3-.4-.4-.8-.4-1.2h1.3c0 .4.2.8.5 1 .3.3.8.4 1.3.4s.9-.1 1.2-.3c.4-.2.5-.5.5-.8zM316.7 67.9c0-.2.1-.4.2-.6.1-.1.3-.2.6-.2s.5.1.6.2c.1.1.2.3.2.6 0 .2-.1.4-.2.5-.1.1-.3.2-.6.2s-.5-.1-.6-.2c-.2-.1-.2-.3-.2-.5zM325.5 64.6v4h-1.3V58.4h3.8c1.1 0 2 .3 2.6.9.6.6.9 1.3.9 2.3 0 1-.3 1.7-.9 2.3-.6.5-1.5.8-2.7.8h-2.4zm0-1.1h2.4c.7 0 1.3-.2 1.6-.5.4-.3.6-.8.6-1.5 0-.6-.2-1.1-.6-1.5-.4-.4-.9-.6-1.6-.6h-2.5v4.1zM334.4 68.6h-1.3V57.8h1.3v10.8zM341.1 68.6c-.1-.1-.1-.4-.2-.8-.6.6-1.3.9-2.2.9-.7 0-1.4-.2-1.8-.6-.5-.4-.7-1-.7-1.6 0-.8.3-1.4.9-1.8s1.4-.7 2.5-.7h1.3v-.6c0-.5-.1-.8-.4-1.1-.3-.3-.7-.4-1.2-.4s-.8.1-1.2.3c-.3.2-.5.5-.5.8h-1.3c0-.4.1-.7.4-1.1.3-.4.6-.6 1.1-.8.5-.2 1-.3 1.5-.3.9 0 1.6.2 2 .7.5.4.8 1 .8 1.8v3.5c0 .7.1 1.2.3 1.7v.1h-1.3zm-2.1-1c.4 0 .8-.1 1.2-.3s.6-.5.8-.8v-1.6h-1c-1.6 0-2.4.5-2.4 1.4 0 .4.1.7.4 1 .2.2.5.3 1 .3zM345.4 61v1c.6-.7 1.3-1.1 2.3-1.1 1.6 0 2.4.9 2.4 2.7v5h-1.3v-5c0-.5-.1-.9-.4-1.2-.2-.3-.6-.4-1.1-.4-.4 0-.8.1-1.1.3-.3.2-.6.5-.7.9v5.4h-1.3V61h1.2zM356.5 66.6c0-.3-.1-.6-.4-.8-.3-.2-.7-.4-1.4-.5s-1.2-.3-1.6-.5c-.4-.2-.7-.4-.9-.7-.2-.3-.3-.6-.3-1 0-.6.3-1.1.8-1.6.5-.4 1.2-.6 2-.6.9 0 1.6.2 2.1.7s.8 1 .8 1.7h-1.3c0-.4-.2-.7-.5-.9-.3-.3-.7-.4-1.1-.4-.5 0-.8.1-1.1.3s-.4.5-.4.8c0 .3.1.5.4.7s.7.3 1.3.5c.6.1 1.2.3 1.6.5.4.2.7.4.9.7.2.3.3.6.3 1 0 .7-.3 1.2-.8 1.6-.5.4-1.2.6-2.1.6-.6 0-1.1-.1-1.6-.3-.5-.2-.8-.5-1.1-.9-.3-.4-.4-.8-.4-1.2h1.3c0 .4.2.8.5 1 .3.3.8.4 1.3.4s.9-.1 1.2-.3c.4-.2.5-.5.5-.8zM367.4 66.6c0-.3-.1-.6-.4-.8-.3-.2-.7-.4-1.4-.5s-1.2-.3-1.6-.5c-.4-.2-.7-.4-.9-.7-.2-.3-.3-.6-.3-1 0-.6.3-1.1.8-1.6.5-.4 1.2-.6 2-.6.9 0 1.6.2 2.1.7s.8 1 .8 1.7h-1.3c0-.4-.2-.7-.5-.9-.3-.3-.7-.4-1.1-.4-.5 0-.8.1-1.1.3s-.4.5-.4.8c0 .3.1.5.4.7s.7.3 1.3.5c.6.1 1.2.3 1.6.5.4.2.7.4.9.7.2.3.3.6.3 1 0 .7-.3 1.2-.8 1.6-.5.4-1.2.6-2.1.6-.6 0-1.1-.1-1.6-.3-.5-.2-.8-.5-1.1-.9-.3-.4-.4-.8-.4-1.2h1.3c0 .4.2.8.5 1 .3.3.8.4 1.3.4s.9-.1 1.2-.3c.4-.2.5-.5.5-.8zM372.2 59.2V61h1.4v1h-1.4v4.7c0 .3.1.5.2.7.1.2.3.2.6.2.1 0 .4 0 .6-.1v1c-.3.1-.7.1-1 .1-.6 0-1-.2-1.3-.5-.3-.3-.4-.8-.4-1.5V62h-1.4v-1h1.4v-1.8h1.3zM379.8 68.6c-.1-.1-.1-.4-.2-.8-.6.6-1.3.9-2.2.9-.7 0-1.4-.2-1.8-.6-.5-.4-.7-1-.7-1.6 0-.8.3-1.4.9-1.8s1.4-.7 2.5-.7h1.3v-.6c0-.5-.1-.8-.4-1.1-.3-.3-.7-.4-1.2-.4s-.8.1-1.2.3c-.3.2-.5.5-.5.8H375c0-.4.1-.7.4-1.1.3-.4.6-.6 1.1-.8.5-.2 1-.3 1.5-.3.9 0 1.6.2 2 .7.5.4.8 1 .8 1.8v3.5c0 .7.1 1.2.3 1.7v.1h-1.3zm-2.2-1c.4 0 .8-.1 1.2-.3s.6-.5.8-.8v-1.6h-1c-1.6 0-2.4.5-2.4 1.4 0 .4.1.7.4 1 .2.2.6.3 1 .3zM386.5 62.2h-.6c-.8 0-1.4.4-1.7 1.1v5.4h-1.3V61h1.3v.9c.4-.7 1-1 1.8-1 .3 0 .4 0 .6.1v1.2zM389.8 59.2V61h1.4v1h-1.4v4.7c0 .3.1.5.2.7.1.2.3.2.6.2.1 0 .4 0 .6-.1v1c-.3.1-.7.1-1 .1-.6 0-1-.2-1.3-.5-.3-.3-.4-.8-.4-1.5V62h-1.4v-1h1.4v-1.8h1.3zM392.7 59c0-.2.1-.4.2-.5.1-.1.3-.2.6-.2s.4.1.6.2c.1.1.2.3.2.5s-.1.4-.2.5c-.1.1-.3.2-.6.2s-.4-.1-.6-.2c-.1-.1-.2-.3-.2-.5zm1.4 9.6h-1.3V61h1.3v7.6zM397.4 61v1c.6-.7 1.3-1.1 2.3-1.1 1.6 0 2.4.9 2.4 2.7v5h-1.3v-5c0-.5-.1-.9-.4-1.2-.2-.3-.6-.4-1.1-.4-.4 0-.8.1-1.1.3-.3.2-.6.5-.7.9v5.4h-1.3V61h1.2zM403.8 64.7c0-1.2.3-2.1.8-2.8s1.3-1 2.2-1c.9 0 1.6.3 2.2 1V61h1.2v7.4c0 1-.3 1.7-.9 2.3s-1.4.8-2.3.8c-.5 0-1.1-.1-1.6-.3-.5-.2-.9-.6-1.2-1l.7-.8c.6.7 1.2 1 2 1 .6 0 1.1-.2 1.5-.5.4-.4.5-.9.5-1.5v-.6c-.5.6-1.2.9-2.1.9-.9 0-1.6-.4-2.1-1.1-.6-.7-.9-1.6-.9-2.9zm1.3.2c0 .9.2 1.5.5 2s.8.7 1.5.7c.8 0 1.4-.4 1.8-1.1V63c-.4-.7-1-1.1-1.8-1.1-.6 0-1.1.2-1.5.7-.3.6-.5 1.3-.5 2.3zM420.3 68.6c-.1-.1-.1-.4-.2-.8-.6.6-1.3.9-2.2.9-.7 0-1.4-.2-1.8-.6-.5-.4-.7-1-.7-1.6 0-.8.3-1.4.9-1.8s1.4-.7 2.5-.7h1.3v-.6c0-.5-.1-.8-.4-1.1-.3-.3-.7-.4-1.2-.4s-.8.1-1.2.3c-.3.2-.5.5-.5.8h-1.3c0-.4.1-.7.4-1.1.3-.4.6-.6 1.1-.8.5-.2 1-.3 1.5-.3.9 0 1.6.2 2 .7.5.4.8 1 .8 1.8v3.5c0 .7.1 1.2.3 1.7v.1h-1.3zm-2.1-1c.4 0 .8-.1 1.2-.3s.6-.5.8-.8v-1.6h-1c-1.6 0-2.4.5-2.4 1.4 0 .4.1.7.4 1 .2.2.6.3 1 .3zM425.2 59.2V61h1.4v1h-1.4v4.7c0 .3.1.5.2.7.1.2.3.2.6.2.1 0 .4 0 .6-.1v1c-.3.1-.7.1-1 .1-.6 0-1-.2-1.3-.5-.3-.3-.4-.8-.4-1.5V62h-1.4v-1h1.4v-1.8h1.3zM436.2 65.9c0-.4-.1-.7-.3-.9s-.6-.4-1.1-.6c-.5-.2-.9-.4-1.3-.6-.4-.2-.7-.4-.9-.7-.3-.2-.5-.5-.6-.9-.1-.3-.2-.7-.2-1.2 0-.8.3-1.4.8-1.9s1.2-.8 2-.9v-1.5h1.1v1.5c.8.1 1.5.5 1.9 1s.7 1.3.7 2.2h-2c0-.6-.1-1-.3-1.3-.2-.3-.5-.4-.9-.4s-.7.1-.9.3c-.2.2-.3.5-.3.9s.1.6.3.9c.2.2.6.4 1.1.7s1 .4 1.4.6c.4.2.7.4.9.7.2.2.4.5.6.9.1.3.2.7.2 1.1 0 .8-.2 1.4-.7 1.9-.5.5-1.2.8-2 .9V70h-1.1v-1.4c-1-.1-1.7-.4-2.2-1-.5-.6-.8-1.3-.8-2.3h2c0 .6.1 1 .4 1.3s.6.4 1.1.4c.4 0 .7-.1 1-.3 0-.1.1-.4.1-.8zM444.3 64.5c-.5.5-1.1.8-1.8.8-.9 0-1.6-.3-2.2-.9s-.8-1.5-.8-2.5c0-.7.1-1.3.4-1.8s.7-1 1.2-1.3c.5-.3 1.1-.5 1.8-.5s1.3.2 1.8.5.9.8 1.2 1.4.4 1.3.4 2.2v.7c0 1.7-.4 3-1.3 4-.8 1-2 1.5-3.6 1.6h-.5V67h.4c1.9-.1 2.9-.9 3-2.5zm-1.3-.8c.3 0 .6-.1.8-.3.2-.2.4-.4.5-.6V62c0-.7-.1-1.2-.4-1.6-.3-.4-.6-.6-1-.6s-.7.2-1 .6c-.3.4-.4.8-.4 1.4 0 .6.1 1 .4 1.4.2.4.6.5 1.1.5zM448 67.6c0-.3.1-.6.3-.8.2-.2.5-.3.8-.3.3 0 .6.1.8.3.2.2.3.5.3.8 0 .3-.1.6-.3.8-.2.2-.5.3-.8.3-.3 0-.6-.1-.8-.3-.2-.2-.3-.5-.3-.8zM456.7 64.5c-.5.5-1.1.8-1.8.8-.9 0-1.6-.3-2.2-.9s-.8-1.5-.8-2.5c0-.7.1-1.3.4-1.8s.7-1 1.2-1.3c.5-.3 1.1-.5 1.8-.5s1.3.2 1.8.5.9.8 1.2 1.4.4 1.3.4 2.2v.7c0 1.7-.4 3-1.3 4-.8 1-2 1.5-3.6 1.6h-.5V67h.4c1.9-.1 2.8-.9 3-2.5zm-1.4-.8c.3 0 .6-.1.8-.3.2-.2.4-.4.5-.6V62c0-.7-.1-1.2-.4-1.6-.3-.4-.6-.6-1-.6s-.7.2-1 .6c-.3.4-.4.8-.4 1.4 0 .6.1 1 .4 1.4.3.4.7.5 1.1.5zM464.9 64.5c-.5.5-1.1.8-1.8.8-.9 0-1.6-.3-2.2-.9s-.8-1.5-.8-2.5c0-.7.1-1.3.4-1.8s.7-1 1.2-1.3c.5-.3 1.1-.5 1.8-.5s1.3.2 1.8.5.9.8 1.2 1.4.4 1.3.4 2.2v.7c0 1.7-.4 3-1.3 4-.8 1-2 1.5-3.6 1.6h-.5V67h.4c1.9-.1 2.8-.9 3-2.5zm-1.4-.8c.3 0 .6-.1.8-.3.2-.2.4-.4.5-.6V62c0-.7-.1-1.2-.4-1.6-.3-.4-.6-.6-1-.6s-.7.2-1 .6c-.3.4-.4.8-.4 1.4 0 .6.1 1 .4 1.4.3.4.7.5 1.1.5zM474 59.2V61h1.4v1H474v4.7c0 .3.1.5.2.7.1.2.3.2.6.2.1 0 .4 0 .6-.1v1c-.3.1-.7.1-1 .1-.6 0-1-.2-1.3-.5-.3-.3-.4-.8-.4-1.5V62h-1.4v-1h1.4v-1.8h1.3zM476.4 64.7c0-.7.1-1.4.4-2 .3-.6.7-1 1.2-1.4s1.1-.5 1.8-.5c1 0 1.9.4 2.5 1.1s1 1.7 1 2.8v.1c0 .7-.1 1.4-.4 2-.3.6-.7 1-1.2 1.4-.5.3-1.1.5-1.8.5-1 0-1.9-.4-2.5-1.1s-1-1.6-1-2.9zm1.3.2c0 .8.2 1.5.6 2s.9.8 1.6.8c.7 0 1.2-.3 1.6-.8s.6-1.2.6-2.2c0-.8-.2-1.5-.6-2s-.9-.8-1.6-.8c-.6 0-1.2.3-1.5.8-.5.5-.7 1.2-.7 2.2zM493 65.9c0-.4-.1-.7-.3-.9s-.6-.4-1.1-.6c-.5-.2-.9-.4-1.3-.6-.4-.2-.7-.4-.9-.7-.3-.2-.5-.5-.6-.9-.1-.3-.2-.7-.2-1.2 0-.8.3-1.4.8-1.9s1.2-.8 2-.9v-1.5h1.1v1.5c.8.1 1.5.5 1.9 1s.7 1.3.7 2.2h-2c0-.6-.1-1-.3-1.3-.2-.3-.5-.4-.9-.4s-.7.1-.9.3c-.2.2-.3.5-.3.9s.1.6.3.9c.2.2.6.4 1.1.7s1 .4 1.4.6c.4.2.7.4.9.7.2.2.4.5.6.9.1.3.2.7.2 1.1 0 .8-.2 1.4-.7 1.9-.5.5-1.2.8-2 .9V70h-1.1v-1.4c-1-.1-1.7-.4-2.2-1-.5-.6-.8-1.3-.8-2.3h2c0 .6.1 1 .4 1.3s.6.4 1.1.4c.4 0 .7-.1 1-.3 0-.1.1-.4.1-.8zM503.3 68.6h-7v-1.4l3.3-3.5c.5-.5.8-.9 1-1.3.2-.4.3-.7.3-1 0-.5-.1-.8-.3-1.1-.2-.3-.6-.4-1-.4-.5 0-.8.2-1.1.5-.3.3-.4.7-.4 1.2h-2c0-.6.1-1.2.4-1.7s.7-.9 1.3-1.2c.5-.3 1.2-.4 1.8-.4 1 0 1.9.3 2.4.8.6.5.9 1.2.9 2.1 0 .5-.1 1-.4 1.5-.3.5-.7 1.1-1.3 1.8l-2.3 2.4h4.4v1.7zM510.5 64.7h1.2v1.6h-1.2v2.2h-2v-2.2h-4.2l-.1-1.3 4.2-6.7h2v6.4zm-4.2 0h2.2v-3.6l-.1.2-2.1 3.4zM513 67.6c0-.3.1-.6.3-.8.2-.2.5-.3.8-.3.3 0 .6.1.8.3.2.2.3.5.3.8 0 .3-.1.6-.3.8-.2.2-.5.3-.8.3-.3 0-.6-.1-.8-.3-.2-.2-.3-.5-.3-.8zM521.7 64.5c-.5.5-1.1.8-1.8.8-.9 0-1.6-.3-2.2-.9s-.8-1.5-.8-2.5c0-.7.1-1.3.4-1.8s.7-1 1.2-1.3c.5-.3 1.1-.5 1.8-.5s1.3.2 1.8.5.9.8 1.2 1.4.4 1.3.4 2.2v.7c0 1.7-.4 3-1.3 4-.8 1-2 1.5-3.6 1.6h-.5V67h.4c1.9-.1 2.8-.9 3-2.5zm-1.4-.8c.3 0 .6-.1.8-.3.2-.2.4-.4.5-.6V62c0-.7-.1-1.2-.4-1.6-.3-.4-.6-.6-1-.6s-.7.2-1 .6c-.3.4-.4.8-.4 1.4 0 .6.1 1 .4 1.4.3.4.7.5 1.1.5zM529.9 64.5c-.5.5-1.1.8-1.8.8-.9 0-1.6-.3-2.2-.9s-.8-1.5-.8-2.5c0-.7.1-1.3.4-1.8s.7-1 1.2-1.3c.5-.3 1.1-.5 1.8-.5s1.3.2 1.8.5.9.8 1.2 1.4.4 1.3.4 2.2v.7c0 1.7-.4 3-1.3 4-.8 1-2 1.5-3.6 1.6h-.5V67h.4c1.9-.1 2.8-.9 3-2.5zm-1.4-.8c.3 0 .6-.1.8-.3.2-.2.4-.4.5-.6V62c0-.7-.1-1.2-.4-1.6-.3-.4-.6-.6-1-.6s-.7.2-1 .6c-.3.4-.4.8-.4 1.4 0 .6.1 1 .4 1.4.3.4.7.5 1.1.5zM533.9 69.4h-1.1l4.2-11h1.1l-4.2 11zM540.8 61v.8c.6-.7 1.3-1 2.2-1 1.1 0 1.8.4 2.2 1.2.3-.4.6-.7 1-.9.4-.2.9-.3 1.4-.3 1.7 0 2.5.9 2.5 2.6v5.1h-1.3v-5c0-.5-.1-.9-.4-1.2s-.7-.4-1.2-.4-.9.1-1.2.4c-.3.3-.5.7-.6 1.2v5h-1.3v-5c0-1.1-.5-1.6-1.6-1.6-.8 0-1.4.4-1.7 1.1v5.5h-1.3V61h1.3zM551.7 64.7c0-.7.1-1.4.4-2 .3-.6.7-1 1.2-1.4s1.1-.5 1.8-.5c1 0 1.9.4 2.5 1.1s1 1.7 1 2.8v.1c0 .7-.1 1.4-.4 2-.3.6-.7 1-1.2 1.4-.5.3-1.1.5-1.8.5-1 0-1.9-.4-2.5-1.1s-1-1.6-1-2.9zm1.3.2c0 .8.2 1.5.6 2s.9.8 1.6.8c.7 0 1.2-.3 1.6-.8s.6-1.2.6-2.2c0-.8-.2-1.5-.6-2s-.9-.8-1.6-.8c-.6 0-1.2.3-1.5.8-.5.5-.7 1.2-.7 2.2zM561.5 61v1c.6-.7 1.3-1.1 2.3-1.1 1.6 0 2.4.9 2.4 2.7v5h-1.3v-5c0-.5-.1-.9-.4-1.2-.2-.3-.6-.4-1.1-.4-.4 0-.8.1-1.1.3-.3.2-.6.5-.7.9v5.4h-1.3V61h1.2zM569.9 59.2V61h1.4v1h-1.4v4.7c0 .3.1.5.2.7.1.2.3.2.6.2.1 0 .4 0 .6-.1v1c-.3.1-.7.1-1 .1-.6 0-1-.2-1.3-.5-.3-.3-.4-.8-.4-1.5V62h-1.4v-1h1.4v-1.8h1.3zM574.1 61.9c.6-.7 1.3-1.1 2.2-1.1 1.6 0 2.4.9 2.4 2.7v5h-1.3v-5c0-.5-.1-.9-.4-1.2-.2-.3-.6-.4-1.1-.4-.4 0-.8.1-1.1.3-.3.2-.6.5-.7.9v5.4h-1.3V57.8h1.3v4.1zM580.7 67.9c0-.2.1-.4.2-.6.1-.1.3-.2.6-.2s.5.1.6.2c.1.1.2.3.2.6 0 .2-.1.4-.2.5-.1.1-.3.2-.6.2s-.5-.1-.6-.2c-.1-.1-.2-.3-.2-.5z"/></svg>