<?xml version="1.0" encoding="utf-8"?>
<!-- Generator: Adobe Illustrator 24.2.3, SVG Export Plug-In . SVG Version: 6.00 Build 0)  -->
<svg version="1.1" id="Layer_1" xmlns="http://www.w3.org/2000/svg" xmlns:xlink="http://www.w3.org/1999/xlink" x="0px" y="0px"
	 viewBox="0 0 300 250" style="enable-background:new 0 0 300 250;" xml:space="preserve">
<style type="text/css">
	.st0{fill:#FFFFFF;}
</style>
<g>
	<path class="st0" d="M115.25,92.99v4.51h-2.64v-12.8h4.99c0.96,0,1.81,0.18,2.54,0.53c0.73,0.35,1.29,0.85,1.68,1.5
		s0.59,1.38,0.59,2.21c0,1.25-0.43,2.24-1.29,2.97s-2.05,1.09-3.56,1.09H115.25z M115.25,90.86h2.36c0.7,0,1.23-0.16,1.6-0.49
		c0.37-0.33,0.55-0.8,0.55-1.41c0-0.63-0.18-1.13-0.55-1.52s-0.88-0.59-1.53-0.6h-2.42V90.86z"/>
	<path class="st0" d="M129.4,90.38c-0.35-0.05-0.65-0.07-0.91-0.07c-0.96,0-1.59,0.33-1.89,0.98v6.22h-2.54v-9.51h2.4l0.07,1.13
		c0.51-0.87,1.22-1.31,2.12-1.31c0.28,0,0.54,0.04,0.79,0.11L129.4,90.38z"/>
	<path class="st0" d="M130.6,85.53c0-0.38,0.13-0.69,0.38-0.94c0.26-0.25,0.6-0.37,1.04-0.37c0.43,0,0.78,0.12,1.04,0.37
		s0.39,0.56,0.39,0.94c0,0.39-0.13,0.7-0.39,0.95s-0.6,0.37-1.03,0.37s-0.77-0.12-1.03-0.37C130.73,86.24,130.6,85.92,130.6,85.53z
		 M133.3,97.5h-2.55v-9.51h2.55V97.5z"/>
	<path class="st0" d="M138.95,94.4l1.77-6.41h2.65l-3.21,9.51h-2.43l-3.21-9.51h2.65L138.95,94.4z"/>
	<path class="st0" d="M149.87,97.5c-0.12-0.23-0.2-0.51-0.25-0.85c-0.62,0.69-1.42,1.03-2.4,1.03c-0.93,0-1.7-0.27-2.32-0.81
		s-0.92-1.22-0.92-2.04c0-1.01,0.37-1.78,1.12-2.32c0.75-0.54,1.83-0.81,3.24-0.82h1.17v-0.54c0-0.44-0.11-0.79-0.34-1.05
		s-0.58-0.4-1.07-0.4c-0.43,0-0.76,0.1-1.01,0.31s-0.36,0.49-0.36,0.84h-2.54c0-0.55,0.17-1.06,0.51-1.53s0.82-0.84,1.44-1.1
		s1.32-0.4,2.09-0.4c1.17,0,2.1,0.29,2.79,0.88c0.69,0.59,1.03,1.42,1.03,2.48v4.12c0.01,0.9,0.13,1.58,0.38,2.05v0.15H149.87z
		 M147.77,95.74c0.38,0,0.72-0.08,1.04-0.25c0.32-0.17,0.55-0.39,0.7-0.67v-1.63h-0.95c-1.27,0-1.95,0.44-2.03,1.32l-0.01,0.15
		c0,0.32,0.11,0.58,0.33,0.78S147.38,95.74,147.77,95.74z"/>
	<path class="st0" d="M157.96,95.63c0.47,0,0.85-0.13,1.14-0.39s0.45-0.6,0.46-1.03h2.38c-0.01,0.64-0.18,1.23-0.53,1.77
		c-0.35,0.54-0.82,0.95-1.42,1.25c-0.6,0.29-1.26,0.44-1.99,0.44c-1.36,0-2.43-0.43-3.22-1.3c-0.79-0.86-1.18-2.06-1.18-3.58v-0.17
		c0-1.46,0.39-2.63,1.17-3.51s1.85-1.31,3.21-1.31c1.19,0,2.14,0.34,2.86,1.02c0.72,0.68,1.08,1.58,1.09,2.7h-2.38
		c-0.01-0.49-0.16-0.9-0.46-1.21s-0.68-0.46-1.16-0.46c-0.59,0-1.04,0.22-1.34,0.65s-0.45,1.13-0.45,2.1v0.26
		c0,0.98,0.15,1.68,0.45,2.11S157.36,95.63,157.96,95.63z"/>
	<path class="st0" d="M166.95,93.91l1.76-5.92h2.72l-3.82,10.99l-0.21,0.5c-0.57,1.24-1.51,1.86-2.81,1.86
		c-0.37,0-0.74-0.06-1.12-0.17v-1.92l0.39,0.01c0.48,0,0.84-0.07,1.08-0.22c0.24-0.15,0.42-0.39,0.56-0.73l0.3-0.78l-3.33-9.54h2.73
		L166.95,93.91z"/>
	<path class="st0" d="M182.72,95.89c-0.47,0.57-1.15,1.01-2.01,1.32c-0.87,0.31-1.83,0.47-2.88,0.47c-1.11,0-2.08-0.24-2.91-0.72
		c-0.84-0.48-1.48-1.19-1.93-2.11c-0.46-0.92-0.69-2-0.7-3.24v-0.87c0-1.28,0.21-2.38,0.65-3.32c0.43-0.93,1.05-1.65,1.86-2.14
		c0.81-0.5,1.76-0.74,2.85-0.74c1.52,0,2.7,0.36,3.56,1.09s1.36,1.78,1.52,3.16h-2.57c-0.12-0.73-0.38-1.27-0.78-1.61
		c-0.4-0.34-0.95-0.51-1.66-0.51c-0.9,0-1.58,0.34-2.05,1.01s-0.71,1.68-0.71,3.01v0.82c0,1.34,0.25,2.36,0.76,3.04
		s1.26,1.03,2.24,1.03c0.99,0,1.7-0.21,2.12-0.63v-2.21h-2.4v-1.94h5.04V95.89z"/>
	<path class="st0" d="M190.39,96.54c-0.63,0.76-1.49,1.14-2.6,1.14c-1.02,0-1.8-0.29-2.33-0.88c-0.54-0.59-0.81-1.44-0.82-2.58
		v-6.23h2.54v6.15c0,0.99,0.45,1.49,1.35,1.49c0.86,0,1.45-0.3,1.78-0.9v-6.74h2.55v9.51h-2.39L190.39,96.54z"/>
	<path class="st0" d="M200.28,97.5c-0.12-0.23-0.2-0.51-0.25-0.85c-0.62,0.69-1.42,1.03-2.4,1.03c-0.93,0-1.7-0.27-2.32-0.81
		s-0.92-1.22-0.92-2.04c0-1.01,0.37-1.78,1.12-2.32c0.75-0.54,1.83-0.81,3.24-0.82h1.17v-0.54c0-0.44-0.11-0.79-0.34-1.05
		s-0.58-0.4-1.07-0.4c-0.43,0-0.76,0.1-1.01,0.31s-0.36,0.49-0.36,0.84h-2.54c0-0.55,0.17-1.06,0.51-1.53s0.82-0.84,1.44-1.1
		s1.32-0.4,2.09-0.4c1.17,0,2.1,0.29,2.79,0.88c0.69,0.59,1.03,1.42,1.03,2.48v4.12c0.01,0.9,0.13,1.58,0.38,2.05v0.15H200.28z
		 M198.17,95.74c0.38,0,0.72-0.08,1.04-0.25c0.32-0.17,0.55-0.39,0.7-0.67v-1.63h-0.95c-1.27,0-1.95,0.44-2.03,1.32l-0.01,0.15
		c0,0.32,0.11,0.58,0.33,0.78S197.79,95.74,198.17,95.74z"/>
	<path class="st0" d="M209.76,90.38c-0.35-0.05-0.65-0.07-0.91-0.07c-0.96,0-1.59,0.33-1.89,0.98v6.22h-2.54v-9.51h2.4l0.07,1.13
		c0.51-0.87,1.22-1.31,2.12-1.31c0.28,0,0.54,0.04,0.79,0.11L209.76,90.38z"/>
	<path class="st0" d="M210.58,92.68c0-1.48,0.33-2.66,1-3.54c0.66-0.88,1.57-1.32,2.73-1.32c0.93,0,1.69,0.35,2.29,1.04V84h2.55
		v13.5h-2.29l-0.12-1.01c-0.63,0.79-1.45,1.19-2.44,1.19c-1.12,0-2.02-0.44-2.69-1.32C210.92,95.47,210.58,94.25,210.58,92.68z
		 M213.12,92.87c0,0.89,0.16,1.58,0.47,2.05s0.76,0.71,1.35,0.71c0.79,0,1.34-0.33,1.66-1v-3.76c-0.32-0.66-0.86-0.99-1.64-0.99
		C213.74,89.88,213.12,90.88,213.12,92.87z"/>
	<path class="st0" d="M116.52,117.95c0.58,0,1.09-0.18,1.52-0.53s0.67-0.79,0.72-1.32h1.54c-0.03,0.54-0.22,1.06-0.56,1.56
		s-0.81,0.88-1.38,1.18s-1.19,0.44-1.83,0.44c-1.29,0-2.32-0.43-3.09-1.3c-0.76-0.86-1.15-2.05-1.15-3.55v-0.27
		c0-0.93,0.17-1.75,0.51-2.47s0.83-1.28,1.46-1.68s1.39-0.6,2.25-0.6c1.07,0,1.95,0.32,2.66,0.96c0.71,0.64,1.08,1.47,1.13,2.49
		h-1.54c-0.05-0.62-0.28-1.12-0.7-1.52c-0.42-0.4-0.94-0.59-1.55-0.59c-0.83,0-1.47,0.3-1.92,0.89s-0.68,1.45-0.68,2.58v0.31
		c0,1.1,0.23,1.94,0.68,2.53S115.68,117.95,116.52,117.95z"/>
	<path class="st0" d="M127.99,119.1c-0.09-0.19-0.17-0.52-0.23-1c-0.76,0.79-1.66,1.18-2.71,1.18c-0.94,0-1.71-0.26-2.31-0.79
		c-0.6-0.53-0.9-1.2-0.9-2.02c0-0.99,0.38-1.76,1.13-2.31c0.75-0.55,1.81-0.82,3.18-0.82h1.58v-0.75c0-0.57-0.17-1.02-0.51-1.36
		c-0.34-0.34-0.84-0.5-1.5-0.5c-0.58,0-1.07,0.15-1.46,0.44s-0.59,0.65-0.59,1.06h-1.63c0-0.47,0.17-0.93,0.5-1.38
		s0.79-0.79,1.37-1.05s1.21-0.39,1.9-0.39c1.1,0,1.95,0.27,2.58,0.82s0.94,1.3,0.97,2.26v4.38c0,0.87,0.11,1.57,0.33,2.08v0.14
		H127.99z M125.3,117.86c0.51,0,0.99-0.13,1.45-0.4s0.79-0.61,0.99-1.03v-1.95h-1.27c-1.99,0-2.99,0.58-2.99,1.75
		c0,0.51,0.17,0.91,0.51,1.2S124.76,117.86,125.3,117.86z"/>
	<path class="st0" d="M133.45,109.59l0.05,1.2c0.73-0.91,1.68-1.37,2.85-1.37c2.01,0,3.02,1.13,3.04,3.4v6.28h-1.63v-6.29
		c-0.01-0.69-0.16-1.19-0.47-1.52c-0.31-0.33-0.79-0.49-1.44-0.49c-0.53,0-0.99,0.14-1.39,0.42s-0.71,0.65-0.93,1.11v6.78h-1.63
		v-9.51H133.45z"/>
	<path class="st0" d="M147.93,110.74c0.72-0.88,1.66-1.33,2.81-1.33c2.01,0,3.02,1.13,3.04,3.4v6.28h-1.63v-6.29
		c-0.01-0.69-0.16-1.19-0.47-1.52c-0.31-0.33-0.79-0.49-1.44-0.49c-0.53,0-0.99,0.14-1.39,0.42s-0.71,0.65-0.93,1.11v6.78h-1.63
		v-13.5h1.63V110.74z"/>
	<path class="st0" d="M160.16,119.28c-1.29,0-2.34-0.42-3.15-1.27s-1.21-1.98-1.21-3.4v-0.3c0-0.94,0.18-1.79,0.54-2.53
		c0.36-0.74,0.86-1.32,1.51-1.74s1.35-0.63,2.11-0.63c1.24,0,2.2,0.41,2.88,1.22s1.03,1.98,1.03,3.5v0.68h-6.44
		c0.02,0.94,0.3,1.7,0.82,2.27c0.52,0.58,1.19,0.87,2,0.87c0.57,0,1.06-0.12,1.46-0.35s0.75-0.54,1.05-0.93l0.99,0.77
		C162.95,118.67,161.76,119.28,160.16,119.28z M159.96,110.75c-0.66,0-1.21,0.24-1.65,0.72s-0.72,1.15-0.83,2.01h4.76v-0.12
		c-0.05-0.83-0.27-1.47-0.67-1.92S160.64,110.75,159.96,110.75z"/>
	<path class="st0" d="M167.52,119.1h-1.63v-13.5h1.63V119.1z"/>
	<path class="st0" d="M178.15,114.45c0,1.45-0.33,2.61-0.99,3.5s-1.56,1.33-2.69,1.33c-1.15,0-2.06-0.37-2.72-1.1v4.58h-1.63v-13.17
		h1.49l0.08,1.05c0.66-0.82,1.58-1.23,2.76-1.23c1.14,0,2.05,0.43,2.71,1.29s1,2.06,1,3.59V114.45z M176.53,114.27
		c0-1.07-0.23-1.92-0.69-2.54s-1.08-0.93-1.88-0.93c-0.98,0-1.72,0.44-2.21,1.31v4.54c0.49,0.87,1.23,1.3,2.23,1.3
		c0.78,0,1.4-0.31,1.86-0.93S176.53,115.49,176.53,114.27z"/>
	<path class="st0" d="M192.71,114.45c0,1.45-0.33,2.61-0.99,3.5s-1.56,1.33-2.69,1.33c-1.15,0-2.06-0.37-2.72-1.1v4.58h-1.63v-13.17
		h1.49l0.08,1.05c0.66-0.82,1.58-1.23,2.76-1.23c1.14,0,2.05,0.43,2.71,1.29s1,2.06,1,3.59V114.45z M191.08,114.27
		c0-1.07-0.23-1.92-0.69-2.54s-1.08-0.93-1.88-0.93c-0.98,0-1.72,0.44-2.21,1.31v4.54c0.49,0.87,1.23,1.3,2.23,1.3
		c0.78,0,1.4-0.31,1.86-0.93S191.08,115.49,191.08,114.27z"/>
	<path class="st0" d="M199.37,111.05c-0.25-0.04-0.51-0.06-0.8-0.06c-1.07,0-1.79,0.45-2.17,1.36v6.75h-1.63v-9.51h1.58l0.03,1.1
		c0.53-0.85,1.29-1.27,2.27-1.27c0.32,0,0.56,0.04,0.72,0.12V111.05z"/>
	<path class="st0" d="M200.26,114.26c0-0.93,0.18-1.77,0.55-2.51c0.37-0.74,0.88-1.32,1.53-1.72c0.65-0.4,1.4-0.61,2.24-0.61
		c1.29,0,2.34,0.45,3.14,1.34c0.8,0.9,1.2,2.09,1.2,3.58v0.11c0,0.93-0.18,1.76-0.53,2.49c-0.36,0.74-0.86,1.31-1.52,1.72
		c-0.66,0.41-1.42,0.62-2.27,0.62c-1.29,0-2.33-0.45-3.13-1.34c-0.8-0.9-1.2-2.08-1.2-3.56V114.26z M201.89,114.45
		c0,1.05,0.24,1.9,0.73,2.54s1.14,0.96,1.96,0.96c0.83,0,1.48-0.32,1.97-0.97c0.49-0.65,0.73-1.55,0.73-2.72
		c0-1.04-0.25-1.89-0.74-2.54c-0.5-0.65-1.15-0.97-1.97-0.97c-0.8,0-1.45,0.32-1.94,0.96S201.89,113.26,201.89,114.45z"/>
	<path class="st0" d="M213.16,107.29v2.3h1.78v1.26h-1.78v5.91c0,0.38,0.08,0.67,0.24,0.86s0.43,0.29,0.81,0.29
		c0.19,0,0.45-0.04,0.77-0.11v1.31c-0.43,0.12-0.84,0.17-1.25,0.17c-0.73,0-1.27-0.22-1.64-0.66s-0.55-1.06-0.55-1.87v-5.9h-1.73
		v-1.26h1.73v-2.3H213.16z"/>
	<path class="st0" d="M220.78,119.28c-1.29,0-2.34-0.42-3.15-1.27s-1.21-1.98-1.21-3.4v-0.3c0-0.94,0.18-1.79,0.54-2.53
		c0.36-0.74,0.86-1.32,1.51-1.74s1.35-0.63,2.11-0.63c1.24,0,2.2,0.41,2.88,1.22s1.03,1.98,1.03,3.5v0.68h-6.44
		c0.02,0.94,0.3,1.7,0.82,2.27c0.52,0.58,1.19,0.87,2,0.87c0.57,0,1.06-0.12,1.46-0.35s0.75-0.54,1.05-0.93l0.99,0.77
		C223.57,118.67,222.37,119.28,220.78,119.28z M220.58,110.75c-0.66,0-1.21,0.24-1.65,0.72s-0.72,1.15-0.83,2.01h4.76v-0.12
		c-0.05-0.83-0.27-1.47-0.67-1.92S221.26,110.75,220.58,110.75z"/>
	<path class="st0" d="M230.18,117.95c0.58,0,1.09-0.18,1.52-0.53s0.67-0.79,0.72-1.32h1.54c-0.03,0.54-0.22,1.06-0.56,1.56
		s-0.81,0.88-1.38,1.18s-1.19,0.44-1.83,0.44c-1.29,0-2.32-0.43-3.09-1.3c-0.76-0.86-1.15-2.05-1.15-3.55v-0.27
		c0-0.93,0.17-1.75,0.51-2.47s0.83-1.28,1.46-1.68s1.39-0.6,2.25-0.6c1.07,0,1.95,0.32,2.66,0.96c0.71,0.64,1.08,1.47,1.13,2.49
		h-1.54c-0.05-0.62-0.28-1.12-0.7-1.52c-0.42-0.4-0.94-0.59-1.55-0.59c-0.83,0-1.47,0.3-1.92,0.89s-0.68,1.45-0.68,2.58v0.31
		c0,1.1,0.23,1.94,0.68,2.53S229.35,117.95,230.18,117.95z"/>
	<path class="st0" d="M238,107.29v2.3h1.78v1.26H238v5.91c0,0.38,0.08,0.67,0.24,0.86s0.43,0.29,0.81,0.29
		c0.19,0,0.45-0.04,0.77-0.11v1.31c-0.43,0.12-0.84,0.17-1.25,0.17c-0.73,0-1.27-0.22-1.64-0.66s-0.55-1.06-0.55-1.87v-5.9h-1.73
		v-1.26h1.73v-2.3H238z"/>
	<path class="st0" d="M115.81,138.32l2.21-7.13h1.74l-3.82,10.98c-0.59,1.58-1.53,2.37-2.82,2.37l-0.31-0.03l-0.61-0.11v-1.32
		l0.44,0.04c0.55,0,0.98-0.11,1.29-0.33c0.31-0.22,0.56-0.63,0.76-1.22l0.36-0.97l-3.39-9.4h1.78L115.81,138.32z"/>
	<path class="st0" d="M120.79,135.86c0-0.93,0.18-1.77,0.55-2.51c0.37-0.74,0.88-1.32,1.53-1.72c0.65-0.4,1.4-0.61,2.24-0.61
		c1.29,0,2.34,0.45,3.14,1.34c0.8,0.9,1.2,2.09,1.2,3.58v0.11c0,0.93-0.18,1.76-0.53,2.49c-0.36,0.74-0.86,1.31-1.52,1.72
		c-0.66,0.41-1.42,0.62-2.27,0.62c-1.29,0-2.33-0.45-3.13-1.34c-0.8-0.9-1.2-2.08-1.2-3.56V135.86z M122.42,136.05
		c0,1.05,0.24,1.9,0.73,2.54s1.14,0.96,1.96,0.96c0.83,0,1.48-0.32,1.97-0.97c0.49-0.65,0.73-1.55,0.73-2.72
		c0-1.04-0.25-1.89-0.74-2.54c-0.5-0.65-1.15-0.97-1.97-0.97c-0.8,0-1.45,0.32-1.94,0.96S122.42,134.86,122.42,136.05z"/>
	<path class="st0" d="M137.35,139.76c-0.63,0.74-1.56,1.12-2.79,1.12c-1.01,0-1.79-0.29-2.32-0.88c-0.53-0.59-0.8-1.46-0.8-2.62
		v-6.19h1.63v6.14c0,1.44,0.59,2.16,1.76,2.16c1.24,0,2.07-0.46,2.48-1.39v-6.92h1.63v9.51h-1.55L137.35,139.76z"/>
	<path class="st0" d="M146.66,140.7v-8.25h-1.5v-1.26h1.5v-0.98c0-1.02,0.27-1.81,0.82-2.36s1.32-0.83,2.31-0.83
		c0.38,0,0.75,0.05,1.12,0.15l-0.09,1.31c-0.28-0.05-0.57-0.08-0.88-0.08c-0.53,0-0.93,0.15-1.22,0.46s-0.43,0.75-0.43,1.33v1h2.03
		v1.26h-2.03v8.25H146.66z"/>
	<path class="st0" d="M156.71,132.65c-0.25-0.04-0.51-0.06-0.8-0.06c-1.07,0-1.79,0.45-2.17,1.36v6.75h-1.63v-9.51h1.58l0.03,1.1
		c0.53-0.85,1.29-1.27,2.27-1.27c0.32,0,0.56,0.04,0.72,0.12V132.65z"/>
	<path class="st0" d="M157.6,135.86c0-0.93,0.18-1.77,0.55-2.51c0.37-0.74,0.88-1.32,1.53-1.72c0.65-0.4,1.4-0.61,2.24-0.61
		c1.29,0,2.34,0.45,3.14,1.34c0.8,0.9,1.2,2.09,1.2,3.58v0.11c0,0.93-0.18,1.76-0.53,2.49c-0.36,0.74-0.86,1.31-1.52,1.72
		c-0.66,0.41-1.42,0.62-2.27,0.62c-1.29,0-2.33-0.45-3.13-1.34c-0.8-0.9-1.2-2.08-1.2-3.56V135.86z M159.23,136.05
		c0,1.05,0.24,1.9,0.73,2.54s1.14,0.96,1.96,0.96c0.83,0,1.48-0.32,1.97-0.97c0.49-0.65,0.73-1.55,0.73-2.72
		c0-1.04-0.25-1.89-0.74-2.54c-0.5-0.65-1.15-0.97-1.97-0.97c-0.8,0-1.45,0.32-1.94,0.96S159.23,134.86,159.23,136.05z"/>
	<path class="st0" d="M169.82,131.19l0.04,1.05c0.7-0.82,1.64-1.23,2.82-1.23c1.33,0,2.24,0.51,2.72,1.53
		c0.32-0.46,0.73-0.83,1.24-1.11c0.51-0.28,1.11-0.42,1.8-0.42c2.09,0,3.15,1.1,3.18,3.31v6.37h-1.63v-6.28
		c0-0.68-0.16-1.19-0.47-1.53c-0.31-0.34-0.83-0.5-1.56-0.5c-0.6,0-1.1,0.18-1.5,0.54c-0.4,0.36-0.63,0.85-0.69,1.46v6.31h-1.63
		v-6.23c0-1.38-0.68-2.07-2.03-2.07c-1.07,0-1.8,0.45-2.19,1.36v6.94h-1.63v-9.51H169.82z"/>
	<path class="st0" d="M112.43,150.33c0-0.38,0.13-0.69,0.38-0.94c0.26-0.25,0.6-0.37,1.04-0.37c0.43,0,0.78,0.12,1.04,0.37
		s0.39,0.56,0.39,0.94c0,0.39-0.13,0.7-0.39,0.95s-0.6,0.37-1.03,0.37s-0.77-0.12-1.03-0.37
		C112.56,151.04,112.43,150.72,112.43,150.33z M115.13,162.3h-2.55v-9.51h2.55V162.3z"/>
	<path class="st0" d="M116.82,157.48c0-1.48,0.33-2.66,1-3.54c0.66-0.88,1.57-1.32,2.73-1.32c0.93,0,1.69,0.35,2.29,1.04v-4.85h2.55
		v13.5h-2.29l-0.12-1.01c-0.63,0.79-1.45,1.19-2.44,1.19c-1.12,0-2.02-0.44-2.69-1.32C117.16,160.27,116.82,159.05,116.82,157.48z
		 M119.36,157.67c0,0.89,0.16,1.58,0.47,2.05s0.76,0.71,1.35,0.71c0.79,0,1.34-0.33,1.66-1v-3.76c-0.32-0.66-0.86-1-1.64-1
		C119.98,154.68,119.36,155.68,119.36,157.67z"/>
	<path class="st0" d="M131.74,162.48c-1.39,0-2.53-0.43-3.41-1.28c-0.88-0.86-1.31-2-1.31-3.42v-0.25c0-0.96,0.18-1.81,0.55-2.56
		s0.89-1.33,1.57-1.74c0.68-0.41,1.45-0.61,2.32-0.61c1.3,0,2.33,0.41,3.07,1.23c0.75,0.82,1.12,1.98,1.12,3.49v1.04h-6.06
		c0.08,0.62,0.33,1.12,0.74,1.49c0.41,0.38,0.94,0.56,1.57,0.56c0.98,0,1.74-0.35,2.29-1.06l1.25,1.4c-0.38,0.54-0.9,0.96-1.55,1.26
		C133.25,162.33,132.53,162.48,131.74,162.48z M131.45,154.67c-0.5,0-0.91,0.17-1.23,0.51c-0.31,0.34-0.51,0.83-0.6,1.47h3.53v-0.2
		c-0.01-0.57-0.16-1-0.46-1.31C132.4,154.82,131.99,154.67,131.45,154.67z"/>
	<path class="st0" d="M139.43,152.79l0.08,1.1c0.68-0.85,1.59-1.27,2.73-1.27c1.01,0,1.76,0.3,2.25,0.89s0.74,1.48,0.76,2.65v6.14
		h-2.54v-6.08c0-0.54-0.12-0.93-0.35-1.17c-0.23-0.24-0.62-0.36-1.17-0.36c-0.71,0-1.25,0.3-1.61,0.91v6.71h-2.54v-9.51H139.43z"/>
	<path class="st0" d="M150.21,150.46v2.34h1.63v1.86h-1.63v4.75c0,0.35,0.07,0.6,0.2,0.76s0.39,0.23,0.77,0.23
		c0.28,0,0.53-0.02,0.75-0.06v1.92c-0.5,0.15-1.01,0.23-1.54,0.23c-1.78,0-2.69-0.9-2.72-2.7v-5.12h-1.39v-1.86h1.39v-2.34H150.21z"
		/>
	<path class="st0" d="M153.24,150.33c0-0.38,0.13-0.69,0.38-0.94c0.26-0.25,0.6-0.37,1.04-0.37c0.43,0,0.78,0.12,1.04,0.37
		s0.39,0.56,0.39,0.94c0,0.39-0.13,0.7-0.39,0.95s-0.6,0.37-1.03,0.37s-0.77-0.12-1.03-0.37
		C153.37,151.04,153.24,150.72,153.24,150.33z M155.93,162.3h-2.55v-9.51h2.55V162.3z"/>
	<path class="st0" d="M161.07,150.46v2.34h1.63v1.86h-1.63v4.75c0,0.35,0.07,0.6,0.2,0.76s0.39,0.23,0.77,0.23
		c0.28,0,0.53-0.02,0.75-0.06v1.92c-0.5,0.15-1.01,0.23-1.54,0.23c-1.78,0-2.69-0.9-2.72-2.7v-5.12h-1.39v-1.86h1.39v-2.34H161.07z"
		/>
	<path class="st0" d="M167.66,158.71l1.76-5.92h2.72l-3.82,10.99l-0.21,0.5c-0.57,1.24-1.51,1.86-2.81,1.86
		c-0.37,0-0.74-0.06-1.12-0.17v-1.92l0.39,0.01c0.48,0,0.84-0.07,1.08-0.22c0.24-0.15,0.42-0.39,0.56-0.73l0.3-0.78l-3.33-9.54h2.73
		L167.66,158.71z"/>
	<path class="st0" d="M180.67,150.46v2.34h1.63v1.86h-1.63v4.75c0,0.35,0.07,0.6,0.2,0.76s0.39,0.23,0.77,0.23
		c0.28,0,0.53-0.02,0.75-0.06v1.92c-0.5,0.15-1.01,0.23-1.54,0.23c-1.78,0-2.69-0.9-2.72-2.7v-5.12h-1.39v-1.86h1.39v-2.34H180.67z"
		/>
	<path class="st0" d="M186.19,153.83c0.67-0.81,1.52-1.21,2.54-1.21c2.06,0,3.11,1.2,3.14,3.59v6.09h-2.54v-6.02
		c0-0.54-0.12-0.95-0.35-1.21s-0.62-0.39-1.17-0.39c-0.74,0-1.28,0.29-1.62,0.86v6.76h-2.54v-13.5h2.54V153.83z"/>
	<path class="st0" d="M198.16,162.48c-1.39,0-2.53-0.43-3.41-1.28c-0.88-0.86-1.31-2-1.31-3.42v-0.25c0-0.96,0.18-1.81,0.55-2.56
		s0.89-1.33,1.57-1.74c0.68-0.41,1.45-0.61,2.32-0.61c1.3,0,2.33,0.41,3.07,1.23c0.75,0.82,1.12,1.98,1.12,3.49v1.04h-6.06
		c0.08,0.62,0.33,1.12,0.74,1.49c0.41,0.38,0.94,0.56,1.57,0.56c0.98,0,1.74-0.35,2.29-1.06l1.25,1.4c-0.38,0.54-0.9,0.96-1.55,1.26
		C199.67,162.33,198.95,162.48,198.16,162.48z M197.87,154.67c-0.5,0-0.91,0.17-1.23,0.51c-0.31,0.34-0.51,0.83-0.6,1.47h3.53v-0.2
		c-0.01-0.57-0.16-1-0.46-1.31C198.82,154.82,198.41,154.67,197.87,154.67z"/>
	<path class="st0" d="M204.2,162.3v-7.65h-1.42v-1.86h1.42v-0.81c0-1.07,0.31-1.89,0.92-2.48c0.61-0.59,1.47-0.88,2.57-0.88
		c0.35,0,0.78,0.06,1.29,0.18l-0.03,1.97c-0.21-0.05-0.47-0.08-0.77-0.08c-0.96,0-1.43,0.45-1.43,1.34v0.76h1.89v1.86h-1.89v7.65
		H204.2z"/>
	<path class="st0" d="M213,150.46v2.34h1.63v1.86H213v4.75c0,0.35,0.07,0.6,0.2,0.76s0.39,0.23,0.77,0.23
		c0.28,0,0.53-0.02,0.75-0.06v1.92c-0.5,0.15-1.01,0.23-1.54,0.23c-1.78,0-2.69-0.9-2.72-2.7v-5.12h-1.39v-1.86h1.39v-2.34H213z"/>
	<path class="st0" d="M216.33,161.45c0-0.28,0.08-0.52,0.25-0.7c0.17-0.19,0.42-0.28,0.75-0.28s0.59,0.09,0.76,0.28
		s0.26,0.42,0.26,0.7c0,0.27-0.09,0.5-0.26,0.68s-0.43,0.27-0.76,0.27s-0.58-0.09-0.75-0.27
		C216.42,161.95,216.33,161.72,216.33,161.45z"/>
</g>
<g>
	<path class="st0" d="M25.47,231.14c0-0.3-0.11-0.55-0.31-0.76c-0.21-0.21-0.56-0.39-1.06-0.56c-0.69-0.21-1.2-0.49-1.52-0.83
		c-0.32-0.34-0.48-0.77-0.48-1.3c0-0.53,0.16-0.97,0.47-1.31c0.31-0.34,0.74-0.54,1.28-0.61v-1.07h0.73v1.07
		c0.55,0.08,0.97,0.3,1.28,0.69c0.3,0.38,0.46,0.91,0.46,1.58h-0.9c0-0.46-0.11-0.83-0.33-1.1c-0.22-0.27-0.51-0.41-0.88-0.41
		c-0.39,0-0.68,0.1-0.89,0.3S23,227.33,23,227.69c0,0.33,0.11,0.6,0.33,0.79c0.22,0.2,0.57,0.38,1.07,0.54
		c0.5,0.16,0.88,0.34,1.16,0.53c0.28,0.19,0.48,0.42,0.62,0.68c0.13,0.26,0.2,0.56,0.2,0.9c0,0.55-0.17,0.99-0.5,1.33
		c-0.33,0.33-0.79,0.53-1.39,0.6v0.93h-0.72v-0.93c-0.61-0.06-1.08-0.27-1.42-0.65c-0.34-0.38-0.52-0.89-0.52-1.53h0.9
		c0,0.45,0.12,0.8,0.36,1.04s0.57,0.37,1.01,0.37c0.43,0,0.76-0.1,1.01-0.31S25.47,231.5,25.47,231.14z"/>
	<path class="st0" d="M30.46,232.98h-0.91v-6.02l-1.82,0.67v-0.82l2.59-0.97h0.14V232.98z"/>
	<path class="st0" d="M36.9,226.41v1.28h0.99v0.7H36.9v3.28c0,0.21,0.04,0.37,0.13,0.48c0.09,0.11,0.24,0.16,0.45,0.16
		c0.1,0,0.25-0.02,0.43-0.06v0.73c-0.24,0.06-0.47,0.1-0.69,0.1c-0.4,0-0.71-0.12-0.91-0.37S36,232.12,36,231.67v-3.28h-0.96v-0.7
		H36v-1.28H36.9z"/>
	<path class="st0" d="M41.5,228.5c-0.14-0.02-0.29-0.03-0.44-0.03c-0.59,0-0.99,0.25-1.21,0.76v3.75h-0.9v-5.28h0.88l0.01,0.61
		c0.3-0.47,0.72-0.71,1.26-0.71c0.18,0,0.31,0.02,0.4,0.07V228.5z"/>
	<path class="st0" d="M42.33,226.29c0-0.15,0.04-0.27,0.13-0.37c0.09-0.1,0.22-0.15,0.4-0.15s0.31,0.05,0.4,0.15
		s0.14,0.22,0.14,0.37s-0.05,0.27-0.14,0.37s-0.22,0.15-0.4,0.15s-0.31-0.05-0.4-0.15C42.38,226.56,42.33,226.44,42.33,226.29z
		 M43.31,232.98h-0.9v-5.28h0.9V232.98z"/>
	<path class="st0" d="M48.02,232.98c-0.05-0.1-0.09-0.29-0.13-0.56c-0.42,0.44-0.92,0.65-1.5,0.65c-0.52,0-0.95-0.15-1.28-0.44
		c-0.33-0.29-0.5-0.67-0.5-1.12c0-0.55,0.21-0.98,0.63-1.28c0.42-0.3,1.01-0.46,1.76-0.46h0.88v-0.42c0-0.32-0.09-0.57-0.28-0.75
		c-0.19-0.19-0.47-0.28-0.83-0.28c-0.32,0-0.59,0.08-0.81,0.24s-0.33,0.36-0.33,0.59h-0.91c0-0.26,0.09-0.52,0.28-0.76
		c0.19-0.25,0.44-0.44,0.76-0.58c0.32-0.14,0.67-0.21,1.06-0.21c0.61,0,1.09,0.15,1.43,0.46c0.34,0.3,0.52,0.72,0.54,1.26v2.43
		c0,0.49,0.06,0.87,0.19,1.16v0.08H48.02z M46.52,232.29c0.28,0,0.55-0.07,0.81-0.22s0.44-0.34,0.55-0.57v-1.08h-0.71
		c-1.11,0-1.66,0.32-1.66,0.97c0,0.28,0.09,0.5,0.28,0.66S46.22,232.29,46.52,232.29z"/>
	<path class="st0" d="M51.17,232.98h-0.9v-7.5h0.9V232.98z"/>
	<path class="st0" d="M55.54,232.98v-4.58h-0.83v-0.7h0.83v-0.54c0-0.57,0.15-1,0.45-1.31s0.73-0.46,1.28-0.46
		c0.21,0,0.42,0.03,0.62,0.08l-0.05,0.73c-0.15-0.03-0.32-0.04-0.49-0.04c-0.29,0-0.52,0.09-0.68,0.26
		c-0.16,0.17-0.24,0.42-0.24,0.74v0.56h1.13v0.7h-1.13v4.58H55.54z"/>
	<path class="st0" d="M58.33,230.29c0-0.52,0.1-0.98,0.31-1.4c0.2-0.41,0.49-0.73,0.85-0.96c0.36-0.22,0.78-0.34,1.24-0.34
		c0.72,0,1.3,0.25,1.75,0.75c0.44,0.5,0.67,1.16,0.67,1.99v0.06c0,0.51-0.1,0.98-0.29,1.38c-0.2,0.41-0.48,0.73-0.85,0.96
		c-0.37,0.23-0.79,0.34-1.26,0.34c-0.72,0-1.3-0.25-1.74-0.75c-0.45-0.5-0.67-1.16-0.67-1.98V230.29z M59.24,230.39
		c0,0.59,0.14,1.06,0.41,1.41c0.27,0.35,0.64,0.53,1.09,0.53c0.46,0,0.82-0.18,1.09-0.54c0.27-0.36,0.41-0.86,0.41-1.51
		c0-0.58-0.14-1.05-0.41-1.41c-0.27-0.36-0.64-0.54-1.1-0.54c-0.45,0-0.81,0.18-1.08,0.53S59.24,229.73,59.24,230.39z"/>
	<path class="st0" d="M66.82,228.5c-0.14-0.02-0.29-0.03-0.44-0.03c-0.59,0-0.99,0.25-1.21,0.76v3.75h-0.9v-5.28h0.88l0.01,0.61
		c0.3-0.47,0.72-0.71,1.26-0.71c0.18,0,0.31,0.02,0.4,0.07V228.5z"/>
	<path class="st0" d="M71.36,226.41v1.28h0.99v0.7h-0.99v3.28c0,0.21,0.04,0.37,0.13,0.48c0.09,0.11,0.24,0.16,0.45,0.16
		c0.1,0,0.25-0.02,0.43-0.06v0.73c-0.24,0.06-0.47,0.1-0.69,0.1c-0.4,0-0.71-0.12-0.91-0.37s-0.31-0.59-0.31-1.04v-3.28h-0.96v-0.7
		h0.96v-1.28H71.36z"/>
	<path class="st0" d="M74.3,228.33c0.4-0.49,0.92-0.74,1.56-0.74c1.12,0,1.68,0.63,1.69,1.89v3.49h-0.9v-3.5
		c0-0.38-0.09-0.66-0.26-0.84c-0.17-0.18-0.44-0.27-0.8-0.27c-0.29,0-0.55,0.08-0.77,0.23s-0.39,0.36-0.52,0.62v3.76h-0.9v-7.5h0.9
		V228.33z"/>
	<path class="st0" d="M81.1,233.07c-0.72,0-1.3-0.24-1.75-0.71c-0.45-0.47-0.67-1.1-0.67-1.89v-0.17c0-0.52,0.1-0.99,0.3-1.4
		c0.2-0.41,0.48-0.73,0.84-0.97c0.36-0.23,0.75-0.35,1.17-0.35c0.69,0,1.22,0.23,1.6,0.68s0.57,1.1,0.57,1.94v0.38h-3.58
		c0.01,0.52,0.17,0.94,0.46,1.26c0.29,0.32,0.66,0.48,1.11,0.48c0.32,0,0.59-0.07,0.81-0.2s0.42-0.3,0.58-0.52l0.55,0.43
		C82.65,232.73,81.98,233.07,81.1,233.07z M80.98,228.34c-0.36,0-0.67,0.13-0.92,0.4c-0.25,0.26-0.4,0.64-0.46,1.12h2.65v-0.07
		c-0.03-0.46-0.15-0.81-0.37-1.07C81.66,228.46,81.36,228.34,80.98,228.34z"/>
	<path class="st0" d="M87.12,232.98v-4.58h-0.83v-0.7h0.83v-0.54c0-0.57,0.15-1,0.45-1.31s0.73-0.46,1.28-0.46
		c0.21,0,0.42,0.03,0.62,0.08l-0.05,0.73c-0.15-0.03-0.32-0.04-0.49-0.04c-0.29,0-0.52,0.09-0.68,0.26
		c-0.16,0.17-0.24,0.42-0.24,0.74v0.56h1.13v0.7h-1.13v4.58H87.12z"/>
	<path class="st0" d="M90.15,226.29c0-0.15,0.04-0.27,0.13-0.37c0.09-0.1,0.22-0.15,0.4-0.15s0.31,0.05,0.4,0.15
		s0.14,0.22,0.14,0.37s-0.05,0.27-0.14,0.37s-0.22,0.15-0.4,0.15s-0.31-0.05-0.4-0.15C90.2,226.56,90.15,226.44,90.15,226.29z
		 M91.13,232.98h-0.9v-5.28h0.9V232.98z"/>
	<path class="st0" d="M95.13,228.5c-0.14-0.02-0.29-0.03-0.44-0.03c-0.59,0-0.99,0.25-1.21,0.76v3.75h-0.9v-5.28h0.88l0.01,0.61
		c0.3-0.47,0.72-0.71,1.26-0.71c0.18,0,0.31,0.02,0.4,0.07V228.5z"/>
	<path class="st0" d="M99.04,231.57c0-0.24-0.09-0.43-0.28-0.57c-0.18-0.13-0.5-0.25-0.96-0.35c-0.46-0.1-0.82-0.21-1.09-0.35
		c-0.27-0.14-0.47-0.3-0.6-0.49c-0.13-0.19-0.19-0.41-0.19-0.67c0-0.43,0.18-0.8,0.55-1.1c0.37-0.3,0.83-0.45,1.4-0.45
		c0.6,0,1.08,0.15,1.46,0.46c0.37,0.31,0.56,0.71,0.56,1.19h-0.91c0-0.25-0.1-0.46-0.32-0.64c-0.21-0.18-0.47-0.27-0.79-0.27
		c-0.33,0-0.59,0.07-0.77,0.21s-0.28,0.33-0.28,0.56c0,0.22,0.09,0.38,0.26,0.49s0.48,0.22,0.94,0.32c0.45,0.1,0.82,0.22,1.1,0.36
		s0.49,0.31,0.62,0.5c0.13,0.2,0.2,0.44,0.2,0.72c0,0.47-0.19,0.85-0.57,1.13c-0.38,0.29-0.87,0.43-1.47,0.43
		c-0.42,0-0.8-0.08-1.12-0.22s-0.58-0.36-0.76-0.63c-0.18-0.27-0.28-0.56-0.28-0.87h0.9c0.02,0.3,0.14,0.54,0.36,0.72
		c0.23,0.18,0.53,0.27,0.9,0.27c0.34,0,0.62-0.07,0.82-0.21C98.93,231.99,99.04,231.81,99.04,231.57z"/>
	<path class="st0" d="M102.34,226.41v1.28h0.99v0.7h-0.99v3.28c0,0.21,0.04,0.37,0.13,0.48c0.09,0.11,0.24,0.16,0.45,0.16
		c0.1,0,0.25-0.02,0.43-0.06v0.73c-0.24,0.06-0.47,0.1-0.69,0.1c-0.4,0-0.71-0.12-0.91-0.37s-0.31-0.59-0.31-1.04v-3.28h-0.96v-0.7
		h0.96v-1.28H102.34z"/>
	<path class="st0" d="M110.09,232.98h-1.41v-5.44l-1.68,0.52v-1.15l2.94-1.05h0.15V232.98z"/>
	<path class="st0" d="M116.57,230.3h0.81v1.14h-0.81v1.54h-1.41v-1.54h-2.92l-0.06-0.89l2.96-4.68h1.43V230.3z M113.59,230.3h1.57
		v-2.51l-0.09,0.16L113.59,230.3z"/>
	<path class="st0" d="M120.46,230.29c0-0.82,0.18-1.48,0.55-1.97c0.37-0.49,0.87-0.73,1.52-0.73c0.51,0,0.94,0.19,1.27,0.58v-2.7
		h1.42v7.5h-1.27l-0.07-0.56c-0.35,0.44-0.8,0.66-1.36,0.66c-0.62,0-1.12-0.25-1.5-0.73C120.65,231.85,120.46,231.17,120.46,230.29z
		 M121.87,230.4c0,0.5,0.09,0.88,0.26,1.14c0.17,0.26,0.42,0.4,0.75,0.4c0.44,0,0.74-0.18,0.92-0.55v-2.09
		c-0.18-0.37-0.48-0.55-0.91-0.55C122.21,228.74,121.87,229.29,121.87,230.4z"/>
	<path class="st0" d="M129.38,232.98c-0.07-0.13-0.11-0.29-0.14-0.47c-0.34,0.38-0.79,0.57-1.33,0.57c-0.52,0-0.95-0.15-1.29-0.45
		c-0.34-0.3-0.51-0.68-0.51-1.13c0-0.56,0.21-0.99,0.62-1.29c0.41-0.3,1.01-0.45,1.8-0.45h0.65v-0.3c0-0.24-0.06-0.44-0.19-0.59
		c-0.12-0.15-0.32-0.22-0.59-0.22c-0.24,0-0.42,0.06-0.56,0.17c-0.13,0.11-0.2,0.27-0.2,0.47h-1.41c0-0.31,0.09-0.59,0.28-0.85
		s0.46-0.46,0.8-0.61c0.34-0.15,0.73-0.22,1.16-0.22c0.65,0,1.17,0.16,1.55,0.49c0.38,0.33,0.57,0.79,0.57,1.38v2.29
		c0,0.5,0.07,0.88,0.21,1.14v0.08H129.38z M128.21,231.99c0.21,0,0.4-0.05,0.58-0.14c0.18-0.09,0.31-0.22,0.39-0.37v-0.91h-0.53
		c-0.71,0-1.08,0.24-1.13,0.73l0,0.08c0,0.18,0.06,0.32,0.19,0.43S128,231.99,128.21,231.99z"/>
	<path class="st0" d="M133.65,230.98l0.98-3.29h1.51l-2.12,6.1l-0.12,0.28c-0.32,0.69-0.84,1.04-1.56,1.04
		c-0.21,0-0.41-0.03-0.62-0.09v-1.07l0.21,0c0.27,0,0.47-0.04,0.6-0.12c0.13-0.08,0.24-0.22,0.31-0.41l0.17-0.43l-1.85-5.3h1.52
		L133.65,230.98z"/>
	<path class="st0" d="M139.56,231.52c0-0.17-0.08-0.31-0.26-0.41c-0.17-0.1-0.44-0.19-0.82-0.27c-1.26-0.26-1.88-0.8-1.88-1.6
		c0-0.47,0.19-0.86,0.58-1.17c0.39-0.31,0.9-0.47,1.53-0.47c0.67,0,1.21,0.16,1.61,0.47c0.4,0.32,0.6,0.73,0.6,1.23h-1.41
		c0-0.2-0.07-0.37-0.2-0.5c-0.13-0.13-0.33-0.2-0.61-0.2c-0.24,0-0.42,0.05-0.55,0.16s-0.2,0.24-0.2,0.41
		c0,0.16,0.07,0.28,0.22,0.38c0.15,0.1,0.4,0.18,0.75,0.25c0.35,0.07,0.65,0.15,0.89,0.24c0.75,0.27,1.12,0.75,1.12,1.42
		c0,0.48-0.21,0.87-0.62,1.17c-0.41,0.3-0.95,0.45-1.6,0.45c-0.44,0-0.84-0.08-1.18-0.24c-0.34-0.16-0.61-0.38-0.81-0.65
		c-0.2-0.27-0.29-0.57-0.29-0.89h1.34c0.01,0.25,0.11,0.44,0.28,0.58s0.4,0.2,0.69,0.2c0.27,0,0.47-0.05,0.61-0.15
		C139.49,231.82,139.56,231.68,139.56,231.52z"/>
	<path class="st0" d="M141.95,234.39l-0.51-0.35c0.31-0.43,0.47-0.87,0.48-1.32v-0.82h0.88v0.71c0,0.33-0.08,0.66-0.24,0.99
		C142.4,233.93,142.2,234.19,141.95,234.39z"/>
	<path class="st0" d="M150.88,230.39c0,0.8-0.18,1.45-0.55,1.94s-0.87,0.74-1.49,0.74c-0.64,0-1.15-0.2-1.51-0.61v2.54h-0.9v-7.31
		h0.83l0.04,0.59c0.37-0.46,0.88-0.68,1.53-0.68c0.63,0,1.14,0.24,1.51,0.72c0.37,0.48,0.55,1.14,0.55,2V230.39z M149.98,230.29
		c0-0.6-0.13-1.07-0.38-1.41s-0.6-0.52-1.04-0.52c-0.55,0-0.96,0.24-1.23,0.73v2.52c0.27,0.48,0.68,0.72,1.24,0.72
		c0.43,0,0.78-0.17,1.03-0.51C149.85,231.48,149.98,230.97,149.98,230.29z"/>
	<path class="st0" d="M153.01,232.98h-0.9v-7.5h0.9V232.98z"/>
	<path class="st0" d="M157.72,232.98c-0.05-0.1-0.09-0.29-0.13-0.56c-0.42,0.44-0.92,0.65-1.5,0.65c-0.52,0-0.95-0.15-1.28-0.44
		c-0.33-0.29-0.5-0.67-0.5-1.12c0-0.55,0.21-0.98,0.63-1.28c0.42-0.3,1.01-0.46,1.76-0.46h0.88v-0.42c0-0.32-0.09-0.57-0.28-0.75
		c-0.19-0.19-0.47-0.28-0.83-0.28c-0.32,0-0.59,0.08-0.81,0.24s-0.33,0.36-0.33,0.59h-0.91c0-0.26,0.09-0.52,0.28-0.76
		c0.19-0.25,0.44-0.44,0.76-0.58c0.32-0.14,0.67-0.21,1.06-0.21c0.61,0,1.09,0.15,1.43,0.46c0.34,0.3,0.52,0.72,0.54,1.26v2.43
		c0,0.49,0.06,0.87,0.19,1.16v0.08H157.72z M156.22,232.29c0.28,0,0.55-0.07,0.81-0.22s0.44-0.34,0.55-0.57v-1.08h-0.71
		c-1.11,0-1.66,0.32-1.66,0.97c0,0.28,0.09,0.5,0.28,0.66S155.92,232.29,156.22,232.29z"/>
	<path class="st0" d="M160.75,227.69l0.03,0.66c0.4-0.51,0.93-0.76,1.58-0.76c1.12,0,1.68,0.63,1.69,1.89v3.49h-0.9v-3.5
		c0-0.38-0.09-0.66-0.26-0.84c-0.17-0.18-0.44-0.27-0.8-0.27c-0.29,0-0.55,0.08-0.77,0.23s-0.39,0.36-0.52,0.62v3.76h-0.9v-5.28
		H160.75z"/>
	<path class="st0" d="M168.49,231.57c0-0.24-0.09-0.43-0.28-0.57c-0.18-0.13-0.5-0.25-0.96-0.35c-0.46-0.1-0.82-0.21-1.09-0.35
		c-0.27-0.14-0.47-0.3-0.6-0.49c-0.13-0.19-0.19-0.41-0.19-0.67c0-0.43,0.18-0.8,0.55-1.1c0.37-0.3,0.83-0.45,1.4-0.45
		c0.6,0,1.08,0.15,1.46,0.46c0.37,0.31,0.56,0.71,0.56,1.19h-0.91c0-0.25-0.1-0.46-0.32-0.64c-0.21-0.18-0.47-0.27-0.79-0.27
		c-0.33,0-0.59,0.07-0.77,0.21s-0.28,0.33-0.28,0.56c0,0.22,0.09,0.38,0.26,0.49s0.48,0.22,0.94,0.32c0.45,0.1,0.82,0.22,1.1,0.36
		s0.49,0.31,0.62,0.5c0.13,0.2,0.2,0.44,0.2,0.72c0,0.47-0.19,0.85-0.57,1.13c-0.38,0.29-0.87,0.43-1.47,0.43
		c-0.42,0-0.8-0.08-1.12-0.22s-0.58-0.36-0.76-0.63c-0.18-0.27-0.28-0.56-0.28-0.87h0.9c0.02,0.3,0.14,0.54,0.36,0.72
		c0.23,0.18,0.53,0.27,0.9,0.27c0.34,0,0.62-0.07,0.82-0.21C168.39,231.99,168.49,231.81,168.49,231.57z"/>
	<path class="st0" d="M176.12,231.57c0-0.24-0.09-0.43-0.28-0.57c-0.18-0.13-0.5-0.25-0.96-0.35c-0.46-0.1-0.82-0.21-1.09-0.35
		c-0.27-0.14-0.47-0.3-0.6-0.49c-0.13-0.19-0.19-0.41-0.19-0.67c0-0.43,0.18-0.8,0.55-1.1c0.37-0.3,0.83-0.45,1.4-0.45
		c0.6,0,1.08,0.15,1.46,0.46c0.37,0.31,0.56,0.71,0.56,1.19h-0.91c0-0.25-0.1-0.46-0.32-0.64c-0.21-0.18-0.47-0.27-0.79-0.27
		c-0.33,0-0.59,0.07-0.77,0.21s-0.28,0.33-0.28,0.56c0,0.22,0.09,0.38,0.26,0.49s0.48,0.22,0.94,0.32c0.45,0.1,0.82,0.22,1.1,0.36
		s0.49,0.31,0.62,0.5c0.13,0.2,0.2,0.44,0.2,0.72c0,0.47-0.19,0.85-0.57,1.13c-0.38,0.29-0.87,0.43-1.47,0.43
		c-0.42,0-0.8-0.08-1.12-0.22s-0.58-0.36-0.76-0.63c-0.18-0.27-0.28-0.56-0.28-0.87h0.9c0.02,0.3,0.14,0.54,0.36,0.72
		c0.23,0.18,0.53,0.27,0.9,0.27c0.34,0,0.62-0.07,0.82-0.21C176.02,231.99,176.12,231.81,176.12,231.57z"/>
	<path class="st0" d="M179.43,226.41v1.28h0.99v0.7h-0.99v3.28c0,0.21,0.04,0.37,0.13,0.48c0.09,0.11,0.24,0.16,0.45,0.16
		c0.1,0,0.25-0.02,0.43-0.06v0.73c-0.24,0.06-0.47,0.1-0.69,0.1c-0.4,0-0.71-0.12-0.91-0.37s-0.31-0.59-0.31-1.04v-3.28h-0.96v-0.7
		h0.96v-1.28H179.43z"/>
	<path class="st0" d="M184.73,232.98c-0.05-0.1-0.09-0.29-0.13-0.56c-0.42,0.44-0.92,0.65-1.5,0.65c-0.52,0-0.95-0.15-1.28-0.44
		c-0.33-0.29-0.5-0.67-0.5-1.12c0-0.55,0.21-0.98,0.63-1.28c0.42-0.3,1.01-0.46,1.76-0.46h0.88v-0.42c0-0.32-0.09-0.57-0.28-0.75
		c-0.19-0.19-0.47-0.28-0.83-0.28c-0.32,0-0.59,0.08-0.81,0.24s-0.33,0.36-0.33,0.59h-0.91c0-0.26,0.09-0.52,0.28-0.76
		c0.19-0.25,0.44-0.44,0.76-0.58c0.32-0.14,0.67-0.21,1.06-0.21c0.61,0,1.09,0.15,1.43,0.46c0.34,0.3,0.52,0.72,0.54,1.26v2.43
		c0,0.49,0.06,0.87,0.19,1.16v0.08H184.73z M183.23,232.29c0.28,0,0.55-0.07,0.81-0.22s0.44-0.34,0.55-0.57v-1.08h-0.71
		c-1.11,0-1.66,0.32-1.66,0.97c0,0.28,0.09,0.5,0.28,0.66S182.93,232.29,183.23,232.29z"/>
	<path class="st0" d="M189.46,228.5c-0.14-0.02-0.29-0.03-0.44-0.03c-0.59,0-0.99,0.25-1.21,0.76v3.75h-0.9v-5.28h0.88l0.01,0.61
		c0.3-0.47,0.72-0.71,1.26-0.71c0.18,0,0.31,0.02,0.4,0.07V228.5z"/>
	<path class="st0" d="M191.76,226.41v1.28h0.99v0.7h-0.99v3.28c0,0.21,0.04,0.37,0.13,0.48c0.09,0.11,0.24,0.16,0.45,0.16
		c0.1,0,0.25-0.02,0.43-0.06v0.73c-0.24,0.06-0.47,0.1-0.69,0.1c-0.4,0-0.71-0.12-0.91-0.37s-0.31-0.59-0.31-1.04v-3.28h-0.96v-0.7
		h0.96v-1.28H191.76z"/>
	<path class="st0" d="M193.81,226.29c0-0.15,0.04-0.27,0.13-0.37c0.09-0.1,0.22-0.15,0.4-0.15s0.31,0.05,0.4,0.15
		s0.14,0.22,0.14,0.37s-0.05,0.27-0.14,0.37s-0.22,0.15-0.4,0.15s-0.31-0.05-0.4-0.15C193.85,226.56,193.81,226.44,193.81,226.29z
		 M194.78,232.98h-0.9v-5.28h0.9V232.98z"/>
	<path class="st0" d="M197.08,227.69l0.03,0.66c0.4-0.51,0.93-0.76,1.58-0.76c1.12,0,1.68,0.63,1.69,1.89v3.49h-0.9v-3.5
		c0-0.38-0.09-0.66-0.26-0.84c-0.17-0.18-0.44-0.27-0.8-0.27c-0.29,0-0.55,0.08-0.77,0.23s-0.39,0.36-0.52,0.62v3.76h-0.9v-5.28
		H197.08z"/>
	<path class="st0" d="M201.53,230.29c0-0.82,0.19-1.48,0.57-1.96c0.38-0.49,0.89-0.73,1.51-0.73c0.64,0,1.15,0.23,1.51,0.68
		l0.04-0.59h0.83v5.16c0,0.68-0.2,1.22-0.61,1.62c-0.41,0.39-0.95,0.59-1.63,0.59c-0.38,0-0.75-0.08-1.12-0.24s-0.64-0.39-0.83-0.67
		l0.47-0.54c0.39,0.48,0.86,0.72,1.42,0.72c0.44,0,0.78-0.12,1.03-0.37c0.25-0.25,0.37-0.6,0.37-1.04v-0.45
		c-0.36,0.42-0.85,0.62-1.48,0.62c-0.62,0-1.12-0.25-1.5-0.75C201.72,231.83,201.53,231.15,201.53,230.29z M202.44,230.39
		c0,0.6,0.12,1.06,0.37,1.4c0.24,0.34,0.59,0.51,1.03,0.51c0.57,0,0.99-0.26,1.25-0.78v-2.41c-0.28-0.5-0.69-0.76-1.25-0.76
		c-0.44,0-0.78,0.17-1.03,0.51S202.44,229.72,202.44,230.39z"/>
	<path class="st0" d="M213.09,232.98c-0.05-0.1-0.09-0.29-0.13-0.56c-0.42,0.44-0.92,0.65-1.5,0.65c-0.52,0-0.95-0.15-1.28-0.44
		c-0.33-0.29-0.5-0.67-0.5-1.12c0-0.55,0.21-0.98,0.63-1.28c0.42-0.3,1.01-0.46,1.76-0.46h0.88v-0.42c0-0.32-0.09-0.57-0.28-0.75
		c-0.19-0.19-0.47-0.28-0.83-0.28c-0.32,0-0.59,0.08-0.81,0.24s-0.33,0.36-0.33,0.59h-0.91c0-0.26,0.09-0.52,0.28-0.76
		c0.19-0.25,0.44-0.44,0.76-0.58c0.32-0.14,0.67-0.21,1.06-0.21c0.61,0,1.09,0.15,1.43,0.46c0.34,0.3,0.52,0.72,0.54,1.26v2.43
		c0,0.49,0.06,0.87,0.19,1.16v0.08H213.09z M211.59,232.29c0.28,0,0.55-0.07,0.81-0.22s0.44-0.34,0.55-0.57v-1.08h-0.71
		c-1.11,0-1.66,0.32-1.66,0.97c0,0.28,0.09,0.5,0.28,0.66S211.3,232.29,211.59,232.29z"/>
	<path class="st0" d="M216.5,226.41v1.28h0.99v0.7h-0.99v3.28c0,0.21,0.04,0.37,0.13,0.48c0.09,0.11,0.24,0.16,0.45,0.16
		c0.1,0,0.25-0.02,0.43-0.06v0.73c-0.24,0.06-0.47,0.1-0.69,0.1c-0.4,0-0.71-0.12-0.91-0.37s-0.31-0.59-0.31-1.04v-3.28h-0.96v-0.7
		h0.96v-1.28H216.5z"/>
	<path class="st0" d="M224.19,231.11c0-0.27-0.07-0.48-0.22-0.64c-0.15-0.16-0.4-0.3-0.75-0.44s-0.66-0.27-0.92-0.4
		c-0.26-0.13-0.48-0.28-0.66-0.46c-0.18-0.17-0.33-0.37-0.43-0.6c-0.1-0.23-0.15-0.51-0.15-0.83c0-0.55,0.18-1,0.53-1.35
		s0.82-0.56,1.4-0.62v-1.04h0.78v1.06c0.58,0.08,1.03,0.32,1.35,0.72c0.33,0.4,0.49,0.92,0.49,1.55h-1.41
		c0-0.39-0.08-0.68-0.24-0.88c-0.16-0.19-0.38-0.29-0.65-0.29c-0.27,0-0.47,0.08-0.62,0.23c-0.15,0.15-0.22,0.36-0.22,0.63
		c0,0.25,0.07,0.45,0.21,0.6s0.41,0.3,0.8,0.46c0.39,0.16,0.71,0.3,0.96,0.44c0.25,0.14,0.46,0.29,0.63,0.47
		c0.17,0.17,0.3,0.37,0.4,0.6c0.09,0.22,0.14,0.48,0.14,0.78c0,0.55-0.17,1-0.52,1.35s-0.82,0.55-1.43,0.61v0.97h-0.78v-0.97
		c-0.67-0.07-1.18-0.31-1.55-0.71c-0.37-0.4-0.55-0.94-0.55-1.6h1.41c0,0.39,0.09,0.68,0.28,0.89c0.18,0.21,0.45,0.31,0.79,0.31
		c0.29,0,0.51-0.08,0.68-0.23C224.1,231.57,224.19,231.36,224.19,231.11z"/>
	<path class="st0" d="M229.85,230.13c-0.37,0.36-0.8,0.54-1.29,0.54c-0.63,0-1.13-0.22-1.51-0.65c-0.38-0.43-0.57-1.01-0.57-1.75
		c0-0.47,0.1-0.89,0.3-1.28c0.2-0.39,0.49-0.69,0.85-0.91c0.36-0.22,0.77-0.32,1.23-0.32c0.47,0,0.89,0.12,1.25,0.35
		s0.65,0.57,0.85,1.01s0.3,0.94,0.31,1.51v0.52c0,1.18-0.29,2.12-0.88,2.79s-1.42,1.04-2.5,1.08l-0.35,0v-1.18l0.31,0
		C229.09,231.81,229.75,231.23,229.85,230.13z M228.91,229.6c0.23,0,0.42-0.06,0.59-0.18c0.17-0.12,0.29-0.26,0.37-0.42v-0.58
		c0-0.48-0.09-0.85-0.27-1.11s-0.43-0.4-0.73-0.4c-0.28,0-0.52,0.13-0.7,0.39c-0.18,0.26-0.27,0.58-0.27,0.97
		c0,0.39,0.09,0.71,0.27,0.96C228.34,229.47,228.59,229.6,228.91,229.6z"/>
	<path class="st0" d="M232.42,232.28c0-0.22,0.08-0.41,0.23-0.55c0.15-0.14,0.34-0.21,0.57-0.21c0.23,0,0.42,0.07,0.57,0.21
		c0.15,0.14,0.23,0.32,0.23,0.55c0,0.22-0.08,0.4-0.22,0.54c-0.15,0.14-0.34,0.21-0.58,0.21c-0.23,0-0.42-0.07-0.57-0.21
		C232.5,232.68,232.42,232.5,232.42,232.28z"/>
	<path class="st0" d="M238.49,230.13c-0.37,0.36-0.8,0.54-1.29,0.54c-0.63,0-1.13-0.22-1.51-0.65c-0.38-0.43-0.57-1.01-0.57-1.75
		c0-0.47,0.1-0.89,0.3-1.28c0.2-0.39,0.49-0.69,0.85-0.91c0.36-0.22,0.77-0.32,1.23-0.32c0.47,0,0.89,0.12,1.25,0.35
		s0.65,0.57,0.85,1.01s0.3,0.94,0.31,1.51v0.52c0,1.18-0.29,2.12-0.88,2.79s-1.42,1.04-2.5,1.08l-0.35,0v-1.18l0.31,0
		C237.73,231.81,238.39,231.23,238.49,230.13z M237.55,229.6c0.23,0,0.42-0.06,0.59-0.18c0.17-0.12,0.29-0.26,0.37-0.42v-0.58
		c0-0.48-0.09-0.85-0.27-1.11s-0.43-0.4-0.73-0.4c-0.28,0-0.52,0.13-0.7,0.39c-0.18,0.26-0.27,0.58-0.27,0.97
		c0,0.39,0.09,0.71,0.27,0.96C236.98,229.47,237.23,229.6,237.55,229.6z"/>
	<path class="st0" d="M244.23,230.13c-0.37,0.36-0.8,0.54-1.29,0.54c-0.63,0-1.13-0.22-1.51-0.65c-0.38-0.43-0.57-1.01-0.57-1.75
		c0-0.47,0.1-0.89,0.3-1.28c0.2-0.39,0.49-0.69,0.85-0.91c0.36-0.22,0.77-0.32,1.23-0.32c0.47,0,0.89,0.12,1.25,0.35
		s0.65,0.57,0.85,1.01s0.3,0.94,0.31,1.51v0.52c0,1.18-0.29,2.12-0.88,2.79s-1.42,1.04-2.5,1.08l-0.35,0v-1.18l0.31,0
		C243.47,231.81,244.13,231.23,244.23,230.13z M243.29,229.6c0.23,0,0.42-0.06,0.59-0.18c0.17-0.12,0.29-0.26,0.37-0.42v-0.58
		c0-0.48-0.09-0.85-0.27-1.11s-0.43-0.4-0.73-0.4c-0.28,0-0.52,0.13-0.7,0.39c-0.18,0.26-0.27,0.58-0.27,0.97
		c0,0.39,0.09,0.71,0.27,0.96C242.72,229.47,242.97,229.6,243.29,229.6z"/>
	<path class="st0" d="M247.17,233.59h-1.05l2.62-7.72h1.05L247.17,233.59z"/>
	<path class="st0" d="M251.79,227.69l0.04,0.59c0.37-0.46,0.88-0.69,1.52-0.69c0.68,0,1.15,0.27,1.4,0.81
		c0.37-0.54,0.9-0.81,1.59-0.81c0.57,0,1,0.17,1.28,0.5c0.28,0.33,0.42,0.84,0.42,1.51v3.37h-1.42v-3.37c0-0.3-0.06-0.52-0.18-0.66
		c-0.12-0.14-0.32-0.21-0.62-0.21c-0.42,0-0.72,0.2-0.88,0.61l0,3.63h-1.41v-3.36c0-0.31-0.06-0.53-0.18-0.66s-0.33-0.21-0.62-0.21
		c-0.4,0-0.69,0.17-0.87,0.5v3.74h-1.41v-5.28H251.79z"/>
	<path class="st0" d="M258.9,230.29c0-0.52,0.1-0.99,0.3-1.4s0.49-0.73,0.87-0.95c0.38-0.22,0.82-0.34,1.32-0.34
		c0.71,0,1.29,0.22,1.75,0.65c0.45,0.44,0.7,1.03,0.75,1.78l0.01,0.36c0,0.81-0.23,1.46-0.68,1.95c-0.45,0.49-1.06,0.73-1.82,0.73
		s-1.37-0.24-1.82-0.73c-0.46-0.49-0.68-1.15-0.68-1.99V230.29z M260.31,230.39c0,0.5,0.09,0.89,0.28,1.15s0.46,0.4,0.81,0.4
		c0.34,0,0.61-0.13,0.8-0.39s0.29-0.68,0.29-1.26c0-0.49-0.1-0.87-0.29-1.14s-0.46-0.41-0.81-0.41c-0.34,0-0.61,0.13-0.8,0.4
		C260.41,229.41,260.31,229.82,260.31,230.39z"/>
	<path class="st0" d="M266.07,227.69l0.04,0.61c0.38-0.47,0.88-0.71,1.52-0.71c0.56,0,0.98,0.16,1.25,0.49s0.41,0.82,0.42,1.47v3.41
		h-1.41v-3.38c0-0.3-0.07-0.52-0.2-0.65c-0.13-0.13-0.35-0.2-0.65-0.2c-0.4,0-0.7,0.17-0.89,0.51v3.73h-1.41v-5.28H266.07z"/>
	<path class="st0" d="M272.06,226.39v1.3h0.9v1.04h-0.9v2.64c0,0.2,0.04,0.33,0.11,0.42s0.22,0.13,0.43,0.13
		c0.16,0,0.29-0.01,0.42-0.03v1.07c-0.28,0.08-0.56,0.13-0.85,0.13c-0.99,0-1.49-0.5-1.51-1.5v-2.85h-0.77v-1.04h0.77v-1.3H272.06z"
		/>
	<path class="st0" d="M275.13,228.27c0.37-0.45,0.84-0.67,1.41-0.67c1.15,0,1.73,0.67,1.74,2v3.38h-1.41v-3.34
		c0-0.3-0.07-0.53-0.2-0.67c-0.13-0.15-0.35-0.22-0.65-0.22c-0.41,0-0.71,0.16-0.9,0.48v3.75h-1.41v-7.5h1.41V228.27z"/>
</g>
</svg>
