<?xml version="1.0" encoding="utf-8"?>
<!-- Generator: Adobe Illustrator 24.2.3, SVG Export Plug-In . SVG Version: 6.00 Build 0)  -->
<svg version="1.1" id="Layer_1" xmlns="http://www.w3.org/2000/svg" xmlns:xlink="http://www.w3.org/1999/xlink" x="0px" y="0px"
	 viewBox="0 0 300 250" style="enable-background:new 0 0 300 250;" xml:space="preserve">
<style type="text/css">
	.st0{fill:#E82D8A;}
	.st1{fill:#FFFFFF;}
</style>
<path class="st0" d="M231.69,209.27H116.35c-8.98,0-16.26-7.28-16.26-16.26v0c0-8.98,7.28-16.26,16.26-16.26h115.34
	c8.98,0,16.26,7.28,16.26,16.26v0C247.96,201.99,240.67,209.27,231.69,209.27z"/>
<g>
	<path class="st1" d="M123.03,195.07c-0.1,1.06-0.49,1.89-1.18,2.49s-1.59,0.89-2.73,0.89c-0.79,0-1.49-0.19-2.1-0.56
		c-0.6-0.38-1.07-0.91-1.4-1.6c-0.33-0.69-0.5-1.5-0.51-2.41v-0.93c0-0.94,0.17-1.77,0.5-2.48c0.33-0.71,0.81-1.27,1.43-1.65
		c0.62-0.39,1.34-0.58,2.16-0.58c1.1,0,1.98,0.3,2.65,0.89s1.06,1.44,1.17,2.53h-1.72c-0.08-0.71-0.29-1.23-0.63-1.55
		c-0.33-0.32-0.83-0.48-1.47-0.48c-0.75,0-1.33,0.28-1.73,0.83c-0.4,0.55-0.61,1.36-0.62,2.42v0.88c0,1.08,0.19,1.9,0.58,2.46
		c0.38,0.57,0.95,0.85,1.69,0.85c0.68,0,1.19-0.15,1.53-0.46c0.34-0.3,0.56-0.81,0.65-1.52H123.03z"/>
	<path class="st1" d="M126.18,198.31h-1.66v-10.5h1.66V198.31z"/>
	<path class="st1" d="M127.99,189c0-0.25,0.08-0.47,0.24-0.64c0.16-0.17,0.39-0.25,0.69-0.25s0.53,0.08,0.7,0.25
		c0.16,0.17,0.25,0.38,0.25,0.64c0,0.25-0.08,0.46-0.25,0.63c-0.16,0.17-0.4,0.25-0.7,0.25s-0.53-0.08-0.69-0.25
		C128.07,189.45,127.99,189.25,127.99,189z M129.75,198.31h-1.66v-7.4h1.66V198.31z"/>
	<path class="st1" d="M134.6,197.12c0.42,0,0.76-0.12,1.03-0.36c0.27-0.24,0.42-0.54,0.44-0.9h1.57c-0.02,0.46-0.16,0.89-0.43,1.29
		c-0.27,0.4-0.63,0.71-1.09,0.95s-0.96,0.35-1.49,0.35c-1.03,0-1.85-0.33-2.46-1s-0.91-1.59-0.91-2.78v-0.17
		c0-1.12,0.3-2.03,0.9-2.7s1.42-1.02,2.46-1.02c0.88,0,1.6,0.26,2.15,0.77c0.55,0.51,0.84,1.19,0.87,2.02h-1.57
		c-0.02-0.42-0.16-0.77-0.43-1.05c-0.27-0.27-0.62-0.41-1.04-0.41c-0.54,0-0.95,0.2-1.24,0.58s-0.44,0.98-0.44,1.77v0.27
		c0,0.8,0.14,1.4,0.43,1.79C133.64,196.93,134.05,197.12,134.6,197.12z"/>
	<path class="st1" d="M141.29,195.14l-0.74,0.76v2.41h-1.66v-10.5h1.66v6.06l0.52-0.65l2.04-2.3h2l-2.75,3.08l3.04,4.31h-1.92
		L141.29,195.14z"/>
	<path class="st1" d="M151.77,189.12v1.8h1.31v1.23h-1.31v4.13c0,0.28,0.06,0.49,0.17,0.61c0.11,0.12,0.31,0.19,0.6,0.19
		c0.19,0,0.38-0.02,0.58-0.07v1.29c-0.38,0.11-0.74,0.16-1.09,0.16c-1.28,0-1.91-0.7-1.91-2.11v-4.19h-1.22v-1.23h1.22v-1.8H151.77z
		"/>
	<path class="st1" d="M153.82,194.55c0-0.72,0.14-1.38,0.43-1.96s0.69-1.03,1.21-1.34c0.52-0.31,1.12-0.47,1.79-0.47
		c1,0,1.81,0.32,2.43,0.96c0.62,0.64,0.96,1.5,1.01,2.56l0.01,0.39c0,0.73-0.14,1.38-0.42,1.96c-0.28,0.57-0.68,1.02-1.2,1.33
		c-0.52,0.31-1.12,0.47-1.81,0.47c-1.04,0-1.88-0.35-2.5-1.04c-0.63-0.7-0.94-1.62-0.94-2.78V194.55z M155.48,194.69
		c0,0.76,0.16,1.36,0.47,1.79s0.75,0.65,1.31,0.65s1-0.22,1.31-0.66c0.31-0.44,0.47-1.08,0.47-1.92c0-0.75-0.16-1.34-0.48-1.78
		c-0.32-0.44-0.76-0.66-1.31-0.66c-0.54,0-0.97,0.22-1.29,0.65S155.48,193.83,155.48,194.69z"/>
	<path class="st1" d="M167.36,198.31h-1.66v-10.5h1.66V198.31z"/>
	<path class="st1" d="M172.42,198.45c-1.05,0-1.91-0.33-2.56-0.99c-0.65-0.66-0.98-1.55-0.98-2.65v-0.21c0-0.74,0.14-1.4,0.43-1.98
		c0.29-0.58,0.69-1.03,1.2-1.36c0.51-0.32,1.09-0.49,1.72-0.49c1.01,0,1.79,0.32,2.33,0.96c0.55,0.64,0.82,1.55,0.82,2.73v0.67
		h-4.83c0.05,0.61,0.25,1.09,0.61,1.45c0.36,0.36,0.81,0.53,1.35,0.53c0.76,0,1.38-0.31,1.86-0.92l0.9,0.85
		c-0.3,0.44-0.69,0.79-1.19,1.03C173.59,198.33,173.04,198.45,172.42,198.45z M172.23,192.11c-0.46,0-0.82,0.16-1.1,0.48
		c-0.28,0.32-0.46,0.76-0.54,1.33h3.17v-0.12c-0.04-0.56-0.18-0.98-0.44-1.26C173.05,192.25,172.69,192.11,172.23,192.11z"/>
	<path class="st1" d="M181.1,198.31c-0.07-0.14-0.14-0.37-0.19-0.69c-0.53,0.55-1.18,0.83-1.94,0.83c-0.74,0-1.35-0.21-1.82-0.64
		s-0.7-0.95-0.7-1.57c0-0.79,0.29-1.39,0.88-1.81c0.58-0.42,1.42-0.63,2.51-0.63h1.02v-0.49c0-0.38-0.11-0.69-0.32-0.92
		c-0.21-0.23-0.54-0.35-0.98-0.35c-0.38,0-0.69,0.09-0.93,0.28c-0.24,0.19-0.36,0.43-0.36,0.72h-1.66c0-0.41,0.13-0.79,0.4-1.14
		c0.27-0.35,0.63-0.63,1.1-0.83c0.46-0.2,0.98-0.3,1.55-0.3c0.87,0,1.56,0.22,2.07,0.65c0.51,0.43,0.78,1.05,0.79,1.83v3.34
		c0,0.67,0.09,1.2,0.28,1.59v0.12H181.1z M179.27,197.12c0.33,0,0.64-0.08,0.93-0.24c0.29-0.16,0.51-0.37,0.65-0.64v-1.39h-0.9
		c-0.62,0-1.08,0.11-1.39,0.32c-0.31,0.21-0.46,0.52-0.46,0.91c0,0.32,0.11,0.57,0.32,0.76
		C178.63,197.02,178.92,197.12,179.27,197.12z"/>
	<path class="st1" d="M188.13,192.43c-0.22-0.04-0.44-0.05-0.68-0.05c-0.76,0-1.27,0.29-1.54,0.88v5.06h-1.66v-7.4h1.59l0.04,0.83
		c0.4-0.64,0.96-0.96,1.67-0.96c0.24,0,0.43,0.03,0.59,0.1L188.13,192.43z"/>
	<path class="st1" d="M190.72,190.92l0.05,0.85c0.55-0.66,1.26-0.99,2.15-0.99c1.54,0,2.32,0.88,2.35,2.65v4.89h-1.66v-4.79
		c0-0.47-0.1-0.82-0.3-1.04c-0.2-0.23-0.54-0.34-1-0.34c-0.67,0-1.17,0.3-1.5,0.91v5.26h-1.66v-7.4H190.72z"/>
	<path class="st1" d="M202.01,190.92l0.05,0.77c0.52-0.61,1.23-0.91,2.13-0.91c0.99,0,1.67,0.38,2.03,1.13
		c0.54-0.76,1.29-1.13,2.27-1.13c0.82,0,1.42,0.23,1.82,0.68c0.4,0.45,0.6,1.12,0.61,2v4.86h-1.66v-4.81c0-0.47-0.1-0.81-0.31-1.03
		s-0.54-0.33-1.02-0.33c-0.38,0-0.69,0.1-0.93,0.3c-0.24,0.2-0.41,0.47-0.5,0.8l0.01,5.07h-1.66v-4.87
		c-0.02-0.87-0.47-1.31-1.33-1.31c-0.67,0-1.14,0.27-1.42,0.81v5.36h-1.66v-7.4H202.01z"/>
	<path class="st1" d="M212.32,194.55c0-0.72,0.14-1.38,0.43-1.96s0.69-1.03,1.21-1.34c0.52-0.31,1.12-0.47,1.79-0.47
		c1,0,1.81,0.32,2.43,0.96c0.62,0.64,0.96,1.5,1.01,2.56l0.01,0.39c0,0.73-0.14,1.38-0.42,1.96c-0.28,0.57-0.68,1.02-1.2,1.33
		c-0.52,0.31-1.12,0.47-1.81,0.47c-1.04,0-1.88-0.35-2.5-1.04c-0.63-0.7-0.94-1.62-0.94-2.78V194.55z M213.98,194.69
		c0,0.76,0.16,1.36,0.47,1.79s0.75,0.65,1.31,0.65s1-0.22,1.31-0.66c0.31-0.44,0.47-1.08,0.47-1.92c0-0.75-0.16-1.34-0.48-1.78
		c-0.32-0.44-0.76-0.66-1.31-0.66c-0.54,0-0.97,0.22-1.29,0.65S213.98,193.83,213.98,194.69z"/>
	<path class="st1" d="M224.47,192.43c-0.22-0.04-0.44-0.05-0.68-0.05c-0.76,0-1.27,0.29-1.54,0.88v5.06h-1.66v-7.4h1.59l0.04,0.83
		c0.4-0.64,0.96-0.96,1.67-0.96c0.24,0,0.43,0.03,0.59,0.1L224.47,192.43z"/>
	<path class="st1" d="M228.78,198.45c-1.05,0-1.91-0.33-2.56-0.99c-0.65-0.66-0.98-1.55-0.98-2.65v-0.21c0-0.74,0.14-1.4,0.43-1.98
		c0.29-0.58,0.69-1.03,1.2-1.36c0.51-0.32,1.09-0.49,1.72-0.49c1.01,0,1.79,0.32,2.33,0.96c0.55,0.64,0.82,1.55,0.82,2.73v0.67
		h-4.83c0.05,0.61,0.25,1.09,0.61,1.45c0.36,0.36,0.81,0.53,1.35,0.53c0.76,0,1.38-0.31,1.86-0.92l0.9,0.85
		c-0.3,0.44-0.69,0.79-1.19,1.03C229.95,198.33,229.39,198.45,228.78,198.45z M228.58,192.11c-0.46,0-0.82,0.16-1.1,0.48
		c-0.28,0.32-0.46,0.76-0.54,1.33h3.17v-0.12c-0.04-0.56-0.18-0.98-0.44-1.26C229.4,192.25,229.04,192.11,228.58,192.11z"/>
</g>
</svg>
