<?xml version="1.0" encoding="utf-8"?>
<!-- Generator: Adobe Illustrator 24.2.3, SVG Export Plug-In . SVG Version: 6.00 Build 0)  -->
<svg version="1.1" id="Layer_1" xmlns="http://www.w3.org/2000/svg" xmlns:xlink="http://www.w3.org/1999/xlink" x="0px" y="0px"
	 viewBox="0 0 300 250" style="enable-background:new 0 0 300 250;" xml:space="preserve">
<style type="text/css">
	.st0{fill:#FFFFFF;}
</style>
<g>
	<path class="st0" d="M28.36,226.17l-1.47-0.44l0.22-0.74l1.47,0.55l-0.04-1.68h0.75l-0.05,1.7l1.45-0.54l0.22,0.74l-1.5,0.44
		l0.97,1.32L29.78,228l-0.91-1.41l-0.88,1.37l-0.61-0.45L28.36,226.17z"/>
	<path class="st0" d="M37.98,230.98h-4.66v-0.65l2.46-2.73c0.36-0.41,0.62-0.75,0.75-1.01c0.14-0.26,0.21-0.53,0.21-0.8
		c0-0.37-0.11-0.68-0.34-0.91s-0.52-0.36-0.9-0.36c-0.45,0-0.8,0.13-1.05,0.38c-0.25,0.26-0.37,0.61-0.37,1.07h-0.9
		c0-0.65,0.21-1.18,0.63-1.59c0.42-0.4,0.99-0.61,1.69-0.61c0.66,0,1.18,0.17,1.57,0.52c0.38,0.35,0.58,0.81,0.58,1.38
		c0,0.7-0.45,1.53-1.34,2.5l-1.9,2.07h3.57V230.98z"/>
	<path class="st0" d="M43.4,227.94c0,1.06-0.18,1.84-0.54,2.36s-0.93,0.77-1.69,0.77c-0.76,0-1.32-0.25-1.68-0.75
		c-0.36-0.5-0.55-1.25-0.57-2.25v-1.21c0-1.04,0.18-1.82,0.54-2.33s0.93-0.76,1.7-0.76c0.76,0,1.33,0.25,1.69,0.73
		c0.36,0.49,0.55,1.25,0.56,2.27V227.94z M42.49,226.71c0-0.76-0.11-1.32-0.32-1.67c-0.21-0.35-0.55-0.53-1.02-0.53
		c-0.46,0-0.8,0.17-1.01,0.52s-0.32,0.88-0.33,1.61v1.45c0,0.77,0.11,1.34,0.33,1.7c0.22,0.37,0.56,0.55,1.01,0.55
		c0.45,0,0.78-0.17,0.99-0.52c0.22-0.34,0.33-0.89,0.34-1.63V226.71z"/>
	<path class="st0" d="M49.21,230.98h-4.66v-0.65l2.46-2.73c0.36-0.41,0.62-0.75,0.75-1.01c0.14-0.26,0.21-0.53,0.21-0.8
		c0-0.37-0.11-0.68-0.34-0.91s-0.52-0.36-0.9-0.36c-0.45,0-0.8,0.13-1.05,0.38c-0.25,0.26-0.37,0.61-0.37,1.07h-0.9
		c0-0.65,0.21-1.18,0.63-1.59c0.42-0.4,0.99-0.61,1.69-0.61c0.66,0,1.18,0.17,1.57,0.52c0.38,0.35,0.58,0.81,0.58,1.38
		c0,0.7-0.45,1.53-1.34,2.5l-1.9,2.07h3.57V230.98z"/>
	<path class="st0" d="M54.63,227.94c0,1.06-0.18,1.84-0.54,2.36s-0.93,0.77-1.69,0.77c-0.76,0-1.32-0.25-1.68-0.75
		c-0.36-0.5-0.55-1.25-0.57-2.25v-1.21c0-1.04,0.18-1.82,0.54-2.33s0.93-0.76,1.7-0.76c0.76,0,1.33,0.25,1.69,0.73
		c0.36,0.49,0.55,1.25,0.56,2.27V227.94z M53.72,226.71c0-0.76-0.11-1.32-0.32-1.67c-0.21-0.35-0.55-0.53-1.02-0.53
		c-0.46,0-0.8,0.17-1.01,0.52s-0.32,0.88-0.33,1.61v1.45c0,0.77,0.11,1.34,0.33,1.7c0.22,0.37,0.56,0.55,1.01,0.55
		c0.45,0,0.78-0.17,0.99-0.52c0.22-0.34,0.33-0.89,0.34-1.63V226.71z"/>
	<path class="st0" d="M59.5,230.98h-0.94v-7.11h0.94V230.98z"/>
	<path class="st0" d="M60.85,228.29c0-0.81,0.19-1.46,0.58-1.96c0.38-0.49,0.89-0.74,1.51-0.74c0.62,0,1.11,0.21,1.47,0.63v-2.75
		h0.9v7.5h-0.83l-0.04-0.57c-0.36,0.44-0.86,0.66-1.51,0.66c-0.61,0-1.11-0.25-1.5-0.75c-0.39-0.5-0.58-1.16-0.58-1.96V228.29z
		 M61.76,228.39c0,0.6,0.12,1.07,0.37,1.41s0.59,0.51,1.03,0.51c0.57,0,0.99-0.26,1.25-0.77v-2.43c-0.27-0.5-0.69-0.75-1.25-0.75
		c-0.44,0-0.79,0.17-1.04,0.51S61.76,227.72,61.76,228.39z"/>
	<path class="st0" d="M68.91,231.07c-0.72,0-1.3-0.24-1.75-0.71c-0.45-0.47-0.67-1.1-0.67-1.89v-0.17c0-0.52,0.1-0.99,0.3-1.4
		c0.2-0.41,0.48-0.73,0.84-0.97c0.36-0.23,0.75-0.35,1.17-0.35c0.69,0,1.22,0.23,1.6,0.68s0.57,1.1,0.57,1.94v0.38h-3.58
		c0.01,0.52,0.17,0.94,0.46,1.26c0.29,0.32,0.66,0.48,1.11,0.48c0.32,0,0.59-0.07,0.81-0.2s0.42-0.3,0.58-0.52l0.55,0.43
		C70.46,230.73,69.79,231.07,68.91,231.07z M68.79,226.34c-0.36,0-0.67,0.13-0.92,0.4c-0.25,0.26-0.4,0.64-0.46,1.12h2.65v-0.07
		c-0.03-0.46-0.15-0.81-0.37-1.07C69.47,226.46,69.17,226.34,68.79,226.34z"/>
	<path class="st0" d="M72.87,225.69l0.03,0.66c0.4-0.51,0.93-0.76,1.58-0.76c1.12,0,1.68,0.63,1.69,1.89v3.49h-0.9v-3.5
		c0-0.38-0.09-0.66-0.26-0.84c-0.17-0.18-0.44-0.27-0.8-0.27c-0.29,0-0.55,0.08-0.77,0.23s-0.39,0.36-0.52,0.62v3.76h-0.9v-5.28
		H72.87z"/>
	<path class="st0" d="M78.75,224.41v1.28h0.99v0.7h-0.99v3.28c0,0.21,0.04,0.37,0.13,0.48c0.09,0.11,0.24,0.16,0.45,0.16
		c0.1,0,0.25-0.02,0.43-0.06v0.73c-0.24,0.06-0.47,0.1-0.69,0.1c-0.4,0-0.71-0.12-0.91-0.37s-0.31-0.59-0.31-1.04v-3.28h-0.96v-0.7
		h0.96v-1.28H78.75z"/>
	<path class="st0" d="M80.8,224.29c0-0.15,0.04-0.27,0.13-0.37c0.09-0.1,0.22-0.15,0.4-0.15s0.31,0.05,0.4,0.15s0.14,0.22,0.14,0.37
		s-0.05,0.27-0.14,0.37s-0.22,0.15-0.4,0.15s-0.31-0.05-0.4-0.15C80.84,224.56,80.8,224.44,80.8,224.29z M81.78,230.98h-0.9v-5.28
		h0.9V230.98z"/>
	<path class="st0" d="M84.45,224.41v1.28h0.99v0.7h-0.99v3.28c0,0.21,0.04,0.37,0.13,0.48c0.09,0.11,0.24,0.16,0.45,0.16
		c0.1,0,0.25-0.02,0.43-0.06v0.73c-0.24,0.06-0.47,0.1-0.69,0.1c-0.4,0-0.71-0.12-0.91-0.37s-0.31-0.59-0.31-1.04v-3.28h-0.96v-0.7
		h0.96v-1.28H84.45z"/>
	<path class="st0" d="M88.22,229.65l1.23-3.96h0.97l-2.12,6.1c-0.33,0.88-0.85,1.32-1.57,1.32l-0.17-0.01l-0.34-0.06v-0.73
		l0.24,0.02c0.31,0,0.54-0.06,0.71-0.19c0.17-0.12,0.31-0.35,0.42-0.68l0.2-0.54l-1.88-5.22h0.99L88.22,229.65z"/>
	<path class="st0" d="M97.76,227.84h-2.98v3.14h-0.94v-7.11h4.4v0.77h-3.47v2.44h2.98V227.84z"/>
	<path class="st0" d="M101.65,226.5c-0.14-0.02-0.29-0.03-0.44-0.03c-0.59,0-0.99,0.25-1.21,0.76v3.75h-0.9v-5.28h0.88l0.01,0.61
		c0.3-0.47,0.72-0.71,1.26-0.71c0.18,0,0.31,0.02,0.4,0.07V226.5z"/>
	<path class="st0" d="M105.55,230.98c-0.05-0.1-0.09-0.29-0.13-0.56c-0.42,0.44-0.92,0.65-1.5,0.65c-0.52,0-0.95-0.15-1.28-0.44
		c-0.33-0.29-0.5-0.67-0.5-1.12c0-0.55,0.21-0.98,0.63-1.28c0.42-0.3,1.01-0.46,1.76-0.46h0.88v-0.42c0-0.32-0.09-0.57-0.28-0.75
		c-0.19-0.19-0.47-0.28-0.83-0.28c-0.32,0-0.59,0.08-0.81,0.24s-0.33,0.36-0.33,0.59h-0.91c0-0.26,0.09-0.52,0.28-0.76
		c0.19-0.25,0.44-0.44,0.76-0.58c0.32-0.14,0.67-0.21,1.06-0.21c0.61,0,1.09,0.15,1.43,0.46c0.34,0.3,0.52,0.72,0.54,1.26v2.43
		c0,0.49,0.06,0.87,0.19,1.16v0.08H105.55z M104.05,230.29c0.28,0,0.55-0.07,0.81-0.22s0.44-0.34,0.55-0.57v-1.08h-0.71
		c-1.11,0-1.66,0.32-1.66,0.97c0,0.28,0.09,0.5,0.28,0.66S103.75,230.29,104.05,230.29z"/>
	<path class="st0" d="M110.99,230.45c-0.35,0.41-0.87,0.62-1.55,0.62c-0.56,0-0.99-0.16-1.29-0.49c-0.29-0.33-0.44-0.81-0.45-1.45
		v-3.44h0.9v3.41c0,0.8,0.33,1.2,0.98,1.2c0.69,0,1.15-0.26,1.38-0.77v-3.84h0.9v5.28H111L110.99,230.45z"/>
	<path class="st0" d="M113.02,228.29c0-0.81,0.19-1.46,0.58-1.96c0.38-0.49,0.89-0.74,1.51-0.74c0.62,0,1.11,0.21,1.47,0.63v-2.75
		h0.9v7.5h-0.83l-0.04-0.57c-0.36,0.44-0.86,0.66-1.51,0.66c-0.61,0-1.11-0.25-1.5-0.75c-0.39-0.5-0.58-1.16-0.58-1.96V228.29z
		 M113.92,228.39c0,0.6,0.12,1.07,0.37,1.41s0.59,0.51,1.03,0.51c0.57,0,0.99-0.26,1.25-0.77v-2.43c-0.27-0.5-0.69-0.75-1.25-0.75
		c-0.44,0-0.79,0.17-1.04,0.51S113.92,227.72,113.92,228.39z"/>
	<path class="st0" d="M123.59,227.81c-0.8-0.23-1.39-0.51-1.76-0.85c-0.37-0.34-0.55-0.75-0.55-1.25c0-0.56,0.22-1.02,0.67-1.39
		c0.45-0.37,1.03-0.55,1.75-0.55c0.49,0,0.92,0.09,1.31,0.28c0.38,0.19,0.68,0.45,0.89,0.78c0.21,0.33,0.32,0.7,0.32,1.09h-0.94
		c0-0.43-0.14-0.77-0.41-1.02c-0.27-0.25-0.66-0.37-1.16-0.37c-0.46,0-0.82,0.1-1.08,0.31c-0.26,0.2-0.39,0.49-0.39,0.85
		c0,0.29,0.12,0.54,0.37,0.74c0.25,0.2,0.66,0.38,1.25,0.55c0.59,0.17,1.05,0.35,1.39,0.55c0.33,0.2,0.58,0.43,0.74,0.7
		c0.16,0.27,0.24,0.58,0.24,0.94c0,0.58-0.22,1.04-0.67,1.38c-0.45,0.35-1.05,0.52-1.8,0.52c-0.49,0-0.94-0.09-1.37-0.28
		c-0.42-0.19-0.75-0.44-0.98-0.77c-0.23-0.33-0.34-0.7-0.34-1.11H122c0,0.43,0.16,0.77,0.48,1.02c0.32,0.25,0.74,0.37,1.27,0.37
		c0.5,0,0.87-0.1,1.14-0.3s0.4-0.48,0.4-0.83s-0.12-0.62-0.37-0.81C124.67,228.18,124.23,227.99,123.59,227.81z"/>
	<path class="st0" d="M128.51,224.41v1.28h0.99v0.7h-0.99v3.28c0,0.21,0.04,0.37,0.13,0.48c0.09,0.11,0.24,0.16,0.45,0.16
		c0.1,0,0.25-0.02,0.43-0.06v0.73c-0.24,0.06-0.47,0.1-0.69,0.1c-0.4,0-0.71-0.12-0.91-0.37s-0.31-0.59-0.31-1.04v-3.28h-0.96v-0.7
		h0.96v-1.28H128.51z"/>
	<path class="st0" d="M133.81,230.45c-0.35,0.41-0.87,0.62-1.55,0.62c-0.56,0-0.99-0.16-1.29-0.49c-0.29-0.33-0.44-0.81-0.45-1.45
		v-3.44h0.9v3.41c0,0.8,0.33,1.2,0.98,1.2c0.69,0,1.15-0.26,1.38-0.77v-3.84h0.9v5.28h-0.86L133.81,230.45z"/>
	<path class="st0" d="M135.84,228.29c0-0.81,0.19-1.46,0.58-1.96c0.38-0.49,0.89-0.74,1.51-0.74c0.62,0,1.11,0.21,1.47,0.63v-2.75
		h0.9v7.5h-0.83l-0.04-0.57c-0.36,0.44-0.86,0.66-1.51,0.66c-0.61,0-1.11-0.25-1.5-0.75c-0.39-0.5-0.58-1.16-0.58-1.96V228.29z
		 M136.75,228.39c0,0.6,0.12,1.07,0.37,1.41s0.59,0.51,1.03,0.51c0.57,0,0.99-0.26,1.25-0.77v-2.43c-0.27-0.5-0.69-0.75-1.25-0.75
		c-0.44,0-0.79,0.17-1.04,0.51S136.75,227.72,136.75,228.39z"/>
	<path class="st0" d="M143.43,229.65l1.23-3.96h0.97l-2.12,6.1c-0.33,0.88-0.85,1.32-1.57,1.32l-0.17-0.01l-0.34-0.06v-0.73
		l0.24,0.02c0.31,0,0.54-0.06,0.71-0.19c0.17-0.12,0.31-0.35,0.42-0.68l0.2-0.54l-1.88-5.22h0.99L143.43,229.65z"/>
	<path class="st0" d="M146.41,232.39l-0.51-0.35c0.31-0.43,0.47-0.87,0.48-1.32v-0.82h0.88v0.71c0,0.33-0.08,0.66-0.24,0.99
		C146.85,231.93,146.65,232.19,146.41,232.39z"/>
	<path class="st0" d="M153.99,223.87h0.94v5.03c0,0.68-0.2,1.21-0.61,1.6c-0.41,0.38-0.95,0.58-1.63,0.58
		c-0.71,0-1.26-0.18-1.65-0.54s-0.59-0.87-0.59-1.52h0.94c0,0.41,0.11,0.72,0.33,0.95c0.22,0.23,0.55,0.34,0.97,0.34
		c0.39,0,0.7-0.12,0.94-0.37c0.24-0.24,0.36-0.59,0.36-1.03V223.87z"/>
	<path class="st0" d="M159.65,230.98c-0.05-0.1-0.09-0.29-0.13-0.56c-0.42,0.44-0.92,0.65-1.5,0.65c-0.52,0-0.95-0.15-1.28-0.44
		c-0.33-0.29-0.5-0.67-0.5-1.12c0-0.55,0.21-0.98,0.63-1.28c0.42-0.3,1.01-0.46,1.76-0.46h0.88v-0.42c0-0.32-0.09-0.57-0.28-0.75
		c-0.19-0.19-0.47-0.28-0.83-0.28c-0.32,0-0.59,0.08-0.81,0.24s-0.33,0.36-0.33,0.59h-0.91c0-0.26,0.09-0.52,0.28-0.76
		c0.19-0.25,0.44-0.44,0.76-0.58c0.32-0.14,0.67-0.21,1.06-0.21c0.61,0,1.09,0.15,1.43,0.46c0.34,0.3,0.52,0.72,0.54,1.26v2.43
		c0,0.49,0.06,0.87,0.19,1.16v0.08H159.65z M158.15,230.29c0.28,0,0.55-0.07,0.81-0.22s0.44-0.34,0.55-0.57v-1.08h-0.71
		c-1.11,0-1.66,0.32-1.66,0.97c0,0.28,0.09,0.5,0.28,0.66S157.86,230.29,158.15,230.29z"/>
	<path class="st0" d="M163.5,229.75l1.31-4.06h0.92l-1.89,5.28h-0.69l-1.91-5.28h0.92L163.5,229.75z"/>
	<path class="st0" d="M168.79,231.07c-0.72,0-1.3-0.24-1.75-0.71c-0.45-0.47-0.67-1.1-0.67-1.89v-0.17c0-0.52,0.1-0.99,0.3-1.4
		c0.2-0.41,0.48-0.73,0.84-0.97c0.36-0.23,0.75-0.35,1.17-0.35c0.69,0,1.22,0.23,1.6,0.68s0.57,1.1,0.57,1.94v0.38h-3.58
		c0.01,0.52,0.17,0.94,0.46,1.26c0.29,0.32,0.66,0.48,1.11,0.48c0.32,0,0.59-0.07,0.81-0.2s0.42-0.3,0.58-0.52l0.55,0.43
		C170.34,230.73,169.68,231.07,168.79,231.07z M168.68,226.34c-0.36,0-0.67,0.13-0.92,0.4c-0.25,0.26-0.4,0.64-0.46,1.12h2.65v-0.07
		c-0.03-0.46-0.15-0.81-0.37-1.07C169.36,226.46,169.06,226.34,168.68,226.34z"/>
	<path class="st0" d="M172.88,230.98h-0.9v-7.5h0.9V230.98z"/>
	<path class="st0" d="M174.33,224.29c0-0.15,0.04-0.27,0.13-0.37c0.09-0.1,0.22-0.15,0.4-0.15s0.31,0.05,0.4,0.15
		s0.14,0.22,0.14,0.37s-0.05,0.27-0.14,0.37s-0.22,0.15-0.4,0.15s-0.31-0.05-0.4-0.15C174.38,224.56,174.33,224.44,174.33,224.29z
		 M175.31,230.98h-0.9v-5.28h0.9V230.98z"/>
	<path class="st0" d="M177.61,225.69l0.03,0.66c0.4-0.51,0.93-0.76,1.58-0.76c1.12,0,1.68,0.63,1.69,1.89v3.49H180v-3.5
		c0-0.38-0.09-0.66-0.26-0.84c-0.17-0.18-0.44-0.27-0.8-0.27c-0.29,0-0.55,0.08-0.77,0.23s-0.39,0.36-0.52,0.62v3.76h-0.9v-5.28
		H177.61z"/>
	<path class="st0" d="M186.98,227.81c-0.8-0.23-1.39-0.51-1.76-0.85c-0.37-0.34-0.55-0.75-0.55-1.25c0-0.56,0.22-1.02,0.67-1.39
		c0.45-0.37,1.03-0.55,1.75-0.55c0.49,0,0.92,0.09,1.31,0.28c0.38,0.19,0.68,0.45,0.89,0.78c0.21,0.33,0.32,0.7,0.32,1.09h-0.94
		c0-0.43-0.14-0.77-0.41-1.02c-0.27-0.25-0.66-0.37-1.16-0.37c-0.46,0-0.82,0.1-1.08,0.31c-0.26,0.2-0.39,0.49-0.39,0.85
		c0,0.29,0.12,0.54,0.37,0.74c0.25,0.2,0.66,0.38,1.25,0.55c0.59,0.17,1.05,0.35,1.39,0.55c0.33,0.2,0.58,0.43,0.74,0.7
		c0.16,0.27,0.24,0.58,0.24,0.94c0,0.58-0.22,1.04-0.67,1.38c-0.45,0.35-1.05,0.52-1.8,0.52c-0.49,0-0.94-0.09-1.37-0.28
		c-0.42-0.19-0.75-0.44-0.98-0.77c-0.23-0.33-0.34-0.7-0.34-1.11h0.94c0,0.43,0.16,0.77,0.48,1.02c0.32,0.25,0.74,0.37,1.27,0.37
		c0.5,0,0.87-0.1,1.14-0.3s0.4-0.48,0.4-0.83s-0.12-0.62-0.37-0.81C188.07,228.18,187.62,227.99,186.98,227.81z"/>
	<path class="st0" d="M191.9,224.41v1.28h0.99v0.7h-0.99v3.28c0,0.21,0.04,0.37,0.13,0.48c0.09,0.11,0.24,0.16,0.45,0.16
		c0.1,0,0.25-0.02,0.43-0.06v0.73c-0.24,0.06-0.47,0.1-0.69,0.1c-0.4,0-0.71-0.12-0.91-0.37s-0.31-0.59-0.31-1.04v-3.28h-0.96v-0.7
		H191v-1.28H191.9z"/>
	<path class="st0" d="M196.5,226.5c-0.14-0.02-0.29-0.03-0.44-0.03c-0.59,0-0.99,0.25-1.21,0.76v3.75h-0.9v-5.28h0.88l0.01,0.61
		c0.3-0.47,0.72-0.71,1.26-0.71c0.18,0,0.31,0.02,0.4,0.07V226.5z"/>
	<path class="st0" d="M200.39,230.98c-0.05-0.1-0.09-0.29-0.13-0.56c-0.42,0.44-0.92,0.65-1.5,0.65c-0.52,0-0.95-0.15-1.28-0.44
		c-0.33-0.29-0.5-0.67-0.5-1.12c0-0.55,0.21-0.98,0.63-1.28c0.42-0.3,1.01-0.46,1.76-0.46h0.88v-0.42c0-0.32-0.09-0.57-0.28-0.75
		c-0.19-0.19-0.47-0.28-0.83-0.28c-0.32,0-0.59,0.08-0.81,0.24s-0.33,0.36-0.33,0.59h-0.91c0-0.26,0.09-0.52,0.28-0.76
		c0.19-0.25,0.44-0.44,0.76-0.58c0.32-0.14,0.67-0.21,1.06-0.21c0.61,0,1.09,0.15,1.43,0.46c0.34,0.3,0.52,0.72,0.54,1.26v2.43
		c0,0.49,0.06,0.87,0.19,1.16v0.08H200.39z M198.9,230.29c0.28,0,0.55-0.07,0.81-0.22s0.44-0.34,0.55-0.57v-1.08h-0.71
		c-1.11,0-1.66,0.32-1.66,0.97c0,0.28,0.09,0.5,0.28,0.66S198.6,230.29,198.9,230.29z"/>
	<path class="st0" d="M203.8,224.41v1.28h0.99v0.7h-0.99v3.28c0,0.21,0.04,0.37,0.13,0.48c0.09,0.11,0.24,0.16,0.45,0.16
		c0.1,0,0.25-0.02,0.43-0.06v0.73c-0.24,0.06-0.47,0.1-0.69,0.1c-0.4,0-0.71-0.12-0.91-0.37s-0.31-0.59-0.31-1.04v-3.28h-0.96v-0.7
		h0.96v-1.28H203.8z"/>
	<path class="st0" d="M208.03,231.07c-0.72,0-1.3-0.24-1.75-0.71c-0.45-0.47-0.67-1.1-0.67-1.89v-0.17c0-0.52,0.1-0.99,0.3-1.4
		c0.2-0.41,0.48-0.73,0.84-0.97c0.36-0.23,0.75-0.35,1.17-0.35c0.69,0,1.22,0.23,1.6,0.68s0.57,1.1,0.57,1.94v0.38h-3.58
		c0.01,0.52,0.17,0.94,0.46,1.26c0.29,0.32,0.66,0.48,1.11,0.48c0.32,0,0.59-0.07,0.81-0.2s0.42-0.3,0.58-0.52l0.55,0.43
		C209.58,230.73,208.92,231.07,208.03,231.07z M207.92,226.34c-0.36,0-0.67,0.13-0.92,0.4c-0.25,0.26-0.4,0.64-0.46,1.12h2.65v-0.07
		c-0.03-0.46-0.15-0.81-0.37-1.07C208.6,226.46,208.3,226.34,207.92,226.34z"/>
	<path class="st0" d="M210.92,228.29c0-0.82,0.19-1.48,0.57-1.96c0.38-0.49,0.89-0.73,1.51-0.73c0.64,0,1.15,0.23,1.51,0.68
		l0.04-0.59h0.83v5.16c0,0.68-0.2,1.22-0.61,1.62c-0.41,0.39-0.95,0.59-1.63,0.59c-0.38,0-0.75-0.08-1.12-0.24s-0.64-0.39-0.83-0.67
		l0.47-0.54c0.39,0.48,0.86,0.72,1.42,0.72c0.44,0,0.78-0.12,1.03-0.37c0.25-0.25,0.37-0.6,0.37-1.04v-0.45
		c-0.36,0.42-0.85,0.62-1.48,0.62c-0.62,0-1.12-0.25-1.5-0.75C211.11,229.83,210.92,229.15,210.92,228.29z M211.83,228.39
		c0,0.6,0.12,1.06,0.37,1.4c0.24,0.34,0.59,0.51,1.03,0.51c0.57,0,0.99-0.26,1.25-0.78v-2.41c-0.28-0.5-0.69-0.76-1.25-0.76
		c-0.44,0-0.78,0.17-1.03,0.51S211.83,227.72,211.83,228.39z"/>
	<path class="st0" d="M218.48,229.65l1.23-3.96h0.97l-2.12,6.1c-0.33,0.88-0.85,1.32-1.57,1.32l-0.17-0.01l-0.34-0.06v-0.73
		l0.24,0.02c0.31,0,0.54-0.06,0.71-0.19c0.17-0.12,0.31-0.35,0.42-0.68l0.2-0.54l-1.88-5.22h0.99L218.48,229.65z"/>
	<path class="st0" d="M223.76,229.07c0-0.34,0.09-0.66,0.29-0.94c0.19-0.29,0.55-0.62,1.09-1c-0.32-0.38-0.53-0.69-0.63-0.93
		s-0.16-0.47-0.16-0.7c0-0.54,0.16-0.96,0.48-1.27s0.75-0.46,1.3-0.46c0.49,0,0.89,0.14,1.21,0.43c0.32,0.28,0.48,0.64,0.48,1.08
		c0,0.29-0.07,0.55-0.22,0.79c-0.15,0.24-0.4,0.5-0.76,0.76l-0.52,0.39l1.58,1.89c0.22-0.42,0.33-0.89,0.33-1.41h0.82
		c0,0.83-0.2,1.52-0.6,2.07l1.02,1.22h-1.08l-0.47-0.56c-0.24,0.21-0.52,0.38-0.85,0.49c-0.32,0.11-0.65,0.17-0.99,0.17
		c-0.69,0-1.25-0.18-1.67-0.55S223.76,229.67,223.76,229.07z M226.06,230.34c0.48,0,0.92-0.18,1.31-0.55l-1.73-2.08l-0.16,0.12
		c-0.54,0.4-0.82,0.81-0.82,1.24c0,0.38,0.12,0.69,0.37,0.92C225.29,230.22,225.63,230.34,226.06,230.34z M225.25,225.47
		c0,0.31,0.19,0.7,0.58,1.17l0.58-0.41c0.22-0.16,0.37-0.31,0.45-0.45c0.08-0.14,0.12-0.31,0.12-0.52c0-0.22-0.08-0.4-0.24-0.54
		c-0.16-0.14-0.37-0.22-0.62-0.22c-0.27,0-0.48,0.09-0.63,0.27C225.33,224.96,225.25,225.19,225.25,225.47z"/>
	<path class="st0" d="M235.39,228.1h-1.67v2.88h-0.94v-7.11h2.35c0.8,0,1.42,0.18,1.85,0.55c0.43,0.36,0.65,0.9,0.65,1.59
		c0,0.44-0.12,0.83-0.36,1.16c-0.24,0.33-0.57,0.57-1,0.74l1.67,3.02v0.06h-1.01L235.39,228.1z M233.72,227.33h1.44
		c0.47,0,0.84-0.12,1.11-0.36c0.27-0.24,0.41-0.56,0.41-0.97c0-0.44-0.13-0.78-0.39-1.01c-0.26-0.24-0.64-0.35-1.14-0.36h-1.44
		V227.33z"/>
	<path class="st0" d="M241,231.07c-0.72,0-1.3-0.24-1.75-0.71c-0.45-0.47-0.67-1.1-0.67-1.89v-0.17c0-0.52,0.1-0.99,0.3-1.4
		c0.2-0.41,0.48-0.73,0.84-0.97c0.36-0.23,0.75-0.35,1.17-0.35c0.69,0,1.22,0.23,1.6,0.68s0.57,1.1,0.57,1.94v0.38h-3.58
		c0.01,0.52,0.17,0.94,0.46,1.26c0.29,0.32,0.66,0.48,1.11,0.48c0.32,0,0.59-0.07,0.81-0.2s0.42-0.3,0.58-0.52l0.55,0.43
		C242.54,230.73,241.88,231.07,241,231.07z M240.88,226.34c-0.36,0-0.67,0.13-0.92,0.4c-0.25,0.26-0.4,0.64-0.46,1.12h2.65v-0.07
		c-0.03-0.46-0.15-0.81-0.37-1.07C241.56,226.46,241.26,226.34,240.88,226.34z"/>
	<path class="st0" d="M247.18,229.57c0-0.24-0.09-0.43-0.28-0.57c-0.18-0.13-0.5-0.25-0.96-0.35c-0.46-0.1-0.82-0.21-1.09-0.35
		c-0.27-0.14-0.47-0.3-0.6-0.49c-0.13-0.19-0.19-0.41-0.19-0.67c0-0.43,0.18-0.8,0.55-1.1c0.37-0.3,0.83-0.45,1.4-0.45
		c0.6,0,1.08,0.15,1.46,0.46c0.37,0.31,0.56,0.71,0.56,1.19h-0.91c0-0.25-0.1-0.46-0.32-0.64c-0.21-0.18-0.47-0.27-0.79-0.27
		c-0.33,0-0.59,0.07-0.77,0.21s-0.28,0.33-0.28,0.56c0,0.22,0.09,0.38,0.26,0.49s0.48,0.22,0.94,0.32c0.45,0.1,0.82,0.22,1.1,0.36
		s0.49,0.31,0.62,0.5c0.13,0.2,0.2,0.44,0.2,0.72c0,0.47-0.19,0.85-0.57,1.13c-0.38,0.29-0.87,0.43-1.47,0.43
		c-0.42,0-0.8-0.08-1.12-0.22s-0.58-0.36-0.76-0.63c-0.18-0.27-0.28-0.56-0.28-0.87h0.9c0.02,0.3,0.14,0.54,0.36,0.72
		c0.23,0.18,0.53,0.27,0.9,0.27c0.34,0,0.62-0.07,0.82-0.21C247.07,229.99,247.18,229.81,247.18,229.57z"/>
	<path class="st0" d="M251.45,231.07c-0.72,0-1.3-0.24-1.75-0.71c-0.45-0.47-0.67-1.1-0.67-1.89v-0.17c0-0.52,0.1-0.99,0.3-1.4
		c0.2-0.41,0.48-0.73,0.84-0.97c0.36-0.23,0.75-0.35,1.17-0.35c0.69,0,1.22,0.23,1.6,0.68s0.57,1.1,0.57,1.94v0.38h-3.58
		c0.01,0.52,0.17,0.94,0.46,1.26c0.29,0.32,0.66,0.48,1.11,0.48c0.32,0,0.59-0.07,0.81-0.2s0.42-0.3,0.58-0.52l0.55,0.43
		C253,230.73,252.33,231.07,251.45,231.07z M251.34,226.34c-0.36,0-0.67,0.13-0.92,0.4c-0.25,0.26-0.4,0.64-0.46,1.12h2.65v-0.07
		c-0.03-0.46-0.15-0.81-0.37-1.07C252.01,226.46,251.71,226.34,251.34,226.34z"/>
	<path class="st0" d="M257.82,230.98c-0.05-0.1-0.09-0.29-0.13-0.56c-0.42,0.44-0.92,0.65-1.5,0.65c-0.52,0-0.95-0.15-1.28-0.44
		c-0.33-0.29-0.5-0.67-0.5-1.12c0-0.55,0.21-0.98,0.63-1.28c0.42-0.3,1.01-0.46,1.76-0.46h0.88v-0.42c0-0.32-0.09-0.57-0.28-0.75
		c-0.19-0.19-0.47-0.28-0.83-0.28c-0.32,0-0.59,0.08-0.81,0.24s-0.33,0.36-0.33,0.59h-0.91c0-0.26,0.09-0.52,0.28-0.76
		c0.19-0.25,0.44-0.44,0.76-0.58c0.32-0.14,0.67-0.21,1.06-0.21c0.61,0,1.09,0.15,1.43,0.46c0.34,0.3,0.52,0.72,0.54,1.26v2.43
		c0,0.49,0.06,0.87,0.19,1.16v0.08H257.82z M256.32,230.29c0.28,0,0.55-0.07,0.81-0.22s0.44-0.34,0.55-0.57v-1.08h-0.71
		c-1.11,0-1.66,0.32-1.66,0.97c0,0.28,0.09,0.5,0.28,0.66S256.02,230.29,256.32,230.29z"/>
	<path class="st0" d="M262.55,226.5c-0.14-0.02-0.29-0.03-0.44-0.03c-0.59,0-0.99,0.25-1.21,0.76v3.75h-0.9v-5.28h0.88l0.01,0.61
		c0.3-0.47,0.72-0.71,1.26-0.71c0.18,0,0.31,0.02,0.4,0.07V226.5z"/>
	<path class="st0" d="M265.4,230.34c0.32,0,0.6-0.1,0.84-0.29s0.37-0.44,0.4-0.73h0.85c-0.02,0.3-0.12,0.59-0.31,0.86
		s-0.45,0.49-0.77,0.65c-0.32,0.16-0.66,0.24-1.02,0.24c-0.72,0-1.29-0.24-1.72-0.72c-0.42-0.48-0.64-1.14-0.64-1.97v-0.15
		c0-0.51,0.09-0.97,0.28-1.37s0.46-0.71,0.81-0.93c0.35-0.22,0.77-0.33,1.25-0.33c0.59,0,1.08,0.18,1.48,0.53
		c0.39,0.35,0.6,0.82,0.63,1.38h-0.85c-0.03-0.34-0.16-0.62-0.39-0.84c-0.23-0.22-0.52-0.33-0.86-0.33c-0.46,0-0.81,0.17-1.07,0.5
		c-0.25,0.33-0.38,0.81-0.38,1.43v0.17c0,0.61,0.12,1.08,0.38,1.41S264.94,230.34,265.4,230.34z"/>
	<path class="st0" d="M269.42,226.33c0.4-0.49,0.92-0.74,1.56-0.74c1.12,0,1.68,0.63,1.69,1.89v3.49h-0.9v-3.5
		c0-0.38-0.09-0.66-0.26-0.84c-0.17-0.18-0.44-0.27-0.8-0.27c-0.29,0-0.55,0.08-0.77,0.23s-0.39,0.36-0.52,0.62v3.76h-0.9v-7.5h0.9
		V226.33z"/>
</g>
</svg>
