<?xml version="1.0" encoding="utf-8"?>
<!-- Generator: Adobe Illustrator 24.2.3, SVG Export Plug-In . SVG Version: 6.00 Build 0)  -->
<svg version="1.1" id="Layer_1" xmlns="http://www.w3.org/2000/svg" xmlns:xlink="http://www.w3.org/1999/xlink" x="0px" y="0px"
	 viewBox="0 0 300 250" style="enable-background:new 0 0 300 250;" xml:space="preserve">
<style type="text/css">
	.st0{fill:#FFFFFF;}
</style>
<path id="Logo_2_" class="st0" d="M150.29,28.58c0.13,0.12,0.19,0.28,0.19,0.46v7.09c0,0.18-0.06,0.33-0.19,0.46
	c-0.12,0.12-0.28,0.19-0.46,0.19c-0.17,0-0.32-0.06-0.45-0.19c-0.13-0.12-0.19-0.28-0.19-0.46v-7.09c0-0.18,0.06-0.33,0.19-0.46
	c0.12-0.12,0.28-0.19,0.46-0.19C150.01,28.39,150.16,28.45,150.29,28.58z M149.84,25.42c-0.18,0-0.33,0.06-0.46,0.19
	c-0.12,0.12-0.19,0.28-0.19,0.46v0.49c0,0.18,0.06,0.33,0.19,0.46c0.13,0.12,0.28,0.19,0.45,0.19c0.18,0,0.33-0.06,0.46-0.19
	c0.12-0.12,0.19-0.28,0.19-0.46v-0.49c0-0.18-0.06-0.33-0.19-0.46C150.16,25.48,150.01,25.42,149.84,25.42z M147.58,28.66
	c-0.23-0.07-0.53-0.12-0.92-0.15c-0.69,0-1.3,0.19-1.82,0.58c-0.03-0.15-0.11-0.28-0.22-0.37c-0.12-0.09-0.24-0.14-0.39-0.14
	c-0.18,0-0.32,0.06-0.45,0.18c-0.12,0.12-0.18,0.27-0.18,0.45v2.16v4.77c0,0.18,0.06,0.32,0.19,0.45c0.13,0.12,0.27,0.18,0.44,0.18
	c0.18,0,0.32-0.06,0.45-0.18c0.12-0.12,0.18-0.27,0.18-0.45v-4.72c0.01-0.23,0.06-0.45,0.15-0.64c0.09-0.2,0.21-0.37,0.37-0.52
	c0.16-0.15,0.34-0.27,0.54-0.35c0.2-0.09,0.43-0.13,0.67-0.13c0.31,0,0.6,0.08,0.87,0.23c0.11,0.08,0.24,0.12,0.38,0.12
	c0.18,0,0.32-0.06,0.45-0.17c0.12-0.12,0.18-0.27,0.18-0.45c0-0.23-0.09-0.41-0.28-0.54C148.01,28.82,147.81,28.72,147.58,28.66z
	 M158.11,28.37c-0.28,0-0.48,0.13-0.59,0.39l-2.5,5.82l-2.5-5.82c-0.06-0.12-0.14-0.22-0.24-0.29c-0.11-0.07-0.22-0.1-0.35-0.1
	c-0.19,0-0.34,0.07-0.46,0.2c-0.11,0.13-0.17,0.28-0.17,0.44c0,0.09,0.02,0.17,0.05,0.25l3.07,7.17c0.1,0.26,0.3,0.39,0.59,0.39
	c0.27,0,0.47-0.13,0.59-0.39l3.07-7.17c0.03-0.08,0.05-0.16,0.05-0.25c0-0.16-0.06-0.3-0.17-0.44
	C158.45,28.44,158.3,28.37,158.11,28.37z M164.8,30.18c0.16,0.37,0.24,0.77,0.24,1.18v4.76c0,0.18-0.06,0.33-0.19,0.46
	c-0.13,0.12-0.28,0.19-0.45,0.19c-0.16,0-0.3-0.05-0.41-0.14c-0.12-0.1-0.19-0.22-0.21-0.36c-0.52,0.38-1.11,0.57-1.79,0.57
	c-0.42,0-0.81-0.08-1.18-0.24c-0.37-0.16-0.69-0.37-0.97-0.65c-0.28-0.28-0.5-0.6-0.66-0.97c-0.16-0.37-0.24-0.76-0.24-1.18v-2.43
	c0-0.42,0.08-0.81,0.24-1.18c0.16-0.37,0.38-0.69,0.66-0.97c0.28-0.28,0.6-0.49,0.97-0.65c0.37-0.16,0.76-0.24,1.19-0.24
	c0.42,0,0.81,0.08,1.18,0.24c0.37,0.16,0.69,0.37,0.97,0.65C164.42,29.48,164.64,29.81,164.8,30.18z M163.76,31.36
	c0-0.24-0.05-0.46-0.14-0.68c-0.1-0.21-0.22-0.4-0.38-0.57c-0.16-0.16-0.35-0.29-0.57-0.38c-0.22-0.09-0.45-0.14-0.68-0.14
	c-0.25,0-0.48,0.05-0.69,0.14c-0.21,0.09-0.4,0.22-0.57,0.38c-0.16,0.16-0.29,0.35-0.38,0.57c-0.09,0.21-0.14,0.44-0.14,0.68v2.43
	c0,0.24,0.05,0.46,0.14,0.67c0.1,0.21,0.22,0.4,0.38,0.57c0.16,0.16,0.35,0.29,0.57,0.38c0.22,0.09,0.45,0.13,0.68,0.13
	c0.24,0,0.46-0.04,0.67-0.13c0.21-0.08,0.4-0.2,0.56-0.35c0.16-0.15,0.28-0.33,0.38-0.53c0.1-0.2,0.15-0.42,0.16-0.66V31.36z
	 M167.64,30.68c0.09-0.21,0.22-0.4,0.38-0.57c0.16-0.16,0.35-0.29,0.57-0.38c0.21-0.09,0.44-0.14,0.69-0.14
	c0.35,0,0.67,0.1,0.96,0.29c0.29,0.19,0.52,0.46,0.67,0.79c0.04,0.12,0.12,0.22,0.23,0.3c0.11,0.07,0.23,0.11,0.36,0.11
	c0.18,0,0.33-0.06,0.46-0.19c0.12-0.12,0.19-0.28,0.19-0.46c0-0.07-0.02-0.15-0.05-0.24c-0.18-0.45-0.41-0.8-0.68-1.05
	c-0.28-0.25-0.55-0.44-0.84-0.57c-0.28-0.12-0.54-0.2-0.77-0.23c-0.23-0.03-0.39-0.04-0.46-0.04c-0.43,0-0.83,0.08-1.21,0.24
	c-0.38,0.16-0.71,0.37-1,0.64c-0.29,0.27-0.51,0.59-0.67,0.96c-0.16,0.37-0.24,0.77-0.24,1.2v2.43c0,0.42,0.08,0.81,0.24,1.18
	c0.16,0.37,0.38,0.69,0.66,0.97c0.28,0.28,0.6,0.49,0.97,0.65c0.37,0.16,0.76,0.24,1.18,0.24c0.01,0,0.12-0.01,0.33-0.02
	c0.21-0.01,0.46-0.07,0.76-0.19c0.3-0.11,0.6-0.3,0.92-0.56c0.31-0.26,0.58-0.64,0.81-1.13c0.03-0.08,0.05-0.16,0.05-0.24
	c0-0.17-0.06-0.32-0.19-0.45c-0.12-0.13-0.28-0.19-0.46-0.19c-0.14,0-0.25,0.04-0.35,0.11c-0.1,0.07-0.18,0.17-0.24,0.3
	c-0.15,0.34-0.37,0.6-0.66,0.79c-0.29,0.19-0.62,0.29-0.98,0.29c-0.24,0-0.46-0.04-0.68-0.13c-0.22-0.09-0.41-0.22-0.57-0.38
	c-0.16-0.16-0.28-0.35-0.38-0.57c-0.1-0.21-0.14-0.44-0.14-0.67v-2.43C167.51,31.12,167.55,30.9,167.64,30.68z M194.94,28.39
	c-0.18,0-0.33,0.06-0.46,0.19c-0.12,0.12-0.19,0.28-0.19,0.46v4.76c0,0.24-0.05,0.46-0.14,0.67c-0.1,0.21-0.22,0.4-0.38,0.57
	c-0.16,0.16-0.35,0.29-0.57,0.38c-0.22,0.09-0.45,0.13-0.68,0.13c-0.25,0-0.48-0.04-0.69-0.13c-0.21-0.09-0.4-0.22-0.57-0.38
	c-0.16-0.16-0.29-0.35-0.38-0.57c-0.09-0.21-0.14-0.44-0.14-0.67v-4.76c0-0.18-0.06-0.33-0.19-0.46c-0.13-0.12-0.28-0.19-0.45-0.19
	c-0.18,0-0.33,0.06-0.46,0.19c-0.12,0.12-0.19,0.28-0.19,0.46v4.76c0,0.42,0.08,0.81,0.24,1.18c0.16,0.37,0.38,0.69,0.66,0.97
	c0.28,0.28,0.6,0.49,0.97,0.65c0.37,0.16,0.76,0.24,1.19,0.24c0.42,0,0.81-0.08,1.18-0.24c0.37-0.16,0.69-0.37,0.97-0.65
	c0.28-0.28,0.49-0.6,0.66-0.97c0.16-0.37,0.24-0.76,0.24-1.18v-4.76c0-0.18-0.06-0.33-0.19-0.46
	C195.26,28.45,195.11,28.39,194.94,28.39z M202.65,30.18c0.16,0.37,0.24,0.77,0.24,1.18v4.76c0,0.18-0.06,0.33-0.19,0.46
	c-0.13,0.12-0.28,0.19-0.45,0.19c-0.16,0-0.3-0.05-0.41-0.14c-0.12-0.1-0.19-0.22-0.21-0.36c-0.52,0.38-1.11,0.57-1.79,0.57
	c-0.42,0-0.81-0.08-1.18-0.24c-0.37-0.16-0.69-0.37-0.97-0.65c-0.28-0.28-0.5-0.6-0.66-0.97c-0.16-0.37-0.24-0.76-0.24-1.18v-2.43
	c0-0.42,0.08-0.81,0.24-1.18c0.16-0.37,0.38-0.69,0.66-0.97c0.28-0.28,0.6-0.49,0.97-0.65c0.37-0.16,0.76-0.24,1.19-0.24
	c0.42,0,0.81,0.08,1.18,0.24c0.37,0.16,0.69,0.37,0.97,0.65C202.26,29.48,202.48,29.81,202.65,30.18z M201.61,31.36
	c0-0.24-0.05-0.46-0.14-0.68c-0.1-0.21-0.22-0.4-0.38-0.57c-0.16-0.16-0.35-0.29-0.57-0.38c-0.22-0.09-0.45-0.14-0.68-0.14
	c-0.25,0-0.48,0.05-0.69,0.14c-0.21,0.09-0.4,0.22-0.57,0.38c-0.16,0.16-0.29,0.35-0.38,0.57c-0.09,0.21-0.14,0.44-0.14,0.68v2.43
	c0,0.24,0.05,0.46,0.14,0.67c0.1,0.21,0.22,0.4,0.38,0.57c0.16,0.16,0.35,0.29,0.57,0.38c0.22,0.09,0.45,0.13,0.68,0.13
	c0.24,0,0.46-0.04,0.67-0.13c0.21-0.08,0.4-0.2,0.56-0.35c0.16-0.15,0.28-0.33,0.38-0.53c0.1-0.2,0.15-0.42,0.16-0.66V31.36z
	 M208.11,28.66c-0.23-0.07-0.53-0.12-0.92-0.15c-0.69,0-1.3,0.19-1.82,0.58c-0.03-0.15-0.11-0.28-0.22-0.37
	c-0.12-0.09-0.24-0.14-0.39-0.14c-0.18,0-0.32,0.06-0.45,0.18c-0.12,0.12-0.18,0.27-0.18,0.45v2.16v4.77c0,0.18,0.06,0.32,0.19,0.45
	c0.13,0.12,0.27,0.18,0.44,0.18c0.18,0,0.32-0.06,0.45-0.18c0.12-0.12,0.18-0.27,0.18-0.45v-4.72c0.01-0.23,0.06-0.45,0.15-0.64
	c0.09-0.2,0.21-0.37,0.37-0.52c0.16-0.15,0.34-0.27,0.54-0.35c0.2-0.09,0.43-0.13,0.67-0.13c0.31,0,0.6,0.08,0.87,0.23
	c0.11,0.08,0.24,0.12,0.38,0.12c0.18,0,0.32-0.06,0.45-0.17c0.12-0.12,0.18-0.27,0.18-0.45c0-0.23-0.09-0.41-0.28-0.54
	C208.54,28.82,208.33,28.72,208.11,28.66z M215.28,25.61c0.13,0.12,0.19,0.28,0.19,0.46v2.97v4.76v2.33c0,0.18-0.06,0.33-0.19,0.46
	c0,0,0,0,0,0c0,0,0,0,0,0c-0.12,0.12-0.28,0.19-0.46,0.19c-0.17,0-0.32-0.06-0.45-0.19c-0.1-0.09-0.15-0.21-0.17-0.33
	c-0.19,0.13-0.38,0.26-0.6,0.35c-0.37,0.16-0.77,0.24-1.18,0.24c-0.43,0-0.82-0.08-1.19-0.24c-0.37-0.16-0.69-0.37-0.97-0.65
	c-0.28-0.28-0.5-0.6-0.66-0.97c-0.16-0.37-0.24-0.76-0.24-1.18v-2.43c0-0.42,0.08-0.81,0.24-1.18c0.16-0.37,0.38-0.69,0.66-0.97
	c0.28-0.28,0.6-0.49,0.97-0.65c0.37-0.16,0.76-0.24,1.18-0.24c0.33,0,0.64,0.05,0.94,0.15c0.3,0.1,0.58,0.24,0.84,0.42v-2.83
	c0-0.18,0.06-0.33,0.19-0.46c0.12-0.12,0.28-0.19,0.46-0.19C215.01,25.42,215.15,25.48,215.28,25.61z M214.05,34.46
	c0.08-0.18,0.12-0.38,0.13-0.57v-2.64c-0.01-0.2-0.05-0.39-0.12-0.57c-0.09-0.21-0.22-0.4-0.38-0.57c-0.16-0.16-0.35-0.29-0.57-0.38
	c-0.21-0.09-0.44-0.14-0.69-0.14c-0.24,0-0.46,0.05-0.68,0.14c-0.22,0.09-0.41,0.22-0.57,0.38c-0.16,0.16-0.28,0.35-0.38,0.57
	c-0.1,0.21-0.14,0.44-0.14,0.68v2.43c0,0.24,0.04,0.46,0.14,0.67c0.09,0.21,0.22,0.4,0.38,0.57c0.16,0.16,0.35,0.29,0.57,0.38
	c0.21,0.09,0.44,0.13,0.69,0.13c0.24,0,0.46-0.04,0.68-0.13c0.22-0.09,0.41-0.22,0.57-0.38C213.83,34.87,213.96,34.68,214.05,34.46z
	 M178.77,28.39c-0.18,0-0.33,0.06-0.46,0.19c-0.12,0.12-0.19,0.28-0.19,0.46v4.76c0,0.24-0.05,0.46-0.14,0.67
	c-0.1,0.21-0.22,0.4-0.38,0.57c-0.16,0.16-0.35,0.29-0.57,0.38c-0.22,0.09-0.45,0.13-0.68,0.13c-0.25,0-0.48-0.04-0.69-0.13
	c-0.21-0.09-0.4-0.22-0.57-0.38c-0.16-0.16-0.29-0.35-0.38-0.57c-0.09-0.21-0.14-0.44-0.14-0.67v-4.76c0-0.18-0.06-0.33-0.19-0.46
	c-0.13-0.12-0.28-0.19-0.45-0.19c-0.18,0-0.33,0.06-0.46,0.19c-0.12,0.12-0.19,0.28-0.19,0.46v4.76c0,0.42,0.08,0.81,0.24,1.18
	c0.16,0.37,0.38,0.69,0.66,0.97c0.28,0.28,0.6,0.49,0.97,0.65c0.37,0.16,0.76,0.24,1.19,0.24c0.42,0,0.81-0.08,1.18-0.24
	c0.21-0.09,0.41-0.21,0.59-0.34v1.6c-0.01,0.24-0.06,0.46-0.15,0.66c-0.09,0.2-0.22,0.38-0.38,0.53c-0.16,0.15-0.35,0.27-0.56,0.36
	c-0.21,0.09-0.44,0.14-0.68,0.14c-0.31,0-0.61-0.08-0.89-0.24c-0.11-0.08-0.24-0.12-0.39-0.12c-0.18,0-0.33,0.06-0.46,0.18
	c-0.12,0.12-0.19,0.27-0.19,0.46c0,0.24,0.1,0.42,0.29,0.55c0.19,0.13,0.4,0.23,0.63,0.3c0.23,0.07,0.54,0.12,0.94,0.15
	c0.71,0,1.33-0.2,1.86-0.59c0.81-0.57,1.27-1.4,1.27-2.33c0-0.63,0-2.91,0-4.12c0-0.45,0-0.76,0-0.76v-4c0-0.18-0.06-0.33-0.19-0.46
	C179.09,28.45,178.94,28.39,178.77,28.39z M187.67,31.1H185c-0.36,0-0.65,0.27-0.65,0.62c0,0.36,0.29,0.65,0.65,0.65h2.13v1.01
	c0,1.38-1.24,2.41-2.56,2.41c-1.45,0-2.68-0.99-2.68-2.68v-3.85c0-1.57,1.18-2.68,2.64-2.68c1.23,0,2.16,0.81,2.53,1.83
	c0.12,0.21,0.29,0.34,0.58,0.34c0.5,0,0.81-0.4,0.57-0.98c-0.41-1.24-1.67-2.51-3.68-2.51c-2.3,0-3.96,1.82-3.96,3.92v4
	c0,2.11,1.66,3.93,3.96,3.93c2.08,0,3.83-1.62,3.83-3.47v-1.93C188.36,31.34,188.04,31.1,187.67,31.1z M142.28,28.23
	c0.21,0.47,0.31,0.98,0.31,1.52c0,0.54-0.1,1.04-0.31,1.51c-0.21,0.47-0.49,0.88-0.84,1.23c-0.35,0.35-0.77,0.63-1.25,0.83
	c-0.48,0.2-0.99,0.31-1.53,0.31h-1.92v2.51c0,0.18-0.06,0.32-0.18,0.45c-0.12,0.12-0.27,0.18-0.45,0.18c-0.16,0-0.31-0.06-0.44-0.18
	c-0.13-0.12-0.19-0.27-0.19-0.45v-9.64c0-0.18,0.06-0.32,0.18-0.45c0.12-0.12,0.27-0.18,0.45-0.18h2.53h0.02
	c0.54,0,1.05,0.1,1.52,0.31c0.47,0.2,0.89,0.48,1.25,0.83C141.79,27.34,142.07,27.75,142.28,28.23z M141.34,29.75
	c0-0.36-0.07-0.7-0.21-1.02c-0.14-0.32-0.34-0.6-0.58-0.83c-0.24-0.24-0.53-0.42-0.85-0.56c-0.32-0.14-0.67-0.21-1.03-0.21h-1.92
	v5.25h1.92c0.37,0,0.72-0.07,1.05-0.21c0.32-0.14,0.61-0.32,0.85-0.56c0.24-0.24,0.43-0.51,0.57-0.83
	C141.27,30.45,141.34,30.11,141.34,29.75z M125.13,29.53v-4.8c0-2.2-1.79-4-4-4c-2.2,0-4,1.79-4,4v0.74c0,0.35,0.29,0.64,0.64,0.64
	c0.35,0,0.64-0.29,0.64-0.64v-0.74c0-1.5,1.22-2.72,2.72-2.72c1.5,0,2.72,1.22,2.72,2.72v4.8c0,1.5-1.22,2.72-2.72,2.72
	c-0.34,0-0.68-0.06-0.99-0.19c-0.2-0.08-0.42-0.05-0.59,0.07c-0.17,0.12-0.28,0.32-0.28,0.53v4.35c0,0.24-0.19,0.43-0.43,0.43
	c-0.24,0-0.43-0.19-0.43-0.43v-9.37c0-0.35-0.29-0.64-0.64-0.64c-0.35,0-0.64,0.29-0.64,0.64v9.37c0,0.94,0.76,1.7,1.7,1.7
	c0.94,0,1.7-0.76,1.7-1.7l0-3.52c0.19,0.03,0.39,0.04,0.59,0.04C123.33,33.53,125.13,31.74,125.13,29.53z M118.71,39.72
	c-0.16-0.31-0.55-0.44-0.86-0.27c-0.31,0.16-0.43,0.55-0.27,0.86c0.69,1.34,2.05,2.17,3.55,2.17c2.2,0,4-1.79,4-4v-1.31
	c0-0.35-0.29-0.64-0.64-0.64s-0.64,0.29-0.64,0.64v1.31c0,1.5-1.22,2.72-2.72,2.72C120.11,41.2,119.18,40.63,118.71,39.72z
	 M122.36,36.53c-0.35,0-0.64,0.29-0.64,0.64v1.31c0,0.33-0.27,0.59-0.59,0.59c-0.11,0-0.21-0.03-0.3-0.08
	c-0.3-0.18-0.69-0.07-0.87,0.23c-0.18,0.3-0.07,0.69,0.23,0.87c0.28,0.17,0.61,0.25,0.94,0.25c1.03,0,1.87-0.84,1.87-1.87v-1.31
	C123,36.82,122.71,36.53,122.36,36.53z M120.94,18.61c-3.28,0.1-5.94,2.9-5.94,6.24v13.62c0,1.67,0.66,3.23,1.86,4.4
	c1.15,1.12,2.66,1.73,4.26,1.73c0.06,0,0.12,0,0.19,0c3.28-0.1,5.94-2.9,5.94-6.24v-1.04c0-1.61-1.31-2.92-2.92-2.92h-1.98
	c-0.35,0-0.64,0.29-0.64,0.64c0,0.35,0.29,0.64,0.64,0.64h1.98c0.91,0,1.65,0.74,1.65,1.65v1.04c0,2.66-2.11,4.89-4.71,4.97
	c-1.32,0.04-2.57-0.45-3.52-1.37c-0.95-0.92-1.48-2.16-1.48-3.48V24.85c0-2.66,2.11-4.89,4.71-4.97c1.32-0.04,2.57,0.45,3.53,1.37
	c0.95,0.92,1.48,2.16,1.48,3.48v8c0,0.35,0.29,0.64,0.64,0.64c0.35,0,0.64-0.29,0.64-0.64v-8c0-1.67-0.66-3.23-1.86-4.4
	C124.19,19.17,122.62,18.56,120.94,18.61z M119.26,29.53v-4.8c0-1.03,0.84-1.87,1.87-1.87c1.03,0,1.87,0.84,1.87,1.87v4.8
	c0,1.03-0.84,1.87-1.87,1.87C120.1,31.4,119.26,30.56,119.26,29.53z M120.54,29.53c0,0.33,0.27,0.59,0.59,0.59
	c0.33,0,0.59-0.27,0.59-0.59v-4.8c0-0.33-0.27-0.59-0.59-0.59c-0.33,0-0.59,0.27-0.59,0.59V29.53z M129.39,24.88v10.07v0.16v3.37
	c0,2.24-0.88,4.34-2.49,5.91c-1.56,1.52-3.6,2.35-5.76,2.35c-0.07,0-0.13,0-0.2,0c-4.44-0.1-8.06-3.87-8.06-8.4v-13.6
	c0-2.24,0.88-4.34,2.49-5.91c1.61-1.57,3.73-2.4,5.97-2.35C125.77,16.58,129.39,20.35,129.39,24.88z M128.11,24.88
	c0-3.84-3.06-7.04-6.81-7.12c-1.9-0.05-3.69,0.66-5.04,1.99c-1.36,1.33-2.11,3.1-2.11,4.99v13.6c0,3.84,3.06,7.04,6.81,7.12
	c1.89,0.04,3.69-0.66,5.04-1.99c1.36-1.33,2.11-3.1,2.11-4.99V35.1v-0.16V24.88z M216.12,25.68h0.24v0.71h0.2v-0.71h0.24v-0.17
	h-0.68V25.68z M217.8,25.51h-0.26l-0.09,0.29c-0.03,0.1-0.06,0.21-0.08,0.32h0c-0.02-0.1-0.05-0.21-0.07-0.32l-0.09-0.29h-0.27
	l-0.06,0.88h0.18l0.02-0.34c0.01-0.11,0.01-0.25,0.02-0.37h0c0.02,0.12,0.05,0.24,0.08,0.34l0.09,0.34h0.16l0.11-0.34
	c0.03-0.1,0.07-0.23,0.1-0.34h0c0,0.13,0,0.26,0.01,0.36l0.01,0.34h0.2L217.8,25.51z"/>
</svg>
