<svg id="Layer_1" xmlns="http://www.w3.org/2000/svg" viewBox="0 0 728 90"><style>.st0{fill:url(#SVGID_1_)}</style><linearGradient id="SVGID_1_" gradientUnits="userSpaceOnUse" x1="237.713" y1="45.602" x2="521.339" y2="45.602"><stop offset="0" stop-color="#18b9fb"/><stop offset=".5" stop-color="#782eeb"/><stop offset="1" stop-color="#e82d8a"/></linearGradient><path class="st0" d="M253.16 26.91h-5.55v15.04h-4.46V26.91h-5.45v-3.44h15.45v3.44zm9.17 5.18l-1.41-.1c-1.35 0-2.21.42-2.59 1.27v8.7h-4.28V28.22h4.01l.14 1.76c.72-1.35 1.72-2.02 3.01-2.02.46 0 .85.05 1.19.15l-.07 3.98zm8.9 9.87c-.15-.28-.29-.69-.41-1.23-.79.99-1.89 1.49-3.3 1.49-1.29 0-2.4-.39-3.3-1.17s-1.36-1.77-1.36-2.95c0-1.49.55-2.62 1.65-3.38s2.7-1.14 4.8-1.14h1.32v-.73c0-1.27-.55-1.9-1.64-1.9-1.02 0-1.52.5-1.52 1.51h-4.28c0-1.33.57-2.4 1.69-3.23 1.13-.83 2.57-1.24 4.32-1.24s3.14.43 4.15 1.28 1.54 2.03 1.56 3.52v6.08c.02 1.26.21 2.23.58 2.89v.22h-4.26zm-2.68-2.79c.53 0 .98-.11 1.33-.34.35-.23.6-.49.75-.77v-2.2h-1.24c-1.49 0-2.23.67-2.23 2.01 0 .39.13.7.39.95s.59.35 1 .35zm14.55-.26c.6 0 1.07-.16 1.4-.49s.49-.78.48-1.36h4.01c0 1.51-.54 2.74-1.62 3.71-1.08.96-2.47 1.45-4.17 1.45-2 0-3.57-.63-4.72-1.88s-1.73-2.99-1.73-5.21v-.18c0-1.39.26-2.61.77-3.68.51-1.06 1.25-1.88 2.22-2.45s2.11-.86 3.43-.86c1.79 0 3.2.5 4.25 1.49s1.57 2.33 1.57 4.02h-4.01c0-.71-.17-1.26-.52-1.64s-.81-.57-1.4-.57c-1.11 0-1.76.71-1.94 2.12-.06.45-.09 1.07-.09 1.85 0 1.38.17 2.34.5 2.87s.85.81 1.57.81zm13.21-2.07l-1.21 1.21v3.91h-4.28V22.45h4.28v10.36l.43-.57 3.22-4.01h5.13l-4.81 5.65 5.13 8.09h-4.9l-2.99-5.13zm20.67-.87l2.29-7.74h4.58l-5.6 16.03-.24.58c-.8 1.78-2.2 2.67-4.21 2.67-.56 0-1.15-.08-1.76-.25v-3.05h.56c.6 0 1.06-.09 1.38-.26.32-.17.55-.49.7-.93l.34-.91-4.77-13.87h4.57l2.16 7.73zm7.25-1.01c0-1.37.27-2.59.8-3.66s1.3-1.89 2.3-2.47 2.17-.86 3.52-.86c2.06 0 3.68.64 4.86 1.91s1.78 3.01 1.78 5.2v.15c0 2.14-.59 3.84-1.78 5.1-1.19 1.26-2.8 1.89-4.83 1.89-1.96 0-3.53-.59-4.71-1.76s-1.82-2.76-1.92-4.77l-.02-.73zm4.28.27c0 1.27.2 2.2.6 2.79s.99.89 1.76.89c1.52 0 2.3-1.17 2.34-3.52v-.43c0-2.46-.79-3.69-2.36-3.69-1.43 0-2.21 1.06-2.32 3.19l-.02.77zm19.04 5.24c-.91 1.16-2.13 1.74-3.67 1.74-1.51 0-2.65-.44-3.42-1.31-.77-.88-1.16-2.13-1.16-3.78v-8.9h4.28v8.92c0 1.18.57 1.76 1.71 1.76.98 0 1.68-.35 2.09-1.05v-9.64h4.3v13.74h-4.01l-.12-1.48zm14.79-8.38l-1.41-.1c-1.35 0-2.21.42-2.59 1.27v8.7h-4.28V28.22h4.01l.14 1.76c.72-1.35 1.72-2.02 3.01-2.02.46 0 .85.05 1.19.15l-.07 3.98zm13.83 6.82c.6 0 1.07-.16 1.4-.49s.49-.78.48-1.36h4.01c0 1.51-.54 2.74-1.62 3.71-1.08.96-2.47 1.45-4.17 1.45-2 0-3.57-.63-4.72-1.88s-1.73-2.99-1.73-5.21v-.18c0-1.39.26-2.61.77-3.68.51-1.06 1.25-1.88 2.22-2.45s2.11-.86 3.43-.86c1.79 0 3.2.5 4.25 1.49s1.57 2.33 1.57 4.02h-4.01c0-.71-.17-1.26-.52-1.64s-.81-.57-1.4-.57c-1.11 0-1.76.71-1.94 2.12-.06.45-.09 1.07-.09 1.85 0 1.38.17 2.34.5 2.87s.85.81 1.57.81zm16.01-6.82l-1.41-.1c-1.35 0-2.21.42-2.59 1.27v8.7h-4.28V28.22h4.01l.14 1.76c.72-1.35 1.72-2.02 3.01-2.02.46 0 .85.05 1.19.15l-.07 3.98zm7.94 10.12c-2.11 0-3.81-.63-5.12-1.89s-1.96-2.89-1.96-4.91v-.36c0-1.4.26-2.65.78-3.72.52-1.07 1.28-1.91 2.28-2.49s2.18-.88 3.55-.88c1.93 0 3.45.6 4.57 1.8s1.68 2.87 1.68 5.01v1.66h-8.51c.15.77.49 1.38 1 1.82s1.18.66 2.01.66c1.35 0 2.41-.47 3.17-1.42l1.96 2.31c-.53.74-1.29 1.32-2.27 1.76-.96.43-2.01.65-3.14.65zm-.48-10.94c-1.25 0-2 .83-2.23 2.49h4.32v-.33c.02-.69-.16-1.22-.52-1.59s-.89-.57-1.57-.57zm7.45 3.72c0-2.18.47-3.89 1.41-5.14s2.25-1.88 3.94-1.88c1.23 0 2.26.48 3.1 1.45v-6.96h4.29v19.5h-3.85l-.22-1.47c-.88 1.15-2 1.73-3.35 1.73-1.63 0-2.93-.63-3.88-1.88s-1.44-3.04-1.44-5.35zm4.28.27c0 2.44.71 3.66 2.13 3.66.95 0 1.62-.4 2.03-1.19V32.5c-.39-.81-1.06-1.22-2.01-1.22-1.32 0-2.04 1.07-2.15 3.2v.78zm10.86-10.58c0-.61.22-1.11.66-1.5s1.01-.58 1.71-.58 1.27.19 1.71.58.66.89.66 1.5-.22 1.11-.66 1.5-1.01.58-1.71.58-1.27-.19-1.71-.58-.66-.89-.66-1.5zm4.54 17.28h-4.29V28.22h4.29v13.74zm7.62-17.15v3.42h2.26v2.97h-2.26v6.28c0 .52.09.88.28 1.08s.55.3 1.1.3c.42 0 .78-.03 1.07-.08v3.06c-.77.25-1.57.37-2.41.37-1.47 0-2.56-.35-3.26-1.04s-1.05-1.75-1.05-3.16v-6.82h-1.75v-2.97h1.75V24.8h4.27zM452 38.1c0-.36-.19-.66-.57-.88s-1.1-.45-2.17-.69-1.95-.55-2.64-.93-1.22-.85-1.59-1.4-.55-1.18-.55-1.89c0-1.26.52-2.3 1.56-3.12s2.4-1.23 4.09-1.23c1.81 0 3.27.41 4.37 1.23s1.65 1.9 1.65 3.24h-4.29c0-1.1-.58-1.65-1.74-1.65-.45 0-.83.12-1.13.37s-.46.56-.46.93c0 .38.19.69.56.93s.97.43 1.78.58c.82.15 1.53.33 2.15.55 2.07.71 3.1 1.98 3.1 3.82 0 1.25-.56 2.27-1.67 3.06-1.11.79-2.55 1.18-4.32 1.18-1.18 0-2.23-.21-3.15-.63s-1.64-1-2.16-1.73-.77-1.49-.77-2.3h4c.02.63.23 1.1.63 1.39s.93.44 1.56.44c.58 0 1.02-.12 1.31-.36.3-.22.45-.53.45-.91zm11.93.81c.6 0 1.07-.16 1.4-.49s.49-.78.48-1.36h4.01c0 1.51-.54 2.74-1.62 3.71-1.08.96-2.47 1.45-4.17 1.45-2 0-3.57-.63-4.72-1.88s-1.73-2.99-1.73-5.21v-.18c0-1.39.26-2.61.77-3.68.51-1.06 1.25-1.88 2.22-2.45s2.11-.86 3.43-.86c1.79 0 3.2.5 4.25 1.49s1.57 2.33 1.57 4.02h-4.01c0-.71-.17-1.26-.52-1.64s-.81-.57-1.4-.57c-1.11 0-1.76.71-1.94 2.12-.06.45-.09 1.07-.09 1.85 0 1.38.17 2.34.5 2.87s.85.81 1.57.81zm7.16-3.95c0-1.37.27-2.59.8-3.66s1.3-1.89 2.3-2.47 2.17-.86 3.52-.86c2.06 0 3.68.64 4.86 1.91s1.78 3.01 1.78 5.2v.15c0 2.14-.59 3.84-1.78 5.1-1.19 1.26-2.8 1.89-4.83 1.89-1.96 0-3.53-.59-4.71-1.76s-1.82-2.76-1.92-4.77l-.02-.73zm4.28.27c0 1.27.2 2.2.6 2.79s.99.89 1.76.89c1.52 0 2.3-1.17 2.34-3.52v-.43c0-2.46-.79-3.69-2.36-3.69-1.43 0-2.21 1.06-2.32 3.19l-.02.77zm19.17-3.14l-1.41-.1c-1.35 0-2.21.42-2.59 1.27v8.7h-4.28V28.22h4.01l.14 1.76c.72-1.35 1.72-2.02 3.01-2.02.46 0 .85.05 1.19.15l-.07 3.98zm7.95 10.12c-2.11 0-3.81-.63-5.12-1.89s-1.96-2.89-1.96-4.91v-.36c0-1.4.26-2.65.78-3.72.52-1.07 1.28-1.91 2.28-2.49s2.18-.88 3.55-.88c1.93 0 3.45.6 4.57 1.8s1.68 2.87 1.68 5.01v1.66h-8.51c.15.77.49 1.38 1 1.82s1.18.66 2.01.66c1.35 0 2.41-.47 3.17-1.42l1.96 2.31c-.53.74-1.29 1.32-2.27 1.76-.97.43-2.02.65-3.14.65zM502 31.27c-1.25 0-2 .83-2.23 2.49h4.32v-.33c.02-.69-.16-1.22-.52-1.59s-.89-.57-1.57-.57zm15.19 6.83c0-.36-.19-.66-.57-.88s-1.1-.45-2.17-.69-1.95-.55-2.64-.93-1.22-.85-1.59-1.4-.55-1.18-.55-1.89c0-1.26.52-2.3 1.56-3.12s2.4-1.23 4.09-1.23c1.81 0 3.27.41 4.37 1.23s1.65 1.9 1.65 3.24h-4.29c0-1.1-.58-1.65-1.74-1.65-.45 0-.83.12-1.13.37s-.46.56-.46.93c0 .38.19.69.56.93s.97.43 1.78.58c.82.15 1.53.33 2.15.55 2.07.71 3.1 1.98 3.1 3.82 0 1.25-.56 2.27-1.67 3.06-1.11.79-2.55 1.18-4.32 1.18-1.18 0-2.23-.21-3.15-.63s-1.64-1-2.16-1.73-.77-1.49-.77-2.3h4c.02.63.23 1.1.63 1.39s.93.44 1.56.44c.58 0 1.02-.12 1.31-.36.3-.22.45-.53.45-.91zM245.1 68.76c-2.11 0-3.81-.63-5.12-1.89s-1.96-2.89-1.96-4.91v-.36c0-1.4.26-2.65.78-3.72.52-1.07 1.28-1.91 2.28-2.49s2.18-.88 3.55-.88c1.93 0 3.45.6 4.57 1.8s1.68 2.87 1.68 5.01v1.66h-8.51c.15.77.49 1.38 1 1.82s1.18.66 2.01.66c1.35 0 2.41-.47 3.17-1.42l1.96 2.31c-.53.74-1.29 1.32-2.27 1.76-.96.43-2.01.65-3.14.65zm-.48-10.95c-1.25 0-2 .83-2.23 2.49h4.32v-.33c.02-.69-.16-1.22-.52-1.59s-.89-.57-1.57-.57zm15.73 10.69c-.15-.28-.29-.69-.41-1.23-.79.99-1.89 1.49-3.3 1.49-1.29 0-2.4-.39-3.3-1.17s-1.36-1.77-1.36-2.95c0-1.49.55-2.62 1.65-3.38s2.7-1.14 4.8-1.14h1.32v-.73c0-1.27-.55-1.9-1.64-1.9-1.02 0-1.52.5-1.52 1.51h-4.28c0-1.33.57-2.4 1.69-3.23 1.13-.83 2.57-1.24 4.32-1.24s3.14.43 4.15 1.28 1.54 2.03 1.56 3.52v6.08c.02 1.26.21 2.23.58 2.89v.22h-4.26zm-2.68-2.79c.53 0 .98-.11 1.33-.34.35-.23.6-.49.75-.77v-2.2h-1.24c-1.49 0-2.23.67-2.23 2.01 0 .39.13.7.39.95s.59.35 1 .35zm14.55-.25c.6 0 1.07-.16 1.4-.49s.49-.78.48-1.36h4.01c0 1.51-.54 2.74-1.62 3.71-1.08.96-2.47 1.45-4.17 1.45-2 0-3.57-.63-4.72-1.88s-1.73-2.99-1.73-5.21v-.18c0-1.39.26-2.61.77-3.68.51-1.06 1.25-1.88 2.22-2.45s2.11-.86 3.43-.86c1.79 0 3.2.5 4.25 1.49s1.57 2.33 1.57 4.02h-4.01c0-.71-.17-1.26-.52-1.64s-.81-.57-1.4-.57c-1.11 0-1.76.71-1.94 2.12-.06.45-.09 1.07-.09 1.85 0 1.38.17 2.34.5 2.87s.85.81 1.57.81zm11.88-9.22c.91-1.15 2.08-1.73 3.5-1.73 1.51 0 2.66.45 3.43 1.35s1.16 2.22 1.18 3.97v8.67h-4.29v-8.57c0-.73-.15-1.26-.44-1.61s-.8-.51-1.51-.51c-.88 0-1.5.28-1.87.84v9.85h-4.28V49h4.28v7.24zm21.01-1.47l.14 1.61c.97-1.24 2.28-1.87 3.92-1.87 1.74 0 2.91.69 3.52 2.07.93-1.38 2.28-2.07 4.04-2.07 2.78 0 4.21 1.68 4.29 5.05v8.94h-4.29v-8.67c0-.7-.12-1.21-.36-1.54s-.67-.48-1.29-.48c-.85 0-1.48.38-1.89 1.13l.01.18v9.38h-4.29v-8.65c0-.72-.11-1.24-.34-1.56s-.66-.48-1.31-.48c-.82 0-1.45.38-1.88 1.13v9.56h-4.28V54.77h4.01zm17.81 6.74c0-1.37.27-2.59.8-3.66s1.3-1.89 2.3-2.47 2.17-.86 3.52-.86c2.06 0 3.68.64 4.86 1.91s1.78 3.01 1.78 5.2v.15c0 2.14-.59 3.84-1.78 5.1-1.19 1.26-2.8 1.89-4.83 1.89-1.96 0-3.53-.59-4.71-1.76s-1.82-2.76-1.92-4.77l-.02-.73zm4.28.27c0 1.27.2 2.2.6 2.79s.99.89 1.76.89c1.52 0 2.3-1.17 2.34-3.52v-.43c0-2.46-.79-3.69-2.36-3.69-1.43 0-2.21 1.06-2.32 3.19l-.02.77zm14.79-7.01l.14 1.61c.95-1.24 2.26-1.87 3.92-1.87 1.43 0 2.5.43 3.21 1.28.71.85 1.07 2.14 1.1 3.86v8.85h-4.29v-8.67c0-.69-.14-1.2-.42-1.53s-.79-.49-1.52-.49c-.84 0-1.46.33-1.87.99v9.7h-4.28V54.77h4.01zm15.72-3.42v3.42h2.26v2.97h-2.26v6.28c0 .52.09.88.28 1.08s.55.3 1.1.3c.42 0 .78-.03 1.07-.08v3.06c-.77.25-1.57.37-2.41.37-1.47 0-2.56-.35-3.26-1.04s-1.05-1.75-1.05-3.16v-6.82h-1.75v-2.97h1.75v-3.42h4.27zm8.12 4.89c.91-1.15 2.08-1.73 3.5-1.73 1.51 0 2.66.45 3.43 1.35s1.16 2.22 1.18 3.97v8.67h-4.29v-8.57c0-.73-.15-1.26-.44-1.61s-.8-.51-1.51-.51c-.88 0-1.5.28-1.87.84v9.85h-4.28V49h4.28v7.24z"/></svg>