<svg id="Layer_1" xmlns="http://www.w3.org/2000/svg" viewBox="0 0 728 90"><style>.st0{fill:url(#SVGID_1_)}</style><linearGradient id="SVGID_1_" gradientUnits="userSpaceOnUse" x1="237.195" y1="46.738" x2="488.224" y2="46.738"><stop offset="0" stop-color="#18b9fb"/><stop offset=".5" stop-color="#782eeb"/><stop offset="1" stop-color="#e82d8a"/></linearGradient><path class="st0" d="M243.61 33.25h-2.01v5.45h-3.72V23.29h6.07c1.83 0 3.26.41 4.29 1.22 1.03.81 1.55 1.96 1.55 3.44 0 1.07-.22 1.96-.65 2.67s-1.11 1.28-2.04 1.71l3.22 6.22v.16h-3.98l-2.73-5.46zm-2.01-2.86h2.35c.71 0 1.24-.19 1.59-.56.36-.37.53-.89.53-1.56s-.18-1.19-.54-1.57c-.36-.38-.89-.57-1.59-.57h-2.35v4.26zm15.81 8.52c-1.76 0-3.18-.52-4.27-1.57-1.09-1.05-1.63-2.41-1.63-4.09v-.3c0-1.17.22-2.21.65-3.1.43-.9 1.07-1.59 1.9-2.08.83-.49 1.82-.74 2.96-.74 1.61 0 2.88.5 3.81 1.5.93 1 1.4 2.39 1.4 4.18v1.39h-7.09c.13.64.41 1.15.84 1.51.43.37.99.55 1.67.55 1.13 0 2.01-.39 2.65-1.19l1.63 1.93c-.44.61-1.07 1.1-1.89 1.47s-1.7.54-2.63.54zm-.41-9.12c-1.04 0-1.67.69-1.86 2.07h3.6v-.28c.01-.57-.13-1.01-.43-1.33s-.74-.46-1.31-.46zm11.51 6.37c.5 0 .89-.14 1.16-.41.28-.27.41-.65.4-1.14h3.35c0 1.26-.45 2.29-1.35 3.09-.9.8-2.06 1.21-3.48 1.21-1.67 0-2.98-.52-3.94-1.57s-1.44-2.49-1.44-4.34v-.15c0-1.16.21-2.18.64-3.06.43-.89 1.04-1.57 1.85-2.04s1.76-.71 2.86-.71c1.49 0 2.67.41 3.55 1.24.88.83 1.31 1.94 1.31 3.36h-3.35c0-.59-.15-1.05-.43-1.37s-.68-.48-1.16-.48c-.92 0-1.46.59-1.62 1.77-.05.37-.07.89-.07 1.55 0 1.15.14 1.95.41 2.39.27.44.71.66 1.31.66zm11.96 2.75c-1.76 0-3.18-.52-4.27-1.57-1.09-1.05-1.63-2.41-1.63-4.09v-.3c0-1.17.22-2.21.65-3.1.43-.9 1.07-1.59 1.9-2.08.83-.49 1.82-.74 2.96-.74 1.61 0 2.88.5 3.81 1.5.93 1 1.4 2.39 1.4 4.18v1.39h-7.09c.13.64.41 1.15.84 1.51.43.37.99.55 1.67.55 1.13 0 2.01-.39 2.65-1.19l1.63 1.93c-.44.61-1.07 1.1-1.89 1.47-.81.36-1.69.54-2.63.54zm-.4-9.12c-1.04 0-1.67.69-1.86 2.07h3.6v-.28c.01-.57-.13-1.01-.43-1.33s-.74-.46-1.31-.46zm6.64-5.5c0-.51.18-.92.55-1.25.37-.33.84-.49 1.43-.49s1.06.16 1.43.49c.37.33.55.74.55 1.25s-.18.92-.55 1.25c-.37.33-.84.49-1.43.49s-1.06-.16-1.43-.49c-.37-.32-.55-.74-.55-1.25zm3.79 14.41h-3.58V27.25h3.58V38.7zm6.76-4.24l1.81-7.21h3.76l-3.74 11.45h-3.64l-3.74-11.45h3.77l1.78 7.21zm12.04 4.45c-1.76 0-3.18-.52-4.27-1.57-1.09-1.05-1.63-2.41-1.63-4.09v-.3c0-1.17.22-2.21.65-3.1.43-.9 1.07-1.59 1.9-2.08.83-.49 1.82-.74 2.96-.74 1.61 0 2.88.5 3.81 1.5.93 1 1.4 2.39 1.4 4.18v1.39h-7.09c.13.64.41 1.15.84 1.51.43.37.99.55 1.67.55 1.13 0 2.01-.39 2.65-1.19l1.63 1.93c-.44.61-1.07 1.1-1.89 1.47-.81.36-1.69.54-2.63.54zm-.4-9.12c-1.04 0-1.67.69-1.86 2.07h3.6v-.28c.01-.57-.13-1.01-.43-1.33s-.75-.46-1.31-.46zm16.9 6.37c.5 0 .89-.14 1.16-.41.28-.27.41-.65.4-1.14h3.35c0 1.26-.45 2.29-1.35 3.09-.9.8-2.06 1.21-3.48 1.21-1.67 0-2.98-.52-3.94-1.57-.96-1.04-1.44-2.49-1.44-4.34v-.15c0-1.16.21-2.18.64-3.06.43-.89 1.04-1.57 1.85-2.04.8-.48 1.76-.71 2.86-.71 1.49 0 2.67.41 3.55 1.24.88.83 1.31 1.94 1.31 3.36h-3.35c0-.59-.15-1.05-.43-1.37-.29-.32-.68-.48-1.16-.48-.92 0-1.46.59-1.62 1.77-.05.37-.07.89-.07 1.55 0 1.15.14 1.95.41 2.39.28.44.71.66 1.31.66zm13.35-5.68l-1.18-.08c-1.12 0-1.84.35-2.16 1.06v7.25h-3.57V27.25h3.35l.12 1.47c.6-1.12 1.44-1.68 2.51-1.68.38 0 .71.04 1 .13l-.07 3.31zm6.63 8.43c-1.76 0-3.18-.52-4.27-1.57-1.09-1.05-1.63-2.41-1.63-4.09v-.3c0-1.17.22-2.21.65-3.1.43-.9 1.07-1.59 1.9-2.08.83-.49 1.82-.74 2.96-.74 1.61 0 2.88.5 3.81 1.5.93 1 1.4 2.39 1.4 4.18v1.39h-7.09c.13.64.41 1.15.84 1.51.43.37.99.55 1.67.55 1.13 0 2.01-.39 2.65-1.19l1.63 1.93c-.44.61-1.07 1.1-1.89 1.47-.81.36-1.69.54-2.63.54zm-.4-9.12c-1.04 0-1.67.69-1.86 2.07h3.6v-.28c.01-.57-.13-1.01-.43-1.33s-.75-.46-1.31-.46zm6.21 3.1c0-1.81.39-3.24 1.18-4.29.78-1.04 1.88-1.57 3.28-1.57 1.02 0 1.88.4 2.58 1.21v-5.8h3.58V38.7H359l-.18-1.23c-.73.96-1.67 1.44-2.79 1.44-1.36 0-2.44-.52-3.24-1.57-.8-1.04-1.2-2.52-1.2-4.45zm3.57.22c0 2.03.59 3.05 1.78 3.05.79 0 1.36-.33 1.69-1V30.8c-.32-.68-.88-1.02-1.67-1.02-1.1 0-1.7.89-1.79 2.67l-.01.66zm9.05-8.82c0-.51.18-.92.55-1.25.37-.33.84-.49 1.43-.49s1.06.16 1.43.49c.37.33.55.74.55 1.25s-.18.92-.55 1.25c-.37.33-.84.49-1.43.49s-1.06-.16-1.43-.49c-.36-.32-.55-.74-.55-1.25zM368 38.7h-3.58V27.25H368V38.7zm6.35-14.3v2.85h1.88v2.48h-1.88v5.24c0 .43.08.73.23.9s.46.25.92.25c.35 0 .65-.02.89-.06v2.55c-.64.2-1.31.31-2.01.31-1.23 0-2.14-.29-2.72-.87-.59-.58-.88-1.46-.88-2.64v-5.68h-1.46v-2.48h1.46V24.4h3.57zm12.06 2.85l.12 1.34c.81-1.04 1.9-1.56 3.27-1.56 1.45 0 2.42.57 2.93 1.73.78-1.15 1.9-1.73 3.37-1.73 2.32 0 3.51 1.4 3.58 4.21v7.45h-3.58v-7.23c0-.59-.1-1.01-.3-1.28-.2-.27-.56-.4-1.08-.4-.71 0-1.23.31-1.58.94l.01.15v7.82h-3.58v-7.21c0-.6-.1-1.03-.29-1.3-.19-.27-.55-.4-1.09-.4-.68 0-1.21.31-1.57.94v7.97h-3.57V27.25h3.36zm14.86 5.62c0-1.14.22-2.16.67-3.05s1.08-1.58 1.92-2.06 1.81-.72 2.93-.72c1.72 0 3.07.53 4.05 1.59s1.48 2.51 1.48 4.34v.13c0 1.79-.5 3.2-1.49 4.25-.99 1.05-2.33 1.57-4.03 1.57-1.63 0-2.94-.49-3.93-1.47-.99-.98-1.52-2.3-1.6-3.98v-.6zm3.56.22c0 1.06.17 1.83.5 2.33.33.49.82.74 1.47.74 1.27 0 1.92-.98 1.95-2.93v-.36c0-2.05-.66-3.08-1.97-3.08-1.19 0-1.84.89-1.94 2.66l-.01.64zm12.34-5.84l.12 1.34c.79-1.04 1.88-1.56 3.27-1.56 1.19 0 2.08.36 2.67 1.07.59.71.89 1.79.92 3.22v7.38h-3.58v-7.23c0-.58-.12-1-.35-1.28-.23-.27-.66-.41-1.27-.41-.7 0-1.22.28-1.56.83v8.09h-3.57V27.25h3.35zm8.92-2.96c0-.51.18-.92.55-1.25.37-.33.84-.49 1.43-.49s1.06.16 1.43.49.55.74.55 1.25-.18.92-.55 1.25c-.37.33-.84.49-1.43.49s-1.06-.16-1.43-.49c-.37-.32-.55-.74-.55-1.25zm3.79 14.41h-3.58V27.25h3.58V38.7zm6.35-14.3v2.85h1.88v2.48h-1.88v5.24c0 .43.08.73.23.9.16.17.46.25.92.25.35 0 .65-.02.89-.06v2.55c-.64.2-1.31.31-2.01.31-1.23 0-2.14-.29-2.72-.87-.59-.58-.88-1.46-.88-2.64v-5.68h-1.46v-2.48h1.46V24.4h3.57zm2.52 8.47c0-1.14.22-2.16.67-3.05.44-.89 1.08-1.58 1.92-2.06s1.81-.72 2.93-.72c1.71 0 3.07.53 4.05 1.59.99 1.06 1.48 2.51 1.48 4.34v.13c0 1.79-.5 3.2-1.49 4.25-.99 1.05-2.33 1.57-4.03 1.57-1.63 0-2.94-.49-3.93-1.47-.99-.98-1.52-2.3-1.6-3.98v-.6zm3.57.22c0 1.06.17 1.83.5 2.33.33.49.82.74 1.47.74 1.27 0 1.92-.98 1.95-2.93v-.36c0-2.05-.66-3.08-1.97-3.08-1.19 0-1.84.89-1.94 2.66l-.01.64zm15.99-2.61l-1.18-.08c-1.12 0-1.84.35-2.16 1.06v7.25h-3.57V27.25h3.35l.12 1.47c.6-1.12 1.44-1.68 2.51-1.68.38 0 .71.04 1 .13l-.07 3.31zm1.26-6.19c0-.51.18-.92.55-1.25.37-.33.84-.49 1.43-.49s1.06.16 1.43.49c.37.33.55.74.55 1.25s-.18.92-.55 1.25c-.37.33-.84.49-1.43.49s-1.06-.16-1.43-.49c-.37-.32-.55-.74-.55-1.25zm3.79 14.41h-3.58V27.25h3.58V38.7zm5.47-11.45l.12 1.34c.79-1.04 1.88-1.56 3.27-1.56 1.19 0 2.08.36 2.67 1.07.59.71.89 1.79.92 3.22v7.38h-3.58v-7.23c0-.58-.12-1-.35-1.28-.23-.27-.66-.41-1.27-.41-.7 0-1.22.28-1.56.83v8.09h-3.57V27.25h3.35zm8.53 5.64c0-1.16.19-2.18.57-3.07.38-.89.93-1.58 1.64-2.06.71-.48 1.54-.73 2.49-.73 1.19 0 2.12.4 2.79 1.21l.13-1h3.24v11.02c0 1.01-.24 1.89-.7 2.63s-1.15 1.32-2.04 1.72c-.89.4-1.92.6-3.09.6-.84 0-1.65-.16-2.44-.48-.79-.32-1.39-.73-1.81-1.24l1.49-2.1c.66.78 1.54 1.18 2.63 1.18 1.58 0 2.37-.81 2.37-2.43v-.36c-.68.75-1.55 1.13-2.59 1.13-1.4 0-2.53-.53-3.39-1.6s-1.29-2.5-1.29-4.29v-.13zm3.58.22c0 .94.18 1.68.53 2.23.35.55.85.82 1.48.82.77 0 1.33-.26 1.68-.77v-4.82c-.35-.52-.9-.78-1.66-.78-.64 0-1.13.28-1.49.85-.36.57-.54 1.39-.54 2.47zM244.17 66.89c-.13-.23-.24-.57-.34-1.03-.66.83-1.57 1.24-2.75 1.24-1.08 0-2-.33-2.75-.98s-1.13-1.47-1.13-2.46c0-1.24.46-2.18 1.38-2.82.92-.64 2.25-.95 4-.95h1.1v-.61c0-1.06-.46-1.58-1.37-1.58-.85 0-1.27.42-1.27 1.26h-3.57c0-1.11.47-2.01 1.41-2.7.94-.69 2.14-1.04 3.6-1.04s2.61.36 3.46 1.07 1.28 1.69 1.3 2.93v5.07c.01 1.05.18 1.86.49 2.41v.18h-3.56zm-2.23-2.33c.44 0 .81-.1 1.11-.29.29-.19.5-.41.63-.65v-1.83h-1.04c-1.24 0-1.86.56-1.86 1.67 0 .33.11.59.33.79.21.21.49.31.83.31zm11.05 2.33h-3.58V50.63h3.58v16.26zm7.74.21c-1.76 0-3.18-.52-4.27-1.57-1.09-1.05-1.63-2.41-1.63-4.09v-.3c0-1.17.22-2.21.65-3.1.43-.9 1.07-1.59 1.9-2.08s1.82-.74 2.96-.74c1.61 0 2.88.5 3.81 1.5.93 1 1.4 2.39 1.4 4.18v1.39h-7.09c.13.64.41 1.15.84 1.51.43.37.99.55 1.67.55 1.13 0 2.01-.39 2.65-1.19l1.63 1.93c-.44.61-1.07 1.1-1.89 1.47-.82.36-1.69.54-2.63.54zm-.4-9.13c-1.04 0-1.67.69-1.86 2.07h3.6v-.28c.01-.57-.13-1.01-.43-1.33-.31-.3-.75-.46-1.31-.46zm13.59.69l-1.18-.08c-1.12 0-1.84.35-2.16 1.06v7.25h-3.57V55.43h3.35l.12 1.47c.6-1.12 1.44-1.68 2.51-1.68.38 0 .71.04 1 .13l-.07 3.31zm5.97-6.08v2.85h1.88v2.48h-1.88v5.24c0 .43.08.73.23.9.16.17.46.25.92.25.35 0 .65-.02.89-.06v2.55c-.64.2-1.31.31-2.01.31-1.23 0-2.14-.29-2.72-.87-.59-.58-.88-1.46-.88-2.64v-5.68h-1.46v-2.48h1.46v-2.85h3.57zm9.29 11.09c0-.3-.16-.55-.48-.73s-.92-.37-1.81-.57c-.89-.2-1.62-.46-2.2-.78s-1.02-.71-1.32-1.17c-.3-.46-.46-.98-.46-1.58 0-1.05.43-1.92 1.3-2.6.87-.68 2-1.02 3.41-1.02 1.51 0 2.72.34 3.64 1.03.92.68 1.38 1.58 1.38 2.7h-3.58c0-.92-.48-1.38-1.45-1.38-.37 0-.69.1-.94.31s-.38.47-.38.78c0 .32.16.57.47.77.31.2.81.36 1.49.49.68.13 1.28.28 1.79.46 1.72.59 2.58 1.65 2.58 3.19 0 1.04-.46 1.89-1.39 2.55-.93.66-2.13.98-3.6.98-.98 0-1.86-.18-2.63-.53s-1.37-.83-1.8-1.44c-.43-.61-.65-1.25-.65-1.92h3.33c.01.53.19.92.53 1.16s.77.37 1.3.37c.49 0 .85-.1 1.1-.3.24-.2.37-.45.37-.77zm6.36 7.37l-1.8-.85.36-.72c.49-.92.75-1.79.77-2.63V64.2h2.86l-.01 2.3c-.01.81-.21 1.64-.62 2.48-.42.83-.93 1.52-1.56 2.06zm24.19-4.15h-13.98v-3.03l6.44-6.77c1.59-1.81 2.38-3.24 2.38-4.31 0-.86-.19-1.52-.56-1.97s-.92-.67-1.64-.67c-.71 0-1.28.3-1.72.9-.44.6-.66 1.35-.66 2.25h-4.65c0-1.23.31-2.37.92-3.41a6.535 6.535 0 0 1 2.56-2.44c1.09-.59 2.31-.88 3.66-.88 2.16 0 3.83.5 5 1.5s1.75 2.44 1.75 4.31c0 .79-.15 1.56-.44 2.3-.29.75-.75 1.53-1.37 2.35-.62.82-1.62 1.92-2.99 3.3l-2.59 2.99h7.89v3.58zm14.59-7.83h2.04v3.58h-2.04v4.25h-4.64v-4.25h-7.75l-.28-2.84 8.02-12.91v-.04h4.64v12.21zm-8.24 0h3.61v-6.17l-.29.47-3.32 5.7zm13.98 9.55h-3.29l6.84-21.76h3.3l-6.85 21.76zm22.16-19.28l-7.49 17.56h-4.9l7.5-16.46h-9.55v-3.58h14.44v2.48z"/></svg>