<svg id="Layer_1" xmlns="http://www.w3.org/2000/svg" viewBox="0 0 970 250"><style>.st0{fill:#001b91}</style><path class="st0" d="M456.65 56.5c0-.9-.32-1.61-.96-2.11s-1.76-1.03-3.37-1.56-2.92-1.06-3.94-1.56c-3.32-1.63-4.97-3.87-4.97-6.71 0-1.42.41-2.67 1.24-3.75s2-1.93 3.51-2.53 3.21-.91 5.1-.91c1.84 0 3.49.33 4.95.98s2.59 1.59 3.4 2.8 1.21 2.6 1.21 4.16h-6.15c0-1.04-.32-1.85-.96-2.43s-1.5-.86-2.59-.86c-1.1 0-1.97.24-2.61.73s-.96 1.1-.96 1.85c0 .66.35 1.25 1.05 1.78s1.94 1.08 3.71 1.65 3.22 1.18 4.36 1.84c2.77 1.59 4.15 3.79 4.15 6.59 0 2.24-.84 4-2.53 5.27s-4 1.92-6.94 1.92c-2.07 0-3.95-.37-5.63-1.12s-2.95-1.76-3.8-3.06-1.27-2.79-1.27-4.47h6.19c0 1.37.35 2.38 1.06 3.03s1.86.98 3.45.98c1.02 0 1.83-.22 2.42-.66s.88-1.05.88-1.85zM464.96 53.62c0-1.9.37-3.59 1.11-5.07s1.8-2.62 3.18-3.42 3.01-1.2 4.87-1.2c2.85 0 5.09.88 6.73 2.65s2.46 4.16 2.46 7.2v.21c0 2.96-.82 5.32-2.47 7.06s-3.88 2.61-6.69 2.61c-2.71 0-4.88-.81-6.52-2.43s-2.53-3.82-2.65-6.6l-.02-1.01zm5.92.37c0 1.76.28 3.05.83 3.87s1.37 1.23 2.44 1.23c2.11 0 3.19-1.62 3.23-4.87v-.6c0-3.41-1.09-5.12-3.27-5.12-1.98 0-3.05 1.47-3.22 4.41l-.01 1.08zM502.49 55l3.16-10.72H512l-7.75 22.2-.33.81c-1.1 2.46-3.05 3.69-5.84 3.69-.77 0-1.59-.12-2.44-.35v-4.22h.77c.83 0 1.47-.12 1.91-.36.44-.24.76-.67.98-1.29l.47-1.27-6.61-19.21h6.33l3 10.72zM512.79 53.62c0-1.9.37-3.59 1.11-5.07s1.8-2.62 3.18-3.42 3.01-1.2 4.87-1.2c2.85 0 5.09.88 6.73 2.65s2.46 4.16 2.46 7.2v.21c0 2.96-.82 5.32-2.47 7.06s-3.88 2.61-6.69 2.61c-2.71 0-4.88-.81-6.52-2.43s-2.53-3.82-2.65-6.6l-.02-1.01zm5.92.37c0 1.76.28 3.05.83 3.87s1.37 1.23 2.44 1.23c2.11 0 3.19-1.62 3.23-4.87v-.6c0-3.41-1.09-5.12-3.27-5.12-1.98 0-3.05 1.47-3.22 4.41l-.01 1.08zM545.08 61.25c-1.25 1.61-2.95 2.41-5.08 2.41-2.09 0-3.67-.61-4.74-1.82s-1.61-2.96-1.61-5.23V44.28h5.92v12.36c0 1.63.79 2.44 2.37 2.44 1.36 0 2.33-.49 2.9-1.46V44.28h5.96V63.3h-5.55l-.17-2.05zM570.66 56.22l-1.67 1.67v5.41h-5.92V36.28h5.92v14.34l.6-.79 4.46-5.55h7.1l-6.66 7.82 7.1 11.2h-6.79l-4.14-7.08zM588.15 44.28l.19 2.23c1.31-1.72 3.12-2.58 5.43-2.58 1.98 0 3.46.59 4.44 1.78s1.49 2.96 1.52 5.34V63.3h-5.94v-12c0-.96-.19-1.67-.58-2.12s-1.09-.68-2.11-.68c-1.16 0-2.02.46-2.58 1.37V63.3h-5.92V44.28h5.55zM602.26 53.62c0-1.9.37-3.59 1.11-5.07s1.8-2.62 3.18-3.42 3.01-1.2 4.87-1.2c2.85 0 5.09.88 6.73 2.65s2.46 4.16 2.46 7.2v.21c0 2.96-.82 5.32-2.47 7.06s-3.88 2.61-6.69 2.61c-2.71 0-4.88-.81-6.52-2.43s-2.53-3.82-2.65-6.6l-.02-1.01zm5.93.37c0 1.76.28 3.05.83 3.87s1.37 1.23 2.44 1.23c2.11 0 3.19-1.62 3.23-4.87v-.6c0-3.41-1.09-5.12-3.27-5.12-1.98 0-3.05 1.47-3.22 4.41l-.01 1.08zM639.65 55.5l1.92-11.21h5.68l-4.48 19.02h-5.01l-3.15-11.29-3.16 11.29h-5.01l-4.48-19.02h5.68l1.88 11.48 3.02-11.48h4.13l2.98 11.21zM674.76 55.5l1.92-11.21h5.68l-4.48 19.02h-5.01l-3.15-11.29-3.16 11.29h-5.01l-4.48-19.02h5.68l1.88 11.48 3.02-11.48h4.13l2.98 11.21zM690.26 46.32c1.27-1.59 2.88-2.39 4.85-2.39 2.1 0 3.68.62 4.75 1.86s1.61 3.08 1.63 5.5V63.3h-5.94V51.44c0-1.01-.21-1.75-.62-2.22s-1.11-.71-2.09-.71c-1.22 0-2.08.39-2.58 1.16V63.3h-5.92v-27h5.92v10.02zM713.99 63.65c-2.92 0-5.28-.87-7.08-2.61s-2.71-4-2.71-6.79v-.49c0-1.95.36-3.66 1.08-5.15s1.77-2.64 3.16-3.45 3.02-1.22 4.92-1.22c2.67 0 4.78.83 6.33 2.49s2.32 3.97 2.32 6.93v2.3h-11.78c.21 1.07.67 1.9 1.39 2.51s1.64.91 2.78.91c1.88 0 3.34-.66 4.39-1.97l2.71 3.2c-.74 1.02-1.78 1.83-3.14 2.43s-2.81.91-4.37.91zm-.67-15.15c-1.73 0-2.77 1.15-3.09 3.45h5.98v-.46c.02-.95-.22-1.68-.72-2.21s-1.23-.78-2.17-.78zM735.89 49.64l-1.95-.14c-1.86 0-3.06.59-3.59 1.76V63.3h-5.92V44.28h5.55l.19 2.44c1-1.86 2.38-2.79 4.17-2.79.63 0 1.18.07 1.65.21l-.1 5.5zM747.23 63.65c-2.92 0-5.28-.87-7.08-2.61s-2.71-4-2.71-6.79v-.49c0-1.95.36-3.66 1.08-5.15s1.77-2.64 3.16-3.45 3.02-1.22 4.92-1.22c2.67 0 4.78.83 6.33 2.49s2.32 3.97 2.32 6.93v2.3h-11.78c.21 1.07.67 1.9 1.39 2.51s1.64.91 2.78.91c1.88 0 3.34-.66 4.39-1.97l2.71 3.2c-.74 1.02-1.78 1.83-3.14 2.43s-2.81.91-4.37.91zm-.67-15.15c-1.73 0-2.77 1.15-3.09 3.45h5.98v-.46c.02-.95-.22-1.68-.72-2.21s-1.23-.78-2.17-.78zM774.2 55l3.16-10.72h6.35l-7.75 22.2-.33.81c-1.1 2.46-3.05 3.69-5.84 3.69-.77 0-1.59-.12-2.44-.35v-4.22h.77c.83 0 1.47-.12 1.91-.36.44-.24.76-.67.98-1.29l.47-1.27-6.61-19.21h6.33l3 10.72zM784.5 53.62c0-1.9.37-3.59 1.11-5.07s1.8-2.62 3.18-3.42 3.01-1.2 4.87-1.2c2.85 0 5.09.88 6.73 2.65s2.46 4.16 2.46 7.2v.21c0 2.96-.82 5.32-2.47 7.06s-3.88 2.61-6.69 2.61c-2.71 0-4.88-.81-6.52-2.43s-2.53-3.82-2.65-6.6l-.02-1.01zm5.92.37c0 1.76.28 3.05.83 3.87s1.37 1.23 2.44 1.23c2.11 0 3.19-1.62 3.23-4.87v-.6c0-3.41-1.09-5.12-3.27-5.12-1.98 0-3.05 1.47-3.22 4.41l-.01 1.08zM816.79 61.25c-1.25 1.61-2.95 2.41-5.08 2.41-2.09 0-3.67-.61-4.74-1.82s-1.61-2.96-1.61-5.23V44.28h5.92v12.36c0 1.63.79 2.44 2.37 2.44 1.36 0 2.33-.49 2.9-1.46V44.28h5.96V63.3h-5.55l-.17-2.05zM844.68 57.96c0-.5-.26-.91-.79-1.21s-1.53-.62-3.01-.95-2.7-.76-3.66-1.29-1.69-1.18-2.2-1.94-.76-1.63-.76-2.62c0-1.75.72-3.18 2.16-4.32s3.33-1.7 5.66-1.7c2.51 0 4.52.57 6.05 1.71s2.29 2.63 2.29 4.48h-5.94c0-1.52-.8-2.29-2.41-2.29-.62 0-1.14.17-1.56.52s-.63.78-.63 1.29c0 .53.26.96.77 1.28s1.34.6 2.47.81 2.12.46 2.98.76c2.86.98 4.29 2.75 4.29 5.29 0 1.73-.77 3.15-2.31 4.24s-3.54 1.63-5.99 1.63c-1.63 0-3.08-.29-4.36-.88s-2.27-1.38-2.99-2.39-1.07-2.07-1.07-3.18h5.54c.02.88.32 1.52.88 1.92s1.28.61 2.16.61c.81 0 1.42-.16 1.82-.49s.61-.75.61-1.28zM860.06 39.55v4.73h3.13v4.11h-3.13v8.7c0 .71.13 1.21.39 1.49s.77.42 1.53.42c.59 0 1.08-.04 1.48-.11v4.24c-1.07.34-2.18.51-3.34.51-2.04 0-3.54-.48-4.52-1.44s-1.46-2.42-1.46-4.38V48.4h-2.43v-4.11h2.43v-4.73h5.92zM876.24 63.3c-.21-.39-.4-.96-.56-1.71-1.09 1.37-2.61 2.06-4.57 2.06-1.79 0-3.32-.54-4.57-1.63s-1.88-2.45-1.88-4.09c0-2.06.76-3.62 2.29-4.68s3.74-1.58 6.64-1.58h1.83v-1.01c0-1.75-.76-2.63-2.27-2.63-1.41 0-2.11.7-2.11 2.08h-5.92c0-1.84.78-3.33 2.35-4.48 1.56-1.15 3.56-1.72 5.99-1.72s4.34.59 5.75 1.78 2.13 2.81 2.16 4.87V59c.02 1.75.29 3.08.81 4.01v.3h-5.94zm-3.71-3.87c.74 0 1.35-.16 1.84-.47s.83-.67 1.05-1.07v-3.04h-1.72c-2.06 0-3.09.93-3.09 2.78 0 .54.18.98.54 1.31s.81.49 1.38.49zM890.07 44.28l.19 2.23c1.31-1.72 3.12-2.58 5.43-2.58 1.98 0 3.46.59 4.44 1.78s1.49 2.96 1.52 5.34V63.3h-5.94v-12c0-.96-.19-1.67-.58-2.12s-1.09-.68-2.11-.68c-1.16 0-2.02.46-2.58 1.37V63.3h-5.92V44.28h5.55zM904.19 53.65c0-3.01.65-5.38 1.95-7.12s3.12-2.6 5.45-2.6c1.7 0 3.13.67 4.29 2V36.3h5.94v27h-5.33l-.3-2.04c-1.22 1.59-2.77 2.39-4.64 2.39-2.26 0-4.05-.87-5.38-2.6s-1.98-4.2-1.98-7.4zm5.92.37c0 3.38.98 5.06 2.95 5.06 1.31 0 2.25-.55 2.81-1.65v-7.24c-.54-1.12-1.46-1.69-2.78-1.69-1.83 0-2.82 1.48-2.97 4.43l-.01 1.09z"/></svg>