<svg id="Layer_1" xmlns="http://www.w3.org/2000/svg" viewBox="0 0 160 600"><style>.st0{fill:#021d8b}</style><path class="st0" d="M51.1 295.58h-3.84V306h-3.08v-10.42H40.4v-2.38h10.7v2.38zM56.14 306c-.11-.19-.2-.48-.28-.85-.54.69-1.31 1.03-2.29 1.03-.9 0-1.66-.27-2.29-.81s-.94-1.22-.94-2.04c0-1.03.38-1.81 1.14-2.34s1.87-.79 3.32-.79h.91v-.5c0-.88-.38-1.32-1.13-1.32-.7 0-1.05.35-1.05 1.04h-2.96c0-.92.39-1.67 1.17-2.24s1.78-.86 2.99-.86 2.17.3 2.87.89 1.06 1.4 1.08 2.43v4.21c.01.87.15 1.54.4 2v.15h-2.94zm-1.85-1.93c.37 0 .68-.08.92-.24s.42-.34.52-.54v-1.52h-.86c-1.03 0-1.55.46-1.55 1.39 0 .27.09.49.27.66.19.16.42.25.7.25zM64.19 299.11l1.38-2.62h3.08l-2.5 4.63 2.63 4.88h-3.09l-1.49-2.81-1.48 2.81h-3.11l2.64-4.88-2.5-4.63h3.11l1.33 2.62zM74.22 306v-12.8h4.12c1.13 0 2.15.26 3.05.77.9.51 1.61 1.24 2.11 2.17.51.94.76 1.98.77 3.14v.59c0 1.17-.25 2.22-.74 3.15s-1.19 1.66-2.09 2.18-1.9.79-3.01.79h-4.21zm3.09-10.42v8.04h1.07c.88 0 1.56-.31 2.04-.95.47-.63.71-1.57.71-2.81v-.55c0-1.24-.24-2.17-.71-2.79s-1.17-.94-2.07-.94h-1.04zM91.08 306c-.11-.19-.2-.48-.28-.85-.54.69-1.31 1.03-2.29 1.03-.9 0-1.66-.27-2.29-.81s-.94-1.22-.94-2.04c0-1.03.38-1.81 1.14-2.34s1.87-.79 3.32-.79h.91v-.5c0-.88-.38-1.32-1.13-1.32-.7 0-1.05.35-1.05 1.04h-2.96c0-.92.39-1.67 1.17-2.24s1.78-.86 2.99-.86 2.17.3 2.87.89 1.06 1.4 1.08 2.43v4.21c.01.87.15 1.54.4 2v.15h-2.94zm-1.85-1.93c.37 0 .67-.08.92-.24s.42-.34.52-.54v-1.52h-.86c-1.03 0-1.55.46-1.55 1.39 0 .27.09.49.27.66.18.16.42.25.7.25zM99.08 301.85l1.58-5.36h3.17l-3.88 11.1-.17.4c-.55 1.23-1.52 1.85-2.92 1.85-.39 0-.79-.06-1.22-.17v-2.11h.39c.42 0 .73-.06.95-.18s.38-.33.49-.65l.24-.63-3.3-9.61h3.16l1.51 5.36zM109.06 294.04c0-.42.15-.77.46-1.04s.7-.4 1.19-.4.88.13 1.19.4.46.62.46 1.04-.15.77-.46 1.04-.7.4-1.19.4-.88-.13-1.19-.4-.46-.62-.46-1.04zm3.15 11.96h-2.97v-9.51h2.97V306zM119.01 303.33c0-.25-.13-.45-.4-.61s-.76-.31-1.5-.47-1.35-.38-1.83-.65-.85-.59-1.1-.97-.38-.82-.38-1.31c0-.87.36-1.59 1.08-2.16.72-.56 1.66-.85 2.83-.85 1.25 0 2.26.28 3.02.85s1.14 1.32 1.14 2.24h-2.97c0-.76-.4-1.14-1.2-1.14-.31 0-.57.09-.78.26s-.32.39-.32.65.13.48.39.64.67.3 1.23.4 1.06.23 1.49.38c1.43.49 2.14 1.37 2.14 2.65 0 .87-.39 1.57-1.16 2.12s-1.77.82-2.99.82c-.81 0-1.54-.15-2.18-.44s-1.14-.69-1.49-1.2-.54-1.03-.54-1.59h2.77c.01.44.16.76.44.96.28.2.64.3 1.08.3.4 0 .71-.08.91-.25.22-.15.32-.37.32-.63zM28.81 327.6c-.11-.19-.2-.48-.28-.85-.54.69-1.31 1.03-2.29 1.03-.9 0-1.66-.27-2.29-.81s-.94-1.22-.94-2.04c0-1.03.38-1.81 1.14-2.34s1.87-.79 3.32-.79h.91v-.5c0-.88-.38-1.32-1.13-1.32-.7 0-1.05.35-1.05 1.04h-2.96c0-.92.39-1.67 1.17-2.24s1.78-.86 2.99-.86 2.17.3 2.87.89 1.06 1.4 1.08 2.43v4.21c.01.87.15 1.54.4 2v.15h-2.94zm-1.86-1.93c.37 0 .68-.08.92-.24s.42-.34.52-.54v-1.52h-.86c-1.03 0-1.55.46-1.55 1.39 0 .27.09.49.27.66.19.16.42.25.7.25zM41.83 322.92c0 1.48-.33 2.66-1 3.54s-1.56 1.32-2.69 1.32c-.87 0-1.59-.32-2.15-.96v4.44h-2.96v-13.17h2.77l.09.88c.57-.7 1.32-1.05 2.24-1.05 1.17 0 2.08.43 2.73 1.3s.98 2.05.98 3.56v.14zm-2.96-.19c0-1.69-.49-2.53-1.48-2.53-.7 0-1.17.25-1.41.76v3.74c.26.53.73.79 1.42.79.94 0 1.43-.81 1.46-2.44v-.32zM51.96 322.92c0 1.48-.33 2.66-1 3.54s-1.56 1.32-2.69 1.32c-.87 0-1.59-.32-2.15-.96v4.44h-2.96v-13.17h2.77l.09.88c.57-.7 1.32-1.05 2.24-1.05 1.17 0 2.08.43 2.73 1.3s.98 2.05.98 3.56v.14zm-2.96-.19c0-1.69-.49-2.53-1.48-2.53-.7 0-1.17.25-1.41.76v3.74c.26.53.73.79 1.42.79.94 0 1.43-.81 1.46-2.44v-.32zM59.02 320.77l-.98-.07c-.93 0-1.53.29-1.79.88v6.02h-2.96v-9.51h2.78l.1 1.22c.5-.93 1.19-1.4 2.08-1.4.32 0 .59.04.83.11l-.06 2.75zM59.4 322.76c0-.95.18-1.79.55-2.54.37-.74.9-1.31 1.59-1.71s1.5-.6 2.43-.6c1.42 0 2.55.44 3.37 1.32.82.88 1.23 2.08 1.23 3.6v.11c0 1.48-.41 2.66-1.23 3.53-.82.87-1.94 1.3-3.34 1.3-1.35 0-2.44-.41-3.26-1.22s-1.26-1.91-1.33-3.3l-.01-.49zm2.96.18c0 .88.14 1.52.41 1.93s.68.62 1.22.62c1.05 0 1.59-.81 1.62-2.43v-.3c0-1.71-.54-2.56-1.63-2.56-.99 0-1.53.74-1.61 2.21l-.01.53zM75.24 327.6c-.11-.19-.2-.48-.28-.85-.54.69-1.31 1.03-2.29 1.03-.9 0-1.66-.27-2.29-.81s-.94-1.22-.94-2.04c0-1.03.38-1.81 1.14-2.34s1.87-.79 3.32-.79h.91v-.5c0-.88-.38-1.32-1.13-1.32-.7 0-1.05.35-1.05 1.04h-2.96c0-.92.39-1.67 1.17-2.24s1.78-.86 2.99-.86 2.17.3 2.87.89 1.06 1.4 1.08 2.43v4.21c.01.87.15 1.54.4 2v.15h-2.94zm-1.86-1.93c.37 0 .68-.08.92-.24s.42-.34.52-.54v-1.52h-.86c-1.03 0-1.55.46-1.55 1.39 0 .27.09.49.27.66.19.16.42.25.7.25zM83.46 325.49c.42 0 .74-.11.97-.34s.34-.54.33-.95h2.78c0 1.04-.37 1.9-1.12 2.57s-1.71 1-2.89 1c-1.38 0-2.47-.43-3.27-1.3s-1.2-2.07-1.2-3.6v-.12c0-.96.18-1.81.53-2.54.35-.73.87-1.3 1.53-1.7.67-.4 1.46-.59 2.37-.59 1.24 0 2.22.34 2.94 1.03s1.09 1.61 1.09 2.79h-2.78c0-.49-.12-.87-.36-1.13s-.56-.4-.97-.4c-.77 0-1.22.49-1.34 1.47-.04.31-.06.74-.06 1.28 0 .96.11 1.62.34 1.99s.61.54 1.11.54zM91.68 319.11c.63-.8 1.44-1.2 2.43-1.2 1.05 0 1.84.31 2.37.93s.81 1.54.82 2.75v6h-2.97v-5.93c0-.5-.1-.87-.31-1.11-.21-.24-.55-.36-1.05-.36-.61 0-1.04.19-1.29.58v6.82h-2.96v-13.5h2.96v5.02zM98.92 315.64c0-.42.15-.77.46-1.04s.7-.4 1.19-.4.88.13 1.19.4.46.62.46 1.04-.15.77-.46 1.04-.7.4-1.19.4-.88-.13-1.19-.4-.46-.62-.46-1.04zm3.15 11.96H99.1v-9.51h2.97v9.51zM106.62 318.09l.1 1.12c.66-.86 1.56-1.29 2.72-1.29.99 0 1.73.3 2.22.89.49.59.74 1.48.76 2.67v6.13h-2.97v-6c0-.48-.1-.83-.29-1.06-.19-.22-.54-.34-1.05-.34-.58 0-1.01.23-1.29.69v6.71h-2.96v-9.51h2.76zM113.7 322.77c0-.96.16-1.81.47-2.55s.77-1.31 1.36-1.71c.59-.4 1.28-.6 2.07-.6.99 0 1.76.33 2.32 1l.11-.83h2.69v9.15c0 .84-.2 1.57-.58 2.18-.39.62-.95 1.09-1.69 1.42-.74.33-1.59.5-2.57.5-.7 0-1.37-.13-2.03-.4-.65-.26-1.15-.61-1.5-1.03l1.24-1.74c.55.65 1.28.98 2.18.98 1.31 0 1.97-.67 1.97-2.02v-.3c-.57.63-1.29.94-2.15.94-1.16 0-2.1-.44-2.81-1.33-.71-.89-1.07-2.08-1.07-3.56v-.1zm2.97.19c0 .78.15 1.4.44 1.85.29.46.7.68 1.23.68.64 0 1.1-.21 1.4-.64v-4c-.29-.43-.75-.65-1.38-.65-.53 0-.94.24-1.24.71-.3.47-.45 1.15-.45 2.05zM126.23 324.73c.47 0 .86.14 1.17.42.31.28.47.63.47 1.07s-.16.79-.47 1.07-.7.42-1.17.42-.87-.14-1.17-.42c-.31-.28-.46-.64-.46-1.06s.15-.78.46-1.06c.31-.3.7-.44 1.17-.44zM131.67 324.73c.47 0 .86.14 1.17.42.31.28.47.63.47 1.07s-.16.79-.47 1.07-.7.42-1.17.42-.87-.14-1.17-.42c-.31-.28-.46-.64-.46-1.06s.15-.78.46-1.06c.31-.3.7-.44 1.17-.44zM137.11 324.73c.47 0 .86.14 1.17.42.31.28.47.63.47 1.07s-.16.79-.47 1.07-.7.42-1.17.42-.87-.14-1.17-.42c-.31-.28-.46-.64-.46-1.06s.15-.78.46-1.06c.31-.3.7-.44 1.17-.44z"/></svg>