<svg id="Layer_1" xmlns="http://www.w3.org/2000/svg" viewBox="0 0 160 600"><style>.st0{fill:#021d8b;stroke:url(#SVGID_1_);stroke-width:2;stroke-miterlimit:10}.st1{fill:#fff}</style><linearGradient id="SVGID_1_" gradientUnits="userSpaceOnUse" x1="21.189" y1="366.778" x2="134.852" y2="366.778"><stop offset="0" stop-color="#18b9fb"/><stop offset=".5" stop-color="#782eeb"/><stop offset="1" stop-color="#e82d8a"/></linearGradient><path class="st0" d="M117.05 398.05H38.99c-9.28 0-16.8-7.52-16.8-16.8v-28.94c0-9.28 7.52-16.8 16.8-16.8h78.06c9.28 0 16.8 7.52 16.8 16.8v28.94c0 9.28-7.52 16.8-16.8 16.8z"/><path class="st1" d="M70.66 351.62h-4.65v12.64h-3.13v-12.64H58.3v-2.53h12.36v2.53zM78.06 358.71h-2.49v5.55h-3.13v-15.17h5.64c1.79 0 3.18.4 4.15 1.2.97.8 1.46 1.93 1.46 3.39 0 1.04-.22 1.9-.67 2.59s-1.13 1.24-2.04 1.65l3.28 6.2v.15H80.9l-2.84-5.56zm-2.49-2.54h2.52c.79 0 1.39-.2 1.82-.6.43-.4.65-.95.65-1.65 0-.72-.2-1.28-.61-1.69-.41-.41-1.03-.62-1.87-.62h-2.51v4.56zM90.79 355.92l3.16-6.84h3.42l-4.98 9.67v5.5h-3.18v-5.5l-4.98-9.67h3.43l3.13 6.84zM56.66 372.21h-4.65v12.64h-3.13v-12.64H44.3v-2.53h12.36v2.53zM70.62 377.61c0 1.49-.26 2.8-.79 3.93-.53 1.13-1.28 1.99-2.27 2.61-.98.61-2.11.92-3.38.92-1.26 0-2.38-.3-3.37-.91-.99-.6-1.75-1.47-2.29-2.59s-.82-2.41-.82-3.87v-.75c0-1.49.27-2.81.81-3.95s1.3-2.01 2.28-2.62c.98-.61 2.11-.91 3.37-.91 1.26 0 2.39.3 3.37.91.98.61 1.74 1.48 2.28 2.62s.81 2.45.81 3.93v.68zm-3.17-.69c0-1.59-.29-2.8-.85-3.63-.57-.83-1.38-1.24-2.44-1.24-1.05 0-1.86.41-2.43 1.22s-.86 2.01-.86 3.59v.74c0 1.55.28 2.75.85 3.61.57.85 1.39 1.28 2.46 1.28 1.05 0 1.86-.41 2.42-1.24.56-.82.85-2.02.85-3.6v-.73zM72.89 384.85v-15.17h4.67c1.33 0 2.53.3 3.58.9a6.26 6.26 0 0 1 2.46 2.56c.59 1.11.89 2.37.89 3.78v.7c0 1.41-.29 2.67-.87 3.76s-1.4 1.95-2.45 2.55c-1.06.6-2.25.91-3.58.92h-4.7zm3.12-12.64v10.13h1.51c1.22 0 2.16-.4 2.8-1.2.65-.8.98-1.94.99-3.43v-.8c0-1.54-.32-2.71-.96-3.51-.64-.79-1.57-1.19-2.8-1.19h-1.54zM95.33 381.72h-5.48l-1.04 3.13h-3.33l5.65-15.17h2.9l5.68 15.17h-3.33l-1.05-3.13zm-4.64-2.53h3.79l-1.91-5.68-1.88 5.68zM104.79 376.51l3.16-6.84h3.42l-4.98 9.67v5.5h-3.18v-5.5l-4.98-9.67h3.43l3.13 6.84z"/></svg>