<?xml version="1.0" encoding="utf-8"?>
<!-- Generator: Adobe Illustrator 25.0.1, SVG Export Plug-In . SVG Version: 6.00 Build 0)  -->
<svg version="1.1" id="Layer_1" xmlns="http://www.w3.org/2000/svg" xmlns:xlink="http://www.w3.org/1999/xlink" x="0px" y="0px"
	 viewBox="0 0 160 600" style="enable-background:new 0 0 160 600;" xml:space="preserve">
<style type="text/css">
	.st0{fill:#021D8B;}
</style>
<g>
	<path class="st0" d="M50.59,283.67v-12.64h4.07c1.12,0,2.12,0.25,3.01,0.76s1.59,1.22,2.09,2.14s0.75,1.96,0.76,3.1v0.58
		c0,1.16-0.24,2.2-0.73,3.11c-0.49,0.92-1.18,1.63-2.07,2.15s-1.88,0.78-2.97,0.79H50.59z M53.64,273.38v7.94h1.06
		c0.87,0,1.54-0.31,2.01-0.93c0.47-0.62,0.7-1.55,0.7-2.77v-0.55c0-1.22-0.23-2.14-0.7-2.76c-0.47-0.62-1.15-0.93-2.05-0.93H53.64z"
		/>
	<path class="st0" d="M61.93,271.85c0-0.42,0.15-0.76,0.45-1.02c0.3-0.27,0.69-0.4,1.17-0.4s0.87,0.13,1.17,0.4
		c0.3,0.27,0.45,0.61,0.45,1.02c0,0.42-0.15,0.76-0.45,1.02c-0.3,0.27-0.69,0.4-1.17,0.4s-0.87-0.13-1.17-0.4
		C62.08,272.61,61.93,272.27,61.93,271.85z M65.03,283.67H62.1v-9.39h2.93V283.67z"/>
	<path class="st0" d="M66.46,278.9c0-1.49,0.32-2.66,0.96-3.52c0.64-0.86,1.54-1.28,2.69-1.28c0.84,0,1.54,0.33,2.12,0.99v-4.76
		h2.93v13.33h-2.63l-0.15-1.01c-0.6,0.79-1.37,1.18-2.29,1.18c-1.12,0-2-0.43-2.66-1.29C66.79,281.7,66.46,280.48,66.46,278.9z
		 M69.39,279.08c0,1.67,0.49,2.5,1.46,2.5c0.65,0,1.11-0.27,1.39-0.82v-3.58c-0.27-0.56-0.72-0.83-1.37-0.83
		c-0.9,0-1.39,0.73-1.47,2.19L69.39,279.08z"/>
	<path class="st0" d="M85.01,279.57l1.56-5.29h3.13l-3.83,10.96l-0.17,0.4c-0.54,1.22-1.5,1.82-2.88,1.82
		c-0.38,0-0.78-0.06-1.21-0.17v-2.08h0.38c0.41,0,0.72-0.06,0.94-0.18c0.22-0.12,0.38-0.33,0.48-0.64l0.23-0.62l-3.26-9.49h3.12
		L85.01,279.57z"/>
	<path class="st0" d="M90.1,278.88c0-0.94,0.18-1.77,0.55-2.5c0.37-0.73,0.89-1.29,1.57-1.69c0.68-0.39,1.48-0.59,2.4-0.59
		c1.41,0,2.51,0.44,3.32,1.31c0.81,0.87,1.21,2.06,1.21,3.55v0.1c0,1.46-0.41,2.62-1.22,3.48c-0.81,0.86-1.91,1.29-3.3,1.29
		c-1.34,0-2.41-0.4-3.22-1.2c-0.81-0.8-1.25-1.89-1.31-3.26L90.1,278.88z M93.02,279.07c0,0.87,0.14,1.5,0.41,1.91
		c0.27,0.41,0.67,0.61,1.21,0.61c1.04,0,1.57-0.8,1.6-2.4v-0.29c0-1.68-0.54-2.53-1.61-2.53c-0.98,0-1.51,0.73-1.59,2.18
		L93.02,279.07z"/>
	<path class="st0" d="M106.04,282.65c-0.62,0.79-1.46,1.19-2.51,1.19c-1.03,0-1.81-0.3-2.34-0.9s-0.79-1.46-0.79-2.58v-6.08h2.92
		v6.1c0,0.8,0.39,1.21,1.17,1.21c0.67,0,1.15-0.24,1.43-0.72v-6.59h2.94v9.39h-2.74L106.04,282.65z"/>
	<path class="st0" d="M48.62,305v-7.36h-1.36v-2.03h1.36v-0.75c0-1.07,0.32-1.9,0.95-2.49c0.63-0.59,1.52-0.89,2.66-0.89
		c0.42,0,0.87,0.06,1.37,0.18l0.01,2.15c-0.18-0.05-0.42-0.08-0.72-0.08c-0.89,0-1.33,0.38-1.33,1.15v0.72h1.83v2.03h-1.83V305
		H48.62z"/>
	<path class="st0" d="M54.04,300.21c0-0.94,0.18-1.77,0.55-2.5c0.36-0.73,0.89-1.29,1.57-1.69c0.68-0.39,1.48-0.59,2.4-0.59
		c1.41,0,2.51,0.44,3.32,1.31c0.81,0.87,1.21,2.06,1.21,3.55v0.1c0,1.46-0.41,2.63-1.22,3.48s-1.91,1.29-3.3,1.29
		c-1.34,0-2.41-0.4-3.22-1.2s-1.25-1.89-1.31-3.26L54.04,300.21z M56.97,300.4c0,0.87,0.14,1.5,0.41,1.91s0.67,0.61,1.21,0.61
		c1.04,0,1.57-0.8,1.6-2.4v-0.29c0-1.68-0.54-2.53-1.61-2.53c-0.98,0-1.51,0.73-1.59,2.18L56.97,300.4z"/>
	<path class="st0" d="M70.08,298.25l-0.96-0.07c-0.92,0-1.51,0.29-1.77,0.87V305h-2.92v-9.39h2.74l0.1,1.21
		c0.49-0.92,1.18-1.38,2.06-1.38c0.31,0,0.58,0.04,0.82,0.1L70.08,298.25z"/>
	<path class="st0" d="M70.79,300.23c0-0.95,0.16-1.79,0.47-2.52c0.31-0.73,0.76-1.29,1.35-1.69c0.58-0.4,1.26-0.59,2.04-0.59
		c0.98,0,1.74,0.33,2.29,0.99l0.1-0.82h2.66v9.04c0,0.83-0.19,1.55-0.58,2.16c-0.39,0.61-0.94,1.08-1.67,1.41s-1.57,0.49-2.53,0.49
		c-0.69,0-1.36-0.13-2-0.39c-0.65-0.26-1.14-0.6-1.48-1.02l1.22-1.72c0.54,0.64,1.26,0.96,2.15,0.96c1.3,0,1.94-0.67,1.94-2v-0.29
		c-0.56,0.62-1.27,0.93-2.13,0.93c-1.15,0-2.07-0.44-2.78-1.32c-0.71-0.88-1.06-2.05-1.06-3.52V300.23z M73.72,300.41
		c0,0.77,0.15,1.38,0.43,1.83c0.29,0.45,0.69,0.67,1.22,0.67c0.63,0,1.09-0.21,1.38-0.63v-3.95c-0.28-0.43-0.74-0.64-1.36-0.64
		c-0.52,0-0.93,0.23-1.22,0.7S73.72,299.53,73.72,300.41z"/>
	<path class="st0" d="M85.9,305.17c-1.44,0-2.61-0.43-3.5-1.29c-0.89-0.86-1.34-1.98-1.34-3.35v-0.24c0-0.96,0.18-1.81,0.53-2.54
		c0.36-0.73,0.88-1.3,1.56-1.71s1.49-0.6,2.43-0.6c1.32,0,2.36,0.41,3.12,1.23c0.76,0.82,1.15,1.96,1.15,3.42v1.14h-5.82
		c0.1,0.53,0.33,0.94,0.69,1.24c0.35,0.3,0.81,0.45,1.37,0.45c0.92,0,1.65-0.32,2.17-0.97l1.34,1.58c-0.36,0.5-0.88,0.9-1.55,1.2
		C87.39,305.02,86.67,305.17,85.9,305.17z M85.57,297.69c-0.86,0-1.37,0.57-1.53,1.7h2.95v-0.23c0.01-0.47-0.11-0.83-0.36-1.09
		C86.39,297.82,86.03,297.69,85.57,297.69z"/>
	<path class="st0" d="M94.44,293.27v2.33h1.54v2.03h-1.54v4.3c0,0.35,0.06,0.6,0.19,0.74s0.38,0.21,0.75,0.21
		c0.29,0,0.53-0.02,0.73-0.05v2.09c-0.53,0.17-1.08,0.25-1.65,0.25c-1.01,0-1.75-0.24-2.23-0.71s-0.72-1.19-0.72-2.16v-4.66h-1.2
		v-2.03h1.2v-2.33H94.44z"/>
	<path class="st0" d="M104.96,293.27v2.33h1.54v2.03h-1.54v4.3c0,0.35,0.06,0.6,0.19,0.74s0.38,0.21,0.75,0.21
		c0.29,0,0.53-0.02,0.73-0.05v2.09c-0.53,0.17-1.08,0.25-1.65,0.25c-1.01,0-1.75-0.24-2.23-0.71s-0.72-1.19-0.72-2.16v-4.66h-1.2
		v-2.03h1.2v-2.33H104.96z"/>
	<path class="st0" d="M107.03,300.21c0-0.94,0.18-1.77,0.55-2.5c0.36-0.73,0.89-1.29,1.57-1.69c0.68-0.39,1.48-0.59,2.4-0.59
		c1.41,0,2.51,0.44,3.32,1.31c0.81,0.87,1.22,2.06,1.22,3.55v0.1c0,1.46-0.41,2.63-1.22,3.48c-0.81,0.86-1.91,1.29-3.3,1.29
		c-1.34,0-2.41-0.4-3.22-1.2c-0.81-0.8-1.25-1.89-1.31-3.26L107.03,300.21z M109.96,300.4c0,0.87,0.14,1.5,0.41,1.91
		c0.27,0.41,0.67,0.61,1.21,0.61c1.04,0,1.57-0.8,1.6-2.4v-0.29c0-1.68-0.54-2.53-1.61-2.53c-0.98,0-1.51,0.73-1.59,2.18
		L109.96,300.4z"/>
	<path class="st0" d="M31.54,323.69c0-0.25-0.13-0.45-0.39-0.6c-0.26-0.15-0.75-0.31-1.48-0.47s-1.33-0.37-1.81-0.64
		c-0.47-0.26-0.84-0.58-1.08-0.96c-0.25-0.38-0.37-0.81-0.37-1.29c0-0.86,0.36-1.57,1.07-2.13c0.71-0.56,1.64-0.84,2.79-0.84
		c1.24,0,2.23,0.28,2.99,0.84c0.75,0.56,1.13,1.3,1.13,2.21h-2.93c0-0.75-0.4-1.13-1.19-1.13c-0.31,0-0.56,0.09-0.77,0.26
		c-0.21,0.17-0.31,0.38-0.31,0.64c0,0.26,0.13,0.47,0.38,0.63c0.25,0.16,0.66,0.29,1.22,0.4c0.56,0.1,1.05,0.23,1.47,0.37
		c1.41,0.49,2.12,1.36,2.12,2.61c0,0.86-0.38,1.55-1.14,2.09c-0.76,0.54-1.75,0.81-2.96,0.81c-0.8,0-1.52-0.14-2.15-0.43
		c-0.63-0.29-1.12-0.68-1.48-1.18c-0.35-0.5-0.53-1.02-0.53-1.57h2.73c0.01,0.43,0.16,0.75,0.43,0.95c0.28,0.2,0.63,0.3,1.07,0.3
		c0.4,0,0.7-0.08,0.9-0.24S31.54,323.95,31.54,323.69z"/>
	<path class="st0" d="M38.59,317.94c0.62-0.79,1.42-1.18,2.4-1.18c1.04,0,1.82,0.31,2.34,0.92c0.53,0.61,0.8,1.52,0.81,2.72v5.93
		H41.2v-5.86c0-0.5-0.1-0.86-0.3-1.1c-0.2-0.23-0.55-0.35-1.03-0.35c-0.6,0-1.03,0.19-1.28,0.57v6.74h-2.93V313h2.93V317.94z"/>
	<path class="st0" d="M45.4,321.54c0-0.94,0.18-1.77,0.55-2.5c0.36-0.73,0.89-1.29,1.57-1.69c0.68-0.39,1.48-0.59,2.4-0.59
		c1.41,0,2.51,0.44,3.32,1.31c0.81,0.87,1.21,2.06,1.21,3.55v0.1c0,1.46-0.41,2.62-1.22,3.48s-1.91,1.29-3.3,1.29
		c-1.34,0-2.41-0.4-3.22-1.2s-1.25-1.89-1.31-3.26L45.4,321.54z M48.32,321.73c0,0.87,0.14,1.5,0.41,1.91s0.67,0.61,1.21,0.61
		c1.04,0,1.57-0.8,1.6-2.4v-0.29c0-1.68-0.54-2.53-1.61-2.53c-0.98,0-1.51,0.73-1.59,2.18L48.32,321.73z"/>
	<path class="st0" d="M64.46,321.7c0,1.46-0.33,2.62-0.98,3.49c-0.66,0.87-1.54,1.31-2.66,1.31c-0.86,0-1.57-0.32-2.13-0.95v4.38
		h-2.92v-13h2.73l0.09,0.87c0.56-0.69,1.3-1.04,2.21-1.04c1.16,0,2.06,0.43,2.7,1.28c0.64,0.85,0.96,2.03,0.96,3.52V321.7z
		 M61.54,321.52c0-1.67-0.49-2.5-1.46-2.5c-0.69,0-1.16,0.25-1.39,0.75v3.7c0.25,0.52,0.72,0.78,1.41,0.78
		c0.93,0,1.41-0.8,1.44-2.41V321.52z"/>
	<path class="st0" d="M75.1,323.69c0-0.25-0.13-0.45-0.39-0.6c-0.26-0.15-0.75-0.31-1.48-0.47s-1.33-0.37-1.81-0.64
		c-0.47-0.26-0.84-0.58-1.08-0.96c-0.25-0.38-0.37-0.81-0.37-1.29c0-0.86,0.36-1.57,1.07-2.13c0.71-0.56,1.64-0.84,2.79-0.84
		c1.24,0,2.23,0.28,2.99,0.84c0.75,0.56,1.13,1.3,1.13,2.21H75c0-0.75-0.4-1.13-1.19-1.13c-0.31,0-0.56,0.09-0.77,0.26
		c-0.21,0.17-0.31,0.38-0.31,0.64c0,0.26,0.13,0.47,0.38,0.63c0.25,0.16,0.66,0.29,1.22,0.4c0.56,0.1,1.05,0.23,1.47,0.37
		c1.41,0.49,2.12,1.36,2.12,2.61c0,0.86-0.38,1.55-1.14,2.09c-0.76,0.54-1.75,0.81-2.96,0.81c-0.8,0-1.52-0.14-2.15-0.43
		c-0.63-0.29-1.12-0.68-1.48-1.18c-0.35-0.5-0.53-1.02-0.53-1.57h2.73c0.01,0.43,0.16,0.75,0.43,0.95c0.28,0.2,0.63,0.3,1.07,0.3
		c0.4,0,0.7-0.08,0.9-0.24S75.1,323.95,75.1,323.69z"/>
	<path class="st0" d="M83.83,326.5c-1.44,0-2.61-0.43-3.5-1.29s-1.34-1.98-1.34-3.35v-0.24c0-0.96,0.18-1.81,0.53-2.54
		c0.36-0.73,0.88-1.3,1.56-1.71c0.68-0.4,1.49-0.6,2.43-0.6c1.32,0,2.36,0.41,3.12,1.23c0.76,0.82,1.15,1.96,1.15,3.42v1.14h-5.82
		c0.1,0.53,0.33,0.94,0.69,1.24c0.35,0.3,0.81,0.45,1.37,0.45c0.92,0,1.65-0.32,2.17-0.97l1.34,1.58c-0.36,0.5-0.88,0.9-1.55,1.2
		C85.32,326.35,84.6,326.5,83.83,326.5z M83.5,319.02c-0.86,0-1.37,0.57-1.53,1.7h2.95v-0.23c0.01-0.47-0.11-0.83-0.36-1.09
		C84.32,319.15,83.96,319.02,83.5,319.02z"/>
	<path class="st0" d="M92.93,324.24c0.41,0,0.73-0.11,0.96-0.33s0.33-0.53,0.33-0.93h2.74c0,1.03-0.37,1.88-1.11,2.54
		c-0.74,0.66-1.69,0.99-2.85,0.99c-1.37,0-2.44-0.43-3.23-1.29c-0.79-0.86-1.18-2.04-1.18-3.56v-0.12c0-0.95,0.18-1.79,0.53-2.51
		c0.35-0.73,0.85-1.28,1.51-1.67c0.66-0.39,1.44-0.59,2.34-0.59c1.22,0,2.19,0.34,2.91,1.02c0.72,0.68,1.08,1.59,1.08,2.75h-2.74
		c0-0.49-0.12-0.86-0.36-1.12c-0.24-0.26-0.56-0.39-0.96-0.39c-0.76,0-1.2,0.48-1.33,1.45c-0.04,0.31-0.06,0.73-0.06,1.27
		c0,0.94,0.11,1.6,0.34,1.96S92.44,324.24,92.93,324.24z"/>
	<path class="st0" d="M103.79,325.31c-0.62,0.79-1.46,1.19-2.51,1.19c-1.03,0-1.81-0.3-2.34-0.9s-0.79-1.46-0.79-2.58v-6.08h2.92
		v6.1c0,0.8,0.39,1.21,1.17,1.21c0.67,0,1.15-0.24,1.43-0.72v-6.59h2.94v9.39h-2.74L103.79,325.31z"/>
	<path class="st0" d="M113.9,319.58l-0.96-0.07c-0.92,0-1.51,0.29-1.77,0.87v5.95h-2.92v-9.39h2.74l0.1,1.21
		c0.49-0.92,1.18-1.38,2.06-1.38c0.31,0,0.58,0.04,0.82,0.1L113.9,319.58z"/>
	<path class="st0" d="M119.5,326.5c-1.44,0-2.61-0.43-3.5-1.29c-0.89-0.86-1.34-1.98-1.34-3.35v-0.24c0-0.96,0.18-1.81,0.54-2.54
		c0.36-0.73,0.88-1.3,1.56-1.71c0.68-0.4,1.49-0.6,2.43-0.6c1.32,0,2.36,0.41,3.12,1.23c0.76,0.82,1.15,1.96,1.15,3.42v1.14h-5.81
		c0.1,0.53,0.33,0.94,0.69,1.24c0.35,0.3,0.81,0.45,1.37,0.45c0.93,0,1.65-0.32,2.17-0.97l1.34,1.58c-0.37,0.5-0.88,0.9-1.55,1.2
		S120.27,326.5,119.5,326.5z M119.17,319.02c-0.86,0-1.37,0.57-1.53,1.7h2.95v-0.23c0.01-0.47-0.11-0.83-0.36-1.09
		C119.99,319.15,119.63,319.02,119.17,319.02z"/>
	<path class="st0" d="M127.72,326.33h-2.93V313h2.93V326.33z"/>
	<path class="st0" d="M133.27,322.23l1.56-5.29h3.13l-3.83,10.96l-0.16,0.4c-0.54,1.22-1.5,1.82-2.88,1.82
		c-0.38,0-0.78-0.06-1.21-0.17v-2.08h0.38c0.41,0,0.72-0.06,0.94-0.18c0.22-0.12,0.38-0.33,0.48-0.64l0.23-0.62l-3.26-9.49h3.12
		L133.27,322.23z"/>
	<path class="st0" d="M51.48,335.93v2.33h1.54v2.03h-1.54v4.3c0,0.35,0.06,0.6,0.19,0.74c0.13,0.14,0.38,0.21,0.76,0.21
		c0.29,0,0.53-0.02,0.73-0.05v2.09c-0.53,0.17-1.08,0.25-1.65,0.25c-1.01,0-1.75-0.24-2.23-0.71c-0.48-0.47-0.72-1.19-0.72-2.16
		v-4.66h-1.2v-2.03h1.2v-2.33H51.48z"/>
	<path class="st0" d="M57.04,339.27c0.62-0.79,1.42-1.18,2.4-1.18c1.04,0,1.82,0.31,2.34,0.92c0.53,0.61,0.8,1.52,0.81,2.72v5.93
		h-2.93v-5.86c0-0.5-0.1-0.86-0.3-1.1c-0.2-0.23-0.55-0.35-1.03-0.35c-0.6,0-1.03,0.19-1.28,0.57v6.74h-2.93v-13.33h2.93V339.27z"/>
	<path class="st0" d="M64.19,335.84c0-0.42,0.15-0.76,0.45-1.02c0.3-0.27,0.69-0.4,1.17-0.4s0.87,0.13,1.17,0.4
		c0.3,0.27,0.45,0.61,0.45,1.02c0,0.42-0.15,0.76-0.45,1.02c-0.3,0.27-0.69,0.4-1.17,0.4s-0.87-0.13-1.17-0.4
		C64.34,336.6,64.19,336.26,64.19,335.84z M67.3,347.66h-2.93v-9.39h2.93V347.66z"/>
	<path class="st0" d="M74.02,345.02c0-0.25-0.13-0.45-0.39-0.6c-0.26-0.15-0.75-0.31-1.48-0.47s-1.33-0.37-1.81-0.64
		c-0.47-0.26-0.84-0.58-1.08-0.96c-0.25-0.38-0.37-0.81-0.37-1.29c0-0.86,0.36-1.57,1.07-2.13c0.71-0.56,1.64-0.84,2.79-0.84
		c1.24,0,2.23,0.28,2.99,0.84c0.75,0.56,1.13,1.3,1.13,2.21h-2.93c0-0.75-0.4-1.13-1.19-1.13c-0.31,0-0.56,0.09-0.77,0.26
		c-0.21,0.17-0.31,0.38-0.31,0.64c0,0.26,0.13,0.47,0.38,0.63c0.25,0.16,0.66,0.29,1.22,0.4c0.56,0.1,1.05,0.23,1.47,0.37
		c1.41,0.49,2.12,1.36,2.12,2.61c0,0.86-0.38,1.55-1.14,2.09c-0.76,0.54-1.75,0.81-2.96,0.81c-0.8,0-1.52-0.14-2.15-0.43
		c-0.63-0.29-1.12-0.68-1.48-1.18c-0.35-0.5-0.53-1.02-0.53-1.57h2.73c0.01,0.43,0.16,0.75,0.43,0.95c0.28,0.2,0.63,0.3,1.07,0.3
		c0.4,0,0.7-0.08,0.9-0.24S74.02,345.28,74.02,345.02z"/>
	<path class="st0" d="M91.35,343.03c0,1.46-0.33,2.62-0.99,3.49c-0.66,0.87-1.54,1.31-2.66,1.31c-0.86,0-1.57-0.32-2.13-0.95v4.38
		h-2.92v-13h2.73l0.09,0.87c0.56-0.69,1.3-1.04,2.21-1.04c1.16,0,2.06,0.43,2.7,1.28c0.64,0.85,0.96,2.03,0.96,3.52V343.03z
		 M88.42,342.85c0-1.67-0.49-2.5-1.46-2.5c-0.69,0-1.16,0.25-1.39,0.75v3.7c0.25,0.52,0.72,0.78,1.41,0.78
		c0.93,0,1.41-0.8,1.44-2.41V342.85z"/>
	<path class="st0" d="M97.93,347.66c-0.1-0.19-0.2-0.47-0.28-0.84c-0.54,0.68-1.29,1.02-2.26,1.02c-0.89,0-1.64-0.27-2.26-0.8
		s-0.93-1.21-0.93-2.02c0-1.02,0.38-1.79,1.13-2.31c0.75-0.52,1.85-0.78,3.28-0.78h0.9v-0.5c0-0.87-0.37-1.3-1.12-1.3
		c-0.69,0-1.04,0.34-1.04,1.03h-2.92c0-0.91,0.39-1.64,1.16-2.21s1.76-0.85,2.96-0.85c1.2,0,2.14,0.29,2.84,0.88
		c0.69,0.58,1.05,1.39,1.07,2.4v4.16c0.01,0.86,0.14,1.52,0.4,1.98v0.15H97.93z M96.1,345.75c0.36,0,0.67-0.08,0.91-0.23
		c0.24-0.16,0.41-0.33,0.52-0.53v-1.5h-0.85c-1.02,0-1.53,0.46-1.53,1.37c0,0.27,0.09,0.48,0.27,0.65
		C95.59,345.66,95.82,345.75,96.1,345.75z"/>
	<path class="st0" d="M106.99,345.02c0-0.25-0.13-0.45-0.39-0.6c-0.26-0.15-0.75-0.31-1.48-0.47c-0.73-0.16-1.33-0.37-1.81-0.64
		s-0.84-0.58-1.08-0.96s-0.37-0.81-0.37-1.29c0-0.86,0.36-1.57,1.07-2.13s1.64-0.84,2.79-0.84c1.24,0,2.23,0.28,2.99,0.84
		c0.75,0.56,1.13,1.3,1.13,2.21h-2.93c0-0.75-0.4-1.13-1.19-1.13c-0.31,0-0.56,0.09-0.77,0.26c-0.21,0.17-0.31,0.38-0.31,0.64
		c0,0.26,0.13,0.47,0.38,0.63s0.66,0.29,1.22,0.4c0.56,0.1,1.05,0.23,1.47,0.37c1.41,0.49,2.12,1.36,2.12,2.61
		c0,0.86-0.38,1.55-1.14,2.09s-1.75,0.81-2.96,0.81c-0.8,0-1.52-0.14-2.15-0.43c-0.63-0.29-1.12-0.68-1.48-1.18
		c-0.35-0.5-0.53-1.02-0.53-1.57h2.73c0.01,0.43,0.16,0.75,0.43,0.95c0.28,0.2,0.63,0.3,1.07,0.3c0.4,0,0.7-0.08,0.9-0.24
		C106.89,345.49,106.99,345.28,106.99,345.02z"/>
	<path class="st0" d="M114.58,335.93v2.33h1.54v2.03h-1.54v4.3c0,0.35,0.06,0.6,0.19,0.74c0.13,0.14,0.38,0.21,0.75,0.21
		c0.29,0,0.53-0.02,0.73-0.05v2.09c-0.53,0.17-1.08,0.25-1.65,0.25c-1.01,0-1.75-0.24-2.23-0.71s-0.72-1.19-0.72-2.16v-4.66h-1.2
		v-2.03h1.2v-2.33H114.58z"/>
	<path class="st0" d="M56.32,360.6c0.62-0.79,1.42-1.18,2.4-1.18c1.04,0,1.82,0.31,2.34,0.92c0.53,0.61,0.8,1.52,0.81,2.72v5.93
		h-2.93v-5.86c0-0.5-0.1-0.86-0.3-1.1c-0.2-0.23-0.55-0.35-1.03-0.35c-0.6,0-1.03,0.19-1.28,0.57v6.74H53.4v-13.33h2.93V360.6z"/>
	<path class="st0" d="M63.13,364.2c0-0.94,0.18-1.77,0.55-2.5c0.36-0.73,0.89-1.29,1.57-1.69c0.68-0.39,1.48-0.59,2.4-0.59
		c1.41,0,2.51,0.44,3.32,1.31c0.81,0.87,1.21,2.06,1.21,3.55v0.1c0,1.46-0.41,2.62-1.22,3.48s-1.91,1.29-3.3,1.29
		c-1.34,0-2.41-0.4-3.22-1.2s-1.25-1.89-1.31-3.26L63.13,364.2z M66.05,364.39c0,0.87,0.14,1.5,0.41,1.91s0.67,0.61,1.21,0.61
		c1.04,0,1.57-0.8,1.6-2.4v-0.29c0-1.68-0.54-2.53-1.61-2.53c-0.98,0-1.51,0.73-1.59,2.18L66.05,364.39z"/>
	<path class="st0" d="M76.56,368.99h-2.93v-13.33h2.93V368.99z"/>
	<path class="st0" d="M78.34,357.17c0-0.42,0.15-0.76,0.45-1.02c0.3-0.27,0.69-0.4,1.17-0.4s0.87,0.13,1.17,0.4
		c0.3,0.27,0.45,0.61,0.45,1.02c0,0.42-0.15,0.76-0.45,1.02c-0.3,0.27-0.69,0.4-1.17,0.4s-0.87-0.13-1.17-0.4
		C78.49,357.93,78.34,357.59,78.34,357.17z M81.45,368.99h-2.93v-9.39h2.93V368.99z"/>
	<path class="st0" d="M82.88,364.22c0-1.49,0.32-2.66,0.96-3.52c0.64-0.86,1.54-1.28,2.69-1.28c0.84,0,1.54,0.33,2.12,0.99v-4.76
		h2.93v13.33h-2.63l-0.15-1.01c-0.6,0.79-1.37,1.18-2.29,1.18c-1.12,0-2-0.43-2.66-1.29C83.21,367.02,82.88,365.8,82.88,364.22z
		 M85.81,364.4c0,1.67,0.49,2.5,1.46,2.5c0.65,0,1.11-0.27,1.39-0.82v-3.58c-0.27-0.56-0.72-0.83-1.37-0.83
		c-0.9,0-1.39,0.73-1.47,2.19L85.81,364.4z"/>
	<path class="st0" d="M98.54,368.99c-0.1-0.19-0.2-0.47-0.28-0.84c-0.54,0.68-1.29,1.02-2.26,1.02c-0.89,0-1.64-0.27-2.26-0.8
		s-0.93-1.21-0.93-2.02c0-1.02,0.38-1.79,1.13-2.31c0.75-0.52,1.85-0.78,3.28-0.78h0.9v-0.5c0-0.87-0.37-1.3-1.12-1.3
		c-0.69,0-1.04,0.34-1.04,1.03h-2.92c0-0.91,0.39-1.64,1.16-2.21s1.76-0.85,2.96-0.85c1.2,0,2.14,0.29,2.84,0.88
		c0.69,0.58,1.05,1.39,1.07,2.4v4.16c0.01,0.86,0.14,1.52,0.4,1.98v0.15H98.54z M96.71,367.08c0.36,0,0.67-0.08,0.91-0.23
		c0.24-0.16,0.41-0.33,0.52-0.53v-1.5h-0.85c-1.02,0-1.53,0.46-1.53,1.37c0,0.27,0.09,0.48,0.27,0.65
		C96.2,366.99,96.43,367.08,96.71,367.08z"/>
	<path class="st0" d="M106.44,364.89l1.56-5.29h3.13l-3.83,10.96l-0.17,0.4c-0.54,1.22-1.5,1.82-2.88,1.82
		c-0.38,0-0.78-0.06-1.21-0.17v-2.08h0.38c0.41,0,0.72-0.06,0.94-0.18c0.22-0.12,0.38-0.33,0.48-0.64l0.23-0.62l-3.26-9.49h3.12
		L106.44,364.89z"/>
	<path class="st0" d="M54.4,387.68c0-0.25-0.13-0.45-0.39-0.6c-0.26-0.15-0.75-0.31-1.48-0.47s-1.33-0.37-1.81-0.64
		c-0.47-0.26-0.84-0.58-1.08-0.96c-0.25-0.38-0.37-0.81-0.37-1.29c0-0.86,0.36-1.57,1.07-2.13c0.71-0.56,1.64-0.84,2.79-0.84
		c1.24,0,2.23,0.28,2.99,0.84c0.75,0.56,1.13,1.3,1.13,2.21h-2.93c0-0.75-0.4-1.13-1.19-1.13c-0.31,0-0.56,0.09-0.77,0.26
		c-0.21,0.17-0.31,0.38-0.31,0.64c0,0.26,0.13,0.47,0.38,0.63c0.25,0.16,0.66,0.29,1.22,0.4c0.56,0.1,1.05,0.23,1.47,0.37
		c1.41,0.49,2.12,1.36,2.12,2.61c0,0.86-0.38,1.55-1.14,2.09c-0.76,0.54-1.75,0.81-2.96,0.81c-0.8,0-1.52-0.14-2.15-0.43
		c-0.63-0.29-1.12-0.68-1.48-1.18c-0.35-0.5-0.53-1.02-0.53-1.57h2.73c0.01,0.43,0.16,0.75,0.43,0.95c0.28,0.2,0.63,0.3,1.07,0.3
		c0.4,0,0.7-0.08,0.9-0.24S54.4,387.94,54.4,387.68z"/>
	<path class="st0" d="M63.14,390.49c-1.44,0-2.61-0.43-3.5-1.29c-0.89-0.86-1.34-1.98-1.34-3.35v-0.24c0-0.96,0.18-1.81,0.53-2.54
		c0.36-0.73,0.88-1.3,1.56-1.71s1.49-0.6,2.43-0.6c1.32,0,2.36,0.41,3.12,1.23c0.76,0.82,1.15,1.96,1.15,3.42v1.14h-5.81
		c0.1,0.53,0.33,0.94,0.69,1.24s0.81,0.45,1.37,0.45c0.93,0,1.65-0.32,2.17-0.97l1.34,1.58c-0.36,0.5-0.88,0.9-1.55,1.2
		C64.62,390.34,63.91,390.49,63.14,390.49z M62.81,383.01c-0.86,0-1.37,0.57-1.53,1.7h2.95v-0.23c0.01-0.47-0.11-0.83-0.36-1.09
		C63.62,383.14,63.27,383.01,62.81,383.01z"/>
	<path class="st0" d="M73.56,390.32c-0.1-0.19-0.2-0.47-0.28-0.84c-0.54,0.68-1.29,1.02-2.26,1.02c-0.89,0-1.64-0.27-2.26-0.8
		s-0.93-1.21-0.93-2.02c0-1.02,0.38-1.79,1.13-2.31c0.75-0.52,1.85-0.78,3.28-0.78h0.9v-0.5c0-0.87-0.37-1.3-1.12-1.3
		c-0.69,0-1.04,0.34-1.04,1.03h-2.92c0-0.91,0.39-1.64,1.16-2.21s1.76-0.85,2.96-0.85s2.14,0.29,2.84,0.88
		c0.69,0.58,1.05,1.39,1.07,2.4v4.16c0.01,0.86,0.14,1.52,0.4,1.98v0.15H73.56z M71.73,388.41c0.36,0,0.67-0.08,0.91-0.23
		c0.24-0.16,0.41-0.33,0.52-0.53v-1.5H72.3c-1.02,0-1.53,0.46-1.53,1.37c0,0.27,0.09,0.48,0.27,0.65
		C71.22,388.32,71.45,388.41,71.73,388.41z"/>
	<path class="st0" d="M82.62,387.68c0-0.25-0.13-0.45-0.39-0.6s-0.75-0.31-1.48-0.47c-0.73-0.16-1.33-0.37-1.81-0.64
		c-0.47-0.26-0.84-0.58-1.08-0.96c-0.25-0.38-0.37-0.81-0.37-1.29c0-0.86,0.36-1.57,1.07-2.13c0.71-0.56,1.64-0.84,2.79-0.84
		c1.24,0,2.23,0.28,2.99,0.84c0.75,0.56,1.13,1.3,1.13,2.21h-2.93c0-0.75-0.4-1.13-1.19-1.13c-0.31,0-0.56,0.09-0.77,0.26
		c-0.21,0.17-0.31,0.38-0.31,0.64c0,0.26,0.13,0.47,0.38,0.63c0.25,0.16,0.66,0.29,1.22,0.4s1.05,0.23,1.47,0.37
		c1.41,0.49,2.12,1.36,2.12,2.61c0,0.86-0.38,1.55-1.14,2.09c-0.76,0.54-1.75,0.81-2.96,0.81c-0.8,0-1.52-0.14-2.15-0.43
		c-0.63-0.29-1.12-0.68-1.48-1.18c-0.35-0.5-0.53-1.02-0.53-1.57h2.73c0.01,0.43,0.16,0.75,0.43,0.95c0.28,0.2,0.63,0.3,1.07,0.3
		c0.4,0,0.7-0.08,0.9-0.24C82.52,388.15,82.62,387.94,82.62,387.68z"/>
	<path class="st0" d="M86.44,385.53c0-0.94,0.18-1.77,0.55-2.5c0.36-0.73,0.89-1.29,1.57-1.69c0.68-0.39,1.48-0.59,2.4-0.59
		c1.41,0,2.51,0.44,3.32,1.31c0.81,0.87,1.21,2.06,1.21,3.55v0.1c0,1.46-0.41,2.62-1.22,3.48c-0.81,0.86-1.91,1.29-3.3,1.29
		c-1.34,0-2.41-0.4-3.22-1.2c-0.81-0.8-1.25-1.89-1.31-3.26L86.44,385.53z M89.36,385.72c0,0.87,0.14,1.5,0.41,1.91
		c0.27,0.41,0.67,0.61,1.21,0.61c1.04,0,1.57-0.8,1.6-2.4v-0.29c0-1.68-0.54-2.53-1.61-2.53c-0.98,0-1.51,0.73-1.59,2.18
		L89.36,385.72z"/>
	<path class="st0" d="M99.48,380.92l0.1,1.1c0.65-0.85,1.54-1.28,2.68-1.28c0.98,0,1.71,0.29,2.19,0.88
		c0.48,0.58,0.73,1.46,0.75,2.64v6.05h-2.93v-5.93c0-0.47-0.1-0.82-0.29-1.05c-0.19-0.22-0.54-0.33-1.04-0.33
		c-0.57,0-1,0.23-1.28,0.68v6.63h-2.92v-9.39H99.48z"/>
	<path class="st0" d="M108.98,386.31c0-0.84,0.09-1.51,0.29-2c0.19-0.49,0.5-0.91,0.93-1.27c0.43-0.36,0.75-0.69,0.98-0.98
		c0.22-0.3,0.33-0.63,0.33-0.99c0-0.87-0.38-1.31-1.13-1.31c-0.35,0-0.63,0.13-0.84,0.38s-0.33,0.6-0.34,1.03h-2.93
		c0.01-1.16,0.38-2.06,1.09-2.7c0.72-0.64,1.72-0.97,3.02-0.97c1.29,0,2.29,0.3,3,0.89c0.71,0.6,1.06,1.44,1.06,2.54
		c0,0.48-0.1,0.92-0.29,1.31c-0.19,0.39-0.5,0.79-0.92,1.21l-1,0.93c-0.28,0.27-0.48,0.55-0.59,0.84c-0.11,0.29-0.17,0.65-0.18,1.09
		H108.98z M108.62,388.95c0-0.43,0.16-0.78,0.46-1.05c0.31-0.27,0.7-0.41,1.16-0.41s0.85,0.14,1.16,0.41
		c0.31,0.27,0.46,0.63,0.46,1.05c0,0.43-0.16,0.78-0.46,1.05c-0.31,0.28-0.7,0.41-1.16,0.41s-0.85-0.14-1.16-0.41
		C108.78,389.73,108.62,389.38,108.62,388.95z"/>
</g>
</svg>
