<?xml version="1.0" encoding="utf-8"?>
<!-- Generator: Adobe Illustrator 25.0.1, SVG Export Plug-In . SVG Version: 6.00 Build 0)  -->
<svg version="1.1" id="Layer_1" xmlns="http://www.w3.org/2000/svg" xmlns:xlink="http://www.w3.org/1999/xlink" x="0px" y="0px"
	 viewBox="0 0 160 600" style="enable-background:new 0 0 160 600;" xml:space="preserve">
<style type="text/css">
	.st0{fill:#021D8B;stroke:url(#SVGID_1_);stroke-width:2;stroke-miterlimit:10;}
	.st1{fill:#FFFFFF;}
</style>
<linearGradient id="SVGID_1_" gradientUnits="userSpaceOnUse" x1="27.2756" y1="368.9316" x2="129.2709" y2="368.9316">
	<stop  offset="0" style="stop-color:#18B9FB"/>
	<stop  offset="0.5" style="stop-color:#782EEB"/>
	<stop  offset="1" style="stop-color:#E82D8A"/>
</linearGradient>
<path class="st0" d="M111.47,385.73H45.08c-9.28,0-16.8-7.52-16.8-16.8v0c0-9.28,7.52-16.8,16.8-16.8h66.39
	c9.28,0,16.8,7.52,16.8,16.8v0C128.27,378.21,120.75,385.73,111.47,385.73z"/>
<g>
	<path class="st1" d="M44.49,371.37h3.79v1.43H42.7v-8.66h1.78V371.37z"/>
	<path class="st1" d="M54.5,369.05h-3.42v2.32h4.02v1.43h-5.8v-8.66h5.79v1.45h-4.01v2.06h3.42V369.05z"/>
	<path class="st1" d="M61.03,371.02H57.9l-0.59,1.78h-1.9l3.22-8.66h1.65l3.24,8.66h-1.9L61.03,371.02z M58.39,369.57h2.16
		l-1.09-3.24L58.39,369.57z"/>
	<path class="st1" d="M67.54,369.63h-1.42v3.17h-1.78v-8.66h3.22c1.02,0,1.81,0.23,2.37,0.68c0.55,0.46,0.83,1.1,0.83,1.93
		c0,0.59-0.13,1.08-0.38,1.48c-0.26,0.39-0.64,0.71-1.16,0.94l1.87,3.54v0.08h-1.91L67.54,369.63z M66.12,368.18h1.44
		c0.45,0,0.79-0.11,1.04-0.34c0.25-0.23,0.37-0.54,0.37-0.94c0-0.41-0.12-0.73-0.35-0.96c-0.23-0.23-0.59-0.35-1.07-0.35h-1.43
		V368.18z"/>
	<path class="st1" d="M79.15,372.8h-1.78l-3.47-5.7v5.7h-1.78v-8.66h1.78l3.48,5.71v-5.71h1.78V372.8z"/>
	<path class="st1" d="M86.07,364.14l2.22,6.28l2.21-6.28h2.34v8.66h-1.79v-2.37l0.18-4.08l-2.34,6.45h-1.22l-2.33-6.45l0.18,4.08
		v2.37h-1.78v-8.66H86.07z"/>
	<path class="st1" d="M101.52,368.67c0,0.85-0.15,1.6-0.45,2.24c-0.3,0.64-0.73,1.14-1.29,1.49s-1.2,0.52-1.93,0.52
		c-0.72,0-1.36-0.17-1.92-0.52c-0.56-0.34-1-0.84-1.31-1.48c-0.31-0.64-0.47-1.38-0.47-2.21v-0.43c0-0.85,0.15-1.6,0.46-2.25
		c0.31-0.65,0.74-1.15,1.3-1.49c0.56-0.35,1.2-0.52,1.92-0.52s1.36,0.17,1.92,0.52c0.56,0.35,0.99,0.84,1.3,1.49
		c0.31,0.65,0.46,1.4,0.46,2.24V368.67z M99.71,368.27c0-0.91-0.16-1.6-0.49-2.07s-0.79-0.71-1.39-0.71c-0.6,0-1.06,0.23-1.38,0.7
		c-0.33,0.47-0.49,1.15-0.49,2.05v0.42c0,0.88,0.16,1.57,0.49,2.06c0.33,0.49,0.79,0.73,1.4,0.73c0.6,0,1.06-0.23,1.38-0.7
		s0.48-1.16,0.49-2.05V368.27z"/>
	<path class="st1" d="M106.02,369.63h-1.42v3.17h-1.78v-8.66h3.22c1.02,0,1.81,0.23,2.37,0.68c0.55,0.46,0.83,1.1,0.83,1.93
		c0,0.59-0.13,1.08-0.38,1.48c-0.25,0.39-0.64,0.71-1.16,0.94l1.87,3.54v0.08h-1.92L106.02,369.63z M104.6,368.18h1.44
		c0.45,0,0.79-0.11,1.04-0.34c0.25-0.23,0.37-0.54,0.37-0.94c0-0.41-0.12-0.73-0.35-0.96c-0.23-0.23-0.59-0.35-1.07-0.35h-1.43
		V368.18z"/>
	<path class="st1" d="M115.79,369.05h-3.42v2.32h4.02v1.43h-5.8v-8.66h5.79v1.45h-4.01v2.06h3.42V369.05z"/>
</g>
</svg>
