<svg id="Layer_1" xmlns="http://www.w3.org/2000/svg" viewBox="0 0 300 250"><style>.st0{fill:#021d8b;stroke:url(#SVGID_1_);stroke-miterlimit:10}.st1{fill:#fff}</style><linearGradient id="SVGID_1_" gradientUnits="userSpaceOnUse" x1="219.495" y1="183.371" x2="287.912" y2="183.371"><stop offset="0" stop-color="#18b9fb"/><stop offset=".5" stop-color="#782eeb"/><stop offset="1" stop-color="#e82d8a"/></linearGradient><path class="st0" d="M278.9 202.32h-50.39a8.51 8.51 0 0 1-8.51-8.51v-20.87c0-4.7 3.81-8.51 8.51-8.51h50.39c4.7 0 8.51 3.81 8.51 8.51v20.87c0 4.7-3.81 8.51-8.51 8.51z"/><path class="st1" d="M249.31 173.16h-2.89v7.86h-1.94v-7.86h-2.85v-1.57h7.69v1.57zM253.91 177.56h-1.55v3.45h-1.94v-9.43h3.5c1.12 0 1.97.25 2.58.75.61.5.91 1.2.91 2.11 0 .64-.14 1.18-.42 1.61-.28.43-.7.77-1.27 1.03l2.04 3.86v.09h-2.09l-1.76-3.47zm-1.55-1.57h1.57c.49 0 .87-.12 1.13-.37.27-.25.4-.59.4-1.03 0-.44-.13-.79-.38-1.05-.25-.25-.64-.38-1.16-.38h-1.56v2.83zM261.83 175.83l1.96-4.25h2.13l-3.1 6.01v3.42h-1.98v-3.42l-3.1-6.01h2.13l1.96 4.25zM240.61 186.43h-2.89v7.86h-1.94v-7.86h-2.85v-1.57h7.69v1.57zM249.28 189.78c0 .93-.16 1.74-.49 2.44-.33.7-.8 1.24-1.41 1.62s-1.31.57-2.1.57c-.78 0-1.48-.19-2.09-.56-.61-.38-1.09-.91-1.43-1.61-.34-.7-.51-1.5-.51-2.41v-.47c0-.93.17-1.75.5-2.45s.81-1.25 1.42-1.63c.61-.38 1.31-.57 2.1-.57s1.48.19 2.1.57c.61.38 1.08.92 1.42 1.63.33.71.5 1.52.5 2.45v.42zm-1.97-.42c0-.99-.18-1.74-.53-2.25-.35-.51-.86-.77-1.52-.77-.65 0-1.16.25-1.51.76-.35.51-.53 1.25-.54 2.23v.46c0 .96.18 1.71.53 2.24s.86.8 1.53.8c.65 0 1.15-.26 1.5-.77.35-.51.53-1.26.53-2.24v-.46zM250.7 194.29v-9.43h2.9c.83 0 1.57.19 2.23.56.65.37 1.17.9 1.53 1.59s.55 1.47.55 2.35v.43c0 .88-.18 1.66-.54 2.34s-.87 1.21-1.53 1.59c-.66.38-1.4.57-2.22.57h-2.92zm1.94-7.86v6.3h.94c.76 0 1.34-.25 1.74-.75.4-.5.61-1.21.62-2.13v-.5c0-.96-.2-1.69-.6-2.18-.4-.5-.98-.74-1.74-.74h-.96zM264.65 192.34h-3.41l-.65 1.94h-2.07l3.51-9.43h1.8l3.53 9.43h-2.07l-.64-1.94zm-2.89-1.57h2.36l-1.19-3.53-1.17 3.53zM270.53 189.1l1.96-4.25h2.13l-3.1 6.01v3.42h-1.98v-3.42l-3.1-6.01h2.13l1.96 4.25z"/></svg>