<svg id="Layer_1" xmlns="http://www.w3.org/2000/svg" viewBox="0 0 300 250"><style>.st0{fill:#021d8b}</style><path class="st0" d="M239.71 230.24c.07.07.11.16.11.26v4.11c0 .1-.04.19-.11.26s-.16.11-.26.11-.18-.04-.26-.11a.327.327 0 0 1-.11-.26v-4.11c0-.1.04-.19.11-.26a.363.363 0 0 1 .52 0zm-.26-1.83c-.1 0-.19.04-.26.11s-.11.16-.11.26v.28c0 .1.04.19.11.26.08.07.16.11.26.11s.19-.04.26-.11.11-.16.11-.26v-.28c0-.1-.04-.19-.11-.26a.363.363 0 0 0-.26-.11zm-1.31 1.88c-.13-.04-.31-.07-.53-.09-.4 0-.75.11-1.05.34a.384.384 0 0 0-.13-.22.363.363 0 0 0-.49.03c-.07.07-.11.16-.11.26v4.02c0 .1.04.19.11.26s.16.11.25.11c.1 0 .19-.04.26-.11s.11-.16.11-.26v-2.74c.01-.13.04-.26.09-.37.05-.11.12-.22.22-.3.09-.09.2-.15.32-.21a1.02 1.02 0 0 1 .9.05c.06.04.14.07.22.07.1 0 .19-.03.26-.1s.11-.15.11-.26c0-.13-.05-.24-.16-.31-.13-.08-.25-.13-.38-.17zm6.11-.17c-.16 0-.28.08-.34.23l-1.45 3.38-1.45-3.38a.39.39 0 0 0-.14-.17.36.36 0 0 0-.2-.06c-.11 0-.2.04-.26.12-.07.08-.1.16-.1.25 0 .05.01.1.03.15l1.78 4.16c.06.15.17.23.34.23.16 0 .27-.08.34-.23l1.78-4.16c.02-.05.03-.09.03-.15 0-.09-.03-.18-.1-.25-.06-.08-.14-.12-.26-.12zm3.89 1.05c.09.22.14.44.14.69v2.76c0 .1-.04.19-.11.26-.08.07-.16.11-.26.11-.09 0-.17-.03-.24-.08a.326.326 0 0 1-.12-.21c-.3.22-.65.33-1.04.33-.24 0-.47-.05-.69-.14-.22-.09-.4-.22-.56-.38-.16-.16-.29-.35-.38-.56-.09-.22-.14-.44-.14-.69v-1.41c0-.24.05-.47.14-.69.09-.22.22-.4.38-.56.16-.16.35-.29.56-.38.21-.09.44-.14.69-.14.24 0 .47.05.69.14.22.09.4.22.56.38.16.17.28.36.38.57zm-.6.69c0-.14-.03-.27-.08-.39-.06-.12-.13-.23-.22-.33a.955.955 0 0 0-.33-.22c-.13-.05-.26-.08-.4-.08s-.28.03-.4.08-.23.13-.33.22c-.09.09-.17.2-.22.33-.05.12-.08.25-.08.39v1.41c0 .14.03.27.08.39.06.12.13.23.22.33.09.09.2.17.33.22.13.05.26.08.4.08s.27-.02.39-.07.23-.12.32-.21.16-.19.22-.31.09-.24.09-.38v-1.46zm2.25-.39c.05-.12.13-.23.22-.33.09-.09.2-.17.33-.22a1.023 1.023 0 0 1 .96.09c.17.11.3.26.39.46.03.07.07.13.13.17.06.04.13.06.21.06.1 0 .19-.04.26-.11s.11-.16.11-.26a.44.44 0 0 0-.03-.14c-.1-.26-.24-.47-.4-.61-.16-.15-.32-.26-.48-.33a1.41 1.41 0 0 0-.45-.13c-.13-.02-.22-.02-.27-.02-.25 0-.48.05-.7.14-.22.09-.41.22-.58.37-.17.16-.3.34-.39.56-.09.22-.14.45-.14.7v1.41c0 .24.05.47.14.69.09.22.22.4.38.56.16.16.35.29.56.38.22.09.44.14.69.14.01 0 .07 0 .19-.01s.27-.04.44-.11c.17-.07.35-.17.53-.32.18-.15.34-.37.47-.66.02-.05.03-.09.03-.14 0-.1-.04-.18-.11-.26a.327.327 0 0 0-.26-.11.37.37 0 0 0-.21.06c-.06.04-.1.1-.14.17a.96.96 0 0 1-.38.46 1.031 1.031 0 0 1-.97.09.955.955 0 0 1-.33-.22c-.09-.09-.16-.2-.22-.33a.853.853 0 0 1-.08-.39v-1.41c.02-.15.05-.28.1-.4zm15.85-1.34c-.1 0-.19.04-.26.11s-.11.16-.11.26v2.76c0 .14-.03.27-.08.39-.06.12-.13.23-.22.33-.09.09-.2.17-.33.22-.13.05-.26.08-.4.08s-.28-.03-.4-.08a1.19 1.19 0 0 1-.33-.22.955.955 0 0 1-.22-.33c-.05-.12-.08-.25-.08-.39v-2.76c0-.1-.04-.19-.11-.26a.381.381 0 0 0-.26-.11c-.1 0-.19.04-.26.11s-.11.16-.11.26v2.76c0 .24.05.47.14.69.09.22.22.4.38.56.16.16.35.29.56.38.21.09.44.14.69.14.24 0 .47-.05.69-.14.22-.09.4-.22.56-.38.16-.16.29-.35.38-.56.09-.22.14-.44.14-.69v-2.76c0-.1-.04-.19-.11-.26a.4.4 0 0 0-.26-.11zm4.47 1.04c.09.22.14.44.14.69v2.76c0 .1-.04.19-.11.26-.08.07-.16.11-.26.11-.09 0-.17-.03-.24-.08a.326.326 0 0 1-.12-.21c-.3.22-.65.33-1.04.33-.24 0-.47-.05-.69-.14-.22-.09-.4-.22-.56-.38-.16-.16-.29-.35-.38-.56-.09-.22-.14-.44-.14-.69v-1.41c0-.24.05-.47.14-.69.09-.22.22-.4.38-.56.16-.16.35-.29.56-.38.21-.09.44-.14.69-.14.24 0 .47.05.69.14.22.09.4.22.56.38.16.17.28.36.38.57zm-.6.69c0-.14-.03-.27-.08-.39-.06-.12-.13-.23-.22-.33a.955.955 0 0 0-.33-.22c-.13-.05-.26-.08-.4-.08s-.28.03-.4.08-.23.13-.33.22c-.09.09-.17.2-.22.33-.05.12-.08.25-.08.39v1.41c0 .14.03.27.08.39.06.12.13.23.22.33.09.09.2.17.33.22.13.05.26.08.4.08s.27-.02.39-.07.23-.12.32-.21.16-.19.22-.31.09-.24.09-.38v-1.46zm3.77-1.57c-.13-.04-.31-.07-.53-.09-.4 0-.75.11-1.05.34a.384.384 0 0 0-.13-.22.363.363 0 0 0-.49.03c-.07.07-.11.16-.11.26v4.02c0 .1.04.19.11.26s.16.11.25.11c.1 0 .19-.04.26-.11s.11-.16.11-.26v-2.74c.01-.13.04-.26.09-.37.05-.11.12-.22.22-.3.09-.09.2-.15.32-.21a1.02 1.02 0 0 1 .9.05c.06.04.14.07.22.07.1 0 .19-.03.26-.1s.11-.15.11-.26c0-.13-.05-.24-.16-.31-.13-.08-.25-.13-.38-.17zm4.16-1.77c.08.07.11.16.11.26v5.83c0 .1-.04.19-.11.26a.37.37 0 0 1-.27.11c-.1 0-.19-.04-.26-.11a.297.297 0 0 1-.1-.19 1.772 1.772 0 0 1-1.73.2 1.791 1.791 0 0 1-.94-.94c-.09-.22-.14-.44-.14-.69v-1.41c0-.24.05-.47.14-.69.09-.22.22-.4.38-.56.16-.16.35-.29.56-.38.22-.09.44-.14.69-.14.19 0 .37.03.54.09.17.06.33.14.48.24v-1.65c0-.1.04-.19.11-.26s.16-.11.26-.11c.12.03.21.07.28.14zm-.71 5.14c.05-.11.07-.22.08-.33v-1.53c-.01-.11-.03-.22-.07-.33a1.19 1.19 0 0 0-.22-.33.955.955 0 0 0-.33-.22c-.12-.05-.26-.08-.4-.08s-.27.03-.4.08-.24.13-.33.22c-.09.09-.16.2-.22.33-.06.12-.08.25-.08.39v1.41c0 .14.03.27.08.39s.13.23.22.33c.09.09.2.17.33.22.12.05.26.08.4.08s.27-.03.4-.08.24-.13.33-.22c.08-.1.15-.21.21-.33zm-20.48-3.53c-.1 0-.19.04-.26.11s-.11.16-.11.26v2.76c0 .14-.03.27-.08.39-.06.12-.13.23-.22.33-.09.09-.2.17-.33.22-.13.05-.26.08-.4.08s-.28-.03-.4-.08a1.19 1.19 0 0 1-.33-.22.955.955 0 0 1-.22-.33c-.05-.12-.08-.25-.08-.39v-2.76c0-.1-.04-.19-.11-.26a.381.381 0 0 0-.26-.11c-.1 0-.19.04-.26.11s-.11.16-.11.26v2.76c0 .24.05.47.14.69.09.22.22.4.38.56.16.16.35.29.56.38.21.09.44.14.69.14.24 0 .47-.05.69-.14.12-.05.24-.12.34-.2v.93c-.01.14-.04.26-.09.38-.05.12-.13.22-.22.31s-.2.16-.32.21c-.12.05-.25.08-.4.08-.18 0-.36-.05-.52-.14a.37.37 0 0 0-.23-.07c-.1 0-.19.03-.26.1a.37.37 0 0 0-.11.27c0 .14.06.24.17.32.11.08.23.13.37.17.13.04.32.07.54.09.41 0 .77-.11 1.08-.34.47-.33.73-.81.73-1.35v-2.39-2.76c0-.1-.04-.19-.11-.26a.381.381 0 0 0-.26-.11zm5.17 1.58h-1.55a.37.37 0 0 0-.38.36c0 .21.17.38.38.38h1.24v.58c0 .8-.72 1.4-1.49 1.4-.84 0-1.56-.57-1.56-1.56v-2.23c0-.91.69-1.56 1.53-1.56.71 0 1.26.47 1.47 1.06.07.12.17.2.34.2.29 0 .47-.23.33-.57-.24-.72-.97-1.45-2.14-1.45-1.34 0-2.3 1.06-2.3 2.27v2.32c0 1.23.97 2.28 2.3 2.28 1.21 0 2.22-.94 2.22-2.01v-1.12c0-.21-.18-.35-.39-.35zm-26.35-1.67c.12.27.18.57.18.88a2.2 2.2 0 0 1-.67 1.59c-.2.2-.45.37-.72.48-.28.12-.57.18-.89.18h-1.11v1.46c0 .1-.04.19-.11.26s-.16.11-.26.11a.34.34 0 0 1-.25-.11.363.363 0 0 1-.11-.26v-5.59c0-.1.04-.19.11-.26s.16-.11.26-.11h1.48c.31 0 .61.06.88.18s.52.28.72.48c.2.2.36.43.49.71zm-.55.88c0-.21-.04-.41-.12-.59-.08-.19-.19-.35-.34-.48a1.53 1.53 0 0 0-1.09-.45h-1.11v3.05h1.11a1.544 1.544 0 0 0 1.43-.93c.08-.19.12-.39.12-.6zm43.41-2.36h.14v.41h.12v-.41h.14v-.1h-.39v.1zm.98-.1h-.15l-.05.17c-.02.06-.03.12-.05.18-.01-.06-.03-.12-.04-.18l-.05-.17h-.15l-.03.51h.11l.01-.19c0-.06.01-.14.01-.21.01.07.03.14.05.2l.05.2h.09l.06-.2c.02-.06.04-.13.06-.2v.21l.01.2h.11l-.04-.52z"/></svg>