<?xml version="1.0" encoding="utf-8"?>
<!-- Generator: Adobe Illustrator 25.2.1, SVG Export Plug-In . SVG Version: 6.00 Build 0)  -->
<svg version="1.1" id="Layer_1" xmlns="http://www.w3.org/2000/svg" xmlns:xlink="http://www.w3.org/1999/xlink" x="0px" y="0px"
	 viewBox="0 0 970 250" style="enable-background:new 0 0 970 250;" xml:space="preserve">
<style type="text/css">
	.st0{fill:#021D8B;}
</style>
<g>
	<path class="st0" d="M389.43,104.73h-6.49V77.71h6.49V104.73z"/>
	<path class="st0" d="M400.96,79.66v4.99h3.3v4.34h-3.3v9.18c0,0.75,0.14,1.28,0.41,1.58c0.27,0.3,0.81,0.45,1.61,0.45
		c0.62,0,1.14-0.04,1.56-0.11v4.47c-1.13,0.36-2.3,0.54-3.53,0.54c-2.15,0-3.74-0.51-4.77-1.52c-1.03-1.01-1.54-2.55-1.54-4.62
		v-9.96h-2.56v-4.34h2.56v-4.99H400.96z"/>
	<path class="st0" d="M410.22,79.23l-0.61,7.66h-3.84V76.23h4.45V79.23z"/>
	<path class="st0" d="M421.39,99.09c0-0.53-0.28-0.96-0.83-1.28c-0.56-0.32-1.61-0.66-3.17-1c-1.56-0.35-2.85-0.8-3.86-1.36
		c-1.01-0.56-1.79-1.25-2.32-2.05c-0.53-0.8-0.8-1.73-0.8-2.76c0-1.84,0.76-3.36,2.28-4.55c1.52-1.19,3.51-1.79,5.97-1.79
		c2.65,0,4.77,0.6,6.38,1.8c1.61,1.2,2.41,2.78,2.41,4.73h-6.27c0-1.61-0.85-2.41-2.54-2.41c-0.66,0-1.21,0.18-1.65,0.55
		c-0.45,0.37-0.67,0.82-0.67,1.36c0,0.56,0.27,1.01,0.82,1.35c0.54,0.35,1.41,0.63,2.61,0.85c1.19,0.22,2.24,0.49,3.14,0.8
		c3.02,1.04,4.53,2.9,4.53,5.58c0,1.83-0.81,3.32-2.44,4.47c-1.63,1.15-3.73,1.73-6.32,1.73c-1.72,0-3.25-0.31-4.6-0.93
		c-1.35-0.62-2.4-1.46-3.15-2.52c-0.75-1.06-1.13-2.18-1.13-3.36h5.84c0.02,0.93,0.33,1.6,0.93,2.03c0.59,0.43,1.35,0.64,2.28,0.64
		c0.85,0,1.49-0.17,1.92-0.52C421.17,100.1,421.39,99.64,421.39,99.09z"/>
	<path class="st0" d="M447.08,79.66v4.99h3.3v4.34h-3.3v9.18c0,0.75,0.14,1.28,0.41,1.58c0.27,0.3,0.81,0.45,1.61,0.45
		c0.62,0,1.14-0.04,1.56-0.11v4.47c-1.13,0.36-2.3,0.54-3.53,0.54c-2.15,0-3.74-0.51-4.77-1.52c-1.03-1.01-1.54-2.55-1.54-4.62
		v-9.96h-2.56v-4.34h2.56v-4.99H447.08z"/>
	<path class="st0" d="M452.8,79.48c0-0.89,0.32-1.62,0.96-2.19c0.64-0.57,1.48-0.85,2.5-0.85c1.03,0,1.86,0.29,2.5,0.85
		c0.64,0.57,0.96,1.3,0.96,2.19s-0.32,1.62-0.96,2.19c-0.64,0.57-1.48,0.85-2.5,0.85c-1.03,0-1.86-0.28-2.5-0.85
		C453.12,81.1,452.8,80.37,452.8,79.48z M459.44,104.73h-6.27V84.65h6.27V104.73z"/>
	<path class="st0" d="M469.2,84.65l0.2,2.36c1.42-1.82,3.33-2.73,5.73-2.73c2.54,0,4.25,1.01,5.14,3.02
		c1.36-2.02,3.33-3.02,5.9-3.02c4.07,0,6.16,2.46,6.27,7.38v13.06h-6.27V92.06c0-1.03-0.17-1.77-0.52-2.25
		c-0.35-0.47-0.98-0.71-1.89-0.71c-1.24,0-2.16,0.55-2.76,1.65l0.02,0.26v13.71h-6.27V92.09c0-1.05-0.17-1.81-0.5-2.28
		c-0.33-0.47-0.97-0.71-1.91-0.71c-1.2,0-2.12,0.55-2.75,1.65v13.97h-6.25V84.65H469.2z"/>
	<path class="st0" d="M505.74,105.1c-3.08,0-5.57-0.92-7.48-2.76c-1.91-1.84-2.86-4.23-2.86-7.17v-0.52c0-2.05,0.38-3.87,1.14-5.44
		c0.76-1.57,1.87-2.79,3.33-3.65c1.46-0.86,3.19-1.29,5.2-1.29c2.82,0,5.05,0.88,6.68,2.62c1.63,1.75,2.45,4.19,2.45,7.32v2.43
		h-12.43c0.22,1.13,0.71,2.01,1.47,2.65c0.75,0.64,1.73,0.96,2.93,0.96c1.98,0,3.53-0.69,4.64-2.08l2.86,3.38
		c-0.78,1.08-1.88,1.93-3.31,2.57C508.92,104.78,507.38,105.1,505.74,105.1z M505.03,89.11c-1.83,0-2.92,1.21-3.27,3.64h6.31v-0.48
		c0.02-1-0.23-1.78-0.76-2.33C506.78,89.38,506.02,89.11,505.03,89.11z"/>
	<path class="st0" d="M533.46,79.66v4.99h3.3v4.34h-3.3v9.18c0,0.75,0.14,1.28,0.41,1.58c0.27,0.3,0.81,0.45,1.61,0.45
		c0.62,0,1.14-0.04,1.56-0.11v4.47c-1.13,0.36-2.3,0.54-3.53,0.54c-2.15,0-3.74-0.51-4.77-1.52c-1.03-1.01-1.54-2.55-1.54-4.62
		v-9.96h-2.56v-4.34h2.56v-4.99H533.46z"/>
	<path class="st0" d="M537.87,94.5c0-2,0.39-3.79,1.17-5.35c0.78-1.57,1.9-2.77,3.36-3.61c1.46-0.84,3.17-1.26,5.14-1.26
		c3.01,0,5.37,0.93,7.11,2.79c1.73,1.86,2.6,4.39,2.6,7.6v0.22c0,3.13-0.87,5.61-2.61,7.45c-1.74,1.84-4.09,2.76-7.06,2.76
		c-2.86,0-5.15-0.86-6.88-2.57c-1.73-1.71-2.67-4.04-2.8-6.97L537.87,94.5z M544.12,94.89c0,1.86,0.29,3.22,0.87,4.08
		c0.58,0.87,1.44,1.3,2.58,1.3c2.23,0,3.36-1.71,3.41-5.14V94.5c0-3.6-1.15-5.4-3.45-5.4c-2.09,0-3.22,1.55-3.4,4.66L544.12,94.89z"
		/>
	<path class="st0" d="M577.52,97.25l-1.76,1.76v5.71h-6.25V76.21h6.25v15.14l0.63-0.83l4.71-5.86h7.5l-7.03,8.26l7.5,11.82h-7.16
		L577.52,97.25z"/>
	<path class="st0" d="M599.96,105.1c-3.08,0-5.57-0.92-7.48-2.76c-1.91-1.84-2.86-4.23-2.86-7.17v-0.52c0-2.05,0.38-3.87,1.14-5.44
		c0.76-1.57,1.87-2.79,3.33-3.65c1.46-0.86,3.19-1.29,5.2-1.29c2.82,0,5.05,0.88,6.68,2.62c1.63,1.75,2.45,4.19,2.45,7.32v2.43
		h-12.43c0.22,1.13,0.71,2.01,1.47,2.65c0.75,0.64,1.73,0.96,2.93,0.96c1.98,0,3.53-0.69,4.64-2.08l2.86,3.38
		c-0.78,1.08-1.88,1.93-3.31,2.57C603.14,104.78,601.6,105.1,599.96,105.1z M599.25,89.11c-1.83,0-2.92,1.21-3.27,3.64h6.31v-0.48
		c0.02-1-0.23-1.78-0.76-2.33C601,89.38,600.24,89.11,599.25,89.11z"/>
	<path class="st0" d="M620.64,105.1c-3.08,0-5.57-0.92-7.48-2.76c-1.91-1.84-2.86-4.23-2.86-7.17v-0.52c0-2.05,0.38-3.87,1.14-5.44
		c0.76-1.57,1.87-2.79,3.33-3.65c1.46-0.86,3.19-1.29,5.2-1.29c2.82,0,5.05,0.88,6.68,2.62c1.63,1.75,2.45,4.19,2.45,7.32v2.43
		h-12.43c0.22,1.13,0.71,2.01,1.47,2.65c0.75,0.64,1.73,0.96,2.93,0.96c1.98,0,3.53-0.69,4.64-2.08l2.86,3.38
		c-0.78,1.08-1.88,1.93-3.31,2.57C623.83,104.78,622.29,105.1,620.64,105.1z M619.94,89.11c-1.83,0-2.92,1.21-3.27,3.64h6.31v-0.48
		c0.02-1-0.23-1.78-0.76-2.33C621.69,89.38,620.93,89.11,619.94,89.11z"/>
	<path class="st0" d="M650.26,94.84c0,3.12-0.7,5.61-2.11,7.47c-1.4,1.86-3.3,2.79-5.69,2.79c-1.84,0-3.36-0.67-4.55-2.02v9.37
		h-6.25V84.65h5.84l0.19,1.86c1.2-1.48,2.78-2.23,4.73-2.23c2.47,0,4.4,0.91,5.77,2.74c1.37,1.83,2.06,4.33,2.06,7.52V94.84z
		 M644,94.45c0-3.56-1.04-5.34-3.12-5.34c-1.48,0-2.47,0.53-2.97,1.6v7.9c0.54,1.11,1.55,1.67,3.01,1.67c1.99,0,3.02-1.72,3.08-5.16
		V94.45z"/>
	<path class="st0" d="M673.79,104.73c-0.22-0.41-0.42-1.01-0.59-1.8c-1.15,1.45-2.76,2.17-4.82,2.17c-1.89,0-3.5-0.57-4.82-1.72
		c-1.32-1.14-1.99-2.58-1.99-4.31c0-2.18,0.8-3.82,2.41-4.94c1.61-1.11,3.95-1.67,7.01-1.67h1.93V91.4c0-1.85-0.8-2.78-2.39-2.78
		c-1.48,0-2.23,0.73-2.23,2.2h-6.25c0-1.94,0.83-3.51,2.48-4.73c1.65-1.21,3.76-1.82,6.32-1.82s4.58,0.62,6.07,1.87
		c1.48,1.25,2.25,2.96,2.28,5.14v8.89c0.02,1.84,0.31,3.25,0.85,4.23v0.32H673.79z M669.87,100.65c0.78,0,1.43-0.17,1.94-0.5
		c0.51-0.33,0.88-0.71,1.1-1.13V95.8h-1.82c-2.18,0-3.27,0.98-3.27,2.93c0,0.57,0.19,1.03,0.58,1.38
		C668.79,100.47,669.28,100.65,669.87,100.65z"/>
	<path class="st0" d="M688.39,84.65l0.2,2.36c1.38-1.82,3.3-2.73,5.73-2.73c2.09,0,3.65,0.62,4.69,1.87
		c1.03,1.25,1.57,3.13,1.6,5.64v12.93h-6.27V92.06c0-1.01-0.2-1.76-0.61-2.24c-0.41-0.48-1.15-0.71-2.23-0.71
		c-1.22,0-2.13,0.48-2.73,1.45v14.18h-6.25V84.65H688.39z"/>
	<path class="st0" d="M391.92,150.7c-3.08,0-5.57-0.92-7.48-2.76c-1.91-1.84-2.86-4.23-2.86-7.17v-0.52c0-2.05,0.38-3.87,1.14-5.44
		c0.76-1.57,1.87-2.79,3.33-3.65c1.46-0.86,3.19-1.29,5.2-1.29c2.82,0,5.05,0.88,6.68,2.62c1.63,1.75,2.45,4.19,2.45,7.32v2.43
		h-12.43c0.22,1.13,0.71,2.01,1.47,2.65c0.75,0.64,1.73,0.96,2.93,0.96c1.98,0,3.53-0.69,4.64-2.08l2.86,3.38
		c-0.78,1.08-1.88,1.93-3.31,2.57C395.1,150.38,393.57,150.7,391.92,150.7z M391.22,134.71c-1.83,0-2.92,1.21-3.27,3.64h6.31v-0.48
		c0.02-1-0.23-1.78-0.76-2.33C392.97,134.98,392.21,134.71,391.22,134.71z"/>
	<path class="st0" d="M410.92,141.57l3.34-11.32h6.7l-8.18,23.43l-0.35,0.85c-1.16,2.6-3.22,3.9-6.16,3.9
		c-0.82,0-1.68-0.12-2.58-0.37v-4.45h0.82c0.88,0,1.55-0.13,2.01-0.38c0.46-0.25,0.81-0.71,1.03-1.36l0.5-1.34l-6.98-20.28h6.68
		L410.92,141.57z"/>
	<path class="st0" d="M432.3,150.7c-3.08,0-5.57-0.92-7.48-2.76c-1.91-1.84-2.86-4.23-2.86-7.17v-0.52c0-2.05,0.38-3.87,1.14-5.44
		c0.76-1.57,1.87-2.79,3.33-3.65c1.46-0.86,3.19-1.29,5.2-1.29c2.82,0,5.05,0.88,6.68,2.62c1.63,1.75,2.45,4.19,2.45,7.32v2.43
		h-12.43c0.22,1.13,0.71,2.01,1.47,2.65c0.75,0.64,1.73,0.96,2.93,0.96c1.98,0,3.53-0.69,4.64-2.08l2.86,3.38
		c-0.78,1.08-1.88,1.93-3.31,2.57C435.48,150.38,433.94,150.7,432.3,150.7z M431.59,134.71c-1.83,0-2.92,1.21-3.27,3.64h6.31v-0.48
		c0.02-1-0.23-1.78-0.76-2.33C433.34,134.98,432.58,134.71,431.59,134.71z"/>
	<path class="st0" d="M451.95,140.1c0-2,0.39-3.79,1.17-5.35c0.78-1.57,1.9-2.77,3.36-3.61c1.46-0.84,3.17-1.26,5.14-1.26
		c3.01,0,5.37,0.93,7.11,2.79c1.73,1.86,2.6,4.39,2.6,7.6v0.22c0,3.13-0.87,5.61-2.61,7.45c-1.74,1.84-4.09,2.76-7.06,2.76
		c-2.86,0-5.15-0.86-6.88-2.57c-1.73-1.71-2.67-4.04-2.8-6.97L451.95,140.1z M458.2,140.49c0,1.86,0.29,3.22,0.87,4.08
		c0.58,0.87,1.44,1.3,2.58,1.3c2.23,0,3.36-1.71,3.41-5.14v-0.63c0-3.6-1.15-5.4-3.45-5.4c-2.09,0-3.22,1.55-3.4,4.66L458.2,140.49z
		"/>
	<path class="st0" d="M479.81,130.25l0.2,2.36c1.38-1.82,3.3-2.73,5.73-2.73c2.09,0,3.65,0.62,4.69,1.87
		c1.03,1.25,1.57,3.13,1.6,5.64v12.93h-6.27v-12.67c0-1.01-0.2-1.76-0.61-2.24c-0.41-0.48-1.15-0.71-2.23-0.71
		c-1.22,0-2.13,0.48-2.73,1.45v14.18h-6.25v-20.08H479.81z"/>
	<path class="st0" d="M512.99,141.57l3.34-11.32h6.7l-8.18,23.43l-0.35,0.85c-1.16,2.6-3.22,3.9-6.16,3.9
		c-0.82,0-1.68-0.12-2.58-0.37v-4.45h0.82c0.88,0,1.55-0.13,2.01-0.38c0.46-0.25,0.81-0.71,1.03-1.36l0.5-1.34l-6.98-20.28h6.68
		L512.99,141.57z"/>
	<path class="st0" d="M523.86,140.1c0-2,0.39-3.79,1.17-5.35c0.78-1.57,1.9-2.77,3.36-3.61c1.46-0.84,3.17-1.26,5.14-1.26
		c3.01,0,5.37,0.93,7.11,2.79c1.73,1.86,2.6,4.39,2.6,7.6v0.22c0,3.13-0.87,5.61-2.61,7.45c-1.74,1.84-4.09,2.76-7.06,2.76
		c-2.86,0-5.15-0.86-6.88-2.57c-1.73-1.71-2.67-4.04-2.8-6.97L523.86,140.1z M530.12,140.49c0,1.86,0.29,3.22,0.87,4.08
		c0.58,0.87,1.44,1.3,2.58,1.3c2.23,0,3.36-1.71,3.41-5.14v-0.63c0-3.6-1.15-5.4-3.45-5.4c-2.09,0-3.22,1.55-3.4,4.66L530.12,140.49
		z"/>
	<path class="st0" d="M557.95,148.16c-1.32,1.7-3.11,2.54-5.36,2.54c-2.2,0-3.87-0.64-5-1.92c-1.13-1.28-1.7-3.12-1.7-5.52v-13.01
		h6.25v13.04c0,1.72,0.83,2.58,2.5,2.58c1.43,0,2.46-0.51,3.06-1.54v-14.08H564v20.08h-5.86L557.95,148.16z"/>
	<path class="st0" d="M579.56,135.91l-2.06-0.15c-1.97,0-3.23,0.62-3.79,1.86v12.71h-6.25v-20.08h5.86l0.2,2.58
		c1.05-1.97,2.52-2.95,4.4-2.95c0.67,0,1.25,0.07,1.74,0.22L579.56,135.91z"/>
	<path class="st0" d="M591.24,125.08c0-0.89,0.32-1.62,0.96-2.19c0.64-0.57,1.48-0.85,2.5-0.85c1.03,0,1.86,0.29,2.5,0.85
		c0.64,0.57,0.96,1.3,0.96,2.19s-0.32,1.62-0.96,2.19c-0.64,0.57-1.48,0.85-2.5,0.85c-1.03,0-1.86-0.28-2.5-0.85
		C591.56,126.7,591.24,125.97,591.24,125.08z M597.88,150.33h-6.27v-20.08h6.27V150.33z"/>
	<path class="st0" d="M600.94,140.14c0-3.18,0.69-5.68,2.06-7.51c1.37-1.83,3.29-2.75,5.75-2.75c1.79,0,3.3,0.71,4.53,2.12v-10.17
		h6.27v28.5h-5.62l-0.32-2.15c-1.29,1.68-2.92,2.52-4.9,2.52c-2.39,0-4.28-0.92-5.68-2.75
		C601.64,146.12,600.94,143.52,600.94,140.14z M607.19,140.53c0,3.56,1.04,5.34,3.12,5.34c1.38,0,2.38-0.58,2.97-1.74v-7.64
		c-0.57-1.19-1.55-1.78-2.93-1.78c-1.93,0-2.98,1.56-3.14,4.68L607.19,140.53z"/>
	<path class="st0" d="M632.82,150.7c-3.08,0-5.57-0.92-7.48-2.76c-1.91-1.84-2.86-4.23-2.86-7.17v-0.52c0-2.05,0.38-3.87,1.14-5.44
		c0.76-1.57,1.87-2.79,3.33-3.65c1.46-0.86,3.19-1.29,5.2-1.29c2.82,0,5.05,0.88,6.68,2.62c1.63,1.75,2.45,4.19,2.45,7.32v2.43
		h-12.43c0.22,1.13,0.71,2.01,1.47,2.65c0.75,0.64,1.73,0.96,2.93,0.96c1.98,0,3.53-0.69,4.64-2.08l2.86,3.38
		c-0.78,1.08-1.88,1.93-3.31,2.57C636,150.38,634.46,150.7,632.82,150.7z M632.11,134.71c-1.83,0-2.92,1.21-3.27,3.64h6.31v-0.48
		c0.02-1-0.23-1.78-0.76-2.33C633.86,134.98,633.1,134.71,632.11,134.71z"/>
	<path class="st0" d="M649.53,130.25l0.2,2.36c1.38-1.82,3.3-2.73,5.73-2.73c2.09,0,3.65,0.62,4.69,1.87
		c1.03,1.25,1.57,3.13,1.6,5.64v12.93h-6.27v-12.67c0-1.01-0.2-1.76-0.61-2.24c-0.41-0.48-1.15-0.71-2.23-0.71
		c-1.22,0-2.13,0.48-2.73,1.45v14.18h-6.25v-20.08H649.53z"/>
	<path class="st0" d="M672.5,125.26v4.99h3.3v4.34h-3.3v9.18c0,0.75,0.14,1.28,0.41,1.58c0.27,0.3,0.81,0.45,1.61,0.45
		c0.62,0,1.14-0.04,1.56-0.11v4.47c-1.13,0.36-2.3,0.54-3.53,0.54c-2.15,0-3.74-0.51-4.77-1.52c-1.03-1.01-1.54-2.55-1.54-4.62
		v-9.96h-2.56v-4.34h2.56v-4.99H672.5z"/>
	<path class="st0" d="M678.22,125.08c0-0.89,0.32-1.62,0.96-2.19c0.64-0.57,1.48-0.85,2.5-0.85c1.03,0,1.86,0.29,2.5,0.85
		c0.64,0.57,0.96,1.3,0.96,2.19s-0.32,1.62-0.96,2.19c-0.64,0.57-1.48,0.85-2.5,0.85c-1.03,0-1.86-0.28-2.5-0.85
		C678.54,126.7,678.22,125.97,678.22,125.08z M684.86,150.33h-6.27v-20.08h6.27V150.33z"/>
	<path class="st0" d="M696,125.26v4.99h3.3v4.34H696v9.18c0,0.75,0.14,1.28,0.41,1.58c0.27,0.3,0.81,0.45,1.61,0.45
		c0.62,0,1.14-0.04,1.56-0.11v4.47c-1.13,0.36-2.3,0.54-3.53,0.54c-2.15,0-3.74-0.51-4.77-1.52c-1.03-1.01-1.54-2.55-1.54-4.62
		v-9.96h-2.56v-4.34h2.56v-4.99H696z"/>
	<path class="st0" d="M709.78,141.57l3.34-11.32h6.7l-8.18,23.43l-0.35,0.85c-1.16,2.6-3.22,3.9-6.16,3.9
		c-0.82,0-1.68-0.12-2.58-0.37v-4.45h0.82c0.88,0,1.55-0.13,2.01-0.38c0.46-0.25,0.81-0.71,1.03-1.36l0.5-1.34l-6.98-20.28h6.68
		L709.78,141.57z"/>
	<path class="st0" d="M725.31,144.26c0.99,0,1.81,0.29,2.47,0.88c0.66,0.59,0.98,1.34,0.98,2.25c0,0.92-0.33,1.67-0.98,2.25
		c-0.66,0.59-1.48,0.88-2.47,0.88c-1,0-1.83-0.3-2.48-0.89c-0.65-0.59-0.97-1.34-0.97-2.25c0-0.9,0.33-1.65,0.97-2.25
		C723.48,144.56,724.31,144.26,725.31,144.26z"/>
</g>
</svg>
