<?xml version="1.0" encoding="utf-8"?>
<!-- Generator: Adobe Illustrator 25.2.1, SVG Export Plug-In . SVG Version: 6.00 Build 0)  -->
<svg version="1.1" id="Layer_1" xmlns="http://www.w3.org/2000/svg" xmlns:xlink="http://www.w3.org/1999/xlink" x="0px" y="0px"
	 viewBox="0 0 970 250" style="enable-background:new 0 0 970 250;" xml:space="preserve">
<style type="text/css">
	.st0{fill:#021D8B;}
</style>
<path class="st0" d="M849.52,202.15c0.19,0.18,0.28,0.4,0.28,0.67v10.35c0,0.26-0.09,0.48-0.27,0.67c-0.18,0.18-0.4,0.27-0.67,0.27
	c-0.25,0-0.46-0.09-0.65-0.27c-0.19-0.18-0.28-0.4-0.28-0.67v-10.35c0-0.26,0.09-0.48,0.27-0.67c0.18-0.18,0.4-0.27,0.67-0.27
	C849.11,201.88,849.33,201.97,849.52,202.15z M848.87,197.54c-0.26,0-0.48,0.09-0.67,0.27c-0.18,0.18-0.27,0.4-0.27,0.67v0.71
	c0,0.26,0.09,0.48,0.28,0.67c0.19,0.18,0.41,0.27,0.65,0.27c0.26,0,0.48-0.09,0.67-0.27c0.18-0.18,0.27-0.4,0.27-0.67v-0.71
	c0-0.26-0.09-0.48-0.28-0.67C849.33,197.63,849.11,197.54,848.87,197.54z M845.57,202.27c-0.33-0.1-0.78-0.17-1.34-0.22
	c-1.01,0-1.9,0.28-2.65,0.84c-0.05-0.22-0.16-0.41-0.33-0.54c-0.17-0.14-0.36-0.2-0.57-0.2c-0.26,0-0.47,0.09-0.65,0.26
	c-0.18,0.18-0.27,0.39-0.27,0.65v3.16v6.96c0,0.26,0.09,0.47,0.28,0.65c0.18,0.18,0.4,0.26,0.64,0.26c0.26,0,0.47-0.09,0.65-0.26
	c0.18-0.18,0.27-0.39,0.27-0.65v-6.89c0.02-0.34,0.09-0.65,0.22-0.94c0.13-0.29,0.31-0.54,0.54-0.76c0.23-0.22,0.5-0.39,0.8-0.52
	c0.3-0.13,0.62-0.19,0.98-0.19c0.45,0,0.88,0.11,1.28,0.34c0.16,0.11,0.35,0.17,0.55,0.17c0.26,0,0.47-0.08,0.65-0.25
	c0.18-0.17,0.26-0.39,0.26-0.66c0-0.34-0.14-0.6-0.41-0.78C846.2,202.5,845.9,202.36,845.57,202.27z M860.94,201.85
	c-0.41,0-0.7,0.19-0.86,0.57l-3.65,8.5l-3.65-8.5c-0.08-0.18-0.2-0.32-0.36-0.42c-0.16-0.1-0.32-0.15-0.51-0.15
	c-0.28,0-0.5,0.1-0.67,0.3c-0.16,0.2-0.25,0.41-0.25,0.64c0,0.13,0.02,0.25,0.07,0.37l4.48,10.47c0.15,0.38,0.44,0.57,0.86,0.57
	c0.39,0,0.68-0.19,0.86-0.57l4.48-10.47c0.05-0.11,0.07-0.24,0.07-0.37c0-0.23-0.08-0.44-0.25-0.64
	C861.44,201.95,861.22,201.85,860.94,201.85z M870.71,204.49c0.24,0.54,0.36,1.12,0.36,1.72v6.95c0,0.26-0.09,0.48-0.28,0.67
	c-0.19,0.18-0.41,0.27-0.65,0.27c-0.23,0-0.43-0.07-0.6-0.21c-0.17-0.14-0.28-0.32-0.31-0.53c-0.76,0.56-1.63,0.84-2.61,0.84
	c-0.61,0-1.18-0.11-1.72-0.35c-0.54-0.23-1.01-0.55-1.42-0.95c-0.4-0.4-0.72-0.87-0.96-1.42c-0.24-0.54-0.36-1.12-0.36-1.72v-3.55
	c0-0.61,0.11-1.18,0.35-1.72c0.23-0.54,0.55-1.01,0.96-1.42c0.41-0.4,0.88-0.72,1.42-0.95c0.53-0.23,1.11-0.35,1.74-0.35
	c0.61,0,1.18,0.12,1.72,0.35c0.54,0.23,1.01,0.55,1.42,0.95C870.15,203.47,870.47,203.95,870.71,204.49z M869.19,206.21
	c0-0.34-0.07-0.67-0.21-0.99c-0.14-0.31-0.32-0.59-0.55-0.83c-0.23-0.24-0.51-0.42-0.83-0.55c-0.32-0.13-0.65-0.2-1-0.2
	c-0.36,0-0.7,0.07-1.01,0.2c-0.31,0.13-0.59,0.32-0.83,0.55c-0.24,0.24-0.42,0.51-0.55,0.83c-0.13,0.31-0.2,0.64-0.2,0.99v3.55
	c0,0.34,0.07,0.67,0.21,0.99c0.14,0.31,0.32,0.59,0.55,0.83c0.23,0.24,0.51,0.42,0.83,0.55c0.32,0.13,0.65,0.2,1,0.2
	c0.34,0,0.67-0.06,0.99-0.18c0.31-0.12,0.58-0.3,0.81-0.52c0.23-0.22,0.41-0.48,0.55-0.78c0.14-0.3,0.22-0.62,0.23-0.96V206.21z
	 M874.86,205.23c0.13-0.31,0.32-0.59,0.55-0.83c0.24-0.24,0.51-0.42,0.83-0.55c0.31-0.13,0.65-0.2,1.01-0.2
	c0.51,0,0.98,0.14,1.4,0.42c0.43,0.28,0.76,0.67,0.99,1.16c0.07,0.18,0.18,0.32,0.33,0.43c0.16,0.11,0.33,0.16,0.53,0.16
	c0.26,0,0.48-0.09,0.67-0.27c0.18-0.18,0.27-0.4,0.27-0.67c0-0.1-0.02-0.21-0.07-0.35c-0.26-0.66-0.6-1.17-1-1.54
	c-0.4-0.37-0.81-0.64-1.22-0.83c-0.41-0.18-0.78-0.29-1.12-0.33c-0.34-0.04-0.56-0.06-0.68-0.06c-0.62,0-1.21,0.12-1.76,0.35
	c-0.55,0.23-1.03,0.54-1.45,0.94c-0.42,0.39-0.75,0.86-0.99,1.4c-0.24,0.54-0.36,1.13-0.36,1.75v3.55c0,0.61,0.12,1.18,0.36,1.72
	c0.24,0.54,0.56,1.01,0.96,1.42c0.4,0.4,0.87,0.72,1.42,0.95c0.54,0.23,1.12,0.35,1.72,0.35c0.02,0,0.18-0.01,0.48-0.02
	c0.3-0.02,0.67-0.11,1.11-0.27c0.43-0.16,0.88-0.43,1.34-0.81c0.46-0.38,0.85-0.93,1.18-1.65c0.05-0.11,0.07-0.23,0.07-0.34
	c0-0.25-0.09-0.46-0.27-0.65c-0.18-0.19-0.4-0.28-0.67-0.28c-0.2,0-0.37,0.05-0.52,0.16c-0.15,0.11-0.26,0.25-0.35,0.43
	c-0.21,0.49-0.53,0.88-0.96,1.16c-0.43,0.28-0.9,0.42-1.43,0.42c-0.34,0-0.68-0.07-1-0.2c-0.32-0.13-0.6-0.32-0.83-0.55
	c-0.23-0.24-0.41-0.51-0.55-0.83c-0.14-0.31-0.21-0.64-0.21-0.99v-3.55C874.66,205.87,874.73,205.54,874.86,205.23z M914.72,201.88
	c-0.26,0-0.48,0.09-0.67,0.27c-0.18,0.18-0.27,0.4-0.27,0.67v6.95c0,0.34-0.07,0.67-0.21,0.99c-0.14,0.31-0.32,0.59-0.55,0.83
	c-0.23,0.24-0.51,0.42-0.83,0.55c-0.32,0.13-0.65,0.2-1,0.2c-0.36,0-0.7-0.07-1.01-0.2c-0.31-0.13-0.59-0.32-0.83-0.55
	c-0.24-0.24-0.42-0.51-0.55-0.83c-0.13-0.31-0.2-0.64-0.2-0.99v-6.95c0-0.26-0.09-0.48-0.28-0.67c-0.19-0.18-0.41-0.27-0.65-0.27
	c-0.26,0-0.48,0.09-0.67,0.27c-0.18,0.18-0.27,0.4-0.27,0.67v6.95c0,0.61,0.11,1.18,0.35,1.72c0.23,0.54,0.55,1.01,0.96,1.42
	c0.41,0.4,0.88,0.72,1.42,0.95c0.53,0.23,1.11,0.35,1.74,0.35c0.61,0,1.18-0.11,1.72-0.35c0.54-0.23,1.01-0.55,1.42-0.95
	c0.4-0.4,0.72-0.87,0.96-1.42c0.24-0.54,0.36-1.12,0.36-1.72v-6.95c0-0.26-0.09-0.48-0.28-0.67
	C915.19,201.97,914.97,201.88,914.72,201.88z M925.97,204.49c0.24,0.54,0.36,1.12,0.36,1.72v6.95c0,0.26-0.09,0.48-0.28,0.67
	c-0.19,0.18-0.41,0.27-0.65,0.27c-0.23,0-0.43-0.07-0.6-0.21c-0.17-0.14-0.28-0.32-0.31-0.53c-0.76,0.56-1.63,0.84-2.61,0.84
	c-0.61,0-1.18-0.11-1.72-0.35c-0.54-0.23-1.01-0.55-1.42-0.95c-0.4-0.4-0.72-0.87-0.96-1.42c-0.24-0.54-0.36-1.12-0.36-1.72v-3.55
	c0-0.61,0.11-1.18,0.35-1.72c0.23-0.54,0.55-1.01,0.96-1.42c0.41-0.4,0.88-0.72,1.42-0.95c0.53-0.23,1.11-0.35,1.74-0.35
	c0.61,0,1.18,0.12,1.72,0.35c0.54,0.23,1.01,0.55,1.42,0.95C925.41,203.47,925.73,203.95,925.97,204.49z M924.45,206.21
	c0-0.34-0.07-0.67-0.21-0.99c-0.14-0.31-0.32-0.59-0.55-0.83c-0.23-0.24-0.51-0.42-0.83-0.55c-0.32-0.13-0.65-0.2-1-0.2
	c-0.36,0-0.7,0.07-1.01,0.2c-0.31,0.13-0.59,0.32-0.83,0.55c-0.24,0.24-0.42,0.51-0.55,0.83c-0.13,0.31-0.2,0.64-0.2,0.99v3.55
	c0,0.34,0.07,0.67,0.21,0.99c0.14,0.31,0.32,0.59,0.55,0.83c0.23,0.24,0.51,0.42,0.83,0.55c0.32,0.13,0.65,0.2,1,0.2
	c0.34,0,0.67-0.06,0.99-0.18c0.31-0.12,0.58-0.3,0.81-0.52c0.23-0.22,0.41-0.48,0.55-0.78c0.14-0.3,0.22-0.62,0.23-0.96V206.21z
	 M933.94,202.27c-0.33-0.1-0.78-0.17-1.34-0.22c-1.01,0-1.9,0.28-2.65,0.84c-0.05-0.22-0.16-0.41-0.33-0.54
	c-0.17-0.14-0.36-0.2-0.57-0.2c-0.26,0-0.47,0.09-0.65,0.26c-0.18,0.18-0.27,0.39-0.27,0.65v3.16v6.96c0,0.26,0.09,0.47,0.28,0.65
	c0.18,0.18,0.4,0.26,0.64,0.26c0.26,0,0.47-0.09,0.65-0.26c0.18-0.18,0.27-0.39,0.27-0.65v-6.89c0.02-0.34,0.09-0.65,0.22-0.94
	c0.13-0.29,0.31-0.54,0.54-0.76c0.23-0.22,0.5-0.39,0.8-0.52c0.3-0.13,0.62-0.19,0.98-0.19c0.45,0,0.88,0.11,1.28,0.34
	c0.16,0.11,0.35,0.17,0.55,0.17c0.26,0,0.47-0.08,0.65-0.25c0.18-0.17,0.27-0.39,0.27-0.66c0-0.34-0.14-0.6-0.41-0.78
	C934.57,202.5,934.27,202.36,933.94,202.27z M944.42,197.81c0.19,0.18,0.28,0.4,0.28,0.67v4.34v6.95v3.4c0,0.26-0.09,0.48-0.27,0.67
	c0,0,0,0,0,0c0,0,0,0,0,0c-0.18,0.18-0.41,0.27-0.67,0.27c-0.25,0-0.47-0.09-0.66-0.27c-0.14-0.14-0.21-0.3-0.25-0.49
	c-0.27,0.2-0.56,0.37-0.88,0.51c-0.54,0.23-1.12,0.35-1.72,0.35c-0.62,0-1.2-0.11-1.74-0.35c-0.53-0.23-1.01-0.55-1.42-0.95
	c-0.41-0.4-0.73-0.87-0.96-1.42c-0.23-0.54-0.35-1.12-0.35-1.72v-3.55c0-0.61,0.12-1.18,0.36-1.72c0.24-0.54,0.56-1.01,0.96-1.42
	c0.4-0.4,0.87-0.72,1.42-0.95c0.54-0.23,1.12-0.35,1.72-0.35c0.48,0,0.93,0.07,1.37,0.22c0.44,0.15,0.84,0.35,1.22,0.62v-4.14
	c0-0.26,0.09-0.48,0.27-0.67c0.18-0.18,0.4-0.27,0.67-0.27C944.02,197.54,944.23,197.63,944.42,197.81z M942.62,210.75
	c0.12-0.27,0.18-0.55,0.19-0.84v-3.85c-0.02-0.29-0.07-0.57-0.18-0.83c-0.13-0.31-0.32-0.59-0.55-0.83
	c-0.24-0.24-0.51-0.42-0.83-0.55c-0.31-0.13-0.65-0.2-1.01-0.2c-0.35,0-0.68,0.07-1,0.2c-0.32,0.13-0.6,0.32-0.83,0.55
	c-0.23,0.24-0.41,0.51-0.55,0.83c-0.14,0.31-0.21,0.64-0.21,0.99v3.55c0,0.34,0.07,0.67,0.2,0.99c0.13,0.31,0.32,0.59,0.55,0.83
	c0.24,0.24,0.51,0.42,0.83,0.55c0.31,0.13,0.65,0.2,1.01,0.2c0.34,0,0.68-0.07,1-0.2c0.32-0.13,0.6-0.32,0.83-0.55
	C942.3,211.33,942.48,211.06,942.62,210.75z M891.11,201.88c-0.26,0-0.48,0.09-0.67,0.27c-0.18,0.18-0.27,0.4-0.27,0.67v6.95
	c0,0.34-0.07,0.67-0.21,0.99c-0.14,0.31-0.32,0.59-0.55,0.83c-0.23,0.24-0.51,0.42-0.83,0.55c-0.32,0.13-0.65,0.2-1,0.2
	c-0.36,0-0.7-0.07-1.01-0.2c-0.31-0.13-0.59-0.32-0.83-0.55c-0.24-0.24-0.42-0.51-0.55-0.83c-0.13-0.31-0.2-0.64-0.2-0.99v-6.95
	c0-0.26-0.09-0.48-0.28-0.67c-0.19-0.18-0.41-0.27-0.65-0.27c-0.26,0-0.48,0.09-0.67,0.27c-0.18,0.18-0.27,0.4-0.27,0.67v6.95
	c0,0.61,0.11,1.18,0.34,1.72c0.23,0.54,0.55,1.01,0.96,1.42c0.41,0.4,0.88,0.72,1.42,0.95c0.53,0.23,1.11,0.35,1.74,0.35
	c0.61,0,1.18-0.11,1.72-0.35c0.31-0.13,0.6-0.3,0.86-0.49v2.34c-0.02,0.35-0.09,0.67-0.22,0.96c-0.13,0.3-0.32,0.55-0.55,0.78
	c-0.24,0.22-0.51,0.4-0.81,0.53c-0.3,0.13-0.64,0.2-1,0.2c-0.46,0-0.89-0.12-1.31-0.34c-0.16-0.12-0.35-0.17-0.57-0.17
	c-0.26,0-0.48,0.09-0.67,0.26c-0.18,0.17-0.27,0.4-0.27,0.68c0,0.34,0.14,0.61,0.42,0.8c0.28,0.19,0.59,0.33,0.92,0.43
	c0.34,0.1,0.79,0.17,1.37,0.22c1.03,0,1.94-0.29,2.71-0.86c1.18-0.84,1.85-2.04,1.85-3.4c0-0.92,0-4.25,0-6.01c0-0.66,0-1.11,0-1.11
	v-5.84c0-0.26-0.09-0.48-0.28-0.67C891.57,201.97,891.35,201.88,891.11,201.88z M904.11,205.84h-3.9c-0.52,0-0.95,0.4-0.95,0.91
	c0,0.52,0.42,0.95,0.95,0.95h3.11v1.47c0,2.01-1.82,3.52-3.74,3.52c-2.12,0-3.91-1.45-3.91-3.91v-5.62c0-2.29,1.73-3.91,3.85-3.91
	c1.79,0,3.16,1.19,3.7,2.67c0.18,0.31,0.42,0.5,0.84,0.5c0.73,0,1.19-0.59,0.83-1.43c-0.6-1.8-2.44-3.66-5.37-3.66
	c-3.36,0-5.78,2.66-5.78,5.72v5.85c0,3.08,2.43,5.73,5.78,5.73c3.03,0,5.59-2.37,5.59-5.07v-2.81
	C905.1,206.18,904.64,205.84,904.11,205.84z M837.83,201.64c0.3,0.69,0.46,1.43,0.46,2.22c0,0.79-0.15,1.52-0.46,2.2
	c-0.31,0.68-0.71,1.28-1.23,1.79c-0.51,0.51-1.12,0.92-1.82,1.22c-0.7,0.3-1.44,0.45-2.23,0.45h-2.8v3.66
	c0,0.26-0.09,0.47-0.27,0.65c-0.18,0.18-0.39,0.26-0.65,0.26c-0.24,0-0.45-0.09-0.64-0.26c-0.18-0.18-0.28-0.39-0.28-0.65v-14.07
	c0-0.26,0.09-0.47,0.26-0.65c0.18-0.18,0.39-0.27,0.65-0.27h3.69h0.02c0.79,0,1.53,0.15,2.22,0.45c0.69,0.3,1.3,0.7,1.82,1.2
	C837.11,200.35,837.52,200.95,837.83,201.64z M836.45,203.86c0-0.53-0.1-1.03-0.31-1.49c-0.21-0.47-0.49-0.87-0.84-1.22
	c-0.35-0.35-0.77-0.62-1.24-0.82c-0.47-0.2-0.98-0.3-1.51-0.3h-2.8v7.66h2.8c0.55,0,1.06-0.1,1.53-0.3c0.47-0.2,0.89-0.47,1.24-0.82
	c0.35-0.35,0.63-0.75,0.83-1.22C836.35,204.89,836.45,204.39,836.45,203.86z M945.64,197.92h0.35v1.04h0.29v-1.04h0.35v-0.24h-0.99
	V197.92z M948.1,197.67h-0.38l-0.14,0.43c-0.04,0.14-0.09,0.31-0.12,0.46h-0.01c-0.03-0.15-0.07-0.31-0.11-0.46l-0.13-0.43h-0.39
	l-0.08,1.29h0.27l0.02-0.49c0.01-0.16,0.02-0.36,0.02-0.53h0c0.03,0.17,0.07,0.35,0.12,0.5l0.14,0.5h0.23l0.16-0.5
	c0.05-0.15,0.1-0.33,0.14-0.5h0.01c0,0.19,0.01,0.37,0.01,0.53l0.02,0.49h0.28L948.1,197.67z"/>
</svg>
