<?xml version="1.0" encoding="utf-8"?>
<!-- Generator: Adobe Illustrator 24.2.3, SVG Export Plug-In . SVG Version: 6.00 Build 0)  -->
<svg version="1.1" id="Layer_1" xmlns="http://www.w3.org/2000/svg" xmlns:xlink="http://www.w3.org/1999/xlink" x="0px" y="0px"
	 viewBox="0 0 300 600" style="enable-background:new 0 0 300 600;" xml:space="preserve">
<style type="text/css">
	.st0{fill:#FFFFFF;}
	.st1{font-family:'Roboto-Bold';}
	.st2{font-size:28px;}
</style>
<g>
	<path class="st0" d="M74.59,226.85H66.1v23.1h-5.71v-23.1h-8.38v-4.63h22.58V226.85z"/>
	<path class="st0" d="M82.86,231.59c1.46-1.75,3.29-2.63,5.5-2.63c4.47,0,6.73,2.6,6.8,7.79v13.2h-5.5v-13.04
		c0-1.18-0.25-2.05-0.76-2.62c-0.51-0.56-1.35-0.85-2.53-0.85c-1.61,0-2.78,0.62-3.5,1.87v14.64h-5.5V220.7h5.5V231.59z"/>
	<path class="st0" d="M108.79,250.33c-3.02,0-5.48-0.93-7.38-2.78c-1.9-1.85-2.85-4.32-2.85-7.41v-0.53c0-2.07,0.4-3.92,1.2-5.55
		c0.8-1.63,1.93-2.89,3.4-3.77c1.47-0.88,3.14-1.32,5.02-1.32c2.82,0,5.04,0.89,6.66,2.67c1.62,1.78,2.43,4.3,2.43,7.56v2.25h-13.12
		c0.18,1.35,0.71,2.42,1.61,3.24c0.9,0.81,2.03,1.22,3.4,1.22c2.12,0,3.78-0.77,4.97-2.3l2.7,3.03c-0.83,1.17-1.94,2.08-3.35,2.73
		C112.07,250,110.51,250.33,108.79,250.33z M108.16,233.4c-1.09,0-1.98,0.37-2.66,1.11c-0.68,0.74-1.11,1.8-1.3,3.18h7.66v-0.44
		c-0.03-1.22-0.36-2.17-0.99-2.84S109.33,233.4,108.16,233.4z"/>
	<path class="st0" d="M131.97,234.51c-0.75-0.1-1.41-0.15-1.98-0.15c-2.08,0-3.45,0.7-4.09,2.11v13.48h-5.5v-20.6h5.2l0.15,2.46
		c1.1-1.89,2.63-2.84,4.59-2.84c0.61,0,1.18,0.08,1.71,0.25L131.97,234.51z"/>
	<path class="st0" d="M144.1,250.33c-3.02,0-5.48-0.93-7.38-2.78c-1.9-1.85-2.85-4.32-2.85-7.41v-0.53c0-2.07,0.4-3.92,1.2-5.55
		c0.8-1.63,1.93-2.89,3.4-3.77c1.47-0.88,3.14-1.32,5.02-1.32c2.82,0,5.04,0.89,6.66,2.67c1.62,1.78,2.43,4.3,2.43,7.56v2.25h-13.12
		c0.18,1.35,0.71,2.42,1.61,3.24c0.9,0.81,2.03,1.22,3.4,1.22c2.12,0,3.78-0.77,4.97-2.3l2.7,3.03c-0.83,1.17-1.94,2.08-3.35,2.73
		C147.37,250,145.81,250.33,144.1,250.33z M143.47,233.4c-1.09,0-1.98,0.37-2.66,1.11c-0.68,0.74-1.11,1.8-1.3,3.18h7.66v-0.44
		c-0.03-1.22-0.36-2.17-0.99-2.84S144.64,233.4,143.47,233.4z"/>
	<path class="st0" d="M183.33,242.47l2.7-13.12h5.31l-5.26,20.6h-4.61l-3.9-12.97l-3.9,12.97h-4.59l-5.26-20.6h5.31l2.69,13.1
		l3.77-13.1h3.98L183.33,242.47z"/>
	<path class="st0" d="M203.55,250.33c-3.02,0-5.48-0.93-7.38-2.78c-1.9-1.85-2.85-4.32-2.85-7.41v-0.53c0-2.07,0.4-3.92,1.2-5.55
		c0.8-1.63,1.93-2.89,3.4-3.77c1.47-0.88,3.14-1.32,5.02-1.32c2.82,0,5.04,0.89,6.66,2.67c1.62,1.78,2.43,4.3,2.43,7.56v2.25H198.9
		c0.18,1.35,0.71,2.42,1.61,3.24c0.9,0.81,2.03,1.22,3.4,1.22c2.12,0,3.78-0.77,4.97-2.3l2.7,3.03c-0.83,1.17-1.94,2.08-3.35,2.73
		C206.83,250,205.26,250.33,203.55,250.33z M202.92,233.4c-1.09,0-1.98,0.37-2.66,1.11c-0.68,0.74-1.11,1.8-1.3,3.18h7.66v-0.44
		c-0.03-1.22-0.36-2.17-0.99-2.84S204.09,233.4,202.92,233.4z"/>
	<path class="st0" d="M226.72,234.51c-0.75-0.1-1.41-0.15-1.98-0.15c-2.08,0-3.45,0.7-4.09,2.11v13.48h-5.5v-20.6h5.2l0.15,2.46
		c1.1-1.89,2.63-2.84,4.59-2.84c0.61,0,1.18,0.08,1.71,0.25L226.72,234.51z"/>
	<path class="st0" d="M238.85,250.33c-3.02,0-5.48-0.93-7.38-2.78c-1.9-1.85-2.85-4.32-2.85-7.41v-0.53c0-2.07,0.4-3.92,1.2-5.55
		c0.8-1.63,1.93-2.89,3.4-3.77c1.47-0.88,3.14-1.32,5.02-1.32c2.82,0,5.04,0.89,6.66,2.67c1.62,1.78,2.43,4.3,2.43,7.56v2.25h-13.12
		c0.18,1.35,0.71,2.42,1.61,3.24c0.9,0.81,2.03,1.22,3.4,1.22c2.12,0,3.78-0.77,4.97-2.3l2.7,3.03c-0.83,1.17-1.94,2.08-3.35,2.73
		C242.13,250,240.57,250.33,238.85,250.33z M238.23,233.4c-1.09,0-1.98,0.37-2.66,1.11c-0.68,0.74-1.11,1.8-1.3,3.18h7.66v-0.44
		c-0.03-1.22-0.36-2.17-0.99-2.84S239.39,233.4,238.23,233.4z"/>
	<path class="st0" d="M59.03,290.62h3.91c1.86,0,3.24-0.47,4.14-1.4c0.9-0.93,1.35-2.17,1.35-3.71c0-1.49-0.44-2.65-1.33-3.48
		c-0.89-0.83-2.11-1.24-3.67-1.24c-1.41,0-2.58,0.39-3.53,1.16c-0.95,0.77-1.42,1.77-1.42,3.01h-7.34c0-1.93,0.52-3.66,1.56-5.19
		c1.04-1.53,2.5-2.73,4.37-3.59s3.93-1.29,6.18-1.29c3.91,0,6.97,0.94,9.19,2.81c2.22,1.87,3.33,4.45,3.33,7.73
		c0,1.69-0.52,3.25-1.55,4.67s-2.39,2.51-4.06,3.28c2.08,0.75,3.63,1.86,4.66,3.35c1.02,1.49,1.54,3.25,1.54,5.28
		c0,3.28-1.2,5.92-3.59,7.9s-5.56,2.97-9.51,2.97c-3.69,0-6.71-0.97-9.05-2.92c-2.34-1.95-3.52-4.52-3.52-7.72h7.34
		c0,1.39,0.52,2.52,1.56,3.4c1.04,0.88,2.32,1.32,3.85,1.32c1.74,0,3.11-0.46,4.1-1.38c0.99-0.92,1.49-2.15,1.49-3.67
		c0-3.69-2.03-5.53-6.09-5.53h-3.88V290.62z"/>
	<path class="st0" d="M101.54,284.88l0.23,3.07c1.95-2.39,4.58-3.58,7.9-3.58c3.54,0,5.97,1.4,7.29,4.19
		c1.93-2.79,4.68-4.19,8.25-4.19c2.98,0,5.2,0.87,6.65,2.6c1.46,1.74,2.18,4.35,2.18,7.83v17.54h-7.36v-17.52
		c0-1.56-0.3-2.7-0.91-3.42c-0.61-0.72-1.68-1.08-3.22-1.08c-2.2,0-3.72,1.05-4.57,3.15l0.03,18.86h-7.34v-17.49
		c0-1.59-0.31-2.74-0.94-3.45s-1.69-1.07-3.2-1.07c-2.08,0-3.59,0.86-4.52,2.59v19.42h-7.34v-27.47H101.54z"/>
	<path class="st0" d="M139.62,277.77c0-1.1,0.37-2.01,1.1-2.72s1.74-1.07,3.01-1.07c1.25,0,2.25,0.36,3,1.07s1.12,1.62,1.12,2.72
		c0,1.12-0.38,2.03-1.13,2.74s-1.75,1.07-2.98,1.07s-2.23-0.36-2.98-1.07S139.62,278.89,139.62,277.77z M147.42,312.35h-7.36v-27.47
		h7.36V312.35z"/>
	<path class="st0" d="M161.21,312.35h-7.36v-39h7.36V312.35z"/>
	<path class="st0" d="M174.99,312.35h-7.36v-39h7.36V312.35z"/>
	<path class="st0" d="M180.99,277.77c0-1.1,0.37-2.01,1.1-2.72s1.74-1.07,3.01-1.07c1.25,0,2.25,0.36,3,1.07s1.12,1.62,1.12,2.72
		c0,1.12-0.38,2.03-1.13,2.74s-1.75,1.07-2.98,1.07s-2.23-0.36-2.98-1.07S180.99,278.89,180.99,277.77z M188.78,312.35h-7.36v-27.47
		h7.36V312.35z"/>
	<path class="st0" d="M193.68,298.36c0-2.73,0.52-5.15,1.57-7.29s2.56-3.78,4.53-4.95s4.26-1.75,6.87-1.75
		c3.71,0,6.73,1.13,9.08,3.4c2.34,2.27,3.65,5.35,3.92,9.24l0.05,1.88c0,4.21-1.18,7.6-3.53,10.14c-2.35,2.55-5.51,3.82-9.47,3.82
		s-7.12-1.27-9.48-3.81s-3.54-5.99-3.54-10.36V298.36z M201.02,298.88c0,2.61,0.49,4.61,1.47,5.99s2.39,2.07,4.21,2.07
		c1.78,0,3.17-0.68,4.16-2.05c1-1.37,1.5-3.55,1.5-6.55c0-2.56-0.5-4.54-1.5-5.95c-1-1.41-2.4-2.11-4.21-2.11
		c-1.79,0-3.18,0.7-4.16,2.1C201.51,293.78,201.02,295.95,201.02,298.88z"/>
	<path class="st0" d="M230.98,284.88l0.23,3.17c1.96-2.45,4.6-3.68,7.9-3.68c2.91,0,5.08,0.85,6.5,2.56
		c1.42,1.71,2.15,4.27,2.18,7.67v17.75h-7.34v-17.57c0-1.56-0.34-2.69-1.02-3.39c-0.68-0.7-1.8-1.05-3.38-1.05
		c-2.07,0-3.61,0.88-4.65,2.64v19.37h-7.34v-27.47H230.98z"/>
	<path class="st0" d="M39.64,333.21c0-0.83,0.28-1.5,0.83-2.04c0.55-0.53,1.3-0.8,2.26-0.8c0.94,0,1.69,0.27,2.25,0.8
		c0.56,0.53,0.84,1.21,0.84,2.04c0,0.84-0.28,1.52-0.85,2.06c-0.57,0.53-1.31,0.8-2.24,0.8s-1.67-0.27-2.24-0.8
		C39.92,334.74,39.64,334.05,39.64,333.21z M45.48,359.15h-5.52v-20.6h5.52V359.15z"/>
	<path class="st0" d="M49.16,348.7c0-3.21,0.72-5.77,2.16-7.67c1.44-1.9,3.41-2.86,5.91-2.86c2.01,0,3.66,0.75,4.97,2.25V329.9h5.52
		v29.25h-4.97l-0.27-2.19c-1.37,1.71-3.14,2.57-5.29,2.57c-2.42,0-4.37-0.96-5.84-2.87C49.89,354.75,49.16,352.1,49.16,348.7z
		 M54.66,349.11c0,1.93,0.34,3.41,1.01,4.44c0.67,1.03,1.65,1.54,2.93,1.54c1.7,0,2.9-0.72,3.6-2.16v-8.14
		c-0.69-1.44-1.87-2.16-3.56-2.16C55.99,342.64,54.66,344.79,54.66,349.11z"/>
	<path class="st0" d="M81.48,359.53c-3.02,0-5.48-0.93-7.38-2.78c-1.9-1.85-2.85-4.32-2.85-7.41v-0.53c0-2.07,0.4-3.92,1.2-5.55
		c0.8-1.63,1.93-2.89,3.4-3.77c1.47-0.88,3.14-1.32,5.02-1.32c2.82,0,5.04,0.89,6.66,2.67c1.62,1.78,2.43,4.3,2.43,7.56v2.25H76.83
		c0.18,1.35,0.71,2.42,1.61,3.24c0.9,0.81,2.03,1.22,3.4,1.22c2.12,0,3.78-0.77,4.97-2.3l2.7,3.03c-0.83,1.17-1.94,2.08-3.35,2.73
		C84.75,359.2,83.19,359.53,81.48,359.53z M80.85,342.6c-1.09,0-1.98,0.37-2.66,1.11c-0.68,0.74-1.11,1.8-1.3,3.18h7.66v-0.44
		c-0.03-1.22-0.36-2.17-0.99-2.84C82.92,342.94,82.02,342.6,80.85,342.6z"/>
	<path class="st0" d="M98.14,338.55l0.17,2.38c1.47-1.84,3.45-2.76,5.92-2.76c2.18,0,3.81,0.64,4.88,1.92s1.61,3.2,1.64,5.75v13.31
		h-5.5v-13.18c0-1.17-0.25-2.02-0.76-2.54c-0.51-0.53-1.35-0.79-2.53-0.79c-1.55,0-2.71,0.66-3.49,1.98v14.53h-5.5v-20.6H98.14z"/>
	<path class="st0" d="M121.5,333.48v5.07h3.52v4.04h-3.52v10.28c0,0.76,0.15,1.31,0.44,1.64s0.85,0.5,1.68,0.5
		c0.61,0,1.15-0.04,1.62-0.13v4.17c-1.08,0.33-2.19,0.5-3.33,0.5c-3.86,0-5.83-1.95-5.9-5.85v-11.1h-3.01v-4.04H116v-5.07H121.5z"/>
	<path class="st0" d="M128.06,333.21c0-0.83,0.28-1.5,0.83-2.04c0.55-0.53,1.3-0.8,2.26-0.8c0.94,0,1.69,0.27,2.25,0.8
		c0.56,0.53,0.84,1.21,0.84,2.04c0,0.84-0.28,1.52-0.85,2.06c-0.57,0.53-1.31,0.8-2.24,0.8s-1.67-0.27-2.24-0.8
		C128.34,334.74,128.06,334.05,128.06,333.21z M133.9,359.15h-5.52v-20.6h5.52V359.15z"/>
	<path class="st0" d="M145.02,333.48v5.07h3.52v4.04h-3.52v10.28c0,0.76,0.15,1.31,0.44,1.64s0.85,0.5,1.68,0.5
		c0.61,0,1.15-0.04,1.62-0.13v4.17c-1.08,0.33-2.19,0.5-3.33,0.5c-3.86,0-5.83-1.95-5.9-5.85v-11.1h-3.01v-4.04h3.01v-5.07H145.02z"
		/>
	<path class="st0" d="M159.3,351.36l3.81-12.82h5.9l-8.28,23.8l-0.46,1.08c-1.23,2.69-3.26,4.04-6.09,4.04
		c-0.8,0-1.61-0.12-2.44-0.36v-4.17l0.84,0.02c1.04,0,1.82-0.16,2.33-0.48c0.51-0.32,0.92-0.84,1.21-1.58l0.65-1.7l-7.22-20.66h5.92
		L159.3,351.36z"/>
	<path class="st0" d="M187.49,333.48v5.07h3.52v4.04h-3.52v10.28c0,0.76,0.15,1.31,0.44,1.64s0.85,0.5,1.68,0.5
		c0.61,0,1.15-0.04,1.62-0.13v4.17c-1.08,0.33-2.19,0.5-3.33,0.5c-3.86,0-5.83-1.95-5.9-5.85v-11.1h-3.01v-4.04h3.01v-5.07H187.49z"
		/>
	<path class="st0" d="M199.45,340.79c1.46-1.75,3.29-2.63,5.5-2.63c4.47,0,6.73,2.6,6.8,7.79v13.2h-5.5v-13.04
		c0-1.18-0.25-2.05-0.76-2.62c-0.51-0.56-1.35-0.85-2.53-0.85c-1.61,0-2.78,0.62-3.5,1.87v14.64h-5.5V329.9h5.5V340.79z"/>
	<path class="st0" d="M225.38,359.53c-3.02,0-5.48-0.93-7.38-2.78c-1.9-1.85-2.85-4.32-2.85-7.41v-0.53c0-2.07,0.4-3.92,1.2-5.55
		c0.8-1.63,1.93-2.89,3.4-3.77c1.47-0.88,3.14-1.32,5.02-1.32c2.82,0,5.04,0.89,6.66,2.67c1.62,1.78,2.43,4.3,2.43,7.56v2.25h-13.12
		c0.18,1.35,0.71,2.42,1.61,3.24c0.9,0.81,2.03,1.22,3.4,1.22c2.12,0,3.78-0.77,4.97-2.3l2.7,3.03c-0.83,1.17-1.94,2.08-3.35,2.73
		C228.66,359.2,227.1,359.53,225.38,359.53z M224.75,342.6c-1.09,0-1.98,0.37-2.66,1.11c-0.68,0.74-1.11,1.8-1.3,3.18h7.66v-0.44
		c-0.03-1.22-0.36-2.17-0.99-2.84C226.82,342.94,225.92,342.6,224.75,342.6z"/>
	<path class="st0" d="M238.48,359.15v-16.57h-3.07v-4.04h3.07v-1.75c0-2.31,0.66-4.1,1.99-5.38c1.33-1.28,3.18-1.91,5.57-1.91
		c0.76,0,1.7,0.13,2.8,0.38l-0.06,4.27c-0.46-0.11-1.02-0.17-1.68-0.17c-2.07,0-3.1,0.97-3.1,2.91v1.66h4.09v4.04h-4.09v16.57
		H238.48z"/>
	<path class="st0" d="M257.55,333.48v5.07h3.52v4.04h-3.52v10.28c0,0.76,0.15,1.31,0.44,1.64s0.85,0.5,1.68,0.5
		c0.61,0,1.15-0.04,1.62-0.13v4.17c-1.08,0.33-2.19,0.5-3.33,0.5c-3.86,0-5.83-1.95-5.9-5.85v-11.1h-3.01v-4.04h3.01v-5.07H257.55z"
		/>
	<path class="st0" d="M74.81,399.23l3.83-13.88h5.75l-6.95,20.6h-5.26l-6.95-20.6h5.75L74.81,399.23z"/>
	<path class="st0" d="M86.77,380.01c0-0.83,0.28-1.5,0.83-2.04c0.55-0.53,1.3-0.8,2.26-0.8c0.94,0,1.69,0.27,2.25,0.8
		c0.56,0.53,0.84,1.21,0.84,2.04c0,0.84-0.28,1.52-0.85,2.06c-0.57,0.53-1.31,0.8-2.24,0.8s-1.67-0.27-2.24-0.8
		C87.05,381.54,86.77,380.85,86.77,380.01z M92.62,405.95h-5.52v-20.6h5.52V405.95z"/>
	<path class="st0" d="M105.72,401.89c1.01,0,1.84-0.28,2.47-0.84s0.96-1.3,0.99-2.23h5.16c-0.01,1.4-0.39,2.68-1.14,3.84
		c-0.75,1.16-1.77,2.06-3.08,2.7c-1.3,0.64-2.74,0.96-4.31,0.96c-2.95,0-5.27-0.94-6.97-2.81c-1.7-1.87-2.55-4.46-2.55-7.76v-0.36
		c0-3.17,0.84-5.71,2.53-7.6s4.01-2.84,6.95-2.84c2.58,0,4.64,0.73,6.2,2.2c1.56,1.47,2.35,3.42,2.37,5.86h-5.16
		c-0.03-1.07-0.36-1.94-0.99-2.61c-0.63-0.67-1.47-1-2.51-1c-1.28,0-2.25,0.47-2.9,1.4c-0.65,0.93-0.98,2.45-0.98,4.55v0.57
		c0,2.12,0.32,3.65,0.97,4.58C103.41,401.43,104.4,401.89,105.72,401.89z"/>
	<path class="st0" d="M124.08,380.28v5.07h3.52v4.04h-3.52v10.28c0,0.76,0.15,1.31,0.44,1.64s0.85,0.5,1.68,0.5
		c0.61,0,1.15-0.04,1.62-0.13v4.17c-1.08,0.33-2.19,0.5-3.33,0.5c-3.86,0-5.83-1.95-5.9-5.85v-11.1h-3.01v-4.04h3.01v-5.07H124.08z"
		/>
	<path class="st0" d="M130.63,380.01c0-0.83,0.28-1.5,0.83-2.04c0.55-0.53,1.3-0.8,2.26-0.8c0.94,0,1.69,0.27,2.25,0.8
		c0.56,0.53,0.84,1.21,0.84,2.04c0,0.84-0.28,1.52-0.85,2.06c-0.57,0.53-1.31,0.8-2.24,0.8s-1.67-0.27-2.24-0.8
		C130.91,381.54,130.63,380.85,130.63,380.01z M136.47,405.95h-5.52v-20.6h5.52V405.95z"/>
	<path class="st0" d="M146.16,385.35l0.17,2.3c1.46-1.79,3.43-2.68,5.92-2.68c2.65,0,4.48,1.05,5.47,3.14
		c1.45-2.09,3.51-3.14,6.19-3.14c2.23,0,3.9,0.65,4.99,1.95c1.09,1.3,1.64,3.26,1.64,5.87v13.16h-5.52v-13.14
		c0-1.17-0.23-2.02-0.69-2.56c-0.46-0.54-1.26-0.81-2.42-0.81c-1.65,0-2.79,0.79-3.43,2.36l0.02,14.15H153v-13.12
		c0-1.19-0.24-2.06-0.71-2.59s-1.27-0.8-2.4-0.8c-1.56,0-2.69,0.65-3.39,1.94v14.57H141v-20.6H146.16z"/>
	<path class="st0" d="M185.93,400.26c0-0.67-0.33-1.2-1-1.59c-0.67-0.39-1.74-0.73-3.21-1.04c-4.9-1.03-7.35-3.11-7.35-6.25
		c0-1.83,0.76-3.35,2.28-4.58c1.52-1.23,3.5-1.84,5.95-1.84c2.62,0,4.71,0.62,6.27,1.85c1.57,1.23,2.35,2.83,2.35,4.8h-5.5
		c0-0.79-0.25-1.44-0.76-1.95c-0.51-0.51-1.3-0.77-2.38-0.77c-0.93,0-1.64,0.21-2.15,0.63s-0.76,0.95-0.76,1.6
		c0,0.61,0.29,1.1,0.87,1.48c0.58,0.37,1.55,0.7,2.92,0.97c1.37,0.27,2.53,0.58,3.47,0.92c2.91,1.07,4.36,2.91,4.36,5.54
		c0,1.88-0.81,3.4-2.42,4.56c-1.61,1.16-3.69,1.74-6.25,1.74c-1.73,0-3.26-0.31-4.6-0.92c-1.34-0.62-2.39-1.46-3.15-2.53
		c-0.76-1.07-1.14-2.23-1.14-3.48h5.22c0.05,0.98,0.41,1.73,1.08,2.25s1.57,0.78,2.71,0.78c1.05,0,1.85-0.2,2.39-0.6
		C185.66,401.43,185.93,400.9,185.93,400.26z"/>
	<path class="st0" d="M204.49,380.01c0-0.83,0.28-1.5,0.83-2.04c0.55-0.53,1.3-0.8,2.26-0.8c0.94,0,1.69,0.27,2.25,0.8
		c0.56,0.53,0.84,1.21,0.84,2.04c0,0.84-0.28,1.52-0.85,2.06c-0.57,0.53-1.31,0.8-2.24,0.8s-1.67-0.27-2.24-0.8
		C204.78,381.54,204.49,380.85,204.49,380.01z M210.34,405.95h-5.52v-20.6h5.52V405.95z"/>
	<path class="st0" d="M219.94,385.35l0.17,2.38c1.47-1.84,3.45-2.76,5.92-2.76c2.18,0,3.81,0.64,4.88,1.92s1.61,3.2,1.64,5.75v13.31
		h-5.5v-13.18c0-1.17-0.25-2.02-0.76-2.54c-0.51-0.53-1.35-0.79-2.53-0.79c-1.55,0-2.71,0.66-3.49,1.98v14.53h-5.5v-20.6H219.94z"/>
	<path class="st0" d="M112.92,467.15H88.07v-4.93l11.73-12.5c1.61-1.76,2.8-3.3,3.57-4.61c0.77-1.31,1.16-2.56,1.16-3.74
		c0-1.61-0.41-2.88-1.22-3.8c-0.81-0.92-1.98-1.38-3.49-1.38c-1.63,0-2.91,0.56-3.85,1.68c-0.94,1.12-1.41,2.59-1.41,4.42h-7.22
		c0-2.21,0.53-4.22,1.58-6.05c1.05-1.83,2.54-3.26,4.47-4.29c1.92-1.04,4.11-1.56,6.55-1.56c3.74,0,6.64,0.9,8.7,2.69
		c2.07,1.79,3.1,4.32,3.1,7.59c0,1.79-0.46,3.62-1.39,5.48c-0.93,1.86-2.52,4.03-4.78,6.5l-8.24,8.69h15.59V467.15z"/>
	<path class="st0" d="M141.74,452.16c0,5.01-1.04,8.85-3.11,11.5s-5.11,3.98-9.11,3.98c-3.95,0-6.97-1.3-9.06-3.91
		c-2.09-2.61-3.16-6.34-3.21-11.21v-6.67c0-5.06,1.05-8.91,3.15-11.53s5.13-3.93,9.08-3.93s6.97,1.3,9.06,3.9
		c2.09,2.6,3.16,6.33,3.21,11.19V452.16z M134.54,444.82c0-3.01-0.41-5.2-1.23-6.57c-0.82-1.37-2.1-2.06-3.85-2.06
		c-1.69,0-2.94,0.65-3.75,1.96s-1.23,3.34-1.28,6.12v8.82c0,2.96,0.4,5.16,1.21,6.59c0.8,1.44,2.1,2.16,3.87,2.16
		c1.76,0,3.03-0.69,3.81-2.07c0.78-1.38,1.19-3.49,1.22-6.33V444.82z"/>
	<path class="st0" d="M164.07,467.15h-7.2v-27.74l-8.59,2.66v-5.85l15.02-5.38h0.77V467.15z"/>
	<path class="st0" d="M192.68,452.66c-1.88,1.84-4.07,2.76-6.57,2.76c-3.2,0-5.77-1.1-7.69-3.3c-1.93-2.2-2.89-5.17-2.89-8.9
		c0-2.37,0.52-4.55,1.56-6.54c1.04-1.98,2.49-3.53,4.34-4.63c1.86-1.1,3.95-1.66,6.28-1.66c2.39,0,4.52,0.6,6.38,1.79
		s3.3,2.91,4.33,5.15c1.03,2.24,1.55,4.81,1.57,7.7v2.66c0,6.04-1.5,10.79-4.51,14.24c-3,3.45-7.26,5.3-12.77,5.53l-1.77,0.03v-6
		l1.59-0.02C188.78,461.19,192.17,458.25,192.68,452.66z M187.88,449.92c1.16,0,2.16-0.3,3-0.9c0.84-0.6,1.47-1.32,1.9-2.17v-2.96
		c0-2.44-0.46-4.33-1.39-5.68s-2.17-2.02-3.73-2.02c-1.45,0-2.63,0.66-3.56,1.98c-0.93,1.32-1.39,2.98-1.39,4.97
		c0,1.98,0.45,3.6,1.36,4.87C184.96,449.28,186.24,449.92,187.88,449.92z"/>
	<path class="st0" d="M205.04,464.45c0-0.88,0.29-1.59,0.89-2.13c0.59-0.55,1.33-0.82,2.22-0.82c0.9,0,1.65,0.27,2.24,0.82
		c0.59,0.55,0.89,1.26,0.89,2.13c0,0.86-0.29,1.56-0.88,2.1c-0.58,0.54-1.33,0.81-2.25,0.81c-0.9,0-1.64-0.27-2.23-0.81
		C205.34,466.01,205.04,465.31,205.04,464.45z"/>
</g>
<text transform="matrix(1 0 0 1 211.143 451.1616)" class="st0 st1 st2">*</text>
</svg>
