<?xml version="1.0" encoding="utf-8"?>
<!-- Generator: Adobe Illustrator 24.2.3, SVG Export Plug-In . SVG Version: 6.00 Build 0)  -->
<svg version="1.1" id="Layer_1" xmlns="http://www.w3.org/2000/svg" xmlns:xlink="http://www.w3.org/1999/xlink" x="0px" y="0px"
	 viewBox="0 0 300 600" style="enable-background:new 0 0 300 600;" xml:space="preserve">
<style type="text/css">
	.st0{fill:#FFFFFF;}
</style>
<g>
	<path class="st0" d="M62.93,323.67v7.76h-4.54V309.4h8.6c1.66,0,3.11,0.3,4.37,0.91c1.26,0.61,2.22,1.47,2.9,2.58
		c0.68,1.11,1.01,2.38,1.01,3.81c0,2.16-0.74,3.86-2.22,5.11c-1.48,1.25-3.52,1.87-6.14,1.87H62.93z M62.93,319.99h4.06
		c1.2,0,2.12-0.28,2.75-0.85c0.63-0.56,0.95-1.37,0.95-2.42c0-1.08-0.32-1.95-0.95-2.62c-0.63-0.67-1.51-1.01-2.63-1.03h-4.16
		V319.99z"/>
	<path class="st0" d="M87.3,319.16c-0.59-0.08-1.12-0.12-1.57-0.12c-1.65,0-2.74,0.56-3.25,1.68v10.72h-4.38v-16.38h4.13l0.12,1.95
		c0.88-1.5,2.09-2.25,3.65-2.25c0.48,0,0.94,0.07,1.36,0.2L87.3,319.16z"/>
	<path class="st0" d="M89.37,310.82c0-0.66,0.22-1.2,0.66-1.62c0.44-0.42,1.04-0.64,1.79-0.64c0.75,0,1.34,0.21,1.79,0.64
		c0.44,0.42,0.67,0.96,0.67,1.62c0,0.67-0.23,1.21-0.67,1.63c-0.45,0.42-1.04,0.63-1.78,0.63c-0.74,0-1.33-0.21-1.78-0.63
		S89.37,311.49,89.37,310.82z M94.02,331.44h-4.39v-16.38h4.39V331.44z"/>
	<path class="st0" d="M103.75,326.09l3.04-11.03h4.57l-5.52,16.38h-4.18l-5.52-16.38h4.57L103.75,326.09z"/>
	<path class="st0" d="M122.55,331.44c-0.2-0.39-0.35-0.88-0.44-1.47c-1.06,1.18-2.44,1.77-4.13,1.77c-1.6,0-2.93-0.46-3.99-1.39
		c-1.05-0.93-1.58-2.1-1.58-3.51c0-1.73,0.64-3.07,1.93-4c1.29-0.93,3.15-1.4,5.58-1.41h2.01v-0.94c0-0.76-0.2-1.36-0.58-1.82
		c-0.39-0.45-1-0.68-1.84-0.68c-0.74,0-1.32,0.18-1.73,0.53c-0.42,0.35-0.63,0.84-0.63,1.45h-4.38c0-0.95,0.29-1.83,0.88-2.63
		c0.58-0.81,1.41-1.44,2.48-1.9c1.07-0.46,2.27-0.69,3.6-0.69c2.02,0,3.62,0.51,4.81,1.52c1.19,1.01,1.78,2.44,1.78,4.28v7.1
		c0.01,1.55,0.23,2.73,0.65,3.53v0.26H122.55z M118.93,328.4c0.65,0,1.24-0.14,1.79-0.43c0.54-0.29,0.95-0.67,1.21-1.16v-2.82h-1.63
		c-2.19,0-3.36,0.76-3.5,2.27l-0.01,0.26c0,0.54,0.19,0.99,0.57,1.35C117.74,328.22,118.27,328.4,118.93,328.4z"/>
	<path class="st0" d="M136.49,328.21c0.81,0,1.46-0.22,1.97-0.67c0.5-0.44,0.77-1.03,0.79-1.77h4.1c-0.01,1.11-0.31,2.13-0.91,3.05
		c-0.6,0.92-1.41,1.64-2.44,2.15c-1.04,0.51-2.18,0.76-3.43,0.76c-2.34,0-4.19-0.74-5.54-2.23s-2.03-3.54-2.03-6.17v-0.29
		c0-2.52,0.67-4.54,2.01-6.04c1.34-1.5,3.18-2.25,5.53-2.25c2.05,0,3.69,0.58,4.93,1.75s1.86,2.72,1.88,4.65h-4.1
		c-0.02-0.85-0.28-1.54-0.79-2.08c-0.5-0.53-1.17-0.8-2-0.8c-1.02,0-1.79,0.37-2.31,1.11c-0.52,0.74-0.78,1.95-0.78,3.62v0.46
		c0,1.69,0.26,2.9,0.77,3.64S135.44,328.21,136.49,328.21z"/>
	<path class="st0" d="M151.96,325.25l3.03-10.19h4.69l-6.58,18.92l-0.36,0.86c-0.98,2.14-2.59,3.21-4.84,3.21
		c-0.64,0-1.28-0.1-1.94-0.29v-3.32l0.67,0.01c0.83,0,1.45-0.13,1.85-0.38c0.41-0.25,0.73-0.67,0.96-1.26l0.51-1.35l-5.74-16.42
		h4.71L151.96,325.25z"/>
	<path class="st0" d="M179.13,328.65c-0.82,0.98-1.97,1.74-3.47,2.28c-1.49,0.54-3.15,0.81-4.96,0.81c-1.91,0-3.58-0.42-5.02-1.25
		c-1.44-0.83-2.55-2.04-3.33-3.62s-1.18-3.45-1.2-5.59v-1.5c0-2.2,0.37-4.11,1.11-5.71c0.74-1.61,1.81-2.84,3.21-3.69
		c1.4-0.85,3.04-1.28,4.91-1.28c2.61,0,4.66,0.62,6.13,1.87c1.47,1.25,2.35,3.06,2.62,5.44h-4.42c-0.2-1.26-0.65-2.18-1.34-2.77
		c-0.69-0.58-1.64-0.88-2.85-0.88c-1.54,0-2.72,0.58-3.53,1.74s-1.22,2.89-1.23,5.18v1.41c0,2.31,0.44,4.06,1.32,5.24
		c0.88,1.18,2.17,1.77,3.86,1.77c1.71,0,2.92-0.36,3.65-1.09v-3.8h-4.13v-3.34h8.67V328.65z"/>
	<path class="st0" d="M192.33,329.77c-1.08,1.31-2.57,1.97-4.48,1.97c-1.76,0-3.09-0.5-4.02-1.51c-0.92-1.01-1.39-2.49-1.42-4.43
		v-10.73h4.38v10.59c0,1.71,0.78,2.56,2.33,2.56c1.48,0,2.5-0.51,3.06-1.55v-11.61h4.39v16.38h-4.12L192.33,329.77z"/>
	<path class="st0" d="M209.36,331.44c-0.2-0.39-0.35-0.88-0.44-1.47c-1.06,1.18-2.44,1.77-4.13,1.77c-1.6,0-2.93-0.46-3.99-1.39
		c-1.05-0.93-1.58-2.1-1.58-3.51c0-1.73,0.64-3.07,1.93-4c1.29-0.93,3.15-1.4,5.58-1.41h2.01v-0.94c0-0.76-0.2-1.36-0.58-1.82
		c-0.39-0.45-1-0.68-1.84-0.68c-0.74,0-1.32,0.18-1.73,0.53c-0.42,0.35-0.63,0.84-0.63,1.45h-4.38c0-0.95,0.29-1.83,0.88-2.63
		c0.58-0.81,1.41-1.44,2.48-1.9c1.07-0.46,2.27-0.69,3.6-0.69c2.02,0,3.62,0.51,4.81,1.52c1.19,1.01,1.78,2.44,1.78,4.28v7.1
		c0.01,1.55,0.23,2.73,0.65,3.53v0.26H209.36z M205.74,328.4c0.65,0,1.24-0.14,1.79-0.43c0.54-0.29,0.95-0.67,1.21-1.16v-2.82h-1.63
		c-2.19,0-3.36,0.76-3.5,2.27l-0.01,0.26c0,0.54,0.19,0.99,0.57,1.35C204.55,328.22,205.07,328.4,205.74,328.4z"/>
	<path class="st0" d="M225.69,319.16c-0.59-0.08-1.12-0.12-1.57-0.12c-1.65,0-2.74,0.56-3.25,1.68v10.72h-4.38v-16.38h4.13
		l0.12,1.95c0.88-1.5,2.09-2.25,3.65-2.25c0.48,0,0.94,0.07,1.36,0.2L225.69,319.16z"/>
	<path class="st0" d="M227.11,323.13c0-2.55,0.57-4.59,1.72-6.1s2.71-2.27,4.7-2.27c1.59,0,2.91,0.6,3.95,1.79v-8.36h4.39v23.25
		h-3.95l-0.21-1.74c-1.09,1.36-2.49,2.04-4.21,2.04c-1.93,0-3.47-0.76-4.64-2.28C227.7,327.94,227.11,325.83,227.11,323.13z
		 M231.49,323.45c0,1.54,0.27,2.71,0.8,3.53s1.31,1.23,2.33,1.23c1.35,0,2.31-0.57,2.86-1.71v-6.47c-0.54-1.14-1.49-1.71-2.83-1.71
		C232.54,318.31,231.49,320.03,231.49,323.45z"/>
	<path class="st0" d="M47.63,366.66c1,0,1.87-0.3,2.62-0.91c0.75-0.61,1.16-1.36,1.24-2.27h2.65c-0.05,0.94-0.37,1.83-0.97,2.68
		s-1.39,1.52-2.38,2.03c-0.99,0.5-2.05,0.76-3.16,0.76c-2.23,0-4-0.74-5.32-2.23c-1.32-1.49-1.98-3.53-1.98-6.11v-0.47
		c0-1.59,0.29-3.01,0.88-4.25s1.42-2.2,2.52-2.89c1.09-0.69,2.39-1.03,3.88-1.03c1.84,0,3.36,0.55,4.58,1.65s1.86,2.53,1.95,4.28
		h-2.65c-0.08-1.06-0.48-1.93-1.2-2.61c-0.72-0.68-1.61-1.02-2.67-1.02c-1.42,0-2.53,0.51-3.31,1.54c-0.78,1.02-1.17,2.5-1.17,4.44
		v0.53c0,1.89,0.39,3.34,1.17,4.36S46.19,366.66,47.63,366.66z"/>
	<path class="st0" d="M67.4,368.64c-0.16-0.32-0.29-0.9-0.39-1.73c-1.3,1.35-2.86,2.03-4.66,2.03c-1.61,0-2.94-0.46-3.97-1.37
		c-1.03-0.91-1.55-2.07-1.55-3.47c0-1.71,0.65-3.03,1.94-3.97c1.3-0.94,3.12-1.41,5.47-1.41h2.72v-1.29c0-0.98-0.29-1.76-0.88-2.34
		c-0.59-0.58-1.45-0.87-2.59-0.87c-1,0-1.84,0.25-2.51,0.76s-1.01,1.12-1.01,1.83h-2.82c0-0.82,0.29-1.61,0.87-2.37
		c0.58-0.76,1.37-1.36,2.36-1.81c0.99-0.44,2.09-0.67,3.28-0.67c1.89,0,3.37,0.47,4.43,1.42s1.62,2.24,1.67,3.9v7.54
		c0,1.5,0.19,2.7,0.58,3.59v0.24H67.4z M62.75,366.5c0.88,0,1.71-0.23,2.5-0.68c0.79-0.45,1.36-1.04,1.71-1.77v-3.36h-2.19
		c-3.43,0-5.15,1-5.15,3.01c0,0.88,0.29,1.56,0.88,2.06C61.08,366.26,61.83,366.5,62.75,366.5z"/>
	<path class="st0" d="M76.8,352.26l0.09,2.06c1.25-1.57,2.89-2.36,4.9-2.36c3.46,0,5.21,1.95,5.24,5.86v10.82h-2.8V357.8
		c-0.01-1.18-0.28-2.05-0.81-2.62c-0.53-0.56-1.36-0.85-2.47-0.85c-0.91,0-1.71,0.24-2.39,0.73c-0.69,0.48-1.22,1.12-1.6,1.91v11.67
		h-2.8v-16.38H76.8z"/>
	<path class="st0" d="M101.73,354.24c1.24-1.52,2.86-2.29,4.84-2.29c3.46,0,5.21,1.95,5.24,5.86v10.82h-2.8V357.8
		c-0.01-1.18-0.28-2.05-0.81-2.62c-0.53-0.56-1.36-0.85-2.47-0.85c-0.91,0-1.71,0.24-2.39,0.73c-0.69,0.48-1.22,1.12-1.6,1.91v11.67
		h-2.8v-23.25h2.8V354.24z"/>
	<path class="st0" d="M122.8,368.94c-2.22,0-4.03-0.73-5.42-2.19c-1.39-1.46-2.09-3.41-2.09-5.85v-0.51c0-1.62,0.31-3.08,0.93-4.35
		c0.62-1.28,1.49-2.28,2.6-3c1.11-0.72,2.32-1.08,3.62-1.08c2.13,0,3.78,0.7,4.96,2.1c1.18,1.4,1.77,3.41,1.77,6.02v1.17h-11.09
		c0.04,1.61,0.51,2.92,1.42,3.91s2.05,1.49,3.44,1.49c0.99,0,1.83-0.2,2.51-0.61c0.69-0.4,1.29-0.94,1.8-1.6l1.71,1.33
		C127.6,367.89,125.54,368.94,122.8,368.94z M122.45,354.26c-1.13,0-2.08,0.41-2.85,1.23s-1.24,1.97-1.42,3.46h8.2v-0.21
		c-0.08-1.42-0.46-2.53-1.15-3.31C124.55,354.65,123.62,354.26,122.45,354.26z"/>
	<path class="st0" d="M135.47,368.64h-2.8v-23.25h2.8V368.64z"/>
	<path class="st0" d="M153.79,360.63c0,2.49-0.57,4.5-1.71,6.02c-1.14,1.52-2.68,2.29-4.63,2.29c-1.99,0-3.55-0.63-4.69-1.89v7.89
		h-2.8v-22.68h2.56l0.14,1.82c1.14-1.41,2.72-2.12,4.75-2.12c1.97,0,3.52,0.74,4.67,2.23c1.14,1.48,1.72,3.55,1.72,6.19V360.63z
		 M150.99,360.31c0-1.85-0.39-3.3-1.18-4.37s-1.87-1.6-3.24-1.6c-1.7,0-2.97,0.75-3.81,2.26v7.83c0.84,1.49,2.12,2.24,3.84,2.24
		c1.34,0,2.41-0.53,3.2-1.6C150.59,363.99,150.99,362.41,150.99,360.31z"/>
	<path class="st0" d="M178.85,360.63c0,2.49-0.57,4.5-1.71,6.02c-1.14,1.52-2.68,2.29-4.63,2.29c-1.99,0-3.55-0.63-4.69-1.89v7.89
		h-2.8v-22.68h2.56l0.14,1.82c1.14-1.41,2.72-2.12,4.75-2.12c1.97,0,3.52,0.74,4.67,2.23c1.14,1.48,1.72,3.55,1.72,6.19V360.63z
		 M176.05,360.31c0-1.85-0.39-3.3-1.18-4.37s-1.87-1.6-3.24-1.6c-1.7,0-2.97,0.75-3.81,2.26v7.83c0.84,1.49,2.12,2.24,3.84,2.24
		c1.34,0,2.41-0.53,3.2-1.6C175.66,363.99,176.05,362.41,176.05,360.31z"/>
	<path class="st0" d="M190.33,354.77c-0.42-0.07-0.88-0.11-1.38-0.11c-1.84,0-3.08,0.78-3.74,2.35v11.62h-2.8v-16.38h2.72l0.04,1.89
		c0.92-1.46,2.22-2.2,3.91-2.2c0.54,0,0.96,0.07,1.24,0.21V354.77z"/>
	<path class="st0" d="M191.85,360.3c0-1.6,0.32-3.05,0.95-4.33s1.51-2.27,2.63-2.97s2.41-1.04,3.85-1.04c2.23,0,4.03,0.77,5.41,2.32
		c1.38,1.54,2.07,3.6,2.07,6.16v0.2c0,1.59-0.31,3.03-0.92,4.29c-0.61,1.27-1.48,2.25-2.62,2.96c-1.14,0.71-2.44,1.06-3.91,1.06
		c-2.22,0-4.02-0.77-5.4-2.32c-1.38-1.54-2.07-3.59-2.07-6.13V360.3z M194.67,360.63c0,1.82,0.42,3.28,1.26,4.38
		c0.84,1.1,1.97,1.65,3.38,1.65c1.42,0,2.55-0.56,3.39-1.67s1.26-2.68,1.26-4.68c0-1.8-0.43-3.25-1.28-4.37
		c-0.85-1.12-1.99-1.67-3.4-1.67c-1.38,0-2.5,0.55-3.34,1.65S194.67,358.58,194.67,360.63z"/>
	<path class="st0" d="M214.08,348.29v3.96h3.06v2.17h-3.06v10.17c0,0.66,0.14,1.15,0.41,1.48s0.74,0.49,1.39,0.49
		c0.32,0,0.77-0.06,1.33-0.18v2.26c-0.74,0.2-1.45,0.3-2.15,0.3c-1.25,0-2.2-0.38-2.83-1.14c-0.64-0.76-0.95-1.83-0.95-3.22v-10.16
		h-2.98v-2.17h2.98v-3.96H214.08z"/>
	<path class="st0" d="M227.2,368.94c-2.22,0-4.03-0.73-5.42-2.19c-1.39-1.46-2.09-3.41-2.09-5.85v-0.51c0-1.62,0.31-3.08,0.93-4.35
		c0.62-1.28,1.49-2.28,2.6-3c1.11-0.72,2.32-1.08,3.62-1.08c2.13,0,3.78,0.7,4.96,2.1c1.18,1.4,1.77,3.41,1.77,6.02v1.17h-11.09
		c0.04,1.61,0.51,2.92,1.42,3.91s2.05,1.49,3.44,1.49c0.99,0,1.83-0.2,2.51-0.61c0.69-0.4,1.29-0.94,1.8-1.6l1.71,1.33
		C232,367.89,229.94,368.94,227.2,368.94z M226.85,354.26c-1.13,0-2.08,0.41-2.85,1.23s-1.24,1.97-1.42,3.46h8.2v-0.21
		c-0.08-1.42-0.46-2.53-1.15-3.31C228.95,354.65,228.02,354.26,226.85,354.26z"/>
	<path class="st0" d="M243.4,366.66c1,0,1.87-0.3,2.62-0.91c0.75-0.61,1.16-1.36,1.24-2.27h2.65c-0.05,0.94-0.37,1.83-0.97,2.68
		s-1.39,1.52-2.38,2.03c-0.99,0.5-2.05,0.76-3.16,0.76c-2.23,0-4-0.74-5.32-2.23c-1.32-1.49-1.98-3.53-1.98-6.11v-0.47
		c0-1.59,0.29-3.01,0.88-4.25s1.42-2.2,2.52-2.89c1.09-0.69,2.39-1.03,3.88-1.03c1.84,0,3.36,0.55,4.58,1.65s1.86,2.53,1.95,4.28
		h-2.65c-0.08-1.06-0.48-1.93-1.2-2.61c-0.72-0.68-1.61-1.02-2.67-1.02c-1.42,0-2.53,0.51-3.31,1.54c-0.78,1.02-1.17,2.5-1.17,4.44
		v0.53c0,1.89,0.39,3.34,1.17,4.36S241.95,366.66,243.4,366.66z"/>
	<path class="st0" d="M256.85,348.29v3.96h3.06v2.17h-3.06v10.17c0,0.66,0.14,1.15,0.41,1.48s0.74,0.49,1.39,0.49
		c0.32,0,0.77-0.06,1.33-0.18v2.26c-0.74,0.2-1.45,0.3-2.15,0.3c-1.25,0-2.2-0.38-2.83-1.14c-0.64-0.76-0.95-1.83-0.95-3.22v-10.16
		h-2.98v-2.17h2.98v-3.96H256.85z"/>
	<path class="st0" d="M96.02,401.74l3.81-12.28h3l-6.58,18.91c-1.02,2.72-2.64,4.09-4.86,4.09l-0.53-0.05l-1.04-0.2v-2.27l0.76,0.06
		c0.95,0,1.69-0.19,2.22-0.57c0.53-0.38,0.97-1.09,1.31-2.1l0.62-1.67l-5.84-16.2h3.06L96.02,401.74z"/>
	<path class="st0" d="M104.59,397.5c0-1.61,0.32-3.05,0.95-4.33c0.63-1.28,1.51-2.27,2.63-2.97c1.12-0.7,2.41-1.04,3.85-1.04
		c2.23,0,4.03,0.77,5.41,2.32c1.38,1.54,2.07,3.6,2.07,6.16v0.2c0,1.6-0.31,3.03-0.92,4.29s-1.48,2.25-2.62,2.96
		c-1.14,0.71-2.44,1.06-3.91,1.06c-2.22,0-4.02-0.77-5.4-2.32c-1.38-1.54-2.07-3.59-2.07-6.13V397.5z M107.41,397.83
		c0,1.82,0.42,3.28,1.26,4.38c0.84,1.1,1.97,1.65,3.38,1.65c1.42,0,2.55-0.56,3.39-1.67c0.84-1.12,1.26-2.68,1.26-4.68
		c0-1.8-0.43-3.25-1.28-4.37c-0.85-1.12-1.99-1.67-3.4-1.67c-1.38,0-2.5,0.55-3.34,1.65C107.83,394.21,107.41,395.78,107.41,397.83z
		"/>
	<path class="st0" d="M133.12,404.22c-1.09,1.28-2.69,1.92-4.8,1.92c-1.75,0-3.08-0.51-3.99-1.52c-0.91-1.01-1.38-2.51-1.38-4.5
		v-10.66h2.8v10.58c0,2.48,1.01,3.72,3.03,3.72c2.14,0,3.56-0.8,4.27-2.39v-11.91h2.8v16.38h-2.66L133.12,404.22z"/>
	<path class="st0" d="M149.15,405.84v-14.21h-2.59v-2.17h2.59v-1.68c0-1.76,0.47-3.11,1.41-4.07c0.94-0.96,2.27-1.44,3.98-1.44
		c0.65,0,1.29,0.09,1.92,0.26l-0.15,2.26c-0.47-0.09-0.98-0.14-1.51-0.14c-0.91,0-1.61,0.27-2.1,0.8c-0.5,0.53-0.74,1.29-0.74,2.29
		v1.73h3.5v2.17h-3.5v14.21H149.15z"/>
	<path class="st0" d="M166.45,391.97c-0.42-0.07-0.88-0.11-1.38-0.11c-1.84,0-3.08,0.78-3.74,2.35v11.62h-2.8v-16.38h2.72l0.04,1.89
		c0.92-1.46,2.22-2.19,3.91-2.19c0.54,0,0.96,0.07,1.24,0.21V391.97z"/>
	<path class="st0" d="M167.98,397.5c0-1.61,0.32-3.05,0.95-4.33c0.63-1.28,1.51-2.27,2.63-2.97c1.12-0.7,2.41-1.04,3.85-1.04
		c2.23,0,4.03,0.77,5.41,2.32c1.38,1.54,2.07,3.6,2.07,6.16v0.2c0,1.6-0.31,3.03-0.92,4.29s-1.48,2.25-2.62,2.96
		c-1.14,0.71-2.44,1.06-3.91,1.06c-2.22,0-4.02-0.77-5.4-2.32c-1.38-1.54-2.07-3.59-2.07-6.13V397.5z M170.8,397.83
		c0,1.82,0.42,3.28,1.26,4.38c0.84,1.1,1.97,1.65,3.38,1.65c1.42,0,2.55-0.56,3.39-1.67c0.84-1.12,1.26-2.68,1.26-4.68
		c0-1.8-0.43-3.25-1.28-4.37c-0.85-1.12-1.99-1.67-3.4-1.67c-1.38,0-2.5,0.55-3.34,1.65C171.22,394.21,170.8,395.78,170.8,397.83z"
		/>
	<path class="st0" d="M189.04,389.46l0.08,1.82c1.2-1.41,2.82-2.12,4.86-2.12c2.29,0,3.85,0.88,4.68,2.63
		c0.54-0.79,1.25-1.42,2.13-1.91s1.91-0.73,3.1-0.73c3.59,0,5.42,1.9,5.48,5.71v10.97h-2.8v-10.81c0-1.17-0.27-2.05-0.8-2.63
		s-1.43-0.87-2.69-0.87c-1.04,0-1.9,0.31-2.59,0.93c-0.69,0.62-1.08,1.46-1.2,2.5v10.87h-2.82v-10.73c0-2.38-1.17-3.57-3.5-3.57
		c-1.84,0-3.09,0.78-3.77,2.35v11.96h-2.8v-16.38H189.04z"/>
	<path class="st0" d="M58.36,422.42c0-0.66,0.22-1.2,0.66-1.62c0.44-0.42,1.04-0.64,1.79-0.64c0.75,0,1.34,0.21,1.79,0.64
		c0.44,0.42,0.67,0.96,0.67,1.62c0,0.67-0.23,1.21-0.67,1.63c-0.45,0.42-1.04,0.64-1.78,0.64c-0.74,0-1.33-0.21-1.78-0.64
		S58.36,423.09,58.36,422.42z M63.01,443.04h-4.39v-16.38h4.39V443.04z"/>
	<path class="st0" d="M65.93,434.73c0-2.55,0.57-4.59,1.72-6.1s2.71-2.27,4.7-2.27c1.59,0,2.91,0.6,3.95,1.79v-8.36h4.39v23.25
		h-3.95l-0.21-1.74c-1.09,1.36-2.49,2.04-4.21,2.04c-1.93,0-3.47-0.76-4.64-2.28C66.51,439.54,65.93,437.43,65.93,434.73z
		 M70.3,435.05c0,1.54,0.27,2.71,0.8,3.53s1.31,1.23,2.33,1.23c1.35,0,2.31-0.57,2.86-1.71v-6.47c-0.54-1.14-1.49-1.71-2.83-1.71
		C71.36,429.91,70.3,431.63,70.3,435.05z"/>
	<path class="st0" d="M91.62,443.34c-2.4,0-4.36-0.74-5.87-2.21c-1.51-1.47-2.26-3.44-2.26-5.89v-0.42c0-1.64,0.32-3.12,0.95-4.41
		c0.64-1.3,1.54-2.29,2.7-3c1.17-0.7,2.5-1.05,3.99-1.05c2.24,0,4,0.71,5.29,2.12c1.29,1.41,1.93,3.42,1.93,6.01v1.79H87.92
		c0.14,1.07,0.57,1.93,1.28,2.57c0.71,0.65,1.61,0.97,2.7,0.97c1.69,0,3-0.61,3.95-1.83l2.15,2.41c-0.66,0.93-1.54,1.65-2.66,2.17
		C94.22,443.08,92.98,443.34,91.62,443.34z M91.12,429.88c-0.87,0-1.57,0.29-2.11,0.88c-0.54,0.59-0.89,1.43-1.04,2.52h6.08v-0.35
		c-0.02-0.97-0.28-1.73-0.79-2.26S92.05,429.88,91.12,429.88z"/>
	<path class="st0" d="M104.86,426.66l0.14,1.89c1.17-1.46,2.74-2.2,4.71-2.2c1.74,0,3.03,0.51,3.88,1.53s1.28,2.54,1.3,4.57v10.58
		h-4.37v-10.47c0-0.93-0.2-1.6-0.61-2.02c-0.4-0.42-1.08-0.63-2.01-0.63c-1.23,0-2.16,0.53-2.77,1.57v11.55h-4.37v-16.38H104.86z"/>
	<path class="st0" d="M123.44,422.63v4.03h2.8v3.21h-2.8v8.17c0,0.61,0.12,1.04,0.35,1.3s0.68,0.39,1.33,0.39
		c0.48,0,0.91-0.04,1.29-0.11v3.31c-0.86,0.26-1.74,0.39-2.65,0.39c-3.07,0-4.63-1.55-4.69-4.65v-8.82h-2.39v-3.21h2.39v-4.03
		H123.44z"/>
	<path class="st0" d="M128.64,422.42c0-0.66,0.22-1.2,0.66-1.62c0.44-0.42,1.04-0.64,1.79-0.64c0.75,0,1.34,0.21,1.79,0.64
		c0.44,0.42,0.67,0.96,0.67,1.62c0,0.67-0.23,1.21-0.67,1.63c-0.45,0.42-1.04,0.64-1.78,0.64c-0.74,0-1.33-0.21-1.78-0.64
		S128.64,423.09,128.64,422.42z M133.29,443.04h-4.39v-16.38h4.39V443.04z"/>
	<path class="st0" d="M142.13,422.63v4.03h2.8v3.21h-2.8v8.17c0,0.61,0.12,1.04,0.35,1.3s0.68,0.39,1.33,0.39
		c0.48,0,0.91-0.04,1.29-0.11v3.31c-0.86,0.26-1.74,0.39-2.65,0.39c-3.07,0-4.63-1.55-4.69-4.65v-8.82h-2.39v-3.21h2.39v-4.03
		H142.13z"/>
	<path class="st0" d="M153.48,436.85l3.03-10.19h4.69l-6.58,18.92l-0.36,0.86c-0.98,2.14-2.59,3.21-4.84,3.21
		c-0.64,0-1.28-0.1-1.94-0.29v-3.31l0.67,0.01c0.83,0,1.45-0.13,1.85-0.38c0.41-0.25,0.73-0.67,0.96-1.26l0.51-1.35l-5.74-16.42
		h4.71L153.48,436.85z"/>
	<path class="st0" d="M175.88,422.63v4.03h2.8v3.21h-2.8v8.17c0,0.61,0.12,1.04,0.35,1.3s0.68,0.39,1.33,0.39
		c0.48,0,0.91-0.04,1.29-0.11v3.31c-0.86,0.26-1.74,0.39-2.65,0.39c-3.07,0-4.63-1.55-4.69-4.65v-8.82h-2.39v-3.21h2.39v-4.03
		H175.88z"/>
	<path class="st0" d="M185.39,428.45c1.16-1.39,2.62-2.09,4.37-2.09c3.55,0,5.35,2.06,5.4,6.19v10.49h-4.37v-10.37
		c0-0.94-0.2-1.63-0.61-2.08s-1.08-0.67-2.01-0.67c-1.28,0-2.21,0.5-2.79,1.48v11.64h-4.38v-23.25h4.38V428.45z"/>
	<path class="st0" d="M206,443.34c-2.4,0-4.36-0.74-5.87-2.21c-1.51-1.47-2.26-3.44-2.26-5.89v-0.42c0-1.64,0.32-3.12,0.95-4.41
		c0.64-1.3,1.54-2.29,2.7-3c1.17-0.7,2.5-1.05,3.99-1.05c2.24,0,4,0.71,5.29,2.12c1.29,1.41,1.93,3.42,1.93,6.01v1.79h-10.43
		c0.14,1.07,0.57,1.93,1.28,2.57c0.71,0.65,1.61,0.97,2.7,0.97c1.69,0,3-0.61,3.95-1.83l2.15,2.41c-0.66,0.93-1.54,1.65-2.66,2.17
		C208.61,443.08,207.37,443.34,206,443.34z M205.5,429.88c-0.87,0-1.57,0.29-2.11,0.88c-0.54,0.59-0.89,1.43-1.04,2.52h6.08v-0.35
		c-0.02-0.97-0.28-1.73-0.79-2.26S206.43,429.88,205.5,429.88z"/>
	<path class="st0" d="M216.42,443.04v-13.17h-2.44v-3.21h2.44v-1.39c0-1.84,0.53-3.26,1.58-4.28c1.05-1.01,2.53-1.52,4.43-1.52
		c0.61,0,1.35,0.1,2.23,0.3l-0.05,3.39c-0.36-0.09-0.81-0.14-1.33-0.14c-1.64,0-2.47,0.77-2.47,2.32v1.32h3.25v3.21h-3.25v13.17
		H216.42z"/>
	<path class="st0" d="M231.57,422.63v4.03h2.8v3.21h-2.8v8.17c0,0.61,0.12,1.04,0.35,1.3s0.68,0.39,1.33,0.39
		c0.48,0,0.91-0.04,1.29-0.11v3.31c-0.86,0.26-1.74,0.39-2.65,0.39c-3.07,0-4.63-1.55-4.69-4.65v-8.82h-2.39v-3.21h2.39v-4.03
		H231.57z"/>
	<path class="st0" d="M237.31,441.57c0-0.48,0.14-0.89,0.43-1.21c0.29-0.32,0.72-0.48,1.29-0.48s1.01,0.16,1.31,0.48
		c0.3,0.32,0.45,0.73,0.45,1.21c0,0.46-0.15,0.85-0.45,1.17c-0.3,0.31-0.73,0.47-1.31,0.47s-1.01-0.16-1.29-0.47
		C237.45,442.42,237.31,442.03,237.31,441.57z"/>
</g>
<g>
	<path class="st0" d="M47.96,547.43c0-0.54-0.19-0.99-0.57-1.36c-0.38-0.37-1.02-0.7-1.91-1c-1.25-0.38-2.16-0.88-2.73-1.49
		c-0.57-0.61-0.86-1.39-0.86-2.33c0-0.96,0.28-1.75,0.84-2.36c0.56-0.62,1.33-0.98,2.31-1.1v-1.92h1.31v1.93
		c0.98,0.13,1.75,0.55,2.3,1.24s0.82,1.64,0.82,2.84h-1.62c0-0.83-0.2-1.49-0.59-1.98c-0.39-0.49-0.92-0.73-1.59-0.73
		c-0.7,0-1.23,0.18-1.6,0.54c-0.37,0.36-0.55,0.86-0.55,1.51c0,0.6,0.19,1.08,0.58,1.43c0.39,0.35,1.03,0.68,1.92,0.97
		c0.89,0.29,1.59,0.61,2.09,0.96c0.5,0.35,0.87,0.75,1.11,1.22c0.24,0.46,0.36,1,0.36,1.63c0,0.99-0.3,1.79-0.89,2.39
		c-0.6,0.6-1.43,0.96-2.5,1.07v1.68h-1.3v-1.68c-1.09-0.1-1.94-0.49-2.56-1.17c-0.62-0.68-0.93-1.59-0.93-2.75h1.63
		c0,0.81,0.21,1.44,0.64,1.88s1.03,0.66,1.82,0.66c0.77,0,1.37-0.18,1.81-0.55S47.96,548.07,47.96,547.43z"/>
	<path class="st0" d="M56.95,550.73h-1.63v-10.84l-3.28,1.2v-1.48l4.66-1.75h0.25V550.73z"/>
	<path class="st0" d="M68.54,538.91v2.3h1.78v1.26h-1.78v5.9c0,0.38,0.08,0.67,0.24,0.86s0.43,0.29,0.81,0.29
		c0.19,0,0.45-0.04,0.77-0.11v1.31c-0.43,0.12-0.84,0.17-1.25,0.17c-0.73,0-1.27-0.22-1.64-0.66s-0.55-1.06-0.55-1.87v-5.9h-1.73
		v-1.26h1.73v-2.3H68.54z"/>
	<path class="st0" d="M76.81,542.67c-0.25-0.04-0.51-0.06-0.8-0.06c-1.07,0-1.79,0.45-2.17,1.36v6.75h-1.63v-9.51h1.58l0.03,1.1
		c0.53-0.85,1.29-1.27,2.27-1.27c0.32,0,0.56,0.04,0.72,0.12V542.67z"/>
	<path class="st0" d="M78.31,538.69c0-0.26,0.08-0.49,0.24-0.67s0.4-0.27,0.72-0.27s0.56,0.09,0.72,0.27s0.25,0.4,0.25,0.67
		s-0.08,0.48-0.25,0.66s-0.4,0.26-0.72,0.26s-0.56-0.09-0.72-0.26S78.31,538.96,78.31,538.69z M80.07,550.73h-1.63v-9.51h1.63
		V550.73z"/>
	<path class="st0" d="M88.54,550.73c-0.09-0.19-0.17-0.52-0.23-1c-0.76,0.79-1.66,1.18-2.71,1.18c-0.94,0-1.71-0.27-2.31-0.8
		c-0.6-0.53-0.9-1.2-0.9-2.02c0-0.99,0.38-1.76,1.13-2.31c0.75-0.55,1.81-0.82,3.18-0.82h1.58v-0.75c0-0.57-0.17-1.02-0.51-1.36
		s-0.84-0.5-1.5-0.5c-0.58,0-1.07,0.15-1.46,0.44s-0.59,0.65-0.59,1.06h-1.63c0-0.47,0.17-0.93,0.5-1.38s0.79-0.79,1.37-1.05
		s1.21-0.39,1.9-0.39c1.1,0,1.95,0.27,2.58,0.82s0.94,1.3,0.97,2.26v4.38c0,0.87,0.11,1.57,0.33,2.08v0.14H88.54z M85.85,549.49
		c0.51,0,0.99-0.13,1.45-0.4s0.79-0.61,0.99-1.03v-1.95h-1.27c-1.99,0-2.99,0.58-2.99,1.75c0,0.51,0.17,0.91,0.51,1.2
		S85.31,549.49,85.85,549.49z"/>
	<path class="st0" d="M94.23,550.73H92.6v-13.5h1.63V550.73z"/>
	<path class="st0" d="M102.09,550.73v-8.25h-1.5v-1.26h1.5v-0.98c0-1.02,0.27-1.81,0.82-2.36s1.32-0.83,2.31-0.83
		c0.38,0,0.75,0.05,1.12,0.15l-0.09,1.31c-0.28-0.05-0.57-0.08-0.88-0.08c-0.53,0-0.93,0.15-1.22,0.46s-0.43,0.75-0.43,1.33v1h2.03
		v1.26h-2.03v8.25H102.09z"/>
	<path class="st0" d="M107.11,545.88c0-0.93,0.18-1.77,0.55-2.51c0.37-0.74,0.88-1.32,1.53-1.72c0.65-0.4,1.4-0.61,2.24-0.61
		c1.29,0,2.34,0.45,3.14,1.34c0.8,0.9,1.2,2.09,1.2,3.58v0.11c0,0.93-0.18,1.76-0.53,2.49c-0.36,0.74-0.86,1.31-1.52,1.72
		c-0.66,0.41-1.42,0.62-2.27,0.62c-1.29,0-2.33-0.45-3.13-1.34c-0.8-0.9-1.2-2.08-1.2-3.56V545.88z M108.74,546.08
		c0,1.05,0.24,1.9,0.73,2.54s1.14,0.96,1.96,0.96c0.83,0,1.48-0.32,1.97-0.97s0.73-1.55,0.73-2.72c0-1.04-0.25-1.89-0.74-2.54
		s-1.15-0.97-1.97-0.97c-0.8,0-1.45,0.32-1.94,0.96S108.74,544.89,108.74,546.08z"/>
	<path class="st0" d="M122.4,542.67c-0.25-0.04-0.51-0.06-0.8-0.06c-1.07,0-1.79,0.45-2.17,1.36v6.75h-1.63v-9.51h1.58l0.03,1.1
		c0.53-0.85,1.29-1.27,2.27-1.27c0.32,0,0.56,0.04,0.72,0.12V542.67z"/>
	<path class="st0" d="M130.56,538.91v2.3h1.78v1.26h-1.78v5.9c0,0.38,0.08,0.67,0.24,0.86s0.43,0.29,0.81,0.29
		c0.19,0,0.45-0.04,0.77-0.11v1.31c-0.43,0.12-0.84,0.17-1.25,0.17c-0.73,0-1.27-0.22-1.64-0.66s-0.55-1.06-0.55-1.87v-5.9h-1.73
		v-1.26h1.73v-2.3H130.56z"/>
	<path class="st0" d="M135.85,542.37c0.72-0.88,1.66-1.33,2.81-1.33c2.01,0,3.02,1.13,3.04,3.4v6.28h-1.63v-6.29
		c-0.01-0.69-0.16-1.19-0.47-1.52c-0.31-0.33-0.79-0.49-1.44-0.49c-0.53,0-0.99,0.14-1.39,0.42s-0.71,0.65-0.93,1.11v6.78h-1.63
		v-13.5h1.63V542.37z"/>
	<path class="st0" d="M148.09,550.9c-1.29,0-2.34-0.42-3.15-1.27s-1.21-1.98-1.21-3.4v-0.3c0-0.94,0.18-1.79,0.54-2.53
		c0.36-0.74,0.86-1.32,1.51-1.74s1.35-0.63,2.11-0.63c1.24,0,2.2,0.41,2.88,1.22c0.69,0.81,1.03,1.98,1.03,3.5v0.68h-6.44
		c0.02,0.94,0.3,1.69,0.82,2.27c0.52,0.58,1.19,0.87,2,0.87c0.57,0,1.06-0.12,1.46-0.35s0.75-0.54,1.05-0.93l0.99,0.77
		C150.88,550.29,149.68,550.9,148.09,550.9z M147.89,542.38c-0.66,0-1.21,0.24-1.65,0.72s-0.72,1.15-0.83,2.01h4.76v-0.12
		c-0.05-0.83-0.27-1.47-0.67-1.92S148.57,542.38,147.89,542.38z"/>
	<path class="st0" d="M158.93,550.73v-8.25h-1.5v-1.26h1.5v-0.98c0-1.02,0.27-1.81,0.82-2.36s1.32-0.83,2.31-0.83
		c0.38,0,0.75,0.05,1.12,0.15l-0.09,1.31c-0.28-0.05-0.57-0.08-0.88-0.08c-0.53,0-0.93,0.15-1.22,0.46s-0.43,0.75-0.43,1.33v1h2.03
		v1.26h-2.03v8.25H158.93z"/>
	<path class="st0" d="M164.39,538.69c0-0.26,0.08-0.49,0.24-0.67s0.4-0.27,0.72-0.27s0.56,0.09,0.72,0.27s0.25,0.4,0.25,0.67
		s-0.08,0.48-0.25,0.66s-0.4,0.26-0.72,0.26s-0.56-0.09-0.72-0.26S164.39,538.96,164.39,538.69z M166.15,550.73h-1.63v-9.51h1.63
		V550.73z"/>
	<path class="st0" d="M173.35,542.67c-0.25-0.04-0.51-0.06-0.8-0.06c-1.07,0-1.79,0.45-2.17,1.36v6.75h-1.63v-9.51h1.58l0.03,1.1
		c0.53-0.85,1.29-1.27,2.27-1.27c0.32,0,0.56,0.04,0.72,0.12V542.67z"/>
	<path class="st0" d="M180.38,548.2c0-0.44-0.17-0.78-0.5-1.02c-0.33-0.24-0.91-0.45-1.73-0.63s-1.48-0.39-1.96-0.63
		c-0.48-0.25-0.84-0.54-1.07-0.88c-0.23-0.34-0.35-0.74-0.35-1.21c0-0.78,0.33-1.44,0.99-1.98c0.66-0.54,1.5-0.81,2.53-0.81
		c1.08,0,1.95,0.28,2.62,0.83s1.01,1.27,1.01,2.14h-1.63c0-0.45-0.19-0.83-0.57-1.15c-0.38-0.32-0.85-0.48-1.43-0.48
		c-0.59,0-1.05,0.13-1.39,0.39s-0.5,0.59-0.5,1.01c0,0.39,0.16,0.69,0.47,0.89s0.87,0.39,1.68,0.57c0.81,0.18,1.47,0.4,1.97,0.65
		s0.88,0.55,1.12,0.91c0.24,0.35,0.36,0.79,0.36,1.3c0,0.85-0.34,1.53-1.02,2.04s-1.56,0.77-2.65,0.77c-0.76,0-1.44-0.13-2.02-0.4
		s-1.04-0.65-1.38-1.13c-0.33-0.48-0.5-1.01-0.5-1.57h1.63c0.03,0.54,0.25,0.98,0.65,1.3s0.95,0.48,1.61,0.48
		c0.62,0,1.11-0.12,1.48-0.37S180.38,548.62,180.38,548.2z"/>
	<path class="st0" d="M186.33,538.91v2.3h1.78v1.26h-1.78v5.9c0,0.38,0.08,0.67,0.24,0.86s0.43,0.29,0.81,0.29
		c0.19,0,0.45-0.04,0.77-0.11v1.31c-0.43,0.12-0.84,0.17-1.25,0.17c-0.73,0-1.27-0.22-1.64-0.66s-0.55-1.06-0.55-1.87v-5.9h-1.73
		v-1.26h1.73v-2.3H186.33z"/>
	<path class="st0" d="M200.27,550.73h-2.54v-9.79l-3.03,0.94v-2.07l5.3-1.9h0.27V550.73z"/>
	<path class="st0" d="M211.94,545.91h1.45v2.05h-1.45v2.77h-2.54v-2.77h-5.25l-0.11-1.6l5.33-8.43h2.57V545.91z M206.57,545.91h2.83
		v-4.52l-0.17,0.29L206.57,545.91z"/>
	<path class="st0" d="M218.95,545.9c0-1.48,0.33-2.66,1-3.54c0.66-0.88,1.57-1.32,2.73-1.32c0.93,0,1.69,0.35,2.29,1.04v-4.85h2.55
		v13.5h-2.29l-0.12-1.01c-0.63,0.79-1.45,1.19-2.44,1.19c-1.12,0-2.02-0.44-2.69-1.32C219.28,548.7,218.95,547.47,218.95,545.9z
		 M221.49,546.09c0,0.89,0.16,1.58,0.47,2.05c0.31,0.47,0.76,0.71,1.35,0.71c0.79,0,1.34-0.33,1.66-1v-3.76
		c-0.32-0.66-0.86-0.99-1.64-0.99C222.1,543.11,221.49,544.1,221.49,546.09z"/>
	<path class="st0" d="M235,550.73c-0.12-0.23-0.2-0.51-0.25-0.85c-0.62,0.69-1.42,1.03-2.4,1.03c-0.93,0-1.7-0.27-2.32-0.81
		s-0.92-1.22-0.92-2.04c0-1.01,0.37-1.78,1.12-2.32c0.75-0.54,1.83-0.81,3.24-0.82h1.17v-0.54c0-0.44-0.11-0.79-0.34-1.05
		s-0.58-0.4-1.07-0.4c-0.43,0-0.76,0.1-1.01,0.31s-0.36,0.49-0.36,0.84h-2.54c0-0.55,0.17-1.06,0.51-1.53s0.82-0.84,1.44-1.1
		s1.32-0.4,2.09-0.4c1.17,0,2.1,0.29,2.79,0.88c0.69,0.59,1.03,1.42,1.03,2.48v4.12c0.01,0.9,0.13,1.58,0.38,2.05v0.15H235z
		 M232.89,548.96c0.38,0,0.72-0.08,1.04-0.25s0.55-0.39,0.7-0.67v-1.63h-0.95c-1.27,0-1.95,0.44-2.03,1.32l-0.01,0.15
		c0,0.32,0.11,0.58,0.33,0.78S232.51,548.96,232.89,548.96z"/>
	<path class="st0" d="M242.69,547.13l1.76-5.92h2.72l-3.82,10.99l-0.21,0.5c-0.57,1.24-1.51,1.86-2.81,1.86
		c-0.37,0-0.74-0.06-1.12-0.17v-1.92l0.39,0.01c0.48,0,0.84-0.07,1.08-0.22c0.24-0.15,0.42-0.39,0.56-0.73l0.3-0.78l-3.33-9.54h2.73
		L242.69,547.13z"/>
	<path class="st0" d="M253.32,548.1c0-0.31-0.15-0.56-0.46-0.73c-0.31-0.18-0.8-0.34-1.48-0.48c-2.26-0.47-3.39-1.44-3.39-2.88
		c0-0.84,0.35-1.55,1.05-2.11c0.7-0.57,1.62-0.85,2.75-0.85c1.21,0,2.17,0.28,2.9,0.85c0.72,0.57,1.08,1.31,1.08,2.21h-2.54
		c0-0.36-0.12-0.66-0.35-0.9s-0.6-0.36-1.1-0.36c-0.43,0-0.76,0.1-0.99,0.29s-0.35,0.44-0.35,0.74c0,0.28,0.13,0.51,0.4,0.68
		c0.27,0.17,0.72,0.32,1.35,0.45s1.17,0.27,1.6,0.43c1.34,0.49,2.01,1.34,2.01,2.56c0,0.87-0.37,1.57-1.12,2.1s-1.71,0.8-2.88,0.8
		c-0.8,0-1.5-0.14-2.12-0.43c-0.62-0.28-1.1-0.67-1.46-1.17s-0.53-1.03-0.53-1.6h2.41c0.02,0.45,0.19,0.8,0.5,1.04
		s0.73,0.36,1.25,0.36c0.49,0,0.85-0.09,1.1-0.28S253.32,548.4,253.32,548.1z"/>
	<path class="st0" d="M257.63,553.27l-0.92-0.63c0.55-0.77,0.84-1.56,0.86-2.37v-1.47h1.59v1.27c0,0.59-0.14,1.18-0.44,1.78
		C258.43,552.44,258.07,552.92,257.63,553.27z"/>
	<path class="st0" d="M39.71,567.68c0,1.45-0.33,2.61-0.99,3.5s-1.56,1.33-2.69,1.33c-1.15,0-2.06-0.37-2.72-1.1v4.58h-1.63v-13.17
		h1.49l0.08,1.05c0.66-0.82,1.58-1.23,2.76-1.23c1.14,0,2.05,0.43,2.71,1.29s1,2.06,1,3.59V567.68z M38.08,567.49
		c0-1.07-0.23-1.92-0.69-2.54s-1.08-0.93-1.88-0.93c-0.98,0-1.72,0.44-2.21,1.31v4.54c0.49,0.87,1.23,1.3,2.23,1.3
		c0.78,0,1.4-0.31,1.86-0.93S38.08,568.71,38.08,567.49z"/>
	<path class="st0" d="M43.54,572.33h-1.63v-13.5h1.63V572.33z"/>
	<path class="st0" d="M52.01,572.33c-0.09-0.19-0.17-0.52-0.23-1c-0.76,0.79-1.66,1.18-2.71,1.18c-0.94,0-1.71-0.26-2.31-0.79
		c-0.6-0.53-0.9-1.2-0.9-2.02c0-0.99,0.38-1.76,1.13-2.31c0.75-0.55,1.81-0.82,3.18-0.82h1.58v-0.75c0-0.57-0.17-1.02-0.51-1.36
		s-0.84-0.51-1.5-0.51c-0.58,0-1.07,0.15-1.46,0.44s-0.59,0.65-0.59,1.06h-1.63c0-0.47,0.17-0.93,0.5-1.38s0.79-0.79,1.37-1.05
		s1.21-0.39,1.9-0.39c1.1,0,1.95,0.27,2.58,0.82s0.94,1.3,0.97,2.26v4.38c0,0.87,0.11,1.57,0.33,2.08v0.14H52.01z M49.31,571.09
		c0.51,0,0.99-0.13,1.45-0.4s0.79-0.61,0.99-1.03v-1.95h-1.27c-1.99,0-2.99,0.58-2.99,1.75c0,0.51,0.17,0.91,0.51,1.2
		S48.78,571.09,49.31,571.09z"/>
	<path class="st0" d="M57.47,562.82l0.05,1.2c0.73-0.91,1.68-1.37,2.85-1.37c2.01,0,3.02,1.13,3.04,3.4v6.28h-1.63v-6.29
		c-0.01-0.69-0.16-1.19-0.47-1.52c-0.31-0.33-0.79-0.49-1.44-0.49c-0.53,0-0.99,0.14-1.39,0.42s-0.71,0.65-0.93,1.11v6.78h-1.63
		v-9.51H57.47z"/>
	<path class="st0" d="M71.4,569.8c0-0.44-0.17-0.78-0.5-1.02c-0.33-0.24-0.91-0.45-1.73-0.63s-1.48-0.39-1.96-0.63
		c-0.48-0.25-0.84-0.54-1.07-0.88c-0.23-0.34-0.35-0.74-0.35-1.21c0-0.78,0.33-1.44,0.99-1.98c0.66-0.54,1.5-0.81,2.53-0.81
		c1.08,0,1.95,0.28,2.62,0.83s1.01,1.27,1.01,2.14H71.3c0-0.45-0.19-0.83-0.57-1.15c-0.38-0.32-0.85-0.48-1.43-0.48
		c-0.59,0-1.05,0.13-1.39,0.39s-0.5,0.59-0.5,1.01c0,0.39,0.16,0.69,0.47,0.89s0.87,0.39,1.68,0.57c0.81,0.18,1.47,0.4,1.97,0.65
		s0.88,0.56,1.12,0.91c0.24,0.35,0.36,0.79,0.36,1.3c0,0.85-0.34,1.53-1.02,2.04s-1.56,0.77-2.65,0.77c-0.76,0-1.44-0.13-2.02-0.4
		s-1.04-0.65-1.38-1.13c-0.33-0.48-0.5-1.01-0.5-1.57h1.63c0.03,0.54,0.25,0.98,0.65,1.3s0.95,0.48,1.61,0.48
		c0.62,0,1.11-0.12,1.48-0.37S71.4,570.22,71.4,569.8z"/>
	<path class="st0" d="M85.14,569.8c0-0.44-0.17-0.78-0.5-1.02c-0.33-0.24-0.91-0.45-1.73-0.63s-1.48-0.39-1.96-0.63
		c-0.48-0.25-0.84-0.54-1.07-0.88c-0.23-0.34-0.35-0.74-0.35-1.21c0-0.78,0.33-1.44,0.99-1.98c0.66-0.54,1.5-0.81,2.53-0.81
		c1.08,0,1.95,0.28,2.62,0.83s1.01,1.27,1.01,2.14h-1.63c0-0.45-0.19-0.83-0.57-1.15c-0.38-0.32-0.85-0.48-1.43-0.48
		c-0.59,0-1.05,0.13-1.39,0.39s-0.5,0.59-0.5,1.01c0,0.39,0.16,0.69,0.47,0.89s0.87,0.39,1.68,0.57c0.81,0.18,1.47,0.4,1.97,0.65
		s0.88,0.56,1.12,0.91c0.24,0.35,0.36,0.79,0.36,1.3c0,0.85-0.34,1.53-1.02,2.04s-1.56,0.77-2.65,0.77c-0.76,0-1.44-0.13-2.02-0.4
		s-1.04-0.65-1.38-1.13c-0.33-0.48-0.5-1.01-0.5-1.57h1.63c0.03,0.54,0.25,0.98,0.65,1.3s0.95,0.48,1.61,0.48
		c0.62,0,1.11-0.12,1.48-0.37S85.14,570.22,85.14,569.8z"/>
	<path class="st0" d="M91.09,560.51v2.3h1.78v1.26h-1.78v5.91c0,0.38,0.08,0.67,0.24,0.86c0.16,0.19,0.43,0.29,0.81,0.29
		c0.19,0,0.45-0.04,0.77-0.11v1.31c-0.43,0.12-0.84,0.17-1.25,0.17c-0.73,0-1.27-0.22-1.64-0.66s-0.55-1.06-0.55-1.87v-5.9h-1.73
		v-1.26h1.73v-2.3H91.09z"/>
	<path class="st0" d="M100.63,572.33c-0.09-0.19-0.17-0.52-0.23-1c-0.76,0.79-1.66,1.18-2.71,1.18c-0.94,0-1.71-0.26-2.31-0.79
		c-0.6-0.53-0.9-1.2-0.9-2.02c0-0.99,0.38-1.76,1.13-2.31c0.75-0.55,1.81-0.82,3.18-0.82h1.58v-0.75c0-0.57-0.17-1.02-0.51-1.36
		s-0.84-0.51-1.5-0.51c-0.58,0-1.07,0.15-1.46,0.44s-0.59,0.65-0.59,1.06h-1.63c0-0.47,0.17-0.93,0.5-1.38s0.79-0.79,1.37-1.05
		s1.21-0.39,1.9-0.39c1.1,0,1.95,0.27,2.58,0.82s0.94,1.3,0.97,2.26v4.38c0,0.87,0.11,1.57,0.33,2.08v0.14H100.63z M97.93,571.09
		c0.51,0,0.99-0.13,1.45-0.4s0.79-0.61,0.99-1.03v-1.95H99.1c-1.99,0-2.99,0.58-2.99,1.75c0,0.51,0.17,0.91,0.51,1.2
		S97.4,571.09,97.93,571.09z"/>
	<path class="st0" d="M109.15,564.27c-0.25-0.04-0.51-0.06-0.8-0.06c-1.07,0-1.79,0.45-2.17,1.36v6.75h-1.63v-9.51h1.58l0.03,1.1
		c0.53-0.85,1.29-1.27,2.27-1.27c0.32,0,0.56,0.04,0.72,0.12V564.27z"/>
	<path class="st0" d="M113.29,560.51v2.3h1.78v1.26h-1.78v5.91c0,0.38,0.08,0.67,0.24,0.86c0.16,0.19,0.43,0.29,0.81,0.29
		c0.19,0,0.45-0.04,0.77-0.11v1.31c-0.43,0.12-0.84,0.17-1.25,0.17c-0.73,0-1.27-0.22-1.64-0.66s-0.55-1.06-0.55-1.87v-5.9h-1.73
		v-1.26h1.73v-2.3H113.29z"/>
	<path class="st0" d="M116.97,560.29c0-0.26,0.08-0.49,0.24-0.67s0.4-0.27,0.72-0.27s0.56,0.09,0.72,0.27s0.25,0.4,0.25,0.67
		s-0.08,0.48-0.25,0.66s-0.4,0.26-0.72,0.26s-0.56-0.09-0.72-0.26S116.97,560.56,116.97,560.29z M118.73,572.33h-1.63v-9.51h1.63
		V572.33z"/>
	<path class="st0" d="M122.87,562.82l0.05,1.2c0.73-0.91,1.68-1.37,2.85-1.37c2.01,0,3.02,1.13,3.04,3.4v6.28h-1.63v-6.29
		c-0.01-0.69-0.16-1.19-0.47-1.52c-0.31-0.33-0.79-0.49-1.44-0.49c-0.53,0-0.99,0.14-1.39,0.42s-0.71,0.65-0.93,1.11v6.78h-1.63
		v-9.51H122.87z"/>
	<path class="st0" d="M130.88,567.49c0-1.48,0.34-2.66,1.03-3.54s1.59-1.31,2.72-1.31c1.16,0,2.07,0.41,2.72,1.23l0.08-1.05h1.49
		v9.28c0,1.23-0.37,2.2-1.09,2.91c-0.73,0.71-1.71,1.06-2.94,1.06c-0.69,0-1.36-0.15-2.01-0.44s-1.16-0.69-1.5-1.2l0.84-0.98
		c0.7,0.86,1.55,1.29,2.56,1.29c0.79,0,1.41-0.22,1.85-0.67s0.66-1.07,0.66-1.88v-0.82c-0.65,0.75-1.54,1.12-2.66,1.12
		c-1.11,0-2.01-0.45-2.7-1.34C131.22,570.26,130.88,569.04,130.88,567.49z M132.51,567.68c0,1.07,0.22,1.92,0.66,2.53
		s1.05,0.92,1.85,0.92c1.03,0,1.78-0.47,2.26-1.4v-4.34c-0.5-0.91-1.25-1.36-2.24-1.36c-0.79,0-1.41,0.31-1.85,0.92
		S132.51,566.47,132.51,567.68z"/>
	<path class="st0" d="M151.69,572.33c-0.09-0.19-0.17-0.52-0.23-1c-0.76,0.79-1.66,1.18-2.71,1.18c-0.94,0-1.71-0.26-2.31-0.79
		c-0.6-0.53-0.9-1.2-0.9-2.02c0-0.99,0.38-1.76,1.13-2.31c0.75-0.55,1.81-0.82,3.18-0.82h1.58v-0.75c0-0.57-0.17-1.02-0.51-1.36
		c-0.34-0.34-0.84-0.51-1.5-0.51c-0.58,0-1.07,0.15-1.46,0.44s-0.59,0.65-0.59,1.06h-1.63c0-0.47,0.17-0.93,0.5-1.38
		s0.79-0.79,1.37-1.05s1.21-0.39,1.9-0.39c1.1,0,1.95,0.27,2.57,0.82s0.94,1.3,0.97,2.26v4.38c0,0.87,0.11,1.57,0.33,2.08v0.14
		H151.69z M148.99,571.09c0.51,0,0.99-0.13,1.45-0.4s0.79-0.61,0.99-1.03v-1.95h-1.27c-1.99,0-2.99,0.58-2.99,1.75
		c0,0.51,0.17,0.91,0.51,1.2S148.46,571.09,148.99,571.09z"/>
	<path class="st0" d="M157.81,560.51v2.3h1.78v1.26h-1.78v5.91c0,0.38,0.08,0.67,0.24,0.86c0.16,0.19,0.43,0.29,0.81,0.29
		c0.19,0,0.45-0.04,0.77-0.11v1.31c-0.43,0.12-0.84,0.17-1.25,0.17c-0.73,0-1.27-0.22-1.64-0.66s-0.55-1.06-0.55-1.87v-5.9h-1.73
		v-1.26h1.73v-2.3H157.81z"/>
	<path class="st0" d="M171.66,568.96c0-0.48-0.13-0.86-0.4-1.15s-0.72-0.55-1.36-0.79s-1.19-0.48-1.65-0.72s-0.86-0.51-1.19-0.82
		s-0.59-0.67-0.77-1.09c-0.18-0.42-0.28-0.91-0.28-1.49c0-0.99,0.32-1.8,0.95-2.43s1.47-1,2.52-1.11v-1.88h1.41v1.91
		c1.04,0.15,1.85,0.58,2.43,1.3s0.88,1.65,0.88,2.79h-2.54c0-0.7-0.14-1.23-0.44-1.58c-0.29-0.35-0.68-0.52-1.16-0.52
		c-0.48,0-0.85,0.14-1.12,0.41s-0.4,0.65-0.4,1.13c0,0.45,0.13,0.8,0.39,1.07s0.74,0.54,1.44,0.83c0.7,0.28,1.28,0.55,1.73,0.8
		s0.83,0.53,1.14,0.84s0.55,0.67,0.71,1.07s0.25,0.87,0.25,1.4c0,1-0.31,1.8-0.93,2.43s-1.48,0.99-2.57,1.1v1.75h-1.4v-1.74
		c-1.2-0.13-2.13-0.55-2.79-1.28c-0.66-0.72-0.99-1.69-0.99-2.89h2.54c0,0.7,0.17,1.23,0.5,1.6c0.33,0.37,0.81,0.56,1.43,0.56
		c0.52,0,0.92-0.14,1.22-0.41S171.66,569.42,171.66,568.96z"/>
	<path class="st0" d="M181.85,567.21c-0.66,0.65-1.44,0.98-2.32,0.98c-1.13,0-2.04-0.39-2.72-1.16s-1.02-1.82-1.02-3.14
		c0-0.84,0.18-1.61,0.55-2.31s0.88-1.25,1.53-1.63s1.39-0.58,2.21-0.58c0.84,0,1.59,0.21,2.25,0.63s1.17,1.03,1.53,1.82
		s0.55,1.7,0.55,2.72v0.94c0,2.13-0.53,3.81-1.59,5.03s-2.56,1.87-4.51,1.95l-0.62,0.01v-2.12l0.56-0.01
		C180.47,570.22,181.67,569.18,181.85,567.21z M180.16,566.24c0.41,0,0.76-0.11,1.06-0.32s0.52-0.47,0.67-0.76v-1.05
		c0-0.86-0.16-1.53-0.49-2s-0.77-0.71-1.32-0.71c-0.51,0-0.93,0.23-1.26,0.7s-0.49,1.05-0.49,1.75c0,0.7,0.16,1.27,0.48,1.72
		S179.58,566.24,180.16,566.24z"/>
	<path class="st0" d="M186.47,571.08c0-0.4,0.14-0.73,0.41-0.98c0.27-0.25,0.61-0.38,1.02-0.38c0.42,0,0.76,0.13,1.03,0.38
		c0.27,0.25,0.41,0.58,0.41,0.98c0,0.4-0.13,0.72-0.4,0.97s-0.62,0.37-1.04,0.37c-0.42,0-0.76-0.12-1.03-0.37
		S186.47,571.48,186.47,571.08z"/>
	<path class="st0" d="M197.41,567.21c-0.66,0.65-1.44,0.98-2.32,0.98c-1.13,0-2.04-0.39-2.72-1.16s-1.02-1.82-1.02-3.14
		c0-0.84,0.18-1.61,0.55-2.31s0.88-1.25,1.53-1.63s1.39-0.58,2.21-0.58c0.84,0,1.59,0.21,2.25,0.63s1.17,1.03,1.53,1.82
		s0.55,1.7,0.55,2.72v0.94c0,2.13-0.53,3.81-1.59,5.03s-2.56,1.87-4.51,1.95l-0.62,0.01v-2.12l0.56-0.01
		C196.03,570.22,197.23,569.18,197.41,567.21z M195.71,566.24c0.41,0,0.76-0.11,1.06-0.32s0.52-0.47,0.67-0.76v-1.05
		c0-0.86-0.16-1.53-0.49-2s-0.77-0.71-1.32-0.71c-0.51,0-0.93,0.23-1.26,0.7s-0.49,1.05-0.49,1.75c0,0.7,0.16,1.27,0.48,1.72
		S195.13,566.24,195.71,566.24z"/>
	<path class="st0" d="M207.74,567.21c-0.66,0.65-1.44,0.98-2.32,0.98c-1.13,0-2.04-0.39-2.72-1.16s-1.02-1.82-1.02-3.14
		c0-0.84,0.18-1.61,0.55-2.31s0.88-1.25,1.53-1.63s1.39-0.58,2.21-0.58c0.84,0,1.59,0.21,2.25,0.63s1.17,1.03,1.53,1.82
		s0.55,1.7,0.55,2.72v0.94c0,2.13-0.53,3.81-1.59,5.03s-2.56,1.87-4.51,1.95l-0.62,0.01v-2.12l0.56-0.01
		C206.36,570.22,207.55,569.18,207.74,567.21z M206.04,566.24c0.41,0,0.76-0.11,1.06-0.32s0.52-0.47,0.67-0.76v-1.05
		c0-0.86-0.16-1.53-0.49-2s-0.77-0.71-1.32-0.71c-0.51,0-0.93,0.23-1.26,0.7s-0.49,1.05-0.49,1.75c0,0.7,0.16,1.27,0.48,1.72
		S205.46,566.24,206.04,566.24z"/>
	<path class="st0" d="M213.03,573.42h-1.89l4.71-13.9h1.89L213.03,573.42z"/>
	<path class="st0" d="M221.33,562.82l0.08,1.06c0.67-0.83,1.58-1.24,2.73-1.24c1.22,0,2.07,0.48,2.52,1.45
		c0.67-0.97,1.62-1.45,2.86-1.45c1.03,0,1.8,0.3,2.3,0.9s0.76,1.5,0.76,2.71v6.07h-2.55v-6.06c0-0.54-0.11-0.93-0.32-1.18
		s-0.58-0.37-1.12-0.37c-0.76,0-1.29,0.36-1.58,1.09l0.01,6.53h-2.54v-6.06c0-0.55-0.11-0.95-0.33-1.2s-0.59-0.37-1.11-0.37
		c-0.72,0-1.24,0.3-1.56,0.9v6.72h-2.54v-9.51H221.33z"/>
	<path class="st0" d="M234.14,567.48c0-0.94,0.18-1.78,0.54-2.52s0.89-1.31,1.57-1.71s1.48-0.61,2.38-0.61
		c1.28,0,2.33,0.39,3.14,1.18s1.26,1.85,1.36,3.2l0.02,0.65c0,1.46-0.41,2.63-1.22,3.51s-1.91,1.32-3.28,1.32s-2.47-0.44-3.28-1.32
		c-0.82-0.88-1.23-2.07-1.23-3.59V567.48z M236.68,567.66c0,0.9,0.17,1.59,0.51,2.07c0.34,0.48,0.83,0.72,1.46,0.72
		c0.62,0,1.1-0.24,1.44-0.71c0.35-0.47,0.52-1.23,0.52-2.27c0-0.89-0.17-1.57-0.52-2.06c-0.35-0.49-0.83-0.73-1.46-0.73
		c-0.62,0-1.1,0.24-1.44,0.73S236.68,566.65,236.68,567.66z"/>
	<path class="st0" d="M247.05,562.82l0.08,1.1c0.68-0.85,1.59-1.27,2.73-1.27c1.01,0,1.76,0.3,2.25,0.89s0.74,1.48,0.76,2.65v6.14
		h-2.54v-6.08c0-0.54-0.12-0.93-0.35-1.17s-0.62-0.37-1.17-0.37c-0.71,0-1.25,0.3-1.61,0.91v6.71h-2.54v-9.51H247.05z"/>
	<path class="st0" d="M257.83,560.48v2.34h1.63v1.86h-1.63v4.75c0,0.35,0.07,0.6,0.2,0.76s0.39,0.23,0.77,0.23
		c0.28,0,0.53-0.02,0.75-0.06v1.92c-0.5,0.15-1.01,0.23-1.54,0.23c-1.78,0-2.69-0.9-2.72-2.7v-5.12h-1.39v-1.86h1.39v-2.34H257.83z"
		/>
	<path class="st0" d="M263.35,563.85c0.67-0.81,1.52-1.21,2.54-1.21c2.06,0,3.11,1.2,3.14,3.59v6.09h-2.54v-6.02
		c0-0.54-0.12-0.95-0.35-1.21s-0.62-0.39-1.17-0.39c-0.74,0-1.28,0.29-1.62,0.86v6.76h-2.54v-13.5h2.54V563.85z"/>
</g>
</svg>
