<?xml version="1.0" encoding="utf-8"?>
<!-- Generator: Adobe Illustrator 24.2.3, SVG Export Plug-In . SVG Version: 6.00 Build 0)  -->
<svg version="1.1" id="Layer_1" xmlns="http://www.w3.org/2000/svg" xmlns:xlink="http://www.w3.org/1999/xlink" x="0px" y="0px"
	 viewBox="0 0 300 600" style="enable-background:new 0 0 300 600;" xml:space="preserve">
<style type="text/css">
	.st0{fill:#FFFFFF;}
</style>
<g>
	<path class="st0" d="M43.83,543.14l-2.65-0.79l0.4-1.33l2.65,0.98l-0.08-3.02h1.34l-0.09,3.06l2.61-0.97l0.4,1.33l-2.7,0.8
		l1.74,2.38l-1.09,0.83l-1.63-2.53l-1.58,2.47l-1.1-0.8L43.83,543.14z"/>
	<path class="st0" d="M61.14,551.78h-8.38v-1.17l4.43-4.92c0.66-0.74,1.11-1.35,1.36-1.81c0.25-0.47,0.37-0.95,0.37-1.45
		c0-0.67-0.2-1.22-0.61-1.64s-0.94-0.64-1.62-0.64c-0.81,0-1.44,0.23-1.89,0.69c-0.45,0.46-0.67,1.1-0.67,1.92h-1.63
		c0-1.18,0.38-2.13,1.14-2.86s1.77-1.09,3.05-1.09c1.19,0,2.13,0.31,2.82,0.94s1.04,1.45,1.04,2.49c0,1.26-0.8,2.76-2.41,4.5
		l-3.43,3.72h6.42V551.78z"/>
	<path class="st0" d="M70.89,546.32c0,1.9-0.33,3.32-0.98,4.25s-1.67,1.39-3.05,1.39c-1.37,0-2.38-0.45-3.03-1.36s-1-2.26-1.02-4.06
		v-2.17c0-1.88,0.33-3.28,0.98-4.19s1.67-1.37,3.06-1.37c1.38,0,2.39,0.44,3.04,1.32s0.98,2.24,1,4.08V546.32z M69.26,544.1
		c0-1.38-0.19-2.38-0.58-3.01s-1-0.95-1.84-0.95c-0.83,0-1.44,0.31-1.82,0.94s-0.58,1.59-0.59,2.89v2.6c0,1.38,0.2,2.4,0.6,3.06
		s1.01,0.99,1.82,0.99c0.8,0,1.4-0.31,1.79-0.93c0.39-0.62,0.59-1.6,0.61-2.94V544.1z"/>
	<path class="st0" d="M81.36,551.78h-8.38v-1.17l4.43-4.92c0.66-0.74,1.11-1.35,1.36-1.81c0.25-0.47,0.37-0.95,0.37-1.45
		c0-0.67-0.2-1.22-0.61-1.64s-0.94-0.64-1.62-0.64c-0.81,0-1.44,0.23-1.89,0.69c-0.45,0.46-0.67,1.1-0.67,1.92h-1.63
		c0-1.18,0.38-2.13,1.14-2.86s1.77-1.09,3.05-1.09c1.19,0,2.13,0.31,2.82,0.94s1.04,1.45,1.04,2.49c0,1.26-0.8,2.76-2.41,4.5
		l-3.43,3.72h6.42V551.78z"/>
	<path class="st0" d="M91.1,546.32c0,1.9-0.33,3.32-0.98,4.25s-1.67,1.39-3.05,1.39c-1.37,0-2.38-0.45-3.03-1.36s-1-2.26-1.02-4.06
		v-2.17c0-1.88,0.33-3.28,0.98-4.19s1.67-1.37,3.06-1.37c1.38,0,2.39,0.44,3.04,1.32s0.98,2.24,1,4.08V546.32z M89.48,544.1
		c0-1.38-0.19-2.38-0.58-3.01s-1-0.95-1.84-0.95c-0.83,0-1.44,0.31-1.82,0.94s-0.58,1.59-0.59,2.89v2.6c0,1.38,0.2,2.4,0.6,3.06
		s1.01,0.99,1.82,0.99c0.8,0,1.4-0.31,1.79-0.93c0.39-0.62,0.59-1.6,0.61-2.94V544.1z"/>
	<path class="st0" d="M99.88,551.78h-1.69v-12.8h1.69V551.78z"/>
	<path class="st0" d="M102.31,546.95c0-1.46,0.35-2.63,1.04-3.52s1.6-1.33,2.72-1.33c1.11,0,2,0.38,2.65,1.14v-4.96h1.63v13.5h-1.49
		l-0.08-1.02c-0.65,0.8-1.56,1.2-2.72,1.2c-1.1,0-2-0.45-2.69-1.35c-0.7-0.9-1.04-2.08-1.04-3.53V546.95z M103.94,547.13
		c0,1.08,0.22,1.92,0.67,2.53s1.06,0.91,1.85,0.91c1.03,0,1.78-0.46,2.26-1.39v-4.37c-0.49-0.9-1.23-1.34-2.24-1.34
		c-0.8,0-1.42,0.31-1.86,0.92S103.94,545.92,103.94,547.13z"/>
	<path class="st0" d="M116.8,551.96c-1.29,0-2.34-0.42-3.15-1.27s-1.21-1.98-1.21-3.4v-0.3c0-0.94,0.18-1.79,0.54-2.53
		c0.36-0.74,0.86-1.32,1.51-1.74s1.35-0.63,2.11-0.63c1.24,0,2.2,0.41,2.88,1.22s1.03,1.98,1.03,3.5v0.68h-6.44
		c0.02,0.94,0.3,1.7,0.82,2.27c0.52,0.58,1.19,0.87,2,0.87c0.57,0,1.06-0.12,1.46-0.35s0.75-0.54,1.05-0.93l0.99,0.77
		C119.59,551.34,118.4,551.96,116.8,551.96z M116.6,543.43c-0.66,0-1.21,0.24-1.65,0.72s-0.72,1.15-0.83,2.01h4.76v-0.12
		c-0.05-0.83-0.27-1.47-0.67-1.92S117.28,543.43,116.6,543.43z"/>
	<path class="st0" d="M123.93,542.27l0.05,1.2c0.73-0.91,1.68-1.37,2.85-1.37c2.01,0,3.02,1.13,3.04,3.4v6.28h-1.63v-6.29
		c-0.01-0.69-0.16-1.19-0.47-1.52c-0.31-0.33-0.79-0.49-1.44-0.49c-0.53,0-0.99,0.14-1.39,0.42s-0.71,0.65-0.93,1.11v6.78h-1.63
		v-9.51H123.93z"/>
	<path class="st0" d="M134.53,539.97v2.3h1.78v1.26h-1.78v5.91c0,0.38,0.08,0.67,0.24,0.86c0.16,0.19,0.43,0.29,0.81,0.29
		c0.19,0,0.45-0.04,0.77-0.11v1.31c-0.43,0.12-0.84,0.17-1.25,0.17c-0.73,0-1.27-0.22-1.64-0.66s-0.55-1.06-0.55-1.87v-5.9h-1.73
		v-1.26h1.73v-2.3H134.53z"/>
	<path class="st0" d="M138.21,539.75c0-0.26,0.08-0.49,0.24-0.67s0.4-0.27,0.72-0.27s0.56,0.09,0.72,0.27s0.25,0.4,0.25,0.67
		s-0.08,0.48-0.25,0.66s-0.4,0.26-0.72,0.26s-0.56-0.09-0.72-0.26S138.21,540.01,138.21,539.75z M139.97,551.78h-1.63v-9.51h1.63
		V551.78z"/>
	<path class="st0" d="M144.78,539.97v2.3h1.78v1.26h-1.78v5.91c0,0.38,0.08,0.67,0.24,0.86c0.16,0.19,0.43,0.29,0.81,0.29
		c0.19,0,0.45-0.04,0.77-0.11v1.31c-0.43,0.12-0.84,0.17-1.25,0.17c-0.73,0-1.27-0.22-1.64-0.66s-0.55-1.06-0.55-1.87v-5.9h-1.73
		v-1.26h1.73v-2.3H144.78z"/>
	<path class="st0" d="M151.56,549.4l2.21-7.13h1.74l-3.82,10.98c-0.59,1.58-1.53,2.37-2.82,2.37l-0.31-0.03l-0.61-0.11v-1.32
		l0.44,0.04c0.55,0,0.98-0.11,1.29-0.33c0.31-0.22,0.56-0.63,0.76-1.22l0.36-0.97l-3.39-9.4h1.78L151.56,549.4z"/>
	<path class="st0" d="M168.74,546.13h-5.37v5.65h-1.69v-12.8h7.93v1.38h-6.24v4.39h5.37V546.13z"/>
	<path class="st0" d="M175.74,543.73c-0.25-0.04-0.51-0.06-0.8-0.06c-1.07,0-1.79,0.45-2.17,1.36v6.75h-1.63v-9.51h1.58l0.03,1.1
		c0.53-0.85,1.29-1.27,2.27-1.27c0.32,0,0.56,0.04,0.72,0.12V543.73z"/>
	<path class="st0" d="M182.76,551.78c-0.09-0.19-0.17-0.52-0.23-1c-0.76,0.79-1.66,1.18-2.71,1.18c-0.94,0-1.71-0.26-2.31-0.79
		c-0.6-0.53-0.9-1.2-0.9-2.02c0-0.99,0.38-1.76,1.13-2.31c0.75-0.55,1.81-0.82,3.18-0.82h1.58v-0.75c0-0.57-0.17-1.02-0.51-1.36
		s-0.84-0.51-1.5-0.51c-0.58,0-1.07,0.15-1.46,0.44s-0.59,0.65-0.59,1.06h-1.63c0-0.47,0.17-0.93,0.5-1.38s0.79-0.79,1.37-1.05
		s1.21-0.39,1.9-0.39c1.1,0,1.95,0.27,2.58,0.82s0.94,1.3,0.97,2.26v4.38c0,0.87,0.11,1.57,0.33,2.08v0.14H182.76z M180.06,550.54
		c0.51,0,0.99-0.13,1.45-0.4s0.79-0.61,0.99-1.03v-1.95h-1.27c-1.99,0-2.99,0.58-2.99,1.75c0,0.51,0.17,0.91,0.51,1.2
		S179.52,550.54,180.06,550.54z"/>
	<path class="st0" d="M192.55,550.84c-0.63,0.74-1.56,1.12-2.79,1.12c-1.01,0-1.79-0.29-2.32-0.88c-0.53-0.59-0.8-1.46-0.8-2.62
		v-6.19h1.63v6.14c0,1.44,0.59,2.16,1.76,2.16c1.24,0,2.07-0.46,2.48-1.39v-6.92h1.63v9.51h-1.55L192.55,550.84z"/>
	<path class="st0" d="M196.2,546.95c0-1.46,0.35-2.63,1.04-3.52s1.6-1.33,2.72-1.33c1.11,0,2,0.38,2.65,1.14v-4.96h1.63v13.5h-1.49
		l-0.08-1.02c-0.65,0.8-1.56,1.2-2.72,1.2c-1.1,0-2-0.45-2.69-1.35c-0.7-0.9-1.04-2.08-1.04-3.53V546.95z M197.83,547.13
		c0,1.08,0.22,1.92,0.67,2.53s1.06,0.91,1.85,0.91c1.03,0,1.78-0.46,2.26-1.39v-4.37c-0.49-0.9-1.23-1.34-2.24-1.34
		c-0.8,0-1.42,0.31-1.86,0.92S197.83,545.92,197.83,547.13z"/>
	<path class="st0" d="M215.23,546.08c-1.45-0.42-2.5-0.93-3.16-1.53c-0.66-0.61-0.99-1.36-0.99-2.25c0-1.01,0.4-1.84,1.21-2.5
		c0.8-0.66,1.85-0.99,3.14-0.99c0.88,0,1.66,0.17,2.35,0.51s1.22,0.81,1.6,1.41c0.38,0.6,0.57,1.25,0.57,1.96h-1.7
		c0-0.78-0.25-1.39-0.74-1.83c-0.49-0.44-1.19-0.67-2.08-0.67c-0.83,0-1.48,0.18-1.95,0.55c-0.47,0.37-0.7,0.88-0.7,1.53
		c0,0.52,0.22,0.96,0.66,1.33c0.44,0.36,1.2,0.69,2.26,0.99c1.06,0.3,1.9,0.63,2.5,0.99s1.05,0.78,1.34,1.26
		c0.29,0.48,0.44,1.05,0.44,1.7c0,1.04-0.4,1.87-1.21,2.49s-1.89,0.94-3.24,0.94c-0.88,0-1.7-0.17-2.46-0.5s-1.35-0.8-1.76-1.38
		c-0.41-0.59-0.62-1.25-0.62-2h1.7c0,0.77,0.29,1.38,0.86,1.83c0.57,0.45,1.33,0.67,2.29,0.67c0.89,0,1.57-0.18,2.05-0.54
		s0.71-0.86,0.71-1.49s-0.22-1.11-0.66-1.45S216.39,546.41,215.23,546.08z"/>
	<path class="st0" d="M224.09,539.97v2.3h1.78v1.26h-1.78v5.91c0,0.38,0.08,0.67,0.24,0.86c0.16,0.19,0.43,0.29,0.81,0.29
		c0.19,0,0.45-0.04,0.77-0.11v1.31c-0.43,0.12-0.84,0.17-1.25,0.17c-0.73,0-1.27-0.22-1.64-0.66s-0.55-1.06-0.55-1.87v-5.9h-1.73
		v-1.26h1.73v-2.3H224.09z"/>
	<path class="st0" d="M233.64,550.84c-0.63,0.74-1.56,1.12-2.79,1.12c-1.01,0-1.79-0.29-2.32-0.88c-0.53-0.59-0.8-1.46-0.8-2.62
		v-6.19h1.63v6.14c0,1.44,0.59,2.16,1.76,2.16c1.24,0,2.07-0.46,2.48-1.39v-6.92h1.63v9.51h-1.55L233.64,550.84z"/>
	<path class="st0" d="M237.29,546.95c0-1.46,0.35-2.63,1.04-3.52s1.6-1.33,2.72-1.33c1.11,0,2,0.38,2.65,1.14v-4.96h1.63v13.5h-1.49
		l-0.08-1.02c-0.65,0.8-1.56,1.2-2.72,1.2c-1.1,0-2-0.45-2.69-1.35c-0.7-0.9-1.04-2.08-1.04-3.53V546.95z M238.92,547.13
		c0,1.08,0.22,1.92,0.67,2.53s1.06,0.91,1.85,0.91c1.03,0,1.78-0.46,2.26-1.39v-4.37c-0.49-0.9-1.23-1.34-2.24-1.34
		c-0.8,0-1.42,0.31-1.86,0.92S238.92,545.92,238.92,547.13z"/>
	<path class="st0" d="M250.95,549.4l2.21-7.13h1.74l-3.82,10.98c-0.59,1.58-1.53,2.37-2.82,2.37l-0.31-0.03l-0.61-0.11v-1.32
		l0.44,0.04c0.55,0,0.98-0.11,1.29-0.33c0.31-0.22,0.56-0.63,0.76-1.22l0.36-0.97l-3.39-9.4h1.78L250.95,549.4z"/>
	<path class="st0" d="M256.3,554.33l-0.92-0.63c0.55-0.77,0.84-1.56,0.86-2.37v-1.47h1.59v1.27c0,0.59-0.14,1.18-0.44,1.78
		C257.11,553.5,256.74,553.97,256.3,554.33z"/>
	<path class="st0" d="M45.8,560.58h1.7v9.06c0,1.22-0.37,2.18-1.1,2.87s-1.71,1.04-2.94,1.04c-1.27,0-2.26-0.33-2.97-0.98
		s-1.06-1.56-1.06-2.73h1.69c0,0.73,0.2,1.3,0.6,1.71c0.4,0.41,0.98,0.62,1.74,0.62c0.7,0,1.26-0.22,1.69-0.66
		c0.43-0.44,0.65-1.05,0.66-1.85V560.58z"/>
	<path class="st0" d="M55.99,573.38c-0.09-0.19-0.17-0.52-0.23-1c-0.76,0.79-1.66,1.18-2.71,1.18c-0.94,0-1.71-0.27-2.31-0.8
		c-0.6-0.53-0.9-1.2-0.9-2.02c0-0.99,0.38-1.76,1.13-2.31c0.75-0.55,1.81-0.82,3.18-0.82h1.58v-0.75c0-0.57-0.17-1.02-0.51-1.36
		s-0.84-0.5-1.5-0.5c-0.58,0-1.07,0.15-1.46,0.44s-0.59,0.65-0.59,1.06h-1.63c0-0.47,0.17-0.93,0.5-1.38s0.79-0.79,1.37-1.05
		s1.21-0.39,1.9-0.39c1.1,0,1.95,0.27,2.58,0.82s0.94,1.3,0.97,2.26v4.38c0,0.87,0.11,1.57,0.33,2.08v0.14H55.99z M53.29,572.14
		c0.51,0,0.99-0.13,1.45-0.4s0.79-0.61,0.99-1.03v-1.95h-1.27c-1.99,0-2.99,0.58-2.99,1.75c0,0.51,0.17,0.91,0.51,1.2
		S52.76,572.14,53.29,572.14z"/>
	<path class="st0" d="M62.91,571.17l2.36-7.3h1.66l-3.41,9.51h-1.24l-3.45-9.51h1.66L62.91,571.17z"/>
	<path class="st0" d="M72.44,573.56c-1.29,0-2.34-0.42-3.15-1.27s-1.21-1.98-1.21-3.4v-0.3c0-0.94,0.18-1.79,0.54-2.53
		c0.36-0.74,0.86-1.32,1.51-1.74s1.35-0.63,2.11-0.63c1.24,0,2.2,0.41,2.88,1.22s1.03,1.98,1.03,3.5v0.68h-6.44
		c0.02,0.94,0.3,1.69,0.82,2.27c0.52,0.58,1.19,0.87,2,0.87c0.57,0,1.06-0.12,1.46-0.35s0.75-0.54,1.05-0.93l0.99,0.77
		C75.23,572.94,74.03,573.56,72.44,573.56z M72.24,565.03c-0.66,0-1.21,0.24-1.65,0.72s-0.72,1.15-0.83,2.01h4.76v-0.12
		c-0.05-0.83-0.27-1.47-0.67-1.92S72.92,565.03,72.24,565.03z"/>
	<path class="st0" d="M79.8,573.38h-1.63v-13.5h1.63V573.38z"/>
	<path class="st0" d="M82.41,561.35c0-0.26,0.08-0.49,0.24-0.67s0.4-0.27,0.72-0.27s0.56,0.09,0.72,0.27s0.25,0.4,0.25,0.67
		s-0.08,0.48-0.25,0.66s-0.4,0.26-0.72,0.26s-0.56-0.09-0.72-0.26S82.41,561.61,82.41,561.35z M84.17,573.38h-1.63v-9.51h1.63
		V573.38z"/>
	<path class="st0" d="M88.3,563.87l0.05,1.2c0.73-0.91,1.68-1.37,2.85-1.37c2.01,0,3.02,1.13,3.04,3.4v6.28h-1.63v-6.29
		c-0.01-0.69-0.16-1.19-0.47-1.52c-0.31-0.33-0.79-0.49-1.44-0.49c-0.53,0-0.99,0.14-1.39,0.42s-0.71,0.65-0.93,1.11v6.78h-1.63
		v-9.51H88.3z"/>
	<path class="st0" d="M105.18,567.68c-1.45-0.42-2.5-0.93-3.16-1.53c-0.66-0.61-0.99-1.35-0.99-2.25c0-1.01,0.4-1.84,1.21-2.5
		c0.8-0.66,1.85-0.99,3.14-0.99c0.88,0,1.66,0.17,2.35,0.51s1.22,0.81,1.6,1.41c0.38,0.6,0.57,1.25,0.57,1.96h-1.7
		c0-0.78-0.25-1.39-0.74-1.83c-0.49-0.44-1.19-0.67-2.08-0.67c-0.83,0-1.48,0.18-1.95,0.55c-0.47,0.37-0.7,0.88-0.7,1.53
		c0,0.52,0.22,0.96,0.66,1.33c0.44,0.36,1.2,0.69,2.26,0.99c1.06,0.3,1.9,0.63,2.5,0.99s1.05,0.78,1.34,1.26
		c0.29,0.48,0.44,1.05,0.44,1.7c0,1.04-0.4,1.87-1.21,2.49s-1.89,0.94-3.24,0.94c-0.88,0-1.7-0.17-2.46-0.51s-1.35-0.8-1.76-1.38
		c-0.41-0.59-0.62-1.25-0.62-2h1.7c0,0.77,0.29,1.38,0.86,1.83c0.57,0.45,1.33,0.67,2.29,0.67c0.89,0,1.57-0.18,2.05-0.54
		s0.71-0.86,0.71-1.49s-0.22-1.11-0.66-1.46S106.33,568.01,105.18,567.68z"/>
	<path class="st0" d="M114.04,561.57v2.3h1.78v1.26h-1.78v5.9c0,0.38,0.08,0.67,0.24,0.86s0.43,0.29,0.81,0.29
		c0.19,0,0.45-0.04,0.77-0.11v1.31c-0.43,0.12-0.84,0.17-1.25,0.17c-0.73,0-1.27-0.22-1.64-0.66s-0.55-1.06-0.55-1.87v-5.9h-1.73
		v-1.26h1.73v-2.3H114.04z"/>
	<path class="st0" d="M122.31,565.33c-0.25-0.04-0.51-0.06-0.8-0.06c-1.07,0-1.79,0.45-2.17,1.36v6.75h-1.63v-9.51h1.58l0.03,1.1
		c0.53-0.85,1.29-1.27,2.27-1.27c0.32,0,0.56,0.04,0.72,0.12V565.33z"/>
	<path class="st0" d="M129.32,573.38c-0.09-0.19-0.17-0.52-0.23-1c-0.76,0.79-1.66,1.18-2.71,1.18c-0.94,0-1.71-0.27-2.31-0.8
		c-0.6-0.53-0.9-1.2-0.9-2.02c0-0.99,0.38-1.76,1.13-2.31c0.75-0.55,1.81-0.82,3.18-0.82h1.58v-0.75c0-0.57-0.17-1.02-0.51-1.36
		s-0.84-0.5-1.5-0.5c-0.58,0-1.07,0.15-1.46,0.44s-0.59,0.65-0.59,1.06h-1.63c0-0.47,0.17-0.93,0.5-1.38s0.79-0.79,1.37-1.05
		s1.21-0.39,1.9-0.39c1.1,0,1.95,0.27,2.58,0.82s0.94,1.3,0.97,2.26v4.38c0,0.87,0.11,1.57,0.33,2.08v0.14H129.32z M126.62,572.14
		c0.51,0,0.99-0.13,1.45-0.4s0.79-0.61,0.99-1.03v-1.95h-1.27c-1.99,0-2.99,0.58-2.99,1.75c0,0.51,0.17,0.91,0.51,1.2
		S126.09,572.14,126.62,572.14z"/>
	<path class="st0" d="M135.45,561.57v2.3h1.78v1.26h-1.78v5.9c0,0.38,0.08,0.67,0.24,0.86s0.43,0.29,0.81,0.29
		c0.19,0,0.45-0.04,0.77-0.11v1.31c-0.43,0.12-0.84,0.17-1.25,0.17c-0.73,0-1.27-0.22-1.64-0.66s-0.55-1.06-0.55-1.87v-5.9h-1.73
		v-1.26h1.73v-2.3H135.45z"/>
	<path class="st0" d="M143.07,573.56c-1.29,0-2.34-0.42-3.15-1.27s-1.21-1.98-1.21-3.4v-0.3c0-0.94,0.18-1.79,0.54-2.53
		c0.36-0.74,0.86-1.32,1.51-1.74s1.35-0.63,2.11-0.63c1.24,0,2.2,0.41,2.88,1.22s1.03,1.98,1.03,3.5v0.68h-6.44
		c0.02,0.94,0.3,1.69,0.82,2.27c0.52,0.58,1.19,0.87,2,0.87c0.57,0,1.06-0.12,1.46-0.35s0.75-0.54,1.05-0.93l0.99,0.77
		C145.86,572.94,144.66,573.56,143.07,573.56z M142.87,565.03c-0.66,0-1.21,0.24-1.65,0.72s-0.72,1.15-0.83,2.01h4.76v-0.12
		c-0.05-0.83-0.27-1.47-0.67-1.92S143.55,565.03,142.87,565.03z"/>
	<path class="st0" d="M148.27,568.55c0-1.48,0.34-2.66,1.03-3.54s1.59-1.31,2.72-1.31c1.16,0,2.07,0.41,2.72,1.23l0.08-1.05h1.49
		v9.28c0,1.23-0.37,2.2-1.09,2.91c-0.73,0.71-1.71,1.06-2.94,1.06c-0.69,0-1.36-0.15-2.01-0.44s-1.16-0.69-1.5-1.2l0.84-0.98
		c0.7,0.86,1.55,1.29,2.56,1.29c0.79,0,1.41-0.22,1.85-0.67s0.66-1.07,0.66-1.88v-0.82c-0.65,0.75-1.54,1.12-2.66,1.12
		c-1.11,0-2.01-0.45-2.7-1.34C148.62,571.31,148.27,570.09,148.27,568.55z M149.91,568.73c0,1.07,0.22,1.91,0.66,2.53
		s1.05,0.92,1.85,0.92c1.03,0,1.78-0.47,2.26-1.4v-4.34c-0.5-0.91-1.25-1.36-2.24-1.36c-0.79,0-1.41,0.31-1.85,0.92
		S149.91,567.52,149.91,568.73z"/>
	<path class="st0" d="M161.87,571l2.21-7.13h1.74L162,574.85c-0.59,1.58-1.53,2.37-2.82,2.37l-0.31-0.03l-0.61-0.11v-1.32l0.44,0.04
		c0.55,0,0.98-0.11,1.29-0.33c0.31-0.22,0.56-0.63,0.76-1.22l0.36-0.97l-3.39-9.4h1.78L161.87,571z"/>
	<path class="st0" d="M171.39,569.94c0-0.62,0.17-1.18,0.51-1.7c0.34-0.52,1-1.12,1.96-1.8c-0.57-0.69-0.95-1.25-1.14-1.67
		s-0.29-0.84-0.29-1.26c0-0.97,0.29-1.73,0.86-2.29s1.35-0.83,2.34-0.83c0.88,0,1.61,0.26,2.18,0.77s0.86,1.16,0.86,1.94
		c0,0.52-0.13,0.99-0.39,1.43c-0.26,0.44-0.72,0.9-1.37,1.38l-0.94,0.69l2.85,3.4c0.4-0.76,0.6-1.61,0.6-2.54h1.47
		c0,1.49-0.36,2.73-1.08,3.72l1.83,2.19h-1.95l-0.85-1.01c-0.43,0.39-0.94,0.68-1.53,0.88s-1.18,0.3-1.78,0.3
		c-1.25,0-2.25-0.33-3.01-0.99S171.39,571.03,171.39,569.94z M175.53,572.23c0.86,0,1.65-0.33,2.36-0.98l-3.12-3.74l-0.29,0.21
		c-0.98,0.72-1.47,1.46-1.47,2.22c0,0.69,0.22,1.25,0.67,1.66C174.13,572.02,174.75,572.23,175.53,572.23z M174.06,563.47
		c0,0.56,0.35,1.27,1.04,2.11l1.04-0.73c0.4-0.28,0.67-0.55,0.82-0.8s0.22-0.56,0.22-0.93c0-0.39-0.15-0.72-0.44-0.98
		s-0.66-0.39-1.11-0.39c-0.48,0-0.86,0.16-1.14,0.49S174.06,562.97,174.06,563.47z"/>
	<path class="st0" d="M192.32,568.2h-3.01v5.18h-1.7v-12.8h4.24c1.44,0,2.55,0.33,3.33,0.98s1.17,1.61,1.17,2.87
		c0,0.8-0.22,1.49-0.65,2.08c-0.43,0.59-1.03,1.03-1.8,1.33l3.01,5.43v0.11h-1.81L192.32,568.2z M189.32,566.82h2.59
		c0.84,0,1.5-0.22,2-0.65c0.49-0.43,0.74-1.02,0.74-1.74c0-0.79-0.24-1.4-0.71-1.82c-0.47-0.42-1.15-0.64-2.04-0.64h-2.58V566.82z"
		/>
	<path class="st0" d="M202.4,573.56c-1.29,0-2.34-0.42-3.15-1.27s-1.21-1.98-1.21-3.4v-0.3c0-0.94,0.18-1.79,0.54-2.53
		c0.36-0.74,0.86-1.32,1.51-1.74s1.35-0.63,2.11-0.63c1.24,0,2.2,0.41,2.88,1.22s1.03,1.98,1.03,3.5v0.68h-6.44
		c0.02,0.94,0.3,1.69,0.82,2.27c0.52,0.58,1.19,0.87,2,0.87c0.57,0,1.06-0.12,1.46-0.35s0.75-0.54,1.05-0.93l0.99,0.77
		C205.19,572.94,204,573.56,202.4,573.56z M202.2,565.03c-0.66,0-1.21,0.24-1.65,0.72s-0.72,1.15-0.83,2.01h4.76v-0.12
		c-0.05-0.83-0.27-1.47-0.67-1.92S202.88,565.03,202.2,565.03z"/>
	<path class="st0" d="M213.53,570.86c0-0.44-0.17-0.78-0.5-1.02c-0.33-0.24-0.91-0.45-1.73-0.63s-1.48-0.39-1.96-0.63
		c-0.48-0.25-0.84-0.54-1.07-0.88c-0.23-0.34-0.35-0.74-0.35-1.21c0-0.78,0.33-1.44,0.99-1.98c0.66-0.54,1.5-0.81,2.53-0.81
		c1.08,0,1.95,0.28,2.62,0.83s1.01,1.27,1.01,2.14h-1.63c0-0.45-0.19-0.83-0.57-1.15c-0.38-0.32-0.85-0.48-1.43-0.48
		c-0.59,0-1.05,0.13-1.39,0.39s-0.5,0.59-0.5,1.01c0,0.39,0.16,0.69,0.47,0.89s0.87,0.39,1.68,0.57c0.81,0.18,1.47,0.4,1.97,0.65
		s0.88,0.55,1.12,0.91c0.24,0.35,0.36,0.79,0.36,1.3c0,0.85-0.34,1.53-1.02,2.04s-1.56,0.77-2.65,0.77c-0.76,0-1.44-0.13-2.02-0.4
		s-1.04-0.65-1.38-1.13c-0.33-0.48-0.5-1.01-0.5-1.57h1.63c0.03,0.54,0.25,0.98,0.65,1.3s0.95,0.48,1.61,0.48
		c0.62,0,1.11-0.12,1.48-0.37S213.53,571.27,213.53,570.86z"/>
	<path class="st0" d="M221.22,573.56c-1.29,0-2.34-0.42-3.15-1.27s-1.21-1.98-1.21-3.4v-0.3c0-0.94,0.18-1.79,0.54-2.53
		c0.36-0.74,0.86-1.32,1.51-1.74s1.35-0.63,2.11-0.63c1.24,0,2.2,0.41,2.88,1.22s1.03,1.98,1.03,3.5v0.68h-6.44
		c0.02,0.94,0.3,1.69,0.82,2.27c0.52,0.58,1.19,0.87,2,0.87c0.57,0,1.06-0.12,1.46-0.35s0.75-0.54,1.05-0.93l0.99,0.77
		C224.01,572.94,222.82,573.56,221.22,573.56z M221.02,565.03c-0.66,0-1.21,0.24-1.65,0.72s-0.72,1.15-0.83,2.01h4.76v-0.12
		c-0.05-0.83-0.27-1.47-0.67-1.92S221.7,565.03,221.02,565.03z"/>
	<path class="st0" d="M232.68,573.38c-0.09-0.19-0.17-0.52-0.23-1c-0.76,0.79-1.66,1.18-2.71,1.18c-0.94,0-1.71-0.27-2.31-0.8
		c-0.6-0.53-0.9-1.2-0.9-2.02c0-0.99,0.38-1.76,1.13-2.31c0.75-0.55,1.81-0.82,3.18-0.82h1.58v-0.75c0-0.57-0.17-1.02-0.51-1.36
		s-0.84-0.5-1.5-0.5c-0.58,0-1.07,0.15-1.46,0.44s-0.59,0.65-0.59,1.06h-1.63c0-0.47,0.17-0.93,0.5-1.38s0.79-0.79,1.37-1.05
		s1.21-0.39,1.9-0.39c1.1,0,1.95,0.27,2.58,0.82s0.94,1.3,0.97,2.26v4.38c0,0.87,0.11,1.57,0.33,2.08v0.14H232.68z M229.98,572.14
		c0.51,0,0.99-0.13,1.45-0.4s0.79-0.61,0.99-1.03v-1.95h-1.27c-1.99,0-2.99,0.58-2.99,1.75c0,0.51,0.17,0.91,0.51,1.2
		S229.45,572.14,229.98,572.14z"/>
	<path class="st0" d="M241.2,565.33c-0.25-0.04-0.51-0.06-0.8-0.06c-1.07,0-1.79,0.45-2.17,1.36v6.75h-1.63v-9.51h1.58l0.03,1.1
		c0.53-0.85,1.29-1.27,2.27-1.27c0.32,0,0.56,0.04,0.72,0.12V565.33z"/>
	<path class="st0" d="M246.34,572.23c0.58,0,1.09-0.18,1.52-0.53s0.67-0.79,0.72-1.32h1.54c-0.03,0.54-0.22,1.06-0.56,1.56
		s-0.81,0.88-1.38,1.18s-1.19,0.44-1.83,0.44c-1.29,0-2.32-0.43-3.09-1.3c-0.76-0.86-1.15-2.05-1.15-3.55v-0.27
		c0-0.93,0.17-1.75,0.51-2.47s0.83-1.28,1.46-1.68s1.39-0.6,2.25-0.6c1.07,0,1.95,0.32,2.66,0.96c0.71,0.64,1.08,1.47,1.13,2.49
		h-1.54c-0.05-0.62-0.28-1.12-0.7-1.52c-0.42-0.4-0.94-0.59-1.55-0.59c-0.83,0-1.47,0.3-1.92,0.89s-0.68,1.46-0.68,2.58v0.31
		c0,1.1,0.23,1.94,0.68,2.53S245.5,572.23,246.34,572.23z"/>
	<path class="st0" d="M253.57,565.02c0.72-0.88,1.66-1.33,2.81-1.33c2.01,0,3.02,1.13,3.04,3.4v6.28h-1.63v-6.29
		c-0.01-0.69-0.16-1.19-0.47-1.52c-0.31-0.33-0.79-0.49-1.44-0.49c-0.53,0-0.99,0.14-1.39,0.42s-0.71,0.65-0.93,1.11v6.78h-1.63
		v-13.5h1.63V565.02z"/>
</g>
</svg>
