<?xml version="1.0" encoding="utf-8"?>
<!-- Generator: Adobe Illustrator 26.3.1, SVG Export Plug-In . SVG Version: 6.00 Build 0)  -->
<svg version="1.1" id="Layer_1" xmlns="http://www.w3.org/2000/svg" xmlns:xlink="http://www.w3.org/1999/xlink" x="0px" y="0px"
	 viewBox="0 0 728 90" style="enable-background:new 0 0 728 90;" xml:space="preserve">
<style type="text/css">
	.st0{fill:#E82D8A;stroke:#FFFFFF;stroke-width:0.75;stroke-miterlimit:10;}
	.st1{fill:#FFFFFF;}
</style>
<path class="st0" d="M582.7,39.6H475.8c-6.4,0-11.6-5.2-11.6-11.6v0c0-6.4,5.2-11.6,11.6-11.6h106.9c6.4,0,11.6,5.2,11.6,11.6v0
	C594.4,34.4,589.2,39.6,582.7,39.6z"/>
<g>
	<path class="st1" d="M483.3,29.7c-0.1,1-0.4,1.7-1.1,2.3c-0.6,0.5-1.5,0.8-2.5,0.8c-1.1,0-2-0.4-2.7-1.2c-0.7-0.8-1-1.8-1-3.2v-0.5
		c0-0.9,0.2-1.6,0.5-2.3s0.7-1.2,1.3-1.5c0.6-0.3,1.2-0.5,1.9-0.5c1,0,1.9,0.3,2.5,0.8c0.6,0.5,1,1.3,1.1,2.3h-1.8
		c0-0.6-0.2-1-0.5-1.2c-0.3-0.3-0.7-0.4-1.3-0.4c-0.6,0-1.1,0.2-1.4,0.7c-0.3,0.4-0.5,1.1-0.5,2v0.7c0,1,0.1,1.7,0.4,2.1
		s0.7,0.7,1.4,0.7c0.6,0,1-0.1,1.3-0.4c0.3-0.3,0.4-0.7,0.5-1.2H483.3z"/>
	<path class="st1" d="M486.3,32.6h-1.8v-9.4h1.8V32.6z"/>
	<path class="st1" d="M487.7,24.3c0-0.3,0.1-0.5,0.3-0.7s0.4-0.3,0.7-0.3c0.3,0,0.5,0.1,0.7,0.3c0.2,0.2,0.3,0.4,0.3,0.7
		c0,0.3-0.1,0.5-0.3,0.7c-0.2,0.2-0.4,0.3-0.7,0.3s-0.5-0.1-0.7-0.3S487.7,24.6,487.7,24.3z M489.6,32.6h-1.8V26h1.8V32.6z"/>
	<path class="st1" d="M493.8,31.3c0.3,0,0.6-0.1,0.8-0.3c0.2-0.2,0.3-0.4,0.3-0.7h1.7c0,0.4-0.1,0.9-0.4,1.2c-0.2,0.4-0.6,0.7-1,0.9
		c-0.4,0.2-0.9,0.3-1.4,0.3c-0.9,0-1.7-0.3-2.2-0.9c-0.5-0.6-0.8-1.4-0.8-2.5v-0.1c0-1,0.3-1.8,0.8-2.4c0.5-0.6,1.3-0.9,2.2-0.9
		c0.8,0,1.5,0.2,2,0.7s0.8,1.1,0.8,1.9h-1.7c0-0.3-0.1-0.6-0.3-0.8c-0.2-0.2-0.5-0.3-0.8-0.3c-0.4,0-0.7,0.1-0.9,0.4
		c-0.2,0.3-0.3,0.8-0.3,1.5v0.2c0,0.7,0.1,1.2,0.3,1.5C493,31.2,493.4,31.3,493.8,31.3z"/>
	<path class="st1" d="M500,30l-0.6,0.6v2h-1.8v-9.4h1.8v5.2l0.3-0.4l1.7-2h2.1l-2.4,2.8l2.6,3.8h-2L500,30z"/>
	<path class="st1" d="M509.5,24.4V26h1.1v1.3h-1.1v3.3c0,0.2,0,0.4,0.1,0.5c0.1,0.1,0.3,0.2,0.5,0.2c0.2,0,0.4,0,0.5,0v1.3
		c-0.3,0.1-0.7,0.2-1.1,0.2c-1.2,0-1.9-0.6-1.9-1.9v-3.6h-1V26h1v-1.6H509.5z"/>
	<path class="st1" d="M511.1,29.3c0-0.7,0.1-1.2,0.4-1.8s0.6-0.9,1.1-1.2c0.5-0.3,1-0.4,1.7-0.4c0.9,0,1.6,0.3,2.2,0.8
		s0.9,1.3,0.9,2.2l0,0.5c0,1-0.3,1.8-0.8,2.4s-1.3,0.9-2.3,0.9c-1,0-1.7-0.3-2.3-0.9S511.1,30.4,511.1,29.3L511.1,29.3z M512.9,29.4
		c0,0.6,0.1,1.1,0.4,1.4c0.2,0.3,0.6,0.5,1,0.5c0.4,0,0.8-0.2,1-0.5c0.2-0.3,0.4-0.9,0.4-1.6c0-0.6-0.1-1.1-0.4-1.4
		c-0.2-0.3-0.6-0.5-1-0.5c-0.4,0-0.8,0.2-1,0.5C513,28.2,512.9,28.7,512.9,29.4z"/>
	<path class="st1" d="M523.4,32.6h-1.8v-9.4h1.8V32.6z"/>
	<path class="st1" d="M527.9,32.8c-1,0-1.8-0.3-2.4-0.9c-0.6-0.6-0.9-1.4-0.9-2.4v-0.2c0-0.7,0.1-1.3,0.4-1.8
		c0.3-0.5,0.6-0.9,1.1-1.2c0.5-0.3,1-0.4,1.6-0.4c0.9,0,1.6,0.3,2.1,0.9s0.8,1.4,0.8,2.4v0.7h-4.2c0.1,0.4,0.2,0.8,0.5,1
		c0.3,0.3,0.6,0.4,1.1,0.4c0.7,0,1.2-0.2,1.6-0.7l0.9,1c-0.3,0.4-0.6,0.7-1.1,0.9C529,32.6,528.5,32.8,527.9,32.8z M527.7,27.3
		c-0.3,0-0.6,0.1-0.9,0.4c-0.2,0.2-0.4,0.6-0.4,1h2.5v-0.1c0-0.4-0.1-0.7-0.3-0.9C528.4,27.4,528.1,27.3,527.7,27.3z"/>
	<path class="st1" d="M535.4,32.6c-0.1-0.2-0.1-0.4-0.2-0.6c-0.4,0.5-1,0.7-1.7,0.7c-0.6,0-1.2-0.2-1.6-0.6
		c-0.4-0.4-0.6-0.8-0.6-1.4c0-0.7,0.3-1.2,0.8-1.6c0.5-0.4,1.3-0.6,2.2-0.6h0.8v-0.4c0-0.3-0.1-0.5-0.2-0.7
		c-0.2-0.2-0.4-0.3-0.7-0.3c-0.3,0-0.5,0.1-0.7,0.2s-0.3,0.3-0.3,0.6h-1.8c0-0.4,0.1-0.7,0.4-1.1c0.2-0.3,0.6-0.6,1-0.8
		c0.4-0.2,0.9-0.3,1.5-0.3c0.8,0,1.5,0.2,1.9,0.6c0.5,0.4,0.7,1,0.7,1.7v2.9c0,0.6,0.1,1.1,0.3,1.4v0.1H535.4z M534,31.4
		c0.3,0,0.5-0.1,0.7-0.2c0.2-0.1,0.4-0.3,0.5-0.5v-1.1h-0.7c-0.9,0-1.4,0.3-1.4,0.9l0,0.1c0,0.2,0.1,0.4,0.2,0.5
		C533.5,31.3,533.7,31.4,534,31.4z"/>
	<path class="st1" d="M542,27.7c-0.2,0-0.5,0-0.6,0c-0.7,0-1.1,0.2-1.3,0.7v4.3h-1.8V26h1.7l0,0.8c0.4-0.6,0.8-0.9,1.5-0.9
		c0.2,0,0.4,0,0.5,0.1L542,27.7z"/>
	<path class="st1" d="M544.5,26l0.1,0.8c0.5-0.6,1.1-0.9,1.9-0.9c0.7,0,1.2,0.2,1.6,0.6c0.3,0.4,0.5,1,0.5,1.8v4.3h-1.8v-4.2
		c0-0.4-0.1-0.6-0.2-0.8c-0.2-0.2-0.4-0.3-0.8-0.3c-0.5,0-0.9,0.2-1.1,0.6v4.7h-1.8V26H544.5z"/>
	<path class="st1" d="M554.6,26l0.1,0.7c0.5-0.6,1.1-0.9,1.9-0.9c0.9,0,1.4,0.3,1.8,1c0.5-0.7,1.1-1,2-1c0.7,0,1.2,0.2,1.6,0.6
		s0.5,1,0.5,1.9v4.2h-1.8v-4.2c0-0.4-0.1-0.6-0.2-0.8s-0.4-0.3-0.8-0.3c-0.5,0-0.9,0.3-1.1,0.8l0,4.5h-1.8v-4.2
		c0-0.4-0.1-0.7-0.2-0.8s-0.4-0.3-0.8-0.3c-0.5,0-0.9,0.2-1.1,0.6v4.7H553V26H554.6z"/>
	<path class="st1" d="M563.5,29.3c0-0.7,0.1-1.2,0.4-1.8c0.3-0.5,0.6-0.9,1.1-1.2c0.5-0.3,1-0.4,1.7-0.4c0.9,0,1.6,0.3,2.2,0.8
		s0.9,1.3,0.9,2.2l0,0.5c0,1-0.3,1.8-0.8,2.4s-1.3,0.9-2.3,0.9c-1,0-1.7-0.3-2.3-0.9S563.5,30.4,563.5,29.3L563.5,29.3z M565.3,29.4
		c0,0.6,0.1,1.1,0.4,1.4c0.2,0.3,0.6,0.5,1,0.5c0.4,0,0.8-0.2,1-0.5c0.2-0.3,0.4-0.9,0.4-1.6c0-0.6-0.1-1.1-0.4-1.4
		c-0.2-0.3-0.6-0.5-1-0.5c-0.4,0-0.8,0.2-1,0.5C565.4,28.2,565.3,28.7,565.3,29.4z"/>
	<path class="st1" d="M574.6,27.7c-0.2,0-0.5,0-0.6,0c-0.7,0-1.1,0.2-1.3,0.7v4.3h-1.8V26h1.7l0,0.8c0.4-0.6,0.8-0.9,1.5-0.9
		c0.2,0,0.4,0,0.5,0.1L574.6,27.7z"/>
	<path class="st1" d="M578.5,32.8c-1,0-1.8-0.3-2.4-0.9c-0.6-0.6-0.9-1.4-0.9-2.4v-0.2c0-0.7,0.1-1.3,0.4-1.8
		c0.3-0.5,0.6-0.9,1.1-1.2c0.5-0.3,1-0.4,1.6-0.4c0.9,0,1.6,0.3,2.1,0.9s0.8,1.4,0.8,2.4v0.7H577c0.1,0.4,0.2,0.8,0.5,1
		c0.3,0.3,0.7,0.4,1.1,0.4c0.7,0,1.2-0.2,1.6-0.7l0.9,1c-0.3,0.4-0.6,0.7-1.1,0.9C579.5,32.6,579,32.8,578.5,32.8z M578.3,27.3
		c-0.3,0-0.6,0.1-0.9,0.4s-0.4,0.6-0.4,1h2.5v-0.1c0-0.4-0.1-0.7-0.3-0.9C578.9,27.4,578.6,27.3,578.3,27.3z"/>
</g>
</svg>
