<?xml version="1.0" encoding="utf-8"?>
<!-- Generator: Adobe Illustrator 25.2.1, SVG Export Plug-In . SVG Version: 6.00 Build 0)  -->
<svg version="1.1" id="Layer_1" xmlns="http://www.w3.org/2000/svg" xmlns:xlink="http://www.w3.org/1999/xlink" x="0px" y="0px"
	 viewBox="0 0 970 250" style="enable-background:new 0 0 970 250;" xml:space="preserve">
<style type="text/css">
	.st0{fill:#021D8B;}
</style>
<g>
	<path class="st0" d="M716.9,66.3l2.12-11.59h4.42l-3.92,18.48h-4.62l-2.48-10.54l-2.42,10.54h-4.61l-3.94-18.48h4.43L708,66.3
		l2.54-11.59h3.78L716.9,66.3z"/>
	<path class="st0" d="M731.63,73.45c-2.11,0-3.81-0.63-5.12-1.89s-1.96-2.89-1.96-4.91V66.3c0-1.4,0.26-2.65,0.78-3.72
		c0.52-1.07,1.28-1.91,2.28-2.49s2.18-0.88,3.55-0.88c1.93,0,3.45,0.6,4.57,1.8s1.68,2.87,1.68,5.01v1.66h-8.51
		c0.15,0.77,0.49,1.38,1,1.82s1.18,0.66,2.01,0.66c1.35,0,2.41-0.47,3.17-1.42l1.96,2.31c-0.53,0.74-1.29,1.32-2.27,1.76
		C733.8,73.23,732.75,73.45,731.63,73.45z M731.14,62.5c-1.25,0-2,0.83-2.23,2.49h4.32v-0.33c0.02-0.69-0.16-1.22-0.52-1.59
		S731.82,62.5,731.14,62.5z"/>
	<path class="st0" d="M741.35,55.75l-0.42,5.24h-2.63v-7.3h3.05V55.75z"/>
	<path class="st0" d="M747.48,73.19h-4.29v-19.5h4.29V73.19z"/>
	<path class="st0" d="M754.63,73.19h-4.29v-19.5h4.29V73.19z"/>
	<path class="st0" d="M767.78,59.46l0.14,1.61c0.97-1.24,2.28-1.87,3.92-1.87c1.74,0,2.91,0.69,3.52,2.07
		c0.93-1.38,2.28-2.07,4.04-2.07c2.78,0,4.21,1.68,4.29,5.05v8.94h-4.29v-8.67c0-0.7-0.12-1.21-0.36-1.54s-0.67-0.48-1.29-0.48
		c-0.85,0-1.48,0.38-1.89,1.13l0.01,0.18v9.38h-4.29v-8.65c0-0.72-0.11-1.24-0.34-1.56s-0.66-0.48-1.31-0.48
		c-0.82,0-1.45,0.38-1.88,1.13v9.56h-4.28V59.46H767.78z"/>
	<path class="st0" d="M785.59,66.2c0-1.37,0.27-2.59,0.8-3.66s1.3-1.89,2.3-2.47s2.17-0.86,3.52-0.86c2.06,0,3.68,0.64,4.86,1.91
		s1.78,3.01,1.78,5.2v0.15c0,2.14-0.59,3.84-1.78,5.1c-1.19,1.26-2.8,1.89-4.83,1.89c-1.96,0-3.53-0.59-4.71-1.76
		s-1.82-2.76-1.92-4.77L785.59,66.2z M789.87,66.46c0,1.27,0.2,2.2,0.6,2.79s0.99,0.89,1.76,0.89c1.52,0,2.3-1.17,2.34-3.52V66.2
		c0-2.46-0.79-3.69-2.36-3.69c-1.43,0-2.21,1.06-2.32,3.19L789.87,66.46z"/>
	<path class="st0" d="M804.66,59.46l0.14,1.61c0.95-1.24,2.26-1.87,3.92-1.87c1.43,0,2.5,0.43,3.21,1.28
		c0.71,0.85,1.07,2.14,1.1,3.86v8.85h-4.29v-8.67c0-0.69-0.14-1.2-0.42-1.53s-0.79-0.49-1.52-0.49c-0.84,0-1.46,0.33-1.87,0.99v9.7
		h-4.28V59.46H804.66z"/>
	<path class="st0" d="M815.37,55.91c0-0.61,0.22-1.11,0.66-1.5s1.01-0.58,1.71-0.58s1.27,0.19,1.71,0.58s0.66,0.89,0.66,1.5
		s-0.22,1.11-0.66,1.5S818.44,58,817.74,58s-1.27-0.19-1.71-0.58S815.37,56.52,815.37,55.91z M819.91,73.19h-4.29V59.46h4.29V73.19z
		"/>
	<path class="st0" d="M827.53,56.04v3.42h2.26v2.97h-2.26v6.28c0,0.52,0.09,0.88,0.28,1.08s0.55,0.3,1.1,0.3
		c0.42,0,0.78-0.03,1.07-0.08v3.06c-0.77,0.25-1.57,0.37-2.41,0.37c-1.47,0-2.56-0.35-3.26-1.04s-1.05-1.75-1.05-3.16v-6.82h-1.75
		v-2.97h1.75v-3.42H827.53z"/>
	<path class="st0" d="M830.55,66.2c0-1.37,0.27-2.59,0.8-3.66s1.3-1.89,2.3-2.47s2.17-0.86,3.52-0.86c2.06,0,3.68,0.64,4.86,1.91
		s1.78,3.01,1.78,5.2v0.15c0,2.14-0.59,3.84-1.78,5.1c-1.19,1.26-2.8,1.89-4.83,1.89c-1.96,0-3.53-0.59-4.71-1.76
		s-1.82-2.76-1.92-4.77L830.55,66.2z M834.83,66.46c0,1.27,0.2,2.2,0.6,2.79s0.99,0.89,1.76,0.89c1.52,0,2.3-1.17,2.34-3.52V66.2
		c0-2.46-0.79-3.69-2.36-3.69c-1.43,0-2.21,1.06-2.32,3.19L834.83,66.46z"/>
	<path class="st0" d="M854,63.33l-1.41-0.1c-1.35,0-2.21,0.42-2.59,1.27v8.7h-4.28V59.46h4.01l0.14,1.76
		c0.72-1.35,1.72-2.02,3.01-2.02c0.46,0,0.85,0.05,1.19,0.15L854,63.33z"/>
	<path class="st0" d="M867.5,67.2l2.29-7.74h4.58l-5.6,16.03l-0.24,0.58c-0.8,1.78-2.2,2.67-4.21,2.67c-0.56,0-1.15-0.08-1.76-0.25
		v-3.05h0.56c0.6,0,1.06-0.09,1.38-0.26c0.32-0.17,0.55-0.49,0.7-0.93l0.34-0.91l-4.77-13.87h4.57L867.5,67.2z"/>
	<path class="st0" d="M874.94,66.2c0-1.37,0.27-2.59,0.8-3.66s1.3-1.89,2.3-2.47s2.17-0.86,3.52-0.86c2.06,0,3.68,0.64,4.86,1.91
		s1.78,3.01,1.78,5.2v0.15c0,2.14-0.59,3.84-1.78,5.1c-1.19,1.26-2.8,1.89-4.83,1.89c-1.96,0-3.53-0.59-4.71-1.76
		s-1.82-2.76-1.92-4.77L874.94,66.2z M879.22,66.46c0,1.27,0.2,2.2,0.6,2.79s0.99,0.89,1.76,0.89c1.52,0,2.3-1.17,2.34-3.52V66.2
		c0-2.46-0.79-3.69-2.36-3.69c-1.43,0-2.21,1.06-2.32,3.19L879.22,66.46z"/>
	<path class="st0" d="M898.27,71.71c-0.91,1.16-2.13,1.74-3.67,1.74c-1.51,0-2.65-0.44-3.42-1.31c-0.77-0.88-1.16-2.13-1.16-3.78
		v-8.9h4.28v8.92c0,1.18,0.57,1.76,1.71,1.76c0.98,0,1.68-0.35,2.09-1.05v-9.64h4.3v13.74h-4.01L898.27,71.71z"/>
	<path class="st0" d="M913.06,63.33l-1.41-0.1c-1.35,0-2.21,0.42-2.59,1.27v8.7h-4.28V59.46h4.01l0.14,1.76
		c0.72-1.35,1.72-2.02,3.01-2.02c0.46,0,0.85,0.05,1.19,0.15L913.06,63.33z"/>
</g>
</svg>
