<?xml version="1.0" encoding="utf-8"?>
<!-- Generator: Adobe Illustrator 25.2.1, SVG Export Plug-In . SVG Version: 6.00 Build 0)  -->
<svg version="1.1" id="Layer_1" xmlns="http://www.w3.org/2000/svg" xmlns:xlink="http://www.w3.org/1999/xlink" x="0px" y="0px"
	 viewBox="0 0 160 600" style="enable-background:new 0 0 160 600;" xml:space="preserve">
<style type="text/css">
	.st0{fill:#021D8B;}
</style>
<g>
	<path class="st0" d="M23.33,221.34h-3.76V205.7h3.76V221.34z"/>
	<path class="st0" d="M25.33,215.44c0-1.84,0.4-3.29,1.19-4.35c0.79-1.06,1.91-1.59,3.33-1.59c1.04,0,1.91,0.41,2.62,1.22v-5.89
		h3.63v16.5h-3.25l-0.18-1.25c-0.75,0.97-1.69,1.46-2.84,1.46c-1.38,0-2.48-0.53-3.29-1.59C25.73,218.91,25.33,217.4,25.33,215.44z
		 M28.95,215.67c0,2.06,0.6,3.09,1.8,3.09c0.8,0,1.38-0.34,1.72-1.01v-4.43c-0.33-0.69-0.9-1.03-1.7-1.03
		c-1.12,0-1.72,0.9-1.82,2.71L28.95,215.67z"/>
	<path class="st0" d="M43.78,221.56c-1.78,0-3.23-0.53-4.33-1.6s-1.65-2.45-1.65-4.15v-0.3c0-1.19,0.22-2.24,0.66-3.15
		c0.44-0.91,1.08-1.61,1.93-2.11c0.84-0.5,1.85-0.75,3.01-0.75c1.63,0,2.92,0.51,3.87,1.52c0.95,1.01,1.42,2.43,1.42,4.24v1.41h-7.2
		c0.13,0.65,0.41,1.16,0.85,1.54c0.44,0.37,1,0.56,1.7,0.56c1.15,0,2.04-0.4,2.69-1.2l1.65,1.96c-0.45,0.62-1.09,1.12-1.92,1.49
		C45.63,221.37,44.74,221.56,43.78,221.56z M43.38,212.3c-1.06,0-1.69,0.7-1.89,2.11h3.65v-0.28c0.01-0.58-0.13-1.03-0.44-1.35
		C44.39,212.46,43.95,212.3,43.38,212.3z"/>
	<path class="st0" d="M53.46,209.72l0.12,1.36c0.8-1.05,1.91-1.58,3.32-1.58c1.21,0,2.11,0.36,2.71,1.08
		c0.6,0.72,0.91,1.81,0.93,3.27v7.49h-3.63v-7.34c0-0.59-0.12-1.02-0.35-1.29c-0.24-0.28-0.67-0.41-1.29-0.41
		c-0.71,0-1.24,0.28-1.58,0.84v8.21h-3.62v-11.62H53.46z"/>
	<path class="st0" d="M66.76,206.83v2.89h1.91v2.51h-1.91v5.32c0,0.44,0.08,0.74,0.24,0.91s0.47,0.26,0.93,0.26
		c0.36,0,0.66-0.02,0.9-0.06v2.59c-0.65,0.21-1.33,0.31-2.04,0.31c-1.25,0-2.17-0.29-2.76-0.88c-0.59-0.59-0.89-1.48-0.89-2.67
		v-5.77h-1.48v-2.51h1.48v-2.89H66.76z"/>
	<path class="st0" d="M70.07,206.72c0-0.52,0.19-0.94,0.56-1.27c0.37-0.33,0.86-0.49,1.45-0.49s1.08,0.17,1.45,0.49
		c0.37,0.33,0.56,0.75,0.56,1.27s-0.19,0.94-0.56,1.27c-0.37,0.33-0.86,0.49-1.45,0.49s-1.08-0.16-1.45-0.49
		C70.26,207.66,70.07,207.24,70.07,206.72z M73.92,221.34h-3.63v-11.62h3.63V221.34z"/>
	<path class="st0" d="M80.36,206.83v2.89h1.91v2.51h-1.91v5.32c0,0.44,0.08,0.74,0.24,0.91s0.47,0.26,0.94,0.26
		c0.36,0,0.66-0.02,0.9-0.06v2.59c-0.65,0.21-1.33,0.31-2.04,0.31c-1.25,0-2.17-0.29-2.76-0.88c-0.59-0.59-0.89-1.48-0.89-2.67
		v-5.77h-1.48v-2.51h1.48v-2.89H80.36z"/>
	<path class="st0" d="M88.34,216.27l1.93-6.55h3.88l-4.74,13.57l-0.2,0.49c-0.67,1.5-1.86,2.26-3.57,2.26
		c-0.47,0-0.97-0.07-1.49-0.21v-2.58h0.47c0.51,0,0.9-0.07,1.17-0.22c0.27-0.15,0.47-0.41,0.6-0.79l0.29-0.77l-4.04-11.74h3.87
		L88.34,216.27z"/>
	<path class="st0" d="M104.79,206.83v2.89h1.91v2.51h-1.91v5.32c0,0.44,0.08,0.74,0.24,0.91s0.47,0.26,0.93,0.26
		c0.36,0,0.66-0.02,0.9-0.06v2.59c-0.65,0.21-1.33,0.31-2.04,0.31c-1.25,0-2.17-0.29-2.76-0.88c-0.59-0.59-0.89-1.48-0.89-2.67
		v-5.77h-1.48v-2.51h1.48v-2.89H104.79z"/>
	<path class="st0" d="M111.67,210.97c0.77-0.97,1.76-1.46,2.96-1.46c1.28,0,2.25,0.38,2.9,1.14c0.65,0.76,0.98,1.88,1,3.36v7.34
		h-3.63v-7.25c0-0.62-0.12-1.07-0.38-1.36s-0.68-0.44-1.28-0.44c-0.75,0-1.27,0.24-1.58,0.71v8.34h-3.62v-16.5h3.62V210.97z"/>
	<path class="st0" d="M126.17,221.56c-1.78,0-3.23-0.53-4.33-1.6s-1.65-2.45-1.65-4.15v-0.3c0-1.19,0.22-2.24,0.66-3.15
		c0.44-0.91,1.08-1.61,1.93-2.11c0.84-0.5,1.85-0.75,3.01-0.75c1.63,0,2.92,0.51,3.87,1.52c0.95,1.01,1.42,2.43,1.42,4.24v1.41h-7.2
		c0.13,0.65,0.41,1.16,0.85,1.54c0.44,0.37,1,0.56,1.7,0.56c1.15,0,2.04-0.4,2.69-1.2l1.65,1.96c-0.45,0.62-1.09,1.12-1.92,1.49
		C128.01,221.37,127.12,221.56,126.17,221.56z M125.76,212.3c-1.06,0-1.69,0.7-1.89,2.11h3.65v-0.28c0.01-0.58-0.13-1.03-0.44-1.35
		C126.77,212.46,126.33,212.3,125.76,212.3z"/>
	<path class="st0" d="M133.32,221.34v-9.11h-1.69v-2.51h1.69v-0.92c0-1.32,0.39-2.35,1.17-3.08s1.88-1.1,3.29-1.1
		c0.52,0,1.08,0.08,1.7,0.23l0.01,2.66c-0.22-0.06-0.52-0.1-0.89-0.1c-1.1,0-1.64,0.47-1.64,1.42v0.89h2.27v2.51h-2.27v9.11H133.32z
		"/>
	<path class="st0" d="M144.71,206.83v2.89h1.91v2.51h-1.91v5.32c0,0.44,0.08,0.74,0.24,0.91s0.47,0.26,0.93,0.26
		c0.36,0,0.66-0.02,0.9-0.06v2.59c-0.65,0.21-1.33,0.31-2.04,0.31c-1.25,0-2.17-0.29-2.76-0.88c-0.59-0.59-0.89-1.48-0.89-2.67
		v-5.77h-1.48v-2.51h1.48v-2.89H144.71z"/>
	<path class="st0" d="M43.38,242.02c0,1.8-0.41,3.25-1.22,4.32c-0.81,1.08-1.91,1.62-3.29,1.62c-1.07,0-1.94-0.39-2.63-1.17v5.42
		h-3.62v-16.09H36l0.11,1.07c0.69-0.86,1.61-1.29,2.74-1.29c1.43,0,2.55,0.53,3.34,1.58c0.79,1.06,1.19,2.51,1.19,4.36V242.02z
		 M39.76,241.79c0-2.06-0.6-3.09-1.8-3.09c-0.86,0-1.43,0.31-1.72,0.92v4.58c0.32,0.64,0.9,0.97,1.74,0.97c1.15,0,1.75-1,1.78-2.99
		V241.79z"/>
	<path class="st0" d="M52.01,239.4l-1.19-0.09c-1.14,0-1.87,0.36-2.19,1.07v7.36H45v-11.62h3.39l0.12,1.49
		c0.61-1.14,1.46-1.71,2.55-1.71c0.39,0,0.72,0.04,1.01,0.13L52.01,239.4z"/>
	<path class="st0" d="M52.47,241.82c0-1.16,0.23-2.19,0.68-3.1c0.45-0.91,1.1-1.6,1.94-2.09c0.84-0.49,1.84-0.73,2.98-0.73
		c1.74,0,3.11,0.54,4.11,1.62c1,1.08,1.5,2.54,1.5,4.4v0.13c0,1.81-0.5,3.25-1.51,4.31c-1.01,1.06-2.37,1.6-4.09,1.6
		c-1.65,0-2.98-0.5-3.99-1.49c-1-0.99-1.54-2.34-1.62-4.03L52.47,241.82z M56.09,242.05c0,1.07,0.17,1.86,0.5,2.36
		c0.34,0.5,0.83,0.75,1.49,0.75c1.29,0,1.95-0.99,1.98-2.98v-0.37c0-2.08-0.67-3.13-2-3.13c-1.21,0-1.87,0.9-1.97,2.7L56.09,242.05z
		"/>
	<path class="st0" d="M69.5,233.23v2.89h1.91v2.51H69.5v5.32c0,0.44,0.08,0.74,0.24,0.91s0.47,0.26,0.93,0.26
		c0.36,0,0.66-0.02,0.9-0.06v2.59c-0.65,0.21-1.33,0.31-2.04,0.31c-1.25,0-2.17-0.29-2.76-0.88c-0.59-0.59-0.89-1.48-0.89-2.67
		v-5.77h-1.48v-2.51h1.48v-2.89H69.5z"/>
	<path class="st0" d="M78.46,247.96c-1.78,0-3.23-0.53-4.33-1.6s-1.65-2.45-1.65-4.15v-0.3c0-1.19,0.22-2.24,0.66-3.15
		c0.44-0.91,1.08-1.61,1.93-2.11c0.84-0.5,1.85-0.75,3.01-0.75c1.63,0,2.92,0.51,3.87,1.52c0.95,1.01,1.42,2.43,1.42,4.24v1.41h-7.2
		c0.13,0.65,0.41,1.16,0.85,1.54c0.44,0.37,1,0.56,1.7,0.56c1.15,0,2.04-0.4,2.69-1.2l1.65,1.96c-0.45,0.62-1.09,1.12-1.92,1.49
		C80.3,247.77,79.41,247.96,78.46,247.96z M78.05,238.7c-1.06,0-1.69,0.7-1.89,2.11h3.65v-0.28c0.01-0.58-0.13-1.03-0.44-1.35
		C79.06,238.86,78.62,238.7,78.05,238.7z"/>
	<path class="st0" d="M89.72,245.16c0.51,0,0.9-0.14,1.18-0.41c0.28-0.28,0.42-0.66,0.41-1.15h3.39c0,1.27-0.46,2.32-1.37,3.14
		c-0.91,0.82-2.09,1.22-3.53,1.22c-1.69,0-3.02-0.53-4-1.59c-0.97-1.06-1.46-2.53-1.46-4.4v-0.15c0-1.17,0.22-2.21,0.65-3.11
		c0.43-0.9,1.06-1.59,1.87-2.07s1.78-0.73,2.9-0.73c1.51,0,2.71,0.42,3.6,1.26s1.33,1.97,1.33,3.41h-3.39c0-0.6-0.15-1.06-0.44-1.39
		s-0.69-0.48-1.18-0.48c-0.94,0-1.49,0.6-1.64,1.79c-0.05,0.38-0.08,0.9-0.08,1.57c0,1.17,0.14,1.98,0.42,2.43
		S89.12,245.16,89.72,245.16z"/>
	<path class="st0" d="M100.46,233.23v2.89h1.91v2.51h-1.91v5.32c0,0.44,0.08,0.74,0.24,0.91s0.47,0.26,0.93,0.26
		c0.36,0,0.66-0.02,0.9-0.06v2.59c-0.65,0.21-1.33,0.31-2.04,0.31c-1.25,0-2.17-0.29-2.76-0.88c-0.59-0.59-0.89-1.48-0.89-2.67
		v-5.77h-1.48v-2.51h1.48v-2.89H100.46z"/>
	<path class="st0" d="M103.76,233.12c0-0.52,0.19-0.94,0.56-1.27c0.37-0.33,0.86-0.49,1.45-0.49s1.08,0.17,1.45,0.49
		c0.37,0.33,0.56,0.75,0.56,1.27s-0.19,0.94-0.56,1.27c-0.37,0.33-0.86,0.49-1.45,0.49s-1.08-0.16-1.45-0.49
		C103.95,234.06,103.76,233.64,103.76,233.12z M107.61,247.74h-3.63v-11.62h3.63V247.74z"/>
	<path class="st0" d="M109.38,241.82c0-1.16,0.23-2.19,0.68-3.1c0.45-0.91,1.1-1.6,1.94-2.09c0.84-0.49,1.84-0.73,2.98-0.73
		c1.74,0,3.11,0.54,4.11,1.62c1,1.08,1.5,2.54,1.5,4.4v0.13c0,1.81-0.5,3.25-1.51,4.31c-1.01,1.06-2.37,1.6-4.09,1.6
		c-1.65,0-2.98-0.5-3.99-1.49c-1-0.99-1.54-2.34-1.62-4.03L109.38,241.82z M113,242.05c0,1.07,0.17,1.86,0.5,2.36
		c0.34,0.5,0.83,0.75,1.49,0.75c1.29,0,1.95-0.99,1.98-2.98v-0.37c0-2.08-0.67-3.13-2-3.13c-1.21,0-1.87,0.9-1.97,2.7L113,242.05z"
		/>
	<path class="st0" d="M125.52,236.12l0.12,1.36c0.8-1.05,1.91-1.58,3.32-1.58c1.21,0,2.11,0.36,2.71,1.08
		c0.6,0.72,0.91,1.81,0.93,3.27v7.49h-3.63v-7.34c0-0.59-0.12-1.02-0.35-1.29c-0.24-0.28-0.67-0.41-1.29-0.41
		c-0.71,0-1.24,0.28-1.58,0.84v8.21h-3.62v-11.62H125.52z"/>
	<path class="st0" d="M55.54,274.14c-0.13-0.24-0.24-0.58-0.34-1.04c-0.67,0.84-1.6,1.26-2.79,1.26c-1.1,0-2.03-0.33-2.79-0.99
		c-0.77-0.66-1.15-1.49-1.15-2.5c0-1.26,0.47-2.21,1.4-2.86s2.28-0.97,4.06-0.97h1.12v-0.62c0-1.07-0.46-1.61-1.39-1.61
		c-0.86,0-1.29,0.42-1.29,1.27h-3.62c0-1.12,0.48-2.04,1.43-2.74c0.96-0.7,2.17-1.05,3.66-1.05s2.65,0.36,3.51,1.08
		c0.86,0.72,1.3,1.72,1.32,2.98v5.15c0.01,1.07,0.18,1.88,0.49,2.45v0.18H55.54z M53.28,271.78c0.45,0,0.83-0.1,1.12-0.29
		c0.3-0.19,0.51-0.41,0.64-0.66v-1.86h-1.05c-1.26,0-1.89,0.57-1.89,1.7c0,0.33,0.11,0.6,0.33,0.8S52.93,271.78,53.28,271.78z"/>
	<path class="st0" d="M64.89,259.63v2.89h1.91v2.51h-1.91v5.32c0,0.44,0.08,0.74,0.24,0.91s0.47,0.26,0.93,0.26
		c0.36,0,0.66-0.02,0.9-0.06v2.59c-0.65,0.21-1.33,0.31-2.04,0.31c-1.25,0-2.17-0.29-2.76-0.88c-0.59-0.59-0.89-1.48-0.89-2.67
		v-5.77h-1.48v-2.51h1.48v-2.89H64.89z"/>
	<path class="st0" d="M78.35,269.07l1.93-6.55h3.88l-4.74,13.57l-0.2,0.49c-0.67,1.5-1.86,2.26-3.57,2.26
		c-0.47,0-0.97-0.07-1.49-0.21v-2.58h0.47c0.51,0,0.9-0.07,1.17-0.22c0.27-0.15,0.47-0.41,0.6-0.79l0.29-0.77l-4.04-11.74h3.87
		L78.35,269.07z"/>
	<path class="st0" d="M84.64,268.22c0-1.16,0.23-2.19,0.68-3.1c0.45-0.91,1.1-1.6,1.94-2.09c0.84-0.49,1.84-0.73,2.98-0.73
		c1.74,0,3.11,0.54,4.11,1.62c1,1.08,1.5,2.54,1.5,4.4v0.13c0,1.81-0.5,3.25-1.51,4.31c-1.01,1.06-2.37,1.6-4.09,1.6
		c-1.65,0-2.98-0.5-3.99-1.49c-1-0.99-1.54-2.34-1.62-4.03L84.64,268.22z M88.26,268.45c0,1.07,0.17,1.86,0.5,2.36
		c0.34,0.5,0.83,0.75,1.49,0.75c1.29,0,1.95-0.99,1.98-2.98v-0.37c0-2.08-0.67-3.13-2-3.13c-1.21,0-1.87,0.9-1.97,2.7L88.26,268.45z
		"/>
	<path class="st0" d="M104.38,272.89c-0.77,0.98-1.8,1.47-3.1,1.47c-1.27,0-2.24-0.37-2.89-1.11c-0.66-0.74-0.98-1.81-0.98-3.2
		v-7.53h3.62v7.55c0,1,0.48,1.49,1.45,1.49c0.83,0,1.42-0.3,1.77-0.89v-8.15h3.64v11.62h-3.39L104.38,272.89z"/>
	<path class="st0" d="M116.89,265.8l-1.19-0.09c-1.14,0-1.87,0.36-2.19,1.07v7.36h-3.62v-11.62h3.39l0.12,1.49
		c0.61-1.14,1.46-1.71,2.55-1.71c0.39,0,0.72,0.04,1.01,0.13L116.89,265.8z"/>
	<path class="st0" d="M30.2,300.54v-9.11h-1.69v-2.51h1.69V288c0-1.32,0.39-2.35,1.17-3.08s1.88-1.1,3.29-1.1
		c0.52,0,1.08,0.08,1.7,0.23l0.01,2.66c-0.22-0.06-0.52-0.1-0.89-0.1c-1.1,0-1.64,0.47-1.64,1.42v0.89h2.27v2.51h-2.27v9.11H30.2z"
		/>
	<path class="st0" d="M37.35,285.92c0-0.52,0.19-0.94,0.56-1.27c0.37-0.33,0.86-0.49,1.45-0.49s1.08,0.17,1.45,0.49
		c0.37,0.33,0.56,0.75,0.56,1.27s-0.19,0.94-0.56,1.27c-0.37,0.33-0.86,0.49-1.45,0.49s-1.08-0.16-1.45-0.49
		C37.53,286.86,37.35,286.44,37.35,285.92z M41.19,300.54h-3.63v-11.62h3.63V300.54z"/>
	<path class="st0" d="M46.74,288.92l0.12,1.36c0.8-1.05,1.91-1.58,3.32-1.58c1.21,0,2.11,0.36,2.71,1.08
		c0.6,0.72,0.91,1.81,0.93,3.27v7.49h-3.63v-7.34c0-0.59-0.12-1.02-0.35-1.29c-0.24-0.28-0.67-0.41-1.29-0.41
		c-0.71,0-1.24,0.28-1.58,0.84v8.21h-3.62v-11.62H46.74z"/>
	<path class="st0" d="M55.4,294.65c0-1.17,0.19-2.21,0.58-3.12s0.94-1.6,1.67-2.09c0.72-0.49,1.56-0.74,2.52-0.74
		c1.21,0,2.16,0.41,2.84,1.22l0.13-1.01h3.29v11.18c0,1.02-0.24,1.91-0.71,2.67c-0.48,0.75-1.17,1.33-2.07,1.74
		c-0.9,0.4-1.95,0.61-3.14,0.61c-0.85,0-1.68-0.16-2.48-0.48c-0.8-0.32-1.41-0.74-1.83-1.26l1.51-2.13
		c0.67,0.79,1.56,1.19,2.66,1.19c1.6,0,2.41-0.82,2.41-2.47v-0.37c-0.69,0.77-1.57,1.15-2.63,1.15c-1.42,0-2.56-0.54-3.44-1.63
		s-1.31-2.54-1.31-4.36V294.65z M59.03,294.87c0,0.95,0.18,1.71,0.54,2.26c0.36,0.56,0.86,0.83,1.5,0.83c0.78,0,1.35-0.26,1.71-0.78
		v-4.89c-0.35-0.53-0.91-0.79-1.69-0.79c-0.64,0-1.15,0.29-1.51,0.86C59.22,292.94,59.03,293.77,59.03,294.87z"/>
	<path class="st0" d="M74.1,300.76c-1.78,0-3.23-0.53-4.33-1.6s-1.65-2.45-1.65-4.15v-0.3c0-1.19,0.22-2.24,0.66-3.15
		c0.44-0.91,1.08-1.61,1.93-2.11c0.84-0.5,1.85-0.75,3.01-0.75c1.63,0,2.92,0.51,3.87,1.52c0.95,1.01,1.42,2.43,1.42,4.24v1.41h-7.2
		c0.13,0.65,0.41,1.16,0.85,1.54c0.44,0.37,1,0.56,1.7,0.56c1.15,0,2.04-0.4,2.69-1.2l1.65,1.96c-0.45,0.62-1.09,1.12-1.92,1.49
		C75.95,300.57,75.06,300.76,74.1,300.76z M73.7,291.5c-1.06,0-1.69,0.7-1.89,2.11h3.65v-0.28c0.01-0.58-0.13-1.03-0.44-1.35
		C74.71,291.66,74.27,291.5,73.7,291.5z"/>
	<path class="st0" d="M87.49,292.2l-1.19-0.09c-1.14,0-1.87,0.36-2.19,1.07v7.36h-3.62v-11.62h3.4l0.12,1.49
		c0.61-1.14,1.46-1.71,2.55-1.71c0.39,0,0.72,0.04,1.01,0.13L87.49,292.2z"/>
	<path class="st0" d="M93.55,286.03v2.89h1.91v2.51h-1.91v5.32c0,0.44,0.08,0.74,0.24,0.91s0.47,0.26,0.93,0.26
		c0.36,0,0.66-0.02,0.9-0.06v2.59c-0.65,0.21-1.33,0.31-2.04,0.31c-1.25,0-2.17-0.29-2.76-0.88c-0.59-0.59-0.89-1.48-0.89-2.67
		v-5.77h-1.48v-2.51h1.48v-2.89H93.55z"/>
	<path class="st0" d="M96.86,285.92c0-0.52,0.19-0.94,0.56-1.27c0.37-0.33,0.86-0.49,1.45-0.49s1.08,0.17,1.45,0.49
		c0.37,0.33,0.56,0.75,0.56,1.27s-0.19,0.94-0.56,1.27c-0.37,0.33-0.86,0.49-1.45,0.49s-1.08-0.16-1.45-0.49
		C97.04,286.86,96.86,286.44,96.86,285.92z M100.7,300.54h-3.63v-11.62h3.63V300.54z"/>
	<path class="st0" d="M113.72,294.82c0,1.8-0.41,3.25-1.22,4.32c-0.81,1.08-1.91,1.62-3.29,1.62c-1.07,0-1.94-0.39-2.63-1.17v5.42
		h-3.62v-16.09h3.38l0.11,1.07c0.69-0.86,1.61-1.29,2.74-1.29c1.43,0,2.55,0.53,3.34,1.58c0.79,1.06,1.19,2.51,1.19,4.36V294.82z
		 M110.1,294.59c0-2.06-0.6-3.09-1.8-3.09c-0.86,0-1.43,0.31-1.72,0.92V297c0.32,0.64,0.9,0.97,1.74,0.97c1.15,0,1.75-1,1.78-2.99
		V294.59z"/>
	<path class="st0" d="M121.4,297.28c0-0.31-0.16-0.55-0.48-0.74c-0.32-0.19-0.93-0.38-1.84-0.58c-0.9-0.2-1.65-0.46-2.23-0.79
		c-0.59-0.33-1.04-0.72-1.34-1.19c-0.31-0.47-0.46-1-0.46-1.6c0-1.07,0.44-1.95,1.32-2.64c0.88-0.69,2.03-1.04,3.46-1.04
		c1.53,0,2.76,0.35,3.7,1.04c0.93,0.69,1.4,1.61,1.4,2.74h-3.63c0-0.93-0.49-1.4-1.47-1.4c-0.38,0-0.7,0.11-0.96,0.32
		c-0.26,0.21-0.39,0.47-0.39,0.79c0,0.32,0.16,0.58,0.47,0.78c0.32,0.2,0.82,0.37,1.51,0.49c0.69,0.13,1.3,0.28,1.82,0.46
		c1.75,0.6,2.62,1.68,2.62,3.23c0,1.06-0.47,1.92-1.41,2.59c-0.94,0.67-2.16,1-3.66,1c-1,0-1.88-0.18-2.66-0.54
		s-1.39-0.84-1.83-1.46c-0.44-0.62-0.66-1.26-0.66-1.94h3.38c0.01,0.54,0.19,0.93,0.54,1.18s0.78,0.37,1.32,0.37
		c0.49,0,0.86-0.1,1.11-0.3C121.28,297.86,121.4,297.6,121.4,297.28z"/>
	<path class="st0" d="M129.27,295.59c0-1.05,0.12-1.87,0.35-2.48c0.24-0.6,0.62-1.13,1.15-1.57c0.53-0.44,0.93-0.85,1.21-1.22
		c0.28-0.37,0.41-0.77,0.41-1.22c0-1.08-0.47-1.62-1.4-1.62c-0.43,0-0.78,0.16-1.04,0.47c-0.26,0.32-0.4,0.74-0.42,1.28h-3.63
		c0.01-1.43,0.47-2.55,1.35-3.35c0.89-0.8,2.13-1.2,3.74-1.2c1.6,0,2.83,0.37,3.71,1.11c0.88,0.74,1.32,1.79,1.32,3.15
		c0,0.59-0.12,1.14-0.35,1.62c-0.24,0.49-0.62,0.98-1.14,1.49l-1.24,1.15c-0.35,0.34-0.59,0.68-0.73,1.04s-0.21,0.8-0.23,1.35
		H129.27z M128.83,298.86c0-0.53,0.19-0.96,0.58-1.31c0.38-0.34,0.86-0.51,1.43-0.51s1.05,0.17,1.43,0.51
		c0.38,0.34,0.58,0.78,0.58,1.31c0,0.53-0.19,0.97-0.58,1.31c-0.38,0.34-0.86,0.51-1.43,0.51s-1.05-0.17-1.43-0.51
		C129.02,299.82,128.83,299.39,128.83,298.86z"/>
</g>
</svg>
