<?xml version="1.0" encoding="utf-8"?>
<!-- Generator: Adobe Illustrator 25.2.1, SVG Export Plug-In . SVG Version: 6.00 Build 0)  -->
<svg version="1.1" id="Layer_1" xmlns="http://www.w3.org/2000/svg" xmlns:xlink="http://www.w3.org/1999/xlink" x="0px" y="0px"
	 viewBox="0 0 160 600" style="enable-background:new 0 0 160 600;" xml:space="preserve">
<style type="text/css">
	.st0{fill:#E82D8A;}
</style>
<path class="st0" d="M27.77,435.7c0,1.91-0.39,3.37-1.18,4.39s-1.9,1.54-3.33,1.54c-1.18,0-2.13-0.47-2.86-1.41l-0.15,1.19h-3.24
	v-16.5h3.62v5.81c0.67-0.77,1.54-1.15,2.61-1.15c1.45,0,2.56,0.52,3.35,1.56s1.18,2.5,1.18,4.38V435.7z M24.14,435.46
	c0-1.12-0.15-1.91-0.45-2.39c-0.3-0.48-0.75-0.71-1.37-0.71c-0.82,0-1.38,0.31-1.7,0.93v4.61c0.31,0.62,0.88,0.92,1.72,0.92
	c0.85,0,1.39-0.42,1.62-1.24C24.08,437.18,24.14,436.47,24.14,435.46z"/>
<path class="st0" d="M35.91,441.41c-0.13-0.24-0.24-0.58-0.34-1.04c-0.67,0.84-1.6,1.26-2.79,1.26c-1.1,0-2.03-0.33-2.79-0.99
	c-0.77-0.66-1.15-1.49-1.15-2.5c0-1.26,0.47-2.21,1.4-2.86s2.28-0.97,4.06-0.97h1.12v-0.62c0-1.07-0.46-1.61-1.39-1.61
	c-0.86,0-1.29,0.42-1.29,1.27h-3.62c0-1.12,0.48-2.04,1.43-2.74c0.96-0.7,2.17-1.05,3.66-1.05s2.65,0.36,3.51,1.08
	s1.3,1.71,1.32,2.98v5.15c0.01,1.07,0.18,1.88,0.49,2.45v0.18H35.91z M33.65,439.05c0.45,0,0.83-0.1,1.12-0.29
	c0.3-0.19,0.51-0.41,0.64-0.66v-1.86h-1.05c-1.26,0-1.89,0.57-1.89,1.7c0,0.33,0.11,0.6,0.33,0.8S33.3,439.05,33.65,439.05z"/>
<path class="st0" d="M44.37,429.79l0.12,1.36c0.8-1.05,1.91-1.58,3.32-1.58c1.21,0,2.11,0.36,2.71,1.08
	c0.6,0.72,0.91,1.81,0.93,3.27v7.49h-3.63v-7.34c0-0.59-0.12-1.02-0.35-1.29c-0.24-0.28-0.67-0.41-1.29-0.41
	c-0.71,0-1.24,0.28-1.58,0.84v8.21h-3.62v-11.62H44.37z"/>
<path class="st0" d="M58.12,437.08l-1.02,1.02v3.31h-3.62V424.9h3.62v8.77l0.37-0.48l2.73-3.39h4.34l-4.07,4.78l4.34,6.84h-4.15
	L58.12,437.08z"/>
<path class="st0" d="M77.51,441.41c-0.13-0.24-0.24-0.58-0.34-1.04c-0.67,0.84-1.6,1.26-2.79,1.26c-1.1,0-2.03-0.33-2.79-0.99
	c-0.77-0.66-1.15-1.49-1.15-2.5c0-1.26,0.47-2.21,1.4-2.86s2.28-0.97,4.06-0.97H77v-0.62c0-1.07-0.46-1.61-1.39-1.61
	c-0.86,0-1.29,0.42-1.29,1.27h-3.62c0-1.12,0.48-2.04,1.43-2.74c0.96-0.7,2.17-1.05,3.66-1.05s2.65,0.36,3.51,1.08
	s1.3,1.71,1.32,2.98v5.15c0.01,1.07,0.18,1.88,0.49,2.45v0.18H77.51z M75.24,439.05c0.45,0,0.83-0.1,1.12-0.29
	c0.3-0.19,0.51-0.41,0.64-0.66v-1.86h-1.05c-1.26,0-1.89,0.57-1.89,1.7c0,0.33,0.11,0.6,0.33,0.8S74.9,439.05,75.24,439.05z"/>
<path class="st0" d="M87.55,438.83c0.51,0,0.9-0.14,1.18-0.41c0.28-0.28,0.42-0.66,0.41-1.15h3.39c0,1.27-0.46,2.32-1.37,3.14
	c-0.91,0.82-2.09,1.22-3.53,1.22c-1.69,0-3.02-0.53-4-1.59s-1.46-2.53-1.46-4.4v-0.15c0-1.17,0.22-2.21,0.65-3.11
	c0.43-0.9,1.06-1.59,1.87-2.07s1.78-0.72,2.9-0.72c1.51,0,2.71,0.42,3.6,1.26s1.33,1.97,1.33,3.41h-3.39c0-0.6-0.15-1.06-0.44-1.39
	s-0.69-0.48-1.18-0.48c-0.94,0-1.49,0.6-1.64,1.79c-0.05,0.38-0.08,0.9-0.08,1.57c0,1.17,0.14,1.98,0.42,2.43
	S86.94,438.83,87.55,438.83z"/>
<path class="st0" d="M98.98,438.83c0.51,0,0.9-0.14,1.18-0.41c0.28-0.28,0.42-0.66,0.41-1.15h3.39c0,1.27-0.46,2.32-1.37,3.14
	c-0.91,0.82-2.09,1.22-3.53,1.22c-1.69,0-3.02-0.53-4-1.59s-1.46-2.53-1.46-4.4v-0.15c0-1.17,0.22-2.21,0.65-3.11
	c0.43-0.9,1.06-1.59,1.87-2.07s1.78-0.72,2.9-0.72c1.51,0,2.71,0.42,3.6,1.26s1.33,1.97,1.33,3.41h-3.39c0-0.6-0.15-1.06-0.44-1.39
	s-0.69-0.48-1.18-0.48c-0.94,0-1.49,0.6-1.64,1.79c-0.05,0.38-0.08,0.9-0.08,1.57c0,1.17,0.14,1.98,0.42,2.43
	S98.37,438.83,98.98,438.83z"/>
<path class="st0" d="M105.04,435.49c0-1.16,0.23-2.19,0.68-3.1c0.45-0.91,1.1-1.6,1.94-2.09s1.84-0.73,2.98-0.73
	c1.74,0,3.11,0.54,4.11,1.62c1,1.08,1.5,2.54,1.5,4.4v0.13c0,1.81-0.5,3.25-1.51,4.31c-1.01,1.06-2.37,1.6-4.09,1.6
	c-1.65,0-2.98-0.5-3.99-1.49c-1-0.99-1.54-2.34-1.62-4.03L105.04,435.49z M108.66,435.72c0,1.07,0.17,1.86,0.5,2.36
	s0.83,0.75,1.49,0.75c1.29,0,1.95-0.99,1.98-2.98v-0.37c0-2.08-0.67-3.13-2-3.13c-1.21,0-1.87,0.9-1.97,2.7L108.66,435.72z"/>
<path class="st0" d="M124.77,440.15c-0.77,0.98-1.8,1.47-3.1,1.47c-1.27,0-2.24-0.37-2.89-1.11c-0.66-0.74-0.98-1.81-0.98-3.2v-7.53
	h3.62v7.55c0,1,0.48,1.49,1.45,1.49c0.83,0,1.42-0.3,1.77-0.89v-8.15h3.64v11.62h-3.39L124.77,440.15z"/>
<path class="st0" d="M133.58,429.79l0.12,1.36c0.8-1.05,1.91-1.58,3.32-1.58c1.21,0,2.11,0.36,2.71,1.08
	c0.6,0.72,0.91,1.81,0.93,3.27v7.49h-3.63v-7.34c0-0.59-0.12-1.02-0.35-1.29c-0.24-0.28-0.67-0.41-1.29-0.41
	c-0.71,0-1.24,0.28-1.58,0.84v8.21h-3.62v-11.62H133.58z"/>
<path class="st0" d="M146.88,426.9v2.89h1.91v2.51h-1.91v5.32c0,0.44,0.08,0.74,0.24,0.91s0.47,0.26,0.93,0.26
	c0.36,0,0.66-0.02,0.9-0.06v2.59c-0.65,0.21-1.33,0.31-2.04,0.31c-1.25,0-2.17-0.29-2.76-0.88s-0.89-1.48-0.89-2.67v-5.77h-1.48
	v-2.51h1.48v-2.89H146.88z"/>
</svg>
