<?xml version="1.0" encoding="utf-8"?>
<!-- Generator: Adobe Illustrator 25.2.1, SVG Export Plug-In . SVG Version: 6.00 Build 0)  -->
<svg version="1.1" id="Layer_1" xmlns="http://www.w3.org/2000/svg" xmlns:xlink="http://www.w3.org/1999/xlink" x="0px" y="0px"
	 viewBox="0 0 160 600" style="enable-background:new 0 0 160 600;" xml:space="preserve">
<style type="text/css">
	.st0{fill:#782EEB;}
</style>
<path class="st0" d="M29.2,438.83c0.51,0,0.9-0.14,1.18-0.41s0.42-0.66,0.41-1.16h3.39c0,1.28-0.46,2.32-1.37,3.14
	c-0.91,0.82-2.09,1.22-3.53,1.22c-1.69,0-3.02-0.53-4-1.59c-0.97-1.06-1.46-2.53-1.46-4.4v-0.15c0-1.17,0.22-2.21,0.65-3.11
	c0.43-0.9,1.06-1.59,1.87-2.07s1.78-0.73,2.9-0.73c1.51,0,2.71,0.42,3.6,1.26s1.33,1.97,1.33,3.41h-3.39c0-0.6-0.15-1.06-0.44-1.39
	s-0.69-0.48-1.18-0.48c-0.94,0-1.49,0.6-1.64,1.79c-0.05,0.38-0.08,0.9-0.08,1.57c0,1.17,0.14,1.98,0.42,2.43
	S28.59,438.83,29.2,438.83z"/>
<path class="st0" d="M42.75,433.06l-1.19-0.09c-1.14,0-1.87,0.36-2.19,1.07v7.36h-3.62v-11.62h3.39l0.12,1.49
	c0.61-1.14,1.46-1.71,2.55-1.71c0.39,0,0.72,0.04,1.01,0.13L42.75,433.06z"/>
<path class="st0" d="M49.68,441.62c-1.78,0-3.23-0.53-4.33-1.59s-1.65-2.45-1.65-4.15v-0.3c0-1.19,0.22-2.24,0.66-3.15
	c0.44-0.91,1.08-1.61,1.93-2.11s1.85-0.75,3.01-0.75c1.63,0,2.92,0.51,3.87,1.52s1.42,2.43,1.42,4.24v1.41h-7.2
	c0.13,0.65,0.41,1.16,0.85,1.54c0.44,0.37,1,0.56,1.7,0.56c1.15,0,2.04-0.4,2.69-1.2l1.65,1.96c-0.45,0.62-1.09,1.12-1.92,1.49
	C51.52,441.44,50.63,441.62,49.68,441.62z M49.27,432.37c-1.06,0-1.69,0.7-1.89,2.11h3.65v-0.28c0.01-0.58-0.13-1.03-0.44-1.35
	S49.84,432.37,49.27,432.37z"/>
<path class="st0" d="M55.58,435.51c0-1.84,0.4-3.29,1.19-4.35c0.79-1.06,1.91-1.59,3.33-1.59c1.04,0,1.91,0.41,2.62,1.22v-5.89h3.63
	v16.5h-3.25l-0.18-1.25c-0.75,0.97-1.69,1.46-2.84,1.46c-1.38,0-2.48-0.53-3.29-1.59C55.98,438.98,55.58,437.47,55.58,435.51z
	 M59.2,435.74c0,2.06,0.6,3.09,1.8,3.09c0.8,0,1.38-0.34,1.72-1.01v-4.43c-0.33-0.69-0.9-1.03-1.7-1.03c-1.12,0-1.72,0.9-1.82,2.71
	L59.2,435.74z"/>
<path class="st0" d="M68.38,426.79c0-0.52,0.19-0.94,0.56-1.27c0.37-0.33,0.86-0.49,1.45-0.49s1.08,0.17,1.45,0.49
	c0.37,0.33,0.56,0.75,0.56,1.27s-0.19,0.94-0.56,1.27c-0.37,0.33-0.86,0.49-1.45,0.49s-1.08-0.16-1.45-0.49
	C68.57,427.73,68.38,427.31,68.38,426.79z M72.23,441.41h-3.63v-11.62h3.63V441.41z"/>
<path class="st0" d="M78.67,426.9v2.89h1.91v2.51h-1.91v5.32c0,0.44,0.08,0.74,0.24,0.91s0.47,0.26,0.93,0.26
	c0.36,0,0.66-0.02,0.9-0.06v2.59c-0.65,0.21-1.33,0.31-2.04,0.31c-1.25,0-2.17-0.29-2.76-0.88c-0.59-0.59-0.89-1.48-0.89-2.67v-5.77
	h-1.48v-2.51h1.48v-2.89H78.67z"/>
<path class="st0" d="M92.4,438.83c0.51,0,0.9-0.14,1.18-0.41s0.42-0.66,0.41-1.16h3.39c0,1.28-0.46,2.32-1.37,3.14
	c-0.91,0.82-2.09,1.22-3.53,1.22c-1.69,0-3.02-0.53-4-1.59c-0.97-1.06-1.46-2.53-1.46-4.4v-0.15c0-1.17,0.22-2.21,0.65-3.11
	c0.43-0.9,1.06-1.59,1.87-2.07s1.78-0.73,2.9-0.73c1.51,0,2.71,0.42,3.6,1.26s1.33,1.97,1.33,3.41h-3.39c0-0.6-0.15-1.06-0.44-1.39
	s-0.69-0.48-1.18-0.48c-0.94,0-1.49,0.6-1.64,1.79c-0.05,0.38-0.08,0.9-0.08,1.57c0,1.17,0.14,1.98,0.42,2.43
	S91.79,438.83,92.4,438.83z"/>
<path class="st0" d="M105.46,441.41c-0.13-0.24-0.24-0.58-0.34-1.04c-0.67,0.84-1.6,1.26-2.79,1.26c-1.1,0-2.03-0.33-2.79-0.99
	s-1.15-1.5-1.15-2.5c0-1.26,0.47-2.21,1.4-2.86s2.28-0.97,4.06-0.97h1.12v-0.62c0-1.07-0.46-1.61-1.39-1.61
	c-0.86,0-1.29,0.42-1.29,1.27h-3.62c0-1.12,0.48-2.04,1.43-2.74c0.96-0.7,2.17-1.05,3.66-1.05s2.65,0.36,3.51,1.08
	c0.86,0.72,1.3,1.72,1.32,2.98v5.15c0.01,1.07,0.18,1.88,0.49,2.45v0.18H105.46z M103.2,439.05c0.45,0,0.83-0.1,1.12-0.29
	c0.3-0.19,0.51-0.41,0.64-0.66v-1.86h-1.05c-1.26,0-1.89,0.57-1.89,1.7c0,0.33,0.11,0.6,0.33,0.8S102.85,439.05,103.2,439.05z"/>
<path class="st0" d="M117.62,433.06l-1.19-0.09c-1.14,0-1.87,0.36-2.19,1.07v7.36h-3.62v-11.62h3.39l0.12,1.49
	c0.61-1.14,1.46-1.71,2.55-1.71c0.39,0,0.72,0.04,1.01,0.13L117.62,433.06z"/>
<path class="st0" d="M118.47,435.51c0-1.84,0.4-3.29,1.19-4.35c0.79-1.06,1.91-1.59,3.33-1.59c1.04,0,1.91,0.41,2.62,1.22v-5.89
	h3.63v16.5h-3.25l-0.18-1.25c-0.75,0.97-1.69,1.46-2.84,1.46c-1.38,0-2.48-0.53-3.29-1.59
	C118.88,438.98,118.47,437.47,118.47,435.51z M122.09,435.74c0,2.06,0.6,3.09,1.8,3.09c0.8,0,1.38-0.34,1.72-1.01v-4.43
	c-0.33-0.69-0.9-1.03-1.7-1.03c-1.12,0-1.72,0.9-1.82,2.71L122.09,435.74z"/>
<path class="st0" d="M137.39,438.14c0-0.31-0.16-0.55-0.48-0.74c-0.32-0.19-0.93-0.38-1.84-0.58c-0.9-0.2-1.65-0.46-2.23-0.79
	s-1.04-0.72-1.34-1.19c-0.31-0.46-0.46-1-0.46-1.6c0-1.07,0.44-1.95,1.32-2.64s2.03-1.04,3.46-1.04c1.53,0,2.76,0.35,3.7,1.04
	c0.93,0.7,1.4,1.61,1.4,2.74h-3.63c0-0.93-0.49-1.4-1.47-1.4c-0.38,0-0.7,0.11-0.96,0.32s-0.39,0.47-0.39,0.79
	c0,0.32,0.16,0.58,0.47,0.78c0.32,0.2,0.82,0.37,1.51,0.49c0.69,0.13,1.3,0.28,1.82,0.46c1.75,0.6,2.62,1.68,2.62,3.23
	c0,1.06-0.47,1.92-1.41,2.59c-0.94,0.67-2.16,1-3.66,1c-1,0-1.88-0.18-2.66-0.54c-0.78-0.36-1.39-0.84-1.83-1.46
	c-0.44-0.62-0.66-1.26-0.66-1.94h3.38c0.01,0.54,0.19,0.93,0.54,1.18s0.78,0.37,1.32,0.37c0.49,0,0.86-0.1,1.11-0.3
	C137.26,438.73,137.39,438.47,137.39,438.14z"/>
</svg>
