<?xml version="1.0" encoding="utf-8"?>
<!-- Generator: Adobe Illustrator 25.2.1, SVG Export Plug-In . SVG Version: 6.00 Build 0)  -->
<svg version="1.1" id="Layer_1" xmlns="http://www.w3.org/2000/svg" xmlns:xlink="http://www.w3.org/1999/xlink" x="0px" y="0px"
	 viewBox="0 0 160 600" style="enable-background:new 0 0 160 600;" xml:space="preserve">
<style type="text/css">
	.st0{fill:#021D8B;}
</style>
<g>
	<path class="st0" d="M51.69,422.43c0-0.33-0.12-0.61-0.35-0.83c-0.23-0.23-0.62-0.43-1.17-0.61c-0.76-0.23-1.32-0.54-1.67-0.91
		c-0.35-0.37-0.52-0.85-0.52-1.43c0-0.59,0.17-1.07,0.51-1.45c0.34-0.38,0.81-0.6,1.41-0.67v-1.18h0.8v1.18
		c0.6,0.08,1.07,0.33,1.4,0.76c0.33,0.42,0.5,1,0.5,1.73h-0.99c0-0.51-0.12-0.91-0.36-1.21s-0.56-0.45-0.97-0.45
		c-0.43,0-0.75,0.11-0.98,0.33s-0.34,0.53-0.34,0.92c0,0.37,0.12,0.66,0.36,0.87c0.24,0.22,0.63,0.41,1.18,0.59
		c0.55,0.18,0.97,0.37,1.28,0.59c0.31,0.21,0.53,0.46,0.68,0.74c0.14,0.28,0.22,0.61,0.22,0.99c0,0.61-0.18,1.09-0.55,1.46
		c-0.36,0.37-0.87,0.59-1.53,0.66v1.03h-0.79v-1.03c-0.67-0.06-1.19-0.3-1.57-0.71c-0.38-0.41-0.57-0.98-0.57-1.68h0.99
		c0,0.5,0.13,0.88,0.39,1.15c0.26,0.27,0.63,0.4,1.11,0.4c0.47,0,0.84-0.11,1.11-0.34C51.56,423.13,51.69,422.82,51.69,422.43z"/>
	<path class="st0" d="M57.19,424.45h-1v-6.62l-2,0.74v-0.9l2.85-1.07h0.16V424.45z"/>
	<path class="st0" d="M64.27,417.23v1.41h1.08v0.77h-1.08v3.61c0,0.23,0.05,0.41,0.15,0.52c0.1,0.12,0.26,0.17,0.49,0.17
		c0.11,0,0.27-0.02,0.47-0.06v0.8c-0.26,0.07-0.52,0.11-0.76,0.11c-0.44,0-0.78-0.13-1-0.4c-0.23-0.27-0.34-0.65-0.34-1.14v-3.6
		h-1.06v-0.77h1.06v-1.41H64.27z"/>
	<path class="st0" d="M69.33,419.53c-0.15-0.03-0.31-0.04-0.49-0.04c-0.65,0-1.09,0.28-1.33,0.83v4.12h-0.99v-5.81h0.97l0.02,0.67
		c0.33-0.52,0.79-0.78,1.39-0.78c0.19,0,0.34,0.03,0.44,0.08V419.53z"/>
	<path class="st0" d="M70.24,417.09c0-0.16,0.05-0.3,0.15-0.41c0.1-0.11,0.24-0.17,0.44-0.17s0.34,0.06,0.44,0.17
		c0.1,0.11,0.15,0.25,0.15,0.41c0,0.16-0.05,0.3-0.15,0.4s-0.25,0.16-0.44,0.16s-0.34-0.05-0.44-0.16
		C70.29,417.39,70.24,417.26,70.24,417.09z M71.32,424.45h-0.99v-5.81h0.99V424.45z"/>
	<path class="st0" d="M76.5,424.45c-0.06-0.11-0.1-0.32-0.14-0.61c-0.46,0.48-1.01,0.72-1.65,0.72c-0.57,0-1.04-0.16-1.41-0.49
		c-0.37-0.32-0.55-0.73-0.55-1.23c0-0.61,0.23-1.08,0.69-1.41c0.46-0.33,1.11-0.5,1.94-0.5h0.97v-0.46c0-0.35-0.1-0.62-0.31-0.83
		s-0.51-0.31-0.92-0.31c-0.35,0-0.65,0.09-0.89,0.27c-0.24,0.18-0.36,0.4-0.36,0.65h-1c0-0.29,0.1-0.57,0.31-0.84
		c0.21-0.27,0.48-0.48,0.84-0.64c0.35-0.16,0.74-0.24,1.16-0.24c0.67,0,1.19,0.17,1.57,0.5s0.58,0.8,0.59,1.38v2.67
		c0,0.53,0.07,0.96,0.2,1.27v0.09H76.5z M74.85,423.69c0.31,0,0.61-0.08,0.89-0.24s0.48-0.37,0.61-0.63v-1.19h-0.78
		c-1.22,0-1.83,0.36-1.83,1.07c0,0.31,0.1,0.55,0.31,0.73S74.52,423.69,74.85,423.69z"/>
	<path class="st0" d="M79.97,424.45h-0.99v-8.25h0.99V424.45z"/>
	<path class="st0" d="M84.77,424.45v-5.04h-0.92v-0.77h0.92v-0.6c0-0.62,0.17-1.1,0.5-1.44s0.8-0.51,1.41-0.51
		c0.23,0,0.46,0.03,0.68,0.09l-0.05,0.8c-0.17-0.03-0.35-0.05-0.54-0.05c-0.32,0-0.57,0.09-0.75,0.28
		c-0.18,0.19-0.26,0.46-0.26,0.81v0.61h1.24v0.77h-1.24v5.04H84.77z"/>
	<path class="st0" d="M87.84,421.49c0-0.57,0.11-1.08,0.34-1.54c0.22-0.45,0.54-0.8,0.93-1.05c0.4-0.25,0.85-0.37,1.37-0.37
		c0.79,0,1.43,0.27,1.92,0.82c0.49,0.55,0.73,1.28,0.73,2.19v0.07c0,0.57-0.11,1.07-0.33,1.52s-0.53,0.8-0.93,1.05
		c-0.4,0.25-0.87,0.38-1.39,0.38c-0.79,0-1.43-0.27-1.92-0.82c-0.49-0.55-0.73-1.27-0.73-2.17V421.49z M88.84,421.61
		c0,0.64,0.15,1.16,0.45,1.55c0.3,0.39,0.7,0.59,1.2,0.59c0.5,0,0.91-0.2,1.2-0.59c0.3-0.4,0.45-0.95,0.45-1.66
		c0-0.64-0.15-1.15-0.45-1.55c-0.3-0.4-0.71-0.59-1.21-0.59c-0.49,0-0.89,0.2-1.19,0.58C88.99,420.32,88.84,420.88,88.84,421.61z"/>
	<path class="st0" d="M97.19,419.53c-0.15-0.03-0.31-0.04-0.49-0.04c-0.65,0-1.09,0.28-1.33,0.83v4.12h-0.99v-5.81h0.97l0.02,0.67
		c0.33-0.52,0.79-0.78,1.39-0.78c0.19,0,0.34,0.03,0.44,0.08V419.53z"/>
	<path class="st0" d="M102.17,417.23v1.41h1.08v0.77h-1.08v3.61c0,0.23,0.05,0.41,0.15,0.52c0.1,0.12,0.26,0.17,0.49,0.17
		c0.11,0,0.27-0.02,0.47-0.06v0.8c-0.26,0.07-0.52,0.11-0.76,0.11c-0.44,0-0.78-0.13-1-0.4c-0.23-0.27-0.34-0.65-0.34-1.14v-3.6
		h-1.06v-0.77h1.06v-1.41H102.17z"/>
	<path class="st0" d="M105.41,419.34c0.44-0.54,1.01-0.81,1.72-0.81c1.23,0,1.85,0.69,1.86,2.08v3.84h-0.99v-3.85
		c0-0.42-0.1-0.73-0.29-0.93c-0.19-0.2-0.48-0.3-0.88-0.3c-0.32,0-0.61,0.09-0.85,0.26c-0.24,0.17-0.43,0.4-0.57,0.68v4.14h-0.99
		v-8.25h0.99V419.34z"/>
	<path class="st0" d="M112.89,424.56c-0.79,0-1.43-0.26-1.92-0.78s-0.74-1.21-0.74-2.08v-0.18c0-0.58,0.11-1.09,0.33-1.54
		c0.22-0.45,0.53-0.81,0.92-1.06s0.82-0.38,1.29-0.38c0.76,0,1.34,0.25,1.76,0.75c0.42,0.5,0.63,1.21,0.63,2.14v0.41h-3.94
		c0.01,0.57,0.18,1.04,0.5,1.39s0.73,0.53,1.22,0.53c0.35,0,0.65-0.07,0.89-0.21c0.24-0.14,0.46-0.33,0.64-0.57l0.61,0.47
		C114.59,424.18,113.86,424.56,112.89,424.56z M112.76,419.35c-0.4,0-0.74,0.15-1.01,0.44s-0.44,0.7-0.5,1.23h2.91v-0.08
		c-0.03-0.5-0.17-0.9-0.41-1.17S113.18,419.35,112.76,419.35z"/>
	<path class="st0" d="M52.33,440.45v-5.04h-0.92v-0.77h0.92v-0.6c0-0.62,0.17-1.1,0.5-1.44s0.8-0.51,1.41-0.51
		c0.23,0,0.46,0.03,0.68,0.09l-0.05,0.8c-0.17-0.03-0.35-0.05-0.54-0.05c-0.32,0-0.57,0.09-0.75,0.28s-0.26,0.46-0.26,0.81v0.61
		h1.24v0.77h-1.24v5.04H52.33z"/>
	<path class="st0" d="M55.66,433.09c0-0.16,0.05-0.3,0.15-0.41c0.1-0.11,0.24-0.17,0.44-0.17s0.34,0.06,0.44,0.17
		c0.1,0.11,0.15,0.25,0.15,0.41c0,0.16-0.05,0.3-0.15,0.4s-0.25,0.16-0.44,0.16s-0.34-0.05-0.44-0.16
		C55.71,433.39,55.66,433.26,55.66,433.09z M56.74,440.45h-0.99v-5.81h0.99V440.45z"/>
	<path class="st0" d="M61.13,435.53c-0.15-0.03-0.31-0.04-0.49-0.04c-0.65,0-1.09,0.28-1.33,0.83v4.12h-0.99v-5.81h0.97l0.02,0.67
		c0.33-0.52,0.79-0.78,1.39-0.78c0.19,0,0.34,0.03,0.44,0.08V435.53z"/>
	<path class="st0" d="M65.43,438.91c0-0.27-0.1-0.48-0.3-0.63c-0.2-0.15-0.55-0.28-1.06-0.38c-0.5-0.11-0.9-0.24-1.2-0.39
		c-0.29-0.15-0.51-0.33-0.66-0.54c-0.14-0.21-0.21-0.46-0.21-0.74c0-0.48,0.2-0.88,0.6-1.21c0.4-0.33,0.92-0.49,1.54-0.49
		c0.66,0,1.19,0.17,1.6,0.51c0.41,0.34,0.61,0.77,0.61,1.3h-1c0-0.27-0.12-0.51-0.35-0.7c-0.23-0.2-0.52-0.3-0.87-0.3
		c-0.36,0-0.64,0.08-0.85,0.24S63,435.95,63,436.2c0,0.24,0.09,0.42,0.28,0.54s0.53,0.24,1.03,0.35c0.5,0.11,0.9,0.24,1.21,0.4
		c0.31,0.15,0.54,0.34,0.68,0.56c0.15,0.22,0.22,0.48,0.22,0.79c0,0.52-0.21,0.94-0.62,1.25s-0.95,0.47-1.62,0.47
		c-0.47,0-0.88-0.08-1.24-0.25s-0.64-0.39-0.84-0.69c-0.2-0.29-0.3-0.62-0.3-0.96h0.99c0.02,0.33,0.15,0.6,0.4,0.79
		c0.25,0.2,0.58,0.29,0.99,0.29c0.38,0,0.68-0.08,0.91-0.23C65.32,439.36,65.43,439.16,65.43,438.91z"/>
	<path class="st0" d="M69.07,433.23v1.41h1.08v0.77h-1.08v3.61c0,0.23,0.05,0.41,0.15,0.52c0.1,0.12,0.26,0.17,0.49,0.17
		c0.11,0,0.27-0.02,0.47-0.06v0.8c-0.26,0.07-0.52,0.11-0.76,0.11c-0.44,0-0.78-0.13-1-0.4c-0.23-0.27-0.34-0.65-0.34-1.14v-3.6
		h-1.06v-0.77h1.06v-1.41H69.07z"/>
	<path class="st0" d="M77.77,440.45h-1.82v-5.78l-1.78,0.52v-1.38l3.43-1.19h0.17V440.45z"/>
	<path class="st0" d="M84.91,437.39h0.79v1.4h-0.79v1.66H83.1v-1.66h-3.02l-0.11-1.11l3.13-5.04v-0.02h1.81V437.39z M81.7,437.39
		h1.41v-2.41l-0.11,0.18L81.7,437.39z"/>
	<path class="st0" d="M89.04,437.5c0-0.92,0.2-1.64,0.6-2.17s0.95-0.79,1.67-0.79c0.52,0,0.96,0.2,1.31,0.61v-2.94h1.82v8.25H92.8
		l-0.09-0.62c-0.37,0.49-0.85,0.73-1.42,0.73c-0.69,0-1.24-0.26-1.64-0.79C89.25,439.23,89.04,438.48,89.04,437.5z M90.85,437.61
		c0,1.03,0.3,1.55,0.9,1.55c0.4,0,0.69-0.17,0.86-0.5v-2.21c-0.17-0.34-0.45-0.52-0.85-0.52c-0.56,0-0.86,0.45-0.91,1.35
		L90.85,437.61z"/>
	<path class="st0" d="M98.73,440.45c-0.06-0.12-0.12-0.29-0.17-0.52c-0.33,0.42-0.8,0.63-1.4,0.63c-0.55,0-1.01-0.17-1.4-0.5
		c-0.38-0.33-0.57-0.75-0.57-1.25c0-0.63,0.23-1.11,0.7-1.43c0.46-0.32,1.14-0.48,2.03-0.48h0.56v-0.31c0-0.54-0.23-0.8-0.69-0.8
		c-0.43,0-0.64,0.21-0.64,0.64h-1.81c0-0.56,0.24-1.02,0.72-1.37c0.48-0.35,1.09-0.53,1.83-0.53s1.33,0.18,1.76,0.54
		c0.43,0.36,0.65,0.86,0.66,1.49v2.57c0.01,0.53,0.09,0.94,0.25,1.22v0.09H98.73z M97.6,439.27c0.23,0,0.41-0.05,0.56-0.14
		c0.15-0.1,0.26-0.21,0.32-0.33v-0.93h-0.53c-0.63,0-0.95,0.28-0.95,0.85c0,0.16,0.06,0.3,0.17,0.4
		C97.29,439.22,97.43,439.27,97.6,439.27z"/>
	<path class="st0" d="M103.62,437.91l0.97-3.28h1.94l-2.37,6.78l-0.1,0.25c-0.34,0.75-0.93,1.13-1.78,1.13
		c-0.24,0-0.49-0.04-0.75-0.11v-1.29h0.24c0.25,0,0.45-0.04,0.58-0.11c0.13-0.07,0.23-0.21,0.3-0.4l0.15-0.39l-2.02-5.87h1.93
		L103.62,437.91z"/>
	<path class="st0" d="M110.04,438.82c0-0.15-0.08-0.28-0.24-0.37c-0.16-0.09-0.47-0.19-0.92-0.29c-0.45-0.1-0.82-0.23-1.12-0.4
		c-0.29-0.16-0.52-0.36-0.67-0.59c-0.15-0.23-0.23-0.5-0.23-0.8c0-0.53,0.22-0.97,0.66-1.32s1.02-0.52,1.73-0.52
		c0.77,0,1.38,0.17,1.85,0.52c0.47,0.35,0.7,0.8,0.7,1.37h-1.82c0-0.47-0.25-0.7-0.74-0.7c-0.19,0-0.35,0.05-0.48,0.16
		s-0.19,0.24-0.19,0.39c0,0.16,0.08,0.29,0.24,0.39c0.16,0.1,0.41,0.18,0.75,0.25s0.65,0.14,0.91,0.23c0.87,0.3,1.31,0.84,1.31,1.62
		c0,0.53-0.24,0.96-0.71,1.29c-0.47,0.33-1.08,0.5-1.83,0.5c-0.5,0-0.94-0.09-1.33-0.27c-0.39-0.18-0.69-0.42-0.91-0.73
		c-0.22-0.31-0.33-0.63-0.33-0.97h1.69c0.01,0.27,0.1,0.46,0.27,0.59c0.17,0.12,0.39,0.19,0.66,0.19c0.25,0,0.43-0.05,0.56-0.15
		C109.98,439.11,110.04,438.98,110.04,438.82z"/>
	<path class="st0" d="M112.84,442.01l-0.56-0.39c0.34-0.47,0.51-0.95,0.53-1.45v-0.9h0.97v0.78c0,0.36-0.09,0.72-0.27,1.08
		C113.33,441.5,113.11,441.79,112.84,442.01z"/>
	<path class="st0" d="M28.98,453.39v3.06h-1.03v-7.82h2.88c0.86,0,1.53,0.22,2.01,0.66c0.48,0.44,0.73,1.01,0.73,1.74
		c0,0.76-0.24,1.34-0.71,1.75c-0.47,0.41-1.15,0.62-2.04,0.62H28.98z M28.98,452.54h1.85c0.55,0,0.97-0.13,1.27-0.39
		s0.44-0.64,0.44-1.13c0-0.47-0.15-0.84-0.44-1.12c-0.29-0.28-0.7-0.43-1.21-0.44h-1.91V452.54z"/>
	<path class="st0" d="M35.82,456.45h-0.99v-8.25h0.99V456.45z"/>
	<path class="st0" d="M40.99,456.45c-0.06-0.11-0.1-0.32-0.14-0.61c-0.46,0.48-1.01,0.72-1.65,0.72c-0.57,0-1.04-0.16-1.41-0.49
		c-0.37-0.32-0.55-0.73-0.55-1.23c0-0.61,0.23-1.08,0.69-1.41c0.46-0.33,1.11-0.5,1.94-0.5h0.97v-0.46c0-0.35-0.1-0.62-0.31-0.83
		s-0.51-0.31-0.92-0.31c-0.35,0-0.65,0.09-0.89,0.27c-0.24,0.18-0.36,0.4-0.36,0.65h-1c0-0.29,0.1-0.57,0.31-0.84
		c0.21-0.27,0.48-0.48,0.84-0.64c0.35-0.16,0.74-0.24,1.16-0.24c0.67,0,1.19,0.17,1.57,0.5s0.58,0.8,0.59,1.38v2.67
		c0,0.53,0.07,0.96,0.2,1.27v0.09H40.99z M39.34,455.69c0.31,0,0.61-0.08,0.89-0.24s0.48-0.37,0.61-0.63v-1.19h-0.78
		c-1.22,0-1.83,0.36-1.83,1.07c0,0.31,0.1,0.55,0.31,0.73S39.02,455.69,39.34,455.69z"/>
	<path class="st0" d="M44.33,450.64l0.03,0.73c0.44-0.56,1.02-0.84,1.74-0.84c1.23,0,1.85,0.69,1.86,2.08v3.84h-0.99v-3.85
		c0-0.42-0.1-0.73-0.29-0.93c-0.19-0.2-0.48-0.3-0.88-0.3c-0.32,0-0.6,0.09-0.85,0.26s-0.43,0.4-0.57,0.68v4.14h-0.99v-5.81H44.33z"
		/>
	<path class="st0" d="M52.84,454.91c0-0.27-0.1-0.48-0.3-0.63c-0.2-0.15-0.55-0.28-1.06-0.38c-0.5-0.11-0.9-0.24-1.2-0.39
		c-0.29-0.15-0.51-0.33-0.66-0.54c-0.14-0.21-0.21-0.46-0.21-0.74c0-0.48,0.2-0.88,0.6-1.21c0.4-0.33,0.92-0.49,1.54-0.49
		c0.66,0,1.19,0.17,1.6,0.51c0.41,0.34,0.61,0.77,0.61,1.3h-1c0-0.27-0.12-0.51-0.35-0.7c-0.23-0.2-0.52-0.3-0.87-0.3
		c-0.36,0-0.64,0.08-0.85,0.24s-0.31,0.36-0.31,0.62c0,0.24,0.09,0.42,0.28,0.54s0.53,0.24,1.03,0.35c0.5,0.11,0.9,0.24,1.21,0.4
		c0.31,0.15,0.54,0.34,0.68,0.56c0.15,0.22,0.22,0.48,0.22,0.79c0,0.52-0.21,0.94-0.62,1.25s-0.95,0.47-1.62,0.47
		c-0.47,0-0.88-0.08-1.24-0.25s-0.64-0.39-0.84-0.69c-0.2-0.29-0.3-0.62-0.3-0.96h0.99c0.02,0.33,0.15,0.6,0.4,0.79
		c0.25,0.2,0.58,0.29,0.99,0.29c0.38,0,0.68-0.08,0.91-0.23C52.73,455.36,52.84,455.16,52.84,454.91z"/>
	<path class="st0" d="M61.24,454.91c0-0.27-0.1-0.48-0.3-0.63c-0.2-0.15-0.55-0.28-1.06-0.38c-0.5-0.11-0.9-0.24-1.2-0.39
		c-0.29-0.15-0.51-0.33-0.66-0.54c-0.14-0.21-0.21-0.46-0.21-0.74c0-0.48,0.2-0.88,0.6-1.21c0.4-0.33,0.92-0.49,1.54-0.49
		c0.66,0,1.19,0.17,1.6,0.51c0.41,0.34,0.61,0.77,0.61,1.3h-1c0-0.27-0.12-0.51-0.35-0.7c-0.23-0.2-0.52-0.3-0.87-0.3
		c-0.36,0-0.64,0.08-0.85,0.24s-0.31,0.36-0.31,0.62c0,0.24,0.09,0.42,0.28,0.54s0.53,0.24,1.03,0.35c0.5,0.11,0.9,0.24,1.21,0.4
		c0.31,0.15,0.54,0.34,0.68,0.56c0.15,0.22,0.22,0.48,0.22,0.79c0,0.52-0.21,0.94-0.62,1.25s-0.95,0.47-1.62,0.47
		c-0.47,0-0.88-0.08-1.24-0.25s-0.64-0.39-0.84-0.69c-0.2-0.29-0.3-0.62-0.3-0.96h0.99c0.02,0.33,0.15,0.6,0.4,0.79
		c0.25,0.2,0.58,0.29,0.99,0.29c0.38,0,0.68-0.08,0.91-0.23C61.12,455.36,61.24,455.16,61.24,454.91z"/>
	<path class="st0" d="M64.87,449.23v1.41h1.08v0.77h-1.08v3.61c0,0.23,0.05,0.41,0.15,0.52c0.1,0.12,0.26,0.17,0.49,0.17
		c0.11,0,0.27-0.02,0.47-0.06v0.8c-0.26,0.07-0.52,0.11-0.76,0.11c-0.44,0-0.78-0.13-1-0.4c-0.23-0.27-0.34-0.65-0.34-1.14v-3.6
		h-1.06v-0.77h1.06v-1.41H64.87z"/>
	<path class="st0" d="M70.71,456.45c-0.06-0.11-0.1-0.32-0.14-0.61c-0.46,0.48-1.01,0.72-1.65,0.72c-0.57,0-1.04-0.16-1.41-0.49
		c-0.37-0.32-0.55-0.73-0.55-1.23c0-0.61,0.23-1.08,0.69-1.41c0.46-0.33,1.11-0.5,1.94-0.5h0.97v-0.46c0-0.35-0.1-0.62-0.31-0.83
		s-0.51-0.31-0.92-0.31c-0.35,0-0.65,0.09-0.89,0.27c-0.24,0.18-0.36,0.4-0.36,0.65h-1c0-0.29,0.1-0.57,0.31-0.84
		c0.21-0.27,0.48-0.48,0.84-0.64c0.35-0.16,0.74-0.24,1.16-0.24c0.67,0,1.19,0.17,1.57,0.5s0.58,0.8,0.59,1.38v2.67
		c0,0.53,0.07,0.96,0.2,1.27v0.09H70.71z M69.06,455.69c0.31,0,0.61-0.08,0.89-0.24s0.48-0.37,0.61-0.63v-1.19h-0.78
		c-1.22,0-1.83,0.36-1.83,1.07c0,0.31,0.1,0.55,0.31,0.73S68.73,455.69,69.06,455.69z"/>
	<path class="st0" d="M75.91,451.53c-0.15-0.03-0.31-0.04-0.49-0.04c-0.65,0-1.09,0.28-1.33,0.83v4.12H73.1v-5.81h0.97l0.02,0.67
		c0.33-0.52,0.79-0.78,1.39-0.78c0.19,0,0.34,0.03,0.44,0.08V451.53z"/>
	<path class="st0" d="M78.44,449.23v1.41h1.08v0.77h-1.08v3.61c0,0.23,0.05,0.41,0.15,0.52c0.1,0.12,0.26,0.17,0.49,0.17
		c0.11,0,0.27-0.02,0.47-0.06v0.8c-0.26,0.07-0.52,0.11-0.76,0.11c-0.44,0-0.78-0.13-1-0.4c-0.23-0.27-0.34-0.65-0.34-1.14v-3.6
		h-1.06v-0.77h1.06v-1.41H78.44z"/>
	<path class="st0" d="M80.69,449.09c0-0.16,0.05-0.3,0.15-0.41c0.1-0.11,0.24-0.17,0.44-0.17s0.34,0.06,0.44,0.17
		c0.1,0.11,0.15,0.25,0.15,0.41c0,0.16-0.05,0.3-0.15,0.4c-0.1,0.11-0.25,0.16-0.44,0.16s-0.34-0.05-0.44-0.16
		C80.74,449.39,80.69,449.26,80.69,449.09z M81.77,456.45h-0.99v-5.81h0.99V456.45z"/>
	<path class="st0" d="M84.29,450.64l0.03,0.73c0.44-0.56,1.02-0.84,1.74-0.84c1.23,0,1.85,0.69,1.86,2.08v3.84h-0.99v-3.85
		c0-0.42-0.1-0.73-0.29-0.93c-0.19-0.2-0.48-0.3-0.88-0.3c-0.32,0-0.6,0.09-0.85,0.26c-0.24,0.17-0.43,0.4-0.57,0.68v4.14h-0.99
		v-5.81H84.29z"/>
	<path class="st0" d="M89.19,453.49c0-0.91,0.21-1.63,0.63-2.16s0.97-0.8,1.67-0.8c0.71,0,1.26,0.25,1.66,0.75l0.05-0.64h0.91v5.67
		c0,0.75-0.22,1.34-0.67,1.78c-0.45,0.43-1.04,0.65-1.8,0.65c-0.42,0-0.83-0.09-1.23-0.27c-0.4-0.18-0.71-0.42-0.92-0.74l0.52-0.6
		c0.43,0.53,0.95,0.79,1.56,0.79c0.48,0,0.86-0.14,1.13-0.41c0.27-0.27,0.41-0.65,0.41-1.15v-0.5c-0.4,0.46-0.94,0.69-1.63,0.69
		c-0.68,0-1.23-0.27-1.65-0.82C89.4,455.19,89.19,454.44,89.19,453.49z M90.19,453.61c0,0.66,0.13,1.17,0.4,1.54
		s0.64,0.56,1.13,0.56c0.63,0,1.09-0.28,1.38-0.85v-2.65c-0.3-0.55-0.76-0.83-1.37-0.83c-0.48,0-0.86,0.19-1.13,0.56
		C90.32,452.31,90.19,452.87,90.19,453.61z"/>
	<path class="st0" d="M101.91,456.45c-0.06-0.11-0.1-0.32-0.14-0.61c-0.46,0.48-1.01,0.72-1.65,0.72c-0.57,0-1.04-0.16-1.41-0.49
		s-0.55-0.73-0.55-1.23c0-0.61,0.23-1.08,0.69-1.41s1.11-0.5,1.94-0.5h0.97v-0.46c0-0.35-0.1-0.62-0.31-0.83
		c-0.21-0.21-0.51-0.31-0.92-0.31c-0.35,0-0.65,0.09-0.89,0.27c-0.24,0.18-0.36,0.4-0.36,0.65h-1c0-0.29,0.1-0.57,0.31-0.84
		c0.21-0.27,0.48-0.48,0.84-0.64c0.35-0.16,0.74-0.24,1.16-0.24c0.67,0,1.19,0.17,1.57,0.5c0.38,0.33,0.58,0.8,0.59,1.38v2.67
		c0,0.53,0.07,0.96,0.2,1.27v0.09H101.91z M100.26,455.69c0.31,0,0.61-0.08,0.89-0.24s0.48-0.37,0.61-0.63v-1.19h-0.78
		c-1.22,0-1.83,0.36-1.83,1.07c0,0.31,0.1,0.55,0.31,0.73C99.67,455.6,99.93,455.69,100.26,455.69z"/>
	<path class="st0" d="M105.65,449.23v1.41h1.08v0.77h-1.08v3.61c0,0.23,0.05,0.41,0.15,0.52c0.1,0.12,0.26,0.17,0.49,0.17
		c0.11,0,0.27-0.02,0.47-0.06v0.8c-0.26,0.07-0.52,0.11-0.76,0.11c-0.44,0-0.78-0.13-1-0.4c-0.23-0.27-0.34-0.65-0.34-1.14v-3.6
		h-1.06v-0.77h1.06v-1.41H105.65z"/>
	<path class="st0" d="M114.13,454.39c0-0.29-0.08-0.53-0.24-0.7s-0.44-0.33-0.83-0.48c-0.39-0.15-0.73-0.29-1.01-0.44
		c-0.28-0.14-0.53-0.31-0.73-0.5c-0.2-0.19-0.36-0.41-0.47-0.66c-0.11-0.25-0.17-0.56-0.17-0.91c0-0.61,0.19-1.1,0.58-1.49
		s0.9-0.61,1.54-0.68v-1.15h0.86v1.17c0.63,0.09,1.13,0.35,1.49,0.79c0.36,0.44,0.54,1.01,0.54,1.71h-1.55
		c0-0.43-0.09-0.75-0.27-0.96c-0.18-0.21-0.42-0.32-0.71-0.32c-0.29,0-0.52,0.08-0.68,0.25c-0.16,0.17-0.24,0.4-0.24,0.69
		c0,0.27,0.08,0.49,0.24,0.66c0.16,0.16,0.45,0.33,0.88,0.5s0.78,0.33,1.06,0.49s0.51,0.32,0.7,0.52s0.33,0.41,0.43,0.66
		c0.1,0.25,0.15,0.53,0.15,0.86c0,0.61-0.19,1.1-0.57,1.48c-0.38,0.38-0.9,0.6-1.57,0.67v1.07h-0.85v-1.06
		c-0.73-0.08-1.3-0.34-1.71-0.78c-0.4-0.44-0.6-1.03-0.6-1.76h1.55c0,0.43,0.1,0.75,0.3,0.98s0.49,0.34,0.87,0.34
		c0.32,0,0.56-0.08,0.75-0.25C114.04,454.9,114.13,454.67,114.13,454.39z"/>
	<path class="st0" d="M120.36,453.32c-0.4,0.4-0.88,0.6-1.42,0.6c-0.69,0-1.24-0.24-1.66-0.71s-0.62-1.11-0.62-1.92
		c0-0.51,0.11-0.98,0.34-1.41s0.54-0.76,0.94-1c0.4-0.24,0.85-0.36,1.35-0.36c0.52,0,0.97,0.13,1.38,0.39
		c0.4,0.26,0.71,0.63,0.94,1.11c0.22,0.48,0.33,1.04,0.34,1.66v0.57c0,1.3-0.32,2.33-0.97,3.07c-0.65,0.75-1.57,1.14-2.75,1.19
		l-0.38,0v-1.29l0.34-0.01C119.52,455.16,120.25,454.53,120.36,453.32z M119.32,452.73c0.25,0,0.47-0.06,0.65-0.19
		s0.32-0.29,0.41-0.47v-0.64c0-0.53-0.1-0.93-0.3-1.22c-0.2-0.29-0.47-0.43-0.8-0.43c-0.31,0-0.57,0.14-0.77,0.43
		c-0.2,0.28-0.3,0.64-0.3,1.07c0,0.43,0.1,0.78,0.29,1.05C118.69,452.59,118.97,452.73,119.32,452.73z"/>
	<path class="st0" d="M123.18,455.69c0-0.25,0.08-0.45,0.25-0.6c0.17-0.15,0.38-0.23,0.63-0.23c0.25,0,0.46,0.08,0.63,0.23
		c0.17,0.15,0.25,0.35,0.25,0.6c0,0.24-0.08,0.44-0.25,0.59c-0.16,0.15-0.38,0.23-0.63,0.23c-0.25,0-0.46-0.08-0.63-0.23
		S123.18,455.93,123.18,455.69z"/>
	<path class="st0" d="M129.86,453.32c-0.4,0.4-0.88,0.6-1.42,0.6c-0.69,0-1.24-0.24-1.66-0.71s-0.62-1.11-0.62-1.92
		c0-0.51,0.11-0.98,0.34-1.41s0.54-0.76,0.94-1c0.4-0.24,0.85-0.36,1.35-0.36c0.52,0,0.97,0.13,1.38,0.39
		c0.4,0.26,0.71,0.63,0.94,1.11c0.22,0.48,0.33,1.04,0.34,1.66v0.57c0,1.3-0.32,2.33-0.97,3.07c-0.65,0.75-1.57,1.14-2.75,1.19
		l-0.38,0v-1.29l0.34-0.01C129.02,455.16,129.75,454.53,129.86,453.32z M128.83,452.73c0.25,0,0.47-0.06,0.65-0.19
		s0.32-0.29,0.41-0.47v-0.64c0-0.53-0.1-0.93-0.3-1.22c-0.2-0.29-0.47-0.43-0.8-0.43c-0.31,0-0.57,0.14-0.77,0.43
		c-0.2,0.28-0.3,0.64-0.3,1.07c0,0.43,0.1,0.78,0.29,1.05C128.2,452.59,128.47,452.73,128.83,452.73z"/>
	<path class="st0" d="M136.17,453.32c-0.4,0.4-0.88,0.6-1.42,0.6c-0.69,0-1.24-0.24-1.66-0.71s-0.62-1.11-0.62-1.92
		c0-0.51,0.11-0.98,0.34-1.41s0.54-0.76,0.94-1c0.4-0.24,0.85-0.36,1.35-0.36c0.52,0,0.97,0.13,1.38,0.39
		c0.4,0.26,0.71,0.63,0.94,1.11c0.22,0.48,0.33,1.04,0.34,1.66v0.57c0,1.3-0.32,2.33-0.97,3.07c-0.65,0.75-1.57,1.14-2.75,1.19
		l-0.38,0v-1.29l0.34-0.01C135.33,455.16,136.06,454.53,136.17,453.32z M135.14,452.73c0.25,0,0.47-0.06,0.65-0.19
		s0.32-0.29,0.41-0.47v-0.64c0-0.53-0.1-0.93-0.3-1.22c-0.2-0.29-0.47-0.43-0.8-0.43c-0.31,0-0.57,0.14-0.77,0.43
		c-0.2,0.28-0.3,0.64-0.3,1.07c0,0.43,0.1,0.78,0.29,1.05C134.51,452.59,134.78,452.73,135.14,452.73z"/>
	<path class="st0" d="M43.08,465.23v1.41h1.08v0.77h-1.08v3.61c0,0.23,0.05,0.41,0.15,0.52c0.1,0.12,0.26,0.17,0.49,0.17
		c0.11,0,0.27-0.02,0.47-0.06v0.8c-0.26,0.07-0.52,0.11-0.76,0.11c-0.44,0-0.78-0.13-1-0.4c-0.23-0.27-0.34-0.65-0.34-1.14v-3.6
		h-1.06v-0.77h1.06v-1.41H43.08z"/>
	<path class="st0" d="M44.96,469.49c0-0.57,0.11-1.08,0.34-1.54c0.22-0.45,0.54-0.8,0.93-1.05c0.4-0.25,0.85-0.37,1.37-0.37
		c0.79,0,1.43,0.27,1.92,0.82c0.49,0.55,0.73,1.28,0.73,2.19v0.07c0,0.57-0.11,1.07-0.33,1.52c-0.22,0.45-0.53,0.8-0.93,1.05
		c-0.4,0.25-0.87,0.38-1.39,0.38c-0.79,0-1.43-0.27-1.92-0.82c-0.49-0.55-0.73-1.27-0.73-2.17V469.49z M45.96,469.61
		c0,0.64,0.15,1.16,0.45,1.55c0.3,0.39,0.7,0.59,1.2,0.59c0.5,0,0.91-0.2,1.2-0.59s0.45-0.95,0.45-1.66c0-0.64-0.15-1.15-0.45-1.55
		c-0.3-0.4-0.7-0.59-1.21-0.59c-0.49,0-0.89,0.2-1.19,0.58C46.11,468.32,45.96,468.88,45.96,469.61z"/>
	<path class="st0" d="M57.71,470.39c0-0.29-0.08-0.53-0.24-0.7c-0.16-0.17-0.44-0.33-0.83-0.48c-0.39-0.15-0.73-0.29-1.01-0.44
		c-0.28-0.14-0.53-0.31-0.73-0.5c-0.2-0.19-0.36-0.41-0.47-0.66c-0.11-0.25-0.17-0.56-0.17-0.91c0-0.61,0.19-1.1,0.58-1.49
		s0.9-0.61,1.54-0.68v-1.15h0.86v1.17c0.63,0.09,1.13,0.35,1.49,0.79s0.54,1.01,0.54,1.71h-1.55c0-0.43-0.09-0.75-0.27-0.96
		c-0.18-0.21-0.41-0.32-0.71-0.32c-0.29,0-0.52,0.08-0.68,0.25c-0.16,0.17-0.24,0.4-0.24,0.69c0,0.27,0.08,0.49,0.24,0.66
		c0.16,0.16,0.45,0.33,0.88,0.5c0.43,0.17,0.78,0.33,1.06,0.49s0.51,0.32,0.7,0.52s0.33,0.41,0.44,0.66s0.15,0.53,0.15,0.86
		c0,0.61-0.19,1.1-0.57,1.48c-0.38,0.38-0.9,0.6-1.57,0.67v1.07h-0.85v-1.06c-0.73-0.08-1.3-0.34-1.71-0.78
		c-0.4-0.44-0.6-1.03-0.6-1.76h1.55c0,0.43,0.1,0.75,0.3,0.98c0.2,0.23,0.49,0.34,0.87,0.34c0.31,0,0.56-0.08,0.75-0.25
		C57.62,470.9,57.71,470.67,57.71,470.39z"/>
	<path class="st0" d="M65.67,472.45h-5.36v-1.06l2.53-2.7c0.35-0.38,0.6-0.71,0.77-0.99c0.17-0.28,0.25-0.55,0.25-0.8
		c0-0.35-0.09-0.62-0.26-0.82c-0.18-0.2-0.43-0.3-0.75-0.3c-0.35,0-0.63,0.12-0.83,0.36c-0.2,0.24-0.3,0.56-0.3,0.95h-1.56
		c0-0.48,0.11-0.91,0.34-1.31c0.23-0.39,0.55-0.7,0.96-0.93s0.89-0.34,1.41-0.34c0.81,0,1.43,0.19,1.88,0.58
		c0.45,0.39,0.67,0.93,0.67,1.64c0,0.39-0.1,0.78-0.3,1.18c-0.2,0.4-0.54,0.87-1.03,1.4l-1.78,1.87h3.36V472.45z"/>
	<path class="st0" d="M71.21,469.5h0.89v1.25h-0.89v1.69h-1.55v-1.69h-3.21l-0.07-0.98l3.26-5.15h1.57V469.5z M67.93,469.5h1.73
		v-2.76l-0.1,0.18L67.93,469.5z"/>
	<path class="st0" d="M73.07,471.69c0-0.25,0.08-0.45,0.25-0.6c0.17-0.15,0.38-0.23,0.63-0.23c0.25,0,0.46,0.08,0.63,0.23
		c0.17,0.15,0.25,0.35,0.25,0.6c0,0.24-0.08,0.44-0.25,0.59s-0.38,0.23-0.63,0.23c-0.25,0-0.46-0.08-0.63-0.23
		S73.07,471.93,73.07,471.69z"/>
	<path class="st0" d="M79.76,469.32c-0.4,0.4-0.88,0.6-1.42,0.6c-0.69,0-1.24-0.24-1.66-0.71s-0.62-1.11-0.62-1.92
		c0-0.51,0.11-0.98,0.34-1.41c0.22-0.43,0.54-0.76,0.94-1s0.85-0.36,1.35-0.36c0.52,0,0.97,0.13,1.38,0.39s0.71,0.63,0.93,1.11
		c0.22,0.48,0.34,1.04,0.34,1.66v0.57c0,1.3-0.32,2.33-0.97,3.07c-0.65,0.75-1.57,1.14-2.76,1.19l-0.38,0v-1.29l0.34-0.01
		C78.92,471.16,79.65,470.53,79.76,469.32z M78.72,468.73c0.25,0,0.47-0.06,0.65-0.19c0.18-0.13,0.32-0.29,0.41-0.47v-0.64
		c0-0.53-0.1-0.93-0.3-1.22s-0.47-0.43-0.81-0.43c-0.31,0-0.57,0.14-0.77,0.43c-0.2,0.28-0.3,0.64-0.3,1.07
		c0,0.43,0.1,0.78,0.29,1.05C78.09,468.59,78.37,468.73,78.72,468.73z"/>
	<path class="st0" d="M86.07,469.32c-0.4,0.4-0.88,0.6-1.42,0.6c-0.69,0-1.24-0.24-1.66-0.71c-0.42-0.47-0.62-1.11-0.62-1.92
		c0-0.51,0.11-0.98,0.34-1.41c0.22-0.43,0.54-0.76,0.94-1c0.4-0.24,0.85-0.36,1.35-0.36c0.52,0,0.97,0.13,1.38,0.39
		c0.4,0.26,0.71,0.63,0.93,1.11c0.22,0.48,0.33,1.04,0.34,1.66v0.57c0,1.3-0.32,2.33-0.97,3.07c-0.65,0.75-1.57,1.14-2.75,1.19
		l-0.38,0v-1.29l0.34-0.01C85.23,471.16,85.96,470.53,86.07,469.32z M85.03,468.73c0.25,0,0.47-0.06,0.65-0.19
		c0.18-0.13,0.32-0.29,0.41-0.47v-0.64c0-0.53-0.1-0.93-0.3-1.22c-0.2-0.29-0.47-0.43-0.81-0.43c-0.31,0-0.57,0.14-0.77,0.43
		c-0.2,0.28-0.3,0.64-0.3,1.07c0,0.43,0.1,0.78,0.29,1.05C84.4,468.59,84.68,468.73,85.03,468.73z"/>
	<path class="st0" d="M89.17,473.12h-0.85l3.27-8.49h0.85L89.17,473.12z"/>
	<path class="st0" d="M94.44,466.64l0.03,0.64c0.43-0.5,1-0.75,1.72-0.75c0.81,0,1.37,0.31,1.66,0.93c0.19-0.28,0.44-0.5,0.75-0.68
		c0.31-0.17,0.68-0.26,1.1-0.26c1.28,0,1.92,0.67,1.94,2.02v3.89h-0.99v-3.83c0-0.42-0.09-0.73-0.29-0.93
		c-0.19-0.21-0.51-0.31-0.96-0.31c-0.37,0-0.67,0.11-0.92,0.33c-0.24,0.22-0.38,0.52-0.42,0.89v3.86h-1v-3.81
		c0-0.84-0.41-1.27-1.24-1.27c-0.65,0-1.1,0.28-1.34,0.83v4.24H93.5v-5.81H94.44z"/>
	<path class="st0" d="M102.88,469.49c0-0.57,0.11-1.08,0.34-1.54c0.22-0.45,0.54-0.8,0.93-1.05c0.4-0.25,0.85-0.37,1.37-0.37
		c0.79,0,1.43,0.27,1.92,0.82c0.49,0.55,0.73,1.28,0.73,2.19v0.07c0,0.57-0.11,1.07-0.33,1.52s-0.53,0.8-0.93,1.05
		c-0.4,0.25-0.87,0.38-1.39,0.38c-0.79,0-1.43-0.27-1.92-0.82c-0.49-0.55-0.73-1.27-0.73-2.17V469.49z M103.88,469.61
		c0,0.64,0.15,1.16,0.45,1.55c0.3,0.39,0.7,0.59,1.2,0.59c0.5,0,0.91-0.2,1.2-0.59c0.3-0.4,0.45-0.95,0.45-1.66
		c0-0.64-0.15-1.15-0.45-1.55c-0.3-0.4-0.71-0.59-1.21-0.59c-0.49,0-0.89,0.2-1.19,0.58C104.03,468.32,103.88,468.88,103.88,469.61z
		"/>
	<path class="st0" d="M110.35,466.64l0.03,0.73c0.44-0.56,1.02-0.84,1.74-0.84c1.23,0,1.85,0.69,1.86,2.08v3.84h-0.99v-3.85
		c0-0.42-0.1-0.73-0.29-0.93c-0.19-0.2-0.48-0.3-0.88-0.3c-0.32,0-0.61,0.09-0.85,0.26c-0.24,0.17-0.43,0.4-0.57,0.68v4.14h-0.99
		v-5.81H110.35z"/>
	<path class="st0" d="M116.83,465.23v1.41h1.09v0.77h-1.09v3.61c0,0.23,0.05,0.41,0.15,0.52c0.1,0.12,0.26,0.17,0.49,0.17
		c0.11,0,0.27-0.02,0.47-0.06v0.8c-0.26,0.07-0.52,0.11-0.76,0.11c-0.44,0-0.78-0.13-1-0.4c-0.23-0.27-0.34-0.65-0.34-1.14v-3.6
		h-1.06v-0.77h1.06v-1.41H116.83z"/>
	<path class="st0" d="M120.07,467.34c0.44-0.54,1.01-0.81,1.72-0.81c1.23,0,1.85,0.69,1.86,2.08v3.84h-0.99v-3.85
		c0-0.42-0.1-0.73-0.29-0.93c-0.19-0.2-0.48-0.3-0.88-0.3c-0.32,0-0.61,0.09-0.85,0.26c-0.24,0.17-0.43,0.4-0.57,0.68v4.14h-0.99
		v-8.25h0.99V467.34z"/>
</g>
</svg>
