<?xml version="1.0" encoding="utf-8"?>
<!-- Generator: Adobe Illustrator 24.2.3, SVG Export Plug-In . SVG Version: 6.00 Build 0)  -->
<svg version="1.1" id="Layer_1" xmlns="http://www.w3.org/2000/svg" xmlns:xlink="http://www.w3.org/1999/xlink" x="0px" y="0px"
	 viewBox="0 0 970 250" style="enable-background:new 0 0 970 250;" xml:space="preserve">
<style type="text/css">
	.st0{fill:#E82D8A;}
	.st1{fill:#EDF4FD;}
</style>
<rect x="690.49" class="st0" width="279.51" height="250"/>
<g>
	<path class="st1" d="M739.43,158.7c0-0.48-0.17-0.88-0.5-1.21s-0.9-0.62-1.7-0.89c-1.11-0.34-1.92-0.78-2.43-1.32
		c-0.51-0.54-0.76-1.23-0.76-2.07c0-0.85,0.25-1.55,0.75-2.1s1.18-0.87,2.05-0.98v-1.71H738v1.72c0.88,0.12,1.56,0.49,2.04,1.1
		c0.49,0.62,0.73,1.46,0.73,2.52h-1.44c0-0.74-0.17-1.32-0.52-1.76c-0.35-0.43-0.82-0.65-1.41-0.65c-0.62,0-1.09,0.16-1.42,0.48
		c-0.33,0.32-0.49,0.77-0.49,1.34c0,0.53,0.17,0.96,0.52,1.27c0.35,0.32,0.92,0.6,1.71,0.86s1.41,0.54,1.86,0.85
		c0.45,0.31,0.77,0.67,0.98,1.08c0.21,0.41,0.32,0.89,0.32,1.45c0,0.88-0.26,1.59-0.79,2.12c-0.53,0.54-1.27,0.85-2.22,0.95v1.49
		h-1.16v-1.49c-0.97-0.09-1.73-0.43-2.28-1.04s-0.82-1.42-0.82-2.45h1.45c0,0.72,0.19,1.28,0.57,1.67s0.92,0.59,1.62,0.59
		c0.68,0,1.22-0.16,1.61-0.49S739.43,159.27,739.43,158.7z"/>
	<path class="st1" d="M747.42,161.63h-1.45V152l-2.91,1.07v-1.31l4.14-1.55h0.23V161.63z"/>
	<path class="st1" d="M757.73,151.13v2.05h1.58v1.12h-1.58v5.25c0,0.34,0.07,0.59,0.21,0.76s0.38,0.25,0.72,0.25
		c0.17,0,0.4-0.03,0.69-0.09v1.17c-0.38,0.1-0.75,0.15-1.11,0.15c-0.65,0-1.13-0.2-1.46-0.59s-0.49-0.95-0.49-1.66v-5.24h-1.54
		v-1.12h1.54v-2.05H757.73z"/>
	<path class="st1" d="M765.08,154.48c-0.22-0.04-0.46-0.05-0.71-0.05c-0.95,0-1.59,0.4-1.93,1.21v6h-1.45v-8.45h1.41l0.02,0.98
		c0.47-0.75,1.15-1.13,2.02-1.13c0.28,0,0.5,0.04,0.64,0.11V154.48z"/>
	<path class="st1" d="M766.42,150.94c0-0.23,0.07-0.43,0.21-0.59c0.14-0.16,0.36-0.24,0.64-0.24s0.5,0.08,0.64,0.24
		c0.15,0.16,0.22,0.36,0.22,0.59s-0.07,0.43-0.22,0.59s-0.36,0.23-0.64,0.23s-0.49-0.08-0.64-0.23S766.42,151.17,766.42,150.94z
		 M767.98,161.63h-1.45v-8.45h1.45V161.63z"/>
	<path class="st1" d="M775.51,161.63c-0.08-0.17-0.15-0.46-0.2-0.89c-0.67,0.7-1.47,1.05-2.41,1.05c-0.83,0-1.52-0.23-2.05-0.71
		c-0.53-0.47-0.8-1.07-0.8-1.79c0-0.88,0.33-1.56,1-2.05c0.67-0.49,1.61-0.73,2.82-0.73h1.41v-0.66c0-0.5-0.15-0.91-0.45-1.21
		c-0.3-0.3-0.75-0.45-1.34-0.45c-0.52,0-0.95,0.13-1.3,0.39c-0.35,0.26-0.52,0.58-0.52,0.95h-1.45c0-0.42,0.15-0.83,0.45-1.22
		c0.3-0.39,0.71-0.7,1.22-0.93c0.51-0.23,1.08-0.34,1.69-0.34c0.97,0,1.74,0.24,2.29,0.73c0.55,0.49,0.84,1.16,0.86,2.01v3.89
		c0,0.78,0.1,1.39,0.3,1.85v0.12H775.51z M773.11,160.53c0.45,0,0.88-0.12,1.29-0.35s0.7-0.54,0.88-0.91v-1.73h-1.13
		c-1.77,0-2.66,0.52-2.66,1.55c0,0.45,0.15,0.81,0.45,1.06C772.25,160.4,772.64,160.53,773.11,160.53z"/>
	<path class="st1" d="M780.56,161.63h-1.45v-12h1.45V161.63z"/>
	<path class="st1" d="M787.55,161.63v-7.34h-1.34v-1.12h1.34v-0.87c0-0.91,0.24-1.61,0.73-2.1c0.48-0.49,1.17-0.74,2.05-0.74
		c0.33,0,0.66,0.04,0.99,0.13l-0.08,1.16c-0.25-0.05-0.5-0.07-0.78-0.07c-0.47,0-0.83,0.14-1.09,0.41
		c-0.25,0.27-0.38,0.67-0.38,1.18v0.89h1.8v1.12h-1.8v7.34H787.55z"/>
	<path class="st1" d="M792.01,157.33c0-0.83,0.16-1.57,0.49-2.23c0.33-0.66,0.78-1.17,1.36-1.53s1.24-0.54,1.99-0.54
		c1.15,0,2.08,0.4,2.79,1.2s1.07,1.86,1.07,3.18v0.1c0,0.82-0.16,1.56-0.47,2.21c-0.32,0.65-0.77,1.16-1.35,1.53
		c-0.59,0.37-1.26,0.55-2.02,0.55c-1.15,0-2.07-0.4-2.79-1.2s-1.07-1.85-1.07-3.16V157.33z M793.46,157.5
		c0,0.94,0.22,1.69,0.65,2.26c0.43,0.57,1.02,0.85,1.75,0.85c0.73,0,1.32-0.29,1.75-0.86c0.43-0.57,0.65-1.38,0.65-2.42
		c0-0.93-0.22-1.68-0.66-2.25c-0.44-0.57-1.02-0.86-1.75-0.86c-0.71,0-1.29,0.29-1.73,0.85
		C793.68,155.63,793.46,156.44,793.46,157.5z"/>
	<path class="st1" d="M805.6,154.48c-0.22-0.04-0.46-0.05-0.71-0.05c-0.95,0-1.59,0.4-1.93,1.21v6h-1.45v-8.45h1.41l0.02,0.98
		c0.47-0.75,1.15-1.13,2.02-1.13c0.28,0,0.5,0.04,0.64,0.11V154.48z"/>
	<path class="st1" d="M812.85,151.13v2.05h1.58v1.12h-1.58v5.25c0,0.34,0.07,0.59,0.21,0.76s0.38,0.25,0.72,0.25
		c0.17,0,0.4-0.03,0.69-0.09v1.17c-0.38,0.1-0.75,0.15-1.11,0.15c-0.65,0-1.13-0.2-1.46-0.59s-0.49-0.95-0.49-1.66v-5.24h-1.54
		v-1.12h1.54v-2.05H812.85z"/>
	<path class="st1" d="M817.56,154.2c0.64-0.79,1.47-1.18,2.5-1.18c1.79,0,2.69,1.01,2.7,3.02v5.59h-1.45v-5.59
		c0-0.61-0.14-1.06-0.42-1.35c-0.27-0.29-0.7-0.44-1.28-0.44c-0.47,0-0.88,0.12-1.23,0.38s-0.63,0.58-0.83,0.98v6.02h-1.45v-12h1.45
		V154.2z"/>
	<path class="st1" d="M828.44,161.79c-1.15,0-2.08-0.38-2.8-1.13c-0.72-0.75-1.08-1.76-1.08-3.02v-0.27c0-0.84,0.16-1.59,0.48-2.25
		c0.32-0.66,0.77-1.17,1.34-1.55c0.58-0.37,1.2-0.56,1.87-0.56c1.1,0,1.95,0.36,2.56,1.09c0.61,0.72,0.91,1.76,0.91,3.11v0.6h-5.73
		c0.02,0.83,0.26,1.51,0.73,2.02c0.47,0.51,1.06,0.77,1.78,0.77c0.51,0,0.94-0.1,1.3-0.31c0.35-0.21,0.66-0.48,0.93-0.83l0.88,0.69
		C830.92,161.25,829.86,161.79,828.44,161.79z M828.26,154.21c-0.58,0-1.07,0.21-1.47,0.64c-0.4,0.43-0.64,1.02-0.73,1.79h4.23
		v-0.11c-0.04-0.73-0.24-1.3-0.59-1.71C829.34,154.41,828.86,154.21,828.26,154.21z"/>
	<path class="st1" d="M838.08,161.63v-7.34h-1.34v-1.12h1.34v-0.87c0-0.91,0.24-1.61,0.73-2.1c0.48-0.49,1.17-0.74,2.05-0.74
		c0.33,0,0.66,0.04,0.99,0.13l-0.08,1.16c-0.25-0.05-0.5-0.07-0.78-0.07c-0.47,0-0.83,0.14-1.09,0.41
		c-0.25,0.27-0.38,0.67-0.38,1.18v0.89h1.8v1.12h-1.8v7.34H838.08z"/>
	<path class="st1" d="M842.93,150.94c0-0.23,0.07-0.43,0.21-0.59c0.14-0.16,0.36-0.24,0.64-0.24s0.5,0.08,0.64,0.24
		c0.15,0.16,0.22,0.36,0.22,0.59s-0.07,0.43-0.22,0.59s-0.36,0.23-0.64,0.23s-0.49-0.08-0.64-0.23S842.93,151.17,842.93,150.94z
		 M844.49,161.63h-1.45v-8.45h1.45V161.63z"/>
	<path class="st1" d="M850.89,154.48c-0.22-0.04-0.46-0.05-0.71-0.05c-0.95,0-1.59,0.4-1.93,1.21v6h-1.45v-8.45h1.41l0.02,0.98
		c0.47-0.75,1.15-1.13,2.02-1.13c0.28,0,0.5,0.04,0.64,0.11V154.48z"/>
	<path class="st1" d="M857.14,159.39c0-0.39-0.15-0.69-0.44-0.91c-0.29-0.21-0.81-0.4-1.54-0.56s-1.31-0.34-1.74-0.56
		s-0.75-0.48-0.95-0.78c-0.21-0.3-0.31-0.66-0.31-1.08c0-0.69,0.29-1.28,0.88-1.76c0.59-0.48,1.33-0.72,2.25-0.72
		c0.96,0,1.74,0.25,2.33,0.74c0.6,0.5,0.89,1.13,0.89,1.9h-1.45c0-0.39-0.17-0.74-0.5-1.02c-0.34-0.29-0.76-0.43-1.27-0.43
		c-0.53,0-0.94,0.12-1.23,0.34c-0.3,0.23-0.45,0.53-0.45,0.9c0,0.35,0.14,0.61,0.41,0.79c0.28,0.18,0.77,0.35,1.5,0.51
		c0.72,0.16,1.31,0.36,1.75,0.58c0.45,0.22,0.78,0.49,1,0.81c0.22,0.32,0.32,0.7,0.32,1.15c0,0.76-0.3,1.36-0.91,1.82
		c-0.6,0.46-1.39,0.68-2.35,0.68c-0.68,0-1.28-0.12-1.8-0.36c-0.52-0.24-0.93-0.57-1.22-1s-0.44-0.89-0.44-1.39h1.45
		c0.03,0.48,0.22,0.87,0.58,1.15c0.36,0.29,0.84,0.43,1.43,0.43c0.55,0,0.99-0.11,1.32-0.33
		C856.98,160.06,857.14,159.76,857.14,159.39z"/>
	<path class="st1" d="M862.43,151.13v2.05h1.58v1.12h-1.58v5.25c0,0.34,0.07,0.59,0.21,0.76s0.38,0.25,0.72,0.25
		c0.17,0,0.4-0.03,0.69-0.09v1.17c-0.38,0.1-0.75,0.15-1.11,0.15c-0.65,0-1.13-0.2-1.46-0.59s-0.49-0.95-0.49-1.66v-5.24h-1.54
		v-1.12h1.54v-2.05H862.43z"/>
	<path class="st1" d="M874.82,161.63h-2.26v-8.7l-2.7,0.84v-1.84l4.71-1.69h0.24V161.63z"/>
	<path class="st1" d="M885.2,157.35h1.29v1.82h-1.29v2.46h-2.26v-2.46h-4.66l-0.1-1.42l4.74-7.49h2.28V157.35z M880.42,157.35h2.52
		v-4.02l-0.15,0.26L880.42,157.35z"/>
	<path class="st1" d="M891.42,157.34c0-1.32,0.3-2.37,0.89-3.15s1.4-1.17,2.43-1.17c0.82,0,1.5,0.31,2.04,0.92v-4.31h2.27v12H897
		l-0.11-0.9c-0.56,0.7-1.29,1.05-2.17,1.05c-1,0-1.79-0.39-2.39-1.18C891.72,159.83,891.42,158.74,891.42,157.34z M893.68,157.51
		c0,0.79,0.14,1.4,0.41,1.82c0.28,0.42,0.68,0.63,1.2,0.63c0.7,0,1.19-0.29,1.48-0.88v-3.34c-0.28-0.59-0.77-0.88-1.46-0.88
		C894.23,154.86,893.68,155.74,893.68,157.51z"/>
	<path class="st1" d="M905.69,161.63c-0.1-0.2-0.18-0.46-0.23-0.76c-0.55,0.61-1.26,0.91-2.13,0.91c-0.83,0-1.51-0.24-2.06-0.72
		c-0.54-0.48-0.82-1.08-0.82-1.81c0-0.89,0.33-1.58,1-2.06c0.66-0.48,1.62-0.72,2.88-0.73h1.04v-0.48c0-0.39-0.1-0.7-0.3-0.94
		s-0.52-0.35-0.95-0.35c-0.38,0-0.68,0.09-0.89,0.27c-0.22,0.18-0.32,0.43-0.32,0.75h-2.26c0-0.49,0.15-0.94,0.45-1.36
		c0.3-0.42,0.73-0.74,1.28-0.98c0.55-0.24,1.17-0.36,1.86-0.36c1.04,0,1.87,0.26,2.48,0.79s0.92,1.26,0.92,2.21v3.66
		c0,0.8,0.12,1.41,0.34,1.82v0.13H905.69z M903.82,160.06c0.33,0,0.64-0.07,0.92-0.22s0.49-0.35,0.62-0.6v-1.45h-0.84
		c-1.13,0-1.73,0.39-1.8,1.17l-0.01,0.13c0,0.28,0.1,0.51,0.3,0.7C903.21,159.97,903.48,160.06,903.82,160.06z"/>
	<path class="st1" d="M912.53,158.44l1.56-5.26h2.42l-3.4,9.77l-0.19,0.45c-0.5,1.1-1.34,1.66-2.5,1.66c-0.33,0-0.66-0.05-1-0.15
		v-1.71l0.34,0.01c0.43,0,0.75-0.06,0.96-0.2c0.21-0.13,0.38-0.35,0.5-0.65l0.27-0.7l-2.96-8.48h2.43L912.53,158.44z"/>
	<path class="st1" d="M921.98,159.3c0-0.28-0.14-0.49-0.41-0.65c-0.27-0.16-0.71-0.3-1.32-0.43c-2.01-0.42-3.02-1.28-3.02-2.56
		c0-0.75,0.31-1.38,0.93-1.88c0.62-0.5,1.44-0.75,2.44-0.75c1.07,0,1.93,0.25,2.57,0.76c0.64,0.51,0.96,1.16,0.96,1.97h-2.26
		c0-0.32-0.1-0.59-0.31-0.8s-0.53-0.32-0.98-0.32c-0.38,0-0.67,0.09-0.88,0.26s-0.31,0.39-0.31,0.66c0,0.25,0.12,0.45,0.36,0.61
		c0.24,0.15,0.64,0.29,1.2,0.4c0.56,0.11,1.04,0.24,1.42,0.38c1.19,0.44,1.79,1.2,1.79,2.27c0,0.77-0.33,1.39-0.99,1.87
		s-1.52,0.71-2.56,0.71c-0.71,0-1.34-0.13-1.89-0.38c-0.55-0.25-0.98-0.6-1.29-1.04c-0.31-0.44-0.47-0.91-0.47-1.43h2.14
		c0.02,0.4,0.17,0.71,0.45,0.92c0.28,0.21,0.65,0.32,1.11,0.32c0.43,0,0.76-0.08,0.98-0.25S921.98,159.56,921.98,159.3z"/>
	<path class="st1" d="M925.81,163.9l-0.82-0.56c0.49-0.68,0.75-1.38,0.77-2.11v-1.3h1.41v1.13c0,0.53-0.13,1.05-0.39,1.58
		C926.52,163.16,926.2,163.58,925.81,163.9z"/>
	<path class="st1" d="M732.1,176.7c0,1.29-0.29,2.32-0.88,3.11c-0.59,0.79-1.39,1.18-2.39,1.18c-1.03,0-1.83-0.33-2.42-0.98v4.07
		h-1.45v-11.7h1.32l0.07,0.94c0.59-0.73,1.41-1.09,2.45-1.09c1.02,0,1.82,0.38,2.41,1.15s0.89,1.83,0.89,3.2V176.7z M730.65,176.54
		c0-0.95-0.2-1.71-0.61-2.26c-0.41-0.55-0.96-0.83-1.67-0.83c-0.88,0-1.53,0.39-1.97,1.16v4.04c0.43,0.77,1.09,1.16,1.98,1.16
		c0.69,0,1.24-0.28,1.65-0.82C730.45,178.44,730.65,177.62,730.65,176.54z"/>
	<path class="st1" d="M735.51,180.83h-1.45v-12h1.45V180.83z"/>
	<path class="st1" d="M743.04,180.83c-0.08-0.17-0.15-0.46-0.2-0.89c-0.67,0.7-1.47,1.05-2.41,1.05c-0.83,0-1.52-0.24-2.05-0.71
		c-0.53-0.47-0.8-1.07-0.8-1.79c0-0.88,0.33-1.56,1-2.05c0.67-0.49,1.61-0.73,2.82-0.73h1.41v-0.66c0-0.51-0.15-0.91-0.45-1.21
		c-0.3-0.3-0.75-0.45-1.34-0.45c-0.52,0-0.95,0.13-1.3,0.39c-0.35,0.26-0.52,0.58-0.52,0.95h-1.45c0-0.42,0.15-0.83,0.45-1.22
		c0.3-0.39,0.71-0.71,1.22-0.93c0.51-0.23,1.08-0.34,1.69-0.34c0.97,0,1.74,0.24,2.29,0.73c0.55,0.49,0.84,1.16,0.86,2.01v3.89
		c0,0.78,0.1,1.39,0.3,1.85v0.12H743.04z M740.64,179.73c0.45,0,0.88-0.12,1.29-0.35s0.7-0.54,0.88-0.91v-1.73h-1.13
		c-1.77,0-2.66,0.52-2.66,1.55c0,0.45,0.15,0.81,0.45,1.06C739.78,179.6,740.17,179.73,740.64,179.73z"/>
	<path class="st1" d="M747.89,172.38l0.05,1.06c0.65-0.81,1.49-1.22,2.53-1.22c1.79,0,2.69,1.01,2.7,3.02v5.59h-1.45v-5.59
		c0-0.61-0.14-1.06-0.42-1.35c-0.27-0.29-0.7-0.44-1.28-0.44c-0.47,0-0.88,0.12-1.23,0.38s-0.63,0.58-0.83,0.98v6.02h-1.45v-8.45
		H747.89z"/>
	<path class="st1" d="M760.27,178.59c0-0.39-0.15-0.69-0.44-0.91c-0.29-0.22-0.81-0.4-1.54-0.56s-1.31-0.34-1.74-0.56
		s-0.75-0.48-0.95-0.78c-0.21-0.3-0.31-0.66-0.31-1.08c0-0.69,0.29-1.28,0.88-1.76c0.59-0.48,1.33-0.72,2.25-0.72
		c0.96,0,1.74,0.25,2.33,0.74c0.6,0.49,0.89,1.13,0.89,1.9h-1.45c0-0.4-0.17-0.74-0.5-1.02c-0.34-0.29-0.76-0.43-1.27-0.43
		c-0.53,0-0.94,0.11-1.23,0.34c-0.3,0.23-0.45,0.53-0.45,0.9c0,0.35,0.14,0.61,0.41,0.79c0.28,0.18,0.77,0.35,1.5,0.51
		c0.72,0.16,1.31,0.35,1.75,0.58c0.45,0.22,0.78,0.49,1,0.81c0.22,0.31,0.32,0.7,0.32,1.15c0,0.75-0.3,1.36-0.91,1.82
		c-0.6,0.46-1.39,0.68-2.35,0.68c-0.68,0-1.28-0.12-1.8-0.36c-0.52-0.24-0.93-0.57-1.22-1s-0.44-0.89-0.44-1.39h1.45
		c0.03,0.48,0.22,0.87,0.58,1.15c0.36,0.28,0.84,0.43,1.43,0.43c0.55,0,0.99-0.11,1.32-0.33
		C760.11,179.26,760.27,178.96,760.27,178.59z"/>
	<path class="st1" d="M772.48,178.59c0-0.39-0.15-0.69-0.44-0.91c-0.29-0.22-0.81-0.4-1.54-0.56s-1.31-0.34-1.74-0.56
		s-0.75-0.48-0.95-0.78c-0.21-0.3-0.31-0.66-0.31-1.08c0-0.69,0.29-1.28,0.88-1.76c0.59-0.48,1.33-0.72,2.25-0.72
		c0.96,0,1.74,0.25,2.33,0.74c0.6,0.49,0.89,1.13,0.89,1.9h-1.45c0-0.4-0.17-0.74-0.5-1.02c-0.34-0.29-0.76-0.43-1.27-0.43
		c-0.53,0-0.94,0.11-1.23,0.34c-0.3,0.23-0.45,0.53-0.45,0.9c0,0.35,0.14,0.61,0.41,0.79c0.28,0.18,0.77,0.35,1.5,0.51
		c0.72,0.16,1.31,0.35,1.75,0.58c0.45,0.22,0.78,0.49,1,0.81c0.22,0.31,0.32,0.7,0.32,1.15c0,0.75-0.3,1.36-0.91,1.82
		c-0.6,0.46-1.39,0.68-2.35,0.68c-0.68,0-1.28-0.12-1.8-0.36c-0.52-0.24-0.93-0.57-1.22-1s-0.44-0.89-0.44-1.39h1.45
		c0.03,0.48,0.22,0.87,0.58,1.15c0.36,0.28,0.84,0.43,1.43,0.43c0.55,0,0.99-0.11,1.32-0.33
		C772.32,179.26,772.48,178.96,772.48,178.59z"/>
	<path class="st1" d="M777.77,170.33v2.05h1.58v1.12h-1.58v5.25c0,0.34,0.07,0.59,0.21,0.76c0.14,0.17,0.38,0.25,0.72,0.25
		c0.17,0,0.4-0.03,0.69-0.09v1.16c-0.38,0.1-0.75,0.16-1.11,0.16c-0.65,0-1.13-0.2-1.46-0.59s-0.49-0.95-0.49-1.66v-5.24h-1.54
		v-1.12h1.54v-2.05H777.77z"/>
	<path class="st1" d="M786.26,180.83c-0.08-0.17-0.15-0.46-0.2-0.89c-0.67,0.7-1.47,1.05-2.41,1.05c-0.83,0-1.52-0.24-2.05-0.71
		c-0.53-0.47-0.8-1.07-0.8-1.79c0-0.88,0.33-1.56,1-2.05c0.67-0.49,1.61-0.73,2.82-0.73h1.41v-0.66c0-0.51-0.15-0.91-0.45-1.21
		c-0.3-0.3-0.75-0.45-1.34-0.45c-0.52,0-0.95,0.13-1.3,0.39c-0.35,0.26-0.52,0.58-0.52,0.95h-1.45c0-0.42,0.15-0.83,0.45-1.22
		c0.3-0.39,0.71-0.71,1.22-0.93c0.51-0.23,1.08-0.34,1.69-0.34c0.97,0,1.74,0.24,2.29,0.73c0.55,0.49,0.84,1.16,0.86,2.01v3.89
		c0,0.78,0.1,1.39,0.3,1.85v0.12H786.26z M783.86,179.73c0.45,0,0.88-0.12,1.29-0.35s0.7-0.54,0.88-0.91v-1.73h-1.13
		c-1.77,0-2.66,0.52-2.66,1.55c0,0.45,0.15,0.81,0.45,1.06C783,179.6,783.38,179.73,783.86,179.73z"/>
	<path class="st1" d="M793.83,173.68c-0.22-0.04-0.46-0.05-0.71-0.05c-0.95,0-1.59,0.4-1.93,1.21v6h-1.45v-8.45h1.41l0.02,0.98
		c0.47-0.76,1.15-1.13,2.02-1.13c0.28,0,0.5,0.04,0.64,0.11V173.68z"/>
	<path class="st1" d="M797.51,170.33v2.05h1.58v1.12h-1.58v5.25c0,0.34,0.07,0.59,0.21,0.76c0.14,0.17,0.38,0.25,0.72,0.25
		c0.17,0,0.4-0.03,0.69-0.09v1.16c-0.38,0.1-0.75,0.16-1.11,0.16c-0.65,0-1.13-0.2-1.46-0.59s-0.49-0.95-0.49-1.66v-5.24h-1.54
		v-1.12h1.54v-2.05H797.51z"/>
	<path class="st1" d="M800.78,170.14c0-0.23,0.07-0.43,0.21-0.59c0.14-0.16,0.36-0.24,0.64-0.24s0.5,0.08,0.64,0.24
		c0.15,0.16,0.22,0.36,0.22,0.59s-0.07,0.43-0.22,0.59s-0.36,0.23-0.64,0.23s-0.49-0.08-0.64-0.23S800.78,170.37,800.78,170.14z
		 M802.34,180.83h-1.45v-8.45h1.45V180.83z"/>
	<path class="st1" d="M806.02,172.38l0.05,1.06c0.65-0.81,1.49-1.22,2.53-1.22c1.79,0,2.69,1.01,2.7,3.02v5.59h-1.45v-5.59
		c0-0.61-0.14-1.06-0.42-1.35c-0.27-0.29-0.7-0.44-1.28-0.44c-0.47,0-0.88,0.12-1.23,0.38s-0.63,0.58-0.83,0.98v6.02h-1.45v-8.45
		H806.02z"/>
	<path class="st1" d="M813.14,176.54c0-1.32,0.3-2.37,0.91-3.14c0.61-0.78,1.42-1.17,2.42-1.17c1.03,0,1.84,0.36,2.41,1.09
		l0.07-0.94h1.32v8.25c0,1.09-0.32,1.96-0.97,2.59c-0.65,0.63-1.52,0.95-2.61,0.95c-0.61,0-1.21-0.13-1.79-0.39
		c-0.58-0.26-1.03-0.62-1.34-1.07l0.75-0.87c0.62,0.77,1.38,1.15,2.27,1.15c0.7,0,1.25-0.2,1.64-0.59c0.39-0.4,0.59-0.95,0.59-1.67
		v-0.73c-0.58,0.67-1.37,1-2.37,1c-0.99,0-1.79-0.4-2.4-1.2S813.14,177.91,813.14,176.54z M814.59,176.7c0,0.95,0.2,1.7,0.59,2.25
		c0.39,0.54,0.94,0.82,1.64,0.82c0.91,0,1.58-0.41,2.01-1.24v-3.86c-0.44-0.81-1.11-1.21-1.99-1.21c-0.7,0-1.25,0.27-1.65,0.82
		S814.59,175.63,814.59,176.7z"/>
	<path class="st1" d="M831.64,180.83c-0.08-0.17-0.15-0.46-0.2-0.89c-0.67,0.7-1.47,1.05-2.41,1.05c-0.83,0-1.52-0.24-2.05-0.71
		c-0.53-0.47-0.8-1.07-0.8-1.79c0-0.88,0.33-1.56,1-2.05c0.67-0.49,1.61-0.73,2.82-0.73h1.41v-0.66c0-0.51-0.15-0.91-0.45-1.21
		c-0.3-0.3-0.75-0.45-1.34-0.45c-0.52,0-0.95,0.13-1.3,0.39c-0.35,0.26-0.52,0.58-0.52,0.95h-1.45c0-0.42,0.15-0.83,0.45-1.22
		c0.3-0.39,0.71-0.71,1.22-0.93c0.51-0.23,1.08-0.34,1.69-0.34c0.97,0,1.74,0.24,2.29,0.73c0.55,0.49,0.84,1.16,0.86,2.01v3.89
		c0,0.78,0.1,1.39,0.3,1.85v0.12H831.64z M829.24,179.73c0.45,0,0.88-0.12,1.29-0.35s0.7-0.54,0.88-0.91v-1.73h-1.13
		c-1.77,0-2.66,0.52-2.66,1.55c0,0.45,0.15,0.81,0.45,1.06C828.38,179.6,828.77,179.73,829.24,179.73z"/>
	<path class="st1" d="M837.08,170.33v2.05h1.58v1.12h-1.58v5.25c0,0.34,0.07,0.59,0.21,0.76c0.14,0.17,0.38,0.25,0.72,0.25
		c0.17,0,0.4-0.03,0.69-0.09v1.16c-0.38,0.1-0.75,0.16-1.11,0.16c-0.65,0-1.13-0.2-1.46-0.59s-0.49-0.95-0.49-1.66v-5.24h-1.54
		v-1.12h1.54v-2.05H837.08z"/>
	<path class="st1" d="M849.39,177.84c0-0.43-0.12-0.77-0.36-1.02c-0.24-0.25-0.64-0.49-1.21-0.7c-0.57-0.21-1.06-0.43-1.47-0.64
		s-0.76-0.45-1.06-0.73s-0.52-0.6-0.69-0.96c-0.16-0.37-0.25-0.81-0.25-1.32c0-0.88,0.28-1.6,0.84-2.16s1.31-0.89,2.24-0.98v-1.67
		h1.25v1.7c0.92,0.13,1.64,0.51,2.16,1.15c0.52,0.64,0.78,1.46,0.78,2.48h-2.26c0-0.62-0.13-1.09-0.39-1.4
		c-0.26-0.31-0.6-0.46-1.04-0.46c-0.43,0-0.76,0.12-0.99,0.36s-0.35,0.58-0.35,1c0,0.4,0.11,0.71,0.34,0.95
		c0.23,0.24,0.66,0.48,1.28,0.73s1.13,0.49,1.54,0.71c0.4,0.22,0.74,0.47,1.02,0.75c0.28,0.28,0.49,0.6,0.63,0.95
		c0.15,0.36,0.22,0.77,0.22,1.25c0,0.88-0.28,1.6-0.83,2.16c-0.55,0.55-1.31,0.88-2.28,0.98v1.55h-1.24v-1.55
		c-1.07-0.12-1.89-0.49-2.48-1.14c-0.59-0.64-0.88-1.5-0.88-2.57h2.26c0,0.62,0.15,1.09,0.44,1.43c0.29,0.33,0.72,0.5,1.27,0.5
		c0.46,0,0.82-0.12,1.09-0.36S849.39,178.25,849.39,177.84z"/>
	<path class="st1" d="M858.45,176.29c-0.59,0.58-1.28,0.87-2.06,0.87c-1,0-1.81-0.35-2.41-1.04c-0.6-0.69-0.91-1.62-0.91-2.79
		c0-0.75,0.16-1.43,0.49-2.05c0.33-0.62,0.78-1.11,1.36-1.45c0.58-0.35,1.24-0.52,1.97-0.52c0.75,0,1.42,0.19,2,0.56
		s1.04,0.91,1.36,1.62s0.49,1.51,0.49,2.41v0.84c0,1.9-0.47,3.38-1.41,4.47c-0.94,1.08-2.28,1.66-4.01,1.73l-0.55,0.01v-1.88
		l0.5-0.01C857.23,178.96,858.29,178.04,858.45,176.29z M856.94,175.43c0.36,0,0.68-0.09,0.94-0.28s0.46-0.41,0.6-0.68v-0.93
		c0-0.77-0.15-1.36-0.44-1.78s-0.68-0.63-1.17-0.63c-0.45,0-0.83,0.21-1.12,0.62s-0.44,0.93-0.44,1.56c0,0.62,0.14,1.13,0.43,1.53
		S856.43,175.43,856.94,175.43z"/>
	<path class="st1" d="M862.56,179.72c0-0.36,0.12-0.65,0.36-0.88c0.24-0.22,0.55-0.34,0.91-0.34c0.37,0,0.68,0.11,0.92,0.34
		c0.24,0.22,0.36,0.52,0.36,0.88c0,0.35-0.12,0.64-0.36,0.86c-0.24,0.22-0.55,0.33-0.92,0.33c-0.37,0-0.67-0.11-0.91-0.33
		C862.68,180.37,862.56,180.08,862.56,179.72z"/>
	<path class="st1" d="M872.28,176.29c-0.59,0.58-1.28,0.87-2.06,0.87c-1,0-1.81-0.35-2.41-1.04c-0.6-0.69-0.91-1.62-0.91-2.79
		c0-0.75,0.16-1.43,0.49-2.05c0.33-0.62,0.78-1.11,1.36-1.45c0.58-0.35,1.24-0.52,1.97-0.52c0.75,0,1.42,0.19,2,0.56
		s1.04,0.91,1.36,1.62s0.49,1.51,0.49,2.41v0.84c0,1.9-0.47,3.38-1.41,4.47c-0.94,1.08-2.28,1.66-4.01,1.73l-0.55,0.01v-1.88
		l0.5-0.01C871.06,178.96,872.12,178.04,872.28,176.29z M870.77,175.43c0.36,0,0.68-0.09,0.94-0.28s0.46-0.41,0.6-0.68v-0.93
		c0-0.77-0.15-1.36-0.44-1.78s-0.68-0.63-1.17-0.63c-0.45,0-0.83,0.21-1.12,0.62s-0.44,0.93-0.44,1.56c0,0.62,0.14,1.13,0.43,1.53
		S870.26,175.43,870.77,175.43z"/>
	<path class="st1" d="M881.46,176.29c-0.59,0.58-1.28,0.87-2.06,0.87c-1,0-1.81-0.35-2.41-1.04c-0.6-0.69-0.91-1.62-0.91-2.79
		c0-0.75,0.16-1.43,0.49-2.05c0.33-0.62,0.78-1.11,1.36-1.45c0.58-0.35,1.24-0.52,1.97-0.52c0.75,0,1.42,0.19,2,0.56
		s1.04,0.91,1.36,1.62s0.49,1.51,0.49,2.41v0.84c0,1.9-0.47,3.38-1.41,4.47c-0.94,1.08-2.28,1.66-4.01,1.73l-0.55,0.01v-1.88
		l0.5-0.01C880.24,178.96,881.3,178.04,881.46,176.29z M879.95,175.43c0.36,0,0.68-0.09,0.94-0.28s0.46-0.41,0.6-0.68v-0.93
		c0-0.77-0.15-1.36-0.44-1.78s-0.68-0.63-1.17-0.63c-0.45,0-0.83,0.21-1.12,0.62s-0.44,0.93-0.44,1.56c0,0.62,0.14,1.13,0.43,1.53
		S879.44,175.43,879.95,175.43z"/>
	<path class="st1" d="M886.16,181.81h-1.68l4.19-12.35h1.68L886.16,181.81z"/>
	<path class="st1" d="M893.54,172.38l0.07,0.95c0.6-0.73,1.41-1.1,2.43-1.1c1.09,0,1.84,0.43,2.24,1.29
		c0.59-0.86,1.44-1.29,2.54-1.29c0.92,0,1.6,0.27,2.05,0.8c0.45,0.53,0.67,1.34,0.67,2.41v5.4h-2.27v-5.39
		c0-0.48-0.09-0.83-0.28-1.05c-0.19-0.22-0.52-0.33-0.99-0.33c-0.68,0-1.15,0.32-1.41,0.97l0.01,5.8h-2.26v-5.38
		c0-0.49-0.1-0.84-0.29-1.06s-0.52-0.33-0.98-0.33c-0.64,0-1.1,0.27-1.39,0.8v5.98h-2.26v-8.45H893.54z"/>
	<path class="st1" d="M904.93,176.53c0-0.84,0.16-1.59,0.48-2.24s0.79-1.16,1.39-1.52s1.31-0.54,2.11-0.54
		c1.14,0,2.07,0.35,2.79,1.05c0.72,0.7,1.12,1.65,1.21,2.84l0.02,0.58c0,1.3-0.36,2.34-1.09,3.12c-0.72,0.78-1.7,1.18-2.91,1.18
		s-2.19-0.39-2.92-1.17s-1.09-1.84-1.09-3.19V176.53z M907.19,176.69c0,0.8,0.15,1.42,0.45,1.84c0.3,0.43,0.73,0.64,1.3,0.64
		c0.55,0,0.97-0.21,1.28-0.63s0.46-1.09,0.46-2.01c0-0.79-0.15-1.4-0.46-1.83c-0.31-0.43-0.74-0.65-1.3-0.65
		c-0.55,0-0.98,0.21-1.28,0.64C907.34,175.12,907.19,175.79,907.19,176.69z"/>
	<path class="st1" d="M916.4,172.38l0.07,0.98c0.6-0.76,1.41-1.13,2.43-1.13c0.9,0,1.56,0.26,2,0.79c0.44,0.53,0.66,1.31,0.67,2.36
		v5.46h-2.26v-5.41c0-0.48-0.1-0.83-0.31-1.04c-0.21-0.22-0.55-0.32-1.04-0.32c-0.64,0-1.11,0.27-1.43,0.81v5.96h-2.26v-8.45H916.4z
		"/>
	<path class="st1" d="M925.99,170.3v2.08h1.45v1.66h-1.45v4.22c0,0.31,0.06,0.54,0.18,0.67c0.12,0.13,0.35,0.2,0.69,0.2
		c0.25,0,0.47-0.02,0.66-0.05v1.71c-0.44,0.13-0.9,0.2-1.37,0.2c-1.58,0-2.39-0.8-2.42-2.4v-4.55h-1.23v-1.66h1.23v-2.08H925.99z"/>
	<path class="st1" d="M930.9,173.3c0.6-0.72,1.35-1.08,2.26-1.08c1.83,0,2.76,1.06,2.79,3.2v5.41h-2.26v-5.35
		c0-0.48-0.1-0.84-0.31-1.07c-0.21-0.23-0.55-0.35-1.04-0.35c-0.66,0-1.14,0.25-1.44,0.77v6.01h-2.26v-12h2.26V173.3z"/>
</g>
</svg>
