<?xml version="1.0" encoding="utf-8"?>
<!-- Generator: Adobe Illustrator 24.2.3, SVG Export Plug-In . SVG Version: 6.00 Build 0)  -->
<svg version="1.1" id="Layer_1" xmlns="http://www.w3.org/2000/svg" xmlns:xlink="http://www.w3.org/1999/xlink" x="0px" y="0px"
	 viewBox="0 0 970 250" style="enable-background:new 0 0 970 250;" xml:space="preserve">
<style type="text/css">
	.st0{fill:#021D8B;}
	.st1{fill:#FFFFFF;}
</style>
<path class="st0" d="M113.49,21.27H63.42c-15.68,0-28.39,12.71-28.39,28.39v50.07c0,15.68,12.71,28.39,28.39,28.39h50.07
	c15.68,0,28.39-12.71,28.39-28.39V49.66C141.88,33.98,129.17,21.27,113.49,21.27z"/>
<path class="st1" d="M110.92,50.82h-0.55v-0.39h1.58v0.39h-0.56v1.67h-0.47V50.82z"/>
<path class="st1" d="M113.93,51.7c-0.01-0.25-0.02-0.55-0.02-0.85h-0.01c-0.06,0.26-0.15,0.56-0.23,0.8l-0.25,0.8h-0.36l-0.22-0.8
	c-0.07-0.24-0.14-0.54-0.19-0.8h-0.01c-0.01,0.28-0.02,0.6-0.04,0.85l-0.04,0.78h-0.43l0.13-2.06h0.62l0.2,0.69
	c0.06,0.24,0.13,0.5,0.17,0.74h0.01c0.06-0.24,0.13-0.51,0.2-0.74l0.22-0.69h0.61l0.11,2.06h-0.46L113.93,51.7z"/>
<g>
	<path class="st0" d="M185.86,33.67h-5.17v14.27h-2.86V33.67h-5.13v-2.32h13.16V33.67z"/>
	<path class="st0" d="M190.49,36.95c0.9-1.05,2.05-1.57,3.43-1.57c2.63,0,3.96,1.5,4,4.5v8.06h-2.77v-7.95
		c0-0.85-0.18-1.45-0.55-1.81c-0.37-0.35-0.91-0.53-1.62-0.53c-1.11,0-1.94,0.49-2.48,1.48v8.81h-2.77v-17.5h2.77V36.95z"/>
	<path class="st0" d="M206.15,48.16c-1.75,0-3.18-0.55-4.27-1.66c-1.09-1.11-1.64-2.58-1.64-4.42v-0.34c0-1.23,0.24-2.33,0.71-3.3
		c0.47-0.97,1.14-1.72,2-2.26s1.82-0.81,2.87-0.81c1.68,0,2.98,0.54,3.89,1.61c0.92,1.07,1.37,2.59,1.37,4.55v1.12h-8.06
		c0.08,1.02,0.42,1.82,1.02,2.42c0.6,0.59,1.35,0.89,2.25,0.89c1.27,0,2.3-0.51,3.1-1.54l1.49,1.42c-0.49,0.74-1.15,1.31-1.98,1.71
		S207.17,48.16,206.15,48.16z M205.82,37.6c-0.76,0-1.37,0.27-1.84,0.8c-0.47,0.53-0.77,1.27-0.89,2.22h5.28v-0.21
		c-0.06-0.93-0.31-1.63-0.74-2.1C207.19,37.83,206.59,37.6,205.82,37.6z"/>
</g>
<g>
	<path class="st0" d="M410.55,49.88c-0.12-0.24-0.23-0.64-0.33-1.18c-0.91,0.95-2.02,1.42-3.33,1.42c-1.27,0-2.31-0.36-3.12-1.09
		s-1.21-1.62-1.21-2.7c0-1.35,0.5-2.39,1.51-3.11s2.44-1.08,4.31-1.08h1.75V41.3c0-0.66-0.18-1.18-0.55-1.58s-0.93-0.59-1.68-0.59
		c-0.65,0-1.18,0.16-1.59,0.49s-0.62,0.74-0.62,1.24h-2.85c0-0.7,0.23-1.35,0.69-1.95s1.09-1.08,1.88-1.42s1.68-0.52,2.65-0.52
		c1.48,0,2.67,0.37,3.55,1.12s1.34,1.79,1.36,3.15v5.72c0,1.14,0.16,2.05,0.48,2.73v0.2H410.55z M407.42,47.83
		c0.56,0,1.09-0.14,1.59-0.41s0.87-0.64,1.12-1.1v-2.39h-1.54c-1.05,0-1.85,0.18-2.38,0.55s-0.8,0.89-0.8,1.56
		c0,0.55,0.18,0.98,0.54,1.31S406.81,47.83,407.42,47.83z"/>
	<path class="st0" d="M427.06,43.67c0,1.96-0.45,3.53-1.34,4.69s-2.09,1.75-3.59,1.75c-1.39,0-2.5-0.46-3.34-1.37v6.01h-2.85V37.2
		h2.62l0.12,1.29c0.84-1.02,1.97-1.52,3.41-1.52c1.55,0,2.76,0.58,3.64,1.73s1.32,2.75,1.32,4.8V43.67z M424.22,43.42
		c0-1.27-0.25-2.27-0.76-3.01s-1.22-1.11-2.16-1.11c-1.16,0-2,0.48-2.51,1.44v5.62c0.52,0.98,1.36,1.48,2.53,1.48
		c0.91,0,1.62-0.37,2.13-1.1S424.22,44.91,424.22,43.42z"/>
	<path class="st0" d="M440.57,43.67c0,1.96-0.45,3.53-1.34,4.69s-2.09,1.75-3.59,1.75c-1.39,0-2.5-0.46-3.34-1.37v6.01h-2.85V37.2
		h2.62l0.12,1.29c0.84-1.02,1.97-1.52,3.41-1.52c1.55,0,2.76,0.58,3.64,1.73s1.32,2.75,1.32,4.8V43.67z M437.74,43.42
		c0-1.27-0.25-2.27-0.76-3.01s-1.22-1.11-2.16-1.11c-1.16,0-2,0.48-2.51,1.44v5.62c0.52,0.98,1.36,1.48,2.53,1.48
		c0.91,0,1.62-0.37,2.13-1.1S437.74,44.91,437.74,43.42z"/>
	<path class="st0" d="M444.76,46.88c0.53,0,0.94,0.15,1.23,0.45s0.43,0.68,0.43,1.13c0,0.45-0.14,0.81-0.43,1.11
		s-0.7,0.44-1.23,0.44c-0.51,0-0.91-0.14-1.21-0.43s-0.45-0.66-0.45-1.11s0.14-0.83,0.43-1.13S444.23,46.88,444.76,46.88z"/>
</g>
<g id="PG_x5F_Logo_x5F_Full_10_">
	<path class="st0" d="M385.14,31.34c0-0.37,0.13-0.68,0.38-0.94c0.25-0.25,0.57-0.38,0.94-0.38c0.35,0,0.66,0.13,0.92,0.38
		c0.27,0.26,0.4,0.57,0.4,0.94v14.61c0,0.37-0.13,0.68-0.38,0.94c-0.26,0.26-0.57,0.38-0.94,0.38c-0.35,0-0.66-0.13-0.92-0.38
		c-0.27-0.25-0.4-0.57-0.4-0.94V31.34z"/>
	<g>
		<g>
			<g>
				<path class="st0" d="M311.4,54.37c-1.08,0.81-2.35,1.21-3.8,1.21c-0.81-0.07-1.44-0.17-1.92-0.31c-0.47-0.14-0.9-0.34-1.29-0.6
					c-0.39-0.26-0.59-0.64-0.59-1.12c0-0.39,0.13-0.71,0.38-0.95c0.25-0.24,0.56-0.36,0.93-0.36c0.3,0,0.56,0.08,0.79,0.24
					c0.58,0.32,1.19,0.48,1.83,0.48c0.51,0,0.97-0.09,1.4-0.28c0.43-0.18,0.81-0.43,1.14-0.74c0.33-0.31,0.59-0.67,0.78-1.09
					c0.18-0.41,0.29-0.86,0.31-1.35v-9.87c0-0.37,0.13-0.68,0.38-0.93c0.25-0.25,0.56-0.38,0.93-0.38c0.35,0,0.65,0.13,0.92,0.38
					c0.26,0.25,0.4,0.56,0.4,0.93c0,0,0,8.2,0,9.98C313.99,51.51,313.04,53.2,311.4,54.37z"/>
				<path class="st0" d="M252.17,25.37c0-0.37,0.13-0.68,0.38-0.93c0.25-0.25,0.56-0.38,0.93-0.38c0.35,0,0.65,0.13,0.92,0.38
					c0.26,0.25,0.4,0.56,0.4,0.93v1c0,0.37-0.13,0.68-0.38,0.93c-0.25,0.25-0.56,0.38-0.93,0.38c-0.35,0-0.65-0.13-0.92-0.38
					c-0.26-0.25-0.4-0.56-0.4-0.93V25.37z M252.17,31.45c0-0.37,0.13-0.68,0.38-0.93c0.25-0.25,0.56-0.38,0.93-0.38
					c0.35,0,0.65,0.13,0.92,0.38c0.26,0.25,0.4,0.56,0.4,0.93v14.5c0,0.37-0.13,0.68-0.38,0.93c-0.25,0.25-0.56,0.38-0.93,0.38
					c-0.35,0-0.65-0.13-0.92-0.38c-0.26-0.25-0.4-0.56-0.4-0.93V31.45z"/>
				<g>
					<path class="st0" d="M240.74,31.8c0-0.36,0.12-0.66,0.37-0.91c0.25-0.25,0.55-0.37,0.91-0.37c0.29,0,0.56,0.1,0.79,0.29
						c0.24,0.19,0.39,0.45,0.46,0.76c1.06-0.79,2.3-1.18,3.71-1.18c0.79,0.07,1.41,0.17,1.87,0.3c0.46,0.13,0.88,0.33,1.27,0.59
						c0.38,0.26,0.57,0.62,0.57,1.1c0,0.38-0.12,0.69-0.37,0.93c-0.25,0.24-0.55,0.35-0.91,0.35c-0.29,0-0.55-0.08-0.78-0.24
						c-0.56-0.31-1.16-0.47-1.79-0.47c-0.5,0-0.95,0.09-1.37,0.27c-0.42,0.18-0.79,0.42-1.11,0.73c-0.33,0.3-0.58,0.66-0.76,1.06
						c-0.18,0.41-0.28,0.84-0.3,1.32v9.66c0,0.36-0.12,0.66-0.37,0.91c-0.25,0.25-0.55,0.37-0.91,0.37c-0.34,0-0.64-0.12-0.89-0.37
						c-0.26-0.25-0.39-0.55-0.39-0.91v-9.76V31.8z"/>
				</g>
				<path class="st0" d="M256.59,31.93c-0.07-0.16-0.1-0.33-0.1-0.52c0-0.32,0.11-0.62,0.35-0.9c0.23-0.28,0.54-0.41,0.93-0.41
					c0.25,0,0.49,0.07,0.71,0.21c0.22,0.14,0.39,0.33,0.5,0.59l5.11,11.91l5.11-11.91c0.23-0.53,0.63-0.79,1.21-0.79
					c0.39,0,0.7,0.14,0.93,0.41c0.23,0.28,0.35,0.58,0.35,0.9c0,0.18-0.03,0.36-0.1,0.52l-6.28,14.67
					c-0.25,0.53-0.66,0.79-1.21,0.79c-0.6,0-1-0.26-1.21-0.79L256.59,31.93z"/>
				<path class="st0" d="M272.09,36.21c0-0.85,0.16-1.66,0.48-2.42c0.32-0.76,0.77-1.42,1.35-1.99c0.58-0.56,1.24-1.01,1.99-1.33
					c0.75-0.32,1.56-0.48,2.43-0.48c0.85,0,1.66,0.16,2.42,0.48c0.76,0.32,1.42,0.77,1.99,1.33c0.56,0.56,1.01,1.23,1.35,1.99
					c0.33,0.76,0.5,1.57,0.5,2.42v9.74c0,0.37-0.13,0.68-0.4,0.93c-0.26,0.25-0.57,0.38-0.92,0.38c-0.32,0-0.6-0.1-0.85-0.29
					c-0.24-0.2-0.39-0.44-0.43-0.74c-1.06,0.78-2.28,1.17-3.66,1.17c-0.85,0-1.66-0.16-2.42-0.48c-0.76-0.32-1.42-0.76-1.99-1.33
					c-0.56-0.56-1.01-1.23-1.35-1.99c-0.33-0.76-0.5-1.56-0.5-2.42V36.21z M274.71,41.19c0,0.48,0.1,0.94,0.29,1.38
					c0.2,0.44,0.45,0.82,0.78,1.16c0.32,0.33,0.71,0.59,1.16,0.78c0.45,0.18,0.92,0.28,1.4,0.28c0.48,0,0.94-0.09,1.38-0.26
					c0.44-0.17,0.82-0.41,1.14-0.73c0.32-0.31,0.58-0.67,0.78-1.09c0.2-0.41,0.3-0.86,0.33-1.35v-5.14c0-0.48-0.1-0.94-0.29-1.38
					c-0.2-0.44-0.45-0.82-0.78-1.16c-0.32-0.33-0.71-0.59-1.16-0.78c-0.45-0.18-0.92-0.28-1.4-0.28c-0.51,0-0.98,0.09-1.42,0.28
					c-0.44,0.18-0.82,0.44-1.16,0.78c-0.33,0.33-0.59,0.72-0.78,1.16c-0.18,0.44-0.28,0.9-0.28,1.38V41.19z"/>
				<path class="st0" d="M287,36.21c0-0.87,0.17-1.69,0.5-2.45c0.33-0.76,0.79-1.42,1.38-1.97c0.59-0.55,1.27-0.99,2.04-1.31
					c0.77-0.32,1.59-0.48,2.47-0.48c0.16,0,0.48,0.03,0.95,0.09c0.47,0.06,1,0.21,1.57,0.47c0.58,0.25,1.14,0.64,1.71,1.16
					c0.56,0.52,1.03,1.24,1.4,2.16c0.07,0.18,0.1,0.35,0.1,0.48c0,0.37-0.13,0.68-0.38,0.93c-0.25,0.25-0.56,0.38-0.93,0.38
					c-0.28,0-0.52-0.07-0.74-0.22c-0.22-0.15-0.37-0.35-0.47-0.6c-0.32-0.69-0.78-1.23-1.38-1.62c-0.6-0.39-1.25-0.59-1.97-0.59
					c-0.51,0-0.98,0.09-1.42,0.28c-0.44,0.18-0.82,0.44-1.16,0.78c-0.33,0.33-0.59,0.72-0.78,1.16c-0.18,0.44-0.28,0.9-0.28,1.38
					v4.97c0,0.48,0.1,0.94,0.29,1.38c0.2,0.44,0.45,0.82,0.78,1.16c0.32,0.33,0.71,0.59,1.16,0.78c0.45,0.18,0.92,0.28,1.4,0.28
					c0.74,0,1.4-0.2,2-0.59c0.6-0.39,1.05-0.93,1.35-1.62c0.11-0.25,0.28-0.45,0.48-0.6c0.21-0.15,0.45-0.22,0.73-0.22
					c0.37,0,0.68,0.13,0.93,0.4c0.25,0.26,0.38,0.57,0.38,0.92c0,0.16-0.03,0.32-0.1,0.48c-0.46,1.01-1.01,1.78-1.66,2.31
					c-0.64,0.53-1.27,0.91-1.88,1.14c-0.61,0.23-1.13,0.36-1.55,0.38c-0.43,0.02-0.65,0.03-0.67,0.03c-0.85,0-1.66-0.16-2.42-0.48
					c-0.76-0.32-1.42-0.76-1.99-1.33c-0.56-0.56-1.01-1.23-1.35-1.99c-0.33-0.76-0.5-1.56-0.5-2.42V36.21z"/>
				<path class="st0" d="M334.58,31.45c0-0.37,0.13-0.68,0.38-0.93c0.25-0.25,0.56-0.38,0.93-0.38c0.35,0,0.65,0.13,0.91,0.38
					c0.26,0.25,0.4,0.56,0.4,0.93v9.74c0,0.48,0.09,0.94,0.28,1.38c0.18,0.44,0.44,0.82,0.78,1.16c0.33,0.33,0.72,0.59,1.16,0.78
					c0.44,0.18,0.91,0.28,1.42,0.28c0.48,0,0.95-0.09,1.4-0.28c0.45-0.18,0.83-0.44,1.16-0.78c0.32-0.33,0.58-0.72,0.78-1.16
					c0.2-0.44,0.29-0.9,0.29-1.38v-9.74c0-0.37,0.13-0.68,0.38-0.93c0.25-0.25,0.56-0.38,0.93-0.38c0.35,0,0.65,0.13,0.91,0.38
					c0.26,0.25,0.4,0.56,0.4,0.93v9.74c0,0.85-0.17,1.66-0.5,2.42c-0.33,0.76-0.78,1.42-1.35,1.99c-0.56,0.56-1.23,1.01-1.99,1.33
					c-0.76,0.32-1.57,0.48-2.42,0.48c-0.87,0-1.69-0.16-2.43-0.48c-0.75-0.32-1.41-0.76-1.99-1.33c-0.58-0.56-1.02-1.23-1.35-1.99
					c-0.32-0.76-0.48-1.56-0.48-2.42V31.45z"/>
				<path class="st0" d="M349.53,36.21c0-0.85,0.16-1.66,0.48-2.42c0.32-0.76,0.77-1.42,1.35-1.99c0.58-0.56,1.24-1.01,1.99-1.33
					c0.75-0.32,1.56-0.48,2.43-0.48c0.85,0,1.66,0.16,2.42,0.48c0.76,0.32,1.42,0.77,1.99,1.33c0.56,0.56,1.01,1.23,1.35,1.99
					c0.33,0.76,0.5,1.57,0.5,2.42v9.74c0,0.37-0.13,0.68-0.4,0.93c-0.26,0.25-0.57,0.38-0.92,0.38c-0.32,0-0.6-0.1-0.85-0.29
					c-0.24-0.2-0.39-0.44-0.43-0.74c-1.06,0.78-2.28,1.17-3.66,1.17c-0.85,0-1.66-0.16-2.42-0.48c-0.76-0.32-1.42-0.76-1.99-1.33
					c-0.56-0.56-1.01-1.23-1.35-1.99c-0.33-0.76-0.5-1.56-0.5-2.42V36.21z M352.15,41.19c0,0.48,0.1,0.94,0.29,1.38
					c0.2,0.44,0.45,0.82,0.78,1.16c0.32,0.33,0.71,0.59,1.16,0.78c0.45,0.18,0.92,0.28,1.4,0.28c0.48,0,0.94-0.09,1.38-0.26
					c0.44-0.17,0.82-0.41,1.14-0.73c0.32-0.31,0.58-0.67,0.78-1.09c0.2-0.41,0.3-0.86,0.33-1.35v-5.14c0-0.48-0.1-0.94-0.29-1.38
					c-0.2-0.44-0.45-0.82-0.78-1.16c-0.32-0.33-0.71-0.59-1.16-0.78c-0.45-0.18-0.92-0.28-1.4-0.28c-0.51,0-0.98,0.09-1.42,0.28
					c-0.44,0.18-0.82,0.44-1.16,0.78c-0.33,0.33-0.59,0.72-0.78,1.16c-0.18,0.44-0.28,0.9-0.28,1.38V41.19z"/>
				<g>
					<path class="st0" d="M364.58,31.8c0-0.36,0.12-0.66,0.37-0.91c0.25-0.25,0.55-0.37,0.91-0.37c0.29,0,0.56,0.1,0.79,0.29
						c0.24,0.19,0.39,0.45,0.46,0.76c1.06-0.79,2.3-1.18,3.71-1.18c0.79,0.07,1.41,0.17,1.87,0.3c0.46,0.13,0.88,0.33,1.27,0.59
						c0.38,0.26,0.57,0.62,0.57,1.1c0,0.38-0.12,0.69-0.37,0.93c-0.25,0.24-0.55,0.35-0.91,0.35c-0.29,0-0.55-0.08-0.78-0.24
						c-0.56-0.31-1.16-0.47-1.79-0.47c-0.5,0-0.95,0.09-1.37,0.27c-0.42,0.18-0.79,0.42-1.11,0.73c-0.33,0.3-0.58,0.66-0.76,1.06
						c-0.18,0.41-0.28,0.84-0.3,1.32v9.66c0,0.36-0.12,0.66-0.37,0.91c-0.25,0.25-0.55,0.37-0.91,0.37c-0.34,0-0.64-0.12-0.89-0.37
						c-0.26-0.25-0.39-0.55-0.39-0.91v-9.76V31.8z"/>
				</g>
				<path class="st0" d="M385.16,25.37c0-0.37,0.13-0.68,0.38-0.93c0.25-0.25,0.56-0.38,0.93-0.38c0.35,0,0.65,0.13,0.92,0.38
					c0.26,0.25,0.4,0.56,0.4,0.93v15.81c0,0.85-0.17,1.66-0.5,2.42c-0.33,0.76-0.78,1.42-1.35,1.99c-0.56,0.56-1.23,1.01-1.99,1.33
					c-0.76,0.32-1.57,0.48-2.42,0.48c-0.88,0-1.69-0.16-2.43-0.48c-0.75-0.32-1.41-0.76-1.99-1.33c-0.58-0.56-1.02-1.23-1.35-1.99
					c-0.32-0.76-0.48-1.56-0.48-2.42v-4.97c0-0.85,0.17-1.66,0.5-2.42c0.33-0.76,0.78-1.42,1.35-1.99c0.56-0.56,1.23-1.01,1.99-1.33
					c0.76-0.32,1.56-0.48,2.42-0.48c0.67,0,1.31,0.1,1.92,0.31c0.61,0.21,1.18,0.5,1.71,0.86V25.37z M377.91,41.19
					c0,0.48,0.09,0.94,0.28,1.38c0.18,0.44,0.44,0.82,0.78,1.16c0.33,0.33,0.72,0.59,1.16,0.78c0.44,0.18,0.91,0.28,1.42,0.28
					c0.48,0,0.95-0.09,1.4-0.28c0.45-0.18,0.83-0.44,1.16-0.78c0.32-0.33,0.58-0.72,0.78-1.16c0.2-0.44,0.29-0.9,0.29-1.38v-4.97
					c0-0.48-0.09-0.94-0.28-1.38c-0.18-0.44-0.44-0.82-0.78-1.16c-0.33-0.33-0.72-0.59-1.16-0.78c-0.44-0.18-0.91-0.28-1.42-0.28
					c-0.48,0-0.95,0.09-1.4,0.28c-0.45,0.18-0.83,0.44-1.16,0.78c-0.32,0.33-0.58,0.72-0.78,1.16c-0.2,0.44-0.29,0.9-0.29,1.38
					V41.19z"/>
				<path class="st0" d="M301.49,31.45c0-0.37,0.13-0.68,0.38-0.93c0.25-0.25,0.56-0.38,0.93-0.38c0.35,0,0.65,0.13,0.91,0.38
					c0.26,0.25,0.4,0.56,0.4,0.93v9.74c0,0.48,0.09,0.94,0.28,1.38c0.18,0.44,0.44,0.82,0.78,1.16c0.33,0.33,0.72,0.59,1.16,0.78
					c0.44,0.18,0.91,0.28,1.42,0.28c0.48,0,0.95-0.09,1.4-0.28c0.45-0.18,0.83-0.44,1.16-0.78c0.32-0.33,0.58-0.72,0.78-1.16
					c0.2-0.44,0.29-0.9,0.29-1.38v-9.74c0-0.37,0.13-0.68,0.38-0.93c0.25-0.25,0.56-0.38,0.93-0.38c0.35,0,0.65,0.13,0.91,0.38
					c0.26,0.25,0.4,0.56,0.4,0.93v9.74c0,0.85-0.17,1.66-0.5,2.42c-0.33,0.76-0.78,1.42-1.35,1.99c-0.56,0.56-1.23,1.01-1.99,1.33
					c-0.76,0.32-1.57,0.48-2.42,0.48c-0.87,0-1.69-0.16-2.43-0.48c-0.75-0.32-1.41-0.76-1.99-1.33c-0.58-0.56-1.02-1.23-1.35-1.99
					c-0.32-0.76-0.48-1.56-0.48-2.42V31.45z"/>
				<path class="st0" d="M330.89,35.69h-5.47c-0.73,0-1.33,0.56-1.33,1.27c0,0.74,0.59,1.33,1.33,1.33h4.36v2.06
					c0,2.81-2.55,4.93-5.23,4.93c-2.98,0-5.49-2.03-5.49-5.49v-7.87c0-3.21,2.42-5.49,5.4-5.49c2.51,0,4.43,1.67,5.18,3.75
					c0.25,0.43,0.59,0.7,1.18,0.7c1.02,0,1.67-0.82,1.17-2.01c-0.84-2.53-3.42-5.13-7.53-5.13c-4.71,0-8.1,3.73-8.1,8.01v8.19
					c0,4.32,3.41,8.03,8.1,8.03c4.25,0,7.83-3.32,7.83-7.1v-3.94C332.29,36.17,331.64,35.69,330.89,35.69z"/>
			</g>
		</g>
		<path class="st0" d="M385.16,31.45c0-0.37,0.13-0.68,0.38-0.93c0.25-0.25,0.56-0.38,0.93-0.38c0.35,0,0.65,0.13,0.92,0.38
			c0.26,0.25,0.4,0.56,0.4,0.93v14.5c0,0.37-0.13,0.68-0.38,0.93c-0.25,0.25-0.56,0.38-0.93,0.38c-0.35,0-0.65-0.13-0.92-0.38
			c-0.26-0.25-0.4-0.56-0.4-0.93V31.45z"/>
		<g>
			<path class="st0" d="M224.13,26.26c0-0.36,0.12-0.66,0.37-0.91c0.25-0.25,0.55-0.37,0.91-0.37h5.17h0.03
				c1.1,0,2.14,0.21,3.11,0.62c0.97,0.42,1.82,0.98,2.55,1.69c0.73,0.71,1.31,1.55,1.74,2.52c0.43,0.97,0.64,2,0.64,3.11
				c0,1.1-0.21,2.13-0.64,3.09c-0.43,0.96-1,1.8-1.72,2.52c-0.72,0.72-1.57,1.29-2.55,1.71c-0.98,0.42-2.02,0.62-3.12,0.62h-3.92
				v5.13c0,0.36-0.12,0.66-0.37,0.91c-0.25,0.25-0.55,0.37-0.91,0.37c-0.34,0-0.64-0.12-0.89-0.37c-0.26-0.25-0.39-0.55-0.39-0.91
				V26.26z M226.69,27.54v10.74h3.92c0.77,0,1.48-0.14,2.14-0.42c0.66-0.28,1.24-0.66,1.74-1.15c0.49-0.48,0.88-1.05,1.16-1.71
				c0.28-0.65,0.42-1.35,0.42-2.09c0-0.74-0.15-1.44-0.44-2.09c-0.29-0.65-0.69-1.22-1.18-1.71c-0.5-0.48-1.08-0.87-1.74-1.15
				c-0.66-0.28-1.37-0.42-2.11-0.42H226.69z"/>
		</g>
	</g>
	<g>
		<path class="st0" d="M389.58,24.59h-0.48v-0.34h1.39v0.34h-0.49v1.46h-0.41V24.59z"/>
		<path class="st0" d="M392.22,25.36c-0.01-0.22-0.02-0.48-0.02-0.74h-0.01c-0.06,0.23-0.13,0.49-0.2,0.7l-0.22,0.7h-0.32l-0.19-0.7
			c-0.06-0.21-0.12-0.47-0.16-0.7h-0.01c-0.01,0.24-0.02,0.52-0.03,0.75l-0.03,0.69h-0.38l0.12-1.81h0.54l0.18,0.6
			c0.06,0.21,0.11,0.43,0.15,0.65h0.01c0.05-0.21,0.11-0.45,0.17-0.65l0.19-0.6h0.53l0.1,1.81h-0.4L392.22,25.36z"/>
	</g>
</g>
</svg>
