<svg id="Layer_1" xmlns="http://www.w3.org/2000/svg" xmlns:xlink="http://www.w3.org/1999/xlink" viewBox="0 0 300 250"><style>.st0{fill:#fff}.st1{fill:#021d8b}.st2{clip-path:url(#SVGID_00000109745630025553188300000014407011415688669313_)}.st3{clip-path:url(#SVGID_00000057843350519004160740000000138070023868982146_);fill:#fff}</style><path class="st0" d="M279.8 112H95.1c-5.7 0-10.3-4.6-10.3-10.3 0-5.7 4.6-10.3 10.3-10.3h184.7c5.7 0 10.3 4.6 10.3 10.3 0 5.6-4.6 10.3-10.3 10.3zM102.7 64.1h-2.9l-4.2-7.4v7.4h-2.9V52.2h2.9l4.2 7.4v-7.4h2.9v11.9zM108.7 64.3c-1.4 0-2.5-.4-3.3-1.2-.8-.8-1.3-1.9-1.3-3.2v-.2c0-.9.2-1.7.5-2.4s.8-1.2 1.5-1.6c.6-.4 1.4-.6 2.3-.6 1.2 0 2.2.4 2.9 1.2.7.8 1.1 1.9 1.1 3.2v1.1h-5.5c.1.5.3.9.6 1.2.3.3.8.4 1.3.4.9 0 1.6-.3 2-.9l1.3 1.5c-.3.5-.8.9-1.5 1.1-.5.2-1.2.4-1.9.4zm-.3-7.1c-.8 0-1.3.5-1.4 1.6h2.8v-.2c0-.4-.1-.8-.3-1-.4-.3-.7-.4-1.1-.4zM117.8 64.3c-1.4 0-2.5-.4-3.3-1.2-.8-.8-1.3-1.9-1.3-3.2v-.2c0-.9.2-1.7.5-2.4s.8-1.2 1.5-1.6c.6-.4 1.4-.6 2.3-.6 1.2 0 2.2.4 2.9 1.2.7.8 1.1 1.9 1.1 3.2v1.1H116c.1.5.3.9.6 1.2.3.3.8.4 1.3.4.9 0 1.6-.3 2-.9l1.3 1.5c-.3.5-.8.9-1.5 1.1-.5.2-1.2.4-1.9.4zm-.3-7.1c-.8 0-1.3.5-1.4 1.6h2.8v-.2c0-.4-.1-.8-.3-1-.3-.3-.7-.4-1.1-.4zM122.3 59.6c0-1.4.3-2.5.9-3.3.6-.8 1.5-1.2 2.5-1.2.8 0 1.5.3 2 .9v-4.5h2.8v12.6H128l-.1-1c-.6.7-1.3 1.1-2.2 1.1-1.1 0-1.9-.4-2.5-1.2s-.9-1.9-.9-3.4zm2.8.2c0 1.6.5 2.4 1.4 2.4.6 0 1-.3 1.3-.8V58c-.3-.5-.7-.8-1.3-.8-.9 0-1.3.7-1.4 2.1v.5zM136.9 64.1v-6.9h-1.3v-1.9h1.3v-.7c0-1 .3-1.8.9-2.4.6-.6 1.4-.8 2.5-.8.4 0 .8.1 1.3.2v2c-.2 0-.4-.1-.7-.1-.8 0-1.3.4-1.3 1.1v.7h1.7v1.9h-1.7v6.9h-2.7zM147.3 64.1c-.1-.2-.2-.4-.3-.8-.5.6-1.2 1-2.1 1-.8 0-1.5-.3-2.1-.8-.6-.5-.9-1.1-.9-1.9 0-1 .4-1.7 1.1-2.2.7-.5 1.7-.7 3.1-.7h.9v-.5c0-.8-.4-1.2-1.1-1.2-.7 0-1 .3-1 1h-2.8c0-.9.4-1.6 1.1-2.1.7-.5 1.7-.8 2.8-.8 1.1 0 2 .3 2.7.8.7.6 1 1.3 1 2.3v3.9c0 .8.1 1.4.4 1.9v.1h-2.8zm-1.7-1.8c.3 0 .6-.1.9-.2s.4-.3.5-.5v-1.4h-.8c-1 0-1.4.4-1.4 1.3 0 .3.1.5.3.6 0 .1.2.2.5.2zM155.9 61.6c0-.2-.1-.4-.4-.6-.2-.1-.7-.3-1.4-.4-.7-.2-1.3-.4-1.7-.6-.4-.2-.8-.6-1-.9-.2-.4-.4-.8-.4-1.2 0-.8.3-1.5 1-2s1.6-.8 2.6-.8c1.2 0 2.1.3 2.8.8s1.1 1.2 1.1 2.1h-2.8c0-.7-.4-1.1-1.1-1.1-.3 0-.5.1-.7.2-.2.2-.3.4-.3.6 0 .2.1.4.4.6.2.2.6.3 1.2.4.5.1 1 .2 1.4.4 1.3.5 2 1.3 2 2.5 0 .8-.4 1.5-1.1 2-.7.5-1.6.8-2.8.8-.8 0-1.4-.1-2-.4-.6-.3-1.1-.6-1.4-1.1-.3-.5-.5-1-.5-1.5h2.6c0 .4.1.7.4.9.3.2.6.3 1 .3s.7-.1.8-.2.3-.5.3-.8zM163 53.1v2.2h1.5v1.9H163v4.1c0 .3.1.6.2.7.1.1.4.2.7.2h.7v2c-.5.2-1 .2-1.6.2-1 0-1.7-.2-2.1-.7s-.7-1.1-.7-2v-4.4h-1.1v-1.9h1.1v-2.2h2.8zM174.8 64.1c-.1-.2-.2-.4-.3-.8-.5.6-1.2 1-2.1 1-.8 0-1.5-.3-2.1-.8-.6-.5-.9-1.1-.9-1.9 0-1 .4-1.7 1.1-2.2.7-.5 1.7-.7 3.1-.7h.9v-.5c0-.8-.4-1.2-1.1-1.2-.7 0-1 .3-1 1h-2.8c0-.9.4-1.6 1.1-2.1.7-.5 1.7-.8 2.8-.8 1.1 0 2 .3 2.7.8.7.6 1 1.3 1 2.3v3.9c0 .8.1 1.4.4 1.9v.1h-2.8zm-1.8-1.8c.3 0 .6-.1.9-.2s.4-.3.5-.5v-1.4h-.8c-1 0-1.4.4-1.4 1.3 0 .3.1.5.3.6 0 .1.3.2.5.2zM182.4 62.2c.4 0 .7-.1.9-.3.2-.2.3-.5.3-.9h2.6c0 1-.3 1.8-1 2.4-.7.6-1.6.9-2.7.9-1.3 0-2.3-.4-3-1.2-.7-.8-1.1-1.9-1.1-3.4v-.1c0-.9.2-1.7.5-2.4s.8-1.2 1.4-1.6c.6-.4 1.4-.6 2.2-.6 1.2 0 2.1.3 2.7 1 .7.6 1 1.5 1 2.6h-2.6c0-.5-.1-.8-.3-1.1-.2-.2-.5-.4-.9-.4-.7 0-1.1.5-1.3 1.4 0 .3-.1.7-.1 1.2 0 .9.1 1.5.3 1.9s.7.6 1.1.6zM191.1 62.2c.4 0 .7-.1.9-.3.2-.2.3-.5.3-.9h2.6c0 1-.3 1.8-1 2.4-.7.6-1.6.9-2.7.9-1.3 0-2.3-.4-3-1.2-.7-.8-1.1-1.9-1.1-3.4v-.1c0-.9.2-1.7.5-2.4s.8-1.2 1.4-1.6c.6-.4 1.4-.6 2.2-.6 1.2 0 2.1.3 2.7 1 .7.6 1 1.5 1 2.6h-2.6c0-.5-.1-.8-.3-1.1-.2-.2-.5-.4-.9-.4-.7 0-1.1.5-1.3 1.4 0 .3-.1.7-.1 1.2 0 .9.1 1.5.3 1.9s.7.6 1.1.6zM200.4 64.3c-1.4 0-2.5-.4-3.3-1.2-.8-.8-1.3-1.9-1.3-3.2v-.2c0-.9.2-1.7.5-2.4s.8-1.2 1.5-1.6c.6-.4 1.4-.6 2.3-.6 1.2 0 2.2.4 2.9 1.2.7.8 1.1 1.9 1.1 3.2v1.1h-5.5c.1.5.3.9.6 1.2.3.3.8.4 1.3.4.9 0 1.6-.3 2-.9l1.3 1.5c-.3.5-.8.9-1.5 1.1-.5.2-1.2.4-1.9.4zm-.3-7.1c-.8 0-1.3.5-1.4 1.6h2.8v-.2c0-.4-.1-.8-.3-1-.4-.3-.7-.4-1.1-.4zM209.9 61.6c0-.2-.1-.4-.4-.6-.2-.1-.7-.3-1.4-.4-.7-.2-1.3-.4-1.7-.6-.4-.2-.8-.6-1-.9-.2-.4-.4-.8-.4-1.2 0-.8.3-1.5 1-2s1.6-.8 2.6-.8c1.2 0 2.1.3 2.8.8s1.1 1.2 1.1 2.1h-2.8c0-.7-.4-1.1-1.1-1.1-.3 0-.5.1-.7.2-.2.2-.3.4-.3.6 0 .2.1.4.4.6.2.2.6.3 1.2.4.5.1 1 .2 1.4.4 1.3.5 2 1.3 2 2.5 0 .8-.4 1.5-1.1 2-.7.5-1.6.8-2.8.8-.8 0-1.4-.1-2-.4-.6-.3-1.1-.6-1.4-1.1-.3-.5-.5-1-.5-1.5h2.6c0 .4.1.7.4.9.3.2.6.3 1 .3s.7-.1.8-.2.3-.5.3-.8zM218.5 61.6c0-.2-.1-.4-.4-.6-.2-.1-.7-.3-1.4-.4-.7-.2-1.3-.4-1.7-.6-.4-.2-.8-.6-1-.9-.2-.4-.4-.8-.4-1.2 0-.8.3-1.5 1-2s1.6-.8 2.6-.8c1.2 0 2.1.3 2.8.8s1.1 1.2 1.1 2.1h-2.8c0-.7-.4-1.1-1.1-1.1-.3 0-.5.1-.7.2-.2.2-.3.4-.3.6 0 .2.1.4.4.6.2.2.6.3 1.2.4.5.1 1 .2 1.4.4 1.3.5 2 1.3 2 2.5 0 .8-.4 1.5-1.1 2-.7.5-1.6.8-2.8.8-.8 0-1.4-.1-2-.4-.6-.3-1.1-.6-1.4-1.1-.3-.5-.5-1-.5-1.5h2.6c0 .4.1.7.4.9.3.2.6.3 1 .3s.7-.1.8-.2.3-.5.3-.8zM229.8 53.1v2.2h1.5v1.9h-1.5v4.1c0 .3.1.6.2.7.1.1.4.2.7.2h.7v2c-.5.2-1 .2-1.6.2-1 0-1.7-.2-2.1-.7s-.7-1.1-.7-2v-4.4h-1.1v-1.9h1.1v-2.2h2.8zM231.8 59.6c0-.9.2-1.7.5-2.4s.8-1.2 1.5-1.6c.6-.4 1.4-.6 2.3-.6 1.3 0 2.4.4 3.1 1.2s1.1 1.9 1.1 3.4v.1c0 1.4-.4 2.5-1.2 3.3-.8.8-1.8 1.2-3.1 1.2s-2.3-.4-3-1.1-1.2-1.8-1.2-3.1v-.4zm2.7.2c0 .8.1 1.4.4 1.8s.6.6 1.1.6c1 0 1.5-.8 1.5-2.3v-.3c0-1.6-.5-2.4-1.5-2.4-.9 0-1.4.7-1.5 2.1v.5zM249.2 60.3l1.5-5h3l-3.6 10.3-.2.4c-.5 1.1-1.4 1.7-2.7 1.7-.4 0-.7-.1-1.1-.2v-2h.4c.4 0 .7-.1.9-.2.2-.1.4-.3.5-.6l.2-.6-3.1-9h2.9l1.3 5.2zM254 59.6c0-.9.2-1.7.5-2.4s.8-1.2 1.5-1.6c.6-.4 1.4-.6 2.3-.6 1.3 0 2.4.4 3.1 1.2s1.1 1.9 1.1 3.4v.1c0 1.4-.4 2.5-1.2 3.3-.8.8-1.8 1.2-3.1 1.2s-2.3-.4-3-1.1-1.2-1.8-1.2-3.1v-.4zm2.8.2c0 .8.1 1.4.4 1.8s.6.6 1.1.6c1 0 1.5-.8 1.5-2.3v-.3c0-1.6-.5-2.4-1.5-2.4-.9 0-1.4.7-1.5 2.1v.5zM269.1 63.2c-.6.7-1.4 1.1-2.4 1.1s-1.7-.3-2.2-.8c-.5-.6-.7-1.4-.7-2.4v-5.7h2.8V61c0 .8.4 1.1 1.1 1.1.6 0 1.1-.2 1.4-.7v-6.2h2.8v8.9h-2.6l-.2-.9zM278.6 57.8l-.9-.1c-.9 0-1.4.3-1.7.8v5.6h-2.8v-8.9h2.6l.1 1.1c.5-.9 1.1-1.3 1.9-1.3.3 0 .6 0 .8.1v2.7zM106.6 72.9v2.2h1.5V77h-1.5v4.1c0 .3.1.6.2.7.1.1.4.2.7.2h.7v2c-.5.2-1 .2-1.6.2-1 0-1.7-.2-2.1-.7s-.7-1.1-.7-2V77h-1.1v-1.9h1.1v-2.2h2.8zM114.5 77.6l-.9-.1c-.9 0-1.4.3-1.7.8V84h-2.8v-8.9h2.6l.1 1.1c.5-.9 1.1-1.3 1.9-1.3.3 0 .6 0 .8.1v2.6zM115.5 72.8c0-.4.1-.7.4-1 .3-.3.7-.4 1.1-.4s.8.1 1.1.4c.3.3.4.6.4 1s-.1.7-.4 1c-.3.3-.7.4-1.1.4s-.8-.1-1.1-.4c-.3-.3-.4-.6-.4-1zm2.9 11.2h-2.8v-8.9h2.8V84zM128.3 79.6c0 1.4-.3 2.5-.9 3.3s-1.5 1.2-2.5 1.2c-.8 0-1.5-.3-2-.9v4.1h-2.8V75.1h2.6l.1.8c.5-.7 1.2-1 2.1-1 1.1 0 1.9.4 2.5 1.2s.9 1.9.9 3.3v.2zm-2.7-.2c0-1.6-.5-2.4-1.4-2.4-.7 0-1.1.2-1.3.7v3.5c.2.5.7.7 1.3.7.9 0 1.3-.8 1.4-2.3v-.2zM132.5 84h-2.8V71.4h2.8V84zM138.5 84.1c-1.4 0-2.5-.4-3.3-1.2-.8-.8-1.3-1.9-1.3-3.2v-.2c0-.9.2-1.7.5-2.4s.8-1.2 1.5-1.6c.6-.4 1.4-.6 2.3-.6 1.2 0 2.2.4 2.9 1.2.7.8 1.1 1.9 1.1 3.2v1.1h-5.5c.1.5.3.9.6 1.2.3.3.8.4 1.3.4.9 0 1.6-.3 2-.9l1.3 1.5c-.3.5-.8.9-1.5 1.1-.5.3-1.2.4-1.9.4zm-.4-7c-.8 0-1.3.5-1.4 1.6h2.8v-.2c0-.4-.1-.8-.3-1-.3-.3-.6-.4-1.1-.4zM148.7 79.9h-4.9v-2.1h4.9v2.1zM159.1 79.6c0 1.5-.3 2.6-.9 3.4-.6.8-1.4 1.2-2.5 1.2-.9 0-1.6-.4-2.2-1.1l-.1.9h-2.5V71.4h2.8v4.4c.5-.6 1.2-.9 2-.9 1.1 0 2 .4 2.6 1.2.6.8.9 1.9.9 3.3v.2zm-2.8-.2c0-.9-.1-1.5-.3-1.8-.2-.4-.6-.5-1-.5-.6 0-1.1.2-1.3.7v3.5c.2.5.7.7 1.3.7.7 0 1.1-.3 1.2-.9.1-.4.1-.9.1-1.7zM165.6 83c-.6.7-1.4 1.1-2.4 1.1s-1.7-.3-2.2-.8c-.5-.6-.7-1.4-.7-2.4v-5.7h2.8V81c0 .8.4 1.1 1.1 1.1.6 0 1.1-.2 1.4-.7v-6.2h2.8V84h-2.6l-.2-1zM175.1 77.6l-.9-.1c-.9 0-1.4.3-1.7.8V84h-2.8v-8.9h2.6l.1 1.1c.5-.9 1.1-1.3 1.9-1.3.3 0 .6 0 .8.1v2.6zM180.4 84.1c-1.4 0-2.5-.4-3.3-1.2-.8-.8-1.3-1.9-1.3-3.2v-.2c0-.9.2-1.7.5-2.4s.8-1.2 1.5-1.6c.6-.4 1.4-.6 2.3-.6 1.2 0 2.2.4 2.9 1.2.7.8 1.1 1.9 1.1 3.2v1.1h-5.5c.1.5.3.9.6 1.2.3.3.8.4 1.3.4.9 0 1.6-.3 2-.9l1.3 1.5c-.3.5-.8.9-1.5 1.1-.5.3-1.2.4-1.9.4zm-.3-7c-.8 0-1.3.5-1.4 1.6h2.8v-.2c0-.4-.1-.8-.3-1-.3-.3-.7-.4-1.1-.4zM190.2 84c-.1-.2-.2-.4-.3-.8-.5.6-1.2 1-2.1 1-.8 0-1.5-.3-2.1-.8-.6-.5-.9-1.1-.9-1.9 0-1 .4-1.7 1.1-2.2.7-.5 1.7-.7 3.1-.7h.9v-.5c0-.8-.4-1.2-1.1-1.2-.7 0-1 .3-1 1H185c0-.9.4-1.6 1.1-2.1.7-.5 1.7-.8 2.8-.8 1.1 0 2 .3 2.7.8.7.6 1 1.3 1 2.3V82c0 .8.1 1.4.4 1.9v.1h-2.8zm-1.7-1.9c.3 0 .6-.1.9-.2s.4-.3.5-.5V80h-.9c-1 0-1.4.4-1.4 1.3 0 .3.1.5.3.6.1.2.3.2.6.2zM199.4 83c-.6.7-1.4 1.1-2.4 1.1s-1.7-.3-2.2-.8c-.5-.6-.7-1.4-.7-2.4v-5.7h2.8V81c0 .8.4 1.1 1.1 1.1.6 0 1.1-.2 1.4-.7v-6.2h2.8V84h-2.6l-.2-1zM210.4 75.1l.1 1c.6-.8 1.5-1.2 2.5-1.2 1.1 0 1.9.4 2.3 1.3.6-.9 1.5-1.3 2.6-1.3 1.8 0 2.7 1.1 2.8 3.3V84h-2.8v-5.6c0-.5-.1-.8-.2-1-.2-.2-.4-.3-.8-.3-.5 0-1 .2-1.2.7V84h-2.8v-5.6c0-.5-.1-.8-.2-1-.1-.2-.4-.3-.8-.3-.5 0-.9.2-1.2.7V84h-2.8v-8.9h2.5zM221.9 79.4c0-.9.2-1.7.5-2.4s.8-1.2 1.5-1.6c.6-.4 1.4-.6 2.3-.6 1.3 0 2.4.4 3.1 1.2s1.1 1.9 1.1 3.4v.1c0 1.4-.4 2.5-1.2 3.3-.8.8-1.8 1.2-3.1 1.2s-2.3-.4-3-1.1-1.2-1.8-1.2-3.1v-.4zm2.7.2c0 .8.1 1.4.4 1.8s.6.6 1.1.6c1 0 1.5-.8 1.5-2.3v-.3c0-1.6-.5-2.4-1.5-2.4-.9 0-1.4.7-1.5 2.1v.5zM234.2 75.1l.1 1c.6-.8 1.5-1.2 2.5-1.2.9 0 1.6.3 2.1.8.5.6.7 1.4.7 2.5V84h-2.8v-5.6c0-.4-.1-.8-.3-1-.2-.2-.5-.3-1-.3s-.9.2-1.2.6V84h-2.8v-8.9h2.7zM244.3 72.9v2.2h1.5V77h-1.5v4.1c0 .3.1.6.2.7.1.1.4.2.7.2h.7v2c-.5.2-1 .2-1.6.2-1 0-1.7-.2-2.1-.7s-.7-1.1-.7-2V77h-1.1v-1.9h1.1v-2.2h2.8zM249.6 76c.6-.7 1.3-1.1 2.3-1.1 1 0 1.7.3 2.2.9.5.6.8 1.4.8 2.6V84H252v-5.5c0-.5-.1-.8-.3-1-.2-.2-.5-.3-1-.3-.6 0-1 .2-1.2.5V84h-2.8V71.4h2.8V76zM259.2 84h-2.8V71.4h2.8V84zM264.5 80.1l1.5-5h3l-3.6 10.3-.2.4c-.5 1.1-1.4 1.7-2.7 1.7-.4 0-.7-.1-1.1-.2v-2h.4c.4 0 .7-.1.9-.2.2-.1.4-.3.5-.6l.2-.6-3.1-9h2.9l1.3 5.2z"/><path class="st1" d="M94.4 104.5c.4 0 .7-.1.9-.3s.3-.5.3-.9h2.6c0 1-.3 1.8-1 2.4-.7.6-1.6.9-2.7.9-1.3 0-2.3-.4-3-1.2-.7-.8-1.1-1.9-1.1-3.4v-.1c0-.9.2-1.7.5-2.4s.8-1.2 1.4-1.6c.6-.4 1.4-.6 2.2-.6 1.2 0 2.1.3 2.7 1 .7.6 1 1.5 1 2.6h-2.6c0-.5-.1-.8-.3-1.1-.2-.2-.5-.4-.9-.4-.7 0-1.1.5-1.3 1.4 0 .3-.1.7-.1 1.2 0 .9.1 1.5.3 1.9.3.4.6.6 1.1.6zM104.7 100.1l-.9-.1c-.9 0-1.4.3-1.7.8v5.6h-2.8v-8.9h2.6l.1 1.1c.5-.9 1.1-1.3 1.9-1.3.3 0 .6 0 .8.1v2.7zM110 106.6c-1.4 0-2.5-.4-3.3-1.2-.8-.8-1.3-1.9-1.3-3.2v-.2c0-.9.2-1.7.5-2.4s.8-1.2 1.5-1.6c.6-.4 1.4-.6 2.3-.6 1.2 0 2.2.4 2.9 1.2.7.8 1.1 1.8 1.1 3.2v1.1h-5.5c.1.5.3.9.6 1.2s.8.4 1.3.4c.9 0 1.6-.3 2-.9l1.3 1.5c-.3.5-.8.9-1.5 1.1s-1.2.4-1.9.4zm-.3-7c-.8 0-1.3.5-1.4 1.6h2.8v-.2c0-.4-.1-.8-.3-1-.4-.3-.7-.4-1.1-.4zM114.5 102c0-1.4.3-2.5.9-3.3.6-.8 1.5-1.2 2.5-1.2.8 0 1.5.3 2 .9v-4.5h2.8v12.6h-2.5l-.1-1c-.6.7-1.3 1.1-2.2 1.1-1.1 0-1.9-.4-2.5-1.2-.6-.8-.9-1.9-.9-3.4zm2.7.1c0 1.6.5 2.4 1.4 2.4.6 0 1-.3 1.3-.8v-3.4c-.3-.5-.7-.8-1.3-.8-.9 0-1.3.7-1.4 2.1v.5zM124.2 95.3c0-.4.1-.7.4-1 .3-.3.7-.4 1.1-.4s.8.1 1.1.4c.3.3.4.6.4 1s-.1.7-.4 1c-.3.3-.7.4-1.1.4s-.8-.1-1.1-.4-.4-.6-.4-1zm3 11.2h-2.8v-8.9h2.8v8.9zM132.1 95.4v2.2h1.5v1.9h-1.5v4.1c0 .3.1.6.2.7s.4.2.7.2h.7v2c-.5.2-1 .2-1.6.2-1 0-1.7-.2-2.1-.7-.5-.4-.7-1.1-.7-2v-4.4h-1.1v-1.9h1.1v-2.2h2.8zM144.2 100.1l-.9-.1c-.9 0-1.4.3-1.7.8v5.6h-2.8v-8.9h2.6l.1 1.1c.5-.9 1.1-1.3 1.9-1.3.3 0 .6 0 .8.1v2.7zM149.5 106.6c-1.4 0-2.5-.4-3.3-1.2-.8-.8-1.3-1.9-1.3-3.2v-.2c0-.9.2-1.7.5-2.4s.8-1.2 1.5-1.6c.6-.4 1.4-.6 2.3-.6 1.2 0 2.2.4 2.9 1.2.7.8 1.1 1.8 1.1 3.2v1.1h-5.5c.1.5.3.9.6 1.2s.8.4 1.3.4c.9 0 1.6-.3 2-.9l1.3 1.5c-.3.5-.8.9-1.5 1.1s-1.2.4-1.9.4zm-.3-7c-.8 0-1.3.5-1.4 1.6h2.8v-.2c0-.4-.1-.8-.3-1-.4-.3-.7-.4-1.1-.4zM162.5 102.1c0 1.4-.3 2.5-.9 3.3-.6.8-1.5 1.2-2.5 1.2-.8 0-1.5-.3-2-.9v4.1h-2.8V97.6h2.6l.1.8c.5-.7 1.2-1 2.1-1 1.1 0 1.9.4 2.5 1.2s.9 1.9.9 3.3v.2zm-2.7-.2c0-1.6-.5-2.4-1.4-2.4-.7 0-1.1.2-1.3.7v3.5c.2.5.7.7 1.3.7.9 0 1.3-.8 1.4-2.3v-.2zM163.4 101.9c0-.9.2-1.7.5-2.4s.8-1.2 1.5-1.6 1.4-.6 2.3-.6c1.3 0 2.4.4 3.1 1.2.8.8 1.1 1.9 1.1 3.4v.1c0 1.4-.4 2.5-1.2 3.3-.8.8-1.8 1.2-3.1 1.2s-2.3-.4-3-1.1c-.8-.8-1.2-1.8-1.2-3.1v-.4zm2.8.2c0 .8.1 1.4.4 1.8.3.4.6.6 1.1.6 1 0 1.5-.8 1.5-2.3v-.3c0-1.6-.5-2.4-1.5-2.4-.9 0-1.4.7-1.5 2.1v.5zM178.5 100.1l-.9-.1c-.9 0-1.4.3-1.7.8v5.6h-2.8v-8.9h2.6l.1 1.1c.5-.9 1.1-1.3 1.9-1.3.3 0 .6 0 .8.1v2.7zM183.2 95.4v2.2h1.5v1.9h-1.5v4.1c0 .3.1.6.2.7s.4.2.7.2h.7v2c-.5.2-1 .2-1.6.2-1 0-1.7-.2-2.1-.7-.5-.4-.7-1.1-.7-2v-4.4h-1.1v-1.9h1.1v-2.2h2.8zM190.3 104c0-.2-.1-.4-.4-.6-.2-.1-.7-.3-1.4-.4-.7-.2-1.3-.4-1.7-.6-.4-.2-.8-.5-1-.9-.2-.4-.4-.8-.4-1.2 0-.8.3-1.5 1-2s1.6-.8 2.6-.8c1.2 0 2.1.3 2.8.8.7.5 1.1 1.2 1.1 2.1h-2.8c0-.7-.4-1.1-1.1-1.1-.3 0-.5.1-.7.2-.2.2-.3.4-.3.6 0 .2.1.4.4.6.2.2.6.3 1.2.4s1 .2 1.4.4c1.3.5 2 1.3 2 2.5 0 .8-.4 1.5-1.1 2-.7.5-1.6.8-2.8.8-.8 0-1.4-.1-2-.4-.6-.3-1.1-.6-1.4-1.1s-.5-1-.5-1.5h2.6c0 .4.1.7.4.9.3.2.6.3 1 .3s.7-.1.8-.2c.2-.4.3-.6.3-.8zM203.5 106.5c-.1-.2-.2-.4-.3-.8-.5.6-1.2 1-2.1 1-.8 0-1.5-.3-2.1-.8s-.9-1.1-.9-1.9c0-1 .4-1.7 1.1-2.2.7-.5 1.7-.7 3.1-.7h.9v-.5c0-.8-.4-1.2-1.1-1.2-.7 0-1 .3-1 1h-2.8c0-.9.4-1.6 1.1-2.1.7-.5 1.7-.8 2.8-.8 1.1 0 2 .3 2.7.8s1 1.3 1 2.3v3.9c0 .8.1 1.4.4 1.9v.1h-2.8zm-1.8-1.8c.3 0 .6-.1.9-.2s.4-.3.5-.5v-1.4h-.8c-1 0-1.4.4-1.4 1.3 0 .3.1.5.3.6.1.1.3.2.5.2zM209.9 97.6l.1 1c.6-.8 1.5-1.2 2.5-1.2.9 0 1.6.3 2.1.8.5.6.7 1.4.7 2.5v5.7h-2.8v-5.6c0-.4-.1-.8-.3-1-.2-.2-.5-.3-1-.3s-.9.2-1.2.6v6.3h-2.8v-8.9h2.7zM216.5 102c0-1.4.3-2.5.9-3.3.6-.8 1.5-1.2 2.5-1.2.8 0 1.5.3 2 .9v-4.5h2.8v12.6h-2.5l-.1-1c-.6.7-1.3 1.1-2.2 1.1-1.1 0-1.9-.4-2.5-1.2-.6-.8-.9-1.9-.9-3.4zm2.7.1c0 1.6.5 2.4 1.4 2.4.6 0 1-.3 1.3-.8v-3.4c-.3-.5-.7-.8-1.3-.8-.9 0-1.3.7-1.4 2.1v.5zM235.1 104c0-.2-.1-.4-.4-.6-.2-.1-.7-.3-1.4-.4-.7-.2-1.3-.4-1.7-.6-.4-.2-.8-.5-1-.9-.2-.4-.4-.8-.4-1.2 0-.8.3-1.5 1-2s1.6-.8 2.6-.8c1.2 0 2.1.3 2.8.8.7.5 1.1 1.2 1.1 2.1H235c0-.7-.4-1.1-1.1-1.1-.3 0-.5.1-.7.2-.2.2-.3.4-.3.6 0 .2.1.4.4.6.2.2.6.3 1.2.4s1 .2 1.4.4c1.3.5 2 1.3 2 2.5 0 .8-.4 1.5-1.1 2-.7.5-1.6.8-2.8.8-.8 0-1.4-.1-2-.4-.6-.3-1.1-.6-1.4-1.1s-.5-1-.5-1.5h2.6c0 .4.1.7.4.9.3.2.6.3 1 .3s.7-.1.8-.2c.1-.4.2-.6.2-.8zM242.8 104.5c.4 0 .7-.1.9-.3s.3-.5.3-.9h2.6c0 1-.3 1.8-1 2.4-.7.6-1.6.9-2.7.9-1.3 0-2.3-.4-3-1.2-.7-.8-1.1-1.9-1.1-3.4v-.1c0-.9.2-1.7.5-2.4s.8-1.2 1.4-1.6c.6-.4 1.4-.6 2.2-.6 1.2 0 2.1.3 2.7 1 .7.6 1 1.5 1 2.6H244c0-.5-.1-.8-.3-1.1-.2-.2-.5-.4-.9-.4-.7 0-1.1.5-1.3 1.4 0 .3-.1.7-.1 1.2 0 .9.1 1.5.3 1.9.3.4.6.6 1.1.6zM247.4 101.9c0-.9.2-1.7.5-2.4s.8-1.2 1.5-1.6 1.4-.6 2.3-.6c1.3 0 2.4.4 3.1 1.2.8.8 1.1 1.9 1.1 3.4v.1c0 1.4-.4 2.5-1.2 3.3-.8.8-1.8 1.2-3.1 1.2s-2.3-.4-3-1.1c-.8-.8-1.2-1.8-1.2-3.1v-.4zm2.8.2c0 .8.1 1.4.4 1.8.3.4.6.6 1.1.6 1 0 1.5-.8 1.5-2.3v-.3c0-1.6-.5-2.4-1.5-2.4-.9 0-1.4.7-1.5 2.1v.5zM262.5 100.1l-.9-.1c-.9 0-1.4.3-1.7.8v5.6h-2.8v-8.9h2.6l.1 1.1c.5-.9 1.1-1.3 1.9-1.3.3 0 .6 0 .8.1v2.7zM267.8 106.6c-1.4 0-2.5-.4-3.3-1.2-.8-.8-1.3-1.9-1.3-3.2v-.2c0-.9.2-1.7.5-2.4s.8-1.2 1.5-1.6c.6-.4 1.4-.6 2.3-.6 1.2 0 2.2.4 2.9 1.2.7.8 1.1 1.8 1.1 3.2v1.1H266c.1.5.3.9.6 1.2s.8.4 1.3.4c.9 0 1.6-.3 2-.9l1.3 1.5c-.3.5-.8.9-1.5 1.1s-1.2.4-1.9.4zm-.3-7c-.8 0-1.3.5-1.4 1.6h2.8v-.2c0-.4-.1-.8-.3-1-.3-.3-.7-.4-1.1-.4zM277.3 104c0-.2-.1-.4-.4-.6-.2-.1-.7-.3-1.4-.4-.7-.2-1.3-.4-1.7-.6-.4-.2-.8-.5-1-.9-.2-.4-.4-.8-.4-1.2 0-.8.3-1.5 1-2s1.6-.8 2.6-.8c1.2 0 2.1.3 2.8.8.7.5 1.1 1.2 1.1 2.1h-2.8c0-.7-.4-1.1-1.1-1.1-.3 0-.5.1-.7.2-.2.2-.3.4-.3.6 0 .2.1.4.4.6.2.2.6.3 1.2.4s1 .2 1.4.4c1.3.5 2 1.3 2 2.5 0 .8-.4 1.5-1.1 2-.7.5-1.6.8-2.8.8-.8 0-1.4-.1-2-.4-.6-.3-1.1-.6-1.4-1.1s-.5-1-.5-1.5h2.6c0 .4.1.7.4.9.3.2.6.3 1 .3s.7-.1.8-.2c.2-.4.3-.6.3-.8zM282.2 109.7l-1.4-.7.3-.6c.4-.7.6-1.4.6-2v-2h2.2v1.8c0 .6-.2 1.3-.5 1.9-.3.6-.7 1.2-1.2 1.6z"/><path class="st0" d="M132.1 127.9c-.1-.2-.2-.4-.3-.8-.5.6-1.2 1-2.1 1-.8 0-1.5-.3-2.1-.8s-.9-1.1-.9-1.9c0-1 .4-1.7 1.1-2.2.7-.5 1.7-.7 3.1-.7h.9v-.5c0-.8-.4-1.2-1.1-1.2-.7 0-1 .3-1 1H127c0-.9.4-1.6 1.1-2.1.7-.5 1.7-.8 2.8-.8 1.1 0 2 .3 2.7.8s1 1.3 1 2.3v3.9c0 .8.1 1.4.4 1.9v.1h-2.9zm-1.7-1.8c.3 0 .6-.1.9-.2s.4-.3.5-.5V124h-.8c-1 0-1.4.4-1.4 1.3 0 .3.1.5.3.6 0 .1.3.2.5.2zM139 127.9h-2.8v-12.6h2.8v12.6zM143.6 127.9h-2.8v-12.6h2.8v12.6zM149.4 116.7c0-.4.1-.7.4-1 .3-.3.7-.4 1.1-.4s.8.1 1.1.4c.3.3.4.6.4 1s-.1.7-.4 1c-.3.3-.7.4-1.1.4s-.8-.1-1.1-.4-.4-.6-.4-1zm3 11.2h-2.8V119h2.8v8.9zM156.6 119l.1 1c.6-.8 1.5-1.2 2.5-1.2.9 0 1.6.3 2.1.8.5.6.7 1.4.7 2.5v5.7h-2.8v-5.6c0-.4-.1-.8-.3-1-.2-.2-.5-.3-1-.3s-.9.2-1.2.6v6.3H154V119h2.6zM167.4 123.4c0-.9.2-1.7.5-2.4s.8-1.2 1.5-1.6 1.4-.6 2.3-.6c1.3 0 2.4.4 3.1 1.2.8.8 1.1 1.9 1.1 3.4v.1c0 1.4-.4 2.5-1.2 3.3-.8.8-1.8 1.2-3.1 1.2s-2.3-.4-3-1.1c-.8-.8-1.2-1.8-1.2-3.1v-.4zm2.7.1c0 .8.1 1.4.4 1.8.3.4.6.6 1.1.6 1 0 1.5-.8 1.5-2.3v-.3c0-1.6-.5-2.4-1.5-2.4-.9 0-1.4.7-1.5 2.1v.5zM179.7 119l.1 1c.6-.8 1.5-1.2 2.5-1.2.9 0 1.6.3 2.1.8.5.6.7 1.4.7 2.5v5.7h-2.8v-5.6c0-.4-.1-.8-.3-1-.2-.2-.5-.3-1-.3s-.9.2-1.2.6v6.3H177V119h2.7zM190.9 128.1c-1.4 0-2.5-.4-3.3-1.2-.8-.8-1.3-1.9-1.3-3.2v-.2c0-.9.2-1.7.5-2.4s.8-1.2 1.5-1.6c.6-.4 1.4-.6 2.3-.6 1.2 0 2.2.4 2.9 1.2.7.8 1.1 1.8 1.1 3.2v1.1h-5.5c.1.5.3.9.6 1.2s.8.4 1.3.4c.9 0 1.6-.3 2-.9l1.3 1.5c-.3.5-.8.9-1.5 1.1s-1.2.4-1.9.4zm-.3-7.1c-.8 0-1.3.5-1.4 1.6h2.8v-.2c0-.4-.1-.8-.3-1-.4-.3-.7-.4-1.1-.4zM208.1 123.5c0 1.4-.3 2.5-.9 3.3-.6.8-1.5 1.2-2.5 1.2-.8 0-1.5-.3-2-.9v4.1h-2.8V119h2.6l.1.8c.5-.7 1.2-1 2.1-1 1.1 0 1.9.4 2.5 1.2s.9 1.9.9 3.3v.2zm-2.7-.1c0-1.6-.5-2.4-1.4-2.4-.7 0-1.1.2-1.3.7v3.5c.2.5.7.7 1.3.7.9 0 1.3-.8 1.4-2.3v-.2zM212.3 127.9h-2.8v-12.6h2.8v12.6zM218.9 127.9c-.1-.2-.2-.4-.3-.8-.5.6-1.2 1-2.1 1-.8 0-1.5-.3-2.1-.8s-.9-1.1-.9-1.9c0-1 .4-1.7 1.1-2.2.7-.5 1.7-.7 3.1-.7h.9v-.5c0-.8-.4-1.2-1.1-1.2-.7 0-1 .3-1 1h-2.8c0-.9.4-1.6 1.1-2.1.7-.5 1.7-.8 2.8-.8 1.1 0 2 .3 2.7.8s1 1.3 1 2.3v3.9c0 .8.1 1.4.4 1.9v.1h-2.8zm-1.7-1.8c.3 0 .6-.1.9-.2s.4-.3.5-.5V124h-.8c-1 0-1.4.4-1.4 1.3 0 .3.1.5.3.6 0 .1.3.2.5.2zM226.6 125.9c.4 0 .7-.1.9-.3s.3-.5.3-.9h2.6c0 1-.3 1.8-1 2.4-.7.6-1.6.9-2.7.9-1.3 0-2.3-.4-3-1.2-.7-.8-1.1-1.9-1.1-3.4v-.1c0-.9.2-1.7.5-2.4s.8-1.2 1.4-1.6c.6-.4 1.4-.6 2.2-.6 1.2 0 2.1.3 2.7 1 .7.6 1 1.5 1 2.6h-2.6c0-.5-.1-.8-.3-1.1-.2-.2-.5-.4-.9-.4-.7 0-1.1.5-1.3 1.4 0 .3-.1.7-.1 1.2 0 .9.1 1.5.3 1.9.3.5.6.6 1.1.6zM235.9 128.1c-1.4 0-2.5-.4-3.3-1.2-.8-.8-1.3-1.9-1.3-3.2v-.2c0-.9.2-1.7.5-2.4s.8-1.2 1.5-1.6c.6-.4 1.4-.6 2.3-.6 1.2 0 2.2.4 2.9 1.2.7.8 1.1 1.8 1.1 3.2v1.1h-5.5c.1.5.3.9.6 1.2s.8.4 1.3.4c.9 0 1.6-.3 2-.9l1.3 1.5c-.3.5-.8.9-1.5 1.1s-1.2.4-1.9.4zm-.3-7.1c-.8 0-1.3.5-1.4 1.6h2.8v-.2c0-.4-.1-.8-.3-1-.4-.3-.7-.4-1.1-.4zM242.8 124.1c0-.8.1-1.4.3-1.9.2-.5.5-.9.9-1.2.4-.3.7-.6.9-.9s.3-.6.3-.9c0-.8-.4-1.2-1.1-1.2-.3 0-.6.1-.8.4s-.3.6-.3 1h-2.8c0-1.1.4-1.9 1-2.6.7-.6 1.6-.9 2.9-.9 1.2 0 2.2.3 2.8.8s1 1.4 1 2.4c0 .5-.1.9-.3 1.2-.2.4-.5.8-.9 1.1l-.9.9c-.3.3-.5.5-.6.8-.1.3-.2.6-.2 1h-2.2zm-.4 2.5c0-.4.1-.7.4-1s.7-.4 1.1-.4.8.1 1.1.4.4.6.4 1-.1.7-.4 1c-.3.3-.7.4-1.1.4s-.8-.1-1.1-.4c-.2-.3-.4-.6-.4-1z"/><g id="PG_x5F_Logo_x5F_W_00000137124683417911367440000010117587184698312116_"><defs><path id="SVGID_1_" d="M209.4 215.4h76.9v22.2h-76.9z"/></defs><clipPath id="SVGID_00000160910633048516292430000008577799432596339360_"><use xlink:href="#SVGID_1_" overflow="visible"/></clipPath><g clip-path="url(#SVGID_00000160910633048516292430000008577799432596339360_)"><defs><path id="SVGID_00000045600648014450066760000002341873058963758492_" d="M209.4 215.4h76.9v22.2h-76.9z"/></defs><clipPath id="SVGID_00000128459789499818840930000010834987619802860723_"><use xlink:href="#SVGID_00000045600648014450066760000002341873058963758492_" overflow="visible"/></clipPath><path d="M283.7 224.5c0-.1 0-.2.1-.3.1-.1.2-.1.3-.1.1 0 .2 0 .3.1.1.1.1.2.1.3v5.2c0 .1 0 .2-.1.3-.1.1-.2.1-.3.1-.1 0-.2 0-.3-.1-.1-.1-.1-.2-.1-.3v-5.2zM257.3 232.8c-.4.3-.8.4-1.4.4-.3 0-.5-.1-.7-.1-.2 0-.3-.1-.5-.2-.1-.1-.2-.2-.2-.4 0-.1 0-.3.1-.3.1-.1.2-.1.3-.1.1 0 .2 0 .3.1.2.1.4.2.7.2.2 0 .3 0 .5-.1s.3-.2.4-.3c.1-.1.2-.2.3-.4.1-.1.1-.3.1-.5v-3.5c0-.1 0-.2.1-.3.1-.1.2-.1.3-.1.1 0 .2 0 .3.1s.1.2.1.3v3.6c.2.6-.1 1.2-.7 1.6M236.1 222.4c0-.1 0-.2.1-.3.1-.1.2-.1.3-.1.1 0 .2 0 .3.1.1.1.1.2.1.3v.4c0 .1 0 .2-.1.3-.1.1-.2.1-.3.1-.1 0-.2 0-.3-.1-.1-.1-.1-.2-.1-.3v-.4zm0 2.2c0-.1 0-.2.1-.3.1-.1.2-.1.3-.1.1 0 .2 0 .3.1.1.1.1.2.1.3v5.2c0 .1 0 .2-.1.3-.1.1-.2.1-.3.1-.1 0-.2 0-.3-.1-.1-.1-.1-.2-.1-.3v-5.2zM232 224.7c0-.1 0-.2.1-.3.1-.1.2-.1.3-.1.1 0 .2 0 .3.1.1.1.1.2.2.3.4-.3.8-.4 1.3-.4.3 0 .5.1.7.1.2 0 .3.1.5.2.1.1.2.2.2.4 0 .1 0 .2-.1.3-.1.1-.2.1-.3.1-.1 0-.2 0-.3-.1-.2-.1-.4-.2-.6-.2-.2 0-.3 0-.5.1-.1.1-.3.2-.4.3-.1.1-.2.2-.3.4-.1.1-.1.3-.1.5v3.5c0 .1 0 .2-.1.3-.1.1-.2.1-.3.1-.1 0-.2 0-.3-.1-.1-.1-.1-.2-.1-.3v-5.2zM237.6 224.7v-.2c0-.1 0-.2.1-.3.1-.1.2-.1.3-.1.1 0 .2 0 .3.1.1 0 .1.1.2.2l1.8 4.3 1.8-4.3c.1-.2.2-.3.4-.3.1 0 .3 0 .3.1.1.1.1.2.1.3v.2l-2.3 5.3c-.1.2-.2.3-.4.3s-.4-.1-.4-.3l-2.2-5.3zM243.2 226.3c0-.3.1-.6.2-.9.1-.3.3-.5.5-.7.2-.2.4-.4.7-.5.3-.1.6-.2.9-.2.3 0 .6.1.9.2.3.1.5.3.7.5.2.2.4.4.5.7.1.3.2.6.2.9v3.5c0 .1 0 .2-.1.3-.1.1-.2.1-.3.1-.1 0-.2 0-.3-.1-.1-.1-.1-.2-.2-.3-.4.3-.8.4-1.3.4-.3 0-.6-.1-.9-.2-.3-.1-.5-.3-.7-.5-.2-.2-.4-.4-.5-.7-.1-.3-.2-.6-.2-.9v-1.6zm.9 1.8c0 .2 0 .3.1.5s.2.3.3.4c.1.1.3.2.4.3.2.1.3.1.5.1s.3 0 .5-.1.3-.1.4-.3c.1-.1.2-.2.3-.4.1-.1.1-.3.1-.5v-1.8c0-.2 0-.3-.1-.5s-.2-.3-.3-.4c-.1-.1-.3-.2-.4-.3-.2-.1-.3-.1-.5-.1s-.4 0-.5.1c-.2.1-.3.2-.4.3-.1.1-.2.3-.3.4-.1.2-.1.3-.1.5v1.8zM248.5 226.3c0-.3.1-.6.2-.9.1-.3.3-.5.5-.7.2-.2.5-.4.7-.5.3-.1.6-.2.9-.2h.3c.2 0 .4.1.6.2.2.1.4.2.6.4.2.2.4.4.5.8v.2c0 .1 0 .2-.1.3-.1.1-.2.1-.3.1-.1 0-.2 0-.3-.1l-.2-.2c-.1-.2-.3-.4-.5-.6-.2-.1-.4-.2-.7-.2-.2 0-.4 0-.5.1-.2.1-.3.2-.4.3-.1.1-.2.3-.3.4-.1.2-.1.3-.1.5v1.8c0 .2 0 .3.1.5s.2.3.3.4c.1.1.3.2.4.3.2.1.3.1.5.1.3 0 .5-.1.7-.2.2-.1.4-.3.5-.6 0-.1.1-.2.2-.2.1-.1.2-.1.3-.1.1 0 .2 0 .3.1.1.1.1.2.1.3v.2c-.2.4-.4.6-.6.8-.2.2-.5.3-.7.4-.2.1-.4.1-.6.1h-.2c-.3 0-.6-.1-.9-.2s-.5-.3-.7-.5c-.2-.2-.4-.4-.5-.7-.1-.3-.2-.6-.2-.9v-1.5zM265.6 224.6c0-.1 0-.2.1-.3.1-.1.2-.1.3-.1.1 0 .2 0 .3.1.1.1.1.2.1.3v3.5c0 .2 0 .3.1.5s.2.3.3.4c.1.1.3.2.4.3.2.1.3.1.5.1s.3 0 .5-.1.3-.2.4-.3c.1-.1.2-.3.3-.4.1-.2.1-.3.1-.5v-3.5c0-.1 0-.2.1-.3.1-.1.2-.1.3-.1.1 0 .2 0 .3.1.1.1.1.2.1.3v3.5c0 .3-.1.6-.2.9-.1.3-.3.5-.5.7-.2.2-.4.4-.7.5-.3.1-.6.2-.9.2-.3 0-.6-.1-.9-.2-.3-.1-.5-.3-.7-.5-.2-.2-.4-.4-.5-.7-.1-.3-.2-.6-.2-.9v-3.5zM270.9 226.3c0-.3.1-.6.2-.9.1-.3.3-.5.5-.7.2-.2.4-.4.7-.5.3-.1.6-.2.9-.2.3 0 .6.1.9.2.3.1.5.3.7.5.2.2.4.4.5.7.1.3.2.6.2.9v3.5c0 .1 0 .2-.1.3-.1.1-.2.1-.3.1-.1 0-.2 0-.3-.1-.1-.1-.1-.2-.2-.3-.4.3-.8.4-1.3.4-.3 0-.6-.1-.9-.2-.3-.1-.5-.3-.7-.5-.2-.2-.4-.4-.5-.7-.1-.3-.2-.6-.2-.9v-1.6zm1 1.8c0 .2 0 .3.1.5s.2.3.3.4c.1.1.3.2.4.3.2.1.3.1.5.1s.3 0 .5-.1.3-.1.4-.3c.1-.1.2-.2.3-.4.1-.1.1-.3.1-.5v-1.8c0-.2 0-.3-.1-.5s-.2-.3-.3-.4c-.1-.1-.3-.2-.4-.3-.2-.1-.3-.1-.5-.1s-.4 0-.5.1c-.2.1-.3.2-.4.3-.1.1-.2.3-.3.4-.1.2-.1.3-.1.5v1.8zM276.3 224.7c0-.1 0-.2.1-.3.1-.1.2-.1.3-.1.1 0 .2 0 .3.1.1.1.1.2.2.3.4-.3.8-.4 1.3-.4.3 0 .5.1.7.1.2 0 .3.1.5.2.1.1.2.2.2.4 0 .1 0 .2-.1.3-.1.1-.2.1-.3.1-.1 0-.2 0-.3-.1-.2-.1-.4-.2-.6-.2-.2 0-.3 0-.5.1-.1.1-.3.2-.4.3-.1.1-.2.2-.3.4-.1.1-.1.3-.1.5v3.5c0 .1 0 .2-.1.3-.1.1-.2.1-.3.1-.1 0-.2 0-.3-.1-.1-.1-.1-.2-.1-.3v-5.2z" clip-path="url(#SVGID_00000128459789499818840930000010834987619802860723_)" fill="#fff"/><path d="M283.7 222.4c0-.1 0-.2.1-.3.1-.1.2-.1.3-.1.1 0 .2 0 .3.1.1.1.1.2.1.3v5.7c0 .3-.1.6-.2.9-.1.3-.3.5-.5.7-.2.2-.4.4-.7.5-.3.1-.6.2-.9.2-.3 0-.6-.1-.9-.2-.3-.1-.5-.3-.7-.5-.2-.2-.4-.4-.5-.7-.1-.3-.2-.6-.2-.9v-1.8c0-.3.1-.6.2-.9.1-.3.3-.5.5-.7.2-.2.4-.4.7-.5.3-.1.6-.2.9-.2.2 0 .5 0 .7.1l.6.3v-2zm-2.6 5.7c0 .2 0 .3.1.5s.2.3.3.4c.1.1.3.2.4.3.2.1.3.1.5.1s.3 0 .5-.1.3-.2.4-.3c.1-.1.2-.3.3-.4.1-.2.1-.3.1-.5v-1.8c0-.2 0-.3-.1-.5s-.2-.3-.3-.4c-.1-.1-.3-.2-.4-.3-.2-.1-.3-.1-.5-.1s-.3 0-.5.1-.3.2-.4.3c-.1.1-.2.3-.3.4-.1.2-.1.3-.1.5v1.8zM253.7 224.6c0-.1 0-.2.1-.3.1-.1.2-.1.3-.1.1 0 .2 0 .3.1.1.1.1.2.1.3v3.5c0 .2 0 .3.1.5s.2.3.3.4c.1.1.3.2.4.3.2.1.3.1.5.1s.3 0 .5-.1.3-.2.4-.3c.1-.1.2-.3.3-.4.1-.2.1-.3.1-.5v-3.5c0-.1 0-.2.1-.3.1-.1.2-.1.3-.1.1 0 .2 0 .3.1.1.1.1.2.1.3v3.5c0 .3-.1.6-.2.9-.1.3-.3.5-.5.7-.2.2-.4.4-.7.5-.3.1-.6.2-.9.2-.3 0-.6-.1-.9-.2-.3-.1-.5-.3-.7-.5-.2-.2-.4-.4-.5-.7-.1-.3-.2-.6-.2-.9v-3.5zM264.2 226.1h-2c-.3 0-.5.2-.5.5s.2.5.5.5h1.6v.7c0 1-.9 1.8-1.9 1.8-1.1 0-2-.7-2-2v-2.8c0-1.1.9-2 1.9-2 .9 0 1.6.6 1.9 1.3.1.2.2.3.4.3.4 0 .6-.3.4-.7-.3-.9-1.2-1.8-2.7-1.8-1.7 0-2.9 1.3-2.9 2.9v2.9c0 1.5 1.2 2.9 2.9 2.9 1.5 0 2.8-1.2 2.8-2.5v-1.4c.1-.4-.1-.6-.4-.6" clip-path="url(#SVGID_00000128459789499818840930000010834987619802860723_)" fill="#fff"/><path d="M283.7 224.6c0-.1 0-.2.1-.3.1-.1.2-.1.3-.1.1 0 .2 0 .3.1.1.1.1.2.1.3v5.2c0 .1 0 .2-.1.3-.1.1-.2.1-.3.1-.1 0-.2 0-.3-.1-.1-.1-.1-.2-.1-.3v-5.2zM226 222.7c0-.1 0-.2.1-.3.1-.1.2-.1.3-.1h1.9c.4 0 .8.1 1.1.2.3.1.7.4.9.6.3.3.5.6.6.9.2.3.2.7.2 1.1 0 .4-.1.8-.2 1.1l-.6.9c-.3.3-.6.5-.9.6-.4.1-.7.2-1.1.2h-1.4v1.8c0 .1 0 .2-.1.3-.1.1-.2.1-.3.1-.1 0-.2 0-.3-.1-.1-.1-.1-.2-.1-.3v-7zm.9.5v3.8h1.4c.3 0 .5-.1.8-.2.2-.1.4-.2.6-.4.2-.2.3-.4.4-.6.1-.2.2-.5.2-.7 0-.3-.1-.5-.2-.7-.1-.2-.2-.4-.4-.6-.2-.2-.4-.3-.6-.4-.2-.1-.5-.2-.8-.2h-1.4zM216.9 230.5v1c0 .8-.6 1.4-1.4 1.4-.2 0-.5-.1-.7-.2-.2-.1-.3-.4-.2-.6.1-.2.4-.3.6-.2.1 0 .1.1.2.1.2 0 .4-.2.4-.4v-1c0-.3.2-.5.5-.5s.6.2.6.4m-3.2 1.9c-.1-.2-.4-.3-.6-.2-.2.1-.3.4-.2.6.5 1 1.5 1.6 2.6 1.6 1.6 0 2.9-1.3 2.9-2.9v-1c0-.3-.2-.5-.5-.5s-.5.2-.5.5v1c0 1.1-.9 2-2 2-.7 0-1.3-.4-1.7-1.1m1.7-15.5c-2.4.1-4.4 2.1-4.4 4.6v10c0 1.2.5 2.4 1.4 3.2.8.8 2 1.3 3.1 1.3h.1c2.4-.1 4.4-2.1 4.4-4.6v-.8c0-1.2-1-2.1-2.1-2.1h-1.4c-.3 0-.5.2-.5.5s.2.5.5.5h1.4c.7 0 1.2.5 1.2 1.2v.8c0 2-1.5 3.6-3.4 3.6-1 0-1.9-.3-2.6-1-.7-.7-1.1-1.6-1.1-2.6v-10c0-2 1.5-3.6 3.4-3.6 1 0 1.9.3 2.6 1 .7.7 1.1 1.6 1.1 2.6v5.9c0 .3.2.5.5.5s.5-.2.5-.5v-5.9c0-1.2-.5-2.4-1.4-3.2-1-.9-2.1-1.4-3.3-1.4m3 8v-3.5c0-1.6-1.3-2.9-2.9-2.9-1.6 0-2.9 1.3-2.9 2.9v.5c0 .3.2.5.5.5s.5-.2.5-.5v-.5c0-1.1.9-2 2-2s2 .9 2 2v3.5c0 1.1-.9 2-2 2-.3 0-.5 0-.7-.1-.1-.1-.3 0-.4 0-.1.1-.2.2-.2.4v3.2c0 .2-.1.3-.3.3-.2 0-.3-.1-.3-.3v-6.9c0-.3-.2-.5-.5-.5s-.5.2-.5.5v6.9c0 .7.6 1.2 1.2 1.2s1.2-.6 1.2-1.2v-2.6h.4c1.6.1 2.9-1.2 2.9-2.9m3.1-3.4v10c0 1.6-.6 3.2-1.8 4.3-1.1 1.1-2.6 1.7-4.2 1.7h-.1c-3.3-.1-5.9-2.8-5.9-6.2v-10c0-1.6.6-3.2 1.8-4.3 1.2-1.1 2.7-1.8 4.4-1.7 3.2.2 5.8 2.9 5.8 6.2m-.9 7.5v-7.5c0-2.8-2.2-5.2-5-5.2-1.4 0-2.7.5-3.7 1.5s-1.5 2.3-1.5 3.7v10c0 2.8 2.2 5.2 5 5.2 1.4 0 2.7-.5 3.7-1.5s1.5-2.3 1.5-3.7V229zm-6.5-4.1v-3.5c0-.8.6-1.4 1.4-1.4.8 0 1.4.6 1.4 1.4v3.5c0 .8-.6 1.4-1.4 1.4-.8 0-1.4-.6-1.4-1.4m1 0c0 .2.2.4.4.4s.4-.2.4-.4v-3.5c0-.2-.2-.4-.4-.4s-.4.2-.4.4v3.5zM285.3 222.1h-.2v-.1h.5v.1h-.2v.5h-.1z" clip-path="url(#SVGID_00000128459789499818840930000010834987619802860723_)" fill="#fff"/><path d="M286.2 222.4v-.3.3l-.2.2h-.1l-.1-.3c0-.1 0-.2-.1-.3v.5h-.1v-.6h.2l.1.2c0 .1 0 .2.1.2 0-.1 0-.2.1-.2l.1-.2h.2v.6h-.1l-.1-.1z" clip-path="url(#SVGID_00000128459789499818840930000010834987619802860723_)" fill="#fff"/></g></g></svg>