<svg id="Layer_1" xmlns="http://www.w3.org/2000/svg" viewBox="0 0 300 600"><style>.st0{fill:#edf4fd}</style><path class="st0" d="M106 274.3c0-.2-.1-.4-.2-.5s-.4-.3-.7-.4-.5-.2-.7-.3c-.6-.3-.9-.8-.9-1.4 0-.4.1-.7.4-1 .2-.3.6-.4 1-.5v-.8h.6v.8c.4.1.8.2 1 .5s.3.7.3 1.2h-.8c0-.3-.1-.5-.2-.7-.1-.2-.3-.3-.6-.3-.2 0-.4.1-.5.2s-.2.3-.2.5.1.4.2.5c.1.1.4.2.7.4.3.1.6.2.7.3s.3.2.5.3c.1.1.2.3.3.4.1.2.1.4.1.6 0 .4-.1.7-.4 1-.3.3-.6.4-1.1.5v.7h-.6v-.7c-.5-.1-.9-.2-1.1-.5-.3-.3-.4-.7-.4-1.2h.9c0 .3.1.5.2.7.2.2.4.3.7.3.3 0 .5-.1.6-.2.1 0 .2-.2.2-.4zM110 275.7h-.9v-4.3l-1.3.4v-.7l2.1-.8h.1v5.4zM114.9 270.7v1h.7v.7h-.7v2.2c0 .2 0 .3.1.3.1.1.2.1.3.1h.3v.7c-.2.1-.4.1-.6.1-.7 0-1-.4-1-1.1v-2.2h-.7v-.7h.7v-1h.9zM118.4 272.5h-.4c-.4 0-.7.2-.8.5v2.7h-.9v-4h.8v.4c.2-.3.5-.5.9-.5.1 0 .2 0 .3.1l.1.8zM119 270.7c0-.1 0-.2.1-.3.1-.1.2-.1.4-.1s.3 0 .4.1c.1.1.1.2.1.3 0 .1 0 .2-.1.3s-.2.1-.4.1-.3 0-.4-.1c-.1-.1-.1-.2-.1-.3zm.9 5h-.9v-4h.9v4zM123.2 275.7c0-.1-.1-.2-.1-.4-.3.3-.6.4-1 .4s-.7-.1-1-.3c-.3-.2-.4-.5-.4-.8 0-.4.2-.7.5-1 .3-.2.8-.3 1.3-.3h.5v-.3c0-.2-.1-.4-.2-.5-.1-.1-.3-.2-.5-.2s-.4.1-.5.2c-.1.1-.2.2-.2.4h-.9c0-.2.1-.4.2-.6s.3-.3.6-.4c.2-.1.5-.2.8-.2.5 0 .8.1 1.1.3.3.2.4.6.4 1v1.8c0 .4 0 .6.1.9v.1h-.7zm-.9-.7c.2 0 .3 0 .5-.1s.3-.2.3-.3v-.7h-.5c-.3 0-.6.1-.7.2-.2.1-.2.3-.2.5s.1.3.2.4h.4zM125.9 275.7h-.9V270h.9v5.7zM129 275.7v-3.3h-.6v-.7h.6v-.4c0-.4.1-.8.4-1s.6-.4 1-.4c.2 0 .3 0 .5.1v.7h-.3c-.4 0-.6.2-.6.7v.4h.8v.7h-.8v3.3h-1zM131.2 273.6c0-.4.1-.7.2-1 .2-.3.4-.5.6-.7.3-.2.6-.2 1-.2.5 0 1 .2 1.3.5.3.3.5.8.5 1.4v.2c0 .4-.1.7-.2 1-.1.3-.4.5-.6.7-.3.2-.6.3-1 .3-.6 0-1-.2-1.3-.6-.3-.4-.5-.9-.5-1.6zm.9.1c0 .4.1.7.3 1 .2.2.4.3.7.3.3 0 .5-.1.7-.4.2-.2.3-.6.3-1s-.1-.7-.3-1c-.2-.2-.4-.4-.7-.4-.3 0-.5.1-.7.3s-.3.8-.3 1.2zM137.7 272.5h-.4c-.4 0-.7.2-.8.5v2.7h-.9v-4h.8v.4c.2-.3.5-.5.9-.5.1 0 .2 0 .3.1l.1.8zM141.3 270.7v1h.7v.7h-.7v2.2c0 .2 0 .3.1.3.1.1.2.1.3.1h.3v.7c-.2.1-.4.1-.6.1-.7 0-1-.4-1-1.1v-2.2h-.7v-.7h.7v-1h.9zM143.5 272.1c.3-.3.7-.5 1.1-.5.8 0 1.3.5 1.3 1.4v2.6h-.9V273c0-.3-.1-.5-.2-.6-.1-.1-.3-.2-.5-.2-.4 0-.6.2-.8.5v2.8h-.9V270h.9v2.1zM148.5 275.7c-.6 0-1-.2-1.4-.5-.4-.4-.5-.8-.5-1.4v-.1c0-.4.1-.7.2-1.1.2-.3.4-.6.6-.7.3-.2.6-.3.9-.3.5 0 1 .2 1.3.5.3.3.4.8.4 1.5v.4h-2.6c0 .3.1.6.3.8.2.2.4.3.7.3.4 0 .7-.2 1-.5l.5.5-.6.6h-.8zm-.1-3.4c-.2 0-.4.1-.6.3-.2.2-.2.4-.3.7h1.7v-.1c0-.3-.1-.5-.2-.7s-.3-.2-.6-.2zM153 275.7v-3.3h-.6v-.7h.6v-.4c0-.4.1-.8.4-1s.6-.4 1-.4c.2 0 .3 0 .5.1v.7h-.3c-.4 0-.6.2-.6.7v.4h.8v.7h-.8v3.3h-1zM155.4 270.7c0-.1 0-.2.1-.3.1-.1.2-.1.4-.1s.3 0 .4.1c.1.1.1.2.1.3 0 .1 0 .2-.1.3s-.2.1-.4.1-.3 0-.4-.1-.1-.2-.1-.3zm.9 5h-.9v-4h.9v4zM159.3 272.5h-.4c-.4 0-.7.2-.8.5v2.7h-.9v-4h.8v.4c.2-.3.5-.5.9-.5.1 0 .2 0 .3.1l.1.8zM162.1 274.6c0-.2-.1-.3-.2-.4s-.3-.2-.7-.2-.6-.1-.8-.2c-.4-.2-.7-.5-.7-.9 0-.3.1-.6.4-.9s.7-.3 1.1-.3c.5 0 .9.1 1.1.4.3.2.4.5.4.9h-.9c0-.2-.1-.3-.2-.4-.1-.1-.3-.2-.5-.2s-.4 0-.5.1c-.1.1-.2.2-.2.4 0 .1.1.2.2.3.1.1.3.2.7.2.3.1.6.2.8.3s.3.2.4.4c.1.1.1.3.1.5 0 .4-.1.6-.4.9-.3.2-.7.3-1.2.3-.3 0-.6-.1-.9-.2s-.5-.3-.6-.5-.2-.4-.2-.7h.9c0 .2.1.4.2.5s.3.2.6.2c.2 0 .4 0 .5-.1.6-.2.6-.3.6-.4zM164.9 270.7v1h.7v.7h-.7v2.2c0 .2 0 .3.1.3s.2.1.3.1h.3v.7c-.2.1-.4.1-.6.1-.7 0-1-.4-1-1.1v-2.2h-.7v-.7h.7v-1h.9zM170.5 275.7h-.9v-4.3l-1.3.4v-.7l2.1-.8h.1v5.4zM175.4 273.8h.7v.7h-.7v1.2h-.9v-1.2h-2.3v-.5l2.3-3.6h.9v3.4zm-2.3 0h1.4v-2.2l-.1.1-1.3 2.1zM178.4 273.6c0-.6.1-1.1.4-1.5.3-.4.7-.6 1.1-.6.4 0 .8.1 1 .4v-2h.9v5.6h-.8v-.4c-.3.3-.6.5-1.1.5-.5 0-.8-.2-1.1-.6-.3-.2-.4-.7-.4-1.4zm.9.1c0 .4.1.7.2.9.2.2.4.3.7.3.4 0 .6-.2.8-.5v-1.7c-.2-.3-.4-.5-.8-.5-.3 0-.5.1-.7.3-.2.4-.2.8-.2 1.2zM185.1 275.7c0-.1-.1-.2-.1-.4-.3.3-.6.4-1 .4s-.7-.1-1-.3c-.3-.2-.4-.5-.4-.8 0-.4.2-.7.5-1 .3-.2.8-.3 1.3-.3h.5v-.3c0-.2-.1-.4-.2-.5-.1-.1-.3-.2-.5-.2s-.4.1-.5.2c-.1.1-.2.2-.2.4h-.9c0-.2.1-.4.2-.6.1-.2.3-.3.6-.4.2-.1.5-.2.8-.2.5 0 .8.1 1.1.3.3.2.4.6.4 1v1.8c0 .4 0 .6.1.9v.1h-.7zm-.9-.7c.2 0 .3 0 .5-.1s.3-.2.3-.3v-.7h-.5c-.3 0-.6.1-.7.2-.2.1-.2.3-.2.5s.1.3.2.4.2 0 .4 0zM188.2 274.4l.8-2.7h.9l-1.6 4.6c-.2.7-.7 1-1.2 1-.1 0-.3 0-.4-.1v-.7h.2c.2 0 .4 0 .5-.1.1-.1.2-.2.3-.4l.1-.3-1.4-3.9h1l.8 2.6zM192.7 274.6c0-.2-.1-.3-.2-.4-.1-.1-.3-.2-.7-.2s-.6-.1-.8-.2c-.4-.2-.7-.5-.7-.9 0-.3.1-.6.4-.9s.7-.3 1.1-.3c.5 0 .9.1 1.1.4.3.2.4.5.4.9h-.9c0-.2-.1-.3-.2-.4-.1-.1-.3-.2-.5-.2s-.4 0-.5.1c-.1.1-.2.2-.2.4 0 .1.1.2.2.3.1.1.3.2.7.2.3.1.6.2.8.3.2.1.3.2.4.4.1.1.1.3.1.5 0 .4-.1.6-.4.9-.3.2-.7.3-1.2.3-.3 0-.6-.1-.9-.2s-.5-.3-.6-.5-.2-.4-.2-.7h.9c0 .2.1.4.2.5s.3.2.6.2c.2 0 .4 0 .5-.1.5-.2.6-.3.6-.4zM194.9 274.7c.2 0 .3 0 .4.1.1.1.1.2.1.4 0 .1 0 .3-.1.3-.1.1-.2.1-.4.1s-.3 0-.4-.1c-.1-.1-.1-.2-.1-.3s0-.3.1-.4c.1 0 .2-.1.4-.1zM82.6 282.7v2h-.9v-5.3h2c.6 0 1.1.2 1.4.5.4.3.5.7.5 1.2s-.2.9-.5 1.2c-.3.3-.8.4-1.4.4h-1.1zm0-.8h1.1c.3 0 .6-.1.8-.2s.3-.4.3-.7c0-.3-.1-.5-.3-.7s-.4-.3-.7-.3h-1.1v1.9zM87.3 284.7h-.9V279h.9v5.7zM90.7 284.7c0-.1-.1-.2-.1-.4-.3.3-.6.4-1 .4s-.7-.1-1-.3c-.3-.2-.4-.5-.4-.8 0-.4.2-.7.5-1 .3-.2.8-.3 1.3-.3h.5v-.3c0-.2-.1-.4-.2-.5-.1-.1-.3-.2-.5-.2s-.4.1-.5.2c-.1.1-.2.2-.2.4h-.9c0-.2.1-.4.2-.6s.3-.3.6-.4c.2-.1.5-.2.8-.2.5 0 .8.1 1.1.3.3.2.4.6.4 1v1.8c0 .4 0 .6.1.9v.1h-.7zm-1-.7c.2 0 .3 0 .5-.1s.3-.2.3-.3v-.7H90c-.3 0-.6.1-.7.2-.2.1-.2.3-.2.5s.1.3.2.4h.4zM93.2 280.7v.5c.3-.4.7-.5 1.2-.5.8 0 1.2.5 1.3 1.4v2.6h-.9v-2.6c0-.3-.1-.4-.2-.6-.1-.1-.3-.2-.5-.2-.4 0-.6.2-.8.5v2.8h-.9v-4h.8zM98.8 283.6c0-.2-.1-.3-.2-.4-.1-.1-.3-.2-.6-.2s-.6-.1-.8-.2c-.4-.2-.7-.5-.7-.9 0-.3.1-.6.4-.9.3-.2.7-.3 1.1-.3.5 0 .9.1 1.1.4.3.2.4.5.4.9h-.9c0-.2-.1-.3-.2-.4-.1-.1-.3-.2-.5-.2s-.4 0-.5.1c-.1.1-.2.2-.2.4 0 .1.1.2.2.3.1.1.3.2.7.2.3.1.6.2.8.3.2.1.3.2.4.4.1.1.1.3.1.5 0 .4-.1.6-.4.9-.3.2-.7.3-1.2.3-.3 0-.6-.1-.9-.2s-.5-.3-.6-.5c-.1-.2-.2-.4-.2-.7h.9c0 .2.1.4.2.5s.3.2.6.2c.2 0 .4 0 .5-.1.4-.2.5-.3.5-.4zM104.5 283.6c0-.2-.1-.3-.2-.4-.1-.1-.3-.2-.6-.2s-.6-.1-.8-.2c-.4-.2-.7-.5-.7-.9 0-.3.1-.6.4-.9.3-.2.7-.3 1.1-.3.5 0 .9.1 1.1.4.3.2.4.5.4.9h-.9c0-.2-.1-.3-.2-.4-.1-.1-.3-.2-.5-.2s-.4 0-.5.1c-.1.1-.2.2-.2.4 0 .1.1.2.2.3.1.1.3.2.7.2.3.1.6.2.8.3.2.1.3.2.4.4.1.1.1.3.1.5 0 .4-.1.6-.4.9-.3.2-.7.3-1.2.3-.3 0-.6-.1-.9-.2s-.5-.3-.6-.5c-.1-.2-.2-.4-.2-.7h.9c0 .2.1.4.2.5s.3.2.6.2c.2 0 .4 0 .5-.1.4-.2.5-.3.5-.4zM107.3 279.7v1h.7v.7h-.7v2.2c0 .2 0 .3.1.3.1.1.2.1.3.1h.3v.7c-.2.1-.4.1-.6.1-.7 0-1-.4-1-1.1v-2.2h-.7v-.7h.7v-1h.9zM111 284.7c0-.1-.1-.2-.1-.4-.3.3-.6.4-1 .4s-.7-.1-1-.3c-.3-.2-.4-.5-.4-.8 0-.4.2-.7.5-1 .3-.2.8-.3 1.3-.3h.5v-.3c0-.2-.1-.4-.2-.5-.1-.1-.3-.2-.5-.2s-.4.1-.5.2c-.1.1-.2.2-.2.4h-.9c0-.2.1-.4.2-.6s.3-.3.6-.4c.2-.1.5-.2.8-.2.5 0 .8.1 1.1.3.3.2.4.6.4 1v1.8c0 .4 0 .6.1.9v.1h-.7zm-1-.7c.2 0 .3 0 .5-.1s.3-.2.3-.3v-.7h-.5c-.3 0-.6.1-.7.2-.2.1-.2.3-.2.5s.1.3.2.4h.4zM114.8 281.5h-.4c-.4 0-.7.2-.8.5v2.7h-.9v-4h.8v.4c.2-.3.5-.5.9-.5.1 0 .2 0 .3.1l.1.8zM116.6 279.7v1h.7v.7h-.7v2.2c0 .2 0 .3.1.3.1.1.2.1.3.1h.3v.7c-.2.1-.4.1-.6.1-.7 0-1-.4-1-1.1v-2.2h-.7v-.7h.7v-1h.9zM118 279.7c0-.1 0-.2.1-.3.1-.1.2-.1.4-.1s.3 0 .4.1c.1.1.1.2.1.3 0 .1 0 .2-.1.3s-.2.1-.4.1-.3 0-.4-.1c0-.1-.1-.2-.1-.3zm1 5h-.9v-4h.9v4zM120.8 280.7v.5c.3-.4.7-.5 1.2-.5.8 0 1.2.5 1.3 1.4v2.6h-.9v-2.6c0-.3-.1-.4-.2-.6-.1-.1-.3-.2-.5-.2-.4 0-.6.2-.8.5v2.8h-.9v-4h.8zM123.9 282.6c0-.6.1-1.1.4-1.5.3-.4.7-.6 1.2-.6s.8.2 1.1.5v-.4h.8v3.8c0 .5-.2.9-.5 1.2-.3.3-.8.5-1.3.5-.3 0-.6-.1-.9-.2-.3-.1-.5-.3-.6-.5l.4-.5c.3.3.6.5 1 .5.3 0 .5-.1.7-.2s.3-.4.3-.7v-.3c-.3.3-.6.4-1 .4-.5 0-.8-.2-1.1-.6-.3-.2-.5-.7-.5-1.4zm.9.1c0 .4.1.7.2.9.2.2.4.3.7.3.4 0 .6-.2.8-.5v-1.7c-.2-.3-.4-.5-.8-.5-.3 0-.5.1-.7.3-.1.4-.2.8-.2 1.2zM132.6 284.7c0-.1-.1-.2-.1-.4-.3.3-.6.4-1 .4s-.7-.1-1-.3c-.3-.2-.4-.5-.4-.8 0-.4.2-.7.5-1 .3-.2.8-.3 1.3-.3h.5v-.3c0-.2-.1-.4-.2-.5-.1-.1-.3-.2-.5-.2s-.4.1-.5.2c-.1.1-.2.2-.2.4h-.9c0-.2.1-.4.2-.6s.3-.3.6-.4c.2-.1.5-.2.8-.2.5 0 .8.1 1.1.3.3.2.4.6.4 1v1.8c0 .4 0 .6.1.9v.1h-.7zm-1-.7c.2 0 .3 0 .5-.1s.3-.2.3-.3v-.7h-.4c-.3 0-.6.1-.7.2-.2.1-.2.3-.2.5s.1.3.2.4h.3zM135.4 279.7v1h.7v.7h-.7v2.2c0 .2 0 .3.1.3.1.1.2.1.3.1h.3v.7c-.2.1-.4.1-.6.1-.7 0-1-.4-1-1.1v-2.2h-.7v-.7h.7v-1h.9zM141.2 283.3c0-.2-.1-.4-.2-.5s-.4-.3-.7-.4-.5-.2-.7-.3c-.6-.3-.9-.8-.9-1.4 0-.4.1-.7.4-1 .2-.3.6-.4 1-.5v-.8h.6v.8c.4.1.8.2 1 .5s.3.7.3 1.2h-.9c0-.3-.1-.5-.2-.7-.1-.2-.3-.3-.6-.3-.2 0-.4.1-.5.2s-.2.3-.2.5.1.4.2.5c.1.1.4.2.7.4.3.1.6.2.7.3s.3.2.5.3c.1.1.2.3.3.4.1.2.1.4.1.6 0 .4-.1.7-.4 1-.3.3-.6.4-1.1.5v.7h-.6v-.7c-.5-.1-.9-.2-1.1-.5-.3-.3-.4-.7-.4-1.2h.9c0 .3.1.5.2.7.2.2.4.3.7.3.3 0 .5-.1.6-.2.2 0 .3-.2.3-.4zM145.4 282.4c-.3.3-.6.5-1 .5-.5 0-.8-.2-1.1-.5-.3-.3-.4-.8-.4-1.3 0-.4.1-.7.2-1 .1-.3.3-.5.6-.7.3-.2.6-.2.9-.2.5 0 1 .2 1.3.6.3.4.5.9.5 1.6v.2c0 1-.2 1.7-.7 2.2s-1.1.8-1.9.8h-.1v-.7h.1c.5 0 .9-.1 1.2-.4.2-.2.3-.6.4-1.1zm-.9-.2c.2 0 .3-.1.5-.2s.3-.2.4-.4v-.3c0-.4-.1-.7-.2-.9s-.4-.4-.6-.4c-.3 0-.5.1-.6.3-.2.2-.2.5-.2.8 0 .3.1.6.2.8s.3.3.5.3zM147.7 283.7c.2 0 .3 0 .4.1.1.1.1.2.1.4 0 .1 0 .3-.1.3-.1.1-.2.1-.4.1s-.3 0-.4-.1c-.1-.1-.1-.2-.1-.3s0-.3.1-.4c.1 0 .3-.1.4-.1zM151.7 282.4c-.3.3-.6.5-1 .5-.5 0-.8-.2-1.1-.5-.3-.3-.4-.8-.4-1.3 0-.4.1-.7.2-1 .1-.3.3-.5.6-.7.3-.2.6-.2.9-.2.5 0 1 .2 1.3.6.3.4.5.9.5 1.6v.2c0 1-.2 1.7-.7 2.2s-1.1.8-1.9.8h-.1v-.7h.1c.5 0 .9-.1 1.2-.4.2-.2.4-.6.4-1.1zm-.8-.2c.2 0 .3-.1.5-.2s.3-.2.4-.4v-.3c0-.4-.1-.7-.2-.9s-.4-.4-.6-.4c-.3 0-.5.1-.6.3-.2.2-.2.5-.2.8 0 .3.1.6.2.8s.2.3.5.3zM156 282.4c-.3.3-.6.5-1 .5-.5 0-.8-.2-1.1-.5-.3-.3-.4-.8-.4-1.3 0-.4.1-.7.2-1 .1-.3.3-.5.6-.7.3-.2.6-.2.9-.2.5 0 1 .2 1.3.6.3.4.5.9.5 1.6v.2c0 1-.2 1.7-.7 2.2s-1.1.8-1.9.8h-.1v-.7h.1c.5 0 .9-.1 1.2-.4.2-.2.4-.6.4-1.1zm-.9-.2c.2 0 .3-.1.5-.2s.3-.2.4-.4v-.3c0-.4-.1-.7-.2-.9s-.4-.4-.6-.4c-.3 0-.5.1-.6.3-.2.2-.2.5-.2.8 0 .3.1.6.2.8.1.2.3.3.5.3zM160.8 279.7v1h.7v.7h-.7v2.2c0 .2 0 .3.1.3.1.1.2.1.3.1h.3v.7c-.2.1-.4.1-.6.1-.7 0-1-.4-1-1.1v-2.2h-.7v-.7h.7v-1h.9zM161.9 282.6c0-.4.1-.7.2-1 .2-.3.4-.5.6-.7.3-.2.6-.2 1-.2.5 0 1 .2 1.3.5.3.3.5.8.5 1.4v.2c0 .4-.1.7-.2 1-.1.3-.4.5-.6.7-.3.2-.6.3-1 .3-.6 0-1-.2-1.3-.6s-.5-.9-.5-1.6zm.9.1c0 .4.1.7.3 1 .2.2.4.3.7.3.3 0 .5-.1.7-.4.2-.2.2-.6.2-1s-.1-.7-.3-1-.4-.4-.7-.4c-.3 0-.5.1-.7.3s-.2.8-.2 1.2zM170.7 283.3c0-.2-.1-.4-.2-.5s-.4-.3-.7-.4-.5-.2-.7-.3c-.6-.3-.9-.8-.9-1.4 0-.4.1-.7.4-1 .2-.3.6-.4 1-.5v-.8h.6v.8c.4.1.8.2 1 .5.2.3.3.7.3 1.2h-.9c0-.3-.1-.5-.2-.7s-.3-.3-.6-.3c-.2 0-.4.1-.5.2s-.2.3-.2.5.1.4.2.5.4.2.7.4c.3.1.6.2.7.3.2.1.3.2.5.3.1.1.2.3.3.4.1.2.1.4.1.6 0 .4-.1.7-.4 1-.3.3-.6.4-1.1.5v.7h-.6v-.7c-.5-.1-.9-.2-1.1-.5-.3-.3-.4-.7-.4-1.2h.9c0 .3.1.5.2.7.2.2.4.3.7.3.3 0 .5-.1.6-.2.2 0 .3-.2.3-.4zM176 284.7h-3.6v-.7l1.8-1.9c.3-.3.4-.5.5-.7.1-.2.2-.4.2-.6 0-.3-.1-.5-.2-.6s-.3-.2-.6-.2-.5.1-.7.3c-.2.2-.2.4-.2.7h-.9c0-.3.1-.6.2-.9s.4-.5.6-.6c.3-.1.6-.2 1-.2.5 0 .9.1 1.2.4.3.3.4.6.4 1.1 0 .3-.1.5-.2.8-.2.3-.4.6-.7 1l-1.3 1.4h2.5v.7zM179.7 282.8h.7v.7h-.7v1.2h-.9v-1.2h-2.3v-.5l2.3-3.6h.9v3.4zm-2.3 0h1.4v-2.2l-.1.1-1.3 2.1zM181.5 283.7c.2 0 .3 0 .4.1.1.1.1.2.1.4 0 .1 0 .3-.1.3-.1.1-.2.1-.4.1s-.3 0-.4-.1c-.1-.1-.1-.2-.1-.3s0-.3.1-.4c.1 0 .3-.1.4-.1zM185.5 282.4c-.3.3-.6.5-1 .5-.5 0-.8-.2-1.1-.5-.3-.3-.4-.8-.4-1.3 0-.4.1-.7.2-1 .1-.3.3-.5.6-.7.3-.2.6-.2.9-.2.5 0 1 .2 1.3.6.3.4.5.9.5 1.6v.2c0 1-.2 1.7-.7 2.2s-1.1.8-1.9.8h-.1v-.7h.1c.5 0 .9-.1 1.2-.4.2-.2.4-.6.4-1.1zm-.8-.2c.2 0 .3-.1.5-.2s.3-.2.4-.4v-.3c0-.4-.1-.7-.2-.9-.2-.2-.4-.4-.6-.4-.3 0-.5.1-.6.3-.2.2-.2.5-.2.8 0 .3.1.6.2.8s.2.3.5.3zM189.8 282.4c-.3.3-.6.5-1 .5-.5 0-.8-.2-1.1-.5-.3-.3-.4-.8-.4-1.3 0-.4.1-.7.2-1 .1-.3.3-.5.6-.7.3-.2.6-.2.9-.2.5 0 1 .2 1.3.6.3.4.5.9.5 1.6v.2c0 1-.2 1.7-.7 2.2s-1.1.8-1.9.8h-.2v-.7h.1c.5 0 .9-.1 1.2-.4.3-.2.5-.6.5-1.1zm-.9-.2c.2 0 .3-.1.5-.2s.3-.2.4-.4v-.3c0-.4-.1-.7-.2-.9-.2-.2-.4-.4-.6-.4-.3 0-.5.1-.6.3-.2.2-.2.5-.2.8 0 .3.1.6.2.8s.3.3.5.3zM191.8 285.1h-.7l2.1-5.8h.7l-2.1 5.8zM195.4 280.7v.4c.3-.3.7-.5 1.1-.5.5 0 .9.2 1.1.6.3-.4.7-.6 1.2-.6.4 0 .8.1 1 .4.2.2.3.6.3 1.1v2.6h-.9v-2.6c0-.3-.1-.4-.2-.6-.1-.1-.3-.2-.5-.2s-.4.1-.5.2c-.1.1-.2.3-.3.4v2.7h-.9V282c0-.5-.3-.7-.7-.7-.4 0-.6.1-.8.4v2.9h-.9v-4h1zM200.9 282.6c0-.4.1-.7.2-1 .2-.3.4-.5.6-.7.3-.2.6-.2 1-.2.5 0 1 .2 1.3.5.3.3.5.8.5 1.4v.2c0 .4-.1.7-.2 1s-.4.5-.6.7c-.3.2-.6.3-1 .3-.6 0-1-.2-1.3-.6s-.5-.9-.5-1.6zm.9.1c0 .4.1.7.3 1 .2.2.4.3.7.3.3 0 .5-.1.7-.4.2-.2.3-.6.3-1s-.1-.7-.3-1-.4-.4-.7-.4c-.3 0-.5.1-.7.3s-.3.8-.3 1.2zM206.2 280.7v.5c.3-.4.7-.5 1.2-.5.8 0 1.2.5 1.3 1.4v2.6h-.9v-2.6c0-.3-.1-.4-.2-.6-.1-.1-.3-.2-.5-.2-.4 0-.6.2-.8.5v2.8h-.9v-4h.8zM210.6 279.7v1h.7v.7h-.7v2.2c0 .2 0 .3.1.3.1.1.2.1.3.1h.3v.7c-.2.1-.4.1-.6.1-.7 0-1-.4-1-1.1v-2.2h-.7v-.7h.7v-1h.9zM212.9 281.1c.3-.3.7-.5 1.1-.5.8 0 1.3.5 1.3 1.4v2.6h-.9V282c0-.3-.1-.5-.2-.6s-.3-.2-.5-.2c-.4 0-.6.2-.8.5v2.8h-.9V279h.9v2.1zM216.7 283.7c.2 0 .3 0 .4.1.1.1.1.2.1.4 0 .1 0 .3-.1.3-.1.1-.2.1-.4.1s-.3 0-.4-.1c-.1-.1-.1-.2-.1-.3s0-.3.1-.4c.1 0 .3-.1.4-.1z"/></svg>