<svg id="Layer_1" xmlns="http://www.w3.org/2000/svg" viewBox="0 0 300 600"><style>.st0{fill:#fff}</style><path class="st0" d="M217.1 45.9c0-.2.1-.5.3-.6.2-.2.4-.3.6-.3.2 0 .4.1.6.3.2.2.3.4.3.6v9.8c0 .2-.1.5-.3.6-.2.2-.4.3-.6.3-.2 0-.4-.1-.6-.3-.2-.2-.3-.4-.3-.6v-9.8zM167.6 61.3c-.7.5-1.6.8-2.6.8-.5 0-1-.1-1.3-.2-.3-.1-.6-.2-.9-.4-.3-.2-.4-.4-.4-.8 0-.3.1-.5.3-.6.2-.2.4-.2.6-.2.2 0 .4.1.5.2.4.2.8.3 1.2.3.3 0 .7-.1.9-.2.3-.1.5-.3.8-.5.2-.2.4-.5.5-.7.1-.3.2-.6.2-.9v-6.6c0-.2.1-.5.3-.6.2-.2.4-.3.6-.3.2 0 .4.1.6.3.2.2.3.4.3.6v6.7c.1 1.2-.5 2.3-1.6 3.1zM127.8 41.9c0-.2.1-.5.3-.6.2-.2.4-.3.6-.3.2 0 .4.1.6.3.2.2.3.4.3.6v.7c0 .2-.1.5-.3.6-.2.2-.4.3-.6.3-.2 0-.4-.1-.6-.3-.2-.2-.3-.4-.3-.6v-.7zm0 4c0-.2.1-.5.3-.6.2-.2.4-.3.6-.3.2 0 .4.1.6.3.2.2.3.4.3.6v9.7c0 .2-.1.5-.3.6-.2.2-.4.3-.6.3-.2 0-.4-.1-.6-.3-.2-.2-.3-.4-.3-.6v-9.7zM120.1 46.2c0-.2.1-.4.2-.6.2-.2.4-.2.6-.2.2 0 .4.1.5.2.2.1.3.3.3.5.7-.5 1.5-.8 2.5-.8.5 0 .9.1 1.3.2.3.1.6.2.9.4.3.2.4.4.4.7 0 .3-.1.5-.2.6-.2.2-.4.2-.6.2-.2 0-.4-.1-.5-.2-.4-.2-.8-.3-1.2-.3-.3 0-.6.1-.9.2-.3.1-.5.3-.7.5-.2.2-.4.4-.5.7-.1.3-.2.6-.2.9v6.5c0 .2-.1.4-.2.6-.2.2-.4.2-.6.2-.2 0-.4-.1-.6-.2-.2-.2-.3-.4-.3-.6v-9.5zM130.8 46.3c0-.1-.1-.2-.1-.3 0-.2.1-.4.2-.6.2-.2.4-.3.6-.3.2 0 .3 0 .5.1.1.1.3.2.3.4l3.4 8 3.4-8c.2-.4.4-.5.8-.5.3 0 .5.1.6.3.2.2.2.4.2.6 0 .1 0 .2-.1.3l-4.2 9.9c-.2.4-.4.5-.8.5s-.7-.2-.8-.5l-4-9.9zM141.2 49.1c0-.6.1-1.1.3-1.6.2-.5.5-1 .9-1.3.4-.4.8-.7 1.3-.9.5-.2 1-.3 1.6-.3.6 0 1.1.1 1.6.3.5.2 1 .5 1.3.9.4.4.7.8.9 1.3.2.5.3 1.1.3 1.6v6.5c0 .2-.1.5-.3.6-.2.2-.4.3-.6.3-.2 0-.4-.1-.6-.2-.2-.1-.3-.3-.3-.5-.7.5-1.5.8-2.5.8-.6 0-1.1-.1-1.6-.3-.5-.2-1-.5-1.3-.9-.4-.4-.7-.8-.9-1.3-.2-.5-.3-1.1-.3-1.6v-3.4zm1.7 3.4c0 .3.1.6.2.9.1.3.3.6.5.8.2.2.5.4.8.5.3.1.6.2.9.2.3 0 .6-.1.9-.2.3-.1.5-.3.8-.5.2-.2.4-.5.5-.7.1-.3.2-.6.2-.9v-3.5c0-.3-.1-.6-.2-.9-.1-.3-.3-.6-.5-.8-.2-.2-.5-.4-.8-.5-.3-.1-.6-.2-.9-.2-.3 0-.7.1-1 .2-.3.1-.6.3-.8.5-.2.2-.4.5-.5.8-.1.3-.2.6-.2.9v3.4zM151.2 49.1c0-.6.1-1.1.3-1.6.2-.5.5-1 .9-1.3.4-.4.9-.7 1.4-.9.5-.2 1.1-.3 1.7-.3.1 0 .3 0 .6.1.3 0 .7.1 1.1.3.4.2.8.4 1.1.8.4.3.7.8.9 1.4 0 .1.1.2.1.3 0 .2-.1.5-.3.6-.2.2-.4.3-.6.3-.2 0-.4-.1-.5-.2-.1-.1-.3-.2-.3-.4-.2-.5-.5-.8-.9-1.1-.4-.3-.8-.4-1.3-.4-.3 0-.7.1-1 .2-.3.1-.6.3-.8.5-.2.2-.4.5-.5.8-.1.3-.2.6-.2.9v3.3c0 .3.1.6.2.9.1.3.3.6.5.8.2.2.5.4.8.5.3.1.6.2.9.2.5 0 .9-.1 1.3-.4.4-.3.7-.6.9-1.1.1-.2.2-.3.3-.4.1-.1.3-.2.5-.2s.5.1.6.3c.2.2.3.4.3.6 0 .1 0 .2-.1.3a5 5 0 0 1-1.1 1.6c-.4.4-.9.6-1.3.8-.4.2-.8.2-1 .3h-.5c-.6 0-1.1-.1-1.6-.3-.5-.2-1-.5-1.3-.9-.4-.4-.7-.8-.9-1.3-.2-.5-.3-1.1-.3-1.6v-3.4zM183.1 45.9c0-.2.1-.5.3-.6.2-.2.4-.3.6-.3.2 0 .4.1.6.3.2.2.3.4.3.6v6.5c0 .3.1.6.2.9.1.3.3.6.5.8.2.2.5.4.8.5.3.1.6.2 1 .2.3 0 .6-.1.9-.2.3-.1.6-.3.8-.5.2-.2.4-.5.5-.8.1-.3.2-.6.2-.9v-6.5c0-.2.1-.5.3-.6.2-.2.4-.3.6-.3.2 0 .4.1.6.3.2.2.3.4.3.6v6.5c0 .6-.1 1.1-.3 1.6-.2.5-.5 1-.9 1.3-.4.4-.8.7-1.3.9-.5.2-1.1.3-1.6.3-.6 0-1.1-.1-1.6-.3-.5-.2-.9-.5-1.3-.9s-.7-.8-.9-1.3c-.2-.5-.3-1.1-.3-1.6v-6.5zM193.2 49.1c0-.6.1-1.1.3-1.6.2-.5.5-1 .9-1.3.4-.4.8-.7 1.3-.9.5-.2 1-.3 1.6-.3.6 0 1.1.1 1.6.3.5.2 1 .5 1.3.9.4.4.7.8.9 1.3.2.5.3 1.1.3 1.6v6.5c0 .2-.1.5-.3.6-.2.2-.4.3-.6.3-.2 0-.4-.1-.6-.2-.2-.1-.3-.3-.3-.5-.7.5-1.5.8-2.5.8-.6 0-1.1-.1-1.6-.3-.5-.2-1-.5-1.3-.9-.4-.4-.7-.8-.9-1.3-.2-.5-.3-1.1-.3-1.6v-3.4zm1.7 3.4c0 .3.1.6.2.9.1.3.3.6.5.8.2.2.5.4.8.5.3.1.6.2.9.2.3 0 .6-.1.9-.2.3-.1.5-.3.8-.5.2-.2.4-.5.5-.7.1-.3.2-.6.2-.9v-3.5c0-.3-.1-.6-.2-.9-.1-.3-.3-.6-.5-.8-.2-.2-.5-.4-.8-.5-.3-.1-.6-.2-.9-.2-.3 0-.7.1-1 .2-.3.1-.6.3-.8.5-.2.2-.4.5-.5.8-.1.3-.2.6-.2.9v3.4zM203.3 46.2c0-.2.1-.4.2-.6.2-.2.4-.2.6-.2.2 0 .4.1.5.2.2.1.3.3.3.5.7-.5 1.5-.8 2.5-.8.5 0 .9.1 1.3.2.3.1.6.2.9.4.3.2.4.4.4.7 0 .3-.1.5-.2.6-.2.2-.4.2-.6.2-.2 0-.4-.1-.5-.2-.4-.2-.8-.3-1.2-.3-.3 0-.6.1-.9.2-.3.1-.5.3-.7.5-.2.2-.4.4-.5.7-.1.3-.2.6-.2.9v6.5c0 .2-.1.4-.2.6-.2.2-.4.2-.6.2-.2 0-.4-.1-.6-.2-.2-.2-.3-.4-.3-.6v-9.5z"/><path class="st0" d="M217.1 41.9c0-.2.1-.5.3-.6.2-.2.4-.3.6-.3.2 0 .4.1.6.3.2.2.3.4.3.6v10.6c0 .6-.1 1.1-.3 1.6-.2.5-.5 1-.9 1.3-.4.4-.8.7-1.3.9-.5.2-1.1.3-1.6.3-.6 0-1.1-.1-1.6-.3-.5-.2-.9-.5-1.3-.9s-.7-.8-.9-1.3c-.2-.5-.3-1.1-.3-1.6v-3.3c0-.6.1-1.1.3-1.6.2-.5.5-1 .9-1.3.4-.4.8-.7 1.3-.9.5-.2 1.1-.3 1.6-.3.4 0 .9.1 1.3.2s.8.3 1.1.6v-4zm-4.9 10.6c0 .3.1.6.2.9.1.3.3.6.5.8.2.2.5.4.8.5.3.1.6.2 1 .2.3 0 .6-.1.9-.2.3-.1.6-.3.8-.5.2-.2.4-.5.5-.8.1-.3.2-.6.2-.9v-3.3c0-.3-.1-.6-.2-.9-.1-.3-.3-.6-.5-.8-.2-.2-.5-.4-.8-.5-.3-.1-.6-.2-1-.2-.3 0-.6.1-.9.2-.3.1-.6.3-.8.5-.2.2-.4.5-.5.8-.1.3-.2.6-.2.9v3.3zM160.9 45.9c0-.2.1-.5.3-.6.2-.2.4-.3.6-.3.2 0 .4.1.6.3.2.2.3.4.3.6v6.5c0 .3.1.6.2.9.1.3.3.6.5.8.2.2.5.4.8.5.3.1.6.2 1 .2.3 0 .6-.1.9-.2.3-.1.6-.3.8-.5.2-.2.4-.5.5-.8.1-.3.2-.6.2-.9v-6.5c0-.2.1-.5.3-.6.2-.2.4-.3.6-.3.2 0 .4.1.6.3.2.2.3.4.3.6v6.5c0 .6-.1 1.1-.3 1.6-.2.5-.5 1-.9 1.3-.4.4-.8.7-1.3.9-.5.2-1.1.3-1.6.3-.6 0-1.1-.1-1.6-.3-.5-.2-.9-.5-1.3-.9s-.7-.8-.9-1.3c-.2-.5-.3-1.1-.3-1.6v-6.5zM180.7 48.8H177c-.5 0-.9.4-.9.9s.4.9.9.9h2.9V52c0 1.9-1.7 3.3-3.5 3.3-2 0-3.7-1.4-3.7-3.7v-5.3c0-2.2 1.6-3.7 3.6-3.7 1.7 0 3 1.1 3.5 2.5.2.3.4.5.8.5.7 0 1.1-.6.8-1.3-.6-1.7-2.3-3.4-5.1-3.4-3.2 0-5.4 2.5-5.4 5.4v5.5c0 2.9 2.3 5.4 5.4 5.4 2.9 0 5.3-2.2 5.3-4.8v-2.6c0-.7-.4-1-.9-1z"/><path class="st0" d="M217.1 45.9c0-.2.1-.5.3-.6.2-.2.4-.3.6-.3.2 0 .4.1.6.3.2.2.3.4.3.6v9.7c0 .2-.1.5-.3.6-.2.2-.4.3-.6.3-.2 0-.4-.1-.6-.3-.2-.2-.3-.4-.3-.6v-9.7z"/><g><path class="st0" d="M109 42.5c0-.2.1-.4.2-.6.2-.2.4-.2.6-.2h3.5c.7 0 1.4.1 2.1.4.6.3 1.2.7 1.7 1.1.5.5.9 1 1.2 1.7.3.7.4 1.3.4 2.1 0 .7-.1 1.4-.4 2.1-.3.6-.7 1.2-1.2 1.7s-1.1.9-1.7 1.1c-.7.3-1.4.4-2.1.4h-2.6v3.4c0 .2-.1.4-.2.6-.2.2-.4.2-.6.2-.2 0-.4-.1-.6-.2-.2-.2-.3-.4-.3-.6V42.5zm1.7.8v7.2h2.6c.5 0 1-.1 1.4-.3.4-.2.8-.4 1.2-.8.3-.3.6-.7.8-1.1.2-.4.3-.9.3-1.4 0-.5-.1-1-.3-1.4-.2-.4-.5-.8-.8-1.1-.3-.3-.7-.6-1.2-.8-.4-.2-.9-.3-1.4-.3h-2.6z"/></g><g><path class="st0" d="M220.1 41.3h-.3v-.2h.9v.2h-.3v1h-.3v-1zM221.8 41.8v-.5c0 .2-.1.3-.1.5l-.1.5h-.2l-.1-.5c0-.1-.1-.3-.1-.5v1h-.3l.1-1.2h.4l.1.4c0 .1.1.3.1.4 0-.1.1-.3.1-.4l.1-.4h.4l.1 1.2h-.3l-.2-.5z"/></g></svg>