<?xml version="1.0" encoding="utf-8"?>
<!-- Generator: Adobe Illustrator 25.4.1, SVG Export Plug-In . SVG Version: 6.00 Build 0)  -->
<svg version="1.1" id="Layer_1" xmlns="http://www.w3.org/2000/svg" xmlns:xlink="http://www.w3.org/1999/xlink" x="0px" y="0px"
	 viewBox="0 0 300 600" style="enable-background:new 0 0 300 600;" xml:space="preserve">
<style type="text/css">
	.st0{fill:#2A3380;}
	.st1{fill:#E72E8A;}
</style>
<path class="st0" d="M62.5,107.9h-8.2v8.4h-4.3V95.7h13.4v3.4h-9.2v5.3h8.2V107.9z"/>
<path class="st0" d="M65.7,97c0-0.6,0.2-1.1,0.6-1.5s1-0.6,1.7-0.6c0.7,0,1.3,0.2,1.7,0.6c0.4,0.4,0.6,0.9,0.6,1.5
	c0,0.6-0.2,1.1-0.6,1.5c-0.4,0.4-1,0.6-1.7,0.6c-0.7,0-1.2-0.2-1.7-0.6C65.9,98.2,65.7,97.6,65.7,97z M70,116.3h-4.1V101H70V116.3z"
	/>
<path class="st0" d="M77.2,101l0.1,1.8c1.1-1.4,2.6-2.1,4.4-2.1c1.6,0,2.8,0.5,3.6,1.4c0.8,1,1.2,2.4,1.2,4.3v9.9h-4.1v-9.8
	c0-0.9-0.2-1.5-0.6-1.9c-0.4-0.4-1-0.6-1.9-0.6c-1.2,0-2,0.5-2.6,1.5v10.8h-4.1V101H77.2z"/>
<path class="st0" d="M89,108.5c0-2.4,0.5-4.3,1.6-5.7c1.1-1.4,2.5-2.1,4.4-2.1c1.5,0,2.7,0.6,3.7,1.7v-7.8h4.1v21.8h-3.7l-0.2-1.6
	c-1,1.3-2.3,1.9-3.9,1.9c-1.8,0-3.3-0.7-4.3-2.1S89,111.1,89,108.5z M93.1,108.9c0,1.4,0.2,2.5,0.8,3.3c0.5,0.8,1.2,1.1,2.2,1.1
	c1.3,0,2.2-0.5,2.7-1.6v-6.1c-0.5-1.1-1.4-1.6-2.7-1.6C94.1,104,93.1,105.6,93.1,108.9z"/>
<path class="st0" d="M112.6,108.5c0-1.5,0.3-2.9,0.9-4.1s1.4-2.1,2.5-2.8c1.1-0.7,2.4-1,3.8-1c2.1,0,3.8,0.6,5.1,1.9
	c1.3,1.3,2,3,2.2,5.2l0,1c0,2.4-0.7,4.2-2,5.7c-1.3,1.4-3.1,2.1-5.3,2.1s-4-0.7-5.3-2.1c-1.3-1.4-2-3.3-2-5.8V108.5z M116.7,108.8
	c0,1.5,0.3,2.6,0.8,3.3s1.3,1.2,2.4,1.2c1,0,1.8-0.4,2.3-1.1s0.8-2,0.8-3.7c0-1.4-0.3-2.5-0.8-3.3s-1.3-1.2-2.4-1.2
	c-1,0-1.8,0.4-2.3,1.2C117,106,116.7,107.2,116.7,108.8z"/>
<path class="st0" d="M138.9,114.8c-1,1.2-2.4,1.8-4.2,1.8c-1.6,0-2.9-0.5-3.8-1.4c-0.9-0.9-1.3-2.3-1.3-4.2V101h4.1v9.9
	c0,1.6,0.7,2.4,2.2,2.4c1.4,0,2.3-0.5,2.9-1.4V101h4.1v15.3H139L138.9,114.8z"/>
<path class="st0" d="M150.8,97.2v3.8h2.6v3h-2.6v7.7c0,0.6,0.1,1,0.3,1.2c0.2,0.2,0.6,0.4,1.2,0.4c0.5,0,0.9,0,1.2-0.1v3.1
	c-0.8,0.2-1.6,0.4-2.5,0.4c-2.9,0-4.3-1.5-4.4-4.4V104h-2.2v-3h2.2v-3.8H150.8z"/>
<path class="st0" d="M162.9,97c0-0.6,0.2-1.1,0.6-1.5s1-0.6,1.7-0.6c0.7,0,1.3,0.2,1.7,0.6c0.4,0.4,0.6,0.9,0.6,1.5
	c0,0.6-0.2,1.1-0.6,1.5c-0.4,0.4-1,0.6-1.7,0.6c-0.7,0-1.2-0.2-1.7-0.6C163.1,98.2,162.9,97.6,162.9,97z M167.3,116.3h-4.1V101h4.1
	V116.3z"/>
<path class="st0" d="M171.8,116.3V104h-2.3v-3h2.3v-1.3c0-1.7,0.5-3.1,1.5-4c1-0.9,2.4-1.4,4.1-1.4c0.6,0,1.3,0.1,2.1,0.3l0,3.2
	c-0.3-0.1-0.8-0.1-1.2-0.1c-1.5,0-2.3,0.7-2.3,2.2v1.2h3v3h-3v12.3H171.8z"/>
<path class="st0" d="M194,110.5l2.8-9.5h4.4l-6.2,17.7l-0.3,0.8c-0.9,2-2.4,3-4.5,3c-0.6,0-1.2-0.1-1.8-0.3v-3.1l0.6,0
	c0.8,0,1.4-0.1,1.7-0.4s0.7-0.6,0.9-1.2l0.5-1.3l-5.4-15.4h4.4L194,110.5z"/>
<path class="st0" d="M202.2,108.5c0-1.5,0.3-2.9,0.9-4.1s1.4-2.1,2.5-2.8c1.1-0.7,2.4-1,3.8-1c2.1,0,3.8,0.6,5.1,1.9
	c1.3,1.3,2,3,2.2,5.2l0,1c0,2.4-0.7,4.2-2,5.7c-1.3,1.4-3.1,2.1-5.3,2.1s-4-0.7-5.3-2.1c-1.3-1.4-2-3.3-2-5.8V108.5z M206.3,108.8
	c0,1.5,0.3,2.6,0.8,3.3s1.3,1.2,2.4,1.2c1,0,1.8-0.4,2.3-1.1s0.8-2,0.8-3.7c0-1.4-0.3-2.5-0.8-3.3s-1.3-1.2-2.4-1.2
	c-1,0-1.8,0.4-2.3,1.2C206.6,106,206.3,107.2,206.3,108.8z"/>
<path class="st0" d="M228.5,114.8c-1,1.2-2.4,1.8-4.2,1.8c-1.6,0-2.9-0.5-3.8-1.4c-0.9-0.9-1.3-2.3-1.3-4.2V101h4.1v9.9
	c0,1.6,0.7,2.4,2.2,2.4c1.4,0,2.3-0.5,2.9-1.4V101h4.1v15.3h-3.9L228.5,114.8z"/>
<path class="st0" d="M244.2,104.8c-0.6-0.1-1-0.1-1.5-0.1c-1.6,0-2.6,0.5-3,1.6v10h-4.1V101h3.9l0.1,1.8c0.8-1.4,2-2.1,3.4-2.1
	c0.5,0,0.9,0.1,1.3,0.2L244.2,104.8z"/>
<path class="st1" d="M76.7,148.2c0.8,0,1.4-0.2,1.8-0.6s0.7-1,0.7-1.7h3.8c0,1-0.3,2-0.9,2.9s-1.3,1.5-2.3,2c-1,0.5-2,0.7-3.2,0.7
	c-2.2,0-3.9-0.7-5.2-2.1s-1.9-3.3-1.9-5.8v-0.3c0-2.4,0.6-4.2,1.9-5.7c1.3-1.4,3-2.1,5.2-2.1c1.9,0,3.5,0.5,4.6,1.6
	c1.2,1.1,1.7,2.5,1.8,4.4h-3.8c0-0.8-0.3-1.4-0.7-1.9c-0.5-0.5-1.1-0.7-1.9-0.7c-1,0-1.7,0.3-2.2,1c-0.5,0.7-0.7,1.8-0.7,3.4v0.4
	c0,1.6,0.2,2.7,0.7,3.4C75,147.8,75.7,148.2,76.7,148.2z"/>
<path class="st1" d="M94.1,139.7c-0.6-0.1-1-0.1-1.5-0.1c-1.6,0-2.6,0.5-3,1.6v10h-4.1v-15.3h3.9l0.1,1.8c0.8-1.4,2-2.1,3.4-2.1
	c0.5,0,0.9,0.1,1.3,0.2L94.1,139.7z"/>
<path class="st1" d="M103.1,151.5c-2.2,0-4.1-0.7-5.5-2.1c-1.4-1.4-2.1-3.2-2.1-5.5v-0.4c0-1.5,0.3-2.9,0.9-4.1
	c0.6-1.2,1.4-2.2,2.5-2.8c1.1-0.7,2.3-1,3.7-1c2.1,0,3.8,0.7,5,2s1.8,3.2,1.8,5.6v1.7h-9.8c0.1,1,0.5,1.8,1.2,2.4s1.5,0.9,2.5,0.9
	c1.6,0,2.8-0.6,3.7-1.7l2,2.3c-0.6,0.9-1.4,1.5-2.5,2C105.5,151.2,104.4,151.5,103.1,151.5z M102.6,138.9c-0.8,0-1.5,0.3-2,0.8
	s-0.8,1.3-1,2.4h5.7v-0.3c0-0.9-0.3-1.6-0.7-2.1C104.2,139.1,103.5,138.9,102.6,138.9z"/>
<path class="st1" d="M111.1,143.4c0-2.4,0.5-4.3,1.6-5.7c1.1-1.4,2.5-2.1,4.4-2.1c1.5,0,2.7,0.6,3.7,1.7v-7.8h4.1v21.8h-3.7
	l-0.2-1.6c-1,1.3-2.3,1.9-3.9,1.9c-1.8,0-3.3-0.7-4.3-2.1S111.1,145.9,111.1,143.4z M115.2,143.7c0,1.4,0.2,2.5,0.8,3.3
	c0.5,0.8,1.2,1.1,2.2,1.1c1.3,0,2.2-0.5,2.7-1.6v-6.1c-0.5-1.1-1.4-1.6-2.7-1.6C116.2,138.9,115.2,140.5,115.2,143.7z"/>
<path class="st1" d="M128.1,131.9c0-0.6,0.2-1.1,0.6-1.5s1-0.6,1.7-0.6c0.7,0,1.3,0.2,1.7,0.6c0.4,0.4,0.6,0.9,0.6,1.5
	c0,0.6-0.2,1.1-0.6,1.5c-0.4,0.4-1,0.6-1.7,0.6c-0.7,0-1.2-0.2-1.7-0.6C128.3,133,128.1,132.5,128.1,131.9z M132.4,151.2h-4.1v-15.3
	h4.1V151.2z"/>
<path class="st1" d="M140.7,132.1v3.8h2.6v3h-2.6v7.7c0,0.6,0.1,1,0.3,1.2c0.2,0.2,0.6,0.4,1.2,0.4c0.5,0,0.9,0,1.2-0.1v3.1
	c-0.8,0.2-1.6,0.4-2.5,0.4c-2.9,0-4.3-1.5-4.4-4.4v-8.3h-2.2v-3h2.2v-3.8H140.7z"/>
<path class="st1" d="M161.1,146.9c0-0.5-0.2-0.9-0.7-1.2c-0.5-0.3-1.3-0.5-2.4-0.8c-3.6-0.8-5.5-2.3-5.5-4.7c0-1.4,0.6-2.5,1.7-3.4
	c1.1-0.9,2.6-1.4,4.4-1.4c1.9,0,3.5,0.5,4.7,1.4c1.2,0.9,1.8,2.1,1.8,3.6H161c0-0.6-0.2-1.1-0.6-1.5s-1-0.6-1.8-0.6
	c-0.7,0-1.2,0.2-1.6,0.5c-0.4,0.3-0.6,0.7-0.6,1.2c0,0.5,0.2,0.8,0.6,1.1c0.4,0.3,1.2,0.5,2.2,0.7s1.9,0.4,2.6,0.7
	c2.2,0.8,3.2,2.2,3.2,4.1c0,1.4-0.6,2.5-1.8,3.4s-2.8,1.3-4.7,1.3c-1.3,0-2.4-0.2-3.4-0.7c-1-0.5-1.8-1.1-2.3-1.9s-0.9-1.7-0.9-2.6
	h3.9c0,0.7,0.3,1.3,0.8,1.7c0.5,0.4,1.2,0.6,2,0.6c0.8,0,1.4-0.1,1.8-0.4C160.9,147.8,161.1,147.4,161.1,146.9z"/>
<path class="st1" d="M174.1,148.2c0.8,0,1.4-0.2,1.8-0.6s0.7-1,0.7-1.7h3.8c0,1-0.3,2-0.9,2.9s-1.3,1.5-2.3,2c-1,0.5-2,0.7-3.2,0.7
	c-2.2,0-3.9-0.7-5.2-2.1s-1.9-3.3-1.9-5.8v-0.3c0-2.4,0.6-4.2,1.9-5.7c1.3-1.4,3-2.1,5.2-2.1c1.9,0,3.5,0.5,4.6,1.6
	c1.2,1.1,1.7,2.5,1.8,4.4h-3.8c0-0.8-0.3-1.4-0.7-1.9c-0.5-0.5-1.1-0.7-1.9-0.7c-1,0-1.7,0.3-2.2,1c-0.5,0.7-0.7,1.8-0.7,3.4v0.4
	c0,1.6,0.2,2.7,0.7,3.4C172.4,147.8,173.2,148.2,174.1,148.2z"/>
<path class="st1" d="M182.3,143.4c0-1.5,0.3-2.9,0.9-4.1s1.4-2.1,2.5-2.8c1.1-0.7,2.4-1,3.8-1c2.1,0,3.8,0.6,5.1,1.9
	c1.3,1.3,2,3,2.2,5.2l0,1c0,2.4-0.7,4.2-2,5.7c-1.3,1.4-3.1,2.1-5.3,2.1s-4-0.7-5.3-2.1c-1.3-1.4-2-3.3-2-5.8V143.4z M186.4,143.7
	c0,1.5,0.3,2.6,0.8,3.3s1.3,1.2,2.4,1.2c1,0,1.8-0.4,2.3-1.1s0.8-2,0.8-3.7c0-1.4-0.3-2.5-0.8-3.3s-1.3-1.2-2.4-1.2
	c-1,0-1.8,0.4-2.3,1.2C186.6,140.8,186.4,142,186.4,143.7z"/>
<path class="st1" d="M207.9,139.7c-0.6-0.1-1-0.1-1.5-0.1c-1.6,0-2.6,0.5-3,1.6v10h-4.1v-15.3h3.9l0.1,1.8c0.8-1.4,2-2.1,3.4-2.1
	c0.5,0,0.9,0.1,1.3,0.2L207.9,139.7z"/>
<path class="st1" d="M217,151.5c-2.2,0-4.1-0.7-5.5-2.1c-1.4-1.4-2.1-3.2-2.1-5.5v-0.4c0-1.5,0.3-2.9,0.9-4.1
	c0.6-1.2,1.4-2.2,2.5-2.8c1.1-0.7,2.3-1,3.7-1c2.1,0,3.8,0.7,5,2s1.8,3.2,1.8,5.6v1.7h-9.8c0.1,1,0.5,1.8,1.2,2.4s1.5,0.9,2.5,0.9
	c1.6,0,2.8-0.6,3.7-1.7l2,2.3c-0.6,0.9-1.4,1.5-2.5,2C219.4,151.2,218.3,151.5,217,151.5z M216.5,138.9c-0.8,0-1.5,0.3-2,0.8
	s-0.8,1.3-1,2.4h5.7v-0.3c0-0.9-0.3-1.6-0.7-2.1C218,139.1,217.4,138.9,216.5,138.9z"/>
<path class="st0" d="M68.4,172.4c1.1-1.3,2.5-2,4.1-2c3.3,0,5,1.9,5.1,5.8v9.8h-4.1v-9.7c0-0.9-0.2-1.5-0.6-1.9
	c-0.4-0.4-1-0.6-1.9-0.6c-1.2,0-2.1,0.5-2.6,1.4V186h-4.1v-21.8h4.1V172.4z"/>
<path class="st0" d="M89.6,186c-0.2-0.4-0.3-0.8-0.4-1.4c-1,1.1-2.3,1.7-3.9,1.7c-1.5,0-2.7-0.4-3.7-1.3c-1-0.9-1.5-2-1.5-3.3
	c0-1.6,0.6-2.9,1.8-3.7s2.9-1.3,5.2-1.3H89v-0.9c0-0.7-0.2-1.3-0.5-1.7c-0.4-0.4-0.9-0.6-1.7-0.6c-0.7,0-1.2,0.2-1.6,0.5
	s-0.6,0.8-0.6,1.4h-4.1c0-0.9,0.3-1.7,0.8-2.5c0.5-0.8,1.3-1.3,2.3-1.8s2.1-0.6,3.4-0.6c1.9,0,3.4,0.5,4.5,1.4
	c1.1,0.9,1.7,2.3,1.7,4v6.6c0,1.5,0.2,2.6,0.6,3.3v0.2H89.6z M86.2,183.2c0.6,0,1.2-0.1,1.7-0.4c0.5-0.3,0.9-0.6,1.1-1.1V179h-1.5
	c-2.1,0-3.1,0.7-3.3,2.1l0,0.2c0,0.5,0.2,0.9,0.5,1.3C85.1,183,85.6,183.2,86.2,183.2z"/>
<path class="st0" d="M104.6,181.8c0-0.5-0.2-0.9-0.7-1.2c-0.5-0.3-1.3-0.5-2.4-0.8c-3.6-0.8-5.5-2.3-5.5-4.7c0-1.4,0.6-2.5,1.7-3.4
	c1.1-0.9,2.6-1.4,4.4-1.4c1.9,0,3.5,0.5,4.7,1.4c1.2,0.9,1.8,2.1,1.8,3.6h-4.1c0-0.6-0.2-1.1-0.6-1.5s-1-0.6-1.8-0.6
	c-0.7,0-1.2,0.2-1.6,0.5c-0.4,0.3-0.6,0.7-0.6,1.2c0,0.5,0.2,0.8,0.6,1.1c0.4,0.3,1.2,0.5,2.2,0.7s1.9,0.4,2.6,0.7
	c2.2,0.8,3.2,2.2,3.2,4.1c0,1.4-0.6,2.5-1.8,3.4s-2.8,1.3-4.7,1.3c-1.3,0-2.4-0.2-3.4-0.7c-1-0.5-1.8-1.1-2.3-1.9s-0.9-1.7-0.9-2.6
	h3.9c0,0.7,0.3,1.3,0.8,1.7c0.5,0.4,1.2,0.6,2,0.6c0.8,0,1.4-0.1,1.8-0.4C104.4,182.7,104.6,182.3,104.6,181.8z"/>
<path class="st0" d="M124.8,183c0.8,0,1.4-0.2,1.8-0.6s0.7-1,0.7-1.7h3.8c0,1-0.3,2-0.9,2.9s-1.3,1.5-2.3,2c-1,0.5-2,0.7-3.2,0.7
	c-2.2,0-3.9-0.7-5.2-2.1s-1.9-3.3-1.9-5.8v-0.3c0-2.4,0.6-4.2,1.9-5.7c1.3-1.4,3-2.1,5.2-2.1c1.9,0,3.5,0.5,4.6,1.6
	c1.2,1.1,1.7,2.5,1.8,4.4h-3.8c0-0.8-0.3-1.4-0.7-1.9c-0.5-0.5-1.1-0.7-1.9-0.7c-1,0-1.7,0.3-2.2,1c-0.5,0.7-0.7,1.8-0.7,3.4v0.4
	c0,1.6,0.2,2.7,0.7,3.4C123.1,182.7,123.8,183,124.8,183z"/>
<path class="st0" d="M137.6,172.4c1.1-1.3,2.5-2,4.1-2c3.3,0,5,1.9,5.1,5.8v9.8h-4.1v-9.7c0-0.9-0.2-1.5-0.6-1.9
	c-0.4-0.4-1-0.6-1.9-0.6c-1.2,0-2.1,0.5-2.6,1.4V186h-4.1v-21.8h4.1V172.4z"/>
<path class="st0" d="M158.7,186c-0.2-0.4-0.3-0.8-0.4-1.4c-1,1.1-2.3,1.7-3.9,1.7c-1.5,0-2.7-0.4-3.7-1.3c-1-0.9-1.5-2-1.5-3.3
	c0-1.6,0.6-2.9,1.8-3.7s2.9-1.3,5.2-1.3h1.9v-0.9c0-0.7-0.2-1.3-0.5-1.7c-0.4-0.4-0.9-0.6-1.7-0.6c-0.7,0-1.2,0.2-1.6,0.5
	s-0.6,0.8-0.6,1.4h-4.1c0-0.9,0.3-1.7,0.8-2.5c0.5-0.8,1.3-1.3,2.3-1.8s2.1-0.6,3.4-0.6c1.9,0,3.4,0.5,4.5,1.4
	c1.1,0.9,1.7,2.3,1.7,4v6.6c0,1.5,0.2,2.6,0.6,3.3v0.2H158.7z M155.3,183.2c0.6,0,1.2-0.1,1.7-0.4c0.5-0.3,0.9-0.6,1.1-1.1V179h-1.5
	c-2.1,0-3.1,0.7-3.3,2.1l0,0.2c0,0.5,0.2,0.9,0.5,1.3C154.2,183,154.7,183.2,155.3,183.2z"/>
<path class="st0" d="M169.1,170.7l0.1,1.8c1.1-1.4,2.6-2.1,4.4-2.1c1.6,0,2.8,0.5,3.6,1.4c0.8,1,1.2,2.4,1.2,4.3v9.9h-4.1v-9.8
	c0-0.9-0.2-1.5-0.6-1.9c-0.4-0.4-1-0.6-1.9-0.6c-1.2,0-2,0.5-2.6,1.5V186h-4.1v-15.3H169.1z"/>
<path class="st0" d="M181,178.2c0-2.4,0.6-4.2,1.7-5.7c1.1-1.4,2.6-2.2,4.5-2.2c1.7,0,3,0.6,3.9,1.7l0.2-1.4h3.7v14.8
	c0,1.3-0.3,2.5-0.9,3.5c-0.6,1-1.5,1.7-2.6,2.3c-1.1,0.5-2.4,0.8-3.9,0.8c-1.1,0-2.2-0.2-3.3-0.7c-1.1-0.4-1.9-1-2.4-1.7l1.8-2.5
	c1,1.1,2.3,1.7,3.7,1.7c1.1,0,1.9-0.3,2.5-0.9c0.6-0.6,0.9-1.4,0.9-2.5v-0.8c-0.9,1.1-2.2,1.6-3.7,1.6c-1.8,0-3.3-0.7-4.5-2.2
	s-1.7-3.4-1.7-5.7V178.2z M185.1,178.5c0,1.4,0.3,2.5,0.8,3.3s1.3,1.2,2.3,1.2c1.2,0,2.1-0.5,2.7-1.4v-6.5c-0.5-0.9-1.4-1.4-2.7-1.4
	c-1,0-1.8,0.4-2.3,1.2C185.4,175.7,185.1,176.9,185.1,178.5z"/>
<path class="st0" d="M205.3,186.3c-2.2,0-4.1-0.7-5.5-2.1c-1.4-1.4-2.1-3.2-2.1-5.5v-0.4c0-1.5,0.3-2.9,0.9-4.1
	c0.6-1.2,1.4-2.2,2.5-2.8c1.1-0.7,2.3-1,3.7-1c2.1,0,3.8,0.7,5,2s1.8,3.2,1.8,5.6v1.7h-9.8c0.1,1,0.5,1.8,1.2,2.4s1.5,0.9,2.5,0.9
	c1.6,0,2.8-0.6,3.7-1.7l2,2.3c-0.6,0.9-1.4,1.5-2.5,2C207.7,186.1,206.5,186.3,205.3,186.3z M204.8,173.7c-0.8,0-1.5,0.3-2,0.8
	s-0.8,1.3-1,2.4h5.7v-0.3c0-0.9-0.3-1.6-0.7-2.1C206.3,173.9,205.7,173.7,204.8,173.7z"/>
<path class="st0" d="M213.3,178.2c0-2.4,0.5-4.3,1.6-5.7c1.1-1.4,2.5-2.1,4.4-2.1c1.5,0,2.7,0.6,3.7,1.7v-7.8h4.1V186h-3.7l-0.2-1.6
	c-1,1.3-2.3,1.9-3.9,1.9c-1.8,0-3.3-0.7-4.3-2.1S213.3,180.8,213.3,178.2z M217.4,178.5c0,1.4,0.2,2.5,0.8,3.3
	c0.5,0.8,1.2,1.1,2.2,1.1c1.3,0,2.2-0.5,2.7-1.6v-6.1c-0.5-1.1-1.4-1.6-2.7-1.6C218.4,173.7,217.4,175.3,217.4,178.5z"/>
<path class="st0" d="M230.5,184c0-0.7,0.2-1.2,0.7-1.6s1-0.6,1.7-0.6c0.7,0,1.2,0.2,1.7,0.6s0.7,0.9,0.7,1.6c0,0.6-0.2,1.2-0.7,1.6
	c-0.4,0.4-1,0.6-1.7,0.6c-0.7,0-1.2-0.2-1.7-0.6C230.7,185.2,230.5,184.6,230.5,184z"/>
</svg>
