<?xml version="1.0" encoding="utf-8"?>
<!-- Generator: Adobe Illustrator 25.4.1, SVG Export Plug-In . SVG Version: 6.00 Build 0)  -->
<svg version="1.1" id="Layer_1" xmlns="http://www.w3.org/2000/svg" xmlns:xlink="http://www.w3.org/1999/xlink" x="0px" y="0px"
	 viewBox="0 0 300 600" style="enable-background:new 0 0 300 600;" xml:space="preserve">
<style type="text/css">
	.st0{fill:#2A3380;}
</style>
<g>
	<path class="st0" d="M78.5,211.7h-4.3v3.5h5v1.1h-6.3v-10h6.3v1.1h-4.9v3.2h4.3V211.7z"/>
	<path class="st0" d="M81.9,208.9l0,0.9c0.6-0.7,1.3-1.1,2.2-1.1c1.6,0,2.4,0.9,2.4,2.6v4.9h-1.3v-4.9c0-0.5-0.1-0.9-0.4-1.2
		c-0.2-0.3-0.6-0.4-1.1-0.4c-0.4,0-0.8,0.1-1.1,0.3s-0.6,0.5-0.7,0.9v5.3h-1.3v-7.4H81.9z"/>
	<path class="st0" d="M92,210c-0.2,0-0.4,0-0.6,0c-0.8,0-1.4,0.4-1.7,1.1v5.2h-1.3v-7.4h1.2l0,0.9c0.4-0.7,1-1,1.8-1
		c0.2,0,0.4,0,0.6,0.1V210z"/>
	<path class="st0" d="M92.7,212.5c0-0.7,0.1-1.4,0.4-2c0.3-0.6,0.7-1,1.2-1.3c0.5-0.3,1.1-0.5,1.7-0.5c1,0,1.8,0.3,2.4,1
		c0.6,0.7,0.9,1.6,0.9,2.8v0.1c0,0.7-0.1,1.4-0.4,1.9c-0.3,0.6-0.7,1-1.2,1.3c-0.5,0.3-1.1,0.5-1.8,0.5c-1,0-1.8-0.3-2.4-1
		C93,214.7,92.7,213.7,92.7,212.5L92.7,212.5z M93.9,212.6c0,0.8,0.2,1.5,0.6,2c0.4,0.5,0.9,0.7,1.5,0.7c0.6,0,1.2-0.3,1.5-0.8
		s0.6-1.2,0.6-2.1c0-0.8-0.2-1.5-0.6-2c-0.4-0.5-0.9-0.8-1.5-0.8c-0.6,0-1.1,0.2-1.5,0.7S93.9,211.7,93.9,212.6z"/>
	<path class="st0" d="M102.4,216.3h-1.3v-10.5h1.3V216.3z"/>
	<path class="st0" d="M105.7,216.3h-1.3v-10.5h1.3V216.3z"/>
	<path class="st0" d="M111.2,206.9c0-0.2,0.1-0.4,0.2-0.5c0.1-0.1,0.3-0.2,0.6-0.2s0.4,0.1,0.6,0.2s0.2,0.3,0.2,0.5
		s-0.1,0.4-0.2,0.5s-0.3,0.2-0.6,0.2s-0.4-0.1-0.6-0.2C111.3,207.3,111.2,207.1,111.2,206.9z M112.6,216.3h-1.3v-7.4h1.3V216.3z"/>
	<path class="st0" d="M115.8,208.9l0,0.9c0.6-0.7,1.3-1.1,2.2-1.1c1.6,0,2.4,0.9,2.4,2.6v4.9h-1.3v-4.9c0-0.5-0.1-0.9-0.4-1.2
		c-0.2-0.3-0.6-0.4-1.1-0.4c-0.4,0-0.8,0.1-1.1,0.3s-0.6,0.5-0.7,0.9v5.3h-1.3v-7.4H115.8z"/>
	<path class="st0" d="M127.3,212.4v3.9H126v-10h3.7c1.1,0,1.9,0.3,2.6,0.8c0.6,0.6,0.9,1.3,0.9,2.2c0,1-0.3,1.7-0.9,2.2
		c-0.6,0.5-1.5,0.8-2.6,0.8H127.3z M127.3,211.3h2.4c0.7,0,1.2-0.2,1.6-0.5c0.4-0.3,0.6-0.8,0.6-1.4c0-0.6-0.2-1.1-0.6-1.4
		s-0.9-0.5-1.5-0.6h-2.4V211.3z"/>
	<path class="st0" d="M138.2,210c-0.2,0-0.4,0-0.6,0c-0.8,0-1.4,0.4-1.7,1.1v5.2h-1.3v-7.4h1.2l0,0.9c0.4-0.7,1-1,1.8-1
		c0.2,0,0.4,0,0.6,0.1V210z"/>
	<path class="st0" d="M139.4,206.9c0-0.2,0.1-0.4,0.2-0.5c0.1-0.1,0.3-0.2,0.6-0.2s0.4,0.1,0.6,0.2s0.2,0.3,0.2,0.5
		s-0.1,0.4-0.2,0.5s-0.3,0.2-0.6,0.2s-0.4-0.1-0.6-0.2C139.5,207.3,139.4,207.1,139.4,206.9z M140.8,216.3h-1.3v-7.4h1.3V216.3z"/>
	<path class="st0" d="M145.2,214.5l1.8-5.7h1.3l-2.7,7.4h-1l-2.7-7.4h1.3L145.2,214.5z"/>
	<path class="st0" d="M154,216.3c-0.1-0.1-0.1-0.4-0.2-0.8c-0.6,0.6-1.3,0.9-2.1,0.9c-0.7,0-1.3-0.2-1.8-0.6
		c-0.5-0.4-0.7-0.9-0.7-1.6c0-0.8,0.3-1.4,0.9-1.8c0.6-0.4,1.4-0.6,2.5-0.6h1.2v-0.6c0-0.4-0.1-0.8-0.4-1.1s-0.7-0.4-1.2-0.4
		c-0.5,0-0.8,0.1-1.1,0.3s-0.5,0.5-0.5,0.8h-1.3c0-0.4,0.1-0.7,0.4-1.1c0.3-0.3,0.6-0.6,1.1-0.8c0.4-0.2,0.9-0.3,1.5-0.3
		c0.9,0,1.5,0.2,2,0.6s0.7,1,0.8,1.8v3.4c0,0.7,0.1,1.2,0.3,1.6v0.1H154z M151.9,215.3c0.4,0,0.8-0.1,1.1-0.3s0.6-0.5,0.8-0.8v-1.5
		h-1c-1.5,0-2.3,0.5-2.3,1.4c0,0.4,0.1,0.7,0.4,0.9S151.5,215.3,151.9,215.3z"/>
	<path class="st0" d="M160.1,215.4c0.5,0,0.8-0.1,1.2-0.4s0.5-0.6,0.6-1h1.2c0,0.4-0.2,0.8-0.4,1.2s-0.6,0.7-1.1,0.9
		c-0.4,0.2-0.9,0.3-1.4,0.3c-1,0-1.8-0.3-2.4-1c-0.6-0.7-0.9-1.6-0.9-2.8v-0.2c0-0.7,0.1-1.4,0.4-1.9s0.6-1,1.1-1.3
		c0.5-0.3,1.1-0.5,1.8-0.5c0.8,0,1.5,0.2,2.1,0.7c0.5,0.5,0.8,1.1,0.9,1.9h-1.2c0-0.5-0.2-0.9-0.5-1.2c-0.3-0.3-0.7-0.5-1.2-0.5
		c-0.6,0-1.1,0.2-1.5,0.7c-0.4,0.5-0.5,1.1-0.5,2v0.2c0,0.9,0.2,1.5,0.5,2S159.4,215.4,160.1,215.4z"/>
	<path class="st0" d="M166.8,214.4l1.7-5.5h1.4l-3,8.5c-0.5,1.2-1.2,1.8-2.2,1.8l-0.2,0l-0.5-0.1v-1l0.3,0c0.4,0,0.8-0.1,1-0.3
		c0.2-0.2,0.4-0.5,0.6-1l0.3-0.8l-2.6-7.3h1.4L166.8,214.4z"/>
	<path class="st0" d="M178.6,215c-0.3,0.5-0.8,0.8-1.4,1.1c-0.6,0.2-1.3,0.4-2.1,0.4c-0.8,0-1.5-0.2-2.2-0.6s-1.1-0.9-1.5-1.6
		c-0.3-0.7-0.5-1.5-0.5-2.4v-0.9c0-1.5,0.3-2.7,1-3.5c0.7-0.8,1.7-1.2,3-1.2c1,0,1.9,0.3,2.5,0.8s1,1.3,1.2,2.3h-1.3
		c-0.2-1.3-1-2-2.4-2c-0.9,0-1.5,0.3-2,0.9c-0.5,0.6-0.7,1.5-0.7,2.7v0.8c0,1.1,0.3,2,0.8,2.7c0.5,0.7,1.2,1,2.1,1
		c0.5,0,0.9-0.1,1.3-0.2c0.4-0.1,0.7-0.3,0.9-0.6v-2.2H175v-1.1h3.6V215z"/>
	<path class="st0" d="M185.1,215.5c-0.5,0.6-1.2,0.9-2.2,0.9c-0.8,0-1.4-0.2-1.8-0.7c-0.4-0.5-0.6-1.1-0.6-2v-4.8h1.3v4.8
		c0,1.1,0.5,1.7,1.4,1.7c1,0,1.6-0.4,1.9-1.1v-5.4h1.3v7.4h-1.2L185.1,215.5z"/>
	<path class="st0" d="M192.9,216.3c-0.1-0.1-0.1-0.4-0.2-0.8c-0.6,0.6-1.3,0.9-2.1,0.9c-0.7,0-1.3-0.2-1.8-0.6
		c-0.5-0.4-0.7-0.9-0.7-1.6c0-0.8,0.3-1.4,0.9-1.8c0.6-0.4,1.4-0.6,2.5-0.6h1.2v-0.6c0-0.4-0.1-0.8-0.4-1.1s-0.7-0.4-1.2-0.4
		c-0.5,0-0.8,0.1-1.1,0.3s-0.5,0.5-0.5,0.8h-1.3c0-0.4,0.1-0.7,0.4-1.1c0.3-0.3,0.6-0.6,1.1-0.8c0.4-0.2,0.9-0.3,1.5-0.3
		c0.9,0,1.5,0.2,2,0.6s0.7,1,0.8,1.8v3.4c0,0.7,0.1,1.2,0.3,1.6v0.1H192.9z M190.8,215.3c0.4,0,0.8-0.1,1.1-0.3s0.6-0.5,0.8-0.8
		v-1.5h-1c-1.5,0-2.3,0.5-2.3,1.4c0,0.4,0.1,0.7,0.4,0.9S190.3,215.3,190.8,215.3z"/>
	<path class="st0" d="M199.5,210c-0.2,0-0.4,0-0.6,0c-0.8,0-1.4,0.4-1.7,1.1v5.2h-1.3v-7.4h1.2l0,0.9c0.4-0.7,1-1,1.8-1
		c0.2,0,0.4,0,0.6,0.1V210z"/>
	<path class="st0" d="M200.3,212.5c0-1.1,0.3-2,0.8-2.7s1.2-1,2.1-1c0.9,0,1.6,0.3,2.1,0.9v-3.9h1.3v10.5h-1.2l-0.1-0.8
		c-0.5,0.6-1.2,0.9-2.1,0.9c-0.9,0-1.6-0.4-2.1-1.1C200.6,214.6,200.3,213.7,200.3,212.5L200.3,212.5z M201.6,212.6
		c0,0.8,0.2,1.5,0.5,2s0.8,0.7,1.4,0.7c0.8,0,1.4-0.4,1.8-1.1v-3.4c-0.4-0.7-1-1-1.7-1c-0.6,0-1.1,0.2-1.4,0.7
		S201.6,211.7,201.6,212.6z"/>
	<path class="st0" d="M212.6,216.3v-6.4h-1.2v-1h1.2v-0.8c0-0.8,0.2-1.4,0.6-1.8s1-0.6,1.8-0.6c0.3,0,0.6,0,0.9,0.1l-0.1,1
		c-0.2,0-0.4-0.1-0.7-0.1c-0.4,0-0.7,0.1-1,0.4c-0.2,0.2-0.3,0.6-0.3,1v0.8h1.6v1h-1.6v6.4H212.6z"/>
	<path class="st0" d="M216.5,212.5c0-0.7,0.1-1.4,0.4-2c0.3-0.6,0.7-1,1.2-1.3c0.5-0.3,1.1-0.5,1.7-0.5c1,0,1.8,0.3,2.4,1
		c0.6,0.7,0.9,1.6,0.9,2.8v0.1c0,0.7-0.1,1.4-0.4,1.9c-0.3,0.6-0.7,1-1.2,1.3c-0.5,0.3-1.1,0.5-1.8,0.5c-1,0-1.8-0.3-2.4-1
		C216.8,214.7,216.5,213.7,216.5,212.5L216.5,212.5z M217.8,212.6c0,0.8,0.2,1.5,0.6,2c0.4,0.5,0.9,0.7,1.5,0.7
		c0.6,0,1.2-0.3,1.5-0.8s0.6-1.2,0.6-2.1c0-0.8-0.2-1.5-0.6-2c-0.4-0.5-0.9-0.8-1.5-0.8c-0.6,0-1.1,0.2-1.5,0.7
		S217.8,211.7,217.8,212.6z"/>
	<path class="st0" d="M228.4,210c-0.2,0-0.4,0-0.6,0c-0.8,0-1.4,0.4-1.7,1.1v5.2h-1.3v-7.4h1.2l0,0.9c0.4-0.7,1-1,1.8-1
		c0.2,0,0.4,0,0.6,0.1V210z"/>
	<path class="st0" d="M86.1,233.1h-6.5v-0.9l3.4-3.8c0.5-0.6,0.9-1,1.1-1.4c0.2-0.4,0.3-0.7,0.3-1.1c0-0.5-0.2-0.9-0.5-1.3
		s-0.7-0.5-1.3-0.5c-0.6,0-1.1,0.2-1.5,0.5c-0.3,0.4-0.5,0.9-0.5,1.5h-1.3c0-0.9,0.3-1.7,0.9-2.2c0.6-0.6,1.4-0.8,2.4-0.8
		c0.9,0,1.7,0.2,2.2,0.7s0.8,1.1,0.8,1.9c0,1-0.6,2.1-1.9,3.5l-2.7,2.9h5V233.1z"/>
	<path class="st0" d="M92.8,229.7h1.4v1h-1.4v2.3h-1.3v-2.3H87V230l4.5-6.9h1.3V229.7z M88.4,229.7h3.1v-4.9l-0.2,0.3L88.4,229.7z"
		/>
	<path class="st0" d="M95.7,233.9h-1.1l4.2-10.8h1.1L95.7,233.9z"/>
	<path class="st0" d="M107.5,223.8l-4.1,9.2h-1.3l4.1-8.9h-5.4v-1h6.7V223.8z"/>
	<path class="st0" d="M115.5,232.2c0.5,0,0.8-0.1,1.2-0.4s0.5-0.6,0.6-1h1.2c0,0.4-0.2,0.8-0.4,1.2s-0.6,0.7-1.1,0.9
		c-0.4,0.2-0.9,0.3-1.4,0.3c-1,0-1.8-0.3-2.4-1c-0.6-0.7-0.9-1.6-0.9-2.8v-0.2c0-0.7,0.1-1.4,0.4-1.9s0.6-1,1.1-1.3
		c0.5-0.3,1.1-0.5,1.8-0.5c0.8,0,1.5,0.2,2.1,0.7c0.5,0.5,0.8,1.1,0.9,1.9h-1.2c0-0.5-0.2-0.9-0.5-1.2c-0.3-0.3-0.7-0.5-1.2-0.5
		c-0.6,0-1.1,0.2-1.5,0.7c-0.4,0.5-0.5,1.1-0.5,2v0.2c0,0.9,0.2,1.5,0.5,2S114.9,232.2,115.5,232.2z"/>
	<path class="st0" d="M123.5,226.8c-0.2,0-0.4,0-0.6,0c-0.8,0-1.4,0.4-1.7,1.1v5.2h-1.3v-7.4h1.2l0,0.9c0.4-0.7,1-1,1.8-1
		c0.2,0,0.4,0,0.6,0.1V226.8z"/>
	<path class="st0" d="M127.7,233.2c-1,0-1.8-0.3-2.4-1s-0.9-1.5-0.9-2.6v-0.2c0-0.7,0.1-1.4,0.4-2c0.3-0.6,0.7-1,1.2-1.4
		c0.5-0.3,1-0.5,1.6-0.5c1,0,1.7,0.3,2.2,1s0.8,1.5,0.8,2.7v0.5h-5c0,0.7,0.2,1.3,0.6,1.8c0.4,0.4,0.9,0.7,1.6,0.7
		c0.4,0,0.8-0.1,1.1-0.3s0.6-0.4,0.8-0.7l0.8,0.6C129.9,232.7,128.9,233.2,127.7,233.2z M127.5,226.6c-0.5,0-0.9,0.2-1.3,0.6
		s-0.6,0.9-0.6,1.6h3.7v-0.1c0-0.6-0.2-1.1-0.5-1.5S128.1,226.6,127.5,226.6z"/>
	<path class="st0" d="M131.7,229.3c0-1.1,0.3-2,0.8-2.7s1.2-1,2.1-1c0.9,0,1.6,0.3,2.1,0.9v-3.9h1.3v10.5h-1.2l-0.1-0.8
		c-0.5,0.6-1.2,0.9-2.1,0.9c-0.9,0-1.6-0.4-2.1-1.1C132,231.4,131.7,230.5,131.7,229.3L131.7,229.3z M133,229.4c0,0.8,0.2,1.5,0.5,2
		s0.8,0.7,1.4,0.7c0.8,0,1.4-0.4,1.8-1.1v-3.4c-0.4-0.7-1-1-1.7-1c-0.6,0-1.1,0.2-1.4,0.7S133,228.5,133,229.4z"/>
	<path class="st0" d="M139.9,223.7c0-0.2,0.1-0.4,0.2-0.5c0.1-0.1,0.3-0.2,0.6-0.2s0.4,0.1,0.6,0.2s0.2,0.3,0.2,0.5
		s-0.1,0.4-0.2,0.5s-0.3,0.2-0.6,0.2s-0.4-0.1-0.6-0.2C140,224.1,139.9,223.9,139.9,223.7z M141.3,233.1H140v-7.4h1.3V233.1z"/>
	<path class="st0" d="M145,223.9v1.8h1.4v1H145v4.6c0,0.3,0.1,0.5,0.2,0.7c0.1,0.1,0.3,0.2,0.6,0.2c0.1,0,0.3,0,0.6-0.1v1
		c-0.3,0.1-0.7,0.1-1,0.1c-0.6,0-1-0.2-1.3-0.5s-0.4-0.8-0.4-1.5v-4.6h-1.3v-1h1.3v-1.8H145z"/>
	<path class="st0" d="M152.6,225.7l0,0.8c0.5-0.6,1.3-1,2.2-1c1,0,1.7,0.4,2.1,1.2c0.2-0.4,0.6-0.6,1-0.9c0.4-0.2,0.9-0.3,1.4-0.3
		c1.6,0,2.4,0.9,2.5,2.6v5h-1.3v-4.9c0-0.5-0.1-0.9-0.4-1.2s-0.6-0.4-1.2-0.4c-0.5,0-0.9,0.1-1.2,0.4s-0.5,0.7-0.5,1.1v4.9h-1.3
		v-4.8c0-1.1-0.5-1.6-1.6-1.6c-0.8,0-1.4,0.4-1.7,1.1v5.4h-1.3v-7.4H152.6z"/>
	<path class="st0" d="M163.3,229.3c0-0.7,0.1-1.4,0.4-2c0.3-0.6,0.7-1,1.2-1.3c0.5-0.3,1.1-0.5,1.7-0.5c1,0,1.8,0.3,2.4,1
		c0.6,0.7,0.9,1.6,0.9,2.8v0.1c0,0.7-0.1,1.4-0.4,1.9c-0.3,0.6-0.7,1-1.2,1.3c-0.5,0.3-1.1,0.5-1.8,0.5c-1,0-1.8-0.3-2.4-1
		C163.6,231.5,163.3,230.5,163.3,229.3L163.3,229.3z M164.6,229.4c0,0.8,0.2,1.5,0.6,2c0.4,0.5,0.9,0.7,1.5,0.7
		c0.6,0,1.2-0.3,1.5-0.8s0.6-1.2,0.6-2.1c0-0.8-0.2-1.5-0.6-2c-0.4-0.5-0.9-0.8-1.5-0.8c-0.6,0-1.1,0.2-1.5,0.7
		S164.6,228.5,164.6,229.4z"/>
	<path class="st0" d="M172.8,225.7l0,0.9c0.6-0.7,1.3-1.1,2.2-1.1c1.6,0,2.4,0.9,2.4,2.6v4.9h-1.3v-4.9c0-0.5-0.1-0.9-0.4-1.2
		c-0.2-0.3-0.6-0.4-1.1-0.4c-0.4,0-0.8,0.1-1.1,0.3s-0.6,0.5-0.7,0.9v5.3h-1.3v-7.4H172.8z"/>
	<path class="st0" d="M179.4,223.7c0-0.2,0.1-0.4,0.2-0.5c0.1-0.1,0.3-0.2,0.6-0.2s0.4,0.1,0.6,0.2s0.2,0.3,0.2,0.5
		s-0.1,0.4-0.2,0.5s-0.3,0.2-0.6,0.2s-0.4-0.1-0.6-0.2C179.4,224.1,179.4,223.9,179.4,223.7z M180.7,233.1h-1.3v-7.4h1.3V233.1z"/>
	<path class="st0" d="M184.5,223.9v1.8h1.4v1h-1.4v4.6c0,0.3,0.1,0.5,0.2,0.7c0.1,0.1,0.3,0.2,0.6,0.2c0.1,0,0.3,0,0.6-0.1v1
		c-0.3,0.1-0.7,0.1-1,0.1c-0.6,0-1-0.2-1.3-0.5s-0.4-0.8-0.4-1.5v-4.6h-1.3v-1h1.3v-1.8H184.5z"/>
	<path class="st0" d="M186.8,229.3c0-0.7,0.1-1.4,0.4-2c0.3-0.6,0.7-1,1.2-1.3c0.5-0.3,1.1-0.5,1.7-0.5c1,0,1.8,0.3,2.4,1
		c0.6,0.7,0.9,1.6,0.9,2.8v0.1c0,0.7-0.1,1.4-0.4,1.9c-0.3,0.6-0.7,1-1.2,1.3c-0.5,0.3-1.1,0.5-1.8,0.5c-1,0-1.8-0.3-2.4-1
		C187.2,231.5,186.8,230.5,186.8,229.3L186.8,229.3z M188.1,229.4c0,0.8,0.2,1.5,0.6,2c0.4,0.5,0.9,0.7,1.5,0.7
		c0.6,0,1.2-0.3,1.5-0.8s0.6-1.2,0.6-2.1c0-0.8-0.2-1.5-0.6-2c-0.4-0.5-0.9-0.8-1.5-0.8c-0.6,0-1.1,0.2-1.5,0.7
		S188.1,228.5,188.1,229.4z"/>
	<path class="st0" d="M198.7,226.8c-0.2,0-0.4,0-0.6,0c-0.8,0-1.4,0.4-1.7,1.1v5.2h-1.3v-7.4h1.2l0,0.9c0.4-0.7,1-1,1.8-1
		c0.2,0,0.4,0,0.6,0.1V226.8z"/>
	<path class="st0" d="M199.9,223.7c0-0.2,0.1-0.4,0.2-0.5c0.1-0.1,0.3-0.2,0.6-0.2s0.4,0.1,0.6,0.2s0.2,0.3,0.2,0.5
		s-0.1,0.4-0.2,0.5s-0.3,0.2-0.6,0.2s-0.4-0.1-0.6-0.2C200,224.1,199.9,223.9,199.9,223.7z M201.3,233.1H200v-7.4h1.3V233.1z"/>
	<path class="st0" d="M204.5,225.7l0,0.9c0.6-0.7,1.3-1.1,2.2-1.1c1.6,0,2.4,0.9,2.4,2.6v4.9h-1.3v-4.9c0-0.5-0.1-0.9-0.4-1.2
		c-0.2-0.3-0.6-0.4-1.1-0.4c-0.4,0-0.8,0.1-1.1,0.3s-0.6,0.5-0.7,0.9v5.3h-1.3v-7.4H204.5z"/>
	<path class="st0" d="M210.7,229.3c0-1.2,0.3-2.1,0.8-2.8s1.2-1,2.1-1c0.9,0,1.6,0.3,2.1,1l0.1-0.8h1.2v7.2c0,1-0.3,1.7-0.9,2.3
		c-0.6,0.6-1.3,0.8-2.3,0.8c-0.5,0-1.1-0.1-1.6-0.3s-0.9-0.5-1.2-0.9l0.7-0.8c0.5,0.7,1.2,1,2,1c0.6,0,1.1-0.2,1.4-0.5
		c0.3-0.3,0.5-0.8,0.5-1.5v-0.6c-0.5,0.6-1.2,0.9-2.1,0.9c-0.9,0-1.6-0.3-2.1-1C211,231.5,210.7,230.5,210.7,229.3z M212,229.4
		c0,0.8,0.2,1.5,0.5,2s0.8,0.7,1.4,0.7c0.8,0,1.4-0.4,1.8-1.1v-3.4c-0.4-0.7-1-1.1-1.7-1.1c-0.6,0-1.1,0.2-1.4,0.7
		S212,228.5,212,229.4z"/>
	<path class="st0" d="M218.9,232.4c0-0.2,0.1-0.4,0.2-0.5c0.1-0.1,0.3-0.2,0.6-0.2s0.5,0.1,0.6,0.2c0.1,0.1,0.2,0.3,0.2,0.5
		c0,0.2-0.1,0.4-0.2,0.5c-0.1,0.1-0.3,0.2-0.6,0.2s-0.5-0.1-0.6-0.2C219,232.8,218.9,232.6,218.9,232.4z"/>
</g>
</svg>
