<?xml version="1.0" encoding="utf-8"?>
<!-- Generator: Adobe Illustrator 25.4.1, SVG Export Plug-In . SVG Version: 6.00 Build 0)  -->
<svg version="1.1" id="Layer_1" xmlns="http://www.w3.org/2000/svg" xmlns:xlink="http://www.w3.org/1999/xlink" x="0px" y="0px"
	 viewBox="0 0 300 600" style="enable-background:new 0 0 300 600;" xml:space="preserve">
<style type="text/css">
	.st0{fill:#2A3380;}
	.st1{fill:url(#SVGID_1_);}
	.st2{fill:url(#SVGID_00000138535017974845594630000010125240702605426352_);}
	.st3{fill:url(#SVGID_00000052791747405121309960000009240056486724849581_);}
	.st4{fill:url(#SVGID_00000073697959791064069990000018426425812244630144_);}
	.st5{fill:url(#SVGID_00000067923296091220429200000011204153487673437331_);}
</style>
<path class="st0" d="M231.6,43.7c0-0.3,0.1-0.6,0.3-0.8c0.2-0.2,0.5-0.3,0.8-0.3c0.3,0,0.5,0.1,0.8,0.3c0.2,0.2,0.3,0.5,0.3,0.8
	v11.9c0,0.3-0.1,0.6-0.3,0.8c-0.2,0.2-0.5,0.3-0.8,0.3c-0.3,0-0.5-0.1-0.8-0.3c-0.2-0.2-0.3-0.5-0.3-0.8V43.7z"/>
<g id="PG_x5F_Logo_x5F_W_00000053522533597608908330000012941933120392700837_">
	<path class="st0" d="M231.6,43.7c0-0.3,0.1-0.6,0.3-0.8c0.2-0.2,0.5-0.3,0.8-0.3c0.3,0,0.5,0.1,0.8,0.3c0.2,0.2,0.3,0.5,0.3,0.8
		v11.9c0,0.3-0.1,0.6-0.3,0.8c-0.2,0.2-0.5,0.3-0.8,0.3c-0.3,0-0.5-0.1-0.8-0.3c-0.2-0.2-0.3-0.5-0.3-0.8V43.7z"/>
	<g>
		<g>
			<g>
				<path class="st0" d="M171.4,62.5c-0.9,0.7-1.9,1-3.1,1c-0.7-0.1-1.2-0.1-1.6-0.3c-0.4-0.1-0.7-0.3-1.1-0.5
					c-0.3-0.2-0.5-0.5-0.5-0.9c0-0.3,0.1-0.6,0.3-0.8c0.2-0.2,0.5-0.3,0.8-0.3c0.2,0,0.5,0.1,0.6,0.2c0.5,0.3,1,0.4,1.5,0.4
					c0.4,0,0.8-0.1,1.1-0.2c0.3-0.2,0.7-0.4,0.9-0.6c0.3-0.3,0.5-0.5,0.6-0.9c0.2-0.3,0.2-0.7,0.3-1.1v-8.1c0-0.3,0.1-0.6,0.3-0.8
					c0.2-0.2,0.5-0.3,0.8-0.3c0.3,0,0.5,0.1,0.7,0.3c0.2,0.2,0.3,0.5,0.3,0.8c0,0,0,6.7,0,8.1C173.5,60.2,172.7,61.5,171.4,62.5z"/>
				<path class="st0" d="M123,38.8c0-0.3,0.1-0.6,0.3-0.8c0.2-0.2,0.5-0.3,0.8-0.3c0.3,0,0.5,0.1,0.7,0.3c0.2,0.2,0.3,0.5,0.3,0.8
					v0.8c0,0.3-0.1,0.6-0.3,0.8c-0.2,0.2-0.5,0.3-0.8,0.3c-0.3,0-0.5-0.1-0.7-0.3c-0.2-0.2-0.3-0.5-0.3-0.8V38.8z M123,43.8
					c0-0.3,0.1-0.6,0.3-0.8c0.2-0.2,0.5-0.3,0.8-0.3c0.3,0,0.5,0.1,0.7,0.3c0.2,0.2,0.3,0.5,0.3,0.8v11.8c0,0.3-0.1,0.6-0.3,0.8
					c-0.2,0.2-0.5,0.3-0.8,0.3c-0.3,0-0.5-0.1-0.7-0.3c-0.2-0.2-0.3-0.5-0.3-0.8V43.8z"/>
				<g>
					<path class="st0" d="M113.7,44.1c0-0.3,0.1-0.5,0.3-0.7c0.2-0.2,0.5-0.3,0.7-0.3c0.2,0,0.5,0.1,0.6,0.2
						c0.2,0.2,0.3,0.4,0.4,0.6c0.9-0.6,1.9-1,3-1c0.6,0.1,1.2,0.1,1.5,0.2c0.4,0.1,0.7,0.3,1,0.5c0.3,0.2,0.5,0.5,0.5,0.9
						c0,0.3-0.1,0.6-0.3,0.8c-0.2,0.2-0.5,0.3-0.7,0.3c-0.2,0-0.5-0.1-0.6-0.2c-0.5-0.3-0.9-0.4-1.5-0.4c-0.4,0-0.8,0.1-1.1,0.2
						c-0.3,0.1-0.6,0.3-0.9,0.6c-0.3,0.2-0.5,0.5-0.6,0.9c-0.1,0.3-0.2,0.7-0.2,1.1v7.9c0,0.3-0.1,0.5-0.3,0.7
						c-0.2,0.2-0.5,0.3-0.7,0.3c-0.3,0-0.5-0.1-0.7-0.3c-0.2-0.2-0.3-0.5-0.3-0.7v-8V44.1z"/>
				</g>
				<path class="st0" d="M126.6,44.2c-0.1-0.1-0.1-0.3-0.1-0.4c0-0.3,0.1-0.5,0.3-0.7c0.2-0.2,0.4-0.3,0.8-0.3
					c0.2,0,0.4,0.1,0.6,0.2c0.2,0.1,0.3,0.3,0.4,0.5l4.2,9.7l4.2-9.7c0.2-0.4,0.5-0.6,1-0.6c0.3,0,0.6,0.1,0.8,0.3
					c0.2,0.2,0.3,0.5,0.3,0.7c0,0.2,0,0.3-0.1,0.4l-5.1,12c-0.2,0.4-0.5,0.6-1,0.6c-0.5,0-0.8-0.2-1-0.6L126.6,44.2z"/>
				<path class="st0" d="M139.3,47.7c0-0.7,0.1-1.4,0.4-2c0.3-0.6,0.6-1.2,1.1-1.6c0.5-0.5,1-0.8,1.6-1.1c0.6-0.3,1.3-0.4,2-0.4
					c0.7,0,1.4,0.1,2,0.4c0.6,0.3,1.2,0.6,1.6,1.1c0.5,0.5,0.8,1,1.1,1.6c0.3,0.6,0.4,1.3,0.4,2v8c0,0.3-0.1,0.6-0.3,0.8
					c-0.2,0.2-0.5,0.3-0.7,0.3c-0.3,0-0.5-0.1-0.7-0.2c-0.2-0.2-0.3-0.4-0.4-0.6c-0.9,0.6-1.9,1-3,1c-0.7,0-1.4-0.1-2-0.4
					c-0.6-0.3-1.2-0.6-1.6-1.1c-0.5-0.5-0.8-1-1.1-1.6c-0.3-0.6-0.4-1.3-0.4-2V47.7z M141.4,51.7c0,0.4,0.1,0.8,0.2,1.1
					c0.2,0.4,0.4,0.7,0.6,0.9c0.3,0.3,0.6,0.5,0.9,0.6c0.4,0.2,0.7,0.2,1.1,0.2c0.4,0,0.8-0.1,1.1-0.2c0.4-0.1,0.7-0.3,0.9-0.6
					c0.3-0.3,0.5-0.5,0.6-0.9c0.2-0.3,0.2-0.7,0.3-1.1v-4.2c0-0.4-0.1-0.8-0.2-1.1c-0.2-0.4-0.4-0.7-0.6-0.9
					c-0.3-0.3-0.6-0.5-0.9-0.6c-0.4-0.2-0.7-0.2-1.1-0.2c-0.4,0-0.8,0.1-1.2,0.2c-0.4,0.2-0.7,0.4-0.9,0.6c-0.3,0.3-0.5,0.6-0.6,0.9
					c-0.2,0.4-0.2,0.7-0.2,1.1V51.7z"/>
				<path class="st0" d="M151.4,47.7c0-0.7,0.1-1.4,0.4-2c0.3-0.6,0.6-1.2,1.1-1.6c0.5-0.5,1-0.8,1.7-1.1c0.6-0.3,1.3-0.4,2-0.4
					c0.1,0,0.4,0,0.8,0.1c0.4,0,0.8,0.2,1.3,0.4c0.5,0.2,0.9,0.5,1.4,0.9c0.5,0.4,0.8,1,1.1,1.8c0.1,0.2,0.1,0.3,0.1,0.4
					c0,0.3-0.1,0.6-0.3,0.8c-0.2,0.2-0.5,0.3-0.8,0.3c-0.2,0-0.4-0.1-0.6-0.2c-0.2-0.1-0.3-0.3-0.4-0.5c-0.3-0.6-0.6-1-1.1-1.3
					c-0.5-0.3-1-0.5-1.6-0.5c-0.4,0-0.8,0.1-1.2,0.2c-0.4,0.2-0.7,0.4-0.9,0.6c-0.3,0.3-0.5,0.6-0.6,0.9c-0.2,0.4-0.2,0.7-0.2,1.1
					v4.1c0,0.4,0.1,0.8,0.2,1.1c0.2,0.4,0.4,0.7,0.6,0.9c0.3,0.3,0.6,0.5,0.9,0.6c0.4,0.2,0.7,0.2,1.1,0.2c0.6,0,1.1-0.2,1.6-0.5
					c0.5-0.3,0.9-0.8,1.1-1.3c0.1-0.2,0.2-0.4,0.4-0.5c0.2-0.1,0.4-0.2,0.6-0.2c0.3,0,0.6,0.1,0.8,0.3c0.2,0.2,0.3,0.5,0.3,0.7
					c0,0.1,0,0.3-0.1,0.4c-0.4,0.8-0.8,1.5-1.4,1.9c-0.5,0.4-1,0.7-1.5,0.9c-0.5,0.2-0.9,0.3-1.3,0.3c-0.3,0-0.5,0-0.5,0
					c-0.7,0-1.4-0.1-2-0.4c-0.6-0.3-1.2-0.6-1.6-1.1c-0.5-0.5-0.8-1-1.1-1.6c-0.3-0.6-0.4-1.3-0.4-2V47.7z"/>
				<path class="st0" d="M190.3,43.8c0-0.3,0.1-0.6,0.3-0.8c0.2-0.2,0.5-0.3,0.8-0.3c0.3,0,0.5,0.1,0.7,0.3c0.2,0.2,0.3,0.5,0.3,0.8
					v8c0,0.4,0.1,0.8,0.2,1.1c0.2,0.4,0.4,0.7,0.6,0.9c0.3,0.3,0.6,0.5,0.9,0.6c0.4,0.2,0.7,0.2,1.2,0.2c0.4,0,0.8-0.1,1.1-0.2
					c0.4-0.2,0.7-0.4,0.9-0.6c0.3-0.3,0.5-0.6,0.6-0.9c0.2-0.4,0.2-0.7,0.2-1.1v-8c0-0.3,0.1-0.6,0.3-0.8c0.2-0.2,0.5-0.3,0.8-0.3
					c0.3,0,0.5,0.1,0.7,0.3c0.2,0.2,0.3,0.5,0.3,0.8v8c0,0.7-0.1,1.4-0.4,2c-0.3,0.6-0.6,1.2-1.1,1.6c-0.5,0.5-1,0.8-1.6,1.1
					c-0.6,0.3-1.3,0.4-2,0.4c-0.7,0-1.4-0.1-2-0.4c-0.6-0.3-1.2-0.6-1.6-1.1c-0.5-0.5-0.8-1-1.1-1.6c-0.3-0.6-0.4-1.3-0.4-2V43.8z"
					/>
				<path class="st0" d="M202.5,47.7c0-0.7,0.1-1.4,0.4-2c0.3-0.6,0.6-1.2,1.1-1.6c0.5-0.5,1-0.8,1.6-1.1c0.6-0.3,1.3-0.4,2-0.4
					c0.7,0,1.4,0.1,2,0.4c0.6,0.3,1.2,0.6,1.6,1.1c0.5,0.5,0.8,1,1.1,1.6c0.3,0.6,0.4,1.3,0.4,2v8c0,0.3-0.1,0.6-0.3,0.8
					c-0.2,0.2-0.5,0.3-0.7,0.3c-0.3,0-0.5-0.1-0.7-0.2c-0.2-0.2-0.3-0.4-0.4-0.6c-0.9,0.6-1.9,1-3,1c-0.7,0-1.4-0.1-2-0.4
					c-0.6-0.3-1.2-0.6-1.6-1.1c-0.5-0.5-0.8-1-1.1-1.6c-0.3-0.6-0.4-1.3-0.4-2V47.7z M204.6,51.7c0,0.4,0.1,0.8,0.2,1.1
					c0.2,0.4,0.4,0.7,0.6,0.9c0.3,0.3,0.6,0.5,0.9,0.6c0.4,0.2,0.7,0.2,1.1,0.2c0.4,0,0.8-0.1,1.1-0.2c0.4-0.1,0.7-0.3,0.9-0.6
					c0.3-0.3,0.5-0.5,0.6-0.9c0.2-0.3,0.2-0.7,0.3-1.1v-4.2c0-0.4-0.1-0.8-0.2-1.1c-0.2-0.4-0.4-0.7-0.6-0.9
					c-0.3-0.3-0.6-0.5-0.9-0.6c-0.4-0.2-0.7-0.2-1.1-0.2c-0.4,0-0.8,0.1-1.2,0.2c-0.4,0.2-0.7,0.4-0.9,0.6c-0.3,0.3-0.5,0.6-0.6,0.9
					c-0.2,0.4-0.2,0.7-0.2,1.1V51.7z"/>
				<g>
					<path class="st0" d="M214.8,44.1c0-0.3,0.1-0.5,0.3-0.7c0.2-0.2,0.5-0.3,0.7-0.3c0.2,0,0.5,0.1,0.6,0.2
						c0.2,0.2,0.3,0.4,0.4,0.6c0.9-0.6,1.9-1,3-1c0.6,0.1,1.2,0.1,1.5,0.2c0.4,0.1,0.7,0.3,1,0.5c0.3,0.2,0.5,0.5,0.5,0.9
						c0,0.3-0.1,0.6-0.3,0.8c-0.2,0.2-0.5,0.3-0.7,0.3c-0.2,0-0.5-0.1-0.6-0.2c-0.5-0.3-0.9-0.4-1.5-0.4c-0.4,0-0.8,0.1-1.1,0.2
						c-0.3,0.1-0.6,0.3-0.9,0.6c-0.3,0.2-0.5,0.5-0.6,0.9c-0.1,0.3-0.2,0.7-0.2,1.1v7.9c0,0.3-0.1,0.5-0.3,0.7
						c-0.2,0.2-0.5,0.3-0.7,0.3c-0.3,0-0.5-0.1-0.7-0.3c-0.2-0.2-0.3-0.5-0.3-0.7v-8V44.1z"/>
				</g>
				<path class="st0" d="M231.6,38.8c0-0.3,0.1-0.6,0.3-0.8c0.2-0.2,0.5-0.3,0.8-0.3c0.3,0,0.5,0.1,0.7,0.3c0.2,0.2,0.3,0.5,0.3,0.8
					v12.9c0,0.7-0.1,1.4-0.4,2c-0.3,0.6-0.6,1.2-1.1,1.6c-0.5,0.5-1,0.8-1.6,1.1c-0.6,0.3-1.3,0.4-2,0.4c-0.7,0-1.4-0.1-2-0.4
					c-0.6-0.3-1.2-0.6-1.6-1.1c-0.5-0.5-0.8-1-1.1-1.6c-0.3-0.6-0.4-1.3-0.4-2v-4.1c0-0.7,0.1-1.4,0.4-2c0.3-0.6,0.6-1.2,1.1-1.6
					c0.5-0.5,1-0.8,1.6-1.1c0.6-0.3,1.3-0.4,2-0.4c0.5,0,1.1,0.1,1.6,0.3c0.5,0.2,1,0.4,1.4,0.7V38.8z M225.7,51.7
					c0,0.4,0.1,0.8,0.2,1.1c0.2,0.4,0.4,0.7,0.6,0.9c0.3,0.3,0.6,0.5,0.9,0.6c0.4,0.2,0.7,0.2,1.2,0.2c0.4,0,0.8-0.1,1.1-0.2
					c0.4-0.2,0.7-0.4,0.9-0.6c0.3-0.3,0.5-0.6,0.6-0.9c0.2-0.4,0.2-0.7,0.2-1.1v-4.1c0-0.4-0.1-0.8-0.2-1.1
					c-0.2-0.4-0.4-0.7-0.6-0.9c-0.3-0.3-0.6-0.5-0.9-0.6c-0.4-0.2-0.7-0.2-1.2-0.2c-0.4,0-0.8,0.1-1.1,0.2c-0.4,0.2-0.7,0.4-0.9,0.6
					c-0.3,0.3-0.5,0.6-0.6,0.9c-0.2,0.4-0.2,0.7-0.2,1.1V51.7z"/>
				<path class="st0" d="M163.3,43.8c0-0.3,0.1-0.6,0.3-0.8c0.2-0.2,0.5-0.3,0.8-0.3c0.3,0,0.5,0.1,0.7,0.3c0.2,0.2,0.3,0.5,0.3,0.8
					v8c0,0.4,0.1,0.8,0.2,1.1c0.2,0.4,0.4,0.7,0.6,0.9c0.3,0.3,0.6,0.5,0.9,0.6c0.4,0.2,0.7,0.2,1.2,0.2c0.4,0,0.8-0.1,1.1-0.2
					c0.4-0.2,0.7-0.4,0.9-0.6c0.3-0.3,0.5-0.6,0.6-0.9c0.2-0.4,0.2-0.7,0.2-1.1v-8c0-0.3,0.1-0.6,0.3-0.8c0.2-0.2,0.5-0.3,0.8-0.3
					c0.3,0,0.5,0.1,0.7,0.3c0.2,0.2,0.3,0.5,0.3,0.8v8c0,0.7-0.1,1.4-0.4,2c-0.3,0.6-0.6,1.2-1.1,1.6c-0.5,0.5-1,0.8-1.6,1.1
					c-0.6,0.3-1.3,0.4-2,0.4c-0.7,0-1.4-0.1-2-0.4c-0.6-0.3-1.2-0.6-1.6-1.1c-0.5-0.5-0.8-1-1.1-1.6c-0.3-0.6-0.4-1.3-0.4-2V43.8z"
					/>
				<path class="st0" d="M187.3,47.2h-4.5c-0.6,0-1.1,0.5-1.1,1c0,0.6,0.5,1.1,1.1,1.1h3.6V51c0,2.3-2.1,4-4.3,4
					c-2.4,0-4.5-1.7-4.5-4.5v-6.4c0-2.6,2-4.5,4.4-4.5c2,0,3.6,1.4,4.2,3.1c0.2,0.4,0.5,0.6,1,0.6c0.8,0,1.4-0.7,1-1.6
					c-0.7-2.1-2.8-4.2-6.1-4.2c-3.9,0-6.6,3-6.6,6.5v6.7c0,3.5,2.8,6.6,6.6,6.6c3.5,0,6.4-2.7,6.4-5.8v-3.2
					C188.4,47.6,187.9,47.2,187.3,47.2z"/>
			</g>
		</g>
		<path class="st0" d="M231.6,43.8c0-0.3,0.1-0.6,0.3-0.8c0.2-0.2,0.5-0.3,0.8-0.3c0.3,0,0.5,0.1,0.7,0.3c0.2,0.2,0.3,0.5,0.3,0.8
			v11.8c0,0.3-0.1,0.6-0.3,0.8c-0.2,0.2-0.5,0.3-0.8,0.3c-0.3,0-0.5-0.1-0.7-0.3c-0.2-0.2-0.3-0.5-0.3-0.8V43.8z"/>
		<g>
			<path class="st0" d="M100.1,39.5c0-0.3,0.1-0.5,0.3-0.7c0.2-0.2,0.5-0.3,0.7-0.3h4.2h0c0.9,0,1.7,0.2,2.5,0.5
				c0.8,0.3,1.5,0.8,2.1,1.4c0.6,0.6,1.1,1.3,1.4,2.1c0.3,0.8,0.5,1.6,0.5,2.5c0,0.9-0.2,1.7-0.5,2.5c-0.3,0.8-0.8,1.5-1.4,2.1
				c-0.6,0.6-1.3,1.1-2.1,1.4c-0.8,0.3-1.7,0.5-2.6,0.5h-3.2v4.2c0,0.3-0.1,0.5-0.3,0.7c-0.2,0.2-0.5,0.3-0.7,0.3
				c-0.3,0-0.5-0.1-0.7-0.3c-0.2-0.2-0.3-0.5-0.3-0.7V39.5z M102.2,40.6v8.8h3.2c0.6,0,1.2-0.1,1.8-0.3c0.5-0.2,1-0.5,1.4-0.9
				c0.4-0.4,0.7-0.9,1-1.4c0.2-0.5,0.3-1.1,0.3-1.7c0-0.6-0.1-1.2-0.4-1.7c-0.2-0.5-0.6-1-1-1.4c-0.4-0.4-0.9-0.7-1.4-0.9
				c-0.5-0.2-1.1-0.3-1.7-0.3H102.2z"/>
		</g>
	</g>
	<linearGradient id="SVGID_1_" gradientUnits="userSpaceOnUse" x1="76.0772" y1="38.0888" x2="76.1102" y2="65.6855">
		<stop  offset="0" style="stop-color:#41B5E8"/>
		<stop  offset="0.5" style="stop-color:#6A53A3"/>
		<stop  offset="1" style="stop-color:#E72E8A"/>
	</linearGradient>
	<path class="st1" d="M79.2,57.4v2.2c0,1.7-1.4,3.1-3.1,3.1c-0.6,0-1.1-0.1-1.6-0.4c-0.5-0.3-0.7-0.9-0.4-1.5
		c0.3-0.5,0.9-0.7,1.5-0.4c0.2,0.1,0.3,0.1,0.5,0.1c0.5,0,1-0.4,1-1v-2.2c0-0.6,0.5-1.1,1.1-1.1C78.7,56.3,79.2,56.8,79.2,57.4z
		 M72,61.6c-0.3-0.5-0.9-0.7-1.4-0.5c-0.5,0.3-0.7,0.9-0.5,1.4c1.2,2.2,3.4,3.6,5.9,3.6c3.7,0,6.7-3,6.7-6.7v-2.2
		c0-0.6-0.5-1.1-1.1-1.1c-0.6,0-1.1,0.5-1.1,1.1v2.2c0,2.5-2,4.5-4.5,4.5C74.4,64.1,72.8,63.2,72,61.6z M75.8,26.4
		c-5.5,0.2-9.9,4.8-9.9,10.4v22.8c0,2.8,1.1,5.4,3.1,7.3c1.9,1.9,4.4,2.9,7.1,2.9c0.1,0,0.2,0,0.3,0c5.5-0.2,9.9-4.8,9.9-10.4v-1.7
		c0-2.7-2.2-4.9-4.9-4.9h-3.3c-0.6,0-1.1,0.5-1.1,1.1c0,0.6,0.5,1.1,1.1,1.1h3.3c1.5,0,2.7,1.2,2.7,2.7v1.7c0,4.4-3.5,8.2-7.9,8.3
		c-2.2,0.1-4.3-0.7-5.9-2.3c-1.6-1.5-2.5-3.6-2.5-5.8V36.8c0-4.4,3.5-8.2,7.9-8.3c2.2-0.1,4.3,0.7,5.9,2.3c1.6,1.5,2.5,3.6,2.5,5.8
		V50c0,0.6,0.5,1.1,1.1,1.1s1.1-0.5,1.1-1.1V36.6c0-2.8-1.1-5.4-3.1-7.3C81.2,27.3,78.6,26.3,75.8,26.4z M82.8,44.6v-8
		c0-3.7-3-6.7-6.7-6.7c-3.7,0-6.7,3-6.7,6.7v1.2c0,0.6,0.5,1.1,1.1,1.1s1.1-0.5,1.1-1.1v-1.2c0-2.5,2-4.5,4.5-4.5
		c2.5,0,4.5,2,4.5,4.5v8c0,2.5-2,4.5-4.5,4.5c-0.6,0-1.1-0.1-1.7-0.3c-0.3-0.1-0.7-0.1-1,0.1c-0.3,0.2-0.5,0.5-0.5,0.9v7.3
		c0,0.4-0.3,0.7-0.7,0.7c-0.4,0-0.7-0.3-0.7-0.7V41.5c0-0.6-0.5-1.1-1.1-1.1s-1.1,0.5-1.1,1.1v15.7c0,1.6,1.3,2.8,2.8,2.8
		c1.6,0,2.8-1.3,2.8-2.8l0-5.9c0.3,0,0.7,0.1,1,0.1C79.8,51.3,82.8,48.3,82.8,44.6z M89.9,36.8v16.8v0.3v5.6c0,3.7-1.5,7.2-4.2,9.9
		c-2.6,2.5-6,3.9-9.6,3.9c-0.1,0-0.2,0-0.3,0c-7.4-0.2-13.5-6.5-13.5-14V36.6c0-3.7,1.5-7.2,4.2-9.9c2.7-2.6,6.2-4,10-3.9
		C83.8,23,89.9,29.3,89.9,36.8z M87.8,53.9v-0.3V36.8c0-6.4-5.1-11.8-11.4-11.9c-3.2-0.1-6.2,1.1-8.4,3.3c-2.3,2.2-3.5,5.2-3.5,8.3
		v22.7c0,6.4,5.1,11.8,11.4,11.9c3.2,0.1,6.2-1.1,8.4-3.3c2.3-2.2,3.5-5.2,3.5-8.3V53.9z M73,44.6v-8c0-1.7,1.4-3.1,3.1-3.1
		c1.7,0,3.1,1.4,3.1,3.1v8c0,1.7-1.4,3.1-3.1,3.1C74.4,47.7,73,46.3,73,44.6z M75.1,44.6c0,0.5,0.4,1,1,1c0.5,0,1-0.4,1-1v-8
		c0-0.5-0.4-1-1-1c-0.5,0-1,0.4-1,1V44.6z"/>
	<g>
		<path class="st0" d="M235.2,38.2h-0.4v-0.3h1.1v0.3h-0.4v1.2h-0.3V38.2z"/>
		<path class="st0" d="M237.4,38.8c0-0.2,0-0.4,0-0.6h0c0,0.2-0.1,0.4-0.2,0.6l-0.2,0.6h-0.3l-0.2-0.6c0-0.2-0.1-0.4-0.1-0.6h0
			c0,0.2,0,0.4,0,0.6l0,0.6h-0.3l0.1-1.5h0.4l0.1,0.5c0,0.2,0.1,0.4,0.1,0.5h0c0-0.2,0.1-0.4,0.1-0.5l0.2-0.5h0.4l0.1,1.5h-0.3
			L237.4,38.8z"/>
	</g>
</g>
<g id="PG_x5F_Logo_x5F_W_00000147909663299841813280000012680183989633412508_">
	<path class="st0" d="M231.6,43.7c0-0.3,0.1-0.6,0.3-0.8c0.2-0.2,0.5-0.3,0.8-0.3c0.3,0,0.5,0.1,0.8,0.3c0.2,0.2,0.3,0.5,0.3,0.8
		v11.9c0,0.3-0.1,0.6-0.3,0.8c-0.2,0.2-0.5,0.3-0.8,0.3c-0.3,0-0.5-0.1-0.8-0.3c-0.2-0.2-0.3-0.5-0.3-0.8V43.7z"/>
	<g>
		<g>
			<g>
				<path class="st0" d="M171.4,62.5c-0.9,0.7-1.9,1-3.1,1c-0.7-0.1-1.2-0.1-1.6-0.3c-0.4-0.1-0.7-0.3-1.1-0.5
					c-0.3-0.2-0.5-0.5-0.5-0.9c0-0.3,0.1-0.6,0.3-0.8c0.2-0.2,0.5-0.3,0.8-0.3c0.2,0,0.5,0.1,0.6,0.2c0.5,0.3,1,0.4,1.5,0.4
					c0.4,0,0.8-0.1,1.1-0.2c0.3-0.2,0.7-0.4,0.9-0.6c0.3-0.3,0.5-0.5,0.6-0.9c0.2-0.3,0.2-0.7,0.3-1.1v-8.1c0-0.3,0.1-0.6,0.3-0.8
					c0.2-0.2,0.5-0.3,0.8-0.3c0.3,0,0.5,0.1,0.7,0.3c0.2,0.2,0.3,0.5,0.3,0.8c0,0,0,6.7,0,8.1C173.5,60.2,172.7,61.5,171.4,62.5z"/>
				<path class="st0" d="M123,38.8c0-0.3,0.1-0.6,0.3-0.8c0.2-0.2,0.5-0.3,0.8-0.3c0.3,0,0.5,0.1,0.7,0.3c0.2,0.2,0.3,0.5,0.3,0.8
					v0.8c0,0.3-0.1,0.6-0.3,0.8c-0.2,0.2-0.5,0.3-0.8,0.3c-0.3,0-0.5-0.1-0.7-0.3c-0.2-0.2-0.3-0.5-0.3-0.8V38.8z M123,43.8
					c0-0.3,0.1-0.6,0.3-0.8c0.2-0.2,0.5-0.3,0.8-0.3c0.3,0,0.5,0.1,0.7,0.3c0.2,0.2,0.3,0.5,0.3,0.8v11.8c0,0.3-0.1,0.6-0.3,0.8
					c-0.2,0.2-0.5,0.3-0.8,0.3c-0.3,0-0.5-0.1-0.7-0.3c-0.2-0.2-0.3-0.5-0.3-0.8V43.8z"/>
				<g>
					<path class="st0" d="M113.7,44.1c0-0.3,0.1-0.5,0.3-0.7c0.2-0.2,0.5-0.3,0.7-0.3c0.2,0,0.5,0.1,0.6,0.2
						c0.2,0.2,0.3,0.4,0.4,0.6c0.9-0.6,1.9-1,3-1c0.6,0.1,1.2,0.1,1.5,0.2c0.4,0.1,0.7,0.3,1,0.5c0.3,0.2,0.5,0.5,0.5,0.9
						c0,0.3-0.1,0.6-0.3,0.8c-0.2,0.2-0.5,0.3-0.7,0.3c-0.2,0-0.5-0.1-0.6-0.2c-0.5-0.3-0.9-0.4-1.5-0.4c-0.4,0-0.8,0.1-1.1,0.2
						c-0.3,0.1-0.6,0.3-0.9,0.6c-0.3,0.2-0.5,0.5-0.6,0.9c-0.1,0.3-0.2,0.7-0.2,1.1v7.9c0,0.3-0.1,0.5-0.3,0.7
						c-0.2,0.2-0.5,0.3-0.7,0.3c-0.3,0-0.5-0.1-0.7-0.3c-0.2-0.2-0.3-0.5-0.3-0.7v-8V44.1z"/>
				</g>
				<path class="st0" d="M126.6,44.2c-0.1-0.1-0.1-0.3-0.1-0.4c0-0.3,0.1-0.5,0.3-0.7c0.2-0.2,0.4-0.3,0.8-0.3
					c0.2,0,0.4,0.1,0.6,0.2c0.2,0.1,0.3,0.3,0.4,0.5l4.2,9.7l4.2-9.7c0.2-0.4,0.5-0.6,1-0.6c0.3,0,0.6,0.1,0.8,0.3
					c0.2,0.2,0.3,0.5,0.3,0.7c0,0.2,0,0.3-0.1,0.4l-5.1,12c-0.2,0.4-0.5,0.6-1,0.6c-0.5,0-0.8-0.2-1-0.6L126.6,44.2z"/>
				<path class="st0" d="M139.3,47.7c0-0.7,0.1-1.4,0.4-2c0.3-0.6,0.6-1.2,1.1-1.6c0.5-0.5,1-0.8,1.6-1.1c0.6-0.3,1.3-0.4,2-0.4
					c0.7,0,1.4,0.1,2,0.4c0.6,0.3,1.2,0.6,1.6,1.1c0.5,0.5,0.8,1,1.1,1.6c0.3,0.6,0.4,1.3,0.4,2v8c0,0.3-0.1,0.6-0.3,0.8
					c-0.2,0.2-0.5,0.3-0.7,0.3c-0.3,0-0.5-0.1-0.7-0.2c-0.2-0.2-0.3-0.4-0.4-0.6c-0.9,0.6-1.9,1-3,1c-0.7,0-1.4-0.1-2-0.4
					c-0.6-0.3-1.2-0.6-1.6-1.1c-0.5-0.5-0.8-1-1.1-1.6c-0.3-0.6-0.4-1.3-0.4-2V47.7z M141.4,51.7c0,0.4,0.1,0.8,0.2,1.1
					c0.2,0.4,0.4,0.7,0.6,0.9c0.3,0.3,0.6,0.5,0.9,0.6c0.4,0.2,0.7,0.2,1.1,0.2c0.4,0,0.8-0.1,1.1-0.2c0.4-0.1,0.7-0.3,0.9-0.6
					c0.3-0.3,0.5-0.5,0.6-0.9c0.2-0.3,0.2-0.7,0.3-1.1v-4.2c0-0.4-0.1-0.8-0.2-1.1c-0.2-0.4-0.4-0.7-0.6-0.9
					c-0.3-0.3-0.6-0.5-0.9-0.6c-0.4-0.2-0.7-0.2-1.1-0.2c-0.4,0-0.8,0.1-1.2,0.2c-0.4,0.2-0.7,0.4-0.9,0.6c-0.3,0.3-0.5,0.6-0.6,0.9
					c-0.2,0.4-0.2,0.7-0.2,1.1V51.7z"/>
				<path class="st0" d="M151.4,47.7c0-0.7,0.1-1.4,0.4-2c0.3-0.6,0.6-1.2,1.1-1.6c0.5-0.5,1-0.8,1.7-1.1c0.6-0.3,1.3-0.4,2-0.4
					c0.1,0,0.4,0,0.8,0.1c0.4,0,0.8,0.2,1.3,0.4c0.5,0.2,0.9,0.5,1.4,0.9c0.5,0.4,0.8,1,1.1,1.8c0.1,0.2,0.1,0.3,0.1,0.4
					c0,0.3-0.1,0.6-0.3,0.8c-0.2,0.2-0.5,0.3-0.8,0.3c-0.2,0-0.4-0.1-0.6-0.2c-0.2-0.1-0.3-0.3-0.4-0.5c-0.3-0.6-0.6-1-1.1-1.3
					c-0.5-0.3-1-0.5-1.6-0.5c-0.4,0-0.8,0.1-1.2,0.2c-0.4,0.2-0.7,0.4-0.9,0.6c-0.3,0.3-0.5,0.6-0.6,0.9c-0.2,0.4-0.2,0.7-0.2,1.1
					v4.1c0,0.4,0.1,0.8,0.2,1.1c0.2,0.4,0.4,0.7,0.6,0.9c0.3,0.3,0.6,0.5,0.9,0.6c0.4,0.2,0.7,0.2,1.1,0.2c0.6,0,1.1-0.2,1.6-0.5
					c0.5-0.3,0.9-0.8,1.1-1.3c0.1-0.2,0.2-0.4,0.4-0.5c0.2-0.1,0.4-0.2,0.6-0.2c0.3,0,0.6,0.1,0.8,0.3c0.2,0.2,0.3,0.5,0.3,0.7
					c0,0.1,0,0.3-0.1,0.4c-0.4,0.8-0.8,1.5-1.4,1.9c-0.5,0.4-1,0.7-1.5,0.9c-0.5,0.2-0.9,0.3-1.3,0.3c-0.3,0-0.5,0-0.5,0
					c-0.7,0-1.4-0.1-2-0.4c-0.6-0.3-1.2-0.6-1.6-1.1c-0.5-0.5-0.8-1-1.1-1.6c-0.3-0.6-0.4-1.3-0.4-2V47.7z"/>
				<path class="st0" d="M190.3,43.8c0-0.3,0.1-0.6,0.3-0.8c0.2-0.2,0.5-0.3,0.8-0.3c0.3,0,0.5,0.1,0.7,0.3c0.2,0.2,0.3,0.5,0.3,0.8
					v8c0,0.4,0.1,0.8,0.2,1.1c0.2,0.4,0.4,0.7,0.6,0.9c0.3,0.3,0.6,0.5,0.9,0.6c0.4,0.2,0.7,0.2,1.2,0.2c0.4,0,0.8-0.1,1.1-0.2
					c0.4-0.2,0.7-0.4,0.9-0.6c0.3-0.3,0.5-0.6,0.6-0.9c0.2-0.4,0.2-0.7,0.2-1.1v-8c0-0.3,0.1-0.6,0.3-0.8c0.2-0.2,0.5-0.3,0.8-0.3
					c0.3,0,0.5,0.1,0.7,0.3c0.2,0.2,0.3,0.5,0.3,0.8v8c0,0.7-0.1,1.4-0.4,2c-0.3,0.6-0.6,1.2-1.1,1.6c-0.5,0.5-1,0.8-1.6,1.1
					c-0.6,0.3-1.3,0.4-2,0.4c-0.7,0-1.4-0.1-2-0.4c-0.6-0.3-1.2-0.6-1.6-1.1c-0.5-0.5-0.8-1-1.1-1.6c-0.3-0.6-0.4-1.3-0.4-2V43.8z"
					/>
				<path class="st0" d="M202.5,47.7c0-0.7,0.1-1.4,0.4-2c0.3-0.6,0.6-1.2,1.1-1.6c0.5-0.5,1-0.8,1.6-1.1c0.6-0.3,1.3-0.4,2-0.4
					c0.7,0,1.4,0.1,2,0.4c0.6,0.3,1.2,0.6,1.6,1.1c0.5,0.5,0.8,1,1.1,1.6c0.3,0.6,0.4,1.3,0.4,2v8c0,0.3-0.1,0.6-0.3,0.8
					c-0.2,0.2-0.5,0.3-0.7,0.3c-0.3,0-0.5-0.1-0.7-0.2c-0.2-0.2-0.3-0.4-0.4-0.6c-0.9,0.6-1.9,1-3,1c-0.7,0-1.4-0.1-2-0.4
					c-0.6-0.3-1.2-0.6-1.6-1.1c-0.5-0.5-0.8-1-1.1-1.6c-0.3-0.6-0.4-1.3-0.4-2V47.7z M204.6,51.7c0,0.4,0.1,0.8,0.2,1.1
					c0.2,0.4,0.4,0.7,0.6,0.9c0.3,0.3,0.6,0.5,0.9,0.6c0.4,0.2,0.7,0.2,1.1,0.2c0.4,0,0.8-0.1,1.1-0.2c0.4-0.1,0.7-0.3,0.9-0.6
					c0.3-0.3,0.5-0.5,0.6-0.9c0.2-0.3,0.2-0.7,0.3-1.1v-4.2c0-0.4-0.1-0.8-0.2-1.1c-0.2-0.4-0.4-0.7-0.6-0.9
					c-0.3-0.3-0.6-0.5-0.9-0.6c-0.4-0.2-0.7-0.2-1.1-0.2c-0.4,0-0.8,0.1-1.2,0.2c-0.4,0.2-0.7,0.4-0.9,0.6c-0.3,0.3-0.5,0.6-0.6,0.9
					c-0.2,0.4-0.2,0.7-0.2,1.1V51.7z"/>
				<g>
					<path class="st0" d="M214.8,44.1c0-0.3,0.1-0.5,0.3-0.7c0.2-0.2,0.5-0.3,0.7-0.3c0.2,0,0.5,0.1,0.6,0.2
						c0.2,0.2,0.3,0.4,0.4,0.6c0.9-0.6,1.9-1,3-1c0.6,0.1,1.2,0.1,1.5,0.2c0.4,0.1,0.7,0.3,1,0.5c0.3,0.2,0.5,0.5,0.5,0.9
						c0,0.3-0.1,0.6-0.3,0.8c-0.2,0.2-0.5,0.3-0.7,0.3c-0.2,0-0.5-0.1-0.6-0.2c-0.5-0.3-0.9-0.4-1.5-0.4c-0.4,0-0.8,0.1-1.1,0.2
						c-0.3,0.1-0.6,0.3-0.9,0.6c-0.3,0.2-0.5,0.5-0.6,0.9c-0.1,0.3-0.2,0.7-0.2,1.1v7.9c0,0.3-0.1,0.5-0.3,0.7
						c-0.2,0.2-0.5,0.3-0.7,0.3c-0.3,0-0.5-0.1-0.7-0.3c-0.2-0.2-0.3-0.5-0.3-0.7v-8V44.1z"/>
				</g>
				<path class="st0" d="M231.6,38.8c0-0.3,0.1-0.6,0.3-0.8c0.2-0.2,0.5-0.3,0.8-0.3c0.3,0,0.5,0.1,0.7,0.3c0.2,0.2,0.3,0.5,0.3,0.8
					v12.9c0,0.7-0.1,1.4-0.4,2c-0.3,0.6-0.6,1.2-1.1,1.6c-0.5,0.5-1,0.8-1.6,1.1c-0.6,0.3-1.3,0.4-2,0.4c-0.7,0-1.4-0.1-2-0.4
					c-0.6-0.3-1.2-0.6-1.6-1.1c-0.5-0.5-0.8-1-1.1-1.6c-0.3-0.6-0.4-1.3-0.4-2v-4.1c0-0.7,0.1-1.4,0.4-2c0.3-0.6,0.6-1.2,1.1-1.6
					c0.5-0.5,1-0.8,1.6-1.1c0.6-0.3,1.3-0.4,2-0.4c0.5,0,1.1,0.1,1.6,0.3c0.5,0.2,1,0.4,1.4,0.7V38.8z M225.7,51.7
					c0,0.4,0.1,0.8,0.2,1.1c0.2,0.4,0.4,0.7,0.6,0.9c0.3,0.3,0.6,0.5,0.9,0.6c0.4,0.2,0.7,0.2,1.2,0.2c0.4,0,0.8-0.1,1.1-0.2
					c0.4-0.2,0.7-0.4,0.9-0.6c0.3-0.3,0.5-0.6,0.6-0.9c0.2-0.4,0.2-0.7,0.2-1.1v-4.1c0-0.4-0.1-0.8-0.2-1.1
					c-0.2-0.4-0.4-0.7-0.6-0.9c-0.3-0.3-0.6-0.5-0.9-0.6c-0.4-0.2-0.7-0.2-1.2-0.2c-0.4,0-0.8,0.1-1.1,0.2c-0.4,0.2-0.7,0.4-0.9,0.6
					c-0.3,0.3-0.5,0.6-0.6,0.9c-0.2,0.4-0.2,0.7-0.2,1.1V51.7z"/>
				<path class="st0" d="M163.3,43.8c0-0.3,0.1-0.6,0.3-0.8c0.2-0.2,0.5-0.3,0.8-0.3c0.3,0,0.5,0.1,0.7,0.3c0.2,0.2,0.3,0.5,0.3,0.8
					v8c0,0.4,0.1,0.8,0.2,1.1c0.2,0.4,0.4,0.7,0.6,0.9c0.3,0.3,0.6,0.5,0.9,0.6c0.4,0.2,0.7,0.2,1.2,0.2c0.4,0,0.8-0.1,1.1-0.2
					c0.4-0.2,0.7-0.4,0.9-0.6c0.3-0.3,0.5-0.6,0.6-0.9c0.2-0.4,0.2-0.7,0.2-1.1v-8c0-0.3,0.1-0.6,0.3-0.8c0.2-0.2,0.5-0.3,0.8-0.3
					c0.3,0,0.5,0.1,0.7,0.3c0.2,0.2,0.3,0.5,0.3,0.8v8c0,0.7-0.1,1.4-0.4,2c-0.3,0.6-0.6,1.2-1.1,1.6c-0.5,0.5-1,0.8-1.6,1.1
					c-0.6,0.3-1.3,0.4-2,0.4c-0.7,0-1.4-0.1-2-0.4c-0.6-0.3-1.2-0.6-1.6-1.1c-0.5-0.5-0.8-1-1.1-1.6c-0.3-0.6-0.4-1.3-0.4-2V43.8z"
					/>
				<path class="st0" d="M187.3,47.2h-4.5c-0.6,0-1.1,0.5-1.1,1c0,0.6,0.5,1.1,1.1,1.1h3.6V51c0,2.3-2.1,4-4.3,4
					c-2.4,0-4.5-1.7-4.5-4.5v-6.4c0-2.6,2-4.5,4.4-4.5c2,0,3.6,1.4,4.2,3.1c0.2,0.4,0.5,0.6,1,0.6c0.8,0,1.4-0.7,1-1.6
					c-0.7-2.1-2.8-4.2-6.1-4.2c-3.9,0-6.6,3-6.6,6.5v6.7c0,3.5,2.8,6.6,6.6,6.6c3.5,0,6.4-2.7,6.4-5.8v-3.2
					C188.4,47.6,187.9,47.2,187.3,47.2z"/>
			</g>
		</g>
		<path class="st0" d="M231.6,43.8c0-0.3,0.1-0.6,0.3-0.8c0.2-0.2,0.5-0.3,0.8-0.3c0.3,0,0.5,0.1,0.7,0.3c0.2,0.2,0.3,0.5,0.3,0.8
			v11.8c0,0.3-0.1,0.6-0.3,0.8c-0.2,0.2-0.5,0.3-0.8,0.3c-0.3,0-0.5-0.1-0.7-0.3c-0.2-0.2-0.3-0.5-0.3-0.8V43.8z"/>
		<g>
			<path class="st0" d="M100.1,39.5c0-0.3,0.1-0.5,0.3-0.7c0.2-0.2,0.5-0.3,0.7-0.3h4.2h0c0.9,0,1.7,0.2,2.5,0.5
				c0.8,0.3,1.5,0.8,2.1,1.4c0.6,0.6,1.1,1.3,1.4,2.1c0.3,0.8,0.5,1.6,0.5,2.5c0,0.9-0.2,1.7-0.5,2.5c-0.3,0.8-0.8,1.5-1.4,2.1
				c-0.6,0.6-1.3,1.1-2.1,1.4c-0.8,0.3-1.7,0.5-2.6,0.5h-3.2v4.2c0,0.3-0.1,0.5-0.3,0.7c-0.2,0.2-0.5,0.3-0.7,0.3
				c-0.3,0-0.5-0.1-0.7-0.3c-0.2-0.2-0.3-0.5-0.3-0.7V39.5z M102.2,40.6v8.8h3.2c0.6,0,1.2-0.1,1.8-0.3c0.5-0.2,1-0.5,1.4-0.9
				c0.4-0.4,0.7-0.9,1-1.4c0.2-0.5,0.3-1.1,0.3-1.7c0-0.6-0.1-1.2-0.4-1.7c-0.2-0.5-0.6-1-1-1.4c-0.4-0.4-0.9-0.7-1.4-0.9
				c-0.5-0.2-1.1-0.3-1.7-0.3H102.2z"/>
		</g>
	</g>
	
		<linearGradient id="SVGID_00000062877255637886220270000011514202860888191884_" gradientUnits="userSpaceOnUse" x1="76.0772" y1="38.0888" x2="76.1102" y2="65.6855">
		<stop  offset="0" style="stop-color:#41B5E8"/>
		<stop  offset="0.5" style="stop-color:#6A53A3"/>
		<stop  offset="1" style="stop-color:#E72E8A"/>
	</linearGradient>
	<path style="fill:url(#SVGID_00000062877255637886220270000011514202860888191884_);" d="M79.2,57.4v2.2c0,1.7-1.4,3.1-3.1,3.1
		c-0.6,0-1.1-0.1-1.6-0.4c-0.5-0.3-0.7-0.9-0.4-1.5c0.3-0.5,0.9-0.7,1.5-0.4c0.2,0.1,0.3,0.1,0.5,0.1c0.5,0,1-0.4,1-1v-2.2
		c0-0.6,0.5-1.1,1.1-1.1C78.7,56.3,79.2,56.8,79.2,57.4z M72,61.6c-0.3-0.5-0.9-0.7-1.4-0.5c-0.5,0.3-0.7,0.9-0.5,1.4
		c1.2,2.2,3.4,3.6,5.9,3.6c3.7,0,6.7-3,6.7-6.7v-2.2c0-0.6-0.5-1.1-1.1-1.1c-0.6,0-1.1,0.5-1.1,1.1v2.2c0,2.5-2,4.5-4.5,4.5
		C74.4,64.1,72.8,63.2,72,61.6z M75.8,26.4c-5.5,0.2-9.9,4.8-9.9,10.4v22.8c0,2.8,1.1,5.4,3.1,7.3c1.9,1.9,4.4,2.9,7.1,2.9
		c0.1,0,0.2,0,0.3,0c5.5-0.2,9.9-4.8,9.9-10.4v-1.7c0-2.7-2.2-4.9-4.9-4.9h-3.3c-0.6,0-1.1,0.5-1.1,1.1c0,0.6,0.5,1.1,1.1,1.1h3.3
		c1.5,0,2.7,1.2,2.7,2.7v1.7c0,4.4-3.5,8.2-7.9,8.3c-2.2,0.1-4.3-0.7-5.9-2.3c-1.6-1.5-2.5-3.6-2.5-5.8V36.8c0-4.4,3.5-8.2,7.9-8.3
		c2.2-0.1,4.3,0.7,5.9,2.3c1.6,1.5,2.5,3.6,2.5,5.8V50c0,0.6,0.5,1.1,1.1,1.1s1.1-0.5,1.1-1.1V36.6c0-2.8-1.1-5.4-3.1-7.3
		C81.2,27.3,78.6,26.3,75.8,26.4z M82.8,44.6v-8c0-3.7-3-6.7-6.7-6.7c-3.7,0-6.7,3-6.7,6.7v1.2c0,0.6,0.5,1.1,1.1,1.1
		s1.1-0.5,1.1-1.1v-1.2c0-2.5,2-4.5,4.5-4.5c2.5,0,4.5,2,4.5,4.5v8c0,2.5-2,4.5-4.5,4.5c-0.6,0-1.1-0.1-1.7-0.3
		c-0.3-0.1-0.7-0.1-1,0.1c-0.3,0.2-0.5,0.5-0.5,0.9v7.3c0,0.4-0.3,0.7-0.7,0.7c-0.4,0-0.7-0.3-0.7-0.7V41.5c0-0.6-0.5-1.1-1.1-1.1
		s-1.1,0.5-1.1,1.1v15.7c0,1.6,1.3,2.8,2.8,2.8c1.6,0,2.8-1.3,2.8-2.8l0-5.9c0.3,0,0.7,0.1,1,0.1C79.8,51.3,82.8,48.3,82.8,44.6z
		 M89.9,36.8v16.8v0.3v5.6c0,3.7-1.5,7.2-4.2,9.9c-2.6,2.5-6,3.9-9.6,3.9c-0.1,0-0.2,0-0.3,0c-7.4-0.2-13.5-6.5-13.5-14V36.6
		c0-3.7,1.5-7.2,4.2-9.9c2.7-2.6,6.2-4,10-3.9C83.8,23,89.9,29.3,89.9,36.8z M87.8,53.9v-0.3V36.8c0-6.4-5.1-11.8-11.4-11.9
		c-3.2-0.1-6.2,1.1-8.4,3.3c-2.3,2.2-3.5,5.2-3.5,8.3v22.7c0,6.4,5.1,11.8,11.4,11.9c3.2,0.1,6.2-1.1,8.4-3.3
		c2.3-2.2,3.5-5.2,3.5-8.3V53.9z M73,44.6v-8c0-1.7,1.4-3.1,3.1-3.1c1.7,0,3.1,1.4,3.1,3.1v8c0,1.7-1.4,3.1-3.1,3.1
		C74.4,47.7,73,46.3,73,44.6z M75.1,44.6c0,0.5,0.4,1,1,1c0.5,0,1-0.4,1-1v-8c0-0.5-0.4-1-1-1c-0.5,0-1,0.4-1,1V44.6z"/>
	<g>
		<path class="st0" d="M235.2,38.2h-0.4v-0.3h1.1v0.3h-0.4v1.2h-0.3V38.2z"/>
		<path class="st0" d="M237.4,38.8c0-0.2,0-0.4,0-0.6h0c0,0.2-0.1,0.4-0.2,0.6l-0.2,0.6h-0.3l-0.2-0.6c0-0.2-0.1-0.4-0.1-0.6h0
			c0,0.2,0,0.4,0,0.6l0,0.6h-0.3l0.1-1.5h0.4l0.1,0.5c0,0.2,0.1,0.4,0.1,0.5h0c0-0.2,0.1-0.4,0.1-0.5l0.2-0.5h0.4l0.1,1.5h-0.3
			L237.4,38.8z"/>
	</g>
</g>
<g id="PG_x5F_Logo_x5F_W_00000126310910319760059620000016411778224832781734_">
	<path class="st0" d="M231.6,43.7c0-0.3,0.1-0.6,0.3-0.8c0.2-0.2,0.5-0.3,0.8-0.3c0.3,0,0.5,0.1,0.8,0.3c0.2,0.2,0.3,0.5,0.3,0.8
		v11.9c0,0.3-0.1,0.6-0.3,0.8c-0.2,0.2-0.5,0.3-0.8,0.3c-0.3,0-0.5-0.1-0.8-0.3c-0.2-0.2-0.3-0.5-0.3-0.8V43.7z"/>
	<g>
		<g>
			<g>
				<path class="st0" d="M171.4,62.5c-0.9,0.7-1.9,1-3.1,1c-0.7-0.1-1.2-0.1-1.6-0.3c-0.4-0.1-0.7-0.3-1.1-0.5
					c-0.3-0.2-0.5-0.5-0.5-0.9c0-0.3,0.1-0.6,0.3-0.8c0.2-0.2,0.5-0.3,0.8-0.3c0.2,0,0.5,0.1,0.6,0.2c0.5,0.3,1,0.4,1.5,0.4
					c0.4,0,0.8-0.1,1.1-0.2c0.3-0.2,0.7-0.4,0.9-0.6c0.3-0.3,0.5-0.5,0.6-0.9c0.2-0.3,0.2-0.7,0.3-1.1v-8.1c0-0.3,0.1-0.6,0.3-0.8
					c0.2-0.2,0.5-0.3,0.8-0.3c0.3,0,0.5,0.1,0.7,0.3c0.2,0.2,0.3,0.5,0.3,0.8c0,0,0,6.7,0,8.1C173.5,60.2,172.7,61.5,171.4,62.5z"/>
				<path class="st0" d="M123,38.8c0-0.3,0.1-0.6,0.3-0.8c0.2-0.2,0.5-0.3,0.8-0.3c0.3,0,0.5,0.1,0.7,0.3c0.2,0.2,0.3,0.5,0.3,0.8
					v0.8c0,0.3-0.1,0.6-0.3,0.8c-0.2,0.2-0.5,0.3-0.8,0.3c-0.3,0-0.5-0.1-0.7-0.3c-0.2-0.2-0.3-0.5-0.3-0.8V38.8z M123,43.8
					c0-0.3,0.1-0.6,0.3-0.8c0.2-0.2,0.5-0.3,0.8-0.3c0.3,0,0.5,0.1,0.7,0.3c0.2,0.2,0.3,0.5,0.3,0.8v11.8c0,0.3-0.1,0.6-0.3,0.8
					c-0.2,0.2-0.5,0.3-0.8,0.3c-0.3,0-0.5-0.1-0.7-0.3c-0.2-0.2-0.3-0.5-0.3-0.8V43.8z"/>
				<g>
					<path class="st0" d="M113.7,44.1c0-0.3,0.1-0.5,0.3-0.7c0.2-0.2,0.5-0.3,0.7-0.3c0.2,0,0.5,0.1,0.6,0.2
						c0.2,0.2,0.3,0.4,0.4,0.6c0.9-0.6,1.9-1,3-1c0.6,0.1,1.2,0.1,1.5,0.2c0.4,0.1,0.7,0.3,1,0.5c0.3,0.2,0.5,0.5,0.5,0.9
						c0,0.3-0.1,0.6-0.3,0.8c-0.2,0.2-0.5,0.3-0.7,0.3c-0.2,0-0.5-0.1-0.6-0.2c-0.5-0.3-0.9-0.4-1.5-0.4c-0.4,0-0.8,0.1-1.1,0.2
						c-0.3,0.1-0.6,0.3-0.9,0.6c-0.3,0.2-0.5,0.5-0.6,0.9c-0.1,0.3-0.2,0.7-0.2,1.1v7.9c0,0.3-0.1,0.5-0.3,0.7
						c-0.2,0.2-0.5,0.3-0.7,0.3c-0.3,0-0.5-0.1-0.7-0.3c-0.2-0.2-0.3-0.5-0.3-0.7v-8V44.1z"/>
				</g>
				<path class="st0" d="M126.6,44.2c-0.1-0.1-0.1-0.3-0.1-0.4c0-0.3,0.1-0.5,0.3-0.7c0.2-0.2,0.4-0.3,0.8-0.3
					c0.2,0,0.4,0.1,0.6,0.2c0.2,0.1,0.3,0.3,0.4,0.5l4.2,9.7l4.2-9.7c0.2-0.4,0.5-0.6,1-0.6c0.3,0,0.6,0.1,0.8,0.3
					c0.2,0.2,0.3,0.5,0.3,0.7c0,0.2,0,0.3-0.1,0.4l-5.1,12c-0.2,0.4-0.5,0.6-1,0.6c-0.5,0-0.8-0.2-1-0.6L126.6,44.2z"/>
				<path class="st0" d="M139.3,47.7c0-0.7,0.1-1.4,0.4-2c0.3-0.6,0.6-1.2,1.1-1.6c0.5-0.5,1-0.8,1.6-1.1c0.6-0.3,1.3-0.4,2-0.4
					c0.7,0,1.4,0.1,2,0.4c0.6,0.3,1.2,0.6,1.6,1.1c0.5,0.5,0.8,1,1.1,1.6c0.3,0.6,0.4,1.3,0.4,2v8c0,0.3-0.1,0.6-0.3,0.8
					c-0.2,0.2-0.5,0.3-0.7,0.3c-0.3,0-0.5-0.1-0.7-0.2c-0.2-0.2-0.3-0.4-0.4-0.6c-0.9,0.6-1.9,1-3,1c-0.7,0-1.4-0.1-2-0.4
					c-0.6-0.3-1.2-0.6-1.6-1.1c-0.5-0.5-0.8-1-1.1-1.6c-0.3-0.6-0.4-1.3-0.4-2V47.7z M141.4,51.7c0,0.4,0.1,0.8,0.2,1.1
					c0.2,0.4,0.4,0.7,0.6,0.9c0.3,0.3,0.6,0.5,0.9,0.6c0.4,0.2,0.7,0.2,1.1,0.2c0.4,0,0.8-0.1,1.1-0.2c0.4-0.1,0.7-0.3,0.9-0.6
					c0.3-0.3,0.5-0.5,0.6-0.9c0.2-0.3,0.2-0.7,0.3-1.1v-4.2c0-0.4-0.1-0.8-0.2-1.1c-0.2-0.4-0.4-0.7-0.6-0.9
					c-0.3-0.3-0.6-0.5-0.9-0.6c-0.4-0.2-0.7-0.2-1.1-0.2c-0.4,0-0.8,0.1-1.2,0.2c-0.4,0.2-0.7,0.4-0.9,0.6c-0.3,0.3-0.5,0.6-0.6,0.9
					c-0.2,0.4-0.2,0.7-0.2,1.1V51.7z"/>
				<path class="st0" d="M151.4,47.7c0-0.7,0.1-1.4,0.4-2c0.3-0.6,0.6-1.2,1.1-1.6c0.5-0.5,1-0.8,1.7-1.1c0.6-0.3,1.3-0.4,2-0.4
					c0.1,0,0.4,0,0.8,0.1c0.4,0,0.8,0.2,1.3,0.4c0.5,0.2,0.9,0.5,1.4,0.9c0.5,0.4,0.8,1,1.1,1.8c0.1,0.2,0.1,0.3,0.1,0.4
					c0,0.3-0.1,0.6-0.3,0.8c-0.2,0.2-0.5,0.3-0.8,0.3c-0.2,0-0.4-0.1-0.6-0.2c-0.2-0.1-0.3-0.3-0.4-0.5c-0.3-0.6-0.6-1-1.1-1.3
					c-0.5-0.3-1-0.5-1.6-0.5c-0.4,0-0.8,0.1-1.2,0.2c-0.4,0.2-0.7,0.4-0.9,0.6c-0.3,0.3-0.5,0.6-0.6,0.9c-0.2,0.4-0.2,0.7-0.2,1.1
					v4.1c0,0.4,0.1,0.8,0.2,1.1c0.2,0.4,0.4,0.7,0.6,0.9c0.3,0.3,0.6,0.5,0.9,0.6c0.4,0.2,0.7,0.2,1.1,0.2c0.6,0,1.1-0.2,1.6-0.5
					c0.5-0.3,0.9-0.8,1.1-1.3c0.1-0.2,0.2-0.4,0.4-0.5c0.2-0.1,0.4-0.2,0.6-0.2c0.3,0,0.6,0.1,0.8,0.3c0.2,0.2,0.3,0.5,0.3,0.7
					c0,0.1,0,0.3-0.1,0.4c-0.4,0.8-0.8,1.5-1.4,1.9c-0.5,0.4-1,0.7-1.5,0.9c-0.5,0.2-0.9,0.3-1.3,0.3c-0.3,0-0.5,0-0.5,0
					c-0.7,0-1.4-0.1-2-0.4c-0.6-0.3-1.2-0.6-1.6-1.1c-0.5-0.5-0.8-1-1.1-1.6c-0.3-0.6-0.4-1.3-0.4-2V47.7z"/>
				<path class="st0" d="M190.3,43.8c0-0.3,0.1-0.6,0.3-0.8c0.2-0.2,0.5-0.3,0.8-0.3c0.3,0,0.5,0.1,0.7,0.3c0.2,0.2,0.3,0.5,0.3,0.8
					v8c0,0.4,0.1,0.8,0.2,1.1c0.2,0.4,0.4,0.7,0.6,0.9c0.3,0.3,0.6,0.5,0.9,0.6c0.4,0.2,0.7,0.2,1.2,0.2c0.4,0,0.8-0.1,1.1-0.2
					c0.4-0.2,0.7-0.4,0.9-0.6c0.3-0.3,0.5-0.6,0.6-0.9c0.2-0.4,0.2-0.7,0.2-1.1v-8c0-0.3,0.1-0.6,0.3-0.8c0.2-0.2,0.5-0.3,0.8-0.3
					c0.3,0,0.5,0.1,0.7,0.3c0.2,0.2,0.3,0.5,0.3,0.8v8c0,0.7-0.1,1.4-0.4,2c-0.3,0.6-0.6,1.2-1.1,1.6c-0.5,0.5-1,0.8-1.6,1.1
					c-0.6,0.3-1.3,0.4-2,0.4c-0.7,0-1.4-0.1-2-0.4c-0.6-0.3-1.2-0.6-1.6-1.1c-0.5-0.5-0.8-1-1.1-1.6c-0.3-0.6-0.4-1.3-0.4-2V43.8z"
					/>
				<path class="st0" d="M202.5,47.7c0-0.7,0.1-1.4,0.4-2c0.3-0.6,0.6-1.2,1.1-1.6c0.5-0.5,1-0.8,1.6-1.1c0.6-0.3,1.3-0.4,2-0.4
					c0.7,0,1.4,0.1,2,0.4c0.6,0.3,1.2,0.6,1.6,1.1c0.5,0.5,0.8,1,1.1,1.6c0.3,0.6,0.4,1.3,0.4,2v8c0,0.3-0.1,0.6-0.3,0.8
					c-0.2,0.2-0.5,0.3-0.7,0.3c-0.3,0-0.5-0.1-0.7-0.2c-0.2-0.2-0.3-0.4-0.4-0.6c-0.9,0.6-1.9,1-3,1c-0.7,0-1.4-0.1-2-0.4
					c-0.6-0.3-1.2-0.6-1.6-1.1c-0.5-0.5-0.8-1-1.1-1.6c-0.3-0.6-0.4-1.3-0.4-2V47.7z M204.6,51.7c0,0.4,0.1,0.8,0.2,1.1
					c0.2,0.4,0.4,0.7,0.6,0.9c0.3,0.3,0.6,0.5,0.9,0.6c0.4,0.2,0.7,0.2,1.1,0.2c0.4,0,0.8-0.1,1.1-0.2c0.4-0.1,0.7-0.3,0.9-0.6
					c0.3-0.3,0.5-0.5,0.6-0.9c0.2-0.3,0.2-0.7,0.3-1.1v-4.2c0-0.4-0.1-0.8-0.2-1.1c-0.2-0.4-0.4-0.7-0.6-0.9
					c-0.3-0.3-0.6-0.5-0.9-0.6c-0.4-0.2-0.7-0.2-1.1-0.2c-0.4,0-0.8,0.1-1.2,0.2c-0.4,0.2-0.7,0.4-0.9,0.6c-0.3,0.3-0.5,0.6-0.6,0.9
					c-0.2,0.4-0.2,0.7-0.2,1.1V51.7z"/>
				<g>
					<path class="st0" d="M214.8,44.1c0-0.3,0.1-0.5,0.3-0.7c0.2-0.2,0.5-0.3,0.7-0.3c0.2,0,0.5,0.1,0.6,0.2
						c0.2,0.2,0.3,0.4,0.4,0.6c0.9-0.6,1.9-1,3-1c0.6,0.1,1.2,0.1,1.5,0.2c0.4,0.1,0.7,0.3,1,0.5c0.3,0.2,0.5,0.5,0.5,0.9
						c0,0.3-0.1,0.6-0.3,0.8c-0.2,0.2-0.5,0.3-0.7,0.3c-0.2,0-0.5-0.1-0.6-0.2c-0.5-0.3-0.9-0.4-1.5-0.4c-0.4,0-0.8,0.1-1.1,0.2
						c-0.3,0.1-0.6,0.3-0.9,0.6c-0.3,0.2-0.5,0.5-0.6,0.9c-0.1,0.3-0.2,0.7-0.2,1.1v7.9c0,0.3-0.1,0.5-0.3,0.7
						c-0.2,0.2-0.5,0.3-0.7,0.3c-0.3,0-0.5-0.1-0.7-0.3c-0.2-0.2-0.3-0.5-0.3-0.7v-8V44.1z"/>
				</g>
				<path class="st0" d="M231.6,38.8c0-0.3,0.1-0.6,0.3-0.8c0.2-0.2,0.5-0.3,0.8-0.3c0.3,0,0.5,0.1,0.7,0.3c0.2,0.2,0.3,0.5,0.3,0.8
					v12.9c0,0.7-0.1,1.4-0.4,2c-0.3,0.6-0.6,1.2-1.1,1.6c-0.5,0.5-1,0.8-1.6,1.1c-0.6,0.3-1.3,0.4-2,0.4c-0.7,0-1.4-0.1-2-0.4
					c-0.6-0.3-1.2-0.6-1.6-1.1c-0.5-0.5-0.8-1-1.1-1.6c-0.3-0.6-0.4-1.3-0.4-2v-4.1c0-0.7,0.1-1.4,0.4-2c0.3-0.6,0.6-1.2,1.1-1.6
					c0.5-0.5,1-0.8,1.6-1.1c0.6-0.3,1.3-0.4,2-0.4c0.5,0,1.1,0.1,1.6,0.3c0.5,0.2,1,0.4,1.4,0.7V38.8z M225.7,51.7
					c0,0.4,0.1,0.8,0.2,1.1c0.2,0.4,0.4,0.7,0.6,0.9c0.3,0.3,0.6,0.5,0.9,0.6c0.4,0.2,0.7,0.2,1.2,0.2c0.4,0,0.8-0.1,1.1-0.2
					c0.4-0.2,0.7-0.4,0.9-0.6c0.3-0.3,0.5-0.6,0.6-0.9c0.2-0.4,0.2-0.7,0.2-1.1v-4.1c0-0.4-0.1-0.8-0.2-1.1
					c-0.2-0.4-0.4-0.7-0.6-0.9c-0.3-0.3-0.6-0.5-0.9-0.6c-0.4-0.2-0.7-0.2-1.2-0.2c-0.4,0-0.8,0.1-1.1,0.2c-0.4,0.2-0.7,0.4-0.9,0.6
					c-0.3,0.3-0.5,0.6-0.6,0.9c-0.2,0.4-0.2,0.7-0.2,1.1V51.7z"/>
				<path class="st0" d="M163.3,43.8c0-0.3,0.1-0.6,0.3-0.8c0.2-0.2,0.5-0.3,0.8-0.3c0.3,0,0.5,0.1,0.7,0.3c0.2,0.2,0.3,0.5,0.3,0.8
					v8c0,0.4,0.1,0.8,0.2,1.1c0.2,0.4,0.4,0.7,0.6,0.9c0.3,0.3,0.6,0.5,0.9,0.6c0.4,0.2,0.7,0.2,1.2,0.2c0.4,0,0.8-0.1,1.1-0.2
					c0.4-0.2,0.7-0.4,0.9-0.6c0.3-0.3,0.5-0.6,0.6-0.9c0.2-0.4,0.2-0.7,0.2-1.1v-8c0-0.3,0.1-0.6,0.3-0.8c0.2-0.2,0.5-0.3,0.8-0.3
					c0.3,0,0.5,0.1,0.7,0.3c0.2,0.2,0.3,0.5,0.3,0.8v8c0,0.7-0.1,1.4-0.4,2c-0.3,0.6-0.6,1.2-1.1,1.6c-0.5,0.5-1,0.8-1.6,1.1
					c-0.6,0.3-1.3,0.4-2,0.4c-0.7,0-1.4-0.1-2-0.4c-0.6-0.3-1.2-0.6-1.6-1.1c-0.5-0.5-0.8-1-1.1-1.6c-0.3-0.6-0.4-1.3-0.4-2V43.8z"
					/>
				<path class="st0" d="M187.3,47.2h-4.5c-0.6,0-1.1,0.5-1.1,1c0,0.6,0.5,1.1,1.1,1.1h3.6V51c0,2.3-2.1,4-4.3,4
					c-2.4,0-4.5-1.7-4.5-4.5v-6.4c0-2.6,2-4.5,4.4-4.5c2,0,3.6,1.4,4.2,3.1c0.2,0.4,0.5,0.6,1,0.6c0.8,0,1.4-0.7,1-1.6
					c-0.7-2.1-2.8-4.2-6.1-4.2c-3.9,0-6.6,3-6.6,6.5v6.7c0,3.5,2.8,6.6,6.6,6.6c3.5,0,6.4-2.7,6.4-5.8v-3.2
					C188.4,47.6,187.9,47.2,187.3,47.2z"/>
			</g>
		</g>
		<path class="st0" d="M231.6,43.8c0-0.3,0.1-0.6,0.3-0.8c0.2-0.2,0.5-0.3,0.8-0.3c0.3,0,0.5,0.1,0.7,0.3c0.2,0.2,0.3,0.5,0.3,0.8
			v11.8c0,0.3-0.1,0.6-0.3,0.8c-0.2,0.2-0.5,0.3-0.8,0.3c-0.3,0-0.5-0.1-0.7-0.3c-0.2-0.2-0.3-0.5-0.3-0.8V43.8z"/>
		<g>
			<path class="st0" d="M100.1,39.5c0-0.3,0.1-0.5,0.3-0.7c0.2-0.2,0.5-0.3,0.7-0.3h4.2h0c0.9,0,1.7,0.2,2.5,0.5
				c0.8,0.3,1.5,0.8,2.1,1.4c0.6,0.6,1.1,1.3,1.4,2.1c0.3,0.8,0.5,1.6,0.5,2.5c0,0.9-0.2,1.7-0.5,2.5c-0.3,0.8-0.8,1.5-1.4,2.1
				c-0.6,0.6-1.3,1.1-2.1,1.4c-0.8,0.3-1.7,0.5-2.6,0.5h-3.2v4.2c0,0.3-0.1,0.5-0.3,0.7c-0.2,0.2-0.5,0.3-0.7,0.3
				c-0.3,0-0.5-0.1-0.7-0.3c-0.2-0.2-0.3-0.5-0.3-0.7V39.5z M102.2,40.6v8.8h3.2c0.6,0,1.2-0.1,1.8-0.3c0.5-0.2,1-0.5,1.4-0.9
				c0.4-0.4,0.7-0.9,1-1.4c0.2-0.5,0.3-1.1,0.3-1.7c0-0.6-0.1-1.2-0.4-1.7c-0.2-0.5-0.6-1-1-1.4c-0.4-0.4-0.9-0.7-1.4-0.9
				c-0.5-0.2-1.1-0.3-1.7-0.3H102.2z"/>
		</g>
	</g>
	
		<linearGradient id="SVGID_00000043425538571902189420000007396345119844798392_" gradientUnits="userSpaceOnUse" x1="76.0772" y1="38.0888" x2="76.1102" y2="65.6855">
		<stop  offset="0" style="stop-color:#41B5E8"/>
		<stop  offset="0.5" style="stop-color:#6A53A3"/>
		<stop  offset="1" style="stop-color:#E72E8A"/>
	</linearGradient>
	<path style="fill:url(#SVGID_00000043425538571902189420000007396345119844798392_);" d="M79.2,57.4v2.2c0,1.7-1.4,3.1-3.1,3.1
		c-0.6,0-1.1-0.1-1.6-0.4c-0.5-0.3-0.7-0.9-0.4-1.5c0.3-0.5,0.9-0.7,1.5-0.4c0.2,0.1,0.3,0.1,0.5,0.1c0.5,0,1-0.4,1-1v-2.2
		c0-0.6,0.5-1.1,1.1-1.1C78.7,56.3,79.2,56.8,79.2,57.4z M72,61.6c-0.3-0.5-0.9-0.7-1.4-0.5c-0.5,0.3-0.7,0.9-0.5,1.4
		c1.2,2.2,3.4,3.6,5.9,3.6c3.7,0,6.7-3,6.7-6.7v-2.2c0-0.6-0.5-1.1-1.1-1.1c-0.6,0-1.1,0.5-1.1,1.1v2.2c0,2.5-2,4.5-4.5,4.5
		C74.4,64.1,72.8,63.2,72,61.6z M75.8,26.4c-5.5,0.2-9.9,4.8-9.9,10.4v22.8c0,2.8,1.1,5.4,3.1,7.3c1.9,1.9,4.4,2.9,7.1,2.9
		c0.1,0,0.2,0,0.3,0c5.5-0.2,9.9-4.8,9.9-10.4v-1.7c0-2.7-2.2-4.9-4.9-4.9h-3.3c-0.6,0-1.1,0.5-1.1,1.1c0,0.6,0.5,1.1,1.1,1.1h3.3
		c1.5,0,2.7,1.2,2.7,2.7v1.7c0,4.4-3.5,8.2-7.9,8.3c-2.2,0.1-4.3-0.7-5.9-2.3c-1.6-1.5-2.5-3.6-2.5-5.8V36.8c0-4.4,3.5-8.2,7.9-8.3
		c2.2-0.1,4.3,0.7,5.9,2.3c1.6,1.5,2.5,3.6,2.5,5.8V50c0,0.6,0.5,1.1,1.1,1.1s1.1-0.5,1.1-1.1V36.6c0-2.8-1.1-5.4-3.1-7.3
		C81.2,27.3,78.6,26.3,75.8,26.4z M82.8,44.6v-8c0-3.7-3-6.7-6.7-6.7c-3.7,0-6.7,3-6.7,6.7v1.2c0,0.6,0.5,1.1,1.1,1.1
		s1.1-0.5,1.1-1.1v-1.2c0-2.5,2-4.5,4.5-4.5c2.5,0,4.5,2,4.5,4.5v8c0,2.5-2,4.5-4.5,4.5c-0.6,0-1.1-0.1-1.7-0.3
		c-0.3-0.1-0.7-0.1-1,0.1c-0.3,0.2-0.5,0.5-0.5,0.9v7.3c0,0.4-0.3,0.7-0.7,0.7c-0.4,0-0.7-0.3-0.7-0.7V41.5c0-0.6-0.5-1.1-1.1-1.1
		s-1.1,0.5-1.1,1.1v15.7c0,1.6,1.3,2.8,2.8,2.8c1.6,0,2.8-1.3,2.8-2.8l0-5.9c0.3,0,0.7,0.1,1,0.1C79.8,51.3,82.8,48.3,82.8,44.6z
		 M89.9,36.8v16.8v0.3v5.6c0,3.7-1.5,7.2-4.2,9.9c-2.6,2.5-6,3.9-9.6,3.9c-0.1,0-0.2,0-0.3,0c-7.4-0.2-13.5-6.5-13.5-14V36.6
		c0-3.7,1.5-7.2,4.2-9.9c2.7-2.6,6.2-4,10-3.9C83.8,23,89.9,29.3,89.9,36.8z M87.8,53.9v-0.3V36.8c0-6.4-5.1-11.8-11.4-11.9
		c-3.2-0.1-6.2,1.1-8.4,3.3c-2.3,2.2-3.5,5.2-3.5,8.3v22.7c0,6.4,5.1,11.8,11.4,11.9c3.2,0.1,6.2-1.1,8.4-3.3
		c2.3-2.2,3.5-5.2,3.5-8.3V53.9z M73,44.6v-8c0-1.7,1.4-3.1,3.1-3.1c1.7,0,3.1,1.4,3.1,3.1v8c0,1.7-1.4,3.1-3.1,3.1
		C74.4,47.7,73,46.3,73,44.6z M75.1,44.6c0,0.5,0.4,1,1,1c0.5,0,1-0.4,1-1v-8c0-0.5-0.4-1-1-1c-0.5,0-1,0.4-1,1V44.6z"/>
	<g>
		<path class="st0" d="M235.2,38.2h-0.4v-0.3h1.1v0.3h-0.4v1.2h-0.3V38.2z"/>
		<path class="st0" d="M237.4,38.8c0-0.2,0-0.4,0-0.6h0c0,0.2-0.1,0.4-0.2,0.6l-0.2,0.6h-0.3l-0.2-0.6c0-0.2-0.1-0.4-0.1-0.6h0
			c0,0.2,0,0.4,0,0.6l0,0.6h-0.3l0.1-1.5h0.4l0.1,0.5c0,0.2,0.1,0.4,0.1,0.5h0c0-0.2,0.1-0.4,0.1-0.5l0.2-0.5h0.4l0.1,1.5h-0.3
			L237.4,38.8z"/>
	</g>
</g>
<g id="PG_x5F_Logo_x5F_W_00000116946231927614312850000010312438687022512544_">
	<path class="st0" d="M231.6,43.7c0-0.3,0.1-0.6,0.3-0.8c0.2-0.2,0.5-0.3,0.8-0.3c0.3,0,0.5,0.1,0.8,0.3c0.2,0.2,0.3,0.5,0.3,0.8
		v11.9c0,0.3-0.1,0.6-0.3,0.8c-0.2,0.2-0.5,0.3-0.8,0.3c-0.3,0-0.5-0.1-0.8-0.3c-0.2-0.2-0.3-0.5-0.3-0.8V43.7z"/>
	<g>
		<g>
			<g>
				<path class="st0" d="M171.4,62.5c-0.9,0.7-1.9,1-3.1,1c-0.7-0.1-1.2-0.1-1.6-0.3c-0.4-0.1-0.7-0.3-1.1-0.5
					c-0.3-0.2-0.5-0.5-0.5-0.9c0-0.3,0.1-0.6,0.3-0.8c0.2-0.2,0.5-0.3,0.8-0.3c0.2,0,0.5,0.1,0.6,0.2c0.5,0.3,1,0.4,1.5,0.4
					c0.4,0,0.8-0.1,1.1-0.2c0.3-0.2,0.7-0.4,0.9-0.6c0.3-0.3,0.5-0.5,0.6-0.9c0.2-0.3,0.2-0.7,0.3-1.1v-8.1c0-0.3,0.1-0.6,0.3-0.8
					c0.2-0.2,0.5-0.3,0.8-0.3c0.3,0,0.5,0.1,0.7,0.3c0.2,0.2,0.3,0.5,0.3,0.8c0,0,0,6.7,0,8.1C173.5,60.2,172.7,61.5,171.4,62.5z"/>
				<path class="st0" d="M123,38.8c0-0.3,0.1-0.6,0.3-0.8c0.2-0.2,0.5-0.3,0.8-0.3c0.3,0,0.5,0.1,0.7,0.3c0.2,0.2,0.3,0.5,0.3,0.8
					v0.8c0,0.3-0.1,0.6-0.3,0.8c-0.2,0.2-0.5,0.3-0.8,0.3c-0.3,0-0.5-0.1-0.7-0.3c-0.2-0.2-0.3-0.5-0.3-0.8V38.8z M123,43.8
					c0-0.3,0.1-0.6,0.3-0.8c0.2-0.2,0.5-0.3,0.8-0.3c0.3,0,0.5,0.1,0.7,0.3c0.2,0.2,0.3,0.5,0.3,0.8v11.8c0,0.3-0.1,0.6-0.3,0.8
					c-0.2,0.2-0.5,0.3-0.8,0.3c-0.3,0-0.5-0.1-0.7-0.3c-0.2-0.2-0.3-0.5-0.3-0.8V43.8z"/>
				<g>
					<path class="st0" d="M113.7,44.1c0-0.3,0.1-0.5,0.3-0.7c0.2-0.2,0.5-0.3,0.7-0.3c0.2,0,0.5,0.1,0.6,0.2
						c0.2,0.2,0.3,0.4,0.4,0.6c0.9-0.6,1.9-1,3-1c0.6,0.1,1.2,0.1,1.5,0.2c0.4,0.1,0.7,0.3,1,0.5c0.3,0.2,0.5,0.5,0.5,0.9
						c0,0.3-0.1,0.6-0.3,0.8c-0.2,0.2-0.5,0.3-0.7,0.3c-0.2,0-0.5-0.1-0.6-0.2c-0.5-0.3-0.9-0.4-1.5-0.4c-0.4,0-0.8,0.1-1.1,0.2
						c-0.3,0.1-0.6,0.3-0.9,0.6c-0.3,0.2-0.5,0.5-0.6,0.9c-0.1,0.3-0.2,0.7-0.2,1.1v7.9c0,0.3-0.1,0.5-0.3,0.7
						c-0.2,0.2-0.5,0.3-0.7,0.3c-0.3,0-0.5-0.1-0.7-0.3c-0.2-0.2-0.3-0.5-0.3-0.7v-8V44.1z"/>
				</g>
				<path class="st0" d="M126.6,44.2c-0.1-0.1-0.1-0.3-0.1-0.4c0-0.3,0.1-0.5,0.3-0.7c0.2-0.2,0.4-0.3,0.8-0.3
					c0.2,0,0.4,0.1,0.6,0.2c0.2,0.1,0.3,0.3,0.4,0.5l4.2,9.7l4.2-9.7c0.2-0.4,0.5-0.6,1-0.6c0.3,0,0.6,0.1,0.8,0.3
					c0.2,0.2,0.3,0.5,0.3,0.7c0,0.2,0,0.3-0.1,0.4l-5.1,12c-0.2,0.4-0.5,0.6-1,0.6c-0.5,0-0.8-0.2-1-0.6L126.6,44.2z"/>
				<path class="st0" d="M139.3,47.7c0-0.7,0.1-1.4,0.4-2c0.3-0.6,0.6-1.2,1.1-1.6c0.5-0.5,1-0.8,1.6-1.1c0.6-0.3,1.3-0.4,2-0.4
					c0.7,0,1.4,0.1,2,0.4c0.6,0.3,1.2,0.6,1.6,1.1c0.5,0.5,0.8,1,1.1,1.6c0.3,0.6,0.4,1.3,0.4,2v8c0,0.3-0.1,0.6-0.3,0.8
					c-0.2,0.2-0.5,0.3-0.7,0.3c-0.3,0-0.5-0.1-0.7-0.2c-0.2-0.2-0.3-0.4-0.4-0.6c-0.9,0.6-1.9,1-3,1c-0.7,0-1.4-0.1-2-0.4
					c-0.6-0.3-1.2-0.6-1.6-1.1c-0.5-0.5-0.8-1-1.1-1.6c-0.3-0.6-0.4-1.3-0.4-2V47.7z M141.4,51.7c0,0.4,0.1,0.8,0.2,1.1
					c0.2,0.4,0.4,0.7,0.6,0.9c0.3,0.3,0.6,0.5,0.9,0.6c0.4,0.2,0.7,0.2,1.1,0.2c0.4,0,0.8-0.1,1.1-0.2c0.4-0.1,0.7-0.3,0.9-0.6
					c0.3-0.3,0.5-0.5,0.6-0.9c0.2-0.3,0.2-0.7,0.3-1.1v-4.2c0-0.4-0.1-0.8-0.2-1.1c-0.2-0.4-0.4-0.7-0.6-0.9
					c-0.3-0.3-0.6-0.5-0.9-0.6c-0.4-0.2-0.7-0.2-1.1-0.2c-0.4,0-0.8,0.1-1.2,0.2c-0.4,0.2-0.7,0.4-0.9,0.6c-0.3,0.3-0.5,0.6-0.6,0.9
					c-0.2,0.4-0.2,0.7-0.2,1.1V51.7z"/>
				<path class="st0" d="M151.4,47.7c0-0.7,0.1-1.4,0.4-2c0.3-0.6,0.6-1.2,1.1-1.6c0.5-0.5,1-0.8,1.7-1.1c0.6-0.3,1.3-0.4,2-0.4
					c0.1,0,0.4,0,0.8,0.1c0.4,0,0.8,0.2,1.3,0.4c0.5,0.2,0.9,0.5,1.4,0.9c0.5,0.4,0.8,1,1.1,1.8c0.1,0.2,0.1,0.3,0.1,0.4
					c0,0.3-0.1,0.6-0.3,0.8c-0.2,0.2-0.5,0.3-0.8,0.3c-0.2,0-0.4-0.1-0.6-0.2c-0.2-0.1-0.3-0.3-0.4-0.5c-0.3-0.6-0.6-1-1.1-1.3
					c-0.5-0.3-1-0.5-1.6-0.5c-0.4,0-0.8,0.1-1.2,0.2c-0.4,0.2-0.7,0.4-0.9,0.6c-0.3,0.3-0.5,0.6-0.6,0.9c-0.2,0.4-0.2,0.7-0.2,1.1
					v4.1c0,0.4,0.1,0.8,0.2,1.1c0.2,0.4,0.4,0.7,0.6,0.9c0.3,0.3,0.6,0.5,0.9,0.6c0.4,0.2,0.7,0.2,1.1,0.2c0.6,0,1.1-0.2,1.6-0.5
					c0.5-0.3,0.9-0.8,1.1-1.3c0.1-0.2,0.2-0.4,0.4-0.5c0.2-0.1,0.4-0.2,0.6-0.2c0.3,0,0.6,0.1,0.8,0.3c0.2,0.2,0.3,0.5,0.3,0.7
					c0,0.1,0,0.3-0.1,0.4c-0.4,0.8-0.8,1.5-1.4,1.9c-0.5,0.4-1,0.7-1.5,0.9c-0.5,0.2-0.9,0.3-1.3,0.3c-0.3,0-0.5,0-0.5,0
					c-0.7,0-1.4-0.1-2-0.4c-0.6-0.3-1.2-0.6-1.6-1.1c-0.5-0.5-0.8-1-1.1-1.6c-0.3-0.6-0.4-1.3-0.4-2V47.7z"/>
				<path class="st0" d="M190.3,43.8c0-0.3,0.1-0.6,0.3-0.8c0.2-0.2,0.5-0.3,0.8-0.3c0.3,0,0.5,0.1,0.7,0.3c0.2,0.2,0.3,0.5,0.3,0.8
					v8c0,0.4,0.1,0.8,0.2,1.1c0.2,0.4,0.4,0.7,0.6,0.9c0.3,0.3,0.6,0.5,0.9,0.6c0.4,0.2,0.7,0.2,1.2,0.2c0.4,0,0.8-0.1,1.1-0.2
					c0.4-0.2,0.7-0.4,0.9-0.6c0.3-0.3,0.5-0.6,0.6-0.9c0.2-0.4,0.2-0.7,0.2-1.1v-8c0-0.3,0.1-0.6,0.3-0.8c0.2-0.2,0.5-0.3,0.8-0.3
					c0.3,0,0.5,0.1,0.7,0.3c0.2,0.2,0.3,0.5,0.3,0.8v8c0,0.7-0.1,1.4-0.4,2c-0.3,0.6-0.6,1.2-1.1,1.6c-0.5,0.5-1,0.8-1.6,1.1
					c-0.6,0.3-1.3,0.4-2,0.4c-0.7,0-1.4-0.1-2-0.4c-0.6-0.3-1.2-0.6-1.6-1.1c-0.5-0.5-0.8-1-1.1-1.6c-0.3-0.6-0.4-1.3-0.4-2V43.8z"
					/>
				<path class="st0" d="M202.5,47.7c0-0.7,0.1-1.4,0.4-2c0.3-0.6,0.6-1.2,1.1-1.6c0.5-0.5,1-0.8,1.6-1.1c0.6-0.3,1.3-0.4,2-0.4
					c0.7,0,1.4,0.1,2,0.4c0.6,0.3,1.2,0.6,1.6,1.1c0.5,0.5,0.8,1,1.1,1.6c0.3,0.6,0.4,1.3,0.4,2v8c0,0.3-0.1,0.6-0.3,0.8
					c-0.2,0.2-0.5,0.3-0.7,0.3c-0.3,0-0.5-0.1-0.7-0.2c-0.2-0.2-0.3-0.4-0.4-0.6c-0.9,0.6-1.9,1-3,1c-0.7,0-1.4-0.1-2-0.4
					c-0.6-0.3-1.2-0.6-1.6-1.1c-0.5-0.5-0.8-1-1.1-1.6c-0.3-0.6-0.4-1.3-0.4-2V47.7z M204.6,51.7c0,0.4,0.1,0.8,0.2,1.1
					c0.2,0.4,0.4,0.7,0.6,0.9c0.3,0.3,0.6,0.5,0.9,0.6c0.4,0.2,0.7,0.2,1.1,0.2c0.4,0,0.8-0.1,1.1-0.2c0.4-0.1,0.7-0.3,0.9-0.6
					c0.3-0.3,0.5-0.5,0.6-0.9c0.2-0.3,0.2-0.7,0.3-1.1v-4.2c0-0.4-0.1-0.8-0.2-1.1c-0.2-0.4-0.4-0.7-0.6-0.9
					c-0.3-0.3-0.6-0.5-0.9-0.6c-0.4-0.2-0.7-0.2-1.1-0.2c-0.4,0-0.8,0.1-1.2,0.2c-0.4,0.2-0.7,0.4-0.9,0.6c-0.3,0.3-0.5,0.6-0.6,0.9
					c-0.2,0.4-0.2,0.7-0.2,1.1V51.7z"/>
				<g>
					<path class="st0" d="M214.8,44.1c0-0.3,0.1-0.5,0.3-0.7c0.2-0.2,0.5-0.3,0.7-0.3c0.2,0,0.5,0.1,0.6,0.2
						c0.2,0.2,0.3,0.4,0.4,0.6c0.9-0.6,1.9-1,3-1c0.6,0.1,1.2,0.1,1.5,0.2c0.4,0.1,0.7,0.3,1,0.5c0.3,0.2,0.5,0.5,0.5,0.9
						c0,0.3-0.1,0.6-0.3,0.8c-0.2,0.2-0.5,0.3-0.7,0.3c-0.2,0-0.5-0.1-0.6-0.2c-0.5-0.3-0.9-0.4-1.5-0.4c-0.4,0-0.8,0.1-1.1,0.2
						c-0.3,0.1-0.6,0.3-0.9,0.6c-0.3,0.2-0.5,0.5-0.6,0.9c-0.1,0.3-0.2,0.7-0.2,1.1v7.9c0,0.3-0.1,0.5-0.3,0.7
						c-0.2,0.2-0.5,0.3-0.7,0.3c-0.3,0-0.5-0.1-0.7-0.3c-0.2-0.2-0.3-0.5-0.3-0.7v-8V44.1z"/>
				</g>
				<path class="st0" d="M231.6,38.8c0-0.3,0.1-0.6,0.3-0.8c0.2-0.2,0.5-0.3,0.8-0.3c0.3,0,0.5,0.1,0.7,0.3c0.2,0.2,0.3,0.5,0.3,0.8
					v12.9c0,0.7-0.1,1.4-0.4,2c-0.3,0.6-0.6,1.2-1.1,1.6c-0.5,0.5-1,0.8-1.6,1.1c-0.6,0.3-1.3,0.4-2,0.4c-0.7,0-1.4-0.1-2-0.4
					c-0.6-0.3-1.2-0.6-1.6-1.1c-0.5-0.5-0.8-1-1.1-1.6c-0.3-0.6-0.4-1.3-0.4-2v-4.1c0-0.7,0.1-1.4,0.4-2c0.3-0.6,0.6-1.2,1.1-1.6
					c0.5-0.5,1-0.8,1.6-1.1c0.6-0.3,1.3-0.4,2-0.4c0.5,0,1.1,0.1,1.6,0.3c0.5,0.2,1,0.4,1.4,0.7V38.8z M225.7,51.7
					c0,0.4,0.1,0.8,0.2,1.1c0.2,0.4,0.4,0.7,0.6,0.9c0.3,0.3,0.6,0.5,0.9,0.6c0.4,0.2,0.7,0.2,1.2,0.2c0.4,0,0.8-0.1,1.1-0.2
					c0.4-0.2,0.7-0.4,0.9-0.6c0.3-0.3,0.5-0.6,0.6-0.9c0.2-0.4,0.2-0.7,0.2-1.1v-4.1c0-0.4-0.1-0.8-0.2-1.1
					c-0.2-0.4-0.4-0.7-0.6-0.9c-0.3-0.3-0.6-0.5-0.9-0.6c-0.4-0.2-0.7-0.2-1.2-0.2c-0.4,0-0.8,0.1-1.1,0.2c-0.4,0.2-0.7,0.4-0.9,0.6
					c-0.3,0.3-0.5,0.6-0.6,0.9c-0.2,0.4-0.2,0.7-0.2,1.1V51.7z"/>
				<path class="st0" d="M163.3,43.8c0-0.3,0.1-0.6,0.3-0.8c0.2-0.2,0.5-0.3,0.8-0.3c0.3,0,0.5,0.1,0.7,0.3c0.2,0.2,0.3,0.5,0.3,0.8
					v8c0,0.4,0.1,0.8,0.2,1.1c0.2,0.4,0.4,0.7,0.6,0.9c0.3,0.3,0.6,0.5,0.9,0.6c0.4,0.2,0.7,0.2,1.2,0.2c0.4,0,0.8-0.1,1.1-0.2
					c0.4-0.2,0.7-0.4,0.9-0.6c0.3-0.3,0.5-0.6,0.6-0.9c0.2-0.4,0.2-0.7,0.2-1.1v-8c0-0.3,0.1-0.6,0.3-0.8c0.2-0.2,0.5-0.3,0.8-0.3
					c0.3,0,0.5,0.1,0.7,0.3c0.2,0.2,0.3,0.5,0.3,0.8v8c0,0.7-0.1,1.4-0.4,2c-0.3,0.6-0.6,1.2-1.1,1.6c-0.5,0.5-1,0.8-1.6,1.1
					c-0.6,0.3-1.3,0.4-2,0.4c-0.7,0-1.4-0.1-2-0.4c-0.6-0.3-1.2-0.6-1.6-1.1c-0.5-0.5-0.8-1-1.1-1.6c-0.3-0.6-0.4-1.3-0.4-2V43.8z"
					/>
				<path class="st0" d="M187.3,47.2h-4.5c-0.6,0-1.1,0.5-1.1,1c0,0.6,0.5,1.1,1.1,1.1h3.6V51c0,2.3-2.1,4-4.3,4
					c-2.4,0-4.5-1.7-4.5-4.5v-6.4c0-2.6,2-4.5,4.4-4.5c2,0,3.6,1.4,4.2,3.1c0.2,0.4,0.5,0.6,1,0.6c0.8,0,1.4-0.7,1-1.6
					c-0.7-2.1-2.8-4.2-6.1-4.2c-3.9,0-6.6,3-6.6,6.5v6.7c0,3.5,2.8,6.6,6.6,6.6c3.5,0,6.4-2.7,6.4-5.8v-3.2
					C188.4,47.6,187.9,47.2,187.3,47.2z"/>
			</g>
		</g>
		<path class="st0" d="M231.6,43.8c0-0.3,0.1-0.6,0.3-0.8c0.2-0.2,0.5-0.3,0.8-0.3c0.3,0,0.5,0.1,0.7,0.3c0.2,0.2,0.3,0.5,0.3,0.8
			v11.8c0,0.3-0.1,0.6-0.3,0.8c-0.2,0.2-0.5,0.3-0.8,0.3c-0.3,0-0.5-0.1-0.7-0.3c-0.2-0.2-0.3-0.5-0.3-0.8V43.8z"/>
		<g>
			<path class="st0" d="M100.1,39.5c0-0.3,0.1-0.5,0.3-0.7c0.2-0.2,0.5-0.3,0.7-0.3h4.2h0c0.9,0,1.7,0.2,2.5,0.5
				c0.8,0.3,1.5,0.8,2.1,1.4c0.6,0.6,1.1,1.3,1.4,2.1c0.3,0.8,0.5,1.6,0.5,2.5c0,0.9-0.2,1.7-0.5,2.5c-0.3,0.8-0.8,1.5-1.4,2.1
				c-0.6,0.6-1.3,1.1-2.1,1.4c-0.8,0.3-1.7,0.5-2.6,0.5h-3.2v4.2c0,0.3-0.1,0.5-0.3,0.7c-0.2,0.2-0.5,0.3-0.7,0.3
				c-0.3,0-0.5-0.1-0.7-0.3c-0.2-0.2-0.3-0.5-0.3-0.7V39.5z M102.2,40.6v8.8h3.2c0.6,0,1.2-0.1,1.8-0.3c0.5-0.2,1-0.5,1.4-0.9
				c0.4-0.4,0.7-0.9,1-1.4c0.2-0.5,0.3-1.1,0.3-1.7c0-0.6-0.1-1.2-0.4-1.7c-0.2-0.5-0.6-1-1-1.4c-0.4-0.4-0.9-0.7-1.4-0.9
				c-0.5-0.2-1.1-0.3-1.7-0.3H102.2z"/>
		</g>
	</g>
	
		<linearGradient id="SVGID_00000060748328319284857750000011633942471272111526_" gradientUnits="userSpaceOnUse" x1="76.0772" y1="38.0888" x2="76.1102" y2="65.6855">
		<stop  offset="0" style="stop-color:#41B5E8"/>
		<stop  offset="0.5" style="stop-color:#6A53A3"/>
		<stop  offset="1" style="stop-color:#E72E8A"/>
	</linearGradient>
	<path style="fill:url(#SVGID_00000060748328319284857750000011633942471272111526_);" d="M79.2,57.4v2.2c0,1.7-1.4,3.1-3.1,3.1
		c-0.6,0-1.1-0.1-1.6-0.4c-0.5-0.3-0.7-0.9-0.4-1.5c0.3-0.5,0.9-0.7,1.5-0.4c0.2,0.1,0.3,0.1,0.5,0.1c0.5,0,1-0.4,1-1v-2.2
		c0-0.6,0.5-1.1,1.1-1.1C78.7,56.3,79.2,56.8,79.2,57.4z M72,61.6c-0.3-0.5-0.9-0.7-1.4-0.5c-0.5,0.3-0.7,0.9-0.5,1.4
		c1.2,2.2,3.4,3.6,5.9,3.6c3.7,0,6.7-3,6.7-6.7v-2.2c0-0.6-0.5-1.1-1.1-1.1c-0.6,0-1.1,0.5-1.1,1.1v2.2c0,2.5-2,4.5-4.5,4.5
		C74.4,64.1,72.8,63.2,72,61.6z M75.8,26.4c-5.5,0.2-9.9,4.8-9.9,10.4v22.8c0,2.8,1.1,5.4,3.1,7.3c1.9,1.9,4.4,2.9,7.1,2.9
		c0.1,0,0.2,0,0.3,0c5.5-0.2,9.9-4.8,9.9-10.4v-1.7c0-2.7-2.2-4.9-4.9-4.9h-3.3c-0.6,0-1.1,0.5-1.1,1.1c0,0.6,0.5,1.1,1.1,1.1h3.3
		c1.5,0,2.7,1.2,2.7,2.7v1.7c0,4.4-3.5,8.2-7.9,8.3c-2.2,0.1-4.3-0.7-5.9-2.3c-1.6-1.5-2.5-3.6-2.5-5.8V36.8c0-4.4,3.5-8.2,7.9-8.3
		c2.2-0.1,4.3,0.7,5.9,2.3c1.6,1.5,2.5,3.6,2.5,5.8V50c0,0.6,0.5,1.1,1.1,1.1s1.1-0.5,1.1-1.1V36.6c0-2.8-1.1-5.4-3.1-7.3
		C81.2,27.3,78.6,26.3,75.8,26.4z M82.8,44.6v-8c0-3.7-3-6.7-6.7-6.7c-3.7,0-6.7,3-6.7,6.7v1.2c0,0.6,0.5,1.1,1.1,1.1
		s1.1-0.5,1.1-1.1v-1.2c0-2.5,2-4.5,4.5-4.5c2.5,0,4.5,2,4.5,4.5v8c0,2.5-2,4.5-4.5,4.5c-0.6,0-1.1-0.1-1.7-0.3
		c-0.3-0.1-0.7-0.1-1,0.1c-0.3,0.2-0.5,0.5-0.5,0.9v7.3c0,0.4-0.3,0.7-0.7,0.7c-0.4,0-0.7-0.3-0.7-0.7V41.5c0-0.6-0.5-1.1-1.1-1.1
		s-1.1,0.5-1.1,1.1v15.7c0,1.6,1.3,2.8,2.8,2.8c1.6,0,2.8-1.3,2.8-2.8l0-5.9c0.3,0,0.7,0.1,1,0.1C79.8,51.3,82.8,48.3,82.8,44.6z
		 M89.9,36.8v16.8v0.3v5.6c0,3.7-1.5,7.2-4.2,9.9c-2.6,2.5-6,3.9-9.6,3.9c-0.1,0-0.2,0-0.3,0c-7.4-0.2-13.5-6.5-13.5-14V36.6
		c0-3.7,1.5-7.2,4.2-9.9c2.7-2.6,6.2-4,10-3.9C83.8,23,89.9,29.3,89.9,36.8z M87.8,53.9v-0.3V36.8c0-6.4-5.1-11.8-11.4-11.9
		c-3.2-0.1-6.2,1.1-8.4,3.3c-2.3,2.2-3.5,5.2-3.5,8.3v22.7c0,6.4,5.1,11.8,11.4,11.9c3.2,0.1,6.2-1.1,8.4-3.3
		c2.3-2.2,3.5-5.2,3.5-8.3V53.9z M73,44.6v-8c0-1.7,1.4-3.1,3.1-3.1c1.7,0,3.1,1.4,3.1,3.1v8c0,1.7-1.4,3.1-3.1,3.1
		C74.4,47.7,73,46.3,73,44.6z M75.1,44.6c0,0.5,0.4,1,1,1c0.5,0,1-0.4,1-1v-8c0-0.5-0.4-1-1-1c-0.5,0-1,0.4-1,1V44.6z"/>
	<g>
		<path class="st0" d="M235.2,38.2h-0.4v-0.3h1.1v0.3h-0.4v1.2h-0.3V38.2z"/>
		<path class="st0" d="M237.4,38.8c0-0.2,0-0.4,0-0.6h0c0,0.2-0.1,0.4-0.2,0.6l-0.2,0.6h-0.3l-0.2-0.6c0-0.2-0.1-0.4-0.1-0.6h0
			c0,0.2,0,0.4,0,0.6l0,0.6h-0.3l0.1-1.5h0.4l0.1,0.5c0,0.2,0.1,0.4,0.1,0.5h0c0-0.2,0.1-0.4,0.1-0.5l0.2-0.5h0.4l0.1,1.5h-0.3
			L237.4,38.8z"/>
	</g>
</g>
<g>
	<g>
		<path class="st0" d="M171.4,62.5c-0.9,0.7-1.9,1-3.1,1c-0.7-0.1-1.2-0.1-1.6-0.3c-0.4-0.1-0.7-0.3-1.1-0.5
			c-0.3-0.2-0.5-0.5-0.5-0.9c0-0.3,0.1-0.6,0.3-0.8c0.2-0.2,0.5-0.3,0.8-0.3c0.2,0,0.5,0.1,0.6,0.2c0.5,0.3,1,0.4,1.5,0.4
			c0.4,0,0.8-0.1,1.1-0.2c0.3-0.2,0.7-0.4,0.9-0.6c0.3-0.3,0.5-0.5,0.6-0.9c0.2-0.3,0.2-0.7,0.3-1.1v-8.1c0-0.3,0.1-0.6,0.3-0.8
			c0.2-0.2,0.5-0.3,0.8-0.3c0.3,0,0.5,0.1,0.7,0.3c0.2,0.2,0.3,0.5,0.3,0.8c0,0,0,6.7,0,8.1C173.5,60.2,172.7,61.5,171.4,62.5z"/>
		<path class="st0" d="M123,38.8c0-0.3,0.1-0.6,0.3-0.8c0.2-0.2,0.5-0.3,0.8-0.3c0.3,0,0.5,0.1,0.7,0.3c0.2,0.2,0.3,0.5,0.3,0.8v0.8
			c0,0.3-0.1,0.6-0.3,0.8c-0.2,0.2-0.5,0.3-0.8,0.3c-0.3,0-0.5-0.1-0.7-0.3c-0.2-0.2-0.3-0.5-0.3-0.8V38.8z M123,43.8
			c0-0.3,0.1-0.6,0.3-0.8c0.2-0.2,0.5-0.3,0.8-0.3c0.3,0,0.5,0.1,0.7,0.3c0.2,0.2,0.3,0.5,0.3,0.8v11.8c0,0.3-0.1,0.6-0.3,0.8
			c-0.2,0.2-0.5,0.3-0.8,0.3c-0.3,0-0.5-0.1-0.7-0.3c-0.2-0.2-0.3-0.5-0.3-0.8V43.8z"/>
		<g>
			<path class="st0" d="M113.7,44.1c0-0.3,0.1-0.5,0.3-0.7c0.2-0.2,0.5-0.3,0.7-0.3c0.2,0,0.5,0.1,0.6,0.2c0.2,0.2,0.3,0.4,0.4,0.6
				c0.9-0.6,1.9-1,3-1c0.6,0.1,1.2,0.1,1.5,0.2c0.4,0.1,0.7,0.3,1,0.5c0.3,0.2,0.5,0.5,0.5,0.9c0,0.3-0.1,0.6-0.3,0.8
				c-0.2,0.2-0.5,0.3-0.7,0.3c-0.2,0-0.5-0.1-0.6-0.2c-0.5-0.3-0.9-0.4-1.5-0.4c-0.4,0-0.8,0.1-1.1,0.2c-0.3,0.1-0.6,0.3-0.9,0.6
				c-0.3,0.2-0.5,0.5-0.6,0.9c-0.1,0.3-0.2,0.7-0.2,1.1v7.9c0,0.3-0.1,0.5-0.3,0.7c-0.2,0.2-0.5,0.3-0.7,0.3c-0.3,0-0.5-0.1-0.7-0.3
				c-0.2-0.2-0.3-0.5-0.3-0.7v-8V44.1z"/>
		</g>
		<path class="st0" d="M126.6,44.2c-0.1-0.1-0.1-0.3-0.1-0.4c0-0.3,0.1-0.5,0.3-0.7c0.2-0.2,0.4-0.3,0.8-0.3c0.2,0,0.4,0.1,0.6,0.2
			c0.2,0.1,0.3,0.3,0.4,0.5l4.2,9.7l4.2-9.7c0.2-0.4,0.5-0.6,1-0.6c0.3,0,0.6,0.1,0.8,0.3c0.2,0.2,0.3,0.5,0.3,0.7
			c0,0.2,0,0.3-0.1,0.4l-5.1,12c-0.2,0.4-0.5,0.6-1,0.6c-0.5,0-0.8-0.2-1-0.6L126.6,44.2z"/>
		<path class="st0" d="M139.3,47.7c0-0.7,0.1-1.4,0.4-2c0.3-0.6,0.6-1.2,1.1-1.6c0.5-0.5,1-0.8,1.6-1.1c0.6-0.3,1.3-0.4,2-0.4
			c0.7,0,1.4,0.1,2,0.4c0.6,0.3,1.2,0.6,1.6,1.1c0.5,0.5,0.8,1,1.1,1.6c0.3,0.6,0.4,1.3,0.4,2v8c0,0.3-0.1,0.6-0.3,0.8
			c-0.2,0.2-0.5,0.3-0.7,0.3c-0.3,0-0.5-0.1-0.7-0.2c-0.2-0.2-0.3-0.4-0.4-0.6c-0.9,0.6-1.9,1-3,1c-0.7,0-1.4-0.1-2-0.4
			c-0.6-0.3-1.2-0.6-1.6-1.1c-0.5-0.5-0.8-1-1.1-1.6c-0.3-0.6-0.4-1.3-0.4-2V47.7z M141.4,51.7c0,0.4,0.1,0.8,0.2,1.1
			c0.2,0.4,0.4,0.7,0.6,0.9c0.3,0.3,0.6,0.5,0.9,0.6c0.4,0.2,0.7,0.2,1.1,0.2c0.4,0,0.8-0.1,1.1-0.2c0.4-0.1,0.7-0.3,0.9-0.6
			c0.3-0.3,0.5-0.5,0.6-0.9c0.2-0.3,0.2-0.7,0.3-1.1v-4.2c0-0.4-0.1-0.8-0.2-1.1c-0.2-0.4-0.4-0.7-0.6-0.9c-0.3-0.3-0.6-0.5-0.9-0.6
			c-0.4-0.2-0.7-0.2-1.1-0.2c-0.4,0-0.8,0.1-1.2,0.2c-0.4,0.2-0.7,0.4-0.9,0.6c-0.3,0.3-0.5,0.6-0.6,0.9c-0.2,0.4-0.2,0.7-0.2,1.1
			V51.7z"/>
		<path class="st0" d="M151.4,47.7c0-0.7,0.1-1.4,0.4-2c0.3-0.6,0.6-1.2,1.1-1.6c0.5-0.5,1-0.8,1.7-1.1c0.6-0.3,1.3-0.4,2-0.4
			c0.1,0,0.4,0,0.8,0.1c0.4,0,0.8,0.2,1.3,0.4c0.5,0.2,0.9,0.5,1.4,0.9c0.5,0.4,0.8,1,1.1,1.8c0.1,0.2,0.1,0.3,0.1,0.4
			c0,0.3-0.1,0.6-0.3,0.8c-0.2,0.2-0.5,0.3-0.8,0.3c-0.2,0-0.4-0.1-0.6-0.2c-0.2-0.1-0.3-0.3-0.4-0.5c-0.3-0.6-0.6-1-1.1-1.3
			c-0.5-0.3-1-0.5-1.6-0.5c-0.4,0-0.8,0.1-1.2,0.2c-0.4,0.2-0.7,0.4-0.9,0.6c-0.3,0.3-0.5,0.6-0.6,0.9c-0.2,0.4-0.2,0.7-0.2,1.1v4.1
			c0,0.4,0.1,0.8,0.2,1.1c0.2,0.4,0.4,0.7,0.6,0.9c0.3,0.3,0.6,0.5,0.9,0.6c0.4,0.2,0.7,0.2,1.1,0.2c0.6,0,1.1-0.2,1.6-0.5
			c0.5-0.3,0.9-0.8,1.1-1.3c0.1-0.2,0.2-0.4,0.4-0.5c0.2-0.1,0.4-0.2,0.6-0.2c0.3,0,0.6,0.1,0.8,0.3c0.2,0.2,0.3,0.5,0.3,0.7
			c0,0.1,0,0.3-0.1,0.4c-0.4,0.8-0.8,1.5-1.4,1.9c-0.5,0.4-1,0.7-1.5,0.9c-0.5,0.2-0.9,0.3-1.3,0.3c-0.3,0-0.5,0-0.5,0
			c-0.7,0-1.4-0.1-2-0.4c-0.6-0.3-1.2-0.6-1.6-1.1c-0.5-0.5-0.8-1-1.1-1.6c-0.3-0.6-0.4-1.3-0.4-2V47.7z"/>
		<path class="st0" d="M190.3,43.8c0-0.3,0.1-0.6,0.3-0.8c0.2-0.2,0.5-0.3,0.8-0.3c0.3,0,0.5,0.1,0.7,0.3c0.2,0.2,0.3,0.5,0.3,0.8v8
			c0,0.4,0.1,0.8,0.2,1.1c0.2,0.4,0.4,0.7,0.6,0.9c0.3,0.3,0.6,0.5,0.9,0.6c0.4,0.2,0.7,0.2,1.2,0.2c0.4,0,0.8-0.1,1.1-0.2
			c0.4-0.2,0.7-0.4,0.9-0.6c0.3-0.3,0.5-0.6,0.6-0.9c0.2-0.4,0.2-0.7,0.2-1.1v-8c0-0.3,0.1-0.6,0.3-0.8c0.2-0.2,0.5-0.3,0.8-0.3
			c0.3,0,0.5,0.1,0.7,0.3c0.2,0.2,0.3,0.5,0.3,0.8v8c0,0.7-0.1,1.4-0.4,2c-0.3,0.6-0.6,1.2-1.1,1.6c-0.5,0.5-1,0.8-1.6,1.1
			c-0.6,0.3-1.3,0.4-2,0.4c-0.7,0-1.4-0.1-2-0.4c-0.6-0.3-1.2-0.6-1.6-1.1c-0.5-0.5-0.8-1-1.1-1.6c-0.3-0.6-0.4-1.3-0.4-2V43.8z"/>
		<path class="st0" d="M202.5,47.7c0-0.7,0.1-1.4,0.4-2c0.3-0.6,0.6-1.2,1.1-1.6c0.5-0.5,1-0.8,1.6-1.1c0.6-0.3,1.3-0.4,2-0.4
			c0.7,0,1.4,0.1,2,0.4c0.6,0.3,1.2,0.6,1.6,1.1c0.5,0.5,0.8,1,1.1,1.6c0.3,0.6,0.4,1.3,0.4,2v8c0,0.3-0.1,0.6-0.3,0.8
			c-0.2,0.2-0.5,0.3-0.7,0.3c-0.3,0-0.5-0.1-0.7-0.2c-0.2-0.2-0.3-0.4-0.4-0.6c-0.9,0.6-1.9,1-3,1c-0.7,0-1.4-0.1-2-0.4
			c-0.6-0.3-1.2-0.6-1.6-1.1c-0.5-0.5-0.8-1-1.1-1.6c-0.3-0.6-0.4-1.3-0.4-2V47.7z M204.6,51.7c0,0.4,0.1,0.8,0.2,1.1
			c0.2,0.4,0.4,0.7,0.6,0.9c0.3,0.3,0.6,0.5,0.9,0.6c0.4,0.2,0.7,0.2,1.1,0.2c0.4,0,0.8-0.1,1.1-0.2c0.4-0.1,0.7-0.3,0.9-0.6
			c0.3-0.3,0.5-0.5,0.6-0.9c0.2-0.3,0.2-0.7,0.3-1.1v-4.2c0-0.4-0.1-0.8-0.2-1.1c-0.2-0.4-0.4-0.7-0.6-0.9c-0.3-0.3-0.6-0.5-0.9-0.6
			c-0.4-0.2-0.7-0.2-1.1-0.2c-0.4,0-0.8,0.1-1.2,0.2c-0.4,0.2-0.7,0.4-0.9,0.6c-0.3,0.3-0.5,0.6-0.6,0.9c-0.2,0.4-0.2,0.7-0.2,1.1
			V51.7z"/>
		<g>
			<path class="st0" d="M214.8,44.1c0-0.3,0.1-0.5,0.3-0.7c0.2-0.2,0.5-0.3,0.7-0.3c0.2,0,0.5,0.1,0.6,0.2c0.2,0.2,0.3,0.4,0.4,0.6
				c0.9-0.6,1.9-1,3-1c0.6,0.1,1.2,0.1,1.5,0.2c0.4,0.1,0.7,0.3,1,0.5c0.3,0.2,0.5,0.5,0.5,0.9c0,0.3-0.1,0.6-0.3,0.8
				c-0.2,0.2-0.5,0.3-0.7,0.3c-0.2,0-0.5-0.1-0.6-0.2c-0.5-0.3-0.9-0.4-1.5-0.4c-0.4,0-0.8,0.1-1.1,0.2c-0.3,0.1-0.6,0.3-0.9,0.6
				c-0.3,0.2-0.5,0.5-0.6,0.9c-0.1,0.3-0.2,0.7-0.2,1.1v7.9c0,0.3-0.1,0.5-0.3,0.7c-0.2,0.2-0.5,0.3-0.7,0.3c-0.3,0-0.5-0.1-0.7-0.3
				c-0.2-0.2-0.3-0.5-0.3-0.7v-8V44.1z"/>
		</g>
		<path class="st0" d="M231.6,38.8c0-0.3,0.1-0.6,0.3-0.8c0.2-0.2,0.5-0.3,0.8-0.3c0.3,0,0.5,0.1,0.7,0.3c0.2,0.2,0.3,0.5,0.3,0.8
			v12.9c0,0.7-0.1,1.4-0.4,2c-0.3,0.6-0.6,1.2-1.1,1.6c-0.5,0.5-1,0.8-1.6,1.1c-0.6,0.3-1.3,0.4-2,0.4c-0.7,0-1.4-0.1-2-0.4
			c-0.6-0.3-1.2-0.6-1.6-1.1c-0.5-0.5-0.8-1-1.1-1.6c-0.3-0.6-0.4-1.3-0.4-2v-4.1c0-0.7,0.1-1.4,0.4-2c0.3-0.6,0.6-1.2,1.1-1.6
			c0.5-0.5,1-0.8,1.6-1.1c0.6-0.3,1.3-0.4,2-0.4c0.5,0,1.1,0.1,1.6,0.3c0.5,0.2,1,0.4,1.4,0.7V38.8z M225.7,51.7
			c0,0.4,0.1,0.8,0.2,1.1c0.2,0.4,0.4,0.7,0.6,0.9c0.3,0.3,0.6,0.5,0.9,0.6c0.4,0.2,0.7,0.2,1.2,0.2c0.4,0,0.8-0.1,1.1-0.2
			c0.4-0.2,0.7-0.4,0.9-0.6c0.3-0.3,0.5-0.6,0.6-0.9c0.2-0.4,0.2-0.7,0.2-1.1v-4.1c0-0.4-0.1-0.8-0.2-1.1c-0.2-0.4-0.4-0.7-0.6-0.9
			c-0.3-0.3-0.6-0.5-0.9-0.6c-0.4-0.2-0.7-0.2-1.2-0.2c-0.4,0-0.8,0.1-1.1,0.2c-0.4,0.2-0.7,0.4-0.9,0.6c-0.3,0.3-0.5,0.6-0.6,0.9
			c-0.2,0.4-0.2,0.7-0.2,1.1V51.7z"/>
		<path class="st0" d="M163.3,43.8c0-0.3,0.1-0.6,0.3-0.8c0.2-0.2,0.5-0.3,0.8-0.3c0.3,0,0.5,0.1,0.7,0.3c0.2,0.2,0.3,0.5,0.3,0.8v8
			c0,0.4,0.1,0.8,0.2,1.1c0.2,0.4,0.4,0.7,0.6,0.9c0.3,0.3,0.6,0.5,0.9,0.6c0.4,0.2,0.7,0.2,1.2,0.2c0.4,0,0.8-0.1,1.1-0.2
			c0.4-0.2,0.7-0.4,0.9-0.6c0.3-0.3,0.5-0.6,0.6-0.9c0.2-0.4,0.2-0.7,0.2-1.1v-8c0-0.3,0.1-0.6,0.3-0.8c0.2-0.2,0.5-0.3,0.8-0.3
			c0.3,0,0.5,0.1,0.7,0.3c0.2,0.2,0.3,0.5,0.3,0.8v8c0,0.7-0.1,1.4-0.4,2c-0.3,0.6-0.6,1.2-1.1,1.6c-0.5,0.5-1,0.8-1.6,1.1
			c-0.6,0.3-1.3,0.4-2,0.4c-0.7,0-1.4-0.1-2-0.4c-0.6-0.3-1.2-0.6-1.6-1.1c-0.5-0.5-0.8-1-1.1-1.6c-0.3-0.6-0.4-1.3-0.4-2V43.8z"/>
		<path class="st0" d="M187.3,47.2h-4.5c-0.6,0-1.1,0.5-1.1,1c0,0.6,0.5,1.1,1.1,1.1h3.6V51c0,2.3-2.1,4-4.3,4
			c-2.4,0-4.5-1.7-4.5-4.5v-6.4c0-2.6,2-4.5,4.4-4.5c2,0,3.6,1.4,4.2,3.1c0.2,0.4,0.5,0.6,1,0.6c0.8,0,1.4-0.7,1-1.6
			c-0.7-2.1-2.8-4.2-6.1-4.2c-3.9,0-6.6,3-6.6,6.5v6.7c0,3.5,2.8,6.6,6.6,6.6c3.5,0,6.4-2.7,6.4-5.8v-3.2
			C188.4,47.6,187.9,47.2,187.3,47.2z"/>
	</g>
</g>
<path class="st0" d="M231.6,43.8c0-0.3,0.1-0.6,0.3-0.8c0.2-0.2,0.5-0.3,0.8-0.3c0.3,0,0.5,0.1,0.7,0.3c0.2,0.2,0.3,0.5,0.3,0.8
	v11.8c0,0.3-0.1,0.6-0.3,0.8c-0.2,0.2-0.5,0.3-0.8,0.3c-0.3,0-0.5-0.1-0.7-0.3c-0.2-0.2-0.3-0.5-0.3-0.8V43.8z"/>
<g>
	<path class="st0" d="M100.1,39.5c0-0.3,0.1-0.5,0.3-0.7c0.2-0.2,0.5-0.3,0.7-0.3h4.2h0c0.9,0,1.7,0.2,2.5,0.5
		c0.8,0.3,1.5,0.8,2.1,1.4c0.6,0.6,1.1,1.3,1.4,2.1c0.3,0.8,0.5,1.6,0.5,2.5c0,0.9-0.2,1.7-0.5,2.5c-0.3,0.8-0.8,1.5-1.4,2.1
		c-0.6,0.6-1.3,1.1-2.1,1.4c-0.8,0.3-1.7,0.5-2.6,0.5h-3.2v4.2c0,0.3-0.1,0.5-0.3,0.7c-0.2,0.2-0.5,0.3-0.7,0.3
		c-0.3,0-0.5-0.1-0.7-0.3c-0.2-0.2-0.3-0.5-0.3-0.7V39.5z M102.2,40.6v8.8h3.2c0.6,0,1.2-0.1,1.8-0.3c0.5-0.2,1-0.5,1.4-0.9
		c0.4-0.4,0.7-0.9,1-1.4c0.2-0.5,0.3-1.1,0.3-1.7c0-0.6-0.1-1.2-0.4-1.7c-0.2-0.5-0.6-1-1-1.4c-0.4-0.4-0.9-0.7-1.4-0.9
		c-0.5-0.2-1.1-0.3-1.7-0.3H102.2z"/>
</g>
<linearGradient id="SVGID_00000178198309544509135880000013499167919368740764_" gradientUnits="userSpaceOnUse" x1="76.0772" y1="38.0888" x2="76.1102" y2="65.6855">
	<stop  offset="0" style="stop-color:#41B5E8"/>
	<stop  offset="0.5" style="stop-color:#6A53A3"/>
	<stop  offset="1" style="stop-color:#E72E8A"/>
</linearGradient>
<path style="fill:url(#SVGID_00000178198309544509135880000013499167919368740764_);" d="M79.2,57.4v2.2c0,1.7-1.4,3.1-3.1,3.1
	c-0.6,0-1.1-0.1-1.6-0.4c-0.5-0.3-0.7-0.9-0.4-1.5c0.3-0.5,0.9-0.7,1.5-0.4c0.2,0.1,0.3,0.1,0.5,0.1c0.5,0,1-0.4,1-1v-2.2
	c0-0.6,0.5-1.1,1.1-1.1C78.7,56.3,79.2,56.8,79.2,57.4z M72,61.6c-0.3-0.5-0.9-0.7-1.4-0.5c-0.5,0.3-0.7,0.9-0.5,1.4
	c1.2,2.2,3.4,3.6,5.9,3.6c3.7,0,6.7-3,6.7-6.7v-2.2c0-0.6-0.5-1.1-1.1-1.1c-0.6,0-1.1,0.5-1.1,1.1v2.2c0,2.5-2,4.5-4.5,4.5
	C74.4,64.1,72.8,63.2,72,61.6z M75.8,26.4c-5.5,0.2-9.9,4.8-9.9,10.4v22.8c0,2.8,1.1,5.4,3.1,7.3c1.9,1.9,4.4,2.9,7.1,2.9
	c0.1,0,0.2,0,0.3,0c5.5-0.2,9.9-4.8,9.9-10.4v-1.7c0-2.7-2.2-4.9-4.9-4.9h-3.3c-0.6,0-1.1,0.5-1.1,1.1c0,0.6,0.5,1.1,1.1,1.1h3.3
	c1.5,0,2.7,1.2,2.7,2.7v1.7c0,4.4-3.5,8.2-7.9,8.3c-2.2,0.1-4.3-0.7-5.9-2.3c-1.6-1.5-2.5-3.6-2.5-5.8V36.8c0-4.4,3.5-8.2,7.9-8.3
	c2.2-0.1,4.3,0.7,5.9,2.3c1.6,1.5,2.5,3.6,2.5,5.8V50c0,0.6,0.5,1.1,1.1,1.1s1.1-0.5,1.1-1.1V36.6c0-2.8-1.1-5.4-3.1-7.3
	C81.2,27.3,78.6,26.3,75.8,26.4z M82.8,44.6v-8c0-3.7-3-6.7-6.7-6.7c-3.7,0-6.7,3-6.7,6.7v1.2c0,0.6,0.5,1.1,1.1,1.1
	s1.1-0.5,1.1-1.1v-1.2c0-2.5,2-4.5,4.5-4.5c2.5,0,4.5,2,4.5,4.5v8c0,2.5-2,4.5-4.5,4.5c-0.6,0-1.1-0.1-1.7-0.3
	c-0.3-0.1-0.7-0.1-1,0.1c-0.3,0.2-0.5,0.5-0.5,0.9v7.3c0,0.4-0.3,0.7-0.7,0.7c-0.4,0-0.7-0.3-0.7-0.7V41.5c0-0.6-0.5-1.1-1.1-1.1
	s-1.1,0.5-1.1,1.1v15.7c0,1.6,1.3,2.8,2.8,2.8c1.6,0,2.8-1.3,2.8-2.8l0-5.9c0.3,0,0.7,0.1,1,0.1C79.8,51.3,82.8,48.3,82.8,44.6z
	 M89.9,36.8v16.8v0.3v5.6c0,3.7-1.5,7.2-4.2,9.9c-2.6,2.5-6,3.9-9.6,3.9c-0.1,0-0.2,0-0.3,0c-7.4-0.2-13.5-6.5-13.5-14V36.6
	c0-3.7,1.5-7.2,4.2-9.9c2.7-2.6,6.2-4,10-3.9C83.8,23,89.9,29.3,89.9,36.8z M87.8,53.9v-0.3V36.8c0-6.4-5.1-11.8-11.4-11.9
	c-3.2-0.1-6.2,1.1-8.4,3.3c-2.3,2.2-3.5,5.2-3.5,8.3v22.7c0,6.4,5.1,11.8,11.4,11.9c3.2,0.1,6.2-1.1,8.4-3.3
	c2.3-2.2,3.5-5.2,3.5-8.3V53.9z M73,44.6v-8c0-1.7,1.4-3.1,3.1-3.1c1.7,0,3.1,1.4,3.1,3.1v8c0,1.7-1.4,3.1-3.1,3.1
	C74.4,47.7,73,46.3,73,44.6z M75.1,44.6c0,0.5,0.4,1,1,1c0.5,0,1-0.4,1-1v-8c0-0.5-0.4-1-1-1c-0.5,0-1,0.4-1,1V44.6z"/>
<g>
	<path class="st0" d="M235.2,38.2h-0.4v-0.3h1.1v0.3h-0.4v1.2h-0.3V38.2z"/>
	<path class="st0" d="M237.4,38.8c0-0.2,0-0.4,0-0.6h0c0,0.2-0.1,0.4-0.2,0.6l-0.2,0.6h-0.3l-0.2-0.6c0-0.2-0.1-0.4-0.1-0.6h0
		c0,0.2,0,0.4,0,0.6l0,0.6h-0.3l0.1-1.5h0.4l0.1,0.5c0,0.2,0.1,0.4,0.1,0.5h0c0-0.2,0.1-0.4,0.1-0.5l0.2-0.5h0.4l0.1,1.5h-0.3
		L237.4,38.8z"/>
</g>
</svg>
