<svg id="Layer_1" xmlns="http://www.w3.org/2000/svg" viewBox="0 0 300 600"><style>.st0{fill:#021d8b}</style><path class="st0" d="M65.78 263.94c-.63.9-1.5 1.57-2.62 2.01-1.12.44-2.43.67-3.92.67-1.51 0-2.84-.35-4.01-1.06-1.17-.71-2.07-1.71-2.71-3.01s-.97-2.81-.98-4.53v-1.61c0-2.78.65-4.94 1.95-6.47 1.3-1.53 3.12-2.3 5.48-2.3 1.93 0 3.48.49 4.66 1.48s1.9 2.38 2.16 4.2h-2.44c-.46-2.45-1.91-3.68-4.37-3.68-1.63 0-2.87.57-3.71 1.72s-1.27 2.81-1.28 4.99v1.51c0 2.08.47 3.73 1.42 4.95s2.23 1.84 3.85 1.84c.91 0 1.71-.1 2.4-.3.69-.2 1.25-.54 1.7-1.03v-4.14h-4.28v-1.99h6.7v6.75zM75.17 266.62c-1.86 0-3.38-.61-4.54-1.83-1.17-1.22-1.75-2.86-1.75-4.91v-.43c0-1.36.26-2.58.78-3.65.52-1.07 1.25-1.91 2.18-2.51.94-.61 1.95-.91 3.04-.91 1.79 0 3.17.59 4.16 1.76s1.49 2.86 1.49 5.05v.98h-9.31c.03 1.35.43 2.45 1.19 3.28.76.83 1.72 1.25 2.89 1.25.83 0 1.53-.17 2.11-.51s1.08-.79 1.51-1.35l1.43 1.12c-1.15 1.78-2.87 2.66-5.18 2.66zm-.29-12.31c-.95 0-1.74.34-2.39 1.04-.64.69-1.04 1.66-1.19 2.9h6.88v-.18c-.07-1.19-.39-2.12-.96-2.77-.58-.67-1.36-.99-2.34-.99zM86.44 249.3v3.33H89v1.82h-2.56v8.53c0 .55.11.96.34 1.24s.62.41 1.17.41c.27 0 .64-.05 1.12-.15v1.89c-.62.17-1.22.25-1.8.25-1.05 0-1.84-.32-2.37-.95s-.8-1.54-.8-2.7v-8.52h-2.5v-1.82h2.5v-3.33h2.34zM100.98 259.13v7.24h-2.44v-18.48h6.82c2.02 0 3.61.52 4.75 1.55 1.15 1.03 1.72 2.4 1.72 4.1 0 1.79-.56 3.18-1.68 4.15-1.12.97-2.73 1.45-4.82 1.45h-4.35zm0-1.99h4.38c1.3 0 2.3-.31 3-.92s1.04-1.5 1.04-2.67c0-1.1-.35-1.98-1.04-2.64-.69-.66-1.65-1-2.86-1.03h-4.52v7.26zM121.22 254.74c-.36-.06-.74-.09-1.16-.09-1.54 0-2.59.66-3.14 1.97v9.75h-2.35v-13.74h2.29l.04 1.59c.77-1.23 1.86-1.84 3.28-1.84.46 0 .8.06 1.04.18v2.18zM123.39 248.99c0-.38.12-.7.35-.96s.58-.39 1.03-.39.8.13 1.04.39.36.58.36.96-.12.7-.36.95-.58.38-1.04.38-.8-.13-1.03-.38-.35-.57-.35-.95zm2.54 17.38h-2.35v-13.74h2.35v13.74zM134.22 263.18l3.4-10.55h2.4l-4.93 13.74h-1.79l-4.98-13.74h2.4l3.5 10.55zM150.57 266.37c-.14-.27-.25-.75-.33-1.45-1.09 1.13-2.4 1.7-3.91 1.7-1.35 0-2.46-.38-3.33-1.15-.87-.77-1.3-1.74-1.3-2.91 0-1.43.54-2.54 1.63-3.33 1.09-.79 2.62-1.19 4.59-1.19h2.29v-1.08c0-.82-.25-1.47-.74-1.96s-1.21-.73-2.17-.73c-.84 0-1.54.21-2.11.63s-.85.94-.85 1.54h-2.36c0-.69.24-1.35.73-1.99.49-.64 1.15-1.15 1.98-1.52s1.75-.56 2.75-.56c1.58 0 2.82.4 3.72 1.19.9.79 1.36 1.88 1.4 3.27v6.32c0 1.26.16 2.26.48 3.01v.2h-2.47zm-3.9-1.79c.74 0 1.43-.19 2.09-.57s1.14-.88 1.43-1.49v-2.82h-1.84c-2.88 0-4.32.84-4.32 2.53 0 .74.25 1.31.74 1.73s1.13.62 1.9.62zM161.74 264.7c.84 0 1.57-.25 2.2-.76.63-.51.97-1.14 1.04-1.9h2.22c-.04.79-.31 1.54-.81 2.25s-1.17 1.28-2 1.7-1.72.63-2.65.63c-1.87 0-3.36-.62-4.46-1.87s-1.66-2.96-1.66-5.12v-.39c0-1.34.25-2.53.74-3.57s1.2-1.85 2.11-2.42 2-.86 3.26-.86c1.54 0 2.82.46 3.84 1.38s1.56 2.12 1.63 3.59h-2.22c-.07-.89-.4-1.62-1.01-2.19-.6-.57-1.35-.86-2.24-.86-1.19 0-2.12.43-2.77 1.29-.66.86-.98 2.1-.98 3.73v.44c0 1.58.33 2.8.98 3.66.64.85 1.57 1.27 2.78 1.27zM174.34 262.93l3.2-10.3h2.51l-5.52 15.86c-.85 2.29-2.21 3.43-4.07 3.43l-.45-.04-.88-.17v-1.9l.63.05c.79 0 1.42-.16 1.86-.48s.81-.91 1.1-1.76l.52-1.4-4.9-13.58h2.56l3.44 10.29zM196.16 263.94c-.62.9-1.5 1.57-2.62 2.01-1.12.44-2.43.67-3.92.67-1.51 0-2.84-.35-4.01-1.06-1.17-.71-2.07-1.71-2.71-3.01s-.97-2.81-.98-4.53v-1.61c0-2.78.65-4.94 1.95-6.47 1.3-1.53 3.12-2.3 5.48-2.3 1.93 0 3.48.49 4.66 1.48 1.18.99 1.9 2.38 2.16 4.2h-2.44c-.46-2.45-1.91-3.68-4.37-3.68-1.63 0-2.87.57-3.71 1.72s-1.27 2.81-1.28 4.99v1.51c0 2.08.47 3.73 1.42 4.95.95 1.22 2.23 1.84 3.85 1.84.91 0 1.71-.1 2.4-.3.69-.2 1.25-.54 1.7-1.03v-4.14h-4.28v-1.99h6.7v6.75zM208.34 265.01c-.91 1.08-2.26 1.61-4.03 1.61-1.46 0-2.58-.43-3.34-1.28-.77-.85-1.15-2.11-1.16-3.78v-8.94h2.35v8.87c0 2.08.85 3.12 2.54 3.12 1.79 0 2.99-.67 3.58-2.01v-9.99h2.35v13.74h-2.23l-.06-1.34zM222.67 266.37c-.13-.27-.24-.75-.33-1.45-1.09 1.13-2.39 1.7-3.91 1.7-1.35 0-2.46-.38-3.33-1.15-.87-.77-1.3-1.74-1.3-2.91 0-1.43.54-2.54 1.63-3.33 1.09-.79 2.62-1.19 4.59-1.19h2.29v-1.08c0-.82-.25-1.47-.74-1.96s-1.21-.73-2.17-.73c-.84 0-1.54.21-2.11.63-.57.42-.85.94-.85 1.54h-2.36c0-.69.24-1.35.73-1.99.49-.64 1.15-1.15 1.98-1.52.83-.37 1.75-.56 2.75-.56 1.58 0 2.82.4 3.72 1.19.9.79 1.36 1.88 1.4 3.27v6.32c0 1.26.16 2.26.48 3.01v.2h-2.47zm-3.9-1.79c.74 0 1.43-.19 2.09-.57s1.14-.88 1.44-1.49v-2.82h-1.84c-2.88 0-4.32.84-4.32 2.53 0 .74.25 1.31.74 1.73.49.41 1.12.62 1.89.62zM234.97 254.74c-.36-.06-.74-.09-1.16-.09-1.54 0-2.59.66-3.13 1.97v9.75h-2.35v-13.74h2.29l.04 1.59c.77-1.23 1.86-1.84 3.28-1.84.46 0 .8.06 1.04.18v2.18zM236.56 259.38c0-2.11.5-3.8 1.5-5.08 1-1.28 2.31-1.92 3.92-1.92 1.61 0 2.88.55 3.82 1.65v-7.16h2.35v19.5h-2.16l-.12-1.47c-.94 1.15-2.25 1.73-3.92 1.73-1.59 0-2.89-.65-3.89-1.96-1-1.3-1.51-3-1.51-5.1v-.19zm2.35.27c0 1.56.32 2.78.96 3.66.64.88 1.53 1.32 2.67 1.32 1.49 0 2.58-.67 3.26-2.01v-6.31c-.7-1.29-1.78-1.94-3.24-1.94-1.15 0-2.05.44-2.69 1.33-.64.89-.96 2.21-.96 3.95zM139.61 294.33l2.64-10.5h2.35l-4 13.74h-1.9l-3.34-10.41-3.25 10.41h-1.9l-3.99-13.74h2.34l2.7 10.28 3.2-10.28h1.89l3.26 10.5zM147 280.19c0-.38.12-.7.35-.96s.58-.39 1.03-.39.8.13 1.04.39.36.58.36.96-.12.7-.36.95-.58.38-1.04.38-.8-.13-1.03-.38-.35-.57-.35-.95zm2.54 17.38h-2.35v-13.74h2.35v13.74zM156.48 280.5v3.33h2.56v1.82h-2.56v8.53c0 .55.12.96.34 1.24s.62.41 1.17.41c.27 0 .64-.05 1.12-.15v1.89c-.62.17-1.22.25-1.8.25-1.05 0-1.84-.32-2.38-.95s-.8-1.54-.8-2.7v-8.52h-2.5v-1.82h2.5v-3.33h2.35zM164.14 285.49c1.04-1.28 2.39-1.92 4.06-1.92 2.9 0 4.37 1.64 4.39 4.91v9.08h-2.35v-9.09c-.01-.99-.23-1.72-.68-2.2s-1.14-.71-2.08-.71c-.76 0-1.43.2-2.01.61-.58.41-1.02.94-1.35 1.6v9.79h-2.35v-19.5h2.35v7.43zM73.71 315.03l.11 1.54c.97-1.19 2.29-1.79 3.95-1.79 1.77 0 2.98.7 3.64 2.09.96-1.4 2.34-2.09 4.13-2.09 1.49 0 2.6.43 3.33 1.3.73.87 1.09 2.17 1.09 3.92v8.77h-3.68v-8.76c0-.78-.15-1.35-.46-1.71-.3-.36-.84-.54-1.61-.54-1.1 0-1.86.52-2.29 1.57l.01 9.43h-3.67v-8.75c0-.8-.16-1.37-.47-1.73s-.85-.53-1.6-.53c-1.04 0-1.79.43-2.26 1.29v9.71h-3.67v-13.74h3.45zM92.21 321.77c0-1.36.26-2.58.79-3.64s1.28-1.89 2.27-2.48 2.13-.88 3.43-.88c1.85 0 3.37.57 4.54 1.7s1.83 2.67 1.96 4.62l.03.94c0 2.11-.59 3.8-1.76 5.07-1.18 1.27-2.75 1.91-4.74 1.91s-3.56-.63-4.74-1.9-1.77-3-1.77-5.18v-.16zm3.67.26c0 1.3.25 2.3.74 2.99s1.19 1.04 2.11 1.04c.89 0 1.58-.34 2.08-1.02s.75-1.77.75-3.27c0-1.28-.25-2.27-.75-2.97-.5-.7-1.2-1.06-2.11-1.06-.9 0-1.59.35-2.08 1.05s-.74 1.78-.74 3.24zM110.86 315.03l.11 1.59c.98-1.23 2.3-1.84 3.95-1.84 1.46 0 2.54.43 3.25 1.28s1.07 2.13 1.09 3.83v8.87h-3.67v-8.79c0-.78-.17-1.34-.51-1.7-.34-.35-.9-.53-1.69-.53-1.03 0-1.81.44-2.32 1.32v9.69h-3.67v-13.74h3.46zM126.44 311.65v3.38h2.35v2.69h-2.35v6.86c0 .51.1.87.29 1.09s.57.33 1.12.33c.41 0 .77-.03 1.08-.09v2.78c-.72.22-1.46.33-2.22.33-2.57 0-3.88-1.3-3.94-3.9v-7.4h-2.01v-2.69h2.01v-3.38h3.67zM134.41 316.53c.97-1.17 2.2-1.75 3.67-1.75 2.98 0 4.49 1.73 4.53 5.19v8.8h-3.67v-8.7c0-.79-.17-1.37-.51-1.75-.34-.38-.9-.57-1.69-.57-1.07 0-1.85.42-2.34 1.24v9.76h-3.67v-19.5h3.67v7.28zM149.25 328.77h-3.68v-19.5h3.68v19.5zM157.4 323.57l2.54-8.54h3.94l-5.52 15.87-.3.72c-.82 1.79-2.17 2.69-4.06 2.69-.53 0-1.07-.08-1.62-.24v-2.78l.56.01c.69 0 1.21-.11 1.56-.32s.61-.56.81-1.05l.43-1.13-4.81-13.77h3.95l2.52 8.54zM176.19 311.65v3.38h2.35v2.69h-2.35v6.86c0 .51.1.87.29 1.09.2.22.57.33 1.12.33.41 0 .77-.03 1.08-.09v2.78c-.72.22-1.46.33-2.22.33-2.57 0-3.88-1.3-3.94-3.9v-7.4h-2.01v-2.69h2.01v-3.38h3.67zM188.3 318.47c-.5-.07-.94-.1-1.32-.1-1.39 0-2.3.47-2.73 1.41v8.99h-3.67v-13.74h3.46l.1 1.64c.74-1.26 1.76-1.89 3.06-1.89.41 0 .79.05 1.14.17l-.04 3.52zM190.04 311.48c0-.55.19-1 .55-1.36.37-.36.87-.53 1.5-.53s1.13.18 1.5.53c.37.36.56.81.56 1.36 0 .56-.19 1.02-.56 1.37s-.87.53-1.49.53-1.12-.18-1.49-.53c-.38-.36-.57-.82-.57-1.37zm3.9 17.29h-3.68v-13.74h3.68v13.74zM209.33 322.03c0 2.12-.48 3.81-1.44 5.08s-2.26 1.91-3.89 1.91c-1.39 0-2.51-.48-3.37-1.45v6.47h-3.67v-19.02h3.4l.13 1.35c.89-1.07 2.05-1.6 3.48-1.6 1.69 0 3.01.63 3.95 1.88s1.41 2.98 1.41 5.18v.2zm-3.67-.27c0-1.28-.23-2.26-.68-2.96-.45-.69-1.11-1.04-1.97-1.04-1.15 0-1.94.44-2.38 1.32v5.62c.45.91 1.25 1.36 2.4 1.36 1.75 0 2.63-1.43 2.63-4.3zM215.47 328.77h-3.68v-19.5h3.68v19.5zM224.81 329.02c-2.02 0-3.65-.62-4.92-1.85s-1.9-2.88-1.9-4.94v-.36c0-1.38.27-2.61.8-3.7.53-1.09 1.29-1.93 2.27-2.51.98-.59 2.09-.88 3.35-.88 1.88 0 3.36.59 4.44 1.78 1.08 1.18 1.62 2.87 1.62 5.04v1.5h-8.75c.12.9.47 1.62 1.07 2.16.6.54 1.35.81 2.27.81 1.41 0 2.52-.51 3.31-1.54l1.8 2.02c-.55.78-1.29 1.39-2.23 1.82-.94.43-1.98.65-3.13.65zm-.42-11.29c-.73 0-1.32.25-1.77.74-.45.49-.74 1.2-.87 2.12h5.1v-.29c-.02-.82-.24-1.45-.66-1.89-.41-.45-1.02-.68-1.8-.68zM86.23 353.23c0 2.2-.47 3.92-1.41 5.15-.94 1.23-2.25 1.85-3.94 1.85-1.49 0-2.68-.57-3.57-1.71l-.17 1.46h-3.3v-19.5h3.67v7c.85-.99 1.96-1.49 3.34-1.49 1.68 0 2.99.62 3.94 1.85.95 1.23 1.43 2.96 1.43 5.2v.19zm-3.67-.27c0-1.39-.22-2.4-.66-3.04-.44-.64-1.1-.96-1.97-.96-1.17 0-1.97.48-2.41 1.43v5.42c.45.96 1.26 1.45 2.44 1.45 1.19 0 1.96-.58 2.34-1.75.17-.56.26-1.41.26-2.55zM96.72 358.57c-.91 1.1-2.16 1.65-3.76 1.65-1.47 0-2.6-.42-3.37-1.27s-1.17-2.09-1.19-3.72v-9h3.67v8.88c0 1.43.65 2.15 1.96 2.15 1.24 0 2.1-.43 2.56-1.3v-9.74h3.68v13.74h-3.45l-.1-1.39zM110.76 349.67c-.5-.07-.94-.1-1.32-.1-1.39 0-2.3.47-2.73 1.41v8.99h-3.67v-13.74h3.47l.1 1.64c.74-1.26 1.76-1.89 3.06-1.89.41 0 .79.05 1.14.17l-.05 3.52zM118.85 360.22c-2.01 0-3.65-.62-4.92-1.85s-1.9-2.88-1.9-4.94v-.36c0-1.38.27-2.61.8-3.7.53-1.09 1.29-1.93 2.27-2.51.98-.59 2.09-.88 3.35-.88 1.88 0 3.36.59 4.44 1.78s1.62 2.87 1.62 5.04v1.5h-8.75c.12.9.48 1.62 1.07 2.16s1.35.81 2.27.81c1.41 0 2.52-.51 3.31-1.54l1.8 2.02c-.55.78-1.29 1.39-2.23 1.82-.95.43-1.99.65-3.13.65zm-.42-11.29c-.73 0-1.32.25-1.77.74s-.74 1.2-.87 2.12h5.1v-.29c-.02-.82-.24-1.45-.66-1.89s-1.02-.68-1.8-.68zM134.54 359.97c-.17-.33-.29-.74-.37-1.23-.89.99-2.04 1.49-3.47 1.49-1.35 0-2.46-.39-3.35-1.17s-1.33-1.76-1.33-2.95c0-1.46.54-2.57 1.62-3.35s2.64-1.17 4.68-1.18h1.69v-.79c0-.63-.16-1.14-.49-1.52s-.84-.57-1.54-.57c-.62 0-1.1.15-1.45.44s-.53.7-.53 1.22h-3.67c0-.8.25-1.53.74-2.21s1.19-1.21 2.08-1.59c.9-.39 1.9-.58 3.02-.58 1.69 0 3.04.43 4.03 1.28.99.85 1.49 2.05 1.49 3.59v5.95c.01 1.3.19 2.29.55 2.96v.22h-3.7zm-3.04-2.55c.54 0 1.04-.12 1.5-.36.46-.24.8-.56 1.02-.97v-2.36h-1.37c-1.84 0-2.81.63-2.93 1.9l-.01.22c0 .46.16.83.48 1.13s.75.44 1.31.44zM148.74 358.57c-.91 1.1-2.16 1.65-3.76 1.65-1.47 0-2.6-.42-3.37-1.27s-1.17-2.09-1.19-3.72v-9h3.67v8.88c0 1.43.65 2.15 1.96 2.15 1.24 0 2.1-.43 2.56-1.3v-9.74h3.68v13.74h-3.45l-.1-1.39zM167.25 357.26c.68 0 1.23-.19 1.65-.56.42-.37.64-.87.66-1.49H173c-.01.93-.26 1.78-.76 2.56-.5.77-1.18 1.38-2.05 1.8-.87.43-1.83.64-2.88.64-1.96 0-3.51-.62-4.65-1.87-1.13-1.25-1.7-2.97-1.7-5.17v-.24c0-2.12.56-3.8 1.69-5.07 1.12-1.26 2.67-1.89 4.63-1.89 1.72 0 3.1.49 4.13 1.47 1.04.98 1.56 2.28 1.58 3.9h-3.44c-.02-.71-.24-1.29-.66-1.74-.42-.45-.98-.67-1.68-.67-.86 0-1.5.31-1.94.93s-.65 1.63-.65 3.03v.38c0 1.42.21 2.43.65 3.05.45.63 1.1.94 1.98.94zM182.82 349.67c-.5-.07-.94-.1-1.32-.1-1.39 0-2.3.47-2.73 1.41v8.99h-3.67v-13.74h3.46l.1 1.64c.74-1.26 1.76-1.89 3.06-1.89.41 0 .79.05 1.14.17l-.04 3.52zM190.9 360.22c-2.01 0-3.65-.62-4.92-1.85-1.27-1.24-1.9-2.88-1.9-4.94v-.36c0-1.38.27-2.61.8-3.7.53-1.09 1.29-1.93 2.27-2.51.98-.59 2.09-.88 3.34-.88 1.88 0 3.36.59 4.44 1.78 1.08 1.18 1.62 2.87 1.62 5.04v1.5h-8.75c.12.9.48 1.62 1.07 2.16.6.54 1.35.81 2.27.81 1.41 0 2.52-.51 3.31-1.54l1.8 2.02c-.55.78-1.29 1.39-2.23 1.82-.93.43-1.97.65-3.12.65zm-.41-11.29c-.73 0-1.32.25-1.77.74s-.74 1.2-.87 2.12h5.1v-.29c-.02-.82-.24-1.45-.66-1.89-.42-.45-1.03-.68-1.8-.68zM198.06 353c0-2.14.48-3.85 1.44-5.12s2.28-1.9 3.94-1.9c1.34 0 2.44.5 3.31 1.5v-7.01h3.68v19.5h-3.31l-.18-1.46c-.91 1.14-2.09 1.71-3.53 1.71-1.62 0-2.91-.64-3.89-1.91-.97-1.27-1.46-3.04-1.46-5.31zm3.67.27c0 1.29.22 2.28.67 2.96.45.69 1.1 1.03 1.96 1.03 1.13 0 1.93-.48 2.4-1.44v-5.43c-.46-.96-1.25-1.44-2.38-1.44-1.76.01-2.65 1.45-2.65 4.32zM213.26 342.68c0-.55.18-1 .55-1.36.37-.36.87-.53 1.51-.53.62 0 1.12.18 1.5.53.37.36.56.81.56 1.36 0 .56-.19 1.02-.57 1.37-.38.36-.87.53-1.49.53s-1.12-.18-1.49-.53-.57-.82-.57-1.37zm3.9 17.29h-3.68v-13.74h3.68v13.74zM224.57 342.85v3.38h2.35v2.69h-2.35v6.86c0 .51.1.87.29 1.09.19.22.57.33 1.12.33.41 0 .77-.03 1.08-.09v2.78c-.72.22-1.46.33-2.22.33-2.57 0-3.88-1.3-3.94-3.9v-7.4h-2.01v-2.69h2.01v-3.38h3.67zM62 387.37c0-.45-.22-.8-.67-1.06-.44-.26-1.16-.49-2.14-.69-3.27-.69-4.9-2.07-4.9-4.16 0-1.22.51-2.24 1.52-3.05 1.01-.82 2.33-1.22 3.97-1.22 1.74 0 3.14.41 4.18 1.23s1.57 1.89 1.57 3.2h-3.67c0-.52-.17-.96-.51-1.3-.34-.34-.87-.51-1.59-.51-.62 0-1.1.14-1.43.42s-.51.63-.51 1.07c0 .41.19.73.58.98.39.25 1.03.47 1.95.65.91.18 1.68.39 2.31.62 1.94.71 2.91 1.94 2.91 3.69 0 1.25-.54 2.27-1.61 3.04-1.07.78-2.46 1.16-4.16 1.16-1.15 0-2.17-.21-3.07-.62-.89-.41-1.59-.97-2.1-1.69-.51-.71-.76-1.49-.76-2.32h3.48c.03.65.27 1.15.72 1.5s1.05.52 1.8.52c.7 0 1.23-.13 1.59-.4.36-.28.54-.63.54-1.06zM73.64 388.46c.68 0 1.23-.19 1.65-.56s.64-.87.66-1.49h3.44c-.01.93-.26 1.78-.76 2.56-.5.77-1.18 1.38-2.05 1.8-.87.43-1.83.64-2.88.64-1.96 0-3.51-.62-4.65-1.87-1.13-1.25-1.7-2.97-1.7-5.17v-.24c0-2.12.56-3.8 1.69-5.07s2.67-1.89 4.63-1.89c1.72 0 3.1.49 4.13 1.47 1.04.98 1.56 2.28 1.58 3.9h-3.44c-.02-.71-.24-1.29-.66-1.74-.42-.45-.98-.67-1.68-.67-.85 0-1.5.31-1.94.93s-.65 1.63-.65 3.03v.38c0 1.42.22 2.43.65 3.05.45.63 1.1.94 1.98.94zM80.92 384.17c0-1.36.26-2.58.79-3.64s1.28-1.89 2.27-2.48 2.13-.88 3.43-.88c1.85 0 3.37.57 4.54 1.7s1.83 2.67 1.96 4.62l.03.94c0 2.11-.59 3.8-1.76 5.07-1.18 1.27-2.75 1.91-4.74 1.91s-3.56-.63-4.74-1.9-1.77-3-1.77-5.18v-.16zm3.67.26c0 1.3.25 2.3.74 2.99s1.19 1.04 2.11 1.04c.89 0 1.58-.34 2.08-1.02s.75-1.77.75-3.27c0-1.28-.25-2.27-.75-2.97-.5-.7-1.2-1.06-2.11-1.06-.9 0-1.59.35-2.08 1.05s-.74 1.78-.74 3.24zM103.91 380.87c-.5-.07-.94-.1-1.32-.1-1.39 0-2.3.47-2.73 1.41v8.99h-3.67v-13.74h3.47l.1 1.64c.74-1.26 1.76-1.89 3.06-1.89.41 0 .79.05 1.14.17l-.05 3.52zM112 391.42c-2.01 0-3.65-.62-4.92-1.85s-1.9-2.88-1.9-4.94v-.36c0-1.38.27-2.61.8-3.7.53-1.09 1.29-1.93 2.27-2.51.98-.59 2.09-.88 3.35-.88 1.88 0 3.36.59 4.44 1.78s1.62 2.87 1.62 5.04v1.5h-8.75c.12.9.48 1.62 1.07 2.16s1.35.81 2.27.81c1.41 0 2.52-.51 3.31-1.54l1.8 2.02c-.55.78-1.29 1.39-2.23 1.82-.95.43-1.99.65-3.13.65zm-.42-11.29c-.73 0-1.32.25-1.77.74s-.74 1.2-.87 2.12h5.1v-.29c-.02-.82-.24-1.45-.66-1.89s-1.02-.68-1.8-.68zM127.17 387.37c0-.45-.22-.8-.67-1.06-.44-.26-1.16-.49-2.14-.69-3.27-.69-4.9-2.07-4.9-4.16 0-1.22.51-2.24 1.52-3.05 1.01-.82 2.33-1.22 3.97-1.22 1.74 0 3.14.41 4.18 1.23s1.57 1.89 1.57 3.2h-3.67c0-.52-.17-.96-.51-1.3-.34-.34-.87-.51-1.59-.51-.62 0-1.1.14-1.43.42s-.51.63-.51 1.07c0 .41.19.73.58.98.39.25 1.03.47 1.95.65.91.18 1.68.39 2.31.62 1.94.71 2.91 1.94 2.91 3.69 0 1.25-.54 2.27-1.61 3.04-1.07.78-2.46 1.16-4.16 1.16-1.15 0-2.17-.21-3.07-.62-.89-.41-1.59-.97-2.1-1.69-.51-.71-.76-1.49-.76-2.32h3.48c.03.65.27 1.15.72 1.5s1.05.52 1.8.52c.7 0 1.23-.13 1.59-.4.36-.28.54-.63.54-1.06zM139.06 386.19c0-.85.24-1.65.72-2.37s1.36-1.54 2.63-2.42c-.55-.74-.98-1.43-1.29-2.08-.31-.65-.47-1.32-.47-2.02 0-1.44.46-2.61 1.36-3.51.91-.9 2.13-1.35 3.68-1.35 1.38 0 2.51.41 3.4 1.23s1.33 1.84 1.33 3.07c0 1.47-.74 2.77-2.23 3.9l-1.42 1.03 3.19 3.71c.5-.98.75-2.07.75-3.25h3.12c0 2.4-.55 4.35-1.66 5.84l2.77 3.21h-4.16l-.95-1.09c-1.36.9-2.93 1.35-4.7 1.35-1.83 0-3.29-.48-4.39-1.44-1.13-.98-1.68-2.24-1.68-3.81zm6.22 2.27c.88 0 1.71-.25 2.5-.73l-3.64-4.2-.27.19c-.75.64-1.13 1.4-1.13 2.27 0 .73.23 1.33.7 1.79.48.45 1.09.68 1.84.68zm-1.34-11.22c0 .63.37 1.43 1.12 2.4l.98-.65c.5-.32.84-.63 1.03-.94s.29-.67.29-1.09-.16-.79-.47-1.1-.72-.47-1.21-.47c-.52 0-.95.17-1.26.51s-.48.78-.48 1.34zM170.83 380.87c-.5-.07-.94-.1-1.32-.1-1.39 0-2.3.47-2.73 1.41v8.99h-3.67v-13.74h3.47l.1 1.64c.74-1.26 1.76-1.89 3.06-1.89.41 0 .79.05 1.14.17l-.05 3.52zM178.91 391.42c-2.01 0-3.65-.62-4.92-1.85s-1.9-2.88-1.9-4.94v-.36c0-1.38.27-2.61.8-3.7.53-1.09 1.29-1.93 2.27-2.51.98-.59 2.09-.88 3.35-.88 1.88 0 3.36.59 4.44 1.78 1.08 1.18 1.62 2.87 1.62 5.04v1.5h-8.75c.12.9.48 1.62 1.07 2.16.6.54 1.35.81 2.27.81 1.41 0 2.52-.51 3.31-1.54l1.8 2.02c-.55.78-1.29 1.39-2.23 1.82-.94.43-1.98.65-3.13.65zm-.42-11.29c-.73 0-1.32.25-1.77.74s-.74 1.2-.87 2.12h5.1v-.29c-.02-.82-.24-1.45-.66-1.89-.41-.45-1.02-.68-1.8-.68zM199.01 384.43c0 2.12-.48 3.81-1.44 5.08s-2.26 1.91-3.89 1.91c-1.39 0-2.51-.48-3.36-1.45v6.47h-3.67v-19.02h3.4l.13 1.35c.89-1.07 2.05-1.6 3.48-1.6 1.69 0 3.01.63 3.95 1.88s1.41 2.98 1.41 5.18v.2zm-3.67-.27c0-1.28-.23-2.26-.68-2.96s-1.11-1.04-1.97-1.04c-1.15 0-1.94.44-2.37 1.32v5.62c.45.91 1.25 1.36 2.4 1.36 1.74 0 2.62-1.43 2.62-4.3zM200.71 384.17c0-1.36.26-2.58.79-3.64.53-1.07 1.28-1.89 2.27-2.48.99-.58 2.13-.88 3.44-.88 1.85 0 3.37.57 4.54 1.7s1.83 2.67 1.96 4.62l.03.94c0 2.11-.59 3.8-1.77 5.07-1.18 1.27-2.75 1.91-4.73 1.91s-3.56-.63-4.74-1.9c-1.18-1.27-1.77-3-1.77-5.18v-.16zm3.67.26c0 1.3.24 2.3.74 2.99.49.69 1.19 1.04 2.11 1.04.89 0 1.58-.34 2.08-1.02.5-.68.75-1.77.75-3.27 0-1.28-.25-2.27-.75-2.97-.5-.7-1.2-1.06-2.11-1.06-.9 0-1.59.35-2.08 1.05-.5.69-.74 1.78-.74 3.24zM223.7 380.87c-.5-.07-.94-.1-1.32-.1-1.39 0-2.3.47-2.73 1.41v8.99h-3.67v-13.74h3.46l.1 1.64c.74-1.26 1.76-1.89 3.06-1.89.41 0 .79.05 1.14.17l-.04 3.52zM230.49 374.05v3.38h2.35v2.69h-2.35v6.86c0 .51.1.87.29 1.09.19.22.57.33 1.12.33.41 0 .77-.03 1.08-.09v2.78c-.72.22-1.46.33-2.22.33-2.57 0-3.88-1.3-3.94-3.9v-7.4h-2.01v-2.69h2.01v-3.38h3.67zM242.33 387.37c0-.45-.22-.8-.67-1.06-.44-.26-1.16-.49-2.14-.69-3.27-.69-4.9-2.07-4.9-4.16 0-1.22.51-2.24 1.52-3.05 1.01-.82 2.33-1.22 3.97-1.22 1.74 0 3.14.41 4.18 1.23 1.04.82 1.57 1.89 1.57 3.2h-3.67c0-.52-.17-.96-.51-1.3-.34-.34-.87-.51-1.59-.51-.62 0-1.1.14-1.43.42-.34.28-.51.63-.51 1.07 0 .41.19.73.58.98.38.25 1.03.47 1.95.65.91.18 1.69.39 2.31.62 1.94.71 2.91 1.94 2.91 3.69 0 1.25-.54 2.27-1.61 3.04-1.07.78-2.46 1.16-4.16 1.16-1.15 0-2.17-.21-3.06-.62-.89-.41-1.59-.97-2.1-1.69-.51-.71-.76-1.49-.76-2.32h3.48c.03.65.28 1.15.72 1.5.45.35 1.05.52 1.8.52.7 0 1.23-.13 1.59-.4.35-.28.53-.63.53-1.06z"/></svg>