<svg id="Layer_1" xmlns="http://www.w3.org/2000/svg" viewBox="0 0 300 600"><style>.st0{fill:#021d8b;stroke:url(#SVGID_1_);stroke-width:2;stroke-miterlimit:10}.st1{fill:#fff}</style><linearGradient id="SVGID_1_" gradientUnits="userSpaceOnUse" x1="68.394" y1="376.741" x2="228.379" y2="376.741"><stop offset="0" stop-color="#18b9fb"/><stop offset=".5" stop-color="#782eeb"/><stop offset="1" stop-color="#e82d8a"/></linearGradient><path class="st0" d="M200.83 403.29H95.94c-14.66 0-26.55-11.89-26.55-26.55s11.89-26.55 26.55-26.55h104.89c14.66 0 26.55 11.89 26.55 26.55s-11.89 26.55-26.55 26.55z"/><path class="st1" d="M96.59 380.69h6.84v2.59H93.37v-15.64h3.22v13.05zM110.43 383.49c-1.7 0-3.09-.52-4.16-1.57-1.07-1.05-1.61-2.44-1.61-4.18v-.3c0-1.17.23-2.21.68-3.13.45-.92 1.09-1.63 1.92-2.13.83-.5 1.77-.75 2.83-.75 1.59 0 2.84.5 3.75 1.5.91 1 1.37 2.42 1.37 4.26v1.27h-7.4c.1.76.4 1.37.91 1.83.51.46 1.14.69 1.92.69 1.2 0 2.13-.43 2.8-1.3l1.53 1.71c-.47.66-1.1 1.17-1.89 1.54-.8.38-1.69.56-2.65.56zm-.36-9.55c-.62 0-1.12.21-1.5.63-.38.42-.63 1.01-.74 1.79h4.32v-.25c-.01-.69-.2-1.22-.56-1.6s-.86-.57-1.52-.57zM123.71 383.28c-.14-.28-.25-.63-.31-1.04-.75.84-1.73 1.26-2.93 1.26-1.14 0-2.08-.33-2.83-.99-.75-.66-1.12-1.49-1.12-2.49 0-1.23.46-2.18 1.37-2.84.91-.66 2.23-.99 3.96-1h1.43v-.67c0-.54-.14-.97-.41-1.29-.28-.32-.71-.48-1.31-.48-.52 0-.93.12-1.23.38-.3.25-.45.59-.45 1.03h-3.1c0-.67.21-1.3.62-1.87s1-1.02 1.76-1.35c.76-.33 1.61-.49 2.56-.49 1.43 0 2.57.36 3.41 1.08.84.72 1.26 1.73 1.26 3.03v5.04c.01 1.1.16 1.94.46 2.5v.18h-3.14zm-2.57-2.16c.46 0 .88-.1 1.27-.31s.67-.48.86-.82v-2h-1.16c-1.55 0-2.38.54-2.48 1.61l-.01.18c0 .39.14.71.41.96s.64.38 1.11.38zM135.3 374.57c-.42-.06-.79-.09-1.12-.09-1.17 0-1.94.4-2.31 1.19v7.61h-3.1v-11.62h2.93l.09 1.39c.62-1.07 1.49-1.6 2.59-1.6.34 0 .67.05.97.14l-.05 2.98zM139.65 371.66l.1 1.34c.83-1.04 1.94-1.56 3.34-1.56 1.23 0 2.15.36 2.75 1.08s.91 1.8.92 3.24v7.51h-3.1v-7.43c0-.66-.14-1.14-.43-1.43-.29-.3-.76-.45-1.43-.45-.87 0-1.53.37-1.97 1.12v8.2h-3.1v-11.62h2.92zM157.5 371.66l.1 1.3c.82-1.01 1.94-1.51 3.34-1.51 1.5 0 2.52.59 3.08 1.77.82-1.18 1.98-1.77 3.49-1.77 1.26 0 2.2.37 2.81 1.1.62.73.92 1.84.92 3.31v7.42h-3.12v-7.41c0-.66-.13-1.14-.39-1.45-.26-.3-.71-.46-1.36-.46-.93 0-1.58.44-1.93 1.33l.01 7.98h-3.1v-7.4c0-.67-.13-1.16-.4-1.46s-.72-.45-1.35-.45c-.88 0-1.52.37-1.91 1.1v8.22h-3.1v-11.62h2.91zM173.15 377.36c0-1.15.22-2.18.67-3.08s1.08-1.6 1.92-2.09c.83-.49 1.8-.74 2.91-.74 1.57 0 2.85.48 3.84 1.44.99.96 1.54 2.26 1.66 3.91l.02.79c0 1.78-.5 3.21-1.49 4.29-1 1.08-2.33 1.62-4.01 1.62s-3.01-.54-4.01-1.61-1.5-2.54-1.5-4.38v-.15zm3.11.22c0 1.1.21 1.95.62 2.53.42.58 1.01.88 1.78.88.75 0 1.34-.29 1.76-.87s.63-1.5.63-2.77c0-1.08-.21-1.92-.63-2.52-.42-.59-1.02-.89-1.78-.89s-1.35.3-1.76.89-.62 1.51-.62 2.75zM192.61 374.57c-.42-.06-.79-.09-1.12-.09-1.17 0-1.94.4-2.31 1.19v7.61h-3.1v-11.62h2.93l.09 1.39c.62-1.07 1.49-1.6 2.59-1.6.34 0 .67.05.97.14l-.05 2.98zM199.45 383.49c-1.7 0-3.09-.52-4.16-1.57-1.07-1.05-1.61-2.44-1.61-4.18v-.3c0-1.17.23-2.21.68-3.13.45-.92 1.09-1.63 1.92-2.13.83-.5 1.77-.75 2.83-.75 1.59 0 2.84.5 3.75 1.5.91 1 1.37 2.42 1.37 4.26v1.27h-7.4c.1.76.4 1.37.91 1.83.51.46 1.14.69 1.92.69 1.2 0 2.13-.43 2.8-1.3l1.53 1.71c-.47.66-1.1 1.17-1.89 1.54-.8.38-1.68.56-2.65.56zm-.36-9.55c-.62 0-1.12.21-1.5.63-.38.42-.63 1.01-.74 1.79h4.32v-.25c-.01-.69-.2-1.22-.56-1.6s-.86-.57-1.52-.57z"/></svg>