<svg id="Layer_1" xmlns="http://www.w3.org/2000/svg" viewBox="0 0 728 90"><style>.st0{fill:url(#SVGID_1_)}</style><linearGradient id="SVGID_1_" gradientUnits="userSpaceOnUse" x1="227.607" y1="45.782" x2="523.584" y2="45.782"><stop offset="0" stop-color="#18b9fb"/><stop offset=".5" stop-color="#782eeb"/><stop offset="1" stop-color="#e82d8a"/></linearGradient><path class="st0" d="M239.49 15.58h-4.27v11.57h-3.43V15.58h-4.19v-2.65h11.88v2.65zm5.61 11.57c-.12-.21-.22-.53-.31-.95-.61.76-1.45 1.14-2.54 1.14-1 0-1.84-.3-2.54-.9s-1.04-1.36-1.04-2.27c0-1.15.42-2.01 1.27-2.6s2.08-.88 3.69-.88h1.02v-.56c0-.97-.42-1.46-1.26-1.46-.78 0-1.17.39-1.17 1.16h-3.29c0-1.02.43-1.85 1.3-2.49.87-.64 1.98-.96 3.33-.96s2.41.33 3.19.99 1.18 1.56 1.2 2.71v4.68c.01.97.16 1.71.45 2.23v.17h-3.3zM243.04 25c.41 0 .75-.09 1.02-.26s.46-.37.58-.6v-1.69h-.96c-1.15 0-1.72.51-1.72 1.54 0 .3.1.54.3.73s.46.28.78.28zM254 23.22l-.93.93v3.01h-3.29V12.14h3.29v7.97l.33-.44 2.48-3.09h3.95l-3.7 4.35 3.95 6.22h-3.77L254 23.22zm11.62 4.13c-1.62 0-2.93-.48-3.94-1.45s-1.5-2.22-1.5-3.77v-.27c0-1.08.2-2.03.6-2.86s.98-1.47 1.75-1.92 1.68-.68 2.73-.68c1.48 0 2.66.46 3.52 1.38s1.29 2.21 1.29 3.85v1.28h-6.54c.12.59.37 1.06.77 1.4s.91.51 1.54.51c1.04 0 1.86-.36 2.44-1.09l1.5 1.78c-.41.57-.99 1.02-1.74 1.35s-1.56.49-2.42.49zm-.38-8.42c-.96 0-1.54.64-1.72 1.91h3.32v-.25c.01-.53-.12-.94-.4-1.23s-.68-.43-1.2-.43zm17.08 8.22c-.12-.21-.22-.53-.31-.95-.61.76-1.45 1.14-2.54 1.14-1 0-1.84-.3-2.54-.9s-1.04-1.36-1.04-2.27c0-1.15.42-2.01 1.27-2.6s2.08-.88 3.69-.88h1.02v-.56c0-.97-.42-1.46-1.26-1.46-.78 0-1.17.39-1.17 1.16h-3.29c0-1.02.43-1.85 1.3-2.49.87-.64 1.98-.96 3.33-.96s2.41.33 3.19.99 1.18 1.56 1.2 2.71v4.68c.01.97.16 1.71.45 2.23v.17h-3.3zM280.26 25c.41 0 .75-.09 1.02-.26s.46-.37.58-.6v-1.69h-.96c-1.15 0-1.72.51-1.72 1.54 0 .3.1.54.3.73s.47.28.78.28zm11.2-.19c.46 0 .82-.12 1.07-.38s.38-.6.37-1.05h3.09c0 1.16-.42 2.11-1.25 2.85s-1.9 1.11-3.21 1.11c-1.54 0-2.75-.48-3.63-1.45s-1.33-2.3-1.33-4v-.14c0-1.07.2-2.01.59-2.83s.96-1.45 1.7-1.88 1.62-.66 2.64-.66c1.37 0 2.46.38 3.27 1.14s1.21 1.79 1.21 3.1h-3.09c0-.55-.13-.97-.4-1.26s-.62-.44-1.07-.44c-.85 0-1.35.54-1.49 1.63-.05.34-.07.82-.07 1.43 0 1.06.13 1.8.38 2.21s.66.62 1.22.62zm9.75-10.85v2.63h1.74v2.29h-1.74v4.83c0 .4.07.67.21.83s.43.23.85.23c.33 0 .6-.02.82-.06v2.35c-.59.19-1.21.28-1.86.28-1.13 0-1.97-.27-2.51-.8s-.81-1.34-.81-2.43v-5.24h-1.35v-2.29h1.35v-2.63h3.3zm3.01-.1c0-.47.17-.85.51-1.15s.78-.45 1.32-.45.98.15 1.32.45.51.68.51 1.15-.17.85-.51 1.15-.78.45-1.32.45-.98-.15-1.32-.45-.51-.68-.51-1.15zm3.49 13.29h-3.3V16.59h3.3v10.56zm1.62-5.38c0-1.05.21-1.99.62-2.82s1-1.46 1.77-1.9 1.67-.66 2.71-.66c1.58 0 2.83.49 3.74 1.47s1.37 2.31 1.37 4v.12c0 1.65-.46 2.95-1.37 3.92s-2.15 1.45-3.72 1.45c-1.5 0-2.71-.45-3.62-1.35s-1.4-2.12-1.47-3.67l-.03-.56zm3.29.21c0 .98.15 1.69.46 2.15s.76.68 1.36.68c1.17 0 1.77-.9 1.8-2.71v-.33c0-1.89-.61-2.84-1.82-2.84-1.1 0-1.7.82-1.79 2.45l-.01.6zm11.37-5.39l.11 1.24c.73-.96 1.74-1.44 3.02-1.44 1.1 0 1.92.33 2.47.99s.83 1.65.84 2.97v6.81h-3.3v-6.67c0-.53-.11-.93-.32-1.18s-.61-.38-1.17-.38c-.64 0-1.12.25-1.44.76v7.46h-3.29V16.59h3.08zm8.34 9.09c0-.48.17-.88.52-1.19s.78-.46 1.3-.46.96.15 1.3.46.52.71.52 1.19-.17.88-.52 1.19-.78.46-1.3.46-.96-.15-1.3-.46-.52-.71-.52-1.19zm3.19-3.03h-2.67l-.42-9.72h3.51l-.42 9.72zM233.99 36.93h3.42v9.76c0 .91-.21 1.71-.63 2.42s-1.01 1.26-1.76 1.65-1.59.59-2.51.59c-1.55 0-2.75-.39-3.61-1.17s-1.29-1.89-1.29-3.32h3.44c0 .65.11 1.12.34 1.42s.6.44 1.13.44c.48 0 .84-.18 1.1-.53s.39-.85.39-1.49v-9.77zm11.72 13.08c-.7.89-1.64 1.34-2.82 1.34-1.16 0-2.04-.34-2.63-1.01s-.89-1.64-.89-2.91v-6.85h3.29v6.87c0 .91.44 1.36 1.32 1.36.75 0 1.29-.27 1.61-.81v-7.41h3.31v10.57h-3.09l-.1-1.15zm10.52-1.83c0-.28-.15-.5-.44-.67s-.85-.34-1.67-.53-1.5-.42-2.03-.72-.94-.66-1.22-1.08-.42-.91-.42-1.46c0-.97.4-1.77 1.2-2.4s1.85-.94 3.14-.94c1.39 0 2.51.32 3.36.95s1.27 1.46 1.27 2.49h-3.3c0-.85-.45-1.27-1.34-1.27-.34 0-.63.1-.87.29s-.35.43-.35.72.14.53.43.71.74.33 1.37.45 1.18.26 1.66.42c1.59.55 2.38 1.53 2.38 2.94 0 .96-.43 1.75-1.28 2.35s-1.96.91-3.33.91c-.91 0-1.71-.16-2.42-.49s-1.26-.77-1.66-1.33-.6-1.15-.6-1.77h3.08c.01.49.18.84.49 1.07s.71.34 1.2.34c.45 0 .79-.09 1.01-.27s.34-.41.34-.71zm8.55-10.22v2.63h1.74v2.29h-1.74v4.83c0 .4.07.67.21.83s.43.23.85.23c.33 0 .6-.02.82-.06v2.35c-.59.19-1.21.28-1.86.28-1.13 0-1.97-.27-2.51-.8s-.81-1.34-.81-2.43v-5.24h-1.35v-2.29h1.35v-2.63h3.3zm13.96 13.19c-.12-.21-.22-.53-.31-.95-.61.76-1.45 1.14-2.54 1.14-1 0-1.84-.3-2.54-.9s-1.04-1.36-1.04-2.27c0-1.15.42-2.01 1.27-2.6s2.08-.88 3.69-.88h1.02v-.56c0-.97-.42-1.46-1.26-1.46-.78 0-1.17.39-1.17 1.16h-3.29c0-1.02.43-1.85 1.3-2.49.87-.64 1.98-.96 3.33-.96s2.41.33 3.19.99 1.18 1.56 1.2 2.71v4.68c.01.97.16 1.71.45 2.23v.17h-3.3zM276.68 49c.41 0 .75-.09 1.02-.26s.46-.37.58-.6v-1.69h-.96c-1.15 0-1.72.51-1.72 1.54 0 .3.1.54.3.73s.47.28.78.28zm15.54-11.04v2.63h1.74v2.29h-1.74v4.83c0 .4.07.67.21.83s.43.23.85.23c.33 0 .6-.02.82-.06v2.35c-.59.19-1.21.28-1.86.28-1.13 0-1.97-.27-2.51-.8s-.81-1.34-.81-2.43v-5.24h-1.35v-2.29h1.35v-2.63h3.3zm8.98 13.19c-.12-.21-.22-.53-.31-.95-.61.76-1.45 1.14-2.54 1.14-1 0-1.84-.3-2.54-.9s-1.04-1.36-1.04-2.27c0-1.15.42-2.01 1.27-2.6s2.08-.88 3.69-.88h1.02v-.56c0-.97-.42-1.46-1.26-1.46-.78 0-1.17.39-1.17 1.16h-3.29c0-1.02.43-1.85 1.3-2.49.87-.64 1.98-.96 3.33-.96s2.41.33 3.19.99 1.18 1.56 1.2 2.71v4.68c.01.97.16 1.71.45 2.23v.17h-3.3zM299.14 49c.41 0 .75-.09 1.02-.26s.46-.37.58-.6v-1.69h-.96c-1.15 0-1.72.51-1.72 1.54 0 .3.1.54.3.73s.47.28.78.28zm16.53-3.05c0 1.64-.37 2.95-1.11 3.93s-1.74 1.47-2.99 1.47c-.97 0-1.77-.35-2.39-1.06v4.93h-3.29V40.59h3.08l.1.98c.63-.78 1.46-1.17 2.49-1.17 1.3 0 2.31.48 3.04 1.44s1.08 2.28 1.08 3.96v.15zm-3.29-.21c0-1.88-.55-2.81-1.64-2.81-.78 0-1.3.28-1.56.84v4.16c.29.59.81.88 1.58.88 1.05 0 1.59-.91 1.62-2.71v-.36zm15.68 5.41c-.12-.21-.22-.53-.31-.95-.61.76-1.45 1.14-2.54 1.14-1 0-1.84-.3-2.54-.9s-1.04-1.36-1.04-2.27c0-1.15.42-2.01 1.27-2.6s2.08-.88 3.69-.88h1.02v-.56c0-.97-.42-1.46-1.26-1.46-.78 0-1.17.39-1.17 1.16h-3.29c0-1.02.43-1.85 1.3-2.49.87-.64 1.98-.96 3.33-.96s2.41.33 3.19.99 1.18 1.56 1.2 2.71v4.68c.01.97.16 1.71.45 2.23v.17h-3.3zM326 49c.41 0 .75-.09 1.02-.26s.46-.37.58-.6v-1.69h-.96c-1.15 0-1.72.51-1.72 1.54 0 .3.1.54.3.73s.46.28.78.28zm15.85-2.18l1.06-6.23h3.15l-2.49 10.57h-2.78l-1.75-6.27-1.76 6.27h-2.78l-2.49-10.57h3.15l1.04 6.38 1.68-6.38h2.29l1.68 6.23zm11.34 4.33c-.12-.21-.22-.53-.31-.95-.61.76-1.45 1.14-2.54 1.14-1 0-1.84-.3-2.54-.9s-1.04-1.36-1.04-2.27c0-1.15.42-2.01 1.27-2.6s2.08-.88 3.69-.88h1.02v-.56c0-.97-.42-1.46-1.26-1.46-.78 0-1.17.39-1.17 1.16h-3.29c0-1.02.43-1.85 1.3-2.49.87-.64 1.98-.96 3.33-.96s2.41.33 3.19.99 1.18 1.56 1.2 2.71v4.68c.01.97.16 1.71.45 2.23v.17h-3.3zM351.13 49c.41 0 .75-.09 1.02-.26s.46-.37.58-.6v-1.69h-.96c-1.15 0-1.72.51-1.72 1.54 0 .3.1.54.3.73s.47.28.78.28zm10.8-2.46l1.76-5.96h3.53l-4.31 12.33-.19.45c-.61 1.37-1.69 2.05-3.24 2.05-.43 0-.88-.06-1.36-.19v-2.34h.43c.46 0 .82-.07 1.06-.2s.42-.37.54-.72l.26-.7-3.67-10.67h3.52l1.67 5.95zm11.85 4.61v-8.28h-1.53v-2.29h1.53v-.84c0-1.2.35-2.14 1.06-2.8s1.71-1 2.99-1c.47 0 .98.07 1.54.21l.01 2.42c-.2-.06-.47-.09-.81-.09-1 0-1.49.43-1.49 1.29v.81h2.06v2.29h-2.06v8.28h-3.3zm12.91-7.59l-1.08-.08c-1.04 0-1.7.33-1.99.98v6.69h-3.29V40.59h3.09l.11 1.36c.55-1.04 1.33-1.55 2.31-1.55.35 0 .66.04.92.12l-.07 3.04zm.42 2.21c0-1.05.21-1.99.62-2.82s1-1.46 1.77-1.9 1.67-.66 2.71-.66c1.58 0 2.83.49 3.74 1.47s1.37 2.31 1.37 4v.12c0 1.65-.46 2.95-1.37 3.92s-2.15 1.45-3.72 1.45c-1.5 0-2.71-.45-3.62-1.35s-1.4-2.12-1.47-3.67l-.03-.56zm3.29.21c0 .98.15 1.69.46 2.15s.76.68 1.36.68c1.17 0 1.77-.9 1.8-2.71v-.33c0-1.89-.61-2.84-1.82-2.84-1.1 0-1.7.82-1.79 2.45l-.01.6zm11.47-5.39l.11 1.24c.75-.96 1.75-1.44 3.02-1.44 1.33 0 2.24.53 2.71 1.59.72-1.06 1.75-1.59 3.11-1.59 2.14 0 3.24 1.3 3.3 3.89v6.88h-3.3v-6.67c0-.54-.09-.93-.27-1.18s-.51-.37-1-.37c-.65 0-1.14.29-1.46.87l.01.14v7.22h-3.3V44.5c0-.55-.09-.95-.26-1.2s-.51-.37-1.01-.37c-.63 0-1.11.29-1.45.87v7.35h-3.29V40.59h3.08zm25.04 10.56c-.12-.21-.22-.53-.31-.95-.61.76-1.45 1.14-2.54 1.14-1 0-1.84-.3-2.54-.9s-1.04-1.36-1.04-2.27c0-1.15.42-2.01 1.27-2.6s2.08-.88 3.69-.88h1.02v-.56c0-.97-.42-1.46-1.26-1.46-.78 0-1.17.39-1.17 1.16h-3.29c0-1.02.43-1.85 1.3-2.49.87-.64 1.98-.96 3.33-.96s2.41.33 3.19.99 1.18 1.56 1.2 2.71v4.68c.01.97.16 1.71.45 2.23v.17h-3.3zM424.85 49c.41 0 .75-.09 1.02-.26s.46-.37.58-.6v-1.69h-.96c-1.15 0-1.72.51-1.72 1.54 0 .3.1.54.3.73s.47.28.78.28zm11.29-3.21c0-1.67.36-2.99 1.08-3.96s1.73-1.45 3.03-1.45c.94 0 1.74.37 2.38 1.11v-5.35h3.3v15h-2.96l-.17-1.13c-.68.89-1.54 1.33-2.58 1.33-1.26 0-2.25-.48-2.99-1.45s-1.09-2.32-1.09-4.1zm3.29.21c0 1.88.55 2.81 1.64 2.81.73 0 1.25-.31 1.56-.92v-4.02c-.3-.62-.81-.94-1.54-.94-1.02 0-1.57.82-1.65 2.46l-.01.61zm13.49 5.35c-1.62 0-2.93-.48-3.94-1.45s-1.5-2.22-1.5-3.77v-.27c0-1.08.2-2.03.6-2.86s.98-1.47 1.75-1.92 1.68-.68 2.73-.68c1.48 0 2.66.46 3.52 1.38s1.29 2.21 1.29 3.85v1.28h-6.54c.12.59.37 1.06.77 1.4s.91.51 1.54.51c1.04 0 1.86-.36 2.44-1.09l1.5 1.78c-.41.57-.99 1.02-1.74 1.35s-1.55.49-2.42.49zm-.37-8.42c-.96 0-1.54.64-1.72 1.91h3.32v-.25c.01-.53-.12-.94-.4-1.23s-.68-.43-1.2-.43zm5.73 2.86c0-1.67.36-2.99 1.08-3.96s1.73-1.45 3.03-1.45c.94 0 1.74.37 2.38 1.11v-5.35h3.3v15h-2.96l-.17-1.13c-.68.89-1.54 1.33-2.58 1.33-1.26 0-2.25-.48-2.99-1.45s-1.09-2.32-1.09-4.1zm3.29.21c0 1.88.55 2.81 1.64 2.81.73 0 1.25-.31 1.56-.92v-4.02c-.3-.62-.81-.94-1.54-.94-1.02 0-1.57.82-1.65 2.46l-.01.61zm8.35-8.14c0-.47.17-.85.51-1.15s.78-.45 1.32-.45.98.15 1.32.45.51.68.51 1.15-.17.85-.51 1.15-.78.45-1.32.45-.98-.15-1.32-.45-.51-.68-.51-1.15zm3.5 13.29h-3.3V40.59h3.3v10.56zm6.49-2.34c.46 0 .82-.12 1.07-.38s.38-.6.37-1.05h3.09c0 1.16-.42 2.11-1.25 2.85s-1.9 1.11-3.21 1.11c-1.54 0-2.75-.48-3.63-1.45s-1.33-2.3-1.33-4v-.14c0-1.07.2-2.01.59-2.83s.96-1.45 1.7-1.88 1.62-.66 2.64-.66c1.37 0 2.46.38 3.27 1.14s1.21 1.79 1.21 3.1h-3.09c0-.55-.13-.97-.4-1.26s-.62-.44-1.07-.44c-.85 0-1.35.54-1.49 1.63-.05.34-.07.82-.07 1.43 0 1.06.13 1.8.38 2.21s.67.62 1.22.62zm11.88 2.34c-.12-.21-.22-.53-.31-.95-.61.76-1.45 1.14-2.54 1.14-1 0-1.84-.3-2.54-.9s-1.04-1.36-1.04-2.27c0-1.15.42-2.01 1.27-2.6s2.08-.88 3.69-.88h1.02v-.56c0-.97-.42-1.46-1.26-1.46-.78 0-1.17.39-1.17 1.16h-3.29c0-1.02.43-1.85 1.3-2.49.87-.64 1.98-.96 3.33-.96s2.41.33 3.19.99 1.18 1.56 1.2 2.71v4.68c.01.97.16 1.71.45 2.23v.17h-3.3zM489.73 49c.41 0 .75-.09 1.02-.26s.46-.37.58-.6v-1.69h-.96c-1.15 0-1.72.51-1.72 1.54 0 .3.1.54.3.73s.46.28.78.28zm10.55-11.04v2.63h1.74v2.29h-1.74v4.83c0 .4.07.67.21.83s.43.23.85.23c.33 0 .6-.02.82-.06v2.35c-.59.19-1.21.28-1.86.28-1.13 0-1.97-.27-2.51-.8s-.81-1.34-.81-2.43v-5.24h-1.35v-2.29h1.35v-2.63h3.3zm8.15 13.39c-1.62 0-2.93-.48-3.94-1.45s-1.5-2.22-1.5-3.77v-.27c0-1.08.2-2.03.6-2.86s.98-1.47 1.75-1.92 1.68-.68 2.73-.68c1.48 0 2.66.46 3.52 1.38s1.29 2.21 1.29 3.85v1.28h-6.54c.12.59.37 1.06.77 1.4s.91.51 1.54.51c1.04 0 1.86-.36 2.44-1.09l1.5 1.78c-.41.57-.99 1.02-1.74 1.35s-1.56.49-2.42.49zm-.37-8.42c-.96 0-1.54.64-1.72 1.91h3.32v-.25c.01-.53-.12-.94-.4-1.23s-.68-.43-1.2-.43zm5.73 2.86c0-1.67.36-2.99 1.08-3.96s1.73-1.45 3.03-1.45c.94 0 1.74.37 2.38 1.11v-5.35h3.3v15h-2.96l-.17-1.13c-.68.89-1.54 1.33-2.58 1.33-1.26 0-2.25-.48-2.99-1.45s-1.09-2.32-1.09-4.1zm3.29.21c0 1.88.55 2.81 1.64 2.81.73 0 1.25-.31 1.56-.92v-4.02c-.3-.62-.81-.94-1.54-.94-1.02 0-1.57.82-1.65 2.46l-.01.61zM228.15 61.86c0-.47.17-.85.51-1.15s.78-.45 1.32-.45.98.15 1.32.45.51.68.51 1.15-.17.85-.51 1.15-.78.45-1.32.45-.98-.15-1.32-.45-.51-.68-.51-1.15zm3.5 13.29h-3.3V64.59h3.3v10.56zm1.61-5.36c0-1.67.36-2.99 1.08-3.96s1.73-1.45 3.03-1.45c.94 0 1.74.37 2.38 1.11v-5.35h3.3v15h-2.96l-.17-1.13c-.68.89-1.54 1.33-2.58 1.33-1.26 0-2.25-.48-2.99-1.45s-1.09-2.32-1.09-4.1zm3.29.21c0 1.88.55 2.81 1.64 2.81.73 0 1.25-.31 1.56-.92v-4.02c-.3-.62-.81-.94-1.54-.94-1.02 0-1.57.82-1.65 2.46l-.01.61zm13.49 5.35c-1.62 0-2.93-.48-3.94-1.45s-1.5-2.22-1.5-3.77v-.27c0-1.08.2-2.03.6-2.86s.98-1.47 1.75-1.92 1.68-.68 2.73-.68c1.48 0 2.66.46 3.52 1.38s1.29 2.21 1.29 3.85v1.28h-6.54c.12.59.37 1.06.77 1.4s.91.51 1.54.51c1.04 0 1.86-.36 2.44-1.09l1.5 1.78c-.41.57-.99 1.02-1.74 1.35s-1.55.49-2.42.49zm-.37-8.42c-.96 0-1.54.64-1.72 1.91h3.32v-.25c.01-.53-.12-.94-.4-1.23s-.68-.43-1.2-.43zm9.17-2.34l.11 1.24c.73-.96 1.74-1.44 3.02-1.44 1.1 0 1.92.33 2.47.99s.83 1.65.84 2.97v6.81h-3.3v-6.67c0-.53-.11-.93-.32-1.18s-.61-.38-1.17-.38c-.64 0-1.12.25-1.44.76v7.46h-3.29V64.59h3.08zm12.09-2.63v2.63h1.74v2.29h-1.74v4.83c0 .4.07.67.21.83s.43.23.85.23c.33 0 .6-.02.82-.06v2.35c-.59.19-1.21.28-1.86.28-1.13 0-1.97-.27-2.51-.8s-.81-1.34-.81-2.43v-5.24h-1.35v-2.29h1.35v-2.63h3.3zm3.01-.1c0-.47.17-.85.51-1.15s.78-.45 1.32-.45.98.15 1.32.45.51.68.51 1.15-.17.85-.51 1.15-.78.45-1.32.45-.98-.15-1.32-.45-.51-.68-.51-1.15zm3.49 13.29h-3.3V64.59h3.3v10.56zm5.86-13.19v2.63h1.74v2.29h-1.74v4.83c0 .4.07.67.21.83s.43.23.85.23c.33 0 .6-.02.82-.06v2.35c-.59.19-1.21.28-1.86.28-1.13 0-1.97-.27-2.51-.8s-.8-1.34-.8-2.42v-5.24h-1.35v-2.29H280v-2.63h3.29zm7.26 8.58l1.76-5.96h3.53l-4.31 12.33-.19.45c-.61 1.37-1.69 2.05-3.24 2.05-.43 0-.88-.06-1.36-.19v-2.34h.43c.46 0 .82-.07 1.06-.2s.42-.37.54-.72l.26-.7-3.67-10.67h3.52l1.67 5.95zm14.95-8.58v2.63h1.74v2.29h-1.74v4.83c0 .4.07.67.21.83s.43.23.85.23c.33 0 .6-.02.82-.06v2.35c-.59.19-1.21.28-1.86.28-1.13 0-1.97-.27-2.51-.8s-.81-1.34-.81-2.43v-5.24h-1.35v-2.29h1.35v-2.63h3.3zm6.25 3.76c.7-.89 1.6-1.33 2.7-1.33 1.17 0 2.04.34 2.64 1.04s.9 1.71.91 3.06v6.67h-3.3v-6.59c0-.56-.11-.97-.34-1.24s-.62-.4-1.16-.4c-.68 0-1.16.21-1.44.64v7.58h-3.29v-15h3.29v5.57zm13.18 9.63c-1.62 0-2.93-.48-3.94-1.45s-1.5-2.22-1.5-3.77v-.27c0-1.08.2-2.03.6-2.86s.98-1.47 1.75-1.92 1.68-.68 2.73-.68c1.48 0 2.66.46 3.52 1.38s1.29 2.21 1.29 3.85v1.28h-6.54c.12.59.37 1.06.77 1.4s.91.51 1.54.51c1.04 0 1.86-.36 2.44-1.09l1.5 1.78c-.41.57-.99 1.02-1.74 1.35s-1.55.49-2.42.49zm-.37-8.42c-.96 0-1.54.64-1.72 1.91h3.32v-.25c.01-.53-.12-.94-.4-1.23s-.68-.43-1.2-.43zm6.88 8.22v-8.28h-1.53v-2.29h1.53v-.84c0-1.2.35-2.14 1.06-2.8s1.71-1 2.99-1c.47 0 .98.07 1.54.21l.01 2.42c-.2-.06-.47-.09-.81-.09-1 0-1.49.43-1.49 1.29v.81h2.06v2.29h-2.06v8.28h-3.3zm10.35-13.19v2.63h1.74v2.29h-1.74v4.83c0 .4.07.67.21.83s.43.23.85.23c.33 0 .6-.02.82-.06v2.35c-.59.19-1.21.28-1.86.28-1.13 0-1.97-.27-2.51-.8s-.81-1.34-.81-2.43v-5.24h-1.35v-2.29h1.35v-2.63h3.3zm13.54 10.22c0-.28-.15-.5-.44-.67s-.85-.34-1.67-.53-1.5-.42-2.03-.72-.94-.66-1.22-1.08-.42-.91-.42-1.46c0-.97.4-1.77 1.2-2.4s1.85-.94 3.14-.94c1.39 0 2.51.32 3.36.95s1.27 1.46 1.27 2.49h-3.3c0-.85-.45-1.27-1.34-1.27-.34 0-.63.1-.87.29s-.35.43-.35.72.14.53.43.71.74.33 1.37.45 1.18.26 1.66.42c1.59.55 2.38 1.53 2.38 2.94 0 .96-.43 1.75-1.28 2.35s-1.96.91-3.33.91c-.91 0-1.71-.16-2.42-.49s-1.26-.77-1.66-1.33-.6-1.15-.6-1.77h3.08c.01.49.18.84.49 1.07s.71.34 1.2.34c.45 0 .79-.09 1.01-.27s.34-.41.34-.71zm14.52-2.23c0 1.64-.37 2.95-1.11 3.93s-1.74 1.47-2.99 1.47c-.97 0-1.77-.35-2.39-1.06v4.93h-3.29V64.59h3.08l.1.98c.63-.78 1.46-1.17 2.49-1.17 1.3 0 2.31.48 3.04 1.44s1.08 2.28 1.08 3.96v.15zm-3.29-.21c0-1.88-.55-2.81-1.64-2.81-.78 0-1.3.28-1.56.84v4.16c.29.59.81.88 1.58.88 1.05 0 1.59-.91 1.62-2.71v-.36zm9.86 5.61c-1.62 0-2.93-.48-3.94-1.45s-1.5-2.22-1.5-3.77v-.27c0-1.08.2-2.03.6-2.86s.98-1.47 1.75-1.92 1.68-.68 2.73-.68c1.48 0 2.66.46 3.52 1.38s1.29 2.21 1.29 3.85v1.28h-6.54c.12.59.37 1.06.77 1.4s.91.51 1.54.51c1.04 0 1.86-.36 2.44-1.09l1.5 1.78c-.41.57-.99 1.02-1.74 1.35s-1.56.49-2.42.49zm-.38-8.42c-.96 0-1.54.64-1.72 1.91h3.32v-.25c.01-.53-.12-.94-.4-1.23s-.67-.43-1.2-.43zm10.62 5.88c.46 0 .82-.12 1.07-.38s.38-.6.37-1.05h3.09c0 1.16-.42 2.11-1.25 2.85s-1.9 1.11-3.21 1.11c-1.54 0-2.75-.48-3.63-1.45s-1.33-2.3-1.33-4v-.14c0-1.07.2-2.01.59-2.83s.96-1.45 1.7-1.88 1.62-.66 2.64-.66c1.37 0 2.46.38 3.27 1.14s1.21 1.79 1.21 3.1h-3.09c0-.55-.13-.97-.4-1.26s-.62-.44-1.07-.44c-.85 0-1.35.54-1.49 1.63-.05.34-.07.82-.07 1.43 0 1.06.13 1.8.38 2.21s.67.62 1.22.62zm5.9-10.95c0-.47.17-.85.51-1.15s.78-.45 1.32-.45.98.15 1.32.45.51.68.51 1.15-.17.85-.51 1.15-.78.45-1.32.45-.98-.15-1.32-.45-.51-.68-.51-1.15zm3.49 13.29h-3.3V64.59h3.3v10.56zm7.98 0c-.12-.21-.22-.53-.31-.95-.61.76-1.45 1.14-2.54 1.14-1 0-1.84-.3-2.54-.9s-1.04-1.36-1.04-2.27c0-1.15.42-2.01 1.27-2.6s2.08-.88 3.69-.88h1.02v-.56c0-.97-.42-1.46-1.26-1.46-.78 0-1.17.39-1.17 1.16h-3.29c0-1.02.43-1.85 1.3-2.49.87-.64 1.98-.96 3.33-.96s2.41.33 3.19.99 1.18 1.56 1.2 2.71v4.68c.01.97.16 1.71.45 2.23v.17h-3.3zM401.97 73c.41 0 .75-.09 1.02-.26s.46-.37.58-.6v-1.69h-.96c-1.15 0-1.72.51-1.72 1.54 0 .3.1.54.3.73s.47.28.78.28zm10.2 2.15h-3.3v-15h3.3v15zm2-13.29c0-.47.17-.85.51-1.15s.78-.45 1.32-.45.98.15 1.32.45.51.68.51 1.15-.17.85-.51 1.15-.78.45-1.32.45-.98-.15-1.32-.45-.51-.68-.51-1.15zm3.5 13.29h-3.3V64.59h3.3v10.56zm7.55-2.97c0-.28-.15-.5-.44-.67s-.85-.34-1.67-.53-1.5-.42-2.03-.72-.94-.66-1.22-1.08-.42-.91-.42-1.46c0-.97.4-1.77 1.2-2.4s1.85-.94 3.14-.94c1.39 0 2.51.32 3.36.95s1.27 1.46 1.27 2.49h-3.3c0-.85-.45-1.27-1.34-1.27-.34 0-.63.1-.87.29s-.35.43-.35.72.14.53.43.71.74.33 1.37.45 1.18.26 1.66.42c1.59.55 2.38 1.53 2.38 2.94 0 .96-.43 1.75-1.28 2.35s-1.96.91-3.33.91c-.91 0-1.71-.16-2.42-.49s-1.26-.77-1.66-1.33-.6-1.15-.6-1.77h3.08c.01.49.18.84.49 1.07s.71.34 1.2.34c.45 0 .79-.09 1.01-.27s.34-.41.34-.71zm8.55-10.22v2.63h1.74v2.29h-1.74v4.83c0 .4.07.67.21.83s.43.23.85.23c.33 0 .6-.02.82-.06v2.35c-.59.19-1.21.28-1.86.28-1.13 0-1.97-.27-2.51-.8s-.81-1.34-.81-2.43v-5.24h-1.35v-2.29h1.35v-2.63h3.3z"/></svg>