<svg id="Layer_1" xmlns="http://www.w3.org/2000/svg" viewBox="0 0 320 468"><style>.st0{fill:#e82d8a}.st1{fill:#edf4fd}</style><path class="st0" d="M0 374.46h320v93.48H0z"/><path class="st1" d="M92.68 398.32c0-.54-.19-1-.57-1.36-.38-.37-1.02-.7-1.91-1-1.25-.38-2.16-.88-2.73-1.49-.57-.61-.86-1.39-.86-2.34 0-.96.28-1.75.84-2.37.56-.62 1.33-.98 2.31-1.1v-1.93h1.31v1.94c.99.13 1.75.55 2.3 1.24.55.69.82 1.64.82 2.84h-1.62c0-.83-.2-1.49-.59-1.98-.39-.49-.92-.73-1.59-.73-.7 0-1.23.18-1.6.54-.37.36-.55.87-.55 1.51 0 .6.2 1.08.59 1.43.39.36 1.03.68 1.93.97.89.29 1.59.61 2.09.96.5.35.87.76 1.11 1.22.24.46.36 1.01.36 1.63 0 .99-.3 1.79-.89 2.39-.6.6-1.43.96-2.5 1.07v1.68h-1.3v-1.68c-1.09-.1-1.95-.49-2.57-1.17s-.93-1.6-.93-2.76h1.63c0 .82.21 1.44.64 1.88.43.44 1.04.66 1.82.66.77 0 1.37-.18 1.81-.55.43-.35.65-.86.65-1.5zM101.68 401.62h-1.64v-10.85l-3.28 1.21v-1.48l4.67-1.75h.25v12.87zM113.29 389.79v2.31h1.78v1.26h-1.78v5.91c0 .38.08.67.24.86.16.19.43.29.81.29.19 0 .45-.04.77-.11v1.31c-.43.12-.85.17-1.25.17-.73 0-1.28-.22-1.65-.66s-.55-1.07-.55-1.88v-5.91h-1.73v-1.26h1.73v-2.31h1.63zM121.57 393.56c-.25-.04-.51-.06-.8-.06-1.07 0-1.79.46-2.17 1.37v6.76h-1.63v-9.52h1.58l.03 1.1c.53-.85 1.29-1.28 2.27-1.28.32 0 .56.04.72.12v1.51zM123.08 389.58c0-.26.08-.49.24-.67.16-.18.4-.27.72-.27s.56.09.72.27c.16.18.25.4.25.67 0 .26-.08.48-.25.66-.16.18-.4.26-.72.26s-.56-.09-.72-.26a.958.958 0 0 1-.24-.66zm1.76 12.04h-1.63v-9.52h1.63v9.52zM133.32 401.62c-.09-.19-.17-.52-.23-1-.76.79-1.66 1.18-2.71 1.18-.94 0-1.71-.27-2.31-.8-.6-.53-.9-1.2-.9-2.02 0-.99.38-1.76 1.13-2.31s1.81-.82 3.18-.82h1.58v-.75c0-.57-.17-1.02-.51-1.36-.34-.34-.84-.51-1.5-.51-.58 0-1.07.15-1.46.44-.39.29-.59.65-.59 1.06h-1.64c0-.47.17-.93.51-1.38s.79-.79 1.37-1.05c.58-.26 1.21-.39 1.91-.39 1.1 0 1.96.27 2.58.82.62.55.94 1.3.97 2.27v4.38c0 .88.11 1.57.33 2.09v.14h-1.71zm-2.7-1.24c.51 0 .99-.13 1.45-.4.46-.26.79-.61.99-1.03V397h-1.28c-2 0-2.99.58-2.99 1.75 0 .51.17.91.51 1.2.35.29.79.43 1.32.43zM139.02 401.62h-1.63V388.1h1.63v13.52zM146.89 401.62v-8.27h-1.5v-1.26h1.5v-.98c0-1.02.27-1.81.82-2.37.55-.56 1.32-.84 2.31-.84.38 0 .75.05 1.12.15l-.09 1.31c-.28-.05-.57-.08-.88-.08-.53 0-.94.15-1.22.46-.29.31-.43.75-.43 1.33v1.01h2.03v1.26h-2.03v8.27h-1.63zM151.91 396.77c0-.93.18-1.77.55-2.52s.88-1.32 1.53-1.73 1.4-.61 2.24-.61c1.3 0 2.35.45 3.15 1.35s1.2 2.09 1.2 3.58v.11c0 .93-.18 1.76-.53 2.5s-.86 1.31-1.52 1.72c-.66.41-1.42.62-2.27.62-1.29 0-2.34-.45-3.14-1.35s-1.2-2.09-1.2-3.56v-.11zm1.64.2c0 1.06.25 1.9.74 2.54.49.64 1.15.96 1.97.96.83 0 1.48-.32 1.97-.97.49-.65.73-1.56.73-2.72 0-1.04-.25-1.89-.74-2.54-.5-.65-1.15-.97-1.98-.97-.8 0-1.45.32-1.94.96-.5.63-.75 1.55-.75 2.74zM167.23 393.56c-.25-.04-.51-.06-.8-.06-1.07 0-1.79.46-2.17 1.37v6.76h-1.63v-9.52h1.58l.03 1.1c.53-.85 1.29-1.28 2.27-1.28.32 0 .56.04.72.12v1.51zM175.4 389.79v2.31h1.78v1.26h-1.78v5.91c0 .38.08.67.24.86.16.19.43.29.81.29.19 0 .45-.04.77-.11v1.31c-.43.12-.84.17-1.25.17-.73 0-1.28-.22-1.65-.66-.37-.44-.55-1.07-.55-1.88v-5.91h-1.73v-1.26h1.73v-2.31h1.63zM180.71 393.25c.72-.89 1.66-1.33 2.82-1.33 2.01 0 3.03 1.14 3.04 3.41v6.29h-1.63v-6.3c-.01-.69-.16-1.19-.47-1.52-.31-.33-.79-.49-1.44-.49-.53 0-.99.14-1.39.42-.4.28-.71.65-.93 1.11v6.79h-1.63V388.1h1.63v5.15zM192.96 401.8c-1.29 0-2.34-.42-3.15-1.27-.81-.85-1.21-1.98-1.21-3.4v-.3c0-.95.18-1.79.54-2.53.36-.74.87-1.32 1.51-1.74.65-.42 1.35-.63 2.11-.63 1.24 0 2.2.41 2.89 1.22s1.03 1.98 1.03 3.5v.68h-6.45c.02.94.3 1.7.82 2.28.52.58 1.19.87 2 .87.58 0 1.06-.12 1.46-.35.4-.23.75-.54 1.05-.93l1 .77c-.81 1.22-2.01 1.83-3.6 1.83zm-.2-8.54c-.66 0-1.21.24-1.66.72-.45.48-.72 1.15-.83 2.01h4.77v-.12c-.05-.83-.27-1.47-.67-1.92-.39-.46-.93-.69-1.61-.69zM203.82 401.62v-8.27h-1.5v-1.26h1.5v-.98c0-1.02.27-1.81.82-2.37.54-.56 1.32-.84 2.31-.84.38 0 .75.05 1.12.15l-.09 1.31c-.28-.05-.57-.08-.88-.08-.53 0-.94.15-1.22.46-.29.31-.43.75-.43 1.33v1.01h2.03v1.26h-2.03v8.27h-1.63zM209.29 389.58c0-.26.08-.49.24-.67.16-.18.4-.27.72-.27.32 0 .56.09.72.27.17.18.25.4.25.67 0 .26-.08.48-.25.66-.16.18-.4.26-.72.26-.32 0-.56-.09-.72-.26a.958.958 0 0 1-.24-.66zm1.76 12.04h-1.63v-9.52h1.63v9.52zM218.26 393.56c-.25-.04-.51-.06-.8-.06-1.07 0-1.79.46-2.17 1.37v6.76h-1.63v-9.52h1.58l.03 1.1c.53-.85 1.29-1.28 2.27-1.28.32 0 .56.04.72.12v1.51zM225.3 399.1c0-.44-.17-.78-.5-1.03-.33-.24-.91-.45-1.73-.63s-1.48-.39-1.96-.63c-.48-.25-.84-.54-1.07-.88-.23-.34-.35-.75-.35-1.21 0-.78.33-1.44.99-1.98.66-.54 1.5-.81 2.53-.81 1.08 0 1.96.28 2.63.84.67.56 1.01 1.27 1.01 2.14h-1.64c0-.45-.19-.83-.57-1.15-.38-.32-.86-.48-1.43-.48-.59 0-1.06.13-1.39.39-.33.26-.5.6-.5 1.01 0 .39.16.69.47.89.31.2.87.39 1.69.57.81.18 1.47.4 1.98.65.5.25.88.56 1.12.91.24.36.37.79.37 1.3 0 .85-.34 1.53-1.02 2.05-.68.51-1.56.77-2.65.77-.76 0-1.44-.13-2.02-.41-.59-.27-1.05-.65-1.38-1.13-.33-.48-.5-1.01-.5-1.57h1.63c.03.55.25.98.66 1.3.41.32.95.48 1.62.48.62 0 1.11-.12 1.48-.37.34-.27.53-.6.53-1.02zM231.26 389.79v2.31h1.78v1.26h-1.78v5.91c0 .38.08.67.24.86.16.19.43.29.81.29.19 0 .45-.04.77-.11v1.31c-.43.12-.84.17-1.25.17-.73 0-1.28-.22-1.65-.66-.37-.44-.55-1.07-.55-1.88v-5.91h-1.73v-1.26h1.73v-2.31h1.63zM75.89 423.26h-2.54v-9.81l-3.04.94v-2.07l5.31-1.9h.27v12.84zM87.58 418.43h1.45v2.05h-1.45v2.77h-2.54v-2.77h-5.25l-.11-1.6 5.34-8.44h2.57v7.99zm-5.38 0h2.83v-4.52l-.17.29-2.66 4.23zM94.6 418.42c0-1.48.33-2.67 1-3.55s1.58-1.32 2.73-1.32c.93 0 1.69.35 2.3 1.04v-4.86h2.55v13.52h-2.3l-.12-1.01c-.63.79-1.45 1.19-2.45 1.19-1.12 0-2.02-.44-2.7-1.32-.68-.89-1.01-2.11-1.01-3.69zm2.54.19c0 .89.16 1.58.47 2.05.31.48.76.71 1.36.71.79 0 1.34-.33 1.66-1v-3.76c-.32-.66-.87-1-1.65-1-1.23.01-1.84 1.01-1.84 3zM110.67 423.26c-.12-.23-.2-.51-.26-.85-.62.69-1.42 1.03-2.4 1.03-.93 0-1.71-.27-2.32-.81-.61-.54-.92-1.22-.92-2.04 0-1.01.37-1.78 1.12-2.32s1.83-.81 3.24-.82h1.17v-.55c0-.44-.11-.79-.34-1.06-.23-.26-.58-.4-1.07-.4-.43 0-.76.1-1.01.31-.24.21-.37.49-.37.85h-2.54c0-.55.17-1.06.51-1.53.34-.47.82-.84 1.44-1.1.62-.27 1.32-.4 2.1-.4 1.17 0 2.1.29 2.79.88s1.03 1.42 1.03 2.49v4.13c.01.9.13 1.59.38 2.05v.15h-2.55zm-2.11-1.77c.38 0 .72-.08 1.04-.25s.55-.39.7-.67v-1.64h-.95c-1.27 0-1.95.44-2.03 1.32l-.01.15c0 .32.11.58.33.78.23.2.54.31.92.31zM118.37 419.66l1.76-5.92h2.73l-3.83 11-.21.5c-.57 1.24-1.51 1.87-2.82 1.87-.37 0-.75-.06-1.13-.17v-1.93l.39.01c.48 0 .84-.07 1.08-.22.24-.15.42-.39.56-.73l.3-.78-3.34-9.55h2.74l1.77 5.92zM129.02 420.62c0-.31-.15-.56-.46-.74-.31-.18-.8-.34-1.48-.48-2.27-.48-3.4-1.44-3.4-2.89 0-.85.35-1.55 1.05-2.12.7-.57 1.62-.85 2.75-.85 1.21 0 2.18.29 2.9.85.72.57 1.09 1.31 1.09 2.22h-2.54c0-.36-.12-.67-.35-.9s-.6-.36-1.1-.36c-.43 0-.76.1-.99.29-.23.19-.35.44-.35.74 0 .28.13.51.4.68s.72.32 1.35.45c.63.13 1.17.27 1.6.43 1.34.49 2.02 1.35 2.02 2.56 0 .87-.37 1.57-1.12 2.11-.75.54-1.71.81-2.89.81-.8 0-1.51-.14-2.13-.43-.62-.29-1.1-.67-1.46-1.17s-.53-1.03-.53-1.61h2.41c.02.45.19.8.5 1.04s.73.36 1.25.36c.49 0 .85-.09 1.1-.28.26-.16.38-.41.38-.71zM133.33 425.81l-.92-.63c.55-.77.84-1.56.86-2.38v-1.47h1.59v1.28c0 .59-.15 1.18-.44 1.78s-.65 1.06-1.09 1.42zM149.43 418.6c0 1.45-.33 2.62-.99 3.5s-1.56 1.33-2.69 1.33c-1.16 0-2.07-.37-2.73-1.1v4.59h-1.63v-13.19h1.49l.08 1.06c.66-.82 1.58-1.23 2.76-1.23 1.14 0 2.05.43 2.72 1.29s1 2.06 1 3.6v.15zm-1.63-.18c0-1.07-.23-1.92-.69-2.54s-1.09-.93-1.88-.93c-.99 0-1.73.44-2.22 1.31v4.55c.49.87 1.23 1.3 2.24 1.3.78 0 1.4-.31 1.86-.93.46-.62.69-1.54.69-2.76zM153.27 423.26h-1.63v-13.52h1.63v13.52zM161.75 423.26c-.09-.19-.17-.52-.23-1-.76.79-1.66 1.18-2.71 1.18-.94 0-1.71-.27-2.31-.8-.6-.53-.9-1.2-.9-2.02 0-.99.38-1.76 1.13-2.31s1.81-.82 3.18-.82h1.58v-.75c0-.57-.17-1.02-.51-1.36-.34-.34-.84-.51-1.5-.51-.58 0-1.07.15-1.46.44-.39.29-.59.65-.59 1.06h-1.64c0-.47.17-.93.51-1.38s.79-.79 1.37-1.05c.58-.26 1.21-.39 1.91-.39 1.1 0 1.96.27 2.58.82s.94 1.3.97 2.27v4.38c0 .88.11 1.57.33 2.09v.14h-1.71zm-2.7-1.24c.51 0 .99-.13 1.45-.4.46-.26.79-.61.99-1.03v-1.95h-1.28c-2 0-2.99.58-2.99 1.75 0 .51.17.91.51 1.2.35.28.79.43 1.32.43zM167.22 413.73l.05 1.2c.73-.92 1.68-1.37 2.85-1.37 2.01 0 3.03 1.14 3.05 3.41v6.29h-1.63v-6.3c-.01-.69-.16-1.19-.47-1.52-.31-.33-.79-.49-1.44-.49-.53 0-.99.14-1.39.42-.4.28-.71.65-.93 1.11v6.79h-1.63v-9.52h1.54zM181.17 420.73c0-.44-.17-.78-.5-1.03-.33-.24-.91-.45-1.73-.63s-1.48-.39-1.96-.63c-.48-.25-.84-.54-1.07-.88-.23-.34-.35-.75-.35-1.21 0-.78.33-1.44.99-1.98.66-.54 1.5-.81 2.53-.81 1.08 0 1.96.28 2.63.84.67.56 1.01 1.27 1.01 2.14h-1.64c0-.45-.19-.83-.57-1.15-.38-.32-.85-.48-1.43-.48-.59 0-1.06.13-1.39.39-.33.26-.5.6-.5 1.01 0 .39.16.69.47.89.31.2.87.39 1.69.57.81.18 1.47.4 1.98.65.5.25.88.56 1.12.91.24.36.37.79.37 1.3 0 .85-.34 1.53-1.02 2.05-.68.51-1.56.77-2.65.77-.76 0-1.44-.13-2.02-.41-.59-.27-1.05-.65-1.38-1.13-.33-.48-.5-1.01-.5-1.57h1.63c.03.55.25.98.66 1.3.41.32.95.48 1.62.48.62 0 1.11-.12 1.48-.37.35-.27.53-.6.53-1.02zM194.93 420.73c0-.44-.17-.78-.5-1.03-.33-.24-.91-.45-1.73-.63-.83-.18-1.48-.39-1.96-.63-.48-.25-.84-.54-1.07-.88-.23-.34-.35-.75-.35-1.21 0-.78.33-1.44.99-1.98.66-.54 1.5-.81 2.53-.81 1.08 0 1.96.28 2.63.84.67.56 1.01 1.27 1.01 2.14h-1.64c0-.45-.19-.83-.57-1.15-.38-.32-.86-.48-1.43-.48-.59 0-1.06.13-1.39.39-.33.26-.5.6-.5 1.01 0 .39.16.69.47.89.31.2.87.39 1.69.57.81.18 1.47.4 1.98.65.5.25.88.56 1.12.91.24.36.37.79.37 1.3 0 .85-.34 1.53-1.02 2.05-.68.51-1.56.77-2.65.77-.76 0-1.44-.13-2.02-.41-.59-.27-1.05-.65-1.38-1.13-.33-.48-.5-1.01-.5-1.57h1.63c.03.55.25.98.66 1.3.41.32.95.48 1.62.48.62 0 1.11-.12 1.48-.37s.53-.6.53-1.02zM200.89 411.43v2.31h1.78V415h-1.78v5.91c0 .38.08.67.24.86.16.19.43.29.81.29.19 0 .45-.04.77-.11v1.31c-.43.12-.84.17-1.25.17-.73 0-1.28-.22-1.65-.66-.37-.44-.55-1.07-.55-1.88v-5.91h-1.73v-1.26h1.73v-2.31h1.63zM210.45 423.26c-.09-.19-.17-.52-.23-1-.76.79-1.66 1.18-2.71 1.18-.94 0-1.71-.27-2.31-.8-.6-.53-.9-1.2-.9-2.02 0-.99.38-1.76 1.13-2.31s1.81-.82 3.18-.82h1.58v-.75c0-.57-.17-1.02-.51-1.36-.34-.34-.84-.51-1.5-.51-.58 0-1.07.15-1.46.44-.39.29-.59.65-.59 1.06h-1.64c0-.47.17-.93.51-1.38.34-.44.79-.79 1.37-1.05.58-.26 1.21-.39 1.91-.39 1.1 0 1.96.27 2.58.82s.94 1.3.97 2.27v4.38c0 .88.11 1.57.33 2.09v.14h-1.71zm-2.7-1.24c.51 0 .99-.13 1.45-.4.46-.26.79-.61 1-1.03v-1.95h-1.28c-2 0-2.99.58-2.99 1.75 0 .51.17.91.51 1.2.33.28.77.43 1.31.43zM218.98 415.19c-.25-.04-.51-.06-.8-.06-1.07 0-1.79.46-2.17 1.37v6.76h-1.63v-9.52h1.58l.03 1.1c.53-.85 1.29-1.28 2.27-1.28.32 0 .56.04.72.12v1.51zM223.12 411.43v2.31h1.78V415h-1.78v5.91c0 .38.08.67.24.86.16.19.43.29.81.29.19 0 .45-.04.77-.11v1.31c-.43.12-.84.17-1.25.17-.73 0-1.28-.22-1.65-.66-.37-.44-.55-1.07-.55-1.88v-5.91h-1.73v-1.26h1.73v-2.31h1.63zM226.81 411.21c0-.26.08-.49.24-.67.16-.18.4-.27.72-.27.32 0 .56.09.72.27.17.18.25.4.25.67 0 .26-.08.48-.25.66-.16.18-.4.26-.72.26-.32 0-.56-.09-.72-.26a.958.958 0 0 1-.24-.66zm1.76 12.05h-1.63v-9.52h1.63v9.52zM232.72 413.73l.05 1.2c.73-.92 1.68-1.37 2.85-1.37 2.01 0 3.03 1.14 3.04 3.41v6.29h-1.63v-6.3c-.01-.69-.16-1.19-.47-1.52-.31-.33-.79-.49-1.44-.49-.53 0-.99.14-1.39.42-.4.28-.71.65-.93 1.11v6.79h-1.63v-9.52h1.55zM240.74 418.42c0-1.48.34-2.67 1.03-3.54.69-.88 1.6-1.32 2.73-1.32 1.16 0 2.07.41 2.72 1.23l.08-1.06h1.49v9.29c0 1.23-.37 2.2-1.1 2.91s-1.71 1.06-2.94 1.06c-.69 0-1.36-.15-2.02-.44-.66-.29-1.16-.7-1.5-1.21l.84-.98c.7.86 1.55 1.29 2.56 1.29.79 0 1.41-.22 1.85-.67.44-.45.67-1.07.67-1.88v-.82c-.65.75-1.54 1.13-2.67 1.13-1.12 0-2.02-.45-2.71-1.35s-1.03-2.1-1.03-3.64zm1.63.18c0 1.07.22 1.92.66 2.53.44.61 1.06.92 1.85.92 1.03 0 1.78-.47 2.26-1.4v-4.35c-.5-.91-1.25-1.36-2.24-1.36-.79 0-1.41.31-1.86.92-.44.62-.67 1.53-.67 2.74zM103.75 444.89c-.09-.19-.17-.52-.23-1-.76.79-1.66 1.18-2.71 1.18-.94 0-1.71-.27-2.31-.8-.6-.53-.9-1.2-.9-2.02 0-.99.38-1.76 1.13-2.31s1.81-.82 3.18-.82h1.58v-.75c0-.57-.17-1.02-.51-1.36-.34-.34-.84-.51-1.5-.51-.58 0-1.07.15-1.46.44-.39.29-.59.65-.59 1.06h-1.64c0-.47.17-.93.51-1.38s.79-.79 1.37-1.05c.58-.26 1.21-.39 1.91-.39 1.1 0 1.96.27 2.58.82.62.55.94 1.3.97 2.27v4.38c0 .88.11 1.57.33 2.09v.14h-1.71zm-2.7-1.24c.51 0 .99-.13 1.45-.4.46-.26.79-.61.99-1.03v-1.95h-1.28c-2 0-2.99.58-2.99 1.75 0 .51.17.91.51 1.2.35.28.78.43 1.32.43zM109.88 433.06v2.31h1.78v1.26h-1.78v5.91c0 .38.08.67.24.86.16.19.43.29.81.29.19 0 .45-.04.77-.11v1.31c-.43.12-.85.17-1.25.17-.73 0-1.28-.22-1.65-.66s-.55-1.07-.55-1.88v-5.91h-1.73v-1.26h1.73v-2.31h1.63zM123.75 441.52c0-.48-.13-.86-.4-1.15-.27-.28-.72-.55-1.36-.79-.64-.24-1.19-.48-1.65-.72-.46-.24-.86-.51-1.19-.82-.33-.31-.59-.67-.77-1.09-.19-.42-.28-.91-.28-1.49 0-.99.32-1.8.95-2.44s1.48-1 2.53-1.11v-1.88h1.41v1.91c1.04.15 1.85.58 2.44 1.3s.88 1.65.88 2.79h-2.54c0-.7-.15-1.23-.44-1.58-.29-.35-.68-.52-1.17-.52-.48 0-.85.14-1.12.41-.26.27-.4.65-.4 1.13 0 .45.13.8.39 1.07s.74.55 1.44.83c.7.28 1.28.55 1.73.8.45.25.83.53 1.14.84.31.31.55.67.71 1.07.16.4.25.87.25 1.4 0 1-.31 1.81-.93 2.43s-1.48.99-2.57 1.1v1.75h-1.4v-1.74c-1.2-.13-2.13-.56-2.79-1.28-.66-.73-.99-1.69-.99-2.89h2.54c0 .7.17 1.23.5 1.61.33.37.81.56 1.43.56.52 0 .92-.14 1.22-.41.29-.26.44-.63.44-1.09zM133.96 439.77c-.66.65-1.44.98-2.32.98-1.13 0-2.04-.39-2.72-1.17s-1.02-1.83-1.02-3.15c0-.84.18-1.61.55-2.31s.88-1.25 1.54-1.64c.66-.39 1.4-.59 2.22-.59.85 0 1.6.21 2.25.63s1.17 1.03 1.53 1.82c.36.79.55 1.7.55 2.72v.94c0 2.14-.53 3.81-1.59 5.04-1.06 1.22-2.57 1.87-4.52 1.95l-.62.01v-2.12l.56-.01c2.21-.09 3.41-1.13 3.59-3.1zm-1.7-.97c.41 0 .76-.11 1.06-.32.3-.21.52-.47.67-.77v-1.05c0-.86-.16-1.53-.49-2.01-.33-.47-.77-.71-1.32-.71-.51 0-.93.23-1.26.7-.33.47-.49 1.05-.49 1.76 0 .7.16 1.27.48 1.72s.77.68 1.35.68zM138.59 443.64c0-.41.14-.73.41-.99.27-.25.61-.38 1.03-.38.42 0 .76.13 1.03.38s.41.58.41.99c0 .4-.14.72-.4.97-.27.25-.62.37-1.04.37-.42 0-.76-.12-1.03-.37-.28-.25-.41-.57-.41-.97zM149.54 439.77c-.66.65-1.44.98-2.32.98-1.13 0-2.04-.39-2.72-1.17s-1.02-1.83-1.02-3.15c0-.84.18-1.61.55-2.31s.88-1.25 1.54-1.64c.66-.39 1.4-.59 2.22-.59.85 0 1.6.21 2.25.63s1.17 1.03 1.53 1.82c.36.79.55 1.7.55 2.72v.94c0 2.14-.53 3.81-1.59 5.04-1.06 1.22-2.57 1.87-4.52 1.95l-.62.01v-2.12l.56-.01c2.21-.09 3.41-1.13 3.59-3.1zm-1.7-.97c.41 0 .76-.11 1.06-.32.3-.21.52-.47.67-.77v-1.05c0-.86-.16-1.53-.49-2.01-.33-.47-.77-.71-1.32-.71-.51 0-.93.23-1.26.7-.33.47-.49 1.05-.49 1.76 0 .7.16 1.27.48 1.72s.77.68 1.35.68zM159.88 439.77c-.66.65-1.44.98-2.32.98-1.13 0-2.04-.39-2.72-1.17s-1.02-1.83-1.02-3.15c0-.84.18-1.61.55-2.31s.88-1.25 1.54-1.64c.66-.39 1.4-.59 2.22-.59.85 0 1.6.21 2.25.63.66.42 1.17 1.03 1.53 1.82.36.79.55 1.7.55 2.72v.94c0 2.14-.53 3.81-1.59 5.04-1.06 1.22-2.57 1.87-4.52 1.95l-.62.01v-2.12l.56-.01c2.21-.09 3.41-1.13 3.59-3.1zm-1.7-.97c.41 0 .76-.11 1.06-.32.3-.21.52-.47.67-.77v-1.05c0-.86-.16-1.53-.49-2.01-.33-.47-.77-.71-1.32-.71-.51 0-.93.23-1.26.7-.33.47-.49 1.05-.49 1.76 0 .7.16 1.27.48 1.72s.77.68 1.35.68zM165.18 445.99h-1.89l4.72-13.92h1.89l-4.72 13.92zM173.5 435.36l.08 1.07c.67-.83 1.59-1.24 2.74-1.24 1.23 0 2.07.48 2.53 1.45.67-.97 1.62-1.45 2.86-1.45 1.03 0 1.8.3 2.31.9s.76 1.51.76 2.72v6.08h-2.55v-6.07c0-.54-.11-.93-.32-1.18-.21-.25-.58-.37-1.12-.37-.76 0-1.29.36-1.58 1.09l.01 6.54h-2.54v-6.06c0-.55-.11-.95-.33-1.2-.22-.25-.59-.37-1.11-.37-.72 0-1.24.3-1.57.9v6.73h-2.54v-9.52h2.37zM186.32 440.04c0-.94.18-1.79.54-2.53.36-.74.89-1.31 1.57-1.72s1.48-.61 2.38-.61c1.29 0 2.33.39 3.15 1.18.81.79 1.27 1.85 1.36 3.2l.02.65c0 1.46-.41 2.63-1.22 3.52-.82.88-1.91 1.32-3.28 1.32-1.37 0-2.47-.44-3.29-1.32s-1.23-2.08-1.23-3.59v-.1zm2.54.18c0 .91.17 1.6.51 2.08.34.48.83.72 1.46.72.62 0 1.1-.24 1.44-.71.35-.47.52-1.23.52-2.27 0-.89-.17-1.58-.52-2.06-.35-.49-.83-.73-1.46-.73-.62 0-1.1.24-1.44.73-.33.47-.51 1.22-.51 2.24zM199.25 435.36l.08 1.1c.68-.85 1.59-1.28 2.74-1.28 1.01 0 1.76.3 2.25.89.49.59.75 1.48.76 2.66v6.15h-2.54v-6.09c0-.54-.12-.93-.35-1.18-.24-.24-.62-.37-1.17-.37-.72 0-1.25.31-1.61.92v6.72h-2.54v-9.52h2.38zM210.05 433.02v2.34h1.63v1.87h-1.63v4.75c0 .35.07.6.2.76.13.15.39.23.77.23.28 0 .53-.02.75-.06v1.93c-.5.15-1.01.23-1.54.23-1.78 0-2.69-.9-2.73-2.7v-5.13h-1.39v-1.87h1.39v-2.34h2.55zM215.58 436.4c.67-.81 1.52-1.21 2.54-1.21 2.07 0 3.11 1.2 3.14 3.6v6.1h-2.54v-6.03c0-.55-.12-.95-.35-1.21-.23-.26-.62-.39-1.17-.39-.75 0-1.29.29-1.62.86v6.77h-2.54v-13.52h2.54v5.03z"/></svg>