<svg id="Layer_1" xmlns="http://www.w3.org/2000/svg" viewBox="0 0 300 600"><style>.st0{fill:#e82d8a}.st1{fill:#fff}</style><path class="st0" d="M211.45 282.94H88.96c-20.05 0-36.3-16.25-36.3-36.3 0-20.05 16.25-36.3 36.3-36.3h122.49c20.05 0 36.3 16.25 36.3 36.3 0 20.05-16.25 36.3-36.3 36.3z"/><path class="st1" d="M124.5 239.4c-.17 1.84-.85 3.28-2.04 4.31-1.19 1.03-2.76 1.55-4.73 1.55-1.38 0-2.59-.33-3.64-.98-1.05-.65-1.86-1.58-2.43-2.78-.57-1.2-.87-2.6-.89-4.19v-1.61c0-1.63.29-3.07.87-4.31.58-1.24 1.41-2.2 2.49-2.87 1.08-.67 2.33-1.01 3.74-1.01 1.91 0 3.44.52 4.61 1.55 1.16 1.03 1.84 2.49 2.03 4.39h-2.99c-.14-1.24-.5-2.14-1.09-2.69-.58-.55-1.43-.82-2.56-.82-1.3 0-2.31.48-3.01 1.43s-1.06 2.35-1.07 4.2v1.53c0 1.87.33 3.29 1 4.28.67.98 1.65 1.47 2.94 1.47 1.18 0 2.06-.26 2.66-.79.59-.53.97-1.41 1.13-2.65h2.98zM129.97 245.03h-2.88V226.8h2.88v18.23zM133.11 228.85c0-.44.14-.81.42-1.1.28-.29.68-.44 1.21-.44s.93.15 1.21.44c.29.29.43.66.43 1.1 0 .43-.14.8-.43 1.09-.28.29-.69.43-1.21.43s-.92-.14-1.21-.43c-.28-.29-.42-.65-.42-1.09zm3.06 16.18h-2.88v-12.84h2.88v12.84zM144.59 242.96c.72 0 1.32-.21 1.79-.63.47-.42.73-.94.76-1.55h2.72c-.03.8-.28 1.54-.75 2.24-.47.69-1.1 1.24-1.9 1.64s-1.66.61-2.59.61c-1.8 0-3.22-.58-4.27-1.74-1.05-1.16-1.58-2.77-1.58-4.82v-.3c0-1.95.52-3.52 1.57-4.69s2.47-1.76 4.27-1.76c1.53 0 2.77.45 3.73 1.33.96.89 1.46 2.06 1.51 3.51h-2.72c-.03-.74-.28-1.34-.75-1.82s-1.07-.71-1.8-.71c-.93 0-1.65.34-2.16 1.01-.51.68-.76 1.7-.77 3.08v.46c0 1.39.25 2.43.75 3.12.51.68 1.24 1.02 2.19 1.02zM156.21 239.52l-1.28 1.32v4.19h-2.88V226.8h2.88v10.51l.9-1.13 3.55-4h3.46l-4.77 5.35 5.28 7.49h-3.33l-3.81-5.5zM174.39 229.07v3.12h2.27v2.14h-2.27v7.17c0 .49.1.84.29 1.06.19.22.54.33 1.04.33.33 0 .67-.04 1.01-.12V245c-.66.18-1.29.27-1.9.27-2.22 0-3.32-1.22-3.32-3.67v-7.27h-2.11v-2.14h2.11v-3.12h2.88zM177.96 238.49c0-1.26.25-2.39.75-3.4.5-1.01 1.2-1.78 2.1-2.33.9-.54 1.94-.81 3.11-.81 1.73 0 3.14.56 4.22 1.67 1.08 1.12 1.66 2.59 1.75 4.44l.01.68c0 1.27-.24 2.4-.73 3.39-.49 1-1.18 1.77-2.09 2.31-.91.55-1.95.82-3.14.82-1.81 0-3.26-.6-4.35-1.81s-1.63-2.81-1.63-4.82v-.14zm2.88.25c0 1.32.27 2.36.82 3.1.55.75 1.31 1.12 2.28 1.12.97 0 1.73-.38 2.27-1.14s.81-1.87.81-3.33c0-1.3-.28-2.33-.84-3.08-.56-.76-1.32-1.14-2.27-1.14-.94 0-1.69.37-2.24 1.12-.55.74-.83 1.86-.83 3.35zM96.21 267.81h-2.88v-18.23h2.88v18.23zM105 268.05c-1.83 0-3.31-.58-4.44-1.73-1.13-1.15-1.7-2.68-1.7-4.6v-.36c0-1.28.25-2.43.74-3.44s1.19-1.79 2.08-2.36c.89-.56 1.89-.84 2.99-.84 1.75 0 3.1.56 4.05 1.67s1.43 2.69 1.43 4.74v1.16h-8.39c.09 1.06.44 1.9 1.06 2.52.62.62 1.4.93 2.34.93 1.32 0 2.4-.53 3.23-1.6l1.55 1.48c-.51.77-1.2 1.36-2.06 1.79s-1.81.64-2.88.64zm-.34-11c-.79 0-1.43.28-1.92.83-.49.55-.8 1.33-.93 2.31h5.49v-.21c-.06-.97-.32-1.7-.77-2.19s-1.07-.74-1.87-.74zM120.06 267.81c-.13-.25-.24-.64-.33-1.2-.92.96-2.04 1.44-3.37 1.44-1.29 0-2.34-.37-3.16-1.1-.81-.74-1.22-1.65-1.22-2.73 0-1.37.51-2.42 1.52-3.15 1.02-.73 2.47-1.1 4.36-1.1h1.77v-.84c0-.67-.19-1.2-.56-1.6-.37-.4-.94-.6-1.7-.6-.66 0-1.19.16-1.61.49-.42.33-.63.75-.63 1.25h-2.88c0-.7.23-1.36.7-1.98.47-.61 1.1-1.09 1.91-1.44.8-.35 1.7-.52 2.69-.52 1.5 0 2.7.38 3.6 1.13.89.76 1.35 1.82 1.38 3.19v5.79c0 1.16.16 2.08.49 2.76v.2h-2.96zm-3.16-2.07c.57 0 1.11-.14 1.61-.42.5-.28.88-.65 1.13-1.12v-2.42h-1.55c-1.07 0-1.87.19-2.41.56s-.81.9-.81 1.58c0 .55.18 1 .55 1.32.37.33.86.5 1.48.5zM132.26 257.61c-.38-.06-.77-.09-1.17-.09-1.32 0-2.21.51-2.67 1.52v8.78h-2.88v-12.84h2.75l.07 1.44c.7-1.12 1.66-1.67 2.9-1.67.41 0 .75.06 1.02.17l-.02 2.69zM136.76 254.97l.08 1.48c.95-1.15 2.2-1.72 3.74-1.72 2.67 0 4.04 1.53 4.08 4.59v8.49h-2.88v-8.32c0-.81-.18-1.42-.53-1.81-.35-.39-.93-.59-1.73-.59-1.16 0-2.03.53-2.6 1.58v9.14h-2.88v-12.84h2.72zM156.37 254.97l.08 1.34c.9-1.05 2.14-1.58 3.7-1.58 1.72 0 2.89.66 3.52 1.97.93-1.31 2.25-1.97 3.94-1.97 1.42 0 2.47.39 3.16 1.17s1.05 1.94 1.06 3.47v8.44h-2.88v-8.35c0-.81-.18-1.41-.53-1.79-.36-.38-.95-.57-1.77-.57-.66 0-1.19.18-1.61.53-.42.35-.71.81-.87 1.38l.01 8.81h-2.88v-8.45c-.04-1.51-.81-2.27-2.31-2.27-1.16 0-1.97.47-2.46 1.41v9.3h-2.88v-12.84h2.72zM174.26 261.27c0-1.26.25-2.39.75-3.4.5-1.01 1.2-1.78 2.1-2.33.9-.54 1.94-.81 3.11-.81 1.73 0 3.14.56 4.22 1.67 1.08 1.12 1.66 2.59 1.75 4.44l.01.68c0 1.27-.24 2.4-.73 3.39-.49 1-1.18 1.77-2.09 2.31-.91.55-1.95.82-3.14.82-1.81 0-3.26-.6-4.35-1.81s-1.63-2.81-1.63-4.82v-.14zm2.89.25c0 1.32.27 2.36.82 3.1.55.75 1.31 1.12 2.28 1.12.97 0 1.73-.38 2.27-1.14s.81-1.87.81-3.33c0-1.3-.28-2.33-.84-3.08-.56-.76-1.32-1.14-2.27-1.14-.94 0-1.69.37-2.24 1.12-.56.75-.83 1.87-.83 3.35zM195.36 257.61c-.38-.06-.77-.09-1.17-.09-1.32 0-2.21.51-2.67 1.52v8.78h-2.88v-12.84h2.75l.07 1.44c.7-1.12 1.66-1.67 2.9-1.67.41 0 .75.06 1.02.17l-.02 2.69zM202.84 268.05c-1.83 0-3.31-.58-4.44-1.73-1.13-1.15-1.7-2.68-1.7-4.6v-.36c0-1.28.25-2.43.74-3.44s1.19-1.79 2.08-2.36c.89-.56 1.89-.84 2.99-.84 1.75 0 3.1.56 4.05 1.67s1.43 2.69 1.43 4.74v1.16h-8.39c.09 1.06.44 1.9 1.06 2.52.62.62 1.4.93 2.34.93 1.32 0 2.4-.53 3.23-1.6l1.55 1.48c-.51.77-1.2 1.36-2.06 1.79s-1.81.64-2.88.64zm-.34-11c-.79 0-1.43.28-1.92.83-.49.55-.8 1.33-.93 2.31h5.49v-.21c-.06-.97-.32-1.7-.77-2.19s-1.08-.74-1.87-.74z"/></svg>