<?xml version="1.0" encoding="utf-8"?>
<!-- Generator: Adobe Illustrator 25.2.1, SVG Export Plug-In . SVG Version: 6.00 Build 0)  -->
<svg version="1.1" id="Layer_1" xmlns="http://www.w3.org/2000/svg" xmlns:xlink="http://www.w3.org/1999/xlink" x="0px" y="0px"
	 viewBox="0 0 160 600" style="enable-background:new 0 0 160 600;" xml:space="preserve">
<style type="text/css">
	.st0{fill:#021D8B;}
</style>
<g>
	<path class="st0" d="M39.16,215.11h-3.08v-12.8h3.08V215.11z"/>
	<path class="st0" d="M44.62,203.24v2.36h1.56v2.06h-1.56v4.35c0,0.36,0.06,0.61,0.19,0.75s0.38,0.21,0.76,0.21
		c0.29,0,0.54-0.02,0.74-0.05v2.12c-0.53,0.17-1.09,0.25-1.67,0.25c-1.02,0-1.77-0.24-2.26-0.72s-0.73-1.21-0.73-2.19v-4.72h-1.21
		v-2.06h1.21v-2.36H44.62z"/>
	<path class="st0" d="M49,203.03l-0.29,3.63h-1.82v-5.05H49V203.03z"/>
	<path class="st0" d="M54.29,212.44c0-0.25-0.13-0.45-0.4-0.61s-0.76-0.31-1.5-0.47s-1.35-0.38-1.83-0.65s-0.85-0.59-1.1-0.97
		s-0.38-0.82-0.38-1.31c0-0.87,0.36-1.59,1.08-2.16s1.66-0.85,2.83-0.85c1.25,0,2.26,0.28,3.02,0.85s1.14,1.32,1.14,2.24H54.2
		c0-0.76-0.4-1.14-1.2-1.14c-0.31,0-0.57,0.09-0.78,0.26s-0.32,0.39-0.32,0.65c0,0.26,0.13,0.48,0.39,0.64s0.67,0.3,1.23,0.4
		s1.06,0.23,1.49,0.38c1.43,0.49,2.14,1.37,2.14,2.65c0,0.87-0.39,1.57-1.16,2.12s-1.77,0.82-2.99,0.82c-0.81,0-1.54-0.15-2.18-0.44
		s-1.14-0.69-1.49-1.2s-0.54-1.03-0.54-1.59h2.77c0.01,0.44,0.16,0.76,0.44,0.96s0.64,0.3,1.08,0.3c0.4,0,0.71-0.08,0.91-0.25
		S54.29,212.7,54.29,212.44z"/>
	<path class="st0" d="M66.47,203.24v2.36h1.56v2.06h-1.56v4.35c0,0.36,0.06,0.61,0.19,0.75s0.38,0.21,0.76,0.21
		c0.29,0,0.54-0.02,0.74-0.05v2.12c-0.53,0.17-1.09,0.25-1.67,0.25c-1.02,0-1.77-0.24-2.26-0.72s-0.73-1.21-0.73-2.19v-4.72h-1.21
		v-2.06h1.21v-2.36H66.47z"/>
	<path class="st0" d="M69.17,203.15c0-0.42,0.15-0.77,0.46-1.04s0.7-0.4,1.19-0.4s0.88,0.13,1.19,0.4s0.46,0.62,0.46,1.04
		s-0.15,0.77-0.46,1.04s-0.7,0.4-1.19,0.4s-0.88-0.13-1.19-0.4S69.17,203.57,69.17,203.15z M72.32,215.11h-2.97v-9.51h2.97V215.11z"
		/>
	<path class="st0" d="M76.94,205.6l0.1,1.12c0.67-0.86,1.58-1.29,2.72-1.29c1.2,0,2.01,0.48,2.43,1.43
		c0.64-0.96,1.58-1.43,2.79-1.43c1.93,0,2.92,1.17,2.97,3.5v6.19h-2.97v-6c0-0.49-0.08-0.84-0.25-1.06s-0.46-0.33-0.9-0.33
		c-0.59,0-1.02,0.26-1.31,0.78l0.01,0.12v6.5h-2.97v-5.99c0-0.5-0.08-0.86-0.24-1.08s-0.46-0.33-0.91-0.33c-0.57,0-1,0.26-1.3,0.78
		v6.62h-2.96v-9.51H76.94z"/>
	<path class="st0" d="M94.25,215.29c-1.46,0-2.64-0.44-3.54-1.31s-1.35-2-1.35-3.4v-0.25c0-0.97,0.18-1.83,0.54-2.58
		s0.89-1.32,1.58-1.73s1.51-0.61,2.46-0.61c1.34,0,2.39,0.41,3.16,1.24s1.16,1.98,1.16,3.47v1.15h-5.89
		c0.11,0.53,0.34,0.95,0.69,1.26s0.82,0.46,1.39,0.46c0.94,0,1.67-0.33,2.2-0.98l1.35,1.6c-0.37,0.51-0.89,0.92-1.57,1.22
		S95.03,215.29,94.25,215.29z M93.91,207.71c-0.87,0-1.38,0.57-1.55,1.72h2.99v-0.23c0.01-0.47-0.11-0.84-0.36-1.1
		S94.38,207.71,93.91,207.71z"/>
	<path class="st0" d="M107.38,203.24v2.36h1.56v2.06h-1.56v4.35c0,0.36,0.06,0.61,0.19,0.75s0.38,0.21,0.76,0.21
		c0.29,0,0.54-0.02,0.74-0.05v2.12c-0.53,0.17-1.09,0.25-1.67,0.25c-1.02,0-1.77-0.24-2.26-0.72s-0.73-1.21-0.73-2.19v-4.72h-1.21
		v-2.06h1.21v-2.36H107.38z"/>
	<path class="st0" d="M109.47,210.27c0-0.95,0.18-1.79,0.55-2.54s0.9-1.31,1.59-1.71s1.5-0.6,2.43-0.6c1.42,0,2.55,0.44,3.37,1.32
		s1.23,2.08,1.23,3.6v0.11c0,1.48-0.41,2.66-1.23,3.53s-1.94,1.31-3.34,1.31c-1.35,0-2.44-0.41-3.26-1.22s-1.26-1.91-1.33-3.3
		L109.47,210.27z M112.43,210.45c0,0.88,0.14,1.52,0.41,1.93s0.68,0.62,1.22,0.62c1.05,0,1.59-0.81,1.62-2.43v-0.3
		c0-1.71-0.54-2.56-1.63-2.56c-0.99,0-1.53,0.74-1.61,2.21L112.43,210.45z"/>
	<path class="st0" d="M22.95,233.17L22.11,234v2.71h-2.96V223.2h2.96v7.17l0.3-0.4l2.23-2.78h3.55l-3.33,3.91l3.55,5.6h-3.39
		L22.95,233.17z"/>
	<path class="st0" d="M33.57,236.89c-1.46,0-2.64-0.44-3.54-1.3c-0.9-0.87-1.35-2-1.35-3.4v-0.25c0-0.97,0.18-1.83,0.54-2.58
		s0.89-1.32,1.58-1.73s1.51-0.61,2.46-0.61c1.34,0,2.39,0.42,3.16,1.24s1.16,1.98,1.16,3.47v1.15h-5.89
		c0.11,0.53,0.34,0.95,0.69,1.26s0.82,0.46,1.39,0.46c0.94,0,1.67-0.33,2.2-0.98l1.35,1.6c-0.37,0.51-0.89,0.92-1.57,1.22
		C35.08,236.74,34.35,236.89,33.57,236.89z M33.24,229.31c-0.87,0-1.38,0.57-1.55,1.72h2.99v-0.23c0.01-0.47-0.11-0.84-0.36-1.1
		C34.07,229.44,33.71,229.31,33.24,229.31z"/>
	<path class="st0" d="M43.37,236.89c-1.46,0-2.64-0.44-3.54-1.3c-0.9-0.87-1.35-2-1.35-3.4v-0.25c0-0.97,0.18-1.83,0.54-2.58
		s0.89-1.32,1.58-1.73s1.51-0.61,2.46-0.61c1.34,0,2.39,0.42,3.16,1.24s1.16,1.98,1.16,3.47v1.15h-5.89
		c0.11,0.53,0.34,0.95,0.69,1.26s0.82,0.46,1.39,0.46c0.94,0,1.67-0.33,2.2-0.98l1.35,1.6c-0.37,0.51-0.89,0.92-1.57,1.22
		C44.88,236.74,44.15,236.89,43.37,236.89z M43.04,229.31c-0.87,0-1.38,0.57-1.55,1.72h2.99v-0.23c0.01-0.47-0.11-0.84-0.36-1.1
		C43.87,229.44,43.51,229.31,43.04,229.31z"/>
	<path class="st0" d="M57.4,232.03c0,1.48-0.33,2.66-1,3.54s-1.56,1.32-2.69,1.32c-0.87,0-1.59-0.32-2.15-0.96v4.44h-2.96V227.2
		h2.77l0.09,0.88c0.57-0.7,1.32-1.05,2.24-1.05c1.17,0,2.08,0.43,2.73,1.3s0.98,2.05,0.98,3.56V232.03z M54.44,231.84
		c0-1.69-0.49-2.53-1.48-2.53c-0.7,0-1.17,0.25-1.41,0.76v3.74c0.26,0.53,0.73,0.79,1.42,0.79c0.94,0,1.43-0.81,1.46-2.44V231.84z"
		/>
	<path class="st0" d="M68.54,236.71c-0.11-0.19-0.2-0.48-0.28-0.85c-0.54,0.69-1.31,1.03-2.29,1.03c-0.9,0-1.66-0.27-2.29-0.81
		s-0.94-1.22-0.94-2.04c0-1.03,0.38-1.81,1.14-2.34s1.87-0.79,3.32-0.79h0.91v-0.5c0-0.88-0.38-1.32-1.13-1.32
		c-0.7,0-1.05,0.35-1.05,1.04h-2.96c0-0.92,0.39-1.67,1.17-2.24s1.78-0.86,2.99-0.86s2.17,0.3,2.87,0.89s1.06,1.4,1.08,2.43v4.21
		c0.01,0.87,0.15,1.54,0.4,2v0.15H68.54z M66.69,234.78c0.37,0,0.68-0.08,0.92-0.24s0.42-0.34,0.52-0.54v-1.52h-0.86
		c-1.03,0-1.55,0.46-1.55,1.39c0,0.27,0.09,0.49,0.27,0.66C66.18,234.69,66.41,234.78,66.69,234.78z"/>
	<path class="st0" d="M75.46,227.2l0.1,1.12c0.66-0.86,1.56-1.29,2.72-1.29c0.99,0,1.73,0.3,2.22,0.89s0.74,1.48,0.76,2.67v6.13
		h-2.97v-6c0-0.48-0.1-0.83-0.29-1.06c-0.19-0.22-0.54-0.34-1.05-0.34c-0.58,0-1.01,0.23-1.29,0.69v6.71h-2.96v-9.51H75.46z"/>
	<path class="st0" d="M91.98,236.89c-1.46,0-2.64-0.44-3.54-1.3c-0.9-0.87-1.35-2-1.35-3.4v-0.25c0-0.97,0.18-1.83,0.54-2.58
		s0.89-1.32,1.58-1.73s1.51-0.61,2.46-0.61c1.34,0,2.39,0.42,3.16,1.24s1.16,1.98,1.16,3.47v1.15H90.1
		c0.11,0.53,0.34,0.95,0.69,1.26s0.82,0.46,1.39,0.46c0.94,0,1.67-0.33,2.2-0.98l1.35,1.6c-0.37,0.51-0.89,0.92-1.57,1.22
		C93.48,236.74,92.76,236.89,91.98,236.89z M91.64,229.31c-0.87,0-1.38,0.57-1.55,1.72h2.99v-0.23c0.01-0.47-0.11-0.84-0.36-1.1
		C92.47,229.44,92.11,229.31,91.64,229.31z"/>
	<path class="st0" d="M100.98,232.56l1.58-5.36h3.17l-3.88,11.1l-0.17,0.4c-0.55,1.23-1.52,1.85-2.92,1.85
		c-0.39,0-0.79-0.06-1.22-0.17v-2.11h0.39c0.42,0,0.73-0.06,0.95-0.18s0.38-0.33,0.49-0.65l0.24-0.63l-3.3-9.61h3.16L100.98,232.56z
		"/>
	<path class="st0" d="M111.1,236.89c-1.46,0-2.64-0.44-3.54-1.3c-0.9-0.87-1.35-2-1.35-3.4v-0.25c0-0.97,0.18-1.83,0.54-2.58
		s0.89-1.32,1.58-1.73s1.51-0.61,2.46-0.61c1.34,0,2.39,0.42,3.16,1.24s1.16,1.98,1.16,3.47v1.15h-5.89
		c0.11,0.53,0.34,0.95,0.69,1.26s0.82,0.46,1.39,0.46c0.94,0,1.67-0.33,2.2-0.98l1.35,1.6c-0.37,0.51-0.89,0.92-1.57,1.22
		C112.61,236.74,111.88,236.89,111.1,236.89z M110.77,229.31c-0.87,0-1.38,0.57-1.55,1.72h2.99v-0.23c0.01-0.47-0.11-0.84-0.36-1.1
		C111.6,229.44,111.24,229.31,110.77,229.31z"/>
	<path class="st0" d="M120.41,231.87c0-0.95,0.18-1.79,0.55-2.54c0.37-0.74,0.9-1.31,1.59-1.71s1.5-0.6,2.43-0.6
		c1.42,0,2.55,0.44,3.37,1.32c0.82,0.88,1.23,2.08,1.23,3.6v0.11c0,1.48-0.41,2.66-1.24,3.53c-0.82,0.87-1.94,1.3-3.34,1.3
		c-1.35,0-2.44-0.41-3.26-1.22s-1.26-1.91-1.33-3.3L120.41,231.87z M123.37,232.05c0,0.88,0.14,1.52,0.41,1.93s0.68,0.62,1.22,0.62
		c1.05,0,1.59-0.81,1.62-2.43v-0.3c0-1.71-0.54-2.56-1.63-2.56c-0.99,0-1.53,0.74-1.61,2.21L123.37,232.05z"/>
	<path class="st0" d="M133.61,227.2l0.1,1.12c0.66-0.86,1.56-1.29,2.72-1.29c0.99,0,1.73,0.3,2.22,0.89s0.74,1.48,0.76,2.67v6.13
		h-2.97v-6c0-0.48-0.1-0.83-0.29-1.06c-0.19-0.22-0.54-0.34-1.05-0.34c-0.58,0-1.01,0.23-1.29,0.69v6.71h-2.96v-9.51H133.61z"/>
	<path class="st0" d="M29.9,254.16l1.58-5.36h3.17l-3.88,11.1l-0.17,0.4c-0.55,1.23-1.52,1.85-2.92,1.85
		c-0.39,0-0.79-0.06-1.22-0.17v-2.11h0.39c0.42,0,0.73-0.06,0.95-0.18s0.38-0.33,0.49-0.65l0.24-0.63l-3.3-9.61h3.16L29.9,254.16z"
		/>
	<path class="st0" d="M35.05,253.47c0-0.95,0.18-1.79,0.55-2.54c0.37-0.74,0.9-1.31,1.59-1.71s1.5-0.6,2.43-0.6
		c1.42,0,2.55,0.44,3.37,1.32c0.82,0.88,1.23,2.08,1.23,3.6v0.11c0,1.48-0.41,2.66-1.23,3.53c-0.82,0.87-1.94,1.3-3.34,1.3
		c-1.35,0-2.44-0.41-3.26-1.22s-1.26-1.91-1.33-3.3L35.05,253.47z M38.01,253.65c0,0.88,0.14,1.52,0.41,1.93s0.68,0.62,1.22,0.62
		c1.05,0,1.59-0.81,1.62-2.43v-0.3c0-1.71-0.54-2.56-1.63-2.56c-0.99,0-1.53,0.74-1.61,2.21L38.01,253.65z"/>
	<path class="st0" d="M51.19,257.28c-0.63,0.8-1.47,1.2-2.54,1.2c-1.04,0-1.83-0.3-2.37-0.91c-0.54-0.61-0.8-1.48-0.8-2.61v-6.16
		h2.96v6.18c0,0.81,0.4,1.22,1.19,1.22c0.68,0,1.16-0.24,1.45-0.73v-6.67h2.98v9.51h-2.78L51.19,257.28z"/>
	<path class="st0" d="M61.43,251.48l-0.98-0.07c-0.93,0-1.53,0.29-1.79,0.88v6.02H55.7v-9.51h2.78l0.1,1.22
		c0.5-0.93,1.19-1.4,2.08-1.4c0.32,0,0.59,0.04,0.83,0.11L61.43,251.48z"/>
	<path class="st0" d="M66.96,246.35c0-0.42,0.15-0.77,0.46-1.04s0.7-0.4,1.19-0.4s0.88,0.13,1.19,0.4s0.46,0.62,0.46,1.04
		s-0.15,0.77-0.46,1.04s-0.7,0.4-1.19,0.4s-0.88-0.13-1.19-0.4S66.96,246.77,66.96,246.35z M70.1,258.31h-2.97v-9.51h2.97V258.31z"
		/>
	<path class="st0" d="M71.56,253.49c0-1.51,0.33-2.69,0.98-3.56s1.56-1.3,2.72-1.3c0.85,0,1.56,0.33,2.14,1v-4.82h2.97v13.5h-2.66
		l-0.15-1.02c-0.61,0.8-1.38,1.2-2.32,1.2c-1.13,0-2.03-0.43-2.69-1.3S71.56,255.08,71.56,253.49z M74.52,253.67
		c0,1.69,0.49,2.53,1.48,2.53c0.66,0,1.12-0.28,1.41-0.83v-3.62c-0.27-0.56-0.73-0.84-1.39-0.84c-0.91,0-1.41,0.74-1.49,2.21
		L74.52,253.67z"/>
	<path class="st0" d="M86.65,258.49c-1.46,0-2.64-0.44-3.54-1.3c-0.9-0.87-1.35-2-1.35-3.4v-0.25c0-0.97,0.18-1.83,0.54-2.58
		s0.89-1.32,1.58-1.73s1.51-0.61,2.46-0.61c1.34,0,2.39,0.42,3.16,1.24s1.16,1.98,1.16,3.47v1.15h-5.89
		c0.11,0.53,0.34,0.95,0.69,1.26s0.82,0.46,1.39,0.46c0.94,0,1.67-0.33,2.2-0.98l1.35,1.6c-0.37,0.51-0.89,0.92-1.57,1.22
		C88.16,258.33,87.43,258.49,86.65,258.49z M86.32,250.91c-0.87,0-1.38,0.57-1.55,1.72h2.99v-0.23c0.01-0.47-0.11-0.84-0.36-1.1
		C87.15,251.04,86.79,250.91,86.32,250.91z"/>
	<path class="st0" d="M94.57,248.8l0.1,1.12c0.66-0.86,1.56-1.29,2.72-1.29c0.99,0,1.73,0.3,2.22,0.89s0.74,1.48,0.76,2.67v6.13
		h-2.97v-6c0-0.48-0.1-0.83-0.29-1.06c-0.19-0.22-0.54-0.34-1.05-0.34c-0.58,0-1.01,0.23-1.29,0.69v6.71H91.8v-9.51H94.57z"/>
	<path class="st0" d="M105.45,246.44v2.36h1.56v2.06h-1.56v4.35c0,0.36,0.06,0.61,0.19,0.75s0.38,0.21,0.76,0.21
		c0.29,0,0.54-0.02,0.74-0.05v2.12c-0.53,0.17-1.09,0.25-1.67,0.25c-1.02,0-1.77-0.24-2.26-0.72s-0.73-1.21-0.73-2.19v-4.72h-1.21
		v-2.06h1.21v-2.36H105.45z"/>
	<path class="st0" d="M108.16,246.35c0-0.42,0.15-0.77,0.46-1.04s0.7-0.4,1.19-0.4s0.88,0.13,1.19,0.4s0.46,0.62,0.46,1.04
		s-0.15,0.77-0.46,1.04s-0.7,0.4-1.19,0.4s-0.88-0.13-1.19-0.4S108.16,246.77,108.16,246.35z M111.31,258.31h-2.97v-9.51h2.97
		V258.31z"/>
	<path class="st0" d="M116.58,246.44v2.36h1.56v2.06h-1.56v4.35c0,0.36,0.06,0.61,0.19,0.75s0.38,0.21,0.76,0.21
		c0.29,0,0.54-0.02,0.74-0.05v2.12c-0.53,0.17-1.09,0.25-1.67,0.25c-1.02,0-1.77-0.24-2.26-0.72s-0.73-1.21-0.73-2.19v-4.72h-1.21
		v-2.06h1.21v-2.36H116.58z"/>
	<path class="st0" d="M123.11,254.16l1.58-5.36h3.17l-3.88,11.1l-0.17,0.4c-0.55,1.23-1.52,1.85-2.92,1.85
		c-0.39,0-0.79-0.06-1.22-0.17v-2.11h0.39c0.42,0,0.73-0.06,0.95-0.18s0.38-0.33,0.49-0.65l0.24-0.63l-3.3-9.61h3.16L123.11,254.16z
		"/>
	<path class="st0" d="M130.47,255.44c0.47,0,0.86,0.14,1.17,0.42c0.31,0.28,0.47,0.63,0.47,1.07s-0.16,0.79-0.47,1.07
		s-0.7,0.42-1.17,0.42c-0.47,0-0.87-0.14-1.17-0.42s-0.46-0.64-0.46-1.06s0.15-0.78,0.46-1.06S129.99,255.44,130.47,255.44z"/>
</g>
</svg>
