<?xml version="1.0" encoding="utf-8"?>
<!-- Generator: Adobe Illustrator 25.2.1, SVG Export Plug-In . SVG Version: 6.00 Build 0)  -->
<svg version="1.1" id="Layer_1" xmlns="http://www.w3.org/2000/svg" xmlns:xlink="http://www.w3.org/1999/xlink" x="0px" y="0px"
	 viewBox="0 0 160 600" style="enable-background:new 0 0 160 600;" xml:space="preserve">
<style type="text/css">
	.st0{fill:#021D8B;stroke:url(#SVGID_1_);stroke-width:2;stroke-miterlimit:10;}
	.st1{fill:#FFFFFF;}
</style>
<linearGradient id="SVGID_1_" gradientUnits="userSpaceOnUse" x1="21.1887" y1="366.7778" x2="134.8525" y2="366.7778">
	<stop  offset="0" style="stop-color:#18B9FB"/>
	<stop  offset="0.5" style="stop-color:#782EEB"/>
	<stop  offset="1" style="stop-color:#E82D8A"/>
</linearGradient>
<path class="st0" d="M117.05,398.05H38.99c-9.28,0-16.8-7.52-16.8-16.8v-28.94c0-9.28,7.52-16.8,16.8-16.8h78.06
	c9.28,0,16.8,7.52,16.8,16.8v28.94C133.85,390.53,126.33,398.05,117.05,398.05z"/>
<g>
	<path class="st1" d="M70.66,351.62h-4.65v12.64h-3.13v-12.64H58.3v-2.53h12.36V351.62z"/>
	<path class="st1" d="M78.06,358.71h-2.49v5.55h-3.13v-15.17h5.64c1.79,0,3.18,0.4,4.15,1.2c0.97,0.8,1.46,1.93,1.46,3.39
		c0,1.04-0.22,1.9-0.67,2.59s-1.13,1.24-2.04,1.65l3.28,6.2v0.15H80.9L78.06,358.71z M75.57,356.17h2.52c0.79,0,1.39-0.2,1.82-0.6
		c0.43-0.4,0.65-0.95,0.65-1.65c0-0.72-0.2-1.28-0.61-1.69c-0.41-0.41-1.03-0.62-1.87-0.62h-2.51V356.17z"/>
	<path class="st1" d="M90.79,355.92l3.16-6.84h3.42l-4.98,9.67v5.5h-3.18v-5.5l-4.98-9.67h3.43L90.79,355.92z"/>
	<path class="st1" d="M56.66,372.21h-4.65v12.64h-3.13v-12.64H44.3v-2.53h12.36V372.21z"/>
	<path class="st1" d="M70.62,377.61c0,1.49-0.26,2.8-0.79,3.93c-0.53,1.13-1.28,1.99-2.27,2.61c-0.98,0.61-2.11,0.92-3.38,0.92
		c-1.26,0-2.38-0.3-3.37-0.91c-0.99-0.6-1.75-1.47-2.29-2.59s-0.82-2.41-0.82-3.87v-0.75c0-1.49,0.27-2.81,0.81-3.95
		s1.3-2.01,2.28-2.62c0.98-0.61,2.11-0.91,3.37-0.91c1.26,0,2.39,0.3,3.37,0.91c0.98,0.61,1.74,1.48,2.28,2.62s0.81,2.45,0.81,3.93
		V377.61z M67.45,376.92c0-1.59-0.29-2.8-0.85-3.63c-0.57-0.83-1.38-1.24-2.44-1.24c-1.05,0-1.86,0.41-2.43,1.22
		s-0.86,2.01-0.86,3.59v0.74c0,1.55,0.28,2.75,0.85,3.61c0.57,0.85,1.39,1.28,2.46,1.28c1.05,0,1.86-0.41,2.42-1.24
		c0.56-0.82,0.85-2.02,0.85-3.6V376.92z"/>
	<path class="st1" d="M72.89,384.85v-15.17h4.67c1.33,0,2.53,0.3,3.58,0.9c1.05,0.6,1.88,1.46,2.46,2.56
		c0.59,1.11,0.89,2.37,0.89,3.78v0.7c0,1.41-0.29,2.67-0.87,3.76s-1.4,1.95-2.45,2.55c-1.06,0.6-2.25,0.91-3.58,0.92H72.89z
		 M76.01,372.21v10.13h1.51c1.22,0,2.16-0.4,2.8-1.2c0.65-0.8,0.98-1.94,0.99-3.43v-0.8c0-1.54-0.32-2.71-0.96-3.51
		c-0.64-0.79-1.57-1.19-2.8-1.19H76.01z"/>
	<path class="st1" d="M95.33,381.72h-5.48l-1.04,3.13h-3.33l5.65-15.17h2.9l5.68,15.17h-3.33L95.33,381.72z M90.69,379.19h3.79
		l-1.91-5.68L90.69,379.19z"/>
	<path class="st1" d="M104.79,376.51l3.16-6.84h3.42l-4.98,9.67v5.5h-3.18v-5.5l-4.98-9.67h3.43L104.79,376.51z"/>
</g>
</svg>
