<?xml version="1.0" encoding="utf-8"?>
<!-- Generator: Adobe Illustrator 24.2.3, SVG Export Plug-In . SVG Version: 6.00 Build 0)  -->
<svg version="1.1" id="Layer_1" xmlns="http://www.w3.org/2000/svg" xmlns:xlink="http://www.w3.org/1999/xlink" x="0px" y="0px"
	 viewBox="0 0 300 600" style="enable-background:new 0 0 300 600;" xml:space="preserve">
<style type="text/css">
	.st0{fill:#021D8B;}
</style>
<g>
	<path class="st0" d="M120.89,253.45c0-0.65-0.23-1.16-0.69-1.52s-1.27-0.74-2.43-1.13s-2.11-0.77-2.84-1.13
		c-2.4-1.18-3.59-2.79-3.59-4.85c0-1.02,0.3-1.93,0.9-2.71c0.6-0.78,1.44-1.39,2.53-1.83s2.32-0.65,3.68-0.65
		c1.33,0,2.52,0.24,3.57,0.71s1.87,1.15,2.46,2.02c0.58,0.88,0.88,1.88,0.88,3h-4.44c0-0.75-0.23-1.34-0.69-1.75
		s-1.09-0.62-1.87-0.62c-0.8,0-1.42,0.18-1.89,0.53c-0.46,0.35-0.69,0.8-0.69,1.34c0,0.47,0.25,0.9,0.76,1.29
		c0.51,0.38,1.4,0.78,2.68,1.19c1.28,0.41,2.33,0.85,3.15,1.33c2,1.15,3,2.74,3,4.76c0,1.62-0.61,2.89-1.83,3.81
		s-2.89,1.38-5.01,1.38c-1.5,0-2.85-0.27-4.07-0.81c-1.21-0.54-2.13-1.27-2.74-2.21c-0.61-0.93-0.92-2.01-0.92-3.23h4.47
		c0,0.99,0.26,1.72,0.77,2.19c0.51,0.47,1.34,0.71,2.49,0.71c0.74,0,1.32-0.16,1.75-0.48C120.68,254.48,120.89,254.03,120.89,253.45
		z"/>
	<path class="st0" d="M126.89,251.37c0-1.37,0.27-2.59,0.8-3.66c0.53-1.07,1.3-1.89,2.3-2.47s2.17-0.86,3.52-0.86
		c2.06,0,3.68,0.64,4.86,1.91c1.19,1.27,1.78,3.01,1.78,5.2v0.15c0,2.14-0.59,3.84-1.78,5.1c-1.19,1.26-2.8,1.88-4.83,1.88
		c-1.96,0-3.52-0.59-4.71-1.76c-1.19-1.17-1.82-2.76-1.92-4.77L126.89,251.37z M131.17,251.64c0,1.27,0.2,2.2,0.6,2.79
		s0.99,0.89,1.76,0.89c1.52,0,2.3-1.17,2.34-3.52v-0.43c0-2.46-0.79-3.69-2.36-3.69c-1.43,0-2.2,1.06-2.32,3.19L131.17,251.64z"/>
	<path class="st0" d="M154,252.38l2.29-7.74h4.58l-5.6,16.03l-0.24,0.58c-0.8,1.78-2.2,2.67-4.22,2.67c-0.56,0-1.15-0.08-1.76-0.25
		v-3.05h0.56c0.6,0,1.06-0.09,1.38-0.26s0.55-0.48,0.7-0.93l0.34-0.92l-4.77-13.87h4.57L154,252.38z"/>
	<path class="st0" d="M161.44,251.37c0-1.37,0.27-2.59,0.8-3.66c0.53-1.07,1.3-1.89,2.3-2.47c1-0.58,2.17-0.86,3.52-0.86
		c2.06,0,3.68,0.64,4.86,1.91c1.19,1.27,1.78,3.01,1.78,5.2v0.15c0,2.14-0.59,3.84-1.78,5.1c-1.19,1.26-2.8,1.88-4.83,1.88
		c-1.96,0-3.53-0.59-4.71-1.76c-1.18-1.17-1.82-2.76-1.92-4.77L161.44,251.37z M165.72,251.64c0,1.27,0.2,2.2,0.6,2.79
		c0.4,0.59,0.99,0.89,1.77,0.89c1.52,0,2.3-1.17,2.34-3.52v-0.43c0-2.46-0.79-3.69-2.36-3.69c-1.43,0-2.21,1.06-2.32,3.19
		L165.72,251.64z"/>
	<path class="st0" d="M184.76,256.88c-0.91,1.16-2.13,1.74-3.67,1.74c-1.51,0-2.65-0.44-3.42-1.31c-0.78-0.88-1.16-2.13-1.16-3.78
		v-8.9h4.28v8.92c0,1.18,0.57,1.76,1.71,1.76c0.98,0,1.68-0.35,2.09-1.05v-9.64h4.3v13.74h-4.01L184.76,256.88z"/>
	<path class="st0" d="M86.44,284.45l-1.21,1.21v3.91h-4.28v-19.51h4.28v10.36l0.43-0.57l3.22-4.01h5.13l-4.81,5.65l5.13,8.09h-4.9
		L86.44,284.45z"/>
	<path class="st0" d="M99.07,275.83l0.14,1.61c0.95-1.24,2.26-1.87,3.92-1.87c1.43,0,2.5,0.43,3.21,1.28s1.07,2.14,1.1,3.86v8.85
		h-4.29v-8.67c0-0.69-0.14-1.2-0.42-1.53c-0.28-0.33-0.79-0.49-1.52-0.49c-0.84,0-1.46,0.33-1.87,0.99v9.7h-4.28v-13.74H99.07z"/>
	<path class="st0" d="M109.27,282.57c0-1.37,0.27-2.59,0.8-3.66c0.53-1.07,1.3-1.89,2.3-2.47s2.17-0.86,3.52-0.86
		c2.06,0,3.68,0.64,4.86,1.91c1.19,1.27,1.78,3.01,1.78,5.2v0.15c0,2.14-0.59,3.84-1.78,5.1c-1.19,1.26-2.8,1.88-4.83,1.88
		c-1.96,0-3.52-0.59-4.71-1.76c-1.19-1.17-1.82-2.76-1.92-4.77L109.27,282.57z M113.55,282.84c0,1.27,0.2,2.2,0.6,2.79
		s0.99,0.89,1.76,0.89c1.52,0,2.3-1.17,2.34-3.52v-0.43c0-2.46-0.79-3.69-2.36-3.69c-1.43,0-2.2,1.06-2.32,3.19L113.55,282.84z"/>
	<path class="st0" d="M136.27,283.93l1.38-8.1h4.1l-3.24,13.74h-3.62l-2.27-8.15l-2.29,8.15h-3.62l-3.24-13.74h4.1l1.36,8.29
		l2.18-8.29h2.98L136.27,283.93z"/>
	<path class="st0" d="M161.62,283.93l1.38-8.1h4.1l-3.24,13.74h-3.62l-2.27-8.15l-2.29,8.15h-3.62l-3.24-13.74h4.1l1.36,8.29
		l2.18-8.29h2.98L161.62,283.93z"/>
	<path class="st0" d="M172.82,277.3c0.91-1.15,2.08-1.73,3.5-1.73c1.51,0,2.66,0.45,3.43,1.35c0.77,0.9,1.16,2.22,1.18,3.97v8.67
		h-4.29V281c0-0.73-0.15-1.26-0.44-1.61c-0.3-0.34-0.8-0.51-1.51-0.51c-0.88,0-1.5,0.28-1.87,0.84v9.85h-4.28v-19.5h4.28V277.3z"/>
	<path class="st0" d="M189.96,289.82c-2.11,0-3.81-0.63-5.12-1.88c-1.3-1.26-1.96-2.89-1.96-4.91v-0.36c0-1.41,0.26-2.64,0.78-3.72
		c0.52-1.08,1.28-1.91,2.28-2.49c1-0.59,2.18-0.88,3.55-0.88c1.93,0,3.45,0.6,4.57,1.8c1.12,1.2,1.68,2.87,1.68,5.01v1.66h-8.51
		c0.15,0.77,0.49,1.38,1,1.82c0.52,0.44,1.19,0.66,2.01,0.66c1.36,0,2.41-0.47,3.17-1.42l1.96,2.31c-0.53,0.74-1.29,1.32-2.27,1.76
		C192.14,289.6,191.08,289.82,189.96,289.82z M189.48,278.88c-1.25,0-2,0.83-2.23,2.49h4.32v-0.33c0.02-0.69-0.16-1.22-0.52-1.59
		C190.67,279.07,190.15,278.88,189.48,278.88z"/>
	<path class="st0" d="M205.78,279.7l-1.41-0.1c-1.35,0-2.21,0.42-2.59,1.27v8.7h-4.28v-13.74h4.01l0.14,1.76
		c0.72-1.35,1.72-2.02,3.01-2.02c0.46,0,0.85,0.05,1.19,0.15L205.78,279.7z"/>
	<path class="st0" d="M213.96,289.82c-2.11,0-3.81-0.63-5.12-1.88c-1.3-1.26-1.96-2.89-1.96-4.91v-0.36c0-1.41,0.26-2.64,0.78-3.72
		c0.52-1.08,1.28-1.91,2.28-2.49c1-0.59,2.18-0.88,3.55-0.88c1.93,0,3.45,0.6,4.57,1.8c1.12,1.2,1.68,2.87,1.68,5.01v1.66h-8.51
		c0.15,0.77,0.49,1.38,1,1.82c0.52,0.44,1.18,0.66,2.01,0.66c1.35,0,2.41-0.47,3.17-1.42l1.96,2.31c-0.53,0.74-1.29,1.32-2.27,1.76
		C216.14,289.6,215.09,289.82,213.96,289.82z M213.48,278.88c-1.25,0-2,0.83-2.23,2.49h4.32v-0.33c0.02-0.69-0.16-1.22-0.52-1.59
		C214.68,279.07,214.16,278.88,213.48,278.88z"/>
	<path class="st0" d="M99.42,314.78l2.29-7.74h4.58l-5.6,16.03l-0.24,0.58c-0.8,1.78-2.2,2.67-4.21,2.67
		c-0.56,0-1.15-0.08-1.76-0.25v-3.05h0.56c0.6,0,1.06-0.09,1.38-0.26s0.55-0.48,0.7-0.93l0.34-0.92l-4.77-13.87h4.57L99.42,314.78z"
		/>
	<path class="st0" d="M106.86,313.77c0-1.37,0.27-2.59,0.8-3.66c0.53-1.07,1.3-1.89,2.3-2.47s2.17-0.86,3.52-0.86
		c2.06,0,3.68,0.64,4.86,1.91c1.19,1.27,1.78,3.01,1.78,5.2v0.15c0,2.14-0.59,3.84-1.78,5.1c-1.19,1.26-2.8,1.88-4.83,1.88
		c-1.96,0-3.52-0.59-4.71-1.76c-1.19-1.17-1.82-2.76-1.92-4.77L106.86,313.77z M111.14,314.04c0,1.27,0.2,2.2,0.6,2.79
		s0.99,0.89,1.76,0.89c1.52,0,2.3-1.17,2.34-3.52v-0.43c0-2.46-0.79-3.69-2.36-3.69c-1.43,0-2.2,1.06-2.32,3.19L111.14,314.04z"/>
	<path class="st0" d="M130.18,319.28c-0.91,1.16-2.13,1.74-3.67,1.74c-1.51,0-2.65-0.44-3.42-1.31c-0.77-0.88-1.16-2.13-1.16-3.78
		v-8.9h4.28v8.92c0,1.18,0.57,1.76,1.71,1.76c0.98,0,1.68-0.35,2.09-1.05v-9.64h4.3v13.74h-4.01L130.18,319.28z"/>
	<path class="st0" d="M150.33,316.91c0-0.36-0.19-0.66-0.57-0.88s-1.1-0.45-2.17-0.69s-1.95-0.55-2.64-0.93
		c-0.69-0.39-1.22-0.85-1.59-1.4s-0.55-1.18-0.55-1.89c0-1.26,0.52-2.3,1.56-3.12c1.04-0.82,2.4-1.22,4.09-1.22
		c1.81,0,3.27,0.41,4.37,1.23c1.1,0.82,1.65,1.9,1.65,3.24h-4.29c0-1.1-0.58-1.65-1.74-1.65c-0.45,0-0.83,0.12-1.13,0.38
		c-0.3,0.25-0.46,0.56-0.46,0.93c0,0.38,0.19,0.69,0.56,0.93s0.97,0.43,1.78,0.58s1.53,0.33,2.15,0.55c2.07,0.71,3.1,1.98,3.1,3.82
		c0,1.25-0.56,2.27-1.67,3.06s-2.55,1.18-4.32,1.18c-1.18,0-2.23-0.21-3.15-0.63s-1.64-1-2.16-1.73s-0.77-1.49-0.77-2.3h4
		c0.02,0.63,0.23,1.1,0.63,1.39c0.41,0.29,0.93,0.44,1.56,0.44c0.58,0,1.02-0.12,1.31-0.36S150.33,317.29,150.33,316.91z"/>
	<path class="st0" d="M161.44,303.62v3.42h2.26V310h-2.26v6.28c0,0.52,0.09,0.88,0.28,1.08c0.19,0.2,0.55,0.3,1.11,0.3
		c0.42,0,0.78-0.03,1.07-0.08v3.06c-0.77,0.25-1.57,0.37-2.41,0.37c-1.47,0-2.56-0.35-3.26-1.04c-0.7-0.69-1.05-1.75-1.05-3.16V310
		h-1.75v-2.97h1.75v-3.42H161.44z"/>
	<path class="st0" d="M173.12,320.77c-0.15-0.28-0.29-0.69-0.41-1.23c-0.79,0.99-1.89,1.49-3.3,1.49c-1.29,0-2.39-0.39-3.3-1.17
		c-0.91-0.78-1.36-1.77-1.36-2.95c0-1.49,0.55-2.62,1.65-3.38c1.1-0.76,2.7-1.14,4.8-1.14h1.32v-0.73c0-1.27-0.55-1.9-1.64-1.9
		c-1.02,0-1.52,0.5-1.52,1.51h-4.28c0-1.33,0.56-2.41,1.69-3.23c1.13-0.83,2.57-1.24,4.32-1.24s3.13,0.43,4.15,1.28
		s1.54,2.03,1.56,3.52v6.08c0.02,1.26,0.21,2.23,0.58,2.89v0.22H173.12z M170.44,317.97c0.53,0,0.97-0.11,1.33-0.34
		s0.6-0.49,0.76-0.77v-2.2h-1.24c-1.49,0-2.23,0.67-2.23,2.01c0,0.39,0.13,0.7,0.39,0.95C169.7,317.85,170.03,317.97,170.44,317.97z
		"/>
	<path class="st0" d="M183.11,307.03l0.14,1.61c0.95-1.24,2.26-1.87,3.92-1.87c1.43,0,2.5,0.43,3.21,1.28s1.07,2.14,1.1,3.86v8.85
		h-4.29v-8.67c0-0.69-0.14-1.2-0.42-1.53c-0.28-0.33-0.79-0.49-1.52-0.49c-0.84,0-1.46,0.33-1.87,0.99v9.7h-4.28v-13.74H183.11z"/>
	<path class="st0" d="M193.3,313.8c0-2.17,0.47-3.89,1.41-5.14s2.25-1.88,3.94-1.88c1.23,0,2.26,0.48,3.1,1.45v-6.96h4.29v19.5
		h-3.85l-0.21-1.47c-0.88,1.15-2,1.73-3.35,1.73c-1.63,0-2.93-0.63-3.88-1.88C193.78,317.89,193.3,316.11,193.3,313.8z
		 M197.58,314.06c0,2.44,0.71,3.66,2.13,3.66c0.95,0,1.62-0.4,2.03-1.19v-5.23c-0.39-0.81-1.06-1.22-2.01-1.22
		c-1.32,0-2.04,1.07-2.15,3.2L197.58,314.06z"/>
</g>
</svg>
