<?xml version="1.0" encoding="utf-8"?>
<!-- Generator: Adobe Illustrator 24.2.3, SVG Export Plug-In . SVG Version: 6.00 Build 0)  -->
<svg version="1.1" id="Layer_1" xmlns="http://www.w3.org/2000/svg" xmlns:xlink="http://www.w3.org/1999/xlink" x="0px" y="0px"
	 viewBox="0 0 300 250" style="enable-background:new 0 0 300 250;" xml:space="preserve">
<style type="text/css">
	.st0{fill:url(#SVGID_1_);}
</style>
<linearGradient id="SVGID_1_" gradientUnits="userSpaceOnUse" x1="36.6406" y1="110.7753" x2="264.2578" y2="110.7753">
	<stop  offset="0" style="stop-color:#18B9FB"/>
	<stop  offset="0.5" style="stop-color:#782EEB"/>
	<stop  offset="1" style="stop-color:#E82D8A"/>
</linearGradient>
<path class="st0" d="M55.92,79.95l3.17,9.89l3.16-9.89h4.51v14.22h-3.44v-3.32l0.33-6.8l-3.44,10.12h-2.27l-3.45-10.13l0.33,6.81
	v3.32h-3.43V79.95H55.92z M68.38,88.79c0-1.05,0.21-1.99,0.62-2.82s1-1.46,1.77-1.9s1.67-0.66,2.71-0.66c1.58,0,2.83,0.49,3.74,1.47
	s1.37,2.31,1.37,4V89c0,1.65-0.46,2.95-1.37,3.92s-2.15,1.45-3.72,1.45c-1.5,0-2.71-0.45-3.62-1.35s-1.4-2.12-1.47-3.67L68.38,88.79
	z M71.67,89c0,0.98,0.15,1.69,0.46,2.15c0.31,0.46,0.76,0.68,1.36,0.68c1.17,0,1.77-0.9,1.8-2.71v-0.33c0-1.89-0.61-2.84-1.82-2.84
	c-1.1,0-1.7,0.82-1.79,2.45L71.67,89z M83.05,83.61l0.11,1.24c0.73-0.96,1.74-1.44,3.02-1.44c1.1,0,1.92,0.33,2.47,0.99
	s0.83,1.65,0.84,2.97v6.81h-3.3V87.5c0-0.53-0.11-0.93-0.32-1.18s-0.61-0.38-1.17-0.38c-0.64,0-1.12,0.25-1.44,0.76v7.46h-3.29
	V83.61H83.05z M91.28,80.88c0-0.47,0.17-0.85,0.51-1.15s0.78-0.45,1.32-0.45s0.98,0.15,1.32,0.45s0.51,0.68,0.51,1.15
	s-0.17,0.85-0.51,1.15s-0.78,0.45-1.32,0.45s-0.98-0.15-1.32-0.45S91.28,81.35,91.28,80.88z M94.78,94.17h-3.3V83.61h3.3V94.17z
	 M100.64,80.98v2.63h1.74v2.29h-1.74v4.83c0,0.4,0.07,0.67,0.21,0.83s0.43,0.23,0.85,0.23c0.33,0,0.6-0.02,0.82-0.06v2.35
	c-0.59,0.19-1.21,0.28-1.86,0.28c-1.13,0-1.97-0.27-2.51-0.8s-0.81-1.34-0.81-2.43v-5.24H96v-2.29h1.35v-2.63H100.64z M102.96,88.79
	c0-1.05,0.21-1.99,0.62-2.82s1-1.46,1.77-1.9s1.67-0.66,2.71-0.66c1.58,0,2.83,0.49,3.74,1.47s1.37,2.31,1.37,4V89
	c0,1.65-0.46,2.95-1.37,3.92s-2.15,1.45-3.72,1.45c-1.5,0-2.71-0.45-3.62-1.35s-1.4-2.12-1.47-3.67L102.96,88.79z M106.25,89
	c0,0.98,0.15,1.69,0.46,2.15c0.31,0.46,0.76,0.68,1.36,0.68c1.17,0,1.77-0.9,1.8-2.71v-0.33c0-1.89-0.61-2.84-1.82-2.84
	c-1.1,0-1.7,0.82-1.79,2.45L106.25,89z M121,86.58l-1.08-0.08c-1.04,0-1.7,0.33-1.99,0.98v6.69h-3.29V83.61h3.09l0.11,1.36
	c0.55-1.04,1.33-1.55,2.31-1.55c0.35,0,0.66,0.04,0.92,0.12L121,86.58z M131.39,89.56l1.76-5.96h3.53l-4.31,12.33l-0.19,0.45
	c-0.61,1.37-1.69,2.05-3.24,2.05c-0.43,0-0.88-0.06-1.36-0.19V95.9h0.43c0.46,0,0.82-0.07,1.06-0.2s0.42-0.37,0.54-0.72l0.26-0.7
	l-3.67-10.67h3.52L131.39,89.56z M136.97,88.79c0-1.05,0.21-1.99,0.62-2.82s1-1.46,1.77-1.9s1.67-0.66,2.71-0.66
	c1.58,0,2.83,0.49,3.74,1.47s1.37,2.31,1.37,4V89c0,1.65-0.46,2.95-1.37,3.92s-2.15,1.45-3.72,1.45c-1.5,0-2.71-0.45-3.62-1.35
	s-1.4-2.12-1.47-3.67L136.97,88.79z M140.26,89c0,0.98,0.15,1.69,0.46,2.15c0.31,0.46,0.76,0.68,1.36,0.68c1.17,0,1.77-0.9,1.8-2.71
	v-0.33c0-1.89-0.61-2.84-1.82-2.84c-1.1,0-1.7,0.82-1.79,2.45L140.26,89z M154.91,93.03c-0.7,0.89-1.64,1.34-2.82,1.34
	c-1.16,0-2.04-0.34-2.63-1.01s-0.89-1.64-0.89-2.91v-6.85h3.29v6.87c0,0.91,0.44,1.36,1.32,1.36c0.75,0,1.29-0.27,1.61-0.81v-7.41
	h3.31v10.57H155L154.91,93.03z M166.28,86.58l-1.08-0.08c-1.04,0-1.7,0.33-1.99,0.98v6.69h-3.29V83.61H163l0.11,1.36
	c0.55-1.04,1.33-1.55,2.31-1.55c0.35,0,0.66,0.04,0.92,0.12L166.28,86.58z M182.26,88.97c0,1.64-0.37,2.95-1.11,3.93
	s-1.74,1.47-2.99,1.47c-0.97,0-1.77-0.35-2.39-1.06v4.93h-3.29V83.61h3.08l0.1,0.98c0.63-0.78,1.46-1.17,2.49-1.17
	c1.3,0,2.31,0.48,3.04,1.44s1.08,2.28,1.08,3.96V88.97z M178.97,88.76c0-1.88-0.55-2.81-1.64-2.81c-0.78,0-1.3,0.28-1.56,0.84v4.16
	c0.29,0.59,0.81,0.88,1.58,0.88c1.05,0,1.59-0.91,1.62-2.71V88.76z M188.82,94.37c-1.62,0-2.93-0.48-3.94-1.45s-1.5-2.23-1.5-3.77
	v-0.27c0-1.08,0.2-2.03,0.6-2.86s0.98-1.47,1.75-1.92s1.68-0.68,2.73-0.68c1.48,0,2.66,0.46,3.52,1.38s1.29,2.21,1.29,3.85v1.28
	h-6.54c0.12,0.59,0.37,1.06,0.77,1.4s0.91,0.51,1.54,0.51c1.04,0,1.86-0.36,2.44-1.09l1.5,1.78c-0.41,0.57-0.99,1.02-1.74,1.35
	S189.69,94.37,188.82,94.37z M188.45,85.95c-0.96,0-1.54,0.64-1.72,1.91h3.32v-0.25c0.01-0.53-0.12-0.94-0.4-1.23
	S188.97,85.95,188.45,85.95z M200.99,86.58l-1.08-0.08c-1.04,0-1.7,0.33-1.99,0.98v6.69h-3.29V83.61h3.09l0.11,1.36
	c0.55-1.04,1.33-1.55,2.31-1.55c0.35,0,0.66,0.04,0.92,0.12L200.99,86.58z M207.71,91.2c0-0.28-0.15-0.5-0.44-0.67
	s-0.85-0.35-1.67-0.53s-1.5-0.42-2.03-0.72s-0.94-0.66-1.22-1.08s-0.42-0.91-0.42-1.46c0-0.97,0.4-1.77,1.2-2.4s1.85-0.94,3.14-0.94
	c1.39,0,2.51,0.32,3.36,0.95s1.27,1.46,1.27,2.49h-3.3c0-0.85-0.45-1.27-1.34-1.27c-0.34,0-0.63,0.1-0.87,0.29s-0.35,0.43-0.35,0.72
	c0,0.29,0.14,0.53,0.43,0.71s0.74,0.33,1.37,0.45s1.18,0.26,1.66,0.42c1.59,0.55,2.38,1.53,2.38,2.94c0,0.96-0.43,1.75-1.28,2.35
	s-1.96,0.91-3.33,0.91c-0.91,0-1.71-0.16-2.42-0.49s-1.26-0.77-1.66-1.33s-0.6-1.15-0.6-1.77h3.08c0.01,0.49,0.18,0.84,0.49,1.07
	s0.71,0.34,1.2,0.34c0.45,0,0.79-0.09,1.01-0.27S207.71,91.5,207.71,91.2z M212.01,88.79c0-1.05,0.21-1.99,0.62-2.82
	s1-1.46,1.77-1.9s1.67-0.66,2.71-0.66c1.58,0,2.83,0.49,3.74,1.47s1.37,2.31,1.37,4V89c0,1.65-0.46,2.95-1.37,3.92
	s-2.15,1.45-3.72,1.45c-1.5,0-2.71-0.45-3.62-1.35s-1.4-2.12-1.47-3.67L212.01,88.79z M215.3,89c0,0.98,0.15,1.69,0.46,2.15
	c0.31,0.46,0.76,0.68,1.36,0.68c1.17,0,1.77-0.9,1.8-2.71v-0.33c0-1.89-0.61-2.84-1.82-2.84c-1.1,0-1.7,0.82-1.79,2.45L215.3,89z
	 M226.67,83.61l0.11,1.24c0.73-0.96,1.74-1.44,3.02-1.44c1.1,0,1.92,0.33,2.47,0.99s0.83,1.65,0.84,2.97v6.81h-3.3V87.5
	c0-0.53-0.11-0.93-0.32-1.18s-0.61-0.38-1.17-0.38c-0.64,0-1.12,0.25-1.44,0.76v7.46h-3.29V83.61H226.67z M240.88,94.17
	c-0.12-0.21-0.22-0.53-0.31-0.95c-0.61,0.76-1.45,1.14-2.54,1.14c-1,0-1.84-0.3-2.54-0.9s-1.04-1.36-1.04-2.27
	c0-1.15,0.42-2.01,1.27-2.6s2.08-0.88,3.69-0.88h1.02v-0.56c0-0.97-0.42-1.46-1.26-1.46c-0.78,0-1.17,0.39-1.17,1.16h-3.29
	c0-1.02,0.43-1.85,1.3-2.49s1.98-0.96,3.33-0.96s2.41,0.33,3.19,0.99s1.18,1.56,1.2,2.71v4.68c0.01,0.97,0.16,1.71,0.45,2.23v0.17
	H240.88z M238.82,92.02c0.41,0,0.75-0.09,1.02-0.26s0.46-0.37,0.58-0.6v-1.69h-0.96c-1.15,0-1.72,0.51-1.72,1.54
	c0,0.3,0.1,0.54,0.3,0.73S238.51,92.02,238.82,92.02z M249.02,94.17h-3.3v-15h3.3V94.17z M36.64,104.88c0-0.47,0.17-0.85,0.51-1.15
	s0.78-0.45,1.32-0.45s0.98,0.15,1.32,0.45s0.51,0.68,0.51,1.15s-0.17,0.85-0.51,1.15s-0.78,0.45-1.32,0.45s-0.98-0.15-1.32-0.45
	S36.64,105.35,36.64,104.88z M40.14,118.17h-3.3v-10.57h3.3V118.17z M45.19,107.61l0.11,1.24c0.73-0.96,1.74-1.44,3.02-1.44
	c1.1,0,1.92,0.33,2.47,0.99s0.83,1.65,0.84,2.97v6.81h-3.3v-6.67c0-0.53-0.11-0.93-0.32-1.18s-0.61-0.38-1.17-0.38
	c-0.64,0-1.12,0.25-1.44,0.76v7.46H42.1v-10.57H45.19z M54.17,118.17v-8.28h-1.53v-2.29h1.53v-0.84c0-1.2,0.35-2.14,1.06-2.8
	s1.71-1,2.99-1c0.47,0,0.98,0.07,1.54,0.21l0.01,2.42c-0.2-0.06-0.47-0.09-0.81-0.09c-1,0-1.49,0.43-1.49,1.29v0.81h2.06v2.29h-2.06
	v8.28H54.17z M60.27,112.79c0-1.05,0.21-1.99,0.62-2.82s1-1.46,1.77-1.9s1.67-0.66,2.71-0.66c1.58,0,2.83,0.49,3.74,1.47
	s1.37,2.31,1.37,4V113c0,1.65-0.46,2.95-1.37,3.92s-2.15,1.45-3.72,1.45c-1.5,0-2.71-0.45-3.62-1.35s-1.4-2.12-1.47-3.67
	L60.27,112.79z M63.56,113c0,0.98,0.15,1.69,0.46,2.15c0.31,0.46,0.76,0.68,1.36,0.68c1.17,0,1.77-0.9,1.8-2.71v-0.33
	c0-1.89-0.61-2.84-1.82-2.84c-1.1,0-1.7,0.82-1.79,2.45L63.56,113z M78.31,110.58l-1.08-0.08c-1.04,0-1.7,0.33-1.99,0.98v6.69h-3.29
	v-10.57h3.09l0.11,1.36c0.55-1.04,1.33-1.55,2.31-1.55c0.35,0,0.66,0.04,0.92,0.12L78.31,110.58z M82.61,107.61l0.11,1.24
	c0.75-0.96,1.75-1.44,3.02-1.44c1.33,0,2.24,0.53,2.71,1.59c0.72-1.06,1.75-1.59,3.11-1.59c2.14,0,3.24,1.3,3.3,3.89v6.88h-3.3
	v-6.67c0-0.54-0.09-0.93-0.27-1.18s-0.51-0.37-1-0.37c-0.65,0-1.14,0.29-1.46,0.87l0.01,0.14v7.22h-3.3v-6.65
	c0-0.55-0.09-0.95-0.26-1.2s-0.51-0.37-1.01-0.37c-0.63,0-1.11,0.29-1.45,0.87v7.35h-3.29v-10.57H82.61z M102.68,118.17
	c-0.12-0.21-0.22-0.53-0.31-0.95c-0.61,0.76-1.45,1.14-2.54,1.14c-1,0-1.84-0.3-2.54-0.9s-1.04-1.36-1.04-2.27
	c0-1.15,0.42-2.01,1.27-2.6s2.08-0.88,3.69-0.88h1.02v-0.56c0-0.97-0.42-1.46-1.26-1.46c-0.78,0-1.17,0.39-1.17,1.16h-3.29
	c0-1.02,0.43-1.85,1.3-2.49c0.87-0.64,1.98-0.96,3.33-0.96s2.41,0.33,3.19,0.99s1.18,1.56,1.2,2.71v4.68
	c0.01,0.97,0.16,1.71,0.45,2.23v0.17H102.68z M100.62,116.02c0.41,0,0.75-0.09,1.02-0.26s0.46-0.37,0.58-0.6v-1.69h-0.96
	c-1.15,0-1.72,0.51-1.72,1.54c0,0.3,0.1,0.54,0.3,0.73S100.3,116.02,100.62,116.02z M111.17,104.98v2.63h1.74v2.29h-1.74v4.83
	c0,0.4,0.07,0.67,0.21,0.83s0.43,0.23,0.85,0.23c0.33,0,0.6-0.02,0.82-0.06v2.35c-0.59,0.19-1.21,0.28-1.86,0.28
	c-1.13,0-1.97-0.27-2.51-0.8s-0.81-1.34-0.81-2.43v-5.24h-1.35v-2.29h1.35v-2.63H111.17z M114.18,104.88c0-0.47,0.17-0.85,0.51-1.15
	s0.78-0.45,1.32-0.45s0.98,0.15,1.32,0.45s0.51,0.68,0.51,1.15s-0.17,0.85-0.51,1.15s-0.78,0.45-1.32,0.45s-0.98-0.15-1.32-0.45
	S114.18,105.35,114.18,104.88z M117.68,118.17h-3.3v-10.57h3.3V118.17z M119.29,112.79c0-1.05,0.21-1.99,0.62-2.82s1-1.46,1.77-1.9
	s1.67-0.66,2.71-0.66c1.58,0,2.83,0.49,3.74,1.47s1.37,2.31,1.37,4V113c0,1.65-0.46,2.95-1.37,3.92s-2.15,1.45-3.72,1.45
	c-1.5,0-2.71-0.45-3.62-1.35s-1.4-2.12-1.47-3.67L119.29,112.79z M122.58,113c0,0.98,0.15,1.69,0.46,2.15s0.76,0.68,1.36,0.68
	c1.17,0,1.77-0.9,1.8-2.71v-0.33c0-1.89-0.61-2.84-1.82-2.84c-1.1,0-1.7,0.82-1.79,2.45L122.58,113z M133.96,107.61l0.11,1.24
	c0.73-0.96,1.74-1.44,3.02-1.44c1.1,0,1.92,0.33,2.47,0.99s0.83,1.65,0.84,2.97v6.81h-3.3v-6.67c0-0.53-0.11-0.93-0.32-1.18
	s-0.61-0.38-1.17-0.38c-0.64,0-1.12,0.25-1.44,0.76v7.46h-3.29v-10.57H133.96z M146.78,112.79c0-1.05,0.21-1.99,0.62-2.82
	s1-1.46,1.77-1.9s1.67-0.66,2.71-0.66c1.58,0,2.83,0.49,3.74,1.47s1.37,2.31,1.37,4V113c0,1.65-0.46,2.95-1.37,3.92
	s-2.15,1.45-3.72,1.45c-1.5,0-2.71-0.45-3.62-1.35s-1.4-2.12-1.47-3.67L146.78,112.79z M150.07,113c0,0.98,0.15,1.69,0.46,2.15
	s0.76,0.68,1.36,0.68c1.17,0,1.77-0.9,1.8-2.71v-0.33c0-1.89-0.61-2.84-1.82-2.84c-1.1,0-1.7,0.82-1.79,2.45L150.07,113z
	 M161.45,107.61l0.11,1.24c0.73-0.96,1.74-1.44,3.02-1.44c1.1,0,1.92,0.33,2.47,0.99s0.83,1.65,0.84,2.97v6.81h-3.3v-6.67
	c0-0.53-0.11-0.93-0.32-1.18s-0.61-0.38-1.17-0.38c-0.64,0-1.12,0.25-1.44,0.76v7.46h-3.29v-10.57H161.45z M178.52,104.98v2.63h1.74
	v2.29h-1.74v4.83c0,0.4,0.07,0.67,0.21,0.83s0.43,0.23,0.85,0.23c0.33,0,0.6-0.02,0.82-0.06v2.35c-0.59,0.19-1.21,0.28-1.86,0.28
	c-1.13,0-1.97-0.27-2.51-0.8s-0.81-1.34-0.81-2.43v-5.24h-1.35v-2.29h1.35v-2.63H178.52z M184.77,108.74c0.7-0.89,1.6-1.33,2.7-1.33
	c1.17,0,2.04,0.34,2.64,1.04s0.9,1.71,0.91,3.06v6.67h-3.3v-6.59c0-0.56-0.11-0.97-0.34-1.24s-0.62-0.4-1.16-0.4
	c-0.68,0-1.16,0.21-1.44,0.64v7.58h-3.29v-15h3.29V108.74z M197.95,118.37c-1.62,0-2.93-0.48-3.94-1.45s-1.5-2.22-1.5-3.77v-0.27
	c0-1.08,0.2-2.03,0.6-2.86s0.98-1.47,1.75-1.92s1.68-0.68,2.73-0.68c1.48,0,2.66,0.46,3.52,1.38s1.29,2.21,1.29,3.85v1.28h-6.54
	c0.12,0.59,0.37,1.06,0.77,1.4s0.91,0.51,1.54,0.51c1.04,0,1.86-0.36,2.44-1.09l1.5,1.78c-0.41,0.57-0.99,1.02-1.74,1.35
	S198.82,118.37,197.95,118.37z M197.58,109.95c-0.96,0-1.54,0.64-1.72,1.91h3.32v-0.25c0.01-0.53-0.12-0.94-0.4-1.23
	S198.1,109.95,197.58,109.95z M212.29,113.35v4.82h-3.43v-14.22h5.67c1.09,0,2.05,0.2,2.89,0.6s1.48,0.97,1.94,1.71
	s0.69,1.58,0.69,2.51c0,1.39-0.5,2.5-1.49,3.33s-2.36,1.25-4.09,1.25H212.29z M212.29,110.7h2.25c0.66,0,1.17-0.17,1.52-0.5
	s0.52-0.8,0.52-1.41c0-0.66-0.18-1.19-0.54-1.59s-0.85-0.6-1.46-0.61h-2.29V110.7z M228.02,117.03c-0.7,0.89-1.64,1.34-2.82,1.34
	c-1.16,0-2.04-0.34-2.63-1.01s-0.89-1.64-0.89-2.91v-6.85h3.29v6.87c0,0.91,0.44,1.36,1.32,1.36c0.75,0,1.29-0.27,1.61-0.81v-7.41
	h3.31v10.57h-3.09L228.02,117.03z M242.81,112.98c0,1.73-0.36,3.06-1.07,3.99s-1.73,1.4-3.03,1.4c-1.07,0-1.94-0.43-2.6-1.28
	l-0.14,1.08h-2.95v-15h3.29v5.28c0.61-0.7,1.4-1.04,2.37-1.04c1.32,0,2.33,0.47,3.05,1.42s1.07,2.27,1.07,3.98V112.98z
	 M239.51,112.77c0-1.01-0.13-1.74-0.41-2.17s-0.69-0.65-1.25-0.65c-0.74,0-1.26,0.28-1.54,0.85v4.19c0.28,0.56,0.8,0.84,1.56,0.84
	c0.77,0,1.27-0.38,1.47-1.13C239.46,114.33,239.51,113.68,239.51,112.77z M247.73,118.17h-3.3v-15h3.3V118.17z M249.74,104.88
	c0-0.47,0.17-0.85,0.51-1.15s0.78-0.45,1.32-0.45s0.98,0.15,1.32,0.45s0.51,0.68,0.51,1.15s-0.17,0.85-0.51,1.15
	s-0.78,0.45-1.32,0.45s-0.98-0.15-1.32-0.45S249.74,105.35,249.74,104.88z M253.23,118.17h-3.3v-10.57h3.3V118.17z M259.73,115.83
	c0.46,0,0.82-0.12,1.07-0.38s0.38-0.6,0.37-1.05h3.09c0,1.16-0.42,2.11-1.25,2.85s-1.9,1.11-3.21,1.11c-1.54,0-2.75-0.48-3.63-1.45
	s-1.33-2.3-1.33-4v-0.14c0-1.07,0.2-2.01,0.59-2.83s0.96-1.45,1.7-1.88s1.62-0.66,2.64-0.66c1.37,0,2.46,0.38,3.27,1.14
	s1.21,1.79,1.21,3.1h-3.09c0-0.55-0.13-0.97-0.4-1.26s-0.62-0.44-1.07-0.44c-0.85,0-1.35,0.54-1.49,1.63
	c-0.05,0.34-0.07,0.82-0.07,1.43c0,1.06,0.13,1.8,0.38,2.21S259.17,115.83,259.73,115.83z M100.91,134.68
	c-0.38-0.55-0.69-1.07-0.9-1.56s-0.33-1.01-0.33-1.53c0-1.15,0.37-2.07,1.11-2.78s1.71-1.06,2.91-1.06c1.07,0,1.96,0.33,2.67,0.98
	s1.05,1.47,1.05,2.44c0,1.21-0.67,2.29-2,3.22l-0.74,0.52l2.19,2.51c0.36-0.72,0.54-1.5,0.54-2.35h2.76c0,1.92-0.44,3.46-1.33,4.62
	l2.17,2.49h-3.67l-0.66-0.75c-0.55,0.33-1.11,0.57-1.67,0.72s-1.21,0.23-1.93,0.23c-1.41,0-2.53-0.37-3.38-1.11
	s-1.27-1.71-1.27-2.92c0-0.66,0.17-1.25,0.5-1.79s0.99-1.16,1.96-1.87L100.91,134.68z M103.28,139.84c0.57,0,1.12-0.13,1.64-0.4
	l-2.56-2.91l-0.09,0.06c-0.37,0.46-0.56,0.97-0.56,1.54c0,0.48,0.15,0.88,0.45,1.21S102.84,139.84,103.28,139.84z M102.52,131.55
	c0,0.46,0.25,1.01,0.74,1.66l0.65-0.41c0.3-0.2,0.52-0.4,0.65-0.61s0.21-0.47,0.21-0.79c0-0.3-0.1-0.56-0.31-0.78
	s-0.47-0.33-0.77-0.33c-0.36,0-0.65,0.12-0.86,0.35S102.52,131.17,102.52,131.55z M117.4,142.17v-14.22h4.58
	c1.26,0,2.39,0.29,3.39,0.85s1.79,1.37,2.35,2.41s0.85,2.2,0.85,3.49v0.65c0,1.3-0.28,2.47-0.83,3.5s-1.33,1.84-2.32,2.42
	s-2.11,0.88-3.34,0.88H117.4z M120.83,130.6v8.94h1.19c0.98,0,1.74-0.35,2.27-1.05s0.79-1.74,0.79-3.12v-0.62
	c0-1.37-0.26-2.41-0.79-3.11s-1.3-1.04-2.3-1.04H120.83z M136.13,142.17c-0.12-0.21-0.22-0.53-0.31-0.95
	c-0.61,0.76-1.45,1.14-2.54,1.14c-1,0-1.84-0.3-2.54-0.9s-1.04-1.36-1.04-2.27c0-1.15,0.42-2.01,1.27-2.6s2.08-0.88,3.69-0.88h1.02
	v-0.56c0-0.97-0.42-1.46-1.26-1.46c-0.78,0-1.17,0.39-1.17,1.16h-3.29c0-1.02,0.43-1.85,1.3-2.49c0.87-0.64,1.98-0.96,3.33-0.96
	s2.41,0.33,3.19,0.99s1.18,1.56,1.2,2.71v4.68c0.01,0.97,0.16,1.71,0.45,2.23v0.17H136.13z M134.07,140.02
	c0.41,0,0.75-0.09,1.02-0.26s0.46-0.37,0.58-0.6v-1.69h-0.96c-1.15,0-1.72,0.51-1.72,1.54c0,0.3,0.1,0.54,0.3,0.73
	S133.76,140.02,134.07,140.02z M147.19,134.58l-1.08-0.08c-1.04,0-1.7,0.33-1.99,0.98v6.69h-3.29v-10.57h3.09l0.11,1.36
	c0.55-1.04,1.33-1.55,2.31-1.55c0.35,0,0.66,0.04,0.92,0.12L147.19,134.58z M152.62,138.24l-0.93,0.93v3.01h-3.29v-15.01h3.29v7.97
	l0.33-0.44l2.48-3.09h3.95l-3.7,4.35l3.95,6.22h-3.77L152.62,138.24z M175.46,136.87l1.63-8.92h3.4l-3.02,14.22h-3.55l-1.9-8.11
	l-1.87,8.11h-3.54l-3.03-14.22h3.41l1.63,8.92l1.95-8.92h2.91L175.46,136.87z M186.48,142.37c-1.62,0-2.93-0.48-3.94-1.45
	s-1.5-2.22-1.5-3.77v-0.27c0-1.08,0.2-2.03,0.6-2.86s0.98-1.47,1.75-1.92s1.68-0.68,2.73-0.68c1.48,0,2.66,0.46,3.52,1.38
	s1.29,2.21,1.29,3.85v1.28h-6.54c0.12,0.59,0.37,1.06,0.77,1.4s0.91,0.51,1.54,0.51c1.04,0,1.86-0.36,2.44-1.09l1.5,1.78
	c-0.41,0.57-0.99,1.02-1.74,1.35S187.35,142.37,186.48,142.37z M186.11,133.95c-0.96,0-1.54,0.64-1.72,1.91h3.32v-0.25
	c0.01-0.53-0.12-0.94-0.4-1.23S186.63,133.95,186.11,133.95z M202.07,136.98c0,1.73-0.36,3.06-1.07,3.99s-1.73,1.4-3.03,1.4
	c-1.07,0-1.94-0.43-2.6-1.28l-0.14,1.08h-2.95v-15h3.29v5.28c0.61-0.7,1.4-1.04,2.37-1.04c1.32,0,2.33,0.47,3.05,1.42
	s1.07,2.27,1.07,3.98V136.98z M198.77,136.77c0-1.01-0.13-1.74-0.41-2.17s-0.69-0.65-1.25-0.65c-0.74,0-1.26,0.28-1.54,0.85v4.19
	c0.28,0.56,0.8,0.84,1.56,0.84c0.77,0,1.27-0.38,1.47-1.13C198.72,138.33,198.77,137.68,198.77,136.77z"/>
</svg>
