<svg id="Layer_1" xmlns="http://www.w3.org/2000/svg" viewBox="0 0 728 90"><style>.st0{fill:#fff}</style><path class="st0" d="M252.58 35.54c-.12 1.68-.74 3.01-1.86 3.97-1.12.97-2.6 1.45-4.43 1.45-2 0-3.58-.67-4.73-2.02-1.15-1.35-1.72-3.2-1.72-5.56v-.96c0-1.5.26-2.83.79-3.97.53-1.15 1.29-2.02 2.27-2.64.99-.61 2.13-.92 3.43-.92 1.8 0 3.26.48 4.36 1.45s1.74 2.32 1.91 4.07h-3.22c-.08-1.01-.36-1.74-.84-2.2-.48-.45-1.22-.68-2.21-.68-1.07 0-1.88.39-2.41 1.15-.53.77-.81 1.96-.82 3.58v1.18c0 1.69.26 2.93.77 3.71.51.78 1.32 1.17 2.42 1.17 1 0 1.74-.23 2.23-.68.49-.45.77-1.16.84-2.11h3.22zM254.01 34.84c0-1.15.22-2.18.67-3.08s1.08-1.6 1.92-2.09c.83-.49 1.8-.74 2.91-.74 1.57 0 2.85.48 3.84 1.44.99.96 1.54 2.26 1.66 3.91l.02.79c0 1.78-.5 3.21-1.49 4.29-1 1.08-2.33 1.62-4.01 1.62s-3.01-.54-4.01-1.61-1.5-2.54-1.5-4.38v-.15zm3.1.22c0 1.1.21 1.95.62 2.53.42.58 1.01.88 1.78.88.75 0 1.34-.29 1.76-.87.42-.58.63-1.5.63-2.77 0-1.08-.21-1.92-.63-2.52s-1.02-.89-1.78-.89-1.35.3-1.76.89-.62 1.5-.62 2.75zM269.79 29.13l.1 1.34c.83-1.04 1.94-1.56 3.34-1.56 1.23 0 2.15.36 2.75 1.08.6.72.91 1.8.92 3.24v7.51h-3.1v-7.43c0-.66-.14-1.14-.43-1.43-.29-.3-.76-.45-1.43-.45-.87 0-1.53.37-1.97 1.12v8.2h-3.1V29.13h2.92zM285.55 37.54c0-.38-.19-.68-.56-.9-.38-.22-.98-.41-1.81-.59-2.76-.58-4.15-1.75-4.15-3.52 0-1.03.43-1.89 1.28-2.58.86-.69 1.98-1.04 3.36-1.04 1.48 0 2.66.35 3.54 1.04.88.69 1.33 1.6 1.33 2.71h-3.1c0-.44-.14-.81-.43-1.1s-.73-.44-1.34-.44c-.52 0-.93.12-1.21.35s-.43.54-.43.9c0 .34.16.62.49.83.33.21.88.39 1.65.55.77.15 1.42.33 1.96.52 1.64.6 2.46 1.64 2.46 3.13 0 1.06-.46 1.92-1.36 2.57s-2.08.98-3.52.98c-.97 0-1.84-.17-2.59-.52-.75-.35-1.35-.82-1.78-1.43-.43-.6-.64-1.26-.64-1.96h2.94c.03.55.23.97.61 1.27.38.29.89.44 1.53.44.59 0 1.04-.11 1.35-.34.27-.21.42-.5.42-.87zM297.53 39.57c-.77.93-1.83 1.4-3.18 1.4-1.25 0-2.2-.36-2.85-1.07-.65-.72-.99-1.77-1-3.15v-7.62h3.1v7.52c0 1.21.55 1.82 1.65 1.82 1.05 0 1.78-.37 2.17-1.1v-8.24h3.12v11.62h-2.92l-.09-1.18zM305.79 29.13l.1 1.3c.82-1.01 1.94-1.51 3.34-1.51 1.5 0 2.52.59 3.08 1.77.82-1.18 1.98-1.77 3.49-1.77 1.26 0 2.2.37 2.81 1.1.62.73.92 1.84.92 3.31v7.42h-3.12v-7.41c0-.66-.13-1.14-.39-1.44-.26-.3-.71-.46-1.36-.46-.93 0-1.58.44-1.93 1.33l.01 7.98h-3.1v-7.4c0-.67-.13-1.16-.4-1.46s-.72-.45-1.35-.45c-.88 0-1.52.37-1.91 1.1v8.22h-3.1V29.13h2.91zM327.27 40.97c-1.7 0-3.09-.52-4.16-1.57-1.07-1.05-1.61-2.44-1.61-4.18v-.3c0-1.17.23-2.21.68-3.13.45-.92 1.09-1.63 1.92-2.13.83-.5 1.77-.75 2.83-.75 1.59 0 2.84.5 3.75 1.5.91 1 1.37 2.42 1.37 4.26v1.27h-7.4c.1.76.4 1.37.91 1.83.51.46 1.14.69 1.92.69 1.2 0 2.13-.43 2.8-1.3l1.53 1.71c-.47.66-1.1 1.17-1.89 1.54s-1.68.56-2.65.56zm-.35-9.55c-.62 0-1.12.21-1.5.63-.38.42-.63 1.01-.74 1.79H329v-.25c-.01-.69-.2-1.22-.56-1.6-.36-.38-.86-.57-1.52-.57zM340.34 32.04c-.42-.06-.79-.09-1.12-.09-1.17 0-1.94.4-2.31 1.19v7.61h-3.1V29.13h2.93l.09 1.39c.62-1.07 1.49-1.6 2.59-1.6.34 0 .67.05.97.14l-.05 2.98zM348.13 37.54c0-.38-.19-.68-.56-.9-.38-.22-.98-.41-1.81-.59-2.76-.58-4.15-1.75-4.15-3.52 0-1.03.43-1.89 1.28-2.58.86-.69 1.98-1.04 3.36-1.04 1.48 0 2.66.35 3.54 1.04.88.69 1.33 1.6 1.33 2.71h-3.1c0-.44-.14-.81-.43-1.1s-.73-.44-1.34-.44c-.52 0-.93.12-1.21.35s-.43.54-.43.9c0 .34.16.62.49.83.33.21.88.39 1.65.55.77.15 1.42.33 1.96.52 1.64.6 2.46 1.64 2.46 3.13 0 1.06-.46 1.92-1.36 2.57s-2.08.98-3.52.98c-.97 0-1.84-.17-2.59-.52-.75-.35-1.35-.82-1.78-1.43-.43-.6-.64-1.26-.64-1.96h2.94c.03.55.23.97.61 1.27.38.29.89.44 1.53.44.59 0 1.04-.11 1.35-.34.27-.21.42-.5.42-.87zM359.48 40.75V31.4h-1.73v-2.28h1.73v-.99c0-1.3.37-2.31 1.12-3.03.75-.72 1.79-1.08 3.14-1.08.43 0 .96.07 1.58.21l-.03 2.41c-.26-.06-.57-.1-.95-.1-1.17 0-1.75.55-1.75 1.64v.93h2.31v2.28h-2.31v9.35h-3.11zM373.25 40.75c-.14-.28-.25-.63-.31-1.04-.75.84-1.73 1.26-2.93 1.26-1.14 0-2.08-.33-2.83-.99-.75-.66-1.12-1.49-1.12-2.49 0-1.23.46-2.18 1.37-2.84.91-.66 2.23-.99 3.96-1h1.43v-.67c0-.54-.14-.97-.41-1.29-.28-.32-.71-.48-1.31-.48-.52 0-.93.13-1.23.38-.3.25-.45.59-.45 1.03h-3.1c0-.67.21-1.3.62-1.87.42-.57 1-1.02 1.76-1.35.76-.33 1.61-.49 2.56-.49 1.43 0 2.57.36 3.41 1.08.84.72 1.26 1.73 1.26 3.03v5.04c.01 1.1.16 1.94.46 2.5v.18h-3.14zm-2.57-2.15c.46 0 .88-.1 1.27-.31s.67-.48.86-.82v-2h-1.16c-1.55 0-2.38.54-2.48 1.61l-.01.18c0 .39.14.71.41.96.27.25.64.38 1.11.38zM383.14 38.47c.57 0 1.04-.16 1.4-.47.36-.31.54-.73.56-1.26h2.91c-.01.79-.22 1.51-.64 2.16s-1 1.16-1.73 1.53c-.73.36-1.55.54-2.43.54-1.66 0-2.97-.53-3.93-1.58-.96-1.06-1.44-2.52-1.44-4.38v-.2c0-1.79.48-3.22 1.43-4.29.95-1.07 2.26-1.6 3.92-1.6 1.45 0 2.62.41 3.5 1.24.88.83 1.32 1.93 1.34 3.3h-2.91c-.01-.6-.2-1.1-.56-1.47s-.83-.57-1.42-.57c-.72 0-1.27.26-1.64.79-.37.53-.55 1.38-.55 2.57v.32c0 1.2.18 2.06.55 2.58.34.52.9.79 1.64.79zM395.13 40.97c-1.7 0-3.09-.52-4.16-1.57-1.07-1.05-1.61-2.44-1.61-4.18v-.3c0-1.17.23-2.21.68-3.13.45-.92 1.09-1.63 1.92-2.13.83-.5 1.77-.75 2.83-.75 1.59 0 2.84.5 3.75 1.5.91 1 1.37 2.42 1.37 4.26v1.27h-7.4c.1.76.4 1.37.91 1.83.51.46 1.14.69 1.92.69 1.2 0 2.13-.43 2.8-1.3l1.53 1.71c-.47.66-1.1 1.17-1.89 1.54s-1.68.56-2.65.56zm-.35-9.55c-.62 0-1.12.21-1.5.63-.38.42-.63 1.01-.74 1.79h4.32v-.25c-.01-.69-.2-1.22-.56-1.6-.36-.38-.87-.57-1.52-.57zM401.19 34.86c0-1.81.41-3.25 1.22-4.33.81-1.07 1.92-1.61 3.34-1.61 1.13 0 2.07.42 2.8 1.27v-5.93h3.12v16.5h-2.8l-.15-1.24c-.77.97-1.77 1.45-2.99 1.45-1.37 0-2.46-.54-3.29-1.62-.84-1.08-1.25-2.57-1.25-4.49zm3.1.23c0 1.09.19 1.93.57 2.51.38.58.93.87 1.65.87.96 0 1.64-.41 2.03-1.22v-4.59c-.39-.81-1.06-1.22-2.01-1.22-1.49 0-2.24 1.22-2.24 3.65zM428.38 35.89c0-.69-.19-1.25-.58-1.66-.38-.41-1.04-.79-1.96-1.14s-1.72-.69-2.39-1.03-1.24-.74-1.72-1.18c-.48-.44-.85-.97-1.12-1.57-.27-.6-.4-1.32-.4-2.15 0-1.43.46-2.6 1.37-3.52s2.13-1.45 3.64-1.6v-2.72h2.03v2.75c1.5.21 2.67.84 3.52 1.87s1.27 2.38 1.27 4.03h-3.67c0-1.02-.21-1.78-.63-2.28-.42-.5-.98-.76-1.68-.76-.69 0-1.23.2-1.61.59s-.57.94-.57 1.63c0 .64.19 1.16.56 1.55s1.06.79 2.08 1.19c1.01.41 1.84.79 2.49 1.15s1.2.77 1.65 1.22.79.97 1.03 1.55.36 1.25.36 2.02c0 1.44-.45 2.61-1.35 3.5s-2.13 1.43-3.71 1.59v2.53h-2.02v-2.51c-1.74-.19-3.08-.8-4.03-1.85-.95-1.05-1.43-2.44-1.43-4.17h3.67c0 1.01.24 1.78.72 2.32.48.54 1.17.81 2.06.81.75 0 1.33-.2 1.76-.59s.66-.9.66-1.57zM438.26 29.89h1.96c.93 0 1.62-.23 2.07-.7s.67-1.08.67-1.85c0-.74-.22-1.32-.67-1.74-.44-.41-1.06-.62-1.83-.62-.7 0-1.29.19-1.76.58s-.71.89-.71 1.5h-3.67c0-.96.26-1.83.78-2.6s1.25-1.36 2.18-1.8c.93-.43 1.96-.65 3.09-.65 1.96 0 3.49.47 4.6 1.4s1.66 2.22 1.66 3.87c0 .85-.26 1.62-.77 2.34s-1.19 1.26-2.03 1.64c1.04.37 1.82.93 2.33 1.68.51.74.77 1.62.77 2.64 0 1.64-.6 2.96-1.8 3.95-1.2.99-2.78 1.49-4.75 1.49-1.84 0-3.35-.49-4.53-1.46-1.17-.97-1.76-2.26-1.76-3.86h3.67c0 .69.26 1.26.78 1.7.52.44 1.16.66 1.92.66.87 0 1.55-.23 2.05-.69.49-.46.74-1.07.74-1.83 0-1.85-1.02-2.77-3.05-2.77h-1.94v-2.88zM449.79 38.95c0-.58.2-1.06.59-1.42.39-.36.89-.55 1.48-.55.6 0 1.1.18 1.49.55.39.36.59.84.59 1.42s-.19 1.04-.58 1.4-.89.54-1.5.54c-.6 0-1.1-.18-1.49-.54s-.58-.82-.58-1.4zM457.54 31.66l1.07-9.39h10.36v3.06h-7.35l-.46 3.97c.87-.47 1.8-.7 2.78-.7 1.76 0 3.14.55 4.14 1.64s1.5 2.62 1.5 4.58c0 1.19-.25 2.26-.76 3.21-.5.94-1.22 1.68-2.16 2.2s-2.05.78-3.33.78c-1.12 0-2.15-.23-3.11-.68s-1.71-1.09-2.27-1.91c-.55-.82-.85-1.76-.88-2.81h3.63c.08.77.34 1.37.81 1.8.46.43 1.06.64 1.81.64.83 0 1.47-.3 1.92-.9s.67-1.44.67-2.53c0-1.05-.26-1.85-.77-2.41s-1.25-.84-2.2-.84c-.87 0-1.58.23-2.12.69l-.36.33-2.92-.73zM490.92 34.01c0 2.2-.47 3.92-1.41 5.15s-2.25 1.85-3.94 1.85c-1.49 0-2.68-.57-3.57-1.71l-.17 1.46h-3.3v-19.5h3.67v7c.85-.99 1.96-1.49 3.34-1.49 1.68 0 2.99.62 3.94 1.85.95 1.23 1.43 2.96 1.43 5.2v.19zm-3.67-.26c0-1.39-.22-2.4-.66-3.04s-1.1-.96-1.97-.96c-1.17 0-1.97.48-2.41 1.43v5.42c.45.96 1.26 1.45 2.44 1.45s1.96-.58 2.34-1.75c.17-.56.26-1.41.26-2.55zM493.16 23.46c0-.55.18-1 .55-1.36.37-.36.87-.53 1.5-.53s1.13.18 1.5.53.56.81.56 1.36c0 .56-.19 1.02-.57 1.37-.38.36-.87.53-1.49.53s-1.12-.18-1.49-.53c-.38-.35-.56-.81-.56-1.37zm3.89 17.29h-3.68V27.02h3.68v13.73zM503.95 40.75h-3.68v-19.5h3.68v19.5zM510.84 40.75h-3.68v-19.5h3.68v19.5zM513.84 23.46c0-.55.18-1 .55-1.36.37-.36.87-.53 1.5-.53s1.13.18 1.5.53.56.81.56 1.36c0 .56-.19 1.02-.57 1.37-.38.36-.87.53-1.49.53s-1.12-.18-1.49-.53c-.38-.35-.56-.81-.56-1.37zm3.89 17.29h-3.68V27.02h3.68v13.73zM520.18 33.76c0-1.36.26-2.58.79-3.64s1.28-1.89 2.27-2.48c.99-.58 2.13-.88 3.43-.88 1.85 0 3.37.57 4.54 1.7s1.83 2.67 1.96 4.62l.03.94c0 2.11-.59 3.8-1.76 5.07S528.69 41 526.7 41s-3.56-.63-4.74-1.9c-1.18-1.27-1.77-3-1.77-5.18v-.16zm3.67.26c0 1.31.25 2.3.74 2.99s1.19 1.04 2.11 1.04c.89 0 1.58-.34 2.08-1.02.5-.68.75-1.77.75-3.27 0-1.28-.25-2.27-.75-2.98-.5-.7-1.2-1.06-2.11-1.06-.9 0-1.59.35-2.08 1.05-.49.7-.74 1.78-.74 3.25zM538.83 27.02l.11 1.59c.98-1.23 2.3-1.84 3.95-1.84 1.46 0 2.54.43 3.25 1.28s1.08 2.13 1.09 3.83v8.87h-3.67v-8.79c0-.78-.17-1.34-.51-1.69s-.9-.53-1.69-.53c-1.03 0-1.81.44-2.32 1.32v9.69h-3.67V27.02h3.46zM252.94 49.77c0-.46.16-.85.47-1.15.31-.3.74-.45 1.27-.45s.95.15 1.27.45.47.68.47 1.15c0 .47-.16.86-.48 1.16-.32.3-.74.45-1.26.45s-.94-.15-1.26-.45c-.32-.3-.48-.68-.48-1.16zm3.29 14.63h-3.12V52.78h3.12V64.4zM261.65 52.78l.1 1.34c.83-1.04 1.94-1.56 3.34-1.56 1.23 0 2.15.36 2.75 1.09.6.72.91 1.8.92 3.24v7.51h-3.1v-7.43c0-.66-.14-1.14-.43-1.43s-.76-.45-1.43-.45c-.87 0-1.53.37-1.97 1.12v8.2h-3.1V52.78h2.92zM276.11 58.49c0-1.15.22-2.18.67-3.08s1.08-1.6 1.92-2.09c.83-.49 1.8-.74 2.91-.74 1.57 0 2.85.48 3.84 1.44.99.96 1.54 2.26 1.66 3.91l.02.79c0 1.78-.5 3.21-1.49 4.29-1 1.08-2.33 1.62-4.01 1.62s-3.01-.54-4.01-1.61-1.5-2.54-1.5-4.38v-.15zm3.1.22c0 1.1.21 1.95.62 2.53.42.58 1.01.88 1.78.88.75 0 1.34-.29 1.76-.87.42-.58.63-1.5.63-2.77 0-1.08-.21-1.92-.63-2.52s-1.02-.89-1.78-.89-1.35.29-1.76.89-.62 1.5-.62 2.75zM295.99 63.22c-.77.93-1.83 1.4-3.18 1.4-1.25 0-2.2-.36-2.85-1.07-.65-.71-.99-1.76-1-3.15v-7.62h3.1v7.52c0 1.21.55 1.82 1.65 1.82 1.05 0 1.78-.37 2.17-1.1v-8.24H299V64.4h-2.92l-.09-1.18zM305.06 49.92v2.86h1.99v2.28h-1.99v5.8c0 .43.08.74.25.92.17.19.48.28.95.28.34 0 .65-.02.91-.07v2.35c-.61.19-1.24.28-1.88.28-2.18 0-3.29-1.1-3.33-3.3v-6.26h-1.7v-2.28h1.7v-2.86h3.1zM314.81 58.96h-6.05v-2.5h6.05v2.5zM316.82 58.49c0-1.15.22-2.18.67-3.08s1.08-1.6 1.92-2.09c.83-.49 1.8-.74 2.91-.74 1.57 0 2.85.48 3.84 1.44.99.96 1.54 2.26 1.66 3.91l.02.79c0 1.78-.5 3.21-1.49 4.29-1 1.08-2.33 1.62-4.01 1.62s-3.01-.54-4.01-1.61-1.5-2.54-1.5-4.38v-.15zm3.11.22c0 1.1.21 1.95.62 2.53.42.58 1.01.88 1.78.88.75 0 1.34-.29 1.76-.87.42-.58.63-1.5.63-2.77 0-1.08-.21-1.92-.63-2.52s-1.02-.89-1.78-.89-1.35.29-1.76.89-.62 1.5-.62 2.75zM330.59 64.4v-9.35h-1.73v-2.28h1.73v-.99c0-1.3.37-2.31 1.12-3.03.75-.72 1.79-1.08 3.14-1.08.43 0 .96.07 1.58.21l-.03 2.41c-.26-.06-.57-.1-.95-.1-1.17 0-1.75.55-1.75 1.64v.93h2.31v2.28h-2.31v9.35h-3.11zM343.67 58.96h-6.05v-2.5h6.05v2.5zM356.62 58.7c0 1.79-.41 3.22-1.22 4.3-.81 1.08-1.91 1.62-3.29 1.62-1.17 0-2.12-.41-2.85-1.22v5.48h-3.1v-16.1h2.88l.11 1.14c.75-.9 1.73-1.35 2.94-1.35 1.43 0 2.55.53 3.34 1.59s1.19 2.52 1.19 4.38v.16zm-3.1-.23c0-1.08-.19-1.92-.57-2.5-.38-.59-.94-.88-1.67-.88-.97 0-1.64.37-2.01 1.12v4.76c.38.77 1.06 1.15 2.03 1.15 1.47 0 2.22-1.22 2.22-3.65zM358.06 58.49c0-1.15.22-2.18.67-3.08s1.08-1.6 1.92-2.09c.83-.49 1.8-.74 2.91-.74 1.57 0 2.85.48 3.84 1.44.99.96 1.54 2.26 1.66 3.91l.02.79c0 1.78-.5 3.21-1.49 4.29-1 1.08-2.33 1.62-4.01 1.62-1.68 0-3.01-.54-4.01-1.61s-1.5-2.54-1.5-4.38v-.15zm3.1.22c0 1.1.21 1.95.62 2.53.42.58 1.01.88 1.78.88.75 0 1.34-.29 1.76-.87.42-.58.63-1.5.63-2.77 0-1.08-.21-1.92-.63-2.52-.42-.6-1.02-.89-1.78-.89s-1.35.29-1.76.89-.62 1.5-.62 2.75zM375.82 62.12c.57 0 1.04-.16 1.4-.47.36-.32.54-.73.56-1.26h2.91c-.01.79-.22 1.51-.64 2.17s-1 1.16-1.73 1.53c-.73.36-1.55.54-2.43.54-1.66 0-2.97-.53-3.93-1.58s-1.44-2.52-1.44-4.38v-.21c0-1.79.48-3.22 1.43-4.29.95-1.07 2.26-1.6 3.92-1.6 1.45 0 2.62.41 3.5 1.24.88.83 1.32 1.93 1.34 3.3h-2.91c-.01-.61-.2-1.1-.56-1.47s-.83-.57-1.42-.57c-.72 0-1.27.26-1.64.79-.37.53-.55 1.38-.55 2.57v.32c0 1.2.18 2.06.55 2.58.34.53.89.79 1.64.79zM386.68 59.74l-1.12 1.12v3.54h-3.1V47.9h3.1v9.14l.6-.77 2.98-3.49h3.73l-4.2 4.85 4.57 6.78h-3.57l-2.99-4.67zM399.56 64.62c-1.7 0-3.09-.52-4.16-1.57-1.07-1.04-1.61-2.44-1.61-4.18v-.3c0-1.17.23-2.21.68-3.13.45-.92 1.09-1.63 1.92-2.13.83-.5 1.77-.75 2.83-.75 1.59 0 2.84.5 3.75 1.5.91 1 1.37 2.42 1.37 4.27v1.27h-7.4c.1.76.4 1.37.91 1.83.51.46 1.14.69 1.92.69 1.2 0 2.13-.43 2.8-1.3l1.53 1.71c-.47.66-1.1 1.17-1.89 1.54s-1.69.55-2.65.55zm-.36-9.55c-.62 0-1.12.21-1.5.62-.38.42-.63 1.01-.74 1.79h4.32v-.25c-.01-.69-.2-1.22-.56-1.6-.35-.37-.86-.56-1.52-.56zM409.82 49.92v2.86h1.99v2.28h-1.99v5.8c0 .43.08.74.25.92.17.19.48.28.95.28.34 0 .65-.02.91-.07v2.35c-.61.19-1.24.28-1.88.28-2.18 0-3.29-1.1-3.33-3.3v-6.26h-1.7v-2.28h1.7v-2.86h3.1zM419.86 64.4v-9.35h-1.73v-2.28h1.73v-.99c0-1.3.37-2.31 1.12-3.03.75-.72 1.79-1.08 3.14-1.08.43 0 .96.07 1.58.21l-.03 2.41c-.26-.06-.57-.1-.95-.1-1.17 0-1.75.55-1.75 1.64v.93h2.31v2.28h-2.31v9.35h-3.11zM433.43 55.69c-.42-.06-.79-.09-1.12-.09-1.17 0-1.94.4-2.31 1.19v7.61h-3.1V52.78h2.93l.09 1.39c.62-1.07 1.49-1.6 2.59-1.6.34 0 .67.05.97.14l-.05 2.98zM441.33 64.4c-.14-.28-.25-.63-.31-1.04-.75.84-1.73 1.26-2.93 1.26-1.14 0-2.08-.33-2.83-.99-.75-.66-1.12-1.49-1.12-2.49 0-1.23.46-2.18 1.37-2.84.91-.66 2.23-.99 3.96-1h1.43v-.67c0-.54-.14-.97-.41-1.29-.28-.32-.71-.48-1.31-.48-.52 0-.93.13-1.23.38-.3.25-.45.59-.45 1.03h-3.1c0-.67.21-1.3.62-1.87.42-.57 1-1.02 1.76-1.35.76-.33 1.61-.49 2.56-.49 1.43 0 2.57.36 3.41 1.08.84.72 1.26 1.73 1.26 3.04v5.04c.01 1.1.16 1.94.46 2.5v.18h-3.14zm-2.56-2.15c.46 0 .88-.1 1.27-.31s.67-.48.86-.82v-2h-1.16c-1.55 0-2.38.54-2.48 1.61l-.01.18c0 .39.14.71.41.96.26.25.63.38 1.11.38zM453.35 63.22c-.77.93-1.83 1.4-3.18 1.4-1.25 0-2.2-.36-2.85-1.07-.65-.71-.99-1.76-1-3.15v-7.62h3.1v7.52c0 1.21.55 1.82 1.65 1.82 1.05 0 1.78-.37 2.17-1.1v-8.24h3.12V64.4h-2.92l-.09-1.18zM458.22 58.51c0-1.81.41-3.26 1.22-4.33.81-1.07 1.92-1.61 3.34-1.61 1.13 0 2.07.42 2.8 1.27V47.9h3.12v16.5h-2.8l-.15-1.23c-.77.97-1.77 1.45-2.99 1.45-1.37 0-2.46-.54-3.29-1.62-.84-1.07-1.25-2.57-1.25-4.49zm3.11.23c0 1.09.19 1.93.57 2.51s.93.87 1.65.87c.96 0 1.64-.41 2.03-1.22v-4.59c-.39-.81-1.06-1.21-2.01-1.21-1.5-.01-2.24 1.21-2.24 3.64zM481.41 62.12c.57 0 1.04-.16 1.4-.47.36-.32.54-.73.56-1.26h2.91c-.01.79-.22 1.51-.64 2.17s-1 1.16-1.73 1.53c-.73.36-1.55.54-2.43.54-1.66 0-2.97-.53-3.93-1.58s-1.44-2.52-1.44-4.38v-.21c0-1.79.48-3.22 1.43-4.29.95-1.07 2.26-1.6 3.92-1.6 1.45 0 2.62.41 3.5 1.24.88.83 1.32 1.93 1.34 3.3h-2.91c-.01-.61-.2-1.1-.56-1.47s-.83-.57-1.42-.57c-.72 0-1.27.26-1.64.79-.37.53-.55 1.38-.55 2.57v.32c0 1.2.18 2.06.55 2.58.34.53.9.79 1.64.79zM487.57 58.49c0-1.15.22-2.18.67-3.08s1.08-1.6 1.92-2.09c.83-.49 1.8-.74 2.91-.74 1.57 0 2.85.48 3.84 1.44.99.96 1.54 2.26 1.66 3.91l.02.79c0 1.78-.5 3.21-1.49 4.29-1 1.08-2.33 1.62-4.01 1.62s-3.01-.54-4.01-1.61-1.5-2.54-1.5-4.38v-.15zm3.1.22c0 1.1.21 1.95.62 2.53.42.58 1.01.88 1.78.88.75 0 1.34-.29 1.76-.87.42-.58.63-1.5.63-2.77 0-1.08-.21-1.92-.63-2.52s-1.02-.89-1.78-.89-1.35.29-1.76.89-.62 1.5-.62 2.75zM506.79 61.19c0-.38-.19-.68-.56-.9-.38-.22-.98-.41-1.81-.58-2.76-.58-4.15-1.75-4.15-3.52 0-1.03.43-1.89 1.28-2.58.86-.69 1.98-1.04 3.36-1.04 1.48 0 2.66.35 3.54 1.04.88.69 1.33 1.6 1.33 2.71h-3.1c0-.44-.14-.81-.43-1.1s-.73-.44-1.34-.44c-.52 0-.93.12-1.21.36s-.43.54-.43.9c0 .34.16.62.49.83.33.21.88.39 1.65.55.77.15 1.42.33 1.96.52 1.64.6 2.46 1.64 2.46 3.13 0 1.06-.46 1.92-1.36 2.57s-2.08.98-3.52.98c-.97 0-1.84-.17-2.59-.52-.75-.35-1.35-.82-1.78-1.43s-.64-1.26-.64-1.96h2.94c.03.55.23.97.61 1.27.38.29.89.44 1.53.44.59 0 1.04-.11 1.35-.34.26-.23.42-.52.42-.89zM515.52 49.92v2.86h1.99v2.28h-1.99v5.8c0 .43.08.74.25.92.17.19.48.28.95.28.34 0 .65-.02.91-.07v2.35c-.61.19-1.24.28-1.88.28-2.18 0-3.29-1.1-3.33-3.3v-6.26h-1.7v-2.28h1.7v-2.86h3.1zM525.53 61.19c0-.38-.19-.68-.56-.9-.38-.22-.98-.41-1.81-.58-2.76-.58-4.15-1.75-4.15-3.52 0-1.03.43-1.89 1.28-2.58.86-.69 1.98-1.04 3.36-1.04 1.48 0 2.66.35 3.54 1.04.88.69 1.33 1.6 1.33 2.71h-3.1c0-.44-.14-.81-.43-1.1s-.73-.44-1.34-.44c-.52 0-.93.12-1.21.36s-.43.54-.43.9c0 .34.16.62.49.83.33.21.88.39 1.65.55.77.15 1.42.33 1.96.52 1.64.6 2.46 1.64 2.46 3.13 0 1.06-.46 1.92-1.36 2.57s-2.08.98-3.52.98c-.97 0-1.84-.17-2.59-.52-.75-.35-1.35-.82-1.78-1.43s-.64-1.26-.64-1.96h2.94c.03.55.23.97.61 1.27.38.29.89.44 1.53.44.59 0 1.04-.11 1.35-.34.27-.23.42-.52.42-.89zM530.71 62.88c0-.49.17-.89.5-1.2.33-.31.75-.46 1.25-.46.51 0 .93.15 1.26.46.33.31.5.71.5 1.2s-.17.88-.49 1.19-.75.46-1.27.46c-.51 0-.93-.15-1.26-.46s-.49-.7-.49-1.19z"/><g><path class="st0" d="M537.09 52.65l-2.15-.61.4-1.24 2.13.85-.14-2.38h1.34l-.14 2.43 2.07-.84.4 1.25-2.19.61 1.44 1.82-1.09.77-1.24-2-1.23 1.93-1.09-.74 1.49-1.85z"/></g></svg>