<?xml version="1.0" encoding="utf-8"?>
<!-- Generator: Adobe Illustrator 25.0.1, SVG Export Plug-In . SVG Version: 6.00 Build 0)  -->
<svg version="1.1" id="Layer_1" xmlns="http://www.w3.org/2000/svg" xmlns:xlink="http://www.w3.org/1999/xlink" x="0px" y="0px"
	 viewBox="0 0 300 250" style="enable-background:new 0 0 300 250;" xml:space="preserve">
<style type="text/css">
	.st0{fill:#021D8B;}
</style>
<g>
	<path class="st0" d="M42.28,154.2l-1.2,1.31v3.19h-2.91v-12.09h2.91v5.33l1.01-1.54l2.61-3.79h3.6l-4.08,5.35l4.08,6.74h-3.45
		L42.28,154.2z"/>
	<path class="st0" d="M53.26,158.87c-1.38,0-2.49-0.41-3.34-1.23c-0.85-0.82-1.28-1.89-1.28-3.21v-0.23c0-0.92,0.17-1.73,0.51-2.43
		c0.34-0.7,0.84-1.25,1.49-1.63s1.43-0.58,2.32-0.58c1.26,0,2.26,0.39,2.99,1.17s1.1,1.87,1.1,3.27v1.09h-5.56
		c0.1,0.5,0.32,0.9,0.66,1.19c0.34,0.29,0.77,0.43,1.31,0.43c0.89,0,1.58-0.31,2.08-0.93l1.28,1.51c-0.35,0.48-0.84,0.86-1.48,1.15
		C54.69,158.73,54,158.87,53.26,158.87z M52.95,151.71c-0.82,0-1.31,0.54-1.46,1.63h2.82v-0.22c0.01-0.45-0.1-0.8-0.34-1.04
		C53.73,151.84,53.39,151.71,52.95,151.71z"/>
	<path class="st0" d="M62.52,158.87c-1.38,0-2.49-0.41-3.34-1.23c-0.85-0.82-1.28-1.89-1.28-3.21v-0.23c0-0.92,0.17-1.73,0.51-2.43
		c0.34-0.7,0.84-1.25,1.49-1.63s1.43-0.58,2.32-0.58c1.26,0,2.26,0.39,2.99,1.17s1.1,1.87,1.1,3.27v1.09h-5.56
		c0.1,0.5,0.32,0.9,0.66,1.19c0.34,0.29,0.77,0.43,1.31,0.43c0.89,0,1.58-0.31,2.08-0.93l1.28,1.51c-0.35,0.48-0.84,0.86-1.48,1.15
		C63.94,158.73,63.25,158.87,62.52,158.87z M62.2,151.71c-0.82,0-1.31,0.54-1.46,1.63h2.82v-0.22c0.01-0.45-0.1-0.8-0.34-1.04
		C62.99,151.84,62.64,151.71,62.2,151.71z"/>
	<path class="st0" d="M75.77,154.28c0,1.39-0.31,2.51-0.94,3.34s-1.48,1.25-2.54,1.25c-0.83,0-1.5-0.3-2.03-0.9v4.19h-2.8v-12.43
		h2.62l0.08,0.83c0.54-0.66,1.24-1,2.12-1c1.11,0,1.97,0.41,2.58,1.22s0.92,1.94,0.92,3.37V154.28z M72.97,154.1
		c0-1.59-0.46-2.39-1.39-2.39c-0.66,0-1.11,0.24-1.33,0.71v3.54c0.24,0.5,0.69,0.75,1.34,0.75c0.89,0,1.35-0.77,1.38-2.31V154.1z"/>
	<path class="st0" d="M86.29,158.7c-0.1-0.18-0.19-0.45-0.27-0.8c-0.51,0.65-1.23,0.97-2.16,0.97c-0.85,0-1.57-0.26-2.16-0.77
		s-0.89-1.16-0.89-1.93c0-0.97,0.36-1.71,1.08-2.21c0.72-0.5,1.76-0.75,3.14-0.75h0.86v-0.48c0-0.83-0.36-1.24-1.07-1.24
		c-0.66,0-1,0.33-1,0.98h-2.8c0-0.87,0.37-1.57,1.11-2.11c0.74-0.54,1.68-0.81,2.83-0.81c1.15,0,2.05,0.28,2.71,0.84
		c0.66,0.56,1,1.33,1.02,2.3v3.98c0.01,0.82,0.14,1.46,0.38,1.89v0.14H86.29z M84.54,156.88c0.35,0,0.64-0.07,0.87-0.22
		c0.23-0.15,0.39-0.32,0.49-0.51v-1.44h-0.81c-0.97,0-1.46,0.44-1.46,1.31c0,0.25,0.08,0.46,0.26,0.62
		C84.06,156.8,84.27,156.88,84.54,156.88z"/>
	<path class="st0" d="M92.82,149.72l0.09,1.05c0.62-0.81,1.47-1.22,2.56-1.22c0.94,0,1.63,0.28,2.1,0.84
		c0.46,0.56,0.7,1.4,0.72,2.52v5.79h-2.81v-5.67c0-0.45-0.09-0.79-0.27-1s-0.51-0.32-1-0.32c-0.55,0-0.96,0.22-1.22,0.65v6.34h-2.8
		v-8.98H92.82z"/>
	<path class="st0" d="M108.42,158.87c-1.38,0-2.49-0.41-3.34-1.23c-0.85-0.82-1.28-1.89-1.28-3.21v-0.23c0-0.92,0.17-1.73,0.51-2.43
		c0.34-0.7,0.84-1.25,1.49-1.63s1.43-0.58,2.32-0.58c1.26,0,2.26,0.39,2.99,1.17s1.1,1.87,1.1,3.27v1.09h-5.56
		c0.1,0.5,0.32,0.9,0.66,1.19c0.34,0.29,0.77,0.43,1.31,0.43c0.89,0,1.58-0.31,2.08-0.93l1.28,1.51c-0.35,0.48-0.84,0.86-1.48,1.15
		C109.85,158.73,109.16,158.87,108.42,158.87z M108.11,151.71c-0.82,0-1.31,0.54-1.46,1.63h2.82v-0.22c0.01-0.45-0.1-0.8-0.34-1.04
		C108.89,151.84,108.55,151.71,108.11,151.71z"/>
	<path class="st0" d="M116.92,154.79l1.49-5.06h3l-3.66,10.48l-0.16,0.38c-0.52,1.16-1.44,1.74-2.76,1.74
		c-0.37,0-0.75-0.05-1.15-0.17v-1.99h0.37c0.39,0,0.69-0.06,0.9-0.17c0.21-0.11,0.36-0.32,0.46-0.61l0.22-0.6l-3.12-9.07h2.99
		L116.92,154.79z"/>
	<path class="st0" d="M126.48,158.87c-1.38,0-2.49-0.41-3.34-1.23c-0.85-0.82-1.28-1.89-1.28-3.21v-0.23c0-0.92,0.17-1.73,0.51-2.43
		c0.34-0.7,0.84-1.25,1.49-1.63s1.43-0.58,2.32-0.58c1.26,0,2.26,0.39,2.99,1.17s1.1,1.87,1.1,3.27v1.09h-5.56
		c0.1,0.5,0.32,0.9,0.66,1.19c0.34,0.29,0.77,0.43,1.31,0.43c0.89,0,1.58-0.31,2.08-0.93l1.28,1.51c-0.35,0.48-0.84,0.86-1.48,1.15
		C127.91,158.73,127.22,158.87,126.48,158.87z M126.17,151.71c-0.82,0-1.31,0.54-1.46,1.63h2.82v-0.22c0.01-0.45-0.1-0.8-0.34-1.04
		C126.95,151.84,126.61,151.71,126.17,151.71z"/>
	<path class="st0" d="M135.27,154.13c0-0.9,0.17-1.69,0.52-2.39c0.35-0.7,0.85-1.24,1.5-1.61s1.42-0.56,2.3-0.56
		c1.35,0,2.41,0.42,3.18,1.25s1.16,1.97,1.16,3.4v0.1c0,1.4-0.39,2.51-1.17,3.33c-0.78,0.82-1.83,1.23-3.16,1.23
		c-1.28,0-2.31-0.38-3.08-1.15s-1.19-1.81-1.25-3.12L135.27,154.13z M138.07,154.3c0,0.83,0.13,1.44,0.39,1.83s0.64,0.58,1.15,0.58
		c1,0,1.5-0.77,1.53-2.3v-0.28c0-1.61-0.52-2.42-1.54-2.42c-0.93,0-1.44,0.69-1.52,2.08L138.07,154.3z"/>
	<path class="st0" d="M147.74,149.72l0.09,1.05c0.62-0.81,1.47-1.22,2.56-1.22c0.94,0,1.63,0.28,2.1,0.84
		c0.46,0.56,0.7,1.4,0.72,2.52v5.79h-2.81v-5.67c0-0.45-0.09-0.79-0.27-1s-0.51-0.32-1-0.32c-0.55,0-0.96,0.22-1.22,0.65v6.34h-2.8
		v-8.98H147.74z"/>
	<path class="st0" d="M162.58,154.79l1.49-5.06h3l-3.66,10.48l-0.16,0.38c-0.52,1.16-1.44,1.74-2.76,1.74
		c-0.37,0-0.75-0.05-1.15-0.17v-1.99h0.37c0.39,0,0.69-0.06,0.9-0.17c0.21-0.11,0.36-0.32,0.46-0.61l0.22-0.6l-3.12-9.07h2.99
		L162.58,154.79z"/>
	<path class="st0" d="M167.45,154.13c0-0.9,0.17-1.69,0.52-2.39c0.35-0.7,0.85-1.24,1.5-1.61s1.42-0.56,2.3-0.56
		c1.35,0,2.41,0.42,3.18,1.25s1.16,1.97,1.16,3.4v0.1c0,1.4-0.39,2.51-1.17,3.33c-0.78,0.82-1.83,1.23-3.16,1.23
		c-1.28,0-2.31-0.38-3.08-1.15s-1.19-1.81-1.25-3.12L167.45,154.13z M170.25,154.3c0,0.83,0.13,1.44,0.39,1.83s0.64,0.58,1.15,0.58
		c1,0,1.5-0.77,1.53-2.3v-0.28c0-1.61-0.52-2.42-1.54-2.42c-0.93,0-1.44,0.69-1.52,2.08L170.25,154.3z"/>
	<path class="st0" d="M182.7,157.73c-0.59,0.76-1.39,1.14-2.4,1.14c-0.99,0-1.73-0.29-2.24-0.86c-0.51-0.57-0.76-1.4-0.76-2.47
		v-5.82h2.8v5.83c0,0.77,0.37,1.15,1.12,1.15c0.64,0,1.1-0.23,1.37-0.69v-6.3h2.81v8.98h-2.62L182.7,157.73z"/>
	<path class="st0" d="M192.37,152.25l-0.92-0.07c-0.88,0-1.44,0.28-1.69,0.83v5.69h-2.8v-8.98h2.62l0.09,1.15
		c0.47-0.88,1.13-1.32,1.97-1.32c0.3,0,0.56,0.03,0.78,0.1L192.37,152.25z"/>
	<path class="st0" d="M197.59,147.41c0-0.4,0.14-0.73,0.43-0.98c0.29-0.25,0.66-0.38,1.12-0.38c0.46,0,0.83,0.13,1.12,0.38
		c0.29,0.25,0.43,0.58,0.43,0.98s-0.14,0.72-0.43,0.98c-0.29,0.25-0.66,0.38-1.12,0.38c-0.46,0-0.83-0.13-1.12-0.38
		C197.73,148.13,197.59,147.8,197.59,147.41z M200.56,158.7h-2.81v-8.98h2.81V158.7z"/>
	<path class="st0" d="M201.93,154.15c0-1.42,0.31-2.54,0.92-3.36c0.61-0.82,1.47-1.23,2.57-1.23c0.8,0,1.48,0.32,2.03,0.95v-4.55
		h2.81v12.75h-2.52l-0.14-0.96c-0.58,0.75-1.31,1.13-2.19,1.13c-1.07,0-1.92-0.41-2.54-1.23
		C202.24,156.82,201.93,155.66,201.93,154.15z M204.73,154.32c0,1.59,0.46,2.39,1.39,2.39c0.62,0,1.06-0.26,1.33-0.78v-3.42
		c-0.25-0.53-0.69-0.8-1.31-0.8c-0.86,0-1.33,0.7-1.4,2.09L204.73,154.32z"/>
	<path class="st0" d="M216.19,158.87c-1.38,0-2.49-0.41-3.34-1.23c-0.85-0.82-1.28-1.89-1.28-3.21v-0.23c0-0.92,0.17-1.73,0.51-2.43
		c0.34-0.7,0.84-1.25,1.49-1.63s1.43-0.58,2.32-0.58c1.26,0,2.26,0.39,2.99,1.17s1.1,1.87,1.1,3.27v1.09h-5.56
		c0.1,0.5,0.32,0.9,0.66,1.19c0.34,0.29,0.77,0.43,1.31,0.43c0.89,0,1.58-0.31,2.08-0.93l1.28,1.51c-0.35,0.48-0.84,0.86-1.48,1.15
		C217.61,158.73,216.93,158.87,216.19,158.87z M215.88,151.71c-0.82,0-1.31,0.54-1.46,1.63h2.82v-0.22c0.01-0.45-0.1-0.8-0.34-1.04
		C216.66,151.84,216.32,151.71,215.88,151.71z"/>
	<path class="st0" d="M223.67,149.72l0.09,1.05c0.62-0.81,1.47-1.22,2.56-1.22c0.94,0,1.63,0.28,2.1,0.84
		c0.46,0.56,0.7,1.4,0.72,2.52v5.79h-2.81v-5.67c0-0.45-0.09-0.79-0.27-1s-0.51-0.32-1-0.32c-0.55,0-0.96,0.22-1.22,0.65v6.34h-2.8
		v-8.98H223.67z"/>
	<path class="st0" d="M233.95,147.49v2.23h1.48v1.94h-1.48v4.11c0,0.34,0.06,0.57,0.18,0.71c0.12,0.13,0.36,0.2,0.72,0.2
		c0.28,0,0.51-0.02,0.7-0.05v2c-0.5,0.16-1.03,0.24-1.58,0.24c-0.96,0-1.67-0.23-2.13-0.68c-0.46-0.45-0.69-1.14-0.69-2.07v-4.46
		H230v-1.94h1.15v-2.23H233.95z"/>
	<path class="st0" d="M236.5,147.41c0-0.4,0.14-0.73,0.43-0.98c0.29-0.25,0.66-0.38,1.12-0.38c0.46,0,0.83,0.13,1.12,0.38
		c0.29,0.25,0.43,0.58,0.43,0.98s-0.14,0.72-0.43,0.98c-0.29,0.25-0.66,0.38-1.12,0.38c-0.46,0-0.83-0.13-1.12-0.38
		C236.65,148.13,236.5,147.8,236.5,147.41z M239.47,158.7h-2.81v-8.98h2.81V158.7z"/>
	<path class="st0" d="M244.46,147.49v2.23h1.48v1.94h-1.48v4.11c0,0.34,0.06,0.57,0.18,0.71c0.12,0.13,0.36,0.2,0.72,0.2
		c0.28,0,0.51-0.02,0.7-0.05v2c-0.5,0.16-1.03,0.24-1.58,0.24c-0.96,0-1.67-0.23-2.13-0.68c-0.46-0.45-0.69-1.14-0.69-2.07v-4.46
		h-1.15v-1.94h1.15v-2.23H244.46z"/>
	<path class="st0" d="M250.62,154.79l1.49-5.06h3l-3.66,10.48l-0.16,0.38c-0.52,1.16-1.44,1.74-2.76,1.74
		c-0.37,0-0.75-0.05-1.15-0.17v-1.99h0.37c0.39,0,0.69-0.06,0.9-0.17c0.21-0.11,0.36-0.32,0.46-0.61l0.22-0.6l-3.12-9.07h2.99
		L250.62,154.79z"/>
	<path class="st0" d="M60.67,175.42l0.91-5.3h2.68l-2.12,8.98h-2.37l-1.49-5.33l-1.49,5.33h-2.37l-2.12-8.98H55l0.89,5.42l1.43-5.42
		h1.95L60.67,175.42z"/>
	<path class="st0" d="M65.24,167.81c0-0.4,0.14-0.73,0.43-0.98c0.29-0.25,0.66-0.38,1.12-0.38c0.46,0,0.83,0.13,1.12,0.38
		c0.29,0.25,0.43,0.58,0.43,0.98s-0.14,0.72-0.43,0.98c-0.29,0.25-0.66,0.38-1.12,0.38c-0.46,0-0.83-0.13-1.12-0.38
		C65.38,168.53,65.24,168.21,65.24,167.81z M68.21,179.1h-2.81v-8.98h2.81V179.1z"/>
	<path class="st0" d="M73.19,167.89v2.23h1.48v1.94h-1.48v4.11c0,0.34,0.06,0.57,0.18,0.71c0.12,0.13,0.36,0.2,0.72,0.2
		c0.28,0,0.51-0.02,0.7-0.05v2c-0.5,0.16-1.03,0.24-1.58,0.24c-0.96,0-1.67-0.23-2.13-0.68c-0.46-0.45-0.69-1.14-0.69-2.07v-4.46
		h-1.15v-1.94h1.15v-2.23H73.19z"/>
	<path class="st0" d="M78.5,171.08c0.6-0.75,1.36-1.13,2.29-1.13c0.99,0,1.74,0.29,2.24,0.88s0.76,1.45,0.77,2.6v5.67H81v-5.6
		c0-0.48-0.1-0.83-0.29-1.05c-0.19-0.22-0.52-0.34-0.99-0.34c-0.58,0-0.98,0.18-1.22,0.55v6.44h-2.8v-12.75h2.8V171.08z"/>
	<path class="st0" d="M92.64,175v4.1h-2.91v-12.09h4.82c0.92,0,1.74,0.17,2.45,0.51c0.71,0.34,1.26,0.82,1.65,1.45
		c0.39,0.63,0.58,1.34,0.58,2.14c0,1.18-0.42,2.12-1.27,2.83c-0.84,0.71-2,1.06-3.47,1.06H92.64z M92.64,172.75h1.91
		c0.56,0,0.99-0.14,1.29-0.42s0.44-0.68,0.44-1.2c0-0.56-0.15-1.02-0.46-1.35c-0.3-0.34-0.72-0.51-1.24-0.51h-1.94V172.75z"/>
	<path class="st0" d="M106.1,172.65l-0.92-0.07c-0.88,0-1.44,0.28-1.69,0.83v5.69h-2.8v-8.98h2.62l0.09,1.15
		c0.47-0.88,1.13-1.32,1.97-1.32c0.3,0,0.56,0.03,0.78,0.1L106.1,172.65z"/>
	<path class="st0" d="M107.08,167.81c0-0.4,0.14-0.73,0.43-0.98c0.29-0.25,0.66-0.38,1.12-0.38c0.46,0,0.83,0.13,1.12,0.38
		c0.29,0.25,0.43,0.58,0.43,0.98s-0.14,0.72-0.43,0.98c-0.29,0.25-0.66,0.38-1.12,0.38c-0.46,0-0.83-0.13-1.12-0.38
		C107.23,168.53,107.08,168.21,107.08,167.81z M110.06,179.1h-2.81v-8.98h2.81V179.1z"/>
	<path class="st0" d="M115.36,175.78l1.42-5.65h2.95l-2.93,8.98h-2.86l-2.93-8.98h2.96L115.36,175.78z"/>
	<path class="st0" d="M125.5,179.1c-0.1-0.18-0.19-0.45-0.27-0.8c-0.51,0.65-1.23,0.97-2.16,0.97c-0.85,0-1.57-0.26-2.16-0.77
		s-0.89-1.16-0.89-1.93c0-0.97,0.36-1.71,1.08-2.21c0.72-0.5,1.76-0.75,3.14-0.75h0.86v-0.48c0-0.83-0.36-1.24-1.07-1.24
		c-0.66,0-1,0.33-1,0.98h-2.8c0-0.87,0.37-1.57,1.11-2.11c0.74-0.54,1.68-0.81,2.83-0.81c1.15,0,2.05,0.28,2.71,0.84
		c0.66,0.56,1,1.33,1.02,2.3v3.98c0.01,0.82,0.14,1.46,0.38,1.89v0.14H125.5z M123.74,177.28c0.35,0,0.64-0.07,0.87-0.22
		c0.23-0.15,0.39-0.32,0.49-0.51v-1.44h-0.81c-0.97,0-1.46,0.44-1.46,1.31c0,0.25,0.08,0.46,0.26,0.62
		C123.26,177.2,123.48,177.28,123.74,177.28z"/>
	<path class="st0" d="M133.26,177.11c0.39,0,0.7-0.11,0.91-0.32s0.32-0.51,0.32-0.89h2.62c0,0.99-0.35,1.79-1.06,2.42
		c-0.71,0.63-1.61,0.95-2.73,0.95c-1.31,0-2.33-0.41-3.09-1.23s-1.13-1.95-1.13-3.4v-0.12c0-0.91,0.17-1.71,0.5-2.4
		s0.82-1.23,1.45-1.6c0.63-0.37,1.38-0.56,2.24-0.56c1.17,0,2.09,0.32,2.78,0.97c0.69,0.65,1.03,1.52,1.03,2.63h-2.62
		c0-0.46-0.11-0.82-0.34-1.07c-0.23-0.25-0.53-0.37-0.91-0.37c-0.72,0-1.15,0.46-1.27,1.39c-0.04,0.29-0.06,0.7-0.06,1.21
		c0,0.9,0.11,1.53,0.32,1.88C132.44,176.94,132.79,177.11,133.26,177.11z"/>
	<path class="st0" d="M141.88,175.19l1.49-5.06h3l-3.66,10.48l-0.16,0.38c-0.52,1.16-1.44,1.74-2.76,1.74
		c-0.37,0-0.75-0.05-1.15-0.17v-1.99h0.37c0.39,0,0.69-0.06,0.9-0.17c0.21-0.11,0.36-0.32,0.46-0.61l0.22-0.6l-3.12-9.07h2.99
		L141.88,175.19z"/>
	<path class="st0" d="M157.12,177.61c-0.45,0.5-1.1,0.9-1.97,1.2c-0.86,0.3-1.81,0.46-2.84,0.46c-1.58,0-2.85-0.48-3.79-1.45
		c-0.95-0.97-1.45-2.32-1.52-4.04l-0.01-1.05c0-1.19,0.21-2.23,0.63-3.12c0.42-0.89,1.02-1.57,1.81-2.05s1.69-0.72,2.72-0.72
		c1.5,0,2.67,0.34,3.51,1.03c0.83,0.69,1.32,1.72,1.46,3.08h-2.8c-0.1-0.68-0.32-1.16-0.65-1.45c-0.33-0.29-0.8-0.43-1.41-0.43
		c-0.73,0-1.29,0.31-1.69,0.93c-0.4,0.62-0.6,1.51-0.61,2.66v0.73c0,1.21,0.21,2.11,0.62,2.72c0.41,0.61,1.06,0.91,1.95,0.91
		c0.76,0,1.32-0.17,1.69-0.51v-1.88h-2.03v-2h4.94V177.61z"/>
	<path class="st0" d="M164.04,178.13c-0.59,0.76-1.39,1.14-2.4,1.14c-0.99,0-1.73-0.29-2.24-0.86c-0.51-0.57-0.76-1.4-0.76-2.47
		v-5.82h2.8v5.83c0,0.77,0.37,1.15,1.12,1.15c0.64,0,1.1-0.23,1.37-0.69v-6.3h2.81v8.98h-2.62L164.04,178.13z"/>
	<path class="st0" d="M173.33,179.1c-0.1-0.18-0.19-0.45-0.27-0.8c-0.51,0.65-1.23,0.97-2.16,0.97c-0.85,0-1.57-0.26-2.16-0.77
		s-0.89-1.16-0.89-1.93c0-0.97,0.36-1.71,1.08-2.21c0.72-0.5,1.76-0.75,3.14-0.75h0.86v-0.48c0-0.83-0.36-1.24-1.07-1.24
		c-0.66,0-1,0.33-1,0.98h-2.8c0-0.87,0.37-1.57,1.11-2.11c0.74-0.54,1.68-0.81,2.83-0.81c1.15,0,2.05,0.28,2.71,0.84
		c0.66,0.56,1,1.33,1.02,2.3v3.98c0.01,0.82,0.14,1.46,0.38,1.89v0.14H173.33z M171.58,177.28c0.35,0,0.64-0.07,0.87-0.22
		c0.23-0.15,0.39-0.32,0.49-0.51v-1.44h-0.81c-0.97,0-1.46,0.44-1.46,1.31c0,0.25,0.08,0.46,0.26,0.62
		C171.1,177.2,171.32,177.28,171.58,177.28z"/>
	<path class="st0" d="M182.73,172.65l-0.92-0.07c-0.88,0-1.44,0.28-1.69,0.83v5.69h-2.8v-8.98h2.62l0.09,1.15
		c0.47-0.88,1.13-1.32,1.97-1.32c0.3,0,0.56,0.03,0.78,0.1L182.73,172.65z"/>
	<path class="st0" d="M183.39,174.55c0-1.42,0.31-2.54,0.92-3.36c0.61-0.82,1.47-1.23,2.57-1.23c0.8,0,1.48,0.32,2.03,0.95v-4.55
		h2.81v12.75h-2.52l-0.14-0.96c-0.58,0.75-1.31,1.13-2.19,1.13c-1.07,0-1.92-0.41-2.54-1.23
		C183.7,177.22,183.39,176.06,183.39,174.55z M186.18,174.72c0,1.59,0.46,2.39,1.39,2.39c0.62,0,1.06-0.26,1.33-0.78v-3.42
		c-0.25-0.53-0.69-0.8-1.31-0.8c-0.86,0-1.33,0.7-1.4,2.09L186.18,174.72z"/>
	<path class="st0" d="M200.79,167.89v2.23h1.48v1.94h-1.48v4.11c0,0.34,0.06,0.57,0.18,0.71c0.12,0.13,0.36,0.2,0.72,0.2
		c0.28,0,0.51-0.02,0.7-0.05v2c-0.5,0.16-1.03,0.24-1.58,0.24c-0.96,0-1.67-0.23-2.13-0.68c-0.46-0.45-0.69-1.14-0.69-2.07v-4.46
		h-1.15v-1.94H198v-2.23H200.79z"/>
	<path class="st0" d="M202.77,174.53c0-0.9,0.17-1.69,0.52-2.39c0.35-0.7,0.85-1.24,1.5-1.61s1.42-0.56,2.3-0.56
		c1.35,0,2.41,0.42,3.18,1.25s1.16,1.97,1.16,3.4v0.1c0,1.4-0.39,2.51-1.17,3.33c-0.78,0.82-1.83,1.23-3.16,1.23
		c-1.28,0-2.31-0.38-3.08-1.15s-1.19-1.81-1.25-3.12L202.77,174.53z M205.57,174.7c0,0.83,0.13,1.44,0.39,1.83s0.64,0.58,1.15,0.58
		c1,0,1.5-0.77,1.53-2.3v-0.28c0-1.61-0.52-2.42-1.54-2.42c-0.93,0-1.44,0.69-1.52,2.08L205.57,174.7z"/>
	<path class="st0" d="M212.31,174.55c0-1.42,0.31-2.54,0.92-3.36c0.61-0.82,1.47-1.23,2.57-1.23c0.8,0,1.48,0.32,2.03,0.95v-4.55
		h2.81v12.75h-2.52l-0.14-0.96c-0.58,0.75-1.31,1.13-2.19,1.13c-1.07,0-1.92-0.41-2.54-1.23
		C212.63,177.22,212.31,176.06,212.31,174.55z M215.11,174.72c0,1.59,0.46,2.39,1.39,2.39c0.62,0,1.06-0.26,1.33-0.78v-3.42
		c-0.25-0.53-0.69-0.8-1.31-0.8c-0.86,0-1.33,0.7-1.4,2.09L215.11,174.72z"/>
	<path class="st0" d="M227.29,179.1c-0.1-0.18-0.19-0.45-0.27-0.8c-0.51,0.65-1.23,0.97-2.16,0.97c-0.85,0-1.57-0.26-2.16-0.77
		s-0.89-1.16-0.89-1.93c0-0.97,0.36-1.71,1.08-2.21c0.72-0.5,1.76-0.75,3.14-0.75h0.86v-0.48c0-0.83-0.36-1.24-1.07-1.24
		c-0.66,0-1,0.33-1,0.98h-2.8c0-0.87,0.37-1.57,1.11-2.11c0.74-0.54,1.68-0.81,2.83-0.81c1.15,0,2.05,0.28,2.71,0.84
		c0.66,0.56,1,1.33,1.02,2.3v3.98c0.01,0.82,0.14,1.46,0.38,1.89v0.14H227.29z M225.54,177.28c0.35,0,0.64-0.07,0.87-0.22
		c0.23-0.15,0.39-0.32,0.49-0.51v-1.44h-0.81c-0.97,0-1.46,0.44-1.46,1.31c0,0.25,0.08,0.46,0.26,0.62
		C225.05,177.2,225.27,177.28,225.54,177.28z"/>
	<path class="st0" d="M234.84,175.19l1.49-5.06h3l-3.66,10.48l-0.16,0.38c-0.52,1.16-1.44,1.74-2.76,1.74
		c-0.37,0-0.75-0.05-1.15-0.17v-1.99h0.37c0.39,0,0.69-0.06,0.9-0.17c0.21-0.11,0.36-0.32,0.46-0.61l0.22-0.6l-3.12-9.07h2.99
		L234.84,175.19z"/>
	<path class="st0" d="M241.79,176.39c0.44,0,0.81,0.13,1.1,0.39s0.44,0.6,0.44,1.01s-0.15,0.75-0.44,1.01s-0.66,0.39-1.1,0.39
		c-0.45,0-0.82-0.13-1.11-0.4c-0.29-0.27-0.44-0.6-0.44-1s0.15-0.74,0.44-1C240.97,176.52,241.34,176.39,241.79,176.39z"/>
</g>
</svg>
