<?xml version="1.0" encoding="utf-8"?>
<!-- Generator: Adobe Illustrator 25.0.1, SVG Export Plug-In . SVG Version: 6.00 Build 0)  -->
<svg version="1.1" id="Layer_1" xmlns="http://www.w3.org/2000/svg" xmlns:xlink="http://www.w3.org/1999/xlink" x="0px" y="0px"
	 viewBox="0 0 300 250" style="enable-background:new 0 0 300 250;" xml:space="preserve">
<style type="text/css">
	.st0{fill:#021D8B;}
</style>
<g>
	<path class="st0" d="M41.14,164.33v-14.61h4.71c1.29,0,2.45,0.29,3.48,0.88s1.83,1.41,2.41,2.48c0.58,1.07,0.87,2.26,0.88,3.59
		v0.67c0,1.34-0.28,2.54-0.85,3.6c-0.57,1.06-1.36,1.89-2.39,2.49c-1.03,0.6-2.17,0.9-3.44,0.91H41.14z M44.66,152.44v9.18h1.22
		c1.01,0,1.79-0.36,2.33-1.08c0.54-0.72,0.81-1.79,0.81-3.21v-0.63c0-1.41-0.27-2.47-0.81-3.19c-0.54-0.72-1.33-1.07-2.37-1.07
		H44.66z"/>
	<path class="st0" d="M54.24,150.67c0-0.48,0.17-0.88,0.52-1.18c0.35-0.31,0.8-0.46,1.35-0.46c0.56,0,1.01,0.15,1.35,0.46
		c0.35,0.31,0.52,0.7,0.52,1.18s-0.17,0.88-0.52,1.18c-0.35,0.31-0.8,0.46-1.35,0.46c-0.55,0-1.01-0.15-1.35-0.46
		C54.42,151.55,54.24,151.15,54.24,150.67z M57.83,164.33h-3.39v-10.86h3.39V164.33z"/>
	<path class="st0" d="M59.49,158.82c0-1.72,0.37-3.07,1.11-4.06c0.74-0.99,1.78-1.48,3.11-1.48c0.97,0,1.79,0.38,2.45,1.14v-5.5
		h3.39v15.41h-3.04l-0.17-1.16c-0.7,0.91-1.58,1.36-2.65,1.36c-1.29,0-2.31-0.49-3.07-1.48S59.49,160.65,59.49,158.82z
		 M62.87,159.03c0,1.93,0.56,2.89,1.69,2.89c0.75,0,1.28-0.31,1.61-0.94v-4.13c-0.31-0.64-0.84-0.96-1.59-0.96
		c-1.04,0-1.61,0.84-1.7,2.53L62.87,159.03z"/>
	<path class="st0" d="M80.93,159.59l1.81-6.12h3.62l-4.42,12.67l-0.19,0.46c-0.63,1.41-1.74,2.11-3.33,2.11
		c-0.44,0-0.91-0.07-1.39-0.2v-2.41h0.44c0.47,0,0.84-0.07,1.09-0.21c0.25-0.14,0.44-0.38,0.56-0.74l0.27-0.72l-3.77-10.97h3.61
		L80.93,159.59z"/>
	<path class="st0" d="M86.81,158.8c0-1.08,0.21-2.05,0.63-2.89c0.42-0.85,1.03-1.5,1.82-1.95c0.79-0.46,1.72-0.68,2.78-0.68
		c1.62,0,2.91,0.5,3.84,1.51s1.4,2.38,1.4,4.11v0.12c0,1.69-0.47,3.04-1.41,4.03s-2.21,1.49-3.82,1.49c-1.55,0-2.79-0.46-3.72-1.39
		c-0.94-0.93-1.44-2.18-1.51-3.77L86.81,158.8z M90.19,159.01c0,1,0.16,1.74,0.47,2.21c0.31,0.47,0.78,0.7,1.39,0.7
		c1.2,0,1.82-0.93,1.85-2.78v-0.34c0-1.95-0.62-2.92-1.87-2.92c-1.13,0-1.74,0.84-1.84,2.52L90.19,159.01z"/>
	<path class="st0" d="M105.24,163.15c-0.72,0.92-1.68,1.37-2.9,1.37c-1.19,0-2.09-0.35-2.7-1.04c-0.61-0.69-0.92-1.69-0.92-2.98
		v-7.03h3.38v7.05c0,0.93,0.45,1.39,1.35,1.39c0.78,0,1.33-0.28,1.66-0.83v-7.62h3.4v10.86h-3.17L105.24,163.15z"/>
	<path class="st0" d="M116.23,164.33v-8.51h-1.58v-2.35h1.58v-0.86c0-1.24,0.37-2.2,1.09-2.88c0.73-0.68,1.75-1.02,3.07-1.02
		c0.48,0,1.01,0.07,1.58,0.21l0.01,2.49c-0.21-0.06-0.49-0.09-0.83-0.09c-1.02,0-1.54,0.44-1.54,1.33v0.83h2.12v2.35h-2.12v8.51
		H116.23z"/>
	<path class="st0" d="M122.5,158.8c0-1.08,0.21-2.05,0.63-2.89c0.42-0.85,1.03-1.5,1.82-1.95c0.79-0.46,1.72-0.68,2.78-0.68
		c1.62,0,2.91,0.5,3.84,1.51s1.4,2.38,1.4,4.11v0.12c0,1.69-0.47,3.04-1.41,4.03s-2.21,1.49-3.82,1.49c-1.55,0-2.79-0.46-3.72-1.39
		c-0.94-0.93-1.44-2.18-1.51-3.77L122.5,158.8z M125.88,159.01c0,1,0.16,1.74,0.47,2.21c0.31,0.47,0.78,0.7,1.39,0.7
		c1.2,0,1.82-0.93,1.85-2.78v-0.34c0-1.95-0.62-2.92-1.87-2.92c-1.13,0-1.74,0.84-1.84,2.52L125.88,159.01z"/>
	<path class="st0" d="M141.03,156.53l-1.11-0.08c-1.06,0-1.75,0.33-2.05,1v6.87h-3.38v-10.86h3.17l0.11,1.4
		c0.57-1.06,1.36-1.6,2.38-1.6c0.36,0,0.68,0.04,0.94,0.12L141.03,156.53z"/>
	<path class="st0" d="M141.85,158.82c0-1.1,0.18-2.07,0.54-2.91s0.88-1.49,1.55-1.95s1.46-0.69,2.36-0.69
		c1.13,0,2.01,0.38,2.65,1.14l0.12-0.94h3.07v10.45c0,0.96-0.22,1.79-0.67,2.49c-0.45,0.71-1.09,1.25-1.93,1.62
		s-1.82,0.57-2.93,0.57c-0.8,0-1.57-0.15-2.31-0.45c-0.75-0.3-1.32-0.69-1.71-1.17l1.42-1.99c0.63,0.74,1.46,1.11,2.49,1.11
		c1.5,0,2.25-0.77,2.25-2.31v-0.34c-0.65,0.72-1.47,1.07-2.46,1.07c-1.32,0-2.39-0.51-3.21-1.52c-0.82-1.01-1.22-2.37-1.22-4.07
		V158.82z M145.25,159.03c0,0.89,0.17,1.59,0.5,2.11c0.33,0.52,0.8,0.78,1.41,0.78c0.73,0,1.26-0.24,1.59-0.73v-4.57
		c-0.33-0.49-0.85-0.74-1.58-0.74c-0.6,0-1.07,0.27-1.41,0.81C145.42,157.23,145.25,158.01,145.25,159.03z"/>
	<path class="st0" d="M159.32,164.53c-1.67,0-3.01-0.5-4.04-1.49s-1.54-2.29-1.54-3.88v-0.28c0-1.11,0.21-2.09,0.62-2.94
		c0.41-0.85,1.01-1.51,1.8-1.97c0.79-0.46,1.73-0.7,2.81-0.7c1.52,0,2.73,0.47,3.61,1.42s1.32,2.27,1.32,3.96v1.31h-6.72
		c0.12,0.61,0.38,1.09,0.79,1.43c0.41,0.35,0.94,0.52,1.59,0.52c1.07,0,1.91-0.37,2.51-1.12l1.54,1.83
		c-0.42,0.58-1.02,1.05-1.79,1.39C161.04,164.36,160.21,164.53,159.32,164.53z M158.94,155.88c-0.99,0-1.58,0.66-1.77,1.97h3.41
		v-0.26c0.01-0.54-0.12-0.96-0.41-1.26C159.89,156.03,159.48,155.88,158.94,155.88z"/>
	<path class="st0" d="M169.19,150.77v2.7h1.79v2.35h-1.79v4.97c0,0.41,0.07,0.69,0.22,0.85c0.15,0.16,0.44,0.24,0.87,0.24
		c0.33,0,0.62-0.02,0.84-0.06v2.42c-0.61,0.19-1.24,0.29-1.91,0.29c-1.16,0-2.02-0.27-2.58-0.82c-0.56-0.55-0.83-1.38-0.83-2.5
		v-5.39h-1.38v-2.35h1.38v-2.7H169.19z"/>
	<path class="st0" d="M181.36,150.77v2.7h1.79v2.35h-1.79v4.97c0,0.41,0.07,0.69,0.22,0.85c0.15,0.16,0.44,0.24,0.87,0.24
		c0.33,0,0.62-0.02,0.84-0.06v2.42c-0.61,0.19-1.24,0.29-1.91,0.29c-1.16,0-2.02-0.27-2.58-0.82c-0.56-0.55-0.83-1.38-0.83-2.5
		v-5.39h-1.38v-2.35h1.38v-2.7H181.36z"/>
	<path class="st0" d="M183.75,158.8c0-1.08,0.21-2.05,0.63-2.89c0.42-0.85,1.03-1.5,1.82-1.95c0.79-0.46,1.72-0.68,2.78-0.68
		c1.62,0,2.91,0.5,3.84,1.51s1.4,2.38,1.4,4.11v0.12c0,1.69-0.47,3.04-1.41,4.03s-2.21,1.49-3.82,1.49c-1.55,0-2.79-0.46-3.72-1.39
		c-0.94-0.93-1.44-2.18-1.51-3.77L183.75,158.8z M187.13,159.01c0,1,0.16,1.74,0.47,2.21c0.31,0.47,0.78,0.7,1.39,0.7
		c1.2,0,1.82-0.93,1.85-2.78v-0.34c0-1.95-0.62-2.92-1.87-2.92c-1.13,0-1.74,0.84-1.84,2.52L187.13,159.01z"/>
	<path class="st0" d="M206.52,161.28c0-0.29-0.15-0.52-0.45-0.69s-0.87-0.35-1.72-0.54s-1.54-0.43-2.09-0.74s-0.97-0.67-1.25-1.11
		c-0.29-0.44-0.43-0.93-0.43-1.5c0-1,0.41-1.82,1.23-2.46c0.82-0.65,1.9-0.97,3.23-0.97c1.43,0,2.58,0.32,3.45,0.97
		c0.87,0.65,1.3,1.5,1.3,2.56h-3.39c0-0.87-0.46-1.3-1.37-1.3c-0.36,0-0.65,0.1-0.89,0.3c-0.24,0.2-0.36,0.44-0.36,0.74
		c0,0.3,0.15,0.54,0.44,0.73c0.29,0.19,0.76,0.34,1.41,0.46c0.65,0.12,1.21,0.26,1.7,0.43c1.63,0.56,2.45,1.57,2.45,3.02
		c0,0.99-0.44,1.8-1.32,2.42s-2.02,0.93-3.42,0.93c-0.93,0-1.76-0.17-2.49-0.5c-0.73-0.33-1.3-0.79-1.71-1.37
		c-0.41-0.57-0.61-1.18-0.61-1.82h3.16c0.01,0.5,0.18,0.87,0.5,1.1c0.32,0.23,0.73,0.35,1.23,0.35c0.46,0,0.81-0.09,1.04-0.28
		C206.4,161.82,206.52,161.58,206.52,161.28z"/>
	<path class="st0" d="M214.67,154.64c0.72-0.91,1.65-1.36,2.77-1.36c1.2,0,2.1,0.35,2.71,1.06s0.92,1.76,0.93,3.14v6.85h-3.39v-6.77
		c0-0.58-0.12-1-0.35-1.27c-0.23-0.27-0.63-0.41-1.19-0.41c-0.7,0-1.19,0.22-1.48,0.66v7.79h-3.38v-15.41h3.38V154.64z"/>
	<path class="st0" d="M222.53,158.8c0-1.08,0.21-2.05,0.63-2.89c0.42-0.85,1.03-1.5,1.82-1.95c0.79-0.46,1.72-0.68,2.78-0.68
		c1.62,0,2.91,0.5,3.84,1.51s1.4,2.38,1.4,4.11v0.12c0,1.69-0.47,3.04-1.41,4.03s-2.21,1.49-3.82,1.49c-1.55,0-2.79-0.46-3.72-1.39
		c-0.94-0.93-1.44-2.18-1.51-3.77L222.53,158.8z M225.91,159.01c0,1,0.16,1.74,0.47,2.21c0.31,0.47,0.78,0.7,1.39,0.7
		c1.2,0,1.82-0.93,1.85-2.78v-0.34c0-1.95-0.62-2.92-1.87-2.92c-1.13,0-1.74,0.84-1.84,2.52L225.91,159.01z"/>
	<path class="st0" d="M244.58,158.98c0,1.69-0.38,3.03-1.14,4.04s-1.78,1.51-3.08,1.51c-1,0-1.82-0.36-2.46-1.09v5.07h-3.38v-15.03
		h3.16l0.1,1c0.65-0.8,1.5-1.2,2.56-1.2c1.34,0,2.38,0.49,3.12,1.48c0.74,0.99,1.11,2.34,1.11,4.07V158.98z M241.19,158.77
		c0-1.93-0.56-2.89-1.69-2.89c-0.8,0-1.34,0.29-1.61,0.86v4.27c0.29,0.6,0.84,0.9,1.62,0.9c1.08,0,1.63-0.93,1.67-2.79V158.77z"/>
	<path class="st0" d="M67.03,185.94c0-0.29-0.15-0.52-0.45-0.69s-0.87-0.35-1.72-0.54s-1.54-0.43-2.09-0.74s-0.97-0.67-1.25-1.11
		c-0.29-0.44-0.43-0.93-0.43-1.5c0-1,0.41-1.82,1.23-2.46c0.82-0.65,1.9-0.97,3.23-0.97c1.43,0,2.58,0.32,3.45,0.97
		c0.87,0.65,1.3,1.5,1.3,2.56h-3.39c0-0.87-0.46-1.3-1.37-1.3c-0.36,0-0.65,0.1-0.89,0.3c-0.24,0.2-0.36,0.44-0.36,0.74
		c0,0.3,0.15,0.54,0.44,0.73c0.29,0.19,0.76,0.34,1.41,0.46c0.65,0.12,1.21,0.26,1.7,0.43c1.63,0.56,2.45,1.57,2.45,3.02
		c0,0.99-0.44,1.8-1.32,2.42s-2.02,0.93-3.42,0.93c-0.93,0-1.76-0.17-2.49-0.5c-0.73-0.33-1.3-0.79-1.71-1.37
		c-0.41-0.57-0.61-1.18-0.61-1.82h3.16c0.01,0.5,0.18,0.87,0.5,1.1c0.32,0.23,0.73,0.35,1.23,0.35c0.46,0,0.81-0.09,1.04-0.28
		C66.92,186.48,67.03,186.24,67.03,185.94z"/>
	<path class="st0" d="M77.12,189.19c-1.67,0-3.01-0.5-4.04-1.49s-1.54-2.29-1.54-3.88v-0.28c0-1.11,0.21-2.09,0.62-2.94
		c0.41-0.85,1.01-1.51,1.8-1.97c0.79-0.46,1.73-0.7,2.81-0.7c1.52,0,2.73,0.47,3.61,1.42s1.32,2.27,1.32,3.96v1.31h-6.72
		c0.12,0.61,0.38,1.09,0.79,1.43c0.41,0.35,0.94,0.52,1.59,0.52c1.07,0,1.91-0.37,2.51-1.12l1.54,1.83
		c-0.42,0.58-1.02,1.05-1.79,1.39C78.84,189.01,78.01,189.19,77.12,189.19z M76.74,180.54c-0.99,0-1.58,0.66-1.77,1.97h3.41v-0.26
		c0.01-0.54-0.12-0.96-0.41-1.26C77.69,180.69,77.28,180.54,76.74,180.54z"/>
	<path class="st0" d="M87.65,186.58c0.48,0,0.84-0.13,1.1-0.39c0.26-0.26,0.39-0.62,0.38-1.08h3.17c0,1.19-0.43,2.17-1.28,2.93
		c-0.85,0.76-1.95,1.14-3.3,1.14c-1.58,0-2.82-0.49-3.73-1.48c-0.91-0.99-1.37-2.36-1.37-4.11v-0.14c0-1.1,0.2-2.07,0.61-2.91
		c0.4-0.84,0.99-1.48,1.75-1.94c0.76-0.45,1.67-0.68,2.71-0.68c1.41,0,2.53,0.39,3.36,1.17c0.83,0.78,1.24,1.84,1.24,3.18h-3.17
		c0-0.56-0.14-0.99-0.41-1.29c-0.27-0.3-0.64-0.45-1.1-0.45c-0.88,0-1.39,0.56-1.53,1.68c-0.05,0.35-0.07,0.84-0.07,1.46
		c0,1.09,0.13,1.85,0.39,2.27C86.67,186.37,87.08,186.58,87.65,186.58z"/>
	<path class="st0" d="M100.2,187.81c-0.72,0.92-1.68,1.37-2.9,1.37c-1.19,0-2.09-0.35-2.7-1.04c-0.61-0.69-0.92-1.69-0.92-2.98
		v-7.03h3.38v7.05c0,0.93,0.45,1.39,1.35,1.39c0.78,0,1.33-0.28,1.66-0.83v-7.62h3.4v10.86h-3.17L100.2,187.81z"/>
	<path class="st0" d="M111.89,181.19l-1.11-0.08c-1.06,0-1.75,0.33-2.05,1v6.87h-3.38v-10.86h3.17l0.11,1.4
		c0.57-1.06,1.36-1.6,2.38-1.6c0.36,0,0.68,0.04,0.94,0.12L111.89,181.19z"/>
	<path class="st0" d="M118.36,189.19c-1.67,0-3.01-0.5-4.04-1.49s-1.54-2.29-1.54-3.88v-0.28c0-1.11,0.21-2.09,0.62-2.94
		c0.41-0.85,1.01-1.51,1.8-1.97c0.79-0.46,1.73-0.7,2.81-0.7c1.52,0,2.73,0.47,3.61,1.42s1.32,2.27,1.32,3.96v1.31h-6.72
		c0.12,0.61,0.38,1.09,0.79,1.43c0.41,0.35,0.94,0.52,1.59,0.52c1.07,0,1.91-0.37,2.51-1.12l1.54,1.83
		c-0.42,0.58-1.02,1.05-1.79,1.39C120.08,189.01,119.25,189.19,118.36,189.19z M117.98,180.54c-0.99,0-1.58,0.66-1.77,1.97h3.41
		v-0.26c0.01-0.54-0.12-0.96-0.41-1.26C118.93,180.69,118.51,180.54,117.98,180.54z"/>
	<path class="st0" d="M127.86,188.99h-3.39v-15.41h3.39V188.99z"/>
	<path class="st0" d="M134.28,184.25l1.81-6.12h3.62l-4.42,12.67l-0.19,0.46c-0.63,1.41-1.74,2.11-3.33,2.11
		c-0.44,0-0.91-0.07-1.39-0.2v-2.41h0.44c0.47,0,0.84-0.07,1.09-0.21c0.25-0.14,0.44-0.38,0.56-0.74l0.27-0.72l-3.77-10.97h3.61
		L134.28,184.25z"/>
	<path class="st0" d="M149.64,175.43v2.7h1.79v2.35h-1.79v4.97c0,0.41,0.07,0.69,0.22,0.85c0.15,0.16,0.44,0.24,0.87,0.24
		c0.33,0,0.62-0.02,0.84-0.06v2.42c-0.61,0.19-1.24,0.29-1.91,0.29c-1.16,0-2.02-0.27-2.58-0.82c-0.56-0.55-0.83-1.38-0.83-2.5
		v-5.39h-1.38v-2.35h1.38v-2.7H149.64z"/>
	<path class="st0" d="M156.07,179.29c0.72-0.91,1.65-1.36,2.77-1.36c1.2,0,2.1,0.35,2.71,1.06s0.92,1.76,0.93,3.14v6.85h-3.39v-6.77
		c0-0.58-0.12-1-0.35-1.27c-0.23-0.27-0.63-0.41-1.19-0.41c-0.7,0-1.19,0.22-1.48,0.66v7.79h-3.38v-15.41h3.38V179.29z"/>
	<path class="st0" d="M164.33,175.33c0-0.48,0.17-0.88,0.52-1.18c0.35-0.31,0.8-0.46,1.35-0.46c0.56,0,1.01,0.15,1.35,0.46
		c0.35,0.31,0.52,0.7,0.52,1.18s-0.17,0.88-0.52,1.18c-0.35,0.31-0.8,0.46-1.35,0.46c-0.55,0-1.01-0.15-1.35-0.46
		C164.51,176.21,164.33,175.81,164.33,175.33z M167.92,188.99h-3.39v-10.86h3.39V188.99z"/>
	<path class="st0" d="M175.69,185.94c0-0.29-0.15-0.52-0.45-0.69s-0.87-0.35-1.72-0.54s-1.54-0.43-2.09-0.74s-0.97-0.67-1.25-1.11
		c-0.29-0.44-0.43-0.93-0.43-1.5c0-1,0.41-1.82,1.23-2.46c0.82-0.65,1.9-0.97,3.23-0.97c1.43,0,2.58,0.32,3.45,0.97
		c0.87,0.65,1.3,1.5,1.3,2.56h-3.39c0-0.87-0.46-1.3-1.37-1.3c-0.36,0-0.65,0.1-0.89,0.3c-0.24,0.2-0.36,0.44-0.36,0.74
		c0,0.3,0.15,0.54,0.44,0.73c0.29,0.19,0.76,0.34,1.41,0.46c0.65,0.12,1.21,0.26,1.7,0.43c1.63,0.56,2.45,1.57,2.45,3.02
		c0,0.99-0.44,1.8-1.32,2.42s-2.02,0.93-3.42,0.93c-0.93,0-1.76-0.17-2.49-0.5c-0.73-0.33-1.3-0.79-1.71-1.37
		c-0.41-0.57-0.61-1.18-0.61-1.82h3.16c0.01,0.5,0.18,0.87,0.5,1.1c0.32,0.23,0.73,0.35,1.23,0.35c0.46,0,0.81-0.09,1.04-0.28
		C175.58,186.48,175.69,186.24,175.69,185.94z"/>
	<path class="st0" d="M195.73,183.64c0,1.69-0.38,3.03-1.14,4.04s-1.78,1.51-3.08,1.51c-1,0-1.82-0.36-2.46-1.09v5.07h-3.38v-15.03
		h3.16l0.1,1c0.65-0.8,1.5-1.2,2.56-1.2c1.34,0,2.38,0.49,3.12,1.48c0.74,0.99,1.11,2.34,1.11,4.07V183.64z M192.35,183.43
		c0-1.93-0.56-2.89-1.69-2.89c-0.8,0-1.34,0.29-1.61,0.86v4.27c0.29,0.6,0.84,0.9,1.62,0.9c1.08,0,1.63-0.93,1.67-2.79V183.43z"/>
	<path class="st0" d="M203.33,188.99c-0.12-0.22-0.23-0.54-0.32-0.97c-0.62,0.78-1.49,1.17-2.61,1.17c-1.02,0-1.89-0.31-2.61-0.93
		c-0.72-0.62-1.07-1.4-1.07-2.33c0-1.18,0.43-2.07,1.3-2.67c0.87-0.6,2.13-0.9,3.79-0.9h1.04v-0.58c0-1-0.43-1.5-1.29-1.5
		c-0.8,0-1.2,0.4-1.2,1.19h-3.38c0-1.05,0.45-1.9,1.34-2.55c0.89-0.66,2.03-0.98,3.42-0.98c1.38,0,2.48,0.34,3.28,1.01
		s1.21,1.6,1.23,2.78v4.81c0.01,1,0.17,1.76,0.46,2.29v0.17H203.33z M201.22,186.78c0.42,0,0.77-0.09,1.05-0.27
		c0.28-0.18,0.48-0.38,0.6-0.61v-1.74h-0.98c-1.18,0-1.77,0.53-1.77,1.58c0,0.31,0.1,0.56,0.31,0.75
		C200.63,186.68,200.89,186.78,201.22,186.78z"/>
	<path class="st0" d="M213.81,185.94c0-0.29-0.15-0.52-0.45-0.69s-0.87-0.35-1.72-0.54s-1.54-0.43-2.09-0.74s-0.97-0.67-1.25-1.11
		c-0.29-0.44-0.43-0.93-0.43-1.5c0-1,0.41-1.82,1.23-2.46c0.82-0.65,1.9-0.97,3.23-0.97c1.43,0,2.58,0.32,3.45,0.97
		c0.87,0.65,1.3,1.5,1.3,2.56h-3.39c0-0.87-0.46-1.3-1.37-1.3c-0.36,0-0.65,0.1-0.89,0.3c-0.24,0.2-0.36,0.44-0.36,0.74
		c0,0.3,0.15,0.54,0.44,0.73c0.29,0.19,0.76,0.34,1.41,0.46c0.65,0.12,1.21,0.26,1.7,0.43c1.63,0.56,2.45,1.57,2.45,3.02
		c0,0.99-0.44,1.8-1.32,2.42s-2.02,0.93-3.42,0.93c-0.93,0-1.76-0.17-2.49-0.5c-0.73-0.33-1.3-0.79-1.71-1.37
		c-0.41-0.57-0.61-1.18-0.61-1.82h3.16c0.01,0.5,0.18,0.87,0.5,1.1c0.32,0.23,0.73,0.35,1.23,0.35c0.46,0,0.81-0.09,1.04-0.28
		C213.69,186.48,213.81,186.24,213.81,185.94z"/>
	<path class="st0" d="M222.59,175.43v2.7h1.79v2.35h-1.79v4.97c0,0.41,0.07,0.69,0.22,0.85c0.15,0.16,0.44,0.24,0.87,0.24
		c0.33,0,0.62-0.02,0.84-0.06v2.42c-0.61,0.19-1.24,0.29-1.91,0.29c-1.16,0-2.02-0.27-2.58-0.82c-0.56-0.55-0.83-1.38-0.83-2.5
		v-5.39h-1.38v-2.35h1.38v-2.7H222.59z"/>
	<path class="st0" d="M72.13,203.95c0.72-0.91,1.65-1.36,2.77-1.36c1.2,0,2.1,0.35,2.71,1.06s0.92,1.76,0.93,3.14v6.85h-3.39v-6.77
		c0-0.58-0.12-1-0.35-1.27c-0.23-0.27-0.63-0.41-1.19-0.41c-0.7,0-1.19,0.22-1.48,0.66v7.79h-3.38v-15.41h3.38V203.95z"/>
	<path class="st0" d="M80,208.12c0-1.08,0.21-2.05,0.63-2.89c0.42-0.85,1.03-1.5,1.82-1.95c0.79-0.46,1.72-0.68,2.78-0.68
		c1.62,0,2.91,0.5,3.84,1.51s1.4,2.38,1.4,4.11v0.12c0,1.69-0.47,3.04-1.41,4.03s-2.21,1.49-3.82,1.49c-1.55,0-2.79-0.46-3.72-1.39
		c-0.94-0.93-1.44-2.18-1.51-3.77L80,208.12z M83.38,208.33c0,1,0.16,1.74,0.47,2.21c0.31,0.47,0.78,0.7,1.39,0.7
		c1.2,0,1.82-0.93,1.85-2.78v-0.34c0-1.95-0.62-2.92-1.87-2.92c-1.13,0-1.74,0.84-1.84,2.52L83.38,208.33z"/>
	<path class="st0" d="M95.53,213.64h-3.39v-15.41h3.39V213.64z"/>
	<path class="st0" d="M97.59,199.99c0-0.48,0.17-0.88,0.52-1.18c0.35-0.31,0.8-0.46,1.35-0.46c0.56,0,1.01,0.15,1.35,0.46
		c0.35,0.31,0.52,0.7,0.52,1.18s-0.17,0.88-0.52,1.18c-0.35,0.31-0.8,0.46-1.35,0.46c-0.55,0-1.01-0.15-1.35-0.46
		C97.76,200.86,97.59,200.47,97.59,199.99z M101.18,213.64h-3.39v-10.86h3.39V213.64z"/>
	<path class="st0" d="M102.83,208.14c0-1.72,0.37-3.07,1.11-4.06c0.74-0.99,1.78-1.48,3.11-1.48c0.97,0,1.79,0.38,2.45,1.14v-5.5
		h3.39v15.41h-3.04l-0.17-1.16c-0.7,0.91-1.58,1.36-2.65,1.36c-1.29,0-2.31-0.49-3.07-1.48S102.83,209.96,102.83,208.14z
		 M106.22,208.35c0,1.93,0.56,2.89,1.69,2.89c0.75,0,1.28-0.31,1.61-0.94v-4.13c-0.31-0.64-0.84-0.96-1.59-0.96
		c-1.04,0-1.61,0.84-1.7,2.53L106.22,208.35z"/>
	<path class="st0" d="M120.93,213.64c-0.12-0.22-0.23-0.54-0.32-0.97c-0.62,0.78-1.49,1.17-2.61,1.17c-1.02,0-1.89-0.31-2.61-0.93
		c-0.72-0.62-1.07-1.4-1.07-2.33c0-1.18,0.43-2.07,1.3-2.67c0.87-0.6,2.13-0.9,3.79-0.9h1.04v-0.58c0-1-0.43-1.5-1.29-1.5
		c-0.8,0-1.2,0.4-1.2,1.19h-3.38c0-1.05,0.45-1.9,1.34-2.55c0.89-0.66,2.03-0.98,3.42-0.98c1.38,0,2.48,0.34,3.28,1.01
		s1.21,1.6,1.23,2.78v4.81c0.01,1,0.17,1.76,0.46,2.29v0.17H120.93z M118.82,211.44c0.42,0,0.77-0.09,1.05-0.27
		c0.28-0.18,0.48-0.38,0.6-0.61v-1.74h-0.98c-1.18,0-1.77,0.53-1.77,1.58c0,0.31,0.1,0.56,0.31,0.75
		C118.23,211.34,118.5,211.44,118.82,211.44z"/>
	<path class="st0" d="M130.06,208.91l1.81-6.12h3.62l-4.42,12.67l-0.19,0.46c-0.63,1.41-1.74,2.11-3.33,2.11
		c-0.44,0-0.91-0.07-1.39-0.2v-2.41h0.44c0.47,0,0.84-0.07,1.09-0.21c0.25-0.14,0.44-0.38,0.56-0.74l0.27-0.72l-3.77-10.97h3.61
		L130.06,208.91z"/>
	<path class="st0" d="M147.17,210.59c0-0.29-0.15-0.52-0.45-0.69s-0.87-0.35-1.72-0.54s-1.54-0.43-2.09-0.74s-0.97-0.67-1.25-1.11
		c-0.29-0.44-0.43-0.93-0.43-1.5c0-1,0.41-1.82,1.23-2.46c0.82-0.65,1.9-0.97,3.23-0.97c1.43,0,2.58,0.32,3.45,0.97
		c0.87,0.65,1.3,1.5,1.3,2.56h-3.39c0-0.87-0.46-1.3-1.37-1.3c-0.36,0-0.65,0.1-0.89,0.3c-0.24,0.2-0.36,0.44-0.36,0.74
		c0,0.3,0.15,0.54,0.44,0.73c0.29,0.19,0.76,0.34,1.41,0.46c0.65,0.12,1.21,0.26,1.7,0.43c1.63,0.56,2.45,1.57,2.45,3.02
		c0,0.99-0.44,1.8-1.32,2.42s-2.02,0.93-3.42,0.93c-0.93,0-1.76-0.17-2.49-0.5c-0.73-0.33-1.3-0.79-1.71-1.37
		c-0.41-0.57-0.61-1.18-0.61-1.82h3.16c0.01,0.5,0.18,0.87,0.5,1.1c0.32,0.23,0.73,0.35,1.23,0.35c0.46,0,0.81-0.09,1.04-0.28
		C147.06,211.14,147.17,210.89,147.17,210.59z"/>
	<path class="st0" d="M157.26,213.84c-1.67,0-3.01-0.5-4.04-1.49s-1.54-2.29-1.54-3.88v-0.28c0-1.11,0.21-2.09,0.62-2.94
		c0.41-0.85,1.01-1.51,1.8-1.97c0.79-0.46,1.73-0.7,2.81-0.7c1.52,0,2.73,0.47,3.61,1.42s1.32,2.27,1.32,3.96v1.31h-6.72
		c0.12,0.61,0.38,1.09,0.79,1.43c0.41,0.35,0.94,0.52,1.59,0.52c1.07,0,1.91-0.37,2.51-1.12l1.54,1.83
		c-0.42,0.58-1.02,1.05-1.79,1.39C158.99,213.67,158.15,213.84,157.26,213.84z M156.88,205.2c-0.99,0-1.58,0.66-1.77,1.97h3.41
		v-0.26c0.01-0.54-0.12-0.96-0.41-1.26C157.83,205.34,157.42,205.2,156.88,205.2z"/>
	<path class="st0" d="M169.31,213.64c-0.12-0.22-0.23-0.54-0.32-0.97c-0.62,0.78-1.49,1.17-2.61,1.17c-1.02,0-1.89-0.31-2.61-0.93
		c-0.72-0.62-1.07-1.4-1.07-2.33c0-1.18,0.43-2.07,1.3-2.67c0.87-0.6,2.13-0.9,3.79-0.9h1.04v-0.58c0-1-0.43-1.5-1.29-1.5
		c-0.8,0-1.2,0.4-1.2,1.19h-3.38c0-1.05,0.45-1.9,1.34-2.55c0.89-0.66,2.03-0.98,3.42-0.98c1.38,0,2.48,0.34,3.28,1.01
		s1.21,1.6,1.23,2.78v4.81c0.01,1,0.17,1.76,0.46,2.29v0.17H169.31z M167.2,211.44c0.42,0,0.77-0.09,1.05-0.27
		c0.28-0.18,0.48-0.38,0.6-0.61v-1.74h-0.98c-1.18,0-1.77,0.53-1.77,1.58c0,0.31,0.1,0.56,0.31,0.75
		C166.61,211.34,166.88,211.44,167.2,211.44z"/>
	<path class="st0" d="M179.79,210.59c0-0.29-0.15-0.52-0.45-0.69s-0.87-0.35-1.72-0.54s-1.54-0.43-2.09-0.74s-0.97-0.67-1.25-1.11
		c-0.29-0.44-0.43-0.93-0.43-1.5c0-1,0.41-1.82,1.23-2.46c0.82-0.65,1.9-0.97,3.23-0.97c1.43,0,2.58,0.32,3.45,0.97
		c0.87,0.65,1.3,1.5,1.3,2.56h-3.39c0-0.87-0.46-1.3-1.37-1.3c-0.36,0-0.65,0.1-0.89,0.3c-0.24,0.2-0.36,0.44-0.36,0.74
		c0,0.3,0.15,0.54,0.44,0.73c0.29,0.19,0.76,0.34,1.41,0.46c0.65,0.12,1.21,0.26,1.7,0.43c1.63,0.56,2.45,1.57,2.45,3.02
		c0,0.99-0.44,1.8-1.32,2.42s-2.02,0.93-3.42,0.93c-0.93,0-1.76-0.17-2.49-0.5c-0.73-0.33-1.3-0.79-1.71-1.37
		c-0.41-0.57-0.61-1.18-0.61-1.82h3.16c0.01,0.5,0.18,0.87,0.5,1.1c0.32,0.23,0.73,0.35,1.23,0.35c0.46,0,0.81-0.09,1.04-0.28
		C179.67,211.14,179.79,210.89,179.79,210.59z"/>
	<path class="st0" d="M184.2,208.12c0-1.08,0.21-2.05,0.63-2.89c0.42-0.85,1.03-1.5,1.82-1.95c0.79-0.46,1.72-0.68,2.78-0.68
		c1.62,0,2.91,0.5,3.84,1.51s1.4,2.38,1.4,4.11v0.12c0,1.69-0.47,3.04-1.41,4.03s-2.21,1.49-3.82,1.49c-1.55,0-2.79-0.46-3.72-1.39
		c-0.94-0.93-1.44-2.18-1.51-3.77L184.2,208.12z M187.59,208.33c0,1,0.16,1.74,0.47,2.21c0.31,0.47,0.78,0.7,1.39,0.7
		c1.2,0,1.82-0.93,1.85-2.78v-0.34c0-1.95-0.62-2.92-1.87-2.92c-1.13,0-1.74,0.84-1.84,2.52L187.59,208.33z"/>
	<path class="st0" d="M199.27,202.79l0.11,1.27c0.75-0.98,1.78-1.47,3.1-1.47c1.13,0,1.98,0.34,2.53,1.01
		c0.56,0.68,0.85,1.69,0.87,3.05v6.99h-3.39v-6.85c0-0.55-0.11-0.95-0.33-1.21s-0.62-0.39-1.2-0.39c-0.66,0-1.15,0.26-1.48,0.78
		v7.67h-3.38v-10.86H199.27z"/>
	<path class="st0" d="M210.26,209.02c0-0.98,0.11-1.75,0.33-2.31c0.22-0.56,0.58-1.05,1.07-1.47c0.49-0.41,0.87-0.79,1.13-1.14
		c0.26-0.34,0.39-0.72,0.39-1.14c0-1.01-0.43-1.51-1.3-1.51c-0.4,0-0.73,0.15-0.97,0.44c-0.25,0.29-0.38,0.69-0.39,1.19h-3.39
		c0.01-1.34,0.44-2.38,1.26-3.12s1.99-1.12,3.49-1.12c1.49,0,2.65,0.34,3.47,1.03c0.82,0.69,1.23,1.67,1.23,2.94
		c0,0.56-0.11,1.06-0.33,1.51c-0.22,0.46-0.58,0.92-1.06,1.39l-1.15,1.07c-0.33,0.31-0.56,0.64-0.68,0.97s-0.2,0.75-0.21,1.26
		H210.26z M209.85,212.07c0-0.5,0.18-0.9,0.54-1.22c0.36-0.32,0.8-0.48,1.34-0.48s0.98,0.16,1.34,0.48
		c0.36,0.32,0.54,0.72,0.54,1.22s-0.18,0.9-0.54,1.22c-0.36,0.32-0.8,0.48-1.34,0.48s-0.98-0.16-1.34-0.48
		C210.03,212.97,209.85,212.56,209.85,212.07z"/>
</g>
</svg>
