<?xml version="1.0" encoding="utf-8"?>
<!-- Generator: Adobe Illustrator 24.2.3, SVG Export Plug-In . SVG Version: 6.00 Build 0)  -->
<svg version="1.1" id="Layer_1" xmlns="http://www.w3.org/2000/svg" xmlns:xlink="http://www.w3.org/1999/xlink" x="0px" y="0px"
	 viewBox="0 0 728 90" style="enable-background:new 0 0 728 90;" xml:space="preserve">
<style type="text/css">
	.st0{fill:url(#SVGID_1_);}
</style>
<linearGradient id="SVGID_1_" gradientUnits="userSpaceOnUse" x1="228.248" y1="47.9174" x2="535.3076" y2="47.9174">
	<stop  offset="0" style="stop-color:#18B9FB"/>
	<stop  offset="0.5" style="stop-color:#782EEB"/>
	<stop  offset="1" style="stop-color:#E82D8A"/>
</linearGradient>
<path class="st0" d="M234.54,38.09l2.69-9.83h3.64l-4.55,13.51h-3.56l-4.51-13.51h3.61L234.54,38.09z M241.68,29.14
	c0-0.45,0.16-0.81,0.48-1.09c0.32-0.29,0.74-0.43,1.25-0.43c0.51,0,0.93,0.14,1.25,0.43c0.32,0.28,0.48,0.65,0.48,1.09
	s-0.16,0.81-0.48,1.1c-0.32,0.28-0.74,0.43-1.25,0.43c-0.51,0-0.93-0.14-1.25-0.43C241.84,29.95,241.68,29.58,241.68,29.14z
	 M245,41.76h-3.14V31.73H245V41.76z M251.78,41.95c-1.54,0-2.79-0.46-3.74-1.38c-0.95-0.92-1.43-2.11-1.43-3.58v-0.26
	c0-1.03,0.19-1.93,0.57-2.72c0.38-0.79,0.94-1.39,1.67-1.82c0.73-0.43,1.6-0.64,2.6-0.64c1.41,0,2.52,0.44,3.34,1.31
	c0.82,0.88,1.22,2.1,1.22,3.66v1.22h-6.22c0.11,0.56,0.36,1,0.73,1.33c0.38,0.32,0.87,0.48,1.47,0.48c0.99,0,1.76-0.35,2.32-1.04
	l1.43,1.69c-0.39,0.54-0.94,0.97-1.66,1.29C253.38,41.79,252.61,41.95,251.78,41.95z M251.43,33.95c-0.92,0-1.46,0.61-1.63,1.82
	h3.15v-0.24c0.01-0.5-0.11-0.89-0.38-1.16C252.31,34.09,251.93,33.95,251.43,33.95z M265.94,37.64l1.01-5.92h3l-2.37,10.04h-2.64
	l-1.66-5.96l-1.67,5.96h-2.64l-2.37-10.04h3l0.99,6.06l1.6-6.06h2.18L265.94,37.64z M285.12,36.82c0,1.56-0.35,2.8-1.05,3.73
	c-0.7,0.93-1.65,1.4-2.84,1.4c-0.92,0-1.68-0.34-2.27-1.01v4.69h-3.13v-13.9h2.92l0.09,0.93c0.6-0.74,1.39-1.11,2.37-1.11
	c1.24,0,2.2,0.46,2.88,1.37c0.69,0.91,1.03,2.17,1.03,3.76V36.82z M281.99,36.62c0-1.78-0.52-2.67-1.56-2.67
	c-0.74,0-1.24,0.27-1.48,0.8v3.95c0.27,0.56,0.77,0.83,1.5,0.83c1,0,1.51-0.86,1.54-2.58V36.62z M291.35,41.95
	c-1.54,0-2.79-0.46-3.74-1.38c-0.95-0.92-1.43-2.11-1.43-3.58v-0.26c0-1.03,0.19-1.93,0.57-2.72c0.38-0.79,0.94-1.39,1.67-1.82
	c0.73-0.43,1.6-0.64,2.6-0.64c1.41,0,2.52,0.44,3.34,1.31c0.82,0.88,1.22,2.1,1.22,3.66v1.22h-6.22c0.11,0.56,0.36,1,0.73,1.33
	c0.38,0.32,0.87,0.48,1.47,0.48c0.99,0,1.76-0.35,2.32-1.04l1.43,1.69c-0.39,0.54-0.94,0.97-1.66,1.29
	C292.94,41.79,292.17,41.95,291.35,41.95z M291,33.95c-0.92,0-1.46,0.61-1.63,1.82h3.15v-0.24c0.01-0.5-0.11-0.89-0.38-1.16
	C291.88,34.09,291.5,33.95,291,33.95z M302.91,34.56l-1.03-0.07c-0.98,0-1.61,0.31-1.89,0.93v6.36h-3.13V31.73h2.93l0.1,1.29
	c0.53-0.98,1.26-1.48,2.2-1.48c0.33,0,0.62,0.04,0.87,0.11L302.91,34.56z M309.29,38.94c0-0.27-0.14-0.48-0.42-0.64
	c-0.28-0.16-0.81-0.33-1.59-0.5c-0.78-0.17-1.42-0.4-1.93-0.68c-0.51-0.28-0.89-0.62-1.16-1.02c-0.27-0.4-0.4-0.86-0.4-1.38
	c0-0.92,0.38-1.68,1.14-2.28s1.76-0.9,2.99-0.9c1.32,0,2.39,0.3,3.19,0.9c0.8,0.6,1.21,1.39,1.21,2.37h-3.14
	c0-0.8-0.42-1.21-1.27-1.21c-0.33,0-0.6,0.09-0.83,0.27c-0.22,0.18-0.33,0.41-0.33,0.68c0,0.28,0.14,0.5,0.41,0.68
	s0.71,0.32,1.3,0.43c0.6,0.11,1.12,0.24,1.57,0.4c1.51,0.52,2.26,1.45,2.26,2.79c0,0.92-0.41,1.66-1.22,2.24
	c-0.81,0.58-1.87,0.86-3.16,0.86c-0.86,0-1.63-0.15-2.3-0.46s-1.2-0.73-1.58-1.26s-0.57-1.09-0.57-1.68h2.92
	c0.01,0.46,0.17,0.8,0.46,1.02c0.3,0.21,0.68,0.32,1.14,0.32c0.43,0,0.75-0.09,0.96-0.26C309.19,39.45,309.29,39.22,309.29,38.94z
	 M313.38,36.65c0-1,0.2-1.89,0.58-2.68c0.39-0.78,0.95-1.38,1.68-1.8s1.59-0.63,2.57-0.63c1.5,0,2.69,0.47,3.55,1.4s1.3,2.2,1.3,3.8
	v0.11c0,1.56-0.43,2.81-1.3,3.72c-0.87,0.92-2.05,1.38-3.53,1.38c-1.43,0-2.58-0.43-3.44-1.29c-0.87-0.86-1.33-2.02-1.4-3.48
	L313.38,36.65z M316.5,36.85c0,0.93,0.14,1.61,0.44,2.04s0.72,0.65,1.29,0.65c1.11,0,1.68-0.86,1.71-2.57v-0.31
	c0-1.8-0.57-2.7-1.72-2.7c-1.05,0-1.61,0.78-1.7,2.33L316.5,36.85z M327.31,31.73l0.1,1.18c0.69-0.91,1.65-1.36,2.87-1.36
	c1.04,0,1.83,0.31,2.34,0.94c0.52,0.62,0.78,1.57,0.8,2.82v6.47h-3.13v-6.34c0-0.51-0.1-0.88-0.31-1.12s-0.58-0.36-1.11-0.36
	c-0.61,0-1.07,0.24-1.36,0.72v7.09h-3.13V31.73H327.31z M340.81,41.76c-0.11-0.2-0.21-0.5-0.3-0.9c-0.58,0.72-1.38,1.09-2.41,1.09
	c-0.95,0-1.75-0.29-2.41-0.86c-0.66-0.57-0.99-1.29-0.99-2.16c0-1.09,0.4-1.91,1.21-2.47c0.8-0.56,1.97-0.84,3.51-0.84h0.96V35.1
	c0-0.93-0.4-1.39-1.2-1.39c-0.74,0-1.11,0.37-1.11,1.1h-3.13c0-0.97,0.41-1.76,1.24-2.36c0.83-0.61,1.88-0.91,3.16-0.91
	c1.28,0,2.29,0.31,3.03,0.94c0.74,0.62,1.12,1.48,1.14,2.57v4.44c0.01,0.92,0.16,1.63,0.43,2.12v0.16H340.81z M338.85,39.72
	c0.39,0,0.71-0.08,0.97-0.25c0.26-0.17,0.44-0.36,0.55-0.57V37.3h-0.91c-1.09,0-1.63,0.49-1.63,1.47c0,0.28,0.1,0.51,0.29,0.69
	C338.31,39.64,338.56,39.72,338.85,39.72z M348.54,41.76h-3.14V27.51h3.14V41.76z M355.17,29.14c0-0.45,0.16-0.81,0.48-1.09
	c0.32-0.29,0.74-0.43,1.25-0.43c0.51,0,0.93,0.14,1.25,0.43c0.32,0.28,0.48,0.65,0.48,1.09s-0.16,0.81-0.48,1.1
	c-0.32,0.28-0.74,0.43-1.25,0.43c-0.51,0-0.93-0.14-1.25-0.43C355.33,29.95,355.17,29.58,355.17,29.14z M358.49,41.76h-3.14V31.73
	h3.14V41.76z M360.02,36.67c0-1.59,0.34-2.84,1.03-3.76c0.69-0.92,1.65-1.37,2.88-1.37c0.9,0,1.65,0.35,2.26,1.06v-5.08h3.13v14.25
	h-2.81l-0.16-1.08c-0.64,0.84-1.46,1.26-2.45,1.26c-1.19,0-2.14-0.46-2.84-1.37C360.37,39.66,360.02,38.36,360.02,36.67z
	 M363.15,36.87c0,1.78,0.52,2.67,1.56,2.67c0.69,0,1.19-0.29,1.48-0.87v-3.82c-0.29-0.59-0.77-0.89-1.47-0.89
	c-0.96,0-1.49,0.78-1.57,2.34L363.15,36.87z M375.96,41.95c-1.54,0-2.79-0.46-3.74-1.38c-0.95-0.92-1.43-2.11-1.43-3.58v-0.26
	c0-1.03,0.19-1.93,0.57-2.72c0.38-0.79,0.94-1.39,1.67-1.82c0.73-0.43,1.6-0.64,2.6-0.64c1.41,0,2.52,0.44,3.34,1.31
	c0.82,0.88,1.22,2.1,1.22,3.66v1.22h-6.22c0.11,0.56,0.36,1,0.73,1.33c0.38,0.32,0.87,0.48,1.47,0.48c0.99,0,1.76-0.35,2.32-1.04
	l1.43,1.69c-0.39,0.54-0.94,0.97-1.66,1.29C377.55,41.79,376.78,41.95,375.96,41.95z M375.61,33.95c-0.92,0-1.46,0.61-1.63,1.82
	h3.15v-0.24c0.01-0.5-0.11-0.89-0.38-1.16C376.48,34.09,376.1,33.95,375.61,33.95z M384.32,31.73l0.1,1.18
	c0.69-0.91,1.65-1.36,2.87-1.36c1.04,0,1.83,0.31,2.34,0.94c0.52,0.62,0.78,1.57,0.8,2.82v6.47h-3.13v-6.34
	c0-0.51-0.1-0.88-0.31-1.12s-0.58-0.36-1.11-0.36c-0.61,0-1.07,0.24-1.36,0.72v7.09h-3.13V31.73H384.32z M395.8,29.23v2.5h1.65v2.17
	h-1.65v4.59c0,0.38,0.07,0.64,0.21,0.79c0.14,0.15,0.4,0.22,0.81,0.22c0.31,0,0.57-0.02,0.78-0.06v2.24
	c-0.56,0.18-1.15,0.27-1.76,0.27c-1.08,0-1.87-0.25-2.38-0.76c-0.51-0.51-0.77-1.28-0.77-2.31V33.9h-1.28v-2.17h1.28v-2.5H395.8z
	 M398.66,29.14c0-0.45,0.16-0.81,0.48-1.09c0.32-0.29,0.74-0.43,1.25-0.43c0.51,0,0.93,0.14,1.25,0.43
	c0.32,0.28,0.48,0.65,0.48,1.09s-0.16,0.81-0.48,1.1c-0.32,0.28-0.74,0.43-1.25,0.43c-0.51,0-0.93-0.14-1.25-0.43
	C398.82,29.95,398.66,29.58,398.66,29.14z M401.98,41.76h-3.14V31.73h3.14V41.76z M407.55,29.23v2.5h1.65v2.17h-1.65v4.59
	c0,0.38,0.07,0.64,0.21,0.79c0.14,0.15,0.4,0.22,0.81,0.22c0.31,0,0.57-0.02,0.78-0.06v2.24c-0.56,0.18-1.15,0.27-1.76,0.27
	c-1.08,0-1.87-0.25-2.38-0.76c-0.51-0.51-0.77-1.28-0.77-2.31V33.9h-1.28v-2.17h1.28v-2.5H407.55z M414.44,37.39l1.67-5.66h3.35
	l-4.09,11.72l-0.18,0.43c-0.58,1.3-1.61,1.95-3.08,1.95c-0.41,0-0.84-0.06-1.29-0.19v-2.23h0.41c0.44,0,0.77-0.06,1.01-0.19
	c0.23-0.13,0.4-0.35,0.52-0.68l0.25-0.67l-3.49-10.14h3.34L414.44,37.39z M428.65,29.23v2.5h1.65v2.17h-1.65v4.59
	c0,0.38,0.07,0.64,0.21,0.79c0.14,0.15,0.4,0.22,0.81,0.22c0.31,0,0.57-0.02,0.78-0.06v2.24c-0.56,0.18-1.15,0.27-1.76,0.27
	c-1.08,0-1.87-0.25-2.38-0.76c-0.51-0.51-0.77-1.28-0.77-2.31V33.9h-1.28v-2.17h1.28v-2.5H428.65z M434.58,32.8
	c0.67-0.84,1.52-1.26,2.56-1.26c1.11,0,1.94,0.33,2.5,0.98s0.85,1.62,0.86,2.9v6.34h-3.13V35.5c0-0.53-0.11-0.92-0.33-1.17
	c-0.22-0.25-0.58-0.38-1.1-0.38c-0.64,0-1.1,0.2-1.36,0.61v7.2h-3.13V27.51h3.13V32.8z M447.11,41.95c-1.54,0-2.79-0.46-3.74-1.38
	c-0.95-0.92-1.43-2.11-1.43-3.58v-0.26c0-1.03,0.19-1.93,0.57-2.72c0.38-0.79,0.94-1.39,1.67-1.82c0.73-0.43,1.6-0.64,2.6-0.64
	c1.41,0,2.52,0.44,3.34,1.31c0.82,0.88,1.22,2.1,1.22,3.66v1.22h-6.22c0.11,0.56,0.36,1,0.73,1.33c0.38,0.32,0.87,0.48,1.47,0.48
	c0.99,0,1.76-0.35,2.32-1.04l1.43,1.69c-0.39,0.54-0.94,0.97-1.66,1.29C448.7,41.79,447.93,41.95,447.11,41.95z M446.76,33.95
	c-0.92,0-1.46,0.61-1.63,1.82h3.15v-0.24c0.01-0.5-0.11-0.89-0.38-1.16C447.63,34.09,447.25,33.95,446.76,33.95z M453.29,41.76V33.9
	h-1.46v-2.17h1.46v-0.8c0-1.14,0.34-2.03,1.01-2.66s1.62-0.95,2.84-0.95c0.45,0,0.93,0.07,1.47,0.2l0.01,2.3
	c-0.19-0.06-0.45-0.08-0.77-0.08c-0.95,0-1.42,0.41-1.42,1.22v0.77h1.96v2.17h-1.96v7.87H453.29z M463.12,29.23v2.5h1.65v2.17h-1.65
	v4.59c0,0.38,0.07,0.64,0.21,0.79c0.14,0.15,0.4,0.22,0.81,0.22c0.31,0,0.57-0.02,0.78-0.06v2.24c-0.56,0.18-1.15,0.27-1.76,0.27
	c-1.08,0-1.87-0.25-2.38-0.76c-0.51-0.51-0.77-1.28-0.77-2.31V33.9h-1.28v-2.17H460v-2.5H463.12z M476.39,41.76
	c-0.11-0.2-0.21-0.5-0.3-0.9c-0.58,0.72-1.38,1.09-2.41,1.09c-0.95,0-1.75-0.29-2.41-0.86c-0.66-0.57-0.99-1.29-0.99-2.16
	c0-1.09,0.4-1.91,1.21-2.47c0.8-0.56,1.97-0.84,3.51-0.84h0.96V35.1c0-0.93-0.4-1.39-1.2-1.39c-0.74,0-1.11,0.37-1.11,1.1h-3.13
	c0-0.97,0.41-1.76,1.24-2.36c0.83-0.61,1.88-0.91,3.16-0.91c1.28,0,2.29,0.31,3.03,0.94c0.74,0.62,1.12,1.48,1.14,2.57v4.44
	c0.01,0.92,0.16,1.63,0.43,2.12v0.16H476.39z M474.43,39.72c0.39,0,0.71-0.08,0.97-0.25c0.26-0.17,0.44-0.36,0.55-0.57V37.3h-0.91
	c-1.09,0-1.63,0.49-1.63,1.47c0,0.28,0.1,0.51,0.29,0.69C473.89,39.64,474.13,39.72,474.43,39.72z M484.12,41.76h-3.14V27.51h3.14
	V41.76z M490.9,41.95c-1.54,0-2.79-0.46-3.74-1.38c-0.95-0.92-1.43-2.11-1.43-3.58v-0.26c0-1.03,0.19-1.93,0.57-2.72
	c0.38-0.79,0.94-1.39,1.67-1.82c0.73-0.43,1.6-0.64,2.6-0.64c1.41,0,2.52,0.44,3.34,1.31c0.82,0.88,1.22,2.1,1.22,3.66v1.22h-6.22
	c0.11,0.56,0.36,1,0.73,1.33c0.38,0.32,0.87,0.48,1.47,0.48c0.99,0,1.76-0.35,2.32-1.04l1.43,1.69c-0.39,0.54-0.94,0.97-1.66,1.29
	C492.49,41.79,491.72,41.95,490.9,41.95z M490.55,33.95c-0.92,0-1.46,0.61-1.63,1.82h3.15v-0.24c0.01-0.5-0.11-0.89-0.38-1.16
	C491.42,34.09,491.04,33.95,490.55,33.95z M502.46,34.56l-1.03-0.07c-0.98,0-1.61,0.31-1.89,0.93v6.36h-3.13V31.73h2.93l0.1,1.29
	c0.53-0.98,1.26-1.48,2.2-1.48c0.33,0,0.62,0.04,0.87,0.11L502.46,34.56z M507.69,29.23v2.5h1.65v2.17h-1.65v4.59
	c0,0.38,0.07,0.64,0.21,0.79c0.14,0.15,0.4,0.22,0.81,0.22c0.31,0,0.57-0.02,0.78-0.06v2.24c-0.56,0.18-1.15,0.27-1.76,0.27
	c-1.08,0-1.87-0.25-2.38-0.76c-0.51-0.51-0.77-1.28-0.77-2.31V33.9h-1.28v-2.17h1.28v-2.5H507.69z M515.83,38.94
	c0-0.27-0.14-0.48-0.42-0.64c-0.28-0.16-0.81-0.33-1.59-0.5c-0.78-0.17-1.42-0.4-1.93-0.68c-0.51-0.28-0.89-0.62-1.16-1.02
	c-0.27-0.4-0.4-0.86-0.4-1.38c0-0.92,0.38-1.68,1.14-2.28s1.76-0.9,2.99-0.9c1.32,0,2.39,0.3,3.19,0.9c0.8,0.6,1.21,1.39,1.21,2.37
	h-3.14c0-0.8-0.42-1.21-1.27-1.21c-0.33,0-0.6,0.09-0.83,0.27c-0.22,0.18-0.33,0.41-0.33,0.68c0,0.28,0.14,0.5,0.41,0.68
	s0.71,0.32,1.3,0.43c0.6,0.11,1.12,0.24,1.57,0.4c1.51,0.52,2.26,1.45,2.26,2.79c0,0.92-0.41,1.66-1.22,2.24
	c-0.81,0.58-1.87,0.86-3.16,0.86c-0.86,0-1.63-0.15-2.3-0.46s-1.2-0.73-1.58-1.26s-0.57-1.09-0.57-1.68h2.92
	c0.01,0.46,0.17,0.8,0.46,1.02c0.3,0.21,0.68,0.32,1.14,0.32c0.43,0,0.75-0.09,0.96-0.26C515.72,39.45,515.83,39.22,515.83,38.94z
	 M535.31,36.4h-9.79v-2.45h9.79V36.4z M238.53,64.56h-9.43v-2.04l4.34-4.56c1.07-1.22,1.6-2.19,1.6-2.9c0-0.58-0.13-1.02-0.38-1.33
	c-0.25-0.3-0.62-0.46-1.1-0.46c-0.48,0-0.86,0.2-1.16,0.61s-0.45,0.91-0.45,1.52h-3.14c0-0.83,0.21-1.59,0.62-2.3
	s0.99-1.25,1.73-1.65c0.74-0.4,1.56-0.59,2.47-0.59c1.46,0,2.58,0.34,3.37,1.01c0.79,0.67,1.18,1.64,1.18,2.9
	c0,0.53-0.1,1.05-0.3,1.55c-0.2,0.5-0.51,1.03-0.92,1.59c-0.42,0.55-1.09,1.29-2.02,2.22l-1.74,2.01h5.32V64.56z M248.36,59.28h1.37
	v2.41h-1.37v2.87h-3.13V61.7h-5.22l-0.19-1.91l5.41-8.7v-0.03h3.13V59.28z M242.8,59.28h2.43v-4.16l-0.19,0.32L242.8,59.28z
	 M252.23,65.72h-2.22l4.61-14.67h2.23L252.23,65.72z M267.17,52.73l-5.05,11.84h-3.3l5.06-11.1h-6.44v-2.41h9.73V52.73z
	 M276.96,59.98v4.58h-3.26V51.06h5.39c1.03,0,1.95,0.19,2.74,0.57c0.79,0.38,1.41,0.92,1.85,1.62c0.44,0.7,0.65,1.5,0.65,2.39
	c0,1.32-0.47,2.37-1.42,3.16c-0.94,0.79-2.24,1.18-3.88,1.18H276.96z M276.96,57.47h2.13c0.63,0,1.11-0.16,1.44-0.47
	c0.33-0.32,0.5-0.76,0.5-1.34c0-0.63-0.17-1.13-0.51-1.51c-0.34-0.38-0.8-0.57-1.39-0.58h-2.17V57.47z M291.91,63.48
	c-0.66,0.85-1.55,1.27-2.68,1.27c-1.1,0-1.93-0.32-2.5-0.96c-0.57-0.64-0.85-1.56-0.85-2.76v-6.5H289v6.52
	c0,0.86,0.42,1.29,1.25,1.29c0.72,0,1.23-0.26,1.53-0.77v-7.04h3.15v10.04H292L291.91,63.48z M305.96,59.63
	c0,1.65-0.34,2.91-1.02,3.79c-0.68,0.88-1.64,1.33-2.88,1.33c-1.02,0-1.84-0.41-2.47-1.21l-0.13,1.03h-2.8V50.31h3.13v5.02
	c0.58-0.66,1.33-0.99,2.25-0.99c1.25,0,2.21,0.45,2.89,1.34c0.68,0.9,1.02,2.16,1.02,3.79V59.63z M302.83,59.43
	c0-0.96-0.13-1.65-0.39-2.06c-0.26-0.41-0.65-0.62-1.18-0.62c-0.71,0-1.19,0.27-1.47,0.81v3.98c0.27,0.53,0.76,0.8,1.48,0.8
	c0.74,0,1.2-0.36,1.4-1.07C302.78,60.91,302.83,60.3,302.83,59.43z M310.64,64.56h-3.14V50.31h3.14V64.56z M312.54,51.94
	c0-0.45,0.16-0.81,0.48-1.09c0.32-0.29,0.74-0.43,1.25-0.43c0.51,0,0.93,0.14,1.25,0.43c0.32,0.28,0.48,0.65,0.48,1.09
	s-0.16,0.81-0.48,1.1c-0.32,0.28-0.74,0.43-1.25,0.43c-0.51,0-0.93-0.14-1.25-0.43C312.7,52.75,312.54,52.38,312.54,51.94z
	 M315.86,64.56h-3.14V54.53h3.14V64.56z M322.03,62.34c0.44,0,0.78-0.12,1.02-0.36c0.24-0.24,0.36-0.57,0.35-1h2.93
	c0,1.1-0.39,2-1.18,2.71c-0.79,0.71-1.8,1.06-3.05,1.06c-1.46,0-2.61-0.46-3.45-1.37s-1.26-2.18-1.26-3.8v-0.13
	c0-1.01,0.19-1.91,0.56-2.69c0.37-0.78,0.91-1.37,1.62-1.79c0.71-0.42,1.54-0.63,2.51-0.63c1.3,0,2.34,0.36,3.11,1.08
	c0.77,0.72,1.15,1.7,1.15,2.94h-2.93c0-0.52-0.13-0.92-0.38-1.2c-0.25-0.28-0.59-0.42-1.02-0.42c-0.81,0-1.28,0.52-1.42,1.55
	c-0.04,0.33-0.06,0.78-0.06,1.35c0,1.01,0.12,1.71,0.36,2.1C321.12,62.14,321.51,62.34,322.03,62.34z M334.4,57.45
	c-0.36-0.52-0.65-1.01-0.86-1.48c-0.21-0.47-0.31-0.96-0.31-1.46c0-1.09,0.35-1.97,1.06-2.64c0.71-0.67,1.63-1.01,2.77-1.01
	c1.02,0,1.86,0.31,2.53,0.93c0.67,0.62,1,1.39,1,2.32c0,1.15-0.63,2.17-1.9,3.06l-0.71,0.49l2.08,2.38
	c0.34-0.68,0.51-1.43,0.51-2.24h2.62c0,1.82-0.42,3.29-1.26,4.39l2.06,2.37h-3.49l-0.63-0.71c-0.52,0.31-1.05,0.54-1.59,0.69
	s-1.15,0.22-1.83,0.22c-1.34,0-2.41-0.35-3.21-1.05c-0.8-0.7-1.21-1.62-1.21-2.77c0-0.62,0.16-1.19,0.48-1.7s0.94-1.1,1.86-1.77
	L334.4,57.45z M336.65,62.35c0.54,0,1.06-0.13,1.56-0.38l-2.43-2.76l-0.08,0.06c-0.35,0.43-0.53,0.92-0.53,1.47
	c0,0.45,0.14,0.83,0.43,1.15S336.23,62.35,336.65,62.35z M335.93,54.47c0,0.43,0.24,0.96,0.71,1.58l0.62-0.39
	c0.29-0.19,0.49-0.38,0.62-0.58s0.19-0.45,0.19-0.75c0-0.29-0.1-0.53-0.3-0.74c-0.2-0.21-0.44-0.32-0.73-0.32
	c-0.35,0-0.62,0.11-0.82,0.33S335.93,54.11,335.93,54.47z M350.07,64.56V51.06h4.35c1.19,0,2.27,0.27,3.22,0.81
	c0.95,0.54,1.7,1.31,2.23,2.29c0.53,0.99,0.81,2.09,0.81,3.32v0.62c0,1.24-0.26,2.35-0.78,3.33c-0.52,0.98-1.26,1.75-2.21,2.3
	c-0.95,0.55-2.01,0.83-3.18,0.84H350.07z M353.33,53.57v8.49h1.13c0.93,0,1.65-0.33,2.15-1c0.5-0.67,0.75-1.65,0.75-2.96v-0.58
	c0-1.3-0.25-2.29-0.75-2.95c-0.5-0.66-1.23-0.99-2.19-0.99H353.33z M367.86,64.56c-0.11-0.2-0.21-0.5-0.3-0.9
	c-0.58,0.72-1.38,1.09-2.41,1.09c-0.95,0-1.75-0.29-2.41-0.86c-0.66-0.57-0.99-1.29-0.99-2.16c0-1.09,0.4-1.91,1.21-2.47
	c0.8-0.56,1.97-0.84,3.51-0.84h0.96V57.9c0-0.93-0.4-1.39-1.2-1.39c-0.74,0-1.11,0.37-1.11,1.1h-3.13c0-0.97,0.41-1.76,1.24-2.36
	c0.83-0.61,1.88-0.91,3.16-0.91c1.28,0,2.29,0.31,3.03,0.94c0.74,0.62,1.12,1.48,1.14,2.57v4.44c0.01,0.92,0.16,1.63,0.43,2.12v0.16
	H367.86z M365.91,62.52c0.39,0,0.71-0.08,0.97-0.25c0.26-0.17,0.44-0.36,0.55-0.57V60.1h-0.91c-1.09,0-1.63,0.49-1.63,1.47
	c0,0.28,0.1,0.51,0.29,0.69C365.36,62.43,365.61,62.52,365.91,62.52z M378.37,57.35l-1.03-0.07c-0.98,0-1.61,0.31-1.89,0.93v6.36
	h-3.13V54.53h2.93l0.1,1.29c0.53-0.98,1.26-1.48,2.2-1.48c0.33,0,0.62,0.04,0.87,0.11L378.37,57.35z M383.52,60.83l-0.88,0.88v2.86
	h-3.13V50.3h3.13v7.57l0.32-0.42l2.36-2.93h3.75l-3.52,4.13l3.75,5.91h-3.58L383.52,60.83z M405.22,59.53l1.55-8.47H410l-2.87,13.51
	h-3.38l-1.81-7.7l-1.77,7.7h-3.37l-2.88-13.51h3.24l1.55,8.47l1.86-8.47h2.76L405.22,59.53z M415.7,64.75
	c-1.54,0-2.79-0.46-3.74-1.38c-0.95-0.92-1.43-2.11-1.43-3.58v-0.26c0-1.03,0.19-1.93,0.57-2.72c0.38-0.79,0.94-1.39,1.67-1.82
	c0.73-0.43,1.6-0.64,2.6-0.64c1.41,0,2.52,0.44,3.34,1.31c0.82,0.88,1.22,2.1,1.22,3.66v1.22h-6.22c0.11,0.56,0.36,1,0.73,1.33
	c0.38,0.32,0.87,0.48,1.47,0.48c0.99,0,1.76-0.35,2.32-1.04l1.43,1.69c-0.39,0.54-0.94,0.97-1.66,1.29
	C417.29,64.59,416.52,64.75,415.7,64.75z M415.34,56.75c-0.92,0-1.46,0.61-1.63,1.82h3.15v-0.24c0.01-0.5-0.11-0.89-0.38-1.16
	C416.22,56.89,415.84,56.75,415.34,56.75z M430.5,59.63c0,1.65-0.34,2.91-1.02,3.79c-0.68,0.88-1.64,1.33-2.88,1.33
	c-1.02,0-1.84-0.41-2.47-1.21l-0.13,1.03h-2.8V50.31h3.13v5.02c0.58-0.66,1.33-0.99,2.25-0.99c1.25,0,2.21,0.45,2.89,1.34
	c0.68,0.9,1.02,2.16,1.02,3.79V59.63z M427.37,59.43c0-0.96-0.13-1.65-0.39-2.06c-0.26-0.41-0.65-0.62-1.18-0.62
	c-0.71,0-1.19,0.27-1.47,0.81v3.98c0.27,0.53,0.76,0.8,1.48,0.8c0.74,0,1.2-0.36,1.4-1.07C427.32,60.91,427.37,60.3,427.37,59.43z
	 M443.72,60.97c0-0.48-0.17-0.85-0.51-1.11c-0.34-0.27-0.93-0.54-1.78-0.83c-0.85-0.28-1.54-0.56-2.08-0.83
	c-1.75-0.86-2.62-2.04-2.62-3.54c0-0.75,0.22-1.41,0.65-1.98c0.44-0.57,1.05-1.02,1.85-1.34c0.8-0.32,1.69-0.48,2.69-0.48
	c0.97,0,1.84,0.17,2.61,0.52c0.77,0.35,1.37,0.84,1.79,1.48c0.43,0.64,0.64,1.37,0.64,2.19h-3.25c0-0.55-0.17-0.98-0.51-1.28
	s-0.79-0.45-1.37-0.45c-0.58,0-1.04,0.13-1.38,0.38s-0.5,0.58-0.5,0.98c0,0.35,0.19,0.66,0.56,0.94c0.37,0.28,1.02,0.57,1.96,0.87
	c0.93,0.3,1.7,0.62,2.3,0.97c1.46,0.84,2.19,2,2.19,3.48c0,1.18-0.45,2.11-1.34,2.78c-0.89,0.67-2.11,1.01-3.66,1.01
	c-1.1,0-2.09-0.2-2.97-0.59c-0.89-0.39-1.56-0.93-2-1.61c-0.45-0.68-0.67-1.47-0.67-2.36h3.27c0,0.72,0.19,1.26,0.56,1.6
	c0.37,0.34,0.98,0.51,1.82,0.51c0.54,0,0.96-0.12,1.28-0.35C443.57,61.72,443.72,61.39,443.72,60.97z M452.75,62.34
	c0.44,0,0.78-0.12,1.02-0.36c0.24-0.24,0.36-0.57,0.35-1h2.93c0,1.1-0.39,2-1.18,2.71c-0.79,0.71-1.8,1.06-3.05,1.06
	c-1.46,0-2.61-0.46-3.45-1.37s-1.26-2.18-1.26-3.8v-0.13c0-1.01,0.19-1.91,0.56-2.69c0.37-0.78,0.91-1.37,1.62-1.79
	c0.71-0.42,1.54-0.63,2.51-0.63c1.3,0,2.34,0.36,3.11,1.08c0.77,0.72,1.15,1.7,1.15,2.94h-2.93c0-0.52-0.13-0.92-0.38-1.2
	c-0.25-0.28-0.59-0.42-1.02-0.42c-0.81,0-1.28,0.52-1.42,1.55c-0.04,0.33-0.06,0.78-0.06,1.35c0,1.01,0.12,1.71,0.36,2.1
	C451.84,62.14,452.22,62.34,452.75,62.34z M464.03,64.56c-0.11-0.2-0.21-0.5-0.3-0.9c-0.58,0.72-1.38,1.09-2.41,1.09
	c-0.95,0-1.75-0.29-2.41-0.86c-0.66-0.57-0.99-1.29-0.99-2.16c0-1.09,0.4-1.91,1.21-2.47c0.8-0.56,1.97-0.84,3.51-0.84h0.96V57.9
	c0-0.93-0.4-1.39-1.2-1.39c-0.74,0-1.11,0.37-1.11,1.1h-3.13c0-0.97,0.41-1.76,1.24-2.36c0.83-0.61,1.88-0.91,3.16-0.91
	c1.28,0,2.29,0.31,3.03,0.94c0.74,0.62,1.12,1.48,1.14,2.57v4.44c0.01,0.92,0.16,1.63,0.43,2.12v0.16H464.03z M462.07,62.52
	c0.39,0,0.71-0.08,0.97-0.25c0.26-0.17,0.44-0.36,0.55-0.57V60.1h-0.91c-1.09,0-1.63,0.49-1.63,1.47c0,0.28,0.1,0.51,0.29,0.69
	C461.53,62.43,461.78,62.52,462.07,62.52z M471.33,54.53l0.1,1.18c0.69-0.91,1.65-1.36,2.87-1.36c1.04,0,1.83,0.31,2.34,0.94
	c0.52,0.62,0.78,1.57,0.8,2.82v6.47h-3.13v-6.34c0-0.51-0.1-0.88-0.31-1.12s-0.58-0.36-1.11-0.36c-0.61,0-1.07,0.24-1.36,0.72v7.09
	h-3.13V54.53H471.33z M482.05,54.53l0.1,1.18c0.69-0.91,1.65-1.36,2.87-1.36c1.04,0,1.83,0.31,2.34,0.94
	c0.52,0.62,0.78,1.57,0.8,2.82v6.47h-3.13v-6.34c0-0.51-0.1-0.88-0.31-1.12s-0.58-0.36-1.11-0.36c-0.61,0-1.07,0.24-1.36,0.72v7.09
	h-3.13V54.53H482.05z M489.87,51.94c0-0.45,0.16-0.81,0.48-1.09c0.32-0.29,0.74-0.43,1.25-0.43c0.51,0,0.93,0.14,1.25,0.43
	c0.32,0.28,0.48,0.65,0.48,1.09s-0.16,0.81-0.48,1.1c-0.32,0.28-0.74,0.43-1.25,0.43c-0.51,0-0.93-0.14-1.25-0.43
	C490.03,52.75,489.87,52.38,489.87,51.94z M493.19,64.56h-3.14V54.53h3.14V64.56z M497.99,54.53l0.1,1.18
	c0.69-0.91,1.65-1.36,2.87-1.36c1.04,0,1.83,0.31,2.34,0.94c0.52,0.62,0.78,1.57,0.8,2.82v6.47h-3.13v-6.34
	c0-0.51-0.1-0.88-0.31-1.12s-0.58-0.36-1.11-0.36c-0.61,0-1.07,0.24-1.36,0.72v7.09h-3.13V54.53H497.99z M505.46,59.47
	c0-1.01,0.17-1.91,0.5-2.69s0.81-1.38,1.44-1.8s1.35-0.64,2.18-0.64c1.05,0,1.86,0.35,2.45,1.06l0.11-0.87h2.84v9.66
	c0,0.88-0.21,1.65-0.62,2.31c-0.41,0.65-1.01,1.15-1.79,1.5s-1.68,0.52-2.71,0.52c-0.74,0-1.45-0.14-2.14-0.42
	c-0.69-0.28-1.22-0.64-1.58-1.09l1.31-1.84c0.58,0.69,1.35,1.03,2.3,1.03c1.39,0,2.08-0.71,2.08-2.13v-0.31
	c-0.6,0.66-1.36,0.99-2.27,0.99c-1.22,0-2.21-0.47-2.97-1.41c-0.75-0.94-1.13-2.19-1.13-3.76V59.47z M508.6,59.67
	c0,0.82,0.15,1.47,0.46,1.95c0.31,0.48,0.74,0.72,1.3,0.72c0.67,0,1.17-0.23,1.48-0.68v-4.22c-0.3-0.46-0.79-0.69-1.46-0.69
	c-0.56,0-0.99,0.25-1.31,0.75S508.6,58.72,508.6,59.67z"/>
</svg>
