<?xml version="1.0" encoding="utf-8"?>
<!-- Generator: Adobe Illustrator 24.2.3, SVG Export Plug-In . SVG Version: 6.00 Build 0)  -->
<svg version="1.1" id="Layer_1" xmlns="http://www.w3.org/2000/svg" xmlns:xlink="http://www.w3.org/1999/xlink" x="0px" y="0px"
	 viewBox="0 0 728 90" style="enable-background:new 0 0 728 90;" xml:space="preserve">
<style type="text/css">
	.st0{fill:url(#SVGID_1_);}
</style>
<linearGradient id="SVGID_1_" gradientUnits="userSpaceOnUse" x1="229.0566" y1="46.4774" x2="510.6582" y2="46.4774">
	<stop  offset="0" style="stop-color:#18B9FB"/>
	<stop  offset="0.5" style="stop-color:#782EEB"/>
	<stop  offset="1" style="stop-color:#E82D8A"/>
</linearGradient>
<path class="st0" d="M240.97,38.09c-0.53,0.59-1.3,1.06-2.31,1.42s-2.13,0.54-3.34,0.54c-1.86,0-3.35-0.57-4.46-1.71
	s-1.71-2.72-1.79-4.76l-0.01-1.23c0-1.4,0.25-2.62,0.74-3.67s1.2-1.85,2.12-2.41s1.99-0.84,3.2-0.84c1.77,0,3.15,0.41,4.13,1.22
	s1.55,2.02,1.71,3.63h-3.3c-0.12-0.79-0.37-1.36-0.76-1.7s-0.94-0.51-1.66-0.51c-0.86,0-1.52,0.36-1.99,1.09s-0.71,1.77-0.71,3.12
	v0.86c0,1.42,0.24,2.49,0.73,3.2s1.25,1.07,2.29,1.07c0.89,0,1.56-0.2,1.99-0.6V34.6h-2.38v-2.35h5.81V38.09z M247.92,40.04
	c-1.62,0-2.93-0.48-3.94-1.45s-1.5-2.22-1.5-3.77v-0.27c0-1.08,0.2-2.03,0.6-2.86s0.98-1.47,1.75-1.92s1.68-0.68,2.73-0.68
	c1.48,0,2.66,0.46,3.52,1.38s1.29,2.21,1.29,3.85v1.28h-6.54c0.12,0.59,0.37,1.06,0.77,1.4s0.91,0.51,1.54,0.51
	c1.04,0,1.86-0.36,2.44-1.09l1.5,1.78c-0.41,0.57-0.99,1.02-1.74,1.35S248.79,40.04,247.92,40.04z M247.55,31.62
	c-0.96,0-1.54,0.64-1.72,1.91h3.32v-0.25c0.01-0.53-0.12-0.94-0.4-1.23S248.07,31.62,247.55,31.62z M257.53,26.65v2.63h1.74v2.29
	h-1.74v4.83c0,0.4,0.07,0.67,0.21,0.83s0.43,0.23,0.85,0.23c0.33,0,0.6-0.02,0.82-0.06v2.35c-0.59,0.19-1.21,0.28-1.86,0.28
	c-1.13,0-1.97-0.27-2.51-0.8s-0.81-1.34-0.81-2.43v-5.24h-1.35v-2.29h1.35v-2.63H257.53z M269.38,26.65v2.63h1.74v2.29h-1.74v4.83
	c0,0.4,0.07,0.67,0.21,0.83s0.43,0.23,0.85,0.23c0.33,0,0.6-0.02,0.82-0.06v2.35c-0.59,0.19-1.21,0.28-1.86,0.28
	c-1.13,0-1.97-0.27-2.51-0.8s-0.81-1.34-0.81-2.43v-5.24h-1.35v-2.29h1.35v-2.63H269.38z M278.8,32.26l-1.08-0.08
	c-1.04,0-1.7,0.33-1.99,0.98v6.69h-3.29V29.28h3.09l0.11,1.36c0.55-1.04,1.33-1.55,2.31-1.55c0.35,0,0.66,0.04,0.92,0.12
	L278.8,32.26z M279.96,26.55c0-0.47,0.17-0.85,0.51-1.15c0.34-0.3,0.78-0.45,1.32-0.45s0.98,0.15,1.32,0.45
	c0.34,0.3,0.51,0.68,0.51,1.15s-0.17,0.85-0.51,1.15s-0.78,0.45-1.32,0.45s-0.98-0.15-1.32-0.45S279.96,27.02,279.96,26.55z
	 M283.46,39.84h-3.3V29.28h3.3V39.84z M295.3,34.64c0,1.64-0.37,2.95-1.11,3.93s-1.74,1.47-2.99,1.47c-0.97,0-1.77-0.35-2.39-1.06
	v4.93h-3.29V29.28h3.08l0.1,0.98c0.63-0.78,1.46-1.17,2.49-1.17c1.3,0,2.31,0.48,3.04,1.44s1.08,2.28,1.08,3.96V34.64z
	 M292.01,34.43c0-1.88-0.55-2.81-1.64-2.81c-0.78,0-1.3,0.28-1.56,0.84v4.16c0.29,0.59,0.81,0.88,1.58,0.88
	c1.05,0,1.59-0.91,1.62-2.71V34.43z M300.22,39.84h-3.3v-15h3.3V39.84z M307.36,40.04c-1.62,0-2.93-0.48-3.94-1.45
	s-1.5-2.22-1.5-3.77v-0.27c0-1.08,0.2-2.03,0.6-2.86s0.98-1.47,1.75-1.92s1.68-0.68,2.73-0.68c1.48,0,2.66,0.46,3.52,1.38
	s1.29,2.21,1.29,3.85v1.28h-6.54c0.12,0.59,0.37,1.06,0.77,1.4s0.91,0.51,1.54,0.51c1.04,0,1.86-0.36,2.44-1.09l1.5,1.78
	c-0.41,0.57-0.99,1.02-1.74,1.35S308.22,40.04,307.36,40.04z M306.99,31.62c-0.96,0-1.54,0.64-1.72,1.91h3.32v-0.25
	c0.01-0.53-0.12-0.94-0.4-1.23S307.51,31.62,306.99,31.62z M319.56,34.98h-5.87v-2.54h5.87V34.98z M331.94,34.65
	c0,1.73-0.36,3.06-1.07,3.99s-1.73,1.4-3.03,1.4c-1.07,0-1.94-0.43-2.6-1.28l-0.14,1.08h-2.95v-15h3.29v5.28
	c0.61-0.7,1.4-1.04,2.37-1.04c1.32,0,2.33,0.47,3.05,1.42s1.07,2.27,1.07,3.98V34.65z M328.64,34.44c0-1.01-0.13-1.74-0.41-2.17
	s-0.69-0.65-1.25-0.65c-0.74,0-1.26,0.28-1.54,0.85v4.19c0.28,0.56,0.8,0.84,1.56,0.84c0.77,0,1.27-0.38,1.47-1.13
	C328.58,36,328.64,35.36,328.64,34.44z M339.68,38.7c-0.7,0.89-1.64,1.34-2.82,1.34c-1.16,0-2.04-0.34-2.63-1.01
	s-0.89-1.64-0.89-2.91v-6.85h3.29v6.87c0,0.91,0.44,1.36,1.32,1.36c0.75,0,1.29-0.27,1.61-0.81v-7.41h3.31v10.57h-3.09L339.68,38.7z
	 M351.06,32.26l-1.08-0.08c-1.04,0-1.7,0.33-1.99,0.98v6.69h-3.29V29.28h3.09l0.11,1.36c0.55-1.04,1.33-1.55,2.31-1.55
	c0.35,0,0.66,0.04,0.92,0.12L351.06,32.26z M357.17,40.04c-1.62,0-2.93-0.48-3.94-1.45s-1.5-2.22-1.5-3.77v-0.27
	c0-1.08,0.2-2.03,0.6-2.86s0.98-1.47,1.75-1.92s1.68-0.68,2.73-0.68c1.48,0,2.66,0.46,3.52,1.38s1.29,2.21,1.29,3.85v1.28h-6.54
	c0.12,0.59,0.37,1.06,0.77,1.4s0.91,0.51,1.54,0.51c1.04,0,1.86-0.36,2.44-1.09l1.5,1.78c-0.41,0.57-0.99,1.02-1.74,1.35
	S358.04,40.04,357.17,40.04z M356.8,31.62c-0.96,0-1.54,0.64-1.72,1.91h3.32v-0.25c0.01-0.53-0.12-0.94-0.4-1.23
	S357.32,31.62,356.8,31.62z M368.9,39.84c-0.12-0.21-0.22-0.53-0.31-0.95c-0.61,0.76-1.45,1.14-2.54,1.14c-1,0-1.84-0.3-2.54-0.9
	s-1.04-1.36-1.04-2.27c0-1.15,0.42-2.01,1.27-2.6s2.08-0.88,3.69-0.88h1.02v-0.56c0-0.97-0.42-1.46-1.26-1.46
	c-0.78,0-1.17,0.39-1.17,1.16h-3.29c0-1.02,0.43-1.85,1.3-2.49c0.87-0.64,1.98-0.96,3.33-0.96s2.41,0.33,3.19,0.99
	s1.18,1.56,1.2,2.71v4.68c0.01,0.97,0.16,1.71,0.45,2.23v0.17H368.9z M366.84,37.7c0.41,0,0.75-0.09,1.02-0.26s0.46-0.37,0.58-0.6
	v-1.69h-0.96c-1.15,0-1.72,0.51-1.72,1.54c0,0.3,0.1,0.54,0.3,0.73S366.53,37.7,366.84,37.7z M379.86,38.7
	c-0.7,0.89-1.64,1.34-2.82,1.34c-1.16,0-2.04-0.34-2.63-1.01s-0.89-1.64-0.89-2.91v-6.85h3.29v6.87c0,0.91,0.44,1.36,1.32,1.36
	c0.75,0,1.29-0.27,1.61-0.81v-7.41h3.31v10.57h-3.09L379.86,38.7z M394.29,37.5c0.46,0,0.82-0.12,1.07-0.38s0.38-0.6,0.37-1.05h3.09
	c0,1.16-0.42,2.11-1.25,2.85s-1.9,1.11-3.21,1.11c-1.54,0-2.75-0.48-3.63-1.45s-1.33-2.3-1.33-4v-0.14c0-1.07,0.2-2.01,0.59-2.83
	s0.96-1.45,1.7-1.88s1.62-0.66,2.64-0.66c1.37,0,2.46,0.38,3.27,1.14s1.21,1.79,1.21,3.1h-3.09c0-0.55-0.13-0.97-0.4-1.26
	s-0.62-0.44-1.07-0.44c-0.85,0-1.35,0.54-1.49,1.63c-0.05,0.34-0.07,0.82-0.07,1.43c0,1.06,0.13,1.8,0.38,2.21
	S393.74,37.5,394.29,37.5z M406.61,32.26l-1.08-0.08c-1.04,0-1.7,0.33-1.99,0.98v6.69h-3.29V29.28h3.09l0.11,1.36
	c0.55-1.04,1.33-1.55,2.31-1.55c0.35,0,0.66,0.04,0.92,0.12L406.61,32.26z M412.72,40.04c-1.62,0-2.93-0.48-3.94-1.45
	s-1.5-2.22-1.5-3.77v-0.27c0-1.08,0.2-2.03,0.6-2.86s0.98-1.47,1.75-1.92s1.68-0.68,2.73-0.68c1.48,0,2.66,0.46,3.52,1.38
	s1.29,2.21,1.29,3.85v1.28h-6.54c0.12,0.59,0.37,1.06,0.77,1.4s0.91,0.51,1.54,0.51c1.04,0,1.86-0.36,2.44-1.09l1.5,1.78
	c-0.41,0.57-0.99,1.02-1.74,1.35S413.58,40.04,412.72,40.04z M412.35,31.62c-0.96,0-1.54,0.64-1.72,1.91h3.32v-0.25
	c0.01-0.53-0.12-0.94-0.4-1.23S412.87,31.62,412.35,31.62z M418.08,34.48c0-1.67,0.36-2.99,1.08-3.96s1.73-1.45,3.03-1.45
	c0.94,0,1.74,0.37,2.38,1.11v-5.35h3.3v15h-2.96l-0.17-1.13c-0.68,0.89-1.54,1.33-2.58,1.33c-1.26,0-2.25-0.48-2.99-1.45
	S418.08,36.26,418.08,34.48z M421.37,34.69c0,1.88,0.55,2.81,1.64,2.81c0.73,0,1.25-0.31,1.56-0.92v-4.02
	c-0.3-0.62-0.81-0.94-1.54-0.94c-1.02,0-1.57,0.82-1.65,2.46L421.37,34.69z M429.72,26.55c0-0.47,0.17-0.85,0.51-1.15
	c0.34-0.3,0.78-0.45,1.32-0.45s0.98,0.15,1.32,0.45c0.34,0.3,0.51,0.68,0.51,1.15s-0.17,0.85-0.51,1.15s-0.78,0.45-1.32,0.45
	s-0.98-0.15-1.32-0.45S429.72,27.02,429.72,26.55z M433.22,39.84h-3.3V29.28h3.3V39.84z M439.08,26.65v2.63h1.74v2.29h-1.74v4.83
	c0,0.4,0.07,0.67,0.21,0.83s0.43,0.23,0.85,0.23c0.33,0,0.6-0.02,0.82-0.06v2.35c-0.59,0.19-1.21,0.28-1.86,0.28
	c-1.13,0-1.97-0.27-2.51-0.8s-0.81-1.34-0.81-2.43v-5.24h-1.35v-2.29h1.35v-2.63H439.08z M452.62,36.87c0-0.28-0.15-0.5-0.44-0.67
	s-0.85-0.34-1.67-0.53s-1.5-0.42-2.03-0.72s-0.94-0.66-1.22-1.08s-0.42-0.91-0.42-1.46c0-0.97,0.4-1.77,1.2-2.4s1.85-0.94,3.14-0.94
	c1.39,0,2.51,0.32,3.36,0.95s1.27,1.46,1.27,2.49h-3.3c0-0.85-0.45-1.27-1.34-1.27c-0.34,0-0.63,0.1-0.87,0.29s-0.35,0.43-0.35,0.72
	c0,0.29,0.14,0.53,0.43,0.71s0.74,0.33,1.37,0.45s1.18,0.26,1.66,0.42c1.59,0.55,2.38,1.53,2.38,2.94c0,0.96-0.43,1.75-1.28,2.35
	s-1.96,0.91-3.33,0.91c-0.91,0-1.71-0.16-2.42-0.49s-1.26-0.77-1.66-1.33s-0.6-1.15-0.6-1.77h3.08c0.01,0.49,0.18,0.84,0.49,1.07
	s0.71,0.34,1.2,0.34c0.45,0,0.79-0.09,1.01-0.27S452.62,37.17,452.62,36.87z M461.8,37.5c0.46,0,0.82-0.12,1.07-0.38
	s0.38-0.6,0.37-1.05h3.09c0,1.16-0.42,2.11-1.25,2.85s-1.9,1.11-3.21,1.11c-1.54,0-2.75-0.48-3.63-1.45s-1.33-2.3-1.33-4v-0.14
	c0-1.07,0.2-2.01,0.59-2.83s0.96-1.45,1.7-1.88s1.62-0.66,2.64-0.66c1.37,0,2.46,0.38,3.27,1.14s1.21,1.79,1.21,3.1h-3.09
	c0-0.55-0.13-0.97-0.4-1.26s-0.62-0.44-1.07-0.44c-0.85,0-1.35,0.54-1.49,1.63c-0.05,0.34-0.07,0.82-0.07,1.43
	c0,1.06,0.13,1.8,0.38,2.21S461.25,37.5,461.8,37.5z M467.31,34.46c0-1.05,0.21-1.99,0.62-2.82s1-1.46,1.77-1.9s1.67-0.66,2.71-0.66
	c1.58,0,2.83,0.49,3.74,1.47s1.37,2.31,1.37,4v0.12c0,1.65-0.46,2.95-1.37,3.92s-2.15,1.45-3.72,1.45c-1.5,0-2.71-0.45-3.62-1.35
	s-1.4-2.12-1.47-3.67L467.31,34.46z M470.6,34.67c0,0.98,0.15,1.69,0.46,2.15s0.76,0.68,1.36,0.68c1.17,0,1.77-0.9,1.8-2.71v-0.33
	c0-1.89-0.61-2.84-1.82-2.84c-1.1,0-1.7,0.82-1.79,2.45L470.6,34.67z M485.35,32.26l-1.08-0.08c-1.04,0-1.7,0.33-1.99,0.98v6.69
	h-3.29V29.28h3.09l0.11,1.36c0.55-1.04,1.33-1.55,2.31-1.55c0.35,0,0.66,0.04,0.92,0.12L485.35,32.26z M491.46,40.04
	c-1.62,0-2.93-0.48-3.94-1.45s-1.5-2.22-1.5-3.77v-0.27c0-1.08,0.2-2.03,0.6-2.86s0.98-1.47,1.75-1.92s1.68-0.68,2.73-0.68
	c1.48,0,2.66,0.46,3.52,1.38s1.29,2.21,1.29,3.85v1.28h-6.54c0.12,0.59,0.37,1.06,0.77,1.4s0.91,0.51,1.54,0.51
	c1.04,0,1.86-0.36,2.44-1.09l1.5,1.78c-0.41,0.57-0.99,1.02-1.74,1.35S492.33,40.04,491.46,40.04z M491.09,31.62
	c-0.96,0-1.54,0.64-1.72,1.91h3.32v-0.25c0.01-0.53-0.12-0.94-0.4-1.23S491.61,31.62,491.09,31.62z M502.77,36.87
	c0-0.28-0.15-0.5-0.44-0.67s-0.85-0.34-1.67-0.53s-1.5-0.42-2.03-0.72s-0.94-0.66-1.22-1.08s-0.42-0.91-0.42-1.46
	c0-0.97,0.4-1.77,1.2-2.4s1.85-0.94,3.14-0.94c1.39,0,2.51,0.32,3.36,0.95s1.27,1.46,1.27,2.49h-3.3c0-0.85-0.45-1.27-1.34-1.27
	c-0.34,0-0.63,0.1-0.87,0.29s-0.35,0.43-0.35,0.72c0,0.29,0.14,0.53,0.43,0.71s0.74,0.33,1.37,0.45s1.18,0.26,1.66,0.42
	c1.59,0.55,2.38,1.53,2.38,2.94c0,0.96-0.43,1.75-1.28,2.35s-1.96,0.91-3.33,0.91c-0.91,0-1.71-0.16-2.42-0.49s-1.26-0.77-1.66-1.33
	s-0.6-1.15-0.6-1.77h3.08c0.01,0.49,0.18,0.84,0.49,1.07s0.71,0.34,1.2,0.34c0.45,0,0.79-0.09,1.01-0.27S502.77,37.17,502.77,36.87z
	 M508.64,43.67l-1.66-0.78l0.33-0.66c0.46-0.85,0.69-1.65,0.71-2.42v-2.44h2.64l-0.01,2.12c-0.01,0.75-0.2,1.51-0.58,2.29
	S509.22,43.18,508.64,43.67z M235.57,56.26l-1.08-0.08c-1.04,0-1.7,0.33-1.99,0.98v6.69h-3.29V53.28h3.09l0.11,1.36
	c0.55-1.04,1.33-1.55,2.31-1.55c0.35,0,0.66,0.04,0.92,0.12L235.57,56.26z M241.68,64.04c-1.62,0-2.93-0.48-3.94-1.45
	s-1.5-2.22-1.5-3.77v-0.27c0-1.08,0.2-2.03,0.6-2.86s0.98-1.47,1.75-1.92s1.68-0.68,2.73-0.68c1.48,0,2.66,0.46,3.52,1.38
	s1.29,2.21,1.29,3.85v1.28h-6.54c0.12,0.59,0.37,1.06,0.77,1.4s0.91,0.51,1.54,0.51c1.04,0,1.86-0.36,2.44-1.09l1.5,1.78
	c-0.41,0.57-0.99,1.02-1.74,1.35S242.55,64.04,241.68,64.04z M241.31,55.62c-0.96,0-1.54,0.64-1.72,1.91h3.32v-0.25
	c0.01-0.53-0.12-0.94-0.4-1.23S241.83,55.62,241.31,55.62z M248.19,63.84v-8.28h-1.53v-2.29h1.53v-0.84c0-1.2,0.35-2.14,1.06-2.8
	s1.71-1,2.99-1c0.47,0,0.98,0.07,1.54,0.21l0.01,2.42c-0.2-0.06-0.47-0.09-0.81-0.09c-1,0-1.49,0.43-1.49,1.29v0.81h2.06v2.29h-2.06
	v8.28H248.19z M261.1,56.26l-1.08-0.08c-1.04,0-1.7,0.33-1.99,0.98v6.69h-3.29V53.28h3.09l0.11,1.36c0.55-1.04,1.33-1.55,2.31-1.55
	c0.35,0,0.66,0.04,0.92,0.12L261.1,56.26z M267.21,64.04c-1.62,0-2.93-0.48-3.94-1.45s-1.5-2.22-1.5-3.77v-0.27
	c0-1.08,0.2-2.03,0.6-2.86s0.98-1.47,1.75-1.92s1.68-0.68,2.73-0.68c1.48,0,2.66,0.46,3.52,1.38s1.29,2.21,1.29,3.85v1.28h-6.54
	c0.12,0.59,0.37,1.06,0.77,1.4s0.91,0.51,1.54,0.51c1.04,0,1.86-0.36,2.44-1.09l1.5,1.78c-0.41,0.57-0.99,1.02-1.74,1.35
	S268.08,64.04,267.21,64.04z M266.84,55.62c-0.96,0-1.54,0.64-1.72,1.91h3.32v-0.25c0.01-0.53-0.12-0.94-0.4-1.23
	S267.36,55.62,266.84,55.62z M278.52,60.87c0-0.28-0.15-0.5-0.44-0.67s-0.85-0.34-1.67-0.53s-1.5-0.42-2.03-0.72
	s-0.94-0.66-1.22-1.08s-0.42-0.91-0.42-1.46c0-0.97,0.4-1.77,1.2-2.4s1.85-0.94,3.14-0.94c1.39,0,2.51,0.32,3.36,0.95
	s1.27,1.46,1.27,2.49h-3.3c0-0.85-0.45-1.27-1.34-1.27c-0.34,0-0.63,0.1-0.87,0.29s-0.35,0.43-0.35,0.72c0,0.29,0.14,0.53,0.43,0.71
	s0.74,0.33,1.37,0.45s1.18,0.26,1.66,0.42c1.59,0.55,2.38,1.53,2.38,2.94c0,0.96-0.43,1.75-1.28,2.35s-1.96,0.91-3.33,0.91
	c-0.91,0-1.71-0.16-2.42-0.49s-1.26-0.77-1.66-1.33s-0.6-1.15-0.6-1.77h3.08c0.01,0.49,0.18,0.84,0.49,1.07s0.71,0.34,1.2,0.34
	c0.45,0,0.79-0.09,1.01-0.27S278.52,61.17,278.52,60.87z M286.45,54.41c0.7-0.89,1.6-1.33,2.7-1.33c1.17,0,2.04,0.34,2.64,1.04
	s0.9,1.71,0.91,3.06v6.67h-3.3v-6.59c0-0.56-0.11-0.97-0.34-1.24s-0.62-0.4-1.16-0.4c-0.68,0-1.16,0.21-1.44,0.64v7.58h-3.29v-15
	h3.29V54.41z M299.63,64.04c-1.62,0-2.93-0.48-3.94-1.45s-1.5-2.22-1.5-3.77v-0.27c0-1.08,0.2-2.03,0.6-2.86s0.98-1.47,1.75-1.92
	s1.68-0.68,2.73-0.68c1.48,0,2.66,0.46,3.52,1.38s1.29,2.21,1.29,3.85v1.28h-6.54c0.12,0.59,0.37,1.06,0.77,1.4s0.91,0.51,1.54,0.51
	c1.04,0,1.86-0.36,2.44-1.09l1.5,1.78c-0.41,0.57-0.99,1.02-1.74,1.35S300.5,64.04,299.63,64.04z M299.26,55.62
	c-0.96,0-1.54,0.64-1.72,1.91h3.32v-0.25c0.01-0.53-0.12-0.94-0.4-1.23S299.78,55.62,299.26,55.62z M304.99,58.48
	c0-1.67,0.36-2.99,1.08-3.96s1.73-1.45,3.03-1.45c0.94,0,1.74,0.37,2.38,1.11v-5.35h3.3v15h-2.96l-0.17-1.13
	c-0.68,0.89-1.54,1.33-2.58,1.33c-1.26,0-2.25-0.48-2.99-1.45S304.99,60.26,304.99,58.48z M308.29,58.69c0,1.88,0.55,2.81,1.64,2.81
	c0.73,0,1.25-0.31,1.56-0.92v-4.02c-0.3-0.62-0.81-0.94-1.54-0.94c-1.02,0-1.57,0.82-1.65,2.46L308.29,58.69z M323.75,56.35
	c-0.38-0.55-0.69-1.07-0.9-1.56s-0.33-1.01-0.33-1.53c0-1.15,0.37-2.07,1.11-2.78s1.71-1.06,2.91-1.06c1.07,0,1.96,0.33,2.67,0.98
	s1.05,1.47,1.05,2.44c0,1.21-0.67,2.29-2,3.22l-0.74,0.52l2.19,2.51c0.36-0.72,0.54-1.5,0.54-2.35h2.76c0,1.92-0.44,3.46-1.33,4.62
	l2.17,2.49h-3.67l-0.66-0.75c-0.55,0.33-1.11,0.57-1.67,0.72s-1.21,0.23-1.93,0.23c-1.41,0-2.53-0.37-3.38-1.11
	s-1.27-1.71-1.27-2.92c0-0.66,0.17-1.25,0.5-1.79s0.99-1.16,1.96-1.87L323.75,56.35z M326.13,61.51c0.57,0,1.12-0.13,1.64-0.4
	l-2.56-2.91l-0.09,0.06c-0.37,0.46-0.56,0.97-0.56,1.54c0,0.48,0.15,0.88,0.45,1.21S325.68,61.51,326.13,61.51z M325.37,53.22
	c0,0.46,0.25,1.01,0.74,1.66l0.65-0.41c0.3-0.2,0.52-0.4,0.65-0.61s0.21-0.47,0.21-0.79c0-0.3-0.1-0.56-0.31-0.78
	s-0.47-0.33-0.77-0.33c-0.36,0-0.65,0.12-0.86,0.35S325.37,52.84,325.37,53.22z M343.93,50.65v2.63h1.74v2.29h-1.74v4.83
	c0,0.4,0.07,0.67,0.21,0.83s0.43,0.23,0.85,0.23c0.33,0,0.6-0.02,0.82-0.06v2.35c-0.59,0.19-1.21,0.28-1.86,0.28
	c-1.13,0-1.97-0.27-2.51-0.8s-0.81-1.34-0.81-2.43v-5.24h-1.35v-2.29h1.35v-2.63H343.93z M353.35,56.26l-1.08-0.08
	c-1.04,0-1.7,0.33-1.99,0.98v6.69h-3.29V53.28h3.09l0.11,1.36c0.55-1.04,1.33-1.55,2.31-1.55c0.35,0,0.66,0.04,0.92,0.12
	L353.35,56.26z M360.2,63.84c-0.12-0.21-0.22-0.53-0.31-0.95c-0.61,0.76-1.45,1.14-2.54,1.14c-1,0-1.84-0.3-2.54-0.9
	s-1.04-1.36-1.04-2.27c0-1.15,0.42-2.01,1.27-2.6s2.08-0.88,3.69-0.88h1.02v-0.56c0-0.97-0.42-1.46-1.26-1.46
	c-0.78,0-1.17,0.39-1.17,1.16h-3.29c0-1.02,0.43-1.85,1.3-2.49c0.87-0.64,1.98-0.96,3.33-0.96s2.41,0.33,3.19,0.99
	s1.18,1.56,1.2,2.71v4.68c0.01,0.97,0.16,1.71,0.45,2.23v0.17H360.2z M358.14,61.7c0.41,0,0.75-0.09,1.02-0.26s0.46-0.37,0.58-0.6
	v-1.69h-0.96c-1.15,0-1.72,0.51-1.72,1.54c0,0.3,0.1,0.54,0.3,0.73S357.83,61.7,358.14,61.7z M369.33,61.5
	c0.46,0,0.82-0.12,1.07-0.38s0.38-0.6,0.37-1.05h3.09c0,1.16-0.42,2.11-1.25,2.85s-1.9,1.11-3.21,1.11c-1.54,0-2.75-0.48-3.63-1.45
	s-1.33-2.3-1.33-4v-0.14c0-1.07,0.2-2.01,0.59-2.83s0.96-1.45,1.7-1.88s1.62-0.66,2.64-0.66c1.37,0,2.46,0.38,3.27,1.14
	s1.21,1.79,1.21,3.1h-3.09c0-0.55-0.13-0.97-0.4-1.26s-0.62-0.44-1.07-0.44c-0.85,0-1.35,0.54-1.49,1.63
	c-0.05,0.34-0.07,0.82-0.07,1.43c0,1.06,0.13,1.8,0.38,2.21S368.78,61.5,369.33,61.5z M379.5,59.91l-0.93,0.93v3.01h-3.29V48.83
	h3.29v7.97l0.33-0.44l2.48-3.09h3.95l-3.7,4.35l3.95,6.22h-3.77L379.5,59.91z M391.11,64.04c-1.62,0-2.93-0.48-3.94-1.45
	s-1.5-2.22-1.5-3.77v-0.27c0-1.08,0.2-2.03,0.6-2.86s0.98-1.47,1.75-1.92s1.68-0.68,2.73-0.68c1.48,0,2.66,0.46,3.52,1.38
	s1.29,2.21,1.29,3.85v1.28h-6.54c0.12,0.59,0.37,1.06,0.77,1.4s0.91,0.51,1.54,0.51c1.04,0,1.86-0.36,2.44-1.09l1.5,1.78
	c-0.41,0.57-0.99,1.02-1.74,1.35S391.97,64.04,391.11,64.04z M390.74,55.62c-0.96,0-1.54,0.64-1.72,1.91h3.32v-0.25
	c0.01-0.53-0.12-0.94-0.4-1.23S391.26,55.62,390.74,55.62z M396.47,58.48c0-1.67,0.36-2.99,1.08-3.96s1.73-1.45,3.03-1.45
	c0.94,0,1.74,0.37,2.38,1.11v-5.35h3.3v15h-2.96l-0.17-1.13c-0.68,0.89-1.54,1.33-2.58,1.33c-1.26,0-2.25-0.48-2.99-1.45
	S396.47,60.26,396.47,58.48z M399.76,58.69c0,1.88,0.55,2.81,1.64,2.81c0.73,0,1.25-0.31,1.56-0.92v-4.02
	c-0.3-0.62-0.81-0.94-1.54-0.94c-1.02,0-1.57,0.82-1.65,2.46L399.76,58.69z M416.22,53.28l0.11,1.24c0.75-0.96,1.75-1.44,3.02-1.44
	c1.33,0,2.24,0.53,2.71,1.59c0.72-1.06,1.75-1.59,3.11-1.59c2.14,0,3.24,1.3,3.3,3.89v6.88h-3.3v-6.67c0-0.54-0.09-0.93-0.27-1.18
	s-0.51-0.37-1-0.37c-0.65,0-1.14,0.29-1.46,0.87l0.01,0.14v7.22h-3.3v-6.65c0-0.55-0.09-0.95-0.26-1.2s-0.51-0.37-1.01-0.37
	c-0.63,0-1.11,0.29-1.45,0.87v7.35h-3.29V53.28H416.22z M429.93,58.46c0-1.05,0.21-1.99,0.62-2.82s1-1.46,1.77-1.9
	s1.67-0.66,2.71-0.66c1.58,0,2.83,0.49,3.74,1.47s1.37,2.31,1.37,4v0.12c0,1.65-0.46,2.95-1.37,3.92s-2.15,1.45-3.72,1.45
	c-1.5,0-2.71-0.45-3.62-1.35s-1.4-2.12-1.47-3.67L429.93,58.46z M433.22,58.67c0,0.98,0.15,1.69,0.46,2.15s0.76,0.68,1.36,0.68
	c1.17,0,1.77-0.9,1.8-2.71v-0.33c0-1.89-0.61-2.84-1.82-2.84c-1.1,0-1.7,0.82-1.79,2.45L433.22,58.67z M444.59,53.28l0.11,1.24
	c0.73-0.96,1.74-1.44,3.02-1.44c1.1,0,1.92,0.33,2.47,0.99s0.83,1.65,0.84,2.97v6.81h-3.3v-6.67c0-0.53-0.11-0.93-0.32-1.18
	s-0.61-0.38-1.17-0.38c-0.64,0-1.12,0.25-1.44,0.76v7.46h-3.29V53.28H444.59z M456.68,50.65v2.63h1.74v2.29h-1.74v4.83
	c0,0.4,0.07,0.67,0.21,0.83s0.43,0.23,0.85,0.23c0.33,0,0.6-0.02,0.82-0.06v2.35c-0.59,0.19-1.21,0.28-1.86,0.28
	c-1.13,0-1.97-0.27-2.51-0.8s-0.81-1.34-0.81-2.43v-5.24h-1.35v-2.29h1.35v-2.63H456.68z M462.93,54.41c0.7-0.89,1.6-1.33,2.7-1.33
	c1.17,0,2.04,0.34,2.64,1.04s0.9,1.71,0.91,3.06v6.67h-3.3v-6.59c0-0.56-0.11-0.97-0.34-1.24s-0.62-0.4-1.16-0.4
	c-0.68,0-1.16,0.21-1.44,0.64v7.58h-3.29v-15h3.29V54.41z M474.48,63.84h-3.3v-15h3.3V63.84z M480.73,59.23l1.76-5.96h3.53
	l-4.31,12.33l-0.19,0.45c-0.61,1.37-1.69,2.05-3.24,2.05c-0.43,0-0.88-0.06-1.36-0.19v-2.34h0.43c0.46,0,0.82-0.07,1.06-0.2
	s0.42-0.37,0.54-0.72l0.26-0.7l-3.67-10.67h3.52L480.73,59.23z"/>
</svg>
