<?xml version="1.0" encoding="utf-8"?>
<!-- Generator: Adobe Illustrator 25.2.1, SVG Export Plug-In . SVG Version: 6.00 Build 0)  -->
<svg version="1.1" id="Layer_1" xmlns="http://www.w3.org/2000/svg" xmlns:xlink="http://www.w3.org/1999/xlink" x="0px" y="0px"
	 viewBox="0 0 728 90" style="enable-background:new 0 0 728 90;" xml:space="preserve">
<style type="text/css">
	.st0{fill:#021D8B;}
</style>
<g>
	<path class="st0" d="M274.04,40.59h-4.69v12.73h-3.77V40.59h-4.61v-2.91h13.07V40.59z"/>
	<path class="st0" d="M280.21,53.32c-0.13-0.24-0.24-0.58-0.34-1.04c-0.67,0.84-1.6,1.26-2.79,1.26c-1.1,0-2.03-0.33-2.79-0.99
		s-1.15-1.5-1.15-2.5c0-1.26,0.47-2.21,1.4-2.86s2.28-0.97,4.06-0.97h1.12v-0.62c0-1.07-0.46-1.61-1.39-1.61
		c-0.86,0-1.29,0.42-1.29,1.27h-3.62c0-1.12,0.48-2.04,1.43-2.74c0.96-0.7,2.17-1.05,3.66-1.05s2.65,0.36,3.51,1.08
		c0.86,0.72,1.3,1.72,1.32,2.98v5.15c0.01,1.07,0.18,1.88,0.49,2.45v0.18H280.21z M277.94,50.96c0.45,0,0.83-0.1,1.12-0.29
		c0.3-0.19,0.51-0.41,0.64-0.66v-1.86h-1.05c-1.26,0-1.89,0.57-1.89,1.7c0,0.33,0.11,0.6,0.33,0.8
		C277.31,50.86,277.6,50.96,277.94,50.96z"/>
	<path class="st0" d="M290.05,44.9l1.69-3.2h3.76l-3.06,5.66l3.21,5.96h-3.78l-1.83-3.44l-1.79,3.44h-3.8l3.22-5.96l-3.05-5.66h3.8
		L290.05,44.9z"/>
	<path class="st0" d="M302.3,53.32V37.68h5.04c1.38,0,2.62,0.31,3.73,0.94c1.1,0.63,1.96,1.51,2.58,2.65
		c0.62,1.14,0.93,2.42,0.94,3.84v0.72c0,1.43-0.3,2.72-0.91,3.85c-0.6,1.13-1.46,2.02-2.56,2.66c-1.1,0.64-2.33,0.96-3.68,0.97
		H302.3z M306.07,40.59v9.83h1.31c1.08,0,1.91-0.38,2.49-1.16c0.58-0.77,0.87-1.91,0.87-3.43v-0.68c0-1.51-0.29-2.65-0.87-3.42
		c-0.58-0.77-1.42-1.15-2.54-1.15H306.07z"/>
	<path class="st0" d="M322.91,53.32c-0.13-0.24-0.24-0.58-0.34-1.04c-0.67,0.84-1.6,1.26-2.79,1.26c-1.1,0-2.03-0.33-2.79-0.99
		s-1.15-1.5-1.15-2.5c0-1.26,0.47-2.21,1.4-2.86s2.28-0.97,4.06-0.97h1.12v-0.62c0-1.07-0.46-1.61-1.39-1.61
		c-0.86,0-1.29,0.42-1.29,1.27h-3.62c0-1.12,0.48-2.04,1.43-2.74c0.96-0.7,2.17-1.05,3.66-1.05s2.65,0.36,3.51,1.08
		c0.86,0.72,1.3,1.72,1.32,2.98v5.15c0.01,1.07,0.18,1.88,0.49,2.45v0.18H322.91z M320.64,50.96c0.45,0,0.83-0.1,1.12-0.29
		c0.3-0.19,0.51-0.41,0.64-0.66v-1.86h-1.05c-1.26,0-1.89,0.57-1.89,1.7c0,0.33,0.11,0.6,0.33,0.8
		C320.01,50.86,320.3,50.96,320.64,50.96z"/>
	<path class="st0" d="M332.68,48.25l1.93-6.55h3.88l-4.74,13.57l-0.2,0.49c-0.67,1.5-1.86,2.26-3.57,2.26
		c-0.47,0-0.97-0.07-1.49-0.21v-2.58h0.47c0.51,0,0.9-0.07,1.17-0.22c0.27-0.15,0.47-0.41,0.6-0.79l0.29-0.77l-4.04-11.74h3.87
		L332.68,48.25z"/>
	<path class="st0" d="M344.89,38.7c0-0.52,0.19-0.94,0.56-1.27c0.37-0.33,0.86-0.49,1.45-0.49s1.08,0.17,1.45,0.49
		c0.37,0.33,0.56,0.75,0.56,1.27s-0.19,0.94-0.56,1.27c-0.37,0.33-0.86,0.49-1.45,0.49s-1.08-0.16-1.45-0.49
		C345.07,39.64,344.89,39.22,344.89,38.7z M348.73,53.32h-3.63V41.7h3.63V53.32z"/>
	<path class="st0" d="M357.05,50.06c0-0.31-0.16-0.55-0.48-0.74c-0.32-0.19-0.93-0.38-1.84-0.58c-0.9-0.2-1.65-0.46-2.23-0.79
		s-1.04-0.72-1.34-1.19c-0.31-0.46-0.46-1-0.46-1.6c0-1.07,0.44-1.95,1.32-2.64c0.88-0.69,2.03-1.04,3.46-1.04
		c1.53,0,2.76,0.35,3.7,1.04c0.93,0.69,1.4,1.61,1.4,2.74h-3.63c0-0.93-0.49-1.4-1.47-1.4c-0.38,0-0.7,0.11-0.96,0.32
		c-0.26,0.21-0.39,0.47-0.39,0.79c0,0.32,0.16,0.58,0.47,0.78c0.32,0.2,0.82,0.37,1.51,0.49c0.69,0.13,1.3,0.28,1.82,0.46
		c1.75,0.6,2.62,1.68,2.62,3.23c0,1.06-0.47,1.92-1.41,2.59c-0.94,0.67-2.16,1-3.66,1c-1,0-1.88-0.18-2.66-0.54
		s-1.39-0.84-1.83-1.46s-0.66-1.26-0.66-1.94h3.38c0.01,0.54,0.19,0.93,0.54,1.18c0.34,0.25,0.78,0.37,1.32,0.37
		c0.49,0,0.86-0.1,1.11-0.3C356.92,50.64,357.05,50.38,357.05,50.06z"/>
	<path class="st0" d="M374.25,53.32c-0.13-0.24-0.24-0.58-0.34-1.04c-0.67,0.84-1.6,1.26-2.79,1.26c-1.1,0-2.03-0.33-2.79-0.99
		s-1.15-1.5-1.15-2.5c0-1.26,0.47-2.21,1.4-2.86s2.28-0.97,4.06-0.97h1.12v-0.62c0-1.07-0.46-1.61-1.39-1.61
		c-0.86,0-1.29,0.42-1.29,1.27h-3.62c0-1.12,0.48-2.04,1.43-2.74c0.96-0.7,2.17-1.05,3.66-1.05s2.65,0.36,3.51,1.08
		c0.86,0.72,1.3,1.72,1.32,2.98v5.15c0.01,1.07,0.18,1.88,0.49,2.45v0.18H374.25z M371.99,50.96c0.45,0,0.83-0.1,1.12-0.29
		c0.3-0.19,0.51-0.41,0.64-0.66v-1.86h-1.05c-1.26,0-1.89,0.57-1.89,1.7c0,0.33,0.11,0.6,0.33,0.8
		C371.36,50.86,371.64,50.96,371.99,50.96z"/>
	<path class="st0" d="M390.17,47.6c0,1.8-0.41,3.25-1.22,4.32c-0.81,1.08-1.91,1.62-3.29,1.62c-1.07,0-1.94-0.39-2.63-1.17v5.42
		h-3.62V41.7h3.38l0.11,1.07c0.69-0.86,1.61-1.29,2.74-1.29c1.43,0,2.55,0.53,3.34,1.58c0.79,1.06,1.19,2.51,1.19,4.36V47.6z
		 M386.55,47.37c0-2.06-0.6-3.09-1.8-3.09c-0.86,0-1.43,0.31-1.72,0.92v4.58c0.32,0.64,0.9,0.97,1.74,0.97c1.15,0,1.75-1,1.78-2.99
		V47.37z"/>
	<path class="st0" d="M402.56,47.6c0,1.8-0.41,3.25-1.22,4.32c-0.81,1.08-1.91,1.62-3.29,1.62c-1.07,0-1.94-0.39-2.63-1.17v5.42
		h-3.62V41.7h3.38l0.11,1.07c0.69-0.86,1.61-1.29,2.74-1.29c1.43,0,2.55,0.53,3.34,1.58c0.79,1.06,1.19,2.51,1.19,4.36V47.6z
		 M398.94,47.37c0-2.06-0.6-3.09-1.8-3.09c-0.86,0-1.43,0.31-1.72,0.92v4.58c0.32,0.64,0.9,0.97,1.74,0.97c1.15,0,1.75-1,1.78-2.99
		V47.37z"/>
	<path class="st0" d="M411.19,44.98l-1.19-0.09c-1.14,0-1.87,0.36-2.19,1.07v7.36h-3.62V41.7h3.39l0.12,1.49
		c0.61-1.14,1.46-1.71,2.55-1.71c0.39,0,0.72,0.04,1.01,0.13L411.19,44.98z"/>
	<path class="st0" d="M411.65,47.4c0-1.16,0.23-2.19,0.68-3.1c0.45-0.91,1.1-1.6,1.94-2.09c0.84-0.49,1.84-0.73,2.98-0.73
		c1.74,0,3.11,0.54,4.11,1.62c1,1.08,1.5,2.54,1.5,4.4v0.13c0,1.81-0.5,3.25-1.51,4.31c-1.01,1.06-2.37,1.59-4.09,1.59
		c-1.65,0-2.98-0.5-3.99-1.49s-1.54-2.34-1.62-4.03L411.65,47.4z M415.27,47.63c0,1.07,0.17,1.86,0.5,2.36s0.83,0.75,1.49,0.75
		c1.29,0,1.95-0.99,1.98-2.98V47.4c0-2.08-0.67-3.13-2-3.13c-1.21,0-1.87,0.9-1.97,2.7L415.27,47.63z"/>
	<path class="st0" d="M431,53.32c-0.13-0.24-0.24-0.58-0.34-1.04c-0.67,0.84-1.6,1.26-2.79,1.26c-1.1,0-2.03-0.33-2.79-0.99
		s-1.15-1.5-1.15-2.5c0-1.26,0.47-2.21,1.4-2.86s2.28-0.97,4.06-0.97h1.12v-0.62c0-1.07-0.46-1.61-1.39-1.61
		c-0.86,0-1.29,0.42-1.29,1.27h-3.62c0-1.12,0.48-2.04,1.43-2.74c0.96-0.7,2.17-1.05,3.66-1.05s2.65,0.36,3.51,1.08
		c0.86,0.72,1.3,1.72,1.32,2.98v5.15c0.01,1.07,0.18,1.88,0.49,2.45v0.18H431z M428.74,50.96c0.45,0,0.83-0.1,1.12-0.29
		c0.3-0.19,0.51-0.41,0.64-0.66v-1.86h-1.05c-1.26,0-1.89,0.57-1.89,1.7c0,0.33,0.11,0.6,0.33,0.8
		C428.11,50.86,428.39,50.96,428.74,50.96z"/>
	<path class="st0" d="M441.05,50.75c0.51,0,0.9-0.14,1.18-0.41s0.42-0.66,0.41-1.16h3.39c0,1.27-0.46,2.32-1.37,3.14
		c-0.91,0.82-2.09,1.22-3.53,1.22c-1.69,0-3.02-0.53-4-1.59s-1.46-2.53-1.46-4.4v-0.15c0-1.17,0.22-2.21,0.65-3.11
		c0.43-0.9,1.06-1.59,1.87-2.07s1.78-0.73,2.9-0.73c1.51,0,2.71,0.42,3.6,1.26s1.33,1.97,1.33,3.41h-3.39c0-0.6-0.15-1.06-0.44-1.39
		s-0.69-0.48-1.18-0.48c-0.94,0-1.49,0.6-1.64,1.79c-0.05,0.38-0.08,0.9-0.08,1.57c0,1.17,0.14,1.98,0.42,2.43
		S440.44,50.75,441.05,50.75z"/>
	<path class="st0" d="M451.1,42.95c0.77-0.97,1.76-1.46,2.96-1.46c1.28,0,2.25,0.38,2.9,1.14c0.65,0.76,0.98,1.88,1,3.36v7.34h-3.63
		v-7.25c0-0.62-0.12-1.07-0.38-1.36s-0.68-0.44-1.28-0.44c-0.75,0-1.27,0.24-1.58,0.71v8.34h-3.62v-16.5h3.62V42.95z"/>
	<path class="st0" d="M459.96,38.7c0-0.52,0.19-0.94,0.56-1.27c0.37-0.33,0.86-0.49,1.45-0.49s1.08,0.17,1.45,0.49
		c0.37,0.33,0.56,0.75,0.56,1.27s-0.19,0.94-0.56,1.27c-0.37,0.33-0.86,0.49-1.45,0.49s-1.08-0.16-1.45-0.49
		C460.14,39.64,459.96,39.22,459.96,38.7z M463.8,53.32h-3.63V41.7h3.63V53.32z"/>
	<path class="st0" d="M469.35,41.7l0.12,1.36c0.8-1.05,1.91-1.58,3.32-1.58c1.21,0,2.11,0.36,2.71,1.08
		c0.6,0.72,0.91,1.81,0.93,3.27v7.49h-3.63v-7.34c0-0.59-0.12-1.02-0.35-1.29c-0.24-0.28-0.67-0.41-1.29-0.41
		c-0.71,0-1.24,0.28-1.58,0.84v8.21h-3.62V41.7H469.35z"/>
	<path class="st0" d="M478.01,47.43c0-1.17,0.19-2.21,0.58-3.12s0.94-1.6,1.67-2.09c0.72-0.49,1.56-0.74,2.52-0.74
		c1.21,0,2.16,0.41,2.84,1.22l0.13-1.01h3.29v11.18c0,1.02-0.24,1.91-0.71,2.67c-0.48,0.75-1.17,1.33-2.07,1.74
		c-0.9,0.4-1.95,0.61-3.14,0.61c-0.85,0-1.68-0.16-2.48-0.48c-0.8-0.32-1.41-0.74-1.83-1.26l1.51-2.13
		c0.67,0.79,1.56,1.19,2.66,1.19c1.6,0,2.41-0.82,2.41-2.47v-0.37c-0.69,0.77-1.57,1.15-2.63,1.15c-1.42,0-2.56-0.54-3.44-1.63
		c-0.87-1.08-1.31-2.54-1.31-4.36V47.43z M481.64,47.65c0,0.95,0.18,1.71,0.54,2.26c0.36,0.56,0.86,0.83,1.5,0.83
		c0.78,0,1.35-0.26,1.71-0.78v-4.89c-0.35-0.53-0.91-0.79-1.69-0.79c-0.64,0-1.15,0.29-1.51,0.86
		C481.83,45.72,481.64,46.56,481.64,47.65z"/>
	<path class="st0" d="M493.33,49.81c0.57,0,1.05,0.17,1.43,0.51c0.38,0.34,0.57,0.78,0.57,1.31s-0.19,0.97-0.57,1.31
		s-0.86,0.51-1.43,0.51c-0.58,0-1.06-0.17-1.43-0.52c-0.38-0.34-0.56-0.78-0.56-1.3s0.19-0.96,0.56-1.3
		C492.27,49.98,492.75,49.81,493.33,49.81z"/>
	<path class="st0" d="M499.98,49.81c0.57,0,1.05,0.17,1.43,0.51c0.38,0.34,0.57,0.78,0.57,1.31s-0.19,0.97-0.57,1.31
		s-0.86,0.51-1.43,0.51c-0.58,0-1.06-0.17-1.43-0.52c-0.38-0.34-0.56-0.78-0.56-1.3s0.19-0.96,0.56-1.3
		C498.92,49.98,499.4,49.81,499.98,49.81z"/>
	<path class="st0" d="M506.63,49.81c0.57,0,1.05,0.17,1.43,0.51c0.38,0.34,0.57,0.78,0.57,1.31s-0.19,0.97-0.57,1.31
		s-0.86,0.51-1.43,0.51c-0.58,0-1.06-0.17-1.43-0.52c-0.38-0.34-0.56-0.78-0.56-1.3s0.19-0.96,0.56-1.3
		C505.57,49.98,506.05,49.81,506.63,49.81z"/>
</g>
</svg>
