<?xml version="1.0" encoding="utf-8"?>
<!-- Generator: Adobe Illustrator 25.2.1, SVG Export Plug-In . SVG Version: 6.00 Build 0)  -->
<svg version="1.1" id="Layer_1" xmlns="http://www.w3.org/2000/svg" xmlns:xlink="http://www.w3.org/1999/xlink" x="0px" y="0px"
	 viewBox="0 0 728 90" style="enable-background:new 0 0 728 90;" xml:space="preserve">
<style type="text/css">
	.st0{fill:#021D8B;}
</style>
<g>
	<path class="st0" d="M193.48,34.46h-3.76V18.81h3.76V34.46z"/>
	<path class="st0" d="M200.15,19.94v2.89h1.91v2.51h-1.91v5.32c0,0.44,0.08,0.74,0.24,0.91s0.47,0.26,0.93,0.26
		c0.36,0,0.66-0.02,0.9-0.06v2.59c-0.65,0.21-1.33,0.31-2.04,0.31c-1.25,0-2.17-0.29-2.76-0.88c-0.59-0.59-0.89-1.48-0.89-2.67
		v-5.77h-1.48v-2.51h1.48v-2.89H200.15z"/>
	<path class="st0" d="M205.51,19.7l-0.35,4.44h-2.22v-6.18h2.58V19.7z"/>
	<path class="st0" d="M211.98,31.19c0-0.31-0.16-0.55-0.48-0.74c-0.32-0.19-0.93-0.38-1.84-0.58c-0.9-0.2-1.65-0.46-2.23-0.79
		c-0.59-0.33-1.04-0.72-1.34-1.19c-0.31-0.47-0.46-1-0.46-1.6c0-1.07,0.44-1.95,1.32-2.64c0.88-0.69,2.03-1.04,3.46-1.04
		c1.53,0,2.76,0.35,3.7,1.04c0.93,0.69,1.4,1.61,1.4,2.74h-3.63c0-0.93-0.49-1.4-1.47-1.4c-0.38,0-0.7,0.11-0.96,0.32
		c-0.26,0.21-0.39,0.47-0.39,0.79c0,0.32,0.16,0.58,0.47,0.78c0.32,0.2,0.82,0.37,1.51,0.49c0.69,0.13,1.3,0.28,1.82,0.46
		c1.75,0.6,2.62,1.68,2.62,3.23c0,1.06-0.47,1.92-1.41,2.59c-0.94,0.67-2.16,1-3.66,1c-1,0-1.88-0.18-2.66-0.54
		s-1.39-0.84-1.83-1.46c-0.44-0.62-0.66-1.26-0.66-1.94h3.38c0.01,0.54,0.19,0.93,0.54,1.18s0.78,0.37,1.32,0.37
		c0.49,0,0.86-0.1,1.11-0.3C211.85,31.77,211.98,31.51,211.98,31.19z"/>
	<path class="st0" d="M226.86,19.94v2.89h1.91v2.51h-1.91v5.32c0,0.44,0.08,0.74,0.24,0.91s0.47,0.26,0.93,0.26
		c0.36,0,0.66-0.02,0.9-0.06v2.59c-0.65,0.21-1.33,0.31-2.04,0.31c-1.25,0-2.17-0.29-2.76-0.88c-0.59-0.59-0.89-1.48-0.89-2.67
		v-5.77h-1.48v-2.51h1.48v-2.89H226.86z"/>
	<path class="st0" d="M230.17,19.84c0-0.52,0.19-0.94,0.56-1.27c0.37-0.33,0.86-0.49,1.45-0.49s1.08,0.17,1.45,0.49
		c0.37,0.33,0.56,0.75,0.56,1.27s-0.19,0.94-0.56,1.27c-0.37,0.33-0.86,0.49-1.45,0.49s-1.08-0.16-1.45-0.49
		C230.35,20.77,230.17,20.35,230.17,19.84z M234.01,34.46h-3.63V22.83h3.63V34.46z"/>
	<path class="st0" d="M239.66,22.83l0.12,1.36c0.82-1.05,1.93-1.58,3.32-1.58c1.47,0,2.46,0.58,2.98,1.75
		c0.79-1.17,1.93-1.75,3.42-1.75c2.36,0,3.57,1.43,3.63,4.28v7.56h-3.63v-7.34c0-0.59-0.1-1.03-0.3-1.3
		c-0.2-0.27-0.57-0.41-1.1-0.41c-0.72,0-1.25,0.32-1.6,0.96l0.01,0.15v7.94h-3.63v-7.32c0-0.61-0.1-1.05-0.29-1.32
		c-0.19-0.27-0.56-0.41-1.11-0.41c-0.69,0-1.22,0.32-1.59,0.96v8.09h-3.62V22.83H239.66z"/>
	<path class="st0" d="M260.81,34.67c-1.78,0-3.23-0.53-4.33-1.6s-1.65-2.45-1.65-4.15v-0.3c0-1.19,0.22-2.24,0.66-3.15
		c0.44-0.91,1.08-1.61,1.93-2.11c0.84-0.5,1.85-0.75,3.01-0.75c1.63,0,2.92,0.51,3.87,1.52c0.95,1.01,1.42,2.43,1.42,4.24v1.41h-7.2
		c0.13,0.65,0.41,1.16,0.85,1.54c0.44,0.37,1,0.56,1.7,0.56c1.15,0,2.04-0.4,2.69-1.2l1.65,1.96c-0.45,0.62-1.09,1.12-1.92,1.49
		C262.65,34.49,261.76,34.67,260.81,34.67z M260.4,25.41c-1.06,0-1.69,0.7-1.89,2.11h3.65v-0.28c0.01-0.58-0.13-1.03-0.44-1.35
		C261.42,25.57,260.98,25.41,260.4,25.41z"/>
	<path class="st0" d="M276.86,19.94v2.89h1.91v2.51h-1.91v5.32c0,0.44,0.08,0.74,0.24,0.91s0.47,0.26,0.93,0.26
		c0.36,0,0.66-0.02,0.9-0.06v2.59c-0.65,0.21-1.33,0.31-2.04,0.31c-1.25,0-2.17-0.29-2.76-0.88c-0.59-0.59-0.89-1.48-0.89-2.67
		v-5.77h-1.48v-2.51h1.48v-2.89H276.86z"/>
	<path class="st0" d="M279.42,28.54c0-1.16,0.23-2.19,0.68-3.1c0.45-0.91,1.1-1.6,1.94-2.09c0.84-0.49,1.84-0.73,2.98-0.73
		c1.74,0,3.11,0.54,4.11,1.62c1,1.08,1.5,2.54,1.5,4.4v0.13c0,1.81-0.5,3.25-1.51,4.31c-1.01,1.06-2.37,1.6-4.09,1.6
		c-1.65,0-2.98-0.5-3.99-1.49c-1-0.99-1.54-2.34-1.62-4.03L279.42,28.54z M283.04,28.76c0,1.07,0.17,1.86,0.5,2.36
		c0.34,0.5,0.83,0.75,1.49,0.75c1.29,0,1.95-0.99,1.98-2.98v-0.37c0-2.08-0.67-3.13-2-3.13c-1.21,0-1.87,0.9-1.97,2.7L283.04,28.76z
		"/>
	<path class="st0" d="M302.37,30.13l-1.02,1.02v3.31h-3.62V17.94h3.62v8.77l0.37-0.48l2.73-3.39h4.34l-4.07,4.78l4.34,6.84h-4.15
		L302.37,30.13z"/>
	<path class="st0" d="M315.36,34.67c-1.78,0-3.23-0.53-4.33-1.6s-1.65-2.45-1.65-4.15v-0.3c0-1.19,0.22-2.24,0.66-3.15
		c0.44-0.91,1.08-1.61,1.93-2.11c0.84-0.5,1.85-0.75,3.01-0.75c1.63,0,2.92,0.51,3.87,1.52c0.95,1.01,1.42,2.43,1.42,4.24v1.41h-7.2
		c0.13,0.65,0.41,1.16,0.85,1.54c0.44,0.37,1,0.56,1.7,0.56c1.15,0,2.04-0.4,2.69-1.2l1.65,1.96c-0.45,0.62-1.09,1.12-1.92,1.49
		C317.2,34.49,316.31,34.67,315.36,34.67z M314.95,25.41c-1.06,0-1.69,0.7-1.89,2.11h3.65v-0.28c0.01-0.58-0.13-1.03-0.44-1.35
		C315.97,25.57,315.53,25.41,314.95,25.41z"/>
	<path class="st0" d="M327.34,34.67c-1.78,0-3.23-0.53-4.33-1.6s-1.65-2.45-1.65-4.15v-0.3c0-1.19,0.22-2.24,0.66-3.15
		c0.44-0.91,1.08-1.61,1.93-2.11c0.84-0.5,1.85-0.75,3.01-0.75c1.63,0,2.92,0.51,3.87,1.52c0.95,1.01,1.42,2.43,1.42,4.24v1.41h-7.2
		c0.13,0.65,0.41,1.16,0.85,1.54c0.44,0.37,1,0.56,1.7,0.56c1.15,0,2.04-0.4,2.69-1.2l1.65,1.96c-0.45,0.62-1.09,1.12-1.92,1.49
		C329.18,34.49,328.29,34.67,327.34,34.67z M326.93,25.41c-1.06,0-1.69,0.7-1.89,2.11h3.65v-0.28c0.01-0.58-0.13-1.03-0.44-1.35
		C327.94,25.57,327.5,25.41,326.93,25.41z"/>
	<path class="st0" d="M344.48,28.73c0,1.8-0.41,3.25-1.22,4.32c-0.81,1.08-1.91,1.62-3.29,1.62c-1.07,0-1.94-0.39-2.63-1.17v5.42
		h-3.62V22.83h3.38l0.11,1.07c0.69-0.86,1.61-1.29,2.74-1.29c1.43,0,2.55,0.53,3.34,1.58c0.79,1.06,1.19,2.51,1.19,4.36V28.73z
		 M340.86,28.5c0-2.06-0.6-3.09-1.8-3.09c-0.86,0-1.43,0.31-1.72,0.92v4.58c0.32,0.64,0.9,0.97,1.74,0.97c1.15,0,1.75-1,1.78-2.99
		V28.5z"/>
	<path class="st0" d="M358.1,34.46c-0.13-0.24-0.24-0.58-0.34-1.04c-0.67,0.84-1.6,1.26-2.79,1.26c-1.1,0-2.03-0.33-2.79-0.99
		c-0.77-0.66-1.15-1.49-1.15-2.5c0-1.26,0.47-2.21,1.4-2.86s2.28-0.97,4.06-0.97h1.12v-0.62c0-1.07-0.46-1.61-1.39-1.61
		c-0.86,0-1.29,0.42-1.29,1.27h-3.62c0-1.12,0.48-2.04,1.43-2.74c0.96-0.7,2.17-1.05,3.66-1.05s2.65,0.36,3.51,1.08
		c0.86,0.72,1.3,1.72,1.32,2.98v5.15c0.01,1.07,0.18,1.88,0.49,2.45v0.18H358.1z M355.84,32.09c0.45,0,0.83-0.1,1.12-0.29
		c0.3-0.19,0.51-0.41,0.64-0.66v-1.86h-1.05c-1.26,0-1.89,0.57-1.89,1.7c0,0.33,0.11,0.6,0.33,0.8S355.49,32.09,355.84,32.09z"/>
	<path class="st0" d="M366.56,22.83l0.12,1.36c0.8-1.05,1.91-1.58,3.32-1.58c1.21,0,2.11,0.36,2.71,1.08
		c0.6,0.72,0.91,1.81,0.93,3.27v7.49h-3.63v-7.34c0-0.59-0.12-1.02-0.35-1.29c-0.24-0.28-0.67-0.41-1.29-0.41
		c-0.71,0-1.24,0.28-1.58,0.84v8.21h-3.62V22.83H366.56z"/>
	<path class="st0" d="M386.74,34.67c-1.78,0-3.23-0.53-4.33-1.6s-1.65-2.45-1.65-4.15v-0.3c0-1.19,0.22-2.24,0.66-3.15
		c0.44-0.91,1.08-1.61,1.93-2.11c0.84-0.5,1.85-0.75,3.01-0.75c1.63,0,2.92,0.51,3.87,1.52c0.95,1.01,1.42,2.43,1.42,4.24v1.41h-7.2
		c0.13,0.65,0.41,1.16,0.85,1.54c0.44,0.37,1,0.56,1.7,0.56c1.15,0,2.04-0.4,2.69-1.2l1.65,1.96c-0.45,0.62-1.09,1.12-1.92,1.49
		C388.58,34.49,387.7,34.67,386.74,34.67z M386.33,25.41c-1.06,0-1.69,0.7-1.89,2.11h3.65v-0.28c0.01-0.58-0.13-1.03-0.44-1.35
		C387.35,25.57,386.91,25.41,386.33,25.41z"/>
	<path class="st0" d="M397.74,29.39l1.93-6.55h3.88l-4.74,13.57l-0.2,0.49c-0.67,1.5-1.86,2.26-3.57,2.26
		c-0.47,0-0.97-0.07-1.49-0.21v-2.58h0.47c0.51,0,0.9-0.07,1.17-0.22c0.27-0.15,0.47-0.41,0.6-0.79l0.29-0.77l-4.04-11.74h3.87
		L397.74,29.39z"/>
	<path class="st0" d="M410.12,34.67c-1.78,0-3.23-0.53-4.33-1.6s-1.65-2.45-1.65-4.15v-0.3c0-1.19,0.22-2.24,0.66-3.15
		c0.44-0.91,1.08-1.61,1.93-2.11c0.84-0.5,1.85-0.75,3.01-0.75c1.63,0,2.92,0.51,3.87,1.52c0.95,1.01,1.42,2.43,1.42,4.24v1.41h-7.2
		c0.13,0.65,0.41,1.16,0.85,1.54c0.44,0.37,1,0.56,1.7,0.56c1.15,0,2.04-0.4,2.69-1.2l1.65,1.96c-0.45,0.62-1.09,1.12-1.92,1.49
		C411.96,34.49,411.07,34.67,410.12,34.67z M409.71,25.41c-1.06,0-1.69,0.7-1.89,2.11h3.65v-0.28c0.01-0.58-0.13-1.03-0.44-1.35
		C410.72,25.57,410.28,25.41,409.71,25.41z"/>
	<path class="st0" d="M421.49,28.54c0-1.16,0.23-2.19,0.68-3.1c0.45-0.91,1.1-1.6,1.94-2.09c0.84-0.49,1.84-0.73,2.98-0.73
		c1.74,0,3.11,0.54,4.11,1.62c1,1.08,1.5,2.54,1.5,4.4v0.13c0,1.81-0.5,3.25-1.51,4.31c-1.01,1.06-2.37,1.6-4.09,1.6
		c-1.65,0-2.98-0.5-3.99-1.49c-1-0.99-1.54-2.34-1.62-4.03L421.49,28.54z M425.11,28.76c0,1.07,0.17,1.86,0.5,2.36
		c0.34,0.5,0.83,0.75,1.49,0.75c1.29,0,1.95-0.99,1.98-2.98v-0.37c0-2.08-0.67-3.13-2-3.13c-1.21,0-1.87,0.9-1.97,2.7L425.11,28.76z
		"/>
	<path class="st0" d="M437.63,22.83l0.12,1.36c0.8-1.05,1.91-1.58,3.32-1.58c1.21,0,2.11,0.36,2.71,1.08
		c0.6,0.72,0.91,1.81,0.93,3.27v7.49h-3.63v-7.34c0-0.59-0.12-1.02-0.35-1.29c-0.24-0.28-0.67-0.41-1.29-0.41
		c-0.71,0-1.24,0.28-1.58,0.84v8.21h-3.62V22.83H437.63z"/>
	<path class="st0" d="M193.94,55.79l1.93-6.55h3.88l-4.74,13.57l-0.2,0.49c-0.67,1.5-1.86,2.26-3.57,2.26
		c-0.47,0-0.97-0.07-1.49-0.21v-2.58h0.47c0.51,0,0.9-0.07,1.17-0.22c0.27-0.15,0.47-0.41,0.6-0.79l0.29-0.77l-4.04-11.74h3.87
		L193.94,55.79z"/>
	<path class="st0" d="M200.24,54.94c0-1.16,0.23-2.19,0.68-3.1s1.1-1.6,1.94-2.09c0.84-0.49,1.84-0.73,2.98-0.73
		c1.74,0,3.11,0.54,4.11,1.62s1.5,2.54,1.5,4.4v0.13c0,1.81-0.5,3.25-1.51,4.31c-1.01,1.06-2.37,1.6-4.09,1.6
		c-1.65,0-2.98-0.5-3.99-1.49c-1-0.99-1.54-2.34-1.62-4.03L200.24,54.94z M203.86,55.16c0,1.07,0.17,1.86,0.5,2.36
		c0.34,0.5,0.83,0.75,1.49,0.75c1.29,0,1.95-0.99,1.98-2.98v-0.37c0-2.08-0.67-3.13-2-3.13c-1.21,0-1.87,0.9-1.97,2.7L203.86,55.16z
		"/>
	<path class="st0" d="M219.97,59.6c-0.77,0.98-1.8,1.47-3.1,1.47c-1.27,0-2.24-0.37-2.89-1.11c-0.66-0.74-0.98-1.81-0.98-3.2v-7.53
		h3.62v7.55c0,1,0.48,1.49,1.45,1.49c0.83,0,1.42-0.3,1.77-0.89v-8.15h3.64v11.62h-3.39L219.97,59.6z"/>
	<path class="st0" d="M232.49,52.51l-1.19-0.09c-1.14,0-1.87,0.36-2.19,1.07v7.36h-3.62V49.23h3.39l0.12,1.49
		c0.61-1.14,1.46-1.71,2.55-1.71c0.39,0,0.72,0.04,1.01,0.13L232.49,52.51z"/>
	<path class="st0" d="M239.24,46.24c0-0.52,0.19-0.94,0.56-1.27c0.37-0.33,0.86-0.49,1.45-0.49s1.08,0.17,1.45,0.49
		c0.37,0.33,0.56,0.75,0.56,1.27s-0.19,0.94-0.56,1.27S241.85,48,241.25,48s-1.08-0.17-1.45-0.49S239.24,46.75,239.24,46.24z
		 M243.09,60.86h-3.63V49.23h3.63V60.86z"/>
	<path class="st0" d="M244.86,54.96c0-1.84,0.4-3.29,1.19-4.35c0.79-1.06,1.91-1.59,3.33-1.59c1.04,0,1.91,0.41,2.62,1.22v-5.89
		h3.63v16.5h-3.25l-0.18-1.25c-0.75,0.97-1.69,1.46-2.84,1.46c-1.38,0-2.48-0.53-3.29-1.59C245.26,58.42,244.86,56.91,244.86,54.96z
		 M248.48,55.18c0,2.06,0.6,3.09,1.8,3.09c0.8,0,1.38-0.34,1.72-1.01v-4.43c-0.33-0.69-0.9-1.03-1.7-1.03
		c-1.12,0-1.72,0.9-1.82,2.71L248.48,55.18z"/>
	<path class="st0" d="M263.32,61.07c-1.78,0-3.23-0.53-4.33-1.6c-1.1-1.06-1.65-2.45-1.65-4.15v-0.3c0-1.19,0.22-2.24,0.66-3.15
		c0.44-0.91,1.08-1.61,1.93-2.11c0.84-0.5,1.85-0.75,3.01-0.75c1.63,0,2.92,0.51,3.87,1.52c0.95,1.01,1.42,2.43,1.42,4.24v1.41h-7.2
		c0.13,0.65,0.41,1.16,0.85,1.54c0.44,0.37,1,0.56,1.7,0.56c1.15,0,2.04-0.4,2.69-1.2l1.65,1.96c-0.45,0.62-1.09,1.12-1.92,1.49
		C265.16,60.89,264.27,61.07,263.32,61.07z M262.91,51.81c-1.06,0-1.69,0.7-1.89,2.11h3.65v-0.28c0.01-0.58-0.13-1.03-0.44-1.35
		S263.48,51.81,262.91,51.81z"/>
	<path class="st0" d="M272.99,49.23l0.12,1.36c0.8-1.05,1.91-1.58,3.32-1.58c1.21,0,2.11,0.36,2.71,1.08
		c0.6,0.72,0.91,1.81,0.93,3.27v7.49h-3.63v-7.34c0-0.59-0.12-1.02-0.35-1.29s-0.67-0.41-1.29-0.41c-0.71,0-1.24,0.28-1.58,0.84
		v8.21h-3.62V49.23H272.99z"/>
	<path class="st0" d="M286.29,46.34v2.89h1.91v2.51h-1.91v5.32c0,0.44,0.08,0.74,0.24,0.91s0.47,0.26,0.93,0.26
		c0.36,0,0.66-0.02,0.9-0.06v2.59c-0.65,0.21-1.33,0.31-2.04,0.31c-1.25,0-2.17-0.29-2.76-0.88c-0.59-0.59-0.89-1.48-0.89-2.67
		v-5.77h-1.48v-2.51h1.48v-2.89H286.29z"/>
	<path class="st0" d="M289.6,46.24c0-0.52,0.19-0.94,0.56-1.27c0.37-0.33,0.86-0.49,1.45-0.49s1.08,0.17,1.45,0.49
		c0.37,0.33,0.56,0.75,0.56,1.27s-0.19,0.94-0.56,1.27S292.21,48,291.61,48s-1.08-0.17-1.45-0.49S289.6,46.75,289.6,46.24z
		 M293.45,60.86h-3.63V49.23h3.63V60.86z"/>
	<path class="st0" d="M299.89,46.34v2.89h1.91v2.51h-1.91v5.32c0,0.44,0.08,0.74,0.24,0.91s0.47,0.26,0.93,0.26
		c0.36,0,0.66-0.02,0.9-0.06v2.59c-0.65,0.21-1.33,0.31-2.04,0.31c-1.25,0-2.17-0.29-2.76-0.88c-0.59-0.59-0.89-1.48-0.89-2.67
		v-5.77h-1.48v-2.51h1.48v-2.89H299.89z"/>
	<path class="st0" d="M307.87,55.79l1.93-6.55h3.88l-4.74,13.57l-0.2,0.49c-0.67,1.5-1.86,2.26-3.57,2.26
		c-0.47,0-0.97-0.07-1.49-0.21v-2.58h0.47c0.51,0,0.9-0.07,1.17-0.22c0.27-0.15,0.47-0.41,0.6-0.79l0.29-0.77l-4.04-11.74h3.87
		L307.87,55.79z"/>
	<path class="st0" d="M316.87,57.34c0.57,0,1.05,0.17,1.43,0.51s0.57,0.78,0.57,1.3c0,0.53-0.19,0.96-0.57,1.3
		c-0.38,0.34-0.86,0.51-1.43,0.51c-0.58,0-1.06-0.17-1.43-0.52c-0.38-0.34-0.56-0.78-0.56-1.3c0-0.52,0.19-0.96,0.56-1.3
		C315.81,57.51,316.29,57.34,316.87,57.34z"/>
</g>
</svg>
