<?xml version="1.0" encoding="utf-8"?>
<!-- Generator: Adobe Illustrator 25.2.1, SVG Export Plug-In . SVG Version: 6.00 Build 0)  -->
<svg version="1.1" id="Layer_1" xmlns="http://www.w3.org/2000/svg" xmlns:xlink="http://www.w3.org/1999/xlink" x="0px" y="0px"
	 viewBox="0 0 728 90" style="enable-background:new 0 0 728 90;" xml:space="preserve">
<style type="text/css">
	.st0{fill:#021D8B;}
</style>
<g>
	<path class="st0" d="M192.8,77.35c0-0.21-0.07-0.39-0.22-0.53c-0.15-0.14-0.39-0.27-0.74-0.39c-0.49-0.15-0.84-0.34-1.06-0.58
		c-0.22-0.24-0.33-0.54-0.33-0.91c0-0.37,0.11-0.68,0.33-0.92s0.52-0.38,0.9-0.43v-0.75h0.51v0.75c0.38,0.05,0.68,0.21,0.89,0.48
		c0.21,0.27,0.32,0.64,0.32,1.1h-0.63c0-0.32-0.08-0.58-0.23-0.77c-0.15-0.19-0.36-0.28-0.62-0.28c-0.27,0-0.48,0.07-0.62,0.21
		c-0.14,0.14-0.22,0.34-0.22,0.59c0,0.23,0.08,0.42,0.23,0.56c0.15,0.14,0.4,0.26,0.75,0.38c0.35,0.11,0.62,0.24,0.81,0.37
		c0.19,0.14,0.34,0.29,0.43,0.47c0.09,0.18,0.14,0.39,0.14,0.63c0,0.39-0.12,0.7-0.35,0.93c-0.23,0.24-0.55,0.37-0.97,0.42v0.65
		h-0.51v-0.65c-0.42-0.04-0.76-0.19-1-0.45c-0.24-0.26-0.36-0.62-0.36-1.07h0.63c0,0.32,0.08,0.56,0.25,0.73
		c0.17,0.17,0.4,0.26,0.71,0.26c0.3,0,0.53-0.07,0.71-0.21C192.71,77.79,192.8,77.6,192.8,77.35z"/>
	<path class="st0" d="M196.3,78.63h-0.64v-4.21l-1.27,0.47v-0.57l1.81-0.68h0.1V78.63z"/>
	<path class="st0" d="M200.8,74.04v0.9h0.69v0.49h-0.69v2.3c0,0.15,0.03,0.26,0.09,0.33s0.17,0.11,0.31,0.11
		c0.07,0,0.17-0.01,0.3-0.04v0.51c-0.17,0.05-0.33,0.07-0.49,0.07c-0.28,0-0.5-0.09-0.64-0.26c-0.14-0.17-0.22-0.41-0.22-0.73v-2.29
		h-0.67v-0.49h0.67v-0.9H200.8z"/>
	<path class="st0" d="M204.02,75.5c-0.1-0.02-0.2-0.02-0.31-0.02c-0.42,0-0.7,0.18-0.84,0.53v2.62h-0.63v-3.7h0.62l0.01,0.43
		c0.21-0.33,0.5-0.5,0.88-0.5c0.12,0,0.22,0.02,0.28,0.05V75.5z"/>
	<path class="st0" d="M204.61,73.95c0-0.1,0.03-0.19,0.09-0.26c0.06-0.07,0.16-0.11,0.28-0.11s0.22,0.04,0.28,0.11
		c0.06,0.07,0.1,0.16,0.1,0.26c0,0.1-0.03,0.19-0.1,0.26s-0.16,0.1-0.28,0.1s-0.22-0.03-0.28-0.1S204.61,74.06,204.61,73.95z
		 M205.29,78.63h-0.63v-3.7h0.63V78.63z"/>
	<path class="st0" d="M208.58,78.63c-0.04-0.07-0.07-0.2-0.09-0.39c-0.29,0.31-0.64,0.46-1.05,0.46c-0.36,0-0.66-0.1-0.9-0.31
		s-0.35-0.47-0.35-0.78c0-0.38,0.15-0.68,0.44-0.9s0.71-0.32,1.24-0.32h0.62V76.1c0-0.22-0.07-0.4-0.2-0.53
		c-0.13-0.13-0.33-0.2-0.58-0.2c-0.23,0-0.42,0.06-0.57,0.17c-0.15,0.11-0.23,0.25-0.23,0.41h-0.64c0-0.18,0.07-0.36,0.2-0.54
		s0.31-0.31,0.53-0.41s0.47-0.15,0.74-0.15c0.43,0,0.76,0.11,1,0.32s0.37,0.51,0.38,0.88v1.7c0,0.34,0.04,0.61,0.13,0.81v0.05
		H208.58z M207.54,78.15c0.2,0,0.39-0.05,0.56-0.15s0.31-0.24,0.39-0.4v-0.76h-0.5c-0.77,0-1.16,0.23-1.16,0.68
		c0,0.2,0.07,0.35,0.2,0.46S207.33,78.15,207.54,78.15z"/>
	<path class="st0" d="M210.8,78.63h-0.63v-5.25h0.63V78.63z"/>
	<path class="st0" d="M213.85,78.63v-3.21h-0.58v-0.49h0.58v-0.38c0-0.4,0.11-0.7,0.32-0.92s0.51-0.33,0.9-0.33
		c0.15,0,0.29,0.02,0.43,0.06l-0.03,0.51c-0.11-0.02-0.22-0.03-0.34-0.03c-0.21,0-0.36,0.06-0.47,0.18
		c-0.11,0.12-0.17,0.29-0.17,0.52v0.39h0.79v0.49h-0.79v3.21H213.85z"/>
	<path class="st0" d="M215.8,76.75c0-0.36,0.07-0.69,0.21-0.98c0.14-0.29,0.34-0.51,0.59-0.67c0.25-0.16,0.54-0.24,0.87-0.24
		c0.5,0,0.91,0.17,1.22,0.52c0.31,0.35,0.47,0.81,0.47,1.39v0.04c0,0.36-0.07,0.68-0.21,0.97s-0.33,0.51-0.59,0.67
		c-0.26,0.16-0.55,0.24-0.88,0.24c-0.5,0-0.91-0.17-1.22-0.52c-0.31-0.35-0.47-0.81-0.47-1.38V76.75z M216.44,76.82
		c0,0.41,0.09,0.74,0.29,0.99s0.44,0.37,0.76,0.37c0.32,0,0.58-0.13,0.77-0.38s0.28-0.6,0.28-1.06c0-0.41-0.1-0.73-0.29-0.99
		s-0.45-0.38-0.77-0.38c-0.31,0-0.56,0.12-0.75,0.37C216.53,76.01,216.44,76.36,216.44,76.82z"/>
	<path class="st0" d="M221.75,75.5c-0.1-0.02-0.2-0.02-0.31-0.02c-0.42,0-0.7,0.18-0.84,0.53v2.62h-0.63v-3.7h0.62l0.01,0.43
		c0.21-0.33,0.5-0.5,0.88-0.5c0.12,0,0.22,0.02,0.28,0.05V75.5z"/>
	<path class="st0" d="M224.92,74.04v0.9h0.69v0.49h-0.69v2.3c0,0.15,0.03,0.26,0.09,0.33s0.17,0.11,0.31,0.11
		c0.07,0,0.17-0.01,0.3-0.04v0.51c-0.17,0.05-0.33,0.07-0.49,0.07c-0.28,0-0.5-0.09-0.64-0.26c-0.14-0.17-0.22-0.41-0.22-0.73v-2.29
		h-0.67v-0.49h0.67v-0.9H224.92z"/>
	<path class="st0" d="M226.98,75.38c0.28-0.34,0.64-0.52,1.09-0.52c0.78,0,1.18,0.44,1.18,1.32v2.44h-0.63v-2.45
		c0-0.27-0.06-0.46-0.18-0.59c-0.12-0.13-0.31-0.19-0.56-0.19c-0.21,0-0.39,0.05-0.54,0.16c-0.15,0.11-0.28,0.25-0.36,0.43v2.63
		h-0.63v-5.25h0.63V75.38z"/>
	<path class="st0" d="M231.74,78.7c-0.5,0-0.91-0.17-1.22-0.49s-0.47-0.77-0.47-1.32v-0.12c0-0.37,0.07-0.69,0.21-0.98
		c0.14-0.29,0.34-0.51,0.59-0.68s0.52-0.24,0.82-0.24c0.48,0,0.85,0.16,1.12,0.48c0.27,0.32,0.4,0.77,0.4,1.36v0.26h-2.5
		c0.01,0.36,0.12,0.66,0.32,0.88s0.46,0.34,0.78,0.34c0.22,0,0.41-0.05,0.57-0.14c0.15-0.09,0.29-0.21,0.41-0.36l0.39,0.3
		C232.83,78.46,232.36,78.7,231.74,78.7z M231.66,75.39c-0.25,0-0.47,0.09-0.64,0.28s-0.28,0.45-0.32,0.78h1.85V76.4
		c-0.02-0.32-0.1-0.57-0.26-0.75S231.93,75.39,231.66,75.39z"/>
	<path class="st0" d="M235.96,78.63v-3.21h-0.58v-0.49h0.58v-0.38c0-0.4,0.11-0.7,0.32-0.92s0.51-0.33,0.9-0.33
		c0.15,0,0.29,0.02,0.43,0.06l-0.03,0.51c-0.11-0.02-0.22-0.03-0.34-0.03c-0.21,0-0.36,0.06-0.47,0.18
		c-0.11,0.12-0.17,0.29-0.17,0.52v0.39h0.79v0.49h-0.79v3.21H235.96z"/>
	<path class="st0" d="M238.08,73.95c0-0.1,0.03-0.19,0.09-0.26c0.06-0.07,0.16-0.11,0.28-0.11s0.22,0.04,0.28,0.11
		c0.06,0.07,0.1,0.16,0.1,0.26c0,0.1-0.03,0.19-0.1,0.26s-0.16,0.1-0.28,0.1s-0.22-0.03-0.28-0.1S238.08,74.06,238.08,73.95z
		 M238.76,78.63h-0.63v-3.7h0.63V78.63z"/>
	<path class="st0" d="M241.56,75.5c-0.1-0.02-0.2-0.02-0.31-0.02c-0.42,0-0.7,0.18-0.84,0.53v2.62h-0.63v-3.7h0.62l0.01,0.43
		c0.21-0.33,0.5-0.5,0.88-0.5c0.12,0,0.22,0.02,0.28,0.05V75.5z"/>
	<path class="st0" d="M244.3,77.65c0-0.17-0.06-0.3-0.19-0.4s-0.35-0.18-0.67-0.24s-0.57-0.15-0.76-0.25
		c-0.19-0.1-0.33-0.21-0.42-0.34c-0.09-0.13-0.13-0.29-0.13-0.47c0-0.3,0.13-0.56,0.38-0.77c0.26-0.21,0.58-0.31,0.98-0.31
		c0.42,0,0.76,0.11,1.02,0.33c0.26,0.22,0.39,0.49,0.39,0.83h-0.64c0-0.17-0.07-0.32-0.22-0.45c-0.15-0.13-0.33-0.19-0.56-0.19
		c-0.23,0-0.41,0.05-0.54,0.15s-0.19,0.23-0.19,0.39c0,0.15,0.06,0.27,0.18,0.34s0.34,0.15,0.65,0.22c0.32,0.07,0.57,0.16,0.77,0.25
		c0.2,0.1,0.34,0.22,0.44,0.35s0.14,0.31,0.14,0.5c0,0.33-0.13,0.6-0.4,0.79c-0.26,0.2-0.61,0.3-1.03,0.3
		c-0.3,0-0.56-0.05-0.79-0.16s-0.41-0.25-0.54-0.44c-0.13-0.19-0.19-0.39-0.19-0.61h0.63c0.01,0.21,0.1,0.38,0.25,0.5
		s0.37,0.19,0.63,0.19c0.24,0,0.43-0.05,0.58-0.15S244.3,77.81,244.3,77.65z"/>
	<path class="st0" d="M246.61,74.04v0.9h0.69v0.49h-0.69v2.3c0,0.15,0.03,0.26,0.09,0.33s0.17,0.11,0.31,0.11
		c0.07,0,0.17-0.01,0.3-0.04v0.51c-0.17,0.05-0.33,0.07-0.49,0.07c-0.28,0-0.5-0.09-0.64-0.26c-0.14-0.17-0.22-0.41-0.22-0.73v-2.29
		h-0.67v-0.49h0.67v-0.9H246.61z"/>
	<path class="st0" d="M252.15,78.63H251v-3.68l-1.13,0.33v-0.88l2.18-0.76h0.11V78.63z"/>
	<path class="st0" d="M256.69,76.69h0.51v0.89h-0.51v1.06h-1.15v-1.06h-1.92l-0.07-0.7l1.99-3.21v-0.01h1.15V76.69z M254.65,76.69
		h0.9v-1.53l-0.07,0.12L254.65,76.69z"/>
	<path class="st0" d="M259.32,76.76c0-0.58,0.13-1.05,0.38-1.38c0.25-0.34,0.61-0.51,1.06-0.51c0.33,0,0.61,0.13,0.83,0.39v-1.87
		h1.15v5.25h-1.04l-0.06-0.4c-0.24,0.31-0.54,0.46-0.9,0.46c-0.44,0-0.79-0.17-1.04-0.51C259.45,77.86,259.32,77.38,259.32,76.76z
		 M260.48,76.83c0,0.66,0.19,0.98,0.57,0.98c0.25,0,0.44-0.11,0.55-0.32v-1.41c-0.11-0.22-0.29-0.33-0.54-0.33
		c-0.36,0-0.55,0.29-0.58,0.86L260.48,76.83z"/>
	<path class="st0" d="M265.49,78.63c-0.04-0.08-0.08-0.19-0.11-0.33c-0.21,0.27-0.51,0.4-0.89,0.4c-0.35,0-0.64-0.11-0.89-0.32
		s-0.37-0.48-0.37-0.79c0-0.4,0.15-0.7,0.44-0.91c0.3-0.21,0.73-0.31,1.29-0.31h0.36v-0.2c0-0.34-0.15-0.51-0.44-0.51
		c-0.27,0-0.41,0.13-0.41,0.41h-1.15c0-0.36,0.15-0.65,0.46-0.87c0.3-0.22,0.69-0.33,1.16-0.33c0.47,0,0.84,0.12,1.12,0.34
		c0.27,0.23,0.41,0.55,0.42,0.95v1.64c0,0.34,0.06,0.6,0.16,0.78v0.06H265.49z M264.77,77.88c0.14,0,0.26-0.03,0.36-0.09
		c0.09-0.06,0.16-0.13,0.2-0.21v-0.59h-0.34c-0.4,0-0.6,0.18-0.6,0.54c0,0.1,0.04,0.19,0.11,0.25
		C264.57,77.85,264.66,77.88,264.77,77.88z"/>
	<path class="st0" d="M268.6,77.02l0.62-2.08h1.23l-1.51,4.32l-0.06,0.16c-0.21,0.48-0.59,0.72-1.13,0.72
		c-0.15,0-0.31-0.02-0.47-0.07v-0.82h0.15c0.16,0,0.29-0.02,0.37-0.07c0.09-0.05,0.15-0.13,0.19-0.25l0.09-0.25l-1.29-3.74h1.23
		L268.6,77.02z"/>
	<path class="st0" d="M272.68,77.59c0-0.1-0.05-0.18-0.15-0.24c-0.1-0.06-0.3-0.12-0.58-0.18c-0.29-0.06-0.52-0.15-0.71-0.25
		c-0.19-0.1-0.33-0.23-0.43-0.38c-0.1-0.15-0.15-0.32-0.15-0.51c0-0.34,0.14-0.62,0.42-0.84s0.65-0.33,1.1-0.33
		c0.49,0,0.88,0.11,1.18,0.33c0.3,0.22,0.44,0.51,0.44,0.87h-1.16c0-0.3-0.16-0.44-0.47-0.44c-0.12,0-0.22,0.03-0.3,0.1
		s-0.12,0.15-0.12,0.25c0,0.1,0.05,0.19,0.15,0.25s0.26,0.12,0.48,0.16s0.41,0.09,0.58,0.15c0.56,0.19,0.83,0.53,0.83,1.03
		c0,0.34-0.15,0.61-0.45,0.82c-0.3,0.21-0.69,0.32-1.16,0.32c-0.32,0-0.6-0.06-0.85-0.17s-0.44-0.27-0.58-0.46s-0.21-0.4-0.21-0.62
		h1.08c0,0.17,0.06,0.29,0.17,0.37c0.11,0.08,0.25,0.12,0.42,0.12c0.16,0,0.28-0.03,0.35-0.1C272.64,77.78,272.68,77.7,272.68,77.59
		z"/>
	<path class="st0" d="M274.51,79.62l-0.36-0.25c0.21-0.3,0.33-0.61,0.33-0.92v-0.57h0.62v0.5c0,0.23-0.06,0.46-0.17,0.69
		C274.82,79.3,274.68,79.49,274.51,79.62z M274.39,75.28c0-0.11,0.03-0.2,0.1-0.27c0.07-0.07,0.16-0.11,0.29-0.11
		c0.13,0,0.23,0.04,0.29,0.11s0.1,0.16,0.1,0.27c0,0.1-0.03,0.19-0.1,0.26c-0.07,0.07-0.17,0.11-0.29,0.11
		c-0.13,0-0.23-0.04-0.29-0.11C274.42,75.48,274.39,75.39,274.39,75.28z"/>
	<path class="st0" d="M278.46,76.68v1.95h-0.66v-4.98h1.83c0.54,0,0.97,0.14,1.28,0.42s0.46,0.65,0.46,1.1
		c0,0.48-0.15,0.85-0.45,1.12s-0.73,0.39-1.3,0.39H278.46z M278.46,76.15h1.18c0.35,0,0.62-0.08,0.81-0.25
		c0.19-0.17,0.28-0.4,0.28-0.72c0-0.3-0.09-0.53-0.28-0.71c-0.19-0.18-0.44-0.27-0.77-0.28h-1.22V76.15z"/>
	<path class="st0" d="M282.81,78.63h-0.63v-5.25h0.63V78.63z"/>
	<path class="st0" d="M286.1,78.63c-0.04-0.07-0.07-0.2-0.09-0.39c-0.29,0.31-0.64,0.46-1.05,0.46c-0.36,0-0.66-0.1-0.9-0.31
		s-0.35-0.47-0.35-0.78c0-0.38,0.15-0.68,0.44-0.9s0.71-0.32,1.24-0.32H286V76.1c0-0.22-0.07-0.4-0.2-0.53
		c-0.13-0.13-0.33-0.2-0.58-0.2c-0.23,0-0.42,0.06-0.57,0.17c-0.15,0.11-0.23,0.25-0.23,0.41h-0.64c0-0.18,0.07-0.36,0.2-0.54
		s0.31-0.31,0.53-0.41s0.47-0.15,0.74-0.15c0.43,0,0.76,0.11,1,0.32s0.37,0.51,0.38,0.88v1.7c0,0.34,0.04,0.61,0.13,0.81v0.05H286.1
		z M285.05,78.15c0.2,0,0.39-0.05,0.56-0.15s0.31-0.24,0.39-0.4v-0.76h-0.5c-0.77,0-1.16,0.23-1.16,0.68c0,0.2,0.07,0.35,0.2,0.46
		S284.84,78.15,285.05,78.15z"/>
	<path class="st0" d="M288.22,74.93l0.02,0.46c0.28-0.36,0.65-0.53,1.11-0.53c0.78,0,1.18,0.44,1.18,1.32v2.44h-0.63v-2.45
		c0-0.27-0.06-0.46-0.18-0.59c-0.12-0.13-0.31-0.19-0.56-0.19c-0.21,0-0.39,0.05-0.54,0.16c-0.15,0.11-0.28,0.25-0.36,0.43v2.63
		h-0.63v-3.7H288.22z"/>
	<path class="st0" d="M293.64,77.65c0-0.17-0.06-0.3-0.19-0.4s-0.35-0.18-0.67-0.24s-0.57-0.15-0.76-0.25
		c-0.19-0.1-0.33-0.21-0.42-0.34c-0.09-0.13-0.13-0.29-0.13-0.47c0-0.3,0.13-0.56,0.38-0.77c0.26-0.21,0.58-0.31,0.98-0.31
		c0.42,0,0.76,0.11,1.02,0.33c0.26,0.22,0.39,0.49,0.39,0.83h-0.64c0-0.17-0.07-0.32-0.22-0.45c-0.15-0.13-0.33-0.19-0.56-0.19
		c-0.23,0-0.41,0.05-0.54,0.15s-0.19,0.23-0.19,0.39c0,0.15,0.06,0.27,0.18,0.34s0.34,0.15,0.65,0.22c0.32,0.07,0.57,0.16,0.77,0.25
		c0.2,0.1,0.34,0.22,0.44,0.35s0.14,0.31,0.14,0.5c0,0.33-0.13,0.6-0.4,0.79c-0.26,0.2-0.61,0.3-1.03,0.3
		c-0.3,0-0.56-0.05-0.79-0.16s-0.41-0.25-0.54-0.44c-0.13-0.19-0.19-0.39-0.19-0.61h0.63c0.01,0.21,0.1,0.38,0.25,0.5
		s0.37,0.19,0.63,0.19c0.24,0,0.43-0.05,0.58-0.15S293.64,77.81,293.64,77.65z"/>
	<path class="st0" d="M298.98,77.65c0-0.17-0.06-0.3-0.19-0.4s-0.35-0.18-0.67-0.24s-0.57-0.15-0.76-0.25
		c-0.19-0.1-0.33-0.21-0.42-0.34c-0.09-0.13-0.13-0.29-0.13-0.47c0-0.3,0.13-0.56,0.38-0.77c0.26-0.21,0.58-0.31,0.98-0.31
		c0.42,0,0.76,0.11,1.02,0.33c0.26,0.22,0.39,0.49,0.39,0.83h-0.64c0-0.17-0.07-0.32-0.22-0.45c-0.15-0.13-0.33-0.19-0.56-0.19
		c-0.23,0-0.41,0.05-0.54,0.15s-0.19,0.23-0.19,0.39c0,0.15,0.06,0.27,0.18,0.34s0.34,0.15,0.65,0.22c0.32,0.07,0.57,0.16,0.77,0.25
		c0.2,0.1,0.34,0.22,0.44,0.35s0.14,0.31,0.14,0.5c0,0.33-0.13,0.6-0.4,0.79c-0.26,0.2-0.61,0.3-1.03,0.3
		c-0.3,0-0.56-0.05-0.79-0.16s-0.41-0.25-0.54-0.44c-0.13-0.19-0.19-0.39-0.19-0.61h0.63c0.01,0.21,0.1,0.38,0.25,0.5
		s0.37,0.19,0.63,0.19c0.24,0,0.43-0.05,0.58-0.15S298.98,77.81,298.98,77.65z"/>
	<path class="st0" d="M301.3,74.04v0.9h0.69v0.49h-0.69v2.3c0,0.15,0.03,0.26,0.09,0.33s0.17,0.11,0.31,0.11
		c0.07,0,0.17-0.01,0.3-0.04v0.51c-0.17,0.05-0.33,0.07-0.49,0.07c-0.28,0-0.5-0.09-0.64-0.26c-0.14-0.17-0.22-0.41-0.22-0.73v-2.29
		h-0.67v-0.49h0.67v-0.9H301.3z"/>
	<path class="st0" d="M305.01,78.63c-0.04-0.07-0.07-0.2-0.09-0.39c-0.29,0.31-0.64,0.46-1.05,0.46c-0.36,0-0.66-0.1-0.9-0.31
		s-0.35-0.47-0.35-0.78c0-0.38,0.15-0.68,0.44-0.9s0.71-0.32,1.24-0.32h0.62V76.1c0-0.22-0.07-0.4-0.2-0.53
		c-0.13-0.13-0.33-0.2-0.58-0.2c-0.23,0-0.42,0.06-0.57,0.17c-0.15,0.11-0.23,0.25-0.23,0.41h-0.64c0-0.18,0.07-0.36,0.2-0.54
		s0.31-0.31,0.53-0.41s0.47-0.15,0.74-0.15c0.43,0,0.76,0.11,1,0.32s0.37,0.51,0.38,0.88v1.7c0,0.34,0.04,0.61,0.13,0.81v0.05
		H305.01z M303.96,78.15c0.2,0,0.39-0.05,0.56-0.15s0.31-0.24,0.39-0.4v-0.76h-0.5c-0.77,0-1.16,0.23-1.16,0.68
		c0,0.2,0.07,0.35,0.2,0.46S303.75,78.15,303.96,78.15z"/>
	<path class="st0" d="M308.32,75.5c-0.1-0.02-0.2-0.02-0.31-0.02c-0.42,0-0.7,0.18-0.84,0.53v2.62h-0.63v-3.7h0.62l0.01,0.43
		c0.21-0.33,0.5-0.5,0.88-0.5c0.12,0,0.22,0.02,0.28,0.05V75.5z"/>
	<path class="st0" d="M309.93,74.04v0.9h0.69v0.49h-0.69v2.3c0,0.15,0.03,0.26,0.09,0.33s0.17,0.11,0.31,0.11
		c0.07,0,0.17-0.01,0.3-0.04v0.51c-0.17,0.05-0.33,0.07-0.49,0.07c-0.28,0-0.5-0.09-0.64-0.26c-0.14-0.17-0.22-0.41-0.22-0.73v-2.29
		h-0.67v-0.49h0.67v-0.9H309.93z"/>
	<path class="st0" d="M311.36,73.95c0-0.1,0.03-0.19,0.09-0.26c0.06-0.07,0.16-0.11,0.28-0.11s0.22,0.04,0.28,0.11
		c0.06,0.07,0.1,0.16,0.1,0.26c0,0.1-0.03,0.19-0.1,0.26s-0.16,0.1-0.28,0.1s-0.22-0.03-0.28-0.1S311.36,74.06,311.36,73.95z
		 M312.05,78.63h-0.63v-3.7h0.63V78.63z"/>
	<path class="st0" d="M313.66,74.93l0.02,0.46c0.28-0.36,0.65-0.53,1.11-0.53c0.78,0,1.18,0.44,1.18,1.32v2.44h-0.63v-2.45
		c0-0.27-0.06-0.46-0.18-0.59c-0.12-0.13-0.31-0.19-0.56-0.19c-0.21,0-0.39,0.05-0.54,0.16c-0.15,0.11-0.28,0.25-0.36,0.43v2.63
		h-0.63v-3.7H313.66z"/>
	<path class="st0" d="M316.77,76.75c0-0.58,0.13-1.04,0.4-1.38c0.27-0.34,0.62-0.51,1.06-0.51c0.45,0,0.8,0.16,1.06,0.48l0.03-0.41
		h0.58v3.61c0,0.48-0.14,0.86-0.43,1.13c-0.28,0.28-0.67,0.41-1.14,0.41c-0.27,0-0.53-0.06-0.78-0.17s-0.45-0.27-0.58-0.47
		l0.33-0.38c0.27,0.33,0.6,0.5,1,0.5c0.31,0,0.55-0.09,0.72-0.26c0.17-0.17,0.26-0.42,0.26-0.73v-0.32
		c-0.25,0.29-0.6,0.44-1.04,0.44c-0.43,0-0.78-0.17-1.05-0.52C316.9,77.83,316.77,77.35,316.77,76.75z M317.41,76.82
		c0,0.42,0.08,0.75,0.26,0.98c0.17,0.24,0.41,0.36,0.72,0.36c0.4,0,0.69-0.18,0.88-0.54v-1.69c-0.19-0.35-0.48-0.53-0.87-0.53
		c-0.31,0-0.55,0.12-0.72,0.36S317.41,76.36,317.41,76.82z"/>
	<path class="st0" d="M324.86,78.63c-0.04-0.07-0.07-0.2-0.09-0.39c-0.29,0.31-0.64,0.46-1.05,0.46c-0.36,0-0.66-0.1-0.9-0.31
		s-0.35-0.47-0.35-0.78c0-0.38,0.15-0.68,0.44-0.9s0.71-0.32,1.24-0.32h0.62V76.1c0-0.22-0.07-0.4-0.2-0.53
		c-0.13-0.13-0.33-0.2-0.58-0.2c-0.23,0-0.42,0.06-0.57,0.17c-0.15,0.11-0.23,0.25-0.23,0.41h-0.64c0-0.18,0.07-0.36,0.2-0.54
		s0.31-0.31,0.53-0.41s0.47-0.15,0.74-0.15c0.43,0,0.76,0.11,1,0.32s0.37,0.51,0.38,0.88v1.7c0,0.34,0.04,0.61,0.13,0.81v0.05
		H324.86z M323.81,78.15c0.2,0,0.39-0.05,0.56-0.15s0.31-0.24,0.39-0.4v-0.76h-0.5c-0.77,0-1.16,0.23-1.16,0.68
		c0,0.2,0.07,0.35,0.2,0.46S323.61,78.15,323.81,78.15z"/>
	<path class="st0" d="M327.25,74.04v0.9h0.69v0.49h-0.69v2.3c0,0.15,0.03,0.26,0.09,0.33s0.17,0.11,0.31,0.11
		c0.07,0,0.17-0.01,0.3-0.04v0.51c-0.17,0.05-0.33,0.07-0.49,0.07c-0.28,0-0.5-0.09-0.64-0.26c-0.14-0.17-0.22-0.41-0.22-0.73v-2.29
		h-0.67v-0.49h0.67v-0.9H327.25z"/>
	<path class="st0" d="M332.53,77.31c0-0.18-0.04-0.32-0.13-0.42c-0.09-0.1-0.25-0.2-0.47-0.29c-0.22-0.09-0.43-0.18-0.62-0.28
		c-0.19-0.09-0.35-0.2-0.49-0.32s-0.24-0.27-0.31-0.43s-0.11-0.36-0.11-0.59c0-0.38,0.13-0.7,0.39-0.95
		c0.26-0.25,0.61-0.39,1.04-0.44v-0.72h0.54v0.74c0.42,0.06,0.74,0.23,0.98,0.51s0.36,0.64,0.36,1.07h-1.16
		c0-0.24-0.04-0.42-0.14-0.55c-0.09-0.13-0.22-0.19-0.39-0.19c-0.15,0-0.27,0.05-0.35,0.14s-0.12,0.23-0.12,0.39
		c0,0.17,0.05,0.3,0.14,0.4c0.1,0.1,0.25,0.19,0.46,0.28c0.21,0.09,0.41,0.18,0.6,0.28c0.19,0.1,0.35,0.21,0.49,0.33
		s0.24,0.27,0.32,0.43c0.08,0.16,0.12,0.36,0.12,0.59c0,0.39-0.12,0.71-0.37,0.95s-0.58,0.39-1.01,0.43v0.69h-0.54v-0.69
		c-0.5-0.05-0.88-0.22-1.14-0.51s-0.4-0.67-0.4-1.14h1.15c0,0.26,0.06,0.46,0.17,0.59s0.28,0.2,0.49,0.2c0.16,0,0.28-0.05,0.37-0.14
		C332.48,77.6,332.53,77.48,332.53,77.31z"/>
	<path class="st0" d="M336.56,76.71c-0.25,0.22-0.53,0.33-0.83,0.33c-0.45,0-0.81-0.15-1.07-0.46c-0.26-0.31-0.4-0.71-0.4-1.22
		c0-0.32,0.07-0.62,0.22-0.89s0.36-0.49,0.62-0.65c0.27-0.16,0.56-0.24,0.89-0.24c0.33,0,0.62,0.08,0.89,0.25s0.47,0.4,0.62,0.7
		s0.22,0.65,0.23,1.04v0.44c0,0.55-0.11,1.03-0.32,1.43c-0.22,0.4-0.52,0.71-0.92,0.93c-0.4,0.22-0.86,0.32-1.39,0.32h-0.07v-0.92
		l0.22,0C336.03,77.74,336.47,77.38,336.56,76.71z M336.03,76.21c0.25,0,0.43-0.11,0.54-0.32v-0.48c0-0.32-0.05-0.56-0.16-0.71
		c-0.11-0.15-0.25-0.23-0.43-0.23c-0.16,0-0.3,0.09-0.41,0.26c-0.11,0.17-0.16,0.38-0.16,0.63c0,0.26,0.06,0.47,0.17,0.62
		C335.69,76.14,335.84,76.21,336.03,76.21z"/>
	<path class="st0" d="M339.07,77.52c0.18,0,0.33,0.05,0.46,0.16s0.18,0.25,0.18,0.42s-0.06,0.31-0.18,0.42s-0.27,0.16-0.46,0.16
		c-0.18,0-0.34-0.05-0.46-0.16c-0.12-0.11-0.18-0.25-0.18-0.41s0.06-0.3,0.18-0.41C338.74,77.57,338.89,77.52,339.07,77.52z"/>
	<path class="st0" d="M342.73,76.71c-0.25,0.22-0.53,0.33-0.83,0.33c-0.45,0-0.81-0.15-1.07-0.46c-0.26-0.31-0.4-0.71-0.4-1.22
		c0-0.32,0.07-0.62,0.22-0.89s0.36-0.49,0.62-0.65c0.27-0.16,0.56-0.24,0.89-0.24c0.33,0,0.62,0.08,0.89,0.25s0.47,0.4,0.62,0.7
		s0.22,0.65,0.23,1.04v0.44c0,0.55-0.11,1.03-0.32,1.43c-0.22,0.4-0.52,0.71-0.92,0.93c-0.4,0.22-0.86,0.32-1.39,0.32h-0.07v-0.92
		l0.22,0C342.2,77.74,342.64,77.38,342.73,76.71z M342.2,76.21c0.25,0,0.43-0.11,0.54-0.32v-0.48c0-0.32-0.05-0.56-0.16-0.71
		c-0.11-0.15-0.25-0.23-0.43-0.23c-0.16,0-0.3,0.09-0.41,0.26c-0.11,0.17-0.16,0.38-0.16,0.63c0,0.26,0.06,0.47,0.17,0.62
		C341.86,76.14,342.01,76.21,342.2,76.21z"/>
	<path class="st0" d="M346.78,76.71c-0.25,0.22-0.53,0.33-0.83,0.33c-0.45,0-0.81-0.15-1.07-0.46c-0.26-0.31-0.4-0.71-0.4-1.22
		c0-0.32,0.07-0.62,0.22-0.89s0.36-0.49,0.62-0.65c0.27-0.16,0.56-0.24,0.89-0.24c0.33,0,0.62,0.08,0.89,0.25s0.47,0.4,0.62,0.7
		s0.22,0.65,0.23,1.04v0.44c0,0.55-0.11,1.03-0.32,1.43c-0.22,0.4-0.52,0.71-0.92,0.93c-0.4,0.22-0.86,0.32-1.39,0.32h-0.07v-0.92
		l0.22,0C346.25,77.74,346.69,77.38,346.78,76.71z M346.26,76.21c0.25,0,0.43-0.11,0.54-0.32v-0.48c0-0.32-0.05-0.56-0.16-0.71
		c-0.11-0.15-0.25-0.23-0.43-0.23c-0.16,0-0.3,0.09-0.41,0.26c-0.11,0.17-0.16,0.38-0.16,0.63c0,0.26,0.06,0.47,0.17,0.62
		C345.91,76.14,346.06,76.21,346.26,76.21z"/>
	<path class="st0" d="M348.98,79.06h-0.82l1.7-5.4h0.82L348.98,79.06z"/>
	<path class="st0" d="M352.13,74.93l0.04,0.43c0.26-0.34,0.61-0.5,1.06-0.5c0.47,0,0.78,0.19,0.95,0.56
		c0.25-0.37,0.61-0.56,1.09-0.56c0.75,0,1.13,0.45,1.16,1.36v2.41h-1.16V76.3c0-0.19-0.03-0.33-0.1-0.41s-0.18-0.13-0.35-0.13
		c-0.23,0-0.4,0.1-0.51,0.3l0,0.05v2.53h-1.16V76.3c0-0.19-0.03-0.33-0.09-0.42c-0.06-0.09-0.18-0.13-0.35-0.13
		c-0.22,0-0.39,0.1-0.51,0.3v2.57h-1.15v-3.7H352.13z"/>
	<path class="st0" d="M356.92,76.75c0-0.37,0.07-0.7,0.21-0.99c0.14-0.29,0.35-0.51,0.62-0.67s0.58-0.23,0.95-0.23
		c0.55,0,0.99,0.17,1.31,0.51s0.48,0.81,0.48,1.4v0.04c0,0.58-0.16,1.03-0.48,1.37c-0.32,0.34-0.75,0.51-1.3,0.51
		c-0.53,0-0.95-0.16-1.27-0.47s-0.49-0.74-0.52-1.28L356.92,76.75z M358.08,76.82c0,0.34,0.05,0.59,0.16,0.75s0.27,0.24,0.47,0.24
		c0.41,0,0.62-0.32,0.63-0.95v-0.12c0-0.66-0.21-1-0.63-1c-0.39,0-0.59,0.29-0.63,0.86L358.08,76.82z"/>
	<path class="st0" d="M362.06,74.93l0.04,0.43c0.26-0.34,0.61-0.5,1.06-0.5c0.38,0,0.67,0.12,0.86,0.34
		c0.19,0.23,0.29,0.58,0.29,1.04v2.38h-1.15V76.3c0-0.19-0.04-0.32-0.11-0.41s-0.21-0.13-0.41-0.13c-0.23,0-0.39,0.09-0.5,0.27v2.61
		h-1.15v-3.7H362.06z"/>
	<path class="st0" d="M366.29,74.02v0.92h0.61v0.8h-0.61v1.69c0,0.14,0.03,0.24,0.08,0.29c0.05,0.05,0.15,0.08,0.3,0.08
		c0.11,0,0.21-0.01,0.29-0.02v0.82c-0.21,0.07-0.42,0.1-0.65,0.1c-0.4,0-0.69-0.09-0.88-0.28c-0.19-0.19-0.28-0.47-0.28-0.85v-1.84
		h-0.47v-0.8h0.47v-0.92H366.29z"/>
	<path class="st0" d="M368.48,75.33c0.25-0.31,0.56-0.46,0.94-0.46c0.41,0,0.72,0.12,0.92,0.36s0.31,0.6,0.32,1.07v2.33h-1.15v-2.31
		c0-0.2-0.04-0.34-0.12-0.43c-0.08-0.09-0.22-0.14-0.41-0.14c-0.24,0-0.4,0.08-0.5,0.23v2.65h-1.15v-5.25h1.15V75.33z"/>
</g>
</svg>
