<?xml version="1.0" encoding="utf-8"?>
<!-- Generator: Adobe Illustrator 25.2.1, SVG Export Plug-In . SVG Version: 6.00 Build 0)  -->
<svg version="1.1" id="Layer_1" xmlns="http://www.w3.org/2000/svg" xmlns:xlink="http://www.w3.org/1999/xlink" x="0px" y="0px"
	 viewBox="0 0 728 90" style="enable-background:new 0 0 728 90;" xml:space="preserve">
<style type="text/css">
	.st0{fill:#021D8B;stroke:url(#SVGID_1_);stroke-width:2;stroke-miterlimit:10;}
	.st1{fill:#FFFFFF;}
</style>
<linearGradient id="SVGID_1_" gradientUnits="userSpaceOnUse" x1="484.1642" y1="45.3715" x2="574" y2="45.3715">
	<stop  offset="0" style="stop-color:#18B9FB"/>
	<stop  offset="0.5" style="stop-color:#782EEB"/>
	<stop  offset="1" style="stop-color:#E82D8A"/>
</linearGradient>
<path class="st0" d="M556.36,66.67H501.8c-9.19,0-16.64-7.45-16.64-16.64v-9.33c0-9.19,7.45-16.64,16.64-16.64h54.57
	c9.19,0,16.64,7.45,16.64,16.64v9.33C573,59.22,565.55,66.67,556.36,66.67z"/>
<g>
	<path class="st1" d="M523.31,33.9h-3.56v9.67h-2.39V33.9h-3.51v-1.94h9.46V33.9z"/>
	<path class="st1" d="M528.98,39.32h-1.91v4.25h-2.39V31.96h4.31c1.37,0,2.43,0.31,3.17,0.92c0.74,0.61,1.12,1.48,1.12,2.59
		c0,0.79-0.17,1.45-0.51,1.98c-0.34,0.53-0.86,0.95-1.56,1.26l2.51,4.75v0.11h-2.57L528.98,39.32z M527.07,37.38H529
		c0.6,0,1.07-0.15,1.4-0.46c0.33-0.31,0.5-0.73,0.5-1.26c0-0.55-0.16-0.98-0.47-1.29c-0.31-0.31-0.79-0.47-1.43-0.47h-1.92V37.38z"
		/>
	<path class="st1" d="M538.72,37.19l2.42-5.23h2.62l-3.81,7.4v4.21h-2.43v-4.21l-3.81-7.4h2.62L538.72,37.19z"/>
	<path class="st1" d="M512.6,49.65h-3.56v9.67h-2.39v-9.67h-3.51v-1.94h9.46V49.65z"/>
	<path class="st1" d="M523.28,53.79c0,1.14-0.2,2.15-0.61,3.01s-0.98,1.53-1.74,1.99c-0.75,0.47-1.61,0.7-2.59,0.7
		c-0.96,0-1.82-0.23-2.58-0.69c-0.75-0.46-1.34-1.12-1.75-1.98c-0.42-0.86-0.62-1.85-0.63-2.96v-0.57c0-1.14,0.21-2.15,0.62-3.02
		s0.99-1.54,1.75-2c0.75-0.46,1.61-0.7,2.58-0.7s1.83,0.23,2.58,0.7c0.75,0.46,1.33,1.13,1.75,2c0.41,0.87,0.62,1.87,0.62,3.01
		V53.79z M520.86,53.26c0-1.22-0.22-2.14-0.65-2.78s-1.06-0.95-1.87-0.95c-0.8,0-1.42,0.31-1.86,0.94
		c-0.44,0.62-0.66,1.54-0.66,2.75v0.57c0,1.19,0.22,2.11,0.65,2.76c0.44,0.65,1.06,0.98,1.88,0.98c0.8,0,1.42-0.31,1.85-0.95
		c0.43-0.63,0.65-1.55,0.65-2.76V53.26z"/>
	<path class="st1" d="M525.02,59.33V47.72h3.57c1.02,0,1.93,0.23,2.74,0.69s1.43,1.11,1.89,1.96c0.45,0.85,0.68,1.81,0.68,2.89v0.53
		c0,1.08-0.22,2.04-0.67,2.88c-0.44,0.84-1.07,1.49-1.88,1.96c-0.81,0.46-1.72,0.7-2.74,0.7H525.02z M527.41,49.65v7.75h1.16
		c0.94,0,1.65-0.31,2.15-0.92s0.75-1.49,0.76-2.62v-0.62c0-1.18-0.25-2.07-0.73-2.68c-0.49-0.61-1.2-0.91-2.14-0.91H527.41z"/>
	<path class="st1" d="M542.19,56.94H538l-0.8,2.39h-2.54l4.32-11.61h2.22l4.35,11.61H543L542.19,56.94z M538.64,55h2.9l-1.46-4.35
		L538.64,55z"/>
	<path class="st1" d="M549.43,52.95l2.42-5.23h2.62l-3.81,7.4v4.21h-2.43v-4.21l-3.81-7.4h2.62L549.43,52.95z"/>
</g>
</svg>
