<?xml version="1.0" encoding="utf-8"?>
<!-- Generator: Adobe Illustrator 25.2.1, SVG Export Plug-In . SVG Version: 6.00 Build 0)  -->
<svg version="1.1" id="Layer_1" xmlns="http://www.w3.org/2000/svg" xmlns:xlink="http://www.w3.org/1999/xlink" x="0px" y="0px"
	 viewBox="0 0 300 250" style="enable-background:new 0 0 300 250;" xml:space="preserve">
<style type="text/css">
	.st0{fill:#021D8B;}
</style>
<g>
	<path class="st0" d="M23.32,219.5c0-0.3-0.11-0.56-0.32-0.76s-0.57-0.39-1.07-0.56c-0.7-0.21-1.21-0.49-1.53-0.83
		c-0.32-0.34-0.48-0.78-0.48-1.31c0-0.54,0.16-0.98,0.47-1.33c0.31-0.34,0.74-0.55,1.29-0.62v-1.08h0.73v1.08
		c0.55,0.08,0.98,0.31,1.29,0.69c0.31,0.39,0.46,0.92,0.46,1.59h-0.91c0-0.46-0.11-0.83-0.33-1.11s-0.52-0.41-0.89-0.41
		c-0.39,0-0.69,0.1-0.9,0.3c-0.21,0.2-0.31,0.48-0.31,0.85c0,0.34,0.11,0.6,0.33,0.8s0.58,0.38,1.08,0.54
		c0.5,0.16,0.89,0.34,1.17,0.54c0.28,0.2,0.49,0.42,0.62,0.68s0.2,0.56,0.2,0.91c0,0.56-0.17,1-0.5,1.34
		c-0.33,0.34-0.8,0.54-1.4,0.6v0.94H21.6v-0.94c-0.61-0.06-1.09-0.27-1.44-0.65c-0.35-0.38-0.52-0.89-0.52-1.54h0.91
		c0,0.46,0.12,0.81,0.36,1.05s0.58,0.37,1.02,0.37c0.43,0,0.77-0.1,1.01-0.31C23.2,220.14,23.32,219.86,23.32,219.5z"/>
	<path class="st0" d="M28.36,221.35h-0.92v-6.08l-1.84,0.67v-0.83l2.61-0.98h0.14V221.35z"/>
	<path class="st0" d="M34.86,214.73v1.29h1v0.7h-1v3.31c0,0.21,0.04,0.37,0.13,0.48c0.09,0.11,0.24,0.16,0.45,0.16
		c0.1,0,0.25-0.02,0.43-0.06v0.74c-0.24,0.06-0.47,0.1-0.7,0.1c-0.41,0-0.71-0.12-0.92-0.37c-0.21-0.25-0.31-0.6-0.31-1.05v-3.31
		h-0.97v-0.7h0.97v-1.29H34.86z"/>
	<path class="st0" d="M39.5,216.84c-0.14-0.02-0.29-0.03-0.45-0.03c-0.6,0-1,0.25-1.22,0.76v3.79h-0.91v-5.33h0.89l0.01,0.62
		c0.3-0.48,0.72-0.71,1.27-0.71c0.18,0,0.31,0.02,0.4,0.07V216.84z"/>
	<path class="st0" d="M40.34,214.6c0-0.15,0.04-0.27,0.13-0.37c0.09-0.1,0.22-0.15,0.4-0.15c0.18,0,0.31,0.05,0.4,0.15
		c0.09,0.1,0.14,0.23,0.14,0.37c0,0.15-0.05,0.27-0.14,0.37c-0.09,0.1-0.23,0.15-0.4,0.15c-0.18,0-0.31-0.05-0.4-0.15
		C40.39,214.88,40.34,214.75,40.34,214.6z M41.33,221.35h-0.91v-5.33h0.91V221.35z"/>
	<path class="st0" d="M46.08,221.35c-0.05-0.11-0.1-0.29-0.13-0.56c-0.42,0.44-0.93,0.66-1.52,0.66c-0.53,0-0.96-0.15-1.29-0.45
		c-0.34-0.3-0.5-0.67-0.5-1.13c0-0.55,0.21-0.99,0.63-1.29c0.42-0.31,1.02-0.46,1.78-0.46h0.89v-0.42c0-0.32-0.09-0.57-0.29-0.76
		c-0.19-0.19-0.47-0.28-0.84-0.28c-0.33,0-0.6,0.08-0.82,0.25c-0.22,0.16-0.33,0.36-0.33,0.6h-0.92c0-0.27,0.09-0.52,0.28-0.77
		c0.19-0.25,0.45-0.44,0.77-0.59c0.32-0.14,0.68-0.22,1.07-0.22c0.61,0,1.1,0.15,1.44,0.46c0.35,0.31,0.53,0.73,0.54,1.27v2.45
		c0,0.49,0.06,0.88,0.19,1.17v0.08H46.08z M44.57,220.66c0.29,0,0.56-0.07,0.81-0.22c0.26-0.15,0.44-0.34,0.56-0.58v-1.09h-0.71
		c-1.12,0-1.67,0.33-1.67,0.98c0,0.29,0.09,0.51,0.29,0.67S44.27,220.66,44.57,220.66z"/>
	<path class="st0" d="M49.27,221.35h-0.91v-7.57h0.91V221.35z"/>
	<path class="st0" d="M53.67,221.35v-4.63h-0.84v-0.7h0.84v-0.55c0-0.57,0.15-1.01,0.46-1.33s0.74-0.47,1.3-0.47
		c0.21,0,0.42,0.03,0.63,0.08L56,214.5c-0.15-0.03-0.32-0.04-0.49-0.04c-0.3,0-0.52,0.09-0.68,0.26c-0.16,0.17-0.24,0.42-0.24,0.74
		v0.56h1.14v0.7h-1.14v4.63H53.67z"/>
	<path class="st0" d="M56.49,218.64c0-0.52,0.1-0.99,0.31-1.41c0.21-0.42,0.49-0.74,0.86-0.97s0.78-0.34,1.25-0.34
		c0.73,0,1.31,0.25,1.76,0.75s0.67,1.17,0.67,2.01v0.06c0,0.52-0.1,0.99-0.3,1.4c-0.2,0.41-0.48,0.73-0.85,0.96
		c-0.37,0.23-0.79,0.34-1.27,0.34c-0.72,0-1.31-0.25-1.76-0.75s-0.67-1.17-0.67-2V218.64z M57.4,218.74c0,0.59,0.14,1.07,0.41,1.42
		s0.64,0.54,1.1,0.54c0.46,0,0.83-0.18,1.1-0.54c0.27-0.36,0.41-0.87,0.41-1.53c0-0.58-0.14-1.06-0.42-1.42
		c-0.28-0.36-0.65-0.54-1.11-0.54c-0.45,0-0.81,0.18-1.09,0.54C57.54,217.57,57.4,218.08,57.4,218.74z"/>
	<path class="st0" d="M65.06,216.84c-0.14-0.02-0.29-0.03-0.45-0.03c-0.6,0-1,0.25-1.22,0.76v3.79h-0.91v-5.33h0.89l0.01,0.62
		c0.3-0.48,0.72-0.71,1.27-0.71c0.18,0,0.31,0.02,0.4,0.07V216.84z"/>
	<path class="st0" d="M69.64,214.73v1.29h1v0.7h-1v3.31c0,0.21,0.04,0.37,0.13,0.48c0.09,0.11,0.24,0.16,0.45,0.16
		c0.1,0,0.25-0.02,0.43-0.06v0.74c-0.24,0.06-0.47,0.1-0.7,0.1c-0.41,0-0.71-0.12-0.92-0.37c-0.21-0.25-0.31-0.6-0.31-1.05v-3.31
		h-0.97v-0.7h0.97v-1.29H69.64z"/>
	<path class="st0" d="M72.61,216.67c0.4-0.5,0.93-0.74,1.58-0.74c1.13,0,1.7,0.64,1.71,1.91v3.52h-0.91v-3.53
		c0-0.38-0.09-0.67-0.26-0.85c-0.17-0.18-0.44-0.28-0.81-0.28c-0.29,0-0.55,0.08-0.78,0.24c-0.22,0.16-0.4,0.37-0.52,0.62v3.8H71.7
		v-7.57h0.91V216.67z"/>
	<path class="st0" d="M79.47,221.45c-0.72,0-1.31-0.24-1.76-0.71c-0.45-0.47-0.68-1.11-0.68-1.91v-0.17c0-0.53,0.1-1,0.3-1.42
		c0.2-0.42,0.48-0.74,0.85-0.98c0.36-0.24,0.76-0.35,1.18-0.35c0.69,0,1.23,0.23,1.62,0.68c0.38,0.46,0.58,1.11,0.58,1.96v0.38
		h-3.61c0.01,0.53,0.17,0.95,0.46,1.27c0.29,0.32,0.67,0.49,1.12,0.49c0.32,0,0.59-0.07,0.82-0.2c0.22-0.13,0.42-0.31,0.59-0.52
		l0.56,0.43C81.03,221.11,80.36,221.45,79.47,221.45z M79.35,216.67c-0.37,0-0.68,0.13-0.93,0.4c-0.25,0.27-0.4,0.64-0.46,1.13h2.67
		v-0.07c-0.03-0.46-0.15-0.82-0.37-1.08S79.74,216.67,79.35,216.67z"/>
	<path class="st0" d="M85.55,221.35v-4.63h-0.84v-0.7h0.84v-0.55c0-0.57,0.15-1.01,0.46-1.33s0.74-0.47,1.3-0.47
		c0.21,0,0.42,0.03,0.63,0.08l-0.05,0.73c-0.15-0.03-0.32-0.04-0.49-0.04c-0.3,0-0.52,0.09-0.68,0.26
		c-0.16,0.17-0.24,0.42-0.24,0.74v0.56h1.14v0.7h-1.14v4.63H85.55z"/>
	<path class="st0" d="M88.61,214.6c0-0.15,0.04-0.27,0.13-0.37c0.09-0.1,0.22-0.15,0.4-0.15c0.18,0,0.31,0.05,0.4,0.15
		c0.09,0.1,0.14,0.23,0.14,0.37c0,0.15-0.05,0.27-0.14,0.37c-0.09,0.1-0.23,0.15-0.4,0.15c-0.18,0-0.31-0.05-0.4-0.15
		C88.65,214.88,88.61,214.75,88.61,214.6z M89.6,221.35h-0.91v-5.33h0.91V221.35z"/>
	<path class="st0" d="M93.63,216.84c-0.14-0.02-0.29-0.03-0.45-0.03c-0.6,0-1,0.25-1.22,0.76v3.79h-0.91v-5.33h0.89l0.01,0.62
		c0.3-0.48,0.72-0.71,1.27-0.71c0.18,0,0.31,0.02,0.4,0.07V216.84z"/>
	<path class="st0" d="M97.57,219.94c0-0.25-0.09-0.44-0.28-0.57c-0.19-0.14-0.51-0.25-0.97-0.35c-0.46-0.1-0.83-0.22-1.1-0.35
		c-0.27-0.14-0.47-0.3-0.6-0.49c-0.13-0.19-0.19-0.42-0.19-0.68c0-0.44,0.18-0.81,0.55-1.11c0.37-0.3,0.84-0.45,1.42-0.45
		c0.6,0,1.09,0.16,1.47,0.47c0.38,0.31,0.56,0.71,0.56,1.2h-0.92c0-0.25-0.11-0.46-0.32-0.65s-0.48-0.27-0.8-0.27
		c-0.33,0-0.59,0.07-0.78,0.22c-0.19,0.14-0.28,0.33-0.28,0.57c0,0.22,0.09,0.39,0.26,0.5s0.49,0.22,0.94,0.32s0.82,0.22,1.11,0.36
		c0.28,0.14,0.49,0.31,0.63,0.51c0.14,0.2,0.2,0.44,0.2,0.73c0,0.48-0.19,0.86-0.57,1.15c-0.38,0.29-0.88,0.43-1.48,0.43
		c-0.43,0-0.8-0.08-1.13-0.23c-0.33-0.15-0.58-0.36-0.77-0.63c-0.19-0.27-0.28-0.56-0.28-0.88h0.91c0.02,0.3,0.14,0.55,0.37,0.73
		s0.53,0.27,0.9,0.27c0.34,0,0.62-0.07,0.83-0.21C97.47,220.36,97.57,220.17,97.57,219.94z"/>
	<path class="st0" d="M100.91,214.73v1.29h1v0.7h-1v3.31c0,0.21,0.04,0.37,0.13,0.48c0.09,0.11,0.24,0.16,0.45,0.16
		c0.1,0,0.25-0.02,0.43-0.06v0.74c-0.24,0.06-0.47,0.1-0.7,0.1c-0.41,0-0.71-0.12-0.92-0.37c-0.21-0.25-0.31-0.6-0.31-1.05v-3.31
		h-0.97v-0.7H100v-1.29H100.91z"/>
	<path class="st0" d="M108.9,221.35h-1.67v-5.3l-1.64,0.48v-1.26l3.15-1.09h0.15V221.35z"/>
	<path class="st0" d="M115.45,218.55h0.73v1.28h-0.73v1.52h-1.66v-1.52h-2.77l-0.1-1.02l2.87-4.62v-0.01h1.66V218.55z M112.5,218.55
		h1.29v-2.21l-0.1,0.17L112.5,218.55z"/>
	<path class="st0" d="M119.24,218.65c0-0.84,0.18-1.51,0.55-2c0.36-0.49,0.87-0.73,1.53-0.73c0.48,0,0.88,0.19,1.2,0.56v-2.7h1.67
		v7.57h-1.49l-0.08-0.57c-0.34,0.45-0.78,0.67-1.3,0.67c-0.63,0-1.14-0.24-1.51-0.73C119.42,220.23,119.24,219.54,119.24,218.65z
		 M120.9,218.75c0,0.95,0.28,1.42,0.83,1.42c0.37,0,0.63-0.15,0.79-0.46v-2.03c-0.15-0.32-0.41-0.47-0.78-0.47
		c-0.51,0-0.79,0.41-0.83,1.24L120.9,218.75z"/>
	<path class="st0" d="M128.13,221.35c-0.06-0.11-0.11-0.27-0.16-0.48c-0.31,0.38-0.73,0.58-1.28,0.58c-0.5,0-0.93-0.15-1.28-0.46
		s-0.53-0.69-0.53-1.15c0-0.58,0.21-1.02,0.64-1.31c0.43-0.29,1.05-0.44,1.86-0.44h0.51v-0.28c0-0.49-0.21-0.74-0.64-0.74
		c-0.39,0-0.59,0.19-0.59,0.58h-1.66c0-0.51,0.22-0.93,0.66-1.25c0.44-0.32,1-0.48,1.68-0.48c0.68,0,1.22,0.17,1.61,0.5
		c0.39,0.33,0.6,0.79,0.61,1.37v2.36c0.01,0.49,0.08,0.86,0.23,1.12v0.08H128.13z M127.09,220.27c0.21,0,0.38-0.04,0.51-0.13
		c0.14-0.09,0.23-0.19,0.29-0.3v-0.85h-0.48c-0.58,0-0.87,0.26-0.87,0.78c0,0.15,0.05,0.27,0.15,0.37S126.93,220.27,127.09,220.27z"
		/>
	<path class="st0" d="M132.61,219.03l0.89-3.01h1.78l-2.17,6.22l-0.09,0.23c-0.31,0.69-0.85,1.03-1.64,1.03
		c-0.22,0-0.45-0.03-0.69-0.1v-1.18h0.22c0.23,0,0.41-0.03,0.54-0.1s0.21-0.19,0.27-0.36l0.13-0.35l-1.85-5.39h1.77L132.61,219.03z"
		/>
	<path class="st0" d="M138.5,219.85c0-0.14-0.07-0.25-0.22-0.34c-0.15-0.09-0.43-0.17-0.84-0.27s-0.76-0.21-1.03-0.36
		s-0.47-0.33-0.62-0.54c-0.14-0.21-0.21-0.46-0.21-0.73c0-0.49,0.2-0.89,0.61-1.21c0.4-0.32,0.93-0.48,1.59-0.48
		c0.7,0,1.27,0.16,1.7,0.48c0.43,0.32,0.64,0.74,0.64,1.26h-1.67c0-0.43-0.22-0.64-0.67-0.64c-0.17,0-0.32,0.05-0.44,0.15
		s-0.18,0.22-0.18,0.36c0,0.15,0.07,0.27,0.22,0.36s0.38,0.17,0.69,0.23c0.32,0.06,0.6,0.13,0.84,0.21c0.8,0.28,1.2,0.77,1.2,1.48
		c0,0.49-0.22,0.88-0.65,1.19c-0.43,0.3-0.99,0.46-1.68,0.46c-0.46,0-0.86-0.08-1.22-0.25c-0.36-0.17-0.64-0.39-0.84-0.67
		c-0.2-0.28-0.3-0.58-0.3-0.89h1.55c0.01,0.25,0.09,0.43,0.25,0.54c0.16,0.11,0.36,0.17,0.61,0.17c0.23,0,0.4-0.05,0.51-0.14
		S138.5,220,138.5,219.85z"/>
	<path class="st0" d="M141.14,222.78l-0.52-0.35c0.31-0.43,0.47-0.87,0.48-1.33v-0.82h0.89v0.71c0,0.33-0.08,0.66-0.24,1
		C141.59,222.31,141.38,222.58,141.14,222.78z M140.96,216.52c0-0.16,0.05-0.29,0.14-0.39c0.09-0.11,0.23-0.16,0.42-0.16
		c0.19,0,0.33,0.05,0.43,0.16c0.1,0.1,0.15,0.24,0.15,0.39c0,0.15-0.05,0.28-0.15,0.38s-0.24,0.15-0.43,0.15
		c-0.19,0-0.33-0.05-0.42-0.15S140.96,216.67,140.96,216.52z"/>
	<path class="st0" d="M20.88,233.54v2.81h-0.95v-7.18h2.65c0.79,0,1.4,0.2,1.85,0.6s0.67,0.93,0.67,1.59c0,0.7-0.22,1.23-0.65,1.61
		c-0.44,0.38-1.06,0.56-1.87,0.56H20.88z M20.88,232.77h1.7c0.51,0,0.89-0.12,1.16-0.36c0.27-0.24,0.4-0.58,0.4-1.03
		c0-0.43-0.13-0.77-0.4-1.03s-0.64-0.39-1.11-0.4h-1.75V232.77z"/>
	<path class="st0" d="M27.15,236.35h-0.91v-7.57h0.91V236.35z"/>
	<path class="st0" d="M31.9,236.35c-0.05-0.11-0.1-0.29-0.13-0.56c-0.42,0.44-0.93,0.66-1.52,0.66c-0.53,0-0.96-0.15-1.29-0.45
		c-0.34-0.3-0.5-0.67-0.5-1.13c0-0.55,0.21-0.99,0.63-1.29c0.42-0.31,1.02-0.46,1.78-0.46h0.89v-0.42c0-0.32-0.09-0.57-0.29-0.76
		c-0.19-0.19-0.47-0.28-0.84-0.28c-0.33,0-0.6,0.08-0.82,0.25c-0.22,0.16-0.33,0.36-0.33,0.6h-0.92c0-0.27,0.09-0.52,0.28-0.77
		c0.19-0.25,0.45-0.44,0.77-0.59c0.32-0.14,0.68-0.22,1.07-0.22c0.61,0,1.1,0.15,1.44,0.46c0.35,0.31,0.53,0.73,0.54,1.27v2.45
		c0,0.49,0.06,0.88,0.19,1.17v0.08H31.9z M30.39,235.66c0.29,0,0.56-0.07,0.81-0.22c0.26-0.15,0.44-0.34,0.56-0.58v-1.09h-0.71
		c-1.12,0-1.67,0.33-1.67,0.98c0,0.29,0.09,0.51,0.29,0.67S30.09,235.66,30.39,235.66z"/>
	<path class="st0" d="M34.96,231.02l0.03,0.67c0.41-0.51,0.94-0.77,1.6-0.77c1.13,0,1.7,0.64,1.71,1.91v3.52h-0.91v-3.53
		c0-0.38-0.09-0.67-0.26-0.85c-0.17-0.18-0.44-0.28-0.81-0.28c-0.29,0-0.55,0.08-0.78,0.24c-0.22,0.16-0.4,0.37-0.52,0.62v3.8H34.1
		v-5.33H34.96z"/>
	<path class="st0" d="M42.77,234.94c0-0.25-0.09-0.44-0.28-0.57c-0.19-0.14-0.51-0.25-0.97-0.35c-0.46-0.1-0.83-0.22-1.1-0.35
		c-0.27-0.14-0.47-0.3-0.6-0.49c-0.13-0.19-0.19-0.42-0.19-0.68c0-0.44,0.18-0.81,0.55-1.11c0.37-0.3,0.84-0.45,1.42-0.45
		c0.6,0,1.09,0.16,1.47,0.47c0.38,0.31,0.56,0.71,0.56,1.2h-0.92c0-0.25-0.11-0.46-0.32-0.65s-0.48-0.27-0.8-0.27
		c-0.33,0-0.59,0.07-0.78,0.22c-0.19,0.14-0.28,0.33-0.28,0.57c0,0.22,0.09,0.39,0.26,0.5s0.49,0.22,0.94,0.32s0.82,0.22,1.11,0.36
		c0.28,0.14,0.49,0.31,0.63,0.51c0.14,0.2,0.2,0.44,0.2,0.73c0,0.48-0.19,0.86-0.57,1.15c-0.38,0.29-0.88,0.43-1.48,0.43
		c-0.43,0-0.8-0.08-1.13-0.23c-0.33-0.15-0.58-0.36-0.77-0.63c-0.19-0.27-0.28-0.56-0.28-0.88h0.91c0.02,0.3,0.14,0.55,0.37,0.73
		s0.53,0.27,0.9,0.27c0.34,0,0.62-0.07,0.83-0.21C42.67,235.36,42.77,235.17,42.77,234.94z"/>
	<path class="st0" d="M50.48,234.94c0-0.25-0.09-0.44-0.28-0.57c-0.19-0.14-0.51-0.25-0.97-0.35c-0.46-0.1-0.83-0.22-1.1-0.35
		c-0.27-0.14-0.47-0.3-0.6-0.49c-0.13-0.19-0.19-0.42-0.19-0.68c0-0.44,0.18-0.81,0.55-1.11c0.37-0.3,0.84-0.45,1.42-0.45
		c0.6,0,1.09,0.16,1.47,0.47c0.38,0.31,0.56,0.71,0.56,1.2h-0.92c0-0.25-0.11-0.46-0.32-0.65s-0.48-0.27-0.8-0.27
		c-0.33,0-0.59,0.07-0.78,0.22c-0.19,0.14-0.28,0.33-0.28,0.57c0,0.22,0.09,0.39,0.26,0.5s0.49,0.22,0.94,0.32s0.82,0.22,1.11,0.36
		c0.28,0.14,0.49,0.31,0.63,0.51c0.14,0.2,0.2,0.44,0.2,0.73c0,0.48-0.19,0.86-0.57,1.15c-0.38,0.29-0.88,0.43-1.48,0.43
		c-0.43,0-0.8-0.08-1.13-0.23c-0.33-0.15-0.58-0.36-0.77-0.63c-0.19-0.27-0.28-0.56-0.28-0.88h0.91c0.02,0.3,0.14,0.55,0.37,0.73
		s0.53,0.27,0.9,0.27c0.34,0,0.62-0.07,0.83-0.21C50.37,235.36,50.48,235.17,50.48,234.94z"/>
	<path class="st0" d="M53.81,229.73v1.29h1v0.7h-1v3.31c0,0.21,0.04,0.37,0.13,0.48c0.09,0.11,0.24,0.16,0.45,0.16
		c0.1,0,0.25-0.02,0.43-0.06v0.74c-0.24,0.06-0.47,0.1-0.7,0.1c-0.41,0-0.71-0.12-0.92-0.37c-0.21-0.25-0.31-0.6-0.31-1.05v-3.31
		h-0.97v-0.7h0.97v-1.29H53.81z"/>
	<path class="st0" d="M59.16,236.35c-0.05-0.11-0.1-0.29-0.13-0.56c-0.42,0.44-0.93,0.66-1.52,0.66c-0.53,0-0.96-0.15-1.29-0.45
		c-0.34-0.3-0.5-0.67-0.5-1.13c0-0.55,0.21-0.99,0.63-1.29c0.42-0.31,1.02-0.46,1.78-0.46h0.89v-0.42c0-0.32-0.09-0.57-0.29-0.76
		c-0.19-0.19-0.47-0.28-0.84-0.28c-0.33,0-0.6,0.08-0.82,0.25c-0.22,0.16-0.33,0.36-0.33,0.6h-0.92c0-0.27,0.09-0.52,0.28-0.77
		c0.19-0.25,0.45-0.44,0.77-0.59c0.32-0.14,0.68-0.22,1.07-0.22c0.61,0,1.1,0.15,1.44,0.46c0.35,0.31,0.53,0.73,0.54,1.27v2.45
		c0,0.49,0.06,0.88,0.19,1.17v0.08H59.16z M57.65,235.66c0.29,0,0.56-0.07,0.81-0.22c0.26-0.15,0.44-0.34,0.56-0.58v-1.09h-0.71
		c-1.12,0-1.67,0.33-1.67,0.98c0,0.29,0.09,0.51,0.29,0.67S57.35,235.66,57.65,235.66z"/>
	<path class="st0" d="M63.94,231.84c-0.14-0.02-0.29-0.03-0.45-0.03c-0.6,0-1,0.25-1.22,0.76v3.79h-0.91v-5.33h0.89l0.01,0.62
		c0.3-0.48,0.72-0.71,1.27-0.71c0.18,0,0.31,0.02,0.4,0.07V231.84z"/>
	<path class="st0" d="M66.26,229.73v1.29h1v0.7h-1v3.31c0,0.21,0.04,0.37,0.13,0.48c0.09,0.11,0.24,0.16,0.45,0.16
		c0.1,0,0.25-0.02,0.43-0.06v0.74c-0.24,0.06-0.47,0.1-0.7,0.1c-0.41,0-0.71-0.12-0.92-0.37c-0.21-0.25-0.31-0.6-0.31-1.05v-3.31
		h-0.97v-0.7h0.97v-1.29H66.26z"/>
	<path class="st0" d="M68.33,229.6c0-0.15,0.04-0.27,0.13-0.37c0.09-0.1,0.22-0.15,0.4-0.15c0.18,0,0.31,0.05,0.4,0.15
		c0.09,0.1,0.14,0.23,0.14,0.37c0,0.15-0.05,0.27-0.14,0.37c-0.09,0.1-0.23,0.15-0.4,0.15c-0.18,0-0.31-0.05-0.4-0.15
		C68.37,229.88,68.33,229.75,68.33,229.6z M69.31,236.35H68.4v-5.33h0.91V236.35z"/>
	<path class="st0" d="M71.63,231.02l0.03,0.67c0.41-0.51,0.94-0.77,1.6-0.77c1.13,0,1.7,0.64,1.71,1.91v3.52h-0.91v-3.53
		c0-0.38-0.09-0.67-0.26-0.85c-0.17-0.18-0.44-0.28-0.81-0.28c-0.29,0-0.55,0.08-0.78,0.24c-0.22,0.16-0.4,0.37-0.52,0.62v3.8h-0.91
		v-5.33H71.63z"/>
	<path class="st0" d="M76.12,233.64c0-0.83,0.19-1.49,0.58-1.98s0.89-0.74,1.53-0.74c0.65,0,1.16,0.23,1.52,0.69l0.04-0.59h0.83v5.2
		c0,0.69-0.2,1.23-0.61,1.63s-0.96,0.6-1.65,0.6c-0.38,0-0.76-0.08-1.13-0.25c-0.37-0.16-0.65-0.39-0.84-0.67l0.47-0.55
		c0.39,0.48,0.87,0.72,1.43,0.72c0.44,0,0.79-0.12,1.04-0.38c0.25-0.25,0.37-0.6,0.37-1.05v-0.46c-0.36,0.42-0.86,0.63-1.49,0.63
		c-0.62,0-1.13-0.25-1.52-0.75C76.31,235.19,76.12,234.51,76.12,233.64z M77.04,233.74c0,0.6,0.12,1.07,0.37,1.42
		c0.25,0.34,0.59,0.52,1.03,0.52c0.58,0,1-0.26,1.27-0.78v-2.43c-0.28-0.51-0.7-0.76-1.26-0.76c-0.44,0-0.79,0.17-1.04,0.52
		C77.16,232.56,77.04,233.07,77.04,233.74z"/>
	<path class="st0" d="M87.79,236.35c-0.05-0.11-0.1-0.29-0.13-0.56c-0.42,0.44-0.93,0.66-1.52,0.66c-0.53,0-0.96-0.15-1.29-0.45
		c-0.34-0.3-0.5-0.67-0.5-1.13c0-0.55,0.21-0.99,0.63-1.29c0.42-0.31,1.02-0.46,1.78-0.46h0.89v-0.42c0-0.32-0.09-0.57-0.29-0.76
		c-0.19-0.19-0.47-0.28-0.84-0.28c-0.33,0-0.6,0.08-0.82,0.25c-0.22,0.16-0.33,0.36-0.33,0.6h-0.92c0-0.27,0.09-0.52,0.28-0.77
		c0.19-0.25,0.45-0.44,0.77-0.59c0.32-0.14,0.68-0.22,1.07-0.22c0.61,0,1.1,0.15,1.44,0.46c0.35,0.31,0.53,0.73,0.54,1.27v2.45
		c0,0.49,0.06,0.88,0.19,1.17v0.08H87.79z M86.28,235.66c0.29,0,0.56-0.07,0.81-0.22c0.26-0.15,0.44-0.34,0.56-0.58v-1.09h-0.71
		c-1.12,0-1.67,0.33-1.67,0.98c0,0.29,0.09,0.51,0.29,0.67S85.98,235.66,86.28,235.66z"/>
	<path class="st0" d="M91.23,229.73v1.29h1v0.7h-1v3.31c0,0.21,0.04,0.37,0.13,0.48c0.09,0.11,0.24,0.16,0.45,0.16
		c0.1,0,0.25-0.02,0.43-0.06v0.74c-0.24,0.06-0.47,0.1-0.7,0.1c-0.41,0-0.71-0.12-0.92-0.37c-0.21-0.25-0.31-0.6-0.31-1.05v-3.31
		h-0.97v-0.7h0.97v-1.29H91.23z"/>
	<path class="st0" d="M98.84,234.45c0-0.26-0.06-0.46-0.19-0.61c-0.13-0.15-0.35-0.29-0.68-0.42c-0.32-0.13-0.62-0.26-0.89-0.4
		c-0.27-0.13-0.51-0.29-0.71-0.47s-0.35-0.38-0.45-0.62c-0.11-0.23-0.16-0.52-0.16-0.85c0-0.55,0.19-1.01,0.56-1.37
		c0.37-0.36,0.87-0.57,1.5-0.63v-1.04h0.78v1.06c0.6,0.09,1.07,0.34,1.42,0.74c0.34,0.41,0.51,0.92,0.51,1.54h-1.67
		c0-0.34-0.07-0.6-0.2-0.79c-0.13-0.18-0.32-0.28-0.56-0.28c-0.22,0-0.39,0.07-0.51,0.21c-0.12,0.14-0.18,0.32-0.18,0.56
		c0,0.24,0.07,0.44,0.21,0.58c0.14,0.14,0.36,0.28,0.67,0.41s0.59,0.26,0.87,0.4c0.27,0.14,0.5,0.3,0.7,0.48s0.35,0.38,0.46,0.62
		c0.11,0.24,0.17,0.52,0.17,0.85c0,0.56-0.18,1.02-0.54,1.38s-0.84,0.56-1.46,0.62v0.99h-0.78v-1c-0.72-0.08-1.27-0.32-1.65-0.74
		c-0.38-0.42-0.57-0.96-0.57-1.64h1.66c0,0.38,0.08,0.66,0.25,0.86s0.4,0.29,0.71,0.29c0.22,0,0.4-0.07,0.53-0.2
		C98.78,234.87,98.84,234.68,98.84,234.45z"/>
	<path class="st0" d="M104.65,233.58c-0.36,0.32-0.76,0.48-1.2,0.48c-0.65,0-1.17-0.22-1.55-0.66s-0.57-1.03-0.57-1.76
		c0-0.46,0.11-0.89,0.32-1.28c0.21-0.39,0.51-0.71,0.9-0.94c0.39-0.23,0.81-0.35,1.28-0.35c0.47,0,0.9,0.12,1.28,0.36
		s0.68,0.58,0.89,1.01c0.21,0.44,0.32,0.94,0.33,1.5v0.64c0,0.79-0.16,1.48-0.47,2.06c-0.31,0.58-0.75,1.03-1.33,1.34
		c-0.58,0.31-1.25,0.47-2.01,0.47h-0.1v-1.33l0.32,0C103.89,235.06,104.52,234.55,104.65,233.58z M103.9,232.86
		c0.36,0,0.62-0.16,0.78-0.47v-0.69c0-0.46-0.08-0.8-0.23-1.02c-0.15-0.22-0.36-0.33-0.63-0.33c-0.23,0-0.43,0.12-0.59,0.38
		c-0.16,0.25-0.24,0.55-0.24,0.91c0,0.38,0.08,0.67,0.24,0.89C103.4,232.75,103.62,232.86,103.9,232.86z"/>
	<path class="st0" d="M108.28,234.74c0.26,0,0.48,0.08,0.66,0.23c0.17,0.16,0.26,0.36,0.26,0.6s-0.09,0.44-0.26,0.6
		c-0.17,0.16-0.39,0.23-0.66,0.23c-0.27,0-0.49-0.08-0.66-0.24c-0.17-0.16-0.26-0.36-0.26-0.6c0-0.24,0.09-0.44,0.26-0.6
		C107.79,234.82,108.01,234.74,108.28,234.74z"/>
	<path class="st0" d="M113.55,233.58c-0.36,0.32-0.76,0.48-1.2,0.48c-0.65,0-1.17-0.22-1.55-0.66s-0.57-1.03-0.57-1.76
		c0-0.46,0.11-0.89,0.32-1.28c0.21-0.39,0.51-0.71,0.9-0.94c0.39-0.23,0.81-0.35,1.28-0.35c0.47,0,0.9,0.12,1.28,0.36
		s0.68,0.58,0.89,1.01c0.21,0.44,0.32,0.94,0.33,1.5v0.64c0,0.79-0.16,1.48-0.47,2.06c-0.31,0.58-0.75,1.03-1.33,1.34
		c-0.58,0.31-1.25,0.47-2.01,0.47h-0.1v-1.33l0.32,0C112.78,235.06,113.42,234.55,113.55,233.58z M112.79,232.86
		c0.36,0,0.62-0.16,0.78-0.47v-0.69c0-0.46-0.08-0.8-0.23-1.02c-0.15-0.22-0.36-0.33-0.63-0.33c-0.23,0-0.43,0.12-0.59,0.38
		c-0.16,0.25-0.24,0.55-0.24,0.91c0,0.38,0.08,0.67,0.24,0.89C112.29,232.75,112.51,232.86,112.79,232.86z"/>
	<path class="st0" d="M119.39,233.58c-0.36,0.32-0.76,0.48-1.2,0.48c-0.65,0-1.17-0.22-1.55-0.66s-0.57-1.03-0.57-1.76
		c0-0.46,0.11-0.89,0.32-1.28c0.21-0.39,0.51-0.71,0.9-0.94c0.39-0.23,0.81-0.35,1.28-0.35c0.47,0,0.9,0.12,1.28,0.36
		s0.68,0.58,0.89,1.01c0.21,0.44,0.32,0.94,0.33,1.5v0.64c0,0.79-0.16,1.48-0.47,2.06c-0.31,0.58-0.75,1.03-1.33,1.34
		c-0.58,0.31-1.25,0.47-2.01,0.47h-0.1v-1.33l0.32,0C118.63,235.06,119.26,234.55,119.39,233.58z M118.64,232.86
		c0.36,0,0.62-0.16,0.78-0.47v-0.69c0-0.46-0.08-0.8-0.23-1.02c-0.15-0.22-0.36-0.33-0.63-0.33c-0.23,0-0.43,0.12-0.59,0.38
		c-0.16,0.25-0.24,0.55-0.24,0.91c0,0.38,0.08,0.67,0.24,0.89C118.14,232.75,118.36,232.86,118.64,232.86z"/>
	<path class="st0" d="M122.56,236.97h-1.18l2.45-7.79h1.18L122.56,236.97z"/>
	<path class="st0" d="M127.1,231.02l0.05,0.63c0.38-0.48,0.88-0.72,1.52-0.72c0.67,0,1.13,0.27,1.37,0.8
		c0.36-0.54,0.88-0.8,1.57-0.8c1.08,0,1.64,0.65,1.67,1.96v3.47h-1.67v-3.37c0-0.27-0.05-0.47-0.14-0.6
		c-0.09-0.12-0.26-0.19-0.5-0.19c-0.33,0-0.57,0.15-0.73,0.44l0,0.07v3.64h-1.67V233c0-0.28-0.04-0.48-0.13-0.61
		s-0.26-0.19-0.51-0.19c-0.32,0-0.56,0.15-0.73,0.44v3.71h-1.66v-5.33H127.1z"/>
	<path class="st0" d="M134.02,233.64c0-0.53,0.1-1.01,0.31-1.42c0.21-0.42,0.5-0.73,0.89-0.96s0.84-0.33,1.37-0.33
		c0.8,0,1.43,0.25,1.89,0.74c0.46,0.5,0.69,1.17,0.69,2.02v0.06c0,0.83-0.23,1.49-0.69,1.98c-0.46,0.49-1.09,0.73-1.88,0.73
		c-0.76,0-1.37-0.23-1.83-0.68s-0.71-1.07-0.74-1.85L134.02,233.64z M135.68,233.74c0,0.49,0.08,0.85,0.23,1.08
		c0.15,0.23,0.38,0.34,0.69,0.34c0.59,0,0.89-0.46,0.91-1.37v-0.17c0-0.96-0.31-1.43-0.92-1.43c-0.56,0-0.86,0.41-0.9,1.24
		L135.68,233.74z"/>
	<path class="st0" d="M141.42,231.02l0.05,0.63c0.37-0.48,0.88-0.72,1.52-0.72c0.55,0,0.97,0.17,1.24,0.5
		c0.27,0.33,0.42,0.83,0.43,1.5v3.43H143v-3.37c0-0.27-0.05-0.47-0.16-0.59c-0.11-0.13-0.31-0.19-0.59-0.19
		c-0.33,0-0.57,0.13-0.72,0.38v3.77h-1.66v-5.33H141.42z"/>
	<path class="st0" d="M147.52,229.69v1.33h0.88v1.15h-0.88v2.44c0,0.2,0.04,0.34,0.11,0.42c0.07,0.08,0.21,0.12,0.43,0.12
		c0.16,0,0.3-0.01,0.41-0.03v1.19c-0.3,0.09-0.61,0.14-0.94,0.14c-0.57,0-0.99-0.13-1.27-0.4s-0.41-0.68-0.41-1.23v-2.65h-0.68
		v-1.15h0.68v-1.33H147.52z"/>
	<path class="st0" d="M150.68,231.59c0.35-0.45,0.81-0.67,1.36-0.67c0.59,0,1.03,0.17,1.33,0.52c0.3,0.35,0.45,0.86,0.46,1.54v3.37
		h-1.67v-3.33c0-0.28-0.06-0.49-0.17-0.62s-0.31-0.2-0.59-0.2c-0.34,0-0.58,0.11-0.73,0.33v3.82h-1.66v-7.57h1.66V231.59z"/>
</g>
</svg>
