<svg id="Layer_1" xmlns="http://www.w3.org/2000/svg" viewBox="0 0 320 468"><style>.st0{fill:#021d8b}</style><g id="C1_-_O"><path class="st0" d="M84.04 246.69v8.27h-4.83V231.5h9.15c1.76 0 3.31.32 4.65.97 1.34.64 2.37 1.56 3.09 2.75.72 1.19 1.08 2.54 1.08 4.05 0 2.3-.79 4.11-2.36 5.44s-3.75 1.99-6.53 1.99h-4.25zm0-3.91h4.32c1.28 0 2.25-.3 2.92-.9.67-.6 1.01-1.46 1.01-2.58 0-1.15-.34-2.08-1.02-2.79s-1.61-1.07-2.8-1.1h-4.43v7.37zM105.1 254.96h-4.67v-24.75h4.67v24.75zM119.04 254.96c-.21-.42-.37-.94-.47-1.56-1.13 1.26-2.59 1.89-4.4 1.89-1.71 0-3.12-.49-4.25-1.48s-1.68-2.23-1.68-3.74c0-1.85.68-3.27 2.05-4.25 1.37-.99 3.35-1.49 5.94-1.5h2.14v-1c0-.81-.21-1.45-.62-1.93s-1.07-.73-1.96-.73c-.78 0-1.4.19-1.85.56s-.67.89-.67 1.55h-4.66c0-1.01.31-1.94.93-2.8s1.5-1.53 2.64-2.02 2.42-.73 3.83-.73c2.15 0 3.85.54 5.12 1.62 1.26 1.08 1.89 2.6 1.89 4.55v7.56c.01 1.65.24 2.91.69 3.75v.27h-4.67zm-3.85-3.24c.69 0 1.32-.15 1.9-.46.58-.31 1.01-.72 1.29-1.23v-3h-1.74c-2.33 0-3.57.81-3.72 2.42l-.02.27c0 .58.2 1.06.61 1.43s.97.57 1.68.57zM130.92 237.52l.15 2.01c1.25-1.56 2.92-2.34 5.01-2.34 1.85 0 3.22.54 4.12 1.63s1.36 2.71 1.39 4.87v11.26h-4.66V243.8c0-.99-.21-1.71-.64-2.15-.43-.45-1.14-.67-2.14-.67-1.31 0-2.29.56-2.95 1.68v12.29h-4.66v-17.43h4.38zM149.4 237.52l.15 2.01c1.25-1.56 2.92-2.34 5.01-2.34 1.85 0 3.22.54 4.12 1.63s1.36 2.71 1.39 4.87v11.26h-4.66V243.8c0-.99-.21-1.71-.64-2.15-.43-.45-1.14-.67-2.14-.67-1.31 0-2.29.56-2.95 1.68v12.29h-4.66v-17.43h4.38zM163.56 233.01c0-.7.23-1.27.7-1.72.47-.45 1.1-.68 1.91-.68.79 0 1.43.23 1.9.68s.71 1.03.71 1.72c0 .71-.24 1.29-.72 1.74s-1.11.68-1.89.68-1.42-.23-1.89-.68c-.48-.45-.72-1.03-.72-1.74zm4.95 21.95h-4.67v-17.43h4.67v17.43zM176.63 237.52l.15 2.01c1.25-1.56 2.92-2.34 5.01-2.34 1.85 0 3.22.54 4.12 1.63s1.36 2.71 1.39 4.87v11.26h-4.66V243.8c0-.99-.21-1.71-.64-2.15-.43-.45-1.14-.67-2.14-.67-1.31 0-2.29.56-2.95 1.68v12.29h-4.66v-17.43h4.38zM190.15 246.11c0-2.67.64-4.83 1.91-6.46s2.99-2.45 5.15-2.45c1.91 0 3.4.66 4.46 1.97l.19-1.64h4.22v16.85c0 1.53-.35 2.85-1.04 3.98-.69 1.13-1.67 1.99-2.92 2.58s-2.73.89-4.42.89c-1.28 0-2.52-.26-3.74-.77s-2.13-1.17-2.75-1.97l2.06-2.84c1.16 1.3 2.57 1.95 4.22 1.95 1.24 0 2.2-.33 2.88-.99.69-.66 1.03-1.6 1.03-2.81v-.93c-1.07 1.21-2.49 1.82-4.24 1.82-2.09 0-3.79-.82-5.08-2.46-1.29-1.64-1.94-3.81-1.94-6.52v-.2zm4.65.35c0 1.58.32 2.82.95 3.72.63.9 1.5 1.35 2.61 1.35 1.42 0 2.43-.53 3.04-1.6v-7.34c-.62-1.06-1.63-1.6-3.01-1.6-1.12 0-2 .46-2.63 1.37-.64.91-.96 2.28-.96 4.1zM223.45 233.24v4.29h2.98v3.42h-2.98v8.7c0 .64.12 1.11.37 1.39s.72.42 1.42.42c.52 0 .97-.04 1.37-.11v3.53c-.91.28-1.85.42-2.82.42-3.27 0-4.93-1.65-5-4.95v-9.39h-2.55v-3.42h2.55v-4.29h4.66zM227.82 246.08c0-1.73.33-3.27 1-4.62s1.62-2.4 2.88-3.14c1.25-.74 2.7-1.11 4.36-1.11 2.35 0 4.27.72 5.76 2.16 1.49 1.44 2.32 3.39 2.49 5.87l.03 1.19c0 2.67-.75 4.82-2.24 6.44s-3.5 2.42-6.01 2.42-4.52-.81-6.02-2.42c-1.5-1.61-2.25-3.8-2.25-6.57v-.22zm4.66.33c0 1.66.31 2.92.93 3.8.62.88 1.52 1.32 2.68 1.32 1.13 0 2.01-.43 2.64-1.3.63-.87.95-2.25.95-4.16 0-1.62-.32-2.88-.95-3.78-.63-.89-1.53-1.34-2.68-1.34-1.14 0-2.02.44-2.64 1.33s-.93 2.27-.93 4.13zM86.57 277.12l.15 1.95c1.24-1.52 2.91-2.27 5.01-2.27 2.25 0 3.79.89 4.62 2.66 1.22-1.77 2.97-2.66 5.24-2.66 1.89 0 3.3.55 4.22 1.65.92 1.1 1.39 2.76 1.39 4.97v11.13h-4.67v-11.12c0-.99-.19-1.71-.58-2.17-.39-.46-1.07-.69-2.05-.69-1.4 0-2.36.67-2.9 2l.02 11.97h-4.66v-11.1c0-1.01-.2-1.74-.6-2.19s-1.07-.68-2.03-.68c-1.32 0-2.28.55-2.87 1.64v12.33H82.2v-17.43h4.37zM120.88 294.56c-.21-.42-.37-.94-.47-1.56-1.13 1.26-2.59 1.88-4.4 1.88-1.71 0-3.12-.49-4.25-1.48s-1.68-2.23-1.68-3.74c0-1.85.68-3.27 2.05-4.25 1.37-.99 3.35-1.49 5.94-1.5h2.14v-1c0-.8-.21-1.45-.62-1.93-.41-.48-1.07-.72-1.96-.72-.78 0-1.4.19-1.85.56s-.67.89-.67 1.55h-4.66c0-1.01.31-1.94.93-2.8.62-.86 1.5-1.53 2.64-2.02 1.14-.49 2.42-.73 3.83-.73 2.15 0 3.85.54 5.12 1.62 1.26 1.08 1.89 2.6 1.89 4.55v7.56c.01 1.65.24 2.91.69 3.75v.27h-4.67zm-3.85-3.24c.69 0 1.32-.15 1.9-.46.58-.31 1.01-.72 1.29-1.23v-3h-1.74c-2.33 0-3.57.81-3.72 2.42l-.02.27c0 .58.2 1.06.61 1.43s.97.57 1.68.57zM134.8 287.57l-1.68 1.68v5.32h-4.66v-24.75h4.66v13.71l.9-1.16 4.46-5.24h5.59l-6.3 7.27 6.85 10.17h-5.35l-4.47-7zM153.8 294.88c-2.56 0-4.64-.78-6.24-2.35-1.61-1.57-2.41-3.66-2.41-6.27v-.45c0-1.75.34-3.32 1.02-4.7.68-1.38 1.64-2.44 2.88-3.19s2.66-1.12 4.25-1.12c2.38 0 4.26.75 5.63 2.26 1.37 1.5 2.05 3.64 2.05 6.4v1.9h-11.1c.15 1.14.6 2.05 1.36 2.74.76.69 1.72 1.03 2.88 1.03 1.79 0 3.2-.65 4.21-1.95l2.29 2.56c-.7.99-1.64 1.76-2.84 2.31-1.21.55-2.53.83-3.98.83zm-.54-14.32c-.92 0-1.67.31-2.25.94s-.94 1.52-1.1 2.69h6.48v-.37c-.02-1.04-.3-1.84-.84-2.4s-1.3-.86-2.29-.86zM181.93 294.56c-.21-.42-.37-.94-.47-1.56-1.13 1.26-2.59 1.88-4.4 1.88-1.71 0-3.12-.49-4.25-1.48s-1.68-2.23-1.68-3.74c0-1.85.68-3.27 2.05-4.25 1.37-.99 3.35-1.49 5.94-1.5h2.14v-1c0-.8-.21-1.45-.62-1.93-.41-.48-1.07-.72-1.96-.72-.78 0-1.4.19-1.85.56s-.67.89-.67 1.55h-4.66c0-1.01.31-1.94.93-2.8.62-.86 1.5-1.53 2.64-2.02 1.14-.49 2.42-.73 3.83-.73 2.15 0 3.85.54 5.12 1.62 1.26 1.08 1.89 2.6 1.89 4.55v7.56c.01 1.65.24 2.91.69 3.75v.27h-4.67zm-3.85-3.24c.69 0 1.32-.15 1.9-.46.58-.31 1.01-.72 1.29-1.23v-3h-1.74c-2.33 0-3.57.81-3.72 2.42l-.02.27c0 .58.2 1.06.61 1.43s.97.57 1.68.57zM213.45 286c0 2.79-.6 4.97-1.79 6.53-1.19 1.56-2.86 2.34-5 2.34-1.89 0-3.4-.72-4.53-2.18l-.21 1.85h-4.19v-24.75h4.66v8.88c1.07-1.26 2.49-1.89 4.24-1.89 2.13 0 3.79.78 5 2.34 1.21 1.56 1.81 3.76 1.81 6.6v.28zm-4.66-.34c0-1.76-.28-3.05-.84-3.86-.56-.81-1.39-1.22-2.5-1.22-1.48 0-2.5.61-3.06 1.82v6.88c.57 1.22 1.6 1.84 3.09 1.84 1.5 0 2.49-.74 2.96-2.22.24-.71.35-1.79.35-3.24zM216.28 272.61c0-.7.23-1.27.7-1.72.47-.45 1.1-.68 1.91-.68.79 0 1.43.23 1.9.68s.71 1.03.71 1.72c0 .71-.24 1.29-.72 1.74-.48.45-1.11.68-1.89.68-.79 0-1.42-.23-1.89-.68-.48-.45-.72-1.03-.72-1.74zm4.95 21.95h-4.67v-17.43h4.67v17.43zM224.39 285.71c0-2.68.64-4.83 1.91-6.46s2.99-2.45 5.15-2.45c1.91 0 3.4.66 4.46 1.97l.19-1.64h4.22v16.85c0 1.53-.35 2.85-1.04 3.98-.69 1.13-1.67 1.99-2.92 2.58-1.26.59-2.73.89-4.42.89-1.28 0-2.52-.25-3.74-.77-1.21-.51-2.13-1.17-2.75-1.97l2.06-2.84c1.16 1.3 2.57 1.95 4.22 1.95 1.24 0 2.2-.33 2.88-.99.69-.66 1.03-1.6 1.03-2.81v-.93c-1.07 1.21-2.49 1.82-4.24 1.82-2.09 0-3.79-.82-5.08-2.46-1.29-1.64-1.94-3.81-1.94-6.52v-.2zm4.66.35c0 1.58.32 2.82.95 3.72s1.5 1.35 2.61 1.35c1.42 0 2.43-.53 3.04-1.6v-7.34c-.62-1.07-1.63-1.6-3.01-1.6-1.12 0-2 .46-2.63 1.37-.64.92-.96 2.28-.96 4.1zM102.06 325.6c0 2.69-.61 4.84-1.83 6.45-1.22 1.62-2.87 2.42-4.94 2.42-1.76 0-3.19-.61-4.27-1.84v8.22h-4.66v-24.14h4.32l.16 1.71c1.13-1.35 2.6-2.03 4.42-2.03 2.15 0 3.82.79 5.01 2.38s1.79 3.78 1.79 6.57v.26zm-4.65-.34c0-1.62-.29-2.87-.86-3.75s-1.41-1.32-2.51-1.32c-1.46 0-2.47.56-3.01 1.68V329c.57 1.15 1.58 1.72 3.05 1.72 2.22.01 3.33-1.81 3.33-5.46zM115.39 332.39c-1.15 1.4-2.74 2.09-4.77 2.09-1.87 0-3.3-.54-4.28-1.61-.98-1.07-1.49-2.65-1.51-4.72v-11.42h4.66V328c0 1.82.83 2.73 2.48 2.73 1.58 0 2.66-.55 3.25-1.65v-12.36h4.67v17.43h-4.38l-.12-1.76zM133.21 321.09c-.63-.08-1.19-.13-1.68-.13-1.76 0-2.92.6-3.46 1.79v11.41h-4.66v-17.43h4.4l.13 2.08c.93-1.6 2.23-2.4 3.88-2.4.52 0 1 .07 1.45.21l-.06 4.47zM142.4 330.73c.86 0 1.56-.24 2.09-.71s.82-1.1.84-1.89h4.37a5.95 5.95 0 0 1-.97 3.25c-.63.98-1.5 1.75-2.6 2.29s-2.32.81-3.65.81c-2.49 0-4.46-.79-5.9-2.38-1.44-1.58-2.16-3.77-2.16-6.57v-.31c0-2.69.71-4.83 2.14-6.43s3.39-2.4 5.88-2.4c2.18 0 3.93.62 5.25 1.86 1.32 1.24 1.98 2.89 2.01 4.95h-4.37c-.02-.91-.3-1.64-.84-2.21-.54-.57-1.25-.85-2.13-.85-1.08 0-1.9.4-2.46 1.19-.55.79-.83 2.07-.83 3.85v.48c0 1.8.27 3.09.82 3.87.56.8 1.39 1.2 2.51 1.2zM156.9 318.63c1.24-1.48 2.79-2.22 4.66-2.22 3.78 0 5.7 2.2 5.75 6.59v11.17h-4.66v-11.04c0-1-.21-1.74-.64-2.22-.43-.48-1.14-.72-2.14-.72-1.36 0-2.35.53-2.96 1.58v12.39h-4.66v-24.75h4.66v9.22zM180.92 334.16c-.21-.42-.37-.94-.47-1.56-1.13 1.26-2.59 1.88-4.4 1.88-1.71 0-3.12-.49-4.25-1.48s-1.68-2.23-1.68-3.74c0-1.85.68-3.27 2.05-4.25 1.37-.99 3.35-1.49 5.94-1.5h2.14v-1c0-.8-.21-1.45-.62-1.93-.41-.48-1.07-.72-1.96-.72-.78 0-1.4.19-1.85.56s-.67.89-.67 1.55h-4.66c0-1.01.31-1.94.93-2.8.62-.86 1.5-1.53 2.64-2.02 1.14-.49 2.42-.73 3.83-.73 2.15 0 3.85.54 5.12 1.62 1.26 1.08 1.89 2.6 1.89 4.55v7.56c.01 1.65.24 2.91.69 3.75v.27h-4.67zm-3.85-3.24c.69 0 1.32-.15 1.9-.46.58-.31 1.01-.72 1.29-1.23v-3h-1.74c-2.33 0-3.57.81-3.72 2.42l-.02.27c0 .58.2 1.06.61 1.43s.97.57 1.68.57zM197.95 329.34c0-.57-.28-1.02-.85-1.34-.56-.33-1.47-.62-2.71-.88-4.15-.87-6.22-2.63-6.22-5.29 0-1.55.64-2.84 1.93-3.88 1.28-1.04 2.96-1.55 5.04-1.55 2.21 0 3.98.52 5.31 1.56s1.99 2.4 1.99 4.06h-4.66c0-.67-.21-1.22-.64-1.65-.43-.43-1.1-.65-2.02-.65-.78 0-1.39.18-1.82.53-.43.36-.64.81-.64 1.35 0 .52.24.93.73 1.25.49.32 1.31.59 2.47.82 1.16.23 2.14.49 2.93.78 2.46.9 3.69 2.47 3.69 4.69 0 1.59-.68 2.88-2.05 3.86-1.37.98-3.13 1.47-5.29 1.47-1.46 0-2.76-.26-3.89-.78-1.13-.52-2.02-1.24-2.67-2.14-.64-.91-.97-1.89-.97-2.94h4.42c.04.83.35 1.46.92 1.9.57.44 1.33.66 2.29.66.89 0 1.57-.17 2.02-.51.47-.33.69-.77.69-1.32zM213.5 334.48c-2.56 0-4.64-.78-6.24-2.35-1.61-1.57-2.41-3.66-2.41-6.27v-.45c0-1.75.34-3.32 1.02-4.7.68-1.38 1.63-2.44 2.88-3.19 1.24-.75 2.66-1.12 4.25-1.12 2.38 0 4.26.75 5.63 2.26 1.37 1.5 2.05 3.64 2.05 6.4v1.9h-11.1c.15 1.14.6 2.05 1.36 2.74.76.69 1.72 1.03 2.88 1.03 1.79 0 3.2-.65 4.21-1.95l2.29 2.56c-.7.99-1.64 1.76-2.84 2.31-1.21.55-2.53.83-3.98.83zm-.53-14.32c-.92 0-1.67.31-2.25.94-.57.63-.94 1.52-1.1 2.69h6.48v-.37c-.02-1.04-.3-1.84-.84-2.4s-1.3-.86-2.29-.86zM227.12 326.97c0-1.5.18-2.7.55-3.6s1.03-1.77 2.01-2.64c.97-.87 1.62-1.57 1.94-2.11.32-.54.48-1.12.48-1.72 0-1.82-.84-2.73-2.51-2.73-.79 0-1.43.25-1.91.74s-.73 1.17-.75 2.03h-4.67c.02-2.05.69-3.66 1.99-4.82 1.31-1.16 3.09-1.74 5.34-1.74 2.28 0 4.04.55 5.3 1.65 1.26 1.1 1.89 2.66 1.89 4.67 0 .91-.2 1.78-.61 2.59s-1.12 1.71-2.14 2.7l-1.31 1.24c-.82.79-1.28 1.71-1.4 2.76l-.06.98h-4.14zm-.47 4.94c0-.72.24-1.31.73-1.77.49-.47 1.11-.7 1.88-.7s1.39.23 1.88.7.73 1.06.73 1.77-.24 1.29-.72 1.75c-.48.46-1.11.69-1.89.69s-1.42-.23-1.89-.69c-.48-.46-.72-1.04-.72-1.75z"/></g></svg>