<svg id="Layer_1" xmlns="http://www.w3.org/2000/svg" viewBox="0 0 320 468"><style>.st0{fill:#021d8b;stroke:url(#SVGID_1_);stroke-width:2;stroke-miterlimit:10}.st1{fill:#fff}</style><linearGradient id="SVGID_1_" gradientUnits="userSpaceOnUse" x1="83.241" y1="295.892" x2="233.532" y2="295.892"><stop offset="0" stop-color="#18b9fb"/><stop offset=".5" stop-color="#782eeb"/><stop offset="1" stop-color="#e82d8a"/></linearGradient><path class="st0" d="M209.8 318.62H106.97c-12.55 0-22.73-10.18-22.73-22.73s10.18-22.73 22.73-22.73H209.8c12.55 0 22.73 10.18 22.73 22.73 0 12.56-10.18 22.73-22.73 22.73z"/><path class="st1" d="M114.04 299.27h5.86v2.22h-8.62V288.1h2.76v11.17zM125.88 301.67c-1.46 0-2.65-.45-3.56-1.34-.92-.9-1.38-2.09-1.38-3.58v-.26c0-1 .19-1.89.58-2.68.39-.79.93-1.4 1.64-1.82.71-.43 1.52-.64 2.42-.64 1.36 0 2.43.43 3.21 1.29.78.86 1.17 2.08 1.17 3.65v1.08h-6.34c.09.65.34 1.17.78 1.56.43.39.98.59 1.64.59 1.02 0 1.82-.37 2.4-1.11l1.31 1.46c-.4.56-.94 1-1.62 1.32s-1.42.48-2.25.48zm-.3-8.17c-.53 0-.96.18-1.28.54-.33.36-.54.87-.63 1.53h3.7v-.21c-.01-.59-.17-1.05-.48-1.37s-.75-.49-1.31-.49zM137.25 301.49c-.12-.24-.21-.54-.27-.89-.64.72-1.48 1.08-2.51 1.08-.97 0-1.78-.28-2.42-.85-.64-.56-.96-1.28-.96-2.13 0-1.05.39-1.86 1.17-2.43s1.91-.85 3.39-.86h1.22v-.57c0-.46-.12-.83-.35-1.1-.24-.28-.61-.41-1.12-.41-.45 0-.8.11-1.05.32-.25.21-.38.51-.38.88h-2.66c0-.58.18-1.11.53-1.6.36-.49.86-.88 1.51-1.16.65-.28 1.38-.42 2.19-.42 1.23 0 2.2.31 2.92.92.72.62 1.08 1.48 1.08 2.6v4.31c.01.94.14 1.66.4 2.14v.16h-2.69zm-2.2-1.85c.39 0 .75-.09 1.09-.26s.58-.41.74-.7v-1.71h-.99c-1.33 0-2.04.46-2.12 1.38l-.01.16c0 .33.12.6.35.82s.54.31.94.31zM147.18 294.03a6.99 6.99 0 0 0-.96-.07c-1.01 0-1.66.34-1.98 1.02v6.51h-2.66v-9.95h2.51l.07 1.19c.53-.91 1.27-1.37 2.22-1.37.29 0 .57.04.83.12l-.03 2.55zM150.9 291.54l.08 1.15c.71-.89 1.66-1.33 2.86-1.33 1.05 0 1.84.31 2.35.93.52.62.78 1.55.79 2.78v6.43h-2.66v-6.37c0-.56-.12-.97-.37-1.23-.25-.25-.65-.38-1.22-.38-.75 0-1.31.32-1.68.96v7.02h-2.66v-9.95h2.51zM166.19 291.54l.08 1.11c.71-.86 1.66-1.3 2.86-1.3 1.28 0 2.16.51 2.64 1.52.7-1.01 1.7-1.52 2.99-1.52 1.08 0 1.88.31 2.41.94.53.63.79 1.58.79 2.84v6.36h-2.67v-6.35c0-.56-.11-.98-.33-1.24s-.61-.39-1.17-.39c-.8 0-1.35.38-1.66 1.14l.01 6.83h-2.66v-6.34c0-.58-.11-.99-.34-1.25-.23-.26-.61-.39-1.16-.39-.75 0-1.3.31-1.64.94v7.04h-2.66v-9.95h2.51zM179.59 296.42c0-.99.19-1.87.57-2.64.38-.77.93-1.37 1.64-1.79.71-.42 1.54-.63 2.49-.63 1.34 0 2.44.41 3.29 1.23.85.82 1.32 1.94 1.42 3.35l.02.68c0 1.53-.43 2.75-1.28 3.67-.85.92-2 1.38-3.43 1.38-1.43 0-2.58-.46-3.44-1.38s-1.28-2.17-1.28-3.75v-.12zm2.66.19c0 .95.18 1.67.53 2.17.36.5.86.75 1.53.75.64 0 1.15-.25 1.51-.74.36-.49.54-1.29.54-2.37 0-.93-.18-1.65-.54-2.16-.36-.51-.87-.76-1.53-.76-.65 0-1.15.25-1.51.76s-.53 1.29-.53 2.35zM196.25 294.03a6.99 6.99 0 0 0-.96-.07c-1 0-1.66.34-1.98 1.02v6.51h-2.66v-9.95h2.51l.07 1.19c.53-.91 1.27-1.37 2.22-1.37.29 0 .57.04.83.12l-.03 2.55zM202.11 301.67c-1.46 0-2.65-.45-3.56-1.34s-1.38-2.09-1.38-3.58v-.26c0-1 .19-1.89.58-2.68.39-.79.93-1.4 1.64-1.82.71-.43 1.52-.64 2.42-.64 1.36 0 2.43.43 3.21 1.29.78.86 1.17 2.08 1.17 3.65v1.08h-6.34c.09.65.34 1.17.78 1.56.43.39.98.59 1.64.59 1.02 0 1.82-.37 2.4-1.11l1.31 1.46c-.4.56-.94 1-1.62 1.32s-1.42.48-2.25.48zm-.3-8.17c-.53 0-.96.18-1.28.54-.33.36-.54.87-.63 1.53h3.7v-.21c-.01-.59-.17-1.05-.48-1.37s-.75-.49-1.31-.49z"/></svg>