<svg id="Layer_1" xmlns="http://www.w3.org/2000/svg" viewBox="0 0 300 250"><style>.st0{fill:#2a3380}</style><path class="st0" d="M24 146.8h-3.6v3.3h4.1v.3h-4.3v-7.1h4.3v.3h-4.1v3.1H24v.1zM26 146.3c.2-.4.4-.7.8-1 .3-.2.7-.4 1.1-.4.6 0 1 .2 1.3.5.3.3.4.8.4 1.5v3.4h-.3v-3.5c0-.6-.1-1-.3-1.3s-.6-.4-1.1-.4c-.5 0-.9.2-1.2.5-.3.3-.6.7-.7 1.3v3.4h-.3V145h.3v1.3zM33.5 145.3h-.3c-.4 0-.8.1-1.1.4s-.5.7-.6 1.2v3.5h-.3v-5.3h.3v1.1c.1-.4.4-.7.6-.9s.6-.3 1.1-.3c.2 0 .3 0 .4.1l-.1.2zM34 147.6c0-.5.1-1 .3-1.4.2-.4.5-.7.8-.9.4-.2.8-.3 1.2-.3.4 0 .8.1 1.2.3.4.2.6.5.8.9.2.4.3.9.3 1.4v.2c0 .5-.1 1-.3 1.4s-.5.7-.8.9c-.4.2-.8.3-1.2.3s-.8-.1-1.2-.3c-.4-.2-.6-.5-.8-.9-.2-.4-.3-.8-.3-1.3v-.3zm.3.2c0 .4.1.8.3 1.2.2.4.4.7.7.9.3.2.7.3 1.1.3.6 0 1.1-.2 1.5-.7.4-.5.6-1 .6-1.7v-.2c0-.4-.1-.8-.3-1.2-.2-.4-.4-.7-.7-.9-.3-.2-.7-.3-1.1-.3-.6 0-1.1.2-1.5.7s-.6 1-.6 1.7v.2zM40.3 150.3H40v-7.5h.3v7.5zM42.3 150.3H42v-7.5h.3v7.5zM46.4 143.4c0-.1 0-.1.1-.2s.1-.1.2-.1.1 0 .2.1.1.1.1.2 0 .1-.1.2-.1.1-.2.1-.1 0-.2-.1c-.1 0-.1-.1-.1-.2zm.4 6.9h-.3V145h.3v5.3zM48.8 146.3c.2-.4.4-.7.8-1 .3-.2.7-.4 1.1-.4.6 0 1 .2 1.3.5.3.3.4.8.4 1.5v3.4h-.3v-3.5c0-.6-.1-1-.3-1.3s-.6-.4-1.1-.4c-.5 0-.9.2-1.2.5-.3.3-.6.7-.7 1.3v3.4h-.3V145h.3v1.3zM56.8 147.3v3h-.3v-7.1h2.2c.7 0 1.3.2 1.7.5.4.4.6.9.6 1.5s-.2 1.1-.6 1.5c-.4.4-.9.5-1.7.5h-1.9zm0-.2h2c.6 0 1.1-.2 1.5-.5.4-.3.5-.7.5-1.3 0-.6-.2-1-.5-1.3-.4-.3-.9-.5-1.5-.5h-2v3.6zM64.7 145.3h-.3c-.4 0-.8.1-1.1.4s-.5.7-.6 1.2v3.5h-.3v-5.3h.3v1.1c.1-.4.4-.7.6-.9s.6-.3 1.1-.3c.2 0 .3 0 .4.1l-.1.2zM65.7 143.4c0-.1 0-.1.1-.2s.1-.1.2-.1.1 0 .2.1.1.1.1.2 0 .1-.1.2-.1.1-.2.1-.1 0-.2-.1c-.1 0-.1-.1-.1-.2zm.4 6.9h-.3V145h.3v5.3zM69.4 149.9l1.9-4.9h.3l-2.1 5.3h-.3l-2.1-5.3h.3l2 4.9zM75.9 150.3c-.1-.2-.1-.5-.1-1-.2.3-.5.6-.9.8s-.8.3-1.2.3c-.5 0-.9-.1-1.2-.4-.3-.3-.4-.6-.4-1 0-.5.2-.9.7-1.2.4-.3 1-.4 1.7-.4h1.3v-.8c0-.4-.1-.8-.4-1-.3-.2-.7-.4-1.2-.4s-.9.1-1.2.4c-.3.2-.5.6-.5.9h-.3c0-.4.2-.8.6-1.1.4-.3.8-.4 1.4-.4.6 0 1 .1 1.4.4.3.3.5.7.5 1.2v2.5c0 .6 0 1 .1 1.2h-.3zm-2.2-.1c.5 0 .9-.1 1.3-.3.4-.2.6-.5.8-.9v-1.3h-1.2c-.8 0-1.3.2-1.7.4-.3.2-.5.5-.5.9 0 .3.1.6.4.8s.5.4.9.4zM79.6 150.2c.5 0 .9-.1 1.2-.4.3-.3.5-.6.5-1.1h.3c0 .5-.2.9-.6 1.2-.4.3-.8.5-1.4.5-.7 0-1.2-.2-1.6-.7-.4-.5-.6-1.1-.6-1.9v-.2c0-.8.2-1.4.6-1.9.4-.5.9-.7 1.6-.7.6 0 1 .2 1.4.5.4.3.6.8.6 1.3h-.3c0-.5-.2-.9-.5-1.1-.3-.3-.7-.4-1.2-.4-.6 0-1.1.2-1.4.6-.3.4-.5 1-.5 1.8v.2c0 .7.2 1.3.5 1.7.3.4.8.6 1.4.6zM84.5 149.9l1.9-4.9h.3l-2.4 6.2-.1.3c-.3.6-.7.9-1.3.9-.2 0-.3 0-.4-.1v-.3h.4c.3 0 .5-.1.7-.2.2-.2.3-.4.5-.8l.3-.9-2.1-5.3h.3l1.9 5.1zM92.8 149.6c-.2.2-.5.5-.9.6-.4.2-.9.2-1.5.2-.5 0-1-.1-1.4-.4-.4-.3-.7-.6-1-1.1-.2-.5-.4-1-.4-1.6v-1.2c0-.6.1-1.1.3-1.6.2-.5.5-.8.9-1.1.4-.3.9-.4 1.4-.4.7 0 1.3.2 1.7.5.4.4.7.9.8 1.5h-.3c-.1-.6-.3-1-.7-1.3s-.9-.5-1.5-.5c-.7 0-1.3.3-1.7.8-.4.5-.7 1.2-.7 2v1.1c0 .6.1 1.1.3 1.5.2.4.5.8.9 1 .4.2.8.4 1.3.4s.9-.1 1.3-.2.7-.3.8-.5v-2.1h-2.2v-.3h2.4v2.7zM98 150.3v-.9c-.2.3-.4.5-.7.7s-.7.3-1.1.3c-.6 0-1-.2-1.3-.5-.3-.3-.4-.8-.4-1.5V145h.3v3.4c0 .6.1 1 .4 1.3s.6.4 1.1.4c.5 0 .9-.1 1.2-.4.3-.2.5-.6.6-1V145h.3v5.3H98zM103.4 150.3c-.1-.2-.1-.5-.1-1-.2.3-.5.6-.9.8s-.8.3-1.2.3c-.5 0-.9-.1-1.2-.4-.3-.3-.4-.6-.4-1 0-.5.2-.9.7-1.2.4-.3 1-.4 1.7-.4h1.3v-.8c0-.4-.1-.8-.4-1-.3-.2-.7-.4-1.2-.4s-.9.1-1.2.4c-.3.2-.5.6-.5.9h-.3c0-.4.2-.8.6-1.1.4-.3.8-.4 1.4-.4.6 0 1 .1 1.4.4.3.3.5.7.5 1.2v2.5c0 .6 0 1 .1 1.2h-.3zm-2.2-.1c.5 0 .9-.1 1.3-.3.4-.2.6-.5.8-.9v-1.3h-1.2c-.8 0-1.3.2-1.7.4-.3.2-.5.5-.5.9 0 .3.1.6.4.8s.5.4.9.4zM107.6 145.3h-.3c-.4 0-.8.1-1.1.4s-.5.7-.6 1.2v3.5h-.3v-5.3h.3v1.1c.1-.4.4-.7.6-.9s.6-.3 1.1-.3c.2 0 .3 0 .4.1l-.1.2zM108.3 147.7c0-.8.2-1.5.5-2s.8-.7 1.5-.7c.4 0 .7.1 1.1.3.3.2.6.4.7.8v-3.2h.3v7.5h-.3v-.8c-.2.3-.4.5-.7.7-.3.2-.7.2-1.1.2-.6 0-1.1-.2-1.5-.7-.3-.6-.5-1.2-.5-2.1zm.3.1c0 .7.1 1.3.4 1.8s.7.7 1.3.7c.4 0 .8-.1 1.1-.3.3-.2.5-.5.7-.9v-2.5c-.3-.9-.9-1.3-1.8-1.3-.5 0-1 .2-1.3.6-.2.4-.4 1-.4 1.9zM116.9 150.3v-5h-.9v-.3h.9v-.8c0-.5.1-.9.4-1.1.2-.3.6-.4 1-.4.2 0 .4 0 .6.1v.3c-.2 0-.4-.1-.6-.1-.3 0-.6.1-.8.3-.2.2-.3.5-.3 1v.8h1.4v.3h-1.4v5h-.3zM119.2 147.6c0-.5.1-1 .3-1.4.2-.4.5-.7.8-.9.4-.2.8-.3 1.2-.3.4 0 .8.1 1.2.3.4.2.6.5.8.9.2.4.3.9.3 1.4v.2c0 .5-.1 1-.3 1.4s-.5.7-.8.9c-.4.2-.8.3-1.2.3s-.8-.1-1.2-.3c-.4-.2-.6-.5-.8-.9-.2-.4-.3-.8-.3-1.3v-.3zm.3.2c0 .4.1.8.3 1.2.2.4.4.7.7.9.3.2.7.3 1.1.3.6 0 1.1-.2 1.5-.7.4-.5.6-1 .6-1.7v-.2c0-.4-.1-.8-.3-1.2-.2-.4-.4-.7-.7-.9-.3-.2-.7-.3-1.1-.3-.6 0-1.1.2-1.5.7s-.6 1-.6 1.7v.2zM127.4 145.3h-.3c-.4 0-.8.1-1.1.4s-.5.7-.6 1.2v3.5h-.3v-5.3h.3v1.1c.1-.4.4-.7.6-.9s.6-.3 1.1-.3c.2 0 .3 0 .4.1l-.1.2zM24.2 162.3h-4.3v-.3l2.4-2.8c.4-.5.7-.9.9-1.2.2-.4.3-.7.3-1 0-.5-.2-.9-.5-1.2s-.7-.4-1.3-.4c-.3 0-.6.1-.9.2-.3.2-.5.4-.6.7-.2.3-.2.6-.2.9h-.3c0-.4.1-.7.3-1.1.2-.3.4-.6.7-.8s.7-.3 1-.3c.6 0 1.1.2 1.5.5.4.3.5.8.5 1.4 0 .6-.3 1.2-.9 2l-.4.5-2.1 2.5h3.9v.4zM28.8 160.1H30v.3h-1.2v1.9h-.3v-1.9h-3.4v-.1l3.4-5h.3v4.8zm-3.3 0h3v-4.6l-.4.7-2.6 3.9zM30.6 163h-.3l3-7.7h.3l-3 7.7zM38.9 155.4l-3.1 6.9h-.3l3.1-6.8h-4.2v-.3h4.5v.2zM44.5 162.2c.5 0 .9-.1 1.2-.4.3-.3.5-.6.5-1.1h.3c0 .5-.2.9-.6 1.2-.4.3-.8.5-1.4.5-.7 0-1.2-.2-1.6-.7-.4-.5-.6-1.1-.6-1.9v-.2c0-.8.2-1.4.6-1.9.4-.5.9-.7 1.6-.7.6 0 1 .2 1.4.5.4.3.6.8.6 1.3h-.3c0-.5-.2-.9-.5-1.1-.3-.3-.7-.4-1.2-.4-.6 0-1.1.2-1.4.6-.3.4-.5 1-.5 1.8v.2c0 .7.2 1.3.5 1.7.3.4.8.6 1.4.6zM50.1 157.3h-.3c-.4 0-.8.1-1.1.4s-.5.7-.6 1.2v3.5h-.3v-5.3h.2v1.1c.1-.4.4-.7.6-.9s.6-.3 1.1-.3c.2 0 .3 0 .4.1v.2zM53 162.4c-.4 0-.8-.1-1.2-.3-.4-.2-.6-.5-.8-.9s-.3-.8-.3-1.3v-.2c0-.5.1-.9.3-1.3.2-.4.5-.7.8-1 .3-.2.7-.3 1.1-.3.6 0 1.1.2 1.4.6s.6 1 .6 1.7v.3h-4v.3c0 .4.1.8.3 1.2.2.4.4.7.7.9.3.2.7.3 1 .3.4 0 .7-.1.9-.2.2-.1.5-.3.7-.5l.2.1c-.4.4-.9.6-1.7.6zm-.1-5.2c-.5 0-1 .2-1.3.6-.4.4-.6.9-.6 1.5h3.7v-.1c0-.4-.1-.7-.2-1-.2-.3-.4-.5-.6-.7-.4-.2-.7-.3-1-.3zM55.9 159.7c0-.8.2-1.5.5-2s.8-.7 1.5-.7c.4 0 .7.1 1.1.3.3.2.6.4.7.8v-3.2h.3v7.5h-.3v-.8c-.2.3-.4.5-.7.7-.3.2-.7.2-1.1.2-.6 0-1.1-.2-1.5-.7-.3-.6-.5-1.2-.5-2.1zm.3.1c0 .7.1 1.3.4 1.8s.7.7 1.3.7c.4 0 .8-.1 1.1-.3.3-.2.5-.5.7-.9v-2.5c-.3-.9-.9-1.3-1.8-1.3-.5 0-1 .2-1.3.6-.3.4-.4 1-.4 1.9zM61.5 155.4c0-.1 0-.1.1-.2s.1-.1.2-.1.1 0 .2.1.1.1.1.2 0 .1-.1.2-.1.1-.2.1-.1 0-.2-.1c-.1 0-.1-.1-.1-.2zm.4 6.9h-.3V157h.3v5.3zM64.2 155.6v1.4h1.2v.3h-1.2v3.8c0 .4.1.7.2.8.1.2.3.3.6.3h.5v.2c-.1 0-.3.1-.6.1-.4 0-.7-.1-.8-.3-.2-.2-.3-.5-.3-1v-3.8h-1v-.3h1v-1.4h.4zM73 162.3h-.3v-3.5c0-.5-.1-.9-.3-1.2-.2-.3-.6-.4-1.1-.4-.6 0-1.1.3-1.4.8-.2.3-.4.6-.4 1v3.3h-.3V157h.3v1.2c.2-.4.4-.8.8-1s.7-.4 1.1-.4c.4 0 .8.1 1.1.3.3.2.5.5.6 1 .2-.4.4-.7.8-.9.4-.2.7-.3 1.2-.3.6 0 1 .2 1.3.5.3.3.4.8.4 1.5v3.4h-.3v-3.4c0-.6-.1-1-.3-1.3-.2-.3-.6-.4-1.1-.4-.6 0-1.1.3-1.5.8-.2.3-.3.6-.4.8v3.5zM77.8 159.6c0-.5.1-1 .3-1.4.2-.4.5-.7.8-.9.4-.2.8-.3 1.2-.3.4 0 .8.1 1.2.3.4.2.6.5.8.9.2.4.3.9.3 1.4v.2c0 .5-.1 1-.3 1.4s-.5.7-.8.9c-.4.2-.8.3-1.2.3s-.8-.1-1.2-.3c-.4-.2-.6-.5-.8-.9-.2-.4-.3-.8-.3-1.3v-.3zm.2.2c0 .4.1.8.3 1.2.2.4.4.7.7.9.3.2.7.3 1.1.3.6 0 1.1-.2 1.5-.7.4-.5.6-1 .6-1.7v-.2c0-.4-.1-.8-.3-1.2-.2-.4-.4-.7-.7-.9-.3-.2-.7-.3-1.1-.3-.6 0-1.1.2-1.5.7s-.6 1-.6 1.7v.2zM83.9 158.3c.2-.4.4-.7.8-1 .3-.2.7-.4 1.1-.4.6 0 1 .2 1.3.5.3.3.4.8.4 1.5v3.4h-.3v-3.5c0-.6-.1-1-.3-1.3s-.6-.4-1.1-.4c-.5 0-.9.2-1.2.5-.3.3-.6.7-.7 1.3v3.4h-.3V157h.3v1.3zM89.1 155.4c0-.1 0-.1.1-.2s.1-.1.2-.1.1 0 .2.1.1.1.1.2 0 .1-.1.2-.1.1-.2.1-.1 0-.2-.1c-.1 0-.1-.1-.1-.2zm.4 6.9h-.3V157h.3v5.3zM91.8 155.6v1.4H93v.3h-1.2v3.8c0 .4.1.7.2.8.1.2.3.3.6.3h.5v.2c-.1 0-.3.1-.6.1-.4 0-.7-.1-.8-.3-.2-.2-.3-.5-.3-1v-3.8h-1v-.3h1v-1.4h.4zM93.9 159.6c0-.5.1-1 .3-1.4.2-.4.5-.7.8-.9.4-.2.8-.3 1.2-.3.4 0 .8.1 1.2.3.4.2.6.5.8.9.2.4.3.9.3 1.4v.2c0 .5-.1 1-.3 1.4s-.5.7-.8.9c-.4.2-.8.3-1.2.3s-.8-.1-1.2-.3c-.4-.2-.6-.5-.8-.9-.2-.4-.3-.8-.3-1.3v-.3zm.2.2c0 .4.1.8.3 1.2.2.4.4.7.7.9.3.2.7.3 1.1.3.6 0 1.1-.2 1.5-.7.4-.5.6-1 .6-1.7v-.2c0-.4-.1-.8-.3-1.2-.2-.4-.4-.7-.7-.9-.3-.2-.7-.3-1.1-.3-.6 0-1.1.2-1.5.7s-.6 1-.6 1.7v.2zM102.1 157.3h-.3c-.4 0-.8.1-1.1.4s-.5.7-.6 1.2v3.5h-.3v-5.3h.3v1.1c.1-.4.4-.7.6-.9s.6-.3 1.1-.3c.2 0 .3 0 .4.1l-.1.2zM103.1 155.4c0-.1 0-.1.1-.2s.1-.1.2-.1.1 0 .2.1.1.1.1.2 0 .1-.1.2-.1.1-.2.1-.1 0-.2-.1c-.1 0-.1-.1-.1-.2zm.4 6.9h-.3V157h.3v5.3zM105.5 158.3c.2-.4.4-.7.8-1 .3-.2.7-.4 1.1-.4.6 0 1 .2 1.3.5.3.3.4.8.4 1.5v3.4h-.3v-3.5c0-.6-.1-1-.3-1.3s-.6-.4-1.1-.4c-.5 0-.9.2-1.2.5-.3.3-.6.7-.7 1.3v3.4h-.3V157h.3v1.3zM110.4 159.7c0-.8.2-1.5.5-2s.8-.7 1.5-.7c.4 0 .7.1 1 .3s.6.4.7.8v-1h.3v5.2c0 .7-.2 1.2-.5 1.6-.4.4-.8.6-1.5.6-.4 0-.7-.1-1-.2-.3-.2-.5-.4-.8-.7l.2-.2c.2.3.4.5.7.6.2.1.5.2.9.2.5 0 1-.2 1.3-.5.3-.3.5-.8.5-1.4v-.8c-.2.3-.4.5-.7.7-.3.2-.7.2-1.1.2-.6 0-1.1-.2-1.5-.7-.3-.5-.5-1.1-.5-2zm.3.1c0 .8.1 1.3.4 1.8.3.4.7.6 1.3.6.4 0 .8-.1 1.1-.3.3-.2.5-.5.7-.9v-2.4c-.3-.9-.9-1.4-1.8-1.4-.5 0-1 .2-1.3.6-.3.5-.4 1.1-.4 2zM116 162.1c0-.1 0-.1.1-.2s.1-.1.2-.1.1 0 .2.1.1.1.1.2 0 .1-.1.2-.1.1-.2.1-.1 0-.2-.1c0-.1-.1-.1-.1-.2z"/></svg>