<svg id="Layer_1" xmlns="http://www.w3.org/2000/svg" viewBox="0 0 300 250"><style>.st0{fill:#2a3380}.st1{fill:#e72e8a}</style><path class="st0" d="M27.5 84.7h-4.8v4.9h-2.5V77.5h7.9v2h-5.4v3.1h4.8v2.1zM29.4 78.3c0-.4.1-.7.4-.9s.6-.3 1-.3.7.1 1 .3c.2.2.4.5.4.9s-.1.7-.4.9c-.2.2-.6.3-1 .3s-.7-.1-1-.3c-.3-.3-.4-.6-.4-.9zm2.5 11.3h-2.4v-9h2.4v9zM36.1 80.6l.1 1c.6-.8 1.5-1.2 2.6-1.2 1 0 1.7.3 2.1.8.5.6.7 1.4.7 2.5v5.8h-2.4v-5.8c0-.5-.1-.9-.3-1.1-.2-.2-.6-.3-1.1-.3-.7 0-1.2.3-1.5.9v6.3h-2.4v-9h2.2zM43.1 85c0-1.4.3-2.5.9-3.4s1.5-1.2 2.6-1.2c.9 0 1.6.3 2.2 1v-4.6h2.4v12.8H49l-.1-1c-.6.7-1.4 1.1-2.3 1.1-1.1 0-1.9-.4-2.5-1.3-.7-.7-1-1.9-1-3.4zm2.4.2c0 .8.1 1.5.4 1.9.3.5.7.7 1.3.7.7 0 1.3-.3 1.6-.9v-3.6c-.3-.6-.8-.9-1.6-.9-1.1 0-1.7.9-1.7 2.8zM56.9 85c0-.9.2-1.7.5-2.4s.8-1.2 1.5-1.6c.6-.4 1.4-.6 2.2-.6 1.2 0 2.2.4 3 1.1.8.7 1.2 1.8 1.3 3v.6c0 1.4-.4 2.5-1.2 3.3-.8.8-1.8 1.3-3.1 1.3s-2.3-.4-3.1-1.2c-.8-.8-1.2-2-1.2-3.4V85zm2.4.2c0 .9.2 1.5.5 2s.8.7 1.4.7c.6 0 1-.2 1.4-.7.3-.5.4-1.2.4-2.2 0-.8-.2-1.5-.5-1.9-.3-.5-.8-.7-1.4-.7-.6 0-1 .2-1.4.7-.2.4-.4 1.1-.4 2.1zM72.3 88.7c-.6.7-1.4 1.1-2.5 1.1-1 0-1.7-.3-2.2-.8-.5-.6-.8-1.4-.8-2.4v-5.9h2.4v5.8c0 .9.4 1.4 1.3 1.4.8 0 1.4-.3 1.7-.8v-6.4h2.4v9h-2.3v-1zM79.3 78.4v2.2h1.5v1.8h-1.5v4.5c0 .3.1.6.2.7.1.1.4.2.7.2.3 0 .5 0 .7-.1v1.8c-.5.1-1 .2-1.5.2-1.7 0-2.5-.9-2.6-2.6v-4.8h-1.3v-1.8h1.3v-2.2h2.5zM86.4 78.3c0-.4.1-.7.4-.9s.6-.3 1-.3.7.1 1 .3c.2.2.4.5.4.9s-.1.7-.4.9c-.2.2-.6.3-1 .3s-.7-.1-1-.3c-.2-.3-.4-.6-.4-.9zM89 89.6h-2.4v-9H89v9zM91.6 89.6v-7.2h-1.3v-1.8h1.3v-.8c0-1 .3-1.8.9-2.4.6-.6 1.4-.8 2.4-.8.3 0 .7.1 1.2.2v1.9c-.2 0-.4-.1-.7-.1-.9 0-1.4.4-1.4 1.3v.7h1.8v1.8H94v7.2h-2.4zM104.7 86.2l1.7-5.6h2.6L105.3 91l-.2.5c-.5 1.2-1.4 1.8-2.7 1.8-.3 0-.7-.1-1.1-.2v-1.8h.4c.5 0 .8-.1 1-.2s.4-.4.5-.7l.3-.7-3.2-9h2.6l1.8 5.5zM109.5 85c0-.9.2-1.7.5-2.4s.8-1.2 1.5-1.6c.6-.4 1.4-.6 2.2-.6 1.2 0 2.2.4 3 1.1.8.7 1.2 1.8 1.3 3v.6c0 1.4-.4 2.5-1.2 3.3-.8.8-1.8 1.3-3.1 1.3s-2.3-.4-3.1-1.2c-.8-.8-1.2-2-1.2-3.4V85zm2.4.2c0 .9.2 1.5.5 2s.8.7 1.4.7c.6 0 1-.2 1.4-.7.3-.4.5-1.2.5-2.1 0-.8-.2-1.5-.5-1.9-.3-.5-.8-.7-1.4-.7-.6 0-1 .2-1.4.7-.3.3-.5 1-.5 2zM124.9 88.7c-.6.7-1.4 1.1-2.5 1.1-1 0-1.7-.3-2.2-.8-.5-.6-.8-1.4-.8-2.4v-5.9h2.4v5.8c0 .9.4 1.4 1.3 1.4.8 0 1.4-.3 1.7-.8v-6.4h2.4v9H125l-.1-1zM134.1 82.9c-.3 0-.6-.1-.9-.1-.9 0-1.5.3-1.8.9v5.9H129v-9h2.3l.1 1.1c.5-.8 1.2-1.2 2-1.2.3 0 .5 0 .7.1v2.3z"/><path class="st1" d="M23.8 108.3c.4 0 .8-.1 1.1-.4.3-.2.4-.6.4-1h2.3c0 .6-.2 1.2-.5 1.7s-.8.9-1.3 1.2c-.6.3-1.2.4-1.9.4-1.3 0-2.3-.4-3-1.2s-1.1-1.9-1.1-3.4v-.2c0-1.4.4-2.5 1.1-3.3.7-.8 1.8-1.2 3-1.2 1.1 0 2 .3 2.7 1 .7.6 1 1.5 1 2.6h-2.3c0-.5-.2-.8-.4-1.1-.3-.3-.6-.4-1.1-.4-.6 0-1 .2-1.3.6-.3.4-.4 1.1-.4 2v.2c0 .9.1 1.6.4 2 .3.3.7.5 1.3.5zM34 103.3c-.3 0-.6-.1-.9-.1-.9 0-1.5.3-1.8.9v5.9h-2.4v-9h2.3l.1 1.1c.5-.8 1.2-1.2 2-1.2.3 0 .5 0 .7.1v2.3zM39.3 110.2c-1.3 0-2.4-.4-3.2-1.2-.8-.8-1.2-1.9-1.2-3.2v-.2c0-.9.2-1.7.5-2.4s.8-1.3 1.5-1.6c.6-.4 1.4-.6 2.2-.6 1.2 0 2.2.4 2.9 1.2s1.1 1.9 1.1 3.3v1h-5.7c.1.6.3 1.1.7 1.4s.9.5 1.5.5c.9 0 1.6-.3 2.2-1l1.2 1.3c-.4.5-.8.9-1.5 1.2-.8.2-1.5.3-2.2.3zm-.3-7.4c-.5 0-.9.2-1.2.5s-.5.8-.6 1.4h3.3v-.2c0-.5-.2-.9-.4-1.2-.2-.3-.6-.5-1.1-.5zM44 105.5c0-1.4.3-2.5.9-3.4s1.5-1.2 2.6-1.2c.9 0 1.6.3 2.2 1v-4.6h2.4v12.8h-2.2l-.1-1c-.6.7-1.4 1.1-2.3 1.1-1.1 0-1.9-.4-2.5-1.3-.7-.8-1-1.9-1-3.4zm2.4.2c0 .8.1 1.5.4 1.9.3.5.7.7 1.3.7.7 0 1.3-.3 1.6-.9v-3.6c-.3-.6-.8-.9-1.6-.9-1.1-.1-1.7.9-1.7 2.8zM53.9 98.7c0-.4.1-.7.4-.9s.6-.3 1-.3.7.1 1 .3c.2.2.4.5.4.9s-.1.7-.4.9c-.2.2-.6.3-1 .3s-.7-.1-1-.3c-.2-.2-.4-.5-.4-.9zm2.6 11.4h-2.4v-9h2.4v9zM61.4 98.8v2.2h1.5v1.8h-1.5v4.5c0 .3.1.6.2.7.1.1.4.2.7.2.3 0 .5 0 .7-.1v1.8c-.5.1-1 .2-1.5.2-1.7 0-2.5-.9-2.6-2.6v-4.8h-1.3v-1.8H59v-2.2h2.4zM73.4 107.6c0-.3-.1-.5-.4-.7-.3-.2-.8-.3-1.4-.5-2.1-.4-3.2-1.4-3.2-2.7 0-.8.3-1.5 1-2s1.5-.8 2.6-.8 2.1.3 2.7.8c.7.5 1 1.2 1 2.1h-2.4c0-.3-.1-.6-.3-.9s-.6-.3-1-.3-.7.1-.9.3c-.2.2-.3.4-.3.7 0 .3.1.5.4.6.3.2.7.3 1.3.4s1.1.3 1.5.4c1.3.5 1.9 1.3 1.9 2.4 0 .8-.4 1.5-1.1 2s-1.6.8-2.7.8c-.8 0-1.4-.1-2-.4-.6-.3-1-.6-1.4-1.1-.3-.5-.5-1-.5-1.5h2.3c0 .4.2.8.5 1s.7.3 1.2.3.8-.1 1-.3c0-.1.2-.4.2-.6zM81 108.3c.4 0 .8-.1 1.1-.4.3-.2.4-.6.4-1h2.3c0 .6-.2 1.2-.5 1.7s-.8.9-1.3 1.2c-.6.3-1.2.4-1.9.4-1.3 0-2.3-.4-3-1.2s-1.1-1.9-1.1-3.4v-.2c0-1.4.4-2.5 1.1-3.3.7-.8 1.8-1.2 3-1.2 1.1 0 2 .3 2.7 1 .7.6 1 1.5 1 2.6h-2.3c0-.5-.2-.8-.4-1.1-.3-.3-.6-.4-1.1-.4-.6 0-1 .2-1.3.6-.3.4-.4 1.1-.4 2v.2c0 .9.1 1.6.4 2 .3.3.7.5 1.3.5zM85.8 105.5c0-.9.2-1.7.5-2.4s.8-1.2 1.5-1.6c.6-.4 1.4-.6 2.2-.6 1.2 0 2.2.4 3 1.1.8.7 1.2 1.8 1.3 3v.6c0 1.4-.4 2.5-1.2 3.3-.8.8-1.8 1.3-3.1 1.3s-2.3-.4-3.1-1.2c-.8-.8-1.2-2-1.2-3.4v-.1zm2.4.1c0 .9.2 1.5.5 2s.8.7 1.4.7c.6 0 1-.2 1.4-.7.3-.4.5-1.2.5-2.1 0-.8-.2-1.5-.5-1.9-.3-.5-.8-.7-1.4-.7-.6 0-1 .2-1.4.7-.4.4-.5 1.1-.5 2zM100.8 103.3c-.3 0-.6-.1-.9-.1-.9 0-1.5.3-1.8.9v5.9h-2.4v-9H98l.1 1.1c.5-.8 1.2-1.2 2-1.2.3 0 .5 0 .7.1v2.3zM106.1 110.2c-1.3 0-2.4-.4-3.2-1.2-.8-.8-1.2-1.9-1.2-3.2v-.2c0-.9.2-1.7.5-2.4s.8-1.3 1.5-1.6c.6-.4 1.4-.6 2.2-.6 1.2 0 2.2.4 2.9 1.2s1.1 1.9 1.1 3.3v1h-5.7c.1.6.3 1.1.7 1.4s.9.5 1.5.5c.9 0 1.6-.3 2.2-1l1.2 1.3c-.4.5-.8.9-1.5 1.2-.8.2-1.4.3-2.2.3zm-.3-7.4c-.5 0-.9.2-1.2.5s-.5.8-.6 1.4h3.3v-.2c0-.5-.2-.9-.4-1.2-.2-.3-.5-.5-1.1-.5z"/><path class="st0" d="M22.4 122.5c.6-.8 1.4-1.1 2.4-1.1 2 0 2.9 1.1 3 3.4v5.8h-2.4v-5.7c0-.5-.1-.9-.3-1.1-.2-.2-.6-.4-1.1-.4-.7 0-1.2.3-1.5.8v6.4H20v-12.8h2.4v4.7zM34.8 130.5c-.1-.2-.2-.5-.2-.8-.6.6-1.3 1-2.3 1-.9 0-1.6-.3-2.2-.8-.6-.5-.9-1.2-.9-1.9 0-1 .4-1.7 1.1-2.2.7-.5 1.7-.8 3.1-.8h1.1v-.5c0-.4-.1-.7-.3-1-.2-.2-.5-.4-1-.4-.4 0-.7.1-1 .3-.2.2-.3.5-.3.8h-2.4c0-.5.2-1 .5-1.4.3-.4.8-.8 1.4-1s1.2-.4 2-.4c1.1 0 2 .3 2.6.8.7.6 1 1.3 1 2.4v3.9c0 .9.1 1.5.4 1.9v.1h-2.6zm-2-1.7c.4 0 .7-.1 1-.2.3-.2.5-.4.7-.6v-1.5h-.9c-1.2 0-1.8.4-1.9 1.2v.1c0 .3.1.5.3.7.2.2.5.3.8.3zM43.6 128c0-.3-.1-.5-.4-.7s-.8-.3-1.4-.5c-2.1-.4-3.2-1.4-3.2-2.7 0-.8.3-1.5 1-2s1.5-.8 2.6-.8 2.1.3 2.7.8c.7.5 1 1.2 1 2.1h-2.4c0-.3-.1-.6-.3-.9s-.6-.3-1-.3-.7.1-.9.3c-.2.2-.3.4-.3.7 0 .3.1.5.4.6.3.2.7.3 1.3.4s1.1.3 1.5.4c1.3.5 1.9 1.3 1.9 2.4 0 .8-.4 1.5-1.1 2-.7.5-1.6.8-2.7.8-.8 0-1.4-.1-2-.4-.6-.3-1-.6-1.4-1.1s-.5-1-.5-1.5h2.3c0 .4.2.8.5 1 .3.2.7.3 1.2.3s.8-.1 1-.3c.1-.1.2-.3.2-.6zM55.5 128.7c.4 0 .8-.1 1.1-.4s.4-.6.4-1h2.3c0 .6-.2 1.2-.5 1.7s-.8.9-1.3 1.2c-.6.3-1.2.4-1.9.4-1.3 0-2.3-.4-3-1.2-.7-.8-1.1-1.9-1.1-3.4v-.2c0-1.4.4-2.5 1.1-3.3.7-.8 1.8-1.2 3-1.2 1.1 0 2 .3 2.7 1 .7.6 1 1.5 1 2.6H57c0-.5-.2-.8-.4-1.1-.3-.3-.6-.4-1.1-.4-.6 0-1 .2-1.3.6-.3.4-.4 1.1-.4 2v.2c0 .9.1 1.6.4 2 .3.3.7.5 1.3.5zM63 122.5c.6-.8 1.4-1.1 2.4-1.1 2 0 2.9 1.1 3 3.4v5.8H66v-5.7c0-.5-.1-.9-.3-1.1-.2-.2-.6-.4-1.1-.4-.7 0-1.2.3-1.5.8v6.4h-2.4v-12.8H63v4.7zM75.4 130.5c-.1-.2-.2-.5-.2-.8-.6.6-1.3 1-2.3 1-.9 0-1.6-.3-2.2-.8-.6-.5-.9-1.2-.9-1.9 0-1 .4-1.7 1.1-2.2.7-.5 1.7-.8 3.1-.8h1v-.5c0-.4-.1-.7-.3-1-.2-.2-.5-.4-1-.4-.4 0-.7.1-1 .3-.2.2-.3.5-.3.8H70c0-.5.2-1 .5-1.4.3-.4.8-.8 1.4-1s1.2-.4 2-.4c1.1 0 2 .3 2.6.8.7.6 1 1.3 1 2.4v3.9c0 .9.1 1.5.4 1.9v.1h-2.5zm-2-1.7c.4 0 .7-.1 1-.2.3-.2.5-.4.7-.6v-1.5h-.9c-1.2 0-1.8.4-1.9 1.2v.1c0 .3.1.5.3.7.1.2.4.3.8.3zM81.5 121.5l.1 1c.6-.8 1.5-1.2 2.6-1.2 1 0 1.7.3 2.1.8.5.6.7 1.4.7 2.5v5.8h-2.4v-5.8c0-.5-.1-.9-.3-1.1-.2-.2-.6-.3-1.1-.3-.7 0-1.2.3-1.5.9v6.3h-2.4v-9h2.2zM88.5 125.9c0-1.4.3-2.5 1-3.3.7-.8 1.5-1.3 2.7-1.3 1 0 1.8.3 2.3 1l.1-.8h2.2v8.7c0 .8-.2 1.5-.5 2.1-.4.6-.9 1-1.5 1.3-.6.3-1.4.5-2.3.5-.7 0-1.3-.1-1.9-.4-.6-.3-1.1-.6-1.4-1l1.1-1.5c.6.7 1.3 1 2.2 1 .6 0 1.1-.2 1.5-.5.4-.3.5-.8.5-1.5v-.5c-.6.6-1.3.9-2.2.9-1.1 0-2-.4-2.6-1.3s-1.2-1.9-1.2-3.4zm2.4.2c0 .8.2 1.5.5 1.9.3.5.8.7 1.3.7.7 0 1.3-.3 1.6-.8v-3.8c-.3-.5-.8-.8-1.6-.8-.6 0-1 .2-1.4.7s-.4 1.2-.4 2.1zM102.7 130.7c-1.3 0-2.4-.4-3.2-1.2-.8-.8-1.2-1.9-1.2-3.2v-.3c0-.9.2-1.7.5-2.4s.8-1.3 1.5-1.6c.6-.4 1.4-.6 2.2-.6 1.2 0 2.2.4 2.9 1.2s1.1 1.9 1.1 3.3v1h-5.7c.1.6.3 1.1.7 1.4s.9.5 1.5.5c.9 0 1.6-.3 2.2-1l1.2 1.3c-.4.5-.8.9-1.5 1.2-.8.2-1.5.4-2.2.4zm-.3-7.4c-.5 0-.9.2-1.2.5s-.5.8-.6 1.4h3.3v-.2c0-.5-.2-.9-.4-1.2-.2-.4-.6-.5-1.1-.5zM107.4 125.9c0-1.4.3-2.5.9-3.4s1.5-1.2 2.6-1.2c.9 0 1.6.3 2.2 1v-4.6h2.4v12.8h-2.2l-.1-1c-.6.7-1.4 1.1-2.3 1.1-1.1 0-1.9-.4-2.5-1.3-.7-.7-1-1.9-1-3.4zm2.4.2c0 .8.1 1.5.4 1.9.3.5.7.7 1.3.7.7 0 1.3-.3 1.6-.9v-3.6c-.3-.6-.8-.9-1.6-.9-1.1 0-1.7.9-1.7 2.8zM117.5 129.3c0-.4.1-.7.4-.9s.6-.4 1-.4.7.1 1 .4.4.5.4.9-.1.7-.4.9-.6.4-1 .4-.7-.1-1-.4-.4-.5-.4-.9z"/></svg>