<svg id="Layer_1" xmlns="http://www.w3.org/2000/svg" viewBox="0 0 300 250"><style>.st0{fill:#e72f8a;stroke:url(#SVGID_1_);stroke-width:.9465;stroke-miterlimit:10}.st1{fill:#fff}</style><linearGradient id="SVGID_1_" gradientUnits="userSpaceOnUse" x1="18.491" y1="211.222" x2="103.122" y2="211.222"><stop offset="0" stop-color="#41b5e8"/><stop offset=".5" stop-color="#6a53a3"/><stop offset="1" stop-color="#e72e8a"/></linearGradient><path class="st0" d="M86 227.8H35.6c-9.2 0-16.6-7.4-16.6-16.6 0-9.2 7.4-16.6 16.6-16.6H86c9.2 0 16.6 7.4 16.6 16.6 0 9.2-7.4 16.6-16.6 16.6z"/><path class="st1" d="M38.8 207.4h-3.1v8.4h-2.1v-8.4h-3.1v-1.7h8.2v1.7zM43.6 210.2c-.3 0-.5-.1-.7-.1-.8 0-1.3.3-1.5.8v4.9h-2v-7.5h1.9l.1.9c.4-.7 1-1 1.7-1 .2 0 .4 0 .6.1l-.1 1.9zM47.4 213l1.4-4.7H51l-3 8.7-.2.4c-.4 1-1.2 1.5-2.2 1.5-.3 0-.6 0-.9-.1v-1.5h.3c.4 0 .7-.1.8-.2.2-.1.3-.3.4-.6l.2-.6-2.6-7.5H46l1.4 4.6zM62.6 207.4h-3.1v8.4h-2.1v-8.4h-3.1v-1.7h8.2v1.7zM61.9 212c0-.7.1-1.4.4-2 .3-.6.7-1 1.2-1.4s1.2-.5 1.9-.5c1 0 1.8.3 2.5.9s1 1.5 1.1 2.5v.5c0 1.2-.3 2.1-1 2.8-.6.7-1.5 1-2.6 1s-1.9-.3-2.6-1c-.6-.5-.9-1.5-.9-2.8zm2 .2c0 .7.1 1.3.4 1.6.3.4.7.6 1.2.6s.9-.2 1.1-.6c.3-.4.4-1 .4-1.8 0-.7-.1-1.2-.4-1.6-.3-.4-.7-.6-1.2-.6s-.9.2-1.1.6c-.3.4-.4 1-.4 1.8zM69.9 212c0-1.2.3-2.1.8-2.8.5-.7 1.2-1 2.2-1 .7 0 1.3.3 1.8.8v-3.8h2v10.7h-1.8l-.1-.8c-.5.6-1.1.9-1.9.9-.9 0-1.6-.3-2.1-1s-.9-1.7-.9-3zm2 .2c0 .7.1 1.2.4 1.6s.6.6 1.1.6c.6 0 1.1-.3 1.3-.8v-3c-.2-.5-.7-.8-1.3-.8-1 0-1.5.8-1.5 2.4zM82.6 215.8c-.1-.2-.2-.4-.2-.7-.5.5-1.1.8-1.9.8-.7 0-1.3-.2-1.8-.6-.5-.4-.7-1-.7-1.6 0-.8.3-1.4.9-1.8s1.4-.6 2.6-.6h.9v-.4c0-.3-.1-.6-.3-.8-.2-.2-.5-.3-.8-.3-.3 0-.6.1-.8.2s-.3.4-.3.7h-2c0-.4.1-.8.4-1.2.3-.4.6-.7 1.1-.9.5-.2 1-.3 1.7-.3.9 0 1.7.2 2.2.7s.8 1.1.8 2v3.3c0 .7.1 1.3.3 1.6v.1h-2.1zm-1.7-1.3c.3 0 .6-.1.8-.2s.4-.3.6-.5v-1.3h-.7c-1 0-1.5.3-1.6 1v.1c0 .2.1.5.3.6s.3.3.6.3zM88.7 213l1.4-4.7h2.2l-3 8.7-.2.4c-.4 1-1.2 1.5-2.2 1.5-.3 0-.6 0-.9-.1v-1.5h.3c.4 0 .7-.1.8-.2.2-.1.3-.3.4-.6l.2-.6-2.6-7.5h2.2l1.4 4.6z"/></svg>