<svg id="Layer_1" xmlns="http://www.w3.org/2000/svg" viewBox="0 0 300 250"><style>.st0{fill:#edf4fd}.st1{fill:none;stroke:url(#underline_00000161591503454403000410000015400130117276046761_);stroke-width:4;stroke-linecap:round;stroke-miterlimit:10}</style><path class="st0" d="M22.2 55.1V40.9h4.4c1.2 0 2.4.3 3.4.8s1.8 1.4 2.3 2.4.8 2.2.8 3.5v.7c0 1.3-.3 2.5-.8 3.5S31 53.6 30 54.2s-2.1.9-3.3.9h-4.5zm2.9-11.9v9.5h1.4c1.1 0 2-.4 2.6-1.1s.9-1.8.9-3.2v-.8c0-1.4-.3-2.5-.9-3.3s-1.5-1.1-2.6-1.1h-1.4zM34.5 49.7c0-1 .2-2 .6-2.8s1-1.5 1.7-1.9 1.6-.7 2.6-.7c1.4 0 2.6.4 3.5 1.3s1.4 2.1 1.5 3.6v.7c0 1.6-.5 2.9-1.4 3.9s-2.1 1.5-3.6 1.5-2.7-.5-3.6-1.5-1.4-2.3-1.4-4v-.1zm2.9.2c0 1 .2 1.8.6 2.3s.9.8 1.6.8c.7 0 1.2-.3 1.6-.8.4-.5.6-1.4.6-2.5 0-1-.2-1.7-.6-2.3s-.9-.8-1.6-.8c-.7 0-1.2.3-1.6.8s-.6 1.4-.6 2.5zM55.5 51.2l1.4-6.7h2.7l-2.7 10.6h-2.4l-2-6.7-2 6.7h-2.4l-2.7-10.6h2.7l1.4 6.7 1.9-6.7h2l2.1 6.7zM63.6 44.5l.1 1.2c.8-.9 1.8-1.4 3-1.4 1.1 0 2 .3 2.5 1s.8 1.6.8 2.9V55h-2.8v-6.8c0-.6-.1-1-.4-1.3s-.7-.4-1.3-.4c-.8 0-1.4.3-1.8 1V55h-2.8V44.5h2.7zM75.2 55.1h-2.8v-15h2.8v15zM77 49.7c0-1 .2-2 .6-2.8s1-1.5 1.7-1.9 1.6-.7 2.6-.7c1.4 0 2.6.4 3.5 1.3s1.4 2.1 1.5 3.6v.7c0 1.6-.5 2.9-1.4 3.9s-2.1 1.5-3.6 1.5-2.7-.5-3.6-1.5-1.4-2.3-1.4-4v-.1zm2.9.2c0 1 .2 1.8.6 2.3s.9.8 1.6.8c.7 0 1.2-.3 1.6-.8.4-.5.6-1.4.6-2.5 0-1-.2-1.7-.6-2.3s-.9-.8-1.6-.8c-.7 0-1.2.3-1.6.8s-.6 1.4-.6 2.5zM94.9 55.1l-.3-.9c-.7.8-1.6 1.1-2.7 1.1-1 0-1.9-.3-2.6-.9s-1-1.4-1-2.3c0-1.1.4-2 1.2-2.6s2-.9 3.6-.9h1.3V48c0-.5-.1-.9-.4-1.2s-.6-.4-1.2-.4c-.5 0-.8.1-1.1.3s-.4.5-.4.9h-2.8c0-.6.2-1.2.6-1.7s.9-.9 1.6-1.2 1.5-.4 2.3-.4c1.3 0 2.3.3 3.1 1s1.1 1.6 1.1 2.8v4.6c0 1 .1 1.8.4 2.3v.2h-2.7zm-2.3-2c.4 0 .8-.1 1.2-.3s.6-.4.8-.7v-1.8h-1.1c-1.4 0-2.2.5-2.3 1.5v.2c0 .4.1.6.4.9s.6.2 1 .2zM99.1 49.7c0-1.6.4-3 1.1-3.9s1.7-1.5 3-1.5c1 0 1.9.4 2.5 1.2v-5.4h2.8v15H106l-.1-1.1c-.7.9-1.6 1.3-2.7 1.3-1.2 0-2.2-.5-3-1.5s-1.1-2.3-1.1-4.1zm2.8.2c0 1 .2 1.8.5 2.3s.8.8 1.5.8c.9 0 1.5-.4 1.8-1.1v-4.2c-.4-.7-1-1.1-1.8-1.1-1.3 0-2 1.1-2 3.3zM126.1 43.2h-4.4V55h-2.9V43.2h-4.3v-2.4h11.6v2.4zM130.3 45.7c.7-.9 1.7-1.3 2.8-1.3 2.3 0 3.5 1.3 3.5 4v6.8h-2.8v-6.7c0-.6-.1-1.1-.4-1.3s-.7-.4-1.3-.4c-.8 0-1.4.3-1.8 1v7.5h-2.8v-15h2.8v5.4zM143.6 55.3c-1.5 0-2.8-.5-3.8-1.4s-1.5-2.2-1.5-3.8v-.3c0-1.1.2-2 .6-2.8s1-1.5 1.7-1.9 1.6-.7 2.6-.7c1.4 0 2.6.5 3.4 1.4s1.2 2.2 1.2 3.9v1.2h-6.7c.1.7.4 1.2.8 1.7s1 .6 1.7.6c1.1 0 1.9-.4 2.5-1.2l1.4 1.6c-.4.6-1 1.1-1.7 1.4s-1.3.3-2.2.3zm-.3-8.7c-.6 0-1 .2-1.4.6-.3.4-.6.9-.7 1.6h3.9v-.2c0-.6-.2-1.1-.5-1.5-.3-.3-.7-.5-1.3-.5zM157.7 50.1v5h-2.9V40.9h5.5c1.1 0 2 .2 2.8.6s1.4.9 1.9 1.7c.4.7.7 1.5.7 2.5 0 1.4-.5 2.5-1.4 3.3-1 .8-2.3 1.2-4 1.2h-2.6zm0-2.4h2.6c.8 0 1.4-.2 1.8-.5.4-.4.6-.9.6-1.6 0-.7-.2-1.3-.6-1.7s-1-.7-1.7-.7h-2.7v4.5zM173.4 47.2c-.4-.1-.7-.1-1-.1-1.1 0-1.8.4-2.1 1.1v6.9h-2.8V44.5h2.7l.1 1.3c.6-1 1.4-1.5 2.4-1.5.3 0 .6 0 .9.1l-.2 2.8zM174.7 41.8c0-.4.1-.8.4-1s.7-.4 1.2-.4.9.1 1.2.4c.3.3.4.6.4 1s-.1.8-.4 1.1c-.3.3-.7.4-1.1.4-.5 0-.9-.1-1.1-.4-.4-.3-.6-.7-.6-1.1zm3 13.3h-2.8V44.5h2.8v10.6zM184 51.6l2-7.1h2.9l-3.6 10.6h-2.7L179 44.5h2.9l2.1 7.1zM196.1 55.1l-.3-.9c-.7.8-1.6 1.1-2.7 1.1-1 0-1.9-.3-2.6-.9-.7-.6-1-1.4-1-2.3 0-1.1.4-2 1.2-2.6s2-.9 3.6-.9h1.3V48c0-.5-.1-.9-.4-1.2-.3-.3-.6-.4-1.2-.4-.5 0-.8.1-1.1.3-.3.2-.4.5-.4.9h-2.8c0-.6.2-1.2.6-1.7.4-.5.9-.9 1.6-1.2.7-.3 1.5-.4 2.3-.4 1.3 0 2.3.3 3.1 1 .8.7 1.1 1.6 1.1 2.8v4.6c0 1 .1 1.8.4 2.3v.2h-2.7zm-2.3-2c.4 0 .8-.1 1.2-.3s.6-.4.8-.7v-1.8h-1.1c-1.4 0-2.2.5-2.3 1.5v.2c0 .4.1.6.4.9.2.1.6.2 1 .2zM205.1 53c.5 0 .9-.1 1.3-.4.3-.3.5-.7.5-1.1h2.6c0 .7-.2 1.4-.6 2-.4.6-.9 1.1-1.6 1.4-.7.3-1.4.5-2.2.5-1.5 0-2.7-.5-3.6-1.4-.9-1-1.3-2.3-1.3-4v-.2c0-1.6.4-2.9 1.3-3.9s2.1-1.5 3.6-1.5c1.3 0 2.4.4 3.2 1.1s1.2 1.8 1.2 3h-2.6c0-.5-.2-1-.5-1.3-.3-.3-.8-.5-1.3-.5-.7 0-1.2.2-1.5.7-.3.5-.5 1.3-.5 2.3v.3c0 1.1.2 1.9.5 2.3s.8.7 1.5.7zM215.1 51.1l2-6.6h3l-4.2 12.2-.2.6c-.6 1.4-1.7 2.1-3.1 2.1-.4 0-.8-.1-1.2-.2V57h.4c.5 0 .9-.1 1.2-.2s.5-.4.6-.8l.3-.9-3.7-10.6h3l1.9 6.6zM232.6 53.3c-.5.6-1.3 1.1-2.2 1.5s-2 .5-3.2.5c-1.2 0-2.3-.3-3.2-.8s-1.6-1.3-2.1-2.3-.8-2.2-.8-3.6v-1c0-1.4.2-2.6.7-3.7s1.2-1.8 2.1-2.4 2-.8 3.2-.8c1.7 0 3 .4 4 1.2s1.5 2 1.7 3.5h-2.9c-.1-.8-.4-1.4-.9-1.8s-1.1-.6-1.8-.6c-1 0-1.8.4-2.3 1.1s-.9 1.9-.9 3.4v.9c0 1.5.3 2.6.8 3.4s1.4 1.1 2.5 1.1 1.9-.2 2.4-.7v-2.5H227v-2.2h5.6v5.8zM241.1 54c-.7.8-1.7 1.3-2.9 1.3-1.1 0-2-.3-2.6-1s-.9-1.6-.9-2.9v-6.9h2.8v6.8c0 1.1.5 1.7 1.5 1.7s1.6-.3 2-1v-7.5h2.8v10.6h-2.7V54zM252.1 55.1l-.3-.9c-.7.8-1.6 1.1-2.7 1.1-1 0-1.9-.3-2.6-.9s-1-1.4-1-2.3c0-1.1.4-2 1.2-2.6s2-.9 3.6-.9h1.3V48c0-.5-.1-.9-.4-1.2s-.6-.4-1.2-.4c-.5 0-.8.1-1.1.3s-.4.5-.4.9h-2.8c0-.6.2-1.2.6-1.7s.9-.9 1.6-1.2 1.5-.4 2.3-.4c1.3 0 2.3.3 3.1 1s1.1 1.6 1.1 2.8v4.6c0 1 .1 1.8.4 2.3v.2h-2.7zm-2.3-2c.4 0 .8-.1 1.2-.3s.6-.4.8-.7v-1.8h-1.1c-1.4 0-2.2.5-2.3 1.5v.2c0 .4.1.6.4.9s.6.2 1 .2zM262.7 47.2c-.4-.1-.7-.1-1-.1-1.1 0-1.8.4-2.1 1.1v6.9h-2.8V44.5h2.7l.1 1.3c.6-1 1.4-1.5 2.4-1.5.3 0 .6 0 .9.1l-.2 2.8zM263.6 49.7c0-1.6.4-3 1.1-3.9s1.8-1.5 3-1.5c1 0 1.9.4 2.5 1.2v-5.4h2.8v15h-2.5l-.1-1.1c-.7.9-1.6 1.3-2.7 1.3-1.2 0-2.2-.5-3-1.5s-1.1-2.3-1.1-4.1zm2.8.2c0 1 .2 1.8.5 2.3s.8.8 1.5.8c.9 0 1.5-.4 1.8-1.1v-4.2c-.4-.7-1-1.1-1.8-1.1-1.3 0-2 1.1-2 3.3zM35.4 77.1h-5.1l-1 2.9h-3.1l5.3-14.2h2.7L39.5 80h-3.1l-1-2.9zM31 74.8h3.6l-1.8-5.3-1.8 5.3zM50.1 74.9c0 1.6-.4 2.9-1.1 3.9s-1.7 1.5-3 1.5c-1.1 0-1.9-.4-2.6-1.1v5h-2.8V69.5h2.6l.1 1c.7-.8 1.6-1.2 2.7-1.2 1.3 0 2.3.5 3 1.4s1.1 2.3 1.1 4v.2zm-2.8-.2c0-1-.2-1.7-.5-2.3s-.9-.8-1.5-.8c-.9 0-1.5.3-1.8 1V77c.3.7 1 1 1.8 1 1.4 0 2-1.1 2-3.3zM61.4 74.9c0 1.6-.4 2.9-1.1 3.9s-1.7 1.5-3 1.5c-1.1 0-1.9-.4-2.6-1.1v5h-2.8V69.5h2.6l.1 1c.7-.8 1.6-1.2 2.7-1.2 1.3 0 2.3.5 3 1.4s1.1 2.3 1.1 4v.2zm-2.8-.2c0-1-.2-1.7-.5-2.3s-.9-.8-1.5-.8c-.9 0-1.5.3-1.8 1V77c.3.7 1 1 1.8 1 1.3 0 2-1.1 2-3.3zM71.5 66.9v2.6h1.8v2.1h-1.8v5.3c0 .4.1.7.2.8s.4.3.9.3c.3 0 .6 0 .8-.1V80c-.6.2-1.1.3-1.7.3-2 0-3-1-3-3v-5.7h-1.5v-2.1h1.5v-2.6h2.8zM74.2 74.7c0-1 .2-2 .6-2.8s1-1.5 1.7-1.9 1.6-.7 2.6-.7c1.4 0 2.6.4 3.5 1.3s1.4 2.1 1.5 3.6v.7c0 1.6-.5 2.9-1.4 3.9s-2.1 1.5-3.6 1.5-2.7-.5-3.6-1.5-1.4-2.3-1.4-4v-.1zm2.8.2c0 1 .2 1.8.6 2.3s.9.8 1.6.8c.7 0 1.2-.3 1.6-.8.4-.5.6-1.4.6-2.5 0-1-.2-1.7-.6-2.3s-.9-.8-1.6-.8c-.7 0-1.2.3-1.6.8s-.6 1.4-.6 2.5zM93.6 70.7c.7-.9 1.7-1.3 2.8-1.3 2.3 0 3.5 1.3 3.5 4v6.8h-2.8v-6.7c0-.6-.1-1.1-.4-1.3s-.7-.4-1.3-.4c-.8 0-1.4.3-1.8 1v7.5h-2.8v-15h2.8v5.4zM106.9 80.3c-1.5 0-2.8-.5-3.8-1.4s-1.5-2.2-1.5-3.8v-.3c0-1.1.2-2 .6-2.8s1-1.5 1.7-1.9 1.6-.7 2.6-.7c1.4 0 2.6.5 3.4 1.4s1.2 2.2 1.2 3.9v1.2h-6.7c.1.7.4 1.2.8 1.7s1 .6 1.7.6c1.1 0 1.9-.4 2.5-1.2l1.4 1.6c-.4.6-1 1.1-1.7 1.4s-1.3.3-2.2.3zm-.3-8.7c-.6 0-1 .2-1.4.6-.3.4-.6.9-.7 1.6h3.9v-.2c0-.6-.2-1.1-.5-1.5-.2-.3-.7-.5-1.3-.5zM115.9 80.1H113v-15h2.8v15zM127.7 74.9c0 1.6-.4 2.9-1.1 3.9s-1.7 1.5-3 1.5c-1.1 0-1.9-.4-2.6-1.1v5h-2.8V69.5h2.6l.1 1c.7-.8 1.6-1.2 2.7-1.2 1.3 0 2.3.5 3 1.4s1.1 2.3 1.1 4v.2zm-2.8-.2c0-1-.2-1.7-.5-2.3s-.9-.8-1.5-.8c-.9 0-1.5.3-1.8 1V77c.3.7 1 1 1.8 1 1.3 0 2-1.1 2-3.3zM143.9 74.9c0 1.6-.4 2.9-1.1 3.9s-1.7 1.5-3 1.5c-1.1 0-1.9-.4-2.6-1.1v5h-2.8V69.5h2.6l.1 1c.7-.8 1.6-1.2 2.7-1.2 1.3 0 2.3.5 3 1.4s1.1 2.3 1.1 4v.2zm-2.8-.2c0-1-.2-1.7-.5-2.3s-.9-.8-1.5-.8c-.9 0-1.5.3-1.8 1V77c.3.7 1 1 1.8 1 1.3 0 2-1.1 2-3.3zM151.6 72.2c-.4-.1-.7-.1-1-.1-1.1 0-1.8.4-2.1 1.1v6.9h-2.8V69.5h2.7l.1 1.3c.6-1 1.4-1.5 2.4-1.5.3 0 .6 0 .9.1l-.2 2.8zM152.2 74.7c0-1 .2-2 .6-2.8.4-.8 1-1.5 1.7-1.9.8-.4 1.6-.7 2.6-.7 1.4 0 2.6.4 3.5 1.3.9.9 1.4 2.1 1.5 3.6v.7c0 1.6-.5 2.9-1.4 3.9-.9 1-2.1 1.5-3.6 1.5s-2.7-.5-3.6-1.5-1.4-2.3-1.4-4v-.1zm2.8.2c0 1 .2 1.8.6 2.3.4.5.9.8 1.6.8.7 0 1.2-.3 1.6-.8.4-.5.6-1.4.6-2.5 0-1-.2-1.7-.6-2.3-.4-.5-.9-.8-1.6-.8-.7 0-1.2.3-1.6.8-.4.5-.6 1.4-.6 2.5zM167.3 66.9v2.6h1.8v2.1h-1.8v5.3c0 .4.1.7.2.8.1.2.4.3.9.3.3 0 .6 0 .8-.1V80c-.6.2-1.1.3-1.7.3-2 0-3-1-3-3v-5.7H163v-2.1h1.5v-2.6h2.8zM175.6 80.3c-1.5 0-2.8-.5-3.8-1.4-1-1-1.5-2.2-1.5-3.8v-.3c0-1.1.2-2 .6-2.8s1-1.5 1.7-1.9 1.6-.7 2.6-.7c1.4 0 2.6.5 3.4 1.4s1.2 2.2 1.2 3.9v1.2h-6.7c.1.7.4 1.2.8 1.7s1 .6 1.7.6c1.1 0 1.9-.4 2.5-1.2l1.4 1.6c-.4.6-1 1.1-1.7 1.4s-1.4.3-2.2.3zm-.4-8.7c-.6 0-1 .2-1.4.6-.3.4-.6.9-.7 1.6h3.9v-.2c0-.6-.2-1.1-.5-1.5-.2-.3-.7-.5-1.3-.5zM185.9 78c.5 0 .9-.1 1.3-.4.3-.3.5-.7.5-1.1h2.6c0 .7-.2 1.4-.6 2-.4.6-.9 1.1-1.6 1.4-.7.3-1.4.5-2.2.5-1.5 0-2.7-.5-3.6-1.4-.9-1-1.3-2.3-1.3-4v-.2c0-1.6.4-2.9 1.3-3.9s2.1-1.5 3.6-1.5c1.3 0 2.4.4 3.2 1.1.8.8 1.2 1.8 1.2 3h-2.6c0-.5-.2-1-.5-1.3-.3-.3-.8-.5-1.3-.5-.7 0-1.2.2-1.5.7-.3.5-.5 1.3-.5 2.3v.3c0 1.1.2 1.9.5 2.3s.8.7 1.5.7zM195.3 66.9v2.6h1.8v2.1h-1.8v5.3c0 .4.1.7.2.8.1.2.4.3.9.3.3 0 .6 0 .8-.1V80c-.6.2-1.1.3-1.7.3-2 0-3-1-3-3v-5.7H191v-2.1h1.5v-2.6h2.8zM209.8 80.1l-.3-.9c-.7.8-1.6 1.1-2.7 1.1-1 0-1.9-.3-2.6-.9-.7-.6-1-1.4-1-2.3 0-1.1.4-2 1.2-2.6s2-.9 3.6-.9h1.3V73c0-.5-.1-.9-.4-1.2s-.6-.4-1.2-.4c-.5 0-.8.1-1.1.3-.3.2-.4.5-.4.9h-2.8c0-.6.2-1.2.6-1.7.4-.5.9-.9 1.6-1.2.7-.3 1.5-.4 2.3-.4 1.3 0 2.3.3 3.1 1s1.1 1.6 1.1 2.8v4.6c0 1 .1 1.8.4 2.3v.2h-2.7zm-2.3-2c.4 0 .8-.1 1.2-.3s.6-.4.8-.7v-1.8h-1.1c-1.4 0-2.2.5-2.3 1.5v.2c0 .4.1.6.4.9.2.1.5.2 1 .2zM214 74.7c0-1.6.4-2.9 1.2-3.9s1.8-1.5 3.1-1.5c1.2 0 2.1.4 2.7 1.2l.1-1h2.6v10.2c0 .9-.2 1.7-.6 2.4s-1 1.2-1.8 1.6-1.7.5-2.7.5c-.8 0-1.5-.2-2.3-.5s-1.3-.7-1.7-1.2l1.2-1.7c.7.8 1.6 1.2 2.6 1.2.7 0 1.3-.2 1.7-.6s.6-1 .6-1.7v-.6c-.7.7-1.5 1.1-2.6 1.1-1.3 0-2.3-.5-3.1-1.5s-1.2-2.3-1.2-4zm2.8.2c0 1 .2 1.7.6 2.3.4.5.9.8 1.6.8.9 0 1.5-.3 1.8-1v-4.4c-.4-.6-1-1-1.8-1-.7 0-1.2.3-1.6.8-.4.6-.6 1.4-.6 2.5zM231.9 80.1l-.3-.9c-.7.8-1.6 1.1-2.7 1.1-1 0-1.9-.3-2.6-.9s-1-1.4-1-2.3c0-1.1.4-2 1.2-2.6s2-.9 3.6-.9h1.3V73c0-.5-.1-.9-.4-1.2s-.6-.4-1.2-.4c-.5 0-.8.1-1.1.3s-.4.5-.4.9h-2.8c0-.6.2-1.2.6-1.7s.9-.9 1.6-1.2 1.5-.4 2.3-.4c1.3 0 2.3.3 3.1 1s1.1 1.6 1.1 2.8v4.6c0 1 .1 1.8.4 2.3v.2h-2.7zm-2.3-2c.4 0 .8-.1 1.2-.3s.6-.4.8-.7v-1.8h-1.1c-1.4 0-2.2.5-2.3 1.5v.2c0 .4.1.6.4.9s.6.2 1 .2zM236.5 66.8c0-.4.1-.8.4-1s.7-.4 1.2-.4.9.1 1.2.4.4.6.4 1-.1.8-.4 1.1-.7.4-1.1.4-.9-.1-1.1-.4-.6-.7-.6-1.1zm3 13.3h-2.8V69.5h2.8v10.6zM244.4 69.5l.1 1.2c.8-.9 1.8-1.4 3-1.4 1.1 0 2 .3 2.5 1s.8 1.6.8 2.9V80H248v-6.8c0-.6-.1-1-.4-1.3s-.7-.4-1.3-.4c-.8 0-1.4.3-1.8 1V80h-2.8V69.5h2.7zM258.8 77.2c0-.3-.2-.6-.5-.8s-.9-.4-1.6-.5c-2.5-.5-3.8-1.6-3.8-3.2 0-.9.4-1.7 1.2-2.3s1.8-.9 3.1-.9 2.4.3 3.2.9 1.2 1.5 1.2 2.5h-2.8c0-.4-.1-.7-.4-1s-.7-.4-1.2-.4-.8.1-1.1.3-.4.5-.4.8c0 .3.1.6.4.8s.8.4 1.5.5 1.3.3 1.8.5c1.5.5 2.2 1.5 2.2 2.8 0 1-.4 1.7-1.2 2.3s-1.9.9-3.2.9c-.9 0-1.7-.2-2.4-.5s-1.2-.7-1.6-1.3-.6-1.1-.6-1.8h2.7c0 .5.2.9.6 1.2s.8.4 1.4.4c.5 0 .9-.1 1.2-.3s.3-.6.3-.9zM266.7 66.9v2.6h1.8v2.1h-1.8v5.3c0 .4.1.7.2.8s.4.3.9.3c.3 0 .6 0 .8-.1V80c-.6.2-1.1.3-1.7.3-2 0-3-1-3-3v-5.7h-1.5v-2.1h1.5v-2.6h2.8zM63.3 91.8c0-.4.1-.8.4-1s.7-.4 1.2-.4.9.1 1.2.4.4.6.4 1-.1.8-.4 1.1-.7.4-1.1.4-.9-.1-1.1-.4-.6-.7-.6-1.1zm2.9 13.3h-2.8V94.5h2.8v10.6zM68.1 99.7c0-1.6.4-3 1.1-3.9s1.7-1.5 3-1.5c1 0 1.9.4 2.5 1.2v-5.4h2.8v15H75V104c-.7.9-1.6 1.3-2.7 1.3-1.2 0-2.2-.5-3-1.5s-1.2-2.3-1.2-4.1zm2.9.2c0 1 .2 1.8.5 2.3s.8.8 1.5.8c.9 0 1.5-.4 1.8-1.1v-4.2c-.4-.7-1-1.1-1.8-1.1-1.4 0-2 1.1-2 3.3zM84.7 105.3c-1.5 0-2.8-.5-3.8-1.4s-1.5-2.2-1.5-3.8v-.3c0-1.1.2-2 .6-2.8s1-1.5 1.7-1.9 1.6-.7 2.6-.7c1.4 0 2.6.5 3.4 1.4s1.2 2.2 1.2 3.9v1.2h-6.7c.1.7.4 1.2.8 1.7s1 .6 1.7.6c1.1 0 1.9-.4 2.5-1.2l1.4 1.6c-.4.6-1 1.1-1.7 1.4s-1.3.3-2.2.3zm-.3-8.7c-.6 0-1 .2-1.4.6-.3.4-.6.9-.7 1.6h3.9v-.2c0-.6-.2-1.1-.5-1.5-.3-.3-.7-.5-1.3-.5zM93.3 94.5l.1 1.2c.8-.9 1.8-1.4 3-1.4 1.1 0 2 .3 2.5 1s.8 1.6.8 2.9v6.8h-2.8v-6.8c0-.6-.1-1-.4-1.3s-.7-.4-1.3-.4c-.8 0-1.4.3-1.8 1v7.5h-2.8V94.5h2.7zM105.2 91.9v2.6h1.8v2.1h-1.8v5.3c0 .4.1.7.2.8s.4.3.9.3c.3 0 .6 0 .8-.1v2.1c-.6.2-1.1.3-1.7.3-2 0-3-1-3-3v-5.7h-1.5v-2.1h1.5v-2.6h2.8zM108.6 91.8c0-.4.1-.8.4-1s.7-.4 1.2-.4.9.1 1.2.4.4.6.4 1-.1.8-.4 1.1-.7.4-1.1.4-.9-.1-1.1-.4-.6-.7-.6-1.1zm3 13.3h-2.8V94.5h2.8v10.6zM117.3 91.9v2.6h1.8v2.1h-1.8v5.3c0 .4.1.7.2.8s.4.3.9.3c.3 0 .6 0 .8-.1v2.1c-.6.2-1.1.3-1.7.3-2 0-3-1-3-3v-5.7H113v-2.1h1.5v-2.6h2.8zM124.6 101.1l2-6.6h3l-4.2 12.2-.2.6c-.6 1.4-1.7 2.1-3.1 2.1-.4 0-.8-.1-1.2-.2V107h.4c.5 0 .9-.1 1.2-.2s.5-.4.6-.8l.3-.9-3.7-10.6h3l1.9 6.6zM139.1 91.9v2.6h1.8v2.1h-1.8v5.3c0 .4.1.7.2.8s.4.3.9.3c.3 0 .6 0 .8-.1v2.1c-.6.2-1.1.3-1.7.3-2 0-3-1-3-3v-5.7h-1.5v-2.1h1.5v-2.6h2.8zM145.2 95.7c.7-.9 1.7-1.3 2.8-1.3 2.3 0 3.5 1.3 3.5 4v6.8h-2.8v-6.7c0-.6-.1-1.1-.4-1.3s-.7-.4-1.3-.4c-.8 0-1.4.3-1.8 1v7.5h-2.8v-15h2.8v5.4zM158.5 105.3c-1.5 0-2.8-.5-3.8-1.4-1-1-1.5-2.2-1.5-3.8v-.3c0-1.1.2-2 .6-2.8s1-1.5 1.7-1.9 1.6-.7 2.6-.7c1.4 0 2.6.5 3.4 1.4s1.2 2.2 1.2 3.9v1.2H156c.1.7.4 1.2.8 1.7s1 .6 1.7.6c1.1 0 1.9-.4 2.5-1.2l1.4 1.6c-.4.6-1 1.1-1.7 1.4s-1.3.3-2.2.3zm-.3-8.7c-.6 0-1 .2-1.4.6-.3.4-.6.9-.7 1.6h3.9v-.2c0-.6-.2-1.1-.5-1.5-.3-.3-.7-.5-1.3-.5zM165.2 105.1v-8.5h-1.6v-2.1h1.6v-.9c0-1.2.3-2.1 1-2.8.7-.7 1.6-1 2.9-1 .4 0 .9.1 1.4.2v2.2c-.2-.1-.5-.1-.9-.1-1.1 0-1.6.5-1.6 1.5v.8h2.1v2.1H168v8.5h-2.8zM175 91.9v2.6h1.8v2.1H175v5.3c0 .4.1.7.2.8.1.2.4.3.9.3.3 0 .6 0 .8-.1v2.1c-.6.2-1.1.3-1.7.3-2 0-3-1-3-3v-5.7h-1.5v-2.1h1.5v-2.6h2.8zM186.7 91.9v2.6h1.8v2.1h-1.8v5.3c0 .4.1.7.2.8.1.2.4.3.9.3.3 0 .6 0 .8-.1v2.1c-.6.2-1.1.3-1.7.3-2 0-3-1-3-3v-5.7h-1.5v-2.1h1.5v-2.6h2.8zM189.4 99.7c0-1 .2-2 .6-2.8.4-.8 1-1.5 1.7-1.9.8-.4 1.6-.7 2.6-.7 1.4 0 2.6.4 3.5 1.3.9.9 1.4 2.1 1.5 3.6v.7c0 1.6-.5 2.9-1.4 3.9-.9 1-2.1 1.5-3.6 1.5s-2.7-.5-3.6-1.5-1.4-2.3-1.4-4v-.1zm2.8.2c0 1 .2 1.8.6 2.3.4.5.9.8 1.6.8.7 0 1.2-.3 1.6-.8.4-.5.6-1.4.6-2.5 0-1-.2-1.7-.6-2.3-.4-.5-.9-.8-1.6-.8-.7 0-1.2.3-1.6.8-.4.5-.6 1.4-.6 2.5zM200.7 99.7c0-1.6.4-3 1.1-3.9.7-1 1.7-1.5 3-1.5 1 0 1.9.4 2.5 1.2v-5.4h2.8v15h-2.5l-.1-1.1c-.7.9-1.6 1.3-2.7 1.3-1.2 0-2.2-.5-3-1.5s-1.1-2.3-1.1-4.1zm2.8.2c0 1 .2 1.8.5 2.3.3.5.8.8 1.5.8.9 0 1.5-.4 1.8-1.1v-4.2c-.4-.7-1-1.1-1.8-1.1-1.3 0-2 1.1-2 3.3zM218.5 105.1l-.3-.9c-.7.8-1.6 1.1-2.7 1.1-1 0-1.9-.3-2.6-.9s-1-1.4-1-2.3c0-1.1.4-2 1.2-2.6s2-.9 3.6-.9h1.3V98c0-.5-.1-.9-.4-1.2s-.6-.4-1.2-.4c-.5 0-.8.1-1.1.3s-.4.5-.4.9h-2.8c0-.6.2-1.2.6-1.7s.9-.9 1.6-1.2 1.5-.4 2.3-.4c1.3 0 2.3.3 3.1 1s1.1 1.6 1.1 2.8v4.6c0 1 .1 1.8.4 2.3v.2h-2.7zm-2.3-2c.4 0 .8-.1 1.2-.3s.6-.4.8-.7v-1.8h-1.1c-1.4 0-2.2.5-2.3 1.5v.2c0 .4.1.6.4.9s.6.2 1 .2zM227.1 101.1l2-6.6h3l-4.2 12.2-.2.6c-.6 1.4-1.7 2.1-3.1 2.1-.4 0-.8-.1-1.2-.2V107h.4c.5 0 .9-.1 1.2-.2s.5-.4.6-.8l.3-.9-3.7-10.6h3l1.9 6.6zM233.3 103.7c0-.4.2-.8.5-1.1s.7-.4 1.1-.4c.5 0 .8.1 1.1.4s.5.6.5 1.1c0 .4-.1.8-.4 1.1s-.7.4-1.2.4-.8-.1-1.1-.4-.5-.7-.5-1.1z"/><linearGradient id="underline_00000077321025127437533440000011789554135916954810_" gradientUnits="userSpaceOnUse" x1="72.349" y1="120.921" x2="227.73" y2="120.921"><stop offset="0" stop-color="#18b9fb"/><stop offset=".5" stop-color="#782eeb"/><stop offset="1" stop-color="#e82d8a"/></linearGradient><path id="underline_2_" fill="none" stroke="url(#underline_00000077321025127437533440000011789554135916954810_)" stroke-width="4" stroke-linecap="round" stroke-miterlimit="10" d="M74.3 120.9h151.4"/><g><path class="st0" d="M26 213.1c0-.3-.1-.5-.3-.7-.2-.2-.5-.3-.9-.5-.4-.1-.7-.3-1-.4-.8-.4-1.1-1-1.1-1.8 0-.5.2-1 .5-1.3s.8-.6 1.3-.6v-1.1h.8v1.1c.6.1 1 .3 1.3.7.3.4.5.9.5 1.6H26c0-.4-.1-.7-.3-1-.2-.2-.4-.4-.7-.4-.3 0-.6.1-.7.3s-.3.4-.3.7c0 .3.1.5.3.7.2.2.5.3.9.5s.7.3 1 .4.4.3.6.4c.2.2.3.4.4.6s.1.5.1.8c0 .5-.2 1-.5 1.3s-.8.5-1.4.6v1h-.8v-1c-.6-.1-1.1-.3-1.5-.7s-.5-.9-.5-1.6h1.2c0 .4.1.7.3 1s.5.3.9.3.7-.1.8-.3.2-.3.2-.6zM31.4 214.9h-1.2v-5.7l-1.7.6v-1l2.8-1h.2v7.1zM38 208.3v1.3h.9v.9H38v2.9c0 .2 0 .3.1.4.1.1.2.1.4.1h.4v.9c-.3.1-.5.1-.8.1-.9 0-1.4-.5-1.4-1.5v-3h-.9v-.9h.9v-1.3H38zM42.6 210.7h-.5c-.5 0-.9.2-1.1.6v3.6h-1.2v-5.3h1.1v.6c.3-.5.7-.7 1.2-.7.2 0 .3 0 .4.1l.1 1.1zM43.3 208.3c0-.2.1-.3.2-.5s.3-.2.5-.2.4.1.5.2.2.3.2.5-.1.3-.2.4c-.1.1-.3.2-.5.2s-.4-.1-.5-.2c-.1-.1-.2-.3-.2-.4zm1.3 6.6h-1.2v-5.3h1.2v5.3zM49 214.9c-.1-.1-.1-.3-.1-.5-.4.4-.8.6-1.4.6-.5 0-1-.2-1.3-.5s-.5-.7-.5-1.1c0-.6.2-1 .6-1.3.4-.3 1-.5 1.8-.5h.7v-.3c0-.3-.1-.5-.2-.7-.2-.2-.4-.2-.7-.2-.3 0-.5.1-.7.2-.2.1-.3.3-.3.5h-1.2c0-.3.1-.6.3-.8.2-.3.5-.5.8-.6s.7-.2 1.1-.2c.6 0 1.1.2 1.5.5.4.3.6.7.6 1.3v2.4c0 .5.1.9.2 1.1v.1H49zm-1.3-.8c.2 0 .5-.1.7-.2s.4-.3.5-.5v-1h-.6c-.4 0-.8.1-1 .2s-.3.4-.3.6c0 .2.1.4.2.5.1.3.3.4.5.4zM52.5 214.9h-1.2v-7.5h1.2v7.5zM56.7 214.9v-4.4h-.8v-.9h.8v-.5c0-.6.2-1 .5-1.4s.8-.5 1.4-.5c.2 0 .4 0 .7.1v.9h-.5c-.6 0-.8.3-.8.9v.5h1v.9h-1.1v4.4h-1.2zM59.6 212.2c0-.5.1-1 .3-1.4.2-.4.5-.7.9-1 .4-.2.8-.3 1.3-.3.7 0 1.3.2 1.7.7s.7 1.1.7 1.8v.3c0 .5-.1 1-.3 1.4s-.5.7-.9 1-.8.3-1.3.3c-.7 0-1.3-.2-1.8-.7-.3-.5-.6-1.2-.6-2.1zm1.2.1c0 .5.1 1 .3 1.3.2.3.5.5.9.5s.7-.2.9-.5.3-.8.3-1.4c0-.5-.1-1-.3-1.3s-.5-.5-.9-.5-.7.2-.9.5c-.2.4-.3.8-.3 1.4zM68.3 210.7h-.5c-.5 0-.9.2-1.1.6v3.6h-1.2v-5.3h1.1v.6c.3-.5.7-.7 1.2-.7.2 0 .3 0 .4.1l.1 1.1zM73 208.3v1.3h1v.9h-1v2.9c0 .2 0 .3.1.4.1.1.2.1.4.1h.4v.9c-.3.1-.5.1-.8.1-.9 0-1.4-.5-1.4-1.5v-3H71v-.9h.9v-1.3H73zM76.1 210.2c.4-.4.9-.7 1.5-.7 1.1 0 1.7.6 1.7 1.9v3.5h-1.2v-3.4c0-.4-.1-.6-.2-.8-.2-.2-.4-.2-.7-.2-.5 0-.8.2-1.1.6v3.8h-1.2v-7.5h1.2v2.8zM82.8 215c-.8 0-1.4-.2-1.8-.7-.5-.5-.7-1.1-.7-1.9v-.1c0-.5.1-1 .3-1.4.2-.4.5-.7.9-1s.8-.3 1.2-.3c.7 0 1.3.2 1.7.7s.6 1.1.6 1.9v.5h-3.5c0 .4.2.8.4 1s.6.4 1 .4c.5 0 1-.2 1.3-.7l.6.6c-.2.3-.5.6-.8.7-.4.2-.8.3-1.2.3zm-.2-4.5c-.3 0-.6.1-.8.3s-.3.5-.4 1h2.3v-.1c0-.4-.1-.7-.3-.9-.2-.2-.4-.3-.8-.3zM88.7 214.9v-4.4h-.8v-.9h.8v-.5c0-.6.2-1 .5-1.4s.8-.5 1.4-.5c.2 0 .4 0 .7.1v.9h-.5c-.6 0-.8.3-.8.9v.5h1v.9h-1.1v4.4h-1.2zM91.8 208.3c0-.2.1-.3.2-.5s.3-.2.5-.2.4.1.5.2.2.3.2.5-.1.3-.2.4c-.1.1-.3.2-.5.2s-.4-.1-.5-.2c-.1-.1-.2-.3-.2-.4zm1.3 6.6h-1.2v-5.3h1.2v5.3zM97.2 210.7h-.5c-.5 0-.9.2-1.1.6v3.6h-1.2v-5.3h1.1v.6c.3-.5.7-.7 1.2-.7.2 0 .3 0 .4.1l.1 1.1zM100.9 213.5c0-.2-.1-.4-.3-.5s-.5-.2-.9-.3-.7-.2-1-.3c-.6-.3-.9-.7-.9-1.2s.2-.8.6-1.1.9-.5 1.5-.5 1.1.2 1.5.5.6.7.6 1.2h-1.2c0-.2-.1-.4-.3-.6-.2-.2-.4-.2-.7-.2-.3 0-.5.1-.6.2s-.2.3-.2.5.1.3.2.4.5.2.9.3c.5.1.8.2 1.1.4.3.1.5.3.6.5s.2.4.2.7c0 .5-.2.9-.6 1.2-.4.3-.9.4-1.5.4-.4 0-.8-.1-1.2-.2s-.6-.4-.8-.6-.3-.6-.3-.9h1.2c0 .3.1.5.3.6.2.2.5.2.8.2.3 0 .6-.1.7-.2.2-.2.3-.3.3-.5zM104.6 208.3v1.3h.9v.9h-.9v2.9c0 .2 0 .3.1.4.1.1.2.1.4.1h.4v.9c-.3.1-.5.1-.8.1-.9 0-1.4-.5-1.4-1.5v-3h-.9v-.9h.9v-1.3h1.3zM112 214.9h-1.2v-5.7l-1.7.6v-1l2.8-1h.2v7.1zM118.5 212.4h.9v1h-.9v1.6h-1.2v-1.6h-3.1v-.7l3.1-4.8h1.2v4.5zm-3 0h1.9v-3l-.1.2-1.8 2.8zM122.5 212.2c0-.8.2-1.5.6-2 .4-.5.9-.7 1.5-.7s1 .2 1.4.6v-2.7h1.2v7.5h-1.1l-.1-.5c-.4.4-.8.6-1.4.6-.6 0-1.1-.2-1.5-.7s-.6-1.2-.6-2.1zm1.2.1c0 .5.1 1 .3 1.3.2.3.5.5.9.5.5 0 .8-.2 1.1-.6v-2.3c-.2-.4-.6-.6-1.1-.6-.4 0-.7.2-.9.5-.2.2-.3.6-.3 1.2zM131.5 214.9c-.1-.1-.1-.3-.1-.5-.4.4-.8.6-1.4.6-.5 0-1-.2-1.3-.5s-.5-.7-.5-1.1c0-.6.2-1 .6-1.3.4-.3 1-.5 1.8-.5h.7v-.3c0-.3-.1-.5-.2-.7-.2-.2-.4-.2-.7-.2-.3 0-.5.1-.7.2-.2.1-.3.3-.3.5h-1.2c0-.3.1-.6.3-.8.2-.3.5-.5.8-.6s.7-.2 1.1-.2c.6 0 1.1.2 1.5.5.4.3.6.7.6 1.3v2.4c0 .5.1.9.2 1.1v.1h-1.2zm-1.3-.8c.2 0 .5-.1.7-.2s.4-.3.5-.5v-1h-.6c-.4 0-.8.1-1 .2s-.3.4-.3.6c0 .2.1.4.2.5.1.3.3.4.5.4zM135.6 213.2l1.1-3.6h1.3l-2.1 6.1c-.3.9-.9 1.3-1.6 1.3-.2 0-.4 0-.6-.1v-.9h.2c.3 0 .5-.1.7-.2.2-.1.3-.3.4-.5l.2-.5-1.9-5.3h1.3l1 3.7zM141.6 213.5c0-.2-.1-.4-.3-.5-.2-.1-.5-.2-.9-.3s-.7-.2-1-.3c-.6-.3-.9-.7-.9-1.2s.2-.8.6-1.1.9-.5 1.5-.5 1.1.2 1.5.5c.4.3.6.7.6 1.2h-1.2c0-.2-.1-.4-.3-.6-.2-.2-.4-.2-.7-.2-.3 0-.5.1-.6.2-.2.1-.2.3-.2.5s.1.3.2.4.5.2.9.3c.5.1.8.2 1.1.4.3.1.5.3.6.5.1.2.2.4.2.7 0 .5-.2.9-.6 1.2-.4.3-.9.4-1.5.4-.4 0-.8-.1-1.2-.2s-.6-.4-.8-.6-.3-.6-.3-.9h1.2c0 .3.1.5.3.6.2.2.5.2.8.2.3 0 .5-.1.7-.2.2-.2.3-.3.3-.5zM144.6 213.7c.2 0 .4.1.5.2.1.1.2.3.2.5s-.1.3-.2.5c-.1.1-.3.2-.5.2s-.4-.1-.5-.2-.2-.3-.2-.5.1-.3.2-.5.2-.2.5-.2zM24 224.3v2.6h-1.2v-7.1h2.7c.8 0 1.4.2 1.9.6s.7 1 .7 1.6c0 .7-.2 1.2-.7 1.6s-1.1.6-1.9.6H24zm0-1h1.5c.4 0 .8-.1 1-.3.2-.2.3-.5.3-.9s-.1-.7-.4-.9c-.2-.2-.6-.3-1-.4H24v2.5zM30.3 226.9h-1.2v-7.5h1.2v7.5zM34.7 226.9c-.1-.1-.1-.3-.1-.5-.4.4-.8.6-1.4.6-.5 0-1-.2-1.3-.5s-.5-.7-.5-1.1c0-.6.2-1 .6-1.3.4-.3 1-.5 1.8-.5h.7v-.3c0-.3-.1-.5-.2-.7-.2-.2-.4-.2-.7-.2-.3 0-.5.1-.7.2-.2.1-.3.3-.3.5h-1.2c0-.3.1-.6.3-.8.2-.3.5-.5.8-.6s.7-.2 1.1-.2c.6 0 1.1.2 1.5.5.4.3.6.7.6 1.3v2.4c0 .5.1.9.2 1.1v.1h-1.2zm-1.3-.8c.2 0 .5-.1.7-.2s.4-.3.5-.5v-1H34c-.4 0-.8.1-1 .2s-.3.4-.3.6c0 .2.1.4.2.5.1.3.3.4.5.4zM38.1 221.6v.6c.4-.5.9-.7 1.5-.7 1.1 0 1.7.6 1.7 1.9v3.5h-1.2v-3.4c0-.3-.1-.6-.2-.7-.1-.2-.4-.2-.7-.2-.5 0-.8.2-1.1.6v3.8h-1.2v-5.3h1.2zM45.5 225.5c0-.2-.1-.4-.3-.5s-.5-.2-.9-.3-.7-.2-1-.3c-.6-.3-.9-.7-.9-1.2s.2-.8.6-1.1.9-.5 1.5-.5 1.1.2 1.5.5.6.7.6 1.2h-1.2c0-.2-.1-.4-.3-.6-.2-.2-.4-.2-.7-.2-.3 0-.5.1-.6.2s-.2.3-.2.5.1.3.2.4.5.2.9.3c.5.1.8.2 1.1.4.3.1.5.3.6.5s.2.4.2.7c0 .5-.2.9-.6 1.2-.4.3-.9.4-1.5.4-.4 0-.8-.1-1.2-.2s-.6-.4-.8-.6-.3-.6-.3-.9h1.2c0 .3.1.5.3.6.2.2.5.2.8.2.3 0 .6-.1.7-.2.2-.2.3-.3.3-.5zM53.1 225.5c0-.2-.1-.4-.3-.5s-.5-.2-.9-.3-.7-.2-1-.3c-.6-.3-.9-.7-.9-1.2s.2-.8.6-1.1.9-.5 1.5-.5 1.1.2 1.5.5.6.7.6 1.2H53c0-.2-.1-.4-.3-.6-.2-.2-.4-.2-.7-.2-.3 0-.5.1-.6.2s-.2.3-.2.5.1.3.2.4.5.2.9.3c.5.1.8.2 1.1.4.3.1.5.3.6.5s.2.4.2.7c0 .5-.2.9-.6 1.2-.4.3-.9.4-1.5.4-.4 0-.8-.1-1.2-.2s-.6-.4-.8-.6-.3-.6-.3-.9H51c0 .3.1.5.3.6.2.2.5.2.8.2.3 0 .6-.1.7-.2.3-.2.3-.3.3-.5zM56.8 220.3v1.3h.9v.9h-.9v2.9c0 .2 0 .3.1.4.1.1.2.1.4.1h.4v.9c-.3.1-.5.1-.8.1-.9 0-1.4-.5-1.4-1.5v-3h-.9v-.9h.9v-1.3h1.3zM61.8 226.9c-.1-.1-.1-.3-.1-.5-.4.4-.8.6-1.4.6-.5 0-1-.2-1.3-.5s-.5-.7-.5-1.1c0-.6.2-1 .6-1.3.4-.3 1-.5 1.8-.5h.7v-.3c0-.3-.1-.5-.2-.7-.2-.2-.4-.2-.7-.2-.3 0-.5.1-.7.2-.2.1-.3.3-.3.5h-1.2c0-.3.1-.6.3-.8.2-.3.5-.5.8-.6s.7-.2 1.1-.2c.6 0 1.1.2 1.5.5.4.3.6.7.6 1.3v2.4c0 .5.1.9.2 1.1v.1h-1.2zm-1.3-.8c.2 0 .5-.1.7-.2s.4-.3.5-.5v-1H61c-.4 0-.8.1-1 .2s-.3.4-.3.6c0 .2.1.4.2.5.2.3.4.4.6.4zM66.8 222.7h-.5c-.5 0-.9.2-1.1.6v3.6H64v-5.3h1.1v.6c.3-.5.7-.7 1.2-.7.2 0 .3 0 .4.1l.1 1.1zM69.3 220.3v1.3h.9v.9h-.9v2.9c0 .2 0 .3.1.4.1.1.2.1.4.1h.4v.9c-.3.1-.5.1-.8.1-.9 0-1.4-.5-1.4-1.5v-3h-.9v-.9h.9v-1.3h1.3zM71.2 220.3c0-.2.1-.3.2-.5s.3-.2.5-.2.4.1.5.2.2.3.2.5-.1.3-.2.4c-.1.1-.3.2-.5.2s-.4-.1-.5-.2c-.2-.1-.2-.3-.2-.4zm1.2 6.6h-1.2v-5.3h1.2v5.3zM74.8 221.6v.6c.4-.5.9-.7 1.5-.7 1.1 0 1.7.6 1.7 1.9v3.5h-1.2v-3.4c0-.3-.1-.6-.2-.7-.1-.2-.4-.2-.7-.2-.5 0-.8.2-1.1.6v3.8h-1.2v-5.3h1.2zM79.1 224.2c0-.8.2-1.5.6-2 .4-.5.9-.7 1.5-.7s1.1.2 1.4.6l.1-.5h1.1v5.1c0 .7-.2 1.2-.6 1.6s-1 .6-1.7.6c-.4 0-.8-.1-1.1-.2-.4-.2-.7-.4-.8-.6l.6-.7c.4.4.8.6 1.3.6.4 0 .7-.1.9-.3.2-.2.3-.5.3-.9v-.4c-.3.4-.8.6-1.4.6-.6 0-1.1-.2-1.5-.7s-.7-1.2-.7-2.1zm1.1.1c0 .5.1.9.3 1.3.2.3.5.5.9.5.5 0 .8-.2 1.1-.6v-2.3c-.2-.4-.6-.6-1.1-.6-.4 0-.7.2-.9.5s-.3.6-.3 1.2zM90.6 226.9c-.1-.1-.1-.3-.1-.5-.4.4-.8.6-1.4.6-.5 0-1-.2-1.3-.5s-.5-.7-.5-1.1c0-.6.2-1 .6-1.3.4-.3 1-.5 1.8-.5h.7v-.3c0-.3-.1-.5-.2-.7-.2-.2-.4-.2-.7-.2-.3 0-.5.1-.7.2-.2.1-.3.3-.3.5h-1.2c0-.3.1-.6.3-.8.2-.3.5-.5.8-.6s.7-.2 1.1-.2c.6 0 1.1.2 1.5.5.4.3.6.7.6 1.3v2.4c0 .5.1.9.2 1.1v.1h-1.2zm-1.3-.8c.2 0 .5-.1.7-.2s.4-.3.5-.5v-1h-.6c-.4 0-.8.1-1 .2s-.3.4-.3.6c0 .2.1.4.2.5 0 .3.2.4.5.4zM94.3 220.3v1.3h.9v.9h-.9v2.9c0 .2 0 .3.1.4.1.1.2.1.4.1h.4v.9c-.3.1-.5.1-.8.1-.9 0-1.4-.5-1.4-1.5v-3h-.9v-.9h.9v-1.3h1.3zM102.1 225.1c0-.3-.1-.5-.3-.7-.2-.2-.5-.3-.9-.5-.4-.1-.7-.3-1-.4-.8-.4-1.1-1-1.1-1.8 0-.5.2-1 .5-1.3s.8-.6 1.3-.6v-1.1h.8v1.1c.6.1 1 .3 1.3.7.3.4.5.9.5 1.6H102c0-.4-.1-.7-.3-1-.2-.2-.4-.4-.7-.4-.3 0-.6.1-.7.3s-.3.4-.3.7c0 .3.1.5.3.7.2.2.5.3.9.5s.7.3 1 .4.4.3.6.4c.2.2.3.4.4.6s.1.5.1.8c0 .5-.2 1-.5 1.3s-.8.5-1.4.6v1h-.8v-1c-.6-.1-1.1-.3-1.5-.7s-.5-.9-.5-1.6h1.2c0 .4.1.7.3 1s.5.3.9.3.7-.1.8-.3.3-.3.3-.6zM107.6 223.9c-.4.4-.9.6-1.4.6-.6 0-1.1-.2-1.5-.7-.4-.4-.6-1-.6-1.7 0-.5.1-.9.3-1.3s.5-.7.8-.9.8-.3 1.2-.3c.7 0 1.3.3 1.7.8s.6 1.2.6 2.1v.3c0 1.3-.3 2.3-.9 2.9s-1.4 1-2.6 1h-.1v-1h.2c.7 0 1.2-.2 1.6-.5.5-.1.7-.6.7-1.3zm-1.1-.3c.2 0 .5-.1.7-.2s.4-.3.5-.6v-.5c0-.5-.1-.9-.3-1.3s-.5-.5-.8-.5-.6.1-.8.4c-.2.3-.3.6-.3 1.1 0 .4.1.8.3 1.1s.3.5.7.5zM110.8 225.7c.2 0 .4.1.5.2.1.1.2.3.2.5s-.1.3-.2.5c-.1.1-.3.2-.5.2s-.4-.1-.5-.2-.2-.3-.2-.5.1-.3.2-.5.2-.2.5-.2zM116.1 223.9c-.4.4-.9.6-1.4.6-.6 0-1.1-.2-1.5-.7-.4-.4-.6-1-.6-1.7 0-.5.1-.9.3-1.3s.5-.7.8-.9.8-.3 1.2-.3c.7 0 1.3.3 1.7.8s.6 1.2.6 2.1v.3c0 1.3-.3 2.3-.9 2.9s-1.4 1-2.6 1h-.1v-1h.2c.7 0 1.2-.2 1.6-.5.5-.1.7-.6.7-1.3zm-1.1-.3c.2 0 .5-.1.7-.2s.4-.3.5-.6v-.5c0-.5-.1-.9-.3-1.3s-.5-.5-.8-.5-.6.1-.8.4c-.2.3-.3.6-.3 1.1 0 .4.1.8.3 1.1s.3.5.7.5zM121.8 223.9c-.4.4-.9.6-1.4.6-.6 0-1.1-.2-1.5-.7-.4-.4-.6-1-.6-1.7 0-.5.1-.9.3-1.3s.5-.7.8-.9.8-.3 1.2-.3c.7 0 1.3.3 1.7.8s.6 1.2.6 2.1v.3c0 1.3-.3 2.3-.9 2.9s-1.4 1-2.6 1h-.1v-1h.2c.7 0 1.2-.2 1.6-.5.4-.1.6-.6.7-1.3zm-1.1-.3c.2 0 .5-.1.7-.2s.4-.3.5-.6v-.5c0-.5-.1-.9-.3-1.3s-.5-.5-.8-.5-.6.1-.8.4c-.2.3-.3.6-.3 1.1 0 .4.1.8.3 1.1s.3.5.7.5zM128.2 220.3v1.3h.9v.9h-.9v2.9c0 .2 0 .3.1.4.1.1.2.1.4.1h.4v.9c-.3.1-.5.1-.8.1-.9 0-1.4-.5-1.4-1.5v-3h-.9v-.9h.9v-1.3h1.3zM129.6 224.2c0-.5.1-1 .3-1.4.2-.4.5-.7.9-1 .4-.2.8-.3 1.3-.3.7 0 1.3.2 1.7.7.4.5.7 1.1.7 1.8v.3c0 .5-.1 1-.3 1.4-.2.4-.5.7-.9 1-.4.2-.8.3-1.3.3-.7 0-1.3-.2-1.8-.7-.3-.5-.6-1.2-.6-2.1zm1.2.1c0 .5.1 1 .3 1.3.2.3.5.5.9.5s.7-.2.9-.5c.2-.3.3-.8.3-1.4 0-.5-.1-1-.3-1.3-.2-.3-.5-.5-.9-.5s-.7.2-.9.5c-.2.4-.3.8-.3 1.4zM141.4 225.1c0-.3-.1-.5-.3-.7-.2-.2-.5-.3-.9-.5-.4-.1-.7-.3-1-.4-.8-.4-1.1-1-1.1-1.8 0-.5.2-1 .5-1.3s.8-.6 1.3-.6v-1.1h.8v1.1c.6.1 1 .3 1.3.7.3.4.5.9.5 1.6h-1.2c0-.4-.1-.7-.3-1-.2-.2-.4-.4-.7-.4-.3 0-.6.1-.7.3s-.3.4-.3.7c0 .3.1.5.3.7.2.2.5.3.9.5s.7.3 1 .4.4.3.6.4c.2.2.3.4.4.6s.1.5.1.8c0 .5-.2 1-.5 1.3-.3.3-.8.5-1.4.6v1h-.8v-1c-.6-.1-1.1-.3-1.5-.7-.3-.4-.5-.9-.5-1.6h1.2c0 .4.1.7.3 1 .2.2.5.3.9.3s.7-.1.8-.3c.2-.1.3-.3.3-.6zM148.4 226.9h-4.8v-.8l2.4-2.6c.3-.4.6-.7.7-1 .1-.3.2-.5.2-.8 0-.3-.1-.6-.3-.8-.2-.2-.4-.3-.8-.3s-.7.1-.9.4-.3.6-.3 1h-1.2c0-.4.1-.8.3-1.2.2-.3.5-.6.8-.8.4-.2.8-.3 1.3-.3.7 0 1.2.2 1.6.5.4.3.6.8.6 1.4 0 .4-.1.7-.3 1.1-.2.4-.5.8-1 1.3l-1.7 1.9h3.3v1zM153.3 224.4h.9v1h-.9v1.6h-1.2v-1.6H149v-.7l3.1-4.8h1.2v4.5zm-3 0h1.9v-3l-.1.2-1.8 2.8zM155.8 225.7c.2 0 .4.1.5.2.1.1.2.3.2.5s-.1.3-.2.5c-.1.1-.3.2-.5.2s-.4-.1-.5-.2-.2-.3-.2-.5.1-.3.2-.5.3-.2.5-.2zM161.2 223.9c-.4.4-.9.6-1.4.6-.6 0-1.1-.2-1.5-.7-.4-.4-.6-1-.6-1.7 0-.5.1-.9.3-1.3s.5-.7.8-.9.8-.3 1.2-.3c.7 0 1.3.3 1.7.8s.6 1.2.6 2.1v.3c0 1.3-.3 2.3-.9 2.9s-1.4 1-2.6 1h-.1v-1h.2c.7 0 1.2-.2 1.6-.5.4-.1.6-.6.7-1.3zm-1.2-.3c.2 0 .5-.1.7-.2s.4-.3.5-.6v-.5c0-.5-.1-.9-.3-1.3s-.5-.5-.8-.5-.6.1-.8.4c-.2.3-.3.6-.3 1.1 0 .4.1.8.3 1.1s.4.5.7.5zM166.9 223.9c-.4.4-.9.6-1.4.6-.6 0-1.1-.2-1.5-.7-.4-.4-.6-1-.6-1.7 0-.5.1-.9.3-1.3s.5-.7.8-.9.8-.3 1.2-.3c.7 0 1.3.3 1.7.8s.6 1.2.6 2.1v.3c0 1.3-.3 2.3-.9 2.9s-1.4 1-2.6 1h-.1v-1h.2c.7 0 1.2-.2 1.6-.5.4-.1.6-.6.7-1.3zm-1.2-.3c.2 0 .5-.1.7-.2s.4-.3.5-.6v-.5c0-.5-.1-.9-.3-1.3s-.5-.5-.8-.5-.6.1-.8.4c-.2.3-.3.6-.3 1.1 0 .4.1.8.3 1.1s.4.5.7.5zM169.6 227.5h-.9l2.8-7.7h.9l-2.8 7.7zM174.3 221.6v.6c.4-.4.9-.6 1.5-.6.7 0 1.2.3 1.5.8.4-.5.9-.8 1.6-.8.6 0 1 .2 1.3.5.3.3.4.8.4 1.4v3.5h-1.2v-3.4c0-.3-.1-.6-.2-.7s-.4-.2-.7-.2c-.3 0-.5.1-.7.2-.2.1-.3.3-.4.6v3.6h-1.2v-3.5c0-.6-.3-.9-1-.9-.5 0-.8.2-1 .6v3.8H173v-5.3h1.3zM181.7 224.2c0-.5.1-1 .3-1.4.2-.4.5-.7.9-1 .4-.2.8-.3 1.3-.3.7 0 1.3.2 1.7.7.4.5.7 1.1.7 1.8v.3c0 .5-.1 1-.3 1.4-.2.4-.5.7-.9 1-.4.2-.8.3-1.3.3-.7 0-1.3-.2-1.8-.7-.4-.5-.6-1.2-.6-2.1zm1.2.1c0 .5.1 1 .3 1.3.2.3.5.5.9.5s.7-.2.9-.5c.2-.3.3-.8.3-1.4 0-.5-.1-1-.3-1.3-.2-.3-.5-.5-.9-.5s-.7.2-.9.5c-.2.4-.3.8-.3 1.4zM188.7 221.6v.6c.4-.5.9-.7 1.5-.7 1.1 0 1.7.6 1.7 1.9v3.5h-1.2v-3.4c0-.3-.1-.6-.2-.7-.1-.2-.4-.2-.7-.2-.5 0-.8.2-1.1.6v3.8h-1.2v-5.3h1.2zM194.6 220.3v1.3h.9v.9h-.9v2.9c0 .2 0 .3.1.4.1.1.2.1.4.1h.4v.9c-.3.1-.5.1-.8.1-.9 0-1.4-.5-1.4-1.5v-3h-.9v-.9h.9v-1.3h1.3zM197.7 222.2c.4-.4.9-.7 1.5-.7 1.1 0 1.7.6 1.7 1.9v3.5h-1.2v-3.4c0-.4-.1-.6-.2-.8-.2-.2-.4-.2-.7-.2-.5 0-.8.2-1.1.6v3.8h-1.2v-7.5h1.2v2.8zM202.8 225.7c.2 0 .4.1.5.2.1.1.2.3.2.5s-.1.3-.2.5c-.1.1-.3.2-.5.2s-.4-.1-.5-.2-.2-.3-.2-.5.1-.3.2-.5.3-.2.5-.2z"/></g></svg>