<svg id="Layer_1" xmlns="http://www.w3.org/2000/svg" viewBox="0 0 300 250"><style>.st0{fill:#e82d8a;stroke:#fff;stroke-width:.75;stroke-miterlimit:10}.st1{fill:#fff}</style><path class="st0" d="M198.1 187.7H102c-13.4 0-24.3-10.9-24.3-24.3s10.9-24.3 24.3-24.3h96.1c13.4 0 24.3 10.9 24.3 24.3-.1 13.5-10.9 24.3-24.3 24.3z"/><path class="st1" d="M131.2 156.9c-.1 1.3-.6 2.3-1.4 3.1s-2 1.1-3.4 1.1c-1.5 0-2.8-.5-3.6-1.6-.9-1-1.3-2.5-1.3-4.3v-.7c0-1.2.2-2.2.6-3.1.4-.9 1-1.6 1.7-2 .8-.5 1.6-.7 2.6-.7 1.4 0 2.5.4 3.4 1.1s1.3 1.8 1.5 3.1h-2.5c-.1-.8-.3-1.3-.6-1.7s-.9-.5-1.7-.5c-.8 0-1.4.3-1.9.9s-.6 1.5-.6 2.8v.9c0 1.3.2 2.2.6 2.8.4.6 1 .9 1.9.9.8 0 1.3-.2 1.7-.5s.6-.9.6-1.6h2.4zM135.2 160.9h-2.4v-12.7h2.4v12.7zM137.2 149.7c0-.4.1-.7.4-.9.2-.2.6-.3 1-.3s.7.1 1 .3.4.5.4.9-.1.7-.4.9c-.2.2-.6.3-1 .3s-.7-.1-1-.3c-.3-.2-.4-.5-.4-.9zm2.5 11.2h-2.4V152h2.4v8.9zM145.4 159.2c.4 0 .8-.1 1.1-.4.3-.2.4-.6.4-1h2.2c0 .6-.2 1.2-.5 1.7s-.8.9-1.3 1.2c-.6.3-1.2.4-1.9.4-1.3 0-2.3-.4-3-1.2-.7-.8-1.1-1.9-1.1-3.4v-.2c0-1.4.4-2.5 1.1-3.3s1.7-1.2 3-1.2c1.1 0 2 .3 2.7 1 .7.6 1 1.5 1 2.5h-2.2c0-.5-.2-.8-.4-1.1-.3-.3-.6-.4-1.1-.4-.6 0-1 .2-1.3.6-.3.4-.4 1.1-.4 2v.2c0 .9.1 1.6.4 2s.7.6 1.3.6zM153.7 157.4l-.9.9v2.7h-2.4v-12.7h2.4v7l.5-.6 2.3-2.7h2.9l-3.2 3.7 3.5 5.2H156l-2.3-3.5zM166.6 149.8v2.2h1.5v1.8h-1.5v4.5c0 .3.1.6.2.7.1.1.4.2.7.2.3 0 .5 0 .7-.1v1.8c-.5.1-.9.2-1.4.2-1.7 0-2.5-.8-2.6-2.5v-4.8h-1.3V152h1.3v-2.2h2.4zM168.8 156.4c0-.9.2-1.7.5-2.4s.8-1.2 1.5-1.6c.6-.4 1.4-.6 2.2-.6 1.2 0 2.2.4 3 1.1.8.7 1.2 1.7 1.3 3v.6c0 1.4-.4 2.5-1.1 3.3-.8.8-1.8 1.2-3.1 1.2s-2.3-.4-3.1-1.2-1.2-1.9-1.2-3.4zm2.4.2c0 .8.2 1.5.5 1.9s.8.7 1.4.7c.6 0 1-.2 1.4-.7.3-.4.5-1.2.5-2.1 0-.8-.2-1.5-.5-1.9-.3-.5-.8-.7-1.4-.7-.6 0-1 .2-1.4.7-.3.4-.5 1.1-.5 2.1zM111.7 178.9h-2.4v-12.7h2.4v12.7zM117.8 179.1c-1.3 0-2.4-.4-3.2-1.2s-1.2-1.9-1.2-3.2v-.2c0-.9.2-1.7.5-2.4s.8-1.3 1.5-1.6c.6-.4 1.4-.6 2.2-.6 1.2 0 2.2.4 2.9 1.2s1.1 1.9 1.1 3.3v1h-5.7c.1.6.3 1.1.7 1.4.4.4.9.5 1.5.5.9 0 1.6-.3 2.2-1l1.2 1.3c-.4.5-.8.9-1.5 1.2-.8.2-1.5.3-2.2.3zm-.3-7.3c-.5 0-.9.2-1.2.5-.3.3-.5.8-.6 1.4h3.3v-.2c0-.5-.2-.9-.4-1.2s-.6-.5-1.1-.5zM128 178.9c-.1-.2-.2-.5-.2-.8-.6.6-1.3 1-2.3 1-.9 0-1.6-.3-2.2-.8-.6-.5-.9-1.1-.9-1.9 0-.9.4-1.7 1.1-2.2.7-.5 1.7-.8 3-.8h1.1v-.4c0-.4-.1-.7-.3-1-.2-.2-.5-.4-1-.4-.4 0-.7.1-.9.3-.2.2-.3.5-.3.8h-2.4c0-.5.2-1 .5-1.4s.8-.8 1.4-1c.6-.3 1.2-.4 2-.4 1.1 0 2 .3 2.6.8.6.6 1 1.3 1 2.3v3.9c0 .8.1 1.5.4 1.9v.1H128zm-2-1.6c.4 0 .7-.1 1-.2.3-.2.5-.4.7-.6V175h-.9c-1.2 0-1.8.4-1.9 1.2v.1c0 .3.1.5.3.7s.5.3.8.3zM136.9 172.2c-.3 0-.6-.1-.9-.1-.9 0-1.5.3-1.8.9v5.8h-2.4V170h2.3l.1 1.1c.5-.8 1.1-1.2 2-1.2.3 0 .5 0 .7.1v2.2zM140.2 170l.1 1c.6-.8 1.5-1.2 2.6-1.2.9 0 1.7.3 2.1.8.5.6.7 1.4.7 2.5v5.8h-2.4v-5.7c0-.5-.1-.9-.3-1.1s-.6-.3-1.1-.3c-.7 0-1.2.3-1.5.9v6.3H138v-9h2.2zM154 170l.1 1c.6-.8 1.5-1.2 2.6-1.2 1.2 0 1.9.5 2.4 1.4.6-.9 1.5-1.4 2.7-1.4 1 0 1.7.3 2.2.8.5.6.7 1.4.7 2.5v5.7h-2.4v-5.7c0-.5-.1-.9-.3-1.1-.2-.2-.5-.4-1-.4-.7 0-1.2.3-1.5 1v6.1h-2.4V173c0-.5-.1-.9-.3-1.1-.2-.2-.6-.3-1-.3-.7 0-1.2.3-1.5.8v6.3h-2.4V170h2.1zM166 174.4c0-.9.2-1.7.5-2.4s.8-1.2 1.5-1.6c.6-.4 1.4-.6 2.2-.6 1.2 0 2.2.4 3 1.1.8.7 1.2 1.7 1.3 3v.6c0 1.4-.4 2.5-1.1 3.3-.8.8-1.8 1.2-3.1 1.2s-2.3-.4-3.1-1.2-1.2-1.9-1.2-3.4zm2.4.2c0 .8.2 1.5.5 1.9s.8.7 1.4.7c.6 0 1-.2 1.4-.7.3-.4.5-1.2.5-2.1 0-.8-.2-1.5-.5-1.9-.3-.5-.8-.7-1.4-.7-.6 0-1 .2-1.4.7-.4.4-.5 1.1-.5 2.1zM180.9 172.2c-.3 0-.6-.1-.9-.1-.9 0-1.5.3-1.8.9v5.8h-2.4V170h2.3l.1 1.1c.5-.8 1.1-1.2 2-1.2.3 0 .5 0 .7.1v2.2zM186.2 179.1c-1.3 0-2.4-.4-3.2-1.2-.8-.8-1.2-1.9-1.2-3.2v-.2c0-.9.2-1.7.5-2.4s.8-1.3 1.5-1.6 1.4-.6 2.2-.6c1.2 0 2.2.4 2.9 1.2.7.8 1.1 1.9 1.1 3.3v1h-5.7c.1.6.3 1.1.7 1.4.4.4.9.5 1.5.5.9 0 1.6-.3 2.2-1l1.2 1.3c-.4.5-.8.9-1.5 1.2-.8.2-1.5.3-2.2.3zm-.3-7.3c-.5 0-.9.2-1.2.5-.3.3-.5.8-.6 1.4h3.3v-.2c0-.5-.2-.9-.4-1.2-.2-.4-.6-.5-1.1-.5z"/></svg>