<svg id="Layer_1" xmlns="http://www.w3.org/2000/svg" viewBox="0 0 728 90"><style>.st0{fill:#021d8b}.st1{fill:#782eeb}</style><g id="Tis_the_season_28_"><path class="st0" d="M440.46 40.14l1.34-7.33h2.79l-2.48 11.68h-2.92l-1.56-6.66-1.53 6.66h-2.91l-2.49-11.68h2.8l1.34 7.33 1.6-7.33h2.39l1.63 7.33zM449.52 44.66c-1.33 0-2.41-.4-3.23-1.19-.82-.79-1.24-1.83-1.24-3.1v-.22c0-.89.16-1.67.49-2.35.33-.68.81-1.2 1.44-1.58.63-.37 1.38-.56 2.25-.56 1.22 0 2.18.38 2.89 1.14.71.76 1.06 1.81 1.06 3.17v1.05h-5.38c.1.49.31.87.63 1.15.33.28.75.42 1.27.42.86 0 1.52-.3 2.01-.9l1.24 1.46c-.34.47-.81.84-1.43 1.11-.62.26-1.29.4-2 .4zm-.31-6.92c-.79 0-1.26.52-1.41 1.57h2.73v-.21c.01-.43-.1-.77-.33-1.01-.23-.23-.56-.35-.99-.35zM455.67 33.47l-.26 3.31h-1.66v-4.61h1.93v1.3zM459.54 44.5h-2.71V32.17h2.71V44.5zM464.06 44.5h-2.71V32.17h2.71V44.5zM472.37 35.81l.09 1.02c.62-.79 1.44-1.18 2.48-1.18 1.1 0 1.84.44 2.22 1.31.59-.87 1.44-1.31 2.55-1.31 1.76 0 2.66 1.06 2.71 3.19v5.65h-2.71v-5.48c0-.44-.07-.77-.22-.97-.15-.2-.42-.3-.82-.3-.54 0-.93.24-1.2.71l.01.11v5.93h-2.71v-5.46c0-.45-.07-.78-.22-.99-.14-.2-.42-.3-.83-.3-.52 0-.91.24-1.19.71v6.04h-2.7v-8.68h2.54zM483.63 40.08c0-.87.17-1.64.51-2.31s.82-1.2 1.45-1.56c.63-.36 1.37-.55 2.22-.55 1.3 0 2.32.4 3.07 1.21.75.81 1.12 1.9 1.12 3.29v.1c0 1.35-.38 2.43-1.13 3.22-.75.79-1.77 1.19-3.05 1.19-1.24 0-2.23-.37-2.98-1.11s-1.15-1.75-1.21-3.01v-.47zm2.7.16c0 .8.13 1.39.38 1.77.25.37.62.56 1.12.56.96 0 1.45-.74 1.48-2.22v-.27c0-1.56-.5-2.33-1.49-2.33-.9 0-1.39.67-1.47 2.01l-.02.48zM495.68 35.81l.09 1.02c.6-.79 1.43-1.18 2.48-1.18.9 0 1.58.27 2.03.81.45.54.68 1.35.69 2.44v5.59h-2.71v-5.48c0-.44-.09-.76-.26-.97-.18-.21-.5-.31-.96-.31-.53 0-.92.21-1.18.63v6.13h-2.7v-8.68h2.52zM502.44 33.58c0-.39.14-.7.42-.95.28-.25.64-.37 1.08-.37.44 0 .8.12 1.08.37s.42.56.42.95c0 .39-.14.7-.42.95-.28.25-.64.37-1.08.37-.44 0-.8-.12-1.08-.37s-.42-.57-.42-.95zm2.88 10.92h-2.71v-8.68h2.71v8.68zM510.13 33.66v2.16h1.43v1.88h-1.43v3.97c0 .33.06.55.18.68s.35.19.7.19c.27 0 .49-.02.67-.05v1.93c-.49.16-.99.23-1.52.23-.93 0-1.62-.22-2.06-.66-.44-.44-.67-1.1-.67-2v-4.31h-1.11V35.8h1.11v-2.16h2.7zM512.04 40.08c0-.87.17-1.64.51-2.31.34-.68.82-1.2 1.45-1.56.63-.36 1.37-.55 2.22-.55 1.3 0 2.32.4 3.07 1.21.75.81 1.12 1.9 1.12 3.29v.1c0 1.35-.38 2.43-1.13 3.22-.75.79-1.77 1.19-3.05 1.19-1.24 0-2.23-.37-2.98-1.11-.75-.74-1.15-1.75-1.21-3.01v-.47zm2.7.16c0 .8.13 1.39.38 1.77.25.37.62.56 1.12.56.96 0 1.45-.74 1.48-2.22v-.27c0-1.56-.5-2.33-1.49-2.33-.9 0-1.39.67-1.47 2.01l-.02.48zM526.86 38.26l-.89-.06c-.85 0-1.4.27-1.64.8v5.5h-2.7v-8.68h2.54l.09 1.12c.45-.85 1.09-1.28 1.9-1.28.29 0 .54.03.75.1l-.05 2.5zM535.4 40.71l1.44-4.89h2.9l-3.54 10.13-.15.37c-.5 1.12-1.39 1.68-2.66 1.68-.35 0-.72-.05-1.12-.16v-1.93h.35c.38 0 .67-.05.87-.16.2-.11.35-.31.45-.59l.22-.58-3.02-8.77h2.89l1.37 4.9zM539.98 40.08c0-.87.17-1.64.51-2.31.34-.68.82-1.2 1.45-1.56.63-.36 1.37-.55 2.22-.55 1.3 0 2.32.4 3.07 1.21.75.81 1.12 1.9 1.12 3.29v.1c0 1.35-.38 2.43-1.13 3.22-.75.79-1.77 1.19-3.05 1.19-1.24 0-2.23-.37-2.98-1.11-.75-.74-1.15-1.75-1.21-3.01v-.47zm2.7.16c0 .8.13 1.39.38 1.77.25.37.62.56 1.12.56.96 0 1.45-.74 1.48-2.22v-.27c0-1.56-.5-2.33-1.49-2.33-.9 0-1.39.67-1.47 2.01l-.02.48zM554.72 43.56c-.57.73-1.35 1.1-2.32 1.1-.95 0-1.67-.28-2.16-.83-.49-.55-.73-1.35-.73-2.39v-5.62h2.7v5.64c0 .74.36 1.12 1.08 1.12.62 0 1.06-.22 1.32-.67v-6.09h2.72v8.68h-2.54l-.07-.94zM564.07 38.26l-.89-.06c-.85 0-1.4.27-1.64.8v5.5h-2.7v-8.68h2.54l.09 1.12c.45-.85 1.09-1.28 1.9-1.28.29 0 .54.03.75.1l-.05 2.5z"/><path class="st1" d="M434.96 62.29c.38 0 .67-.1.88-.31s.31-.49.3-.86h2.54c0 .95-.34 1.73-1.02 2.34-.68.61-1.56.91-2.64.91-1.26 0-2.26-.4-2.98-1.19-.73-.79-1.09-1.89-1.09-3.29v-.11c0-.88.16-1.65.49-2.32.32-.67.79-1.19 1.4-1.55.61-.36 1.33-.54 2.17-.54 1.13 0 2.02.31 2.69.94.66.63.99 1.47.99 2.54h-2.54c0-.45-.11-.79-.33-1.04-.22-.24-.51-.36-.88-.36-.7 0-1.11.45-1.23 1.34-.04.28-.06.67-.06 1.17 0 .87.1 1.48.31 1.81s.54.52 1 .52zM445.07 57.98l-.89-.06c-.85 0-1.4.27-1.64.8v5.5h-2.7v-8.68h2.54l.09 1.12c.45-.85 1.09-1.28 1.9-1.28.29 0 .54.03.75.1l-.05 2.5zM450.1 64.38c-1.33 0-2.41-.4-3.23-1.19s-1.24-1.83-1.24-3.1v-.22c0-.89.16-1.67.49-2.35.33-.68.81-1.2 1.44-1.58.63-.37 1.38-.56 2.25-.56 1.22 0 2.18.38 2.89 1.14s1.06 1.81 1.06 3.17v1.05h-5.38c.1.49.31.87.63 1.15.33.28.75.42 1.27.42.86 0 1.52-.3 2.01-.9l1.24 1.46c-.34.47-.81.84-1.43 1.11-.63.26-1.29.4-2 .4zm-.31-6.92c-.79 0-1.26.52-1.41 1.57h2.73v-.21c.01-.43-.1-.77-.33-1.01-.23-.23-.56-.35-.99-.35zM454.5 59.81c0-1.37.3-2.46.89-3.25.59-.79 1.42-1.19 2.49-1.19.78 0 1.43.3 1.96.91v-4.4h2.71V64.2h-2.43l-.14-.93c-.56.73-1.26 1.09-2.12 1.09-1.03 0-1.85-.4-2.46-1.19-.6-.77-.9-1.9-.9-3.36zm2.71.17c0 1.54.45 2.31 1.35 2.31.6 0 1.03-.25 1.28-.75v-3.31c-.25-.51-.67-.77-1.27-.77-.83 0-1.29.67-1.36 2.02v.5zM464.07 53.3c0-.39.14-.7.42-.95.28-.25.64-.37 1.08-.37s.8.12 1.08.37.42.56.42.95c0 .39-.14.7-.42.95-.28.25-.64.37-1.08.37s-.8-.12-1.08-.37-.42-.57-.42-.95zm2.87 10.92h-2.71v-8.68h2.71v8.68zM471.75 53.38v2.16h1.43v1.88h-1.43v3.97c0 .33.06.55.18.68s.35.19.7.19c.27 0 .49-.02.67-.05v1.93c-.49.16-.99.23-1.52.23-.93 0-1.62-.22-2.06-.66s-.67-1.1-.67-2V57.4h-1.11v-1.88h1.11v-2.16h2.7zM482.01 62.29c.38 0 .67-.1.88-.31s.31-.49.3-.86h2.54c0 .95-.34 1.73-1.02 2.34-.68.61-1.56.91-2.64.91-1.26 0-2.26-.4-2.98-1.19-.73-.78-1.09-1.88-1.09-3.28v-.11c0-.88.16-1.65.49-2.32.32-.67.79-1.19 1.4-1.55.61-.36 1.33-.54 2.17-.54 1.13 0 2.02.31 2.69.94.66.63.99 1.47.99 2.54h-2.54c0-.45-.11-.79-.33-1.04-.22-.24-.51-.36-.88-.36-.7 0-1.11.45-1.23 1.34-.04.28-.06.67-.06 1.17 0 .87.1 1.48.31 1.81s.54.51 1 .51zM491.76 64.22c-.1-.18-.18-.44-.26-.78-.5.63-1.19.94-2.09.94-.82 0-1.51-.25-2.09-.74-.57-.49-.86-1.12-.86-1.87 0-.94.35-1.65 1.04-2.13.7-.48 1.71-.72 3.03-.72h.83v-.46c0-.8-.35-1.2-1.04-1.2-.64 0-.96.32-.96.95h-2.7c0-.84.36-1.52 1.07-2.04.71-.52 1.63-.79 2.73-.79 1.11 0 1.98.27 2.62.81.64.54.97 1.28.99 2.22v3.84c.01.8.13 1.41.37 1.83v.14h-2.68zm-1.69-1.77c.34 0 .62-.07.84-.22.22-.14.38-.31.48-.49v-1.39h-.79c-.94 0-1.41.42-1.41 1.27 0 .25.08.45.25.6.16.15.37.23.63.23zM500.85 57.98l-.89-.06c-.85 0-1.4.27-1.64.8v5.5h-2.7v-8.68h2.54l.09 1.12c.45-.85 1.09-1.28 1.9-1.28.29 0 .54.03.75.1l-.05 2.5zM501.33 59.81c0-1.37.3-2.46.89-3.25.59-.79 1.42-1.19 2.49-1.19.78 0 1.43.3 1.96.91v-4.4h2.71V64.2h-2.43l-.14-.93c-.56.73-1.26 1.09-2.12 1.09-1.03 0-1.85-.4-2.46-1.19-.6-.77-.9-1.9-.9-3.36zm2.7.17c0 1.54.45 2.31 1.35 2.31.6 0 1.03-.25 1.28-.75v-3.31c-.25-.51-.67-.77-1.27-.77-.83 0-1.29.67-1.36 2.02v.5zM515.46 61.78c0-.23-.12-.41-.36-.55-.24-.14-.7-.28-1.37-.43-.67-.15-1.23-.35-1.67-.59-.44-.24-.77-.54-1-.89a2.14 2.14 0 0 1-.35-1.2c0-.8.33-1.45.99-1.97.66-.52 1.52-.77 2.58-.77 1.14 0 2.06.26 2.76.78.7.52 1.04 1.2 1.04 2.05h-2.71c0-.7-.37-1.04-1.1-1.04-.28 0-.52.08-.71.24-.19.16-.29.35-.29.59s.12.44.35.59.61.27 1.13.37c.52.1.97.21 1.36.35 1.31.45 1.96 1.25 1.96 2.42 0 .79-.35 1.44-1.06 1.93-.7.5-1.61.75-2.73.75-.74 0-1.41-.13-1.99-.4-.58-.27-1.04-.63-1.36-1.09s-.49-.94-.49-1.45h2.53c.01.4.14.69.4.88.26.18.59.28.99.28.37 0 .65-.07.83-.22.18-.2.27-.39.27-.63z"/></g></svg>