<svg id="Layer_1" xmlns="http://www.w3.org/2000/svg" viewBox="0 0 300 250"><style>.st0{fill:#782eeb}</style><path class="st0" d="M168.37 189.98c.29 0 .51-.08.66-.23.16-.15.23-.37.23-.65h1.91c0 .72-.26 1.3-.77 1.76-.51.46-1.17.69-1.98.69-.95 0-1.7-.3-2.25-.89-.55-.6-.82-1.42-.82-2.47v-.08c0-.66.12-1.24.36-1.75.24-.5.59-.89 1.05-1.16.46-.27 1-.41 1.63-.41.85 0 1.52.24 2.02.71s.75 1.11.75 1.91h-1.91c0-.34-.08-.6-.25-.78-.16-.18-.39-.27-.66-.27-.53 0-.83.34-.92 1.01-.03.21-.04.51-.04.88 0 .66.08 1.11.24 1.36.16.24.41.37.75.37zM175.98 186.74l-.67-.05c-.64 0-1.05.2-1.23.6v4.13h-2.03v-6.53h1.91l.07.84c.34-.64.82-.96 1.43-.96.22 0 .41.02.57.07l-.05 1.9zM179.76 191.55c-1 0-1.81-.3-2.43-.9-.62-.6-.93-1.38-.93-2.33v-.17c0-.67.12-1.26.37-1.77s.61-.91 1.08-1.19c.47-.28 1.04-.42 1.69-.42.92 0 1.64.28 2.17.85s.8 1.36.8 2.38v.79h-4.04c.07.37.23.65.48.86.25.21.56.31.95.31.64 0 1.15-.23 1.51-.68l.93 1.1c-.25.35-.61.63-1.08.84-.47.22-.97.33-1.5.33zm-.23-5.21c-.6 0-.95.39-1.06 1.18h2.05v-.16c.01-.33-.07-.58-.25-.76-.17-.17-.42-.26-.74-.26zM183.07 188.11c0-1.03.22-1.85.67-2.44.45-.6 1.07-.89 1.87-.89.58 0 1.07.23 1.47.69v-3.31h2.04v9.27h-1.83l-.1-.7c-.42.55-.95.82-1.59.82-.78 0-1.39-.3-1.85-.89-.45-.6-.68-1.45-.68-2.55zm2.03.13c0 1.16.34 1.74 1.01 1.74.45 0 .77-.19.97-.57v-2.49c-.19-.39-.5-.58-.95-.58-.63 0-.97.51-1.02 1.52l-.01.38zM190.26 183.21c0-.29.1-.53.31-.71.21-.18.48-.28.81-.28s.61.09.81.28c.21.18.31.42.31.71s-.1.53-.31.71c-.21.18-.48.28-.81.28s-.61-.09-.81-.28a.922.922 0 0 1-.31-.71zm2.16 8.22h-2.04v-6.53h2.04v6.53zM196.04 183.27v1.62h1.07v1.41h-1.07v2.99c0 .25.04.42.13.51s.26.14.53.14c.2 0 .37-.01.51-.04v1.45c-.37.12-.75.18-1.15.18-.7 0-1.22-.17-1.55-.49-.33-.33-.5-.83-.5-1.5v-3.24h-.83v-1.41h.83v-1.62h2.03zM203.76 189.98c.29 0 .51-.08.66-.23.16-.15.23-.37.23-.65h1.91c0 .72-.26 1.3-.77 1.76-.51.46-1.17.69-1.98.69-.95 0-1.7-.3-2.25-.89-.55-.6-.82-1.42-.82-2.47v-.08c0-.66.12-1.24.36-1.75.24-.5.59-.89 1.05-1.16.46-.27 1-.41 1.63-.41.85 0 1.52.24 2.02.71s.75 1.11.75 1.91h-1.91c0-.34-.08-.6-.25-.78-.16-.18-.39-.27-.66-.27-.53 0-.83.34-.92 1.01-.03.21-.04.51-.04.88 0 .66.08 1.11.24 1.36.16.24.41.37.75.37zM211.1 191.43c-.07-.13-.14-.33-.19-.59-.37.47-.9.71-1.57.71-.62 0-1.14-.19-1.57-.56-.43-.37-.65-.84-.65-1.4 0-.71.26-1.24.78-1.61.52-.36 1.28-.54 2.28-.54h.63v-.35c0-.6-.26-.9-.78-.9-.48 0-.72.24-.72.72h-2.03c0-.63.27-1.14.81-1.54.54-.39 1.22-.59 2.06-.59s1.49.2 1.97.61.73.96.74 1.67v2.89c.01.6.1 1.06.28 1.38v.1h-2.04zm-1.28-1.33c.25 0 .46-.05.63-.16.17-.11.29-.23.36-.37v-1.04h-.59c-.71 0-1.06.32-1.06.95 0 .19.06.33.19.45s.28.17.47.17zM217.93 186.74l-.67-.05c-.64 0-1.05.2-1.23.6v4.13H214v-6.53h1.91l.07.84c.34-.64.82-.96 1.43-.96.22 0 .41.02.57.07l-.05 1.9zM218.29 188.11c0-1.03.22-1.85.67-2.44.45-.6 1.07-.89 1.87-.89.58 0 1.07.23 1.47.69v-3.31h2.04v9.27h-1.83l-.1-.7c-.42.55-.95.82-1.59.82-.78 0-1.39-.3-1.85-.89-.45-.6-.68-1.45-.68-2.55zm2.03.13c0 1.16.34 1.74 1.01 1.74.45 0 .77-.19.97-.57v-2.49c-.19-.39-.5-.58-.95-.58-.63 0-.97.51-1.02 1.52l-.01.38zM228.92 189.59c0-.17-.09-.31-.27-.42-.18-.1-.53-.21-1.03-.33-.51-.11-.93-.26-1.26-.44-.33-.18-.58-.41-.75-.67a1.61 1.61 0 0 1-.26-.9c0-.6.25-1.09.74-1.48s1.14-.58 1.94-.58c.86 0 1.55.2 2.08.59.52.39.78.9.78 1.54h-2.04c0-.52-.28-.78-.83-.78-.21 0-.39.06-.54.18-.14.12-.22.27-.22.44 0 .18.09.33.27.44.18.11.46.21.85.28.39.07.73.16 1.02.26.98.34 1.47.94 1.47 1.82 0 .6-.26 1.08-.79 1.45-.53.37-1.21.56-2.05.56-.56 0-1.06-.1-1.5-.3-.44-.2-.78-.47-1.03-.82s-.37-.71-.37-1.09h1.9c.01.3.11.52.3.66s.44.21.74.21c.28 0 .49-.06.62-.17.16-.12.23-.27.23-.45z"/></svg>