<svg id="Layer_1" xmlns="http://www.w3.org/2000/svg" viewBox="0 0 300 250"><style>.st0{fill:#e82d8a}</style><path class="st0" d="M171.49 188.31c0 1.08-.22 1.9-.67 2.48-.44.58-1.07.87-1.88.87-.67 0-1.21-.26-1.61-.79l-.08.67h-1.83v-9.32h2.04v3.28c.38-.43.87-.65 1.47-.65.82 0 1.45.29 1.89.88.44.59.67 1.41.67 2.47v.11zm-2.05-.14c0-.63-.08-1.08-.25-1.35-.17-.27-.43-.4-.77-.4-.46 0-.78.18-.96.53v2.6c.17.35.5.52.97.52.48 0 .79-.23.92-.7.06-.23.09-.63.09-1.2zM176.09 191.53c-.07-.13-.14-.33-.19-.59-.38.47-.9.71-1.58.71-.62 0-1.14-.19-1.58-.56-.43-.37-.65-.84-.65-1.41 0-.71.26-1.25.79-1.61.53-.36 1.29-.55 2.29-.55h.63v-.35c0-.61-.26-.91-.78-.91-.49 0-.73.24-.73.72h-2.04c0-.63.27-1.15.81-1.54.54-.4 1.23-.59 2.07-.59s1.5.2 1.98.61c.49.41.73.97.75 1.68v2.91c.01.6.1 1.06.28 1.38v.1h-2.05zm-1.28-1.33c.25 0 .47-.05.63-.16.17-.11.29-.23.36-.37v-1.05h-.59c-.71 0-1.07.32-1.07.96 0 .19.06.34.19.45.12.11.28.17.48.17zM180.86 184.97l.07.77c.45-.59 1.08-.89 1.87-.89.68 0 1.19.2 1.53.61.34.41.51 1.02.52 1.84v4.23h-2.05v-4.14c0-.33-.07-.58-.2-.73s-.38-.23-.73-.23c-.4 0-.7.16-.89.47v4.63h-2.04v-6.56h1.92zM188.62 189.09l-.58.58v1.87H186v-9.32h2.04v4.95l.21-.27 1.54-1.92h2.45l-2.3 2.7 2.45 3.86h-2.34l-1.43-2.45zM199.57 191.53c-.07-.13-.14-.33-.19-.59-.38.47-.9.71-1.58.71-.62 0-1.14-.19-1.58-.56-.43-.37-.65-.84-.65-1.41 0-.71.26-1.25.79-1.61.53-.36 1.29-.55 2.29-.55h.63v-.35c0-.61-.26-.91-.78-.91-.49 0-.73.24-.73.72h-2.04c0-.63.27-1.15.81-1.54.54-.4 1.23-.59 2.07-.59s1.5.2 1.98.61c.49.41.73.97.75 1.68v2.91c.01.6.1 1.06.28 1.38v.1h-2.05zm-1.28-1.33c.25 0 .47-.05.63-.16.17-.11.29-.23.36-.37v-1.05h-.59c-.71 0-1.07.32-1.07.96 0 .19.06.34.19.45.13.11.29.17.48.17zM205.25 190.08c.29 0 .51-.08.67-.23.16-.16.23-.37.23-.65h1.92c0 .72-.26 1.31-.77 1.77-.52.46-1.18.69-1.99.69-.95 0-1.71-.3-2.26-.9-.55-.6-.82-1.43-.82-2.49v-.08c0-.66.12-1.25.37-1.76.24-.51.6-.9 1.06-1.17s1.01-.41 1.64-.41c.85 0 1.53.24 2.03.71s.75 1.11.75 1.92h-1.92c0-.34-.08-.6-.25-.78-.17-.18-.39-.27-.67-.27-.53 0-.84.34-.93 1.01-.03.21-.04.51-.04.89 0 .66.08 1.12.24 1.37.14.25.39.38.74.38zM211.7 190.08c.29 0 .51-.08.67-.23.16-.16.23-.37.23-.65h1.92c0 .72-.26 1.31-.77 1.77-.52.46-1.18.69-1.99.69-.95 0-1.71-.3-2.26-.9-.55-.6-.82-1.43-.82-2.49v-.08c0-.66.12-1.25.37-1.76.24-.51.6-.9 1.06-1.17.46-.27 1.01-.41 1.64-.41.85 0 1.53.24 2.03.71.5.47.75 1.11.75 1.92h-1.92c0-.34-.08-.6-.25-.78-.17-.18-.39-.27-.67-.27-.53 0-.84.34-.93 1.01-.03.21-.04.51-.04.89 0 .66.08 1.12.24 1.37.15.25.4.38.74.38zM215.12 188.19c0-.66.13-1.24.38-1.75s.62-.9 1.1-1.18 1.04-.41 1.68-.41c.98 0 1.76.3 2.32.91.57.61.85 1.44.85 2.48v.07c0 1.02-.28 1.83-.85 2.44-.57.6-1.34.9-2.31.9-.93 0-1.68-.28-2.25-.84-.57-.56-.87-1.32-.92-2.28v-.34zm2.04.13c0 .61.1 1.05.29 1.33.19.28.47.42.84.42.73 0 1.1-.56 1.12-1.68v-.21c0-1.18-.38-1.77-1.13-1.77-.68 0-1.05.51-1.11 1.52l-.01.39zM226.26 190.82c-.43.55-1.02.83-1.75.83-.72 0-1.26-.21-1.64-.63-.37-.42-.55-1.02-.55-1.8v-4.25h2.04v4.26c0 .56.27.84.82.84.47 0 .8-.17 1-.5v-4.6h2.06v6.56h-1.92l-.06-.71zM231.24 184.97l.07.77c.45-.59 1.08-.89 1.87-.89.68 0 1.19.2 1.53.61.34.41.51 1.02.52 1.84v4.23h-2.05v-4.14c0-.33-.07-.58-.2-.73-.13-.16-.38-.23-.73-.23-.4 0-.7.16-.89.47v4.63h-2.04v-6.56h1.92zM238.75 183.34v1.63h1.08v1.42h-1.08v3c0 .25.04.42.13.52.09.1.27.15.53.15.2 0 .37-.01.51-.04v1.46c-.37.12-.75.18-1.15.18-.7 0-1.22-.17-1.56-.5-.34-.33-.5-.83-.5-1.51v-3.26h-.84v-1.42h.84v-1.63h2.04zM244.07 189.69c0-.17-.09-.31-.27-.42s-.53-.21-1.04-.33-.93-.26-1.26-.45c-.33-.18-.58-.41-.76-.67s-.26-.56-.26-.9c0-.6.25-1.1.75-1.49s1.15-.59 1.95-.59c.87 0 1.56.2 2.09.59.53.39.79.91.79 1.55H244c0-.53-.28-.79-.83-.79-.21 0-.39.06-.54.18s-.22.27-.22.45.09.33.27.44c.18.11.46.21.85.28.39.07.73.16 1.03.26.99.34 1.48.95 1.48 1.83 0 .6-.27 1.09-.8 1.46-.53.38-1.22.56-2.07.56-.56 0-1.06-.1-1.5-.3-.44-.2-.78-.48-1.03-.82-.25-.35-.37-.71-.37-1.1h1.91c.01.3.11.52.3.66s.44.21.75.21c.28 0 .49-.06.63-.17.14-.11.21-.26.21-.44z"/></svg>