<svg id="Layer_1" xmlns="http://www.w3.org/2000/svg" viewBox="0 0 300 250"><style>.st0{fill:#021d8b}</style><path class="st0" d="M172.33 173.33l1.01-5.54h2.11l-1.87 8.83h-2.21l-1.18-5.03-1.16 5.03h-2.2l-1.88-8.83h2.12l1.01 5.54 1.21-5.54h1.81l1.23 5.54zM179.18 176.75c-1.01 0-1.82-.3-2.44-.9s-.93-1.38-.93-2.34v-.17c0-.67.12-1.26.37-1.78.25-.51.61-.91 1.09-1.19.48-.28 1.04-.42 1.7-.42.92 0 1.65.29 2.18.86.53.57.8 1.37.8 2.39v.79h-4.06c.07.37.23.66.48.87.25.21.57.32.96.32.65 0 1.15-.23 1.52-.68l.93 1.1c-.25.35-.62.63-1.08.84-.48.2-.98.31-1.52.31zm-.23-5.23c-.6 0-.95.4-1.07 1.19h2.06v-.16c.01-.33-.07-.58-.25-.76-.17-.18-.42-.27-.74-.27zM183.83 168.29l-.2 2.51h-1.26v-3.49h1.46v.98zM186.76 176.62h-2.05v-9.32h2.05v9.32zM190.17 176.62h-2.05v-9.32h2.05v9.32zM196.46 170.06l.07.77c.47-.59 1.09-.89 1.87-.89.83 0 1.39.33 1.68.99.44-.66 1.09-.99 1.93-.99 1.33 0 2.01.8 2.05 2.41v4.27h-2.05v-4.14c0-.34-.06-.58-.17-.73-.11-.15-.32-.23-.62-.23-.4 0-.71.18-.9.54l.01.08v4.48h-2.05v-4.13c0-.34-.05-.59-.16-.75-.11-.15-.32-.23-.62-.23-.39 0-.69.18-.9.54v4.57h-2.04v-6.56h1.9zM204.97 173.28c0-.66.13-1.24.38-1.75s.62-.9 1.1-1.18c.48-.28 1.04-.41 1.68-.41.98 0 1.76.3 2.32.91.57.61.85 1.44.85 2.48v.07c0 1.02-.28 1.83-.85 2.44-.57.6-1.34.9-2.31.9-.93 0-1.68-.28-2.25-.84s-.87-1.32-.92-2.28v-.34zm2.04.13c0 .61.1 1.05.29 1.33s.47.42.84.42c.73 0 1.1-.56 1.12-1.68v-.21c0-1.18-.38-1.77-1.13-1.77-.68 0-1.05.51-1.11 1.52l-.01.39zM214.08 170.06l.07.77c.45-.59 1.08-.89 1.87-.89.68 0 1.19.2 1.53.61.34.41.51 1.02.52 1.84v4.23h-2.05v-4.14c0-.33-.07-.58-.2-.73-.13-.16-.38-.23-.73-.23-.4 0-.7.16-.89.47v4.63h-2.04v-6.56h1.92zM219.19 168.37c0-.29.1-.53.32-.72.21-.19.48-.28.82-.28s.61.09.82.28c.21.19.32.42.32.72s-.1.53-.32.72c-.21.19-.48.28-.82.28s-.61-.09-.82-.28a.934.934 0 0 1-.32-.72zm2.17 8.25h-2.05v-6.56h2.05v6.56zM225 168.43v1.63h1.08v1.42H225v3c0 .25.04.42.13.52.09.1.27.15.53.15.2 0 .37-.01.51-.04v1.46c-.37.12-.75.18-1.15.18-.7 0-1.22-.17-1.56-.5s-.5-.83-.5-1.51v-3.26h-.84v-1.42h.84v-1.63H225zM226.45 173.28c0-.66.13-1.24.38-1.75s.62-.9 1.1-1.18 1.04-.41 1.68-.41c.98 0 1.76.3 2.32.91.57.61.85 1.44.85 2.48v.07c0 1.02-.28 1.83-.85 2.44-.57.6-1.34.9-2.31.9-.93 0-1.68-.28-2.25-.84s-.87-1.32-.92-2.28v-.34zm2.04.13c0 .61.1 1.05.29 1.33.19.28.47.42.84.42.73 0 1.1-.56 1.12-1.68v-.21c0-1.18-.38-1.77-1.13-1.77-.68 0-1.05.51-1.11 1.52l-.01.39zM237.65 171.91l-.67-.05c-.64 0-1.06.2-1.24.61v4.16h-2.04v-6.56h1.92l.07.84c.34-.64.82-.96 1.44-.96.22 0 .41.02.57.07l-.05 1.89zM244.1 173.76l1.09-3.7h2.19l-2.68 7.66-.1.28c-.38.85-1.05 1.27-2.01 1.27-.27 0-.55-.04-.84-.12v-1.46h.25c.29 0 .51-.04.66-.12.15-.08.26-.23.34-.45l.16-.44-2.28-6.63h2.18l1.04 3.71zM247.57 173.28c0-.66.13-1.24.38-1.75s.62-.9 1.1-1.18 1.04-.41 1.68-.41c.98 0 1.76.3 2.32.91.57.61.85 1.44.85 2.48v.07c0 1.02-.28 1.83-.85 2.44-.57.6-1.34.9-2.31.9-.93 0-1.68-.28-2.25-.84s-.87-1.32-.92-2.28v-.34zm2.04.13c0 .61.1 1.05.29 1.33s.47.42.84.42c.73 0 1.1-.56 1.12-1.68v-.21c0-1.18-.38-1.77-1.13-1.77-.68 0-1.05.51-1.11 1.52l-.01.39zM258.71 175.91c-.43.55-1.02.83-1.75.83-.72 0-1.26-.21-1.64-.63-.37-.42-.55-1.02-.55-1.8v-4.25h2.04v4.26c0 .56.27.84.82.84.47 0 .8-.17 1-.5v-4.6h2.06v6.56h-1.92l-.06-.71zM265.78 171.91l-.67-.05c-.64 0-1.06.2-1.24.61v4.16h-2.04v-6.56h1.92l.07.84c.34-.64.82-.96 1.44-.96.22 0 .41.02.57.07l-.05 1.89z"/></svg>