<svg id="Layer_1" xmlns="http://www.w3.org/2000/svg" viewBox="0 0 300 250"><style>.st0{fill:#021d8b}.st1{fill:#18b9fb}</style><g id="Tis_the_season_3_"><path class="st0" d="M172.56 173.32l1.01-5.49h2.09l-1.86 8.76h-2.19l-1.17-5-1.15 5h-2.18l-1.87-8.76h2.1l1.01 5.49 1.2-5.49h1.79l1.22 5.49zM179.35 176.7c-1 0-1.81-.3-2.43-.89-.62-.6-.93-1.37-.93-2.33v-.17c0-.67.12-1.25.37-1.76s.61-.9 1.08-1.18 1.04-.42 1.69-.42c.91 0 1.64.28 2.17.85s.79 1.36.79 2.37v.79h-4.03c.07.37.23.65.48.86.24.21.56.31.95.31.64 0 1.14-.22 1.5-.67l.93 1.1c-.25.35-.61.63-1.07.83-.47.21-.96.31-1.5.31zm-.23-5.18c-.59 0-.95.39-1.06 1.18h2.05v-.16c.01-.32-.07-.58-.25-.76s-.42-.26-.74-.26zM183.96 168.32l-.2 2.49h-1.25v-3.46h1.44v.97zM186.87 176.58h-2.03v-9.24h2.03v9.24zM190.26 176.58h-2.03v-9.24h2.03v9.24zM196.49 170.07l.07.76c.46-.59 1.08-.88 1.86-.88.82 0 1.38.33 1.67.98.44-.65 1.08-.98 1.91-.98 1.32 0 2 .8 2.03 2.4v4.24H202v-4.11c0-.33-.06-.58-.17-.73-.11-.15-.32-.23-.61-.23-.4 0-.7.18-.9.54l.01.08v4.45h-2.03v-4.1c0-.34-.05-.59-.16-.74s-.31-.23-.62-.23c-.39 0-.69.18-.89.54v4.53h-2.03v-6.51h1.89zM204.94 173.27c0-.65.13-1.23.38-1.74s.62-.9 1.09-1.17c.47-.27 1.03-.41 1.67-.41.97 0 1.74.3 2.31.91.56.6.84 1.43.84 2.46v.07c0 1.02-.28 1.82-.85 2.42-.56.6-1.33.89-2.29.89-.93 0-1.67-.28-2.23-.83s-.86-1.31-.91-2.26l-.01-.34zm2.03.12c0 .6.09 1.04.28 1.32.19.28.47.42.84.42.72 0 1.09-.56 1.11-1.67v-.2c0-1.17-.37-1.75-1.12-1.75-.68 0-1.05.5-1.1 1.51l-.01.37zM213.98 170.07l.07.76c.45-.59 1.07-.88 1.86-.88.68 0 1.18.2 1.52.61.34.41.51 1.02.52 1.83v4.19h-2.03v-4.11c0-.33-.07-.57-.2-.73-.13-.15-.37-.23-.72-.23-.4 0-.69.16-.88.47v4.6h-2.03v-6.51h1.89zM219.05 168.39c0-.29.1-.53.31-.71.21-.18.48-.28.81-.28.33 0 .6.09.81.28.21.18.31.42.31.71s-.1.53-.31.71c-.21.18-.48.28-.81.28-.33 0-.6-.09-.81-.28a.89.89 0 0 1-.31-.71zm2.15 8.19h-2.03v-6.51h2.03v6.51zM224.82 168.45v1.62h1.07v1.41h-1.07v2.98c0 .24.04.42.13.51.09.1.26.14.52.14.2 0 .37-.01.51-.04v1.45c-.37.12-.75.17-1.14.17-.7 0-1.21-.16-1.55-.49s-.5-.83-.5-1.5v-3.23h-.83v-1.41h.83v-1.62h2.03zM226.25 173.27c0-.65.13-1.23.38-1.74s.62-.9 1.09-1.17c.47-.27 1.03-.41 1.67-.41.97 0 1.74.3 2.31.91.56.6.84 1.43.84 2.46v.07c0 1.02-.28 1.82-.85 2.42-.56.6-1.33.89-2.29.89-.93 0-1.67-.28-2.23-.83s-.86-1.31-.91-2.26l-.01-.34zm2.03.12c0 .6.09 1.04.28 1.32.19.28.47.42.84.42.72 0 1.09-.56 1.11-1.67v-.2c0-1.17-.37-1.75-1.12-1.75-.68 0-1.05.5-1.1 1.51l-.01.37zM237.36 171.91l-.67-.05c-.64 0-1.05.2-1.23.6v4.12h-2.03v-6.51h1.9l.07.84c.34-.64.82-.96 1.43-.96.22 0 .41.02.57.07l-.04 1.89zM243.77 173.74l1.08-3.67h2.17l-2.65 7.6-.11.28c-.38.84-1.04 1.26-2 1.26-.26 0-.54-.04-.84-.12v-1.44h.26c.28 0 .5-.04.65-.12.15-.08.26-.23.33-.44l.16-.43-2.26-6.58h2.17l1.04 3.66zM247.2 173.27c0-.65.13-1.23.38-1.74s.62-.9 1.09-1.17c.47-.27 1.03-.41 1.67-.41.97 0 1.74.3 2.31.91.56.6.84 1.43.84 2.46v.07c0 1.02-.28 1.82-.85 2.42-.56.6-1.33.89-2.29.89-.93 0-1.67-.28-2.23-.83s-.86-1.31-.91-2.26l-.01-.34zm2.03.12c0 .6.09 1.04.28 1.32.19.28.47.42.84.42.72 0 1.09-.56 1.11-1.67v-.2c0-1.17-.37-1.75-1.12-1.75-.68 0-1.05.5-1.1 1.51l-.01.37zM258.26 175.88c-.43.55-1.01.82-1.74.82-.71 0-1.25-.21-1.62-.62-.37-.42-.55-1.01-.55-1.79v-4.22h2.03v4.23c0 .56.27.84.81.84.47 0 .8-.17.99-.5v-4.57h2.04v6.51h-1.9l-.06-.7zM265.27 171.91l-.67-.05c-.64 0-1.05.2-1.23.6v4.12h-2.03v-6.51h1.9l.07.84c.34-.64.82-.96 1.43-.96.22 0 .41.02.57.07l-.04 1.89z"/><path class="st1" d="M170.29 189.05c0-.31-.11-.55-.33-.72-.22-.17-.6-.35-1.15-.54-.55-.18-1-.36-1.35-.54-1.14-.56-1.7-1.32-1.7-2.3 0-.49.14-.91.42-1.28.28-.37.68-.66 1.2-.87.52-.21 1.1-.31 1.75-.31.63 0 1.19.11 1.69.34.5.22.89.54 1.16.96.28.42.42.89.42 1.42h-2.11c0-.36-.11-.63-.33-.83-.22-.2-.51-.29-.89-.29s-.68.08-.89.25c-.22.17-.33.38-.33.63 0 .22.12.43.36.61s.66.37 1.27.57c.61.19 1.1.4 1.49.63.95.55 1.42 1.3 1.42 2.26 0 .77-.29 1.37-.87 1.81-.58.44-1.37.66-2.38.66-.71 0-1.35-.13-1.93-.38-.58-.25-1.01-.6-1.3-1.05a2.72 2.72 0 0 1-.44-1.53h2.12c0 .47.12.82.36 1.04.24.22.64.33 1.18.33.35 0 .62-.08.83-.23.23-.16.33-.37.33-.64zM173.14 188.06c0-.65.13-1.23.38-1.74s.62-.9 1.09-1.17c.47-.27 1.03-.41 1.67-.41.97 0 1.74.3 2.31.91.56.6.84 1.43.84 2.46v.07c0 1.02-.28 1.82-.85 2.42-.56.6-1.33.89-2.29.89-.93 0-1.67-.28-2.23-.83s-.86-1.31-.91-2.26l-.01-.34zm2.02.13c0 .6.09 1.04.28 1.32.19.28.47.42.84.42.72 0 1.09-.56 1.11-1.67v-.2c0-1.17-.37-1.75-1.12-1.75-.68 0-1.05.5-1.1 1.51l-.01.37zM183.07 189.93c.28 0 .51-.08.66-.23.16-.15.23-.37.23-.65h1.9c0 .71-.26 1.3-.77 1.76-.51.46-1.17.69-1.98.69-.95 0-1.69-.3-2.24-.89-.55-.59-.82-1.42-.82-2.47v-.08c0-.66.12-1.24.36-1.74s.59-.89 1.05-1.16c.46-.27 1-.41 1.62-.41.85 0 1.52.23 2.02.7s.75 1.11.75 1.91h-1.9c0-.34-.08-.6-.25-.78s-.39-.27-.66-.27c-.53 0-.83.33-.92 1.01-.03.21-.04.51-.04.88 0 .65.08 1.11.23 1.36.17.24.41.37.76.37zM186.7 183.18c0-.29.1-.53.31-.71.21-.18.48-.28.81-.28s.6.09.81.28c.21.18.31.42.31.71s-.1.53-.31.71c-.21.18-.48.28-.81.28s-.6-.09-.81-.28a.922.922 0 0 1-.31-.71zm2.16 8.2h-2.03v-6.51h2.03v6.51zM193.77 191.38c-.07-.13-.14-.33-.19-.58-.37.47-.89.7-1.56.7-.61 0-1.14-.19-1.56-.56-.43-.37-.64-.84-.64-1.4 0-.71.26-1.24.78-1.6.52-.36 1.28-.54 2.27-.54h.63v-.34c0-.6-.26-.9-.78-.9-.48 0-.72.24-.72.71h-2.03c0-.63.27-1.14.8-1.53.54-.39 1.22-.59 2.05-.59s1.49.2 1.97.61.73.96.74 1.67v2.88c.01.6.1 1.06.28 1.37v.1h-2.04zm-1.27-1.33c.25 0 .46-.05.63-.16.17-.11.29-.23.36-.37v-1.04h-.59c-.71 0-1.06.32-1.06.95 0 .18.06.33.19.45.12.11.28.17.47.17zM198.79 191.38h-2.03v-9.24h2.03v9.24zM207.72 189.05c0-.31-.11-.55-.33-.72-.22-.17-.6-.35-1.15-.54-.55-.18-1-.36-1.35-.54-1.14-.56-1.7-1.32-1.7-2.3 0-.49.14-.91.42-1.28.28-.37.68-.66 1.2-.87.52-.21 1.1-.31 1.75-.31.63 0 1.19.11 1.69.34.5.22.89.54 1.16.96.28.42.42.89.42 1.42h-2.11c0-.36-.11-.63-.33-.83-.22-.2-.51-.29-.89-.29s-.68.08-.89.25c-.22.17-.33.38-.33.63 0 .22.12.43.36.61s.66.37 1.27.57c.61.19 1.1.4 1.49.63.95.55 1.42 1.3 1.42 2.26 0 .77-.29 1.37-.87 1.81-.58.44-1.37.66-2.38.66-.71 0-1.35-.13-1.93-.38-.58-.25-1.01-.6-1.3-1.05a2.72 2.72 0 0 1-.44-1.53h2.12c0 .47.12.82.36 1.04.24.22.64.33 1.18.33.35 0 .62-.08.83-.23.23-.16.33-.37.33-.64zM213.97 191.5c-1 0-1.81-.3-2.43-.89-.62-.6-.93-1.37-.93-2.33v-.17c0-.67.12-1.25.37-1.76s.61-.9 1.08-1.18 1.04-.42 1.69-.42c.91 0 1.64.28 2.17.85s.79 1.36.79 2.37v.79h-4.03c.07.37.23.65.48.86.24.21.56.31.95.31.64 0 1.14-.22 1.5-.67l.93 1.1c-.25.35-.61.63-1.07.83-.47.2-.97.31-1.5.31zm-.23-5.19c-.59 0-.95.39-1.06 1.18h2.05v-.16c.01-.32-.07-.58-.25-.76s-.42-.26-.74-.26zM220.28 189.93c.28 0 .51-.08.66-.23.16-.15.23-.37.23-.65h1.9c0 .71-.26 1.3-.77 1.76-.51.46-1.17.69-1.98.69-.95 0-1.69-.3-2.24-.89-.55-.59-.82-1.42-.82-2.47v-.08c0-.66.12-1.24.36-1.74s.59-.89 1.05-1.16c.46-.27 1-.41 1.62-.41.85 0 1.52.23 2.02.7s.75 1.11.75 1.91h-1.9c0-.34-.08-.6-.25-.78s-.39-.27-.66-.27c-.53 0-.83.33-.92 1.01-.03.21-.04.51-.04.88 0 .65.08 1.11.23 1.36.17.24.42.37.76.37zM227.81 190.67c-.43.55-1.01.82-1.74.82-.71 0-1.25-.21-1.62-.62-.37-.42-.55-1.01-.55-1.79v-4.22h2.03v4.23c0 .56.27.84.81.84.47 0 .8-.17.99-.5v-4.57h2.04v6.51h-1.9l-.06-.7zM234.82 186.7l-.67-.05c-.64 0-1.05.2-1.23.6v4.12h-2.03v-6.51h1.9l.07.84c.34-.64.82-.96 1.43-.96.22 0 .41.02.57.07l-.04 1.89zM235.54 183.18c0-.29.1-.53.31-.71.21-.18.48-.28.81-.28.33 0 .6.09.81.28.21.18.31.42.31.71s-.1.53-.31.71c-.21.18-.48.28-.81.28-.33 0-.6-.09-.81-.28a.89.89 0 0 1-.31-.71zm2.16 8.2h-2.03v-6.51h2.03v6.51zM241.31 183.24v1.62h1.07v1.41h-1.07v2.98c0 .24.04.42.13.51.09.1.26.14.52.14.2 0 .37-.01.51-.04v1.45c-.37.12-.75.17-1.14.17-.7 0-1.21-.16-1.55-.49-.33-.33-.5-.83-.5-1.5v-3.23h-.83v-1.41h.83v-1.62h2.03zM245.78 188.53l1.08-3.67h2.17l-2.65 7.6-.11.28c-.38.84-1.04 1.26-2 1.26-.26 0-.54-.04-.84-.12v-1.44h.26c.28 0 .5-.04.65-.12.15-.08.26-.23.33-.44l.16-.43-2.26-6.58h2.17l1.04 3.66zM173.09 206.17h-2.1l-3.11-5.45v5.45h-2.11v-8.76h2.11l3.1 5.45v-5.45h2.11v8.76zM178.21 205.46c-.43.55-1.01.82-1.74.82-.71 0-1.25-.21-1.62-.62-.37-.42-.55-1.01-.55-1.79v-4.22h2.03v4.23c0 .56.27.84.81.84.47 0 .8-.17.99-.5v-4.57h2.04v6.51h-1.9l-.06-.7zM183.2 199.65l.07.76c.46-.59 1.08-.88 1.86-.88.82 0 1.38.33 1.67.98.44-.65 1.08-.98 1.91-.98 1.32 0 2 .8 2.03 2.4v4.24h-2.03v-4.11c0-.33-.06-.58-.17-.73s-.32-.23-.61-.23c-.4 0-.7.18-.9.54l.01.08v4.45H185v-4.1c0-.34-.05-.59-.16-.74-.11-.15-.31-.23-.62-.23-.39 0-.69.18-.89.54v4.53h-2.03v-6.51h1.9zM197.94 202.96c0 1.07-.22 1.89-.66 2.46-.44.57-1.06.86-1.87.86-.66 0-1.2-.26-1.6-.79l-.08.67h-1.82v-9.24h2.03v3.26c.38-.43.86-.64 1.46-.64.81 0 1.44.29 1.88.87.44.58.66 1.4.66 2.46v.09zm-2.03-.12c0-.62-.08-1.07-.25-1.34-.17-.27-.42-.4-.77-.4-.46 0-.77.17-.95.52v2.58c.17.34.49.52.96.52.48 0 .78-.23.91-.7.07-.22.1-.62.1-1.18zM201.99 206.29c-1 0-1.81-.3-2.43-.89-.62-.6-.93-1.37-.93-2.33v-.17c0-.67.12-1.25.37-1.76s.61-.9 1.08-1.18c.47-.28 1.04-.42 1.69-.42.91 0 1.64.28 2.17.85s.79 1.36.79 2.37v.79h-4.03c.07.37.23.65.48.86s.56.31.95.31c.64 0 1.14-.22 1.5-.67l.93 1.1c-.25.35-.61.63-1.07.83-.47.2-.97.31-1.5.31zm-.23-5.19c-.59 0-.95.39-1.06 1.18h2.05v-.16c.01-.32-.07-.58-.25-.76-.17-.17-.42-.26-.74-.26zM209.49 201.49l-.67-.05c-.64 0-1.05.2-1.23.6v4.12h-2.03v-6.51h1.9l.07.84c.34-.64.82-.96 1.43-.96.22 0 .41.02.57.07l-.04 1.89z"/></g></svg>