<svg id="Layer_1" xmlns="http://www.w3.org/2000/svg" viewBox="0 0 300 250"><style>.st0{fill:#021d8b}</style><path class="st0" d="M26.41 235.18c.06.06.09.13.09.22v3.37c0 .09-.03.16-.09.22s-.13.09-.22.09c-.08 0-.15-.03-.21-.09a.294.294 0 0 1-.09-.22v-3.37c0-.09.03-.16.09-.22s.13-.09.22-.09c.08 0 .15.03.21.09zm-.21-1.5c-.09 0-.16.03-.22.09s-.09.13-.09.22v.23c0 .09.03.16.09.22s.13.09.21.09c.09 0 .16-.03.22-.09s.09-.13.09-.22v-.23c0-.09-.03-.16-.09-.22a.288.288 0 0 0-.21-.09zm-1.07 1.54a2.02 2.02 0 0 0-.44-.07c-.33 0-.62.09-.86.27a.341.341 0 0 0-.11-.18.34.34 0 0 0-.18-.07c-.08 0-.15.03-.21.09s-.09.13-.09.21v3.3c0 .08.03.15.09.21a.288.288 0 0 0 .42 0c.06-.06.09-.13.09-.21v-2.25c.01-.11.03-.21.07-.31.04-.09.1-.18.18-.25.08-.07.16-.13.26-.17a.877.877 0 0 1 .74.05c.05.04.11.06.18.06.08 0 .15-.03.21-.08.06-.06.09-.13.09-.22 0-.11-.04-.2-.13-.26-.11-.04-.21-.09-.31-.12zm5.01-.14c-.13 0-.23.06-.28.18l-1.19 2.77-1.19-2.77a.407.407 0 0 0-.12-.14.332.332 0 0 0-.16-.05.27.27 0 0 0-.22.1c-.05.06-.08.13-.08.21 0 .04.01.08.02.12l1.46 3.41c.05.12.14.18.28.18.13 0 .22-.06.28-.18l1.46-3.41c.02-.04.02-.08.02-.12 0-.07-.03-.14-.08-.21a.253.253 0 0 0-.2-.09zm3.18.86c.08.18.12.36.12.56v2.26c0 .09-.03.16-.09.22s-.13.09-.21.09c-.08 0-.14-.02-.2-.07a.253.253 0 0 1-.1-.17c-.25.18-.53.27-.85.27-.2 0-.39-.04-.56-.11-.18-.07-.33-.18-.46-.31s-.24-.29-.31-.46c-.08-.18-.12-.36-.12-.56v-1.16c0-.2.04-.39.11-.56.07-.18.18-.33.31-.46s.29-.23.46-.31c.17-.07.36-.11.57-.11.2 0 .39.04.56.11.18.08.33.18.46.31s.23.29.31.46zm-.49.57c0-.11-.02-.22-.07-.32s-.11-.19-.18-.27a.712.712 0 0 0-.27-.18.88.88 0 0 0-.33-.06.88.88 0 0 0-.33.06.8.8 0 0 0-.27.18.8.8 0 0 0-.24.59v1.16c0 .11.02.22.07.32s.11.19.18.27c.07.08.16.14.27.18.1.04.21.06.33.06a.866.866 0 0 0 .59-.23.836.836 0 0 0 .26-.56v-1.2zm1.84-.33a.8.8 0 0 1 .18-.27.8.8 0 0 1 .27-.18c.1-.04.21-.06.33-.06.17 0 .32.05.46.14.14.09.25.22.32.38.02.06.06.11.11.14.05.03.11.05.17.05.09 0 .16-.03.22-.09s.09-.13.09-.22c0-.03-.01-.07-.02-.11-.09-.21-.19-.38-.33-.5-.13-.12-.26-.21-.4-.27-.13-.06-.26-.1-.37-.11-.11-.01-.18-.02-.22-.02-.2 0-.4.04-.57.11-.18.08-.34.18-.47.31-.14.13-.24.28-.32.46-.08.18-.12.37-.12.57v1.16c0 .2.04.39.12.56.08.18.18.33.31.46s.29.23.46.31c.18.08.36.11.56.11.01 0 .06 0 .16-.01s.22-.03.36-.09c.14-.05.29-.14.44-.27.15-.12.28-.3.39-.54.02-.04.02-.07.02-.11 0-.08-.03-.15-.09-.21a.294.294 0 0 0-.22-.09c-.06 0-.12.02-.17.05-.05.03-.09.08-.11.14a.832.832 0 0 1-.78.52.96.96 0 0 1-.33-.06.8.8 0 0 1-.27-.18.98.98 0 0 1-.18-.27.711.711 0 0 1-.07-.32v-1.16c.01-.12.03-.22.07-.33zm13-1.09c-.09 0-.16.03-.22.09s-.09.13-.09.22v2.26c0 .11-.02.22-.07.32s-.11.19-.18.27c-.08.08-.16.14-.27.18a.88.88 0 0 1-.33.06.88.88 0 0 1-.33-.06.8.8 0 0 1-.27-.18.8.8 0 0 1-.24-.59v-2.26c0-.09-.03-.16-.09-.22a.288.288 0 0 0-.21-.09c-.09 0-.16.03-.22.09s-.09.13-.09.22v2.26c0 .2.04.39.11.56.07.18.18.33.31.46s.29.23.46.31c.17.08.36.11.57.11.2 0 .39-.04.56-.11.18-.07.33-.18.46-.31s.24-.29.31-.46c.08-.18.12-.36.12-.56v-2.26c0-.09-.03-.16-.09-.22a.252.252 0 0 0-.2-.09zm3.66.85c.08.18.12.36.12.56v2.26c0 .09-.03.16-.09.22s-.13.09-.21.09c-.07 0-.14-.02-.2-.07a.253.253 0 0 1-.1-.17c-.25.18-.53.27-.85.27-.2 0-.39-.04-.56-.11-.18-.07-.33-.18-.46-.31s-.24-.29-.31-.46c-.08-.18-.12-.36-.12-.56v-1.16c0-.2.04-.39.11-.56.07-.18.18-.33.31-.46s.29-.23.46-.31c.17-.07.36-.11.57-.11.2 0 .39.04.56.11a1.436 1.436 0 0 1 .77.77zm-.49.57c0-.11-.02-.22-.07-.32s-.11-.19-.18-.27a.643.643 0 0 0-.27-.18.88.88 0 0 0-.33-.06.88.88 0 0 0-.33.06.8.8 0 0 0-.27.18.8.8 0 0 0-.24.59v1.16c0 .11.02.22.07.32s.11.19.18.27c.07.08.16.14.27.18.1.04.21.06.33.06a.866.866 0 0 0 .59-.23.836.836 0 0 0 .26-.56v-1.2zm3.09-1.29a2.02 2.02 0 0 0-.44-.07c-.33 0-.62.09-.86.27a.341.341 0 0 0-.11-.18.34.34 0 0 0-.18-.07c-.08 0-.15.03-.21.09s-.09.13-.09.21v3.3c0 .08.03.15.09.21a.288.288 0 0 0 .42 0c.06-.06.09-.13.09-.21v-2.25c.01-.11.03-.21.07-.31.04-.09.1-.18.18-.25.08-.07.16-.13.26-.17a.877.877 0 0 1 .74.05c.05.04.11.06.18.06.08 0 .15-.03.21-.08.06-.06.09-.13.09-.22 0-.11-.04-.2-.13-.26-.1-.04-.2-.09-.31-.12zm3.42-1.45c.06.06.09.13.09.22v4.78c0 .09-.03.16-.09.22s-.13.09-.22.09c-.08 0-.15-.03-.21-.09-.05-.04-.07-.1-.08-.16-.09.06-.18.12-.29.17-.18.08-.36.11-.56.11-.2 0-.39-.04-.57-.11a1.436 1.436 0 0 1-.77-.77c-.08-.18-.11-.36-.11-.56v-1.16c0-.2.04-.39.12-.56.08-.18.18-.33.31-.46s.29-.23.46-.31c.18-.07.36-.11.56-.11.16 0 .3.02.45.07.14.05.27.12.4.2v-1.35c0-.09.03-.16.09-.22s.13-.09.22-.09c.07 0 .14.03.2.09zm-.59 4.21a.66.66 0 0 0 .06-.27v-1.26c-.01-.09-.02-.18-.06-.27a.8.8 0 0 0-.18-.27.8.8 0 0 0-.27-.18.88.88 0 0 0-.33-.06.96.96 0 0 0-.33.06.8.8 0 0 0-.27.18.98.98 0 0 0-.18.27c-.05.1-.07.21-.07.32v1.16a.8.8 0 0 0 .24.59.8.8 0 0 0 .27.18c.1.04.21.06.33.06.11 0 .22-.02.33-.06a.8.8 0 0 0 .27-.18.58.58 0 0 0 .19-.27zm-16.79-2.89c-.09 0-.16.03-.22.09s-.09.13-.09.22v2.26c0 .11-.02.22-.07.32s-.11.19-.18.27c-.08.08-.16.14-.27.18a.88.88 0 0 1-.33.06.88.88 0 0 1-.33-.06.8.8 0 0 1-.27-.18.8.8 0 0 1-.24-.59v-2.26c0-.09-.03-.16-.09-.22a.288.288 0 0 0-.21-.09c-.09 0-.16.03-.22.09s-.09.13-.09.22v2.26c0 .2.04.39.11.56.07.18.18.33.31.46s.29.23.46.31c.17.08.36.11.57.11.2 0 .39-.04.56-.11.1-.04.19-.1.28-.16v.76c-.01.11-.03.22-.07.31-.04.1-.1.18-.18.25-.08.07-.17.13-.27.17a.88.88 0 0 1-.33.06c-.15 0-.29-.04-.43-.11a.3.3 0 0 0-.18-.06.33.33 0 0 0-.22.08c-.06.06-.09.13-.09.22 0 .11.05.2.14.26.09.06.19.11.3.14.11.03.26.06.45.07.34 0 .63-.09.88-.28.38-.27.6-.67.6-1.11v-1.96-2.26c0-.09-.03-.16-.09-.22a.33.33 0 0 0-.19-.06zm4.24 1.29h-1.27c-.17 0-.31.13-.31.3 0 .17.14.31.31.31h1.01v.48c0 .65-.59 1.15-1.22 1.15-.69 0-1.28-.47-1.28-1.28v-1.83c0-.75.56-1.28 1.26-1.28.58 0 1.03.39 1.21.87.06.1.14.16.28.16.24 0 .39-.19.27-.47-.2-.59-.8-1.19-1.75-1.19-1.1 0-1.88.87-1.88 1.86v1.91c0 1.01.79 1.87 1.88 1.87.99 0 1.82-.77 1.82-1.65v-.92c-.01-.17-.16-.29-.33-.29zm-21.61-1.36c.1.23.15.47.15.72 0 .26-.05.5-.15.72-.1.22-.23.42-.4.59-.17.17-.37.3-.59.4-.23.1-.47.15-.73.15h-.91v1.19c0 .08-.03.15-.09.21a.288.288 0 0 1-.42 0 .288.288 0 0 1-.09-.21v-4.59c0-.08.03-.15.09-.21s.13-.09.21-.09h1.21c.26 0 .5.05.72.15.23.1.42.23.59.39.18.16.31.35.41.58zm-.45.72c0-.17-.03-.33-.1-.49-.07-.15-.16-.28-.27-.4-.12-.11-.25-.2-.4-.27-.15-.07-.32-.1-.49-.1h-.91v2.5h.91c.18 0 .34-.03.5-.1.15-.07.29-.15.4-.27.12-.11.21-.24.27-.4.06-.14.09-.3.09-.47zm35.6-1.94h.11v.34h.1v-.34h.11v-.08h-.32v.08zm.8-.08h-.12l-.04.14c-.01.05-.03.1-.04.15-.01-.05-.02-.1-.04-.15l-.04-.14h-.13l-.03.42h.09l.01-.16c0-.05.01-.12.01-.17.01.05.02.11.04.16l.04.16h.07l.05-.16c.02-.05.03-.11.05-.16v.17l.01.16h.09l-.02-.42z"/></svg>