<?xml version="1.0" encoding="utf-8"?>
<!-- Generator: Adobe Illustrator 25.3.1, SVG Export Plug-In . SVG Version: 6.00 Build 0)  -->
<svg version="1.1" id="Layer_1" xmlns="http://www.w3.org/2000/svg" xmlns:xlink="http://www.w3.org/1999/xlink" x="0px" y="0px"
	 viewBox="0 0 728 90" style="enable-background:new 0 0 728 90;" xml:space="preserve">
<style type="text/css">
	.st0{fill:#FFFFFF;}
</style>
<g>
	<path class="st0" d="M194.35,15.84h-4.48v12.15h-3.6V15.84h-4.4v-2.78h12.48V15.84z"/>
	<path class="st0" d="M193.14,22.34c0-1.11,0.21-2.09,0.65-2.96c0.43-0.86,1.05-1.53,1.86-1.99s1.75-0.7,2.84-0.7
		c1.66,0,2.97,0.51,3.93,1.54c0.96,1.03,1.44,2.43,1.44,4.2v0.12c0,1.73-0.48,3.1-1.44,4.12c-0.96,1.01-2.26,1.52-3.9,1.52
		c-1.58,0-2.85-0.47-3.8-1.42c-0.96-0.95-1.47-2.23-1.55-3.85L193.14,22.34z M196.59,22.56c0,1.03,0.16,1.78,0.48,2.26
		s0.8,0.72,1.43,0.72c1.23,0,1.86-0.95,1.89-2.84v-0.35c0-1.99-0.64-2.98-1.91-2.98c-1.16,0-1.78,0.86-1.88,2.57L196.59,22.56z"/>
	<path class="st0" d="M209.39,14.14v2.76h1.82v2.4h-1.82v5.08c0,0.42,0.07,0.71,0.22,0.87s0.45,0.25,0.89,0.25
		c0.34,0,0.63-0.02,0.86-0.06v2.47c-0.62,0.2-1.27,0.3-1.95,0.3c-1.19,0-2.07-0.28-2.64-0.84s-0.85-1.41-0.85-2.55V19.3h-1.42v-2.4
		h1.42v-2.76H209.39z"/>
	<path class="st0" d="M218.82,27.99c-0.12-0.23-0.23-0.56-0.33-1c-0.64,0.8-1.52,1.2-2.67,1.2c-1.05,0-1.93-0.32-2.67-0.95
		c-0.73-0.63-1.1-1.43-1.1-2.38c0-1.2,0.44-2.11,1.33-2.73c0.89-0.62,2.18-0.92,3.88-0.92h1.07v-0.59c0-1.02-0.44-1.54-1.32-1.54
		c-0.82,0-1.23,0.41-1.23,1.22h-3.46c0-1.07,0.46-1.94,1.37-2.61c0.91-0.67,2.08-1,3.49-1c1.42,0,2.53,0.34,3.35,1.04
		s1.24,1.64,1.26,2.84v4.91c0.01,1.02,0.17,1.8,0.47,2.34v0.17H218.82z M216.66,25.74c0.43,0,0.79-0.09,1.07-0.28
		c0.28-0.18,0.49-0.39,0.61-0.62v-1.77h-1c-1.2,0-1.8,0.54-1.8,1.62c0,0.31,0.11,0.57,0.32,0.76
		C216.06,25.64,216.33,25.74,216.66,25.74z"/>
	<path class="st0" d="M227.37,27.99h-3.47V12.24h3.47V27.99z"/>
	<path class="st0" d="M239.41,25.53c0.49,0,0.86-0.13,1.13-0.39c0.27-0.26,0.4-0.63,0.39-1.1h3.24c0,1.22-0.44,2.21-1.31,2.99
		c-0.87,0.78-1.99,1.17-3.37,1.17c-1.61,0-2.88-0.51-3.81-1.52s-1.39-2.41-1.39-4.2v-0.14c0-1.12,0.21-2.11,0.62-2.97
		c0.41-0.86,1.01-1.52,1.79-1.98c0.78-0.46,1.7-0.69,2.77-0.69c1.44,0,2.59,0.4,3.44,1.2s1.27,1.88,1.27,3.25h-3.24
		c0-0.57-0.14-1.02-0.42-1.32c-0.28-0.31-0.66-0.46-1.13-0.46c-0.9,0-1.42,0.57-1.57,1.71c-0.05,0.36-0.07,0.86-0.07,1.5
		c0,1.11,0.13,1.89,0.4,2.32S238.83,25.53,239.41,25.53z"/>
	<path class="st0" d="M245.2,22.34c0-1.11,0.21-2.09,0.65-2.96c0.43-0.86,1.05-1.53,1.86-1.99s1.75-0.7,2.84-0.7
		c1.66,0,2.97,0.51,3.93,1.54c0.96,1.03,1.44,2.43,1.44,4.2v0.12c0,1.73-0.48,3.1-1.44,4.12c-0.96,1.01-2.26,1.52-3.9,1.52
		c-1.58,0-2.85-0.47-3.8-1.42c-0.96-0.95-1.47-2.23-1.55-3.85L245.2,22.34z M248.65,22.56c0,1.03,0.16,1.78,0.48,2.26
		s0.8,0.72,1.43,0.72c1.23,0,1.86-0.95,1.89-2.84v-0.35c0-1.99-0.64-2.98-1.91-2.98c-1.16,0-1.78,0.86-1.88,2.57L248.65,22.56z"/>
	<path class="st0" d="M260.69,16.9l0.11,1.3c0.79-1,1.84-1.51,3.17-1.51c1.4,0,2.35,0.56,2.84,1.67c0.75-1.11,1.84-1.67,3.26-1.67
		c2.25,0,3.4,1.36,3.47,4.08v7.22h-3.47v-7c0-0.57-0.1-0.98-0.29-1.24s-0.54-0.39-1.05-0.39c-0.68,0-1.19,0.3-1.53,0.91l0.01,0.14
		v7.58h-3.47v-6.98c0-0.58-0.09-1-0.28-1.26c-0.18-0.26-0.54-0.39-1.06-0.39c-0.66,0-1.17,0.3-1.52,0.91v7.72h-3.46V16.9H260.69z"/>
	<path class="st0" d="M285.81,22.54c0,1.82-0.38,3.22-1.13,4.19s-1.81,1.47-3.18,1.47c-1.13,0-2.04-0.45-2.73-1.34l-0.14,1.14h-3.1
		V12.24h3.46v5.55c0.64-0.73,1.47-1.1,2.49-1.1c1.38,0,2.45,0.5,3.2,1.49s1.13,2.39,1.13,4.18V22.54z M282.35,22.32
		c0-1.06-0.14-1.82-0.42-2.28c-0.28-0.45-0.72-0.68-1.31-0.68c-0.78,0-1.32,0.3-1.62,0.89v4.4c0.29,0.59,0.84,0.88,1.64,0.88
		c0.81,0,1.33-0.4,1.55-1.19C282.29,23.96,282.35,23.28,282.35,22.32z"/>
	<path class="st0" d="M287.31,14.04c0-0.49,0.18-0.9,0.53-1.21s0.82-0.47,1.38-0.47c0.57,0,1.03,0.16,1.38,0.47s0.53,0.72,0.53,1.21
		s-0.18,0.9-0.53,1.21s-0.82,0.47-1.38,0.47c-0.57,0-1.03-0.16-1.38-0.47S287.31,14.53,287.31,14.04z M290.98,27.99h-3.47V16.9h3.47
		V27.99z"/>
	<path class="st0" d="M296.28,16.9l0.11,1.3c0.76-1,1.82-1.51,3.17-1.51c1.16,0,2.02,0.34,2.59,1.04c0.57,0.69,0.87,1.73,0.89,3.12
		v7.15h-3.47v-7c0-0.56-0.11-0.97-0.34-1.24c-0.23-0.26-0.64-0.39-1.23-0.39c-0.68,0-1.18,0.27-1.51,0.8v7.83h-3.46V16.9H296.28z"/>
	<path class="st0" d="M310.32,28.2c-1.7,0-3.08-0.51-4.13-1.52c-1.05-1.02-1.58-2.34-1.58-3.96v-0.29c0-1.13,0.21-2.14,0.63-3
		c0.42-0.87,1.03-1.54,1.84-2.01c0.81-0.48,1.76-0.71,2.87-0.71c1.56,0,2.79,0.48,3.69,1.45c0.9,0.97,1.35,2.32,1.35,4.04v1.34
		h-6.87c0.12,0.62,0.39,1.11,0.81,1.47c0.42,0.36,0.96,0.53,1.62,0.53c1.09,0,1.95-0.38,2.56-1.15l1.58,1.87
		c-0.43,0.59-1.04,1.07-1.83,1.42C312.08,28.02,311.23,28.2,310.32,28.2z M309.93,19.36c-1.01,0-1.61,0.67-1.8,2.01h3.49V21.1
		c0.01-0.55-0.13-0.98-0.42-1.29C310.9,19.51,310.48,19.36,309.93,19.36z"/>
	<path class="st0" d="M315.95,22.36c0-1.76,0.38-3.14,1.14-4.15c0.76-1.01,1.82-1.52,3.18-1.52c0.99,0,1.83,0.39,2.5,1.17v-5.62
		h3.47v15.75h-3.11l-0.17-1.19c-0.71,0.93-1.61,1.39-2.71,1.39c-1.32,0-2.37-0.51-3.14-1.52S315.95,24.23,315.95,22.36z
		 M319.4,22.58c0,1.97,0.57,2.95,1.72,2.95c0.77,0,1.31-0.32,1.64-0.96v-4.22c-0.31-0.66-0.85-0.98-1.62-0.98
		c-1.07,0-1.64,0.86-1.73,2.58L319.4,22.58z"/>
	<path class="st0" d="M334.19,27.99v-8.7h-1.61v-2.4h1.61v-0.88c0-1.26,0.37-2.25,1.12-2.94s1.79-1.05,3.14-1.05
		c0.49,0,1.03,0.07,1.62,0.22l0.01,2.54c-0.21-0.06-0.5-0.09-0.85-0.09c-1.05,0-1.57,0.45-1.57,1.35v0.85h2.16v2.4h-2.16v8.7H334.19
		z"/>
	<path class="st0" d="M347.75,20.03l-1.14-0.08c-1.09,0-1.78,0.34-2.09,1.03v7.02h-3.46V16.9h3.24l0.11,1.42
		c0.58-1.09,1.39-1.63,2.43-1.63c0.37,0,0.69,0.04,0.96,0.12L347.75,20.03z"/>
	<path class="st0" d="M354.93,27.99c-0.12-0.23-0.23-0.56-0.33-1c-0.64,0.8-1.52,1.2-2.67,1.2c-1.05,0-1.93-0.32-2.67-0.95
		c-0.73-0.63-1.1-1.43-1.1-2.38c0-1.2,0.44-2.11,1.33-2.73c0.89-0.62,2.18-0.92,3.88-0.92h1.07v-0.59c0-1.02-0.44-1.54-1.32-1.54
		c-0.82,0-1.23,0.41-1.23,1.22h-3.46c0-1.07,0.46-1.94,1.37-2.61c0.91-0.67,2.08-1,3.49-1c1.42,0,2.53,0.34,3.35,1.04
		s1.24,1.64,1.26,2.84v4.91c0.01,1.02,0.17,1.8,0.47,2.34v0.17H354.93z M352.77,25.74c0.43,0,0.79-0.09,1.07-0.28
		c0.28-0.18,0.49-0.39,0.61-0.62v-1.77h-1c-1.2,0-1.8,0.54-1.8,1.62c0,0.31,0.11,0.57,0.32,0.76
		C352.17,25.64,352.44,25.74,352.77,25.74z"/>
	<path class="st0" d="M366.44,26.79c-0.73,0.94-1.72,1.41-2.96,1.41c-1.22,0-2.14-0.35-2.76-1.06c-0.62-0.71-0.94-1.72-0.94-3.05
		V16.9h3.46v7.21c0,0.95,0.46,1.43,1.38,1.43c0.79,0,1.36-0.28,1.69-0.85V16.9h3.48v11.09h-3.24L366.44,26.79z"/>
	<path class="st0" d="M371.24,22.36c0-1.76,0.38-3.14,1.14-4.15c0.76-1.01,1.82-1.52,3.18-1.52c0.99,0,1.83,0.39,2.5,1.17v-5.62
		h3.47v15.75h-3.11l-0.17-1.19c-0.71,0.93-1.61,1.39-2.71,1.39c-1.32,0-2.37-0.51-3.14-1.52S371.24,24.23,371.24,22.36z
		 M374.69,22.58c0,1.97,0.57,2.95,1.72,2.95c0.77,0,1.31-0.32,1.64-0.96v-4.22c-0.31-0.66-0.85-0.98-1.62-0.98
		c-1.07,0-1.64,0.86-1.73,2.58L374.69,22.58z"/>
	<path class="st0" d="M392.36,27.99h-3.47V12.24h3.47V27.99z"/>
	<path class="st0" d="M394.05,22.34c0-1.11,0.21-2.09,0.65-2.96c0.43-0.86,1.05-1.53,1.86-1.99s1.75-0.7,2.84-0.7
		c1.66,0,2.97,0.51,3.93,1.54c0.96,1.03,1.44,2.43,1.44,4.2v0.12c0,1.73-0.48,3.1-1.44,4.12c-0.96,1.01-2.26,1.52-3.9,1.52
		c-1.58,0-2.85-0.47-3.8-1.42c-0.96-0.95-1.47-2.23-1.55-3.85L394.05,22.34z M397.51,22.56c0,1.03,0.16,1.78,0.48,2.26
		s0.8,0.72,1.43,0.72c1.23,0,1.86-0.95,1.89-2.84v-0.35c0-1.99-0.64-2.98-1.91-2.98c-1.16,0-1.78,0.86-1.88,2.57L397.51,22.56z"/>
	<path class="st0" d="M412.09,24.88c0-0.29-0.15-0.53-0.46-0.71s-0.89-0.36-1.75-0.55s-1.57-0.44-2.13-0.75
		c-0.56-0.31-0.99-0.69-1.28-1.13s-0.44-0.95-0.44-1.53c0-1.02,0.42-1.86,1.26-2.52c0.84-0.66,1.94-0.99,3.3-0.99
		c1.46,0,2.64,0.33,3.53,0.99s1.33,1.54,1.33,2.62h-3.47c0-0.89-0.47-1.33-1.41-1.33c-0.36,0-0.67,0.1-0.91,0.3
		c-0.25,0.2-0.37,0.45-0.37,0.75c0,0.31,0.15,0.56,0.45,0.75s0.78,0.35,1.44,0.47c0.66,0.12,1.24,0.27,1.74,0.44
		c1.67,0.57,2.5,1.6,2.5,3.09c0,1.01-0.45,1.83-1.35,2.47c-0.9,0.64-2.06,0.95-3.49,0.95c-0.95,0-1.8-0.17-2.54-0.51
		s-1.33-0.81-1.74-1.39s-0.62-1.21-0.62-1.86h3.23c0.01,0.51,0.18,0.89,0.51,1.12c0.33,0.24,0.75,0.35,1.26,0.35
		c0.47,0,0.83-0.1,1.06-0.29C411.97,25.43,412.09,25.18,412.09,24.88z"/>
	<path class="st0" d="M422.84,24.88c0-0.29-0.15-0.53-0.46-0.71s-0.89-0.36-1.75-0.55s-1.57-0.44-2.13-0.75
		c-0.56-0.31-0.99-0.69-1.28-1.13s-0.44-0.95-0.44-1.53c0-1.02,0.42-1.86,1.26-2.52c0.84-0.66,1.94-0.99,3.3-0.99
		c1.46,0,2.64,0.33,3.53,0.99s1.33,1.54,1.33,2.62h-3.47c0-0.89-0.47-1.33-1.41-1.33c-0.36,0-0.67,0.1-0.91,0.3
		c-0.25,0.2-0.37,0.45-0.37,0.75c0,0.31,0.15,0.56,0.45,0.75s0.78,0.35,1.44,0.47c0.66,0.12,1.24,0.27,1.74,0.44
		c1.67,0.57,2.5,1.6,2.5,3.09c0,1.01-0.45,1.83-1.35,2.47c-0.9,0.64-2.06,0.95-3.49,0.95c-0.95,0-1.8-0.17-2.54-0.51
		s-1.33-0.81-1.74-1.39s-0.62-1.21-0.62-1.86h3.23c0.01,0.51,0.18,0.89,0.51,1.12c0.33,0.24,0.75,0.35,1.26,0.35
		c0.47,0,0.83-0.1,1.06-0.29C422.73,25.43,422.84,25.18,422.84,24.88z"/>
	<path class="st0" d="M433.16,28.2c-1.7,0-3.08-0.51-4.13-1.52c-1.05-1.02-1.58-2.34-1.58-3.96v-0.29c0-1.13,0.21-2.14,0.63-3
		c0.42-0.87,1.03-1.54,1.84-2.01c0.81-0.48,1.76-0.71,2.87-0.71c1.56,0,2.79,0.48,3.69,1.45c0.9,0.97,1.35,2.32,1.35,4.04v1.34
		h-6.87c0.12,0.62,0.39,1.11,0.81,1.47c0.42,0.36,0.96,0.53,1.62,0.53c1.09,0,1.95-0.38,2.56-1.15l1.58,1.87
		c-0.43,0.59-1.04,1.07-1.83,1.42C434.92,28.02,434.07,28.2,433.16,28.2z M432.77,19.36c-1.01,0-1.61,0.67-1.8,2.01h3.49V21.1
		c0.01-0.55-0.13-0.98-0.42-1.29C433.74,19.51,433.32,19.36,432.77,19.36z"/>
	<path class="st0" d="M445.03,24.88c0-0.29-0.15-0.53-0.46-0.71s-0.89-0.36-1.75-0.55s-1.57-0.44-2.13-0.75
		c-0.56-0.31-0.99-0.69-1.28-1.13s-0.44-0.95-0.44-1.53c0-1.02,0.42-1.86,1.26-2.52c0.84-0.66,1.94-0.99,3.3-0.99
		c1.46,0,2.64,0.33,3.53,0.99s1.33,1.54,1.33,2.62h-3.47c0-0.89-0.47-1.33-1.41-1.33c-0.36,0-0.67,0.1-0.91,0.3
		c-0.25,0.2-0.37,0.45-0.37,0.75c0,0.31,0.15,0.56,0.45,0.75s0.78,0.35,1.44,0.47c0.66,0.12,1.24,0.27,1.74,0.44
		c1.67,0.57,2.5,1.6,2.5,3.09c0,1.01-0.45,1.83-1.35,2.47c-0.9,0.64-2.06,0.95-3.49,0.95c-0.95,0-1.8-0.17-2.54-0.51
		s-1.33-0.81-1.74-1.39s-0.62-1.21-0.62-1.86h3.23c0.01,0.51,0.18,0.89,0.51,1.12c0.33,0.24,0.75,0.35,1.26,0.35
		c0.47,0,0.83-0.1,1.06-0.29C444.92,25.43,445.03,25.18,445.03,24.88z"/>
	<path class="st0" d="M459.9,25.53c0.49,0,0.86-0.13,1.13-0.39c0.27-0.26,0.4-0.63,0.39-1.1h3.24c0,1.22-0.44,2.21-1.31,2.99
		c-0.87,0.78-1.99,1.17-3.37,1.17c-1.61,0-2.88-0.51-3.81-1.52s-1.39-2.41-1.39-4.2v-0.14c0-1.12,0.21-2.11,0.62-2.97
		c0.41-0.86,1.01-1.52,1.79-1.98c0.78-0.46,1.7-0.69,2.77-0.69c1.44,0,2.59,0.4,3.44,1.2s1.27,1.88,1.27,3.25h-3.24
		c0-0.57-0.14-1.02-0.42-1.32c-0.28-0.31-0.66-0.46-1.13-0.46c-0.9,0-1.42,0.57-1.57,1.71c-0.05,0.36-0.07,0.86-0.07,1.5
		c0,1.11,0.13,1.89,0.4,2.32S459.32,25.53,459.9,25.53z"/>
	<path class="st0" d="M469.77,27.99h-3.47V12.24h3.47V27.99z"/>
	<path class="st0" d="M471.87,14.04c0-0.49,0.18-0.9,0.53-1.21s0.82-0.47,1.38-0.47c0.57,0,1.03,0.16,1.38,0.47s0.53,0.72,0.53,1.21
		s-0.18,0.9-0.53,1.21s-0.82,0.47-1.38,0.47c-0.57,0-1.03-0.16-1.38-0.47S471.87,14.53,471.87,14.04z M475.54,27.99h-3.47V16.9h3.47
		V27.99z"/>
	<path class="st0" d="M480.93,16.9l0.11,1.3c0.79-1,1.84-1.51,3.17-1.51c1.4,0,2.35,0.56,2.84,1.67c0.75-1.11,1.84-1.67,3.26-1.67
		c2.25,0,3.4,1.36,3.47,4.08v7.22h-3.47v-7c0-0.57-0.1-0.98-0.29-1.24s-0.54-0.39-1.05-0.39c-0.68,0-1.19,0.3-1.53,0.91l0.01,0.14
		v7.58H484v-6.98c0-0.58-0.09-1-0.28-1.26c-0.18-0.26-0.54-0.39-1.06-0.39c-0.66,0-1.17,0.3-1.52,0.91v7.72h-3.46V16.9H480.93z"/>
	<path class="st0" d="M506.06,22.54c0,1.82-0.38,3.22-1.13,4.19s-1.81,1.47-3.18,1.47c-1.13,0-2.04-0.45-2.73-1.34l-0.14,1.14h-3.1
		V12.24h3.46v5.55c0.64-0.73,1.47-1.1,2.49-1.1c1.38,0,2.45,0.5,3.2,1.49s1.13,2.39,1.13,4.18V22.54z M502.59,22.32
		c0-1.06-0.14-1.82-0.42-2.28c-0.28-0.45-0.72-0.68-1.31-0.68c-0.78,0-1.32,0.3-1.62,0.89v4.4c0.29,0.59,0.84,0.88,1.64,0.88
		c0.81,0,1.33-0.4,1.55-1.19C502.53,23.96,502.59,23.28,502.59,22.32z"/>
	<path class="st0" d="M512.95,28.2c-1.7,0-3.08-0.51-4.13-1.52c-1.05-1.02-1.58-2.34-1.58-3.96v-0.29c0-1.13,0.21-2.14,0.63-3
		c0.42-0.87,1.03-1.54,1.84-2.01c0.81-0.48,1.76-0.71,2.87-0.71c1.56,0,2.79,0.48,3.69,1.45c0.9,0.97,1.35,2.32,1.35,4.04v1.34
		h-6.87c0.12,0.62,0.39,1.11,0.81,1.47c0.42,0.36,0.96,0.53,1.62,0.53c1.09,0,1.95-0.38,2.56-1.15l1.58,1.87
		c-0.43,0.59-1.04,1.07-1.83,1.42C514.71,28.02,513.86,28.2,512.95,28.2z M512.56,19.36c-1.01,0-1.61,0.67-1.8,2.01h3.49V21.1
		c0.01-0.55-0.13-0.98-0.42-1.29C513.52,19.51,513.1,19.36,512.56,19.36z"/>
	<path class="st0" d="M518.58,22.36c0-1.76,0.38-3.14,1.14-4.15c0.76-1.01,1.82-1.52,3.18-1.52c0.99,0,1.83,0.39,2.5,1.17v-5.62
		h3.47v15.75h-3.11l-0.17-1.19c-0.71,0.93-1.61,1.39-2.71,1.39c-1.32,0-2.37-0.51-3.14-1.52S518.58,24.23,518.58,22.36z
		 M522.03,22.58c0,1.97,0.57,2.95,1.72,2.95c0.77,0,1.31-0.32,1.64-0.96v-4.22c-0.31-0.66-0.85-0.98-1.62-0.98
		c-1.07,0-1.64,0.86-1.73,2.58L522.03,22.58z"/>
	<path class="st0" d="M540.08,14.14v2.76h1.82v2.4h-1.82v5.08c0,0.42,0.07,0.71,0.22,0.87s0.45,0.25,0.89,0.25
		c0.34,0,0.63-0.02,0.86-0.06v2.47c-0.62,0.2-1.27,0.3-1.95,0.3c-1.19,0-2.07-0.28-2.64-0.84s-0.85-1.41-0.85-2.55V19.3h-1.42v-2.4
		h1.42v-2.76H540.08z"/>
	<path class="st0" d="M542.52,22.34c0-1.11,0.21-2.09,0.65-2.96c0.43-0.86,1.05-1.53,1.86-1.99s1.75-0.7,2.84-0.7
		c1.66,0,2.97,0.51,3.93,1.54c0.96,1.03,1.44,2.43,1.44,4.2v0.12c0,1.73-0.48,3.1-1.44,4.12c-0.96,1.01-2.26,1.52-3.9,1.52
		c-1.58,0-2.85-0.47-3.8-1.42c-0.96-0.95-1.47-2.23-1.55-3.85L542.52,22.34z M545.97,22.56c0,1.03,0.16,1.78,0.48,2.26
		s0.8,0.72,1.43,0.72c1.23,0,1.86-0.95,1.89-2.84v-0.35c0-1.99-0.64-2.98-1.91-2.98c-1.16,0-1.78,0.86-1.88,2.57L545.97,22.56z"/>
</g>
</svg>
