<?xml version="1.0" encoding="utf-8"?>
<!-- Generator: Adobe Illustrator 25.3.1, SVG Export Plug-In . SVG Version: 6.00 Build 0)  -->
<svg version="1.1" id="Layer_1" xmlns="http://www.w3.org/2000/svg" xmlns:xlink="http://www.w3.org/1999/xlink" x="0px" y="0px"
	 viewBox="0 0 728 90" style="enable-background:new 0 0 728 90;" xml:space="preserve">
<style type="text/css">
	.st0{fill:#021D8B;stroke:url(#SVGID_1_);stroke-width:2;stroke-miterlimit:10;}
	.st1{fill:#FFFFFF;}
</style>
<linearGradient id="SVGID_1_" gradientUnits="userSpaceOnUse" x1="439.8141" y1="46.3249" x2="572.8141" y2="46.3249">
	<stop  offset="0" style="stop-color:#18B9FB"/>
	<stop  offset="0.5" style="stop-color:#782EEB"/>
	<stop  offset="1" style="stop-color:#E82D8A"/>
</linearGradient>
<path class="st0" d="M555.18,73.32h-97.73c-9.19,0-16.64-7.45-16.64-16.64V35.96c0-9.19,7.45-16.64,16.64-16.64h97.73
	c9.19,0,16.64,7.45,16.64,16.64v20.73C571.81,65.88,564.37,73.32,555.18,73.32z"/>
<g>
	<path class="st1" d="M454.52,40.67h4.04v1.53h-5.95v-9.24h1.9V40.67z"/>
	<path class="st1" d="M462.69,42.33c-1.01,0-1.83-0.31-2.46-0.93s-0.95-1.44-0.95-2.47v-0.18c0-0.69,0.13-1.31,0.4-1.85
		c0.27-0.54,0.64-0.96,1.13-1.26c0.49-0.29,1.05-0.44,1.67-0.44c0.94,0,1.68,0.3,2.22,0.89c0.54,0.59,0.81,1.43,0.81,2.52v0.75
		h-4.37c0.06,0.45,0.24,0.81,0.54,1.08c0.3,0.27,0.68,0.41,1.13,0.41c0.71,0,1.26-0.26,1.66-0.77l0.9,1.01
		c-0.28,0.39-0.65,0.69-1.12,0.91C463.79,42.22,463.27,42.33,462.69,42.33z M462.48,36.69c-0.36,0-0.66,0.12-0.89,0.37
		s-0.37,0.6-0.43,1.06h2.55v-0.15c-0.01-0.41-0.12-0.72-0.33-0.95S462.87,36.69,462.48,36.69z"/>
	<path class="st1" d="M470.54,42.2c-0.08-0.17-0.15-0.37-0.18-0.62c-0.44,0.5-1.02,0.74-1.73,0.74c-0.67,0-1.23-0.19-1.67-0.58
		s-0.66-0.88-0.66-1.47c0-0.73,0.27-1.29,0.81-1.68c0.54-0.39,1.32-0.59,2.34-0.59h0.84v-0.39c0-0.32-0.08-0.57-0.24-0.76
		s-0.42-0.29-0.77-0.29c-0.31,0-0.55,0.07-0.73,0.22s-0.26,0.35-0.26,0.61h-1.83c0-0.4,0.12-0.77,0.37-1.1s0.59-0.6,1.04-0.8
		c0.45-0.19,0.95-0.29,1.51-0.29c0.85,0,1.52,0.21,2.02,0.64c0.5,0.43,0.75,1.02,0.75,1.79v2.98c0,0.65,0.09,1.14,0.27,1.48v0.11
		H470.54z M469.02,40.93c0.27,0,0.52-0.06,0.75-0.18c0.23-0.12,0.4-0.28,0.51-0.49v-1.18h-0.69c-0.92,0-1.41,0.32-1.47,0.95
		l-0.01,0.11c0,0.23,0.08,0.42,0.24,0.56C468.52,40.85,468.74,40.93,469.02,40.93z"/>
	<path class="st1" d="M477.39,37.05c-0.25-0.03-0.47-0.05-0.66-0.05c-0.69,0-1.15,0.23-1.37,0.7v4.49h-1.83v-6.87h1.73l0.05,0.82
		c0.37-0.63,0.88-0.95,1.53-0.95c0.2,0,0.39,0.03,0.57,0.08L477.39,37.05z"/>
	<path class="st1" d="M479.96,35.33l0.06,0.79c0.49-0.61,1.15-0.92,1.97-0.92c0.73,0,1.27,0.21,1.62,0.64s0.54,1.07,0.55,1.92v4.44
		h-1.83v-4.39c0-0.39-0.08-0.67-0.25-0.85c-0.17-0.18-0.45-0.26-0.84-0.26c-0.52,0-0.9,0.22-1.16,0.66v4.84h-1.83v-6.87H479.96z"/>
	<path class="st1" d="M496.43,42.2h-1.9v-3.96h-3.71v3.96h-1.9v-9.24h1.9v3.75h3.71v-3.75h1.9V42.2z"/>
	<path class="st1" d="M497.69,38.7c0-0.68,0.13-1.29,0.39-1.82s0.64-0.95,1.13-1.24s1.07-0.44,1.72-0.44c0.93,0,1.68,0.28,2.27,0.85
		s0.91,1.34,0.98,2.31l0.01,0.47c0,1.05-0.29,1.9-0.88,2.54c-0.59,0.64-1.38,0.96-2.37,0.96s-1.78-0.32-2.37-0.95
		c-0.59-0.63-0.89-1.5-0.89-2.59V38.7z M499.52,38.83c0,0.65,0.12,1.15,0.37,1.5c0.25,0.35,0.6,0.52,1.05,0.52
		c0.44,0,0.79-0.17,1.04-0.51c0.25-0.34,0.37-0.89,0.37-1.64c0-0.64-0.12-1.14-0.37-1.49c-0.25-0.35-0.6-0.53-1.05-0.53
		c-0.45,0-0.79,0.17-1.04,0.52C499.65,37.56,499.52,38.1,499.52,38.83z"/>
	<path class="st1" d="M511.3,39.71l0.9-4.37h1.77l-1.75,6.87h-1.54l-1.3-4.32l-1.3,4.32h-1.53l-1.75-6.87h1.77l0.89,4.37l1.26-4.37
		h1.33L511.3,39.71z"/>
	<path class="st1" d="M524.81,34.5h-2.83v7.7h-1.9v-7.7h-2.79v-1.54h7.53V34.5z"/>
	<path class="st1" d="M524.17,38.7c0-0.68,0.13-1.29,0.39-1.82s0.64-0.95,1.13-1.24s1.07-0.44,1.72-0.44c0.93,0,1.68,0.28,2.27,0.85
		s0.91,1.34,0.98,2.31l0.01,0.47c0,1.05-0.29,1.9-0.88,2.54c-0.59,0.64-1.38,0.96-2.37,0.96s-1.78-0.32-2.37-0.95
		c-0.59-0.63-0.89-1.5-0.89-2.59V38.7z M526.01,38.83c0,0.65,0.12,1.15,0.37,1.5c0.25,0.35,0.6,0.52,1.05,0.52
		c0.44,0,0.79-0.17,1.04-0.51c0.25-0.34,0.37-0.89,0.37-1.64c0-0.64-0.12-1.14-0.37-1.49c-0.25-0.35-0.6-0.53-1.05-0.53
		c-0.45,0-0.79,0.17-1.04,0.52C526.13,37.56,526.01,38.1,526.01,38.83z"/>
	<path class="st1" d="M542.69,42.2h-1.9v-3.96h-3.71v3.96h-1.9v-9.24h1.9v3.75h3.71v-3.75h1.9V42.2z"/>
	<path class="st1" d="M547.39,42.33c-1.01,0-1.83-0.31-2.46-0.93s-0.95-1.44-0.95-2.47v-0.18c0-0.69,0.13-1.31,0.4-1.85
		c0.27-0.54,0.64-0.96,1.13-1.26c0.49-0.29,1.05-0.44,1.67-0.44c0.94,0,1.68,0.3,2.22,0.89c0.54,0.59,0.81,1.43,0.81,2.52v0.75
		h-4.37c0.06,0.45,0.24,0.81,0.54,1.08c0.3,0.27,0.68,0.41,1.13,0.41c0.71,0,1.26-0.26,1.66-0.77l0.9,1.01
		c-0.28,0.39-0.65,0.69-1.12,0.91C548.48,42.22,547.96,42.33,547.39,42.33z M547.18,36.69c-0.36,0-0.66,0.12-0.89,0.37
		s-0.37,0.6-0.43,1.06h2.55v-0.15c-0.01-0.41-0.12-0.72-0.33-0.95S547.57,36.69,547.18,36.69z"/>
	<path class="st1" d="M553.19,42.2h-1.84v-9.75h1.84V42.2z"/>
	<path class="st1" d="M560.89,38.83c0,1.06-0.24,1.91-0.72,2.54c-0.48,0.64-1.13,0.96-1.95,0.96c-0.69,0-1.25-0.24-1.68-0.72v3.24
		h-1.83v-9.51h1.7l0.06,0.67c0.45-0.53,1.02-0.8,1.74-0.8c0.85,0,1.5,0.31,1.97,0.94s0.7,1.49,0.7,2.59V38.83z M559.05,38.7
		c0-0.64-0.11-1.13-0.34-1.48s-0.55-0.52-0.99-0.52c-0.58,0-0.97,0.22-1.19,0.66v2.81c0.22,0.45,0.62,0.68,1.2,0.68
		C558.61,40.85,559.05,40.13,559.05,38.7z"/>
	<path class="st1" d="M461.84,54.7v3.26h-1.9v-9.24h3.61c0.69,0,1.3,0.13,1.83,0.38c0.53,0.25,0.93,0.61,1.22,1.08s0.42,1,0.42,1.6
		c0,0.91-0.31,1.62-0.93,2.14c-0.62,0.52-1.48,0.78-2.57,0.78H461.84z M461.84,53.16h1.7c0.5,0,0.89-0.12,1.15-0.36
		c0.26-0.24,0.4-0.58,0.4-1.02c0-0.45-0.13-0.82-0.4-1.1c-0.27-0.28-0.63-0.42-1.11-0.43h-1.75V53.16z"/>
	<path class="st1" d="M472.06,52.81c-0.25-0.03-0.47-0.05-0.66-0.05c-0.69,0-1.15,0.24-1.37,0.71v4.49h-1.83v-6.87h1.73l0.05,0.82
		c0.37-0.63,0.88-0.95,1.53-0.95c0.2,0,0.39,0.03,0.57,0.08L472.06,52.81z"/>
	<path class="st1" d="M472.43,54.46c0-0.68,0.13-1.29,0.39-1.82s0.64-0.95,1.13-1.24s1.07-0.44,1.72-0.44
		c0.93,0,1.68,0.28,2.27,0.85c0.59,0.57,0.91,1.34,0.98,2.31l0.01,0.47c0,1.05-0.29,1.9-0.88,2.54c-0.59,0.64-1.38,0.96-2.37,0.96
		s-1.78-0.32-2.37-0.95c-0.59-0.63-0.89-1.5-0.89-2.59V54.46z M474.26,54.59c0,0.65,0.12,1.15,0.37,1.5
		c0.25,0.34,0.6,0.52,1.05,0.52c0.44,0,0.79-0.17,1.04-0.51c0.25-0.34,0.37-0.89,0.37-1.64c0-0.64-0.12-1.14-0.37-1.49
		c-0.25-0.35-0.6-0.53-1.05-0.53c-0.45,0-0.79,0.17-1.04,0.52C474.39,53.32,474.26,53.86,474.26,54.59z"/>
	<path class="st1" d="M482.26,49.4v1.69h1.17v1.35h-1.17v3.43c0,0.25,0.05,0.44,0.15,0.55c0.1,0.11,0.28,0.17,0.56,0.17
		c0.2,0,0.38-0.01,0.54-0.04v1.39c-0.36,0.11-0.73,0.17-1.11,0.17c-1.29,0-1.94-0.65-1.97-1.95v-3.7h-1v-1.35h1V49.4H482.26z"/>
	<path class="st1" d="M487.62,58.09c-1.01,0-1.83-0.31-2.46-0.93c-0.63-0.62-0.95-1.44-0.95-2.47v-0.18c0-0.69,0.13-1.31,0.4-1.85
		c0.27-0.54,0.64-0.96,1.13-1.26c0.49-0.29,1.05-0.44,1.67-0.44c0.94,0,1.68,0.3,2.22,0.89c0.54,0.59,0.81,1.43,0.81,2.52v0.75
		h-4.37c0.06,0.45,0.24,0.81,0.54,1.08c0.3,0.27,0.68,0.41,1.13,0.41c0.71,0,1.26-0.26,1.66-0.77l0.9,1.01
		c-0.28,0.39-0.65,0.69-1.12,0.91C488.71,57.98,488.19,58.09,487.62,58.09z M487.41,52.44c-0.36,0-0.66,0.12-0.89,0.37
		c-0.23,0.25-0.37,0.6-0.43,1.06h2.55v-0.15c-0.01-0.41-0.12-0.72-0.33-0.95C488.1,52.55,487.8,52.44,487.41,52.44z"/>
	<path class="st1" d="M494.34,56.61c0.34,0,0.61-0.09,0.83-0.28c0.21-0.19,0.32-0.43,0.33-0.74h1.72c0,0.46-0.13,0.89-0.38,1.28
		c-0.25,0.39-0.59,0.69-1.03,0.9c-0.43,0.21-0.91,0.32-1.44,0.32c-0.98,0-1.76-0.31-2.32-0.94s-0.85-1.49-0.85-2.59v-0.12
		c0-1.06,0.28-1.9,0.84-2.53c0.56-0.63,1.33-0.95,2.32-0.95c0.86,0,1.55,0.24,2.07,0.73c0.52,0.49,0.78,1.14,0.79,1.95h-1.72
		c-0.01-0.36-0.12-0.65-0.33-0.87c-0.21-0.22-0.49-0.33-0.84-0.33c-0.43,0-0.75,0.16-0.97,0.47s-0.33,0.82-0.33,1.52v0.19
		c0,0.71,0.11,1.22,0.32,1.53S493.9,56.61,494.34,56.61z"/>
	<path class="st1" d="M500.46,49.4v1.69h1.17v1.35h-1.17v3.43c0,0.25,0.05,0.44,0.15,0.55c0.1,0.11,0.28,0.17,0.56,0.17
		c0.2,0,0.38-0.01,0.54-0.04v1.39c-0.36,0.11-0.73,0.17-1.11,0.17c-1.29,0-1.94-0.65-1.97-1.95v-3.7h-1v-1.35h1V49.4H500.46z"/>
	<path class="st1" d="M509.2,52.88l1.92-4.16h2.08l-3.04,5.89v3.35h-1.94v-3.35l-3.03-5.89h2.09L509.2,52.88z"/>
	<path class="st1" d="M513.23,54.46c0-0.68,0.13-1.29,0.39-1.82s0.64-0.95,1.13-1.24s1.07-0.44,1.72-0.44
		c0.93,0,1.68,0.28,2.27,0.85c0.59,0.57,0.91,1.34,0.98,2.31l0.01,0.47c0,1.05-0.29,1.9-0.88,2.54c-0.59,0.64-1.38,0.96-2.37,0.96
		s-1.78-0.32-2.37-0.95c-0.59-0.63-0.89-1.5-0.89-2.59V54.46z M515.07,54.59c0,0.65,0.12,1.15,0.37,1.5
		c0.25,0.34,0.6,0.52,1.05,0.52c0.44,0,0.79-0.17,1.04-0.51c0.25-0.34,0.37-0.89,0.37-1.64c0-0.64-0.12-1.14-0.37-1.49
		c-0.25-0.35-0.6-0.53-1.05-0.53c-0.45,0-0.79,0.17-1.04,0.52C515.19,53.32,515.07,53.86,515.07,54.59z"/>
	<path class="st1" d="M524.98,57.26c-0.45,0.55-1.08,0.83-1.88,0.83c-0.74,0-1.3-0.21-1.69-0.63c-0.39-0.42-0.58-1.04-0.59-1.86
		v-4.5h1.83v4.44c0,0.72,0.33,1.07,0.98,1.07c0.62,0,1.05-0.22,1.28-0.65v-4.87h1.84v6.87h-1.73L524.98,57.26z"/>
	<path class="st1" d="M532,52.81c-0.25-0.03-0.47-0.05-0.66-0.05c-0.69,0-1.15,0.24-1.37,0.71v4.49h-1.83v-6.87h1.73l0.05,0.82
		c0.37-0.63,0.88-0.95,1.53-0.95c0.2,0,0.39,0.03,0.57,0.08L532,52.81z"/>
	<path class="st1" d="M536.6,56.06c0-0.22-0.11-0.4-0.33-0.53c-0.22-0.13-0.58-0.25-1.07-0.35c-1.63-0.34-2.45-1.04-2.45-2.08
		c0-0.61,0.25-1.12,0.76-1.53s1.17-0.61,1.98-0.61c0.87,0,1.57,0.21,2.09,0.62c0.52,0.41,0.78,0.94,0.78,1.6h-1.83
		c0-0.26-0.08-0.48-0.25-0.65c-0.17-0.17-0.43-0.26-0.79-0.26c-0.31,0-0.55,0.07-0.72,0.21s-0.25,0.32-0.25,0.53
		c0,0.2,0.1,0.37,0.29,0.49s0.52,0.23,0.97,0.32c0.46,0.09,0.84,0.19,1.15,0.31c0.97,0.36,1.45,0.97,1.45,1.85
		c0,0.63-0.27,1.13-0.81,1.52c-0.54,0.39-1.23,0.58-2.08,0.58c-0.58,0-1.09-0.1-1.53-0.31c-0.45-0.21-0.8-0.49-1.05-0.84
		s-0.38-0.74-0.38-1.16h1.74c0.02,0.33,0.14,0.58,0.36,0.75c0.22,0.17,0.52,0.26,0.9,0.26c0.35,0,0.62-0.07,0.8-0.2
		C536.51,56.45,536.6,56.28,536.6,56.06z"/>
	<path class="st1" d="M542.73,58.09c-1.01,0-1.83-0.31-2.46-0.93c-0.63-0.62-0.95-1.44-0.95-2.47v-0.18c0-0.69,0.13-1.31,0.4-1.85
		c0.27-0.54,0.64-0.96,1.13-1.26c0.49-0.29,1.05-0.44,1.67-0.44c0.94,0,1.68,0.3,2.22,0.89c0.54,0.59,0.81,1.43,0.81,2.52v0.75
		h-4.37c0.06,0.45,0.24,0.81,0.54,1.08c0.3,0.27,0.68,0.41,1.13,0.41c0.71,0,1.26-0.26,1.66-0.77l0.9,1.01
		c-0.28,0.39-0.65,0.69-1.12,0.91C543.82,57.98,543.3,58.09,542.73,58.09z M542.52,52.44c-0.36,0-0.66,0.12-0.89,0.37
		c-0.23,0.25-0.37,0.6-0.43,1.06h2.55v-0.15c-0.01-0.41-0.12-0.72-0.33-0.95C543.21,52.55,542.91,52.44,542.52,52.44z"/>
	<path class="st1" d="M548.53,57.96h-1.84v-9.75h1.84V57.96z"/>
	<path class="st1" d="M550.54,57.96v-5.52h-1.02v-1.35h1.02v-0.58c0-0.77,0.22-1.37,0.66-1.79c0.44-0.43,1.06-0.64,1.86-0.64
		c0.25,0,0.56,0.04,0.93,0.13l-0.02,1.42c-0.15-0.04-0.34-0.06-0.56-0.06c-0.69,0-1.04,0.32-1.04,0.97v0.55h1.37v1.35h-1.37v5.52
		H550.54z"/>
</g>
</svg>
