<?xml version="1.0" encoding="utf-8"?>
<!-- Generator: Adobe Illustrator 25.3.1, SVG Export Plug-In . SVG Version: 6.00 Build 0)  -->
<svg version="1.1" id="Layer_1" xmlns="http://www.w3.org/2000/svg" xmlns:xlink="http://www.w3.org/1999/xlink" x="0px" y="0px"
	 viewBox="0 0 728 90" style="enable-background:new 0 0 728 90;" xml:space="preserve">
<style type="text/css">
	.st0{fill:#FFFFFF;}
</style>
<g>
	<path class="st0" d="M128.87,69.69c0-0.21-0.07-0.39-0.22-0.53c-0.15-0.14-0.39-0.27-0.74-0.39c-0.49-0.15-0.84-0.34-1.06-0.58
		c-0.22-0.24-0.33-0.54-0.33-0.91c0-0.37,0.11-0.68,0.33-0.92s0.52-0.38,0.9-0.43v-0.75h0.51v0.75c0.38,0.05,0.68,0.21,0.89,0.48
		c0.21,0.27,0.32,0.64,0.32,1.1h-0.63c0-0.32-0.08-0.58-0.23-0.77c-0.15-0.19-0.36-0.28-0.62-0.28c-0.27,0-0.48,0.07-0.62,0.21
		c-0.14,0.14-0.22,0.34-0.22,0.59c0,0.23,0.08,0.42,0.23,0.56c0.15,0.14,0.4,0.26,0.75,0.38c0.35,0.11,0.62,0.24,0.81,0.37
		c0.19,0.14,0.34,0.29,0.43,0.47c0.09,0.18,0.14,0.39,0.14,0.63c0,0.39-0.12,0.7-0.35,0.93c-0.23,0.24-0.55,0.37-0.97,0.42v0.65
		h-0.51v-0.65c-0.42-0.04-0.76-0.19-1-0.45c-0.24-0.26-0.36-0.62-0.36-1.07h0.63c0,0.32,0.08,0.56,0.25,0.73
		c0.17,0.17,0.4,0.26,0.71,0.26c0.3,0,0.53-0.07,0.71-0.21C128.78,70.13,128.87,69.94,128.87,69.69z"/>
	<path class="st0" d="M132.36,70.97h-0.64v-4.21l-1.27,0.47v-0.57l1.81-0.68h0.1V70.97z"/>
	<path class="st0" d="M136.87,66.38v0.9h0.69v0.49h-0.69v2.3c0,0.15,0.03,0.26,0.09,0.33s0.17,0.11,0.31,0.11
		c0.07,0,0.17-0.01,0.3-0.04v0.51c-0.17,0.05-0.33,0.07-0.49,0.07c-0.28,0-0.5-0.09-0.64-0.26c-0.14-0.17-0.22-0.41-0.22-0.73v-2.29
		h-0.67v-0.49h0.67v-0.9H136.87z"/>
	<path class="st0" d="M140.09,67.84c-0.1-0.02-0.2-0.02-0.31-0.02c-0.42,0-0.7,0.18-0.84,0.53v2.62h-0.63v-3.7h0.62l0.01,0.43
		c0.21-0.33,0.5-0.5,0.88-0.5c0.12,0,0.22,0.02,0.28,0.05V67.84z"/>
	<path class="st0" d="M140.67,66.29c0-0.1,0.03-0.19,0.09-0.26c0.06-0.07,0.16-0.11,0.28-0.11s0.22,0.04,0.28,0.11
		c0.06,0.07,0.1,0.16,0.1,0.26c0,0.1-0.03,0.19-0.1,0.26s-0.16,0.1-0.28,0.1s-0.22-0.03-0.28-0.1S140.67,66.4,140.67,66.29z
		 M141.36,70.97h-0.63v-3.7h0.63V70.97z"/>
	<path class="st0" d="M144.65,70.97c-0.04-0.07-0.07-0.2-0.09-0.39c-0.29,0.31-0.64,0.46-1.05,0.46c-0.36,0-0.66-0.1-0.9-0.31
		s-0.35-0.47-0.35-0.78c0-0.38,0.15-0.68,0.44-0.9s0.71-0.32,1.24-0.32h0.62v-0.29c0-0.22-0.07-0.4-0.2-0.53
		c-0.13-0.13-0.33-0.2-0.58-0.2c-0.23,0-0.42,0.06-0.57,0.17c-0.15,0.11-0.23,0.25-0.23,0.41h-0.64c0-0.18,0.07-0.36,0.2-0.54
		s0.31-0.31,0.53-0.41s0.47-0.15,0.74-0.15c0.43,0,0.76,0.11,1,0.32s0.37,0.51,0.38,0.88v1.7c0,0.34,0.04,0.61,0.13,0.81v0.05
		H144.65z M143.6,70.49c0.2,0,0.39-0.05,0.56-0.15s0.31-0.24,0.39-0.4v-0.76h-0.5c-0.77,0-1.16,0.23-1.16,0.68
		c0,0.2,0.07,0.35,0.2,0.46S143.39,70.49,143.6,70.49z"/>
	<path class="st0" d="M146.86,70.97h-0.63v-5.25h0.63V70.97z"/>
	<path class="st0" d="M149.92,70.97v-3.21h-0.58v-0.49h0.58v-0.38c0-0.4,0.11-0.7,0.32-0.92s0.51-0.33,0.9-0.33
		c0.15,0,0.29,0.02,0.43,0.06l-0.03,0.51c-0.11-0.02-0.22-0.03-0.34-0.03c-0.21,0-0.36,0.06-0.47,0.18
		c-0.11,0.12-0.17,0.29-0.17,0.52v0.39h0.79v0.49h-0.79v3.21H149.92z"/>
	<path class="st0" d="M151.87,69.09c0-0.36,0.07-0.69,0.21-0.98c0.14-0.29,0.34-0.51,0.59-0.67c0.25-0.16,0.54-0.24,0.87-0.24
		c0.5,0,0.91,0.17,1.22,0.52c0.31,0.35,0.47,0.81,0.47,1.39v0.04c0,0.36-0.07,0.68-0.21,0.97s-0.33,0.51-0.59,0.67
		c-0.26,0.16-0.55,0.24-0.88,0.24c-0.5,0-0.91-0.17-1.22-0.52c-0.31-0.35-0.47-0.81-0.47-1.38V69.09z M152.5,69.16
		c0,0.41,0.09,0.74,0.29,0.99s0.44,0.37,0.76,0.37c0.32,0,0.58-0.13,0.77-0.38s0.28-0.6,0.28-1.06c0-0.41-0.1-0.73-0.29-0.99
		s-0.45-0.38-0.77-0.38c-0.31,0-0.56,0.12-0.75,0.37C152.6,68.35,152.5,68.7,152.5,69.16z"/>
	<path class="st0" d="M157.81,67.84c-0.1-0.02-0.2-0.02-0.31-0.02c-0.42,0-0.7,0.18-0.84,0.53v2.62h-0.63v-3.7h0.62l0.01,0.43
		c0.21-0.33,0.5-0.5,0.88-0.5c0.12,0,0.22,0.02,0.28,0.05V67.84z"/>
	<path class="st0" d="M160.99,66.38v0.9h0.69v0.49h-0.69v2.3c0,0.15,0.03,0.26,0.09,0.33s0.17,0.11,0.31,0.11
		c0.07,0,0.17-0.01,0.3-0.04v0.51c-0.17,0.05-0.33,0.07-0.49,0.07c-0.28,0-0.5-0.09-0.64-0.26c-0.14-0.17-0.22-0.41-0.22-0.73v-2.29
		h-0.67v-0.49h0.67v-0.9H160.99z"/>
	<path class="st0" d="M163.05,67.72c0.28-0.34,0.64-0.52,1.09-0.52c0.78,0,1.18,0.44,1.18,1.32v2.44h-0.63v-2.45
		c0-0.27-0.06-0.46-0.18-0.59c-0.12-0.13-0.31-0.19-0.56-0.19c-0.21,0-0.39,0.05-0.54,0.16c-0.15,0.11-0.28,0.25-0.36,0.43v2.63
		h-0.63v-5.25h0.63V67.72z"/>
	<path class="st0" d="M167.81,71.04c-0.5,0-0.91-0.17-1.22-0.49s-0.47-0.77-0.47-1.32v-0.12c0-0.37,0.07-0.69,0.21-0.98
		c0.14-0.29,0.34-0.51,0.59-0.68s0.52-0.24,0.82-0.24c0.48,0,0.85,0.16,1.12,0.48c0.27,0.32,0.4,0.77,0.4,1.36v0.26h-2.5
		c0.01,0.36,0.12,0.66,0.32,0.88s0.46,0.34,0.78,0.34c0.22,0,0.41-0.05,0.57-0.14c0.15-0.09,0.29-0.21,0.41-0.36l0.39,0.3
		C168.89,70.8,168.43,71.04,167.81,71.04z M167.73,67.72c-0.25,0-0.47,0.09-0.64,0.28s-0.28,0.45-0.32,0.78h1.85v-0.05
		c-0.02-0.32-0.1-0.57-0.26-0.75S167.99,67.72,167.73,67.72z"/>
	<path class="st0" d="M172.02,70.97v-3.21h-0.58v-0.49h0.58v-0.38c0-0.4,0.11-0.7,0.32-0.92s0.51-0.33,0.9-0.33
		c0.15,0,0.29,0.02,0.43,0.06l-0.03,0.51c-0.11-0.02-0.22-0.03-0.34-0.03c-0.21,0-0.36,0.06-0.47,0.18
		c-0.11,0.12-0.17,0.29-0.17,0.52v0.39h0.79v0.49h-0.79v3.21H172.02z"/>
	<path class="st0" d="M174.15,66.29c0-0.1,0.03-0.19,0.09-0.26c0.06-0.07,0.16-0.11,0.28-0.11s0.22,0.04,0.28,0.11
		c0.06,0.07,0.1,0.16,0.1,0.26c0,0.1-0.03,0.19-0.1,0.26s-0.16,0.1-0.28,0.1s-0.22-0.03-0.28-0.1S174.15,66.4,174.15,66.29z
		 M174.83,70.97h-0.63v-3.7h0.63V70.97z"/>
	<path class="st0" d="M177.63,67.84c-0.1-0.02-0.2-0.02-0.31-0.02c-0.42,0-0.7,0.18-0.84,0.53v2.62h-0.63v-3.7h0.62l0.01,0.43
		c0.21-0.33,0.5-0.5,0.88-0.5c0.12,0,0.22,0.02,0.28,0.05V67.84z"/>
	<path class="st0" d="M180.36,69.99c0-0.17-0.06-0.3-0.19-0.4s-0.35-0.18-0.67-0.24s-0.57-0.15-0.76-0.25
		c-0.19-0.1-0.33-0.21-0.42-0.34c-0.09-0.13-0.13-0.29-0.13-0.47c0-0.3,0.13-0.56,0.38-0.77c0.26-0.21,0.58-0.31,0.98-0.31
		c0.42,0,0.76,0.11,1.02,0.33c0.26,0.22,0.39,0.49,0.39,0.83h-0.64c0-0.17-0.07-0.32-0.22-0.45c-0.15-0.13-0.33-0.19-0.56-0.19
		c-0.23,0-0.41,0.05-0.54,0.15s-0.19,0.23-0.19,0.39c0,0.15,0.06,0.27,0.18,0.34s0.34,0.15,0.65,0.22c0.32,0.07,0.57,0.16,0.77,0.25
		c0.2,0.1,0.34,0.22,0.44,0.35s0.14,0.31,0.14,0.5c0,0.33-0.13,0.6-0.4,0.79c-0.26,0.2-0.61,0.3-1.03,0.3
		c-0.3,0-0.56-0.05-0.79-0.16s-0.41-0.25-0.54-0.44c-0.13-0.19-0.19-0.39-0.19-0.61h0.63c0.01,0.21,0.1,0.38,0.25,0.5
		s0.37,0.19,0.63,0.19c0.24,0,0.43-0.05,0.58-0.15S180.36,70.15,180.36,69.99z"/>
	<path class="st0" d="M182.68,66.38v0.9h0.69v0.49h-0.69v2.3c0,0.15,0.03,0.26,0.09,0.33s0.17,0.11,0.31,0.11
		c0.07,0,0.17-0.01,0.3-0.04v0.51c-0.17,0.05-0.33,0.07-0.49,0.07c-0.28,0-0.5-0.09-0.64-0.26c-0.14-0.17-0.22-0.41-0.22-0.73v-2.29
		h-0.67v-0.49h0.67v-0.9H182.68z"/>
	<path class="st0" d="M188.22,70.97h-1.16v-3.68l-1.13,0.33v-0.88l2.18-0.76h0.11V70.97z"/>
	<path class="st0" d="M192.76,69.03h0.51v0.89h-0.51v1.06h-1.15v-1.06h-1.92l-0.07-0.7l1.99-3.21V66h1.15V69.03z M190.71,69.03h0.9
		V67.5l-0.07,0.12L190.71,69.03z"/>
	<path class="st0" d="M195.39,69.09c0-0.58,0.13-1.05,0.38-1.38c0.25-0.34,0.61-0.51,1.06-0.51c0.33,0,0.61,0.13,0.83,0.39v-1.87
		h1.15v5.25h-1.04l-0.06-0.4c-0.24,0.31-0.54,0.46-0.9,0.46c-0.44,0-0.79-0.17-1.04-0.51C195.52,70.2,195.39,69.72,195.39,69.09z
		 M196.54,69.17c0,0.66,0.19,0.98,0.57,0.98c0.25,0,0.44-0.11,0.55-0.32v-1.41c-0.11-0.22-0.29-0.33-0.54-0.33
		c-0.36,0-0.55,0.29-0.58,0.86L196.54,69.17z"/>
	<path class="st0" d="M201.56,70.97c-0.04-0.08-0.08-0.19-0.11-0.33c-0.21,0.27-0.51,0.4-0.89,0.4c-0.35,0-0.64-0.11-0.89-0.32
		s-0.37-0.48-0.37-0.79c0-0.4,0.15-0.7,0.44-0.91c0.3-0.21,0.73-0.31,1.29-0.31h0.36v-0.2c0-0.34-0.15-0.51-0.44-0.51
		c-0.27,0-0.41,0.13-0.41,0.41h-1.15c0-0.36,0.15-0.65,0.46-0.87c0.3-0.22,0.69-0.33,1.16-0.33c0.47,0,0.84,0.12,1.12,0.34
		c0.27,0.23,0.41,0.55,0.42,0.95v1.64c0,0.34,0.06,0.6,0.16,0.78v0.06H201.56z M200.83,70.22c0.14,0,0.26-0.03,0.36-0.09
		c0.09-0.06,0.16-0.13,0.2-0.21v-0.59h-0.34c-0.4,0-0.6,0.18-0.6,0.54c0,0.1,0.04,0.19,0.11,0.25
		C200.63,70.19,200.73,70.22,200.83,70.22z"/>
	<path class="st0" d="M204.67,69.36l0.62-2.08h1.23l-1.51,4.32l-0.06,0.16c-0.21,0.48-0.59,0.72-1.13,0.72
		c-0.15,0-0.31-0.02-0.47-0.07v-0.82h0.15c0.16,0,0.29-0.02,0.37-0.07c0.09-0.05,0.15-0.13,0.19-0.25l0.09-0.25l-1.29-3.74h1.23
		L204.67,69.36z"/>
	<path class="st0" d="M208.75,69.93c0-0.1-0.05-0.18-0.15-0.24c-0.1-0.06-0.3-0.12-0.58-0.18c-0.29-0.06-0.52-0.15-0.71-0.25
		c-0.19-0.1-0.33-0.23-0.43-0.38c-0.1-0.15-0.15-0.32-0.15-0.51c0-0.34,0.14-0.62,0.42-0.84s0.65-0.33,1.1-0.33
		c0.49,0,0.88,0.11,1.18,0.33c0.3,0.22,0.44,0.51,0.44,0.87h-1.16c0-0.3-0.16-0.44-0.47-0.44c-0.12,0-0.22,0.03-0.3,0.1
		s-0.12,0.15-0.12,0.25c0,0.1,0.05,0.19,0.15,0.25s0.26,0.12,0.48,0.16s0.41,0.09,0.58,0.15c0.56,0.19,0.83,0.53,0.83,1.03
		c0,0.34-0.15,0.61-0.45,0.82c-0.3,0.21-0.69,0.32-1.16,0.32c-0.32,0-0.6-0.06-0.85-0.17s-0.44-0.27-0.58-0.46s-0.21-0.4-0.21-0.62
		h1.08c0,0.17,0.06,0.29,0.17,0.37c0.11,0.08,0.25,0.12,0.42,0.12c0.16,0,0.28-0.03,0.35-0.1
		C208.71,70.12,208.75,70.04,208.75,69.93z"/>
	<path class="st0" d="M210.58,71.96l-0.36-0.25c0.21-0.3,0.33-0.61,0.33-0.92v-0.57h0.62v0.5c0,0.23-0.06,0.46-0.17,0.69
		C210.89,71.64,210.75,71.82,210.58,71.96z M210.46,67.62c0-0.11,0.03-0.2,0.1-0.27c0.07-0.07,0.16-0.11,0.29-0.11
		c0.13,0,0.23,0.04,0.29,0.11s0.1,0.16,0.1,0.27c0,0.1-0.03,0.19-0.1,0.26c-0.07,0.07-0.17,0.11-0.29,0.11
		c-0.13,0-0.23-0.04-0.29-0.11C210.49,67.81,210.46,67.73,210.46,67.62z"/>
	<path class="st0" d="M214.52,69.02v1.95h-0.66V66h1.83c0.54,0,0.97,0.14,1.28,0.42s0.46,0.65,0.46,1.1c0,0.48-0.15,0.85-0.45,1.12
		s-0.73,0.39-1.3,0.39H214.52z M214.52,68.49h1.18c0.35,0,0.62-0.08,0.81-0.25c0.19-0.17,0.28-0.4,0.28-0.72
		c0-0.3-0.09-0.53-0.28-0.71c-0.19-0.18-0.44-0.27-0.77-0.28h-1.22V68.49z"/>
	<path class="st0" d="M218.87,70.97h-0.63v-5.25h0.63V70.97z"/>
	<path class="st0" d="M222.17,70.97c-0.04-0.07-0.07-0.2-0.09-0.39c-0.29,0.31-0.64,0.46-1.05,0.46c-0.36,0-0.66-0.1-0.9-0.31
		s-0.35-0.47-0.35-0.78c0-0.38,0.15-0.68,0.44-0.9s0.71-0.32,1.24-0.32h0.62v-0.29c0-0.22-0.07-0.4-0.2-0.53
		c-0.13-0.13-0.33-0.2-0.58-0.2c-0.23,0-0.42,0.06-0.57,0.17c-0.15,0.11-0.23,0.25-0.23,0.41h-0.64c0-0.18,0.07-0.36,0.2-0.54
		s0.31-0.31,0.53-0.41s0.47-0.15,0.74-0.15c0.43,0,0.76,0.11,1,0.32s0.37,0.51,0.38,0.88v1.7c0,0.34,0.04,0.61,0.13,0.81v0.05
		H222.17z M221.12,70.49c0.2,0,0.39-0.05,0.56-0.15s0.31-0.24,0.39-0.4v-0.76h-0.5c-0.77,0-1.16,0.23-1.16,0.68
		c0,0.2,0.07,0.35,0.2,0.46S220.91,70.49,221.12,70.49z"/>
	<path class="st0" d="M224.29,67.27l0.02,0.46c0.28-0.36,0.65-0.53,1.11-0.53c0.78,0,1.18,0.44,1.18,1.32v2.44h-0.63v-2.45
		c0-0.27-0.06-0.46-0.18-0.59c-0.12-0.13-0.31-0.19-0.56-0.19c-0.21,0-0.39,0.05-0.54,0.16c-0.15,0.11-0.28,0.25-0.36,0.43v2.63
		h-0.63v-3.7H224.29z"/>
	<path class="st0" d="M229.71,69.99c0-0.17-0.06-0.3-0.19-0.4s-0.35-0.18-0.67-0.24s-0.57-0.15-0.76-0.25
		c-0.19-0.1-0.33-0.21-0.42-0.34c-0.09-0.13-0.13-0.29-0.13-0.47c0-0.3,0.13-0.56,0.38-0.77c0.26-0.21,0.58-0.31,0.98-0.31
		c0.42,0,0.76,0.11,1.02,0.33c0.26,0.22,0.39,0.49,0.39,0.83h-0.64c0-0.17-0.07-0.32-0.22-0.45c-0.15-0.13-0.33-0.19-0.56-0.19
		c-0.23,0-0.41,0.05-0.54,0.15s-0.19,0.23-0.19,0.39c0,0.15,0.06,0.27,0.18,0.34s0.34,0.15,0.65,0.22c0.32,0.07,0.57,0.16,0.77,0.25
		c0.2,0.1,0.34,0.22,0.44,0.35s0.14,0.31,0.14,0.5c0,0.33-0.13,0.6-0.4,0.79c-0.26,0.2-0.61,0.3-1.03,0.3
		c-0.3,0-0.56-0.05-0.79-0.16s-0.41-0.25-0.54-0.44c-0.13-0.19-0.19-0.39-0.19-0.61h0.63c0.01,0.21,0.1,0.38,0.25,0.5
		s0.37,0.19,0.63,0.19c0.24,0,0.43-0.05,0.58-0.15S229.71,70.15,229.71,69.99z"/>
	<path class="st0" d="M235.18,70.97c-0.04-0.07-0.07-0.2-0.09-0.39c-0.29,0.31-0.64,0.46-1.05,0.46c-0.36,0-0.66-0.1-0.9-0.31
		s-0.35-0.47-0.35-0.78c0-0.38,0.15-0.68,0.44-0.9s0.71-0.32,1.24-0.32h0.62v-0.29c0-0.22-0.07-0.4-0.2-0.53
		c-0.13-0.13-0.33-0.2-0.58-0.2c-0.23,0-0.42,0.06-0.57,0.17c-0.15,0.11-0.23,0.25-0.23,0.41h-0.64c0-0.18,0.07-0.36,0.2-0.54
		s0.31-0.31,0.53-0.41s0.47-0.15,0.74-0.15c0.43,0,0.76,0.11,1,0.32s0.37,0.51,0.38,0.88v1.7c0,0.34,0.04,0.61,0.13,0.81v0.05
		H235.18z M234.13,70.49c0.2,0,0.39-0.05,0.56-0.15s0.31-0.24,0.39-0.4v-0.76h-0.5c-0.77,0-1.16,0.23-1.16,0.68
		c0,0.2,0.07,0.35,0.2,0.46S233.92,70.49,234.13,70.49z"/>
	<path class="st0" d="M238.49,67.84c-0.1-0.02-0.2-0.02-0.31-0.02c-0.42,0-0.7,0.18-0.84,0.53v2.62h-0.63v-3.7h0.62l0.01,0.43
		c0.21-0.33,0.5-0.5,0.88-0.5c0.12,0,0.22,0.02,0.28,0.05V67.84z"/>
	<path class="st0" d="M240.61,71.04c-0.5,0-0.91-0.17-1.22-0.49s-0.47-0.77-0.47-1.32v-0.12c0-0.37,0.07-0.69,0.21-0.98
		c0.14-0.29,0.34-0.51,0.59-0.68s0.52-0.24,0.82-0.24c0.48,0,0.85,0.16,1.12,0.48c0.27,0.32,0.4,0.77,0.4,1.36v0.26h-2.5
		c0.01,0.36,0.12,0.66,0.32,0.88s0.46,0.34,0.78,0.34c0.22,0,0.41-0.05,0.57-0.14c0.15-0.09,0.29-0.21,0.41-0.36l0.39,0.3
		C241.69,70.8,241.23,71.04,240.61,71.04z M240.53,67.72c-0.25,0-0.47,0.09-0.64,0.28s-0.28,0.45-0.32,0.78h1.85v-0.05
		c-0.02-0.32-0.1-0.57-0.26-0.75S240.79,67.72,240.53,67.72z"/>
	<path class="st0" d="M246.63,69.65c0-0.18-0.04-0.32-0.13-0.42c-0.09-0.1-0.25-0.2-0.47-0.29c-0.22-0.09-0.43-0.18-0.62-0.28
		c-0.19-0.09-0.35-0.2-0.49-0.32s-0.24-0.27-0.31-0.43s-0.11-0.36-0.11-0.59c0-0.38,0.13-0.7,0.39-0.95
		c0.26-0.25,0.61-0.39,1.04-0.44v-0.72h0.54v0.74c0.42,0.06,0.74,0.23,0.98,0.51s0.36,0.64,0.36,1.07h-1.16
		c0-0.24-0.04-0.42-0.14-0.55c-0.09-0.13-0.22-0.19-0.39-0.19c-0.15,0-0.27,0.05-0.35,0.14s-0.12,0.23-0.12,0.39
		c0,0.17,0.05,0.3,0.14,0.4c0.1,0.1,0.25,0.19,0.46,0.28c0.21,0.09,0.41,0.18,0.6,0.28c0.19,0.1,0.35,0.21,0.49,0.33
		s0.24,0.27,0.32,0.43c0.08,0.16,0.12,0.36,0.12,0.59c0,0.39-0.12,0.71-0.37,0.95s-0.58,0.39-1.01,0.43v0.69h-0.54v-0.69
		c-0.5-0.05-0.88-0.22-1.14-0.51s-0.4-0.67-0.4-1.14h1.15c0,0.26,0.06,0.46,0.17,0.59s0.28,0.2,0.49,0.2c0.16,0,0.28-0.05,0.37-0.14
		C246.59,69.94,246.63,69.81,246.63,69.65z"/>
	<path class="st0" d="M250.66,69.05c-0.25,0.22-0.53,0.33-0.83,0.33c-0.45,0-0.81-0.15-1.07-0.46c-0.26-0.31-0.4-0.71-0.4-1.22
		c0-0.32,0.07-0.62,0.22-0.89s0.36-0.49,0.62-0.65c0.27-0.16,0.56-0.24,0.89-0.24c0.33,0,0.62,0.08,0.89,0.25s0.47,0.4,0.62,0.7
		s0.22,0.65,0.23,1.04v0.44c0,0.55-0.11,1.03-0.32,1.43c-0.22,0.4-0.52,0.71-0.92,0.93c-0.4,0.22-0.86,0.32-1.39,0.32h-0.07v-0.92
		l0.22,0C250.13,70.08,250.57,69.72,250.66,69.05z M250.14,68.55c0.25,0,0.43-0.11,0.54-0.32v-0.48c0-0.32-0.05-0.56-0.16-0.71
		c-0.11-0.15-0.25-0.23-0.43-0.23c-0.16,0-0.3,0.09-0.41,0.26c-0.11,0.17-0.16,0.38-0.16,0.63c0,0.26,0.06,0.47,0.17,0.62
		C249.79,68.47,249.95,68.55,250.14,68.55z"/>
	<path class="st0" d="M253.18,69.85c0.18,0,0.33,0.05,0.46,0.16s0.18,0.25,0.18,0.42s-0.06,0.31-0.18,0.42s-0.27,0.16-0.46,0.16
		c-0.18,0-0.34-0.05-0.46-0.16c-0.12-0.11-0.18-0.25-0.18-0.41s0.06-0.3,0.18-0.41C252.84,69.91,252.99,69.85,253.18,69.85z"/>
	<path class="st0" d="M256.83,69.05c-0.25,0.22-0.53,0.33-0.83,0.33c-0.45,0-0.81-0.15-1.07-0.46c-0.26-0.31-0.4-0.71-0.4-1.22
		c0-0.32,0.07-0.62,0.22-0.89s0.36-0.49,0.62-0.65c0.27-0.16,0.56-0.24,0.89-0.24c0.33,0,0.62,0.08,0.89,0.25s0.47,0.4,0.62,0.7
		s0.22,0.65,0.23,1.04v0.44c0,0.55-0.11,1.03-0.32,1.43c-0.22,0.4-0.52,0.71-0.92,0.93c-0.4,0.22-0.86,0.32-1.39,0.32h-0.07v-0.92
		l0.22,0C256.3,70.08,256.74,69.72,256.83,69.05z M256.31,68.55c0.25,0,0.43-0.11,0.54-0.32v-0.48c0-0.32-0.05-0.56-0.16-0.71
		c-0.11-0.15-0.25-0.23-0.43-0.23c-0.16,0-0.3,0.09-0.41,0.26c-0.11,0.17-0.16,0.38-0.16,0.63c0,0.26,0.06,0.47,0.17,0.62
		C255.96,68.47,256.11,68.55,256.31,68.55z"/>
	<path class="st0" d="M260.89,69.05c-0.25,0.22-0.53,0.33-0.83,0.33c-0.45,0-0.81-0.15-1.07-0.46c-0.26-0.31-0.4-0.71-0.4-1.22
		c0-0.32,0.07-0.62,0.22-0.89s0.36-0.49,0.62-0.65c0.27-0.16,0.56-0.24,0.89-0.24c0.33,0,0.62,0.08,0.89,0.25s0.47,0.4,0.62,0.7
		s0.22,0.65,0.23,1.04v0.44c0,0.55-0.11,1.03-0.32,1.43c-0.22,0.4-0.52,0.71-0.92,0.93c-0.4,0.22-0.86,0.32-1.39,0.32h-0.07v-0.92
		l0.22,0C260.35,70.08,260.8,69.72,260.89,69.05z M260.36,68.55c0.25,0,0.43-0.11,0.54-0.32v-0.48c0-0.32-0.05-0.56-0.16-0.71
		c-0.11-0.15-0.25-0.23-0.43-0.23c-0.16,0-0.3,0.09-0.41,0.26c-0.11,0.17-0.16,0.38-0.16,0.63c0,0.26,0.06,0.47,0.17,0.62
		C260.02,68.47,260.17,68.55,260.36,68.55z"/>
	<path class="st0" d="M265.43,66.38v0.9h0.69v0.49h-0.69v2.3c0,0.15,0.03,0.26,0.09,0.33s0.17,0.11,0.31,0.11
		c0.07,0,0.17-0.01,0.3-0.04v0.51c-0.17,0.05-0.33,0.07-0.49,0.07c-0.28,0-0.5-0.09-0.64-0.26c-0.14-0.17-0.22-0.41-0.22-0.73v-2.29
		h-0.67v-0.49h0.67v-0.9H265.43z"/>
	<path class="st0" d="M266.63,69.09c0-0.36,0.07-0.69,0.21-0.98c0.14-0.29,0.34-0.51,0.59-0.67c0.25-0.16,0.54-0.24,0.87-0.24
		c0.5,0,0.91,0.17,1.22,0.52c0.31,0.35,0.47,0.81,0.47,1.39v0.04c0,0.36-0.07,0.68-0.21,0.97s-0.33,0.51-0.59,0.67
		c-0.26,0.16-0.55,0.24-0.88,0.24c-0.5,0-0.91-0.17-1.22-0.52c-0.31-0.35-0.47-0.81-0.47-1.38V69.09z M267.26,69.16
		c0,0.41,0.09,0.74,0.29,0.99s0.44,0.37,0.76,0.37c0.32,0,0.58-0.13,0.77-0.38s0.28-0.6,0.28-1.06c0-0.41-0.1-0.73-0.29-0.99
		s-0.45-0.38-0.77-0.38c-0.31,0-0.56,0.12-0.75,0.37C267.36,68.35,267.26,68.7,267.26,69.16z"/>
	<path class="st0" d="M274.64,69.65c0-0.18-0.04-0.32-0.13-0.42c-0.09-0.1-0.25-0.2-0.47-0.29c-0.22-0.09-0.43-0.18-0.62-0.28
		c-0.19-0.09-0.35-0.2-0.49-0.32s-0.24-0.27-0.31-0.43s-0.11-0.36-0.11-0.59c0-0.38,0.13-0.7,0.39-0.95
		c0.26-0.25,0.61-0.39,1.04-0.44v-0.72h0.54v0.74c0.42,0.06,0.74,0.23,0.98,0.51s0.36,0.64,0.36,1.07h-1.16
		c0-0.24-0.04-0.42-0.14-0.55c-0.09-0.13-0.22-0.19-0.39-0.19c-0.15,0-0.27,0.05-0.35,0.14s-0.12,0.23-0.12,0.39
		c0,0.17,0.05,0.3,0.14,0.4c0.1,0.1,0.25,0.19,0.46,0.28c0.21,0.09,0.41,0.18,0.6,0.28c0.19,0.1,0.35,0.21,0.49,0.33
		s0.24,0.27,0.32,0.43c0.08,0.16,0.12,0.36,0.12,0.59c0,0.39-0.12,0.71-0.37,0.95s-0.58,0.39-1.01,0.43v0.69h-0.54v-0.69
		c-0.5-0.05-0.88-0.22-1.14-0.51s-0.4-0.67-0.4-1.14h1.15c0,0.26,0.06,0.46,0.17,0.59s0.28,0.2,0.49,0.2c0.16,0,0.28-0.05,0.37-0.14
		C274.59,69.94,274.64,69.81,274.64,69.65z"/>
	<path class="st0" d="M279.87,70.97h-3.47v-0.75l1.6-1.68c0.39-0.45,0.59-0.81,0.59-1.07c0-0.21-0.05-0.38-0.14-0.49
		c-0.09-0.11-0.23-0.17-0.41-0.17c-0.18,0-0.32,0.08-0.43,0.22s-0.16,0.33-0.16,0.56h-1.16c0-0.31,0.08-0.59,0.23-0.85
		s0.36-0.46,0.64-0.61c0.27-0.15,0.57-0.22,0.91-0.22c0.54,0,0.95,0.12,1.24,0.37c0.29,0.25,0.44,0.61,0.44,1.07
		c0,0.2-0.04,0.39-0.11,0.57c-0.07,0.19-0.19,0.38-0.34,0.58c-0.15,0.2-0.4,0.48-0.74,0.82l-0.64,0.74h1.96V70.97z"/>
	<path class="st0" d="M283.49,69.03H284v0.89h-0.51v1.06h-1.15v-1.06h-1.92l-0.07-0.7l1.99-3.21V66h1.15V69.03z M281.45,69.03h0.9
		V67.5l-0.07,0.12L281.45,69.03z"/>
	<path class="st0" d="M285.24,69.85c0.18,0,0.33,0.05,0.46,0.16s0.18,0.25,0.18,0.42s-0.06,0.31-0.18,0.42s-0.27,0.16-0.46,0.16
		c-0.18,0-0.34-0.05-0.46-0.16c-0.12-0.11-0.18-0.25-0.18-0.41s0.06-0.3,0.18-0.41C284.9,69.91,285.05,69.85,285.24,69.85z"/>
	<path class="st0" d="M288.89,69.05c-0.25,0.22-0.53,0.33-0.83,0.33c-0.45,0-0.81-0.15-1.07-0.46c-0.26-0.31-0.4-0.71-0.4-1.22
		c0-0.32,0.07-0.62,0.22-0.89s0.36-0.49,0.62-0.65c0.27-0.16,0.56-0.24,0.89-0.24c0.33,0,0.62,0.08,0.89,0.25s0.47,0.4,0.62,0.7
		s0.22,0.65,0.23,1.04v0.44c0,0.55-0.11,1.03-0.32,1.43c-0.22,0.4-0.52,0.71-0.92,0.93c-0.4,0.22-0.86,0.32-1.39,0.32h-0.07v-0.92
		l0.22,0C288.36,70.08,288.8,69.72,288.89,69.05z M288.37,68.55c0.25,0,0.43-0.11,0.54-0.32v-0.48c0-0.32-0.05-0.56-0.16-0.71
		c-0.11-0.15-0.25-0.23-0.43-0.23c-0.16,0-0.3,0.09-0.41,0.26c-0.11,0.17-0.16,0.38-0.16,0.63c0,0.26,0.06,0.47,0.17,0.62
		C288.02,68.47,288.18,68.55,288.37,68.55z"/>
	<path class="st0" d="M292.95,69.05c-0.25,0.22-0.53,0.33-0.83,0.33c-0.45,0-0.81-0.15-1.07-0.46c-0.26-0.31-0.4-0.71-0.4-1.22
		c0-0.32,0.07-0.62,0.22-0.89s0.36-0.49,0.62-0.65c0.27-0.16,0.56-0.24,0.89-0.24c0.33,0,0.62,0.08,0.89,0.25s0.47,0.4,0.62,0.7
		s0.22,0.65,0.23,1.04v0.44c0,0.55-0.11,1.03-0.32,1.43c-0.22,0.4-0.52,0.71-0.92,0.93c-0.4,0.22-0.86,0.32-1.39,0.32h-0.07v-0.92
		l0.22,0C292.42,70.08,292.86,69.72,292.95,69.05z M292.42,68.55c0.25,0,0.43-0.11,0.54-0.32v-0.48c0-0.32-0.05-0.56-0.16-0.71
		c-0.11-0.15-0.25-0.23-0.43-0.23c-0.16,0-0.3,0.09-0.41,0.26c-0.11,0.17-0.16,0.38-0.16,0.63c0,0.26,0.06,0.47,0.17,0.62
		C292.08,68.47,292.23,68.55,292.42,68.55z"/>
	<path class="st0" d="M295.14,71.4h-0.82l1.7-5.4h0.82L295.14,71.4z"/>
	<path class="st0" d="M298.3,67.27l0.04,0.43c0.26-0.34,0.61-0.5,1.06-0.5c0.47,0,0.78,0.19,0.95,0.56
		c0.25-0.37,0.61-0.56,1.09-0.56c0.75,0,1.13,0.45,1.16,1.36v2.41h-1.16v-2.33c0-0.19-0.03-0.33-0.1-0.41s-0.18-0.13-0.35-0.13
		c-0.23,0-0.4,0.1-0.51,0.3l0,0.05v2.53h-1.16v-2.33c0-0.19-0.03-0.33-0.09-0.42c-0.06-0.09-0.18-0.13-0.35-0.13
		c-0.22,0-0.39,0.1-0.51,0.3v2.57h-1.15v-3.7H298.3z"/>
	<path class="st0" d="M303.09,69.09c0-0.37,0.07-0.7,0.21-0.99c0.14-0.29,0.35-0.51,0.62-0.67s0.58-0.23,0.95-0.23
		c0.55,0,0.99,0.17,1.31,0.51s0.48,0.81,0.48,1.4v0.04c0,0.58-0.16,1.03-0.48,1.37c-0.32,0.34-0.75,0.51-1.3,0.51
		c-0.53,0-0.95-0.16-1.27-0.47s-0.49-0.74-0.52-1.28L303.09,69.09z M304.24,69.16c0,0.34,0.05,0.59,0.16,0.75s0.27,0.24,0.47,0.24
		c0.41,0,0.62-0.32,0.63-0.95v-0.12c0-0.66-0.21-1-0.63-1c-0.39,0-0.59,0.29-0.63,0.86L304.24,69.16z"/>
	<path class="st0" d="M308.22,67.27l0.04,0.43c0.26-0.34,0.61-0.5,1.06-0.5c0.38,0,0.67,0.12,0.86,0.34
		c0.19,0.23,0.29,0.58,0.29,1.04v2.38h-1.15v-2.33c0-0.19-0.04-0.32-0.11-0.41s-0.21-0.13-0.41-0.13c-0.23,0-0.39,0.09-0.5,0.27
		v2.61h-1.15v-3.7H308.22z"/>
	<path class="st0" d="M312.45,66.35v0.92h0.61v0.8h-0.61v1.69c0,0.14,0.03,0.24,0.08,0.29c0.05,0.05,0.15,0.08,0.3,0.08
		c0.11,0,0.21-0.01,0.29-0.02v0.82c-0.21,0.07-0.42,0.1-0.65,0.1c-0.4,0-0.69-0.09-0.88-0.28c-0.19-0.19-0.28-0.47-0.28-0.85v-1.84
		h-0.47v-0.8h0.47v-0.92H312.45z"/>
	<path class="st0" d="M314.64,67.67c0.25-0.31,0.56-0.46,0.94-0.46c0.41,0,0.72,0.12,0.92,0.36s0.31,0.6,0.32,1.07v2.33h-1.15v-2.31
		c0-0.2-0.04-0.34-0.12-0.43c-0.08-0.09-0.22-0.14-0.41-0.14c-0.24,0-0.4,0.08-0.5,0.23v2.65h-1.15v-5.25h1.15V67.67z"/>
</g>
</svg>
