<?xml version="1.0" encoding="utf-8"?>
<!-- Generator: Adobe Illustrator 24.2.3, SVG Export Plug-In . SVG Version: 6.00 Build 0)  -->
<svg version="1.1" id="Layer_1" xmlns="http://www.w3.org/2000/svg" xmlns:xlink="http://www.w3.org/1999/xlink" x="0px" y="0px"
	 viewBox="0 0 970 250" style="enable-background:new 0 0 970 250;" xml:space="preserve">
<style type="text/css">
	.st0{fill:#FFFFFF;}
</style>
<g>
	<path class="st0" d="M301.73,53.38c-0.22,2.98-1.32,5.33-3.3,7.05c-1.99,1.71-4.61,2.57-7.86,2.57c-3.55,0-6.35-1.2-8.39-3.59
		c-2.04-2.39-3.06-5.68-3.06-9.85v-1.69c0-2.67,0.47-5.01,1.41-7.05s2.28-3.59,4.03-4.68c1.75-1.08,3.77-1.63,6.08-1.63
		c3.2,0,5.78,0.86,7.73,2.57c1.95,1.71,3.08,4.12,3.39,7.22h-5.71c-0.14-1.79-0.64-3.09-1.49-3.89c-0.86-0.81-2.16-1.21-3.91-1.21
		c-1.9,0-3.33,0.68-4.27,2.05c-0.95,1.37-1.43,3.48-1.46,6.35v2.09c0,3,0.45,5.19,1.36,6.57c0.91,1.38,2.34,2.08,4.29,2.08
		c1.76,0,3.08-0.4,3.95-1.21c0.87-0.81,1.37-2.05,1.5-3.74H301.73z"/>
	<path class="st0" d="M304.26,52.12c0-2.04,0.39-3.87,1.18-5.47s1.92-2.84,3.4-3.71c1.48-0.88,3.2-1.31,5.15-1.31
		c2.78,0,5.05,0.85,6.81,2.55c1.76,1.7,2.74,4.01,2.94,6.93l0.04,1.41c0,3.16-0.88,5.7-2.65,7.61c-1.76,1.91-4.13,2.87-7.1,2.87
		s-5.34-0.95-7.11-2.86c-1.77-1.9-2.66-4.49-2.66-7.77V52.12z M309.77,52.51c0,1.96,0.37,3.46,1.11,4.49
		c0.74,1.04,1.79,1.55,3.16,1.55c1.33,0,2.37-0.51,3.12-1.54c0.75-1.02,1.12-2.66,1.12-4.91c0-1.92-0.38-3.41-1.12-4.46
		s-1.8-1.58-3.16-1.58c-1.35,0-2.39,0.52-3.12,1.57C310.14,48.69,309.77,50.31,309.77,52.51z"/>
	<path class="st0" d="M332.24,42.01l0.17,2.38c1.47-1.84,3.45-2.76,5.92-2.76c2.18,0,3.81,0.64,4.88,1.92s1.61,3.2,1.64,5.75v13.31
		h-5.5V49.44c0-1.17-0.25-2.02-0.76-2.54s-1.35-0.79-2.53-0.79c-1.55,0-2.71,0.66-3.49,1.98v14.53h-5.5v-20.6H332.24z"/>
	<path class="st0" d="M360.18,56.92c0-0.67-0.33-1.2-1-1.59c-0.67-0.39-1.74-0.73-3.21-1.04c-4.9-1.03-7.35-3.11-7.35-6.25
		c0-1.83,0.76-3.35,2.28-4.58c1.52-1.23,3.5-1.84,5.95-1.84c2.62,0,4.71,0.62,6.27,1.85c1.57,1.23,2.35,2.83,2.35,4.8h-5.5
		c0-0.79-0.25-1.44-0.76-1.95c-0.51-0.51-1.3-0.77-2.38-0.77c-0.93,0-1.64,0.21-2.15,0.63s-0.76,0.95-0.76,1.6
		c0,0.61,0.29,1.1,0.87,1.48c0.58,0.37,1.55,0.7,2.92,0.97c1.37,0.27,2.53,0.58,3.47,0.92c2.91,1.07,4.36,2.91,4.36,5.54
		c0,1.88-0.81,3.4-2.42,4.56c-1.61,1.16-3.69,1.74-6.25,1.74c-1.73,0-3.26-0.31-4.6-0.92c-1.34-0.62-2.39-1.46-3.15-2.53
		s-1.14-2.23-1.14-3.48h5.22c0.05,0.98,0.41,1.73,1.08,2.25s1.57,0.78,2.71,0.78c1.05,0,1.85-0.2,2.39-0.6
		C359.9,58.09,360.18,57.57,360.18,56.92z"/>
	<path class="st0" d="M381.41,60.52c-1.36,1.65-3.24,2.48-5.64,2.48c-2.21,0-3.89-0.63-5.06-1.9c-1.16-1.27-1.75-3.13-1.78-5.58
		v-13.5h5.5v13.33c0,2.15,0.98,3.22,2.93,3.22c1.87,0,3.15-0.65,3.85-1.94v-14.6h5.52v20.6h-5.18L381.41,60.52z"/>
	<path class="st0" d="M396.05,42.01l0.17,2.3c1.46-1.79,3.43-2.69,5.92-2.69c2.65,0,4.48,1.05,5.47,3.14
		c1.45-2.09,3.51-3.14,6.19-3.14c2.23,0,3.9,0.65,4.99,1.95s1.64,3.26,1.64,5.87v13.16h-5.52V49.48c0-1.17-0.23-2.02-0.69-2.56
		c-0.46-0.54-1.26-0.81-2.42-0.81c-1.65,0-2.79,0.79-3.43,2.36l0.02,14.15h-5.5V49.49c0-1.19-0.24-2.06-0.71-2.59s-1.27-0.8-2.4-0.8
		c-1.56,0-2.69,0.65-3.39,1.94v14.57h-5.5v-20.6H396.05z"/>
	<path class="st0" d="M434.14,63c-3.02,0-5.48-0.93-7.38-2.78c-1.9-1.85-2.85-4.32-2.85-7.41v-0.53c0-2.07,0.4-3.92,1.2-5.55
		c0.8-1.63,1.93-2.89,3.4-3.77c1.47-0.88,3.14-1.32,5.02-1.32c2.82,0,5.04,0.89,6.66,2.67c1.62,1.78,2.43,4.3,2.43,7.56v2.25h-13.12
		c0.18,1.35,0.71,2.42,1.61,3.24c0.9,0.81,2.03,1.22,3.4,1.22c2.12,0,3.78-0.77,4.97-2.3l2.7,3.03c-0.83,1.17-1.94,2.08-3.35,2.73
		C437.41,62.67,435.85,63,434.14,63z M433.51,46.07c-1.09,0-1.98,0.37-2.66,1.11c-0.68,0.74-1.11,1.8-1.3,3.18h7.66v-0.44
		c-0.03-1.22-0.36-2.17-0.99-2.84S434.68,46.07,433.51,46.07z"/>
	<path class="st0" d="M457.31,47.17c-0.75-0.1-1.41-0.15-1.98-0.15c-2.08,0-3.45,0.7-4.09,2.11v13.48h-5.5v-20.6h5.2l0.15,2.46
		c1.1-1.89,2.63-2.84,4.59-2.84c0.61,0,1.18,0.08,1.71,0.25L457.31,47.17z"/>
	<path class="st0" d="M471.12,56.92c0-0.67-0.33-1.2-1-1.59c-0.67-0.39-1.74-0.73-3.21-1.04c-4.9-1.03-7.35-3.11-7.35-6.25
		c0-1.83,0.76-3.35,2.28-4.58c1.52-1.23,3.5-1.84,5.95-1.84c2.62,0,4.71,0.62,6.27,1.85c1.57,1.23,2.35,2.83,2.35,4.8h-5.5
		c0-0.79-0.25-1.44-0.76-1.95c-0.51-0.51-1.3-0.77-2.38-0.77c-0.93,0-1.64,0.21-2.15,0.63s-0.76,0.95-0.76,1.6
		c0,0.61,0.29,1.1,0.87,1.48c0.58,0.37,1.55,0.7,2.92,0.97c1.37,0.27,2.53,0.58,3.47,0.92c2.91,1.07,4.36,2.91,4.36,5.54
		c0,1.88-0.81,3.4-2.42,4.56c-1.61,1.16-3.69,1.74-6.25,1.74c-1.73,0-3.26-0.31-4.6-0.92c-1.34-0.62-2.39-1.46-3.15-2.53
		s-1.14-2.23-1.14-3.48h5.22c0.05,0.98,0.41,1.73,1.08,2.25s1.57,0.78,2.71,0.78c1.05,0,1.85-0.2,2.39-0.6
		C470.85,58.09,471.12,57.57,471.12,56.92z"/>
	<path class="st0" d="M491.23,62.62V46.05h-3.07v-4.04h3.07v-1.75c0-2.31,0.66-4.1,1.99-5.38c1.33-1.28,3.18-1.91,5.57-1.91
		c0.76,0,1.7,0.13,2.8,0.38l-0.06,4.27c-0.46-0.11-1.02-0.17-1.68-0.17c-2.07,0-3.1,0.97-3.1,2.91v1.66h4.09v4.04h-4.09v16.57
		H491.23z"/>
	<path class="st0" d="M515.64,62.62c-0.25-0.5-0.44-1.11-0.55-1.85c-1.33,1.49-3.07,2.23-5.2,2.23c-2.02,0-3.69-0.58-5.02-1.75
		c-1.33-1.17-1.99-2.64-1.99-4.42c0-2.18,0.81-3.86,2.43-5.03s3.96-1.76,7.02-1.77h2.53v-1.18c0-0.95-0.25-1.71-0.73-2.29
		s-1.26-0.86-2.31-0.86c-0.93,0-1.65,0.22-2.18,0.67s-0.79,1.05-0.79,1.83h-5.5c0-1.19,0.37-2.3,1.1-3.31s1.78-1.81,3.12-2.39
		c1.35-0.58,2.86-0.87,4.53-0.87c2.54,0,4.55,0.64,6.04,1.91c1.49,1.28,2.24,3.07,2.24,5.38v8.93c0.01,1.96,0.29,3.43,0.82,4.44
		v0.32H515.64z M511.09,58.79c0.81,0,1.56-0.18,2.25-0.54c0.69-0.36,1.19-0.85,1.52-1.46v-3.54h-2.06c-2.76,0-4.22,0.95-4.4,2.86
		l-0.02,0.32c0,0.69,0.24,1.25,0.72,1.69S510.25,58.79,511.09,58.79z"/>
	<path class="st0" d="M533.18,58.56c1.02,0,1.84-0.28,2.47-0.84s0.96-1.3,0.99-2.23h5.16c-0.01,1.4-0.39,2.68-1.14,3.84
		c-0.75,1.16-1.78,2.06-3.08,2.7c-1.3,0.64-2.74,0.96-4.31,0.96c-2.95,0-5.27-0.94-6.97-2.81s-2.55-4.46-2.55-7.76v-0.36
		c0-3.17,0.84-5.71,2.53-7.6c1.69-1.89,4.01-2.84,6.95-2.84c2.58,0,4.64,0.73,6.2,2.2c1.55,1.47,2.35,3.42,2.37,5.86h-5.16
		c-0.03-1.07-0.36-1.94-0.99-2.61c-0.63-0.67-1.47-1-2.51-1c-1.28,0-2.25,0.47-2.9,1.4c-0.65,0.93-0.98,2.45-0.98,4.55v0.57
		c0,2.12,0.32,3.65,0.97,4.58C530.88,58.1,531.86,58.56,533.18,58.56z"/>
	<path class="st0" d="M554.43,63c-3.02,0-5.48-0.93-7.38-2.78s-2.85-4.32-2.85-7.41v-0.53c0-2.07,0.4-3.92,1.2-5.55
		c0.8-1.63,1.93-2.89,3.4-3.77c1.47-0.88,3.14-1.32,5.02-1.32c2.82,0,5.04,0.89,6.66,2.67c1.62,1.78,2.43,4.3,2.43,7.56v2.25h-13.12
		c0.18,1.35,0.71,2.42,1.61,3.24s2.03,1.22,3.4,1.22c2.12,0,3.78-0.77,4.97-2.3l2.7,3.03c-0.82,1.17-1.94,2.08-3.35,2.73
		C557.71,62.67,556.14,63,554.43,63z M553.8,46.07c-1.09,0-1.98,0.37-2.66,1.11s-1.11,1.8-1.3,3.18h7.66v-0.44
		c-0.03-1.22-0.36-2.17-0.99-2.84S554.97,46.07,553.8,46.07z"/>
	<path class="st0" d="M565.17,52.16c0-3.21,0.72-5.77,2.16-7.67s3.41-2.86,5.91-2.86c2.01,0,3.66,0.75,4.97,2.25V33.37h5.52v29.25
		h-4.97l-0.27-2.19c-1.37,1.71-3.13,2.57-5.29,2.57c-2.43,0-4.37-0.96-5.84-2.87C565.91,58.22,565.17,55.56,565.17,52.16z
		 M570.68,52.57c0,1.93,0.34,3.41,1.01,4.44c0.67,1.03,1.65,1.54,2.93,1.54c1.7,0,2.9-0.72,3.6-2.16v-8.14
		c-0.69-1.44-1.87-2.16-3.56-2.16C572,46.1,570.68,48.26,570.68,52.57z"/>
	<path class="st0" d="M321.16,114.2c0-1.31-0.32-2.34-0.97-3.09c-0.65-0.75-1.79-1.45-3.41-2.12c-1.63-0.66-3.13-1.34-4.51-2.02
		c-1.38-0.68-2.56-1.47-3.56-2.37s-1.76-1.93-2.29-3.11c-0.53-1.18-0.8-2.61-0.8-4.28c0-2.81,0.95-5.12,2.84-6.94
		c1.89-1.82,4.42-2.88,7.57-3.17v-5.25h3.96v5.35c3.04,0.45,5.42,1.7,7.16,3.75c1.73,2.05,2.6,4.65,2.6,7.81h-8.42
		c0-1.73-0.33-3.05-1-3.98c-0.66-0.93-1.61-1.39-2.84-1.39c-1.1,0-1.95,0.34-2.55,1.03c-0.61,0.69-0.91,1.64-0.91,2.85
		c0,1.23,0.35,2.2,1.05,2.93c0.7,0.72,1.82,1.41,3.36,2.07c1.54,0.66,3,1.34,4.37,2.04c1.37,0.71,2.55,1.51,3.55,2.4
		s1.78,1.94,2.34,3.14s0.85,2.63,0.85,4.31c0,2.84-0.9,5.15-2.7,6.95c-1.8,1.79-4.25,2.84-7.36,3.14v5.01h-3.96v-5.03
		c-3.62-0.38-6.4-1.62-8.33-3.72s-2.9-4.87-2.9-8.31h8.39c0,1.89,0.42,3.33,1.26,4.32c0.84,0.99,2.03,1.48,3.57,1.48
		c1.13,0,2.02-0.34,2.67-1.01C320.84,116.31,321.16,115.38,321.16,114.2z"/>
	<path class="st0" d="M341.66,102.18h3.96c3.14,0,4.71-1.54,4.71-4.61c0-1.2-0.37-2.17-1.12-2.93s-1.8-1.13-3.16-1.13
		c-1.11,0-2.08,0.32-2.9,0.97c-0.82,0.65-1.23,1.45-1.23,2.42h-8.39c0-1.91,0.53-3.61,1.59-5.1s2.54-2.66,4.42-3.5
		c1.88-0.84,3.96-1.26,6.21-1.26c4.03,0,7.2,0.92,9.51,2.76s3.46,4.37,3.46,7.6c0,1.56-0.48,3.03-1.43,4.42
		c-0.96,1.39-2.35,2.51-4.17,3.37c1.92,0.7,3.44,1.76,4.53,3.17c1.1,1.42,1.64,3.18,1.64,5.27c0,3.24-1.25,5.83-3.74,7.77
		s-5.76,2.91-9.81,2.91c-2.38,0-4.58-0.45-6.61-1.36c-2.03-0.9-3.57-2.16-4.62-3.76s-1.57-3.42-1.57-5.47h8.44
		c0,1.11,0.45,2.08,1.34,2.89c0.9,0.81,2,1.22,3.31,1.22c1.48,0,2.66-0.41,3.54-1.23c0.88-0.82,1.32-1.87,1.32-3.15
		c0-1.83-0.46-3.12-1.37-3.88c-0.91-0.76-2.18-1.15-3.79-1.15h-4.08V102.18z"/>
	<path class="st0" d="M368.85,115.67c1.33,0,2.43,0.39,3.31,1.18s1.32,1.8,1.32,3.03c0,1.23-0.44,2.24-1.32,3.03
		c-0.88,0.79-1.98,1.18-3.31,1.18c-1.34,0-2.45-0.4-3.32-1.2c-0.87-0.8-1.31-1.8-1.31-3.01c0-1.21,0.44-2.22,1.31-3.01
		C366.4,116.07,367.51,115.67,368.85,115.67z"/>
	<path class="st0" d="M379.43,106.1l2.22-18.55h21.19v6.52h-14.37l-0.82,7.2c0.6-0.35,1.38-0.66,2.35-0.93
		c0.97-0.27,1.92-0.4,2.85-0.4c3.6,0,6.37,1.07,8.3,3.2s2.9,5.13,2.9,8.98c0,2.32-0.52,4.43-1.56,6.31s-2.49,3.33-4.37,4.35
		c-1.88,1.01-4.09,1.52-6.65,1.52c-2.28,0-4.41-0.47-6.4-1.41s-3.55-2.22-4.68-3.86c-1.13-1.63-1.69-3.48-1.67-5.54h8.42
		c0.08,1.33,0.51,2.38,1.27,3.16s1.77,1.17,3.01,1.17c2.82,0,4.23-2.09,4.23-6.26c0-3.86-1.73-5.79-5.18-5.79
		c-1.96,0-3.42,0.63-4.38,1.89L379.43,106.1z"/>
	<path class="st0" d="M446.32,110.57c0,4.42-0.91,7.81-2.74,10.19c-1.83,2.37-4.4,3.56-7.72,3.56c-2.74,0-4.95-1.09-6.62-3.26
		l-0.35,2.76h-7.52V85.57h8.39v13.47c1.56-1.78,3.58-2.66,6.05-2.66c3.35,0,5.94,1.2,7.77,3.61c1.83,2.41,2.74,5.79,2.74,10.16
		V110.57z M437.9,110.03c0-2.58-0.35-4.43-1.03-5.53s-1.75-1.65-3.17-1.65c-1.89,0-3.2,0.72-3.93,2.16v10.69
		c0.71,1.43,2.04,2.14,3.98,2.14c1.98,0,3.23-0.96,3.76-2.88C437.77,114.01,437.9,112.37,437.9,110.03z"/>
	<path class="st0" d="M449.96,89.92c0-1.2,0.43-2.17,1.29-2.94c0.86-0.76,1.98-1.15,3.36-1.15s2.5,0.38,3.36,1.15
		c0.86,0.76,1.29,1.74,1.29,2.94s-0.43,2.18-1.29,2.94c-0.86,0.76-1.98,1.15-3.36,1.15s-2.5-0.38-3.36-1.15
		C450.39,92.1,449.96,91.12,449.96,89.92z M458.87,123.82h-8.42V96.87h8.42V123.82z"/>
	<path class="st0" d="M472.89,123.82h-8.42V85.57h8.42V123.82z"/>
	<path class="st0" d="M486.91,123.82h-8.42V85.57h8.42V123.82z"/>
	<path class="st0" d="M492.02,89.92c0-1.2,0.43-2.17,1.29-2.94c0.86-0.76,1.98-1.15,3.36-1.15c1.38,0,2.5,0.38,3.36,1.15
		c0.86,0.76,1.29,1.74,1.29,2.94s-0.43,2.18-1.29,2.94c-0.86,0.76-1.98,1.15-3.36,1.15c-1.38,0-2.5-0.38-3.36-1.15
		C492.45,92.1,492.02,91.12,492.02,89.92z M500.93,123.82h-8.42V96.87h8.42V123.82z"/>
	<path class="st0" d="M505.04,110.09c0-2.69,0.52-5.08,1.57-7.18c1.05-2.1,2.55-3.71,4.51-4.84c1.96-1.13,4.26-1.69,6.9-1.69
		c4.03,0,7.21,1.25,9.54,3.75s3.49,5.9,3.49,10.2v0.3c0,4.2-1.17,7.53-3.5,10c-2.33,2.47-5.49,3.7-9.47,3.7
		c-3.83,0-6.91-1.15-9.24-3.45c-2.32-2.3-3.58-5.42-3.76-9.35L505.04,110.09z M513.43,110.62c0,2.49,0.39,4.32,1.17,5.48
		c0.78,1.16,1.93,1.74,3.46,1.74c2.99,0,4.52-2.3,4.58-6.9v-0.85c0-4.83-1.54-7.25-4.63-7.25c-2.81,0-4.33,2.08-4.56,6.25
		L513.43,110.62z"/>
	<path class="st0" d="M542.44,96.87l0.27,3.16c1.86-2.44,4.43-3.66,7.7-3.66c2.81,0,4.9,0.84,6.29,2.52c1.38,1.68,2.1,4.2,2.15,7.57
		v17.36h-8.42v-17.01c0-1.36-0.27-2.36-0.82-3c-0.55-0.64-1.54-0.96-2.99-0.96c-1.64,0-2.86,0.65-3.66,1.94v19.03h-8.39V96.87
		H542.44z"/>
	<path class="st0" d="M309.42,145.72c0-0.72,0.24-1.31,0.72-1.78c0.48-0.46,1.14-0.7,1.97-0.7c0.82,0,1.47,0.23,1.96,0.7
		s0.73,1.06,0.73,1.78c0,0.73-0.25,1.33-0.74,1.79c-0.49,0.46-1.14,0.7-1.95,0.7s-1.46-0.23-1.95-0.7
		C309.67,147.05,309.42,146.45,309.42,145.72z M314.52,168.33h-4.81v-17.96h4.81V168.33z"/>
	<path class="st0" d="M322.88,150.37l0.15,2.07c1.28-1.6,3-2.41,5.16-2.41c1.9,0,3.32,0.56,4.25,1.68c0.93,1.12,1.41,2.79,1.43,5.01
		v11.61h-4.8v-11.49c0-1.02-0.22-1.76-0.66-2.22s-1.18-0.69-2.21-0.69c-1.35,0-2.36,0.58-3.04,1.73v12.67h-4.8v-17.96H322.88z"/>
	<path class="st0" d="M345.23,159.18c0-1.78,0.34-3.37,1.03-4.76s1.67-2.47,2.96-3.24c1.29-0.76,2.79-1.14,4.49-1.14
		c2.42,0,4.4,0.74,5.93,2.22c1.53,1.48,2.39,3.5,2.57,6.04l0.03,1.23c0,2.76-0.77,4.97-2.31,6.63c-1.54,1.67-3.6,2.5-6.19,2.5
		s-4.66-0.83-6.2-2.49c-1.54-1.66-2.32-3.92-2.32-6.77V159.18z M350.03,159.53c0,1.71,0.32,3.01,0.96,3.92s1.56,1.35,2.76,1.35
		c1.16,0,2.07-0.45,2.72-1.34s0.98-2.32,0.98-4.28c0-1.67-0.33-2.97-0.98-3.89s-1.57-1.38-2.76-1.38c-1.17,0-2.08,0.46-2.72,1.37
		C350.35,156.19,350.03,157.61,350.03,159.53z"/>
	<path class="st0" d="M375.96,166.51c-1.18,1.44-2.82,2.16-4.91,2.16c-1.93,0-3.4-0.55-4.41-1.66c-1.01-1.11-1.53-2.73-1.55-4.87
		v-11.77h4.8v11.62c0,1.87,0.85,2.81,2.56,2.81c1.63,0,2.75-0.56,3.35-1.7v-12.73h4.81v17.96h-4.52L375.96,166.51z"/>
	<path class="st0" d="M389.97,145.95v4.42h3.07v3.52h-3.07v8.96c0,0.66,0.13,1.14,0.38,1.43c0.25,0.29,0.74,0.43,1.46,0.43
		c0.53,0,1-0.04,1.41-0.12v3.64c-0.94,0.29-1.91,0.43-2.91,0.43c-3.36,0-5.08-1.7-5.15-5.1v-9.68h-2.62v-3.52h2.62v-4.42H389.97z"/>
	<path class="st0" d="M405.05,159.91h-9.35v-3.87h9.35V159.91z"/>
	<path class="st0" d="M408.15,159.18c0-1.78,0.34-3.37,1.03-4.76s1.67-2.47,2.96-3.24c1.29-0.76,2.79-1.14,4.49-1.14
		c2.42,0,4.4,0.74,5.93,2.22c1.53,1.48,2.39,3.5,2.57,6.04l0.03,1.23c0,2.76-0.77,4.97-2.31,6.63c-1.54,1.67-3.6,2.5-6.19,2.5
		s-4.66-0.83-6.2-2.49c-1.54-1.66-2.32-3.92-2.32-6.77V159.18z M412.95,159.53c0,1.71,0.32,3.01,0.96,3.92s1.56,1.35,2.76,1.35
		c1.16,0,2.07-0.45,2.72-1.34s0.98-2.32,0.98-4.28c0-1.67-0.33-2.97-0.98-3.89s-1.57-1.38-2.76-1.38c-1.17,0-2.08,0.46-2.72,1.37
		C413.27,156.19,412.95,157.61,412.95,159.53z"/>
	<path class="st0" d="M429.43,168.33v-14.44h-2.67v-3.52h2.67v-1.53c0-2.01,0.58-3.58,1.73-4.69c1.16-1.11,2.78-1.67,4.86-1.67
		c0.66,0,1.48,0.11,2.44,0.33l-0.05,3.72c-0.4-0.1-0.89-0.15-1.46-0.15c-1.8,0-2.71,0.85-2.71,2.54v1.45h3.57v3.52h-3.57v14.44
		H429.43z"/>
	<path class="st0" d="M449.64,159.91h-9.35v-3.87h9.35V159.91z"/>
	<path class="st0" d="M469.66,159.52c0,2.77-0.63,4.98-1.88,6.65c-1.26,1.67-2.95,2.5-5.09,2.5c-1.82,0-3.28-0.63-4.4-1.89v8.47
		h-4.8v-24.87h4.45l0.17,1.76c1.16-1.39,2.68-2.09,4.55-2.09c2.21,0,3.93,0.82,5.16,2.46c1.23,1.64,1.84,3.9,1.84,6.77V159.52z
		 M464.86,159.17c0-1.67-0.3-2.96-0.89-3.87c-0.59-0.91-1.45-1.36-2.58-1.36c-1.5,0-2.54,0.58-3.1,1.73v7.36
		c0.59,1.18,1.63,1.78,3.14,1.78C463.72,164.79,464.86,162.92,464.86,159.17z"/>
	<path class="st0" d="M471.88,159.18c0-1.78,0.34-3.37,1.03-4.76s1.67-2.47,2.96-3.24c1.29-0.76,2.79-1.14,4.49-1.14
		c2.42,0,4.4,0.74,5.93,2.22c1.53,1.48,2.39,3.5,2.57,6.04l0.03,1.23c0,2.76-0.77,4.97-2.31,6.63c-1.54,1.67-3.6,2.5-6.19,2.5
		s-4.66-0.83-6.2-2.49c-1.54-1.66-2.32-3.92-2.32-6.77V159.18z M476.68,159.53c0,1.71,0.32,3.01,0.96,3.92s1.56,1.35,2.76,1.35
		c1.16,0,2.07-0.45,2.72-1.34s0.98-2.32,0.98-4.28c0-1.67-0.33-2.97-0.98-3.89s-1.57-1.38-2.76-1.38c-1.17,0-2.08,0.46-2.72,1.37
		C477,156.19,476.68,157.61,476.68,159.53z"/>
	<path class="st0" d="M499.33,164.79c0.88,0,1.6-0.24,2.16-0.73c0.55-0.49,0.84-1.13,0.86-1.94h4.5c-0.01,1.22-0.34,2.33-1,3.34
		c-0.65,1.01-1.55,1.8-2.68,2.36c-1.13,0.56-2.39,0.84-3.76,0.84c-2.57,0-4.59-0.82-6.08-2.45c-1.48-1.63-2.22-3.89-2.22-6.77v-0.31
		c0-2.77,0.74-4.97,2.21-6.62c1.47-1.65,3.49-2.47,6.06-2.47c2.25,0,4.05,0.64,5.4,1.92s2.04,2.98,2.07,5.1h-4.5
		c-0.02-0.93-0.31-1.69-0.86-2.28c-0.55-0.58-1.29-0.88-2.19-0.88c-1.12,0-1.96,0.41-2.53,1.22c-0.57,0.81-0.85,2.14-0.85,3.96v0.5
		c0,1.85,0.28,3.18,0.85,3.99C497.32,164.39,498.17,164.79,499.33,164.79z"/>
	<path class="st0" d="M516.11,161.13l-1.73,1.73v5.48h-4.8v-25.5h4.8v14.13l0.93-1.2l4.6-5.39h5.76l-6.49,7.49l7.05,10.48h-5.51
		L516.11,161.13z"/>
	<path class="st0" d="M536.02,168.66c-2.63,0-4.78-0.81-6.43-2.42c-1.65-1.62-2.48-3.77-2.48-6.46v-0.46c0-1.8,0.35-3.42,1.05-4.84
		c0.7-1.42,1.68-2.52,2.96-3.29c1.28-0.77,2.74-1.15,4.38-1.15c2.46,0,4.39,0.77,5.8,2.32c1.41,1.55,2.12,3.75,2.12,6.59v1.96
		h-11.44c0.15,1.17,0.62,2.12,1.4,2.82c0.78,0.71,1.77,1.06,2.96,1.06c1.85,0,3.29-0.67,4.33-2.01l2.36,2.64
		c-0.72,1.02-1.69,1.81-2.92,2.38S537.51,168.66,536.02,168.66z M535.47,153.9c-0.95,0-1.72,0.32-2.32,0.97
		c-0.59,0.65-0.97,1.57-1.14,2.77h6.67v-0.38c-0.02-1.07-0.31-1.89-0.86-2.48C537.27,154.2,536.49,153.9,535.47,153.9z"/>
	<path class="st0" d="M551.87,145.95v4.42h3.07v3.52h-3.07v8.96c0,0.66,0.13,1.14,0.38,1.43c0.25,0.29,0.74,0.43,1.46,0.43
		c0.53,0,1-0.04,1.41-0.12v3.64c-0.94,0.29-1.91,0.43-2.9,0.43c-3.37,0-5.08-1.7-5.15-5.1v-9.68h-2.62v-3.52h2.62v-4.42H551.87z"/>
	<path class="st0" d="M330.78,215.13v-16.57h-3.07v-4.04h3.07v-1.75c0-2.31,0.66-4.1,1.99-5.38c1.33-1.28,3.18-1.91,5.57-1.91
		c0.76,0,1.7,0.13,2.8,0.38l-0.06,4.27c-0.46-0.12-1.02-0.17-1.68-0.17c-2.07,0-3.1,0.97-3.1,2.91v1.66h4.09v4.04h-4.09v16.57
		H330.78z"/>
	<path class="st0" d="M354.83,199.69c-0.75-0.1-1.41-0.15-1.98-0.15c-2.08,0-3.45,0.71-4.09,2.11v13.48h-5.5v-20.6h5.2l0.15,2.46
		c1.1-1.89,2.63-2.84,4.59-2.84c0.61,0,1.18,0.08,1.71,0.25L354.83,199.69z"/>
	<path class="st0" d="M368.85,215.13c-0.25-0.5-0.44-1.11-0.55-1.85c-1.33,1.48-3.07,2.23-5.2,2.23c-2.02,0-3.69-0.58-5.02-1.75
		c-1.33-1.17-1.99-2.64-1.99-4.42c0-2.18,0.81-3.86,2.43-5.03c1.62-1.17,3.96-1.76,7.02-1.77h2.53v-1.18c0-0.95-0.25-1.71-0.73-2.29
		c-0.49-0.57-1.26-0.86-2.31-0.86c-0.93,0-1.65,0.22-2.18,0.67c-0.53,0.44-0.79,1.05-0.79,1.83h-5.5c0-1.19,0.37-2.3,1.1-3.31
		s1.78-1.81,3.12-2.39c1.35-0.58,2.86-0.87,4.53-0.87c2.54,0,4.55,0.64,6.05,1.91c1.49,1.28,2.24,3.07,2.24,5.38v8.93
		c0.01,1.96,0.29,3.43,0.82,4.44v0.32H368.85z M364.3,211.3c0.81,0,1.56-0.18,2.25-0.54c0.69-0.36,1.19-0.85,1.52-1.46v-3.54h-2.06
		c-2.76,0-4.22,0.95-4.4,2.86l-0.02,0.32c0,0.69,0.24,1.25,0.72,1.69S363.46,211.3,364.3,211.3z"/>
	<path class="st0" d="M390.16,213.04c-1.36,1.65-3.24,2.48-5.64,2.48c-2.21,0-3.89-0.63-5.06-1.9c-1.16-1.27-1.75-3.13-1.78-5.58
		v-13.5h5.5v13.33c0,2.15,0.98,3.22,2.93,3.22c1.87,0,3.15-0.65,3.85-1.95v-14.6h5.52v20.6h-5.18L390.16,213.04z"/>
	<path class="st0" d="M398.78,204.68c0-3.21,0.72-5.77,2.16-7.67c1.44-1.9,3.41-2.86,5.91-2.86c2.01,0,3.66,0.75,4.97,2.25v-10.51
		h5.52v29.25h-4.97l-0.27-2.19c-1.37,1.71-3.14,2.57-5.29,2.57c-2.42,0-4.37-0.96-5.84-2.87
		C399.52,210.74,398.78,208.08,398.78,204.68z M404.29,205.09c0,1.93,0.34,3.41,1.01,4.44c0.67,1.03,1.65,1.54,2.93,1.54
		c1.7,0,2.9-0.72,3.6-2.16v-8.14c-0.69-1.44-1.87-2.16-3.56-2.16C405.61,198.62,404.29,200.78,404.29,205.09z"/>
	<path class="st0" d="M439.9,211.08c1.01,0,1.84-0.28,2.47-0.84s0.96-1.3,0.99-2.23h5.16c-0.01,1.4-0.39,2.68-1.14,3.84
		c-0.75,1.16-1.77,2.06-3.08,2.7c-1.3,0.64-2.74,0.96-4.31,0.96c-2.95,0-5.27-0.94-6.97-2.81s-2.55-4.46-2.55-7.76v-0.36
		c0-3.17,0.84-5.71,2.53-7.6c1.69-1.89,4.01-2.84,6.95-2.84c2.58,0,4.64,0.73,6.2,2.2c1.56,1.47,2.35,3.42,2.37,5.86h-5.16
		c-0.03-1.07-0.36-1.94-0.99-2.61c-0.63-0.67-1.47-1-2.51-1c-1.28,0-2.25,0.47-2.9,1.4c-0.65,0.93-0.98,2.45-0.98,4.55v0.57
		c0,2.12,0.32,3.65,0.97,4.58S438.58,211.08,439.9,211.08z"/>
	<path class="st0" d="M450.81,204.64c0-2.04,0.39-3.87,1.18-5.46s1.92-2.84,3.4-3.71c1.48-0.88,3.2-1.31,5.15-1.31
		c2.78,0,5.05,0.85,6.81,2.55c1.76,1.7,2.74,4.01,2.94,6.93l0.04,1.41c0,3.16-0.88,5.7-2.65,7.61c-1.76,1.91-4.13,2.87-7.1,2.87
		s-5.34-0.95-7.11-2.86c-1.77-1.9-2.66-4.49-2.66-7.77V204.64z M456.31,205.03c0,1.96,0.37,3.46,1.11,4.49
		c0.74,1.04,1.79,1.55,3.16,1.55c1.33,0,2.37-0.51,3.12-1.54c0.75-1.02,1.12-2.66,1.12-4.91c0-1.92-0.38-3.41-1.12-4.46
		c-0.75-1.05-1.8-1.58-3.16-1.58c-1.35,0-2.39,0.52-3.12,1.57C456.68,201.21,456.31,202.83,456.31,205.03z"/>
	<path class="st0" d="M484.88,209.44c0-0.67-0.33-1.2-1-1.59c-0.67-0.39-1.74-0.73-3.21-1.04c-4.9-1.03-7.35-3.11-7.35-6.25
		c0-1.83,0.76-3.36,2.28-4.58c1.52-1.22,3.5-1.84,5.95-1.84c2.62,0,4.71,0.62,6.27,1.85c1.57,1.23,2.35,2.83,2.35,4.8h-5.5
		c0-0.79-0.25-1.44-0.76-1.95c-0.51-0.51-1.3-0.77-2.38-0.77c-0.93,0-1.64,0.21-2.15,0.63c-0.51,0.42-0.76,0.95-0.76,1.6
		c0,0.61,0.29,1.1,0.87,1.48c0.58,0.38,1.55,0.7,2.92,0.97c1.37,0.27,2.53,0.58,3.47,0.92c2.91,1.07,4.36,2.91,4.36,5.54
		c0,1.88-0.81,3.4-2.42,4.56c-1.61,1.16-3.69,1.74-6.25,1.74c-1.73,0-3.26-0.31-4.6-0.92c-1.34-0.62-2.39-1.46-3.15-2.53
		s-1.14-2.23-1.14-3.48h5.22c0.05,0.98,0.41,1.73,1.08,2.25s1.57,0.78,2.71,0.78c1.05,0,1.85-0.2,2.39-0.6
		C484.61,210.61,484.88,210.09,484.88,209.44z"/>
	<path class="st0" d="M500.36,189.46v5.07h3.52v4.04h-3.52v10.28c0,0.76,0.15,1.31,0.44,1.64c0.29,0.33,0.85,0.5,1.68,0.5
		c0.61,0,1.15-0.04,1.62-0.13v4.17c-1.08,0.33-2.19,0.5-3.33,0.5c-3.86,0-5.83-1.95-5.9-5.85v-11.1h-3.01v-4.04h3.01v-5.07H500.36z"
		/>
	<path class="st0" d="M518.11,209.44c0-0.67-0.33-1.2-1-1.59c-0.67-0.39-1.74-0.73-3.21-1.04c-4.9-1.03-7.35-3.11-7.35-6.25
		c0-1.83,0.76-3.36,2.28-4.58s3.5-1.84,5.95-1.84c2.62,0,4.71,0.62,6.27,1.85c1.57,1.23,2.35,2.83,2.35,4.8h-5.5
		c0-0.79-0.25-1.44-0.76-1.95c-0.51-0.51-1.3-0.77-2.38-0.77c-0.93,0-1.64,0.21-2.15,0.63c-0.51,0.42-0.76,0.95-0.76,1.6
		c0,0.61,0.29,1.1,0.87,1.48s1.55,0.7,2.92,0.97c1.37,0.27,2.53,0.58,3.47,0.92c2.91,1.07,4.36,2.91,4.36,5.54
		c0,1.88-0.81,3.4-2.42,4.56c-1.61,1.16-3.69,1.74-6.25,1.74c-1.73,0-3.26-0.31-4.6-0.92c-1.34-0.62-2.39-1.46-3.15-2.53
		s-1.14-2.23-1.14-3.48h5.22c0.05,0.98,0.41,1.73,1.08,2.25c0.67,0.52,1.57,0.78,2.71,0.78c1.05,0,1.85-0.2,2.39-0.6
		C517.84,210.61,518.11,210.09,518.11,209.44z"/>
	<path class="st0" d="M527.29,212.43c0-0.88,0.29-1.59,0.88-2.13s1.33-0.82,2.22-0.82c0.9,0,1.65,0.27,2.24,0.82
		c0.59,0.55,0.88,1.26,0.88,2.13c0,0.86-0.29,1.56-0.88,2.1s-1.33,0.81-2.25,0.81c-0.9,0-1.64-0.27-2.23-0.81
		S527.29,213.29,527.29,212.43z"/>
</g>
<g>
	<path class="st0" d="M539.73,190.89l-3.68-1.04l0.69-2.12l3.64,1.46l-0.23-4.09h2.3l-0.23,4.17l3.55-1.44l0.69,2.14l-3.75,1.04
		l2.46,3.12l-1.86,1.32l-2.13-3.42l-2.11,3.3l-1.86-1.27L539.73,190.89z"/>
</g>
</svg>
