<?xml version="1.0" encoding="utf-8"?>
<!-- Generator: Adobe Illustrator 24.2.3, SVG Export Plug-In . SVG Version: 6.00 Build 0)  -->
<svg version="1.1" id="Layer_1" xmlns="http://www.w3.org/2000/svg" xmlns:xlink="http://www.w3.org/1999/xlink" x="0px" y="0px"
	 viewBox="0 0 970 250" style="enable-background:new 0 0 970 250;" xml:space="preserve">
<style type="text/css">
	.st0{fill:#FFFFFF;}
</style>
<g>
	<path class="st0" d="M351.11,58.1v8.42h-4.92V42.63h9.32c1.79,0,3.37,0.33,4.73,0.98c1.36,0.66,2.41,1.59,3.14,2.8
		c0.73,1.21,1.1,2.58,1.1,4.13c0,2.34-0.8,4.19-2.4,5.54c-1.6,1.35-3.82,2.03-6.65,2.03H351.11z M351.11,54.12h4.4
		c1.3,0,2.29-0.31,2.98-0.92c0.68-0.61,1.03-1.49,1.03-2.62c0-1.17-0.34-2.12-1.03-2.84c-0.69-0.72-1.64-1.09-2.85-1.12h-4.51V54.12
		z"/>
	<path class="st0" d="M377.53,53.22c-0.65-0.09-1.21-0.13-1.71-0.13c-1.79,0-2.97,0.61-3.53,1.82v11.62h-4.74V48.77h4.48l0.13,2.12
		c0.95-1.63,2.27-2.44,3.95-2.44c0.53,0,1.02,0.07,1.48,0.21L377.53,53.22z"/>
	<path class="st0" d="M379.77,44.18c0-0.71,0.24-1.3,0.71-1.76c0.48-0.46,1.12-0.69,1.94-0.69c0.81,0,1.45,0.23,1.94,0.69
		c0.48,0.46,0.72,1.04,0.72,1.76c0,0.72-0.24,1.31-0.73,1.77c-0.49,0.46-1.13,0.69-1.93,0.69c-0.8,0-1.44-0.23-1.93-0.69
		C380.02,45.49,379.77,44.9,379.77,44.18z M384.81,66.52h-4.76V48.77h4.76V66.52z"/>
	<path class="st0" d="M395.36,60.73l3.3-11.96h4.95l-5.99,17.75h-4.53l-5.99-17.75h4.96L395.36,60.73z"/>
	<path class="st0" d="M415.74,66.52c-0.22-0.43-0.38-0.96-0.48-1.59c-1.15,1.28-2.64,1.92-4.48,1.92c-1.74,0-3.18-0.5-4.32-1.51
		s-1.71-2.27-1.71-3.81c0-1.88,0.7-3.33,2.09-4.33c1.39-1.01,3.41-1.51,6.05-1.53h2.18v-1.02c0-0.82-0.21-1.48-0.63-1.97
		s-1.09-0.74-1.99-0.74c-0.8,0-1.42,0.19-1.88,0.57c-0.45,0.38-0.68,0.91-0.68,1.58h-4.74c0-1.03,0.32-1.98,0.95-2.85
		c0.63-0.87,1.53-1.56,2.69-2.06s2.46-0.75,3.91-0.75c2.19,0,3.92,0.55,5.21,1.65c1.29,1.1,1.93,2.64,1.93,4.63v7.69
		c0.01,1.68,0.25,2.96,0.71,3.82v0.28H415.74z M411.82,63.22c0.7,0,1.35-0.16,1.94-0.47c0.59-0.31,1.03-0.73,1.31-1.26v-3.05h-1.77
		c-2.37,0-3.64,0.82-3.79,2.46l-0.02,0.28c0,0.59,0.21,1.08,0.62,1.46C410.53,63.03,411.09,63.22,411.82,63.22z"/>
	<path class="st0" d="M430.85,63.03c0.88,0,1.59-0.24,2.13-0.72s0.83-1.12,0.85-1.92h4.45c-0.01,1.2-0.34,2.3-0.98,3.31
		s-1.53,1.78-2.65,2.33s-2.36,0.83-3.72,0.83c-2.54,0-4.54-0.81-6-2.42s-2.2-3.84-2.2-6.69v-0.31c0-2.73,0.73-4.92,2.18-6.55
		c1.46-1.63,3.45-2.44,5.99-2.44c2.22,0,4,0.63,5.34,1.9c1.34,1.26,2.02,2.94,2.04,5.04h-4.45c-0.02-0.92-0.31-1.67-0.85-2.25
		s-1.27-0.87-2.17-0.87c-1.1,0-1.94,0.4-2.5,1.21s-0.84,2.11-0.84,3.92v0.49c0,1.83,0.28,3.14,0.84,3.94S429.71,63.03,430.85,63.03z
		"/>
	<path class="st0" d="M447.61,59.81l3.28-11.04h5.09l-7.14,20.51l-0.39,0.94c-1.06,2.32-2.81,3.48-5.25,3.48
		c-0.69,0-1.39-0.1-2.1-0.31v-3.59l0.72,0.02c0.9,0,1.57-0.14,2.01-0.41c0.44-0.27,0.79-0.73,1.04-1.36l0.56-1.46l-6.22-17.8h5.1
		L447.61,59.81z"/>
	<path class="st0" d="M477.06,63.5c-0.89,1.06-2.14,1.88-3.76,2.47c-1.62,0.58-3.41,0.88-5.38,0.88c-2.07,0-3.88-0.45-5.44-1.35
		s-2.76-2.21-3.61-3.93s-1.28-3.73-1.3-6.05v-1.62c0-2.38,0.4-4.45,1.21-6.19s1.96-3.08,3.48-4c1.51-0.92,3.29-1.39,5.32-1.39
		c2.83,0,5.05,0.68,6.64,2.03c1.6,1.35,2.54,3.32,2.84,5.9h-4.79c-0.22-1.37-0.7-2.37-1.45-3c-0.75-0.63-1.78-0.95-3.09-0.95
		c-1.67,0-2.95,0.63-3.82,1.89s-1.32,3.13-1.33,5.61v1.53c0,2.5,0.48,4.4,1.43,5.68c0.95,1.28,2.35,1.92,4.18,1.92
		c1.85,0,3.17-0.39,3.95-1.18V57.6h-4.48v-3.63h9.4V63.5z"/>
	<path class="st0" d="M491.37,64.72c-1.17,1.42-2.79,2.13-4.86,2.13c-1.9,0-3.35-0.55-4.36-1.64s-1.51-2.7-1.53-4.81V48.77h4.74
		v11.48c0,1.85,0.84,2.78,2.53,2.78c1.61,0,2.71-0.56,3.31-1.68V48.77h4.76v17.75h-4.46L491.37,64.72z"/>
	<path class="st0" d="M509.83,66.52c-0.22-0.43-0.38-0.96-0.48-1.59c-1.15,1.28-2.64,1.92-4.48,1.92c-1.74,0-3.18-0.5-4.32-1.51
		s-1.71-2.27-1.71-3.81c0-1.88,0.7-3.33,2.09-4.33c1.39-1.01,3.41-1.51,6.05-1.53h2.18v-1.02c0-0.82-0.21-1.48-0.63-1.97
		s-1.09-0.74-1.99-0.74c-0.8,0-1.42,0.19-1.88,0.57c-0.45,0.38-0.68,0.91-0.68,1.58h-4.74c0-1.03,0.32-1.98,0.95-2.85
		c0.63-0.87,1.53-1.56,2.69-2.06s2.46-0.75,3.91-0.75c2.19,0,3.92,0.55,5.21,1.65c1.29,1.1,1.93,2.64,1.93,4.63v7.69
		c0.01,1.68,0.25,2.96,0.71,3.82v0.28H509.83z M505.9,63.22c0.7,0,1.35-0.16,1.94-0.47c0.59-0.31,1.03-0.73,1.31-1.26v-3.05h-1.77
		c-2.37,0-3.64,0.82-3.79,2.46l-0.02,0.28c0,0.59,0.21,1.08,0.62,1.46C504.61,63.03,505.18,63.22,505.9,63.22z"/>
	<path class="st0" d="M527.53,53.22c-0.65-0.09-1.21-0.13-1.71-0.13c-1.79,0-2.97,0.61-3.53,1.82v11.62h-4.74V48.77h4.48l0.13,2.12
		c0.95-1.63,2.27-2.44,3.95-2.44c0.53,0,1.02,0.07,1.48,0.21L527.53,53.22z"/>
	<path class="st0" d="M529.07,57.51c0-2.77,0.62-4.97,1.86-6.61c1.24-1.64,2.94-2.46,5.09-2.46c1.73,0,3.16,0.65,4.28,1.94v-9.06
		h4.76v25.2h-4.28l-0.23-1.89c-1.18,1.48-2.7,2.21-4.56,2.21c-2.09,0-3.76-0.82-5.03-2.47C529.7,62.73,529.07,60.45,529.07,57.51z
		 M533.81,57.87c0,1.67,0.29,2.94,0.87,3.83c0.58,0.89,1.42,1.33,2.53,1.33c1.46,0,2.5-0.62,3.1-1.86v-7.02
		c-0.59-1.24-1.61-1.86-3.07-1.86C534.95,52.3,533.81,54.15,533.81,57.87z"/>
	<path class="st0" d="M263.77,104.69c1.08,0,2.03-0.33,2.84-0.98c0.81-0.66,1.26-1.48,1.34-2.46h2.87c-0.05,1.02-0.4,1.99-1.05,2.9
		c-0.65,0.92-1.51,1.65-2.58,2.2s-2.22,0.82-3.42,0.82c-2.42,0-4.34-0.81-5.77-2.42s-2.14-3.82-2.14-6.62v-0.51
		c0-1.73,0.32-3.27,0.95-4.61c0.63-1.35,1.54-2.39,2.73-3.13s2.59-1.12,4.21-1.12c1.99,0,3.65,0.6,4.96,1.79
		c1.32,1.19,2.02,2.74,2.11,4.64h-2.87c-0.09-1.15-0.52-2.09-1.3-2.83c-0.78-0.74-1.75-1.11-2.9-1.11c-1.54,0-2.74,0.56-3.58,1.67
		c-0.85,1.11-1.27,2.72-1.27,4.82v0.57c0,2.05,0.42,3.62,1.26,4.73C261,104.14,262.2,104.69,263.77,104.69z"/>
	<path class="st0" d="M285.19,106.84c-0.17-0.35-0.32-0.97-0.43-1.87c-1.41,1.47-3.1,2.2-5.05,2.2c-1.75,0-3.19-0.49-4.31-1.48
		c-1.12-0.99-1.68-2.24-1.68-3.77c0-1.85,0.7-3.28,2.11-4.31c1.41-1.02,3.38-1.53,5.93-1.53h2.95v-1.39c0-1.06-0.32-1.91-0.95-2.53
		c-0.63-0.63-1.57-0.94-2.81-0.94c-1.08,0-1.99,0.27-2.72,0.82c-0.73,0.55-1.1,1.21-1.1,1.99h-3.05c0-0.89,0.31-1.74,0.94-2.57
		c0.63-0.83,1.48-1.48,2.56-1.96c1.08-0.48,2.26-0.72,3.55-0.72c2.04,0,3.65,0.51,4.81,1.53c1.16,1.02,1.76,2.43,1.8,4.22v8.17
		c0,1.63,0.21,2.93,0.62,3.89v0.26H285.19z M280.16,104.53c0.95,0,1.85-0.25,2.71-0.74c0.85-0.49,1.47-1.13,1.85-1.92v-3.64h-2.38
		c-3.72,0-5.58,1.09-5.58,3.26c0,0.95,0.32,1.7,0.95,2.23C278.35,104.26,279.16,104.53,280.16,104.53z"/>
	<path class="st0" d="M295.38,89.09l0.1,2.23c1.36-1.71,3.13-2.56,5.32-2.56c3.75,0,5.64,2.12,5.68,6.35v11.73h-3.04V95.09
		c-0.01-1.28-0.3-2.23-0.88-2.84c-0.57-0.61-1.47-0.92-2.68-0.92c-0.98,0-1.85,0.26-2.59,0.79c-0.74,0.52-1.32,1.21-1.74,2.07v12.65
		h-3.04V89.09H295.38z"/>
	<path class="st0" d="M322.4,91.24c1.35-1.65,3.09-2.48,5.25-2.48c3.75,0,5.64,2.12,5.68,6.35v11.73h-3.04V95.09
		c-0.01-1.28-0.3-2.23-0.88-2.84c-0.57-0.61-1.47-0.92-2.68-0.92c-0.98,0-1.85,0.26-2.59,0.79c-0.74,0.52-1.32,1.21-1.74,2.07v12.65
		h-3.04v-25.2h3.04V91.24z"/>
	<path class="st0" d="M345.24,107.17c-2.41,0-4.36-0.79-5.87-2.37c-1.51-1.58-2.26-3.69-2.26-6.34V97.9c0-1.76,0.34-3.33,1.01-4.72
		c0.67-1.38,1.61-2.47,2.82-3.25c1.21-0.78,2.52-1.17,3.93-1.17c2.31,0,4.1,0.76,5.38,2.28c1.28,1.52,1.92,3.7,1.92,6.53v1.26
		h-12.03c0.04,1.75,0.56,3.16,1.53,4.24s2.22,1.62,3.73,1.62c1.07,0,1.98-0.22,2.72-0.66c0.74-0.44,1.39-1.02,1.95-1.74l1.85,1.44
		C350.45,106.03,348.21,107.17,345.24,107.17z M344.86,91.25c-1.23,0-2.25,0.45-3.08,1.34c-0.83,0.89-1.34,2.14-1.54,3.75h8.89
		v-0.23c-0.09-1.54-0.5-2.74-1.25-3.58S346.13,91.25,344.86,91.25z"/>
	<path class="st0" d="M358.97,106.84h-3.04v-25.2h3.04V106.84z"/>
	<path class="st0" d="M378.82,98.16c0,2.7-0.62,4.88-1.85,6.53c-1.24,1.65-2.91,2.48-5.02,2.48c-2.16,0-3.85-0.68-5.09-2.05v8.55
		h-3.04V89.09h2.77l0.15,1.97c1.24-1.53,2.95-2.3,5.15-2.3c2.13,0,3.82,0.8,5.06,2.41s1.86,3.84,1.86,6.71V98.16z M375.79,97.82
		c0-2-0.43-3.58-1.28-4.74c-0.85-1.16-2.02-1.74-3.51-1.74c-1.84,0-3.22,0.81-4.13,2.44v8.48c0.91,1.62,2.3,2.43,4.17,2.43
		c1.46,0,2.61-0.58,3.47-1.73C375.36,101.81,375.79,100.09,375.79,97.82z"/>
	<path class="st0" d="M405.99,98.16c0,2.7-0.62,4.88-1.85,6.53c-1.24,1.65-2.91,2.48-5.02,2.48c-2.16,0-3.85-0.68-5.09-2.05v8.55
		H391V89.09h2.77l0.15,1.97c1.24-1.53,2.95-2.3,5.15-2.3c2.13,0,3.82,0.8,5.06,2.41s1.86,3.84,1.86,6.71V98.16z M402.96,97.82
		c0-2-0.43-3.58-1.28-4.74c-0.85-1.16-2.02-1.74-3.51-1.74c-1.84,0-3.22,0.81-4.13,2.44v8.48c0.91,1.62,2.3,2.43,4.17,2.43
		c1.46,0,2.61-0.58,3.47-1.73C402.53,101.81,402.96,100.09,402.96,97.82z"/>
	<path class="st0" d="M418.43,91.81c-0.46-0.08-0.96-0.11-1.49-0.11c-1.99,0-3.34,0.85-4.05,2.54v12.6h-3.04V89.09h2.95l0.05,2.05
		c1-1.59,2.41-2.38,4.23-2.38c0.59,0,1.04,0.08,1.34,0.23V91.81z"/>
	<path class="st0" d="M420.08,97.8c0-1.74,0.34-3.3,1.03-4.69s1.63-2.46,2.85-3.22c1.22-0.75,2.61-1.13,4.18-1.13
		c2.42,0,4.37,0.84,5.87,2.51c1.49,1.67,2.24,3.9,2.24,6.68v0.21c0,1.73-0.33,3.28-0.99,4.65c-0.66,1.37-1.61,2.44-2.84,3.21
		s-2.64,1.15-4.24,1.15c-2.41,0-4.36-0.84-5.85-2.51s-2.24-3.89-2.24-6.64V97.8z M423.14,98.16c0,1.97,0.46,3.55,1.37,4.74
		c0.91,1.19,2.14,1.79,3.67,1.79c1.54,0,2.77-0.6,3.67-1.81c0.91-1.21,1.36-2.9,1.36-5.08c0-1.95-0.46-3.52-1.39-4.73
		c-0.92-1.21-2.15-1.81-3.68-1.81c-1.5,0-2.71,0.6-3.63,1.79C423.6,94.24,423.14,95.94,423.14,98.16z"/>
	<path class="st0" d="M444.17,84.79v4.3h3.31v2.35h-3.31v11.02c0,0.71,0.15,1.25,0.44,1.6c0.3,0.36,0.8,0.53,1.51,0.53
		c0.35,0,0.83-0.07,1.44-0.2v2.45c-0.8,0.22-1.57,0.33-2.33,0.33c-1.36,0-2.38-0.41-3.07-1.23c-0.69-0.82-1.03-1.99-1.03-3.49V91.44
		h-3.23v-2.35h3.23v-4.3H444.17z"/>
	<path class="st0" d="M458.39,107.17c-2.41,0-4.36-0.79-5.87-2.37c-1.51-1.58-2.26-3.69-2.26-6.34V97.9c0-1.76,0.34-3.33,1.01-4.72
		c0.67-1.38,1.61-2.47,2.82-3.25c1.21-0.78,2.52-1.17,3.93-1.17c2.31,0,4.1,0.76,5.38,2.28c1.28,1.52,1.92,3.7,1.92,6.53v1.26
		h-12.03c0.04,1.75,0.56,3.16,1.53,4.24s2.22,1.62,3.73,1.62c1.07,0,1.98-0.22,2.72-0.66c0.74-0.44,1.39-1.02,1.95-1.74l1.85,1.44
		C463.6,106.03,461.37,107.17,458.39,107.17z M458.02,91.25c-1.23,0-2.25,0.45-3.08,1.34c-0.83,0.89-1.34,2.14-1.54,3.75h8.89v-0.23
		c-0.09-1.54-0.5-2.74-1.25-3.58S459.28,91.25,458.02,91.25z"/>
	<path class="st0" d="M475.95,104.69c1.08,0,2.03-0.33,2.84-0.98c0.81-0.66,1.26-1.48,1.34-2.46H483c-0.05,1.02-0.4,1.99-1.05,2.9
		c-0.65,0.92-1.51,1.65-2.58,2.2s-2.22,0.82-3.42,0.82c-2.42,0-4.34-0.81-5.77-2.42s-2.14-3.82-2.14-6.62v-0.51
		c0-1.73,0.32-3.27,0.95-4.61c0.63-1.35,1.54-2.39,2.73-3.13s2.59-1.12,4.21-1.12c1.99,0,3.65,0.6,4.96,1.79
		c1.32,1.19,2.02,2.74,2.11,4.64h-2.87c-0.09-1.15-0.52-2.09-1.3-2.83c-0.78-0.74-1.75-1.11-2.9-1.11c-1.54,0-2.74,0.56-3.58,1.67
		c-0.85,1.11-1.27,2.72-1.27,4.82v0.57c0,2.05,0.42,3.62,1.26,4.73C473.18,104.14,474.38,104.69,475.95,104.69z"/>
	<path class="st0" d="M490.53,84.79v4.3h3.31v2.35h-3.31v11.02c0,0.71,0.15,1.25,0.44,1.6c0.3,0.36,0.8,0.53,1.51,0.53
		c0.35,0,0.83-0.07,1.44-0.2v2.45c-0.8,0.22-1.57,0.33-2.33,0.33c-1.36,0-2.38-0.41-3.07-1.23c-0.69-0.82-1.03-1.99-1.03-3.49V91.44
		h-3.23v-2.35h3.23v-4.3H490.53z"/>
	<path class="st0" d="M511.52,102.39l4.13-13.31h3.25l-7.14,20.49c-1.1,2.95-2.86,4.43-5.27,4.43l-0.57-0.05l-1.13-0.21v-2.46
		l0.82,0.07c1.03,0,1.83-0.21,2.4-0.62s1.05-1.18,1.42-2.28l0.67-1.8l-6.33-17.55h3.31L511.52,102.39z"/>
	<path class="st0" d="M520.8,97.8c0-1.74,0.34-3.3,1.03-4.69s1.63-2.46,2.85-3.22c1.22-0.75,2.61-1.13,4.18-1.13
		c2.42,0,4.37,0.84,5.87,2.51c1.49,1.67,2.24,3.9,2.24,6.68v0.21c0,1.73-0.33,3.28-0.99,4.65c-0.66,1.37-1.61,2.44-2.84,3.21
		s-2.64,1.15-4.24,1.15c-2.41,0-4.36-0.84-5.85-2.51s-2.24-3.89-2.24-6.64V97.8z M523.85,98.16c0,1.97,0.46,3.55,1.37,4.74
		c0.91,1.19,2.14,1.79,3.67,1.79c1.54,0,2.77-0.6,3.67-1.81c0.91-1.21,1.36-2.9,1.36-5.08c0-1.95-0.46-3.52-1.39-4.73
		c-0.92-1.21-2.15-1.81-3.68-1.81c-1.5,0-2.71,0.6-3.63,1.79C524.31,94.24,523.85,95.94,523.85,98.16z"/>
	<path class="st0" d="M551.73,105.09c-1.18,1.39-2.91,2.08-5.2,2.08c-1.89,0-3.33-0.55-4.32-1.65s-1.49-2.73-1.5-4.88V89.09h3.04
		v11.47c0,2.69,1.09,4.04,3.28,4.04c2.32,0,3.86-0.86,4.63-2.59V89.09h3.04v17.75h-2.89L551.73,105.09z"/>
	<path class="st0" d="M569.1,106.84V91.44h-2.81v-2.35h2.81v-1.82c0-1.9,0.51-3.37,1.53-4.41c1.02-1.04,2.46-1.56,4.32-1.56
		c0.7,0,1.39,0.09,2.08,0.28l-0.16,2.45c-0.51-0.1-1.06-0.15-1.64-0.15c-0.98,0-1.74,0.29-2.28,0.86c-0.54,0.58-0.8,1.4-0.8,2.48
		v1.88h3.79v2.35h-3.79v15.41H569.1z"/>
	<path class="st0" d="M587.85,91.81c-0.46-0.08-0.96-0.11-1.49-0.11c-1.99,0-3.34,0.85-4.05,2.54v12.6h-3.04V89.09h2.95l0.05,2.05
		c1-1.59,2.41-2.38,4.23-2.38c0.59,0,1.04,0.08,1.34,0.23V91.81z"/>
	<path class="st0" d="M589.51,97.8c0-1.74,0.34-3.3,1.03-4.69s1.63-2.46,2.85-3.22c1.22-0.75,2.61-1.13,4.18-1.13
		c2.42,0,4.37,0.84,5.87,2.51c1.49,1.67,2.24,3.9,2.24,6.68v0.21c0,1.73-0.33,3.28-0.99,4.65c-0.66,1.37-1.61,2.44-2.84,3.21
		s-2.64,1.15-4.24,1.15c-2.41,0-4.36-0.84-5.85-2.51s-2.24-3.89-2.24-6.64V97.8z M592.56,98.16c0,1.97,0.46,3.55,1.37,4.74
		c0.91,1.19,2.14,1.79,3.67,1.79c1.54,0,2.77-0.6,3.67-1.81c0.91-1.21,1.36-2.9,1.36-5.08c0-1.95-0.46-3.52-1.39-4.73
		c-0.92-1.21-2.15-1.81-3.68-1.81c-1.5,0-2.71,0.6-3.63,1.79C593.02,94.24,592.56,95.94,592.56,98.16z"/>
	<path class="st0" d="M612.33,89.09l0.08,1.97c1.3-1.53,3.06-2.3,5.27-2.3c2.48,0,4.17,0.95,5.07,2.85
		c0.59-0.85,1.36-1.54,2.31-2.07c0.95-0.53,2.06-0.79,3.35-0.79c3.89,0,5.87,2.06,5.94,6.19v11.89h-3.04V95.13
		c0-1.27-0.29-2.22-0.87-2.85c-0.58-0.63-1.55-0.94-2.92-0.94c-1.13,0-2.06,0.34-2.81,1.01c-0.74,0.67-1.18,1.58-1.3,2.72v11.78
		h-3.05V95.21c0-2.58-1.26-3.87-3.79-3.87c-1.99,0-3.35,0.85-4.08,2.54v12.96h-3.04V89.09H612.33z"/>
	<path class="st0" d="M346.17,124.82c0-0.71,0.24-1.3,0.71-1.76c0.48-0.46,1.12-0.69,1.94-0.69c0.81,0,1.45,0.23,1.94,0.69
		c0.48,0.46,0.72,1.04,0.72,1.76c0,0.72-0.24,1.31-0.73,1.77c-0.49,0.46-1.13,0.69-1.93,0.69c-0.8,0-1.44-0.23-1.93-0.69
		C346.41,126.13,346.17,125.54,346.17,124.82z M351.2,147.16h-4.76v-17.75h4.76V147.16z"/>
	<path class="st0" d="M354.37,138.15c0-2.77,0.62-4.97,1.86-6.61c1.24-1.64,2.94-2.46,5.09-2.46c1.73,0,3.16,0.65,4.28,1.94v-9.06
		h4.76v25.2h-4.28l-0.23-1.89c-1.18,1.48-2.7,2.21-4.56,2.21c-2.09,0-3.76-0.82-5.03-2.47C355,143.37,354.37,141.08,354.37,138.15z
		 M359.11,138.51c0,1.67,0.29,2.94,0.87,3.83c0.58,0.89,1.42,1.33,2.53,1.33c1.46,0,2.5-0.62,3.1-1.86v-7.02
		c-0.59-1.24-1.61-1.86-3.07-1.86C360.25,132.94,359.11,134.79,359.11,138.51z"/>
	<path class="st0" d="M382.21,147.49c-2.6,0-4.72-0.8-6.36-2.4c-1.63-1.6-2.45-3.72-2.45-6.38v-0.46c0-1.78,0.34-3.38,1.03-4.78
		s1.67-2.49,2.93-3.25c1.26-0.76,2.7-1.14,4.32-1.14c2.43,0,4.34,0.77,5.73,2.3s2.09,3.7,2.09,6.51v1.94h-11.3
		c0.15,1.16,0.62,2.09,1.39,2.79c0.77,0.7,1.75,1.05,2.93,1.05c1.83,0,3.25-0.66,4.28-1.99l2.33,2.61
		c-0.71,1.01-1.67,1.79-2.89,2.35S383.69,147.49,382.21,147.49z M381.67,132.9c-0.94,0-1.7,0.32-2.29,0.96
		c-0.58,0.64-0.96,1.55-1.12,2.74h6.6v-0.38c-0.02-1.05-0.31-1.87-0.85-2.45S382.67,132.9,381.67,132.9z"/>
	<path class="st0" d="M396.57,129.41l0.15,2.05c1.27-1.59,2.97-2.38,5.1-2.38c1.88,0,3.28,0.55,4.2,1.66
		c0.92,1.11,1.39,2.76,1.41,4.96v11.47h-4.74v-11.35c0-1.01-0.22-1.74-0.66-2.19s-1.17-0.68-2.18-0.68c-1.33,0-2.34,0.57-3,1.71
		v12.52h-4.74v-17.75H396.57z"/>
	<path class="st0" d="M416.7,125.04v4.36h3.04v3.48h-3.04v8.86c0,0.66,0.12,1.13,0.38,1.41s0.73,0.43,1.44,0.43
		c0.53,0,0.99-0.04,1.39-0.12v3.59c-0.93,0.29-1.89,0.43-2.87,0.43c-3.32,0-5.02-1.68-5.09-5.04v-9.57h-2.59v-3.48h2.59v-4.36H416.7
		z"/>
	<path class="st0" d="M422.34,124.82c0-0.71,0.24-1.3,0.71-1.76c0.48-0.46,1.12-0.69,1.94-0.69c0.81,0,1.45,0.23,1.94,0.69
		c0.48,0.46,0.72,1.04,0.72,1.76c0,0.72-0.24,1.31-0.73,1.77c-0.49,0.46-1.13,0.69-1.93,0.69c-0.8,0-1.44-0.23-1.93-0.69
		C422.58,126.13,422.34,125.54,422.34,124.82z M427.38,147.16h-4.76v-17.75h4.76V147.16z"/>
	<path class="st0" d="M436.96,125.04v4.36h3.04v3.48h-3.04v8.86c0,0.66,0.12,1.13,0.38,1.41s0.73,0.43,1.44,0.43
		c0.53,0,0.99-0.04,1.39-0.12v3.59c-0.93,0.29-1.89,0.43-2.87,0.43c-3.32,0-5.02-1.68-5.09-5.04v-9.57h-2.59v-3.48h2.59v-4.36
		H436.96z"/>
	<path class="st0" d="M449.26,140.45l3.28-11.04h5.09l-7.14,20.51l-0.39,0.93c-1.06,2.32-2.81,3.48-5.25,3.48
		c-0.69,0-1.39-0.1-2.1-0.31v-3.59l0.72,0.02c0.9,0,1.57-0.14,2.01-0.41c0.44-0.27,0.79-0.73,1.04-1.36l0.56-1.46l-6.22-17.8h5.1
		L449.26,140.45z"/>
	<path class="st0" d="M473.54,125.04v4.36h3.04v3.48h-3.04v8.86c0,0.66,0.12,1.13,0.38,1.41s0.73,0.43,1.44,0.43
		c0.53,0,0.99-0.04,1.39-0.12v3.59c-0.93,0.29-1.89,0.43-2.87,0.43c-3.32,0-5.02-1.68-5.09-5.04v-9.57h-2.59v-3.48h2.59v-4.36
		H473.54z"/>
	<path class="st0" d="M483.85,131.34c1.26-1.51,2.84-2.26,4.74-2.26c3.85,0,5.8,2.24,5.86,6.71v11.37h-4.74v-11.24
		c0-1.02-0.22-1.77-0.66-2.26c-0.44-0.49-1.17-0.73-2.18-0.73c-1.39,0-2.4,0.54-3.02,1.61v12.62h-4.74v-25.2h4.74V131.34z"/>
	<path class="st0" d="M506.19,147.49c-2.6,0-4.72-0.8-6.36-2.4c-1.63-1.6-2.45-3.72-2.45-6.38v-0.46c0-1.78,0.34-3.38,1.03-4.78
		s1.67-2.49,2.93-3.25c1.26-0.76,2.7-1.14,4.32-1.14c2.43,0,4.34,0.77,5.73,2.3s2.09,3.7,2.09,6.51v1.94h-11.3
		c0.15,1.16,0.62,2.09,1.39,2.79c0.77,0.7,1.75,1.05,2.93,1.05c1.83,0,3.25-0.66,4.28-1.99l2.33,2.61
		c-0.71,1.01-1.67,1.79-2.89,2.35S507.67,147.49,506.19,147.49z M505.65,132.9c-0.94,0-1.7,0.32-2.29,0.96
		c-0.58,0.64-0.96,1.55-1.12,2.74h6.6v-0.38c-0.02-1.05-0.31-1.87-0.85-2.45S506.66,132.9,505.65,132.9z"/>
	<path class="st0" d="M517.48,147.16v-14.27h-2.64v-3.48h2.64v-1.51c0-1.99,0.57-3.54,1.71-4.63c1.14-1.1,2.74-1.65,4.8-1.65
		c0.66,0,1.46,0.11,2.41,0.33l-0.05,3.67c-0.39-0.1-0.88-0.15-1.44-0.15c-1.78,0-2.67,0.84-2.67,2.51v1.43h3.53v3.48h-3.53v14.27
		H517.48z"/>
	<path class="st0" d="M533.9,125.04v4.36h3.04v3.48h-3.04v8.86c0,0.66,0.12,1.13,0.38,1.41s0.73,0.43,1.44,0.43
		c0.53,0,0.99-0.04,1.39-0.12v3.59c-0.93,0.29-1.89,0.43-2.87,0.43c-3.32,0-5.02-1.68-5.09-5.04v-9.57h-2.59v-3.48h2.59v-4.36H533.9
		z"/>
	<path class="st0" d="M540.12,145.57c0-0.53,0.16-0.96,0.47-1.31c0.31-0.35,0.78-0.53,1.4-0.53c0.62,0,1.1,0.17,1.42,0.53
		c0.32,0.35,0.48,0.79,0.48,1.31c0,0.5-0.16,0.92-0.48,1.26c-0.32,0.34-0.8,0.51-1.42,0.51c-0.62,0-1.09-0.17-1.4-0.51
		S540.12,146.07,540.12,145.57z"/>
</g>
<g>
	<path class="st0" d="M745.86,198.03c0-0.48-0.17-0.88-0.5-1.21s-0.9-0.62-1.7-0.89c-1.11-0.34-1.92-0.78-2.43-1.32
		c-0.51-0.54-0.76-1.24-0.76-2.07c0-0.85,0.25-1.55,0.75-2.1s1.18-0.87,2.05-0.98v-1.71h1.16v1.72c0.88,0.12,1.56,0.49,2.04,1.1
		c0.49,0.62,0.73,1.46,0.73,2.52h-1.44c0-0.74-0.17-1.32-0.52-1.76s-0.82-0.65-1.41-0.65c-0.62,0-1.09,0.16-1.42,0.48
		s-0.49,0.77-0.49,1.34c0,0.53,0.17,0.96,0.52,1.27c0.35,0.32,0.92,0.6,1.71,0.86c0.79,0.26,1.41,0.54,1.86,0.85
		c0.45,0.31,0.77,0.67,0.98,1.08c0.21,0.41,0.32,0.89,0.32,1.45c0,0.88-0.26,1.59-0.79,2.12c-0.53,0.54-1.27,0.85-2.22,0.95v1.49
		h-1.16v-1.49c-0.97-0.09-1.73-0.43-2.28-1.04s-0.82-1.42-0.82-2.45h1.45c0,0.72,0.19,1.28,0.57,1.67s0.92,0.59,1.62,0.59
		c0.68,0,1.22-0.16,1.61-0.49S745.86,198.6,745.86,198.03z"/>
	<path class="st0" d="M753.85,200.96h-1.45v-9.63l-2.91,1.07v-1.31l4.14-1.55h0.23V200.96z"/>
	<path class="st0" d="M764.16,190.46v2.05h1.58v1.12h-1.58v5.25c0,0.34,0.07,0.59,0.21,0.76c0.14,0.17,0.38,0.25,0.72,0.25
		c0.17,0,0.4-0.03,0.69-0.09v1.17c-0.38,0.1-0.75,0.16-1.11,0.16c-0.65,0-1.13-0.2-1.46-0.59s-0.49-0.95-0.49-1.66v-5.24h-1.54
		v-1.12h1.54v-2.05H764.16z"/>
	<path class="st0" d="M771.51,193.8c-0.22-0.04-0.46-0.05-0.71-0.05c-0.95,0-1.59,0.4-1.93,1.21v6h-1.45v-8.45h1.41l0.02,0.98
		c0.47-0.75,1.15-1.13,2.02-1.13c0.28,0,0.5,0.04,0.64,0.11V193.8z"/>
	<path class="st0" d="M772.84,190.27c0-0.23,0.07-0.43,0.21-0.59c0.14-0.16,0.36-0.24,0.64-0.24s0.5,0.08,0.64,0.24
		c0.15,0.16,0.22,0.36,0.22,0.59s-0.07,0.43-0.22,0.59s-0.36,0.23-0.64,0.23s-0.49-0.08-0.64-0.23S772.84,190.5,772.84,190.27z
		 M774.41,200.96h-1.45v-8.45h1.45V200.96z"/>
	<path class="st0" d="M781.94,200.96c-0.08-0.17-0.15-0.46-0.2-0.89c-0.67,0.7-1.47,1.05-2.41,1.05c-0.83,0-1.52-0.24-2.05-0.71
		c-0.53-0.47-0.8-1.07-0.8-1.79c0-0.88,0.33-1.56,1-2.05c0.67-0.49,1.61-0.73,2.82-0.73h1.41v-0.66c0-0.5-0.15-0.91-0.45-1.21
		c-0.3-0.3-0.75-0.45-1.34-0.45c-0.52,0-0.95,0.13-1.3,0.39c-0.35,0.26-0.52,0.58-0.52,0.95h-1.45c0-0.42,0.15-0.83,0.45-1.22
		c0.3-0.39,0.71-0.7,1.22-0.93c0.51-0.23,1.08-0.34,1.69-0.34c0.97,0,1.74,0.24,2.29,0.73c0.55,0.49,0.84,1.16,0.86,2.01v3.89
		c0,0.78,0.1,1.39,0.3,1.85v0.12H781.94z M779.54,199.86c0.45,0,0.88-0.12,1.29-0.35s0.7-0.54,0.88-0.91v-1.73h-1.13
		c-1.77,0-2.66,0.52-2.66,1.55c0,0.45,0.15,0.81,0.45,1.06C778.68,199.73,779.07,199.86,779.54,199.86z"/>
	<path class="st0" d="M786.99,200.96h-1.45v-12h1.45V200.96z"/>
	<path class="st0" d="M793.98,200.96v-7.34h-1.34v-1.12h1.34v-0.87c0-0.91,0.24-1.61,0.73-2.1c0.48-0.49,1.17-0.74,2.05-0.74
		c0.33,0,0.66,0.04,0.99,0.13l-0.08,1.17c-0.25-0.05-0.5-0.07-0.78-0.07c-0.47,0-0.83,0.14-1.09,0.41
		c-0.25,0.27-0.38,0.67-0.38,1.18v0.89h1.8v1.12h-1.8v7.34H793.98z"/>
	<path class="st0" d="M798.44,196.66c0-0.83,0.16-1.57,0.49-2.23c0.33-0.66,0.78-1.17,1.36-1.53s1.24-0.54,1.99-0.54
		c1.15,0,2.08,0.4,2.79,1.2s1.07,1.86,1.07,3.18v0.1c0,0.82-0.16,1.56-0.47,2.21c-0.32,0.65-0.77,1.16-1.35,1.53
		c-0.59,0.37-1.26,0.55-2.02,0.55c-1.15,0-2.07-0.4-2.79-1.2s-1.07-1.85-1.07-3.16V196.66z M799.89,196.83
		c0,0.94,0.22,1.69,0.65,2.26c0.43,0.57,1.02,0.85,1.75,0.85c0.73,0,1.32-0.29,1.75-0.86c0.43-0.58,0.65-1.38,0.65-2.42
		c0-0.93-0.22-1.68-0.66-2.25c-0.44-0.58-1.02-0.86-1.75-0.86c-0.71,0-1.29,0.28-1.73,0.85
		C800.11,194.96,799.89,195.77,799.89,196.83z"/>
	<path class="st0" d="M812.03,193.8c-0.22-0.04-0.46-0.05-0.71-0.05c-0.95,0-1.59,0.4-1.93,1.21v6h-1.45v-8.45h1.41l0.02,0.98
		c0.47-0.75,1.15-1.13,2.02-1.13c0.28,0,0.5,0.04,0.64,0.11V193.8z"/>
	<path class="st0" d="M819.28,190.46v2.05h1.58v1.12h-1.58v5.25c0,0.34,0.07,0.59,0.21,0.76c0.14,0.17,0.38,0.25,0.72,0.25
		c0.17,0,0.4-0.03,0.69-0.09v1.17c-0.38,0.1-0.75,0.16-1.11,0.16c-0.65,0-1.13-0.2-1.46-0.59s-0.49-0.95-0.49-1.66v-5.24h-1.54
		v-1.12h1.54v-2.05H819.28z"/>
	<path class="st0" d="M823.99,193.53c0.64-0.79,1.47-1.18,2.5-1.18c1.79,0,2.69,1.01,2.7,3.02v5.59h-1.45v-5.59
		c0-0.61-0.14-1.06-0.42-1.35c-0.27-0.29-0.7-0.44-1.28-0.44c-0.47,0-0.88,0.12-1.23,0.38s-0.63,0.58-0.83,0.98v6.02h-1.45v-12h1.45
		V193.53z"/>
	<path class="st0" d="M834.87,201.12c-1.15,0-2.08-0.38-2.8-1.13c-0.72-0.75-1.08-1.76-1.08-3.02v-0.27c0-0.84,0.16-1.59,0.48-2.25
		c0.32-0.66,0.77-1.17,1.34-1.55c0.58-0.37,1.2-0.56,1.87-0.56c1.1,0,1.95,0.36,2.56,1.09c0.61,0.72,0.91,1.76,0.91,3.11v0.6h-5.73
		c0.02,0.83,0.26,1.51,0.73,2.02c0.47,0.51,1.06,0.77,1.78,0.77c0.51,0,0.94-0.1,1.3-0.31c0.35-0.21,0.66-0.48,0.93-0.83l0.88,0.69
		C837.35,200.57,836.28,201.12,834.87,201.12z M834.69,193.54c-0.58,0-1.07,0.21-1.47,0.64c-0.4,0.42-0.64,1.02-0.73,1.79h4.23
		v-0.11c-0.04-0.73-0.24-1.3-0.59-1.71C835.77,193.74,835.29,193.54,834.69,193.54z"/>
	<path class="st0" d="M844.51,200.96v-7.34h-1.34v-1.12h1.34v-0.87c0-0.91,0.24-1.61,0.73-2.1c0.48-0.49,1.17-0.74,2.05-0.74
		c0.33,0,0.66,0.04,0.99,0.13l-0.08,1.17c-0.25-0.05-0.5-0.07-0.78-0.07c-0.47,0-0.83,0.14-1.09,0.41
		c-0.25,0.27-0.38,0.67-0.38,1.18v0.89h1.8v1.12h-1.8v7.34H844.51z"/>
	<path class="st0" d="M849.36,190.27c0-0.23,0.07-0.43,0.21-0.59c0.14-0.16,0.36-0.24,0.64-0.24s0.5,0.08,0.64,0.24
		c0.15,0.16,0.22,0.36,0.22,0.59s-0.07,0.43-0.22,0.59s-0.36,0.23-0.64,0.23s-0.49-0.08-0.64-0.23S849.36,190.5,849.36,190.27z
		 M850.92,200.96h-1.45v-8.45h1.45V200.96z"/>
	<path class="st0" d="M857.32,193.8c-0.22-0.04-0.46-0.05-0.71-0.05c-0.95,0-1.59,0.4-1.93,1.21v6h-1.45v-8.45h1.41l0.02,0.98
		c0.47-0.75,1.15-1.13,2.02-1.13c0.28,0,0.5,0.04,0.64,0.11V193.8z"/>
	<path class="st0" d="M863.57,198.72c0-0.39-0.15-0.69-0.44-0.91c-0.29-0.22-0.81-0.4-1.54-0.56s-1.31-0.34-1.74-0.56
		s-0.75-0.48-0.95-0.78c-0.21-0.3-0.31-0.66-0.31-1.08c0-0.69,0.29-1.28,0.88-1.76c0.59-0.48,1.33-0.72,2.25-0.72
		c0.96,0,1.74,0.25,2.33,0.74c0.6,0.5,0.89,1.13,0.89,1.9h-1.45c0-0.4-0.17-0.74-0.5-1.02c-0.34-0.29-0.76-0.43-1.27-0.43
		c-0.53,0-0.94,0.12-1.23,0.34c-0.3,0.23-0.45,0.53-0.45,0.9c0,0.35,0.14,0.61,0.41,0.79c0.28,0.18,0.77,0.35,1.5,0.51
		c0.72,0.16,1.31,0.35,1.75,0.58c0.45,0.22,0.78,0.49,1,0.81c0.22,0.32,0.32,0.7,0.32,1.15c0,0.76-0.3,1.36-0.91,1.82
		c-0.6,0.46-1.39,0.68-2.35,0.68c-0.68,0-1.28-0.12-1.8-0.36s-0.93-0.57-1.22-1s-0.44-0.89-0.44-1.39h1.45
		c0.03,0.48,0.22,0.87,0.58,1.15c0.36,0.28,0.84,0.43,1.43,0.43c0.55,0,0.99-0.11,1.32-0.33
		C863.41,199.38,863.57,199.09,863.57,198.72z"/>
	<path class="st0" d="M868.86,190.46v2.05h1.58v1.12h-1.58v5.25c0,0.34,0.07,0.59,0.21,0.76c0.14,0.17,0.38,0.25,0.72,0.25
		c0.17,0,0.4-0.03,0.69-0.09v1.17c-0.38,0.1-0.75,0.16-1.11,0.16c-0.65,0-1.13-0.2-1.46-0.59s-0.49-0.95-0.49-1.66v-5.24h-1.54
		v-1.12h1.54v-2.05H868.86z"/>
	<path class="st0" d="M881.25,200.96h-2.26v-8.7l-2.7,0.84v-1.84l4.71-1.69h0.24V200.96z"/>
	<path class="st0" d="M891.62,196.68h1.29v1.82h-1.29v2.46h-2.26v-2.46h-4.66l-0.1-1.42l4.74-7.49h2.28V196.68z M886.85,196.68h2.52
		v-4.02l-0.15,0.26L886.85,196.68z"/>
	<path class="st0" d="M897.85,196.67c0-1.32,0.3-2.37,0.89-3.15s1.4-1.17,2.43-1.17c0.82,0,1.5,0.31,2.04,0.92v-4.31h2.27v12h-2.04
		l-0.11-0.9c-0.56,0.7-1.29,1.05-2.17,1.05c-1,0-1.79-0.39-2.39-1.18C898.15,199.16,897.85,198.07,897.85,196.67z M900.11,196.84
		c0,0.79,0.14,1.4,0.41,1.82s0.68,0.63,1.2,0.63c0.7,0,1.19-0.29,1.48-0.88v-3.34c-0.28-0.59-0.77-0.88-1.46-0.88
		C900.65,194.19,900.11,195.07,900.11,196.84z"/>
	<path class="st0" d="M912.12,200.96c-0.1-0.2-0.18-0.46-0.23-0.76c-0.55,0.61-1.26,0.91-2.13,0.91c-0.83,0-1.51-0.24-2.06-0.72
		c-0.54-0.48-0.82-1.08-0.82-1.81c0-0.9,0.33-1.58,1-2.06c0.66-0.48,1.62-0.72,2.88-0.73h1.04v-0.48c0-0.39-0.1-0.7-0.3-0.94
		s-0.52-0.35-0.95-0.35c-0.38,0-0.68,0.09-0.89,0.27c-0.22,0.18-0.32,0.43-0.32,0.75h-2.26c0-0.49,0.15-0.94,0.45-1.36
		c0.3-0.42,0.73-0.74,1.28-0.98c0.55-0.24,1.17-0.36,1.86-0.36c1.04,0,1.87,0.26,2.48,0.79s0.92,1.26,0.92,2.21v3.66
		c0,0.8,0.12,1.41,0.34,1.82v0.13H912.12z M910.25,199.39c0.33,0,0.64-0.07,0.92-0.22s0.49-0.35,0.62-0.6v-1.45h-0.84
		c-1.13,0-1.73,0.39-1.8,1.17l-0.01,0.13c0,0.28,0.1,0.51,0.3,0.7C909.64,199.3,909.91,199.39,910.25,199.39z"/>
	<path class="st0" d="M918.95,197.77l1.56-5.26h2.42l-3.4,9.77l-0.19,0.45c-0.5,1.1-1.34,1.66-2.5,1.66c-0.33,0-0.66-0.05-1-0.15
		v-1.71l0.34,0.01c0.43,0,0.75-0.07,0.96-0.2c0.21-0.13,0.38-0.35,0.5-0.65l0.27-0.7l-2.96-8.48h2.43L918.95,197.77z"/>
	<path class="st0" d="M928.41,198.62c0-0.28-0.14-0.49-0.41-0.65c-0.27-0.16-0.71-0.3-1.32-0.43c-2.01-0.42-3.02-1.28-3.02-2.56
		c0-0.75,0.31-1.38,0.93-1.88c0.62-0.5,1.44-0.75,2.44-0.75c1.07,0,1.93,0.25,2.57,0.76c0.64,0.51,0.96,1.16,0.96,1.97h-2.26
		c0-0.32-0.1-0.59-0.31-0.8s-0.53-0.32-0.98-0.32c-0.38,0-0.67,0.09-0.88,0.26s-0.31,0.39-0.31,0.66c0,0.25,0.12,0.45,0.36,0.61
		c0.24,0.15,0.64,0.29,1.2,0.4c0.56,0.11,1.04,0.24,1.42,0.38c1.19,0.44,1.79,1.2,1.79,2.27c0,0.77-0.33,1.39-0.99,1.87
		s-1.52,0.71-2.56,0.71c-0.71,0-1.34-0.13-1.89-0.38s-0.98-0.6-1.29-1.04c-0.31-0.44-0.47-0.92-0.47-1.43h2.14
		c0.02,0.4,0.17,0.71,0.45,0.92c0.28,0.21,0.65,0.32,1.11,0.32c0.43,0,0.76-0.08,0.98-0.25S928.41,198.89,928.41,198.62z"/>
	<path class="st0" d="M932.23,203.23l-0.82-0.56c0.49-0.68,0.75-1.39,0.77-2.11v-1.3h1.41v1.13c0,0.53-0.13,1.05-0.39,1.58
		C932.95,202.49,932.62,202.91,932.23,203.23z"/>
	<path class="st0" d="M738.53,216.03c0,1.29-0.29,2.32-0.88,3.11s-1.39,1.18-2.39,1.18c-1.03,0-1.83-0.33-2.42-0.98v4.07h-1.45
		v-11.7h1.32l0.07,0.94c0.59-0.73,1.41-1.09,2.45-1.09c1.02,0,1.82,0.38,2.41,1.15s0.89,1.83,0.89,3.2V216.03z M737.08,215.86
		c0-0.95-0.2-1.71-0.61-2.26s-0.96-0.83-1.67-0.83c-0.88,0-1.53,0.39-1.97,1.16v4.04c0.43,0.77,1.09,1.16,1.98,1.16
		c0.69,0,1.24-0.27,1.65-0.82S737.08,216.95,737.08,215.86z"/>
	<path class="st0" d="M741.93,220.16h-1.45v-12h1.45V220.16z"/>
	<path class="st0" d="M749.46,220.16c-0.08-0.17-0.15-0.46-0.2-0.89c-0.67,0.7-1.47,1.05-2.41,1.05c-0.83,0-1.52-0.24-2.05-0.71
		s-0.8-1.07-0.8-1.79c0-0.88,0.33-1.56,1-2.05s1.61-0.73,2.82-0.73h1.41v-0.66c0-0.5-0.15-0.91-0.45-1.21s-0.75-0.45-1.34-0.45
		c-0.52,0-0.95,0.13-1.3,0.39s-0.52,0.58-0.52,0.95h-1.45c0-0.42,0.15-0.83,0.45-1.22s0.71-0.7,1.22-0.93s1.08-0.34,1.69-0.34
		c0.97,0,1.74,0.24,2.29,0.73s0.84,1.16,0.86,2.01v3.89c0,0.78,0.1,1.39,0.3,1.85v0.12H749.46z M747.07,219.06
		c0.45,0,0.88-0.12,1.29-0.35s0.7-0.54,0.88-0.91v-1.73h-1.13c-1.77,0-2.66,0.52-2.66,1.55c0,0.45,0.15,0.81,0.45,1.06
		S746.59,219.06,747.07,219.06z"/>
	<path class="st0" d="M754.32,211.71l0.05,1.06c0.65-0.81,1.49-1.22,2.53-1.22c1.79,0,2.69,1.01,2.7,3.02v5.59h-1.45v-5.59
		c0-0.61-0.14-1.06-0.42-1.35s-0.7-0.44-1.28-0.44c-0.47,0-0.88,0.12-1.23,0.38s-0.63,0.58-0.83,0.98v6.02h-1.45v-8.45H754.32z"/>
	<path class="st0" d="M766.7,217.92c0-0.39-0.15-0.69-0.44-0.91s-0.81-0.4-1.54-0.56s-1.31-0.34-1.74-0.56s-0.75-0.48-0.95-0.78
		s-0.31-0.66-0.31-1.08c0-0.69,0.29-1.28,0.88-1.76s1.33-0.72,2.25-0.72c0.96,0,1.74,0.25,2.33,0.74s0.89,1.13,0.89,1.9h-1.45
		c0-0.4-0.17-0.74-0.5-1.02s-0.76-0.43-1.27-0.43c-0.53,0-0.94,0.11-1.23,0.34s-0.45,0.53-0.45,0.9c0,0.35,0.14,0.61,0.41,0.79
		s0.77,0.35,1.5,0.51s1.31,0.35,1.75,0.58s0.78,0.49,1,0.81s0.32,0.7,0.32,1.15c0,0.75-0.3,1.36-0.91,1.82s-1.39,0.68-2.35,0.68
		c-0.68,0-1.28-0.12-1.8-0.36s-0.93-0.57-1.22-1s-0.44-0.89-0.44-1.39h1.45c0.03,0.48,0.22,0.87,0.58,1.15s0.84,0.43,1.43,0.43
		c0.55,0,0.99-0.11,1.32-0.33S766.7,218.29,766.7,217.92z"/>
	<path class="st0" d="M778.91,217.92c0-0.39-0.15-0.69-0.44-0.91s-0.81-0.4-1.54-0.56s-1.31-0.34-1.74-0.56s-0.75-0.48-0.95-0.78
		s-0.31-0.66-0.31-1.08c0-0.69,0.29-1.28,0.88-1.76s1.33-0.72,2.25-0.72c0.96,0,1.74,0.25,2.33,0.74s0.89,1.13,0.89,1.9h-1.45
		c0-0.4-0.17-0.74-0.5-1.02s-0.76-0.43-1.27-0.43c-0.53,0-0.94,0.11-1.23,0.34s-0.45,0.53-0.45,0.9c0,0.35,0.14,0.61,0.41,0.79
		s0.77,0.35,1.5,0.51s1.31,0.35,1.75,0.58s0.78,0.49,1,0.81s0.32,0.7,0.32,1.15c0,0.75-0.3,1.36-0.91,1.82s-1.39,0.68-2.35,0.68
		c-0.68,0-1.28-0.12-1.8-0.36s-0.93-0.57-1.22-1s-0.44-0.89-0.44-1.39h1.45c0.03,0.48,0.22,0.87,0.58,1.15s0.84,0.43,1.43,0.43
		c0.55,0,0.99-0.11,1.32-0.33S778.91,218.29,778.91,217.92z"/>
	<path class="st0" d="M784.2,209.66v2.05h1.58v1.12h-1.58v5.25c0,0.34,0.07,0.59,0.21,0.76c0.14,0.17,0.38,0.25,0.72,0.25
		c0.17,0,0.4-0.03,0.69-0.09v1.17c-0.38,0.1-0.75,0.16-1.11,0.16c-0.65,0-1.13-0.2-1.46-0.59s-0.49-0.95-0.49-1.66v-5.24h-1.54
		v-1.12h1.54v-2.05H784.2z"/>
	<path class="st0" d="M792.68,220.16c-0.08-0.17-0.15-0.46-0.2-0.89c-0.67,0.7-1.47,1.05-2.41,1.05c-0.83,0-1.52-0.24-2.05-0.71
		s-0.8-1.07-0.8-1.79c0-0.88,0.33-1.56,1-2.05s1.61-0.73,2.82-0.73h1.41v-0.66c0-0.5-0.15-0.91-0.45-1.21s-0.75-0.45-1.34-0.45
		c-0.52,0-0.95,0.13-1.3,0.39s-0.52,0.58-0.52,0.95h-1.45c0-0.42,0.15-0.83,0.45-1.22s0.71-0.7,1.22-0.93s1.08-0.34,1.69-0.34
		c0.97,0,1.74,0.24,2.29,0.73s0.84,1.16,0.86,2.01v3.89c0,0.78,0.1,1.39,0.3,1.85v0.12H792.68z M790.29,219.06
		c0.45,0,0.88-0.12,1.29-0.35s0.7-0.54,0.88-0.91v-1.73h-1.13c-1.77,0-2.66,0.52-2.66,1.55c0,0.45,0.15,0.81,0.45,1.06
		S789.81,219.06,790.29,219.06z"/>
	<path class="st0" d="M800.25,213c-0.22-0.04-0.46-0.05-0.71-0.05c-0.95,0-1.59,0.4-1.93,1.21v6h-1.45v-8.45h1.41l0.02,0.98
		c0.47-0.75,1.15-1.13,2.02-1.13c0.28,0,0.5,0.04,0.64,0.11V213z"/>
	<path class="st0" d="M803.93,209.66v2.05h1.58v1.12h-1.58v5.25c0,0.34,0.07,0.59,0.21,0.76c0.14,0.17,0.38,0.25,0.72,0.25
		c0.17,0,0.4-0.03,0.69-0.09v1.17c-0.38,0.1-0.75,0.16-1.11,0.16c-0.65,0-1.13-0.2-1.46-0.59s-0.49-0.95-0.49-1.66v-5.24h-1.54
		v-1.12h1.54v-2.05H803.93z"/>
	<path class="st0" d="M807.21,209.47c0-0.23,0.07-0.43,0.21-0.59s0.36-0.24,0.64-0.24s0.5,0.08,0.64,0.24s0.22,0.36,0.22,0.59
		s-0.07,0.43-0.22,0.59s-0.36,0.23-0.64,0.23s-0.49-0.08-0.64-0.23S807.21,209.7,807.21,209.47z M808.77,220.16h-1.45v-8.45h1.45
		V220.16z"/>
	<path class="st0" d="M812.45,211.71l0.05,1.06c0.65-0.81,1.49-1.22,2.53-1.22c1.79,0,2.69,1.01,2.7,3.02v5.59h-1.45v-5.59
		c0-0.61-0.14-1.06-0.42-1.35s-0.7-0.44-1.28-0.44c-0.47,0-0.88,0.12-1.23,0.38s-0.63,0.58-0.83,0.98v6.02h-1.45v-8.45H812.45z"/>
	<path class="st0" d="M819.57,215.86c0-1.32,0.3-2.37,0.91-3.14s1.42-1.17,2.42-1.17c1.03,0,1.84,0.36,2.41,1.09l0.07-0.94h1.32
		v8.25c0,1.09-0.32,1.96-0.97,2.59s-1.52,0.95-2.61,0.95c-0.61,0-1.21-0.13-1.79-0.39s-1.03-0.62-1.34-1.07l0.75-0.87
		c0.62,0.77,1.38,1.15,2.27,1.15c0.7,0,1.25-0.2,1.64-0.59s0.59-0.95,0.59-1.67v-0.73c-0.58,0.67-1.37,1-2.37,1
		c-0.99,0-1.79-0.4-2.4-1.2S819.57,217.24,819.57,215.86z M821.02,216.03c0,0.95,0.2,1.7,0.59,2.25s0.94,0.82,1.64,0.82
		c0.91,0,1.58-0.41,2.01-1.24v-3.86c-0.44-0.81-1.11-1.21-1.99-1.21c-0.7,0-1.25,0.27-1.65,0.82S821.02,214.96,821.02,216.03z"/>
	<path class="st0" d="M838.07,220.16c-0.08-0.17-0.15-0.46-0.2-0.89c-0.67,0.7-1.47,1.05-2.41,1.05c-0.83,0-1.52-0.24-2.05-0.71
		s-0.8-1.07-0.8-1.79c0-0.88,0.33-1.56,1-2.05s1.61-0.73,2.82-0.73h1.41v-0.66c0-0.5-0.15-0.91-0.45-1.21s-0.75-0.45-1.34-0.45
		c-0.52,0-0.95,0.13-1.3,0.39s-0.52,0.58-0.52,0.95h-1.45c0-0.42,0.15-0.83,0.45-1.22s0.71-0.7,1.22-0.93s1.08-0.34,1.69-0.34
		c0.97,0,1.74,0.24,2.29,0.73s0.84,1.16,0.86,2.01v3.89c0,0.78,0.1,1.39,0.3,1.85v0.12H838.07z M835.67,219.06
		c0.45,0,0.88-0.12,1.29-0.35s0.7-0.54,0.88-0.91v-1.73h-1.13c-1.77,0-2.66,0.52-2.66,1.55c0,0.45,0.15,0.81,0.45,1.06
		S835.19,219.06,835.67,219.06z"/>
	<path class="st0" d="M843.51,209.66v2.05h1.58v1.12h-1.58v5.25c0,0.34,0.07,0.59,0.21,0.76c0.14,0.17,0.38,0.25,0.72,0.25
		c0.17,0,0.4-0.03,0.69-0.09v1.17c-0.38,0.1-0.75,0.16-1.11,0.16c-0.65,0-1.13-0.2-1.46-0.59s-0.49-0.95-0.49-1.66v-5.24h-1.54
		v-1.12h1.54v-2.05H843.51z"/>
	<path class="st0" d="M855.82,217.17c0-0.43-0.12-0.77-0.36-1.02s-0.64-0.49-1.21-0.7s-1.06-0.43-1.47-0.64s-0.76-0.45-1.06-0.73
		s-0.52-0.59-0.69-0.96s-0.25-0.81-0.25-1.32c0-0.88,0.28-1.6,0.84-2.16s1.31-0.89,2.24-0.98v-1.67h1.25v1.7
		c0.92,0.13,1.64,0.51,2.16,1.15s0.78,1.46,0.78,2.48h-2.26c0-0.62-0.13-1.09-0.39-1.4s-0.6-0.46-1.04-0.46
		c-0.43,0-0.76,0.12-0.99,0.36s-0.35,0.58-0.35,1c0,0.4,0.11,0.71,0.34,0.95s0.66,0.48,1.28,0.73s1.13,0.49,1.54,0.71
		s0.74,0.47,1.02,0.75s0.49,0.6,0.63,0.95s0.22,0.77,0.22,1.25c0,0.89-0.28,1.6-0.83,2.16s-1.31,0.88-2.28,0.98v1.55h-1.24v-1.55
		c-1.07-0.11-1.89-0.49-2.48-1.14s-0.88-1.5-0.88-2.57h2.26c0,0.62,0.15,1.09,0.44,1.43s0.72,0.5,1.27,0.5
		c0.46,0,0.82-0.12,1.09-0.36S855.82,217.58,855.82,217.17z"/>
	<path class="st0" d="M864.88,215.61c-0.59,0.58-1.28,0.87-2.06,0.87c-1,0-1.81-0.34-2.41-1.04s-0.91-1.62-0.91-2.79
		c0-0.75,0.16-1.43,0.49-2.05s0.78-1.11,1.36-1.45s1.24-0.52,1.97-0.52c0.75,0,1.42,0.19,2,0.56s1.04,0.91,1.36,1.62
		s0.49,1.51,0.49,2.41v0.84c0,1.9-0.47,3.39-1.41,4.47s-2.28,1.66-4.01,1.73l-0.55,0.01v-1.88l0.5-0.01
		C863.66,218.29,864.72,217.37,864.88,215.61z M863.37,214.75c0.36,0,0.68-0.09,0.94-0.28s0.46-0.41,0.6-0.68v-0.93
		c0-0.77-0.15-1.36-0.44-1.78s-0.68-0.63-1.17-0.63c-0.45,0-0.83,0.21-1.12,0.62s-0.44,0.93-0.44,1.56c0,0.62,0.14,1.13,0.43,1.53
		S862.86,214.75,863.37,214.75z"/>
	<path class="st0" d="M868.99,219.05c0-0.36,0.12-0.65,0.36-0.88s0.55-0.34,0.91-0.34c0.37,0,0.68,0.11,0.92,0.34
		s0.36,0.52,0.36,0.88c0,0.35-0.12,0.64-0.36,0.86s-0.55,0.33-0.92,0.33c-0.37,0-0.67-0.11-0.91-0.33S868.99,219.41,868.99,219.05z"
		/>
	<path class="st0" d="M878.71,215.61c-0.59,0.58-1.28,0.87-2.06,0.87c-1,0-1.81-0.34-2.41-1.04s-0.91-1.62-0.91-2.79
		c0-0.75,0.16-1.43,0.49-2.05s0.78-1.11,1.36-1.45s1.24-0.52,1.97-0.52c0.75,0,1.42,0.19,2,0.56s1.04,0.91,1.36,1.62
		s0.49,1.51,0.49,2.41v0.84c0,1.9-0.47,3.39-1.41,4.47s-2.28,1.66-4.01,1.73l-0.55,0.01v-1.88l0.5-0.01
		C877.48,218.29,878.55,217.37,878.71,215.61z M877.2,214.75c0.36,0,0.68-0.09,0.94-0.28s0.46-0.41,0.6-0.68v-0.93
		c0-0.77-0.15-1.36-0.44-1.78s-0.68-0.63-1.17-0.63c-0.45,0-0.83,0.21-1.12,0.62s-0.44,0.93-0.44,1.56c0,0.62,0.14,1.13,0.43,1.53
		S876.68,214.75,877.2,214.75z"/>
	<path class="st0" d="M887.89,215.61c-0.59,0.58-1.28,0.87-2.06,0.87c-1,0-1.81-0.34-2.41-1.04s-0.91-1.62-0.91-2.79
		c0-0.75,0.16-1.43,0.49-2.05s0.78-1.11,1.36-1.45s1.24-0.52,1.97-0.52c0.75,0,1.42,0.19,2,0.56s1.04,0.91,1.36,1.62
		s0.49,1.51,0.49,2.41v0.84c0,1.9-0.47,3.39-1.41,4.47s-2.28,1.66-4.01,1.73l-0.55,0.01v-1.88l0.5-0.01
		C886.66,218.29,887.73,217.37,887.89,215.61z M886.38,214.75c0.36,0,0.68-0.09,0.94-0.28s0.46-0.41,0.6-0.68v-0.93
		c0-0.77-0.15-1.36-0.44-1.78s-0.68-0.63-1.17-0.63c-0.45,0-0.83,0.21-1.12,0.62s-0.44,0.93-0.44,1.56c0,0.62,0.14,1.13,0.43,1.53
		S885.86,214.75,886.38,214.75z"/>
	<path class="st0" d="M892.59,221.14h-1.68l4.19-12.35h1.68L892.59,221.14z"/>
	<path class="st0" d="M899.97,211.71l0.07,0.95c0.6-0.73,1.41-1.1,2.43-1.1c1.09,0,1.84,0.43,2.24,1.29
		c0.59-0.86,1.44-1.29,2.54-1.29c0.92,0,1.6,0.27,2.05,0.8s0.67,1.34,0.67,2.41v5.4h-2.27v-5.39c0-0.48-0.09-0.83-0.28-1.05
		s-0.52-0.33-0.99-0.33c-0.68,0-1.15,0.32-1.41,0.97l0.01,5.8h-2.26v-5.38c0-0.49-0.1-0.84-0.29-1.06s-0.52-0.33-0.98-0.33
		c-0.64,0-1.1,0.27-1.39,0.8v5.98h-2.26v-8.45H899.97z"/>
	<path class="st0" d="M911.36,215.86c0-0.84,0.16-1.59,0.48-2.24s0.79-1.16,1.39-1.52s1.31-0.54,2.11-0.54
		c1.14,0,2.07,0.35,2.79,1.05s1.12,1.65,1.21,2.84l0.02,0.58c0,1.3-0.36,2.34-1.09,3.12s-1.7,1.18-2.91,1.18s-2.19-0.39-2.92-1.17
		s-1.09-1.84-1.09-3.19V215.86z M913.61,216.02c0,0.8,0.15,1.42,0.45,1.84c0.3,0.43,0.73,0.64,1.3,0.64c0.55,0,0.97-0.21,1.28-0.63
		s0.46-1.09,0.46-2.01c0-0.79-0.15-1.4-0.46-1.83c-0.31-0.43-0.74-0.65-1.3-0.65c-0.55,0-0.98,0.22-1.28,0.65
		C913.76,214.45,913.61,215.11,913.61,216.02z"/>
	<path class="st0" d="M922.83,211.71l0.07,0.98c0.6-0.75,1.41-1.13,2.43-1.13c0.9,0,1.56,0.26,2,0.79s0.66,1.31,0.67,2.36v5.46
		h-2.26v-5.41c0-0.48-0.1-0.83-0.31-1.04s-0.55-0.32-1.04-0.32c-0.64,0-1.11,0.27-1.43,0.81v5.96h-2.26v-8.45H922.83z"/>
	<path class="st0" d="M932.42,209.63v2.08h1.45v1.66h-1.45v4.22c0,0.31,0.06,0.54,0.18,0.67s0.35,0.2,0.69,0.2
		c0.25,0,0.47-0.02,0.66-0.05v1.71c-0.44,0.14-0.9,0.2-1.37,0.2c-1.58,0-2.39-0.8-2.42-2.4v-4.55h-1.23v-1.66h1.23v-2.08H932.42z"/>
	<path class="st0" d="M937.32,212.63c0.6-0.72,1.35-1.08,2.26-1.08c1.83,0,2.76,1.07,2.79,3.2v5.41h-2.26v-5.35
		c0-0.48-0.1-0.84-0.31-1.07s-0.55-0.35-1.04-0.35c-0.66,0-1.14,0.25-1.44,0.77v6.01h-2.26v-12h2.26V212.63z"/>
</g>
</svg>
