<svg id="Layer_1" xmlns="http://www.w3.org/2000/svg" viewBox="0 0 970 250"><style>.st0{fill:#fff}</style><path class="st0" d="M178.72 156.19c0-.95-.23-1.7-.71-2.24-.47-.54-1.29-1.05-2.47-1.54-1.18-.48-2.27-.97-3.27-1.46s-1.86-1.07-2.58-1.72-1.28-1.4-1.66-2.26-.58-1.89-.58-3.11c0-2.04.69-3.71 2.06-5.03 1.37-1.32 3.2-2.09 5.49-2.3v-3.81h2.87v3.88c2.21.33 3.94 1.23 5.19 2.72 1.26 1.49 1.89 3.38 1.89 5.66h-6.11c0-1.25-.24-2.22-.72-2.89-.48-.67-1.17-1.01-2.06-1.01-.79 0-1.41.25-1.85.75s-.66 1.19-.66 2.07c0 .89.25 1.6.76 2.12s1.32 1.02 2.44 1.5c1.12.48 2.18.97 3.17 1.48.99.51 1.85 1.09 2.57 1.74s1.29 1.41 1.7 2.28c.41.87.61 1.91.61 3.12 0 2.06-.65 3.74-1.96 5.04s-3.09 2.06-5.34 2.28v3.63h-2.87v-3.65c-2.63-.28-4.64-1.18-6.04-2.7-1.4-1.52-2.1-3.53-2.1-6.03h6.09c0 1.37.3 2.42.91 3.13.61.72 1.47 1.08 2.59 1.08.82 0 1.46-.24 1.93-.73.48-.47.71-1.14.71-2zM204.11 152.89h2.67v4.7h-2.67v5.58h-6.09v-5.58h-10.17l-.36-3.72 10.53-16.95v-.05h6.09v16.02zm-10.83 0h4.73v-8.09l-.38.61-4.35 7.48zM215.02 147.47h2.87c2.28 0 3.41-1.11 3.41-3.34 0-.87-.27-1.57-.81-2.12s-1.31-.82-2.29-.82c-.81 0-1.51.23-2.1.7-.6.47-.89 1.05-.89 1.75h-6.09c0-1.39.39-2.62 1.16-3.7s1.84-1.93 3.21-2.54c1.37-.61 2.87-.91 4.51-.91 2.93 0 5.23.67 6.9 2 1.67 1.34 2.51 3.17 2.51 5.51 0 1.13-.35 2.2-1.04 3.21-.69 1.01-1.7 1.82-3.03 2.45 1.4.51 2.49 1.27 3.29 2.3.79 1.03 1.19 2.3 1.19 3.82 0 2.35-.9 4.23-2.71 5.64-1.81 1.41-4.18 2.11-7.12 2.11-1.72 0-3.32-.33-4.8-.98-1.48-.66-2.59-1.57-3.35-2.73-.76-1.16-1.14-2.48-1.14-3.96h6.12c0 .81.33 1.5.98 2.1.65.59 1.45.88 2.4.88 1.07 0 1.93-.3 2.57-.89.64-.6.96-1.36.96-2.29 0-1.33-.33-2.26-.99-2.82-.66-.55-1.58-.83-2.75-.83h-2.96v-4.54zM258.34 153.55c0 3.2-.66 5.67-1.99 7.39-1.32 1.72-3.19 2.58-5.6 2.58-1.99 0-3.59-.79-4.81-2.37l-.25 2.01h-5.46v-27.75h6.09v9.77c1.13-1.29 2.6-1.93 4.39-1.93 2.43 0 4.31.87 5.64 2.62s1.99 4.2 1.99 7.37v.31zm-6.11-.38c0-1.88-.25-3.21-.75-4.01-.5-.8-1.27-1.2-2.3-1.2-1.37 0-2.32.52-2.85 1.57v7.76c.52 1.03 1.48 1.55 2.89 1.55 1.43 0 2.34-.7 2.73-2.09.19-.7.28-1.89.28-3.58zM260.98 138.58c0-.87.31-1.58.94-2.13.63-.55 1.44-.83 2.44-.83s1.81.28 2.44.83c.63.55.94 1.27.94 2.13s-.31 1.58-.94 2.13c-.63.55-1.44.83-2.44.83s-1.81-.28-2.44-.83c-.63-.55-.94-1.26-.94-2.13zm6.47 24.59h-6.11v-19.55h6.11v19.55zM277.62 163.17h-6.11v-27.75h6.11v27.75zM287.79 163.17h-6.11v-27.75h6.11v27.75zM291.5 138.58c0-.87.31-1.58.94-2.13.63-.55 1.44-.83 2.44-.83s1.81.28 2.44.83c.63.55.94 1.27.94 2.13s-.31 1.58-.94 2.13c-.63.55-1.44.83-2.44.83s-1.81-.28-2.44-.83c-.63-.55-.94-1.26-.94-2.13zm6.46 24.59h-6.11v-19.55h6.11v19.55zM300.94 153.21c0-1.95.38-3.69 1.14-5.21.76-1.52 1.85-2.69 3.27-3.51s3.09-1.23 5-1.23c2.93 0 5.23.91 6.92 2.72 1.69 1.81 2.53 4.28 2.53 7.4v.22c0 3.05-.85 5.46-2.54 7.25s-3.98 2.68-6.87 2.68c-2.78 0-5.02-.83-6.7-2.5s-2.6-3.93-2.73-6.78l-.02-1.04zm6.09.38c0 1.81.28 3.13.85 3.97s1.4 1.26 2.51 1.26c2.17 0 3.28-1.67 3.32-5v-.62c0-3.5-1.12-5.26-3.36-5.26-2.04 0-3.14 1.51-3.31 4.53l-.01 1.12zM328.08 143.62l.2 2.29c1.35-1.77 3.21-2.66 5.58-2.66 2.04 0 3.56.61 4.56 1.83 1.01 1.22 1.53 3.05 1.56 5.49v12.59h-6.11v-12.34c0-.99-.2-1.71-.6-2.18-.4-.46-1.12-.7-2.17-.7-1.19 0-2.08.47-2.66 1.41v13.8h-6.09V143.6h5.73zM351.8 153.21c0-1.95.38-3.69 1.14-5.21.76-1.52 1.85-2.69 3.27-3.51s3.09-1.23 5-1.23c2.93 0 5.23.91 6.92 2.72 1.69 1.81 2.53 4.28 2.53 7.4v.22c0 3.05-.85 5.46-2.54 7.25s-3.98 2.68-6.87 2.68c-2.78 0-5.02-.83-6.7-2.5s-2.6-3.93-2.73-6.78l-.02-1.04zm6.09.38c0 1.81.28 3.13.85 3.97s1.4 1.26 2.51 1.26c2.17 0 3.28-1.67 3.32-5v-.62c0-3.5-1.12-5.26-3.36-5.26-2.04 0-3.14 1.51-3.31 4.53l-.01 1.12zM374.69 163.17v-15.32h-2.84v-4.23h2.84v-1.55c0-2.23.66-3.96 1.97-5.19s3.16-1.84 5.53-1.84c.87 0 1.82.13 2.85.38l.02 4.48c-.37-.11-.87-.16-1.5-.16-1.84 0-2.76.79-2.76 2.38v1.5h3.81v4.23h-3.81v15.32h-6.11zM403.06 138.76v4.86h3.21v4.23h-3.21v8.94c0 .73.13 1.25.4 1.54.27.29.79.43 1.57.43.6 0 1.11-.04 1.52-.11V163c-1.1.35-2.24.52-3.43.52-2.1 0-3.64-.49-4.64-1.48-1-.99-1.5-2.49-1.5-4.5v-9.7h-2.49v-4.23h2.49v-4.86h6.08zM407.36 153.21c0-1.95.38-3.69 1.14-5.21.76-1.52 1.85-2.69 3.27-3.51s3.09-1.23 5-1.23c2.93 0 5.23.91 6.92 2.72 1.69 1.81 2.53 4.28 2.53 7.4v.22c0 3.05-.85 5.46-2.54 7.25s-3.98 2.68-6.87 2.68c-2.78 0-5.02-.83-6.7-2.5s-2.6-3.93-2.73-6.78l-.02-1.04zm6.08.38c0 1.81.28 3.13.85 3.97s1.4 1.26 2.51 1.26c2.17 0 3.28-1.67 3.32-5v-.62c0-3.5-1.12-5.26-3.36-5.26-2.04 0-3.14 1.51-3.31 4.53l-.01 1.12zM435.99 138.76v4.86h3.21v4.23h-3.21v8.94c0 .73.13 1.25.4 1.54.27.29.79.43 1.57.43.6 0 1.11-.04 1.52-.11V163c-1.1.35-2.24.52-3.43.52-2.1 0-3.64-.49-4.64-1.48-1-.99-1.5-2.49-1.5-4.5v-9.7h-2.49v-4.23h2.49v-4.86h6.08zM452.61 163.17c-.22-.4-.41-.98-.58-1.75-1.12 1.41-2.69 2.11-4.7 2.11-1.84 0-3.41-.56-4.7-1.67s-1.93-2.51-1.93-4.2c0-2.12.78-3.72 2.35-4.81 1.57-1.08 3.84-1.62 6.83-1.62h1.88v-1.04c0-1.8-.78-2.71-2.33-2.71-1.45 0-2.17.71-2.17 2.14h-6.09c0-1.89.8-3.42 2.41-4.6 1.61-1.18 3.66-1.77 6.15-1.77s4.46.61 5.91 1.83c1.45 1.22 2.19 2.88 2.22 5v8.65c.02 1.79.3 3.17.83 4.12v.31h-6.08zm-3.81-3.98c.76 0 1.39-.16 1.89-.49.5-.32.86-.69 1.07-1.1v-3.12h-1.77c-2.12 0-3.18.95-3.18 2.85 0 .55.19 1 .56 1.35.38.34.85.51 1.43.51zM467.66 163.17h-6.11v-27.75h6.11v27.75zM481.97 163.17v-15.32h-2.84v-4.23h2.84v-1.55c0-2.23.66-3.96 1.97-5.19s3.16-1.84 5.53-1.84c.87 0 1.82.13 2.85.38l.02 4.48c-.37-.11-.87-.16-1.5-.16-1.84 0-2.76.79-2.76 2.38v1.5h3.81v4.23h-3.81v15.32h-6.11zM505.85 149.13l-2-.14c-1.92 0-3.14.6-3.69 1.81v12.38h-6.09v-19.55h5.71l.2 2.51c1.02-1.91 2.45-2.87 4.28-2.87.65 0 1.22.07 1.7.22l-.11 5.64zM518.52 163.17c-.22-.4-.41-.98-.58-1.75-1.12 1.41-2.69 2.11-4.7 2.11-1.84 0-3.41-.56-4.7-1.67s-1.93-2.51-1.93-4.2c0-2.12.78-3.72 2.35-4.81 1.57-1.08 3.84-1.62 6.83-1.62h1.88v-1.04c0-1.8-.78-2.71-2.33-2.71-1.45 0-2.17.71-2.17 2.14h-6.09c0-1.89.8-3.42 2.41-4.6 1.61-1.18 3.66-1.77 6.15-1.77s4.46.61 5.91 1.83c1.45 1.22 2.19 2.88 2.22 5v8.65c.02 1.79.3 3.17.83 4.12v.31h-6.08zm-3.81-3.98c.76 0 1.39-.16 1.89-.49.5-.32.86-.69 1.07-1.1v-3.12h-1.77c-2.12 0-3.18.95-3.18 2.85 0 .55.19 1 .56 1.35.37.34.85.51 1.43.51zM538.79 161.05c-1.29 1.65-3.03 2.47-5.22 2.47-2.14 0-3.77-.62-4.87-1.87s-1.65-3.04-1.65-5.37v-12.67h6.09v12.7c0 1.67.81 2.51 2.44 2.51 1.4 0 2.39-.5 2.98-1.5v-13.71h6.12v19.55h-5.71l-.18-2.11zM547.25 153.25c0-3.1.67-5.54 2.01-7.32 1.34-1.78 3.2-2.67 5.6-2.67 1.75 0 3.22.69 4.41 2.06v-9.9h6.11v27.75h-5.47l-.31-2.1c-1.25 1.64-2.84 2.46-4.77 2.46-2.33 0-4.17-.89-5.53-2.67-1.37-1.79-2.05-4.32-2.05-7.61zm6.08.38c0 3.47 1.01 5.2 3.04 5.2 1.35 0 2.31-.57 2.89-1.7v-7.44c-.55-1.16-1.5-1.73-2.85-1.73-1.88 0-2.9 1.52-3.05 4.55l-.03 1.12zM584.46 163.17h-6.11v-27.75h6.11v27.75zM587.44 153.21c0-1.95.38-3.69 1.14-5.21.76-1.52 1.85-2.69 3.27-3.51s3.09-1.23 5-1.23c2.93 0 5.23.91 6.92 2.72 1.69 1.81 2.53 4.28 2.53 7.4v.22c0 3.05-.85 5.46-2.54 7.25s-3.98 2.68-6.87 2.68c-2.78 0-5.02-.83-6.7-2.5s-2.6-3.93-2.73-6.78l-.02-1.04zm6.09.38c0 1.81.28 3.13.85 3.97s1.4 1.26 2.51 1.26c2.17 0 3.28-1.67 3.32-5v-.62c0-3.5-1.12-5.26-3.36-5.26-2.04 0-3.14 1.51-3.31 4.53l-.01 1.12zM619.22 157.67c0-.52-.27-.93-.81-1.25-.54-.31-1.57-.64-3.09-.98-1.52-.34-2.77-.78-3.76-1.33-.99-.55-1.74-1.21-2.26-2-.52-.78-.78-1.68-.78-2.69 0-1.79.74-3.27 2.22-4.44 1.48-1.16 3.42-1.74 5.82-1.74 2.58 0 4.65.58 6.21 1.75 1.57 1.17 2.35 2.7 2.35 4.61h-6.11c0-1.57-.83-2.35-2.48-2.35-.64 0-1.17.18-1.61.53s-.65.8-.65 1.33c0 .54.26.98.79 1.32s1.38.61 2.54.83 2.18.48 3.06.78c2.94 1.01 4.41 2.83 4.41 5.44 0 1.78-.79 3.23-2.38 4.35-1.58 1.12-3.63 1.68-6.15 1.68-1.67 0-3.17-.3-4.48-.9s-2.34-1.42-3.07-2.46-1.1-2.13-1.1-3.27h5.69c.02.9.33 1.56.9 1.98.58.42 1.32.62 2.22.62.83 0 1.45-.17 1.87-.51.44-.31.65-.75.65-1.3zM638.17 157.67c0-.52-.27-.93-.81-1.25-.54-.31-1.57-.64-3.09-.98-1.52-.34-2.77-.78-3.76-1.33-.99-.55-1.74-1.21-2.26-2-.52-.78-.78-1.68-.78-2.69 0-1.79.74-3.27 2.22-4.44 1.48-1.16 3.42-1.74 5.82-1.74 2.58 0 4.65.58 6.21 1.75 1.57 1.17 2.35 2.7 2.35 4.61h-6.11c0-1.57-.83-2.35-2.48-2.35-.64 0-1.17.18-1.61.53s-.65.8-.65 1.33c0 .54.26.98.79 1.32s1.38.61 2.54.83 2.18.48 3.06.78c2.94 1.01 4.41 2.83 4.41 5.44 0 1.78-.79 3.23-2.38 4.35-1.58 1.12-3.63 1.68-6.15 1.68-1.67 0-3.17-.3-4.48-.9s-2.34-1.42-3.07-2.46-1.1-2.13-1.1-3.27h5.69c.02.9.33 1.56.9 1.98.58.42 1.32.62 2.22.62.83 0 1.45-.17 1.87-.51.45-.31.65-.75.65-1.3zM656.35 163.53c-3 0-5.43-.89-7.28-2.68-1.86-1.79-2.78-4.12-2.78-6.98v-.51c0-2 .37-3.76 1.11-5.29.74-1.53 1.82-2.71 3.24-3.55s3.11-1.26 5.06-1.26c2.75 0 4.91.85 6.5 2.56s2.38 4.08 2.38 7.13v2.37h-12.1c.22 1.1.69 1.96 1.43 2.58.73.63 1.69.94 2.85.94 1.93 0 3.43-.67 4.52-2.02l2.78 3.29c-.76 1.05-1.83 1.88-3.22 2.5-1.39.61-2.89.92-4.49.92zm-.69-15.58c-1.78 0-2.84 1.18-3.18 3.54h6.14v-.47c.02-.98-.22-1.73-.74-2.27-.51-.53-1.25-.8-2.22-.8zM677.27 157.67c0-.52-.27-.93-.81-1.25-.54-.31-1.57-.64-3.09-.98-1.52-.34-2.77-.78-3.76-1.33-.99-.55-1.74-1.21-2.26-2-.52-.78-.78-1.68-.78-2.69 0-1.79.74-3.27 2.22-4.44 1.48-1.16 3.42-1.74 5.82-1.74 2.58 0 4.65.58 6.21 1.75 1.57 1.17 2.35 2.7 2.35 4.61h-6.11c0-1.57-.83-2.35-2.48-2.35-.64 0-1.17.18-1.61.53s-.65.8-.65 1.33c0 .54.26.98.79 1.32s1.38.61 2.54.83 2.18.48 3.06.78c2.94 1.01 4.41 2.83 4.41 5.44 0 1.78-.79 3.23-2.38 4.35-1.58 1.12-3.63 1.68-6.15 1.68-1.67 0-3.17-.3-4.48-.9s-2.34-1.42-3.07-2.46-1.1-2.13-1.1-3.27h5.69c.02.9.33 1.56.9 1.98.58.42 1.32.62 2.22.62.83 0 1.45-.17 1.87-.51.44-.31.65-.75.65-1.3zM695.16 138.58c0-.87.31-1.58.94-2.13.63-.55 1.44-.83 2.44-.83s1.81.28 2.44.83c.63.55.94 1.27.94 2.13s-.31 1.58-.94 2.13c-.63.55-1.44.83-2.44.83s-1.81-.28-2.44-.83c-.63-.55-.94-1.26-.94-2.13zm6.46 24.59h-6.11v-19.55h6.11v19.55zM710.96 143.62l.2 2.29c1.35-1.77 3.21-2.66 5.58-2.66 2.04 0 3.56.61 4.56 1.83 1.01 1.22 1.53 3.05 1.56 5.49v12.59h-6.11v-12.34c0-.99-.2-1.71-.6-2.18-.4-.46-1.12-.7-2.17-.7-1.19 0-2.08.47-2.66 1.41v13.8h-6.09V143.6h5.73zM753.71 163.17h-18.36v-3.97l8.46-8.89c2.08-2.37 3.13-4.26 3.13-5.65 0-1.13-.25-1.99-.74-2.58-.49-.59-1.21-.88-2.15-.88-.93 0-1.68.39-2.26 1.18-.58.79-.87 1.77-.87 2.95h-6.11c0-1.61.4-3.1 1.21-4.47a8.51 8.51 0 0 1 3.36-3.21c1.43-.77 3.04-1.16 4.81-1.16 2.84 0 5.03.66 6.57 1.97s2.3 3.2 2.3 5.65c0 1.04-.19 2.04-.58 3.03-.38.98-.98 2.01-1.8 3.09-.81 1.08-2.12 2.52-3.93 4.33l-3.4 3.92h10.35v4.69zM775.04 152.42c0 3.55-.8 6.29-2.39 8.22-1.6 1.93-3.85 2.89-6.75 2.89-2.93 0-5.19-.97-6.79-2.91-1.6-1.94-2.4-4.67-2.4-8.2v-4.8c0-3.55.8-6.29 2.39-8.22 1.6-1.93 3.85-2.89 6.77-2.89s5.17.97 6.78 2.91c1.6 1.94 2.4 4.68 2.4 8.22v4.78zm-6.08-5.59c0-1.89-.25-3.3-.74-4.24s-1.28-1.4-2.35-1.4c-1.05 0-1.81.43-2.29 1.3-.48.87-.73 2.18-.77 3.94v6.72c0 1.96.25 3.4.74 4.31.49.91 1.28 1.36 2.35 1.36 1.04 0 1.8-.44 2.29-1.33.49-.88.75-2.27.76-4.16v-6.5zM796.56 163.17H778.2v-3.97l8.46-8.89c2.08-2.37 3.13-4.26 3.13-5.65 0-1.13-.25-1.99-.74-2.58-.49-.59-1.21-.88-2.15-.88-.93 0-1.68.39-2.26 1.18-.58.79-.87 1.77-.87 2.95h-6.11c0-1.61.4-3.1 1.21-4.47a8.51 8.51 0 0 1 3.36-3.21c1.43-.77 3.04-1.16 4.81-1.16 2.84 0 5.03.66 6.57 1.97s2.3 3.2 2.3 5.65c0 1.04-.19 2.04-.58 3.03-.38.98-.98 2.01-1.8 3.09-.81 1.08-2.12 2.52-3.93 4.33l-3.4 3.92h10.35v4.69zM817.9 152.42c0 3.55-.8 6.29-2.39 8.22-1.6 1.93-3.85 2.89-6.75 2.89-2.93 0-5.19-.97-6.79-2.91-1.6-1.94-2.4-4.67-2.4-8.2v-4.8c0-3.55.8-6.29 2.39-8.22 1.6-1.93 3.85-2.89 6.77-2.89s5.17.97 6.78 2.91c1.6 1.94 2.4 4.68 2.4 8.22v4.78zm-6.09-5.59c0-1.89-.25-3.3-.74-4.24s-1.28-1.4-2.35-1.4c-1.05 0-1.81.43-2.29 1.3-.48.87-.73 2.18-.77 3.94v6.72c0 1.96.25 3.4.74 4.31.49.91 1.28 1.36 2.35 1.36 1.04 0 1.8-.44 2.29-1.33.49-.88.75-2.27.76-4.16v-6.5zM824.93 157.26c.96 0 1.76.29 2.4.86.64.57.96 1.3.96 2.2s-.32 1.62-.96 2.2-1.44.86-2.4.86c-.98 0-1.78-.29-2.41-.87-.63-.58-.95-1.31-.95-2.19s.32-1.61.95-2.19c.63-.58 1.43-.87 2.41-.87z"/></svg>