<svg id="Layer_1" xmlns="http://www.w3.org/2000/svg" viewBox="0 0 970 250"><style>.st0{fill:#021d8b;stroke:url(#SVGID_1_);stroke-width:2;stroke-miterlimit:10}.st1{fill:#fff}</style><linearGradient id="SVGID_1_" gradientUnits="userSpaceOnUse" x1="630.727" y1="123.632" x2="856.343" y2="123.632"><stop offset="0" stop-color="#18b9fb"/><stop offset=".5" stop-color="#782eeb"/><stop offset="1" stop-color="#e82d8a"/></linearGradient><path class="st0" d="M838.54 174.15H648.53c-9.28 0-16.8-7.52-16.8-16.8V89.92c0-9.28 7.52-16.8 16.8-16.8h190.01c9.28 0 16.8 7.52 16.8 16.8v67.42c0 9.28-7.52 16.81-16.8 16.81z"/><path class="st1" d="M650.71 112.94h7.15v2.7h-10.51V99.3h3.37v13.64zM665.16 115.86c-1.78 0-3.23-.55-4.35-1.64-1.12-1.09-1.68-2.55-1.68-4.36v-.31c0-1.22.24-2.31.71-3.27s1.14-1.7 2-2.22 1.85-.78 2.96-.78c1.66 0 2.97.52 3.92 1.57.95 1.05 1.43 2.53 1.43 4.45v1.32h-7.73c.1.79.42 1.43.95 1.91s1.19.72 2 .72c1.25 0 2.22-.45 2.93-1.36l1.59 1.78c-.49.69-1.14 1.23-1.97 1.61s-1.75.58-2.76.58zm-.37-9.97c-.64 0-1.17.22-1.57.65s-.66 1.06-.77 1.87h4.51v-.26c-.01-.72-.21-1.28-.58-1.67s-.9-.59-1.59-.59zM679.03 115.64c-.15-.29-.26-.65-.33-1.09-.79.88-1.81 1.31-3.06 1.31-1.19 0-2.18-.34-2.96-1.03-.78-.69-1.17-1.56-1.17-2.6 0-1.29.48-2.27 1.43-2.96s2.33-1.04 4.13-1.04h1.49v-.7c0-.56-.14-1.01-.43-1.35s-.74-.5-1.36-.5c-.55 0-.97.13-1.29.39s-.46.62-.46 1.08h-3.24c0-.7.22-1.35.65-1.95.43-.6 1.05-1.07 1.84-1.41.79-.34 1.68-.51 2.67-.51 1.5 0 2.68.38 3.56 1.13s1.32 1.81 1.32 3.17v5.26c.01 1.15.17 2.02.48 2.61v.19h-3.27zm-2.69-2.26c.48 0 .92-.11 1.32-.32.4-.21.7-.5.9-.86v-2.09h-1.21c-1.62 0-2.49.56-2.59 1.68l-.01.19c0 .4.14.74.43 1 .28.27.67.4 1.16.4zM691.13 106.54c-.44-.06-.83-.09-1.17-.09-1.23 0-2.03.42-2.41 1.25v7.94h-3.24V103.5h3.06l.09 1.45c.65-1.11 1.55-1.67 2.7-1.67.36 0 .7.05 1.01.15l-.04 3.11zM695.68 103.5l.1 1.4c.87-1.08 2.03-1.63 3.49-1.63 1.29 0 2.24.38 2.87 1.13.63.76.95 1.88.96 3.39v7.84h-3.24v-7.76c0-.69-.15-1.19-.45-1.5-.3-.31-.8-.47-1.49-.47-.91 0-1.6.39-2.05 1.17v8.56h-3.24V103.5h3.05zM724.79 115.64h-3.37v-7h-6.56v7h-3.37V99.3h3.37v6.62h6.56V99.3h3.37v16.34zM727.02 109.46c0-1.2.23-2.28.7-3.22.46-.94 1.13-1.67 2-2.19.87-.52 1.88-.77 3.04-.77 1.64 0 2.97.5 4.01 1.5s1.61 2.36 1.73 4.08l.02.83c0 1.86-.52 3.36-1.56 4.48s-2.43 1.69-4.18 1.69c-1.75 0-3.15-.56-4.19-1.68-1.04-1.12-1.57-2.65-1.57-4.58v-.14zm3.24.23c0 1.15.22 2.04.65 2.65s1.05.92 1.86.92c.79 0 1.4-.3 1.84-.91.44-.6.66-1.57.66-2.89 0-1.13-.22-2.01-.66-2.63-.44-.62-1.06-.93-1.86-.93-.79 0-1.41.31-1.84.93s-.65 1.56-.65 2.86zM751.07 111.23l1.59-7.73h3.13l-3.1 12.14h-2.71l-2.3-7.64-2.3 7.64h-2.7l-3.1-12.14h3.13l1.58 7.72 2.22-7.72h2.35l2.21 7.73zM774.96 102.03h-5v13.61h-3.37v-13.61h-4.94V99.3h13.31v2.73zM773.83 109.46c0-1.2.23-2.28.7-3.22.46-.94 1.13-1.67 2-2.19.87-.52 1.88-.77 3.04-.77 1.64 0 2.97.5 4.01 1.5s1.61 2.36 1.73 4.08l.02.83c0 1.86-.52 3.36-1.56 4.48s-2.43 1.69-4.18 1.69c-1.75 0-3.15-.56-4.19-1.68-1.04-1.12-1.57-2.65-1.57-4.58v-.14zm3.24.23c0 1.15.22 2.04.65 2.65s1.05.92 1.86.92c.79 0 1.4-.3 1.84-.91.44-.6.66-1.57.66-2.89 0-1.13-.22-2.01-.66-2.63-.44-.62-1.06-.93-1.86-.93-.79 0-1.41.31-1.84.93s-.65 1.56-.65 2.86zM806.56 115.64h-3.37v-7h-6.56v7h-3.37V99.3h3.37v6.62h6.56V99.3h3.37v16.34zM814.87 115.86c-1.78 0-3.23-.55-4.35-1.64-1.12-1.09-1.68-2.55-1.68-4.36v-.31c0-1.22.24-2.31.71-3.27s1.14-1.7 2-2.22 1.85-.78 2.96-.78c1.66 0 2.97.52 3.92 1.57.95 1.05 1.43 2.53 1.43 4.45v1.32h-7.73c.1.79.42 1.43.95 1.91s1.19.72 2 .72c1.25 0 2.22-.45 2.93-1.36l1.59 1.78c-.49.69-1.14 1.23-1.97 1.61s-1.75.58-2.76.58zm-.37-9.97c-.64 0-1.17.22-1.57.65s-.66 1.06-.77 1.87h4.51v-.26c-.01-.72-.21-1.28-.58-1.67s-.9-.59-1.59-.59zM825.13 115.64h-3.25V98.4h3.25v17.24zM838.73 109.68c0 1.87-.42 3.37-1.27 4.49-.85 1.13-2 1.69-3.44 1.69-1.23 0-2.22-.43-2.97-1.28v5.72h-3.24v-16.8h3.01l.11 1.19c.79-.94 1.81-1.41 3.07-1.41 1.5 0 2.66.55 3.49 1.66.83 1.11 1.25 2.63 1.25 4.58v.16zm-3.24-.23c0-1.13-.2-2-.6-2.61s-.98-.92-1.75-.92c-1.02 0-1.72.39-2.1 1.17v4.97c.4.8 1.1 1.2 2.12 1.2 1.55-.01 2.33-1.28 2.33-3.81zM663.65 141.43v5.76h-3.37v-16.34h6.37c1.23 0 2.31.22 3.24.67.93.45 1.65 1.09 2.15 1.91.5.83.75 1.77.75 2.82 0 1.6-.55 2.86-1.64 3.79-1.1.92-2.61 1.39-4.55 1.39h-2.95zm0-2.73h3.01c.89 0 1.57-.21 2.04-.63s.7-1.02.7-1.79c0-.8-.24-1.45-.71-1.94s-1.12-.75-1.95-.76h-3.08v5.12zM681.71 138.08c-.44-.06-.83-.09-1.17-.09-1.23 0-2.03.42-2.41 1.25v7.94h-3.24v-12.14h3.06l.09 1.45c.65-1.11 1.55-1.67 2.7-1.67.36 0 .7.05 1.01.15l-.04 3.11zM682.37 141c0-1.2.23-2.28.7-3.22.46-.94 1.13-1.67 2-2.19.87-.52 1.88-.77 3.04-.77 1.64 0 2.97.5 4.01 1.5s1.61 2.36 1.73 4.08l.02.83c0 1.86-.52 3.36-1.56 4.48s-2.43 1.69-4.18 1.69c-1.75 0-3.15-.56-4.19-1.68-1.04-1.12-1.57-2.65-1.57-4.58V141zm3.24.23c0 1.15.22 2.04.65 2.65s1.05.92 1.86.92c.79 0 1.4-.3 1.84-.91.44-.6.66-1.57.66-2.89 0-1.13-.22-2.01-.66-2.63-.44-.62-1.06-.93-1.86-.93-.79 0-1.41.31-1.84.93s-.65 1.57-.65 2.86zM699.75 132.06v2.98h2.08v2.38h-2.08v6.06c0 .45.09.77.26.96.17.2.5.29.99.29.36 0 .68-.03.95-.08v2.46c-.64.19-1.29.29-1.96.29-2.27 0-3.43-1.15-3.48-3.45v-6.54h-1.77v-2.38h1.77v-2.98h3.24zM709.22 147.41c-1.78 0-3.23-.55-4.35-1.64-1.12-1.09-1.68-2.55-1.68-4.36v-.31c0-1.22.24-2.31.71-3.27s1.14-1.7 2-2.22 1.85-.78 2.96-.78c1.66 0 2.97.52 3.92 1.57.95 1.05 1.43 2.53 1.43 4.45v1.32h-7.73c.1.79.42 1.43.95 1.91s1.19.72 2 .72c1.25 0 2.22-.45 2.93-1.36l1.59 1.78c-.49.69-1.14 1.23-1.97 1.61s-1.75.58-2.76.58zm-.37-9.98c-.64 0-1.17.22-1.57.65s-.66 1.06-.77 1.87h4.51v-.26c-.01-.72-.21-1.28-.58-1.67s-.91-.59-1.59-.59zM721.1 144.79c.6 0 1.08-.17 1.46-.49s.57-.77.58-1.31h3.04c-.01.82-.23 1.58-.67 2.26s-1.04 1.22-1.81 1.59c-.77.38-1.61.57-2.54.57-1.74 0-3.1-.55-4.11-1.66-1-1.1-1.5-2.63-1.5-4.57v-.21c0-1.87.5-3.36 1.49-4.48 1-1.11 2.36-1.67 4.1-1.67 1.52 0 2.74.43 3.65 1.3.92.86 1.38 2.01 1.4 3.45h-3.04c-.02-.63-.21-1.14-.58-1.54s-.87-.59-1.48-.59c-.76 0-1.33.28-1.71.83-.39.55-.58 1.44-.58 2.68v.34c0 1.25.19 2.15.57 2.7.37.53.95.8 1.73.8zM731.92 132.06v2.98H734v2.38h-2.08v6.06c0 .45.09.77.26.96.17.2.5.29.99.29.36 0 .68-.03.95-.08v2.46c-.64.19-1.29.29-1.96.29-2.27 0-3.43-1.15-3.48-3.45v-6.54h-1.77v-2.38h1.77v-2.98h3.24zM747.37 138.21l3.4-7.36h3.68l-5.36 10.41v5.92h-3.42v-5.92l-5.36-10.41H744l3.37 7.36zM754.49 141c0-1.2.23-2.28.7-3.22.46-.94 1.13-1.67 2-2.19.87-.52 1.88-.77 3.04-.77 1.64 0 2.97.5 4.01 1.5s1.61 2.36 1.73 4.08l.02.83c0 1.86-.52 3.36-1.56 4.48s-2.43 1.69-4.18 1.69c-1.75 0-3.15-.56-4.19-1.68-1.04-1.12-1.57-2.65-1.57-4.58V141zm3.24.23c0 1.15.22 2.04.65 2.65s1.05.92 1.86.92c.79 0 1.4-.3 1.84-.91.44-.6.66-1.57.66-2.89 0-1.13-.22-2.01-.66-2.63-.44-.62-1.06-.93-1.86-.93-.79 0-1.41.31-1.84.93s-.65 1.57-.65 2.86zM775.26 145.95c-.8.97-1.91 1.46-3.32 1.46-1.3 0-2.29-.37-2.98-1.12s-1.03-1.84-1.05-3.29v-7.96h3.24v7.85c0 1.27.58 1.9 1.73 1.9 1.1 0 1.85-.38 2.27-1.15v-8.6h3.25v12.14h-3.05l-.09-1.23zM787.67 138.08c-.44-.06-.83-.09-1.17-.09-1.23 0-2.03.42-2.41 1.25v7.94h-3.24v-12.14h3.06l.09 1.45c.65-1.11 1.55-1.67 2.7-1.67.36 0 .7.05 1.01.15l-.04 3.11zM795.8 143.83c0-.4-.2-.71-.59-.94-.39-.23-1.02-.43-1.89-.61-2.89-.61-4.33-1.83-4.33-3.68 0-1.08.45-1.98 1.34-2.7s2.06-1.08 3.51-1.08c1.54 0 2.77.36 3.7 1.09.92.73 1.39 1.67 1.39 2.83h-3.24c0-.46-.15-.85-.45-1.15-.3-.3-.77-.46-1.4-.46-.55 0-.97.12-1.27.37-.3.25-.45.56-.45.94 0 .36.17.65.51.87.34.22.91.41 1.72.57.81.16 1.49.34 2.04.54 1.71.63 2.57 1.72 2.57 3.27 0 1.11-.48 2-1.42 2.69-.95.68-2.18 1.03-3.68 1.03-1.02 0-1.92-.18-2.71-.54-.79-.36-1.41-.86-1.86-1.49-.45-.63-.67-1.31-.67-2.05h3.08c.03.58.24 1.02.64 1.32.4.31.93.46 1.59.46.62 0 1.09-.12 1.41-.35.31-.24.46-.55.46-.93zM806.63 147.41c-1.78 0-3.23-.55-4.35-1.64-1.12-1.09-1.68-2.55-1.68-4.36v-.31c0-1.22.24-2.31.71-3.27s1.14-1.7 2-2.22 1.85-.78 2.96-.78c1.66 0 2.97.52 3.92 1.57.95 1.05 1.43 2.53 1.43 4.45v1.32h-7.73c.1.79.42 1.43.95 1.91s1.19.72 2 .72c1.25 0 2.22-.45 2.93-1.36l1.59 1.78c-.49.69-1.14 1.23-1.97 1.61s-1.75.58-2.76.58zm-.37-9.98c-.64 0-1.17.22-1.57.65s-.66 1.06-.77 1.87h4.51v-.26c-.01-.72-.21-1.28-.58-1.67s-.9-.59-1.59-.59zM816.89 147.18h-3.25v-17.23h3.25v17.23zM820.44 147.18v-9.76h-1.81v-2.38h1.81v-1.03c0-1.36.39-2.42 1.17-3.17.78-.75 1.88-1.13 3.28-1.13.45 0 1 .08 1.65.22l-.03 2.51c-.27-.07-.6-.1-.99-.1-1.22 0-1.83.57-1.83 1.72v.98h2.41v2.38h-2.41v9.76h-3.25z"/></svg>