<svg id="Layer_1" xmlns="http://www.w3.org/2000/svg" viewBox="0 0 320 50"><style>.st0{fill:url(#SVGID_1_)}</style><linearGradient id="SVGID_1_" gradientUnits="userSpaceOnUse" x1="101.73" y1="26.109" x2="242.539" y2="26.109"><stop offset="0" stop-color="#18b9fb"/><stop offset=".5" stop-color="#782eeb"/><stop offset="1" stop-color="#e82d8a"/></linearGradient><path class="st0" d="M104.56 20.46h-.9v2.44H102v-6.89h2.71c.82 0 1.46.18 1.92.54.46.36.69.88.69 1.54 0 .48-.1.88-.29 1.19-.19.32-.5.57-.91.77l1.44 2.78v.07h-1.78l-1.22-2.44zm-.9-1.28h1.05c.32 0 .55-.08.71-.25s.24-.4.24-.69c0-.3-.08-.53-.24-.7-.16-.17-.4-.25-.71-.25h-1.05v1.89zm7.07 3.81c-.79 0-1.42-.23-1.91-.7s-.73-1.08-.73-1.83v-.13c0-.52.1-.99.29-1.39.19-.4.48-.71.85-.93.37-.22.81-.33 1.32-.33.72 0 1.29.22 1.7.67.42.45.62 1.07.62 1.87v.62h-3.17c.06.29.18.51.37.68s.44.25.75.25c.5 0 .9-.18 1.18-.53l.73.86c-.2.27-.48.49-.84.65-.35.16-.74.24-1.16.24zm-.18-4.08c-.47 0-.74.31-.83.93h1.61v-.12c.01-.25-.06-.45-.19-.59-.15-.15-.34-.22-.59-.22zM115.5 21l.81-3.22h1.68l-1.67 5.12h-1.63l-1.67-5.12h1.68l.8 3.22zm2.95-4.54c0-.23.08-.41.25-.56.16-.15.38-.22.64-.22s.47.07.64.22c.16.14.25.33.25.56 0 .23-.08.41-.25.56-.16.14-.38.22-.64.22s-.47-.07-.64-.22a.735.735 0 0 1-.25-.56zm1.7 6.44h-1.6v-5.12h1.6v5.12zm3.45.09c-.79 0-1.42-.23-1.91-.7s-.73-1.08-.73-1.83v-.13c0-.52.1-.99.29-1.39.19-.4.48-.71.85-.93.37-.22.81-.33 1.32-.33.72 0 1.29.22 1.7.67.42.45.62 1.07.62 1.87v.62h-3.17c.06.29.18.51.37.68s.44.25.75.25c.5 0 .9-.18 1.18-.53l.73.86c-.2.27-.48.49-.84.65-.34.16-.74.24-1.16.24zm-.17-4.08c-.47 0-.74.31-.83.93h1.61v-.12c.01-.25-.06-.45-.19-.59-.15-.15-.34-.22-.59-.22zm7.39 1.89l.52-3.02h1.53l-1.21 5.12h-1.35l-.85-3.04-.85 3.04h-1.35l-1.21-5.12h1.53l.51 3.09.81-3.09h1.11l.81 3.02zm7.07-.14l.85-2.89h1.71l-2.09 5.97-.09.22c-.3.66-.82.99-1.57.99-.21 0-.43-.03-.66-.09v-1.14h.21c.22 0 .39-.03.51-.1s.21-.18.26-.35l.13-.34-1.78-5.17h1.7l.82 2.9zm2.71-.37c0-.51.1-.97.3-1.36.2-.4.48-.71.86-.92s.81-.32 1.31-.32c.77 0 1.37.24 1.81.71.44.47.66 1.12.66 1.94v.06c0 .8-.22 1.43-.66 1.9-.44.47-1.04.7-1.8.7-.73 0-1.31-.22-1.75-.66s-.68-1.03-.71-1.78l-.02-.27zm1.59.1c0 .47.07.82.22 1.04.15.22.37.33.66.33.57 0 .86-.44.87-1.31v-.16c0-.92-.29-1.38-.88-1.38-.53 0-.82.4-.87 1.19v.29zm7.09 1.95c-.34.43-.79.65-1.37.65-.56 0-.99-.16-1.28-.49-.29-.33-.43-.8-.43-1.41v-3.32h1.59v3.33c0 .44.21.66.64.66.37 0 .63-.13.78-.39v-3.59h1.6v5.12h-1.49l-.04-.56zm5.51-3.12l-.53-.04c-.5 0-.82.16-.96.47v3.24h-1.59v-5.12h1.49l.05.66c.27-.5.64-.75 1.12-.75.17 0 .32.02.45.06l-.03 1.48zm4.85-2.71v1.27h.84v1.11h-.84v2.34c0 .19.03.33.1.4.07.08.21.11.41.11.16 0 .29-.01.4-.03v1.14c-.29.09-.59.14-.9.14-.55 0-.95-.13-1.21-.39s-.39-.65-.39-1.18v-2.54h-.65v-1.11h.65V16.5h1.59zm4.56 2.71l-.53-.04c-.5 0-.82.16-.96.47v3.24h-1.59v-5.12h1.49l.05.66c.27-.5.64-.75 1.12-.75.17 0 .32.02.45.06l-.03 1.48zm.57-2.76c0-.23.08-.41.25-.56.16-.15.38-.22.64-.22s.47.07.64.22c.16.14.25.33.25.56 0 .23-.08.41-.25.56-.16.14-.38.22-.64.22s-.47-.07-.64-.22a.703.703 0 0 1-.25-.56zm1.69 6.44h-1.6v-5.12h1.6v5.12zm5.73-2.53c0 .79-.18 1.43-.54 1.9-.36.47-.84.71-1.45.71-.47 0-.86-.17-1.16-.52v2.39h-1.59v-7.09h1.49l.05.47c.31-.38.71-.57 1.21-.57.63 0 1.12.23 1.47.7.35.46.53 1.1.53 1.92v.09zm-1.59-.09c0-.91-.27-1.36-.79-1.36-.38 0-.63.14-.76.41v2.02c.14.28.39.43.77.43.51 0 .77-.44.79-1.32v-.18zm3.97 2.62h-1.6v-7.26h1.6v7.26zm3.46.09c-.79 0-1.42-.23-1.91-.7s-.73-1.08-.73-1.83v-.13c0-.52.1-.99.29-1.39.19-.4.48-.71.85-.93.37-.22.81-.33 1.32-.33.72 0 1.29.22 1.7.67.42.45.62 1.07.62 1.87v.62H177c.06.29.18.51.37.68s.44.25.75.25c.5 0 .9-.18 1.18-.53l.73.86c-.2.27-.48.49-.84.65-.35.16-.74.24-1.16.24zm-.18-4.08c-.47 0-.74.31-.83.93h1.61v-.12c.01-.25-.06-.45-.19-.59-.14-.15-.34-.22-.59-.22zm6.09 1.63h-2.84v-1.23h2.84v1.23zm6-.16c0 .84-.17 1.48-.52 1.93-.35.45-.84.68-1.47.68-.52 0-.94-.21-1.26-.62l-.07.53h-1.43v-7.26h1.59v2.56c.3-.34.68-.51 1.15-.51.64 0 1.13.23 1.48.69.35.46.52 1.1.52 1.93v.07zm-1.6-.1c0-.49-.07-.84-.2-1.05-.13-.21-.33-.31-.6-.31-.36 0-.61.14-.75.41v2.03c.14.27.39.41.76.41.38 0 .61-.18.71-.55.05-.19.08-.5.08-.94zm5.35 2.06c-.34.43-.79.65-1.37.65-.56 0-.99-.16-1.28-.49-.29-.33-.43-.8-.43-1.41v-3.32h1.59v3.33c0 .44.21.66.64.66.37 0 .63-.13.78-.39v-3.59h1.6v5.12h-1.49l-.04-.56zm5.51-3.12l-.53-.04c-.5 0-.82.16-.96.47v3.24h-1.59v-5.12h1.49l.05.66c.27-.5.64-.75 1.12-.75.17 0 .32.02.45.06l-.03 1.48zm2.96 3.77c-.79 0-1.42-.23-1.91-.7s-.73-1.08-.73-1.83v-.13c0-.52.1-.99.29-1.39.19-.4.48-.71.85-.93.37-.22.81-.33 1.32-.33.72 0 1.29.22 1.7.67.42.45.62 1.07.62 1.87v.62h-3.17c.06.29.18.51.37.68s.44.25.75.25c.5 0 .9-.18 1.18-.53l.73.86c-.2.27-.48.49-.84.65-.35.16-.74.24-1.16.24zm-.18-4.08c-.47 0-.74.31-.83.93h1.61v-.12c.01-.25-.06-.45-.19-.59-.14-.15-.34-.22-.59-.22zm5.86 3.99c-.06-.1-.11-.26-.15-.46-.29.37-.7.55-1.23.55-.48 0-.89-.15-1.23-.44-.34-.29-.51-.66-.51-1.1 0-.56.21-.97.62-1.26.41-.28 1.01-.42 1.79-.42h.49v-.27c0-.47-.2-.71-.61-.71-.38 0-.57.19-.57.56h-1.59c0-.49.21-.9.63-1.2.42-.31.96-.46 1.61-.46.65 0 1.17.16 1.55.48.38.32.57.75.58 1.31v2.27c.01.47.08.83.22 1.08v.08h-1.6zm-1-1.05c.2 0 .36-.04.49-.13s.22-.18.28-.29v-.82h-.46c-.55 0-.83.25-.83.75 0 .14.05.26.15.35s.22.14.37.14zm6.31.49c-.34.43-.79.65-1.37.65-.56 0-.99-.16-1.28-.49-.29-.33-.43-.8-.43-1.41v-3.32h1.59v3.33c0 .44.21.66.64.66.37 0 .63-.13.78-.39v-3.59h1.6v5.12h-1.49l-.04-.56zM104.1 33.38c.22 0 .4-.06.52-.18s.18-.29.18-.51h1.5c0 .56-.2 1.02-.6 1.38-.4.36-.92.54-1.55.54-.74 0-1.33-.23-1.76-.7-.43-.47-.64-1.11-.64-1.94v-.07c0-.52.09-.97.29-1.37.19-.4.47-.7.83-.91.36-.21.79-.32 1.28-.32.67 0 1.19.18 1.58.55.39.37.59.87.59 1.5h-1.5c0-.27-.06-.47-.19-.61a.67.67 0 0 0-.52-.21c-.41 0-.65.26-.72.79-.02.17-.03.4-.03.69 0 .51.06.87.18 1.07.09.21.29.3.56.3zm5.96-2.54l-.53-.04c-.5 0-.82.16-.96.47v3.24h-1.59V29.4h1.49l.05.66c.27-.5.64-.75 1.12-.75.17 0 .32.02.45.06l-.03 1.47zm2.96 3.77c-.79 0-1.42-.23-1.91-.7s-.73-1.08-.73-1.83v-.13c0-.52.1-.99.29-1.39.19-.4.48-.71.85-.93.37-.22.81-.33 1.32-.33.72 0 1.29.22 1.7.67.42.45.62 1.07.62 1.87v.62h-3.17c.06.29.18.51.37.68s.44.25.75.25c.5 0 .9-.18 1.18-.53l.73.86c-.2.27-.48.49-.84.65-.35.16-.74.24-1.16.24zm-.18-4.07c-.47 0-.74.31-.83.93h1.61v-.12c.01-.25-.06-.45-.19-.59-.14-.15-.34-.22-.59-.22zm2.78 1.38c0-.81.17-1.45.52-1.92s.84-.7 1.47-.7c.46 0 .84.18 1.15.54v-2.59h1.6v7.26h-1.43l-.08-.55c-.33.43-.74.64-1.25.64-.61 0-1.09-.23-1.45-.7s-.53-1.12-.53-1.98zm1.59.1c0 .91.26 1.36.79 1.36.35 0 .61-.15.76-.45v-1.95c-.15-.3-.39-.45-.75-.45-.49 0-.76.4-.8 1.19v.3zm4.05-3.94c0-.23.08-.41.25-.56.16-.15.38-.22.64-.22s.47.07.64.22c.16.14.25.33.25.56 0 .23-.08.41-.25.56-.16.14-.38.22-.64.22s-.47-.07-.64-.22a.69.69 0 0 1-.25-.56zm1.69 6.44h-1.6V29.4h1.6v5.12zm2.84-6.39v1.27h.84v1.11h-.84v2.34c0 .19.03.33.1.4.07.08.21.11.41.11.16 0 .29-.01.4-.03v1.14c-.29.09-.59.14-.9.14-.55 0-.95-.13-1.21-.39s-.39-.65-.39-1.18V30.5h-.65v-1.1h.65v-1.27h1.59zm6.97 2.71l-.53-.04c-.5 0-.82.16-.96.47v3.24h-1.59V29.4h1.49l.05.66c.27-.5.64-.75 1.12-.75.17 0 .32.02.45.06l-.03 1.47zm2.96 3.77c-.79 0-1.42-.23-1.91-.7s-.73-1.08-.73-1.83v-.13c0-.52.1-.99.29-1.39.19-.4.48-.71.85-.93.37-.22.81-.33 1.32-.33.72 0 1.29.22 1.7.67.42.45.62 1.07.62 1.87v.62h-3.17c.06.29.18.51.37.68s.44.25.75.25c.5 0 .9-.18 1.18-.53l.73.86c-.2.27-.48.49-.84.65-.35.16-.74.24-1.16.24zm-.18-4.07c-.47 0-.74.31-.83.93h1.61v-.12c.01-.25-.06-.45-.19-.59-.14-.15-.33-.22-.59-.22zm7.73 1.46c0 .79-.18 1.43-.54 1.9-.36.47-.84.71-1.45.71-.47 0-.86-.17-1.16-.52v2.39h-1.59V29.4h1.49l.05.47c.31-.38.71-.57 1.21-.57.63 0 1.12.23 1.47.7.35.46.53 1.1.53 1.92V32zm-1.59-.1c0-.91-.27-1.36-.79-1.36-.38 0-.63.14-.76.41v2.02c.14.28.39.43.77.43.51 0 .77-.44.79-1.32v-.18zm2.09.01c0-.51.1-.97.3-1.36s.48-.71.86-.92.81-.32 1.31-.32c.77 0 1.37.24 1.81.71s.66 1.12.66 1.94v.06c0 .8-.22 1.43-.66 1.9-.44.47-1.04.7-1.8.7-.73 0-1.31-.22-1.75-.66s-.68-1.03-.71-1.78l-.02-.27zm1.6.1c0 .47.07.82.22 1.04.15.22.37.33.66.33.57 0 .86-.44.87-1.31v-.16c0-.92-.29-1.38-.88-1.38-.53 0-.82.4-.87 1.19v.29zm7.14-1.17l-.53-.04c-.5 0-.82.16-.96.47v3.24h-1.59V29.4h1.49l.05.66c.27-.5.64-.75 1.12-.75.17 0 .32.02.45.06l-.03 1.47zm2.67-2.71v1.27h.84v1.11h-.84v2.34c0 .19.03.33.1.4.07.08.21.11.41.11.16 0 .29-.01.4-.03v1.14c-.29.09-.59.14-.9.14-.55 0-.95-.13-1.21-.39s-.39-.65-.39-1.18V30.5h-.65v-1.1h.65v-1.27h1.59zm4.14 4.95c0-.14-.07-.25-.21-.33-.14-.08-.41-.17-.81-.25s-.72-.2-.98-.35-.46-.32-.59-.52c-.13-.21-.2-.44-.2-.71 0-.47.19-.86.58-1.16s.9-.46 1.52-.46c.67 0 1.22.15 1.63.46.41.31.61.71.61 1.21h-1.6c0-.41-.22-.61-.65-.61-.17 0-.31.05-.42.14a.44.44 0 0 0-.17.35c0 .14.07.26.21.34.14.09.36.16.67.22.3.06.57.12.8.2.77.27 1.15.74 1.15 1.42 0 .47-.21.85-.62 1.14-.42.29-.95.44-1.61.44-.44 0-.83-.08-1.17-.24-.34-.16-.61-.37-.8-.64s-.29-.56-.29-.86h1.49c.01.24.08.41.24.52.15.11.35.16.58.16.22 0 .38-.04.49-.13.1-.08.15-.2.15-.34zm5.72-2.19c-.19-.26-.33-.52-.44-.76-.11-.24-.16-.49-.16-.74 0-.56.18-1 .54-1.35s.83-.51 1.41-.51c.52 0 .95.16 1.29.48.34.32.51.71.51 1.18 0 .59-.32 1.11-.97 1.56l-.35.25 1.06 1.21c.17-.35.26-.73.26-1.14h1.34c0 .93-.21 1.68-.64 2.24l1.05 1.21h-1.78l-.32-.36c-.26.16-.54.27-.81.35-.28.08-.59.11-.93.11-.68 0-1.23-.18-1.64-.54s-.62-.83-.62-1.41c0-.32.08-.61.24-.87.16-.26.48-.56.95-.9l.01-.01zm1.15 2.5c.28 0 .54-.06.79-.19l-1.24-1.41-.04.03c-.18.22-.27.47-.27.75 0 .23.07.43.22.59.15.15.33.23.54.23zm-.37-4.02c0 .22.12.49.36.8l.32-.2c.15-.09.25-.19.32-.29.07-.1.1-.23.1-.38s-.05-.27-.15-.38a.485.485 0 0 0-.37-.16c-.18 0-.32.06-.42.17-.11.11-.16.26-.16.44zm9.82 3.71c0-.14-.07-.25-.21-.33-.14-.08-.41-.17-.81-.25s-.72-.2-.98-.35-.46-.32-.59-.52c-.13-.21-.2-.44-.2-.71 0-.47.19-.86.58-1.16s.9-.46 1.52-.46c.67 0 1.22.15 1.63.46.41.31.61.71.61 1.21h-1.6c0-.41-.22-.61-.65-.61-.17 0-.31.05-.42.14a.44.44 0 0 0-.17.35c0 .14.07.26.21.34.14.09.36.16.67.22.3.06.57.12.8.2.77.27 1.15.74 1.15 1.42 0 .47-.21.85-.62 1.14-.42.29-.95.44-1.61.44-.44 0-.83-.08-1.17-.24-.34-.16-.61-.37-.8-.64s-.29-.56-.29-.86h1.49c.01.24.08.41.24.52.15.11.35.16.58.16.22 0 .38-.04.49-.13.09-.08.15-.2.15-.34zm4.45.3c.22 0 .4-.06.52-.18s.18-.29.18-.51h1.5c0 .56-.2 1.02-.6 1.38-.4.36-.92.54-1.55.54-.74 0-1.33-.23-1.76-.7-.43-.47-.64-1.11-.64-1.94v-.07c0-.52.09-.97.29-1.37.19-.4.47-.7.83-.91.36-.21.79-.32 1.28-.32.67 0 1.19.18 1.58.55.39.37.59.87.59 1.5h-1.5c0-.27-.06-.47-.19-.61a.67.67 0 0 0-.52-.21c-.41 0-.65.26-.72.79-.02.17-.03.4-.03.69 0 .51.06.87.18 1.07.09.21.29.3.56.3zm2.66-1.47c0-.51.1-.97.3-1.36s.48-.71.86-.92.81-.32 1.31-.32c.77 0 1.37.24 1.81.71s.66 1.12.66 1.94v.06c0 .8-.22 1.43-.66 1.9-.44.47-1.04.7-1.8.7-.73 0-1.31-.22-1.75-.66s-.68-1.03-.71-1.78l-.02-.27zm1.6.1c0 .47.07.82.22 1.04.15.22.37.33.66.33.57 0 .86-.44.87-1.31v-.16c0-.92-.29-1.38-.88-1.38-.53 0-.82.4-.87 1.19v.29zm7.14-1.17l-.53-.04c-.5 0-.82.16-.96.47v3.24h-1.59V29.4h1.49l.05.66c.27-.5.64-.75 1.12-.75.17 0 .32.02.45.06l-.03 1.47zm2.96 3.77c-.79 0-1.42-.23-1.91-.7s-.73-1.08-.73-1.83v-.13c0-.52.1-.99.29-1.39.19-.4.48-.71.85-.93.37-.22.81-.33 1.32-.33.72 0 1.29.22 1.7.67.42.45.62 1.07.62 1.87v.62h-3.17c.06.29.18.51.37.68s.44.25.75.25c.5 0 .9-.18 1.18-.53l.73.86c-.2.27-.48.49-.84.65-.35.16-.74.24-1.16.24zm-.18-4.07c-.47 0-.74.31-.83.93h1.61v-.12c.01-.25-.06-.45-.19-.59-.14-.15-.34-.22-.59-.22zm5.66 2.54c0-.14-.07-.25-.21-.33-.14-.08-.41-.17-.81-.25s-.72-.2-.98-.35-.46-.32-.59-.52c-.13-.21-.2-.44-.2-.71 0-.47.19-.86.58-1.16s.9-.46 1.52-.46c.67 0 1.22.15 1.63.46.41.31.61.71.61 1.21h-1.6c0-.41-.22-.61-.65-.61-.17 0-.31.05-.42.14a.44.44 0 0 0-.17.35c0 .14.07.26.21.34.14.09.36.16.67.22.3.06.57.12.8.2.77.27 1.15.74 1.15 1.42 0 .47-.21.85-.62 1.14-.42.29-.95.44-1.61.44-.44 0-.83-.08-1.17-.24-.34-.16-.61-.37-.8-.64s-.29-.56-.29-.86h1.49c.01.24.08.41.24.52.15.11.35.16.58.16.22 0 .38-.04.49-.13.09-.08.15-.2.15-.34zm2.84 3.29l-.8-.38.16-.32c.22-.41.34-.8.35-1.17v-1.18h1.28v1.03c0 .36-.1.73-.28 1.11-.2.37-.43.67-.71.91zm5.97-6.97l.05.6c.36-.46.85-.7 1.46-.7.65 0 1.08.26 1.31.77.35-.51.85-.77 1.5-.77 1.04 0 1.57.63 1.6 1.88v3.33h-1.6v-3.23c0-.26-.04-.45-.13-.57-.09-.12-.25-.18-.48-.18a.74.74 0 0 0-.7.42v3.57h-1.6V31.3c0-.27-.04-.46-.13-.58s-.25-.18-.49-.18c-.31 0-.54.14-.7.42v3.56h-1.59V29.4h1.5zm6.63 2.51c0-.51.1-.97.3-1.36s.48-.71.86-.92.81-.32 1.31-.32c.77 0 1.37.24 1.81.71s.66 1.12.66 1.94v.06c0 .8-.22 1.43-.66 1.9-.44.47-1.04.7-1.8.7-.73 0-1.31-.22-1.75-.66s-.68-1.03-.71-1.78l-.02-.27zm1.6.1c0 .47.07.82.22 1.04.15.22.37.33.66.33.57 0 .86-.44.87-1.31v-.16c0-.92-.29-1.38-.88-1.38-.53 0-.82.4-.87 1.19v.29zm5.51-2.61l.05.6c.35-.46.84-.7 1.46-.7.53 0 .93.16 1.19.48.26.32.4.8.41 1.44v3.3H224v-3.23c0-.26-.05-.45-.16-.57-.1-.12-.29-.18-.57-.18-.31 0-.54.12-.7.37v3.61h-1.59V29.4h1.5zm5.85-1.27v1.27h.84v1.11h-.84v2.34c0 .19.03.33.1.4.07.08.21.11.41.11.16 0 .29-.01.4-.03v1.14c-.29.09-.59.14-.9.14-.55 0-.95-.13-1.21-.39s-.39-.65-.39-1.18V30.5h-.65v-1.1h.65v-1.27h1.59zm3.03 1.82c.34-.43.78-.64 1.3-.64.56 0 .99.17 1.28.5s.43.83.44 1.48v3.23h-1.6v-3.19c0-.27-.05-.47-.17-.6s-.3-.19-.56-.19c-.33 0-.56.1-.7.31v3.67h-1.59v-7.26h1.59v2.69zm5.59 4.57h-1.6v-7.26h1.6v7.26zm3.03-2.23l.85-2.89h1.71l-2.09 5.97-.09.22c-.3.66-.82.99-1.57.99-.21 0-.43-.03-.66-.09v-1.14h.21c.22 0 .39-.03.51-.1s.21-.18.26-.35l.13-.34-1.78-5.17h1.7l.82 2.9z"/></svg>