<svg id="Layer_1" xmlns="http://www.w3.org/2000/svg" viewBox="0 0 320 50"><style>.st0{fill:url(#SVGID_1_)}</style><linearGradient id="SVGID_1_" gradientUnits="userSpaceOnUse" x1="101.745" y1="25.697" x2="239.156" y2="25.697"><stop offset="0" stop-color="#18b9fb"/><stop offset=".5" stop-color="#782eeb"/><stop offset="1" stop-color="#e82d8a"/></linearGradient><path class="st0" d="M105.26 18.32h-1.1v2.98h-2.03v-8.44h3.32c1 0 1.78.22 2.35.67.56.44.85 1.07.85 1.88 0 .59-.12 1.07-.36 1.46-.24.39-.61.7-1.12.94l1.76 3.41v.09h-2.18l-1.49-2.99zm-1.1-1.56h1.29c.39 0 .68-.1.87-.31.2-.2.29-.49.29-.85s-.1-.65-.3-.86c-.2-.21-.49-.31-.87-.31h-1.29v2.33zm8.65 4.66c-.96 0-1.74-.29-2.33-.86-.59-.57-.89-1.32-.89-2.24v-.16c0-.64.12-1.21.36-1.7s.58-.87 1.04-1.14c.46-.27 1-.4 1.62-.4.88 0 1.58.27 2.09.82.51.55.76 1.31.76 2.29v.76h-3.88c.07.35.22.63.46.83.24.2.54.3.92.3.62 0 1.1-.22 1.45-.65l.89 1.05c-.24.34-.59.6-1.03.8s-.95.3-1.46.3zm-.22-4.99c-.57 0-.91.38-1.02 1.14h1.97v-.15c.01-.31-.07-.55-.24-.73s-.4-.26-.71-.26zm6.3 3.49c.27 0 .49-.07.64-.22.15-.15.22-.36.22-.62h1.83c0 .69-.25 1.25-.74 1.69-.49.44-1.13.66-1.9.66-.91 0-1.63-.29-2.16-.86-.53-.57-.79-1.36-.79-2.38v-.08c0-.63.12-1.19.35-1.68.23-.48.57-.86 1.01-1.12.44-.26.96-.39 1.56-.39.82 0 1.46.23 1.94.68.48.45.72 1.06.72 1.84h-1.83c0-.32-.08-.57-.24-.75a.836.836 0 0 0-.64-.26c-.51 0-.8.32-.89.97-.03.21-.04.49-.04.85 0 .63.08 1.07.23 1.31s.4.36.73.36zm6.54 1.5c-.96 0-1.74-.29-2.33-.86-.59-.57-.89-1.32-.89-2.24v-.16c0-.64.12-1.21.36-1.7s.58-.87 1.04-1.14c.46-.27 1-.4 1.62-.4.88 0 1.58.27 2.09.82.51.55.76 1.31.76 2.29v.76h-3.88c.07.35.22.63.46.83.24.2.54.3.92.3.62 0 1.1-.22 1.45-.65l.89 1.05c-.24.34-.59.6-1.03.8s-.94.3-1.46.3zm-.22-4.99c-.57 0-.91.38-1.02 1.14h1.97v-.15c.01-.31-.07-.55-.24-.73s-.4-.26-.71-.26zm3.64-3.01c0-.28.1-.51.3-.68.2-.18.46-.27.78-.27s.58.09.78.27c.2.18.3.41.3.68 0 .28-.1.51-.3.68-.2.18-.46.27-.78.27s-.58-.09-.78-.27c-.2-.18-.3-.4-.3-.68zm2.07 7.89h-1.96v-6.27h1.96v6.27zm3.71-2.33l.99-3.95h2.06l-2.05 6.27h-1.99l-2.05-6.27h2.06l.98 3.95zm6.58 2.44c-.96 0-1.74-.29-2.33-.86-.59-.57-.89-1.32-.89-2.24v-.16c0-.64.12-1.21.36-1.7s.58-.87 1.04-1.14c.46-.27 1-.4 1.62-.4.88 0 1.58.27 2.09.82.51.55.76 1.31.76 2.29v.76h-3.88c.07.35.22.63.46.83.24.2.54.3.92.3.62 0 1.1-.22 1.45-.65l.89 1.05c-.24.34-.59.6-1.03.8s-.94.3-1.46.3zm-.22-4.99c-.57 0-.91.38-1.02 1.14h1.97v-.15c.01-.31-.07-.55-.24-.73s-.4-.26-.71-.26zm9.26 3.49c.27 0 .49-.07.64-.22.15-.15.22-.36.22-.62h1.83c0 .69-.25 1.25-.74 1.69-.49.44-1.13.66-1.9.66-.91 0-1.63-.29-2.16-.86-.53-.57-.79-1.36-.79-2.38v-.08c0-.63.12-1.19.35-1.68.23-.48.57-.86 1.01-1.12.44-.26.96-.39 1.56-.39.82 0 1.46.23 1.94.68.48.45.72 1.06.72 1.84h-1.83c0-.32-.08-.57-.24-.75a.836.836 0 0 0-.64-.26c-.51 0-.8.32-.89.97-.03.21-.04.49-.04.85 0 .63.08 1.07.23 1.31s.4.36.73.36zm7.31-3.12l-.64-.05c-.61 0-1.01.19-1.18.58v3.97h-1.95v-6.27h1.83l.06.81c.33-.61.79-.92 1.37-.92.21 0 .39.02.54.07l-.03 1.81zm3.62 4.62c-.96 0-1.74-.29-2.33-.86-.59-.57-.89-1.32-.89-2.24v-.16c0-.64.12-1.21.36-1.7s.58-.87 1.04-1.14c.46-.27 1-.4 1.62-.4.88 0 1.58.27 2.09.82.51.55.76 1.31.76 2.29v.76h-3.88c.07.35.22.63.46.83.24.2.54.3.92.3.62 0 1.1-.22 1.45-.65l.89 1.05c-.24.34-.59.6-1.03.8s-.94.3-1.46.3zm-.22-4.99c-.57 0-.91.38-1.02 1.14h1.97v-.15c.01-.31-.07-.55-.24-.73s-.4-.26-.71-.26zm3.41 1.69c0-.99.21-1.78.64-2.35.43-.57 1.03-.86 1.8-.86.56 0 1.03.22 1.41.66V12.4h1.96v8.9h-1.76l-.1-.67c-.4.53-.91.79-1.53.79-.75 0-1.34-.29-1.77-.86-.44-.57-.65-1.38-.65-2.44zm1.95.13c0 1.11.33 1.67.97 1.67.43 0 .74-.18.93-.54v-2.39c-.18-.37-.48-.56-.92-.56-.6 0-.93.49-.98 1.46v.36zm4.95-4.83c0-.28.1-.51.3-.68.2-.18.46-.27.78-.27s.58.09.78.27c.2.18.3.41.3.68 0 .28-.1.51-.3.68-.2.18-.46.27-.78.27s-.58-.09-.78-.27c-.2-.18-.3-.4-.3-.68zm2.08 7.89h-1.96v-6.27h1.96v6.27zm3.47-7.83v1.56h1.03v1.36h-1.03v2.87c0 .24.04.4.13.49s.25.14.5.14c.19 0 .36-.01.49-.04v1.4c-.35.11-.72.17-1.1.17-.67 0-1.17-.16-1.49-.48-.32-.32-.48-.8-.48-1.44V16.4h-.8v-1.36h.8v-1.56h1.95zm6.61 1.56l.06.74c.44-.57 1.04-.85 1.79-.85.79 0 1.33.31 1.6.94.43-.63 1.04-.94 1.84-.94 1.27 0 1.92.77 1.96 2.31v4.08h-1.96v-3.96c0-.32-.05-.55-.16-.7-.11-.15-.3-.22-.59-.22-.39 0-.67.17-.86.52l.01.08v4.28h-1.96v-3.95c0-.33-.05-.57-.16-.71s-.3-.22-.6-.22c-.38 0-.66.17-.86.52v4.36h-1.95v-6.27h1.84zm8.13 3.07c0-.63.12-1.18.36-1.67s.59-.86 1.05-1.13c.46-.26.99-.39 1.61-.39.94 0 1.68.29 2.22.87.54.58.81 1.37.81 2.37v.07c0 .98-.27 1.75-.81 2.33-.54.57-1.28.86-2.21.86-.89 0-1.61-.27-2.15-.8-.54-.54-.83-1.26-.88-2.18v-.33zm1.95.12c0 .58.09 1 .27 1.27.18.27.45.41.81.41.7 0 1.05-.54 1.07-1.61v-.2c0-1.12-.36-1.69-1.08-1.69-.65 0-1.01.48-1.06 1.45l-.01.37zm6.75-3.19l.06.74c.43-.57 1.03-.85 1.79-.85.65 0 1.14.19 1.46.58.32.39.49.98.5 1.76v4.04h-1.96v-3.96c0-.32-.06-.55-.19-.7-.13-.15-.36-.22-.7-.22-.38 0-.67.15-.85.45v4.43h-1.95v-6.27h1.84zm4.89-1.62c0-.28.1-.51.3-.68.2-.18.46-.27.78-.27s.58.09.78.27c.2.18.3.41.3.68 0 .28-.1.51-.3.68-.2.18-.46.27-.78.27s-.58-.09-.78-.27c-.2-.18-.3-.4-.3-.68zm2.07 7.89h-1.96v-6.27h1.96v6.27zm3.48-7.83v1.56h1.03v1.36h-1.03v2.87c0 .24.04.4.13.49s.25.14.5.14c.19 0 .36-.01.49-.04v1.4c-.35.11-.72.17-1.1.17-.67 0-1.17-.16-1.49-.48-.32-.32-.48-.8-.48-1.44V16.4h-.8v-1.36h.8v-1.56h1.95zm1.38 4.63c0-.63.12-1.18.36-1.67s.59-.86 1.05-1.13c.46-.26.99-.39 1.61-.39.94 0 1.68.29 2.22.87.54.58.81 1.37.81 2.37v.07c0 .98-.27 1.75-.81 2.33-.54.57-1.28.86-2.21.86-.89 0-1.61-.27-2.15-.8-.54-.54-.83-1.26-.88-2.18v-.33zm1.95.12c0 .58.09 1 .27 1.27.18.27.45.41.81.41.7 0 1.05-.54 1.07-1.61v-.2c0-1.12-.36-1.69-1.08-1.69-.65 0-1.01.48-1.06 1.45l-.01.37zm8.75-1.43l-.64-.05c-.61 0-1.01.19-1.18.58v3.97H219v-6.27h1.83l.06.81c.33-.61.79-.92 1.37-.92.21 0 .39.02.54.07l-.02 1.81zm.69-3.38c0-.28.1-.51.3-.68.2-.18.46-.27.78-.27s.58.09.78.27c.2.18.3.41.3.68 0 .28-.1.51-.3.68-.2.18-.46.27-.78.27s-.58-.09-.78-.27c-.2-.18-.3-.4-.3-.68zm2.07 7.89h-1.96v-6.27h1.96v6.27zm3-6.27l.06.74c.43-.57 1.03-.85 1.79-.85.65 0 1.14.19 1.46.58.32.39.49.98.5 1.76v4.04h-1.96v-3.96c0-.32-.06-.55-.19-.7-.13-.15-.36-.22-.7-.22-.38 0-.67.15-.85.45v4.43h-1.95v-6.27h1.84zm4.67 3.08c0-.63.1-1.19.31-1.68s.51-.86.9-1.13c.39-.26.84-.4 1.36-.4.65 0 1.16.22 1.53.66l.07-.54h1.77v6.03c0 .55-.13 1.03-.39 1.44-.26.41-.63.72-1.12.94-.49.22-1.05.33-1.69.33-.46 0-.91-.09-1.34-.26s-.76-.4-.99-.68l.82-1.15c.36.43.84.64 1.44.64.87 0 1.3-.44 1.3-1.33v-.2c-.38.41-.85.62-1.42.62-.76 0-1.38-.29-1.85-.88-.47-.59-.71-1.37-.71-2.35v-.06zm1.96.13c0 .51.1.92.29 1.22s.46.45.81.45c.42 0 .73-.14.92-.42v-2.64c-.19-.29-.49-.43-.91-.43-.35 0-.62.16-.82.47-.19.3-.29.76-.29 1.35zM105.56 36.72c-.07-.13-.13-.31-.19-.56-.36.45-.86.68-1.51.68-.59 0-1.09-.18-1.51-.54s-.62-.81-.62-1.35c0-.68.25-1.19.75-1.54.5-.35 1.23-.52 2.19-.52h.6v-.33c0-.58-.25-.87-.75-.87-.46 0-.7.23-.7.69h-1.95c0-.61.26-1.1.77-1.48.52-.38 1.17-.57 1.97-.57s1.43.19 1.9.58c.46.39.7.92.71 1.61v2.78c.01.58.1 1.02.27 1.32v.1h-1.93zm-1.22-1.28c.24 0 .44-.05.61-.16.16-.1.27-.22.34-.35v-1h-.57c-.68 0-1.02.3-1.02.92 0 .18.06.32.18.43.12.11.28.16.46.16zm6.05 1.28h-1.96v-8.9h1.96v8.9zm4.24.11c-.96 0-1.74-.29-2.33-.86-.59-.57-.89-1.32-.89-2.24v-.16c0-.64.12-1.21.36-1.7s.58-.87 1.04-1.14 1-.4 1.62-.4c.88 0 1.58.27 2.09.82.51.55.76 1.31.76 2.29v.76h-3.88c.07.35.22.63.46.83.24.2.54.3.92.3.62 0 1.1-.22 1.45-.65l.89 1.05c-.24.34-.59.6-1.03.8s-.95.3-1.46.3zm-.22-4.99c-.57 0-.91.38-1.02 1.14h1.97v-.15c.01-.31-.07-.55-.24-.73s-.4-.26-.71-.26zm7.44.37l-.64-.05c-.61 0-1.01.19-1.18.58v3.97h-1.95v-6.27h1.83l.06.81c.33-.61.79-.92 1.37-.92.21 0 .39.02.54.07l-.03 1.81zm3.27-3.32v1.56h1.03v1.36h-1.03v2.87c0 .24.04.4.13.49s.25.14.5.14c.19 0 .36-.01.49-.04v1.4c-.35.11-.72.17-1.1.17-.67 0-1.17-.16-1.49-.48-.32-.32-.48-.8-.48-1.44V31.8h-.8v-1.36h.8v-1.56h1.95zm5.08 6.07c0-.17-.09-.3-.26-.4s-.5-.21-.99-.31c-.49-.11-.89-.25-1.21-.43-.32-.18-.56-.39-.72-.64-.17-.25-.25-.54-.25-.86 0-.58.24-1.05.71-1.42.48-.37 1.1-.56 1.87-.56.83 0 1.49.19 1.99.56.5.38.75.87.75 1.48h-1.96c0-.5-.26-.75-.79-.75-.21 0-.38.06-.52.17s-.21.26-.21.43c0 .17.08.32.26.42.17.11.44.2.81.27.37.07.7.15.98.25.94.32 1.41.91 1.41 1.74 0 .57-.25 1.04-.76 1.4-.51.36-1.17.54-1.97.54-.54 0-1.02-.1-1.44-.29-.42-.19-.75-.46-.98-.79-.24-.33-.35-.68-.35-1.05h1.83c.01.29.1.5.29.63.19.13.42.2.71.2.27 0 .47-.05.6-.16.13-.12.2-.26.2-.43zm3.48 4.03l-.99-.46.2-.39c.27-.5.41-.98.42-1.44v-1.45h1.56l-.01 1.26c0 .44-.12.9-.34 1.36-.21.45-.5.83-.84 1.12zm12.61-2.27h-7.07v-1.53l3.25-3.42c.8-.91 1.2-1.64 1.2-2.18 0-.44-.09-.77-.29-.99-.19-.23-.47-.34-.83-.34s-.65.15-.87.46-.33.68-.33 1.14H139c0-.62.16-1.2.47-1.72s.74-.94 1.29-1.23 1.17-.45 1.85-.45c1.09 0 1.94.25 2.53.76.59.5.89 1.23.89 2.18 0 .4-.07.79-.22 1.17s-.38.77-.69 1.19c-.31.42-.82.97-1.51 1.67l-1.31 1.51h3.99v1.78zm7.37-3.96h1.03v1.81h-1.03v2.15h-2.34v-2.15h-3.92l-.14-1.43 4.05-6.52v-.02h2.34v6.16zm-4.17 0h1.82v-3.12l-.15.24-1.67 2.88zm7.07 4.83h-1.66l3.46-10.99h1.67l-3.47 10.99zm11.19-9.75l-3.78 8.87h-2.48l3.79-8.32h-4.83v-1.81h7.29v1.26z"/></svg>