<svg id="Layer_1" xmlns="http://www.w3.org/2000/svg" viewBox="0 0 320 50"><style>.st0{fill:#edf4fd}.st1{fill:#021d8b}</style><path class="st0" d="M305.35 24.12h-41.57c-3.07 0-5.57-2.49-5.57-5.57 0-3.07 2.49-5.57 5.57-5.57h41.57c3.07 0 5.57 2.49 5.57 5.57-.01 3.08-2.5 5.57-5.57 5.57z"/><path class="st1" d="M267.92 19.28c-.03.35-.16.63-.39.83s-.54.3-.93.3c-.42 0-.75-.14-.99-.42s-.36-.67-.36-1.16v-.2c0-.31.06-.59.17-.83.11-.24.27-.42.48-.55.21-.13.45-.19.72-.19.38 0 .68.1.91.3.23.2.36.49.4.85h-.67c-.02-.21-.08-.36-.18-.46-.1-.1-.25-.14-.46-.14-.22 0-.39.08-.5.24-.11.16-.17.41-.17.75v.25c0 .35.05.61.16.78.11.16.28.24.51.24.21 0 .36-.05.47-.14s.16-.24.18-.44h.65zM269 20.37h-.65v-3.45h.65v3.45zM269.53 17.31c0-.1.03-.18.1-.24s.15-.09.27-.09c.11 0 .2.03.26.09s.1.14.1.24c0 .1-.03.18-.1.24s-.15.09-.26.09-.2-.03-.26-.09a.304.304 0 0 1-.11-.24zm.69 3.06h-.65v-2.43h.65v2.43zM271.77 19.9c.12 0 .22-.03.29-.1.07-.07.11-.15.12-.26h.61a.847.847 0 0 1-.49.77c-.15.08-.32.11-.51.11-.35 0-.62-.11-.82-.33-.2-.22-.3-.53-.3-.92v-.04c0-.37.1-.67.3-.9s.47-.33.82-.33c.3 0 .55.09.73.26s.28.4.28.69h-.61c0-.13-.04-.23-.12-.31a.392.392 0 0 0-.3-.12c-.15 0-.27.06-.34.17s-.12.29-.12.54v.07c0 .25.04.43.11.54s.19.16.35.16zM274.04 19.4l-.23.23v.74h-.65v-3.45h.65v1.91l.13-.16.62-.73h.78l-.88 1.01.95 1.42h-.75l-.62-.97zM277.54 17.35v.6h.42v.48h-.42v1.21c0 .09.02.15.05.19.04.04.1.06.2.06.07 0 .13-.01.19-.02v.49c-.13.04-.26.06-.39.06-.46 0-.69-.23-.7-.69v-1.31h-.36v-.48h.36v-.6h.65zM278.15 19.14c0-.24.05-.46.14-.64s.23-.33.4-.44c.17-.1.38-.15.61-.15.33 0 .6.1.8.3.21.2.32.47.35.82v.17c0 .37-.1.67-.31.9-.21.23-.49.34-.84.34s-.63-.11-.84-.34c-.21-.22-.31-.53-.31-.92v-.04zm.64.04c0 .23.04.41.13.53.09.12.21.18.37.18s.28-.06.37-.18c.09-.12.13-.31.13-.58 0-.23-.04-.4-.13-.53a.442.442 0 0 0-.37-.19c-.16 0-.28.06-.37.19-.08.13-.13.32-.13.58zM282.68 20.37h-.65v-3.45h.65v3.45zM284.33 20.42c-.36 0-.65-.11-.87-.33-.22-.22-.34-.51-.34-.87v-.06c0-.24.05-.46.14-.65.09-.19.23-.34.4-.44s.37-.16.59-.16c.33 0 .59.1.79.31.19.21.29.51.29.89v.27h-1.55a.56.56 0 0 0 .59.52c.25 0 .45-.09.59-.27l.32.36c-.1.14-.23.25-.4.32-.16.07-.34.11-.55.11zm-.07-2c-.13 0-.23.04-.31.13a.66.66 0 0 0-.15.37h.9v-.05c0-.14-.04-.26-.12-.33a.422.422 0 0 0-.32-.12zM287.11 20.37a.639.639 0 0 1-.06-.22c-.16.18-.36.26-.61.26-.24 0-.44-.07-.59-.21a.659.659 0 0 1-.24-.52c0-.26.1-.46.29-.59.19-.14.47-.21.83-.21h.3v-.14c0-.11-.03-.2-.09-.27s-.15-.1-.27-.1c-.11 0-.2.03-.26.08s-.09.12-.09.22h-.65c0-.14.04-.27.13-.39s.21-.21.37-.28c.16-.07.34-.1.53-.1.3 0 .54.08.71.23s.26.36.26.63v1.05c0 .23.03.41.1.52v.04h-.66zm-.54-.45c.1 0 .18-.02.26-.06.08-.04.14-.1.18-.17v-.42h-.24c-.33 0-.5.11-.52.34v.04c0 .08.03.15.08.2.07.05.14.07.24.07zM289.53 18.55c-.09-.01-.17-.02-.23-.02-.25 0-.41.08-.48.25v1.59h-.65v-2.43h.61l.02.29c.13-.22.31-.33.54-.33.07 0 .14.01.2.03l-.01.62zM290.44 17.94l.02.28c.17-.22.41-.33.7-.33.26 0 .45.08.58.23s.19.38.19.68v1.57h-.65v-1.55c0-.14-.03-.24-.09-.3s-.16-.09-.3-.09c-.18 0-.32.08-.41.23v1.71h-.65v-2.43h.61zM294.17 17.94l.02.27c.17-.21.41-.32.7-.32.31 0 .53.12.65.37.17-.25.41-.37.73-.37.26 0 .46.08.59.23s.19.38.19.69v1.55h-.65v-1.55c0-.14-.03-.24-.08-.3s-.15-.1-.29-.1c-.2 0-.33.09-.4.28v1.67h-.65v-1.55c0-.14-.03-.24-.08-.31s-.15-.09-.28-.09c-.18 0-.32.08-.4.23v1.72h-.65v-2.43h.6zM297.45 19.14c0-.24.05-.46.14-.64s.23-.33.4-.44c.17-.1.38-.15.61-.15.33 0 .6.1.8.3.21.2.32.47.35.82v.17c0 .37-.1.67-.31.9-.21.23-.49.34-.84.34s-.63-.11-.84-.34c-.21-.22-.31-.53-.31-.92v-.04zm.65.04c0 .23.04.41.13.53.09.12.21.18.37.18s.28-.06.37-.18c.09-.12.13-.31.13-.58 0-.23-.04-.4-.13-.53a.442.442 0 0 0-.37-.19c-.16 0-.28.06-.37.19-.09.13-.13.32-.13.58zM301.52 18.55c-.09-.01-.17-.02-.23-.02-.25 0-.41.08-.48.25v1.59h-.65v-2.43h.61l.02.29c.13-.22.31-.33.54-.33.07 0 .14.01.2.03l-.01.62zM302.95 20.42c-.36 0-.65-.11-.87-.33-.22-.22-.34-.51-.34-.87v-.06c0-.24.05-.46.14-.65.09-.19.23-.34.4-.44s.37-.16.59-.16c.33 0 .59.1.79.31.19.21.29.51.29.89v.27h-1.55a.56.56 0 0 0 .59.52c.25 0 .45-.09.59-.27l.32.36c-.1.14-.23.25-.4.32s-.35.11-.55.11zm-.08-2c-.13 0-.23.04-.31.13a.66.66 0 0 0-.15.37h.9v-.05c0-.14-.04-.26-.12-.33-.07-.08-.18-.12-.32-.12z"/></svg>