<svg id="Layer_1" xmlns="http://www.w3.org/2000/svg" viewBox="0 0 160 600"><style>.st0{fill:#edf4fd}</style><path class="st0" d="M27.2 131v-17.1h5.2c1.5 0 2.8.3 4 1s2.1 1.6 2.8 2.9 1 2.7 1 4.2v.8c0 1.6-.3 3-1 4.2s-1.6 2.2-2.8 2.9-2.5 1-4 1h-5.2zm3.6-14.2v11.4h1.7c1.4 0 2.4-.4 3.2-1.3s1.1-2.2 1.1-3.9v-.9c0-1.7-.4-3-1.1-3.9s-1.8-1.3-3.2-1.3h-1.7zM42.1 124.5c0-1.3.2-2.4.7-3.4s1.2-1.7 2.1-2.3 2-.8 3.2-.8c1.7 0 3.1.5 4.2 1.6s1.7 2.5 1.8 4.3v.9c0 1.9-.5 3.5-1.6 4.7s-2.5 1.8-4.4 1.8-3.3-.6-4.4-1.8-1.6-2.8-1.6-4.8v-.2zm3.4.3c0 1.2.2 2.1.7 2.8s1.1 1 1.9 1c.8 0 1.5-.3 1.9-.9s.7-1.6.7-3c0-1.2-.2-2.1-.7-2.7s-1.1-1-1.9-1c-.8 0-1.5.3-1.9 1s-.7 1.4-.7 2.8zM67.2 126.4l1.7-8.1h3.3L68.9 131h-2.8l-2.4-8-2.4 8h-2.8l-3.2-12.7h3.3l1.7 8.1 2.3-8.1H65l2.2 8.1zM76.9 118.3l.1 1.5c.9-1.1 2.1-1.7 3.6-1.7 1.3 0 2.3.4 3 1.2s1 2 1 3.5v8.2h-3.4v-8.1c0-.7-.2-1.2-.5-1.6s-.8-.5-1.6-.5c-1 0-1.7.4-2.1 1.2v8.9h-3.4v-12.7h3.3zM90.8 131h-3.4v-18h3.4v18zM93.1 124.5c0-1.3.2-2.4.7-3.4s1.2-1.7 2.1-2.3 2-.8 3.2-.8c1.7 0 3.1.5 4.2 1.6s1.7 2.5 1.8 4.3v.9c0 1.9-.5 3.5-1.6 4.7s-2.5 1.8-4.4 1.8-3.3-.6-4.4-1.8-1.6-2.8-1.6-4.8v-.2zm3.4.3c0 1.2.2 2.1.7 2.8s1.1 1 1.9 1c.8 0 1.5-.3 1.9-.9s.7-1.6.7-3c0-1.2-.2-2.1-.7-2.7s-1.1-1-1.9-1c-.8 0-1.5.3-1.9 1s-.7 1.4-.7 2.8zM114.6 131c-.2-.3-.3-.7-.3-1.1-.8.9-1.9 1.4-3.2 1.4-1.2 0-2.3-.4-3.1-1.1s-1.2-1.6-1.2-2.7c0-1.3.5-2.4 1.5-3.1s2.4-1.1 4.3-1.1h1.6v-.7c0-.6-.2-1.1-.5-1.4s-.8-.5-1.4-.5c-.6 0-1 .1-1.3.4s-.5.6-.5 1.1H107c0-.7.2-1.4.7-2s1.1-1.1 1.9-1.5 1.8-.5 2.8-.5c1.6 0 2.8.4 3.7 1.2s1.4 1.9 1.4 3.3v5.5c0 1.2.2 2.1.5 2.7v.2h-3.4zm-2.8-2.4c.5 0 1-.1 1.4-.3s.7-.5.9-.9v-2.2h-1.3c-1.7 0-2.6.6-2.7 1.8v.2c0 .4.1.8.4 1s.7.4 1.3.4zM119.5 124.6c0-2 .4-3.6 1.3-4.7s2.1-1.8 3.6-1.8c1.2 0 2.3.5 3.1 1.4V113h3.4v18h-3.1l-.2-1.3c-.8 1.1-1.9 1.6-3.3 1.6-1.5 0-2.7-.6-3.6-1.8s-1.2-2.8-1.2-4.9zm3.4.2c0 1.2.2 2.1.6 2.7s1 1 1.8 1c1 0 1.8-.4 2.2-1.3v-5c-.4-.9-1.2-1.3-2.2-1.3-1.5-.1-2.4 1.3-2.4 3.9zM72.8 144.8h-5.2V159H64v-14.2h-5.2V142h13.9v2.8zM77.8 147.7c.9-1.1 2-1.6 3.4-1.6 2.8 0 4.1 1.6 4.2 4.8v8.1H82v-8c0-.7-.2-1.3-.5-1.6s-.8-.5-1.6-.5c-1 0-1.7.4-2.2 1.1v9h-3.4v-18h3.4v6.7zM93.8 159.2c-1.9 0-3.4-.6-4.5-1.7s-1.8-2.7-1.8-4.6v-.3c0-1.3.2-2.4.7-3.4s1.2-1.8 2.1-2.3 1.9-.8 3.1-.8c1.7 0 3.1.5 4.1 1.6s1.5 2.6 1.5 4.7v1.4h-8.1c.1.8.4 1.5 1 2s1.2.8 2.1.8c1.3 0 2.3-.5 3.1-1.4l1.7 1.9c-.5.7-1.2 1.3-2.1 1.7s-1.8.4-2.9.4zm-.4-10.4c-.7 0-1.2.2-1.6.7-.4.5-.7 1.1-.8 2h4.7v-.3c0-.8-.2-1.3-.6-1.7-.4-.5-1-.7-1.7-.7zM11.6 181v6H8.1v-17.1h6.7c1.3 0 2.4.2 3.4.7s1.7 1.1 2.2 2 .8 1.8.8 2.9c0 1.7-.6 3-1.7 4s-2.7 1.4-4.8 1.4h-3.1zm0-2.9h3.1c.9 0 1.6-.2 2.1-.7s.7-1.1.7-1.9c0-.8-.2-1.5-.7-2s-1.2-.8-2-.8h-3.2v5.4zM30.5 177.5c-.5-.1-.9-.1-1.2-.1-1.3 0-2.1.4-2.5 1.3v8.3h-3.4v-12.7h3.2l.1 1.5c.7-1.2 1.6-1.7 2.8-1.7.4 0 .7.1 1.1.2l-.1 3.2zM32.1 171c0-.5.2-.9.5-1.3s.8-.5 1.4-.5c.6 0 1 .2 1.4.5s.5.7.5 1.3c0 .5-.2.9-.5 1.3s-.8.5-1.4.5-1-.2-1.4-.5-.5-.7-.5-1.3zm3.6 16h-3.4v-12.7h3.4V187zM43.2 182.9l2.4-8.5h3.5L44.8 187h-3.2l-4.3-12.7h3.5l2.4 8.6zM57.8 187c-.2-.3-.3-.7-.3-1.1-.8.9-1.9 1.4-3.2 1.4-1.2 0-2.3-.4-3.1-1.1s-1.2-1.6-1.2-2.7c0-1.3.5-2.4 1.5-3.1s2.4-1.1 4.3-1.1h1.6v-.7c0-.6-.2-1.1-.5-1.4s-.8-.5-1.4-.5c-.6 0-1 .1-1.3.4s-.5.6-.5 1.1h-3.4c0-.7.2-1.4.7-2s1.1-1.1 1.9-1.5 1.8-.5 2.8-.5c1.6 0 2.8.4 3.7 1.2s1.4 1.9 1.4 3.3v5.5c0 1.2.2 2.1.5 2.7v.2h-3.5zm-2.8-2.4c.5 0 1-.1 1.4-.3s.7-.5.9-.9v-2.2H56c-1.7 0-2.6.6-2.7 1.8v.2c0 .4.1.8.4 1s.7.4 1.3.4zM68.6 184.5c.6 0 1.1-.2 1.5-.5s.6-.8.6-1.4h3.2c0 .9-.2 1.6-.7 2.4s-1.1 1.3-1.9 1.7-1.7.6-2.7.6c-1.8 0-3.2-.6-4.3-1.7s-1.6-2.7-1.6-4.8v-.2c0-2 .5-3.5 1.6-4.7s2.5-1.7 4.3-1.7c1.6 0 2.9.5 3.8 1.4s1.4 2.1 1.5 3.6h-3.2c0-.7-.2-1.2-.6-1.6-.4-.4-.9-.6-1.5-.6-.8 0-1.4.3-1.8.9-.4.6-.6 1.5-.6 2.8v.4c0 1.3.2 2.2.6 2.8.3.3.9.6 1.8.6zM80.5 182.2l2.3-7.9h3.6l-5 14.7-.3.7c-.8 1.7-2 2.5-3.8 2.5-.5 0-1-.1-1.5-.2v-2.6h.5c.6 0 1.1-.1 1.4-.3s.6-.5.7-1l.4-1-4.4-12.7H78l2.5 7.8zM101.6 184.8c-.6.8-1.5 1.3-2.7 1.8s-2.4.6-3.8.6c-1.5 0-2.8-.3-3.9-1s-2-1.6-2.6-2.8-.9-2.7-.9-4.3V178c0-1.7.3-3.2.9-4.4s1.4-2.2 2.5-2.9 2.3-1 3.8-1c2 0 3.6.5 4.7 1.4s1.8 2.4 2 4.2h-3.4c-.2-1-.5-1.7-1-2.1s-1.3-.7-2.2-.7c-1.2 0-2.1.4-2.7 1.3s-.9 2.2-.9 4v1.1c0 1.8.3 3.1 1 4.1s1.7 1.4 3 1.4 2.3-.3 2.8-.8v-2.9H95V178h6.7v6.8zM111.8 185.7c-.8 1-2 1.5-3.5 1.5-1.4 0-2.4-.4-3.1-1.2s-1.1-1.9-1.1-3.4v-8.3h3.4v8.2c0 1.3.6 2 1.8 2 1.1 0 1.9-.4 2.4-1.2v-9h3.4V187h-3.2l-.1-1.3zM125 187c-.2-.3-.3-.7-.3-1.1-.8.9-1.9 1.4-3.2 1.4-1.2 0-2.3-.4-3.1-1.1s-1.2-1.6-1.2-2.7c0-1.3.5-2.4 1.5-3.1s2.4-1.1 4.3-1.1h1.6v-.7c0-.6-.2-1.1-.5-1.4s-.8-.5-1.4-.5c-.6 0-1 .1-1.3.4s-.5.6-.5 1.1h-3.4c0-.7.2-1.4.7-2s1.1-1.1 1.9-1.5 1.8-.5 2.8-.5c1.6 0 2.8.4 3.7 1.2s1.4 1.9 1.4 3.3v5.5c0 1.2.2 2.1.5 2.7v.2H125zm-2.8-2.4c.5 0 1-.1 1.4-.3s.7-.5.9-.9v-2.2h-1.3c-1.7 0-2.6.6-2.7 1.8v.2c0 .4.1.8.4 1s.8.4 1.3.4zM137.6 177.5c-.5-.1-.9-.1-1.2-.1-1.3 0-2.1.4-2.5 1.3v8.3h-3.4v-12.7h3.2l.1 1.5c.7-1.2 1.6-1.7 2.8-1.7.4 0 .7.1 1.1.2l-.1 3.2zM138.7 180.6c0-2 .4-3.6 1.3-4.7s2.1-1.8 3.6-1.8c1.2 0 2.3.5 3.1 1.4V169h3.4v18H147l-.2-1.3c-.8 1.1-1.9 1.6-3.3 1.6-1.5 0-2.7-.6-3.6-1.8s-1.2-2.8-1.2-4.9zm3.4.2c0 1.2.2 2.1.6 2.7s1 1 1.8 1c1 0 1.8-.4 2.2-1.3v-5c-.4-.9-1.2-1.3-2.2-1.3-1.6-.1-2.4 1.3-2.4 3.9zM54.9 211.5h-6.2l-1.2 3.5h-3.7l6.4-17.1h3.3l6.4 17.1h-3.7l-1.3-3.5zm-5.2-2.9H54l-2.1-6.4-2.2 6.4zM72.6 208.8c0 2-.4 3.5-1.3 4.7s-2.1 1.8-3.6 1.8c-1.3 0-2.3-.4-3.1-1.3v6h-3.4v-17.6h3.1l.1 1.2c.8-1 1.9-1.5 3.2-1.5 1.6 0 2.8.6 3.6 1.7s1.3 2.8 1.3 4.8v.2zm-3.4-.3c0-1.2-.2-2.1-.6-2.7s-1-1-1.8-1c-1.1 0-1.8.4-2.2 1.2v5.2c.4.8 1.2 1.3 2.2 1.3 1.6 0 2.4-1.3 2.4-4zM86.1 208.8c0 2-.4 3.5-1.3 4.7s-2.1 1.8-3.6 1.8c-1.3 0-2.3-.4-3.1-1.3v6h-3.4v-17.6h3.1l.1 1.2c.8-1 1.9-1.5 3.2-1.5 1.6 0 2.8.6 3.6 1.7s1.3 2.8 1.3 4.8v.2zm-3.3-.3c0-1.2-.2-2.1-.6-2.7s-1-1-1.8-1c-1.1 0-1.8.4-2.2 1.2v5.2c.4.8 1.2 1.3 2.2 1.3 1.6 0 2.4-1.3 2.4-4zM98.3 199.2v3.1h2.2v2.5h-2.2v6.3c0 .5.1.8.3 1s.5.3 1 .3c.4 0 .7 0 1-.1v2.6c-.7.2-1.3.3-2.1.3-2.4 0-3.6-1.2-3.6-3.6v-6.8H93v-2.5h1.9v-3.1h3.4zM101.5 208.5c0-1.3.2-2.4.7-3.4s1.2-1.7 2.1-2.3 2-.8 3.2-.8c1.7 0 3.1.5 4.2 1.6s1.7 2.5 1.8 4.3v.9c0 1.9-.5 3.5-1.6 4.7s-2.5 1.8-4.4 1.8-3.3-.6-4.4-1.8-1.6-2.8-1.6-4.8v-.2zm3.3.3c0 1.2.2 2.1.7 2.8.5.6 1.1 1 1.9 1 .8 0 1.5-.3 1.9-.9.5-.6.7-1.6.7-3 0-1.2-.2-2.1-.7-2.7s-1.1-1-1.9-1c-.8 0-1.5.3-1.9 1s-.7 1.4-.7 2.8zM18.9 231.7c.9-1.1 2-1.6 3.4-1.6 2.8 0 4.1 1.6 4.2 4.8v8.1h-3.4v-8c0-.7-.2-1.3-.5-1.6s-.8-.5-1.6-.5c-1 0-1.7.4-2.2 1.1v9h-3.4v-18h3.4v6.7zM34.9 243.2c-1.9 0-3.4-.6-4.5-1.7s-1.8-2.7-1.8-4.6v-.3c0-1.3.2-2.4.7-3.4s1.2-1.8 2.1-2.3 1.9-.8 3.1-.8c1.7 0 3.1.5 4.1 1.6s1.5 2.6 1.5 4.7v1.4H32c.1.8.4 1.5 1 2s1.2.8 2.1.8c1.3 0 2.3-.5 3.1-1.4l1.7 1.9c-.5.7-1.2 1.3-2.1 1.7s-1.9.4-2.9.4zm-.4-10.4c-.7 0-1.2.2-1.6.7s-.7 1.1-.8 2h4.7v-.3c0-.8-.2-1.3-.6-1.7s-1-.7-1.7-.7zM45.6 243h-3.4v-18h3.4v18zM59.8 236.8c0 2-.4 3.5-1.3 4.7s-2.1 1.8-3.6 1.8c-1.3 0-2.3-.4-3.1-1.3v6h-3.4v-17.6h3.1l.1 1.2c.8-1 1.9-1.5 3.2-1.5 1.6 0 2.8.6 3.6 1.7s1.3 2.8 1.3 4.8v.2zm-3.4-.3c0-1.2-.2-2.1-.6-2.7s-1-1-1.8-1c-1.1 0-1.8.4-2.2 1.2v5.2c.4.8 1.2 1.3 2.2 1.3 1.6 0 2.4-1.3 2.4-4zM79.3 236.8c0 2-.4 3.5-1.3 4.7s-2.1 1.8-3.6 1.8c-1.3 0-2.3-.4-3.1-1.3v6h-3.4v-17.6H71l.1 1.2c.8-1 1.9-1.5 3.2-1.5 1.6 0 2.8.6 3.6 1.7s1.3 2.8 1.3 4.8v.2zm-3.4-.3c0-1.2-.2-2.1-.6-2.7s-1-1-1.8-1c-1.1 0-1.8.4-2.2 1.2v5.2c.4.8 1.2 1.3 2.2 1.3 1.6 0 2.4-1.3 2.4-4zM88.5 233.5c-.5-.1-.9-.1-1.2-.1-1.3 0-2.1.4-2.5 1.3v8.3h-3.4v-12.7h3.2l.1 1.5c.7-1.2 1.6-1.7 2.8-1.7.4 0 .7.1 1.1.2l-.1 3.2zM89.2 236.5c0-1.3.2-2.4.7-3.4s1.2-1.7 2.1-2.3 2-.8 3.2-.8c1.7 0 3.1.5 4.2 1.6s1.7 2.5 1.8 4.3v.9c0 1.9-.5 3.5-1.6 4.7s-2.5 1.8-4.4 1.8-3.3-.6-4.4-1.8-1.6-2.8-1.6-4.8v-.2zm3.4.3c0 1.2.2 2.1.7 2.8.5.6 1.1 1 1.9 1 .8 0 1.5-.3 1.9-.9.5-.6.7-1.6.7-3 0-1.2-.2-2.1-.7-2.7s-1.1-1-1.9-1c-.8 0-1.5.3-1.9 1s-.7 1.4-.7 2.8zM107.3 227.2v3.1h2.2v2.5h-2.2v6.3c0 .5.1.8.3 1s.5.3 1 .3c.4 0 .7 0 1-.1v2.6c-.7.2-1.3.3-2.1.3-2.4 0-3.6-1.2-3.6-3.6v-6.8H102v-2.5h1.9v-3.1h3.4zM117.2 243.2c-1.9 0-3.4-.6-4.5-1.7s-1.8-2.7-1.8-4.6v-.3c0-1.3.2-2.4.7-3.4s1.2-1.8 2.1-2.3 1.9-.8 3.1-.8c1.7 0 3.1.5 4.1 1.6s1.5 2.6 1.5 4.7v1.4h-8.1c.1.8.4 1.5 1 2s1.2.8 2.1.8c1.3 0 2.3-.5 3.1-1.4l1.7 1.9c-.5.7-1.2 1.3-2.1 1.7s-1.8.4-2.9.4zm-.3-10.4c-.7 0-1.2.2-1.6.7s-.7 1.1-.8 2h4.7v-.3c0-.8-.2-1.3-.6-1.7s-1-.7-1.7-.7zM129.6 240.5c.6 0 1.1-.2 1.5-.5s.6-.8.6-1.4h3.2c0 .9-.2 1.6-.7 2.4s-1.1 1.3-1.9 1.7-1.7.6-2.7.6c-1.8 0-3.2-.6-4.3-1.7s-1.6-2.7-1.6-4.8v-.2c0-2 .5-3.5 1.6-4.7s2.5-1.7 4.3-1.7c1.6 0 2.9.5 3.8 1.4s1.4 2.1 1.5 3.6h-3.2c0-.7-.2-1.2-.6-1.6-.4-.4-.9-.6-1.5-.6-.8 0-1.4.3-1.8.9-.4.6-.6 1.5-.6 2.8v.4c0 1.3.2 2.2.6 2.8s1 .6 1.8.6zM140.9 227.2v3.1h2.2v2.5h-2.2v6.3c0 .5.1.8.3 1s.5.3 1 .3c.4 0 .7 0 1-.1v2.6c-.7.2-1.3.3-2.1.3-2.4 0-3.6-1.2-3.6-3.6v-6.8h-1.9v-2.5h1.9v-3.1h3.4zM47.8 271c-.2-.3-.3-.7-.3-1.1-.8.9-1.9 1.4-3.2 1.4-1.2 0-2.3-.4-3.1-1.1s-1.2-1.6-1.2-2.7c0-1.3.5-2.4 1.5-3.1s2.4-1.1 4.3-1.1h1.6v-.7c0-.6-.2-1.1-.5-1.4s-.8-.5-1.4-.5c-.6 0-1 .1-1.3.4s-.5.6-.5 1.1h-3.4c0-.7.2-1.4.7-2s1.1-1.1 1.9-1.5 1.8-.5 2.8-.5c1.6 0 2.8.4 3.7 1.2s1.4 1.9 1.4 3.3v5.5c0 1.2.2 2.1.5 2.7v.2h-3.5zm-2.8-2.4c.5 0 1-.1 1.4-.3s.7-.5.9-.9v-2.2H46c-1.7 0-2.6.6-2.7 1.8v.2c0 .4.1.8.4 1s.8.4 1.3.4zM52.8 264.6c0-1.9.5-3.5 1.4-4.7s2.2-1.8 3.7-1.8c1.4 0 2.5.5 3.2 1.4l.1-1.2h3.1v12.3c0 1.1-.3 2.1-.8 2.9s-1.2 1.4-2.1 1.9-2 .6-3.2.6c-.9 0-1.8-.2-2.7-.6s-1.6-.8-2-1.4l1.5-2.1c.8.9 1.9 1.4 3.1 1.4.9 0 1.6-.2 2.1-.7s.8-1.2.8-2v-.7c-.8.9-1.8 1.3-3.1 1.3-1.5 0-2.8-.6-3.7-1.8s-1.4-2.8-1.4-4.7v-.1zm3.4.2c0 1.2.2 2.1.7 2.7.5.7 1.1 1 1.9 1 1 0 1.8-.4 2.2-1.2V262c-.5-.8-1.2-1.2-2.2-1.2-.8 0-1.5.3-1.9 1s-.7 1.7-.7 3zM74.4 271c-.2-.3-.3-.7-.3-1.1-.8.9-1.9 1.4-3.2 1.4-1.2 0-2.3-.4-3.1-1.1s-1.2-1.6-1.2-2.7c0-1.3.5-2.4 1.5-3.1s2.4-1.1 4.3-1.1H74v-.7c0-.6-.2-1.1-.5-1.4s-.8-.5-1.4-.5c-.6 0-1 .1-1.3.4s-.5.6-.5 1.1h-3.4c0-.7.2-1.4.7-2s1.1-1.1 1.9-1.5 1.8-.5 2.8-.5c1.6 0 2.8.4 3.7 1.2s1.4 1.9 1.4 3.3v5.5c0 1.2.2 2.1.5 2.7v.2h-3.5zm-2.8-2.4c.5 0 1-.1 1.4-.3s.7-.5.9-.9v-2.2h-1.3c-1.7 0-2.6.6-2.7 1.8v.2c0 .4.1.8.4 1s.8.4 1.3.4zM79.9 255c0-.5.2-.9.5-1.3s.8-.5 1.4-.5c.6 0 1 .2 1.4.5s.5.7.5 1.3c0 .5-.2.9-.5 1.3s-.8.5-1.4.5-1-.2-1.4-.5-.5-.7-.5-1.3zm3.6 16h-3.4v-12.7h3.4V271zM89.4 258.3l.1 1.5c.9-1.1 2.1-1.7 3.6-1.7 1.3 0 2.3.4 3 1.2s1 2 1 3.5v8.2h-3.4v-8.1c0-.7-.2-1.2-.5-1.6s-.8-.5-1.6-.5c-1 0-1.7.4-2.1 1.2v8.9h-3.4v-12.7h3.3zM106.6 267.5c0-.4-.2-.7-.6-1s-1.1-.5-2-.6c-3-.6-4.5-1.9-4.5-3.8 0-1.1.5-2.1 1.4-2.8s2.2-1.1 3.7-1.1c1.6 0 2.9.4 3.9 1.1s1.4 1.7 1.4 3h-3.4c0-.5-.2-.9-.5-1.2s-.8-.5-1.5-.5c-.6 0-1 .1-1.3.4s-.5.6-.5 1 .2.7.5.9 1 .4 1.8.6 1.6.4 2.1.6c1.8.7 2.7 1.8 2.7 3.4 0 1.2-.5 2.1-1.5 2.8s-2.3 1.1-3.8 1.1c-1.1 0-2-.2-2.8-.6s-1.5-.9-1.9-1.6-.7-1.4-.7-2.1h3.2c0 .6.3 1.1.7 1.4s1 .5 1.7.5c.6 0 1.1-.1 1.5-.4s.4-.7.4-1.1zM116.1 255.2v3.1h2.2v2.5h-2.2v6.3c0 .5.1.8.3 1s.5.3 1 .3c.4 0 .7 0 1-.1v2.6c-.7.2-1.3.3-2.1.3-2.4 0-3.6-1.2-3.6-3.6v-6.8h-1.9v-2.5h1.9v-3.1h3.4zM11.2 283c0-.5.2-.9.5-1.3s.8-.5 1.4-.5c.6 0 1 .2 1.4.5s.5.7.5 1.3c0 .5-.2.9-.5 1.3s-.8.5-1.4.5-1-.2-1.4-.5-.5-.7-.5-1.3zm3.6 16h-3.4v-12.7h3.4V299zM17.1 292.6c0-2 .4-3.6 1.3-4.7s2.1-1.8 3.6-1.8c1.2 0 2.3.5 3.1 1.4V281h3.4v18h-3.1l-.2-1.3c-.8 1.1-1.9 1.6-3.3 1.6-1.5 0-2.7-.6-3.6-1.8s-1.2-2.8-1.2-4.9zm3.4.2c0 1.2.2 2.1.6 2.7.4.6 1 1 1.8 1 1 0 1.8-.4 2.2-1.3v-5c-.4-.9-1.2-1.3-2.2-1.3-1.6-.1-2.4 1.3-2.4 3.9zM37 299.2c-1.9 0-3.4-.6-4.5-1.7s-1.8-2.7-1.8-4.6v-.3c0-1.3.2-2.4.7-3.4s1.2-1.8 2.1-2.3 1.9-.8 3.1-.8c1.7 0 3.1.5 4.1 1.6s1.5 2.6 1.5 4.7v1.4h-8.1c.1.8.4 1.5 1 2s1.2.8 2.1.8c1.3 0 2.3-.5 3.1-1.4l1.7 1.9c-.5.7-1.2 1.3-2.1 1.7s-1.9.4-2.9.4zm-.4-10.4c-.7 0-1.2.2-1.6.7s-.7 1.1-.8 2h4.7v-.3c0-.8-.2-1.3-.6-1.7s-1-.7-1.7-.7zM47.2 286.3l.1 1.5c.9-1.1 2.1-1.7 3.6-1.7 1.3 0 2.3.4 3 1.2s1 2 1 3.5v8.2h-3.4v-8.1c0-.7-.2-1.2-.5-1.6s-.8-.5-1.6-.5c-1 0-1.7.4-2.1 1.2v8.9H44v-12.7h3.2zM61.6 283.2v3.1h2.2v2.5h-2.2v6.3c0 .5.1.8.3 1s.5.3 1 .3c.4 0 .7 0 1-.1v2.6c-.7.2-1.3.3-2.1.3-2.4 0-3.6-1.2-3.6-3.6v-6.8h-1.9v-2.5h1.9v-3.1h3.4zM65.6 283c0-.5.2-.9.5-1.3s.8-.5 1.4-.5c.6 0 1 .2 1.4.5s.5.7.5 1.3c0 .5-.2.9-.5 1.3s-.8.5-1.4.5-1-.2-1.4-.5-.5-.7-.5-1.3zm3.6 16h-3.4v-12.7h3.4V299zM76.1 283.2v3.1h2.2v2.5h-2.2v6.3c0 .5.1.8.3 1s.5.3 1 .3c.4 0 .7 0 1-.1v2.6c-.7.2-1.3.3-2.1.3-2.4 0-3.6-1.2-3.6-3.6v-6.8h-1.9v-2.5h1.9v-3.1h3.4zM84.9 294.2l2.3-7.9h3.6L85.7 301l-.3.7c-.8 1.7-2 2.5-3.8 2.5-.5 0-1-.1-1.5-.2v-2.6h.5c.6 0 1.1-.1 1.4-.3s.6-.5.7-1l.4-1-4.4-12.7h3.6l2.6 7.8zM102.2 283.2v3.1h2.2v2.5h-2.2v6.3c0 .5.1.8.3 1s.5.3 1 .3c.4 0 .7 0 1-.1v2.6c-.7.2-1.3.3-2.1.3-2.4 0-3.6-1.2-3.6-3.6v-6.8H97v-2.5h1.9v-3.1h3.3zM109.6 287.7c.9-1.1 2-1.6 3.4-1.6 2.8 0 4.1 1.6 4.2 4.8v8.1h-3.4v-8c0-.7-.2-1.3-.5-1.6s-.8-.5-1.6-.5c-1 0-1.7.4-2.2 1.1v9h-3.4v-18h3.4v6.7zM125.5 299.2c-1.9 0-3.4-.6-4.5-1.7s-1.8-2.7-1.8-4.6v-.3c0-1.3.2-2.4.7-3.4s1.2-1.8 2.1-2.3 1.9-.8 3.1-.8c1.7 0 3.1.5 4.1 1.6s1.5 2.6 1.5 4.7v1.4h-8.1c.1.8.4 1.5 1 2s1.2.8 2.1.8c1.3 0 2.3-.5 3.1-1.4l1.7 1.9c-.5.7-1.2 1.3-2.1 1.7s-1.8.4-2.9.4zm-.4-10.4c-.7 0-1.2.2-1.6.7s-.7 1.1-.8 2h4.7v-.3c0-.8-.2-1.3-.6-1.7s-.9-.7-1.7-.7zM133.6 299v-10.2h-1.9v-2.5h1.9v-1.1c0-1.4.4-2.5 1.2-3.3s2-1.2 3.4-1.2c.5 0 1 .1 1.7.2v2.6c-.3-.1-.6-.1-1-.1-1.3 0-1.9.6-1.9 1.8v1h2.5v2.5H137V299h-3.4zM145.3 283.2v3.1h2.2v2.5h-2.2v6.3c0 .5.1.8.3 1s.5.3 1 .3c.4 0 .7 0 1-.1v2.6c-.7.2-1.3.3-2.1.3-2.4 0-3.6-1.2-3.6-3.6v-6.8H140v-2.5h1.9v-3.1h3.4zM54 311.2v3.1h2.2v2.5H54v6.3c0 .5.1.8.3 1s.5.3 1 .3c.4 0 .7 0 1-.1v2.6c-.7.2-1.3.3-2.1.3-2.4 0-3.6-1.2-3.6-3.6v-6.8h-1.9v-2.5h1.9v-3.1H54zM57.2 320.5c0-1.3.2-2.4.7-3.4s1.2-1.7 2.1-2.3 2-.8 3.2-.8c1.7 0 3.1.5 4.2 1.6s1.7 2.5 1.8 4.3v.9c0 1.9-.5 3.5-1.6 4.7s-2.5 1.8-4.4 1.8-3.3-.6-4.4-1.8-1.6-2.8-1.6-4.8v-.2zm3.3.3c0 1.2.2 2.1.7 2.8.5.6 1.1 1 1.9 1 .8 0 1.5-.3 1.9-.9.5-.6.7-1.6.7-3 0-1.2-.2-2.1-.7-2.7s-1.1-1-1.9-1c-.8 0-1.5.3-1.9 1s-.7 1.4-.7 2.8zM70.7 320.6c0-2 .4-3.6 1.3-4.7s2.1-1.8 3.6-1.8c1.2 0 2.3.5 3.1 1.4V309h3.4v18H79l-.2-1.3c-.8 1.1-1.9 1.6-3.3 1.6-1.5 0-2.7-.6-3.6-1.8s-1.2-2.8-1.2-4.9zm3.4.2c0 1.2.2 2.1.6 2.7.4.6 1 1 1.8 1 1 0 1.8-.4 2.2-1.3v-5c-.4-.9-1.2-1.3-2.2-1.3-1.6-.1-2.4 1.3-2.4 3.9zM92.1 327c-.2-.3-.3-.7-.3-1.1-.8.9-1.9 1.4-3.2 1.4-1.2 0-2.3-.4-3.1-1.1s-1.2-1.6-1.2-2.7c0-1.3.5-2.4 1.5-3.1s2.4-1.1 4.3-1.1h1.6v-.7c0-.6-.2-1.1-.5-1.4s-.8-.5-1.4-.5c-.6 0-1 .1-1.3.4s-.5.6-.5 1.1h-3.4c0-.7.2-1.4.7-2s1.1-1.1 1.9-1.5 1.8-.5 2.8-.5c1.6 0 2.8.4 3.7 1.2s1.4 1.9 1.4 3.3v5.5c0 1.2.2 2.1.5 2.7v.2h-3.5zm-2.8-2.4c.5 0 1-.1 1.4-.3s.7-.5.9-.9v-2.2h-1.3c-1.7 0-2.6.6-2.7 1.8v.2c0 .4.1.8.4 1s.8.4 1.3.4zM102.4 322.2l2.3-7.9h3.6l-5.1 14.6-.3.7c-.8 1.7-2 2.5-3.8 2.5-.5 0-1-.1-1.5-.2v-2.6h.5c.6 0 1.1-.1 1.4-.3s.6-.5.7-1l.4-1-4.4-12.7h3.6l2.6 7.9zM109.9 325.3c0-.5.2-1 .5-1.3s.8-.5 1.4-.5c.6 0 1 .2 1.4.5s.5.8.5 1.3-.2 1-.5 1.3-.8.5-1.4.5c-.6 0-1-.2-1.4-.5s-.5-.7-.5-1.3z"/><g><path class="st0" d="M30.7 471.3c0-.4-.1-.7-.3-.9-.2-.2-.6-.4-1.1-.6s-.9-.4-1.2-.5c-1-.5-1.5-1.3-1.5-2.3 0-.7.2-1.3.6-1.7s1-.7 1.7-.8V463h1v1.4c.7.1 1.3.4 1.7.9s.6 1.2.6 2h-1.5c0-.5-.1-1-.4-1.3-.2-.3-.6-.5-1-.5s-.7.1-1 .3-.3.5-.3.9.1.7.3.9c.2.2.6.4 1.2.6s1 .4 1.3.6c.3.2.6.4.8.6s.4.5.5.8c.1.3.2.6.2 1 0 .7-.2 1.3-.7 1.7-.4.4-1 .7-1.8.8v1.2h-1v-1.2c-.8-.1-1.5-.4-1.9-.9-.5-.5-.7-1.2-.7-2h1.5c0 .5.1.9.4 1.2.3.3.6.4 1.1.4.5 0 .8-.1 1.1-.3.3-.1.4-.4.4-.8zM37.8 473.7h-1.5v-7.4l-2.3.7v-1.3l3.6-1.3h.2v9.3zM46.3 465.2v1.7h1.2v1.1h-1.2v3.8c0 .3.1.5.2.6.1.1.3.2.6.2.2 0 .4 0 .5-.1v1.2c-.4.1-.7.1-1 .1-1.2 0-1.8-.7-1.8-2V468h-1.1v-1.1h1.1v-1.7h1.5zM52.3 468.2c-.2 0-.4-.1-.6-.1-.7 0-1.2.3-1.4.8v4.7h-1.5v-6.9h1.5v.8c.4-.6.9-.9 1.5-.9.2 0 .4 0 .5.1v1.5zM53.2 465c0-.2.1-.4.2-.6.2-.2.4-.2.6-.2s.5.1.6.2.2.4.2.6c0 .2-.1.4-.2.6s-.4.2-.6.2-.5-.1-.6-.2c-.1-.1-.2-.3-.2-.6zm1.7 8.7h-1.5v-6.9h1.5v6.9zM60.7 473.7c-.1-.1-.1-.3-.2-.6-.5.5-1.1.8-1.8.8s-1.3-.2-1.7-.6c-.4-.4-.7-.9-.7-1.5 0-.7.3-1.3.8-1.7.5-.4 1.3-.6 2.3-.6h.9v-.5c0-.4-.1-.6-.3-.9s-.5-.3-.9-.3-.6.1-.9.3-.3.4-.3.7h-1.5c0-.4.1-.7.4-1.1s.6-.6 1-.8c.4-.2.9-.3 1.4-.3.8 0 1.4.2 1.9.6s.7 1 .7 1.7v3.1c0 .6.1 1.1.3 1.5v.1h-1.4zm-1.7-1.1c.3 0 .6-.1.9-.2.3-.1.5-.3.6-.6v-1.3h-.8c-.6 0-1 .1-1.3.3-.3.2-.4.5-.4.8 0 .3.1.5.3.7.1.2.3.3.7.3zM65.2 473.7h-1.5v-9.8h1.5v9.8zM70.7 473.7V468h-1v-1.1h1v-.6c0-.8.2-1.4.6-1.8.4-.4 1-.6 1.8-.6.3 0 .6 0 .9.1v1.2c-.2 0-.4-.1-.6-.1-.7 0-1.1.4-1.1 1.1v.6h1.4v1.1h-1.4v5.7h-1.6zM74.5 470.2c0-.7.1-1.3.4-1.8.3-.5.6-1 1.1-1.2s1-.4 1.7-.4c.9 0 1.7.3 2.3.9.6.6.9 1.4.9 2.4v.4c0 .7-.1 1.3-.4 1.8-.3.5-.6.9-1.1 1.2-.5.3-1 .4-1.7.4-1 0-1.7-.3-2.3-1-.6-.7-.9-1.6-.9-2.7zm1.5.1c0 .7.1 1.3.4 1.7.3.4.7.6 1.2.6s.9-.2 1.2-.6c.3-.4.4-1 .4-1.8 0-.7-.1-1.2-.4-1.7-.3-.4-.7-.6-1.2-.6s-.9.2-1.2.6c-.2.4-.4 1-.4 1.8zM85.8 468.2c-.2 0-.4-.1-.6-.1-.7 0-1.2.3-1.4.8v4.7h-1.5v-6.9h1.5v.8c.4-.6.9-.9 1.5-.9.2 0 .4 0 .5.1v1.5zM91.9 465.2v1.7h1.2v1.1h-1.2v3.8c0 .3.1.5.2.6.1.1.3.2.6.2.2 0 .4 0 .5-.1v1.2c-.4.1-.7.1-1 .1-1.2 0-1.8-.7-1.8-2V468h-1.1v-1.1h1.1v-1.7h1.5zM95.8 467.6c.5-.6 1.1-.9 1.9-.9 1.5 0 2.2.8 2.2 2.5v4.5h-1.5v-4.4c0-.5-.1-.8-.3-1-.2-.2-.5-.3-.9-.3-.6 0-1.1.3-1.4.8v4.9h-1.5v-9.8h1.5v3.7zM104.5 473.8c-1 0-1.8-.3-2.4-.9-.6-.6-.9-1.4-.9-2.5v-.2c0-.7.1-1.3.4-1.8.3-.5.6-1 1.1-1.3.5-.3 1-.5 1.6-.5.9 0 1.7.3 2.2.9.5.6.8 1.4.8 2.5v.6h-4.5c0 .6.2 1 .6 1.3.3.3.8.5 1.3.5.7 0 1.3-.3 1.7-.9l.8.8c-.3.4-.6.7-1.1 1s-1 .5-1.6.5zm-.2-5.9c-.4 0-.8.1-1 .4-.3.3-.4.7-.5 1.2h2.9v-.1c0-.5-.2-.9-.4-1.2s-.5-.3-1-.3zM112.3 473.7V468h-1v-1.1h1v-.6c0-.8.2-1.4.6-1.8.4-.4 1-.6 1.8-.6.3 0 .6 0 .9.1v1.2c-.2 0-.4-.1-.6-.1-.7 0-1.1.4-1.1 1.1v.6h1.4v1.1h-1.4v5.7h-1.6zM116.3 465c0-.2.1-.4.2-.6.2-.2.4-.2.6-.2s.5.1.6.2.2.4.2.6c0 .2-.1.4-.2.6s-.4.2-.6.2-.5-.1-.6-.2c-.1-.1-.2-.3-.2-.6zm1.7 8.7h-1.5v-6.9h1.5v6.9zM123.2 468.2c-.2 0-.4-.1-.6-.1-.7 0-1.2.3-1.4.8v4.7h-1.5v-6.9h1.5v.8c.4-.6.9-.9 1.5-.9.2 0 .4 0 .5.1v1.5zM128.1 471.8c0-.3-.1-.5-.3-.6-.2-.1-.6-.3-1.1-.4-.5-.1-1-.2-1.3-.4-.8-.4-1.2-.9-1.2-1.6 0-.6.2-1.1.7-1.5.5-.4 1.1-.6 1.9-.6.8 0 1.5.2 2 .6s.8.9.8 1.6H128c0-.3-.1-.5-.3-.7-.2-.2-.5-.3-.9-.3-.3 0-.6.1-.8.2-.2.2-.3.4-.3.6 0 .2.1.4.3.6.2.1.6.3 1.2.4.6.1 1.1.3 1.4.5.3.2.6.4.8.7.2.3.3.6.3.9 0 .6-.3 1.1-.8 1.5-.5.4-1.2.6-2 .6-.6 0-1.1-.1-1.5-.3-.4-.2-.8-.5-1-.8-.2-.4-.4-.7-.4-1.1h1.5c0 .4.2.6.4.8.3.2.6.3 1 .3s.7-.1.9-.2c.2-.3.3-.5.3-.8zM132.9 465.2v1.7h1.2v1.1h-1.2v3.8c0 .3.1.5.2.6s.3.2.6.2c.2 0 .4 0 .5-.1v1.2c-.4.1-.7.1-1 .1-1.2 0-1.8-.7-1.8-2V468h-1.1v-1.1h1.1v-1.7h1.5zM60.3 489.3h-1.5v-7.4l-2.3.8v-1.3l3.6-1.3h.2v9.2zM68.8 486h1.1v1.2h-1.1v2.1h-1.5v-2.1h-4v-.9l4-6.2h1.6v5.9zm-4 0h2.4v-3.9l-.1.2-2.3 3.7zM74 485.8c0-1.1.2-1.9.7-2.5.5-.6 1.1-1 2-1 .7 0 1.3.3 1.8.8v-3.5H80v9.8h-1.4l-.1-.7c-.5.6-1.1.8-1.8.8-.8 0-1.5-.3-2-1s-.7-1.6-.7-2.7zm1.5.1c0 .7.1 1.2.4 1.6.3.4.7.6 1.1.6.6 0 1.1-.3 1.4-.8v-2.9c-.3-.6-.7-.8-1.4-.8-.5 0-.9.2-1.2.6s-.3.9-.3 1.7zM85.7 489.3c-.1-.1-.1-.3-.2-.6-.5.5-1.1.8-1.8.8s-1.3-.2-1.7-.6c-.4-.4-.7-.9-.7-1.5 0-.7.3-1.3.8-1.7.5-.4 1.3-.6 2.3-.6h.9v-.5c0-.4-.1-.6-.3-.9-.2-.2-.5-.3-.9-.3s-.6.1-.9.3c-.2.2-.3.4-.3.7h-1.5c0-.4.1-.7.4-1.1.2-.3.6-.6 1-.8.4-.2.9-.3 1.4-.3.8 0 1.4.2 1.9.6.5.4.7 1 .7 1.7v3.1c0 .6.1 1.1.3 1.5v.1h-1.4zm-1.7-1.1c.3 0 .6-.1.9-.2s.5-.3.6-.6v-1.3h-.8c-.6 0-1 .1-1.3.3-.3.2-.4.5-.4.8 0 .3.1.5.3.7.1.2.4.3.7.3zM91.1 487.1l1.4-4.7h1.6l-2.7 7.9c-.4 1.2-1.1 1.7-2.1 1.7-.2 0-.5 0-.7-.1v-1.2h.3c.4 0 .7-.1.9-.2.2-.1.4-.4.5-.7l.2-.6-2.4-6.8h1.7l1.3 4.7zM98.8 487.4c0-.3-.1-.5-.3-.6-.2-.1-.6-.3-1.1-.4-.5-.1-1-.2-1.3-.4-.8-.4-1.2-.9-1.2-1.6 0-.6.2-1.1.7-1.5.5-.4 1.1-.6 1.9-.6.8 0 1.5.2 2 .6s.8.9.8 1.6h-1.5c0-.3-.1-.5-.3-.7-.2-.2-.5-.3-.9-.3-.3 0-.6.1-.8.2-.2.2-.3.4-.3.6 0 .2.1.4.3.6.2.1.6.3 1.2.4.6.1 1.1.3 1.4.5.3.2.6.4.8.7.2.3.3.6.3.9 0 .6-.3 1.1-.8 1.5-.5.4-1.2.6-2 .6-.6 0-1.1-.1-1.5-.3-.4-.2-.8-.5-1-.8-.2-.4-.4-.7-.4-1.1h1.5c0 .4.2.6.4.8.3.2.6.3 1 .3s.7-.1.9-.2c.1-.3.2-.5.2-.8zM102.6 487.7c.3 0 .5.1.7.2.2.2.2.4.2.6 0 .2-.1.4-.2.6-.2.2-.4.2-.7.2-.3 0-.5-.1-.7-.2-.2-.2-.2-.4-.2-.6 0-.2.1-.5.2-.6.2-.2.5-.2.7-.2zM34.7 501.5v3.4h-1.6v-9.2h3.5c1 0 1.9.3 2.5.8.6.5.9 1.2.9 2.1 0 .9-.3 1.6-.9 2.1-.6.5-1.4.8-2.5.8h-1.9zm0-1.3h1.9c.6 0 1-.1 1.3-.4s.5-.7.5-1.2-.2-.9-.5-1.2c-.3-.3-.7-.5-1.3-.5h-2v3.3zM42.9 504.9h-1.5v-9.8h1.5v9.8zM48.7 504.9c-.1-.1-.1-.3-.2-.6-.5.5-1.1.8-1.8.8s-1.3-.2-1.7-.6c-.4-.4-.7-.9-.7-1.5 0-.7.3-1.3.8-1.7.5-.4 1.3-.6 2.3-.6h.9v-.5c0-.4-.1-.6-.3-.9s-.5-.3-.9-.3-.6.1-.9.3-.3.4-.3.7h-1.5c0-.4.1-.7.4-1.1s.6-.6 1-.8c.4-.2.9-.3 1.4-.3.8 0 1.4.2 1.9.6s.7 1 .7 1.7v3.1c0 .6.1 1.1.3 1.5v.1h-1.4zm-1.7-1.1c.3 0 .6-.1.9-.2.3-.1.5-.3.6-.6v-1.3h-.8c-.6 0-1 .1-1.3.3-.3.2-.4.5-.4.8 0 .3.1.5.3.7.1.2.4.3.7.3zM53.1 498v.8c.5-.6 1.2-.9 2-.9 1.4 0 2.2.8 2.2 2.5v4.5h-1.5v-4.4c0-.4-.1-.8-.3-1-.2-.2-.5-.3-.9-.3-.6 0-1.1.3-1.4.8v4.9h-1.5V498h1.4zM62.7 503c0-.3-.1-.5-.3-.6-.2-.1-.6-.3-1.1-.4-.5-.1-1-.2-1.3-.4-.8-.4-1.2-.9-1.2-1.6 0-.6.2-1.1.7-1.5s1.1-.6 1.9-.6c.8 0 1.5.2 2 .6.5.4.8.9.8 1.6h-1.5c0-.3-.1-.5-.3-.7-.2-.2-.5-.3-.9-.3-.3 0-.6.1-.8.2-.2.2-.3.4-.3.6 0 .2.1.4.3.6.2.1.6.3 1.2.4.6.1 1.1.3 1.4.5.3.2.6.4.8.7.2.3.3.6.3.9 0 .6-.3 1.1-.8 1.5s-1.2.6-2 .6c-.6 0-1.1-.1-1.5-.3s-.8-.5-1-.8-.4-.7-.4-1.1h1.5c0 .4.2.6.4.8.3.2.6.3 1 .3s.7-.1.9-.2.2-.5.2-.8zM72.7 503c0-.3-.1-.5-.3-.6-.2-.1-.6-.3-1.1-.4-.5-.1-1-.2-1.3-.4-.8-.4-1.2-.9-1.2-1.6 0-.6.2-1.1.7-1.5s1.1-.6 1.9-.6c.8 0 1.5.2 2 .6.5.4.8.9.8 1.6h-1.5c0-.3-.1-.5-.3-.7-.2-.2-.5-.3-.9-.3-.3 0-.6.1-.8.2-.2.2-.3.4-.3.6 0 .2.1.4.3.6.2.1.6.3 1.2.4.6.1 1.1.3 1.4.5.3.2.6.4.8.7.2.3.3.6.3.9 0 .6-.3 1.1-.8 1.5s-1.2.6-2 .6c-.6 0-1.1-.1-1.5-.3s-.8-.5-1-.8-.4-.7-.4-1.1H70c0 .4.2.6.4.8.3.2.6.3 1 .3s.7-.1.9-.2.4-.5.4-.8zM77.5 496.4v1.7h1.2v1.1h-1.2v3.8c0 .3.1.5.2.6.1.1.3.2.6.2.2 0 .4 0 .5-.1v1.2c-.4.1-.7.1-1 .1-1.2 0-1.8-.7-1.8-2v-3.9h-1.1V498H76v-1.7h1.5zM84 504.9c-.1-.1-.1-.3-.2-.6-.5.5-1.1.8-1.8.8s-1.3-.2-1.7-.6c-.4-.4-.7-.9-.7-1.5 0-.7.3-1.3.8-1.7.5-.4 1.3-.6 2.3-.6h.9v-.5c0-.4-.1-.6-.3-.9-.2-.2-.5-.3-.9-.3s-.6.1-.9.3c-.2.2-.3.4-.3.7h-1.5c0-.4.1-.7.4-1.1s.6-.6 1-.8c.4-.2.9-.3 1.4-.3.8 0 1.4.2 1.9.6.5.4.7 1 .7 1.7v3.1c0 .6.1 1.1.3 1.5v.1H84zm-1.7-1.1c.3 0 .6-.1.9-.2s.5-.3.6-.6v-1.3H83c-.6 0-1 .1-1.3.3-.3.2-.4.5-.4.8 0 .3.1.5.3.7.1.2.3.3.7.3zM90.5 499.4c-.2 0-.4-.1-.6-.1-.7 0-1.2.3-1.4.8v4.7H87V498h1.5v.8c.4-.6.9-.9 1.5-.9.2 0 .4 0 .5.1v1.4zM93.7 496.4v1.7h1.2v1.1h-1.2v3.8c0 .3.1.5.2.6s.3.2.6.2c.2 0 .4 0 .5-.1v1.2c-.4.1-.7.1-1 .1-1.2 0-1.8-.7-1.8-2v-3.9H91V498h1.1v-1.7h1.6zM96.1 496.2c0-.2.1-.4.2-.6s.4-.2.6-.2.5.1.6.2.2.4.2.6c0 .2-.1.4-.2.6s-.4.2-.6.2-.5-.1-.6-.2-.2-.3-.2-.6zm1.6 8.7h-1.5V498h1.5v6.9zM100.8 498v.8c.5-.6 1.2-.9 2-.9 1.4 0 2.2.8 2.2 2.5v4.5h-1.5v-4.4c0-.4-.1-.8-.3-1-.2-.2-.5-.3-.9-.3-.6 0-1.1.3-1.4.8v4.9h-1.5V498h1.4zM106.4 501.4c0-1.1.3-1.9.8-2.6.5-.6 1.2-1 2-1s1.4.3 1.8.8l.1-.7h1.4v6.7c0 .9-.3 1.6-.8 2.1-.6.5-1.3.8-2.3.8-.5 0-1-.1-1.5-.3-.5-.2-.8-.5-1.1-.8l.7-.9c.5.6 1.1.8 1.8.8.5 0 .9-.1 1.2-.4.3-.3.4-.7.4-1.2v-.5c-.4.5-1 .7-1.8.7s-1.5-.3-2-1c-.5-.5-.7-1.4-.7-2.5zm1.5.1c0 .7.1 1.2.4 1.6s.7.6 1.2.6c.6 0 1.1-.3 1.4-.8v-3c-.3-.5-.7-.8-1.4-.8-.5 0-.9.2-1.2.6s-.4 1.1-.4 1.8zM121.4 504.9c-.1-.1-.1-.3-.2-.6-.5.5-1.1.8-1.8.8s-1.3-.2-1.7-.6c-.4-.4-.7-.9-.7-1.5 0-.7.3-1.3.8-1.7.5-.4 1.3-.6 2.3-.6h.9v-.5c0-.4-.1-.6-.3-.9-.2-.2-.5-.3-.9-.3s-.6.1-.9.3c-.2.2-.3.4-.3.7h-1.5c0-.4.1-.7.4-1.1.2-.3.6-.6 1-.8.4-.2.9-.3 1.4-.3.8 0 1.4.2 1.9.6.5.4.7 1 .7 1.7v3.1c0 .6.1 1.1.3 1.5v.1h-1.4zm-1.7-1.1c.3 0 .6-.1.9-.2s.5-.3.6-.6v-1.3h-.8c-.6 0-1 .1-1.3.3-.3.2-.4.5-.4.8 0 .3.1.5.3.7.1.2.3.3.7.3zM126.2 496.4v1.7h1.2v1.1h-1.2v3.8c0 .3.1.5.2.6s.3.2.6.2c.2 0 .4 0 .5-.1v1.2c-.4.1-.7.1-1 .1-1.2 0-1.8-.7-1.8-2v-3.9h-1.1V498h1.1v-1.7h1.5zM61.2 518.1c0-.4-.1-.7-.3-.9-.2-.2-.6-.4-1.1-.6s-.9-.4-1.2-.5c-1-.5-1.5-1.3-1.5-2.3 0-.7.2-1.3.6-1.7s1-.7 1.7-.8v-1.4h1v1.4c.7.1 1.3.4 1.7.9s.6 1.2.6 2h-1.5c0-.5-.1-1-.4-1.3-.2-.3-.6-.5-1-.5s-.7.1-1 .3-.3.5-.3.9.1.7.3.9c.2.2.6.4 1.2.6s1 .4 1.3.6c.3.2.6.4.8.6s.4.5.5.8c.1.3.2.6.2 1 0 .7-.2 1.3-.7 1.7-.4.4-1 .7-1.8.8v1.2h-1v-1.2c-.8-.1-1.5-.4-1.9-.9-.5-.5-.7-1.2-.7-2h1.5c0 .5.1.9.4 1.2.3.3.6.4 1.1.4.5 0 .8-.1 1.1-.3.3-.2.4-.5.4-.9zM68.5 516.6c-.5.5-1.1.8-1.8.8-.8 0-1.5-.3-1.9-.9s-.7-1.3-.7-2.2c0-.6.1-1.2.4-1.7.2-.5.6-.9 1-1.2.5-.3 1-.4 1.6-.4.9 0 1.7.3 2.2 1s.8 1.6.8 2.8v.4c0 1.7-.4 2.9-1.1 3.8s-1.9 1.3-3.4 1.3h-.2V519h.2c.9 0 1.6-.2 2.1-.7.4-.1.7-.8.8-1.7zm-1.5-.4c.3 0 .6-.1.9-.3s.5-.4.6-.7v-.6c0-.7-.1-1.2-.4-1.6s-.6-.6-1.1-.6-.8.2-1.1.5c-.3.4-.4.8-.4 1.4 0 .6.1 1 .4 1.4s.6.5 1.1.5zM72.6 518.9c.3 0 .5.1.7.2s.2.4.2.6c0 .2-.1.4-.2.6-.2.2-.4.2-.7.2-.3 0-.5-.1-.7-.2s-.2-.4-.2-.6c0-.2.1-.5.2-.6s.4-.2.7-.2zM79.5 516.6c-.5.5-1.1.8-1.8.8-.8 0-1.5-.3-1.9-.9s-.7-1.3-.7-2.2c0-.6.1-1.2.4-1.7.2-.5.6-.9 1-1.2.5-.3 1-.4 1.6-.4.9 0 1.7.3 2.2 1s.8 1.6.8 2.8v.4c0 1.7-.4 2.9-1.1 3.8s-1.9 1.3-3.4 1.3h-.2V519h.2c.9 0 1.6-.2 2.1-.7.5-.1.7-.8.8-1.7zm-1.5-.4c.3 0 .6-.1.9-.3s.5-.4.6-.7v-.6c0-.7-.1-1.2-.4-1.6s-.6-.6-1.1-.6-.8.2-1.1.5c-.3.4-.4.8-.4 1.4 0 .6.1 1 .4 1.4s.7.5 1.1.5zM86.9 516.6c-.5.5-1.1.8-1.8.8-.8 0-1.5-.3-1.9-.9s-.7-1.3-.7-2.2c0-.6.1-1.2.4-1.7.2-.5.6-.9 1-1.2.5-.3 1-.4 1.6-.4.9 0 1.7.3 2.2 1s.8 1.6.8 2.8v.4c0 1.7-.4 2.9-1.1 3.8-.8.9-1.9 1.3-3.4 1.3h-.2V519h.2c.9 0 1.6-.2 2.1-.7.5-.1.7-.8.8-1.7zm-1.5-.4c.3 0 .6-.1.9-.3.3-.2.5-.4.6-.7v-.6c0-.7-.1-1.2-.4-1.6s-.6-.6-1.1-.6-.8.2-1.1.5-.4.8-.4 1.4c0 .6.1 1 .4 1.4s.7.5 1.1.5zM95.2 512v1.7h1.2v1.1h-1.2v3.8c0 .3.1.5.2.6s.3.2.6.2c.2 0 .4 0 .5-.1v1.2c-.4.1-.7.1-1 .1-1.2 0-1.8-.7-1.8-2v-3.9h-1.1v-1.1h1.1V512h1.5zM97.1 517c0-.7.1-1.3.4-1.8.3-.5.6-1 1.1-1.2s1-.4 1.7-.4c.9 0 1.7.3 2.3.9.6.6.9 1.4.9 2.4v.4c0 .7-.1 1.3-.4 1.8-.3.5-.6.9-1.1 1.2-.5.3-1 .4-1.7.4-1 0-1.7-.3-2.3-1s-.9-1.6-.9-2.7zm1.5.1c0 .7.1 1.3.4 1.7.3.4.7.6 1.2.6s.9-.2 1.2-.6.4-1 .4-1.8c0-.7-.1-1.2-.4-1.7-.3-.4-.7-.6-1.2-.6s-.9.2-1.2.6c-.2.4-.4 1-.4 1.8zM41.8 533.7c0-.4-.1-.7-.3-.9-.2-.2-.6-.4-1.1-.6s-.9-.4-1.2-.5c-1-.5-1.5-1.3-1.5-2.3 0-.7.2-1.3.6-1.7s1-.7 1.7-.8v-1.4h1v1.4c.7.1 1.3.4 1.7.9s.6 1.2.6 2h-1.5c0-.5-.1-1-.4-1.3-.2-.3-.6-.5-1-.5s-.7.1-1 .3-.3.5-.3.9.1.7.3.9c.2.2.6.4 1.2.6s1 .4 1.3.6c.3.2.6.4.8.6s.4.5.5.8c.1.3.2.6.2 1 0 .7-.2 1.3-.7 1.7-.4.4-1 .7-1.8.8v1.2h-1v-1.2c-.8-.1-1.5-.4-1.9-.9-.5-.5-.7-1.2-.7-2h1.5c0 .5.1.9.4 1.2.3.3.6.4 1.1.4.5 0 .8-.1 1.1-.3.3-.2.4-.5.4-.9zM50.9 536.1h-6.2V535l3.1-3.4c.4-.5.8-.9.9-1.2.2-.3.3-.7.3-1 0-.4-.1-.8-.4-1.1-.2-.3-.6-.4-1-.4-.5 0-.9.2-1.2.5s-.4.7-.4 1.2h-1.5c0-.6.1-1.1.4-1.5.3-.5.6-.8 1.1-1 .5-.2 1-.4 1.6-.4.9 0 1.6.2 2.1.7.5.5.8 1.1.8 1.9 0 .5-.1.9-.4 1.5-.3.5-.7 1.1-1.3 1.7l-2.3 2.4h4.3v1.2zM57.3 532.8h1.1v1.2h-1.1v2.1h-1.5V534h-4v-.9l4-6.2h1.6v5.9zm-4 0h2.4v-3.9l-.1.2-2.3 3.7zM60.5 534.5c.3 0 .5.1.7.2s.2.4.2.6c0 .2-.1.4-.2.6-.2.2-.4.2-.7.2-.3 0-.5-.1-.7-.2s-.2-.4-.2-.6c0-.2.1-.5.2-.6s.4-.2.7-.2zM67.4 532.2c-.5.5-1.1.8-1.8.8-.8 0-1.5-.3-1.9-.9s-.7-1.3-.7-2.2c0-.6.1-1.2.4-1.7.2-.5.6-.9 1-1.2.5-.3 1-.4 1.6-.4.9 0 1.7.3 2.2 1s.8 1.6.8 2.8v.4c0 1.7-.4 2.9-1.1 3.8s-1.9 1.3-3.4 1.3h-.2v-1.3h.2c.9 0 1.6-.2 2.1-.7.5-.1.8-.8.8-1.7zm-1.4-.4c.3 0 .6-.1.9-.3s.5-.4.6-.7v-.6c0-.7-.1-1.2-.4-1.6s-.7-.6-1.1-.6-.8.2-1.1.5c-.3.4-.4.8-.4 1.4 0 .6.1 1 .4 1.4s.6.5 1.1.5zM74.8 532.2c-.5.5-1.1.8-1.8.8-.8 0-1.5-.3-1.9-.9s-.7-1.3-.7-2.2c0-.6.1-1.2.4-1.7.2-.5.6-.9 1-1.2.5-.3 1-.4 1.6-.4.9 0 1.7.3 2.2 1s.8 1.6.8 2.8v.4c0 1.7-.4 2.9-1.1 3.8s-1.9 1.3-3.4 1.3h-.2v-1.3h.2c.9 0 1.6-.2 2.1-.7.5-.1.8-.8.8-1.7zm-1.4-.4c.3 0 .6-.1.9-.3s.5-.4.6-.7v-.6c0-.7-.1-1.2-.4-1.6s-.6-.6-1.1-.6-.8.2-1.1.5c-.3.4-.4.8-.4 1.4 0 .6.1 1 .4 1.4s.6.5 1.1.5zM78.4 536.9h-1.2l3.6-10H82l-3.6 10zM84.5 529.2v.7c.5-.6 1.1-.8 2-.8.9 0 1.5.4 1.9 1.1.5-.7 1.2-1.1 2.1-1.1.8 0 1.3.2 1.7.6.4.4.6 1 .6 1.9v4.5h-1.5v-4.5c0-.4-.1-.8-.3-1s-.5-.3-.9-.3-.6.1-.9.3c-.2.2-.4.4-.5.7v4.7h-1.5v-4.5c0-.8-.4-1.2-1.2-1.2-.6 0-1.1.3-1.3.8v5h-1.5v-6.9h1.3zM94.1 532.6c0-.7.1-1.3.4-1.8.3-.5.6-1 1.1-1.2s1-.4 1.7-.4c.9 0 1.7.3 2.3.9.6.6.9 1.4.9 2.4v.4c0 .7-.1 1.3-.4 1.8-.3.5-.6.9-1.1 1.2-.5.3-1 .4-1.7.4-1 0-1.7-.3-2.3-1-.6-.7-.9-1.6-.9-2.7zm1.6.1c0 .7.1 1.3.4 1.7.3.4.7.6 1.2.6s.9-.2 1.2-.6c.3-.4.4-1 .4-1.8 0-.7-.1-1.2-.4-1.7-.3-.4-.7-.6-1.2-.6s-.9.2-1.2.6c-.3.4-.4 1-.4 1.8zM103.2 529.2v.8c.5-.6 1.2-.9 2-.9 1.4 0 2.2.8 2.2 2.5v4.5h-1.5v-4.4c0-.4-.1-.8-.3-1-.2-.2-.5-.3-.9-.3-.6 0-1.1.3-1.4.8v4.9h-1.5v-6.9h1.4zM111 527.6v1.7h1.2v1.1H111v3.8c0 .3.1.5.2.6.1.1.3.2.6.2.2 0 .4 0 .5-.1v1.2c-.4.1-.7.1-1 .1-1.2 0-1.8-.7-1.8-2v-3.9h-1.1v-1.1h1.1v-1.7h1.5zM114.9 530c.5-.6 1.1-.9 1.9-.9 1.5 0 2.2.8 2.2 2.5v4.5h-1.5v-4.4c0-.5-.1-.8-.3-1-.2-.2-.5-.3-.9-.3-.6 0-1.1.3-1.4.8v4.9h-1.5v-9.8h1.5v3.7zM121.5 534.5c.3 0 .5.1.7.2.2.2.2.4.2.6 0 .2-.1.4-.2.6-.2.2-.4.2-.7.2-.3 0-.5-.1-.7-.2-.2-.2-.2-.4-.2-.6 0-.2.1-.5.2-.6.2-.2.5-.2.7-.2z"/></g></svg>