<svg id="Layer_1" xmlns="http://www.w3.org/2000/svg" viewBox="0 0 728 90"><style>.st0{fill:#e82d8a}</style><path class="st0" d="M29.54 73.56h-3.38v3.49H24.4v-8.53h5.55v1.42h-3.8v2.2h3.38v1.42zM34.28 72.29c-.23-.03-.43-.05-.61-.05-.64 0-1.06.22-1.26.65v4.15h-1.69V70.7h1.6l.05.76c.34-.58.81-.87 1.41-.87.19 0 .36.03.53.08l-.03 1.62zM38.02 77.16c-.93 0-1.69-.29-2.27-.86s-.88-1.33-.88-2.28v-.16c0-.64.12-1.21.37-1.71s.59-.89 1.05-1.16.97-.41 1.54-.41c.87 0 1.55.27 2.05.82s.75 1.32.75 2.33v.69h-4.04c.05.41.22.75.5 1s.62.38 1.05.38c.65 0 1.16-.24 1.53-.71l.83.93c-.25.36-.6.64-1.03.84s-.93.3-1.45.3zm-.2-5.2c-.34 0-.61.11-.82.34-.21.23-.34.55-.4.98h2.36v-.13c-.01-.38-.11-.67-.3-.88-.2-.21-.48-.31-.84-.31zM44.5 77.16c-.93 0-1.69-.29-2.27-.86s-.88-1.33-.88-2.28v-.16c0-.64.12-1.21.37-1.71s.59-.89 1.05-1.16.97-.41 1.54-.41c.87 0 1.55.27 2.05.82s.75 1.32.75 2.33v.69h-4.04c.05.41.22.75.5 1s.62.38 1.05.38c.65 0 1.16-.24 1.53-.71l.83.93c-.25.36-.6.64-1.03.84s-.92.3-1.45.3zm-.19-5.2c-.34 0-.61.11-.82.34-.21.23-.34.55-.4.98h2.36v-.13c-.01-.38-.11-.67-.3-.88-.2-.21-.48-.31-.84-.31zM51.76 77.05v-5.5h-1v-.84h1v-.65c0-.68.18-1.21.54-1.58s.88-.56 1.54-.56c.25 0 .5.03.74.1l-.06.87c-.18-.04-.38-.05-.59-.05-.35 0-.62.1-.81.31s-.29.5-.29.88v.67h1.35v.84h-1.35v5.5h-1.07zM55.11 73.82c0-.62.12-1.18.37-1.68s.58-.88 1.02-1.15.93-.4 1.49-.4c.86 0 1.56.3 2.09.9s.8 1.39.8 2.38v.08c0 .62-.12 1.17-.35 1.66s-.57.87-1.01 1.15-.94.41-1.51.41c-.86 0-1.56-.3-2.09-.9s-.8-1.39-.8-2.37v-.08zm1.09.13c0 .7.16 1.27.49 1.69s.76.64 1.31.64.99-.22 1.31-.65.49-1.04.49-1.81c0-.7-.17-1.26-.5-1.69s-.77-.65-1.32-.65c-.54 0-.97.21-1.29.64s-.49 1.03-.49 1.83zM65.3 71.68c-.16-.03-.34-.04-.53-.04-.71 0-1.19.3-1.45.91v4.5h-1.08v-6.34h1.05l.02.73c.36-.57.86-.85 1.51-.85.21 0 .37.03.48.08v1.01zM70.57 73.71v3.34h-1.12v-8.53h3.15c.93 0 1.66.24 2.19.71s.79 1.11.79 1.89c0 .83-.26 1.47-.78 1.91s-1.26.67-2.22.67h-2.01zm0-.92h2.02c.6 0 1.06-.14 1.38-.43.32-.28.48-.69.48-1.23 0-.51-.16-.92-.48-1.22s-.76-.46-1.32-.48h-2.09v3.36zM79.91 71.68c-.16-.03-.34-.04-.53-.04-.71 0-1.19.3-1.45.91v4.5h-1.08v-6.34h1.05l.02.73c.36-.57.86-.85 1.51-.85.21 0 .37.03.48.08v1.01zM80.91 69.03c0-.18.05-.32.16-.45s.27-.18.48-.18.37.06.48.18.16.27.16.45-.05.32-.16.44-.27.18-.48.18-.37-.06-.48-.18-.16-.27-.16-.44zm1.17 8.02H81v-6.34h1.08v6.34zM85.91 75.58l1.57-4.87h1.11l-2.27 6.34h-.83l-2.3-6.34h1.11l1.61 4.87zM93.45 77.05c-.06-.12-.11-.35-.15-.67-.5.52-1.11.79-1.8.79-.62 0-1.14-.18-1.54-.53s-.6-.8-.6-1.34c0-.66.25-1.17.75-1.54s1.21-.55 2.12-.55h1.05v-.5c0-.38-.11-.68-.34-.91s-.56-.34-1-.34c-.39 0-.71.1-.97.29s-.39.43-.39.71h-1.09c0-.32.11-.62.34-.92s.53-.53.91-.7.81-.26 1.27-.26c.73 0 1.3.18 1.72.55s.63.87.64 1.51v2.92c0 .58.07 1.04.22 1.39v.09h-1.14zm-1.8-.83c.34 0 .66-.09.97-.26s.53-.4.66-.69v-1.3h-.85c-1.33 0-1.99.39-1.99 1.17 0 .34.11.61.34.8s.52.28.87.28zM98.61 76.28c.39 0 .72-.12 1.01-.35s.45-.53.48-.88h1.03c-.02.36-.14.71-.38 1.04s-.54.59-.92.79-.79.29-1.22.29c-.86 0-1.55-.29-2.06-.86s-.76-1.36-.76-2.36v-.18c0-.62.11-1.17.34-1.65s.55-.85.98-1.12.92-.4 1.5-.4c.71 0 1.3.21 1.77.64s.72.98.75 1.66h-1.03c-.03-.41-.19-.75-.47-1.01s-.62-.4-1.03-.4c-.55 0-.98.2-1.28.59s-.45.97-.45 1.72v.2c0 .73.15 1.29.45 1.69s.73.59 1.29.59zM104.42 75.46l1.48-4.75h1.16l-2.55 7.32c-.39 1.05-1.02 1.58-1.88 1.58l-.21-.02-.4-.08v-.88l.29.02c.37 0 .65-.07.86-.22s.37-.42.51-.81l.24-.64-2.26-6.27h1.18l1.58 4.75zM114.49 75.93c-.29.41-.69.72-1.21.93s-1.12.31-1.81.31c-.7 0-1.31-.16-1.85-.49s-.96-.79-1.25-1.39-.45-1.3-.45-2.09v-.74c0-1.29.3-2.28.9-2.99s1.44-1.06 2.53-1.06c.89 0 1.61.23 2.15.68s.88 1.1 1 1.94h-1.12c-.21-1.13-.88-1.7-2.02-1.7-.75 0-1.33.27-1.71.79s-.58 1.3-.59 2.3v.7c0 .96.22 1.72.66 2.28.44.57 1.03.85 1.78.85.42 0 .79-.05 1.11-.14s.58-.25.79-.47v-1.91h-1.97v-.93h3.09v3.13zM120.11 76.42c-.42.5-1.04.74-1.86.74-.68 0-1.19-.2-1.54-.59s-.53-.97-.54-1.74v-4.12h1.08v4.1c0 .96.39 1.44 1.17 1.44.83 0 1.38-.31 1.65-.93v-4.61h1.08v6.34h-1.03l-.01-.63zM126.73 77.05c-.06-.12-.11-.35-.15-.67-.5.52-1.11.79-1.8.79-.62 0-1.14-.18-1.54-.53s-.6-.8-.6-1.34c0-.66.25-1.17.75-1.54s1.21-.55 2.12-.55h1.05v-.5c0-.38-.11-.68-.34-.91s-.56-.34-1-.34c-.39 0-.71.1-.97.29s-.39.43-.39.71h-1.09c0-.32.11-.62.34-.92s.53-.53.91-.7.81-.26 1.27-.26c.73 0 1.3.18 1.72.55s.63.87.64 1.51v2.92c0 .58.07 1.04.22 1.39v.09h-1.14zm-1.8-.83c.34 0 .66-.09.97-.26s.53-.4.66-.69v-1.3h-.85c-1.33 0-1.99.39-1.99 1.17 0 .34.11.61.34.8s.51.28.87.28zM132.41 71.68c-.16-.03-.34-.04-.53-.04-.71 0-1.19.3-1.45.91v4.5h-1.08v-6.34h1.05l.02.73c.36-.57.86-.85 1.51-.85.21 0 .37.03.48.08v1.01zM133.14 73.82c0-.97.23-1.75.69-2.35s1.06-.89 1.81-.89c.74 0 1.33.25 1.76.76v-3.3h1.08v9h-1l-.05-.68c-.43.53-1.04.8-1.81.8-.73 0-1.33-.3-1.8-.9s-.69-1.39-.69-2.36v-.08zm1.08.13c0 .72.15 1.28.45 1.69s.71.61 1.23.61c.69 0 1.19-.31 1.51-.93v-2.91c-.32-.6-.82-.9-1.49-.9-.53 0-.95.21-1.24.62s-.46 1.01-.46 1.82zM144.16 70.71l.03.7c.46-.55 1.09-.82 1.88-.82.89 0 1.49.34 1.81 1.02.21-.3.49-.55.82-.74s.74-.28 1.2-.28c1.39 0 2.1.74 2.12 2.21v4.25h-1.08v-4.18c0-.45-.1-.79-.31-1.02s-.55-.34-1.04-.34c-.4 0-.74.12-1 .36s-.42.56-.46.97v4.21h-1.09V72.9c0-.92-.45-1.38-1.35-1.38-.71 0-1.2.3-1.46.91v4.63h-1.08v-6.34h1.01zM156.29 77.16c-.86 0-1.56-.28-2.1-.85s-.81-1.32-.81-2.26v-.2c0-.63.12-1.19.36-1.68s.58-.88 1.01-1.16.9-.42 1.4-.42c.82 0 1.46.27 1.92.81s.69 1.32.69 2.33v.45h-4.29c.02.62.2 1.13.55 1.51s.79.58 1.33.58c.38 0 .71-.08.97-.23s.5-.36.7-.62l.66.52c-.53.82-1.33 1.22-2.39 1.22zm-.14-5.68c-.44 0-.8.16-1.1.48s-.48.76-.55 1.34h3.18v-.08c-.03-.55-.18-.98-.45-1.28s-.62-.46-1.08-.46zM161.04 70.71l.03.7c.46-.55 1.09-.82 1.88-.82.89 0 1.49.34 1.81 1.02.21-.3.49-.55.82-.74s.74-.28 1.2-.28c1.39 0 2.1.74 2.12 2.21v4.25h-1.08v-4.18c0-.45-.1-.79-.31-1.02s-.55-.34-1.04-.34c-.4 0-.74.12-1 .36s-.42.56-.46.97v4.21h-1.09V72.9c0-.92-.45-1.38-1.35-1.38-.71 0-1.2.3-1.46.91v4.63h-1.08v-6.34h1.01zM175.9 73.95c0 .97-.22 1.75-.67 2.33s-1.04.88-1.79.88c-.8 0-1.42-.28-1.86-.85l-.05.73h-1v-9h1.08v3.36c.44-.54 1.04-.81 1.81-.81s1.37.29 1.81.87.66 1.38.66 2.39v.1zm-1.08-.13c0-.74-.14-1.31-.43-1.71s-.7-.6-1.23-.6c-.71 0-1.23.33-1.54 1v2.74c.33.66.85 1 1.55 1 .52 0 .92-.2 1.21-.6s.44-1.02.44-1.83zM179.9 77.16c-.86 0-1.56-.28-2.1-.85s-.81-1.32-.81-2.26v-.2c0-.63.12-1.19.36-1.68s.58-.88 1.01-1.16.9-.42 1.4-.42c.82 0 1.46.27 1.92.81s.69 1.32.69 2.33v.45h-4.29c.02.62.2 1.13.55 1.51s.79.58 1.33.58c.38 0 .71-.08.97-.23s.5-.36.7-.62l.66.52c-.53.82-1.33 1.22-2.39 1.22zm-.14-5.68c-.44 0-.8.16-1.1.48s-.48.76-.55 1.34h3.18v-.08c-.03-.55-.18-.98-.45-1.28s-.63-.46-1.08-.46zM186.69 71.68c-.16-.03-.34-.04-.53-.04-.71 0-1.19.3-1.45.91v4.5h-1.08v-6.34h1.05l.02.73c.36-.57.86-.85 1.51-.85.21 0 .37.03.48.08v1.01zM191.38 75.37c0-.29-.11-.52-.33-.68s-.61-.3-1.15-.42-.98-.26-1.31-.42-.56-.36-.71-.59-.23-.5-.23-.81c0-.52.22-.96.66-1.32s1-.54 1.68-.54c.72 0 1.3.19 1.75.56s.67.85.67 1.42h-1.09c0-.3-.13-.55-.38-.77s-.57-.32-.95-.32c-.39 0-.7.09-.93.26s-.33.4-.33.67c0 .26.1.46.31.59s.58.26 1.12.38.98.27 1.32.43.58.37.75.61.24.52.24.86c0 .57-.23 1.02-.68 1.36s-1.04.51-1.76.51c-.51 0-.96-.09-1.35-.27s-.7-.43-.92-.75-.33-.67-.33-1.05h1.08c.02.36.17.65.44.86s.63.32 1.08.32c.41 0 .74-.08.99-.25s.36-.37.36-.64zM193.89 76.48c0-.19.06-.34.17-.47s.28-.19.5-.19.39.06.51.19.17.28.17.47c0 .18-.06.33-.17.45s-.28.18-.51.18-.39-.06-.5-.18-.17-.27-.17-.45z"/></svg>