<svg id="Layer_1" xmlns="http://www.w3.org/2000/svg" viewBox="0 0 728 90"><style>.st0{fill:url(#SVGID_1_)}</style><linearGradient id="SVGID_1_" gradientUnits="userSpaceOnUse" x1="237.688" y1="45.093" x2="528.911" y2="45.093"><stop offset="0" stop-color="#18b9fb"/><stop offset=".5" stop-color="#782eeb"/><stop offset="1" stop-color="#e82d8a"/></linearGradient><path class="st0" d="M242.47 27.45l2.99 9.33 2.98-9.33h4.25v13.41h-3.24v-3.13l.31-6.41-3.24 9.54h-2.14l-3.25-9.55.31 6.42v3.13h-3.23V27.45h4.26zm11.74 8.33c0-.99.19-1.88.58-2.66.39-.78.94-1.37 1.67-1.79s1.57-.63 2.55-.63c1.49 0 2.67.46 3.53 1.39.86.92 1.29 2.18 1.29 3.77v.11c0 1.55-.43 2.78-1.29 3.7-.86.91-2.03 1.37-3.5 1.37-1.42 0-2.56-.42-3.42-1.27-.86-.85-1.32-2-1.39-3.46l-.02-.53zm3.11.19c0 .92.15 1.6.43 2.03.29.43.71.64 1.28.64 1.1 0 1.67-.85 1.69-2.55v-.31c0-1.79-.57-2.68-1.71-2.68-1.04 0-1.6.77-1.68 2.31l-.01.56zm10.72-5.08l.1 1.17c.69-.9 1.64-1.35 2.84-1.35 1.04 0 1.81.31 2.32.93.51.62.78 1.55.8 2.8v6.42H271v-6.29c0-.5-.1-.87-.3-1.11s-.57-.35-1.1-.35c-.61 0-1.06.24-1.35.72v7.03h-3.1V30.9h2.89zm7.76-2.57c0-.44.16-.8.48-1.09.32-.28.73-.42 1.24-.42s.92.14 1.24.42c.32.28.48.65.48 1.09s-.16.8-.48 1.09c-.32.28-.73.42-1.24.42s-.92-.14-1.24-.42c-.32-.29-.48-.65-.48-1.09zm3.3 12.53h-3.11v-9.96h3.11v9.96zm5.53-12.44v2.48h1.64v2.15h-1.64v4.56c0 .37.07.63.2.78.14.15.4.22.8.22.31 0 .56-.02.77-.06v2.22c-.56.18-1.14.27-1.75.27-1.07 0-1.86-.25-2.37-.75s-.76-1.27-.76-2.29v-4.94h-1.27V30.9h1.27v-2.48h3.11zm2.19 7.37c0-.99.19-1.88.58-2.66.39-.78.94-1.37 1.67-1.79s1.57-.63 2.55-.63c1.49 0 2.67.46 3.53 1.39.86.92 1.29 2.18 1.29 3.77v.11c0 1.55-.43 2.78-1.29 3.7-.86.91-2.03 1.37-3.5 1.37-1.42 0-2.56-.42-3.42-1.27-.86-.85-1.32-2-1.39-3.46l-.02-.53zm3.1.19c0 .92.15 1.6.43 2.03s.71.64 1.28.64c1.1 0 1.67-.85 1.69-2.55v-.31c0-1.79-.57-2.68-1.71-2.68-1.04 0-1.6.77-1.68 2.31l-.01.56zm13.9-2.27l-1.02-.07c-.98 0-1.6.31-1.88.92v6.31h-3.1V30.9h2.91l.1 1.28c.52-.97 1.25-1.46 2.18-1.46.33 0 .62.04.87.11l-.06 2.87zm9.8 2.81l1.66-5.62h3.32l-4.06 11.63-.18.42c-.58 1.29-1.6 1.93-3.06 1.93-.41 0-.83-.06-1.28-.18v-2.21h.41c.44 0 .77-.06 1-.19.23-.13.4-.35.51-.68l.25-.66-3.46-10.06h3.31l1.58 5.62zm5.25-.73c0-.99.19-1.88.58-2.66.39-.78.94-1.37 1.67-1.79.72-.42 1.57-.63 2.55-.63 1.49 0 2.67.46 3.53 1.39.86.92 1.29 2.18 1.29 3.77v.11c0 1.55-.43 2.78-1.29 3.7-.86.91-2.03 1.37-3.5 1.37-1.42 0-2.56-.42-3.42-1.27-.86-.85-1.32-2-1.39-3.46l-.02-.53zm3.11.19c0 .92.15 1.6.43 2.03s.71.64 1.28.64c1.1 0 1.67-.85 1.69-2.55v-.31c0-1.79-.57-2.68-1.71-2.68-1.04 0-1.6.77-1.68 2.31l-.01.56zm13.81 3.8c-.66.84-1.54 1.26-2.66 1.26-1.09 0-1.92-.32-2.48-.95-.56-.63-.84-1.55-.84-2.74v-6.45h3.1v6.47c0 .85.41 1.28 1.24 1.28.71 0 1.22-.25 1.52-.76v-6.99h3.12v9.96h-2.91l-.09-1.08zm10.72-6.07l-1.02-.07c-.98 0-1.6.31-1.88.92v6.31h-3.1V30.9h2.91l.1 1.28c.52-.97 1.25-1.46 2.18-1.46.33 0 .62.04.87.11l-.06 2.87zm15.07 2.24c0 1.55-.35 2.78-1.05 3.71-.7.92-1.64 1.39-2.82 1.39-.92 0-1.67-.33-2.26-1v4.65h-3.1v-13.8h2.9l.09.92c.6-.74 1.38-1.1 2.35-1.1 1.23 0 2.18.45 2.86 1.36.68.91 1.02 2.15 1.02 3.73v.14zm-3.11-.19c0-1.77-.52-2.65-1.55-2.65-.74 0-1.23.26-1.47.79v3.92c.27.55.77.83 1.49.83.99 0 1.5-.85 1.53-2.56v-.33zm9.29 5.28c-1.53 0-2.77-.46-3.71-1.37-.95-.91-1.42-2.1-1.42-3.56v-.26c0-1.02.19-1.92.57-2.7.38-.78.93-1.38 1.65-1.81.72-.43 1.58-.64 2.58-.64 1.4 0 2.5.43 3.31 1.3.81.87 1.22 2.08 1.22 3.63v1.21h-6.17c.11.56.35 1 .73 1.32.37.32.86.48 1.45.48.98 0 1.75-.34 2.3-1.03l1.42 1.68c-.39.53-.93.96-1.64 1.27-.71.33-1.47.48-2.29.48zm-.35-7.93c-.91 0-1.45.6-1.62 1.8h3.13v-.24c.01-.5-.11-.88-.38-1.16-.26-.27-.64-.4-1.13-.4zm11.82.6l-1.02-.07c-.98 0-1.6.31-1.88.92v6.31h-3.1V30.9h2.91l.1 1.28c.52-.97 1.25-1.46 2.18-1.46.33 0 .62.04.87.11l-.06 2.87zm6.34 4.35c0-.26-.14-.48-.41-.63-.28-.16-.8-.33-1.57-.5-.77-.17-1.41-.4-1.92-.68-.5-.28-.89-.62-1.15-1.02-.26-.4-.4-.86-.4-1.37 0-.91.38-1.67 1.13-2.26.75-.59 1.74-.89 2.96-.89 1.31 0 2.37.3 3.17.89.8.59 1.2 1.38 1.2 2.35h-3.11c0-.8-.42-1.2-1.26-1.2-.32 0-.6.09-.82.27-.22.18-.33.41-.33.68 0 .28.14.5.41.67s.7.31 1.29.42c.59.11 1.11.24 1.56.4 1.5.52 2.25 1.44 2.25 2.77 0 .91-.4 1.65-1.21 2.22-.81.57-1.85.86-3.13.86-.85 0-1.61-.15-2.28-.46-.67-.31-1.19-.72-1.57-1.25-.37-.53-.56-1.08-.56-1.67h2.9c.01.46.17.8.46 1.01.29.21.67.32 1.13.32.42 0 .74-.09.95-.26.2-.17.31-.39.31-.67zm4.05-2.27c0-.99.19-1.88.58-2.66.39-.78.94-1.37 1.67-1.79s1.57-.63 2.55-.63c1.49 0 2.67.46 3.53 1.39.86.92 1.29 2.18 1.29 3.77v.11c0 1.55-.43 2.78-1.29 3.7-.86.91-2.03 1.37-3.5 1.37-1.42 0-2.56-.42-3.42-1.27-.86-.85-1.32-2-1.39-3.46l-.02-.53zm3.1.19c0 .92.15 1.6.43 2.03.29.43.71.64 1.28.64 1.1 0 1.67-.85 1.69-2.55v-.31c0-1.79-.57-2.68-1.71-2.68-1.04 0-1.6.77-1.68 2.31l-.01.56zm10.73-5.08l.1 1.17c.69-.9 1.64-1.35 2.84-1.35 1.04 0 1.81.31 2.32.93.51.62.78 1.55.8 2.8v6.42h-3.11v-6.29c0-.5-.1-.87-.3-1.11s-.57-.35-1.1-.35c-.61 0-1.06.24-1.35.72v7.03h-3.1V30.9h2.9zm13.39 9.96c-.11-.2-.21-.5-.29-.89-.57.72-1.37 1.08-2.39 1.08-.94 0-1.74-.28-2.39-.85s-.99-1.28-.99-2.14c0-1.08.4-1.9 1.2-2.45.8-.55 1.96-.83 3.48-.83h.96v-.53c0-.92-.4-1.38-1.19-1.38-.74 0-1.1.36-1.1 1.09h-3.1c0-.96.41-1.74 1.23-2.35.82-.6 1.87-.9 3.13-.9 1.27 0 2.27.31 3.01.93.74.62 1.11 1.47 1.13 2.55v4.41c.01.91.15 1.61.42 2.1v.16h-3.11zm-1.94-2.02c.39 0 .71-.08.96-.25.25-.16.44-.35.55-.56v-1.59h-.9c-1.08 0-1.62.48-1.62 1.45 0 .28.09.51.28.69.2.17.44.26.73.26zm9.61 2.02h-3.11V26.71h3.11v14.14zm6.59-12.53c0-.44.16-.8.48-1.09.32-.28.73-.42 1.24-.42s.92.14 1.24.42c.32.28.48.65.48 1.09s-.16.8-.48 1.09c-.32.28-.73.42-1.24.42s-.92-.14-1.24-.42c-.32-.29-.48-.65-.48-1.09zm3.29 12.53h-3.11v-9.96h3.11v9.96zm4.76-9.96l.1 1.17c.69-.9 1.64-1.35 2.84-1.35 1.04 0 1.81.31 2.32.93.51.62.78 1.55.8 2.8v6.42h-3.11v-6.29c0-.5-.1-.87-.3-1.11s-.57-.35-1.1-.35c-.61 0-1.06.24-1.35.72v7.03h-3.1V30.9h2.9zm8.47 9.96v-7.81h-1.44v-2.15h1.44v-.79c0-1.14.33-2.02 1-2.64.67-.63 1.61-.94 2.82-.94.44 0 .93.06 1.45.19l.01 2.28c-.19-.06-.45-.08-.76-.08-.94 0-1.41.41-1.41 1.22v.76h1.94v2.15h-1.94v7.81h-3.11zm5.76-5.07c0-.99.19-1.88.58-2.66.39-.78.94-1.37 1.67-1.79s1.57-.63 2.55-.63c1.49 0 2.67.46 3.53 1.39.86.92 1.29 2.18 1.29 3.77v.11c0 1.55-.43 2.78-1.29 3.7-.86.91-2.03 1.37-3.5 1.37-1.42 0-2.56-.42-3.42-1.27-.86-.85-1.32-2-1.39-3.46l-.02-.53zm3.1.19c0 .92.15 1.6.43 2.03s.71.64 1.28.64c1.1 0 1.67-.85 1.69-2.55v-.31c0-1.79-.57-2.68-1.71-2.68-1.04 0-1.6.77-1.68 2.31l-.01.56zm13.9-2.27l-1.02-.07c-.98 0-1.6.31-1.88.92v6.31h-3.1V30.9h2.91l.1 1.28c.52-.97 1.25-1.46 2.18-1.46.33 0 .62.04.87.11l-.06 2.87zm4.05-2.81l.1 1.17c.71-.9 1.65-1.35 2.84-1.35 1.26 0 2.11.5 2.55 1.5.67-1 1.65-1.5 2.93-1.5 2.02 0 3.06 1.22 3.11 3.66v6.48h-3.11v-6.29c0-.51-.09-.88-.26-1.11-.17-.23-.49-.35-.94-.35-.61 0-1.07.27-1.37.82l.01.13v6.8h-3.11v-6.27c0-.52-.08-.9-.25-1.13-.16-.23-.48-.35-.95-.35-.6 0-1.05.27-1.36.82v6.93h-3.1v-9.96h2.91zm18.92 9.96c-.11-.2-.21-.5-.29-.89-.57.72-1.37 1.08-2.39 1.08-.94 0-1.74-.28-2.39-.85s-.99-1.28-.99-2.14c0-1.08.4-1.9 1.2-2.45.8-.55 1.96-.83 3.48-.83h.96v-.53c0-.92-.4-1.38-1.19-1.38-.74 0-1.1.36-1.1 1.09h-3.1c0-.96.41-1.74 1.23-2.35.82-.6 1.87-.9 3.13-.9 1.27 0 2.27.31 3.01.93.74.62 1.11 1.47 1.13 2.55v4.41c.01.91.15 1.61.42 2.1v.16h-3.11zm-1.94-2.02c.39 0 .71-.08.96-.25.25-.16.44-.35.55-.56v-1.59h-.9c-1.08 0-1.62.48-1.62 1.45 0 .28.09.51.28.69.19.17.44.26.73.26zm9.95-10.42v2.48H503v2.15h-1.64v4.56c0 .37.07.63.2.78.14.15.4.22.8.22.31 0 .56-.02.77-.06v2.22c-.56.18-1.14.27-1.75.27-1.07 0-1.86-.25-2.37-.75s-.76-1.27-.76-2.29v-4.94h-1.27V30.9h1.27v-2.48h3.11zm2.84-.09c0-.44.16-.8.48-1.09.32-.28.73-.42 1.24-.42s.92.14 1.24.42c.32.28.48.65.48 1.09s-.16.8-.48 1.09c-.32.28-.73.42-1.24.42s-.92-.14-1.24-.42c-.32-.29-.48-.65-.48-1.09zm3.3 12.53h-3.11v-9.96h3.11v9.96zm1.51-5.07c0-.99.19-1.88.58-2.66.39-.78.94-1.37 1.67-1.79.72-.42 1.57-.63 2.55-.63 1.49 0 2.67.46 3.53 1.39.86.92 1.29 2.18 1.29 3.77v.11c0 1.55-.43 2.78-1.29 3.7-.86.91-2.03 1.37-3.5 1.37-1.42 0-2.56-.42-3.42-1.27-.86-.85-1.32-2-1.39-3.46l-.02-.53zm3.11.19c0 .92.15 1.6.43 2.03.29.43.71.64 1.28.64 1.1 0 1.67-.85 1.69-2.55v-.31c0-1.79-.57-2.68-1.71-2.68-1.04 0-1.6.77-1.68 2.31l-.01.56zm10.72-5.08l.1 1.17c.69-.9 1.64-1.35 2.84-1.35 1.04 0 1.81.31 2.32.93.51.62.78 1.55.8 2.8v6.42h-3.11v-6.29c0-.5-.1-.87-.3-1.11-.2-.24-.57-.35-1.1-.35-.61 0-1.06.24-1.35.72v7.03h-3.1V30.9h2.9zM237.69 58.4c0-.99.19-1.88.58-2.66.39-.78.94-1.37 1.67-1.79.72-.42 1.57-.63 2.55-.63 1.49 0 2.67.46 3.53 1.39s1.29 2.18 1.29 3.77v.11c0 1.55-.43 2.78-1.29 3.7-.86.91-2.03 1.37-3.5 1.37-1.42 0-2.56-.42-3.42-1.27-.86-.85-1.32-2-1.39-3.46l-.02-.53zm3.1.2c0 .92.15 1.6.43 2.03.29.43.71.64 1.28.64 1.1 0 1.67-.85 1.69-2.55v-.32c0-1.79-.57-2.68-1.71-2.68-1.04 0-1.6.77-1.68 2.31l-.01.57zm10.73-5.08l.1 1.17c.69-.9 1.64-1.35 2.84-1.35 1.04 0 1.81.31 2.32.93.51.62.78 1.55.8 2.8v6.42h-3.11V57.2c0-.5-.1-.87-.3-1.11s-.57-.35-1.1-.35c-.61 0-1.06.24-1.35.72v7.03h-3.1v-9.96h2.9zm16.09-2.48v2.48h1.64v2.15h-1.64v4.56c0 .37.07.63.2.78.14.15.4.22.8.22.31 0 .56-.02.77-.06v2.22c-.56.18-1.14.27-1.75.27-1.07 0-1.86-.25-2.37-.75s-.76-1.27-.76-2.29v-4.94h-1.27v-2.15h1.27v-2.48h3.11zm5.89 3.54c.66-.84 1.51-1.25 2.54-1.25 1.1 0 1.93.32 2.49.98.56.65.84 1.61.86 2.88v6.29h-3.11v-6.22c0-.53-.11-.92-.32-1.16-.21-.25-.58-.37-1.1-.37-.64 0-1.09.2-1.35.61v7.14h-3.1V49.34h3.1v5.24zm12.43 9.08c-1.53 0-2.77-.46-3.71-1.37-.95-.91-1.42-2.1-1.42-3.56v-.26c0-1.02.19-1.92.57-2.7.38-.78.93-1.38 1.65-1.81s1.58-.64 2.58-.64c1.4 0 2.5.43 3.31 1.3.81.87 1.22 2.08 1.22 3.63v1.21h-6.17c.11.56.35 1 .73 1.32.37.32.86.48 1.45.48.98 0 1.75-.34 2.3-1.03l1.42 1.68c-.39.53-.93.96-1.64 1.27-.71.32-1.47.48-2.29.48zm-.35-7.93c-.91 0-1.45.6-1.62 1.8h3.13v-.24c.01-.5-.11-.88-.38-1.16-.26-.27-.64-.4-1.13-.4zm13.87 3.2v4.55h-3.23V50.07h5.35c1.02 0 1.93.19 2.72.57.79.38 1.4.91 1.83 1.61.43.7.65 1.49.65 2.37 0 1.31-.47 2.35-1.4 3.13-.94.78-2.22 1.17-3.85 1.17h-2.07zm0-2.49h2.12c.63 0 1.1-.16 1.43-.47.33-.31.49-.75.49-1.33 0-.63-.17-1.13-.51-1.5-.34-.37-.8-.56-1.38-.57h-2.16v3.87zm14.83 5.96c-.66.84-1.54 1.26-2.66 1.26-1.09 0-1.92-.32-2.48-.95-.56-.63-.84-1.55-.84-2.74v-6.45h3.1v6.47c0 .85.41 1.28 1.24 1.28.71 0 1.22-.25 1.52-.76v-6.99h3.12v9.96h-2.91l-.09-1.08zm13.95-3.82c0 1.63-.34 2.89-1.01 3.77-.67.88-1.63 1.32-2.85 1.32-1.01 0-1.83-.4-2.45-1.21l-.13 1.02H319V49.34h3.1v4.98c.58-.66 1.32-.98 2.24-.98 1.24 0 2.2.45 2.87 1.34.68.89 1.01 2.14 1.01 3.76v.14zm-3.11-.2c0-.96-.13-1.64-.38-2.05-.25-.41-.65-.61-1.17-.61-.7 0-1.18.27-1.45.8v3.95c.26.53.75.79 1.47.79.73 0 1.19-.36 1.39-1.07.09-.34.14-.94.14-1.81zm7.75 5.1h-3.11V49.34h3.11v14.14zm1.89-12.53c0-.44.16-.8.48-1.09.32-.28.73-.42 1.24-.42s.92.14 1.24.42c.32.28.48.65.48 1.09s-.16.8-.48 1.09c-.32.28-.73.42-1.24.42s-.92-.14-1.24-.42c-.32-.29-.48-.65-.48-1.09zm3.29 12.53h-3.11v-9.96h3.11v9.96zm6.12-2.21c.44 0 .77-.12 1.01-.35s.36-.57.35-.99h2.91c0 1.09-.39 1.99-1.17 2.69-.78.7-1.79 1.05-3.02 1.05-1.45 0-2.59-.45-3.42-1.36-.84-.91-1.25-2.17-1.25-3.77v-.14c0-1.01.19-1.9.56-2.67.37-.77.91-1.36 1.61-1.78.7-.41 1.53-.62 2.48-.62 1.3 0 2.32.36 3.08 1.08.76.72 1.14 1.69 1.14 2.92h-2.91c0-.52-.13-.91-.38-1.19-.25-.28-.59-.41-1.01-.41-.8 0-1.27.51-1.41 1.54-.04.33-.06.77-.06 1.35 0 1 .12 1.69.36 2.08.23.38.61.57 1.13.57zm12.28-4.85c-.36-.52-.65-1.01-.85-1.47a3.49 3.49 0 0 1-.31-1.44c0-1.08.35-1.95 1.05-2.62.7-.67 1.61-1 2.74-1 1.01 0 1.85.31 2.51.93.66.62.99 1.38.99 2.3 0 1.14-.63 2.16-1.89 3.04l-.7.49 2.06 2.37c.34-.67.51-1.41.51-2.22h2.61c0 1.81-.42 3.26-1.25 4.35l2.04 2.35h-3.46l-.63-.71c-.52.31-1.04.53-1.58.68-.54.15-1.14.22-1.82.22-1.33 0-2.39-.35-3.19-1.04-.8-.7-1.2-1.61-1.2-2.75 0-.62.16-1.18.47-1.68s.93-1.09 1.85-1.76l.05-.04zm2.23 4.86c.54 0 1.06-.13 1.55-.38l-2.41-2.74-.08.06c-.35.43-.53.91-.53 1.45 0 .45.14.83.42 1.14.29.31.64.47 1.05.47zm-.71-7.82c0 .43.23.95.7 1.57l.62-.39c.28-.18.49-.37.62-.57.13-.2.19-.45.19-.75 0-.28-.1-.53-.29-.74a.96.96 0 0 0-.73-.31c-.34 0-.61.11-.81.33-.21.22-.3.5-.3.86zM372 63.48V50.07h4.32c1.18 0 2.25.27 3.19.81.95.54 1.68 1.29 2.21 2.27s.8 2.08.81 3.29v.62c0 1.23-.26 2.33-.78 3.3s-1.25 1.73-2.19 2.28-1.99.83-3.15.83H372zm3.23-10.91v8.42h1.12c.93 0 1.64-.33 2.14-.99.5-.66.75-1.64.75-2.94v-.58c0-1.3-.25-2.27-.75-2.93-.5-.66-1.22-.98-2.17-.98h-1.09zm14.43 10.91c-.11-.2-.21-.5-.29-.89-.57.72-1.37 1.08-2.39 1.08-.94 0-1.74-.28-2.39-.85-.66-.57-.99-1.28-.99-2.14 0-1.08.4-1.9 1.2-2.45.8-.55 1.96-.83 3.48-.83h.96v-.53c0-.92-.4-1.38-1.19-1.38-.74 0-1.1.36-1.1 1.09h-3.1c0-.96.41-1.74 1.23-2.35.82-.6 1.87-.9 3.13-.9 1.27 0 2.27.31 3.01.93.74.62 1.11 1.47 1.13 2.55v4.41c.01.91.15 1.61.42 2.1v.16h-3.11zm-1.95-2.03c.39 0 .71-.08.96-.25.25-.16.44-.35.55-.56v-1.59h-.9c-1.08 0-1.62.48-1.62 1.45 0 .28.09.51.28.69.2.17.44.26.73.26zm12.37-5.13l-1.02-.07c-.98 0-1.6.31-1.88.92v6.31h-3.1v-9.96h2.91l.1 1.28c.52-.97 1.25-1.46 2.18-1.46.33 0 .62.04.87.11l-.06 2.87zm5.12 3.45l-.87.88v2.84h-3.1V49.33h3.1v7.51l.31-.41 2.34-2.91h3.72l-3.49 4.1 3.72 5.86h-3.55l-2.18-3.71zm21.53-1.29l1.54-8.41h3.2l-2.84 13.41h-3.35l-1.8-7.64-1.76 7.64h-3.34l-2.86-13.41h3.21l1.54 8.41 1.84-8.41h2.74l1.88 8.41zm10.4 5.18c-1.53 0-2.77-.46-3.71-1.37-.95-.91-1.42-2.1-1.42-3.56v-.26c0-1.02.19-1.92.57-2.7.38-.78.93-1.38 1.65-1.81.72-.43 1.58-.64 2.58-.64 1.4 0 2.5.43 3.31 1.3.81.87 1.22 2.08 1.22 3.63v1.21h-6.17c.11.56.35 1 .73 1.32.37.32.86.48 1.45.48.98 0 1.75-.34 2.3-1.03l1.42 1.68c-.39.53-.93.96-1.64 1.27-.71.32-1.48.48-2.29.48zm-.35-7.93c-.91 0-1.45.6-1.62 1.8h3.13v-.24c.01-.5-.11-.88-.38-1.16-.26-.27-.64-.4-1.13-.4zm15.04 2.85c0 1.63-.34 2.89-1.01 3.77-.67.88-1.63 1.32-2.85 1.32-1.01 0-1.83-.4-2.45-1.21l-.13 1.02h-2.78V49.34h3.1v4.98c.58-.66 1.32-.98 2.24-.98 1.24 0 2.2.45 2.87 1.34.68.89 1.01 2.14 1.01 3.76v.14zm-3.11-.2c0-.96-.13-1.64-.38-2.05-.25-.41-.65-.61-1.17-.61-.7 0-1.18.27-1.45.8v3.95c.26.53.75.79 1.47.79.73 0 1.19-.36 1.39-1.07.09-.34.14-.94.14-1.81z"/></svg>