<?xml version="1.0" encoding="utf-8"?>
<!-- Generator: Adobe Illustrator 25.4.1, SVG Export Plug-In . SVG Version: 6.00 Build 0)  -->
<svg version="1.1" id="Layer_1" xmlns="http://www.w3.org/2000/svg" xmlns:xlink="http://www.w3.org/1999/xlink" x="0px" y="0px"
	 viewBox="0 0 728 90" style="enable-background:new 0 0 728 90;" xml:space="preserve">
<style type="text/css">
	.st0{fill:#2A3380;}
</style>
<g>
	<path class="st0" d="M418.8,34.2h-5v4.6h5.7v0.4h-6.1v-10h6.1v0.4h-5.7v4.3h5V34.2z"/>
	<path class="st0" d="M421.6,33.5c0.2-0.6,0.6-1,1.1-1.4s1-0.5,1.6-0.5c0.8,0,1.4,0.2,1.8,0.7c0.4,0.4,0.6,1.1,0.6,2v4.8h-0.4v-4.8
		c0-0.8-0.2-1.4-0.5-1.8s-0.8-0.6-1.5-0.6c-0.6,0-1.2,0.2-1.7,0.7c-0.5,0.5-0.8,1-0.9,1.8v4.7h-0.4v-7.4h0.4V33.5z"/>
	<path class="st0" d="M432.2,32l-0.5,0c-0.6,0-1.2,0.2-1.6,0.6c-0.4,0.4-0.7,1-0.8,1.7v4.8h-0.4v-7.4h0.4v1.5
		c0.2-0.5,0.5-0.9,0.9-1.2s0.9-0.5,1.5-0.5c0.2,0,0.4,0,0.5,0.1L432.2,32z"/>
	<path class="st0" d="M432.9,35.3c0-0.7,0.1-1.3,0.4-1.9c0.3-0.6,0.7-1,1.1-1.3c0.5-0.3,1.1-0.5,1.7-0.5c0.6,0,1.2,0.2,1.7,0.5
		s0.9,0.7,1.2,1.3c0.3,0.6,0.4,1.2,0.4,1.9v0.3c0,0.7-0.1,1.3-0.4,1.9s-0.7,1-1.1,1.3c-0.5,0.3-1.1,0.5-1.7,0.5s-1.2-0.2-1.7-0.5
		c-0.5-0.3-0.9-0.7-1.2-1.3s-0.4-1.2-0.4-1.9V35.3z M433.3,35.6c0,0.6,0.1,1.2,0.4,1.7c0.2,0.5,0.6,0.9,1,1.2
		c0.4,0.3,0.9,0.4,1.5,0.4c0.8,0,1.5-0.3,2.1-1c0.5-0.6,0.8-1.4,0.8-2.4v-0.2c0-0.6-0.1-1.2-0.4-1.7s-0.6-0.9-1-1.2
		c-0.4-0.3-0.9-0.4-1.5-0.4c-0.8,0-1.5,0.3-2.1,1s-0.8,1.5-0.8,2.4V35.6z"/>
	<path class="st0" d="M441.6,39.1h-0.4V28.6h0.4V39.1z"/>
	<path class="st0" d="M444.5,39.1h-0.4V28.6h0.4V39.1z"/>
	<path class="st0" d="M450.2,29.4c0-0.1,0-0.2,0.1-0.3s0.2-0.1,0.3-0.1s0.2,0,0.3,0.1c0.1,0.1,0.1,0.2,0.1,0.3s0,0.2-0.1,0.3
		c-0.1,0.1-0.2,0.1-0.3,0.1s-0.2,0-0.3-0.1S450.2,29.5,450.2,29.4z M450.8,39.1h-0.4v-7.4h0.4V39.1z"/>
	<path class="st0" d="M453.6,33.5c0.2-0.6,0.6-1,1.1-1.4s1-0.5,1.6-0.5c0.8,0,1.4,0.2,1.8,0.7c0.4,0.4,0.6,1.1,0.6,2v4.8h-0.4v-4.8
		c0-0.8-0.2-1.4-0.5-1.8s-0.8-0.6-1.5-0.6c-0.6,0-1.2,0.2-1.7,0.7c-0.5,0.5-0.8,1-0.9,1.8v4.7h-0.4v-7.4h0.4V33.5z"/>
	<path class="st0" d="M464.8,34.9v4.2h-0.4v-10h3.1c1,0,1.8,0.3,2.4,0.8c0.6,0.5,0.8,1.2,0.8,2.1c0,0.9-0.3,1.6-0.8,2.1
		c-0.5,0.5-1.3,0.7-2.3,0.8H464.8z M464.8,34.6h2.7c0.9,0,1.6-0.2,2.1-0.6c0.5-0.4,0.7-1,0.7-1.8c0-0.8-0.2-1.4-0.7-1.9
		c-0.5-0.4-1.2-0.7-2.1-0.7h-2.7V34.6z"/>
	<path class="st0" d="M475.9,32l-0.5,0c-0.6,0-1.2,0.2-1.6,0.6c-0.4,0.4-0.7,1-0.8,1.7v4.8h-0.4v-7.4h0.4v1.5
		c0.2-0.5,0.5-0.9,0.9-1.2s0.9-0.5,1.5-0.5c0.2,0,0.4,0,0.5,0.1L475.9,32z"/>
	<path class="st0" d="M477.2,29.4c0-0.1,0-0.2,0.1-0.3s0.2-0.1,0.3-0.1s0.2,0,0.3,0.1c0.1,0.1,0.1,0.2,0.1,0.3s0,0.2-0.1,0.3
		c-0.1,0.1-0.2,0.1-0.3,0.1s-0.2,0-0.3-0.1S477.2,29.5,477.2,29.4z M477.7,39.1h-0.4v-7.4h0.4V39.1z"/>
	<path class="st0" d="M482.3,38.6l2.7-6.8h0.4l-2.9,7.4h-0.4l-2.9-7.4h0.4L482.3,38.6z"/>
	<path class="st0" d="M491.5,39.1c-0.1-0.3-0.1-0.8-0.1-1.4c-0.3,0.5-0.7,0.8-1.2,1.1s-1.1,0.4-1.7,0.4c-0.7,0-1.2-0.2-1.7-0.6
		c-0.4-0.4-0.6-0.9-0.6-1.5c0-0.7,0.3-1.2,0.9-1.6c0.6-0.4,1.4-0.6,2.4-0.6h1.8v-1.1c0-0.6-0.2-1.1-0.6-1.4
		c-0.4-0.3-0.9-0.5-1.7-0.5c-0.7,0-1.2,0.2-1.7,0.5s-0.7,0.8-0.7,1.3l-0.4,0c0-0.6,0.3-1.1,0.8-1.5s1.2-0.6,1.9-0.6
		c0.8,0,1.4,0.2,1.9,0.6s0.7,1,0.7,1.7v3.5c0,0.8,0.1,1.4,0.2,1.7v0.1H491.5z M488.5,38.9c0.7,0,1.3-0.2,1.8-0.5
		c0.5-0.3,0.9-0.7,1.1-1.3v-1.8h-1.7c-1.1,0-1.9,0.2-2.4,0.6c-0.5,0.3-0.7,0.8-0.7,1.3c0,0.5,0.2,0.8,0.5,1.1S487.9,38.9,488.5,38.9
		z"/>
	<path class="st0" d="M496.7,38.9c0.7,0,1.2-0.2,1.7-0.5c0.4-0.4,0.7-0.8,0.7-1.5h0.4c0,0.7-0.3,1.3-0.8,1.7s-1.2,0.7-1.9,0.7
		c-0.9,0-1.7-0.3-2.2-1c-0.5-0.7-0.8-1.6-0.8-2.7v-0.2c0-1.1,0.3-2,0.8-2.7c0.5-0.7,1.3-1,2.2-1c0.8,0,1.4,0.2,1.9,0.7
		s0.8,1.1,0.8,1.9H499c0-0.7-0.3-1.2-0.7-1.6c-0.4-0.4-1-0.6-1.7-0.6c-0.8,0-1.5,0.3-1.9,0.9c-0.5,0.6-0.7,1.4-0.7,2.5v0.2
		c0,1,0.2,1.8,0.7,2.4C495.2,38.6,495.8,38.9,496.7,38.9z"/>
	<path class="st0" d="M503.5,38.6l0-0.1l2.6-6.7h0.4l-3.3,8.7l-0.2,0.4c-0.4,0.9-0.9,1.3-1.8,1.3c-0.3,0-0.4,0-0.5-0.1l0-0.4
		c0.1,0,0.3,0.1,0.5,0.1c0.4,0,0.7-0.1,1-0.3c0.3-0.2,0.5-0.6,0.7-1.1l0.5-1.2l-2.9-7.4h0.4L503.5,38.6z"/>
	<path class="st0" d="M515.1,38.1c-0.3,0.3-0.7,0.6-1.3,0.9s-1.3,0.3-2.1,0.3c-0.7,0-1.4-0.2-2-0.5s-1-0.9-1.4-1.5
		c-0.3-0.7-0.5-1.4-0.5-2.2v-1.7c0-0.8,0.2-1.5,0.5-2.2s0.8-1.1,1.3-1.5s1.2-0.5,1.9-0.5c1,0,1.8,0.3,2.4,0.8c0.6,0.5,1,1.2,1.1,2.1
		h-0.4c-0.1-0.8-0.5-1.4-1-1.8s-1.3-0.6-2.1-0.6c-1,0-1.8,0.4-2.4,1.1s-0.9,1.7-0.9,2.8v1.6c0,0.8,0.1,1.5,0.4,2.1
		c0.3,0.6,0.7,1.1,1.2,1.4c0.5,0.3,1.1,0.5,1.8,0.5c0.7,0,1.3-0.1,1.9-0.3s1-0.4,1.2-0.7V35h-3v-0.4h3.4V38.1z"/>
	<path class="st0" d="M522.5,39.1V38c-0.2,0.4-0.5,0.7-1,1s-1,0.4-1.6,0.4c-0.8,0-1.4-0.2-1.8-0.7c-0.4-0.5-0.6-1.2-0.6-2.1v-4.8
		h0.4v4.8c0,0.8,0.2,1.4,0.5,1.8s0.9,0.6,1.5,0.6c0.7,0,1.3-0.2,1.7-0.5s0.7-0.8,0.8-1.5v-5.2h0.4v7.4H522.5z"/>
	<path class="st0" d="M530,39.1c-0.1-0.3-0.1-0.8-0.1-1.4c-0.3,0.5-0.7,0.8-1.2,1.1s-1.1,0.4-1.7,0.4c-0.7,0-1.2-0.2-1.7-0.6
		c-0.4-0.4-0.6-0.9-0.6-1.5c0-0.7,0.3-1.2,0.9-1.6c0.6-0.4,1.4-0.6,2.4-0.6h1.8v-1.1c0-0.6-0.2-1.1-0.6-1.4
		c-0.4-0.3-0.9-0.5-1.7-0.5c-0.7,0-1.2,0.2-1.7,0.5s-0.7,0.8-0.7,1.3l-0.4,0c0-0.6,0.3-1.1,0.8-1.5s1.2-0.6,1.9-0.6
		c0.8,0,1.4,0.2,1.9,0.6s0.7,1,0.7,1.7v3.5c0,0.8,0.1,1.4,0.2,1.7v0.1H530z M526.9,38.9c0.7,0,1.3-0.2,1.8-0.5
		c0.5-0.3,0.9-0.7,1.1-1.3v-1.8h-1.7c-1.1,0-1.9,0.2-2.4,0.6c-0.5,0.3-0.7,0.8-0.7,1.3c0,0.5,0.2,0.8,0.5,1.1S526.4,38.9,526.9,38.9
		z"/>
	<path class="st0" d="M535.9,32l-0.5,0c-0.6,0-1.2,0.2-1.6,0.6c-0.4,0.4-0.7,1-0.8,1.7v4.8h-0.4v-7.4h0.4v1.5
		c0.2-0.5,0.5-0.9,0.9-1.2s0.9-0.5,1.5-0.5c0.2,0,0.4,0,0.5,0.1L535.9,32z"/>
	<path class="st0" d="M536.9,35.4c0-1.2,0.2-2.1,0.7-2.8s1.2-1,2-1c0.6,0,1,0.1,1.5,0.4c0.4,0.3,0.8,0.6,1,1.1v-4.5h0.4v10.5h-0.4
		V38c-0.3,0.4-0.6,0.7-1,1s-0.9,0.3-1.5,0.3c-0.9,0-1.5-0.3-2-1S536.9,36.7,536.9,35.4L536.9,35.4z M537.3,35.5c0,1,0.2,1.9,0.6,2.5
		s1,0.9,1.8,0.9c0.6,0,1.1-0.1,1.6-0.4s0.8-0.7,1-1.2v-3.5c-0.4-1.2-1.3-1.9-2.5-1.9c-0.8,0-1.3,0.3-1.8,0.9
		C537.5,33.5,537.3,34.4,537.3,35.5z"/>
	<path class="st0" d="M548.9,39.1v-7h-1.3v-0.4h1.3v-1.1c0-0.7,0.2-1.2,0.5-1.6c0.3-0.4,0.8-0.6,1.4-0.6c0.3,0,0.6,0,0.9,0.1
		l-0.1,0.4c-0.2-0.1-0.5-0.1-0.8-0.1c-0.5,0-0.9,0.2-1.2,0.5c-0.3,0.3-0.4,0.8-0.4,1.4v1.1h2v0.4h-2v7H548.9z"/>
	<path class="st0" d="M552.1,35.3c0-0.7,0.1-1.3,0.4-1.9c0.3-0.6,0.7-1,1.1-1.3c0.5-0.3,1.1-0.5,1.7-0.5c0.6,0,1.2,0.2,1.7,0.5
		s0.9,0.7,1.2,1.3c0.3,0.6,0.4,1.2,0.4,1.9v0.3c0,0.7-0.1,1.3-0.4,1.9s-0.7,1-1.1,1.3c-0.5,0.3-1.1,0.5-1.7,0.5s-1.2-0.2-1.7-0.5
		c-0.5-0.3-0.9-0.7-1.2-1.3s-0.4-1.2-0.4-1.9V35.3z M552.5,35.6c0,0.6,0.1,1.2,0.4,1.7c0.2,0.5,0.6,0.9,1,1.2
		c0.4,0.3,0.9,0.4,1.5,0.4c0.8,0,1.5-0.3,2.1-1c0.5-0.6,0.8-1.4,0.8-2.4v-0.2c0-0.6-0.1-1.2-0.4-1.7s-0.6-0.9-1-1.2
		c-0.4-0.3-0.9-0.4-1.5-0.4c-0.8,0-1.5,0.3-2.1,1s-0.8,1.5-0.8,2.4V35.6z"/>
	<path class="st0" d="M563.7,32l-0.5,0c-0.6,0-1.2,0.2-1.6,0.6c-0.4,0.4-0.7,1-0.8,1.7v4.8h-0.4v-7.4h0.4v1.5
		c0.2-0.5,0.5-0.9,0.9-1.2s0.9-0.5,1.5-0.5c0.2,0,0.4,0,0.5,0.1L563.7,32z"/>
	<path class="st0" d="M419.1,60.1h-6v-0.4l3.4-3.9c0.6-0.7,1-1.2,1.2-1.7c0.3-0.5,0.4-1,0.4-1.4c0-0.7-0.2-1.3-0.6-1.7
		s-1-0.6-1.8-0.6c-0.5,0-0.9,0.1-1.3,0.3c-0.4,0.2-0.7,0.5-0.9,0.9c-0.2,0.4-0.3,0.8-0.3,1.3h-0.4c0-0.5,0.1-1,0.4-1.5
		c0.2-0.5,0.6-0.8,1-1.1s0.9-0.4,1.5-0.4c0.9,0,1.6,0.2,2.1,0.7c0.5,0.5,0.7,1.1,0.7,2c0,0.8-0.4,1.7-1.3,2.8l-0.6,0.8l-3,3.5h5.5
		V60.1z"/>
	<path class="st0" d="M425.5,57.1h1.7v0.4h-1.7v2.7h-0.4v-2.7h-4.8v-0.2l4.8-7h0.4V57.1z M420.9,57.1h4.3v-6.4l-0.6,0.9L420.9,57.1z
		"/>
	<path class="st0" d="M428.1,61h-0.4l4.2-10.8h0.4L428.1,61z"/>
	<path class="st0" d="M439.7,50.4l-4.4,9.7h-0.4l4.3-9.6h-5.9v-0.4h6.4V50.4z"/>
	<path class="st0" d="M447.5,59.9c0.7,0,1.2-0.2,1.7-0.5c0.4-0.4,0.7-0.8,0.7-1.5h0.4c0,0.7-0.3,1.3-0.8,1.7
		c-0.5,0.4-1.2,0.7-1.9,0.7c-0.9,0-1.7-0.3-2.2-1c-0.5-0.7-0.8-1.6-0.8-2.7v-0.2c0-1.1,0.3-2,0.8-2.7c0.5-0.7,1.3-1,2.2-1
		c0.8,0,1.4,0.2,1.9,0.7c0.5,0.5,0.8,1.1,0.8,1.9h-0.4c0-0.7-0.3-1.2-0.7-1.6c-0.4-0.4-1-0.6-1.7-0.6c-0.8,0-1.5,0.3-1.9,0.9
		c-0.5,0.6-0.7,1.4-0.7,2.5v0.2c0,1,0.2,1.8,0.7,2.4C446,59.6,446.7,59.9,447.5,59.9z"/>
	<path class="st0" d="M455.3,53l-0.5,0c-0.6,0-1.2,0.2-1.6,0.6s-0.7,1-0.8,1.7v4.8h-0.4v-7.4h0.4v1.5c0.2-0.5,0.5-0.9,0.9-1.2
		s0.9-0.5,1.5-0.5c0.2,0,0.4,0,0.5,0.1L455.3,53z"/>
	<path class="st0" d="M459.4,60.3c-0.6,0-1.1-0.2-1.6-0.5c-0.5-0.3-0.9-0.8-1.2-1.3s-0.4-1.2-0.4-1.9v-0.3c0-0.7,0.1-1.3,0.4-1.9
		c0.3-0.6,0.6-1,1.1-1.3c0.5-0.3,1-0.5,1.6-0.5c0.8,0,1.5,0.3,2,0.9s0.8,1.4,0.8,2.3v0.4h-5.5v0.4c0,0.6,0.1,1.2,0.4,1.7
		c0.3,0.5,0.6,0.9,1,1.2c0.4,0.3,0.9,0.4,1.4,0.4c0.5,0,0.9-0.1,1.3-0.2c0.3-0.2,0.7-0.4,0.9-0.8l0.3,0.2
		C461.3,59.9,460.5,60.3,459.4,60.3z M459.3,53c-0.7,0-1.3,0.3-1.8,0.8c-0.5,0.5-0.8,1.2-0.9,2h5.2v-0.1c0-0.5-0.1-1-0.3-1.4
		c-0.2-0.4-0.5-0.8-0.9-1C460.2,53.1,459.8,53,459.3,53z"/>
	<path class="st0" d="M463.5,56.4c0-1.2,0.2-2.1,0.7-2.8s1.2-1,2-1c0.6,0,1,0.1,1.5,0.4c0.4,0.3,0.8,0.6,1,1.1v-4.5h0.4v10.5h-0.4
		V59c-0.3,0.4-0.6,0.7-1,1c-0.4,0.2-0.9,0.3-1.5,0.3c-0.9,0-1.5-0.3-2-1C463.7,58.6,463.5,57.7,463.5,56.4L463.5,56.4z M463.9,56.5
		c0,1,0.2,1.9,0.6,2.5s1,0.9,1.8,0.9c0.6,0,1.1-0.1,1.6-0.4c0.4-0.3,0.8-0.7,1-1.2v-3.5c-0.4-1.2-1.3-1.9-2.5-1.9
		c-0.8,0-1.3,0.3-1.8,0.9C464.1,54.5,463.9,55.4,463.9,56.5z"/>
	<path class="st0" d="M471.4,50.4c0-0.1,0-0.2,0.1-0.3s0.2-0.1,0.3-0.1s0.2,0,0.3,0.1c0.1,0.1,0.1,0.2,0.1,0.3c0,0.1,0,0.2-0.1,0.3
		c-0.1,0.1-0.2,0.1-0.3,0.1s-0.2,0-0.3-0.1C471.4,50.6,471.4,50.5,471.4,50.4z M471.9,60.1h-0.4v-7.4h0.4V60.1z"/>
	<path class="st0" d="M475.2,50.8v2h1.7v0.4h-1.7v5.3c0,0.5,0.1,0.9,0.3,1.2c0.2,0.3,0.5,0.4,0.9,0.4c0.2,0,0.4,0,0.7-0.1l0.1,0.3
		c-0.2,0.1-0.4,0.1-0.8,0.1c-0.5,0-0.9-0.1-1.2-0.4s-0.4-0.8-0.4-1.4v-5.3h-1.4v-0.4h1.4v-2H475.2z"/>
	<path class="st0" d="M487.4,60.1h-0.4v-5c0-0.7-0.2-1.3-0.5-1.7c-0.3-0.4-0.8-0.5-1.5-0.5c-0.8,0-1.5,0.4-2,1.1
		c-0.3,0.4-0.5,0.9-0.6,1.4v4.7h-0.4v-7.4h0.4v1.8c0.3-0.6,0.6-1.1,1.1-1.4s1-0.5,1.5-0.5c0.6,0,1.1,0.1,1.5,0.4
		c0.4,0.3,0.7,0.7,0.8,1.3c0.2-0.5,0.6-1,1.1-1.3c0.5-0.3,1-0.5,1.7-0.5c0.8,0,1.4,0.2,1.8,0.7c0.4,0.5,0.6,1.1,0.6,2v4.8h-0.4v-4.8
		c0-0.8-0.2-1.4-0.5-1.8c-0.3-0.4-0.8-0.6-1.5-0.6c-0.9,0-1.6,0.4-2.1,1.1c-0.3,0.4-0.5,0.8-0.5,1.2V60.1z"/>
	<path class="st0" d="M494.1,56.3c0-0.7,0.1-1.3,0.4-1.9c0.3-0.6,0.7-1,1.1-1.3c0.5-0.3,1.1-0.5,1.7-0.5c0.6,0,1.2,0.2,1.7,0.5
		c0.5,0.3,0.9,0.7,1.2,1.3c0.3,0.6,0.4,1.2,0.4,1.9v0.3c0,0.7-0.1,1.3-0.4,1.9s-0.7,1-1.1,1.3c-0.5,0.3-1.1,0.5-1.7,0.5
		s-1.2-0.2-1.7-0.5c-0.5-0.3-0.9-0.7-1.2-1.3c-0.3-0.6-0.4-1.2-0.4-1.9V56.3z M494.5,56.6c0,0.6,0.1,1.2,0.4,1.7
		c0.2,0.5,0.6,0.9,1,1.2c0.4,0.3,0.9,0.4,1.5,0.4c0.8,0,1.5-0.3,2.1-1c0.5-0.6,0.8-1.4,0.8-2.4v-0.2c0-0.6-0.1-1.2-0.4-1.7
		c-0.2-0.5-0.6-0.9-1-1.2c-0.4-0.3-0.9-0.4-1.5-0.4c-0.8,0-1.5,0.3-2.1,1s-0.8,1.5-0.8,2.4V56.6z"/>
	<path class="st0" d="M502.8,54.5c0.2-0.6,0.6-1,1.1-1.4c0.5-0.3,1-0.5,1.6-0.5c0.8,0,1.4,0.2,1.8,0.7c0.4,0.4,0.6,1.1,0.6,2v4.8
		h-0.4v-4.8c0-0.8-0.2-1.4-0.5-1.8c-0.3-0.4-0.8-0.6-1.5-0.6c-0.6,0-1.2,0.2-1.7,0.7c-0.5,0.5-0.8,1-0.9,1.8v4.7h-0.4v-7.4h0.4V54.5
		z"/>
	<path class="st0" d="M510,50.4c0-0.1,0-0.2,0.1-0.3s0.2-0.1,0.3-0.1s0.2,0,0.3,0.1c0.1,0.1,0.1,0.2,0.1,0.3c0,0.1,0,0.2-0.1,0.3
		c-0.1,0.1-0.2,0.1-0.3,0.1s-0.2,0-0.3-0.1C510,50.6,510,50.5,510,50.4z M510.5,60.1h-0.4v-7.4h0.4V60.1z"/>
	<path class="st0" d="M513.8,50.8v2h1.7v0.4h-1.7v5.3c0,0.5,0.1,0.9,0.3,1.2c0.2,0.3,0.5,0.4,0.9,0.4c0.2,0,0.4,0,0.7-0.1l0.1,0.3
		c-0.2,0.1-0.4,0.1-0.8,0.1c-0.5,0-0.9-0.1-1.2-0.4s-0.4-0.8-0.4-1.4v-5.3H512v-0.4h1.4v-2H513.8z"/>
	<path class="st0" d="M516.7,56.3c0-0.7,0.1-1.3,0.4-1.9c0.3-0.6,0.7-1,1.1-1.3c0.5-0.3,1.1-0.5,1.7-0.5c0.6,0,1.2,0.2,1.7,0.5
		c0.5,0.3,0.9,0.7,1.2,1.3c0.3,0.6,0.4,1.2,0.4,1.9v0.3c0,0.7-0.1,1.3-0.4,1.9s-0.7,1-1.1,1.3c-0.5,0.3-1.1,0.5-1.7,0.5
		s-1.2-0.2-1.7-0.5c-0.5-0.3-0.9-0.7-1.2-1.3c-0.3-0.6-0.4-1.2-0.4-1.9V56.3z M517.1,56.6c0,0.6,0.1,1.2,0.4,1.7
		c0.2,0.5,0.6,0.9,1,1.2c0.4,0.3,0.9,0.4,1.5,0.4c0.8,0,1.5-0.3,2.1-1c0.5-0.6,0.8-1.4,0.8-2.4v-0.2c0-0.6-0.1-1.2-0.4-1.7
		c-0.2-0.5-0.6-0.9-1-1.2c-0.4-0.3-0.9-0.4-1.5-0.4c-0.8,0-1.5,0.3-2.1,1s-0.8,1.5-0.8,2.4V56.6z"/>
	<path class="st0" d="M528.2,53l-0.5,0c-0.6,0-1.2,0.2-1.6,0.6s-0.7,1-0.8,1.7v4.8H525v-7.4h0.4v1.5c0.2-0.5,0.5-0.9,0.9-1.2
		s0.9-0.5,1.5-0.5c0.2,0,0.4,0,0.5,0.1L528.2,53z"/>
	<path class="st0" d="M529.5,50.4c0-0.1,0-0.2,0.1-0.3s0.2-0.1,0.3-0.1s0.2,0,0.3,0.1c0.1,0.1,0.1,0.2,0.1,0.3c0,0.1,0,0.2-0.1,0.3
		c-0.1,0.1-0.2,0.1-0.3,0.1s-0.2,0-0.3-0.1C529.6,50.6,529.5,50.5,529.5,50.4z M530.1,60.1h-0.4v-7.4h0.4V60.1z"/>
	<path class="st0" d="M532.9,54.5c0.2-0.6,0.6-1,1.1-1.4c0.5-0.3,1-0.5,1.6-0.5c0.8,0,1.4,0.2,1.8,0.7c0.4,0.4,0.6,1.1,0.6,2v4.8
		h-0.4v-4.8c0-0.8-0.2-1.4-0.5-1.8c-0.3-0.4-0.8-0.6-1.5-0.6c-0.6,0-1.2,0.2-1.7,0.7c-0.5,0.5-0.8,1-0.9,1.8v4.7h-0.4v-7.4h0.4V54.5
		z"/>
	<path class="st0" d="M539.8,56.4c0-1.2,0.2-2.1,0.7-2.8s1.2-1,2-1c0.6,0,1,0.1,1.5,0.4s0.8,0.6,1,1.1v-1.4h0.4V60
		c0,1-0.3,1.7-0.8,2.3c-0.5,0.5-1.2,0.8-2,0.8c-0.5,0-1-0.1-1.4-0.3c-0.4-0.2-0.8-0.5-1.1-0.9l0.3-0.2c0.3,0.4,0.6,0.6,0.9,0.8
		c0.3,0.2,0.7,0.3,1.2,0.3c0.8,0,1.4-0.2,1.8-0.7s0.6-1.1,0.7-2V59c-0.3,0.4-0.6,0.7-1,1c-0.4,0.2-0.9,0.3-1.5,0.3
		c-0.9,0-1.5-0.3-2-1C540.1,58.6,539.8,57.7,539.8,56.4L539.8,56.4z M540.2,56.5c0,1.1,0.2,1.9,0.6,2.5c0.4,0.6,1,0.9,1.8,0.9
		c0.6,0,1.2-0.1,1.6-0.4c0.4-0.3,0.7-0.7,0.9-1.2v-3.4c-0.4-1.3-1.2-1.9-2.5-1.9c-0.8,0-1.4,0.3-1.8,0.9
		C540.4,54.5,540.2,55.4,540.2,56.5z"/>
	<path class="st0" d="M547.7,59.8c0-0.1,0-0.2,0.1-0.3s0.2-0.1,0.3-0.1s0.2,0,0.3,0.1c0.1,0.1,0.1,0.2,0.1,0.3c0,0.1,0,0.2-0.1,0.3
		c-0.1,0.1-0.2,0.1-0.3,0.1s-0.2,0-0.3-0.1C547.7,60,547.7,59.9,547.7,59.8z"/>
</g>
</svg>
