<?xml version="1.0" encoding="utf-8"?>
<!-- Generator: Adobe Illustrator 25.4.1, SVG Export Plug-In . SVG Version: 6.00 Build 0)  -->
<svg version="1.1" id="Layer_1" xmlns="http://www.w3.org/2000/svg" xmlns:xlink="http://www.w3.org/1999/xlink" x="0px" y="0px"
	 viewBox="0 0 728 90" style="enable-background:new 0 0 728 90;" xml:space="preserve">
<style type="text/css">
	.st0{fill:#E72F8A;stroke:url(#SVGID_1_);stroke-width:0.9465;stroke-miterlimit:10;}
	.st1{fill:#FFFFFF;}
</style>
<linearGradient id="SVGID_1_" gradientUnits="userSpaceOnUse" x1="618.5255" y1="60.9259" x2="686.4814" y2="60.9259">
	<stop  offset="0" style="stop-color:#41B5E8"/>
	<stop  offset="0.5" style="stop-color:#6A53A3"/>
	<stop  offset="1" style="stop-color:#E72E8A"/>
</linearGradient>
<path class="st0" d="M672.7,74.2h-40.4c-7.4,0-13.3-6-13.3-13.3v0c0-7.4,6-13.3,13.3-13.3h40.4c7.4,0,13.3,6,13.3,13.3v0
	C686,68.3,680,74.2,672.7,74.2z"/>
<g>
	<path class="st1" d="M634.9,57.9h-2.5v6.7h-1.7v-6.7h-2.4v-1.4h6.6V57.9z"/>
	<path class="st1" d="M638.7,60.1c-0.2,0-0.4,0-0.6,0c-0.6,0-1,0.2-1.2,0.6v3.9h-1.6v-6h1.5l0,0.7c0.3-0.6,0.8-0.8,1.3-0.8
		c0.2,0,0.3,0,0.5,0.1L638.7,60.1z"/>
	<path class="st1" d="M641.8,62.4l1.1-3.7h1.7l-2.4,6.9l-0.1,0.3c-0.4,0.8-1,1.2-1.8,1.2c-0.2,0-0.5,0-0.7-0.1v-1.2l0.2,0
		c0.3,0,0.5,0,0.7-0.1c0.1-0.1,0.3-0.2,0.4-0.5l0.2-0.5l-2.1-6h1.7L641.8,62.4z"/>
	<path class="st1" d="M653.9,57.9h-2.5v6.7h-1.7v-6.7h-2.4v-1.4h6.6V57.9z"/>
	<path class="st1" d="M653.4,61.6c0-0.6,0.1-1.1,0.3-1.6c0.2-0.5,0.6-0.8,1-1.1s0.9-0.4,1.5-0.4c0.8,0,1.5,0.2,2,0.7
		c0.5,0.5,0.8,1.2,0.9,2l0,0.4c0,0.9-0.3,1.7-0.8,2.2c-0.5,0.6-1.2,0.8-2.1,0.8c-0.9,0-1.6-0.3-2.1-0.8S653.4,62.6,653.4,61.6
		L653.4,61.6z M655,61.7c0,0.6,0.1,1,0.3,1.3s0.5,0.5,0.9,0.5c0.4,0,0.7-0.1,0.9-0.4c0.2-0.3,0.3-0.8,0.3-1.4c0-0.6-0.1-1-0.3-1.3
		s-0.5-0.5-0.9-0.5c-0.4,0-0.7,0.2-0.9,0.5C655.1,60.6,655,61,655,61.7z"/>
	<path class="st1" d="M659.8,61.6c0-0.9,0.2-1.7,0.6-2.2c0.4-0.6,1-0.8,1.7-0.8c0.6,0,1.1,0.2,1.5,0.7v-3.1h1.6v8.5h-1.5l-0.1-0.6
		c-0.4,0.5-0.9,0.8-1.5,0.8c-0.7,0-1.3-0.3-1.7-0.8S659.8,62.6,659.8,61.6z M661.4,61.7c0,0.6,0.1,1,0.3,1.3s0.5,0.5,0.9,0.5
		c0.5,0,0.8-0.2,1-0.6v-2.4c-0.2-0.4-0.5-0.6-1-0.6C661.8,59.8,661.4,60.4,661.4,61.7z"/>
	<path class="st1" d="M669.9,64.6c-0.1-0.1-0.1-0.3-0.2-0.5c-0.4,0.4-0.9,0.7-1.5,0.7c-0.6,0-1.1-0.2-1.5-0.5
		c-0.4-0.3-0.6-0.8-0.6-1.3c0-0.6,0.2-1.1,0.7-1.5c0.5-0.3,1.2-0.5,2-0.5h0.7v-0.3c0-0.3-0.1-0.5-0.2-0.7c-0.1-0.2-0.4-0.2-0.7-0.2
		c-0.3,0-0.5,0.1-0.6,0.2c-0.2,0.1-0.2,0.3-0.2,0.5h-1.6c0-0.3,0.1-0.7,0.3-1c0.2-0.3,0.5-0.5,0.9-0.7c0.4-0.2,0.8-0.3,1.3-0.3
		c0.7,0,1.3,0.2,1.8,0.6s0.7,0.9,0.7,1.6v2.6c0,0.6,0.1,1,0.2,1.3v0.1H669.9z M668.6,63.5c0.2,0,0.5-0.1,0.7-0.2
		c0.2-0.1,0.3-0.2,0.4-0.4v-1h-0.6c-0.8,0-1.2,0.3-1.3,0.8l0,0.1c0,0.2,0.1,0.4,0.2,0.5C668.2,63.4,668.4,63.5,668.6,63.5z"/>
	<path class="st1" d="M674.8,62.4l1.1-3.7h1.7l-2.4,6.9l-0.1,0.3c-0.4,0.8-1,1.2-1.8,1.2c-0.2,0-0.5,0-0.7-0.1v-1.2l0.2,0
		c0.3,0,0.5,0,0.7-0.1c0.1-0.1,0.3-0.2,0.4-0.5l0.2-0.5l-2.1-6h1.7L674.8,62.4z"/>
</g>
</svg>
