<?xml version="1.0" encoding="utf-8"?>
<!-- Generator: Adobe Illustrator 25.2.1, SVG Export Plug-In . SVG Version: 6.00 Build 0)  -->
<svg version="1.1" id="Layer_1" xmlns="http://www.w3.org/2000/svg" xmlns:xlink="http://www.w3.org/1999/xlink" x="0px" y="0px"
	 viewBox="0 0 300 600" style="enable-background:new 0 0 300 600;" xml:space="preserve">
<style type="text/css">
	.st0{fill:#021D8B;}
	.st1{fill:#E82D8A;}
</style>
<g>
	<path class="st0" d="M60.01,404l2.12-11.59h4.42l-3.92,18.48H58l-2.48-10.54L53.1,410.9H48.5l-3.94-18.48h4.43L51.11,404
		l2.54-11.59h3.78L60.01,404z"/>
	<path class="st0" d="M74.74,411.15c-2.11,0-3.81-0.63-5.12-1.89s-1.96-2.89-1.96-4.91V404c0-1.41,0.26-2.65,0.78-3.72
		c0.52-1.08,1.28-1.91,2.28-2.5c1-0.59,2.18-0.88,3.55-0.88c1.93,0,3.45,0.6,4.57,1.8c1.12,1.2,1.68,2.87,1.68,5.01v1.66h-8.51
		c0.15,0.77,0.49,1.38,1,1.82c0.52,0.44,1.18,0.66,2.01,0.66c1.35,0,2.41-0.47,3.17-1.42l1.96,2.31c-0.53,0.74-1.29,1.32-2.27,1.76
		C76.92,410.93,75.86,411.15,74.74,411.15z M74.25,400.21c-1.25,0-2,0.83-2.23,2.49h4.32v-0.33c0.02-0.69-0.16-1.22-0.52-1.59
		C75.45,400.39,74.93,400.21,74.25,400.21z"/>
	<path class="st0" d="M84.46,393.45l-0.42,5.24h-2.63v-7.3h3.05V393.45z"/>
	<path class="st0" d="M90.59,410.9H86.3v-19.5h4.29V410.9z"/>
	<path class="st0" d="M97.74,410.9h-4.29v-19.5h4.29V410.9z"/>
	<path class="st0" d="M110.89,397.16l0.14,1.61c0.97-1.24,2.28-1.87,3.92-1.87c1.74,0,2.91,0.69,3.52,2.07
		c0.93-1.38,2.28-2.07,4.04-2.07c2.78,0,4.21,1.68,4.29,5.05v8.94h-4.29v-8.67c0-0.7-0.12-1.21-0.36-1.54
		c-0.24-0.32-0.67-0.48-1.29-0.48c-0.85,0-1.48,0.38-1.89,1.13l0.01,0.18v9.38h-4.29v-8.65c0-0.72-0.11-1.24-0.34-1.56
		c-0.23-0.32-0.66-0.48-1.31-0.48c-0.82,0-1.45,0.38-1.88,1.13v9.56h-4.28v-13.74H110.89z"/>
	<path class="st0" d="M128.71,403.9c0-1.37,0.27-2.59,0.8-3.66c0.53-1.07,1.3-1.89,2.3-2.47c1-0.58,2.17-0.86,3.52-0.86
		c2.06,0,3.68,0.64,4.86,1.91c1.18,1.27,1.78,3.01,1.78,5.2v0.15c0,2.14-0.59,3.84-1.78,5.1c-1.19,1.26-2.8,1.89-4.83,1.89
		c-1.96,0-3.53-0.59-4.71-1.76c-1.18-1.17-1.82-2.76-1.92-4.77L128.71,403.9z M132.98,404.17c0,1.27,0.2,2.2,0.6,2.79
		c0.4,0.59,0.99,0.89,1.76,0.89c1.52,0,2.3-1.17,2.34-3.52v-0.43c0-2.46-0.79-3.69-2.36-3.69c-1.43,0-2.21,1.06-2.32,3.19
		L132.98,404.17z"/>
	<path class="st0" d="M147.77,397.16l0.14,1.61c0.95-1.24,2.26-1.87,3.92-1.87c1.43,0,2.5,0.43,3.21,1.28
		c0.71,0.85,1.07,2.14,1.1,3.86v8.85h-4.29v-8.67c0-0.69-0.14-1.2-0.42-1.53c-0.28-0.33-0.79-0.49-1.52-0.49
		c-0.84,0-1.46,0.33-1.87,0.99v9.7h-4.28v-13.74H147.77z"/>
	<path class="st0" d="M158.48,393.62c0-0.61,0.22-1.11,0.66-1.5c0.44-0.39,1.01-0.58,1.71-0.58s1.27,0.19,1.71,0.58
		c0.44,0.39,0.66,0.89,0.66,1.5s-0.22,1.11-0.66,1.5c-0.44,0.39-1.01,0.58-1.71,0.58s-1.27-0.2-1.71-0.58
		C158.7,394.73,158.48,394.23,158.48,393.62z M163.02,410.9h-4.29v-13.74h4.29V410.9z"/>
	<path class="st0" d="M170.64,393.74v3.42h2.26v2.97h-2.26v6.28c0,0.52,0.09,0.88,0.28,1.08s0.55,0.3,1.1,0.3
		c0.42,0,0.78-0.03,1.07-0.08v3.06c-0.77,0.25-1.57,0.37-2.41,0.37c-1.47,0-2.56-0.35-3.26-1.04c-0.7-0.69-1.05-1.75-1.05-3.16
		v-6.82h-1.75v-2.97h1.75v-3.42H170.64z"/>
	<path class="st0" d="M173.66,403.9c0-1.37,0.27-2.59,0.8-3.66c0.53-1.07,1.3-1.89,2.3-2.47c1-0.58,2.17-0.86,3.52-0.86
		c2.06,0,3.68,0.64,4.86,1.91c1.18,1.27,1.78,3.01,1.78,5.2v0.15c0,2.14-0.59,3.84-1.78,5.1c-1.19,1.26-2.8,1.89-4.83,1.89
		c-1.96,0-3.53-0.59-4.71-1.76c-1.18-1.17-1.82-2.76-1.92-4.77L173.66,403.9z M177.94,404.17c0,1.27,0.2,2.2,0.6,2.79
		c0.4,0.59,0.99,0.89,1.76,0.89c1.52,0,2.3-1.17,2.34-3.52v-0.43c0-2.46-0.79-3.69-2.36-3.69c-1.43,0-2.21,1.06-2.32,3.19
		L177.94,404.17z"/>
	<path class="st0" d="M197.11,401.03l-1.41-0.1c-1.35,0-2.21,0.42-2.59,1.27v8.7h-4.28v-13.74h4.01l0.14,1.76
		c0.72-1.35,1.72-2.02,3.01-2.02c0.46,0,0.85,0.05,1.19,0.15L197.11,401.03z"/>
	<path class="st0" d="M210.62,404.9l2.29-7.74h4.58l-5.6,16.03l-0.24,0.58c-0.8,1.78-2.2,2.67-4.21,2.67
		c-0.56,0-1.15-0.08-1.76-0.25v-3.05h0.56c0.6,0,1.06-0.09,1.38-0.26c0.32-0.17,0.55-0.49,0.7-0.93l0.34-0.92l-4.77-13.87h4.57
		L210.62,404.9z"/>
	<path class="st0" d="M218.05,403.9c0-1.37,0.27-2.59,0.8-3.66c0.53-1.07,1.3-1.89,2.3-2.47c1-0.58,2.17-0.86,3.52-0.86
		c2.06,0,3.68,0.64,4.86,1.91c1.18,1.27,1.78,3.01,1.78,5.2v0.15c0,2.14-0.59,3.84-1.78,5.1c-1.19,1.26-2.8,1.89-4.83,1.89
		c-1.96,0-3.53-0.59-4.71-1.76c-1.18-1.17-1.82-2.76-1.92-4.77L218.05,403.9z M222.33,404.17c0,1.27,0.2,2.2,0.6,2.79
		c0.4,0.59,0.99,0.89,1.76,0.89c1.52,0,2.3-1.17,2.34-3.52v-0.43c0-2.46-0.79-3.69-2.36-3.69c-1.43,0-2.21,1.06-2.32,3.19
		L222.33,404.17z"/>
	<path class="st0" d="M241.38,409.41c-0.91,1.16-2.13,1.74-3.67,1.74c-1.51,0-2.65-0.44-3.42-1.31c-0.77-0.88-1.16-2.13-1.16-3.78
		v-8.9h4.28v8.92c0,1.18,0.57,1.76,1.71,1.76c0.98,0,1.68-0.35,2.09-1.05v-9.64h4.3v13.74h-4.01L241.38,409.41z"/>
	<path class="st0" d="M256.17,401.03l-1.41-0.1c-1.35,0-2.21,0.42-2.59,1.27v8.7h-4.28v-13.74h4.01l0.14,1.76
		c0.72-1.35,1.72-2.02,3.01-2.02c0.46,0,0.85,0.05,1.19,0.15L256.17,401.03z"/>
	<path class="st1" d="M78.96,435.34c0,2.25-0.47,3.98-1.4,5.19c-0.93,1.21-2.24,1.82-3.94,1.82c-1.4,0-2.52-0.55-3.38-1.66
		l-0.18,1.41h-3.83v-19.5h4.28v6.87c0.8-0.91,1.82-1.36,3.08-1.36c1.71,0,3.03,0.61,3.96,1.84c0.93,1.23,1.4,2.95,1.4,5.18V435.34z
		 M74.67,435.07c0-1.32-0.18-2.26-0.53-2.82c-0.35-0.56-0.89-0.84-1.62-0.84c-0.96,0-1.63,0.37-2.01,1.1v5.45
		c0.36,0.73,1.04,1.09,2.03,1.09c1.01,0,1.65-0.49,1.92-1.47C74.61,437.1,74.67,436.26,74.67,435.07z"/>
	<path class="st1" d="M88.59,442.1c-0.15-0.28-0.29-0.69-0.41-1.23c-0.79,0.99-1.89,1.49-3.3,1.49c-1.29,0-2.4-0.39-3.3-1.17
		c-0.91-0.78-1.36-1.77-1.36-2.95c0-1.49,0.55-2.62,1.65-3.38s2.7-1.14,4.8-1.14h1.32v-0.73c0-1.27-0.55-1.9-1.64-1.9
		c-1.02,0-1.52,0.5-1.52,1.5h-4.28c0-1.33,0.57-2.4,1.69-3.23c1.13-0.83,2.57-1.24,4.32-1.24s3.14,0.43,4.15,1.28
		c1.02,0.85,1.54,2.03,1.56,3.52v6.08c0.02,1.26,0.21,2.23,0.58,2.89v0.22H88.59z M85.91,439.3c0.53,0,0.98-0.11,1.33-0.34
		c0.35-0.23,0.6-0.49,0.75-0.77v-2.2h-1.24c-1.49,0-2.23,0.67-2.23,2.01c0,0.39,0.13,0.7,0.39,0.95S85.5,439.3,85.91,439.3z"/>
	<path class="st1" d="M98.58,428.36l0.14,1.61c0.95-1.24,2.26-1.87,3.92-1.87c1.43,0,2.5,0.43,3.21,1.28
		c0.71,0.85,1.07,2.14,1.1,3.86v8.85h-4.29v-8.67c0-0.69-0.14-1.2-0.42-1.53c-0.28-0.33-0.79-0.49-1.52-0.49
		c-0.84,0-1.46,0.33-1.87,0.99v9.7h-4.28v-13.74H98.58z"/>
	<path class="st1" d="M114.83,436.98l-1.21,1.21v3.91h-4.28v-19.51h4.28v10.36l0.43-0.57l3.22-4.01h5.13l-4.81,5.65l5.13,8.09h-4.9
		L114.83,436.98z"/>
	<path class="st1" d="M137.74,442.1c-0.15-0.28-0.29-0.69-0.41-1.23c-0.79,0.99-1.89,1.49-3.3,1.49c-1.29,0-2.4-0.39-3.3-1.17
		c-0.91-0.78-1.36-1.77-1.36-2.95c0-1.49,0.55-2.62,1.65-3.38s2.7-1.14,4.8-1.14h1.32v-0.73c0-1.27-0.55-1.9-1.64-1.9
		c-1.02,0-1.52,0.5-1.52,1.5h-4.28c0-1.33,0.57-2.4,1.69-3.23c1.13-0.83,2.57-1.24,4.32-1.24s3.14,0.43,4.15,1.28
		c1.02,0.85,1.54,2.03,1.56,3.52v6.08c0.02,1.26,0.21,2.23,0.58,2.89v0.22H137.74z M135.07,439.3c0.53,0,0.98-0.11,1.33-0.34
		c0.35-0.23,0.6-0.49,0.75-0.77v-2.2h-1.24c-1.49,0-2.23,0.67-2.23,2.01c0,0.39,0.13,0.7,0.39,0.95S134.66,439.3,135.07,439.3z"/>
	<path class="st1" d="M149.61,439.05c0.6,0,1.07-0.16,1.4-0.49c0.33-0.33,0.49-0.78,0.48-1.36h4.01c0,1.51-0.54,2.74-1.62,3.71
		c-1.08,0.96-2.47,1.45-4.17,1.45c-2,0-3.57-0.63-4.72-1.88c-1.15-1.25-1.73-2.99-1.73-5.21v-0.18c0-1.39,0.26-2.61,0.77-3.68
		c0.51-1.06,1.25-1.88,2.22-2.45s2.11-0.86,3.43-0.86c1.79,0,3.2,0.5,4.25,1.49s1.57,2.33,1.57,4.02h-4.01
		c0-0.71-0.17-1.26-0.52-1.64s-0.81-0.57-1.4-0.57c-1.11,0-1.76,0.71-1.94,2.12c-0.06,0.45-0.09,1.07-0.09,1.85
		c0,1.38,0.17,2.34,0.5,2.87S148.89,439.05,149.61,439.05z"/>
	<path class="st1" d="M163.12,439.05c0.6,0,1.07-0.16,1.4-0.49c0.33-0.33,0.49-0.78,0.48-1.36h4.01c0,1.51-0.54,2.74-1.62,3.71
		c-1.08,0.96-2.47,1.45-4.17,1.45c-2,0-3.57-0.63-4.72-1.88c-1.15-1.25-1.73-2.99-1.73-5.21v-0.18c0-1.39,0.26-2.61,0.77-3.68
		c0.51-1.06,1.25-1.88,2.22-2.45s2.11-0.86,3.43-0.86c1.79,0,3.2,0.5,4.25,1.49s1.57,2.33,1.57,4.02H165c0-0.71-0.17-1.26-0.52-1.64
		s-0.81-0.57-1.4-0.57c-1.11,0-1.76,0.71-1.94,2.12c-0.06,0.45-0.09,1.07-0.09,1.85c0,1.38,0.17,2.34,0.5,2.87
		S162.4,439.05,163.12,439.05z"/>
	<path class="st1" d="M170.28,435.1c0-1.37,0.27-2.59,0.8-3.66c0.53-1.07,1.3-1.89,2.3-2.47c1-0.58,2.17-0.86,3.52-0.86
		c2.06,0,3.68,0.64,4.86,1.91c1.18,1.27,1.78,3.01,1.78,5.2v0.15c0,2.14-0.59,3.84-1.78,5.1c-1.19,1.26-2.8,1.89-4.83,1.89
		c-1.96,0-3.53-0.59-4.71-1.76c-1.18-1.17-1.82-2.76-1.92-4.77L170.28,435.1z M174.56,435.37c0,1.27,0.2,2.2,0.6,2.79
		c0.4,0.59,0.99,0.89,1.76,0.89c1.52,0,2.3-1.17,2.34-3.52v-0.43c0-2.46-0.79-3.69-2.36-3.69c-1.43,0-2.21,1.06-2.32,3.19
		L174.56,435.37z"/>
	<path class="st1" d="M193.6,440.61c-0.91,1.16-2.13,1.74-3.67,1.74c-1.51,0-2.65-0.44-3.42-1.31c-0.77-0.88-1.16-2.13-1.16-3.78
		v-8.9h4.28v8.92c0,1.18,0.57,1.76,1.71,1.76c0.98,0,1.68-0.35,2.09-1.05v-9.64h4.3v13.74h-4.01L193.6,440.61z"/>
	<path class="st1" d="M204.01,428.36l0.14,1.61c0.95-1.24,2.26-1.87,3.92-1.87c1.43,0,2.5,0.43,3.21,1.28
		c0.71,0.85,1.07,2.14,1.1,3.86v8.85h-4.29v-8.67c0-0.69-0.14-1.2-0.42-1.53c-0.28-0.33-0.79-0.49-1.52-0.49
		c-0.84,0-1.46,0.33-1.87,0.99v9.7H200v-13.74H204.01z"/>
	<path class="st1" d="M219.73,424.94v3.42h2.26v2.97h-2.26v6.28c0,0.52,0.09,0.88,0.28,1.08s0.55,0.3,1.1,0.3
		c0.42,0,0.78-0.03,1.07-0.08v3.06c-0.77,0.25-1.57,0.37-2.41,0.37c-1.47,0-2.56-0.35-3.26-1.04c-0.7-0.69-1.05-1.75-1.05-3.16
		v-6.82h-1.75v-2.97h1.75v-3.42H219.73z"/>
	<path class="st1" d="M230.86,438.24c0-0.36-0.19-0.66-0.57-0.88c-0.38-0.22-1.1-0.45-2.17-0.69c-1.07-0.24-1.95-0.55-2.64-0.93
		c-0.69-0.38-1.22-0.85-1.59-1.4c-0.36-0.55-0.55-1.18-0.55-1.89c0-1.26,0.52-2.3,1.56-3.12c1.04-0.82,2.4-1.22,4.09-1.22
		c1.81,0,3.27,0.41,4.37,1.23c1.1,0.82,1.65,1.9,1.65,3.24h-4.29c0-1.1-0.58-1.65-1.74-1.65c-0.45,0-0.83,0.12-1.13,0.37
		c-0.3,0.25-0.46,0.56-0.46,0.93c0,0.38,0.19,0.69,0.56,0.93c0.37,0.24,0.97,0.43,1.78,0.58c0.82,0.15,1.53,0.33,2.15,0.55
		c2.07,0.71,3.1,1.98,3.1,3.82c0,1.25-0.56,2.27-1.67,3.06c-1.11,0.79-2.55,1.18-4.32,1.18c-1.18,0-2.23-0.21-3.15-0.63
		c-0.92-0.42-1.64-1-2.16-1.73c-0.52-0.73-0.77-1.49-0.77-2.3h4c0.02,0.63,0.23,1.1,0.63,1.39s0.93,0.44,1.56,0.44
		c0.58,0,1.02-0.12,1.31-0.36C230.72,438.93,230.86,438.62,230.86,438.24z"/>
</g>
</svg>
