<?xml version="1.0" encoding="utf-8"?>
<!-- Generator: Adobe Illustrator 25.2.1, SVG Export Plug-In . SVG Version: 6.00 Build 0)  -->
<svg version="1.1" id="Layer_1" xmlns="http://www.w3.org/2000/svg" xmlns:xlink="http://www.w3.org/1999/xlink" x="0px" y="0px"
	 viewBox="0 0 300 600" style="enable-background:new 0 0 300 600;" xml:space="preserve">
<style type="text/css">
	.st0{fill:#021D8B;}
</style>
<g>
	<path class="st0" d="M67.91,240.14v-18.48h5.95c1.63,0,3.1,0.37,4.41,1.11s2.32,1.79,3.05,3.14c0.73,1.35,1.1,2.86,1.11,4.54v0.85
		c0,1.69-0.36,3.21-1.07,4.55c-0.72,1.34-1.72,2.39-3.02,3.15c-1.3,0.76-2.75,1.14-4.35,1.15H67.91z M72.36,225.1v11.62h1.55
		c1.28,0,2.26-0.46,2.95-1.37c0.69-0.91,1.03-2.26,1.03-4.06v-0.8c0-1.79-0.34-3.13-1.03-4.04s-1.68-1.36-3-1.36H72.36z"/>
	<path class="st0" d="M83.98,233.15c0-1.37,0.27-2.59,0.8-3.66c0.53-1.07,1.3-1.89,2.3-2.47s2.17-0.86,3.52-0.86
		c2.06,0,3.68,0.64,4.86,1.91c1.19,1.27,1.78,3.01,1.78,5.2v0.15c0,2.14-0.59,3.84-1.78,5.1c-1.19,1.26-2.8,1.88-4.83,1.88
		c-1.96,0-3.52-0.59-4.71-1.76c-1.19-1.17-1.82-2.76-1.92-4.77L83.98,233.15z M88.26,233.41c0,1.27,0.2,2.2,0.6,2.79
		s0.99,0.89,1.76,0.89c1.52,0,2.3-1.17,2.34-3.52v-0.43c0-2.46-0.79-3.69-2.36-3.69c-1.43,0-2.2,1.06-2.32,3.19L88.26,233.41z"/>
	<path class="st0" d="M110.98,234.5l1.38-8.1h4.1l-3.24,13.74h-3.62l-2.27-8.15l-2.29,8.15h-3.62L98.2,226.4h4.1l1.36,8.29
		l2.18-8.29h2.98L110.98,234.5z"/>
	<path class="st0" d="M121.93,226.4l0.14,1.61c0.95-1.24,2.26-1.87,3.92-1.87c1.43,0,2.5,0.43,3.21,1.28s1.07,2.14,1.1,3.86v8.85
		H126v-8.67c0-0.69-0.14-1.2-0.42-1.53c-0.28-0.33-0.79-0.49-1.52-0.49c-0.84,0-1.46,0.33-1.87,0.99v9.7h-4.28V226.4H121.93z"/>
	<path class="st0" d="M137.17,240.14h-4.29v-19.5h4.29V240.14z"/>
	<path class="st0" d="M139.27,233.15c0-1.37,0.27-2.59,0.8-3.66c0.53-1.07,1.3-1.89,2.3-2.47s2.17-0.86,3.52-0.86
		c2.06,0,3.68,0.64,4.86,1.91c1.18,1.27,1.78,3.01,1.78,5.2v0.15c0,2.14-0.59,3.84-1.78,5.1c-1.19,1.26-2.8,1.88-4.83,1.88
		c-1.96,0-3.53-0.59-4.71-1.76c-1.19-1.17-1.82-2.76-1.92-4.77L139.27,233.15z M143.55,233.41c0,1.27,0.2,2.2,0.6,2.79
		s0.99,0.89,1.76,0.89c1.52,0,2.3-1.17,2.34-3.52v-0.43c0-2.46-0.79-3.69-2.36-3.69c-1.43,0-2.21,1.06-2.32,3.19L143.55,233.41z"/>
	<path class="st0" d="M162.14,240.14c-0.15-0.28-0.29-0.69-0.41-1.23c-0.79,0.99-1.89,1.49-3.3,1.49c-1.29,0-2.4-0.39-3.3-1.17
		c-0.91-0.78-1.36-1.77-1.36-2.95c0-1.49,0.55-2.62,1.65-3.38s2.7-1.14,4.8-1.14h1.32v-0.73c0-1.27-0.55-1.9-1.64-1.9
		c-1.02,0-1.52,0.5-1.52,1.51h-4.28c0-1.33,0.57-2.41,1.69-3.23c1.13-0.83,2.57-1.24,4.32-1.24s3.14,0.43,4.15,1.28
		s1.54,2.03,1.56,3.52v6.08c0.02,1.26,0.21,2.23,0.58,2.89v0.22H162.14z M159.46,237.35c0.53,0,0.98-0.11,1.33-0.34
		c0.35-0.23,0.6-0.49,0.75-0.77v-2.2h-1.24c-1.49,0-2.23,0.67-2.23,2.01c0,0.39,0.13,0.7,0.39,0.95
		C158.72,237.23,159.06,237.35,159.46,237.35z"/>
	<path class="st0" d="M167.67,233.17c0-2.17,0.47-3.89,1.41-5.14s2.25-1.88,3.94-1.88c1.23,0,2.26,0.48,3.1,1.45v-6.96h4.29v19.5
		h-3.85l-0.22-1.47c-0.88,1.15-2,1.73-3.35,1.73c-1.63,0-2.93-0.63-3.88-1.88S167.67,235.48,167.67,233.17z M171.94,233.44
		c0,2.44,0.71,3.66,2.13,3.66c0.95,0,1.62-0.4,2.03-1.19v-5.23c-0.39-0.81-1.06-1.22-2.01-1.22c-1.32,0-2.04,1.07-2.15,3.2
		L171.94,233.44z"/>
	<path class="st0" d="M194.29,222.99v3.42h2.26v2.97h-2.26v6.28c0,0.52,0.09,0.88,0.28,1.08s0.55,0.3,1.1,0.3
		c0.42,0,0.78-0.03,1.07-0.08v3.06c-0.77,0.25-1.57,0.37-2.41,0.37c-1.47,0-2.56-0.35-3.26-1.04s-1.05-1.75-1.05-3.16v-6.82h-1.75
		v-2.97h1.75v-3.42H194.29z"/>
	<path class="st0" d="M202.41,227.88c0.91-1.15,2.08-1.73,3.5-1.73c1.51,0,2.66,0.45,3.43,1.35s1.16,2.22,1.18,3.97v8.67h-4.29
		v-8.57c0-0.73-0.15-1.26-0.44-1.61c-0.3-0.34-0.8-0.51-1.51-0.51c-0.88,0-1.5,0.28-1.87,0.84v9.85h-4.28v-19.5h4.28V227.88z"/>
	<path class="st0" d="M219.55,240.4c-2.11,0-3.81-0.63-5.12-1.88c-1.3-1.26-1.96-2.89-1.96-4.91v-0.36c0-1.41,0.26-2.64,0.78-3.72
		c0.52-1.08,1.28-1.91,2.28-2.49c1-0.59,2.18-0.88,3.55-0.88c1.93,0,3.45,0.6,4.57,1.8c1.12,1.2,1.68,2.87,1.68,5.01v1.66h-8.51
		c0.15,0.77,0.49,1.38,1,1.82s1.18,0.66,2.01,0.66c1.35,0,2.41-0.47,3.17-1.42l1.96,2.31c-0.53,0.74-1.29,1.32-2.27,1.76
		C221.73,240.18,220.68,240.4,219.55,240.4z M219.07,229.45c-1.25,0-2,0.83-2.23,2.49h4.32v-0.33c0.02-0.69-0.16-1.22-0.52-1.59
		C220.27,229.64,219.75,229.45,219.07,229.45z"/>
	<path class="st0" d="M72.74,265.07v6.27h-4.46v-18.48h7.38c1.41,0,2.66,0.26,3.75,0.78c1.09,0.52,1.93,1.26,2.53,2.22
		c0.6,0.96,0.9,2.05,0.9,3.27c0,1.8-0.65,3.24-1.94,4.32c-1.29,1.08-3.06,1.62-5.31,1.62H72.74z M72.74,261.63h2.92
		c0.86,0,1.52-0.22,1.97-0.65s0.68-1.04,0.68-1.83c0-0.86-0.23-1.55-0.7-2.07s-1.1-0.78-1.9-0.79h-2.97V261.63z"/>
	<path class="st0" d="M93.32,261.48l-1.41-0.1c-1.35,0-2.21,0.42-2.59,1.27v8.7h-4.28V257.6h4.01l0.14,1.76
		c0.72-1.35,1.72-2.02,3.01-2.02c0.46,0,0.85,0.05,1.19,0.15L93.32,261.48z"/>
	<path class="st0" d="M94.83,254.06c0-0.61,0.22-1.11,0.66-1.5s1.01-0.58,1.71-0.58s1.27,0.19,1.71,0.58s0.66,0.89,0.66,1.5
		s-0.22,1.11-0.66,1.5s-1.01,0.58-1.71,0.58s-1.27-0.19-1.71-0.58S94.83,254.67,94.83,254.06z M99.37,271.34h-4.29V257.6h4.29
		V271.34z"/>
	<path class="st0" d="M107.48,266.25l2.17-8.65h4.51l-4.48,13.74h-4.37l-4.48-13.74h4.52L107.48,266.25z"/>
	<path class="st0" d="M122.99,271.34c-0.15-0.28-0.29-0.69-0.41-1.23c-0.79,0.99-1.89,1.49-3.3,1.49c-1.29,0-2.4-0.39-3.3-1.17
		c-0.91-0.78-1.36-1.77-1.36-2.95c0-1.49,0.55-2.62,1.65-3.38s2.7-1.14,4.8-1.14h1.32v-0.73c0-1.27-0.55-1.9-1.64-1.9
		c-1.02,0-1.52,0.5-1.52,1.51h-4.28c0-1.33,0.56-2.41,1.69-3.23c1.13-0.83,2.57-1.24,4.32-1.24s3.14,0.43,4.15,1.28
		s1.54,2.03,1.56,3.52v6.08c0.02,1.26,0.21,2.23,0.58,2.89v0.22H122.99z M120.31,268.55c0.53,0,0.98-0.11,1.33-0.34
		s0.6-0.49,0.76-0.77v-2.2h-1.24c-1.49,0-2.23,0.67-2.23,2.01c0,0.39,0.13,0.7,0.39,0.95C119.57,268.43,119.9,268.55,120.31,268.55z
		"/>
	<path class="st0" d="M134.86,268.29c0.6,0,1.07-0.16,1.4-0.49c0.33-0.33,0.49-0.78,0.48-1.37h4.01c0,1.51-0.54,2.74-1.62,3.71
		s-2.47,1.45-4.17,1.45c-2,0-3.57-0.63-4.72-1.88s-1.73-2.99-1.73-5.21v-0.18c0-1.39,0.26-2.61,0.77-3.68
		c0.51-1.06,1.25-1.88,2.22-2.45c0.96-0.57,2.11-0.86,3.43-0.86c1.79,0,3.2,0.5,4.25,1.49s1.57,2.33,1.57,4.02h-4.01
		c0-0.71-0.17-1.26-0.52-1.64s-0.81-0.57-1.4-0.57c-1.11,0-1.76,0.71-1.94,2.12c-0.06,0.45-0.09,1.07-0.09,1.85
		c0,1.38,0.17,2.34,0.5,2.87S134.14,268.29,134.86,268.29z"/>
	<path class="st0" d="M148.05,265.35l2.29-7.74h4.58l-5.6,16.03l-0.24,0.58c-0.8,1.78-2.2,2.67-4.21,2.67
		c-0.56,0-1.15-0.08-1.76-0.25v-3.05h0.56c0.6,0,1.06-0.09,1.38-0.26c0.32-0.17,0.55-0.48,0.7-0.93l0.34-0.92l-4.77-13.87h4.57
		L148.05,265.35z"/>
	<path class="st0" d="M171.35,269.06c-0.69,0.76-1.69,1.38-3.01,1.84s-2.77,0.7-4.34,0.7c-2.42,0-4.35-0.74-5.8-2.22
		s-2.22-3.54-2.32-6.18l-0.01-1.6c0-1.82,0.32-3.41,0.96-4.77c0.64-1.36,1.56-2.4,2.76-3.13c1.2-0.73,2.58-1.1,4.16-1.1
		c2.3,0,4.09,0.53,5.36,1.58c1.27,1.05,2.02,2.62,2.23,4.72h-4.29c-0.15-1.03-0.48-1.77-0.99-2.21s-1.23-0.66-2.16-0.66
		c-1.12,0-1.98,0.47-2.59,1.42s-0.92,2.3-0.93,4.06v1.12c0,1.84,0.32,3.23,0.95,4.16c0.63,0.93,1.62,1.39,2.98,1.39
		c1.16,0,2.02-0.26,2.59-0.77v-2.87h-3.1v-3.06h7.55V269.06z"/>
	<path class="st0" d="M181.93,269.86c-0.91,1.16-2.13,1.74-3.67,1.74c-1.51,0-2.65-0.44-3.42-1.31c-0.77-0.88-1.16-2.13-1.16-3.78
		v-8.9h4.28v8.92c0,1.18,0.57,1.76,1.71,1.76c0.98,0,1.68-0.35,2.09-1.05v-9.64h4.3v13.74h-4.01L181.93,269.86z"/>
	<path class="st0" d="M196.15,271.34c-0.15-0.28-0.29-0.69-0.41-1.23c-0.79,0.99-1.89,1.49-3.3,1.49c-1.29,0-2.4-0.39-3.3-1.17
		c-0.91-0.78-1.36-1.77-1.36-2.95c0-1.49,0.55-2.62,1.65-3.38s2.7-1.14,4.8-1.14h1.32v-0.73c0-1.27-0.55-1.9-1.64-1.9
		c-1.02,0-1.52,0.5-1.52,1.51h-4.28c0-1.33,0.57-2.41,1.69-3.23c1.13-0.83,2.57-1.24,4.32-1.24s3.14,0.43,4.15,1.28
		s1.54,2.03,1.56,3.52v6.08c0.02,1.26,0.21,2.23,0.58,2.89v0.22H196.15z M193.47,268.55c0.53,0,0.98-0.11,1.33-0.34
		c0.35-0.23,0.6-0.49,0.75-0.77v-2.2h-1.24c-1.49,0-2.23,0.67-2.23,2.01c0,0.39,0.13,0.7,0.39,0.95
		C192.73,268.43,193.06,268.55,193.47,268.55z"/>
	<path class="st0" d="M210.52,261.48l-1.41-0.1c-1.35,0-2.21,0.42-2.59,1.27v8.7h-4.28V257.6h4.01l0.14,1.76
		c0.72-1.35,1.72-2.02,3.01-2.02c0.46,0,0.85,0.05,1.19,0.15L210.52,261.48z"/>
	<path class="st0" d="M211.52,264.37c0-2.17,0.47-3.89,1.41-5.14s2.25-1.88,3.94-1.88c1.23,0,2.26,0.48,3.1,1.45v-6.96h4.29v19.5
		h-3.85l-0.22-1.47c-0.88,1.15-2,1.73-3.35,1.73c-1.63,0-2.93-0.63-3.88-1.88S211.52,266.68,211.52,264.37z M215.8,264.64
		c0,2.44,0.71,3.66,2.13,3.66c0.95,0,1.62-0.4,2.03-1.19v-5.23c-0.39-0.81-1.06-1.22-2.01-1.22c-1.32,0-2.04,1.07-2.15,3.2
		L215.8,264.64z"/>
	<path class="st0" d="M101.07,302.54c-0.15-0.28-0.29-0.69-0.41-1.23c-0.79,0.99-1.89,1.49-3.3,1.49c-1.29,0-2.4-0.39-3.3-1.17
		c-0.91-0.78-1.36-1.77-1.36-2.95c0-1.49,0.55-2.62,1.65-3.38s2.7-1.14,4.8-1.14h1.32v-0.73c0-1.27-0.55-1.9-1.64-1.9
		c-1.02,0-1.52,0.5-1.52,1.51h-4.28c0-1.33,0.56-2.41,1.69-3.23c1.13-0.83,2.57-1.24,4.32-1.24s3.14,0.43,4.15,1.28
		s1.54,2.03,1.56,3.52v6.08c0.02,1.26,0.21,2.23,0.58,2.9v0.22H101.07z M98.39,299.75c0.53,0,0.98-0.11,1.33-0.34
		s0.6-0.49,0.76-0.77v-2.2h-1.24c-1.49,0-2.23,0.67-2.23,2.01c0,0.39,0.13,0.7,0.39,0.95C97.65,299.63,97.98,299.75,98.39,299.75z"
		/>
	<path class="st0" d="M119.88,295.77c0,2.13-0.48,3.84-1.44,5.11c-0.96,1.27-2.26,1.91-3.89,1.91c-1.26,0-2.3-0.46-3.11-1.38v6.41
		h-4.28v-19.02h4l0.13,1.27c0.82-1.02,1.9-1.52,3.24-1.52c1.69,0,3.01,0.62,3.95,1.87c0.94,1.25,1.41,2.96,1.41,5.15V295.77z
		 M115.6,295.51c0-2.44-0.71-3.66-2.13-3.66c-1.02,0-1.69,0.36-2.03,1.09v5.41c0.37,0.76,1.06,1.14,2.06,1.14
		c1.36,0,2.06-1.18,2.11-3.53V295.51z"/>
	<path class="st0" d="M134.52,295.77c0,2.13-0.48,3.84-1.44,5.11c-0.96,1.27-2.26,1.91-3.89,1.91c-1.26,0-2.3-0.46-3.11-1.38v6.41
		h-4.28v-19.02h4l0.13,1.27c0.82-1.02,1.9-1.52,3.24-1.52c1.69,0,3.01,0.62,3.95,1.87c0.94,1.25,1.41,2.96,1.41,5.15V295.77z
		 M130.24,295.51c0-2.44-0.71-3.66-2.13-3.66c-1.02,0-1.69,0.36-2.03,1.09v5.41c0.37,0.76,1.06,1.14,2.06,1.14
		c1.36,0,2.06-1.18,2.11-3.53V295.51z"/>
	<path class="st0" d="M147.86,285.39v3.42h2.26v2.97h-2.26v6.28c0,0.52,0.09,0.88,0.28,1.08s0.55,0.3,1.1,0.3
		c0.42,0,0.78-0.03,1.07-0.08v3.06c-0.77,0.25-1.57,0.37-2.41,0.37c-1.47,0-2.56-0.35-3.26-1.04s-1.05-1.75-1.05-3.16v-6.82h-1.75
		v-2.97h1.75v-3.42H147.86z"/>
	<path class="st0" d="M150.88,295.55c0-1.37,0.27-2.59,0.8-3.66c0.53-1.07,1.3-1.89,2.3-2.47s2.17-0.86,3.52-0.86
		c2.06,0,3.68,0.64,4.86,1.91c1.18,1.27,1.78,3.01,1.78,5.2v0.15c0,2.14-0.59,3.84-1.78,5.1c-1.19,1.26-2.8,1.89-4.83,1.89
		c-1.96,0-3.53-0.59-4.71-1.76c-1.18-1.17-1.82-2.76-1.92-4.77L150.88,295.55z M155.16,295.81c0,1.27,0.2,2.2,0.6,2.79
		s0.99,0.89,1.76,0.89c1.52,0,2.3-1.17,2.34-3.52v-0.43c0-2.46-0.79-3.69-2.36-3.69c-1.43,0-2.21,1.06-2.32,3.19L155.16,295.81z"/>
	<path class="st0" d="M165.48,295.57c0-2.17,0.47-3.89,1.41-5.14s2.25-1.88,3.94-1.88c1.23,0,2.26,0.48,3.1,1.45v-6.96h4.29v19.5
		h-3.85l-0.22-1.47c-0.88,1.15-2,1.73-3.35,1.73c-1.63,0-2.93-0.63-3.88-1.88C165.96,299.66,165.48,297.88,165.48,295.57z
		 M169.76,295.84c0,2.44,0.71,3.66,2.13,3.66c0.95,0,1.62-0.4,2.03-1.19v-5.23c-0.39-0.81-1.06-1.22-2.01-1.22
		c-1.32,0-2.04,1.07-2.15,3.2L169.76,295.84z"/>
	<path class="st0" d="M188.38,302.54c-0.15-0.28-0.29-0.69-0.41-1.23c-0.79,0.99-1.89,1.49-3.3,1.49c-1.29,0-2.4-0.39-3.3-1.17
		c-0.91-0.78-1.36-1.77-1.36-2.95c0-1.49,0.55-2.62,1.65-3.38s2.7-1.14,4.8-1.14h1.32v-0.73c0-1.27-0.55-1.9-1.64-1.9
		c-1.02,0-1.52,0.5-1.52,1.51h-4.28c0-1.33,0.57-2.41,1.69-3.23c1.13-0.83,2.57-1.24,4.32-1.24s3.14,0.43,4.15,1.28
		s1.54,2.03,1.56,3.52v6.08c0.02,1.26,0.21,2.23,0.58,2.9v0.22H188.38z M185.71,299.75c0.53,0,0.98-0.11,1.33-0.34
		c0.35-0.23,0.6-0.49,0.75-0.77v-2.2h-1.24c-1.49,0-2.23,0.67-2.23,2.01c0,0.39,0.13,0.7,0.39,0.95
		C184.97,299.63,185.3,299.75,185.71,299.75z"/>
	<path class="st0" d="M199.94,296.55l2.29-7.74h4.58l-5.6,16.03l-0.24,0.58c-0.8,1.78-2.2,2.67-4.21,2.67
		c-0.56,0-1.15-0.08-1.76-0.25v-3.05h0.56c0.6,0,1.06-0.09,1.38-0.26c0.32-0.17,0.55-0.48,0.7-0.93l0.34-0.92l-4.77-13.87h4.57
		L199.94,296.55z"/>
</g>
</svg>
