<?xml version="1.0" encoding="utf-8"?>
<!-- Generator: Adobe Illustrator 25.2.1, SVG Export Plug-In . SVG Version: 6.00 Build 0)  -->
<svg version="1.1" id="Layer_1" xmlns="http://www.w3.org/2000/svg" xmlns:xlink="http://www.w3.org/1999/xlink" x="0px" y="0px"
	 viewBox="0 0 300 600" style="enable-background:new 0 0 300 600;" xml:space="preserve">
<style type="text/css">
	.st0{fill:#021D8B;}
	.st1{fill:#18B9FB;}
</style>
<g>
	<path class="st0" d="M60.01,404l2.12-11.59h4.42l-3.92,18.48H58l-2.48-10.54L53.1,410.9H48.5l-3.94-18.48h4.43L51.11,404
		l2.54-11.59h3.78L60.01,404z"/>
	<path class="st0" d="M74.74,411.15c-2.11,0-3.81-0.63-5.12-1.89s-1.96-2.89-1.96-4.91V404c0-1.41,0.26-2.65,0.78-3.72
		c0.52-1.08,1.28-1.91,2.28-2.5c1-0.59,2.18-0.88,3.55-0.88c1.93,0,3.45,0.6,4.57,1.8c1.12,1.2,1.68,2.87,1.68,5.01v1.66h-8.51
		c0.15,0.77,0.49,1.38,1,1.82c0.52,0.44,1.18,0.66,2.01,0.66c1.35,0,2.41-0.47,3.17-1.42l1.96,2.31c-0.53,0.74-1.29,1.32-2.27,1.76
		C76.92,410.93,75.86,411.15,74.74,411.15z M74.25,400.21c-1.25,0-2,0.83-2.23,2.49h4.32v-0.33c0.02-0.69-0.16-1.22-0.52-1.59
		C75.45,400.39,74.93,400.21,74.25,400.21z"/>
	<path class="st0" d="M84.46,393.45l-0.42,5.24h-2.63v-7.3h3.05V393.45z"/>
	<path class="st0" d="M90.59,410.9H86.3v-19.5h4.29V410.9z"/>
	<path class="st0" d="M97.74,410.9h-4.29v-19.5h4.29V410.9z"/>
	<path class="st0" d="M110.89,397.16l0.14,1.61c0.97-1.24,2.28-1.87,3.92-1.87c1.74,0,2.91,0.69,3.52,2.07
		c0.93-1.38,2.28-2.07,4.04-2.07c2.78,0,4.21,1.68,4.29,5.05v8.94h-4.29v-8.67c0-0.7-0.12-1.21-0.36-1.54
		c-0.24-0.32-0.67-0.48-1.29-0.48c-0.85,0-1.48,0.38-1.89,1.13l0.01,0.18v9.38h-4.29v-8.65c0-0.72-0.11-1.24-0.34-1.56
		c-0.23-0.32-0.66-0.48-1.31-0.48c-0.82,0-1.45,0.38-1.88,1.13v9.56h-4.28v-13.74H110.89z"/>
	<path class="st0" d="M128.71,403.9c0-1.37,0.27-2.59,0.8-3.66c0.53-1.07,1.3-1.89,2.3-2.47c1-0.58,2.17-0.86,3.52-0.86
		c2.06,0,3.68,0.64,4.86,1.91c1.18,1.27,1.78,3.01,1.78,5.2v0.15c0,2.14-0.59,3.84-1.78,5.1c-1.19,1.26-2.8,1.89-4.83,1.89
		c-1.96,0-3.53-0.59-4.71-1.76c-1.18-1.17-1.82-2.76-1.92-4.77L128.71,403.9z M132.98,404.17c0,1.27,0.2,2.2,0.6,2.79
		c0.4,0.59,0.99,0.89,1.76,0.89c1.52,0,2.3-1.17,2.34-3.52v-0.43c0-2.46-0.79-3.69-2.36-3.69c-1.43,0-2.21,1.06-2.32,3.19
		L132.98,404.17z"/>
	<path class="st0" d="M147.77,397.16l0.14,1.61c0.95-1.24,2.26-1.87,3.92-1.87c1.43,0,2.5,0.43,3.21,1.28
		c0.71,0.85,1.07,2.14,1.1,3.86v8.85h-4.29v-8.67c0-0.69-0.14-1.2-0.42-1.53c-0.28-0.33-0.79-0.49-1.52-0.49
		c-0.84,0-1.46,0.33-1.87,0.99v9.7h-4.28v-13.74H147.77z"/>
	<path class="st0" d="M158.48,393.62c0-0.61,0.22-1.11,0.66-1.5c0.44-0.39,1.01-0.58,1.71-0.58s1.27,0.19,1.71,0.58
		c0.44,0.39,0.66,0.89,0.66,1.5s-0.22,1.11-0.66,1.5c-0.44,0.39-1.01,0.58-1.71,0.58s-1.27-0.2-1.71-0.58
		C158.7,394.73,158.48,394.23,158.48,393.62z M163.02,410.9h-4.29v-13.74h4.29V410.9z"/>
	<path class="st0" d="M170.64,393.74v3.42h2.26v2.97h-2.26v6.28c0,0.52,0.09,0.88,0.28,1.08s0.55,0.3,1.1,0.3
		c0.42,0,0.78-0.03,1.07-0.08v3.06c-0.77,0.25-1.57,0.37-2.41,0.37c-1.47,0-2.56-0.35-3.26-1.04c-0.7-0.69-1.05-1.75-1.05-3.16
		v-6.82h-1.75v-2.97h1.75v-3.42H170.64z"/>
	<path class="st0" d="M173.66,403.9c0-1.37,0.27-2.59,0.8-3.66c0.53-1.07,1.3-1.89,2.3-2.47c1-0.58,2.17-0.86,3.52-0.86
		c2.06,0,3.68,0.64,4.86,1.91c1.18,1.27,1.78,3.01,1.78,5.2v0.15c0,2.14-0.59,3.84-1.78,5.1c-1.19,1.26-2.8,1.89-4.83,1.89
		c-1.96,0-3.53-0.59-4.71-1.76c-1.18-1.17-1.82-2.76-1.92-4.77L173.66,403.9z M177.94,404.17c0,1.27,0.2,2.2,0.6,2.79
		c0.4,0.59,0.99,0.89,1.76,0.89c1.52,0,2.3-1.17,2.34-3.52v-0.43c0-2.46-0.79-3.69-2.36-3.69c-1.43,0-2.21,1.06-2.32,3.19
		L177.94,404.17z"/>
	<path class="st0" d="M197.11,401.03l-1.41-0.1c-1.35,0-2.21,0.42-2.59,1.27v8.7h-4.28v-13.74h4.01l0.14,1.76
		c0.72-1.35,1.72-2.02,3.01-2.02c0.46,0,0.85,0.05,1.19,0.15L197.11,401.03z"/>
	<path class="st0" d="M210.62,404.9l2.29-7.74h4.58l-5.6,16.03l-0.24,0.58c-0.8,1.78-2.2,2.67-4.21,2.67
		c-0.56,0-1.15-0.08-1.76-0.25v-3.05h0.56c0.6,0,1.06-0.09,1.38-0.26c0.32-0.17,0.55-0.49,0.7-0.93l0.34-0.92l-4.77-13.87h4.57
		L210.62,404.9z"/>
	<path class="st0" d="M218.05,403.9c0-1.37,0.27-2.59,0.8-3.66c0.53-1.07,1.3-1.89,2.3-2.47c1-0.58,2.17-0.86,3.52-0.86
		c2.06,0,3.68,0.64,4.86,1.91c1.18,1.27,1.78,3.01,1.78,5.2v0.15c0,2.14-0.59,3.84-1.78,5.1c-1.19,1.26-2.8,1.89-4.83,1.89
		c-1.96,0-3.53-0.59-4.71-1.76c-1.18-1.17-1.82-2.76-1.92-4.77L218.05,403.9z M222.33,404.17c0,1.27,0.2,2.2,0.6,2.79
		c0.4,0.59,0.99,0.89,1.76,0.89c1.52,0,2.3-1.17,2.34-3.52v-0.43c0-2.46-0.79-3.69-2.36-3.69c-1.43,0-2.21,1.06-2.32,3.19
		L222.33,404.17z"/>
	<path class="st0" d="M241.38,409.41c-0.91,1.16-2.13,1.74-3.67,1.74c-1.51,0-2.65-0.44-3.42-1.31c-0.77-0.88-1.16-2.13-1.16-3.78
		v-8.9h4.28v8.92c0,1.18,0.57,1.76,1.71,1.76c0.98,0,1.68-0.35,2.09-1.05v-9.64h4.3v13.74h-4.01L241.38,409.41z"/>
	<path class="st0" d="M256.17,401.03l-1.41-0.1c-1.35,0-2.21,0.42-2.59,1.27v8.7h-4.28v-13.74h4.01l0.14,1.76
		c0.72-1.35,1.72-2.02,3.01-2.02c0.46,0,0.85,0.05,1.19,0.15L256.17,401.03z"/>
	<path class="st1" d="M72.86,437.18c0-0.65-0.23-1.16-0.69-1.52c-0.46-0.36-1.27-0.74-2.43-1.13c-1.16-0.39-2.11-0.77-2.84-1.13
		c-2.4-1.18-3.59-2.79-3.59-4.85c0-1.02,0.3-1.93,0.89-2.71c0.6-0.78,1.44-1.39,2.53-1.83c1.09-0.44,2.32-0.65,3.68-0.65
		c1.33,0,2.52,0.24,3.57,0.71c1.05,0.47,1.87,1.15,2.46,2.02s0.88,1.88,0.88,3h-4.44c0-0.75-0.23-1.34-0.69-1.75
		c-0.46-0.42-1.09-0.62-1.87-0.62c-0.8,0-1.42,0.18-1.88,0.53c-0.46,0.35-0.69,0.8-0.69,1.34c0,0.47,0.25,0.9,0.76,1.29
		c0.51,0.39,1.4,0.78,2.68,1.19c1.28,0.41,2.33,0.85,3.15,1.33c2,1.15,3,2.74,3,4.76c0,1.62-0.61,2.89-1.83,3.81
		c-1.22,0.92-2.89,1.38-5.01,1.38c-1.5,0-2.85-0.27-4.07-0.81c-1.21-0.54-2.13-1.27-2.74-2.21c-0.61-0.93-0.92-2.01-0.92-3.23h4.47
		c0,0.99,0.26,1.72,0.77,2.19c0.51,0.47,1.34,0.71,2.5,0.71c0.74,0,1.32-0.16,1.75-0.48C72.65,438.2,72.86,437.76,72.86,437.18z"/>
	<path class="st1" d="M78.86,435.1c0-1.37,0.27-2.59,0.8-3.66c0.53-1.07,1.3-1.89,2.3-2.47c1-0.58,2.17-0.86,3.52-0.86
		c2.06,0,3.68,0.64,4.86,1.91c1.18,1.27,1.78,3.01,1.78,5.2v0.15c0,2.14-0.59,3.84-1.78,5.1c-1.19,1.26-2.8,1.89-4.83,1.89
		c-1.96,0-3.53-0.59-4.71-1.76c-1.18-1.17-1.82-2.76-1.92-4.77L78.86,435.1z M83.14,435.37c0,1.27,0.2,2.2,0.6,2.79
		c0.4,0.59,0.99,0.89,1.76,0.89c1.52,0,2.3-1.17,2.34-3.52v-0.43c0-2.46-0.79-3.69-2.36-3.69c-1.43,0-2.21,1.06-2.32,3.19
		L83.14,435.37z"/>
	<path class="st1" d="M99.81,439.05c0.6,0,1.07-0.16,1.4-0.49c0.33-0.33,0.49-0.78,0.48-1.36h4.01c0,1.51-0.54,2.74-1.62,3.71
		c-1.08,0.96-2.47,1.45-4.17,1.45c-2,0-3.57-0.63-4.72-1.88c-1.15-1.25-1.73-2.99-1.73-5.21v-0.18c0-1.39,0.26-2.61,0.77-3.68
		c0.51-1.06,1.25-1.88,2.22-2.45s2.11-0.86,3.43-0.86c1.79,0,3.2,0.5,4.25,1.49s1.57,2.33,1.57,4.02h-4.01
		c0-0.71-0.17-1.26-0.52-1.64s-0.81-0.57-1.4-0.57c-1.11,0-1.76,0.71-1.94,2.12c-0.06,0.45-0.09,1.07-0.09,1.85
		c0,1.38,0.17,2.34,0.5,2.87S99.09,439.05,99.81,439.05z"/>
	<path class="st1" d="M107.48,424.82c0-0.61,0.22-1.11,0.66-1.5c0.44-0.39,1.01-0.58,1.71-0.58s1.27,0.19,1.71,0.58
		c0.44,0.39,0.66,0.89,0.66,1.5s-0.22,1.11-0.66,1.5c-0.44,0.39-1.01,0.58-1.71,0.58s-1.27-0.2-1.71-0.58
		C107.7,425.93,107.48,425.43,107.48,424.82z M112.02,442.1h-4.29v-13.74h4.29V442.1z"/>
	<path class="st1" d="M122.4,442.1c-0.15-0.28-0.29-0.69-0.41-1.23c-0.79,0.99-1.89,1.49-3.3,1.49c-1.29,0-2.4-0.39-3.3-1.17
		c-0.91-0.78-1.36-1.77-1.36-2.95c0-1.49,0.55-2.62,1.65-3.38s2.7-1.14,4.8-1.14h1.32v-0.73c0-1.27-0.55-1.9-1.64-1.9
		c-1.02,0-1.52,0.5-1.52,1.5h-4.28c0-1.33,0.57-2.4,1.69-3.23c1.13-0.83,2.57-1.24,4.32-1.24s3.14,0.43,4.15,1.28
		c1.02,0.85,1.54,2.03,1.56,3.52v6.08c0.02,1.26,0.21,2.23,0.58,2.89v0.22H122.4z M119.72,439.3c0.53,0,0.98-0.11,1.33-0.34
		c0.35-0.23,0.6-0.49,0.75-0.77v-2.2h-1.24c-1.49,0-2.23,0.67-2.23,2.01c0,0.39,0.13,0.7,0.39,0.95S119.31,439.3,119.72,439.3z"/>
	<path class="st1" d="M132.97,442.1h-4.29v-19.5h4.29V442.1z"/>
	<path class="st1" d="M151.81,437.18c0-0.65-0.23-1.16-0.69-1.52c-0.46-0.36-1.27-0.74-2.43-1.13c-1.16-0.39-2.11-0.77-2.84-1.13
		c-2.4-1.18-3.59-2.79-3.59-4.85c0-1.02,0.3-1.93,0.89-2.71c0.6-0.78,1.44-1.39,2.53-1.83c1.09-0.44,2.32-0.65,3.68-0.65
		c1.33,0,2.52,0.24,3.57,0.71c1.05,0.47,1.87,1.15,2.46,2.02s0.88,1.88,0.88,3h-4.44c0-0.75-0.23-1.34-0.69-1.75
		c-0.46-0.42-1.09-0.62-1.87-0.62c-0.8,0-1.42,0.18-1.88,0.53c-0.46,0.35-0.69,0.8-0.69,1.34c0,0.47,0.25,0.9,0.76,1.29
		c0.51,0.39,1.4,0.78,2.68,1.19c1.28,0.41,2.33,0.85,3.15,1.33c2,1.15,3,2.74,3,4.76c0,1.62-0.61,2.89-1.83,3.81
		c-1.22,0.92-2.89,1.38-5.01,1.38c-1.5,0-2.85-0.27-4.07-0.81c-1.21-0.54-2.13-1.27-2.74-2.21c-0.61-0.93-0.92-2.01-0.92-3.23h4.47
		c0,0.99,0.26,1.72,0.77,2.19c0.51,0.47,1.34,0.71,2.5,0.71c0.74,0,1.32-0.16,1.75-0.48C151.6,438.2,151.81,437.76,151.81,437.18z"
		/>
	<path class="st1" d="M165,442.35c-2.11,0-3.81-0.63-5.12-1.89s-1.96-2.89-1.96-4.91v-0.36c0-1.41,0.26-2.65,0.78-3.72
		c0.52-1.08,1.28-1.91,2.28-2.5c1-0.59,2.18-0.88,3.55-0.88c1.93,0,3.45,0.6,4.57,1.8c1.12,1.2,1.68,2.87,1.68,5.01v1.66h-8.51
		c0.15,0.77,0.49,1.38,1,1.82c0.52,0.44,1.18,0.66,2.01,0.66c1.35,0,2.41-0.47,3.17-1.42l1.96,2.31c-0.53,0.74-1.29,1.32-2.27,1.76
		C167.18,442.13,166.13,442.35,165,442.35z M164.52,431.41c-1.25,0-2,0.83-2.23,2.49h4.32v-0.33c0.02-0.69-0.16-1.22-0.52-1.59
		C165.72,431.59,165.2,431.41,164.52,431.41z"/>
	<path class="st1" d="M178.32,439.05c0.6,0,1.07-0.16,1.4-0.49c0.33-0.33,0.49-0.78,0.48-1.36h4.01c0,1.51-0.54,2.74-1.62,3.71
		c-1.08,0.96-2.47,1.45-4.17,1.45c-2,0-3.57-0.63-4.72-1.88c-1.15-1.25-1.73-2.99-1.73-5.21v-0.18c0-1.39,0.26-2.61,0.77-3.68
		c0.51-1.06,1.25-1.88,2.22-2.45s2.11-0.86,3.43-0.86c1.79,0,3.2,0.5,4.25,1.49s1.57,2.33,1.57,4.02h-4.01
		c0-0.71-0.17-1.26-0.52-1.64s-0.81-0.57-1.4-0.57c-1.11,0-1.76,0.71-1.94,2.12c-0.06,0.45-0.09,1.07-0.09,1.85
		c0,1.38,0.17,2.34,0.5,2.87S177.6,439.05,178.32,439.05z"/>
	<path class="st1" d="M194.2,440.61c-0.91,1.16-2.13,1.74-3.67,1.74c-1.51,0-2.65-0.44-3.42-1.31c-0.77-0.88-1.16-2.13-1.16-3.78
		v-8.9h4.28v8.92c0,1.18,0.57,1.76,1.71,1.76c0.98,0,1.68-0.35,2.09-1.05v-9.64h4.3v13.74h-4.01L194.2,440.61z"/>
	<path class="st1" d="M208.99,432.23l-1.41-0.1c-1.35,0-2.21,0.42-2.59,1.27v8.7h-4.28v-13.74h4.01l0.14,1.76
		c0.72-1.35,1.72-2.02,3.01-2.02c0.46,0,0.85,0.05,1.19,0.15L208.99,432.23z"/>
	<path class="st1" d="M210.5,424.82c0-0.61,0.22-1.11,0.66-1.5c0.44-0.39,1.01-0.58,1.71-0.58s1.27,0.19,1.71,0.58
		c0.44,0.39,0.66,0.89,0.66,1.5s-0.22,1.11-0.66,1.5c-0.44,0.39-1.01,0.58-1.71,0.58s-1.27-0.2-1.71-0.58
		C210.72,425.93,210.5,425.43,210.5,424.82z M215.05,442.1h-4.29v-13.74h4.29V442.1z"/>
	<path class="st1" d="M222.66,424.94v3.42h2.26v2.97h-2.26v6.28c0,0.52,0.09,0.88,0.28,1.08s0.55,0.3,1.1,0.3
		c0.42,0,0.78-0.03,1.07-0.08v3.06c-0.77,0.25-1.57,0.37-2.41,0.37c-1.47,0-2.56-0.35-3.26-1.04c-0.7-0.69-1.05-1.75-1.05-3.16
		v-6.82h-1.75v-2.97h1.75v-3.42H222.66z"/>
	<path class="st1" d="M232.1,436.1l2.29-7.74h4.58l-5.6,16.03l-0.24,0.58c-0.8,1.78-2.2,2.67-4.21,2.67c-0.56,0-1.15-0.08-1.76-0.25
		v-3.05h0.56c0.6,0,1.06-0.09,1.38-0.26c0.32-0.17,0.55-0.49,0.7-0.93l0.34-0.92l-4.77-13.87h4.57L232.1,436.1z"/>
	<path class="st1" d="M120.26,473.29h-4.43l-6.55-11.5v11.5h-4.46v-18.48h4.46l6.54,11.5v-11.5h4.44V473.29z"/>
	<path class="st1" d="M131.06,471.81c-0.91,1.16-2.13,1.74-3.67,1.74c-1.51,0-2.65-0.44-3.42-1.31c-0.77-0.88-1.16-2.13-1.16-3.78
		v-8.9h4.28v8.92c0,1.18,0.57,1.76,1.71,1.76c0.98,0,1.68-0.35,2.09-1.05v-9.64h4.3v13.74h-4.01L131.06,471.81z"/>
	<path class="st1" d="M141.58,459.56l0.14,1.61c0.97-1.24,2.28-1.87,3.92-1.87c1.74,0,2.91,0.69,3.52,2.07
		c0.93-1.38,2.28-2.07,4.04-2.07c2.78,0,4.21,1.68,4.29,5.05v8.94h-4.29v-8.67c0-0.7-0.12-1.21-0.36-1.54
		c-0.24-0.32-0.67-0.48-1.29-0.48c-0.85,0-1.48,0.38-1.89,1.13l0.01,0.18v9.38h-4.29v-8.65c0-0.72-0.11-1.24-0.34-1.56
		c-0.23-0.32-0.66-0.48-1.31-0.48c-0.82,0-1.45,0.38-1.88,1.13v9.56h-4.28v-13.74H141.58z"/>
	<path class="st1" d="M172.69,466.54c0,2.25-0.47,3.98-1.4,5.19c-0.93,1.21-2.24,1.82-3.94,1.82c-1.4,0-2.52-0.55-3.38-1.66
		l-0.18,1.41h-3.83v-19.5h4.28v6.87c0.8-0.91,1.82-1.36,3.08-1.36c1.71,0,3.03,0.61,3.96,1.84c0.93,1.23,1.4,2.95,1.4,5.18V466.54z
		 M168.4,466.27c0-1.32-0.18-2.26-0.53-2.82c-0.35-0.56-0.89-0.84-1.62-0.84c-0.96,0-1.63,0.37-2.01,1.1v5.45
		c0.36,0.73,1.04,1.09,2.03,1.09c1.01,0,1.65-0.49,1.92-1.47C168.33,468.3,168.4,467.46,168.4,466.27z"/>
	<path class="st1" d="M181.22,473.55c-2.11,0-3.81-0.63-5.12-1.88s-1.96-2.89-1.96-4.91v-0.36c0-1.4,0.26-2.64,0.78-3.72
		c0.52-1.07,1.28-1.91,2.28-2.49c1-0.59,2.18-0.88,3.55-0.88c1.93,0,3.45,0.6,4.57,1.8c1.12,1.2,1.68,2.87,1.68,5.01v1.66h-8.51
		c0.15,0.77,0.49,1.38,1,1.82c0.52,0.44,1.18,0.66,2.01,0.66c1.35,0,2.41-0.47,3.17-1.42l1.96,2.31c-0.53,0.74-1.29,1.32-2.27,1.76
		C183.4,473.33,182.35,473.55,181.22,473.55z M180.74,462.61c-1.25,0-2,0.83-2.23,2.49h4.32v-0.33c0.02-0.69-0.16-1.22-0.52-1.59
		C181.93,462.79,181.41,462.61,180.74,462.61z"/>
	<path class="st1" d="M197.04,463.43l-1.41-0.1c-1.35,0-2.21,0.42-2.59,1.27v8.7h-4.28v-13.74h4.01l0.14,1.76
		c0.72-1.35,1.72-2.02,3.01-2.02c0.46,0,0.85,0.05,1.19,0.15L197.04,463.43z"/>
</g>
</svg>
