<svg id="Layer_1" xmlns="http://www.w3.org/2000/svg" viewBox="0 0 160 600"><style>.st0{fill:#2a3380}</style><path class="st0" d="M31.8 145.5h-3.1v2.5h3.6v.8h-4.5v-7.1h4.5v.8h-3.5v2.3h3.1v.7zM34.1 143.5v.7c.4-.5.9-.8 1.6-.8 1.1 0 1.7.6 1.7 1.9v3.5h-.9v-3.5c0-.4-.1-.7-.3-.8-.2-.2-.4-.3-.8-.3-.3 0-.5.1-.8.2s-.4.4-.5.6v3.8h-.9v-5.3h.9zM41.4 144.3H41c-.6 0-1 .3-1.2.8v3.8h-.9v-5.3h.9v.6c.3-.5.7-.7 1.3-.7.2 0 .3 0 .4.1v.7zM41.9 146.1c0-.5.1-1 .3-1.4.2-.4.5-.7.8-1 .4-.2.8-.3 1.2-.3.7 0 1.3.2 1.7.7.4.5.7 1.2.7 2v.1c0 .5-.1 1-.3 1.4-.2.4-.5.7-.8 1-.4.2-.8.3-1.3.3-.7 0-1.3-.2-1.7-.7-.4-.6-.6-1.2-.6-2.1zm.9.1c0 .6.1 1.1.4 1.4.3.4.6.5 1.1.5.5 0 .8-.2 1.1-.5s.4-.9.4-1.5-.1-1-.4-1.4c-.3-.4-.6-.5-1.1-.5-.4 0-.8.2-1.1.5s-.4.8-.4 1.5zM48.8 148.8h-.9v-7.5h.9v7.5zM51.2 148.8h-.9v-7.5h.9v7.5zM55.1 142.1c0-.1 0-.3.1-.4.1-.1.2-.2.4-.2s.3.1.4.2.1.2.1.4 0 .3-.1.4-.2.1-.4.1-.3 0-.4-.1c0-.1-.1-.3-.1-.4zm1 6.7h-.9v-5.3h.9v5.3zM58.4 143.5v.7c.4-.5.9-.8 1.6-.8 1.1 0 1.7.6 1.7 1.9v3.5h-.9v-3.5c0-.4-.1-.7-.3-.8-.2-.2-.4-.3-.8-.3-.3 0-.5.1-.8.2s-.4.4-.5.6v3.8h-.9v-5.3h.9zM66.6 146v2.8h-.9v-7.1h2.6c.8 0 1.4.2 1.8.6.4.4.7.9.7 1.6 0 .7-.2 1.2-.6 1.6-.4.4-1 .6-1.9.6h-1.7zm0-.8h1.7c.5 0 .9-.1 1.2-.4s.4-.6.4-1-.1-.8-.4-1-.6-.4-1.1-.4h-1.7v2.8zM74.4 144.3H74c-.6 0-1 .3-1.2.8v3.8h-.9v-5.3h.9v.6c.3-.5.7-.7 1.3-.7.2 0 .3 0 .4.1v.7zM75.2 142.1c0-.1 0-.3.1-.4.1-.1.2-.2.4-.2s.3.1.4.2.1.2.1.4 0 .3-.1.4-.2.1-.4.1-.3 0-.4-.1c0-.1-.1-.3-.1-.4zm1 6.7h-.9v-5.3h.9v5.3zM79.4 147.6l1.3-4.1h.9l-1.9 5.3H79l-1.9-5.3h.9l1.4 4.1zM85.7 148.8c-.1-.1-.1-.3-.1-.6-.4.4-.9.7-1.5.7-.5 0-.9-.1-1.3-.4-.3-.3-.5-.7-.5-1.1 0-.6.2-1 .6-1.3.4-.3 1-.5 1.8-.5h.9v-.4c0-.3-.1-.6-.3-.8s-.5-.3-.8-.3c-.3 0-.6.1-.8.2s-.3.4-.3.6h-.9c0-.3.1-.5.3-.8.2-.2.4-.4.8-.6.3-.1.7-.2 1.1-.2.6 0 1.1.2 1.4.5s.5.7.5 1.3v2.4c0 .5.1.9.2 1.2v.1h-1.1zm-1.5-.7c.3 0 .6-.1.8-.2s.4-.3.6-.6v-1.1h-.7c-1.1 0-1.7.3-1.7 1 0 .3.1.5.3.7s.4.2.7.2zM90 148.1c.3 0 .6-.1.8-.3s.4-.4.4-.7h.9c0 .3-.1.6-.3.9s-.4.5-.8.7c-.3.2-.7.2-1 .2-.7 0-1.3-.2-1.7-.7-.4-.5-.6-1.1-.6-2v-.2c0-.5.1-1 .3-1.4s.5-.7.8-.9c.4-.2.8-.3 1.3-.3.6 0 1.1.2 1.5.5.4.4.6.8.6 1.4h-.9c0-.3-.2-.6-.4-.8-.2-.2-.5-.3-.9-.3-.5 0-.8.2-1.1.5-.3.3-.4.8-.4 1.4v.2c0 .6.1 1.1.4 1.4s.6.4 1.1.4zM94.8 147.5l1.2-4h1l-2.1 6.1c-.3.9-.9 1.3-1.6 1.3h-.2l-.3-.1v-.7h.2c.3 0 .5-.1.7-.2.2-.1.3-.4.4-.7l.2-.5-1.9-5.2h1l1.4 4zM103.2 147.8c-.2.3-.6.6-1 .8-.4.2-.9.3-1.5.3s-1.1-.1-1.5-.4-.8-.7-1-1.2c-.2-.5-.4-1.1-.4-1.7v-.6c0-1.1.2-1.9.8-2.5.5-.6 1.2-.9 2.1-.9.7 0 1.3.2 1.8.6s.7.9.8 1.6h-.9c-.2-.9-.7-1.4-1.7-1.4-.6 0-1.1.2-1.4.7-.3.4-.5 1.1-.5 1.9v.6c0 .8.2 1.4.5 1.9s.9.7 1.5.7c.4 0 .7 0 .9-.1.3-.1.5-.2.7-.4V146h-1.6v-.8h2.6v2.6zM107.9 148.3c-.4.4-.9.6-1.5.6s-1-.2-1.3-.5c-.3-.3-.4-.8-.4-1.5v-3.4h.9v3.4c0 .8.3 1.2 1 1.2s1.1-.3 1.4-.8v-3.8h.9v5.3h-.9l-.1-.5zM113.4 148.8c-.1-.1-.1-.3-.1-.6-.4.4-.9.7-1.5.7-.5 0-.9-.1-1.3-.4-.3-.3-.5-.7-.5-1.1 0-.6.2-1 .6-1.3.4-.3 1-.5 1.8-.5h.9v-.4c0-.3-.1-.6-.3-.8s-.5-.3-.8-.3c-.3 0-.6.1-.8.2s-.3.4-.3.6h-.9c0-.3.1-.5.3-.8.2-.2.4-.4.8-.6.3-.1.7-.2 1.1-.2.6 0 1.1.2 1.4.5s.5.7.5 1.3v2.4c0 .5.1.9.2 1.2v.1h-1.1zm-1.5-.7c.3 0 .6-.1.8-.2s.4-.3.6-.6v-1.1h-.7c-1.1 0-1.7.3-1.7 1 0 .3.1.5.3.7s.4.2.7.2zM118.2 144.3h-.4c-.6 0-1 .3-1.2.8v3.8h-.9v-5.3h.9v.6c.3-.5.7-.7 1.3-.7.2 0 .3 0 .4.1v.7zM118.8 146.1c0-.8.2-1.5.6-2s.9-.7 1.5-.7 1.1.2 1.5.6v-2.8h.9v7.5h-.8v-.6c-.4.4-.9.7-1.5.7s-1.1-.3-1.5-.8c-.5-.4-.7-1-.7-1.9zm.9.1c0 .6.1 1.1.4 1.4s.6.5 1 .5c.6 0 1-.3 1.3-.8v-2.4c-.3-.5-.7-.7-1.2-.7-.4 0-.8.2-1 .5s-.5.8-.5 1.5zM127.6 148.8v-4.6h-.8v-.7h.8v-.5c0-.6.2-1 .5-1.3s.7-.5 1.3-.5c.2 0 .4 0 .6.1v.7h-.5c-.3 0-.5.1-.7.3s-.2.4-.2.7v.6h1.1v.7h-1.1v4.6h-1zM130.3 146.1c0-.5.1-1 .3-1.4.2-.4.5-.7.8-1 .4-.2.8-.3 1.2-.3.7 0 1.3.2 1.7.7.4.5.7 1.2.7 2v.1c0 .5-.1 1-.3 1.4-.2.4-.5.7-.8 1-.4.2-.8.3-1.3.3-.7 0-1.3-.2-1.7-.7-.3-.6-.6-1.2-.6-2.1zm.9.1c0 .6.1 1.1.4 1.4.3.4.6.5 1.1.5.5 0 .8-.2 1.1-.5s.4-.9.4-1.5-.1-1-.4-1.4c-.3-.4-.6-.5-1.1-.5-.4 0-.8.2-1.1.5s-.4.8-.4 1.5zM138.8 144.3h-.4c-.6 0-1 .3-1.2.8v3.8h-.9v-5.3h.9v.6c.3-.5.7-.7 1.3-.7.2 0 .3 0 .4.1v.7zM37.2 160.8h-4.7v-.6l2.5-2.7c.4-.4.6-.7.8-1 .1-.3.2-.5.2-.8 0-.4-.1-.7-.3-.9s-.5-.4-.9-.4-.8.1-1 .4c-.2.3-.4.6-.4 1.1h-.9c0-.7.2-1.2.6-1.6.4-.4 1-.6 1.7-.6s1.2.2 1.6.5.6.8.6 1.4c0 .7-.4 1.5-1.3 2.5l-1.9 2.1h3.6v.6zM42 158.4h1v.7h-1v1.7h-.9v-1.7h-3.2v-.5l3.2-4.9h1v4.7zm-3.2 0H41v-3.5l-.1.2-2.1 3.3zM44 161.4h-.8l3-7.7h.8l-3 7.7zM52.5 154.2l-2.9 6.6h-.9l2.9-6.4h-3.8v-.7h4.8v.5zM58.2 160.1c.3 0 .6-.1.8-.3s.4-.4.4-.7h.9c0 .3-.1.6-.3.9s-.4.5-.8.7c-.3.2-.7.2-1 .2-.7 0-1.3-.2-1.7-.7-.4-.5-.6-1.1-.6-2v-.2c0-.5.1-1 .3-1.4s.5-.7.8-.9c.4-.2.8-.3 1.3-.3.6 0 1.1.2 1.5.5.4.4.6.8.6 1.4h-.9c0-.3-.2-.6-.4-.8-.2-.2-.5-.3-.9-.3-.5 0-.8.2-1.1.5-.3.3-.4.8-.4 1.4v.2c0 .6.1 1.1.4 1.4s.6.4 1.1.4zM63.9 156.3h-.4c-.6 0-1 .3-1.2.8v3.8h-.9v-5.3h.9v.6c.3-.5.7-.7 1.3-.7.2 0 .3 0 .4.1v.7zM66.9 160.9c-.7 0-1.3-.2-1.7-.7s-.7-1.1-.7-1.9v-.2c0-.5.1-1 .3-1.4.2-.4.5-.7.8-1 .4-.2.8-.3 1.2-.3.7 0 1.2.2 1.6.7s.6 1.1.6 1.9v.4h-3.6c0 .5.2.9.5 1.3.3.3.7.5 1.1.5.3 0 .6-.1.8-.2s.4-.3.6-.5l.6.4c-.6.6-1.2 1-2.1 1zm-.1-4.8c-.4 0-.7.1-.9.4s-.4.6-.5 1.1H68v-.1c0-.5-.1-.8-.4-1.1s-.5-.3-.8-.3zM69.8 158.1c0-.8.2-1.5.6-2s.9-.7 1.5-.7 1.1.2 1.5.6v-2.8h.9v7.5h-.8v-.6c-.4.4-.9.7-1.5.7s-1.1-.3-1.5-.8c-.5-.4-.7-1-.7-1.9zm.9.1c0 .6.1 1.1.4 1.4s.6.5 1 .5c.6 0 1-.3 1.3-.8v-2.4c-.3-.5-.7-.7-1.2-.7-.4 0-.8.2-1 .5s-.5.8-.5 1.5zM75.6 154.1c0-.1 0-.3.1-.4.1-.1.2-.2.4-.2s.3.1.4.2.1.2.1.4 0 .3-.1.4-.2.1-.4.1-.3 0-.4-.1c0-.1-.1-.3-.1-.4zm1 6.7h-.9v-5.3h.9v5.3zM79.3 154.2v1.3h1v.7h-1v3.3c0 .2 0 .4.1.5s.2.2.4.2c.1 0 .2 0 .4-.1v.7c-.2.1-.5.1-.7.1-.4 0-.7-.1-.9-.4s-.3-.6-.3-1v-3.3h-1v-.7h1v-1.3h1zM84.6 155.5v.6c.4-.5.9-.7 1.6-.7.7 0 1.2.3 1.5.8.2-.3.4-.5.7-.6.3-.2.6-.2 1-.2 1.2 0 1.7.6 1.8 1.8v3.5h-.9v-3.5c0-.4-.1-.7-.3-.8s-.5-.3-.9-.3c-.3 0-.6.1-.8.3s-.3.5-.4.8v3.5H87v-3.5c0-.8-.4-1.2-1.1-1.2-.6 0-1 .3-1.2.8v3.9h-.9v-5.3h.8zM92.3 158.1c0-.5.1-1 .3-1.4.2-.4.5-.7.8-1 .4-.2.8-.3 1.2-.3.7 0 1.3.2 1.7.7.4.5.7 1.2.7 2v.1c0 .5-.1 1-.3 1.4-.2.4-.5.7-.8 1-.4.2-.8.3-1.3.3-.7 0-1.3-.2-1.7-.7-.4-.6-.6-1.2-.6-2.1zm.9.1c0 .6.1 1.1.4 1.4.3.4.6.5 1.1.5.5 0 .8-.2 1.1-.5s.4-.9.4-1.5-.1-1-.4-1.4c-.3-.4-.6-.5-1.1-.5-.4 0-.8.2-1.1.5s-.4.8-.4 1.5zM99.1 155.5v.7c.4-.5.9-.8 1.6-.8 1.1 0 1.7.6 1.7 1.9v3.5h-.9v-3.5c0-.4-.1-.7-.3-.8-.2-.2-.4-.3-.8-.3-.3 0-.5.1-.8.2s-.4.4-.5.6v3.8h-.9v-5.3h.9zM103.8 154.1c0-.1 0-.3.1-.4.1-.1.2-.2.4-.2s.3.1.4.2.1.2.1.4 0 .3-.1.4-.2.1-.4.1-.3 0-.4-.1c-.1-.1-.1-.3-.1-.4zm1 6.7h-.9v-5.3h.9v5.3zM107.4 154.2v1.3h1v.7h-1v3.3c0 .2 0 .4.1.5s.2.2.4.2c.1 0 .2 0 .4-.1v.7c-.2.1-.5.1-.7.1-.4 0-.7-.1-.9-.4s-.3-.6-.3-1v-3.3h-1v-.7h1v-1.3h1zM109.1 158.1c0-.5.1-1 .3-1.4.2-.4.5-.7.8-1 .4-.2.8-.3 1.2-.3.7 0 1.3.2 1.7.7.4.5.7 1.2.7 2v.1c0 .5-.1 1-.3 1.4-.2.4-.5.7-.8 1-.4.2-.8.3-1.3.3-.7 0-1.3-.2-1.7-.7-.3-.6-.6-1.2-.6-2.1zm.9.1c0 .6.1 1.1.4 1.4.3.4.6.5 1.1.5.5 0 .8-.2 1.1-.5s.4-.9.4-1.5-.1-1-.4-1.4c-.3-.4-.6-.5-1.1-.5-.4 0-.8.2-1.1.5s-.4.8-.4 1.5zM117.6 156.3h-.4c-.6 0-1 .3-1.2.8v3.8h-.9v-5.3h.9v.6c.3-.5.7-.7 1.3-.7.2 0 .3 0 .4.1v.7zM118.5 154.1c0-.1 0-.3.1-.4.1-.1.2-.2.4-.2s.3.1.4.2.1.2.1.4 0 .3-.1.4-.2.1-.4.1-.3 0-.4-.1c-.1-.1-.1-.3-.1-.4zm.9 6.7h-.9v-5.3h.9v5.3zM121.7 155.5v.7c.4-.5.9-.8 1.6-.8 1.1 0 1.7.6 1.7 1.9v3.5h-.9v-3.5c0-.4-.1-.7-.3-.8-.2-.2-.4-.3-.8-.3-.3 0-.5.1-.8.2s-.4.4-.5.6v3.8h-.9v-5.3h.9zM126.2 158.1c0-.8.2-1.5.6-2s.9-.7 1.5-.7 1.1.2 1.5.7v-.6h.8v5.2c0 .7-.2 1.2-.6 1.6-.4.4-1 .6-1.6.6-.4 0-.8-.1-1.1-.2s-.6-.4-.8-.7l.5-.5c.4.5.9.7 1.4.7.4 0 .8-.1 1-.4.2-.2.4-.6.4-1v-.5c-.4.4-.9.6-1.5.6s-1.1-.2-1.5-.7c-.4-.6-.6-1.2-.6-2.1zm.9.1c0 .6.1 1.1.4 1.4s.6.5 1 .5c.6 0 1-.3 1.3-.8v-2.4c-.3-.5-.7-.8-1.2-.8-.4 0-.8.2-1 .5s-.5.9-.5 1.6zM132 160.3c0-.2 0-.3.1-.4.1-.1.2-.2.4-.2s.3.1.4.2c.1.1.1.2.1.4 0 .1 0 .3-.1.4-.1.1-.2.2-.4.2s-.3-.1-.4-.2c0-.1-.1-.2-.1-.4z"/></svg>