<svg id="Layer_1" xmlns="http://www.w3.org/2000/svg" viewBox="0 0 728 90"><style>.st0{fill:#021d8b}</style><path class="st0" d="M421.01 40.12l1.34-7.33h2.79l-2.48 11.68h-2.92l-1.56-6.66-1.53 6.66h-2.91l-2.49-11.68h2.8l1.34 7.33 1.6-7.33h2.39l1.63 7.33zM430.07 44.63c-1.33 0-2.41-.4-3.23-1.19-.82-.79-1.24-1.83-1.24-3.1v-.22c0-.89.16-1.67.49-2.35.33-.68.81-1.2 1.44-1.58.63-.37 1.38-.56 2.25-.56 1.22 0 2.18.38 2.89 1.14s1.06 1.81 1.06 3.17v1.05h-5.38c.1.49.31.87.63 1.15.33.28.75.42 1.27.42.86 0 1.52-.3 2.01-.9l1.24 1.46c-.34.47-.81.84-1.43 1.11-.63.27-1.29.4-2 .4zm-.31-6.91c-.79 0-1.26.52-1.41 1.57h2.73v-.21c.01-.43-.1-.77-.33-1.01s-.56-.35-.99-.35zM436.21 33.45l-.26 3.31h-1.66v-4.61h1.93v1.3zM440.09 44.47h-2.71V32.15h2.71v12.32zM444.61 44.47h-2.71V32.15h2.71v12.32zM452.92 35.79l.09 1.02c.62-.79 1.44-1.18 2.48-1.18 1.1 0 1.84.44 2.22 1.31.59-.87 1.44-1.31 2.55-1.31 1.76 0 2.66 1.06 2.71 3.19v5.65h-2.71v-5.48c0-.44-.07-.77-.22-.97-.15-.2-.42-.3-.82-.3-.54 0-.93.24-1.2.71l.01.11v5.93h-2.71v-5.46c0-.45-.07-.78-.22-.99-.14-.2-.42-.3-.83-.3-.52 0-.91.24-1.19.71v6.04h-2.7v-8.68h2.54zM464.18 40.05c0-.87.17-1.64.51-2.31s.82-1.2 1.45-1.56c.63-.36 1.37-.55 2.22-.55 1.3 0 2.32.4 3.07 1.21.75.81 1.12 1.9 1.12 3.29v.1c0 1.35-.38 2.43-1.13 3.22-.75.79-1.77 1.19-3.05 1.19-1.24 0-2.23-.37-2.98-1.11s-1.15-1.75-1.21-3.01v-.47zm2.7.17c0 .8.13 1.39.38 1.77.25.37.62.56 1.12.56.96 0 1.45-.74 1.48-2.22v-.27c0-1.56-.5-2.33-1.49-2.33-.9 0-1.39.67-1.47 2.01l-.02.48zM476.23 35.79l.09 1.02c.6-.79 1.43-1.18 2.48-1.18.9 0 1.58.27 2.03.81.45.54.68 1.35.69 2.44v5.59h-2.71v-5.48c0-.44-.09-.76-.26-.97-.18-.21-.5-.31-.96-.31-.53 0-.92.21-1.18.63v6.13h-2.7v-8.68h2.52zM482.99 33.55c0-.39.14-.7.42-.95.28-.25.64-.37 1.08-.37s.8.12 1.08.37.42.56.42.95c0 .39-.14.7-.42.95-.28.25-.64.37-1.08.37s-.8-.12-1.08-.37-.42-.56-.42-.95zm2.87 10.92h-2.71v-8.68h2.71v8.68zM490.68 33.63v2.16h1.43v1.88h-1.43v3.97c0 .33.06.55.18.68s.35.19.7.19c.27 0 .49-.02.67-.05v1.93c-.49.16-.99.23-1.52.23-.93 0-1.62-.22-2.06-.66s-.67-1.1-.67-2v-4.31h-1.11v-1.88h1.11v-2.16h2.7zM492.59 40.05c0-.87.17-1.64.51-2.31s.82-1.2 1.45-1.56c.63-.36 1.37-.55 2.22-.55 1.3 0 2.32.4 3.07 1.21.75.81 1.12 1.9 1.12 3.29v.1c0 1.35-.38 2.43-1.13 3.22-.75.79-1.77 1.19-3.05 1.19-1.24 0-2.23-.37-2.98-1.11s-1.15-1.75-1.21-3.01v-.47zm2.7.17c0 .8.13 1.39.38 1.77.25.37.62.56 1.12.56.96 0 1.45-.74 1.48-2.22v-.27c0-1.56-.5-2.33-1.49-2.33-.9 0-1.39.67-1.47 2.01l-.02.48zM507.41 38.24l-.89-.06c-.85 0-1.4.27-1.64.8v5.5h-2.7V35.8h2.54l.09 1.12c.45-.85 1.09-1.28 1.9-1.28.29 0 .54.03.75.1l-.05 2.5zM515.95 40.69l1.44-4.89h2.9l-3.54 10.13-.15.37c-.5 1.12-1.39 1.68-2.66 1.68-.35 0-.72-.05-1.12-.16v-1.93h.35c.38 0 .67-.05.87-.16.2-.11.35-.31.45-.59l.22-.58-3.02-8.77h2.89l1.37 4.9zM520.53 40.05c0-.87.17-1.64.51-2.31.34-.68.82-1.2 1.45-1.56.63-.36 1.37-.55 2.22-.55 1.3 0 2.32.4 3.07 1.21.75.81 1.12 1.9 1.12 3.29v.1c0 1.35-.38 2.43-1.13 3.22-.75.79-1.77 1.19-3.05 1.19-1.24 0-2.23-.37-2.98-1.11-.75-.74-1.15-1.75-1.21-3.01v-.47zm2.7.17c0 .8.13 1.39.38 1.77.25.37.62.56 1.12.56.96 0 1.45-.74 1.48-2.22v-.27c0-1.56-.5-2.33-1.49-2.33-.9 0-1.39.67-1.47 2.01l-.02.48zM535.27 43.53c-.57.73-1.35 1.1-2.32 1.1-.95 0-1.67-.28-2.16-.83-.49-.55-.73-1.35-.73-2.39v-5.62h2.7v5.64c0 .74.36 1.12 1.08 1.12.62 0 1.06-.22 1.32-.67v-6.09h2.72v8.68h-2.54l-.07-.94zM544.61 38.24l-.89-.06c-.85 0-1.4.27-1.64.8v5.5h-2.7V35.8h2.54l.09 1.12c.45-.85 1.09-1.28 1.9-1.28.29 0 .54.03.75.1l-.05 2.5z"/></svg>