<svg id="Layer_1" xmlns="http://www.w3.org/2000/svg" viewBox="0 0 728 90"><style>.st0{fill:#e82d8a}</style><path class="st0" d="M439.59 60.18c0 1.42-.29 2.52-.88 3.28s-1.42 1.15-2.49 1.15c-.88 0-1.59-.35-2.13-1.05l-.11.89h-2.42V52.12h2.7v4.34c.5-.57 1.15-.86 1.95-.86 1.08 0 1.92.39 2.5 1.16s.88 1.87.88 3.27v.15zm-2.71-.18c0-.83-.11-1.43-.33-1.78-.22-.35-.56-.53-1.02-.53-.61 0-1.03.23-1.27.7v3.44c.23.46.66.69 1.28.69.64 0 1.04-.31 1.21-.93.09-.3.13-.83.13-1.59zM445.67 64.44c-.1-.18-.18-.44-.26-.78-.5.63-1.19.94-2.09.94-.82 0-1.51-.25-2.09-.74-.57-.49-.86-1.12-.86-1.87 0-.94.35-1.65 1.04-2.13s1.71-.72 3.03-.72h.83v-.46c0-.8-.35-1.2-1.04-1.2-.64 0-.96.32-.96.95h-2.7c0-.84.36-1.52 1.07-2.04.71-.52 1.63-.79 2.73-.79 1.11 0 1.98.27 2.62.81.64.54.97 1.28.99 2.22v3.84c.01.8.13 1.41.37 1.83v.14h-2.68zm-1.69-1.76c.34 0 .62-.07.84-.22.22-.14.38-.31.48-.49v-1.39h-.79c-.94 0-1.41.42-1.41 1.27 0 .25.08.45.25.6.16.15.37.23.63.23zM451.99 55.76l.09 1.02c.6-.79 1.43-1.18 2.48-1.18.9 0 1.58.27 2.03.81.45.54.68 1.35.69 2.44v5.59h-2.71v-5.48c0-.44-.09-.76-.26-.97s-.5-.31-.96-.31c-.53 0-.92.21-1.18.63v6.13h-2.7v-8.68h2.52zM462.26 61.21l-.76.76v2.47h-2.7V52.11h2.7v6.55l.27-.36 2.04-2.54h3.24l-3.04 3.57 3.24 5.11h-3.1l-1.89-3.23zM476.74 64.44c-.1-.18-.18-.44-.26-.78-.5.63-1.19.94-2.09.94-.82 0-1.51-.25-2.09-.74-.57-.49-.86-1.12-.86-1.87 0-.94.35-1.65 1.04-2.13.7-.48 1.71-.72 3.03-.72h.83v-.46c0-.8-.35-1.2-1.04-1.2-.64 0-.96.32-.96.95h-2.7c0-.84.36-1.52 1.07-2.04.71-.52 1.63-.79 2.73-.79s1.98.27 2.62.81c.64.54.97 1.28.99 2.22v3.84c.01.8.13 1.41.37 1.83v.14h-2.68zm-1.69-1.76c.34 0 .62-.07.84-.22.22-.14.38-.31.48-.49v-1.39h-.79c-.94 0-1.41.42-1.41 1.27 0 .25.08.45.25.6.16.15.37.23.63.23zM484.24 62.52c.38 0 .67-.1.88-.31s.31-.49.3-.86h2.54c0 .95-.34 1.73-1.02 2.34-.68.61-1.56.91-2.64.91-1.26 0-2.26-.4-2.98-1.19-.73-.79-1.09-1.89-1.09-3.29v-.11c0-.88.16-1.65.49-2.32.32-.67.79-1.19 1.4-1.55s1.33-.54 2.17-.54c1.13 0 2.02.31 2.69.94.66.63.99 1.47.99 2.54h-2.54c0-.45-.11-.79-.33-1.04s-.51-.36-.88-.36c-.7 0-1.11.45-1.23 1.34-.04.28-.06.67-.06 1.17 0 .87.1 1.48.31 1.81s.55.52 1 .52zM492.78 62.52c.38 0 .67-.1.88-.31s.31-.49.3-.86h2.54c0 .95-.34 1.73-1.02 2.34-.68.61-1.56.91-2.64.91-1.26 0-2.26-.4-2.98-1.19-.73-.79-1.09-1.89-1.09-3.29v-.11c0-.88.16-1.65.49-2.32.32-.67.79-1.19 1.4-1.55.61-.36 1.33-.54 2.17-.54 1.13 0 2.02.31 2.69.94.66.63.99 1.47.99 2.54h-2.54c0-.45-.11-.79-.33-1.04s-.51-.36-.88-.36c-.7 0-1.11.45-1.23 1.34-.04.28-.06.67-.06 1.17 0 .87.1 1.48.31 1.81s.55.52 1 .52zM497.31 60.02c0-.87.17-1.64.51-2.31.34-.68.82-1.2 1.45-1.56.63-.36 1.37-.55 2.22-.55 1.3 0 2.32.4 3.07 1.21.75.81 1.12 1.9 1.12 3.29v.1c0 1.35-.38 2.43-1.13 3.22-.75.79-1.77 1.19-3.05 1.19-1.24 0-2.23-.37-2.98-1.11-.75-.74-1.15-1.75-1.21-3.01v-.47zm2.7.17c0 .8.13 1.39.38 1.77.25.37.62.56 1.12.56.96 0 1.45-.74 1.48-2.22v-.27c0-1.56-.5-2.33-1.49-2.33-.9 0-1.39.67-1.47 2.01l-.02.48zM512.05 63.51c-.57.73-1.35 1.1-2.32 1.1-.95 0-1.67-.28-2.16-.83-.49-.55-.73-1.35-.73-2.39v-5.62h2.7v5.64c0 .74.36 1.12 1.08 1.12.62 0 1.06-.22 1.32-.67v-6.09h2.72v8.68h-2.54l-.07-.94zM518.62 55.76l.09 1.02c.6-.79 1.43-1.18 2.48-1.18.9 0 1.58.27 2.03.81.45.54.68 1.35.69 2.44v5.59h-2.71v-5.48c0-.44-.09-.76-.26-.97s-.5-.31-.96-.31c-.53 0-.92.21-1.18.63v6.13h-2.7v-8.68h2.52zM528.56 53.6v2.16h1.43v1.88h-1.43v3.97c0 .33.06.55.18.68s.35.19.7.19c.27 0 .49-.02.67-.05v1.93c-.49.16-.99.23-1.52.23-.93 0-1.62-.22-2.06-.66-.44-.44-.67-1.1-.67-2v-4.31h-1.11v-1.88h1.11V53.6h2.7zM535.59 62.01c0-.23-.12-.41-.36-.55-.24-.14-.7-.28-1.37-.43s-1.23-.35-1.67-.59c-.44-.24-.77-.54-1-.89-.23-.35-.34-.75-.34-1.2 0-.8.33-1.45.99-1.97.66-.52 1.52-.77 2.58-.77 1.14 0 2.06.26 2.76.78.7.52 1.04 1.2 1.04 2.05h-2.71c0-.7-.37-1.04-1.1-1.04-.28 0-.52.08-.71.24-.19.16-.29.35-.29.59s.12.44.35.59c.24.15.61.27 1.13.37.52.1.97.21 1.36.35 1.31.45 1.96 1.25 1.96 2.42 0 .79-.35 1.44-1.06 1.93-.7.5-1.61.75-2.73.75-.74 0-1.41-.13-1.99-.4-.58-.27-1.04-.63-1.36-1.09-.33-.46-.49-.94-.49-1.45h2.53c.01.4.14.69.4.88.26.18.59.28.99.28.37 0 .65-.07.83-.22.17-.2.26-.39.26-.63z"/></svg>