<svg id="Layer_1" xmlns="http://www.w3.org/2000/svg" viewBox="0 0 728 90"><style>.st0{fill:#021d8b}</style><path class="st0" d="M498.19 35.02c0-.22-.08-.4-.23-.55-.15-.15-.41-.28-.77-.4-.5-.15-.87-.35-1.1-.6-.23-.25-.34-.56-.34-.94 0-.39.11-.7.34-.95.23-.25.54-.4.93-.44v-.78h.53v.78c.4.05.71.22.93.5.22.28.33.66.33 1.14h-.65c0-.33-.08-.6-.24-.8-.16-.2-.37-.29-.64-.29-.28 0-.5.07-.64.22-.15.15-.22.35-.22.61 0 .24.08.43.24.58s.42.27.78.39.64.25.84.39.35.3.45.49c.1.19.14.41.14.66 0 .4-.12.72-.36.96s-.58.39-1.01.43v.68h-.52v-.68c-.44-.04-.78-.2-1.03-.47-.25-.27-.37-.64-.37-1.11h.66c0 .33.09.58.26.76.17.18.42.27.73.27s.55-.07.73-.22c.14-.17.23-.37.23-.63zM501.81 36.35h-.66v-4.37l-1.32.49v-.59l1.88-.7h.1v5.17zM506.48 31.59v.93h.71v.51h-.71v2.38c0 .15.03.27.1.35.06.08.17.11.33.11.08 0 .18-.01.31-.04v.53c-.17.05-.34.07-.5.07-.29 0-.51-.09-.66-.27-.15-.18-.22-.43-.22-.75v-2.38h-.7v-.51h.7v-.93h.64zM509.82 33.1c-.1-.02-.21-.02-.32-.02-.43 0-.72.18-.88.55v2.72h-.65v-3.83h.64l.01.44c.21-.34.52-.51.91-.51.13 0 .22.02.29.05v.6zM510.42 31.5c0-.11.03-.2.1-.27.06-.07.16-.11.29-.11.13 0 .22.04.29.11.07.07.1.16.1.27 0 .11-.03.19-.1.27-.07.07-.16.11-.29.11-.13 0-.22-.04-.29-.11a.362.362 0 0 1-.1-.27zm.71 4.85h-.65v-3.83h.65v3.83zM514.54 36.35c-.04-.08-.07-.21-.09-.4-.3.32-.67.47-1.09.47-.38 0-.69-.11-.93-.32-.24-.21-.36-.48-.36-.81 0-.4.15-.71.46-.93.3-.22.73-.33 1.28-.33h.64v-.3c0-.23-.07-.41-.21-.55s-.34-.2-.61-.2c-.23 0-.43.06-.59.18-.16.12-.24.26-.24.43h-.66c0-.19.07-.38.2-.55s.32-.32.55-.42c.23-.1.49-.16.77-.16.44 0 .79.11 1.04.33.25.22.38.52.39.91v1.76c0 .35.04.63.13.84v.06h-.68zm-1.08-.5c.21 0 .4-.05.58-.16.18-.11.32-.24.4-.41v-.79h-.51c-.8 0-1.2.23-1.2.7 0 .21.07.37.21.48s.3.18.52.18zM516.83 36.35h-.65v-5.44h.65v5.44zM520 36.35v-3.33h-.61v-.51h.61v-.39c0-.41.11-.73.33-.95s.53-.34.93-.34c.15 0 .3.02.45.06l-.04.53c-.11-.02-.23-.03-.35-.03-.21 0-.38.06-.49.19-.12.12-.17.3-.17.53v.4h.82v.51h-.82v3.33H520zM522.02 34.4c0-.38.07-.71.22-1.01.15-.3.35-.53.62-.69.26-.16.56-.24.9-.24.52 0 .94.18 1.27.54s.48.84.48 1.44v.05c0 .37-.07.71-.21 1-.14.3-.35.53-.61.69-.27.17-.57.25-.92.25-.52 0-.94-.18-1.26-.54-.32-.36-.48-.84-.48-1.43v-.06zm.66.08c0 .42.1.77.3 1.02s.46.39.79.39.6-.13.79-.39c.2-.26.29-.63.29-1.1 0-.42-.1-.76-.3-1.02a.945.945 0 0 0-.79-.39c-.32 0-.58.13-.78.39s-.3.62-.3 1.1zM528.18 33.1c-.1-.02-.21-.02-.32-.02-.43 0-.72.18-.88.55v2.72h-.65v-3.83h.64l.01.44c.21-.34.52-.51.91-.51.13 0 .22.02.29.05v.6zM531.47 31.59v.93h.71v.51h-.71v2.38c0 .15.03.27.1.35.06.08.17.11.33.11.08 0 .18-.01.31-.04v.53c-.17.05-.34.07-.5.07-.29 0-.51-.09-.66-.27-.15-.18-.22-.43-.22-.75v-2.38h-.7v-.51h.7v-.93h.64zM533.6 32.98c.29-.36.67-.53 1.13-.53.81 0 1.22.46 1.22 1.37v2.53h-.65v-2.54c0-.28-.07-.48-.19-.61s-.32-.2-.58-.2c-.21 0-.4.06-.56.17-.16.11-.29.26-.38.45v2.73h-.65v-5.44h.65v2.07zM538.53 36.42c-.52 0-.94-.17-1.27-.51-.33-.34-.49-.8-.49-1.37v-.12c0-.38.07-.72.22-1.02.15-.3.35-.53.61-.7s.54-.25.85-.25c.5 0 .89.16 1.16.49.28.33.41.8.41 1.41v.27h-2.6c.01.38.12.68.33.92s.48.35.81.35c.23 0 .43-.05.59-.14.16-.09.3-.22.42-.38l.4.31c-.31.49-.8.74-1.44.74zm-.08-3.44a.9.9 0 0 0-.67.29c-.18.19-.29.46-.33.81h1.92v-.05c-.02-.33-.11-.59-.27-.77a.838.838 0 0 0-.65-.28zM542.9 36.35v-3.33h-.61v-.51h.61v-.39c0-.41.11-.73.33-.95s.53-.34.93-.34c.15 0 .3.02.45.06l-.04.53c-.11-.02-.23-.03-.35-.03-.21 0-.38.06-.49.19-.12.12-.17.3-.17.53v.4h.82v.51h-.82v3.33h-.66zM545.1 31.5c0-.11.03-.2.1-.27.06-.07.16-.11.29-.11.13 0 .22.04.29.11.07.07.1.16.1.27 0 .11-.03.19-.1.27-.07.07-.16.11-.29.11-.13 0-.22-.04-.29-.11a.362.362 0 0 1-.1-.27zm.71 4.85h-.65v-3.83h.65v3.83zM548.71 33.1c-.1-.02-.21-.02-.32-.02-.43 0-.72.18-.88.55v2.72h-.65v-3.83h.64l.01.44c.21-.34.52-.51.91-.51.13 0 .22.02.29.05v.6zM551.54 35.33c0-.18-.07-.31-.2-.41-.13-.1-.37-.18-.7-.25-.33-.07-.59-.16-.79-.25-.19-.1-.34-.22-.43-.35a.881.881 0 0 1-.14-.49c0-.31.13-.58.4-.8.26-.22.6-.33 1.02-.33.43 0 .79.11 1.06.34.27.22.41.51.41.86h-.66c0-.18-.08-.33-.23-.46s-.34-.19-.58-.19c-.24 0-.42.05-.56.16s-.2.24-.2.41c0 .16.06.28.19.36.12.08.35.16.68.23.33.07.59.16.79.26s.35.22.45.37c.1.14.15.32.15.52 0 .34-.14.62-.41.82-.27.21-.63.31-1.07.31-.31 0-.58-.05-.81-.16-.24-.11-.42-.26-.55-.45-.13-.19-.2-.41-.2-.63h.66c.01.22.1.39.26.52s.38.19.65.19c.25 0 .45-.05.6-.15.14-.13.21-.26.21-.43zM553.94 31.59v.93h.71v.51h-.71v2.38c0 .15.03.27.1.35.06.08.17.11.33.11.08 0 .18-.01.31-.04v.53c-.17.05-.34.07-.5.07-.29 0-.51-.09-.66-.27-.15-.18-.22-.43-.22-.75v-2.38h-.7v-.51h.7v-.93h.64zM559.68 36.35h-1.2v-3.81l-1.18.34v-.91l2.26-.78h.11v5.16zM564.38 34.33h.52v.92h-.52v1.09h-1.19v-1.09h-1.99l-.07-.73 2.06-3.32v-.01h1.19v3.14zm-2.12 0h.93v-1.59l-.07.12-.86 1.47zM567.11 34.4c0-.61.13-1.08.39-1.43.26-.35.63-.52 1.1-.52.34 0 .63.13.86.4v-1.94h1.2v5.44h-1.07l-.06-.41c-.25.32-.56.48-.93.48-.46 0-.82-.17-1.08-.52-.28-.35-.41-.85-.41-1.5zm1.19.08c0 .68.2 1.02.6 1.02.26 0 .45-.11.57-.33v-1.46c-.11-.23-.29-.34-.56-.34-.37 0-.57.3-.6.89l-.01.22zM573.5 36.35c-.04-.08-.08-.19-.11-.34-.22.28-.53.41-.92.41-.36 0-.67-.11-.92-.33s-.38-.49-.38-.82c0-.42.15-.73.46-.94.31-.21.75-.32 1.34-.32h.37v-.2c0-.35-.15-.53-.46-.53-.28 0-.42.14-.42.42h-1.19c0-.37.16-.67.47-.9.31-.23.72-.35 1.21-.35s.88.12 1.16.36.43.57.44.98v1.7c0 .35.06.62.16.81v.06h-1.21zm-.75-.78c.15 0 .27-.03.37-.1.1-.06.17-.14.21-.22v-.61h-.35c-.42 0-.62.19-.62.56 0 .11.04.2.11.26s.17.11.28.11zM576.72 34.68l.64-2.16h1.28l-1.56 4.47-.08.16c-.22.5-.61.74-1.18.74-.16 0-.32-.02-.49-.07v-.85h.16c.17 0 .3-.02.38-.07.09-.05.15-.14.2-.26l.1-.25-1.33-3.87h1.28l.6 2.16zM580.95 35.27c0-.1-.05-.18-.16-.24s-.31-.12-.61-.19-.54-.15-.74-.26c-.19-.11-.34-.24-.44-.39s-.15-.33-.15-.53c0-.35.15-.64.44-.87.29-.23.67-.34 1.14-.34.5 0 .91.11 1.22.34s.46.53.46.9h-1.2c0-.31-.16-.46-.49-.46-.12 0-.23.04-.32.1-.08.07-.13.16-.13.26 0 .11.05.19.16.26.1.07.27.12.5.16s.43.09.6.15c.58.2.86.55.86 1.07 0 .35-.16.63-.47.85-.31.22-.71.33-1.21.33-.33 0-.62-.06-.88-.18s-.46-.28-.6-.48c-.14-.2-.22-.42-.22-.64h1.12c0 .18.06.31.18.39.11.08.26.12.44.12.16 0 .29-.03.37-.1.09-.06.13-.14.13-.25zM582.8 37.38l-.37-.25c.22-.31.34-.63.35-.96v-.59h.64v.51c0 .24-.06.48-.18.72-.12.23-.27.42-.44.57zM496.44 45.78v2.02h-.68v-5.16h1.9c.56 0 1.01.14 1.33.43.32.29.48.67.48 1.14 0 .5-.16.89-.47 1.16-.31.27-.76.41-1.34.41h-1.22zm0-.56h1.22c.36 0 .64-.09.84-.26.19-.17.29-.42.29-.74 0-.31-.1-.55-.29-.74-.19-.18-.46-.28-.8-.29h-1.26v2.03zM500.94 47.8h-.65v-5.44h.65v5.44zM504.36 47.8c-.04-.08-.07-.21-.09-.4-.3.32-.67.47-1.09.47-.38 0-.69-.11-.93-.32-.24-.21-.36-.48-.36-.81 0-.4.15-.71.46-.93.3-.22.73-.33 1.28-.33h.64v-.3c0-.23-.07-.41-.21-.55s-.34-.2-.61-.2c-.23 0-.43.06-.59.18-.16.12-.24.26-.24.43h-.66c0-.19.07-.38.2-.55s.32-.32.55-.42c.23-.1.49-.16.77-.16.44 0 .79.11 1.04.33.25.22.38.52.39.91v1.76c0 .35.04.63.13.84v.06h-.68zm-1.09-.5c.21 0 .4-.05.58-.16.18-.11.32-.24.4-.41v-.79h-.51c-.8 0-1.2.23-1.2.71 0 .21.07.37.21.48.13.11.3.17.52.17zM506.55 43.96l.02.48c.29-.37.67-.55 1.15-.55.81 0 1.22.46 1.22 1.37v2.53h-.65v-2.54c0-.28-.07-.48-.19-.61s-.32-.2-.58-.2c-.21 0-.4.06-.56.17-.16.11-.29.26-.38.45v2.73h-.65v-3.83h.62zM512.17 46.78c0-.18-.07-.31-.2-.41-.13-.1-.37-.18-.7-.25-.33-.07-.59-.16-.79-.25-.19-.1-.34-.22-.43-.35a.881.881 0 0 1-.14-.49c0-.31.13-.58.4-.8.26-.22.6-.33 1.02-.33.43 0 .79.11 1.06.34.27.22.41.51.41.86h-.66c0-.18-.08-.33-.23-.46s-.34-.19-.58-.19c-.24 0-.42.05-.56.16s-.2.24-.2.41c0 .16.06.28.19.36.12.08.35.16.68.23.33.07.59.16.79.26s.35.22.45.37c.1.14.15.32.15.52 0 .34-.14.62-.41.82-.27.21-.63.31-1.07.31-.31 0-.58-.05-.81-.16-.24-.11-.42-.26-.55-.45-.13-.2-.2-.41-.2-.63h.66c.01.22.1.39.26.52s.38.19.65.19c.25 0 .45-.05.6-.15.13-.13.21-.26.21-.43zM517.7 46.78c0-.18-.07-.31-.2-.41-.13-.1-.37-.18-.7-.25-.33-.07-.59-.16-.79-.25-.19-.1-.34-.22-.43-.35a.881.881 0 0 1-.14-.49c0-.31.13-.58.4-.8.26-.22.6-.33 1.02-.33.43 0 .79.11 1.06.34.27.22.41.51.41.86h-.66c0-.18-.08-.33-.23-.46s-.34-.19-.58-.19c-.24 0-.42.05-.56.16s-.2.24-.2.41c0 .16.06.28.19.36.12.08.35.16.68.23.33.07.59.16.79.26s.35.22.45.37c.1.14.15.32.15.52 0 .34-.14.62-.41.82-.27.21-.63.31-1.07.31-.31 0-.58-.05-.81-.16-.24-.11-.42-.26-.55-.45-.13-.2-.2-.41-.2-.63h.66c.01.22.1.39.26.52s.38.19.65.19c.25 0 .45-.05.6-.15.14-.13.21-.26.21-.43zM520.1 43.04v.93h.71v.51h-.71v2.38c0 .15.03.27.1.35.06.08.17.11.33.11.08 0 .18-.01.31-.04v.53c-.17.05-.34.07-.5.07-.29 0-.51-.09-.66-.27-.15-.18-.22-.43-.22-.75v-2.38h-.7v-.51h.7v-.93h.64zM523.94 47.8c-.04-.08-.07-.21-.09-.4-.3.32-.67.47-1.09.47-.38 0-.69-.11-.93-.32-.24-.21-.36-.48-.36-.81 0-.4.15-.71.46-.93.3-.22.73-.33 1.28-.33h.64v-.3c0-.23-.07-.41-.21-.55s-.34-.2-.61-.2c-.23 0-.43.06-.59.18-.16.12-.24.26-.24.43h-.66c0-.19.07-.38.2-.55s.32-.32.55-.42c.23-.1.49-.16.77-.16.44 0 .79.11 1.04.33.25.22.38.52.39.91v1.76c0 .35.04.63.13.84v.06h-.68zm-1.08-.5c.21 0 .4-.05.58-.16.18-.11.32-.24.4-.41v-.79h-.51c-.8 0-1.2.23-1.2.71 0 .21.07.37.21.48.12.11.3.17.52.17zM527.38 44.55c-.1-.02-.21-.02-.32-.02-.43 0-.72.18-.88.55v2.72h-.65v-3.83h.64l.01.44c.21-.34.52-.51.91-.51.13 0 .22.02.29.05v.6zM529.04 43.04v.93h.71v.51h-.71v2.38c0 .15.03.27.1.35.06.08.17.11.33.11.08 0 .18-.01.31-.04v.53c-.17.05-.34.07-.5.07-.29 0-.51-.09-.66-.27-.15-.18-.22-.43-.22-.75v-2.38h-.7v-.51h.7v-.93h.64zM530.53 42.95c0-.11.03-.2.1-.27.06-.07.16-.11.29-.11.13 0 .22.04.29.11.07.07.1.16.1.27 0 .11-.03.19-.1.27-.07.07-.16.11-.29.11-.13 0-.22-.04-.29-.11a.378.378 0 0 1-.1-.27zm.7 4.85h-.65v-3.83h.65v3.83zM532.9 43.96l.02.48c.29-.37.67-.55 1.15-.55.81 0 1.22.46 1.22 1.37v2.53h-.65v-2.54c0-.28-.07-.48-.19-.61s-.32-.2-.58-.2c-.21 0-.4.06-.56.17-.16.11-.29.26-.38.45v2.73h-.65v-3.83h.62zM536.13 45.85c0-.6.14-1.07.41-1.42.28-.35.64-.53 1.1-.53.47 0 .83.17 1.09.5l.03-.43h.6v3.74c0 .5-.15.89-.44 1.17-.29.29-.69.43-1.18.43-.28 0-.55-.06-.81-.18s-.47-.28-.61-.49l.34-.39c.28.35.62.52 1.03.52.32 0 .57-.09.75-.27.18-.18.27-.43.27-.76v-.33c-.26.3-.62.45-1.07.45-.45 0-.81-.18-1.09-.54-.28-.36-.42-.85-.42-1.47zm.66.07c0 .43.09.77.26 1.02.18.25.43.37.74.37.41 0 .72-.19.91-.56V45c-.2-.37-.5-.55-.9-.55-.32 0-.57.12-.75.37-.17.25-.26.62-.26 1.1zM544.51 47.8c-.04-.08-.07-.21-.09-.4-.3.32-.67.47-1.09.47-.38 0-.69-.11-.93-.32-.24-.21-.36-.48-.36-.81 0-.4.15-.71.46-.93.3-.22.73-.33 1.28-.33h.64v-.3c0-.23-.07-.41-.21-.55s-.34-.2-.61-.2c-.23 0-.43.06-.59.18-.16.12-.24.26-.24.43h-.66c0-.19.07-.38.2-.55s.32-.32.55-.42c.23-.1.49-.16.77-.16.44 0 .79.11 1.04.33.25.22.38.52.39.91v1.76c0 .35.04.63.13.84v.06h-.68zm-1.08-.5c.21 0 .4-.05.58-.16.18-.11.32-.24.4-.41v-.79h-.51c-.8 0-1.2.23-1.2.71 0 .21.07.37.21.48.12.11.3.17.52.17zM546.98 43.04v.93h.71v.51h-.71v2.38c0 .15.03.27.1.35.06.08.17.11.33.11.08 0 .18-.01.31-.04v.53c-.17.05-.34.07-.5.07-.29 0-.51-.09-.66-.27-.15-.18-.22-.43-.22-.75v-2.38h-.7v-.51h.7v-.93h.64zM552.45 46.43c0-.19-.05-.33-.14-.44-.09-.11-.25-.21-.48-.3-.23-.09-.45-.19-.64-.29-.2-.1-.36-.21-.51-.34s-.25-.27-.33-.44c-.08-.17-.11-.37-.11-.61 0-.4.13-.73.4-.99s.63-.41 1.08-.45v-.75h.56v.76c.43.06.77.24 1.02.53.25.29.37.66.37 1.11h-1.2c0-.25-.05-.43-.14-.57a.467.467 0 0 0-.4-.2c-.16 0-.28.05-.36.15-.09.1-.13.23-.13.41 0 .17.05.31.15.42.1.1.26.2.48.29.22.09.43.19.62.29.19.1.36.21.5.34.14.13.25.28.33.45.08.17.12.37.12.61 0 .4-.13.73-.38.99-.26.26-.6.4-1.05.45v.71h-.56v-.71c-.51-.05-.91-.23-1.18-.53-.27-.3-.41-.69-.41-1.18h1.19c0 .27.06.47.18.62.12.14.29.21.51.21.16 0 .29-.05.38-.14.09-.1.13-.23.13-.4zM556.63 45.8c-.26.23-.54.35-.86.35-.47 0-.84-.16-1.11-.48s-.41-.74-.41-1.27c0-.33.08-.64.23-.92.15-.28.37-.51.65-.67.28-.17.58-.25.92-.25.34 0 .65.09.92.26.28.17.49.41.64.73.15.31.23.67.24 1.08v.46c0 .57-.11 1.06-.33 1.48-.22.42-.54.74-.95.96-.41.22-.9.34-1.45.34h-.07v-.96h.23c.8-.04 1.25-.41 1.35-1.11zm-.55-.51c.26 0 .45-.11.56-.34v-.5c0-.33-.05-.57-.17-.73a.518.518 0 0 0-.45-.24c-.17 0-.31.09-.42.27-.11.18-.17.4-.17.65 0 .27.06.48.17.64.13.17.28.25.48.25zM559.23 46.64c.19 0 .35.06.47.17.12.11.19.26.19.43 0 .18-.06.32-.19.43s-.28.17-.47.17c-.19 0-.35-.06-.47-.17s-.19-.26-.19-.43c0-.17.06-.31.19-.43s.28-.17.47-.17zM563.02 45.8c-.26.23-.54.35-.86.35-.47 0-.84-.16-1.11-.48s-.41-.74-.41-1.27c0-.33.08-.64.23-.92.15-.28.37-.51.65-.67.28-.17.58-.25.92-.25.34 0 .65.09.92.26.28.17.49.41.64.73.15.31.23.67.24 1.08v.46c0 .57-.11 1.06-.33 1.48-.22.42-.54.74-.95.96-.41.22-.9.34-1.45.34h-.07v-.96h.23c.8-.04 1.26-.41 1.35-1.11zm-.54-.51c.26 0 .45-.11.56-.34v-.5c0-.33-.05-.57-.17-.73a.518.518 0 0 0-.45-.24c-.17 0-.31.09-.42.27-.11.18-.17.4-.17.65 0 .27.06.48.17.64.12.17.28.25.48.25zM567.22 45.8c-.26.23-.54.35-.86.35-.47 0-.84-.16-1.11-.48s-.41-.74-.41-1.27c0-.33.08-.64.23-.92.15-.28.37-.51.65-.67.28-.17.58-.25.92-.25.34 0 .65.09.92.26.28.17.49.41.64.73.15.31.23.67.24 1.08v.46c0 .57-.11 1.06-.33 1.48-.22.42-.54.74-.95.96-.41.22-.9.34-1.45.34h-.07v-.96h.23c.8-.04 1.25-.41 1.35-1.11zm-.54-.51c.26 0 .45-.11.56-.34v-.5c0-.33-.05-.57-.17-.73a.518.518 0 0 0-.45-.24c-.17 0-.31.09-.42.27-.11.18-.17.4-.17.65 0 .27.06.48.17.64.12.17.27.25.48.25zM496.54 54.49v.93h.72v.51h-.72v2.38c0 .15.03.27.1.35.06.08.17.12.33.12.08 0 .18-.01.31-.04v.53c-.17.05-.34.07-.5.07-.29 0-.51-.09-.66-.27s-.22-.43-.22-.75v-2.38h-.7v-.51h.7v-.93h.64zM497.78 57.29c0-.38.07-.71.22-1.01s.35-.53.62-.69c.26-.16.56-.24.9-.24.52 0 .94.18 1.27.54s.48.84.48 1.44v.04c0 .37-.07.71-.21 1-.14.3-.35.53-.61.69s-.57.25-.92.25c-.52 0-.94-.18-1.26-.54s-.48-.84-.48-1.43v-.05zm.66.08c0 .43.1.77.3 1.02.2.26.46.39.79.39s.6-.13.79-.39c.2-.26.29-.63.29-1.1 0-.42-.1-.76-.3-1.02s-.46-.39-.79-.39a.94.94 0 0 0-.78.39c-.2.25-.3.62-.3 1.1zM506.18 57.89c0-.19-.05-.35-.16-.46s-.29-.22-.55-.32c-.26-.1-.48-.19-.67-.29s-.35-.21-.48-.33c-.13-.12-.24-.27-.31-.44s-.11-.37-.11-.6c0-.4.13-.73.38-.98s.59-.4 1.02-.45v-.76h.57v.77c.42.06.74.23.98.52s.35.66.35 1.12h-1.02c0-.28-.06-.5-.17-.64a.58.58 0 0 0-.47-.21.61.61 0 0 0-.45.17c-.11.11-.16.26-.16.46 0 .18.05.32.16.43.1.11.3.22.58.33s.51.22.7.32c.18.1.33.21.46.34.12.13.22.27.29.43.07.16.1.35.1.57 0 .4-.12.73-.38.98-.25.25-.59.4-1.03.44V60h-.56v-.7c-.48-.05-.86-.22-1.12-.52-.27-.29-.4-.68-.4-1.16h1.02c0 .28.07.5.2.65.13.15.33.22.58.22.21 0 .37-.05.49-.17s.16-.24.16-.43zM511.43 59.24h-3.53v-.7l1.67-1.78c.23-.25.4-.47.51-.66.11-.19.16-.36.16-.53 0-.23-.06-.41-.17-.54-.12-.13-.28-.2-.5-.2-.23 0-.41.08-.55.24-.13.16-.2.37-.2.63h-1.03c0-.31.07-.6.22-.86s.36-.46.64-.61c.27-.15.58-.22.93-.22.53 0 .94.13 1.24.38s.44.61.44 1.08c0 .25-.07.51-.2.78-.13.26-.36.57-.68.92l-1.17 1.24h2.22v.83zM515.08 57.3h.58v.82h-.58v1.12h-1.02v-1.12h-2.11l-.05-.64 2.15-3.39h1.03v3.21zm-2.16 0h1.14v-1.82l-.07.12-1.07 1.7zM516.31 58.74c0-.16.05-.29.16-.4.11-.1.25-.15.41-.15a.6.6 0 0 1 .42.15c.11.1.16.23.16.4 0 .16-.05.29-.16.39a.6.6 0 0 1-.42.15.56.56 0 0 1-.41-.15c-.1-.1-.16-.23-.16-.39zM520.72 57.18c-.27.26-.58.39-.93.39-.46 0-.82-.16-1.09-.47-.27-.31-.41-.73-.41-1.27 0-.34.07-.65.22-.93s.35-.5.62-.66c.26-.16.56-.23.89-.23.34 0 .64.08.91.25.26.17.47.42.62.73.15.32.22.68.22 1.09v.38c0 .86-.21 1.53-.64 2.03-.43.49-1.03.75-1.82.79h-.25v-.85h.23c.87-.03 1.35-.45 1.43-1.25zm-.69-.39c.17 0 .31-.04.43-.13s.21-.19.27-.31v-.42c0-.35-.07-.62-.2-.81s-.31-.29-.53-.29c-.21 0-.37.09-.51.28-.13.19-.2.42-.2.71 0 .28.06.51.19.69.14.2.32.28.55.28zM524.88 57.18c-.27.26-.58.39-.93.39-.46 0-.82-.16-1.09-.47-.27-.31-.41-.73-.41-1.27 0-.34.07-.65.22-.93s.35-.5.62-.66c.26-.16.56-.23.89-.23.34 0 .64.08.91.25.26.17.47.42.62.73.15.32.22.68.22 1.09v.38c0 .86-.21 1.53-.64 2.03-.43.49-1.03.75-1.82.79h-.25v-.85h.23c.87-.03 1.35-.45 1.43-1.25zm-.69-.39c.17 0 .31-.04.43-.13s.21-.19.27-.31v-.42c0-.35-.07-.62-.2-.81s-.31-.29-.53-.29c-.21 0-.37.09-.51.28-.13.19-.2.42-.2.71 0 .28.06.51.19.69.14.2.32.28.55.28zM526.92 59.69h-.56l2.15-5.6h.56l-2.15 5.6zM530.39 55.41l.02.42c.28-.33.66-.5 1.14-.5.54 0 .9.21 1.09.62.13-.18.29-.33.5-.45s.45-.17.72-.17c.84 0 1.27.44 1.28 1.33v2.57h-.65V56.7c0-.27-.06-.48-.19-.61s-.34-.2-.63-.2a.88.88 0 0 0-.61.22c-.16.14-.25.34-.28.59v2.54h-.66v-2.51c0-.56-.27-.84-.82-.84-.43 0-.72.18-.88.55v2.8h-.66v-3.83h.63zM535.96 57.29c0-.38.07-.71.22-1.01s.35-.53.62-.69c.26-.16.56-.24.9-.24.52 0 .94.18 1.27.54s.48.84.48 1.44v.04c0 .37-.07.71-.21 1-.14.3-.35.53-.61.69s-.57.25-.92.25c-.52 0-.94-.18-1.26-.54s-.48-.84-.48-1.43v-.05zm.66.08c0 .43.1.77.3 1.02.2.26.46.39.79.39s.6-.13.79-.39c.2-.26.29-.63.29-1.1 0-.42-.1-.76-.3-1.02s-.46-.39-.79-.39a.94.94 0 0 0-.78.39c-.2.25-.3.62-.3 1.1zM540.89 55.41l.02.48c.29-.37.67-.55 1.15-.55.81 0 1.22.46 1.23 1.37v2.53h-.66v-2.53c0-.28-.07-.48-.19-.61s-.32-.2-.58-.2c-.21 0-.4.06-.56.17-.16.11-.29.26-.38.45v2.73h-.65v-3.83h.62zM545.16 54.49v.93h.72v.51h-.72v2.38c0 .15.03.27.1.35.06.08.17.12.33.12.08 0 .18-.01.31-.04v.53c-.17.05-.34.07-.5.07-.29 0-.51-.09-.66-.27s-.22-.43-.22-.75v-2.38h-.7v-.51h.7v-.93h.64zM547.29 55.88c.29-.36.67-.53 1.13-.53.81 0 1.22.46 1.23 1.37v2.53h-.66v-2.53c0-.28-.07-.48-.19-.61s-.32-.2-.58-.2c-.21 0-.4.06-.56.17-.16.11-.29.26-.38.45v2.73h-.65v-5.44h.65v2.06z"/></svg>