<svg id="Layer_1" xmlns="http://www.w3.org/2000/svg" viewBox="0 0 160 600"><style>.st0{fill:url(#SVGID_1_)}</style><linearGradient id="SVGID_1_" gradientUnits="userSpaceOnUse" x1="19.907" y1="266.315" x2="140.14" y2="266.315"><stop offset="0" stop-color="#18b9fb"/><stop offset=".5" stop-color="#782eeb"/><stop offset="1" stop-color="#e82d8a"/></linearGradient><path class="st0" d="M38.8 220.13h-4.91v13.31h-3.94v-13.31h-4.82v-3.04H38.8v3.04zm8.11 4.58l-1.25-.09c-1.19 0-1.95.38-2.29 1.12v7.69h-3.78v-12.15h3.55l.12 1.56c.64-1.19 1.52-1.79 2.66-1.79.4 0 .76.04 1.05.13l-.06 3.53zm7.87 8.72c-.13-.25-.25-.61-.36-1.09-.7.88-1.67 1.31-2.92 1.31-1.15 0-2.12-.35-2.92-1.04s-1.2-1.56-1.2-2.61c0-1.32.49-2.31 1.46-2.99.97-.67 2.39-1.01 4.25-1.01h1.17v-.64c0-1.12-.48-1.68-1.45-1.68-.9 0-1.35.44-1.35 1.33h-3.79c0-1.17.5-2.13 1.5-2.86s2.27-1.1 3.82-1.1c1.55 0 2.77.38 3.67 1.13.9.76 1.36 1.79 1.38 3.11v5.38c.02 1.12.19 1.97.52 2.56v.19h-3.78zm-2.37-2.47c.47 0 .86-.1 1.17-.3.31-.2.53-.43.67-.69v-1.94h-1.1c-1.32 0-1.98.59-1.98 1.78 0 .34.12.62.35.84.23.21.53.31.89.31zm12.87-.22c.53 0 .94-.14 1.24-.43s.43-.69.43-1.21h3.55c0 1.33-.48 2.43-1.43 3.28-.96.85-2.18 1.28-3.69 1.28-1.77 0-3.16-.55-4.18-1.66s-1.53-2.64-1.53-4.6v-.16c0-1.23.23-2.31.68-3.25s1.11-1.66 1.96-2.17c.85-.5 1.87-.76 3.03-.76 1.58 0 2.83.44 3.76 1.31.93.88 1.39 2.06 1.39 3.56h-3.55c0-.63-.15-1.11-.46-1.45-.31-.34-.72-.5-1.23-.5-.98 0-1.55.62-1.72 1.88-.05.4-.08.94-.08 1.64 0 1.22.15 2.07.44 2.54.29.46.75.7 1.39.7zm11.69-1.83l-1.07 1.07v3.46h-3.78v-17.26h3.78v9.16l.38-.5 2.85-3.55h4.54l-4.26 5 4.54 7.15h-4.33l-2.65-4.53zm18.28-.78l2.02-6.85h4.05l-4.95 14.18-.21.52c-.7 1.57-1.95 2.36-3.73 2.36-.49 0-1.01-.08-1.56-.22v-2.7h.49c.53 0 .94-.08 1.22-.23.28-.15.49-.43.62-.83l.3-.81-4.22-12.27h4.04l1.93 6.85zm6.41-.88c0-1.21.24-2.29.71-3.24.47-.95 1.15-1.68 2.03-2.18s1.92-.76 3.11-.76c1.82 0 3.25.56 4.3 1.69s1.57 2.66 1.57 4.6v.13c0 1.89-.53 3.4-1.58 4.51-1.05 1.11-2.48 1.67-4.27 1.67-1.73 0-3.12-.52-4.17-1.56s-1.61-2.44-1.7-4.22v-.64zm3.79.23c0 1.12.18 1.95.53 2.47s.87.79 1.56.79c1.35 0 2.04-1.04 2.07-3.11v-.38c0-2.18-.7-3.27-2.09-3.27-1.27 0-1.95.94-2.06 2.82l-.01.68zm16.84 4.64c-.8 1.03-1.88 1.54-3.25 1.54-1.33 0-2.34-.39-3.03-1.16-.69-.78-1.03-1.89-1.03-3.34v-7.87h3.78v7.9c0 1.04.5 1.56 1.52 1.56.87 0 1.49-.31 1.85-.93v-8.52h3.81v12.15h-3.55l-.1-1.33zm13.09-7.41l-1.25-.09c-1.19 0-1.95.38-2.29 1.12v7.69h-3.78v-12.15h3.55l.12 1.56c.64-1.19 1.52-1.79 2.66-1.79.4 0 .76.04 1.05.13l-.06 3.53zm-79.04 33.63c.53 0 .94-.14 1.24-.43s.43-.69.43-1.21h3.55c0 1.33-.48 2.43-1.43 3.28-.96.85-2.18 1.28-3.69 1.28-1.77 0-3.16-.55-4.18-1.66s-1.53-2.64-1.53-4.6v-.16c0-1.23.23-2.31.68-3.25s1.11-1.66 1.96-2.17c.85-.5 1.87-.76 3.03-.76 1.58 0 2.83.44 3.76 1.31.93.88 1.39 2.06 1.39 3.56H58c0-.63-.15-1.11-.46-1.45-.31-.34-.72-.5-1.23-.5-.98 0-1.55.62-1.72 1.88-.05.4-.08.94-.08 1.64 0 1.22.15 2.07.44 2.54.29.46.75.7 1.39.7zm14.16-6.03l-1.25-.09c-1.19 0-1.95.38-2.29 1.12v7.69h-3.78v-12.15h3.55l.12 1.56c.64-1.19 1.52-1.79 2.66-1.79.4 0 .76.04 1.05.13l-.06 3.53zm7.03 8.95c-1.86 0-3.37-.56-4.53-1.67-1.15-1.11-1.73-2.56-1.73-4.34v-.31c0-1.24.23-2.34.69-3.29.46-.95 1.13-1.69 2.02-2.21s1.93-.78 3.14-.78c1.71 0 3.05.53 4.04 1.59s1.48 2.54 1.48 4.43v1.47h-7.52c.13.68.43 1.22.89 1.61.46.39 1.05.58 1.78.58 1.2 0 2.13-.42 2.81-1.26l1.73 2.04c-.47.65-1.14 1.17-2 1.56-.87.39-1.8.58-2.8.58zm-.43-9.68c-1.11 0-1.77.73-1.98 2.2h3.82v-.29c.01-.61-.14-1.08-.46-1.41-.32-.34-.78-.5-1.38-.5zm6.6 3.29c0-1.92.42-3.44 1.25-4.55.83-1.11 1.99-1.66 3.48-1.66 1.08 0 2 .43 2.74 1.28v-6.15h3.79v17.25h-3.4l-.19-1.3c-.78 1.02-1.77 1.53-2.96 1.53-1.44 0-2.59-.55-3.44-1.66-.85-1.12-1.27-2.7-1.27-4.74zm3.78.23c0 2.16.63 3.23 1.89 3.23.84 0 1.44-.35 1.8-1.06v-4.63c-.34-.72-.94-1.08-1.78-1.08-1.17 0-1.8.94-1.9 2.83l-.01.71zm9.6-9.35c0-.54.19-.98.58-1.32.39-.34.89-.52 1.52-.52.62 0 1.13.17 1.52.52.39.34.58.79.58 1.32s-.19.98-.58 1.33c-.39.34-.89.52-1.52.52-.62 0-1.13-.17-1.52-.52-.38-.35-.58-.79-.58-1.33zm4.02 15.28h-3.8v-12.15h3.8v12.15zm6.74-15.17v3.02h2v2.63h-2v5.56c0 .46.08.78.25.96.16.18.49.27.98.27.37 0 .69-.02.94-.07v2.71c-.68.22-1.39.33-2.13.33-1.3 0-2.26-.31-2.89-.92-.62-.61-.93-1.55-.93-2.8v-6.03h-1.55v-2.63h1.55v-3.02h3.78zM52.9 285.22c0-.32-.17-.58-.51-.78-.34-.19-.98-.4-1.92-.61-.94-.21-1.72-.49-2.34-.83-.61-.34-1.08-.75-1.4-1.24a2.97 2.97 0 0 1-.48-1.67c0-1.12.46-2.03 1.38-2.76s2.13-1.08 3.62-1.08c1.6 0 2.89.36 3.86 1.09.97.73 1.46 1.68 1.46 2.86h-3.8c0-.97-.51-1.46-1.54-1.46-.4 0-.73.11-1 .33s-.4.5-.4.83c0 .34.17.61.49.82s.86.38 1.58.52 1.36.3 1.9.48c1.83.63 2.74 1.75 2.74 3.38 0 1.11-.49 2.01-1.48 2.71-.98.7-2.26 1.04-3.82 1.04-1.04 0-1.97-.19-2.79-.56s-1.45-.88-1.91-1.53-.69-1.32-.69-2.03h3.54c.01.56.2.97.56 1.23.36.26.82.39 1.38.39.52 0 .9-.11 1.16-.31.28-.21.41-.48.41-.82zm10.56.72c.53 0 .94-.14 1.24-.43s.43-.69.43-1.21h3.55c0 1.33-.48 2.43-1.43 3.28-.96.85-2.18 1.28-3.69 1.28-1.77 0-3.16-.55-4.18-1.66s-1.53-2.64-1.53-4.6v-.16c0-1.23.23-2.31.68-3.25s1.11-1.66 1.96-2.17c.85-.5 1.87-.76 3.03-.76 1.58 0 2.83.44 3.76 1.31.93.88 1.39 2.06 1.39 3.56h-3.55c0-.63-.15-1.11-.46-1.45-.31-.34-.72-.5-1.23-.5-.98 0-1.55.62-1.72 1.88-.05.4-.08.94-.08 1.64 0 1.22.15 2.07.44 2.54.29.46.75.7 1.39.7zm6.33-3.49c0-1.21.24-2.29.71-3.24.47-.95 1.15-1.68 2.03-2.18s1.92-.76 3.11-.76c1.82 0 3.25.56 4.3 1.69s1.57 2.66 1.57 4.6v.13c0 1.89-.53 3.4-1.58 4.51-1.05 1.11-2.48 1.67-4.27 1.67-1.73 0-3.12-.52-4.17-1.56s-1.61-2.44-1.7-4.22v-.64zm3.79.23c0 1.12.18 1.95.53 2.47s.87.79 1.56.79c1.35 0 2.04-1.04 2.07-3.11v-.38c0-2.18-.7-3.27-2.09-3.27-1.27 0-1.95.94-2.06 2.82l-.01.68zm16.96-2.77l-1.25-.09c-1.19 0-1.95.38-2.29 1.12v7.69h-3.78v-12.15h3.55l.12 1.56c.64-1.19 1.52-1.79 2.66-1.79.4 0 .76.04 1.05.13l-.06 3.53zm7.03 8.95c-1.86 0-3.37-.56-4.53-1.67-1.15-1.11-1.73-2.56-1.73-4.34v-.31c0-1.24.23-2.34.69-3.29.46-.95 1.13-1.69 2.02-2.21s1.93-.78 3.14-.78c1.71 0 3.05.53 4.04 1.59s1.48 2.54 1.48 4.43v1.47h-7.52c.13.68.43 1.22.89 1.61.46.39 1.05.58 1.78.58 1.2 0 2.13-.42 2.81-1.26l1.73 2.04c-.47.65-1.14 1.17-2 1.56-.88.39-1.81.58-2.8.58zm-.43-9.68c-1.11 0-1.77.73-1.98 2.2h3.82v-.29c.01-.61-.14-1.08-.46-1.41-.32-.34-.78-.5-1.38-.5zm13.43 6.04c0-.32-.17-.58-.51-.78-.34-.19-.98-.4-1.92-.61-.94-.21-1.72-.49-2.34-.83-.61-.34-1.08-.75-1.4-1.24a2.97 2.97 0 0 1-.48-1.67c0-1.12.46-2.03 1.38-2.76s2.13-1.08 3.62-1.08c1.6 0 2.89.36 3.86 1.09.97.73 1.46 1.68 1.46 2.86h-3.8c0-.97-.51-1.46-1.54-1.46-.4 0-.73.11-1 .33s-.4.5-.4.83c0 .34.17.61.49.82s.86.38 1.58.52 1.36.3 1.9.48c1.83.63 2.74 1.75 2.74 3.38 0 1.11-.49 2.01-1.48 2.71-.98.7-2.26 1.04-3.82 1.04-1.04 0-1.97-.19-2.79-.56s-1.45-.88-1.91-1.53-.69-1.32-.69-2.03h3.54c.01.56.2.97.56 1.23.36.26.82.39 1.38.39.52 0 .9-.11 1.16-.31.28-.21.41-.48.41-.82zm-84.41 31.24c-1.86 0-3.37-.56-4.53-1.67-1.15-1.11-1.73-2.56-1.73-4.34v-.31c0-1.24.23-2.34.69-3.29.46-.95 1.13-1.69 2.02-2.21s1.93-.78 3.14-.78c1.71 0 3.05.53 4.04 1.59s1.48 2.54 1.48 4.43v1.47h-7.52c.13.68.43 1.22.89 1.61.46.39 1.05.58 1.78.58 1.2 0 2.13-.42 2.81-1.26l1.73 2.04c-.47.65-1.14 1.17-2 1.56-.87.39-1.8.58-2.8.58zm-.42-9.68c-1.11 0-1.77.73-1.98 2.2h3.82v-.29c.01-.61-.14-1.08-.46-1.41-.33-.34-.79-.5-1.38-.5zm13.91 9.45c-.13-.25-.25-.61-.36-1.09-.7.88-1.67 1.31-2.92 1.31-1.15 0-2.12-.35-2.92-1.04s-1.2-1.56-1.2-2.61c0-1.32.49-2.31 1.46-2.99.97-.67 2.39-1.01 4.25-1.01h1.17v-.64c0-1.12-.48-1.68-1.45-1.68-.9 0-1.35.44-1.35 1.33h-3.79c0-1.17.5-2.13 1.5-2.86s2.27-1.1 3.82-1.1c1.55 0 2.77.38 3.67 1.13.9.76 1.36 1.79 1.38 3.11v5.38c.02 1.12.19 1.97.52 2.56v.19h-3.78zm-2.37-2.47c.47 0 .86-.1 1.17-.3.31-.2.53-.43.67-.69v-1.94h-1.1c-1.32 0-1.98.59-1.98 1.78 0 .34.12.62.35.84.24.21.53.31.89.31zm12.87-.22c.53 0 .94-.14 1.24-.43s.43-.69.43-1.21h3.55c0 1.33-.48 2.43-1.43 3.28-.96.85-2.18 1.28-3.69 1.28-1.77 0-3.16-.55-4.18-1.66s-1.53-2.64-1.53-4.6v-.16c0-1.23.23-2.31.68-3.25s1.11-1.66 1.96-2.17c.85-.5 1.87-.76 3.03-.76 1.58 0 2.83.44 3.76 1.31.93.88 1.39 2.06 1.39 3.56h-3.55c0-.63-.15-1.11-.46-1.45-.31-.34-.72-.5-1.23-.5-.98 0-1.55.62-1.72 1.88-.05.4-.08.94-.08 1.64 0 1.22.15 2.07.44 2.54.29.46.75.7 1.39.7zm10.51-8.16c.81-1.02 1.84-1.53 3.1-1.53 1.34 0 2.35.4 3.03 1.19s1.03 1.96 1.04 3.52v7.67h-3.79v-7.58c0-.64-.13-1.12-.39-1.42-.26-.3-.71-.46-1.34-.46-.78 0-1.33.25-1.65.74v8.71h-3.79v-17.25h3.79v6.41zm18.59-1.3l.12 1.43c.86-1.1 2.02-1.65 3.47-1.65 1.53 0 2.57.61 3.11 1.83.82-1.22 2.01-1.83 3.57-1.83 2.46 0 3.73 1.49 3.8 4.47v7.91h-3.8v-7.67c0-.62-.1-1.08-.31-1.36s-.59-.43-1.15-.43c-.75 0-1.31.33-1.67 1l.01.16v8.3h-3.8v-7.65c0-.64-.1-1.1-.3-1.38-.2-.28-.59-.43-1.16-.43-.73 0-1.28.33-1.66 1v8.46H75.7v-12.15h3.55zM95 310.05c0-1.21.24-2.29.71-3.24.47-.95 1.15-1.68 2.03-2.18s1.92-.76 3.11-.76c1.82 0 3.25.56 4.3 1.69s1.57 2.66 1.57 4.6v.13c0 1.89-.53 3.4-1.58 4.51-1.05 1.11-2.48 1.67-4.27 1.67-1.73 0-3.12-.52-4.17-1.56s-1.61-2.44-1.7-4.22v-.64zm3.79.23c0 1.12.18 1.95.53 2.47s.87.79 1.56.79c1.35 0 2.04-1.04 2.07-3.11v-.38c0-2.18-.7-3.27-2.09-3.27-1.27 0-1.95.94-2.06 2.82l-.01.68zm13.08-6.2l.12 1.43c.84-1.1 2-1.65 3.47-1.65 1.27 0 2.21.38 2.84 1.13.62.76.95 1.89.97 3.41v7.83h-3.79v-7.67c0-.61-.12-1.07-.37-1.35s-.7-.43-1.35-.43c-.74 0-1.29.29-1.65.88v8.58h-3.79v-12.15h3.55zm13.91-3.02v3.02h2v2.63h-2v5.56c0 .46.08.78.25.96.16.18.49.27.98.27.37 0 .69-.02.94-.07v2.71c-.68.22-1.39.33-2.13.33-1.3 0-2.26-.31-2.89-.92-.62-.61-.93-1.55-.93-2.8v-6.03h-1.55v-2.63H122v-3.02h3.78zm7.18 4.32c.81-1.02 1.84-1.53 3.1-1.53 1.34 0 2.35.4 3.03 1.19s1.03 1.96 1.04 3.52v7.67h-3.79v-7.58c0-.64-.13-1.12-.39-1.42-.26-.3-.71-.46-1.34-.46-.78 0-1.33.25-1.65.74v8.71h-3.79v-17.25h3.79v6.41z"/></svg>