<svg id="Layer_1" xmlns="http://www.w3.org/2000/svg" viewBox="0 0 160 600"><style>.st0{fill:#fff}</style><path class="st0" d="M68.99 201.26h-3.84v10.42h-3.08v-10.42H58.3v-2.38H69v2.38zM67.95 206.83c0-.95.18-1.79.55-2.54.37-.74.9-1.31 1.59-1.71s1.5-.6 2.43-.6c1.42 0 2.55.44 3.37 1.32.82.88 1.23 2.08 1.23 3.6v.11c0 1.48-.41 2.66-1.23 3.53-.82.87-1.94 1.3-3.34 1.3-1.35 0-2.44-.41-3.26-1.22s-1.26-1.91-1.33-3.3l-.01-.49zm2.96.19c0 .88.14 1.52.41 1.93s.68.62 1.22.62c1.05 0 1.59-.81 1.62-2.43v-.3c0-1.71-.54-2.56-1.63-2.56-.99 0-1.53.74-1.61 2.21l-.01.53zM81.88 199.8v2.36h1.56v2.06h-1.56v4.35c0 .36.06.61.19.75s.38.21.76.21c.29 0 .54-.02.74-.05v2.12c-.53.17-1.09.25-1.67.25-1.02 0-1.77-.24-2.26-.72s-.73-1.21-.73-2.19v-4.72H77.7v-2.06h1.21v-2.36h2.97zM89.96 211.68c-.11-.19-.2-.48-.28-.85-.54.69-1.31 1.03-2.29 1.03-.9 0-1.66-.27-2.29-.81s-.94-1.22-.94-2.04c0-1.03.38-1.81 1.14-2.34s1.87-.79 3.32-.79h.91v-.5c0-.88-.38-1.32-1.13-1.32-.7 0-1.05.35-1.05 1.04H84.4c0-.92.39-1.67 1.17-2.24s1.78-.86 2.99-.86 2.17.3 2.87.89 1.06 1.4 1.08 2.43v4.21c.01.87.15 1.54.4 2v.15h-2.95zm-1.85-1.94c.37 0 .68-.08.92-.24s.42-.34.52-.54v-1.52h-.86c-1.03 0-1.55.46-1.55 1.39 0 .27.09.49.27.66.19.17.42.25.7.25zM97.29 211.68h-2.97v-13.5h2.97v13.5zM42.92 233.57c.42 0 .74-.11.97-.34s.34-.54.33-.95H47c0 1.04-.37 1.9-1.12 2.57s-1.71 1-2.89 1c-1.38 0-2.47-.43-3.27-1.3s-1.2-2.07-1.2-3.6v-.12c0-.96.18-1.81.53-2.54.35-.73.87-1.3 1.53-1.7.67-.4 1.46-.59 2.37-.59 1.24 0 2.22.34 2.94 1.03s1.11 1.6 1.11 2.77h-2.78c0-.49-.12-.87-.36-1.13s-.56-.4-.97-.4c-.77 0-1.22.49-1.34 1.47-.04.31-.06.74-.06 1.28 0 .96.11 1.62.34 1.99s.59.56 1.09.56zM47.87 230.83c0-.95.18-1.79.55-2.54.37-.74.9-1.31 1.59-1.71s1.5-.6 2.43-.6c1.42 0 2.55.44 3.37 1.32.82.88 1.23 2.08 1.23 3.6v.11c0 1.48-.41 2.66-1.23 3.53-.82.87-1.94 1.3-3.34 1.3-1.35 0-2.44-.41-3.26-1.22s-1.26-1.91-1.33-3.3l-.01-.49zm2.97.19c0 .88.14 1.52.41 1.93s.68.62 1.22.62c1.05 0 1.59-.81 1.62-2.43v-.3c0-1.71-.54-2.56-1.63-2.56-.99 0-1.53.74-1.61 2.21l-.01.53zM61.15 226.17l.1 1.12c.67-.86 1.58-1.29 2.72-1.29 1.2 0 2.01.48 2.43 1.43.64-.96 1.58-1.43 2.79-1.43 1.93 0 2.92 1.17 2.97 3.5v6.19H69.2v-6c0-.49-.08-.84-.25-1.06s-.46-.33-.9-.33c-.59 0-1.02.26-1.31.78l.01.12v6.5h-2.97v-5.99c0-.5-.08-.86-.24-1.08s-.46-.33-.91-.33c-.57 0-1 .26-1.3.78v6.62h-2.96v-9.51h2.78zM82.69 231c0 1.56-.32 2.76-.97 3.59s-1.55 1.26-2.72 1.26c-.97 0-1.75-.38-2.34-1.15l-.12.98h-2.65v-13.5h2.96v4.75c.55-.63 1.26-.94 2.14-.94 1.18 0 2.1.42 2.74 1.27s.97 2.04.97 3.59v.15zm-2.97-.19c0-.91-.12-1.56-.36-1.95-.24-.39-.62-.58-1.12-.58-.67 0-1.13.25-1.39.76v3.77c.25.5.72.75 1.41.75.7 0 1.14-.34 1.33-1.02.08-.33.13-.9.13-1.73zM83.97 223.71c0-.42.15-.77.46-1.04s.7-.4 1.19-.4.88.13 1.19.4.46.62.46 1.04-.15.77-.46 1.04-.7.4-1.19.4-.88-.13-1.19-.4-.46-.61-.46-1.04zm3.15 11.97h-2.97v-9.51h2.97v9.51zM91.66 226.17l.1 1.12c.66-.86 1.56-1.29 2.72-1.29.99 0 1.73.3 2.22.89s.74 1.48.76 2.67v6.13h-2.97v-6c0-.48-.1-.83-.29-1.06-.19-.22-.54-.34-1.05-.34-.58 0-1.01.23-1.29.69v6.71H88.9v-9.51h2.76zM103.69 235.85c-1.46 0-2.64-.44-3.54-1.3-.9-.87-1.35-2-1.35-3.4v-.25c0-.97.18-1.83.54-2.58s.89-1.32 1.58-1.73 1.51-.61 2.46-.61c1.34 0 2.39.42 3.16 1.24s1.16 1.98 1.16 3.47v1.15h-5.89c.11.53.34.95.69 1.26s.82.46 1.39.46c.94 0 1.67-.33 2.2-.98l1.35 1.6c-.37.51-.89.92-1.57 1.22-.67.3-1.4.45-2.18.45zm-.33-7.57c-.87 0-1.38.57-1.55 1.72h2.99v-.23c.01-.47-.11-.84-.36-1.1-.25-.26-.61-.39-1.08-.39zM108.52 230.85c0-1.51.33-2.69.98-3.56s1.56-1.3 2.72-1.3c.85 0 1.56.33 2.14 1v-4.82h2.97v13.5h-2.66l-.15-1.02c-.61.8-1.38 1.2-2.32 1.2-1.13 0-2.03-.43-2.69-1.3s-.99-2.1-.99-3.7zm2.96.19c0 1.69.49 2.53 1.48 2.53.66 0 1.12-.28 1.41-.83v-3.62c-.27-.56-.73-.84-1.39-.84-.91 0-1.41.74-1.49 2.21l-.01.55zM29.66 259.68v-7.45h-1.38v-2.06h1.38v-.76c0-1.08.32-1.92.96-2.52s1.54-.9 2.69-.9c.42 0 .88.06 1.39.18l.01 2.18c-.18-.05-.42-.08-.73-.08-.9 0-1.34.39-1.34 1.16v.73h1.85v2.06h-1.85v7.45h-2.98zM41.28 252.85l-.98-.07c-.93 0-1.53.29-1.79.88v6.02h-2.96v-9.51h2.78l.1 1.22c.5-.93 1.19-1.4 2.08-1.4.32 0 .59.04.83.11l-.06 2.75zM47.44 259.68c-.11-.19-.2-.48-.28-.85-.54.69-1.31 1.03-2.29 1.03-.9 0-1.66-.27-2.29-.81s-.94-1.22-.94-2.04c0-1.03.38-1.81 1.14-2.34s1.87-.79 3.32-.79h.91v-.5c0-.88-.38-1.32-1.13-1.32-.7 0-1.05.35-1.05 1.04h-2.96c0-.92.39-1.67 1.17-2.24s1.78-.86 2.99-.86 2.17.3 2.87.89 1.06 1.4 1.08 2.43v4.21c.01.87.15 1.54.4 2v.15h-2.94zm-1.86-1.94c.37 0 .68-.08.92-.24s.42-.34.52-.54v-1.52h-.86c-1.03 0-1.55.46-1.55 1.39 0 .27.09.49.27.66.19.17.42.25.7.25zM57.3 258.65c-.63.8-1.47 1.2-2.54 1.2-1.04 0-1.83-.3-2.37-.91-.54-.61-.8-1.48-.8-2.61v-6.16h2.96v6.18c0 .81.4 1.22 1.19 1.22.68 0 1.16-.24 1.45-.73v-6.67h2.98v9.51h-2.78l-.09-1.03zM61.41 254.85c0-1.51.33-2.69.98-3.56s1.56-1.3 2.72-1.3c.85 0 1.56.33 2.14 1v-4.82h2.97v13.5h-2.66l-.15-1.02c-.61.8-1.38 1.2-2.32 1.2-1.13 0-2.03-.43-2.69-1.3s-.99-2.1-.99-3.7zm2.97.19c0 1.69.49 2.53 1.48 2.53.66 0 1.12-.28 1.41-.83v-3.62c-.27-.56-.73-.84-1.39-.84-.91 0-1.41.74-1.49 2.21l-.01.55zM79.52 259.68h-2.97v-13.5h2.97v13.5zM80.97 254.83c0-.95.19-1.79.55-2.54.37-.74.9-1.31 1.59-1.71s1.5-.6 2.43-.6c1.42 0 2.55.44 3.37 1.32.82.88 1.23 2.08 1.23 3.6v.11c0 1.48-.41 2.66-1.24 3.53-.82.87-1.94 1.3-3.34 1.3-1.35 0-2.44-.41-3.26-1.22s-1.26-1.91-1.33-3.3v-.49zm2.96.19c0 .88.14 1.52.41 1.93s.68.62 1.22.62c1.05 0 1.59-.81 1.62-2.43v-.3c0-1.71-.54-2.56-1.63-2.56-.99 0-1.53.74-1.61 2.21l-.01.53zM96.43 257c0-.25-.13-.45-.4-.61s-.76-.31-1.5-.47-1.35-.38-1.83-.65-.85-.59-1.1-.97-.38-.82-.38-1.31c0-.87.36-1.59 1.08-2.16.72-.56 1.66-.85 2.83-.85 1.25 0 2.26.28 3.02.85s1.14 1.32 1.14 2.24h-2.97c0-.76-.4-1.14-1.2-1.14-.31 0-.57.09-.78.26s-.32.39-.32.65.13.48.39.64.67.3 1.23.4 1.06.23 1.49.38c1.43.49 2.14 1.37 2.14 2.65 0 .87-.39 1.57-1.16 2.12s-1.77.82-2.99.82c-.81 0-1.54-.15-2.18-.44s-1.14-.69-1.49-1.2-.54-1.03-.54-1.59h2.77c.01.44.16.76.44.96.28.2.64.3 1.08.3.4 0 .71-.08.91-.25s.32-.36.32-.63zM105.65 257c0-.25-.13-.45-.4-.61s-.76-.31-1.5-.47-1.35-.38-1.83-.65-.85-.59-1.1-.97-.38-.82-.38-1.31c0-.87.36-1.59 1.08-2.16.72-.56 1.66-.85 2.83-.85 1.25 0 2.26.28 3.02.85s1.14 1.32 1.14 2.24h-2.97c0-.76-.4-1.14-1.2-1.14-.31 0-.57.09-.78.26s-.32.39-.32.65.13.48.39.64.67.3 1.23.4 1.06.23 1.49.38c1.43.49 2.14 1.37 2.14 2.65 0 .87-.39 1.57-1.16 2.12s-1.77.82-2.99.82c-.81 0-1.54-.15-2.18-.44s-1.14-.69-1.49-1.2-.54-1.03-.54-1.59h2.77c.01.44.16.76.44.96.28.2.64.3 1.08.3.4 0 .71-.08.91-.25s.32-.36.32-.63zM114.49 259.85c-1.46 0-2.64-.44-3.54-1.3-.9-.87-1.35-2-1.35-3.4v-.25c0-.97.18-1.83.54-2.58.36-.74.89-1.32 1.58-1.73s1.51-.61 2.46-.61c1.34 0 2.39.42 3.16 1.24s1.16 1.98 1.16 3.47v1.15h-5.89c.11.53.34.95.69 1.26s.82.46 1.39.46c.94 0 1.67-.33 2.2-.98l1.35 1.6c-.37.51-.89.92-1.57 1.22-.67.3-1.4.45-2.18.45zm-.33-7.57c-.87 0-1.38.57-1.55 1.72h2.99v-.23c.01-.47-.11-.84-.36-1.1-.25-.26-.62-.39-1.08-.39zM124.67 257c0-.25-.13-.45-.4-.61s-.76-.31-1.5-.47-1.35-.38-1.83-.65-.85-.59-1.1-.97-.38-.82-.38-1.31c0-.87.36-1.59 1.08-2.16.72-.56 1.66-.85 2.83-.85 1.25 0 2.26.28 3.02.85s1.14 1.32 1.14 2.24h-2.97c0-.76-.4-1.14-1.2-1.14-.31 0-.57.09-.78.26s-.32.39-.32.65.13.48.39.64.67.3 1.23.4 1.06.23 1.49.38c1.43.49 2.14 1.37 2.14 2.65 0 .87-.39 1.57-1.16 2.12s-1.77.82-2.99.82c-.81 0-1.54-.15-2.18-.44s-1.14-.69-1.49-1.2-.54-1.03-.54-1.59h2.77c.01.44.16.76.44.96.28.2.64.3 1.08.3.4 0 .71-.08.91-.25.22-.15.32-.36.32-.63zM42.56 281.57c.42 0 .74-.11.97-.34s.34-.54.33-.95h2.78c0 1.04-.37 1.9-1.12 2.57s-1.71 1-2.89 1c-1.38 0-2.47-.43-3.27-1.3s-1.2-2.07-1.2-3.6v-.12c0-.96.18-1.81.53-2.54.35-.73.87-1.3 1.53-1.7.67-.4 1.46-.59 2.37-.59 1.24 0 2.22.34 2.94 1.03s1.09 1.61 1.09 2.79h-2.78c0-.49-.12-.87-.36-1.13s-.56-.4-.97-.4c-.77 0-1.22.49-1.34 1.47-.04.31-.06.74-.06 1.28 0 .96.11 1.62.34 1.99s.61.54 1.11.54zM51.02 283.68h-2.97v-13.5h2.97v13.5zM52.82 271.71c0-.42.15-.77.46-1.04s.7-.4 1.19-.4.88.13 1.19.4.46.62.46 1.04-.15.77-.46 1.04-.7.4-1.19.4-.88-.13-1.19-.4-.46-.61-.46-1.04zm3.14 11.97h-2.97v-9.51h2.97v9.51zM60.59 274.17l.1 1.12c.67-.86 1.58-1.29 2.72-1.29 1.2 0 2.01.48 2.43 1.43.64-.96 1.58-1.43 2.79-1.43 1.93 0 2.92 1.17 2.97 3.5v6.19h-2.97v-6c0-.49-.08-.84-.25-1.06s-.46-.33-.9-.33c-.59 0-1.02.26-1.31.78l.01.12v6.5h-2.97v-5.99c0-.5-.08-.86-.24-1.08s-.46-.33-.91-.33c-.57 0-1 .26-1.3.78v6.62H57.8v-9.51h2.79zM82.12 279c0 1.56-.32 2.76-.97 3.59-.65.84-1.55 1.26-2.73 1.26-.97 0-1.75-.38-2.34-1.15l-.12.98h-2.65v-13.5h2.96v4.75c.55-.63 1.26-.94 2.14-.94 1.18 0 2.1.42 2.74 1.27.64.85.97 2.04.97 3.59v.15zm-2.97-.19c0-.91-.12-1.56-.36-1.95-.24-.39-.62-.58-1.12-.58-.67 0-1.13.25-1.39.76v3.77c.25.5.72.75 1.41.75.7 0 1.14-.34 1.33-1.02.08-.33.13-.9.13-1.73zM88.03 283.85c-1.46 0-2.64-.44-3.54-1.3-.9-.87-1.35-2-1.35-3.4v-.25c0-.97.18-1.83.54-2.58s.89-1.32 1.58-1.73 1.51-.61 2.46-.61c1.34 0 2.39.42 3.16 1.24s1.16 1.98 1.16 3.47v1.15h-5.89c.11.53.34.95.69 1.26s.82.46 1.39.46c.94 0 1.67-.33 2.2-.98l1.35 1.6c-.37.51-.89.92-1.57 1.22-.68.3-1.4.45-2.18.45zm-.34-7.57c-.87 0-1.38.57-1.55 1.72h2.99v-.23c.01-.47-.11-.84-.36-1.1-.25-.26-.61-.39-1.08-.39zM92.85 278.85c0-1.51.33-2.69.98-3.56s1.56-1.3 2.72-1.3c.85 0 1.56.33 2.14 1v-4.82h2.97v13.5H99l-.15-1.02c-.61.8-1.38 1.2-2.32 1.2-1.13 0-2.03-.43-2.69-1.3s-.99-2.1-.99-3.7zm2.96.19c0 1.69.49 2.53 1.48 2.53.66 0 1.12-.28 1.41-.83v-3.62c-.27-.56-.73-.84-1.39-.84-.91 0-1.41.74-1.49 2.21l-.01.55zM111.28 271.8v2.36h1.56v2.06h-1.56v4.35c0 .36.06.61.19.75s.38.21.76.21c.29 0 .54-.02.74-.05v2.12c-.53.17-1.09.25-1.67.25-1.02 0-1.77-.24-2.26-.72s-.73-1.21-.73-2.19v-4.72h-1.21v-2.06h1.21v-2.36h2.97zM113.38 278.83c0-.95.18-1.79.55-2.54.37-.74.9-1.31 1.59-1.71s1.5-.6 2.43-.6c1.42 0 2.55.44 3.37 1.32.82.88 1.23 2.08 1.23 3.6v.11c0 1.48-.41 2.66-1.23 3.53-.82.87-1.94 1.3-3.34 1.3-1.35 0-2.44-.41-3.26-1.22s-1.26-1.91-1.33-3.3l-.01-.49zm2.96.19c0 .88.14 1.52.41 1.93s.68.62 1.22.62c1.05 0 1.59-.81 1.62-2.43v-.3c0-1.71-.54-2.56-1.63-2.56-.99 0-1.53.74-1.61 2.21l-.01.53z"/></svg>