<svg id="Layer_1" xmlns="http://www.w3.org/2000/svg" viewBox="0 0 160 600"><style>.st0{fill:#fff}</style><g id="PG_x5F_Logo_x5F_Full_1_"><path class="st0" d="M34.78 564.65v1.41a2.01 2.01 0 0 1-3.02 1.74.687.687 0 1 1 .69-1.19c.1.06.21.09.32.09.35 0 .64-.29.64-.64v-1.41c0-.38.31-.69.69-.69s.68.31.68.69zm-4.61 2.75a.672.672 0 0 0-.92-.29c-.34.17-.47.59-.29.92a4.282 4.282 0 0 0 3.82 2.33c2.37 0 4.3-1.93 4.3-4.3v-1.41c0-.38-.31-.69-.69-.69-.38 0-.69.31-.69.69v1.41c0 1.61-1.31 2.93-2.93 2.93-1.1 0-2.09-.61-2.6-1.59zm2.4-22.72c-3.52.1-6.39 3.12-6.39 6.71v14.66c0 1.8.71 3.47 2 4.73a6.508 6.508 0 0 0 4.59 1.86h.2c3.52-.1 6.39-3.12 6.39-6.71v-1.12c0-1.73-1.41-3.14-3.14-3.14H34.1c-.38 0-.69.31-.69.69s.31.69.69.69h2.13c.98 0 1.77.79 1.77 1.77v1.12c0 2.86-2.27 5.26-5.06 5.34-1.42.04-2.77-.48-3.79-1.47a5.181 5.181 0 0 1-1.59-3.74V551.4c0-2.86 2.27-5.26 5.06-5.34 1.42-.04 2.77.48 3.79 1.47s1.59 2.32 1.59 3.74v8.61c0 .38.31.69.69.69.38 0 .69-.31.69-.69v-8.61c0-1.8-.71-3.47-2-4.73a6.642 6.642 0 0 0-4.81-1.86zm4.5 11.76v-5.16c0-2.37-1.93-4.3-4.3-4.3s-4.3 1.93-4.3 4.3v.79c0 .38.31.69.69.69.38 0 .69-.31.69-.69v-.79c0-1.61 1.31-2.93 2.93-2.93 1.61 0 2.93 1.31 2.93 2.93v5.16a2.934 2.934 0 0 1-4 2.73.684.684 0 0 0-.94.64v4.68c0 .25-.21.46-.46.46s-.46-.21-.46-.46V554.4c0-.38-.31-.69-.69-.69-.38 0-.69.31-.69.69v10.08a1.83 1.83 0 0 0 3.66 0v-3.79c.21.03.42.05.64.05 2.37 0 4.3-1.93 4.3-4.3zm4.59-5.01V566.06c0 2.41-.95 4.67-2.68 6.35a8.804 8.804 0 0 1-6.2 2.53h-.22c-4.78-.11-8.67-4.17-8.67-9.04v-14.63c0-2.41.95-4.67 2.68-6.35a8.847 8.847 0 0 1 6.42-2.53c4.78.11 8.67 4.17 8.67 9.04zm-1.37 11v-11c0-4.13-3.29-7.57-7.33-7.66-2.04-.05-3.97.71-5.43 2.14a7.474 7.474 0 0 0-2.27 5.37v14.63c0 4.13 3.29 7.57 7.33 7.66 2.04.05 3.97-.71 5.43-2.14a7.474 7.474 0 0 0 2.27-5.37v-3.63zm-9.52-5.99v-5.16a2.01 2.01 0 0 1 4.02 0v5.16c0 1.11-.9 2.01-2.01 2.01a2.023 2.023 0 0 1-2.01-2.01zm1.37 0c0 .35.29.64.64.64.35 0 .64-.29.64-.64v-5.16c0-.35-.29-.64-.64-.64-.35 0-.64.29-.64.64v5.16zM64.14 555.41c.14.13.21.3.21.49v7.62a.68.68 0 0 1-.69.69.69.69 0 0 1-.48-.2.65.65 0 0 1-.21-.49v-7.62a.68.68 0 0 1 .69-.69c.18 0 .34.06.48.2zm-.48-3.4a.68.68 0 0 0-.69.69v.53c0 .19.07.36.21.49a.69.69 0 0 0 .97 0c.13-.13.2-.3.2-.49v-.53a.65.65 0 0 0-.21-.49.69.69 0 0 0-.48-.2zm-2.43 3.48c-.24-.07-.57-.12-.99-.16-.75 0-1.4.21-1.95.62a.712.712 0 0 0-.24-.4.636.636 0 0 0-.42-.15c-.19 0-.35.07-.48.2s-.2.29-.2.48v7.46c0 .19.07.35.2.48a.668.668 0 0 0 .95 0c.13-.13.2-.29.2-.48v-5.08c.01-.25.06-.48.16-.69.09-.21.23-.4.4-.56a1.886 1.886 0 0 1 1.31-.52c.33 0 .64.08.94.25.12.08.25.12.41.12.19 0 .35-.06.48-.19.13-.12.2-.29.2-.49 0-.25-.1-.44-.3-.58-.2-.13-.43-.23-.67-.31zm11.33-.3c-.3 0-.51.14-.64.42l-2.69 6.26-2.69-6.26a.724.724 0 0 0-.26-.31.723.723 0 0 0-.37-.11c-.21 0-.37.07-.49.22a.73.73 0 0 0-.13.74l3.3 7.72c.11.28.32.42.64.42.29 0 .5-.14.64-.42l3.3-7.72c.04-.08.05-.18.05-.27a.71.71 0 0 0-.18-.47c-.11-.15-.28-.22-.48-.22zm7.19 1.94c.18.4.26.82.26 1.27v5.12c0 .19-.07.36-.21.49-.14.13-.3.2-.48.2a.67.67 0 0 1-.44-.15c-.13-.1-.2-.23-.23-.39-.56.41-1.2.62-1.92.62-.45 0-.87-.08-1.27-.25-.4-.17-.75-.4-1.04-.7-.3-.3-.53-.64-.71-1.04-.18-.4-.26-.82-.26-1.27v-2.61c0-.45.08-.87.25-1.27.17-.4.41-.75.71-1.04.3-.3.65-.53 1.04-.7.39-.17.82-.25 1.28-.25.45 0 .87.08 1.27.25.4.17.75.4 1.04.7.3.27.54.62.71 1.02zm-1.11 1.27c0-.25-.05-.5-.15-.73-.1-.23-.24-.43-.41-.61-.17-.18-.37-.31-.61-.41-.24-.1-.48-.15-.74-.15a1.927 1.927 0 0 0-1.35.56 1.927 1.927 0 0 0-.56 1.34v2.61c0 .25.05.5.15.73.1.23.24.43.41.61.17.18.37.31.61.41.24.1.48.15.74.15.25 0 .5-.05.73-.14a1.86 1.86 0 0 0 1.18-1.66v-2.71zm4.17-.72c.1-.23.23-.43.41-.61a1.927 1.927 0 0 1 1.35-.56c.38 0 .72.1 1.03.31.31.21.56.49.73.85.05.13.13.24.25.32.11.08.24.12.39.12a.68.68 0 0 0 .69-.69.85.85 0 0 0-.05-.25c-.19-.48-.44-.86-.74-1.13-.3-.27-.6-.47-.9-.61-.3-.13-.58-.21-.83-.24s-.41-.05-.5-.05c-.46 0-.89.08-1.3.25-.41.17-.76.4-1.07.69-.31.29-.55.64-.73 1.03-.18.4-.26.83-.26 1.29v2.61c0 .45.09.87.26 1.27.18.4.41.75.71 1.04a3.231 3.231 0 0 0 2.31.95c.01 0 .13-.01.35-.02.22-.01.5-.08.82-.2.32-.12.65-.32.99-.6.34-.28.63-.68.87-1.22a.56.56 0 0 0 .05-.25.69.69 0 0 0-.2-.48.65.65 0 0 0-.49-.21c-.15 0-.27.04-.38.12-.11.08-.19.18-.25.32-.16.36-.39.65-.71.85-.31.21-.67.31-1.05.31-.25 0-.5-.05-.74-.15-.24-.1-.44-.23-.61-.41a2.11 2.11 0 0 1-.41-.61 1.8 1.8 0 0 1-.15-.73v-2.61c.02-.23.07-.47.16-.7zm29.37-2.47a.68.68 0 0 0-.69.69v5.12c0 .25-.05.5-.15.73-.1.23-.24.43-.41.61-.17.18-.37.31-.61.41-.24.1-.48.15-.74.15a1.927 1.927 0 0 1-1.35-.56 1.927 1.927 0 0 1-.56-1.34v-5.12a.65.65 0 0 0-.21-.49.69.69 0 0 0-.97 0c-.13.13-.2.3-.2.49v5.12c0 .45.08.87.25 1.27.17.4.41.75.71 1.04.3.3.65.53 1.04.7.39.17.82.25 1.28.25.45 0 .87-.08 1.27-.25.4-.17.75-.4 1.04-.7.3-.3.53-.64.71-1.04.18-.4.26-.82.26-1.27v-5.12a.65.65 0 0 0-.21-.49c-.11-.14-.27-.2-.46-.2zm8.29 1.92c.18.4.26.82.26 1.27v5.12c0 .19-.07.36-.21.49-.14.13-.3.2-.48.2a.67.67 0 0 1-.44-.15c-.13-.1-.2-.23-.23-.39-.56.41-1.2.62-1.92.62-.45 0-.87-.08-1.27-.25-.4-.17-.75-.4-1.04-.7-.3-.3-.53-.64-.71-1.04-.18-.4-.26-.82-.26-1.27v-2.61c0-.45.08-.87.25-1.27.17-.4.41-.75.71-1.04.3-.3.65-.53 1.04-.7.39-.17.82-.25 1.28-.25.45 0 .87.08 1.27.25.4.17.75.4 1.04.7.3.27.54.62.71 1.02zm-1.11 1.27c0-.25-.05-.5-.15-.73-.1-.23-.24-.43-.41-.61-.17-.18-.37-.31-.61-.41-.24-.1-.48-.15-.74-.15a1.927 1.927 0 0 0-1.35.56 1.927 1.927 0 0 0-.56 1.34v2.61c0 .25.05.5.15.73.1.23.24.43.41.61.17.18.37.31.61.41.24.1.48.15.74.15.25 0 .5-.05.73-.14a1.86 1.86 0 0 0 1.18-1.66v-2.71zm6.99-2.91c-.24-.07-.57-.12-.99-.16-.75 0-1.4.21-1.95.62a.712.712 0 0 0-.24-.4.636.636 0 0 0-.42-.15c-.19 0-.35.07-.48.2s-.2.29-.2.48v7.46c0 .19.07.35.2.48a.668.668 0 0 0 .95 0c.13-.13.2-.29.2-.48v-5.08c.01-.25.06-.48.16-.69.09-.21.23-.4.4-.56a1.886 1.886 0 0 1 1.31-.52c.33 0 .64.08.94.25.12.08.25.12.41.12.19 0 .35-.06.48-.19.13-.12.2-.29.2-.49 0-.25-.1-.44-.3-.58-.21-.13-.43-.23-.67-.31zm7.72-3.28c.14.13.21.3.21.49v10.82a.68.68 0 0 1-.69.69.69.69 0 0 1-.48-.2.567.567 0 0 1-.18-.36c-.2.15-.41.28-.65.38-.4.17-.82.25-1.27.25-.46 0-.89-.08-1.28-.25a3.343 3.343 0 0 1-1.75-1.74c-.17-.4-.25-.82-.25-1.27v-2.61c0-.45.09-.87.26-1.27.18-.4.41-.75.71-1.04a3.231 3.231 0 0 1 2.31-.95c.35 0 .69.05 1.01.16.32.11.62.26.9.45v-3.05a.68.68 0 0 1 .69-.69c.16-.01.32.06.46.19zm-1.33 9.53c.09-.2.13-.4.14-.62v-2.84c-.01-.21-.05-.42-.13-.61-.1-.23-.23-.43-.41-.61a1.927 1.927 0 0 0-1.35-.56c-.25 0-.5.05-.74.15-.24.1-.44.23-.61.41-.17.18-.31.38-.41.61-.1.23-.15.47-.15.73v2.61a1.927 1.927 0 0 0 .56 1.34 1.927 1.927 0 0 0 1.35.56c.25 0 .5-.05.74-.15.24-.1.44-.23.61-.41.16-.18.3-.38.4-.61zm-37.96-6.53a.68.68 0 0 0-.69.69v5.12c0 .25-.05.5-.15.73-.1.23-.24.43-.41.61-.17.18-.37.31-.61.41-.24.1-.48.15-.74.15a1.927 1.927 0 0 1-1.35-.56 1.927 1.927 0 0 1-.56-1.34v-5.12a.65.65 0 0 0-.21-.49.69.69 0 0 0-.97 0c-.13.13-.2.3-.2.49v5.12c0 .45.08.87.25 1.27.17.4.41.75.71 1.04.3.3.65.53 1.04.7.39.17.82.25 1.28.25a3.198 3.198 0 0 0 1.91-.61v1.72c-.01.25-.07.49-.16.71-.1.22-.23.41-.41.57-.18.16-.38.29-.6.39-.22.1-.47.15-.74.15-.34 0-.66-.08-.96-.25a.746.746 0 0 0-.42-.13c-.19 0-.36.06-.49.19a.67.67 0 0 0-.2.5c0 .25.1.45.31.59.21.14.43.24.68.32.25.07.58.13 1.01.16.76 0 1.43-.21 2-.64.87-.62 1.36-1.51 1.36-2.51v-4.43-5.12a.65.65 0 0 0-.21-.49.61.61 0 0 0-.47-.19zm9.58 2.92h-2.88c-.39 0-.7.29-.7.67 0 .39.31.7.7.7h2.29v1.08c0 1.48-1.34 2.59-2.75 2.59-1.56 0-2.88-1.07-2.88-2.88v-4.14c0-1.69 1.27-2.88 2.84-2.88 1.32 0 2.33.88 2.72 1.97.13.23.31.37.62.37.54 0 .88-.43.61-1.06-.44-1.33-1.8-2.7-3.96-2.7-2.48 0-4.26 1.96-4.26 4.21v4.31c0 2.27 1.79 4.22 4.26 4.22 2.23 0 4.12-1.74 4.12-3.73v-2.07c.01-.41-.33-.66-.73-.66zm-48.83-3.1c.22.51.34 1.05.34 1.63 0 .58-.11 1.12-.34 1.62-.22.5-.53.94-.91 1.32-.38.38-.83.68-1.34.9-.51.22-1.06.33-1.64.33h-2.06v2.7c0 .19-.07.35-.2.48s-.29.2-.48.2c-.18 0-.33-.07-.47-.2a.62.62 0 0 1-.2-.48v-10.37c0-.19.06-.35.2-.48.13-.13.29-.2.48-.2h2.74c.58 0 1.12.11 1.63.33.51.22.96.51 1.34.89.38.38.68.82.91 1.33zm-1.01 1.64c0-.39-.08-.76-.23-1.1-.15-.34-.36-.64-.62-.9a2.94 2.94 0 0 0-.91-.6c-.35-.15-.72-.22-1.11-.22h-2.06v5.65h2.06c.4 0 .78-.07 1.13-.22.35-.15.65-.35.91-.6s.46-.55.61-.9c.14-.36.22-.72.22-1.11zm80.45-4.38h.25v.77h.22v-.77h.26v-.18h-.73v.18zm1.81-.18h-.28l-.1.32-.09.34a4.18 4.18 0 0 0-.08-.34l-.09-.32h-.29l-.06.95h.2l.02-.36c.01-.12.01-.26.02-.39.02.12.05.26.09.37l.1.37h.17l.12-.37c.04-.11.08-.25.11-.37 0 .14 0 .28.01.39l.01.36h.21l-.07-.95z"/></g></svg>