<?xml version="1.0" encoding="utf-8"?>
<!-- Generator: Adobe Illustrator 24.2.3, SVG Export Plug-In . SVG Version: 6.00 Build 0)  -->
<svg version="1.1" id="Layer_1" xmlns="http://www.w3.org/2000/svg" xmlns:xlink="http://www.w3.org/1999/xlink" x="0px" y="0px"
	 viewBox="0 0 300 250" style="enable-background:new 0 0 300 250;" xml:space="preserve">
<style type="text/css">
	.st0{fill:#FFFFFF;}
	.st1{font-family:'Roboto-Bold';}
	.st2{font-size:14px;}
</style>
<g>
	<path class="st0" d="M124.64,94.97h-4.79V108h-3.22V94.97h-4.73v-2.61h12.74V94.97z"/>
	<path class="st0" d="M129.3,97.64c0.82-0.99,1.86-1.48,3.1-1.48c2.52,0,3.8,1.46,3.83,4.39V108h-3.1v-7.36
		c0-0.67-0.14-1.16-0.43-1.48c-0.29-0.32-0.76-0.48-1.43-0.48c-0.91,0-1.57,0.35-1.98,1.05V108h-3.1V91.5h3.1V97.64z"/>
	<path class="st0" d="M143.93,108.21c-1.7,0-3.09-0.52-4.16-1.57c-1.07-1.05-1.61-2.44-1.61-4.18v-0.3c0-1.17,0.23-2.21,0.68-3.13
		c0.45-0.92,1.09-1.63,1.92-2.13c0.83-0.5,1.77-0.75,2.83-0.75c1.59,0,2.84,0.5,3.75,1.5c0.91,1,1.37,2.42,1.37,4.26v1.27h-7.4
		c0.1,0.76,0.4,1.37,0.91,1.83c0.51,0.46,1.14,0.69,1.92,0.69c1.2,0,2.13-0.43,2.8-1.3l1.53,1.71c-0.47,0.66-1.1,1.17-1.89,1.54
		C145.78,108.03,144.9,108.21,143.93,108.21z M143.58,98.67c-0.62,0-1.12,0.21-1.5,0.63c-0.38,0.42-0.63,1.01-0.74,1.79h4.32v-0.25
		c-0.01-0.69-0.2-1.22-0.56-1.6C144.75,98.85,144.24,98.67,143.58,98.67z"/>
	<path class="st0" d="M157.01,99.29c-0.42-0.06-0.79-0.09-1.12-0.09c-1.17,0-1.94,0.4-2.31,1.19V108h-3.1V96.38h2.93l0.09,1.39
		c0.62-1.07,1.49-1.6,2.59-1.6c0.34,0,0.67,0.05,0.97,0.14L157.01,99.29z"/>
	<path class="st0" d="M163.85,108.21c-1.7,0-3.09-0.52-4.16-1.57c-1.07-1.05-1.61-2.44-1.61-4.18v-0.3c0-1.17,0.23-2.21,0.68-3.13
		c0.45-0.92,1.09-1.63,1.92-2.13c0.83-0.5,1.77-0.75,2.83-0.75c1.59,0,2.84,0.5,3.75,1.5c0.91,1,1.37,2.42,1.37,4.26v1.27h-7.4
		c0.1,0.76,0.4,1.37,0.91,1.83c0.51,0.46,1.14,0.69,1.92,0.69c1.2,0,2.13-0.43,2.8-1.3l1.53,1.71c-0.47,0.66-1.1,1.17-1.89,1.54
		C165.7,108.03,164.82,108.21,163.85,108.21z M163.5,98.67c-0.62,0-1.12,0.21-1.5,0.63c-0.38,0.42-0.63,1.01-0.74,1.79h4.32v-0.25
		c-0.01-0.69-0.2-1.22-0.56-1.6C164.66,98.85,164.15,98.67,163.5,98.67z"/>
	<path class="st0" d="M185.98,103.78l1.53-7.4h3L187.54,108h-2.6l-2.2-7.32l-2.2,7.32h-2.59l-2.96-11.62h3l1.51,7.39l2.13-7.39h2.25
		L185.98,103.78z"/>
	<path class="st0" d="M197.39,108.21c-1.7,0-3.09-0.52-4.16-1.57c-1.07-1.05-1.61-2.44-1.61-4.18v-0.3c0-1.17,0.23-2.21,0.68-3.13
		c0.45-0.92,1.09-1.63,1.92-2.13c0.83-0.5,1.77-0.75,2.83-0.75c1.59,0,2.84,0.5,3.75,1.5c0.91,1,1.37,2.42,1.37,4.26v1.27h-7.4
		c0.1,0.76,0.4,1.37,0.91,1.83c0.51,0.46,1.14,0.69,1.92,0.69c1.2,0,2.13-0.43,2.8-1.3l1.53,1.71c-0.47,0.66-1.1,1.17-1.89,1.54
		C199.23,108.03,198.35,108.21,197.39,108.21z M197.03,98.67c-0.62,0-1.12,0.21-1.5,0.63c-0.38,0.42-0.63,1.01-0.74,1.79h4.32v-0.25
		c-0.01-0.69-0.2-1.22-0.56-1.6C198.2,98.85,197.69,98.67,197.03,98.67z"/>
	<path class="st0" d="M210.46,99.29c-0.42-0.06-0.79-0.09-1.12-0.09c-1.17,0-1.94,0.4-2.31,1.19V108h-3.1V96.38h2.93l0.09,1.39
		c0.62-1.07,1.49-1.6,2.59-1.6c0.34,0,0.67,0.05,0.97,0.14L210.46,99.29z"/>
	<path class="st0" d="M217.3,108.21c-1.7,0-3.09-0.52-4.16-1.57c-1.07-1.05-1.61-2.44-1.61-4.18v-0.3c0-1.17,0.23-2.21,0.68-3.13
		c0.45-0.92,1.09-1.63,1.92-2.13c0.83-0.5,1.77-0.75,2.83-0.75c1.59,0,2.84,0.5,3.75,1.5c0.91,1,1.37,2.42,1.37,4.26v1.27h-7.4
		c0.1,0.76,0.4,1.37,0.91,1.83c0.51,0.46,1.14,0.69,1.92,0.69c1.2,0,2.13-0.43,2.8-1.3l1.53,1.71c-0.47,0.66-1.1,1.17-1.89,1.54
		C219.15,108.03,218.27,108.21,217.3,108.21z M216.95,98.67c-0.62,0-1.12,0.21-1.5,0.63c-0.38,0.42-0.63,1.01-0.74,1.79h4.32v-0.25
		c-0.01-0.69-0.2-1.22-0.56-1.6C218.12,98.85,217.61,98.67,216.95,98.67z"/>
	<path class="st0" d="M116.84,129.9h2.11c1,0,1.75-0.25,2.23-0.75s0.72-1.17,0.72-2c0-0.8-0.24-1.43-0.72-1.87s-1.14-0.67-1.98-0.67
		c-0.76,0-1.39,0.21-1.9,0.62s-0.77,0.96-0.77,1.62h-3.95c0-1.04,0.28-1.97,0.84-2.8s1.34-1.47,2.35-1.93s2.12-0.7,3.33-0.7
		c2.11,0,3.75,0.5,4.95,1.51s1.79,2.39,1.79,4.16c0,0.91-0.28,1.75-0.83,2.52s-1.29,1.35-2.19,1.76c1.12,0.4,1.96,1,2.51,1.8
		s0.83,1.75,0.83,2.84c0,1.77-0.64,3.19-1.93,4.25s-3,1.6-5.12,1.6c-1.99,0-3.61-0.52-4.87-1.57s-1.89-2.43-1.89-4.16h3.95
		c0,0.75,0.28,1.36,0.84,1.83s1.25,0.71,2.07,0.71c0.94,0,1.67-0.25,2.21-0.75s0.8-1.16,0.8-1.98c0-1.99-1.09-2.98-3.28-2.98h-2.09
		V129.9z"/>
	<path class="st0" d="M139.73,126.81l0.12,1.65c1.05-1.29,2.47-1.93,4.25-1.93c1.91,0,3.21,0.75,3.92,2.26
		c1.04-1.5,2.52-2.26,4.44-2.26c1.6,0,2.8,0.47,3.58,1.4s1.18,2.34,1.18,4.22v9.45h-3.96v-9.43c0-0.84-0.16-1.45-0.49-1.84
		s-0.91-0.58-1.74-0.58c-1.18,0-2,0.57-2.46,1.7l0.01,10.16h-3.95v-9.42c0-0.86-0.17-1.48-0.51-1.86s-0.91-0.57-1.72-0.57
		c-1.12,0-1.93,0.46-2.43,1.39v10.46h-3.95v-14.79H139.73z"/>
	<path class="st0" d="M160.24,122.98c0-0.59,0.2-1.08,0.59-1.46s0.94-0.57,1.62-0.57c0.67,0,1.21,0.19,1.61,0.57s0.6,0.87,0.6,1.46
		c0,0.6-0.2,1.09-0.61,1.48s-0.94,0.57-1.61,0.57s-1.2-0.19-1.61-0.57S160.24,123.58,160.24,122.98z M164.44,141.6h-3.96v-14.79
		h3.96V141.6z"/>
	<path class="st0" d="M171.86,141.6h-3.96v-21h3.96V141.6z"/>
	<path class="st0" d="M179.28,141.6h-3.96v-21h3.96V141.6z"/>
	<path class="st0" d="M182.51,122.98c0-0.59,0.2-1.08,0.59-1.46s0.94-0.57,1.62-0.57c0.67,0,1.21,0.19,1.61,0.57s0.6,0.87,0.6,1.46
		c0,0.6-0.2,1.09-0.61,1.48s-0.94,0.57-1.61,0.57s-1.2-0.19-1.61-0.57S182.51,123.58,182.51,122.98z M186.71,141.6h-3.96v-14.79
		h3.96V141.6z"/>
	<path class="st0" d="M189.35,134.07c0-1.47,0.28-2.78,0.85-3.92s1.38-2.04,2.44-2.67s2.29-0.94,3.7-0.94c2,0,3.62,0.61,4.89,1.83
		s1.97,2.88,2.11,4.98l0.03,1.01c0,2.27-0.63,4.09-1.9,5.46s-2.97,2.06-5.1,2.06s-3.83-0.68-5.11-2.05s-1.91-3.23-1.91-5.58V134.07z
		 M193.3,134.35c0,1.41,0.26,2.48,0.79,3.22c0.53,0.74,1.29,1.12,2.27,1.12c0.96,0,1.7-0.37,2.24-1.1c0.54-0.73,0.81-1.91,0.81-3.53
		c0-1.38-0.27-2.45-0.81-3.2s-1.29-1.14-2.27-1.14c-0.97,0-1.71,0.38-2.24,1.13S193.3,132.77,193.3,134.35z"/>
	<path class="st0" d="M209.43,126.81l0.12,1.71c1.06-1.32,2.47-1.98,4.25-1.98c1.57,0,2.73,0.46,3.5,1.38s1.16,2.3,1.18,4.13v9.56
		h-3.95v-9.46c0-0.84-0.18-1.45-0.55-1.83s-0.97-0.57-1.82-0.57c-1.11,0-1.95,0.47-2.5,1.42v10.43h-3.95v-14.79H209.43z"/>
	<path class="st0" d="M112.64,153.37c0-0.47,0.16-0.85,0.47-1.15c0.31-0.3,0.74-0.45,1.27-0.45c0.53,0,0.95,0.15,1.27,0.45
		s0.47,0.68,0.47,1.15c0,0.47-0.16,0.86-0.48,1.16c-0.32,0.3-0.74,0.45-1.26,0.45s-0.94-0.15-1.26-0.45
		C112.8,154.23,112.64,153.84,112.64,153.37z M115.94,168h-3.12v-11.62h3.12V168z"/>
	<path class="st0" d="M118.01,162.1c0-1.81,0.41-3.25,1.22-4.33c0.81-1.07,1.92-1.61,3.34-1.61c1.13,0,2.07,0.42,2.8,1.27v-5.93
		h3.12V168h-2.8l-0.15-1.24c-0.77,0.97-1.77,1.45-2.99,1.45c-1.37,0-2.46-0.54-3.29-1.62C118.43,165.52,118.01,164.02,118.01,162.1z
		 M121.12,162.33c0,1.09,0.19,1.93,0.57,2.51s0.93,0.87,1.65,0.87c0.96,0,1.64-0.41,2.03-1.22v-4.59c-0.39-0.81-1.06-1.22-2.01-1.22
		C121.87,158.69,121.12,159.9,121.12,162.33z"/>
	<path class="st0" d="M136.24,168.21c-1.7,0-3.09-0.52-4.16-1.57c-1.07-1.05-1.61-2.44-1.61-4.18v-0.3c0-1.17,0.23-2.21,0.68-3.13
		c0.45-0.92,1.09-1.63,1.92-2.13c0.83-0.5,1.77-0.75,2.83-0.75c1.59,0,2.84,0.5,3.75,1.5c0.91,1,1.37,2.42,1.37,4.26v1.27h-7.4
		c0.1,0.76,0.4,1.37,0.91,1.83c0.51,0.46,1.14,0.69,1.92,0.69c1.2,0,2.13-0.43,2.8-1.3l1.53,1.71c-0.47,0.66-1.1,1.17-1.89,1.54
		C138.09,168.03,137.21,168.21,136.24,168.21z M135.89,158.67c-0.62,0-1.12,0.21-1.5,0.63c-0.38,0.42-0.63,1.01-0.74,1.79h4.32
		v-0.25c-0.01-0.69-0.2-1.22-0.56-1.6S136.55,158.67,135.89,158.67z"/>
	<path class="st0" d="M145.64,156.38l0.1,1.34c0.83-1.04,1.94-1.56,3.34-1.56c1.23,0,2.15,0.36,2.75,1.08s0.91,1.8,0.92,3.24V168
		h-3.1v-7.43c0-0.66-0.14-1.14-0.43-1.43c-0.29-0.3-0.76-0.45-1.43-0.45c-0.87,0-1.53,0.37-1.97,1.12v8.2h-3.1v-11.62H145.64z"/>
	<path class="st0" d="M158.82,153.52v2.86h1.99v2.28h-1.99v5.8c0,0.43,0.08,0.74,0.25,0.92s0.48,0.28,0.95,0.28
		c0.34,0,0.65-0.03,0.91-0.08v2.35c-0.61,0.19-1.24,0.28-1.88,0.28c-2.18,0-3.29-1.1-3.33-3.3v-6.26h-1.7v-2.28h1.7v-2.86H158.82z"
		/>
	<path class="st0" d="M162.52,153.37c0-0.47,0.16-0.85,0.47-1.15c0.31-0.3,0.74-0.45,1.27-0.45c0.53,0,0.95,0.15,1.27,0.45
		s0.47,0.68,0.47,1.15c0,0.47-0.16,0.86-0.48,1.16c-0.32,0.3-0.74,0.45-1.26,0.45s-0.94-0.15-1.26-0.45
		C162.68,154.23,162.52,153.84,162.52,153.37z M165.82,168h-3.12v-11.62h3.12V168z"/>
	<path class="st0" d="M172.09,153.52v2.86h1.99v2.28h-1.99v5.8c0,0.43,0.08,0.74,0.25,0.92s0.48,0.28,0.95,0.28
		c0.34,0,0.65-0.03,0.91-0.08v2.35c-0.61,0.19-1.24,0.28-1.88,0.28c-2.18,0-3.29-1.1-3.33-3.3v-6.26h-1.7v-2.28h1.7v-2.86H172.09z"
		/>
	<path class="st0" d="M180.15,163.61l2.15-7.23h3.33l-4.67,13.43l-0.26,0.61c-0.69,1.52-1.84,2.28-3.44,2.28
		c-0.45,0-0.91-0.07-1.38-0.2v-2.35l0.47,0.01c0.59,0,1.03-0.09,1.32-0.27c0.29-0.18,0.52-0.48,0.68-0.89l0.37-0.96l-4.07-11.66
		h3.34L180.15,163.61z"/>
	<path class="st0" d="M196.04,153.52v2.86h1.99v2.28h-1.99v5.8c0,0.43,0.08,0.74,0.25,0.92s0.48,0.28,0.95,0.28
		c0.34,0,0.65-0.03,0.91-0.08v2.35c-0.61,0.19-1.24,0.28-1.88,0.28c-2.18,0-3.29-1.1-3.33-3.3v-6.26h-1.7v-2.28h1.7v-2.86H196.04z"
		/>
	<path class="st0" d="M202.79,157.64c0.82-0.99,1.86-1.48,3.1-1.48c2.52,0,3.8,1.46,3.83,4.39V168h-3.1v-7.36
		c0-0.67-0.14-1.16-0.43-1.48c-0.29-0.32-0.76-0.48-1.43-0.48c-0.91,0-1.57,0.35-1.98,1.05V168h-3.1v-16.5h3.1V157.64z"/>
	<path class="st0" d="M217.42,168.21c-1.7,0-3.09-0.52-4.16-1.57c-1.07-1.05-1.61-2.44-1.61-4.18v-0.3c0-1.17,0.23-2.21,0.68-3.13
		c0.45-0.92,1.09-1.63,1.92-2.13c0.83-0.5,1.77-0.75,2.83-0.75c1.59,0,2.84,0.5,3.75,1.5c0.91,1,1.37,2.42,1.37,4.26v1.27h-7.4
		c0.1,0.76,0.4,1.37,0.91,1.83c0.51,0.46,1.14,0.69,1.92,0.69c1.2,0,2.13-0.43,2.8-1.3l1.53,1.71c-0.47,0.66-1.1,1.17-1.89,1.54
		C219.27,168.03,218.39,168.21,217.42,168.21z M217.07,158.67c-0.62,0-1.12,0.21-1.5,0.63c-0.38,0.42-0.63,1.01-0.74,1.79h4.32
		v-0.25c-0.01-0.69-0.2-1.22-0.56-1.6S217.73,158.67,217.07,158.67z"/>
	<path class="st0" d="M224.81,168v-9.35h-1.73v-2.28h1.73v-0.99c0-1.3,0.37-2.31,1.12-3.04c0.75-0.72,1.79-1.08,3.14-1.08
		c0.43,0,0.96,0.07,1.58,0.21l-0.03,2.41c-0.26-0.06-0.57-0.1-0.95-0.1c-1.17,0-1.75,0.55-1.75,1.64v0.93h2.31v2.28h-2.31V168
		H224.81z"/>
	<path class="st0" d="M235.56,153.52v2.86h1.99v2.28h-1.99v5.8c0,0.43,0.08,0.74,0.25,0.92s0.48,0.28,0.95,0.28
		c0.34,0,0.65-0.03,0.91-0.08v2.35c-0.61,0.19-1.24,0.28-1.88,0.28c-2.18,0-3.29-1.1-3.33-3.3v-6.26h-1.7v-2.28h1.7v-2.86H235.56z"
		/>
	<path class="st0" d="M117.01,190.61l2.16-7.83h3.24l-3.92,11.62h-2.96l-3.92-11.62h3.24L117.01,190.61z"/>
	<path class="st0" d="M123.76,179.77c0-0.47,0.16-0.85,0.47-1.15c0.31-0.3,0.74-0.45,1.27-0.45c0.53,0,0.95,0.15,1.27,0.45
		s0.47,0.68,0.47,1.15c0,0.47-0.16,0.86-0.48,1.16c-0.32,0.3-0.74,0.45-1.26,0.45s-0.94-0.15-1.26-0.45
		C123.92,180.63,123.76,180.24,123.76,179.77z M127.06,194.4h-3.12v-11.62h3.12V194.4z"/>
	<path class="st0" d="M134.45,192.11c0.57,0,1.04-0.16,1.4-0.47s0.54-0.73,0.56-1.26h2.91c-0.01,0.79-0.22,1.51-0.64,2.16
		c-0.42,0.66-1,1.16-1.73,1.53c-0.73,0.36-1.55,0.54-2.43,0.54c-1.66,0-2.97-0.53-3.93-1.58c-0.96-1.06-1.44-2.52-1.44-4.38v-0.2
		c0-1.79,0.48-3.22,1.43-4.29s2.26-1.6,3.92-1.6c1.45,0,2.62,0.41,3.5,1.24c0.88,0.83,1.32,1.93,1.34,3.3h-2.91
		c-0.01-0.6-0.2-1.1-0.56-1.47s-0.83-0.57-1.42-0.57c-0.72,0-1.27,0.26-1.64,0.79c-0.37,0.53-0.55,1.38-0.55,2.57v0.32
		c0,1.2,0.18,2.06,0.55,2.58S133.7,192.11,134.45,192.11z"/>
	<path class="st0" d="M144.8,179.92v2.86h1.99v2.28h-1.99v5.8c0,0.43,0.08,0.74,0.25,0.92s0.48,0.28,0.95,0.28
		c0.34,0,0.65-0.03,0.91-0.08v2.35c-0.61,0.19-1.24,0.28-1.88,0.28c-2.18,0-3.29-1.1-3.33-3.3v-6.26H140v-2.28h1.7v-2.86H144.8z"/>
	<path class="st0" d="M148.5,179.77c0-0.47,0.16-0.85,0.47-1.15c0.31-0.3,0.74-0.45,1.27-0.45c0.53,0,0.95,0.15,1.27,0.45
		s0.47,0.68,0.47,1.15c0,0.47-0.16,0.86-0.48,1.16c-0.32,0.3-0.74,0.45-1.26,0.45s-0.94-0.15-1.26-0.45
		C148.66,180.63,148.5,180.24,148.5,179.77z M151.8,194.4h-3.12v-11.62h3.12V194.4z"/>
	<path class="st0" d="M157.26,182.78l0.1,1.3c0.82-1.01,1.94-1.51,3.34-1.51c1.5,0,2.52,0.59,3.08,1.77
		c0.82-1.18,1.98-1.77,3.49-1.77c1.26,0,2.2,0.37,2.81,1.1c0.62,0.73,0.92,1.84,0.92,3.31v7.42h-3.12v-7.41
		c0-0.66-0.13-1.14-0.39-1.45c-0.26-0.3-0.71-0.46-1.36-0.46c-0.93,0-1.58,0.44-1.93,1.33l0.01,7.98h-3.1V187
		c0-0.67-0.13-1.16-0.4-1.46s-0.72-0.45-1.35-0.45c-0.88,0-1.52,0.37-1.91,1.1v8.22h-3.1v-11.62H157.26z"/>
	<path class="st0" d="M179.69,191.19c0-0.38-0.19-0.68-0.56-0.9c-0.38-0.22-0.98-0.41-1.81-0.58c-2.76-0.58-4.15-1.75-4.15-3.52
		c0-1.03,0.43-1.89,1.28-2.58c0.86-0.69,1.98-1.04,3.36-1.04c1.48,0,2.66,0.35,3.54,1.04c0.88,0.69,1.33,1.6,1.33,2.71h-3.1
		c0-0.44-0.14-0.81-0.43-1.1c-0.29-0.29-0.73-0.44-1.34-0.44c-0.52,0-0.93,0.12-1.21,0.35s-0.43,0.54-0.43,0.9
		c0,0.34,0.16,0.62,0.49,0.83c0.33,0.21,0.88,0.39,1.65,0.55c0.77,0.15,1.42,0.33,1.96,0.52c1.64,0.6,2.46,1.64,2.46,3.13
		c0,1.06-0.46,1.92-1.36,2.57c-0.91,0.65-2.08,0.98-3.52,0.98c-0.97,0-1.84-0.17-2.59-0.52c-0.75-0.35-1.35-0.82-1.78-1.43
		c-0.43-0.61-0.64-1.26-0.64-1.96h2.94c0.03,0.55,0.23,0.97,0.61,1.27s0.89,0.44,1.53,0.44c0.59,0,1.04-0.11,1.35-0.34
		C179.54,191.85,179.69,191.55,179.69,191.19z"/>
	<path class="st0" d="M190.17,179.77c0-0.47,0.16-0.85,0.47-1.15c0.31-0.3,0.74-0.45,1.27-0.45c0.53,0,0.95,0.15,1.27,0.45
		s0.47,0.68,0.47,1.15c0,0.47-0.16,0.86-0.48,1.16c-0.32,0.3-0.74,0.45-1.26,0.45s-0.94-0.15-1.26-0.45
		C190.33,180.63,190.17,180.24,190.17,179.77z M193.47,194.4h-3.12v-11.62h3.12V194.4z"/>
	<path class="st0" d="M198.88,182.78l0.1,1.34c0.83-1.04,1.94-1.56,3.34-1.56c1.23,0,2.15,0.36,2.75,1.08s0.91,1.8,0.92,3.24v7.51
		h-3.1v-7.43c0-0.66-0.14-1.14-0.43-1.43c-0.29-0.3-0.76-0.45-1.43-0.45c-0.87,0-1.53,0.37-1.97,1.12v8.2h-3.1v-11.62H198.88z"/>
	<path class="st0" d="M224.41,194.4h-10.72v-2.13l5.06-5.39c0.69-0.76,1.21-1.42,1.54-1.99c0.33-0.57,0.5-1.1,0.5-1.61
		c0-0.69-0.18-1.24-0.53-1.64c-0.35-0.4-0.85-0.6-1.5-0.6c-0.7,0-1.25,0.24-1.66,0.73c-0.41,0.48-0.61,1.12-0.61,1.91h-3.12
		c0-0.95,0.23-1.82,0.68-2.61c0.46-0.79,1.1-1.41,1.93-1.85c0.83-0.45,1.77-0.67,2.83-0.67c1.61,0,2.86,0.39,3.75,1.16
		c0.89,0.77,1.34,1.87,1.34,3.28c0,0.77-0.2,1.56-0.6,2.36s-1.09,1.74-2.06,2.8l-3.56,3.75h6.72V194.4z"/>
	<path class="st0" d="M236.84,187.93c0,2.16-0.45,3.82-1.34,4.96s-2.21,1.72-3.93,1.72c-1.7,0-3.01-0.56-3.91-1.69
		s-1.36-2.74-1.39-4.83v-2.88c0-2.18,0.45-3.84,1.36-4.97c0.91-1.13,2.21-1.7,3.92-1.7s3.01,0.56,3.91,1.68
		c0.9,1.12,1.36,2.73,1.39,4.83V187.93z M233.74,184.77c0-1.3-0.18-2.24-0.53-2.83c-0.36-0.59-0.91-0.89-1.66-0.89
		c-0.73,0-1.27,0.28-1.62,0.84c-0.35,0.56-0.53,1.44-0.55,2.64v3.81c0,1.28,0.17,2.22,0.52,2.84c0.35,0.62,0.9,0.93,1.67,0.93
		c0.76,0,1.31-0.3,1.64-0.89s0.51-1.5,0.53-2.73V184.77z"/>
	<path class="st0" d="M246.48,194.4h-3.1v-11.97l-3.71,1.15v-2.52l6.48-2.32h0.33V194.4z"/>
	<path class="st0" d="M258.82,188.15c-0.81,0.79-1.75,1.19-2.84,1.19c-1.38,0-2.49-0.47-3.32-1.42c-0.83-0.95-1.25-2.23-1.25-3.84
		c0-1.02,0.22-1.96,0.67-2.82c0.45-0.86,1.07-1.52,1.87-2c0.8-0.48,1.7-0.71,2.71-0.71c1.03,0,1.95,0.26,2.75,0.77
		s1.42,1.26,1.87,2.22s0.67,2.07,0.68,3.32v1.15c0,2.61-0.65,4.66-1.94,6.14s-3.13,2.28-5.51,2.38l-0.76,0.01v-2.59l0.69-0.01
		C257.14,191.83,258.6,190.56,258.82,188.15z M256.75,186.97c0.5,0,0.93-0.13,1.29-0.39c0.36-0.26,0.63-0.57,0.82-0.93v-1.28
		c0-1.05-0.2-1.87-0.6-2.45s-0.94-0.87-1.61-0.87c-0.62,0-1.13,0.28-1.54,0.85c-0.4,0.57-0.6,1.28-0.6,2.14
		c0,0.85,0.2,1.55,0.59,2.1C255.49,186.69,256.04,186.97,256.75,186.97z"/>
	<path class="st0" d="M264.47,192.88c0-0.49,0.17-0.9,0.5-1.2c0.33-0.31,0.75-0.46,1.25-0.46c0.51,0,0.93,0.15,1.26,0.46
		c0.33,0.31,0.5,0.71,0.5,1.2c0,0.49-0.17,0.88-0.49,1.19c-0.33,0.3-0.75,0.46-1.27,0.46c-0.51,0-0.93-0.15-1.26-0.46
		C264.64,193.76,264.47,193.36,264.47,192.88z"/>
</g>
<text transform="matrix(1 0 0 1 269.0989 188.2643)" class="st0 st1 st2">*</text>
</svg>
