<?xml version="1.0" encoding="utf-8"?>
<!-- Generator: Adobe Illustrator 25.2.1, SVG Export Plug-In . SVG Version: 6.00 Build 0)  -->
<svg version="1.1" id="Layer_1" xmlns="http://www.w3.org/2000/svg" xmlns:xlink="http://www.w3.org/1999/xlink" x="0px" y="0px"
	 viewBox="0 0 300 250" style="enable-background:new 0 0 300 250;" xml:space="preserve">
<style type="text/css">
	.st0{fill:#021D8B;}
	.st1{fill:#18B9FB;}
</style>
<g id="Tis_the_season_3_">
	<g>
		<path class="st0" d="M172.56,173.32l1.01-5.49h2.09l-1.86,8.76h-2.19l-1.17-5l-1.15,5h-2.18l-1.87-8.76h2.1l1.01,5.49l1.2-5.49
			h1.79L172.56,173.32z"/>
		<path class="st0" d="M179.35,176.7c-1,0-1.81-0.3-2.43-0.89c-0.62-0.6-0.93-1.37-0.93-2.33v-0.17c0-0.67,0.12-1.25,0.37-1.76
			c0.25-0.51,0.61-0.9,1.08-1.18s1.04-0.42,1.69-0.42c0.91,0,1.64,0.28,2.17,0.85c0.53,0.57,0.79,1.36,0.79,2.37v0.79h-4.03
			c0.07,0.37,0.23,0.65,0.48,0.86c0.24,0.21,0.56,0.31,0.95,0.31c0.64,0,1.14-0.22,1.5-0.67l0.93,1.1
			c-0.25,0.35-0.61,0.63-1.07,0.83C180.38,176.6,179.89,176.7,179.35,176.7z M179.12,171.52c-0.59,0-0.95,0.39-1.06,1.18h2.05v-0.16
			c0.01-0.32-0.07-0.58-0.25-0.76S179.44,171.52,179.12,171.52z"/>
		<path class="st0" d="M183.96,168.32l-0.2,2.49h-1.25v-3.46h1.44V168.32z"/>
		<path class="st0" d="M186.87,176.58h-2.03v-9.24h2.03V176.58z"/>
		<path class="st0" d="M190.26,176.58h-2.03v-9.24h2.03V176.58z"/>
		<path class="st0" d="M196.49,170.07l0.07,0.76c0.46-0.59,1.08-0.88,1.86-0.88c0.82,0,1.38,0.33,1.67,0.98
			c0.44-0.65,1.08-0.98,1.91-0.98c1.32,0,2,0.8,2.03,2.4v4.24H202v-4.11c0-0.33-0.06-0.58-0.17-0.73c-0.11-0.15-0.32-0.23-0.61-0.23
			c-0.4,0-0.7,0.18-0.9,0.54l0.01,0.08v4.45h-2.03v-4.1c0-0.34-0.05-0.59-0.16-0.74s-0.31-0.23-0.62-0.23
			c-0.39,0-0.69,0.18-0.89,0.54v4.53h-2.03v-6.51H196.49z"/>
		<path class="st0" d="M204.94,173.27c0-0.65,0.13-1.23,0.38-1.74s0.62-0.9,1.09-1.17c0.47-0.27,1.03-0.41,1.67-0.41
			c0.97,0,1.74,0.3,2.31,0.91c0.56,0.6,0.84,1.43,0.84,2.46v0.07c0,1.02-0.28,1.82-0.85,2.42c-0.56,0.6-1.33,0.89-2.29,0.89
			c-0.93,0-1.67-0.28-2.23-0.83s-0.86-1.31-0.91-2.26L204.94,173.27z M206.97,173.39c0,0.6,0.09,1.04,0.28,1.32
			c0.19,0.28,0.47,0.42,0.84,0.42c0.72,0,1.09-0.56,1.11-1.67v-0.2c0-1.17-0.37-1.75-1.12-1.75c-0.68,0-1.05,0.5-1.1,1.51
			L206.97,173.39z"/>
		<path class="st0" d="M213.98,170.07l0.07,0.76c0.45-0.59,1.07-0.88,1.86-0.88c0.68,0,1.18,0.2,1.52,0.61
			c0.34,0.41,0.51,1.02,0.52,1.83v4.19h-2.03v-4.11c0-0.33-0.07-0.57-0.2-0.73c-0.13-0.15-0.37-0.23-0.72-0.23
			c-0.4,0-0.69,0.16-0.88,0.47v4.6h-2.03v-6.51H213.98z"/>
		<path class="st0" d="M219.05,168.39c0-0.29,0.1-0.53,0.31-0.71c0.21-0.18,0.48-0.28,0.81-0.28c0.33,0,0.6,0.09,0.81,0.28
			c0.21,0.18,0.31,0.42,0.31,0.71s-0.1,0.53-0.31,0.71c-0.21,0.18-0.48,0.28-0.81,0.28c-0.33,0-0.6-0.09-0.81-0.28
			C219.15,168.92,219.05,168.68,219.05,168.39z M221.2,176.58h-2.03v-6.51h2.03V176.58z"/>
		<path class="st0" d="M224.82,168.45v1.62h1.07v1.41h-1.07v2.98c0,0.24,0.04,0.42,0.13,0.51c0.09,0.1,0.26,0.14,0.52,0.14
			c0.2,0,0.37-0.01,0.51-0.04v1.45c-0.37,0.12-0.75,0.17-1.14,0.17c-0.7,0-1.21-0.16-1.55-0.49s-0.5-0.83-0.5-1.5v-3.23h-0.83v-1.41
			h0.83v-1.62H224.82z"/>
		<path class="st0" d="M226.25,173.27c0-0.65,0.13-1.23,0.38-1.74s0.62-0.9,1.09-1.17c0.47-0.27,1.03-0.41,1.67-0.41
			c0.97,0,1.74,0.3,2.31,0.91c0.56,0.6,0.84,1.43,0.84,2.46v0.07c0,1.02-0.28,1.82-0.85,2.42c-0.56,0.6-1.33,0.89-2.29,0.89
			c-0.93,0-1.67-0.28-2.23-0.83s-0.86-1.31-0.91-2.26L226.25,173.27z M228.28,173.39c0,0.6,0.09,1.04,0.28,1.32
			c0.19,0.28,0.47,0.42,0.84,0.42c0.72,0,1.09-0.56,1.11-1.67v-0.2c0-1.17-0.37-1.75-1.12-1.75c-0.68,0-1.05,0.5-1.1,1.51
			L228.28,173.39z"/>
		<path class="st0" d="M237.36,171.91l-0.67-0.05c-0.64,0-1.05,0.2-1.23,0.6v4.12h-2.03v-6.51h1.9l0.07,0.84
			c0.34-0.64,0.82-0.96,1.43-0.96c0.22,0,0.41,0.02,0.57,0.07L237.36,171.91z"/>
		<path class="st0" d="M243.77,173.74l1.08-3.67h2.17l-2.65,7.6l-0.11,0.28c-0.38,0.84-1.04,1.26-2,1.26
			c-0.26,0-0.54-0.04-0.84-0.12v-1.44h0.26c0.28,0,0.5-0.04,0.65-0.12c0.15-0.08,0.26-0.23,0.33-0.44l0.16-0.43l-2.26-6.58h2.17
			L243.77,173.74z"/>
		<path class="st0" d="M247.2,173.27c0-0.65,0.13-1.23,0.38-1.74s0.62-0.9,1.09-1.17c0.47-0.27,1.03-0.41,1.67-0.41
			c0.97,0,1.74,0.3,2.31,0.91c0.56,0.6,0.84,1.43,0.84,2.46v0.07c0,1.02-0.28,1.82-0.85,2.42c-0.56,0.6-1.33,0.89-2.29,0.89
			c-0.93,0-1.67-0.28-2.23-0.83s-0.86-1.31-0.91-2.26L247.2,173.27z M249.23,173.39c0,0.6,0.09,1.04,0.28,1.32
			c0.19,0.28,0.47,0.42,0.84,0.42c0.72,0,1.09-0.56,1.11-1.67v-0.2c0-1.17-0.37-1.75-1.12-1.75c-0.68,0-1.05,0.5-1.1,1.51
			L249.23,173.39z"/>
		<path class="st0" d="M258.26,175.88c-0.43,0.55-1.01,0.82-1.74,0.82c-0.71,0-1.25-0.21-1.62-0.62c-0.37-0.42-0.55-1.01-0.55-1.79
			v-4.22h2.03v4.23c0,0.56,0.27,0.84,0.81,0.84c0.47,0,0.8-0.17,0.99-0.5v-4.57h2.04v6.51h-1.9L258.26,175.88z"/>
		<path class="st0" d="M265.27,171.91l-0.67-0.05c-0.64,0-1.05,0.2-1.23,0.6v4.12h-2.03v-6.51h1.9l0.07,0.84
			c0.34-0.64,0.82-0.96,1.43-0.96c0.22,0,0.41,0.02,0.57,0.07L265.27,171.91z"/>
		<path class="st1" d="M170.29,189.05c0-0.31-0.11-0.55-0.33-0.72c-0.22-0.17-0.6-0.35-1.15-0.54c-0.55-0.18-1-0.36-1.35-0.54
			c-1.14-0.56-1.7-1.32-1.7-2.3c0-0.49,0.14-0.91,0.42-1.28c0.28-0.37,0.68-0.66,1.2-0.87c0.52-0.21,1.1-0.31,1.75-0.31
			c0.63,0,1.19,0.11,1.69,0.34c0.5,0.22,0.89,0.54,1.16,0.96c0.28,0.42,0.42,0.89,0.42,1.42h-2.11c0-0.36-0.11-0.63-0.33-0.83
			c-0.22-0.2-0.51-0.29-0.89-0.29c-0.38,0-0.68,0.08-0.89,0.25c-0.22,0.17-0.33,0.38-0.33,0.63c0,0.22,0.12,0.43,0.36,0.61
			c0.24,0.18,0.66,0.37,1.27,0.57c0.61,0.19,1.1,0.4,1.49,0.63c0.95,0.55,1.42,1.3,1.42,2.26c0,0.77-0.29,1.37-0.87,1.81
			c-0.58,0.44-1.37,0.66-2.38,0.66c-0.71,0-1.35-0.13-1.93-0.38c-0.58-0.25-1.01-0.6-1.3-1.05c-0.29-0.44-0.44-0.95-0.44-1.53h2.12
			c0,0.47,0.12,0.82,0.36,1.04c0.24,0.22,0.64,0.33,1.18,0.33c0.35,0,0.62-0.08,0.83-0.23
			C170.19,189.53,170.29,189.32,170.29,189.05z"/>
		<path class="st1" d="M173.14,188.06c0-0.65,0.13-1.23,0.38-1.74s0.62-0.9,1.09-1.17c0.47-0.27,1.03-0.41,1.67-0.41
			c0.97,0,1.74,0.3,2.31,0.91c0.56,0.6,0.84,1.43,0.84,2.46v0.07c0,1.02-0.28,1.82-0.85,2.42c-0.56,0.6-1.33,0.89-2.29,0.89
			c-0.93,0-1.67-0.28-2.23-0.83s-0.86-1.31-0.91-2.26L173.14,188.06z M175.16,188.19c0,0.6,0.09,1.04,0.28,1.32
			c0.19,0.28,0.47,0.42,0.84,0.42c0.72,0,1.09-0.56,1.11-1.67v-0.2c0-1.17-0.37-1.75-1.12-1.75c-0.68,0-1.05,0.5-1.1,1.51
			L175.16,188.19z"/>
		<path class="st1" d="M183.07,189.93c0.28,0,0.51-0.08,0.66-0.23c0.16-0.15,0.23-0.37,0.23-0.65h1.9c0,0.71-0.26,1.3-0.77,1.76
			c-0.51,0.46-1.17,0.69-1.98,0.69c-0.95,0-1.69-0.3-2.24-0.89c-0.55-0.59-0.82-1.42-0.82-2.47v-0.08c0-0.66,0.12-1.24,0.36-1.74
			c0.24-0.5,0.59-0.89,1.05-1.16c0.46-0.27,1-0.41,1.62-0.41c0.85,0,1.52,0.23,2.02,0.7s0.75,1.11,0.75,1.91h-1.9
			c0-0.34-0.08-0.6-0.25-0.78s-0.39-0.27-0.66-0.27c-0.53,0-0.83,0.33-0.92,1.01c-0.03,0.21-0.04,0.51-0.04,0.88
			c0,0.65,0.08,1.11,0.23,1.36C182.48,189.8,182.72,189.93,183.07,189.93z"/>
		<path class="st1" d="M186.7,183.18c0-0.29,0.1-0.53,0.31-0.71c0.21-0.18,0.48-0.28,0.81-0.28s0.6,0.09,0.81,0.28
			c0.21,0.18,0.31,0.42,0.31,0.71s-0.1,0.53-0.31,0.71c-0.21,0.18-0.48,0.28-0.81,0.28s-0.6-0.09-0.81-0.28
			C186.81,183.71,186.7,183.47,186.7,183.18z M188.86,191.38h-2.03v-6.51h2.03V191.38z"/>
		<path class="st1" d="M193.77,191.38c-0.07-0.13-0.14-0.33-0.19-0.58c-0.37,0.47-0.89,0.7-1.56,0.7c-0.61,0-1.14-0.19-1.56-0.56
			c-0.43-0.37-0.64-0.84-0.64-1.4c0-0.71,0.26-1.24,0.78-1.6c0.52-0.36,1.28-0.54,2.27-0.54h0.63v-0.34c0-0.6-0.26-0.9-0.78-0.9
			c-0.48,0-0.72,0.24-0.72,0.71h-2.03c0-0.63,0.27-1.14,0.8-1.53c0.54-0.39,1.22-0.59,2.05-0.59s1.49,0.2,1.97,0.61
			s0.73,0.96,0.74,1.67v2.88c0.01,0.6,0.1,1.06,0.28,1.37v0.1H193.77z M192.5,190.05c0.25,0,0.46-0.05,0.63-0.16
			c0.17-0.11,0.29-0.23,0.36-0.37v-1.04h-0.59c-0.71,0-1.06,0.32-1.06,0.95c0,0.18,0.06,0.33,0.19,0.45
			C192.15,189.99,192.31,190.05,192.5,190.05z"/>
		<path class="st1" d="M198.79,191.38h-2.03v-9.24h2.03V191.38z"/>
		<path class="st1" d="M207.72,189.05c0-0.31-0.11-0.55-0.33-0.72c-0.22-0.17-0.6-0.35-1.15-0.54c-0.55-0.18-1-0.36-1.35-0.54
			c-1.14-0.56-1.7-1.32-1.7-2.3c0-0.49,0.14-0.91,0.42-1.28c0.28-0.37,0.68-0.66,1.2-0.87c0.52-0.21,1.1-0.31,1.75-0.31
			c0.63,0,1.19,0.11,1.69,0.34c0.5,0.22,0.89,0.54,1.16,0.96c0.28,0.42,0.42,0.89,0.42,1.42h-2.11c0-0.36-0.11-0.63-0.33-0.83
			c-0.22-0.2-0.51-0.29-0.89-0.29c-0.38,0-0.68,0.08-0.89,0.25c-0.22,0.17-0.33,0.38-0.33,0.63c0,0.22,0.12,0.43,0.36,0.61
			c0.24,0.18,0.66,0.37,1.27,0.57c0.61,0.19,1.1,0.4,1.49,0.63c0.95,0.55,1.42,1.3,1.42,2.26c0,0.77-0.29,1.37-0.87,1.81
			c-0.58,0.44-1.37,0.66-2.38,0.66c-0.71,0-1.35-0.13-1.93-0.38c-0.58-0.25-1.01-0.6-1.3-1.05c-0.29-0.44-0.44-0.95-0.44-1.53h2.12
			c0,0.47,0.12,0.82,0.36,1.04c0.24,0.22,0.64,0.33,1.18,0.33c0.35,0,0.62-0.08,0.83-0.23
			C207.62,189.53,207.72,189.32,207.72,189.05z"/>
		<path class="st1" d="M213.97,191.5c-1,0-1.81-0.3-2.43-0.89c-0.62-0.6-0.93-1.37-0.93-2.33v-0.17c0-0.67,0.12-1.25,0.37-1.76
			c0.25-0.51,0.61-0.9,1.08-1.18s1.04-0.42,1.69-0.42c0.91,0,1.64,0.28,2.17,0.85c0.53,0.57,0.79,1.36,0.79,2.37v0.79h-4.03
			c0.07,0.37,0.23,0.65,0.48,0.86c0.24,0.21,0.56,0.31,0.95,0.31c0.64,0,1.14-0.22,1.5-0.67l0.93,1.1
			c-0.25,0.35-0.61,0.63-1.07,0.83C215,191.39,214.5,191.5,213.97,191.5z M213.74,186.31c-0.59,0-0.95,0.39-1.06,1.18h2.05v-0.16
			c0.01-0.32-0.07-0.58-0.25-0.76S214.06,186.31,213.74,186.31z"/>
		<path class="st1" d="M220.28,189.93c0.28,0,0.51-0.08,0.66-0.23c0.16-0.15,0.23-0.37,0.23-0.65h1.9c0,0.71-0.26,1.3-0.77,1.76
			c-0.51,0.46-1.17,0.69-1.98,0.69c-0.95,0-1.69-0.3-2.24-0.89c-0.55-0.59-0.82-1.42-0.82-2.47v-0.08c0-0.66,0.12-1.24,0.36-1.74
			c0.24-0.5,0.59-0.89,1.05-1.16c0.46-0.27,1-0.41,1.62-0.41c0.85,0,1.52,0.23,2.02,0.7s0.75,1.11,0.75,1.91h-1.9
			c0-0.34-0.08-0.6-0.25-0.78s-0.39-0.27-0.66-0.27c-0.53,0-0.83,0.33-0.92,1.01c-0.03,0.21-0.04,0.51-0.04,0.88
			c0,0.65,0.08,1.11,0.23,1.36C219.69,189.8,219.94,189.93,220.28,189.93z"/>
		<path class="st1" d="M227.81,190.67c-0.43,0.55-1.01,0.82-1.74,0.82c-0.71,0-1.25-0.21-1.62-0.62c-0.37-0.42-0.55-1.01-0.55-1.79
			v-4.22h2.03v4.23c0,0.56,0.27,0.84,0.81,0.84c0.47,0,0.8-0.17,0.99-0.5v-4.57h2.04v6.51h-1.9L227.81,190.67z"/>
		<path class="st1" d="M234.82,186.7l-0.67-0.05c-0.64,0-1.05,0.2-1.23,0.6v4.12h-2.03v-6.51h1.9l0.07,0.84
			c0.34-0.64,0.82-0.96,1.43-0.96c0.22,0,0.41,0.02,0.57,0.07L234.82,186.7z"/>
		<path class="st1" d="M235.54,183.18c0-0.29,0.1-0.53,0.31-0.71c0.21-0.18,0.48-0.28,0.81-0.28c0.33,0,0.6,0.09,0.81,0.28
			c0.21,0.18,0.31,0.42,0.31,0.71s-0.1,0.53-0.31,0.71c-0.21,0.18-0.48,0.28-0.81,0.28c-0.33,0-0.6-0.09-0.81-0.28
			C235.64,183.71,235.54,183.47,235.54,183.18z M237.7,191.38h-2.03v-6.51h2.03V191.38z"/>
		<path class="st1" d="M241.31,183.24v1.62h1.07v1.41h-1.07v2.98c0,0.24,0.04,0.42,0.13,0.51c0.09,0.1,0.26,0.14,0.52,0.14
			c0.2,0,0.37-0.01,0.51-0.04v1.45c-0.37,0.12-0.75,0.17-1.14,0.17c-0.7,0-1.21-0.16-1.55-0.49c-0.33-0.33-0.5-0.83-0.5-1.5v-3.23
			h-0.83v-1.41h0.83v-1.62H241.31z"/>
		<path class="st1" d="M245.78,188.53l1.08-3.67h2.17l-2.65,7.6l-0.11,0.28c-0.38,0.84-1.04,1.26-2,1.26
			c-0.26,0-0.54-0.04-0.84-0.12v-1.44h0.26c0.28,0,0.5-0.04,0.65-0.12c0.15-0.08,0.26-0.23,0.33-0.44l0.16-0.43l-2.26-6.58h2.17
			L245.78,188.53z"/>
		<path class="st1" d="M173.09,206.17h-2.1l-3.11-5.45v5.45h-2.11v-8.76h2.11l3.1,5.45v-5.45h2.11V206.17z"/>
		<path class="st1" d="M178.21,205.46c-0.43,0.55-1.01,0.82-1.74,0.82c-0.71,0-1.25-0.21-1.62-0.62c-0.37-0.42-0.55-1.01-0.55-1.79
			v-4.22h2.03v4.23c0,0.56,0.27,0.84,0.81,0.84c0.47,0,0.8-0.17,0.99-0.5v-4.57h2.04v6.51h-1.9L178.21,205.46z"/>
		<path class="st1" d="M183.2,199.65l0.07,0.76c0.46-0.59,1.08-0.88,1.86-0.88c0.82,0,1.38,0.33,1.67,0.98
			c0.44-0.65,1.08-0.98,1.91-0.98c1.32,0,2,0.8,2.03,2.4v4.24h-2.03v-4.11c0-0.33-0.06-0.58-0.17-0.73s-0.32-0.23-0.61-0.23
			c-0.4,0-0.7,0.18-0.9,0.54l0.01,0.08v4.45H185v-4.1c0-0.34-0.05-0.59-0.16-0.74c-0.11-0.15-0.31-0.23-0.62-0.23
			c-0.39,0-0.69,0.18-0.89,0.54v4.53h-2.03v-6.51H183.2z"/>
		<path class="st1" d="M197.94,202.96c0,1.07-0.22,1.89-0.66,2.46c-0.44,0.57-1.06,0.86-1.87,0.86c-0.66,0-1.2-0.26-1.6-0.79
			l-0.08,0.67h-1.82v-9.24h2.03v3.26c0.38-0.43,0.86-0.64,1.46-0.64c0.81,0,1.44,0.29,1.88,0.87c0.44,0.58,0.66,1.4,0.66,2.46
			V202.96z M195.91,202.84c0-0.62-0.08-1.07-0.25-1.34c-0.17-0.27-0.42-0.4-0.77-0.4c-0.46,0-0.77,0.17-0.95,0.52v2.58
			c0.17,0.34,0.49,0.52,0.96,0.52c0.48,0,0.78-0.23,0.91-0.7C195.88,203.8,195.91,203.4,195.91,202.84z"/>
		<path class="st1" d="M201.99,206.29c-1,0-1.81-0.3-2.43-0.89c-0.62-0.6-0.93-1.37-0.93-2.33v-0.17c0-0.67,0.12-1.25,0.37-1.76
			c0.25-0.51,0.61-0.9,1.08-1.18c0.47-0.28,1.04-0.42,1.69-0.42c0.91,0,1.64,0.28,2.17,0.85c0.53,0.57,0.79,1.36,0.79,2.37v0.79
			h-4.03c0.07,0.37,0.23,0.65,0.48,0.86s0.56,0.31,0.95,0.31c0.64,0,1.14-0.22,1.5-0.67l0.93,1.1c-0.25,0.35-0.61,0.63-1.07,0.83
			C203.02,206.18,202.52,206.29,201.99,206.29z M201.76,201.1c-0.59,0-0.95,0.39-1.06,1.18h2.05v-0.16
			c0.01-0.32-0.07-0.58-0.25-0.76C202.33,201.19,202.08,201.1,201.76,201.1z"/>
		<path class="st1" d="M209.49,201.49l-0.67-0.05c-0.64,0-1.05,0.2-1.23,0.6v4.12h-2.03v-6.51h1.9l0.07,0.84
			c0.34-0.64,0.82-0.96,1.43-0.96c0.22,0,0.41,0.02,0.57,0.07L209.49,201.49z"/>
	</g>
</g>
</svg>
