<?xml version="1.0" encoding="utf-8"?>
<!-- Generator: Adobe Illustrator 25.2.1, SVG Export Plug-In . SVG Version: 6.00 Build 0)  -->
<svg version="1.1" id="Layer_1" xmlns="http://www.w3.org/2000/svg" xmlns:xlink="http://www.w3.org/1999/xlink" x="0px" y="0px"
	 viewBox="0 0 300 600" style="enable-background:new 0 0 300 600;" xml:space="preserve">
<style type="text/css">
	.st0{fill:#021D8B;}
</style>
<g>
	<path class="st0" d="M90.47,244.54h-4.96v-20.62h4.96V244.54z"/>
	<path class="st0" d="M99.27,225.41v3.81h2.52v3.31h-2.52v7.01c0,0.58,0.1,0.98,0.31,1.2c0.21,0.23,0.62,0.34,1.23,0.34
		c0.47,0,0.87-0.03,1.19-0.08v3.41c-0.86,0.27-1.76,0.41-2.69,0.41c-1.64,0-2.86-0.39-3.64-1.16c-0.78-0.77-1.17-1.95-1.17-3.53
		v-7.6h-1.95v-3.31h1.95v-3.81H99.27z"/>
	<path class="st0" d="M106.33,225.08l-0.47,5.85h-2.93v-8.14h3.4V225.08z"/>
	<path class="st0" d="M114.86,240.23c0-0.41-0.21-0.73-0.64-0.98c-0.42-0.25-1.23-0.5-2.42-0.77c-1.19-0.26-2.17-0.61-2.95-1.04
		c-0.77-0.43-1.36-0.95-1.77-1.57c-0.41-0.61-0.61-1.32-0.61-2.11c0-1.41,0.58-2.57,1.74-3.48c1.16-0.91,2.68-1.37,4.56-1.37
		c2.02,0,3.64,0.46,4.87,1.37s1.84,2.12,1.84,3.61h-4.79c0-1.23-0.65-1.84-1.94-1.84c-0.5,0-0.92,0.14-1.26,0.42
		s-0.51,0.62-0.51,1.04c0,0.42,0.21,0.77,0.62,1.03s1.08,0.48,1.99,0.65s1.71,0.37,2.4,0.61c2.3,0.79,3.46,2.21,3.46,4.26
		c0,1.4-0.62,2.53-1.86,3.41c-1.24,0.88-2.85,1.32-4.82,1.32c-1.31,0-2.48-0.24-3.51-0.71s-1.83-1.11-2.41-1.93
		s-0.86-1.67-0.86-2.56h4.46c0.02,0.71,0.25,1.23,0.71,1.55c0.45,0.33,1.03,0.49,1.74,0.49c0.65,0,1.14-0.13,1.46-0.4
		C114.7,241,114.86,240.66,114.86,240.23z"/>
	<path class="st0" d="M134.47,225.41v3.81h2.52v3.31h-2.52v7.01c0,0.58,0.1,0.98,0.31,1.2c0.21,0.23,0.62,0.34,1.23,0.34
		c0.47,0,0.87-0.03,1.19-0.08v3.41c-0.86,0.27-1.76,0.41-2.69,0.41c-1.64,0-2.86-0.39-3.64-1.16c-0.78-0.77-1.17-1.95-1.17-3.53
		v-7.6h-1.95v-3.31h1.95v-3.81H134.47z"/>
	<path class="st0" d="M138.83,225.26c0-0.68,0.25-1.24,0.74-1.67s1.13-0.65,1.91-0.65c0.78,0,1.42,0.22,1.91,0.65
		s0.74,0.99,0.74,1.67s-0.25,1.24-0.74,1.67s-1.13,0.65-1.91,0.65c-0.78,0-1.42-0.22-1.91-0.65S138.83,225.94,138.83,225.26z
		 M143.9,244.54h-4.79v-15.32h4.79V244.54z"/>
	<path class="st0" d="M151.35,229.21l0.16,1.8c1.09-1.39,2.54-2.08,4.38-2.08c1.94,0,3.24,0.77,3.92,2.31
		c1.04-1.54,2.54-2.31,4.5-2.31c3.11,0,4.7,1.88,4.79,5.64v9.97h-4.79v-9.67c0-0.78-0.13-1.35-0.4-1.71s-0.75-0.54-1.44-0.54
		c-0.94,0-1.65,0.42-2.11,1.26l0.01,0.2v10.46h-4.79v-9.64c0-0.8-0.13-1.38-0.38-1.74c-0.25-0.36-0.74-0.54-1.46-0.54
		c-0.92,0-1.61,0.42-2.1,1.26v10.66h-4.77v-15.32H151.35z"/>
	<path class="st0" d="M179.23,244.82c-2.35,0-4.25-0.7-5.71-2.1c-1.45-1.4-2.18-3.23-2.18-5.47v-0.4c0-1.57,0.29-2.95,0.87-4.15
		c0.58-1.2,1.43-2.13,2.54-2.78s2.44-0.98,3.96-0.98c2.15,0,3.85,0.67,5.1,2s1.87,3.2,1.87,5.59v1.85h-9.49
		c0.17,0.86,0.54,1.53,1.12,2.03c0.58,0.49,1.32,0.74,2.24,0.74c1.51,0,2.69-0.53,3.54-1.59l2.18,2.58
		c-0.59,0.82-1.44,1.47-2.53,1.96C181.66,244.58,180.49,244.82,179.23,244.82z M178.69,232.61c-1.4,0-2.23,0.92-2.49,2.78h4.81
		v-0.37c0.02-0.76-0.17-1.36-0.58-1.78C180.03,232.82,179.45,232.61,178.69,232.61z"/>
	<path class="st0" d="M200.39,225.41v3.81h2.52v3.31h-2.52v7.01c0,0.58,0.1,0.98,0.31,1.2c0.21,0.23,0.62,0.34,1.23,0.34
		c0.47,0,0.87-0.03,1.19-0.08v3.41c-0.86,0.27-1.76,0.41-2.69,0.41c-1.64,0-2.86-0.39-3.64-1.16c-0.78-0.77-1.17-1.95-1.17-3.53
		v-7.6h-1.95v-3.31h1.95v-3.81H200.39z"/>
	<path class="st0" d="M203.76,236.73c0-1.53,0.3-2.89,0.89-4.08c0.59-1.19,1.45-2.11,2.56-2.75c1.11-0.64,2.42-0.96,3.92-0.96
		c2.29,0,4.1,0.71,5.42,2.13c1.32,1.42,1.98,3.35,1.98,5.8v0.17c0,2.39-0.66,4.28-1.99,5.69c-1.33,1.4-3.12,2.1-5.39,2.1
		c-2.18,0-3.93-0.65-5.25-1.96s-2.03-3.08-2.14-5.32L203.76,236.73z M208.53,237.03c0,1.42,0.22,2.45,0.67,3.12s1.1,0.99,1.97,0.99
		c1.7,0,2.57-1.31,2.61-3.92v-0.48c0-2.75-0.88-4.12-2.63-4.12c-1.59,0-2.46,1.18-2.59,3.55L208.53,237.03z"/>
	<path class="st0" d="M64.36,273.63l-1.34,1.35v4.36h-4.77v-21.76h4.77v11.55l0.48-0.64l3.6-4.47h5.72l-5.37,6.3l5.72,9.02H67.7
		L64.36,273.63z"/>
	<path class="st0" d="M81.48,279.62c-2.35,0-4.25-0.7-5.71-2.1c-1.45-1.4-2.18-3.23-2.18-5.47v-0.4c0-1.57,0.29-2.95,0.87-4.15
		c0.58-1.2,1.43-2.13,2.54-2.78s2.44-0.98,3.96-0.98c2.15,0,3.85,0.67,5.1,2s1.87,3.2,1.87,5.59v1.85h-9.49
		c0.17,0.86,0.54,1.53,1.12,2.03c0.58,0.49,1.32,0.74,2.24,0.74c1.51,0,2.69-0.53,3.54-1.59l2.18,2.58
		c-0.59,0.82-1.44,1.47-2.53,1.96C83.9,279.38,82.73,279.62,81.48,279.62z M80.94,267.41c-1.4,0-2.23,0.92-2.49,2.78h4.81v-0.37
		c0.02-0.76-0.17-1.36-0.58-1.78C82.27,267.62,81.69,267.41,80.94,267.41z"/>
	<path class="st0" d="M97.26,279.62c-2.35,0-4.25-0.7-5.71-2.1c-1.45-1.4-2.18-3.23-2.18-5.47v-0.4c0-1.57,0.29-2.95,0.87-4.15
		c0.58-1.2,1.43-2.13,2.54-2.78s2.44-0.98,3.96-0.98c2.15,0,3.85,0.67,5.1,2s1.87,3.2,1.87,5.59v1.85h-9.49
		c0.17,0.86,0.54,1.53,1.12,2.03c0.58,0.49,1.32,0.74,2.24,0.74c1.51,0,2.69-0.53,3.54-1.59l2.18,2.58
		c-0.59,0.82-1.44,1.47-2.53,1.96C99.69,279.38,98.52,279.62,97.26,279.62z M96.73,267.41c-1.4,0-2.23,0.92-2.49,2.78h4.81v-0.37
		c0.02-0.76-0.17-1.36-0.58-1.78C98.06,267.62,97.48,267.41,96.73,267.41z"/>
	<path class="st0" d="M119.86,271.79c0,2.38-0.54,4.28-1.61,5.7s-2.52,2.13-4.34,2.13c-1.41,0-2.56-0.51-3.47-1.54v7.15h-4.77
		v-21.21h4.46l0.14,1.42c0.92-1.13,2.12-1.7,3.61-1.7c1.89,0,3.36,0.7,4.4,2.09s1.57,3.31,1.57,5.74V271.79z M115.09,271.49
		c0-2.72-0.79-4.08-2.38-4.08c-1.13,0-1.89,0.41-2.27,1.22v6.03c0.42,0.85,1.18,1.27,2.29,1.27c1.52,0,2.3-1.31,2.35-3.94V271.49z"
		/>
	<path class="st0" d="M137.82,279.34c-0.17-0.31-0.32-0.77-0.45-1.37c-0.88,1.1-2.11,1.66-3.68,1.66c-1.44,0-2.67-0.44-3.68-1.31
		s-1.52-1.97-1.52-3.29c0-1.66,0.61-2.92,1.84-3.77c1.23-0.85,3.01-1.27,5.35-1.27h1.47v-0.81c0-1.41-0.61-2.12-1.83-2.12
		c-1.13,0-1.7,0.56-1.7,1.68h-4.77c0-1.48,0.63-2.68,1.89-3.61c1.26-0.92,2.87-1.39,4.82-1.39c1.96,0,3.5,0.48,4.63,1.43
		c1.13,0.95,1.71,2.26,1.74,3.92v6.78c0.02,1.41,0.24,2.48,0.65,3.23v0.24H137.82z M134.83,276.22c0.6,0,1.09-0.13,1.48-0.38
		c0.39-0.25,0.67-0.54,0.84-0.86v-2.45h-1.39c-1.66,0-2.49,0.75-2.49,2.24c0,0.43,0.15,0.79,0.44,1.06
		C134.01,276.09,134.38,276.22,134.83,276.22z"/>
	<path class="st0" d="M148.96,264.01l0.16,1.8c1.06-1.39,2.52-2.08,4.38-2.08c1.6,0,2.79,0.48,3.58,1.43
		c0.79,0.95,1.2,2.39,1.23,4.3v9.87h-4.79v-9.67c0-0.77-0.16-1.34-0.47-1.71s-0.88-0.54-1.7-0.54c-0.93,0-1.63,0.37-2.08,1.1v10.82
		h-4.77v-15.32H148.96z"/>
	<path class="st0" d="M175.57,279.62c-2.35,0-4.25-0.7-5.71-2.1c-1.45-1.4-2.18-3.23-2.18-5.47v-0.4c0-1.57,0.29-2.95,0.87-4.15
		c0.58-1.2,1.43-2.13,2.54-2.78s2.44-0.98,3.96-0.98c2.15,0,3.85,0.67,5.1,2s1.87,3.2,1.87,5.59v1.85h-9.49
		c0.17,0.86,0.54,1.53,1.12,2.03c0.58,0.49,1.32,0.74,2.24,0.74c1.51,0,2.69-0.53,3.54-1.59l2.18,2.58
		c-0.59,0.82-1.44,1.47-2.53,1.96C178,279.38,176.83,279.62,175.57,279.62z M175.03,267.41c-1.4,0-2.23,0.92-2.49,2.78h4.81v-0.37
		c0.02-0.76-0.17-1.36-0.58-1.78C176.37,267.62,175.79,267.41,175.03,267.41z"/>
	<path class="st0" d="M190.07,272.65l2.55-8.64h5.11l-6.24,17.88l-0.27,0.65c-0.89,1.98-2.45,2.97-4.7,2.97
		c-0.62,0-1.28-0.09-1.97-0.28v-3.4h0.62c0.67,0,1.18-0.1,1.54-0.29c0.35-0.19,0.62-0.54,0.79-1.04l0.38-1.02l-5.32-15.48h5.1
		L190.07,272.65z"/>
	<path class="st0" d="M206.38,279.62c-2.35,0-4.25-0.7-5.71-2.1c-1.45-1.4-2.18-3.23-2.18-5.47v-0.4c0-1.57,0.29-2.95,0.87-4.15
		c0.58-1.2,1.43-2.13,2.54-2.78s2.44-0.98,3.96-0.98c2.15,0,3.85,0.67,5.1,2s1.87,3.2,1.87,5.59v1.85h-9.49
		c0.17,0.86,0.54,1.53,1.12,2.03c0.58,0.49,1.32,0.74,2.24,0.74c1.51,0,2.69-0.53,3.54-1.59l2.18,2.58
		c-0.59,0.82-1.44,1.47-2.53,1.96C208.81,279.38,207.64,279.62,206.38,279.62z M205.84,267.41c-1.4,0-2.23,0.92-2.49,2.78h4.81
		v-0.37c0.02-0.76-0.17-1.36-0.58-1.78C207.18,267.62,206.6,267.41,205.84,267.41z"/>
	<path class="st0" d="M221.38,271.53c0-1.53,0.3-2.89,0.89-4.08c0.59-1.19,1.45-2.11,2.56-2.75s2.42-0.96,3.92-0.96
		c2.29,0,4.1,0.71,5.42,2.13s1.98,3.35,1.98,5.8v0.17c0,2.39-0.66,4.28-1.99,5.69c-1.33,1.4-3.12,2.1-5.39,2.1
		c-2.18,0-3.93-0.65-5.25-1.96s-2.03-3.08-2.14-5.32L221.38,271.53z M226.15,271.83c0,1.42,0.22,2.45,0.67,3.12s1.1,0.99,1.97,0.99
		c1.7,0,2.57-1.31,2.61-3.92v-0.48c0-2.75-0.88-4.12-2.63-4.12c-1.59,0-2.46,1.18-2.59,3.55L226.15,271.83z"/>
	<path class="st0" d="M242.65,264.01l0.16,1.8c1.06-1.39,2.52-2.08,4.38-2.08c1.6,0,2.79,0.48,3.58,1.43
		c0.79,0.95,1.2,2.39,1.23,4.3v9.87h-4.79v-9.67c0-0.77-0.16-1.34-0.47-1.71s-0.88-0.54-1.7-0.54c-0.93,0-1.63,0.37-2.08,1.1v10.82
		h-4.77v-15.32H242.65z"/>
	<path class="st0" d="M75.55,307.45l2.55-8.64h5.11l-6.24,17.88l-0.27,0.65c-0.89,1.98-2.45,2.97-4.7,2.97
		c-0.62,0-1.28-0.09-1.97-0.28v-3.4h0.62c0.67,0,1.18-0.1,1.54-0.29c0.35-0.19,0.62-0.54,0.79-1.04l0.38-1.02l-5.32-15.48h5.1
		L75.55,307.45z"/>
	<path class="st0" d="M83.85,306.33c0-1.53,0.3-2.89,0.89-4.08c0.59-1.19,1.45-2.11,2.56-2.75s2.42-0.96,3.92-0.96
		c2.29,0,4.1,0.71,5.42,2.13c1.32,1.42,1.98,3.35,1.98,5.8v0.17c0,2.39-0.66,4.28-1.99,5.69c-1.33,1.4-3.12,2.1-5.39,2.1
		c-2.18,0-3.93-0.65-5.25-1.96s-2.03-3.08-2.14-5.32L83.85,306.33z M88.62,306.63c0,1.42,0.22,2.45,0.67,3.12s1.1,0.99,1.97,0.99
		c1.7,0,2.57-1.31,2.61-3.92v-0.48c0-2.75-0.88-4.12-2.63-4.12c-1.59,0-2.46,1.18-2.59,3.55L88.62,306.63z"/>
	<path class="st0" d="M109.86,312.48c-1.01,1.29-2.38,1.94-4.09,1.94c-1.68,0-2.95-0.49-3.82-1.47c-0.86-0.98-1.3-2.38-1.3-4.21
		v-9.93h4.77v9.95c0,1.31,0.64,1.97,1.91,1.97c1.1,0,1.87-0.39,2.34-1.18v-10.75h4.8v15.32H110L109.86,312.48z"/>
	<path class="st0" d="M126.36,303.13l-1.57-0.11c-1.5,0-2.46,0.47-2.89,1.42v9.7h-4.77v-15.32h4.47l0.16,1.97
		c0.8-1.5,1.92-2.25,3.36-2.25c0.51,0,0.95,0.06,1.33,0.17L126.36,303.13z"/>
	<path class="st0" d="M135.26,294.86c0-0.68,0.25-1.24,0.74-1.67c0.49-0.43,1.13-0.65,1.91-0.65c0.78,0,1.42,0.22,1.91,0.65
		c0.49,0.43,0.74,0.99,0.74,1.67s-0.25,1.24-0.74,1.67c-0.49,0.43-1.13,0.65-1.91,0.65c-0.78,0-1.42-0.22-1.91-0.65
		C135.51,296.1,135.26,295.54,135.26,294.86z M140.33,314.13h-4.79v-15.32h4.79V314.13z"/>
	<path class="st0" d="M142.67,306.36c0-2.43,0.52-4.34,1.57-5.73c1.05-1.4,2.51-2.1,4.39-2.1c1.37,0,2.52,0.54,3.46,1.61v-7.76h4.79
		v21.75h-4.29l-0.24-1.64c-0.98,1.28-2.23,1.93-3.74,1.93c-1.82,0-3.27-0.7-4.33-2.1C143.2,310.92,142.67,308.94,142.67,306.36z
		 M147.44,306.66c0,2.72,0.79,4.08,2.38,4.08c1.06,0,1.81-0.44,2.27-1.33v-5.83c-0.43-0.91-1.18-1.36-2.24-1.36
		c-1.47,0-2.27,1.19-2.39,3.57L147.44,306.66z"/>
	<path class="st0" d="M167,314.42c-2.35,0-4.25-0.7-5.71-2.1c-1.45-1.4-2.18-3.23-2.18-5.47v-0.4c0-1.57,0.29-2.95,0.87-4.15
		c0.58-1.2,1.43-2.13,2.54-2.78s2.44-0.98,3.96-0.98c2.15,0,3.85,0.67,5.1,2c1.25,1.34,1.87,3.2,1.87,5.59v1.85h-9.49
		c0.17,0.86,0.54,1.53,1.12,2.03c0.58,0.49,1.32,0.74,2.24,0.74c1.51,0,2.69-0.53,3.54-1.59l2.18,2.58
		c-0.59,0.82-1.44,1.47-2.53,1.96C169.42,314.17,168.25,314.42,167,314.42z M166.46,302.21c-1.4,0-2.23,0.92-2.49,2.78h4.81v-0.37
		c0.02-0.76-0.17-1.36-0.58-1.78C167.79,302.42,167.21,302.21,166.46,302.21z"/>
	<path class="st0" d="M179.75,298.81l0.16,1.8c1.06-1.39,2.52-2.08,4.38-2.08c1.6,0,2.79,0.48,3.58,1.43
		c0.79,0.95,1.2,2.39,1.23,4.3v9.87h-4.79v-9.67c0-0.77-0.16-1.34-0.47-1.71s-0.88-0.54-1.7-0.54c-0.93,0-1.63,0.37-2.08,1.1v10.82
		h-4.77v-15.32H179.75z"/>
	<path class="st0" d="M197.28,295v3.81h2.52v3.31h-2.52v7.01c0,0.58,0.1,0.98,0.31,1.2c0.21,0.23,0.62,0.34,1.23,0.34
		c0.47,0,0.87-0.03,1.19-0.08v3.41c-0.86,0.27-1.76,0.41-2.69,0.41c-1.64,0-2.86-0.39-3.64-1.16c-0.78-0.77-1.17-1.95-1.17-3.53
		v-7.6h-1.95v-3.31h1.95V295H197.28z"/>
	<path class="st0" d="M201.65,294.86c0-0.68,0.25-1.24,0.74-1.67c0.49-0.43,1.13-0.65,1.91-0.65c0.78,0,1.42,0.22,1.91,0.65
		c0.49,0.43,0.74,0.99,0.74,1.67s-0.25,1.24-0.74,1.67c-0.49,0.43-1.13,0.65-1.91,0.65c-0.78,0-1.42-0.22-1.91-0.65
		C201.89,296.1,201.65,295.54,201.65,294.86z M206.71,314.13h-4.79v-15.32h4.79V314.13z"/>
	<path class="st0" d="M215.21,295v3.81h2.52v3.31h-2.52v7.01c0,0.58,0.1,0.98,0.31,1.2c0.21,0.23,0.62,0.34,1.23,0.34
		c0.47,0,0.87-0.03,1.19-0.08v3.41c-0.86,0.27-1.76,0.41-2.69,0.41c-1.64,0-2.86-0.39-3.64-1.16c-0.78-0.77-1.17-1.95-1.17-3.53
		v-7.6h-1.95v-3.31h1.95V295H215.21z"/>
	<path class="st0" d="M225.73,307.45l2.55-8.64h5.11l-6.24,17.88l-0.27,0.65c-0.89,1.98-2.45,2.97-4.7,2.97
		c-0.62,0-1.28-0.09-1.97-0.28v-3.4h0.62c0.67,0,1.18-0.1,1.54-0.29c0.35-0.19,0.62-0.54,0.79-1.04l0.38-1.02l-5.32-15.48h5.1
		L225.73,307.45z"/>
	<path class="st0" d="M237.58,309.5c0.75,0,1.38,0.22,1.88,0.67s0.75,1.02,0.75,1.72s-0.25,1.27-0.75,1.72s-1.13,0.67-1.88,0.67
		c-0.77,0-1.4-0.23-1.89-0.68c-0.5-0.45-0.74-1.02-0.74-1.71s0.25-1.26,0.74-1.71C236.19,309.73,236.82,309.5,237.58,309.5z"/>
</g>
</svg>
