<?xml version="1.0" encoding="utf-8"?>
<!-- Generator: Adobe Illustrator 25.2.1, SVG Export Plug-In . SVG Version: 6.00 Build 0)  -->
<svg version="1.1" id="Layer_1" xmlns="http://www.w3.org/2000/svg" xmlns:xlink="http://www.w3.org/1999/xlink" x="0px" y="0px"
	 viewBox="0 0 300 600" style="enable-background:new 0 0 300 600;" xml:space="preserve">
<style type="text/css">
	.st0{fill:#021D8B;stroke:url(#SVGID_1_);stroke-width:2;stroke-miterlimit:10;}
	.st1{fill:#FFFFFF;}
</style>
<linearGradient id="SVGID_1_" gradientUnits="userSpaceOnUse" x1="62.0714" y1="385.667" x2="240.909" y2="385.667">
	<stop  offset="0" style="stop-color:#18B9FB"/>
	<stop  offset="0.5" style="stop-color:#782EEB"/>
	<stop  offset="1" style="stop-color:#E82D8A"/>
</linearGradient>
<path class="st0" d="M213.36,420.8H89.62c-14.66,0-26.55-11.89-26.55-26.55v-17.17c0-14.66,11.89-26.55,26.55-26.55h123.74
	c14.66,0,26.55,11.89,26.55,26.55v17.17C239.91,408.91,228.02,420.8,213.36,420.8z"/>
<g>
	<path class="st1" d="M143.96,368.3h-5.47v14.88h-3.68V368.3h-5.4v-2.98h14.55V368.3z"/>
	<path class="st1" d="M152.67,376.65h-2.93v6.54h-3.68v-17.86h6.64c2.11,0,3.74,0.47,4.88,1.41c1.14,0.94,1.72,2.27,1.72,3.99
		c0,1.22-0.26,2.24-0.79,3.05c-0.53,0.81-1.33,1.46-2.4,1.95l3.87,7.3v0.17h-3.95L152.67,376.65z M149.73,373.66h2.97
		c0.92,0,1.64-0.24,2.15-0.71c0.51-0.47,0.76-1.12,0.76-1.94c0-0.84-0.24-1.5-0.72-1.99c-0.48-0.48-1.21-0.72-2.2-0.72h-2.96V373.66
		z"/>
	<path class="st1" d="M167.66,373.37l3.72-8.05h4.02l-5.86,11.39v6.48h-3.74v-6.48l-5.87-11.39h4.04L167.66,373.37z"/>
	<path class="st1" d="M127.48,392.54h-5.47v14.88h-3.68v-14.88h-5.4v-2.98h14.55V392.54z"/>
	<path class="st1" d="M143.91,398.9c0,1.76-0.31,3.3-0.93,4.63c-0.62,1.33-1.51,2.35-2.67,3.07s-2.48,1.08-3.98,1.08
		c-1.48,0-2.8-0.36-3.96-1.07c-1.16-0.71-2.06-1.73-2.7-3.05c-0.64-1.32-0.96-2.84-0.97-4.56v-0.88c0-1.76,0.32-3.31,0.95-4.64
		c0.63-1.34,1.53-2.36,2.69-3.08c1.16-0.72,2.48-1.07,3.97-1.07c1.49,0,2.81,0.36,3.97,1.07c1.16,0.72,2.05,1.74,2.69,3.08
		c0.63,1.34,0.95,2.88,0.95,4.63V398.9z M140.18,398.09c0-1.87-0.33-3.3-1.01-4.27s-1.63-1.46-2.87-1.46
		c-1.24,0-2.19,0.48-2.86,1.44c-0.67,0.96-1.01,2.37-1.02,4.23v0.87c0,1.82,0.33,3.24,1.01,4.25s1.64,1.51,2.9,1.51
		c1.24,0,2.18-0.49,2.85-1.45c0.66-0.97,1-2.38,1.01-4.24V398.09z"/>
	<path class="st1" d="M146.58,407.42v-17.86h5.5c1.57,0,2.98,0.35,4.21,1.06c1.24,0.71,2.21,1.71,2.9,3.02s1.04,2.79,1.04,4.45v0.82
		c0,1.66-0.34,3.14-1.02,4.43c-0.68,1.29-1.65,2.29-2.89,3.01c-1.24,0.71-2.65,1.07-4.21,1.08H146.58z M150.26,392.54v11.93h1.78
		c1.44,0,2.54-0.47,3.3-1.41c0.76-0.94,1.15-2.29,1.17-4.04v-0.95c0-1.82-0.38-3.19-1.13-4.13c-0.75-0.94-1.85-1.41-3.3-1.41H150.26
		z"/>
	<path class="st1" d="M173,403.74h-6.45l-1.23,3.68h-3.91l6.65-17.86h3.41l6.69,17.86h-3.91L173,403.74z M167.54,400.76H172
		l-2.25-6.69L167.54,400.76z"/>
	<path class="st1" d="M184.14,397.61l3.72-8.05h4.02l-5.86,11.39v6.48h-3.74v-6.48l-5.87-11.39h4.04L184.14,397.61z"/>
</g>
</svg>
