<?xml version="1.0" encoding="utf-8"?>
<!-- Generator: Adobe Illustrator 26.0.3, SVG Export Plug-In . SVG Version: 6.00 Build 0)  -->
<svg version="1.1" id="Layer_1" xmlns="http://www.w3.org/2000/svg" xmlns:xlink="http://www.w3.org/1999/xlink" x="0px" y="0px"
	 viewBox="0 0 300 250" style="enable-background:new 0 0 300 250;" xml:space="preserve">
<style type="text/css">
	.st0{fill:#EDF4FD;}
	
		.st1{fill:none;stroke:url(#underline_00000119823792900454998830000015844402411983364749_);stroke-width:4;stroke-linecap:round;stroke-miterlimit:10;}
</style>
<g>
	<path class="st0" d="M140.3,45.8h-6.5v4.4h7.6v2.7h-11V36.5h10.9v2.7h-7.6v3.9h6.5V45.8z"/>
	<path class="st0" d="M146.1,40.7l0.1,1.4c0.9-1.1,2-1.6,3.5-1.6c1.3,0,2.2,0.4,2.9,1.1c0.6,0.8,1,1.9,1,3.4v7.8h-3.2v-7.8
		c0-0.7-0.1-1.2-0.4-1.5s-0.8-0.5-1.5-0.5c-0.9,0-1.6,0.4-2.1,1.2v8.6h-3.2V40.7H146.1z"/>
	<path class="st0" d="M162.8,43.8c-0.4-0.1-0.8-0.1-1.2-0.1c-1.2,0-2,0.4-2.4,1.2v8H156V40.7h3.1l0.1,1.4c0.7-1.1,1.6-1.7,2.7-1.7
		c0.4,0,0.7,0,1,0.1L162.8,43.8z"/>
	<path class="st0" d="M163.5,46.7c0-1.2,0.2-2.3,0.7-3.2c0.5-0.9,1.1-1.7,2-2.2c0.9-0.5,1.9-0.8,3-0.8c1.6,0,3,0.5,4,1.5
		c1,1,1.6,2.4,1.7,4.1l0,0.8c0,1.9-0.5,3.4-1.6,4.5c-1,1.1-2.4,1.7-4.2,1.7s-3.1-0.6-4.2-1.7c-1-1.1-1.6-2.7-1.6-4.6V46.7z
		 M166.7,46.9c0,1.2,0.2,2,0.7,2.6c0.4,0.6,1.1,0.9,1.9,0.9c0.8,0,1.4-0.3,1.8-0.9c0.4-0.6,0.7-1.6,0.7-2.9c0-1.1-0.2-2-0.7-2.6
		c-0.4-0.6-1.1-0.9-1.9-0.9c-0.8,0-1.4,0.3-1.8,0.9C167,44.7,166.7,45.6,166.7,46.9z"/>
	<path class="st0" d="M180.4,52.9h-3.3V35.6h3.3V52.9z"/>
	<path class="st0" d="M186.5,52.9h-3.3V35.6h3.3V52.9z"/>
	<path class="st0" d="M194.4,46.7c0-1.2,0.2-2.3,0.7-3.2s1.1-1.7,2-2.2c0.9-0.5,1.9-0.8,3-0.8c1.6,0,3,0.5,4,1.5s1.6,2.4,1.7,4.1
		l0,0.8c0,1.9-0.5,3.4-1.6,4.5s-2.4,1.7-4.2,1.7s-3.1-0.6-4.2-1.7c-1-1.1-1.6-2.7-1.6-4.6V46.7z M197.7,46.9c0,1.2,0.2,2,0.7,2.6
		c0.4,0.6,1.1,0.9,1.9,0.9c0.8,0,1.4-0.3,1.8-0.9c0.4-0.6,0.7-1.6,0.7-2.9c0-1.1-0.2-2-0.7-2.6c-0.4-0.6-1.1-0.9-1.9-0.9
		c-0.8,0-1.4,0.3-1.8,0.9C197.9,44.7,197.7,45.6,197.7,46.9z"/>
	<path class="st0" d="M210.9,40.7l0.1,1.4c0.9-1.1,2-1.6,3.5-1.6c1.3,0,2.2,0.4,2.9,1.1c0.6,0.8,1,1.9,1,3.4v7.8h-3.2v-7.8
		c0-0.7-0.1-1.2-0.4-1.5s-0.8-0.5-1.5-0.5c-0.9,0-1.6,0.4-2.1,1.2v8.6h-3.2V40.7H210.9z"/>
	<path class="st0" d="M238.4,39.3h-5v13.6H230V39.3h-4.9v-2.7h13.3V39.3z"/>
	<path class="st0" d="M243.3,42.1c0.9-1,1.9-1.5,3.2-1.5c2.6,0,4,1.5,4,4.6v7.8h-3.2v-7.7c0-0.7-0.1-1.2-0.4-1.5s-0.8-0.5-1.5-0.5
		c-1,0-1.6,0.4-2.1,1.1v8.6H240V35.6h3.2V42.1z"/>
	<path class="st0" d="M258.6,53.1c-1.8,0-3.2-0.5-4.4-1.6s-1.7-2.5-1.7-4.4v-0.3c0-1.2,0.2-2.3,0.7-3.3c0.5-1,1.1-1.7,2-2.2
		c0.9-0.5,1.9-0.8,3-0.8c1.7,0,3,0.5,3.9,1.6c1,1,1.4,2.5,1.4,4.5v1.3h-7.7c0.1,0.8,0.4,1.4,0.9,1.9c0.5,0.5,1.2,0.7,2,0.7
		c1.2,0,2.2-0.5,2.9-1.4l1.6,1.8c-0.5,0.7-1.1,1.2-2,1.6C260.5,52.9,259.6,53.1,258.6,53.1z M258.2,43.1c-0.6,0-1.2,0.2-1.6,0.7
		c-0.4,0.4-0.7,1.1-0.8,1.9h4.5v-0.3c0-0.7-0.2-1.3-0.6-1.7S258.9,43.1,258.2,43.1z"/>
	<path class="st0" d="M133.8,72.1v5.8h-3.4V61.5h6.4c1.2,0,2.3,0.2,3.2,0.7c0.9,0.4,1.6,1.1,2.2,1.9s0.8,1.8,0.8,2.8
		c0,1.6-0.5,2.9-1.6,3.8c-1.1,0.9-2.6,1.4-4.6,1.4H133.8z M133.8,69.4h3c0.9,0,1.6-0.2,2-0.6c0.5-0.4,0.7-1,0.7-1.8
		c0-0.8-0.2-1.4-0.7-1.9s-1.1-0.7-2-0.8h-3.1V69.4z"/>
	<path class="st0" d="M151.9,68.8c-0.4-0.1-0.8-0.1-1.2-0.1c-1.2,0-2,0.4-2.4,1.2v8H145V65.7h3.1l0.1,1.4c0.7-1.1,1.6-1.7,2.7-1.7
		c0.4,0,0.7,0,1,0.1L151.9,68.8z"/>
	<path class="st0" d="M153.4,62.6c0-0.5,0.2-0.9,0.5-1.2c0.3-0.3,0.8-0.5,1.3-0.5c0.6,0,1,0.2,1.3,0.5c0.3,0.3,0.5,0.7,0.5,1.2
		c0,0.5-0.2,0.9-0.5,1.2c-0.3,0.3-0.8,0.5-1.3,0.5c-0.5,0-1-0.2-1.3-0.5S153.4,63.1,153.4,62.6z M156.9,77.9h-3.3V65.7h3.3V77.9z"/>
	<path class="st0" d="M164.1,73.9l2.3-8.2h3.4l-4.1,12.2h-3.1l-4.1-12.2h3.4L164.1,73.9z"/>
	<path class="st0" d="M178,77.9c-0.1-0.3-0.3-0.7-0.3-1.1c-0.8,0.9-1.8,1.3-3.1,1.3c-1.2,0-2.2-0.3-3-1s-1.2-1.6-1.2-2.6
		c0-1.3,0.5-2.3,1.4-3c1-0.7,2.3-1,4.1-1h1.5v-0.7c0-0.6-0.1-1-0.4-1.3c-0.3-0.3-0.7-0.5-1.4-0.5c-0.5,0-1,0.1-1.3,0.4
		c-0.3,0.3-0.5,0.6-0.5,1.1h-3.2c0-0.7,0.2-1.4,0.7-2c0.4-0.6,1-1.1,1.8-1.4c0.8-0.3,1.7-0.5,2.7-0.5c1.5,0,2.7,0.4,3.6,1.1
		c0.9,0.8,1.3,1.8,1.3,3.2v5.3c0,1.2,0.2,2,0.5,2.6v0.2H178z M175.3,75.6c0.5,0,0.9-0.1,1.3-0.3c0.4-0.2,0.7-0.5,0.9-0.9v-2.1h-1.2
		c-1.6,0-2.5,0.6-2.6,1.7l0,0.2c0,0.4,0.1,0.7,0.4,1C174.5,75.5,174.8,75.6,175.3,75.6z"/>
	<path class="st0" d="M188.4,75.5c0.6,0,1.1-0.2,1.5-0.5c0.4-0.3,0.6-0.8,0.6-1.3h3c0,0.8-0.2,1.6-0.7,2.3c-0.4,0.7-1,1.2-1.8,1.6
		s-1.6,0.6-2.5,0.6c-1.7,0-3.1-0.6-4.1-1.7c-1-1.1-1.5-2.6-1.5-4.6v-0.2c0-1.9,0.5-3.4,1.5-4.5c1-1.1,2.4-1.7,4.1-1.7
		c1.5,0,2.7,0.4,3.7,1.3c0.9,0.9,1.4,2,1.4,3.5h-3c0-0.6-0.2-1.1-0.6-1.5c-0.4-0.4-0.9-0.6-1.5-0.6c-0.8,0-1.3,0.3-1.7,0.8
		s-0.6,1.4-0.6,2.7V72c0,1.3,0.2,2.2,0.6,2.7C187,75.2,187.6,75.5,188.4,75.5z"/>
	<path class="st0" d="M199.8,73.3l2.2-7.6h3.5l-4.9,14l-0.3,0.6c-0.7,1.6-1.9,2.4-3.6,2.4c-0.5,0-1-0.1-1.4-0.2v-2.5l0.5,0
		c0.6,0,1.1-0.1,1.4-0.3c0.3-0.2,0.5-0.5,0.7-0.9l0.4-1l-4.3-12.2h3.5L199.8,73.3z"/>
	<path class="st0" d="M220,75.8c-0.6,0.7-1.5,1.3-2.6,1.7c-1.1,0.4-2.3,0.6-3.7,0.6c-1.4,0-2.7-0.3-3.7-0.9
		c-1.1-0.6-1.9-1.5-2.5-2.7s-0.9-2.6-0.9-4.1v-1.1c0-1.6,0.3-3,0.8-4.2c0.6-1.2,1.3-2.1,2.4-2.7s2.3-0.9,3.6-0.9
		c1.9,0,3.5,0.5,4.5,1.4c1.1,0.9,1.7,2.3,1.9,4h-3.3c-0.1-0.9-0.5-1.6-1-2.1s-1.2-0.7-2.1-0.7c-1.1,0-2,0.4-2.6,1.3
		c-0.6,0.9-0.9,2.1-0.9,3.8v1c0,1.7,0.3,3,1,3.9s1.6,1.3,2.9,1.3c1.3,0,2.2-0.3,2.7-0.8v-2.8h-3.1v-2.5h6.4V75.8z"/>
	<path class="st0" d="M229.8,76.7c-0.8,1-1.9,1.5-3.3,1.5c-1.3,0-2.3-0.4-3-1.1c-0.7-0.7-1-1.8-1-3.3v-8h3.2v7.9
		c0,1.3,0.6,1.9,1.7,1.9c1.1,0,1.9-0.4,2.3-1.1v-8.6h3.3v12.2h-3.1L229.8,76.7z"/>
	<path class="st0" d="M242.4,77.9c-0.1-0.3-0.3-0.7-0.3-1.1c-0.8,0.9-1.8,1.3-3.1,1.3c-1.2,0-2.2-0.3-3-1s-1.2-1.6-1.2-2.6
		c0-1.3,0.5-2.3,1.4-3c1-0.7,2.3-1,4.1-1h1.5v-0.7c0-0.6-0.1-1-0.4-1.3c-0.3-0.3-0.7-0.5-1.4-0.5c-0.5,0-1,0.1-1.3,0.4
		c-0.3,0.3-0.5,0.6-0.5,1.1h-3.2c0-0.7,0.2-1.4,0.7-2c0.4-0.6,1-1.1,1.8-1.4s1.7-0.5,2.7-0.5c1.5,0,2.7,0.4,3.6,1.1
		c0.9,0.8,1.3,1.8,1.3,3.2v5.3c0,1.2,0.2,2,0.5,2.6v0.2H242.4z M239.7,75.6c0.5,0,0.9-0.1,1.3-0.3c0.4-0.2,0.7-0.5,0.9-0.9v-2.1
		h-1.2c-1.6,0-2.5,0.6-2.6,1.7l0,0.2c0,0.4,0.1,0.7,0.4,1C238.9,75.5,239.2,75.6,239.7,75.6z"/>
	<path class="st0" d="M254.5,68.8c-0.4-0.1-0.8-0.1-1.2-0.1c-1.2,0-2,0.4-2.4,1.2v8h-3.2V65.7h3.1l0.1,1.4c0.7-1.1,1.6-1.7,2.7-1.7
		c0.4,0,0.7,0,1,0.1L254.5,68.8z"/>
	<path class="st0" d="M255.6,71.7c0-1.9,0.4-3.4,1.3-4.5s2-1.7,3.5-1.7c1.2,0,2.2,0.4,2.9,1.3v-6.2h3.3v17.2h-2.9l-0.2-1.3
		c-0.8,1-1.8,1.5-3.1,1.5c-1.4,0-2.6-0.6-3.4-1.7C256,75.3,255.6,73.7,255.6,71.7z M258.8,72c0,1.1,0.2,2,0.6,2.6s1,0.9,1.7,0.9
		c1,0,1.7-0.4,2.1-1.3v-4.8c-0.4-0.8-1.1-1.3-2.1-1.3C259.6,68.2,258.8,69.4,258.8,72z"/>
	<path class="st0" d="M139.6,99.5h-5.9l-1.1,3.4H129l6.1-16.4h3.1l6.1,16.4h-3.6L139.6,99.5z M134.6,96.8h4.1l-2.1-6.1L134.6,96.8z"
		/>
	<path class="st0" d="M156.6,96.9c0,1.9-0.4,3.4-1.3,4.5s-2,1.7-3.4,1.7c-1.2,0-2.2-0.4-3-1.3v5.7h-3.2V90.7h3l0.1,1.2
		c0.8-0.9,1.8-1.4,3.1-1.4c1.5,0,2.7,0.6,3.5,1.7s1.2,2.6,1.2,4.6V96.9z M153.4,96.7c0-1.1-0.2-2-0.6-2.6c-0.4-0.6-1-0.9-1.7-0.9
		c-1,0-1.7,0.4-2.1,1.2v5c0.4,0.8,1.1,1.2,2.1,1.2C152.6,100.5,153.4,99.2,153.4,96.7z"/>
	<path class="st0" d="M169.6,96.9c0,1.9-0.4,3.4-1.3,4.5c-0.8,1.1-2,1.7-3.4,1.7c-1.2,0-2.2-0.4-3-1.3v5.7h-3.2V90.7h3l0.1,1.2
		c0.8-0.9,1.8-1.4,3.1-1.4c1.5,0,2.7,0.6,3.5,1.7s1.2,2.6,1.2,4.6V96.9z M166.3,96.7c0-1.1-0.2-2-0.6-2.6c-0.4-0.6-1-0.9-1.7-0.9
		c-1,0-1.7,0.4-2.1,1.2v5c0.4,0.8,1.1,1.2,2.1,1.2C165.5,100.5,166.3,99.2,166.3,96.7z"/>
	<path class="st0" d="M181.2,87.8v3h2.1v2.4h-2.1v6.1c0,0.4,0.1,0.8,0.3,1c0.2,0.2,0.5,0.3,1,0.3c0.4,0,0.7,0,1-0.1v2.5
		c-0.6,0.2-1.3,0.3-2,0.3c-2.3,0-3.4-1.1-3.5-3.4v-6.5h-1.8v-2.4h1.8v-3H181.2z"/>
	<path class="st0" d="M184.2,96.7c0-1.2,0.2-2.3,0.7-3.2c0.5-0.9,1.1-1.7,2-2.2c0.9-0.5,1.9-0.8,3-0.8c1.6,0,3,0.5,4,1.5
		s1.6,2.4,1.7,4.1l0,0.8c0,1.9-0.5,3.4-1.6,4.5s-2.4,1.7-4.2,1.7s-3.1-0.6-4.2-1.7c-1-1.1-1.6-2.7-1.6-4.6V96.7z M187.5,96.9
		c0,1.2,0.2,2,0.7,2.6c0.4,0.6,1.1,0.9,1.9,0.9c0.8,0,1.4-0.3,1.8-0.9c0.4-0.6,0.7-1.6,0.7-2.9c0-1.1-0.2-2-0.7-2.6
		c-0.4-0.6-1.1-0.9-1.9-0.9c-0.8,0-1.4,0.3-1.8,0.9C187.7,94.7,187.5,95.6,187.5,96.9z"/>
	<path class="st0" d="M197.2,96.7c0-1.9,0.4-3.4,1.3-4.5s2-1.7,3.5-1.7c1.2,0,2.2,0.4,2.9,1.3v-6.2h3.3v17.2h-2.9l-0.2-1.3
		c-0.8,1-1.8,1.5-3.1,1.5c-1.4,0-2.6-0.6-3.4-1.7C197.7,100.3,197.2,98.7,197.2,96.7z M200.5,97c0,1.1,0.2,2,0.6,2.6s1,0.9,1.7,0.9
		c1,0,1.7-0.4,2.1-1.3v-4.8c-0.4-0.8-1.1-1.3-2.1-1.3C201.3,93.2,200.5,94.4,200.5,97z"/>
	<path class="st0" d="M217.7,102.9c-0.1-0.3-0.3-0.7-0.3-1.1c-0.8,0.9-1.8,1.3-3.1,1.3c-1.2,0-2.2-0.3-3-1s-1.2-1.6-1.2-2.6
		c0-1.3,0.5-2.3,1.4-3c1-0.7,2.3-1,4.1-1h1.5v-0.7c0-0.6-0.1-1-0.4-1.3c-0.3-0.3-0.7-0.5-1.4-0.5c-0.5,0-1,0.1-1.3,0.4
		c-0.3,0.3-0.5,0.6-0.5,1.1h-3.2c0-0.7,0.2-1.4,0.7-2c0.4-0.6,1-1.1,1.8-1.4s1.7-0.5,2.7-0.5c1.5,0,2.7,0.4,3.6,1.1
		c0.9,0.8,1.3,1.8,1.3,3.2v5.3c0,1.2,0.2,2,0.5,2.6v0.2H217.7z M215.1,100.6c0.5,0,0.9-0.1,1.3-0.3c0.4-0.2,0.7-0.5,0.9-0.9v-2.1
		h-1.2c-1.6,0-2.5,0.6-2.6,1.7l0,0.2c0,0.4,0.1,0.7,0.4,1C214.2,100.5,214.6,100.6,215.1,100.6z"/>
	<path class="st0" d="M227.6,98.3l2.2-7.6h3.5l-4.9,14l-0.3,0.6c-0.7,1.6-1.9,2.4-3.6,2.4c-0.5,0-1-0.1-1.4-0.2v-2.5l0.5,0
		c0.6,0,1.1-0.1,1.4-0.3c0.3-0.2,0.5-0.5,0.7-0.9l0.4-1l-4.3-12.2h3.5L227.6,98.3z"/>
	<path class="st0" d="M234.7,101.3c0-0.5,0.2-0.9,0.5-1.3c0.3-0.3,0.8-0.5,1.3-0.5c0.5,0,1,0.2,1.3,0.5c0.3,0.3,0.5,0.7,0.5,1.3
		c0,0.5-0.2,0.9-0.5,1.2c-0.3,0.3-0.8,0.5-1.3,0.5c-0.5,0-1-0.2-1.3-0.5S234.7,101.8,234.7,101.3z"/>
</g>
<linearGradient id="underline_00000062151174902980391920000008049523131322571399_" gradientUnits="userSpaceOnUse" x1="126.9551" y1="118.8896" x2="282.3359" y2="118.8896">
	<stop  offset="0" style="stop-color:#18B9FB"/>
	<stop  offset="0.5" style="stop-color:#782EEB"/>
	<stop  offset="1" style="stop-color:#E82D8A"/>
</linearGradient>
<line id="underline_2_" style="fill:none;stroke:url(#underline_00000062151174902980391920000008049523131322571399_);stroke-width:4;stroke-linecap:round;stroke-miterlimit:10;" x1="129" y1="118.9" x2="280.3" y2="118.9"/>
</svg>
