<?xml version="1.0" encoding="utf-8"?>
<!-- Generator: Adobe Illustrator 26.0.3, SVG Export Plug-In . SVG Version: 6.00 Build 0)  -->
<svg version="1.1" id="Layer_1" xmlns="http://www.w3.org/2000/svg" xmlns:xlink="http://www.w3.org/1999/xlink" x="0px" y="0px"
	 viewBox="0 0 300 250" style="enable-background:new 0 0 300 250;" xml:space="preserve">
<style type="text/css">
	.st0{fill:#E82D8A;stroke:#FFFFFF;stroke-width:0.75;stroke-miterlimit:10;}
	.st1{fill:#FFFFFF;}
</style>
<path class="st0" d="M243.4,156.5H136.4c-6.4,0-11.6-5.2-11.6-11.6v0c0-6.4,5.2-11.6,11.6-11.6h106.9c6.4,0,11.6,5.2,11.6,11.6v0
	C255,151.3,249.8,156.5,243.4,156.5z"/>
<g>
	<path class="st1" d="M144,146.5c-0.1,1-0.4,1.7-1.1,2.3c-0.6,0.5-1.5,0.8-2.5,0.8c-1.1,0-2-0.4-2.7-1.2s-1-1.8-1-3.2v-0.5
		c0-0.9,0.2-1.6,0.5-2.3s0.7-1.2,1.3-1.5c0.6-0.3,1.2-0.5,1.9-0.5c1,0,1.9,0.3,2.5,0.8c0.6,0.5,1,1.3,1.1,2.3h-1.8
		c0-0.6-0.2-1-0.5-1.2c-0.3-0.3-0.7-0.4-1.3-0.4c-0.6,0-1.1,0.2-1.4,0.7c-0.3,0.4-0.5,1.1-0.5,2v0.7c0,1,0.1,1.7,0.4,2.1
		c0.3,0.4,0.7,0.7,1.4,0.7c0.6,0,1-0.1,1.3-0.4c0.3-0.3,0.4-0.7,0.5-1.2H144z"/>
	<path class="st1" d="M146.9,149.5h-1.8v-9.4h1.8V149.5z"/>
	<path class="st1" d="M148.3,141.2c0-0.3,0.1-0.5,0.3-0.7c0.2-0.2,0.4-0.3,0.7-0.3c0.3,0,0.5,0.1,0.7,0.3c0.2,0.2,0.3,0.4,0.3,0.7
		c0,0.3-0.1,0.5-0.3,0.7s-0.4,0.3-0.7,0.3s-0.5-0.1-0.7-0.3C148.4,141.7,148.3,141.5,148.3,141.2z M150.2,149.5h-1.8v-6.6h1.8V149.5
		z"/>
	<path class="st1" d="M154.4,148.2c0.3,0,0.6-0.1,0.8-0.3c0.2-0.2,0.3-0.4,0.3-0.7h1.7c0,0.4-0.1,0.9-0.4,1.2s-0.6,0.7-1,0.9
		c-0.4,0.2-0.9,0.3-1.4,0.3c-0.9,0-1.7-0.3-2.2-0.9c-0.5-0.6-0.8-1.4-0.8-2.5v-0.1c0-1,0.3-1.8,0.8-2.4c0.5-0.6,1.3-0.9,2.2-0.9
		c0.8,0,1.5,0.2,2,0.7s0.8,1.1,0.8,1.9h-1.7c0-0.3-0.1-0.6-0.3-0.8s-0.5-0.3-0.8-0.3c-0.4,0-0.7,0.1-0.9,0.4
		c-0.2,0.3-0.3,0.8-0.3,1.5v0.2c0,0.7,0.1,1.2,0.3,1.5C153.7,148,154,148.2,154.4,148.2z"/>
	<path class="st1" d="M160.6,146.8l-0.6,0.6v2h-1.8v-9.4h1.8v5.2l0.3-0.4l1.7-2h2.1l-2.4,2.8l2.6,3.8h-2L160.6,146.8z"/>
	<path class="st1" d="M170.1,141.3v1.6h1.1v1.3h-1.1v3.3c0,0.2,0,0.4,0.1,0.5c0.1,0.1,0.3,0.2,0.5,0.2c0.2,0,0.4,0,0.5,0v1.3
		c-0.3,0.1-0.7,0.2-1.1,0.2c-1.2,0-1.9-0.6-1.9-1.9v-3.6h-1v-1.3h1v-1.6H170.1z"/>
	<path class="st1" d="M171.7,146.1c0-0.7,0.1-1.2,0.4-1.8c0.3-0.5,0.6-0.9,1.1-1.2c0.5-0.3,1-0.4,1.6-0.4c0.9,0,1.6,0.3,2.2,0.8
		s0.9,1.3,0.9,2.2l0,0.5c0,1-0.3,1.8-0.8,2.4s-1.3,0.9-2.3,0.9s-1.7-0.3-2.3-0.9S171.7,147.3,171.7,146.1L171.7,146.1z M173.5,146.3
		c0,0.6,0.1,1.1,0.4,1.4c0.2,0.3,0.6,0.5,1,0.5c0.4,0,0.8-0.2,1-0.5c0.2-0.3,0.4-0.9,0.4-1.6c0-0.6-0.1-1.1-0.4-1.4
		c-0.2-0.3-0.6-0.5-1-0.5c-0.4,0-0.8,0.2-1,0.5C173.6,145,173.5,145.6,173.5,146.3z"/>
	<path class="st1" d="M184,149.5h-1.8v-9.4h1.8V149.5z"/>
	<path class="st1" d="M188.5,149.6c-1,0-1.8-0.3-2.4-0.9s-0.9-1.4-0.9-2.4v-0.2c0-0.7,0.1-1.3,0.4-1.8c0.3-0.5,0.6-0.9,1.1-1.2
		c0.5-0.3,1-0.4,1.6-0.4c0.9,0,1.6,0.3,2.1,0.9s0.8,1.4,0.8,2.4v0.7H187c0.1,0.4,0.2,0.8,0.5,1c0.3,0.3,0.7,0.4,1.1,0.4
		c0.7,0,1.2-0.2,1.6-0.7l0.9,1c-0.3,0.4-0.6,0.7-1.1,0.9C189.6,149.5,189.1,149.6,188.5,149.6z M188.3,144.2c-0.4,0-0.6,0.1-0.9,0.4
		s-0.4,0.6-0.4,1h2.5v-0.1c0-0.4-0.1-0.7-0.3-0.9C189,144.3,188.7,144.2,188.3,144.2z"/>
	<path class="st1" d="M196.1,149.5c-0.1-0.2-0.1-0.4-0.2-0.6c-0.4,0.5-1,0.7-1.7,0.7c-0.6,0-1.2-0.2-1.6-0.6s-0.6-0.8-0.6-1.4
		c0-0.7,0.3-1.2,0.8-1.6c0.5-0.4,1.3-0.6,2.2-0.6h0.8v-0.4c0-0.3-0.1-0.5-0.2-0.7c-0.2-0.2-0.4-0.3-0.7-0.3c-0.3,0-0.5,0.1-0.7,0.2
		s-0.3,0.3-0.3,0.6h-1.8c0-0.4,0.1-0.7,0.4-1.1c0.2-0.3,0.6-0.6,1-0.8c0.4-0.2,0.9-0.3,1.5-0.3c0.8,0,1.5,0.2,1.9,0.6
		c0.5,0.4,0.7,1,0.7,1.7v2.9c0,0.6,0.1,1.1,0.3,1.4v0.1H196.1z M194.6,148.3c0.3,0,0.5-0.1,0.7-0.2c0.2-0.1,0.4-0.3,0.5-0.5v-1.1
		h-0.7c-0.9,0-1.4,0.3-1.4,0.9l0,0.1c0,0.2,0.1,0.4,0.2,0.5C194.1,148.2,194.4,148.3,194.6,148.3z"/>
	<path class="st1" d="M202.7,144.5c-0.2,0-0.5,0-0.6,0c-0.7,0-1.1,0.2-1.3,0.7v4.3H199v-6.6h1.7l0,0.8c0.4-0.6,0.8-0.9,1.5-0.9
		c0.2,0,0.4,0,0.5,0.1L202.7,144.5z"/>
	<path class="st1" d="M205.1,142.9l0.1,0.8c0.5-0.6,1.1-0.9,1.9-0.9c0.7,0,1.2,0.2,1.6,0.6c0.3,0.4,0.5,1,0.5,1.8v4.3h-1.8v-4.2
		c0-0.4-0.1-0.6-0.2-0.8c-0.2-0.2-0.4-0.3-0.8-0.3c-0.5,0-0.9,0.2-1.1,0.6v4.7h-1.8v-6.6H205.1z"/>
	<path class="st1" d="M215.3,142.9l0.1,0.7c0.5-0.6,1.1-0.9,1.9-0.9c0.8,0,1.4,0.3,1.8,1c0.5-0.7,1.1-1,2-1c0.7,0,1.2,0.2,1.6,0.6
		s0.5,1,0.5,1.9v4.2h-1.8v-4.2c0-0.4-0.1-0.6-0.2-0.8s-0.4-0.3-0.8-0.3c-0.5,0-0.9,0.3-1.1,0.8l0,4.5h-1.8v-4.2
		c0-0.4-0.1-0.7-0.2-0.8s-0.4-0.3-0.8-0.3c-0.5,0-0.9,0.2-1.1,0.6v4.7h-1.8v-6.6H215.3z"/>
	<path class="st1" d="M224.2,146.1c0-0.7,0.1-1.2,0.4-1.8c0.3-0.5,0.6-0.9,1.1-1.2c0.5-0.3,1-0.4,1.7-0.4c0.9,0,1.6,0.3,2.2,0.8
		s0.9,1.3,0.9,2.2l0,0.5c0,1-0.3,1.8-0.8,2.4s-1.3,0.9-2.3,0.9c-1,0-1.7-0.3-2.3-0.9S224.2,147.3,224.2,146.1L224.2,146.1z
		 M225.9,146.3c0,0.6,0.1,1.1,0.4,1.4c0.2,0.3,0.6,0.5,1,0.5c0.4,0,0.8-0.2,1-0.5c0.2-0.3,0.4-0.9,0.4-1.6c0-0.6-0.1-1.1-0.4-1.4
		c-0.2-0.3-0.6-0.5-1-0.5c-0.4,0-0.8,0.2-1,0.5C226,145,225.9,145.6,225.9,146.3z"/>
	<path class="st1" d="M235.2,144.5c-0.2,0-0.5,0-0.6,0c-0.7,0-1.1,0.2-1.3,0.7v4.3h-1.8v-6.6h1.7l0,0.8c0.4-0.6,0.8-0.9,1.5-0.9
		c0.2,0,0.4,0,0.5,0.1L235.2,144.5z"/>
	<path class="st1" d="M239.1,149.6c-1,0-1.8-0.3-2.4-0.9c-0.6-0.6-0.9-1.4-0.9-2.4v-0.2c0-0.7,0.1-1.3,0.4-1.8
		c0.3-0.5,0.6-0.9,1.1-1.2c0.5-0.3,1-0.4,1.6-0.4c0.9,0,1.6,0.3,2.1,0.9s0.8,1.4,0.8,2.4v0.7h-4.2c0.1,0.4,0.2,0.8,0.5,1
		c0.3,0.3,0.7,0.4,1.1,0.4c0.7,0,1.2-0.2,1.6-0.7l0.9,1c-0.3,0.4-0.6,0.7-1.1,0.9C240.1,149.5,239.6,149.6,239.1,149.6z
		 M238.9,144.2c-0.3,0-0.6,0.1-0.9,0.4s-0.4,0.6-0.4,1h2.5v-0.1c0-0.4-0.1-0.7-0.3-0.9C239.6,144.3,239.3,144.2,238.9,144.2z"/>
</g>
</svg>
