<?xml version="1.0" encoding="utf-8"?>
<!-- Generator: Adobe Illustrator 26.0.3, SVG Export Plug-In . SVG Version: 6.00 Build 0)  -->
<svg version="1.1" id="Layer_1" xmlns="http://www.w3.org/2000/svg" xmlns:xlink="http://www.w3.org/1999/xlink" x="0px" y="0px"
	 viewBox="0 0 300 250" style="enable-background:new 0 0 300 250;" xml:space="preserve">
<style type="text/css">
	.st0{fill:#EDF4FD;}
</style>
<g>
	<path class="st0" d="M131.5,170.7c0-0.2-0.1-0.4-0.2-0.5s-0.4-0.3-0.7-0.4s-0.5-0.2-0.7-0.3c-0.6-0.3-0.9-0.8-0.9-1.4
		c0-0.4,0.1-0.7,0.4-1c0.2-0.3,0.6-0.4,1-0.5v-0.8h0.6v0.8c0.4,0.1,0.8,0.2,1,0.5s0.3,0.7,0.3,1.2h-0.9c0-0.3-0.1-0.5-0.2-0.7
		c-0.1-0.2-0.3-0.3-0.6-0.3c-0.2,0-0.4,0.1-0.5,0.2s-0.2,0.3-0.2,0.5c0,0.2,0.1,0.4,0.2,0.5c0.1,0.1,0.4,0.2,0.7,0.4
		c0.3,0.1,0.6,0.2,0.7,0.3s0.3,0.2,0.5,0.3c0.1,0.1,0.2,0.3,0.3,0.4c0.1,0.2,0.1,0.4,0.1,0.6c0,0.4-0.1,0.7-0.4,1
		c-0.3,0.3-0.6,0.4-1.1,0.5v0.7h-0.6v-0.7c-0.5-0.1-0.9-0.2-1.1-0.5c-0.3-0.3-0.4-0.7-0.4-1.2h0.9c0,0.3,0.1,0.5,0.2,0.7
		c0.2,0.2,0.4,0.3,0.7,0.3c0.3,0,0.5-0.1,0.6-0.2C131.4,171.1,131.5,170.9,131.5,170.7z"/>
	<path class="st0" d="M135.5,172.1h-0.9v-4.3l-1.3,0.4v-0.7l2.1-0.8h0.1V172.1z"/>
	<path class="st0" d="M140.4,167.2v1h0.7v0.7h-0.7v2.2c0,0.2,0,0.3,0.1,0.3c0.1,0.1,0.2,0.1,0.3,0.1c0.1,0,0.2,0,0.3,0v0.7
		c-0.2,0.1-0.4,0.1-0.6,0.1c-0.7,0-1-0.4-1-1.1v-2.2h-0.7v-0.7h0.7v-1H140.4z"/>
	<path class="st0" d="M143.9,169c-0.1,0-0.2,0-0.4,0c-0.4,0-0.7,0.2-0.8,0.5v2.7h-0.9v-4h0.8l0,0.4c0.2-0.3,0.5-0.5,0.9-0.5
		c0.1,0,0.2,0,0.3,0.1L143.9,169z"/>
	<path class="st0" d="M144.5,167.1c0-0.1,0-0.2,0.1-0.3c0.1-0.1,0.2-0.1,0.4-0.1s0.3,0,0.4,0.1c0.1,0.1,0.1,0.2,0.1,0.3
		c0,0.1,0,0.2-0.1,0.3s-0.2,0.1-0.4,0.1s-0.3,0-0.4-0.1C144.5,167.4,144.5,167.2,144.5,167.1z M145.4,172.1h-0.9v-4h0.9V172.1z"/>
	<path class="st0" d="M148.7,172.1c0-0.1-0.1-0.2-0.1-0.4c-0.3,0.3-0.6,0.4-1,0.4c-0.4,0-0.7-0.1-1-0.3c-0.3-0.2-0.4-0.5-0.4-0.8
		c0-0.4,0.2-0.7,0.5-1c0.3-0.2,0.8-0.3,1.3-0.3h0.5v-0.3c0-0.2-0.1-0.4-0.2-0.5c-0.1-0.1-0.3-0.2-0.5-0.2c-0.2,0-0.4,0.1-0.5,0.2
		c-0.1,0.1-0.2,0.2-0.2,0.4h-0.9c0-0.2,0.1-0.4,0.2-0.6s0.3-0.3,0.6-0.4c0.2-0.1,0.5-0.2,0.8-0.2c0.5,0,0.8,0.1,1.1,0.3
		c0.3,0.2,0.4,0.6,0.4,1v1.8c0,0.4,0,0.6,0.1,0.9v0.1H148.7z M147.8,171.5c0.2,0,0.3,0,0.5-0.1c0.2-0.1,0.3-0.2,0.3-0.3v-0.7h-0.5
		c-0.3,0-0.6,0.1-0.7,0.2c-0.2,0.1-0.2,0.3-0.2,0.5c0,0.2,0.1,0.3,0.2,0.4C147.4,171.4,147.6,171.5,147.8,171.5z"/>
	<path class="st0" d="M151.4,172.1h-0.9v-5.6h0.9V172.1z"/>
	<path class="st0" d="M154.5,172.1v-3.3h-0.6v-0.7h0.6v-0.4c0-0.4,0.1-0.8,0.4-1s0.6-0.4,1-0.4c0.2,0,0.3,0,0.5,0.1l0,0.7
		c-0.1,0-0.2,0-0.3,0c-0.4,0-0.6,0.2-0.6,0.7v0.4h0.8v0.7h-0.8v3.3H154.5z"/>
	<path class="st0" d="M156.7,170.1c0-0.4,0.1-0.7,0.2-1c0.2-0.3,0.4-0.5,0.6-0.7c0.3-0.2,0.6-0.2,1-0.2c0.5,0,1,0.2,1.3,0.5
		c0.3,0.3,0.5,0.8,0.5,1.4l0,0.2c0,0.4-0.1,0.7-0.2,1s-0.4,0.5-0.6,0.7c-0.3,0.2-0.6,0.3-1,0.3c-0.6,0-1-0.2-1.3-0.6
		C156.9,171.2,156.7,170.8,156.7,170.1L156.7,170.1z M157.6,170.2c0,0.4,0.1,0.7,0.3,1c0.2,0.2,0.4,0.3,0.7,0.3
		c0.3,0,0.5-0.1,0.7-0.4s0.3-0.6,0.3-1c0-0.4-0.1-0.7-0.3-1c-0.2-0.2-0.4-0.4-0.7-0.4c-0.3,0-0.5,0.1-0.7,0.3
		S157.6,169.7,157.6,170.2z"/>
	<path class="st0" d="M163.2,169c-0.1,0-0.2,0-0.4,0c-0.4,0-0.7,0.2-0.8,0.5v2.7h-0.9v-4h0.8l0,0.4c0.2-0.3,0.5-0.5,0.9-0.5
		c0.1,0,0.2,0,0.3,0.1L163.2,169z"/>
	<path class="st0" d="M166.8,167.2v1h0.7v0.7h-0.7v2.2c0,0.2,0,0.3,0.1,0.3c0.1,0.1,0.2,0.1,0.3,0.1c0.1,0,0.2,0,0.3,0v0.7
		c-0.2,0.1-0.4,0.1-0.6,0.1c-0.7,0-1-0.4-1-1.1v-2.2h-0.7v-0.7h0.7v-1H166.8z"/>
	<path class="st0" d="M169,168.6c0.3-0.3,0.7-0.5,1.1-0.5c0.8,0,1.3,0.5,1.3,1.4v2.6h-0.9v-2.6c0-0.3-0.1-0.5-0.2-0.6
		c-0.1-0.1-0.3-0.2-0.5-0.2c-0.4,0-0.6,0.2-0.8,0.5v2.8h-0.9v-5.6h0.9V168.6z"/>
	<path class="st0" d="M174,172.2c-0.6,0-1-0.2-1.4-0.5c-0.4-0.4-0.5-0.8-0.5-1.4v-0.1c0-0.4,0.1-0.7,0.2-1.1
		c0.2-0.3,0.4-0.6,0.6-0.7c0.3-0.2,0.6-0.3,0.9-0.3c0.5,0,1,0.2,1.2,0.5c0.3,0.3,0.4,0.8,0.4,1.5v0.4H173c0,0.3,0.1,0.6,0.3,0.8
		c0.2,0.2,0.4,0.3,0.7,0.3c0.4,0,0.7-0.2,1-0.5l0.5,0.5c-0.2,0.2-0.4,0.4-0.6,0.6C174.7,172.1,174.4,172.2,174,172.2z M173.9,168.8
		c-0.2,0-0.4,0.1-0.6,0.3s-0.2,0.4-0.3,0.7h1.7v-0.1c0-0.3-0.1-0.5-0.2-0.7C174.4,168.9,174.2,168.8,173.9,168.8z"/>
	<path class="st0" d="M178.5,172.1v-3.3h-0.6v-0.7h0.6v-0.4c0-0.4,0.1-0.8,0.4-1s0.6-0.4,1-0.4c0.2,0,0.3,0,0.5,0.1l0,0.7
		c-0.1,0-0.2,0-0.3,0c-0.4,0-0.6,0.2-0.6,0.7v0.4h0.8v0.7h-0.8v3.3H178.5z"/>
	<path class="st0" d="M180.9,167.1c0-0.1,0-0.2,0.1-0.3c0.1-0.1,0.2-0.1,0.4-0.1s0.3,0,0.4,0.1c0.1,0.1,0.1,0.2,0.1,0.3
		c0,0.1,0,0.2-0.1,0.3s-0.2,0.1-0.4,0.1s-0.3,0-0.4-0.1C180.9,167.4,180.9,167.2,180.9,167.1z M181.8,172.1h-0.9v-4h0.9V172.1z"/>
	<path class="st0" d="M184.8,169c-0.1,0-0.2,0-0.4,0c-0.4,0-0.7,0.2-0.8,0.5v2.7h-0.9v-4h0.8l0,0.4c0.2-0.3,0.5-0.5,0.9-0.5
		c0.1,0,0.2,0,0.3,0.1L184.8,169z"/>
	<path class="st0" d="M187.6,171c0-0.2-0.1-0.3-0.2-0.4c-0.1-0.1-0.3-0.2-0.6-0.2s-0.6-0.1-0.8-0.2c-0.4-0.2-0.7-0.5-0.7-0.9
		c0-0.3,0.1-0.6,0.4-0.9c0.3-0.2,0.7-0.3,1.1-0.3c0.5,0,0.9,0.1,1.1,0.4s0.4,0.5,0.4,0.9h-0.9c0-0.2-0.1-0.3-0.2-0.4
		c-0.1-0.1-0.3-0.2-0.5-0.2c-0.2,0-0.4,0-0.5,0.1c-0.1,0.1-0.2,0.2-0.2,0.4c0,0.1,0.1,0.2,0.2,0.3c0.1,0.1,0.3,0.2,0.7,0.2
		c0.3,0.1,0.6,0.2,0.8,0.3c0.2,0.1,0.3,0.2,0.4,0.4c0.1,0.1,0.1,0.3,0.1,0.5c0,0.4-0.1,0.6-0.4,0.9c-0.3,0.2-0.7,0.3-1.2,0.3
		c-0.3,0-0.6-0.1-0.9-0.2s-0.5-0.3-0.6-0.5c-0.1-0.2-0.2-0.4-0.2-0.7h0.9c0,0.2,0.1,0.4,0.2,0.5s0.3,0.2,0.6,0.2
		c0.2,0,0.4,0,0.5-0.1C187.6,171.3,187.6,171.2,187.6,171z"/>
	<path class="st0" d="M190.4,167.2v1h0.7v0.7h-0.7v2.2c0,0.2,0,0.3,0.1,0.3c0.1,0.1,0.2,0.1,0.3,0.1c0.1,0,0.2,0,0.3,0v0.7
		c-0.2,0.1-0.4,0.1-0.6,0.1c-0.7,0-1-0.4-1-1.1v-2.2h-0.7v-0.7h0.7v-1H190.4z"/>
	<path class="st0" d="M196,172.1h-0.9v-4.3l-1.3,0.4v-0.7l2.1-0.8h0.1V172.1z"/>
	<path class="st0" d="M200.9,170.2h0.7v0.7h-0.7v1.2H200v-1.2h-2.3l0-0.5l2.3-3.6h0.9V170.2z M198.6,170.2h1.4V168l-0.1,0.1
		L198.6,170.2z"/>
	<path class="st0" d="M203.9,170.1c0-0.6,0.1-1.1,0.4-1.5c0.3-0.4,0.7-0.6,1.1-0.6c0.4,0,0.8,0.1,1,0.4v-2h0.9v5.6h-0.8l0-0.4
		c-0.3,0.3-0.6,0.5-1.1,0.5c-0.5,0-0.8-0.2-1.1-0.6C204,171.2,203.9,170.7,203.9,170.1z M204.8,170.2c0,0.4,0.1,0.7,0.2,0.9
		c0.2,0.2,0.4,0.3,0.7,0.3c0.4,0,0.6-0.2,0.8-0.5v-1.7c-0.2-0.3-0.4-0.5-0.8-0.5c-0.3,0-0.5,0.1-0.7,0.3
		C204.8,169.4,204.8,169.7,204.8,170.2z"/>
	<path class="st0" d="M210.6,172.1c0-0.1-0.1-0.2-0.1-0.4c-0.3,0.3-0.6,0.4-1,0.4c-0.4,0-0.7-0.1-1-0.3c-0.3-0.2-0.4-0.5-0.4-0.8
		c0-0.4,0.2-0.7,0.5-1s0.8-0.3,1.3-0.3h0.5v-0.3c0-0.2-0.1-0.4-0.2-0.5c-0.1-0.1-0.3-0.2-0.5-0.2c-0.2,0-0.4,0.1-0.5,0.2
		c-0.1,0.1-0.2,0.2-0.2,0.4h-0.9c0-0.2,0.1-0.4,0.2-0.6c0.1-0.2,0.3-0.3,0.6-0.4c0.2-0.1,0.5-0.2,0.8-0.2c0.5,0,0.8,0.1,1.1,0.3
		c0.3,0.2,0.4,0.6,0.4,1v1.8c0,0.4,0,0.6,0.2,0.9v0.1H210.6z M209.7,171.5c0.2,0,0.3,0,0.5-0.1c0.2-0.1,0.3-0.2,0.3-0.3v-0.7H210
		c-0.3,0-0.6,0.1-0.7,0.2c-0.2,0.1-0.2,0.3-0.2,0.5c0,0.2,0.1,0.3,0.2,0.4S209.5,171.5,209.7,171.5z"/>
	<path class="st0" d="M213.7,170.8l0.8-2.7h0.9l-1.6,4.6c-0.2,0.7-0.7,1-1.2,1c-0.1,0-0.3,0-0.4-0.1v-0.7l0.2,0c0.2,0,0.4,0,0.5-0.1
		c0.1-0.1,0.2-0.2,0.3-0.4l0.1-0.3l-1.4-3.9h1L213.7,170.8z"/>
	<path class="st0" d="M218.2,171c0-0.2-0.1-0.3-0.2-0.4c-0.1-0.1-0.3-0.2-0.6-0.2s-0.6-0.1-0.8-0.2c-0.4-0.2-0.7-0.5-0.7-0.9
		c0-0.3,0.1-0.6,0.4-0.9c0.3-0.2,0.7-0.3,1.1-0.3c0.5,0,0.9,0.1,1.1,0.4s0.4,0.5,0.4,0.9h-0.9c0-0.2-0.1-0.3-0.2-0.4
		c-0.1-0.1-0.3-0.2-0.5-0.2c-0.2,0-0.4,0-0.5,0.1c-0.1,0.1-0.2,0.2-0.2,0.4c0,0.1,0.1,0.2,0.2,0.3c0.1,0.1,0.3,0.2,0.7,0.2
		c0.3,0.1,0.6,0.2,0.8,0.3c0.2,0.1,0.3,0.2,0.4,0.4c0.1,0.1,0.1,0.3,0.1,0.5c0,0.4-0.1,0.6-0.4,0.9c-0.3,0.2-0.7,0.3-1.2,0.3
		c-0.3,0-0.6-0.1-0.9-0.2s-0.5-0.3-0.6-0.5c-0.1-0.2-0.2-0.4-0.2-0.7h0.9c0,0.2,0.1,0.4,0.2,0.5s0.3,0.2,0.6,0.2
		c0.2,0,0.4,0,0.5-0.1C218.1,171.3,218.2,171.2,218.2,171z"/>
	<path class="st0" d="M220.4,171.2c0.2,0,0.3,0,0.4,0.1c0.1,0.1,0.1,0.2,0.1,0.4c0,0.1,0,0.3-0.1,0.3c-0.1,0.1-0.2,0.1-0.4,0.1
		c-0.2,0-0.3,0-0.4-0.1c-0.1-0.1-0.1-0.2-0.1-0.3s0-0.3,0.1-0.4C220.1,171.2,220.2,171.2,220.4,171.2z"/>
	<path class="st0" d="M129.9,179.1v2H129v-5.3h2c0.6,0,1.1,0.2,1.4,0.5c0.4,0.3,0.5,0.7,0.5,1.2c0,0.5-0.2,0.9-0.5,1.2
		c-0.3,0.3-0.8,0.4-1.4,0.4H129.9z M129.9,178.4h1.1c0.3,0,0.6-0.1,0.8-0.2s0.3-0.4,0.3-0.7c0-0.3-0.1-0.5-0.3-0.7s-0.4-0.3-0.7-0.3
		h-1.1V178.4z"/>
	<path class="st0" d="M134.7,181.1h-0.9v-5.6h0.9V181.1z"/>
	<path class="st0" d="M138,181.1c0-0.1-0.1-0.2-0.1-0.4c-0.3,0.3-0.6,0.4-1,0.4c-0.4,0-0.7-0.1-1-0.3c-0.3-0.2-0.4-0.5-0.4-0.8
		c0-0.4,0.2-0.7,0.5-1c0.3-0.2,0.8-0.3,1.3-0.3h0.5v-0.3c0-0.2-0.1-0.4-0.2-0.5c-0.1-0.1-0.3-0.2-0.5-0.2c-0.2,0-0.4,0.1-0.5,0.2
		c-0.1,0.1-0.2,0.2-0.2,0.4h-0.9c0-0.2,0.1-0.4,0.2-0.6s0.3-0.3,0.6-0.4c0.2-0.1,0.5-0.2,0.8-0.2c0.5,0,0.8,0.1,1.1,0.3
		c0.3,0.2,0.4,0.6,0.4,1v1.8c0,0.4,0,0.6,0.1,0.9v0.1H138z M137,180.5c0.2,0,0.3,0,0.5-0.1c0.2-0.1,0.3-0.2,0.3-0.3v-0.7h-0.5
		c-0.3,0-0.6,0.1-0.7,0.2c-0.2,0.1-0.2,0.3-0.2,0.5c0,0.2,0.1,0.3,0.2,0.4C136.7,180.4,136.8,180.5,137,180.5z"/>
	<path class="st0" d="M140.5,177.1l0,0.5c0.3-0.4,0.7-0.5,1.2-0.5c0.8,0,1.2,0.5,1.3,1.4v2.6h-0.9v-2.6c0-0.3-0.1-0.4-0.2-0.6
		c-0.1-0.1-0.3-0.2-0.5-0.2c-0.4,0-0.6,0.2-0.8,0.5v2.8h-0.9v-4H140.5z"/>
	<path class="st0" d="M146.1,180c0-0.2-0.1-0.3-0.2-0.4c-0.1-0.1-0.3-0.2-0.6-0.2s-0.6-0.1-0.8-0.2c-0.4-0.2-0.7-0.5-0.7-0.9
		c0-0.3,0.1-0.6,0.4-0.9c0.3-0.2,0.7-0.3,1.1-0.3c0.5,0,0.9,0.1,1.1,0.4c0.3,0.2,0.4,0.5,0.4,0.9H146c0-0.2-0.1-0.3-0.2-0.4
		c-0.1-0.1-0.3-0.2-0.5-0.2c-0.2,0-0.4,0-0.5,0.1c-0.1,0.1-0.2,0.2-0.2,0.4c0,0.1,0.1,0.2,0.2,0.3c0.1,0.1,0.3,0.2,0.7,0.2
		c0.3,0.1,0.6,0.2,0.8,0.3c0.2,0.1,0.3,0.2,0.4,0.4c0.1,0.1,0.1,0.3,0.1,0.5c0,0.4-0.1,0.6-0.4,0.9c-0.3,0.2-0.7,0.3-1.2,0.3
		c-0.3,0-0.6-0.1-0.9-0.2s-0.5-0.3-0.6-0.5c-0.1-0.2-0.2-0.4-0.2-0.7h0.9c0,0.2,0.1,0.4,0.2,0.5s0.3,0.2,0.6,0.2
		c0.2,0,0.4,0,0.5-0.1C146,180.3,146.1,180.2,146.1,180z"/>
	<path class="st0" d="M151.8,180c0-0.2-0.1-0.3-0.2-0.4s-0.3-0.2-0.7-0.2s-0.6-0.1-0.8-0.2c-0.4-0.2-0.7-0.5-0.7-0.9
		c0-0.3,0.1-0.6,0.4-0.9c0.3-0.2,0.7-0.3,1.1-0.3c0.5,0,0.9,0.1,1.1,0.4c0.3,0.2,0.4,0.5,0.4,0.9h-0.9c0-0.2-0.1-0.3-0.2-0.4
		c-0.1-0.1-0.3-0.2-0.5-0.2c-0.2,0-0.4,0-0.5,0.1c-0.1,0.1-0.2,0.2-0.2,0.4c0,0.1,0.1,0.2,0.2,0.3c0.1,0.1,0.3,0.2,0.7,0.2
		c0.3,0.1,0.6,0.2,0.8,0.3s0.3,0.2,0.4,0.4c0.1,0.1,0.1,0.3,0.1,0.5c0,0.4-0.1,0.6-0.4,0.9c-0.3,0.2-0.7,0.3-1.2,0.3
		c-0.3,0-0.6-0.1-0.9-0.2s-0.5-0.3-0.6-0.5c-0.1-0.2-0.2-0.4-0.2-0.7h0.9c0,0.2,0.1,0.4,0.2,0.5s0.3,0.2,0.6,0.2
		c0.2,0,0.4,0,0.5-0.1C151.8,180.3,151.8,180.2,151.8,180z"/>
	<path class="st0" d="M154.6,176.2v1h0.7v0.7h-0.7v2.2c0,0.2,0,0.3,0.1,0.3c0.1,0.1,0.2,0.1,0.3,0.1c0.1,0,0.2,0,0.3,0v0.7
		c-0.2,0.1-0.4,0.1-0.6,0.1c-0.7,0-1-0.4-1-1.1v-2.2h-0.7v-0.7h0.7v-1H154.6z"/>
	<path class="st0" d="M158.3,181.1c0-0.1-0.1-0.2-0.1-0.4c-0.3,0.3-0.6,0.4-1,0.4c-0.4,0-0.7-0.1-1-0.3c-0.3-0.2-0.4-0.5-0.4-0.8
		c0-0.4,0.2-0.7,0.5-1s0.8-0.3,1.3-0.3h0.5v-0.3c0-0.2-0.1-0.4-0.2-0.5c-0.1-0.1-0.3-0.2-0.5-0.2c-0.2,0-0.4,0.1-0.5,0.2
		c-0.1,0.1-0.2,0.2-0.2,0.4h-0.9c0-0.2,0.1-0.4,0.2-0.6c0.1-0.2,0.3-0.3,0.6-0.4c0.2-0.1,0.5-0.2,0.8-0.2c0.5,0,0.8,0.1,1.1,0.3
		c0.3,0.2,0.4,0.6,0.4,1v1.8c0,0.4,0,0.6,0.2,0.9v0.1H158.3z M157.4,180.5c0.2,0,0.3,0,0.5-0.1c0.2-0.1,0.3-0.2,0.3-0.3v-0.7h-0.5
		c-0.3,0-0.6,0.1-0.7,0.2c-0.2,0.1-0.2,0.3-0.2,0.5c0,0.2,0.1,0.3,0.2,0.4S157.2,180.5,157.4,180.5z"/>
	<path class="st0" d="M162.1,178c-0.1,0-0.2,0-0.4,0c-0.4,0-0.7,0.2-0.8,0.5v2.7H160v-4h0.8l0,0.4c0.2-0.3,0.5-0.5,0.9-0.5
		c0.1,0,0.2,0,0.3,0.1L162.1,178z"/>
	<path class="st0" d="M164,176.2v1h0.7v0.7H164v2.2c0,0.2,0,0.3,0.1,0.3s0.2,0.1,0.3,0.1c0.1,0,0.2,0,0.3,0v0.7
		c-0.2,0.1-0.4,0.1-0.6,0.1c-0.7,0-1-0.4-1-1.1v-2.2h-0.7v-0.7h0.7v-1H164z"/>
	<path class="st0" d="M165.3,176.1c0-0.1,0-0.2,0.1-0.3c0.1-0.1,0.2-0.1,0.4-0.1s0.3,0,0.4,0.1c0.1,0.1,0.1,0.2,0.1,0.3
		c0,0.1,0,0.2-0.1,0.3s-0.2,0.1-0.4,0.1s-0.3,0-0.4-0.1S165.3,176.2,165.3,176.1z M166.3,181.1h-0.9v-4h0.9V181.1z"/>
	<path class="st0" d="M168.1,177.1l0,0.5c0.3-0.4,0.7-0.5,1.2-0.5c0.8,0,1.2,0.5,1.3,1.4v2.6h-0.9v-2.6c0-0.3-0.1-0.4-0.2-0.6
		c-0.1-0.1-0.3-0.2-0.5-0.2c-0.4,0-0.6,0.2-0.8,0.5v2.8h-0.9v-4H168.1z"/>
	<path class="st0" d="M171.3,179.1c0-0.6,0.1-1.1,0.4-1.5s0.7-0.6,1.2-0.6c0.5,0,0.8,0.2,1.1,0.5l0-0.4h0.8v3.8
		c0,0.5-0.2,0.9-0.5,1.2c-0.3,0.3-0.8,0.5-1.3,0.5c-0.3,0-0.6-0.1-0.9-0.2s-0.5-0.3-0.6-0.5l0.4-0.5c0.3,0.3,0.6,0.5,1,0.5
		c0.3,0,0.5-0.1,0.7-0.2s0.3-0.4,0.3-0.7v-0.3c-0.3,0.3-0.6,0.4-1,0.4c-0.5,0-0.8-0.2-1.1-0.6C171.4,180.3,171.3,179.7,171.3,179.1z
		 M172.2,179.2c0,0.4,0.1,0.7,0.2,0.9c0.2,0.2,0.4,0.3,0.7,0.3c0.4,0,0.6-0.2,0.8-0.5v-1.7c-0.2-0.3-0.4-0.5-0.8-0.5
		c-0.3,0-0.5,0.1-0.7,0.3C172.2,178.4,172.2,178.7,172.2,179.2z"/>
	<path class="st0" d="M179.9,181.1c0-0.1-0.1-0.2-0.1-0.4c-0.3,0.3-0.6,0.4-1,0.4c-0.4,0-0.7-0.1-1-0.3c-0.3-0.2-0.4-0.5-0.4-0.8
		c0-0.4,0.2-0.7,0.5-1s0.8-0.3,1.3-0.3h0.5v-0.3c0-0.2-0.1-0.4-0.2-0.5c-0.1-0.1-0.3-0.2-0.5-0.2c-0.2,0-0.4,0.1-0.5,0.2
		c-0.1,0.1-0.2,0.2-0.2,0.4h-0.9c0-0.2,0.1-0.4,0.2-0.6c0.1-0.2,0.3-0.3,0.6-0.4c0.2-0.1,0.5-0.2,0.8-0.2c0.5,0,0.8,0.1,1.1,0.3
		c0.3,0.2,0.4,0.6,0.4,1v1.8c0,0.4,0,0.6,0.2,0.9v0.1H179.9z M178.9,180.5c0.2,0,0.3,0,0.5-0.1c0.2-0.1,0.3-0.2,0.3-0.3v-0.7h-0.5
		c-0.3,0-0.6,0.1-0.7,0.2c-0.2,0.1-0.2,0.3-0.2,0.5c0,0.2,0.1,0.3,0.2,0.4S178.8,180.5,178.9,180.5z"/>
	<path class="st0" d="M182.7,176.2v1h0.7v0.7h-0.7v2.2c0,0.2,0,0.3,0.1,0.3c0.1,0.1,0.2,0.1,0.3,0.1c0.1,0,0.2,0,0.3,0v0.7
		c-0.2,0.1-0.4,0.1-0.6,0.1c-0.7,0-1-0.4-1-1.1v-2.2h-0.7v-0.7h0.7v-1H182.7z"/>
	<path class="st0" d="M188.5,179.7c0-0.2-0.1-0.4-0.2-0.5s-0.4-0.3-0.7-0.4s-0.5-0.2-0.7-0.3c-0.6-0.3-0.9-0.8-0.9-1.4
		c0-0.4,0.1-0.7,0.4-1c0.2-0.3,0.6-0.4,1-0.5v-0.8h0.6v0.8c0.4,0.1,0.8,0.2,1,0.5c0.2,0.3,0.3,0.7,0.3,1.2h-0.9
		c0-0.3-0.1-0.5-0.2-0.7c-0.1-0.2-0.3-0.3-0.6-0.3c-0.2,0-0.4,0.1-0.5,0.2s-0.2,0.3-0.2,0.5c0,0.2,0.1,0.4,0.2,0.5
		c0.1,0.1,0.4,0.2,0.7,0.4c0.3,0.1,0.6,0.2,0.7,0.3c0.2,0.1,0.3,0.2,0.5,0.3c0.1,0.1,0.2,0.3,0.3,0.4c0.1,0.2,0.1,0.4,0.1,0.6
		c0,0.4-0.1,0.7-0.4,1s-0.6,0.4-1.1,0.5v0.7h-0.6v-0.7c-0.5-0.1-0.9-0.2-1.1-0.5s-0.4-0.7-0.4-1.2h0.9c0,0.3,0.1,0.5,0.2,0.7
		s0.4,0.3,0.7,0.3c0.3,0,0.5-0.1,0.6-0.2C188.4,180.1,188.5,179.9,188.5,179.7z"/>
	<path class="st0" d="M192.7,178.9c-0.3,0.3-0.6,0.5-1,0.5c-0.5,0-0.8-0.2-1.1-0.5c-0.3-0.3-0.4-0.8-0.4-1.3c0-0.4,0.1-0.7,0.2-1
		c0.1-0.3,0.3-0.5,0.6-0.7c0.3-0.2,0.6-0.2,0.9-0.2c0.5,0,1,0.2,1.3,0.6c0.3,0.4,0.5,0.9,0.5,1.6v0.2c0,1-0.2,1.7-0.7,2.2
		s-1.1,0.8-1.9,0.8h-0.1v-0.7h0.1c0.5,0,0.9-0.1,1.2-0.4C192.5,179.8,192.7,179.4,192.7,178.9z M191.8,178.7c0.2,0,0.3-0.1,0.5-0.2
		c0.2-0.1,0.3-0.2,0.4-0.4v-0.3c0-0.4-0.1-0.7-0.2-0.9s-0.4-0.4-0.6-0.4c-0.3,0-0.5,0.1-0.6,0.3c-0.2,0.2-0.2,0.5-0.2,0.8
		c0,0.3,0.1,0.6,0.2,0.8C191.4,178.5,191.6,178.7,191.8,178.7z"/>
	<path class="st0" d="M195.1,180.2c0.2,0,0.3,0,0.4,0.1c0.1,0.1,0.1,0.2,0.1,0.4c0,0.1,0,0.3-0.1,0.3c-0.1,0.1-0.2,0.1-0.4,0.1
		c-0.2,0-0.3,0-0.4-0.1c-0.1-0.1-0.1-0.2-0.1-0.3s0-0.3,0.1-0.4C194.8,180.2,194.9,180.2,195.1,180.2z"/>
	<path class="st0" d="M199.1,178.9c-0.3,0.3-0.6,0.5-1,0.5c-0.5,0-0.8-0.2-1.1-0.5c-0.3-0.3-0.4-0.8-0.4-1.3c0-0.4,0.1-0.7,0.2-1
		c0.1-0.3,0.3-0.5,0.6-0.7c0.3-0.2,0.6-0.2,0.9-0.2c0.5,0,1,0.2,1.3,0.6c0.3,0.4,0.5,0.9,0.5,1.6v0.2c0,1-0.2,1.7-0.7,2.2
		s-1.1,0.8-1.9,0.8h-0.1v-0.7h0.1c0.5,0,0.9-0.1,1.2-0.4C198.9,179.8,199,179.4,199.1,178.9z M198.2,178.7c0.2,0,0.3-0.1,0.5-0.2
		c0.2-0.1,0.3-0.2,0.4-0.4v-0.3c0-0.4-0.1-0.7-0.2-0.9s-0.4-0.4-0.6-0.4c-0.3,0-0.5,0.1-0.6,0.3c-0.2,0.2-0.2,0.5-0.2,0.8
		c0,0.3,0.1,0.6,0.2,0.8C197.7,178.5,197.9,178.7,198.2,178.7z"/>
	<path class="st0" d="M203.3,178.9c-0.3,0.3-0.6,0.5-1,0.5c-0.5,0-0.8-0.2-1.1-0.5c-0.3-0.3-0.4-0.8-0.4-1.3c0-0.4,0.1-0.7,0.2-1
		c0.1-0.3,0.3-0.5,0.6-0.7c0.3-0.2,0.6-0.2,0.9-0.2c0.5,0,1,0.2,1.3,0.6c0.3,0.4,0.5,0.9,0.5,1.6v0.2c0,1-0.2,1.7-0.7,2.2
		s-1.1,0.8-1.9,0.8h-0.1v-0.7h0.1c0.5,0,0.9-0.1,1.2-0.4C203.1,179.8,203.3,179.4,203.3,178.9z M202.5,178.7c0.2,0,0.3-0.1,0.5-0.2
		c0.2-0.1,0.3-0.2,0.4-0.4v-0.3c0-0.4-0.1-0.7-0.2-0.9s-0.4-0.4-0.6-0.4c-0.3,0-0.5,0.1-0.6,0.3c-0.2,0.2-0.2,0.5-0.2,0.8
		c0,0.3,0.1,0.6,0.2,0.8C202,178.5,202.2,178.7,202.5,178.7z"/>
	<path class="st0" d="M208.1,176.2v1h0.7v0.7h-0.7v2.2c0,0.2,0,0.3,0.1,0.3s0.2,0.1,0.3,0.1c0.1,0,0.2,0,0.3,0v0.7
		c-0.2,0.1-0.4,0.1-0.6,0.1c-0.7,0-1-0.4-1-1.1v-2.2h-0.7v-0.7h0.7v-1H208.1z"/>
	<path class="st0" d="M209.2,179.1c0-0.4,0.1-0.7,0.2-1c0.2-0.3,0.4-0.5,0.6-0.7c0.3-0.2,0.6-0.2,1-0.2c0.5,0,1,0.2,1.3,0.5
		c0.3,0.3,0.5,0.8,0.5,1.4l0,0.2c0,0.4-0.1,0.7-0.2,1s-0.4,0.5-0.6,0.7c-0.3,0.2-0.6,0.3-1,0.3c-0.6,0-1-0.2-1.3-0.6
		C209.4,180.2,209.2,179.8,209.2,179.1L209.2,179.1z M210.1,179.2c0,0.4,0.1,0.7,0.3,1c0.2,0.2,0.4,0.3,0.7,0.3
		c0.3,0,0.5-0.1,0.7-0.4s0.3-0.6,0.3-1c0-0.4-0.1-0.7-0.3-1c-0.2-0.2-0.4-0.4-0.7-0.4c-0.3,0-0.5,0.1-0.7,0.3
		S210.1,178.7,210.1,179.2z"/>
	<path class="st0" d="M218,179.7c0-0.2-0.1-0.4-0.2-0.5s-0.4-0.3-0.7-0.4s-0.5-0.2-0.7-0.3c-0.6-0.3-0.9-0.8-0.9-1.4
		c0-0.4,0.1-0.7,0.4-1c0.2-0.3,0.6-0.4,1-0.5v-0.8h0.6v0.8c0.4,0.1,0.8,0.2,1,0.5c0.2,0.3,0.3,0.7,0.3,1.2H218
		c0-0.3-0.1-0.5-0.2-0.7c-0.1-0.2-0.3-0.3-0.6-0.3c-0.2,0-0.4,0.1-0.5,0.2s-0.2,0.3-0.2,0.5c0,0.2,0.1,0.4,0.2,0.5
		c0.1,0.1,0.4,0.2,0.7,0.4c0.3,0.1,0.6,0.2,0.7,0.3c0.2,0.1,0.3,0.2,0.5,0.3c0.1,0.1,0.2,0.3,0.3,0.4c0.1,0.2,0.1,0.4,0.1,0.6
		c0,0.4-0.1,0.7-0.4,1s-0.6,0.4-1.1,0.5v0.7h-0.6v-0.7c-0.5-0.1-0.9-0.2-1.1-0.5s-0.4-0.7-0.4-1.2h0.9c0,0.3,0.1,0.5,0.2,0.7
		s0.4,0.3,0.7,0.3c0.3,0,0.5-0.1,0.6-0.2C218,180.1,218,179.9,218,179.7z"/>
	<path class="st0" d="M223.3,181.1h-3.6v-0.6l1.8-1.9c0.3-0.3,0.4-0.5,0.5-0.7s0.2-0.4,0.2-0.6c0-0.3-0.1-0.5-0.2-0.6
		c-0.1-0.2-0.3-0.2-0.6-0.2c-0.3,0-0.5,0.1-0.7,0.3c-0.2,0.2-0.2,0.4-0.2,0.7h-0.9c0-0.3,0.1-0.6,0.2-0.9c0.1-0.3,0.4-0.5,0.6-0.6
		c0.3-0.1,0.6-0.2,1-0.2c0.5,0,0.9,0.1,1.2,0.4c0.3,0.3,0.4,0.6,0.4,1.1c0,0.3-0.1,0.5-0.2,0.8c-0.1,0.3-0.4,0.6-0.7,1l-1.3,1.4h2.5
		V181.1z"/>
	<path class="st0" d="M227,179.2h0.7v0.7H227v1.2h-0.9v-1.2h-2.3l0-0.5l2.3-3.6h0.9V179.2z M224.7,179.2h1.4V177l-0.1,0.1
		L224.7,179.2z"/>
	<path class="st0" d="M228.8,180.2c0.2,0,0.3,0,0.4,0.1c0.1,0.1,0.1,0.2,0.1,0.4c0,0.1,0,0.3-0.1,0.3c-0.1,0.1-0.2,0.1-0.4,0.1
		c-0.2,0-0.3,0-0.4-0.1c-0.1-0.1-0.1-0.2-0.1-0.3s0-0.3,0.1-0.4C228.6,180.2,228.7,180.2,228.8,180.2z"/>
	<path class="st0" d="M232.9,178.9c-0.3,0.3-0.6,0.5-1,0.5c-0.5,0-0.8-0.2-1.1-0.5c-0.3-0.3-0.4-0.8-0.4-1.3c0-0.4,0.1-0.7,0.2-1
		c0.1-0.3,0.3-0.5,0.6-0.7c0.3-0.2,0.6-0.2,0.9-0.2c0.5,0,1,0.2,1.3,0.6c0.3,0.4,0.5,0.9,0.5,1.6v0.2c0,1-0.2,1.7-0.7,2.2
		s-1.1,0.8-1.9,0.8H231v-0.7h0.1c0.5,0,0.9-0.1,1.2-0.4C232.7,179.8,232.8,179.4,232.9,178.9z M232,178.7c0.2,0,0.3-0.1,0.5-0.2
		c0.2-0.1,0.3-0.2,0.4-0.4v-0.3c0-0.4-0.1-0.7-0.2-0.9s-0.4-0.4-0.6-0.4c-0.3,0-0.5,0.1-0.6,0.3c-0.2,0.2-0.2,0.5-0.2,0.8
		c0,0.3,0.1,0.6,0.2,0.8C231.5,178.5,231.7,178.7,232,178.7z"/>
	<path class="st0" d="M237.1,178.9c-0.3,0.3-0.6,0.5-1,0.5c-0.5,0-0.8-0.2-1.1-0.5c-0.3-0.3-0.4-0.8-0.4-1.3c0-0.4,0.1-0.7,0.2-1
		c0.1-0.3,0.3-0.5,0.6-0.7c0.3-0.2,0.6-0.2,0.9-0.2c0.5,0,1,0.2,1.3,0.6c0.3,0.4,0.5,0.9,0.5,1.6v0.2c0,1-0.2,1.7-0.7,2.2
		s-1.1,0.8-1.9,0.8h-0.1v-0.7h0.1c0.5,0,0.9-0.1,1.2-0.4C236.9,179.8,237.1,179.4,237.1,178.9z M236.3,178.7c0.2,0,0.3-0.1,0.5-0.2
		c0.2-0.1,0.3-0.2,0.4-0.4v-0.3c0-0.4-0.1-0.7-0.2-0.9s-0.4-0.4-0.6-0.4c-0.3,0-0.5,0.1-0.6,0.3c-0.2,0.2-0.2,0.5-0.2,0.8
		c0,0.3,0.1,0.6,0.2,0.8C235.8,178.5,236,178.7,236.3,178.7z"/>
	<path class="st0" d="M239.2,181.6h-0.7l2.1-5.8h0.7L239.2,181.6z"/>
	<path class="st0" d="M242.7,177.1l0,0.4c0.3-0.3,0.7-0.5,1.1-0.5c0.5,0,0.9,0.2,1.1,0.6c0.3-0.4,0.7-0.6,1.2-0.6
		c0.4,0,0.8,0.1,1,0.4c0.2,0.2,0.3,0.6,0.3,1.1v2.6h-0.9v-2.6c0-0.3-0.1-0.4-0.2-0.6c-0.1-0.1-0.3-0.2-0.5-0.2
		c-0.2,0-0.4,0.1-0.5,0.2c-0.1,0.1-0.2,0.3-0.3,0.4l0,2.7h-0.9v-2.6c0-0.5-0.3-0.7-0.7-0.7c-0.4,0-0.6,0.1-0.8,0.4v2.9h-0.9v-4
		H242.7z"/>
	<path class="st0" d="M248.2,179.1c0-0.4,0.1-0.7,0.2-1c0.2-0.3,0.4-0.5,0.6-0.7c0.3-0.2,0.6-0.2,1-0.2c0.5,0,1,0.2,1.3,0.5
		c0.3,0.3,0.5,0.8,0.5,1.4l0,0.2c0,0.4-0.1,0.7-0.2,1s-0.4,0.5-0.6,0.7c-0.3,0.2-0.6,0.3-1,0.3c-0.6,0-1-0.2-1.3-0.6
		S248.2,179.8,248.2,179.1L248.2,179.1z M249.1,179.2c0,0.4,0.1,0.7,0.3,1c0.2,0.2,0.4,0.3,0.7,0.3c0.3,0,0.5-0.1,0.7-0.4
		c0.2-0.2,0.3-0.6,0.3-1c0-0.4-0.1-0.7-0.3-1s-0.4-0.4-0.7-0.4c-0.3,0-0.5,0.1-0.7,0.3S249.1,178.7,249.1,179.2z"/>
	<path class="st0" d="M253.5,177.1l0,0.5c0.3-0.4,0.7-0.5,1.2-0.5c0.8,0,1.2,0.5,1.3,1.4v2.6h-0.9v-2.6c0-0.3-0.1-0.4-0.2-0.6
		c-0.1-0.1-0.3-0.2-0.5-0.2c-0.4,0-0.6,0.2-0.8,0.5v2.8h-0.9v-4H253.5z"/>
	<path class="st0" d="M258,176.2v1h0.7v0.7H258v2.2c0,0.2,0,0.3,0.1,0.3c0.1,0.1,0.2,0.1,0.3,0.1c0.1,0,0.2,0,0.3,0v0.7
		c-0.2,0.1-0.4,0.1-0.6,0.1c-0.7,0-1-0.4-1-1.1v-2.2h-0.7v-0.7h0.7v-1H258z"/>
	<path class="st0" d="M260.2,177.6c0.3-0.3,0.7-0.5,1.1-0.5c0.8,0,1.3,0.5,1.3,1.4v2.6h-0.9v-2.6c0-0.3-0.1-0.5-0.2-0.6
		s-0.3-0.2-0.5-0.2c-0.4,0-0.6,0.2-0.8,0.5v2.8h-0.9v-5.6h0.9V177.6z"/>
	<path class="st0" d="M264.1,180.2c0.2,0,0.3,0,0.4,0.1c0.1,0.1,0.1,0.2,0.1,0.4c0,0.1,0,0.3-0.1,0.3c-0.1,0.1-0.2,0.1-0.4,0.1
		c-0.2,0-0.3,0-0.4-0.1c-0.1-0.1-0.1-0.2-0.1-0.3s0-0.3,0.1-0.4C263.8,180.2,263.9,180.2,264.1,180.2z"/>
</g>
</svg>
