<?xml version="1.0" encoding="utf-8"?>
<!-- Generator: Adobe Illustrator 26.0.3, SVG Export Plug-In . SVG Version: 6.00 Build 0)  -->
<svg version="1.1" id="Layer_1" xmlns="http://www.w3.org/2000/svg" xmlns:xlink="http://www.w3.org/1999/xlink" x="0px" y="0px"
	 viewBox="0 0 300 250" style="enable-background:new 0 0 300 250;" xml:space="preserve">
<style type="text/css">
	.st0{fill:#FFFFFF;}
</style>
<path class="st0" d="M238.4,210.4c0-0.2,0.1-0.4,0.2-0.5c0.1-0.1,0.3-0.2,0.5-0.2c0.2,0,0.3,0.1,0.5,0.2c0.1,0.1,0.2,0.3,0.2,0.5
	v7.6c0,0.2-0.1,0.4-0.2,0.5c-0.1,0.1-0.3,0.2-0.5,0.2c-0.2,0-0.3-0.1-0.5-0.2c-0.1-0.1-0.2-0.3-0.2-0.5V210.4z"/>
<g>
	<g>
		<g>
			<path class="st0" d="M199.9,222.4c-0.6,0.4-1.2,0.6-2,0.6c-0.4,0-0.8-0.1-1-0.2c-0.2-0.1-0.5-0.2-0.7-0.3
				c-0.2-0.1-0.3-0.3-0.3-0.6c0-0.2,0.1-0.4,0.2-0.5c0.1-0.1,0.3-0.2,0.5-0.2c0.2,0,0.3,0,0.4,0.1c0.3,0.2,0.6,0.3,1,0.3
				c0.3,0,0.5,0,0.7-0.1c0.2-0.1,0.4-0.2,0.6-0.4c0.2-0.2,0.3-0.4,0.4-0.6c0.1-0.2,0.2-0.5,0.2-0.7v-5.2c0-0.2,0.1-0.4,0.2-0.5
				c0.1-0.1,0.3-0.2,0.5-0.2c0.2,0,0.3,0.1,0.5,0.2c0.1,0.1,0.2,0.3,0.2,0.5c0,0,0,4.3,0,5.2C201.2,221,200.7,221.8,199.9,222.4z"/>
			<path class="st0" d="M168.9,207.3c0-0.2,0.1-0.4,0.2-0.5c0.1-0.1,0.3-0.2,0.5-0.2c0.2,0,0.3,0.1,0.5,0.2c0.1,0.1,0.2,0.3,0.2,0.5
				v0.5c0,0.2-0.1,0.4-0.2,0.5c-0.1,0.1-0.3,0.2-0.5,0.2c-0.2,0-0.3-0.1-0.5-0.2c-0.1-0.1-0.2-0.3-0.2-0.5V207.3z M168.9,210.5
				c0-0.2,0.1-0.4,0.2-0.5c0.1-0.1,0.3-0.2,0.5-0.2c0.2,0,0.3,0.1,0.5,0.2c0.1,0.1,0.2,0.3,0.2,0.5v7.6c0,0.2-0.1,0.4-0.2,0.5
				c-0.1,0.1-0.3,0.2-0.5,0.2c-0.2,0-0.3-0.1-0.5-0.2c-0.1-0.1-0.2-0.3-0.2-0.5V210.5z"/>
			<g>
				<path class="st0" d="M163,210.7c0-0.2,0.1-0.3,0.2-0.5c0.1-0.1,0.3-0.2,0.5-0.2c0.2,0,0.3,0.1,0.4,0.1c0.1,0.1,0.2,0.2,0.2,0.4
					c0.6-0.4,1.2-0.6,1.9-0.6c0.4,0,0.7,0.1,1,0.2c0.2,0.1,0.5,0.2,0.7,0.3c0.2,0.1,0.3,0.3,0.3,0.6c0,0.2-0.1,0.4-0.2,0.5
					c-0.1,0.1-0.3,0.2-0.5,0.2c-0.2,0-0.3,0-0.4-0.1c-0.3-0.2-0.6-0.2-0.9-0.2c-0.3,0-0.5,0-0.7,0.1c-0.2,0.1-0.4,0.2-0.6,0.4
					c-0.2,0.2-0.3,0.3-0.4,0.6c-0.1,0.2-0.1,0.4-0.2,0.7v5c0,0.2-0.1,0.3-0.2,0.5c-0.1,0.1-0.3,0.2-0.5,0.2c-0.2,0-0.3-0.1-0.5-0.2
					c-0.1-0.1-0.2-0.3-0.2-0.5V213V210.7z"/>
			</g>
			<path class="st0" d="M171.2,210.7c0-0.1-0.1-0.2-0.1-0.3c0-0.2,0.1-0.3,0.2-0.5c0.1-0.1,0.3-0.2,0.5-0.2c0.1,0,0.3,0,0.4,0.1
				c0.1,0.1,0.2,0.2,0.3,0.3l2.7,6.2l2.7-6.2c0.1-0.3,0.3-0.4,0.6-0.4c0.2,0,0.4,0.1,0.5,0.2c0.1,0.1,0.2,0.3,0.2,0.5
				c0,0.1,0,0.2-0.1,0.3l-3.3,7.7c-0.1,0.3-0.3,0.4-0.6,0.4c-0.3,0-0.5-0.1-0.6-0.4L171.2,210.7z"/>
			<path class="st0" d="M179.3,213c0-0.4,0.1-0.9,0.3-1.3c0.2-0.4,0.4-0.7,0.7-1c0.3-0.3,0.6-0.5,1-0.7c0.4-0.2,0.8-0.3,1.3-0.3
				c0.4,0,0.9,0.1,1.3,0.3c0.4,0.2,0.7,0.4,1,0.7c0.3,0.3,0.5,0.6,0.7,1c0.2,0.4,0.3,0.8,0.3,1.3v5.1c0,0.2-0.1,0.4-0.2,0.5
				c-0.1,0.1-0.3,0.2-0.5,0.2c-0.2,0-0.3-0.1-0.4-0.2c-0.1-0.1-0.2-0.2-0.2-0.4c-0.6,0.4-1.2,0.6-1.9,0.6c-0.4,0-0.9-0.1-1.3-0.3
				c-0.4-0.2-0.7-0.4-1-0.7c-0.3-0.3-0.5-0.6-0.7-1c-0.2-0.4-0.3-0.8-0.3-1.3V213z M180.7,215.6c0,0.3,0.1,0.5,0.2,0.7
				c0.1,0.2,0.2,0.4,0.4,0.6c0.2,0.2,0.4,0.3,0.6,0.4c0.2,0.1,0.5,0.1,0.7,0.1c0.3,0,0.5,0,0.7-0.1c0.2-0.1,0.4-0.2,0.6-0.4
				c0.2-0.2,0.3-0.4,0.4-0.6c0.1-0.2,0.2-0.5,0.2-0.7V213c0-0.3-0.1-0.5-0.2-0.7c-0.1-0.2-0.2-0.4-0.4-0.6c-0.2-0.2-0.4-0.3-0.6-0.4
				c-0.2-0.1-0.5-0.1-0.7-0.1c-0.3,0-0.5,0-0.7,0.1c-0.2,0.1-0.4,0.2-0.6,0.4c-0.2,0.2-0.3,0.4-0.4,0.6c-0.1,0.2-0.1,0.5-0.1,0.7
				V215.6z"/>
			<path class="st0" d="M187.1,213c0-0.5,0.1-0.9,0.3-1.3c0.2-0.4,0.4-0.7,0.7-1c0.3-0.3,0.7-0.5,1.1-0.7c0.4-0.2,0.8-0.3,1.3-0.3
				c0.1,0,0.2,0,0.5,0c0.2,0,0.5,0.1,0.8,0.2c0.3,0.1,0.6,0.3,0.9,0.6c0.3,0.3,0.5,0.6,0.7,1.1c0,0.1,0.1,0.2,0.1,0.3
				c0,0.2-0.1,0.4-0.2,0.5c-0.1,0.1-0.3,0.2-0.5,0.2c-0.1,0-0.3,0-0.4-0.1c-0.1-0.1-0.2-0.2-0.2-0.3c-0.2-0.4-0.4-0.6-0.7-0.8
				c-0.3-0.2-0.7-0.3-1-0.3c-0.3,0-0.5,0-0.7,0.1c-0.2,0.1-0.4,0.2-0.6,0.4c-0.2,0.2-0.3,0.4-0.4,0.6c-0.1,0.2-0.1,0.5-0.1,0.7v2.6
				c0,0.3,0.1,0.5,0.2,0.7c0.1,0.2,0.2,0.4,0.4,0.6c0.2,0.2,0.4,0.3,0.6,0.4c0.2,0.1,0.5,0.1,0.7,0.1c0.4,0,0.7-0.1,1-0.3
				c0.3-0.2,0.5-0.5,0.7-0.8c0.1-0.1,0.1-0.2,0.3-0.3c0.1-0.1,0.2-0.1,0.4-0.1c0.2,0,0.4,0.1,0.5,0.2c0.1,0.1,0.2,0.3,0.2,0.5
				c0,0.1,0,0.2-0.1,0.3c-0.2,0.5-0.5,0.9-0.9,1.2c-0.3,0.3-0.7,0.5-1,0.6c-0.3,0.1-0.6,0.2-0.8,0.2c-0.2,0-0.3,0-0.4,0
				c-0.4,0-0.9-0.1-1.3-0.3c-0.4-0.2-0.7-0.4-1-0.7c-0.3-0.3-0.5-0.6-0.7-1c-0.2-0.4-0.3-0.8-0.3-1.3V213z"/>
			<path class="st0" d="M212,210.5c0-0.2,0.1-0.4,0.2-0.5c0.1-0.1,0.3-0.2,0.5-0.2c0.2,0,0.3,0.1,0.5,0.2c0.1,0.1,0.2,0.3,0.2,0.5
				v5.1c0,0.3,0,0.5,0.1,0.7c0.1,0.2,0.2,0.4,0.4,0.6c0.2,0.2,0.4,0.3,0.6,0.4c0.2,0.1,0.5,0.1,0.7,0.1c0.3,0,0.5,0,0.7-0.1
				c0.2-0.1,0.4-0.2,0.6-0.4c0.2-0.2,0.3-0.4,0.4-0.6c0.1-0.2,0.2-0.5,0.2-0.7v-5.1c0-0.2,0.1-0.4,0.2-0.5c0.1-0.1,0.3-0.2,0.5-0.2
				c0.2,0,0.3,0.1,0.5,0.2c0.1,0.1,0.2,0.3,0.2,0.5v5.1c0,0.4-0.1,0.9-0.3,1.3c-0.2,0.4-0.4,0.7-0.7,1c-0.3,0.3-0.6,0.5-1,0.7
				c-0.4,0.2-0.8,0.3-1.3,0.3c-0.5,0-0.9-0.1-1.3-0.3c-0.4-0.2-0.7-0.4-1-0.7c-0.3-0.3-0.5-0.6-0.7-1c-0.2-0.4-0.3-0.8-0.3-1.3
				V210.5z"/>
			<path class="st0" d="M219.8,213c0-0.4,0.1-0.9,0.3-1.3c0.2-0.4,0.4-0.7,0.7-1c0.3-0.3,0.6-0.5,1-0.7c0.4-0.2,0.8-0.3,1.3-0.3
				c0.4,0,0.9,0.1,1.3,0.3c0.4,0.2,0.7,0.4,1,0.7c0.3,0.3,0.5,0.6,0.7,1c0.2,0.4,0.3,0.8,0.3,1.3v5.1c0,0.2-0.1,0.4-0.2,0.5
				c-0.1,0.1-0.3,0.2-0.5,0.2c-0.2,0-0.3-0.1-0.4-0.2c-0.1-0.1-0.2-0.2-0.2-0.4c-0.6,0.4-1.2,0.6-1.9,0.6c-0.4,0-0.9-0.1-1.3-0.3
				c-0.4-0.2-0.7-0.4-1-0.7c-0.3-0.3-0.5-0.6-0.7-1c-0.2-0.4-0.3-0.8-0.3-1.3V213z M221.1,215.6c0,0.3,0.1,0.5,0.2,0.7
				c0.1,0.2,0.2,0.4,0.4,0.6c0.2,0.2,0.4,0.3,0.6,0.4c0.2,0.1,0.5,0.1,0.7,0.1c0.3,0,0.5,0,0.7-0.1c0.2-0.1,0.4-0.2,0.6-0.4
				c0.2-0.2,0.3-0.4,0.4-0.6c0.1-0.2,0.2-0.5,0.2-0.7V213c0-0.3-0.1-0.5-0.2-0.7c-0.1-0.2-0.2-0.4-0.4-0.6c-0.2-0.2-0.4-0.3-0.6-0.4
				c-0.2-0.1-0.5-0.1-0.7-0.1c-0.3,0-0.5,0-0.7,0.1c-0.2,0.1-0.4,0.2-0.6,0.4c-0.2,0.2-0.3,0.4-0.4,0.6c-0.1,0.2-0.1,0.5-0.1,0.7
				V215.6z"/>
			<g>
				<path class="st0" d="M227.6,210.7c0-0.2,0.1-0.3,0.2-0.5c0.1-0.1,0.3-0.2,0.5-0.2c0.2,0,0.3,0.1,0.4,0.1
					c0.1,0.1,0.2,0.2,0.2,0.4c0.6-0.4,1.2-0.6,1.9-0.6c0.4,0,0.7,0.1,1,0.2c0.2,0.1,0.5,0.2,0.7,0.3c0.2,0.1,0.3,0.3,0.3,0.6
					c0,0.2-0.1,0.4-0.2,0.5c-0.1,0.1-0.3,0.2-0.5,0.2c-0.2,0-0.3,0-0.4-0.1c-0.3-0.2-0.6-0.2-0.9-0.2c-0.3,0-0.5,0-0.7,0.1
					c-0.2,0.1-0.4,0.2-0.6,0.4c-0.2,0.2-0.3,0.3-0.4,0.6c-0.1,0.2-0.1,0.4-0.2,0.7v5c0,0.2-0.1,0.3-0.2,0.5
					c-0.1,0.1-0.3,0.2-0.5,0.2c-0.2,0-0.3-0.1-0.5-0.2c-0.1-0.1-0.2-0.3-0.2-0.5V213V210.7z"/>
			</g>
			<path class="st0" d="M238.4,207.3c0-0.2,0.1-0.4,0.2-0.5c0.1-0.1,0.3-0.2,0.5-0.2c0.2,0,0.3,0.1,0.5,0.2c0.1,0.1,0.2,0.3,0.2,0.5
				v8.3c0,0.4-0.1,0.9-0.3,1.3c-0.2,0.4-0.4,0.7-0.7,1c-0.3,0.3-0.6,0.5-1,0.7c-0.4,0.2-0.8,0.3-1.3,0.3c-0.5,0-0.9-0.1-1.3-0.3
				c-0.4-0.2-0.7-0.4-1-0.7c-0.3-0.3-0.5-0.6-0.7-1c-0.2-0.4-0.3-0.8-0.3-1.3V213c0-0.4,0.1-0.9,0.3-1.3c0.2-0.4,0.4-0.7,0.7-1
				c0.3-0.3,0.6-0.5,1-0.7c0.4-0.2,0.8-0.3,1.3-0.3c0.3,0,0.7,0.1,1,0.2c0.3,0.1,0.6,0.3,0.9,0.5V207.3z M234.6,215.6
				c0,0.3,0,0.5,0.1,0.7c0.1,0.2,0.2,0.4,0.4,0.6c0.2,0.2,0.4,0.3,0.6,0.4c0.2,0.1,0.5,0.1,0.7,0.1c0.3,0,0.5,0,0.7-0.1
				c0.2-0.1,0.4-0.2,0.6-0.4c0.2-0.2,0.3-0.4,0.4-0.6c0.1-0.2,0.2-0.5,0.2-0.7V213c0-0.3,0-0.5-0.1-0.7c-0.1-0.2-0.2-0.4-0.4-0.6
				c-0.2-0.2-0.4-0.3-0.6-0.4c-0.2-0.1-0.5-0.1-0.7-0.1c-0.3,0-0.5,0-0.7,0.1c-0.2,0.1-0.4,0.2-0.6,0.4c-0.2,0.2-0.3,0.4-0.4,0.6
				c-0.1,0.2-0.2,0.5-0.2,0.7V215.6z"/>
			<path class="st0" d="M194.7,210.5c0-0.2,0.1-0.4,0.2-0.5c0.1-0.1,0.3-0.2,0.5-0.2c0.2,0,0.3,0.1,0.5,0.2c0.1,0.1,0.2,0.3,0.2,0.5
				v5.1c0,0.3,0,0.5,0.1,0.7c0.1,0.2,0.2,0.4,0.4,0.6c0.2,0.2,0.4,0.3,0.6,0.4c0.2,0.1,0.5,0.1,0.7,0.1c0.3,0,0.5,0,0.7-0.1
				c0.2-0.1,0.4-0.2,0.6-0.4c0.2-0.2,0.3-0.4,0.4-0.6c0.1-0.2,0.2-0.5,0.2-0.7v-5.1c0-0.2,0.1-0.4,0.2-0.5c0.1-0.1,0.3-0.2,0.5-0.2
				c0.2,0,0.3,0.1,0.5,0.2c0.1,0.1,0.2,0.3,0.2,0.5v5.1c0,0.4-0.1,0.9-0.3,1.3c-0.2,0.4-0.4,0.7-0.7,1c-0.3,0.3-0.6,0.5-1,0.7
				c-0.4,0.2-0.8,0.3-1.3,0.3c-0.5,0-0.9-0.1-1.3-0.3c-0.4-0.2-0.7-0.4-1-0.7c-0.3-0.3-0.5-0.6-0.7-1c-0.2-0.4-0.3-0.8-0.3-1.3
				V210.5z"/>
			<path class="st0" d="M210,212.7h-2.9c-0.4,0-0.7,0.3-0.7,0.7c0,0.4,0.3,0.7,0.7,0.7h2.3v1.1c0,1.5-1.3,2.6-2.7,2.6
				c-1.6,0-2.9-1.1-2.9-2.9v-4.1c0-1.7,1.3-2.9,2.8-2.9c1.3,0,2.3,0.9,2.7,2c0.1,0.2,0.3,0.4,0.6,0.4c0.5,0,0.9-0.4,0.6-1
				c-0.4-1.3-1.8-2.7-3.9-2.7c-2.5,0-4.2,1.9-4.2,4.2v4.3c0,2.3,1.8,4.2,4.2,4.2c2.2,0,4.1-1.7,4.1-3.7v-2.1
				C210.8,212.9,210.4,212.7,210,212.7z"/>
		</g>
	</g>
	<path class="st0" d="M238.4,210.5c0-0.2,0.1-0.4,0.2-0.5c0.1-0.1,0.3-0.2,0.5-0.2c0.2,0,0.3,0.1,0.5,0.2c0.1,0.1,0.2,0.3,0.2,0.5
		v7.6c0,0.2-0.1,0.4-0.2,0.5c-0.1,0.1-0.3,0.2-0.5,0.2c-0.2,0-0.3-0.1-0.5-0.2c-0.1-0.1-0.2-0.3-0.2-0.5V210.5z"/>
	<g>
		<path class="st0" d="M154.3,207.8c0-0.2,0.1-0.3,0.2-0.5c0.1-0.1,0.3-0.2,0.5-0.2h2.7h0c0.6,0,1.1,0.1,1.6,0.3
			c0.5,0.2,0.9,0.5,1.3,0.9c0.4,0.4,0.7,0.8,0.9,1.3c0.2,0.5,0.3,1,0.3,1.6c0,0.6-0.1,1.1-0.3,1.6c-0.2,0.5-0.5,0.9-0.9,1.3
			c-0.4,0.4-0.8,0.7-1.3,0.9c-0.5,0.2-1.1,0.3-1.6,0.3h-2v2.7c0,0.2-0.1,0.3-0.2,0.5c-0.1,0.1-0.3,0.2-0.5,0.2
			c-0.2,0-0.3-0.1-0.5-0.2c-0.1-0.1-0.2-0.3-0.2-0.5V207.8z M155.6,208.4v5.6h2c0.4,0,0.8-0.1,1.1-0.2c0.3-0.1,0.6-0.3,0.9-0.6
			c0.3-0.3,0.5-0.5,0.6-0.9c0.1-0.3,0.2-0.7,0.2-1.1c0-0.4-0.1-0.8-0.2-1.1c-0.2-0.3-0.4-0.6-0.6-0.9c-0.3-0.3-0.6-0.5-0.9-0.6
			c-0.3-0.1-0.7-0.2-1.1-0.2H155.6z"/>
	</g>
</g>
<g>
	<path class="st0" d="M240.7,206.9h-0.3v-0.2h0.7v0.2h-0.3v0.8h-0.2V206.9z"/>
	<path class="st0" d="M242.1,207.3c0-0.1,0-0.3,0-0.4h0c0,0.1-0.1,0.3-0.1,0.4l-0.1,0.4h-0.2l-0.1-0.4c0-0.1-0.1-0.2-0.1-0.4h0
		c0,0.1,0,0.3,0,0.4l0,0.4h-0.2l0.1-0.9h0.3l0.1,0.3c0,0.1,0.1,0.2,0.1,0.3h0c0-0.1,0.1-0.2,0.1-0.3l0.1-0.3h0.3l0.1,0.9h-0.2
		L242.1,207.3z"/>
</g>
</svg>
