<svg id="Layer_1" xmlns="http://www.w3.org/2000/svg" viewBox="0 0 300 600"><style>.st0{fill:#021d8b;stroke:url(#SVGID_1_);stroke-width:2;stroke-miterlimit:10}.st1{fill:#fff}</style><linearGradient id="SVGID_1_" gradientUnits="userSpaceOnUse" x1="69.394" y1="384.741" x2="229.379" y2="384.741"><stop offset="0" stop-color="#18b9fb"/><stop offset=".5" stop-color="#782eeb"/><stop offset="1" stop-color="#e82d8a"/></linearGradient><path class="st0" d="M201.83 411.29H96.94c-14.66 0-26.55-11.89-26.55-26.55s11.89-26.55 26.55-26.55h104.89c14.66 0 26.55 11.89 26.55 26.55s-11.89 26.55-26.55 26.55z"/><path class="st1" d="M96 388.59h5.98v2.26h-8.8v-13.68H96v11.42zM111.83 384.92h-5.41v3.66h6.35v2.26h-9.17v-13.68h9.15v2.28h-6.33v3.26h5.41v2.22zM122.15 388.03h-4.94l-.94 2.82h-3l5.09-13.68h2.61l5.12 13.68h-3l-.94-2.82zm-4.18-2.28h3.42l-1.72-5.12-1.7 5.12zM132.43 385.85h-2.25v5.01h-2.82v-13.68h5.08c1.62 0 2.86.36 3.74 1.08.88.72 1.31 1.74 1.31 3.05 0 .93-.2 1.71-.61 2.33-.4.62-1.02 1.12-1.84 1.49l2.96 5.59v.13h-3l-2.57-5zm-2.24-2.29h2.27c.71 0 1.26-.18 1.64-.54.39-.36.58-.86.58-1.49 0-.65-.18-1.15-.55-1.52-.37-.37-.93-.55-1.69-.55h-2.26v4.1zM150.77 390.85h-2.82l-5.49-9v9h-2.82v-13.68h2.82l5.5 9.02v-9.02h2.81v13.68zM161.7 377.18l3.51 9.92 3.49-9.92h3.7v13.68h-2.83v-3.74l.28-6.45-3.69 10.19h-1.94l-3.68-10.18.28 6.44v3.74H158v-13.68h3.7zM186.11 384.32c0 1.35-.24 2.53-.71 3.54-.48 1.01-1.16 1.8-2.04 2.35-.89.55-1.9.83-3.05.83-1.13 0-2.14-.27-3.03-.82-.89-.54-1.58-1.32-2.07-2.33-.49-1.01-.74-2.17-.74-3.49v-.68c0-1.35.24-2.53.73-3.56.49-1.02 1.17-1.81 2.06-2.36.89-.55 1.9-.82 3.04-.82s2.15.27 3.04.82c.89.55 1.57 1.33 2.06 2.36.49 1.02.73 2.21.73 3.55v.61zm-2.86-.62c0-1.43-.26-2.52-.77-3.27s-1.25-1.12-2.2-1.12c-.95 0-1.67.37-2.19 1.1-.51.74-.77 1.81-.78 3.24v.67c0 1.4.26 2.48.77 3.25s1.25 1.16 2.22 1.16c.95 0 1.67-.37 2.18-1.11.51-.74.76-1.82.77-3.25v-.67zM193.22 385.85h-2.25v5.01h-2.82v-13.68h5.08c1.62 0 2.86.36 3.74 1.08.88.72 1.31 1.74 1.31 3.05 0 .93-.2 1.71-.61 2.33-.4.62-1.02 1.12-1.84 1.49l2.96 5.59v.13h-3.03l-2.54-5zm-2.25-2.29h2.27c.71 0 1.26-.18 1.64-.54.39-.36.58-.86.58-1.49 0-.65-.18-1.15-.55-1.52-.37-.37-.93-.55-1.69-.55h-2.26v4.1zM208.66 384.92h-5.41v3.66h6.35v2.26h-9.17v-13.68h9.15v2.28h-6.33v3.26h5.41v2.22z"/></svg>