<svg id="Layer_1" xmlns="http://www.w3.org/2000/svg" viewBox="0 0 970 250"><style>.st0{fill:#021d8b}</style><path class="st0" d="M505.49 45.57l-1.83 2.01v4.88h-4.46V33.97h4.46v8.15l1.55-2.35 3.99-5.8h5.51l-6.25 8.18 6.25 10.31h-5.28l-3.94-6.89zM522.29 52.71c-2.11 0-3.81-.63-5.12-1.88-1.3-1.26-1.96-2.89-1.96-4.91v-.36c0-1.41.26-2.64.78-3.72s1.28-1.91 2.28-2.49c1-.59 2.18-.88 3.55-.88 1.93 0 3.45.6 4.57 1.8 1.12 1.2 1.68 2.87 1.68 5.01v1.66h-8.51c.15.77.49 1.38 1 1.82s1.18.66 2.01.66c1.35 0 2.41-.47 3.17-1.42l1.96 2.31c-.53.74-1.29 1.32-2.27 1.76-.96.42-2.01.64-3.14.64zm-.48-10.95c-1.25 0-2 .83-2.23 2.49h4.32v-.33c.02-.69-.16-1.22-.52-1.59-.38-.38-.9-.57-1.57-.57zM536.45 52.71c-2.11 0-3.81-.63-5.12-1.88-1.3-1.26-1.96-2.89-1.96-4.91v-.36c0-1.41.26-2.64.78-3.72s1.28-1.91 2.28-2.49c1-.59 2.18-.88 3.55-.88 1.93 0 3.45.6 4.57 1.8 1.12 1.2 1.68 2.87 1.68 5.01v1.66h-8.51c.15.77.49 1.38 1 1.82s1.18.66 2.01.66c1.35 0 2.41-.47 3.17-1.42l1.96 2.31c-.53.74-1.29 1.32-2.27 1.76-.97.42-2.02.64-3.14.64zm-.49-10.95c-1.25 0-2 .83-2.23 2.49h4.32v-.33c.02-.69-.16-1.22-.52-1.59-.37-.38-.89-.57-1.57-.57zM556.71 45.69c0 2.13-.48 3.84-1.44 5.11-.96 1.27-2.26 1.91-3.89 1.91-1.26 0-2.3-.46-3.11-1.38v6.41h-4.28V38.72h4l.13 1.27c.82-1.02 1.9-1.52 3.24-1.52 1.69 0 3.01.62 3.95 1.87.94 1.25 1.41 2.96 1.41 5.15v.2zm-4.28-.27c0-2.44-.71-3.66-2.13-3.66-1.02 0-1.69.36-2.03 1.09v5.41c.37.76 1.06 1.14 2.06 1.14 1.36 0 2.07-1.18 2.11-3.53v-.45zM572.8 52.45c-.15-.28-.29-.69-.41-1.23-.79.99-1.89 1.49-3.3 1.49-1.29 0-2.4-.39-3.3-1.17-.91-.78-1.36-1.77-1.36-2.95 0-1.49.55-2.62 1.65-3.38s2.7-1.14 4.8-1.14h1.32v-.73c0-1.27-.55-1.9-1.64-1.9-1.02 0-1.52.5-1.52 1.51h-4.28c0-1.33.57-2.41 1.69-3.23 1.13-.83 2.57-1.24 4.32-1.24s3.14.43 4.15 1.28 1.54 2.03 1.56 3.52v6.08c.02 1.26.21 2.23.58 2.89v.22h-4.26zm-2.67-2.79c.53 0 .98-.11 1.33-.34.35-.23.6-.49.75-.77v-2.2h-1.24c-1.49 0-2.23.67-2.23 2.01 0 .39.13.7.39.95.26.23.59.35 1 .35zM582.8 38.72l.14 1.61c.95-1.24 2.26-1.87 3.92-1.87 1.43 0 2.5.43 3.21 1.28.71.85 1.07 2.14 1.1 3.86v8.85h-4.29v-8.67c0-.69-.14-1.2-.42-1.53-.28-.33-.79-.49-1.52-.49-.84 0-1.46.33-1.87.99v9.7h-4.28V38.72h4.01zM606.65 52.71c-2.11 0-3.81-.63-5.12-1.88-1.3-1.26-1.96-2.89-1.96-4.91v-.36c0-1.41.26-2.64.78-3.72s1.28-1.91 2.28-2.49c1-.59 2.18-.88 3.55-.88 1.93 0 3.45.6 4.57 1.8 1.12 1.2 1.68 2.87 1.68 5.01v1.66h-8.51c.15.77.49 1.38 1 1.82s1.18.66 2.01.66c1.35 0 2.41-.47 3.17-1.42l1.96 2.31c-.53.74-1.29 1.32-2.27 1.76-.96.42-2.01.64-3.14.64zm-.48-10.95c-1.25 0-2 .83-2.23 2.49h4.32v-.33c.02-.69-.16-1.22-.52-1.59-.37-.38-.9-.57-1.57-.57zM619.65 46.46l2.29-7.74h4.58l-5.6 16.03-.24.58c-.8 1.78-2.2 2.67-4.21 2.67-.56 0-1.15-.08-1.76-.25V54.7h.56c.6 0 1.06-.09 1.38-.26.32-.17.55-.48.7-.93l.34-.92-4.77-13.87h4.57l2.16 7.74zM634.28 52.71c-2.11 0-3.81-.63-5.12-1.88-1.3-1.26-1.96-2.89-1.96-4.91v-.36c0-1.41.26-2.64.78-3.72s1.28-1.91 2.28-2.49c1-.59 2.18-.88 3.55-.88 1.93 0 3.45.6 4.57 1.8 1.12 1.2 1.68 2.87 1.68 5.01v1.66h-8.51c.15.77.49 1.38 1 1.82s1.18.66 2.01.66c1.35 0 2.41-.47 3.17-1.42l1.96 2.31c-.53.74-1.29 1.32-2.27 1.76-.97.42-2.02.64-3.14.64zm-.49-10.95c-1.25 0-2 .83-2.23 2.49h4.32v-.33c.02-.69-.16-1.22-.52-1.59-.37-.38-.89-.57-1.57-.57zM647.72 45.46c0-1.37.27-2.59.8-3.66.53-1.07 1.3-1.89 2.3-2.47s2.17-.86 3.52-.86c2.06 0 3.68.64 4.86 1.91 1.18 1.27 1.78 3.01 1.78 5.2v.15c0 2.14-.59 3.84-1.78 5.1-1.19 1.26-2.8 1.88-4.83 1.88-1.96 0-3.53-.59-4.71-1.76-1.18-1.17-1.82-2.76-1.92-4.77l-.02-.72zm4.28.26c0 1.27.2 2.2.6 2.79s.99.89 1.76.89c1.52 0 2.3-1.17 2.34-3.52v-.43c0-2.46-.79-3.69-2.36-3.69-1.43 0-2.21 1.06-2.32 3.19l-.02.77zM666.79 38.72l.14 1.61c.95-1.24 2.26-1.87 3.92-1.87 1.43 0 2.5.43 3.21 1.28.71.85 1.07 2.14 1.1 3.86v8.85h-4.29v-8.67c0-.69-.14-1.2-.42-1.53-.28-.33-.79-.49-1.52-.49-.84 0-1.46.33-1.87.99v9.7h-4.28V38.72h4.01zM689.49 46.46l2.29-7.74h4.58l-5.6 16.03-.24.58c-.8 1.78-2.2 2.67-4.21 2.67-.56 0-1.15-.08-1.76-.25V54.7h.56c.6 0 1.06-.09 1.38-.26.32-.17.55-.48.7-.93l.34-.92-4.77-13.87h4.57l2.16 7.74zM696.93 45.46c0-1.37.27-2.59.8-3.66.53-1.07 1.3-1.89 2.3-2.47s2.17-.86 3.52-.86c2.06 0 3.68.64 4.86 1.91 1.18 1.27 1.78 3.01 1.78 5.2v.15c0 2.14-.59 3.84-1.78 5.1-1.19 1.26-2.8 1.88-4.83 1.88-1.96 0-3.53-.59-4.71-1.76-1.18-1.17-1.82-2.76-1.92-4.77l-.02-.72zm4.28.26c0 1.27.2 2.2.6 2.79s.99.89 1.76.89c1.52 0 2.3-1.17 2.34-3.52v-.43c0-2.46-.79-3.69-2.36-3.69-1.43 0-2.21 1.06-2.32 3.19l-.02.77zM720.25 50.97c-.91 1.16-2.13 1.74-3.67 1.74-1.51 0-2.65-.44-3.42-1.31-.77-.88-1.16-2.13-1.16-3.78v-8.9h4.28v8.92c0 1.18.57 1.76 1.71 1.76.98 0 1.68-.35 2.09-1.05v-9.64h4.3v13.74h-4.01l-.12-1.48zM735.04 42.59l-1.41-.1c-1.35 0-2.21.42-2.59 1.27v8.7h-4.28V38.72h4.01l.14 1.76c.72-1.35 1.72-2.02 3.01-2.02.46 0 .85.05 1.19.15l-.07 3.98zM743.02 35.17c0-.61.22-1.11.66-1.5s1.01-.58 1.71-.58 1.27.19 1.71.58.66.89.66 1.5-.22 1.11-.66 1.5-1.01.58-1.71.58-1.27-.19-1.71-.58-.66-.89-.66-1.5zm4.55 17.28h-4.29V38.72h4.29v13.73zM749.66 45.48c0-2.17.47-3.89 1.41-5.14s2.25-1.88 3.94-1.88c1.23 0 2.26.48 3.1 1.45v-6.96h4.29v19.5h-3.85l-.22-1.47c-.88 1.15-2 1.73-3.35 1.73-1.63 0-2.93-.63-3.88-1.88s-1.44-3.04-1.44-5.35zm4.28.27c0 2.44.71 3.66 2.13 3.66.95 0 1.62-.4 2.03-1.19v-5.23c-.39-.81-1.06-1.22-2.01-1.22-1.32 0-2.04 1.07-2.15 3.2v.78zM771.47 52.71c-2.11 0-3.81-.63-5.12-1.88-1.3-1.26-1.96-2.89-1.96-4.91v-.36c0-1.41.26-2.64.78-3.72s1.28-1.91 2.28-2.49c1-.59 2.18-.88 3.55-.88 1.93 0 3.45.6 4.57 1.8 1.12 1.2 1.68 2.87 1.68 5.01v1.66h-8.51c.15.77.49 1.38 1 1.82s1.18.66 2.01.66c1.35 0 2.41-.47 3.17-1.42l1.96 2.31c-.53.74-1.29 1.32-2.27 1.76-.96.42-2.01.64-3.14.64zm-.48-10.95c-1.25 0-2 .83-2.23 2.49h4.32v-.33c.02-.69-.16-1.22-.52-1.59-.37-.38-.89-.57-1.57-.57zM782.91 38.72l.14 1.61c.95-1.24 2.26-1.87 3.92-1.87 1.43 0 2.5.43 3.21 1.28.71.85 1.07 2.14 1.1 3.86v8.85h-4.29v-8.67c0-.69-.14-1.2-.42-1.53-.28-.33-.79-.49-1.52-.49-.84 0-1.46.33-1.87.99v9.7h-4.28V38.72h4.01zM798.63 35.3v3.42h2.26v2.97h-2.26v6.28c0 .52.09.88.28 1.08s.55.3 1.1.3c.42 0 .78-.03 1.07-.08v3.06c-.77.25-1.57.37-2.41.37-1.47 0-2.56-.35-3.26-1.04s-1.05-1.75-1.05-3.16v-6.82h-1.75v-2.97h1.75V35.3h4.27zM802.54 35.17c0-.61.22-1.11.66-1.5s1.01-.58 1.71-.58 1.27.19 1.71.58.66.89.66 1.5-.22 1.11-.66 1.5-1.01.58-1.71.58-1.27-.19-1.71-.58-.66-.89-.66-1.5zm4.54 17.28h-4.29V38.72h4.29v13.73zM814.7 35.3v3.42h2.26v2.97h-2.26v6.28c0 .52.09.88.28 1.08s.55.3 1.1.3c.42 0 .78-.03 1.07-.08v3.06c-.77.25-1.57.37-2.41.37-1.47 0-2.56-.35-3.26-1.04s-1.05-1.75-1.05-3.16v-6.82h-1.75v-2.97h1.75V35.3h4.27zM824.13 46.46l2.29-7.74H831l-5.6 16.03-.24.58c-.8 1.78-2.2 2.67-4.21 2.67-.56 0-1.15-.08-1.76-.25V54.7h.56c.6 0 1.06-.09 1.38-.26.32-.17.55-.48.7-.93l.34-.92-4.77-13.87h4.57l2.16 7.74zM533.63 78.02l1.38-8.1h4.1l-3.24 13.74h-3.62l-2.27-8.15-2.29 8.15h-3.62l-3.24-13.74h4.1l1.36 8.29 2.18-8.29h2.98l2.18 8.1zM540.61 66.37c0-.61.22-1.11.66-1.5s1.01-.58 1.71-.58 1.27.19 1.71.58.66.89.66 1.5-.22 1.11-.66 1.5-1.01.58-1.71.58-1.27-.19-1.71-.58-.66-.89-.66-1.5zm4.54 17.28h-4.29V69.92h4.29v13.73zM552.77 66.5v3.42h2.26v2.97h-2.26v6.28c0 .52.09.88.28 1.08s.55.3 1.1.3c.42 0 .78-.03 1.07-.08v3.06c-.77.25-1.57.37-2.41.37-1.47 0-2.56-.35-3.26-1.04s-1.05-1.75-1.05-3.16v-6.82h-1.75v-2.97h1.75V66.5h4.27zM560.9 71.39c.91-1.15 2.08-1.73 3.5-1.73 1.51 0 2.66.45 3.43 1.35s1.16 2.22 1.18 3.97v8.67h-4.29v-8.57c0-.73-.15-1.26-.44-1.61-.3-.34-.8-.51-1.51-.51-.88 0-1.5.28-1.87.84v9.85h-4.28v-19.5h4.28v7.24zM582.52 77.38v6.27h-4.46V65.17h7.38c1.41 0 2.66.26 3.75.78 1.09.52 1.93 1.26 2.53 2.22.6.96.89 2.05.89 3.27 0 1.8-.65 3.24-1.94 4.32s-3.06 1.62-5.31 1.62h-2.84zm0-3.44h2.92c.86 0 1.52-.22 1.97-.65.45-.43.68-1.04.68-1.83 0-.86-.23-1.55-.7-2.07s-1.1-.78-1.9-.79h-2.97v5.34zM603.1 73.79l-1.41-.1c-1.35 0-2.21.42-2.59 1.27v8.7h-4.28V69.92h4.01l.14 1.76c.72-1.35 1.72-2.02 3.01-2.02.46 0 .85.05 1.19.15l-.07 3.98zM604.61 66.37c0-.61.22-1.11.66-1.5s1.01-.58 1.71-.58 1.27.19 1.71.58.66.89.66 1.5-.22 1.11-.66 1.5-1.01.58-1.71.58-1.27-.19-1.71-.58-.66-.89-.66-1.5zm4.54 17.28h-4.29V69.92h4.29v13.73zM617.26 78.56l2.17-8.65h4.51l-4.48 13.74h-4.37l-4.48-13.74h4.52l2.13 8.65zM632.76 83.65c-.15-.28-.29-.69-.41-1.23-.79.99-1.89 1.49-3.3 1.49-1.29 0-2.4-.39-3.3-1.17-.91-.78-1.36-1.77-1.36-2.95 0-1.49.55-2.62 1.65-3.38s2.7-1.14 4.8-1.14h1.32v-.73c0-1.27-.55-1.9-1.64-1.9-1.02 0-1.52.5-1.52 1.51h-4.28c0-1.33.57-2.41 1.69-3.23 1.13-.83 2.57-1.24 4.32-1.24s3.14.43 4.15 1.28 1.54 2.03 1.56 3.52v6.08c.02 1.26.21 2.23.58 2.89v.22h-4.26zm-2.67-2.79c.53 0 .98-.11 1.33-.34.35-.23.6-.49.75-.77v-2.2h-1.24c-1.49 0-2.23.67-2.23 2.01 0 .39.13.7.39.95.26.23.59.35 1 .35zM644.63 80.61c.6 0 1.07-.16 1.4-.49.33-.33.49-.78.48-1.37h4.01c0 1.51-.54 2.74-1.62 3.71-1.08.96-2.47 1.45-4.17 1.45-2 0-3.57-.63-4.72-1.88s-1.73-2.99-1.73-5.21v-.18c0-1.39.26-2.61.77-3.68.51-1.06 1.25-1.88 2.22-2.45.96-.57 2.11-.86 3.43-.86 1.79 0 3.2.5 4.25 1.49s1.57 2.33 1.57 4.02h-4.01c0-.71-.17-1.26-.52-1.64s-.81-.57-1.4-.57c-1.11 0-1.76.71-1.94 2.12-.06.45-.09 1.07-.09 1.85 0 1.38.17 2.34.5 2.87s.86.82 1.57.82zM657.83 77.66l2.29-7.74h4.58l-5.6 16.03-.24.58c-.8 1.78-2.2 2.67-4.21 2.67-.56 0-1.15-.08-1.76-.25V85.9h.56c.6 0 1.06-.09 1.38-.26.32-.17.55-.48.7-.93l.34-.92-4.77-13.87h4.57l2.16 7.74zM681.13 81.37c-.69.76-1.69 1.38-3.01 1.84s-2.77.7-4.34.7c-2.42 0-4.35-.74-5.8-2.22s-2.22-3.54-2.32-6.18l-.01-1.6c0-1.82.32-3.41.96-4.77.64-1.36 1.56-2.4 2.76-3.13 1.2-.73 2.58-1.1 4.16-1.1 2.3 0 4.09.53 5.36 1.58 1.27 1.05 2.02 2.62 2.23 4.72h-4.29c-.15-1.03-.48-1.77-.99-2.21s-1.23-.66-2.16-.66c-1.12 0-1.98.47-2.59 1.42s-.92 2.3-.93 4.06v1.12c0 1.84.32 3.23.95 4.16.63.93 1.62 1.39 2.98 1.39 1.16 0 2.02-.26 2.59-.77v-2.87h-3.1v-3.06h7.55v7.58zM691.71 82.17c-.91 1.16-2.13 1.74-3.67 1.74-1.51 0-2.65-.44-3.42-1.31-.77-.88-1.16-2.13-1.16-3.78v-8.9h4.28v8.92c0 1.18.57 1.76 1.71 1.76.98 0 1.68-.35 2.09-1.05v-9.64h4.3v13.74h-4.01l-.12-1.48zM705.93 83.65c-.15-.28-.29-.69-.41-1.23-.79.99-1.89 1.49-3.3 1.49-1.29 0-2.4-.39-3.3-1.17-.91-.78-1.36-1.77-1.36-2.95 0-1.49.55-2.62 1.65-3.38s2.7-1.14 4.8-1.14h1.32v-.73c0-1.27-.55-1.9-1.64-1.9-1.02 0-1.52.5-1.52 1.51h-4.28c0-1.33.57-2.41 1.69-3.23 1.13-.83 2.57-1.24 4.32-1.24s3.14.43 4.15 1.28 1.54 2.03 1.56 3.52v6.08c.02 1.26.21 2.23.58 2.89v.22h-4.26zm-2.68-2.79c.53 0 .98-.11 1.33-.34.35-.23.6-.49.75-.77v-2.2h-1.24c-1.49 0-2.23.67-2.23 2.01 0 .39.13.7.39.95.26.23.59.35 1 .35zM720.3 73.79l-1.41-.1c-1.35 0-2.21.42-2.59 1.27v8.7h-4.28V69.92h4.01l.14 1.76c.72-1.35 1.72-2.02 3.01-2.02.46 0 .85.05 1.19.15l-.07 3.98zM721.3 76.68c0-2.17.47-3.89 1.41-5.14s2.25-1.88 3.94-1.88c1.23 0 2.26.48 3.1 1.45v-6.96h4.29v19.5h-3.85l-.22-1.47c-.88 1.15-2 1.73-3.35 1.73-1.63 0-2.93-.63-3.88-1.88s-1.44-3.04-1.44-5.35zm4.28.27c0 2.44.71 3.66 2.13 3.66.95 0 1.62-.4 2.03-1.19v-5.23c-.39-.81-1.06-1.22-2.01-1.22-1.32 0-2.04 1.07-2.15 3.2v.78zM747.92 66.5v3.42h2.26v2.97h-2.26v6.28c0 .52.09.88.28 1.08s.55.3 1.1.3c.42 0 .78-.03 1.07-.08v3.06c-.77.25-1.57.37-2.41.37-1.47 0-2.56-.35-3.26-1.04s-1.05-1.75-1.05-3.16v-6.82h-1.75v-2.97h1.75V66.5h4.27zM750.95 76.66c0-1.37.27-2.59.8-3.66.53-1.07 1.3-1.89 2.3-2.47s2.17-.86 3.52-.86c2.06 0 3.68.64 4.86 1.91 1.18 1.27 1.78 3.01 1.78 5.2v.15c0 2.14-.59 3.84-1.78 5.1-1.19 1.26-2.8 1.88-4.83 1.88-1.96 0-3.53-.59-4.71-1.76-1.18-1.17-1.82-2.76-1.92-4.77l-.02-.72zm4.27.26c0 1.27.2 2.2.6 2.79s.99.89 1.76.89c1.52 0 2.3-1.17 2.34-3.52v-.43c0-2.46-.79-3.69-2.36-3.69-1.43 0-2.21 1.06-2.32 3.19l-.02.77zM765.54 76.68c0-2.17.47-3.89 1.41-5.14s2.25-1.88 3.94-1.88c1.23 0 2.26.48 3.1 1.45v-6.96h4.29v19.5h-3.85l-.22-1.47c-.88 1.15-2 1.73-3.35 1.73-1.63 0-2.93-.63-3.88-1.88s-1.44-3.04-1.44-5.35zm4.28.27c0 2.44.71 3.66 2.13 3.66.95 0 1.62-.4 2.03-1.19v-5.23c-.39-.81-1.06-1.22-2.01-1.22-1.32 0-2.04 1.07-2.15 3.2v.78zM788.45 83.65c-.15-.28-.29-.69-.41-1.23-.79.99-1.89 1.49-3.3 1.49-1.29 0-2.4-.39-3.3-1.17-.91-.78-1.36-1.77-1.36-2.95 0-1.49.55-2.62 1.65-3.38s2.7-1.14 4.8-1.14h1.32v-.73c0-1.27-.55-1.9-1.64-1.9-1.02 0-1.52.5-1.52 1.51h-4.28c0-1.33.57-2.41 1.69-3.23 1.13-.83 2.57-1.24 4.32-1.24s3.14.43 4.15 1.28 1.54 2.03 1.56 3.52v6.08c.02 1.26.21 2.23.58 2.89v.22h-4.26zm-2.68-2.79c.53 0 .98-.11 1.33-.34.35-.23.6-.49.75-.77v-2.2h-1.24c-1.49 0-2.23.67-2.23 2.01 0 .39.13.7.39.95.26.23.59.35 1 .35zM800 77.66l2.29-7.74h4.58l-5.6 16.03-.24.58c-.8 1.78-2.2 2.67-4.21 2.67-.56 0-1.15-.08-1.76-.25V85.9h.56c.6 0 1.06-.09 1.38-.26.32-.17.55-.48.7-.93l.34-.92-4.77-13.87h4.57l2.16 7.74zM810.63 79.5c.68 0 1.24.2 1.69.6.45.4.67.92.67 1.54s-.22 1.14-.67 1.54c-.45.4-1.01.6-1.69.6-.69 0-1.25-.2-1.69-.61-.45-.41-.67-.92-.67-1.54s.22-1.13.67-1.54c.44-.39 1-.59 1.69-.59z"/></svg>