<svg id="Layer_1" xmlns="http://www.w3.org/2000/svg" viewBox="0 0 160 600"><style>.st0{fill:#021d8b}</style><path class="st0" d="M23.31 267.64c-.43.62-1.04 1.08-1.81 1.39-.78.31-1.68.46-2.71.46-1.04 0-1.97-.24-2.78-.73-.81-.49-1.43-1.18-1.88-2.09s-.67-1.95-.68-3.14v-1.12c0-1.93.45-3.42 1.35-4.48s2.16-1.59 3.79-1.59c1.34 0 2.41.34 3.23 1.02s1.31 1.65 1.49 2.9h-1.69c-.32-1.7-1.32-2.55-3.02-2.55-1.13 0-1.99.4-2.57 1.19-.58.79-.88 1.95-.88 3.45v1.05c0 1.44.33 2.58.98 3.43.66.85 1.54 1.27 2.66 1.27.63 0 1.19-.07 1.66-.21.47-.14.87-.38 1.18-.71v-2.87h-2.96v-1.38h4.64v4.71zM29.81 269.49c-1.29 0-2.34-.42-3.15-1.27s-1.21-1.98-1.21-3.4v-.3c0-.94.18-1.79.54-2.53s.86-1.32 1.51-1.74 1.35-.63 2.1-.63c1.24 0 2.2.41 2.88 1.22s1.03 1.98 1.03 3.5v.68h-6.44c.02.94.3 1.7.82 2.27.52.58 1.19.87 2 .87.57 0 1.06-.12 1.46-.35s.75-.54 1.05-.93l.99.77c-.79 1.23-1.99 1.84-3.58 1.84zm-.2-8.52c-.66 0-1.21.24-1.65.72s-.72 1.15-.83 2.01h4.76v-.12c-.05-.83-.27-1.47-.67-1.92s-.93-.69-1.61-.69zM37.61 257.5v2.3h1.78v1.26h-1.78v5.91c0 .38.08.67.24.86s.43.29.81.29c.19 0 .45-.04.77-.11v1.31c-.43.12-.84.17-1.25.17-.73 0-1.27-.22-1.64-.66s-.55-1.06-.55-1.87v-5.9h-1.73v-1.26h1.73v-2.3h1.62zM47.68 264.31v5.01h-1.69v-12.8h4.72c1.4 0 2.5.36 3.29 1.07s1.19 1.66 1.19 2.84c0 1.24-.39 2.2-1.16 2.87s-1.89 1.01-3.34 1.01h-3.01zm0-1.38h3.03c.9 0 1.59-.21 2.07-.64.48-.42.72-1.04.72-1.84 0-.76-.24-1.37-.72-1.83-.48-.46-1.14-.7-1.98-.71h-3.13v5.02zM61.69 261.26c-.25-.04-.51-.06-.8-.06-1.07 0-1.79.45-2.17 1.36v6.75h-1.63v-9.51h1.58l.03 1.1c.53-.85 1.29-1.27 2.27-1.27.32 0 .56.04.72.12v1.51zM63.19 257.28c0-.26.08-.49.24-.67s.4-.27.72-.27.56.09.72.27.25.4.25.67-.08.48-.25.66-.4.26-.72.26-.56-.09-.72-.26-.24-.39-.24-.66zm1.76 12.04h-1.63v-9.51h1.63v9.51zM70.69 267.11l2.36-7.3h1.66l-3.41 9.51h-1.24l-3.45-9.51h1.66l2.42 7.3zM82.01 269.32c-.09-.19-.17-.52-.23-1-.76.79-1.66 1.18-2.71 1.18-.94 0-1.71-.26-2.31-.79s-.9-1.2-.9-2.02c0-.99.38-1.76 1.13-2.31s1.81-.82 3.18-.82h1.58v-.75c0-.57-.17-1.02-.51-1.36-.34-.34-.84-.5-1.5-.5-.58 0-1.07.15-1.46.44s-.59.65-.59 1.06h-1.63c0-.47.17-.93.51-1.38s.79-.79 1.37-1.05 1.21-.39 1.9-.39c1.1 0 1.95.27 2.58.82s.94 1.3.97 2.26v4.38c0 .87.11 1.57.33 2.08v.14h-1.71zm-2.7-1.24c.51 0 .99-.13 1.45-.4.46-.26.79-.61.99-1.03v-1.95h-1.27c-1.99 0-2.99.58-2.99 1.75 0 .51.17.91.51 1.2s.78.43 1.31.43zM89.74 268.16c.58 0 1.09-.18 1.52-.53s.67-.79.72-1.32h1.54c-.03.54-.22 1.06-.56 1.56s-.81.88-1.38 1.18-1.19.44-1.83.44c-1.29 0-2.33-.43-3.09-1.3-.76-.86-1.15-2.05-1.15-3.55v-.27c0-.93.17-1.75.51-2.47s.83-1.28 1.46-1.68 1.39-.6 2.25-.6c1.07 0 1.95.32 2.66.96s1.08 1.47 1.13 2.49h-1.54c-.05-.62-.28-1.12-.7-1.52-.42-.4-.94-.59-1.55-.59-.83 0-1.47.3-1.92.89s-.68 1.45-.68 2.58v.31c0 1.1.23 1.94.68 2.53s1.1.89 1.93.89zM98.46 266.93l2.21-7.13h1.74l-3.82 10.98c-.59 1.58-1.53 2.37-2.82 2.37l-.31-.03-.61-.11v-1.32l.44.04c.55 0 .98-.11 1.29-.33s.56-.63.76-1.22l.36-.97-3.39-9.4h1.78l2.37 7.12zM113.57 267.64c-.43.62-1.04 1.08-1.81 1.39-.78.31-1.68.46-2.71.46-1.04 0-1.97-.24-2.78-.73-.81-.49-1.43-1.18-1.88-2.09s-.67-1.95-.68-3.14v-1.12c0-1.93.45-3.42 1.35-4.48s2.16-1.59 3.79-1.59c1.34 0 2.41.34 3.22 1.02s1.31 1.65 1.49 2.9h-1.69c-.32-1.7-1.32-2.55-3.02-2.55-1.13 0-1.99.4-2.57 1.19-.58.79-.88 1.95-.88 3.45v1.05c0 1.44.33 2.58.98 3.43.66.85 1.54 1.27 2.66 1.27.63 0 1.19-.07 1.66-.21.47-.14.87-.38 1.18-.71v-2.87h-2.96v-1.38h4.64v4.71zM122 268.38c-.63.74-1.56 1.12-2.79 1.12-1.01 0-1.79-.29-2.32-.88-.53-.59-.8-1.46-.8-2.62v-6.19h1.63v6.14c0 1.44.59 2.16 1.76 2.16 1.24 0 2.07-.46 2.48-1.39v-6.92h1.63v9.51h-1.55l-.04-.93zM131.92 269.32c-.09-.19-.17-.52-.23-1-.76.79-1.66 1.18-2.71 1.18-.94 0-1.71-.26-2.31-.79-.6-.53-.9-1.2-.9-2.02 0-.99.38-1.76 1.13-2.31.75-.55 1.81-.82 3.18-.82h1.58v-.75c0-.57-.17-1.02-.51-1.36-.34-.34-.84-.5-1.5-.5-.58 0-1.07.15-1.46.44s-.59.65-.59 1.06h-1.63c0-.47.17-.93.5-1.38s.79-.79 1.37-1.05 1.21-.39 1.9-.39c1.1 0 1.95.27 2.58.82s.94 1.3.97 2.26v4.38c0 .87.11 1.57.33 2.08v.14h-1.7zm-2.7-1.24c.51 0 .99-.13 1.45-.4s.79-.61.99-1.03v-1.95h-1.27c-1.99 0-2.99.58-2.99 1.75 0 .51.17.91.51 1.2s.78.43 1.31.43zM140.44 261.26c-.25-.04-.51-.06-.8-.06-1.07 0-1.79.45-2.17 1.36v6.75h-1.63v-9.51h1.58l.03 1.1c.53-.85 1.29-1.27 2.27-1.27.32 0 .56.04.72.12v1.51zM141.54 264.48c0-1.46.35-2.63 1.04-3.52.69-.89 1.6-1.33 2.72-1.33 1.11 0 2 .38 2.65 1.14v-4.96h1.63v13.5h-1.49l-.08-1.02c-.65.8-1.56 1.2-2.72 1.2-1.1 0-2-.45-2.69-1.35-.7-.9-1.04-2.08-1.04-3.53v-.13zm1.62.19c0 1.08.22 1.92.67 2.53s1.06.91 1.85.91c1.03 0 1.78-.46 2.26-1.39v-4.37c-.49-.9-1.23-1.34-2.24-1.34-.8 0-1.42.31-1.86.92s-.68 1.53-.68 2.74zM74.42 288.67l1.83-7.27h1.63l-2.77 9.51h-1.32l-2.31-7.21-2.25 7.21h-1.32l-2.76-9.51h1.62l1.87 7.12 2.21-7.12h1.31l2.26 7.27zM79.54 278.88c0-.26.08-.49.24-.67s.4-.27.72-.27.56.09.72.27.25.4.25.67-.08.48-.25.66-.4.26-.72.26-.56-.09-.72-.26-.24-.39-.24-.66zm1.75 12.04h-1.63v-9.51h1.63v9.51zM86.1 279.1v2.3h1.78v1.26H86.1v5.91c0 .38.08.67.24.86s.43.29.81.29c.19 0 .45-.04.77-.11v1.31c-.43.12-.84.17-1.25.17-.73 0-1.27-.22-1.64-.66s-.55-1.06-.55-1.87v-5.9h-1.73v-1.26h1.73v-2.3h1.62zM91.4 282.56c.72-.88 1.66-1.33 2.81-1.33 2.01 0 3.02 1.13 3.04 3.4v6.28h-1.63v-6.29c-.01-.69-.16-1.19-.47-1.52-.31-.33-.79-.49-1.44-.49-.53 0-.99.14-1.39.42s-.71.65-.93 1.11v6.78h-1.63v-13.5h1.63v5.14zM28.8 303.01l.08 1.06c.67-.83 1.58-1.24 2.73-1.24 1.22 0 2.07.48 2.52 1.45.67-.97 1.62-1.45 2.86-1.45 1.03 0 1.8.3 2.3.9.5.6.76 1.5.76 2.71v6.07H37.5v-6.06c0-.54-.11-.93-.32-1.18s-.58-.37-1.12-.37c-.76 0-1.29.36-1.58 1.09l.01 6.53h-2.54v-6.06c0-.55-.11-.95-.33-1.2s-.59-.37-1.11-.37c-.72 0-1.24.3-1.56.9v6.72h-2.54V303h2.39zM41.61 307.67c0-.94.18-1.78.54-2.52s.89-1.31 1.57-1.71 1.48-.61 2.38-.61c1.28 0 2.33.39 3.14 1.18s1.26 1.85 1.36 3.2l.02.65c0 1.46-.41 2.63-1.22 3.51s-1.91 1.32-3.28 1.32-2.47-.44-3.28-1.32-1.23-2.07-1.23-3.59v-.11zm2.54.18c0 .9.17 1.59.51 2.07.34.48.83.72 1.46.72.62 0 1.1-.24 1.44-.71.35-.47.52-1.23.52-2.27 0-.89-.17-1.57-.52-2.06s-.83-.73-1.46-.73c-.62 0-1.1.24-1.44.73-.34.49-.51 1.24-.51 2.25zM54.52 303.01l.08 1.1c.68-.85 1.59-1.27 2.73-1.27 1.01 0 1.76.3 2.25.89s.74 1.48.76 2.65v6.14H57.8v-6.08c0-.54-.12-.93-.35-1.17-.23-.24-.62-.36-1.17-.36-.71 0-1.25.3-1.61.91v6.71h-2.54v-9.51h2.39zM65.3 300.67v2.34h1.63v1.86H65.3v4.75c0 .35.07.6.2.76s.39.23.77.23c.28 0 .53-.02.75-.06v1.92c-.5.15-1.01.23-1.54.23-1.78 0-2.69-.9-2.72-2.7v-5.12h-1.39v-1.86h1.39v-2.34h2.54zM70.82 304.04c.67-.81 1.52-1.21 2.54-1.21 2.06 0 3.11 1.2 3.14 3.59v6.09h-2.54v-6.02c0-.54-.12-.95-.35-1.21s-.62-.39-1.17-.39c-.74 0-1.28.29-1.62.86v6.76h-2.54v-13.5h2.54v5.03zM81.1 312.52h-2.55v-13.5h2.55v13.5zM86.74 308.92L88.5 303h2.72l-3.82 10.99-.21.5c-.57 1.24-1.51 1.86-2.81 1.86-.37 0-.74-.06-1.12-.17v-1.92l.39.01c.48 0 .84-.07 1.08-.22s.42-.39.56-.73l.3-.78-3.33-9.54h2.73l1.75 5.92zM99.75 300.67v2.34h1.62v1.86h-1.62v4.75c0 .35.07.6.2.76s.39.23.77.23c.28 0 .53-.02.75-.06v1.92c-.5.15-1.01.23-1.54.23-1.78 0-2.69-.9-2.72-2.7v-5.12h-1.39v-1.86h1.39v-2.34h2.54zM108.13 305.39c-.35-.05-.65-.07-.91-.07-.96 0-1.59.33-1.89.98v6.22h-2.54v-9.51h2.4l.07 1.13c.51-.87 1.22-1.31 2.12-1.31.28 0 .54.04.79.11l-.04 2.45zM109.33 300.54c0-.38.13-.69.38-.94.26-.25.6-.37 1.04-.37.43 0 .78.12 1.04.37s.39.56.39.94c0 .39-.13.7-.39.95s-.61.37-1.03.37-.77-.12-1.03-.37c-.27-.24-.4-.56-.4-.95zm2.7 11.98h-2.55v-9.51h2.55v9.51zM122.68 307.85c0 1.46-.33 2.64-1 3.52-.67.88-1.56 1.32-2.69 1.32-.96 0-1.74-.33-2.33-1v4.48h-2.54V303h2.36l.09.93c.62-.74 1.42-1.11 2.41-1.11 1.17 0 2.08.43 2.73 1.3s.98 2.06.98 3.59v.14zm-2.54-.19c0-.88-.16-1.57-.47-2.05s-.77-.72-1.37-.72c-.8 0-1.34.3-1.64.91v3.89c.31.63.86.94 1.66.94 1.22.01 1.82-.98 1.82-2.97zM126.94 312.52h-2.55v-13.5h2.55v13.5zM133.41 312.69c-1.39 0-2.53-.43-3.41-1.28-.88-.86-1.31-2-1.31-3.42v-.25c0-.96.18-1.81.55-2.56s.89-1.33 1.57-1.74c.68-.41 1.45-.61 2.32-.61 1.3 0 2.33.41 3.07 1.23.75.82 1.12 1.98 1.12 3.49v1.04h-6.06c.08.62.33 1.12.74 1.49.41.38.94.56 1.57.56.98 0 1.74-.35 2.29-1.06l1.25 1.4c-.38.54-.9.96-1.55 1.26-.64.3-1.36.45-2.15.45zm-.29-7.81c-.5 0-.91.17-1.23.51-.31.34-.51.83-.6 1.47h3.53v-.2c-.01-.57-.16-1-.46-1.31-.29-.32-.7-.47-1.24-.47zM37.47 329.45c0 1.52-.33 2.71-.98 3.56-.65.85-1.56 1.28-2.72 1.28-1.03 0-1.85-.4-2.47-1.19l-.11 1.01H28.9v-13.5h2.54v4.84c.59-.69 1.36-1.03 2.31-1.03 1.16 0 2.07.43 2.73 1.28.66.85.99 2.05.99 3.6v.15zm-2.54-.19c0-.96-.15-1.66-.46-2.11-.3-.44-.76-.66-1.36-.66-.81 0-1.37.33-1.67.99v3.75c.31.67.87 1 1.69 1s1.36-.4 1.62-1.21c.11-.38.18-.97.18-1.76zM44.73 333.15c-.63.76-1.49 1.14-2.6 1.14-1.02 0-1.8-.29-2.33-.88s-.81-1.44-.82-2.58v-6.23h2.54v6.15c0 .99.45 1.49 1.35 1.49.86 0 1.45-.3 1.78-.9v-6.74h2.55v9.51h-2.4l-.07-.96zM54.45 326.99c-.35-.05-.65-.07-.91-.07-.96 0-1.59.33-1.89.98v6.22H49.1v-9.51h2.4l.07 1.13c.51-.87 1.22-1.31 2.12-1.31.28 0 .54.04.79.11l-.03 2.45zM60.05 334.29c-1.39 0-2.53-.43-3.41-1.28s-1.31-2-1.31-3.42v-.25c0-.96.18-1.81.55-2.56s.89-1.33 1.57-1.74 1.45-.61 2.32-.61c1.3 0 2.32.41 3.07 1.23s1.12 1.98 1.12 3.49v1.04H57.9c.08.62.33 1.12.74 1.49s.94.56 1.57.56c.98 0 1.74-.35 2.29-1.06l1.25 1.4c-.38.54-.9.96-1.55 1.26-.64.3-1.36.45-2.15.45zm-.29-7.81c-.5 0-.91.17-1.23.51-.31.34-.51.83-.6 1.47h3.53v-.2c-.01-.57-.16-1-.46-1.31-.29-.32-.71-.47-1.24-.47zM70.91 334.12c-.12-.23-.2-.51-.25-.85-.62.69-1.42 1.03-2.4 1.03-.93 0-1.7-.27-2.32-.81s-.92-1.22-.92-2.04c0-1.01.37-1.78 1.12-2.32s1.83-.81 3.24-.82h1.17v-.54c0-.44-.11-.79-.34-1.05s-.58-.4-1.07-.4c-.43 0-.76.1-1.01.31s-.36.49-.36.84h-2.54c0-.55.17-1.06.51-1.53s.82-.84 1.44-1.1 1.32-.4 2.09-.4c1.17 0 2.1.29 2.79.88.69.59 1.03 1.42 1.03 2.48v4.12c.01.9.13 1.58.38 2.05v.15h-2.56zm-2.1-1.77c.38 0 .72-.08 1.04-.25.32-.17.55-.39.7-.67v-1.63h-.95c-1.27 0-1.95.44-2.03 1.32l-.01.15c0 .32.11.58.33.78s.53.3.92.3zM80.74 333.15c-.63.76-1.49 1.14-2.6 1.14-1.02 0-1.8-.29-2.33-.88s-.81-1.44-.82-2.58v-6.23h2.54v6.15c0 .99.45 1.49 1.35 1.49.86 0 1.45-.3 1.78-.9v-6.74h2.55v9.51h-2.39l-.08-.96zM93.56 332.24c.47 0 .85-.13 1.14-.39s.45-.6.46-1.03h2.38c-.01.64-.18 1.23-.53 1.77-.35.54-.82.95-1.42 1.25-.6.29-1.26.44-1.99.44-1.36 0-2.43-.43-3.22-1.3-.79-.86-1.18-2.06-1.18-3.58v-.17c0-1.46.39-2.63 1.17-3.51s1.85-1.31 3.21-1.31c1.19 0 2.14.34 2.86 1.02.72.68 1.08 1.58 1.09 2.7h-2.38c-.01-.5-.16-.9-.46-1.21s-.68-.46-1.16-.46c-.59 0-1.04.22-1.34.65-.3.43-.45 1.13-.45 2.1v.26c0 .98.15 1.68.45 2.11s.76.66 1.37.66zM104.33 326.99c-.35-.05-.65-.07-.91-.07-.96 0-1.59.33-1.89.98v6.22h-2.54v-9.51h2.4l.07 1.13c.51-.87 1.22-1.31 2.12-1.31.28 0 .54.04.79.11l-.04 2.45zM109.93 334.29c-1.39 0-2.53-.43-3.41-1.28s-1.31-2-1.31-3.42v-.25c0-.96.18-1.81.55-2.56s.89-1.33 1.57-1.74 1.45-.61 2.32-.61c1.3 0 2.33.41 3.07 1.23.75.82 1.12 1.98 1.12 3.49v1.04h-6.06c.08.62.33 1.12.74 1.49s.94.56 1.57.56c.98 0 1.74-.35 2.29-1.06l1.25 1.4c-.38.54-.9.96-1.55 1.26-.64.3-1.36.45-2.15.45zm-.29-7.81c-.5 0-.91.17-1.23.51-.31.34-.51.83-.6 1.47h3.53v-.2c-.01-.57-.16-1-.46-1.31-.28-.32-.7-.47-1.24-.47zM114.89 329.29c0-1.48.33-2.66 1-3.54.66-.88 1.57-1.32 2.73-1.32.93 0 1.69.35 2.29 1.04v-4.85h2.55v13.5h-2.29l-.12-1.01c-.63.79-1.45 1.19-2.44 1.19-1.12 0-2.02-.44-2.69-1.32-.69-.89-1.03-2.12-1.03-3.69zm2.54.19c0 .89.16 1.58.47 2.05s.76.71 1.35.71c.79 0 1.34-.33 1.66-1v-3.76c-.32-.66-.86-1-1.64-1-1.23.02-1.84 1.01-1.84 3zM125.41 322.14c0-.38.13-.69.38-.94.26-.25.6-.37 1.04-.37.43 0 .78.12 1.04.37s.39.56.39.94c0 .39-.13.7-.39.95s-.6.37-1.03.37-.77-.12-1.03-.37c-.27-.24-.4-.56-.4-.95zm2.7 11.98h-2.55v-9.51h2.55v9.51zM133.24 322.27v2.34h1.63v1.86h-1.63v4.75c0 .35.07.6.2.76s.39.23.77.23c.28 0 .53-.02.75-.06v1.92c-.5.15-1.01.23-1.54.23-1.78 0-2.69-.9-2.72-2.7v-5.12h-1.39v-1.86h1.39v-2.34h2.54zM20.69 353.09c0-.31-.15-.55-.46-.73s-.8-.34-1.48-.48c-2.26-.47-3.39-1.44-3.39-2.88 0-.84.35-1.55 1.05-2.11.7-.56 1.62-.85 2.75-.85 1.21 0 2.17.28 2.9.85s1.09 1.31 1.09 2.21H20.6c0-.36-.12-.66-.35-.9-.23-.24-.6-.36-1.1-.36-.43 0-.76.1-.99.29s-.35.44-.35.74c0 .28.13.51.4.68.27.17.72.32 1.35.45s1.17.27 1.6.43c1.34.49 2.01 1.34 2.01 2.56 0 .87-.37 1.57-1.12 2.1-.74.54-1.71.8-2.88.8-.8 0-1.5-.14-2.12-.43-.62-.28-1.1-.67-1.45-1.17-.35-.49-.53-1.03-.53-1.6h2.41c.02.45.19.8.5 1.04s.73.36 1.25.36c.49 0 .85-.09 1.1-.28.24-.18.36-.42.36-.72zM28.75 353.84c.47 0 .85-.13 1.14-.39s.45-.6.46-1.03h2.38c-.01.64-.18 1.23-.53 1.77-.35.54-.82.95-1.42 1.25-.6.29-1.26.44-1.99.44-1.36 0-2.43-.43-3.22-1.3-.79-.86-1.18-2.06-1.18-3.58v-.17c0-1.46.39-2.63 1.17-3.51s1.85-1.31 3.21-1.31c1.19 0 2.14.34 2.86 1.02.72.68 1.08 1.58 1.09 2.7h-2.38c-.01-.5-.16-.9-.46-1.21s-.68-.46-1.16-.46c-.59 0-1.04.22-1.34.65-.3.43-.45 1.13-.45 2.1v.26c0 .98.15 1.68.45 2.11s.76.66 1.37.66zM33.79 350.87c0-.94.18-1.78.54-2.52s.89-1.31 1.57-1.71 1.48-.61 2.38-.61c1.28 0 2.33.39 3.14 1.18s1.26 1.85 1.36 3.2l.02.65c0 1.46-.41 2.63-1.22 3.51s-1.91 1.32-3.28 1.32-2.47-.44-3.28-1.32-1.23-2.07-1.23-3.59v-.11zm2.54.18c0 .9.17 1.59.51 2.07.34.48.83.72 1.46.72.62 0 1.1-.24 1.44-.71.35-.47.52-1.23.52-2.27 0-.89-.17-1.57-.52-2.06s-.83-.73-1.46-.73c-.62 0-1.1.24-1.44.73-.34.49-.51 1.24-.51 2.25zM49.71 348.59c-.35-.05-.65-.07-.91-.07-.96 0-1.59.33-1.89.98v6.22h-2.54v-9.51h2.4l.07 1.13c.51-.87 1.22-1.31 2.12-1.31.28 0 .54.04.79.11l-.04 2.45zM55.3 355.89c-1.39 0-2.53-.43-3.41-1.28s-1.31-2-1.31-3.42v-.25c0-.96.18-1.81.55-2.56s.89-1.33 1.57-1.74 1.45-.61 2.32-.61c1.3 0 2.32.41 3.07 1.23s1.12 1.98 1.12 3.49v1.04h-6.06c.08.62.33 1.12.74 1.49s.94.56 1.57.56c.98 0 1.74-.35 2.29-1.06l1.25 1.4c-.38.54-.9.96-1.55 1.26-.63.3-1.36.45-2.15.45zm-.29-7.81c-.5 0-.91.17-1.23.51-.31.34-.51.83-.6 1.47h3.53v-.2c-.01-.57-.16-1-.46-1.31-.28-.32-.7-.47-1.24-.47zM65.81 353.09c0-.31-.15-.55-.46-.73s-.8-.34-1.48-.48c-2.26-.47-3.39-1.44-3.39-2.88 0-.84.35-1.55 1.05-2.11.7-.56 1.62-.85 2.75-.85 1.21 0 2.17.28 2.9.85s1.09 1.31 1.09 2.21h-2.54c0-.36-.12-.66-.35-.9-.23-.24-.6-.36-1.1-.36-.43 0-.76.1-.99.29s-.35.44-.35.74c0 .28.13.51.4.68.27.17.72.32 1.35.45s1.17.27 1.6.43c1.34.49 2.01 1.34 2.01 2.56 0 .87-.37 1.57-1.12 2.1-.74.54-1.71.8-2.88.8-.8 0-1.5-.14-2.12-.43-.62-.28-1.1-.67-1.45-1.17-.35-.49-.53-1.03-.53-1.6h2.41c.02.45.19.8.5 1.04s.73.36 1.25.36c.49 0 .85-.09 1.1-.28a.9.9 0 0 0 .35-.72zM74.04 352.27c0-.59.17-1.14.5-1.64s.94-1.06 1.82-1.68a9.24 9.24 0 0 1-.9-1.44c-.22-.45-.33-.92-.33-1.4 0-1 .31-1.81.94-2.43.63-.62 1.48-.94 2.54-.94.96 0 1.74.28 2.35.85.61.57.92 1.28.92 2.13 0 1.02-.52 1.92-1.55 2.7l-.98.71 2.21 2.57c.35-.68.52-1.43.52-2.25h2.16c0 1.66-.38 3.01-1.15 4.04l1.92 2.22h-2.88l-.66-.76c-.94.62-2.03.93-3.25.93-1.27 0-2.28-.33-3.04-1-.76-.65-1.14-1.53-1.14-2.61zm4.31 1.57a3.2 3.2 0 0 0 1.73-.51l-2.52-2.91-.18.13c-.52.44-.78.97-.78 1.57 0 .51.16.92.49 1.24s.74.48 1.26.48zm-.93-7.77c0 .44.26.99.77 1.66l.68-.45c.35-.22.58-.44.72-.65s.2-.46.2-.76-.11-.55-.33-.76-.5-.33-.83-.33c-.36 0-.65.12-.87.35s-.34.56-.34.94zM96.03 348.59c-.35-.05-.65-.07-.91-.07-.96 0-1.59.33-1.89.98v6.22h-2.54v-9.51h2.4l.07 1.13c.51-.87 1.22-1.31 2.12-1.31.28 0 .54.04.79.11l-.04 2.45zM101.63 355.89c-1.39 0-2.53-.43-3.41-1.28-.88-.86-1.31-2-1.31-3.42v-.25c0-.96.18-1.81.55-2.56s.89-1.33 1.57-1.74c.68-.41 1.45-.61 2.32-.61 1.3 0 2.32.41 3.07 1.23.75.82 1.12 1.98 1.12 3.49v1.04h-6.06c.08.62.33 1.12.74 1.49.41.38.94.56 1.57.56.98 0 1.74-.35 2.29-1.06l1.25 1.4c-.38.54-.9.96-1.55 1.26-.64.3-1.36.45-2.15.45zm-.29-7.81c-.5 0-.91.17-1.23.51-.31.34-.51.83-.6 1.47h3.53v-.2c-.01-.57-.16-1-.46-1.31-.28-.32-.7-.47-1.24-.47zM115.54 351.05c0 1.46-.33 2.64-1 3.52-.67.88-1.56 1.32-2.69 1.32-.96 0-1.74-.33-2.33-1v4.48h-2.54V346.2h2.36l.09.93c.62-.74 1.42-1.11 2.41-1.11 1.17 0 2.08.43 2.73 1.3s.98 2.06.98 3.59v.14zm-2.54-.19c0-.88-.16-1.57-.47-2.05s-.77-.72-1.37-.72c-.8 0-1.34.3-1.64.91v3.89c.31.63.86.94 1.66.94 1.22.01 1.82-.98 1.82-2.97zM116.72 350.87c0-.94.18-1.78.54-2.52s.89-1.31 1.57-1.71 1.48-.61 2.38-.61c1.28 0 2.33.39 3.14 1.18s1.26 1.85 1.36 3.2l.02.65c0 1.46-.41 2.63-1.22 3.51s-1.91 1.32-3.28 1.32-2.47-.44-3.28-1.32c-.82-.88-1.23-2.07-1.23-3.59v-.11zm2.54.18c0 .9.17 1.59.51 2.07.34.48.83.72 1.46.72.62 0 1.1-.24 1.44-.71.35-.47.52-1.23.52-2.27 0-.89-.17-1.57-.52-2.06s-.83-.73-1.46-.73c-.62 0-1.1.24-1.44.73-.34.49-.51 1.24-.51 2.25zM132.64 348.59c-.35-.05-.65-.07-.91-.07-.96 0-1.59.33-1.89.98v6.22h-2.54v-9.51h2.4l.07 1.13c.51-.87 1.22-1.31 2.12-1.31.28 0 .54.04.79.11l-.04 2.45zM137.34 343.87v2.34h1.63v1.86h-1.63v4.75c0 .35.07.6.2.76s.39.23.77.23c.28 0 .53-.02.75-.06v1.92c-.5.15-1.01.23-1.54.23-1.78 0-2.69-.9-2.72-2.7v-5.12h-1.39v-1.86h1.39v-2.34h2.54zM145.53 353.09c0-.31-.15-.55-.46-.73-.31-.18-.8-.34-1.48-.48-2.26-.47-3.39-1.44-3.39-2.88 0-.84.35-1.55 1.05-2.11.7-.56 1.62-.85 2.75-.85 1.21 0 2.17.28 2.9.85.72.57 1.08 1.31 1.08 2.21h-2.54c0-.36-.12-.66-.35-.9-.23-.24-.6-.36-1.1-.36-.43 0-.76.1-.99.29s-.35.44-.35.74c0 .28.13.51.4.68.27.17.72.32 1.35.45s1.17.27 1.6.43c1.34.49 2.01 1.34 2.01 2.56 0 .87-.37 1.57-1.12 2.1-.74.54-1.71.8-2.88.8-.8 0-1.5-.14-2.12-.43-.62-.28-1.1-.67-1.46-1.17-.35-.49-.53-1.03-.53-1.6h2.41c.02.45.19.8.5 1.04s.73.36 1.25.36c.49 0 .85-.09 1.1-.28a.84.84 0 0 0 .37-.72z"/></svg>