<svg id="Layer_1" xmlns="http://www.w3.org/2000/svg" viewBox="0 0 300 250"><style>.st0{fill:#021d8b}</style><path class="st0" d="M126.37 78.18c0-.5-.18-.89-.53-1.17s-.98-.57-1.87-.87-1.62-.59-2.19-.87c-1.84-.91-2.76-2.15-2.76-3.73 0-.79.23-1.48.69-2.08.46-.6 1.11-1.07 1.95-1.41s1.78-.5 2.83-.5c1.02 0 1.94.18 2.75.55s1.44.88 1.89 1.56.67 1.44.67 2.31h-3.42c0-.58-.18-1.03-.53-1.35s-.83-.48-1.44-.48-1.1.13-1.45.41-.53.61-.53 1.03c0 .36.2.7.59.99s1.08.6 2.06.92 1.79.66 2.42 1.02c1.54.89 2.3 2.11 2.3 3.66 0 1.24-.47 2.22-1.41 2.93s-2.22 1.06-3.86 1.06c-1.15 0-2.2-.21-3.13-.62s-1.64-.98-2.11-1.7-.71-1.55-.71-2.49h3.44c0 .76.2 1.32.59 1.68s1.03.54 1.92.54c.57 0 1.01-.12 1.34-.37s.5-.58.5-1.02zM130.98 76.58c0-1.05.21-1.99.62-2.82s1-1.46 1.77-1.9 1.67-.66 2.71-.66c1.58 0 2.83.49 3.74 1.47s1.37 2.31 1.37 4v.12c0 1.65-.46 2.95-1.37 3.92s-2.15 1.45-3.72 1.45c-1.5 0-2.71-.45-3.62-1.35s-1.4-2.12-1.47-3.67l-.03-.56zm3.3.21c0 .98.15 1.69.46 2.15s.76.68 1.36.68c1.17 0 1.77-.9 1.8-2.71v-.33c0-1.89-.61-2.84-1.82-2.84-1.1 0-1.7.82-1.79 2.45l-.01.6zM151.83 77.35l1.76-5.96h3.53l-4.31 12.33-.19.45c-.61 1.37-1.69 2.05-3.24 2.05-.43 0-.88-.06-1.36-.19v-2.34h.43c.46 0 .82-.07 1.06-.2s.42-.37.54-.72l.26-.7-3.67-10.67h3.52l1.67 5.95zM157.56 76.58c0-1.05.21-1.99.62-2.82s1-1.46 1.77-1.9c.77-.44 1.67-.66 2.71-.66 1.58 0 2.83.49 3.74 1.47.91.98 1.37 2.31 1.37 4v.12c0 1.65-.46 2.95-1.37 3.92-.91.97-2.15 1.45-3.72 1.45-1.5 0-2.71-.45-3.62-1.35-.91-.9-1.4-2.12-1.47-3.67l-.03-.56zm3.29.21c0 .98.15 1.69.46 2.15.31.46.76.68 1.36.68 1.17 0 1.77-.9 1.8-2.71v-.33c0-1.89-.61-2.84-1.82-2.84-1.1 0-1.7.82-1.79 2.45l-.01.6zM175.5 80.82c-.7.89-1.64 1.34-2.82 1.34-1.16 0-2.04-.34-2.63-1.01s-.89-1.64-.89-2.91v-6.85h3.29v6.87c0 .91.44 1.36 1.32 1.36.76 0 1.29-.27 1.61-.81V71.4h3.31v10.57h-3.09l-.1-1.15zM189.71 78.03l-.93.93v3.01h-3.29V66.95h3.29v7.97l.33-.44 2.48-3.09h3.95l-3.7 4.35 3.95 6.22h-3.77l-2.31-3.93zM199.42 71.39l.11 1.24c.73-.96 1.74-1.44 3.02-1.44 1.1 0 1.92.33 2.47.99.54.66.83 1.65.84 2.97v6.81h-3.3v-6.67c0-.53-.11-.93-.32-1.18s-.61-.38-1.17-.38c-.64 0-1.12.25-1.44.76v7.46h-3.29V71.39h3.08zM207.26 76.58c0-1.05.21-1.99.62-2.82s1-1.46 1.77-1.9c.77-.44 1.67-.66 2.71-.66 1.58 0 2.83.49 3.74 1.47.91.98 1.37 2.31 1.37 4v.12c0 1.65-.46 2.95-1.37 3.92-.91.97-2.15 1.45-3.72 1.45-1.5 0-2.71-.45-3.62-1.35-.91-.9-1.4-2.12-1.47-3.67l-.03-.56zm3.29.21c0 .98.15 1.69.46 2.15.31.46.76.68 1.36.68 1.17 0 1.77-.9 1.8-2.71v-.33c0-1.89-.61-2.84-1.82-2.84-1.1 0-1.7.82-1.79 2.45l-.01.6zM228.04 77.62l1.06-6.23h3.15l-2.49 10.57h-2.78l-1.75-6.27-1.76 6.27h-2.78l-2.49-10.57h3.15l1.04 6.38 1.68-6.38h2.29l1.68 6.23zM128.01 101.62l1.06-6.23h3.15l-2.49 10.57h-2.78l-1.75-6.27-1.76 6.27h-2.78l-2.49-10.57h3.15l1.04 6.38 1.68-6.38h2.29l1.68 6.23zM136.62 96.53c.7-.89 1.6-1.33 2.7-1.33 1.17 0 2.04.34 2.64 1.04s.9 1.71.91 3.06v6.67h-3.3v-6.59c0-.56-.11-.97-.34-1.24s-.62-.4-1.16-.4c-.68 0-1.16.21-1.44.64v7.58h-3.29v-15h3.29v5.57zM149.8 106.16c-1.62 0-2.93-.48-3.94-1.45s-1.5-2.22-1.5-3.77v-.27c0-1.08.2-2.03.6-2.86s.98-1.47 1.75-1.92 1.68-.68 2.73-.68c1.48 0 2.66.46 3.52 1.38s1.29 2.21 1.29 3.85v1.28h-6.54c.12.59.37 1.06.77 1.4s.91.51 1.54.51c1.04 0 1.86-.36 2.44-1.09l1.5 1.78c-.41.57-.99 1.02-1.74 1.35s-1.55.49-2.42.49zm-.37-8.42c-.96 0-1.54.64-1.72 1.91h3.32v-.25c.01-.53-.12-.94-.4-1.23s-.68-.43-1.2-.43zM161.97 98.37l-1.08-.08c-1.04 0-1.7.33-1.99.98v6.69h-3.29V95.39h3.09l.11 1.36c.55-1.04 1.33-1.55 2.31-1.55.35 0 .66.04.92.12l-.07 3.05zM168.27 106.16c-1.62 0-2.93-.48-3.94-1.45-1-.97-1.5-2.22-1.5-3.77v-.27c0-1.08.2-2.03.6-2.86s.99-1.47 1.75-1.92c.77-.45 1.68-.68 2.73-.68 1.48 0 2.66.46 3.52 1.38s1.29 2.21 1.29 3.85v1.28h-6.54c.12.59.38 1.06.77 1.4.4.34.91.51 1.54.51 1.04 0 1.86-.36 2.44-1.09l1.5 1.78c-.41.57-.99 1.02-1.74 1.35s-1.55.49-2.42.49zm-.37-8.42c-.96 0-1.54.64-1.72 1.91h3.32v-.25c.01-.53-.12-.94-.4-1.23-.28-.29-.68-.43-1.2-.43zM183.25 101.35l1.76-5.96h3.53l-4.31 12.33-.19.45c-.61 1.37-1.69 2.05-3.24 2.05-.43 0-.88-.06-1.36-.19v-2.34h.43c.46 0 .82-.07 1.06-.2s.42-.37.54-.72l.26-.7-3.67-10.67h3.52l1.67 5.95zM188.97 100.58c0-1.05.21-1.99.62-2.82s1-1.46 1.77-1.9c.77-.44 1.67-.66 2.71-.66 1.58 0 2.83.49 3.74 1.47.91.98 1.37 2.31 1.37 4v.12c0 1.65-.46 2.95-1.37 3.92-.91.97-2.15 1.45-3.72 1.45-1.5 0-2.71-.45-3.62-1.35-.91-.9-1.4-2.12-1.47-3.67l-.03-.56zm3.29.21c0 .98.15 1.69.46 2.15.31.46.76.68 1.36.68 1.17 0 1.77-.9 1.8-2.71v-.33c0-1.89-.61-2.84-1.82-2.84-1.1 0-1.7.82-1.79 2.45l-.01.6zM206.91 104.82c-.7.89-1.64 1.34-2.82 1.34-1.16 0-2.04-.34-2.63-1.01s-.89-1.64-.89-2.91v-6.85h3.29v6.87c0 .91.44 1.36 1.32 1.36.76 0 1.29-.27 1.61-.81V95.4h3.31v10.57h-3.09l-.1-1.15zM222.41 102.99c0-.28-.15-.5-.44-.67s-.85-.34-1.67-.53-1.5-.42-2.03-.72-.94-.66-1.22-1.08c-.28-.42-.42-.91-.42-1.46 0-.97.4-1.77 1.2-2.4s1.85-.94 3.14-.94c1.39 0 2.51.32 3.36.95s1.27 1.46 1.27 2.49h-3.3c0-.85-.45-1.27-1.34-1.27-.34 0-.63.1-.87.29s-.35.43-.35.72.14.53.43.71.74.33 1.37.45 1.18.26 1.66.42c1.59.55 2.38 1.53 2.38 2.94 0 .96-.43 1.75-1.28 2.35s-1.96.91-3.33.91c-.91 0-1.71-.16-2.42-.49-.71-.33-1.26-.77-1.66-1.33-.4-.56-.6-1.15-.6-1.77h3.08c.01.49.18.84.49 1.07s.71.34 1.2.34c.45 0 .79-.09 1.01-.27s.34-.41.34-.71zM230.96 92.77v2.63h1.74v2.29h-1.74v4.83c0 .4.07.67.21.83s.43.23.85.23c.33 0 .6-.02.82-.06v2.35c-.59.19-1.21.28-1.86.28-1.13 0-1.97-.27-2.51-.8s-.81-1.34-.81-2.43v-5.24h-1.35v-2.29h1.35v-2.63h3.3zM239.94 105.96c-.12-.21-.22-.53-.31-.95-.61.76-1.45 1.14-2.54 1.14-1 0-1.84-.3-2.54-.9s-1.04-1.36-1.04-2.27c0-1.15.42-2.01 1.27-2.6s2.08-.88 3.69-.88h1.02v-.56c0-.97-.42-1.46-1.26-1.46-.78 0-1.17.39-1.17 1.16h-3.29c0-1.02.43-1.85 1.3-2.49.87-.64 1.98-.96 3.33-.96s2.41.33 3.19.99 1.18 1.56 1.2 2.71v4.68c.01.97.16 1.71.45 2.23v.17h-3.3zm-2.06-2.15c.41 0 .75-.09 1.02-.26s.46-.37.58-.6v-1.69h-.96c-1.15 0-1.72.51-1.72 1.54 0 .3.1.54.3.73s.47.28.78.28zM247.62 95.39l.11 1.24c.73-.96 1.74-1.44 3.02-1.44 1.1 0 1.92.33 2.47.99s.83 1.65.84 2.97v6.81h-3.3v-6.67c0-.53-.11-.93-.32-1.18s-.61-.38-1.17-.38c-.64 0-1.12.25-1.44.76v7.46h-3.29V95.39h3.08zM255.47 100.6c0-1.67.36-2.99 1.08-3.96s1.73-1.45 3.03-1.45c.94 0 1.74.37 2.38 1.11v-5.35h3.3v15h-2.96l-.17-1.13c-.68.89-1.54 1.33-2.58 1.33-1.26 0-2.25-.48-2.99-1.45s-1.09-2.32-1.09-4.1zm3.29.2c0 1.88.55 2.81 1.64 2.81.73 0 1.25-.31 1.56-.92v-4.02c-.3-.62-.81-.94-1.54-.94-1.02 0-1.57.82-1.65 2.46l-.01.61z"/></svg>