<svg id="Layer_1" xmlns="http://www.w3.org/2000/svg" viewBox="0 0 160 600"><style>.st0{fill:#021d8b}</style><path class="st0" d="M56.98 246.69c0-.55-.2-.98-.59-1.29-.39-.31-1.08-.63-2.06-.96-.98-.33-1.78-.65-2.41-.96-2.03-1-3.04-2.36-3.04-4.1 0-.87.25-1.63.76-2.29.5-.66 1.22-1.18 2.14-1.55.92-.37 1.96-.55 3.12-.55 1.12 0 2.13.2 3.02.6.89.4 1.58.97 2.08 1.71.49.74.74 1.59.74 2.54h-3.76c0-.64-.2-1.13-.59-1.48-.39-.35-.92-.53-1.58-.53-.67 0-1.21.15-1.6.45-.39.3-.59.67-.59 1.13 0 .4.21.76.64 1.09.43.33 1.19.66 2.27 1.01s1.97.72 2.66 1.12c1.69.97 2.54 2.32 2.54 4.03 0 1.37-.52 2.44-1.55 3.22s-2.45 1.17-4.24 1.17c-1.27 0-2.42-.23-3.44-.68-1.03-.46-1.8-1.08-2.32-1.87-.52-.79-.78-1.7-.78-2.73h3.78c0 .84.22 1.46.65 1.85.43.4 1.14.6 2.11.6.62 0 1.12-.13 1.48-.4.38-.26.56-.64.56-1.13zM62.06 244.93c0-1.16.23-2.19.68-3.1.45-.91 1.1-1.6 1.94-2.09.84-.49 1.84-.73 2.98-.73 1.74 0 3.11.54 4.11 1.62 1 1.08 1.5 2.54 1.5 4.4v.13c0 1.81-.5 3.25-1.51 4.31-1.01 1.06-2.37 1.6-4.09 1.6-1.65 0-2.98-.5-3.99-1.49-1-.99-1.54-2.34-1.62-4.03v-.62zm3.62.23c0 1.07.17 1.86.5 2.36.34.5.83.75 1.49.75 1.29 0 1.95-.99 1.98-2.98v-.37c0-2.08-.67-3.13-2-3.13-1.21 0-1.87.9-1.97 2.7v.67zM85 245.78l1.93-6.55h3.88l-4.74 13.57-.21.49c-.67 1.5-1.86 2.26-3.57 2.26-.47 0-.97-.07-1.49-.21v-2.58h.47c.51 0 .9-.07 1.17-.22.27-.15.47-.41.6-.79l.29-.77-4.04-11.74h3.87l1.84 6.54zM91.29 244.93c0-1.16.22-2.19.68-3.1.45-.91 1.1-1.6 1.95-2.09.84-.49 1.84-.73 2.97-.73 1.74 0 3.11.54 4.12 1.62 1 1.08 1.5 2.54 1.5 4.4v.13c0 1.81-.5 3.25-1.51 4.31-1.01 1.06-2.37 1.6-4.09 1.6-1.65 0-2.98-.5-3.98-1.49s-1.54-2.34-1.62-4.03l-.02-.62zm3.62.23c0 1.07.17 1.86.51 2.36.34.5.83.75 1.49.75 1.29 0 1.95-.99 1.98-2.98v-.37c0-2.08-.67-3.13-2-3.13-1.21 0-1.87.9-1.96 2.7l-.02.67zM111.03 249.59c-.77.98-1.8 1.47-3.1 1.47-1.28 0-2.24-.37-2.9-1.11-.66-.74-.98-1.81-.98-3.2v-7.53h3.62v7.55c0 1 .48 1.49 1.45 1.49.83 0 1.42-.3 1.77-.89v-8.15h3.64v11.62h-3.39l-.11-1.25zM27.83 272.92l-1.02 1.02v3.31h-3.62v-16.51h3.62v8.77l.37-.48 2.73-3.39h4.34l-4.07 4.78 4.34 6.84h-4.15l-2.54-4.34zM38.52 265.63l.12 1.36c.8-1.05 1.91-1.58 3.32-1.58 1.21 0 2.11.36 2.71 1.08.6.72.91 1.81.93 3.27v7.49h-3.63v-7.34c0-.59-.12-1.02-.35-1.29-.24-.28-.67-.41-1.29-.41-.71 0-1.24.28-1.58.84v8.21h-3.62v-11.62h3.39zM47.15 271.33c0-1.16.23-2.19.68-3.1.45-.91 1.1-1.6 1.94-2.09.84-.49 1.84-.73 2.98-.73 1.74 0 3.11.54 4.11 1.62 1 1.08 1.5 2.54 1.5 4.4v.13c0 1.81-.5 3.25-1.51 4.31-1.01 1.06-2.37 1.6-4.09 1.6-1.65 0-2.98-.5-3.99-1.49-1-.99-1.54-2.34-1.62-4.03v-.62zm3.62.23c0 1.07.17 1.86.5 2.36.34.5.83.75 1.49.75 1.29 0 1.95-.99 1.98-2.98v-.37c0-2.08-.67-3.13-2-3.13-1.21 0-1.87.9-1.97 2.7v.67zM70 272.48l1.17-6.85h3.47l-2.74 11.62h-3.06l-1.92-6.9-1.93 6.9h-3.06l-2.74-11.62h3.47l1.15 7.01 1.85-7.01h2.52l1.82 6.85zM91.45 272.48l1.17-6.85h3.47l-2.74 11.62h-3.06l-1.92-6.9-1.93 6.9h-3.06l-2.74-11.62h3.47l1.15 7.01 1.85-7.01h2.52l1.82 6.85zM100.92 266.87c.77-.97 1.76-1.46 2.96-1.46 1.28 0 2.25.38 2.9 1.14s.98 1.88 1 3.36v7.34h-3.63V270c0-.62-.12-1.07-.38-1.36-.25-.29-.68-.44-1.28-.44-.75 0-1.27.24-1.58.71v8.34H97.3v-16.5h3.62v6.12zM115.42 277.47c-1.78 0-3.23-.53-4.33-1.6-1.1-1.06-1.65-2.45-1.65-4.15v-.3c0-1.19.22-2.24.66-3.15.44-.91 1.08-1.61 1.93-2.11.84-.5 1.85-.75 3.01-.75 1.63 0 2.92.51 3.87 1.52.95 1.01 1.42 2.43 1.42 4.24v1.41h-7.2c.13.65.41 1.16.85 1.54s1 .56 1.7.56c1.15 0 2.04-.4 2.69-1.2l1.65 1.96c-.45.62-1.09 1.12-1.92 1.49-.83.35-1.72.54-2.68.54zm-.4-9.26c-1.06 0-1.69.7-1.89 2.11h3.65v-.28c.01-.58-.13-1.03-.44-1.35-.31-.33-.75-.48-1.32-.48zM128.81 268.9l-1.19-.09c-1.14 0-1.87.36-2.19 1.07v7.36h-3.62v-11.62h3.39l.12 1.49c.61-1.14 1.46-1.71 2.55-1.71.39 0 .72.04 1.01.13l-.07 3.37zM135.74 277.47c-1.78 0-3.23-.53-4.33-1.6-1.1-1.06-1.65-2.45-1.65-4.15v-.3c0-1.19.22-2.24.66-3.15.44-.91 1.08-1.61 1.93-2.11.84-.5 1.85-.75 3.01-.75 1.63 0 2.92.51 3.87 1.52.95 1.01 1.42 2.43 1.42 4.24v1.41h-7.2c.13.65.41 1.16.85 1.54s1 .56 1.7.56c1.15 0 2.04-.4 2.69-1.2l1.65 1.96c-.45.62-1.09 1.12-1.92 1.49-.84.35-1.73.54-2.68.54zm-.41-9.26c-1.06 0-1.69.7-1.89 2.11h3.65v-.28c.01-.58-.13-1.03-.44-1.35-.31-.33-.75-.48-1.32-.48zM38.82 298.58l1.93-6.55h3.88l-4.74 13.57-.2.49c-.67 1.5-1.86 2.26-3.57 2.26-.47 0-.97-.07-1.49-.21v-2.58h.47c.51 0 .9-.07 1.17-.22.27-.15.47-.41.6-.79l.29-.77-4.04-11.74h3.87l1.83 6.54zM45.11 297.73c0-1.16.23-2.19.68-3.1.45-.91 1.1-1.6 1.94-2.09.84-.49 1.84-.73 2.98-.73 1.74 0 3.11.54 4.11 1.62 1 1.08 1.5 2.54 1.5 4.4v.13c0 1.81-.5 3.25-1.51 4.31-1.01 1.06-2.37 1.6-4.09 1.6-1.65 0-2.98-.5-3.99-1.49-1-.99-1.54-2.34-1.62-4.03v-.62zm3.62.23c0 1.07.17 1.86.5 2.36.34.5.83.75 1.49.75 1.29 0 1.95-.99 1.98-2.98v-.37c0-2.08-.67-3.13-2-3.13-1.21 0-1.87.9-1.97 2.7v.67zM64.85 302.39c-.77.98-1.8 1.47-3.1 1.47-1.27 0-2.24-.37-2.9-1.11-.66-.74-.98-1.81-.98-3.2v-7.53h3.62v7.55c0 1 .48 1.49 1.45 1.49.83 0 1.42-.3 1.77-.89v-8.15h3.64v11.62h-3.39l-.11-1.25zM81.89 300.38c0-.31-.16-.55-.48-.74s-.94-.38-1.84-.58-1.65-.46-2.23-.79c-.59-.33-1.04-.72-1.34-1.19-.31-.47-.46-1-.46-1.6 0-1.07.44-1.95 1.32-2.64.88-.69 2.03-1.04 3.46-1.04 1.53 0 2.76.35 3.7 1.04.93.69 1.4 1.61 1.4 2.74h-3.63c0-.93-.49-1.4-1.47-1.4-.38 0-.7.11-.96.32a.97.97 0 0 0-.39.79c0 .32.16.58.47.78.31.2.82.37 1.51.49.69.13 1.3.28 1.82.46 1.75.6 2.62 1.68 2.62 3.23 0 1.06-.47 1.92-1.41 2.59-.94.67-2.16 1-3.66 1-1 0-1.88-.18-2.66-.54-.78-.36-1.39-.84-1.83-1.46-.44-.62-.66-1.26-.66-1.94h3.38c.01.54.19.93.54 1.18.34.25.78.37 1.32.37.49 0 .86-.1 1.11-.3.25-.18.37-.44.37-.77zM91.29 289.14v2.89h1.91v2.51h-1.91v5.32c0 .44.08.74.24.91.16.17.47.26.93.26.36 0 .66-.02.9-.06v2.59c-.65.21-1.33.31-2.04.31-1.25 0-2.17-.29-2.76-.88-.6-.59-.89-1.48-.89-2.67v-5.77h-1.48v-2.51h1.48v-2.89h3.62zM101.18 303.65c-.13-.24-.24-.58-.34-1.04-.67.84-1.6 1.26-2.79 1.26-1.1 0-2.03-.33-2.79-.99-.77-.66-1.15-1.49-1.15-2.5 0-1.26.47-2.21 1.4-2.86.93-.64 2.29-.97 4.06-.97h1.12v-.62c0-1.07-.46-1.61-1.38-1.61-.86 0-1.29.42-1.29 1.27H94.4c0-1.12.48-2.03 1.43-2.74s2.17-1.05 3.66-1.05 2.65.36 3.51 1.08 1.3 1.71 1.32 2.98v5.15c.01 1.07.18 1.88.49 2.45v.18h-3.63zm-2.27-2.36c.45 0 .83-.1 1.12-.29.3-.19.51-.41.64-.66v-1.86h-1.05c-1.26 0-1.89.57-1.89 1.7 0 .33.11.6.33.8.22.2.5.31.85.31zM109.63 292.03l.12 1.36c.8-1.05 1.91-1.58 3.32-1.58 1.21 0 2.12.36 2.71 1.08s.91 1.81.93 3.27v7.49h-3.63v-7.34c0-.59-.12-1.02-.36-1.29-.24-.28-.67-.41-1.29-.41-.71 0-1.23.28-1.58.84v8.21h-3.62v-11.62h3.4zM118.26 297.75c0-1.84.4-3.29 1.19-4.35s1.91-1.59 3.33-1.59c1.04 0 1.91.41 2.62 1.22v-5.89h3.63v16.5h-3.25l-.18-1.25c-.75.97-1.69 1.46-2.84 1.46-1.38 0-2.48-.53-3.29-1.59s-1.21-2.55-1.21-4.51zm3.62.23c0 2.06.6 3.09 1.8 3.09.8 0 1.38-.34 1.72-1.01v-4.43c-.33-.69-.9-1.03-1.7-1.03-1.12 0-1.72.9-1.82 2.71v.67z"/></svg>